{"metadata": {"schema_version": "0.2", "title": "None", "source_filename": "270.mid", "source_format": "midi"}, "resolution": 12, "tempos": [{"time": 0, "qpm": 71.00003550001774}], "time_signatures": [{"time": 0, "numerator": 4, "denominator": 4}], "tracks": [{"program": 0, "is_drum": false, "name": "MELODY", "notes": [{"time": 396, "pitch": 69, "duration": 18, "velocity": 119}, {"time": 414, "pitch": 76, "duration": 6, "velocity": 113}, {"time": 420, "pitch": 76, "duration": 12, "velocity": 114}, {"time": 432, "pitch": 74, "duration": 12, "velocity": 113}, {"time": 444, "pitch": 79, "duration": 6, "velocity": 108}, {"time": 450, "pitch": 76, "duration": 12, "velocity": 108}, {"time": 462, "pitch": 74, "duration": 6, "velocity": 110}, {"time": 468, "pitch": 76, "duration": 24, "velocity": 113}, {"time": 492, "pitch": 69, "duration": 18, "velocity": 114}, {"time": 510, "pitch": 74, "duration": 6, "velocity": 107}, {"time": 516, "pitch": 74, "duration": 12, "velocity": 113}, {"time": 528, "pitch": 72, "duration": 12, "velocity": 110}, {"time": 540, "pitch": 76, "duration": 7, "velocity": 113}, {"time": 546, "pitch": 74, "duration": 6, "velocity": 104}, {"time": 552, "pitch": 67, "duration": 6, "velocity": 98}, {"time": 558, "pitch": 72, "duration": 12, "velocity": 104}, {"time": 570, "pitch": 69, "duration": 18, "velocity": 102}, {"time": 588, "pitch": 76, "duration": 18, "velocity": 108}, {"time": 606, "pitch": 81, "duration": 6, "velocity": 113}, {"time": 612, "pitch": 81, "duration": 12, "velocity": 116}, {"time": 624, "pitch": 79, "duration": 12, "velocity": 117}, {"time": 636, "pitch": 84, "duration": 6, "velocity": 114}, {"time": 642, "pitch": 81, "duration": 6, "velocity": 107}, {"time": 648, "pitch": 79, "duration": 6, "velocity": 102}, {"time": 654, "pitch": 76, "duration": 6, "velocity": 104}, {"time": 660, "pitch": 79, "duration": 18, "velocity": 116}, {"time": 678, "pitch": 76, "duration": 3, "velocity": 104}, {"time": 681, "pitch": 79, "duration": 3, "velocity": 89}, {"time": 684, "pitch": 76, "duration": 6, "velocity": 96}, {"time": 690, "pitch": 74, "duration": 6, "velocity": 87}, {"time": 696, "pitch": 74, "duration": 6, "velocity": 89}, {"time": 702, "pitch": 69, "duration": 3, "velocity": 91}, {"time": 705, "pitch": 72, "duration": 3, "velocity": 88}, {"time": 708, "pitch": 76, "duration": 6, "velocity": 93}, {"time": 714, "pitch": 74, "duration": 3, "velocity": 91}, {"time": 717, "pitch": 74, "duration": 3, "velocity": 98}, {"time": 720, "pitch": 74, "duration": 6, "velocity": 102}, {"time": 726, "pitch": 69, "duration": 6, "velocity": 98}, {"time": 732, "pitch": 76, "duration": 6, "velocity": 110}, {"time": 738, "pitch": 74, "duration": 42, "velocity": 102}, {"time": 780, "pitch": 69, "duration": 18, "velocity": 119}, {"time": 798, "pitch": 76, "duration": 6, "velocity": 113}, {"time": 804, "pitch": 76, "duration": 12, "velocity": 114}, {"time": 816, "pitch": 74, "duration": 12, "velocity": 113}, {"time": 828, "pitch": 79, "duration": 6, "velocity": 108}, {"time": 834, "pitch": 76, "duration": 12, "velocity": 108}, {"time": 846, "pitch": 74, "duration": 6, "velocity": 110}, {"time": 852, "pitch": 76, "duration": 24, "velocity": 113}, {"time": 876, "pitch": 69, "duration": 18, "velocity": 114}, {"time": 894, "pitch": 74, "duration": 6, "velocity": 107}, {"time": 900, "pitch": 74, "duration": 12, "velocity": 113}, {"time": 912, "pitch": 72, "duration": 12, "velocity": 110}, {"time": 924, "pitch": 76, "duration": 7, "velocity": 113}, {"time": 930, "pitch": 74, "duration": 6, "velocity": 104}, {"time": 936, "pitch": 67, "duration": 6, "velocity": 98}, {"time": 942, "pitch": 72, "duration": 12, "velocity": 104}, {"time": 954, "pitch": 69, "duration": 18, "velocity": 102}, {"time": 972, "pitch": 76, "duration": 18, "velocity": 108}, {"time": 990, "pitch": 81, "duration": 6, "velocity": 113}, {"time": 996, "pitch": 81, "duration": 12, "velocity": 116}, {"time": 1008, "pitch": 79, "duration": 12, "velocity": 117}, {"time": 1020, "pitch": 84, "duration": 6, "velocity": 114}, {"time": 1026, "pitch": 81, "duration": 6, "velocity": 107}, {"time": 1032, "pitch": 79, "duration": 6, "velocity": 102}, {"time": 1038, "pitch": 76, "duration": 6, "velocity": 104}, {"time": 1044, "pitch": 79, "duration": 18, "velocity": 116}, {"time": 1062, "pitch": 76, "duration": 3, "velocity": 104}, {"time": 1065, "pitch": 79, "duration": 3, "velocity": 89}, {"time": 1068, "pitch": 76, "duration": 6, "velocity": 96}, {"time": 1074, "pitch": 74, "duration": 6, "velocity": 87}, {"time": 1080, "pitch": 74, "duration": 6, "velocity": 89}, {"time": 1086, "pitch": 69, "duration": 3, "velocity": 91}, {"time": 1089, "pitch": 72, "duration": 3, "velocity": 88}, {"time": 1092, "pitch": 76, "duration": 6, "velocity": 93}, {"time": 1098, "pitch": 74, "duration": 3, "velocity": 91}, {"time": 1101, "pitch": 72, "duration": 3, "velocity": 98}, {"time": 1104, "pitch": 72, "duration": 6, "velocity": 102}, {"time": 1110, "pitch": 74, "duration": 6, "velocity": 107}, {"time": 1116, "pitch": 72, "duration": 48, "velocity": 107}, {"time": 1164, "pitch": 81, "duration": 6, "velocity": 116}, {"time": 1170, "pitch": 83, "duration": 12, "velocity": 116}, {"time": 1182, "pitch": 84, "duration": 6, "velocity": 117}, {"time": 1188, "pitch": 84, "duration": 6, "velocity": 119}, {"time": 1194, "pitch": 84, "duration": 6, "velocity": 108}, {"time": 1200, "pitch": 83, "duration": 7, "velocity": 116}, {"time": 1206, "pitch": 81, "duration": 6, "velocity": 116}, {"time": 1212, "pitch": 81, "duration": 6, "velocity": 114}, {"time": 1218, "pitch": 79, "duration": 12, "velocity": 114}, {"time": 1230, "pitch": 76, "duration": 6, "velocity": 117}, {"time": 1236, "pitch": 79, "duration": 24, "velocity": 120}, {"time": 1260, "pitch": 79, "duration": 6, "velocity": 116}, {"time": 1266, "pitch": 81, "duration": 6, "velocity": 116}, {"time": 1272, "pitch": 81, "duration": 6, "velocity": 116}, {"time": 1278, "pitch": 81, "duration": 6, "velocity": 116}, {"time": 1284, "pitch": 79, "duration": 6, "velocity": 119}, {"time": 1290, "pitch": 81, "duration": 6, "velocity": 114}, {"time": 1296, "pitch": 72, "duration": 6, "velocity": 113}, {"time": 1302, "pitch": 74, "duration": 12, "velocity": 113}, {"time": 1314, "pitch": 76, "duration": 42, "velocity": 117}, {"time": 1356, "pitch": 74, "duration": 6, "velocity": 113}, {"time": 1362, "pitch": 74, "duration": 12, "velocity": 116}, {"time": 1374, "pitch": 76, "duration": 6, "velocity": 117}, {"time": 1380, "pitch": 74, "duration": 6, "velocity": 117}, {"time": 1386, "pitch": 74, "duration": 6, "velocity": 108}, {"time": 1392, "pitch": 69, "duration": 6, "velocity": 104}, {"time": 1398, "pitch": 72, "duration": 6, "velocity": 104}, {"time": 1404, "pitch": 81, "duration": 6, "velocity": 114}, {"time": 1410, "pitch": 79, "duration": 6, "velocity": 113}, {"time": 1416, "pitch": 76, "duration": 6, "velocity": 110}, {"time": 1422, "pitch": 79, "duration": 30, "velocity": 117}, {"time": 1452, "pitch": 81, "duration": 6, "velocity": 116}, {"time": 1458, "pitch": 83, "duration": 6, "velocity": 114}, {"time": 1464, "pitch": 84, "duration": 6, "velocity": 117}, {"time": 1470, "pitch": 81, "duration": 6, "velocity": 116}, {"time": 1476, "pitch": 84, "duration": 6, "velocity": 117}, {"time": 1482, "pitch": 84, "duration": 9, "velocity": 114}, {"time": 1491, "pitch": 83, "duration": 6, "velocity": 114}, {"time": 1497, "pitch": 81, "duration": 3, "velocity": 114}, {"time": 1500, "pitch": 83, "duration": 6, "velocity": 114}, {"time": 1506, "pitch": 81, "duration": 3, "velocity": 92}, {"time": 1509, "pitch": 79, "duration": 39, "velocity": 107}, {"time": 1548, "pitch": 81, "duration": 6, "velocity": 116}, {"time": 1554, "pitch": 83, "duration": 12, "velocity": 116}, {"time": 1566, "pitch": 84, "duration": 6, "velocity": 117}, {"time": 1572, "pitch": 84, "duration": 6, "velocity": 119}, {"time": 1578, "pitch": 84, "duration": 6, "velocity": 108}, {"time": 1584, "pitch": 83, "duration": 7, "velocity": 116}, {"time": 1590, "pitch": 81, "duration": 6, "velocity": 116}, {"time": 1596, "pitch": 81, "duration": 6, "velocity": 114}, {"time": 1602, "pitch": 79, "duration": 12, "velocity": 114}, {"time": 1614, "pitch": 76, "duration": 12, "velocity": 117}, {"time": 1626, "pitch": 79, "duration": 18, "velocity": 120}, {"time": 1644, "pitch": 79, "duration": 6, "velocity": 116}, {"time": 1650, "pitch": 81, "duration": 6, "velocity": 116}, {"time": 1656, "pitch": 81, "duration": 6, "velocity": 116}, {"time": 1662, "pitch": 81, "duration": 6, "velocity": 116}, {"time": 1668, "pitch": 79, "duration": 6, "velocity": 119}, {"time": 1674, "pitch": 81, "duration": 6, "velocity": 114}, {"time": 1680, "pitch": 72, "duration": 6, "velocity": 113}, {"time": 1686, "pitch": 74, "duration": 12, "velocity": 113}, {"time": 1698, "pitch": 76, "duration": 42, "velocity": 117}, {"time": 1740, "pitch": 74, "duration": 6, "velocity": 113}, {"time": 1746, "pitch": 74, "duration": 12, "velocity": 116}, {"time": 1758, "pitch": 76, "duration": 6, "velocity": 117}, {"time": 1764, "pitch": 74, "duration": 6, "velocity": 117}, {"time": 1770, "pitch": 74, "duration": 6, "velocity": 108}, {"time": 1776, "pitch": 69, "duration": 6, "velocity": 104}, {"time": 1782, "pitch": 72, "duration": 6, "velocity": 104}, {"time": 1788, "pitch": 81, "duration": 6, "velocity": 114}, {"time": 1794, "pitch": 79, "duration": 6, "velocity": 113}, {"time": 1800, "pitch": 76, "duration": 6, "velocity": 110}, {"time": 1806, "pitch": 79, "duration": 30, "velocity": 117}, {"time": 1836, "pitch": 81, "duration": 6, "velocity": 116}, {"time": 1842, "pitch": 83, "duration": 6, "velocity": 114}, {"time": 1848, "pitch": 84, "duration": 6, "velocity": 117}, {"time": 1854, "pitch": 81, "duration": 6, "velocity": 116}, {"time": 1860, "pitch": 79, "duration": 18, "velocity": 117}, {"time": 1878, "pitch": 76, "duration": 6, "velocity": 117}, {"time": 1884, "pitch": 81, "duration": 17, "velocity": 119}, {"time": 2122, "pitch": 69, "duration": 18, "velocity": 119}, {"time": 2140, "pitch": 76, "duration": 6, "velocity": 113}, {"time": 2146, "pitch": 76, "duration": 12, "velocity": 114}, {"time": 2158, "pitch": 74, "duration": 12, "velocity": 113}, {"time": 2170, "pitch": 79, "duration": 6, "velocity": 108}, {"time": 2176, "pitch": 76, "duration": 12, "velocity": 108}, {"time": 2188, "pitch": 74, "duration": 6, "velocity": 110}, {"time": 2194, "pitch": 76, "duration": 24, "velocity": 113}, {"time": 2218, "pitch": 69, "duration": 18, "velocity": 114}, {"time": 2236, "pitch": 74, "duration": 6, "velocity": 107}, {"time": 2242, "pitch": 74, "duration": 12, "velocity": 113}, {"time": 2254, "pitch": 72, "duration": 12, "velocity": 110}, {"time": 2266, "pitch": 76, "duration": 7, "velocity": 113}, {"time": 2272, "pitch": 74, "duration": 6, "velocity": 104}, {"time": 2278, "pitch": 67, "duration": 6, "velocity": 98}, {"time": 2284, "pitch": 72, "duration": 12, "velocity": 104}, {"time": 2296, "pitch": 69, "duration": 18, "velocity": 102}, {"time": 2314, "pitch": 76, "duration": 18, "velocity": 108}, {"time": 2332, "pitch": 81, "duration": 6, "velocity": 113}, {"time": 2338, "pitch": 81, "duration": 12, "velocity": 116}, {"time": 2350, "pitch": 79, "duration": 12, "velocity": 117}, {"time": 2362, "pitch": 84, "duration": 6, "velocity": 114}, {"time": 2368, "pitch": 81, "duration": 6, "velocity": 107}, {"time": 2374, "pitch": 79, "duration": 6, "velocity": 102}, {"time": 2380, "pitch": 76, "duration": 6, "velocity": 104}, {"time": 2386, "pitch": 79, "duration": 18, "velocity": 116}, {"time": 2404, "pitch": 76, "duration": 4, "velocity": 104}, {"time": 2408, "pitch": 79, "duration": 2, "velocity": 89}, {"time": 2410, "pitch": 76, "duration": 6, "velocity": 96}, {"time": 2416, "pitch": 74, "duration": 6, "velocity": 87}, {"time": 2422, "pitch": 74, "duration": 6, "velocity": 89}, {"time": 2428, "pitch": 69, "duration": 4, "velocity": 91}, {"time": 2432, "pitch": 72, "duration": 2, "velocity": 88}, {"time": 2434, "pitch": 76, "duration": 6, "velocity": 93}, {"time": 2440, "pitch": 74, "duration": 4, "velocity": 91}, {"time": 2444, "pitch": 72, "duration": 2, "velocity": 98}, {"time": 2446, "pitch": 72, "duration": 6, "velocity": 102}, {"time": 2452, "pitch": 74, "duration": 7, "velocity": 107}, {"time": 2458, "pitch": 72, "duration": 46, "velocity": 107}, {"time": 2506, "pitch": 81, "duration": 6, "velocity": 116}, {"time": 2512, "pitch": 83, "duration": 12, "velocity": 116}, {"time": 2524, "pitch": 84, "duration": 6, "velocity": 117}, {"time": 2530, "pitch": 84, "duration": 6, "velocity": 119}, {"time": 2536, "pitch": 84, "duration": 6, "velocity": 108}, {"time": 2542, "pitch": 83, "duration": 7, "velocity": 116}, {"time": 2548, "pitch": 81, "duration": 6, "velocity": 116}, {"time": 2554, "pitch": 81, "duration": 6, "velocity": 114}, {"time": 2560, "pitch": 79, "duration": 12, "velocity": 114}, {"time": 2572, "pitch": 76, "duration": 6, "velocity": 117}, {"time": 2578, "pitch": 79, "duration": 24, "velocity": 120}, {"time": 2602, "pitch": 79, "duration": 6, "velocity": 116}, {"time": 2608, "pitch": 81, "duration": 6, "velocity": 116}, {"time": 2614, "pitch": 81, "duration": 6, "velocity": 116}, {"time": 2620, "pitch": 81, "duration": 6, "velocity": 116}, {"time": 2626, "pitch": 79, "duration": 6, "velocity": 119}, {"time": 2632, "pitch": 81, "duration": 6, "velocity": 114}, {"time": 2638, "pitch": 72, "duration": 6, "velocity": 113}, {"time": 2644, "pitch": 74, "duration": 12, "velocity": 113}, {"time": 2656, "pitch": 76, "duration": 42, "velocity": 117}, {"time": 2698, "pitch": 74, "duration": 6, "velocity": 113}, {"time": 2704, "pitch": 74, "duration": 12, "velocity": 116}, {"time": 2716, "pitch": 76, "duration": 6, "velocity": 117}, {"time": 2722, "pitch": 74, "duration": 6, "velocity": 117}, {"time": 2728, "pitch": 74, "duration": 6, "velocity": 108}, {"time": 2734, "pitch": 69, "duration": 7, "velocity": 104}, {"time": 2740, "pitch": 72, "duration": 6, "velocity": 104}, {"time": 2746, "pitch": 81, "duration": 6, "velocity": 114}, {"time": 2752, "pitch": 79, "duration": 6, "velocity": 113}, {"time": 2758, "pitch": 76, "duration": 6, "velocity": 110}, {"time": 2764, "pitch": 79, "duration": 30, "velocity": 117}, {"time": 2794, "pitch": 81, "duration": 6, "velocity": 116}, {"time": 2800, "pitch": 83, "duration": 6, "velocity": 114}, {"time": 2806, "pitch": 84, "duration": 6, "velocity": 117}, {"time": 2812, "pitch": 81, "duration": 6, "velocity": 116}, {"time": 2818, "pitch": 84, "duration": 6, "velocity": 117}, {"time": 2824, "pitch": 84, "duration": 10, "velocity": 114}, {"time": 2834, "pitch": 83, "duration": 6, "velocity": 114}, {"time": 2840, "pitch": 81, "duration": 2, "velocity": 114}, {"time": 2842, "pitch": 83, "duration": 6, "velocity": 114}, {"time": 2848, "pitch": 81, "duration": 4, "velocity": 92}, {"time": 2852, "pitch": 79, "duration": 38, "velocity": 107}, {"time": 2890, "pitch": 81, "duration": 6, "velocity": 116}, {"time": 2896, "pitch": 83, "duration": 12, "velocity": 116}, {"time": 2908, "pitch": 84, "duration": 6, "velocity": 117}, {"time": 2914, "pitch": 84, "duration": 6, "velocity": 119}, {"time": 2920, "pitch": 84, "duration": 6, "velocity": 108}, {"time": 2926, "pitch": 83, "duration": 7, "velocity": 116}, {"time": 2932, "pitch": 81, "duration": 6, "velocity": 116}, {"time": 2938, "pitch": 81, "duration": 6, "velocity": 114}, {"time": 2944, "pitch": 79, "duration": 12, "velocity": 114}, {"time": 2956, "pitch": 76, "duration": 12, "velocity": 117}, {"time": 2968, "pitch": 79, "duration": 18, "velocity": 120}, {"time": 2986, "pitch": 79, "duration": 6, "velocity": 116}, {"time": 2992, "pitch": 81, "duration": 6, "velocity": 116}, {"time": 2998, "pitch": 81, "duration": 6, "velocity": 116}, {"time": 3004, "pitch": 81, "duration": 6, "velocity": 116}, {"time": 3010, "pitch": 79, "duration": 6, "velocity": 119}, {"time": 3016, "pitch": 81, "duration": 6, "velocity": 114}, {"time": 3022, "pitch": 72, "duration": 6, "velocity": 113}, {"time": 3028, "pitch": 74, "duration": 12, "velocity": 113}, {"time": 3040, "pitch": 76, "duration": 42, "velocity": 117}, {"time": 3082, "pitch": 74, "duration": 6, "velocity": 113}, {"time": 3088, "pitch": 74, "duration": 12, "velocity": 116}, {"time": 3100, "pitch": 76, "duration": 6, "velocity": 117}, {"time": 3106, "pitch": 74, "duration": 6, "velocity": 117}, {"time": 3112, "pitch": 74, "duration": 6, "velocity": 108}, {"time": 3118, "pitch": 69, "duration": 7, "velocity": 104}, {"time": 3124, "pitch": 72, "duration": 6, "velocity": 104}, {"time": 3130, "pitch": 81, "duration": 6, "velocity": 114}, {"time": 3136, "pitch": 79, "duration": 6, "velocity": 113}, {"time": 3142, "pitch": 76, "duration": 6, "velocity": 110}, {"time": 3148, "pitch": 79, "duration": 30, "velocity": 117}, {"time": 3178, "pitch": 81, "duration": 6, "velocity": 116}, {"time": 3184, "pitch": 83, "duration": 6, "velocity": 114}, {"time": 3190, "pitch": 84, "duration": 6, "velocity": 117}, {"time": 3196, "pitch": 81, "duration": 6, "velocity": 116}, {"time": 3202, "pitch": 79, "duration": 18, "velocity": 117}, {"time": 3220, "pitch": 76, "duration": 6, "velocity": 117}, {"time": 3226, "pitch": 81, "duration": 20, "velocity": 119}, {"time": 3274, "pitch": 81, "duration": 6, "velocity": 116}, {"time": 3280, "pitch": 83, "duration": 12, "velocity": 116}, {"time": 3292, "pitch": 84, "duration": 6, "velocity": 117}, {"time": 3298, "pitch": 84, "duration": 6, "velocity": 119}, {"time": 3304, "pitch": 84, "duration": 6, "velocity": 108}, {"time": 3310, "pitch": 83, "duration": 7, "velocity": 116}, {"time": 3316, "pitch": 81, "duration": 6, "velocity": 116}, {"time": 3322, "pitch": 81, "duration": 6, "velocity": 114}, {"time": 3328, "pitch": 79, "duration": 12, "velocity": 114}, {"time": 3340, "pitch": 76, "duration": 6, "velocity": 117}, {"time": 3346, "pitch": 79, "duration": 24, "velocity": 120}, {"time": 3370, "pitch": 79, "duration": 6, "velocity": 116}, {"time": 3376, "pitch": 81, "duration": 6, "velocity": 116}, {"time": 3382, "pitch": 81, "duration": 6, "velocity": 116}, {"time": 3388, "pitch": 81, "duration": 6, "velocity": 116}, {"time": 3394, "pitch": 79, "duration": 6, "velocity": 119}, {"time": 3400, "pitch": 81, "duration": 6, "velocity": 114}, {"time": 3406, "pitch": 72, "duration": 6, "velocity": 113}, {"time": 3412, "pitch": 74, "duration": 12, "velocity": 113}, {"time": 3424, "pitch": 76, "duration": 42, "velocity": 117}, {"time": 3466, "pitch": 74, "duration": 6, "velocity": 113}, {"time": 3472, "pitch": 74, "duration": 12, "velocity": 116}, {"time": 3484, "pitch": 76, "duration": 6, "velocity": 117}, {"time": 3490, "pitch": 74, "duration": 6, "velocity": 117}, {"time": 3496, "pitch": 74, "duration": 6, "velocity": 108}, {"time": 3502, "pitch": 69, "duration": 7, "velocity": 104}, {"time": 3508, "pitch": 72, "duration": 6, "velocity": 104}, {"time": 3514, "pitch": 81, "duration": 6, "velocity": 114}, {"time": 3520, "pitch": 79, "duration": 6, "velocity": 113}, {"time": 3526, "pitch": 76, "duration": 6, "velocity": 110}, {"time": 3532, "pitch": 79, "duration": 30, "velocity": 117}, {"time": 3562, "pitch": 81, "duration": 6, "velocity": 116}, {"time": 3568, "pitch": 83, "duration": 6, "velocity": 114}, {"time": 3574, "pitch": 84, "duration": 6, "velocity": 117}, {"time": 3580, "pitch": 81, "duration": 6, "velocity": 116}, {"time": 3586, "pitch": 79, "duration": 12, "velocity": 116}, {"time": 3604, "pitch": 76, "duration": 6, "velocity": 110}, {"time": 3610, "pitch": 81, "duration": 50, "velocity": 117}]}, {"program": 0, "is_drum": false, "name": "PIANO", "notes": [{"time": 12, "pitch": 45, "duration": 45, "velocity": 92}, {"time": 18, "pitch": 52, "duration": 38, "velocity": 88}, {"time": 24, "pitch": 59, "duration": 7, "velocity": 91}, {"time": 30, "pitch": 60, "duration": 32, "velocity": 91}, {"time": 60, "pitch": 45, "duration": 40, "velocity": 88}, {"time": 66, "pitch": 52, "duration": 36, "velocity": 86}, {"time": 72, "pitch": 59, "duration": 7, "velocity": 85}, {"time": 78, "pitch": 60, "duration": 32, "velocity": 91}, {"time": 108, "pitch": 45, "duration": 44, "velocity": 87}, {"time": 114, "pitch": 52, "duration": 39, "velocity": 86}, {"time": 120, "pitch": 59, "duration": 7, "velocity": 91}, {"time": 126, "pitch": 60, "duration": 24, "velocity": 91}, {"time": 148, "pitch": 59, "duration": 14, "velocity": 84}, {"time": 156, "pitch": 45, "duration": 41, "velocity": 89}, {"time": 162, "pitch": 52, "duration": 36, "velocity": 87}, {"time": 168, "pitch": 59, "duration": 8, "velocity": 84}, {"time": 174, "pitch": 60, "duration": 17, "velocity": 92}, {"time": 192, "pitch": 59, "duration": 4, "velocity": 86}, {"time": 204, "pitch": 45, "duration": 13, "velocity": 87}, {"time": 210, "pitch": 52, "duration": 6, "velocity": 66}, {"time": 216, "pitch": 57, "duration": 2, "velocity": 82}, {"time": 222, "pitch": 60, "duration": 7, "velocity": 76}, {"time": 228, "pitch": 64, "duration": 19, "velocity": 77}, {"time": 228, "pitch": 72, "duration": 21, "velocity": 79}, {"time": 252, "pitch": 52, "duration": 38, "velocity": 84}, {"time": 252, "pitch": 64, "duration": 6, "velocity": 81}, {"time": 252, "pitch": 71, "duration": 10, "velocity": 83}, {"time": 258, "pitch": 59, "duration": 31, "velocity": 73}, {"time": 264, "pitch": 64, "duration": 24, "velocity": 68}, {"time": 270, "pitch": 67, "duration": 17, "velocity": 83}, {"time": 270, "pitch": 74, "duration": 18, "velocity": 84}, {"time": 288, "pitch": 71, "duration": 11, "velocity": 104}, {"time": 300, "pitch": 41, "duration": 18, "velocity": 86}, {"time": 300, "pitch": 60, "duration": 19, "velocity": 86}, {"time": 300, "pitch": 69, "duration": 19, "velocity": 91}, {"time": 306, "pitch": 48, "duration": 13, "velocity": 73}, {"time": 312, "pitch": 53, "duration": 10, "velocity": 85}, {"time": 321, "pitch": 59, "duration": 14, "velocity": 68}, {"time": 321, "pitch": 62, "duration": 7, "velocity": 83}, {"time": 324, "pitch": 43, "duration": 19, "velocity": 82}, {"time": 324, "pitch": 67, "duration": 15, "velocity": 91}, {"time": 330, "pitch": 50, "duration": 14, "velocity": 72}, {"time": 336, "pitch": 55, "duration": 7, "velocity": 82}, {"time": 348, "pitch": 45, "duration": 42, "velocity": 83}, {"time": 348, "pitch": 60, "duration": 12, "velocity": 69}, {"time": 348, "pitch": 69, "duration": 7, "velocity": 89}, {"time": 354, "pitch": 52, "duration": 36, "velocity": 68}, {"time": 360, "pitch": 57, "duration": 30, "velocity": 80}, {"time": 366, "pitch": 59, "duration": 6, "velocity": 80}, {"time": 372, "pitch": 60, "duration": 1, "velocity": 91}, {"time": 384, "pitch": 64, "duration": 6, "velocity": 83}, {"time": 390, "pitch": 71, "duration": 6, "velocity": 86}, {"time": 396, "pitch": 45, "duration": 11, "velocity": 76}, {"time": 396, "pitch": 64, "duration": 13, "velocity": 82}, {"time": 396, "pitch": 72, "duration": 3, "velocity": 87}, {"time": 402, "pitch": 52, "duration": 6, "velocity": 64}, {"time": 408, "pitch": 57, "duration": 1, "velocity": 82}, {"time": 414, "pitch": 59, "duration": 6, "velocity": 72}, {"time": 420, "pitch": 60, "duration": 14, "velocity": 66}, {"time": 420, "pitch": 64, "duration": 19, "velocity": 78}, {"time": 420, "pitch": 72, "duration": 21, "velocity": 76}, {"time": 441, "pitch": 64, "duration": 5, "velocity": 65}, {"time": 444, "pitch": 52, "duration": 38, "velocity": 67}, {"time": 444, "pitch": 71, "duration": 11, "velocity": 76}, {"time": 450, "pitch": 59, "duration": 31, "velocity": 69}, {"time": 456, "pitch": 64, "duration": 25, "velocity": 72}, {"time": 462, "pitch": 67, "duration": 22, "velocity": 76}, {"time": 462, "pitch": 74, "duration": 6, "velocity": 77}, {"time": 468, "pitch": 71, "duration": 16, "velocity": 81}, {"time": 492, "pitch": 41, "duration": 42, "velocity": 76}, {"time": 492, "pitch": 60, "duration": 15, "velocity": 84}, {"time": 492, "pitch": 69, "duration": 14, "velocity": 85}, {"time": 498, "pitch": 48, "duration": 37, "velocity": 65}, {"time": 504, "pitch": 53, "duration": 32, "velocity": 78}, {"time": 510, "pitch": 60, "duration": 24, "velocity": 78}, {"time": 516, "pitch": 65, "duration": 24, "velocity": 78}, {"time": 540, "pitch": 43, "duration": 18, "velocity": 83}, {"time": 540, "pitch": 59, "duration": 19, "velocity": 78}, {"time": 540, "pitch": 67, "duration": 15, "velocity": 84}, {"time": 546, "pitch": 50, "duration": 18, "velocity": 66}, {"time": 552, "pitch": 55, "duration": 10, "velocity": 80}, {"time": 564, "pitch": 45, "duration": 19, "velocity": 80}, {"time": 570, "pitch": 52, "duration": 13, "velocity": 80}, {"time": 576, "pitch": 57, "duration": 7, "velocity": 82}, {"time": 582, "pitch": 59, "duration": 6, "velocity": 76}, {"time": 588, "pitch": 45, "duration": 12, "velocity": 84}, {"time": 588, "pitch": 60, "duration": 1, "velocity": 89}, {"time": 594, "pitch": 52, "duration": 6, "velocity": 76}, {"time": 600, "pitch": 57, "duration": 2, "velocity": 83}, {"time": 606, "pitch": 60, "duration": 20, "velocity": 81}, {"time": 612, "pitch": 64, "duration": 24, "velocity": 82}, {"time": 612, "pitch": 72, "duration": 24, "velocity": 79}, {"time": 636, "pitch": 53, "duration": 19, "velocity": 86}, {"time": 636, "pitch": 69, "duration": 6, "velocity": 86}, {"time": 636, "pitch": 72, "duration": 6, "velocity": 87}, {"time": 642, "pitch": 60, "duration": 12, "velocity": 64}, {"time": 648, "pitch": 65, "duration": 5, "velocity": 84}, {"time": 654, "pitch": 69, "duration": 4, "velocity": 84}, {"time": 660, "pitch": 52, "duration": 14, "velocity": 77}, {"time": 660, "pitch": 67, "duration": 19, "velocity": 84}, {"time": 660, "pitch": 74, "duration": 19, "velocity": 86}, {"time": 684, "pitch": 50, "duration": 14, "velocity": 84}, {"time": 684, "pitch": 62, "duration": 7, "velocity": 80}, {"time": 684, "pitch": 65, "duration": 6, "velocity": 82}, {"time": 684, "pitch": 69, "duration": 6, "velocity": 87}, {"time": 690, "pitch": 57, "duration": 8, "velocity": 60}, {"time": 696, "pitch": 62, "duration": 11, "velocity": 87}, {"time": 696, "pitch": 69, "duration": 7, "velocity": 90}, {"time": 714, "pitch": 50, "duration": 1, "velocity": 64}, {"time": 717, "pitch": 50, "duration": 4, "velocity": 38}, {"time": 720, "pitch": 62, "duration": 11, "velocity": 91}, {"time": 720, "pitch": 69, "duration": 7, "velocity": 92}, {"time": 732, "pitch": 43, "duration": 11, "velocity": 83}, {"time": 732, "pitch": 59, "duration": 13, "velocity": 86}, {"time": 732, "pitch": 67, "duration": 13, "velocity": 88}, {"time": 738, "pitch": 50, "duration": 6, "velocity": 63}, {"time": 744, "pitch": 55, "duration": 1, "velocity": 81}, {"time": 750, "pitch": 57, "duration": 6, "velocity": 63}, {"time": 756, "pitch": 59, "duration": 13, "velocity": 85}, {"time": 762, "pitch": 62, "duration": 2, "velocity": 76}, {"time": 768, "pitch": 69, "duration": 5, "velocity": 116}, {"time": 774, "pitch": 71, "duration": 6, "velocity": 88}, {"time": 780, "pitch": 45, "duration": 37, "velocity": 77}, {"time": 780, "pitch": 64, "duration": 13, "velocity": 87}, {"time": 780, "pitch": 72, "duration": 2, "velocity": 86}, {"time": 786, "pitch": 52, "duration": 32, "velocity": 64}, {"time": 792, "pitch": 57, "duration": 25, "velocity": 80}, {"time": 798, "pitch": 59, "duration": 6, "velocity": 73}, {"time": 804, "pitch": 60, "duration": 1, "velocity": 84}, {"time": 816, "pitch": 64, "duration": 6, "velocity": 92}, {"time": 822, "pitch": 72, "duration": 6, "velocity": 84}, {"time": 828, "pitch": 52, "duration": 38, "velocity": 84}, {"time": 828, "pitch": 64, "duration": 7, "velocity": 86}, {"time": 828, "pitch": 71, "duration": 7, "velocity": 86}, {"time": 834, "pitch": 59, "duration": 7, "velocity": 38}, {"time": 840, "pitch": 64, "duration": 6, "velocity": 87}, {"time": 840, "pitch": 71, "duration": 6, "velocity": 88}, {"time": 846, "pitch": 59, "duration": 8, "velocity": 52}, {"time": 852, "pitch": 64, "duration": 7, "velocity": 84}, {"time": 852, "pitch": 71, "duration": 7, "velocity": 86}, {"time": 858, "pitch": 59, "duration": 6, "velocity": 64}, {"time": 864, "pitch": 64, "duration": 12, "velocity": 102}, {"time": 864, "pitch": 71, "duration": 8, "velocity": 98}, {"time": 876, "pitch": 41, "duration": 42, "velocity": 84}, {"time": 876, "pitch": 60, "duration": 7, "velocity": 86}, {"time": 876, "pitch": 69, "duration": 6, "velocity": 90}, {"time": 882, "pitch": 48, "duration": 37, "velocity": 67}, {"time": 888, "pitch": 60, "duration": 8, "velocity": 91}, {"time": 888, "pitch": 69, "duration": 7, "velocity": 91}, {"time": 900, "pitch": 60, "duration": 8, "velocity": 86}, {"time": 900, "pitch": 69, "duration": 7, "velocity": 88}, {"time": 906, "pitch": 53, "duration": 14, "velocity": 64}, {"time": 912, "pitch": 60, "duration": 8, "velocity": 89}, {"time": 912, "pitch": 69, "duration": 8, "velocity": 91}, {"time": 924, "pitch": 43, "duration": 20, "velocity": 83}, {"time": 924, "pitch": 59, "duration": 8, "velocity": 88}, {"time": 924, "pitch": 67, "duration": 7, "velocity": 91}, {"time": 930, "pitch": 50, "duration": 18, "velocity": 40}, {"time": 936, "pitch": 55, "duration": 9, "velocity": 77}, {"time": 936, "pitch": 59, "duration": 8, "velocity": 88}, {"time": 936, "pitch": 67, "duration": 8, "velocity": 87}, {"time": 948, "pitch": 45, "duration": 21, "velocity": 79}, {"time": 948, "pitch": 60, "duration": 10, "velocity": 86}, {"time": 948, "pitch": 69, "duration": 5, "velocity": 88}, {"time": 954, "pitch": 52, "duration": 18, "velocity": 83}, {"time": 957, "pitch": 57, "duration": 12, "velocity": 87}, {"time": 960, "pitch": 59, "duration": 3, "velocity": 88}, {"time": 963, "pitch": 60, "duration": 1, "velocity": 104}, {"time": 966, "pitch": 64, "duration": 4, "velocity": 96}, {"time": 969, "pitch": 69, "duration": 3, "velocity": 93}, {"time": 972, "pitch": 45, "duration": 38, "velocity": 86}, {"time": 972, "pitch": 64, "duration": 12, "velocity": 92}, {"time": 972, "pitch": 72, "duration": 4, "velocity": 100}, {"time": 978, "pitch": 52, "duration": 31, "velocity": 79}, {"time": 984, "pitch": 60, "duration": 6, "velocity": 86}, {"time": 984, "pitch": 69, "duration": 6, "velocity": 88}, {"time": 990, "pitch": 57, "duration": 19, "velocity": 74}, {"time": 996, "pitch": 60, "duration": 7, "velocity": 87}, {"time": 996, "pitch": 69, "duration": 7, "velocity": 89}, {"time": 1008, "pitch": 60, "duration": 8, "velocity": 88}, {"time": 1008, "pitch": 69, "duration": 8, "velocity": 88}, {"time": 1020, "pitch": 41, "duration": 14, "velocity": 82}, {"time": 1020, "pitch": 60, "duration": 7, "velocity": 86}, {"time": 1020, "pitch": 69, "duration": 6, "velocity": 89}, {"time": 1026, "pitch": 53, "duration": 12, "velocity": 69}, {"time": 1032, "pitch": 60, "duration": 8, "velocity": 89}, {"time": 1032, "pitch": 69, "duration": 9, "velocity": 91}, {"time": 1044, "pitch": 52, "duration": 14, "velocity": 81}, {"time": 1044, "pitch": 59, "duration": 17, "velocity": 79}, {"time": 1044, "pitch": 64, "duration": 18, "velocity": 83}, {"time": 1044, "pitch": 67, "duration": 18, "velocity": 80}, {"time": 1068, "pitch": 50, "duration": 15, "velocity": 82}, {"time": 1068, "pitch": 62, "duration": 7, "velocity": 81}, {"time": 1068, "pitch": 65, "duration": 6, "velocity": 83}, {"time": 1068, "pitch": 69, "duration": 6, "velocity": 82}, {"time": 1074, "pitch": 57, "duration": 8, "velocity": 52}, {"time": 1080, "pitch": 62, "duration": 10, "velocity": 88}, {"time": 1080, "pitch": 69, "duration": 8, "velocity": 93}, {"time": 1092, "pitch": 43, "duration": 19, "velocity": 82}, {"time": 1092, "pitch": 59, "duration": 7, "velocity": 83}, {"time": 1092, "pitch": 62, "duration": 7, "velocity": 73}, {"time": 1092, "pitch": 67, "duration": 6, "velocity": 84}, {"time": 1098, "pitch": 50, "duration": 13, "velocity": 64}, {"time": 1104, "pitch": 55, "duration": 12, "velocity": 73}, {"time": 1104, "pitch": 59, "duration": 5, "velocity": 85}, {"time": 1104, "pitch": 62, "duration": 10, "velocity": 85}, {"time": 1104, "pitch": 67, "duration": 7, "velocity": 85}, {"time": 1116, "pitch": 48, "duration": 22, "velocity": 79}, {"time": 1116, "pitch": 60, "duration": 3, "velocity": 80}, {"time": 1116, "pitch": 64, "duration": 12, "velocity": 82}, {"time": 1116, "pitch": 67, "duration": 12, "velocity": 84}, {"time": 1122, "pitch": 55, "duration": 18, "velocity": 74}, {"time": 1128, "pitch": 60, "duration": 7, "velocity": 85}, {"time": 1134, "pitch": 65, "duration": 5, "velocity": 86}, {"time": 1140, "pitch": 48, "duration": 20, "velocity": 82}, {"time": 1140, "pitch": 64, "duration": 4, "velocity": 91}, {"time": 1140, "pitch": 67, "duration": 5, "velocity": 91}, {"time": 1143, "pitch": 55, "duration": 17, "velocity": 77}, {"time": 1146, "pitch": 60, "duration": 9, "velocity": 86}, {"time": 1149, "pitch": 64, "duration": 1, "velocity": 77}, {"time": 1152, "pitch": 64, "duration": 6, "velocity": 100}, {"time": 1152, "pitch": 67, "duration": 6, "velocity": 113}, {"time": 1152, "pitch": 72, "duration": 6, "velocity": 100}, {"time": 1158, "pitch": 60, "duration": 1, "velocity": 87}, {"time": 1164, "pitch": 45, "duration": 14, "velocity": 90}, {"time": 1164, "pitch": 64, "duration": 7, "velocity": 104}, {"time": 1164, "pitch": 69, "duration": 7, "velocity": 113}, {"time": 1164, "pitch": 72, "duration": 7, "velocity": 102}, {"time": 1170, "pitch": 52, "duration": 7, "velocity": 76}, {"time": 1176, "pitch": 57, "duration": 6, "velocity": 86}, {"time": 1176, "pitch": 64, "duration": 7, "velocity": 98}, {"time": 1176, "pitch": 69, "duration": 7, "velocity": 110}, {"time": 1176, "pitch": 72, "duration": 7, "velocity": 100}, {"time": 1182, "pitch": 59, "duration": 6, "velocity": 87}, {"time": 1188, "pitch": 60, "duration": 13, "velocity": 78}, {"time": 1188, "pitch": 64, "duration": 8, "velocity": 96}, {"time": 1188, "pitch": 69, "duration": 8, "velocity": 98}, {"time": 1188, "pitch": 72, "duration": 7, "velocity": 91}, {"time": 1200, "pitch": 64, "duration": 9, "velocity": 100}, {"time": 1200, "pitch": 69, "duration": 9, "velocity": 110}, {"time": 1200, "pitch": 72, "duration": 8, "velocity": 98}, {"time": 1212, "pitch": 40, "duration": 1, "velocity": 93}, {"time": 1212, "pitch": 64, "duration": 7, "velocity": 88}, {"time": 1212, "pitch": 67, "duration": 7, "velocity": 96}, {"time": 1212, "pitch": 71, "duration": 6, "velocity": 93}, {"time": 1218, "pitch": 52, "duration": 32, "velocity": 76}, {"time": 1224, "pitch": 64, "duration": 6, "velocity": 98}, {"time": 1224, "pitch": 67, "duration": 7, "velocity": 108}, {"time": 1224, "pitch": 71, "duration": 5, "velocity": 98}, {"time": 1230, "pitch": 59, "duration": 8, "velocity": 63}, {"time": 1236, "pitch": 64, "duration": 7, "velocity": 90}, {"time": 1236, "pitch": 67, "duration": 7, "velocity": 100}, {"time": 1236, "pitch": 71, "duration": 8, "velocity": 91}, {"time": 1245, "pitch": 59, "duration": 5, "velocity": 44}, {"time": 1248, "pitch": 64, "duration": 6, "velocity": 100}, {"time": 1248, "pitch": 67, "duration": 7, "velocity": 113}, {"time": 1248, "pitch": 71, "duration": 9, "velocity": 107}, {"time": 1260, "pitch": 41, "duration": 19, "velocity": 89}, {"time": 1260, "pitch": 60, "duration": 6, "velocity": 88}, {"time": 1260, "pitch": 65, "duration": 6, "velocity": 94}, {"time": 1260, "pitch": 69, "duration": 7, "velocity": 93}, {"time": 1266, "pitch": 53, "duration": 7, "velocity": 75}, {"time": 1272, "pitch": 60, "duration": 7, "velocity": 98}, {"time": 1272, "pitch": 65, "duration": 8, "velocity": 107}, {"time": 1272, "pitch": 69, "duration": 8, "velocity": 98}, {"time": 1278, "pitch": 53, "duration": 5, "velocity": 84}, {"time": 1284, "pitch": 43, "duration": 19, "velocity": 86}, {"time": 1284, "pitch": 59, "duration": 7, "velocity": 91}, {"time": 1284, "pitch": 62, "duration": 7, "velocity": 102}, {"time": 1284, "pitch": 67, "duration": 7, "velocity": 91}, {"time": 1290, "pitch": 50, "duration": 14, "velocity": 75}, {"time": 1296, "pitch": 55, "duration": 11, "velocity": 86}, {"time": 1296, "pitch": 59, "duration": 8, "velocity": 96}, {"time": 1296, "pitch": 62, "duration": 10, "velocity": 110}, {"time": 1296, "pitch": 67, "duration": 8, "velocity": 102}, {"time": 1308, "pitch": 48, "duration": 41, "velocity": 84}, {"time": 1308, "pitch": 60, "duration": 5, "velocity": 91}, {"time": 1308, "pitch": 64, "duration": 12, "velocity": 98}, {"time": 1308, "pitch": 67, "duration": 12, "velocity": 92}, {"time": 1314, "pitch": 55, "duration": 34, "velocity": 77}, {"time": 1320, "pitch": 60, "duration": 7, "velocity": 88}, {"time": 1326, "pitch": 65, "duration": 7, "velocity": 110}, {"time": 1332, "pitch": 64, "duration": 3, "velocity": 107}, {"time": 1335, "pitch": 60, "duration": 12, "velocity": 91}, {"time": 1338, "pitch": 67, "duration": 1, "velocity": 82}, {"time": 1341, "pitch": 67, "duration": 2, "velocity": 96}, {"time": 1344, "pitch": 72, "duration": 5, "velocity": 117}, {"time": 1350, "pitch": 74, "duration": 5, "velocity": 108}, {"time": 1356, "pitch": 50, "duration": 20, "velocity": 87}, {"time": 1356, "pitch": 62, "duration": 7, "velocity": 88}, {"time": 1356, "pitch": 65, "duration": 7, "velocity": 89}, {"time": 1356, "pitch": 69, "duration": 6, "velocity": 88}, {"time": 1368, "pitch": 62, "duration": 7, "velocity": 79}, {"time": 1368, "pitch": 65, "duration": 7, "velocity": 81}, {"time": 1368, "pitch": 69, "duration": 6, "velocity": 81}, {"time": 1377, "pitch": 50, "duration": 8, "velocity": 38}, {"time": 1380, "pitch": 62, "duration": 8, "velocity": 86}, {"time": 1380, "pitch": 65, "duration": 8, "velocity": 87}, {"time": 1380, "pitch": 69, "duration": 8, "velocity": 88}, {"time": 1386, "pitch": 50, "duration": 7, "velocity": 38}, {"time": 1392, "pitch": 62, "duration": 6, "velocity": 98}, {"time": 1392, "pitch": 65, "duration": 6, "velocity": 107}, {"time": 1392, "pitch": 69, "duration": 7, "velocity": 91}, {"time": 1404, "pitch": 52, "duration": 38, "velocity": 93}, {"time": 1404, "pitch": 59, "duration": 8, "velocity": 88}, {"time": 1404, "pitch": 64, "duration": 8, "velocity": 89}, {"time": 1404, "pitch": 67, "duration": 7, "velocity": 87}, {"time": 1416, "pitch": 59, "duration": 2, "velocity": 90}, {"time": 1416, "pitch": 64, "duration": 4, "velocity": 96}, {"time": 1416, "pitch": 67, "duration": 4, "velocity": 91}, {"time": 1428, "pitch": 40, "duration": 19, "velocity": 85}, {"time": 1428, "pitch": 64, "duration": 9, "velocity": 90}, {"time": 1428, "pitch": 67, "duration": 10, "velocity": 98}, {"time": 1428, "pitch": 71, "duration": 9, "velocity": 92}, {"time": 1440, "pitch": 64, "duration": 5, "velocity": 102}, {"time": 1440, "pitch": 67, "duration": 6, "velocity": 113}, {"time": 1440, "pitch": 71, "duration": 6, "velocity": 104}, {"time": 1446, "pitch": 52, "duration": 6, "velocity": 84}, {"time": 1452, "pitch": 41, "duration": 43, "velocity": 88}, {"time": 1452, "pitch": 60, "duration": 6, "velocity": 88}, {"time": 1452, "pitch": 65, "duration": 6, "velocity": 104}, {"time": 1452, "pitch": 69, "duration": 7, "velocity": 102}, {"time": 1458, "pitch": 53, "duration": 7, "velocity": 81}, {"time": 1464, "pitch": 60, "duration": 8, "velocity": 94}, {"time": 1464, "pitch": 65, "duration": 7, "velocity": 108}, {"time": 1464, "pitch": 69, "duration": 7, "velocity": 94}, {"time": 1476, "pitch": 60, "duration": 7, "velocity": 89}, {"time": 1476, "pitch": 65, "duration": 7, "velocity": 107}, {"time": 1476, "pitch": 69, "duration": 7, "velocity": 92}, {"time": 1488, "pitch": 60, "duration": 7, "velocity": 100}, {"time": 1488, "pitch": 65, "duration": 8, "velocity": 108}, {"time": 1488, "pitch": 69, "duration": 7, "velocity": 100}, {"time": 1497, "pitch": 59, "duration": 8, "velocity": 85}, {"time": 1500, "pitch": 43, "duration": 42, "velocity": 86}, {"time": 1500, "pitch": 62, "duration": 7, "velocity": 84}, {"time": 1500, "pitch": 67, "duration": 8, "velocity": 96}, {"time": 1506, "pitch": 50, "duration": 37, "velocity": 78}, {"time": 1509, "pitch": 55, "duration": 9, "velocity": 96}, {"time": 1512, "pitch": 60, "duration": 2, "velocity": 100}, {"time": 1515, "pitch": 62, "duration": 2, "velocity": 87}, {"time": 1518, "pitch": 62, "duration": 4, "velocity": 84}, {"time": 1518, "pitch": 67, "duration": 3, "velocity": 88}, {"time": 1524, "pitch": 55, "duration": 3, "velocity": 91}, {"time": 1524, "pitch": 59, "duration": 2, "velocity": 94}, {"time": 1524, "pitch": 62, "duration": 4, "velocity": 110}, {"time": 1524, "pitch": 67, "duration": 6, "velocity": 100}, {"time": 1533, "pitch": 55, "duration": 4, "velocity": 100}, {"time": 1536, "pitch": 64, "duration": 5, "velocity": 108}, {"time": 1536, "pitch": 67, "duration": 10, "velocity": 116}, {"time": 1536, "pitch": 72, "duration": 7, "velocity": 107}, {"time": 1542, "pitch": 55, "duration": 5, "velocity": 88}, {"time": 1548, "pitch": 45, "duration": 43, "velocity": 88}, {"time": 1548, "pitch": 64, "duration": 9, "velocity": 102}, {"time": 1548, "pitch": 69, "duration": 9, "velocity": 113}, {"time": 1554, "pitch": 52, "duration": 32, "velocity": 77}, {"time": 1560, "pitch": 60, "duration": 2, "velocity": 94}, {"time": 1560, "pitch": 64, "duration": 6, "velocity": 108}, {"time": 1560, "pitch": 69, "duration": 6, "velocity": 94}, {"time": 1566, "pitch": 57, "duration": 7, "velocity": 84}, {"time": 1572, "pitch": 64, "duration": 7, "velocity": 100}, {"time": 1572, "pitch": 69, "duration": 7, "velocity": 114}, {"time": 1572, "pitch": 72, "duration": 7, "velocity": 92}, {"time": 1578, "pitch": 57, "duration": 6, "velocity": 87}, {"time": 1584, "pitch": 64, "duration": 9, "velocity": 107}, {"time": 1584, "pitch": 69, "duration": 10, "velocity": 114}, {"time": 1584, "pitch": 72, "duration": 8, "velocity": 98}, {"time": 1590, "pitch": 52, "duration": 1, "velocity": 89}, {"time": 1596, "pitch": 40, "duration": 43, "velocity": 91}, {"time": 1596, "pitch": 64, "duration": 5, "velocity": 96}, {"time": 1596, "pitch": 67, "duration": 5, "velocity": 104}, {"time": 1596, "pitch": 71, "duration": 5, "velocity": 98}, {"time": 1602, "pitch": 52, "duration": 8, "velocity": 74}, {"time": 1608, "pitch": 64, "duration": 7, "velocity": 93}, {"time": 1608, "pitch": 67, "duration": 7, "velocity": 104}, {"time": 1608, "pitch": 71, "duration": 7, "velocity": 92}, {"time": 1614, "pitch": 52, "duration": 9, "velocity": 78}, {"time": 1620, "pitch": 64, "duration": 8, "velocity": 88}, {"time": 1620, "pitch": 67, "duration": 8, "velocity": 92}, {"time": 1620, "pitch": 71, "duration": 8, "velocity": 89}, {"time": 1626, "pitch": 52, "duration": 9, "velocity": 78}, {"time": 1632, "pitch": 64, "duration": 6, "velocity": 104}, {"time": 1632, "pitch": 67, "duration": 6, "velocity": 113}, {"time": 1632, "pitch": 71, "duration": 6, "velocity": 102}, {"time": 1638, "pitch": 52, "duration": 3, "velocity": 80}, {"time": 1644, "pitch": 41, "duration": 19, "velocity": 89}, {"time": 1644, "pitch": 60, "duration": 7, "velocity": 89}, {"time": 1644, "pitch": 65, "duration": 6, "velocity": 108}, {"time": 1644, "pitch": 69, "duration": 7, "velocity": 100}, {"time": 1650, "pitch": 53, "duration": 7, "velocity": 77}, {"time": 1656, "pitch": 60, "duration": 7, "velocity": 100}, {"time": 1656, "pitch": 65, "duration": 7, "velocity": 108}, {"time": 1656, "pitch": 69, "duration": 7, "velocity": 91}, {"time": 1662, "pitch": 53, "duration": 6, "velocity": 86}, {"time": 1665, "pitch": 43, "duration": 19, "velocity": 87}, {"time": 1668, "pitch": 59, "duration": 8, "velocity": 92}, {"time": 1668, "pitch": 62, "duration": 8, "velocity": 108}, {"time": 1668, "pitch": 67, "duration": 7, "velocity": 93}, {"time": 1674, "pitch": 50, "duration": 13, "velocity": 70}, {"time": 1680, "pitch": 55, "duration": 12, "velocity": 86}, {"time": 1680, "pitch": 59, "duration": 7, "velocity": 102}, {"time": 1680, "pitch": 62, "duration": 10, "velocity": 108}, {"time": 1680, "pitch": 67, "duration": 9, "velocity": 93}, {"time": 1692, "pitch": 48, "duration": 39, "velocity": 86}, {"time": 1692, "pitch": 60, "duration": 6, "velocity": 91}, {"time": 1692, "pitch": 64, "duration": 12, "velocity": 100}, {"time": 1692, "pitch": 67, "duration": 13, "velocity": 91}, {"time": 1698, "pitch": 55, "duration": 32, "velocity": 75}, {"time": 1704, "pitch": 60, "duration": 13, "velocity": 87}, {"time": 1710, "pitch": 65, "duration": 5, "velocity": 107}, {"time": 1716, "pitch": 64, "duration": 8, "velocity": 107}, {"time": 1716, "pitch": 67, "duration": 9, "velocity": 94}, {"time": 1725, "pitch": 60, "duration": 5, "velocity": 85}, {"time": 1728, "pitch": 64, "duration": 10, "velocity": 110}, {"time": 1728, "pitch": 67, "duration": 6, "velocity": 110}, {"time": 1740, "pitch": 50, "duration": 40, "velocity": 86}, {"time": 1740, "pitch": 62, "duration": 8, "velocity": 88}, {"time": 1740, "pitch": 65, "duration": 8, "velocity": 92}, {"time": 1740, "pitch": 69, "duration": 7, "velocity": 86}, {"time": 1752, "pitch": 62, "duration": 7, "velocity": 87}, {"time": 1752, "pitch": 65, "duration": 7, "velocity": 91}, {"time": 1752, "pitch": 69, "duration": 7, "velocity": 88}, {"time": 1764, "pitch": 62, "duration": 7, "velocity": 88}, {"time": 1764, "pitch": 65, "duration": 7, "velocity": 92}, {"time": 1764, "pitch": 69, "duration": 7, "velocity": 89}, {"time": 1776, "pitch": 62, "duration": 6, "velocity": 92}, {"time": 1776, "pitch": 65, "duration": 7, "velocity": 102}, {"time": 1776, "pitch": 69, "duration": 6, "velocity": 89}, {"time": 1788, "pitch": 52, "duration": 29, "velocity": 87}, {"time": 1788, "pitch": 59, "duration": 9, "velocity": 89}, {"time": 1788, "pitch": 64, "duration": 9, "velocity": 96}, {"time": 1788, "pitch": 67, "duration": 9, "velocity": 89}, {"time": 1800, "pitch": 59, "duration": 9, "velocity": 90}, {"time": 1800, "pitch": 64, "duration": 9, "velocity": 91}, {"time": 1800, "pitch": 67, "duration": 9, "velocity": 88}, {"time": 1812, "pitch": 59, "duration": 8, "velocity": 92}, {"time": 1812, "pitch": 64, "duration": 8, "velocity": 98}, {"time": 1812, "pitch": 67, "duration": 8, "velocity": 91}, {"time": 1818, "pitch": 52, "duration": 7, "velocity": 84}, {"time": 1824, "pitch": 59, "duration": 6, "velocity": 100}, {"time": 1824, "pitch": 64, "duration": 6, "velocity": 104}, {"time": 1824, "pitch": 67, "duration": 7, "velocity": 93}, {"time": 1830, "pitch": 52, "duration": 4, "velocity": 86}, {"time": 1836, "pitch": 50, "duration": 14, "velocity": 92}, {"time": 1836, "pitch": 62, "duration": 8, "velocity": 91}, {"time": 1836, "pitch": 65, "duration": 8, "velocity": 108}, {"time": 1836, "pitch": 69, "duration": 7, "velocity": 102}, {"time": 1848, "pitch": 62, "duration": 7, "velocity": 100}, {"time": 1848, "pitch": 65, "duration": 7, "velocity": 108}, {"time": 1848, "pitch": 69, "duration": 7, "velocity": 93}, {"time": 1854, "pitch": 50, "duration": 6, "velocity": 87}, {"time": 1860, "pitch": 43, "duration": 19, "velocity": 88}, {"time": 1860, "pitch": 55, "duration": 24, "velocity": 88}, {"time": 1860, "pitch": 59, "duration": 8, "velocity": 93}, {"time": 1860, "pitch": 62, "duration": 8, "velocity": 110}, {"time": 1860, "pitch": 67, "duration": 7, "velocity": 100}, {"time": 1872, "pitch": 59, "duration": 7, "velocity": 90}, {"time": 1872, "pitch": 62, "duration": 11, "velocity": 100}, {"time": 1872, "pitch": 67, "duration": 7, "velocity": 92}, {"time": 1881, "pitch": 60, "duration": 11, "velocity": 69}, {"time": 1881, "pitch": 64, "duration": 9, "velocity": 71}, {"time": 1884, "pitch": 45, "duration": 43, "velocity": 79}, {"time": 1884, "pitch": 69, "duration": 8, "velocity": 93}, {"time": 1890, "pitch": 52, "duration": 37, "velocity": 84}, {"time": 1893, "pitch": 57, "duration": 18, "velocity": 88}, {"time": 1896, "pitch": 59, "duration": 3, "velocity": 86}, {"time": 1899, "pitch": 60, "duration": 1, "velocity": 88}, {"time": 1902, "pitch": 64, "duration": 3, "velocity": 88}, {"time": 1905, "pitch": 69, "duration": 2, "velocity": 89}, {"time": 1908, "pitch": 64, "duration": 3, "velocity": 91}, {"time": 1908, "pitch": 69, "duration": 4, "velocity": 102}, {"time": 1908, "pitch": 72, "duration": 5, "velocity": 104}, {"time": 1914, "pitch": 57, "duration": 10, "velocity": 75}, {"time": 1917, "pitch": 76, "duration": 8, "velocity": 69}, {"time": 1917, "pitch": 81, "duration": 1, "velocity": 86}, {"time": 1920, "pitch": 84, "duration": 6, "velocity": 114}, {"time": 1930, "pitch": 45, "duration": 13, "velocity": 87}, {"time": 1936, "pitch": 52, "duration": 7, "velocity": 66}, {"time": 1942, "pitch": 57, "duration": 3, "velocity": 82}, {"time": 1948, "pitch": 60, "duration": 7, "velocity": 76}, {"time": 1954, "pitch": 64, "duration": 20, "velocity": 77}, {"time": 1954, "pitch": 72, "duration": 22, "velocity": 79}, {"time": 1978, "pitch": 52, "duration": 38, "velocity": 84}, {"time": 1978, "pitch": 64, "duration": 6, "velocity": 81}, {"time": 1978, "pitch": 71, "duration": 10, "velocity": 83}, {"time": 1984, "pitch": 59, "duration": 31, "velocity": 73}, {"time": 1990, "pitch": 64, "duration": 24, "velocity": 68}, {"time": 1996, "pitch": 67, "duration": 18, "velocity": 83}, {"time": 1996, "pitch": 74, "duration": 19, "velocity": 84}, {"time": 2014, "pitch": 71, "duration": 12, "velocity": 104}, {"time": 2026, "pitch": 41, "duration": 18, "velocity": 86}, {"time": 2026, "pitch": 60, "duration": 20, "velocity": 86}, {"time": 2026, "pitch": 69, "duration": 19, "velocity": 91}, {"time": 2032, "pitch": 48, "duration": 13, "velocity": 73}, {"time": 2038, "pitch": 53, "duration": 10, "velocity": 85}, {"time": 2048, "pitch": 59, "duration": 13, "velocity": 68}, {"time": 2048, "pitch": 62, "duration": 7, "velocity": 83}, {"time": 2050, "pitch": 43, "duration": 20, "velocity": 82}, {"time": 2050, "pitch": 67, "duration": 16, "velocity": 91}, {"time": 2056, "pitch": 50, "duration": 15, "velocity": 72}, {"time": 2062, "pitch": 55, "duration": 7, "velocity": 82}, {"time": 2074, "pitch": 45, "duration": 43, "velocity": 83}, {"time": 2074, "pitch": 60, "duration": 13, "velocity": 69}, {"time": 2074, "pitch": 69, "duration": 7, "velocity": 89}, {"time": 2080, "pitch": 52, "duration": 37, "velocity": 68}, {"time": 2086, "pitch": 57, "duration": 31, "velocity": 80}, {"time": 2092, "pitch": 59, "duration": 7, "velocity": 80}, {"time": 2098, "pitch": 60, "duration": 2, "velocity": 91}, {"time": 2110, "pitch": 64, "duration": 7, "velocity": 83}, {"time": 2116, "pitch": 71, "duration": 6, "velocity": 86}, {"time": 2122, "pitch": 45, "duration": 38, "velocity": 77}, {"time": 2122, "pitch": 64, "duration": 13, "velocity": 87}, {"time": 2122, "pitch": 72, "duration": 3, "velocity": 86}, {"time": 2128, "pitch": 52, "duration": 32, "velocity": 64}, {"time": 2134, "pitch": 57, "duration": 25, "velocity": 80}, {"time": 2140, "pitch": 59, "duration": 6, "velocity": 73}, {"time": 2146, "pitch": 60, "duration": 1, "velocity": 84}, {"time": 2158, "pitch": 64, "duration": 7, "velocity": 92}, {"time": 2164, "pitch": 72, "duration": 6, "velocity": 84}, {"time": 2170, "pitch": 52, "duration": 38, "velocity": 84}, {"time": 2170, "pitch": 64, "duration": 8, "velocity": 86}, {"time": 2170, "pitch": 71, "duration": 7, "velocity": 86}, {"time": 2176, "pitch": 59, "duration": 8, "velocity": 38}, {"time": 2182, "pitch": 64, "duration": 7, "velocity": 87}, {"time": 2182, "pitch": 71, "duration": 6, "velocity": 88}, {"time": 2188, "pitch": 59, "duration": 8, "velocity": 52}, {"time": 2194, "pitch": 64, "duration": 7, "velocity": 84}, {"time": 2194, "pitch": 71, "duration": 7, "velocity": 86}, {"time": 2200, "pitch": 59, "duration": 6, "velocity": 64}, {"time": 2206, "pitch": 64, "duration": 12, "velocity": 102}, {"time": 2206, "pitch": 71, "duration": 8, "velocity": 98}, {"time": 2218, "pitch": 41, "duration": 43, "velocity": 84}, {"time": 2218, "pitch": 60, "duration": 7, "velocity": 86}, {"time": 2218, "pitch": 69, "duration": 7, "velocity": 90}, {"time": 2224, "pitch": 48, "duration": 38, "velocity": 67}, {"time": 2230, "pitch": 60, "duration": 8, "velocity": 91}, {"time": 2230, "pitch": 69, "duration": 8, "velocity": 91}, {"time": 2242, "pitch": 60, "duration": 8, "velocity": 86}, {"time": 2242, "pitch": 69, "duration": 7, "velocity": 88}, {"time": 2248, "pitch": 53, "duration": 14, "velocity": 64}, {"time": 2254, "pitch": 60, "duration": 8, "velocity": 89}, {"time": 2254, "pitch": 69, "duration": 8, "velocity": 91}, {"time": 2266, "pitch": 43, "duration": 20, "velocity": 83}, {"time": 2266, "pitch": 59, "duration": 8, "velocity": 88}, {"time": 2266, "pitch": 67, "duration": 7, "velocity": 91}, {"time": 2272, "pitch": 50, "duration": 18, "velocity": 40}, {"time": 2278, "pitch": 55, "duration": 10, "velocity": 77}, {"time": 2278, "pitch": 59, "duration": 9, "velocity": 88}, {"time": 2278, "pitch": 67, "duration": 9, "velocity": 87}, {"time": 2290, "pitch": 45, "duration": 21, "velocity": 79}, {"time": 2290, "pitch": 60, "duration": 10, "velocity": 86}, {"time": 2290, "pitch": 69, "duration": 5, "velocity": 88}, {"time": 2296, "pitch": 52, "duration": 19, "velocity": 83}, {"time": 2300, "pitch": 57, "duration": 12, "velocity": 87}, {"time": 2302, "pitch": 59, "duration": 4, "velocity": 88}, {"time": 2306, "pitch": 60, "duration": 1, "velocity": 104}, {"time": 2308, "pitch": 64, "duration": 4, "velocity": 96}, {"time": 2312, "pitch": 69, "duration": 2, "velocity": 93}, {"time": 2314, "pitch": 45, "duration": 38, "velocity": 86}, {"time": 2314, "pitch": 64, "duration": 13, "velocity": 92}, {"time": 2314, "pitch": 72, "duration": 5, "velocity": 100}, {"time": 2320, "pitch": 52, "duration": 32, "velocity": 79}, {"time": 2326, "pitch": 60, "duration": 7, "velocity": 86}, {"time": 2326, "pitch": 69, "duration": 6, "velocity": 88}, {"time": 2332, "pitch": 57, "duration": 20, "velocity": 74}, {"time": 2338, "pitch": 60, "duration": 8, "velocity": 87}, {"time": 2338, "pitch": 69, "duration": 7, "velocity": 89}, {"time": 2350, "pitch": 60, "duration": 8, "velocity": 88}, {"time": 2350, "pitch": 69, "duration": 8, "velocity": 88}, {"time": 2362, "pitch": 41, "duration": 14, "velocity": 82}, {"time": 2362, "pitch": 60, "duration": 8, "velocity": 86}, {"time": 2362, "pitch": 69, "duration": 7, "velocity": 89}, {"time": 2368, "pitch": 53, "duration": 12, "velocity": 69}, {"time": 2374, "pitch": 60, "duration": 9, "velocity": 89}, {"time": 2374, "pitch": 69, "duration": 9, "velocity": 91}, {"time": 2386, "pitch": 52, "duration": 15, "velocity": 81}, {"time": 2386, "pitch": 59, "duration": 18, "velocity": 79}, {"time": 2386, "pitch": 64, "duration": 19, "velocity": 83}, {"time": 2386, "pitch": 67, "duration": 19, "velocity": 80}, {"time": 2410, "pitch": 50, "duration": 16, "velocity": 82}, {"time": 2410, "pitch": 62, "duration": 7, "velocity": 81}, {"time": 2410, "pitch": 65, "duration": 7, "velocity": 83}, {"time": 2410, "pitch": 69, "duration": 6, "velocity": 82}, {"time": 2416, "pitch": 57, "duration": 9, "velocity": 52}, {"time": 2422, "pitch": 62, "duration": 11, "velocity": 88}, {"time": 2422, "pitch": 69, "duration": 8, "velocity": 93}, {"time": 2434, "pitch": 43, "duration": 19, "velocity": 82}, {"time": 2434, "pitch": 59, "duration": 7, "velocity": 83}, {"time": 2434, "pitch": 62, "duration": 7, "velocity": 73}, {"time": 2434, "pitch": 67, "duration": 6, "velocity": 84}, {"time": 2440, "pitch": 50, "duration": 14, "velocity": 64}, {"time": 2446, "pitch": 55, "duration": 12, "velocity": 73}, {"time": 2446, "pitch": 59, "duration": 6, "velocity": 85}, {"time": 2446, "pitch": 62, "duration": 11, "velocity": 85}, {"time": 2446, "pitch": 67, "duration": 8, "velocity": 85}, {"time": 2458, "pitch": 48, "duration": 22, "velocity": 79}, {"time": 2458, "pitch": 60, "duration": 4, "velocity": 80}, {"time": 2458, "pitch": 64, "duration": 13, "velocity": 82}, {"time": 2458, "pitch": 67, "duration": 13, "velocity": 84}, {"time": 2464, "pitch": 55, "duration": 18, "velocity": 74}, {"time": 2470, "pitch": 60, "duration": 7, "velocity": 85}, {"time": 2476, "pitch": 65, "duration": 6, "velocity": 86}, {"time": 2482, "pitch": 48, "duration": 20, "velocity": 82}, {"time": 2482, "pitch": 64, "duration": 4, "velocity": 91}, {"time": 2482, "pitch": 67, "duration": 6, "velocity": 91}, {"time": 2486, "pitch": 55, "duration": 16, "velocity": 77}, {"time": 2488, "pitch": 60, "duration": 9, "velocity": 86}, {"time": 2492, "pitch": 64, "duration": 1, "velocity": 77}, {"time": 2494, "pitch": 64, "duration": 7, "velocity": 100}, {"time": 2494, "pitch": 67, "duration": 7, "velocity": 113}, {"time": 2494, "pitch": 72, "duration": 6, "velocity": 100}, {"time": 2500, "pitch": 60, "duration": 2, "velocity": 87}, {"time": 2506, "pitch": 45, "duration": 14, "velocity": 90}, {"time": 2506, "pitch": 64, "duration": 7, "velocity": 104}, {"time": 2506, "pitch": 69, "duration": 7, "velocity": 113}, {"time": 2506, "pitch": 72, "duration": 7, "velocity": 102}, {"time": 2512, "pitch": 52, "duration": 7, "velocity": 76}, {"time": 2518, "pitch": 57, "duration": 7, "velocity": 86}, {"time": 2518, "pitch": 64, "duration": 8, "velocity": 98}, {"time": 2518, "pitch": 69, "duration": 8, "velocity": 110}, {"time": 2518, "pitch": 72, "duration": 8, "velocity": 100}, {"time": 2524, "pitch": 59, "duration": 6, "velocity": 87}, {"time": 2530, "pitch": 60, "duration": 13, "velocity": 78}, {"time": 2530, "pitch": 64, "duration": 8, "velocity": 96}, {"time": 2530, "pitch": 69, "duration": 8, "velocity": 98}, {"time": 2530, "pitch": 72, "duration": 8, "velocity": 91}, {"time": 2542, "pitch": 64, "duration": 9, "velocity": 100}, {"time": 2542, "pitch": 69, "duration": 10, "velocity": 110}, {"time": 2542, "pitch": 72, "duration": 9, "velocity": 98}, {"time": 2554, "pitch": 40, "duration": 2, "velocity": 93}, {"time": 2554, "pitch": 64, "duration": 7, "velocity": 88}, {"time": 2554, "pitch": 67, "duration": 7, "velocity": 96}, {"time": 2554, "pitch": 71, "duration": 7, "velocity": 93}, {"time": 2560, "pitch": 52, "duration": 32, "velocity": 76}, {"time": 2566, "pitch": 64, "duration": 7, "velocity": 98}, {"time": 2566, "pitch": 67, "duration": 7, "velocity": 108}, {"time": 2566, "pitch": 71, "duration": 6, "velocity": 98}, {"time": 2572, "pitch": 59, "duration": 8, "velocity": 63}, {"time": 2578, "pitch": 64, "duration": 7, "velocity": 90}, {"time": 2578, "pitch": 67, "duration": 8, "velocity": 100}, {"time": 2578, "pitch": 71, "duration": 8, "velocity": 91}, {"time": 2588, "pitch": 59, "duration": 5, "velocity": 44}, {"time": 2590, "pitch": 64, "duration": 6, "velocity": 100}, {"time": 2590, "pitch": 67, "duration": 8, "velocity": 113}, {"time": 2590, "pitch": 71, "duration": 10, "velocity": 107}, {"time": 2602, "pitch": 41, "duration": 19, "velocity": 89}, {"time": 2602, "pitch": 60, "duration": 7, "velocity": 88}, {"time": 2602, "pitch": 65, "duration": 7, "velocity": 94}, {"time": 2602, "pitch": 69, "duration": 7, "velocity": 93}, {"time": 2608, "pitch": 53, "duration": 7, "velocity": 75}, {"time": 2614, "pitch": 60, "duration": 8, "velocity": 98}, {"time": 2614, "pitch": 65, "duration": 8, "velocity": 107}, {"time": 2614, "pitch": 69, "duration": 8, "velocity": 98}, {"time": 2620, "pitch": 53, "duration": 6, "velocity": 84}, {"time": 2626, "pitch": 43, "duration": 20, "velocity": 86}, {"time": 2626, "pitch": 59, "duration": 7, "velocity": 91}, {"time": 2626, "pitch": 62, "duration": 8, "velocity": 102}, {"time": 2626, "pitch": 67, "duration": 7, "velocity": 91}, {"time": 2632, "pitch": 50, "duration": 14, "velocity": 75}, {"time": 2638, "pitch": 55, "duration": 11, "velocity": 86}, {"time": 2638, "pitch": 59, "duration": 9, "velocity": 96}, {"time": 2638, "pitch": 62, "duration": 10, "velocity": 110}, {"time": 2638, "pitch": 67, "duration": 9, "velocity": 102}, {"time": 2650, "pitch": 48, "duration": 42, "velocity": 84}, {"time": 2650, "pitch": 60, "duration": 6, "velocity": 91}, {"time": 2650, "pitch": 64, "duration": 13, "velocity": 98}, {"time": 2650, "pitch": 67, "duration": 13, "velocity": 92}, {"time": 2656, "pitch": 55, "duration": 34, "velocity": 77}, {"time": 2662, "pitch": 60, "duration": 7, "velocity": 88}, {"time": 2668, "pitch": 65, "duration": 7, "velocity": 110}, {"time": 2674, "pitch": 64, "duration": 4, "velocity": 107}, {"time": 2678, "pitch": 60, "duration": 12, "velocity": 91}, {"time": 2680, "pitch": 67, "duration": 2, "velocity": 82}, {"time": 2684, "pitch": 67, "duration": 1, "velocity": 96}, {"time": 2686, "pitch": 72, "duration": 6, "velocity": 117}, {"time": 2692, "pitch": 74, "duration": 6, "velocity": 108}, {"time": 2698, "pitch": 50, "duration": 20, "velocity": 87}, {"time": 2698, "pitch": 62, "duration": 8, "velocity": 88}, {"time": 2698, "pitch": 65, "duration": 8, "velocity": 89}, {"time": 2698, "pitch": 69, "duration": 7, "velocity": 88}, {"time": 2710, "pitch": 62, "duration": 7, "velocity": 79}, {"time": 2710, "pitch": 65, "duration": 7, "velocity": 81}, {"time": 2710, "pitch": 69, "duration": 7, "velocity": 81}, {"time": 2720, "pitch": 50, "duration": 8, "velocity": 38}, {"time": 2722, "pitch": 62, "duration": 9, "velocity": 86}, {"time": 2722, "pitch": 65, "duration": 9, "velocity": 87}, {"time": 2722, "pitch": 69, "duration": 8, "velocity": 88}, {"time": 2728, "pitch": 50, "duration": 8, "velocity": 38}, {"time": 2734, "pitch": 62, "duration": 7, "velocity": 98}, {"time": 2734, "pitch": 65, "duration": 7, "velocity": 107}, {"time": 2734, "pitch": 69, "duration": 7, "velocity": 91}, {"time": 2746, "pitch": 52, "duration": 39, "velocity": 93}, {"time": 2746, "pitch": 59, "duration": 8, "velocity": 88}, {"time": 2746, "pitch": 64, "duration": 8, "velocity": 89}, {"time": 2746, "pitch": 67, "duration": 7, "velocity": 87}, {"time": 2758, "pitch": 59, "duration": 2, "velocity": 90}, {"time": 2758, "pitch": 64, "duration": 4, "velocity": 96}, {"time": 2758, "pitch": 67, "duration": 5, "velocity": 91}, {"time": 2770, "pitch": 40, "duration": 19, "velocity": 85}, {"time": 2770, "pitch": 64, "duration": 10, "velocity": 90}, {"time": 2770, "pitch": 67, "duration": 10, "velocity": 98}, {"time": 2770, "pitch": 71, "duration": 10, "velocity": 92}, {"time": 2782, "pitch": 64, "duration": 6, "velocity": 102}, {"time": 2782, "pitch": 67, "duration": 6, "velocity": 113}, {"time": 2782, "pitch": 71, "duration": 7, "velocity": 104}, {"time": 2788, "pitch": 52, "duration": 6, "velocity": 84}, {"time": 2794, "pitch": 41, "duration": 44, "velocity": 88}, {"time": 2794, "pitch": 60, "duration": 7, "velocity": 88}, {"time": 2794, "pitch": 65, "duration": 6, "velocity": 104}, {"time": 2794, "pitch": 69, "duration": 7, "velocity": 102}, {"time": 2800, "pitch": 53, "duration": 7, "velocity": 81}, {"time": 2806, "pitch": 60, "duration": 8, "velocity": 94}, {"time": 2806, "pitch": 65, "duration": 8, "velocity": 108}, {"time": 2806, "pitch": 69, "duration": 8, "velocity": 94}, {"time": 2818, "pitch": 60, "duration": 7, "velocity": 89}, {"time": 2818, "pitch": 65, "duration": 7, "velocity": 107}, {"time": 2818, "pitch": 69, "duration": 7, "velocity": 92}, {"time": 2830, "pitch": 60, "duration": 8, "velocity": 100}, {"time": 2830, "pitch": 65, "duration": 8, "velocity": 108}, {"time": 2830, "pitch": 69, "duration": 8, "velocity": 100}, {"time": 2840, "pitch": 59, "duration": 8, "velocity": 85}, {"time": 2842, "pitch": 43, "duration": 43, "velocity": 86}, {"time": 2842, "pitch": 62, "duration": 8, "velocity": 84}, {"time": 2842, "pitch": 67, "duration": 9, "velocity": 96}, {"time": 2848, "pitch": 50, "duration": 37, "velocity": 78}, {"time": 2852, "pitch": 55, "duration": 9, "velocity": 96}, {"time": 2854, "pitch": 60, "duration": 2, "velocity": 100}, {"time": 2858, "pitch": 62, "duration": 2, "velocity": 87}, {"time": 2860, "pitch": 62, "duration": 5, "velocity": 84}, {"time": 2860, "pitch": 67, "duration": 4, "velocity": 88}, {"time": 2866, "pitch": 55, "duration": 3, "velocity": 91}, {"time": 2866, "pitch": 59, "duration": 2, "velocity": 94}, {"time": 2866, "pitch": 62, "duration": 5, "velocity": 110}, {"time": 2866, "pitch": 67, "duration": 7, "velocity": 100}, {"time": 2876, "pitch": 55, "duration": 4, "velocity": 100}, {"time": 2878, "pitch": 64, "duration": 6, "velocity": 108}, {"time": 2878, "pitch": 67, "duration": 11, "velocity": 116}, {"time": 2878, "pitch": 72, "duration": 7, "velocity": 107}, {"time": 2884, "pitch": 55, "duration": 6, "velocity": 88}, {"time": 2890, "pitch": 45, "duration": 43, "velocity": 88}, {"time": 2890, "pitch": 64, "duration": 10, "velocity": 102}, {"time": 2890, "pitch": 69, "duration": 9, "velocity": 113}, {"time": 2896, "pitch": 52, "duration": 33, "velocity": 77}, {"time": 2902, "pitch": 60, "duration": 3, "velocity": 94}, {"time": 2902, "pitch": 64, "duration": 6, "velocity": 108}, {"time": 2902, "pitch": 69, "duration": 6, "velocity": 94}, {"time": 2908, "pitch": 57, "duration": 8, "velocity": 84}, {"time": 2914, "pitch": 64, "duration": 8, "velocity": 100}, {"time": 2914, "pitch": 69, "duration": 7, "velocity": 114}, {"time": 2914, "pitch": 72, "duration": 7, "velocity": 92}, {"time": 2920, "pitch": 57, "duration": 7, "velocity": 87}, {"time": 2926, "pitch": 64, "duration": 10, "velocity": 107}, {"time": 2926, "pitch": 69, "duration": 11, "velocity": 114}, {"time": 2926, "pitch": 72, "duration": 9, "velocity": 98}, {"time": 2932, "pitch": 52, "duration": 2, "velocity": 89}, {"time": 2938, "pitch": 40, "duration": 43, "velocity": 91}, {"time": 2938, "pitch": 64, "duration": 6, "velocity": 96}, {"time": 2938, "pitch": 67, "duration": 6, "velocity": 104}, {"time": 2938, "pitch": 71, "duration": 6, "velocity": 98}, {"time": 2944, "pitch": 52, "duration": 9, "velocity": 74}, {"time": 2950, "pitch": 64, "duration": 7, "velocity": 93}, {"time": 2950, "pitch": 67, "duration": 7, "velocity": 104}, {"time": 2950, "pitch": 71, "duration": 8, "velocity": 92}, {"time": 2956, "pitch": 52, "duration": 10, "velocity": 78}, {"time": 2962, "pitch": 64, "duration": 8, "velocity": 88}, {"time": 2962, "pitch": 67, "duration": 8, "velocity": 92}, {"time": 2962, "pitch": 71, "duration": 8, "velocity": 89}, {"time": 2968, "pitch": 52, "duration": 9, "velocity": 78}, {"time": 2974, "pitch": 64, "duration": 6, "velocity": 104}, {"time": 2974, "pitch": 67, "duration": 7, "velocity": 113}, {"time": 2974, "pitch": 71, "duration": 7, "velocity": 102}, {"time": 2980, "pitch": 52, "duration": 4, "velocity": 80}, {"time": 2986, "pitch": 41, "duration": 20, "velocity": 89}, {"time": 2986, "pitch": 60, "duration": 7, "velocity": 89}, {"time": 2986, "pitch": 65, "duration": 7, "velocity": 108}, {"time": 2986, "pitch": 69, "duration": 8, "velocity": 100}, {"time": 2992, "pitch": 53, "duration": 8, "velocity": 77}, {"time": 2998, "pitch": 60, "duration": 8, "velocity": 100}, {"time": 2998, "pitch": 65, "duration": 8, "velocity": 108}, {"time": 2998, "pitch": 69, "duration": 8, "velocity": 91}, {"time": 3004, "pitch": 53, "duration": 6, "velocity": 86}, {"time": 3008, "pitch": 43, "duration": 19, "velocity": 87}, {"time": 3010, "pitch": 59, "duration": 8, "velocity": 92}, {"time": 3010, "pitch": 62, "duration": 8, "velocity": 108}, {"time": 3010, "pitch": 67, "duration": 8, "velocity": 93}, {"time": 3016, "pitch": 50, "duration": 14, "velocity": 70}, {"time": 3022, "pitch": 55, "duration": 13, "velocity": 86}, {"time": 3022, "pitch": 59, "duration": 7, "velocity": 102}, {"time": 3022, "pitch": 62, "duration": 10, "velocity": 108}, {"time": 3022, "pitch": 67, "duration": 9, "velocity": 93}, {"time": 3034, "pitch": 48, "duration": 39, "velocity": 86}, {"time": 3034, "pitch": 60, "duration": 6, "velocity": 91}, {"time": 3034, "pitch": 64, "duration": 13, "velocity": 100}, {"time": 3034, "pitch": 67, "duration": 14, "velocity": 91}, {"time": 3040, "pitch": 55, "duration": 32, "velocity": 75}, {"time": 3046, "pitch": 60, "duration": 14, "velocity": 87}, {"time": 3052, "pitch": 65, "duration": 5, "velocity": 107}, {"time": 3058, "pitch": 64, "duration": 9, "velocity": 107}, {"time": 3058, "pitch": 67, "duration": 9, "velocity": 94}, {"time": 3068, "pitch": 60, "duration": 4, "velocity": 85}, {"time": 3070, "pitch": 64, "duration": 10, "velocity": 110}, {"time": 3070, "pitch": 67, "duration": 7, "velocity": 110}, {"time": 3082, "pitch": 50, "duration": 40, "velocity": 86}, {"time": 3082, "pitch": 62, "duration": 8, "velocity": 88}, {"time": 3082, "pitch": 65, "duration": 8, "velocity": 92}, {"time": 3082, "pitch": 69, "duration": 8, "velocity": 86}, {"time": 3094, "pitch": 62, "duration": 8, "velocity": 87}, {"time": 3094, "pitch": 65, "duration": 8, "velocity": 91}, {"time": 3094, "pitch": 69, "duration": 8, "velocity": 88}, {"time": 3106, "pitch": 62, "duration": 8, "velocity": 88}, {"time": 3106, "pitch": 65, "duration": 8, "velocity": 92}, {"time": 3106, "pitch": 69, "duration": 7, "velocity": 89}, {"time": 3118, "pitch": 62, "duration": 7, "velocity": 92}, {"time": 3118, "pitch": 65, "duration": 7, "velocity": 102}, {"time": 3118, "pitch": 69, "duration": 6, "velocity": 89}, {"time": 3130, "pitch": 52, "duration": 30, "velocity": 87}, {"time": 3130, "pitch": 59, "duration": 10, "velocity": 89}, {"time": 3130, "pitch": 64, "duration": 9, "velocity": 96}, {"time": 3130, "pitch": 67, "duration": 9, "velocity": 89}, {"time": 3142, "pitch": 59, "duration": 9, "velocity": 90}, {"time": 3142, "pitch": 64, "duration": 9, "velocity": 91}, {"time": 3142, "pitch": 67, "duration": 9, "velocity": 88}, {"time": 3154, "pitch": 59, "duration": 9, "velocity": 92}, {"time": 3154, "pitch": 64, "duration": 9, "velocity": 98}, {"time": 3154, "pitch": 67, "duration": 9, "velocity": 91}, {"time": 3160, "pitch": 52, "duration": 7, "velocity": 84}, {"time": 3166, "pitch": 59, "duration": 7, "velocity": 100}, {"time": 3166, "pitch": 64, "duration": 6, "velocity": 104}, {"time": 3166, "pitch": 67, "duration": 8, "velocity": 93}, {"time": 3172, "pitch": 52, "duration": 5, "velocity": 86}, {"time": 3178, "pitch": 50, "duration": 14, "velocity": 92}, {"time": 3178, "pitch": 62, "duration": 8, "velocity": 91}, {"time": 3178, "pitch": 65, "duration": 8, "velocity": 108}, {"time": 3178, "pitch": 69, "duration": 8, "velocity": 102}, {"time": 3190, "pitch": 62, "duration": 8, "velocity": 100}, {"time": 3190, "pitch": 65, "duration": 8, "velocity": 108}, {"time": 3190, "pitch": 69, "duration": 8, "velocity": 93}, {"time": 3196, "pitch": 50, "duration": 6, "velocity": 87}, {"time": 3202, "pitch": 43, "duration": 20, "velocity": 88}, {"time": 3202, "pitch": 55, "duration": 25, "velocity": 88}, {"time": 3202, "pitch": 59, "duration": 9, "velocity": 93}, {"time": 3202, "pitch": 62, "duration": 8, "velocity": 110}, {"time": 3202, "pitch": 67, "duration": 8, "velocity": 100}, {"time": 3214, "pitch": 59, "duration": 8, "velocity": 90}, {"time": 3214, "pitch": 62, "duration": 12, "velocity": 100}, {"time": 3214, "pitch": 67, "duration": 8, "velocity": 92}, {"time": 3224, "pitch": 60, "duration": 10, "velocity": 69}, {"time": 3224, "pitch": 64, "duration": 8, "velocity": 71}, {"time": 3226, "pitch": 45, "duration": 43, "velocity": 79}, {"time": 3226, "pitch": 69, "duration": 8, "velocity": 93}, {"time": 3232, "pitch": 52, "duration": 37, "velocity": 84}, {"time": 3236, "pitch": 57, "duration": 18, "velocity": 88}, {"time": 3238, "pitch": 59, "duration": 4, "velocity": 86}, {"time": 3242, "pitch": 60, "duration": 1, "velocity": 88}, {"time": 3244, "pitch": 64, "duration": 4, "velocity": 88}, {"time": 3248, "pitch": 69, "duration": 1, "velocity": 89}, {"time": 3250, "pitch": 64, "duration": 3, "velocity": 91}, {"time": 3250, "pitch": 69, "duration": 5, "velocity": 102}, {"time": 3250, "pitch": 72, "duration": 5, "velocity": 104}, {"time": 3256, "pitch": 57, "duration": 10, "velocity": 75}, {"time": 3260, "pitch": 76, "duration": 8, "velocity": 69}, {"time": 3260, "pitch": 81, "duration": 1, "velocity": 86}, {"time": 3262, "pitch": 84, "duration": 7, "velocity": 114}, {"time": 3274, "pitch": 45, "duration": 14, "velocity": 90}, {"time": 3274, "pitch": 64, "duration": 7, "velocity": 104}, {"time": 3274, "pitch": 69, "duration": 7, "velocity": 113}, {"time": 3274, "pitch": 72, "duration": 7, "velocity": 102}, {"time": 3280, "pitch": 52, "duration": 7, "velocity": 76}, {"time": 3286, "pitch": 57, "duration": 7, "velocity": 86}, {"time": 3286, "pitch": 64, "duration": 8, "velocity": 98}, {"time": 3286, "pitch": 69, "duration": 8, "velocity": 110}, {"time": 3286, "pitch": 72, "duration": 8, "velocity": 100}, {"time": 3292, "pitch": 59, "duration": 6, "velocity": 87}, {"time": 3298, "pitch": 60, "duration": 13, "velocity": 78}, {"time": 3298, "pitch": 64, "duration": 8, "velocity": 96}, {"time": 3298, "pitch": 69, "duration": 8, "velocity": 98}, {"time": 3298, "pitch": 72, "duration": 8, "velocity": 91}, {"time": 3310, "pitch": 64, "duration": 9, "velocity": 100}, {"time": 3310, "pitch": 69, "duration": 10, "velocity": 110}, {"time": 3310, "pitch": 72, "duration": 9, "velocity": 98}, {"time": 3322, "pitch": 40, "duration": 2, "velocity": 93}, {"time": 3322, "pitch": 64, "duration": 7, "velocity": 88}, {"time": 3322, "pitch": 67, "duration": 7, "velocity": 96}, {"time": 3322, "pitch": 71, "duration": 7, "velocity": 93}, {"time": 3328, "pitch": 52, "duration": 32, "velocity": 76}, {"time": 3334, "pitch": 64, "duration": 7, "velocity": 98}, {"time": 3334, "pitch": 67, "duration": 7, "velocity": 108}, {"time": 3334, "pitch": 71, "duration": 6, "velocity": 98}, {"time": 3340, "pitch": 59, "duration": 8, "velocity": 63}, {"time": 3346, "pitch": 64, "duration": 7, "velocity": 90}, {"time": 3346, "pitch": 67, "duration": 8, "velocity": 100}, {"time": 3346, "pitch": 71, "duration": 8, "velocity": 91}, {"time": 3356, "pitch": 59, "duration": 5, "velocity": 44}, {"time": 3358, "pitch": 64, "duration": 6, "velocity": 100}, {"time": 3358, "pitch": 67, "duration": 8, "velocity": 113}, {"time": 3358, "pitch": 71, "duration": 10, "velocity": 107}, {"time": 3370, "pitch": 41, "duration": 19, "velocity": 89}, {"time": 3370, "pitch": 60, "duration": 7, "velocity": 88}, {"time": 3370, "pitch": 65, "duration": 7, "velocity": 94}, {"time": 3370, "pitch": 69, "duration": 7, "velocity": 93}, {"time": 3376, "pitch": 53, "duration": 7, "velocity": 75}, {"time": 3382, "pitch": 60, "duration": 8, "velocity": 98}, {"time": 3382, "pitch": 65, "duration": 8, "velocity": 107}, {"time": 3382, "pitch": 69, "duration": 8, "velocity": 98}, {"time": 3388, "pitch": 53, "duration": 6, "velocity": 84}, {"time": 3394, "pitch": 43, "duration": 20, "velocity": 86}, {"time": 3394, "pitch": 59, "duration": 7, "velocity": 91}, {"time": 3394, "pitch": 62, "duration": 8, "velocity": 102}, {"time": 3394, "pitch": 67, "duration": 7, "velocity": 91}, {"time": 3400, "pitch": 50, "duration": 14, "velocity": 75}, {"time": 3406, "pitch": 55, "duration": 11, "velocity": 86}, {"time": 3406, "pitch": 59, "duration": 9, "velocity": 96}, {"time": 3406, "pitch": 62, "duration": 10, "velocity": 110}, {"time": 3406, "pitch": 67, "duration": 9, "velocity": 102}, {"time": 3418, "pitch": 48, "duration": 42, "velocity": 84}, {"time": 3418, "pitch": 60, "duration": 6, "velocity": 91}, {"time": 3418, "pitch": 64, "duration": 13, "velocity": 98}, {"time": 3418, "pitch": 67, "duration": 13, "velocity": 92}, {"time": 3424, "pitch": 55, "duration": 34, "velocity": 77}, {"time": 3430, "pitch": 60, "duration": 7, "velocity": 88}, {"time": 3436, "pitch": 65, "duration": 7, "velocity": 110}, {"time": 3442, "pitch": 64, "duration": 4, "velocity": 107}, {"time": 3446, "pitch": 60, "duration": 12, "velocity": 91}, {"time": 3448, "pitch": 67, "duration": 2, "velocity": 82}, {"time": 3452, "pitch": 67, "duration": 1, "velocity": 96}, {"time": 3454, "pitch": 72, "duration": 6, "velocity": 117}, {"time": 3460, "pitch": 74, "duration": 6, "velocity": 108}, {"time": 3466, "pitch": 50, "duration": 20, "velocity": 87}, {"time": 3466, "pitch": 62, "duration": 8, "velocity": 88}, {"time": 3466, "pitch": 65, "duration": 8, "velocity": 89}, {"time": 3466, "pitch": 69, "duration": 7, "velocity": 88}, {"time": 3478, "pitch": 62, "duration": 7, "velocity": 79}, {"time": 3478, "pitch": 65, "duration": 7, "velocity": 81}, {"time": 3478, "pitch": 69, "duration": 7, "velocity": 81}, {"time": 3488, "pitch": 50, "duration": 8, "velocity": 38}, {"time": 3490, "pitch": 62, "duration": 9, "velocity": 86}, {"time": 3490, "pitch": 65, "duration": 9, "velocity": 87}, {"time": 3490, "pitch": 69, "duration": 8, "velocity": 88}, {"time": 3496, "pitch": 50, "duration": 8, "velocity": 38}, {"time": 3502, "pitch": 62, "duration": 7, "velocity": 98}, {"time": 3502, "pitch": 65, "duration": 7, "velocity": 107}, {"time": 3502, "pitch": 69, "duration": 7, "velocity": 91}, {"time": 3514, "pitch": 52, "duration": 39, "velocity": 93}, {"time": 3514, "pitch": 59, "duration": 8, "velocity": 88}, {"time": 3514, "pitch": 64, "duration": 8, "velocity": 89}, {"time": 3514, "pitch": 67, "duration": 7, "velocity": 87}, {"time": 3526, "pitch": 59, "duration": 2, "velocity": 90}, {"time": 3526, "pitch": 64, "duration": 4, "velocity": 96}, {"time": 3526, "pitch": 67, "duration": 5, "velocity": 91}, {"time": 3538, "pitch": 40, "duration": 19, "velocity": 85}, {"time": 3538, "pitch": 64, "duration": 10, "velocity": 90}, {"time": 3538, "pitch": 67, "duration": 10, "velocity": 98}, {"time": 3538, "pitch": 71, "duration": 10, "velocity": 92}, {"time": 3550, "pitch": 64, "duration": 6, "velocity": 102}, {"time": 3550, "pitch": 67, "duration": 6, "velocity": 113}, {"time": 3550, "pitch": 71, "duration": 7, "velocity": 104}, {"time": 3556, "pitch": 52, "duration": 6, "velocity": 84}, {"time": 3562, "pitch": 41, "duration": 44, "velocity": 88}, {"time": 3562, "pitch": 60, "duration": 7, "velocity": 88}, {"time": 3562, "pitch": 65, "duration": 6, "velocity": 104}, {"time": 3562, "pitch": 69, "duration": 7, "velocity": 102}, {"time": 3568, "pitch": 53, "duration": 7, "velocity": 81}, {"time": 3574, "pitch": 60, "duration": 8, "velocity": 94}, {"time": 3574, "pitch": 65, "duration": 8, "velocity": 108}, {"time": 3574, "pitch": 69, "duration": 8, "velocity": 94}, {"time": 3586, "pitch": 60, "duration": 7, "velocity": 89}, {"time": 3586, "pitch": 65, "duration": 7, "velocity": 107}, {"time": 3586, "pitch": 69, "duration": 7, "velocity": 92}, {"time": 3609, "pitch": 72, "duration": 3, "velocity": 88}, {"time": 3610, "pitch": 45, "duration": 41, "velocity": 84}, {"time": 3610, "pitch": 64, "duration": 13, "velocity": 88}, {"time": 3616, "pitch": 52, "duration": 34, "velocity": 69}, {"time": 3622, "pitch": 57, "duration": 28, "velocity": 80}, {"time": 3628, "pitch": 59, "duration": 2, "velocity": 76}, {"time": 3634, "pitch": 64, "duration": 7, "velocity": 64}, {"time": 3640, "pitch": 69, "duration": 6, "velocity": 78}, {"time": 3646, "pitch": 71, "duration": 6, "velocity": 79}, {"time": 3660, "pitch": 45, "duration": 45, "velocity": 88}, {"time": 3666, "pitch": 52, "duration": 39, "velocity": 73}, {"time": 3672, "pitch": 57, "duration": 33, "velocity": 79}, {"time": 3678, "pitch": 60, "duration": 36, "velocity": 77}, {"time": 3706, "pitch": 45, "duration": 43, "velocity": 83}, {"time": 3711, "pitch": 53, "duration": 38, "velocity": 78}, {"time": 3717, "pitch": 57, "duration": 31, "velocity": 79}, {"time": 3723, "pitch": 65, "duration": 12, "velocity": 83}, {"time": 3735, "pitch": 62, "duration": 19, "velocity": 78}, {"time": 3753, "pitch": 45, "duration": 48, "velocity": 84}, {"time": 3760, "pitch": 52, "duration": 42, "velocity": 74}, {"time": 3766, "pitch": 57, "duration": 38, "velocity": 77}, {"time": 3772, "pitch": 60, "duration": 39, "velocity": 79}, {"time": 3806, "pitch": 45, "duration": 118, "velocity": 80}, {"time": 3814, "pitch": 52, "duration": 109, "velocity": 68}, {"time": 3821, "pitch": 57, "duration": 102, "velocity": 76}, {"time": 3829, "pitch": 60, "duration": 94, "velocity": 66}], "annotations": [{"time": 204, "annotation": {"number": 64, "value": 127}, "group": "control_change"}, {"time": 250, "annotation": {"number": 64, "value": 0}, "group": "control_change"}, {"time": 252, "annotation": {"number": 64, "value": 127}, "group": "control_change"}, {"time": 322, "annotation": {"number": 64, "value": 74}, "group": "control_change"}, {"time": 322, "annotation": {"number": 64, "value": 0}, "group": "control_change"}, {"time": 324, "annotation": {"number": 64, "value": 127}, "group": "control_change"}, {"time": 394, "annotation": {"number": 64, "value": 38}, "group": "control_change"}, {"time": 394, "annotation": {"number": 64, "value": 0}, "group": "control_change"}, {"time": 396, "annotation": {"number": 64, "value": 127}, "group": "control_change"}, {"time": 443, "annotation": {"number": 64, "value": 0}, "group": "control_change"}, {"time": 444, "annotation": {"number": 64, "value": 127}, "group": "control_change"}, {"time": 492, "annotation": {"number": 64, "value": 127}, "group": "control_change"}, {"time": 537, "annotation": {"number": 64, "value": 74}, "group": "control_change"}, {"time": 537, "annotation": {"number": 64, "value": 38}, "group": "control_change"}, {"time": 537, "annotation": {"number": 64, "value": 0}, "group": "control_change"}, {"time": 538, "annotation": {"number": 64, "value": 38}, "group": "control_change"}, {"time": 538, "annotation": {"number": 64, "value": 0}, "group": "control_change"}, {"time": 540, "annotation": {"number": 64, "value": 127}, "group": "control_change"}, {"time": 561, "annotation": {"number": 64, "value": 38}, "group": "control_change"}, {"time": 562, "annotation": {"number": 64, "value": 0}, "group": "control_change"}, {"time": 564, "annotation": {"number": 64, "value": 74}, "group": "control_change"}, {"time": 564, "annotation": {"number": 64, "value": 0}, "group": "control_change"}, {"time": 564, "annotation": {"number": 64, "value": 127}, "group": "control_change"}, {"time": 589, "annotation": {"number": 64, "value": 127}, "group": "control_change"}, {"time": 634, "annotation": {"number": 64, "value": 74}, "group": "control_change"}, {"time": 634, "annotation": {"number": 64, "value": 0}, "group": "control_change"}, {"time": 636, "annotation": {"number": 64, "value": 127}, "group": "control_change"}, {"time": 644, "annotation": {"number": 64, "value": 38}, "group": "control_change"}, {"time": 644, "annotation": {"number": 64, "value": 0}, "group": "control_change"}, {"time": 658, "annotation": {"number": 64, "value": 0}, "group": "control_change"}, {"time": 660, "annotation": {"number": 64, "value": 127}, "group": "control_change"}, {"time": 673, "annotation": {"number": 64, "value": 38}, "group": "control_change"}, {"time": 673, "annotation": {"number": 64, "value": 0}, "group": "control_change"}, {"time": 681, "annotation": {"number": 64, "value": 38}, "group": "control_change"}, {"time": 681, "annotation": {"number": 64, "value": 0}, "group": "control_change"}, {"time": 683, "annotation": {"number": 64, "value": 127}, "group": "control_change"}, {"time": 684, "annotation": {"number": 64, "value": 127}, "group": "control_change"}, {"time": 730, "annotation": {"number": 64, "value": 38}, "group": "control_change"}, {"time": 730, "annotation": {"number": 64, "value": 0}, "group": "control_change"}, {"time": 732, "annotation": {"number": 64, "value": 127}, "group": "control_change"}, {"time": 777, "annotation": {"number": 64, "value": 0}, "group": "control_change"}, {"time": 780, "annotation": {"number": 64, "value": 127}, "group": "control_change"}, {"time": 826, "annotation": {"number": 64, "value": 38}, "group": "control_change"}, {"time": 826, "annotation": {"number": 64, "value": 0}, "group": "control_change"}, {"time": 827, "annotation": {"number": 64, "value": 127}, "group": "control_change"}, {"time": 874, "annotation": {"number": 64, "value": 38}, "group": "control_change"}, {"time": 874, "annotation": {"number": 64, "value": 0}, "group": "control_change"}, {"time": 875, "annotation": {"number": 64, "value": 127}, "group": "control_change"}, {"time": 921, "annotation": {"number": 64, "value": 0}, "group": "control_change"}, {"time": 923, "annotation": {"number": 64, "value": 127}, "group": "control_change"}, {"time": 946, "annotation": {"number": 64, "value": 74}, "group": "control_change"}, {"time": 946, "annotation": {"number": 64, "value": 38}, "group": "control_change"}, {"time": 946, "annotation": {"number": 64, "value": 0}, "group": "control_change"}, {"time": 947, "annotation": {"number": 64, "value": 127}, "group": "control_change"}, {"time": 970, "annotation": {"number": 64, "value": 38}, "group": "control_change"}, {"time": 971, "annotation": {"number": 64, "value": 0}, "group": "control_change"}, {"time": 971, "annotation": {"number": 64, "value": 74}, "group": "control_change"}, {"time": 971, "annotation": {"number": 64, "value": 127}, "group": "control_change"}, {"time": 1017, "annotation": {"number": 64, "value": 74}, "group": "control_change"}, {"time": 1017, "annotation": {"number": 64, "value": 0}, "group": "control_change"}, {"time": 1019, "annotation": {"number": 64, "value": 127}, "group": "control_change"}, {"time": 1020, "annotation": {"number": 64, "value": 127}, "group": "control_change"}, {"time": 1042, "annotation": {"number": 64, "value": 74}, "group": "control_change"}, {"time": 1042, "annotation": {"number": 64, "value": 0}, "group": "control_change"}, {"time": 1043, "annotation": {"number": 64, "value": 0}, "group": "control_change"}, {"time": 1043, "annotation": {"number": 64, "value": 127}, "group": "control_change"}, {"time": 1044, "annotation": {"number": 64, "value": 127}, "group": "control_change"}, {"time": 1055, "annotation": {"number": 64, "value": 0}, "group": "control_change"}, {"time": 1065, "annotation": {"number": 64, "value": 0}, "group": "control_change"}, {"time": 1067, "annotation": {"number": 64, "value": 127}, "group": "control_change"}, {"time": 1089, "annotation": {"number": 64, "value": 38}, "group": "control_change"}, {"time": 1089, "annotation": {"number": 64, "value": 0}, "group": "control_change"}, {"time": 1091, "annotation": {"number": 64, "value": 127}, "group": "control_change"}, {"time": 1101, "annotation": {"number": 64, "value": 74}, "group": "control_change"}, {"time": 1101, "annotation": {"number": 64, "value": 0}, "group": "control_change"}, {"time": 1113, "annotation": {"number": 64, "value": 38}, "group": "control_change"}, {"time": 1113, "annotation": {"number": 64, "value": 0}, "group": "control_change"}, {"time": 1115, "annotation": {"number": 64, "value": 127}, "group": "control_change"}, {"time": 1161, "annotation": {"number": 64, "value": 0}, "group": "control_change"}, {"time": 1163, "annotation": {"number": 64, "value": 74}, "group": "control_change"}, {"time": 1163, "annotation": {"number": 64, "value": 127}, "group": "control_change"}, {"time": 1210, "annotation": {"number": 64, "value": 38}, "group": "control_change"}, {"time": 1210, "annotation": {"number": 64, "value": 0}, "group": "control_change"}, {"time": 1211, "annotation": {"number": 64, "value": 127}, "group": "control_change"}, {"time": 1258, "annotation": {"number": 64, "value": 74}, "group": "control_change"}, {"time": 1258, "annotation": {"number": 64, "value": 0}, "group": "control_change"}, {"time": 1260, "annotation": {"number": 64, "value": 127}, "group": "control_change"}, {"time": 1281, "annotation": {"number": 64, "value": 38}, "group": "control_change"}, {"time": 1281, "annotation": {"number": 64, "value": 0}, "group": "control_change"}, {"time": 1283, "annotation": {"number": 64, "value": 38}, "group": "control_change"}, {"time": 1283, "annotation": {"number": 64, "value": 127}, "group": "control_change"}, {"time": 1305, "annotation": {"number": 64, "value": 38}, "group": "control_change"}, {"time": 1305, "annotation": {"number": 64, "value": 0}, "group": "control_change"}, {"time": 1307, "annotation": {"number": 64, "value": 127}, "group": "control_change"}, {"time": 1353, "annotation": {"number": 64, "value": 38}, "group": "control_change"}, {"time": 1354, "annotation": {"number": 64, "value": 0}, "group": "control_change"}, {"time": 1355, "annotation": {"number": 64, "value": 74}, "group": "control_change"}, {"time": 1355, "annotation": {"number": 64, "value": 127}, "group": "control_change"}, {"time": 1356, "annotation": {"number": 64, "value": 127}, "group": "control_change"}, {"time": 1367, "annotation": {"number": 64, "value": 74}, "group": "control_change"}, {"time": 1367, "annotation": {"number": 64, "value": 0}, "group": "control_change"}, {"time": 1401, "annotation": {"number": 64, "value": 0}, "group": "control_change"}, {"time": 1404, "annotation": {"number": 64, "value": 127}, "group": "control_change"}, {"time": 1449, "annotation": {"number": 64, "value": 74}, "group": "control_change"}, {"time": 1449, "annotation": {"number": 64, "value": 0}, "group": "control_change"}, {"time": 1451, "annotation": {"number": 64, "value": 127}, "group": "control_change"}, {"time": 1496, "annotation": {"number": 64, "value": 74}, "group": "control_change"}, {"time": 1496, "annotation": {"number": 64, "value": 0}, "group": "control_change"}, {"time": 1499, "annotation": {"number": 64, "value": 127}, "group": "control_change"}, {"time": 1544, "annotation": {"number": 64, "value": 74}, "group": "control_change"}, {"time": 1544, "annotation": {"number": 64, "value": 0}, "group": "control_change"}, {"time": 1547, "annotation": {"number": 64, "value": 127}, "group": "control_change"}, {"time": 1593, "annotation": {"number": 64, "value": 0}, "group": "control_change"}, {"time": 1595, "annotation": {"number": 64, "value": 127}, "group": "control_change"}, {"time": 1642, "annotation": {"number": 64, "value": 38}, "group": "control_change"}, {"time": 1642, "annotation": {"number": 64, "value": 0}, "group": "control_change"}, {"time": 1643, "annotation": {"number": 64, "value": 127}, "group": "control_change"}, {"time": 1665, "annotation": {"number": 64, "value": 74}, "group": "control_change"}, {"time": 1666, "annotation": {"number": 64, "value": 0}, "group": "control_change"}, {"time": 1667, "annotation": {"number": 64, "value": 127}, "group": "control_change"}, {"time": 1689, "annotation": {"number": 64, "value": 74}, "group": "control_change"}, {"time": 1689, "annotation": {"number": 64, "value": 38}, "group": "control_change"}, {"time": 1689, "annotation": {"number": 64, "value": 0}, "group": "control_change"}, {"time": 1691, "annotation": {"number": 64, "value": 127}, "group": "control_change"}, {"time": 1738, "annotation": {"number": 64, "value": 38}, "group": "control_change"}, {"time": 1738, "annotation": {"number": 64, "value": 0}, "group": "control_change"}, {"time": 1739, "annotation": {"number": 64, "value": 127}, "group": "control_change"}, {"time": 1744, "annotation": {"number": 64, "value": 38}, "group": "control_change"}, {"time": 1744, "annotation": {"number": 64, "value": 0}, "group": "control_change"}, {"time": 1785, "annotation": {"number": 64, "value": 74}, "group": "control_change"}, {"time": 1786, "annotation": {"number": 64, "value": 0}, "group": "control_change"}, {"time": 1787, "annotation": {"number": 64, "value": 127}, "group": "control_change"}, {"time": 1833, "annotation": {"number": 64, "value": 74}, "group": "control_change"}, {"time": 1833, "annotation": {"number": 64, "value": 38}, "group": "control_change"}, {"time": 1833, "annotation": {"number": 64, "value": 0}, "group": "control_change"}, {"time": 1835, "annotation": {"number": 64, "value": 127}, "group": "control_change"}, {"time": 1856, "annotation": {"number": 64, "value": 38}, "group": "control_change"}, {"time": 1857, "annotation": {"number": 64, "value": 0}, "group": "control_change"}, {"time": 1859, "annotation": {"number": 64, "value": 127}, "group": "control_change"}, {"time": 1929, "annotation": {"number": 64, "value": 74}, "group": "control_change"}, {"time": 1929, "annotation": {"number": 64, "value": 0}, "group": "control_change"}, {"time": 1931, "annotation": {"number": 64, "value": 127}, "group": "control_change"}, {"time": 1935, "annotation": {"number": 64, "value": 38}, "group": "control_change"}, {"time": 1935, "annotation": {"number": 64, "value": 0}, "group": "control_change"}, {"time": 1976, "annotation": {"number": 64, "value": 0}, "group": "control_change"}, {"time": 1979, "annotation": {"number": 64, "value": 127}, "group": "control_change"}, {"time": 2048, "annotation": {"number": 64, "value": 74}, "group": "control_change"}, {"time": 2048, "annotation": {"number": 64, "value": 0}, "group": "control_change"}, {"time": 2050, "annotation": {"number": 64, "value": 127}, "group": "control_change"}, {"time": 2120, "annotation": {"number": 64, "value": 0}, "group": "control_change"}, {"time": 2120, "annotation": {"number": 64, "value": 38}, "group": "control_change"}, {"time": 2122, "annotation": {"number": 64, "value": 127}, "group": "control_change"}, {"time": 2168, "annotation": {"number": 64, "value": 38}, "group": "control_change"}, {"time": 2168, "annotation": {"number": 64, "value": 0}, "group": "control_change"}, {"time": 2170, "annotation": {"number": 64, "value": 127}, "group": "control_change"}, {"time": 2216, "annotation": {"number": 64, "value": 38}, "group": "control_change"}, {"time": 2216, "annotation": {"number": 64, "value": 0}, "group": "control_change"}, {"time": 2218, "annotation": {"number": 64, "value": 127}, "group": "control_change"}, {"time": 2264, "annotation": {"number": 64, "value": 0}, "group": "control_change"}, {"time": 2266, "annotation": {"number": 64, "value": 127}, "group": "control_change"}, {"time": 2289, "annotation": {"number": 64, "value": 74}, "group": "control_change"}, {"time": 2289, "annotation": {"number": 64, "value": 38}, "group": "control_change"}, {"time": 2289, "annotation": {"number": 64, "value": 0}, "group": "control_change"}, {"time": 2290, "annotation": {"number": 64, "value": 127}, "group": "control_change"}, {"time": 2313, "annotation": {"number": 64, "value": 38}, "group": "control_change"}, {"time": 2313, "annotation": {"number": 64, "value": 0}, "group": "control_change"}, {"time": 2314, "annotation": {"number": 64, "value": 74}, "group": "control_change"}, {"time": 2314, "annotation": {"number": 64, "value": 127}, "group": "control_change"}, {"time": 2360, "annotation": {"number": 64, "value": 74}, "group": "control_change"}, {"time": 2360, "annotation": {"number": 64, "value": 0}, "group": "control_change"}, {"time": 2362, "annotation": {"number": 64, "value": 127}, "group": "control_change"}, {"time": 2385, "annotation": {"number": 64, "value": 74}, "group": "control_change"}, {"time": 2385, "annotation": {"number": 64, "value": 0}, "group": "control_change"}, {"time": 2385, "annotation": {"number": 64, "value": 127}, "group": "control_change"}, {"time": 2386, "annotation": {"number": 64, "value": 127}, "group": "control_change"}, {"time": 2398, "annotation": {"number": 64, "value": 0}, "group": "control_change"}, {"time": 2407, "annotation": {"number": 64, "value": 0}, "group": "control_change"}, {"time": 2410, "annotation": {"number": 64, "value": 127}, "group": "control_change"}, {"time": 2432, "annotation": {"number": 64, "value": 38}, "group": "control_change"}, {"time": 2432, "annotation": {"number": 64, "value": 0}, "group": "control_change"}, {"time": 2434, "annotation": {"number": 64, "value": 127}, "group": "control_change"}, {"time": 2444, "annotation": {"number": 64, "value": 74}, "group": "control_change"}, {"time": 2444, "annotation": {"number": 64, "value": 0}, "group": "control_change"}, {"time": 2456, "annotation": {"number": 64, "value": 38}, "group": "control_change"}, {"time": 2456, "annotation": {"number": 64, "value": 0}, "group": "control_change"}, {"time": 2458, "annotation": {"number": 64, "value": 127}, "group": "control_change"}, {"time": 2504, "annotation": {"number": 64, "value": 0}, "group": "control_change"}, {"time": 2506, "annotation": {"number": 64, "value": 74}, "group": "control_change"}, {"time": 2506, "annotation": {"number": 64, "value": 127}, "group": "control_change"}, {"time": 2552, "annotation": {"number": 64, "value": 38}, "group": "control_change"}, {"time": 2552, "annotation": {"number": 64, "value": 0}, "group": "control_change"}, {"time": 2554, "annotation": {"number": 64, "value": 127}, "group": "control_change"}, {"time": 2600, "annotation": {"number": 64, "value": 74}, "group": "control_change"}, {"time": 2600, "annotation": {"number": 64, "value": 0}, "group": "control_change"}, {"time": 2602, "annotation": {"number": 64, "value": 127}, "group": "control_change"}, {"time": 2624, "annotation": {"number": 64, "value": 38}, "group": "control_change"}, {"time": 2624, "annotation": {"number": 64, "value": 0}, "group": "control_change"}, {"time": 2626, "annotation": {"number": 64, "value": 38}, "group": "control_change"}, {"time": 2626, "annotation": {"number": 64, "value": 127}, "group": "control_change"}, {"time": 2647, "annotation": {"number": 64, "value": 38}, "group": "control_change"}, {"time": 2647, "annotation": {"number": 64, "value": 0}, "group": "control_change"}, {"time": 2650, "annotation": {"number": 64, "value": 127}, "group": "control_change"}, {"time": 2696, "annotation": {"number": 64, "value": 38}, "group": "control_change"}, {"time": 2696, "annotation": {"number": 64, "value": 0}, "group": "control_change"}, {"time": 2698, "annotation": {"number": 64, "value": 74}, "group": "control_change"}, {"time": 2698, "annotation": {"number": 64, "value": 127}, "group": "control_change"}, {"time": 2699, "annotation": {"number": 64, "value": 127}, "group": "control_change"}, {"time": 2710, "annotation": {"number": 64, "value": 74}, "group": "control_change"}, {"time": 2710, "annotation": {"number": 64, "value": 0}, "group": "control_change"}, {"time": 2744, "annotation": {"number": 64, "value": 0}, "group": "control_change"}, {"time": 2746, "annotation": {"number": 64, "value": 127}, "group": "control_change"}, {"time": 2791, "annotation": {"number": 64, "value": 74}, "group": "control_change"}, {"time": 2792, "annotation": {"number": 64, "value": 0}, "group": "control_change"}, {"time": 2794, "annotation": {"number": 64, "value": 127}, "group": "control_change"}, {"time": 2839, "annotation": {"number": 64, "value": 74}, "group": "control_change"}, {"time": 2839, "annotation": {"number": 64, "value": 0}, "group": "control_change"}, {"time": 2842, "annotation": {"number": 64, "value": 127}, "group": "control_change"}, {"time": 2886, "annotation": {"number": 64, "value": 74}, "group": "control_change"}, {"time": 2887, "annotation": {"number": 64, "value": 0}, "group": "control_change"}, {"time": 2890, "annotation": {"number": 64, "value": 127}, "group": "control_change"}, {"time": 2936, "annotation": {"number": 64, "value": 0}, "group": "control_change"}, {"time": 2938, "annotation": {"number": 64, "value": 127}, "group": "control_change"}, {"time": 2984, "annotation": {"number": 64, "value": 38}, "group": "control_change"}, {"time": 2984, "annotation": {"number": 64, "value": 0}, "group": "control_change"}, {"time": 2986, "annotation": {"number": 64, "value": 127}, "group": "control_change"}, {"time": 3008, "annotation": {"number": 64, "value": 74}, "group": "control_change"}, {"time": 3008, "annotation": {"number": 64, "value": 0}, "group": "control_change"}, {"time": 3009, "annotation": {"number": 64, "value": 127}, "group": "control_change"}, {"time": 3031, "annotation": {"number": 64, "value": 74}, "group": "control_change"}, {"time": 3031, "annotation": {"number": 64, "value": 38}, "group": "control_change"}, {"time": 3032, "annotation": {"number": 64, "value": 0}, "group": "control_change"}, {"time": 3034, "annotation": {"number": 64, "value": 127}, "group": "control_change"}, {"time": 3080, "annotation": {"number": 64, "value": 38}, "group": "control_change"}, {"time": 3080, "annotation": {"number": 64, "value": 0}, "group": "control_change"}, {"time": 3082, "annotation": {"number": 64, "value": 127}, "group": "control_change"}, {"time": 3086, "annotation": {"number": 64, "value": 38}, "group": "control_change"}, {"time": 3087, "annotation": {"number": 64, "value": 0}, "group": "control_change"}, {"time": 3128, "annotation": {"number": 64, "value": 74}, "group": "control_change"}, {"time": 3128, "annotation": {"number": 64, "value": 0}, "group": "control_change"}, {"time": 3129, "annotation": {"number": 64, "value": 127}, "group": "control_change"}, {"time": 3175, "annotation": {"number": 64, "value": 74}, "group": "control_change"}, {"time": 3175, "annotation": {"number": 64, "value": 38}, "group": "control_change"}, {"time": 3175, "annotation": {"number": 64, "value": 0}, "group": "control_change"}, {"time": 3177, "annotation": {"number": 64, "value": 127}, "group": "control_change"}, {"time": 3199, "annotation": {"number": 64, "value": 38}, "group": "control_change"}, {"time": 3199, "annotation": {"number": 64, "value": 0}, "group": "control_change"}, {"time": 3201, "annotation": {"number": 64, "value": 127}, "group": "control_change"}, {"time": 3271, "annotation": {"number": 64, "value": 74}, "group": "control_change"}, {"time": 3271, "annotation": {"number": 64, "value": 0}, "group": "control_change"}, {"time": 3273, "annotation": {"number": 64, "value": 127}, "group": "control_change"}, {"time": 3274, "annotation": {"number": 64, "value": 74}, "group": "control_change"}, {"time": 3274, "annotation": {"number": 64, "value": 127}, "group": "control_change"}, {"time": 3277, "annotation": {"number": 64, "value": 38}, "group": "control_change"}, {"time": 3277, "annotation": {"number": 64, "value": 0}, "group": "control_change"}, {"time": 3321, "annotation": {"number": 64, "value": 38}, "group": "control_change"}, {"time": 3321, "annotation": {"number": 64, "value": 0}, "group": "control_change"}, {"time": 3322, "annotation": {"number": 64, "value": 127}, "group": "control_change"}, {"time": 3368, "annotation": {"number": 64, "value": 74}, "group": "control_change"}, {"time": 3368, "annotation": {"number": 64, "value": 0}, "group": "control_change"}, {"time": 3370, "annotation": {"number": 64, "value": 127}, "group": "control_change"}, {"time": 3392, "annotation": {"number": 64, "value": 38}, "group": "control_change"}, {"time": 3392, "annotation": {"number": 64, "value": 0}, "group": "control_change"}, {"time": 3394, "annotation": {"number": 64, "value": 38}, "group": "control_change"}, {"time": 3394, "annotation": {"number": 64, "value": 127}, "group": "control_change"}, {"time": 3415, "annotation": {"number": 64, "value": 38}, "group": "control_change"}, {"time": 3416, "annotation": {"number": 64, "value": 0}, "group": "control_change"}, {"time": 3418, "annotation": {"number": 64, "value": 127}, "group": "control_change"}, {"time": 3464, "annotation": {"number": 64, "value": 38}, "group": "control_change"}, {"time": 3464, "annotation": {"number": 64, "value": 0}, "group": "control_change"}, {"time": 3466, "annotation": {"number": 64, "value": 74}, "group": "control_change"}, {"time": 3466, "annotation": {"number": 64, "value": 127}, "group": "control_change"}, {"time": 3467, "annotation": {"number": 64, "value": 127}, "group": "control_change"}, {"time": 3478, "annotation": {"number": 64, "value": 74}, "group": "control_change"}, {"time": 3478, "annotation": {"number": 64, "value": 0}, "group": "control_change"}, {"time": 3512, "annotation": {"number": 64, "value": 0}, "group": "control_change"}, {"time": 3514, "annotation": {"number": 64, "value": 127}, "group": "control_change"}, {"time": 3560, "annotation": {"number": 64, "value": 74}, "group": "control_change"}, {"time": 3560, "annotation": {"number": 64, "value": 0}, "group": "control_change"}, {"time": 3562, "annotation": {"number": 64, "value": 127}, "group": "control_change"}, {"time": 3610, "annotation": {"number": 64, "value": 127}, "group": "control_change"}, {"time": 3655, "annotation": {"number": 64, "value": 38}, "group": "control_change"}, {"time": 3655, "annotation": {"number": 64, "value": 0}, "group": "control_change"}]}]}