{"metadata": {"schema_version": "0.2", "title": "None", "source_filename": "272.mid", "source_format": "midi"}, "resolution": 12, "tempos": [{"time": 0, "qpm": 73.00007178340392}], "time_signatures": [{"time": 0, "numerator": 4, "denominator": 4}], "tracks": [{"program": 0, "is_drum": false, "name": "MELODY", "notes": [{"time": 259, "pitch": 71, "duration": 3, "velocity": 93}, {"time": 265, "pitch": 71, "duration": 3, "velocity": 102}, {"time": 271, "pitch": 74, "duration": 3, "velocity": 90}, {"time": 277, "pitch": 74, "duration": 4, "velocity": 91}, {"time": 283, "pitch": 76, "duration": 1, "velocity": 88}, {"time": 286, "pitch": 76, "duration": 4, "velocity": 92}, {"time": 295, "pitch": 67, "duration": 3, "velocity": 93}, {"time": 301, "pitch": 71, "duration": 4, "velocity": 94}, {"time": 307, "pitch": 69, "duration": 4, "velocity": 89}, {"time": 313, "pitch": 69, "duration": 5, "velocity": 93}, {"time": 319, "pitch": 67, "duration": 4, "velocity": 89}, {"time": 325, "pitch": 69, "duration": 3, "velocity": 88}, {"time": 331, "pitch": 71, "duration": 3, "velocity": 93}, {"time": 334, "pitch": 71, "duration": 3, "velocity": 92}, {"time": 355, "pitch": 71, "duration": 4, "velocity": 93}, {"time": 361, "pitch": 71, "duration": 5, "velocity": 96}, {"time": 367, "pitch": 74, "duration": 4, "velocity": 91}, {"time": 373, "pitch": 74, "duration": 4, "velocity": 90}, {"time": 379, "pitch": 76, "duration": 2, "velocity": 88}, {"time": 382, "pitch": 76, "duration": 3, "velocity": 88}, {"time": 394, "pitch": 67, "duration": 2, "velocity": 84}, {"time": 397, "pitch": 71, "duration": 3, "velocity": 88}, {"time": 403, "pitch": 69, "duration": 3, "velocity": 87}, {"time": 409, "pitch": 69, "duration": 4, "velocity": 89}, {"time": 415, "pitch": 67, "duration": 1, "velocity": 86}, {"time": 418, "pitch": 67, "duration": 7, "velocity": 86}, {"time": 451, "pitch": 71, "duration": 3, "velocity": 88}, {"time": 457, "pitch": 71, "duration": 3, "velocity": 89}, {"time": 463, "pitch": 74, "duration": 3, "velocity": 86}, {"time": 469, "pitch": 74, "duration": 4, "velocity": 84}, {"time": 475, "pitch": 76, "duration": 1, "velocity": 86}, {"time": 478, "pitch": 76, "duration": 8, "velocity": 88}, {"time": 490, "pitch": 67, "duration": 2, "velocity": 84}, {"time": 493, "pitch": 71, "duration": 4, "velocity": 90}, {"time": 499, "pitch": 69, "duration": 3, "velocity": 85}, {"time": 505, "pitch": 69, "duration": 4, "velocity": 86}, {"time": 511, "pitch": 72, "duration": 1, "velocity": 87}, {"time": 523, "pitch": 71, "duration": 9, "velocity": 92}, {"time": 547, "pitch": 71, "duration": 4, "velocity": 100}, {"time": 553, "pitch": 71, "duration": 4, "velocity": 93}, {"time": 559, "pitch": 74, "duration": 3, "velocity": 87}, {"time": 565, "pitch": 74, "duration": 4, "velocity": 88}, {"time": 571, "pitch": 76, "duration": 1, "velocity": 87}, {"time": 574, "pitch": 76, "duration": 4, "velocity": 91}, {"time": 586, "pitch": 67, "duration": 2, "velocity": 81}, {"time": 589, "pitch": 71, "duration": 4, "velocity": 86}, {"time": 595, "pitch": 69, "duration": 3, "velocity": 85}, {"time": 601, "pitch": 69, "duration": 4, "velocity": 86}, {"time": 607, "pitch": 67, "duration": 2, "velocity": 81}, {"time": 610, "pitch": 69, "duration": 7, "velocity": 85}, {"time": 616, "pitch": 67, "duration": 6, "velocity": 85}, {"time": 631, "pitch": 67, "duration": 4, "velocity": 107}, {"time": 637, "pitch": 76, "duration": 9, "velocity": 113}, {"time": 649, "pitch": 79, "duration": 9, "velocity": 113}, {"time": 661, "pitch": 78, "duration": 5, "velocity": 113}, {"time": 667, "pitch": 76, "duration": 3, "velocity": 88}, {"time": 670, "pitch": 74, "duration": 4, "velocity": 93}, {"time": 682, "pitch": 71, "duration": 3, "velocity": 98}, {"time": 685, "pitch": 72, "duration": 6, "velocity": 102}, {"time": 691, "pitch": 71, "duration": 6, "velocity": 100}, {"time": 697, "pitch": 69, "duration": 6, "velocity": 100}, {"time": 703, "pitch": 67, "duration": 2, "velocity": 88}, {"time": 706, "pitch": 71, "duration": 4, "velocity": 108}, {"time": 721, "pitch": 71, "duration": 6, "velocity": 107}, {"time": 727, "pitch": 69, "duration": 6, "velocity": 94}, {"time": 733, "pitch": 67, "duration": 8, "velocity": 94}, {"time": 745, "pitch": 79, "duration": 10, "velocity": 114}, {"time": 757, "pitch": 81, "duration": 5, "velocity": 113}, {"time": 763, "pitch": 78, "duration": 3, "velocity": 97}, {"time": 766, "pitch": 74, "duration": 4, "velocity": 107}, {"time": 775, "pitch": 72, "duration": 2, "velocity": 91}, {"time": 778, "pitch": 71, "duration": 5, "velocity": 88}, {"time": 784, "pitch": 79, "duration": 5, "velocity": 104}, {"time": 799, "pitch": 76, "duration": 3, "velocity": 102}, {"time": 802, "pitch": 78, "duration": 2, "velocity": 89}, {"time": 805, "pitch": 79, "duration": 7, "velocity": 113}, {"time": 817, "pitch": 79, "duration": 4, "velocity": 110}, {"time": 823, "pitch": 81, "duration": 1, "velocity": 108}, {"time": 826, "pitch": 81, "duration": 5, "velocity": 114}, {"time": 865, "pitch": 79, "duration": 7, "velocity": 114}, {"time": 871, "pitch": 78, "duration": 5, "velocity": 113}, {"time": 877, "pitch": 76, "duration": 6, "velocity": 107}, {"time": 883, "pitch": 71, "duration": 5, "velocity": 107}, {"time": 889, "pitch": 76, "duration": 3, "velocity": 107}, {"time": 895, "pitch": 83, "duration": 4, "velocity": 114}, {"time": 901, "pitch": 81, "duration": 4, "velocity": 114}, {"time": 907, "pitch": 79, "duration": 2, "velocity": 96}, {"time": 910, "pitch": 81, "duration": 4, "velocity": 107}, {"time": 925, "pitch": 78, "duration": 5, "velocity": 119}, {"time": 931, "pitch": 74, "duration": 4, "velocity": 114}, {"time": 937, "pitch": 78, "duration": 3, "velocity": 116}, {"time": 943, "pitch": 81, "duration": 1, "velocity": 113}, {"time": 946, "pitch": 81, "duration": 4, "velocity": 102}, {"time": 952, "pitch": 79, "duration": 4, "velocity": 102}, {"time": 961, "pitch": 79, "duration": 6, "velocity": 114}, {"time": 967, "pitch": 78, "duration": 5, "velocity": 113}, {"time": 973, "pitch": 76, "duration": 6, "velocity": 107}, {"time": 979, "pitch": 71, "duration": 3, "velocity": 102}, {"time": 982, "pitch": 76, "duration": 4, "velocity": 113}, {"time": 991, "pitch": 83, "duration": 5, "velocity": 110}, {"time": 997, "pitch": 81, "duration": 5, "velocity": 107}, {"time": 1003, "pitch": 79, "duration": 2, "velocity": 100}, {"time": 1006, "pitch": 81, "duration": 5, "velocity": 113}, {"time": 1015, "pitch": 74, "duration": 4, "velocity": 113}, {"time": 1021, "pitch": 83, "duration": 3, "velocity": 110}, {"time": 1057, "pitch": 79, "duration": 7, "velocity": 114}, {"time": 1063, "pitch": 78, "duration": 5, "velocity": 113}, {"time": 1069, "pitch": 76, "duration": 6, "velocity": 107}, {"time": 1075, "pitch": 71, "duration": 5, "velocity": 107}, {"time": 1081, "pitch": 76, "duration": 3, "velocity": 107}, {"time": 1087, "pitch": 83, "duration": 4, "velocity": 114}, {"time": 1093, "pitch": 81, "duration": 4, "velocity": 114}, {"time": 1099, "pitch": 79, "duration": 2, "velocity": 96}, {"time": 1102, "pitch": 81, "duration": 4, "velocity": 107}, {"time": 1117, "pitch": 83, "duration": 3, "velocity": 113}, {"time": 1123, "pitch": 86, "duration": 2, "velocity": 113}, {"time": 1129, "pitch": 86, "duration": 3, "velocity": 110}, {"time": 1135, "pitch": 78, "duration": 1, "velocity": 103}, {"time": 1138, "pitch": 81, "duration": 3, "velocity": 108}, {"time": 1144, "pitch": 79, "duration": 3, "velocity": 114}, {"time": 1153, "pitch": 79, "duration": 5, "velocity": 116}, {"time": 1159, "pitch": 78, "duration": 4, "velocity": 109}, {"time": 1165, "pitch": 76, "duration": 4, "velocity": 116}, {"time": 1183, "pitch": 83, "duration": 3, "velocity": 116}, {"time": 1189, "pitch": 81, "duration": 4, "velocity": 116}, {"time": 1201, "pitch": 78, "duration": 5, "velocity": 119}, {"time": 1207, "pitch": 74, "duration": 2, "velocity": 114}, {"time": 1210, "pitch": 76, "duration": 9, "velocity": 117}, {"time": 1459, "pitch": 71, "duration": 3, "velocity": 93}, {"time": 1465, "pitch": 71, "duration": 3, "velocity": 102}, {"time": 1471, "pitch": 74, "duration": 3, "velocity": 90}, {"time": 1477, "pitch": 74, "duration": 4, "velocity": 91}, {"time": 1483, "pitch": 76, "duration": 1, "velocity": 88}, {"time": 1486, "pitch": 76, "duration": 4, "velocity": 92}, {"time": 1495, "pitch": 67, "duration": 3, "velocity": 93}, {"time": 1501, "pitch": 71, "duration": 4, "velocity": 94}, {"time": 1507, "pitch": 69, "duration": 4, "velocity": 89}, {"time": 1513, "pitch": 69, "duration": 5, "velocity": 93}, {"time": 1519, "pitch": 67, "duration": 4, "velocity": 89}, {"time": 1525, "pitch": 69, "duration": 3, "velocity": 88}, {"time": 1531, "pitch": 71, "duration": 3, "velocity": 93}, {"time": 1534, "pitch": 71, "duration": 3, "velocity": 92}, {"time": 1555, "pitch": 71, "duration": 4, "velocity": 93}, {"time": 1561, "pitch": 71, "duration": 5, "velocity": 96}, {"time": 1567, "pitch": 74, "duration": 4, "velocity": 91}, {"time": 1573, "pitch": 74, "duration": 4, "velocity": 90}, {"time": 1579, "pitch": 76, "duration": 2, "velocity": 88}, {"time": 1582, "pitch": 76, "duration": 3, "velocity": 88}, {"time": 1594, "pitch": 67, "duration": 2, "velocity": 84}, {"time": 1597, "pitch": 71, "duration": 3, "velocity": 88}, {"time": 1603, "pitch": 69, "duration": 3, "velocity": 87}, {"time": 1609, "pitch": 69, "duration": 4, "velocity": 89}, {"time": 1615, "pitch": 67, "duration": 1, "velocity": 86}, {"time": 1618, "pitch": 67, "duration": 4, "velocity": 86}, {"time": 1651, "pitch": 71, "duration": 3, "velocity": 88}, {"time": 1657, "pitch": 71, "duration": 3, "velocity": 89}, {"time": 1663, "pitch": 74, "duration": 3, "velocity": 86}, {"time": 1669, "pitch": 74, "duration": 4, "velocity": 84}, {"time": 1675, "pitch": 76, "duration": 1, "velocity": 86}, {"time": 1678, "pitch": 76, "duration": 4, "velocity": 88}, {"time": 1690, "pitch": 67, "duration": 2, "velocity": 84}, {"time": 1693, "pitch": 71, "duration": 4, "velocity": 90}, {"time": 1699, "pitch": 69, "duration": 3, "velocity": 85}, {"time": 1705, "pitch": 69, "duration": 4, "velocity": 86}, {"time": 1711, "pitch": 72, "duration": 1, "velocity": 87}, {"time": 1723, "pitch": 71, "duration": 5, "velocity": 92}, {"time": 1747, "pitch": 71, "duration": 4, "velocity": 100}, {"time": 1753, "pitch": 71, "duration": 4, "velocity": 93}, {"time": 1759, "pitch": 74, "duration": 3, "velocity": 87}, {"time": 1765, "pitch": 74, "duration": 4, "velocity": 88}, {"time": 1771, "pitch": 76, "duration": 1, "velocity": 87}, {"time": 1774, "pitch": 76, "duration": 4, "velocity": 91}, {"time": 1786, "pitch": 67, "duration": 2, "velocity": 81}, {"time": 1789, "pitch": 71, "duration": 4, "velocity": 86}, {"time": 1795, "pitch": 69, "duration": 3, "velocity": 85}, {"time": 1801, "pitch": 69, "duration": 4, "velocity": 86}, {"time": 1807, "pitch": 67, "duration": 2, "velocity": 81}, {"time": 1810, "pitch": 69, "duration": 7, "velocity": 85}, {"time": 1816, "pitch": 67, "duration": 6, "velocity": 85}, {"time": 1831, "pitch": 67, "duration": 4, "velocity": 107}, {"time": 1837, "pitch": 76, "duration": 9, "velocity": 113}, {"time": 1849, "pitch": 79, "duration": 9, "velocity": 113}, {"time": 1861, "pitch": 78, "duration": 5, "velocity": 113}, {"time": 1867, "pitch": 76, "duration": 3, "velocity": 88}, {"time": 1870, "pitch": 74, "duration": 4, "velocity": 93}, {"time": 1882, "pitch": 71, "duration": 3, "velocity": 98}, {"time": 1885, "pitch": 72, "duration": 6, "velocity": 102}, {"time": 1891, "pitch": 71, "duration": 6, "velocity": 100}, {"time": 1897, "pitch": 69, "duration": 6, "velocity": 100}, {"time": 1903, "pitch": 67, "duration": 2, "velocity": 88}, {"time": 1906, "pitch": 71, "duration": 4, "velocity": 108}, {"time": 1921, "pitch": 71, "duration": 6, "velocity": 107}, {"time": 1927, "pitch": 69, "duration": 6, "velocity": 94}, {"time": 1933, "pitch": 67, "duration": 8, "velocity": 94}, {"time": 1945, "pitch": 79, "duration": 10, "velocity": 114}, {"time": 1957, "pitch": 81, "duration": 5, "velocity": 113}, {"time": 1963, "pitch": 78, "duration": 3, "velocity": 97}, {"time": 1966, "pitch": 74, "duration": 4, "velocity": 107}, {"time": 1975, "pitch": 72, "duration": 2, "velocity": 91}, {"time": 1978, "pitch": 71, "duration": 5, "velocity": 88}, {"time": 1984, "pitch": 79, "duration": 5, "velocity": 104}, {"time": 1999, "pitch": 76, "duration": 3, "velocity": 102}, {"time": 2002, "pitch": 78, "duration": 2, "velocity": 89}, {"time": 2005, "pitch": 79, "duration": 7, "velocity": 113}, {"time": 2017, "pitch": 79, "duration": 4, "velocity": 110}, {"time": 2023, "pitch": 81, "duration": 1, "velocity": 108}, {"time": 2026, "pitch": 81, "duration": 5, "velocity": 114}, {"time": 2065, "pitch": 79, "duration": 7, "velocity": 114}, {"time": 2071, "pitch": 78, "duration": 5, "velocity": 113}, {"time": 2077, "pitch": 76, "duration": 6, "velocity": 107}, {"time": 2083, "pitch": 71, "duration": 5, "velocity": 107}, {"time": 2089, "pitch": 76, "duration": 3, "velocity": 107}, {"time": 2095, "pitch": 83, "duration": 4, "velocity": 114}, {"time": 2101, "pitch": 81, "duration": 4, "velocity": 114}, {"time": 2107, "pitch": 79, "duration": 2, "velocity": 96}, {"time": 2110, "pitch": 81, "duration": 4, "velocity": 107}, {"time": 2125, "pitch": 78, "duration": 5, "velocity": 119}, {"time": 2131, "pitch": 74, "duration": 4, "velocity": 114}, {"time": 2137, "pitch": 78, "duration": 3, "velocity": 116}, {"time": 2143, "pitch": 81, "duration": 1, "velocity": 113}, {"time": 2146, "pitch": 81, "duration": 4, "velocity": 102}, {"time": 2152, "pitch": 79, "duration": 4, "velocity": 102}, {"time": 2161, "pitch": 79, "duration": 6, "velocity": 114}, {"time": 2167, "pitch": 78, "duration": 5, "velocity": 113}, {"time": 2173, "pitch": 76, "duration": 6, "velocity": 107}, {"time": 2179, "pitch": 71, "duration": 3, "velocity": 102}, {"time": 2182, "pitch": 76, "duration": 4, "velocity": 113}, {"time": 2191, "pitch": 83, "duration": 5, "velocity": 110}, {"time": 2197, "pitch": 81, "duration": 5, "velocity": 107}, {"time": 2203, "pitch": 79, "duration": 2, "velocity": 100}, {"time": 2206, "pitch": 81, "duration": 5, "velocity": 113}, {"time": 2215, "pitch": 74, "duration": 4, "velocity": 113}, {"time": 2221, "pitch": 83, "duration": 3, "velocity": 110}, {"time": 2257, "pitch": 79, "duration": 7, "velocity": 114}, {"time": 2263, "pitch": 78, "duration": 5, "velocity": 113}, {"time": 2269, "pitch": 76, "duration": 6, "velocity": 107}, {"time": 2275, "pitch": 71, "duration": 5, "velocity": 107}, {"time": 2281, "pitch": 76, "duration": 3, "velocity": 107}, {"time": 2287, "pitch": 83, "duration": 4, "velocity": 114}, {"time": 2293, "pitch": 81, "duration": 4, "velocity": 114}, {"time": 2299, "pitch": 79, "duration": 2, "velocity": 96}, {"time": 2302, "pitch": 81, "duration": 4, "velocity": 107}, {"time": 2317, "pitch": 83, "duration": 3, "velocity": 113}, {"time": 2323, "pitch": 86, "duration": 2, "velocity": 113}, {"time": 2329, "pitch": 86, "duration": 3, "velocity": 110}, {"time": 2335, "pitch": 78, "duration": 1, "velocity": 103}, {"time": 2338, "pitch": 81, "duration": 3, "velocity": 108}, {"time": 2344, "pitch": 79, "duration": 3, "velocity": 114}, {"time": 2353, "pitch": 79, "duration": 5, "velocity": 116}, {"time": 2359, "pitch": 78, "duration": 4, "velocity": 109}, {"time": 2365, "pitch": 76, "duration": 4, "velocity": 116}, {"time": 2383, "pitch": 83, "duration": 3, "velocity": 116}, {"time": 2389, "pitch": 81, "duration": 4, "velocity": 116}, {"time": 2401, "pitch": 78, "duration": 5, "velocity": 119}, {"time": 2407, "pitch": 74, "duration": 2, "velocity": 114}, {"time": 2410, "pitch": 76, "duration": 9, "velocity": 117}, {"time": 2449, "pitch": 79, "duration": 7, "velocity": 114}, {"time": 2455, "pitch": 78, "duration": 5, "velocity": 113}, {"time": 2461, "pitch": 76, "duration": 6, "velocity": 107}, {"time": 2467, "pitch": 71, "duration": 5, "velocity": 107}, {"time": 2473, "pitch": 76, "duration": 3, "velocity": 107}, {"time": 2479, "pitch": 83, "duration": 4, "velocity": 114}, {"time": 2485, "pitch": 81, "duration": 4, "velocity": 114}, {"time": 2491, "pitch": 79, "duration": 2, "velocity": 96}, {"time": 2494, "pitch": 81, "duration": 4, "velocity": 107}, {"time": 2509, "pitch": 78, "duration": 5, "velocity": 119}, {"time": 2515, "pitch": 74, "duration": 4, "velocity": 114}, {"time": 2521, "pitch": 78, "duration": 3, "velocity": 116}, {"time": 2527, "pitch": 81, "duration": 1, "velocity": 113}, {"time": 2530, "pitch": 81, "duration": 4, "velocity": 102}, {"time": 2536, "pitch": 79, "duration": 4, "velocity": 102}, {"time": 2545, "pitch": 79, "duration": 6, "velocity": 114}, {"time": 2551, "pitch": 78, "duration": 5, "velocity": 113}, {"time": 2557, "pitch": 76, "duration": 6, "velocity": 107}, {"time": 2563, "pitch": 71, "duration": 3, "velocity": 102}, {"time": 2566, "pitch": 76, "duration": 4, "velocity": 113}, {"time": 2575, "pitch": 83, "duration": 5, "velocity": 110}, {"time": 2581, "pitch": 81, "duration": 5, "velocity": 107}, {"time": 2587, "pitch": 79, "duration": 2, "velocity": 100}, {"time": 2590, "pitch": 81, "duration": 5, "velocity": 113}, {"time": 2599, "pitch": 74, "duration": 4, "velocity": 113}, {"time": 2605, "pitch": 83, "duration": 3, "velocity": 110}, {"time": 2641, "pitch": 79, "duration": 7, "velocity": 114}, {"time": 2647, "pitch": 78, "duration": 5, "velocity": 113}, {"time": 2653, "pitch": 76, "duration": 6, "velocity": 107}, {"time": 2659, "pitch": 71, "duration": 5, "velocity": 107}, {"time": 2665, "pitch": 76, "duration": 3, "velocity": 107}, {"time": 2671, "pitch": 83, "duration": 4, "velocity": 114}, {"time": 2677, "pitch": 81, "duration": 4, "velocity": 114}, {"time": 2683, "pitch": 79, "duration": 2, "velocity": 96}, {"time": 2686, "pitch": 81, "duration": 4, "velocity": 107}, {"time": 2701, "pitch": 83, "duration": 3, "velocity": 113}, {"time": 2707, "pitch": 86, "duration": 2, "velocity": 113}, {"time": 2713, "pitch": 86, "duration": 3, "velocity": 110}, {"time": 2719, "pitch": 78, "duration": 1, "velocity": 103}, {"time": 2722, "pitch": 81, "duration": 3, "velocity": 108}, {"time": 2728, "pitch": 79, "duration": 3, "velocity": 114}, {"time": 2737, "pitch": 79, "duration": 5, "velocity": 116}, {"time": 2743, "pitch": 78, "duration": 4, "velocity": 109}, {"time": 2749, "pitch": 76, "duration": 4, "velocity": 116}, {"time": 2767, "pitch": 83, "duration": 3, "velocity": 116}, {"time": 2773, "pitch": 81, "duration": 4, "velocity": 116}, {"time": 2785, "pitch": 78, "duration": 5, "velocity": 119}, {"time": 2791, "pitch": 74, "duration": 2, "velocity": 114}, {"time": 2794, "pitch": 76, "duration": 9, "velocity": 117}]}, {"program": 0, "is_drum": false, "name": "BRIDGE", "notes": [{"time": 7, "pitch": 67, "duration": 3, "velocity": 82}, {"time": 10, "pitch": 69, "duration": 3, "velocity": 83}, {"time": 13, "pitch": 71, "duration": 18, "velocity": 91}, {"time": 34, "pitch": 62, "duration": 18, "velocity": 69}, {"time": 35, "pitch": 66, "duration": 3, "velocity": 75}, {"time": 37, "pitch": 69, "duration": 15, "velocity": 83}, {"time": 61, "pitch": 69, "duration": 9, "velocity": 89}, {"time": 73, "pitch": 62, "duration": 7, "velocity": 98}, {"time": 85, "pitch": 72, "duration": 14, "velocity": 98}, {"time": 97, "pitch": 71, "duration": 6, "velocity": 107}, {"time": 100, "pitch": 69, "duration": 3, "velocity": 91}, {"time": 103, "pitch": 67, "duration": 2, "velocity": 102}, {"time": 106, "pitch": 62, "duration": 3, "velocity": 91}, {"time": 109, "pitch": 64, "duration": 10, "velocity": 91}, {"time": 127, "pitch": 64, "duration": 3, "velocity": 90}, {"time": 130, "pitch": 66, "duration": 3, "velocity": 88}, {"time": 133, "pitch": 67, "duration": 7, "velocity": 98}, {"time": 145, "pitch": 62, "duration": 8, "velocity": 100}, {"time": 157, "pitch": 69, "duration": 30, "velocity": 102}, {"time": 187, "pitch": 66, "duration": 5, "velocity": 93}, {"time": 193, "pitch": 67, "duration": 6, "velocity": 88}, {"time": 199, "pitch": 69, "duration": 5, "velocity": 88}, {"time": 205, "pitch": 69, "duration": 39, "velocity": 91}, {"time": 451, "pitch": 74, "duration": 3, "velocity": 108}, {"time": 457, "pitch": 74, "duration": 4, "velocity": 91}, {"time": 463, "pitch": 78, "duration": 3, "velocity": 103}, {"time": 469, "pitch": 78, "duration": 4, "velocity": 103}, {"time": 475, "pitch": 79, "duration": 1, "velocity": 94}, {"time": 478, "pitch": 79, "duration": 3, "velocity": 104}, {"time": 523, "pitch": 71, "duration": 6, "velocity": 100}, {"time": 529, "pitch": 69, "duration": 6, "velocity": 94}, {"time": 535, "pitch": 66, "duration": 6, "velocity": 90}, {"time": 541, "pitch": 67, "duration": 5, "velocity": 89}, {"time": 601, "pitch": 78, "duration": 3, "velocity": 86}, {"time": 607, "pitch": 78, "duration": 1, "velocity": 80}, {"time": 610, "pitch": 79, "duration": 3, "velocity": 91}, {"time": 616, "pitch": 79, "duration": 8, "velocity": 90}, {"time": 625, "pitch": 78, "duration": 11, "velocity": 100}, {"time": 637, "pitch": 79, "duration": 10, "velocity": 92}, {"time": 709, "pitch": 74, "duration": 11, "velocity": 100}, {"time": 721, "pitch": 72, "duration": 12, "velocity": 92}, {"time": 733, "pitch": 71, "duration": 12, "velocity": 98}, {"time": 1237, "pitch": 76, "duration": 12, "velocity": 94}, {"time": 1249, "pitch": 74, "duration": 11, "velocity": 108}, {"time": 1261, "pitch": 67, "duration": 20, "velocity": 114}, {"time": 1285, "pitch": 69, "duration": 11, "velocity": 113}, {"time": 1297, "pitch": 74, "duration": 12, "velocity": 114}, {"time": 1309, "pitch": 71, "duration": 16, "velocity": 113}, {"time": 1333, "pitch": 76, "duration": 12, "velocity": 110}, {"time": 1345, "pitch": 74, "duration": 11, "velocity": 113}, {"time": 1357, "pitch": 67, "duration": 24, "velocity": 113}, {"time": 1375, "pitch": 76, "duration": 6, "velocity": 104}, {"time": 1381, "pitch": 74, "duration": 12, "velocity": 110}, {"time": 1393, "pitch": 69, "duration": 1, "velocity": 96}, {"time": 1399, "pitch": 71, "duration": 5, "velocity": 107}, {"time": 1969, "pitch": 74, "duration": 11, "velocity": 100}, {"time": 1981, "pitch": 72, "duration": 12, "velocity": 92}, {"time": 1993, "pitch": 71, "duration": 12, "velocity": 98}]}, {"program": 0, "is_drum": false, "name": "PIANO", "notes": [{"time": 13, "pitch": 48, "duration": 20, "velocity": 89}, {"time": 19, "pitch": 55, "duration": 15, "velocity": 65}, {"time": 25, "pitch": 60, "duration": 7, "velocity": 83}, {"time": 37, "pitch": 48, "duration": 17, "velocity": 78}, {"time": 61, "pitch": 47, "duration": 17, "velocity": 81}, {"time": 67, "pitch": 54, "duration": 12, "velocity": 67}, {"time": 73, "pitch": 62, "duration": 11, "velocity": 84}, {"time": 85, "pitch": 52, "duration": 24, "velocity": 77}, {"time": 85, "pitch": 64, "duration": 25, "velocity": 84}, {"time": 109, "pitch": 48, "duration": 19, "velocity": 86}, {"time": 115, "pitch": 55, "duration": 18, "velocity": 69}, {"time": 121, "pitch": 60, "duration": 18, "velocity": 77}, {"time": 121, "pitch": 67, "duration": 2, "velocity": 76}, {"time": 133, "pitch": 50, "duration": 19, "velocity": 83}, {"time": 139, "pitch": 57, "duration": 13, "velocity": 60}, {"time": 157, "pitch": 50, "duration": 19, "velocity": 76}, {"time": 157, "pitch": 60, "duration": 18, "velocity": 77}, {"time": 157, "pitch": 66, "duration": 18, "velocity": 80}, {"time": 157, "pitch": 69, "duration": 19, "velocity": 84}, {"time": 205, "pitch": 38, "duration": 45, "velocity": 86}, {"time": 211, "pitch": 45, "duration": 38, "velocity": 52}, {"time": 217, "pitch": 50, "duration": 32, "velocity": 72}, {"time": 223, "pitch": 57, "duration": 25, "velocity": 38}, {"time": 229, "pitch": 60, "duration": 20, "velocity": 70}, {"time": 229, "pitch": 63, "duration": 20, "velocity": 77}, {"time": 253, "pitch": 43, "duration": 17, "velocity": 87}, {"time": 259, "pitch": 50, "duration": 12, "velocity": 70}, {"time": 265, "pitch": 59, "duration": 9, "velocity": 82}, {"time": 265, "pitch": 62, "duration": 11, "velocity": 78}, {"time": 265, "pitch": 69, "duration": 18, "velocity": 83}, {"time": 277, "pitch": 48, "duration": 17, "velocity": 80}, {"time": 277, "pitch": 60, "duration": 7, "velocity": 77}, {"time": 277, "pitch": 64, "duration": 7, "velocity": 74}, {"time": 283, "pitch": 55, "duration": 18, "velocity": 65}, {"time": 289, "pitch": 60, "duration": 5, "velocity": 77}, {"time": 289, "pitch": 64, "duration": 11, "velocity": 70}, {"time": 289, "pitch": 69, "duration": 9, "velocity": 86}, {"time": 301, "pitch": 50, "duration": 18, "velocity": 80}, {"time": 301, "pitch": 62, "duration": 5, "velocity": 77}, {"time": 301, "pitch": 66, "duration": 5, "velocity": 80}, {"time": 301, "pitch": 69, "duration": 5, "velocity": 80}, {"time": 307, "pitch": 57, "duration": 12, "velocity": 66}, {"time": 313, "pitch": 62, "duration": 5, "velocity": 75}, {"time": 313, "pitch": 66, "duration": 12, "velocity": 81}, {"time": 313, "pitch": 74, "duration": 12, "velocity": 87}, {"time": 325, "pitch": 43, "duration": 12, "velocity": 88}, {"time": 331, "pitch": 74, "duration": 6, "velocity": 92}, {"time": 337, "pitch": 42, "duration": 12, "velocity": 82}, {"time": 337, "pitch": 69, "duration": 6, "velocity": 91}, {"time": 343, "pitch": 62, "duration": 6, "velocity": 87}, {"time": 349, "pitch": 40, "duration": 17, "velocity": 86}, {"time": 349, "pitch": 67, "duration": 10, "velocity": 88}, {"time": 355, "pitch": 47, "duration": 12, "velocity": 68}, {"time": 361, "pitch": 52, "duration": 11, "velocity": 70}, {"time": 361, "pitch": 59, "duration": 8, "velocity": 86}, {"time": 361, "pitch": 67, "duration": 11, "velocity": 83}, {"time": 373, "pitch": 48, "duration": 19, "velocity": 75}, {"time": 373, "pitch": 60, "duration": 8, "velocity": 65}, {"time": 373, "pitch": 64, "duration": 2, "velocity": 70}, {"time": 373, "pitch": 67, "duration": 9, "velocity": 86}, {"time": 379, "pitch": 55, "duration": 19, "velocity": 64}, {"time": 385, "pitch": 60, "duration": 8, "velocity": 86}, {"time": 385, "pitch": 67, "duration": 12, "velocity": 87}, {"time": 397, "pitch": 50, "duration": 17, "velocity": 81}, {"time": 397, "pitch": 62, "duration": 8, "velocity": 86}, {"time": 397, "pitch": 69, "duration": 7, "velocity": 87}, {"time": 403, "pitch": 57, "duration": 11, "velocity": 73}, {"time": 409, "pitch": 62, "duration": 12, "velocity": 88}, {"time": 409, "pitch": 69, "duration": 7, "velocity": 87}, {"time": 421, "pitch": 43, "duration": 12, "velocity": 78}, {"time": 421, "pitch": 59, "duration": 7, "velocity": 87}, {"time": 421, "pitch": 67, "duration": 13, "velocity": 88}, {"time": 427, "pitch": 71, "duration": 3, "velocity": 78}, {"time": 430, "pitch": 72, "duration": 3, "velocity": 81}, {"time": 433, "pitch": 71, "duration": 5, "velocity": 88}, {"time": 439, "pitch": 69, "duration": 6, "velocity": 88}, {"time": 445, "pitch": 43, "duration": 17, "velocity": 82}, {"time": 445, "pitch": 62, "duration": 6, "velocity": 88}, {"time": 445, "pitch": 67, "duration": 6, "velocity": 84}, {"time": 451, "pitch": 50, "duration": 11, "velocity": 70}, {"time": 457, "pitch": 55, "duration": 11, "velocity": 71}, {"time": 457, "pitch": 62, "duration": 7, "velocity": 84}, {"time": 457, "pitch": 69, "duration": 11, "velocity": 86}, {"time": 469, "pitch": 48, "duration": 17, "velocity": 73}, {"time": 469, "pitch": 64, "duration": 7, "velocity": 84}, {"time": 469, "pitch": 69, "duration": 7, "velocity": 87}, {"time": 475, "pitch": 55, "duration": 12, "velocity": 52}, {"time": 481, "pitch": 64, "duration": 6, "velocity": 87}, {"time": 481, "pitch": 69, "duration": 10, "velocity": 89}, {"time": 493, "pitch": 50, "duration": 15, "velocity": 80}, {"time": 493, "pitch": 62, "duration": 7, "velocity": 85}, {"time": 493, "pitch": 69, "duration": 7, "velocity": 86}, {"time": 499, "pitch": 57, "duration": 10, "velocity": 71}, {"time": 505, "pitch": 62, "duration": 11, "velocity": 88}, {"time": 505, "pitch": 69, "duration": 12, "velocity": 86}, {"time": 517, "pitch": 43, "duration": 6, "velocity": 83}, {"time": 517, "pitch": 62, "duration": 8, "velocity": 82}, {"time": 517, "pitch": 67, "duration": 8, "velocity": 82}, {"time": 523, "pitch": 74, "duration": 6, "velocity": 96}, {"time": 529, "pitch": 42, "duration": 5, "velocity": 79}, {"time": 529, "pitch": 69, "duration": 6, "velocity": 91}, {"time": 535, "pitch": 74, "duration": 6, "velocity": 86}, {"time": 541, "pitch": 40, "duration": 16, "velocity": 81}, {"time": 541, "pitch": 64, "duration": 3, "velocity": 84}, {"time": 541, "pitch": 67, "duration": 7, "velocity": 84}, {"time": 547, "pitch": 52, "duration": 14, "velocity": 71}, {"time": 553, "pitch": 67, "duration": 19, "velocity": 88}, {"time": 565, "pitch": 48, "duration": 19, "velocity": 81}, {"time": 565, "pitch": 60, "duration": 6, "velocity": 81}, {"time": 565, "pitch": 64, "duration": 5, "velocity": 84}, {"time": 571, "pitch": 55, "duration": 8, "velocity": 46}, {"time": 577, "pitch": 60, "duration": 7, "velocity": 84}, {"time": 577, "pitch": 67, "duration": 12, "velocity": 88}, {"time": 583, "pitch": 55, "duration": 6, "velocity": 65}, {"time": 589, "pitch": 50, "duration": 16, "velocity": 86}, {"time": 589, "pitch": 62, "duration": 7, "velocity": 88}, {"time": 589, "pitch": 69, "duration": 7, "velocity": 91}, {"time": 595, "pitch": 57, "duration": 10, "velocity": 70}, {"time": 601, "pitch": 62, "duration": 11, "velocity": 88}, {"time": 601, "pitch": 69, "duration": 7, "velocity": 89}, {"time": 613, "pitch": 43, "duration": 7, "velocity": 79}, {"time": 613, "pitch": 59, "duration": 7, "velocity": 86}, {"time": 613, "pitch": 67, "duration": 11, "velocity": 85}, {"time": 625, "pitch": 42, "duration": 10, "velocity": 78}, {"time": 625, "pitch": 57, "duration": 8, "velocity": 84}, {"time": 625, "pitch": 66, "duration": 10, "velocity": 86}, {"time": 637, "pitch": 40, "duration": 19, "velocity": 84}, {"time": 637, "pitch": 67, "duration": 9, "velocity": 94}, {"time": 643, "pitch": 52, "duration": 13, "velocity": 74}, {"time": 649, "pitch": 59, "duration": 9, "velocity": 84}, {"time": 649, "pitch": 67, "duration": 9, "velocity": 88}, {"time": 658, "pitch": 62, "duration": 9, "velocity": 77}, {"time": 658, "pitch": 66, "duration": 2, "velocity": 82}, {"time": 661, "pitch": 47, "duration": 18, "velocity": 83}, {"time": 661, "pitch": 69, "duration": 6, "velocity": 88}, {"time": 667, "pitch": 54, "duration": 7, "velocity": 68}, {"time": 673, "pitch": 62, "duration": 5, "velocity": 94}, {"time": 673, "pitch": 69, "duration": 11, "velocity": 94}, {"time": 679, "pitch": 54, "duration": 6, "velocity": 81}, {"time": 685, "pitch": 48, "duration": 9, "velocity": 84}, {"time": 685, "pitch": 60, "duration": 6, "velocity": 87}, {"time": 685, "pitch": 67, "duration": 11, "velocity": 86}, {"time": 697, "pitch": 50, "duration": 5, "velocity": 81}, {"time": 697, "pitch": 57, "duration": 7, "velocity": 89}, {"time": 697, "pitch": 66, "duration": 11, "velocity": 85}, {"time": 709, "pitch": 43, "duration": 8, "velocity": 86}, {"time": 709, "pitch": 59, "duration": 9, "velocity": 87}, {"time": 709, "pitch": 67, "duration": 9, "velocity": 92}, {"time": 715, "pitch": 50, "duration": 1, "velocity": 67}, {"time": 721, "pitch": 42, "duration": 6, "velocity": 78}, {"time": 721, "pitch": 59, "duration": 7, "velocity": 87}, {"time": 721, "pitch": 66, "duration": 6, "velocity": 100}, {"time": 727, "pitch": 67, "duration": 12, "velocity": 89}, {"time": 733, "pitch": 40, "duration": 17, "velocity": 87}, {"time": 733, "pitch": 59, "duration": 7, "velocity": 83}, {"time": 733, "pitch": 64, "duration": 7, "velocity": 86}, {"time": 739, "pitch": 52, "duration": 7, "velocity": 75}, {"time": 745, "pitch": 59, "duration": 5, "velocity": 89}, {"time": 745, "pitch": 67, "duration": 11, "velocity": 88}, {"time": 751, "pitch": 52, "duration": 5, "velocity": 78}, {"time": 757, "pitch": 47, "duration": 18, "velocity": 81}, {"time": 757, "pitch": 62, "duration": 8, "velocity": 89}, {"time": 757, "pitch": 66, "duration": 9, "velocity": 87}, {"time": 757, "pitch": 69, "duration": 6, "velocity": 88}, {"time": 763, "pitch": 54, "duration": 7, "velocity": 67}, {"time": 769, "pitch": 62, "duration": 5, "velocity": 88}, {"time": 769, "pitch": 66, "duration": 10, "velocity": 89}, {"time": 769, "pitch": 69, "duration": 8, "velocity": 91}, {"time": 775, "pitch": 54, "duration": 6, "velocity": 77}, {"time": 781, "pitch": 48, "duration": 29, "velocity": 87}, {"time": 781, "pitch": 60, "duration": 7, "velocity": 86}, {"time": 781, "pitch": 64, "duration": 7, "velocity": 91}, {"time": 781, "pitch": 67, "duration": 7, "velocity": 88}, {"time": 793, "pitch": 60, "duration": 7, "velocity": 87}, {"time": 793, "pitch": 64, "duration": 7, "velocity": 93}, {"time": 793, "pitch": 67, "duration": 7, "velocity": 88}, {"time": 805, "pitch": 60, "duration": 5, "velocity": 88}, {"time": 805, "pitch": 64, "duration": 5, "velocity": 94}, {"time": 805, "pitch": 67, "duration": 5, "velocity": 91}, {"time": 817, "pitch": 48, "duration": 4, "velocity": 84}, {"time": 817, "pitch": 60, "duration": 5, "velocity": 90}, {"time": 817, "pitch": 67, "duration": 5, "velocity": 93}, {"time": 829, "pitch": 38, "duration": 18, "velocity": 94}, {"time": 829, "pitch": 57, "duration": 7, "velocity": 93}, {"time": 829, "pitch": 66, "duration": 5, "velocity": 97}, {"time": 835, "pitch": 45, "duration": 11, "velocity": 64}, {"time": 841, "pitch": 55, "duration": 6, "velocity": 100}, {"time": 841, "pitch": 62, "duration": 6, "velocity": 90}, {"time": 847, "pitch": 50, "duration": 11, "velocity": 81}, {"time": 853, "pitch": 38, "duration": 5, "velocity": 93}, {"time": 853, "pitch": 54, "duration": 5, "velocity": 91}, {"time": 853, "pitch": 62, "duration": 5, "velocity": 107}, {"time": 877, "pitch": 48, "duration": 18, "velocity": 91}, {"time": 877, "pitch": 60, "duration": 7, "velocity": 92}, {"time": 877, "pitch": 64, "duration": 7, "velocity": 102}, {"time": 877, "pitch": 67, "duration": 7, "velocity": 94}, {"time": 883, "pitch": 55, "duration": 7, "velocity": 73}, {"time": 889, "pitch": 60, "duration": 6, "velocity": 92}, {"time": 889, "pitch": 64, "duration": 10, "velocity": 107}, {"time": 889, "pitch": 67, "duration": 7, "velocity": 102}, {"time": 895, "pitch": 55, "duration": 6, "velocity": 80}, {"time": 901, "pitch": 50, "duration": 14, "velocity": 90}, {"time": 901, "pitch": 62, "duration": 10, "velocity": 88}, {"time": 901, "pitch": 66, "duration": 10, "velocity": 93}, {"time": 901, "pitch": 69, "duration": 8, "velocity": 98}, {"time": 913, "pitch": 62, "duration": 5, "velocity": 98}, {"time": 913, "pitch": 66, "duration": 6, "velocity": 106}, {"time": 913, "pitch": 69, "duration": 5, "velocity": 89}, {"time": 919, "pitch": 50, "duration": 1, "velocity": 80}, {"time": 925, "pitch": 47, "duration": 14, "velocity": 88}, {"time": 925, "pitch": 59, "duration": 9, "velocity": 91}, {"time": 925, "pitch": 62, "duration": 10, "velocity": 100}, {"time": 925, "pitch": 66, "duration": 8, "velocity": 90}, {"time": 925, "pitch": 69, "duration": 9, "velocity": 91}, {"time": 937, "pitch": 59, "duration": 6, "velocity": 89}, {"time": 937, "pitch": 62, "duration": 6, "velocity": 91}, {"time": 937, "pitch": 66, "duration": 5, "velocity": 88}, {"time": 937, "pitch": 69, "duration": 5, "velocity": 88}, {"time": 943, "pitch": 47, "duration": 3, "velocity": 83}, {"time": 949, "pitch": 52, "duration": 17, "velocity": 86}, {"time": 949, "pitch": 59, "duration": 8, "velocity": 88}, {"time": 949, "pitch": 62, "duration": 9, "velocity": 93}, {"time": 949, "pitch": 64, "duration": 8, "velocity": 89}, {"time": 949, "pitch": 67, "duration": 9, "velocity": 91}, {"time": 961, "pitch": 59, "duration": 6, "velocity": 93}, {"time": 961, "pitch": 62, "duration": 6, "velocity": 102}, {"time": 961, "pitch": 64, "duration": 6, "velocity": 98}, {"time": 961, "pitch": 67, "duration": 6, "velocity": 94}, {"time": 973, "pitch": 48, "duration": 21, "velocity": 89}, {"time": 973, "pitch": 60, "duration": 7, "velocity": 88}, {"time": 973, "pitch": 64, "duration": 7, "velocity": 96}, {"time": 973, "pitch": 67, "duration": 7, "velocity": 92}, {"time": 985, "pitch": 60, "duration": 8, "velocity": 88}, {"time": 985, "pitch": 64, "duration": 10, "velocity": 98}, {"time": 985, "pitch": 67, "duration": 7, "velocity": 92}, {"time": 997, "pitch": 50, "duration": 21, "velocity": 87}, {"time": 997, "pitch": 62, "duration": 10, "velocity": 87}, {"time": 997, "pitch": 66, "duration": 8, "velocity": 100}, {"time": 997, "pitch": 69, "duration": 9, "velocity": 93}, {"time": 1009, "pitch": 62, "duration": 7, "velocity": 91}, {"time": 1009, "pitch": 66, "duration": 7, "velocity": 90}, {"time": 1009, "pitch": 69, "duration": 5, "velocity": 88}, {"time": 1021, "pitch": 43, "duration": 19, "velocity": 88}, {"time": 1021, "pitch": 60, "duration": 8, "velocity": 87}, {"time": 1021, "pitch": 62, "duration": 8, "velocity": 92}, {"time": 1021, "pitch": 67, "duration": 7, "velocity": 91}, {"time": 1027, "pitch": 50, "duration": 7, "velocity": 70}, {"time": 1033, "pitch": 60, "duration": 6, "velocity": 93}, {"time": 1033, "pitch": 62, "duration": 6, "velocity": 102}, {"time": 1033, "pitch": 67, "duration": 6, "velocity": 94}, {"time": 1039, "pitch": 50, "duration": 6, "velocity": 81}, {"time": 1045, "pitch": 43, "duration": 17, "velocity": 87}, {"time": 1045, "pitch": 59, "duration": 9, "velocity": 88}, {"time": 1045, "pitch": 62, "duration": 9, "velocity": 102}, {"time": 1045, "pitch": 67, "duration": 9, "velocity": 91}, {"time": 1054, "pitch": 50, "duration": 4, "velocity": 86}, {"time": 1057, "pitch": 59, "duration": 6, "velocity": 113}, {"time": 1057, "pitch": 67, "duration": 5, "velocity": 100}, {"time": 1060, "pitch": 50, "duration": 4, "velocity": 87}, {"time": 1063, "pitch": 62, "duration": 4, "velocity": 102}, {"time": 1066, "pitch": 67, "duration": 12, "velocity": 96}, {"time": 1069, "pitch": 48, "duration": 14, "velocity": 87}, {"time": 1069, "pitch": 60, "duration": 10, "velocity": 87}, {"time": 1069, "pitch": 64, "duration": 9, "velocity": 100}, {"time": 1081, "pitch": 60, "duration": 7, "velocity": 89}, {"time": 1081, "pitch": 64, "duration": 12, "velocity": 102}, {"time": 1081, "pitch": 67, "duration": 10, "velocity": 98}, {"time": 1087, "pitch": 48, "duration": 6, "velocity": 88}, {"time": 1093, "pitch": 50, "duration": 15, "velocity": 88}, {"time": 1093, "pitch": 62, "duration": 10, "velocity": 89}, {"time": 1093, "pitch": 66, "duration": 10, "velocity": 90}, {"time": 1093, "pitch": 69, "duration": 8, "velocity": 88}, {"time": 1105, "pitch": 62, "duration": 5, "velocity": 92}, {"time": 1105, "pitch": 66, "duration": 5, "velocity": 103}, {"time": 1105, "pitch": 69, "duration": 6, "velocity": 91}, {"time": 1111, "pitch": 50, "duration": 4, "velocity": 78}, {"time": 1117, "pitch": 47, "duration": 13, "velocity": 87}, {"time": 1117, "pitch": 59, "duration": 8, "velocity": 88}, {"time": 1117, "pitch": 62, "duration": 9, "velocity": 92}, {"time": 1117, "pitch": 66, "duration": 8, "velocity": 86}, {"time": 1117, "pitch": 69, "duration": 10, "velocity": 87}, {"time": 1129, "pitch": 59, "duration": 6, "velocity": 89}, {"time": 1129, "pitch": 62, "duration": 6, "velocity": 92}, {"time": 1129, "pitch": 66, "duration": 6, "velocity": 86}, {"time": 1129, "pitch": 69, "duration": 6, "velocity": 87}, {"time": 1135, "pitch": 47, "duration": 5, "velocity": 88}, {"time": 1141, "pitch": 52, "duration": 22, "velocity": 86}, {"time": 1141, "pitch": 59, "duration": 8, "velocity": 87}, {"time": 1141, "pitch": 62, "duration": 8, "velocity": 92}, {"time": 1141, "pitch": 64, "duration": 8, "velocity": 89}, {"time": 1141, "pitch": 67, "duration": 8, "velocity": 91}, {"time": 1153, "pitch": 59, "duration": 7, "velocity": 96}, {"time": 1153, "pitch": 62, "duration": 11, "velocity": 102}, {"time": 1153, "pitch": 64, "duration": 7, "velocity": 93}, {"time": 1153, "pitch": 67, "duration": 8, "velocity": 94}, {"time": 1165, "pitch": 48, "duration": 14, "velocity": 88}, {"time": 1165, "pitch": 60, "duration": 9, "velocity": 88}, {"time": 1165, "pitch": 64, "duration": 8, "velocity": 100}, {"time": 1165, "pitch": 67, "duration": 9, "velocity": 100}, {"time": 1177, "pitch": 60, "duration": 6, "velocity": 88}, {"time": 1177, "pitch": 64, "duration": 5, "velocity": 96}, {"time": 1177, "pitch": 67, "duration": 6, "velocity": 91}, {"time": 1183, "pitch": 48, "duration": 5, "velocity": 86}, {"time": 1189, "pitch": 50, "duration": 17, "velocity": 84}, {"time": 1189, "pitch": 57, "duration": 8, "velocity": 84}, {"time": 1189, "pitch": 62, "duration": 8, "velocity": 88}, {"time": 1189, "pitch": 66, "duration": 8, "velocity": 83}, {"time": 1189, "pitch": 69, "duration": 9, "velocity": 90}, {"time": 1201, "pitch": 57, "duration": 4, "velocity": 83}, {"time": 1201, "pitch": 62, "duration": 5, "velocity": 86}, {"time": 1201, "pitch": 66, "duration": 5, "velocity": 81}, {"time": 1201, "pitch": 69, "duration": 6, "velocity": 88}, {"time": 1213, "pitch": 40, "duration": 24, "velocity": 86}, {"time": 1213, "pitch": 59, "duration": 9, "velocity": 89}, {"time": 1213, "pitch": 64, "duration": 10, "velocity": 94}, {"time": 1213, "pitch": 68, "duration": 10, "velocity": 85}, {"time": 1225, "pitch": 59, "duration": 8, "velocity": 86}, {"time": 1225, "pitch": 64, "duration": 8, "velocity": 87}, {"time": 1225, "pitch": 68, "duration": 8, "velocity": 81}, {"time": 1237, "pitch": 59, "duration": 3, "velocity": 83}, {"time": 1237, "pitch": 64, "duration": 4, "velocity": 84}, {"time": 1237, "pitch": 68, "duration": 5, "velocity": 79}, {"time": 1261, "pitch": 48, "duration": 19, "velocity": 86}, {"time": 1261, "pitch": 60, "duration": 8, "velocity": 93}, {"time": 1261, "pitch": 64, "duration": 9, "velocity": 100}, {"time": 1261, "pitch": 67, "duration": 8, "velocity": 98}, {"time": 1270, "pitch": 55, "duration": 4, "velocity": 70}, {"time": 1273, "pitch": 60, "duration": 7, "velocity": 104}, {"time": 1273, "pitch": 67, "duration": 10, "velocity": 113}, {"time": 1279, "pitch": 55, "duration": 6, "velocity": 72}, {"time": 1282, "pitch": 64, "duration": 2, "velocity": 63}, {"time": 1285, "pitch": 50, "duration": 14, "velocity": 87}, {"time": 1285, "pitch": 62, "duration": 10, "velocity": 88}, {"time": 1285, "pitch": 66, "duration": 8, "velocity": 74}, {"time": 1285, "pitch": 69, "duration": 10, "velocity": 92}, {"time": 1297, "pitch": 62, "duration": 6, "velocity": 92}, {"time": 1297, "pitch": 66, "duration": 10, "velocity": 100}, {"time": 1297, "pitch": 69, "duration": 9, "velocity": 96}, {"time": 1303, "pitch": 50, "duration": 4, "velocity": 84}, {"time": 1309, "pitch": 52, "duration": 30, "velocity": 86}, {"time": 1309, "pitch": 64, "duration": 10, "velocity": 88}, {"time": 1309, "pitch": 68, "duration": 10, "velocity": 97}, {"time": 1309, "pitch": 71, "duration": 9, "velocity": 96}, {"time": 1321, "pitch": 64, "duration": 8, "velocity": 90}, {"time": 1321, "pitch": 68, "duration": 8, "velocity": 91}, {"time": 1321, "pitch": 71, "duration": 6, "velocity": 89}, {"time": 1327, "pitch": 59, "duration": 11, "velocity": 74}, {"time": 1330, "pitch": 64, "duration": 1, "velocity": 88}, {"time": 1330, "pitch": 68, "duration": 1, "velocity": 85}, {"time": 1330, "pitch": 71, "duration": 1, "velocity": 88}, {"time": 1336, "pitch": 64, "duration": 7, "velocity": 88}, {"time": 1336, "pitch": 68, "duration": 7, "velocity": 93}, {"time": 1336, "pitch": 71, "duration": 6, "velocity": 92}, {"time": 1342, "pitch": 52, "duration": 5, "velocity": 86}, {"time": 1345, "pitch": 64, "duration": 7, "velocity": 94}, {"time": 1345, "pitch": 68, "duration": 4, "velocity": 116}, {"time": 1345, "pitch": 71, "duration": 6, "velocity": 110}, {"time": 1351, "pitch": 52, "duration": 1, "velocity": 90}, {"time": 1357, "pitch": 48, "duration": 15, "velocity": 88}, {"time": 1357, "pitch": 60, "duration": 10, "velocity": 92}, {"time": 1357, "pitch": 64, "duration": 10, "velocity": 102}, {"time": 1357, "pitch": 67, "duration": 9, "velocity": 93}, {"time": 1369, "pitch": 60, "duration": 6, "velocity": 98}, {"time": 1369, "pitch": 64, "duration": 11, "velocity": 104}, {"time": 1369, "pitch": 67, "duration": 8, "velocity": 102}, {"time": 1375, "pitch": 48, "duration": 3, "velocity": 86}, {"time": 1381, "pitch": 50, "duration": 6, "velocity": 85}, {"time": 1381, "pitch": 62, "duration": 10, "velocity": 89}, {"time": 1381, "pitch": 66, "duration": 10, "velocity": 93}, {"time": 1381, "pitch": 69, "duration": 9, "velocity": 96}, {"time": 1390, "pitch": 50, "duration": 5, "velocity": 88}, {"time": 1393, "pitch": 62, "duration": 7, "velocity": 91}, {"time": 1393, "pitch": 66, "duration": 10, "velocity": 100}, {"time": 1393, "pitch": 69, "duration": 8, "velocity": 92}, {"time": 1399, "pitch": 50, "duration": 3, "velocity": 81}, {"time": 1405, "pitch": 52, "duration": 48, "velocity": 87}, {"time": 1405, "pitch": 64, "duration": 10, "velocity": 86}, {"time": 1405, "pitch": 68, "duration": 10, "velocity": 89}, {"time": 1405, "pitch": 71, "duration": 9, "velocity": 90}, {"time": 1417, "pitch": 64, "duration": 9, "velocity": 89}, {"time": 1417, "pitch": 68, "duration": 9, "velocity": 90}, {"time": 1417, "pitch": 71, "duration": 8, "velocity": 88}, {"time": 1429, "pitch": 64, "duration": 10, "velocity": 91}, {"time": 1429, "pitch": 68, "duration": 10, "velocity": 91}, {"time": 1429, "pitch": 71, "duration": 9, "velocity": 89}, {"time": 1441, "pitch": 64, "duration": 9, "velocity": 96}, {"time": 1441, "pitch": 68, "duration": 8, "velocity": 100}, {"time": 1441, "pitch": 71, "duration": 9, "velocity": 100}, {"time": 1453, "pitch": 43, "duration": 17, "velocity": 87}, {"time": 1459, "pitch": 50, "duration": 12, "velocity": 70}, {"time": 1465, "pitch": 59, "duration": 9, "velocity": 82}, {"time": 1465, "pitch": 62, "duration": 11, "velocity": 78}, {"time": 1465, "pitch": 69, "duration": 18, "velocity": 83}, {"time": 1477, "pitch": 48, "duration": 17, "velocity": 80}, {"time": 1477, "pitch": 60, "duration": 7, "velocity": 77}, {"time": 1477, "pitch": 64, "duration": 7, "velocity": 74}, {"time": 1483, "pitch": 55, "duration": 18, "velocity": 65}, {"time": 1489, "pitch": 60, "duration": 5, "velocity": 77}, {"time": 1489, "pitch": 64, "duration": 11, "velocity": 70}, {"time": 1489, "pitch": 69, "duration": 9, "velocity": 86}, {"time": 1501, "pitch": 50, "duration": 18, "velocity": 80}, {"time": 1501, "pitch": 62, "duration": 5, "velocity": 77}, {"time": 1501, "pitch": 66, "duration": 5, "velocity": 80}, {"time": 1501, "pitch": 69, "duration": 5, "velocity": 80}, {"time": 1507, "pitch": 57, "duration": 12, "velocity": 66}, {"time": 1513, "pitch": 62, "duration": 5, "velocity": 75}, {"time": 1513, "pitch": 66, "duration": 12, "velocity": 81}, {"time": 1513, "pitch": 74, "duration": 12, "velocity": 87}, {"time": 1525, "pitch": 43, "duration": 12, "velocity": 88}, {"time": 1531, "pitch": 74, "duration": 6, "velocity": 92}, {"time": 1537, "pitch": 42, "duration": 12, "velocity": 82}, {"time": 1537, "pitch": 69, "duration": 6, "velocity": 91}, {"time": 1543, "pitch": 71, "duration": 6, "velocity": 87}, {"time": 1549, "pitch": 40, "duration": 17, "velocity": 86}, {"time": 1549, "pitch": 67, "duration": 10, "velocity": 88}, {"time": 1555, "pitch": 47, "duration": 12, "velocity": 68}, {"time": 1561, "pitch": 52, "duration": 11, "velocity": 70}, {"time": 1561, "pitch": 59, "duration": 8, "velocity": 86}, {"time": 1561, "pitch": 67, "duration": 11, "velocity": 83}, {"time": 1573, "pitch": 48, "duration": 19, "velocity": 75}, {"time": 1573, "pitch": 60, "duration": 8, "velocity": 65}, {"time": 1573, "pitch": 64, "duration": 2, "velocity": 70}, {"time": 1573, "pitch": 67, "duration": 9, "velocity": 86}, {"time": 1579, "pitch": 55, "duration": 19, "velocity": 64}, {"time": 1585, "pitch": 60, "duration": 8, "velocity": 86}, {"time": 1585, "pitch": 67, "duration": 12, "velocity": 87}, {"time": 1597, "pitch": 50, "duration": 17, "velocity": 81}, {"time": 1597, "pitch": 62, "duration": 8, "velocity": 86}, {"time": 1597, "pitch": 69, "duration": 7, "velocity": 87}, {"time": 1603, "pitch": 57, "duration": 11, "velocity": 73}, {"time": 1609, "pitch": 62, "duration": 12, "velocity": 88}, {"time": 1609, "pitch": 69, "duration": 7, "velocity": 87}, {"time": 1621, "pitch": 43, "duration": 12, "velocity": 78}, {"time": 1621, "pitch": 59, "duration": 7, "velocity": 87}, {"time": 1621, "pitch": 67, "duration": 13, "velocity": 88}, {"time": 1627, "pitch": 71, "duration": 3, "velocity": 78}, {"time": 1630, "pitch": 72, "duration": 3, "velocity": 81}, {"time": 1633, "pitch": 71, "duration": 5, "velocity": 88}, {"time": 1639, "pitch": 69, "duration": 6, "velocity": 88}, {"time": 1645, "pitch": 43, "duration": 17, "velocity": 82}, {"time": 1645, "pitch": 62, "duration": 6, "velocity": 88}, {"time": 1645, "pitch": 67, "duration": 6, "velocity": 84}, {"time": 1651, "pitch": 50, "duration": 11, "velocity": 70}, {"time": 1657, "pitch": 55, "duration": 11, "velocity": 71}, {"time": 1657, "pitch": 62, "duration": 7, "velocity": 84}, {"time": 1657, "pitch": 69, "duration": 11, "velocity": 86}, {"time": 1669, "pitch": 48, "duration": 17, "velocity": 73}, {"time": 1669, "pitch": 64, "duration": 7, "velocity": 84}, {"time": 1669, "pitch": 69, "duration": 7, "velocity": 87}, {"time": 1675, "pitch": 55, "duration": 12, "velocity": 52}, {"time": 1681, "pitch": 64, "duration": 6, "velocity": 87}, {"time": 1681, "pitch": 69, "duration": 10, "velocity": 89}, {"time": 1693, "pitch": 50, "duration": 15, "velocity": 80}, {"time": 1693, "pitch": 62, "duration": 7, "velocity": 85}, {"time": 1693, "pitch": 69, "duration": 7, "velocity": 86}, {"time": 1699, "pitch": 57, "duration": 10, "velocity": 71}, {"time": 1705, "pitch": 62, "duration": 11, "velocity": 88}, {"time": 1705, "pitch": 69, "duration": 12, "velocity": 86}, {"time": 1717, "pitch": 43, "duration": 6, "velocity": 83}, {"time": 1717, "pitch": 62, "duration": 8, "velocity": 82}, {"time": 1717, "pitch": 67, "duration": 8, "velocity": 82}, {"time": 1723, "pitch": 74, "duration": 6, "velocity": 96}, {"time": 1729, "pitch": 42, "duration": 5, "velocity": 79}, {"time": 1729, "pitch": 69, "duration": 6, "velocity": 91}, {"time": 1735, "pitch": 74, "duration": 6, "velocity": 86}, {"time": 1741, "pitch": 40, "duration": 16, "velocity": 81}, {"time": 1741, "pitch": 64, "duration": 3, "velocity": 84}, {"time": 1741, "pitch": 67, "duration": 7, "velocity": 84}, {"time": 1747, "pitch": 52, "duration": 14, "velocity": 71}, {"time": 1753, "pitch": 67, "duration": 19, "velocity": 88}, {"time": 1765, "pitch": 48, "duration": 19, "velocity": 81}, {"time": 1765, "pitch": 60, "duration": 6, "velocity": 81}, {"time": 1765, "pitch": 64, "duration": 5, "velocity": 84}, {"time": 1771, "pitch": 55, "duration": 8, "velocity": 46}, {"time": 1777, "pitch": 60, "duration": 7, "velocity": 84}, {"time": 1777, "pitch": 67, "duration": 12, "velocity": 88}, {"time": 1783, "pitch": 55, "duration": 6, "velocity": 65}, {"time": 1789, "pitch": 50, "duration": 16, "velocity": 86}, {"time": 1789, "pitch": 62, "duration": 7, "velocity": 88}, {"time": 1789, "pitch": 69, "duration": 7, "velocity": 91}, {"time": 1795, "pitch": 57, "duration": 10, "velocity": 70}, {"time": 1801, "pitch": 62, "duration": 11, "velocity": 88}, {"time": 1801, "pitch": 69, "duration": 7, "velocity": 89}, {"time": 1813, "pitch": 43, "duration": 7, "velocity": 79}, {"time": 1813, "pitch": 59, "duration": 7, "velocity": 86}, {"time": 1813, "pitch": 67, "duration": 11, "velocity": 85}, {"time": 1825, "pitch": 42, "duration": 10, "velocity": 78}, {"time": 1825, "pitch": 57, "duration": 8, "velocity": 84}, {"time": 1825, "pitch": 66, "duration": 10, "velocity": 86}, {"time": 1837, "pitch": 40, "duration": 19, "velocity": 84}, {"time": 1837, "pitch": 67, "duration": 9, "velocity": 94}, {"time": 1843, "pitch": 52, "duration": 13, "velocity": 74}, {"time": 1849, "pitch": 59, "duration": 9, "velocity": 84}, {"time": 1849, "pitch": 67, "duration": 9, "velocity": 88}, {"time": 1858, "pitch": 62, "duration": 9, "velocity": 77}, {"time": 1858, "pitch": 66, "duration": 2, "velocity": 82}, {"time": 1861, "pitch": 47, "duration": 18, "velocity": 83}, {"time": 1861, "pitch": 69, "duration": 6, "velocity": 88}, {"time": 1867, "pitch": 54, "duration": 7, "velocity": 68}, {"time": 1873, "pitch": 62, "duration": 5, "velocity": 94}, {"time": 1873, "pitch": 69, "duration": 11, "velocity": 94}, {"time": 1879, "pitch": 54, "duration": 6, "velocity": 81}, {"time": 1885, "pitch": 48, "duration": 9, "velocity": 84}, {"time": 1885, "pitch": 60, "duration": 6, "velocity": 87}, {"time": 1885, "pitch": 67, "duration": 11, "velocity": 86}, {"time": 1897, "pitch": 50, "duration": 5, "velocity": 81}, {"time": 1897, "pitch": 57, "duration": 7, "velocity": 89}, {"time": 1897, "pitch": 66, "duration": 11, "velocity": 85}, {"time": 1909, "pitch": 43, "duration": 8, "velocity": 86}, {"time": 1909, "pitch": 59, "duration": 9, "velocity": 87}, {"time": 1909, "pitch": 67, "duration": 9, "velocity": 92}, {"time": 1915, "pitch": 50, "duration": 1, "velocity": 67}, {"time": 1921, "pitch": 42, "duration": 6, "velocity": 78}, {"time": 1921, "pitch": 59, "duration": 7, "velocity": 87}, {"time": 1921, "pitch": 66, "duration": 6, "velocity": 100}, {"time": 1927, "pitch": 67, "duration": 12, "velocity": 89}, {"time": 1933, "pitch": 40, "duration": 17, "velocity": 87}, {"time": 1933, "pitch": 59, "duration": 7, "velocity": 83}, {"time": 1933, "pitch": 64, "duration": 7, "velocity": 86}, {"time": 1939, "pitch": 52, "duration": 7, "velocity": 75}, {"time": 1945, "pitch": 59, "duration": 5, "velocity": 89}, {"time": 1945, "pitch": 67, "duration": 11, "velocity": 88}, {"time": 1951, "pitch": 52, "duration": 5, "velocity": 78}, {"time": 1957, "pitch": 47, "duration": 18, "velocity": 81}, {"time": 1957, "pitch": 62, "duration": 8, "velocity": 89}, {"time": 1957, "pitch": 66, "duration": 9, "velocity": 87}, {"time": 1957, "pitch": 69, "duration": 6, "velocity": 88}, {"time": 1963, "pitch": 54, "duration": 7, "velocity": 67}, {"time": 1969, "pitch": 62, "duration": 5, "velocity": 88}, {"time": 1969, "pitch": 66, "duration": 10, "velocity": 89}, {"time": 1969, "pitch": 69, "duration": 8, "velocity": 91}, {"time": 1975, "pitch": 54, "duration": 6, "velocity": 77}, {"time": 1981, "pitch": 48, "duration": 29, "velocity": 87}, {"time": 1981, "pitch": 60, "duration": 7, "velocity": 86}, {"time": 1981, "pitch": 64, "duration": 7, "velocity": 91}, {"time": 1981, "pitch": 67, "duration": 7, "velocity": 88}, {"time": 1993, "pitch": 60, "duration": 7, "velocity": 87}, {"time": 1993, "pitch": 64, "duration": 7, "velocity": 93}, {"time": 1993, "pitch": 67, "duration": 7, "velocity": 88}, {"time": 2005, "pitch": 60, "duration": 5, "velocity": 88}, {"time": 2005, "pitch": 64, "duration": 5, "velocity": 94}, {"time": 2005, "pitch": 67, "duration": 5, "velocity": 91}, {"time": 2017, "pitch": 48, "duration": 4, "velocity": 84}, {"time": 2017, "pitch": 60, "duration": 5, "velocity": 90}, {"time": 2017, "pitch": 67, "duration": 5, "velocity": 93}, {"time": 2029, "pitch": 38, "duration": 18, "velocity": 94}, {"time": 2029, "pitch": 57, "duration": 7, "velocity": 93}, {"time": 2029, "pitch": 66, "duration": 5, "velocity": 97}, {"time": 2035, "pitch": 45, "duration": 11, "velocity": 64}, {"time": 2041, "pitch": 55, "duration": 6, "velocity": 100}, {"time": 2041, "pitch": 62, "duration": 6, "velocity": 90}, {"time": 2047, "pitch": 50, "duration": 11, "velocity": 81}, {"time": 2053, "pitch": 38, "duration": 5, "velocity": 93}, {"time": 2053, "pitch": 54, "duration": 5, "velocity": 91}, {"time": 2053, "pitch": 62, "duration": 5, "velocity": 107}, {"time": 2077, "pitch": 48, "duration": 18, "velocity": 91}, {"time": 2077, "pitch": 60, "duration": 7, "velocity": 92}, {"time": 2077, "pitch": 64, "duration": 7, "velocity": 102}, {"time": 2077, "pitch": 67, "duration": 7, "velocity": 94}, {"time": 2083, "pitch": 55, "duration": 7, "velocity": 73}, {"time": 2089, "pitch": 60, "duration": 6, "velocity": 92}, {"time": 2089, "pitch": 64, "duration": 10, "velocity": 107}, {"time": 2089, "pitch": 67, "duration": 7, "velocity": 102}, {"time": 2095, "pitch": 55, "duration": 6, "velocity": 80}, {"time": 2101, "pitch": 50, "duration": 14, "velocity": 90}, {"time": 2101, "pitch": 62, "duration": 10, "velocity": 88}, {"time": 2101, "pitch": 66, "duration": 10, "velocity": 93}, {"time": 2101, "pitch": 69, "duration": 8, "velocity": 98}, {"time": 2113, "pitch": 62, "duration": 5, "velocity": 98}, {"time": 2113, "pitch": 66, "duration": 6, "velocity": 106}, {"time": 2113, "pitch": 69, "duration": 5, "velocity": 89}, {"time": 2119, "pitch": 50, "duration": 1, "velocity": 80}, {"time": 2125, "pitch": 47, "duration": 14, "velocity": 88}, {"time": 2125, "pitch": 59, "duration": 9, "velocity": 91}, {"time": 2125, "pitch": 62, "duration": 10, "velocity": 100}, {"time": 2125, "pitch": 66, "duration": 8, "velocity": 90}, {"time": 2125, "pitch": 69, "duration": 9, "velocity": 91}, {"time": 2137, "pitch": 59, "duration": 6, "velocity": 89}, {"time": 2137, "pitch": 62, "duration": 6, "velocity": 91}, {"time": 2137, "pitch": 66, "duration": 5, "velocity": 88}, {"time": 2137, "pitch": 69, "duration": 5, "velocity": 88}, {"time": 2143, "pitch": 47, "duration": 3, "velocity": 83}, {"time": 2149, "pitch": 52, "duration": 17, "velocity": 86}, {"time": 2149, "pitch": 59, "duration": 8, "velocity": 88}, {"time": 2149, "pitch": 62, "duration": 9, "velocity": 93}, {"time": 2149, "pitch": 64, "duration": 8, "velocity": 89}, {"time": 2149, "pitch": 67, "duration": 9, "velocity": 91}, {"time": 2161, "pitch": 59, "duration": 6, "velocity": 93}, {"time": 2161, "pitch": 62, "duration": 6, "velocity": 102}, {"time": 2161, "pitch": 64, "duration": 6, "velocity": 98}, {"time": 2161, "pitch": 67, "duration": 6, "velocity": 94}, {"time": 2173, "pitch": 48, "duration": 21, "velocity": 89}, {"time": 2173, "pitch": 60, "duration": 7, "velocity": 88}, {"time": 2173, "pitch": 64, "duration": 7, "velocity": 96}, {"time": 2173, "pitch": 67, "duration": 7, "velocity": 92}, {"time": 2185, "pitch": 60, "duration": 8, "velocity": 88}, {"time": 2185, "pitch": 64, "duration": 10, "velocity": 98}, {"time": 2185, "pitch": 67, "duration": 7, "velocity": 92}, {"time": 2197, "pitch": 50, "duration": 21, "velocity": 87}, {"time": 2197, "pitch": 62, "duration": 10, "velocity": 87}, {"time": 2197, "pitch": 66, "duration": 8, "velocity": 100}, {"time": 2197, "pitch": 69, "duration": 9, "velocity": 93}, {"time": 2209, "pitch": 62, "duration": 7, "velocity": 91}, {"time": 2209, "pitch": 66, "duration": 7, "velocity": 90}, {"time": 2209, "pitch": 69, "duration": 5, "velocity": 88}, {"time": 2221, "pitch": 43, "duration": 19, "velocity": 88}, {"time": 2221, "pitch": 60, "duration": 8, "velocity": 87}, {"time": 2221, "pitch": 62, "duration": 8, "velocity": 92}, {"time": 2221, "pitch": 67, "duration": 7, "velocity": 91}, {"time": 2227, "pitch": 50, "duration": 7, "velocity": 70}, {"time": 2233, "pitch": 60, "duration": 6, "velocity": 93}, {"time": 2233, "pitch": 62, "duration": 6, "velocity": 102}, {"time": 2233, "pitch": 67, "duration": 6, "velocity": 94}, {"time": 2239, "pitch": 50, "duration": 6, "velocity": 81}, {"time": 2245, "pitch": 43, "duration": 17, "velocity": 87}, {"time": 2245, "pitch": 59, "duration": 9, "velocity": 88}, {"time": 2245, "pitch": 62, "duration": 9, "velocity": 102}, {"time": 2245, "pitch": 67, "duration": 9, "velocity": 91}, {"time": 2254, "pitch": 50, "duration": 4, "velocity": 86}, {"time": 2257, "pitch": 59, "duration": 6, "velocity": 113}, {"time": 2257, "pitch": 67, "duration": 5, "velocity": 100}, {"time": 2260, "pitch": 50, "duration": 4, "velocity": 87}, {"time": 2263, "pitch": 62, "duration": 4, "velocity": 102}, {"time": 2266, "pitch": 67, "duration": 12, "velocity": 96}, {"time": 2269, "pitch": 48, "duration": 14, "velocity": 87}, {"time": 2269, "pitch": 60, "duration": 10, "velocity": 87}, {"time": 2269, "pitch": 64, "duration": 9, "velocity": 100}, {"time": 2281, "pitch": 60, "duration": 7, "velocity": 89}, {"time": 2281, "pitch": 64, "duration": 12, "velocity": 102}, {"time": 2281, "pitch": 67, "duration": 10, "velocity": 98}, {"time": 2287, "pitch": 48, "duration": 6, "velocity": 88}, {"time": 2293, "pitch": 50, "duration": 15, "velocity": 88}, {"time": 2293, "pitch": 62, "duration": 10, "velocity": 89}, {"time": 2293, "pitch": 66, "duration": 10, "velocity": 90}, {"time": 2293, "pitch": 69, "duration": 8, "velocity": 88}, {"time": 2305, "pitch": 62, "duration": 5, "velocity": 92}, {"time": 2305, "pitch": 66, "duration": 5, "velocity": 103}, {"time": 2305, "pitch": 69, "duration": 6, "velocity": 91}, {"time": 2311, "pitch": 50, "duration": 4, "velocity": 78}, {"time": 2317, "pitch": 47, "duration": 13, "velocity": 87}, {"time": 2317, "pitch": 59, "duration": 8, "velocity": 88}, {"time": 2317, "pitch": 62, "duration": 9, "velocity": 92}, {"time": 2317, "pitch": 66, "duration": 8, "velocity": 86}, {"time": 2317, "pitch": 69, "duration": 10, "velocity": 87}, {"time": 2329, "pitch": 59, "duration": 6, "velocity": 89}, {"time": 2329, "pitch": 62, "duration": 6, "velocity": 92}, {"time": 2329, "pitch": 66, "duration": 6, "velocity": 86}, {"time": 2329, "pitch": 69, "duration": 6, "velocity": 87}, {"time": 2335, "pitch": 47, "duration": 5, "velocity": 88}, {"time": 2341, "pitch": 52, "duration": 22, "velocity": 86}, {"time": 2341, "pitch": 59, "duration": 8, "velocity": 87}, {"time": 2341, "pitch": 62, "duration": 8, "velocity": 92}, {"time": 2341, "pitch": 64, "duration": 8, "velocity": 89}, {"time": 2341, "pitch": 67, "duration": 8, "velocity": 91}, {"time": 2353, "pitch": 59, "duration": 7, "velocity": 96}, {"time": 2353, "pitch": 62, "duration": 11, "velocity": 102}, {"time": 2353, "pitch": 64, "duration": 7, "velocity": 93}, {"time": 2353, "pitch": 67, "duration": 8, "velocity": 94}, {"time": 2365, "pitch": 48, "duration": 14, "velocity": 88}, {"time": 2365, "pitch": 60, "duration": 9, "velocity": 88}, {"time": 2365, "pitch": 64, "duration": 8, "velocity": 100}, {"time": 2365, "pitch": 67, "duration": 9, "velocity": 100}, {"time": 2377, "pitch": 60, "duration": 6, "velocity": 88}, {"time": 2377, "pitch": 64, "duration": 5, "velocity": 96}, {"time": 2377, "pitch": 67, "duration": 6, "velocity": 91}, {"time": 2383, "pitch": 48, "duration": 5, "velocity": 86}, {"time": 2389, "pitch": 50, "duration": 17, "velocity": 84}, {"time": 2389, "pitch": 57, "duration": 8, "velocity": 84}, {"time": 2389, "pitch": 62, "duration": 8, "velocity": 88}, {"time": 2389, "pitch": 66, "duration": 8, "velocity": 83}, {"time": 2389, "pitch": 69, "duration": 9, "velocity": 90}, {"time": 2401, "pitch": 57, "duration": 4, "velocity": 83}, {"time": 2401, "pitch": 62, "duration": 5, "velocity": 86}, {"time": 2401, "pitch": 66, "duration": 5, "velocity": 81}, {"time": 2401, "pitch": 69, "duration": 6, "velocity": 88}, {"time": 2413, "pitch": 40, "duration": 24, "velocity": 86}, {"time": 2413, "pitch": 59, "duration": 9, "velocity": 89}, {"time": 2413, "pitch": 64, "duration": 10, "velocity": 94}, {"time": 2413, "pitch": 68, "duration": 10, "velocity": 85}, {"time": 2425, "pitch": 59, "duration": 8, "velocity": 86}, {"time": 2425, "pitch": 64, "duration": 8, "velocity": 87}, {"time": 2425, "pitch": 68, "duration": 8, "velocity": 81}, {"time": 2437, "pitch": 59, "duration": 3, "velocity": 83}, {"time": 2437, "pitch": 64, "duration": 4, "velocity": 84}, {"time": 2437, "pitch": 68, "duration": 5, "velocity": 79}, {"time": 2458, "pitch": 60, "duration": 18, "velocity": 71}, {"time": 2459, "pitch": 64, "duration": 19, "velocity": 77}, {"time": 2461, "pitch": 48, "duration": 18, "velocity": 75}, {"time": 2461, "pitch": 67, "duration": 18, "velocity": 86}, {"time": 2482, "pitch": 62, "duration": 19, "velocity": 64}, {"time": 2483, "pitch": 66, "duration": 19, "velocity": 84}, {"time": 2485, "pitch": 50, "duration": 15, "velocity": 76}, {"time": 2485, "pitch": 69, "duration": 17, "velocity": 83}, {"time": 2506, "pitch": 59, "duration": 21, "velocity": 77}, {"time": 2507, "pitch": 62, "duration": 22, "velocity": 81}, {"time": 2509, "pitch": 47, "duration": 17, "velocity": 71}, {"time": 2509, "pitch": 69, "duration": 18, "velocity": 83}, {"time": 2530, "pitch": 59, "duration": 20, "velocity": 76}, {"time": 2531, "pitch": 64, "duration": 20, "velocity": 71}, {"time": 2533, "pitch": 52, "duration": 17, "velocity": 81}, {"time": 2533, "pitch": 67, "duration": 18, "velocity": 84}, {"time": 2554, "pitch": 60, "duration": 10, "velocity": 71}, {"time": 2555, "pitch": 64, "duration": 10, "velocity": 71}, {"time": 2557, "pitch": 48, "duration": 19, "velocity": 85}, {"time": 2557, "pitch": 67, "duration": 8, "velocity": 86}, {"time": 2566, "pitch": 55, "duration": 5, "velocity": 71}, {"time": 2569, "pitch": 60, "duration": 8, "velocity": 88}, {"time": 2569, "pitch": 67, "duration": 11, "velocity": 89}, {"time": 2581, "pitch": 50, "duration": 19, "velocity": 86}, {"time": 2581, "pitch": 62, "duration": 11, "velocity": 87}, {"time": 2581, "pitch": 66, "duration": 11, "velocity": 84}, {"time": 2581, "pitch": 69, "duration": 11, "velocity": 87}, {"time": 2593, "pitch": 62, "duration": 7, "velocity": 88}, {"time": 2593, "pitch": 66, "duration": 6, "velocity": 84}, {"time": 2593, "pitch": 69, "duration": 6, "velocity": 77}, {"time": 2605, "pitch": 43, "duration": 34, "velocity": 84}, {"time": 2605, "pitch": 59, "duration": 9, "velocity": 90}, {"time": 2605, "pitch": 62, "duration": 10, "velocity": 93}, {"time": 2605, "pitch": 67, "duration": 8, "velocity": 92}, {"time": 2617, "pitch": 59, "duration": 11, "velocity": 90}, {"time": 2617, "pitch": 62, "duration": 11, "velocity": 96}, {"time": 2617, "pitch": 67, "duration": 11, "velocity": 93}, {"time": 2629, "pitch": 59, "duration": 10, "velocity": 88}, {"time": 2629, "pitch": 62, "duration": 10, "velocity": 93}, {"time": 2629, "pitch": 67, "duration": 9, "velocity": 91}, {"time": 2641, "pitch": 47, "duration": 6, "velocity": 89}, {"time": 2641, "pitch": 59, "duration": 8, "velocity": 94}, {"time": 2641, "pitch": 62, "duration": 11, "velocity": 102}, {"time": 2641, "pitch": 67, "duration": 8, "velocity": 98}, {"time": 2653, "pitch": 48, "duration": 15, "velocity": 93}, {"time": 2653, "pitch": 60, "duration": 9, "velocity": 96}, {"time": 2653, "pitch": 64, "duration": 9, "velocity": 108}, {"time": 2653, "pitch": 67, "duration": 9, "velocity": 100}, {"time": 2662, "pitch": 55, "duration": 6, "velocity": 72}, {"time": 2665, "pitch": 60, "duration": 8, "velocity": 98}, {"time": 2665, "pitch": 64, "duration": 10, "velocity": 110}, {"time": 2665, "pitch": 67, "duration": 9, "velocity": 107}, {"time": 2671, "pitch": 48, "duration": 4, "velocity": 87}, {"time": 2677, "pitch": 50, "duration": 11, "velocity": 87}, {"time": 2677, "pitch": 62, "duration": 8, "velocity": 91}, {"time": 2677, "pitch": 66, "duration": 8, "velocity": 103}, {"time": 2677, "pitch": 69, "duration": 8, "velocity": 100}, {"time": 2686, "pitch": 62, "duration": 7, "velocity": 98}, {"time": 2686, "pitch": 66, "duration": 7, "velocity": 100}, {"time": 2686, "pitch": 69, "duration": 7, "velocity": 94}, {"time": 2692, "pitch": 50, "duration": 4, "velocity": 86}, {"time": 2695, "pitch": 62, "duration": 2, "velocity": 93}, {"time": 2695, "pitch": 66, "duration": 2, "velocity": 97}, {"time": 2695, "pitch": 69, "duration": 4, "velocity": 91}, {"time": 2701, "pitch": 47, "duration": 7, "velocity": 91}, {"time": 2701, "pitch": 62, "duration": 9, "velocity": 90}, {"time": 2701, "pitch": 66, "duration": 9, "velocity": 100}, {"time": 2701, "pitch": 69, "duration": 9, "velocity": 91}, {"time": 2710, "pitch": 47, "duration": 6, "velocity": 84}, {"time": 2713, "pitch": 62, "duration": 6, "velocity": 98}, {"time": 2713, "pitch": 66, "duration": 4, "velocity": 106}, {"time": 2713, "pitch": 69, "duration": 6, "velocity": 93}, {"time": 2719, "pitch": 47, "duration": 4, "velocity": 93}, {"time": 2725, "pitch": 52, "duration": 15, "velocity": 89}, {"time": 2725, "pitch": 59, "duration": 9, "velocity": 91}, {"time": 2725, "pitch": 64, "duration": 9, "velocity": 102}, {"time": 2725, "pitch": 67, "duration": 8, "velocity": 93}, {"time": 2737, "pitch": 59, "duration": 8, "velocity": 98}, {"time": 2737, "pitch": 64, "duration": 10, "velocity": 107}, {"time": 2737, "pitch": 67, "duration": 9, "velocity": 98}, {"time": 2743, "pitch": 52, "duration": 3, "velocity": 90}, {"time": 2746, "pitch": 50, "duration": 3, "velocity": 91}, {"time": 2749, "pitch": 48, "duration": 15, "velocity": 91}, {"time": 2749, "pitch": 60, "duration": 9, "velocity": 100}, {"time": 2749, "pitch": 64, "duration": 9, "velocity": 100}, {"time": 2749, "pitch": 67, "duration": 8, "velocity": 100}, {"time": 2761, "pitch": 60, "duration": 8, "velocity": 93}, {"time": 2761, "pitch": 64, "duration": 9, "velocity": 107}, {"time": 2761, "pitch": 67, "duration": 8, "velocity": 93}, {"time": 2767, "pitch": 48, "duration": 5, "velocity": 96}, {"time": 2773, "pitch": 50, "duration": 15, "velocity": 91}, {"time": 2773, "pitch": 62, "duration": 10, "velocity": 89}, {"time": 2773, "pitch": 66, "duration": 9, "velocity": 95}, {"time": 2773, "pitch": 69, "duration": 9, "velocity": 93}, {"time": 2785, "pitch": 62, "duration": 4, "velocity": 94}, {"time": 2785, "pitch": 66, "duration": 6, "velocity": 97}, {"time": 2785, "pitch": 69, "duration": 6, "velocity": 91}, {"time": 2791, "pitch": 50, "duration": 5, "velocity": 88}, {"time": 2797, "pitch": 52, "duration": 29, "velocity": 92}, {"time": 2797, "pitch": 59, "duration": 29, "velocity": 91}, {"time": 2797, "pitch": 64, "duration": 29, "velocity": 100}, {"time": 2797, "pitch": 68, "duration": 29, "velocity": 89}, {"time": 2845, "pitch": 48, "duration": 19, "velocity": 80}, {"time": 2845, "pitch": 76, "duration": 12, "velocity": 89}, {"time": 2851, "pitch": 55, "duration": 14, "velocity": 67}, {"time": 2857, "pitch": 60, "duration": 7, "velocity": 67}, {"time": 2857, "pitch": 74, "duration": 12, "velocity": 88}, {"time": 2869, "pitch": 50, "duration": 18, "velocity": 77}, {"time": 2869, "pitch": 78, "duration": 17, "velocity": 84}, {"time": 2875, "pitch": 57, "duration": 11, "velocity": 58}, {"time": 2881, "pitch": 62, "duration": 4, "velocity": 77}, {"time": 2890, "pitch": 69, "duration": 39, "velocity": 60}, {"time": 2892, "pitch": 50, "duration": 38, "velocity": 65}, {"time": 2892, "pitch": 79, "duration": 38, "velocity": 85}, {"time": 2941, "pitch": 43, "duration": 64, "velocity": 83}, {"time": 2947, "pitch": 50, "duration": 57, "velocity": 65}, {"time": 2951, "pitch": 55, "duration": 54, "velocity": 76}, {"time": 2955, "pitch": 57, "duration": 3, "velocity": 76}, {"time": 2959, "pitch": 59, "duration": 1, "velocity": 82}, {"time": 2962, "pitch": 62, "duration": 2, "velocity": 81}, {"time": 2965, "pitch": 67, "duration": 2, "velocity": 83}, {"time": 2969, "pitch": 69, "duration": 2, "velocity": 82}, {"time": 2973, "pitch": 71, "duration": 1, "velocity": 80}, {"time": 2977, "pitch": 74, "duration": 3, "velocity": 81}, {"time": 2981, "pitch": 79, "duration": 4, "velocity": 68}, {"time": 2987, "pitch": 83, "duration": 4, "velocity": 64}, {"time": 2992, "pitch": 86, "duration": 2, "velocity": 83}], "annotations": [{"time": 254, "annotation": {"number": 64, "value": 127}, "group": "control_change"}, {"time": 276, "annotation": {"number": 64, "value": 0}, "group": "control_change"}, {"time": 278, "annotation": {"number": 64, "value": 127}, "group": "control_change"}, {"time": 298, "annotation": {"number": 64, "value": 74}, "group": "control_change"}, {"time": 298, "annotation": {"number": 64, "value": 0}, "group": "control_change"}, {"time": 301, "annotation": {"number": 64, "value": 127}, "group": "control_change"}, {"time": 322, "annotation": {"number": 64, "value": 0}, "group": "control_change"}, {"time": 325, "annotation": {"number": 64, "value": 127}, "group": "control_change"}, {"time": 335, "annotation": {"number": 64, "value": 0}, "group": "control_change"}, {"time": 337, "annotation": {"number": 64, "value": 127}, "group": "control_change"}, {"time": 346, "annotation": {"number": 64, "value": 0}, "group": "control_change"}, {"time": 349, "annotation": {"number": 64, "value": 127}, "group": "control_change"}, {"time": 370, "annotation": {"number": 64, "value": 38}, "group": "control_change"}, {"time": 371, "annotation": {"number": 64, "value": 0}, "group": "control_change"}, {"time": 373, "annotation": {"number": 64, "value": 127}, "group": "control_change"}, {"time": 394, "annotation": {"number": 64, "value": 38}, "group": "control_change"}, {"time": 394, "annotation": {"number": 64, "value": 0}, "group": "control_change"}, {"time": 397, "annotation": {"number": 64, "value": 127}, "group": "control_change"}, {"time": 418, "annotation": {"number": 64, "value": 38}, "group": "control_change"}, {"time": 418, "annotation": {"number": 64, "value": 0}, "group": "control_change"}, {"time": 421, "annotation": {"number": 64, "value": 127}, "group": "control_change"}, {"time": 429, "annotation": {"number": 64, "value": 38}, "group": "control_change"}, {"time": 429, "annotation": {"number": 64, "value": 0}, "group": "control_change"}, {"time": 433, "annotation": {"number": 64, "value": 127}, "group": "control_change"}, {"time": 442, "annotation": {"number": 64, "value": 38}, "group": "control_change"}, {"time": 442, "annotation": {"number": 64, "value": 0}, "group": "control_change"}, {"time": 445, "annotation": {"number": 64, "value": 74}, "group": "control_change"}, {"time": 445, "annotation": {"number": 64, "value": 127}, "group": "control_change"}, {"time": 466, "annotation": {"number": 64, "value": 0}, "group": "control_change"}, {"time": 469, "annotation": {"number": 64, "value": 127}, "group": "control_change"}, {"time": 490, "annotation": {"number": 64, "value": 0}, "group": "control_change"}, {"time": 490, "annotation": {"number": 64, "value": 38}, "group": "control_change"}, {"time": 493, "annotation": {"number": 64, "value": 127}, "group": "control_change"}, {"time": 514, "annotation": {"number": 64, "value": 38}, "group": "control_change"}, {"time": 514, "annotation": {"number": 64, "value": 0}, "group": "control_change"}, {"time": 515, "annotation": {"number": 64, "value": 38}, "group": "control_change"}, {"time": 515, "annotation": {"number": 64, "value": 0}, "group": "control_change"}, {"time": 516, "annotation": {"number": 64, "value": 127}, "group": "control_change"}, {"time": 517, "annotation": {"number": 64, "value": 127}, "group": "control_change"}, {"time": 526, "annotation": {"number": 64, "value": 38}, "group": "control_change"}, {"time": 527, "annotation": {"number": 64, "value": 0}, "group": "control_change"}, {"time": 529, "annotation": {"number": 64, "value": 127}, "group": "control_change"}, {"time": 537, "annotation": {"number": 64, "value": 74}, "group": "control_change"}, {"time": 537, "annotation": {"number": 64, "value": 38}, "group": "control_change"}, {"time": 537, "annotation": {"number": 64, "value": 0}, "group": "control_change"}, {"time": 538, "annotation": {"number": 64, "value": 74}, "group": "control_change"}, {"time": 538, "annotation": {"number": 64, "value": 0}, "group": "control_change"}, {"time": 541, "annotation": {"number": 64, "value": 127}, "group": "control_change"}, {"time": 550, "annotation": {"number": 64, "value": 74}, "group": "control_change"}, {"time": 550, "annotation": {"number": 64, "value": 38}, "group": "control_change"}, {"time": 551, "annotation": {"number": 64, "value": 0}, "group": "control_change"}, {"time": 562, "annotation": {"number": 64, "value": 0}, "group": "control_change"}, {"time": 565, "annotation": {"number": 64, "value": 127}, "group": "control_change"}, {"time": 586, "annotation": {"number": 64, "value": 74}, "group": "control_change"}, {"time": 586, "annotation": {"number": 64, "value": 0}, "group": "control_change"}, {"time": 589, "annotation": {"number": 64, "value": 127}, "group": "control_change"}, {"time": 610, "annotation": {"number": 64, "value": 74}, "group": "control_change"}, {"time": 610, "annotation": {"number": 64, "value": 0}, "group": "control_change"}, {"time": 613, "annotation": {"number": 64, "value": 127}, "group": "control_change"}, {"time": 622, "annotation": {"number": 64, "value": 0}, "group": "control_change"}, {"time": 625, "annotation": {"number": 64, "value": 127}, "group": "control_change"}, {"time": 633, "annotation": {"number": 64, "value": 74}, "group": "control_change"}, {"time": 633, "annotation": {"number": 64, "value": 0}, "group": "control_change"}, {"time": 637, "annotation": {"number": 64, "value": 127}, "group": "control_change"}, {"time": 658, "annotation": {"number": 64, "value": 38}, "group": "control_change"}, {"time": 658, "annotation": {"number": 64, "value": 0}, "group": "control_change"}, {"time": 660, "annotation": {"number": 64, "value": 127}, "group": "control_change"}, {"time": 682, "annotation": {"number": 64, "value": 38}, "group": "control_change"}, {"time": 682, "annotation": {"number": 64, "value": 0}, "group": "control_change"}, {"time": 685, "annotation": {"number": 64, "value": 127}, "group": "control_change"}, {"time": 693, "annotation": {"number": 64, "value": 0}, "group": "control_change"}, {"time": 697, "annotation": {"number": 64, "value": 127}, "group": "control_change"}, {"time": 706, "annotation": {"number": 64, "value": 38}, "group": "control_change"}, {"time": 706, "annotation": {"number": 64, "value": 0}, "group": "control_change"}, {"time": 709, "annotation": {"number": 64, "value": 74}, "group": "control_change"}, {"time": 709, "annotation": {"number": 64, "value": 127}, "group": "control_change"}, {"time": 719, "annotation": {"number": 64, "value": 38}, "group": "control_change"}, {"time": 719, "annotation": {"number": 64, "value": 0}, "group": "control_change"}, {"time": 720, "annotation": {"number": 64, "value": 127}, "group": "control_change"}, {"time": 729, "annotation": {"number": 64, "value": 38}, "group": "control_change"}, {"time": 729, "annotation": {"number": 64, "value": 0}, "group": "control_change"}, {"time": 733, "annotation": {"number": 64, "value": 74}, "group": "control_change"}, {"time": 733, "annotation": {"number": 64, "value": 127}, "group": "control_change"}, {"time": 753, "annotation": {"number": 64, "value": 38}, "group": "control_change"}, {"time": 753, "annotation": {"number": 64, "value": 0}, "group": "control_change"}, {"time": 757, "annotation": {"number": 64, "value": 127}, "group": "control_change"}, {"time": 778, "annotation": {"number": 64, "value": 74}, "group": "control_change"}, {"time": 778, "annotation": {"number": 64, "value": 0}, "group": "control_change"}, {"time": 781, "annotation": {"number": 64, "value": 127}, "group": "control_change"}, {"time": 814, "annotation": {"number": 64, "value": 38}, "group": "control_change"}, {"time": 814, "annotation": {"number": 64, "value": 0}, "group": "control_change"}, {"time": 817, "annotation": {"number": 64, "value": 127}, "group": "control_change"}, {"time": 826, "annotation": {"number": 64, "value": 74}, "group": "control_change"}, {"time": 826, "annotation": {"number": 64, "value": 38}, "group": "control_change"}, {"time": 826, "annotation": {"number": 64, "value": 0}, "group": "control_change"}, {"time": 828, "annotation": {"number": 64, "value": 127}, "group": "control_change"}, {"time": 850, "annotation": {"number": 64, "value": 74}, "group": "control_change"}, {"time": 850, "annotation": {"number": 64, "value": 0}, "group": "control_change"}, {"time": 852, "annotation": {"number": 64, "value": 127}, "group": "control_change"}, {"time": 859, "annotation": {"number": 64, "value": 38}, "group": "control_change"}, {"time": 859, "annotation": {"number": 64, "value": 0}, "group": "control_change"}, {"time": 876, "annotation": {"number": 64, "value": 127}, "group": "control_change"}, {"time": 898, "annotation": {"number": 64, "value": 38}, "group": "control_change"}, {"time": 898, "annotation": {"number": 64, "value": 0}, "group": "control_change"}, {"time": 900, "annotation": {"number": 64, "value": 127}, "group": "control_change"}, {"time": 921, "annotation": {"number": 64, "value": 74}, "group": "control_change"}, {"time": 921, "annotation": {"number": 64, "value": 0}, "group": "control_change"}, {"time": 924, "annotation": {"number": 64, "value": 127}, "group": "control_change"}, {"time": 945, "annotation": {"number": 64, "value": 38}, "group": "control_change"}, {"time": 946, "annotation": {"number": 64, "value": 0}, "group": "control_change"}, {"time": 949, "annotation": {"number": 64, "value": 127}, "group": "control_change"}, {"time": 969, "annotation": {"number": 64, "value": 74}, "group": "control_change"}, {"time": 969, "annotation": {"number": 64, "value": 0}, "group": "control_change"}, {"time": 972, "annotation": {"number": 64, "value": 127}, "group": "control_change"}, {"time": 982, "annotation": {"number": 64, "value": 74}, "group": "control_change"}, {"time": 982, "annotation": {"number": 64, "value": 0}, "group": "control_change"}, {"time": 994, "annotation": {"number": 64, "value": 38}, "group": "control_change"}, {"time": 994, "annotation": {"number": 64, "value": 0}, "group": "control_change"}, {"time": 997, "annotation": {"number": 64, "value": 127}, "group": "control_change"}, {"time": 1018, "annotation": {"number": 64, "value": 0}, "group": "control_change"}, {"time": 1021, "annotation": {"number": 64, "value": 127}, "group": "control_change"}, {"time": 1042, "annotation": {"number": 64, "value": 74}, "group": "control_change"}, {"time": 1042, "annotation": {"number": 64, "value": 0}, "group": "control_change"}, {"time": 1044, "annotation": {"number": 64, "value": 127}, "group": "control_change"}, {"time": 1066, "annotation": {"number": 64, "value": 38}, "group": "control_change"}, {"time": 1066, "annotation": {"number": 64, "value": 0}, "group": "control_change"}, {"time": 1069, "annotation": {"number": 64, "value": 127}, "group": "control_change"}, {"time": 1089, "annotation": {"number": 64, "value": 38}, "group": "control_change"}, {"time": 1089, "annotation": {"number": 64, "value": 0}, "group": "control_change"}, {"time": 1093, "annotation": {"number": 64, "value": 127}, "group": "control_change"}, {"time": 1113, "annotation": {"number": 64, "value": 0}, "group": "control_change"}, {"time": 1117, "annotation": {"number": 64, "value": 127}, "group": "control_change"}, {"time": 1137, "annotation": {"number": 64, "value": 74}, "group": "control_change"}, {"time": 1138, "annotation": {"number": 64, "value": 0}, "group": "control_change"}, {"time": 1141, "annotation": {"number": 64, "value": 127}, "group": "control_change"}, {"time": 1161, "annotation": {"number": 64, "value": 38}, "group": "control_change"}, {"time": 1161, "annotation": {"number": 64, "value": 0}, "group": "control_change"}, {"time": 1164, "annotation": {"number": 64, "value": 127}, "group": "control_change"}, {"time": 1186, "annotation": {"number": 64, "value": 0}, "group": "control_change"}, {"time": 1189, "annotation": {"number": 64, "value": 127}, "group": "control_change"}, {"time": 1190, "annotation": {"number": 64, "value": 127}, "group": "control_change"}, {"time": 1210, "annotation": {"number": 64, "value": 38}, "group": "control_change"}, {"time": 1210, "annotation": {"number": 64, "value": 0}, "group": "control_change"}, {"time": 1213, "annotation": {"number": 64, "value": 127}, "group": "control_change"}, {"time": 1214, "annotation": {"number": 64, "value": 127}, "group": "control_change"}, {"time": 1230, "annotation": {"number": 64, "value": 38}, "group": "control_change"}, {"time": 1230, "annotation": {"number": 64, "value": 0}, "group": "control_change"}, {"time": 1261, "annotation": {"number": 64, "value": 74}, "group": "control_change"}, {"time": 1261, "annotation": {"number": 64, "value": 127}, "group": "control_change"}, {"time": 1282, "annotation": {"number": 64, "value": 74}, "group": "control_change"}, {"time": 1282, "annotation": {"number": 64, "value": 0}, "group": "control_change"}, {"time": 1284, "annotation": {"number": 64, "value": 127}, "group": "control_change"}, {"time": 1304, "annotation": {"number": 64, "value": 0}, "group": "control_change"}, {"time": 1308, "annotation": {"number": 64, "value": 127}, "group": "control_change"}, {"time": 1343, "annotation": {"number": 64, "value": 38}, "group": "control_change"}, {"time": 1343, "annotation": {"number": 64, "value": 0}, "group": "control_change"}, {"time": 1344, "annotation": {"number": 64, "value": 127}, "group": "control_change"}, {"time": 1353, "annotation": {"number": 64, "value": 0}, "group": "control_change"}, {"time": 1356, "annotation": {"number": 64, "value": 127}, "group": "control_change"}, {"time": 1378, "annotation": {"number": 64, "value": 74}, "group": "control_change"}, {"time": 1378, "annotation": {"number": 64, "value": 0}, "group": "control_change"}, {"time": 1381, "annotation": {"number": 64, "value": 127}, "group": "control_change"}, {"time": 1402, "annotation": {"number": 64, "value": 0}, "group": "control_change"}, {"time": 1404, "annotation": {"number": 64, "value": 127}, "group": "control_change"}, {"time": 1450, "annotation": {"number": 64, "value": 74}, "group": "control_change"}, {"time": 1450, "annotation": {"number": 64, "value": 0}, "group": "control_change"}, {"time": 1454, "annotation": {"number": 64, "value": 127}, "group": "control_change"}, {"time": 1476, "annotation": {"number": 64, "value": 0}, "group": "control_change"}, {"time": 1478, "annotation": {"number": 64, "value": 127}, "group": "control_change"}, {"time": 1498, "annotation": {"number": 64, "value": 74}, "group": "control_change"}, {"time": 1498, "annotation": {"number": 64, "value": 0}, "group": "control_change"}, {"time": 1501, "annotation": {"number": 64, "value": 127}, "group": "control_change"}, {"time": 1522, "annotation": {"number": 64, "value": 0}, "group": "control_change"}, {"time": 1525, "annotation": {"number": 64, "value": 127}, "group": "control_change"}, {"time": 1535, "annotation": {"number": 64, "value": 0}, "group": "control_change"}, {"time": 1537, "annotation": {"number": 64, "value": 127}, "group": "control_change"}, {"time": 1546, "annotation": {"number": 64, "value": 0}, "group": "control_change"}, {"time": 1549, "annotation": {"number": 64, "value": 127}, "group": "control_change"}, {"time": 1570, "annotation": {"number": 64, "value": 38}, "group": "control_change"}, {"time": 1571, "annotation": {"number": 64, "value": 0}, "group": "control_change"}, {"time": 1573, "annotation": {"number": 64, "value": 127}, "group": "control_change"}, {"time": 1594, "annotation": {"number": 64, "value": 38}, "group": "control_change"}, {"time": 1594, "annotation": {"number": 64, "value": 0}, "group": "control_change"}, {"time": 1597, "annotation": {"number": 64, "value": 127}, "group": "control_change"}, {"time": 1618, "annotation": {"number": 64, "value": 38}, "group": "control_change"}, {"time": 1618, "annotation": {"number": 64, "value": 0}, "group": "control_change"}, {"time": 1621, "annotation": {"number": 64, "value": 127}, "group": "control_change"}, {"time": 1629, "annotation": {"number": 64, "value": 38}, "group": "control_change"}, {"time": 1629, "annotation": {"number": 64, "value": 0}, "group": "control_change"}, {"time": 1633, "annotation": {"number": 64, "value": 127}, "group": "control_change"}, {"time": 1642, "annotation": {"number": 64, "value": 38}, "group": "control_change"}, {"time": 1642, "annotation": {"number": 64, "value": 0}, "group": "control_change"}, {"time": 1645, "annotation": {"number": 64, "value": 74}, "group": "control_change"}, {"time": 1645, "annotation": {"number": 64, "value": 127}, "group": "control_change"}, {"time": 1666, "annotation": {"number": 64, "value": 0}, "group": "control_change"}, {"time": 1669, "annotation": {"number": 64, "value": 127}, "group": "control_change"}, {"time": 1690, "annotation": {"number": 64, "value": 0}, "group": "control_change"}, {"time": 1690, "annotation": {"number": 64, "value": 38}, "group": "control_change"}, {"time": 1693, "annotation": {"number": 64, "value": 127}, "group": "control_change"}, {"time": 1714, "annotation": {"number": 64, "value": 38}, "group": "control_change"}, {"time": 1714, "annotation": {"number": 64, "value": 0}, "group": "control_change"}, {"time": 1715, "annotation": {"number": 64, "value": 38}, "group": "control_change"}, {"time": 1715, "annotation": {"number": 64, "value": 0}, "group": "control_change"}, {"time": 1716, "annotation": {"number": 64, "value": 127}, "group": "control_change"}, {"time": 1717, "annotation": {"number": 64, "value": 127}, "group": "control_change"}, {"time": 1726, "annotation": {"number": 64, "value": 38}, "group": "control_change"}, {"time": 1727, "annotation": {"number": 64, "value": 0}, "group": "control_change"}, {"time": 1729, "annotation": {"number": 64, "value": 127}, "group": "control_change"}, {"time": 1737, "annotation": {"number": 64, "value": 74}, "group": "control_change"}, {"time": 1737, "annotation": {"number": 64, "value": 38}, "group": "control_change"}, {"time": 1737, "annotation": {"number": 64, "value": 0}, "group": "control_change"}, {"time": 1738, "annotation": {"number": 64, "value": 74}, "group": "control_change"}, {"time": 1738, "annotation": {"number": 64, "value": 0}, "group": "control_change"}, {"time": 1741, "annotation": {"number": 64, "value": 127}, "group": "control_change"}, {"time": 1750, "annotation": {"number": 64, "value": 74}, "group": "control_change"}, {"time": 1750, "annotation": {"number": 64, "value": 38}, "group": "control_change"}, {"time": 1751, "annotation": {"number": 64, "value": 0}, "group": "control_change"}, {"time": 1762, "annotation": {"number": 64, "value": 0}, "group": "control_change"}, {"time": 1765, "annotation": {"number": 64, "value": 127}, "group": "control_change"}, {"time": 1786, "annotation": {"number": 64, "value": 74}, "group": "control_change"}, {"time": 1786, "annotation": {"number": 64, "value": 0}, "group": "control_change"}, {"time": 1789, "annotation": {"number": 64, "value": 127}, "group": "control_change"}, {"time": 1810, "annotation": {"number": 64, "value": 74}, "group": "control_change"}, {"time": 1810, "annotation": {"number": 64, "value": 0}, "group": "control_change"}, {"time": 1813, "annotation": {"number": 64, "value": 127}, "group": "control_change"}, {"time": 1822, "annotation": {"number": 64, "value": 0}, "group": "control_change"}, {"time": 1825, "annotation": {"number": 64, "value": 127}, "group": "control_change"}, {"time": 1833, "annotation": {"number": 64, "value": 74}, "group": "control_change"}, {"time": 1833, "annotation": {"number": 64, "value": 0}, "group": "control_change"}, {"time": 1837, "annotation": {"number": 64, "value": 127}, "group": "control_change"}, {"time": 1858, "annotation": {"number": 64, "value": 38}, "group": "control_change"}, {"time": 1858, "annotation": {"number": 64, "value": 0}, "group": "control_change"}, {"time": 1860, "annotation": {"number": 64, "value": 127}, "group": "control_change"}, {"time": 1882, "annotation": {"number": 64, "value": 38}, "group": "control_change"}, {"time": 1882, "annotation": {"number": 64, "value": 0}, "group": "control_change"}, {"time": 1885, "annotation": {"number": 64, "value": 127}, "group": "control_change"}, {"time": 1893, "annotation": {"number": 64, "value": 0}, "group": "control_change"}, {"time": 1897, "annotation": {"number": 64, "value": 127}, "group": "control_change"}, {"time": 1906, "annotation": {"number": 64, "value": 38}, "group": "control_change"}, {"time": 1906, "annotation": {"number": 64, "value": 0}, "group": "control_change"}, {"time": 1909, "annotation": {"number": 64, "value": 74}, "group": "control_change"}, {"time": 1909, "annotation": {"number": 64, "value": 127}, "group": "control_change"}, {"time": 1919, "annotation": {"number": 64, "value": 38}, "group": "control_change"}, {"time": 1919, "annotation": {"number": 64, "value": 0}, "group": "control_change"}, {"time": 1920, "annotation": {"number": 64, "value": 127}, "group": "control_change"}, {"time": 1929, "annotation": {"number": 64, "value": 38}, "group": "control_change"}, {"time": 1929, "annotation": {"number": 64, "value": 0}, "group": "control_change"}, {"time": 1933, "annotation": {"number": 64, "value": 74}, "group": "control_change"}, {"time": 1933, "annotation": {"number": 64, "value": 127}, "group": "control_change"}, {"time": 1953, "annotation": {"number": 64, "value": 38}, "group": "control_change"}, {"time": 1953, "annotation": {"number": 64, "value": 0}, "group": "control_change"}, {"time": 1957, "annotation": {"number": 64, "value": 127}, "group": "control_change"}, {"time": 1978, "annotation": {"number": 64, "value": 74}, "group": "control_change"}, {"time": 1978, "annotation": {"number": 64, "value": 0}, "group": "control_change"}, {"time": 1981, "annotation": {"number": 64, "value": 127}, "group": "control_change"}, {"time": 2014, "annotation": {"number": 64, "value": 38}, "group": "control_change"}, {"time": 2014, "annotation": {"number": 64, "value": 0}, "group": "control_change"}, {"time": 2017, "annotation": {"number": 64, "value": 127}, "group": "control_change"}, {"time": 2026, "annotation": {"number": 64, "value": 74}, "group": "control_change"}, {"time": 2026, "annotation": {"number": 64, "value": 38}, "group": "control_change"}, {"time": 2026, "annotation": {"number": 64, "value": 0}, "group": "control_change"}, {"time": 2028, "annotation": {"number": 64, "value": 127}, "group": "control_change"}, {"time": 2050, "annotation": {"number": 64, "value": 74}, "group": "control_change"}, {"time": 2050, "annotation": {"number": 64, "value": 0}, "group": "control_change"}, {"time": 2052, "annotation": {"number": 64, "value": 127}, "group": "control_change"}, {"time": 2059, "annotation": {"number": 64, "value": 38}, "group": "control_change"}, {"time": 2059, "annotation": {"number": 64, "value": 0}, "group": "control_change"}, {"time": 2076, "annotation": {"number": 64, "value": 127}, "group": "control_change"}, {"time": 2098, "annotation": {"number": 64, "value": 38}, "group": "control_change"}, {"time": 2098, "annotation": {"number": 64, "value": 0}, "group": "control_change"}, {"time": 2100, "annotation": {"number": 64, "value": 127}, "group": "control_change"}, {"time": 2121, "annotation": {"number": 64, "value": 74}, "group": "control_change"}, {"time": 2121, "annotation": {"number": 64, "value": 0}, "group": "control_change"}, {"time": 2124, "annotation": {"number": 64, "value": 127}, "group": "control_change"}, {"time": 2145, "annotation": {"number": 64, "value": 38}, "group": "control_change"}, {"time": 2146, "annotation": {"number": 64, "value": 0}, "group": "control_change"}, {"time": 2149, "annotation": {"number": 64, "value": 127}, "group": "control_change"}, {"time": 2169, "annotation": {"number": 64, "value": 74}, "group": "control_change"}, {"time": 2169, "annotation": {"number": 64, "value": 0}, "group": "control_change"}, {"time": 2172, "annotation": {"number": 64, "value": 127}, "group": "control_change"}, {"time": 2182, "annotation": {"number": 64, "value": 74}, "group": "control_change"}, {"time": 2182, "annotation": {"number": 64, "value": 0}, "group": "control_change"}, {"time": 2194, "annotation": {"number": 64, "value": 38}, "group": "control_change"}, {"time": 2194, "annotation": {"number": 64, "value": 0}, "group": "control_change"}, {"time": 2197, "annotation": {"number": 64, "value": 127}, "group": "control_change"}, {"time": 2218, "annotation": {"number": 64, "value": 0}, "group": "control_change"}, {"time": 2221, "annotation": {"number": 64, "value": 127}, "group": "control_change"}, {"time": 2242, "annotation": {"number": 64, "value": 74}, "group": "control_change"}, {"time": 2242, "annotation": {"number": 64, "value": 0}, "group": "control_change"}, {"time": 2244, "annotation": {"number": 64, "value": 127}, "group": "control_change"}, {"time": 2266, "annotation": {"number": 64, "value": 38}, "group": "control_change"}, {"time": 2266, "annotation": {"number": 64, "value": 0}, "group": "control_change"}, {"time": 2269, "annotation": {"number": 64, "value": 127}, "group": "control_change"}, {"time": 2289, "annotation": {"number": 64, "value": 38}, "group": "control_change"}, {"time": 2289, "annotation": {"number": 64, "value": 0}, "group": "control_change"}, {"time": 2293, "annotation": {"number": 64, "value": 127}, "group": "control_change"}, {"time": 2313, "annotation": {"number": 64, "value": 0}, "group": "control_change"}, {"time": 2317, "annotation": {"number": 64, "value": 127}, "group": "control_change"}, {"time": 2337, "annotation": {"number": 64, "value": 74}, "group": "control_change"}, {"time": 2338, "annotation": {"number": 64, "value": 0}, "group": "control_change"}, {"time": 2341, "annotation": {"number": 64, "value": 127}, "group": "control_change"}, {"time": 2361, "annotation": {"number": 64, "value": 38}, "group": "control_change"}, {"time": 2361, "annotation": {"number": 64, "value": 0}, "group": "control_change"}, {"time": 2364, "annotation": {"number": 64, "value": 127}, "group": "control_change"}, {"time": 2386, "annotation": {"number": 64, "value": 0}, "group": "control_change"}, {"time": 2389, "annotation": {"number": 64, "value": 127}, "group": "control_change"}, {"time": 2390, "annotation": {"number": 64, "value": 127}, "group": "control_change"}, {"time": 2410, "annotation": {"number": 64, "value": 38}, "group": "control_change"}, {"time": 2410, "annotation": {"number": 64, "value": 0}, "group": "control_change"}, {"time": 2413, "annotation": {"number": 64, "value": 127}, "group": "control_change"}, {"time": 2414, "annotation": {"number": 64, "value": 127}, "group": "control_change"}, {"time": 2430, "annotation": {"number": 64, "value": 38}, "group": "control_change"}, {"time": 2430, "annotation": {"number": 64, "value": 0}, "group": "control_change"}, {"time": 2461, "annotation": {"number": 64, "value": 74}, "group": "control_change"}, {"time": 2461, "annotation": {"number": 64, "value": 127}, "group": "control_change"}]}]}