{"metadata": {"schema_version": "0.2", "title": "None", "source_filename": "273.mid", "source_format": "midi"}, "resolution": 12, "tempos": [{"time": 0, "qpm": 74.000074000074}], "time_signatures": [{"time": 0, "numerator": 4, "denominator": 4}], "tracks": [{"program": 0, "is_drum": false, "name": "MELODY", "notes": [{"time": 434, "pitch": 69, "duration": 6, "velocity": 107}, {"time": 440, "pitch": 69, "duration": 3, "velocity": 104}, {"time": 443, "pitch": 69, "duration": 3, "velocity": 93}, {"time": 446, "pitch": 72, "duration": 6, "velocity": 104}, {"time": 452, "pitch": 69, "duration": 6, "velocity": 102}, {"time": 458, "pitch": 67, "duration": 12, "velocity": 100}, {"time": 470, "pitch": 65, "duration": 6, "velocity": 98}, {"time": 476, "pitch": 67, "duration": 6, "velocity": 108}, {"time": 482, "pitch": 65, "duration": 6, "velocity": 113}, {"time": 488, "pitch": 62, "duration": 42, "velocity": 113}, {"time": 530, "pitch": 69, "duration": 6, "velocity": 114}, {"time": 536, "pitch": 69, "duration": 6, "velocity": 113}, {"time": 542, "pitch": 69, "duration": 6, "velocity": 114}, {"time": 548, "pitch": 72, "duration": 6, "velocity": 108}, {"time": 554, "pitch": 74, "duration": 6, "velocity": 116}, {"time": 560, "pitch": 77, "duration": 12, "velocity": 113}, {"time": 572, "pitch": 74, "duration": 7, "velocity": 114}, {"time": 578, "pitch": 72, "duration": 6, "velocity": 108}, {"time": 584, "pitch": 69, "duration": 42, "velocity": 107}, {"time": 626, "pitch": 69, "duration": 6, "velocity": 114}, {"time": 632, "pitch": 74, "duration": 12, "velocity": 110}, {"time": 644, "pitch": 77, "duration": 6, "velocity": 108}, {"time": 650, "pitch": 74, "duration": 12, "velocity": 110}, {"time": 662, "pitch": 72, "duration": 6, "velocity": 107}, {"time": 668, "pitch": 69, "duration": 6, "velocity": 96}, {"time": 674, "pitch": 65, "duration": 9, "velocity": 96}, {"time": 683, "pitch": 67, "duration": 3, "velocity": 100}, {"time": 686, "pitch": 69, "duration": 6, "velocity": 114}, {"time": 692, "pitch": 67, "duration": 6, "velocity": 100}, {"time": 698, "pitch": 67, "duration": 24, "velocity": 107}, {"time": 722, "pitch": 67, "duration": 9, "velocity": 107}, {"time": 731, "pitch": 69, "duration": 3, "velocity": 104}, {"time": 734, "pitch": 72, "duration": 6, "velocity": 107}, {"time": 740, "pitch": 69, "duration": 6, "velocity": 107}, {"time": 746, "pitch": 67, "duration": 6, "velocity": 108}, {"time": 752, "pitch": 67, "duration": 4, "velocity": 96}, {"time": 755, "pitch": 69, "duration": 3, "velocity": 92}, {"time": 758, "pitch": 65, "duration": 6, "velocity": 100}, {"time": 764, "pitch": 67, "duration": 4, "velocity": 87}, {"time": 767, "pitch": 65, "duration": 3, "velocity": 91}, {"time": 770, "pitch": 62, "duration": 48, "velocity": 94}, {"time": 818, "pitch": 69, "duration": 6, "velocity": 107}, {"time": 824, "pitch": 69, "duration": 3, "velocity": 104}, {"time": 827, "pitch": 69, "duration": 3, "velocity": 93}, {"time": 830, "pitch": 72, "duration": 6, "velocity": 104}, {"time": 836, "pitch": 69, "duration": 6, "velocity": 102}, {"time": 842, "pitch": 67, "duration": 12, "velocity": 100}, {"time": 854, "pitch": 65, "duration": 6, "velocity": 98}, {"time": 860, "pitch": 67, "duration": 6, "velocity": 108}, {"time": 866, "pitch": 65, "duration": 6, "velocity": 113}, {"time": 872, "pitch": 62, "duration": 42, "velocity": 113}, {"time": 914, "pitch": 69, "duration": 6, "velocity": 114}, {"time": 920, "pitch": 69, "duration": 6, "velocity": 113}, {"time": 926, "pitch": 69, "duration": 6, "velocity": 114}, {"time": 932, "pitch": 72, "duration": 6, "velocity": 108}, {"time": 938, "pitch": 74, "duration": 6, "velocity": 116}, {"time": 944, "pitch": 77, "duration": 12, "velocity": 113}, {"time": 956, "pitch": 74, "duration": 7, "velocity": 114}, {"time": 962, "pitch": 72, "duration": 6, "velocity": 108}, {"time": 968, "pitch": 69, "duration": 42, "velocity": 107}, {"time": 1010, "pitch": 69, "duration": 6, "velocity": 114}, {"time": 1016, "pitch": 74, "duration": 12, "velocity": 110}, {"time": 1028, "pitch": 77, "duration": 6, "velocity": 108}, {"time": 1034, "pitch": 74, "duration": 12, "velocity": 110}, {"time": 1046, "pitch": 72, "duration": 6, "velocity": 107}, {"time": 1052, "pitch": 69, "duration": 6, "velocity": 96}, {"time": 1058, "pitch": 65, "duration": 9, "velocity": 96}, {"time": 1067, "pitch": 67, "duration": 3, "velocity": 100}, {"time": 1070, "pitch": 69, "duration": 6, "velocity": 114}, {"time": 1076, "pitch": 67, "duration": 6, "velocity": 100}, {"time": 1082, "pitch": 67, "duration": 24, "velocity": 107}, {"time": 1106, "pitch": 67, "duration": 9, "velocity": 107}, {"time": 1115, "pitch": 69, "duration": 3, "velocity": 104}, {"time": 1118, "pitch": 72, "duration": 6, "velocity": 107}, {"time": 1124, "pitch": 69, "duration": 6, "velocity": 107}, {"time": 1130, "pitch": 67, "duration": 6, "velocity": 108}, {"time": 1136, "pitch": 67, "duration": 4, "velocity": 96}, {"time": 1139, "pitch": 69, "duration": 3, "velocity": 92}, {"time": 1142, "pitch": 65, "duration": 6, "velocity": 100}, {"time": 1148, "pitch": 67, "duration": 4, "velocity": 87}, {"time": 1151, "pitch": 65, "duration": 3, "velocity": 91}, {"time": 1154, "pitch": 62, "duration": 48, "velocity": 94}, {"time": 1202, "pitch": 74, "duration": 9, "velocity": 116}, {"time": 1211, "pitch": 74, "duration": 9, "velocity": 116}, {"time": 1220, "pitch": 69, "duration": 6, "velocity": 98}, {"time": 1226, "pitch": 72, "duration": 6, "velocity": 104}, {"time": 1232, "pitch": 74, "duration": 6, "velocity": 110}, {"time": 1238, "pitch": 79, "duration": 6, "velocity": 114}, {"time": 1244, "pitch": 77, "duration": 6, "velocity": 108}, {"time": 1250, "pitch": 74, "duration": 48, "velocity": 108}, {"time": 1298, "pitch": 74, "duration": 9, "velocity": 104}, {"time": 1307, "pitch": 74, "duration": 3, "velocity": 96}, {"time": 1310, "pitch": 74, "duration": 6, "velocity": 102}, {"time": 1316, "pitch": 77, "duration": 6, "velocity": 113}, {"time": 1322, "pitch": 74, "duration": 6, "velocity": 110}, {"time": 1328, "pitch": 74, "duration": 6, "velocity": 113}, {"time": 1334, "pitch": 72, "duration": 6, "velocity": 107}, {"time": 1340, "pitch": 74, "duration": 6, "velocity": 110}, {"time": 1346, "pitch": 69, "duration": 4, "velocity": 98}, {"time": 1349, "pitch": 72, "duration": 3, "velocity": 88}, {"time": 1352, "pitch": 69, "duration": 42, "velocity": 89}, {"time": 1394, "pitch": 69, "duration": 6, "velocity": 114}, {"time": 1400, "pitch": 74, "duration": 12, "velocity": 113}, {"time": 1412, "pitch": 77, "duration": 6, "velocity": 110}, {"time": 1418, "pitch": 74, "duration": 6, "velocity": 110}, {"time": 1424, "pitch": 77, "duration": 4, "velocity": 87}, {"time": 1427, "pitch": 74, "duration": 4, "velocity": 84}, {"time": 1430, "pitch": 72, "duration": 6, "velocity": 89}, {"time": 1436, "pitch": 69, "duration": 3, "velocity": 102}, {"time": 1439, "pitch": 67, "duration": 3, "velocity": 87}, {"time": 1442, "pitch": 65, "duration": 9, "velocity": 98}, {"time": 1451, "pitch": 67, "duration": 4, "velocity": 88}, {"time": 1454, "pitch": 69, "duration": 6, "velocity": 100}, {"time": 1460, "pitch": 67, "duration": 6, "velocity": 100}, {"time": 1466, "pitch": 67, "duration": 24, "velocity": 107}, {"time": 1490, "pitch": 67, "duration": 9, "velocity": 107}, {"time": 1499, "pitch": 69, "duration": 3, "velocity": 102}, {"time": 1502, "pitch": 72, "duration": 6, "velocity": 102}, {"time": 1508, "pitch": 69, "duration": 6, "velocity": 108}, {"time": 1514, "pitch": 67, "duration": 6, "velocity": 108}, {"time": 1520, "pitch": 67, "duration": 3, "velocity": 85}, {"time": 1523, "pitch": 69, "duration": 3, "velocity": 86}, {"time": 1526, "pitch": 65, "duration": 6, "velocity": 88}, {"time": 1532, "pitch": 67, "duration": 3, "velocity": 89}, {"time": 1535, "pitch": 65, "duration": 3, "velocity": 84}, {"time": 1538, "pitch": 62, "duration": 48, "velocity": 89}, {"time": 1586, "pitch": 74, "duration": 9, "velocity": 116}, {"time": 1595, "pitch": 74, "duration": 9, "velocity": 116}, {"time": 1604, "pitch": 69, "duration": 6, "velocity": 98}, {"time": 1610, "pitch": 72, "duration": 6, "velocity": 104}, {"time": 1616, "pitch": 74, "duration": 6, "velocity": 110}, {"time": 1622, "pitch": 79, "duration": 6, "velocity": 114}, {"time": 1628, "pitch": 77, "duration": 6, "velocity": 108}, {"time": 1634, "pitch": 74, "duration": 48, "velocity": 108}, {"time": 1682, "pitch": 74, "duration": 9, "velocity": 104}, {"time": 1691, "pitch": 74, "duration": 3, "velocity": 96}, {"time": 1694, "pitch": 74, "duration": 6, "velocity": 102}, {"time": 1700, "pitch": 77, "duration": 6, "velocity": 113}, {"time": 1706, "pitch": 74, "duration": 6, "velocity": 110}, {"time": 1712, "pitch": 74, "duration": 6, "velocity": 113}, {"time": 1718, "pitch": 72, "duration": 6, "velocity": 107}, {"time": 1724, "pitch": 74, "duration": 6, "velocity": 110}, {"time": 1730, "pitch": 69, "duration": 4, "velocity": 98}, {"time": 1733, "pitch": 72, "duration": 3, "velocity": 88}, {"time": 1736, "pitch": 69, "duration": 42, "velocity": 89}, {"time": 1778, "pitch": 69, "duration": 6, "velocity": 114}, {"time": 1784, "pitch": 74, "duration": 12, "velocity": 113}, {"time": 1796, "pitch": 77, "duration": 6, "velocity": 110}, {"time": 1802, "pitch": 74, "duration": 6, "velocity": 110}, {"time": 1808, "pitch": 77, "duration": 4, "velocity": 87}, {"time": 1811, "pitch": 74, "duration": 4, "velocity": 84}, {"time": 1814, "pitch": 72, "duration": 6, "velocity": 89}, {"time": 1820, "pitch": 69, "duration": 3, "velocity": 102}, {"time": 1823, "pitch": 67, "duration": 3, "velocity": 87}, {"time": 1826, "pitch": 65, "duration": 9, "velocity": 98}, {"time": 1835, "pitch": 67, "duration": 4, "velocity": 88}, {"time": 1838, "pitch": 69, "duration": 6, "velocity": 100}, {"time": 1844, "pitch": 67, "duration": 6, "velocity": 100}, {"time": 1850, "pitch": 67, "duration": 24, "velocity": 107}, {"time": 1874, "pitch": 67, "duration": 9, "velocity": 107}, {"time": 1883, "pitch": 69, "duration": 3, "velocity": 102}, {"time": 1886, "pitch": 72, "duration": 6, "velocity": 102}, {"time": 1892, "pitch": 69, "duration": 6, "velocity": 108}, {"time": 1898, "pitch": 67, "duration": 6, "velocity": 108}, {"time": 1904, "pitch": 67, "duration": 3, "velocity": 85}, {"time": 1907, "pitch": 69, "duration": 3, "velocity": 86}, {"time": 1910, "pitch": 65, "duration": 6, "velocity": 88}, {"time": 1916, "pitch": 67, "duration": 3, "velocity": 89}, {"time": 1919, "pitch": 65, "duration": 3, "velocity": 84}, {"time": 1922, "pitch": 62, "duration": 48, "velocity": 89}, {"time": 1970, "pitch": 67, "duration": 9, "velocity": 104}, {"time": 1979, "pitch": 65, "duration": 4, "velocity": 108}, {"time": 1982, "pitch": 67, "duration": 6, "velocity": 108}, {"time": 1988, "pitch": 69, "duration": 6, "velocity": 108}, {"time": 1994, "pitch": 72, "duration": 6, "velocity": 110}, {"time": 2000, "pitch": 72, "duration": 6, "velocity": 108}, {"time": 2006, "pitch": 69, "duration": 6, "velocity": 96}, {"time": 2012, "pitch": 72, "duration": 6, "velocity": 104}, {"time": 2018, "pitch": 74, "duration": 48, "velocity": 110}, {"time": 2450, "pitch": 69, "duration": 6, "velocity": 107}, {"time": 2456, "pitch": 69, "duration": 3, "velocity": 104}, {"time": 2459, "pitch": 69, "duration": 3, "velocity": 93}, {"time": 2462, "pitch": 72, "duration": 6, "velocity": 104}, {"time": 2468, "pitch": 69, "duration": 6, "velocity": 102}, {"time": 2474, "pitch": 67, "duration": 12, "velocity": 100}, {"time": 2486, "pitch": 65, "duration": 6, "velocity": 98}, {"time": 2492, "pitch": 67, "duration": 6, "velocity": 108}, {"time": 2498, "pitch": 65, "duration": 6, "velocity": 113}, {"time": 2504, "pitch": 62, "duration": 42, "velocity": 113}, {"time": 2546, "pitch": 69, "duration": 6, "velocity": 114}, {"time": 2552, "pitch": 69, "duration": 6, "velocity": 113}, {"time": 2558, "pitch": 69, "duration": 6, "velocity": 114}, {"time": 2564, "pitch": 72, "duration": 6, "velocity": 108}, {"time": 2570, "pitch": 74, "duration": 6, "velocity": 116}, {"time": 2576, "pitch": 77, "duration": 12, "velocity": 113}, {"time": 2588, "pitch": 74, "duration": 7, "velocity": 114}, {"time": 2594, "pitch": 72, "duration": 6, "velocity": 108}, {"time": 2600, "pitch": 69, "duration": 42, "velocity": 107}, {"time": 2642, "pitch": 69, "duration": 6, "velocity": 114}, {"time": 2648, "pitch": 74, "duration": 12, "velocity": 110}, {"time": 2660, "pitch": 77, "duration": 6, "velocity": 108}, {"time": 2666, "pitch": 74, "duration": 12, "velocity": 110}, {"time": 2678, "pitch": 72, "duration": 6, "velocity": 107}, {"time": 2684, "pitch": 69, "duration": 6, "velocity": 96}, {"time": 2690, "pitch": 65, "duration": 9, "velocity": 96}, {"time": 2699, "pitch": 67, "duration": 3, "velocity": 100}, {"time": 2702, "pitch": 69, "duration": 6, "velocity": 114}, {"time": 2708, "pitch": 67, "duration": 6, "velocity": 100}, {"time": 2714, "pitch": 67, "duration": 24, "velocity": 107}, {"time": 2738, "pitch": 67, "duration": 9, "velocity": 107}, {"time": 2747, "pitch": 69, "duration": 3, "velocity": 104}, {"time": 2750, "pitch": 72, "duration": 6, "velocity": 107}, {"time": 2756, "pitch": 69, "duration": 6, "velocity": 107}, {"time": 2762, "pitch": 67, "duration": 6, "velocity": 108}, {"time": 2768, "pitch": 67, "duration": 4, "velocity": 96}, {"time": 2771, "pitch": 69, "duration": 3, "velocity": 92}, {"time": 2774, "pitch": 65, "duration": 6, "velocity": 100}, {"time": 2780, "pitch": 67, "duration": 4, "velocity": 87}, {"time": 2783, "pitch": 65, "duration": 3, "velocity": 91}, {"time": 2786, "pitch": 62, "duration": 48, "velocity": 94}, {"time": 2834, "pitch": 74, "duration": 9, "velocity": 116}, {"time": 2843, "pitch": 74, "duration": 9, "velocity": 116}, {"time": 2852, "pitch": 69, "duration": 6, "velocity": 98}, {"time": 2858, "pitch": 72, "duration": 6, "velocity": 104}, {"time": 2864, "pitch": 74, "duration": 6, "velocity": 110}, {"time": 2870, "pitch": 79, "duration": 6, "velocity": 114}, {"time": 2876, "pitch": 77, "duration": 6, "velocity": 108}, {"time": 2882, "pitch": 74, "duration": 48, "velocity": 108}, {"time": 2930, "pitch": 74, "duration": 9, "velocity": 104}, {"time": 2939, "pitch": 74, "duration": 3, "velocity": 96}, {"time": 2942, "pitch": 74, "duration": 6, "velocity": 102}, {"time": 2948, "pitch": 77, "duration": 6, "velocity": 113}, {"time": 2954, "pitch": 74, "duration": 6, "velocity": 110}, {"time": 2960, "pitch": 74, "duration": 6, "velocity": 113}, {"time": 2966, "pitch": 72, "duration": 6, "velocity": 107}, {"time": 2972, "pitch": 74, "duration": 6, "velocity": 110}, {"time": 2978, "pitch": 69, "duration": 4, "velocity": 98}, {"time": 2981, "pitch": 72, "duration": 3, "velocity": 88}, {"time": 2984, "pitch": 69, "duration": 42, "velocity": 89}, {"time": 3026, "pitch": 69, "duration": 6, "velocity": 114}, {"time": 3032, "pitch": 74, "duration": 12, "velocity": 113}, {"time": 3044, "pitch": 77, "duration": 6, "velocity": 110}, {"time": 3050, "pitch": 74, "duration": 6, "velocity": 110}, {"time": 3056, "pitch": 77, "duration": 4, "velocity": 87}, {"time": 3059, "pitch": 74, "duration": 4, "velocity": 84}, {"time": 3062, "pitch": 72, "duration": 6, "velocity": 89}, {"time": 3068, "pitch": 69, "duration": 3, "velocity": 102}, {"time": 3071, "pitch": 67, "duration": 3, "velocity": 87}, {"time": 3074, "pitch": 65, "duration": 9, "velocity": 98}, {"time": 3083, "pitch": 67, "duration": 4, "velocity": 88}, {"time": 3086, "pitch": 69, "duration": 6, "velocity": 100}, {"time": 3092, "pitch": 67, "duration": 6, "velocity": 100}, {"time": 3098, "pitch": 67, "duration": 24, "velocity": 107}, {"time": 3122, "pitch": 67, "duration": 9, "velocity": 107}, {"time": 3131, "pitch": 69, "duration": 3, "velocity": 102}, {"time": 3134, "pitch": 72, "duration": 6, "velocity": 102}, {"time": 3140, "pitch": 69, "duration": 6, "velocity": 108}, {"time": 3146, "pitch": 67, "duration": 6, "velocity": 108}, {"time": 3152, "pitch": 67, "duration": 3, "velocity": 85}, {"time": 3155, "pitch": 69, "duration": 3, "velocity": 86}, {"time": 3158, "pitch": 65, "duration": 6, "velocity": 88}, {"time": 3164, "pitch": 67, "duration": 3, "velocity": 89}, {"time": 3167, "pitch": 65, "duration": 3, "velocity": 84}, {"time": 3170, "pitch": 62, "duration": 48, "velocity": 89}, {"time": 3218, "pitch": 74, "duration": 9, "velocity": 116}, {"time": 3227, "pitch": 74, "duration": 9, "velocity": 116}, {"time": 3236, "pitch": 69, "duration": 6, "velocity": 98}, {"time": 3242, "pitch": 72, "duration": 6, "velocity": 104}, {"time": 3248, "pitch": 74, "duration": 6, "velocity": 110}, {"time": 3254, "pitch": 79, "duration": 6, "velocity": 114}, {"time": 3260, "pitch": 77, "duration": 6, "velocity": 108}, {"time": 3266, "pitch": 74, "duration": 48, "velocity": 108}, {"time": 3314, "pitch": 74, "duration": 9, "velocity": 104}, {"time": 3323, "pitch": 74, "duration": 3, "velocity": 96}, {"time": 3326, "pitch": 74, "duration": 6, "velocity": 102}, {"time": 3332, "pitch": 77, "duration": 6, "velocity": 113}, {"time": 3338, "pitch": 74, "duration": 6, "velocity": 110}, {"time": 3344, "pitch": 74, "duration": 6, "velocity": 113}, {"time": 3350, "pitch": 72, "duration": 6, "velocity": 107}, {"time": 3356, "pitch": 74, "duration": 6, "velocity": 110}, {"time": 3362, "pitch": 69, "duration": 4, "velocity": 98}, {"time": 3365, "pitch": 72, "duration": 3, "velocity": 88}, {"time": 3368, "pitch": 69, "duration": 42, "velocity": 89}, {"time": 3410, "pitch": 69, "duration": 6, "velocity": 114}, {"time": 3416, "pitch": 74, "duration": 12, "velocity": 113}, {"time": 3428, "pitch": 77, "duration": 6, "velocity": 110}, {"time": 3434, "pitch": 74, "duration": 6, "velocity": 110}, {"time": 3440, "pitch": 77, "duration": 4, "velocity": 87}, {"time": 3443, "pitch": 74, "duration": 4, "velocity": 84}, {"time": 3446, "pitch": 72, "duration": 6, "velocity": 89}, {"time": 3452, "pitch": 69, "duration": 3, "velocity": 102}, {"time": 3455, "pitch": 67, "duration": 3, "velocity": 87}, {"time": 3458, "pitch": 65, "duration": 9, "velocity": 98}, {"time": 3467, "pitch": 67, "duration": 4, "velocity": 88}, {"time": 3470, "pitch": 69, "duration": 6, "velocity": 100}, {"time": 3476, "pitch": 67, "duration": 6, "velocity": 100}, {"time": 3482, "pitch": 67, "duration": 24, "velocity": 107}, {"time": 3506, "pitch": 67, "duration": 9, "velocity": 107}, {"time": 3515, "pitch": 69, "duration": 3, "velocity": 102}, {"time": 3518, "pitch": 72, "duration": 6, "velocity": 102}, {"time": 3524, "pitch": 69, "duration": 6, "velocity": 108}, {"time": 3530, "pitch": 67, "duration": 6, "velocity": 108}, {"time": 3536, "pitch": 67, "duration": 3, "velocity": 85}, {"time": 3539, "pitch": 69, "duration": 3, "velocity": 86}, {"time": 3542, "pitch": 65, "duration": 6, "velocity": 88}, {"time": 3548, "pitch": 67, "duration": 3, "velocity": 89}, {"time": 3551, "pitch": 65, "duration": 3, "velocity": 84}, {"time": 3554, "pitch": 62, "duration": 48, "velocity": 89}, {"time": 3602, "pitch": 67, "duration": 9, "velocity": 104}, {"time": 3611, "pitch": 65, "duration": 4, "velocity": 108}, {"time": 3614, "pitch": 67, "duration": 6, "velocity": 108}, {"time": 3620, "pitch": 69, "duration": 6, "velocity": 108}, {"time": 3626, "pitch": 72, "duration": 6, "velocity": 110}, {"time": 3632, "pitch": 72, "duration": 6, "velocity": 108}, {"time": 3638, "pitch": 69, "duration": 6, "velocity": 96}, {"time": 3644, "pitch": 72, "duration": 6, "velocity": 104}, {"time": 3650, "pitch": 74, "duration": 48, "velocity": 110}, {"time": 3698, "pitch": 67, "duration": 9, "velocity": 100}, {"time": 3707, "pitch": 65, "duration": 4, "velocity": 84}, {"time": 3710, "pitch": 67, "duration": 6, "velocity": 91}, {"time": 3716, "pitch": 69, "duration": 6, "velocity": 88}, {"time": 3722, "pitch": 72, "duration": 5, "velocity": 83}, {"time": 3729, "pitch": 72, "duration": 6, "velocity": 86}, {"time": 3736, "pitch": 69, "duration": 6, "velocity": 84}, {"time": 3743, "pitch": 72, "duration": 13, "velocity": 87}, {"time": 3755, "pitch": 74, "duration": 20, "velocity": 87}]}, {"program": 0, "is_drum": false, "name": "BRIDGE", "notes": [{"time": 8, "pitch": 69, "duration": 6, "velocity": 108}, {"time": 14, "pitch": 67, "duration": 5, "velocity": 100}, {"time": 20, "pitch": 65, "duration": 5, "velocity": 93}, {"time": 26, "pitch": 67, "duration": 7, "velocity": 94}, {"time": 32, "pitch": 65, "duration": 6, "velocity": 89}, {"time": 38, "pitch": 62, "duration": 4, "velocity": 89}, {"time": 44, "pitch": 60, "duration": 4, "velocity": 89}, {"time": 50, "pitch": 69, "duration": 6, "velocity": 110}, {"time": 56, "pitch": 69, "duration": 6, "velocity": 113}, {"time": 62, "pitch": 72, "duration": 6, "velocity": 113}, {"time": 68, "pitch": 69, "duration": 6, "velocity": 114}, {"time": 74, "pitch": 67, "duration": 12, "velocity": 117}, {"time": 86, "pitch": 65, "duration": 6, "velocity": 110}, {"time": 92, "pitch": 67, "duration": 6, "velocity": 113}, {"time": 98, "pitch": 65, "duration": 6, "velocity": 113}, {"time": 104, "pitch": 62, "duration": 42, "velocity": 110}, {"time": 146, "pitch": 69, "duration": 6, "velocity": 113}, {"time": 152, "pitch": 69, "duration": 12, "velocity": 113}, {"time": 164, "pitch": 72, "duration": 6, "velocity": 108}, {"time": 170, "pitch": 74, "duration": 9, "velocity": 117}, {"time": 179, "pitch": 77, "duration": 3, "velocity": 104}, {"time": 182, "pitch": 74, "duration": 3, "velocity": 102}, {"time": 185, "pitch": 74, "duration": 3, "velocity": 96}, {"time": 188, "pitch": 72, "duration": 6, "velocity": 102}, {"time": 194, "pitch": 72, "duration": 6, "velocity": 104}, {"time": 200, "pitch": 69, "duration": 42, "velocity": 100}, {"time": 206, "pitch": 79, "duration": 8, "velocity": 116}, {"time": 218, "pitch": 79, "duration": 10, "velocity": 118}, {"time": 230, "pitch": 81, "duration": 9, "velocity": 114}, {"time": 242, "pitch": 69, "duration": 6, "velocity": 117}, {"time": 248, "pitch": 74, "duration": 6, "velocity": 113}, {"time": 254, "pitch": 74, "duration": 6, "velocity": 107}, {"time": 260, "pitch": 77, "duration": 6, "velocity": 104}, {"time": 266, "pitch": 74, "duration": 12, "velocity": 98}, {"time": 278, "pitch": 72, "duration": 6, "velocity": 113}, {"time": 284, "pitch": 69, "duration": 6, "velocity": 108}, {"time": 290, "pitch": 65, "duration": 7, "velocity": 113}, {"time": 296, "pitch": 67, "duration": 6, "velocity": 100}, {"time": 302, "pitch": 69, "duration": 6, "velocity": 107}, {"time": 308, "pitch": 67, "duration": 6, "velocity": 107}, {"time": 314, "pitch": 67, "duration": 24, "velocity": 114}, {"time": 338, "pitch": 67, "duration": 6, "velocity": 114}, {"time": 344, "pitch": 69, "duration": 6, "velocity": 107}, {"time": 350, "pitch": 72, "duration": 6, "velocity": 110}, {"time": 356, "pitch": 69, "duration": 6, "velocity": 114}, {"time": 362, "pitch": 67, "duration": 12, "velocity": 113}, {"time": 374, "pitch": 65, "duration": 6, "velocity": 113}, {"time": 380, "pitch": 67, "duration": 6, "velocity": 108}, {"time": 386, "pitch": 65, "duration": 6, "velocity": 114}, {"time": 392, "pitch": 62, "duration": 28, "velocity": 110}, {"time": 512, "pitch": 69, "duration": 4, "velocity": 93}, {"time": 518, "pitch": 74, "duration": 4, "velocity": 114}, {"time": 524, "pitch": 77, "duration": 4, "velocity": 110}, {"time": 530, "pitch": 81, "duration": 3, "velocity": 114}, {"time": 608, "pitch": 65, "duration": 5, "velocity": 102}, {"time": 614, "pitch": 69, "duration": 5, "velocity": 114}, {"time": 620, "pitch": 72, "duration": 6, "velocity": 110}, {"time": 626, "pitch": 69, "duration": 5, "velocity": 108}, {"time": 794, "pitch": 81, "duration": 5, "velocity": 113}, {"time": 800, "pitch": 77, "duration": 4, "velocity": 104}, {"time": 803, "pitch": 76, "duration": 3, "velocity": 96}, {"time": 806, "pitch": 74, "duration": 4, "velocity": 113}, {"time": 812, "pitch": 72, "duration": 5, "velocity": 108}, {"time": 818, "pitch": 74, "duration": 4, "velocity": 110}, {"time": 890, "pitch": 67, "duration": 11, "velocity": 116}, {"time": 902, "pitch": 65, "duration": 5, "velocity": 113}, {"time": 908, "pitch": 67, "duration": 6, "velocity": 117}, {"time": 914, "pitch": 65, "duration": 6, "velocity": 108}, {"time": 920, "pitch": 62, "duration": 7, "velocity": 114}, {"time": 986, "pitch": 74, "duration": 12, "velocity": 116}, {"time": 998, "pitch": 72, "duration": 7, "velocity": 107}, {"time": 1004, "pitch": 74, "duration": 6, "velocity": 107}, {"time": 1010, "pitch": 72, "duration": 6, "velocity": 107}, {"time": 1016, "pitch": 69, "duration": 7, "velocity": 113}, {"time": 1178, "pitch": 62, "duration": 9, "velocity": 108}, {"time": 1187, "pitch": 65, "duration": 3, "velocity": 89}, {"time": 1190, "pitch": 67, "duration": 4, "velocity": 96}, {"time": 1193, "pitch": 69, "duration": 3, "velocity": 102}, {"time": 1196, "pitch": 72, "duration": 2, "velocity": 91}, {"time": 1199, "pitch": 74, "duration": 2, "velocity": 104}, {"time": 1202, "pitch": 74, "duration": 7, "velocity": 116}, {"time": 1274, "pitch": 74, "duration": 7, "velocity": 116}, {"time": 1280, "pitch": 72, "duration": 6, "velocity": 110}, {"time": 1286, "pitch": 69, "duration": 5, "velocity": 113}, {"time": 1292, "pitch": 72, "duration": 6, "velocity": 113}, {"time": 1298, "pitch": 74, "duration": 5, "velocity": 113}, {"time": 1346, "pitch": 81, "duration": 19, "velocity": 113}, {"time": 1370, "pitch": 81, "duration": 4, "velocity": 104}, {"time": 1376, "pitch": 79, "duration": 5, "velocity": 94}, {"time": 1379, "pitch": 77, "duration": 2, "velocity": 88}, {"time": 1382, "pitch": 69, "duration": 5, "velocity": 114}, {"time": 1388, "pitch": 72, "duration": 6, "velocity": 102}, {"time": 1394, "pitch": 74, "duration": 4, "velocity": 107}, {"time": 1472, "pitch": 72, "duration": 5, "velocity": 104}, {"time": 1478, "pitch": 79, "duration": 4, "velocity": 107}, {"time": 1484, "pitch": 76, "duration": 6, "velocity": 110}, {"time": 1490, "pitch": 72, "duration": 5, "velocity": 96}, {"time": 1562, "pitch": 65, "duration": 7, "velocity": 113}, {"time": 1568, "pitch": 67, "duration": 6, "velocity": 100}, {"time": 1574, "pitch": 69, "duration": 6, "velocity": 108}, {"time": 1580, "pitch": 72, "duration": 6, "velocity": 114}, {"time": 1586, "pitch": 74, "duration": 8, "velocity": 114}, {"time": 1658, "pitch": 74, "duration": 6, "velocity": 114}, {"time": 1664, "pitch": 72, "duration": 6, "velocity": 104}, {"time": 1670, "pitch": 69, "duration": 6, "velocity": 114}, {"time": 1676, "pitch": 72, "duration": 7, "velocity": 107}, {"time": 1682, "pitch": 74, "duration": 8, "velocity": 114}, {"time": 1730, "pitch": 81, "duration": 4, "velocity": 104}, {"time": 1754, "pitch": 81, "duration": 4, "velocity": 104}, {"time": 1760, "pitch": 81, "duration": 5, "velocity": 94}, {"time": 1763, "pitch": 79, "duration": 4, "velocity": 89}, {"time": 1766, "pitch": 69, "duration": 6, "velocity": 107}, {"time": 1772, "pitch": 72, "duration": 6, "velocity": 91}, {"time": 1778, "pitch": 74, "duration": 7, "velocity": 90}, {"time": 1946, "pitch": 65, "duration": 7, "velocity": 110}, {"time": 1952, "pitch": 67, "duration": 6, "velocity": 94}, {"time": 1958, "pitch": 69, "duration": 6, "velocity": 89}, {"time": 1964, "pitch": 72, "duration": 6, "velocity": 91}, {"time": 1970, "pitch": 74, "duration": 6, "velocity": 90}, {"time": 2066, "pitch": 69, "duration": 4, "velocity": 110}, {"time": 2072, "pitch": 69, "duration": 5, "velocity": 113}, {"time": 2078, "pitch": 72, "duration": 4, "velocity": 113}, {"time": 2084, "pitch": 69, "duration": 6, "velocity": 114}, {"time": 2090, "pitch": 67, "duration": 7, "velocity": 117}, {"time": 2102, "pitch": 65, "duration": 5, "velocity": 110}, {"time": 2108, "pitch": 67, "duration": 5, "velocity": 113}, {"time": 2114, "pitch": 65, "duration": 6, "velocity": 113}, {"time": 2120, "pitch": 62, "duration": 9, "velocity": 110}, {"time": 2162, "pitch": 69, "duration": 4, "velocity": 113}, {"time": 2168, "pitch": 69, "duration": 8, "velocity": 113}, {"time": 2180, "pitch": 72, "duration": 4, "velocity": 108}, {"time": 2186, "pitch": 74, "duration": 5, "velocity": 117}, {"time": 2195, "pitch": 77, "duration": 3, "velocity": 104}, {"time": 2198, "pitch": 74, "duration": 2, "velocity": 102}, {"time": 2201, "pitch": 74, "duration": 2, "velocity": 96}, {"time": 2204, "pitch": 72, "duration": 4, "velocity": 102}, {"time": 2210, "pitch": 72, "duration": 5, "velocity": 104}, {"time": 2216, "pitch": 69, "duration": 6, "velocity": 100}, {"time": 2258, "pitch": 69, "duration": 4, "velocity": 117}, {"time": 2264, "pitch": 74, "duration": 4, "velocity": 113}, {"time": 2270, "pitch": 74, "duration": 3, "velocity": 107}, {"time": 2276, "pitch": 77, "duration": 4, "velocity": 104}, {"time": 2282, "pitch": 74, "duration": 4, "velocity": 98}, {"time": 2294, "pitch": 72, "duration": 5, "velocity": 113}, {"time": 2300, "pitch": 69, "duration": 5, "velocity": 108}, {"time": 2306, "pitch": 65, "duration": 7, "velocity": 113}, {"time": 2312, "pitch": 67, "duration": 5, "velocity": 100}, {"time": 2318, "pitch": 69, "duration": 5, "velocity": 107}, {"time": 2324, "pitch": 67, "duration": 4, "velocity": 107}, {"time": 2330, "pitch": 67, "duration": 6, "velocity": 114}, {"time": 2354, "pitch": 67, "duration": 5, "velocity": 114}, {"time": 2360, "pitch": 69, "duration": 5, "velocity": 107}, {"time": 2366, "pitch": 72, "duration": 5, "velocity": 110}, {"time": 2372, "pitch": 69, "duration": 6, "velocity": 114}, {"time": 2378, "pitch": 67, "duration": 5, "velocity": 113}, {"time": 2390, "pitch": 65, "duration": 5, "velocity": 113}, {"time": 2396, "pitch": 67, "duration": 5, "velocity": 108}, {"time": 2402, "pitch": 65, "duration": 6, "velocity": 114}, {"time": 2408, "pitch": 62, "duration": 20, "velocity": 110}, {"time": 2522, "pitch": 67, "duration": 11, "velocity": 116}, {"time": 2534, "pitch": 65, "duration": 5, "velocity": 113}, {"time": 2540, "pitch": 67, "duration": 6, "velocity": 117}, {"time": 2546, "pitch": 65, "duration": 6, "velocity": 108}, {"time": 2552, "pitch": 62, "duration": 7, "velocity": 114}, {"time": 2618, "pitch": 74, "duration": 12, "velocity": 116}, {"time": 2630, "pitch": 72, "duration": 7, "velocity": 107}, {"time": 2636, "pitch": 74, "duration": 6, "velocity": 107}, {"time": 2642, "pitch": 72, "duration": 6, "velocity": 107}, {"time": 2648, "pitch": 69, "duration": 7, "velocity": 113}, {"time": 2810, "pitch": 62, "duration": 9, "velocity": 108}, {"time": 2819, "pitch": 65, "duration": 3, "velocity": 89}, {"time": 2822, "pitch": 67, "duration": 4, "velocity": 96}, {"time": 2825, "pitch": 69, "duration": 3, "velocity": 102}, {"time": 2828, "pitch": 72, "duration": 2, "velocity": 91}, {"time": 2831, "pitch": 74, "duration": 2, "velocity": 104}, {"time": 2834, "pitch": 74, "duration": 7, "velocity": 116}, {"time": 2906, "pitch": 74, "duration": 7, "velocity": 116}, {"time": 2912, "pitch": 72, "duration": 6, "velocity": 110}, {"time": 2918, "pitch": 69, "duration": 5, "velocity": 113}, {"time": 2924, "pitch": 72, "duration": 6, "velocity": 113}, {"time": 2930, "pitch": 74, "duration": 5, "velocity": 113}, {"time": 2978, "pitch": 81, "duration": 19, "velocity": 113}, {"time": 3002, "pitch": 81, "duration": 4, "velocity": 104}, {"time": 3008, "pitch": 79, "duration": 5, "velocity": 94}, {"time": 3011, "pitch": 77, "duration": 2, "velocity": 88}, {"time": 3014, "pitch": 69, "duration": 5, "velocity": 114}, {"time": 3020, "pitch": 72, "duration": 6, "velocity": 102}, {"time": 3026, "pitch": 74, "duration": 4, "velocity": 107}, {"time": 3104, "pitch": 72, "duration": 5, "velocity": 104}, {"time": 3110, "pitch": 79, "duration": 4, "velocity": 107}, {"time": 3116, "pitch": 76, "duration": 6, "velocity": 110}, {"time": 3122, "pitch": 72, "duration": 5, "velocity": 96}, {"time": 3194, "pitch": 65, "duration": 7, "velocity": 113}, {"time": 3200, "pitch": 67, "duration": 6, "velocity": 100}, {"time": 3206, "pitch": 69, "duration": 6, "velocity": 108}, {"time": 3212, "pitch": 72, "duration": 6, "velocity": 114}, {"time": 3218, "pitch": 74, "duration": 8, "velocity": 114}, {"time": 3290, "pitch": 74, "duration": 6, "velocity": 114}, {"time": 3296, "pitch": 72, "duration": 6, "velocity": 104}, {"time": 3302, "pitch": 69, "duration": 6, "velocity": 114}, {"time": 3308, "pitch": 72, "duration": 7, "velocity": 107}, {"time": 3314, "pitch": 74, "duration": 8, "velocity": 114}, {"time": 3362, "pitch": 81, "duration": 4, "velocity": 104}, {"time": 3386, "pitch": 81, "duration": 4, "velocity": 104}, {"time": 3392, "pitch": 81, "duration": 5, "velocity": 94}, {"time": 3395, "pitch": 79, "duration": 4, "velocity": 89}, {"time": 3398, "pitch": 69, "duration": 6, "velocity": 107}, {"time": 3404, "pitch": 72, "duration": 6, "velocity": 91}, {"time": 3410, "pitch": 74, "duration": 7, "velocity": 90}, {"time": 3578, "pitch": 65, "duration": 7, "velocity": 110}, {"time": 3584, "pitch": 67, "duration": 6, "velocity": 94}, {"time": 3590, "pitch": 69, "duration": 6, "velocity": 89}, {"time": 3596, "pitch": 72, "duration": 6, "velocity": 91}, {"time": 3602, "pitch": 74, "duration": 6, "velocity": 90}]}, {"program": 0, "is_drum": false, "name": "PIANO", "notes": [{"time": 8, "pitch": 57, "duration": 34, "velocity": 79}, {"time": 14, "pitch": 62, "duration": 28, "velocity": 81}, {"time": 20, "pitch": 65, "duration": 22, "velocity": 67}, {"time": 26, "pitch": 74, "duration": 17, "velocity": 72}, {"time": 50, "pitch": 50, "duration": 17, "velocity": 90}, {"time": 56, "pitch": 57, "duration": 15, "velocity": 81}, {"time": 62, "pitch": 62, "duration": 6, "velocity": 91}, {"time": 68, "pitch": 65, "duration": 13, "velocity": 88}, {"time": 74, "pitch": 48, "duration": 16, "velocity": 85}, {"time": 80, "pitch": 57, "duration": 10, "velocity": 77}, {"time": 86, "pitch": 62, "duration": 7, "velocity": 88}, {"time": 92, "pitch": 64, "duration": 6, "velocity": 86}, {"time": 98, "pitch": 46, "duration": 19, "velocity": 82}, {"time": 104, "pitch": 53, "duration": 13, "velocity": 71}, {"time": 110, "pitch": 58, "duration": 9, "velocity": 77}, {"time": 122, "pitch": 50, "duration": 19, "velocity": 86}, {"time": 128, "pitch": 57, "duration": 14, "velocity": 71}, {"time": 134, "pitch": 64, "duration": 7, "velocity": 87}, {"time": 140, "pitch": 65, "duration": 12, "velocity": 88}, {"time": 146, "pitch": 50, "duration": 18, "velocity": 85}, {"time": 152, "pitch": 57, "duration": 12, "velocity": 80}, {"time": 158, "pitch": 62, "duration": 7, "velocity": 84}, {"time": 164, "pitch": 65, "duration": 8, "velocity": 87}, {"time": 170, "pitch": 50, "duration": 18, "velocity": 82}, {"time": 176, "pitch": 62, "duration": 18, "velocity": 69}, {"time": 182, "pitch": 65, "duration": 14, "velocity": 76}, {"time": 194, "pitch": 45, "duration": 40, "velocity": 81}, {"time": 200, "pitch": 52, "duration": 34, "velocity": 70}, {"time": 206, "pitch": 60, "duration": 30, "velocity": 82}, {"time": 212, "pitch": 64, "duration": 24, "velocity": 77}, {"time": 218, "pitch": 67, "duration": 16, "velocity": 78}, {"time": 242, "pitch": 50, "duration": 18, "velocity": 87}, {"time": 248, "pitch": 57, "duration": 15, "velocity": 77}, {"time": 254, "pitch": 62, "duration": 9, "velocity": 78}, {"time": 254, "pitch": 65, "duration": 9, "velocity": 84}, {"time": 263, "pitch": 50, "duration": 2, "velocity": 97}, {"time": 266, "pitch": 50, "duration": 17, "velocity": 83}, {"time": 272, "pitch": 57, "duration": 10, "velocity": 77}, {"time": 278, "pitch": 62, "duration": 9, "velocity": 85}, {"time": 278, "pitch": 65, "duration": 9, "velocity": 87}, {"time": 290, "pitch": 41, "duration": 19, "velocity": 87}, {"time": 296, "pitch": 53, "duration": 17, "velocity": 75}, {"time": 302, "pitch": 60, "duration": 12, "velocity": 84}, {"time": 302, "pitch": 65, "duration": 7, "velocity": 86}, {"time": 311, "pitch": 41, "duration": 2, "velocity": 97}, {"time": 314, "pitch": 43, "duration": 19, "velocity": 86}, {"time": 320, "pitch": 50, "duration": 13, "velocity": 80}, {"time": 326, "pitch": 58, "duration": 12, "velocity": 83}, {"time": 326, "pitch": 67, "duration": 13, "velocity": 84}, {"time": 338, "pitch": 46, "duration": 17, "velocity": 83}, {"time": 344, "pitch": 53, "duration": 11, "velocity": 71}, {"time": 350, "pitch": 58, "duration": 6, "velocity": 81}, {"time": 350, "pitch": 62, "duration": 6, "velocity": 82}, {"time": 350, "pitch": 65, "duration": 5, "velocity": 79}, {"time": 359, "pitch": 46, "duration": 2, "velocity": 97}, {"time": 362, "pitch": 48, "duration": 18, "velocity": 90}, {"time": 368, "pitch": 55, "duration": 12, "velocity": 75}, {"time": 374, "pitch": 60, "duration": 13, "velocity": 81}, {"time": 374, "pitch": 64, "duration": 11, "velocity": 84}, {"time": 386, "pitch": 50, "duration": 32, "velocity": 85}, {"time": 392, "pitch": 57, "duration": 25, "velocity": 80}, {"time": 398, "pitch": 64, "duration": 6, "velocity": 78}, {"time": 398, "pitch": 69, "duration": 5, "velocity": 97}, {"time": 404, "pitch": 65, "duration": 16, "velocity": 77}, {"time": 410, "pitch": 62, "duration": 2, "velocity": 71}, {"time": 410, "pitch": 69, "duration": 10, "velocity": 69}, {"time": 412, "pitch": 62, "duration": 8, "velocity": 71}, {"time": 434, "pitch": 50, "duration": 19, "velocity": 104}, {"time": 440, "pitch": 57, "duration": 13, "velocity": 83}, {"time": 446, "pitch": 62, "duration": 6, "velocity": 88}, {"time": 452, "pitch": 65, "duration": 12, "velocity": 93}, {"time": 458, "pitch": 48, "duration": 17, "velocity": 86}, {"time": 464, "pitch": 57, "duration": 11, "velocity": 80}, {"time": 470, "pitch": 60, "duration": 14, "velocity": 86}, {"time": 482, "pitch": 46, "duration": 41, "velocity": 83}, {"time": 488, "pitch": 53, "duration": 34, "velocity": 76}, {"time": 494, "pitch": 58, "duration": 29, "velocity": 79}, {"time": 500, "pitch": 64, "duration": 6, "velocity": 86}, {"time": 506, "pitch": 62, "duration": 30, "velocity": 84}, {"time": 506, "pitch": 65, "duration": 25, "velocity": 82}, {"time": 530, "pitch": 50, "duration": 17, "velocity": 88}, {"time": 536, "pitch": 57, "duration": 11, "velocity": 73}, {"time": 542, "pitch": 62, "duration": 15, "velocity": 78}, {"time": 548, "pitch": 65, "duration": 11, "velocity": 84}, {"time": 554, "pitch": 46, "duration": 19, "velocity": 85}, {"time": 560, "pitch": 58, "duration": 12, "velocity": 71}, {"time": 566, "pitch": 62, "duration": 13, "velocity": 82}, {"time": 566, "pitch": 70, "duration": 7, "velocity": 83}, {"time": 578, "pitch": 45, "duration": 40, "velocity": 80}, {"time": 578, "pitch": 60, "duration": 18, "velocity": 83}, {"time": 578, "pitch": 69, "duration": 17, "velocity": 83}, {"time": 584, "pitch": 52, "duration": 34, "velocity": 64}, {"time": 590, "pitch": 57, "duration": 29, "velocity": 77}, {"time": 596, "pitch": 62, "duration": 6, "velocity": 77}, {"time": 602, "pitch": 60, "duration": 21, "velocity": 71}, {"time": 602, "pitch": 64, "duration": 20, "velocity": 77}, {"time": 602, "pitch": 69, "duration": 20, "velocity": 73}, {"time": 626, "pitch": 50, "duration": 40, "velocity": 87}, {"time": 632, "pitch": 57, "duration": 34, "velocity": 77}, {"time": 638, "pitch": 62, "duration": 34, "velocity": 78}, {"time": 644, "pitch": 69, "duration": 35, "velocity": 81}, {"time": 650, "pitch": 65, "duration": 29, "velocity": 82}, {"time": 674, "pitch": 41, "duration": 17, "velocity": 84}, {"time": 680, "pitch": 53, "duration": 19, "velocity": 71}, {"time": 686, "pitch": 57, "duration": 6, "velocity": 67}, {"time": 692, "pitch": 65, "duration": 6, "velocity": 76}, {"time": 698, "pitch": 48, "duration": 26, "velocity": 76}, {"time": 704, "pitch": 55, "duration": 19, "velocity": 74}, {"time": 710, "pitch": 60, "duration": 13, "velocity": 73}, {"time": 716, "pitch": 62, "duration": 6, "velocity": 76}, {"time": 722, "pitch": 43, "duration": 18, "velocity": 83}, {"time": 728, "pitch": 50, "duration": 13, "velocity": 79}, {"time": 734, "pitch": 58, "duration": 8, "velocity": 77}, {"time": 740, "pitch": 62, "duration": 12, "velocity": 66}, {"time": 746, "pitch": 45, "duration": 19, "velocity": 78}, {"time": 752, "pitch": 52, "duration": 13, "velocity": 65}, {"time": 758, "pitch": 60, "duration": 8, "velocity": 78}, {"time": 764, "pitch": 64, "duration": 11, "velocity": 71}, {"time": 770, "pitch": 50, "duration": 39, "velocity": 86}, {"time": 776, "pitch": 57, "duration": 33, "velocity": 72}, {"time": 782, "pitch": 62, "duration": 25, "velocity": 77}, {"time": 788, "pitch": 67, "duration": 6, "velocity": 70}, {"time": 794, "pitch": 65, "duration": 15, "velocity": 76}, {"time": 818, "pitch": 50, "duration": 19, "velocity": 104}, {"time": 824, "pitch": 57, "duration": 13, "velocity": 83}, {"time": 830, "pitch": 62, "duration": 6, "velocity": 88}, {"time": 836, "pitch": 65, "duration": 12, "velocity": 93}, {"time": 842, "pitch": 48, "duration": 17, "velocity": 86}, {"time": 848, "pitch": 57, "duration": 11, "velocity": 80}, {"time": 854, "pitch": 60, "duration": 14, "velocity": 86}, {"time": 866, "pitch": 46, "duration": 41, "velocity": 83}, {"time": 872, "pitch": 53, "duration": 34, "velocity": 76}, {"time": 878, "pitch": 58, "duration": 29, "velocity": 79}, {"time": 884, "pitch": 64, "duration": 6, "velocity": 86}, {"time": 890, "pitch": 62, "duration": 30, "velocity": 84}, {"time": 890, "pitch": 65, "duration": 25, "velocity": 82}, {"time": 914, "pitch": 50, "duration": 17, "velocity": 88}, {"time": 920, "pitch": 57, "duration": 11, "velocity": 73}, {"time": 926, "pitch": 62, "duration": 15, "velocity": 78}, {"time": 932, "pitch": 65, "duration": 11, "velocity": 84}, {"time": 938, "pitch": 46, "duration": 19, "velocity": 85}, {"time": 944, "pitch": 58, "duration": 12, "velocity": 71}, {"time": 950, "pitch": 62, "duration": 13, "velocity": 82}, {"time": 950, "pitch": 70, "duration": 7, "velocity": 83}, {"time": 962, "pitch": 45, "duration": 40, "velocity": 80}, {"time": 962, "pitch": 60, "duration": 18, "velocity": 83}, {"time": 962, "pitch": 69, "duration": 17, "velocity": 83}, {"time": 968, "pitch": 52, "duration": 34, "velocity": 64}, {"time": 974, "pitch": 57, "duration": 29, "velocity": 77}, {"time": 980, "pitch": 62, "duration": 6, "velocity": 77}, {"time": 986, "pitch": 60, "duration": 21, "velocity": 71}, {"time": 986, "pitch": 64, "duration": 20, "velocity": 77}, {"time": 986, "pitch": 69, "duration": 20, "velocity": 73}, {"time": 1010, "pitch": 50, "duration": 40, "velocity": 87}, {"time": 1016, "pitch": 57, "duration": 34, "velocity": 77}, {"time": 1022, "pitch": 62, "duration": 34, "velocity": 78}, {"time": 1028, "pitch": 69, "duration": 35, "velocity": 81}, {"time": 1034, "pitch": 65, "duration": 29, "velocity": 82}, {"time": 1058, "pitch": 41, "duration": 17, "velocity": 84}, {"time": 1064, "pitch": 53, "duration": 19, "velocity": 71}, {"time": 1070, "pitch": 57, "duration": 6, "velocity": 67}, {"time": 1076, "pitch": 65, "duration": 6, "velocity": 76}, {"time": 1082, "pitch": 48, "duration": 26, "velocity": 76}, {"time": 1088, "pitch": 55, "duration": 19, "velocity": 74}, {"time": 1094, "pitch": 60, "duration": 13, "velocity": 73}, {"time": 1100, "pitch": 62, "duration": 6, "velocity": 76}, {"time": 1106, "pitch": 43, "duration": 18, "velocity": 83}, {"time": 1112, "pitch": 50, "duration": 13, "velocity": 79}, {"time": 1118, "pitch": 58, "duration": 8, "velocity": 77}, {"time": 1124, "pitch": 62, "duration": 12, "velocity": 66}, {"time": 1130, "pitch": 45, "duration": 19, "velocity": 78}, {"time": 1136, "pitch": 52, "duration": 13, "velocity": 65}, {"time": 1142, "pitch": 60, "duration": 8, "velocity": 78}, {"time": 1148, "pitch": 64, "duration": 11, "velocity": 71}, {"time": 1154, "pitch": 50, "duration": 39, "velocity": 86}, {"time": 1160, "pitch": 57, "duration": 33, "velocity": 72}, {"time": 1166, "pitch": 62, "duration": 25, "velocity": 77}, {"time": 1172, "pitch": 67, "duration": 6, "velocity": 70}, {"time": 1178, "pitch": 65, "duration": 15, "velocity": 76}, {"time": 1202, "pitch": 50, "duration": 15, "velocity": 87}, {"time": 1202, "pitch": 62, "duration": 8, "velocity": 86}, {"time": 1202, "pitch": 65, "duration": 8, "velocity": 86}, {"time": 1202, "pitch": 69, "duration": 7, "velocity": 87}, {"time": 1202, "pitch": 77, "duration": 4, "velocity": 87}, {"time": 1208, "pitch": 57, "duration": 12, "velocity": 38}, {"time": 1214, "pitch": 62, "duration": 8, "velocity": 87}, {"time": 1214, "pitch": 65, "duration": 8, "velocity": 88}, {"time": 1214, "pitch": 69, "duration": 7, "velocity": 87}, {"time": 1220, "pitch": 50, "duration": 18, "velocity": 100}, {"time": 1226, "pitch": 62, "duration": 7, "velocity": 86}, {"time": 1226, "pitch": 65, "duration": 7, "velocity": 87}, {"time": 1226, "pitch": 69, "duration": 6, "velocity": 87}, {"time": 1232, "pitch": 57, "duration": 11, "velocity": 64}, {"time": 1238, "pitch": 62, "duration": 5, "velocity": 89}, {"time": 1238, "pitch": 65, "duration": 3, "velocity": 91}, {"time": 1238, "pitch": 69, "duration": 4, "velocity": 89}, {"time": 1244, "pitch": 50, "duration": 6, "velocity": 100}, {"time": 1244, "pitch": 65, "duration": 3, "velocity": 97}, {"time": 1247, "pitch": 69, "duration": 3, "velocity": 97}, {"time": 1250, "pitch": 46, "duration": 30, "velocity": 83}, {"time": 1250, "pitch": 62, "duration": 9, "velocity": 87}, {"time": 1250, "pitch": 65, "duration": 9, "velocity": 89}, {"time": 1250, "pitch": 69, "duration": 9, "velocity": 88}, {"time": 1256, "pitch": 58, "duration": 36, "velocity": 42}, {"time": 1262, "pitch": 62, "duration": 9, "velocity": 84}, {"time": 1262, "pitch": 65, "duration": 9, "velocity": 84}, {"time": 1262, "pitch": 69, "duration": 8, "velocity": 86}, {"time": 1274, "pitch": 62, "duration": 9, "velocity": 85}, {"time": 1274, "pitch": 65, "duration": 9, "velocity": 84}, {"time": 1274, "pitch": 69, "duration": 8, "velocity": 87}, {"time": 1286, "pitch": 62, "duration": 8, "velocity": 83}, {"time": 1286, "pitch": 65, "duration": 5, "velocity": 85}, {"time": 1286, "pitch": 69, "duration": 4, "velocity": 85}, {"time": 1292, "pitch": 46, "duration": 6, "velocity": 100}, {"time": 1292, "pitch": 65, "duration": 2, "velocity": 97}, {"time": 1295, "pitch": 69, "duration": 2, "velocity": 97}, {"time": 1298, "pitch": 50, "duration": 15, "velocity": 76}, {"time": 1298, "pitch": 62, "duration": 7, "velocity": 87}, {"time": 1298, "pitch": 65, "duration": 7, "velocity": 88}, {"time": 1298, "pitch": 69, "duration": 6, "velocity": 87}, {"time": 1304, "pitch": 57, "duration": 11, "velocity": 58}, {"time": 1310, "pitch": 62, "duration": 7, "velocity": 88}, {"time": 1310, "pitch": 65, "duration": 8, "velocity": 89}, {"time": 1310, "pitch": 69, "duration": 7, "velocity": 88}, {"time": 1316, "pitch": 50, "duration": 18, "velocity": 80}, {"time": 1322, "pitch": 62, "duration": 10, "velocity": 77}, {"time": 1322, "pitch": 65, "duration": 9, "velocity": 80}, {"time": 1322, "pitch": 69, "duration": 7, "velocity": 83}, {"time": 1334, "pitch": 62, "duration": 6, "velocity": 85}, {"time": 1334, "pitch": 65, "duration": 6, "velocity": 83}, {"time": 1334, "pitch": 69, "duration": 6, "velocity": 85}, {"time": 1340, "pitch": 50, "duration": 5, "velocity": 100}, {"time": 1340, "pitch": 62, "duration": 2, "velocity": 97}, {"time": 1343, "pitch": 65, "duration": 2, "velocity": 97}, {"time": 1346, "pitch": 45, "duration": 20, "velocity": 74}, {"time": 1346, "pitch": 57, "duration": 16, "velocity": 73}, {"time": 1346, "pitch": 60, "duration": 10, "velocity": 82}, {"time": 1346, "pitch": 64, "duration": 9, "velocity": 87}, {"time": 1346, "pitch": 69, "duration": 9, "velocity": 85}, {"time": 1358, "pitch": 60, "duration": 10, "velocity": 82}, {"time": 1358, "pitch": 64, "duration": 10, "velocity": 86}, {"time": 1358, "pitch": 69, "duration": 8, "velocity": 86}, {"time": 1364, "pitch": 57, "duration": 7, "velocity": 70}, {"time": 1370, "pitch": 45, "duration": 18, "velocity": 77}, {"time": 1370, "pitch": 60, "duration": 10, "velocity": 81}, {"time": 1370, "pitch": 64, "duration": 10, "velocity": 86}, {"time": 1370, "pitch": 69, "duration": 9, "velocity": 86}, {"time": 1376, "pitch": 52, "duration": 12, "velocity": 66}, {"time": 1379, "pitch": 57, "duration": 15, "velocity": 80}, {"time": 1382, "pitch": 60, "duration": 5, "velocity": 81}, {"time": 1385, "pitch": 64, "duration": 5, "velocity": 86}, {"time": 1388, "pitch": 69, "duration": 13, "velocity": 87}, {"time": 1394, "pitch": 50, "duration": 18, "velocity": 82}, {"time": 1394, "pitch": 62, "duration": 9, "velocity": 84}, {"time": 1394, "pitch": 65, "duration": 8, "velocity": 87}, {"time": 1406, "pitch": 62, "duration": 7, "velocity": 85}, {"time": 1406, "pitch": 65, "duration": 7, "velocity": 86}, {"time": 1406, "pitch": 69, "duration": 7, "velocity": 86}, {"time": 1412, "pitch": 50, "duration": 15, "velocity": 100}, {"time": 1412, "pitch": 57, "duration": 8, "velocity": 50}, {"time": 1418, "pitch": 62, "duration": 7, "velocity": 82}, {"time": 1418, "pitch": 65, "duration": 7, "velocity": 83}, {"time": 1418, "pitch": 69, "duration": 7, "velocity": 84}, {"time": 1424, "pitch": 57, "duration": 11, "velocity": 54}, {"time": 1430, "pitch": 62, "duration": 5, "velocity": 88}, {"time": 1430, "pitch": 65, "duration": 5, "velocity": 87}, {"time": 1430, "pitch": 69, "duration": 5, "velocity": 87}, {"time": 1436, "pitch": 50, "duration": 6, "velocity": 100}, {"time": 1436, "pitch": 62, "duration": 2, "velocity": 97}, {"time": 1439, "pitch": 65, "duration": 2, "velocity": 97}, {"time": 1442, "pitch": 41, "duration": 21, "velocity": 84}, {"time": 1442, "pitch": 60, "duration": 8, "velocity": 78}, {"time": 1442, "pitch": 65, "duration": 8, "velocity": 81}, {"time": 1442, "pitch": 69, "duration": 8, "velocity": 83}, {"time": 1448, "pitch": 53, "duration": 8, "velocity": 64}, {"time": 1454, "pitch": 60, "duration": 8, "velocity": 83}, {"time": 1454, "pitch": 65, "duration": 9, "velocity": 82}, {"time": 1454, "pitch": 69, "duration": 8, "velocity": 84}, {"time": 1466, "pitch": 48, "duration": 15, "velocity": 78}, {"time": 1466, "pitch": 60, "duration": 7, "velocity": 82}, {"time": 1466, "pitch": 64, "duration": 7, "velocity": 86}, {"time": 1466, "pitch": 67, "duration": 6, "velocity": 78}, {"time": 1472, "pitch": 55, "duration": 12, "velocity": 46}, {"time": 1478, "pitch": 60, "duration": 7, "velocity": 85}, {"time": 1478, "pitch": 64, "duration": 7, "velocity": 86}, {"time": 1478, "pitch": 67, "duration": 7, "velocity": 86}, {"time": 1484, "pitch": 48, "duration": 6, "velocity": 100}, {"time": 1490, "pitch": 43, "duration": 24, "velocity": 82}, {"time": 1490, "pitch": 58, "duration": 10, "velocity": 87}, {"time": 1490, "pitch": 67, "duration": 7, "velocity": 80}, {"time": 1490, "pitch": 67, "duration": 7, "velocity": 89}, {"time": 1496, "pitch": 50, "duration": 8, "velocity": 65}, {"time": 1502, "pitch": 58, "duration": 7, "velocity": 86}, {"time": 1502, "pitch": 67, "duration": 9, "velocity": 89}, {"time": 1508, "pitch": 50, "duration": 4, "velocity": 73}, {"time": 1514, "pitch": 48, "duration": 12, "velocity": 84}, {"time": 1514, "pitch": 60, "duration": 8, "velocity": 79}, {"time": 1514, "pitch": 64, "duration": 8, "velocity": 85}, {"time": 1514, "pitch": 67, "duration": 8, "velocity": 79}, {"time": 1526, "pitch": 45, "duration": 11, "velocity": 77}, {"time": 1526, "pitch": 57, "duration": 9, "velocity": 83}, {"time": 1526, "pitch": 60, "duration": 5, "velocity": 83}, {"time": 1526, "pitch": 67, "duration": 8, "velocity": 79}, {"time": 1532, "pitch": 60, "duration": 3, "velocity": 85}, {"time": 1535, "pitch": 64, "duration": 3, "velocity": 90}, {"time": 1538, "pitch": 50, "duration": 15, "velocity": 88}, {"time": 1538, "pitch": 57, "duration": 6, "velocity": 80}, {"time": 1538, "pitch": 62, "duration": 8, "velocity": 83}, {"time": 1538, "pitch": 65, "duration": 11, "velocity": 87}, {"time": 1550, "pitch": 62, "duration": 8, "velocity": 88}, {"time": 1550, "pitch": 65, "duration": 8, "velocity": 87}, {"time": 1556, "pitch": 50, "duration": 21, "velocity": 82}, {"time": 1556, "pitch": 57, "duration": 11, "velocity": 38}, {"time": 1562, "pitch": 62, "duration": 10, "velocity": 86}, {"time": 1562, "pitch": 65, "duration": 10, "velocity": 86}, {"time": 1571, "pitch": 57, "duration": 11, "velocity": 73}, {"time": 1574, "pitch": 62, "duration": 4, "velocity": 88}, {"time": 1577, "pitch": 64, "duration": 4, "velocity": 87}, {"time": 1580, "pitch": 50, "duration": 3, "velocity": 90}, {"time": 1580, "pitch": 65, "duration": 14, "velocity": 87}, {"time": 1586, "pitch": 50, "duration": 38, "velocity": 85}, {"time": 1586, "pitch": 62, "duration": 8, "velocity": 84}, {"time": 1586, "pitch": 69, "duration": 7, "velocity": 86}, {"time": 1592, "pitch": 57, "duration": 9, "velocity": 75}, {"time": 1598, "pitch": 62, "duration": 7, "velocity": 86}, {"time": 1598, "pitch": 65, "duration": 7, "velocity": 85}, {"time": 1598, "pitch": 69, "duration": 6, "velocity": 84}, {"time": 1604, "pitch": 57, "duration": 8, "velocity": 79}, {"time": 1610, "pitch": 62, "duration": 7, "velocity": 86}, {"time": 1610, "pitch": 65, "duration": 8, "velocity": 86}, {"time": 1610, "pitch": 69, "duration": 7, "velocity": 86}, {"time": 1616, "pitch": 57, "duration": 8, "velocity": 78}, {"time": 1622, "pitch": 62, "duration": 6, "velocity": 87}, {"time": 1622, "pitch": 69, "duration": 8, "velocity": 87}, {"time": 1628, "pitch": 48, "duration": 6, "velocity": 84}, {"time": 1628, "pitch": 62, "duration": 2, "velocity": 97}, {"time": 1631, "pitch": 65, "duration": 2, "velocity": 97}, {"time": 1634, "pitch": 46, "duration": 18, "velocity": 84}, {"time": 1634, "pitch": 62, "duration": 8, "velocity": 88}, {"time": 1634, "pitch": 69, "duration": 8, "velocity": 89}, {"time": 1640, "pitch": 58, "duration": 7, "velocity": 75}, {"time": 1646, "pitch": 62, "duration": 10, "velocity": 89}, {"time": 1646, "pitch": 69, "duration": 11, "velocity": 88}, {"time": 1652, "pitch": 58, "duration": 7, "velocity": 78}, {"time": 1658, "pitch": 46, "duration": 19, "velocity": 78}, {"time": 1658, "pitch": 62, "duration": 10, "velocity": 89}, {"time": 1658, "pitch": 69, "duration": 9, "velocity": 89}, {"time": 1667, "pitch": 53, "duration": 6, "velocity": 74}, {"time": 1670, "pitch": 62, "duration": 6, "velocity": 92}, {"time": 1670, "pitch": 69, "duration": 8, "velocity": 94}, {"time": 1676, "pitch": 58, "duration": 2, "velocity": 77}, {"time": 1679, "pitch": 62, "duration": 2, "velocity": 97}, {"time": 1682, "pitch": 50, "duration": 15, "velocity": 82}, {"time": 1682, "pitch": 62, "duration": 8, "velocity": 86}, {"time": 1682, "pitch": 65, "duration": 8, "velocity": 87}, {"time": 1682, "pitch": 69, "duration": 7, "velocity": 87}, {"time": 1688, "pitch": 57, "duration": 20, "velocity": 52}, {"time": 1694, "pitch": 62, "duration": 8, "velocity": 87}, {"time": 1694, "pitch": 65, "duration": 8, "velocity": 88}, {"time": 1694, "pitch": 69, "duration": 7, "velocity": 88}, {"time": 1700, "pitch": 50, "duration": 15, "velocity": 89}, {"time": 1706, "pitch": 62, "duration": 7, "velocity": 86}, {"time": 1706, "pitch": 65, "duration": 8, "velocity": 85}, {"time": 1706, "pitch": 69, "duration": 7, "velocity": 84}, {"time": 1712, "pitch": 57, "duration": 9, "velocity": 64}, {"time": 1718, "pitch": 62, "duration": 6, "velocity": 87}, {"time": 1718, "pitch": 65, "duration": 8, "velocity": 88}, {"time": 1718, "pitch": 69, "duration": 8, "velocity": 87}, {"time": 1724, "pitch": 50, "duration": 3, "velocity": 86}, {"time": 1724, "pitch": 62, "duration": 2, "velocity": 97}, {"time": 1727, "pitch": 65, "duration": 2, "velocity": 97}, {"time": 1730, "pitch": 45, "duration": 20, "velocity": 81}, {"time": 1730, "pitch": 60, "duration": 9, "velocity": 87}, {"time": 1730, "pitch": 64, "duration": 9, "velocity": 87}, {"time": 1730, "pitch": 69, "duration": 8, "velocity": 88}, {"time": 1742, "pitch": 60, "duration": 10, "velocity": 86}, {"time": 1742, "pitch": 64, "duration": 11, "velocity": 89}, {"time": 1742, "pitch": 69, "duration": 9, "velocity": 87}, {"time": 1748, "pitch": 52, "duration": 8, "velocity": 76}, {"time": 1754, "pitch": 45, "duration": 21, "velocity": 71}, {"time": 1754, "pitch": 60, "duration": 9, "velocity": 84}, {"time": 1754, "pitch": 64, "duration": 9, "velocity": 86}, {"time": 1754, "pitch": 69, "duration": 9, "velocity": 87}, {"time": 1763, "pitch": 52, "duration": 5, "velocity": 71}, {"time": 1766, "pitch": 60, "duration": 7, "velocity": 88}, {"time": 1766, "pitch": 64, "duration": 6, "velocity": 92}, {"time": 1766, "pitch": 69, "duration": 10, "velocity": 89}, {"time": 1772, "pitch": 52, "duration": 2, "velocity": 72}, {"time": 1772, "pitch": 64, "duration": 2, "velocity": 97}, {"time": 1775, "pitch": 60, "duration": 2, "velocity": 97}, {"time": 1778, "pitch": 50, "duration": 19, "velocity": 84}, {"time": 1778, "pitch": 62, "duration": 7, "velocity": 87}, {"time": 1778, "pitch": 65, "duration": 7, "velocity": 89}, {"time": 1778, "pitch": 69, "duration": 7, "velocity": 86}, {"time": 1784, "pitch": 57, "duration": 7, "velocity": 68}, {"time": 1790, "pitch": 62, "duration": 10, "velocity": 88}, {"time": 1790, "pitch": 69, "duration": 8, "velocity": 87}, {"time": 1793, "pitch": 57, "duration": 7, "velocity": 68}, {"time": 1799, "pitch": 69, "duration": 10, "velocity": 91}, {"time": 1802, "pitch": 50, "duration": 15, "velocity": 80}, {"time": 1802, "pitch": 62, "duration": 8, "velocity": 84}, {"time": 1808, "pitch": 57, "duration": 9, "velocity": 75}, {"time": 1811, "pitch": 62, "duration": 2, "velocity": 40}, {"time": 1814, "pitch": 60, "duration": 7, "velocity": 88}, {"time": 1814, "pitch": 69, "duration": 5, "velocity": 78}, {"time": 1820, "pitch": 62, "duration": 6, "velocity": 87}, {"time": 1826, "pitch": 41, "duration": 18, "velocity": 83}, {"time": 1826, "pitch": 60, "duration": 9, "velocity": 85}, {"time": 1826, "pitch": 65, "duration": 8, "velocity": 84}, {"time": 1826, "pitch": 69, "duration": 8, "velocity": 80}, {"time": 1832, "pitch": 53, "duration": 7, "velocity": 63}, {"time": 1838, "pitch": 60, "duration": 10, "velocity": 86}, {"time": 1838, "pitch": 65, "duration": 11, "velocity": 86}, {"time": 1838, "pitch": 69, "duration": 9, "velocity": 86}, {"time": 1844, "pitch": 53, "duration": 7, "velocity": 81}, {"time": 1850, "pitch": 48, "duration": 24, "velocity": 76}, {"time": 1850, "pitch": 60, "duration": 8, "velocity": 82}, {"time": 1850, "pitch": 64, "duration": 8, "velocity": 89}, {"time": 1850, "pitch": 67, "duration": 7, "velocity": 79}, {"time": 1856, "pitch": 55, "duration": 13, "velocity": 67}, {"time": 1862, "pitch": 60, "duration": 6, "velocity": 84}, {"time": 1862, "pitch": 64, "duration": 7, "velocity": 88}, {"time": 1862, "pitch": 67, "duration": 6, "velocity": 85}, {"time": 1868, "pitch": 60, "duration": 2, "velocity": 97}, {"time": 1871, "pitch": 64, "duration": 2, "velocity": 97}, {"time": 1874, "pitch": 43, "duration": 19, "velocity": 81}, {"time": 1874, "pitch": 58, "duration": 8, "velocity": 93}, {"time": 1874, "pitch": 62, "duration": 7, "velocity": 88}, {"time": 1874, "pitch": 67, "duration": 7, "velocity": 84}, {"time": 1880, "pitch": 55, "duration": 7, "velocity": 42}, {"time": 1886, "pitch": 58, "duration": 6, "velocity": 86}, {"time": 1886, "pitch": 62, "duration": 7, "velocity": 91}, {"time": 1886, "pitch": 67, "duration": 6, "velocity": 89}, {"time": 1892, "pitch": 55, "duration": 6, "velocity": 82}, {"time": 1898, "pitch": 45, "duration": 19, "velocity": 79}, {"time": 1898, "pitch": 60, "duration": 9, "velocity": 86}, {"time": 1898, "pitch": 67, "duration": 8, "velocity": 87}, {"time": 1904, "pitch": 52, "duration": 7, "velocity": 71}, {"time": 1910, "pitch": 60, "duration": 8, "velocity": 86}, {"time": 1910, "pitch": 67, "duration": 6, "velocity": 89}, {"time": 1916, "pitch": 52, "duration": 2, "velocity": 75}, {"time": 1919, "pitch": 57, "duration": 2, "velocity": 97}, {"time": 1922, "pitch": 50, "duration": 18, "velocity": 76}, {"time": 1922, "pitch": 62, "duration": 10, "velocity": 81}, {"time": 1922, "pitch": 69, "duration": 9, "velocity": 87}, {"time": 1928, "pitch": 57, "duration": 7, "velocity": 60}, {"time": 1934, "pitch": 62, "duration": 9, "velocity": 83}, {"time": 1934, "pitch": 67, "duration": 12, "velocity": 88}, {"time": 1940, "pitch": 57, "duration": 6, "velocity": 64}, {"time": 1946, "pitch": 50, "duration": 12, "velocity": 74}, {"time": 1946, "pitch": 62, "duration": 14, "velocity": 83}, {"time": 1946, "pitch": 65, "duration": 15, "velocity": 84}, {"time": 1958, "pitch": 62, "duration": 2, "velocity": 83}, {"time": 1958, "pitch": 69, "duration": 5, "velocity": 82}, {"time": 1964, "pitch": 50, "duration": 6, "velocity": 81}, {"time": 1970, "pitch": 43, "duration": 15, "velocity": 73}, {"time": 1970, "pitch": 58, "duration": 11, "velocity": 84}, {"time": 1970, "pitch": 67, "duration": 10, "velocity": 85}, {"time": 1982, "pitch": 58, "duration": 6, "velocity": 84}, {"time": 1982, "pitch": 67, "duration": 8, "velocity": 86}, {"time": 1988, "pitch": 43, "duration": 3, "velocity": 100}, {"time": 1994, "pitch": 45, "duration": 21, "velocity": 77}, {"time": 1994, "pitch": 60, "duration": 10, "velocity": 83}, {"time": 1994, "pitch": 67, "duration": 9, "velocity": 87}, {"time": 2006, "pitch": 60, "duration": 8, "velocity": 86}, {"time": 2006, "pitch": 67, "duration": 12, "velocity": 89}, {"time": 2018, "pitch": 50, "duration": 19, "velocity": 74}, {"time": 2018, "pitch": 62, "duration": 11, "velocity": 83}, {"time": 2018, "pitch": 69, "duration": 11, "velocity": 87}, {"time": 2024, "pitch": 57, "duration": 8, "velocity": 66}, {"time": 2030, "pitch": 62, "duration": 22, "velocity": 80}, {"time": 2030, "pitch": 67, "duration": 11, "velocity": 87}, {"time": 2036, "pitch": 57, "duration": 7, "velocity": 69}, {"time": 2042, "pitch": 50, "duration": 23, "velocity": 81}, {"time": 2042, "pitch": 65, "duration": 10, "velocity": 86}, {"time": 2054, "pitch": 62, "duration": 10, "velocity": 79}, {"time": 2054, "pitch": 65, "duration": 10, "velocity": 84}, {"time": 2066, "pitch": 50, "duration": 17, "velocity": 90}, {"time": 2072, "pitch": 57, "duration": 15, "velocity": 81}, {"time": 2078, "pitch": 62, "duration": 6, "velocity": 91}, {"time": 2084, "pitch": 65, "duration": 13, "velocity": 88}, {"time": 2090, "pitch": 48, "duration": 16, "velocity": 85}, {"time": 2096, "pitch": 57, "duration": 10, "velocity": 77}, {"time": 2102, "pitch": 62, "duration": 7, "velocity": 88}, {"time": 2108, "pitch": 64, "duration": 6, "velocity": 86}, {"time": 2114, "pitch": 46, "duration": 19, "velocity": 82}, {"time": 2120, "pitch": 53, "duration": 13, "velocity": 71}, {"time": 2126, "pitch": 58, "duration": 9, "velocity": 77}, {"time": 2138, "pitch": 50, "duration": 19, "velocity": 86}, {"time": 2144, "pitch": 57, "duration": 14, "velocity": 71}, {"time": 2150, "pitch": 64, "duration": 7, "velocity": 87}, {"time": 2156, "pitch": 65, "duration": 12, "velocity": 88}, {"time": 2162, "pitch": 50, "duration": 18, "velocity": 85}, {"time": 2168, "pitch": 57, "duration": 12, "velocity": 80}, {"time": 2174, "pitch": 62, "duration": 7, "velocity": 84}, {"time": 2180, "pitch": 65, "duration": 8, "velocity": 87}, {"time": 2186, "pitch": 50, "duration": 18, "velocity": 82}, {"time": 2192, "pitch": 62, "duration": 18, "velocity": 69}, {"time": 2198, "pitch": 65, "duration": 14, "velocity": 76}, {"time": 2210, "pitch": 45, "duration": 40, "velocity": 81}, {"time": 2216, "pitch": 52, "duration": 34, "velocity": 70}, {"time": 2222, "pitch": 60, "duration": 30, "velocity": 82}, {"time": 2228, "pitch": 64, "duration": 24, "velocity": 77}, {"time": 2234, "pitch": 67, "duration": 16, "velocity": 78}, {"time": 2258, "pitch": 50, "duration": 38, "velocity": 89}, {"time": 2258, "pitch": 62, "duration": 11, "velocity": 88}, {"time": 2258, "pitch": 65, "duration": 11, "velocity": 91}, {"time": 2258, "pitch": 69, "duration": 9, "velocity": 89}, {"time": 2264, "pitch": 57, "duration": 5, "velocity": 65}, {"time": 2270, "pitch": 62, "duration": 8, "velocity": 88}, {"time": 2270, "pitch": 65, "duration": 8, "velocity": 88}, {"time": 2270, "pitch": 69, "duration": 8, "velocity": 88}, {"time": 2276, "pitch": 57, "duration": 10, "velocity": 42}, {"time": 2279, "pitch": 62, "duration": 2, "velocity": 84}, {"time": 2279, "pitch": 65, "duration": 2, "velocity": 85}, {"time": 2279, "pitch": 69, "duration": 2, "velocity": 84}, {"time": 2285, "pitch": 62, "duration": 7, "velocity": 83}, {"time": 2285, "pitch": 65, "duration": 7, "velocity": 85}, {"time": 2285, "pitch": 69, "duration": 7, "velocity": 81}, {"time": 2291, "pitch": 57, "duration": 6, "velocity": 65}, {"time": 2294, "pitch": 62, "duration": 7, "velocity": 92}, {"time": 2294, "pitch": 65, "duration": 11, "velocity": 94}, {"time": 2294, "pitch": 69, "duration": 10, "velocity": 91}, {"time": 2300, "pitch": 50, "duration": 1, "velocity": 80}, {"time": 2306, "pitch": 41, "duration": 19, "velocity": 88}, {"time": 2306, "pitch": 60, "duration": 10, "velocity": 89}, {"time": 2306, "pitch": 65, "duration": 11, "velocity": 94}, {"time": 2306, "pitch": 69, "duration": 10, "velocity": 89}, {"time": 2315, "pitch": 53, "duration": 5, "velocity": 67}, {"time": 2318, "pitch": 60, "duration": 10, "velocity": 91}, {"time": 2318, "pitch": 65, "duration": 10, "velocity": 100}, {"time": 2318, "pitch": 69, "duration": 10, "velocity": 93}, {"time": 2324, "pitch": 53, "duration": 5, "velocity": 84}, {"time": 2330, "pitch": 48, "duration": 20, "velocity": 86}, {"time": 2330, "pitch": 60, "duration": 11, "velocity": 90}, {"time": 2330, "pitch": 64, "duration": 11, "velocity": 98}, {"time": 2330, "pitch": 67, "duration": 11, "velocity": 93}, {"time": 2339, "pitch": 55, "duration": 4, "velocity": 77}, {"time": 2342, "pitch": 60, "duration": 10, "velocity": 91}, {"time": 2342, "pitch": 64, "duration": 9, "velocity": 102}, {"time": 2342, "pitch": 67, "duration": 9, "velocity": 96}, {"time": 2348, "pitch": 55, "duration": 2, "velocity": 83}, {"time": 2354, "pitch": 43, "duration": 20, "velocity": 86}, {"time": 2354, "pitch": 58, "duration": 10, "velocity": 88}, {"time": 2354, "pitch": 62, "duration": 9, "velocity": 96}, {"time": 2354, "pitch": 67, "duration": 8, "velocity": 98}, {"time": 2363, "pitch": 55, "duration": 4, "velocity": 74}, {"time": 2366, "pitch": 58, "duration": 6, "velocity": 89}, {"time": 2366, "pitch": 62, "duration": 12, "velocity": 96}, {"time": 2366, "pitch": 67, "duration": 7, "velocity": 108}, {"time": 2372, "pitch": 55, "duration": 6, "velocity": 69}, {"time": 2378, "pitch": 45, "duration": 22, "velocity": 82}, {"time": 2378, "pitch": 60, "duration": 8, "velocity": 86}, {"time": 2378, "pitch": 64, "duration": 8, "velocity": 91}, {"time": 2378, "pitch": 69, "duration": 8, "velocity": 87}, {"time": 2387, "pitch": 60, "duration": 7, "velocity": 85}, {"time": 2387, "pitch": 64, "duration": 8, "velocity": 88}, {"time": 2387, "pitch": 69, "duration": 7, "velocity": 86}, {"time": 2393, "pitch": 52, "duration": 4, "velocity": 80}, {"time": 2396, "pitch": 60, "duration": 5, "velocity": 91}, {"time": 2396, "pitch": 64, "duration": 5, "velocity": 94}, {"time": 2396, "pitch": 69, "duration": 4, "velocity": 90}, {"time": 2402, "pitch": 50, "duration": 30, "velocity": 71}, {"time": 2402, "pitch": 62, "duration": 12, "velocity": 92}, {"time": 2402, "pitch": 65, "duration": 10, "velocity": 89}, {"time": 2402, "pitch": 69, "duration": 11, "velocity": 88}, {"time": 2414, "pitch": 62, "duration": 22, "velocity": 80}, {"time": 2414, "pitch": 65, "duration": 21, "velocity": 85}, {"time": 2414, "pitch": 69, "duration": 21, "velocity": 84}, {"time": 2435, "pitch": 50, "duration": 16, "velocity": 89}, {"time": 2438, "pitch": 62, "duration": 4, "velocity": 88}, {"time": 2441, "pitch": 65, "duration": 9, "velocity": 86}, {"time": 2444, "pitch": 62, "duration": 5, "velocity": 78}, {"time": 2444, "pitch": 69, "duration": 6, "velocity": 92}, {"time": 2450, "pitch": 50, "duration": 1, "velocity": 104}, {"time": 2456, "pitch": 57, "duration": 13, "velocity": 83}, {"time": 2462, "pitch": 62, "duration": 6, "velocity": 88}, {"time": 2468, "pitch": 65, "duration": 12, "velocity": 93}, {"time": 2474, "pitch": 48, "duration": 17, "velocity": 86}, {"time": 2480, "pitch": 57, "duration": 11, "velocity": 80}, {"time": 2486, "pitch": 60, "duration": 14, "velocity": 86}, {"time": 2498, "pitch": 46, "duration": 41, "velocity": 83}, {"time": 2504, "pitch": 53, "duration": 34, "velocity": 76}, {"time": 2510, "pitch": 58, "duration": 29, "velocity": 79}, {"time": 2516, "pitch": 64, "duration": 6, "velocity": 86}, {"time": 2522, "pitch": 62, "duration": 30, "velocity": 84}, {"time": 2522, "pitch": 65, "duration": 25, "velocity": 82}, {"time": 2546, "pitch": 50, "duration": 17, "velocity": 88}, {"time": 2552, "pitch": 57, "duration": 11, "velocity": 73}, {"time": 2558, "pitch": 62, "duration": 15, "velocity": 78}, {"time": 2564, "pitch": 65, "duration": 11, "velocity": 84}, {"time": 2570, "pitch": 46, "duration": 19, "velocity": 85}, {"time": 2576, "pitch": 58, "duration": 12, "velocity": 71}, {"time": 2582, "pitch": 62, "duration": 13, "velocity": 82}, {"time": 2582, "pitch": 70, "duration": 7, "velocity": 83}, {"time": 2594, "pitch": 45, "duration": 40, "velocity": 80}, {"time": 2594, "pitch": 60, "duration": 18, "velocity": 83}, {"time": 2594, "pitch": 69, "duration": 17, "velocity": 83}, {"time": 2600, "pitch": 52, "duration": 34, "velocity": 64}, {"time": 2606, "pitch": 57, "duration": 29, "velocity": 77}, {"time": 2612, "pitch": 62, "duration": 6, "velocity": 77}, {"time": 2618, "pitch": 60, "duration": 21, "velocity": 71}, {"time": 2618, "pitch": 64, "duration": 20, "velocity": 77}, {"time": 2618, "pitch": 69, "duration": 20, "velocity": 73}, {"time": 2642, "pitch": 50, "duration": 40, "velocity": 87}, {"time": 2648, "pitch": 57, "duration": 34, "velocity": 77}, {"time": 2654, "pitch": 62, "duration": 34, "velocity": 78}, {"time": 2660, "pitch": 69, "duration": 35, "velocity": 81}, {"time": 2666, "pitch": 65, "duration": 29, "velocity": 82}, {"time": 2690, "pitch": 41, "duration": 17, "velocity": 84}, {"time": 2696, "pitch": 53, "duration": 19, "velocity": 71}, {"time": 2702, "pitch": 57, "duration": 6, "velocity": 67}, {"time": 2708, "pitch": 65, "duration": 6, "velocity": 76}, {"time": 2714, "pitch": 48, "duration": 26, "velocity": 76}, {"time": 2720, "pitch": 55, "duration": 19, "velocity": 74}, {"time": 2726, "pitch": 60, "duration": 13, "velocity": 73}, {"time": 2732, "pitch": 62, "duration": 6, "velocity": 76}, {"time": 2738, "pitch": 43, "duration": 18, "velocity": 83}, {"time": 2744, "pitch": 50, "duration": 13, "velocity": 79}, {"time": 2750, "pitch": 58, "duration": 8, "velocity": 77}, {"time": 2756, "pitch": 62, "duration": 12, "velocity": 66}, {"time": 2762, "pitch": 45, "duration": 19, "velocity": 78}, {"time": 2768, "pitch": 52, "duration": 13, "velocity": 65}, {"time": 2774, "pitch": 60, "duration": 8, "velocity": 78}, {"time": 2780, "pitch": 64, "duration": 11, "velocity": 71}, {"time": 2786, "pitch": 50, "duration": 39, "velocity": 86}, {"time": 2792, "pitch": 57, "duration": 33, "velocity": 72}, {"time": 2798, "pitch": 62, "duration": 25, "velocity": 77}, {"time": 2804, "pitch": 67, "duration": 6, "velocity": 70}, {"time": 2810, "pitch": 65, "duration": 15, "velocity": 76}, {"time": 2834, "pitch": 50, "duration": 15, "velocity": 87}, {"time": 2834, "pitch": 62, "duration": 8, "velocity": 86}, {"time": 2834, "pitch": 65, "duration": 8, "velocity": 86}, {"time": 2834, "pitch": 69, "duration": 7, "velocity": 87}, {"time": 2834, "pitch": 77, "duration": 4, "velocity": 87}, {"time": 2840, "pitch": 57, "duration": 12, "velocity": 38}, {"time": 2846, "pitch": 62, "duration": 8, "velocity": 87}, {"time": 2846, "pitch": 65, "duration": 8, "velocity": 88}, {"time": 2846, "pitch": 69, "duration": 7, "velocity": 87}, {"time": 2852, "pitch": 50, "duration": 18, "velocity": 100}, {"time": 2858, "pitch": 62, "duration": 7, "velocity": 86}, {"time": 2858, "pitch": 65, "duration": 7, "velocity": 87}, {"time": 2858, "pitch": 69, "duration": 6, "velocity": 87}, {"time": 2864, "pitch": 57, "duration": 11, "velocity": 64}, {"time": 2870, "pitch": 62, "duration": 5, "velocity": 89}, {"time": 2870, "pitch": 65, "duration": 3, "velocity": 91}, {"time": 2870, "pitch": 69, "duration": 4, "velocity": 89}, {"time": 2876, "pitch": 50, "duration": 6, "velocity": 100}, {"time": 2876, "pitch": 65, "duration": 3, "velocity": 97}, {"time": 2879, "pitch": 69, "duration": 3, "velocity": 97}, {"time": 2882, "pitch": 46, "duration": 30, "velocity": 83}, {"time": 2882, "pitch": 62, "duration": 9, "velocity": 87}, {"time": 2882, "pitch": 65, "duration": 9, "velocity": 89}, {"time": 2882, "pitch": 69, "duration": 9, "velocity": 88}, {"time": 2888, "pitch": 58, "duration": 36, "velocity": 42}, {"time": 2894, "pitch": 62, "duration": 9, "velocity": 84}, {"time": 2894, "pitch": 65, "duration": 9, "velocity": 84}, {"time": 2894, "pitch": 69, "duration": 8, "velocity": 86}, {"time": 2906, "pitch": 62, "duration": 9, "velocity": 85}, {"time": 2906, "pitch": 65, "duration": 9, "velocity": 84}, {"time": 2906, "pitch": 69, "duration": 8, "velocity": 87}, {"time": 2918, "pitch": 62, "duration": 8, "velocity": 83}, {"time": 2918, "pitch": 65, "duration": 5, "velocity": 85}, {"time": 2918, "pitch": 69, "duration": 4, "velocity": 85}, {"time": 2924, "pitch": 46, "duration": 6, "velocity": 100}, {"time": 2924, "pitch": 65, "duration": 2, "velocity": 97}, {"time": 2927, "pitch": 69, "duration": 2, "velocity": 97}, {"time": 2930, "pitch": 50, "duration": 15, "velocity": 76}, {"time": 2930, "pitch": 62, "duration": 7, "velocity": 87}, {"time": 2930, "pitch": 65, "duration": 7, "velocity": 88}, {"time": 2930, "pitch": 69, "duration": 6, "velocity": 87}, {"time": 2936, "pitch": 57, "duration": 11, "velocity": 58}, {"time": 2942, "pitch": 62, "duration": 7, "velocity": 88}, {"time": 2942, "pitch": 65, "duration": 8, "velocity": 89}, {"time": 2942, "pitch": 69, "duration": 7, "velocity": 88}, {"time": 2948, "pitch": 50, "duration": 18, "velocity": 80}, {"time": 2954, "pitch": 62, "duration": 10, "velocity": 77}, {"time": 2954, "pitch": 65, "duration": 9, "velocity": 80}, {"time": 2954, "pitch": 69, "duration": 7, "velocity": 83}, {"time": 2966, "pitch": 62, "duration": 6, "velocity": 85}, {"time": 2966, "pitch": 65, "duration": 6, "velocity": 83}, {"time": 2966, "pitch": 69, "duration": 6, "velocity": 85}, {"time": 2972, "pitch": 50, "duration": 5, "velocity": 100}, {"time": 2972, "pitch": 62, "duration": 2, "velocity": 97}, {"time": 2975, "pitch": 65, "duration": 2, "velocity": 97}, {"time": 2978, "pitch": 45, "duration": 20, "velocity": 74}, {"time": 2978, "pitch": 57, "duration": 16, "velocity": 73}, {"time": 2978, "pitch": 60, "duration": 10, "velocity": 82}, {"time": 2978, "pitch": 64, "duration": 9, "velocity": 87}, {"time": 2978, "pitch": 69, "duration": 9, "velocity": 85}, {"time": 2990, "pitch": 60, "duration": 10, "velocity": 82}, {"time": 2990, "pitch": 64, "duration": 10, "velocity": 86}, {"time": 2990, "pitch": 69, "duration": 8, "velocity": 86}, {"time": 2996, "pitch": 57, "duration": 7, "velocity": 70}, {"time": 3002, "pitch": 45, "duration": 18, "velocity": 77}, {"time": 3002, "pitch": 60, "duration": 10, "velocity": 81}, {"time": 3002, "pitch": 64, "duration": 10, "velocity": 86}, {"time": 3002, "pitch": 69, "duration": 9, "velocity": 86}, {"time": 3008, "pitch": 52, "duration": 12, "velocity": 66}, {"time": 3011, "pitch": 57, "duration": 15, "velocity": 80}, {"time": 3014, "pitch": 60, "duration": 5, "velocity": 81}, {"time": 3017, "pitch": 64, "duration": 5, "velocity": 86}, {"time": 3020, "pitch": 69, "duration": 13, "velocity": 87}, {"time": 3026, "pitch": 50, "duration": 18, "velocity": 82}, {"time": 3026, "pitch": 62, "duration": 9, "velocity": 84}, {"time": 3026, "pitch": 65, "duration": 8, "velocity": 87}, {"time": 3038, "pitch": 62, "duration": 7, "velocity": 85}, {"time": 3038, "pitch": 65, "duration": 7, "velocity": 86}, {"time": 3038, "pitch": 69, "duration": 7, "velocity": 86}, {"time": 3044, "pitch": 50, "duration": 15, "velocity": 100}, {"time": 3044, "pitch": 57, "duration": 8, "velocity": 50}, {"time": 3050, "pitch": 62, "duration": 7, "velocity": 82}, {"time": 3050, "pitch": 65, "duration": 7, "velocity": 83}, {"time": 3050, "pitch": 69, "duration": 7, "velocity": 84}, {"time": 3056, "pitch": 57, "duration": 11, "velocity": 54}, {"time": 3062, "pitch": 62, "duration": 5, "velocity": 88}, {"time": 3062, "pitch": 65, "duration": 5, "velocity": 87}, {"time": 3062, "pitch": 69, "duration": 5, "velocity": 87}, {"time": 3068, "pitch": 50, "duration": 6, "velocity": 100}, {"time": 3068, "pitch": 62, "duration": 2, "velocity": 97}, {"time": 3071, "pitch": 65, "duration": 2, "velocity": 97}, {"time": 3074, "pitch": 41, "duration": 21, "velocity": 84}, {"time": 3074, "pitch": 60, "duration": 8, "velocity": 78}, {"time": 3074, "pitch": 65, "duration": 8, "velocity": 81}, {"time": 3074, "pitch": 69, "duration": 8, "velocity": 83}, {"time": 3080, "pitch": 53, "duration": 8, "velocity": 64}, {"time": 3086, "pitch": 60, "duration": 8, "velocity": 83}, {"time": 3086, "pitch": 65, "duration": 9, "velocity": 82}, {"time": 3086, "pitch": 69, "duration": 8, "velocity": 84}, {"time": 3098, "pitch": 48, "duration": 15, "velocity": 78}, {"time": 3098, "pitch": 60, "duration": 7, "velocity": 82}, {"time": 3098, "pitch": 64, "duration": 7, "velocity": 86}, {"time": 3098, "pitch": 67, "duration": 6, "velocity": 78}, {"time": 3104, "pitch": 55, "duration": 12, "velocity": 46}, {"time": 3110, "pitch": 60, "duration": 7, "velocity": 85}, {"time": 3110, "pitch": 64, "duration": 7, "velocity": 86}, {"time": 3110, "pitch": 67, "duration": 7, "velocity": 86}, {"time": 3116, "pitch": 48, "duration": 6, "velocity": 100}, {"time": 3122, "pitch": 43, "duration": 24, "velocity": 82}, {"time": 3122, "pitch": 58, "duration": 10, "velocity": 87}, {"time": 3122, "pitch": 67, "duration": 7, "velocity": 80}, {"time": 3122, "pitch": 67, "duration": 7, "velocity": 89}, {"time": 3128, "pitch": 50, "duration": 8, "velocity": 65}, {"time": 3134, "pitch": 58, "duration": 7, "velocity": 86}, {"time": 3134, "pitch": 67, "duration": 9, "velocity": 89}, {"time": 3140, "pitch": 50, "duration": 4, "velocity": 73}, {"time": 3146, "pitch": 48, "duration": 12, "velocity": 84}, {"time": 3146, "pitch": 60, "duration": 8, "velocity": 79}, {"time": 3146, "pitch": 64, "duration": 8, "velocity": 85}, {"time": 3146, "pitch": 67, "duration": 8, "velocity": 79}, {"time": 3158, "pitch": 45, "duration": 11, "velocity": 77}, {"time": 3158, "pitch": 57, "duration": 9, "velocity": 83}, {"time": 3158, "pitch": 60, "duration": 5, "velocity": 83}, {"time": 3158, "pitch": 67, "duration": 8, "velocity": 79}, {"time": 3164, "pitch": 60, "duration": 3, "velocity": 85}, {"time": 3167, "pitch": 64, "duration": 3, "velocity": 90}, {"time": 3170, "pitch": 50, "duration": 15, "velocity": 88}, {"time": 3170, "pitch": 57, "duration": 6, "velocity": 80}, {"time": 3170, "pitch": 62, "duration": 8, "velocity": 83}, {"time": 3170, "pitch": 65, "duration": 11, "velocity": 87}, {"time": 3182, "pitch": 62, "duration": 8, "velocity": 88}, {"time": 3182, "pitch": 65, "duration": 8, "velocity": 87}, {"time": 3188, "pitch": 50, "duration": 21, "velocity": 82}, {"time": 3188, "pitch": 57, "duration": 11, "velocity": 38}, {"time": 3194, "pitch": 62, "duration": 10, "velocity": 86}, {"time": 3194, "pitch": 65, "duration": 10, "velocity": 86}, {"time": 3203, "pitch": 57, "duration": 11, "velocity": 73}, {"time": 3206, "pitch": 62, "duration": 4, "velocity": 88}, {"time": 3209, "pitch": 64, "duration": 4, "velocity": 87}, {"time": 3212, "pitch": 50, "duration": 3, "velocity": 90}, {"time": 3212, "pitch": 65, "duration": 14, "velocity": 87}, {"time": 3218, "pitch": 50, "duration": 38, "velocity": 85}, {"time": 3218, "pitch": 62, "duration": 8, "velocity": 84}, {"time": 3218, "pitch": 69, "duration": 7, "velocity": 86}, {"time": 3224, "pitch": 57, "duration": 9, "velocity": 75}, {"time": 3230, "pitch": 62, "duration": 7, "velocity": 86}, {"time": 3230, "pitch": 65, "duration": 7, "velocity": 85}, {"time": 3230, "pitch": 69, "duration": 6, "velocity": 84}, {"time": 3236, "pitch": 57, "duration": 8, "velocity": 79}, {"time": 3242, "pitch": 62, "duration": 7, "velocity": 86}, {"time": 3242, "pitch": 65, "duration": 8, "velocity": 86}, {"time": 3242, "pitch": 69, "duration": 7, "velocity": 86}, {"time": 3248, "pitch": 57, "duration": 8, "velocity": 78}, {"time": 3254, "pitch": 62, "duration": 6, "velocity": 87}, {"time": 3254, "pitch": 69, "duration": 8, "velocity": 87}, {"time": 3260, "pitch": 48, "duration": 6, "velocity": 84}, {"time": 3260, "pitch": 62, "duration": 2, "velocity": 97}, {"time": 3263, "pitch": 65, "duration": 2, "velocity": 97}, {"time": 3266, "pitch": 46, "duration": 18, "velocity": 84}, {"time": 3266, "pitch": 62, "duration": 8, "velocity": 88}, {"time": 3266, "pitch": 69, "duration": 8, "velocity": 89}, {"time": 3272, "pitch": 58, "duration": 7, "velocity": 75}, {"time": 3278, "pitch": 62, "duration": 10, "velocity": 89}, {"time": 3278, "pitch": 69, "duration": 11, "velocity": 88}, {"time": 3284, "pitch": 58, "duration": 7, "velocity": 78}, {"time": 3290, "pitch": 46, "duration": 19, "velocity": 78}, {"time": 3290, "pitch": 62, "duration": 10, "velocity": 89}, {"time": 3290, "pitch": 69, "duration": 9, "velocity": 89}, {"time": 3299, "pitch": 53, "duration": 6, "velocity": 74}, {"time": 3302, "pitch": 62, "duration": 6, "velocity": 92}, {"time": 3302, "pitch": 69, "duration": 8, "velocity": 94}, {"time": 3308, "pitch": 58, "duration": 2, "velocity": 77}, {"time": 3311, "pitch": 62, "duration": 2, "velocity": 97}, {"time": 3314, "pitch": 50, "duration": 15, "velocity": 82}, {"time": 3314, "pitch": 62, "duration": 8, "velocity": 86}, {"time": 3314, "pitch": 65, "duration": 8, "velocity": 87}, {"time": 3314, "pitch": 69, "duration": 7, "velocity": 87}, {"time": 3320, "pitch": 57, "duration": 20, "velocity": 52}, {"time": 3326, "pitch": 62, "duration": 8, "velocity": 87}, {"time": 3326, "pitch": 65, "duration": 8, "velocity": 88}, {"time": 3326, "pitch": 69, "duration": 7, "velocity": 88}, {"time": 3332, "pitch": 50, "duration": 15, "velocity": 89}, {"time": 3338, "pitch": 62, "duration": 7, "velocity": 86}, {"time": 3338, "pitch": 65, "duration": 8, "velocity": 85}, {"time": 3338, "pitch": 69, "duration": 7, "velocity": 84}, {"time": 3344, "pitch": 57, "duration": 9, "velocity": 64}, {"time": 3350, "pitch": 62, "duration": 6, "velocity": 87}, {"time": 3350, "pitch": 65, "duration": 8, "velocity": 88}, {"time": 3350, "pitch": 69, "duration": 8, "velocity": 87}, {"time": 3356, "pitch": 50, "duration": 3, "velocity": 86}, {"time": 3356, "pitch": 62, "duration": 2, "velocity": 97}, {"time": 3359, "pitch": 65, "duration": 2, "velocity": 97}, {"time": 3362, "pitch": 45, "duration": 20, "velocity": 81}, {"time": 3362, "pitch": 60, "duration": 9, "velocity": 87}, {"time": 3362, "pitch": 64, "duration": 9, "velocity": 87}, {"time": 3362, "pitch": 69, "duration": 8, "velocity": 88}, {"time": 3374, "pitch": 60, "duration": 10, "velocity": 86}, {"time": 3374, "pitch": 64, "duration": 11, "velocity": 89}, {"time": 3374, "pitch": 69, "duration": 9, "velocity": 87}, {"time": 3380, "pitch": 52, "duration": 8, "velocity": 76}, {"time": 3386, "pitch": 45, "duration": 21, "velocity": 71}, {"time": 3386, "pitch": 60, "duration": 9, "velocity": 84}, {"time": 3386, "pitch": 64, "duration": 9, "velocity": 86}, {"time": 3386, "pitch": 69, "duration": 9, "velocity": 87}, {"time": 3395, "pitch": 52, "duration": 5, "velocity": 71}, {"time": 3398, "pitch": 60, "duration": 7, "velocity": 88}, {"time": 3398, "pitch": 64, "duration": 6, "velocity": 92}, {"time": 3398, "pitch": 69, "duration": 10, "velocity": 89}, {"time": 3404, "pitch": 52, "duration": 2, "velocity": 72}, {"time": 3404, "pitch": 64, "duration": 2, "velocity": 97}, {"time": 3407, "pitch": 60, "duration": 2, "velocity": 97}, {"time": 3410, "pitch": 50, "duration": 19, "velocity": 84}, {"time": 3410, "pitch": 62, "duration": 7, "velocity": 87}, {"time": 3410, "pitch": 65, "duration": 7, "velocity": 89}, {"time": 3410, "pitch": 69, "duration": 7, "velocity": 86}, {"time": 3416, "pitch": 57, "duration": 7, "velocity": 68}, {"time": 3422, "pitch": 62, "duration": 10, "velocity": 88}, {"time": 3422, "pitch": 69, "duration": 8, "velocity": 87}, {"time": 3425, "pitch": 57, "duration": 7, "velocity": 68}, {"time": 3431, "pitch": 69, "duration": 10, "velocity": 91}, {"time": 3434, "pitch": 50, "duration": 15, "velocity": 80}, {"time": 3434, "pitch": 62, "duration": 8, "velocity": 84}, {"time": 3440, "pitch": 57, "duration": 9, "velocity": 75}, {"time": 3443, "pitch": 62, "duration": 2, "velocity": 40}, {"time": 3446, "pitch": 60, "duration": 7, "velocity": 88}, {"time": 3446, "pitch": 69, "duration": 5, "velocity": 78}, {"time": 3452, "pitch": 62, "duration": 6, "velocity": 87}, {"time": 3458, "pitch": 41, "duration": 18, "velocity": 83}, {"time": 3458, "pitch": 60, "duration": 9, "velocity": 85}, {"time": 3458, "pitch": 65, "duration": 8, "velocity": 84}, {"time": 3458, "pitch": 69, "duration": 8, "velocity": 80}, {"time": 3464, "pitch": 53, "duration": 7, "velocity": 63}, {"time": 3470, "pitch": 60, "duration": 10, "velocity": 86}, {"time": 3470, "pitch": 65, "duration": 11, "velocity": 86}, {"time": 3470, "pitch": 69, "duration": 9, "velocity": 86}, {"time": 3476, "pitch": 53, "duration": 7, "velocity": 81}, {"time": 3482, "pitch": 48, "duration": 24, "velocity": 76}, {"time": 3482, "pitch": 60, "duration": 8, "velocity": 82}, {"time": 3482, "pitch": 64, "duration": 8, "velocity": 89}, {"time": 3482, "pitch": 67, "duration": 7, "velocity": 79}, {"time": 3488, "pitch": 55, "duration": 13, "velocity": 67}, {"time": 3494, "pitch": 60, "duration": 6, "velocity": 84}, {"time": 3494, "pitch": 64, "duration": 7, "velocity": 88}, {"time": 3494, "pitch": 67, "duration": 6, "velocity": 85}, {"time": 3500, "pitch": 60, "duration": 2, "velocity": 97}, {"time": 3503, "pitch": 64, "duration": 2, "velocity": 97}, {"time": 3506, "pitch": 43, "duration": 19, "velocity": 81}, {"time": 3506, "pitch": 58, "duration": 8, "velocity": 93}, {"time": 3506, "pitch": 62, "duration": 7, "velocity": 88}, {"time": 3506, "pitch": 67, "duration": 7, "velocity": 84}, {"time": 3512, "pitch": 55, "duration": 7, "velocity": 42}, {"time": 3518, "pitch": 58, "duration": 6, "velocity": 86}, {"time": 3518, "pitch": 62, "duration": 7, "velocity": 91}, {"time": 3518, "pitch": 67, "duration": 6, "velocity": 89}, {"time": 3524, "pitch": 55, "duration": 6, "velocity": 82}, {"time": 3530, "pitch": 45, "duration": 19, "velocity": 79}, {"time": 3530, "pitch": 60, "duration": 9, "velocity": 86}, {"time": 3530, "pitch": 67, "duration": 8, "velocity": 87}, {"time": 3536, "pitch": 52, "duration": 7, "velocity": 71}, {"time": 3542, "pitch": 60, "duration": 8, "velocity": 86}, {"time": 3542, "pitch": 67, "duration": 6, "velocity": 89}, {"time": 3548, "pitch": 52, "duration": 2, "velocity": 75}, {"time": 3551, "pitch": 57, "duration": 2, "velocity": 97}, {"time": 3554, "pitch": 50, "duration": 18, "velocity": 76}, {"time": 3554, "pitch": 62, "duration": 10, "velocity": 81}, {"time": 3554, "pitch": 69, "duration": 9, "velocity": 87}, {"time": 3560, "pitch": 57, "duration": 7, "velocity": 60}, {"time": 3566, "pitch": 62, "duration": 9, "velocity": 83}, {"time": 3566, "pitch": 67, "duration": 12, "velocity": 88}, {"time": 3572, "pitch": 57, "duration": 6, "velocity": 64}, {"time": 3578, "pitch": 50, "duration": 12, "velocity": 74}, {"time": 3578, "pitch": 62, "duration": 14, "velocity": 83}, {"time": 3578, "pitch": 65, "duration": 15, "velocity": 84}, {"time": 3590, "pitch": 62, "duration": 2, "velocity": 83}, {"time": 3590, "pitch": 69, "duration": 5, "velocity": 82}, {"time": 3596, "pitch": 50, "duration": 6, "velocity": 81}, {"time": 3602, "pitch": 43, "duration": 15, "velocity": 73}, {"time": 3602, "pitch": 58, "duration": 11, "velocity": 84}, {"time": 3602, "pitch": 67, "duration": 10, "velocity": 85}, {"time": 3614, "pitch": 58, "duration": 6, "velocity": 84}, {"time": 3614, "pitch": 67, "duration": 8, "velocity": 86}, {"time": 3620, "pitch": 43, "duration": 3, "velocity": 100}, {"time": 3626, "pitch": 45, "duration": 21, "velocity": 77}, {"time": 3626, "pitch": 60, "duration": 10, "velocity": 83}, {"time": 3626, "pitch": 67, "duration": 9, "velocity": 87}, {"time": 3638, "pitch": 60, "duration": 8, "velocity": 86}, {"time": 3638, "pitch": 67, "duration": 12, "velocity": 89}, {"time": 3650, "pitch": 50, "duration": 19, "velocity": 74}, {"time": 3650, "pitch": 62, "duration": 11, "velocity": 83}, {"time": 3650, "pitch": 69, "duration": 11, "velocity": 87}, {"time": 3656, "pitch": 57, "duration": 8, "velocity": 66}, {"time": 3662, "pitch": 62, "duration": 22, "velocity": 80}, {"time": 3662, "pitch": 67, "duration": 11, "velocity": 87}, {"time": 3668, "pitch": 57, "duration": 7, "velocity": 69}, {"time": 3674, "pitch": 50, "duration": 23, "velocity": 81}, {"time": 3674, "pitch": 65, "duration": 10, "velocity": 86}, {"time": 3686, "pitch": 62, "duration": 10, "velocity": 79}, {"time": 3686, "pitch": 65, "duration": 10, "velocity": 84}, {"time": 3698, "pitch": 50, "duration": 17, "velocity": 90}, {"time": 3704, "pitch": 55, "duration": 18, "velocity": 72}, {"time": 3710, "pitch": 58, "duration": 13, "velocity": 83}, {"time": 3716, "pitch": 62, "duration": 9, "velocity": 80}, {"time": 3722, "pitch": 45, "duration": 20, "velocity": 82}, {"time": 3728, "pitch": 52, "duration": 15, "velocity": 67}, {"time": 3734, "pitch": 60, "duration": 8, "velocity": 73}, {"time": 3740, "pitch": 64, "duration": 12, "velocity": 82}, {"time": 3746, "pitch": 50, "duration": 42, "velocity": 81}, {"time": 3752, "pitch": 57, "duration": 19, "velocity": 67}, {"time": 3758, "pitch": 62, "duration": 11, "velocity": 73}, {"time": 3764, "pitch": 65, "duration": 6, "velocity": 77}, {"time": 3770, "pitch": 69, "duration": 11, "velocity": 83}, {"time": 3776, "pitch": 57, "duration": 19, "velocity": 67}, {"time": 3782, "pitch": 62, "duration": 12, "velocity": 69}, {"time": 3788, "pitch": 65, "duration": 13, "velocity": 75}, {"time": 3794, "pitch": 50, "duration": 44, "velocity": 79}, {"time": 3800, "pitch": 57, "duration": 18, "velocity": 78}, {"time": 3806, "pitch": 62, "duration": 7, "velocity": 71}, {"time": 3812, "pitch": 65, "duration": 6, "velocity": 75}, {"time": 3818, "pitch": 69, "duration": 9, "velocity": 75}, {"time": 3824, "pitch": 57, "duration": 8, "velocity": 66}, {"time": 3830, "pitch": 65, "duration": 7, "velocity": 81}, {"time": 3836, "pitch": 62, "duration": 19, "velocity": 69}, {"time": 3842, "pitch": 50, "duration": 15, "velocity": 64}, {"time": 3842, "pitch": 69, "duration": 15, "velocity": 67}]}]}