{"metadata": {"schema_version": "0.2", "title": "None", "source_filename": "274.mid", "source_format": "midi"}, "resolution": 12, "tempos": [{"time": 0, "qpm": 108.00030240084672}], "time_signatures": [{"time": 0, "numerator": 4, "denominator": 4}], "tracks": [{"program": 4, "is_drum": false, "name": "MELODY", "notes": [{"time": 395, "pitch": 63, "duration": 6, "velocity": 114}, {"time": 401, "pitch": 61, "duration": 6, "velocity": 90}, {"time": 407, "pitch": 63, "duration": 6, "velocity": 102}, {"time": 413, "pitch": 61, "duration": 7, "velocity": 87}, {"time": 419, "pitch": 63, "duration": 6, "velocity": 93}, {"time": 425, "pitch": 66, "duration": 6, "velocity": 102}, {"time": 431, "pitch": 66, "duration": 54, "velocity": 107}, {"time": 485, "pitch": 56, "duration": 6, "velocity": 104}, {"time": 491, "pitch": 59, "duration": 18, "velocity": 114}, {"time": 509, "pitch": 61, "duration": 12, "velocity": 113}, {"time": 521, "pitch": 59, "duration": 60, "velocity": 114}, {"time": 581, "pitch": 59, "duration": 6, "velocity": 92}, {"time": 587, "pitch": 59, "duration": 6, "velocity": 102}, {"time": 593, "pitch": 61, "duration": 6, "velocity": 102}, {"time": 599, "pitch": 63, "duration": 6, "velocity": 104}, {"time": 605, "pitch": 59, "duration": 24, "velocity": 100}, {"time": 629, "pitch": 56, "duration": 6, "velocity": 91}, {"time": 635, "pitch": 59, "duration": 6, "velocity": 96}, {"time": 641, "pitch": 61, "duration": 6, "velocity": 96}, {"time": 647, "pitch": 63, "duration": 6, "velocity": 91}, {"time": 653, "pitch": 59, "duration": 18, "velocity": 94}, {"time": 671, "pitch": 56, "duration": 12, "velocity": 92}, {"time": 683, "pitch": 61, "duration": 18, "velocity": 91}, {"time": 701, "pitch": 63, "duration": 72, "velocity": 108}, {"time": 773, "pitch": 54, "duration": 6, "velocity": 114}, {"time": 779, "pitch": 63, "duration": 6, "velocity": 114}, {"time": 785, "pitch": 61, "duration": 7, "velocity": 90}, {"time": 791, "pitch": 63, "duration": 6, "velocity": 107}, {"time": 797, "pitch": 61, "duration": 6, "velocity": 91}, {"time": 803, "pitch": 63, "duration": 6, "velocity": 94}, {"time": 809, "pitch": 66, "duration": 6, "velocity": 110}, {"time": 815, "pitch": 66, "duration": 54, "velocity": 114}, {"time": 869, "pitch": 54, "duration": 6, "velocity": 91}, {"time": 875, "pitch": 59, "duration": 18, "velocity": 108}, {"time": 893, "pitch": 61, "duration": 12, "velocity": 113}, {"time": 905, "pitch": 59, "duration": 60, "velocity": 102}, {"time": 965, "pitch": 59, "duration": 6, "velocity": 87}, {"time": 971, "pitch": 59, "duration": 6, "velocity": 102}, {"time": 977, "pitch": 61, "duration": 6, "velocity": 87}, {"time": 983, "pitch": 63, "duration": 6, "velocity": 90}, {"time": 989, "pitch": 59, "duration": 24, "velocity": 88}, {"time": 1013, "pitch": 54, "duration": 6, "velocity": 93}, {"time": 1019, "pitch": 59, "duration": 6, "velocity": 107}, {"time": 1025, "pitch": 61, "duration": 6, "velocity": 94}, {"time": 1031, "pitch": 63, "duration": 6, "velocity": 93}, {"time": 1037, "pitch": 59, "duration": 12, "velocity": 98}, {"time": 1049, "pitch": 54, "duration": 12, "velocity": 104}, {"time": 1061, "pitch": 66, "duration": 12, "velocity": 96}, {"time": 1073, "pitch": 63, "duration": 30, "velocity": 96}, {"time": 1103, "pitch": 64, "duration": 12, "velocity": 107}, {"time": 1115, "pitch": 66, "duration": 18, "velocity": 113}, {"time": 1133, "pitch": 66, "duration": 6, "velocity": 110}, {"time": 1139, "pitch": 75, "duration": 9, "velocity": 114}, {"time": 1148, "pitch": 73, "duration": 9, "velocity": 110}, {"time": 1157, "pitch": 71, "duration": 12, "velocity": 113}, {"time": 1169, "pitch": 71, "duration": 12, "velocity": 117}, {"time": 1181, "pitch": 71, "duration": 12, "velocity": 110}, {"time": 1193, "pitch": 71, "duration": 6, "velocity": 102}, {"time": 1199, "pitch": 68, "duration": 6, "velocity": 94}, {"time": 1205, "pitch": 66, "duration": 6, "velocity": 90}, {"time": 1211, "pitch": 78, "duration": 9, "velocity": 113}, {"time": 1220, "pitch": 80, "duration": 9, "velocity": 119}, {"time": 1229, "pitch": 80, "duration": 18, "velocity": 120}, {"time": 1247, "pitch": 71, "duration": 6, "velocity": 117}, {"time": 1253, "pitch": 73, "duration": 6, "velocity": 110}, {"time": 1259, "pitch": 75, "duration": 6, "velocity": 117}, {"time": 1265, "pitch": 78, "duration": 12, "velocity": 119}, {"time": 1277, "pitch": 78, "duration": 12, "velocity": 119}, {"time": 1289, "pitch": 71, "duration": 12, "velocity": 119}, {"time": 1301, "pitch": 73, "duration": 66, "velocity": 119}, {"time": 1367, "pitch": 71, "duration": 6, "velocity": 117}, {"time": 1373, "pitch": 71, "duration": 6, "velocity": 110}, {"time": 1379, "pitch": 71, "duration": 6, "velocity": 114}, {"time": 1385, "pitch": 71, "duration": 6, "velocity": 116}, {"time": 1391, "pitch": 68, "duration": 6, "velocity": 113}, {"time": 1397, "pitch": 66, "duration": 6, "velocity": 110}, {"time": 1403, "pitch": 78, "duration": 9, "velocity": 120}, {"time": 1412, "pitch": 80, "duration": 9, "velocity": 120}, {"time": 1421, "pitch": 80, "duration": 12, "velocity": 120}, {"time": 1433, "pitch": 71, "duration": 6, "velocity": 110}, {"time": 1439, "pitch": 71, "duration": 6, "velocity": 113}, {"time": 1445, "pitch": 73, "duration": 6, "velocity": 107}, {"time": 1451, "pitch": 75, "duration": 6, "velocity": 117}, {"time": 1457, "pitch": 78, "duration": 12, "velocity": 116}, {"time": 1469, "pitch": 71, "duration": 6, "velocity": 96}, {"time": 1475, "pitch": 78, "duration": 6, "velocity": 114}, {"time": 1481, "pitch": 75, "duration": 6, "velocity": 108}, {"time": 1487, "pitch": 73, "duration": 6, "velocity": 107}, {"time": 1493, "pitch": 73, "duration": 30, "velocity": 117}, {"time": 1523, "pitch": 75, "duration": 6, "velocity": 117}, {"time": 1529, "pitch": 73, "duration": 12, "velocity": 116}, {"time": 1541, "pitch": 71, "duration": 18, "velocity": 117}, {"time": 1559, "pitch": 71, "duration": 12, "velocity": 114}, {"time": 1571, "pitch": 71, "duration": 6, "velocity": 116}, {"time": 1577, "pitch": 71, "duration": 6, "velocity": 110}, {"time": 1583, "pitch": 68, "duration": 6, "velocity": 104}, {"time": 1589, "pitch": 66, "duration": 6, "velocity": 113}, {"time": 1595, "pitch": 78, "duration": 6, "velocity": 119}, {"time": 1601, "pitch": 80, "duration": 24, "velocity": 119}, {"time": 1625, "pitch": 71, "duration": 6, "velocity": 113}, {"time": 1631, "pitch": 71, "duration": 6, "velocity": 114}, {"time": 1637, "pitch": 73, "duration": 6, "velocity": 110}, {"time": 1643, "pitch": 75, "duration": 6, "velocity": 117}, {"time": 1649, "pitch": 78, "duration": 12, "velocity": 119}, {"time": 1661, "pitch": 78, "duration": 6, "velocity": 119}, {"time": 1667, "pitch": 78, "duration": 12, "velocity": 119}, {"time": 1679, "pitch": 71, "duration": 6, "velocity": 114}, {"time": 1685, "pitch": 73, "duration": 36, "velocity": 117}, {"time": 1721, "pitch": 73, "duration": 6, "velocity": 116}, {"time": 1727, "pitch": 75, "duration": 6, "velocity": 108}, {"time": 1733, "pitch": 71, "duration": 18, "velocity": 108}, {"time": 1751, "pitch": 71, "duration": 6, "velocity": 119}, {"time": 1757, "pitch": 71, "duration": 6, "velocity": 113}, {"time": 1763, "pitch": 71, "duration": 18, "velocity": 117}, {"time": 1781, "pitch": 68, "duration": 6, "velocity": 107}, {"time": 1787, "pitch": 78, "duration": 6, "velocity": 117}, {"time": 1793, "pitch": 80, "duration": 12, "velocity": 116}, {"time": 1805, "pitch": 80, "duration": 18, "velocity": 119}, {"time": 1823, "pitch": 71, "duration": 6, "velocity": 113}, {"time": 1829, "pitch": 75, "duration": 12, "velocity": 114}, {"time": 1841, "pitch": 78, "duration": 12, "velocity": 117}, {"time": 1853, "pitch": 78, "duration": 12, "velocity": 119}, {"time": 1865, "pitch": 75, "duration": 12, "velocity": 117}, {"time": 1877, "pitch": 73, "duration": 54, "velocity": 119}, {"time": 2123, "pitch": 63, "duration": 6, "velocity": 114}, {"time": 2129, "pitch": 61, "duration": 6, "velocity": 90}, {"time": 2135, "pitch": 63, "duration": 6, "velocity": 102}, {"time": 2141, "pitch": 61, "duration": 7, "velocity": 87}, {"time": 2147, "pitch": 63, "duration": 6, "velocity": 93}, {"time": 2153, "pitch": 66, "duration": 6, "velocity": 102}, {"time": 2159, "pitch": 66, "duration": 54, "velocity": 107}, {"time": 2213, "pitch": 56, "duration": 6, "velocity": 104}, {"time": 2219, "pitch": 59, "duration": 18, "velocity": 114}, {"time": 2237, "pitch": 61, "duration": 12, "velocity": 113}, {"time": 2249, "pitch": 59, "duration": 60, "velocity": 114}, {"time": 2309, "pitch": 59, "duration": 6, "velocity": 92}, {"time": 2315, "pitch": 59, "duration": 6, "velocity": 102}, {"time": 2321, "pitch": 61, "duration": 6, "velocity": 102}, {"time": 2327, "pitch": 63, "duration": 6, "velocity": 104}, {"time": 2333, "pitch": 59, "duration": 24, "velocity": 100}, {"time": 2357, "pitch": 56, "duration": 6, "velocity": 91}, {"time": 2363, "pitch": 59, "duration": 6, "velocity": 96}, {"time": 2369, "pitch": 61, "duration": 6, "velocity": 96}, {"time": 2375, "pitch": 63, "duration": 6, "velocity": 91}, {"time": 2381, "pitch": 59, "duration": 18, "velocity": 94}, {"time": 2399, "pitch": 56, "duration": 12, "velocity": 92}, {"time": 2411, "pitch": 61, "duration": 18, "velocity": 91}, {"time": 2429, "pitch": 63, "duration": 72, "velocity": 108}, {"time": 2501, "pitch": 54, "duration": 6, "velocity": 114}, {"time": 2507, "pitch": 63, "duration": 6, "velocity": 114}, {"time": 2513, "pitch": 61, "duration": 7, "velocity": 90}, {"time": 2519, "pitch": 63, "duration": 6, "velocity": 107}, {"time": 2525, "pitch": 61, "duration": 6, "velocity": 91}, {"time": 2531, "pitch": 63, "duration": 6, "velocity": 94}, {"time": 2537, "pitch": 66, "duration": 6, "velocity": 110}, {"time": 2543, "pitch": 66, "duration": 54, "velocity": 114}, {"time": 2597, "pitch": 54, "duration": 6, "velocity": 91}, {"time": 2603, "pitch": 59, "duration": 18, "velocity": 108}, {"time": 2621, "pitch": 61, "duration": 12, "velocity": 113}, {"time": 2633, "pitch": 59, "duration": 60, "velocity": 102}, {"time": 2693, "pitch": 59, "duration": 6, "velocity": 87}, {"time": 2699, "pitch": 59, "duration": 6, "velocity": 102}, {"time": 2705, "pitch": 61, "duration": 6, "velocity": 87}, {"time": 2711, "pitch": 63, "duration": 6, "velocity": 90}, {"time": 2717, "pitch": 59, "duration": 24, "velocity": 88}, {"time": 2741, "pitch": 54, "duration": 6, "velocity": 93}, {"time": 2747, "pitch": 59, "duration": 6, "velocity": 107}, {"time": 2753, "pitch": 61, "duration": 6, "velocity": 94}, {"time": 2759, "pitch": 63, "duration": 6, "velocity": 93}, {"time": 2765, "pitch": 59, "duration": 12, "velocity": 98}, {"time": 2777, "pitch": 66, "duration": 12, "velocity": 104}, {"time": 2789, "pitch": 63, "duration": 72, "velocity": 96}, {"time": 2861, "pitch": 66, "duration": 6, "velocity": 110}, {"time": 2867, "pitch": 75, "duration": 9, "velocity": 114}, {"time": 2876, "pitch": 73, "duration": 9, "velocity": 110}, {"time": 2885, "pitch": 71, "duration": 12, "velocity": 113}, {"time": 2897, "pitch": 71, "duration": 12, "velocity": 117}, {"time": 2909, "pitch": 71, "duration": 12, "velocity": 110}, {"time": 2921, "pitch": 71, "duration": 6, "velocity": 102}, {"time": 2927, "pitch": 68, "duration": 6, "velocity": 94}, {"time": 2933, "pitch": 66, "duration": 6, "velocity": 90}, {"time": 2939, "pitch": 78, "duration": 9, "velocity": 113}, {"time": 2948, "pitch": 80, "duration": 9, "velocity": 119}, {"time": 2957, "pitch": 80, "duration": 18, "velocity": 120}, {"time": 2975, "pitch": 71, "duration": 6, "velocity": 117}, {"time": 2981, "pitch": 73, "duration": 6, "velocity": 110}, {"time": 2987, "pitch": 75, "duration": 6, "velocity": 117}, {"time": 2993, "pitch": 78, "duration": 12, "velocity": 119}, {"time": 3005, "pitch": 78, "duration": 6, "velocity": 119}, {"time": 3011, "pitch": 78, "duration": 6, "velocity": 119}, {"time": 3017, "pitch": 71, "duration": 12, "velocity": 119}, {"time": 3029, "pitch": 73, "duration": 66, "velocity": 119}, {"time": 3095, "pitch": 71, "duration": 6, "velocity": 117}, {"time": 3101, "pitch": 71, "duration": 6, "velocity": 110}, {"time": 3107, "pitch": 71, "duration": 6, "velocity": 114}, {"time": 3113, "pitch": 71, "duration": 6, "velocity": 116}, {"time": 3119, "pitch": 68, "duration": 6, "velocity": 113}, {"time": 3125, "pitch": 66, "duration": 6, "velocity": 110}, {"time": 3131, "pitch": 78, "duration": 9, "velocity": 120}, {"time": 3140, "pitch": 80, "duration": 9, "velocity": 120}, {"time": 3149, "pitch": 80, "duration": 12, "velocity": 120}, {"time": 3161, "pitch": 71, "duration": 6, "velocity": 110}, {"time": 3167, "pitch": 71, "duration": 6, "velocity": 113}, {"time": 3173, "pitch": 73, "duration": 6, "velocity": 107}, {"time": 3179, "pitch": 75, "duration": 6, "velocity": 117}, {"time": 3185, "pitch": 78, "duration": 12, "velocity": 116}, {"time": 3197, "pitch": 71, "duration": 6, "velocity": 96}, {"time": 3203, "pitch": 78, "duration": 6, "velocity": 114}, {"time": 3209, "pitch": 75, "duration": 6, "velocity": 108}, {"time": 3215, "pitch": 73, "duration": 6, "velocity": 107}, {"time": 3221, "pitch": 73, "duration": 30, "velocity": 117}, {"time": 3251, "pitch": 75, "duration": 6, "velocity": 117}, {"time": 3257, "pitch": 73, "duration": 12, "velocity": 116}, {"time": 3269, "pitch": 71, "duration": 18, "velocity": 117}, {"time": 3287, "pitch": 71, "duration": 12, "velocity": 114}, {"time": 3299, "pitch": 71, "duration": 6, "velocity": 116}, {"time": 3305, "pitch": 71, "duration": 6, "velocity": 110}, {"time": 3311, "pitch": 68, "duration": 6, "velocity": 104}, {"time": 3317, "pitch": 66, "duration": 6, "velocity": 113}, {"time": 3323, "pitch": 78, "duration": 6, "velocity": 119}, {"time": 3329, "pitch": 80, "duration": 24, "velocity": 119}, {"time": 3353, "pitch": 71, "duration": 6, "velocity": 113}, {"time": 3359, "pitch": 71, "duration": 6, "velocity": 114}, {"time": 3365, "pitch": 73, "duration": 6, "velocity": 110}, {"time": 3371, "pitch": 75, "duration": 6, "velocity": 117}, {"time": 3377, "pitch": 78, "duration": 12, "velocity": 119}, {"time": 3389, "pitch": 78, "duration": 6, "velocity": 119}, {"time": 3395, "pitch": 78, "duration": 12, "velocity": 119}, {"time": 3407, "pitch": 71, "duration": 6, "velocity": 114}, {"time": 3413, "pitch": 73, "duration": 36, "velocity": 117}, {"time": 3449, "pitch": 73, "duration": 6, "velocity": 116}, {"time": 3455, "pitch": 75, "duration": 6, "velocity": 108}, {"time": 3461, "pitch": 71, "duration": 18, "velocity": 108}, {"time": 3479, "pitch": 71, "duration": 6, "velocity": 119}, {"time": 3485, "pitch": 71, "duration": 6, "velocity": 113}, {"time": 3491, "pitch": 71, "duration": 18, "velocity": 117}, {"time": 3509, "pitch": 68, "duration": 6, "velocity": 107}, {"time": 3515, "pitch": 78, "duration": 6, "velocity": 117}, {"time": 3521, "pitch": 80, "duration": 12, "velocity": 116}, {"time": 3533, "pitch": 80, "duration": 18, "velocity": 119}, {"time": 3551, "pitch": 71, "duration": 6, "velocity": 113}, {"time": 3557, "pitch": 75, "duration": 12, "velocity": 114}, {"time": 3569, "pitch": 78, "duration": 12, "velocity": 117}, {"time": 3581, "pitch": 78, "duration": 12, "velocity": 119}, {"time": 3593, "pitch": 75, "duration": 12, "velocity": 117}, {"time": 3605, "pitch": 73, "duration": 75, "velocity": 119}, {"time": 4013, "pitch": 66, "duration": 6, "velocity": 110}, {"time": 4019, "pitch": 75, "duration": 9, "velocity": 114}, {"time": 4028, "pitch": 73, "duration": 9, "velocity": 110}, {"time": 4037, "pitch": 71, "duration": 12, "velocity": 113}, {"time": 4049, "pitch": 71, "duration": 12, "velocity": 117}, {"time": 4061, "pitch": 71, "duration": 12, "velocity": 110}, {"time": 4073, "pitch": 71, "duration": 6, "velocity": 102}, {"time": 4079, "pitch": 68, "duration": 6, "velocity": 94}, {"time": 4085, "pitch": 66, "duration": 6, "velocity": 90}, {"time": 4091, "pitch": 78, "duration": 9, "velocity": 113}, {"time": 4100, "pitch": 80, "duration": 9, "velocity": 119}, {"time": 4109, "pitch": 80, "duration": 18, "velocity": 120}, {"time": 4127, "pitch": 71, "duration": 6, "velocity": 117}, {"time": 4133, "pitch": 73, "duration": 6, "velocity": 110}, {"time": 4139, "pitch": 75, "duration": 6, "velocity": 117}, {"time": 4145, "pitch": 78, "duration": 12, "velocity": 119}, {"time": 4157, "pitch": 78, "duration": 12, "velocity": 119}, {"time": 4169, "pitch": 71, "duration": 12, "velocity": 119}, {"time": 4181, "pitch": 73, "duration": 66, "velocity": 119}, {"time": 4247, "pitch": 71, "duration": 6, "velocity": 117}, {"time": 4253, "pitch": 71, "duration": 6, "velocity": 110}, {"time": 4259, "pitch": 71, "duration": 6, "velocity": 114}, {"time": 4265, "pitch": 71, "duration": 6, "velocity": 116}, {"time": 4271, "pitch": 68, "duration": 6, "velocity": 113}, {"time": 4277, "pitch": 66, "duration": 6, "velocity": 110}, {"time": 4283, "pitch": 78, "duration": 9, "velocity": 120}, {"time": 4292, "pitch": 80, "duration": 9, "velocity": 120}, {"time": 4301, "pitch": 80, "duration": 12, "velocity": 120}, {"time": 4313, "pitch": 71, "duration": 6, "velocity": 110}, {"time": 4319, "pitch": 71, "duration": 6, "velocity": 113}, {"time": 4325, "pitch": 73, "duration": 6, "velocity": 107}, {"time": 4331, "pitch": 75, "duration": 6, "velocity": 117}, {"time": 4337, "pitch": 78, "duration": 12, "velocity": 116}, {"time": 4349, "pitch": 71, "duration": 6, "velocity": 96}, {"time": 4355, "pitch": 78, "duration": 6, "velocity": 114}, {"time": 4361, "pitch": 75, "duration": 6, "velocity": 108}, {"time": 4367, "pitch": 73, "duration": 6, "velocity": 107}, {"time": 4373, "pitch": 73, "duration": 30, "velocity": 117}, {"time": 4403, "pitch": 75, "duration": 6, "velocity": 117}, {"time": 4409, "pitch": 73, "duration": 12, "velocity": 116}, {"time": 4421, "pitch": 71, "duration": 18, "velocity": 117}, {"time": 4439, "pitch": 71, "duration": 12, "velocity": 114}, {"time": 4451, "pitch": 71, "duration": 6, "velocity": 116}, {"time": 4457, "pitch": 71, "duration": 6, "velocity": 110}, {"time": 4463, "pitch": 68, "duration": 6, "velocity": 104}, {"time": 4469, "pitch": 66, "duration": 6, "velocity": 113}, {"time": 4475, "pitch": 78, "duration": 6, "velocity": 119}, {"time": 4481, "pitch": 80, "duration": 24, "velocity": 119}, {"time": 4505, "pitch": 71, "duration": 6, "velocity": 113}, {"time": 4511, "pitch": 71, "duration": 6, "velocity": 114}, {"time": 4517, "pitch": 73, "duration": 6, "velocity": 110}, {"time": 4523, "pitch": 75, "duration": 6, "velocity": 117}, {"time": 4529, "pitch": 78, "duration": 12, "velocity": 119}, {"time": 4541, "pitch": 78, "duration": 6, "velocity": 119}, {"time": 4547, "pitch": 78, "duration": 12, "velocity": 119}, {"time": 4559, "pitch": 71, "duration": 6, "velocity": 114}, {"time": 4565, "pitch": 73, "duration": 36, "velocity": 117}, {"time": 4601, "pitch": 73, "duration": 6, "velocity": 116}, {"time": 4607, "pitch": 75, "duration": 6, "velocity": 108}, {"time": 4613, "pitch": 71, "duration": 18, "velocity": 108}, {"time": 4631, "pitch": 71, "duration": 6, "velocity": 119}, {"time": 4637, "pitch": 71, "duration": 6, "velocity": 113}, {"time": 4643, "pitch": 71, "duration": 18, "velocity": 117}, {"time": 4661, "pitch": 68, "duration": 6, "velocity": 107}, {"time": 4667, "pitch": 78, "duration": 6, "velocity": 117}, {"time": 4673, "pitch": 80, "duration": 12, "velocity": 116}, {"time": 4685, "pitch": 80, "duration": 12, "velocity": 119}, {"time": 4697, "pitch": 71, "duration": 12, "velocity": 113}, {"time": 4709, "pitch": 73, "duration": 6, "velocity": 114}, {"time": 4715, "pitch": 75, "duration": 6, "velocity": 114}, {"time": 4721, "pitch": 78, "duration": 12, "velocity": 117}, {"time": 4733, "pitch": 78, "duration": 12, "velocity": 119}, {"time": 4745, "pitch": 75, "duration": 12, "velocity": 117}, {"time": 4757, "pitch": 73, "duration": 54, "velocity": 119}, {"time": 5003, "pitch": 63, "duration": 6, "velocity": 114}, {"time": 5009, "pitch": 61, "duration": 6, "velocity": 90}, {"time": 5015, "pitch": 63, "duration": 6, "velocity": 102}, {"time": 5021, "pitch": 61, "duration": 7, "velocity": 87}, {"time": 5027, "pitch": 63, "duration": 6, "velocity": 93}, {"time": 5033, "pitch": 66, "duration": 6, "velocity": 102}, {"time": 5039, "pitch": 66, "duration": 54, "velocity": 107}, {"time": 5093, "pitch": 56, "duration": 6, "velocity": 104}, {"time": 5099, "pitch": 59, "duration": 18, "velocity": 114}, {"time": 5117, "pitch": 61, "duration": 12, "velocity": 113}, {"time": 5129, "pitch": 59, "duration": 60, "velocity": 114}, {"time": 5189, "pitch": 59, "duration": 6, "velocity": 92}, {"time": 5195, "pitch": 59, "duration": 6, "velocity": 102}, {"time": 5201, "pitch": 61, "duration": 6, "velocity": 102}, {"time": 5207, "pitch": 63, "duration": 6, "velocity": 104}, {"time": 5213, "pitch": 59, "duration": 24, "velocity": 100}, {"time": 5237, "pitch": 56, "duration": 6, "velocity": 91}, {"time": 5243, "pitch": 59, "duration": 6, "velocity": 96}, {"time": 5249, "pitch": 61, "duration": 6, "velocity": 96}, {"time": 5255, "pitch": 63, "duration": 6, "velocity": 91}, {"time": 5261, "pitch": 59, "duration": 18, "velocity": 94}, {"time": 5279, "pitch": 56, "duration": 12, "velocity": 92}, {"time": 5291, "pitch": 61, "duration": 18, "velocity": 91}, {"time": 5309, "pitch": 63, "duration": 30, "velocity": 108}]}, {"program": 0, "is_drum": false, "name": "PIANO", "notes": [{"time": 203, "pitch": 47, "duration": 45, "velocity": 100}, {"time": 209, "pitch": 54, "duration": 42, "velocity": 87}, {"time": 215, "pitch": 59, "duration": 1, "velocity": 78}, {"time": 215, "pitch": 63, "duration": 1, "velocity": 85}, {"time": 215, "pitch": 66, "duration": 1, "velocity": 81}, {"time": 221, "pitch": 59, "duration": 20, "velocity": 86}, {"time": 221, "pitch": 63, "duration": 21, "velocity": 94}, {"time": 221, "pitch": 66, "duration": 21, "velocity": 87}, {"time": 245, "pitch": 59, "duration": 7, "velocity": 85}, {"time": 245, "pitch": 63, "duration": 7, "velocity": 86}, {"time": 245, "pitch": 66, "duration": 7, "velocity": 86}, {"time": 251, "pitch": 47, "duration": 43, "velocity": 91}, {"time": 257, "pitch": 54, "duration": 19, "velocity": 85}, {"time": 263, "pitch": 59, "duration": 1, "velocity": 84}, {"time": 263, "pitch": 63, "duration": 1, "velocity": 88}, {"time": 263, "pitch": 66, "duration": 1, "velocity": 84}, {"time": 269, "pitch": 59, "duration": 15, "velocity": 88}, {"time": 269, "pitch": 63, "duration": 14, "velocity": 90}, {"time": 269, "pitch": 66, "duration": 14, "velocity": 91}, {"time": 281, "pitch": 54, "duration": 12, "velocity": 71}, {"time": 293, "pitch": 59, "duration": 6, "velocity": 76}, {"time": 293, "pitch": 63, "duration": 6, "velocity": 80}, {"time": 293, "pitch": 66, "duration": 5, "velocity": 82}, {"time": 299, "pitch": 47, "duration": 42, "velocity": 94}, {"time": 305, "pitch": 59, "duration": 2, "velocity": 81}, {"time": 305, "pitch": 63, "duration": 1, "velocity": 84}, {"time": 305, "pitch": 66, "duration": 1, "velocity": 83}, {"time": 311, "pitch": 59, "duration": 1, "velocity": 86}, {"time": 311, "pitch": 63, "duration": 1, "velocity": 87}, {"time": 311, "pitch": 66, "duration": 1, "velocity": 82}, {"time": 317, "pitch": 59, "duration": 19, "velocity": 87}, {"time": 317, "pitch": 63, "duration": 19, "velocity": 96}, {"time": 317, "pitch": 66, "duration": 19, "velocity": 90}, {"time": 335, "pitch": 54, "duration": 6, "velocity": 76}, {"time": 341, "pitch": 59, "duration": 6, "velocity": 87}, {"time": 341, "pitch": 63, "duration": 6, "velocity": 88}, {"time": 341, "pitch": 66, "duration": 6, "velocity": 88}, {"time": 347, "pitch": 47, "duration": 23, "velocity": 89}, {"time": 353, "pitch": 54, "duration": 18, "velocity": 85}, {"time": 359, "pitch": 59, "duration": 1, "velocity": 86}, {"time": 359, "pitch": 63, "duration": 1, "velocity": 91}, {"time": 359, "pitch": 66, "duration": 1, "velocity": 87}, {"time": 365, "pitch": 59, "duration": 13, "velocity": 88}, {"time": 365, "pitch": 63, "duration": 13, "velocity": 93}, {"time": 365, "pitch": 66, "duration": 13, "velocity": 91}, {"time": 395, "pitch": 47, "duration": 43, "velocity": 92}, {"time": 401, "pitch": 54, "duration": 17, "velocity": 78}, {"time": 407, "pitch": 59, "duration": 1, "velocity": 84}, {"time": 407, "pitch": 63, "duration": 1, "velocity": 81}, {"time": 413, "pitch": 59, "duration": 13, "velocity": 84}, {"time": 413, "pitch": 63, "duration": 13, "velocity": 88}, {"time": 413, "pitch": 66, "duration": 13, "velocity": 83}, {"time": 425, "pitch": 54, "duration": 14, "velocity": 67}, {"time": 431, "pitch": 59, "duration": 18, "velocity": 80}, {"time": 431, "pitch": 63, "duration": 18, "velocity": 82}, {"time": 431, "pitch": 66, "duration": 18, "velocity": 84}, {"time": 443, "pitch": 47, "duration": 39, "velocity": 89}, {"time": 449, "pitch": 54, "duration": 14, "velocity": 83}, {"time": 455, "pitch": 59, "duration": 1, "velocity": 81}, {"time": 455, "pitch": 63, "duration": 1, "velocity": 84}, {"time": 455, "pitch": 66, "duration": 1, "velocity": 84}, {"time": 461, "pitch": 59, "duration": 12, "velocity": 91}, {"time": 461, "pitch": 63, "duration": 13, "velocity": 96}, {"time": 461, "pitch": 66, "duration": 12, "velocity": 91}, {"time": 473, "pitch": 54, "duration": 9, "velocity": 65}, {"time": 479, "pitch": 59, "duration": 11, "velocity": 87}, {"time": 479, "pitch": 63, "duration": 12, "velocity": 88}, {"time": 479, "pitch": 66, "duration": 11, "velocity": 88}, {"time": 491, "pitch": 52, "duration": 43, "velocity": 90}, {"time": 497, "pitch": 59, "duration": 2, "velocity": 79}, {"time": 497, "pitch": 64, "duration": 1, "velocity": 77}, {"time": 497, "pitch": 68, "duration": 1, "velocity": 74}, {"time": 503, "pitch": 64, "duration": 1, "velocity": 77}, {"time": 503, "pitch": 68, "duration": 1, "velocity": 75}, {"time": 509, "pitch": 59, "duration": 31, "velocity": 89}, {"time": 509, "pitch": 64, "duration": 31, "velocity": 94}, {"time": 509, "pitch": 68, "duration": 31, "velocity": 92}, {"time": 539, "pitch": 52, "duration": 25, "velocity": 88}, {"time": 545, "pitch": 59, "duration": 2, "velocity": 77}, {"time": 545, "pitch": 64, "duration": 1, "velocity": 80}, {"time": 545, "pitch": 68, "duration": 1, "velocity": 81}, {"time": 551, "pitch": 59, "duration": 1, "velocity": 79}, {"time": 551, "pitch": 64, "duration": 1, "velocity": 80}, {"time": 557, "pitch": 59, "duration": 14, "velocity": 92}, {"time": 557, "pitch": 64, "duration": 13, "velocity": 102}, {"time": 557, "pitch": 68, "duration": 13, "velocity": 96}, {"time": 569, "pitch": 52, "duration": 10, "velocity": 82}, {"time": 575, "pitch": 59, "duration": 10, "velocity": 90}, {"time": 575, "pitch": 64, "duration": 11, "velocity": 94}, {"time": 575, "pitch": 68, "duration": 11, "velocity": 91}, {"time": 587, "pitch": 49, "duration": 44, "velocity": 92}, {"time": 593, "pitch": 56, "duration": 19, "velocity": 86}, {"time": 599, "pitch": 61, "duration": 1, "velocity": 81}, {"time": 599, "pitch": 64, "duration": 1, "velocity": 82}, {"time": 599, "pitch": 68, "duration": 1, "velocity": 75}, {"time": 605, "pitch": 61, "duration": 37, "velocity": 89}, {"time": 605, "pitch": 64, "duration": 37, "velocity": 93}, {"time": 605, "pitch": 68, "duration": 37, "velocity": 90}, {"time": 635, "pitch": 49, "duration": 40, "velocity": 87}, {"time": 641, "pitch": 56, "duration": 17, "velocity": 80}, {"time": 647, "pitch": 61, "duration": 1, "velocity": 79}, {"time": 647, "pitch": 64, "duration": 1, "velocity": 80}, {"time": 647, "pitch": 68, "duration": 1, "velocity": 79}, {"time": 653, "pitch": 61, "duration": 18, "velocity": 88}, {"time": 653, "pitch": 64, "duration": 18, "velocity": 93}, {"time": 653, "pitch": 68, "duration": 18, "velocity": 90}, {"time": 671, "pitch": 56, "duration": 4, "velocity": 70}, {"time": 677, "pitch": 61, "duration": 8, "velocity": 75}, {"time": 677, "pitch": 64, "duration": 8, "velocity": 77}, {"time": 677, "pitch": 68, "duration": 7, "velocity": 77}, {"time": 683, "pitch": 47, "duration": 43, "velocity": 89}, {"time": 689, "pitch": 54, "duration": 18, "velocity": 78}, {"time": 695, "pitch": 63, "duration": 1, "velocity": 81}, {"time": 701, "pitch": 59, "duration": 19, "velocity": 83}, {"time": 701, "pitch": 63, "duration": 20, "velocity": 87}, {"time": 701, "pitch": 66, "duration": 19, "velocity": 87}, {"time": 719, "pitch": 54, "duration": 12, "velocity": 65}, {"time": 725, "pitch": 59, "duration": 11, "velocity": 71}, {"time": 725, "pitch": 63, "duration": 11, "velocity": 77}, {"time": 725, "pitch": 66, "duration": 9, "velocity": 79}, {"time": 731, "pitch": 47, "duration": 43, "velocity": 88}, {"time": 737, "pitch": 54, "duration": 16, "velocity": 83}, {"time": 743, "pitch": 59, "duration": 1, "velocity": 85}, {"time": 743, "pitch": 63, "duration": 1, "velocity": 86}, {"time": 743, "pitch": 66, "duration": 1, "velocity": 87}, {"time": 749, "pitch": 59, "duration": 13, "velocity": 88}, {"time": 749, "pitch": 63, "duration": 13, "velocity": 94}, {"time": 749, "pitch": 66, "duration": 13, "velocity": 91}, {"time": 761, "pitch": 54, "duration": 7, "velocity": 68}, {"time": 767, "pitch": 59, "duration": 13, "velocity": 89}, {"time": 767, "pitch": 63, "duration": 13, "velocity": 98}, {"time": 767, "pitch": 66, "duration": 13, "velocity": 91}, {"time": 779, "pitch": 47, "duration": 42, "velocity": 88}, {"time": 785, "pitch": 54, "duration": 17, "velocity": 85}, {"time": 791, "pitch": 59, "duration": 1, "velocity": 85}, {"time": 791, "pitch": 63, "duration": 1, "velocity": 87}, {"time": 791, "pitch": 66, "duration": 1, "velocity": 87}, {"time": 797, "pitch": 59, "duration": 12, "velocity": 89}, {"time": 797, "pitch": 63, "duration": 12, "velocity": 94}, {"time": 797, "pitch": 66, "duration": 12, "velocity": 91}, {"time": 809, "pitch": 54, "duration": 18, "velocity": 73}, {"time": 815, "pitch": 59, "duration": 18, "velocity": 73}, {"time": 815, "pitch": 63, "duration": 19, "velocity": 79}, {"time": 815, "pitch": 66, "duration": 18, "velocity": 80}, {"time": 824, "pitch": 47, "duration": 39, "velocity": 87}, {"time": 833, "pitch": 54, "duration": 16, "velocity": 76}, {"time": 839, "pitch": 59, "duration": 1, "velocity": 77}, {"time": 839, "pitch": 63, "duration": 1, "velocity": 80}, {"time": 839, "pitch": 66, "duration": 1, "velocity": 78}, {"time": 845, "pitch": 59, "duration": 13, "velocity": 96}, {"time": 845, "pitch": 63, "duration": 13, "velocity": 108}, {"time": 845, "pitch": 66, "duration": 13, "velocity": 98}, {"time": 857, "pitch": 54, "duration": 8, "velocity": 74}, {"time": 863, "pitch": 59, "duration": 10, "velocity": 88}, {"time": 863, "pitch": 63, "duration": 12, "velocity": 91}, {"time": 863, "pitch": 66, "duration": 12, "velocity": 88}, {"time": 875, "pitch": 52, "duration": 43, "velocity": 83}, {"time": 881, "pitch": 59, "duration": 15, "velocity": 79}, {"time": 887, "pitch": 64, "duration": 1, "velocity": 82}, {"time": 887, "pitch": 71, "duration": 1, "velocity": 79}, {"time": 893, "pitch": 64, "duration": 16, "velocity": 89}, {"time": 893, "pitch": 68, "duration": 15, "velocity": 94}, {"time": 893, "pitch": 71, "duration": 15, "velocity": 89}, {"time": 905, "pitch": 59, "duration": 19, "velocity": 71}, {"time": 917, "pitch": 64, "duration": 13, "velocity": 78}, {"time": 917, "pitch": 68, "duration": 13, "velocity": 83}, {"time": 917, "pitch": 71, "duration": 12, "velocity": 77}, {"time": 923, "pitch": 52, "duration": 39, "velocity": 87}, {"time": 929, "pitch": 59, "duration": 15, "velocity": 78}, {"time": 935, "pitch": 64, "duration": 1, "velocity": 81}, {"time": 935, "pitch": 68, "duration": 1, "velocity": 82}, {"time": 935, "pitch": 71, "duration": 1, "velocity": 75}, {"time": 941, "pitch": 64, "duration": 12, "velocity": 88}, {"time": 941, "pitch": 68, "duration": 12, "velocity": 96}, {"time": 941, "pitch": 71, "duration": 12, "velocity": 89}, {"time": 953, "pitch": 59, "duration": 8, "velocity": 75}, {"time": 959, "pitch": 64, "duration": 12, "velocity": 89}, {"time": 959, "pitch": 68, "duration": 12, "velocity": 96}, {"time": 959, "pitch": 71, "duration": 12, "velocity": 88}, {"time": 971, "pitch": 49, "duration": 44, "velocity": 90}, {"time": 977, "pitch": 56, "duration": 20, "velocity": 84}, {"time": 983, "pitch": 64, "duration": 1, "velocity": 73}, {"time": 989, "pitch": 61, "duration": 21, "velocity": 93}, {"time": 989, "pitch": 64, "duration": 21, "velocity": 102}, {"time": 989, "pitch": 68, "duration": 21, "velocity": 92}, {"time": 1007, "pitch": 56, "duration": 11, "velocity": 70}, {"time": 1019, "pitch": 49, "duration": 39, "velocity": 91}, {"time": 1025, "pitch": 56, "duration": 17, "velocity": 83}, {"time": 1031, "pitch": 61, "duration": 1, "velocity": 84}, {"time": 1031, "pitch": 64, "duration": 1, "velocity": 83}, {"time": 1031, "pitch": 68, "duration": 1, "velocity": 86}, {"time": 1037, "pitch": 61, "duration": 13, "velocity": 100}, {"time": 1037, "pitch": 64, "duration": 13, "velocity": 108}, {"time": 1037, "pitch": 68, "duration": 13, "velocity": 102}, {"time": 1049, "pitch": 56, "duration": 8, "velocity": 71}, {"time": 1055, "pitch": 61, "duration": 11, "velocity": 86}, {"time": 1055, "pitch": 64, "duration": 11, "velocity": 87}, {"time": 1055, "pitch": 68, "duration": 12, "velocity": 86}, {"time": 1067, "pitch": 47, "duration": 43, "velocity": 92}, {"time": 1073, "pitch": 54, "duration": 16, "velocity": 84}, {"time": 1079, "pitch": 63, "duration": 1, "velocity": 75}, {"time": 1085, "pitch": 59, "duration": 14, "velocity": 91}, {"time": 1085, "pitch": 63, "duration": 14, "velocity": 100}, {"time": 1085, "pitch": 66, "duration": 14, "velocity": 93}, {"time": 1097, "pitch": 54, "duration": 17, "velocity": 68}, {"time": 1109, "pitch": 59, "duration": 11, "velocity": 81}, {"time": 1109, "pitch": 63, "duration": 12, "velocity": 84}, {"time": 1109, "pitch": 66, "duration": 8, "velocity": 77}, {"time": 1115, "pitch": 47, "duration": 22, "velocity": 90}, {"time": 1121, "pitch": 54, "duration": 20, "velocity": 86}, {"time": 1127, "pitch": 59, "duration": 1, "velocity": 78}, {"time": 1127, "pitch": 63, "duration": 1, "velocity": 81}, {"time": 1133, "pitch": 59, "duration": 13, "velocity": 87}, {"time": 1133, "pitch": 63, "duration": 13, "velocity": 92}, {"time": 1133, "pitch": 66, "duration": 12, "velocity": 90}, {"time": 1139, "pitch": 46, "duration": 23, "velocity": 88}, {"time": 1157, "pitch": 59, "duration": 6, "velocity": 82}, {"time": 1157, "pitch": 63, "duration": 7, "velocity": 87}, {"time": 1157, "pitch": 66, "duration": 5, "velocity": 82}, {"time": 1163, "pitch": 44, "duration": 43, "velocity": 88}, {"time": 1169, "pitch": 51, "duration": 31, "velocity": 77}, {"time": 1175, "pitch": 56, "duration": 8, "velocity": 87}, {"time": 1181, "pitch": 59, "duration": 12, "velocity": 91}, {"time": 1181, "pitch": 63, "duration": 12, "velocity": 100}, {"time": 1181, "pitch": 68, "duration": 12, "velocity": 96}, {"time": 1193, "pitch": 56, "duration": 12, "velocity": 82}, {"time": 1199, "pitch": 59, "duration": 13, "velocity": 88}, {"time": 1199, "pitch": 63, "duration": 17, "velocity": 91}, {"time": 1199, "pitch": 68, "duration": 13, "velocity": 91}, {"time": 1211, "pitch": 40, "duration": 42, "velocity": 92}, {"time": 1217, "pitch": 47, "duration": 37, "velocity": 86}, {"time": 1223, "pitch": 52, "duration": 11, "velocity": 91}, {"time": 1229, "pitch": 59, "duration": 13, "velocity": 94}, {"time": 1229, "pitch": 64, "duration": 13, "velocity": 114}, {"time": 1229, "pitch": 68, "duration": 12, "velocity": 108}, {"time": 1241, "pitch": 52, "duration": 6, "velocity": 91}, {"time": 1247, "pitch": 59, "duration": 18, "velocity": 98}, {"time": 1247, "pitch": 64, "duration": 20, "velocity": 116}, {"time": 1247, "pitch": 68, "duration": 15, "velocity": 107}, {"time": 1253, "pitch": 52, "duration": 4, "velocity": 86}, {"time": 1259, "pitch": 47, "duration": 41, "velocity": 98}, {"time": 1265, "pitch": 54, "duration": 15, "velocity": 87}, {"time": 1271, "pitch": 59, "duration": 2, "velocity": 82}, {"time": 1271, "pitch": 63, "duration": 2, "velocity": 85}, {"time": 1271, "pitch": 66, "duration": 1, "velocity": 83}, {"time": 1277, "pitch": 59, "duration": 11, "velocity": 108}, {"time": 1277, "pitch": 63, "duration": 11, "velocity": 116}, {"time": 1277, "pitch": 66, "duration": 11, "velocity": 113}, {"time": 1286, "pitch": 54, "duration": 12, "velocity": 88}, {"time": 1295, "pitch": 59, "duration": 16, "velocity": 102}, {"time": 1295, "pitch": 63, "duration": 17, "velocity": 114}, {"time": 1295, "pitch": 66, "duration": 16, "velocity": 104}, {"time": 1307, "pitch": 42, "duration": 43, "velocity": 100}, {"time": 1313, "pitch": 49, "duration": 41, "velocity": 87}, {"time": 1319, "pitch": 54, "duration": 9, "velocity": 89}, {"time": 1325, "pitch": 58, "duration": 12, "velocity": 110}, {"time": 1325, "pitch": 61, "duration": 12, "velocity": 116}, {"time": 1325, "pitch": 66, "duration": 12, "velocity": 104}, {"time": 1337, "pitch": 54, "duration": 6, "velocity": 108}, {"time": 1343, "pitch": 58, "duration": 14, "velocity": 110}, {"time": 1343, "pitch": 61, "duration": 16, "velocity": 116}, {"time": 1343, "pitch": 66, "duration": 15, "velocity": 107}, {"time": 1349, "pitch": 54, "duration": 4, "velocity": 89}, {"time": 1355, "pitch": 44, "duration": 41, "velocity": 100}, {"time": 1361, "pitch": 51, "duration": 34, "velocity": 91}, {"time": 1367, "pitch": 56, "duration": 12, "velocity": 107}, {"time": 1373, "pitch": 59, "duration": 12, "velocity": 107}, {"time": 1373, "pitch": 63, "duration": 12, "velocity": 113}, {"time": 1373, "pitch": 68, "duration": 12, "velocity": 110}, {"time": 1385, "pitch": 56, "duration": 9, "velocity": 107}, {"time": 1391, "pitch": 59, "duration": 13, "velocity": 110}, {"time": 1391, "pitch": 63, "duration": 13, "velocity": 117}, {"time": 1391, "pitch": 68, "duration": 14, "velocity": 108}, {"time": 1403, "pitch": 52, "duration": 43, "velocity": 110}, {"time": 1406, "pitch": 59, "duration": 17, "velocity": 84}, {"time": 1415, "pitch": 64, "duration": 1, "velocity": 87}, {"time": 1415, "pitch": 68, "duration": 1, "velocity": 88}, {"time": 1421, "pitch": 64, "duration": 12, "velocity": 110}, {"time": 1421, "pitch": 68, "duration": 12, "velocity": 119}, {"time": 1421, "pitch": 71, "duration": 12, "velocity": 108}, {"time": 1433, "pitch": 59, "duration": 13, "velocity": 91}, {"time": 1439, "pitch": 64, "duration": 14, "velocity": 104}, {"time": 1439, "pitch": 68, "duration": 15, "velocity": 113}, {"time": 1439, "pitch": 71, "duration": 15, "velocity": 100}, {"time": 1451, "pitch": 47, "duration": 40, "velocity": 107}, {"time": 1457, "pitch": 54, "duration": 33, "velocity": 86}, {"time": 1463, "pitch": 59, "duration": 9, "velocity": 88}, {"time": 1469, "pitch": 63, "duration": 13, "velocity": 107}, {"time": 1469, "pitch": 66, "duration": 12, "velocity": 110}, {"time": 1469, "pitch": 71, "duration": 13, "velocity": 104}, {"time": 1481, "pitch": 59, "duration": 8, "velocity": 93}, {"time": 1487, "pitch": 63, "duration": 13, "velocity": 108}, {"time": 1487, "pitch": 66, "duration": 14, "velocity": 114}, {"time": 1487, "pitch": 71, "duration": 13, "velocity": 98}, {"time": 1499, "pitch": 42, "duration": 42, "velocity": 104}, {"time": 1505, "pitch": 49, "duration": 41, "velocity": 84}, {"time": 1511, "pitch": 54, "duration": 8, "velocity": 100}, {"time": 1517, "pitch": 58, "duration": 11, "velocity": 107}, {"time": 1517, "pitch": 61, "duration": 11, "velocity": 114}, {"time": 1517, "pitch": 66, "duration": 12, "velocity": 107}, {"time": 1529, "pitch": 54, "duration": 6, "velocity": 108}, {"time": 1535, "pitch": 58, "duration": 9, "velocity": 104}, {"time": 1535, "pitch": 61, "duration": 10, "velocity": 113}, {"time": 1535, "pitch": 66, "duration": 9, "velocity": 102}, {"time": 1541, "pitch": 54, "duration": 4, "velocity": 85}, {"time": 1547, "pitch": 44, "duration": 39, "velocity": 89}, {"time": 1547, "pitch": 59, "duration": 16, "velocity": 102}, {"time": 1547, "pitch": 63, "duration": 15, "velocity": 104}, {"time": 1547, "pitch": 68, "duration": 15, "velocity": 102}, {"time": 1559, "pitch": 51, "duration": 10, "velocity": 88}, {"time": 1565, "pitch": 59, "duration": 13, "velocity": 114}, {"time": 1565, "pitch": 63, "duration": 13, "velocity": 114}, {"time": 1565, "pitch": 68, "duration": 13, "velocity": 107}, {"time": 1577, "pitch": 51, "duration": 6, "velocity": 93}, {"time": 1583, "pitch": 59, "duration": 9, "velocity": 110}, {"time": 1583, "pitch": 63, "duration": 10, "velocity": 114}, {"time": 1583, "pitch": 68, "duration": 9, "velocity": 100}, {"time": 1589, "pitch": 44, "duration": 3, "velocity": 96}, {"time": 1595, "pitch": 40, "duration": 43, "velocity": 108}, {"time": 1595, "pitch": 59, "duration": 15, "velocity": 107}, {"time": 1595, "pitch": 64, "duration": 15, "velocity": 113}, {"time": 1595, "pitch": 68, "duration": 15, "velocity": 100}, {"time": 1607, "pitch": 47, "duration": 11, "velocity": 87}, {"time": 1613, "pitch": 59, "duration": 12, "velocity": 113}, {"time": 1613, "pitch": 64, "duration": 12, "velocity": 116}, {"time": 1613, "pitch": 68, "duration": 12, "velocity": 108}, {"time": 1625, "pitch": 47, "duration": 7, "velocity": 96}, {"time": 1631, "pitch": 59, "duration": 9, "velocity": 110}, {"time": 1631, "pitch": 64, "duration": 10, "velocity": 117}, {"time": 1631, "pitch": 68, "duration": 8, "velocity": 108}, {"time": 1637, "pitch": 47, "duration": 2, "velocity": 94}, {"time": 1643, "pitch": 47, "duration": 38, "velocity": 108}, {"time": 1643, "pitch": 59, "duration": 14, "velocity": 104}, {"time": 1643, "pitch": 63, "duration": 13, "velocity": 114}, {"time": 1643, "pitch": 66, "duration": 14, "velocity": 110}, {"time": 1649, "pitch": 54, "duration": 1, "velocity": 79}, {"time": 1655, "pitch": 54, "duration": 11, "velocity": 98}, {"time": 1661, "pitch": 59, "duration": 13, "velocity": 110}, {"time": 1661, "pitch": 63, "duration": 12, "velocity": 117}, {"time": 1661, "pitch": 66, "duration": 12, "velocity": 108}, {"time": 1673, "pitch": 54, "duration": 8, "velocity": 104}, {"time": 1679, "pitch": 59, "duration": 8, "velocity": 107}, {"time": 1679, "pitch": 63, "duration": 10, "velocity": 116}, {"time": 1679, "pitch": 66, "duration": 8, "velocity": 102}, {"time": 1685, "pitch": 47, "duration": 2, "velocity": 104}, {"time": 1691, "pitch": 42, "duration": 42, "velocity": 108}, {"time": 1691, "pitch": 58, "duration": 13, "velocity": 104}, {"time": 1691, "pitch": 61, "duration": 13, "velocity": 114}, {"time": 1691, "pitch": 66, "duration": 13, "velocity": 94}, {"time": 1697, "pitch": 49, "duration": 37, "velocity": 87}, {"time": 1703, "pitch": 54, "duration": 9, "velocity": 88}, {"time": 1709, "pitch": 58, "duration": 12, "velocity": 110}, {"time": 1709, "pitch": 61, "duration": 12, "velocity": 116}, {"time": 1709, "pitch": 66, "duration": 12, "velocity": 108}, {"time": 1721, "pitch": 54, "duration": 7, "velocity": 94}, {"time": 1727, "pitch": 58, "duration": 7, "velocity": 110}, {"time": 1727, "pitch": 61, "duration": 10, "velocity": 114}, {"time": 1727, "pitch": 66, "duration": 7, "velocity": 108}, {"time": 1733, "pitch": 54, "duration": 3, "velocity": 80}, {"time": 1739, "pitch": 44, "duration": 36, "velocity": 93}, {"time": 1739, "pitch": 59, "duration": 13, "velocity": 100}, {"time": 1739, "pitch": 63, "duration": 13, "velocity": 110}, {"time": 1739, "pitch": 68, "duration": 12, "velocity": 100}, {"time": 1745, "pitch": 51, "duration": 31, "velocity": 86}, {"time": 1751, "pitch": 56, "duration": 10, "velocity": 90}, {"time": 1757, "pitch": 59, "duration": 13, "velocity": 108}, {"time": 1757, "pitch": 63, "duration": 12, "velocity": 117}, {"time": 1757, "pitch": 68, "duration": 13, "velocity": 113}, {"time": 1769, "pitch": 56, "duration": 7, "velocity": 100}, {"time": 1775, "pitch": 59, "duration": 10, "velocity": 110}, {"time": 1775, "pitch": 63, "duration": 9, "velocity": 116}, {"time": 1775, "pitch": 68, "duration": 9, "velocity": 107}, {"time": 1781, "pitch": 44, "duration": 2, "velocity": 94}, {"time": 1787, "pitch": 40, "duration": 42, "velocity": 107}, {"time": 1787, "pitch": 59, "duration": 14, "velocity": 110}, {"time": 1787, "pitch": 64, "duration": 13, "velocity": 116}, {"time": 1787, "pitch": 68, "duration": 13, "velocity": 102}, {"time": 1793, "pitch": 47, "duration": 37, "velocity": 82}, {"time": 1799, "pitch": 52, "duration": 7, "velocity": 86}, {"time": 1805, "pitch": 59, "duration": 13, "velocity": 114}, {"time": 1805, "pitch": 64, "duration": 13, "velocity": 117}, {"time": 1805, "pitch": 68, "duration": 13, "velocity": 108}, {"time": 1817, "pitch": 52, "duration": 5, "velocity": 104}, {"time": 1823, "pitch": 59, "duration": 9, "velocity": 110}, {"time": 1823, "pitch": 64, "duration": 9, "velocity": 117}, {"time": 1823, "pitch": 68, "duration": 8, "velocity": 107}, {"time": 1829, "pitch": 52, "duration": 5, "velocity": 107}, {"time": 1835, "pitch": 47, "duration": 38, "velocity": 107}, {"time": 1835, "pitch": 59, "duration": 14, "velocity": 96}, {"time": 1835, "pitch": 63, "duration": 14, "velocity": 108}, {"time": 1835, "pitch": 66, "duration": 14, "velocity": 100}, {"time": 1838, "pitch": 54, "duration": 5, "velocity": 82}, {"time": 1847, "pitch": 54, "duration": 11, "velocity": 88}, {"time": 1853, "pitch": 59, "duration": 13, "velocity": 107}, {"time": 1853, "pitch": 63, "duration": 13, "velocity": 116}, {"time": 1853, "pitch": 66, "duration": 13, "velocity": 107}, {"time": 1865, "pitch": 54, "duration": 8, "velocity": 100}, {"time": 1871, "pitch": 59, "duration": 8, "velocity": 107}, {"time": 1871, "pitch": 63, "duration": 11, "velocity": 114}, {"time": 1871, "pitch": 66, "duration": 9, "velocity": 104}, {"time": 1877, "pitch": 47, "duration": 2, "velocity": 92}, {"time": 1883, "pitch": 42, "duration": 42, "velocity": 102}, {"time": 1883, "pitch": 58, "duration": 13, "velocity": 104}, {"time": 1883, "pitch": 61, "duration": 13, "velocity": 108}, {"time": 1883, "pitch": 66, "duration": 13, "velocity": 91}, {"time": 1889, "pitch": 49, "duration": 42, "velocity": 78}, {"time": 1895, "pitch": 54, "duration": 9, "velocity": 85}, {"time": 1901, "pitch": 58, "duration": 13, "velocity": 108}, {"time": 1901, "pitch": 61, "duration": 13, "velocity": 114}, {"time": 1901, "pitch": 66, "duration": 13, "velocity": 96}, {"time": 1913, "pitch": 54, "duration": 6, "velocity": 88}, {"time": 1919, "pitch": 58, "duration": 7, "velocity": 88}, {"time": 1919, "pitch": 61, "duration": 7, "velocity": 90}, {"time": 1919, "pitch": 66, "duration": 6, "velocity": 88}, {"time": 1931, "pitch": 47, "duration": 12, "velocity": 100}, {"time": 1937, "pitch": 54, "duration": 10, "velocity": 84}, {"time": 1943, "pitch": 71, "duration": 9, "velocity": 107}, {"time": 1946, "pitch": 59, "duration": 11, "velocity": 82}, {"time": 1955, "pitch": 61, "duration": 13, "velocity": 86}, {"time": 1955, "pitch": 73, "duration": 8, "velocity": 110}, {"time": 1967, "pitch": 63, "duration": 2, "velocity": 81}, {"time": 1967, "pitch": 75, "duration": 12, "velocity": 102}, {"time": 1979, "pitch": 47, "duration": 11, "velocity": 86}, {"time": 1979, "pitch": 71, "duration": 8, "velocity": 102}, {"time": 1985, "pitch": 54, "duration": 6, "velocity": 75}, {"time": 1991, "pitch": 59, "duration": 6, "velocity": 83}, {"time": 1991, "pitch": 73, "duration": 8, "velocity": 102}, {"time": 1997, "pitch": 61, "duration": 14, "velocity": 86}, {"time": 2003, "pitch": 75, "duration": 8, "velocity": 102}, {"time": 2009, "pitch": 63, "duration": 6, "velocity": 89}, {"time": 2015, "pitch": 78, "duration": 10, "velocity": 108}, {"time": 2027, "pitch": 47, "duration": 10, "velocity": 86}, {"time": 2033, "pitch": 54, "duration": 5, "velocity": 73}, {"time": 2039, "pitch": 59, "duration": 5, "velocity": 80}, {"time": 2039, "pitch": 66, "duration": 7, "velocity": 88}, {"time": 2039, "pitch": 71, "duration": 7, "velocity": 91}, {"time": 2045, "pitch": 61, "duration": 12, "velocity": 86}, {"time": 2051, "pitch": 66, "duration": 6, "velocity": 94}, {"time": 2051, "pitch": 73, "duration": 7, "velocity": 104}, {"time": 2057, "pitch": 63, "duration": 7, "velocity": 88}, {"time": 2063, "pitch": 66, "duration": 18, "velocity": 104}, {"time": 2063, "pitch": 75, "duration": 10, "velocity": 104}, {"time": 2075, "pitch": 47, "duration": 11, "velocity": 86}, {"time": 2075, "pitch": 71, "duration": 7, "velocity": 102}, {"time": 2081, "pitch": 54, "duration": 6, "velocity": 81}, {"time": 2087, "pitch": 59, "duration": 6, "velocity": 81}, {"time": 2087, "pitch": 66, "duration": 7, "velocity": 96}, {"time": 2087, "pitch": 73, "duration": 7, "velocity": 102}, {"time": 2093, "pitch": 61, "duration": 11, "velocity": 85}, {"time": 2099, "pitch": 66, "duration": 6, "velocity": 91}, {"time": 2099, "pitch": 75, "duration": 7, "velocity": 102}, {"time": 2105, "pitch": 63, "duration": 7, "velocity": 87}, {"time": 2111, "pitch": 66, "duration": 9, "velocity": 110}, {"time": 2111, "pitch": 78, "duration": 9, "velocity": 107}, {"time": 2123, "pitch": 47, "duration": 43, "velocity": 92}, {"time": 2129, "pitch": 54, "duration": 17, "velocity": 78}, {"time": 2135, "pitch": 59, "duration": 1, "velocity": 84}, {"time": 2135, "pitch": 63, "duration": 1, "velocity": 81}, {"time": 2141, "pitch": 59, "duration": 13, "velocity": 84}, {"time": 2141, "pitch": 63, "duration": 13, "velocity": 88}, {"time": 2141, "pitch": 66, "duration": 13, "velocity": 83}, {"time": 2153, "pitch": 54, "duration": 14, "velocity": 67}, {"time": 2159, "pitch": 59, "duration": 18, "velocity": 80}, {"time": 2159, "pitch": 63, "duration": 18, "velocity": 82}, {"time": 2159, "pitch": 66, "duration": 18, "velocity": 84}, {"time": 2171, "pitch": 47, "duration": 39, "velocity": 89}, {"time": 2177, "pitch": 54, "duration": 14, "velocity": 83}, {"time": 2183, "pitch": 59, "duration": 1, "velocity": 81}, {"time": 2183, "pitch": 63, "duration": 1, "velocity": 84}, {"time": 2183, "pitch": 66, "duration": 1, "velocity": 84}, {"time": 2189, "pitch": 59, "duration": 12, "velocity": 91}, {"time": 2189, "pitch": 63, "duration": 13, "velocity": 96}, {"time": 2189, "pitch": 66, "duration": 12, "velocity": 91}, {"time": 2201, "pitch": 54, "duration": 9, "velocity": 65}, {"time": 2207, "pitch": 59, "duration": 11, "velocity": 87}, {"time": 2207, "pitch": 63, "duration": 12, "velocity": 88}, {"time": 2207, "pitch": 66, "duration": 11, "velocity": 88}, {"time": 2219, "pitch": 52, "duration": 43, "velocity": 90}, {"time": 2225, "pitch": 59, "duration": 2, "velocity": 79}, {"time": 2225, "pitch": 64, "duration": 1, "velocity": 77}, {"time": 2225, "pitch": 68, "duration": 1, "velocity": 74}, {"time": 2231, "pitch": 64, "duration": 1, "velocity": 77}, {"time": 2231, "pitch": 68, "duration": 1, "velocity": 75}, {"time": 2237, "pitch": 59, "duration": 31, "velocity": 89}, {"time": 2237, "pitch": 64, "duration": 31, "velocity": 94}, {"time": 2237, "pitch": 68, "duration": 31, "velocity": 92}, {"time": 2267, "pitch": 52, "duration": 25, "velocity": 88}, {"time": 2273, "pitch": 59, "duration": 2, "velocity": 77}, {"time": 2273, "pitch": 64, "duration": 1, "velocity": 80}, {"time": 2273, "pitch": 68, "duration": 1, "velocity": 81}, {"time": 2279, "pitch": 59, "duration": 1, "velocity": 79}, {"time": 2279, "pitch": 64, "duration": 1, "velocity": 80}, {"time": 2285, "pitch": 59, "duration": 14, "velocity": 92}, {"time": 2285, "pitch": 64, "duration": 13, "velocity": 102}, {"time": 2285, "pitch": 68, "duration": 13, "velocity": 96}, {"time": 2297, "pitch": 52, "duration": 10, "velocity": 82}, {"time": 2303, "pitch": 59, "duration": 10, "velocity": 90}, {"time": 2303, "pitch": 64, "duration": 11, "velocity": 94}, {"time": 2303, "pitch": 68, "duration": 11, "velocity": 91}, {"time": 2315, "pitch": 49, "duration": 44, "velocity": 92}, {"time": 2321, "pitch": 56, "duration": 19, "velocity": 86}, {"time": 2327, "pitch": 61, "duration": 1, "velocity": 81}, {"time": 2327, "pitch": 64, "duration": 1, "velocity": 82}, {"time": 2327, "pitch": 68, "duration": 1, "velocity": 75}, {"time": 2333, "pitch": 61, "duration": 37, "velocity": 89}, {"time": 2333, "pitch": 64, "duration": 37, "velocity": 93}, {"time": 2333, "pitch": 68, "duration": 37, "velocity": 90}, {"time": 2363, "pitch": 49, "duration": 40, "velocity": 87}, {"time": 2369, "pitch": 56, "duration": 17, "velocity": 80}, {"time": 2375, "pitch": 61, "duration": 1, "velocity": 79}, {"time": 2375, "pitch": 64, "duration": 1, "velocity": 80}, {"time": 2375, "pitch": 68, "duration": 1, "velocity": 79}, {"time": 2381, "pitch": 61, "duration": 18, "velocity": 88}, {"time": 2381, "pitch": 64, "duration": 18, "velocity": 93}, {"time": 2381, "pitch": 68, "duration": 18, "velocity": 90}, {"time": 2399, "pitch": 56, "duration": 4, "velocity": 70}, {"time": 2405, "pitch": 61, "duration": 8, "velocity": 75}, {"time": 2405, "pitch": 64, "duration": 8, "velocity": 77}, {"time": 2405, "pitch": 68, "duration": 7, "velocity": 77}, {"time": 2411, "pitch": 47, "duration": 43, "velocity": 89}, {"time": 2417, "pitch": 54, "duration": 18, "velocity": 78}, {"time": 2423, "pitch": 63, "duration": 1, "velocity": 81}, {"time": 2429, "pitch": 59, "duration": 19, "velocity": 83}, {"time": 2429, "pitch": 63, "duration": 20, "velocity": 87}, {"time": 2429, "pitch": 66, "duration": 19, "velocity": 87}, {"time": 2447, "pitch": 54, "duration": 12, "velocity": 65}, {"time": 2453, "pitch": 59, "duration": 11, "velocity": 71}, {"time": 2453, "pitch": 63, "duration": 11, "velocity": 77}, {"time": 2453, "pitch": 66, "duration": 9, "velocity": 79}, {"time": 2459, "pitch": 47, "duration": 43, "velocity": 88}, {"time": 2465, "pitch": 54, "duration": 16, "velocity": 83}, {"time": 2471, "pitch": 59, "duration": 1, "velocity": 85}, {"time": 2471, "pitch": 63, "duration": 1, "velocity": 86}, {"time": 2471, "pitch": 66, "duration": 1, "velocity": 87}, {"time": 2477, "pitch": 59, "duration": 13, "velocity": 88}, {"time": 2477, "pitch": 63, "duration": 13, "velocity": 94}, {"time": 2477, "pitch": 66, "duration": 13, "velocity": 91}, {"time": 2489, "pitch": 54, "duration": 7, "velocity": 68}, {"time": 2495, "pitch": 59, "duration": 13, "velocity": 89}, {"time": 2495, "pitch": 63, "duration": 13, "velocity": 98}, {"time": 2495, "pitch": 66, "duration": 13, "velocity": 91}, {"time": 2507, "pitch": 47, "duration": 42, "velocity": 88}, {"time": 2513, "pitch": 54, "duration": 17, "velocity": 85}, {"time": 2519, "pitch": 59, "duration": 1, "velocity": 85}, {"time": 2519, "pitch": 63, "duration": 1, "velocity": 87}, {"time": 2519, "pitch": 66, "duration": 1, "velocity": 87}, {"time": 2525, "pitch": 59, "duration": 12, "velocity": 89}, {"time": 2525, "pitch": 63, "duration": 12, "velocity": 94}, {"time": 2525, "pitch": 66, "duration": 12, "velocity": 91}, {"time": 2537, "pitch": 54, "duration": 18, "velocity": 73}, {"time": 2540, "pitch": 66, "duration": 18, "velocity": 80}, {"time": 2543, "pitch": 59, "duration": 18, "velocity": 73}, {"time": 2543, "pitch": 63, "duration": 19, "velocity": 79}, {"time": 2552, "pitch": 47, "duration": 39, "velocity": 87}, {"time": 2561, "pitch": 54, "duration": 16, "velocity": 76}, {"time": 2567, "pitch": 59, "duration": 1, "velocity": 77}, {"time": 2567, "pitch": 63, "duration": 1, "velocity": 80}, {"time": 2567, "pitch": 66, "duration": 1, "velocity": 78}, {"time": 2573, "pitch": 59, "duration": 13, "velocity": 96}, {"time": 2573, "pitch": 63, "duration": 13, "velocity": 108}, {"time": 2573, "pitch": 66, "duration": 13, "velocity": 98}, {"time": 2585, "pitch": 54, "duration": 8, "velocity": 74}, {"time": 2591, "pitch": 59, "duration": 10, "velocity": 88}, {"time": 2591, "pitch": 63, "duration": 12, "velocity": 91}, {"time": 2591, "pitch": 66, "duration": 12, "velocity": 88}, {"time": 2603, "pitch": 52, "duration": 43, "velocity": 83}, {"time": 2609, "pitch": 59, "duration": 15, "velocity": 79}, {"time": 2615, "pitch": 64, "duration": 1, "velocity": 82}, {"time": 2615, "pitch": 71, "duration": 1, "velocity": 79}, {"time": 2621, "pitch": 64, "duration": 16, "velocity": 89}, {"time": 2621, "pitch": 68, "duration": 15, "velocity": 94}, {"time": 2621, "pitch": 71, "duration": 15, "velocity": 89}, {"time": 2633, "pitch": 59, "duration": 19, "velocity": 71}, {"time": 2645, "pitch": 64, "duration": 13, "velocity": 78}, {"time": 2645, "pitch": 68, "duration": 13, "velocity": 83}, {"time": 2645, "pitch": 71, "duration": 12, "velocity": 77}, {"time": 2651, "pitch": 52, "duration": 39, "velocity": 87}, {"time": 2657, "pitch": 59, "duration": 15, "velocity": 78}, {"time": 2663, "pitch": 64, "duration": 1, "velocity": 81}, {"time": 2663, "pitch": 68, "duration": 1, "velocity": 82}, {"time": 2663, "pitch": 71, "duration": 1, "velocity": 75}, {"time": 2669, "pitch": 64, "duration": 12, "velocity": 88}, {"time": 2669, "pitch": 68, "duration": 12, "velocity": 96}, {"time": 2669, "pitch": 71, "duration": 12, "velocity": 89}, {"time": 2681, "pitch": 59, "duration": 8, "velocity": 75}, {"time": 2687, "pitch": 64, "duration": 12, "velocity": 89}, {"time": 2687, "pitch": 68, "duration": 12, "velocity": 96}, {"time": 2687, "pitch": 71, "duration": 12, "velocity": 88}, {"time": 2699, "pitch": 49, "duration": 44, "velocity": 90}, {"time": 2705, "pitch": 56, "duration": 20, "velocity": 84}, {"time": 2711, "pitch": 64, "duration": 1, "velocity": 73}, {"time": 2717, "pitch": 61, "duration": 21, "velocity": 93}, {"time": 2717, "pitch": 64, "duration": 21, "velocity": 102}, {"time": 2717, "pitch": 68, "duration": 21, "velocity": 92}, {"time": 2735, "pitch": 56, "duration": 11, "velocity": 70}, {"time": 2747, "pitch": 49, "duration": 39, "velocity": 91}, {"time": 2753, "pitch": 56, "duration": 17, "velocity": 83}, {"time": 2759, "pitch": 61, "duration": 1, "velocity": 84}, {"time": 2759, "pitch": 64, "duration": 1, "velocity": 83}, {"time": 2759, "pitch": 68, "duration": 1, "velocity": 86}, {"time": 2765, "pitch": 61, "duration": 13, "velocity": 100}, {"time": 2765, "pitch": 64, "duration": 13, "velocity": 108}, {"time": 2765, "pitch": 68, "duration": 13, "velocity": 102}, {"time": 2777, "pitch": 56, "duration": 8, "velocity": 71}, {"time": 2783, "pitch": 61, "duration": 11, "velocity": 86}, {"time": 2783, "pitch": 64, "duration": 11, "velocity": 87}, {"time": 2783, "pitch": 68, "duration": 12, "velocity": 86}, {"time": 2795, "pitch": 47, "duration": 43, "velocity": 92}, {"time": 2801, "pitch": 54, "duration": 16, "velocity": 84}, {"time": 2807, "pitch": 63, "duration": 1, "velocity": 75}, {"time": 2813, "pitch": 59, "duration": 14, "velocity": 91}, {"time": 2813, "pitch": 63, "duration": 14, "velocity": 100}, {"time": 2813, "pitch": 66, "duration": 14, "velocity": 93}, {"time": 2825, "pitch": 54, "duration": 17, "velocity": 68}, {"time": 2837, "pitch": 59, "duration": 11, "velocity": 81}, {"time": 2837, "pitch": 63, "duration": 12, "velocity": 84}, {"time": 2837, "pitch": 66, "duration": 8, "velocity": 77}, {"time": 2843, "pitch": 47, "duration": 22, "velocity": 90}, {"time": 2849, "pitch": 54, "duration": 20, "velocity": 86}, {"time": 2855, "pitch": 59, "duration": 1, "velocity": 78}, {"time": 2855, "pitch": 63, "duration": 1, "velocity": 81}, {"time": 2861, "pitch": 59, "duration": 13, "velocity": 87}, {"time": 2861, "pitch": 63, "duration": 13, "velocity": 92}, {"time": 2861, "pitch": 66, "duration": 12, "velocity": 90}, {"time": 2867, "pitch": 46, "duration": 23, "velocity": 88}, {"time": 2885, "pitch": 59, "duration": 6, "velocity": 82}, {"time": 2885, "pitch": 63, "duration": 7, "velocity": 87}, {"time": 2885, "pitch": 66, "duration": 5, "velocity": 82}, {"time": 2891, "pitch": 44, "duration": 43, "velocity": 88}, {"time": 2897, "pitch": 51, "duration": 31, "velocity": 77}, {"time": 2903, "pitch": 56, "duration": 8, "velocity": 87}, {"time": 2909, "pitch": 59, "duration": 12, "velocity": 91}, {"time": 2909, "pitch": 63, "duration": 12, "velocity": 100}, {"time": 2909, "pitch": 68, "duration": 12, "velocity": 96}, {"time": 2921, "pitch": 56, "duration": 12, "velocity": 82}, {"time": 2927, "pitch": 59, "duration": 13, "velocity": 88}, {"time": 2927, "pitch": 63, "duration": 17, "velocity": 91}, {"time": 2927, "pitch": 68, "duration": 13, "velocity": 91}, {"time": 2939, "pitch": 40, "duration": 42, "velocity": 92}, {"time": 2945, "pitch": 47, "duration": 37, "velocity": 86}, {"time": 2951, "pitch": 52, "duration": 11, "velocity": 91}, {"time": 2957, "pitch": 59, "duration": 13, "velocity": 94}, {"time": 2957, "pitch": 64, "duration": 13, "velocity": 114}, {"time": 2957, "pitch": 68, "duration": 12, "velocity": 108}, {"time": 2969, "pitch": 52, "duration": 6, "velocity": 91}, {"time": 2975, "pitch": 59, "duration": 18, "velocity": 98}, {"time": 2975, "pitch": 64, "duration": 20, "velocity": 116}, {"time": 2975, "pitch": 68, "duration": 15, "velocity": 107}, {"time": 2981, "pitch": 52, "duration": 4, "velocity": 86}, {"time": 2987, "pitch": 47, "duration": 41, "velocity": 98}, {"time": 2993, "pitch": 54, "duration": 15, "velocity": 87}, {"time": 2999, "pitch": 59, "duration": 2, "velocity": 82}, {"time": 2999, "pitch": 63, "duration": 2, "velocity": 85}, {"time": 2999, "pitch": 66, "duration": 1, "velocity": 83}, {"time": 3005, "pitch": 59, "duration": 11, "velocity": 108}, {"time": 3005, "pitch": 63, "duration": 11, "velocity": 116}, {"time": 3005, "pitch": 66, "duration": 11, "velocity": 113}, {"time": 3014, "pitch": 54, "duration": 12, "velocity": 88}, {"time": 3023, "pitch": 59, "duration": 16, "velocity": 102}, {"time": 3023, "pitch": 63, "duration": 17, "velocity": 114}, {"time": 3023, "pitch": 66, "duration": 16, "velocity": 104}, {"time": 3035, "pitch": 42, "duration": 43, "velocity": 100}, {"time": 3041, "pitch": 49, "duration": 41, "velocity": 87}, {"time": 3047, "pitch": 54, "duration": 9, "velocity": 89}, {"time": 3053, "pitch": 58, "duration": 12, "velocity": 110}, {"time": 3053, "pitch": 61, "duration": 12, "velocity": 116}, {"time": 3053, "pitch": 66, "duration": 12, "velocity": 104}, {"time": 3065, "pitch": 54, "duration": 6, "velocity": 108}, {"time": 3071, "pitch": 58, "duration": 14, "velocity": 110}, {"time": 3071, "pitch": 61, "duration": 16, "velocity": 116}, {"time": 3071, "pitch": 66, "duration": 15, "velocity": 107}, {"time": 3077, "pitch": 54, "duration": 4, "velocity": 89}, {"time": 3083, "pitch": 44, "duration": 41, "velocity": 100}, {"time": 3089, "pitch": 51, "duration": 34, "velocity": 91}, {"time": 3095, "pitch": 56, "duration": 12, "velocity": 107}, {"time": 3101, "pitch": 59, "duration": 12, "velocity": 107}, {"time": 3101, "pitch": 63, "duration": 12, "velocity": 113}, {"time": 3101, "pitch": 68, "duration": 12, "velocity": 110}, {"time": 3113, "pitch": 56, "duration": 9, "velocity": 107}, {"time": 3119, "pitch": 59, "duration": 13, "velocity": 110}, {"time": 3119, "pitch": 63, "duration": 13, "velocity": 117}, {"time": 3119, "pitch": 68, "duration": 14, "velocity": 108}, {"time": 3131, "pitch": 52, "duration": 43, "velocity": 110}, {"time": 3134, "pitch": 59, "duration": 17, "velocity": 84}, {"time": 3143, "pitch": 64, "duration": 1, "velocity": 87}, {"time": 3143, "pitch": 68, "duration": 1, "velocity": 88}, {"time": 3149, "pitch": 64, "duration": 12, "velocity": 110}, {"time": 3149, "pitch": 68, "duration": 12, "velocity": 119}, {"time": 3149, "pitch": 71, "duration": 12, "velocity": 108}, {"time": 3161, "pitch": 59, "duration": 13, "velocity": 91}, {"time": 3167, "pitch": 64, "duration": 14, "velocity": 104}, {"time": 3167, "pitch": 68, "duration": 15, "velocity": 113}, {"time": 3167, "pitch": 71, "duration": 15, "velocity": 100}, {"time": 3179, "pitch": 47, "duration": 40, "velocity": 107}, {"time": 3185, "pitch": 54, "duration": 33, "velocity": 86}, {"time": 3191, "pitch": 59, "duration": 9, "velocity": 88}, {"time": 3197, "pitch": 63, "duration": 13, "velocity": 107}, {"time": 3197, "pitch": 66, "duration": 12, "velocity": 110}, {"time": 3197, "pitch": 71, "duration": 13, "velocity": 104}, {"time": 3209, "pitch": 59, "duration": 8, "velocity": 93}, {"time": 3215, "pitch": 63, "duration": 13, "velocity": 108}, {"time": 3215, "pitch": 66, "duration": 14, "velocity": 114}, {"time": 3215, "pitch": 71, "duration": 13, "velocity": 98}, {"time": 3227, "pitch": 42, "duration": 42, "velocity": 104}, {"time": 3233, "pitch": 49, "duration": 41, "velocity": 84}, {"time": 3239, "pitch": 54, "duration": 8, "velocity": 100}, {"time": 3245, "pitch": 58, "duration": 11, "velocity": 107}, {"time": 3245, "pitch": 61, "duration": 11, "velocity": 114}, {"time": 3245, "pitch": 66, "duration": 12, "velocity": 107}, {"time": 3257, "pitch": 54, "duration": 6, "velocity": 108}, {"time": 3263, "pitch": 58, "duration": 9, "velocity": 104}, {"time": 3263, "pitch": 61, "duration": 10, "velocity": 113}, {"time": 3263, "pitch": 66, "duration": 9, "velocity": 102}, {"time": 3269, "pitch": 54, "duration": 4, "velocity": 85}, {"time": 3275, "pitch": 44, "duration": 39, "velocity": 89}, {"time": 3275, "pitch": 59, "duration": 16, "velocity": 102}, {"time": 3275, "pitch": 63, "duration": 15, "velocity": 104}, {"time": 3275, "pitch": 68, "duration": 15, "velocity": 102}, {"time": 3287, "pitch": 51, "duration": 10, "velocity": 88}, {"time": 3293, "pitch": 59, "duration": 13, "velocity": 114}, {"time": 3293, "pitch": 63, "duration": 13, "velocity": 114}, {"time": 3293, "pitch": 68, "duration": 13, "velocity": 107}, {"time": 3305, "pitch": 51, "duration": 6, "velocity": 93}, {"time": 3311, "pitch": 59, "duration": 9, "velocity": 110}, {"time": 3311, "pitch": 63, "duration": 10, "velocity": 114}, {"time": 3311, "pitch": 68, "duration": 9, "velocity": 100}, {"time": 3317, "pitch": 44, "duration": 3, "velocity": 96}, {"time": 3323, "pitch": 40, "duration": 43, "velocity": 108}, {"time": 3323, "pitch": 59, "duration": 15, "velocity": 107}, {"time": 3323, "pitch": 64, "duration": 15, "velocity": 113}, {"time": 3323, "pitch": 68, "duration": 15, "velocity": 100}, {"time": 3335, "pitch": 47, "duration": 11, "velocity": 87}, {"time": 3341, "pitch": 59, "duration": 12, "velocity": 113}, {"time": 3341, "pitch": 64, "duration": 12, "velocity": 116}, {"time": 3341, "pitch": 68, "duration": 12, "velocity": 108}, {"time": 3353, "pitch": 47, "duration": 7, "velocity": 96}, {"time": 3359, "pitch": 59, "duration": 9, "velocity": 110}, {"time": 3359, "pitch": 64, "duration": 10, "velocity": 117}, {"time": 3359, "pitch": 68, "duration": 8, "velocity": 108}, {"time": 3365, "pitch": 47, "duration": 2, "velocity": 94}, {"time": 3371, "pitch": 47, "duration": 38, "velocity": 108}, {"time": 3371, "pitch": 59, "duration": 14, "velocity": 104}, {"time": 3371, "pitch": 63, "duration": 13, "velocity": 114}, {"time": 3371, "pitch": 66, "duration": 14, "velocity": 110}, {"time": 3377, "pitch": 54, "duration": 1, "velocity": 79}, {"time": 3383, "pitch": 54, "duration": 11, "velocity": 98}, {"time": 3389, "pitch": 59, "duration": 13, "velocity": 110}, {"time": 3389, "pitch": 63, "duration": 12, "velocity": 117}, {"time": 3389, "pitch": 66, "duration": 12, "velocity": 108}, {"time": 3401, "pitch": 54, "duration": 8, "velocity": 104}, {"time": 3407, "pitch": 59, "duration": 8, "velocity": 107}, {"time": 3407, "pitch": 63, "duration": 10, "velocity": 116}, {"time": 3407, "pitch": 66, "duration": 8, "velocity": 102}, {"time": 3413, "pitch": 47, "duration": 2, "velocity": 104}, {"time": 3419, "pitch": 42, "duration": 42, "velocity": 108}, {"time": 3419, "pitch": 58, "duration": 13, "velocity": 104}, {"time": 3419, "pitch": 61, "duration": 13, "velocity": 114}, {"time": 3419, "pitch": 66, "duration": 13, "velocity": 94}, {"time": 3425, "pitch": 49, "duration": 37, "velocity": 87}, {"time": 3431, "pitch": 54, "duration": 9, "velocity": 88}, {"time": 3437, "pitch": 58, "duration": 12, "velocity": 110}, {"time": 3437, "pitch": 61, "duration": 12, "velocity": 116}, {"time": 3437, "pitch": 66, "duration": 12, "velocity": 108}, {"time": 3449, "pitch": 54, "duration": 7, "velocity": 94}, {"time": 3455, "pitch": 58, "duration": 7, "velocity": 110}, {"time": 3455, "pitch": 61, "duration": 10, "velocity": 114}, {"time": 3455, "pitch": 66, "duration": 7, "velocity": 108}, {"time": 3461, "pitch": 54, "duration": 3, "velocity": 80}, {"time": 3467, "pitch": 44, "duration": 36, "velocity": 93}, {"time": 3467, "pitch": 59, "duration": 13, "velocity": 100}, {"time": 3467, "pitch": 63, "duration": 13, "velocity": 110}, {"time": 3467, "pitch": 68, "duration": 12, "velocity": 100}, {"time": 3473, "pitch": 51, "duration": 31, "velocity": 86}, {"time": 3479, "pitch": 56, "duration": 10, "velocity": 90}, {"time": 3485, "pitch": 59, "duration": 13, "velocity": 108}, {"time": 3485, "pitch": 63, "duration": 12, "velocity": 117}, {"time": 3485, "pitch": 68, "duration": 13, "velocity": 113}, {"time": 3497, "pitch": 56, "duration": 7, "velocity": 100}, {"time": 3503, "pitch": 59, "duration": 10, "velocity": 110}, {"time": 3503, "pitch": 63, "duration": 9, "velocity": 116}, {"time": 3503, "pitch": 68, "duration": 9, "velocity": 107}, {"time": 3509, "pitch": 44, "duration": 2, "velocity": 94}, {"time": 3515, "pitch": 40, "duration": 42, "velocity": 107}, {"time": 3515, "pitch": 59, "duration": 14, "velocity": 110}, {"time": 3515, "pitch": 64, "duration": 13, "velocity": 116}, {"time": 3515, "pitch": 68, "duration": 13, "velocity": 102}, {"time": 3521, "pitch": 47, "duration": 37, "velocity": 82}, {"time": 3527, "pitch": 52, "duration": 7, "velocity": 86}, {"time": 3533, "pitch": 59, "duration": 13, "velocity": 114}, {"time": 3533, "pitch": 64, "duration": 13, "velocity": 117}, {"time": 3533, "pitch": 68, "duration": 13, "velocity": 108}, {"time": 3545, "pitch": 52, "duration": 5, "velocity": 104}, {"time": 3551, "pitch": 59, "duration": 9, "velocity": 110}, {"time": 3551, "pitch": 64, "duration": 9, "velocity": 117}, {"time": 3551, "pitch": 68, "duration": 8, "velocity": 107}, {"time": 3557, "pitch": 52, "duration": 5, "velocity": 107}, {"time": 3563, "pitch": 47, "duration": 38, "velocity": 107}, {"time": 3563, "pitch": 59, "duration": 14, "velocity": 96}, {"time": 3563, "pitch": 63, "duration": 14, "velocity": 108}, {"time": 3563, "pitch": 66, "duration": 14, "velocity": 100}, {"time": 3566, "pitch": 54, "duration": 5, "velocity": 82}, {"time": 3575, "pitch": 54, "duration": 11, "velocity": 88}, {"time": 3581, "pitch": 59, "duration": 13, "velocity": 107}, {"time": 3581, "pitch": 63, "duration": 13, "velocity": 116}, {"time": 3581, "pitch": 66, "duration": 13, "velocity": 107}, {"time": 3593, "pitch": 54, "duration": 8, "velocity": 100}, {"time": 3599, "pitch": 59, "duration": 8, "velocity": 107}, {"time": 3599, "pitch": 63, "duration": 11, "velocity": 114}, {"time": 3599, "pitch": 66, "duration": 9, "velocity": 104}, {"time": 3605, "pitch": 47, "duration": 2, "velocity": 92}, {"time": 3611, "pitch": 42, "duration": 42, "velocity": 102}, {"time": 3611, "pitch": 58, "duration": 13, "velocity": 104}, {"time": 3611, "pitch": 61, "duration": 13, "velocity": 108}, {"time": 3611, "pitch": 66, "duration": 13, "velocity": 91}, {"time": 3617, "pitch": 49, "duration": 42, "velocity": 78}, {"time": 3623, "pitch": 54, "duration": 9, "velocity": 85}, {"time": 3629, "pitch": 58, "duration": 13, "velocity": 108}, {"time": 3629, "pitch": 61, "duration": 13, "velocity": 114}, {"time": 3629, "pitch": 66, "duration": 13, "velocity": 96}, {"time": 3641, "pitch": 54, "duration": 6, "velocity": 88}, {"time": 3647, "pitch": 58, "duration": 7, "velocity": 88}, {"time": 3647, "pitch": 61, "duration": 7, "velocity": 90}, {"time": 3647, "pitch": 66, "duration": 6, "velocity": 88}, {"time": 3659, "pitch": 47, "duration": 36, "velocity": 96}, {"time": 3659, "pitch": 59, "duration": 14, "velocity": 90}, {"time": 3659, "pitch": 63, "duration": 13, "velocity": 104}, {"time": 3659, "pitch": 66, "duration": 9, "velocity": 93}, {"time": 3671, "pitch": 54, "duration": 9, "velocity": 74}, {"time": 3677, "pitch": 59, "duration": 12, "velocity": 98}, {"time": 3677, "pitch": 63, "duration": 12, "velocity": 113}, {"time": 3677, "pitch": 66, "duration": 10, "velocity": 102}, {"time": 3695, "pitch": 59, "duration": 7, "velocity": 92}, {"time": 3695, "pitch": 63, "duration": 10, "velocity": 104}, {"time": 3695, "pitch": 66, "duration": 9, "velocity": 94}, {"time": 3707, "pitch": 39, "duration": 42, "velocity": 88}, {"time": 3707, "pitch": 58, "duration": 14, "velocity": 93}, {"time": 3707, "pitch": 63, "duration": 15, "velocity": 104}, {"time": 3707, "pitch": 66, "duration": 13, "velocity": 96}, {"time": 3719, "pitch": 51, "duration": 9, "velocity": 73}, {"time": 3725, "pitch": 58, "duration": 12, "velocity": 93}, {"time": 3725, "pitch": 63, "duration": 13, "velocity": 98}, {"time": 3725, "pitch": 66, "duration": 12, "velocity": 92}, {"time": 3737, "pitch": 51, "duration": 6, "velocity": 82}, {"time": 3743, "pitch": 58, "duration": 6, "velocity": 100}, {"time": 3743, "pitch": 63, "duration": 10, "velocity": 104}, {"time": 3743, "pitch": 66, "duration": 8, "velocity": 98}, {"time": 3749, "pitch": 51, "duration": 3, "velocity": 80}, {"time": 3755, "pitch": 40, "duration": 43, "velocity": 91}, {"time": 3755, "pitch": 59, "duration": 14, "velocity": 90}, {"time": 3755, "pitch": 64, "duration": 14, "velocity": 110}, {"time": 3755, "pitch": 68, "duration": 14, "velocity": 100}, {"time": 3767, "pitch": 52, "duration": 8, "velocity": 82}, {"time": 3773, "pitch": 59, "duration": 12, "velocity": 98}, {"time": 3773, "pitch": 64, "duration": 13, "velocity": 107}, {"time": 3773, "pitch": 68, "duration": 12, "velocity": 92}, {"time": 3782, "pitch": 52, "duration": 8, "velocity": 87}, {"time": 3791, "pitch": 59, "duration": 8, "velocity": 98}, {"time": 3791, "pitch": 64, "duration": 8, "velocity": 104}, {"time": 3791, "pitch": 68, "duration": 7, "velocity": 89}, {"time": 3797, "pitch": 52, "duration": 5, "velocity": 83}, {"time": 3803, "pitch": 42, "duration": 43, "velocity": 89}, {"time": 3803, "pitch": 58, "duration": 14, "velocity": 98}, {"time": 3803, "pitch": 61, "duration": 13, "velocity": 114}, {"time": 3803, "pitch": 66, "duration": 12, "velocity": 100}, {"time": 3809, "pitch": 49, "duration": 16, "velocity": 82}, {"time": 3815, "pitch": 54, "duration": 10, "velocity": 84}, {"time": 3821, "pitch": 58, "duration": 13, "velocity": 104}, {"time": 3821, "pitch": 61, "duration": 13, "velocity": 114}, {"time": 3821, "pitch": 66, "duration": 13, "velocity": 98}, {"time": 3833, "pitch": 49, "duration": 6, "velocity": 91}, {"time": 3839, "pitch": 58, "duration": 5, "velocity": 104}, {"time": 3839, "pitch": 61, "duration": 9, "velocity": 113}, {"time": 3839, "pitch": 66, "duration": 6, "velocity": 107}, {"time": 3845, "pitch": 49, "duration": 6, "velocity": 84}, {"time": 3851, "pitch": 44, "duration": 39, "velocity": 91}, {"time": 3851, "pitch": 59, "duration": 13, "velocity": 100}, {"time": 3851, "pitch": 63, "duration": 13, "velocity": 114}, {"time": 3851, "pitch": 68, "duration": 13, "velocity": 108}, {"time": 3857, "pitch": 51, "duration": 32, "velocity": 80}, {"time": 3863, "pitch": 56, "duration": 9, "velocity": 88}, {"time": 3869, "pitch": 59, "duration": 13, "velocity": 98}, {"time": 3869, "pitch": 63, "duration": 13, "velocity": 110}, {"time": 3869, "pitch": 68, "duration": 13, "velocity": 102}, {"time": 3881, "pitch": 56, "duration": 7, "velocity": 87}, {"time": 3887, "pitch": 59, "duration": 8, "velocity": 107}, {"time": 3887, "pitch": 63, "duration": 9, "velocity": 113}, {"time": 3887, "pitch": 68, "duration": 7, "velocity": 107}, {"time": 3899, "pitch": 40, "duration": 42, "velocity": 88}, {"time": 3899, "pitch": 59, "duration": 14, "velocity": 93}, {"time": 3899, "pitch": 64, "duration": 14, "velocity": 107}, {"time": 3899, "pitch": 68, "duration": 14, "velocity": 91}, {"time": 3911, "pitch": 52, "duration": 20, "velocity": 73}, {"time": 3917, "pitch": 59, "duration": 22, "velocity": 91}, {"time": 3917, "pitch": 64, "duration": 24, "velocity": 93}, {"time": 3917, "pitch": 68, "duration": 23, "velocity": 91}, {"time": 3935, "pitch": 52, "duration": 7, "velocity": 71}, {"time": 3947, "pitch": 42, "duration": 44, "velocity": 88}, {"time": 3947, "pitch": 61, "duration": 15, "velocity": 94}, {"time": 3947, "pitch": 66, "duration": 15, "velocity": 93}, {"time": 3947, "pitch": 70, "duration": 15, "velocity": 89}, {"time": 3965, "pitch": 61, "duration": 12, "velocity": 88}, {"time": 3965, "pitch": 66, "duration": 12, "velocity": 90}, {"time": 3965, "pitch": 70, "duration": 12, "velocity": 88}, {"time": 3977, "pitch": 54, "duration": 12, "velocity": 75}, {"time": 3983, "pitch": 61, "duration": 9, "velocity": 84}, {"time": 3983, "pitch": 66, "duration": 9, "velocity": 83}, {"time": 3983, "pitch": 70, "duration": 7, "velocity": 83}, {"time": 3995, "pitch": 47, "duration": 22, "velocity": 90}, {"time": 4001, "pitch": 54, "duration": 20, "velocity": 86}, {"time": 4007, "pitch": 59, "duration": 1, "velocity": 78}, {"time": 4007, "pitch": 63, "duration": 1, "velocity": 81}, {"time": 4013, "pitch": 59, "duration": 13, "velocity": 87}, {"time": 4013, "pitch": 63, "duration": 13, "velocity": 92}, {"time": 4013, "pitch": 66, "duration": 12, "velocity": 90}, {"time": 4019, "pitch": 46, "duration": 23, "velocity": 88}, {"time": 4037, "pitch": 59, "duration": 6, "velocity": 82}, {"time": 4037, "pitch": 63, "duration": 7, "velocity": 87}, {"time": 4037, "pitch": 66, "duration": 5, "velocity": 82}, {"time": 4043, "pitch": 44, "duration": 43, "velocity": 88}, {"time": 4049, "pitch": 51, "duration": 31, "velocity": 77}, {"time": 4055, "pitch": 56, "duration": 8, "velocity": 87}, {"time": 4061, "pitch": 59, "duration": 12, "velocity": 91}, {"time": 4061, "pitch": 63, "duration": 12, "velocity": 100}, {"time": 4061, "pitch": 68, "duration": 12, "velocity": 96}, {"time": 4073, "pitch": 56, "duration": 12, "velocity": 82}, {"time": 4079, "pitch": 59, "duration": 13, "velocity": 88}, {"time": 4079, "pitch": 63, "duration": 17, "velocity": 91}, {"time": 4079, "pitch": 68, "duration": 13, "velocity": 91}, {"time": 4091, "pitch": 40, "duration": 42, "velocity": 92}, {"time": 4097, "pitch": 47, "duration": 37, "velocity": 86}, {"time": 4103, "pitch": 52, "duration": 11, "velocity": 91}, {"time": 4109, "pitch": 59, "duration": 13, "velocity": 94}, {"time": 4109, "pitch": 64, "duration": 13, "velocity": 114}, {"time": 4109, "pitch": 68, "duration": 12, "velocity": 108}, {"time": 4121, "pitch": 52, "duration": 6, "velocity": 91}, {"time": 4127, "pitch": 59, "duration": 18, "velocity": 98}, {"time": 4127, "pitch": 64, "duration": 20, "velocity": 116}, {"time": 4127, "pitch": 68, "duration": 15, "velocity": 107}, {"time": 4133, "pitch": 52, "duration": 4, "velocity": 86}, {"time": 4139, "pitch": 47, "duration": 41, "velocity": 98}, {"time": 4145, "pitch": 54, "duration": 15, "velocity": 87}, {"time": 4151, "pitch": 59, "duration": 2, "velocity": 82}, {"time": 4151, "pitch": 63, "duration": 2, "velocity": 85}, {"time": 4151, "pitch": 66, "duration": 1, "velocity": 83}, {"time": 4157, "pitch": 59, "duration": 11, "velocity": 108}, {"time": 4157, "pitch": 63, "duration": 11, "velocity": 116}, {"time": 4157, "pitch": 66, "duration": 11, "velocity": 113}, {"time": 4166, "pitch": 54, "duration": 12, "velocity": 88}, {"time": 4175, "pitch": 59, "duration": 16, "velocity": 102}, {"time": 4175, "pitch": 63, "duration": 17, "velocity": 114}, {"time": 4175, "pitch": 66, "duration": 16, "velocity": 104}, {"time": 4187, "pitch": 42, "duration": 43, "velocity": 100}, {"time": 4193, "pitch": 49, "duration": 41, "velocity": 87}, {"time": 4199, "pitch": 54, "duration": 9, "velocity": 89}, {"time": 4205, "pitch": 58, "duration": 12, "velocity": 110}, {"time": 4205, "pitch": 61, "duration": 12, "velocity": 116}, {"time": 4205, "pitch": 66, "duration": 12, "velocity": 104}, {"time": 4217, "pitch": 54, "duration": 6, "velocity": 108}, {"time": 4223, "pitch": 58, "duration": 14, "velocity": 110}, {"time": 4223, "pitch": 61, "duration": 16, "velocity": 116}, {"time": 4223, "pitch": 66, "duration": 15, "velocity": 107}, {"time": 4229, "pitch": 54, "duration": 4, "velocity": 89}, {"time": 4235, "pitch": 44, "duration": 41, "velocity": 100}, {"time": 4241, "pitch": 51, "duration": 34, "velocity": 91}, {"time": 4247, "pitch": 56, "duration": 12, "velocity": 107}, {"time": 4253, "pitch": 59, "duration": 12, "velocity": 107}, {"time": 4253, "pitch": 63, "duration": 12, "velocity": 113}, {"time": 4253, "pitch": 68, "duration": 12, "velocity": 110}, {"time": 4265, "pitch": 56, "duration": 9, "velocity": 107}, {"time": 4271, "pitch": 59, "duration": 13, "velocity": 110}, {"time": 4271, "pitch": 63, "duration": 13, "velocity": 117}, {"time": 4271, "pitch": 68, "duration": 14, "velocity": 108}, {"time": 4283, "pitch": 52, "duration": 43, "velocity": 110}, {"time": 4286, "pitch": 59, "duration": 17, "velocity": 84}, {"time": 4295, "pitch": 64, "duration": 1, "velocity": 87}, {"time": 4295, "pitch": 68, "duration": 1, "velocity": 88}, {"time": 4301, "pitch": 64, "duration": 12, "velocity": 110}, {"time": 4301, "pitch": 68, "duration": 12, "velocity": 119}, {"time": 4301, "pitch": 71, "duration": 12, "velocity": 108}, {"time": 4313, "pitch": 59, "duration": 13, "velocity": 91}, {"time": 4319, "pitch": 64, "duration": 14, "velocity": 104}, {"time": 4319, "pitch": 68, "duration": 15, "velocity": 113}, {"time": 4319, "pitch": 71, "duration": 15, "velocity": 100}, {"time": 4331, "pitch": 47, "duration": 40, "velocity": 107}, {"time": 4337, "pitch": 54, "duration": 33, "velocity": 86}, {"time": 4343, "pitch": 59, "duration": 9, "velocity": 88}, {"time": 4349, "pitch": 63, "duration": 13, "velocity": 107}, {"time": 4349, "pitch": 66, "duration": 12, "velocity": 110}, {"time": 4349, "pitch": 71, "duration": 13, "velocity": 104}, {"time": 4361, "pitch": 59, "duration": 8, "velocity": 93}, {"time": 4367, "pitch": 63, "duration": 13, "velocity": 108}, {"time": 4367, "pitch": 66, "duration": 14, "velocity": 114}, {"time": 4367, "pitch": 71, "duration": 13, "velocity": 98}, {"time": 4379, "pitch": 42, "duration": 42, "velocity": 104}, {"time": 4385, "pitch": 49, "duration": 41, "velocity": 84}, {"time": 4391, "pitch": 54, "duration": 8, "velocity": 100}, {"time": 4397, "pitch": 58, "duration": 11, "velocity": 107}, {"time": 4397, "pitch": 61, "duration": 11, "velocity": 114}, {"time": 4397, "pitch": 66, "duration": 12, "velocity": 107}, {"time": 4409, "pitch": 54, "duration": 6, "velocity": 108}, {"time": 4415, "pitch": 58, "duration": 9, "velocity": 104}, {"time": 4415, "pitch": 61, "duration": 10, "velocity": 113}, {"time": 4415, "pitch": 66, "duration": 9, "velocity": 102}, {"time": 4421, "pitch": 54, "duration": 4, "velocity": 85}, {"time": 4427, "pitch": 44, "duration": 39, "velocity": 89}, {"time": 4427, "pitch": 59, "duration": 16, "velocity": 102}, {"time": 4427, "pitch": 63, "duration": 15, "velocity": 104}, {"time": 4427, "pitch": 68, "duration": 15, "velocity": 102}, {"time": 4439, "pitch": 51, "duration": 10, "velocity": 88}, {"time": 4445, "pitch": 59, "duration": 13, "velocity": 114}, {"time": 4445, "pitch": 63, "duration": 13, "velocity": 114}, {"time": 4445, "pitch": 68, "duration": 13, "velocity": 107}, {"time": 4457, "pitch": 51, "duration": 6, "velocity": 93}, {"time": 4463, "pitch": 59, "duration": 9, "velocity": 110}, {"time": 4463, "pitch": 63, "duration": 10, "velocity": 114}, {"time": 4463, "pitch": 68, "duration": 9, "velocity": 100}, {"time": 4469, "pitch": 44, "duration": 3, "velocity": 96}, {"time": 4475, "pitch": 40, "duration": 43, "velocity": 108}, {"time": 4475, "pitch": 59, "duration": 15, "velocity": 107}, {"time": 4475, "pitch": 64, "duration": 15, "velocity": 113}, {"time": 4475, "pitch": 68, "duration": 15, "velocity": 100}, {"time": 4487, "pitch": 47, "duration": 11, "velocity": 87}, {"time": 4493, "pitch": 59, "duration": 12, "velocity": 113}, {"time": 4493, "pitch": 64, "duration": 12, "velocity": 116}, {"time": 4493, "pitch": 68, "duration": 12, "velocity": 108}, {"time": 4505, "pitch": 47, "duration": 7, "velocity": 96}, {"time": 4511, "pitch": 59, "duration": 9, "velocity": 110}, {"time": 4511, "pitch": 64, "duration": 10, "velocity": 117}, {"time": 4511, "pitch": 68, "duration": 8, "velocity": 108}, {"time": 4517, "pitch": 47, "duration": 2, "velocity": 94}, {"time": 4523, "pitch": 47, "duration": 38, "velocity": 108}, {"time": 4523, "pitch": 59, "duration": 14, "velocity": 104}, {"time": 4523, "pitch": 63, "duration": 13, "velocity": 114}, {"time": 4523, "pitch": 66, "duration": 14, "velocity": 110}, {"time": 4529, "pitch": 54, "duration": 1, "velocity": 79}, {"time": 4535, "pitch": 54, "duration": 11, "velocity": 98}, {"time": 4541, "pitch": 59, "duration": 13, "velocity": 110}, {"time": 4541, "pitch": 63, "duration": 12, "velocity": 117}, {"time": 4541, "pitch": 66, "duration": 12, "velocity": 108}, {"time": 4553, "pitch": 54, "duration": 8, "velocity": 104}, {"time": 4559, "pitch": 59, "duration": 8, "velocity": 107}, {"time": 4559, "pitch": 63, "duration": 10, "velocity": 116}, {"time": 4559, "pitch": 66, "duration": 8, "velocity": 102}, {"time": 4565, "pitch": 47, "duration": 2, "velocity": 104}, {"time": 4571, "pitch": 42, "duration": 42, "velocity": 108}, {"time": 4571, "pitch": 58, "duration": 13, "velocity": 104}, {"time": 4571, "pitch": 61, "duration": 13, "velocity": 114}, {"time": 4571, "pitch": 66, "duration": 13, "velocity": 94}, {"time": 4577, "pitch": 49, "duration": 37, "velocity": 87}, {"time": 4583, "pitch": 54, "duration": 9, "velocity": 88}, {"time": 4589, "pitch": 58, "duration": 12, "velocity": 110}, {"time": 4589, "pitch": 61, "duration": 12, "velocity": 116}, {"time": 4589, "pitch": 66, "duration": 12, "velocity": 108}, {"time": 4601, "pitch": 54, "duration": 7, "velocity": 94}, {"time": 4607, "pitch": 58, "duration": 7, "velocity": 110}, {"time": 4607, "pitch": 61, "duration": 10, "velocity": 114}, {"time": 4607, "pitch": 66, "duration": 7, "velocity": 108}, {"time": 4613, "pitch": 54, "duration": 3, "velocity": 80}, {"time": 4619, "pitch": 44, "duration": 36, "velocity": 93}, {"time": 4619, "pitch": 59, "duration": 13, "velocity": 100}, {"time": 4619, "pitch": 63, "duration": 13, "velocity": 110}, {"time": 4619, "pitch": 68, "duration": 12, "velocity": 100}, {"time": 4625, "pitch": 51, "duration": 31, "velocity": 86}, {"time": 4631, "pitch": 56, "duration": 10, "velocity": 90}, {"time": 4637, "pitch": 59, "duration": 13, "velocity": 108}, {"time": 4637, "pitch": 63, "duration": 12, "velocity": 117}, {"time": 4637, "pitch": 68, "duration": 13, "velocity": 113}, {"time": 4649, "pitch": 56, "duration": 7, "velocity": 100}, {"time": 4655, "pitch": 59, "duration": 10, "velocity": 110}, {"time": 4655, "pitch": 63, "duration": 9, "velocity": 116}, {"time": 4655, "pitch": 68, "duration": 9, "velocity": 107}, {"time": 4661, "pitch": 44, "duration": 2, "velocity": 94}, {"time": 4667, "pitch": 40, "duration": 42, "velocity": 107}, {"time": 4667, "pitch": 59, "duration": 14, "velocity": 110}, {"time": 4667, "pitch": 64, "duration": 13, "velocity": 116}, {"time": 4667, "pitch": 68, "duration": 13, "velocity": 102}, {"time": 4673, "pitch": 47, "duration": 37, "velocity": 82}, {"time": 4679, "pitch": 52, "duration": 7, "velocity": 86}, {"time": 4685, "pitch": 59, "duration": 13, "velocity": 114}, {"time": 4685, "pitch": 64, "duration": 13, "velocity": 117}, {"time": 4685, "pitch": 68, "duration": 13, "velocity": 108}, {"time": 4697, "pitch": 52, "duration": 5, "velocity": 104}, {"time": 4703, "pitch": 59, "duration": 9, "velocity": 110}, {"time": 4703, "pitch": 64, "duration": 9, "velocity": 117}, {"time": 4703, "pitch": 68, "duration": 8, "velocity": 107}, {"time": 4709, "pitch": 52, "duration": 5, "velocity": 107}, {"time": 4715, "pitch": 47, "duration": 38, "velocity": 107}, {"time": 4715, "pitch": 59, "duration": 14, "velocity": 96}, {"time": 4715, "pitch": 63, "duration": 14, "velocity": 108}, {"time": 4715, "pitch": 66, "duration": 14, "velocity": 100}, {"time": 4718, "pitch": 54, "duration": 5, "velocity": 82}, {"time": 4727, "pitch": 54, "duration": 11, "velocity": 88}, {"time": 4733, "pitch": 59, "duration": 13, "velocity": 107}, {"time": 4733, "pitch": 63, "duration": 13, "velocity": 116}, {"time": 4733, "pitch": 66, "duration": 13, "velocity": 107}, {"time": 4745, "pitch": 54, "duration": 8, "velocity": 100}, {"time": 4751, "pitch": 59, "duration": 8, "velocity": 107}, {"time": 4751, "pitch": 63, "duration": 11, "velocity": 114}, {"time": 4751, "pitch": 66, "duration": 9, "velocity": 104}, {"time": 4757, "pitch": 47, "duration": 2, "velocity": 92}, {"time": 4763, "pitch": 42, "duration": 42, "velocity": 102}, {"time": 4763, "pitch": 58, "duration": 13, "velocity": 104}, {"time": 4763, "pitch": 61, "duration": 13, "velocity": 108}, {"time": 4763, "pitch": 66, "duration": 13, "velocity": 91}, {"time": 4769, "pitch": 49, "duration": 42, "velocity": 78}, {"time": 4775, "pitch": 54, "duration": 9, "velocity": 85}, {"time": 4781, "pitch": 58, "duration": 13, "velocity": 108}, {"time": 4781, "pitch": 61, "duration": 13, "velocity": 114}, {"time": 4781, "pitch": 66, "duration": 13, "velocity": 96}, {"time": 4793, "pitch": 54, "duration": 6, "velocity": 88}, {"time": 4799, "pitch": 58, "duration": 7, "velocity": 88}, {"time": 4799, "pitch": 61, "duration": 7, "velocity": 90}, {"time": 4799, "pitch": 66, "duration": 6, "velocity": 88}, {"time": 4811, "pitch": 47, "duration": 45, "velocity": 100}, {"time": 4817, "pitch": 54, "duration": 42, "velocity": 87}, {"time": 4823, "pitch": 59, "duration": 1, "velocity": 78}, {"time": 4823, "pitch": 63, "duration": 1, "velocity": 85}, {"time": 4823, "pitch": 66, "duration": 1, "velocity": 81}, {"time": 4829, "pitch": 59, "duration": 20, "velocity": 86}, {"time": 4829, "pitch": 63, "duration": 21, "velocity": 94}, {"time": 4829, "pitch": 66, "duration": 21, "velocity": 87}, {"time": 4853, "pitch": 59, "duration": 7, "velocity": 85}, {"time": 4853, "pitch": 63, "duration": 7, "velocity": 86}, {"time": 4853, "pitch": 66, "duration": 7, "velocity": 86}, {"time": 4859, "pitch": 47, "duration": 43, "velocity": 91}, {"time": 4865, "pitch": 54, "duration": 19, "velocity": 85}, {"time": 4871, "pitch": 59, "duration": 1, "velocity": 84}, {"time": 4871, "pitch": 63, "duration": 1, "velocity": 88}, {"time": 4871, "pitch": 66, "duration": 1, "velocity": 84}, {"time": 4877, "pitch": 59, "duration": 15, "velocity": 88}, {"time": 4877, "pitch": 63, "duration": 14, "velocity": 90}, {"time": 4877, "pitch": 66, "duration": 14, "velocity": 91}, {"time": 4889, "pitch": 54, "duration": 12, "velocity": 71}, {"time": 4901, "pitch": 59, "duration": 6, "velocity": 76}, {"time": 4901, "pitch": 63, "duration": 6, "velocity": 80}, {"time": 4901, "pitch": 66, "duration": 5, "velocity": 82}, {"time": 4907, "pitch": 47, "duration": 42, "velocity": 94}, {"time": 4913, "pitch": 59, "duration": 2, "velocity": 81}, {"time": 4913, "pitch": 63, "duration": 1, "velocity": 84}, {"time": 4913, "pitch": 66, "duration": 1, "velocity": 83}, {"time": 4919, "pitch": 59, "duration": 1, "velocity": 86}, {"time": 4919, "pitch": 63, "duration": 1, "velocity": 87}, {"time": 4919, "pitch": 66, "duration": 1, "velocity": 82}, {"time": 4925, "pitch": 59, "duration": 19, "velocity": 87}, {"time": 4925, "pitch": 63, "duration": 19, "velocity": 96}, {"time": 4925, "pitch": 66, "duration": 19, "velocity": 90}, {"time": 4943, "pitch": 54, "duration": 6, "velocity": 76}, {"time": 4949, "pitch": 59, "duration": 6, "velocity": 87}, {"time": 4949, "pitch": 63, "duration": 6, "velocity": 88}, {"time": 4949, "pitch": 66, "duration": 6, "velocity": 88}, {"time": 4955, "pitch": 47, "duration": 23, "velocity": 89}, {"time": 4961, "pitch": 54, "duration": 18, "velocity": 85}, {"time": 4967, "pitch": 59, "duration": 1, "velocity": 86}, {"time": 4967, "pitch": 63, "duration": 1, "velocity": 91}, {"time": 4967, "pitch": 66, "duration": 1, "velocity": 87}, {"time": 4973, "pitch": 59, "duration": 13, "velocity": 88}, {"time": 4973, "pitch": 63, "duration": 13, "velocity": 93}, {"time": 4973, "pitch": 66, "duration": 13, "velocity": 91}, {"time": 5003, "pitch": 47, "duration": 43, "velocity": 87}, {"time": 5009, "pitch": 54, "duration": 19, "velocity": 78}, {"time": 5015, "pitch": 59, "duration": 3, "velocity": 70}, {"time": 5021, "pitch": 59, "duration": 19, "velocity": 86}, {"time": 5021, "pitch": 63, "duration": 19, "velocity": 88}, {"time": 5021, "pitch": 66, "duration": 19, "velocity": 86}, {"time": 5039, "pitch": 54, "duration": 13, "velocity": 60}, {"time": 5045, "pitch": 59, "duration": 14, "velocity": 76}, {"time": 5045, "pitch": 63, "duration": 14, "velocity": 78}, {"time": 5045, "pitch": 66, "duration": 13, "velocity": 80}, {"time": 5051, "pitch": 47, "duration": 40, "velocity": 87}, {"time": 5057, "pitch": 54, "duration": 15, "velocity": 77}, {"time": 5063, "pitch": 63, "duration": 1, "velocity": 71}, {"time": 5069, "pitch": 59, "duration": 12, "velocity": 87}, {"time": 5069, "pitch": 63, "duration": 12, "velocity": 89}, {"time": 5069, "pitch": 66, "duration": 12, "velocity": 87}, {"time": 5081, "pitch": 54, "duration": 9, "velocity": 75}, {"time": 5087, "pitch": 59, "duration": 13, "velocity": 82}, {"time": 5087, "pitch": 63, "duration": 13, "velocity": 86}, {"time": 5087, "pitch": 66, "duration": 13, "velocity": 84}, {"time": 5099, "pitch": 52, "duration": 42, "velocity": 91}, {"time": 5105, "pitch": 59, "duration": 16, "velocity": 84}, {"time": 5111, "pitch": 64, "duration": 2, "velocity": 80}, {"time": 5117, "pitch": 64, "duration": 15, "velocity": 86}, {"time": 5117, "pitch": 68, "duration": 15, "velocity": 88}, {"time": 5117, "pitch": 71, "duration": 15, "velocity": 85}, {"time": 5129, "pitch": 59, "duration": 10, "velocity": 70}, {"time": 5141, "pitch": 64, "duration": 17, "velocity": 76}, {"time": 5141, "pitch": 68, "duration": 17, "velocity": 80}, {"time": 5141, "pitch": 71, "duration": 16, "velocity": 74}, {"time": 5147, "pitch": 52, "duration": 39, "velocity": 87}, {"time": 5153, "pitch": 59, "duration": 14, "velocity": 84}, {"time": 5159, "pitch": 64, "duration": 4, "velocity": 79}, {"time": 5165, "pitch": 64, "duration": 14, "velocity": 94}, {"time": 5165, "pitch": 71, "duration": 13, "velocity": 92}, {"time": 5177, "pitch": 59, "duration": 8, "velocity": 73}, {"time": 5183, "pitch": 64, "duration": 11, "velocity": 84}, {"time": 5183, "pitch": 68, "duration": 11, "velocity": 88}, {"time": 5183, "pitch": 71, "duration": 11, "velocity": 83}, {"time": 5195, "pitch": 49, "duration": 37, "velocity": 90}, {"time": 5201, "pitch": 56, "duration": 14, "velocity": 70}, {"time": 5213, "pitch": 61, "duration": 32, "velocity": 85}, {"time": 5213, "pitch": 64, "duration": 32, "velocity": 88}, {"time": 5213, "pitch": 68, "duration": 33, "velocity": 88}, {"time": 5243, "pitch": 49, "duration": 43, "velocity": 88}, {"time": 5249, "pitch": 56, "duration": 36, "velocity": 84}, {"time": 5255, "pitch": 61, "duration": 5, "velocity": 77}, {"time": 5261, "pitch": 61, "duration": 34, "velocity": 87}, {"time": 5261, "pitch": 64, "duration": 34, "velocity": 89}, {"time": 5261, "pitch": 68, "duration": 34, "velocity": 87}, {"time": 5291, "pitch": 47, "duration": 77, "velocity": 83}, {"time": 5300, "pitch": 54, "duration": 68, "velocity": 69}, {"time": 5309, "pitch": 59, "duration": 59, "velocity": 82}, {"time": 5319, "pitch": 66, "duration": 5, "velocity": 81}, {"time": 5319, "pitch": 61, "duration": 4, "velocity": 77}, {"time": 5330, "pitch": 66, "duration": 3, "velocity": 81}, {"time": 5331, "pitch": 70, "duration": 4, "velocity": 76}, {"time": 5342, "pitch": 70, "duration": 4, "velocity": 84}, {"time": 5343, "pitch": 78, "duration": 3, "velocity": 78}, {"time": 5355, "pitch": 73, "duration": 13, "velocity": 81}, {"time": 5355, "pitch": 82, "duration": 13, "velocity": 80}], "annotations": [{"time": 208, "annotation": {"number": 64, "value": 127}, "group": "control_change"}, {"time": 249, "annotation": {"number": 64, "value": 0}, "group": "control_change"}, {"time": 253, "annotation": {"number": 64, "value": 127}, "group": "control_change"}, {"time": 299, "annotation": {"number": 64, "value": 38}, "group": "control_change"}, {"time": 299, "annotation": {"number": 64, "value": 0}, "group": "control_change"}, {"time": 302, "annotation": {"number": 64, "value": 127}, "group": "control_change"}, {"time": 311, "annotation": {"number": 64, "value": 38}, "group": "control_change"}, {"time": 312, "annotation": {"number": 64, "value": 0}, "group": "control_change"}, {"time": 407, "annotation": {"number": 64, "value": 127}, "group": "control_change"}, {"time": 439, "annotation": {"number": 64, "value": 74}, "group": "control_change"}, {"time": 439, "annotation": {"number": 64, "value": 0}, "group": "control_change"}, {"time": 447, "annotation": {"number": 64, "value": 127}, "group": "control_change"}, {"time": 488, "annotation": {"number": 64, "value": 38}, "group": "control_change"}, {"time": 488, "annotation": {"number": 64, "value": 0}, "group": "control_change"}, {"time": 493, "annotation": {"number": 64, "value": 127}, "group": "control_change"}, {"time": 496, "annotation": {"number": 64, "value": 127}, "group": "control_change"}, {"time": 497, "annotation": {"number": 64, "value": 74}, "group": "control_change"}, {"time": 497, "annotation": {"number": 64, "value": 127}, "group": "control_change"}, {"time": 504, "annotation": {"number": 64, "value": 0}, "group": "control_change"}, {"time": 534, "annotation": {"number": 64, "value": 0}, "group": "control_change"}, {"time": 539, "annotation": {"number": 64, "value": 38}, "group": "control_change"}, {"time": 539, "annotation": {"number": 64, "value": 127}, "group": "control_change"}, {"time": 583, "annotation": {"number": 64, "value": 74}, "group": "control_change"}, {"time": 583, "annotation": {"number": 64, "value": 0}, "group": "control_change"}, {"time": 588, "annotation": {"number": 64, "value": 127}, "group": "control_change"}, {"time": 630, "annotation": {"number": 64, "value": 38}, "group": "control_change"}, {"time": 630, "annotation": {"number": 64, "value": 0}, "group": "control_change"}, {"time": 635, "annotation": {"number": 64, "value": 127}, "group": "control_change"}, {"time": 679, "annotation": {"number": 64, "value": 38}, "group": "control_change"}, {"time": 679, "annotation": {"number": 64, "value": 0}, "group": "control_change"}, {"time": 684, "annotation": {"number": 64, "value": 74}, "group": "control_change"}, {"time": 684, "annotation": {"number": 64, "value": 127}, "group": "control_change"}, {"time": 685, "annotation": {"number": 64, "value": 127}, "group": "control_change"}, {"time": 702, "annotation": {"number": 64, "value": 0}, "group": "control_change"}, {"time": 728, "annotation": {"number": 64, "value": 74}, "group": "control_change"}, {"time": 728, "annotation": {"number": 64, "value": 0}, "group": "control_change"}, {"time": 732, "annotation": {"number": 64, "value": 74}, "group": "control_change"}, {"time": 732, "annotation": {"number": 64, "value": 127}, "group": "control_change"}, {"time": 775, "annotation": {"number": 64, "value": 74}, "group": "control_change"}, {"time": 775, "annotation": {"number": 64, "value": 0}, "group": "control_change"}, {"time": 779, "annotation": {"number": 64, "value": 74}, "group": "control_change"}, {"time": 779, "annotation": {"number": 64, "value": 127}, "group": "control_change"}, {"time": 822, "annotation": {"number": 64, "value": 0}, "group": "control_change"}, {"time": 827, "annotation": {"number": 64, "value": 38}, "group": "control_change"}, {"time": 827, "annotation": {"number": 64, "value": 127}, "group": "control_change"}, {"time": 872, "annotation": {"number": 64, "value": 38}, "group": "control_change"}, {"time": 873, "annotation": {"number": 64, "value": 0}, "group": "control_change"}, {"time": 876, "annotation": {"number": 64, "value": 127}, "group": "control_change"}, {"time": 919, "annotation": {"number": 64, "value": 38}, "group": "control_change"}, {"time": 919, "annotation": {"number": 64, "value": 0}, "group": "control_change"}, {"time": 923, "annotation": {"number": 64, "value": 127}, "group": "control_change"}, {"time": 968, "annotation": {"number": 64, "value": 74}, "group": "control_change"}, {"time": 968, "annotation": {"number": 64, "value": 0}, "group": "control_change"}, {"time": 971, "annotation": {"number": 64, "value": 127}, "group": "control_change"}, {"time": 1015, "annotation": {"number": 64, "value": 74}, "group": "control_change"}, {"time": 1015, "annotation": {"number": 64, "value": 0}, "group": "control_change"}, {"time": 1019, "annotation": {"number": 64, "value": 127}, "group": "control_change"}, {"time": 1063, "annotation": {"number": 64, "value": 38}, "group": "control_change"}, {"time": 1064, "annotation": {"number": 64, "value": 0}, "group": "control_change"}, {"time": 1067, "annotation": {"number": 64, "value": 38}, "group": "control_change"}, {"time": 1067, "annotation": {"number": 64, "value": 127}, "group": "control_change"}, {"time": 1068, "annotation": {"number": 64, "value": 127}, "group": "control_change"}, {"time": 1082, "annotation": {"number": 64, "value": 74}, "group": "control_change"}, {"time": 1082, "annotation": {"number": 64, "value": 0}, "group": "control_change"}, {"time": 1112, "annotation": {"number": 64, "value": 38}, "group": "control_change"}, {"time": 1112, "annotation": {"number": 64, "value": 0}, "group": "control_change"}, {"time": 1119, "annotation": {"number": 64, "value": 127}, "group": "control_change"}, {"time": 1147, "annotation": {"number": 64, "value": 0}, "group": "control_change"}, {"time": 1152, "annotation": {"number": 64, "value": 127}, "group": "control_change"}, {"time": 1157, "annotation": {"number": 64, "value": 74}, "group": "control_change"}, {"time": 1157, "annotation": {"number": 64, "value": 0}, "group": "control_change"}, {"time": 1167, "annotation": {"number": 64, "value": 38}, "group": "control_change"}, {"time": 1167, "annotation": {"number": 64, "value": 127}, "group": "control_change"}, {"time": 1195, "annotation": {"number": 64, "value": 0}, "group": "control_change"}, {"time": 1199, "annotation": {"number": 64, "value": 127}, "group": "control_change"}, {"time": 1206, "annotation": {"number": 64, "value": 74}, "group": "control_change"}, {"time": 1206, "annotation": {"number": 64, "value": 0}, "group": "control_change"}, {"time": 1932, "annotation": {"number": 64, "value": 127}, "group": "control_change"}, {"time": 1976, "annotation": {"number": 64, "value": 74}, "group": "control_change"}, {"time": 1976, "annotation": {"number": 64, "value": 0}, "group": "control_change"}, {"time": 1979, "annotation": {"number": 64, "value": 127}, "group": "control_change"}, {"time": 2024, "annotation": {"number": 64, "value": 74}, "group": "control_change"}, {"time": 2024, "annotation": {"number": 64, "value": 38}, "group": "control_change"}, {"time": 2024, "annotation": {"number": 64, "value": 0}, "group": "control_change"}, {"time": 2028, "annotation": {"number": 64, "value": 127}, "group": "control_change"}, {"time": 2071, "annotation": {"number": 64, "value": 74}, "group": "control_change"}, {"time": 2071, "annotation": {"number": 64, "value": 0}, "group": "control_change"}, {"time": 2076, "annotation": {"number": 64, "value": 74}, "group": "control_change"}, {"time": 2076, "annotation": {"number": 64, "value": 127}, "group": "control_change"}, {"time": 2122, "annotation": {"number": 64, "value": 74}, "group": "control_change"}, {"time": 2122, "annotation": {"number": 64, "value": 38}, "group": "control_change"}, {"time": 2122, "annotation": {"number": 64, "value": 0}, "group": "control_change"}, {"time": 2135, "annotation": {"number": 64, "value": 127}, "group": "control_change"}, {"time": 2167, "annotation": {"number": 64, "value": 74}, "group": "control_change"}, {"time": 2167, "annotation": {"number": 64, "value": 0}, "group": "control_change"}, {"time": 2175, "annotation": {"number": 64, "value": 127}, "group": "control_change"}, {"time": 2216, "annotation": {"number": 64, "value": 38}, "group": "control_change"}, {"time": 2216, "annotation": {"number": 64, "value": 0}, "group": "control_change"}, {"time": 2221, "annotation": {"number": 64, "value": 127}, "group": "control_change"}, {"time": 2224, "annotation": {"number": 64, "value": 127}, "group": "control_change"}, {"time": 2225, "annotation": {"number": 64, "value": 74}, "group": "control_change"}, {"time": 2225, "annotation": {"number": 64, "value": 127}, "group": "control_change"}, {"time": 2232, "annotation": {"number": 64, "value": 0}, "group": "control_change"}, {"time": 2262, "annotation": {"number": 64, "value": 0}, "group": "control_change"}, {"time": 2267, "annotation": {"number": 64, "value": 38}, "group": "control_change"}, {"time": 2267, "annotation": {"number": 64, "value": 127}, "group": "control_change"}, {"time": 2311, "annotation": {"number": 64, "value": 74}, "group": "control_change"}, {"time": 2311, "annotation": {"number": 64, "value": 0}, "group": "control_change"}, {"time": 2316, "annotation": {"number": 64, "value": 127}, "group": "control_change"}, {"time": 2358, "annotation": {"number": 64, "value": 38}, "group": "control_change"}, {"time": 2358, "annotation": {"number": 64, "value": 0}, "group": "control_change"}, {"time": 2363, "annotation": {"number": 64, "value": 127}, "group": "control_change"}, {"time": 2407, "annotation": {"number": 64, "value": 38}, "group": "control_change"}, {"time": 2407, "annotation": {"number": 64, "value": 0}, "group": "control_change"}, {"time": 2412, "annotation": {"number": 64, "value": 74}, "group": "control_change"}, {"time": 2412, "annotation": {"number": 64, "value": 127}, "group": "control_change"}, {"time": 2413, "annotation": {"number": 64, "value": 127}, "group": "control_change"}, {"time": 2430, "annotation": {"number": 64, "value": 0}, "group": "control_change"}, {"time": 2456, "annotation": {"number": 64, "value": 74}, "group": "control_change"}, {"time": 2456, "annotation": {"number": 64, "value": 0}, "group": "control_change"}, {"time": 2460, "annotation": {"number": 64, "value": 74}, "group": "control_change"}, {"time": 2460, "annotation": {"number": 64, "value": 127}, "group": "control_change"}, {"time": 2503, "annotation": {"number": 64, "value": 74}, "group": "control_change"}, {"time": 2503, "annotation": {"number": 64, "value": 0}, "group": "control_change"}, {"time": 2507, "annotation": {"number": 64, "value": 74}, "group": "control_change"}, {"time": 2507, "annotation": {"number": 64, "value": 127}, "group": "control_change"}, {"time": 2550, "annotation": {"number": 64, "value": 0}, "group": "control_change"}, {"time": 2555, "annotation": {"number": 64, "value": 38}, "group": "control_change"}, {"time": 2555, "annotation": {"number": 64, "value": 127}, "group": "control_change"}, {"time": 2600, "annotation": {"number": 64, "value": 38}, "group": "control_change"}, {"time": 2601, "annotation": {"number": 64, "value": 0}, "group": "control_change"}, {"time": 2604, "annotation": {"number": 64, "value": 127}, "group": "control_change"}, {"time": 2647, "annotation": {"number": 64, "value": 38}, "group": "control_change"}, {"time": 2647, "annotation": {"number": 64, "value": 0}, "group": "control_change"}, {"time": 2651, "annotation": {"number": 64, "value": 127}, "group": "control_change"}, {"time": 2696, "annotation": {"number": 64, "value": 74}, "group": "control_change"}, {"time": 2696, "annotation": {"number": 64, "value": 0}, "group": "control_change"}, {"time": 2699, "annotation": {"number": 64, "value": 127}, "group": "control_change"}, {"time": 2743, "annotation": {"number": 64, "value": 74}, "group": "control_change"}, {"time": 2743, "annotation": {"number": 64, "value": 0}, "group": "control_change"}, {"time": 2747, "annotation": {"number": 64, "value": 127}, "group": "control_change"}, {"time": 2791, "annotation": {"number": 64, "value": 38}, "group": "control_change"}, {"time": 2792, "annotation": {"number": 64, "value": 0}, "group": "control_change"}, {"time": 2795, "annotation": {"number": 64, "value": 38}, "group": "control_change"}, {"time": 2795, "annotation": {"number": 64, "value": 127}, "group": "control_change"}, {"time": 2796, "annotation": {"number": 64, "value": 127}, "group": "control_change"}, {"time": 2810, "annotation": {"number": 64, "value": 74}, "group": "control_change"}, {"time": 2810, "annotation": {"number": 64, "value": 0}, "group": "control_change"}, {"time": 2840, "annotation": {"number": 64, "value": 38}, "group": "control_change"}, {"time": 2840, "annotation": {"number": 64, "value": 0}, "group": "control_change"}, {"time": 2847, "annotation": {"number": 64, "value": 127}, "group": "control_change"}, {"time": 2875, "annotation": {"number": 64, "value": 0}, "group": "control_change"}, {"time": 2880, "annotation": {"number": 64, "value": 127}, "group": "control_change"}, {"time": 2885, "annotation": {"number": 64, "value": 74}, "group": "control_change"}, {"time": 2885, "annotation": {"number": 64, "value": 0}, "group": "control_change"}, {"time": 2895, "annotation": {"number": 64, "value": 38}, "group": "control_change"}, {"time": 2895, "annotation": {"number": 64, "value": 127}, "group": "control_change"}, {"time": 2923, "annotation": {"number": 64, "value": 0}, "group": "control_change"}, {"time": 2927, "annotation": {"number": 64, "value": 127}, "group": "control_change"}, {"time": 2934, "annotation": {"number": 64, "value": 74}, "group": "control_change"}, {"time": 2934, "annotation": {"number": 64, "value": 0}, "group": "control_change"}, {"time": 3660, "annotation": {"number": 64, "value": 127}, "group": "control_change"}, {"time": 3704, "annotation": {"number": 64, "value": 38}, "group": "control_change"}, {"time": 3704, "annotation": {"number": 64, "value": 0}, "group": "control_change"}, {"time": 3706, "annotation": {"number": 64, "value": 127}, "group": "control_change"}, {"time": 3751, "annotation": {"number": 64, "value": 38}, "group": "control_change"}, {"time": 3751, "annotation": {"number": 64, "value": 0}, "group": "control_change"}, {"time": 3754, "annotation": {"number": 64, "value": 127}, "group": "control_change"}, {"time": 3799, "annotation": {"number": 64, "value": 0}, "group": "control_change"}, {"time": 3802, "annotation": {"number": 64, "value": 127}, "group": "control_change"}, {"time": 3847, "annotation": {"number": 64, "value": 38}, "group": "control_change"}, {"time": 3847, "annotation": {"number": 64, "value": 0}, "group": "control_change"}, {"time": 3850, "annotation": {"number": 64, "value": 127}, "group": "control_change"}, {"time": 3897, "annotation": {"number": 64, "value": 74}, "group": "control_change"}, {"time": 3897, "annotation": {"number": 64, "value": 0}, "group": "control_change"}, {"time": 3899, "annotation": {"number": 64, "value": 127}, "group": "control_change"}, {"time": 3943, "annotation": {"number": 64, "value": 74}, "group": "control_change"}, {"time": 3943, "annotation": {"number": 64, "value": 0}, "group": "control_change"}, {"time": 3945, "annotation": {"number": 64, "value": 74}, "group": "control_change"}, {"time": 3945, "annotation": {"number": 64, "value": 38}, "group": "control_change"}, {"time": 3945, "annotation": {"number": 64, "value": 0}, "group": "control_change"}, {"time": 3946, "annotation": {"number": 64, "value": 127}, "group": "control_change"}, {"time": 3947, "annotation": {"number": 64, "value": 127}, "group": "control_change"}, {"time": 3999, "annotation": {"number": 64, "value": 127}, "group": "control_change"}, {"time": 4027, "annotation": {"number": 64, "value": 0}, "group": "control_change"}, {"time": 4032, "annotation": {"number": 64, "value": 127}, "group": "control_change"}, {"time": 4037, "annotation": {"number": 64, "value": 74}, "group": "control_change"}, {"time": 4037, "annotation": {"number": 64, "value": 0}, "group": "control_change"}, {"time": 4047, "annotation": {"number": 64, "value": 38}, "group": "control_change"}, {"time": 4047, "annotation": {"number": 64, "value": 127}, "group": "control_change"}, {"time": 4075, "annotation": {"number": 64, "value": 0}, "group": "control_change"}, {"time": 4079, "annotation": {"number": 64, "value": 127}, "group": "control_change"}, {"time": 4086, "annotation": {"number": 64, "value": 74}, "group": "control_change"}, {"time": 4086, "annotation": {"number": 64, "value": 0}, "group": "control_change"}, {"time": 4816, "annotation": {"number": 64, "value": 127}, "group": "control_change"}, {"time": 4857, "annotation": {"number": 64, "value": 0}, "group": "control_change"}, {"time": 4861, "annotation": {"number": 64, "value": 127}, "group": "control_change"}, {"time": 4907, "annotation": {"number": 64, "value": 38}, "group": "control_change"}, {"time": 4907, "annotation": {"number": 64, "value": 0}, "group": "control_change"}, {"time": 4910, "annotation": {"number": 64, "value": 127}, "group": "control_change"}, {"time": 4919, "annotation": {"number": 64, "value": 38}, "group": "control_change"}, {"time": 4920, "annotation": {"number": 64, "value": 0}, "group": "control_change"}]}]}