{"metadata": {"schema_version": "0.2", "title": "None", "source_filename": "276.mid", "source_format": "midi"}, "resolution": 12, "tempos": [{"time": 0, "qpm": 68.0000725334107}], "time_signatures": [{"time": 0, "numerator": 4, "denominator": 4}], "tracks": [{"program": 4, "is_drum": false, "name": "MELODY", "notes": [{"time": 600, "pitch": 64, "duration": 3, "velocity": 87}, {"time": 603, "pitch": 67, "duration": 3, "velocity": 102}, {"time": 606, "pitch": 71, "duration": 6, "velocity": 113}, {"time": 612, "pitch": 71, "duration": 6, "velocity": 108}, {"time": 618, "pitch": 71, "duration": 4, "velocity": 116}, {"time": 621, "pitch": 69, "duration": 3, "velocity": 96}, {"time": 624, "pitch": 67, "duration": 3, "velocity": 92}, {"time": 627, "pitch": 71, "duration": 21, "velocity": 119}, {"time": 648, "pitch": 69, "duration": 3, "velocity": 104}, {"time": 651, "pitch": 67, "duration": 3, "velocity": 96}, {"time": 654, "pitch": 69, "duration": 6, "velocity": 110}, {"time": 660, "pitch": 69, "duration": 6, "velocity": 104}, {"time": 666, "pitch": 62, "duration": 3, "velocity": 102}, {"time": 669, "pitch": 62, "duration": 3, "velocity": 93}, {"time": 672, "pitch": 67, "duration": 3, "velocity": 110}, {"time": 675, "pitch": 64, "duration": 27, "velocity": 100}, {"time": 702, "pitch": 67, "duration": 3, "velocity": 116}, {"time": 705, "pitch": 67, "duration": 3, "velocity": 100}, {"time": 708, "pitch": 67, "duration": 3, "velocity": 102}, {"time": 711, "pitch": 66, "duration": 3, "velocity": 97}, {"time": 714, "pitch": 64, "duration": 3, "velocity": 93}, {"time": 717, "pitch": 67, "duration": 6, "velocity": 107}, {"time": 723, "pitch": 67, "duration": 3, "velocity": 87}, {"time": 726, "pitch": 71, "duration": 3, "velocity": 93}, {"time": 729, "pitch": 71, "duration": 3, "velocity": 98}, {"time": 732, "pitch": 71, "duration": 3, "velocity": 102}, {"time": 735, "pitch": 71, "duration": 3, "velocity": 98}, {"time": 738, "pitch": 74, "duration": 4, "velocity": 93}, {"time": 741, "pitch": 71, "duration": 9, "velocity": 91}, {"time": 750, "pitch": 69, "duration": 9, "velocity": 92}, {"time": 756, "pitch": 71, "duration": 9, "velocity": 91}, {"time": 765, "pitch": 69, "duration": 3, "velocity": 97}, {"time": 768, "pitch": 71, "duration": 24, "velocity": 97}, {"time": 792, "pitch": 64, "duration": 3, "velocity": 87}, {"time": 795, "pitch": 67, "duration": 3, "velocity": 102}, {"time": 798, "pitch": 71, "duration": 6, "velocity": 113}, {"time": 804, "pitch": 71, "duration": 6, "velocity": 108}, {"time": 810, "pitch": 71, "duration": 4, "velocity": 116}, {"time": 813, "pitch": 69, "duration": 3, "velocity": 96}, {"time": 816, "pitch": 67, "duration": 3, "velocity": 92}, {"time": 819, "pitch": 71, "duration": 21, "velocity": 119}, {"time": 840, "pitch": 69, "duration": 3, "velocity": 104}, {"time": 843, "pitch": 67, "duration": 3, "velocity": 96}, {"time": 846, "pitch": 69, "duration": 3, "velocity": 110}, {"time": 849, "pitch": 69, "duration": 9, "velocity": 104}, {"time": 858, "pitch": 62, "duration": 3, "velocity": 102}, {"time": 861, "pitch": 62, "duration": 3, "velocity": 93}, {"time": 864, "pitch": 67, "duration": 3, "velocity": 110}, {"time": 867, "pitch": 64, "duration": 27, "velocity": 100}, {"time": 894, "pitch": 67, "duration": 3, "velocity": 116}, {"time": 897, "pitch": 67, "duration": 3, "velocity": 100}, {"time": 900, "pitch": 67, "duration": 3, "velocity": 102}, {"time": 903, "pitch": 66, "duration": 3, "velocity": 97}, {"time": 906, "pitch": 64, "duration": 3, "velocity": 93}, {"time": 909, "pitch": 67, "duration": 3, "velocity": 107}, {"time": 912, "pitch": 67, "duration": 6, "velocity": 87}, {"time": 918, "pitch": 71, "duration": 3, "velocity": 93}, {"time": 921, "pitch": 71, "duration": 3, "velocity": 98}, {"time": 924, "pitch": 71, "duration": 3, "velocity": 102}, {"time": 927, "pitch": 71, "duration": 3, "velocity": 98}, {"time": 930, "pitch": 74, "duration": 4, "velocity": 93}, {"time": 933, "pitch": 71, "duration": 6, "velocity": 91}, {"time": 939, "pitch": 69, "duration": 3, "velocity": 86}, {"time": 942, "pitch": 67, "duration": 6, "velocity": 98}, {"time": 948, "pitch": 69, "duration": 3, "velocity": 107}, {"time": 951, "pitch": 67, "duration": 3, "velocity": 88}, {"time": 954, "pitch": 66, "duration": 6, "velocity": 95}, {"time": 960, "pitch": 62, "duration": 4, "velocity": 100}, {"time": 963, "pitch": 64, "duration": 27, "velocity": 100}, {"time": 990, "pitch": 69, "duration": 3, "velocity": 114}, {"time": 993, "pitch": 69, "duration": 3, "velocity": 93}, {"time": 996, "pitch": 69, "duration": 3, "velocity": 94}, {"time": 999, "pitch": 69, "duration": 3, "velocity": 94}, {"time": 1002, "pitch": 64, "duration": 3, "velocity": 91}, {"time": 1005, "pitch": 69, "duration": 6, "velocity": 110}, {"time": 1011, "pitch": 67, "duration": 27, "velocity": 108}, {"time": 1038, "pitch": 66, "duration": 3, "velocity": 119}, {"time": 1041, "pitch": 66, "duration": 3, "velocity": 100}, {"time": 1044, "pitch": 66, "duration": 3, "velocity": 91}, {"time": 1047, "pitch": 66, "duration": 3, "velocity": 93}, {"time": 1050, "pitch": 66, "duration": 3, "velocity": 109}, {"time": 1053, "pitch": 62, "duration": 6, "velocity": 102}, {"time": 1059, "pitch": 64, "duration": 27, "velocity": 102}, {"time": 1086, "pitch": 69, "duration": 3, "velocity": 102}, {"time": 1089, "pitch": 69, "duration": 3, "velocity": 108}, {"time": 1092, "pitch": 69, "duration": 3, "velocity": 89}, {"time": 1095, "pitch": 69, "duration": 3, "velocity": 96}, {"time": 1098, "pitch": 64, "duration": 3, "velocity": 104}, {"time": 1101, "pitch": 69, "duration": 6, "velocity": 110}, {"time": 1107, "pitch": 67, "duration": 6, "velocity": 108}, {"time": 1113, "pitch": 67, "duration": 3, "velocity": 100}, {"time": 1116, "pitch": 67, "duration": 3, "velocity": 96}, {"time": 1119, "pitch": 67, "duration": 3, "velocity": 94}, {"time": 1122, "pitch": 69, "duration": 3, "velocity": 108}, {"time": 1125, "pitch": 67, "duration": 6, "velocity": 100}, {"time": 1131, "pitch": 69, "duration": 3, "velocity": 89}, {"time": 1134, "pitch": 71, "duration": 39, "velocity": 113}, {"time": 1173, "pitch": 74, "duration": 3, "velocity": 116}, {"time": 1176, "pitch": 71, "duration": 3, "velocity": 98}, {"time": 1179, "pitch": 71, "duration": 3, "velocity": 108}, {"time": 1182, "pitch": 76, "duration": 6, "velocity": 119}, {"time": 1188, "pitch": 76, "duration": 6, "velocity": 89}, {"time": 1194, "pitch": 71, "duration": 3, "velocity": 110}, {"time": 1197, "pitch": 76, "duration": 9, "velocity": 113}, {"time": 1206, "pitch": 74, "duration": 15, "velocity": 116}, {"time": 1221, "pitch": 71, "duration": 3, "velocity": 113}, {"time": 1224, "pitch": 71, "duration": 3, "velocity": 110}, {"time": 1227, "pitch": 74, "duration": 3, "velocity": 108}, {"time": 1230, "pitch": 78, "duration": 6, "velocity": 119}, {"time": 1236, "pitch": 78, "duration": 6, "velocity": 119}, {"time": 1242, "pitch": 78, "duration": 3, "velocity": 119}, {"time": 1245, "pitch": 74, "duration": 6, "velocity": 113}, {"time": 1251, "pitch": 71, "duration": 24, "velocity": 116}, {"time": 1275, "pitch": 72, "duration": 6, "velocity": 114}, {"time": 1281, "pitch": 72, "duration": 3, "velocity": 108}, {"time": 1284, "pitch": 72, "duration": 3, "velocity": 113}, {"time": 1287, "pitch": 71, "duration": 3, "velocity": 108}, {"time": 1290, "pitch": 69, "duration": 3, "velocity": 100}, {"time": 1293, "pitch": 72, "duration": 6, "velocity": 117}, {"time": 1299, "pitch": 71, "duration": 6, "velocity": 108}, {"time": 1305, "pitch": 71, "duration": 3, "velocity": 100}, {"time": 1308, "pitch": 71, "duration": 3, "velocity": 107}, {"time": 1311, "pitch": 69, "duration": 3, "velocity": 100}, {"time": 1314, "pitch": 69, "duration": 3, "velocity": 98}, {"time": 1317, "pitch": 67, "duration": 6, "velocity": 104}, {"time": 1323, "pitch": 67, "duration": 3, "velocity": 113}, {"time": 1326, "pitch": 76, "duration": 12, "velocity": 114}, {"time": 1338, "pitch": 74, "duration": 6, "velocity": 116}, {"time": 1344, "pitch": 71, "duration": 4, "velocity": 108}, {"time": 1347, "pitch": 69, "duration": 18, "velocity": 113}, {"time": 1365, "pitch": 74, "duration": 3, "velocity": 116}, {"time": 1368, "pitch": 71, "duration": 3, "velocity": 98}, {"time": 1371, "pitch": 71, "duration": 3, "velocity": 108}, {"time": 1374, "pitch": 76, "duration": 6, "velocity": 119}, {"time": 1380, "pitch": 76, "duration": 6, "velocity": 89}, {"time": 1386, "pitch": 71, "duration": 3, "velocity": 110}, {"time": 1389, "pitch": 76, "duration": 9, "velocity": 113}, {"time": 1398, "pitch": 74, "duration": 15, "velocity": 116}, {"time": 1413, "pitch": 71, "duration": 3, "velocity": 113}, {"time": 1416, "pitch": 71, "duration": 3, "velocity": 110}, {"time": 1419, "pitch": 74, "duration": 3, "velocity": 108}, {"time": 1422, "pitch": 78, "duration": 6, "velocity": 119}, {"time": 1428, "pitch": 78, "duration": 6, "velocity": 119}, {"time": 1434, "pitch": 78, "duration": 3, "velocity": 119}, {"time": 1437, "pitch": 74, "duration": 6, "velocity": 113}, {"time": 1443, "pitch": 71, "duration": 24, "velocity": 116}, {"time": 1467, "pitch": 72, "duration": 6, "velocity": 114}, {"time": 1473, "pitch": 72, "duration": 3, "velocity": 108}, {"time": 1476, "pitch": 72, "duration": 3, "velocity": 113}, {"time": 1479, "pitch": 71, "duration": 3, "velocity": 108}, {"time": 1482, "pitch": 69, "duration": 3, "velocity": 100}, {"time": 1485, "pitch": 72, "duration": 6, "velocity": 117}, {"time": 1491, "pitch": 71, "duration": 6, "velocity": 108}, {"time": 1497, "pitch": 71, "duration": 3, "velocity": 100}, {"time": 1500, "pitch": 71, "duration": 3, "velocity": 107}, {"time": 1503, "pitch": 69, "duration": 3, "velocity": 100}, {"time": 1506, "pitch": 69, "duration": 3, "velocity": 98}, {"time": 1509, "pitch": 67, "duration": 6, "velocity": 104}, {"time": 1515, "pitch": 67, "duration": 3, "velocity": 113}, {"time": 1518, "pitch": 76, "duration": 9, "velocity": 114}, {"time": 1527, "pitch": 76, "duration": 3, "velocity": 113}, {"time": 1530, "pitch": 74, "duration": 3, "velocity": 107}, {"time": 1533, "pitch": 71, "duration": 6, "velocity": 110}, {"time": 1539, "pitch": 76, "duration": 33, "velocity": 116}, {"time": 1967, "pitch": 64, "duration": 3, "velocity": 87}, {"time": 1970, "pitch": 67, "duration": 3, "velocity": 102}, {"time": 1973, "pitch": 71, "duration": 6, "velocity": 113}, {"time": 1979, "pitch": 71, "duration": 6, "velocity": 108}, {"time": 1985, "pitch": 71, "duration": 4, "velocity": 116}, {"time": 1988, "pitch": 69, "duration": 3, "velocity": 96}, {"time": 1991, "pitch": 67, "duration": 3, "velocity": 92}, {"time": 1994, "pitch": 71, "duration": 21, "velocity": 119}, {"time": 2015, "pitch": 69, "duration": 3, "velocity": 104}, {"time": 2018, "pitch": 67, "duration": 3, "velocity": 96}, {"time": 2021, "pitch": 69, "duration": 3, "velocity": 110}, {"time": 2024, "pitch": 69, "duration": 9, "velocity": 104}, {"time": 2033, "pitch": 62, "duration": 3, "velocity": 102}, {"time": 2036, "pitch": 62, "duration": 3, "velocity": 93}, {"time": 2039, "pitch": 67, "duration": 3, "velocity": 110}, {"time": 2042, "pitch": 64, "duration": 27, "velocity": 100}, {"time": 2069, "pitch": 67, "duration": 3, "velocity": 116}, {"time": 2072, "pitch": 67, "duration": 3, "velocity": 100}, {"time": 2075, "pitch": 67, "duration": 3, "velocity": 102}, {"time": 2078, "pitch": 66, "duration": 3, "velocity": 97}, {"time": 2081, "pitch": 64, "duration": 3, "velocity": 93}, {"time": 2084, "pitch": 67, "duration": 3, "velocity": 107}, {"time": 2087, "pitch": 67, "duration": 6, "velocity": 87}, {"time": 2093, "pitch": 71, "duration": 3, "velocity": 93}, {"time": 2096, "pitch": 71, "duration": 3, "velocity": 98}, {"time": 2099, "pitch": 71, "duration": 3, "velocity": 102}, {"time": 2102, "pitch": 71, "duration": 3, "velocity": 98}, {"time": 2105, "pitch": 74, "duration": 4, "velocity": 93}, {"time": 2108, "pitch": 71, "duration": 6, "velocity": 91}, {"time": 2114, "pitch": 69, "duration": 3, "velocity": 86}, {"time": 2117, "pitch": 67, "duration": 6, "velocity": 98}, {"time": 2123, "pitch": 69, "duration": 3, "velocity": 107}, {"time": 2126, "pitch": 67, "duration": 3, "velocity": 88}, {"time": 2129, "pitch": 66, "duration": 6, "velocity": 95}, {"time": 2135, "pitch": 62, "duration": 3, "velocity": 100}, {"time": 2138, "pitch": 64, "duration": 27, "velocity": 100}, {"time": 2165, "pitch": 69, "duration": 3, "velocity": 114}, {"time": 2168, "pitch": 69, "duration": 3, "velocity": 93}, {"time": 2171, "pitch": 69, "duration": 3, "velocity": 94}, {"time": 2174, "pitch": 69, "duration": 3, "velocity": 94}, {"time": 2177, "pitch": 64, "duration": 3, "velocity": 91}, {"time": 2180, "pitch": 69, "duration": 6, "velocity": 110}, {"time": 2186, "pitch": 67, "duration": 27, "velocity": 108}, {"time": 2213, "pitch": 66, "duration": 3, "velocity": 119}, {"time": 2216, "pitch": 66, "duration": 3, "velocity": 100}, {"time": 2219, "pitch": 66, "duration": 3, "velocity": 91}, {"time": 2222, "pitch": 66, "duration": 3, "velocity": 93}, {"time": 2225, "pitch": 66, "duration": 3, "velocity": 109}, {"time": 2228, "pitch": 62, "duration": 6, "velocity": 102}, {"time": 2234, "pitch": 64, "duration": 27, "velocity": 102}, {"time": 2261, "pitch": 69, "duration": 3, "velocity": 102}, {"time": 2264, "pitch": 69, "duration": 3, "velocity": 108}, {"time": 2267, "pitch": 69, "duration": 3, "velocity": 89}, {"time": 2270, "pitch": 69, "duration": 3, "velocity": 96}, {"time": 2273, "pitch": 64, "duration": 3, "velocity": 104}, {"time": 2276, "pitch": 69, "duration": 6, "velocity": 110}, {"time": 2282, "pitch": 67, "duration": 6, "velocity": 108}, {"time": 2288, "pitch": 67, "duration": 3, "velocity": 100}, {"time": 2291, "pitch": 67, "duration": 3, "velocity": 96}, {"time": 2294, "pitch": 67, "duration": 3, "velocity": 94}, {"time": 2297, "pitch": 69, "duration": 3, "velocity": 108}, {"time": 2300, "pitch": 67, "duration": 6, "velocity": 100}, {"time": 2306, "pitch": 69, "duration": 3, "velocity": 89}, {"time": 2309, "pitch": 71, "duration": 39, "velocity": 113}, {"time": 2348, "pitch": 74, "duration": 3, "velocity": 116}, {"time": 2351, "pitch": 71, "duration": 3, "velocity": 98}, {"time": 2354, "pitch": 71, "duration": 3, "velocity": 108}, {"time": 2357, "pitch": 76, "duration": 6, "velocity": 119}, {"time": 2363, "pitch": 76, "duration": 6, "velocity": 89}, {"time": 2369, "pitch": 71, "duration": 3, "velocity": 110}, {"time": 2372, "pitch": 76, "duration": 9, "velocity": 113}, {"time": 2381, "pitch": 74, "duration": 15, "velocity": 116}, {"time": 2396, "pitch": 71, "duration": 3, "velocity": 113}, {"time": 2399, "pitch": 71, "duration": 3, "velocity": 110}, {"time": 2402, "pitch": 74, "duration": 3, "velocity": 108}, {"time": 2405, "pitch": 78, "duration": 6, "velocity": 119}, {"time": 2411, "pitch": 78, "duration": 6, "velocity": 119}, {"time": 2417, "pitch": 78, "duration": 3, "velocity": 119}, {"time": 2420, "pitch": 74, "duration": 6, "velocity": 113}, {"time": 2426, "pitch": 71, "duration": 24, "velocity": 116}, {"time": 2450, "pitch": 72, "duration": 6, "velocity": 114}, {"time": 2456, "pitch": 72, "duration": 3, "velocity": 108}, {"time": 2459, "pitch": 72, "duration": 3, "velocity": 113}, {"time": 2462, "pitch": 71, "duration": 3, "velocity": 108}, {"time": 2465, "pitch": 69, "duration": 3, "velocity": 100}, {"time": 2468, "pitch": 72, "duration": 6, "velocity": 117}, {"time": 2474, "pitch": 71, "duration": 6, "velocity": 108}, {"time": 2480, "pitch": 71, "duration": 3, "velocity": 100}, {"time": 2483, "pitch": 71, "duration": 3, "velocity": 107}, {"time": 2486, "pitch": 69, "duration": 3, "velocity": 100}, {"time": 2489, "pitch": 69, "duration": 3, "velocity": 98}, {"time": 2492, "pitch": 67, "duration": 6, "velocity": 104}, {"time": 2498, "pitch": 67, "duration": 3, "velocity": 113}, {"time": 2501, "pitch": 76, "duration": 12, "velocity": 114}, {"time": 2513, "pitch": 74, "duration": 6, "velocity": 116}, {"time": 2519, "pitch": 71, "duration": 4, "velocity": 108}, {"time": 2522, "pitch": 69, "duration": 18, "velocity": 113}, {"time": 2540, "pitch": 74, "duration": 3, "velocity": 116}, {"time": 2543, "pitch": 71, "duration": 3, "velocity": 98}, {"time": 2546, "pitch": 71, "duration": 3, "velocity": 108}, {"time": 2549, "pitch": 76, "duration": 6, "velocity": 119}, {"time": 2555, "pitch": 76, "duration": 6, "velocity": 89}, {"time": 2561, "pitch": 71, "duration": 3, "velocity": 110}, {"time": 2564, "pitch": 76, "duration": 9, "velocity": 113}, {"time": 2573, "pitch": 74, "duration": 15, "velocity": 116}, {"time": 2588, "pitch": 71, "duration": 3, "velocity": 113}, {"time": 2591, "pitch": 71, "duration": 3, "velocity": 110}, {"time": 2594, "pitch": 74, "duration": 3, "velocity": 108}, {"time": 2597, "pitch": 78, "duration": 6, "velocity": 119}, {"time": 2603, "pitch": 78, "duration": 6, "velocity": 119}, {"time": 2609, "pitch": 78, "duration": 3, "velocity": 119}, {"time": 2612, "pitch": 74, "duration": 6, "velocity": 113}, {"time": 2618, "pitch": 71, "duration": 24, "velocity": 116}, {"time": 2642, "pitch": 72, "duration": 6, "velocity": 114}, {"time": 2648, "pitch": 72, "duration": 3, "velocity": 108}, {"time": 2651, "pitch": 72, "duration": 3, "velocity": 113}, {"time": 2654, "pitch": 71, "duration": 3, "velocity": 108}, {"time": 2657, "pitch": 69, "duration": 3, "velocity": 100}, {"time": 2660, "pitch": 72, "duration": 6, "velocity": 117}, {"time": 2666, "pitch": 71, "duration": 6, "velocity": 108}, {"time": 2672, "pitch": 71, "duration": 3, "velocity": 100}, {"time": 2675, "pitch": 71, "duration": 3, "velocity": 107}, {"time": 2678, "pitch": 69, "duration": 3, "velocity": 100}, {"time": 2681, "pitch": 69, "duration": 3, "velocity": 98}, {"time": 2684, "pitch": 67, "duration": 6, "velocity": 104}, {"time": 2690, "pitch": 67, "duration": 3, "velocity": 113}, {"time": 2693, "pitch": 76, "duration": 9, "velocity": 114}, {"time": 2702, "pitch": 76, "duration": 3, "velocity": 113}, {"time": 2705, "pitch": 74, "duration": 3, "velocity": 107}, {"time": 2708, "pitch": 71, "duration": 6, "velocity": 110}, {"time": 2714, "pitch": 76, "duration": 18, "velocity": 116}, {"time": 2732, "pitch": 74, "duration": 3, "velocity": 116}, {"time": 2735, "pitch": 71, "duration": 3, "velocity": 98}, {"time": 2738, "pitch": 71, "duration": 3, "velocity": 108}, {"time": 2741, "pitch": 76, "duration": 6, "velocity": 119}, {"time": 2747, "pitch": 76, "duration": 6, "velocity": 89}, {"time": 2753, "pitch": 71, "duration": 3, "velocity": 110}, {"time": 2756, "pitch": 76, "duration": 9, "velocity": 113}, {"time": 2765, "pitch": 74, "duration": 15, "velocity": 116}, {"time": 2780, "pitch": 71, "duration": 3, "velocity": 113}, {"time": 2783, "pitch": 71, "duration": 3, "velocity": 110}, {"time": 2786, "pitch": 74, "duration": 3, "velocity": 108}, {"time": 2789, "pitch": 78, "duration": 6, "velocity": 119}, {"time": 2795, "pitch": 78, "duration": 6, "velocity": 119}, {"time": 2801, "pitch": 78, "duration": 3, "velocity": 119}, {"time": 2804, "pitch": 74, "duration": 6, "velocity": 113}, {"time": 2810, "pitch": 71, "duration": 24, "velocity": 116}, {"time": 2834, "pitch": 72, "duration": 6, "velocity": 114}, {"time": 2840, "pitch": 72, "duration": 3, "velocity": 108}, {"time": 2843, "pitch": 72, "duration": 3, "velocity": 113}, {"time": 2846, "pitch": 71, "duration": 3, "velocity": 108}, {"time": 2849, "pitch": 69, "duration": 3, "velocity": 100}, {"time": 2852, "pitch": 72, "duration": 6, "velocity": 117}, {"time": 2858, "pitch": 71, "duration": 6, "velocity": 108}, {"time": 2864, "pitch": 71, "duration": 3, "velocity": 100}, {"time": 2867, "pitch": 71, "duration": 3, "velocity": 107}, {"time": 2870, "pitch": 69, "duration": 3, "velocity": 100}, {"time": 2873, "pitch": 69, "duration": 3, "velocity": 98}, {"time": 2876, "pitch": 67, "duration": 6, "velocity": 104}, {"time": 2882, "pitch": 67, "duration": 3, "velocity": 113}, {"time": 2885, "pitch": 76, "duration": 12, "velocity": 114}, {"time": 2897, "pitch": 74, "duration": 6, "velocity": 116}, {"time": 2903, "pitch": 71, "duration": 4, "velocity": 108}, {"time": 2906, "pitch": 69, "duration": 18, "velocity": 113}, {"time": 2924, "pitch": 74, "duration": 3, "velocity": 116}, {"time": 2927, "pitch": 71, "duration": 3, "velocity": 98}, {"time": 2930, "pitch": 71, "duration": 3, "velocity": 108}, {"time": 2933, "pitch": 76, "duration": 6, "velocity": 119}, {"time": 2939, "pitch": 76, "duration": 6, "velocity": 89}, {"time": 2945, "pitch": 71, "duration": 3, "velocity": 110}, {"time": 2948, "pitch": 76, "duration": 9, "velocity": 113}, {"time": 2957, "pitch": 74, "duration": 15, "velocity": 116}, {"time": 2972, "pitch": 71, "duration": 3, "velocity": 113}, {"time": 2975, "pitch": 71, "duration": 3, "velocity": 110}, {"time": 2978, "pitch": 74, "duration": 3, "velocity": 108}, {"time": 2981, "pitch": 78, "duration": 6, "velocity": 119}, {"time": 2987, "pitch": 78, "duration": 6, "velocity": 119}, {"time": 2993, "pitch": 78, "duration": 3, "velocity": 119}, {"time": 2996, "pitch": 74, "duration": 6, "velocity": 113}, {"time": 3002, "pitch": 71, "duration": 24, "velocity": 116}, {"time": 3026, "pitch": 72, "duration": 6, "velocity": 114}, {"time": 3032, "pitch": 72, "duration": 3, "velocity": 108}, {"time": 3035, "pitch": 72, "duration": 3, "velocity": 113}, {"time": 3038, "pitch": 71, "duration": 3, "velocity": 108}, {"time": 3041, "pitch": 69, "duration": 3, "velocity": 100}, {"time": 3044, "pitch": 72, "duration": 6, "velocity": 117}, {"time": 3050, "pitch": 71, "duration": 6, "velocity": 108}, {"time": 3056, "pitch": 71, "duration": 3, "velocity": 100}, {"time": 3059, "pitch": 71, "duration": 3, "velocity": 107}, {"time": 3062, "pitch": 69, "duration": 3, "velocity": 100}, {"time": 3065, "pitch": 69, "duration": 3, "velocity": 98}, {"time": 3068, "pitch": 67, "duration": 6, "velocity": 104}, {"time": 3074, "pitch": 67, "duration": 3, "velocity": 113}, {"time": 3077, "pitch": 76, "duration": 9, "velocity": 114}, {"time": 3086, "pitch": 76, "duration": 3, "velocity": 113}, {"time": 3089, "pitch": 74, "duration": 3, "velocity": 107}, {"time": 3092, "pitch": 71, "duration": 6, "velocity": 110}, {"time": 3098, "pitch": 76, "duration": 51, "velocity": 116}, {"time": 3149, "pitch": 72, "duration": 6, "velocity": 107}, {"time": 3155, "pitch": 72, "duration": 3, "velocity": 102}, {"time": 3158, "pitch": 72, "duration": 3, "velocity": 102}, {"time": 3161, "pitch": 71, "duration": 3, "velocity": 96}, {"time": 3164, "pitch": 69, "duration": 3, "velocity": 91}, {"time": 3167, "pitch": 72, "duration": 6, "velocity": 113}, {"time": 3173, "pitch": 71, "duration": 6, "velocity": 107}, {"time": 3179, "pitch": 71, "duration": 3, "velocity": 98}, {"time": 3182, "pitch": 71, "duration": 3, "velocity": 102}, {"time": 3185, "pitch": 71, "duration": 3, "velocity": 91}, {"time": 3188, "pitch": 69, "duration": 3, "velocity": 91}, {"time": 3191, "pitch": 67, "duration": 4, "velocity": 94}, {"time": 3195, "pitch": 71, "duration": 3, "velocity": 88}, {"time": 3198, "pitch": 76, "duration": 9, "velocity": 116}, {"time": 3207, "pitch": 76, "duration": 3, "velocity": 113}, {"time": 3210, "pitch": 74, "duration": 6, "velocity": 113}, {"time": 3216, "pitch": 71, "duration": 3, "velocity": 100}, {"time": 3219, "pitch": 76, "duration": 11, "velocity": 116}]}, {"program": 0, "is_drum": false, "name": "PIANO", "notes": [{"time": 222, "pitch": 52, "duration": 19, "velocity": 88}, {"time": 228, "pitch": 59, "duration": 14, "velocity": 83}, {"time": 231, "pitch": 69, "duration": 7, "velocity": 93}, {"time": 237, "pitch": 67, "duration": 17, "velocity": 88}, {"time": 246, "pitch": 50, "duration": 18, "velocity": 81}, {"time": 252, "pitch": 57, "duration": 12, "velocity": 72}, {"time": 255, "pitch": 67, "duration": 6, "velocity": 89}, {"time": 261, "pitch": 66, "duration": 16, "velocity": 85}, {"time": 270, "pitch": 52, "duration": 43, "velocity": 86}, {"time": 276, "pitch": 59, "duration": 16, "velocity": 68}, {"time": 279, "pitch": 64, "duration": 17, "velocity": 85}, {"time": 282, "pitch": 71, "duration": 5, "velocity": 96}, {"time": 288, "pitch": 69, "duration": 3, "velocity": 75}, {"time": 291, "pitch": 67, "duration": 10, "velocity": 88}, {"time": 294, "pitch": 59, "duration": 20, "velocity": 81}, {"time": 300, "pitch": 66, "duration": 3, "velocity": 82}, {"time": 303, "pitch": 67, "duration": 15, "velocity": 89}, {"time": 318, "pitch": 52, "duration": 18, "velocity": 88}, {"time": 324, "pitch": 59, "duration": 13, "velocity": 76}, {"time": 327, "pitch": 67, "duration": 6, "velocity": 104}, {"time": 333, "pitch": 64, "duration": 19, "velocity": 87}, {"time": 342, "pitch": 50, "duration": 19, "velocity": 88}, {"time": 348, "pitch": 57, "duration": 13, "velocity": 77}, {"time": 351, "pitch": 66, "duration": 7, "velocity": 85}, {"time": 357, "pitch": 62, "duration": 10, "velocity": 83}, {"time": 366, "pitch": 52, "duration": 42, "velocity": 87}, {"time": 372, "pitch": 59, "duration": 36, "velocity": 52}, {"time": 375, "pitch": 62, "duration": 13, "velocity": 84}, {"time": 381, "pitch": 67, "duration": 28, "velocity": 86}, {"time": 390, "pitch": 64, "duration": 21, "velocity": 79}, {"time": 414, "pitch": 52, "duration": 25, "velocity": 87}, {"time": 420, "pitch": 59, "duration": 18, "velocity": 65}, {"time": 423, "pitch": 67, "duration": 15, "velocity": 88}, {"time": 429, "pitch": 64, "duration": 10, "velocity": 84}, {"time": 438, "pitch": 45, "duration": 21, "velocity": 88}, {"time": 444, "pitch": 52, "duration": 17, "velocity": 78}, {"time": 447, "pitch": 69, "duration": 15, "velocity": 93}, {"time": 453, "pitch": 64, "duration": 13, "velocity": 81}, {"time": 462, "pitch": 52, "duration": 25, "velocity": 88}, {"time": 468, "pitch": 60, "duration": 4, "velocity": 64}, {"time": 471, "pitch": 67, "duration": 7, "velocity": 100}, {"time": 477, "pitch": 62, "duration": 10, "velocity": 86}, {"time": 486, "pitch": 45, "duration": 18, "velocity": 88}, {"time": 492, "pitch": 52, "duration": 15, "velocity": 81}, {"time": 495, "pitch": 69, "duration": 13, "velocity": 93}, {"time": 501, "pitch": 64, "duration": 8, "velocity": 85}, {"time": 510, "pitch": 48, "duration": 22, "velocity": 94}, {"time": 516, "pitch": 60, "duration": 4, "velocity": 71}, {"time": 519, "pitch": 67, "duration": 15, "velocity": 88}, {"time": 525, "pitch": 64, "duration": 9, "velocity": 81}, {"time": 534, "pitch": 50, "duration": 19, "velocity": 87}, {"time": 540, "pitch": 57, "duration": 18, "velocity": 81}, {"time": 543, "pitch": 69, "duration": 6, "velocity": 91}, {"time": 549, "pitch": 64, "duration": 10, "velocity": 84}, {"time": 558, "pitch": 52, "duration": 33, "velocity": 88}, {"time": 564, "pitch": 59, "duration": 27, "velocity": 73}, {"time": 567, "pitch": 67, "duration": 6, "velocity": 98}, {"time": 573, "pitch": 66, "duration": 8, "velocity": 83}, {"time": 579, "pitch": 62, "duration": 3, "velocity": 75}, {"time": 582, "pitch": 64, "duration": 10, "velocity": 84}, {"time": 606, "pitch": 52, "duration": 18, "velocity": 87}, {"time": 612, "pitch": 59, "duration": 12, "velocity": 38}, {"time": 615, "pitch": 67, "duration": 18, "velocity": 86}, {"time": 630, "pitch": 50, "duration": 16, "velocity": 83}, {"time": 636, "pitch": 57, "duration": 10, "velocity": 64}, {"time": 639, "pitch": 69, "duration": 6, "velocity": 88}, {"time": 645, "pitch": 67, "duration": 10, "velocity": 83}, {"time": 654, "pitch": 45, "duration": 18, "velocity": 87}, {"time": 657, "pitch": 52, "duration": 16, "velocity": 73}, {"time": 660, "pitch": 60, "duration": 19, "velocity": 74}, {"time": 663, "pitch": 69, "duration": 20, "velocity": 83}, {"time": 678, "pitch": 52, "duration": 18, "velocity": 81}, {"time": 684, "pitch": 59, "duration": 12, "velocity": 64}, {"time": 687, "pitch": 67, "duration": 13, "velocity": 83}, {"time": 702, "pitch": 48, "duration": 20, "velocity": 87}, {"time": 705, "pitch": 55, "duration": 19, "velocity": 81}, {"time": 708, "pitch": 60, "duration": 9, "velocity": 77}, {"time": 711, "pitch": 67, "duration": 6, "velocity": 88}, {"time": 717, "pitch": 64, "duration": 6, "velocity": 81}, {"time": 723, "pitch": 67, "duration": 4, "velocity": 73}, {"time": 726, "pitch": 50, "duration": 19, "velocity": 89}, {"time": 729, "pitch": 57, "duration": 16, "velocity": 80}, {"time": 732, "pitch": 62, "duration": 3, "velocity": 78}, {"time": 735, "pitch": 67, "duration": 20, "velocity": 91}, {"time": 750, "pitch": 47, "duration": 36, "velocity": 82}, {"time": 753, "pitch": 54, "duration": 33, "velocity": 72}, {"time": 756, "pitch": 59, "duration": 29, "velocity": 73}, {"time": 759, "pitch": 66, "duration": 10, "velocity": 89}, {"time": 771, "pitch": 64, "duration": 3, "velocity": 86}, {"time": 774, "pitch": 63, "duration": 12, "velocity": 84}, {"time": 798, "pitch": 52, "duration": 20, "velocity": 91}, {"time": 801, "pitch": 59, "duration": 22, "velocity": 82}, {"time": 804, "pitch": 64, "duration": 19, "velocity": 76}, {"time": 807, "pitch": 71, "duration": 19, "velocity": 84}, {"time": 822, "pitch": 50, "duration": 19, "velocity": 87}, {"time": 828, "pitch": 57, "duration": 12, "velocity": 73}, {"time": 831, "pitch": 69, "duration": 16, "velocity": 89}, {"time": 846, "pitch": 45, "duration": 19, "velocity": 86}, {"time": 849, "pitch": 52, "duration": 16, "velocity": 71}, {"time": 852, "pitch": 60, "duration": 17, "velocity": 72}, {"time": 855, "pitch": 69, "duration": 15, "velocity": 89}, {"time": 870, "pitch": 52, "duration": 21, "velocity": 86}, {"time": 876, "pitch": 59, "duration": 6, "velocity": 81}, {"time": 879, "pitch": 64, "duration": 6, "velocity": 96}, {"time": 885, "pitch": 59, "duration": 12, "velocity": 85}, {"time": 891, "pitch": 66, "duration": 4, "velocity": 83}, {"time": 894, "pitch": 48, "duration": 20, "velocity": 84}, {"time": 894, "pitch": 60, "duration": 19, "velocity": 88}, {"time": 894, "pitch": 67, "duration": 3, "velocity": 87}, {"time": 903, "pitch": 55, "duration": 12, "velocity": 72}, {"time": 909, "pitch": 64, "duration": 8, "velocity": 84}, {"time": 915, "pitch": 67, "duration": 3, "velocity": 71}, {"time": 918, "pitch": 50, "duration": 24, "velocity": 87}, {"time": 918, "pitch": 62, "duration": 9, "velocity": 84}, {"time": 918, "pitch": 66, "duration": 9, "velocity": 87}, {"time": 927, "pitch": 57, "duration": 9, "velocity": 69}, {"time": 930, "pitch": 62, "duration": 6, "velocity": 96}, {"time": 930, "pitch": 69, "duration": 10, "velocity": 93}, {"time": 942, "pitch": 48, "duration": 11, "velocity": 87}, {"time": 942, "pitch": 60, "duration": 9, "velocity": 87}, {"time": 942, "pitch": 67, "duration": 12, "velocity": 88}, {"time": 954, "pitch": 50, "duration": 7, "velocity": 84}, {"time": 954, "pitch": 62, "duration": 12, "velocity": 90}, {"time": 954, "pitch": 69, "duration": 7, "velocity": 93}, {"time": 966, "pitch": 52, "duration": 21, "velocity": 86}, {"time": 966, "pitch": 59, "duration": 23, "velocity": 80}, {"time": 966, "pitch": 67, "duration": 2, "velocity": 78}, {"time": 972, "pitch": 64, "duration": 9, "velocity": 89}, {"time": 975, "pitch": 67, "duration": 5, "velocity": 100}, {"time": 981, "pitch": 69, "duration": 8, "velocity": 104}, {"time": 990, "pitch": 45, "duration": 23, "velocity": 87}, {"time": 990, "pitch": 60, "duration": 10, "velocity": 88}, {"time": 990, "pitch": 64, "duration": 10, "velocity": 88}, {"time": 990, "pitch": 69, "duration": 10, "velocity": 89}, {"time": 1002, "pitch": 60, "duration": 5, "velocity": 83}, {"time": 1002, "pitch": 64, "duration": 12, "velocity": 83}, {"time": 1002, "pitch": 69, "duration": 7, "velocity": 83}, {"time": 1014, "pitch": 43, "duration": 18, "velocity": 83}, {"time": 1014, "pitch": 59, "duration": 9, "velocity": 81}, {"time": 1014, "pitch": 62, "duration": 8, "velocity": 87}, {"time": 1014, "pitch": 67, "duration": 8, "velocity": 85}, {"time": 1026, "pitch": 59, "duration": 7, "velocity": 82}, {"time": 1026, "pitch": 62, "duration": 9, "velocity": 85}, {"time": 1026, "pitch": 67, "duration": 8, "velocity": 83}, {"time": 1038, "pitch": 47, "duration": 16, "velocity": 78}, {"time": 1038, "pitch": 59, "duration": 7, "velocity": 84}, {"time": 1038, "pitch": 63, "duration": 7, "velocity": 84}, {"time": 1038, "pitch": 66, "duration": 7, "velocity": 80}, {"time": 1050, "pitch": 59, "duration": 9, "velocity": 88}, {"time": 1050, "pitch": 63, "duration": 10, "velocity": 89}, {"time": 1050, "pitch": 66, "duration": 9, "velocity": 85}, {"time": 1062, "pitch": 40, "duration": 18, "velocity": 80}, {"time": 1062, "pitch": 52, "duration": 14, "velocity": 83}, {"time": 1062, "pitch": 59, "duration": 10, "velocity": 84}, {"time": 1062, "pitch": 64, "duration": 10, "velocity": 86}, {"time": 1062, "pitch": 67, "duration": 9, "velocity": 86}, {"time": 1074, "pitch": 59, "duration": 6, "velocity": 86}, {"time": 1074, "pitch": 64, "duration": 6, "velocity": 88}, {"time": 1074, "pitch": 67, "duration": 11, "velocity": 87}, {"time": 1080, "pitch": 52, "duration": 6, "velocity": 87}, {"time": 1086, "pitch": 45, "duration": 23, "velocity": 83}, {"time": 1086, "pitch": 57, "duration": 8, "velocity": 87}, {"time": 1086, "pitch": 60, "duration": 9, "velocity": 91}, {"time": 1086, "pitch": 67, "duration": 9, "velocity": 86}, {"time": 1098, "pitch": 57, "duration": 9, "velocity": 86}, {"time": 1098, "pitch": 60, "duration": 11, "velocity": 87}, {"time": 1098, "pitch": 67, "duration": 10, "velocity": 86}, {"time": 1110, "pitch": 43, "duration": 18, "velocity": 82}, {"time": 1110, "pitch": 55, "duration": 19, "velocity": 80}, {"time": 1110, "pitch": 59, "duration": 9, "velocity": 84}, {"time": 1110, "pitch": 62, "duration": 9, "velocity": 88}, {"time": 1110, "pitch": 67, "duration": 9, "velocity": 84}, {"time": 1122, "pitch": 59, "duration": 6, "velocity": 86}, {"time": 1122, "pitch": 62, "duration": 6, "velocity": 89}, {"time": 1122, "pitch": 67, "duration": 7, "velocity": 86}, {"time": 1134, "pitch": 47, "duration": 29, "velocity": 81}, {"time": 1134, "pitch": 59, "duration": 9, "velocity": 92}, {"time": 1134, "pitch": 63, "duration": 10, "velocity": 100}, {"time": 1134, "pitch": 66, "duration": 9, "velocity": 89}, {"time": 1146, "pitch": 59, "duration": 7, "velocity": 94}, {"time": 1146, "pitch": 63, "duration": 8, "velocity": 95}, {"time": 1146, "pitch": 66, "duration": 6, "velocity": 89}, {"time": 1152, "pitch": 54, "duration": 4, "velocity": 80}, {"time": 1155, "pitch": 59, "duration": 4, "velocity": 90}, {"time": 1155, "pitch": 63, "duration": 5, "velocity": 87}, {"time": 1155, "pitch": 66, "duration": 4, "velocity": 87}, {"time": 1161, "pitch": 59, "duration": 7, "velocity": 92}, {"time": 1161, "pitch": 63, "duration": 7, "velocity": 97}, {"time": 1161, "pitch": 66, "duration": 6, "velocity": 100}, {"time": 1167, "pitch": 47, "duration": 5, "velocity": 91}, {"time": 1170, "pitch": 59, "duration": 9, "velocity": 100}, {"time": 1170, "pitch": 63, "duration": 6, "velocity": 116}, {"time": 1170, "pitch": 66, "duration": 7, "velocity": 113}, {"time": 1176, "pitch": 47, "duration": 5, "velocity": 94}, {"time": 1182, "pitch": 52, "duration": 17, "velocity": 96}, {"time": 1182, "pitch": 59, "duration": 10, "velocity": 94}, {"time": 1182, "pitch": 64, "duration": 10, "velocity": 108}, {"time": 1182, "pitch": 67, "duration": 10, "velocity": 100}, {"time": 1194, "pitch": 59, "duration": 10, "velocity": 107}, {"time": 1194, "pitch": 64, "duration": 10, "velocity": 110}, {"time": 1194, "pitch": 67, "duration": 10, "velocity": 98}, {"time": 1200, "pitch": 52, "duration": 5, "velocity": 85}, {"time": 1206, "pitch": 50, "duration": 8, "velocity": 104}, {"time": 1206, "pitch": 57, "duration": 10, "velocity": 87}, {"time": 1206, "pitch": 62, "duration": 10, "velocity": 110}, {"time": 1206, "pitch": 66, "duration": 10, "velocity": 95}, {"time": 1215, "pitch": 50, "duration": 7, "velocity": 88}, {"time": 1218, "pitch": 57, "duration": 7, "velocity": 102}, {"time": 1218, "pitch": 62, "duration": 11, "velocity": 116}, {"time": 1218, "pitch": 66, "duration": 8, "velocity": 113}, {"time": 1224, "pitch": 50, "duration": 6, "velocity": 93}, {"time": 1230, "pitch": 47, "duration": 15, "velocity": 98}, {"time": 1230, "pitch": 59, "duration": 9, "velocity": 104}, {"time": 1230, "pitch": 62, "duration": 9, "velocity": 109}, {"time": 1230, "pitch": 66, "duration": 9, "velocity": 109}, {"time": 1242, "pitch": 59, "duration": 9, "velocity": 108}, {"time": 1242, "pitch": 62, "duration": 10, "velocity": 113}, {"time": 1242, "pitch": 66, "duration": 8, "velocity": 113}, {"time": 1248, "pitch": 47, "duration": 5, "velocity": 93}, {"time": 1254, "pitch": 52, "duration": 13, "velocity": 90}, {"time": 1254, "pitch": 59, "duration": 8, "velocity": 93}, {"time": 1254, "pitch": 64, "duration": 8, "velocity": 108}, {"time": 1254, "pitch": 67, "duration": 7, "velocity": 100}, {"time": 1263, "pitch": 59, "duration": 7, "velocity": 93}, {"time": 1263, "pitch": 64, "duration": 7, "velocity": 102}, {"time": 1263, "pitch": 67, "duration": 7, "velocity": 91}, {"time": 1269, "pitch": 52, "duration": 8, "velocity": 92}, {"time": 1272, "pitch": 59, "duration": 2, "velocity": 104}, {"time": 1272, "pitch": 64, "duration": 4, "velocity": 110}, {"time": 1272, "pitch": 67, "duration": 4, "velocity": 94}, {"time": 1278, "pitch": 45, "duration": 15, "velocity": 84}, {"time": 1278, "pitch": 57, "duration": 14, "velocity": 83}, {"time": 1278, "pitch": 60, "duration": 8, "velocity": 88}, {"time": 1278, "pitch": 64, "duration": 8, "velocity": 91}, {"time": 1278, "pitch": 69, "duration": 8, "velocity": 89}, {"time": 1290, "pitch": 60, "duration": 8, "velocity": 96}, {"time": 1290, "pitch": 64, "duration": 7, "velocity": 100}, {"time": 1290, "pitch": 69, "duration": 8, "velocity": 91}, {"time": 1296, "pitch": 45, "duration": 4, "velocity": 86}, {"time": 1302, "pitch": 52, "duration": 16, "velocity": 86}, {"time": 1302, "pitch": 59, "duration": 10, "velocity": 84}, {"time": 1302, "pitch": 64, "duration": 10, "velocity": 88}, {"time": 1302, "pitch": 67, "duration": 10, "velocity": 87}, {"time": 1314, "pitch": 59, "duration": 8, "velocity": 91}, {"time": 1314, "pitch": 64, "duration": 8, "velocity": 93}, {"time": 1314, "pitch": 67, "duration": 8, "velocity": 89}, {"time": 1320, "pitch": 52, "duration": 4, "velocity": 86}, {"time": 1326, "pitch": 48, "duration": 16, "velocity": 91}, {"time": 1326, "pitch": 60, "duration": 11, "velocity": 89}, {"time": 1326, "pitch": 64, "duration": 11, "velocity": 100}, {"time": 1326, "pitch": 67, "duration": 10, "velocity": 91}, {"time": 1338, "pitch": 60, "duration": 8, "velocity": 93}, {"time": 1338, "pitch": 64, "duration": 10, "velocity": 110}, {"time": 1338, "pitch": 67, "duration": 10, "velocity": 102}, {"time": 1344, "pitch": 48, "duration": 4, "velocity": 86}, {"time": 1350, "pitch": 50, "duration": 18, "velocity": 94}, {"time": 1350, "pitch": 62, "duration": 7, "velocity": 92}, {"time": 1350, "pitch": 66, "duration": 7, "velocity": 109}, {"time": 1350, "pitch": 69, "duration": 7, "velocity": 96}, {"time": 1356, "pitch": 57, "duration": 2, "velocity": 71}, {"time": 1359, "pitch": 62, "duration": 6, "velocity": 107}, {"time": 1359, "pitch": 66, "duration": 6, "velocity": 116}, {"time": 1359, "pitch": 69, "duration": 6, "velocity": 107}, {"time": 1365, "pitch": 57, "duration": 4, "velocity": 86}, {"time": 1368, "pitch": 62, "duration": 2, "velocity": 110}, {"time": 1368, "pitch": 66, "duration": 2, "velocity": 119}, {"time": 1368, "pitch": 69, "duration": 2, "velocity": 107}, {"time": 1374, "pitch": 40, "duration": 18, "velocity": 96}, {"time": 1374, "pitch": 52, "duration": 4, "velocity": 91}, {"time": 1374, "pitch": 59, "duration": 8, "velocity": 96}, {"time": 1374, "pitch": 64, "duration": 8, "velocity": 113}, {"time": 1374, "pitch": 67, "duration": 7, "velocity": 90}, {"time": 1380, "pitch": 52, "duration": 6, "velocity": 85}, {"time": 1383, "pitch": 64, "duration": 8, "velocity": 114}, {"time": 1383, "pitch": 67, "duration": 8, "velocity": 107}, {"time": 1389, "pitch": 52, "duration": 8, "velocity": 87}, {"time": 1392, "pitch": 59, "duration": 3, "velocity": 96}, {"time": 1392, "pitch": 64, "duration": 4, "velocity": 102}, {"time": 1392, "pitch": 67, "duration": 4, "velocity": 90}, {"time": 1398, "pitch": 50, "duration": 5, "velocity": 91}, {"time": 1398, "pitch": 57, "duration": 8, "velocity": 104}, {"time": 1398, "pitch": 62, "duration": 7, "velocity": 113}, {"time": 1398, "pitch": 66, "duration": 8, "velocity": 109}, {"time": 1404, "pitch": 50, "duration": 6, "velocity": 87}, {"time": 1407, "pitch": 57, "duration": 7, "velocity": 96}, {"time": 1407, "pitch": 62, "duration": 7, "velocity": 116}, {"time": 1407, "pitch": 66, "duration": 7, "velocity": 113}, {"time": 1413, "pitch": 50, "duration": 8, "velocity": 94}, {"time": 1416, "pitch": 57, "duration": 2, "velocity": 91}, {"time": 1416, "pitch": 62, "duration": 4, "velocity": 110}, {"time": 1416, "pitch": 66, "duration": 4, "velocity": 106}, {"time": 1422, "pitch": 47, "duration": 5, "velocity": 90}, {"time": 1422, "pitch": 59, "duration": 7, "velocity": 94}, {"time": 1422, "pitch": 62, "duration": 7, "velocity": 108}, {"time": 1422, "pitch": 66, "duration": 7, "velocity": 103}, {"time": 1428, "pitch": 47, "duration": 6, "velocity": 87}, {"time": 1431, "pitch": 59, "duration": 7, "velocity": 92}, {"time": 1431, "pitch": 62, "duration": 8, "velocity": 108}, {"time": 1431, "pitch": 66, "duration": 7, "velocity": 93}, {"time": 1437, "pitch": 47, "duration": 7, "velocity": 87}, {"time": 1440, "pitch": 59, "duration": 4, "velocity": 87}, {"time": 1440, "pitch": 62, "duration": 5, "velocity": 93}, {"time": 1440, "pitch": 66, "duration": 3, "velocity": 85}, {"time": 1446, "pitch": 52, "duration": 12, "velocity": 89}, {"time": 1446, "pitch": 59, "duration": 8, "velocity": 90}, {"time": 1446, "pitch": 64, "duration": 8, "velocity": 96}, {"time": 1446, "pitch": 67, "duration": 7, "velocity": 91}, {"time": 1455, "pitch": 59, "duration": 7, "velocity": 94}, {"time": 1455, "pitch": 64, "duration": 7, "velocity": 98}, {"time": 1455, "pitch": 67, "duration": 7, "velocity": 89}, {"time": 1461, "pitch": 52, "duration": 9, "velocity": 87}, {"time": 1464, "pitch": 59, "duration": 3, "velocity": 86}, {"time": 1464, "pitch": 64, "duration": 4, "velocity": 88}, {"time": 1464, "pitch": 67, "duration": 3, "velocity": 87}, {"time": 1470, "pitch": 45, "duration": 22, "velocity": 87}, {"time": 1470, "pitch": 57, "duration": 11, "velocity": 89}, {"time": 1470, "pitch": 60, "duration": 7, "velocity": 96}, {"time": 1470, "pitch": 64, "duration": 8, "velocity": 104}, {"time": 1470, "pitch": 67, "duration": 7, "velocity": 96}, {"time": 1479, "pitch": 60, "duration": 12, "velocity": 93}, {"time": 1479, "pitch": 64, "duration": 13, "velocity": 100}, {"time": 1479, "pitch": 67, "duration": 14, "velocity": 89}, {"time": 1482, "pitch": 57, "duration": 8, "velocity": 86}, {"time": 1494, "pitch": 52, "duration": 23, "velocity": 88}, {"time": 1494, "pitch": 59, "duration": 8, "velocity": 89}, {"time": 1494, "pitch": 64, "duration": 8, "velocity": 94}, {"time": 1494, "pitch": 67, "duration": 8, "velocity": 88}, {"time": 1503, "pitch": 59, "duration": 7, "velocity": 88}, {"time": 1503, "pitch": 64, "duration": 8, "velocity": 88}, {"time": 1503, "pitch": 67, "duration": 7, "velocity": 85}, {"time": 1512, "pitch": 59, "duration": 2, "velocity": 78}, {"time": 1512, "pitch": 64, "duration": 4, "velocity": 84}, {"time": 1512, "pitch": 67, "duration": 2, "velocity": 79}, {"time": 1518, "pitch": 48, "duration": 7, "velocity": 89}, {"time": 1518, "pitch": 60, "duration": 10, "velocity": 87}, {"time": 1518, "pitch": 64, "duration": 10, "velocity": 94}, {"time": 1518, "pitch": 67, "duration": 10, "velocity": 91}, {"time": 1527, "pitch": 48, "duration": 2, "velocity": 82}, {"time": 1530, "pitch": 50, "duration": 6, "velocity": 91}, {"time": 1530, "pitch": 57, "duration": 6, "velocity": 84}, {"time": 1530, "pitch": 62, "duration": 7, "velocity": 86}, {"time": 1530, "pitch": 66, "duration": 7, "velocity": 84}, {"time": 1539, "pitch": 40, "duration": 5, "velocity": 94}, {"time": 1539, "pitch": 52, "duration": 5, "velocity": 91}, {"time": 1539, "pitch": 59, "duration": 19, "velocity": 85}, {"time": 1539, "pitch": 64, "duration": 19, "velocity": 91}, {"time": 1539, "pitch": 67, "duration": 19, "velocity": 91}, {"time": 1590, "pitch": 52, "duration": 19, "velocity": 88}, {"time": 1596, "pitch": 59, "duration": 14, "velocity": 83}, {"time": 1599, "pitch": 69, "duration": 7, "velocity": 93}, {"time": 1605, "pitch": 67, "duration": 17, "velocity": 88}, {"time": 1614, "pitch": 50, "duration": 18, "velocity": 81}, {"time": 1620, "pitch": 57, "duration": 12, "velocity": 72}, {"time": 1623, "pitch": 67, "duration": 6, "velocity": 89}, {"time": 1629, "pitch": 66, "duration": 16, "velocity": 85}, {"time": 1638, "pitch": 52, "duration": 43, "velocity": 86}, {"time": 1644, "pitch": 59, "duration": 16, "velocity": 68}, {"time": 1647, "pitch": 64, "duration": 17, "velocity": 85}, {"time": 1650, "pitch": 71, "duration": 5, "velocity": 96}, {"time": 1656, "pitch": 69, "duration": 3, "velocity": 75}, {"time": 1659, "pitch": 67, "duration": 10, "velocity": 88}, {"time": 1662, "pitch": 59, "duration": 20, "velocity": 81}, {"time": 1668, "pitch": 66, "duration": 3, "velocity": 82}, {"time": 1671, "pitch": 67, "duration": 15, "velocity": 89}, {"time": 1686, "pitch": 52, "duration": 18, "velocity": 88}, {"time": 1692, "pitch": 59, "duration": 13, "velocity": 76}, {"time": 1695, "pitch": 67, "duration": 6, "velocity": 104}, {"time": 1701, "pitch": 64, "duration": 19, "velocity": 87}, {"time": 1710, "pitch": 50, "duration": 19, "velocity": 88}, {"time": 1716, "pitch": 57, "duration": 13, "velocity": 77}, {"time": 1719, "pitch": 66, "duration": 7, "velocity": 85}, {"time": 1725, "pitch": 62, "duration": 10, "velocity": 83}, {"time": 1734, "pitch": 52, "duration": 42, "velocity": 87}, {"time": 1740, "pitch": 59, "duration": 36, "velocity": 52}, {"time": 1743, "pitch": 62, "duration": 13, "velocity": 84}, {"time": 1749, "pitch": 67, "duration": 28, "velocity": 86}, {"time": 1758, "pitch": 64, "duration": 21, "velocity": 79}, {"time": 1782, "pitch": 52, "duration": 25, "velocity": 87}, {"time": 1788, "pitch": 59, "duration": 18, "velocity": 65}, {"time": 1791, "pitch": 67, "duration": 15, "velocity": 88}, {"time": 1797, "pitch": 64, "duration": 10, "velocity": 84}, {"time": 1806, "pitch": 45, "duration": 21, "velocity": 88}, {"time": 1812, "pitch": 52, "duration": 17, "velocity": 78}, {"time": 1815, "pitch": 69, "duration": 15, "velocity": 93}, {"time": 1821, "pitch": 64, "duration": 13, "velocity": 81}, {"time": 1830, "pitch": 52, "duration": 25, "velocity": 88}, {"time": 1836, "pitch": 60, "duration": 4, "velocity": 64}, {"time": 1839, "pitch": 67, "duration": 7, "velocity": 100}, {"time": 1845, "pitch": 62, "duration": 10, "velocity": 86}, {"time": 1854, "pitch": 45, "duration": 18, "velocity": 88}, {"time": 1860, "pitch": 52, "duration": 15, "velocity": 81}, {"time": 1863, "pitch": 69, "duration": 13, "velocity": 93}, {"time": 1869, "pitch": 64, "duration": 8, "velocity": 85}, {"time": 1878, "pitch": 48, "duration": 22, "velocity": 94}, {"time": 1884, "pitch": 60, "duration": 4, "velocity": 71}, {"time": 1887, "pitch": 67, "duration": 15, "velocity": 88}, {"time": 1893, "pitch": 64, "duration": 9, "velocity": 81}, {"time": 1902, "pitch": 50, "duration": 19, "velocity": 87}, {"time": 1908, "pitch": 57, "duration": 18, "velocity": 81}, {"time": 1911, "pitch": 69, "duration": 6, "velocity": 91}, {"time": 1917, "pitch": 64, "duration": 10, "velocity": 84}, {"time": 1926, "pitch": 52, "duration": 33, "velocity": 88}, {"time": 1932, "pitch": 59, "duration": 27, "velocity": 73}, {"time": 1935, "pitch": 67, "duration": 6, "velocity": 98}, {"time": 1941, "pitch": 66, "duration": 8, "velocity": 83}, {"time": 1947, "pitch": 62, "duration": 3, "velocity": 75}, {"time": 1950, "pitch": 64, "duration": 10, "velocity": 84}, {"time": 1973, "pitch": 52, "duration": 19, "velocity": 91}, {"time": 1976, "pitch": 59, "duration": 22, "velocity": 82}, {"time": 1979, "pitch": 64, "duration": 19, "velocity": 76}, {"time": 1982, "pitch": 71, "duration": 19, "velocity": 84}, {"time": 1997, "pitch": 50, "duration": 19, "velocity": 87}, {"time": 2003, "pitch": 57, "duration": 12, "velocity": 73}, {"time": 2006, "pitch": 69, "duration": 16, "velocity": 89}, {"time": 2021, "pitch": 45, "duration": 19, "velocity": 86}, {"time": 2024, "pitch": 52, "duration": 16, "velocity": 71}, {"time": 2027, "pitch": 60, "duration": 17, "velocity": 72}, {"time": 2030, "pitch": 69, "duration": 15, "velocity": 89}, {"time": 2039, "pitch": 64, "duration": 8, "velocity": 82}, {"time": 2045, "pitch": 52, "duration": 21, "velocity": 86}, {"time": 2051, "pitch": 59, "duration": 8, "velocity": 38}, {"time": 2054, "pitch": 64, "duration": 6, "velocity": 96}, {"time": 2060, "pitch": 59, "duration": 6, "velocity": 85}, {"time": 2066, "pitch": 66, "duration": 4, "velocity": 83}, {"time": 2069, "pitch": 48, "duration": 20, "velocity": 84}, {"time": 2069, "pitch": 60, "duration": 19, "velocity": 88}, {"time": 2069, "pitch": 67, "duration": 13, "velocity": 87}, {"time": 2078, "pitch": 55, "duration": 12, "velocity": 72}, {"time": 2084, "pitch": 64, "duration": 8, "velocity": 84}, {"time": 2090, "pitch": 67, "duration": 3, "velocity": 71}, {"time": 2093, "pitch": 50, "duration": 24, "velocity": 87}, {"time": 2093, "pitch": 62, "duration": 9, "velocity": 84}, {"time": 2093, "pitch": 69, "duration": 9, "velocity": 87}, {"time": 2102, "pitch": 57, "duration": 9, "velocity": 69}, {"time": 2105, "pitch": 62, "duration": 6, "velocity": 96}, {"time": 2105, "pitch": 69, "duration": 10, "velocity": 93}, {"time": 2117, "pitch": 48, "duration": 11, "velocity": 87}, {"time": 2117, "pitch": 60, "duration": 8, "velocity": 87}, {"time": 2117, "pitch": 67, "duration": 12, "velocity": 88}, {"time": 2129, "pitch": 50, "duration": 7, "velocity": 84}, {"time": 2129, "pitch": 62, "duration": 12, "velocity": 90}, {"time": 2129, "pitch": 69, "duration": 7, "velocity": 93}, {"time": 2141, "pitch": 52, "duration": 21, "velocity": 86}, {"time": 2141, "pitch": 59, "duration": 23, "velocity": 80}, {"time": 2141, "pitch": 67, "duration": 2, "velocity": 78}, {"time": 2147, "pitch": 64, "duration": 9, "velocity": 89}, {"time": 2150, "pitch": 67, "duration": 5, "velocity": 100}, {"time": 2156, "pitch": 69, "duration": 8, "velocity": 104}, {"time": 2165, "pitch": 45, "duration": 23, "velocity": 87}, {"time": 2165, "pitch": 60, "duration": 10, "velocity": 88}, {"time": 2165, "pitch": 64, "duration": 10, "velocity": 88}, {"time": 2165, "pitch": 69, "duration": 10, "velocity": 89}, {"time": 2177, "pitch": 60, "duration": 5, "velocity": 83}, {"time": 2177, "pitch": 64, "duration": 11, "velocity": 83}, {"time": 2177, "pitch": 69, "duration": 7, "velocity": 83}, {"time": 2189, "pitch": 43, "duration": 18, "velocity": 83}, {"time": 2189, "pitch": 59, "duration": 9, "velocity": 81}, {"time": 2189, "pitch": 62, "duration": 8, "velocity": 87}, {"time": 2189, "pitch": 67, "duration": 8, "velocity": 85}, {"time": 2201, "pitch": 59, "duration": 7, "velocity": 82}, {"time": 2201, "pitch": 62, "duration": 9, "velocity": 85}, {"time": 2201, "pitch": 67, "duration": 8, "velocity": 83}, {"time": 2213, "pitch": 47, "duration": 16, "velocity": 78}, {"time": 2213, "pitch": 59, "duration": 7, "velocity": 84}, {"time": 2213, "pitch": 63, "duration": 7, "velocity": 84}, {"time": 2213, "pitch": 66, "duration": 7, "velocity": 80}, {"time": 2225, "pitch": 59, "duration": 9, "velocity": 88}, {"time": 2225, "pitch": 63, "duration": 10, "velocity": 89}, {"time": 2225, "pitch": 66, "duration": 9, "velocity": 85}, {"time": 2237, "pitch": 40, "duration": 18, "velocity": 80}, {"time": 2237, "pitch": 52, "duration": 14, "velocity": 83}, {"time": 2237, "pitch": 59, "duration": 10, "velocity": 84}, {"time": 2237, "pitch": 64, "duration": 10, "velocity": 86}, {"time": 2237, "pitch": 67, "duration": 9, "velocity": 86}, {"time": 2249, "pitch": 59, "duration": 6, "velocity": 86}, {"time": 2249, "pitch": 64, "duration": 6, "velocity": 88}, {"time": 2249, "pitch": 67, "duration": 11, "velocity": 87}, {"time": 2255, "pitch": 52, "duration": 6, "velocity": 87}, {"time": 2261, "pitch": 45, "duration": 23, "velocity": 83}, {"time": 2261, "pitch": 57, "duration": 8, "velocity": 87}, {"time": 2261, "pitch": 60, "duration": 8, "velocity": 91}, {"time": 2261, "pitch": 67, "duration": 9, "velocity": 86}, {"time": 2273, "pitch": 57, "duration": 9, "velocity": 86}, {"time": 2273, "pitch": 60, "duration": 11, "velocity": 87}, {"time": 2273, "pitch": 67, "duration": 10, "velocity": 86}, {"time": 2285, "pitch": 43, "duration": 18, "velocity": 82}, {"time": 2285, "pitch": 55, "duration": 19, "velocity": 80}, {"time": 2285, "pitch": 59, "duration": 9, "velocity": 84}, {"time": 2285, "pitch": 62, "duration": 9, "velocity": 88}, {"time": 2285, "pitch": 67, "duration": 9, "velocity": 84}, {"time": 2297, "pitch": 59, "duration": 6, "velocity": 86}, {"time": 2297, "pitch": 62, "duration": 6, "velocity": 89}, {"time": 2297, "pitch": 67, "duration": 7, "velocity": 86}, {"time": 2309, "pitch": 47, "duration": 29, "velocity": 81}, {"time": 2309, "pitch": 59, "duration": 9, "velocity": 92}, {"time": 2309, "pitch": 63, "duration": 10, "velocity": 100}, {"time": 2309, "pitch": 66, "duration": 9, "velocity": 89}, {"time": 2321, "pitch": 59, "duration": 6, "velocity": 94}, {"time": 2321, "pitch": 63, "duration": 7, "velocity": 95}, {"time": 2321, "pitch": 66, "duration": 6, "velocity": 89}, {"time": 2327, "pitch": 54, "duration": 3, "velocity": 80}, {"time": 2330, "pitch": 59, "duration": 4, "velocity": 90}, {"time": 2330, "pitch": 63, "duration": 5, "velocity": 87}, {"time": 2330, "pitch": 66, "duration": 4, "velocity": 87}, {"time": 2336, "pitch": 59, "duration": 7, "velocity": 92}, {"time": 2336, "pitch": 63, "duration": 7, "velocity": 97}, {"time": 2336, "pitch": 66, "duration": 6, "velocity": 100}, {"time": 2342, "pitch": 47, "duration": 5, "velocity": 91}, {"time": 2345, "pitch": 59, "duration": 9, "velocity": 100}, {"time": 2345, "pitch": 63, "duration": 6, "velocity": 116}, {"time": 2345, "pitch": 66, "duration": 7, "velocity": 113}, {"time": 2351, "pitch": 47, "duration": 5, "velocity": 94}, {"time": 2357, "pitch": 52, "duration": 17, "velocity": 96}, {"time": 2357, "pitch": 59, "duration": 11, "velocity": 94}, {"time": 2357, "pitch": 64, "duration": 11, "velocity": 108}, {"time": 2357, "pitch": 67, "duration": 10, "velocity": 100}, {"time": 2369, "pitch": 59, "duration": 10, "velocity": 107}, {"time": 2369, "pitch": 64, "duration": 10, "velocity": 110}, {"time": 2369, "pitch": 67, "duration": 10, "velocity": 98}, {"time": 2375, "pitch": 52, "duration": 5, "velocity": 85}, {"time": 2381, "pitch": 50, "duration": 8, "velocity": 104}, {"time": 2381, "pitch": 57, "duration": 10, "velocity": 87}, {"time": 2381, "pitch": 62, "duration": 10, "velocity": 110}, {"time": 2381, "pitch": 66, "duration": 10, "velocity": 95}, {"time": 2390, "pitch": 50, "duration": 7, "velocity": 88}, {"time": 2393, "pitch": 57, "duration": 7, "velocity": 102}, {"time": 2393, "pitch": 62, "duration": 11, "velocity": 116}, {"time": 2393, "pitch": 66, "duration": 8, "velocity": 113}, {"time": 2399, "pitch": 50, "duration": 6, "velocity": 93}, {"time": 2405, "pitch": 47, "duration": 15, "velocity": 98}, {"time": 2405, "pitch": 59, "duration": 9, "velocity": 104}, {"time": 2405, "pitch": 62, "duration": 9, "velocity": 109}, {"time": 2405, "pitch": 66, "duration": 9, "velocity": 109}, {"time": 2417, "pitch": 59, "duration": 10, "velocity": 108}, {"time": 2417, "pitch": 62, "duration": 10, "velocity": 113}, {"time": 2417, "pitch": 66, "duration": 8, "velocity": 113}, {"time": 2423, "pitch": 47, "duration": 5, "velocity": 93}, {"time": 2429, "pitch": 52, "duration": 13, "velocity": 90}, {"time": 2429, "pitch": 59, "duration": 8, "velocity": 93}, {"time": 2429, "pitch": 64, "duration": 8, "velocity": 108}, {"time": 2429, "pitch": 67, "duration": 7, "velocity": 100}, {"time": 2438, "pitch": 59, "duration": 7, "velocity": 93}, {"time": 2438, "pitch": 64, "duration": 7, "velocity": 102}, {"time": 2438, "pitch": 67, "duration": 7, "velocity": 91}, {"time": 2444, "pitch": 52, "duration": 8, "velocity": 92}, {"time": 2447, "pitch": 59, "duration": 3, "velocity": 104}, {"time": 2447, "pitch": 64, "duration": 4, "velocity": 110}, {"time": 2447, "pitch": 67, "duration": 4, "velocity": 94}, {"time": 2453, "pitch": 45, "duration": 15, "velocity": 84}, {"time": 2453, "pitch": 57, "duration": 15, "velocity": 83}, {"time": 2453, "pitch": 60, "duration": 8, "velocity": 88}, {"time": 2453, "pitch": 64, "duration": 9, "velocity": 91}, {"time": 2453, "pitch": 69, "duration": 8, "velocity": 89}, {"time": 2465, "pitch": 60, "duration": 9, "velocity": 96}, {"time": 2465, "pitch": 64, "duration": 7, "velocity": 100}, {"time": 2465, "pitch": 69, "duration": 8, "velocity": 91}, {"time": 2471, "pitch": 45, "duration": 5, "velocity": 86}, {"time": 2477, "pitch": 52, "duration": 16, "velocity": 86}, {"time": 2477, "pitch": 59, "duration": 10, "velocity": 84}, {"time": 2477, "pitch": 64, "duration": 11, "velocity": 88}, {"time": 2477, "pitch": 67, "duration": 10, "velocity": 87}, {"time": 2489, "pitch": 59, "duration": 8, "velocity": 91}, {"time": 2489, "pitch": 64, "duration": 8, "velocity": 93}, {"time": 2489, "pitch": 67, "duration": 8, "velocity": 89}, {"time": 2495, "pitch": 52, "duration": 4, "velocity": 86}, {"time": 2501, "pitch": 48, "duration": 16, "velocity": 91}, {"time": 2501, "pitch": 60, "duration": 11, "velocity": 89}, {"time": 2501, "pitch": 64, "duration": 11, "velocity": 100}, {"time": 2501, "pitch": 67, "duration": 11, "velocity": 91}, {"time": 2513, "pitch": 60, "duration": 8, "velocity": 93}, {"time": 2513, "pitch": 64, "duration": 10, "velocity": 110}, {"time": 2513, "pitch": 67, "duration": 10, "velocity": 102}, {"time": 2519, "pitch": 48, "duration": 4, "velocity": 86}, {"time": 2525, "pitch": 50, "duration": 19, "velocity": 94}, {"time": 2525, "pitch": 62, "duration": 8, "velocity": 92}, {"time": 2525, "pitch": 66, "duration": 7, "velocity": 109}, {"time": 2525, "pitch": 69, "duration": 7, "velocity": 96}, {"time": 2531, "pitch": 57, "duration": 3, "velocity": 71}, {"time": 2534, "pitch": 62, "duration": 7, "velocity": 107}, {"time": 2534, "pitch": 66, "duration": 6, "velocity": 116}, {"time": 2534, "pitch": 69, "duration": 6, "velocity": 107}, {"time": 2540, "pitch": 57, "duration": 4, "velocity": 86}, {"time": 2543, "pitch": 62, "duration": 2, "velocity": 110}, {"time": 2543, "pitch": 66, "duration": 2, "velocity": 119}, {"time": 2543, "pitch": 69, "duration": 2, "velocity": 107}, {"time": 2549, "pitch": 40, "duration": 19, "velocity": 96}, {"time": 2549, "pitch": 52, "duration": 5, "velocity": 91}, {"time": 2549, "pitch": 59, "duration": 8, "velocity": 96}, {"time": 2549, "pitch": 64, "duration": 8, "velocity": 113}, {"time": 2549, "pitch": 67, "duration": 7, "velocity": 90}, {"time": 2555, "pitch": 52, "duration": 7, "velocity": 85}, {"time": 2558, "pitch": 64, "duration": 8, "velocity": 114}, {"time": 2558, "pitch": 67, "duration": 8, "velocity": 107}, {"time": 2564, "pitch": 52, "duration": 8, "velocity": 87}, {"time": 2567, "pitch": 59, "duration": 4, "velocity": 96}, {"time": 2567, "pitch": 64, "duration": 4, "velocity": 102}, {"time": 2567, "pitch": 67, "duration": 5, "velocity": 90}, {"time": 2573, "pitch": 50, "duration": 6, "velocity": 91}, {"time": 2573, "pitch": 57, "duration": 8, "velocity": 104}, {"time": 2573, "pitch": 62, "duration": 8, "velocity": 113}, {"time": 2573, "pitch": 66, "duration": 8, "velocity": 109}, {"time": 2579, "pitch": 50, "duration": 6, "velocity": 87}, {"time": 2582, "pitch": 57, "duration": 7, "velocity": 96}, {"time": 2582, "pitch": 62, "duration": 7, "velocity": 116}, {"time": 2582, "pitch": 66, "duration": 7, "velocity": 113}, {"time": 2588, "pitch": 50, "duration": 8, "velocity": 94}, {"time": 2591, "pitch": 57, "duration": 2, "velocity": 91}, {"time": 2591, "pitch": 62, "duration": 4, "velocity": 110}, {"time": 2591, "pitch": 66, "duration": 4, "velocity": 106}, {"time": 2597, "pitch": 47, "duration": 5, "velocity": 90}, {"time": 2597, "pitch": 59, "duration": 8, "velocity": 94}, {"time": 2597, "pitch": 62, "duration": 8, "velocity": 108}, {"time": 2597, "pitch": 66, "duration": 7, "velocity": 103}, {"time": 2603, "pitch": 47, "duration": 6, "velocity": 87}, {"time": 2606, "pitch": 59, "duration": 8, "velocity": 92}, {"time": 2606, "pitch": 62, "duration": 8, "velocity": 108}, {"time": 2606, "pitch": 66, "duration": 7, "velocity": 93}, {"time": 2612, "pitch": 47, "duration": 7, "velocity": 87}, {"time": 2615, "pitch": 59, "duration": 4, "velocity": 87}, {"time": 2615, "pitch": 62, "duration": 5, "velocity": 93}, {"time": 2615, "pitch": 66, "duration": 3, "velocity": 85}, {"time": 2621, "pitch": 52, "duration": 12, "velocity": 89}, {"time": 2621, "pitch": 59, "duration": 8, "velocity": 90}, {"time": 2621, "pitch": 64, "duration": 8, "velocity": 96}, {"time": 2621, "pitch": 67, "duration": 8, "velocity": 91}, {"time": 2630, "pitch": 59, "duration": 7, "velocity": 94}, {"time": 2630, "pitch": 64, "duration": 7, "velocity": 98}, {"time": 2630, "pitch": 67, "duration": 7, "velocity": 89}, {"time": 2636, "pitch": 52, "duration": 9, "velocity": 87}, {"time": 2639, "pitch": 59, "duration": 3, "velocity": 86}, {"time": 2639, "pitch": 64, "duration": 4, "velocity": 88}, {"time": 2639, "pitch": 67, "duration": 4, "velocity": 87}, {"time": 2645, "pitch": 45, "duration": 22, "velocity": 87}, {"time": 2645, "pitch": 57, "duration": 12, "velocity": 89}, {"time": 2645, "pitch": 60, "duration": 8, "velocity": 96}, {"time": 2645, "pitch": 64, "duration": 8, "velocity": 104}, {"time": 2645, "pitch": 67, "duration": 8, "velocity": 96}, {"time": 2654, "pitch": 60, "duration": 12, "velocity": 93}, {"time": 2654, "pitch": 64, "duration": 13, "velocity": 100}, {"time": 2654, "pitch": 67, "duration": 14, "velocity": 89}, {"time": 2657, "pitch": 57, "duration": 8, "velocity": 86}, {"time": 2669, "pitch": 52, "duration": 23, "velocity": 88}, {"time": 2669, "pitch": 59, "duration": 9, "velocity": 89}, {"time": 2669, "pitch": 64, "duration": 9, "velocity": 94}, {"time": 2669, "pitch": 67, "duration": 8, "velocity": 88}, {"time": 2678, "pitch": 59, "duration": 8, "velocity": 88}, {"time": 2678, "pitch": 64, "duration": 8, "velocity": 88}, {"time": 2678, "pitch": 67, "duration": 7, "velocity": 85}, {"time": 2687, "pitch": 59, "duration": 2, "velocity": 78}, {"time": 2687, "pitch": 64, "duration": 4, "velocity": 84}, {"time": 2687, "pitch": 67, "duration": 2, "velocity": 79}, {"time": 2693, "pitch": 48, "duration": 7, "velocity": 89}, {"time": 2693, "pitch": 60, "duration": 10, "velocity": 87}, {"time": 2693, "pitch": 64, "duration": 10, "velocity": 94}, {"time": 2693, "pitch": 67, "duration": 11, "velocity": 91}, {"time": 2702, "pitch": 48, "duration": 2, "velocity": 82}, {"time": 2705, "pitch": 50, "duration": 7, "velocity": 91}, {"time": 2705, "pitch": 57, "duration": 7, "velocity": 84}, {"time": 2705, "pitch": 62, "duration": 8, "velocity": 86}, {"time": 2705, "pitch": 66, "duration": 7, "velocity": 84}, {"time": 2714, "pitch": 40, "duration": 5, "velocity": 94}, {"time": 2714, "pitch": 52, "duration": 5, "velocity": 91}, {"time": 2714, "pitch": 59, "duration": 19, "velocity": 85}, {"time": 2714, "pitch": 64, "duration": 20, "velocity": 91}, {"time": 2714, "pitch": 67, "duration": 20, "velocity": 91}, {"time": 2741, "pitch": 52, "duration": 17, "velocity": 96}, {"time": 2741, "pitch": 59, "duration": 11, "velocity": 94}, {"time": 2741, "pitch": 64, "duration": 10, "velocity": 108}, {"time": 2741, "pitch": 67, "duration": 10, "velocity": 100}, {"time": 2753, "pitch": 59, "duration": 10, "velocity": 107}, {"time": 2753, "pitch": 64, "duration": 10, "velocity": 110}, {"time": 2753, "pitch": 67, "duration": 10, "velocity": 98}, {"time": 2759, "pitch": 52, "duration": 5, "velocity": 85}, {"time": 2765, "pitch": 50, "duration": 8, "velocity": 104}, {"time": 2765, "pitch": 57, "duration": 10, "velocity": 87}, {"time": 2765, "pitch": 62, "duration": 10, "velocity": 110}, {"time": 2765, "pitch": 66, "duration": 10, "velocity": 95}, {"time": 2774, "pitch": 50, "duration": 7, "velocity": 88}, {"time": 2777, "pitch": 57, "duration": 7, "velocity": 102}, {"time": 2777, "pitch": 62, "duration": 11, "velocity": 116}, {"time": 2777, "pitch": 66, "duration": 8, "velocity": 113}, {"time": 2783, "pitch": 50, "duration": 6, "velocity": 93}, {"time": 2789, "pitch": 47, "duration": 15, "velocity": 98}, {"time": 2789, "pitch": 59, "duration": 9, "velocity": 104}, {"time": 2789, "pitch": 62, "duration": 9, "velocity": 109}, {"time": 2789, "pitch": 66, "duration": 9, "velocity": 109}, {"time": 2801, "pitch": 59, "duration": 10, "velocity": 108}, {"time": 2801, "pitch": 62, "duration": 10, "velocity": 113}, {"time": 2801, "pitch": 66, "duration": 8, "velocity": 113}, {"time": 2807, "pitch": 47, "duration": 5, "velocity": 93}, {"time": 2813, "pitch": 52, "duration": 13, "velocity": 90}, {"time": 2813, "pitch": 59, "duration": 8, "velocity": 93}, {"time": 2813, "pitch": 64, "duration": 8, "velocity": 108}, {"time": 2813, "pitch": 67, "duration": 7, "velocity": 100}, {"time": 2822, "pitch": 59, "duration": 7, "velocity": 93}, {"time": 2822, "pitch": 64, "duration": 7, "velocity": 102}, {"time": 2822, "pitch": 67, "duration": 7, "velocity": 91}, {"time": 2828, "pitch": 52, "duration": 8, "velocity": 92}, {"time": 2831, "pitch": 59, "duration": 3, "velocity": 104}, {"time": 2831, "pitch": 64, "duration": 4, "velocity": 110}, {"time": 2831, "pitch": 67, "duration": 4, "velocity": 94}, {"time": 2837, "pitch": 45, "duration": 15, "velocity": 84}, {"time": 2837, "pitch": 57, "duration": 14, "velocity": 83}, {"time": 2837, "pitch": 60, "duration": 8, "velocity": 88}, {"time": 2837, "pitch": 64, "duration": 9, "velocity": 91}, {"time": 2837, "pitch": 69, "duration": 8, "velocity": 89}, {"time": 2849, "pitch": 60, "duration": 9, "velocity": 96}, {"time": 2849, "pitch": 64, "duration": 7, "velocity": 100}, {"time": 2849, "pitch": 69, "duration": 8, "velocity": 91}, {"time": 2855, "pitch": 45, "duration": 4, "velocity": 86}, {"time": 2861, "pitch": 52, "duration": 16, "velocity": 86}, {"time": 2861, "pitch": 59, "duration": 10, "velocity": 84}, {"time": 2861, "pitch": 64, "duration": 10, "velocity": 88}, {"time": 2861, "pitch": 67, "duration": 10, "velocity": 87}, {"time": 2873, "pitch": 59, "duration": 8, "velocity": 91}, {"time": 2873, "pitch": 64, "duration": 8, "velocity": 93}, {"time": 2873, "pitch": 67, "duration": 8, "velocity": 89}, {"time": 2879, "pitch": 52, "duration": 4, "velocity": 86}, {"time": 2885, "pitch": 48, "duration": 16, "velocity": 91}, {"time": 2885, "pitch": 60, "duration": 11, "velocity": 89}, {"time": 2885, "pitch": 64, "duration": 11, "velocity": 100}, {"time": 2885, "pitch": 67, "duration": 11, "velocity": 91}, {"time": 2897, "pitch": 60, "duration": 8, "velocity": 93}, {"time": 2897, "pitch": 64, "duration": 10, "velocity": 110}, {"time": 2897, "pitch": 67, "duration": 10, "velocity": 102}, {"time": 2903, "pitch": 48, "duration": 4, "velocity": 86}, {"time": 2909, "pitch": 50, "duration": 19, "velocity": 94}, {"time": 2909, "pitch": 62, "duration": 7, "velocity": 92}, {"time": 2909, "pitch": 66, "duration": 7, "velocity": 109}, {"time": 2909, "pitch": 69, "duration": 7, "velocity": 96}, {"time": 2915, "pitch": 57, "duration": 2, "velocity": 71}, {"time": 2918, "pitch": 62, "duration": 7, "velocity": 107}, {"time": 2918, "pitch": 66, "duration": 6, "velocity": 116}, {"time": 2918, "pitch": 69, "duration": 6, "velocity": 107}, {"time": 2924, "pitch": 57, "duration": 4, "velocity": 86}, {"time": 2927, "pitch": 62, "duration": 2, "velocity": 110}, {"time": 2927, "pitch": 66, "duration": 2, "velocity": 119}, {"time": 2927, "pitch": 69, "duration": 2, "velocity": 107}, {"time": 2933, "pitch": 40, "duration": 19, "velocity": 96}, {"time": 2933, "pitch": 52, "duration": 5, "velocity": 91}, {"time": 2933, "pitch": 59, "duration": 8, "velocity": 96}, {"time": 2933, "pitch": 64, "duration": 8, "velocity": 113}, {"time": 2933, "pitch": 67, "duration": 7, "velocity": 90}, {"time": 2939, "pitch": 52, "duration": 6, "velocity": 85}, {"time": 2942, "pitch": 64, "duration": 8, "velocity": 114}, {"time": 2942, "pitch": 67, "duration": 8, "velocity": 107}, {"time": 2948, "pitch": 52, "duration": 8, "velocity": 87}, {"time": 2951, "pitch": 59, "duration": 3, "velocity": 96}, {"time": 2951, "pitch": 64, "duration": 4, "velocity": 102}, {"time": 2951, "pitch": 67, "duration": 4, "velocity": 90}, {"time": 2957, "pitch": 50, "duration": 6, "velocity": 91}, {"time": 2957, "pitch": 57, "duration": 8, "velocity": 104}, {"time": 2957, "pitch": 62, "duration": 8, "velocity": 113}, {"time": 2957, "pitch": 66, "duration": 8, "velocity": 109}, {"time": 2963, "pitch": 50, "duration": 6, "velocity": 87}, {"time": 2966, "pitch": 57, "duration": 7, "velocity": 96}, {"time": 2966, "pitch": 62, "duration": 7, "velocity": 116}, {"time": 2966, "pitch": 66, "duration": 7, "velocity": 113}, {"time": 2972, "pitch": 50, "duration": 8, "velocity": 94}, {"time": 2975, "pitch": 57, "duration": 2, "velocity": 91}, {"time": 2975, "pitch": 62, "duration": 4, "velocity": 110}, {"time": 2975, "pitch": 66, "duration": 4, "velocity": 106}, {"time": 2981, "pitch": 47, "duration": 5, "velocity": 90}, {"time": 2981, "pitch": 59, "duration": 7, "velocity": 94}, {"time": 2981, "pitch": 62, "duration": 7, "velocity": 108}, {"time": 2981, "pitch": 66, "duration": 7, "velocity": 103}, {"time": 2987, "pitch": 47, "duration": 6, "velocity": 87}, {"time": 2990, "pitch": 59, "duration": 7, "velocity": 92}, {"time": 2990, "pitch": 62, "duration": 8, "velocity": 108}, {"time": 2990, "pitch": 66, "duration": 7, "velocity": 93}, {"time": 2996, "pitch": 47, "duration": 7, "velocity": 87}, {"time": 2999, "pitch": 59, "duration": 4, "velocity": 87}, {"time": 2999, "pitch": 62, "duration": 5, "velocity": 93}, {"time": 2999, "pitch": 66, "duration": 3, "velocity": 85}, {"time": 3005, "pitch": 52, "duration": 12, "velocity": 89}, {"time": 3005, "pitch": 59, "duration": 8, "velocity": 90}, {"time": 3005, "pitch": 64, "duration": 8, "velocity": 96}, {"time": 3005, "pitch": 67, "duration": 8, "velocity": 91}, {"time": 3014, "pitch": 59, "duration": 7, "velocity": 94}, {"time": 3014, "pitch": 64, "duration": 7, "velocity": 98}, {"time": 3014, "pitch": 67, "duration": 7, "velocity": 89}, {"time": 3020, "pitch": 52, "duration": 9, "velocity": 87}, {"time": 3023, "pitch": 59, "duration": 3, "velocity": 86}, {"time": 3023, "pitch": 64, "duration": 4, "velocity": 88}, {"time": 3023, "pitch": 67, "duration": 4, "velocity": 87}, {"time": 3029, "pitch": 45, "duration": 22, "velocity": 87}, {"time": 3029, "pitch": 57, "duration": 12, "velocity": 89}, {"time": 3029, "pitch": 60, "duration": 8, "velocity": 96}, {"time": 3029, "pitch": 64, "duration": 8, "velocity": 104}, {"time": 3029, "pitch": 67, "duration": 7, "velocity": 96}, {"time": 3038, "pitch": 60, "duration": 12, "velocity": 93}, {"time": 3038, "pitch": 64, "duration": 13, "velocity": 100}, {"time": 3038, "pitch": 67, "duration": 14, "velocity": 89}, {"time": 3041, "pitch": 57, "duration": 8, "velocity": 86}, {"time": 3053, "pitch": 52, "duration": 23, "velocity": 88}, {"time": 3053, "pitch": 59, "duration": 8, "velocity": 89}, {"time": 3053, "pitch": 64, "duration": 8, "velocity": 94}, {"time": 3053, "pitch": 67, "duration": 8, "velocity": 88}, {"time": 3062, "pitch": 59, "duration": 8, "velocity": 88}, {"time": 3062, "pitch": 64, "duration": 8, "velocity": 88}, {"time": 3062, "pitch": 67, "duration": 7, "velocity": 85}, {"time": 3071, "pitch": 59, "duration": 2, "velocity": 78}, {"time": 3071, "pitch": 64, "duration": 4, "velocity": 84}, {"time": 3071, "pitch": 67, "duration": 2, "velocity": 79}, {"time": 3077, "pitch": 48, "duration": 7, "velocity": 89}, {"time": 3077, "pitch": 60, "duration": 10, "velocity": 87}, {"time": 3077, "pitch": 64, "duration": 10, "velocity": 94}, {"time": 3077, "pitch": 67, "duration": 10, "velocity": 91}, {"time": 3086, "pitch": 48, "duration": 2, "velocity": 82}, {"time": 3089, "pitch": 50, "duration": 7, "velocity": 91}, {"time": 3089, "pitch": 57, "duration": 6, "velocity": 84}, {"time": 3089, "pitch": 62, "duration": 8, "velocity": 86}, {"time": 3089, "pitch": 66, "duration": 7, "velocity": 84}, {"time": 3098, "pitch": 40, "duration": 5, "velocity": 94}, {"time": 3098, "pitch": 52, "duration": 5, "velocity": 91}, {"time": 3098, "pitch": 59, "duration": 19, "velocity": 85}, {"time": 3098, "pitch": 64, "duration": 19, "velocity": 91}, {"time": 3098, "pitch": 67, "duration": 19, "velocity": 91}, {"time": 3149, "pitch": 45, "duration": 21, "velocity": 78}, {"time": 3149, "pitch": 57, "duration": 20, "velocity": 81}, {"time": 3149, "pitch": 60, "duration": 19, "velocity": 83}, {"time": 3149, "pitch": 64, "duration": 19, "velocity": 86}, {"time": 3149, "pitch": 69, "duration": 19, "velocity": 86}, {"time": 3173, "pitch": 52, "duration": 21, "velocity": 86}, {"time": 3173, "pitch": 59, "duration": 19, "velocity": 80}, {"time": 3173, "pitch": 64, "duration": 21, "velocity": 83}, {"time": 3173, "pitch": 67, "duration": 20, "velocity": 81}, {"time": 3198, "pitch": 48, "duration": 12, "velocity": 84}, {"time": 3198, "pitch": 60, "duration": 8, "velocity": 84}, {"time": 3198, "pitch": 64, "duration": 10, "velocity": 88}, {"time": 3198, "pitch": 67, "duration": 11, "velocity": 87}, {"time": 3210, "pitch": 50, "duration": 12, "velocity": 85}, {"time": 3210, "pitch": 57, "duration": 9, "velocity": 85}, {"time": 3210, "pitch": 62, "duration": 11, "velocity": 88}, {"time": 3210, "pitch": 66, "duration": 9, "velocity": 82}, {"time": 3219, "pitch": 52, "duration": 20, "velocity": 81}, {"time": 3219, "pitch": 59, "duration": 20, "velocity": 82}, {"time": 3219, "pitch": 64, "duration": 20, "velocity": 87}, {"time": 3219, "pitch": 67, "duration": 20, "velocity": 86}, {"time": 3269, "pitch": 52, "duration": 19, "velocity": 88}, {"time": 3275, "pitch": 59, "duration": 15, "velocity": 83}, {"time": 3278, "pitch": 69, "duration": 7, "velocity": 93}, {"time": 3284, "pitch": 67, "duration": 17, "velocity": 88}, {"time": 3293, "pitch": 50, "duration": 18, "velocity": 81}, {"time": 3299, "pitch": 57, "duration": 13, "velocity": 72}, {"time": 3302, "pitch": 67, "duration": 7, "velocity": 89}, {"time": 3308, "pitch": 66, "duration": 16, "velocity": 85}, {"time": 3317, "pitch": 52, "duration": 43, "velocity": 86}, {"time": 3323, "pitch": 59, "duration": 16, "velocity": 68}, {"time": 3326, "pitch": 64, "duration": 18, "velocity": 85}, {"time": 3329, "pitch": 71, "duration": 6, "velocity": 96}, {"time": 3335, "pitch": 69, "duration": 4, "velocity": 75}, {"time": 3338, "pitch": 67, "duration": 10, "velocity": 88}, {"time": 3341, "pitch": 59, "duration": 21, "velocity": 81}, {"time": 3347, "pitch": 66, "duration": 3, "velocity": 82}, {"time": 3350, "pitch": 67, "duration": 16, "velocity": 89}, {"time": 3365, "pitch": 52, "duration": 19, "velocity": 88}, {"time": 3371, "pitch": 59, "duration": 13, "velocity": 76}, {"time": 3374, "pitch": 67, "duration": 6, "velocity": 104}, {"time": 3380, "pitch": 64, "duration": 19, "velocity": 87}, {"time": 3389, "pitch": 50, "duration": 19, "velocity": 88}, {"time": 3395, "pitch": 57, "duration": 13, "velocity": 77}, {"time": 3398, "pitch": 66, "duration": 7, "velocity": 85}, {"time": 3404, "pitch": 62, "duration": 10, "velocity": 83}, {"time": 3413, "pitch": 52, "duration": 42, "velocity": 87}, {"time": 3419, "pitch": 59, "duration": 36, "velocity": 52}, {"time": 3422, "pitch": 62, "duration": 13, "velocity": 84}, {"time": 3428, "pitch": 67, "duration": 29, "velocity": 86}, {"time": 3437, "pitch": 64, "duration": 21, "velocity": 79}, {"time": 3461, "pitch": 52, "duration": 25, "velocity": 87}, {"time": 3467, "pitch": 59, "duration": 18, "velocity": 65}, {"time": 3470, "pitch": 67, "duration": 15, "velocity": 88}, {"time": 3476, "pitch": 64, "duration": 10, "velocity": 84}, {"time": 3485, "pitch": 45, "duration": 21, "velocity": 88}, {"time": 3491, "pitch": 52, "duration": 17, "velocity": 78}, {"time": 3494, "pitch": 69, "duration": 15, "velocity": 93}, {"time": 3500, "pitch": 64, "duration": 13, "velocity": 81}, {"time": 3509, "pitch": 52, "duration": 26, "velocity": 88}, {"time": 3515, "pitch": 60, "duration": 4, "velocity": 64}, {"time": 3518, "pitch": 67, "duration": 7, "velocity": 100}, {"time": 3524, "pitch": 62, "duration": 10, "velocity": 86}, {"time": 3533, "pitch": 45, "duration": 18, "velocity": 88}, {"time": 3539, "pitch": 52, "duration": 16, "velocity": 81}, {"time": 3542, "pitch": 69, "duration": 14, "velocity": 93}, {"time": 3548, "pitch": 64, "duration": 9, "velocity": 85}, {"time": 3557, "pitch": 48, "duration": 22, "velocity": 94}, {"time": 3563, "pitch": 60, "duration": 4, "velocity": 71}, {"time": 3566, "pitch": 67, "duration": 16, "velocity": 88}, {"time": 3572, "pitch": 64, "duration": 9, "velocity": 81}, {"time": 3581, "pitch": 50, "duration": 19, "velocity": 87}, {"time": 3587, "pitch": 57, "duration": 18, "velocity": 81}, {"time": 3590, "pitch": 69, "duration": 6, "velocity": 91}, {"time": 3596, "pitch": 64, "duration": 10, "velocity": 84}, {"time": 3605, "pitch": 52, "duration": 33, "velocity": 88}, {"time": 3611, "pitch": 59, "duration": 27, "velocity": 73}, {"time": 3614, "pitch": 67, "duration": 7, "velocity": 98}, {"time": 3620, "pitch": 66, "duration": 8, "velocity": 83}, {"time": 3626, "pitch": 62, "duration": 3, "velocity": 75}, {"time": 3629, "pitch": 64, "duration": 11, "velocity": 84}], "annotations": [{"time": 606, "annotation": {"number": 64, "value": 74}, "group": "control_change"}, {"time": 606, "annotation": {"number": 64, "value": 127}, "group": "control_change"}, {"time": 628, "annotation": {"number": 64, "value": 38}, "group": "control_change"}, {"time": 628, "annotation": {"number": 64, "value": 0}, "group": "control_change"}, {"time": 630, "annotation": {"number": 64, "value": 127}, "group": "control_change"}, {"time": 652, "annotation": {"number": 64, "value": 38}, "group": "control_change"}, {"time": 652, "annotation": {"number": 64, "value": 0}, "group": "control_change"}, {"time": 654, "annotation": {"number": 64, "value": 74}, "group": "control_change"}, {"time": 654, "annotation": {"number": 64, "value": 127}, "group": "control_change"}, {"time": 677, "annotation": {"number": 64, "value": 0}, "group": "control_change"}, {"time": 678, "annotation": {"number": 64, "value": 127}, "group": "control_change"}, {"time": 701, "annotation": {"number": 64, "value": 38}, "group": "control_change"}, {"time": 701, "annotation": {"number": 64, "value": 0}, "group": "control_change"}, {"time": 702, "annotation": {"number": 64, "value": 127}, "group": "control_change"}, {"time": 724, "annotation": {"number": 64, "value": 74}, "group": "control_change"}, {"time": 724, "annotation": {"number": 64, "value": 0}, "group": "control_change"}, {"time": 726, "annotation": {"number": 64, "value": 127}, "group": "control_change"}, {"time": 748, "annotation": {"number": 64, "value": 0}, "group": "control_change"}, {"time": 750, "annotation": {"number": 64, "value": 127}, "group": "control_change"}, {"time": 774, "annotation": {"number": 64, "value": 0}, "group": "control_change"}, {"time": 775, "annotation": {"number": 64, "value": 127}, "group": "control_change"}, {"time": 787, "annotation": {"number": 64, "value": 38}, "group": "control_change"}, {"time": 787, "annotation": {"number": 64, "value": 0}, "group": "control_change"}, {"time": 798, "annotation": {"number": 64, "value": 127}, "group": "control_change"}, {"time": 820, "annotation": {"number": 64, "value": 38}, "group": "control_change"}, {"time": 820, "annotation": {"number": 64, "value": 0}, "group": "control_change"}, {"time": 822, "annotation": {"number": 64, "value": 127}, "group": "control_change"}, {"time": 844, "annotation": {"number": 64, "value": 38}, "group": "control_change"}, {"time": 844, "annotation": {"number": 64, "value": 0}, "group": "control_change"}, {"time": 846, "annotation": {"number": 64, "value": 127}, "group": "control_change"}, {"time": 869, "annotation": {"number": 64, "value": 38}, "group": "control_change"}, {"time": 869, "annotation": {"number": 64, "value": 0}, "group": "control_change"}, {"time": 870, "annotation": {"number": 64, "value": 127}, "group": "control_change"}, {"time": 894, "annotation": {"number": 64, "value": 127}, "group": "control_change"}, {"time": 905, "annotation": {"number": 64, "value": 38}, "group": "control_change"}, {"time": 905, "annotation": {"number": 64, "value": 0}, "group": "control_change"}, {"time": 916, "annotation": {"number": 64, "value": 0}, "group": "control_change"}, {"time": 918, "annotation": {"number": 64, "value": 127}, "group": "control_change"}, {"time": 940, "annotation": {"number": 64, "value": 38}, "group": "control_change"}, {"time": 940, "annotation": {"number": 64, "value": 0}, "group": "control_change"}, {"time": 941, "annotation": {"number": 64, "value": 127}, "group": "control_change"}, {"time": 952, "annotation": {"number": 64, "value": 38}, "group": "control_change"}, {"time": 952, "annotation": {"number": 64, "value": 0}, "group": "control_change"}, {"time": 953, "annotation": {"number": 64, "value": 74}, "group": "control_change"}, {"time": 953, "annotation": {"number": 64, "value": 127}, "group": "control_change"}, {"time": 963, "annotation": {"number": 64, "value": 38}, "group": "control_change"}, {"time": 964, "annotation": {"number": 64, "value": 0}, "group": "control_change"}, {"time": 965, "annotation": {"number": 64, "value": 127}, "group": "control_change"}, {"time": 976, "annotation": {"number": 64, "value": 38}, "group": "control_change"}, {"time": 976, "annotation": {"number": 64, "value": 0}, "group": "control_change"}, {"time": 1002, "annotation": {"number": 64, "value": 127}, "group": "control_change"}, {"time": 1012, "annotation": {"number": 64, "value": 0}, "group": "control_change"}, {"time": 1013, "annotation": {"number": 64, "value": 127}, "group": "control_change"}, {"time": 1035, "annotation": {"number": 64, "value": 0}, "group": "control_change"}, {"time": 1037, "annotation": {"number": 64, "value": 127}, "group": "control_change"}, {"time": 1038, "annotation": {"number": 64, "value": 127}, "group": "control_change"}, {"time": 1053, "annotation": {"number": 64, "value": 38}, "group": "control_change"}, {"time": 1053, "annotation": {"number": 64, "value": 0}, "group": "control_change"}, {"time": 1059, "annotation": {"number": 64, "value": 0}, "group": "control_change"}, {"time": 1061, "annotation": {"number": 64, "value": 127}, "group": "control_change"}, {"time": 1083, "annotation": {"number": 64, "value": 0}, "group": "control_change"}, {"time": 1086, "annotation": {"number": 64, "value": 127}, "group": "control_change"}, {"time": 1108, "annotation": {"number": 64, "value": 38}, "group": "control_change"}, {"time": 1108, "annotation": {"number": 64, "value": 0}, "group": "control_change"}, {"time": 1109, "annotation": {"number": 64, "value": 127}, "group": "control_change"}, {"time": 1132, "annotation": {"number": 64, "value": 38}, "group": "control_change"}, {"time": 1132, "annotation": {"number": 64, "value": 0}, "group": "control_change"}, {"time": 1134, "annotation": {"number": 64, "value": 127}, "group": "control_change"}, {"time": 1168, "annotation": {"number": 64, "value": 74}, "group": "control_change"}, {"time": 1168, "annotation": {"number": 64, "value": 0}, "group": "control_change"}, {"time": 1168, "annotation": {"number": 64, "value": 127}, "group": "control_change"}, {"time": 1179, "annotation": {"number": 64, "value": 38}, "group": "control_change"}, {"time": 1179, "annotation": {"number": 64, "value": 0}, "group": "control_change"}, {"time": 1181, "annotation": {"number": 64, "value": 127}, "group": "control_change"}, {"time": 1192, "annotation": {"number": 64, "value": 0}, "group": "control_change"}, {"time": 1194, "annotation": {"number": 64, "value": 127}, "group": "control_change"}, {"time": 1205, "annotation": {"number": 64, "value": 38}, "group": "control_change"}, {"time": 1205, "annotation": {"number": 64, "value": 0}, "group": "control_change"}, {"time": 1206, "annotation": {"number": 64, "value": 74}, "group": "control_change"}, {"time": 1206, "annotation": {"number": 64, "value": 127}, "group": "control_change"}, {"time": 1216, "annotation": {"number": 64, "value": 74}, "group": "control_change"}, {"time": 1217, "annotation": {"number": 64, "value": 0}, "group": "control_change"}, {"time": 1218, "annotation": {"number": 64, "value": 127}, "group": "control_change"}, {"time": 1228, "annotation": {"number": 64, "value": 74}, "group": "control_change"}, {"time": 1228, "annotation": {"number": 64, "value": 0}, "group": "control_change"}, {"time": 1230, "annotation": {"number": 64, "value": 127}, "group": "control_change"}, {"time": 1231, "annotation": {"number": 64, "value": 127}, "group": "control_change"}, {"time": 1237, "annotation": {"number": 64, "value": 38}, "group": "control_change"}, {"time": 1237, "annotation": {"number": 64, "value": 0}, "group": "control_change"}, {"time": 1240, "annotation": {"number": 64, "value": 38}, "group": "control_change"}, {"time": 1240, "annotation": {"number": 64, "value": 0}, "group": "control_change"}, {"time": 1242, "annotation": {"number": 64, "value": 127}, "group": "control_change"}, {"time": 1246, "annotation": {"number": 64, "value": 38}, "group": "control_change"}, {"time": 1246, "annotation": {"number": 64, "value": 0}, "group": "control_change"}, {"time": 1248, "annotation": {"number": 64, "value": 127}, "group": "control_change"}, {"time": 1252, "annotation": {"number": 64, "value": 0}, "group": "control_change"}, {"time": 1254, "annotation": {"number": 64, "value": 127}, "group": "control_change"}, {"time": 1258, "annotation": {"number": 64, "value": 0}, "group": "control_change"}, {"time": 1259, "annotation": {"number": 64, "value": 127}, "group": "control_change"}, {"time": 1262, "annotation": {"number": 64, "value": 74}, "group": "control_change"}, {"time": 1262, "annotation": {"number": 64, "value": 0}, "group": "control_change"}, {"time": 1263, "annotation": {"number": 64, "value": 127}, "group": "control_change"}, {"time": 1270, "annotation": {"number": 64, "value": 38}, "group": "control_change"}, {"time": 1270, "annotation": {"number": 64, "value": 0}, "group": "control_change"}, {"time": 1272, "annotation": {"number": 64, "value": 127}, "group": "control_change"}, {"time": 1277, "annotation": {"number": 64, "value": 38}, "group": "control_change"}, {"time": 1277, "annotation": {"number": 64, "value": 0}, "group": "control_change"}, {"time": 1278, "annotation": {"number": 64, "value": 127}, "group": "control_change"}, {"time": 1279, "annotation": {"number": 64, "value": 127}, "group": "control_change"}, {"time": 1286, "annotation": {"number": 64, "value": 0}, "group": "control_change"}, {"time": 1294, "annotation": {"number": 64, "value": 0}, "group": "control_change"}, {"time": 1296, "annotation": {"number": 64, "value": 127}, "group": "control_change"}, {"time": 1300, "annotation": {"number": 64, "value": 38}, "group": "control_change"}, {"time": 1300, "annotation": {"number": 64, "value": 0}, "group": "control_change"}, {"time": 1302, "annotation": {"number": 64, "value": 127}, "group": "control_change"}, {"time": 1312, "annotation": {"number": 64, "value": 38}, "group": "control_change"}, {"time": 1312, "annotation": {"number": 64, "value": 0}, "group": "control_change"}, {"time": 1314, "annotation": {"number": 64, "value": 127}, "group": "control_change"}, {"time": 1324, "annotation": {"number": 64, "value": 0}, "group": "control_change"}, {"time": 1326, "annotation": {"number": 64, "value": 127}, "group": "control_change"}, {"time": 1337, "annotation": {"number": 64, "value": 74}, "group": "control_change"}, {"time": 1337, "annotation": {"number": 64, "value": 0}, "group": "control_change"}, {"time": 1338, "annotation": {"number": 64, "value": 127}, "group": "control_change"}, {"time": 1343, "annotation": {"number": 64, "value": 38}, "group": "control_change"}, {"time": 1343, "annotation": {"number": 64, "value": 0}, "group": "control_change"}, {"time": 1344, "annotation": {"number": 64, "value": 74}, "group": "control_change"}, {"time": 1344, "annotation": {"number": 64, "value": 127}, "group": "control_change"}, {"time": 1348, "annotation": {"number": 64, "value": 38}, "group": "control_change"}, {"time": 1348, "annotation": {"number": 64, "value": 0}, "group": "control_change"}, {"time": 1350, "annotation": {"number": 64, "value": 127}, "group": "control_change"}, {"time": 1357, "annotation": {"number": 64, "value": 38}, "group": "control_change"}, {"time": 1357, "annotation": {"number": 64, "value": 0}, "group": "control_change"}, {"time": 1358, "annotation": {"number": 64, "value": 38}, "group": "control_change"}, {"time": 1358, "annotation": {"number": 64, "value": 0}, "group": "control_change"}, {"time": 1359, "annotation": {"number": 64, "value": 127}, "group": "control_change"}, {"time": 1366, "annotation": {"number": 64, "value": 0}, "group": "control_change"}, {"time": 1368, "annotation": {"number": 64, "value": 127}, "group": "control_change"}, {"time": 1372, "annotation": {"number": 64, "value": 38}, "group": "control_change"}, {"time": 1373, "annotation": {"number": 64, "value": 0}, "group": "control_change"}, {"time": 1374, "annotation": {"number": 64, "value": 127}, "group": "control_change"}, {"time": 1378, "annotation": {"number": 64, "value": 74}, "group": "control_change"}, {"time": 1378, "annotation": {"number": 64, "value": 0}, "group": "control_change"}, {"time": 1379, "annotation": {"number": 64, "value": 38}, "group": "control_change"}, {"time": 1379, "annotation": {"number": 64, "value": 127}, "group": "control_change"}, {"time": 1382, "annotation": {"number": 64, "value": 74}, "group": "control_change"}, {"time": 1382, "annotation": {"number": 64, "value": 0}, "group": "control_change"}, {"time": 1383, "annotation": {"number": 64, "value": 127}, "group": "control_change"}, {"time": 1391, "annotation": {"number": 64, "value": 0}, "group": "control_change"}, {"time": 1392, "annotation": {"number": 64, "value": 127}, "group": "control_change"}, {"time": 1397, "annotation": {"number": 64, "value": 0}, "group": "control_change"}, {"time": 1398, "annotation": {"number": 64, "value": 127}, "group": "control_change"}, {"time": 1415, "annotation": {"number": 64, "value": 38}, "group": "control_change"}, {"time": 1415, "annotation": {"number": 64, "value": 0}, "group": "control_change"}, {"time": 1416, "annotation": {"number": 64, "value": 127}, "group": "control_change"}, {"time": 1421, "annotation": {"number": 64, "value": 74}, "group": "control_change"}, {"time": 1421, "annotation": {"number": 64, "value": 0}, "group": "control_change"}, {"time": 1422, "annotation": {"number": 64, "value": 74}, "group": "control_change"}, {"time": 1422, "annotation": {"number": 64, "value": 127}, "group": "control_change"}, {"time": 1426, "annotation": {"number": 64, "value": 38}, "group": "control_change"}, {"time": 1426, "annotation": {"number": 64, "value": 0}, "group": "control_change"}, {"time": 1426, "annotation": {"number": 64, "value": 127}, "group": "control_change"}, {"time": 1437, "annotation": {"number": 64, "value": 38}, "group": "control_change"}, {"time": 1437, "annotation": {"number": 64, "value": 0}, "group": "control_change"}, {"time": 1469, "annotation": {"number": 64, "value": 38}, "group": "control_change"}, {"time": 1469, "annotation": {"number": 64, "value": 0}, "group": "control_change"}, {"time": 1470, "annotation": {"number": 64, "value": 127}, "group": "control_change"}, {"time": 1503, "annotation": {"number": 64, "value": 127}, "group": "control_change"}, {"time": 1508, "annotation": {"number": 64, "value": 0}, "group": "control_change"}, {"time": 1511, "annotation": {"number": 64, "value": 74}, "group": "control_change"}, {"time": 1511, "annotation": {"number": 64, "value": 38}, "group": "control_change"}, {"time": 1511, "annotation": {"number": 64, "value": 0}, "group": "control_change"}, {"time": 1512, "annotation": {"number": 64, "value": 127}, "group": "control_change"}, {"time": 1516, "annotation": {"number": 64, "value": 38}, "group": "control_change"}, {"time": 1516, "annotation": {"number": 64, "value": 0}, "group": "control_change"}, {"time": 1518, "annotation": {"number": 64, "value": 127}, "group": "control_change"}, {"time": 1540, "annotation": {"number": 64, "value": 74}, "group": "control_change"}, {"time": 1540, "annotation": {"number": 64, "value": 0}, "group": "control_change"}, {"time": 1542, "annotation": {"number": 64, "value": 127}, "group": "control_change"}, {"time": 1547, "annotation": {"number": 64, "value": 74}, "group": "control_change"}, {"time": 1547, "annotation": {"number": 64, "value": 0}, "group": "control_change"}, {"time": 1962, "annotation": {"number": 64, "value": 38}, "group": "control_change"}, {"time": 1962, "annotation": {"number": 64, "value": 0}, "group": "control_change"}, {"time": 1973, "annotation": {"number": 64, "value": 127}, "group": "control_change"}, {"time": 1995, "annotation": {"number": 64, "value": 38}, "group": "control_change"}, {"time": 1995, "annotation": {"number": 64, "value": 0}, "group": "control_change"}, {"time": 1997, "annotation": {"number": 64, "value": 127}, "group": "control_change"}, {"time": 2019, "annotation": {"number": 64, "value": 38}, "group": "control_change"}, {"time": 2019, "annotation": {"number": 64, "value": 0}, "group": "control_change"}, {"time": 2021, "annotation": {"number": 64, "value": 127}, "group": "control_change"}, {"time": 2044, "annotation": {"number": 64, "value": 38}, "group": "control_change"}, {"time": 2044, "annotation": {"number": 64, "value": 0}, "group": "control_change"}, {"time": 2045, "annotation": {"number": 64, "value": 127}, "group": "control_change"}, {"time": 2069, "annotation": {"number": 64, "value": 127}, "group": "control_change"}, {"time": 2080, "annotation": {"number": 64, "value": 38}, "group": "control_change"}, {"time": 2080, "annotation": {"number": 64, "value": 0}, "group": "control_change"}, {"time": 2091, "annotation": {"number": 64, "value": 0}, "group": "control_change"}, {"time": 2093, "annotation": {"number": 64, "value": 127}, "group": "control_change"}, {"time": 2115, "annotation": {"number": 64, "value": 38}, "group": "control_change"}, {"time": 2115, "annotation": {"number": 64, "value": 0}, "group": "control_change"}, {"time": 2116, "annotation": {"number": 64, "value": 127}, "group": "control_change"}, {"time": 2127, "annotation": {"number": 64, "value": 38}, "group": "control_change"}, {"time": 2127, "annotation": {"number": 64, "value": 0}, "group": "control_change"}, {"time": 2128, "annotation": {"number": 64, "value": 74}, "group": "control_change"}, {"time": 2128, "annotation": {"number": 64, "value": 127}, "group": "control_change"}, {"time": 2138, "annotation": {"number": 64, "value": 38}, "group": "control_change"}, {"time": 2138, "annotation": {"number": 64, "value": 0}, "group": "control_change"}, {"time": 2140, "annotation": {"number": 64, "value": 127}, "group": "control_change"}, {"time": 2151, "annotation": {"number": 64, "value": 38}, "group": "control_change"}, {"time": 2151, "annotation": {"number": 64, "value": 0}, "group": "control_change"}, {"time": 2177, "annotation": {"number": 64, "value": 127}, "group": "control_change"}, {"time": 2187, "annotation": {"number": 64, "value": 0}, "group": "control_change"}, {"time": 2188, "annotation": {"number": 64, "value": 127}, "group": "control_change"}, {"time": 2210, "annotation": {"number": 64, "value": 0}, "group": "control_change"}, {"time": 2212, "annotation": {"number": 64, "value": 127}, "group": "control_change"}, {"time": 2213, "annotation": {"number": 64, "value": 127}, "group": "control_change"}, {"time": 2228, "annotation": {"number": 64, "value": 38}, "group": "control_change"}, {"time": 2228, "annotation": {"number": 64, "value": 0}, "group": "control_change"}, {"time": 2234, "annotation": {"number": 64, "value": 0}, "group": "control_change"}, {"time": 2236, "annotation": {"number": 64, "value": 127}, "group": "control_change"}, {"time": 2258, "annotation": {"number": 64, "value": 0}, "group": "control_change"}, {"time": 2260, "annotation": {"number": 64, "value": 127}, "group": "control_change"}, {"time": 2282, "annotation": {"number": 64, "value": 38}, "group": "control_change"}, {"time": 2283, "annotation": {"number": 64, "value": 0}, "group": "control_change"}, {"time": 2284, "annotation": {"number": 64, "value": 127}, "group": "control_change"}, {"time": 2307, "annotation": {"number": 64, "value": 38}, "group": "control_change"}, {"time": 2307, "annotation": {"number": 64, "value": 0}, "group": "control_change"}, {"time": 2309, "annotation": {"number": 64, "value": 127}, "group": "control_change"}, {"time": 2343, "annotation": {"number": 64, "value": 74}, "group": "control_change"}, {"time": 2343, "annotation": {"number": 64, "value": 0}, "group": "control_change"}, {"time": 2343, "annotation": {"number": 64, "value": 127}, "group": "control_change"}, {"time": 2354, "annotation": {"number": 64, "value": 38}, "group": "control_change"}, {"time": 2354, "annotation": {"number": 64, "value": 0}, "group": "control_change"}, {"time": 2356, "annotation": {"number": 64, "value": 127}, "group": "control_change"}, {"time": 2368, "annotation": {"number": 64, "value": 0}, "group": "control_change"}, {"time": 2369, "annotation": {"number": 64, "value": 127}, "group": "control_change"}, {"time": 2380, "annotation": {"number": 64, "value": 38}, "group": "control_change"}, {"time": 2380, "annotation": {"number": 64, "value": 0}, "group": "control_change"}, {"time": 2381, "annotation": {"number": 64, "value": 74}, "group": "control_change"}, {"time": 2381, "annotation": {"number": 64, "value": 127}, "group": "control_change"}, {"time": 2392, "annotation": {"number": 64, "value": 74}, "group": "control_change"}, {"time": 2392, "annotation": {"number": 64, "value": 0}, "group": "control_change"}, {"time": 2393, "annotation": {"number": 64, "value": 127}, "group": "control_change"}, {"time": 2404, "annotation": {"number": 64, "value": 74}, "group": "control_change"}, {"time": 2404, "annotation": {"number": 64, "value": 0}, "group": "control_change"}, {"time": 2405, "annotation": {"number": 64, "value": 127}, "group": "control_change"}, {"time": 2406, "annotation": {"number": 64, "value": 127}, "group": "control_change"}, {"time": 2412, "annotation": {"number": 64, "value": 38}, "group": "control_change"}, {"time": 2412, "annotation": {"number": 64, "value": 0}, "group": "control_change"}, {"time": 2415, "annotation": {"number": 64, "value": 38}, "group": "control_change"}, {"time": 2415, "annotation": {"number": 64, "value": 0}, "group": "control_change"}, {"time": 2417, "annotation": {"number": 64, "value": 127}, "group": "control_change"}, {"time": 2421, "annotation": {"number": 64, "value": 38}, "group": "control_change"}, {"time": 2421, "annotation": {"number": 64, "value": 0}, "group": "control_change"}, {"time": 2423, "annotation": {"number": 64, "value": 127}, "group": "control_change"}, {"time": 2427, "annotation": {"number": 64, "value": 0}, "group": "control_change"}, {"time": 2429, "annotation": {"number": 64, "value": 127}, "group": "control_change"}, {"time": 2433, "annotation": {"number": 64, "value": 0}, "group": "control_change"}, {"time": 2434, "annotation": {"number": 64, "value": 127}, "group": "control_change"}, {"time": 2438, "annotation": {"number": 64, "value": 74}, "group": "control_change"}, {"time": 2438, "annotation": {"number": 64, "value": 0}, "group": "control_change"}, {"time": 2438, "annotation": {"number": 64, "value": 127}, "group": "control_change"}, {"time": 2446, "annotation": {"number": 64, "value": 38}, "group": "control_change"}, {"time": 2446, "annotation": {"number": 64, "value": 0}, "group": "control_change"}, {"time": 2447, "annotation": {"number": 64, "value": 127}, "group": "control_change"}, {"time": 2452, "annotation": {"number": 64, "value": 38}, "group": "control_change"}, {"time": 2452, "annotation": {"number": 64, "value": 0}, "group": "control_change"}, {"time": 2453, "annotation": {"number": 64, "value": 127}, "group": "control_change"}, {"time": 2454, "annotation": {"number": 64, "value": 127}, "group": "control_change"}, {"time": 2462, "annotation": {"number": 64, "value": 0}, "group": "control_change"}, {"time": 2469, "annotation": {"number": 64, "value": 0}, "group": "control_change"}, {"time": 2471, "annotation": {"number": 64, "value": 127}, "group": "control_change"}, {"time": 2475, "annotation": {"number": 64, "value": 38}, "group": "control_change"}, {"time": 2475, "annotation": {"number": 64, "value": 0}, "group": "control_change"}, {"time": 2478, "annotation": {"number": 64, "value": 127}, "group": "control_change"}, {"time": 2487, "annotation": {"number": 64, "value": 38}, "group": "control_change"}, {"time": 2487, "annotation": {"number": 64, "value": 0}, "group": "control_change"}, {"time": 2489, "annotation": {"number": 64, "value": 127}, "group": "control_change"}, {"time": 2499, "annotation": {"number": 64, "value": 0}, "group": "control_change"}, {"time": 2501, "annotation": {"number": 64, "value": 127}, "group": "control_change"}, {"time": 2512, "annotation": {"number": 64, "value": 74}, "group": "control_change"}, {"time": 2512, "annotation": {"number": 64, "value": 0}, "group": "control_change"}, {"time": 2514, "annotation": {"number": 64, "value": 127}, "group": "control_change"}, {"time": 2518, "annotation": {"number": 64, "value": 38}, "group": "control_change"}, {"time": 2518, "annotation": {"number": 64, "value": 0}, "group": "control_change"}, {"time": 2519, "annotation": {"number": 64, "value": 74}, "group": "control_change"}, {"time": 2519, "annotation": {"number": 64, "value": 127}, "group": "control_change"}, {"time": 2524, "annotation": {"number": 64, "value": 38}, "group": "control_change"}, {"time": 2524, "annotation": {"number": 64, "value": 0}, "group": "control_change"}, {"time": 2525, "annotation": {"number": 64, "value": 127}, "group": "control_change"}, {"time": 2532, "annotation": {"number": 64, "value": 38}, "group": "control_change"}, {"time": 2532, "annotation": {"number": 64, "value": 0}, "group": "control_change"}, {"time": 2534, "annotation": {"number": 64, "value": 38}, "group": "control_change"}, {"time": 2534, "annotation": {"number": 64, "value": 0}, "group": "control_change"}, {"time": 2535, "annotation": {"number": 64, "value": 127}, "group": "control_change"}, {"time": 2542, "annotation": {"number": 64, "value": 0}, "group": "control_change"}, {"time": 2543, "annotation": {"number": 64, "value": 127}, "group": "control_change"}, {"time": 2548, "annotation": {"number": 64, "value": 38}, "group": "control_change"}, {"time": 2548, "annotation": {"number": 64, "value": 0}, "group": "control_change"}, {"time": 2549, "annotation": {"number": 64, "value": 127}, "group": "control_change"}, {"time": 2553, "annotation": {"number": 64, "value": 74}, "group": "control_change"}, {"time": 2553, "annotation": {"number": 64, "value": 0}, "group": "control_change"}, {"time": 2554, "annotation": {"number": 64, "value": 38}, "group": "control_change"}, {"time": 2554, "annotation": {"number": 64, "value": 127}, "group": "control_change"}, {"time": 2557, "annotation": {"number": 64, "value": 74}, "group": "control_change"}, {"time": 2557, "annotation": {"number": 64, "value": 0}, "group": "control_change"}, {"time": 2558, "annotation": {"number": 64, "value": 127}, "group": "control_change"}, {"time": 2566, "annotation": {"number": 64, "value": 0}, "group": "control_change"}, {"time": 2567, "annotation": {"number": 64, "value": 127}, "group": "control_change"}, {"time": 2572, "annotation": {"number": 64, "value": 0}, "group": "control_change"}, {"time": 2573, "annotation": {"number": 64, "value": 127}, "group": "control_change"}, {"time": 2590, "annotation": {"number": 64, "value": 38}, "group": "control_change"}, {"time": 2590, "annotation": {"number": 64, "value": 0}, "group": "control_change"}, {"time": 2591, "annotation": {"number": 64, "value": 127}, "group": "control_change"}, {"time": 2596, "annotation": {"number": 64, "value": 74}, "group": "control_change"}, {"time": 2596, "annotation": {"number": 64, "value": 0}, "group": "control_change"}, {"time": 2597, "annotation": {"number": 64, "value": 74}, "group": "control_change"}, {"time": 2597, "annotation": {"number": 64, "value": 127}, "group": "control_change"}, {"time": 2601, "annotation": {"number": 64, "value": 38}, "group": "control_change"}, {"time": 2601, "annotation": {"number": 64, "value": 0}, "group": "control_change"}, {"time": 2602, "annotation": {"number": 64, "value": 127}, "group": "control_change"}, {"time": 2613, "annotation": {"number": 64, "value": 38}, "group": "control_change"}, {"time": 2613, "annotation": {"number": 64, "value": 0}, "group": "control_change"}, {"time": 2644, "annotation": {"number": 64, "value": 38}, "group": "control_change"}, {"time": 2644, "annotation": {"number": 64, "value": 0}, "group": "control_change"}, {"time": 2645, "annotation": {"number": 64, "value": 127}, "group": "control_change"}, {"time": 2679, "annotation": {"number": 64, "value": 127}, "group": "control_change"}, {"time": 2683, "annotation": {"number": 64, "value": 0}, "group": "control_change"}, {"time": 2686, "annotation": {"number": 64, "value": 74}, "group": "control_change"}, {"time": 2686, "annotation": {"number": 64, "value": 38}, "group": "control_change"}, {"time": 2687, "annotation": {"number": 64, "value": 0}, "group": "control_change"}, {"time": 2687, "annotation": {"number": 64, "value": 127}, "group": "control_change"}, {"time": 2692, "annotation": {"number": 64, "value": 38}, "group": "control_change"}, {"time": 2692, "annotation": {"number": 64, "value": 0}, "group": "control_change"}, {"time": 2693, "annotation": {"number": 64, "value": 127}, "group": "control_change"}, {"time": 2715, "annotation": {"number": 64, "value": 74}, "group": "control_change"}, {"time": 2715, "annotation": {"number": 64, "value": 0}, "group": "control_change"}, {"time": 2717, "annotation": {"number": 64, "value": 127}, "group": "control_change"}, {"time": 2722, "annotation": {"number": 64, "value": 74}, "group": "control_change"}, {"time": 2723, "annotation": {"number": 64, "value": 0}, "group": "control_change"}, {"time": 2751, "annotation": {"number": 64, "value": 0}, "group": "control_change"}, {"time": 2753, "annotation": {"number": 64, "value": 127}, "group": "control_change"}, {"time": 2764, "annotation": {"number": 64, "value": 38}, "group": "control_change"}, {"time": 2764, "annotation": {"number": 64, "value": 0}, "group": "control_change"}, {"time": 2765, "annotation": {"number": 64, "value": 74}, "group": "control_change"}, {"time": 2765, "annotation": {"number": 64, "value": 127}, "group": "control_change"}, {"time": 2776, "annotation": {"number": 64, "value": 74}, "group": "control_change"}, {"time": 2776, "annotation": {"number": 64, "value": 0}, "group": "control_change"}, {"time": 2777, "annotation": {"number": 64, "value": 127}, "group": "control_change"}, {"time": 2787, "annotation": {"number": 64, "value": 74}, "group": "control_change"}, {"time": 2787, "annotation": {"number": 64, "value": 0}, "group": "control_change"}, {"time": 2789, "annotation": {"number": 64, "value": 127}, "group": "control_change"}, {"time": 2790, "annotation": {"number": 64, "value": 127}, "group": "control_change"}, {"time": 2796, "annotation": {"number": 64, "value": 38}, "group": "control_change"}, {"time": 2796, "annotation": {"number": 64, "value": 0}, "group": "control_change"}, {"time": 2799, "annotation": {"number": 64, "value": 38}, "group": "control_change"}, {"time": 2799, "annotation": {"number": 64, "value": 0}, "group": "control_change"}, {"time": 2801, "annotation": {"number": 64, "value": 127}, "group": "control_change"}, {"time": 2805, "annotation": {"number": 64, "value": 38}, "group": "control_change"}, {"time": 2805, "annotation": {"number": 64, "value": 0}, "group": "control_change"}, {"time": 2807, "annotation": {"number": 64, "value": 127}, "group": "control_change"}, {"time": 2811, "annotation": {"number": 64, "value": 0}, "group": "control_change"}, {"time": 2813, "annotation": {"number": 64, "value": 127}, "group": "control_change"}, {"time": 2817, "annotation": {"number": 64, "value": 0}, "group": "control_change"}, {"time": 2818, "annotation": {"number": 64, "value": 127}, "group": "control_change"}, {"time": 2821, "annotation": {"number": 64, "value": 74}, "group": "control_change"}, {"time": 2821, "annotation": {"number": 64, "value": 0}, "group": "control_change"}, {"time": 2822, "annotation": {"number": 64, "value": 127}, "group": "control_change"}, {"time": 2829, "annotation": {"number": 64, "value": 38}, "group": "control_change"}, {"time": 2830, "annotation": {"number": 64, "value": 0}, "group": "control_change"}, {"time": 2831, "annotation": {"number": 64, "value": 127}, "group": "control_change"}, {"time": 2836, "annotation": {"number": 64, "value": 38}, "group": "control_change"}, {"time": 2836, "annotation": {"number": 64, "value": 0}, "group": "control_change"}, {"time": 2837, "annotation": {"number": 64, "value": 127}, "group": "control_change"}, {"time": 2838, "annotation": {"number": 64, "value": 127}, "group": "control_change"}, {"time": 2845, "annotation": {"number": 64, "value": 0}, "group": "control_change"}, {"time": 2853, "annotation": {"number": 64, "value": 0}, "group": "control_change"}, {"time": 2855, "annotation": {"number": 64, "value": 127}, "group": "control_change"}, {"time": 2859, "annotation": {"number": 64, "value": 38}, "group": "control_change"}, {"time": 2859, "annotation": {"number": 64, "value": 0}, "group": "control_change"}, {"time": 2862, "annotation": {"number": 64, "value": 127}, "group": "control_change"}, {"time": 2871, "annotation": {"number": 64, "value": 38}, "group": "control_change"}, {"time": 2871, "annotation": {"number": 64, "value": 0}, "group": "control_change"}, {"time": 2873, "annotation": {"number": 64, "value": 127}, "group": "control_change"}, {"time": 2883, "annotation": {"number": 64, "value": 0}, "group": "control_change"}, {"time": 2885, "annotation": {"number": 64, "value": 127}, "group": "control_change"}, {"time": 2896, "annotation": {"number": 64, "value": 74}, "group": "control_change"}, {"time": 2896, "annotation": {"number": 64, "value": 0}, "group": "control_change"}, {"time": 2897, "annotation": {"number": 64, "value": 127}, "group": "control_change"}, {"time": 2902, "annotation": {"number": 64, "value": 38}, "group": "control_change"}, {"time": 2902, "annotation": {"number": 64, "value": 0}, "group": "control_change"}, {"time": 2903, "annotation": {"number": 64, "value": 74}, "group": "control_change"}, {"time": 2903, "annotation": {"number": 64, "value": 127}, "group": "control_change"}, {"time": 2907, "annotation": {"number": 64, "value": 38}, "group": "control_change"}, {"time": 2908, "annotation": {"number": 64, "value": 0}, "group": "control_change"}, {"time": 2909, "annotation": {"number": 64, "value": 127}, "group": "control_change"}, {"time": 2916, "annotation": {"number": 64, "value": 38}, "group": "control_change"}, {"time": 2916, "annotation": {"number": 64, "value": 0}, "group": "control_change"}, {"time": 2917, "annotation": {"number": 64, "value": 38}, "group": "control_change"}, {"time": 2918, "annotation": {"number": 64, "value": 0}, "group": "control_change"}, {"time": 2918, "annotation": {"number": 64, "value": 127}, "group": "control_change"}, {"time": 2925, "annotation": {"number": 64, "value": 0}, "group": "control_change"}, {"time": 2927, "annotation": {"number": 64, "value": 127}, "group": "control_change"}, {"time": 2932, "annotation": {"number": 64, "value": 38}, "group": "control_change"}, {"time": 2932, "annotation": {"number": 64, "value": 0}, "group": "control_change"}, {"time": 2933, "annotation": {"number": 64, "value": 127}, "group": "control_change"}, {"time": 2937, "annotation": {"number": 64, "value": 74}, "group": "control_change"}, {"time": 2937, "annotation": {"number": 64, "value": 0}, "group": "control_change"}, {"time": 2938, "annotation": {"number": 64, "value": 38}, "group": "control_change"}, {"time": 2938, "annotation": {"number": 64, "value": 127}, "group": "control_change"}, {"time": 2941, "annotation": {"number": 64, "value": 74}, "group": "control_change"}, {"time": 2941, "annotation": {"number": 64, "value": 0}, "group": "control_change"}, {"time": 2942, "annotation": {"number": 64, "value": 127}, "group": "control_change"}, {"time": 2950, "annotation": {"number": 64, "value": 0}, "group": "control_change"}, {"time": 2951, "annotation": {"number": 64, "value": 127}, "group": "control_change"}, {"time": 2956, "annotation": {"number": 64, "value": 0}, "group": "control_change"}, {"time": 2957, "annotation": {"number": 64, "value": 127}, "group": "control_change"}, {"time": 2974, "annotation": {"number": 64, "value": 38}, "group": "control_change"}, {"time": 2974, "annotation": {"number": 64, "value": 0}, "group": "control_change"}, {"time": 2975, "annotation": {"number": 64, "value": 127}, "group": "control_change"}, {"time": 2980, "annotation": {"number": 64, "value": 74}, "group": "control_change"}, {"time": 2980, "annotation": {"number": 64, "value": 0}, "group": "control_change"}, {"time": 2981, "annotation": {"number": 64, "value": 74}, "group": "control_change"}, {"time": 2981, "annotation": {"number": 64, "value": 127}, "group": "control_change"}, {"time": 2985, "annotation": {"number": 64, "value": 38}, "group": "control_change"}, {"time": 2985, "annotation": {"number": 64, "value": 0}, "group": "control_change"}, {"time": 2985, "annotation": {"number": 64, "value": 127}, "group": "control_change"}, {"time": 2996, "annotation": {"number": 64, "value": 38}, "group": "control_change"}, {"time": 2997, "annotation": {"number": 64, "value": 0}, "group": "control_change"}, {"time": 3028, "annotation": {"number": 64, "value": 38}, "group": "control_change"}, {"time": 3028, "annotation": {"number": 64, "value": 0}, "group": "control_change"}, {"time": 3029, "annotation": {"number": 64, "value": 127}, "group": "control_change"}, {"time": 3063, "annotation": {"number": 64, "value": 127}, "group": "control_change"}, {"time": 3067, "annotation": {"number": 64, "value": 0}, "group": "control_change"}, {"time": 3070, "annotation": {"number": 64, "value": 74}, "group": "control_change"}, {"time": 3070, "annotation": {"number": 64, "value": 38}, "group": "control_change"}, {"time": 3070, "annotation": {"number": 64, "value": 0}, "group": "control_change"}, {"time": 3071, "annotation": {"number": 64, "value": 127}, "group": "control_change"}, {"time": 3075, "annotation": {"number": 64, "value": 38}, "group": "control_change"}, {"time": 3076, "annotation": {"number": 64, "value": 0}, "group": "control_change"}, {"time": 3077, "annotation": {"number": 64, "value": 127}, "group": "control_change"}, {"time": 3099, "annotation": {"number": 64, "value": 74}, "group": "control_change"}, {"time": 3099, "annotation": {"number": 64, "value": 0}, "group": "control_change"}, {"time": 3101, "annotation": {"number": 64, "value": 127}, "group": "control_change"}, {"time": 3106, "annotation": {"number": 64, "value": 74}, "group": "control_change"}, {"time": 3106, "annotation": {"number": 64, "value": 0}, "group": "control_change"}]}]}