{"metadata": {"schema_version": "0.2", "title": "None", "source_filename": "277.mid", "source_format": "midi"}, "resolution": 12, "tempos": [{"time": 0, "qpm": 87.00002175000543}, {"time": 576, "qpm": 85.00004250002125}, {"time": 744, "qpm": 87.00002175000543}, {"time": 960, "qpm": 85.00004250002125}, {"time": 1152, "qpm": 87.00002175000543}, {"time": 1296, "qpm": 86.00005160003096}, {"time": 2400, "qpm": 87.00002175000543}, {"time": 2544, "qpm": 86.00005160003096}], "key_signatures": [{"time": 0, "root": 0, "mode": "major"}], "time_signatures": [{"time": 0, "numerator": 4, "denominator": 4}], "tracks": [{"program": 4, "is_drum": false, "name": "MELODY", "notes": [{"time": 352, "pitch": 65, "duration": 6, "velocity": 110}, {"time": 358, "pitch": 67, "duration": 6, "velocity": 100}, {"time": 364, "pitch": 70, "duration": 9, "velocity": 116}, {"time": 374, "pitch": 70, "duration": 8, "velocity": 100}, {"time": 382, "pitch": 70, "duration": 6, "velocity": 106}, {"time": 388, "pitch": 70, "duration": 12, "velocity": 113}, {"time": 400, "pitch": 67, "duration": 6, "velocity": 110}, {"time": 406, "pitch": 65, "duration": 6, "velocity": 98}, {"time": 412, "pitch": 70, "duration": 9, "velocity": 113}, {"time": 422, "pitch": 70, "duration": 8, "velocity": 113}, {"time": 430, "pitch": 72, "duration": 8, "velocity": 110}, {"time": 436, "pitch": 70, "duration": 12, "velocity": 119}, {"time": 448, "pitch": 67, "duration": 6, "velocity": 102}, {"time": 454, "pitch": 70, "duration": 6, "velocity": 100}, {"time": 460, "pitch": 72, "duration": 9, "velocity": 102}, {"time": 470, "pitch": 72, "duration": 8, "velocity": 107}, {"time": 478, "pitch": 72, "duration": 6, "velocity": 104}, {"time": 484, "pitch": 72, "duration": 12, "velocity": 107}, {"time": 496, "pitch": 70, "duration": 7, "velocity": 113}, {"time": 502, "pitch": 67, "duration": 6, "velocity": 98}, {"time": 508, "pitch": 72, "duration": 9, "velocity": 108}, {"time": 518, "pitch": 72, "duration": 8, "velocity": 107}, {"time": 526, "pitch": 74, "duration": 6, "velocity": 110}, {"time": 532, "pitch": 72, "duration": 12, "velocity": 110}, {"time": 544, "pitch": 74, "duration": 6, "velocity": 104}, {"time": 550, "pitch": 77, "duration": 6, "velocity": 108}, {"time": 556, "pitch": 79, "duration": 9, "velocity": 116}, {"time": 566, "pitch": 79, "duration": 8, "velocity": 114}, {"time": 574, "pitch": 77, "duration": 6, "velocity": 113}, {"time": 580, "pitch": 79, "duration": 12, "velocity": 116}, {"time": 592, "pitch": 77, "duration": 6, "velocity": 110}, {"time": 598, "pitch": 74, "duration": 6, "velocity": 98}, {"time": 604, "pitch": 72, "duration": 6, "velocity": 107}, {"time": 610, "pitch": 74, "duration": 6, "velocity": 110}, {"time": 616, "pitch": 72, "duration": 7, "velocity": 107}, {"time": 622, "pitch": 70, "duration": 6, "velocity": 103}, {"time": 628, "pitch": 67, "duration": 12, "velocity": 91}, {"time": 640, "pitch": 65, "duration": 6, "velocity": 110}, {"time": 646, "pitch": 67, "duration": 6, "velocity": 102}, {"time": 652, "pitch": 70, "duration": 9, "velocity": 113}, {"time": 662, "pitch": 70, "duration": 8, "velocity": 113}, {"time": 670, "pitch": 70, "duration": 6, "velocity": 113}, {"time": 676, "pitch": 70, "duration": 12, "velocity": 116}, {"time": 688, "pitch": 67, "duration": 12, "velocity": 110}, {"time": 700, "pitch": 70, "duration": 36, "velocity": 116}, {"time": 736, "pitch": 65, "duration": 6, "velocity": 110}, {"time": 742, "pitch": 67, "duration": 6, "velocity": 100}, {"time": 748, "pitch": 70, "duration": 9, "velocity": 116}, {"time": 758, "pitch": 70, "duration": 8, "velocity": 100}, {"time": 766, "pitch": 70, "duration": 6, "velocity": 106}, {"time": 772, "pitch": 70, "duration": 12, "velocity": 113}, {"time": 784, "pitch": 67, "duration": 6, "velocity": 110}, {"time": 790, "pitch": 65, "duration": 6, "velocity": 98}, {"time": 796, "pitch": 70, "duration": 9, "velocity": 113}, {"time": 806, "pitch": 70, "duration": 8, "velocity": 113}, {"time": 814, "pitch": 72, "duration": 8, "velocity": 110}, {"time": 820, "pitch": 70, "duration": 12, "velocity": 119}, {"time": 832, "pitch": 67, "duration": 6, "velocity": 102}, {"time": 838, "pitch": 70, "duration": 6, "velocity": 100}, {"time": 844, "pitch": 72, "duration": 9, "velocity": 102}, {"time": 854, "pitch": 72, "duration": 8, "velocity": 107}, {"time": 862, "pitch": 72, "duration": 6, "velocity": 104}, {"time": 868, "pitch": 72, "duration": 12, "velocity": 107}, {"time": 880, "pitch": 70, "duration": 7, "velocity": 113}, {"time": 886, "pitch": 67, "duration": 6, "velocity": 98}, {"time": 892, "pitch": 72, "duration": 9, "velocity": 108}, {"time": 902, "pitch": 72, "duration": 8, "velocity": 107}, {"time": 910, "pitch": 74, "duration": 6, "velocity": 110}, {"time": 916, "pitch": 72, "duration": 12, "velocity": 110}, {"time": 928, "pitch": 74, "duration": 6, "velocity": 104}, {"time": 934, "pitch": 77, "duration": 6, "velocity": 108}, {"time": 940, "pitch": 79, "duration": 9, "velocity": 116}, {"time": 950, "pitch": 79, "duration": 8, "velocity": 114}, {"time": 958, "pitch": 77, "duration": 6, "velocity": 113}, {"time": 964, "pitch": 79, "duration": 12, "velocity": 116}, {"time": 976, "pitch": 82, "duration": 6, "velocity": 116}, {"time": 982, "pitch": 79, "duration": 6, "velocity": 114}, {"time": 988, "pitch": 77, "duration": 6, "velocity": 110}, {"time": 994, "pitch": 74, "duration": 6, "velocity": 110}, {"time": 1000, "pitch": 72, "duration": 7, "velocity": 107}, {"time": 1006, "pitch": 70, "duration": 6, "velocity": 103}, {"time": 1012, "pitch": 67, "duration": 12, "velocity": 91}, {"time": 1024, "pitch": 65, "duration": 6, "velocity": 110}, {"time": 1030, "pitch": 67, "duration": 6, "velocity": 102}, {"time": 1036, "pitch": 70, "duration": 9, "velocity": 113}, {"time": 1046, "pitch": 70, "duration": 8, "velocity": 113}, {"time": 1054, "pitch": 70, "duration": 6, "velocity": 113}, {"time": 1060, "pitch": 70, "duration": 12, "velocity": 116}, {"time": 1072, "pitch": 72, "duration": 12, "velocity": 110}, {"time": 1084, "pitch": 70, "duration": 36, "velocity": 116}, {"time": 1120, "pitch": 74, "duration": 6, "velocity": 116}, {"time": 1126, "pitch": 77, "duration": 6, "velocity": 108}, {"time": 1132, "pitch": 79, "duration": 9, "velocity": 114}, {"time": 1142, "pitch": 79, "duration": 8, "velocity": 114}, {"time": 1150, "pitch": 79, "duration": 6, "velocity": 116}, {"time": 1156, "pitch": 79, "duration": 12, "velocity": 116}, {"time": 1168, "pitch": 82, "duration": 6, "velocity": 108}, {"time": 1174, "pitch": 79, "duration": 6, "velocity": 104}, {"time": 1180, "pitch": 77, "duration": 6, "velocity": 114}, {"time": 1186, "pitch": 77, "duration": 12, "velocity": 104}, {"time": 1198, "pitch": 79, "duration": 6, "velocity": 104}, {"time": 1204, "pitch": 77, "duration": 12, "velocity": 114}, {"time": 1216, "pitch": 74, "duration": 6, "velocity": 113}, {"time": 1222, "pitch": 72, "duration": 6, "velocity": 108}, {"time": 1228, "pitch": 70, "duration": 9, "velocity": 113}, {"time": 1238, "pitch": 70, "duration": 8, "velocity": 123}, {"time": 1246, "pitch": 70, "duration": 6, "velocity": 116}, {"time": 1252, "pitch": 70, "duration": 12, "velocity": 119}, {"time": 1264, "pitch": 72, "duration": 12, "velocity": 114}, {"time": 1276, "pitch": 74, "duration": 36, "velocity": 117}, {"time": 1312, "pitch": 74, "duration": 6, "velocity": 114}, {"time": 1318, "pitch": 72, "duration": 6, "velocity": 104}, {"time": 1324, "pitch": 70, "duration": 9, "velocity": 113}, {"time": 1334, "pitch": 70, "duration": 8, "velocity": 116}, {"time": 1342, "pitch": 70, "duration": 6, "velocity": 116}, {"time": 1348, "pitch": 70, "duration": 12, "velocity": 119}, {"time": 1360, "pitch": 82, "duration": 6, "velocity": 119}, {"time": 1366, "pitch": 79, "duration": 6, "velocity": 110}, {"time": 1372, "pitch": 77, "duration": 9, "velocity": 117}, {"time": 1382, "pitch": 77, "duration": 8, "velocity": 113}, {"time": 1390, "pitch": 79, "duration": 6, "velocity": 113}, {"time": 1396, "pitch": 77, "duration": 12, "velocity": 117}, {"time": 1408, "pitch": 74, "duration": 6, "velocity": 117}, {"time": 1414, "pitch": 77, "duration": 6, "velocity": 114}, {"time": 1420, "pitch": 79, "duration": 18, "velocity": 116}, {"time": 1438, "pitch": 82, "duration": 6, "velocity": 119}, {"time": 1444, "pitch": 82, "duration": 12, "velocity": 119}, {"time": 1456, "pitch": 79, "duration": 12, "velocity": 119}, {"time": 1468, "pitch": 77, "duration": 36, "velocity": 120}, {"time": 1504, "pitch": 74, "duration": 6, "velocity": 116}, {"time": 1510, "pitch": 77, "duration": 6, "velocity": 108}, {"time": 1516, "pitch": 79, "duration": 9, "velocity": 114}, {"time": 1526, "pitch": 79, "duration": 8, "velocity": 114}, {"time": 1534, "pitch": 79, "duration": 6, "velocity": 116}, {"time": 1540, "pitch": 79, "duration": 12, "velocity": 116}, {"time": 1552, "pitch": 82, "duration": 6, "velocity": 108}, {"time": 1558, "pitch": 79, "duration": 6, "velocity": 104}, {"time": 1564, "pitch": 77, "duration": 6, "velocity": 114}, {"time": 1570, "pitch": 77, "duration": 12, "velocity": 104}, {"time": 1582, "pitch": 79, "duration": 6, "velocity": 104}, {"time": 1588, "pitch": 77, "duration": 12, "velocity": 114}, {"time": 1600, "pitch": 74, "duration": 6, "velocity": 113}, {"time": 1606, "pitch": 72, "duration": 6, "velocity": 108}, {"time": 1612, "pitch": 70, "duration": 9, "velocity": 113}, {"time": 1622, "pitch": 70, "duration": 8, "velocity": 123}, {"time": 1630, "pitch": 70, "duration": 6, "velocity": 116}, {"time": 1636, "pitch": 70, "duration": 12, "velocity": 119}, {"time": 1648, "pitch": 77, "duration": 12, "velocity": 114}, {"time": 1660, "pitch": 74, "duration": 36, "velocity": 117}, {"time": 1696, "pitch": 74, "duration": 6, "velocity": 114}, {"time": 1702, "pitch": 72, "duration": 6, "velocity": 104}, {"time": 1708, "pitch": 70, "duration": 9, "velocity": 113}, {"time": 1718, "pitch": 70, "duration": 8, "velocity": 116}, {"time": 1726, "pitch": 70, "duration": 6, "velocity": 116}, {"time": 1732, "pitch": 70, "duration": 12, "velocity": 119}, {"time": 1744, "pitch": 70, "duration": 6, "velocity": 119}, {"time": 1750, "pitch": 74, "duration": 6, "velocity": 110}, {"time": 1756, "pitch": 77, "duration": 9, "velocity": 117}, {"time": 1766, "pitch": 77, "duration": 8, "velocity": 113}, {"time": 1774, "pitch": 74, "duration": 6, "velocity": 113}, {"time": 1780, "pitch": 77, "duration": 12, "velocity": 117}, {"time": 1792, "pitch": 74, "duration": 6, "velocity": 117}, {"time": 1798, "pitch": 77, "duration": 6, "velocity": 114}, {"time": 1804, "pitch": 79, "duration": 66, "velocity": 116}, {"time": 1870, "pitch": 65, "duration": 6, "velocity": 100}, {"time": 1876, "pitch": 74, "duration": 10, "velocity": 110}, {"time": 1886, "pitch": 72, "duration": 8, "velocity": 94}, {"time": 1894, "pitch": 70, "duration": 6, "velocity": 113}, {"time": 1900, "pitch": 70, "duration": 46, "velocity": 119}, {"time": 2368, "pitch": 65, "duration": 6, "velocity": 110}, {"time": 2374, "pitch": 67, "duration": 6, "velocity": 100}, {"time": 2380, "pitch": 70, "duration": 9, "velocity": 116}, {"time": 2390, "pitch": 70, "duration": 8, "velocity": 100}, {"time": 2398, "pitch": 70, "duration": 6, "velocity": 106}, {"time": 2404, "pitch": 70, "duration": 12, "velocity": 113}, {"time": 2416, "pitch": 67, "duration": 6, "velocity": 110}, {"time": 2422, "pitch": 65, "duration": 6, "velocity": 98}, {"time": 2428, "pitch": 70, "duration": 9, "velocity": 113}, {"time": 2438, "pitch": 70, "duration": 8, "velocity": 113}, {"time": 2446, "pitch": 72, "duration": 8, "velocity": 110}, {"time": 2452, "pitch": 70, "duration": 12, "velocity": 119}, {"time": 2464, "pitch": 67, "duration": 6, "velocity": 102}, {"time": 2470, "pitch": 70, "duration": 6, "velocity": 100}, {"time": 2476, "pitch": 72, "duration": 9, "velocity": 102}, {"time": 2486, "pitch": 72, "duration": 8, "velocity": 107}, {"time": 2494, "pitch": 72, "duration": 6, "velocity": 104}, {"time": 2500, "pitch": 72, "duration": 12, "velocity": 107}, {"time": 2512, "pitch": 70, "duration": 7, "velocity": 113}, {"time": 2518, "pitch": 67, "duration": 6, "velocity": 98}, {"time": 2524, "pitch": 72, "duration": 9, "velocity": 108}, {"time": 2534, "pitch": 72, "duration": 8, "velocity": 107}, {"time": 2542, "pitch": 74, "duration": 6, "velocity": 110}, {"time": 2548, "pitch": 72, "duration": 12, "velocity": 110}, {"time": 2560, "pitch": 74, "duration": 6, "velocity": 104}, {"time": 2566, "pitch": 77, "duration": 6, "velocity": 108}, {"time": 2572, "pitch": 79, "duration": 9, "velocity": 116}, {"time": 2582, "pitch": 79, "duration": 8, "velocity": 114}, {"time": 2590, "pitch": 77, "duration": 6, "velocity": 113}, {"time": 2596, "pitch": 79, "duration": 12, "velocity": 116}, {"time": 2608, "pitch": 82, "duration": 6, "velocity": 116}, {"time": 2614, "pitch": 79, "duration": 6, "velocity": 114}, {"time": 2620, "pitch": 77, "duration": 6, "velocity": 110}, {"time": 2626, "pitch": 74, "duration": 6, "velocity": 110}, {"time": 2632, "pitch": 72, "duration": 7, "velocity": 107}, {"time": 2638, "pitch": 70, "duration": 6, "velocity": 103}, {"time": 2644, "pitch": 67, "duration": 12, "velocity": 91}, {"time": 2656, "pitch": 65, "duration": 6, "velocity": 110}, {"time": 2662, "pitch": 67, "duration": 6, "velocity": 102}, {"time": 2668, "pitch": 70, "duration": 9, "velocity": 113}, {"time": 2678, "pitch": 70, "duration": 8, "velocity": 113}, {"time": 2686, "pitch": 70, "duration": 6, "velocity": 113}, {"time": 2692, "pitch": 70, "duration": 12, "velocity": 116}, {"time": 2704, "pitch": 72, "duration": 12, "velocity": 110}, {"time": 2716, "pitch": 70, "duration": 24, "velocity": 116}, {"time": 2752, "pitch": 74, "duration": 6, "velocity": 116}, {"time": 2758, "pitch": 77, "duration": 6, "velocity": 108}, {"time": 2764, "pitch": 79, "duration": 9, "velocity": 114}, {"time": 2774, "pitch": 79, "duration": 8, "velocity": 114}, {"time": 2782, "pitch": 79, "duration": 6, "velocity": 116}, {"time": 2788, "pitch": 79, "duration": 12, "velocity": 116}, {"time": 2800, "pitch": 82, "duration": 6, "velocity": 108}, {"time": 2806, "pitch": 79, "duration": 6, "velocity": 104}, {"time": 2812, "pitch": 77, "duration": 6, "velocity": 114}, {"time": 2818, "pitch": 77, "duration": 12, "velocity": 104}, {"time": 2830, "pitch": 79, "duration": 6, "velocity": 104}, {"time": 2836, "pitch": 77, "duration": 12, "velocity": 114}, {"time": 2848, "pitch": 74, "duration": 6, "velocity": 113}, {"time": 2854, "pitch": 72, "duration": 6, "velocity": 108}, {"time": 2860, "pitch": 70, "duration": 9, "velocity": 113}, {"time": 2870, "pitch": 70, "duration": 8, "velocity": 123}, {"time": 2878, "pitch": 70, "duration": 6, "velocity": 116}, {"time": 2884, "pitch": 70, "duration": 12, "velocity": 119}, {"time": 2896, "pitch": 72, "duration": 12, "velocity": 114}, {"time": 2908, "pitch": 74, "duration": 36, "velocity": 117}, {"time": 2944, "pitch": 74, "duration": 6, "velocity": 114}, {"time": 2950, "pitch": 72, "duration": 6, "velocity": 104}, {"time": 2956, "pitch": 70, "duration": 9, "velocity": 113}, {"time": 2966, "pitch": 70, "duration": 8, "velocity": 116}, {"time": 2974, "pitch": 70, "duration": 6, "velocity": 116}, {"time": 2980, "pitch": 70, "duration": 12, "velocity": 119}, {"time": 2992, "pitch": 82, "duration": 6, "velocity": 119}, {"time": 2998, "pitch": 79, "duration": 6, "velocity": 110}, {"time": 3004, "pitch": 77, "duration": 9, "velocity": 117}, {"time": 3014, "pitch": 77, "duration": 8, "velocity": 113}, {"time": 3022, "pitch": 79, "duration": 6, "velocity": 113}, {"time": 3028, "pitch": 77, "duration": 12, "velocity": 117}, {"time": 3040, "pitch": 74, "duration": 6, "velocity": 117}, {"time": 3046, "pitch": 77, "duration": 6, "velocity": 114}, {"time": 3052, "pitch": 79, "duration": 18, "velocity": 116}, {"time": 3070, "pitch": 82, "duration": 6, "velocity": 119}, {"time": 3076, "pitch": 82, "duration": 12, "velocity": 119}, {"time": 3088, "pitch": 79, "duration": 12, "velocity": 119}, {"time": 3100, "pitch": 77, "duration": 36, "velocity": 120}, {"time": 3136, "pitch": 74, "duration": 6, "velocity": 116}, {"time": 3142, "pitch": 77, "duration": 6, "velocity": 108}, {"time": 3148, "pitch": 79, "duration": 9, "velocity": 114}, {"time": 3158, "pitch": 79, "duration": 8, "velocity": 114}, {"time": 3166, "pitch": 79, "duration": 6, "velocity": 116}, {"time": 3172, "pitch": 79, "duration": 12, "velocity": 116}, {"time": 3184, "pitch": 82, "duration": 6, "velocity": 108}, {"time": 3190, "pitch": 79, "duration": 6, "velocity": 104}, {"time": 3196, "pitch": 77, "duration": 6, "velocity": 114}, {"time": 3202, "pitch": 77, "duration": 12, "velocity": 104}, {"time": 3214, "pitch": 79, "duration": 6, "velocity": 104}, {"time": 3220, "pitch": 77, "duration": 12, "velocity": 114}, {"time": 3232, "pitch": 74, "duration": 6, "velocity": 113}, {"time": 3238, "pitch": 72, "duration": 6, "velocity": 108}, {"time": 3244, "pitch": 70, "duration": 9, "velocity": 113}, {"time": 3254, "pitch": 70, "duration": 8, "velocity": 123}, {"time": 3262, "pitch": 70, "duration": 6, "velocity": 116}, {"time": 3268, "pitch": 70, "duration": 12, "velocity": 119}, {"time": 3292, "pitch": 74, "duration": 36, "velocity": 117}, {"time": 3328, "pitch": 74, "duration": 6, "velocity": 114}, {"time": 3334, "pitch": 72, "duration": 6, "velocity": 104}, {"time": 3340, "pitch": 70, "duration": 9, "velocity": 113}, {"time": 3350, "pitch": 70, "duration": 8, "velocity": 116}, {"time": 3358, "pitch": 70, "duration": 6, "velocity": 116}, {"time": 3364, "pitch": 70, "duration": 12, "velocity": 119}, {"time": 3376, "pitch": 70, "duration": 6, "velocity": 119}, {"time": 3382, "pitch": 74, "duration": 6, "velocity": 110}, {"time": 3388, "pitch": 77, "duration": 9, "velocity": 117}, {"time": 3398, "pitch": 77, "duration": 8, "velocity": 113}, {"time": 3406, "pitch": 74, "duration": 6, "velocity": 113}, {"time": 3412, "pitch": 77, "duration": 12, "velocity": 117}, {"time": 3424, "pitch": 74, "duration": 6, "velocity": 117}, {"time": 3430, "pitch": 77, "duration": 6, "velocity": 114}, {"time": 3436, "pitch": 79, "duration": 66, "velocity": 116}, {"time": 3502, "pitch": 65, "duration": 6, "velocity": 100}, {"time": 3508, "pitch": 74, "duration": 10, "velocity": 110}, {"time": 3518, "pitch": 72, "duration": 8, "velocity": 94}, {"time": 3526, "pitch": 70, "duration": 6, "velocity": 113}, {"time": 3532, "pitch": 70, "duration": 46, "velocity": 119}, {"time": 3568, "pitch": 74, "duration": 6, "velocity": 116}, {"time": 3574, "pitch": 77, "duration": 6, "velocity": 108}, {"time": 3580, "pitch": 79, "duration": 9, "velocity": 114}, {"time": 3589, "pitch": 79, "duration": 9, "velocity": 114}, {"time": 3598, "pitch": 79, "duration": 6, "velocity": 116}, {"time": 3604, "pitch": 79, "duration": 12, "velocity": 116}, {"time": 3616, "pitch": 82, "duration": 6, "velocity": 108}, {"time": 3622, "pitch": 79, "duration": 6, "velocity": 104}, {"time": 3628, "pitch": 77, "duration": 6, "velocity": 114}, {"time": 3634, "pitch": 77, "duration": 12, "velocity": 104}, {"time": 3646, "pitch": 79, "duration": 6, "velocity": 104}, {"time": 3652, "pitch": 77, "duration": 12, "velocity": 114}, {"time": 3664, "pitch": 74, "duration": 6, "velocity": 113}, {"time": 3670, "pitch": 72, "duration": 6, "velocity": 108}, {"time": 3676, "pitch": 70, "duration": 9, "velocity": 113}, {"time": 3685, "pitch": 70, "duration": 9, "velocity": 123}, {"time": 3694, "pitch": 70, "duration": 6, "velocity": 116}, {"time": 3700, "pitch": 70, "duration": 12, "velocity": 119}, {"time": 3712, "pitch": 72, "duration": 12, "velocity": 114}, {"time": 3724, "pitch": 74, "duration": 36, "velocity": 117}, {"time": 3760, "pitch": 74, "duration": 6, "velocity": 114}, {"time": 3766, "pitch": 72, "duration": 6, "velocity": 104}, {"time": 3772, "pitch": 70, "duration": 9, "velocity": 113}, {"time": 3781, "pitch": 70, "duration": 9, "velocity": 116}, {"time": 3790, "pitch": 70, "duration": 6, "velocity": 116}, {"time": 3796, "pitch": 70, "duration": 12, "velocity": 119}, {"time": 3808, "pitch": 82, "duration": 6, "velocity": 119}, {"time": 3814, "pitch": 79, "duration": 6, "velocity": 110}, {"time": 3820, "pitch": 77, "duration": 9, "velocity": 117}, {"time": 3829, "pitch": 77, "duration": 9, "velocity": 113}, {"time": 3838, "pitch": 79, "duration": 6, "velocity": 113}, {"time": 3844, "pitch": 77, "duration": 12, "velocity": 117}, {"time": 3856, "pitch": 74, "duration": 6, "velocity": 117}, {"time": 3862, "pitch": 77, "duration": 6, "velocity": 114}, {"time": 3868, "pitch": 79, "duration": 18, "velocity": 116}, {"time": 3886, "pitch": 82, "duration": 6, "velocity": 119}, {"time": 3892, "pitch": 82, "duration": 12, "velocity": 119}, {"time": 3904, "pitch": 79, "duration": 12, "velocity": 119}, {"time": 3916, "pitch": 77, "duration": 36, "velocity": 120}, {"time": 3952, "pitch": 74, "duration": 6, "velocity": 116}, {"time": 3958, "pitch": 77, "duration": 6, "velocity": 108}, {"time": 3964, "pitch": 79, "duration": 9, "velocity": 114}, {"time": 3973, "pitch": 79, "duration": 9, "velocity": 114}, {"time": 3982, "pitch": 79, "duration": 6, "velocity": 116}, {"time": 3988, "pitch": 79, "duration": 12, "velocity": 116}, {"time": 4000, "pitch": 82, "duration": 6, "velocity": 108}, {"time": 4006, "pitch": 79, "duration": 6, "velocity": 104}, {"time": 4012, "pitch": 77, "duration": 6, "velocity": 114}, {"time": 4018, "pitch": 77, "duration": 12, "velocity": 104}, {"time": 4030, "pitch": 79, "duration": 6, "velocity": 104}, {"time": 4036, "pitch": 77, "duration": 12, "velocity": 114}, {"time": 4048, "pitch": 74, "duration": 6, "velocity": 113}, {"time": 4054, "pitch": 72, "duration": 6, "velocity": 108}, {"time": 4060, "pitch": 70, "duration": 9, "velocity": 113}, {"time": 4069, "pitch": 70, "duration": 9, "velocity": 123}, {"time": 4078, "pitch": 70, "duration": 6, "velocity": 116}, {"time": 4084, "pitch": 70, "duration": 12, "velocity": 119}, {"time": 4096, "pitch": 77, "duration": 12, "velocity": 114}, {"time": 4108, "pitch": 74, "duration": 36, "velocity": 117}, {"time": 4144, "pitch": 74, "duration": 6, "velocity": 114}, {"time": 4150, "pitch": 72, "duration": 6, "velocity": 104}, {"time": 4156, "pitch": 70, "duration": 9, "velocity": 113}, {"time": 4165, "pitch": 70, "duration": 9, "velocity": 116}, {"time": 4174, "pitch": 70, "duration": 6, "velocity": 116}, {"time": 4180, "pitch": 70, "duration": 12, "velocity": 119}, {"time": 4192, "pitch": 70, "duration": 6, "velocity": 119}, {"time": 4198, "pitch": 74, "duration": 6, "velocity": 110}, {"time": 4204, "pitch": 77, "duration": 9, "velocity": 117}, {"time": 4213, "pitch": 77, "duration": 9, "velocity": 113}, {"time": 4222, "pitch": 74, "duration": 6, "velocity": 113}, {"time": 4228, "pitch": 77, "duration": 12, "velocity": 117}, {"time": 4240, "pitch": 74, "duration": 6, "velocity": 117}, {"time": 4246, "pitch": 77, "duration": 6, "velocity": 114}, {"time": 4252, "pitch": 79, "duration": 43, "velocity": 116}, {"time": 4324, "pitch": 65, "duration": 7, "velocity": 100}, {"time": 4334, "pitch": 74, "duration": 11, "velocity": 113}, {"time": 4346, "pitch": 72, "duration": 10, "velocity": 117}, {"time": 4358, "pitch": 74, "duration": 20, "velocity": 117}, {"time": 4378, "pitch": 72, "duration": 14, "velocity": 100}, {"time": 4394, "pitch": 70, "duration": 38, "velocity": 104}]}, {"program": 0, "is_drum": false, "name": "PIANO", "notes": [{"time": 21, "pitch": 46, "duration": 28, "velocity": 83}, {"time": 21, "pitch": 62, "duration": 11, "velocity": 82}, {"time": 21, "pitch": 65, "duration": 10, "velocity": 83}, {"time": 21, "pitch": 70, "duration": 10, "velocity": 82}, {"time": 38, "pitch": 62, "duration": 8, "velocity": 83}, {"time": 38, "pitch": 65, "duration": 8, "velocity": 83}, {"time": 38, "pitch": 70, "duration": 7, "velocity": 82}, {"time": 52, "pitch": 46, "duration": 28, "velocity": 84}, {"time": 52, "pitch": 60, "duration": 11, "velocity": 78}, {"time": 52, "pitch": 63, "duration": 12, "velocity": 82}, {"time": 52, "pitch": 67, "duration": 11, "velocity": 81}, {"time": 52, "pitch": 70, "duration": 10, "velocity": 79}, {"time": 68, "pitch": 60, "duration": 10, "velocity": 82}, {"time": 68, "pitch": 63, "duration": 13, "velocity": 81}, {"time": 68, "pitch": 67, "duration": 11, "velocity": 83}, {"time": 68, "pitch": 70, "duration": 10, "velocity": 84}, {"time": 83, "pitch": 46, "duration": 27, "velocity": 84}, {"time": 83, "pitch": 62, "duration": 12, "velocity": 84}, {"time": 83, "pitch": 65, "duration": 11, "velocity": 85}, {"time": 83, "pitch": 70, "duration": 11, "velocity": 83}, {"time": 98, "pitch": 62, "duration": 10, "velocity": 82}, {"time": 98, "pitch": 65, "duration": 11, "velocity": 86}, {"time": 98, "pitch": 70, "duration": 9, "velocity": 82}, {"time": 114, "pitch": 41, "duration": 25, "velocity": 84}, {"time": 114, "pitch": 60, "duration": 9, "velocity": 78}, {"time": 114, "pitch": 65, "duration": 9, "velocity": 80}, {"time": 114, "pitch": 69, "duration": 8, "velocity": 84}, {"time": 129, "pitch": 60, "duration": 10, "velocity": 82}, {"time": 129, "pitch": 65, "duration": 13, "velocity": 81}, {"time": 129, "pitch": 69, "duration": 12, "velocity": 86}, {"time": 146, "pitch": 46, "duration": 26, "velocity": 81}, {"time": 146, "pitch": 62, "duration": 11, "velocity": 79}, {"time": 146, "pitch": 65, "duration": 11, "velocity": 83}, {"time": 146, "pitch": 70, "duration": 9, "velocity": 83}, {"time": 160, "pitch": 62, "duration": 10, "velocity": 80}, {"time": 160, "pitch": 65, "duration": 14, "velocity": 80}, {"time": 160, "pitch": 70, "duration": 10, "velocity": 83}, {"time": 175, "pitch": 46, "duration": 25, "velocity": 83}, {"time": 175, "pitch": 63, "duration": 10, "velocity": 76}, {"time": 175, "pitch": 67, "duration": 10, "velocity": 81}, {"time": 175, "pitch": 72, "duration": 11, "velocity": 82}, {"time": 190, "pitch": 63, "duration": 8, "velocity": 81}, {"time": 190, "pitch": 67, "duration": 11, "velocity": 82}, {"time": 190, "pitch": 72, "duration": 7, "velocity": 79}, {"time": 205, "pitch": 46, "duration": 22, "velocity": 82}, {"time": 205, "pitch": 62, "duration": 11, "velocity": 78}, {"time": 205, "pitch": 65, "duration": 10, "velocity": 81}, {"time": 205, "pitch": 70, "duration": 9, "velocity": 80}, {"time": 220, "pitch": 62, "duration": 11, "velocity": 74}, {"time": 220, "pitch": 65, "duration": 13, "velocity": 79}, {"time": 220, "pitch": 70, "duration": 11, "velocity": 78}, {"time": 236, "pitch": 67, "duration": 1, "velocity": 119}, {"time": 236, "pitch": 60, "duration": 9, "velocity": 127}, {"time": 236, "pitch": 53, "duration": 9, "velocity": 127}, {"time": 236, "pitch": 41, "duration": 10, "velocity": 121}, {"time": 236, "pitch": 69, "duration": 8, "velocity": 119}, {"time": 243, "pitch": 67, "duration": 4, "velocity": 109}, {"time": 247, "pitch": 65, "duration": 1, "velocity": 117}, {"time": 251, "pitch": 65, "duration": 3, "velocity": 98}, {"time": 251, "pitch": 62, "duration": 3, "velocity": 109}, {"time": 251, "pitch": 70, "duration": 3, "velocity": 96}, {"time": 251, "pitch": 34, "duration": 4, "velocity": 120}, {"time": 251, "pitch": 46, "duration": 4, "velocity": 122}, {"time": 258, "pitch": 65, "duration": 2, "velocity": 98}, {"time": 258, "pitch": 41, "duration": 2, "velocity": 111}, {"time": 258, "pitch": 60, "duration": 2, "velocity": 104}, {"time": 259, "pitch": 29, "duration": 1, "velocity": 116}, {"time": 262, "pitch": 65, "duration": 70, "velocity": 84}, {"time": 262, "pitch": 34, "duration": 70, "velocity": 124}, {"time": 262, "pitch": 46, "duration": 70, "velocity": 127}, {"time": 262, "pitch": 70, "duration": 70, "velocity": 116}, {"time": 262, "pitch": 62, "duration": 70, "velocity": 117}, {"time": 313, "pitch": 79, "duration": 2, "velocity": 55}, {"time": 315, "pitch": 77, "duration": 2, "velocity": 70}, {"time": 316, "pitch": 74, "duration": 3, "velocity": 60}, {"time": 317, "pitch": 72, "duration": 33, "velocity": 68}, {"time": 346, "pitch": 72, "duration": 4, "velocity": 75}, {"time": 353, "pitch": 70, "duration": 9, "velocity": 71}, {"time": 364, "pitch": 46, "duration": 48, "velocity": 81}, {"time": 364, "pitch": 62, "duration": 9, "velocity": 83}, {"time": 364, "pitch": 65, "duration": 9, "velocity": 88}, {"time": 364, "pitch": 70, "duration": 9, "velocity": 83}, {"time": 376, "pitch": 62, "duration": 9, "velocity": 83}, {"time": 376, "pitch": 65, "duration": 9, "velocity": 86}, {"time": 376, "pitch": 70, "duration": 9, "velocity": 78}, {"time": 388, "pitch": 62, "duration": 8, "velocity": 78}, {"time": 388, "pitch": 65, "duration": 8, "velocity": 80}, {"time": 388, "pitch": 70, "duration": 8, "velocity": 72}, {"time": 400, "pitch": 62, "duration": 9, "velocity": 78}, {"time": 400, "pitch": 65, "duration": 10, "velocity": 80}, {"time": 400, "pitch": 70, "duration": 7, "velocity": 71}, {"time": 412, "pitch": 43, "duration": 48, "velocity": 83}, {"time": 412, "pitch": 62, "duration": 9, "velocity": 84}, {"time": 412, "pitch": 67, "duration": 9, "velocity": 86}, {"time": 412, "pitch": 70, "duration": 8, "velocity": 85}, {"time": 424, "pitch": 62, "duration": 8, "velocity": 81}, {"time": 424, "pitch": 67, "duration": 8, "velocity": 86}, {"time": 424, "pitch": 70, "duration": 7, "velocity": 80}, {"time": 436, "pitch": 62, "duration": 8, "velocity": 81}, {"time": 436, "pitch": 67, "duration": 8, "velocity": 85}, {"time": 436, "pitch": 70, "duration": 8, "velocity": 75}, {"time": 448, "pitch": 62, "duration": 6, "velocity": 86}, {"time": 448, "pitch": 67, "duration": 5, "velocity": 82}, {"time": 460, "pitch": 48, "duration": 48, "velocity": 81}, {"time": 460, "pitch": 60, "duration": 10, "velocity": 82}, {"time": 460, "pitch": 63, "duration": 10, "velocity": 87}, {"time": 460, "pitch": 67, "duration": 9, "velocity": 86}, {"time": 472, "pitch": 60, "duration": 9, "velocity": 78}, {"time": 472, "pitch": 63, "duration": 9, "velocity": 85}, {"time": 472, "pitch": 67, "duration": 8, "velocity": 81}, {"time": 484, "pitch": 60, "duration": 8, "velocity": 81}, {"time": 484, "pitch": 63, "duration": 9, "velocity": 85}, {"time": 484, "pitch": 67, "duration": 8, "velocity": 84}, {"time": 496, "pitch": 60, "duration": 10, "velocity": 80}, {"time": 496, "pitch": 63, "duration": 11, "velocity": 85}, {"time": 496, "pitch": 67, "duration": 10, "velocity": 81}, {"time": 508, "pitch": 41, "duration": 40, "velocity": 84}, {"time": 508, "pitch": 60, "duration": 9, "velocity": 84}, {"time": 508, "pitch": 65, "duration": 9, "velocity": 86}, {"time": 508, "pitch": 69, "duration": 8, "velocity": 89}, {"time": 520, "pitch": 60, "duration": 9, "velocity": 81}, {"time": 520, "pitch": 65, "duration": 9, "velocity": 84}, {"time": 520, "pitch": 69, "duration": 7, "velocity": 83}, {"time": 532, "pitch": 60, "duration": 8, "velocity": 82}, {"time": 532, "pitch": 65, "duration": 8, "velocity": 85}, {"time": 532, "pitch": 69, "duration": 7, "velocity": 88}, {"time": 544, "pitch": 60, "duration": 4, "velocity": 80}, {"time": 544, "pitch": 65, "duration": 5, "velocity": 87}, {"time": 544, "pitch": 69, "duration": 4, "velocity": 87}, {"time": 556, "pitch": 43, "duration": 42, "velocity": 84}, {"time": 556, "pitch": 62, "duration": 9, "velocity": 87}, {"time": 556, "pitch": 67, "duration": 8, "velocity": 86}, {"time": 556, "pitch": 70, "duration": 8, "velocity": 82}, {"time": 568, "pitch": 62, "duration": 8, "velocity": 83}, {"time": 568, "pitch": 67, "duration": 8, "velocity": 86}, {"time": 568, "pitch": 70, "duration": 8, "velocity": 81}, {"time": 580, "pitch": 62, "duration": 8, "velocity": 85}, {"time": 580, "pitch": 67, "duration": 8, "velocity": 88}, {"time": 580, "pitch": 70, "duration": 8, "velocity": 81}, {"time": 592, "pitch": 62, "duration": 7, "velocity": 84}, {"time": 592, "pitch": 67, "duration": 7, "velocity": 88}, {"time": 592, "pitch": 70, "duration": 6, "velocity": 80}, {"time": 604, "pitch": 48, "duration": 15, "velocity": 84}, {"time": 604, "pitch": 60, "duration": 9, "velocity": 86}, {"time": 604, "pitch": 63, "duration": 9, "velocity": 86}, {"time": 604, "pitch": 67, "duration": 9, "velocity": 88}, {"time": 616, "pitch": 60, "duration": 7, "velocity": 86}, {"time": 616, "pitch": 63, "duration": 9, "velocity": 85}, {"time": 616, "pitch": 67, "duration": 9, "velocity": 85}, {"time": 628, "pitch": 39, "duration": 15, "velocity": 81}, {"time": 628, "pitch": 51, "duration": 14, "velocity": 80}, {"time": 628, "pitch": 58, "duration": 10, "velocity": 84}, {"time": 628, "pitch": 63, "duration": 9, "velocity": 84}, {"time": 628, "pitch": 67, "duration": 9, "velocity": 87}, {"time": 640, "pitch": 58, "duration": 5, "velocity": 87}, {"time": 640, "pitch": 63, "duration": 8, "velocity": 83}, {"time": 640, "pitch": 67, "duration": 7, "velocity": 89}, {"time": 652, "pitch": 36, "duration": 14, "velocity": 83}, {"time": 652, "pitch": 48, "duration": 15, "velocity": 82}, {"time": 652, "pitch": 60, "duration": 9, "velocity": 87}, {"time": 652, "pitch": 63, "duration": 9, "velocity": 86}, {"time": 652, "pitch": 67, "duration": 8, "velocity": 88}, {"time": 664, "pitch": 60, "duration": 10, "velocity": 87}, {"time": 664, "pitch": 63, "duration": 9, "velocity": 86}, {"time": 664, "pitch": 67, "duration": 7, "velocity": 89}, {"time": 676, "pitch": 41, "duration": 14, "velocity": 79}, {"time": 676, "pitch": 53, "duration": 15, "velocity": 84}, {"time": 676, "pitch": 57, "duration": 9, "velocity": 86}, {"time": 676, "pitch": 60, "duration": 10, "velocity": 84}, {"time": 676, "pitch": 65, "duration": 9, "velocity": 91}, {"time": 688, "pitch": 57, "duration": 9, "velocity": 84}, {"time": 688, "pitch": 60, "duration": 11, "velocity": 86}, {"time": 688, "pitch": 65, "duration": 9, "velocity": 88}, {"time": 700, "pitch": 46, "duration": 30, "velocity": 82}, {"time": 700, "pitch": 62, "duration": 9, "velocity": 88}, {"time": 700, "pitch": 65, "duration": 9, "velocity": 87}, {"time": 712, "pitch": 62, "duration": 10, "velocity": 84}, {"time": 712, "pitch": 65, "duration": 10, "velocity": 84}, {"time": 724, "pitch": 62, "duration": 9, "velocity": 86}, {"time": 724, "pitch": 65, "duration": 9, "velocity": 84}, {"time": 748, "pitch": 46, "duration": 48, "velocity": 81}, {"time": 748, "pitch": 62, "duration": 9, "velocity": 83}, {"time": 748, "pitch": 65, "duration": 9, "velocity": 88}, {"time": 748, "pitch": 70, "duration": 9, "velocity": 83}, {"time": 760, "pitch": 62, "duration": 9, "velocity": 83}, {"time": 760, "pitch": 65, "duration": 9, "velocity": 86}, {"time": 760, "pitch": 70, "duration": 9, "velocity": 78}, {"time": 772, "pitch": 62, "duration": 8, "velocity": 78}, {"time": 772, "pitch": 65, "duration": 8, "velocity": 80}, {"time": 772, "pitch": 70, "duration": 8, "velocity": 72}, {"time": 784, "pitch": 62, "duration": 9, "velocity": 78}, {"time": 784, "pitch": 65, "duration": 10, "velocity": 80}, {"time": 784, "pitch": 70, "duration": 7, "velocity": 71}, {"time": 796, "pitch": 43, "duration": 48, "velocity": 83}, {"time": 796, "pitch": 62, "duration": 9, "velocity": 84}, {"time": 796, "pitch": 67, "duration": 9, "velocity": 86}, {"time": 796, "pitch": 70, "duration": 8, "velocity": 85}, {"time": 808, "pitch": 62, "duration": 8, "velocity": 81}, {"time": 808, "pitch": 67, "duration": 8, "velocity": 86}, {"time": 808, "pitch": 70, "duration": 7, "velocity": 80}, {"time": 820, "pitch": 62, "duration": 8, "velocity": 81}, {"time": 820, "pitch": 67, "duration": 8, "velocity": 85}, {"time": 820, "pitch": 70, "duration": 8, "velocity": 75}, {"time": 832, "pitch": 62, "duration": 6, "velocity": 86}, {"time": 832, "pitch": 67, "duration": 5, "velocity": 82}, {"time": 844, "pitch": 48, "duration": 48, "velocity": 81}, {"time": 844, "pitch": 60, "duration": 10, "velocity": 82}, {"time": 844, "pitch": 63, "duration": 10, "velocity": 87}, {"time": 844, "pitch": 67, "duration": 9, "velocity": 86}, {"time": 856, "pitch": 60, "duration": 9, "velocity": 78}, {"time": 856, "pitch": 63, "duration": 9, "velocity": 85}, {"time": 856, "pitch": 67, "duration": 8, "velocity": 81}, {"time": 868, "pitch": 60, "duration": 8, "velocity": 81}, {"time": 868, "pitch": 63, "duration": 9, "velocity": 85}, {"time": 868, "pitch": 67, "duration": 8, "velocity": 84}, {"time": 880, "pitch": 60, "duration": 10, "velocity": 80}, {"time": 880, "pitch": 63, "duration": 11, "velocity": 85}, {"time": 880, "pitch": 67, "duration": 10, "velocity": 81}, {"time": 892, "pitch": 41, "duration": 40, "velocity": 84}, {"time": 892, "pitch": 60, "duration": 9, "velocity": 84}, {"time": 892, "pitch": 65, "duration": 9, "velocity": 86}, {"time": 892, "pitch": 69, "duration": 8, "velocity": 89}, {"time": 904, "pitch": 60, "duration": 9, "velocity": 81}, {"time": 904, "pitch": 65, "duration": 9, "velocity": 84}, {"time": 904, "pitch": 69, "duration": 7, "velocity": 83}, {"time": 916, "pitch": 60, "duration": 8, "velocity": 82}, {"time": 916, "pitch": 65, "duration": 8, "velocity": 85}, {"time": 916, "pitch": 69, "duration": 7, "velocity": 88}, {"time": 928, "pitch": 60, "duration": 4, "velocity": 80}, {"time": 928, "pitch": 65, "duration": 5, "velocity": 87}, {"time": 928, "pitch": 69, "duration": 4, "velocity": 87}, {"time": 940, "pitch": 43, "duration": 42, "velocity": 84}, {"time": 940, "pitch": 62, "duration": 9, "velocity": 87}, {"time": 940, "pitch": 67, "duration": 8, "velocity": 86}, {"time": 940, "pitch": 70, "duration": 8, "velocity": 82}, {"time": 952, "pitch": 62, "duration": 8, "velocity": 83}, {"time": 952, "pitch": 67, "duration": 8, "velocity": 86}, {"time": 952, "pitch": 70, "duration": 8, "velocity": 81}, {"time": 964, "pitch": 62, "duration": 8, "velocity": 85}, {"time": 964, "pitch": 67, "duration": 8, "velocity": 88}, {"time": 964, "pitch": 70, "duration": 8, "velocity": 81}, {"time": 976, "pitch": 62, "duration": 7, "velocity": 84}, {"time": 976, "pitch": 67, "duration": 7, "velocity": 88}, {"time": 976, "pitch": 70, "duration": 6, "velocity": 80}, {"time": 988, "pitch": 50, "duration": 14, "velocity": 86}, {"time": 988, "pitch": 62, "duration": 9, "velocity": 87}, {"time": 988, "pitch": 65, "duration": 9, "velocity": 93}, {"time": 988, "pitch": 69, "duration": 9, "velocity": 91}, {"time": 1000, "pitch": 62, "duration": 7, "velocity": 86}, {"time": 1000, "pitch": 65, "duration": 6, "velocity": 86}, {"time": 1000, "pitch": 69, "duration": 6, "velocity": 86}, {"time": 1012, "pitch": 43, "duration": 15, "velocity": 87}, {"time": 1012, "pitch": 62, "duration": 10, "velocity": 86}, {"time": 1012, "pitch": 67, "duration": 10, "velocity": 88}, {"time": 1012, "pitch": 70, "duration": 9, "velocity": 84}, {"time": 1024, "pitch": 62, "duration": 9, "velocity": 86}, {"time": 1024, "pitch": 67, "duration": 9, "velocity": 85}, {"time": 1024, "pitch": 70, "duration": 8, "velocity": 78}, {"time": 1036, "pitch": 39, "duration": 16, "velocity": 87}, {"time": 1036, "pitch": 58, "duration": 10, "velocity": 86}, {"time": 1036, "pitch": 63, "duration": 9, "velocity": 86}, {"time": 1036, "pitch": 67, "duration": 9, "velocity": 93}, {"time": 1048, "pitch": 58, "duration": 6, "velocity": 85}, {"time": 1048, "pitch": 63, "duration": 8, "velocity": 82}, {"time": 1048, "pitch": 67, "duration": 9, "velocity": 88}, {"time": 1060, "pitch": 41, "duration": 13, "velocity": 82}, {"time": 1060, "pitch": 53, "duration": 13, "velocity": 81}, {"time": 1060, "pitch": 60, "duration": 10, "velocity": 86}, {"time": 1060, "pitch": 65, "duration": 10, "velocity": 87}, {"time": 1060, "pitch": 69, "duration": 10, "velocity": 89}, {"time": 1072, "pitch": 43, "duration": 12, "velocity": 97}, {"time": 1072, "pitch": 60, "duration": 11, "velocity": 87}, {"time": 1072, "pitch": 65, "duration": 10, "velocity": 88}, {"time": 1072, "pitch": 69, "duration": 8, "velocity": 87}, {"time": 1084, "pitch": 46, "duration": 31, "velocity": 83}, {"time": 1084, "pitch": 58, "duration": 16, "velocity": 84}, {"time": 1084, "pitch": 62, "duration": 10, "velocity": 93}, {"time": 1084, "pitch": 65, "duration": 10, "velocity": 89}, {"time": 1096, "pitch": 62, "duration": 10, "velocity": 88}, {"time": 1096, "pitch": 65, "duration": 9, "velocity": 84}, {"time": 1102, "pitch": 58, "duration": 9, "velocity": 68}, {"time": 1108, "pitch": 62, "duration": 8, "velocity": 90}, {"time": 1108, "pitch": 65, "duration": 7, "velocity": 84}, {"time": 1132, "pitch": 43, "duration": 41, "velocity": 85}, {"time": 1132, "pitch": 58, "duration": 10, "velocity": 91}, {"time": 1132, "pitch": 62, "duration": 10, "velocity": 102}, {"time": 1132, "pitch": 67, "duration": 9, "velocity": 96}, {"time": 1144, "pitch": 58, "duration": 9, "velocity": 84}, {"time": 1144, "pitch": 62, "duration": 8, "velocity": 88}, {"time": 1144, "pitch": 67, "duration": 8, "velocity": 88}, {"time": 1150, "pitch": 55, "duration": 3, "velocity": 70}, {"time": 1156, "pitch": 58, "duration": 6, "velocity": 83}, {"time": 1156, "pitch": 62, "duration": 8, "velocity": 91}, {"time": 1156, "pitch": 67, "duration": 7, "velocity": 88}, {"time": 1168, "pitch": 58, "duration": 4, "velocity": 86}, {"time": 1168, "pitch": 62, "duration": 10, "velocity": 89}, {"time": 1168, "pitch": 67, "duration": 9, "velocity": 88}, {"time": 1180, "pitch": 38, "duration": 37, "velocity": 83}, {"time": 1180, "pitch": 50, "duration": 37, "velocity": 86}, {"time": 1180, "pitch": 62, "duration": 9, "velocity": 89}, {"time": 1180, "pitch": 65, "duration": 8, "velocity": 91}, {"time": 1180, "pitch": 69, "duration": 10, "velocity": 89}, {"time": 1192, "pitch": 62, "duration": 10, "velocity": 78}, {"time": 1192, "pitch": 65, "duration": 10, "velocity": 82}, {"time": 1192, "pitch": 69, "duration": 11, "velocity": 76}, {"time": 1204, "pitch": 62, "duration": 10, "velocity": 83}, {"time": 1204, "pitch": 65, "duration": 10, "velocity": 88}, {"time": 1204, "pitch": 69, "duration": 10, "velocity": 81}, {"time": 1216, "pitch": 62, "duration": 6, "velocity": 87}, {"time": 1216, "pitch": 65, "duration": 6, "velocity": 88}, {"time": 1216, "pitch": 69, "duration": 5, "velocity": 85}, {"time": 1228, "pitch": 39, "duration": 14, "velocity": 85}, {"time": 1228, "pitch": 51, "duration": 14, "velocity": 83}, {"time": 1228, "pitch": 58, "duration": 9, "velocity": 86}, {"time": 1228, "pitch": 63, "duration": 9, "velocity": 90}, {"time": 1228, "pitch": 67, "duration": 8, "velocity": 93}, {"time": 1240, "pitch": 58, "duration": 6, "velocity": 85}, {"time": 1240, "pitch": 63, "duration": 9, "velocity": 85}, {"time": 1240, "pitch": 67, "duration": 7, "velocity": 89}, {"time": 1252, "pitch": 41, "duration": 14, "velocity": 86}, {"time": 1252, "pitch": 53, "duration": 14, "velocity": 83}, {"time": 1252, "pitch": 60, "duration": 10, "velocity": 87}, {"time": 1252, "pitch": 65, "duration": 9, "velocity": 86}, {"time": 1252, "pitch": 69, "duration": 10, "velocity": 88}, {"time": 1264, "pitch": 60, "duration": 12, "velocity": 87}, {"time": 1264, "pitch": 65, "duration": 11, "velocity": 88}, {"time": 1264, "pitch": 69, "duration": 9, "velocity": 87}, {"time": 1276, "pitch": 46, "duration": 39, "velocity": 81}, {"time": 1276, "pitch": 58, "duration": 37, "velocity": 85}, {"time": 1276, "pitch": 62, "duration": 10, "velocity": 90}, {"time": 1276, "pitch": 65, "duration": 10, "velocity": 88}, {"time": 1288, "pitch": 62, "duration": 10, "velocity": 88}, {"time": 1288, "pitch": 65, "duration": 10, "velocity": 85}, {"time": 1300, "pitch": 62, "duration": 9, "velocity": 88}, {"time": 1300, "pitch": 65, "duration": 8, "velocity": 84}, {"time": 1312, "pitch": 62, "duration": 7, "velocity": 91}, {"time": 1312, "pitch": 65, "duration": 4, "velocity": 87}, {"time": 1324, "pitch": 43, "duration": 39, "velocity": 81}, {"time": 1324, "pitch": 55, "duration": 36, "velocity": 82}, {"time": 1324, "pitch": 58, "duration": 10, "velocity": 86}, {"time": 1324, "pitch": 62, "duration": 8, "velocity": 92}, {"time": 1324, "pitch": 67, "duration": 7, "velocity": 91}, {"time": 1336, "pitch": 58, "duration": 9, "velocity": 79}, {"time": 1336, "pitch": 62, "duration": 8, "velocity": 84}, {"time": 1336, "pitch": 67, "duration": 7, "velocity": 85}, {"time": 1348, "pitch": 58, "duration": 8, "velocity": 83}, {"time": 1348, "pitch": 62, "duration": 8, "velocity": 88}, {"time": 1348, "pitch": 67, "duration": 7, "velocity": 88}, {"time": 1360, "pitch": 58, "duration": 4, "velocity": 83}, {"time": 1360, "pitch": 62, "duration": 10, "velocity": 91}, {"time": 1360, "pitch": 67, "duration": 6, "velocity": 91}, {"time": 1372, "pitch": 38, "duration": 38, "velocity": 87}, {"time": 1372, "pitch": 50, "duration": 37, "velocity": 86}, {"time": 1372, "pitch": 57, "duration": 10, "velocity": 88}, {"time": 1372, "pitch": 62, "duration": 10, "velocity": 91}, {"time": 1372, "pitch": 65, "duration": 9, "velocity": 88}, {"time": 1384, "pitch": 57, "duration": 10, "velocity": 82}, {"time": 1384, "pitch": 62, "duration": 10, "velocity": 87}, {"time": 1384, "pitch": 65, "duration": 10, "velocity": 82}, {"time": 1396, "pitch": 57, "duration": 10, "velocity": 84}, {"time": 1396, "pitch": 62, "duration": 10, "velocity": 87}, {"time": 1396, "pitch": 65, "duration": 10, "velocity": 82}, {"time": 1408, "pitch": 57, "duration": 6, "velocity": 86}, {"time": 1408, "pitch": 62, "duration": 7, "velocity": 94}, {"time": 1408, "pitch": 65, "duration": 6, "velocity": 87}, {"time": 1420, "pitch": 39, "duration": 40, "velocity": 85}, {"time": 1420, "pitch": 51, "duration": 40, "velocity": 86}, {"time": 1420, "pitch": 58, "duration": 9, "velocity": 85}, {"time": 1420, "pitch": 63, "duration": 9, "velocity": 87}, {"time": 1420, "pitch": 67, "duration": 8, "velocity": 91}, {"time": 1432, "pitch": 58, "duration": 9, "velocity": 84}, {"time": 1432, "pitch": 63, "duration": 9, "velocity": 83}, {"time": 1432, "pitch": 67, "duration": 8, "velocity": 87}, {"time": 1444, "pitch": 58, "duration": 8, "velocity": 84}, {"time": 1444, "pitch": 63, "duration": 8, "velocity": 85}, {"time": 1444, "pitch": 67, "duration": 7, "velocity": 88}, {"time": 1456, "pitch": 58, "duration": 5, "velocity": 85}, {"time": 1456, "pitch": 63, "duration": 5, "velocity": 85}, {"time": 1456, "pitch": 67, "duration": 5, "velocity": 88}, {"time": 1468, "pitch": 41, "duration": 43, "velocity": 87}, {"time": 1468, "pitch": 57, "duration": 9, "velocity": 83}, {"time": 1468, "pitch": 60, "duration": 10, "velocity": 86}, {"time": 1468, "pitch": 65, "duration": 10, "velocity": 94}, {"time": 1474, "pitch": 48, "duration": 37, "velocity": 78}, {"time": 1478, "pitch": 53, "duration": 17, "velocity": 84}, {"time": 1480, "pitch": 55, "duration": 7, "velocity": 91}, {"time": 1486, "pitch": 57, "duration": 5, "velocity": 98}, {"time": 1492, "pitch": 57, "duration": 7, "velocity": 88}, {"time": 1492, "pitch": 60, "duration": 8, "velocity": 98}, {"time": 1492, "pitch": 65, "duration": 8, "velocity": 89}, {"time": 1498, "pitch": 53, "duration": 11, "velocity": 90}, {"time": 1504, "pitch": 57, "duration": 7, "velocity": 90}, {"time": 1504, "pitch": 60, "duration": 7, "velocity": 100}, {"time": 1504, "pitch": 65, "duration": 7, "velocity": 92}, {"time": 1516, "pitch": 43, "duration": 38, "velocity": 89}, {"time": 1516, "pitch": 58, "duration": 10, "velocity": 86}, {"time": 1516, "pitch": 62, "duration": 9, "velocity": 98}, {"time": 1516, "pitch": 67, "duration": 8, "velocity": 98}, {"time": 1528, "pitch": 58, "duration": 8, "velocity": 86}, {"time": 1528, "pitch": 62, "duration": 7, "velocity": 108}, {"time": 1528, "pitch": 67, "duration": 5, "velocity": 87}, {"time": 1540, "pitch": 58, "duration": 8, "velocity": 86}, {"time": 1540, "pitch": 62, "duration": 7, "velocity": 94}, {"time": 1540, "pitch": 67, "duration": 6, "velocity": 91}, {"time": 1546, "pitch": 55, "duration": 7, "velocity": 84}, {"time": 1552, "pitch": 58, "duration": 6, "velocity": 91}, {"time": 1552, "pitch": 62, "duration": 10, "velocity": 96}, {"time": 1552, "pitch": 67, "duration": 10, "velocity": 98}, {"time": 1558, "pitch": 43, "duration": 3, "velocity": 85}, {"time": 1564, "pitch": 38, "duration": 37, "velocity": 90}, {"time": 1564, "pitch": 50, "duration": 15, "velocity": 86}, {"time": 1564, "pitch": 57, "duration": 6, "velocity": 93}, {"time": 1564, "pitch": 62, "duration": 7, "velocity": 89}, {"time": 1564, "pitch": 65, "duration": 7, "velocity": 83}, {"time": 1576, "pitch": 57, "duration": 9, "velocity": 87}, {"time": 1576, "pitch": 62, "duration": 9, "velocity": 91}, {"time": 1576, "pitch": 65, "duration": 9, "velocity": 88}, {"time": 1588, "pitch": 57, "duration": 8, "velocity": 88}, {"time": 1588, "pitch": 62, "duration": 7, "velocity": 94}, {"time": 1588, "pitch": 65, "duration": 8, "velocity": 88}, {"time": 1594, "pitch": 50, "duration": 7, "velocity": 87}, {"time": 1600, "pitch": 57, "duration": 4, "velocity": 104}, {"time": 1600, "pitch": 62, "duration": 7, "velocity": 113}, {"time": 1600, "pitch": 65, "duration": 7, "velocity": 104}, {"time": 1606, "pitch": 38, "duration": 2, "velocity": 93}, {"time": 1612, "pitch": 39, "duration": 14, "velocity": 91}, {"time": 1612, "pitch": 58, "duration": 10, "velocity": 86}, {"time": 1612, "pitch": 63, "duration": 7, "velocity": 90}, {"time": 1612, "pitch": 67, "duration": 7, "velocity": 92}, {"time": 1618, "pitch": 51, "duration": 8, "velocity": 80}, {"time": 1624, "pitch": 58, "duration": 6, "velocity": 89}, {"time": 1624, "pitch": 63, "duration": 7, "velocity": 87}, {"time": 1624, "pitch": 67, "duration": 6, "velocity": 100}, {"time": 1630, "pitch": 51, "duration": 2, "velocity": 97}, {"time": 1636, "pitch": 41, "duration": 18, "velocity": 87}, {"time": 1636, "pitch": 57, "duration": 8, "velocity": 89}, {"time": 1636, "pitch": 60, "duration": 8, "velocity": 98}, {"time": 1636, "pitch": 65, "duration": 7, "velocity": 94}, {"time": 1642, "pitch": 53, "duration": 7, "velocity": 88}, {"time": 1648, "pitch": 57, "duration": 4, "velocity": 100}, {"time": 1648, "pitch": 60, "duration": 8, "velocity": 94}, {"time": 1648, "pitch": 65, "duration": 7, "velocity": 96}, {"time": 1654, "pitch": 53, "duration": 3, "velocity": 90}, {"time": 1660, "pitch": 46, "duration": 39, "velocity": 86}, {"time": 1660, "pitch": 62, "duration": 7, "velocity": 94}, {"time": 1660, "pitch": 65, "duration": 7, "velocity": 93}, {"time": 1666, "pitch": 53, "duration": 31, "velocity": 73}, {"time": 1672, "pitch": 62, "duration": 7, "velocity": 87}, {"time": 1672, "pitch": 65, "duration": 7, "velocity": 88}, {"time": 1672, "pitch": 70, "duration": 5, "velocity": 86}, {"time": 1678, "pitch": 58, "duration": 8, "velocity": 82}, {"time": 1684, "pitch": 62, "duration": 8, "velocity": 88}, {"time": 1684, "pitch": 65, "duration": 8, "velocity": 91}, {"time": 1684, "pitch": 70, "duration": 8, "velocity": 91}, {"time": 1690, "pitch": 58, "duration": 7, "velocity": 81}, {"time": 1696, "pitch": 62, "duration": 6, "velocity": 91}, {"time": 1696, "pitch": 65, "duration": 5, "velocity": 98}, {"time": 1696, "pitch": 70, "duration": 4, "velocity": 87}, {"time": 1708, "pitch": 43, "duration": 38, "velocity": 85}, {"time": 1708, "pitch": 58, "duration": 10, "velocity": 84}, {"time": 1708, "pitch": 62, "duration": 7, "velocity": 93}, {"time": 1708, "pitch": 67, "duration": 6, "velocity": 93}, {"time": 1720, "pitch": 58, "duration": 7, "velocity": 87}, {"time": 1720, "pitch": 62, "duration": 7, "velocity": 91}, {"time": 1720, "pitch": 67, "duration": 6, "velocity": 90}, {"time": 1726, "pitch": 55, "duration": 8, "velocity": 81}, {"time": 1732, "pitch": 58, "duration": 8, "velocity": 87}, {"time": 1732, "pitch": 62, "duration": 7, "velocity": 93}, {"time": 1732, "pitch": 67, "duration": 7, "velocity": 88}, {"time": 1738, "pitch": 55, "duration": 7, "velocity": 80}, {"time": 1744, "pitch": 58, "duration": 6, "velocity": 95}, {"time": 1744, "pitch": 62, "duration": 6, "velocity": 102}, {"time": 1744, "pitch": 67, "duration": 6, "velocity": 96}, {"time": 1750, "pitch": 43, "duration": 2, "velocity": 87}, {"time": 1756, "pitch": 38, "duration": 39, "velocity": 86}, {"time": 1756, "pitch": 57, "duration": 9, "velocity": 87}, {"time": 1756, "pitch": 62, "duration": 9, "velocity": 92}, {"time": 1756, "pitch": 65, "duration": 5, "velocity": 85}, {"time": 1762, "pitch": 50, "duration": 7, "velocity": 83}, {"time": 1768, "pitch": 57, "duration": 8, "velocity": 85}, {"time": 1768, "pitch": 62, "duration": 8, "velocity": 89}, {"time": 1768, "pitch": 65, "duration": 8, "velocity": 88}, {"time": 1774, "pitch": 50, "duration": 8, "velocity": 74}, {"time": 1780, "pitch": 57, "duration": 8, "velocity": 86}, {"time": 1780, "pitch": 62, "duration": 8, "velocity": 89}, {"time": 1780, "pitch": 65, "duration": 8, "velocity": 89}, {"time": 1786, "pitch": 50, "duration": 9, "velocity": 83}, {"time": 1792, "pitch": 57, "duration": 5, "velocity": 89}, {"time": 1792, "pitch": 62, "duration": 5, "velocity": 88}, {"time": 1792, "pitch": 65, "duration": 6, "velocity": 86}, {"time": 1804, "pitch": 39, "duration": 64, "velocity": 97}, {"time": 1810, "pitch": 51, "duration": 59, "velocity": 81}, {"time": 1816, "pitch": 58, "duration": 10, "velocity": 86}, {"time": 1816, "pitch": 63, "duration": 9, "velocity": 86}, {"time": 1816, "pitch": 67, "duration": 10, "velocity": 89}, {"time": 1828, "pitch": 58, "duration": 10, "velocity": 84}, {"time": 1828, "pitch": 63, "duration": 9, "velocity": 86}, {"time": 1828, "pitch": 67, "duration": 9, "velocity": 89}, {"time": 1840, "pitch": 58, "duration": 10, "velocity": 85}, {"time": 1840, "pitch": 63, "duration": 10, "velocity": 83}, {"time": 1840, "pitch": 67, "duration": 9, "velocity": 88}, {"time": 1852, "pitch": 58, "duration": 17, "velocity": 88}, {"time": 1852, "pitch": 63, "duration": 17, "velocity": 89}, {"time": 1852, "pitch": 67, "duration": 16, "velocity": 96}, {"time": 1876, "pitch": 41, "duration": 15, "velocity": 81}, {"time": 1876, "pitch": 53, "duration": 17, "velocity": 86}, {"time": 1876, "pitch": 57, "duration": 17, "velocity": 89}, {"time": 1876, "pitch": 60, "duration": 17, "velocity": 94}, {"time": 1876, "pitch": 65, "duration": 17, "velocity": 93}, {"time": 1900, "pitch": 46, "duration": 43, "velocity": 85}, {"time": 1900, "pitch": 58, "duration": 9, "velocity": 82}, {"time": 1900, "pitch": 62, "duration": 9, "velocity": 89}, {"time": 1900, "pitch": 65, "duration": 9, "velocity": 87}, {"time": 1912, "pitch": 58, "duration": 9, "velocity": 78}, {"time": 1912, "pitch": 62, "duration": 8, "velocity": 86}, {"time": 1912, "pitch": 65, "duration": 8, "velocity": 81}, {"time": 1924, "pitch": 58, "duration": 9, "velocity": 77}, {"time": 1924, "pitch": 62, "duration": 8, "velocity": 84}, {"time": 1924, "pitch": 65, "duration": 8, "velocity": 82}, {"time": 1936, "pitch": 58, "duration": 8, "velocity": 79}, {"time": 1936, "pitch": 62, "duration": 8, "velocity": 81}, {"time": 1936, "pitch": 65, "duration": 7, "velocity": 81}, {"time": 1948, "pitch": 37, "duration": 17, "velocity": 89}, {"time": 1948, "pitch": 49, "duration": 16, "velocity": 88}, {"time": 1948, "pitch": 56, "duration": 9, "velocity": 91}, {"time": 1948, "pitch": 61, "duration": 9, "velocity": 102}, {"time": 1948, "pitch": 65, "duration": 8, "velocity": 92}, {"time": 1960, "pitch": 56, "duration": 6, "velocity": 90}, {"time": 1960, "pitch": 61, "duration": 5, "velocity": 93}, {"time": 1960, "pitch": 65, "duration": 5, "velocity": 90}, {"time": 1972, "pitch": 36, "duration": 15, "velocity": 89}, {"time": 1972, "pitch": 48, "duration": 14, "velocity": 87}, {"time": 1972, "pitch": 55, "duration": 9, "velocity": 91}, {"time": 1972, "pitch": 60, "duration": 9, "velocity": 107}, {"time": 1972, "pitch": 63, "duration": 8, "velocity": 93}, {"time": 1984, "pitch": 55, "duration": 6, "velocity": 88}, {"time": 1984, "pitch": 60, "duration": 6, "velocity": 88}, {"time": 1984, "pitch": 63, "duration": 6, "velocity": 88}, {"time": 1996, "pitch": 34, "duration": 38, "velocity": 90}, {"time": 1996, "pitch": 46, "duration": 15, "velocity": 88}, {"time": 1996, "pitch": 53, "duration": 10, "velocity": 90}, {"time": 1996, "pitch": 58, "duration": 10, "velocity": 104}, {"time": 1996, "pitch": 61, "duration": 8, "velocity": 92}, {"time": 2008, "pitch": 53, "duration": 11, "velocity": 88}, {"time": 2008, "pitch": 58, "duration": 11, "velocity": 91}, {"time": 2008, "pitch": 61, "duration": 10, "velocity": 88}, {"time": 2014, "pitch": 46, "duration": 7, "velocity": 73}, {"time": 2020, "pitch": 53, "duration": 9, "velocity": 88}, {"time": 2020, "pitch": 58, "duration": 9, "velocity": 93}, {"time": 2020, "pitch": 61, "duration": 8, "velocity": 88}, {"time": 2026, "pitch": 46, "duration": 7, "velocity": 86}, {"time": 2032, "pitch": 53, "duration": 5, "velocity": 102}, {"time": 2032, "pitch": 58, "duration": 6, "velocity": 113}, {"time": 2032, "pitch": 61, "duration": 6, "velocity": 96}, {"time": 2038, "pitch": 34, "duration": 2, "velocity": 94}, {"time": 2044, "pitch": 37, "duration": 15, "velocity": 88}, {"time": 2044, "pitch": 56, "duration": 9, "velocity": 93}, {"time": 2044, "pitch": 61, "duration": 9, "velocity": 113}, {"time": 2044, "pitch": 65, "duration": 9, "velocity": 102}, {"time": 2056, "pitch": 56, "duration": 7, "velocity": 96}, {"time": 2056, "pitch": 61, "duration": 6, "velocity": 104}, {"time": 2056, "pitch": 65, "duration": 6, "velocity": 94}, {"time": 2060, "pitch": 37, "duration": 4, "velocity": 88}, {"time": 2068, "pitch": 36, "duration": 14, "velocity": 91}, {"time": 2068, "pitch": 48, "duration": 14, "velocity": 88}, {"time": 2068, "pitch": 55, "duration": 9, "velocity": 104}, {"time": 2068, "pitch": 60, "duration": 9, "velocity": 108}, {"time": 2068, "pitch": 63, "duration": 8, "velocity": 96}, {"time": 2080, "pitch": 55, "duration": 7, "velocity": 98}, {"time": 2080, "pitch": 60, "duration": 7, "velocity": 107}, {"time": 2080, "pitch": 63, "duration": 6, "velocity": 89}, {"time": 2086, "pitch": 36, "duration": 2, "velocity": 84}, {"time": 2086, "pitch": 48, "duration": 2, "velocity": 88}, {"time": 2092, "pitch": 34, "duration": 46, "velocity": 92}, {"time": 2092, "pitch": 46, "duration": 46, "velocity": 89}, {"time": 2092, "pitch": 53, "duration": 10, "velocity": 91}, {"time": 2092, "pitch": 58, "duration": 10, "velocity": 108}, {"time": 2092, "pitch": 61, "duration": 8, "velocity": 94}, {"time": 2104, "pitch": 53, "duration": 10, "velocity": 88}, {"time": 2104, "pitch": 58, "duration": 10, "velocity": 93}, {"time": 2104, "pitch": 61, "duration": 9, "velocity": 90}, {"time": 2116, "pitch": 53, "duration": 11, "velocity": 88}, {"time": 2116, "pitch": 58, "duration": 10, "velocity": 98}, {"time": 2116, "pitch": 61, "duration": 9, "velocity": 91}, {"time": 2128, "pitch": 53, "duration": 9, "velocity": 88}, {"time": 2128, "pitch": 58, "duration": 9, "velocity": 104}, {"time": 2128, "pitch": 61, "duration": 9, "velocity": 96}, {"time": 2140, "pitch": 37, "duration": 16, "velocity": 104}, {"time": 2140, "pitch": 49, "duration": 16, "velocity": 98}, {"time": 2140, "pitch": 56, "duration": 10, "velocity": 102}, {"time": 2140, "pitch": 61, "duration": 10, "velocity": 114}, {"time": 2140, "pitch": 65, "duration": 10, "velocity": 104}, {"time": 2152, "pitch": 56, "duration": 10, "velocity": 93}, {"time": 2152, "pitch": 61, "duration": 11, "velocity": 107}, {"time": 2152, "pitch": 65, "duration": 10, "velocity": 98}, {"time": 2164, "pitch": 38, "duration": 14, "velocity": 93}, {"time": 2164, "pitch": 50, "duration": 15, "velocity": 95}, {"time": 2164, "pitch": 58, "duration": 11, "velocity": 100}, {"time": 2164, "pitch": 62, "duration": 11, "velocity": 116}, {"time": 2164, "pitch": 65, "duration": 10, "velocity": 107}, {"time": 2176, "pitch": 58, "duration": 10, "velocity": 94}, {"time": 2176, "pitch": 62, "duration": 6, "velocity": 106}, {"time": 2176, "pitch": 65, "duration": 9, "velocity": 98}, {"time": 2188, "pitch": 39, "duration": 20, "velocity": 91}, {"time": 2188, "pitch": 51, "duration": 19, "velocity": 88}, {"time": 2188, "pitch": 58, "duration": 10, "velocity": 100}, {"time": 2188, "pitch": 63, "duration": 10, "velocity": 114}, {"time": 2188, "pitch": 67, "duration": 9, "velocity": 100}, {"time": 2200, "pitch": 58, "duration": 9, "velocity": 90}, {"time": 2200, "pitch": 63, "duration": 9, "velocity": 98}, {"time": 2200, "pitch": 67, "duration": 9, "velocity": 91}, {"time": 2212, "pitch": 40, "duration": 16, "velocity": 86}, {"time": 2212, "pitch": 52, "duration": 16, "velocity": 93}, {"time": 2212, "pitch": 60, "duration": 19, "velocity": 107}, {"time": 2212, "pitch": 64, "duration": 18, "velocity": 116}, {"time": 2212, "pitch": 67, "duration": 17, "velocity": 113}, {"time": 2236, "pitch": 41, "duration": 78, "velocity": 102}, {"time": 2236, "pitch": 53, "duration": 77, "velocity": 93}, {"time": 2236, "pitch": 57, "duration": 76, "velocity": 100}, {"time": 2236, "pitch": 60, "duration": 76, "velocity": 114}, {"time": 2236, "pitch": 65, "duration": 77, "velocity": 116}, {"time": 2330, "pitch": 46, "duration": 45, "velocity": 94}, {"time": 2330, "pitch": 62, "duration": 25, "velocity": 97}, {"time": 2330, "pitch": 65, "duration": 27, "velocity": 107}, {"time": 2330, "pitch": 70, "duration": 27, "velocity": 102}, {"time": 2380, "pitch": 46, "duration": 39, "velocity": 84}, {"time": 2380, "pitch": 62, "duration": 16, "velocity": 91}, {"time": 2380, "pitch": 70, "duration": 12, "velocity": 86}, {"time": 2386, "pitch": 53, "duration": 31, "velocity": 64}, {"time": 2392, "pitch": 58, "duration": 11, "velocity": 77}, {"time": 2398, "pitch": 62, "duration": 15, "velocity": 102}, {"time": 2398, "pitch": 70, "duration": 14, "velocity": 116}, {"time": 2410, "pitch": 58, "duration": 6, "velocity": 80}, {"time": 2416, "pitch": 62, "duration": 11, "velocity": 110}, {"time": 2416, "pitch": 70, "duration": 12, "velocity": 109}, {"time": 2420, "pitch": 45, "duration": 6, "velocity": 80}, {"time": 2428, "pitch": 43, "duration": 43, "velocity": 88}, {"time": 2428, "pitch": 62, "duration": 13, "velocity": 93}, {"time": 2428, "pitch": 67, "duration": 4, "velocity": 100}, {"time": 2434, "pitch": 50, "duration": 38, "velocity": 68}, {"time": 2440, "pitch": 55, "duration": 14, "velocity": 83}, {"time": 2446, "pitch": 58, "duration": 14, "velocity": 103}, {"time": 2446, "pitch": 67, "duration": 13, "velocity": 102}, {"time": 2458, "pitch": 55, "duration": 7, "velocity": 88}, {"time": 2464, "pitch": 62, "duration": 12, "velocity": 96}, {"time": 2464, "pitch": 67, "duration": 11, "velocity": 108}, {"time": 2470, "pitch": 55, "duration": 7, "velocity": 86}, {"time": 2476, "pitch": 48, "duration": 42, "velocity": 85}, {"time": 2476, "pitch": 60, "duration": 5, "velocity": 88}, {"time": 2476, "pitch": 63, "duration": 7, "velocity": 90}, {"time": 2476, "pitch": 67, "duration": 7, "velocity": 91}, {"time": 2482, "pitch": 55, "duration": 35, "velocity": 74}, {"time": 2488, "pitch": 60, "duration": 20, "velocity": 74}, {"time": 2494, "pitch": 67, "duration": 10, "velocity": 96}, {"time": 2494, "pitch": 75, "duration": 10, "velocity": 109}, {"time": 2506, "pitch": 67, "duration": 14, "velocity": 87}, {"time": 2506, "pitch": 74, "duration": 12, "velocity": 89}, {"time": 2512, "pitch": 60, "duration": 4, "velocity": 84}, {"time": 2518, "pitch": 72, "duration": 13, "velocity": 94}, {"time": 2524, "pitch": 41, "duration": 43, "velocity": 85}, {"time": 2524, "pitch": 65, "duration": 7, "velocity": 86}, {"time": 2524, "pitch": 69, "duration": 6, "velocity": 90}, {"time": 2530, "pitch": 48, "duration": 42, "velocity": 74}, {"time": 2536, "pitch": 53, "duration": 12, "velocity": 79}, {"time": 2542, "pitch": 57, "duration": 6, "velocity": 84}, {"time": 2542, "pitch": 60, "duration": 9, "velocity": 89}, {"time": 2542, "pitch": 65, "duration": 5, "velocity": 91}, {"time": 2548, "pitch": 65, "duration": 6, "velocity": 89}, {"time": 2554, "pitch": 53, "duration": 7, "velocity": 88}, {"time": 2560, "pitch": 65, "duration": 7, "velocity": 108}, {"time": 2560, "pitch": 74, "duration": 10, "velocity": 96}, {"time": 2566, "pitch": 53, "duration": 5, "velocity": 85}, {"time": 2572, "pitch": 43, "duration": 44, "velocity": 86}, {"time": 2572, "pitch": 67, "duration": 7, "velocity": 90}, {"time": 2572, "pitch": 70, "duration": 7, "velocity": 100}, {"time": 2572, "pitch": 74, "duration": 6, "velocity": 93}, {"time": 2578, "pitch": 50, "duration": 38, "velocity": 81}, {"time": 2584, "pitch": 55, "duration": 13, "velocity": 81}, {"time": 2590, "pitch": 58, "duration": 5, "velocity": 88}, {"time": 2590, "pitch": 62, "duration": 1, "velocity": 87}, {"time": 2590, "pitch": 67, "duration": 5, "velocity": 98}, {"time": 2596, "pitch": 58, "duration": 6, "velocity": 73}, {"time": 2596, "pitch": 67, "duration": 6, "velocity": 80}, {"time": 2600, "pitch": 62, "duration": 4, "velocity": 36}, {"time": 2602, "pitch": 55, "duration": 7, "velocity": 91}, {"time": 2608, "pitch": 58, "duration": 7, "velocity": 103}, {"time": 2608, "pitch": 62, "duration": 12, "velocity": 102}, {"time": 2608, "pitch": 67, "duration": 10, "velocity": 108}, {"time": 2614, "pitch": 55, "duration": 2, "velocity": 88}, {"time": 2620, "pitch": 50, "duration": 18, "velocity": 92}, {"time": 2620, "pitch": 62, "duration": 7, "velocity": 108}, {"time": 2620, "pitch": 69, "duration": 11, "velocity": 113}, {"time": 2626, "pitch": 57, "duration": 11, "velocity": 78}, {"time": 2632, "pitch": 62, "duration": 5, "velocity": 89}, {"time": 2638, "pitch": 65, "duration": 5, "velocity": 104}, {"time": 2638, "pitch": 74, "duration": 10, "velocity": 100}, {"time": 2644, "pitch": 43, "duration": 19, "velocity": 84}, {"time": 2644, "pitch": 67, "duration": 6, "velocity": 96}, {"time": 2644, "pitch": 70, "duration": 6, "velocity": 97}, {"time": 2650, "pitch": 50, "duration": 13, "velocity": 82}, {"time": 2656, "pitch": 55, "duration": 8, "velocity": 84}, {"time": 2662, "pitch": 58, "duration": 5, "velocity": 91}, {"time": 2662, "pitch": 62, "duration": 7, "velocity": 88}, {"time": 2662, "pitch": 67, "duration": 7, "velocity": 94}, {"time": 2668, "pitch": 51, "duration": 18, "velocity": 106}, {"time": 2674, "pitch": 58, "duration": 10, "velocity": 54}, {"time": 2680, "pitch": 63, "duration": 4, "velocity": 87}, {"time": 2686, "pitch": 67, "duration": 11, "velocity": 98}, {"time": 2686, "pitch": 70, "duration": 10, "velocity": 116}, {"time": 2692, "pitch": 41, "duration": 18, "velocity": 88}, {"time": 2698, "pitch": 48, "duration": 13, "velocity": 84}, {"time": 2702, "pitch": 53, "duration": 10, "velocity": 88}, {"time": 2704, "pitch": 57, "duration": 8, "velocity": 108}, {"time": 2704, "pitch": 65, "duration": 13, "velocity": 102}, {"time": 2710, "pitch": 60, "duration": 7, "velocity": 89}, {"time": 2716, "pitch": 46, "duration": 42, "velocity": 97}, {"time": 2722, "pitch": 53, "duration": 35, "velocity": 83}, {"time": 2728, "pitch": 62, "duration": 12, "velocity": 110}, {"time": 2728, "pitch": 70, "duration": 11, "velocity": 116}, {"time": 2734, "pitch": 58, "duration": 7, "velocity": 89}, {"time": 2740, "pitch": 62, "duration": 10, "velocity": 90}, {"time": 2740, "pitch": 65, "duration": 10, "velocity": 113}, {"time": 2740, "pitch": 70, "duration": 10, "velocity": 100}, {"time": 2750, "pitch": 58, "duration": 9, "velocity": 100}, {"time": 2752, "pitch": 62, "duration": 6, "velocity": 113}, {"time": 2752, "pitch": 70, "duration": 6, "velocity": 116}, {"time": 2764, "pitch": 43, "duration": 38, "velocity": 91}, {"time": 2764, "pitch": 62, "duration": 11, "velocity": 107}, {"time": 2764, "pitch": 70, "duration": 6, "velocity": 116}, {"time": 2770, "pitch": 50, "duration": 32, "velocity": 79}, {"time": 2776, "pitch": 55, "duration": 11, "velocity": 81}, {"time": 2782, "pitch": 58, "duration": 12, "velocity": 106}, {"time": 2782, "pitch": 62, "duration": 13, "velocity": 113}, {"time": 2782, "pitch": 67, "duration": 12, "velocity": 107}, {"time": 2794, "pitch": 55, "duration": 8, "velocity": 96}, {"time": 2800, "pitch": 58, "duration": 7, "velocity": 113}, {"time": 2800, "pitch": 62, "duration": 12, "velocity": 110}, {"time": 2800, "pitch": 67, "duration": 14, "velocity": 114}, {"time": 2806, "pitch": 43, "duration": 2, "velocity": 92}, {"time": 2812, "pitch": 50, "duration": 38, "velocity": 110}, {"time": 2818, "pitch": 57, "duration": 32, "velocity": 82}, {"time": 2824, "pitch": 62, "duration": 8, "velocity": 108}, {"time": 2830, "pitch": 65, "duration": 12, "velocity": 104}, {"time": 2830, "pitch": 69, "duration": 12, "velocity": 114}, {"time": 2830, "pitch": 74, "duration": 11, "velocity": 107}, {"time": 2842, "pitch": 62, "duration": 3, "velocity": 110}, {"time": 2848, "pitch": 62, "duration": 13, "velocity": 110}, {"time": 2848, "pitch": 65, "duration": 13, "velocity": 114}, {"time": 2848, "pitch": 69, "duration": 12, "velocity": 113}, {"time": 2854, "pitch": 50, "duration": 2, "velocity": 102}, {"time": 2860, "pitch": 39, "duration": 18, "velocity": 100}, {"time": 2860, "pitch": 67, "duration": 10, "velocity": 114}, {"time": 2860, "pitch": 70, "duration": 9, "velocity": 116}, {"time": 2866, "pitch": 51, "duration": 6, "velocity": 77}, {"time": 2872, "pitch": 67, "duration": 6, "velocity": 113}, {"time": 2872, "pitch": 70, "duration": 6, "velocity": 109}, {"time": 2878, "pitch": 51, "duration": 2, "velocity": 86}, {"time": 2884, "pitch": 41, "duration": 18, "velocity": 88}, {"time": 2884, "pitch": 60, "duration": 10, "velocity": 100}, {"time": 2884, "pitch": 65, "duration": 10, "velocity": 114}, {"time": 2884, "pitch": 69, "duration": 9, "velocity": 102}, {"time": 2890, "pitch": 48, "duration": 14, "velocity": 75}, {"time": 2894, "pitch": 53, "duration": 4, "velocity": 96}, {"time": 2896, "pitch": 60, "duration": 7, "velocity": 107}, {"time": 2896, "pitch": 65, "duration": 10, "velocity": 114}, {"time": 2896, "pitch": 69, "duration": 9, "velocity": 107}, {"time": 2902, "pitch": 53, "duration": 5, "velocity": 91}, {"time": 2908, "pitch": 46, "duration": 38, "velocity": 86}, {"time": 2908, "pitch": 62, "duration": 13, "velocity": 98}, {"time": 2908, "pitch": 65, "duration": 14, "velocity": 108}, {"time": 2908, "pitch": 69, "duration": 16, "velocity": 102}, {"time": 2914, "pitch": 53, "duration": 31, "velocity": 75}, {"time": 2920, "pitch": 58, "duration": 10, "velocity": 87}, {"time": 2926, "pitch": 62, "duration": 14, "velocity": 102}, {"time": 2926, "pitch": 65, "duration": 14, "velocity": 114}, {"time": 2926, "pitch": 69, "duration": 14, "velocity": 107}, {"time": 2938, "pitch": 58, "duration": 7, "velocity": 106}, {"time": 2944, "pitch": 62, "duration": 8, "velocity": 108}, {"time": 2944, "pitch": 65, "duration": 8, "velocity": 116}, {"time": 2944, "pitch": 69, "duration": 7, "velocity": 113}, {"time": 2950, "pitch": 46, "duration": 2, "velocity": 86}, {"time": 2956, "pitch": 43, "duration": 43, "velocity": 91}, {"time": 2956, "pitch": 62, "duration": 8, "velocity": 107}, {"time": 2956, "pitch": 67, "duration": 6, "velocity": 116}, {"time": 2956, "pitch": 70, "duration": 6, "velocity": 113}, {"time": 2962, "pitch": 50, "duration": 37, "velocity": 82}, {"time": 2968, "pitch": 55, "duration": 11, "velocity": 89}, {"time": 2974, "pitch": 58, "duration": 14, "velocity": 97}, {"time": 2974, "pitch": 62, "duration": 14, "velocity": 108}, {"time": 2974, "pitch": 67, "duration": 11, "velocity": 110}, {"time": 2986, "pitch": 55, "duration": 7, "velocity": 104}, {"time": 2992, "pitch": 58, "duration": 4, "velocity": 113}, {"time": 2992, "pitch": 62, "duration": 10, "velocity": 114}, {"time": 2992, "pitch": 67, "duration": 9, "velocity": 114}, {"time": 2998, "pitch": 55, "duration": 6, "velocity": 96}, {"time": 3004, "pitch": 50, "duration": 39, "velocity": 93}, {"time": 3004, "pitch": 62, "duration": 6, "velocity": 94}, {"time": 3004, "pitch": 65, "duration": 17, "velocity": 110}, {"time": 3004, "pitch": 69, "duration": 16, "velocity": 113}, {"time": 3016, "pitch": 57, "duration": 14, "velocity": 89}, {"time": 3022, "pitch": 62, "duration": 15, "velocity": 108}, {"time": 3022, "pitch": 65, "duration": 14, "velocity": 116}, {"time": 3022, "pitch": 69, "duration": 14, "velocity": 108}, {"time": 3034, "pitch": 57, "duration": 9, "velocity": 93}, {"time": 3040, "pitch": 62, "duration": 11, "velocity": 110}, {"time": 3040, "pitch": 65, "duration": 13, "velocity": 113}, {"time": 3040, "pitch": 69, "duration": 13, "velocity": 107}, {"time": 3046, "pitch": 50, "duration": 2, "velocity": 93}, {"time": 3046, "pitch": 57, "duration": 1, "velocity": 67}, {"time": 3052, "pitch": 51, "duration": 38, "velocity": 113}, {"time": 3058, "pitch": 58, "duration": 6, "velocity": 75}, {"time": 3064, "pitch": 67, "duration": 10, "velocity": 119}, {"time": 3064, "pitch": 70, "duration": 11, "velocity": 119}, {"time": 3070, "pitch": 58, "duration": 8, "velocity": 84}, {"time": 3076, "pitch": 67, "duration": 11, "velocity": 117}, {"time": 3076, "pitch": 70, "duration": 11, "velocity": 119}, {"time": 3086, "pitch": 58, "duration": 4, "velocity": 95}, {"time": 3088, "pitch": 67, "duration": 5, "velocity": 120}, {"time": 3088, "pitch": 70, "duration": 5, "velocity": 123}, {"time": 3094, "pitch": 51, "duration": 2, "velocity": 109}, {"time": 3100, "pitch": 41, "duration": 41, "velocity": 90}, {"time": 3100, "pitch": 60, "duration": 7, "velocity": 104}, {"time": 3100, "pitch": 65, "duration": 5, "velocity": 116}, {"time": 3100, "pitch": 69, "duration": 5, "velocity": 102}, {"time": 3106, "pitch": 48, "duration": 37, "velocity": 86}, {"time": 3110, "pitch": 53, "duration": 9, "velocity": 102}, {"time": 3112, "pitch": 57, "duration": 3, "velocity": 93}, {"time": 3116, "pitch": 60, "duration": 3, "velocity": 79}, {"time": 3118, "pitch": 53, "duration": 1, "velocity": 100}, {"time": 3118, "pitch": 65, "duration": 3, "velocity": 107}, {"time": 3122, "pitch": 69, "duration": 2, "velocity": 110}, {"time": 3124, "pitch": 72, "duration": 3, "velocity": 102}, {"time": 3128, "pitch": 77, "duration": 1, "velocity": 104}, {"time": 3130, "pitch": 81, "duration": 3, "velocity": 102}, {"time": 3134, "pitch": 53, "duration": 4, "velocity": 110}, {"time": 3134, "pitch": 84, "duration": 3, "velocity": 108}, {"time": 3136, "pitch": 81, "duration": 4, "velocity": 90}, {"time": 3136, "pitch": 89, "duration": 3, "velocity": 100}, {"time": 3142, "pitch": 53, "duration": 3, "velocity": 91}, {"time": 3142, "pitch": 81, "duration": 1, "velocity": 79}, {"time": 3142, "pitch": 84, "duration": 3, "velocity": 94}, {"time": 3142, "pitch": 89, "duration": 3, "velocity": 96}, {"time": 3146, "pitch": 89, "duration": 1, "velocity": 71}, {"time": 3148, "pitch": 43, "duration": 43, "velocity": 108}, {"time": 3148, "pitch": 82, "duration": 4, "velocity": 97}, {"time": 3148, "pitch": 86, "duration": 4, "velocity": 108}, {"time": 3148, "pitch": 89, "duration": 3, "velocity": 102}, {"time": 3154, "pitch": 50, "duration": 37, "velocity": 83}, {"time": 3160, "pitch": 58, "duration": 6, "velocity": 84}, {"time": 3160, "pitch": 62, "duration": 6, "velocity": 96}, {"time": 3160, "pitch": 67, "duration": 6, "velocity": 91}, {"time": 3166, "pitch": 55, "duration": 10, "velocity": 91}, {"time": 3170, "pitch": 58, "duration": 4, "velocity": 106}, {"time": 3170, "pitch": 62, "duration": 4, "velocity": 107}, {"time": 3170, "pitch": 67, "duration": 4, "velocity": 108}, {"time": 3176, "pitch": 58, "duration": 6, "velocity": 88}, {"time": 3176, "pitch": 62, "duration": 5, "velocity": 98}, {"time": 3176, "pitch": 67, "duration": 5, "velocity": 102}, {"time": 3182, "pitch": 55, "duration": 4, "velocity": 104}, {"time": 3184, "pitch": 58, "duration": 7, "velocity": 109}, {"time": 3184, "pitch": 62, "duration": 11, "velocity": 116}, {"time": 3184, "pitch": 67, "duration": 12, "velocity": 116}, {"time": 3190, "pitch": 55, "duration": 4, "velocity": 96}, {"time": 3196, "pitch": 50, "duration": 40, "velocity": 100}, {"time": 3196, "pitch": 62, "duration": 10, "velocity": 110}, {"time": 3196, "pitch": 65, "duration": 10, "velocity": 114}, {"time": 3196, "pitch": 69, "duration": 9, "velocity": 108}, {"time": 3206, "pitch": 57, "duration": 8, "velocity": 79}, {"time": 3208, "pitch": 62, "duration": 9, "velocity": 104}, {"time": 3208, "pitch": 65, "duration": 9, "velocity": 113}, {"time": 3208, "pitch": 69, "duration": 8, "velocity": 102}, {"time": 3214, "pitch": 57, "duration": 11, "velocity": 82}, {"time": 3218, "pitch": 62, "duration": 1, "velocity": 91}, {"time": 3218, "pitch": 65, "duration": 1, "velocity": 94}, {"time": 3218, "pitch": 69, "duration": 1, "velocity": 91}, {"time": 3224, "pitch": 62, "duration": 6, "velocity": 89}, {"time": 3224, "pitch": 65, "duration": 6, "velocity": 93}, {"time": 3224, "pitch": 69, "duration": 5, "velocity": 91}, {"time": 3230, "pitch": 57, "duration": 4, "velocity": 88}, {"time": 3232, "pitch": 62, "duration": 7, "velocity": 108}, {"time": 3232, "pitch": 65, "duration": 7, "velocity": 114}, {"time": 3232, "pitch": 69, "duration": 7, "velocity": 110}, {"time": 3238, "pitch": 50, "duration": 2, "velocity": 84}, {"time": 3244, "pitch": 51, "duration": 15, "velocity": 113}, {"time": 3256, "pitch": 67, "duration": 6, "velocity": 117}, {"time": 3256, "pitch": 70, "duration": 6, "velocity": 119}, {"time": 3262, "pitch": 51, "duration": 2, "velocity": 109}, {"time": 3268, "pitch": 41, "duration": 18, "velocity": 93}, {"time": 3268, "pitch": 60, "duration": 10, "velocity": 88}, {"time": 3268, "pitch": 65, "duration": 10, "velocity": 114}, {"time": 3278, "pitch": 53, "duration": 4, "velocity": 89}, {"time": 3280, "pitch": 60, "duration": 7, "velocity": 102}, {"time": 3280, "pitch": 65, "duration": 10, "velocity": 114}, {"time": 3280, "pitch": 69, "duration": 8, "velocity": 92}, {"time": 3286, "pitch": 53, "duration": 5, "velocity": 87}, {"time": 3292, "pitch": 46, "duration": 38, "velocity": 90}, {"time": 3292, "pitch": 62, "duration": 11, "velocity": 91}, {"time": 3292, "pitch": 65, "duration": 11, "velocity": 110}, {"time": 3292, "pitch": 69, "duration": 10, "velocity": 102}, {"time": 3298, "pitch": 53, "duration": 30, "velocity": 81}, {"time": 3304, "pitch": 62, "duration": 8, "velocity": 91}, {"time": 3304, "pitch": 65, "duration": 11, "velocity": 102}, {"time": 3304, "pitch": 69, "duration": 7, "velocity": 98}, {"time": 3310, "pitch": 58, "duration": 7, "velocity": 86}, {"time": 3316, "pitch": 62, "duration": 10, "velocity": 91}, {"time": 3316, "pitch": 65, "duration": 10, "velocity": 102}, {"time": 3316, "pitch": 70, "duration": 8, "velocity": 106}, {"time": 3322, "pitch": 58, "duration": 6, "velocity": 90}, {"time": 3328, "pitch": 62, "duration": 7, "velocity": 96}, {"time": 3328, "pitch": 65, "duration": 7, "velocity": 113}, {"time": 3328, "pitch": 70, "duration": 6, "velocity": 103}, {"time": 3332, "pitch": 45, "duration": 6, "velocity": 84}, {"time": 3340, "pitch": 43, "duration": 43, "velocity": 96}, {"time": 3340, "pitch": 58, "duration": 10, "velocity": 100}, {"time": 3340, "pitch": 62, "duration": 9, "velocity": 102}, {"time": 3340, "pitch": 67, "duration": 7, "velocity": 107}, {"time": 3346, "pitch": 50, "duration": 36, "velocity": 38}, {"time": 3352, "pitch": 58, "duration": 7, "velocity": 91}, {"time": 3352, "pitch": 62, "duration": 7, "velocity": 100}, {"time": 3352, "pitch": 67, "duration": 8, "velocity": 96}, {"time": 3358, "pitch": 55, "duration": 8, "velocity": 80}, {"time": 3364, "pitch": 58, "duration": 8, "velocity": 95}, {"time": 3364, "pitch": 62, "duration": 10, "velocity": 104}, {"time": 3364, "pitch": 67, "duration": 9, "velocity": 108}, {"time": 3370, "pitch": 55, "duration": 6, "velocity": 88}, {"time": 3374, "pitch": 58, "duration": 6, "velocity": 106}, {"time": 3376, "pitch": 62, "duration": 13, "velocity": 116}, {"time": 3376, "pitch": 67, "duration": 13, "velocity": 114}, {"time": 3382, "pitch": 55, "duration": 6, "velocity": 88}, {"time": 3388, "pitch": 50, "duration": 39, "velocity": 98}, {"time": 3394, "pitch": 57, "duration": 9, "velocity": 81}, {"time": 3400, "pitch": 62, "duration": 11, "velocity": 104}, {"time": 3400, "pitch": 65, "duration": 11, "velocity": 113}, {"time": 3400, "pitch": 69, "duration": 10, "velocity": 107}, {"time": 3406, "pitch": 57, "duration": 7, "velocity": 83}, {"time": 3412, "pitch": 62, "duration": 10, "velocity": 96}, {"time": 3412, "pitch": 65, "duration": 11, "velocity": 107}, {"time": 3412, "pitch": 69, "duration": 10, "velocity": 96}, {"time": 3422, "pitch": 57, "duration": 3, "velocity": 94}, {"time": 3424, "pitch": 62, "duration": 7, "velocity": 113}, {"time": 3424, "pitch": 65, "duration": 7, "velocity": 116}, {"time": 3424, "pitch": 69, "duration": 7, "velocity": 104}, {"time": 3436, "pitch": 39, "duration": 15, "velocity": 100}, {"time": 3436, "pitch": 51, "duration": 14, "velocity": 103}, {"time": 3448, "pitch": 63, "duration": 13, "velocity": 106}, {"time": 3448, "pitch": 67, "duration": 14, "velocity": 117}, {"time": 3448, "pitch": 70, "duration": 14, "velocity": 109}, {"time": 3460, "pitch": 39, "duration": 6, "velocity": 95}, {"time": 3460, "pitch": 51, "duration": 7, "velocity": 93}, {"time": 3470, "pitch": 39, "duration": 3, "velocity": 106}, {"time": 3470, "pitch": 51, "duration": 3, "velocity": 103}, {"time": 3472, "pitch": 63, "duration": 6, "velocity": 106}, {"time": 3472, "pitch": 67, "duration": 6, "velocity": 119}, {"time": 3472, "pitch": 70, "duration": 6, "velocity": 119}, {"time": 3478, "pitch": 39, "duration": 2, "velocity": 88}, {"time": 3478, "pitch": 51, "duration": 2, "velocity": 109}, {"time": 3482, "pitch": 66, "duration": 1, "velocity": 70}, {"time": 3484, "pitch": 41, "duration": 42, "velocity": 89}, {"time": 3484, "pitch": 53, "duration": 7, "velocity": 87}, {"time": 3484, "pitch": 60, "duration": 11, "velocity": 107}, {"time": 3484, "pitch": 65, "duration": 10, "velocity": 116}, {"time": 3484, "pitch": 69, "duration": 10, "velocity": 107}, {"time": 3494, "pitch": 53, "duration": 5, "velocity": 78}, {"time": 3496, "pitch": 60, "duration": 11, "velocity": 94}, {"time": 3496, "pitch": 65, "duration": 11, "velocity": 110}, {"time": 3496, "pitch": 69, "duration": 10, "velocity": 96}, {"time": 3502, "pitch": 53, "duration": 8, "velocity": 84}, {"time": 3508, "pitch": 60, "duration": 10, "velocity": 100}, {"time": 3508, "pitch": 65, "duration": 11, "velocity": 108}, {"time": 3508, "pitch": 69, "duration": 10, "velocity": 98}, {"time": 3518, "pitch": 53, "duration": 4, "velocity": 98}, {"time": 3520, "pitch": 60, "duration": 5, "velocity": 113}, {"time": 3520, "pitch": 65, "duration": 7, "velocity": 114}, {"time": 3520, "pitch": 69, "duration": 8, "velocity": 102}, {"time": 3526, "pitch": 53, "duration": 3, "velocity": 88}, {"time": 3532, "pitch": 46, "duration": 48, "velocity": 91}, {"time": 3532, "pitch": 62, "duration": 10, "velocity": 96}, {"time": 3532, "pitch": 65, "duration": 9, "velocity": 113}, {"time": 3532, "pitch": 70, "duration": 10, "velocity": 97}, {"time": 3544, "pitch": 62, "duration": 10, "velocity": 100}, {"time": 3544, "pitch": 65, "duration": 11, "velocity": 113}, {"time": 3544, "pitch": 70, "duration": 11, "velocity": 103}, {"time": 3554, "pitch": 53, "duration": 3, "velocity": 83}, {"time": 3556, "pitch": 62, "duration": 10, "velocity": 94}, {"time": 3556, "pitch": 65, "duration": 11, "velocity": 108}, {"time": 3556, "pitch": 70, "duration": 11, "velocity": 100}, {"time": 3566, "pitch": 53, "duration": 3, "velocity": 85}, {"time": 3568, "pitch": 62, "duration": 7, "velocity": 107}, {"time": 3568, "pitch": 65, "duration": 7, "velocity": 116}, {"time": 3568, "pitch": 70, "duration": 7, "velocity": 113}, {"time": 3574, "pitch": 53, "duration": 6, "velocity": 81}, {"time": 3580, "pitch": 43, "duration": 40, "velocity": 102}, {"time": 3580, "pitch": 62, "duration": 6, "velocity": 102}, {"time": 3580, "pitch": 67, "duration": 5, "velocity": 108}, {"time": 3580, "pitch": 70, "duration": 5, "velocity": 106}, {"time": 3586, "pitch": 50, "duration": 35, "velocity": 77}, {"time": 3592, "pitch": 58, "duration": 7, "velocity": 87}, {"time": 3592, "pitch": 62, "duration": 8, "velocity": 93}, {"time": 3592, "pitch": 67, "duration": 5, "velocity": 92}, {"time": 3598, "pitch": 55, "duration": 6, "velocity": 70}, {"time": 3601, "pitch": 67, "duration": 6, "velocity": 98}, {"time": 3604, "pitch": 58, "duration": 11, "velocity": 109}, {"time": 3610, "pitch": 55, "duration": 6, "velocity": 96}, {"time": 3613, "pitch": 67, "duration": 7, "velocity": 110}, {"time": 3616, "pitch": 58, "duration": 1, "velocity": 85}, {"time": 3616, "pitch": 62, "duration": 6, "velocity": 116}, {"time": 3622, "pitch": 55, "duration": 6, "velocity": 91}, {"time": 3628, "pitch": 50, "duration": 38, "velocity": 93}, {"time": 3628, "pitch": 62, "duration": 9, "velocity": 102}, {"time": 3628, "pitch": 65, "duration": 9, "velocity": 114}, {"time": 3628, "pitch": 69, "duration": 9, "velocity": 107}, {"time": 3637, "pitch": 57, "duration": 6, "velocity": 70}, {"time": 3640, "pitch": 62, "duration": 8, "velocity": 96}, {"time": 3640, "pitch": 65, "duration": 8, "velocity": 108}, {"time": 3640, "pitch": 69, "duration": 8, "velocity": 100}, {"time": 3646, "pitch": 57, "duration": 9, "velocity": 86}, {"time": 3649, "pitch": 62, "duration": 1, "velocity": 87}, {"time": 3649, "pitch": 65, "duration": 1, "velocity": 91}, {"time": 3649, "pitch": 69, "duration": 1, "velocity": 87}, {"time": 3655, "pitch": 62, "duration": 6, "velocity": 91}, {"time": 3655, "pitch": 65, "duration": 6, "velocity": 96}, {"time": 3655, "pitch": 69, "duration": 6, "velocity": 91}, {"time": 3661, "pitch": 57, "duration": 6, "velocity": 87}, {"time": 3664, "pitch": 62, "duration": 7, "velocity": 110}, {"time": 3664, "pitch": 65, "duration": 6, "velocity": 117}, {"time": 3664, "pitch": 69, "duration": 6, "velocity": 110}, {"time": 3670, "pitch": 50, "duration": 1, "velocity": 91}, {"time": 3676, "pitch": 39, "duration": 13, "velocity": 95}, {"time": 3676, "pitch": 51, "duration": 14, "velocity": 86}, {"time": 3688, "pitch": 63, "duration": 6, "velocity": 90}, {"time": 3688, "pitch": 67, "duration": 6, "velocity": 110}, {"time": 3688, "pitch": 70, "duration": 6, "velocity": 91}, {"time": 3691, "pitch": 39, "duration": 1, "velocity": 90}, {"time": 3691, "pitch": 51, "duration": 1, "velocity": 95}, {"time": 3700, "pitch": 41, "duration": 17, "velocity": 91}, {"time": 3700, "pitch": 53, "duration": 6, "velocity": 88}, {"time": 3700, "pitch": 60, "duration": 10, "velocity": 91}, {"time": 3700, "pitch": 65, "duration": 9, "velocity": 104}, {"time": 3700, "pitch": 69, "duration": 9, "velocity": 93}, {"time": 3709, "pitch": 53, "duration": 4, "velocity": 98}, {"time": 3709, "pitch": 69, "duration": 1, "velocity": 104}, {"time": 3712, "pitch": 60, "duration": 5, "velocity": 108}, {"time": 3712, "pitch": 65, "duration": 6, "velocity": 116}, {"time": 3718, "pitch": 53, "duration": 2, "velocity": 91}, {"time": 3724, "pitch": 46, "duration": 38, "velocity": 97}, {"time": 3724, "pitch": 62, "duration": 9, "velocity": 93}, {"time": 3724, "pitch": 65, "duration": 8, "velocity": 108}, {"time": 3724, "pitch": 70, "duration": 9, "velocity": 97}, {"time": 3730, "pitch": 53, "duration": 30, "velocity": 70}, {"time": 3736, "pitch": 62, "duration": 9, "velocity": 98}, {"time": 3736, "pitch": 65, "duration": 9, "velocity": 114}, {"time": 3736, "pitch": 70, "duration": 9, "velocity": 103}, {"time": 3742, "pitch": 58, "duration": 6, "velocity": 80}, {"time": 3748, "pitch": 62, "duration": 9, "velocity": 104}, {"time": 3748, "pitch": 65, "duration": 8, "velocity": 114}, {"time": 3748, "pitch": 70, "duration": 8, "velocity": 116}, {"time": 3754, "pitch": 58, "duration": 6, "velocity": 90}, {"time": 3760, "pitch": 62, "duration": 11, "velocity": 107}, {"time": 3760, "pitch": 65, "duration": 11, "velocity": 117}, {"time": 3760, "pitch": 70, "duration": 11, "velocity": 116}, {"time": 3766, "pitch": 46, "duration": 1, "velocity": 89}, {"time": 3772, "pitch": 43, "duration": 42, "velocity": 113}, {"time": 3778, "pitch": 50, "duration": 37, "velocity": 81}, {"time": 3784, "pitch": 55, "duration": 4, "velocity": 86}, {"time": 3784, "pitch": 58, "duration": 6, "velocity": 106}, {"time": 3784, "pitch": 62, "duration": 7, "velocity": 113}, {"time": 3784, "pitch": 67, "duration": 5, "velocity": 107}, {"time": 3796, "pitch": 55, "duration": 5, "velocity": 79}, {"time": 3796, "pitch": 58, "duration": 6, "velocity": 103}, {"time": 3796, "pitch": 67, "duration": 6, "velocity": 93}, {"time": 3802, "pitch": 55, "duration": 9, "velocity": 108}, {"time": 3808, "pitch": 62, "duration": 6, "velocity": 116}, {"time": 3814, "pitch": 55, "duration": 5, "velocity": 91}, {"time": 3814, "pitch": 67, "duration": 4, "velocity": 92}, {"time": 3820, "pitch": 50, "duration": 39, "velocity": 96}, {"time": 3820, "pitch": 62, "duration": 7, "velocity": 96}, {"time": 3820, "pitch": 65, "duration": 10, "velocity": 107}, {"time": 3820, "pitch": 69, "duration": 10, "velocity": 113}, {"time": 3826, "pitch": 57, "duration": 7, "velocity": 73}, {"time": 3832, "pitch": 62, "duration": 5, "velocity": 104}, {"time": 3832, "pitch": 65, "duration": 5, "velocity": 113}, {"time": 3832, "pitch": 69, "duration": 6, "velocity": 110}, {"time": 3838, "pitch": 57, "duration": 6, "velocity": 84}, {"time": 3844, "pitch": 65, "duration": 10, "velocity": 84}, {"time": 3844, "pitch": 69, "duration": 10, "velocity": 92}, {"time": 3844, "pitch": 74, "duration": 10, "velocity": 110}, {"time": 3853, "pitch": 57, "duration": 4, "velocity": 89}, {"time": 3856, "pitch": 65, "duration": 7, "velocity": 110}, {"time": 3856, "pitch": 74, "duration": 10, "velocity": 100}, {"time": 3862, "pitch": 69, "duration": 4, "velocity": 107}, {"time": 3868, "pitch": 39, "duration": 42, "velocity": 103}, {"time": 3868, "pitch": 51, "duration": 15, "velocity": 93}, {"time": 3868, "pitch": 67, "duration": 11, "velocity": 108}, {"time": 3868, "pitch": 70, "duration": 10, "velocity": 119}, {"time": 3880, "pitch": 67, "duration": 9, "velocity": 102}, {"time": 3880, "pitch": 70, "duration": 9, "velocity": 119}, {"time": 3886, "pitch": 51, "duration": 6, "velocity": 84}, {"time": 3892, "pitch": 67, "duration": 9, "velocity": 116}, {"time": 3892, "pitch": 70, "duration": 9, "velocity": 119}, {"time": 3898, "pitch": 51, "duration": 5, "velocity": 86}, {"time": 3904, "pitch": 67, "duration": 11, "velocity": 114}, {"time": 3904, "pitch": 70, "duration": 6, "velocity": 119}, {"time": 3910, "pitch": 51, "duration": 1, "velocity": 106}, {"time": 3916, "pitch": 41, "duration": 41, "velocity": 96}, {"time": 3916, "pitch": 65, "duration": 6, "velocity": 107}, {"time": 3916, "pitch": 69, "duration": 5, "velocity": 116}, {"time": 3916, "pitch": 72, "duration": 5, "velocity": 100}, {"time": 3922, "pitch": 48, "duration": 36, "velocity": 83}, {"time": 3925, "pitch": 53, "duration": 9, "velocity": 108}, {"time": 3925, "pitch": 57, "duration": 3, "velocity": 102}, {"time": 3928, "pitch": 60, "duration": 2, "velocity": 108}, {"time": 3931, "pitch": 65, "duration": 2, "velocity": 110}, {"time": 3934, "pitch": 53, "duration": 1, "velocity": 108}, {"time": 3937, "pitch": 69, "duration": 3, "velocity": 113}, {"time": 3940, "pitch": 72, "duration": 2, "velocity": 102}, {"time": 3943, "pitch": 77, "duration": 2, "velocity": 116}, {"time": 3946, "pitch": 53, "duration": 6, "velocity": 114}, {"time": 3949, "pitch": 81, "duration": 4, "velocity": 116}, {"time": 3952, "pitch": 84, "duration": 3, "velocity": 108}, {"time": 3955, "pitch": 89, "duration": 5, "velocity": 116}, {"time": 3964, "pitch": 43, "duration": 40, "velocity": 107}, {"time": 3964, "pitch": 79, "duration": 2, "velocity": 108}, {"time": 3964, "pitch": 86, "duration": 2, "velocity": 116}, {"time": 3964, "pitch": 89, "duration": 1, "velocity": 86}, {"time": 3970, "pitch": 50, "duration": 34, "velocity": 83}, {"time": 3973, "pitch": 55, "duration": 5, "velocity": 89}, {"time": 3976, "pitch": 58, "duration": 10, "velocity": 109}, {"time": 3976, "pitch": 67, "duration": 6, "velocity": 110}, {"time": 3982, "pitch": 55, "duration": 6, "velocity": 89}, {"time": 3988, "pitch": 62, "duration": 6, "velocity": 104}, {"time": 3988, "pitch": 67, "duration": 6, "velocity": 92}, {"time": 3994, "pitch": 55, "duration": 16, "velocity": 102}, {"time": 4000, "pitch": 58, "duration": 6, "velocity": 116}, {"time": 4000, "pitch": 67, "duration": 5, "velocity": 85}, {"time": 4006, "pitch": 62, "duration": 5, "velocity": 92}, {"time": 4012, "pitch": 50, "duration": 39, "velocity": 94}, {"time": 4012, "pitch": 62, "duration": 4, "velocity": 91}, {"time": 4012, "pitch": 65, "duration": 5, "velocity": 113}, {"time": 4012, "pitch": 69, "duration": 6, "velocity": 110}, {"time": 4018, "pitch": 57, "duration": 33, "velocity": 78}, {"time": 4021, "pitch": 62, "duration": 8, "velocity": 108}, {"time": 4024, "pitch": 65, "duration": 3, "velocity": 107}, {"time": 4027, "pitch": 69, "duration": 7, "velocity": 100}, {"time": 4030, "pitch": 74, "duration": 4, "velocity": 113}, {"time": 4033, "pitch": 62, "duration": 4, "velocity": 104}, {"time": 4036, "pitch": 65, "duration": 7, "velocity": 107}, {"time": 4036, "pitch": 69, "duration": 10, "velocity": 113}, {"time": 4036, "pitch": 74, "duration": 9, "velocity": 93}, {"time": 4045, "pitch": 62, "duration": 5, "velocity": 113}, {"time": 4048, "pitch": 65, "duration": 4, "velocity": 116}, {"time": 4048, "pitch": 74, "duration": 4, "velocity": 100}, {"time": 4051, "pitch": 69, "duration": 9, "velocity": 91}, {"time": 4054, "pitch": 74, "duration": 6, "velocity": 102}, {"time": 4060, "pitch": 39, "duration": 14, "velocity": 103}, {"time": 4060, "pitch": 51, "duration": 15, "velocity": 109}, {"time": 4072, "pitch": 63, "duration": 6, "velocity": 106}, {"time": 4072, "pitch": 70, "duration": 6, "velocity": 106}, {"time": 4075, "pitch": 67, "duration": 5, "velocity": 73}, {"time": 4078, "pitch": 39, "duration": 1, "velocity": 95}, {"time": 4078, "pitch": 51, "duration": 1, "velocity": 109}, {"time": 4084, "pitch": 41, "duration": 17, "velocity": 94}, {"time": 4084, "pitch": 60, "duration": 10, "velocity": 108}, {"time": 4084, "pitch": 65, "duration": 10, "velocity": 116}, {"time": 4084, "pitch": 69, "duration": 9, "velocity": 108}, {"time": 4090, "pitch": 48, "duration": 12, "velocity": 83}, {"time": 4093, "pitch": 53, "duration": 4, "velocity": 116}, {"time": 4096, "pitch": 60, "duration": 5, "velocity": 114}, {"time": 4096, "pitch": 65, "duration": 5, "velocity": 116}, {"time": 4096, "pitch": 69, "duration": 6, "velocity": 113}, {"time": 4102, "pitch": 53, "duration": 2, "velocity": 102}, {"time": 4108, "pitch": 46, "duration": 37, "velocity": 91}, {"time": 4108, "pitch": 62, "duration": 8, "velocity": 93}, {"time": 4108, "pitch": 65, "duration": 9, "velocity": 113}, {"time": 4108, "pitch": 70, "duration": 8, "velocity": 113}, {"time": 4114, "pitch": 53, "duration": 30, "velocity": 81}, {"time": 4117, "pitch": 58, "duration": 15, "velocity": 109}, {"time": 4120, "pitch": 60, "duration": 3, "velocity": 107}, {"time": 4123, "pitch": 62, "duration": 1, "velocity": 108}, {"time": 4126, "pitch": 62, "duration": 2, "velocity": 93}, {"time": 4129, "pitch": 65, "duration": 2, "velocity": 114}, {"time": 4132, "pitch": 62, "duration": 8, "velocity": 114}, {"time": 4132, "pitch": 70, "duration": 9, "velocity": 126}, {"time": 4138, "pitch": 58, "duration": 6, "velocity": 97}, {"time": 4141, "pitch": 65, "duration": 2, "velocity": 94}, {"time": 4144, "pitch": 62, "duration": 6, "velocity": 116}, {"time": 4144, "pitch": 70, "duration": 6, "velocity": 123}, {"time": 4150, "pitch": 45, "duration": 6, "velocity": 93}, {"time": 4156, "pitch": 43, "duration": 42, "velocity": 107}, {"time": 4156, "pitch": 62, "duration": 6, "velocity": 107}, {"time": 4156, "pitch": 67, "duration": 4, "velocity": 116}, {"time": 4156, "pitch": 70, "duration": 4, "velocity": 119}, {"time": 4162, "pitch": 50, "duration": 36, "velocity": 83}, {"time": 4165, "pitch": 55, "duration": 5, "velocity": 91}, {"time": 4168, "pitch": 58, "duration": 6, "velocity": 116}, {"time": 4168, "pitch": 67, "duration": 7, "velocity": 110}, {"time": 4174, "pitch": 55, "duration": 7, "velocity": 91}, {"time": 4180, "pitch": 58, "duration": 9, "velocity": 89}, {"time": 4180, "pitch": 62, "duration": 9, "velocity": 102}, {"time": 4180, "pitch": 67, "duration": 8, "velocity": 98}, {"time": 4189, "pitch": 55, "duration": 4, "velocity": 104}, {"time": 4192, "pitch": 58, "duration": 4, "velocity": 116}, {"time": 4192, "pitch": 67, "duration": 3, "velocity": 92}, {"time": 4198, "pitch": 55, "duration": 5, "velocity": 94}, {"time": 4198, "pitch": 62, "duration": 3, "velocity": 91}, {"time": 4198, "pitch": 67, "duration": 4, "velocity": 100}, {"time": 4204, "pitch": 50, "duration": 33, "velocity": 108}, {"time": 4204, "pitch": 62, "duration": 8, "velocity": 102}, {"time": 4204, "pitch": 65, "duration": 10, "velocity": 110}, {"time": 4204, "pitch": 69, "duration": 10, "velocity": 110}, {"time": 4213, "pitch": 57, "duration": 6, "velocity": 77}, {"time": 4216, "pitch": 62, "duration": 6, "velocity": 96}, {"time": 4216, "pitch": 65, "duration": 6, "velocity": 110}, {"time": 4216, "pitch": 69, "duration": 6, "velocity": 110}, {"time": 4222, "pitch": 57, "duration": 7, "velocity": 84}, {"time": 4228, "pitch": 65, "duration": 9, "velocity": 104}, {"time": 4228, "pitch": 69, "duration": 9, "velocity": 116}, {"time": 4228, "pitch": 74, "duration": 8, "velocity": 107}, {"time": 4234, "pitch": 57, "duration": 5, "velocity": 83}, {"time": 4240, "pitch": 65, "duration": 6, "velocity": 114}, {"time": 4240, "pitch": 69, "duration": 6, "velocity": 119}, {"time": 4240, "pitch": 74, "duration": 5, "velocity": 102}, {"time": 4252, "pitch": 39, "duration": 36, "velocity": 103}, {"time": 4252, "pitch": 51, "duration": 6, "velocity": 89}, {"time": 4252, "pitch": 63, "duration": 10, "velocity": 106}, {"time": 4252, "pitch": 67, "duration": 9, "velocity": 114}, {"time": 4252, "pitch": 70, "duration": 10, "velocity": 97}, {"time": 4264, "pitch": 51, "duration": 6, "velocity": 86}, {"time": 4264, "pitch": 63, "duration": 9, "velocity": 103}, {"time": 4264, "pitch": 67, "duration": 9, "velocity": 117}, {"time": 4264, "pitch": 70, "duration": 9, "velocity": 113}, {"time": 4276, "pitch": 51, "duration": 5, "velocity": 95}, {"time": 4276, "pitch": 63, "duration": 8, "velocity": 113}, {"time": 4276, "pitch": 67, "duration": 9, "velocity": 119}, {"time": 4276, "pitch": 70, "duration": 9, "velocity": 119}, {"time": 4288, "pitch": 51, "duration": 4, "velocity": 113}, {"time": 4288, "pitch": 63, "duration": 4, "velocity": 113}, {"time": 4288, "pitch": 67, "duration": 10, "velocity": 119}, {"time": 4288, "pitch": 70, "duration": 6, "velocity": 123}, {"time": 4294, "pitch": 39, "duration": 3, "velocity": 116}, {"time": 4300, "pitch": 41, "duration": 35, "velocity": 113}, {"time": 4300, "pitch": 48, "duration": 30, "velocity": 86}, {"time": 4300, "pitch": 53, "duration": 28, "velocity": 96}, {"time": 4300, "pitch": 65, "duration": 5, "velocity": 107}, {"time": 4300, "pitch": 69, "duration": 5, "velocity": 116}, {"time": 4300, "pitch": 72, "duration": 4, "velocity": 107}, {"time": 4394, "pitch": 46, "duration": 27, "velocity": 84}, {"time": 4394, "pitch": 62, "duration": 14, "velocity": 80}, {"time": 4394, "pitch": 65, "duration": 15, "velocity": 84}, {"time": 4394, "pitch": 70, "duration": 10, "velocity": 79}, {"time": 4410, "pitch": 62, "duration": 10, "velocity": 84}, {"time": 4410, "pitch": 65, "duration": 12, "velocity": 88}, {"time": 4410, "pitch": 70, "duration": 9, "velocity": 87}, {"time": 4424, "pitch": 46, "duration": 26, "velocity": 84}, {"time": 4424, "pitch": 63, "duration": 12, "velocity": 83}, {"time": 4424, "pitch": 67, "duration": 12, "velocity": 86}, {"time": 4424, "pitch": 72, "duration": 12, "velocity": 87}, {"time": 4438, "pitch": 63, "duration": 11, "velocity": 83}, {"time": 4438, "pitch": 67, "duration": 14, "velocity": 88}, {"time": 4438, "pitch": 72, "duration": 10, "velocity": 84}, {"time": 4454, "pitch": 46, "duration": 25, "velocity": 84}, {"time": 4454, "pitch": 62, "duration": 12, "velocity": 86}, {"time": 4454, "pitch": 65, "duration": 12, "velocity": 88}, {"time": 4454, "pitch": 70, "duration": 10, "velocity": 86}, {"time": 4468, "pitch": 62, "duration": 9, "velocity": 81}, {"time": 4468, "pitch": 65, "duration": 12, "velocity": 83}, {"time": 4468, "pitch": 70, "duration": 11, "velocity": 82}, {"time": 4484, "pitch": 53, "duration": 30, "velocity": 83}, {"time": 4484, "pitch": 60, "duration": 12, "velocity": 81}, {"time": 4484, "pitch": 65, "duration": 12, "velocity": 85}, {"time": 4484, "pitch": 69, "duration": 2, "velocity": 84}, {"time": 4498, "pitch": 60, "duration": 10, "velocity": 86}, {"time": 4498, "pitch": 65, "duration": 14, "velocity": 87}, {"time": 4498, "pitch": 69, "duration": 13, "velocity": 87}, {"time": 4512, "pitch": 65, "duration": 1, "velocity": 78}, {"time": 4514, "pitch": 46, "duration": 26, "velocity": 83}, {"time": 4514, "pitch": 62, "duration": 13, "velocity": 85}, {"time": 4514, "pitch": 70, "duration": 11, "velocity": 86}, {"time": 4528, "pitch": 62, "duration": 10, "velocity": 86}, {"time": 4528, "pitch": 65, "duration": 14, "velocity": 86}, {"time": 4528, "pitch": 70, "duration": 9, "velocity": 87}, {"time": 4544, "pitch": 46, "duration": 26, "velocity": 84}, {"time": 4544, "pitch": 63, "duration": 13, "velocity": 81}, {"time": 4544, "pitch": 67, "duration": 13, "velocity": 87}, {"time": 4544, "pitch": 72, "duration": 13, "velocity": 86}, {"time": 4558, "pitch": 63, "duration": 9, "velocity": 84}, {"time": 4558, "pitch": 67, "duration": 13, "velocity": 87}, {"time": 4558, "pitch": 72, "duration": 9, "velocity": 83}, {"time": 4574, "pitch": 51, "duration": 28, "velocity": 84}, {"time": 4574, "pitch": 63, "duration": 11, "velocity": 83}, {"time": 4574, "pitch": 67, "duration": 11, "velocity": 87}, {"time": 4574, "pitch": 70, "duration": 10, "velocity": 83}, {"time": 4588, "pitch": 63, "duration": 10, "velocity": 83}, {"time": 4588, "pitch": 67, "duration": 11, "velocity": 86}, {"time": 4588, "pitch": 70, "duration": 11, "velocity": 84}, {"time": 4606, "pitch": 53, "duration": 48, "velocity": 85}, {"time": 4606, "pitch": 60, "duration": 44, "velocity": 81}, {"time": 4606, "pitch": 65, "duration": 46, "velocity": 84}, {"time": 4606, "pitch": 69, "duration": 45, "velocity": 82}, {"time": 4652, "pitch": 62, "duration": 37, "velocity": 64}, {"time": 4655, "pitch": 46, "duration": 34, "velocity": 42}, {"time": 4655, "pitch": 65, "duration": 36, "velocity": 74}, {"time": 4656, "pitch": 70, "duration": 34, "velocity": 75}], "annotations": [{"time": 22, "annotation": {"number": 64, "value": 127}, "group": "control_change"}, {"time": 79, "annotation": {"number": 64, "value": 0}, "group": "control_change"}, {"time": 83, "annotation": {"number": 64, "value": 127}, "group": "control_change"}, {"time": 110, "annotation": {"number": 64, "value": 74}, "group": "control_change"}, {"time": 110, "annotation": {"number": 64, "value": 0}, "group": "control_change"}, {"time": 114, "annotation": {"number": 64, "value": 127}, "group": "control_change"}, {"time": 115, "annotation": {"number": 64, "value": 127}, "group": "control_change"}, {"time": 141, "annotation": {"number": 64, "value": 0}, "group": "control_change"}, {"time": 145, "annotation": {"number": 64, "value": 127}, "group": "control_change"}, {"time": 154, "annotation": {"number": 64, "value": 38}, "group": "control_change"}, {"time": 154, "annotation": {"number": 64, "value": 0}, "group": "control_change"}, {"time": 365, "annotation": {"number": 64, "value": 74}, "group": "control_change"}, {"time": 366, "annotation": {"number": 64, "value": 127}, "group": "control_change"}, {"time": 410, "annotation": {"number": 64, "value": 74}, "group": "control_change"}, {"time": 410, "annotation": {"number": 64, "value": 0}, "group": "control_change"}, {"time": 412, "annotation": {"number": 64, "value": 74}, "group": "control_change"}, {"time": 412, "annotation": {"number": 64, "value": 127}, "group": "control_change"}, {"time": 459, "annotation": {"number": 64, "value": 0}, "group": "control_change"}, {"time": 460, "annotation": {"number": 64, "value": 127}, "group": "control_change"}, {"time": 506, "annotation": {"number": 64, "value": 0}, "group": "control_change"}, {"time": 508, "annotation": {"number": 64, "value": 127}, "group": "control_change"}, {"time": 555, "annotation": {"number": 64, "value": 38}, "group": "control_change"}, {"time": 555, "annotation": {"number": 64, "value": 0}, "group": "control_change"}, {"time": 557, "annotation": {"number": 64, "value": 127}, "group": "control_change"}, {"time": 557, "annotation": {"number": 64, "value": 38}, "group": "control_change"}, {"time": 602, "annotation": {"number": 64, "value": 38}, "group": "control_change"}, {"time": 602, "annotation": {"number": 64, "value": 0}, "group": "control_change"}, {"time": 603, "annotation": {"number": 64, "value": 38}, "group": "control_change"}, {"time": 603, "annotation": {"number": 64, "value": 0}, "group": "control_change"}, {"time": 605, "annotation": {"number": 64, "value": 127}, "group": "control_change"}, {"time": 608, "annotation": {"number": 64, "value": 74}, "group": "control_change"}, {"time": 608, "annotation": {"number": 64, "value": 0}, "group": "control_change"}, {"time": 614, "annotation": {"number": 64, "value": 0}, "group": "control_change"}, {"time": 627, "annotation": {"number": 64, "value": 38}, "group": "control_change"}, {"time": 627, "annotation": {"number": 64, "value": 0}, "group": "control_change"}, {"time": 630, "annotation": {"number": 64, "value": 74}, "group": "control_change"}, {"time": 630, "annotation": {"number": 64, "value": 127}, "group": "control_change"}, {"time": 651, "annotation": {"number": 64, "value": 74}, "group": "control_change"}, {"time": 651, "annotation": {"number": 64, "value": 0}, "group": "control_change"}, {"time": 653, "annotation": {"number": 64, "value": 127}, "group": "control_change"}, {"time": 674, "annotation": {"number": 64, "value": 38}, "group": "control_change"}, {"time": 674, "annotation": {"number": 64, "value": 0}, "group": "control_change"}, {"time": 677, "annotation": {"number": 64, "value": 127}, "group": "control_change"}, {"time": 698, "annotation": {"number": 64, "value": 74}, "group": "control_change"}, {"time": 698, "annotation": {"number": 64, "value": 0}, "group": "control_change"}, {"time": 701, "annotation": {"number": 64, "value": 127}, "group": "control_change"}, {"time": 749, "annotation": {"number": 64, "value": 74}, "group": "control_change"}, {"time": 750, "annotation": {"number": 64, "value": 127}, "group": "control_change"}, {"time": 794, "annotation": {"number": 64, "value": 74}, "group": "control_change"}, {"time": 794, "annotation": {"number": 64, "value": 0}, "group": "control_change"}, {"time": 796, "annotation": {"number": 64, "value": 74}, "group": "control_change"}, {"time": 796, "annotation": {"number": 64, "value": 127}, "group": "control_change"}, {"time": 843, "annotation": {"number": 64, "value": 0}, "group": "control_change"}, {"time": 844, "annotation": {"number": 64, "value": 127}, "group": "control_change"}, {"time": 890, "annotation": {"number": 64, "value": 0}, "group": "control_change"}, {"time": 892, "annotation": {"number": 64, "value": 127}, "group": "control_change"}, {"time": 939, "annotation": {"number": 64, "value": 38}, "group": "control_change"}, {"time": 939, "annotation": {"number": 64, "value": 0}, "group": "control_change"}, {"time": 941, "annotation": {"number": 64, "value": 127}, "group": "control_change"}, {"time": 941, "annotation": {"number": 64, "value": 38}, "group": "control_change"}, {"time": 986, "annotation": {"number": 64, "value": 38}, "group": "control_change"}, {"time": 986, "annotation": {"number": 64, "value": 0}, "group": "control_change"}, {"time": 987, "annotation": {"number": 64, "value": 38}, "group": "control_change"}, {"time": 987, "annotation": {"number": 64, "value": 0}, "group": "control_change"}, {"time": 988, "annotation": {"number": 64, "value": 127}, "group": "control_change"}, {"time": 989, "annotation": {"number": 64, "value": 127}, "group": "control_change"}, {"time": 992, "annotation": {"number": 64, "value": 74}, "group": "control_change"}, {"time": 992, "annotation": {"number": 64, "value": 0}, "group": "control_change"}, {"time": 998, "annotation": {"number": 64, "value": 0}, "group": "control_change"}, {"time": 1011, "annotation": {"number": 64, "value": 38}, "group": "control_change"}, {"time": 1011, "annotation": {"number": 64, "value": 0}, "group": "control_change"}, {"time": 1012, "annotation": {"number": 64, "value": 74}, "group": "control_change"}, {"time": 1012, "annotation": {"number": 64, "value": 0}, "group": "control_change"}, {"time": 1013, "annotation": {"number": 64, "value": 127}, "group": "control_change"}, {"time": 1014, "annotation": {"number": 64, "value": 74}, "group": "control_change"}, {"time": 1014, "annotation": {"number": 64, "value": 127}, "group": "control_change"}, {"time": 1026, "annotation": {"number": 64, "value": 38}, "group": "control_change"}, {"time": 1027, "annotation": {"number": 64, "value": 0}, "group": "control_change"}, {"time": 1035, "annotation": {"number": 64, "value": 74}, "group": "control_change"}, {"time": 1035, "annotation": {"number": 64, "value": 0}, "group": "control_change"}, {"time": 1036, "annotation": {"number": 64, "value": 127}, "group": "control_change"}, {"time": 1037, "annotation": {"number": 64, "value": 127}, "group": "control_change"}, {"time": 1038, "annotation": {"number": 64, "value": 38}, "group": "control_change"}, {"time": 1038, "annotation": {"number": 64, "value": 127}, "group": "control_change"}, {"time": 1058, "annotation": {"number": 64, "value": 38}, "group": "control_change"}, {"time": 1058, "annotation": {"number": 64, "value": 0}, "group": "control_change"}, {"time": 1061, "annotation": {"number": 64, "value": 127}, "group": "control_change"}, {"time": 1062, "annotation": {"number": 64, "value": 127}, "group": "control_change"}, {"time": 1082, "annotation": {"number": 64, "value": 74}, "group": "control_change"}, {"time": 1082, "annotation": {"number": 64, "value": 38}, "group": "control_change"}, {"time": 1082, "annotation": {"number": 64, "value": 0}, "group": "control_change"}, {"time": 1085, "annotation": {"number": 64, "value": 127}, "group": "control_change"}, {"time": 1124, "annotation": {"number": 64, "value": 74}, "group": "control_change"}, {"time": 1124, "annotation": {"number": 64, "value": 0}, "group": "control_change"}, {"time": 1132, "annotation": {"number": 64, "value": 127}, "group": "control_change"}, {"time": 1178, "annotation": {"number": 64, "value": 0}, "group": "control_change"}, {"time": 1181, "annotation": {"number": 64, "value": 127}, "group": "control_change"}, {"time": 1250, "annotation": {"number": 64, "value": 0}, "group": "control_change"}, {"time": 1252, "annotation": {"number": 64, "value": 127}, "group": "control_change"}, {"time": 1273, "annotation": {"number": 64, "value": 0}, "group": "control_change"}, {"time": 1277, "annotation": {"number": 64, "value": 127}, "group": "control_change"}, {"time": 1323, "annotation": {"number": 64, "value": 74}, "group": "control_change"}, {"time": 1324, "annotation": {"number": 64, "value": 38}, "group": "control_change"}, {"time": 1324, "annotation": {"number": 64, "value": 127}, "group": "control_change"}, {"time": 1371, "annotation": {"number": 64, "value": 74}, "group": "control_change"}, {"time": 1371, "annotation": {"number": 64, "value": 0}, "group": "control_change"}, {"time": 1373, "annotation": {"number": 64, "value": 127}, "group": "control_change"}, {"time": 1419, "annotation": {"number": 64, "value": 0}, "group": "control_change"}, {"time": 1421, "annotation": {"number": 64, "value": 127}, "group": "control_change"}, {"time": 1466, "annotation": {"number": 64, "value": 0}, "group": "control_change"}, {"time": 1469, "annotation": {"number": 64, "value": 127}, "group": "control_change"}, {"time": 1515, "annotation": {"number": 64, "value": 38}, "group": "control_change"}, {"time": 1515, "annotation": {"number": 64, "value": 0}, "group": "control_change"}, {"time": 1517, "annotation": {"number": 64, "value": 127}, "group": "control_change"}, {"time": 1563, "annotation": {"number": 64, "value": 0}, "group": "control_change"}, {"time": 1565, "annotation": {"number": 64, "value": 127}, "group": "control_change"}, {"time": 1634, "annotation": {"number": 64, "value": 38}, "group": "control_change"}, {"time": 1634, "annotation": {"number": 64, "value": 0}, "group": "control_change"}, {"time": 1637, "annotation": {"number": 64, "value": 127}, "group": "control_change"}, {"time": 1658, "annotation": {"number": 64, "value": 74}, "group": "control_change"}, {"time": 1658, "annotation": {"number": 64, "value": 0}, "group": "control_change"}, {"time": 1661, "annotation": {"number": 64, "value": 127}, "group": "control_change"}, {"time": 1706, "annotation": {"number": 64, "value": 123}, "group": "control_change"}, {"time": 1708, "annotation": {"number": 64, "value": 120}, "group": "control_change"}, {"time": 1754, "annotation": {"number": 64, "value": 38}, "group": "control_change"}, {"time": 1755, "annotation": {"number": 64, "value": 0}, "group": "control_change"}, {"time": 1756, "annotation": {"number": 64, "value": 127}, "group": "control_change"}, {"time": 1766, "annotation": {"number": 64, "value": 74}, "group": "control_change"}, {"time": 1766, "annotation": {"number": 64, "value": 38}, "group": "control_change"}, {"time": 1766, "annotation": {"number": 64, "value": 0}, "group": "control_change"}, {"time": 1768, "annotation": {"number": 64, "value": 127}, "group": "control_change"}, {"time": 1803, "annotation": {"number": 64, "value": 38}, "group": "control_change"}, {"time": 1803, "annotation": {"number": 64, "value": 0}, "group": "control_change"}, {"time": 1805, "annotation": {"number": 64, "value": 127}, "group": "control_change"}, {"time": 1875, "annotation": {"number": 64, "value": 38}, "group": "control_change"}, {"time": 1875, "annotation": {"number": 64, "value": 0}, "group": "control_change"}, {"time": 1876, "annotation": {"number": 64, "value": 127}, "group": "control_change"}, {"time": 1899, "annotation": {"number": 64, "value": 0}, "group": "control_change"}, {"time": 1900, "annotation": {"number": 64, "value": 127}, "group": "control_change"}, {"time": 1951, "annotation": {"number": 64, "value": 127}, "group": "control_change"}, {"time": 1970, "annotation": {"number": 64, "value": 0}, "group": "control_change"}, {"time": 1972, "annotation": {"number": 64, "value": 38}, "group": "control_change"}, {"time": 1973, "annotation": {"number": 64, "value": 127}, "group": "control_change"}, {"time": 1993, "annotation": {"number": 64, "value": 74}, "group": "control_change"}, {"time": 1993, "annotation": {"number": 64, "value": 38}, "group": "control_change"}, {"time": 1993, "annotation": {"number": 64, "value": 0}, "group": "control_change"}, {"time": 1995, "annotation": {"number": 64, "value": 127}, "group": "control_change"}, {"time": 2041, "annotation": {"number": 64, "value": 0}, "group": "control_change"}, {"time": 2043, "annotation": {"number": 64, "value": 38}, "group": "control_change"}, {"time": 2043, "annotation": {"number": 64, "value": 127}, "group": "control_change"}, {"time": 2066, "annotation": {"number": 64, "value": 74}, "group": "control_change"}, {"time": 2066, "annotation": {"number": 64, "value": 0}, "group": "control_change"}, {"time": 2068, "annotation": {"number": 64, "value": 127}, "group": "control_change"}, {"time": 2089, "annotation": {"number": 64, "value": 74}, "group": "control_change"}, {"time": 2090, "annotation": {"number": 64, "value": 0}, "group": "control_change"}, {"time": 2092, "annotation": {"number": 64, "value": 127}, "group": "control_change"}, {"time": 2140, "annotation": {"number": 64, "value": 38}, "group": "control_change"}, {"time": 2140, "annotation": {"number": 64, "value": 0}, "group": "control_change"}, {"time": 2424, "annotation": {"number": 64, "value": 0}, "group": "control_change"}, {"time": 2427, "annotation": {"number": 64, "value": 127}, "group": "control_change"}, {"time": 2475, "annotation": {"number": 64, "value": 38}, "group": "control_change"}, {"time": 2475, "annotation": {"number": 64, "value": 0}, "group": "control_change"}, {"time": 2475, "annotation": {"number": 64, "value": 127}, "group": "control_change"}, {"time": 2523, "annotation": {"number": 64, "value": 74}, "group": "control_change"}, {"time": 2523, "annotation": {"number": 64, "value": 0}, "group": "control_change"}, {"time": 2524, "annotation": {"number": 64, "value": 127}, "group": "control_change"}, {"time": 2571, "annotation": {"number": 64, "value": 74}, "group": "control_change"}, {"time": 2571, "annotation": {"number": 64, "value": 0}, "group": "control_change"}, {"time": 2573, "annotation": {"number": 64, "value": 127}, "group": "control_change"}, {"time": 2618, "annotation": {"number": 64, "value": 38}, "group": "control_change"}, {"time": 2618, "annotation": {"number": 64, "value": 0}, "group": "control_change"}, {"time": 2620, "annotation": {"number": 64, "value": 127}, "group": "control_change"}, {"time": 2635, "annotation": {"number": 64, "value": 38}, "group": "control_change"}, {"time": 2635, "annotation": {"number": 64, "value": 0}, "group": "control_change"}, {"time": 2643, "annotation": {"number": 64, "value": 0}, "group": "control_change"}, {"time": 2644, "annotation": {"number": 64, "value": 127}, "group": "control_change"}, {"time": 2667, "annotation": {"number": 64, "value": 38}, "group": "control_change"}, {"time": 2667, "annotation": {"number": 64, "value": 0}, "group": "control_change"}, {"time": 2668, "annotation": {"number": 64, "value": 127}, "group": "control_change"}, {"time": 2670, "annotation": {"number": 64, "value": 127}, "group": "control_change"}, {"time": 2687, "annotation": {"number": 64, "value": 38}, "group": "control_change"}, {"time": 2687, "annotation": {"number": 64, "value": 0}, "group": "control_change"}, {"time": 2691, "annotation": {"number": 64, "value": 74}, "group": "control_change"}, {"time": 2691, "annotation": {"number": 64, "value": 0}, "group": "control_change"}, {"time": 2692, "annotation": {"number": 64, "value": 127}, "group": "control_change"}, {"time": 2693, "annotation": {"number": 64, "value": 74}, "group": "control_change"}, {"time": 2693, "annotation": {"number": 64, "value": 127}, "group": "control_change"}, {"time": 2714, "annotation": {"number": 64, "value": 74}, "group": "control_change"}, {"time": 2714, "annotation": {"number": 64, "value": 127}, "group": "control_change"}, {"time": 2714, "annotation": {"number": 64, "value": 0}, "group": "control_change"}, {"time": 2717, "annotation": {"number": 64, "value": 127}, "group": "control_change"}, {"time": 2739, "annotation": {"number": 64, "value": 38}, "group": "control_change"}, {"time": 2739, "annotation": {"number": 64, "value": 0}, "group": "control_change"}, {"time": 2740, "annotation": {"number": 64, "value": 127}, "group": "control_change"}, {"time": 2760, "annotation": {"number": 64, "value": 0}, "group": "control_change"}, {"time": 2765, "annotation": {"number": 64, "value": 127}, "group": "control_change"}, {"time": 2780, "annotation": {"number": 64, "value": 74}, "group": "control_change"}, {"time": 2780, "annotation": {"number": 64, "value": 127}, "group": "control_change"}, {"time": 2780, "annotation": {"number": 64, "value": 0}, "group": "control_change"}, {"time": 2781, "annotation": {"number": 64, "value": 127}, "group": "control_change"}, {"time": 2798, "annotation": {"number": 64, "value": 38}, "group": "control_change"}, {"time": 2798, "annotation": {"number": 64, "value": 0}, "group": "control_change"}, {"time": 2800, "annotation": {"number": 64, "value": 127}, "group": "control_change"}, {"time": 2810, "annotation": {"number": 64, "value": 0}, "group": "control_change"}, {"time": 2812, "annotation": {"number": 64, "value": 127}, "group": "control_change"}, {"time": 2833, "annotation": {"number": 64, "value": 38}, "group": "control_change"}, {"time": 2833, "annotation": {"number": 64, "value": 0}, "group": "control_change"}, {"time": 2835, "annotation": {"number": 64, "value": 127}, "group": "control_change"}, {"time": 2841, "annotation": {"number": 64, "value": 74}, "group": "control_change"}, {"time": 2841, "annotation": {"number": 64, "value": 38}, "group": "control_change"}, {"time": 2841, "annotation": {"number": 64, "value": 127}, "group": "control_change"}, {"time": 2857, "annotation": {"number": 64, "value": 38}, "group": "control_change"}, {"time": 2857, "annotation": {"number": 64, "value": 0}, "group": "control_change"}, {"time": 2860, "annotation": {"number": 64, "value": 127}, "group": "control_change"}, {"time": 2861, "annotation": {"number": 64, "value": 127}, "group": "control_change"}, {"time": 2867, "annotation": {"number": 64, "value": 74}, "group": "control_change"}, {"time": 2867, "annotation": {"number": 64, "value": 127}, "group": "control_change"}, {"time": 2868, "annotation": {"number": 64, "value": 74}, "group": "control_change"}, {"time": 2868, "annotation": {"number": 64, "value": 0}, "group": "control_change"}, {"time": 2872, "annotation": {"number": 64, "value": 127}, "group": "control_change"}, {"time": 2882, "annotation": {"number": 64, "value": 74}, "group": "control_change"}, {"time": 2882, "annotation": {"number": 64, "value": 0}, "group": "control_change"}, {"time": 2884, "annotation": {"number": 64, "value": 74}, "group": "control_change"}, {"time": 2884, "annotation": {"number": 64, "value": 127}, "group": "control_change"}, {"time": 2905, "annotation": {"number": 64, "value": 0}, "group": "control_change"}, {"time": 2908, "annotation": {"number": 64, "value": 127}, "group": "control_change"}, {"time": 2924, "annotation": {"number": 64, "value": 0}, "group": "control_change"}, {"time": 2926, "annotation": {"number": 64, "value": 127}, "group": "control_change"}, {"time": 2942, "annotation": {"number": 64, "value": 38}, "group": "control_change"}, {"time": 2942, "annotation": {"number": 64, "value": 0}, "group": "control_change"}, {"time": 2944, "annotation": {"number": 64, "value": 127}, "group": "control_change"}, {"time": 2953, "annotation": {"number": 64, "value": 38}, "group": "control_change"}, {"time": 2953, "annotation": {"number": 64, "value": 0}, "group": "control_change"}, {"time": 2956, "annotation": {"number": 64, "value": 127}, "group": "control_change"}, {"time": 2964, "annotation": {"number": 64, "value": 38}, "group": "control_change"}, {"time": 2964, "annotation": {"number": 64, "value": 127}, "group": "control_change"}, {"time": 2965, "annotation": {"number": 64, "value": 38}, "group": "control_change"}, {"time": 2965, "annotation": {"number": 64, "value": 0}, "group": "control_change"}, {"time": 2967, "annotation": {"number": 64, "value": 127}, "group": "control_change"}, {"time": 2974, "annotation": {"number": 64, "value": 38}, "group": "control_change"}, {"time": 2974, "annotation": {"number": 64, "value": 127}, "group": "control_change"}, {"time": 2990, "annotation": {"number": 64, "value": 0}, "group": "control_change"}, {"time": 2992, "annotation": {"number": 64, "value": 127}, "group": "control_change"}, {"time": 3002, "annotation": {"number": 64, "value": 0}, "group": "control_change"}, {"time": 3004, "annotation": {"number": 64, "value": 127}, "group": "control_change"}, {"time": 3013, "annotation": {"number": 64, "value": 0}, "group": "control_change"}, {"time": 3015, "annotation": {"number": 64, "value": 127}, "group": "control_change"}, {"time": 3038, "annotation": {"number": 64, "value": 38}, "group": "control_change"}, {"time": 3038, "annotation": {"number": 64, "value": 0}, "group": "control_change"}, {"time": 3040, "annotation": {"number": 64, "value": 127}, "group": "control_change"}, {"time": 3048, "annotation": {"number": 64, "value": 38}, "group": "control_change"}, {"time": 3049, "annotation": {"number": 64, "value": 127}, "group": "control_change"}, {"time": 3050, "annotation": {"number": 64, "value": 74}, "group": "control_change"}, {"time": 3050, "annotation": {"number": 64, "value": 0}, "group": "control_change"}, {"time": 3052, "annotation": {"number": 64, "value": 127}, "group": "control_change"}, {"time": 3074, "annotation": {"number": 64, "value": 0}, "group": "control_change"}, {"time": 3076, "annotation": {"number": 64, "value": 127}, "group": "control_change"}, {"time": 3087, "annotation": {"number": 64, "value": 38}, "group": "control_change"}, {"time": 3087, "annotation": {"number": 64, "value": 0}, "group": "control_change"}, {"time": 3089, "annotation": {"number": 64, "value": 127}, "group": "control_change"}, {"time": 3098, "annotation": {"number": 64, "value": 0}, "group": "control_change"}, {"time": 3100, "annotation": {"number": 64, "value": 127}, "group": "control_change"}, {"time": 3146, "annotation": {"number": 64, "value": 74}, "group": "control_change"}, {"time": 3146, "annotation": {"number": 64, "value": 0}, "group": "control_change"}, {"time": 3148, "annotation": {"number": 64, "value": 127}, "group": "control_change"}, {"time": 3159, "annotation": {"number": 64, "value": 0}, "group": "control_change"}, {"time": 3161, "annotation": {"number": 64, "value": 127}, "group": "control_change"}, {"time": 3169, "annotation": {"number": 64, "value": 38}, "group": "control_change"}, {"time": 3169, "annotation": {"number": 64, "value": 0}, "group": "control_change"}, {"time": 3169, "annotation": {"number": 64, "value": 127}, "group": "control_change"}, {"time": 3183, "annotation": {"number": 64, "value": 38}, "group": "control_change"}, {"time": 3183, "annotation": {"number": 64, "value": 0}, "group": "control_change"}, {"time": 3184, "annotation": {"number": 64, "value": 127}, "group": "control_change"}, {"time": 3193, "annotation": {"number": 64, "value": 38}, "group": "control_change"}, {"time": 3194, "annotation": {"number": 64, "value": 0}, "group": "control_change"}, {"time": 3196, "annotation": {"number": 64, "value": 127}, "group": "control_change"}, {"time": 3197, "annotation": {"number": 64, "value": 127}, "group": "control_change"}, {"time": 3199, "annotation": {"number": 64, "value": 38}, "group": "control_change"}, {"time": 3199, "annotation": {"number": 64, "value": 0}, "group": "control_change"}, {"time": 3199, "annotation": {"number": 64, "value": 127}, "group": "control_change"}, {"time": 3200, "annotation": {"number": 64, "value": 74}, "group": "control_change"}, {"time": 3200, "annotation": {"number": 64, "value": 0}, "group": "control_change"}, {"time": 3205, "annotation": {"number": 64, "value": 74}, "group": "control_change"}, {"time": 3205, "annotation": {"number": 64, "value": 0}, "group": "control_change"}, {"time": 3205, "annotation": {"number": 64, "value": 127}, "group": "control_change"}, {"time": 3206, "annotation": {"number": 64, "value": 74}, "group": "control_change"}, {"time": 3206, "annotation": {"number": 64, "value": 0}, "group": "control_change"}, {"time": 3208, "annotation": {"number": 64, "value": 127}, "group": "control_change"}, {"time": 3216, "annotation": {"number": 64, "value": 38}, "group": "control_change"}, {"time": 3216, "annotation": {"number": 64, "value": 127}, "group": "control_change"}, {"time": 3232, "annotation": {"number": 64, "value": 38}, "group": "control_change"}, {"time": 3232, "annotation": {"number": 64, "value": 0}, "group": "control_change"}, {"time": 3233, "annotation": {"number": 64, "value": 127}, "group": "control_change"}, {"time": 3242, "annotation": {"number": 64, "value": 38}, "group": "control_change"}, {"time": 3242, "annotation": {"number": 64, "value": 0}, "group": "control_change"}, {"time": 3244, "annotation": {"number": 64, "value": 127}, "group": "control_change"}, {"time": 3265, "annotation": {"number": 64, "value": 74}, "group": "control_change"}, {"time": 3265, "annotation": {"number": 64, "value": 38}, "group": "control_change"}, {"time": 3266, "annotation": {"number": 64, "value": 0}, "group": "control_change"}, {"time": 3266, "annotation": {"number": 64, "value": 38}, "group": "control_change"}, {"time": 3266, "annotation": {"number": 64, "value": 74}, "group": "control_change"}, {"time": 3266, "annotation": {"number": 64, "value": 127}, "group": "control_change"}, {"time": 3267, "annotation": {"number": 64, "value": 0}, "group": "control_change"}, {"time": 3268, "annotation": {"number": 64, "value": 127}, "group": "control_change"}, {"time": 3289, "annotation": {"number": 64, "value": 0}, "group": "control_change"}, {"time": 3289, "annotation": {"number": 64, "value": 38}, "group": "control_change"}, {"time": 3289, "annotation": {"number": 64, "value": 127}, "group": "control_change"}, {"time": 3290, "annotation": {"number": 64, "value": 74}, "group": "control_change"}, {"time": 3290, "annotation": {"number": 64, "value": 0}, "group": "control_change"}, {"time": 3292, "annotation": {"number": 64, "value": 127}, "group": "control_change"}, {"time": 3324, "annotation": {"number": 64, "value": 38}, "group": "control_change"}, {"time": 3324, "annotation": {"number": 64, "value": 0}, "group": "control_change"}, {"time": 3324, "annotation": {"number": 64, "value": 127}, "group": "control_change"}, {"time": 3325, "annotation": {"number": 64, "value": 0}, "group": "control_change"}, {"time": 3327, "annotation": {"number": 64, "value": 127}, "group": "control_change"}, {"time": 3336, "annotation": {"number": 64, "value": 38}, "group": "control_change"}, {"time": 3336, "annotation": {"number": 64, "value": 0}, "group": "control_change"}, {"time": 3336, "annotation": {"number": 64, "value": 127}, "group": "control_change"}, {"time": 3338, "annotation": {"number": 64, "value": 0}, "group": "control_change"}, {"time": 3339, "annotation": {"number": 64, "value": 127}, "group": "control_change"}, {"time": 3362, "annotation": {"number": 64, "value": 0}, "group": "control_change"}, {"time": 3364, "annotation": {"number": 64, "value": 127}, "group": "control_change"}, {"time": 3386, "annotation": {"number": 64, "value": 0}, "group": "control_change"}, {"time": 3387, "annotation": {"number": 64, "value": 74}, "group": "control_change"}, {"time": 3388, "annotation": {"number": 64, "value": 127}, "group": "control_change"}, {"time": 3398, "annotation": {"number": 64, "value": 38}, "group": "control_change"}, {"time": 3398, "annotation": {"number": 64, "value": 0}, "group": "control_change"}, {"time": 3399, "annotation": {"number": 64, "value": 127}, "group": "control_change"}, {"time": 3410, "annotation": {"number": 64, "value": 74}, "group": "control_change"}, {"time": 3410, "annotation": {"number": 64, "value": 0}, "group": "control_change"}, {"time": 3412, "annotation": {"number": 64, "value": 127}, "group": "control_change"}, {"time": 3422, "annotation": {"number": 64, "value": 38}, "group": "control_change"}, {"time": 3422, "annotation": {"number": 64, "value": 0}, "group": "control_change"}, {"time": 3424, "annotation": {"number": 64, "value": 127}, "group": "control_change"}, {"time": 3435, "annotation": {"number": 64, "value": 38}, "group": "control_change"}, {"time": 3435, "annotation": {"number": 64, "value": 0}, "group": "control_change"}, {"time": 3436, "annotation": {"number": 64, "value": 74}, "group": "control_change"}, {"time": 3436, "annotation": {"number": 64, "value": 127}, "group": "control_change"}, {"time": 3446, "annotation": {"number": 64, "value": 74}, "group": "control_change"}, {"time": 3446, "annotation": {"number": 64, "value": 0}, "group": "control_change"}, {"time": 3448, "annotation": {"number": 64, "value": 127}, "group": "control_change"}, {"time": 3459, "annotation": {"number": 64, "value": 74}, "group": "control_change"}, {"time": 3459, "annotation": {"number": 64, "value": 0}, "group": "control_change"}, {"time": 3460, "annotation": {"number": 64, "value": 74}, "group": "control_change"}, {"time": 3460, "annotation": {"number": 64, "value": 127}, "group": "control_change"}, {"time": 3471, "annotation": {"number": 64, "value": 0}, "group": "control_change"}, {"time": 3472, "annotation": {"number": 64, "value": 74}, "group": "control_change"}, {"time": 3472, "annotation": {"number": 64, "value": 127}, "group": "control_change"}, {"time": 3481, "annotation": {"number": 64, "value": 0}, "group": "control_change"}, {"time": 3483, "annotation": {"number": 64, "value": 127}, "group": "control_change"}, {"time": 3506, "annotation": {"number": 64, "value": 38}, "group": "control_change"}, {"time": 3506, "annotation": {"number": 64, "value": 0}, "group": "control_change"}, {"time": 3507, "annotation": {"number": 64, "value": 127}, "group": "control_change"}, {"time": 3518, "annotation": {"number": 64, "value": 74}, "group": "control_change"}, {"time": 3518, "annotation": {"number": 64, "value": 0}, "group": "control_change"}, {"time": 3520, "annotation": {"number": 64, "value": 127}, "group": "control_change"}, {"time": 3529, "annotation": {"number": 64, "value": 38}, "group": "control_change"}, {"time": 3529, "annotation": {"number": 64, "value": 127}, "group": "control_change"}, {"time": 3530, "annotation": {"number": 64, "value": 0}, "group": "control_change"}, {"time": 3532, "annotation": {"number": 64, "value": 127}, "group": "control_change"}, {"time": 3541, "annotation": {"number": 64, "value": 38}, "group": "control_change"}, {"time": 3541, "annotation": {"number": 64, "value": 127}, "group": "control_change"}, {"time": 3542, "annotation": {"number": 64, "value": 38}, "group": "control_change"}, {"time": 3543, "annotation": {"number": 64, "value": 0}, "group": "control_change"}, {"time": 3543, "annotation": {"number": 64, "value": 74}, "group": "control_change"}, {"time": 3543, "annotation": {"number": 64, "value": 127}, "group": "control_change"}, {"time": 3553, "annotation": {"number": 64, "value": 74}, "group": "control_change"}, {"time": 3553, "annotation": {"number": 64, "value": 38}, "group": "control_change"}, {"time": 3553, "annotation": {"number": 64, "value": 127}, "group": "control_change"}, {"time": 3554, "annotation": {"number": 64, "value": 0}, "group": "control_change"}, {"time": 3555, "annotation": {"number": 64, "value": 127}, "group": "control_change"}, {"time": 3566, "annotation": {"number": 64, "value": 0}, "group": "control_change"}, {"time": 3567, "annotation": {"number": 64, "value": 127}, "group": "control_change"}, {"time": 3579, "annotation": {"number": 64, "value": 38}, "group": "control_change"}, {"time": 3579, "annotation": {"number": 64, "value": 0}, "group": "control_change"}, {"time": 3579, "annotation": {"number": 64, "value": 127}, "group": "control_change"}, {"time": 3589, "annotation": {"number": 64, "value": 74}, "group": "control_change"}, {"time": 3589, "annotation": {"number": 64, "value": 0}, "group": "control_change"}, {"time": 3591, "annotation": {"number": 64, "value": 127}, "group": "control_change"}, {"time": 3612, "annotation": {"number": 64, "value": 38}, "group": "control_change"}, {"time": 3612, "annotation": {"number": 64, "value": 0}, "group": "control_change"}, {"time": 3614, "annotation": {"number": 64, "value": 127}, "group": "control_change"}, {"time": 3623, "annotation": {"number": 64, "value": 74}, "group": "control_change"}, {"time": 3623, "annotation": {"number": 64, "value": 0}, "group": "control_change"}, {"time": 3623, "annotation": {"number": 64, "value": 127}, "group": "control_change"}, {"time": 3624, "annotation": {"number": 64, "value": 38}, "group": "control_change"}, {"time": 3625, "annotation": {"number": 64, "value": 0}, "group": "control_change"}, {"time": 3626, "annotation": {"number": 64, "value": 127}, "group": "control_change"}, {"time": 3638, "annotation": {"number": 64, "value": 74}, "group": "control_change"}, {"time": 3638, "annotation": {"number": 64, "value": 38}, "group": "control_change"}, {"time": 3638, "annotation": {"number": 64, "value": 127}, "group": "control_change"}, {"time": 3672, "annotation": {"number": 64, "value": 38}, "group": "control_change"}, {"time": 3672, "annotation": {"number": 64, "value": 0}, "group": "control_change"}, {"time": 3674, "annotation": {"number": 64, "value": 127}, "group": "control_change"}, {"time": 3683, "annotation": {"number": 64, "value": 0}, "group": "control_change"}, {"time": 3684, "annotation": {"number": 64, "value": 74}, "group": "control_change"}, {"time": 3684, "annotation": {"number": 64, "value": 127}, "group": "control_change"}, {"time": 3684, "annotation": {"number": 64, "value": 0}, "group": "control_change"}, {"time": 3686, "annotation": {"number": 64, "value": 127}, "group": "control_change"}, {"time": 3696, "annotation": {"number": 64, "value": 74}, "group": "control_change"}, {"time": 3696, "annotation": {"number": 64, "value": 127}, "group": "control_change"}, {"time": 3697, "annotation": {"number": 64, "value": 74}, "group": "control_change"}, {"time": 3697, "annotation": {"number": 64, "value": 0}, "group": "control_change"}, {"time": 3698, "annotation": {"number": 64, "value": 127}, "group": "control_change"}, {"time": 3708, "annotation": {"number": 64, "value": 38}, "group": "control_change"}, {"time": 3708, "annotation": {"number": 64, "value": 127}, "group": "control_change"}, {"time": 3708, "annotation": {"number": 64, "value": 0}, "group": "control_change"}, {"time": 3710, "annotation": {"number": 64, "value": 127}, "group": "control_change"}, {"time": 3719, "annotation": {"number": 64, "value": 74}, "group": "control_change"}, {"time": 3719, "annotation": {"number": 64, "value": 38}, "group": "control_change"}, {"time": 3719, "annotation": {"number": 64, "value": 0}, "group": "control_change"}, {"time": 3719, "annotation": {"number": 64, "value": 127}, "group": "control_change"}, {"time": 3721, "annotation": {"number": 64, "value": 0}, "group": "control_change"}, {"time": 3723, "annotation": {"number": 64, "value": 127}, "group": "control_change"}, {"time": 3744, "annotation": {"number": 64, "value": 74}, "group": "control_change"}, {"time": 3744, "annotation": {"number": 64, "value": 38}, "group": "control_change"}, {"time": 3744, "annotation": {"number": 64, "value": 0}, "group": "control_change"}, {"time": 3744, "annotation": {"number": 64, "value": 127}, "group": "control_change"}, {"time": 3745, "annotation": {"number": 64, "value": 0}, "group": "control_change"}, {"time": 3747, "annotation": {"number": 64, "value": 127}, "group": "control_change"}, {"time": 3756, "annotation": {"number": 64, "value": 38}, "group": "control_change"}, {"time": 3757, "annotation": {"number": 64, "value": 0}, "group": "control_change"}, {"time": 3758, "annotation": {"number": 64, "value": 127}, "group": "control_change"}, {"time": 3767, "annotation": {"number": 64, "value": 38}, "group": "control_change"}, {"time": 3767, "annotation": {"number": 64, "value": 127}, "group": "control_change"}, {"time": 3768, "annotation": {"number": 64, "value": 0}, "group": "control_change"}, {"time": 3770, "annotation": {"number": 64, "value": 127}, "group": "control_change"}, {"time": 3792, "annotation": {"number": 64, "value": 74}, "group": "control_change"}, {"time": 3792, "annotation": {"number": 64, "value": 127}, "group": "control_change"}, {"time": 3793, "annotation": {"number": 64, "value": 38}, "group": "control_change"}, {"time": 3793, "annotation": {"number": 64, "value": 0}, "group": "control_change"}, {"time": 3794, "annotation": {"number": 64, "value": 38}, "group": "control_change"}, {"time": 3794, "annotation": {"number": 64, "value": 127}, "group": "control_change"}, {"time": 3802, "annotation": {"number": 64, "value": 74}, "group": "control_change"}, {"time": 3802, "annotation": {"number": 64, "value": 127}, "group": "control_change"}, {"time": 3803, "annotation": {"number": 64, "value": 38}, "group": "control_change"}, {"time": 3803, "annotation": {"number": 64, "value": 0}, "group": "control_change"}, {"time": 3805, "annotation": {"number": 64, "value": 127}, "group": "control_change"}, {"time": 3814, "annotation": {"number": 64, "value": 74}, "group": "control_change"}, {"time": 3815, "annotation": {"number": 64, "value": 0}, "group": "control_change"}, {"time": 3815, "annotation": {"number": 64, "value": 38}, "group": "control_change"}, {"time": 3815, "annotation": {"number": 64, "value": 127}, "group": "control_change"}, {"time": 3816, "annotation": {"number": 64, "value": 38}, "group": "control_change"}, {"time": 3816, "annotation": {"number": 64, "value": 0}, "group": "control_change"}, {"time": 3818, "annotation": {"number": 64, "value": 127}, "group": "control_change"}, {"time": 3829, "annotation": {"number": 64, "value": 38}, "group": "control_change"}, {"time": 3829, "annotation": {"number": 64, "value": 0}, "group": "control_change"}, {"time": 3830, "annotation": {"number": 64, "value": 127}, "group": "control_change"}, {"time": 3841, "annotation": {"number": 64, "value": 38}, "group": "control_change"}, {"time": 3841, "annotation": {"number": 64, "value": 0}, "group": "control_change"}, {"time": 3841, "annotation": {"number": 64, "value": 127}, "group": "control_change"}, {"time": 3842, "annotation": {"number": 64, "value": 74}, "group": "control_change"}, {"time": 3842, "annotation": {"number": 64, "value": 0}, "group": "control_change"}, {"time": 3842, "annotation": {"number": 64, "value": 127}, "group": "control_change"}, {"time": 3864, "annotation": {"number": 64, "value": 38}, "group": "control_change"}, {"time": 3864, "annotation": {"number": 64, "value": 0}, "group": "control_change"}, {"time": 3864, "annotation": {"number": 64, "value": 127}, "group": "control_change"}, {"time": 3865, "annotation": {"number": 64, "value": 0}, "group": "control_change"}, {"time": 3866, "annotation": {"number": 64, "value": 127}, "group": "control_change"}, {"time": 3900, "annotation": {"number": 64, "value": 74}, "group": "control_change"}, {"time": 3900, "annotation": {"number": 64, "value": 0}, "group": "control_change"}, {"time": 3900, "annotation": {"number": 64, "value": 127}, "group": "control_change"}, {"time": 3913, "annotation": {"number": 64, "value": 74}, "group": "control_change"}, {"time": 3913, "annotation": {"number": 64, "value": 0}, "group": "control_change"}, {"time": 3915, "annotation": {"number": 64, "value": 127}, "group": "control_change"}, {"time": 3959, "annotation": {"number": 64, "value": 38}, "group": "control_change"}, {"time": 3959, "annotation": {"number": 64, "value": 0}, "group": "control_change"}, {"time": 3960, "annotation": {"number": 64, "value": 127}, "group": "control_change"}, {"time": 3961, "annotation": {"number": 64, "value": 38}, "group": "control_change"}, {"time": 3961, "annotation": {"number": 64, "value": 0}, "group": "control_change"}, {"time": 3962, "annotation": {"number": 64, "value": 127}, "group": "control_change"}, {"time": 3972, "annotation": {"number": 64, "value": 74}, "group": "control_change"}, {"time": 3972, "annotation": {"number": 64, "value": 127}, "group": "control_change"}, {"time": 3973, "annotation": {"number": 64, "value": 0}, "group": "control_change"}, {"time": 3974, "annotation": {"number": 64, "value": 127}, "group": "control_change"}, {"time": 3984, "annotation": {"number": 64, "value": 74}, "group": "control_change"}, {"time": 3984, "annotation": {"number": 64, "value": 0}, "group": "control_change"}, {"time": 3986, "annotation": {"number": 64, "value": 127}, "group": "control_change"}, {"time": 3996, "annotation": {"number": 64, "value": 38}, "group": "control_change"}, {"time": 3996, "annotation": {"number": 64, "value": 0}, "group": "control_change"}, {"time": 3998, "annotation": {"number": 64, "value": 127}, "group": "control_change"}, {"time": 4008, "annotation": {"number": 64, "value": 74}, "group": "control_change"}, {"time": 4008, "annotation": {"number": 64, "value": 0}, "group": "control_change"}, {"time": 4010, "annotation": {"number": 64, "value": 127}, "group": "control_change"}, {"time": 4032, "annotation": {"number": 64, "value": 38}, "group": "control_change"}, {"time": 4032, "annotation": {"number": 64, "value": 0}, "group": "control_change"}, {"time": 4034, "annotation": {"number": 64, "value": 127}, "group": "control_change"}, {"time": 4044, "annotation": {"number": 64, "value": 0}, "group": "control_change"}, {"time": 4045, "annotation": {"number": 64, "value": 127}, "group": "control_change"}, {"time": 4056, "annotation": {"number": 64, "value": 38}, "group": "control_change"}, {"time": 4056, "annotation": {"number": 64, "value": 0}, "group": "control_change"}, {"time": 4058, "annotation": {"number": 64, "value": 127}, "group": "control_change"}, {"time": 4069, "annotation": {"number": 64, "value": 0}, "group": "control_change"}, {"time": 4070, "annotation": {"number": 64, "value": 127}, "group": "control_change"}, {"time": 4079, "annotation": {"number": 64, "value": 38}, "group": "control_change"}, {"time": 4080, "annotation": {"number": 64, "value": 0}, "group": "control_change"}, {"time": 4080, "annotation": {"number": 64, "value": 127}, "group": "control_change"}, {"time": 4080, "annotation": {"number": 64, "value": 74}, "group": "control_change"}, {"time": 4082, "annotation": {"number": 64, "value": 127}, "group": "control_change"}, {"time": 4093, "annotation": {"number": 64, "value": 38}, "group": "control_change"}, {"time": 4093, "annotation": {"number": 64, "value": 0}, "group": "control_change"}, {"time": 4094, "annotation": {"number": 64, "value": 74}, "group": "control_change"}, {"time": 4094, "annotation": {"number": 64, "value": 127}, "group": "control_change"}, {"time": 4104, "annotation": {"number": 64, "value": 74}, "group": "control_change"}, {"time": 4104, "annotation": {"number": 64, "value": 0}, "group": "control_change"}, {"time": 4106, "annotation": {"number": 64, "value": 127}, "group": "control_change"}, {"time": 4127, "annotation": {"number": 64, "value": 38}, "group": "control_change"}, {"time": 4127, "annotation": {"number": 64, "value": 0}, "group": "control_change"}, {"time": 4128, "annotation": {"number": 64, "value": 127}, "group": "control_change"}, {"time": 4128, "annotation": {"number": 64, "value": 38}, "group": "control_change"}, {"time": 4128, "annotation": {"number": 64, "value": 0}, "group": "control_change"}, {"time": 4130, "annotation": {"number": 64, "value": 127}, "group": "control_change"}, {"time": 4140, "annotation": {"number": 64, "value": 0}, "group": "control_change"}, {"time": 4141, "annotation": {"number": 64, "value": 127}, "group": "control_change"}, {"time": 4151, "annotation": {"number": 64, "value": 38}, "group": "control_change"}, {"time": 4152, "annotation": {"number": 64, "value": 0}, "group": "control_change"}, {"time": 4154, "annotation": {"number": 64, "value": 127}, "group": "control_change"}, {"time": 4164, "annotation": {"number": 64, "value": 38}, "group": "control_change"}, {"time": 4164, "annotation": {"number": 64, "value": 0}, "group": "control_change"}, {"time": 4166, "annotation": {"number": 64, "value": 127}, "group": "control_change"}, {"time": 4176, "annotation": {"number": 64, "value": 74}, "group": "control_change"}, {"time": 4176, "annotation": {"number": 64, "value": 0}, "group": "control_change"}, {"time": 4176, "annotation": {"number": 64, "value": 127}, "group": "control_change"}, {"time": 4177, "annotation": {"number": 64, "value": 38}, "group": "control_change"}, {"time": 4177, "annotation": {"number": 64, "value": 0}, "group": "control_change"}, {"time": 4178, "annotation": {"number": 64, "value": 127}, "group": "control_change"}, {"time": 4188, "annotation": {"number": 64, "value": 38}, "group": "control_change"}, {"time": 4188, "annotation": {"number": 64, "value": 127}, "group": "control_change"}, {"time": 4188, "annotation": {"number": 64, "value": 0}, "group": "control_change"}, {"time": 4190, "annotation": {"number": 64, "value": 127}, "group": "control_change"}, {"time": 4199, "annotation": {"number": 64, "value": 0}, "group": "control_change"}, {"time": 4200, "annotation": {"number": 64, "value": 127}, "group": "control_change"}, {"time": 4200, "annotation": {"number": 64, "value": 38}, "group": "control_change"}, {"time": 4200, "annotation": {"number": 64, "value": 0}, "group": "control_change"}, {"time": 4202, "annotation": {"number": 64, "value": 74}, "group": "control_change"}, {"time": 4202, "annotation": {"number": 64, "value": 127}, "group": "control_change"}, {"time": 4212, "annotation": {"number": 64, "value": 38}, "group": "control_change"}, {"time": 4212, "annotation": {"number": 64, "value": 0}, "group": "control_change"}, {"time": 4212, "annotation": {"number": 64, "value": 127}, "group": "control_change"}, {"time": 4213, "annotation": {"number": 64, "value": 0}, "group": "control_change"}, {"time": 4214, "annotation": {"number": 64, "value": 38}, "group": "control_change"}, {"time": 4214, "annotation": {"number": 64, "value": 127}, "group": "control_change"}, {"time": 4224, "annotation": {"number": 64, "value": 0}, "group": "control_change"}, {"time": 4224, "annotation": {"number": 64, "value": 127}, "group": "control_change"}, {"time": 4225, "annotation": {"number": 64, "value": 38}, "group": "control_change"}, {"time": 4225, "annotation": {"number": 64, "value": 0}, "group": "control_change"}, {"time": 4226, "annotation": {"number": 64, "value": 127}, "group": "control_change"}, {"time": 4235, "annotation": {"number": 64, "value": 74}, "group": "control_change"}, {"time": 4235, "annotation": {"number": 64, "value": 0}, "group": "control_change"}, {"time": 4236, "annotation": {"number": 64, "value": 127}, "group": "control_change"}, {"time": 4236, "annotation": {"number": 64, "value": 0}, "group": "control_change"}, {"time": 4237, "annotation": {"number": 64, "value": 127}, "group": "control_change"}, {"time": 4238, "annotation": {"number": 64, "value": 74}, "group": "control_change"}, {"time": 4238, "annotation": {"number": 64, "value": 127}, "group": "control_change"}, {"time": 4247, "annotation": {"number": 64, "value": 38}, "group": "control_change"}, {"time": 4248, "annotation": {"number": 64, "value": 0}, "group": "control_change"}, {"time": 4248, "annotation": {"number": 64, "value": 127}, "group": "control_change"}, {"time": 4248, "annotation": {"number": 64, "value": 38}, "group": "control_change"}, {"time": 4249, "annotation": {"number": 64, "value": 0}, "group": "control_change"}, {"time": 4250, "annotation": {"number": 64, "value": 127}, "group": "control_change"}, {"time": 4260, "annotation": {"number": 64, "value": 0}, "group": "control_change"}, {"time": 4260, "annotation": {"number": 64, "value": 127}, "group": "control_change"}, {"time": 4261, "annotation": {"number": 64, "value": 0}, "group": "control_change"}, {"time": 4261, "annotation": {"number": 64, "value": 127}, "group": "control_change"}, {"time": 4271, "annotation": {"number": 64, "value": 38}, "group": "control_change"}, {"time": 4272, "annotation": {"number": 64, "value": 127}, "group": "control_change"}, {"time": 4272, "annotation": {"number": 64, "value": 38}, "group": "control_change"}, {"time": 4273, "annotation": {"number": 64, "value": 0}, "group": "control_change"}, {"time": 4273, "annotation": {"number": 64, "value": 74}, "group": "control_change"}, {"time": 4273, "annotation": {"number": 64, "value": 127}, "group": "control_change"}, {"time": 4283, "annotation": {"number": 64, "value": 38}, "group": "control_change"}, {"time": 4283, "annotation": {"number": 64, "value": 0}, "group": "control_change"}, {"time": 4283, "annotation": {"number": 64, "value": 127}, "group": "control_change"}, {"time": 4284, "annotation": {"number": 64, "value": 38}, "group": "control_change"}, {"time": 4284, "annotation": {"number": 64, "value": 0}, "group": "control_change"}, {"time": 4285, "annotation": {"number": 64, "value": 74}, "group": "control_change"}, {"time": 4286, "annotation": {"number": 64, "value": 127}, "group": "control_change"}, {"time": 4294, "annotation": {"number": 64, "value": 38}, "group": "control_change"}, {"time": 4295, "annotation": {"number": 64, "value": 0}, "group": "control_change"}, {"time": 4295, "annotation": {"number": 64, "value": 38}, "group": "control_change"}, {"time": 4295, "annotation": {"number": 64, "value": 127}, "group": "control_change"}, {"time": 4296, "annotation": {"number": 64, "value": 74}, "group": "control_change"}, {"time": 4296, "annotation": {"number": 64, "value": 0}, "group": "control_change"}, {"time": 4298, "annotation": {"number": 64, "value": 127}, "group": "control_change"}, {"time": 4732, "annotation": {"number": 64, "value": 0}, "group": "control_change"}]}]}