{"metadata": {"schema_version": "0.2", "title": "None", "source_filename": "278.mid", "source_format": "midi"}, "resolution": 12, "tempos": [{"time": 0, "qpm": 126.000126000126}], "time_signatures": [{"time": 0, "numerator": 4, "denominator": 4}], "tracks": [{"program": 4, "is_drum": false, "name": "MELODY", "notes": [{"time": 4, "pitch": 69, "duration": 9, "velocity": 110}, {"time": 13, "pitch": 72, "duration": 9, "velocity": 108}, {"time": 22, "pitch": 69, "duration": 18, "velocity": 113}, {"time": 40, "pitch": 79, "duration": 19, "velocity": 102}, {"time": 59, "pitch": 76, "duration": 18, "velocity": 108}, {"time": 77, "pitch": 76, "duration": 30, "velocity": 114}, {"time": 292, "pitch": 79, "duration": 6, "velocity": 114}, {"time": 298, "pitch": 79, "duration": 6, "velocity": 110}, {"time": 304, "pitch": 79, "duration": 6, "velocity": 110}, {"time": 310, "pitch": 79, "duration": 6, "velocity": 113}, {"time": 316, "pitch": 81, "duration": 12, "velocity": 116}, {"time": 328, "pitch": 76, "duration": 12, "velocity": 117}, {"time": 340, "pitch": 79, "duration": 48, "velocity": 117}, {"time": 388, "pitch": 81, "duration": 9, "velocity": 116}, {"time": 394, "pitch": 79, "duration": 7, "velocity": 96}, {"time": 400, "pitch": 76, "duration": 6, "velocity": 102}, {"time": 406, "pitch": 74, "duration": 6, "velocity": 100}, {"time": 412, "pitch": 76, "duration": 12, "velocity": 100}, {"time": 424, "pitch": 69, "duration": 12, "velocity": 108}, {"time": 436, "pitch": 72, "duration": 48, "velocity": 108}, {"time": 484, "pitch": 81, "duration": 18, "velocity": 114}, {"time": 502, "pitch": 84, "duration": 6, "velocity": 110}, {"time": 508, "pitch": 81, "duration": 12, "velocity": 107}, {"time": 520, "pitch": 79, "duration": 12, "velocity": 110}, {"time": 532, "pitch": 81, "duration": 18, "velocity": 110}, {"time": 550, "pitch": 84, "duration": 6, "velocity": 100}, {"time": 556, "pitch": 81, "duration": 12, "velocity": 94}, {"time": 568, "pitch": 79, "duration": 6, "velocity": 108}, {"time": 574, "pitch": 79, "duration": 6, "velocity": 104}, {"time": 580, "pitch": 81, "duration": 6, "velocity": 98}, {"time": 586, "pitch": 79, "duration": 6, "velocity": 107}, {"time": 592, "pitch": 79, "duration": 6, "velocity": 110}, {"time": 598, "pitch": 79, "duration": 6, "velocity": 110}, {"time": 604, "pitch": 72, "duration": 13, "velocity": 100}, {"time": 616, "pitch": 76, "duration": 12, "velocity": 90}, {"time": 628, "pitch": 74, "duration": 48, "velocity": 91}, {"time": 676, "pitch": 79, "duration": 6, "velocity": 114}, {"time": 682, "pitch": 79, "duration": 6, "velocity": 110}, {"time": 688, "pitch": 79, "duration": 6, "velocity": 110}, {"time": 694, "pitch": 79, "duration": 6, "velocity": 113}, {"time": 700, "pitch": 81, "duration": 12, "velocity": 116}, {"time": 712, "pitch": 76, "duration": 12, "velocity": 117}, {"time": 724, "pitch": 79, "duration": 42, "velocity": 117}, {"time": 766, "pitch": 79, "duration": 6, "velocity": 94}, {"time": 772, "pitch": 81, "duration": 6, "velocity": 100}, {"time": 778, "pitch": 81, "duration": 12, "velocity": 104}, {"time": 790, "pitch": 79, "duration": 6, "velocity": 102}, {"time": 796, "pitch": 81, "duration": 12, "velocity": 113}, {"time": 808, "pitch": 76, "duration": 6, "velocity": 107}, {"time": 814, "pitch": 74, "duration": 7, "velocity": 92}, {"time": 820, "pitch": 76, "duration": 8, "velocity": 93}, {"time": 826, "pitch": 69, "duration": 6, "velocity": 97}, {"time": 832, "pitch": 72, "duration": 36, "velocity": 104}, {"time": 868, "pitch": 81, "duration": 18, "velocity": 116}, {"time": 886, "pitch": 84, "duration": 6, "velocity": 110}, {"time": 892, "pitch": 81, "duration": 12, "velocity": 116}, {"time": 904, "pitch": 79, "duration": 12, "velocity": 114}, {"time": 916, "pitch": 81, "duration": 6, "velocity": 114}, {"time": 922, "pitch": 81, "duration": 12, "velocity": 110}, {"time": 934, "pitch": 84, "duration": 6, "velocity": 113}, {"time": 940, "pitch": 81, "duration": 24, "velocity": 110}, {"time": 964, "pitch": 91, "duration": 6, "velocity": 114}, {"time": 970, "pitch": 91, "duration": 6, "velocity": 102}, {"time": 976, "pitch": 91, "duration": 6, "velocity": 100}, {"time": 982, "pitch": 91, "duration": 6, "velocity": 110}, {"time": 988, "pitch": 81, "duration": 12, "velocity": 117}, {"time": 1000, "pitch": 86, "duration": 12, "velocity": 117}, {"time": 1012, "pitch": 84, "duration": 96, "velocity": 116}, {"time": 1108, "pitch": 81, "duration": 6, "velocity": 110}, {"time": 1114, "pitch": 84, "duration": 6, "velocity": 92}, {"time": 1120, "pitch": 81, "duration": 6, "velocity": 96}, {"time": 1126, "pitch": 79, "duration": 6, "velocity": 98}, {"time": 1132, "pitch": 91, "duration": 12, "velocity": 116}, {"time": 1144, "pitch": 88, "duration": 12, "velocity": 119}, {"time": 1156, "pitch": 88, "duration": 48, "velocity": 113}, {"time": 1204, "pitch": 81, "duration": 6, "velocity": 117}, {"time": 1210, "pitch": 76, "duration": 6, "velocity": 104}, {"time": 1216, "pitch": 84, "duration": 6, "velocity": 110}, {"time": 1222, "pitch": 81, "duration": 6, "velocity": 94}, {"time": 1228, "pitch": 84, "duration": 12, "velocity": 113}, {"time": 1240, "pitch": 81, "duration": 12, "velocity": 116}, {"time": 1252, "pitch": 81, "duration": 6, "velocity": 116}, {"time": 1258, "pitch": 79, "duration": 42, "velocity": 102}, {"time": 1300, "pitch": 81, "duration": 6, "velocity": 119}, {"time": 1306, "pitch": 81, "duration": 6, "velocity": 114}, {"time": 1312, "pitch": 79, "duration": 6, "velocity": 114}, {"time": 1318, "pitch": 81, "duration": 6, "velocity": 110}, {"time": 1324, "pitch": 76, "duration": 6, "velocity": 114}, {"time": 1330, "pitch": 79, "duration": 18, "velocity": 114}, {"time": 1348, "pitch": 81, "duration": 6, "velocity": 113}, {"time": 1354, "pitch": 81, "duration": 6, "velocity": 113}, {"time": 1360, "pitch": 79, "duration": 6, "velocity": 110}, {"time": 1366, "pitch": 81, "duration": 6, "velocity": 113}, {"time": 1372, "pitch": 91, "duration": 12, "velocity": 110}, {"time": 1384, "pitch": 88, "duration": 12, "velocity": 117}, {"time": 1396, "pitch": 86, "duration": 6, "velocity": 119}, {"time": 1402, "pitch": 86, "duration": 6, "velocity": 113}, {"time": 1408, "pitch": 86, "duration": 6, "velocity": 110}, {"time": 1414, "pitch": 84, "duration": 6, "velocity": 110}, {"time": 1420, "pitch": 91, "duration": 12, "velocity": 113}, {"time": 1432, "pitch": 91, "duration": 12, "velocity": 110}, {"time": 1444, "pitch": 88, "duration": 6, "velocity": 110}, {"time": 1450, "pitch": 86, "duration": 42, "velocity": 107}, {"time": 1492, "pitch": 81, "duration": 6, "velocity": 110}, {"time": 1498, "pitch": 84, "duration": 6, "velocity": 92}, {"time": 1504, "pitch": 81, "duration": 6, "velocity": 96}, {"time": 1510, "pitch": 79, "duration": 6, "velocity": 98}, {"time": 1516, "pitch": 91, "duration": 12, "velocity": 116}, {"time": 1528, "pitch": 88, "duration": 12, "velocity": 119}, {"time": 1540, "pitch": 88, "duration": 48, "velocity": 113}, {"time": 1588, "pitch": 81, "duration": 6, "velocity": 117}, {"time": 1594, "pitch": 76, "duration": 6, "velocity": 104}, {"time": 1600, "pitch": 84, "duration": 6, "velocity": 110}, {"time": 1606, "pitch": 81, "duration": 6, "velocity": 94}, {"time": 1612, "pitch": 84, "duration": 12, "velocity": 113}, {"time": 1624, "pitch": 81, "duration": 12, "velocity": 116}, {"time": 1636, "pitch": 81, "duration": 6, "velocity": 116}, {"time": 1642, "pitch": 79, "duration": 42, "velocity": 102}, {"time": 1684, "pitch": 81, "duration": 6, "velocity": 119}, {"time": 1690, "pitch": 81, "duration": 6, "velocity": 114}, {"time": 1696, "pitch": 79, "duration": 6, "velocity": 114}, {"time": 1702, "pitch": 81, "duration": 6, "velocity": 110}, {"time": 1708, "pitch": 76, "duration": 6, "velocity": 114}, {"time": 1714, "pitch": 79, "duration": 18, "velocity": 114}, {"time": 1732, "pitch": 81, "duration": 6, "velocity": 113}, {"time": 1738, "pitch": 81, "duration": 6, "velocity": 113}, {"time": 1744, "pitch": 79, "duration": 6, "velocity": 110}, {"time": 1750, "pitch": 81, "duration": 6, "velocity": 113}, {"time": 1756, "pitch": 91, "duration": 12, "velocity": 110}, {"time": 1768, "pitch": 88, "duration": 12, "velocity": 117}, {"time": 1780, "pitch": 86, "duration": 6, "velocity": 119}, {"time": 1786, "pitch": 86, "duration": 6, "velocity": 113}, {"time": 1792, "pitch": 86, "duration": 6, "velocity": 110}, {"time": 1798, "pitch": 84, "duration": 6, "velocity": 110}, {"time": 1804, "pitch": 88, "duration": 12, "velocity": 114}, {"time": 1816, "pitch": 88, "duration": 6, "velocity": 113}, {"time": 1822, "pitch": 86, "duration": 6, "velocity": 104}, {"time": 1828, "pitch": 84, "duration": 27, "velocity": 108}, {"time": 2068, "pitch": 79, "duration": 6, "velocity": 114}, {"time": 2074, "pitch": 79, "duration": 6, "velocity": 110}, {"time": 2080, "pitch": 79, "duration": 6, "velocity": 110}, {"time": 2086, "pitch": 79, "duration": 6, "velocity": 113}, {"time": 2092, "pitch": 81, "duration": 12, "velocity": 116}, {"time": 2104, "pitch": 76, "duration": 12, "velocity": 117}, {"time": 2116, "pitch": 79, "duration": 48, "velocity": 117}, {"time": 2164, "pitch": 81, "duration": 9, "velocity": 116}, {"time": 2170, "pitch": 79, "duration": 7, "velocity": 96}, {"time": 2176, "pitch": 76, "duration": 6, "velocity": 102}, {"time": 2182, "pitch": 74, "duration": 6, "velocity": 100}, {"time": 2188, "pitch": 76, "duration": 12, "velocity": 100}, {"time": 2200, "pitch": 69, "duration": 12, "velocity": 108}, {"time": 2212, "pitch": 72, "duration": 48, "velocity": 108}, {"time": 2260, "pitch": 81, "duration": 18, "velocity": 114}, {"time": 2278, "pitch": 84, "duration": 6, "velocity": 110}, {"time": 2284, "pitch": 81, "duration": 12, "velocity": 107}, {"time": 2296, "pitch": 79, "duration": 12, "velocity": 110}, {"time": 2308, "pitch": 81, "duration": 18, "velocity": 110}, {"time": 2326, "pitch": 84, "duration": 6, "velocity": 100}, {"time": 2332, "pitch": 81, "duration": 12, "velocity": 94}, {"time": 2344, "pitch": 79, "duration": 6, "velocity": 108}, {"time": 2350, "pitch": 79, "duration": 6, "velocity": 104}, {"time": 2356, "pitch": 81, "duration": 6, "velocity": 98}, {"time": 2362, "pitch": 79, "duration": 6, "velocity": 107}, {"time": 2368, "pitch": 79, "duration": 6, "velocity": 110}, {"time": 2374, "pitch": 79, "duration": 6, "velocity": 110}, {"time": 2380, "pitch": 72, "duration": 13, "velocity": 100}, {"time": 2392, "pitch": 76, "duration": 12, "velocity": 90}, {"time": 2404, "pitch": 74, "duration": 48, "velocity": 91}, {"time": 2452, "pitch": 79, "duration": 6, "velocity": 114}, {"time": 2458, "pitch": 79, "duration": 6, "velocity": 110}, {"time": 2464, "pitch": 79, "duration": 6, "velocity": 110}, {"time": 2470, "pitch": 79, "duration": 6, "velocity": 113}, {"time": 2476, "pitch": 81, "duration": 12, "velocity": 116}, {"time": 2488, "pitch": 76, "duration": 12, "velocity": 117}, {"time": 2500, "pitch": 79, "duration": 42, "velocity": 117}, {"time": 2542, "pitch": 79, "duration": 6, "velocity": 94}, {"time": 2548, "pitch": 81, "duration": 6, "velocity": 100}, {"time": 2554, "pitch": 81, "duration": 12, "velocity": 104}, {"time": 2566, "pitch": 79, "duration": 6, "velocity": 102}, {"time": 2572, "pitch": 81, "duration": 12, "velocity": 113}, {"time": 2584, "pitch": 76, "duration": 6, "velocity": 107}, {"time": 2590, "pitch": 74, "duration": 7, "velocity": 92}, {"time": 2596, "pitch": 76, "duration": 8, "velocity": 93}, {"time": 2602, "pitch": 72, "duration": 42, "velocity": 104}, {"time": 2644, "pitch": 81, "duration": 18, "velocity": 116}, {"time": 2662, "pitch": 84, "duration": 6, "velocity": 110}, {"time": 2668, "pitch": 81, "duration": 12, "velocity": 116}, {"time": 2680, "pitch": 79, "duration": 12, "velocity": 114}, {"time": 2692, "pitch": 81, "duration": 6, "velocity": 114}, {"time": 2698, "pitch": 81, "duration": 12, "velocity": 110}, {"time": 2710, "pitch": 84, "duration": 6, "velocity": 113}, {"time": 2716, "pitch": 81, "duration": 24, "velocity": 110}, {"time": 2740, "pitch": 91, "duration": 6, "velocity": 114}, {"time": 2746, "pitch": 91, "duration": 6, "velocity": 102}, {"time": 2752, "pitch": 91, "duration": 6, "velocity": 100}, {"time": 2758, "pitch": 91, "duration": 6, "velocity": 110}, {"time": 2764, "pitch": 81, "duration": 12, "velocity": 117}, {"time": 2776, "pitch": 86, "duration": 12, "velocity": 117}, {"time": 2788, "pitch": 84, "duration": 96, "velocity": 116}, {"time": 2884, "pitch": 81, "duration": 6, "velocity": 110}, {"time": 2890, "pitch": 84, "duration": 6, "velocity": 92}, {"time": 2896, "pitch": 81, "duration": 6, "velocity": 96}, {"time": 2902, "pitch": 79, "duration": 6, "velocity": 98}, {"time": 2908, "pitch": 91, "duration": 12, "velocity": 116}, {"time": 2920, "pitch": 88, "duration": 12, "velocity": 119}, {"time": 2932, "pitch": 88, "duration": 48, "velocity": 113}, {"time": 2980, "pitch": 81, "duration": 6, "velocity": 117}, {"time": 2986, "pitch": 76, "duration": 6, "velocity": 104}, {"time": 2992, "pitch": 84, "duration": 6, "velocity": 110}, {"time": 2998, "pitch": 81, "duration": 6, "velocity": 94}, {"time": 3004, "pitch": 84, "duration": 12, "velocity": 113}, {"time": 3016, "pitch": 81, "duration": 12, "velocity": 116}, {"time": 3028, "pitch": 81, "duration": 6, "velocity": 116}, {"time": 3034, "pitch": 79, "duration": 42, "velocity": 102}, {"time": 3076, "pitch": 81, "duration": 6, "velocity": 119}, {"time": 3082, "pitch": 81, "duration": 6, "velocity": 114}, {"time": 3088, "pitch": 79, "duration": 6, "velocity": 114}, {"time": 3094, "pitch": 81, "duration": 6, "velocity": 110}, {"time": 3100, "pitch": 76, "duration": 6, "velocity": 114}, {"time": 3106, "pitch": 79, "duration": 18, "velocity": 114}, {"time": 3124, "pitch": 81, "duration": 6, "velocity": 113}, {"time": 3130, "pitch": 81, "duration": 6, "velocity": 113}, {"time": 3136, "pitch": 79, "duration": 6, "velocity": 110}, {"time": 3142, "pitch": 81, "duration": 6, "velocity": 113}, {"time": 3148, "pitch": 91, "duration": 12, "velocity": 110}, {"time": 3160, "pitch": 88, "duration": 12, "velocity": 117}, {"time": 3172, "pitch": 86, "duration": 6, "velocity": 119}, {"time": 3178, "pitch": 86, "duration": 6, "velocity": 113}, {"time": 3184, "pitch": 86, "duration": 6, "velocity": 110}, {"time": 3190, "pitch": 84, "duration": 6, "velocity": 110}, {"time": 3196, "pitch": 91, "duration": 12, "velocity": 113}, {"time": 3208, "pitch": 91, "duration": 12, "velocity": 110}, {"time": 3220, "pitch": 88, "duration": 6, "velocity": 110}, {"time": 3226, "pitch": 86, "duration": 42, "velocity": 107}, {"time": 3268, "pitch": 81, "duration": 6, "velocity": 110}, {"time": 3274, "pitch": 84, "duration": 6, "velocity": 92}, {"time": 3280, "pitch": 81, "duration": 6, "velocity": 96}, {"time": 3286, "pitch": 79, "duration": 6, "velocity": 98}, {"time": 3292, "pitch": 91, "duration": 12, "velocity": 116}, {"time": 3304, "pitch": 88, "duration": 12, "velocity": 119}, {"time": 3316, "pitch": 88, "duration": 48, "velocity": 113}, {"time": 3364, "pitch": 81, "duration": 6, "velocity": 117}, {"time": 3370, "pitch": 76, "duration": 6, "velocity": 104}, {"time": 3376, "pitch": 84, "duration": 6, "velocity": 110}, {"time": 3382, "pitch": 81, "duration": 6, "velocity": 94}, {"time": 3388, "pitch": 84, "duration": 12, "velocity": 113}, {"time": 3400, "pitch": 81, "duration": 12, "velocity": 116}, {"time": 3412, "pitch": 81, "duration": 6, "velocity": 116}, {"time": 3418, "pitch": 79, "duration": 42, "velocity": 102}, {"time": 3460, "pitch": 81, "duration": 6, "velocity": 119}, {"time": 3466, "pitch": 81, "duration": 6, "velocity": 114}, {"time": 3472, "pitch": 79, "duration": 6, "velocity": 114}, {"time": 3478, "pitch": 81, "duration": 6, "velocity": 110}, {"time": 3484, "pitch": 76, "duration": 6, "velocity": 114}, {"time": 3490, "pitch": 79, "duration": 18, "velocity": 114}, {"time": 3508, "pitch": 81, "duration": 6, "velocity": 113}, {"time": 3514, "pitch": 81, "duration": 6, "velocity": 113}, {"time": 3520, "pitch": 79, "duration": 6, "velocity": 110}, {"time": 3526, "pitch": 81, "duration": 6, "velocity": 113}, {"time": 3532, "pitch": 91, "duration": 12, "velocity": 110}, {"time": 3544, "pitch": 88, "duration": 12, "velocity": 117}, {"time": 3556, "pitch": 86, "duration": 6, "velocity": 119}, {"time": 3562, "pitch": 86, "duration": 6, "velocity": 113}, {"time": 3568, "pitch": 86, "duration": 6, "velocity": 110}, {"time": 3574, "pitch": 84, "duration": 6, "velocity": 110}, {"time": 3580, "pitch": 88, "duration": 12, "velocity": 114}, {"time": 3592, "pitch": 88, "duration": 6, "velocity": 113}, {"time": 3598, "pitch": 86, "duration": 6, "velocity": 104}, {"time": 3604, "pitch": 84, "duration": 64, "velocity": 108}, {"time": 4036, "pitch": 81, "duration": 6, "velocity": 110}, {"time": 4042, "pitch": 84, "duration": 6, "velocity": 92}, {"time": 4048, "pitch": 81, "duration": 6, "velocity": 96}, {"time": 4054, "pitch": 79, "duration": 6, "velocity": 98}, {"time": 4060, "pitch": 91, "duration": 12, "velocity": 116}, {"time": 4072, "pitch": 88, "duration": 12, "velocity": 119}, {"time": 4084, "pitch": 88, "duration": 48, "velocity": 113}, {"time": 4132, "pitch": 81, "duration": 6, "velocity": 117}, {"time": 4138, "pitch": 76, "duration": 6, "velocity": 104}, {"time": 4144, "pitch": 84, "duration": 6, "velocity": 110}, {"time": 4150, "pitch": 81, "duration": 6, "velocity": 94}, {"time": 4156, "pitch": 84, "duration": 12, "velocity": 113}, {"time": 4168, "pitch": 81, "duration": 12, "velocity": 116}, {"time": 4180, "pitch": 81, "duration": 6, "velocity": 116}, {"time": 4186, "pitch": 79, "duration": 42, "velocity": 102}, {"time": 4228, "pitch": 81, "duration": 6, "velocity": 119}, {"time": 4234, "pitch": 81, "duration": 6, "velocity": 114}, {"time": 4240, "pitch": 79, "duration": 6, "velocity": 114}, {"time": 4246, "pitch": 81, "duration": 6, "velocity": 110}, {"time": 4252, "pitch": 76, "duration": 6, "velocity": 114}, {"time": 4258, "pitch": 79, "duration": 18, "velocity": 114}, {"time": 4276, "pitch": 81, "duration": 6, "velocity": 113}, {"time": 4282, "pitch": 81, "duration": 6, "velocity": 113}, {"time": 4288, "pitch": 79, "duration": 6, "velocity": 110}, {"time": 4294, "pitch": 81, "duration": 6, "velocity": 113}, {"time": 4300, "pitch": 91, "duration": 12, "velocity": 110}, {"time": 4312, "pitch": 88, "duration": 12, "velocity": 117}, {"time": 4324, "pitch": 86, "duration": 6, "velocity": 119}, {"time": 4330, "pitch": 86, "duration": 6, "velocity": 113}, {"time": 4336, "pitch": 86, "duration": 6, "velocity": 110}, {"time": 4342, "pitch": 84, "duration": 6, "velocity": 110}, {"time": 4348, "pitch": 91, "duration": 12, "velocity": 113}, {"time": 4360, "pitch": 91, "duration": 12, "velocity": 110}, {"time": 4372, "pitch": 88, "duration": 6, "velocity": 110}, {"time": 4378, "pitch": 86, "duration": 42, "velocity": 107}, {"time": 4420, "pitch": 81, "duration": 6, "velocity": 110}, {"time": 4426, "pitch": 84, "duration": 6, "velocity": 92}, {"time": 4432, "pitch": 81, "duration": 6, "velocity": 96}, {"time": 4438, "pitch": 79, "duration": 6, "velocity": 98}, {"time": 4444, "pitch": 91, "duration": 12, "velocity": 116}, {"time": 4456, "pitch": 88, "duration": 12, "velocity": 119}, {"time": 4468, "pitch": 88, "duration": 48, "velocity": 113}, {"time": 4516, "pitch": 81, "duration": 6, "velocity": 117}, {"time": 4522, "pitch": 76, "duration": 6, "velocity": 104}, {"time": 4528, "pitch": 84, "duration": 6, "velocity": 110}, {"time": 4534, "pitch": 81, "duration": 6, "velocity": 94}, {"time": 4540, "pitch": 84, "duration": 12, "velocity": 113}, {"time": 4552, "pitch": 81, "duration": 12, "velocity": 116}, {"time": 4564, "pitch": 81, "duration": 6, "velocity": 116}, {"time": 4570, "pitch": 79, "duration": 42, "velocity": 102}, {"time": 4612, "pitch": 81, "duration": 6, "velocity": 119}, {"time": 4618, "pitch": 81, "duration": 6, "velocity": 114}, {"time": 4624, "pitch": 79, "duration": 6, "velocity": 114}, {"time": 4630, "pitch": 81, "duration": 6, "velocity": 110}, {"time": 4636, "pitch": 76, "duration": 6, "velocity": 114}, {"time": 4642, "pitch": 79, "duration": 18, "velocity": 114}, {"time": 4660, "pitch": 81, "duration": 6, "velocity": 113}, {"time": 4666, "pitch": 81, "duration": 6, "velocity": 113}, {"time": 4672, "pitch": 79, "duration": 6, "velocity": 110}, {"time": 4678, "pitch": 81, "duration": 6, "velocity": 113}, {"time": 4684, "pitch": 91, "duration": 12, "velocity": 110}, {"time": 4696, "pitch": 88, "duration": 12, "velocity": 117}, {"time": 4708, "pitch": 86, "duration": 6, "velocity": 119}, {"time": 4714, "pitch": 86, "duration": 6, "velocity": 113}, {"time": 4720, "pitch": 86, "duration": 6, "velocity": 110}, {"time": 4726, "pitch": 84, "duration": 6, "velocity": 110}, {"time": 4732, "pitch": 88, "duration": 12, "velocity": 114}, {"time": 4744, "pitch": 88, "duration": 6, "velocity": 113}, {"time": 4750, "pitch": 86, "duration": 6, "velocity": 104}, {"time": 4756, "pitch": 84, "duration": 48, "velocity": 108}, {"time": 4804, "pitch": 81, "duration": 6, "velocity": 110}, {"time": 4810, "pitch": 84, "duration": 6, "velocity": 92}, {"time": 4816, "pitch": 81, "duration": 6, "velocity": 96}, {"time": 4822, "pitch": 79, "duration": 6, "velocity": 98}, {"time": 4828, "pitch": 91, "duration": 12, "velocity": 116}, {"time": 4840, "pitch": 88, "duration": 12, "velocity": 119}, {"time": 4852, "pitch": 88, "duration": 48, "velocity": 113}, {"time": 4900, "pitch": 81, "duration": 6, "velocity": 117}, {"time": 4906, "pitch": 76, "duration": 6, "velocity": 104}, {"time": 4912, "pitch": 84, "duration": 6, "velocity": 110}, {"time": 4918, "pitch": 81, "duration": 6, "velocity": 94}, {"time": 4924, "pitch": 84, "duration": 12, "velocity": 113}, {"time": 4936, "pitch": 81, "duration": 12, "velocity": 116}, {"time": 4948, "pitch": 81, "duration": 6, "velocity": 116}, {"time": 4954, "pitch": 79, "duration": 42, "velocity": 102}, {"time": 4996, "pitch": 81, "duration": 6, "velocity": 119}, {"time": 5002, "pitch": 81, "duration": 6, "velocity": 114}, {"time": 5008, "pitch": 79, "duration": 6, "velocity": 114}, {"time": 5014, "pitch": 81, "duration": 6, "velocity": 110}, {"time": 5020, "pitch": 76, "duration": 6, "velocity": 114}, {"time": 5026, "pitch": 79, "duration": 18, "velocity": 114}, {"time": 5044, "pitch": 81, "duration": 6, "velocity": 113}, {"time": 5050, "pitch": 81, "duration": 6, "velocity": 113}, {"time": 5056, "pitch": 79, "duration": 6, "velocity": 110}, {"time": 5062, "pitch": 81, "duration": 6, "velocity": 113}, {"time": 5068, "pitch": 91, "duration": 12, "velocity": 110}, {"time": 5080, "pitch": 88, "duration": 12, "velocity": 117}, {"time": 5092, "pitch": 86, "duration": 6, "velocity": 119}, {"time": 5098, "pitch": 86, "duration": 6, "velocity": 113}, {"time": 5104, "pitch": 86, "duration": 6, "velocity": 110}, {"time": 5110, "pitch": 84, "duration": 6, "velocity": 110}, {"time": 5116, "pitch": 91, "duration": 12, "velocity": 113}, {"time": 5128, "pitch": 91, "duration": 12, "velocity": 110}, {"time": 5140, "pitch": 88, "duration": 6, "velocity": 110}, {"time": 5146, "pitch": 86, "duration": 42, "velocity": 107}, {"time": 5188, "pitch": 81, "duration": 6, "velocity": 110}, {"time": 5194, "pitch": 84, "duration": 6, "velocity": 92}, {"time": 5200, "pitch": 81, "duration": 6, "velocity": 96}, {"time": 5206, "pitch": 79, "duration": 6, "velocity": 98}, {"time": 5212, "pitch": 91, "duration": 12, "velocity": 116}, {"time": 5224, "pitch": 88, "duration": 12, "velocity": 119}, {"time": 5236, "pitch": 88, "duration": 48, "velocity": 113}, {"time": 5284, "pitch": 81, "duration": 6, "velocity": 117}, {"time": 5290, "pitch": 76, "duration": 6, "velocity": 104}, {"time": 5296, "pitch": 84, "duration": 6, "velocity": 110}, {"time": 5302, "pitch": 81, "duration": 6, "velocity": 94}, {"time": 5308, "pitch": 84, "duration": 12, "velocity": 113}, {"time": 5320, "pitch": 81, "duration": 12, "velocity": 116}, {"time": 5332, "pitch": 81, "duration": 6, "velocity": 116}, {"time": 5338, "pitch": 79, "duration": 42, "velocity": 102}, {"time": 5380, "pitch": 81, "duration": 6, "velocity": 119}, {"time": 5386, "pitch": 81, "duration": 6, "velocity": 114}, {"time": 5392, "pitch": 79, "duration": 6, "velocity": 114}, {"time": 5398, "pitch": 81, "duration": 6, "velocity": 110}, {"time": 5404, "pitch": 76, "duration": 6, "velocity": 114}, {"time": 5410, "pitch": 79, "duration": 18, "velocity": 114}, {"time": 5428, "pitch": 81, "duration": 6, "velocity": 113}, {"time": 5434, "pitch": 81, "duration": 6, "velocity": 113}, {"time": 5440, "pitch": 79, "duration": 6, "velocity": 110}, {"time": 5446, "pitch": 81, "duration": 6, "velocity": 113}, {"time": 5452, "pitch": 91, "duration": 12, "velocity": 110}, {"time": 5464, "pitch": 88, "duration": 12, "velocity": 117}, {"time": 5476, "pitch": 86, "duration": 6, "velocity": 119}, {"time": 5482, "pitch": 86, "duration": 6, "velocity": 113}, {"time": 5488, "pitch": 86, "duration": 6, "velocity": 110}, {"time": 5494, "pitch": 84, "duration": 6, "velocity": 110}, {"time": 5500, "pitch": 88, "duration": 12, "velocity": 114}, {"time": 5512, "pitch": 88, "duration": 6, "velocity": 113}, {"time": 5518, "pitch": 86, "duration": 6, "velocity": 104}, {"time": 5524, "pitch": 84, "duration": 48, "velocity": 108}]}, {"program": 0, "is_drum": false, "name": "PIANO", "notes": [{"time": 196, "pitch": 48, "duration": 17, "velocity": 86}, {"time": 208, "pitch": 64, "duration": 2, "velocity": 88}, {"time": 208, "pitch": 67, "duration": 2, "velocity": 98}, {"time": 208, "pitch": 72, "duration": 2, "velocity": 87}, {"time": 214, "pitch": 64, "duration": 6, "velocity": 94}, {"time": 214, "pitch": 67, "duration": 6, "velocity": 104}, {"time": 214, "pitch": 72, "duration": 5, "velocity": 88}, {"time": 220, "pitch": 55, "duration": 13, "velocity": 88}, {"time": 232, "pitch": 64, "duration": 13, "velocity": 98}, {"time": 232, "pitch": 67, "duration": 13, "velocity": 107}, {"time": 232, "pitch": 72, "duration": 13, "velocity": 92}, {"time": 244, "pitch": 48, "duration": 16, "velocity": 98}, {"time": 256, "pitch": 64, "duration": 2, "velocity": 93}, {"time": 256, "pitch": 67, "duration": 2, "velocity": 107}, {"time": 256, "pitch": 72, "duration": 2, "velocity": 91}, {"time": 262, "pitch": 64, "duration": 7, "velocity": 104}, {"time": 262, "pitch": 67, "duration": 7, "velocity": 114}, {"time": 262, "pitch": 72, "duration": 7, "velocity": 96}, {"time": 268, "pitch": 43, "duration": 6, "velocity": 93}, {"time": 280, "pitch": 55, "duration": 6, "velocity": 107}, {"time": 280, "pitch": 64, "duration": 6, "velocity": 93}, {"time": 280, "pitch": 67, "duration": 6, "velocity": 98}, {"time": 280, "pitch": 72, "duration": 7, "velocity": 87}, {"time": 292, "pitch": 48, "duration": 14, "velocity": 107}, {"time": 304, "pitch": 64, "duration": 10, "velocity": 100}, {"time": 304, "pitch": 67, "duration": 10, "velocity": 107}, {"time": 304, "pitch": 72, "duration": 11, "velocity": 93}, {"time": 316, "pitch": 55, "duration": 11, "velocity": 93}, {"time": 328, "pitch": 43, "duration": 6, "velocity": 96}, {"time": 328, "pitch": 64, "duration": 13, "velocity": 96}, {"time": 328, "pitch": 67, "duration": 13, "velocity": 107}, {"time": 328, "pitch": 72, "duration": 13, "velocity": 92}, {"time": 340, "pitch": 48, "duration": 12, "velocity": 107}, {"time": 352, "pitch": 64, "duration": 3, "velocity": 104}, {"time": 352, "pitch": 67, "duration": 3, "velocity": 110}, {"time": 352, "pitch": 72, "duration": 3, "velocity": 93}, {"time": 358, "pitch": 64, "duration": 6, "velocity": 107}, {"time": 358, "pitch": 67, "duration": 5, "velocity": 114}, {"time": 358, "pitch": 72, "duration": 6, "velocity": 98}, {"time": 370, "pitch": 48, "duration": 6, "velocity": 98}, {"time": 376, "pitch": 64, "duration": 10, "velocity": 107}, {"time": 376, "pitch": 67, "duration": 10, "velocity": 114}, {"time": 376, "pitch": 72, "duration": 10, "velocity": 93}, {"time": 388, "pitch": 45, "duration": 13, "velocity": 100}, {"time": 400, "pitch": 64, "duration": 9, "velocity": 107}, {"time": 400, "pitch": 69, "duration": 9, "velocity": 113}, {"time": 400, "pitch": 72, "duration": 10, "velocity": 93}, {"time": 412, "pitch": 52, "duration": 6, "velocity": 107}, {"time": 424, "pitch": 64, "duration": 9, "velocity": 107}, {"time": 424, "pitch": 69, "duration": 9, "velocity": 113}, {"time": 424, "pitch": 72, "duration": 10, "velocity": 93}, {"time": 430, "pitch": 43, "duration": 5, "velocity": 84}, {"time": 436, "pitch": 45, "duration": 9, "velocity": 107}, {"time": 448, "pitch": 64, "duration": 2, "velocity": 104}, {"time": 448, "pitch": 69, "duration": 2, "velocity": 113}, {"time": 448, "pitch": 72, "duration": 2, "velocity": 96}, {"time": 454, "pitch": 64, "duration": 4, "velocity": 108}, {"time": 454, "pitch": 69, "duration": 4, "velocity": 116}, {"time": 454, "pitch": 72, "duration": 4, "velocity": 100}, {"time": 466, "pitch": 45, "duration": 7, "velocity": 92}, {"time": 472, "pitch": 64, "duration": 7, "velocity": 114}, {"time": 472, "pitch": 69, "duration": 7, "velocity": 119}, {"time": 472, "pitch": 72, "duration": 7, "velocity": 104}, {"time": 484, "pitch": 41, "duration": 10, "velocity": 108}, {"time": 496, "pitch": 60, "duration": 2, "velocity": 102}, {"time": 496, "pitch": 65, "duration": 2, "velocity": 107}, {"time": 496, "pitch": 69, "duration": 2, "velocity": 94}, {"time": 502, "pitch": 60, "duration": 6, "velocity": 107}, {"time": 502, "pitch": 65, "duration": 7, "velocity": 114}, {"time": 502, "pitch": 69, "duration": 6, "velocity": 104}, {"time": 514, "pitch": 41, "duration": 6, "velocity": 102}, {"time": 520, "pitch": 48, "duration": 7, "velocity": 110}, {"time": 520, "pitch": 60, "duration": 6, "velocity": 94}, {"time": 520, "pitch": 65, "duration": 6, "velocity": 104}, {"time": 520, "pitch": 69, "duration": 7, "velocity": 94}, {"time": 532, "pitch": 41, "duration": 11, "velocity": 104}, {"time": 544, "pitch": 60, "duration": 2, "velocity": 94}, {"time": 544, "pitch": 65, "duration": 2, "velocity": 108}, {"time": 544, "pitch": 69, "duration": 2, "velocity": 100}, {"time": 550, "pitch": 60, "duration": 2, "velocity": 102}, {"time": 550, "pitch": 65, "duration": 2, "velocity": 113}, {"time": 550, "pitch": 69, "duration": 3, "velocity": 102}, {"time": 562, "pitch": 41, "duration": 7, "velocity": 102}, {"time": 568, "pitch": 60, "duration": 6, "velocity": 107}, {"time": 568, "pitch": 65, "duration": 11, "velocity": 114}, {"time": 568, "pitch": 69, "duration": 10, "velocity": 108}, {"time": 574, "pitch": 42, "duration": 3, "velocity": 80}, {"time": 580, "pitch": 43, "duration": 12, "velocity": 107}, {"time": 592, "pitch": 62, "duration": 2, "velocity": 107}, {"time": 592, "pitch": 67, "duration": 2, "velocity": 113}, {"time": 592, "pitch": 71, "duration": 2, "velocity": 100}, {"time": 598, "pitch": 62, "duration": 7, "velocity": 107}, {"time": 598, "pitch": 67, "duration": 7, "velocity": 114}, {"time": 598, "pitch": 71, "duration": 8, "velocity": 93}, {"time": 610, "pitch": 43, "duration": 6, "velocity": 102}, {"time": 616, "pitch": 50, "duration": 9, "velocity": 102}, {"time": 622, "pitch": 62, "duration": 6, "velocity": 104}, {"time": 622, "pitch": 67, "duration": 6, "velocity": 110}, {"time": 622, "pitch": 71, "duration": 7, "velocity": 94}, {"time": 628, "pitch": 43, "duration": 11, "velocity": 116}, {"time": 640, "pitch": 62, "duration": 2, "velocity": 91}, {"time": 640, "pitch": 67, "duration": 2, "velocity": 100}, {"time": 640, "pitch": 71, "duration": 3, "velocity": 91}, {"time": 646, "pitch": 43, "duration": 4, "velocity": 114}, {"time": 652, "pitch": 45, "duration": 10, "velocity": 110}, {"time": 664, "pitch": 47, "duration": 8, "velocity": 110}, {"time": 676, "pitch": 48, "duration": 14, "velocity": 107}, {"time": 688, "pitch": 64, "duration": 2, "velocity": 100}, {"time": 688, "pitch": 67, "duration": 2, "velocity": 107}, {"time": 688, "pitch": 72, "duration": 2, "velocity": 93}, {"time": 694, "pitch": 64, "duration": 6, "velocity": 107}, {"time": 694, "pitch": 67, "duration": 5, "velocity": 114}, {"time": 694, "pitch": 72, "duration": 6, "velocity": 98}, {"time": 697, "pitch": 55, "duration": 14, "velocity": 93}, {"time": 712, "pitch": 64, "duration": 13, "velocity": 96}, {"time": 712, "pitch": 67, "duration": 13, "velocity": 107}, {"time": 712, "pitch": 72, "duration": 13, "velocity": 92}, {"time": 718, "pitch": 43, "duration": 6, "velocity": 96}, {"time": 724, "pitch": 48, "duration": 12, "velocity": 107}, {"time": 736, "pitch": 64, "duration": 8, "velocity": 104}, {"time": 736, "pitch": 67, "duration": 8, "velocity": 110}, {"time": 736, "pitch": 72, "duration": 8, "velocity": 93}, {"time": 754, "pitch": 48, "duration": 6, "velocity": 98}, {"time": 760, "pitch": 64, "duration": 10, "velocity": 107}, {"time": 760, "pitch": 67, "duration": 10, "velocity": 114}, {"time": 760, "pitch": 72, "duration": 10, "velocity": 93}, {"time": 772, "pitch": 45, "duration": 13, "velocity": 100}, {"time": 784, "pitch": 64, "duration": 2, "velocity": 107}, {"time": 784, "pitch": 69, "duration": 2, "velocity": 113}, {"time": 784, "pitch": 72, "duration": 2, "velocity": 93}, {"time": 790, "pitch": 64, "duration": 2, "velocity": 98}, {"time": 790, "pitch": 69, "duration": 2, "velocity": 102}, {"time": 790, "pitch": 72, "duration": 1, "velocity": 85}, {"time": 808, "pitch": 52, "duration": 6, "velocity": 107}, {"time": 814, "pitch": 43, "duration": 5, "velocity": 84}, {"time": 820, "pitch": 45, "duration": 9, "velocity": 107}, {"time": 832, "pitch": 64, "duration": 2, "velocity": 104}, {"time": 832, "pitch": 69, "duration": 2, "velocity": 113}, {"time": 832, "pitch": 72, "duration": 2, "velocity": 96}, {"time": 838, "pitch": 64, "duration": 4, "velocity": 108}, {"time": 838, "pitch": 69, "duration": 4, "velocity": 116}, {"time": 838, "pitch": 72, "duration": 4, "velocity": 100}, {"time": 850, "pitch": 45, "duration": 7, "velocity": 92}, {"time": 856, "pitch": 64, "duration": 7, "velocity": 114}, {"time": 856, "pitch": 69, "duration": 7, "velocity": 119}, {"time": 856, "pitch": 72, "duration": 7, "velocity": 104}, {"time": 868, "pitch": 41, "duration": 10, "velocity": 108}, {"time": 880, "pitch": 60, "duration": 2, "velocity": 102}, {"time": 880, "pitch": 65, "duration": 2, "velocity": 107}, {"time": 880, "pitch": 69, "duration": 2, "velocity": 94}, {"time": 886, "pitch": 60, "duration": 6, "velocity": 107}, {"time": 886, "pitch": 65, "duration": 7, "velocity": 114}, {"time": 886, "pitch": 69, "duration": 6, "velocity": 104}, {"time": 898, "pitch": 41, "duration": 6, "velocity": 102}, {"time": 904, "pitch": 48, "duration": 7, "velocity": 110}, {"time": 910, "pitch": 60, "duration": 6, "velocity": 94}, {"time": 910, "pitch": 65, "duration": 6, "velocity": 104}, {"time": 910, "pitch": 69, "duration": 7, "velocity": 94}, {"time": 916, "pitch": 41, "duration": 11, "velocity": 104}, {"time": 928, "pitch": 60, "duration": 2, "velocity": 94}, {"time": 928, "pitch": 65, "duration": 2, "velocity": 108}, {"time": 928, "pitch": 69, "duration": 2, "velocity": 100}, {"time": 934, "pitch": 60, "duration": 2, "velocity": 102}, {"time": 934, "pitch": 65, "duration": 2, "velocity": 113}, {"time": 934, "pitch": 69, "duration": 3, "velocity": 102}, {"time": 946, "pitch": 41, "duration": 7, "velocity": 102}, {"time": 952, "pitch": 60, "duration": 6, "velocity": 107}, {"time": 952, "pitch": 65, "duration": 11, "velocity": 114}, {"time": 952, "pitch": 69, "duration": 10, "velocity": 108}, {"time": 958, "pitch": 42, "duration": 3, "velocity": 80}, {"time": 964, "pitch": 43, "duration": 12, "velocity": 107}, {"time": 976, "pitch": 62, "duration": 2, "velocity": 107}, {"time": 976, "pitch": 67, "duration": 2, "velocity": 113}, {"time": 976, "pitch": 71, "duration": 2, "velocity": 100}, {"time": 982, "pitch": 62, "duration": 7, "velocity": 107}, {"time": 982, "pitch": 67, "duration": 7, "velocity": 114}, {"time": 982, "pitch": 71, "duration": 8, "velocity": 93}, {"time": 994, "pitch": 43, "duration": 6, "velocity": 102}, {"time": 1000, "pitch": 50, "duration": 9, "velocity": 102}, {"time": 1006, "pitch": 62, "duration": 6, "velocity": 104}, {"time": 1006, "pitch": 67, "duration": 6, "velocity": 110}, {"time": 1006, "pitch": 71, "duration": 7, "velocity": 94}, {"time": 1012, "pitch": 48, "duration": 18, "velocity": 94}, {"time": 1024, "pitch": 64, "duration": 2, "velocity": 100}, {"time": 1024, "pitch": 67, "duration": 2, "velocity": 108}, {"time": 1024, "pitch": 72, "duration": 2, "velocity": 93}, {"time": 1030, "pitch": 64, "duration": 4, "velocity": 104}, {"time": 1030, "pitch": 67, "duration": 3, "velocity": 113}, {"time": 1030, "pitch": 72, "duration": 3, "velocity": 98}, {"time": 1036, "pitch": 55, "duration": 14, "velocity": 91}, {"time": 1048, "pitch": 64, "duration": 3, "velocity": 102}, {"time": 1048, "pitch": 67, "duration": 2, "velocity": 110}, {"time": 1048, "pitch": 72, "duration": 3, "velocity": 100}, {"time": 1108, "pitch": 48, "duration": 21, "velocity": 102}, {"time": 1117, "pitch": 64, "duration": 2, "velocity": 89}, {"time": 1117, "pitch": 67, "duration": 1, "velocity": 108}, {"time": 1117, "pitch": 72, "duration": 2, "velocity": 91}, {"time": 1126, "pitch": 64, "duration": 19, "velocity": 108}, {"time": 1126, "pitch": 67, "duration": 20, "velocity": 117}, {"time": 1126, "pitch": 72, "duration": 19, "velocity": 108}, {"time": 1138, "pitch": 48, "duration": 7, "velocity": 110}, {"time": 1144, "pitch": 55, "duration": 11, "velocity": 102}, {"time": 1150, "pitch": 64, "duration": 10, "velocity": 102}, {"time": 1150, "pitch": 67, "duration": 10, "velocity": 110}, {"time": 1150, "pitch": 72, "duration": 10, "velocity": 98}, {"time": 1156, "pitch": 48, "duration": 22, "velocity": 102}, {"time": 1165, "pitch": 64, "duration": 2, "velocity": 90}, {"time": 1165, "pitch": 67, "duration": 1, "velocity": 98}, {"time": 1165, "pitch": 72, "duration": 1, "velocity": 88}, {"time": 1174, "pitch": 64, "duration": 19, "velocity": 110}, {"time": 1174, "pitch": 67, "duration": 19, "velocity": 117}, {"time": 1174, "pitch": 72, "duration": 19, "velocity": 102}, {"time": 1186, "pitch": 48, "duration": 7, "velocity": 110}, {"time": 1192, "pitch": 55, "duration": 12, "velocity": 110}, {"time": 1198, "pitch": 64, "duration": 9, "velocity": 104}, {"time": 1198, "pitch": 67, "duration": 9, "velocity": 113}, {"time": 1198, "pitch": 72, "duration": 9, "velocity": 93}, {"time": 1204, "pitch": 45, "duration": 21, "velocity": 116}, {"time": 1213, "pitch": 64, "duration": 2, "velocity": 93}, {"time": 1213, "pitch": 69, "duration": 1, "velocity": 104}, {"time": 1213, "pitch": 72, "duration": 2, "velocity": 90}, {"time": 1222, "pitch": 64, "duration": 20, "velocity": 110}, {"time": 1222, "pitch": 69, "duration": 20, "velocity": 116}, {"time": 1222, "pitch": 72, "duration": 19, "velocity": 108}, {"time": 1234, "pitch": 45, "duration": 7, "velocity": 104}, {"time": 1240, "pitch": 52, "duration": 12, "velocity": 110}, {"time": 1246, "pitch": 64, "duration": 7, "velocity": 100}, {"time": 1246, "pitch": 69, "duration": 7, "velocity": 108}, {"time": 1246, "pitch": 72, "duration": 7, "velocity": 94}, {"time": 1252, "pitch": 43, "duration": 23, "velocity": 110}, {"time": 1261, "pitch": 62, "duration": 2, "velocity": 96}, {"time": 1261, "pitch": 67, "duration": 1, "velocity": 108}, {"time": 1261, "pitch": 71, "duration": 2, "velocity": 96}, {"time": 1270, "pitch": 62, "duration": 14, "velocity": 110}, {"time": 1270, "pitch": 67, "duration": 14, "velocity": 114}, {"time": 1270, "pitch": 71, "duration": 14, "velocity": 104}, {"time": 1282, "pitch": 43, "duration": 8, "velocity": 114}, {"time": 1288, "pitch": 62, "duration": 12, "velocity": 110}, {"time": 1288, "pitch": 67, "duration": 13, "velocity": 113}, {"time": 1288, "pitch": 71, "duration": 13, "velocity": 98}, {"time": 1294, "pitch": 43, "duration": 5, "velocity": 100}, {"time": 1300, "pitch": 41, "duration": 13, "velocity": 113}, {"time": 1312, "pitch": 65, "duration": 19, "velocity": 100}, {"time": 1312, "pitch": 69, "duration": 19, "velocity": 114}, {"time": 1312, "pitch": 72, "duration": 18, "velocity": 98}, {"time": 1318, "pitch": 41, "duration": 3, "velocity": 108}, {"time": 1330, "pitch": 41, "duration": 8, "velocity": 114}, {"time": 1336, "pitch": 65, "duration": 13, "velocity": 104}, {"time": 1336, "pitch": 69, "duration": 14, "velocity": 116}, {"time": 1336, "pitch": 72, "duration": 13, "velocity": 102}, {"time": 1342, "pitch": 41, "duration": 4, "velocity": 104}, {"time": 1348, "pitch": 43, "duration": 13, "velocity": 113}, {"time": 1360, "pitch": 62, "duration": 19, "velocity": 100}, {"time": 1360, "pitch": 67, "duration": 19, "velocity": 108}, {"time": 1360, "pitch": 71, "duration": 19, "velocity": 100}, {"time": 1366, "pitch": 43, "duration": 7, "velocity": 114}, {"time": 1378, "pitch": 43, "duration": 9, "velocity": 114}, {"time": 1384, "pitch": 62, "duration": 18, "velocity": 108}, {"time": 1384, "pitch": 67, "duration": 16, "velocity": 108}, {"time": 1384, "pitch": 71, "duration": 15, "velocity": 98}, {"time": 1390, "pitch": 43, "duration": 3, "velocity": 92}, {"time": 1396, "pitch": 43, "duration": 23, "velocity": 110}, {"time": 1405, "pitch": 62, "duration": 5, "velocity": 90}, {"time": 1405, "pitch": 67, "duration": 6, "velocity": 91}, {"time": 1405, "pitch": 71, "duration": 5, "velocity": 90}, {"time": 1414, "pitch": 62, "duration": 13, "velocity": 108}, {"time": 1414, "pitch": 67, "duration": 13, "velocity": 114}, {"time": 1414, "pitch": 71, "duration": 13, "velocity": 104}, {"time": 1426, "pitch": 43, "duration": 9, "velocity": 108}, {"time": 1432, "pitch": 62, "duration": 23, "velocity": 104}, {"time": 1432, "pitch": 67, "duration": 24, "velocity": 114}, {"time": 1432, "pitch": 71, "duration": 24, "velocity": 100}, {"time": 1444, "pitch": 43, "duration": 21, "velocity": 110}, {"time": 1450, "pitch": 50, "duration": 14, "velocity": 88}, {"time": 1456, "pitch": 55, "duration": 6, "velocity": 80}, {"time": 1462, "pitch": 62, "duration": 13, "velocity": 113}, {"time": 1462, "pitch": 67, "duration": 13, "velocity": 116}, {"time": 1462, "pitch": 71, "duration": 13, "velocity": 107}, {"time": 1474, "pitch": 43, "duration": 8, "velocity": 113}, {"time": 1480, "pitch": 62, "duration": 11, "velocity": 114}, {"time": 1480, "pitch": 67, "duration": 12, "velocity": 116}, {"time": 1480, "pitch": 71, "duration": 12, "velocity": 104}, {"time": 1486, "pitch": 43, "duration": 3, "velocity": 108}, {"time": 1492, "pitch": 48, "duration": 12, "velocity": 114}, {"time": 1504, "pitch": 64, "duration": 26, "velocity": 108}, {"time": 1504, "pitch": 67, "duration": 26, "velocity": 114}, {"time": 1504, "pitch": 72, "duration": 26, "velocity": 102}, {"time": 1510, "pitch": 48, "duration": 3, "velocity": 108}, {"time": 1522, "pitch": 48, "duration": 6, "velocity": 110}, {"time": 1528, "pitch": 55, "duration": 12, "velocity": 108}, {"time": 1534, "pitch": 64, "duration": 12, "velocity": 110}, {"time": 1534, "pitch": 67, "duration": 11, "velocity": 116}, {"time": 1534, "pitch": 72, "duration": 11, "velocity": 108}, {"time": 1540, "pitch": 48, "duration": 20, "velocity": 107}, {"time": 1549, "pitch": 64, "duration": 2, "velocity": 98}, {"time": 1549, "pitch": 67, "duration": 1, "velocity": 107}, {"time": 1549, "pitch": 72, "duration": 2, "velocity": 92}, {"time": 1558, "pitch": 64, "duration": 19, "velocity": 113}, {"time": 1558, "pitch": 67, "duration": 19, "velocity": 117}, {"time": 1558, "pitch": 72, "duration": 19, "velocity": 107}, {"time": 1570, "pitch": 48, "duration": 6, "velocity": 110}, {"time": 1576, "pitch": 55, "duration": 11, "velocity": 117}, {"time": 1582, "pitch": 64, "duration": 11, "velocity": 110}, {"time": 1582, "pitch": 67, "duration": 11, "velocity": 117}, {"time": 1582, "pitch": 72, "duration": 10, "velocity": 100}, {"time": 1588, "pitch": 45, "duration": 22, "velocity": 108}, {"time": 1597, "pitch": 64, "duration": 2, "velocity": 96}, {"time": 1597, "pitch": 69, "duration": 1, "velocity": 110}, {"time": 1597, "pitch": 72, "duration": 2, "velocity": 91}, {"time": 1606, "pitch": 64, "duration": 20, "velocity": 110}, {"time": 1606, "pitch": 69, "duration": 20, "velocity": 116}, {"time": 1606, "pitch": 72, "duration": 20, "velocity": 102}, {"time": 1618, "pitch": 45, "duration": 6, "velocity": 108}, {"time": 1624, "pitch": 52, "duration": 11, "velocity": 114}, {"time": 1630, "pitch": 64, "duration": 8, "velocity": 113}, {"time": 1630, "pitch": 69, "duration": 8, "velocity": 116}, {"time": 1630, "pitch": 72, "duration": 9, "velocity": 107}, {"time": 1636, "pitch": 43, "duration": 10, "velocity": 110}, {"time": 1645, "pitch": 62, "duration": 4, "velocity": 98}, {"time": 1645, "pitch": 67, "duration": 3, "velocity": 102}, {"time": 1645, "pitch": 71, "duration": 4, "velocity": 94}, {"time": 1654, "pitch": 62, "duration": 21, "velocity": 113}, {"time": 1654, "pitch": 67, "duration": 21, "velocity": 116}, {"time": 1654, "pitch": 71, "duration": 20, "velocity": 110}, {"time": 1666, "pitch": 43, "duration": 6, "velocity": 110}, {"time": 1672, "pitch": 50, "duration": 11, "velocity": 116}, {"time": 1678, "pitch": 62, "duration": 8, "velocity": 110}, {"time": 1678, "pitch": 67, "duration": 8, "velocity": 113}, {"time": 1678, "pitch": 71, "duration": 9, "velocity": 96}, {"time": 1684, "pitch": 41, "duration": 21, "velocity": 107}, {"time": 1690, "pitch": 60, "duration": 2, "velocity": 91}, {"time": 1690, "pitch": 65, "duration": 2, "velocity": 108}, {"time": 1690, "pitch": 69, "duration": 2, "velocity": 98}, {"time": 1702, "pitch": 60, "duration": 13, "velocity": 110}, {"time": 1702, "pitch": 65, "duration": 13, "velocity": 116}, {"time": 1702, "pitch": 69, "duration": 14, "velocity": 108}, {"time": 1714, "pitch": 41, "duration": 8, "velocity": 110}, {"time": 1720, "pitch": 60, "duration": 11, "velocity": 110}, {"time": 1720, "pitch": 65, "duration": 12, "velocity": 114}, {"time": 1720, "pitch": 69, "duration": 12, "velocity": 107}, {"time": 1726, "pitch": 41, "duration": 3, "velocity": 100}, {"time": 1732, "pitch": 43, "duration": 12, "velocity": 108}, {"time": 1744, "pitch": 62, "duration": 19, "velocity": 107}, {"time": 1744, "pitch": 67, "duration": 19, "velocity": 107}, {"time": 1744, "pitch": 71, "duration": 19, "velocity": 104}, {"time": 1750, "pitch": 43, "duration": 5, "velocity": 110}, {"time": 1762, "pitch": 43, "duration": 10, "velocity": 113}, {"time": 1768, "pitch": 62, "duration": 17, "velocity": 110}, {"time": 1768, "pitch": 67, "duration": 17, "velocity": 116}, {"time": 1768, "pitch": 71, "duration": 17, "velocity": 108}, {"time": 1780, "pitch": 43, "duration": 18, "velocity": 110}, {"time": 1786, "pitch": 62, "duration": 2, "velocity": 104}, {"time": 1786, "pitch": 67, "duration": 2, "velocity": 113}, {"time": 1786, "pitch": 71, "duration": 2, "velocity": 104}, {"time": 1798, "pitch": 62, "duration": 13, "velocity": 113}, {"time": 1798, "pitch": 67, "duration": 13, "velocity": 117}, {"time": 1798, "pitch": 71, "duration": 13, "velocity": 110}, {"time": 1804, "pitch": 43, "duration": 6, "velocity": 108}, {"time": 1810, "pitch": 50, "duration": 10, "velocity": 116}, {"time": 1816, "pitch": 62, "duration": 10, "velocity": 114}, {"time": 1816, "pitch": 67, "duration": 13, "velocity": 114}, {"time": 1816, "pitch": 71, "duration": 13, "velocity": 113}, {"time": 1822, "pitch": 43, "duration": 7, "velocity": 100}, {"time": 1828, "pitch": 48, "duration": 22, "velocity": 116}, {"time": 1837, "pitch": 64, "duration": 2, "velocity": 100}, {"time": 1837, "pitch": 67, "duration": 1, "velocity": 108}, {"time": 1837, "pitch": 72, "duration": 2, "velocity": 91}, {"time": 1846, "pitch": 64, "duration": 19, "velocity": 113}, {"time": 1846, "pitch": 67, "duration": 19, "velocity": 116}, {"time": 1846, "pitch": 72, "duration": 19, "velocity": 108}, {"time": 1858, "pitch": 48, "duration": 6, "velocity": 108}, {"time": 1864, "pitch": 55, "duration": 11, "velocity": 104}, {"time": 1870, "pitch": 64, "duration": 6, "velocity": 107}, {"time": 1870, "pitch": 67, "duration": 6, "velocity": 113}, {"time": 1870, "pitch": 72, "duration": 7, "velocity": 98}, {"time": 1876, "pitch": 45, "duration": 9, "velocity": 81}, {"time": 1888, "pitch": 60, "duration": 6, "velocity": 81}, {"time": 1888, "pitch": 64, "duration": 6, "velocity": 81}, {"time": 1888, "pitch": 69, "duration": 7, "velocity": 81}, {"time": 1894, "pitch": 45, "duration": 2, "velocity": 81}, {"time": 1900, "pitch": 45, "duration": 10, "velocity": 82}, {"time": 1912, "pitch": 60, "duration": 8, "velocity": 82}, {"time": 1912, "pitch": 64, "duration": 8, "velocity": 82}, {"time": 1912, "pitch": 69, "duration": 8, "velocity": 82}, {"time": 1918, "pitch": 45, "duration": 3, "velocity": 82}, {"time": 1924, "pitch": 45, "duration": 9, "velocity": 83}, {"time": 1936, "pitch": 60, "duration": 6, "velocity": 83}, {"time": 1936, "pitch": 64, "duration": 6, "velocity": 83}, {"time": 1936, "pitch": 69, "duration": 7, "velocity": 83}, {"time": 1942, "pitch": 45, "duration": 2, "velocity": 83}, {"time": 1948, "pitch": 45, "duration": 10, "velocity": 83}, {"time": 1960, "pitch": 60, "duration": 8, "velocity": 83}, {"time": 1960, "pitch": 64, "duration": 8, "velocity": 83}, {"time": 1960, "pitch": 69, "duration": 8, "velocity": 83}, {"time": 1972, "pitch": 45, "duration": 9, "velocity": 83}, {"time": 1984, "pitch": 60, "duration": 6, "velocity": 83}, {"time": 1984, "pitch": 64, "duration": 6, "velocity": 83}, {"time": 1984, "pitch": 69, "duration": 7, "velocity": 83}, {"time": 1990, "pitch": 45, "duration": 2, "velocity": 83}, {"time": 1996, "pitch": 45, "duration": 10, "velocity": 83}, {"time": 2008, "pitch": 60, "duration": 8, "velocity": 83}, {"time": 2008, "pitch": 64, "duration": 8, "velocity": 83}, {"time": 2008, "pitch": 69, "duration": 8, "velocity": 83}, {"time": 2014, "pitch": 45, "duration": 3, "velocity": 83}, {"time": 2020, "pitch": 45, "duration": 9, "velocity": 83}, {"time": 2032, "pitch": 60, "duration": 6, "velocity": 84}, {"time": 2032, "pitch": 64, "duration": 6, "velocity": 84}, {"time": 2032, "pitch": 69, "duration": 7, "velocity": 84}, {"time": 2038, "pitch": 45, "duration": 2, "velocity": 85}, {"time": 2044, "pitch": 45, "duration": 10, "velocity": 85}, {"time": 2056, "pitch": 60, "duration": 8, "velocity": 85}, {"time": 2056, "pitch": 64, "duration": 8, "velocity": 85}, {"time": 2056, "pitch": 69, "duration": 8, "velocity": 85}, {"time": 2062, "pitch": 45, "duration": 3, "velocity": 85}, {"time": 2068, "pitch": 48, "duration": 14, "velocity": 85}, {"time": 2080, "pitch": 64, "duration": 2, "velocity": 100}, {"time": 2080, "pitch": 67, "duration": 2, "velocity": 107}, {"time": 2080, "pitch": 72, "duration": 2, "velocity": 93}, {"time": 2086, "pitch": 64, "duration": 6, "velocity": 107}, {"time": 2086, "pitch": 67, "duration": 5, "velocity": 114}, {"time": 2086, "pitch": 72, "duration": 6, "velocity": 98}, {"time": 2089, "pitch": 55, "duration": 14, "velocity": 93}, {"time": 2104, "pitch": 64, "duration": 13, "velocity": 96}, {"time": 2104, "pitch": 67, "duration": 13, "velocity": 107}, {"time": 2104, "pitch": 72, "duration": 13, "velocity": 92}, {"time": 2110, "pitch": 43, "duration": 6, "velocity": 96}, {"time": 2116, "pitch": 48, "duration": 12, "velocity": 107}, {"time": 2128, "pitch": 64, "duration": 8, "velocity": 104}, {"time": 2128, "pitch": 67, "duration": 8, "velocity": 110}, {"time": 2128, "pitch": 72, "duration": 8, "velocity": 93}, {"time": 2146, "pitch": 48, "duration": 6, "velocity": 98}, {"time": 2152, "pitch": 64, "duration": 10, "velocity": 107}, {"time": 2152, "pitch": 67, "duration": 10, "velocity": 114}, {"time": 2152, "pitch": 72, "duration": 10, "velocity": 93}, {"time": 2164, "pitch": 45, "duration": 13, "velocity": 100}, {"time": 2176, "pitch": 64, "duration": 2, "velocity": 107}, {"time": 2176, "pitch": 69, "duration": 2, "velocity": 113}, {"time": 2176, "pitch": 72, "duration": 2, "velocity": 93}, {"time": 2182, "pitch": 64, "duration": 2, "velocity": 98}, {"time": 2182, "pitch": 69, "duration": 2, "velocity": 102}, {"time": 2182, "pitch": 72, "duration": 1, "velocity": 85}, {"time": 2200, "pitch": 52, "duration": 6, "velocity": 107}, {"time": 2206, "pitch": 43, "duration": 5, "velocity": 84}, {"time": 2212, "pitch": 45, "duration": 9, "velocity": 107}, {"time": 2224, "pitch": 64, "duration": 2, "velocity": 104}, {"time": 2224, "pitch": 69, "duration": 2, "velocity": 113}, {"time": 2224, "pitch": 72, "duration": 2, "velocity": 96}, {"time": 2230, "pitch": 64, "duration": 4, "velocity": 108}, {"time": 2230, "pitch": 69, "duration": 4, "velocity": 116}, {"time": 2230, "pitch": 72, "duration": 4, "velocity": 100}, {"time": 2242, "pitch": 45, "duration": 7, "velocity": 92}, {"time": 2248, "pitch": 64, "duration": 7, "velocity": 114}, {"time": 2248, "pitch": 69, "duration": 7, "velocity": 119}, {"time": 2248, "pitch": 72, "duration": 7, "velocity": 104}, {"time": 2260, "pitch": 41, "duration": 10, "velocity": 108}, {"time": 2272, "pitch": 60, "duration": 2, "velocity": 102}, {"time": 2272, "pitch": 65, "duration": 2, "velocity": 107}, {"time": 2272, "pitch": 69, "duration": 2, "velocity": 94}, {"time": 2278, "pitch": 60, "duration": 6, "velocity": 107}, {"time": 2278, "pitch": 65, "duration": 7, "velocity": 114}, {"time": 2278, "pitch": 69, "duration": 6, "velocity": 104}, {"time": 2290, "pitch": 41, "duration": 6, "velocity": 102}, {"time": 2296, "pitch": 48, "duration": 7, "velocity": 110}, {"time": 2302, "pitch": 60, "duration": 6, "velocity": 94}, {"time": 2302, "pitch": 65, "duration": 6, "velocity": 104}, {"time": 2302, "pitch": 69, "duration": 7, "velocity": 94}, {"time": 2308, "pitch": 41, "duration": 11, "velocity": 104}, {"time": 2320, "pitch": 60, "duration": 2, "velocity": 94}, {"time": 2320, "pitch": 65, "duration": 2, "velocity": 108}, {"time": 2320, "pitch": 69, "duration": 2, "velocity": 100}, {"time": 2326, "pitch": 60, "duration": 2, "velocity": 102}, {"time": 2326, "pitch": 65, "duration": 2, "velocity": 113}, {"time": 2326, "pitch": 69, "duration": 3, "velocity": 102}, {"time": 2338, "pitch": 41, "duration": 7, "velocity": 102}, {"time": 2344, "pitch": 60, "duration": 6, "velocity": 107}, {"time": 2344, "pitch": 65, "duration": 11, "velocity": 114}, {"time": 2344, "pitch": 69, "duration": 10, "velocity": 108}, {"time": 2350, "pitch": 42, "duration": 3, "velocity": 80}, {"time": 2356, "pitch": 43, "duration": 12, "velocity": 107}, {"time": 2368, "pitch": 62, "duration": 2, "velocity": 107}, {"time": 2368, "pitch": 67, "duration": 2, "velocity": 113}, {"time": 2368, "pitch": 71, "duration": 2, "velocity": 100}, {"time": 2374, "pitch": 62, "duration": 7, "velocity": 107}, {"time": 2374, "pitch": 67, "duration": 7, "velocity": 114}, {"time": 2374, "pitch": 71, "duration": 8, "velocity": 93}, {"time": 2386, "pitch": 43, "duration": 6, "velocity": 102}, {"time": 2392, "pitch": 50, "duration": 9, "velocity": 102}, {"time": 2398, "pitch": 62, "duration": 6, "velocity": 104}, {"time": 2398, "pitch": 67, "duration": 6, "velocity": 110}, {"time": 2398, "pitch": 71, "duration": 7, "velocity": 94}, {"time": 2404, "pitch": 43, "duration": 11, "velocity": 116}, {"time": 2416, "pitch": 62, "duration": 2, "velocity": 91}, {"time": 2416, "pitch": 67, "duration": 2, "velocity": 100}, {"time": 2416, "pitch": 71, "duration": 3, "velocity": 91}, {"time": 2422, "pitch": 43, "duration": 4, "velocity": 114}, {"time": 2428, "pitch": 45, "duration": 10, "velocity": 110}, {"time": 2440, "pitch": 47, "duration": 8, "velocity": 110}, {"time": 2452, "pitch": 48, "duration": 14, "velocity": 107}, {"time": 2464, "pitch": 64, "duration": 2, "velocity": 100}, {"time": 2464, "pitch": 67, "duration": 2, "velocity": 107}, {"time": 2464, "pitch": 72, "duration": 2, "velocity": 93}, {"time": 2470, "pitch": 64, "duration": 6, "velocity": 107}, {"time": 2470, "pitch": 67, "duration": 5, "velocity": 114}, {"time": 2470, "pitch": 72, "duration": 6, "velocity": 98}, {"time": 2476, "pitch": 55, "duration": 8, "velocity": 93}, {"time": 2488, "pitch": 64, "duration": 13, "velocity": 96}, {"time": 2488, "pitch": 67, "duration": 13, "velocity": 107}, {"time": 2488, "pitch": 72, "duration": 13, "velocity": 92}, {"time": 2494, "pitch": 43, "duration": 6, "velocity": 96}, {"time": 2500, "pitch": 48, "duration": 12, "velocity": 107}, {"time": 2512, "pitch": 64, "duration": 8, "velocity": 104}, {"time": 2512, "pitch": 67, "duration": 8, "velocity": 110}, {"time": 2512, "pitch": 72, "duration": 8, "velocity": 93}, {"time": 2530, "pitch": 48, "duration": 6, "velocity": 98}, {"time": 2536, "pitch": 64, "duration": 10, "velocity": 107}, {"time": 2536, "pitch": 67, "duration": 10, "velocity": 114}, {"time": 2536, "pitch": 72, "duration": 10, "velocity": 93}, {"time": 2548, "pitch": 45, "duration": 13, "velocity": 100}, {"time": 2560, "pitch": 64, "duration": 2, "velocity": 107}, {"time": 2560, "pitch": 69, "duration": 2, "velocity": 113}, {"time": 2560, "pitch": 72, "duration": 2, "velocity": 93}, {"time": 2566, "pitch": 64, "duration": 2, "velocity": 98}, {"time": 2566, "pitch": 69, "duration": 2, "velocity": 102}, {"time": 2566, "pitch": 72, "duration": 1, "velocity": 85}, {"time": 2584, "pitch": 52, "duration": 6, "velocity": 107}, {"time": 2590, "pitch": 43, "duration": 5, "velocity": 84}, {"time": 2596, "pitch": 45, "duration": 9, "velocity": 107}, {"time": 2608, "pitch": 64, "duration": 2, "velocity": 104}, {"time": 2608, "pitch": 69, "duration": 2, "velocity": 113}, {"time": 2608, "pitch": 72, "duration": 2, "velocity": 96}, {"time": 2614, "pitch": 64, "duration": 4, "velocity": 108}, {"time": 2614, "pitch": 69, "duration": 4, "velocity": 116}, {"time": 2614, "pitch": 72, "duration": 4, "velocity": 100}, {"time": 2626, "pitch": 45, "duration": 7, "velocity": 92}, {"time": 2632, "pitch": 64, "duration": 7, "velocity": 114}, {"time": 2632, "pitch": 69, "duration": 7, "velocity": 119}, {"time": 2632, "pitch": 72, "duration": 7, "velocity": 104}, {"time": 2644, "pitch": 41, "duration": 10, "velocity": 108}, {"time": 2656, "pitch": 60, "duration": 2, "velocity": 102}, {"time": 2656, "pitch": 65, "duration": 2, "velocity": 107}, {"time": 2656, "pitch": 69, "duration": 2, "velocity": 94}, {"time": 2662, "pitch": 60, "duration": 6, "velocity": 107}, {"time": 2662, "pitch": 65, "duration": 7, "velocity": 114}, {"time": 2662, "pitch": 69, "duration": 6, "velocity": 104}, {"time": 2674, "pitch": 41, "duration": 6, "velocity": 102}, {"time": 2680, "pitch": 48, "duration": 7, "velocity": 110}, {"time": 2686, "pitch": 60, "duration": 6, "velocity": 94}, {"time": 2686, "pitch": 65, "duration": 6, "velocity": 104}, {"time": 2686, "pitch": 69, "duration": 7, "velocity": 94}, {"time": 2692, "pitch": 41, "duration": 11, "velocity": 104}, {"time": 2704, "pitch": 60, "duration": 2, "velocity": 94}, {"time": 2704, "pitch": 65, "duration": 2, "velocity": 108}, {"time": 2704, "pitch": 69, "duration": 2, "velocity": 100}, {"time": 2710, "pitch": 60, "duration": 2, "velocity": 102}, {"time": 2710, "pitch": 65, "duration": 2, "velocity": 113}, {"time": 2710, "pitch": 69, "duration": 3, "velocity": 102}, {"time": 2722, "pitch": 41, "duration": 7, "velocity": 102}, {"time": 2728, "pitch": 60, "duration": 6, "velocity": 107}, {"time": 2728, "pitch": 65, "duration": 11, "velocity": 114}, {"time": 2728, "pitch": 69, "duration": 10, "velocity": 108}, {"time": 2734, "pitch": 42, "duration": 3, "velocity": 80}, {"time": 2740, "pitch": 43, "duration": 12, "velocity": 107}, {"time": 2752, "pitch": 62, "duration": 2, "velocity": 107}, {"time": 2752, "pitch": 67, "duration": 2, "velocity": 113}, {"time": 2752, "pitch": 71, "duration": 2, "velocity": 100}, {"time": 2758, "pitch": 62, "duration": 7, "velocity": 107}, {"time": 2758, "pitch": 67, "duration": 7, "velocity": 114}, {"time": 2758, "pitch": 71, "duration": 8, "velocity": 93}, {"time": 2770, "pitch": 43, "duration": 6, "velocity": 102}, {"time": 2776, "pitch": 50, "duration": 9, "velocity": 102}, {"time": 2782, "pitch": 62, "duration": 6, "velocity": 104}, {"time": 2782, "pitch": 67, "duration": 6, "velocity": 110}, {"time": 2782, "pitch": 71, "duration": 7, "velocity": 94}, {"time": 2788, "pitch": 48, "duration": 18, "velocity": 94}, {"time": 2800, "pitch": 64, "duration": 2, "velocity": 100}, {"time": 2800, "pitch": 67, "duration": 2, "velocity": 108}, {"time": 2800, "pitch": 72, "duration": 2, "velocity": 93}, {"time": 2806, "pitch": 64, "duration": 4, "velocity": 104}, {"time": 2806, "pitch": 67, "duration": 3, "velocity": 113}, {"time": 2806, "pitch": 72, "duration": 3, "velocity": 98}, {"time": 2812, "pitch": 55, "duration": 14, "velocity": 91}, {"time": 2824, "pitch": 64, "duration": 3, "velocity": 102}, {"time": 2824, "pitch": 67, "duration": 2, "velocity": 110}, {"time": 2824, "pitch": 72, "duration": 3, "velocity": 100}, {"time": 2884, "pitch": 48, "duration": 21, "velocity": 102}, {"time": 2893, "pitch": 64, "duration": 2, "velocity": 89}, {"time": 2893, "pitch": 67, "duration": 1, "velocity": 108}, {"time": 2893, "pitch": 72, "duration": 2, "velocity": 91}, {"time": 2902, "pitch": 64, "duration": 19, "velocity": 108}, {"time": 2902, "pitch": 67, "duration": 20, "velocity": 117}, {"time": 2902, "pitch": 72, "duration": 19, "velocity": 108}, {"time": 2914, "pitch": 48, "duration": 7, "velocity": 110}, {"time": 2920, "pitch": 55, "duration": 11, "velocity": 102}, {"time": 2926, "pitch": 64, "duration": 10, "velocity": 102}, {"time": 2926, "pitch": 67, "duration": 10, "velocity": 110}, {"time": 2926, "pitch": 72, "duration": 10, "velocity": 98}, {"time": 2932, "pitch": 48, "duration": 22, "velocity": 102}, {"time": 2941, "pitch": 64, "duration": 2, "velocity": 90}, {"time": 2941, "pitch": 67, "duration": 1, "velocity": 98}, {"time": 2941, "pitch": 72, "duration": 1, "velocity": 88}, {"time": 2950, "pitch": 64, "duration": 19, "velocity": 110}, {"time": 2950, "pitch": 67, "duration": 19, "velocity": 117}, {"time": 2950, "pitch": 72, "duration": 19, "velocity": 102}, {"time": 2962, "pitch": 48, "duration": 7, "velocity": 110}, {"time": 2968, "pitch": 55, "duration": 12, "velocity": 110}, {"time": 2974, "pitch": 64, "duration": 9, "velocity": 104}, {"time": 2974, "pitch": 67, "duration": 9, "velocity": 113}, {"time": 2974, "pitch": 72, "duration": 9, "velocity": 93}, {"time": 2980, "pitch": 45, "duration": 21, "velocity": 116}, {"time": 2989, "pitch": 64, "duration": 2, "velocity": 93}, {"time": 2989, "pitch": 69, "duration": 1, "velocity": 104}, {"time": 2989, "pitch": 72, "duration": 2, "velocity": 90}, {"time": 2998, "pitch": 64, "duration": 20, "velocity": 110}, {"time": 2998, "pitch": 69, "duration": 20, "velocity": 116}, {"time": 2998, "pitch": 72, "duration": 19, "velocity": 108}, {"time": 3010, "pitch": 45, "duration": 7, "velocity": 104}, {"time": 3016, "pitch": 52, "duration": 12, "velocity": 110}, {"time": 3022, "pitch": 64, "duration": 7, "velocity": 100}, {"time": 3022, "pitch": 69, "duration": 7, "velocity": 108}, {"time": 3022, "pitch": 72, "duration": 7, "velocity": 94}, {"time": 3028, "pitch": 43, "duration": 23, "velocity": 110}, {"time": 3037, "pitch": 62, "duration": 2, "velocity": 96}, {"time": 3037, "pitch": 67, "duration": 1, "velocity": 108}, {"time": 3037, "pitch": 71, "duration": 2, "velocity": 96}, {"time": 3046, "pitch": 62, "duration": 14, "velocity": 110}, {"time": 3046, "pitch": 67, "duration": 14, "velocity": 114}, {"time": 3046, "pitch": 71, "duration": 14, "velocity": 104}, {"time": 3058, "pitch": 43, "duration": 8, "velocity": 114}, {"time": 3064, "pitch": 62, "duration": 12, "velocity": 110}, {"time": 3064, "pitch": 67, "duration": 13, "velocity": 113}, {"time": 3064, "pitch": 71, "duration": 13, "velocity": 98}, {"time": 3070, "pitch": 43, "duration": 5, "velocity": 100}, {"time": 3076, "pitch": 41, "duration": 13, "velocity": 113}, {"time": 3088, "pitch": 65, "duration": 19, "velocity": 100}, {"time": 3088, "pitch": 69, "duration": 19, "velocity": 114}, {"time": 3088, "pitch": 72, "duration": 18, "velocity": 98}, {"time": 3094, "pitch": 41, "duration": 3, "velocity": 108}, {"time": 3106, "pitch": 41, "duration": 8, "velocity": 114}, {"time": 3112, "pitch": 65, "duration": 13, "velocity": 104}, {"time": 3112, "pitch": 69, "duration": 14, "velocity": 116}, {"time": 3112, "pitch": 72, "duration": 13, "velocity": 102}, {"time": 3118, "pitch": 41, "duration": 4, "velocity": 104}, {"time": 3124, "pitch": 43, "duration": 13, "velocity": 113}, {"time": 3136, "pitch": 62, "duration": 19, "velocity": 100}, {"time": 3136, "pitch": 67, "duration": 19, "velocity": 108}, {"time": 3136, "pitch": 71, "duration": 19, "velocity": 100}, {"time": 3142, "pitch": 43, "duration": 7, "velocity": 114}, {"time": 3154, "pitch": 43, "duration": 9, "velocity": 114}, {"time": 3160, "pitch": 62, "duration": 18, "velocity": 108}, {"time": 3160, "pitch": 67, "duration": 16, "velocity": 108}, {"time": 3160, "pitch": 71, "duration": 15, "velocity": 98}, {"time": 3166, "pitch": 43, "duration": 3, "velocity": 92}, {"time": 3172, "pitch": 43, "duration": 23, "velocity": 110}, {"time": 3181, "pitch": 62, "duration": 5, "velocity": 90}, {"time": 3181, "pitch": 67, "duration": 6, "velocity": 91}, {"time": 3181, "pitch": 71, "duration": 5, "velocity": 90}, {"time": 3190, "pitch": 62, "duration": 13, "velocity": 108}, {"time": 3190, "pitch": 67, "duration": 13, "velocity": 114}, {"time": 3190, "pitch": 71, "duration": 13, "velocity": 104}, {"time": 3202, "pitch": 43, "duration": 9, "velocity": 108}, {"time": 3208, "pitch": 62, "duration": 23, "velocity": 104}, {"time": 3208, "pitch": 67, "duration": 24, "velocity": 114}, {"time": 3208, "pitch": 71, "duration": 24, "velocity": 100}, {"time": 3220, "pitch": 43, "duration": 21, "velocity": 110}, {"time": 3226, "pitch": 50, "duration": 14, "velocity": 88}, {"time": 3232, "pitch": 55, "duration": 6, "velocity": 80}, {"time": 3238, "pitch": 62, "duration": 13, "velocity": 113}, {"time": 3238, "pitch": 67, "duration": 13, "velocity": 116}, {"time": 3238, "pitch": 71, "duration": 13, "velocity": 107}, {"time": 3250, "pitch": 43, "duration": 8, "velocity": 113}, {"time": 3256, "pitch": 62, "duration": 11, "velocity": 114}, {"time": 3256, "pitch": 67, "duration": 12, "velocity": 116}, {"time": 3256, "pitch": 71, "duration": 12, "velocity": 104}, {"time": 3262, "pitch": 43, "duration": 3, "velocity": 108}, {"time": 3268, "pitch": 48, "duration": 12, "velocity": 114}, {"time": 3280, "pitch": 64, "duration": 26, "velocity": 108}, {"time": 3280, "pitch": 67, "duration": 26, "velocity": 114}, {"time": 3280, "pitch": 72, "duration": 26, "velocity": 102}, {"time": 3286, "pitch": 48, "duration": 3, "velocity": 108}, {"time": 3298, "pitch": 48, "duration": 6, "velocity": 110}, {"time": 3304, "pitch": 55, "duration": 12, "velocity": 108}, {"time": 3310, "pitch": 64, "duration": 12, "velocity": 110}, {"time": 3310, "pitch": 67, "duration": 11, "velocity": 116}, {"time": 3310, "pitch": 72, "duration": 11, "velocity": 108}, {"time": 3316, "pitch": 48, "duration": 20, "velocity": 107}, {"time": 3325, "pitch": 64, "duration": 2, "velocity": 98}, {"time": 3325, "pitch": 67, "duration": 1, "velocity": 107}, {"time": 3325, "pitch": 72, "duration": 2, "velocity": 92}, {"time": 3334, "pitch": 64, "duration": 19, "velocity": 113}, {"time": 3334, "pitch": 67, "duration": 19, "velocity": 117}, {"time": 3334, "pitch": 72, "duration": 19, "velocity": 107}, {"time": 3346, "pitch": 48, "duration": 6, "velocity": 110}, {"time": 3352, "pitch": 55, "duration": 11, "velocity": 117}, {"time": 3358, "pitch": 64, "duration": 11, "velocity": 110}, {"time": 3358, "pitch": 67, "duration": 11, "velocity": 117}, {"time": 3358, "pitch": 72, "duration": 10, "velocity": 100}, {"time": 3364, "pitch": 45, "duration": 22, "velocity": 108}, {"time": 3373, "pitch": 64, "duration": 2, "velocity": 96}, {"time": 3373, "pitch": 69, "duration": 1, "velocity": 110}, {"time": 3373, "pitch": 72, "duration": 2, "velocity": 91}, {"time": 3382, "pitch": 64, "duration": 20, "velocity": 110}, {"time": 3382, "pitch": 69, "duration": 20, "velocity": 116}, {"time": 3382, "pitch": 72, "duration": 20, "velocity": 102}, {"time": 3394, "pitch": 45, "duration": 6, "velocity": 108}, {"time": 3400, "pitch": 52, "duration": 11, "velocity": 114}, {"time": 3406, "pitch": 64, "duration": 8, "velocity": 113}, {"time": 3406, "pitch": 69, "duration": 8, "velocity": 116}, {"time": 3406, "pitch": 72, "duration": 9, "velocity": 107}, {"time": 3412, "pitch": 43, "duration": 10, "velocity": 110}, {"time": 3421, "pitch": 62, "duration": 4, "velocity": 98}, {"time": 3421, "pitch": 67, "duration": 3, "velocity": 102}, {"time": 3421, "pitch": 71, "duration": 4, "velocity": 94}, {"time": 3430, "pitch": 62, "duration": 21, "velocity": 113}, {"time": 3430, "pitch": 67, "duration": 21, "velocity": 116}, {"time": 3430, "pitch": 71, "duration": 20, "velocity": 110}, {"time": 3442, "pitch": 43, "duration": 6, "velocity": 110}, {"time": 3448, "pitch": 50, "duration": 11, "velocity": 116}, {"time": 3454, "pitch": 62, "duration": 8, "velocity": 110}, {"time": 3454, "pitch": 67, "duration": 8, "velocity": 113}, {"time": 3454, "pitch": 71, "duration": 9, "velocity": 96}, {"time": 3460, "pitch": 41, "duration": 21, "velocity": 107}, {"time": 3466, "pitch": 60, "duration": 2, "velocity": 91}, {"time": 3466, "pitch": 65, "duration": 2, "velocity": 108}, {"time": 3466, "pitch": 69, "duration": 2, "velocity": 98}, {"time": 3478, "pitch": 60, "duration": 13, "velocity": 110}, {"time": 3478, "pitch": 65, "duration": 13, "velocity": 116}, {"time": 3478, "pitch": 69, "duration": 14, "velocity": 108}, {"time": 3490, "pitch": 41, "duration": 8, "velocity": 110}, {"time": 3496, "pitch": 60, "duration": 11, "velocity": 110}, {"time": 3496, "pitch": 65, "duration": 12, "velocity": 114}, {"time": 3496, "pitch": 69, "duration": 12, "velocity": 107}, {"time": 3502, "pitch": 41, "duration": 3, "velocity": 100}, {"time": 3508, "pitch": 43, "duration": 12, "velocity": 108}, {"time": 3520, "pitch": 62, "duration": 19, "velocity": 107}, {"time": 3520, "pitch": 67, "duration": 19, "velocity": 107}, {"time": 3520, "pitch": 71, "duration": 19, "velocity": 104}, {"time": 3526, "pitch": 43, "duration": 5, "velocity": 110}, {"time": 3538, "pitch": 43, "duration": 10, "velocity": 113}, {"time": 3544, "pitch": 62, "duration": 17, "velocity": 110}, {"time": 3544, "pitch": 67, "duration": 17, "velocity": 116}, {"time": 3544, "pitch": 71, "duration": 17, "velocity": 108}, {"time": 3556, "pitch": 43, "duration": 18, "velocity": 110}, {"time": 3562, "pitch": 62, "duration": 2, "velocity": 104}, {"time": 3562, "pitch": 67, "duration": 2, "velocity": 113}, {"time": 3562, "pitch": 71, "duration": 2, "velocity": 104}, {"time": 3574, "pitch": 62, "duration": 13, "velocity": 113}, {"time": 3574, "pitch": 67, "duration": 13, "velocity": 117}, {"time": 3574, "pitch": 71, "duration": 13, "velocity": 110}, {"time": 3580, "pitch": 43, "duration": 6, "velocity": 108}, {"time": 3586, "pitch": 50, "duration": 10, "velocity": 116}, {"time": 3592, "pitch": 62, "duration": 10, "velocity": 114}, {"time": 3592, "pitch": 67, "duration": 13, "velocity": 114}, {"time": 3592, "pitch": 71, "duration": 13, "velocity": 113}, {"time": 3598, "pitch": 43, "duration": 7, "velocity": 100}, {"time": 3604, "pitch": 48, "duration": 22, "velocity": 116}, {"time": 3613, "pitch": 64, "duration": 2, "velocity": 100}, {"time": 3613, "pitch": 67, "duration": 1, "velocity": 108}, {"time": 3613, "pitch": 72, "duration": 2, "velocity": 91}, {"time": 3622, "pitch": 64, "duration": 19, "velocity": 113}, {"time": 3622, "pitch": 67, "duration": 19, "velocity": 116}, {"time": 3622, "pitch": 72, "duration": 19, "velocity": 108}, {"time": 3634, "pitch": 48, "duration": 6, "velocity": 108}, {"time": 3640, "pitch": 55, "duration": 11, "velocity": 104}, {"time": 3646, "pitch": 64, "duration": 6, "velocity": 107}, {"time": 3646, "pitch": 67, "duration": 6, "velocity": 113}, {"time": 3646, "pitch": 72, "duration": 7, "velocity": 98}, {"time": 3652, "pitch": 45, "duration": 8, "velocity": 97}, {"time": 3688, "pitch": 45, "duration": 3, "velocity": 97}, {"time": 3691, "pitch": 60, "duration": 3, "velocity": 97}, {"time": 3691, "pitch": 64, "duration": 3, "velocity": 97}, {"time": 3691, "pitch": 69, "duration": 3, "velocity": 97}, {"time": 3697, "pitch": 60, "duration": 1, "velocity": 97}, {"time": 3697, "pitch": 64, "duration": 1, "velocity": 97}, {"time": 3697, "pitch": 69, "duration": 1, "velocity": 97}, {"time": 3736, "pitch": 45, "duration": 3, "velocity": 97}, {"time": 3739, "pitch": 60, "duration": 3, "velocity": 97}, {"time": 3739, "pitch": 64, "duration": 3, "velocity": 97}, {"time": 3739, "pitch": 69, "duration": 3, "velocity": 97}, {"time": 3745, "pitch": 60, "duration": 1, "velocity": 97}, {"time": 3745, "pitch": 64, "duration": 1, "velocity": 97}, {"time": 3745, "pitch": 69, "duration": 1, "velocity": 97}, {"time": 3784, "pitch": 45, "duration": 3, "velocity": 97}, {"time": 3787, "pitch": 60, "duration": 3, "velocity": 97}, {"time": 3787, "pitch": 64, "duration": 3, "velocity": 97}, {"time": 3787, "pitch": 69, "duration": 3, "velocity": 97}, {"time": 3793, "pitch": 60, "duration": 1, "velocity": 97}, {"time": 3793, "pitch": 64, "duration": 1, "velocity": 97}, {"time": 3793, "pitch": 69, "duration": 1, "velocity": 97}, {"time": 3832, "pitch": 45, "duration": 3, "velocity": 97}, {"time": 3835, "pitch": 60, "duration": 3, "velocity": 97}, {"time": 3835, "pitch": 64, "duration": 3, "velocity": 97}, {"time": 3835, "pitch": 69, "duration": 3, "velocity": 97}, {"time": 3841, "pitch": 60, "duration": 1, "velocity": 97}, {"time": 3841, "pitch": 64, "duration": 1, "velocity": 97}, {"time": 3841, "pitch": 69, "duration": 1, "velocity": 97}, {"time": 3880, "pitch": 45, "duration": 3, "velocity": 97}, {"time": 3883, "pitch": 60, "duration": 3, "velocity": 97}, {"time": 3883, "pitch": 64, "duration": 3, "velocity": 97}, {"time": 3883, "pitch": 69, "duration": 3, "velocity": 97}, {"time": 3889, "pitch": 60, "duration": 1, "velocity": 97}, {"time": 3889, "pitch": 64, "duration": 1, "velocity": 97}, {"time": 3889, "pitch": 69, "duration": 1, "velocity": 97}, {"time": 3928, "pitch": 45, "duration": 3, "velocity": 97}, {"time": 3931, "pitch": 60, "duration": 3, "velocity": 97}, {"time": 3931, "pitch": 64, "duration": 3, "velocity": 97}, {"time": 3931, "pitch": 69, "duration": 3, "velocity": 97}, {"time": 3937, "pitch": 60, "duration": 1, "velocity": 97}, {"time": 3937, "pitch": 64, "duration": 1, "velocity": 97}, {"time": 3937, "pitch": 69, "duration": 1, "velocity": 97}, {"time": 3976, "pitch": 45, "duration": 3, "velocity": 97}, {"time": 3979, "pitch": 60, "duration": 3, "velocity": 97}, {"time": 3979, "pitch": 64, "duration": 3, "velocity": 97}, {"time": 3979, "pitch": 69, "duration": 3, "velocity": 97}, {"time": 3985, "pitch": 60, "duration": 1, "velocity": 97}, {"time": 3985, "pitch": 64, "duration": 1, "velocity": 97}, {"time": 3985, "pitch": 69, "duration": 1, "velocity": 97}, {"time": 4024, "pitch": 45, "duration": 3, "velocity": 97}, {"time": 4036, "pitch": 48, "duration": 21, "velocity": 102}, {"time": 4045, "pitch": 64, "duration": 2, "velocity": 89}, {"time": 4045, "pitch": 67, "duration": 1, "velocity": 108}, {"time": 4045, "pitch": 72, "duration": 2, "velocity": 91}, {"time": 4054, "pitch": 64, "duration": 19, "velocity": 108}, {"time": 4054, "pitch": 67, "duration": 20, "velocity": 117}, {"time": 4054, "pitch": 72, "duration": 19, "velocity": 108}, {"time": 4066, "pitch": 48, "duration": 7, "velocity": 110}, {"time": 4072, "pitch": 55, "duration": 11, "velocity": 102}, {"time": 4078, "pitch": 64, "duration": 10, "velocity": 102}, {"time": 4078, "pitch": 67, "duration": 10, "velocity": 110}, {"time": 4078, "pitch": 72, "duration": 10, "velocity": 98}, {"time": 4084, "pitch": 48, "duration": 22, "velocity": 102}, {"time": 4093, "pitch": 64, "duration": 2, "velocity": 90}, {"time": 4093, "pitch": 67, "duration": 1, "velocity": 98}, {"time": 4093, "pitch": 72, "duration": 1, "velocity": 88}, {"time": 4102, "pitch": 64, "duration": 19, "velocity": 110}, {"time": 4102, "pitch": 67, "duration": 19, "velocity": 117}, {"time": 4102, "pitch": 72, "duration": 19, "velocity": 102}, {"time": 4114, "pitch": 48, "duration": 7, "velocity": 110}, {"time": 4120, "pitch": 55, "duration": 12, "velocity": 110}, {"time": 4126, "pitch": 64, "duration": 9, "velocity": 104}, {"time": 4126, "pitch": 67, "duration": 9, "velocity": 113}, {"time": 4126, "pitch": 72, "duration": 9, "velocity": 93}, {"time": 4132, "pitch": 45, "duration": 21, "velocity": 116}, {"time": 4141, "pitch": 64, "duration": 2, "velocity": 93}, {"time": 4141, "pitch": 69, "duration": 1, "velocity": 104}, {"time": 4141, "pitch": 72, "duration": 2, "velocity": 90}, {"time": 4150, "pitch": 64, "duration": 20, "velocity": 110}, {"time": 4150, "pitch": 69, "duration": 20, "velocity": 116}, {"time": 4150, "pitch": 72, "duration": 19, "velocity": 108}, {"time": 4162, "pitch": 45, "duration": 7, "velocity": 104}, {"time": 4168, "pitch": 52, "duration": 12, "velocity": 110}, {"time": 4174, "pitch": 64, "duration": 7, "velocity": 100}, {"time": 4174, "pitch": 69, "duration": 7, "velocity": 108}, {"time": 4174, "pitch": 72, "duration": 7, "velocity": 94}, {"time": 4180, "pitch": 43, "duration": 23, "velocity": 110}, {"time": 4189, "pitch": 62, "duration": 2, "velocity": 96}, {"time": 4189, "pitch": 67, "duration": 1, "velocity": 108}, {"time": 4189, "pitch": 71, "duration": 2, "velocity": 96}, {"time": 4198, "pitch": 62, "duration": 14, "velocity": 110}, {"time": 4198, "pitch": 67, "duration": 14, "velocity": 114}, {"time": 4198, "pitch": 71, "duration": 14, "velocity": 104}, {"time": 4210, "pitch": 43, "duration": 8, "velocity": 114}, {"time": 4216, "pitch": 62, "duration": 12, "velocity": 110}, {"time": 4216, "pitch": 67, "duration": 13, "velocity": 113}, {"time": 4216, "pitch": 71, "duration": 13, "velocity": 98}, {"time": 4222, "pitch": 43, "duration": 5, "velocity": 100}, {"time": 4228, "pitch": 41, "duration": 13, "velocity": 113}, {"time": 4240, "pitch": 65, "duration": 19, "velocity": 100}, {"time": 4240, "pitch": 69, "duration": 19, "velocity": 114}, {"time": 4240, "pitch": 72, "duration": 18, "velocity": 98}, {"time": 4246, "pitch": 41, "duration": 3, "velocity": 108}, {"time": 4258, "pitch": 41, "duration": 8, "velocity": 114}, {"time": 4264, "pitch": 65, "duration": 13, "velocity": 104}, {"time": 4264, "pitch": 69, "duration": 14, "velocity": 116}, {"time": 4264, "pitch": 72, "duration": 13, "velocity": 102}, {"time": 4270, "pitch": 41, "duration": 4, "velocity": 104}, {"time": 4276, "pitch": 43, "duration": 13, "velocity": 113}, {"time": 4288, "pitch": 62, "duration": 19, "velocity": 100}, {"time": 4288, "pitch": 67, "duration": 19, "velocity": 108}, {"time": 4288, "pitch": 71, "duration": 19, "velocity": 100}, {"time": 4294, "pitch": 43, "duration": 7, "velocity": 114}, {"time": 4306, "pitch": 43, "duration": 9, "velocity": 114}, {"time": 4312, "pitch": 62, "duration": 18, "velocity": 108}, {"time": 4312, "pitch": 67, "duration": 16, "velocity": 108}, {"time": 4312, "pitch": 71, "duration": 15, "velocity": 98}, {"time": 4318, "pitch": 43, "duration": 3, "velocity": 92}, {"time": 4324, "pitch": 43, "duration": 23, "velocity": 110}, {"time": 4333, "pitch": 62, "duration": 5, "velocity": 90}, {"time": 4333, "pitch": 67, "duration": 6, "velocity": 91}, {"time": 4333, "pitch": 71, "duration": 5, "velocity": 90}, {"time": 4342, "pitch": 62, "duration": 13, "velocity": 108}, {"time": 4342, "pitch": 67, "duration": 13, "velocity": 114}, {"time": 4342, "pitch": 71, "duration": 13, "velocity": 104}, {"time": 4354, "pitch": 43, "duration": 9, "velocity": 108}, {"time": 4360, "pitch": 62, "duration": 23, "velocity": 104}, {"time": 4360, "pitch": 67, "duration": 24, "velocity": 114}, {"time": 4360, "pitch": 71, "duration": 24, "velocity": 100}, {"time": 4372, "pitch": 43, "duration": 21, "velocity": 110}, {"time": 4378, "pitch": 50, "duration": 14, "velocity": 88}, {"time": 4384, "pitch": 55, "duration": 6, "velocity": 80}, {"time": 4390, "pitch": 62, "duration": 13, "velocity": 113}, {"time": 4390, "pitch": 67, "duration": 13, "velocity": 116}, {"time": 4390, "pitch": 71, "duration": 13, "velocity": 107}, {"time": 4402, "pitch": 43, "duration": 8, "velocity": 113}, {"time": 4408, "pitch": 62, "duration": 11, "velocity": 114}, {"time": 4408, "pitch": 67, "duration": 12, "velocity": 116}, {"time": 4408, "pitch": 71, "duration": 12, "velocity": 104}, {"time": 4414, "pitch": 43, "duration": 3, "velocity": 108}, {"time": 4420, "pitch": 48, "duration": 12, "velocity": 114}, {"time": 4432, "pitch": 64, "duration": 26, "velocity": 108}, {"time": 4432, "pitch": 67, "duration": 26, "velocity": 114}, {"time": 4432, "pitch": 72, "duration": 26, "velocity": 102}, {"time": 4438, "pitch": 48, "duration": 3, "velocity": 108}, {"time": 4450, "pitch": 48, "duration": 6, "velocity": 110}, {"time": 4456, "pitch": 55, "duration": 12, "velocity": 108}, {"time": 4462, "pitch": 64, "duration": 12, "velocity": 110}, {"time": 4462, "pitch": 67, "duration": 11, "velocity": 116}, {"time": 4462, "pitch": 72, "duration": 11, "velocity": 108}, {"time": 4468, "pitch": 48, "duration": 20, "velocity": 107}, {"time": 4477, "pitch": 64, "duration": 2, "velocity": 98}, {"time": 4477, "pitch": 67, "duration": 1, "velocity": 107}, {"time": 4477, "pitch": 72, "duration": 2, "velocity": 92}, {"time": 4486, "pitch": 64, "duration": 19, "velocity": 113}, {"time": 4486, "pitch": 67, "duration": 19, "velocity": 117}, {"time": 4486, "pitch": 72, "duration": 19, "velocity": 107}, {"time": 4498, "pitch": 48, "duration": 6, "velocity": 110}, {"time": 4504, "pitch": 55, "duration": 11, "velocity": 117}, {"time": 4510, "pitch": 64, "duration": 11, "velocity": 110}, {"time": 4510, "pitch": 67, "duration": 11, "velocity": 117}, {"time": 4510, "pitch": 72, "duration": 10, "velocity": 100}, {"time": 4516, "pitch": 45, "duration": 22, "velocity": 108}, {"time": 4525, "pitch": 64, "duration": 2, "velocity": 96}, {"time": 4525, "pitch": 69, "duration": 1, "velocity": 110}, {"time": 4525, "pitch": 72, "duration": 2, "velocity": 91}, {"time": 4534, "pitch": 64, "duration": 20, "velocity": 110}, {"time": 4534, "pitch": 69, "duration": 20, "velocity": 116}, {"time": 4534, "pitch": 72, "duration": 20, "velocity": 102}, {"time": 4546, "pitch": 45, "duration": 6, "velocity": 108}, {"time": 4552, "pitch": 52, "duration": 11, "velocity": 114}, {"time": 4558, "pitch": 64, "duration": 8, "velocity": 113}, {"time": 4558, "pitch": 69, "duration": 8, "velocity": 116}, {"time": 4558, "pitch": 72, "duration": 9, "velocity": 107}, {"time": 4564, "pitch": 43, "duration": 10, "velocity": 110}, {"time": 4573, "pitch": 62, "duration": 4, "velocity": 98}, {"time": 4573, "pitch": 67, "duration": 3, "velocity": 102}, {"time": 4573, "pitch": 71, "duration": 4, "velocity": 94}, {"time": 4582, "pitch": 62, "duration": 21, "velocity": 113}, {"time": 4582, "pitch": 67, "duration": 21, "velocity": 116}, {"time": 4582, "pitch": 71, "duration": 20, "velocity": 110}, {"time": 4594, "pitch": 43, "duration": 6, "velocity": 110}, {"time": 4600, "pitch": 50, "duration": 11, "velocity": 116}, {"time": 4606, "pitch": 62, "duration": 8, "velocity": 110}, {"time": 4606, "pitch": 67, "duration": 8, "velocity": 113}, {"time": 4606, "pitch": 71, "duration": 9, "velocity": 96}, {"time": 4612, "pitch": 41, "duration": 21, "velocity": 107}, {"time": 4618, "pitch": 60, "duration": 2, "velocity": 91}, {"time": 4618, "pitch": 65, "duration": 2, "velocity": 108}, {"time": 4618, "pitch": 69, "duration": 2, "velocity": 98}, {"time": 4630, "pitch": 60, "duration": 13, "velocity": 110}, {"time": 4630, "pitch": 65, "duration": 13, "velocity": 116}, {"time": 4630, "pitch": 69, "duration": 14, "velocity": 108}, {"time": 4642, "pitch": 41, "duration": 8, "velocity": 110}, {"time": 4648, "pitch": 60, "duration": 11, "velocity": 110}, {"time": 4648, "pitch": 65, "duration": 12, "velocity": 114}, {"time": 4648, "pitch": 69, "duration": 12, "velocity": 107}, {"time": 4654, "pitch": 41, "duration": 3, "velocity": 100}, {"time": 4660, "pitch": 43, "duration": 12, "velocity": 108}, {"time": 4672, "pitch": 62, "duration": 19, "velocity": 107}, {"time": 4672, "pitch": 67, "duration": 19, "velocity": 107}, {"time": 4672, "pitch": 71, "duration": 19, "velocity": 104}, {"time": 4678, "pitch": 43, "duration": 5, "velocity": 110}, {"time": 4690, "pitch": 43, "duration": 10, "velocity": 113}, {"time": 4696, "pitch": 62, "duration": 17, "velocity": 110}, {"time": 4696, "pitch": 67, "duration": 17, "velocity": 116}, {"time": 4696, "pitch": 71, "duration": 17, "velocity": 108}, {"time": 4708, "pitch": 43, "duration": 18, "velocity": 110}, {"time": 4714, "pitch": 62, "duration": 2, "velocity": 104}, {"time": 4714, "pitch": 67, "duration": 2, "velocity": 113}, {"time": 4714, "pitch": 71, "duration": 2, "velocity": 104}, {"time": 4726, "pitch": 62, "duration": 13, "velocity": 113}, {"time": 4726, "pitch": 67, "duration": 13, "velocity": 117}, {"time": 4726, "pitch": 71, "duration": 13, "velocity": 110}, {"time": 4732, "pitch": 43, "duration": 6, "velocity": 108}, {"time": 4738, "pitch": 50, "duration": 10, "velocity": 116}, {"time": 4744, "pitch": 62, "duration": 10, "velocity": 114}, {"time": 4744, "pitch": 67, "duration": 13, "velocity": 114}, {"time": 4744, "pitch": 71, "duration": 13, "velocity": 113}, {"time": 4750, "pitch": 43, "duration": 7, "velocity": 100}, {"time": 4756, "pitch": 48, "duration": 22, "velocity": 116}, {"time": 4765, "pitch": 64, "duration": 2, "velocity": 100}, {"time": 4765, "pitch": 67, "duration": 1, "velocity": 108}, {"time": 4765, "pitch": 72, "duration": 2, "velocity": 91}, {"time": 4774, "pitch": 64, "duration": 19, "velocity": 113}, {"time": 4774, "pitch": 67, "duration": 19, "velocity": 116}, {"time": 4774, "pitch": 72, "duration": 19, "velocity": 108}, {"time": 4786, "pitch": 48, "duration": 6, "velocity": 108}, {"time": 4792, "pitch": 55, "duration": 11, "velocity": 104}, {"time": 4798, "pitch": 64, "duration": 6, "velocity": 107}, {"time": 4798, "pitch": 67, "duration": 6, "velocity": 113}, {"time": 4798, "pitch": 72, "duration": 7, "velocity": 98}, {"time": 5188, "pitch": 48, "duration": 12, "velocity": 114}, {"time": 5200, "pitch": 64, "duration": 26, "velocity": 108}, {"time": 5200, "pitch": 67, "duration": 26, "velocity": 114}, {"time": 5200, "pitch": 72, "duration": 26, "velocity": 102}, {"time": 5206, "pitch": 48, "duration": 3, "velocity": 108}, {"time": 5218, "pitch": 48, "duration": 6, "velocity": 110}, {"time": 5224, "pitch": 55, "duration": 12, "velocity": 108}, {"time": 5230, "pitch": 64, "duration": 12, "velocity": 110}, {"time": 5230, "pitch": 67, "duration": 11, "velocity": 116}, {"time": 5230, "pitch": 72, "duration": 11, "velocity": 108}, {"time": 5236, "pitch": 48, "duration": 20, "velocity": 107}, {"time": 5245, "pitch": 64, "duration": 2, "velocity": 98}, {"time": 5245, "pitch": 67, "duration": 1, "velocity": 107}, {"time": 5245, "pitch": 72, "duration": 2, "velocity": 92}, {"time": 5254, "pitch": 64, "duration": 19, "velocity": 113}, {"time": 5254, "pitch": 67, "duration": 19, "velocity": 117}, {"time": 5254, "pitch": 72, "duration": 19, "velocity": 107}, {"time": 5266, "pitch": 48, "duration": 6, "velocity": 110}, {"time": 5272, "pitch": 55, "duration": 11, "velocity": 117}, {"time": 5278, "pitch": 64, "duration": 11, "velocity": 110}, {"time": 5278, "pitch": 67, "duration": 11, "velocity": 117}, {"time": 5278, "pitch": 72, "duration": 10, "velocity": 100}, {"time": 5284, "pitch": 45, "duration": 22, "velocity": 108}, {"time": 5293, "pitch": 64, "duration": 2, "velocity": 96}, {"time": 5293, "pitch": 69, "duration": 1, "velocity": 110}, {"time": 5293, "pitch": 72, "duration": 2, "velocity": 91}, {"time": 5302, "pitch": 64, "duration": 20, "velocity": 110}, {"time": 5302, "pitch": 69, "duration": 20, "velocity": 116}, {"time": 5302, "pitch": 72, "duration": 20, "velocity": 102}, {"time": 5314, "pitch": 45, "duration": 6, "velocity": 108}, {"time": 5320, "pitch": 52, "duration": 11, "velocity": 114}, {"time": 5326, "pitch": 64, "duration": 8, "velocity": 113}, {"time": 5326, "pitch": 69, "duration": 8, "velocity": 116}, {"time": 5326, "pitch": 72, "duration": 9, "velocity": 107}, {"time": 5332, "pitch": 43, "duration": 10, "velocity": 110}, {"time": 5341, "pitch": 62, "duration": 4, "velocity": 98}, {"time": 5341, "pitch": 67, "duration": 3, "velocity": 102}, {"time": 5341, "pitch": 71, "duration": 4, "velocity": 94}, {"time": 5350, "pitch": 62, "duration": 21, "velocity": 113}, {"time": 5350, "pitch": 67, "duration": 21, "velocity": 116}, {"time": 5350, "pitch": 71, "duration": 20, "velocity": 110}, {"time": 5362, "pitch": 43, "duration": 6, "velocity": 110}, {"time": 5368, "pitch": 50, "duration": 11, "velocity": 116}, {"time": 5374, "pitch": 62, "duration": 8, "velocity": 110}, {"time": 5374, "pitch": 67, "duration": 8, "velocity": 113}, {"time": 5374, "pitch": 71, "duration": 9, "velocity": 96}, {"time": 5380, "pitch": 41, "duration": 21, "velocity": 107}, {"time": 5386, "pitch": 60, "duration": 2, "velocity": 91}, {"time": 5386, "pitch": 65, "duration": 2, "velocity": 108}, {"time": 5386, "pitch": 69, "duration": 2, "velocity": 98}, {"time": 5398, "pitch": 60, "duration": 13, "velocity": 110}, {"time": 5398, "pitch": 65, "duration": 13, "velocity": 116}, {"time": 5398, "pitch": 69, "duration": 14, "velocity": 108}, {"time": 5410, "pitch": 41, "duration": 8, "velocity": 110}, {"time": 5416, "pitch": 60, "duration": 11, "velocity": 110}, {"time": 5416, "pitch": 65, "duration": 12, "velocity": 114}, {"time": 5416, "pitch": 69, "duration": 12, "velocity": 107}, {"time": 5422, "pitch": 41, "duration": 3, "velocity": 100}, {"time": 5428, "pitch": 43, "duration": 12, "velocity": 108}, {"time": 5440, "pitch": 62, "duration": 19, "velocity": 107}, {"time": 5440, "pitch": 67, "duration": 19, "velocity": 107}, {"time": 5440, "pitch": 71, "duration": 19, "velocity": 104}, {"time": 5446, "pitch": 43, "duration": 5, "velocity": 110}, {"time": 5458, "pitch": 43, "duration": 10, "velocity": 113}, {"time": 5464, "pitch": 62, "duration": 17, "velocity": 110}, {"time": 5464, "pitch": 67, "duration": 17, "velocity": 116}, {"time": 5464, "pitch": 71, "duration": 17, "velocity": 108}, {"time": 5476, "pitch": 43, "duration": 18, "velocity": 110}, {"time": 5482, "pitch": 62, "duration": 2, "velocity": 104}, {"time": 5482, "pitch": 67, "duration": 2, "velocity": 113}, {"time": 5482, "pitch": 71, "duration": 2, "velocity": 104}, {"time": 5494, "pitch": 62, "duration": 13, "velocity": 113}, {"time": 5494, "pitch": 67, "duration": 13, "velocity": 117}, {"time": 5494, "pitch": 71, "duration": 13, "velocity": 110}, {"time": 5500, "pitch": 43, "duration": 6, "velocity": 108}, {"time": 5506, "pitch": 50, "duration": 10, "velocity": 116}, {"time": 5512, "pitch": 62, "duration": 10, "velocity": 114}, {"time": 5512, "pitch": 67, "duration": 13, "velocity": 114}, {"time": 5512, "pitch": 71, "duration": 13, "velocity": 113}, {"time": 5518, "pitch": 43, "duration": 7, "velocity": 100}, {"time": 5524, "pitch": 48, "duration": 22, "velocity": 116}, {"time": 5533, "pitch": 64, "duration": 2, "velocity": 100}, {"time": 5533, "pitch": 67, "duration": 1, "velocity": 108}, {"time": 5533, "pitch": 72, "duration": 2, "velocity": 91}, {"time": 5542, "pitch": 64, "duration": 19, "velocity": 113}, {"time": 5542, "pitch": 67, "duration": 19, "velocity": 116}, {"time": 5542, "pitch": 72, "duration": 19, "velocity": 108}, {"time": 5554, "pitch": 48, "duration": 6, "velocity": 108}, {"time": 5560, "pitch": 55, "duration": 11, "velocity": 104}, {"time": 5566, "pitch": 64, "duration": 6, "velocity": 107}, {"time": 5566, "pitch": 67, "duration": 6, "velocity": 113}, {"time": 5566, "pitch": 72, "duration": 7, "velocity": 98}, {"time": 5572, "pitch": 45, "duration": 8, "velocity": 108}, {"time": 5572, "pitch": 69, "duration": 4, "velocity": 108}, {"time": 5572, "pitch": 72, "duration": 1, "velocity": 108}, {"time": 5572, "pitch": 76, "duration": 5, "velocity": 108}, {"time": 5581, "pitch": 57, "duration": 6, "velocity": 108}, {"time": 5581, "pitch": 69, "duration": 2, "velocity": 108}, {"time": 5581, "pitch": 72, "duration": 2, "velocity": 108}, {"time": 5581, "pitch": 76, "duration": 2, "velocity": 108}, {"time": 5590, "pitch": 45, "duration": 8, "velocity": 108}, {"time": 5590, "pitch": 69, "duration": 3, "velocity": 108}, {"time": 5590, "pitch": 72, "duration": 2, "velocity": 108}, {"time": 5590, "pitch": 76, "duration": 2, "velocity": 108}, {"time": 5599, "pitch": 69, "duration": 3, "velocity": 108}, {"time": 5599, "pitch": 72, "duration": 2, "velocity": 108}, {"time": 5599, "pitch": 76, "duration": 2, "velocity": 108}, {"time": 5602, "pitch": 57, "duration": 5, "velocity": 108}, {"time": 5608, "pitch": 45, "duration": 7, "velocity": 108}, {"time": 5608, "pitch": 69, "duration": 3, "velocity": 108}, {"time": 5608, "pitch": 72, "duration": 2, "velocity": 108}, {"time": 5608, "pitch": 76, "duration": 2, "velocity": 108}, {"time": 5614, "pitch": 57, "duration": 5, "velocity": 108}, {"time": 5620, "pitch": 45, "duration": 8, "velocity": 108}, {"time": 5620, "pitch": 69, "duration": 4, "velocity": 108}, {"time": 5620, "pitch": 72, "duration": 5, "velocity": 108}, {"time": 5620, "pitch": 76, "duration": 5, "velocity": 108}, {"time": 5629, "pitch": 57, "duration": 6, "velocity": 108}, {"time": 5629, "pitch": 69, "duration": 2, "velocity": 108}, {"time": 5629, "pitch": 72, "duration": 2, "velocity": 108}, {"time": 5629, "pitch": 76, "duration": 2, "velocity": 108}, {"time": 5638, "pitch": 45, "duration": 8, "velocity": 108}, {"time": 5638, "pitch": 69, "duration": 3, "velocity": 108}, {"time": 5638, "pitch": 72, "duration": 2, "velocity": 108}, {"time": 5638, "pitch": 76, "duration": 2, "velocity": 108}, {"time": 5647, "pitch": 69, "duration": 3, "velocity": 108}, {"time": 5647, "pitch": 72, "duration": 2, "velocity": 108}, {"time": 5647, "pitch": 76, "duration": 2, "velocity": 108}, {"time": 5650, "pitch": 57, "duration": 5, "velocity": 108}, {"time": 5656, "pitch": 45, "duration": 7, "velocity": 108}, {"time": 5656, "pitch": 69, "duration": 3, "velocity": 108}, {"time": 5656, "pitch": 72, "duration": 2, "velocity": 108}, {"time": 5656, "pitch": 76, "duration": 2, "velocity": 108}, {"time": 5662, "pitch": 57, "duration": 5, "velocity": 108}, {"time": 5668, "pitch": 45, "duration": 8, "velocity": 108}, {"time": 5668, "pitch": 69, "duration": 4, "velocity": 108}, {"time": 5668, "pitch": 72, "duration": 5, "velocity": 108}, {"time": 5668, "pitch": 76, "duration": 5, "velocity": 108}, {"time": 5677, "pitch": 57, "duration": 6, "velocity": 108}, {"time": 5677, "pitch": 69, "duration": 2, "velocity": 108}, {"time": 5677, "pitch": 72, "duration": 2, "velocity": 108}, {"time": 5677, "pitch": 76, "duration": 2, "velocity": 108}, {"time": 5686, "pitch": 45, "duration": 8, "velocity": 108}, {"time": 5686, "pitch": 69, "duration": 3, "velocity": 108}, {"time": 5686, "pitch": 72, "duration": 2, "velocity": 108}, {"time": 5686, "pitch": 76, "duration": 2, "velocity": 108}, {"time": 5695, "pitch": 69, "duration": 3, "velocity": 108}, {"time": 5695, "pitch": 72, "duration": 2, "velocity": 108}, {"time": 5695, "pitch": 76, "duration": 2, "velocity": 108}, {"time": 5698, "pitch": 57, "duration": 5, "velocity": 108}, {"time": 5704, "pitch": 45, "duration": 7, "velocity": 108}, {"time": 5704, "pitch": 69, "duration": 3, "velocity": 108}, {"time": 5704, "pitch": 72, "duration": 2, "velocity": 108}, {"time": 5704, "pitch": 76, "duration": 2, "velocity": 108}, {"time": 5710, "pitch": 57, "duration": 5, "velocity": 108}, {"time": 5716, "pitch": 45, "duration": 8, "velocity": 108}, {"time": 5716, "pitch": 69, "duration": 4, "velocity": 108}, {"time": 5716, "pitch": 72, "duration": 5, "velocity": 108}, {"time": 5716, "pitch": 76, "duration": 5, "velocity": 108}, {"time": 5725, "pitch": 57, "duration": 6, "velocity": 108}, {"time": 5725, "pitch": 69, "duration": 2, "velocity": 108}, {"time": 5725, "pitch": 72, "duration": 2, "velocity": 108}, {"time": 5725, "pitch": 76, "duration": 2, "velocity": 108}, {"time": 5734, "pitch": 45, "duration": 8, "velocity": 108}, {"time": 5734, "pitch": 69, "duration": 3, "velocity": 108}, {"time": 5734, "pitch": 72, "duration": 2, "velocity": 108}, {"time": 5734, "pitch": 76, "duration": 2, "velocity": 108}, {"time": 5743, "pitch": 69, "duration": 3, "velocity": 108}, {"time": 5743, "pitch": 72, "duration": 2, "velocity": 108}, {"time": 5743, "pitch": 76, "duration": 2, "velocity": 108}, {"time": 5746, "pitch": 57, "duration": 5, "velocity": 108}, {"time": 5752, "pitch": 45, "duration": 7, "velocity": 108}, {"time": 5752, "pitch": 69, "duration": 3, "velocity": 108}, {"time": 5752, "pitch": 72, "duration": 2, "velocity": 108}, {"time": 5752, "pitch": 76, "duration": 2, "velocity": 108}, {"time": 5758, "pitch": 57, "duration": 5, "velocity": 108}, {"time": 5764, "pitch": 45, "duration": 8, "velocity": 108}, {"time": 5764, "pitch": 69, "duration": 4, "velocity": 108}, {"time": 5764, "pitch": 72, "duration": 5, "velocity": 108}, {"time": 5764, "pitch": 76, "duration": 5, "velocity": 108}, {"time": 5770, "pitch": 57, "duration": 6, "velocity": 108}, {"time": 5773, "pitch": 69, "duration": 2, "velocity": 108}, {"time": 5773, "pitch": 72, "duration": 2, "velocity": 108}, {"time": 5773, "pitch": 76, "duration": 2, "velocity": 108}, {"time": 5776, "pitch": 45, "duration": 8, "velocity": 108}, {"time": 5782, "pitch": 57, "duration": 4, "velocity": 108}, {"time": 5782, "pitch": 69, "duration": 3, "velocity": 108}, {"time": 5782, "pitch": 72, "duration": 2, "velocity": 108}, {"time": 5782, "pitch": 76, "duration": 2, "velocity": 108}, {"time": 5788, "pitch": 45, "duration": 3, "velocity": 108}, {"time": 5791, "pitch": 69, "duration": 3, "velocity": 108}, {"time": 5791, "pitch": 72, "duration": 2, "velocity": 108}, {"time": 5791, "pitch": 76, "duration": 2, "velocity": 108}, {"time": 5794, "pitch": 57, "duration": 5, "velocity": 108}, {"time": 5800, "pitch": 45, "duration": 7, "velocity": 108}, {"time": 5800, "pitch": 69, "duration": 3, "velocity": 108}, {"time": 5800, "pitch": 72, "duration": 2, "velocity": 108}, {"time": 5800, "pitch": 76, "duration": 2, "velocity": 108}, {"time": 5806, "pitch": 57, "duration": 5, "velocity": 108}, {"time": 5812, "pitch": 45, "duration": 8, "velocity": 108}, {"time": 5812, "pitch": 69, "duration": 4, "velocity": 108}, {"time": 5812, "pitch": 72, "duration": 5, "velocity": 108}, {"time": 5812, "pitch": 76, "duration": 5, "velocity": 108}, {"time": 5818, "pitch": 57, "duration": 6, "velocity": 108}, {"time": 5821, "pitch": 69, "duration": 2, "velocity": 108}, {"time": 5821, "pitch": 72, "duration": 2, "velocity": 108}, {"time": 5821, "pitch": 76, "duration": 2, "velocity": 108}, {"time": 5824, "pitch": 45, "duration": 8, "velocity": 108}, {"time": 5830, "pitch": 57, "duration": 4, "velocity": 108}, {"time": 5830, "pitch": 69, "duration": 3, "velocity": 108}, {"time": 5830, "pitch": 72, "duration": 2, "velocity": 108}, {"time": 5830, "pitch": 76, "duration": 2, "velocity": 108}, {"time": 5836, "pitch": 45, "duration": 3, "velocity": 108}, {"time": 5839, "pitch": 69, "duration": 3, "velocity": 108}, {"time": 5839, "pitch": 72, "duration": 2, "velocity": 108}, {"time": 5839, "pitch": 76, "duration": 2, "velocity": 108}, {"time": 5842, "pitch": 57, "duration": 5, "velocity": 108}, {"time": 5848, "pitch": 45, "duration": 7, "velocity": 108}, {"time": 5848, "pitch": 69, "duration": 3, "velocity": 108}, {"time": 5848, "pitch": 72, "duration": 2, "velocity": 108}, {"time": 5848, "pitch": 76, "duration": 2, "velocity": 108}, {"time": 5854, "pitch": 57, "duration": 5, "velocity": 108}, {"time": 5860, "pitch": 45, "duration": 8, "velocity": 108}, {"time": 5860, "pitch": 69, "duration": 4, "velocity": 108}, {"time": 5860, "pitch": 72, "duration": 5, "velocity": 108}, {"time": 5860, "pitch": 76, "duration": 5, "velocity": 108}, {"time": 5866, "pitch": 57, "duration": 6, "velocity": 108}, {"time": 5869, "pitch": 69, "duration": 2, "velocity": 108}, {"time": 5869, "pitch": 72, "duration": 2, "velocity": 108}, {"time": 5869, "pitch": 76, "duration": 2, "velocity": 108}, {"time": 5872, "pitch": 45, "duration": 8, "velocity": 108}, {"time": 5878, "pitch": 57, "duration": 4, "velocity": 108}, {"time": 5878, "pitch": 69, "duration": 3, "velocity": 108}, {"time": 5878, "pitch": 72, "duration": 2, "velocity": 108}, {"time": 5878, "pitch": 76, "duration": 2, "velocity": 108}, {"time": 5884, "pitch": 45, "duration": 3, "velocity": 108}, {"time": 5887, "pitch": 69, "duration": 3, "velocity": 108}, {"time": 5887, "pitch": 72, "duration": 2, "velocity": 108}, {"time": 5887, "pitch": 76, "duration": 2, "velocity": 108}, {"time": 5890, "pitch": 57, "duration": 5, "velocity": 108}, {"time": 5896, "pitch": 45, "duration": 7, "velocity": 108}, {"time": 5896, "pitch": 69, "duration": 3, "velocity": 108}, {"time": 5896, "pitch": 72, "duration": 2, "velocity": 108}, {"time": 5896, "pitch": 76, "duration": 2, "velocity": 108}, {"time": 5902, "pitch": 57, "duration": 5, "velocity": 108}, {"time": 5908, "pitch": 45, "duration": 8, "velocity": 108}, {"time": 5908, "pitch": 69, "duration": 4, "velocity": 108}, {"time": 5908, "pitch": 72, "duration": 5, "velocity": 108}, {"time": 5908, "pitch": 76, "duration": 5, "velocity": 108}, {"time": 5914, "pitch": 57, "duration": 6, "velocity": 108}, {"time": 5917, "pitch": 69, "duration": 2, "velocity": 108}, {"time": 5917, "pitch": 72, "duration": 2, "velocity": 108}, {"time": 5917, "pitch": 76, "duration": 2, "velocity": 108}, {"time": 5920, "pitch": 45, "duration": 8, "velocity": 108}, {"time": 5926, "pitch": 57, "duration": 4, "velocity": 108}, {"time": 5926, "pitch": 69, "duration": 3, "velocity": 108}, {"time": 5926, "pitch": 72, "duration": 2, "velocity": 108}, {"time": 5926, "pitch": 76, "duration": 2, "velocity": 108}, {"time": 5932, "pitch": 45, "duration": 3, "velocity": 108}, {"time": 5935, "pitch": 69, "duration": 3, "velocity": 108}, {"time": 5935, "pitch": 72, "duration": 2, "velocity": 108}, {"time": 5935, "pitch": 76, "duration": 2, "velocity": 108}, {"time": 5938, "pitch": 57, "duration": 5, "velocity": 107}, {"time": 5944, "pitch": 45, "duration": 7, "velocity": 107}, {"time": 5944, "pitch": 69, "duration": 3, "velocity": 107}, {"time": 5944, "pitch": 72, "duration": 2, "velocity": 107}, {"time": 5944, "pitch": 76, "duration": 2, "velocity": 107}, {"time": 5950, "pitch": 57, "duration": 5, "velocity": 107}, {"time": 5956, "pitch": 45, "duration": 8, "velocity": 107}, {"time": 5956, "pitch": 69, "duration": 4, "velocity": 107}, {"time": 5956, "pitch": 72, "duration": 5, "velocity": 107}, {"time": 5956, "pitch": 76, "duration": 5, "velocity": 107}]}]}