{"metadata": {"schema_version": "0.2", "title": "None", "source_filename": "279.mid", "source_format": "midi"}, "resolution": 12, "tempos": [{"time": 0, "qpm": 70.00007000007}], "time_signatures": [{"time": 0, "numerator": 4, "denominator": 4}], "tracks": [{"program": 0, "is_drum": false, "name": "MELODY", "notes": [{"time": 673, "pitch": 70, "duration": 6, "velocity": 114}, {"time": 679, "pitch": 73, "duration": 6, "velocity": 110}, {"time": 685, "pitch": 73, "duration": 6, "velocity": 110}, {"time": 691, "pitch": 75, "duration": 6, "velocity": 110}, {"time": 697, "pitch": 75, "duration": 6, "velocity": 110}, {"time": 703, "pitch": 77, "duration": 6, "velocity": 104}, {"time": 709, "pitch": 77, "duration": 6, "velocity": 114}, {"time": 715, "pitch": 82, "duration": 6, "velocity": 110}, {"time": 721, "pitch": 80, "duration": 18, "velocity": 113}, {"time": 739, "pitch": 77, "duration": 6, "velocity": 108}, {"time": 745, "pitch": 75, "duration": 24, "velocity": 104}, {"time": 769, "pitch": 70, "duration": 6, "velocity": 110}, {"time": 775, "pitch": 73, "duration": 6, "velocity": 98}, {"time": 781, "pitch": 73, "duration": 6, "velocity": 96}, {"time": 787, "pitch": 75, "duration": 6, "velocity": 108}, {"time": 793, "pitch": 75, "duration": 6, "velocity": 107}, {"time": 799, "pitch": 77, "duration": 6, "velocity": 102}, {"time": 805, "pitch": 77, "duration": 12, "velocity": 107}, {"time": 817, "pitch": 70, "duration": 12, "velocity": 113}, {"time": 829, "pitch": 68, "duration": 36, "velocity": 104}, {"time": 865, "pitch": 70, "duration": 6, "velocity": 113}, {"time": 871, "pitch": 73, "duration": 6, "velocity": 110}, {"time": 877, "pitch": 73, "duration": 6, "velocity": 110}, {"time": 883, "pitch": 75, "duration": 6, "velocity": 107}, {"time": 889, "pitch": 75, "duration": 6, "velocity": 110}, {"time": 895, "pitch": 77, "duration": 6, "velocity": 104}, {"time": 901, "pitch": 77, "duration": 6, "velocity": 107}, {"time": 907, "pitch": 82, "duration": 6, "velocity": 108}, {"time": 913, "pitch": 80, "duration": 18, "velocity": 113}, {"time": 931, "pitch": 77, "duration": 6, "velocity": 114}, {"time": 937, "pitch": 75, "duration": 24, "velocity": 113}, {"time": 961, "pitch": 75, "duration": 6, "velocity": 113}, {"time": 967, "pitch": 77, "duration": 6, "velocity": 88}, {"time": 973, "pitch": 70, "duration": 12, "velocity": 93}, {"time": 985, "pitch": 75, "duration": 6, "velocity": 110}, {"time": 991, "pitch": 77, "duration": 6, "velocity": 91}, {"time": 997, "pitch": 70, "duration": 6, "velocity": 94}, {"time": 1003, "pitch": 68, "duration": 6, "velocity": 102}, {"time": 1009, "pitch": 70, "duration": 36, "velocity": 92}, {"time": 1045, "pitch": 70, "duration": 7, "velocity": 108}, {"time": 1051, "pitch": 73, "duration": 6, "velocity": 98}, {"time": 1057, "pitch": 75, "duration": 18, "velocity": 107}, {"time": 1075, "pitch": 73, "duration": 6, "velocity": 108}, {"time": 1081, "pitch": 70, "duration": 12, "velocity": 107}, {"time": 1093, "pitch": 70, "duration": 7, "velocity": 113}, {"time": 1099, "pitch": 73, "duration": 6, "velocity": 98}, {"time": 1105, "pitch": 75, "duration": 18, "velocity": 108}, {"time": 1123, "pitch": 73, "duration": 6, "velocity": 94}, {"time": 1129, "pitch": 77, "duration": 12, "velocity": 102}, {"time": 1141, "pitch": 77, "duration": 6, "velocity": 110}, {"time": 1147, "pitch": 80, "duration": 6, "velocity": 107}, {"time": 1153, "pitch": 82, "duration": 12, "velocity": 110}, {"time": 1165, "pitch": 82, "duration": 6, "velocity": 110}, {"time": 1171, "pitch": 80, "duration": 6, "velocity": 102}, {"time": 1177, "pitch": 77, "duration": 6, "velocity": 107}, {"time": 1183, "pitch": 75, "duration": 6, "velocity": 100}, {"time": 1189, "pitch": 73, "duration": 12, "velocity": 100}, {"time": 1201, "pitch": 75, "duration": 12, "velocity": 108}, {"time": 1213, "pitch": 77, "duration": 24, "velocity": 98}, {"time": 1237, "pitch": 70, "duration": 6, "velocity": 104}, {"time": 1243, "pitch": 73, "duration": 6, "velocity": 104}, {"time": 1249, "pitch": 75, "duration": 18, "velocity": 107}, {"time": 1267, "pitch": 73, "duration": 6, "velocity": 104}, {"time": 1273, "pitch": 70, "duration": 12, "velocity": 92}, {"time": 1285, "pitch": 70, "duration": 6, "velocity": 110}, {"time": 1291, "pitch": 73, "duration": 6, "velocity": 102}, {"time": 1297, "pitch": 75, "duration": 12, "velocity": 107}, {"time": 1309, "pitch": 73, "duration": 12, "velocity": 107}, {"time": 1321, "pitch": 77, "duration": 24, "velocity": 108}, {"time": 1345, "pitch": 75, "duration": 6, "velocity": 113}, {"time": 1351, "pitch": 77, "duration": 6, "velocity": 90}, {"time": 1357, "pitch": 70, "duration": 12, "velocity": 104}, {"time": 1369, "pitch": 75, "duration": 6, "velocity": 114}, {"time": 1375, "pitch": 77, "duration": 6, "velocity": 88}, {"time": 1381, "pitch": 70, "duration": 6, "velocity": 98}, {"time": 1387, "pitch": 68, "duration": 6, "velocity": 89}, {"time": 1393, "pitch": 70, "duration": 36, "velocity": 94}, {"time": 1429, "pitch": 77, "duration": 7, "velocity": 117}, {"time": 1435, "pitch": 80, "duration": 6, "velocity": 119}, {"time": 1441, "pitch": 85, "duration": 18, "velocity": 114}, {"time": 1459, "pitch": 84, "duration": 6, "velocity": 108}, {"time": 1465, "pitch": 77, "duration": 12, "velocity": 108}, {"time": 1477, "pitch": 77, "duration": 6, "velocity": 110}, {"time": 1483, "pitch": 75, "duration": 6, "velocity": 110}, {"time": 1489, "pitch": 73, "duration": 12, "velocity": 110}, {"time": 1501, "pitch": 73, "duration": 7, "velocity": 110}, {"time": 1507, "pitch": 75, "duration": 7, "velocity": 108}, {"time": 1513, "pitch": 77, "duration": 12, "velocity": 110}, {"time": 1525, "pitch": 77, "duration": 6, "velocity": 108}, {"time": 1531, "pitch": 75, "duration": 7, "velocity": 108}, {"time": 1537, "pitch": 73, "duration": 12, "velocity": 110}, {"time": 1549, "pitch": 82, "duration": 6, "velocity": 110}, {"time": 1555, "pitch": 85, "duration": 7, "velocity": 114}, {"time": 1561, "pitch": 84, "duration": 6, "velocity": 110}, {"time": 1567, "pitch": 82, "duration": 7, "velocity": 113}, {"time": 1573, "pitch": 80, "duration": 6, "velocity": 114}, {"time": 1579, "pitch": 75, "duration": 6, "velocity": 114}, {"time": 1585, "pitch": 77, "duration": 36, "velocity": 107}, {"time": 1621, "pitch": 77, "duration": 6, "velocity": 104}, {"time": 1627, "pitch": 80, "duration": 6, "velocity": 114}, {"time": 1633, "pitch": 85, "duration": 18, "velocity": 113}, {"time": 1651, "pitch": 84, "duration": 6, "velocity": 117}, {"time": 1657, "pitch": 77, "duration": 12, "velocity": 114}, {"time": 1669, "pitch": 77, "duration": 6, "velocity": 107}, {"time": 1675, "pitch": 75, "duration": 6, "velocity": 104}, {"time": 1681, "pitch": 73, "duration": 12, "velocity": 107}, {"time": 1693, "pitch": 73, "duration": 6, "velocity": 108}, {"time": 1699, "pitch": 75, "duration": 6, "velocity": 104}, {"time": 1705, "pitch": 77, "duration": 24, "velocity": 108}, {"time": 1729, "pitch": 75, "duration": 6, "velocity": 113}, {"time": 1735, "pitch": 77, "duration": 6, "velocity": 102}, {"time": 1741, "pitch": 70, "duration": 12, "velocity": 104}, {"time": 1753, "pitch": 75, "duration": 6, "velocity": 110}, {"time": 1759, "pitch": 77, "duration": 7, "velocity": 88}, {"time": 1765, "pitch": 70, "duration": 7, "velocity": 100}, {"time": 1771, "pitch": 68, "duration": 6, "velocity": 96}, {"time": 1777, "pitch": 70, "duration": 47, "velocity": 100}, {"time": 2017, "pitch": 70, "duration": 6, "velocity": 114}, {"time": 2023, "pitch": 73, "duration": 4, "velocity": 110}, {"time": 2029, "pitch": 73, "duration": 6, "velocity": 110}, {"time": 2035, "pitch": 75, "duration": 4, "velocity": 110}, {"time": 2041, "pitch": 75, "duration": 5, "velocity": 110}, {"time": 2047, "pitch": 77, "duration": 4, "velocity": 104}, {"time": 2053, "pitch": 77, "duration": 5, "velocity": 114}, {"time": 2059, "pitch": 82, "duration": 5, "velocity": 110}, {"time": 2065, "pitch": 80, "duration": 15, "velocity": 113}, {"time": 2083, "pitch": 77, "duration": 6, "velocity": 108}, {"time": 2089, "pitch": 75, "duration": 8, "velocity": 104}, {"time": 2113, "pitch": 70, "duration": 5, "velocity": 110}, {"time": 2119, "pitch": 73, "duration": 4, "velocity": 98}, {"time": 2125, "pitch": 73, "duration": 5, "velocity": 96}, {"time": 2131, "pitch": 75, "duration": 4, "velocity": 108}, {"time": 2137, "pitch": 75, "duration": 5, "velocity": 107}, {"time": 2143, "pitch": 77, "duration": 4, "velocity": 102}, {"time": 2149, "pitch": 77, "duration": 6, "velocity": 107}, {"time": 2161, "pitch": 70, "duration": 5, "velocity": 113}, {"time": 2173, "pitch": 68, "duration": 4, "velocity": 104}, {"time": 2209, "pitch": 70, "duration": 5, "velocity": 113}, {"time": 2215, "pitch": 73, "duration": 3, "velocity": 110}, {"time": 2221, "pitch": 73, "duration": 5, "velocity": 110}, {"time": 2227, "pitch": 75, "duration": 5, "velocity": 107}, {"time": 2233, "pitch": 75, "duration": 5, "velocity": 110}, {"time": 2239, "pitch": 77, "duration": 4, "velocity": 104}, {"time": 2245, "pitch": 77, "duration": 4, "velocity": 107}, {"time": 2251, "pitch": 82, "duration": 4, "velocity": 108}, {"time": 2257, "pitch": 80, "duration": 7, "velocity": 113}, {"time": 2275, "pitch": 77, "duration": 6, "velocity": 114}, {"time": 2281, "pitch": 75, "duration": 6, "velocity": 113}, {"time": 2305, "pitch": 75, "duration": 6, "velocity": 113}, {"time": 2311, "pitch": 77, "duration": 6, "velocity": 88}, {"time": 2317, "pitch": 70, "duration": 7, "velocity": 93}, {"time": 2329, "pitch": 75, "duration": 5, "velocity": 110}, {"time": 2335, "pitch": 77, "duration": 5, "velocity": 91}, {"time": 2341, "pitch": 70, "duration": 3, "velocity": 94}, {"time": 2347, "pitch": 68, "duration": 3, "velocity": 102}, {"time": 2353, "pitch": 70, "duration": 5, "velocity": 92}, {"time": 2389, "pitch": 70, "duration": 7, "velocity": 108}, {"time": 2395, "pitch": 73, "duration": 6, "velocity": 98}, {"time": 2401, "pitch": 75, "duration": 14, "velocity": 107}, {"time": 2419, "pitch": 73, "duration": 6, "velocity": 108}, {"time": 2425, "pitch": 70, "duration": 5, "velocity": 107}, {"time": 2437, "pitch": 70, "duration": 7, "velocity": 113}, {"time": 2443, "pitch": 73, "duration": 5, "velocity": 98}, {"time": 2449, "pitch": 75, "duration": 11, "velocity": 108}, {"time": 2467, "pitch": 73, "duration": 5, "velocity": 94}, {"time": 2473, "pitch": 77, "duration": 7, "velocity": 102}, {"time": 2485, "pitch": 77, "duration": 5, "velocity": 110}, {"time": 2491, "pitch": 80, "duration": 5, "velocity": 107}, {"time": 2497, "pitch": 82, "duration": 8, "velocity": 110}, {"time": 2509, "pitch": 82, "duration": 6, "velocity": 110}, {"time": 2515, "pitch": 80, "duration": 6, "velocity": 102}, {"time": 2521, "pitch": 77, "duration": 6, "velocity": 107}, {"time": 2527, "pitch": 75, "duration": 6, "velocity": 100}, {"time": 2533, "pitch": 73, "duration": 9, "velocity": 100}, {"time": 2545, "pitch": 75, "duration": 11, "velocity": 108}, {"time": 2557, "pitch": 77, "duration": 6, "velocity": 98}, {"time": 2581, "pitch": 70, "duration": 6, "velocity": 104}, {"time": 2587, "pitch": 73, "duration": 6, "velocity": 104}, {"time": 2593, "pitch": 75, "duration": 17, "velocity": 107}, {"time": 2611, "pitch": 73, "duration": 6, "velocity": 104}, {"time": 2617, "pitch": 70, "duration": 5, "velocity": 92}, {"time": 2629, "pitch": 70, "duration": 6, "velocity": 110}, {"time": 2635, "pitch": 73, "duration": 5, "velocity": 102}, {"time": 2641, "pitch": 75, "duration": 12, "velocity": 107}, {"time": 2653, "pitch": 73, "duration": 9, "velocity": 107}, {"time": 2665, "pitch": 77, "duration": 7, "velocity": 108}, {"time": 2689, "pitch": 75, "duration": 6, "velocity": 113}, {"time": 2695, "pitch": 77, "duration": 6, "velocity": 90}, {"time": 2701, "pitch": 70, "duration": 6, "velocity": 104}, {"time": 2713, "pitch": 75, "duration": 5, "velocity": 114}, {"time": 2719, "pitch": 77, "duration": 6, "velocity": 88}, {"time": 2725, "pitch": 70, "duration": 5, "velocity": 98}, {"time": 2731, "pitch": 68, "duration": 6, "velocity": 89}, {"time": 2737, "pitch": 70, "duration": 10, "velocity": 94}, {"time": 2773, "pitch": 77, "duration": 7, "velocity": 117}, {"time": 2779, "pitch": 80, "duration": 6, "velocity": 119}, {"time": 2785, "pitch": 85, "duration": 12, "velocity": 114}, {"time": 2803, "pitch": 84, "duration": 6, "velocity": 108}, {"time": 2809, "pitch": 77, "duration": 6, "velocity": 108}, {"time": 2821, "pitch": 77, "duration": 6, "velocity": 110}, {"time": 2827, "pitch": 75, "duration": 6, "velocity": 110}, {"time": 2833, "pitch": 73, "duration": 9, "velocity": 110}, {"time": 2845, "pitch": 73, "duration": 7, "velocity": 110}, {"time": 2851, "pitch": 75, "duration": 7, "velocity": 108}, {"time": 2857, "pitch": 77, "duration": 5, "velocity": 110}, {"time": 2869, "pitch": 77, "duration": 5, "velocity": 108}, {"time": 2875, "pitch": 75, "duration": 7, "velocity": 108}, {"time": 2881, "pitch": 73, "duration": 6, "velocity": 110}, {"time": 2893, "pitch": 82, "duration": 5, "velocity": 110}, {"time": 2899, "pitch": 85, "duration": 7, "velocity": 114}, {"time": 2905, "pitch": 84, "duration": 6, "velocity": 110}, {"time": 2911, "pitch": 82, "duration": 7, "velocity": 113}, {"time": 2917, "pitch": 80, "duration": 6, "velocity": 114}, {"time": 2923, "pitch": 75, "duration": 6, "velocity": 114}, {"time": 2929, "pitch": 77, "duration": 8, "velocity": 107}, {"time": 2965, "pitch": 77, "duration": 5, "velocity": 104}, {"time": 2971, "pitch": 80, "duration": 5, "velocity": 114}, {"time": 2977, "pitch": 85, "duration": 15, "velocity": 113}, {"time": 2995, "pitch": 84, "duration": 5, "velocity": 117}, {"time": 3001, "pitch": 77, "duration": 4, "velocity": 114}, {"time": 3013, "pitch": 77, "duration": 5, "velocity": 107}, {"time": 3019, "pitch": 75, "duration": 6, "velocity": 104}, {"time": 3025, "pitch": 73, "duration": 8, "velocity": 107}, {"time": 3037, "pitch": 73, "duration": 6, "velocity": 108}, {"time": 3043, "pitch": 75, "duration": 6, "velocity": 104}, {"time": 3049, "pitch": 77, "duration": 6, "velocity": 108}, {"time": 3073, "pitch": 75, "duration": 6, "velocity": 113}, {"time": 3079, "pitch": 77, "duration": 6, "velocity": 102}, {"time": 3085, "pitch": 70, "duration": 8, "velocity": 104}, {"time": 3097, "pitch": 75, "duration": 6, "velocity": 110}, {"time": 3103, "pitch": 77, "duration": 7, "velocity": 88}, {"time": 3109, "pitch": 70, "duration": 7, "velocity": 100}, {"time": 3115, "pitch": 68, "duration": 6, "velocity": 96}, {"time": 3121, "pitch": 70, "duration": 7, "velocity": 100}, {"time": 3517, "pitch": 77, "duration": 6, "velocity": 114}, {"time": 3523, "pitch": 80, "duration": 6, "velocity": 110}, {"time": 3529, "pitch": 82, "duration": 12, "velocity": 113}, {"time": 3541, "pitch": 84, "duration": 6, "velocity": 108}, {"time": 3547, "pitch": 80, "duration": 7, "velocity": 107}, {"time": 3553, "pitch": 82, "duration": 18, "velocity": 113}, {"time": 3571, "pitch": 80, "duration": 7, "velocity": 107}, {"time": 3577, "pitch": 77, "duration": 12, "velocity": 107}, {"time": 3577, "pitch": 82, "duration": 12, "velocity": 119}, {"time": 3589, "pitch": 80, "duration": 12, "velocity": 119}, {"time": 3601, "pitch": 77, "duration": 12, "velocity": 117}, {"time": 3613, "pitch": 77, "duration": 6, "velocity": 116}, {"time": 3619, "pitch": 80, "duration": 6, "velocity": 113}, {"time": 3625, "pitch": 82, "duration": 12, "velocity": 116}, {"time": 3637, "pitch": 84, "duration": 6, "velocity": 98}, {"time": 3643, "pitch": 80, "duration": 6, "velocity": 113}, {"time": 3649, "pitch": 82, "duration": 12, "velocity": 113}, {"time": 3661, "pitch": 84, "duration": 12, "velocity": 116}, {"time": 3673, "pitch": 85, "duration": 36, "velocity": 116}, {"time": 3709, "pitch": 82, "duration": 6, "velocity": 116}, {"time": 3715, "pitch": 89, "duration": 6, "velocity": 116}, {"time": 3721, "pitch": 87, "duration": 14, "velocity": 116}, {"time": 3733, "pitch": 82, "duration": 6, "velocity": 116}, {"time": 3739, "pitch": 89, "duration": 6, "velocity": 116}, {"time": 3745, "pitch": 87, "duration": 24, "velocity": 116}, {"time": 3769, "pitch": 84, "duration": 12, "velocity": 108}, {"time": 3781, "pitch": 80, "duration": 12, "velocity": 116}, {"time": 3793, "pitch": 77, "duration": 24, "velocity": 117}, {"time": 3817, "pitch": 87, "duration": 6, "velocity": 119}, {"time": 3823, "pitch": 89, "duration": 6, "velocity": 107}, {"time": 3829, "pitch": 82, "duration": 12, "velocity": 114}, {"time": 3841, "pitch": 87, "duration": 6, "velocity": 120}, {"time": 3847, "pitch": 89, "duration": 6, "velocity": 108}, {"time": 3853, "pitch": 82, "duration": 12, "velocity": 114}, {"time": 3865, "pitch": 80, "duration": 14, "velocity": 108}, {"time": 3877, "pitch": 82, "duration": 24, "velocity": 88}]}, {"program": 0, "is_drum": false, "name": "PIANO", "notes": [{"time": 73, "pitch": 72, "duration": 2, "velocity": 84}, {"time": 75, "pitch": 73, "duration": 1, "velocity": 89}, {"time": 76, "pitch": 75, "duration": 2, "velocity": 94}, {"time": 78, "pitch": 77, "duration": 1, "velocity": 98}, {"time": 79, "pitch": 79, "duration": 2, "velocity": 104}, {"time": 81, "pitch": 80, "duration": 16, "velocity": 107}, {"time": 133, "pitch": 70, "duration": 2, "velocity": 64}, {"time": 135, "pitch": 71, "duration": 1, "velocity": 67}, {"time": 136, "pitch": 72, "duration": 2, "velocity": 72}, {"time": 138, "pitch": 73, "duration": 1, "velocity": 80}, {"time": 139, "pitch": 74, "duration": 2, "velocity": 87}, {"time": 141, "pitch": 75, "duration": 9, "velocity": 108}, {"time": 192, "pitch": 68, "duration": 1, "velocity": 91}, {"time": 193, "pitch": 69, "duration": 2, "velocity": 98}, {"time": 195, "pitch": 70, "duration": 1, "velocity": 90}, {"time": 196, "pitch": 71, "duration": 2, "velocity": 90}, {"time": 198, "pitch": 72, "duration": 3, "velocity": 90}, {"time": 201, "pitch": 73, "duration": 3, "velocity": 102}, {"time": 204, "pitch": 77, "duration": 3, "velocity": 102}, {"time": 207, "pitch": 73, "duration": 4, "velocity": 102}, {"time": 211, "pitch": 72, "duration": 5, "velocity": 85}, {"time": 216, "pitch": 70, "duration": 6, "velocity": 79}, {"time": 222, "pitch": 72, "duration": 6, "velocity": 68}, {"time": 228, "pitch": 73, "duration": 12, "velocity": 72}, {"time": 289, "pitch": 54, "duration": 18, "velocity": 67}, {"time": 289, "pitch": 61, "duration": 15, "velocity": 70}, {"time": 289, "pitch": 66, "duration": 19, "velocity": 74}, {"time": 289, "pitch": 70, "duration": 17, "velocity": 71}, {"time": 313, "pitch": 56, "duration": 23, "velocity": 72}, {"time": 313, "pitch": 63, "duration": 19, "velocity": 77}, {"time": 313, "pitch": 68, "duration": 24, "velocity": 72}, {"time": 313, "pitch": 72, "duration": 21, "velocity": 81}, {"time": 337, "pitch": 58, "duration": 25, "velocity": 71}, {"time": 337, "pitch": 65, "duration": 21, "velocity": 72}, {"time": 337, "pitch": 70, "duration": 23, "velocity": 71}, {"time": 337, "pitch": 73, "duration": 23, "velocity": 80}, {"time": 361, "pitch": 56, "duration": 20, "velocity": 64}, {"time": 361, "pitch": 63, "duration": 19, "velocity": 74}, {"time": 361, "pitch": 68, "duration": 19, "velocity": 70}, {"time": 361, "pitch": 72, "duration": 19, "velocity": 70}, {"time": 385, "pitch": 54, "duration": 23, "velocity": 73}, {"time": 385, "pitch": 61, "duration": 19, "velocity": 73}, {"time": 385, "pitch": 66, "duration": 24, "velocity": 78}, {"time": 385, "pitch": 70, "duration": 22, "velocity": 77}, {"time": 409, "pitch": 56, "duration": 21, "velocity": 74}, {"time": 409, "pitch": 63, "duration": 20, "velocity": 67}, {"time": 409, "pitch": 68, "duration": 20, "velocity": 71}, {"time": 409, "pitch": 72, "duration": 20, "velocity": 77}, {"time": 433, "pitch": 53, "duration": 37, "velocity": 67}, {"time": 439, "pitch": 60, "duration": 32, "velocity": 42}, {"time": 445, "pitch": 65, "duration": 28, "velocity": 68}, {"time": 451, "pitch": 70, "duration": 6, "velocity": 81}, {"time": 457, "pitch": 72, "duration": 16, "velocity": 75}, {"time": 481, "pitch": 54, "duration": 26, "velocity": 76}, {"time": 481, "pitch": 61, "duration": 22, "velocity": 77}, {"time": 481, "pitch": 70, "duration": 26, "velocity": 78}, {"time": 505, "pitch": 56, "duration": 23, "velocity": 65}, {"time": 505, "pitch": 63, "duration": 18, "velocity": 74}, {"time": 505, "pitch": 68, "duration": 24, "velocity": 71}, {"time": 505, "pitch": 72, "duration": 21, "velocity": 80}, {"time": 529, "pitch": 58, "duration": 22, "velocity": 70}, {"time": 529, "pitch": 65, "duration": 21, "velocity": 73}, {"time": 529, "pitch": 70, "duration": 24, "velocity": 68}, {"time": 529, "pitch": 73, "duration": 22, "velocity": 78}, {"time": 553, "pitch": 56, "duration": 15, "velocity": 69}, {"time": 553, "pitch": 63, "duration": 17, "velocity": 76}, {"time": 553, "pitch": 68, "duration": 20, "velocity": 74}, {"time": 553, "pitch": 72, "duration": 21, "velocity": 80}, {"time": 577, "pitch": 42, "duration": 19, "velocity": 78}, {"time": 577, "pitch": 61, "duration": 25, "velocity": 76}, {"time": 577, "pitch": 70, "duration": 5, "velocity": 84}, {"time": 583, "pitch": 54, "duration": 19, "velocity": 65}, {"time": 589, "pitch": 58, "duration": 9, "velocity": 77}, {"time": 589, "pitch": 66, "duration": 8, "velocity": 77}, {"time": 601, "pitch": 44, "duration": 19, "velocity": 79}, {"time": 601, "pitch": 60, "duration": 26, "velocity": 80}, {"time": 601, "pitch": 63, "duration": 26, "velocity": 65}, {"time": 601, "pitch": 68, "duration": 11, "velocity": 78}, {"time": 607, "pitch": 56, "duration": 14, "velocity": 67}, {"time": 613, "pitch": 68, "duration": 14, "velocity": 76}, {"time": 625, "pitch": 46, "duration": 38, "velocity": 83}, {"time": 631, "pitch": 53, "duration": 33, "velocity": 78}, {"time": 637, "pitch": 56, "duration": 27, "velocity": 76}, {"time": 643, "pitch": 60, "duration": 7, "velocity": 76}, {"time": 649, "pitch": 61, "duration": 16, "velocity": 60}, {"time": 673, "pitch": 58, "duration": 42, "velocity": 88}, {"time": 679, "pitch": 65, "duration": 39, "velocity": 77}, {"time": 685, "pitch": 70, "duration": 37, "velocity": 69}, {"time": 691, "pitch": 73, "duration": 32, "velocity": 77}, {"time": 697, "pitch": 80, "duration": 7, "velocity": 81}, {"time": 709, "pitch": 82, "duration": 13, "velocity": 76}, {"time": 721, "pitch": 56, "duration": 38, "velocity": 78}, {"time": 727, "pitch": 65, "duration": 31, "velocity": 74}, {"time": 733, "pitch": 68, "duration": 26, "velocity": 72}, {"time": 739, "pitch": 77, "duration": 23, "velocity": 80}, {"time": 769, "pitch": 54, "duration": 39, "velocity": 73}, {"time": 769, "pitch": 73, "duration": 17, "velocity": 86}, {"time": 775, "pitch": 61, "duration": 32, "velocity": 65}, {"time": 781, "pitch": 66, "duration": 24, "velocity": 76}, {"time": 787, "pitch": 70, "duration": 30, "velocity": 84}, {"time": 793, "pitch": 78, "duration": 24, "velocity": 78}, {"time": 817, "pitch": 53, "duration": 38, "velocity": 76}, {"time": 823, "pitch": 60, "duration": 32, "velocity": 74}, {"time": 829, "pitch": 63, "duration": 25, "velocity": 80}, {"time": 835, "pitch": 68, "duration": 20, "velocity": 74}, {"time": 841, "pitch": 75, "duration": 14, "velocity": 84}, {"time": 853, "pitch": 72, "duration": 12, "velocity": 83}, {"time": 865, "pitch": 58, "duration": 40, "velocity": 87}, {"time": 871, "pitch": 65, "duration": 34, "velocity": 80}, {"time": 877, "pitch": 70, "duration": 26, "velocity": 81}, {"time": 883, "pitch": 73, "duration": 23, "velocity": 78}, {"time": 889, "pitch": 82, "duration": 23, "velocity": 78}, {"time": 913, "pitch": 56, "duration": 40, "velocity": 79}, {"time": 913, "pitch": 80, "duration": 19, "velocity": 81}, {"time": 919, "pitch": 65, "duration": 31, "velocity": 44}, {"time": 925, "pitch": 68, "duration": 25, "velocity": 74}, {"time": 931, "pitch": 77, "duration": 6, "velocity": 68}, {"time": 937, "pitch": 75, "duration": 24, "velocity": 74}, {"time": 961, "pitch": 54, "duration": 19, "velocity": 76}, {"time": 961, "pitch": 73, "duration": 21, "velocity": 87}, {"time": 967, "pitch": 61, "duration": 13, "velocity": 66}, {"time": 973, "pitch": 66, "duration": 6, "velocity": 76}, {"time": 985, "pitch": 56, "duration": 15, "velocity": 83}, {"time": 991, "pitch": 63, "duration": 8, "velocity": 68}, {"time": 997, "pitch": 68, "duration": 13, "velocity": 72}, {"time": 1009, "pitch": 46, "duration": 41, "velocity": 67}, {"time": 1009, "pitch": 70, "duration": 20, "velocity": 83}, {"time": 1015, "pitch": 53, "duration": 33, "velocity": 65}, {"time": 1021, "pitch": 61, "duration": 8, "velocity": 78}, {"time": 1027, "pitch": 60, "duration": 7, "velocity": 77}, {"time": 1033, "pitch": 63, "duration": 21, "velocity": 78}, {"time": 1057, "pitch": 42, "duration": 19, "velocity": 84}, {"time": 1063, "pitch": 54, "duration": 18, "velocity": 74}, {"time": 1069, "pitch": 58, "duration": 7, "velocity": 69}, {"time": 1075, "pitch": 61, "duration": 11, "velocity": 70}, {"time": 1081, "pitch": 44, "duration": 19, "velocity": 85}, {"time": 1087, "pitch": 56, "duration": 12, "velocity": 67}, {"time": 1093, "pitch": 60, "duration": 7, "velocity": 74}, {"time": 1099, "pitch": 63, "duration": 8, "velocity": 86}, {"time": 1105, "pitch": 46, "duration": 40, "velocity": 79}, {"time": 1111, "pitch": 53, "duration": 32, "velocity": 67}, {"time": 1117, "pitch": 58, "duration": 26, "velocity": 77}, {"time": 1123, "pitch": 60, "duration": 6, "velocity": 70}, {"time": 1129, "pitch": 61, "duration": 2, "velocity": 81}, {"time": 1135, "pitch": 65, "duration": 12, "velocity": 82}, {"time": 1141, "pitch": 70, "duration": 5, "velocity": 89}, {"time": 1147, "pitch": 72, "duration": 6, "velocity": 91}, {"time": 1150, "pitch": 65, "duration": 11, "velocity": 78}, {"time": 1153, "pitch": 42, "duration": 19, "velocity": 79}, {"time": 1153, "pitch": 73, "duration": 5, "velocity": 88}, {"time": 1159, "pitch": 49, "duration": 13, "velocity": 71}, {"time": 1165, "pitch": 54, "duration": 11, "velocity": 84}, {"time": 1171, "pitch": 61, "duration": 3, "velocity": 82}, {"time": 1171, "pitch": 70, "duration": 4, "velocity": 84}, {"time": 1177, "pitch": 44, "duration": 18, "velocity": 80}, {"time": 1183, "pitch": 51, "duration": 13, "velocity": 74}, {"time": 1189, "pitch": 56, "duration": 12, "velocity": 72}, {"time": 1195, "pitch": 63, "duration": 6, "velocity": 78}, {"time": 1201, "pitch": 49, "duration": 39, "velocity": 65}, {"time": 1201, "pitch": 61, "duration": 4, "velocity": 75}, {"time": 1201, "pitch": 68, "duration": 14, "velocity": 76}, {"time": 1207, "pitch": 56, "duration": 32, "velocity": 70}, {"time": 1213, "pitch": 61, "duration": 15, "velocity": 75}, {"time": 1219, "pitch": 66, "duration": 6, "velocity": 84}, {"time": 1225, "pitch": 65, "duration": 8, "velocity": 87}, {"time": 1231, "pitch": 61, "duration": 7, "velocity": 80}, {"time": 1237, "pitch": 65, "duration": 7, "velocity": 98}, {"time": 1243, "pitch": 68, "duration": 6, "velocity": 89}, {"time": 1249, "pitch": 48, "duration": 14, "velocity": 84}, {"time": 1249, "pitch": 70, "duration": 6, "velocity": 86}, {"time": 1255, "pitch": 54, "duration": 8, "velocity": 76}, {"time": 1261, "pitch": 60, "duration": 7, "velocity": 81}, {"time": 1267, "pitch": 66, "duration": 9, "velocity": 84}, {"time": 1273, "pitch": 46, "duration": 15, "velocity": 84}, {"time": 1279, "pitch": 53, "duration": 9, "velocity": 60}, {"time": 1285, "pitch": 58, "duration": 2, "velocity": 85}, {"time": 1291, "pitch": 61, "duration": 7, "velocity": 81}, {"time": 1297, "pitch": 44, "duration": 16, "velocity": 83}, {"time": 1303, "pitch": 60, "duration": 13, "velocity": 80}, {"time": 1309, "pitch": 56, "duration": 3, "velocity": 82}, {"time": 1315, "pitch": 63, "duration": 8, "velocity": 86}, {"time": 1321, "pitch": 43, "duration": 24, "velocity": 63}, {"time": 1321, "pitch": 55, "duration": 25, "velocity": 69}, {"time": 1321, "pitch": 58, "duration": 25, "velocity": 64}, {"time": 1321, "pitch": 61, "duration": 24, "velocity": 70}, {"time": 1321, "pitch": 65, "duration": 25, "velocity": 74}, {"time": 1345, "pitch": 39, "duration": 18, "velocity": 78}, {"time": 1351, "pitch": 46, "duration": 18, "velocity": 64}, {"time": 1357, "pitch": 51, "duration": 12, "velocity": 79}, {"time": 1363, "pitch": 58, "duration": 7, "velocity": 72}, {"time": 1369, "pitch": 41, "duration": 19, "velocity": 79}, {"time": 1369, "pitch": 65, "duration": 27, "velocity": 81}, {"time": 1375, "pitch": 48, "duration": 13, "velocity": 40}, {"time": 1381, "pitch": 53, "duration": 12, "velocity": 56}, {"time": 1381, "pitch": 60, "duration": 16, "velocity": 67}, {"time": 1393, "pitch": 46, "duration": 38, "velocity": 73}, {"time": 1399, "pitch": 53, "duration": 31, "velocity": 66}, {"time": 1405, "pitch": 58, "duration": 25, "velocity": 77}, {"time": 1411, "pitch": 60, "duration": 6, "velocity": 76}, {"time": 1417, "pitch": 61, "duration": 2, "velocity": 88}, {"time": 1423, "pitch": 65, "duration": 13, "velocity": 85}, {"time": 1429, "pitch": 70, "duration": 6, "velocity": 96}, {"time": 1435, "pitch": 72, "duration": 5, "velocity": 94}, {"time": 1438, "pitch": 61, "duration": 16, "velocity": 75}, {"time": 1441, "pitch": 42, "duration": 19, "velocity": 87}, {"time": 1441, "pitch": 70, "duration": 14, "velocity": 98}, {"time": 1447, "pitch": 49, "duration": 17, "velocity": 64}, {"time": 1453, "pitch": 54, "duration": 11, "velocity": 84}, {"time": 1462, "pitch": 60, "duration": 10, "velocity": 74}, {"time": 1465, "pitch": 44, "duration": 19, "velocity": 84}, {"time": 1465, "pitch": 68, "duration": 7, "velocity": 92}, {"time": 1471, "pitch": 51, "duration": 19, "velocity": 66}, {"time": 1477, "pitch": 56, "duration": 12, "velocity": 83}, {"time": 1486, "pitch": 61, "duration": 9, "velocity": 67}, {"time": 1489, "pitch": 46, "duration": 42, "velocity": 78}, {"time": 1489, "pitch": 65, "duration": 13, "velocity": 77}, {"time": 1489, "pitch": 70, "duration": 12, "velocity": 88}, {"time": 1495, "pitch": 53, "duration": 33, "velocity": 76}, {"time": 1501, "pitch": 58, "duration": 14, "velocity": 83}, {"time": 1507, "pitch": 63, "duration": 5, "velocity": 83}, {"time": 1513, "pitch": 65, "duration": 8, "velocity": 94}, {"time": 1513, "pitch": 70, "duration": 8, "velocity": 93}, {"time": 1519, "pitch": 58, "duration": 8, "velocity": 91}, {"time": 1525, "pitch": 63, "duration": 7, "velocity": 98}, {"time": 1531, "pitch": 65, "duration": 6, "velocity": 87}, {"time": 1537, "pitch": 42, "duration": 19, "velocity": 87}, {"time": 1537, "pitch": 61, "duration": 24, "velocity": 88}, {"time": 1537, "pitch": 70, "duration": 3, "velocity": 88}, {"time": 1543, "pitch": 49, "duration": 19, "velocity": 67}, {"time": 1549, "pitch": 54, "duration": 9, "velocity": 75}, {"time": 1549, "pitch": 58, "duration": 6, "velocity": 82}, {"time": 1549, "pitch": 66, "duration": 6, "velocity": 84}, {"time": 1561, "pitch": 44, "duration": 18, "velocity": 84}, {"time": 1561, "pitch": 60, "duration": 7, "velocity": 87}, {"time": 1561, "pitch": 63, "duration": 7, "velocity": 89}, {"time": 1561, "pitch": 68, "duration": 7, "velocity": 87}, {"time": 1567, "pitch": 51, "duration": 13, "velocity": 69}, {"time": 1573, "pitch": 56, "duration": 13, "velocity": 76}, {"time": 1573, "pitch": 60, "duration": 7, "velocity": 88}, {"time": 1573, "pitch": 68, "duration": 7, "velocity": 88}, {"time": 1585, "pitch": 46, "duration": 42, "velocity": 90}, {"time": 1591, "pitch": 53, "duration": 35, "velocity": 73}, {"time": 1597, "pitch": 58, "duration": 13, "velocity": 83}, {"time": 1603, "pitch": 60, "duration": 3, "velocity": 83}, {"time": 1603, "pitch": 65, "duration": 3, "velocity": 85}, {"time": 1609, "pitch": 61, "duration": 6, "velocity": 91}, {"time": 1609, "pitch": 65, "duration": 7, "velocity": 88}, {"time": 1615, "pitch": 58, "duration": 10, "velocity": 86}, {"time": 1621, "pitch": 65, "duration": 7, "velocity": 100}, {"time": 1621, "pitch": 72, "duration": 5, "velocity": 82}, {"time": 1627, "pitch": 70, "duration": 5, "velocity": 88}, {"time": 1633, "pitch": 42, "duration": 20, "velocity": 87}, {"time": 1633, "pitch": 54, "duration": 8, "velocity": 67}, {"time": 1633, "pitch": 61, "duration": 8, "velocity": 70}, {"time": 1633, "pitch": 66, "duration": 8, "velocity": 74}, {"time": 1633, "pitch": 70, "duration": 9, "velocity": 71}, {"time": 1639, "pitch": 49, "duration": 19, "velocity": 75}, {"time": 1645, "pitch": 54, "duration": 6, "velocity": 70}, {"time": 1645, "pitch": 58, "duration": 8, "velocity": 82}, {"time": 1645, "pitch": 66, "duration": 9, "velocity": 85}, {"time": 1657, "pitch": 44, "duration": 19, "velocity": 84}, {"time": 1657, "pitch": 56, "duration": 9, "velocity": 72}, {"time": 1657, "pitch": 60, "duration": 8, "velocity": 86}, {"time": 1657, "pitch": 63, "duration": 8, "velocity": 77}, {"time": 1657, "pitch": 68, "duration": 8, "velocity": 89}, {"time": 1657, "pitch": 72, "duration": 21, "velocity": 81}, {"time": 1663, "pitch": 51, "duration": 18, "velocity": 74}, {"time": 1669, "pitch": 56, "duration": 9, "velocity": 79}, {"time": 1669, "pitch": 60, "duration": 7, "velocity": 88}, {"time": 1669, "pitch": 68, "duration": 8, "velocity": 87}, {"time": 1681, "pitch": 46, "duration": 42, "velocity": 78}, {"time": 1681, "pitch": 58, "duration": 6, "velocity": 71}, {"time": 1681, "pitch": 61, "duration": 13, "velocity": 82}, {"time": 1681, "pitch": 65, "duration": 13, "velocity": 79}, {"time": 1681, "pitch": 70, "duration": 23, "velocity": 71}, {"time": 1681, "pitch": 73, "duration": 23, "velocity": 80}, {"time": 1687, "pitch": 53, "duration": 35, "velocity": 78}, {"time": 1693, "pitch": 58, "duration": 19, "velocity": 82}, {"time": 1705, "pitch": 61, "duration": 19, "velocity": 84}, {"time": 1705, "pitch": 65, "duration": 19, "velocity": 77}, {"time": 1705, "pitch": 72, "duration": 19, "velocity": 70}, {"time": 1717, "pitch": 58, "duration": 3, "velocity": 79}, {"time": 1729, "pitch": 42, "duration": 19, "velocity": 85}, {"time": 1729, "pitch": 54, "duration": 4, "velocity": 73}, {"time": 1729, "pitch": 58, "duration": 10, "velocity": 67}, {"time": 1729, "pitch": 61, "duration": 19, "velocity": 73}, {"time": 1729, "pitch": 66, "duration": 6, "velocity": 87}, {"time": 1729, "pitch": 70, "duration": 22, "velocity": 77}, {"time": 1735, "pitch": 49, "duration": 18, "velocity": 67}, {"time": 1741, "pitch": 54, "duration": 12, "velocity": 87}, {"time": 1747, "pitch": 58, "duration": 4, "velocity": 81}, {"time": 1750, "pitch": 61, "duration": 3, "velocity": 36}, {"time": 1753, "pitch": 44, "duration": 18, "velocity": 80}, {"time": 1753, "pitch": 56, "duration": 7, "velocity": 74}, {"time": 1753, "pitch": 60, "duration": 19, "velocity": 87}, {"time": 1753, "pitch": 68, "duration": 19, "velocity": 86}, {"time": 1753, "pitch": 72, "duration": 20, "velocity": 77}, {"time": 1759, "pitch": 51, "duration": 14, "velocity": 64}, {"time": 1765, "pitch": 56, "duration": 9, "velocity": 80}, {"time": 1777, "pitch": 46, "duration": 13, "velocity": 79}, {"time": 1777, "pitch": 53, "duration": 37, "velocity": 67}, {"time": 1777, "pitch": 58, "duration": 4, "velocity": 78}, {"time": 1777, "pitch": 65, "duration": 6, "velocity": 86}, {"time": 1783, "pitch": 60, "duration": 32, "velocity": 42}, {"time": 1789, "pitch": 65, "duration": 28, "velocity": 68}, {"time": 1795, "pitch": 72, "duration": 3, "velocity": 82}, {"time": 1798, "pitch": 73, "duration": 3, "velocity": 81}, {"time": 1801, "pitch": 72, "duration": 5, "velocity": 75}, {"time": 1807, "pitch": 70, "duration": 7, "velocity": 87}, {"time": 1813, "pitch": 68, "duration": 10, "velocity": 98}, {"time": 1825, "pitch": 54, "duration": 26, "velocity": 76}, {"time": 1825, "pitch": 61, "duration": 22, "velocity": 77}, {"time": 1825, "pitch": 70, "duration": 26, "velocity": 78}, {"time": 1849, "pitch": 56, "duration": 23, "velocity": 65}, {"time": 1849, "pitch": 63, "duration": 18, "velocity": 74}, {"time": 1849, "pitch": 68, "duration": 24, "velocity": 71}, {"time": 1849, "pitch": 72, "duration": 21, "velocity": 80}, {"time": 1873, "pitch": 58, "duration": 22, "velocity": 70}, {"time": 1873, "pitch": 65, "duration": 21, "velocity": 73}, {"time": 1873, "pitch": 70, "duration": 24, "velocity": 68}, {"time": 1873, "pitch": 73, "duration": 22, "velocity": 78}, {"time": 1897, "pitch": 56, "duration": 15, "velocity": 69}, {"time": 1897, "pitch": 63, "duration": 17, "velocity": 76}, {"time": 1897, "pitch": 68, "duration": 20, "velocity": 74}, {"time": 1897, "pitch": 72, "duration": 21, "velocity": 80}, {"time": 1921, "pitch": 42, "duration": 19, "velocity": 78}, {"time": 1921, "pitch": 61, "duration": 25, "velocity": 76}, {"time": 1921, "pitch": 70, "duration": 5, "velocity": 84}, {"time": 1927, "pitch": 54, "duration": 19, "velocity": 65}, {"time": 1933, "pitch": 58, "duration": 9, "velocity": 77}, {"time": 1933, "pitch": 66, "duration": 8, "velocity": 77}, {"time": 1945, "pitch": 44, "duration": 19, "velocity": 79}, {"time": 1945, "pitch": 60, "duration": 26, "velocity": 80}, {"time": 1945, "pitch": 63, "duration": 26, "velocity": 65}, {"time": 1945, "pitch": 68, "duration": 11, "velocity": 78}, {"time": 1951, "pitch": 56, "duration": 14, "velocity": 67}, {"time": 1957, "pitch": 68, "duration": 14, "velocity": 76}, {"time": 1969, "pitch": 46, "duration": 38, "velocity": 83}, {"time": 1975, "pitch": 53, "duration": 33, "velocity": 78}, {"time": 1981, "pitch": 56, "duration": 27, "velocity": 76}, {"time": 1987, "pitch": 60, "duration": 7, "velocity": 76}, {"time": 1993, "pitch": 61, "duration": 16, "velocity": 60}, {"time": 2017, "pitch": 58, "duration": 42, "velocity": 88}, {"time": 2023, "pitch": 65, "duration": 39, "velocity": 77}, {"time": 2029, "pitch": 70, "duration": 37, "velocity": 69}, {"time": 2035, "pitch": 73, "duration": 32, "velocity": 77}, {"time": 2041, "pitch": 80, "duration": 7, "velocity": 81}, {"time": 2053, "pitch": 82, "duration": 13, "velocity": 76}, {"time": 2065, "pitch": 56, "duration": 38, "velocity": 78}, {"time": 2071, "pitch": 65, "duration": 31, "velocity": 74}, {"time": 2077, "pitch": 68, "duration": 26, "velocity": 72}, {"time": 2083, "pitch": 77, "duration": 19, "velocity": 80}, {"time": 2101, "pitch": 75, "duration": 13, "velocity": 85}, {"time": 2113, "pitch": 54, "duration": 39, "velocity": 73}, {"time": 2113, "pitch": 73, "duration": 17, "velocity": 86}, {"time": 2119, "pitch": 61, "duration": 32, "velocity": 65}, {"time": 2125, "pitch": 66, "duration": 24, "velocity": 76}, {"time": 2131, "pitch": 70, "duration": 30, "velocity": 84}, {"time": 2137, "pitch": 78, "duration": 24, "velocity": 78}, {"time": 2161, "pitch": 53, "duration": 38, "velocity": 76}, {"time": 2167, "pitch": 60, "duration": 32, "velocity": 74}, {"time": 2173, "pitch": 63, "duration": 25, "velocity": 80}, {"time": 2179, "pitch": 68, "duration": 20, "velocity": 74}, {"time": 2185, "pitch": 75, "duration": 14, "velocity": 84}, {"time": 2197, "pitch": 72, "duration": 12, "velocity": 83}, {"time": 2209, "pitch": 58, "duration": 40, "velocity": 87}, {"time": 2215, "pitch": 65, "duration": 34, "velocity": 80}, {"time": 2221, "pitch": 70, "duration": 26, "velocity": 81}, {"time": 2227, "pitch": 73, "duration": 23, "velocity": 78}, {"time": 2233, "pitch": 82, "duration": 23, "velocity": 78}, {"time": 2257, "pitch": 56, "duration": 40, "velocity": 79}, {"time": 2257, "pitch": 80, "duration": 19, "velocity": 81}, {"time": 2263, "pitch": 65, "duration": 31, "velocity": 44}, {"time": 2269, "pitch": 68, "duration": 25, "velocity": 74}, {"time": 2275, "pitch": 77, "duration": 6, "velocity": 68}, {"time": 2281, "pitch": 75, "duration": 24, "velocity": 74}, {"time": 2305, "pitch": 54, "duration": 19, "velocity": 76}, {"time": 2305, "pitch": 73, "duration": 21, "velocity": 87}, {"time": 2311, "pitch": 61, "duration": 13, "velocity": 66}, {"time": 2317, "pitch": 66, "duration": 6, "velocity": 76}, {"time": 2329, "pitch": 56, "duration": 15, "velocity": 83}, {"time": 2335, "pitch": 63, "duration": 8, "velocity": 68}, {"time": 2341, "pitch": 68, "duration": 13, "velocity": 72}, {"time": 2353, "pitch": 46, "duration": 41, "velocity": 67}, {"time": 2353, "pitch": 70, "duration": 20, "velocity": 83}, {"time": 2359, "pitch": 53, "duration": 33, "velocity": 65}, {"time": 2365, "pitch": 58, "duration": 27, "velocity": 78}, {"time": 2371, "pitch": 63, "duration": 7, "velocity": 77}, {"time": 2377, "pitch": 61, "duration": 21, "velocity": 78}, {"time": 2401, "pitch": 42, "duration": 19, "velocity": 84}, {"time": 2407, "pitch": 54, "duration": 18, "velocity": 74}, {"time": 2413, "pitch": 58, "duration": 7, "velocity": 69}, {"time": 2419, "pitch": 61, "duration": 11, "velocity": 70}, {"time": 2425, "pitch": 44, "duration": 19, "velocity": 85}, {"time": 2431, "pitch": 56, "duration": 12, "velocity": 67}, {"time": 2437, "pitch": 60, "duration": 7, "velocity": 74}, {"time": 2443, "pitch": 63, "duration": 8, "velocity": 86}, {"time": 2449, "pitch": 46, "duration": 40, "velocity": 79}, {"time": 2455, "pitch": 53, "duration": 32, "velocity": 67}, {"time": 2461, "pitch": 58, "duration": 26, "velocity": 77}, {"time": 2467, "pitch": 60, "duration": 6, "velocity": 70}, {"time": 2473, "pitch": 61, "duration": 2, "velocity": 81}, {"time": 2479, "pitch": 65, "duration": 12, "velocity": 82}, {"time": 2485, "pitch": 70, "duration": 5, "velocity": 89}, {"time": 2491, "pitch": 72, "duration": 6, "velocity": 91}, {"time": 2494, "pitch": 65, "duration": 11, "velocity": 78}, {"time": 2497, "pitch": 42, "duration": 19, "velocity": 79}, {"time": 2497, "pitch": 73, "duration": 5, "velocity": 88}, {"time": 2503, "pitch": 49, "duration": 13, "velocity": 71}, {"time": 2509, "pitch": 54, "duration": 11, "velocity": 84}, {"time": 2515, "pitch": 61, "duration": 3, "velocity": 82}, {"time": 2515, "pitch": 70, "duration": 4, "velocity": 84}, {"time": 2521, "pitch": 44, "duration": 18, "velocity": 80}, {"time": 2521, "pitch": 60, "duration": 8, "velocity": 81}, {"time": 2521, "pitch": 68, "duration": 6, "velocity": 87}, {"time": 2527, "pitch": 51, "duration": 13, "velocity": 74}, {"time": 2533, "pitch": 56, "duration": 12, "velocity": 72}, {"time": 2533, "pitch": 60, "duration": 7, "velocity": 86}, {"time": 2533, "pitch": 68, "duration": 7, "velocity": 85}, {"time": 2539, "pitch": 63, "duration": 6, "velocity": 78}, {"time": 2545, "pitch": 49, "duration": 39, "velocity": 65}, {"time": 2545, "pitch": 61, "duration": 4, "velocity": 75}, {"time": 2545, "pitch": 68, "duration": 14, "velocity": 76}, {"time": 2551, "pitch": 56, "duration": 32, "velocity": 70}, {"time": 2557, "pitch": 61, "duration": 15, "velocity": 75}, {"time": 2563, "pitch": 66, "duration": 6, "velocity": 84}, {"time": 2569, "pitch": 65, "duration": 8, "velocity": 87}, {"time": 2575, "pitch": 61, "duration": 7, "velocity": 80}, {"time": 2581, "pitch": 65, "duration": 7, "velocity": 98}, {"time": 2587, "pitch": 68, "duration": 6, "velocity": 89}, {"time": 2593, "pitch": 48, "duration": 14, "velocity": 84}, {"time": 2593, "pitch": 70, "duration": 6, "velocity": 86}, {"time": 2599, "pitch": 54, "duration": 8, "velocity": 76}, {"time": 2605, "pitch": 60, "duration": 7, "velocity": 81}, {"time": 2611, "pitch": 66, "duration": 5, "velocity": 84}, {"time": 2617, "pitch": 46, "duration": 19, "velocity": 85}, {"time": 2623, "pitch": 53, "duration": 13, "velocity": 74}, {"time": 2629, "pitch": 58, "duration": 7, "velocity": 83}, {"time": 2641, "pitch": 49, "duration": 24, "velocity": 89}, {"time": 2647, "pitch": 56, "duration": 18, "velocity": 88}, {"time": 2653, "pitch": 65, "duration": 7, "velocity": 86}, {"time": 2665, "pitch": 43, "duration": 24, "velocity": 63}, {"time": 2665, "pitch": 55, "duration": 25, "velocity": 69}, {"time": 2665, "pitch": 58, "duration": 25, "velocity": 64}, {"time": 2665, "pitch": 61, "duration": 24, "velocity": 70}, {"time": 2665, "pitch": 65, "duration": 25, "velocity": 74}, {"time": 2689, "pitch": 39, "duration": 18, "velocity": 78}, {"time": 2695, "pitch": 46, "duration": 18, "velocity": 64}, {"time": 2701, "pitch": 51, "duration": 12, "velocity": 79}, {"time": 2707, "pitch": 58, "duration": 7, "velocity": 72}, {"time": 2713, "pitch": 41, "duration": 19, "velocity": 79}, {"time": 2713, "pitch": 65, "duration": 27, "velocity": 81}, {"time": 2719, "pitch": 48, "duration": 13, "velocity": 40}, {"time": 2725, "pitch": 53, "duration": 12, "velocity": 56}, {"time": 2725, "pitch": 60, "duration": 16, "velocity": 67}, {"time": 2737, "pitch": 46, "duration": 38, "velocity": 73}, {"time": 2743, "pitch": 53, "duration": 31, "velocity": 66}, {"time": 2749, "pitch": 58, "duration": 25, "velocity": 77}, {"time": 2755, "pitch": 60, "duration": 6, "velocity": 76}, {"time": 2761, "pitch": 61, "duration": 2, "velocity": 88}, {"time": 2767, "pitch": 65, "duration": 13, "velocity": 85}, {"time": 2773, "pitch": 70, "duration": 6, "velocity": 96}, {"time": 2779, "pitch": 72, "duration": 5, "velocity": 94}, {"time": 2785, "pitch": 42, "duration": 19, "velocity": 87}, {"time": 2785, "pitch": 61, "duration": 16, "velocity": 75}, {"time": 2785, "pitch": 66, "duration": 1, "velocity": 73}, {"time": 2785, "pitch": 70, "duration": 14, "velocity": 98}, {"time": 2791, "pitch": 49, "duration": 17, "velocity": 64}, {"time": 2797, "pitch": 54, "duration": 11, "velocity": 84}, {"time": 2806, "pitch": 60, "duration": 10, "velocity": 74}, {"time": 2809, "pitch": 44, "duration": 19, "velocity": 84}, {"time": 2809, "pitch": 63, "duration": 1, "velocity": 80}, {"time": 2809, "pitch": 68, "duration": 7, "velocity": 92}, {"time": 2815, "pitch": 51, "duration": 19, "velocity": 66}, {"time": 2821, "pitch": 56, "duration": 12, "velocity": 83}, {"time": 2830, "pitch": 61, "duration": 9, "velocity": 67}, {"time": 2833, "pitch": 46, "duration": 42, "velocity": 78}, {"time": 2833, "pitch": 65, "duration": 13, "velocity": 77}, {"time": 2833, "pitch": 70, "duration": 12, "velocity": 88}, {"time": 2839, "pitch": 53, "duration": 33, "velocity": 76}, {"time": 2845, "pitch": 58, "duration": 14, "velocity": 83}, {"time": 2851, "pitch": 63, "duration": 5, "velocity": 83}, {"time": 2857, "pitch": 65, "duration": 8, "velocity": 94}, {"time": 2857, "pitch": 70, "duration": 8, "velocity": 93}, {"time": 2863, "pitch": 58, "duration": 8, "velocity": 91}, {"time": 2869, "pitch": 63, "duration": 7, "velocity": 98}, {"time": 2875, "pitch": 65, "duration": 6, "velocity": 87}, {"time": 2881, "pitch": 42, "duration": 19, "velocity": 87}, {"time": 2881, "pitch": 61, "duration": 24, "velocity": 88}, {"time": 2881, "pitch": 70, "duration": 3, "velocity": 88}, {"time": 2887, "pitch": 49, "duration": 19, "velocity": 67}, {"time": 2893, "pitch": 54, "duration": 9, "velocity": 75}, {"time": 2893, "pitch": 58, "duration": 6, "velocity": 82}, {"time": 2893, "pitch": 66, "duration": 6, "velocity": 84}, {"time": 2905, "pitch": 44, "duration": 18, "velocity": 84}, {"time": 2905, "pitch": 60, "duration": 7, "velocity": 87}, {"time": 2905, "pitch": 63, "duration": 7, "velocity": 89}, {"time": 2905, "pitch": 68, "duration": 7, "velocity": 87}, {"time": 2911, "pitch": 51, "duration": 13, "velocity": 69}, {"time": 2917, "pitch": 56, "duration": 13, "velocity": 76}, {"time": 2917, "pitch": 60, "duration": 7, "velocity": 88}, {"time": 2917, "pitch": 68, "duration": 7, "velocity": 88}, {"time": 2929, "pitch": 46, "duration": 42, "velocity": 90}, {"time": 2935, "pitch": 53, "duration": 35, "velocity": 73}, {"time": 2941, "pitch": 58, "duration": 13, "velocity": 83}, {"time": 2947, "pitch": 60, "duration": 5, "velocity": 83}, {"time": 2947, "pitch": 65, "duration": 3, "velocity": 85}, {"time": 2953, "pitch": 61, "duration": 2, "velocity": 91}, {"time": 2953, "pitch": 65, "duration": 3, "velocity": 88}, {"time": 2959, "pitch": 58, "duration": 10, "velocity": 86}, {"time": 2965, "pitch": 65, "duration": 7, "velocity": 100}, {"time": 2965, "pitch": 72, "duration": 5, "velocity": 82}, {"time": 2971, "pitch": 70, "duration": 7, "velocity": 88}, {"time": 2977, "pitch": 42, "duration": 20, "velocity": 87}, {"time": 2977, "pitch": 66, "duration": 6, "velocity": 91}, {"time": 2977, "pitch": 73, "duration": 3, "velocity": 90}, {"time": 2983, "pitch": 49, "duration": 19, "velocity": 75}, {"time": 2989, "pitch": 54, "duration": 10, "velocity": 70}, {"time": 2989, "pitch": 58, "duration": 8, "velocity": 82}, {"time": 2989, "pitch": 66, "duration": 9, "velocity": 85}, {"time": 3001, "pitch": 44, "duration": 19, "velocity": 84}, {"time": 3001, "pitch": 60, "duration": 8, "velocity": 86}, {"time": 3001, "pitch": 68, "duration": 8, "velocity": 89}, {"time": 3007, "pitch": 51, "duration": 18, "velocity": 74}, {"time": 3013, "pitch": 56, "duration": 9, "velocity": 79}, {"time": 3013, "pitch": 60, "duration": 7, "velocity": 88}, {"time": 3013, "pitch": 68, "duration": 8, "velocity": 87}, {"time": 3025, "pitch": 46, "duration": 42, "velocity": 78}, {"time": 3025, "pitch": 61, "duration": 13, "velocity": 82}, {"time": 3025, "pitch": 65, "duration": 13, "velocity": 79}, {"time": 3025, "pitch": 70, "duration": 13, "velocity": 87}, {"time": 3031, "pitch": 53, "duration": 35, "velocity": 78}, {"time": 3037, "pitch": 58, "duration": 19, "velocity": 82}, {"time": 3043, "pitch": 60, "duration": 7, "velocity": 76}, {"time": 3043, "pitch": 65, "duration": 3, "velocity": 68}, {"time": 3049, "pitch": 61, "duration": 19, "velocity": 84}, {"time": 3049, "pitch": 65, "duration": 19, "velocity": 77}, {"time": 3061, "pitch": 58, "duration": 3, "velocity": 79}, {"time": 3073, "pitch": 42, "duration": 19, "velocity": 85}, {"time": 3073, "pitch": 58, "duration": 10, "velocity": 67}, {"time": 3073, "pitch": 61, "duration": 8, "velocity": 70}, {"time": 3073, "pitch": 66, "duration": 6, "velocity": 87}, {"time": 3079, "pitch": 49, "duration": 18, "velocity": 67}, {"time": 3085, "pitch": 54, "duration": 12, "velocity": 87}, {"time": 3091, "pitch": 58, "duration": 4, "velocity": 81}, {"time": 3094, "pitch": 61, "duration": 3, "velocity": 36}, {"time": 3097, "pitch": 44, "duration": 18, "velocity": 80}, {"time": 3097, "pitch": 60, "duration": 19, "velocity": 87}, {"time": 3097, "pitch": 68, "duration": 19, "velocity": 86}, {"time": 3103, "pitch": 51, "duration": 18, "velocity": 64}, {"time": 3109, "pitch": 56, "duration": 9, "velocity": 80}, {"time": 3115, "pitch": 63, "duration": 7, "velocity": 86}, {"time": 3121, "pitch": 46, "duration": 92, "velocity": 86}, {"time": 3121, "pitch": 61, "duration": 10, "velocity": 83}, {"time": 3121, "pitch": 65, "duration": 9, "velocity": 87}, {"time": 3121, "pitch": 70, "duration": 8, "velocity": 88}, {"time": 3121, "pitch": 77, "duration": 6, "velocity": 89}, {"time": 3127, "pitch": 53, "duration": 86, "velocity": 44}, {"time": 3127, "pitch": 75, "duration": 3, "velocity": 89}, {"time": 3130, "pitch": 77, "duration": 4, "velocity": 88}, {"time": 3133, "pitch": 61, "duration": 9, "velocity": 82}, {"time": 3133, "pitch": 65, "duration": 8, "velocity": 86}, {"time": 3133, "pitch": 70, "duration": 8, "velocity": 86}, {"time": 3133, "pitch": 82, "duration": 3, "velocity": 88}, {"time": 3136, "pitch": 77, "duration": 4, "velocity": 88}, {"time": 3139, "pitch": 58, "duration": 20, "velocity": 73}, {"time": 3139, "pitch": 75, "duration": 4, "velocity": 88}, {"time": 3142, "pitch": 70, "duration": 12, "velocity": 88}, {"time": 3145, "pitch": 61, "duration": 9, "velocity": 83}, {"time": 3145, "pitch": 65, "duration": 9, "velocity": 88}, {"time": 3145, "pitch": 70, "duration": 9, "velocity": 86}, {"time": 3145, "pitch": 77, "duration": 7, "velocity": 88}, {"time": 3151, "pitch": 75, "duration": 7, "velocity": 88}, {"time": 3154, "pitch": 77, "duration": 4, "velocity": 88}, {"time": 3157, "pitch": 61, "duration": 9, "velocity": 84}, {"time": 3157, "pitch": 65, "duration": 10, "velocity": 88}, {"time": 3157, "pitch": 70, "duration": 9, "velocity": 85}, {"time": 3157, "pitch": 82, "duration": 3, "velocity": 88}, {"time": 3160, "pitch": 77, "duration": 4, "velocity": 88}, {"time": 3163, "pitch": 58, "duration": 10, "velocity": 75}, {"time": 3163, "pitch": 75, "duration": 4, "velocity": 88}, {"time": 3166, "pitch": 70, "duration": 1, "velocity": 88}, {"time": 3169, "pitch": 61, "duration": 9, "velocity": 86}, {"time": 3169, "pitch": 65, "duration": 10, "velocity": 88}, {"time": 3169, "pitch": 70, "duration": 1, "velocity": 86}, {"time": 3169, "pitch": 77, "duration": 7, "velocity": 88}, {"time": 3175, "pitch": 58, "duration": 8, "velocity": 69}, {"time": 3175, "pitch": 75, "duration": 4, "velocity": 88}, {"time": 3178, "pitch": 77, "duration": 4, "velocity": 88}, {"time": 3181, "pitch": 61, "duration": 8, "velocity": 84}, {"time": 3181, "pitch": 65, "duration": 9, "velocity": 86}, {"time": 3181, "pitch": 70, "duration": 6, "velocity": 79}, {"time": 3181, "pitch": 82, "duration": 3, "velocity": 88}, {"time": 3184, "pitch": 77, "duration": 4, "velocity": 88}, {"time": 3187, "pitch": 58, "duration": 7, "velocity": 72}, {"time": 3187, "pitch": 75, "duration": 4, "velocity": 88}, {"time": 3190, "pitch": 70, "duration": 2, "velocity": 88}, {"time": 3193, "pitch": 61, "duration": 9, "velocity": 87}, {"time": 3193, "pitch": 65, "duration": 9, "velocity": 91}, {"time": 3193, "pitch": 70, "duration": 10, "velocity": 87}, {"time": 3193, "pitch": 77, "duration": 7, "velocity": 88}, {"time": 3199, "pitch": 58, "duration": 8, "velocity": 77}, {"time": 3199, "pitch": 75, "duration": 3, "velocity": 88}, {"time": 3202, "pitch": 77, "duration": 4, "velocity": 88}, {"time": 3205, "pitch": 61, "duration": 9, "velocity": 88}, {"time": 3205, "pitch": 65, "duration": 7, "velocity": 91}, {"time": 3205, "pitch": 70, "duration": 9, "velocity": 87}, {"time": 3205, "pitch": 82, "duration": 3, "velocity": 88}, {"time": 3208, "pitch": 77, "duration": 4, "velocity": 89}, {"time": 3211, "pitch": 58, "duration": 1, "velocity": 78}, {"time": 3211, "pitch": 75, "duration": 4, "velocity": 89}, {"time": 3214, "pitch": 70, "duration": 1, "velocity": 90}, {"time": 3217, "pitch": 41, "duration": 91, "velocity": 84}, {"time": 3217, "pitch": 60, "duration": 8, "velocity": 87}, {"time": 3217, "pitch": 65, "duration": 7, "velocity": 90}, {"time": 3217, "pitch": 68, "duration": 8, "velocity": 88}, {"time": 3217, "pitch": 77, "duration": 6, "velocity": 90}, {"time": 3223, "pitch": 53, "duration": 7, "velocity": 72}, {"time": 3223, "pitch": 75, "duration": 3, "velocity": 90}, {"time": 3226, "pitch": 77, "duration": 4, "velocity": 89}, {"time": 3229, "pitch": 60, "duration": 9, "velocity": 87}, {"time": 3229, "pitch": 65, "duration": 8, "velocity": 89}, {"time": 3229, "pitch": 68, "duration": 10, "velocity": 86}, {"time": 3229, "pitch": 82, "duration": 3, "velocity": 88}, {"time": 3232, "pitch": 77, "duration": 4, "velocity": 88}, {"time": 3235, "pitch": 53, "duration": 7, "velocity": 77}, {"time": 3235, "pitch": 75, "duration": 4, "velocity": 88}, {"time": 3238, "pitch": 70, "duration": 3, "velocity": 88}, {"time": 3241, "pitch": 60, "duration": 10, "velocity": 88}, {"time": 3241, "pitch": 65, "duration": 9, "velocity": 91}, {"time": 3241, "pitch": 68, "duration": 10, "velocity": 87}, {"time": 3241, "pitch": 77, "duration": 7, "velocity": 88}, {"time": 3247, "pitch": 53, "duration": 7, "velocity": 75}, {"time": 3247, "pitch": 75, "duration": 7, "velocity": 88}, {"time": 3250, "pitch": 77, "duration": 4, "velocity": 88}, {"time": 3253, "pitch": 60, "duration": 9, "velocity": 87}, {"time": 3253, "pitch": 65, "duration": 8, "velocity": 88}, {"time": 3253, "pitch": 68, "duration": 9, "velocity": 84}, {"time": 3253, "pitch": 82, "duration": 3, "velocity": 88}, {"time": 3256, "pitch": 77, "duration": 4, "velocity": 88}, {"time": 3259, "pitch": 53, "duration": 7, "velocity": 74}, {"time": 3259, "pitch": 75, "duration": 4, "velocity": 88}, {"time": 3262, "pitch": 70, "duration": 4, "velocity": 88}, {"time": 3265, "pitch": 60, "duration": 8, "velocity": 91}, {"time": 3265, "pitch": 65, "duration": 8, "velocity": 92}, {"time": 3265, "pitch": 68, "duration": 10, "velocity": 89}, {"time": 3265, "pitch": 77, "duration": 7, "velocity": 88}, {"time": 3271, "pitch": 53, "duration": 7, "velocity": 75}, {"time": 3271, "pitch": 75, "duration": 4, "velocity": 88}, {"time": 3274, "pitch": 77, "duration": 4, "velocity": 88}, {"time": 3277, "pitch": 60, "duration": 8, "velocity": 89}, {"time": 3277, "pitch": 65, "duration": 9, "velocity": 92}, {"time": 3277, "pitch": 68, "duration": 9, "velocity": 87}, {"time": 3277, "pitch": 82, "duration": 3, "velocity": 88}, {"time": 3280, "pitch": 77, "duration": 4, "velocity": 88}, {"time": 3283, "pitch": 53, "duration": 8, "velocity": 77}, {"time": 3283, "pitch": 75, "duration": 4, "velocity": 88}, {"time": 3286, "pitch": 70, "duration": 2, "velocity": 89}, {"time": 3289, "pitch": 60, "duration": 8, "velocity": 89}, {"time": 3289, "pitch": 65, "duration": 8, "velocity": 94}, {"time": 3289, "pitch": 68, "duration": 9, "velocity": 88}, {"time": 3289, "pitch": 77, "duration": 7, "velocity": 90}, {"time": 3295, "pitch": 53, "duration": 7, "velocity": 78}, {"time": 3295, "pitch": 75, "duration": 3, "velocity": 90}, {"time": 3298, "pitch": 77, "duration": 4, "velocity": 90}, {"time": 3301, "pitch": 60, "duration": 8, "velocity": 88}, {"time": 3301, "pitch": 65, "duration": 11, "velocity": 89}, {"time": 3301, "pitch": 68, "duration": 9, "velocity": 87}, {"time": 3301, "pitch": 82, "duration": 3, "velocity": 90}, {"time": 3304, "pitch": 77, "duration": 4, "velocity": 90}, {"time": 3307, "pitch": 53, "duration": 7, "velocity": 75}, {"time": 3307, "pitch": 75, "duration": 4, "velocity": 91}, {"time": 3307, "pitch": 75, "duration": 4, "velocity": 107}, {"time": 3310, "pitch": 70, "duration": 1, "velocity": 91}, {"time": 3313, "pitch": 42, "duration": 44, "velocity": 87}, {"time": 3313, "pitch": 61, "duration": 9, "velocity": 89}, {"time": 3313, "pitch": 66, "duration": 9, "velocity": 98}, {"time": 3313, "pitch": 70, "duration": 8, "velocity": 94}, {"time": 3319, "pitch": 54, "duration": 8, "velocity": 76}, {"time": 3319, "pitch": 75, "duration": 3, "velocity": 89}, {"time": 3322, "pitch": 77, "duration": 4, "velocity": 88}, {"time": 3325, "pitch": 61, "duration": 9, "velocity": 91}, {"time": 3325, "pitch": 66, "duration": 10, "velocity": 94}, {"time": 3325, "pitch": 70, "duration": 10, "velocity": 91}, {"time": 3325, "pitch": 82, "duration": 3, "velocity": 88}, {"time": 3328, "pitch": 77, "duration": 4, "velocity": 88}, {"time": 3331, "pitch": 54, "duration": 7, "velocity": 70}, {"time": 3331, "pitch": 75, "duration": 4, "velocity": 88}, {"time": 3334, "pitch": 70, "duration": 1, "velocity": 88}, {"time": 3337, "pitch": 61, "duration": 9, "velocity": 94}, {"time": 3337, "pitch": 66, "duration": 9, "velocity": 94}, {"time": 3337, "pitch": 70, "duration": 9, "velocity": 91}, {"time": 3343, "pitch": 54, "duration": 7, "velocity": 79}, {"time": 3343, "pitch": 75, "duration": 7, "velocity": 88}, {"time": 3346, "pitch": 77, "duration": 4, "velocity": 88}, {"time": 3349, "pitch": 61, "duration": 8, "velocity": 94}, {"time": 3349, "pitch": 66, "duration": 9, "velocity": 104}, {"time": 3349, "pitch": 70, "duration": 8, "velocity": 88}, {"time": 3349, "pitch": 82, "duration": 3, "velocity": 88}, {"time": 3352, "pitch": 77, "duration": 9, "velocity": 88}, {"time": 3355, "pitch": 54, "duration": 6, "velocity": 81}, {"time": 3355, "pitch": 75, "duration": 4, "velocity": 88}, {"time": 3358, "pitch": 70, "duration": 4, "velocity": 88}, {"time": 3361, "pitch": 44, "duration": 43, "velocity": 88}, {"time": 3361, "pitch": 60, "duration": 10, "velocity": 91}, {"time": 3361, "pitch": 63, "duration": 10, "velocity": 100}, {"time": 3361, "pitch": 68, "duration": 7, "velocity": 90}, {"time": 3361, "pitch": 77, "duration": 7, "velocity": 88}, {"time": 3367, "pitch": 51, "duration": 8, "velocity": 76}, {"time": 3367, "pitch": 75, "duration": 4, "velocity": 88}, {"time": 3370, "pitch": 77, "duration": 4, "velocity": 88}, {"time": 3373, "pitch": 60, "duration": 9, "velocity": 92}, {"time": 3373, "pitch": 63, "duration": 9, "velocity": 98}, {"time": 3373, "pitch": 68, "duration": 9, "velocity": 94}, {"time": 3373, "pitch": 82, "duration": 3, "velocity": 88}, {"time": 3376, "pitch": 77, "duration": 4, "velocity": 88}, {"time": 3379, "pitch": 51, "duration": 8, "velocity": 84}, {"time": 3379, "pitch": 75, "duration": 4, "velocity": 88}, {"time": 3382, "pitch": 70, "duration": 2, "velocity": 88}, {"time": 3385, "pitch": 60, "duration": 8, "velocity": 88}, {"time": 3385, "pitch": 63, "duration": 8, "velocity": 98}, {"time": 3385, "pitch": 68, "duration": 8, "velocity": 92}, {"time": 3385, "pitch": 77, "duration": 7, "velocity": 88}, {"time": 3391, "pitch": 51, "duration": 7, "velocity": 84}, {"time": 3391, "pitch": 75, "duration": 3, "velocity": 88}, {"time": 3394, "pitch": 77, "duration": 4, "velocity": 88}, {"time": 3397, "pitch": 60, "duration": 8, "velocity": 89}, {"time": 3397, "pitch": 63, "duration": 11, "velocity": 96}, {"time": 3397, "pitch": 68, "duration": 7, "velocity": 92}, {"time": 3397, "pitch": 82, "duration": 3, "velocity": 88}, {"time": 3400, "pitch": 77, "duration": 4, "velocity": 89}, {"time": 3403, "pitch": 51, "duration": 7, "velocity": 78}, {"time": 3403, "pitch": 75, "duration": 4, "velocity": 89}, {"time": 3406, "pitch": 70, "duration": 1, "velocity": 90}, {"time": 3409, "pitch": 46, "duration": 44, "velocity": 87}, {"time": 3409, "pitch": 61, "duration": 9, "velocity": 88}, {"time": 3409, "pitch": 65, "duration": 8, "velocity": 91}, {"time": 3409, "pitch": 70, "duration": 10, "velocity": 91}, {"time": 3415, "pitch": 53, "duration": 42, "velocity": 81}, {"time": 3421, "pitch": 61, "duration": 8, "velocity": 96}, {"time": 3421, "pitch": 65, "duration": 9, "velocity": 104}, {"time": 3421, "pitch": 70, "duration": 10, "velocity": 88}, {"time": 3427, "pitch": 58, "duration": 7, "velocity": 84}, {"time": 3433, "pitch": 61, "duration": 7, "velocity": 89}, {"time": 3433, "pitch": 65, "duration": 7, "velocity": 98}, {"time": 3433, "pitch": 70, "duration": 8, "velocity": 89}, {"time": 3439, "pitch": 58, "duration": 7, "velocity": 86}, {"time": 3445, "pitch": 61, "duration": 9, "velocity": 94}, {"time": 3445, "pitch": 65, "duration": 9, "velocity": 104}, {"time": 3445, "pitch": 70, "duration": 9, "velocity": 89}, {"time": 3451, "pitch": 58, "duration": 7, "velocity": 87}, {"time": 3457, "pitch": 46, "duration": 40, "velocity": 87}, {"time": 3457, "pitch": 61, "duration": 9, "velocity": 93}, {"time": 3457, "pitch": 65, "duration": 10, "velocity": 102}, {"time": 3457, "pitch": 70, "duration": 9, "velocity": 92}, {"time": 3463, "pitch": 53, "duration": 34, "velocity": 82}, {"time": 3469, "pitch": 61, "duration": 8, "velocity": 88}, {"time": 3469, "pitch": 65, "duration": 8, "velocity": 93}, {"time": 3469, "pitch": 70, "duration": 7, "velocity": 91}, {"time": 3475, "pitch": 58, "duration": 8, "velocity": 84}, {"time": 3481, "pitch": 61, "duration": 11, "velocity": 94}, {"time": 3481, "pitch": 65, "duration": 11, "velocity": 108}, {"time": 3481, "pitch": 70, "duration": 10, "velocity": 100}, {"time": 3490, "pitch": 58, "duration": 6, "velocity": 102}, {"time": 3493, "pitch": 61, "duration": 9, "velocity": 104}, {"time": 3493, "pitch": 65, "duration": 10, "velocity": 114}, {"time": 3493, "pitch": 70, "duration": 9, "velocity": 96}, {"time": 3499, "pitch": 46, "duration": 6, "velocity": 87}, {"time": 3526, "pitch": 58, "duration": 11, "velocity": 71}, {"time": 3529, "pitch": 42, "duration": 21, "velocity": 89}, {"time": 3529, "pitch": 61, "duration": 11, "velocity": 85}, {"time": 3529, "pitch": 66, "duration": 8, "velocity": 104}, {"time": 3535, "pitch": 49, "duration": 8, "velocity": 73}, {"time": 3541, "pitch": 58, "duration": 8, "velocity": 92}, {"time": 3541, "pitch": 61, "duration": 11, "velocity": 87}, {"time": 3541, "pitch": 66, "duration": 8, "velocity": 91}, {"time": 3547, "pitch": 54, "duration": 6, "velocity": 77}, {"time": 3553, "pitch": 44, "duration": 19, "velocity": 87}, {"time": 3553, "pitch": 60, "duration": 10, "velocity": 89}, {"time": 3553, "pitch": 63, "duration": 10, "velocity": 93}, {"time": 3553, "pitch": 68, "duration": 10, "velocity": 91}, {"time": 3559, "pitch": 51, "duration": 18, "velocity": 67}, {"time": 3565, "pitch": 60, "duration": 7, "velocity": 88}, {"time": 3565, "pitch": 63, "duration": 11, "velocity": 91}, {"time": 3565, "pitch": 68, "duration": 6, "velocity": 88}, {"time": 3571, "pitch": 56, "duration": 4, "velocity": 82}, {"time": 3577, "pitch": 46, "duration": 44, "velocity": 81}, {"time": 3577, "pitch": 61, "duration": 11, "velocity": 73}, {"time": 3577, "pitch": 65, "duration": 7, "velocity": 87}, {"time": 3577, "pitch": 70, "duration": 6, "velocity": 92}, {"time": 3583, "pitch": 53, "duration": 37, "velocity": 73}, {"time": 3586, "pitch": 58, "duration": 4, "velocity": 88}, {"time": 3589, "pitch": 60, "duration": 4, "velocity": 113}, {"time": 3592, "pitch": 61, "duration": 3, "velocity": 98}, {"time": 3595, "pitch": 58, "duration": 7, "velocity": 89}, {"time": 3598, "pitch": 65, "duration": 3, "velocity": 88}, {"time": 3601, "pitch": 65, "duration": 5, "velocity": 86}, {"time": 3601, "pitch": 72, "duration": 5, "velocity": 104}, {"time": 3604, "pitch": 58, "duration": 7, "velocity": 89}, {"time": 3607, "pitch": 65, "duration": 2, "velocity": 71}, {"time": 3607, "pitch": 70, "duration": 2, "velocity": 89}, {"time": 3610, "pitch": 65, "duration": 11, "velocity": 91}, {"time": 3610, "pitch": 73, "duration": 10, "velocity": 113}, {"time": 3613, "pitch": 58, "duration": 6, "velocity": 90}, {"time": 3619, "pitch": 72, "duration": 6, "velocity": 113}, {"time": 3625, "pitch": 42, "duration": 19, "velocity": 86}, {"time": 3625, "pitch": 61, "duration": 12, "velocity": 89}, {"time": 3625, "pitch": 70, "duration": 5, "velocity": 104}, {"time": 3631, "pitch": 49, "duration": 19, "velocity": 73}, {"time": 3634, "pitch": 54, "duration": 11, "velocity": 85}, {"time": 3637, "pitch": 58, "duration": 7, "velocity": 102}, {"time": 3637, "pitch": 66, "duration": 7, "velocity": 86}, {"time": 3643, "pitch": 61, "duration": 6, "velocity": 86}, {"time": 3649, "pitch": 44, "duration": 19, "velocity": 83}, {"time": 3649, "pitch": 60, "duration": 9, "velocity": 88}, {"time": 3649, "pitch": 63, "duration": 9, "velocity": 91}, {"time": 3649, "pitch": 68, "duration": 8, "velocity": 87}, {"time": 3655, "pitch": 51, "duration": 16, "velocity": 67}, {"time": 3658, "pitch": 56, "duration": 5, "velocity": 84}, {"time": 3661, "pitch": 60, "duration": 8, "velocity": 93}, {"time": 3661, "pitch": 68, "duration": 9, "velocity": 91}, {"time": 3667, "pitch": 56, "duration": 3, "velocity": 82}, {"time": 3673, "pitch": 46, "duration": 44, "velocity": 91}, {"time": 3679, "pitch": 53, "duration": 37, "velocity": 81}, {"time": 3682, "pitch": 58, "duration": 12, "velocity": 87}, {"time": 3685, "pitch": 60, "duration": 3, "velocity": 88}, {"time": 3688, "pitch": 61, "duration": 1, "velocity": 98}, {"time": 3691, "pitch": 65, "duration": 3, "velocity": 98}, {"time": 3694, "pitch": 70, "duration": 4, "velocity": 102}, {"time": 3697, "pitch": 72, "duration": 2, "velocity": 91}, {"time": 3700, "pitch": 58, "duration": 9, "velocity": 81}, {"time": 3700, "pitch": 73, "duration": 2, "velocity": 107}, {"time": 3703, "pitch": 77, "duration": 5, "velocity": 104}, {"time": 3706, "pitch": 82, "duration": 2, "velocity": 98}, {"time": 3709, "pitch": 82, "duration": 1, "velocity": 82}, {"time": 3709, "pitch": 84, "duration": 5, "velocity": 114}, {"time": 3712, "pitch": 58, "duration": 3, "velocity": 88}, {"time": 3715, "pitch": 77, "duration": 5, "velocity": 88}, {"time": 3715, "pitch": 85, "duration": 5, "velocity": 114}, {"time": 3721, "pitch": 42, "duration": 21, "velocity": 89}, {"time": 3721, "pitch": 85, "duration": 3, "velocity": 108}, {"time": 3727, "pitch": 49, "duration": 19, "velocity": 85}, {"time": 3730, "pitch": 54, "duration": 5, "velocity": 85}, {"time": 3733, "pitch": 58, "duration": 9, "velocity": 88}, {"time": 3733, "pitch": 61, "duration": 12, "velocity": 92}, {"time": 3733, "pitch": 66, "duration": 9, "velocity": 90}, {"time": 3739, "pitch": 54, "duration": 4, "velocity": 82}, {"time": 3745, "pitch": 44, "duration": 19, "velocity": 87}, {"time": 3745, "pitch": 60, "duration": 9, "velocity": 93}, {"time": 3745, "pitch": 63, "duration": 7, "velocity": 100}, {"time": 3745, "pitch": 68, "duration": 9, "velocity": 94}, {"time": 3751, "pitch": 51, "duration": 19, "velocity": 77}, {"time": 3757, "pitch": 60, "duration": 8, "velocity": 93}, {"time": 3757, "pitch": 63, "duration": 11, "velocity": 110}, {"time": 3757, "pitch": 68, "duration": 8, "velocity": 91}, {"time": 3763, "pitch": 56, "duration": 6, "velocity": 82}, {"time": 3769, "pitch": 46, "duration": 42, "velocity": 83}, {"time": 3769, "pitch": 61, "duration": 12, "velocity": 90}, {"time": 3769, "pitch": 65, "duration": 8, "velocity": 102}, {"time": 3769, "pitch": 70, "duration": 8, "velocity": 93}, {"time": 3775, "pitch": 53, "duration": 34, "velocity": 74}, {"time": 3781, "pitch": 60, "duration": 6, "velocity": 93}, {"time": 3781, "pitch": 65, "duration": 7, "velocity": 91}, {"time": 3787, "pitch": 58, "duration": 7, "velocity": 88}, {"time": 3793, "pitch": 61, "duration": 8, "velocity": 93}, {"time": 3793, "pitch": 70, "duration": 7, "velocity": 98}, {"time": 3799, "pitch": 58, "duration": 8, "velocity": 86}, {"time": 3805, "pitch": 61, "duration": 7, "velocity": 110}, {"time": 3805, "pitch": 70, "duration": 7, "velocity": 107}, {"time": 3811, "pitch": 65, "duration": 5, "velocity": 87}, {"time": 3817, "pitch": 42, "duration": 19, "velocity": 87}, {"time": 3817, "pitch": 61, "duration": 11, "velocity": 91}, {"time": 3817, "pitch": 66, "duration": 7, "velocity": 102}, {"time": 3823, "pitch": 49, "duration": 8, "velocity": 77}, {"time": 3829, "pitch": 54, "duration": 8, "velocity": 86}, {"time": 3829, "pitch": 58, "duration": 7, "velocity": 92}, {"time": 3829, "pitch": 61, "duration": 12, "velocity": 84}, {"time": 3829, "pitch": 66, "duration": 7, "velocity": 88}, {"time": 3835, "pitch": 49, "duration": 6, "velocity": 73}, {"time": 3838, "pitch": 60, "duration": 9, "velocity": 80}, {"time": 3841, "pitch": 44, "duration": 20, "velocity": 84}, {"time": 3841, "pitch": 63, "duration": 8, "velocity": 85}, {"time": 3841, "pitch": 68, "duration": 7, "velocity": 93}, {"time": 3847, "pitch": 51, "duration": 19, "velocity": 75}, {"time": 3853, "pitch": 56, "duration": 7, "velocity": 78}, {"time": 3853, "pitch": 60, "duration": 6, "velocity": 91}, {"time": 3853, "pitch": 68, "duration": 7, "velocity": 88}, {"time": 3862, "pitch": 61, "duration": 13, "velocity": 75}, {"time": 3862, "pitch": 65, "duration": 3, "velocity": 81}, {"time": 3865, "pitch": 46, "duration": 59, "velocity": 77}, {"time": 3865, "pitch": 70, "duration": 7, "velocity": 89}, {"time": 3871, "pitch": 53, "duration": 53, "velocity": 69}, {"time": 3874, "pitch": 58, "duration": 13, "velocity": 83}, {"time": 3877, "pitch": 60, "duration": 3, "velocity": 88}, {"time": 3880, "pitch": 61, "duration": 1, "velocity": 94}, {"time": 3883, "pitch": 65, "duration": 5, "velocity": 94}, {"time": 3886, "pitch": 70, "duration": 3, "velocity": 92}, {"time": 3889, "pitch": 58, "duration": 2, "velocity": 67}, {"time": 3889, "pitch": 65, "duration": 5, "velocity": 88}, {"time": 3889, "pitch": 73, "duration": 6, "velocity": 110}, {"time": 3892, "pitch": 58, "duration": 7, "velocity": 81}, {"time": 3895, "pitch": 65, "duration": 3, "velocity": 81}, {"time": 3895, "pitch": 72, "duration": 2, "velocity": 89}, {"time": 3898, "pitch": 65, "duration": 26, "velocity": 80}, {"time": 3898, "pitch": 70, "duration": 14, "velocity": 96}, {"time": 3910, "pitch": 61, "duration": 12, "velocity": 66}, {"time": 3913, "pitch": 42, "duration": 11, "velocity": 88}, {"time": 3913, "pitch": 77, "duration": 2, "velocity": 117}, {"time": 3916, "pitch": 68, "duration": 2, "velocity": 88}, {"time": 3919, "pitch": 49, "duration": 6, "velocity": 68}, {"time": 3919, "pitch": 75, "duration": 2, "velocity": 92}, {"time": 3922, "pitch": 77, "duration": 3, "velocity": 87}, {"time": 3925, "pitch": 54, "duration": 2, "velocity": 78}, {"time": 3925, "pitch": 80, "duration": 4, "velocity": 100}, {"time": 3931, "pitch": 75, "duration": 2, "velocity": 91}, {"time": 3934, "pitch": 77, "duration": 2, "velocity": 84}, {"time": 3937, "pitch": 44, "duration": 20, "velocity": 84}, {"time": 3937, "pitch": 82, "duration": 3, "velocity": 102}, {"time": 3937, "pitch": 84, "duration": 2, "velocity": 104}, {"time": 3940, "pitch": 70, "duration": 2, "velocity": 89}, {"time": 3943, "pitch": 51, "duration": 17, "velocity": 70}, {"time": 3943, "pitch": 75, "duration": 2, "velocity": 88}, {"time": 3946, "pitch": 77, "duration": 2, "velocity": 82}, {"time": 3949, "pitch": 82, "duration": 3, "velocity": 100}, {"time": 3949, "pitch": 84, "duration": 2, "velocity": 100}, {"time": 3952, "pitch": 70, "duration": 2, "velocity": 98}, {"time": 3955, "pitch": 56, "duration": 3, "velocity": 74}, {"time": 3955, "pitch": 75, "duration": 2, "velocity": 89}, {"time": 3958, "pitch": 77, "duration": 1, "velocity": 90}, {"time": 3961, "pitch": 46, "duration": 39, "velocity": 82}, {"time": 3961, "pitch": 84, "duration": 2, "velocity": 117}, {"time": 3964, "pitch": 70, "duration": 1, "velocity": 73}, {"time": 3967, "pitch": 53, "duration": 32, "velocity": 66}, {"time": 3967, "pitch": 75, "duration": 2, "velocity": 87}, {"time": 3970, "pitch": 70, "duration": 2, "velocity": 92}, {"time": 3973, "pitch": 77, "duration": 3, "velocity": 117}, {"time": 3976, "pitch": 58, "duration": 6, "velocity": 87}, {"time": 3976, "pitch": 70, "duration": 2, "velocity": 78}, {"time": 3979, "pitch": 75, "duration": 2, "velocity": 107}, {"time": 3982, "pitch": 70, "duration": 2, "velocity": 96}, {"time": 3985, "pitch": 82, "duration": 1, "velocity": 116}, {"time": 3988, "pitch": 58, "duration": 4, "velocity": 70}, {"time": 3988, "pitch": 70, "duration": 2, "velocity": 107}, {"time": 3991, "pitch": 75, "duration": 2, "velocity": 108}, {"time": 3994, "pitch": 70, "duration": 1, "velocity": 98}, {"time": 3997, "pitch": 58, "duration": 1, "velocity": 81}, {"time": 3997, "pitch": 80, "duration": 6, "velocity": 113}, {"time": 4000, "pitch": 70, "duration": 3, "velocity": 94}, {"time": 4003, "pitch": 75, "duration": 2, "velocity": 100}, {"time": 4006, "pitch": 77, "duration": 1, "velocity": 89}, {"time": 4009, "pitch": 42, "duration": 19, "velocity": 91}, {"time": 4009, "pitch": 77, "duration": 3, "velocity": 117}, {"time": 4012, "pitch": 70, "duration": 2, "velocity": 88}, {"time": 4015, "pitch": 49, "duration": 17, "velocity": 82}, {"time": 4015, "pitch": 75, "duration": 2, "velocity": 94}, {"time": 4018, "pitch": 77, "duration": 2, "velocity": 87}, {"time": 4021, "pitch": 54, "duration": 9, "velocity": 85}, {"time": 4021, "pitch": 80, "duration": 4, "velocity": 107}, {"time": 4024, "pitch": 70, "duration": 2, "velocity": 107}, {"time": 4027, "pitch": 75, "duration": 3, "velocity": 104}, {"time": 4030, "pitch": 70, "duration": 2, "velocity": 104}, {"time": 4033, "pitch": 44, "duration": 19, "velocity": 86}, {"time": 4033, "pitch": 82, "duration": 3, "velocity": 116}, {"time": 4036, "pitch": 70, "duration": 2, "velocity": 89}, {"time": 4039, "pitch": 51, "duration": 18, "velocity": 77}, {"time": 4039, "pitch": 75, "duration": 3, "velocity": 107}, {"time": 4042, "pitch": 70, "duration": 2, "velocity": 98}, {"time": 4045, "pitch": 56, "duration": 9, "velocity": 83}, {"time": 4045, "pitch": 77, "duration": 3, "velocity": 116}, {"time": 4048, "pitch": 70, "duration": 3, "velocity": 100}, {"time": 4051, "pitch": 75, "duration": 2, "velocity": 94}, {"time": 4054, "pitch": 70, "duration": 3, "velocity": 104}, {"time": 4057, "pitch": 46, "duration": 42, "velocity": 86}, {"time": 4057, "pitch": 84, "duration": 3, "velocity": 116}, {"time": 4060, "pitch": 70, "duration": 2, "velocity": 70}, {"time": 4063, "pitch": 53, "duration": 34, "velocity": 69}, {"time": 4063, "pitch": 75, "duration": 3, "velocity": 90}, {"time": 4066, "pitch": 70, "duration": 2, "velocity": 88}, {"time": 4069, "pitch": 82, "duration": 3, "velocity": 113}, {"time": 4072, "pitch": 58, "duration": 10, "velocity": 48}, {"time": 4072, "pitch": 70, "duration": 3, "velocity": 84}, {"time": 4075, "pitch": 75, "duration": 3, "velocity": 94}, {"time": 4078, "pitch": 70, "duration": 2, "velocity": 91}, {"time": 4081, "pitch": 77, "duration": 4, "velocity": 113}, {"time": 4084, "pitch": 58, "duration": 12, "velocity": 73}, {"time": 4084, "pitch": 70, "duration": 3, "velocity": 91}, {"time": 4087, "pitch": 75, "duration": 3, "velocity": 88}, {"time": 4090, "pitch": 70, "duration": 3, "velocity": 91}, {"time": 4093, "pitch": 73, "duration": 3, "velocity": 113}, {"time": 4096, "pitch": 70, "duration": 2, "velocity": 89}, {"time": 4099, "pitch": 75, "duration": 3, "velocity": 110}, {"time": 4102, "pitch": 70, "duration": 2, "velocity": 96}, {"time": 4105, "pitch": 42, "duration": 20, "velocity": 89}, {"time": 4105, "pitch": 77, "duration": 3, "velocity": 119}, {"time": 4108, "pitch": 70, "duration": 3, "velocity": 98}, {"time": 4111, "pitch": 49, "duration": 19, "velocity": 80}, {"time": 4111, "pitch": 75, "duration": 3, "velocity": 94}, {"time": 4114, "pitch": 70, "duration": 2, "velocity": 98}, {"time": 4117, "pitch": 54, "duration": 10, "velocity": 87}, {"time": 4117, "pitch": 80, "duration": 1, "velocity": 100}, {"time": 4117, "pitch": 82, "duration": 3, "velocity": 107}, {"time": 4120, "pitch": 70, "duration": 3, "velocity": 84}, {"time": 4123, "pitch": 75, "duration": 3, "velocity": 94}, {"time": 4126, "pitch": 70, "duration": 3, "velocity": 91}, {"time": 4129, "pitch": 44, "duration": 21, "velocity": 86}, {"time": 4129, "pitch": 80, "duration": 3, "velocity": 114}, {"time": 4132, "pitch": 70, "duration": 2, "velocity": 104}, {"time": 4135, "pitch": 51, "duration": 19, "velocity": 75}, {"time": 4135, "pitch": 75, "duration": 3, "velocity": 89}, {"time": 4138, "pitch": 70, "duration": 2, "velocity": 92}, {"time": 4141, "pitch": 56, "duration": 11, "velocity": 84}, {"time": 4141, "pitch": 84, "duration": 3, "velocity": 113}, {"time": 4144, "pitch": 70, "duration": 2, "velocity": 87}, {"time": 4147, "pitch": 75, "duration": 3, "velocity": 86}, {"time": 4150, "pitch": 70, "duration": 2, "velocity": 88}, {"time": 4153, "pitch": 46, "duration": 42, "velocity": 81}, {"time": 4153, "pitch": 82, "duration": 3, "velocity": 113}, {"time": 4156, "pitch": 70, "duration": 2, "velocity": 93}, {"time": 4159, "pitch": 53, "duration": 34, "velocity": 77}, {"time": 4159, "pitch": 75, "duration": 3, "velocity": 89}, {"time": 4162, "pitch": 70, "duration": 3, "velocity": 91}, {"time": 4165, "pitch": 58, "duration": 12, "velocity": 82}, {"time": 4165, "pitch": 77, "duration": 3, "velocity": 114}, {"time": 4168, "pitch": 70, "duration": 3, "velocity": 92}, {"time": 4171, "pitch": 75, "duration": 3, "velocity": 93}, {"time": 4174, "pitch": 70, "duration": 2, "velocity": 88}, {"time": 4177, "pitch": 70, "duration": 4, "velocity": 94}, {"time": 4177, "pitch": 77, "duration": 4, "velocity": 110}, {"time": 4180, "pitch": 58, "duration": 7, "velocity": 77}, {"time": 4183, "pitch": 70, "duration": 1, "velocity": 82}, {"time": 4183, "pitch": 75, "duration": 2, "velocity": 88}, {"time": 4186, "pitch": 70, "duration": 4, "velocity": 104}, {"time": 4186, "pitch": 77, "duration": 4, "velocity": 116}, {"time": 4189, "pitch": 58, "duration": 3, "velocity": 90}, {"time": 4192, "pitch": 70, "duration": 4, "velocity": 90}, {"time": 4195, "pitch": 75, "duration": 3, "velocity": 89}, {"time": 4198, "pitch": 70, "duration": 2, "velocity": 100}, {"time": 4201, "pitch": 42, "duration": 8, "velocity": 88}, {"time": 4201, "pitch": 75, "duration": 6, "velocity": 110}, {"time": 4201, "pitch": 42, "duration": 8, "velocity": 87}, {"time": 4207, "pitch": 49, "duration": 15, "velocity": 68}, {"time": 4207, "pitch": 77, "duration": 7, "velocity": 102}, {"time": 4214, "pitch": 54, "duration": 8, "velocity": 70}, {"time": 4214, "pitch": 70, "duration": 12, "velocity": 98}, {"time": 4226, "pitch": 75, "duration": 6, "velocity": 107}, {"time": 4226, "pitch": 44, "duration": 33, "velocity": 78}, {"time": 4233, "pitch": 77, "duration": 7, "velocity": 89}, {"time": 4233, "pitch": 51, "duration": 26, "velocity": 71}, {"time": 4240, "pitch": 70, "duration": 12, "velocity": 96}, {"time": 4240, "pitch": 56, "duration": 18, "velocity": 78}, {"time": 4252, "pitch": 68, "duration": 25, "velocity": 77}, {"time": 4276, "pitch": 61, "duration": 8, "velocity": 66}, {"time": 4276, "pitch": 46, "duration": 73, "velocity": 70}, {"time": 4278, "pitch": 65, "duration": 2, "velocity": 42}, {"time": 4278, "pitch": 70, "duration": 6, "velocity": 81}, {"time": 4282, "pitch": 53, "duration": 66, "velocity": 67}, {"time": 4286, "pitch": 58, "duration": 62, "velocity": 77}, {"time": 4288, "pitch": 60, "duration": 2, "velocity": 82}, {"time": 4291, "pitch": 61, "duration": 1, "velocity": 88}, {"time": 4293, "pitch": 65, "duration": 2, "velocity": 87}, {"time": 4296, "pitch": 70, "duration": 1, "velocity": 80}, {"time": 4299, "pitch": 72, "duration": 1, "velocity": 86}, {"time": 4305, "pitch": 77, "duration": 1, "velocity": 88}, {"time": 4308, "pitch": 82, "duration": 2, "velocity": 83}, {"time": 4312, "pitch": 84, "duration": 3, "velocity": 81}, {"time": 4316, "pitch": 85, "duration": 1, "velocity": 85}, {"time": 4320, "pitch": 89, "duration": 2, "velocity": 88}, {"time": 4326, "pitch": 92, "duration": 1, "velocity": 88}, {"time": 4336, "pitch": 82, "duration": 3, "velocity": 70}, {"time": 4337, "pitch": 85, "duration": 2, "velocity": 75}, {"time": 4338, "pitch": 89, "duration": 2, "velocity": 77}, {"time": 4339, "pitch": 94, "duration": 1, "velocity": 92}], "annotations": [{"time": 122, "annotation": {"number": 64, "value": 0}, "group": "control_change"}, {"time": 123, "annotation": {"number": 64, "value": 74}, "group": "control_change"}, {"time": 123, "annotation": {"number": 64, "value": 38}, "group": "control_change"}, {"time": 123, "annotation": {"number": 64, "value": 0}, "group": "control_change"}, {"time": 125, "annotation": {"number": 64, "value": 127}, "group": "control_change"}, {"time": 153, "annotation": {"number": 64, "value": 38}, "group": "control_change"}, {"time": 153, "annotation": {"number": 64, "value": 0}, "group": "control_change"}, {"time": 180, "annotation": {"number": 64, "value": 0}, "group": "control_change"}, {"time": 180, "annotation": {"number": 64, "value": 74}, "group": "control_change"}, {"time": 180, "annotation": {"number": 64, "value": 38}, "group": "control_change"}, {"time": 182, "annotation": {"number": 64, "value": 127}, "group": "control_change"}, {"time": 210, "annotation": {"number": 64, "value": 38}, "group": "control_change"}, {"time": 211, "annotation": {"number": 64, "value": 0}, "group": "control_change"}, {"time": 433, "annotation": {"number": 64, "value": 127}, "group": "control_change"}, {"time": 476, "annotation": {"number": 64, "value": 74}, "group": "control_change"}, {"time": 477, "annotation": {"number": 64, "value": 0}, "group": "control_change"}, {"time": 479, "annotation": {"number": 64, "value": 74}, "group": "control_change"}, {"time": 479, "annotation": {"number": 64, "value": 127}, "group": "control_change"}, {"time": 504, "annotation": {"number": 64, "value": 38}, "group": "control_change"}, {"time": 504, "annotation": {"number": 64, "value": 0}, "group": "control_change"}, {"time": 506, "annotation": {"number": 64, "value": 127}, "group": "control_change"}, {"time": 527, "annotation": {"number": 64, "value": 38}, "group": "control_change"}, {"time": 527, "annotation": {"number": 64, "value": 0}, "group": "control_change"}, {"time": 529, "annotation": {"number": 64, "value": 127}, "group": "control_change"}, {"time": 551, "annotation": {"number": 64, "value": 38}, "group": "control_change"}, {"time": 551, "annotation": {"number": 64, "value": 0}, "group": "control_change"}, {"time": 554, "annotation": {"number": 64, "value": 127}, "group": "control_change"}, {"time": 576, "annotation": {"number": 64, "value": 74}, "group": "control_change"}, {"time": 576, "annotation": {"number": 64, "value": 0}, "group": "control_change"}, {"time": 578, "annotation": {"number": 64, "value": 127}, "group": "control_change"}, {"time": 600, "annotation": {"number": 64, "value": 74}, "group": "control_change"}, {"time": 600, "annotation": {"number": 64, "value": 0}, "group": "control_change"}, {"time": 603, "annotation": {"number": 64, "value": 127}, "group": "control_change"}, {"time": 624, "annotation": {"number": 64, "value": 38}, "group": "control_change"}, {"time": 624, "annotation": {"number": 64, "value": 0}, "group": "control_change"}, {"time": 626, "annotation": {"number": 64, "value": 127}, "group": "control_change"}, {"time": 673, "annotation": {"number": 64, "value": 127}, "group": "control_change"}, {"time": 720, "annotation": {"number": 64, "value": 38}, "group": "control_change"}, {"time": 720, "annotation": {"number": 64, "value": 0}, "group": "control_change"}, {"time": 722, "annotation": {"number": 64, "value": 127}, "group": "control_change"}, {"time": 768, "annotation": {"number": 64, "value": 74}, "group": "control_change"}, {"time": 768, "annotation": {"number": 64, "value": 0}, "group": "control_change"}, {"time": 770, "annotation": {"number": 64, "value": 127}, "group": "control_change"}, {"time": 814, "annotation": {"number": 64, "value": 0}, "group": "control_change"}, {"time": 817, "annotation": {"number": 64, "value": 127}, "group": "control_change"}, {"time": 863, "annotation": {"number": 64, "value": 74}, "group": "control_change"}, {"time": 863, "annotation": {"number": 64, "value": 0}, "group": "control_change"}, {"time": 866, "annotation": {"number": 64, "value": 127}, "group": "control_change"}, {"time": 910, "annotation": {"number": 64, "value": 0}, "group": "control_change"}, {"time": 913, "annotation": {"number": 64, "value": 127}, "group": "control_change"}, {"time": 957, "annotation": {"number": 64, "value": 38}, "group": "control_change"}, {"time": 958, "annotation": {"number": 64, "value": 0}, "group": "control_change"}, {"time": 961, "annotation": {"number": 64, "value": 127}, "group": "control_change"}, {"time": 983, "annotation": {"number": 64, "value": 74}, "group": "control_change"}, {"time": 983, "annotation": {"number": 64, "value": 0}, "group": "control_change"}, {"time": 985, "annotation": {"number": 64, "value": 127}, "group": "control_change"}, {"time": 1007, "annotation": {"number": 64, "value": 0}, "group": "control_change"}, {"time": 1008, "annotation": {"number": 64, "value": 127}, "group": "control_change"}, {"time": 1055, "annotation": {"number": 64, "value": 74}, "group": "control_change"}, {"time": 1055, "annotation": {"number": 64, "value": 0}, "group": "control_change"}, {"time": 1058, "annotation": {"number": 64, "value": 127}, "group": "control_change"}, {"time": 1080, "annotation": {"number": 64, "value": 38}, "group": "control_change"}, {"time": 1080, "annotation": {"number": 64, "value": 0}, "group": "control_change"}, {"time": 1082, "annotation": {"number": 64, "value": 127}, "group": "control_change"}, {"time": 1083, "annotation": {"number": 64, "value": 0}, "group": "control_change"}, {"time": 1103, "annotation": {"number": 64, "value": 38}, "group": "control_change"}, {"time": 1103, "annotation": {"number": 64, "value": 0}, "group": "control_change"}, {"time": 1106, "annotation": {"number": 64, "value": 127}, "group": "control_change"}, {"time": 1150, "annotation": {"number": 64, "value": 74}, "group": "control_change"}, {"time": 1150, "annotation": {"number": 64, "value": 0}, "group": "control_change"}, {"time": 1153, "annotation": {"number": 64, "value": 127}, "group": "control_change"}, {"time": 1175, "annotation": {"number": 64, "value": 38}, "group": "control_change"}, {"time": 1175, "annotation": {"number": 64, "value": 0}, "group": "control_change"}, {"time": 1177, "annotation": {"number": 64, "value": 127}, "group": "control_change"}, {"time": 1199, "annotation": {"number": 64, "value": 74}, "group": "control_change"}, {"time": 1199, "annotation": {"number": 64, "value": 0}, "group": "control_change"}, {"time": 1202, "annotation": {"number": 64, "value": 38}, "group": "control_change"}, {"time": 1202, "annotation": {"number": 64, "value": 127}, "group": "control_change"}, {"time": 1248, "annotation": {"number": 64, "value": 0}, "group": "control_change"}, {"time": 1250, "annotation": {"number": 64, "value": 38}, "group": "control_change"}, {"time": 1250, "annotation": {"number": 64, "value": 74}, "group": "control_change"}, {"time": 1250, "annotation": {"number": 64, "value": 127}, "group": "control_change"}, {"time": 1271, "annotation": {"number": 64, "value": 0}, "group": "control_change"}, {"time": 1272, "annotation": {"number": 64, "value": 38}, "group": "control_change"}, {"time": 1272, "annotation": {"number": 64, "value": 0}, "group": "control_change"}, {"time": 1274, "annotation": {"number": 64, "value": 127}, "group": "control_change"}, {"time": 1274, "annotation": {"number": 64, "value": 74}, "group": "control_change"}, {"time": 1288, "annotation": {"number": 64, "value": 74}, "group": "control_change"}, {"time": 1288, "annotation": {"number": 64, "value": 38}, "group": "control_change"}, {"time": 1288, "annotation": {"number": 64, "value": 0}, "group": "control_change"}, {"time": 1294, "annotation": {"number": 64, "value": 0}, "group": "control_change"}, {"time": 1297, "annotation": {"number": 64, "value": 127}, "group": "control_change"}, {"time": 1318, "annotation": {"number": 64, "value": 74}, "group": "control_change"}, {"time": 1318, "annotation": {"number": 64, "value": 0}, "group": "control_change"}, {"time": 1321, "annotation": {"number": 64, "value": 127}, "group": "control_change"}, {"time": 1322, "annotation": {"number": 64, "value": 127}, "group": "control_change"}, {"time": 1346, "annotation": {"number": 64, "value": 38}, "group": "control_change"}, {"time": 1346, "annotation": {"number": 64, "value": 127}, "group": "control_change"}, {"time": 1346, "annotation": {"number": 64, "value": 0}, "group": "control_change"}, {"time": 1347, "annotation": {"number": 64, "value": 38}, "group": "control_change"}, {"time": 1347, "annotation": {"number": 64, "value": 0}, "group": "control_change"}, {"time": 1368, "annotation": {"number": 64, "value": 38}, "group": "control_change"}, {"time": 1368, "annotation": {"number": 64, "value": 0}, "group": "control_change"}, {"time": 1369, "annotation": {"number": 64, "value": 127}, "group": "control_change"}, {"time": 1392, "annotation": {"number": 64, "value": 38}, "group": "control_change"}, {"time": 1392, "annotation": {"number": 64, "value": 0}, "group": "control_change"}, {"time": 1395, "annotation": {"number": 64, "value": 127}, "group": "control_change"}, {"time": 1439, "annotation": {"number": 64, "value": 0}, "group": "control_change"}, {"time": 1442, "annotation": {"number": 64, "value": 127}, "group": "control_change"}, {"time": 1462, "annotation": {"number": 64, "value": 38}, "group": "control_change"}, {"time": 1462, "annotation": {"number": 64, "value": 0}, "group": "control_change"}, {"time": 1463, "annotation": {"number": 64, "value": 74}, "group": "control_change"}, {"time": 1463, "annotation": {"number": 64, "value": 0}, "group": "control_change"}, {"time": 1466, "annotation": {"number": 64, "value": 127}, "group": "control_change"}, {"time": 1487, "annotation": {"number": 64, "value": 0}, "group": "control_change"}, {"time": 1489, "annotation": {"number": 64, "value": 127}, "group": "control_change"}, {"time": 1490, "annotation": {"number": 64, "value": 127}, "group": "control_change"}, {"time": 1508, "annotation": {"number": 64, "value": 0}, "group": "control_change"}, {"time": 1535, "annotation": {"number": 64, "value": 0}, "group": "control_change"}, {"time": 1538, "annotation": {"number": 64, "value": 127}, "group": "control_change"}, {"time": 1558, "annotation": {"number": 64, "value": 38}, "group": "control_change"}, {"time": 1558, "annotation": {"number": 64, "value": 0}, "group": "control_change"}, {"time": 1562, "annotation": {"number": 64, "value": 127}, "group": "control_change"}, {"time": 1583, "annotation": {"number": 64, "value": 0}, "group": "control_change"}, {"time": 1586, "annotation": {"number": 64, "value": 127}, "group": "control_change"}, {"time": 1601, "annotation": {"number": 64, "value": 74}, "group": "control_change"}, {"time": 1601, "annotation": {"number": 64, "value": 0}, "group": "control_change"}, {"time": 1632, "annotation": {"number": 64, "value": 0}, "group": "control_change"}, {"time": 1634, "annotation": {"number": 64, "value": 127}, "group": "control_change"}, {"time": 1656, "annotation": {"number": 64, "value": 74}, "group": "control_change"}, {"time": 1656, "annotation": {"number": 64, "value": 0}, "group": "control_change"}, {"time": 1659, "annotation": {"number": 64, "value": 127}, "group": "control_change"}, {"time": 1680, "annotation": {"number": 64, "value": 74}, "group": "control_change"}, {"time": 1680, "annotation": {"number": 64, "value": 0}, "group": "control_change"}, {"time": 1682, "annotation": {"number": 64, "value": 127}, "group": "control_change"}, {"time": 1729, "annotation": {"number": 64, "value": 74}, "group": "control_change"}, {"time": 1729, "annotation": {"number": 64, "value": 0}, "group": "control_change"}, {"time": 1731, "annotation": {"number": 64, "value": 127}, "group": "control_change"}, {"time": 1775, "annotation": {"number": 64, "value": 74}, "group": "control_change"}, {"time": 1775, "annotation": {"number": 64, "value": 0}, "group": "control_change"}, {"time": 1778, "annotation": {"number": 64, "value": 127}, "group": "control_change"}, {"time": 1822, "annotation": {"number": 64, "value": 74}, "group": "control_change"}, {"time": 1822, "annotation": {"number": 64, "value": 0}, "group": "control_change"}, {"time": 1824, "annotation": {"number": 64, "value": 74}, "group": "control_change"}, {"time": 1824, "annotation": {"number": 64, "value": 127}, "group": "control_change"}, {"time": 1824, "annotation": {"number": 64, "value": 38}, "group": "control_change"}, {"time": 1825, "annotation": {"number": 64, "value": 0}, "group": "control_change"}, {"time": 1848, "annotation": {"number": 64, "value": 38}, "group": "control_change"}, {"time": 1848, "annotation": {"number": 64, "value": 0}, "group": "control_change"}, {"time": 1850, "annotation": {"number": 64, "value": 127}, "group": "control_change"}, {"time": 1871, "annotation": {"number": 64, "value": 38}, "group": "control_change"}, {"time": 1871, "annotation": {"number": 64, "value": 0}, "group": "control_change"}, {"time": 1873, "annotation": {"number": 64, "value": 127}, "group": "control_change"}, {"time": 1895, "annotation": {"number": 64, "value": 38}, "group": "control_change"}, {"time": 1895, "annotation": {"number": 64, "value": 0}, "group": "control_change"}, {"time": 1898, "annotation": {"number": 64, "value": 127}, "group": "control_change"}, {"time": 1920, "annotation": {"number": 64, "value": 74}, "group": "control_change"}, {"time": 1920, "annotation": {"number": 64, "value": 0}, "group": "control_change"}, {"time": 1922, "annotation": {"number": 64, "value": 127}, "group": "control_change"}, {"time": 1944, "annotation": {"number": 64, "value": 74}, "group": "control_change"}, {"time": 1944, "annotation": {"number": 64, "value": 0}, "group": "control_change"}, {"time": 1947, "annotation": {"number": 64, "value": 127}, "group": "control_change"}, {"time": 1968, "annotation": {"number": 64, "value": 38}, "group": "control_change"}, {"time": 1968, "annotation": {"number": 64, "value": 0}, "group": "control_change"}, {"time": 1970, "annotation": {"number": 64, "value": 127}, "group": "control_change"}, {"time": 2016, "annotation": {"number": 64, "value": 38}, "group": "control_change"}, {"time": 2016, "annotation": {"number": 64, "value": 0}, "group": "control_change"}, {"time": 2017, "annotation": {"number": 64, "value": 127}, "group": "control_change"}, {"time": 2064, "annotation": {"number": 64, "value": 38}, "group": "control_change"}, {"time": 2064, "annotation": {"number": 64, "value": 0}, "group": "control_change"}, {"time": 2066, "annotation": {"number": 64, "value": 127}, "group": "control_change"}, {"time": 2112, "annotation": {"number": 64, "value": 74}, "group": "control_change"}, {"time": 2112, "annotation": {"number": 64, "value": 0}, "group": "control_change"}, {"time": 2114, "annotation": {"number": 64, "value": 127}, "group": "control_change"}, {"time": 2158, "annotation": {"number": 64, "value": 0}, "group": "control_change"}, {"time": 2161, "annotation": {"number": 64, "value": 127}, "group": "control_change"}, {"time": 2207, "annotation": {"number": 64, "value": 74}, "group": "control_change"}, {"time": 2207, "annotation": {"number": 64, "value": 0}, "group": "control_change"}, {"time": 2210, "annotation": {"number": 64, "value": 127}, "group": "control_change"}, {"time": 2254, "annotation": {"number": 64, "value": 0}, "group": "control_change"}, {"time": 2257, "annotation": {"number": 64, "value": 127}, "group": "control_change"}, {"time": 2301, "annotation": {"number": 64, "value": 38}, "group": "control_change"}, {"time": 2302, "annotation": {"number": 64, "value": 0}, "group": "control_change"}, {"time": 2305, "annotation": {"number": 64, "value": 127}, "group": "control_change"}, {"time": 2327, "annotation": {"number": 64, "value": 74}, "group": "control_change"}, {"time": 2327, "annotation": {"number": 64, "value": 0}, "group": "control_change"}, {"time": 2329, "annotation": {"number": 64, "value": 127}, "group": "control_change"}, {"time": 2351, "annotation": {"number": 64, "value": 0}, "group": "control_change"}, {"time": 2352, "annotation": {"number": 64, "value": 127}, "group": "control_change"}, {"time": 2399, "annotation": {"number": 64, "value": 74}, "group": "control_change"}, {"time": 2399, "annotation": {"number": 64, "value": 0}, "group": "control_change"}, {"time": 2402, "annotation": {"number": 64, "value": 127}, "group": "control_change"}, {"time": 2424, "annotation": {"number": 64, "value": 38}, "group": "control_change"}, {"time": 2424, "annotation": {"number": 64, "value": 0}, "group": "control_change"}, {"time": 2426, "annotation": {"number": 64, "value": 127}, "group": "control_change"}, {"time": 2427, "annotation": {"number": 64, "value": 0}, "group": "control_change"}, {"time": 2447, "annotation": {"number": 64, "value": 38}, "group": "control_change"}, {"time": 2447, "annotation": {"number": 64, "value": 0}, "group": "control_change"}, {"time": 2450, "annotation": {"number": 64, "value": 127}, "group": "control_change"}, {"time": 2494, "annotation": {"number": 64, "value": 74}, "group": "control_change"}, {"time": 2494, "annotation": {"number": 64, "value": 0}, "group": "control_change"}, {"time": 2497, "annotation": {"number": 64, "value": 127}, "group": "control_change"}, {"time": 2519, "annotation": {"number": 64, "value": 38}, "group": "control_change"}, {"time": 2519, "annotation": {"number": 64, "value": 0}, "group": "control_change"}, {"time": 2521, "annotation": {"number": 64, "value": 127}, "group": "control_change"}, {"time": 2543, "annotation": {"number": 64, "value": 74}, "group": "control_change"}, {"time": 2543, "annotation": {"number": 64, "value": 0}, "group": "control_change"}, {"time": 2546, "annotation": {"number": 64, "value": 38}, "group": "control_change"}, {"time": 2546, "annotation": {"number": 64, "value": 127}, "group": "control_change"}, {"time": 2592, "annotation": {"number": 64, "value": 0}, "group": "control_change"}, {"time": 2594, "annotation": {"number": 64, "value": 38}, "group": "control_change"}, {"time": 2594, "annotation": {"number": 64, "value": 74}, "group": "control_change"}, {"time": 2594, "annotation": {"number": 64, "value": 127}, "group": "control_change"}, {"time": 2615, "annotation": {"number": 64, "value": 0}, "group": "control_change"}, {"time": 2616, "annotation": {"number": 64, "value": 38}, "group": "control_change"}, {"time": 2616, "annotation": {"number": 64, "value": 0}, "group": "control_change"}, {"time": 2618, "annotation": {"number": 64, "value": 127}, "group": "control_change"}, {"time": 2618, "annotation": {"number": 64, "value": 74}, "group": "control_change"}, {"time": 2632, "annotation": {"number": 64, "value": 74}, "group": "control_change"}, {"time": 2632, "annotation": {"number": 64, "value": 38}, "group": "control_change"}, {"time": 2632, "annotation": {"number": 64, "value": 0}, "group": "control_change"}, {"time": 2638, "annotation": {"number": 64, "value": 0}, "group": "control_change"}, {"time": 2641, "annotation": {"number": 64, "value": 127}, "group": "control_change"}, {"time": 2662, "annotation": {"number": 64, "value": 74}, "group": "control_change"}, {"time": 2662, "annotation": {"number": 64, "value": 0}, "group": "control_change"}, {"time": 2665, "annotation": {"number": 64, "value": 127}, "group": "control_change"}, {"time": 2666, "annotation": {"number": 64, "value": 127}, "group": "control_change"}, {"time": 2690, "annotation": {"number": 64, "value": 38}, "group": "control_change"}, {"time": 2690, "annotation": {"number": 64, "value": 127}, "group": "control_change"}, {"time": 2690, "annotation": {"number": 64, "value": 0}, "group": "control_change"}, {"time": 2691, "annotation": {"number": 64, "value": 38}, "group": "control_change"}, {"time": 2691, "annotation": {"number": 64, "value": 0}, "group": "control_change"}, {"time": 2712, "annotation": {"number": 64, "value": 38}, "group": "control_change"}, {"time": 2712, "annotation": {"number": 64, "value": 0}, "group": "control_change"}, {"time": 2713, "annotation": {"number": 64, "value": 127}, "group": "control_change"}, {"time": 2736, "annotation": {"number": 64, "value": 38}, "group": "control_change"}, {"time": 2736, "annotation": {"number": 64, "value": 0}, "group": "control_change"}, {"time": 2739, "annotation": {"number": 64, "value": 127}, "group": "control_change"}, {"time": 2783, "annotation": {"number": 64, "value": 0}, "group": "control_change"}, {"time": 2786, "annotation": {"number": 64, "value": 127}, "group": "control_change"}, {"time": 2806, "annotation": {"number": 64, "value": 38}, "group": "control_change"}, {"time": 2806, "annotation": {"number": 64, "value": 0}, "group": "control_change"}, {"time": 2807, "annotation": {"number": 64, "value": 74}, "group": "control_change"}, {"time": 2807, "annotation": {"number": 64, "value": 0}, "group": "control_change"}, {"time": 2810, "annotation": {"number": 64, "value": 127}, "group": "control_change"}, {"time": 2831, "annotation": {"number": 64, "value": 0}, "group": "control_change"}, {"time": 2833, "annotation": {"number": 64, "value": 127}, "group": "control_change"}, {"time": 2834, "annotation": {"number": 64, "value": 127}, "group": "control_change"}, {"time": 2852, "annotation": {"number": 64, "value": 0}, "group": "control_change"}, {"time": 2879, "annotation": {"number": 64, "value": 0}, "group": "control_change"}, {"time": 2882, "annotation": {"number": 64, "value": 127}, "group": "control_change"}, {"time": 2902, "annotation": {"number": 64, "value": 38}, "group": "control_change"}, {"time": 2902, "annotation": {"number": 64, "value": 0}, "group": "control_change"}, {"time": 2906, "annotation": {"number": 64, "value": 127}, "group": "control_change"}, {"time": 2927, "annotation": {"number": 64, "value": 0}, "group": "control_change"}, {"time": 2930, "annotation": {"number": 64, "value": 127}, "group": "control_change"}, {"time": 2945, "annotation": {"number": 64, "value": 74}, "group": "control_change"}, {"time": 2945, "annotation": {"number": 64, "value": 0}, "group": "control_change"}, {"time": 2976, "annotation": {"number": 64, "value": 0}, "group": "control_change"}, {"time": 2978, "annotation": {"number": 64, "value": 127}, "group": "control_change"}, {"time": 3000, "annotation": {"number": 64, "value": 74}, "group": "control_change"}, {"time": 3000, "annotation": {"number": 64, "value": 0}, "group": "control_change"}, {"time": 3003, "annotation": {"number": 64, "value": 127}, "group": "control_change"}, {"time": 3024, "annotation": {"number": 64, "value": 74}, "group": "control_change"}, {"time": 3024, "annotation": {"number": 64, "value": 0}, "group": "control_change"}, {"time": 3026, "annotation": {"number": 64, "value": 127}, "group": "control_change"}, {"time": 3073, "annotation": {"number": 64, "value": 74}, "group": "control_change"}, {"time": 3073, "annotation": {"number": 64, "value": 0}, "group": "control_change"}, {"time": 3075, "annotation": {"number": 64, "value": 127}, "group": "control_change"}, {"time": 3119, "annotation": {"number": 64, "value": 74}, "group": "control_change"}, {"time": 3119, "annotation": {"number": 64, "value": 0}, "group": "control_change"}, {"time": 3122, "annotation": {"number": 64, "value": 127}, "group": "control_change"}, {"time": 3168, "annotation": {"number": 64, "value": 38}, "group": "control_change"}, {"time": 3169, "annotation": {"number": 64, "value": 0}, "group": "control_change"}, {"time": 3536, "annotation": {"number": 64, "value": 74}, "group": "control_change"}, {"time": 3536, "annotation": {"number": 64, "value": 127}, "group": "control_change"}, {"time": 3574, "annotation": {"number": 64, "value": 38}, "group": "control_change"}, {"time": 3574, "annotation": {"number": 64, "value": 0}, "group": "control_change"}, {"time": 3577, "annotation": {"number": 64, "value": 127}, "group": "control_change"}, {"time": 3577, "annotation": {"number": 64, "value": 38}, "group": "control_change"}, {"time": 3577, "annotation": {"number": 64, "value": 74}, "group": "control_change"}, {"time": 3743, "annotation": {"number": 64, "value": 0}, "group": "control_change"}, {"time": 3748, "annotation": {"number": 64, "value": 38}, "group": "control_change"}, {"time": 3748, "annotation": {"number": 64, "value": 0}, "group": "control_change"}, {"time": 3748, "annotation": {"number": 64, "value": 127}, "group": "control_change"}, {"time": 3766, "annotation": {"number": 64, "value": 74}, "group": "control_change"}, {"time": 3766, "annotation": {"number": 64, "value": 0}, "group": "control_change"}, {"time": 3769, "annotation": {"number": 64, "value": 127}, "group": "control_change"}, {"time": 3814, "annotation": {"number": 64, "value": 0}, "group": "control_change"}, {"time": 3819, "annotation": {"number": 64, "value": 127}, "group": "control_change"}, {"time": 3916, "annotation": {"number": 64, "value": 127}, "group": "control_change"}, {"time": 4005, "annotation": {"number": 64, "value": 38}, "group": "control_change"}, {"time": 4006, "annotation": {"number": 64, "value": 0}, "group": "control_change"}, {"time": 4106, "annotation": {"number": 64, "value": 38}, "group": "control_change"}, {"time": 4106, "annotation": {"number": 64, "value": 127}, "group": "control_change"}, {"time": 4126, "annotation": {"number": 64, "value": 0}, "group": "control_change"}, {"time": 4178, "annotation": {"number": 64, "value": 74}, "group": "control_change"}, {"time": 4178, "annotation": {"number": 64, "value": 127}, "group": "control_change"}, {"time": 4178, "annotation": {"number": 64, "value": 38}, "group": "control_change"}, {"time": 4179, "annotation": {"number": 64, "value": 0}, "group": "control_change"}, {"time": 4181, "annotation": {"number": 64, "value": 127}, "group": "control_change"}, {"time": 4198, "annotation": {"number": 64, "value": 38}, "group": "control_change"}, {"time": 4198, "annotation": {"number": 64, "value": 0}, "group": "control_change"}, {"time": 4202, "annotation": {"number": 64, "value": 127}, "group": "control_change"}, {"time": 4221, "annotation": {"number": 64, "value": 0}, "group": "control_change"}, {"time": 4228, "annotation": {"number": 64, "value": 74}, "group": "control_change"}, {"time": 4228, "annotation": {"number": 64, "value": 127}, "group": "control_change"}, {"time": 4235, "annotation": {"number": 64, "value": 0}, "group": "control_change"}, {"time": 4235, "annotation": {"number": 64, "value": 127}, "group": "control_change"}, {"time": 4235, "annotation": {"number": 64, "value": 38}, "group": "control_change"}, {"time": 4236, "annotation": {"number": 64, "value": 0}, "group": "control_change"}, {"time": 4236, "annotation": {"number": 64, "value": 127}, "group": "control_change"}, {"time": 4260, "annotation": {"number": 64, "value": 74}, "group": "control_change"}, {"time": 4260, "annotation": {"number": 64, "value": 0}, "group": "control_change"}, {"time": 4278, "annotation": {"number": 64, "value": 127}, "group": "control_change"}, {"time": 4352, "annotation": {"number": 64, "value": 0}, "group": "control_change"}, {"time": 4352, "annotation": {"number": 64, "value": 38}, "group": "control_change"}]}]}