{"metadata": {"schema_version": "0.2", "title": "None", "source_filename": "280.mid", "source_format": "midi"}, "resolution": 12, "tempos": [{"time": 0, "qpm": 85.00004250002125}, {"time": 175, "qpm": 87.00002175000543}, {"time": 273, "qpm": 83.0000650167176}, {"time": 451, "qpm": 88.00002346667293}, {"time": 583, "qpm": 82.00014760026568}, {"time": 680, "qpm": 90.00009000009}, {"time": 774, "qpm": 88.00002346667293}, {"time": 1159, "qpm": 85.00004250002125}, {"time": 1268, "qpm": 90.00009000009}, {"time": 1448, "qpm": 84.000084000084}, {"time": 1516, "qpm": 89.00004005001803}, {"time": 1556, "qpm": 95.00014250021376}, {"time": 1628, "qpm": 88.00002346667293}, {"time": 1747, "qpm": 83.0000650167176}, {"time": 1778, "qpm": 85.00004250002125}, {"time": 1820, "qpm": 89.00004005001803}, {"time": 1877, "qpm": 87.00002175000543}, {"time": 2108, "qpm": 89.00004005001803}, {"time": 2260, "qpm": 86.00005160003096}, {"time": 2385, "qpm": 88.00002346667293}, {"time": 2526, "qpm": 91.000091000091}, {"time": 2652, "qpm": 86.00005160003096}, {"time": 2815, "qpm": 85.00004250002125}, {"time": 2960, "qpm": 82.00014760026568}, {"time": 3007, "qpm": 99.000099000099}, {"time": 3051, "qpm": 93.000186000372}, {"time": 3063, "qpm": 88.00002346667293}, {"time": 3085, "qpm": 87.00002175000543}, {"time": 3132, "qpm": 92.00012880018032}, {"time": 3179, "qpm": 90.00009000009}, {"time": 3241, "qpm": 87.00002175000543}, {"time": 3390, "qpm": 89.00004005001803}, {"time": 3529, "qpm": 93.000186000372}, {"time": 3679, "qpm": 84.000084000084}, {"time": 3904, "qpm": 88.00002346667293}, {"time": 3967, "qpm": 90.00009000009}, {"time": 4138, "qpm": 87.00002175000543}, {"time": 4456, "qpm": 90.00009000009}, {"time": 4498, "qpm": 94.00012846684224}, {"time": 4572, "qpm": 85.00004250002125}], "time_signatures": [{"time": 0, "numerator": 4, "denominator": 4}], "tracks": [{"program": 4, "is_drum": false, "name": "MELODY", "notes": [{"time": 595, "pitch": 72, "duration": 12, "velocity": 107}, {"time": 607, "pitch": 70, "duration": 24, "velocity": 107}, {"time": 631, "pitch": 72, "duration": 6, "velocity": 110}, {"time": 637, "pitch": 75, "duration": 6, "velocity": 102}, {"time": 643, "pitch": 72, "duration": 12, "velocity": 104}, {"time": 655, "pitch": 70, "duration": 12, "velocity": 104}, {"time": 667, "pitch": 75, "duration": 6, "velocity": 110}, {"time": 673, "pitch": 77, "duration": 6, "velocity": 100}, {"time": 679, "pitch": 79, "duration": 18, "velocity": 113}, {"time": 697, "pitch": 77, "duration": 6, "velocity": 102}, {"time": 703, "pitch": 75, "duration": 6, "velocity": 107}, {"time": 709, "pitch": 72, "duration": 6, "velocity": 92}, {"time": 715, "pitch": 75, "duration": 24, "velocity": 107}, {"time": 739, "pitch": 72, "duration": 12, "velocity": 100}, {"time": 751, "pitch": 70, "duration": 24, "velocity": 98}, {"time": 775, "pitch": 72, "duration": 6, "velocity": 107}, {"time": 781, "pitch": 75, "duration": 6, "velocity": 94}, {"time": 787, "pitch": 77, "duration": 6, "velocity": 100}, {"time": 793, "pitch": 79, "duration": 7, "velocity": 102}, {"time": 799, "pitch": 77, "duration": 24, "velocity": 107}, {"time": 823, "pitch": 75, "duration": 6, "velocity": 91}, {"time": 829, "pitch": 77, "duration": 54, "velocity": 94}, {"time": 883, "pitch": 72, "duration": 12, "velocity": 110}, {"time": 895, "pitch": 70, "duration": 24, "velocity": 104}, {"time": 919, "pitch": 72, "duration": 6, "velocity": 104}, {"time": 925, "pitch": 75, "duration": 6, "velocity": 104}, {"time": 931, "pitch": 72, "duration": 12, "velocity": 104}, {"time": 943, "pitch": 70, "duration": 12, "velocity": 104}, {"time": 955, "pitch": 75, "duration": 6, "velocity": 92}, {"time": 961, "pitch": 77, "duration": 6, "velocity": 89}, {"time": 967, "pitch": 79, "duration": 18, "velocity": 100}, {"time": 985, "pitch": 77, "duration": 6, "velocity": 104}, {"time": 991, "pitch": 75, "duration": 6, "velocity": 98}, {"time": 997, "pitch": 72, "duration": 6, "velocity": 89}, {"time": 1003, "pitch": 75, "duration": 24, "velocity": 107}, {"time": 1027, "pitch": 72, "duration": 12, "velocity": 104}, {"time": 1039, "pitch": 70, "duration": 24, "velocity": 100}, {"time": 1063, "pitch": 72, "duration": 6, "velocity": 98}, {"time": 1069, "pitch": 75, "duration": 6, "velocity": 98}, {"time": 1075, "pitch": 77, "duration": 6, "velocity": 108}, {"time": 1081, "pitch": 79, "duration": 6, "velocity": 96}, {"time": 1087, "pitch": 77, "duration": 18, "velocity": 102}, {"time": 1105, "pitch": 75, "duration": 6, "velocity": 93}, {"time": 1111, "pitch": 75, "duration": 60, "velocity": 100}, {"time": 1171, "pitch": 72, "duration": 12, "velocity": 107}, {"time": 1183, "pitch": 70, "duration": 24, "velocity": 107}, {"time": 1207, "pitch": 72, "duration": 6, "velocity": 110}, {"time": 1213, "pitch": 75, "duration": 6, "velocity": 102}, {"time": 1219, "pitch": 72, "duration": 12, "velocity": 104}, {"time": 1231, "pitch": 70, "duration": 12, "velocity": 104}, {"time": 1243, "pitch": 75, "duration": 6, "velocity": 110}, {"time": 1249, "pitch": 77, "duration": 6, "velocity": 100}, {"time": 1255, "pitch": 79, "duration": 18, "velocity": 113}, {"time": 1273, "pitch": 77, "duration": 6, "velocity": 102}, {"time": 1279, "pitch": 75, "duration": 6, "velocity": 107}, {"time": 1285, "pitch": 72, "duration": 6, "velocity": 92}, {"time": 1291, "pitch": 75, "duration": 24, "velocity": 107}, {"time": 1315, "pitch": 72, "duration": 12, "velocity": 100}, {"time": 1327, "pitch": 70, "duration": 24, "velocity": 98}, {"time": 1351, "pitch": 72, "duration": 6, "velocity": 107}, {"time": 1357, "pitch": 75, "duration": 6, "velocity": 94}, {"time": 1363, "pitch": 77, "duration": 6, "velocity": 100}, {"time": 1369, "pitch": 79, "duration": 7, "velocity": 102}, {"time": 1375, "pitch": 77, "duration": 24, "velocity": 107}, {"time": 1399, "pitch": 75, "duration": 6, "velocity": 91}, {"time": 1405, "pitch": 77, "duration": 54, "velocity": 94}, {"time": 1459, "pitch": 72, "duration": 12, "velocity": 110}, {"time": 1471, "pitch": 70, "duration": 24, "velocity": 104}, {"time": 1495, "pitch": 72, "duration": 6, "velocity": 104}, {"time": 1501, "pitch": 75, "duration": 6, "velocity": 104}, {"time": 1507, "pitch": 72, "duration": 12, "velocity": 104}, {"time": 1519, "pitch": 70, "duration": 12, "velocity": 104}, {"time": 1531, "pitch": 75, "duration": 6, "velocity": 92}, {"time": 1537, "pitch": 77, "duration": 6, "velocity": 89}, {"time": 1543, "pitch": 79, "duration": 18, "velocity": 100}, {"time": 1561, "pitch": 77, "duration": 6, "velocity": 104}, {"time": 1567, "pitch": 75, "duration": 6, "velocity": 98}, {"time": 1573, "pitch": 72, "duration": 6, "velocity": 89}, {"time": 1579, "pitch": 75, "duration": 24, "velocity": 107}, {"time": 1603, "pitch": 72, "duration": 12, "velocity": 104}, {"time": 1615, "pitch": 70, "duration": 27, "velocity": 100}, {"time": 1642, "pitch": 72, "duration": 6, "velocity": 98}, {"time": 1648, "pitch": 75, "duration": 6, "velocity": 98}, {"time": 1654, "pitch": 77, "duration": 6, "velocity": 108}, {"time": 1660, "pitch": 79, "duration": 6, "velocity": 96}, {"time": 1666, "pitch": 77, "duration": 24, "velocity": 102}, {"time": 1690, "pitch": 75, "duration": 9, "velocity": 93}, {"time": 1699, "pitch": 75, "duration": 51, "velocity": 100}, {"time": 1750, "pitch": 79, "duration": 6, "velocity": 113}, {"time": 1756, "pitch": 82, "duration": 6, "velocity": 113}, {"time": 1762, "pitch": 82, "duration": 21, "velocity": 117}, {"time": 1783, "pitch": 79, "duration": 6, "velocity": 110}, {"time": 1789, "pitch": 82, "duration": 6, "velocity": 114}, {"time": 1795, "pitch": 84, "duration": 6, "velocity": 117}, {"time": 1801, "pitch": 87, "duration": 6, "velocity": 87}, {"time": 1807, "pitch": 84, "duration": 18, "velocity": 100}, {"time": 1825, "pitch": 79, "duration": 6, "velocity": 100}, {"time": 1831, "pitch": 82, "duration": 12, "velocity": 116}, {"time": 1843, "pitch": 79, "duration": 12, "velocity": 114}, {"time": 1855, "pitch": 77, "duration": 12, "velocity": 116}, {"time": 1867, "pitch": 75, "duration": 24, "velocity": 114}, {"time": 1891, "pitch": 79, "duration": 6, "velocity": 113}, {"time": 1897, "pitch": 82, "duration": 6, "velocity": 113}, {"time": 1903, "pitch": 82, "duration": 24, "velocity": 116}, {"time": 1927, "pitch": 79, "duration": 6, "velocity": 110}, {"time": 1933, "pitch": 82, "duration": 6, "velocity": 113}, {"time": 1939, "pitch": 84, "duration": 6, "velocity": 114}, {"time": 1945, "pitch": 87, "duration": 6, "velocity": 113}, {"time": 1951, "pitch": 84, "duration": 12, "velocity": 114}, {"time": 1963, "pitch": 79, "duration": 13, "velocity": 114}, {"time": 1975, "pitch": 77, "duration": 60, "velocity": 116}, {"time": 2035, "pitch": 79, "duration": 6, "velocity": 113}, {"time": 2041, "pitch": 82, "duration": 6, "velocity": 113}, {"time": 2047, "pitch": 82, "duration": 24, "velocity": 117}, {"time": 2071, "pitch": 79, "duration": 6, "velocity": 110}, {"time": 2077, "pitch": 82, "duration": 6, "velocity": 114}, {"time": 2083, "pitch": 84, "duration": 6, "velocity": 117}, {"time": 2089, "pitch": 87, "duration": 6, "velocity": 87}, {"time": 2095, "pitch": 84, "duration": 18, "velocity": 100}, {"time": 2113, "pitch": 79, "duration": 6, "velocity": 100}, {"time": 2119, "pitch": 82, "duration": 12, "velocity": 116}, {"time": 2131, "pitch": 79, "duration": 12, "velocity": 114}, {"time": 2143, "pitch": 77, "duration": 12, "velocity": 116}, {"time": 2155, "pitch": 75, "duration": 30, "velocity": 114}, {"time": 2185, "pitch": 72, "duration": 6, "velocity": 113}, {"time": 2191, "pitch": 70, "duration": 24, "velocity": 114}, {"time": 2215, "pitch": 72, "duration": 6, "velocity": 117}, {"time": 2221, "pitch": 75, "duration": 6, "velocity": 113}, {"time": 2227, "pitch": 77, "duration": 6, "velocity": 117}, {"time": 2233, "pitch": 79, "duration": 6, "velocity": 117}, {"time": 2239, "pitch": 77, "duration": 24, "velocity": 119}, {"time": 2263, "pitch": 75, "duration": 6, "velocity": 116}, {"time": 2269, "pitch": 75, "duration": 30, "velocity": 120}, {"time": 2965, "pitch": 72, "duration": 12, "velocity": 107}, {"time": 2977, "pitch": 70, "duration": 24, "velocity": 107}, {"time": 3001, "pitch": 72, "duration": 6, "velocity": 110}, {"time": 3007, "pitch": 75, "duration": 6, "velocity": 102}, {"time": 3013, "pitch": 72, "duration": 12, "velocity": 104}, {"time": 3025, "pitch": 70, "duration": 12, "velocity": 104}, {"time": 3037, "pitch": 75, "duration": 6, "velocity": 110}, {"time": 3043, "pitch": 77, "duration": 6, "velocity": 100}, {"time": 3049, "pitch": 79, "duration": 18, "velocity": 113}, {"time": 3067, "pitch": 77, "duration": 6, "velocity": 102}, {"time": 3073, "pitch": 75, "duration": 6, "velocity": 107}, {"time": 3079, "pitch": 72, "duration": 6, "velocity": 92}, {"time": 3085, "pitch": 75, "duration": 24, "velocity": 107}, {"time": 3109, "pitch": 72, "duration": 12, "velocity": 100}, {"time": 3121, "pitch": 70, "duration": 24, "velocity": 98}, {"time": 3145, "pitch": 72, "duration": 6, "velocity": 107}, {"time": 3151, "pitch": 75, "duration": 6, "velocity": 94}, {"time": 3157, "pitch": 77, "duration": 6, "velocity": 100}, {"time": 3163, "pitch": 79, "duration": 7, "velocity": 102}, {"time": 3169, "pitch": 77, "duration": 24, "velocity": 107}, {"time": 3193, "pitch": 75, "duration": 6, "velocity": 91}, {"time": 3199, "pitch": 77, "duration": 60, "velocity": 94}, {"time": 3259, "pitch": 72, "duration": 12, "velocity": 110}, {"time": 3271, "pitch": 70, "duration": 24, "velocity": 104}, {"time": 3295, "pitch": 72, "duration": 6, "velocity": 104}, {"time": 3301, "pitch": 75, "duration": 6, "velocity": 104}, {"time": 3307, "pitch": 72, "duration": 12, "velocity": 104}, {"time": 3319, "pitch": 70, "duration": 12, "velocity": 104}, {"time": 3331, "pitch": 75, "duration": 6, "velocity": 92}, {"time": 3337, "pitch": 77, "duration": 6, "velocity": 89}, {"time": 3343, "pitch": 79, "duration": 18, "velocity": 100}, {"time": 3361, "pitch": 77, "duration": 6, "velocity": 104}, {"time": 3367, "pitch": 75, "duration": 6, "velocity": 98}, {"time": 3373, "pitch": 72, "duration": 6, "velocity": 89}, {"time": 3379, "pitch": 75, "duration": 24, "velocity": 107}, {"time": 3403, "pitch": 72, "duration": 12, "velocity": 104}, {"time": 3415, "pitch": 70, "duration": 24, "velocity": 100}, {"time": 3439, "pitch": 72, "duration": 6, "velocity": 98}, {"time": 3445, "pitch": 75, "duration": 6, "velocity": 98}, {"time": 3451, "pitch": 77, "duration": 6, "velocity": 108}, {"time": 3457, "pitch": 79, "duration": 6, "velocity": 96}, {"time": 3463, "pitch": 77, "duration": 21, "velocity": 102}, {"time": 3484, "pitch": 75, "duration": 6, "velocity": 93}, {"time": 3490, "pitch": 75, "duration": 57, "velocity": 100}, {"time": 3547, "pitch": 79, "duration": 6, "velocity": 113}, {"time": 3553, "pitch": 82, "duration": 6, "velocity": 113}, {"time": 3559, "pitch": 82, "duration": 24, "velocity": 117}, {"time": 3583, "pitch": 79, "duration": 6, "velocity": 110}, {"time": 3589, "pitch": 82, "duration": 6, "velocity": 114}, {"time": 3595, "pitch": 84, "duration": 6, "velocity": 117}, {"time": 3601, "pitch": 87, "duration": 6, "velocity": 87}, {"time": 3607, "pitch": 84, "duration": 18, "velocity": 100}, {"time": 3625, "pitch": 79, "duration": 6, "velocity": 100}, {"time": 3631, "pitch": 82, "duration": 12, "velocity": 116}, {"time": 3643, "pitch": 79, "duration": 12, "velocity": 114}, {"time": 3655, "pitch": 77, "duration": 12, "velocity": 116}, {"time": 3667, "pitch": 75, "duration": 24, "velocity": 114}, {"time": 3691, "pitch": 79, "duration": 6, "velocity": 113}, {"time": 3697, "pitch": 82, "duration": 6, "velocity": 113}, {"time": 3703, "pitch": 82, "duration": 24, "velocity": 116}, {"time": 3727, "pitch": 79, "duration": 6, "velocity": 110}, {"time": 3733, "pitch": 82, "duration": 6, "velocity": 113}, {"time": 3739, "pitch": 84, "duration": 6, "velocity": 114}, {"time": 3745, "pitch": 87, "duration": 6, "velocity": 113}, {"time": 3751, "pitch": 84, "duration": 12, "velocity": 114}, {"time": 3763, "pitch": 79, "duration": 13, "velocity": 114}, {"time": 3775, "pitch": 77, "duration": 60, "velocity": 116}, {"time": 3835, "pitch": 79, "duration": 6, "velocity": 113}, {"time": 3841, "pitch": 82, "duration": 6, "velocity": 113}, {"time": 3847, "pitch": 82, "duration": 18, "velocity": 117}, {"time": 3865, "pitch": 79, "duration": 6, "velocity": 110}, {"time": 3871, "pitch": 82, "duration": 6, "velocity": 114}, {"time": 3877, "pitch": 84, "duration": 6, "velocity": 117}, {"time": 3883, "pitch": 87, "duration": 6, "velocity": 87}, {"time": 3889, "pitch": 84, "duration": 18, "velocity": 100}, {"time": 3907, "pitch": 79, "duration": 6, "velocity": 100}, {"time": 3913, "pitch": 82, "duration": 12, "velocity": 116}, {"time": 3925, "pitch": 79, "duration": 12, "velocity": 114}, {"time": 3937, "pitch": 77, "duration": 12, "velocity": 116}, {"time": 3949, "pitch": 75, "duration": 30, "velocity": 114}, {"time": 3979, "pitch": 72, "duration": 6, "velocity": 113}, {"time": 3985, "pitch": 70, "duration": 24, "velocity": 114}, {"time": 4009, "pitch": 72, "duration": 6, "velocity": 117}, {"time": 4015, "pitch": 75, "duration": 6, "velocity": 113}, {"time": 4021, "pitch": 77, "duration": 6, "velocity": 117}, {"time": 4027, "pitch": 79, "duration": 6, "velocity": 117}, {"time": 4033, "pitch": 77, "duration": 21, "velocity": 119}, {"time": 4054, "pitch": 75, "duration": 9, "velocity": 116}, {"time": 4063, "pitch": 75, "duration": 66, "velocity": 120}, {"time": 4129, "pitch": 79, "duration": 6, "velocity": 113}, {"time": 4135, "pitch": 82, "duration": 6, "velocity": 113}, {"time": 4141, "pitch": 82, "duration": 24, "velocity": 117}, {"time": 4165, "pitch": 79, "duration": 6, "velocity": 110}, {"time": 4171, "pitch": 82, "duration": 6, "velocity": 114}, {"time": 4177, "pitch": 84, "duration": 6, "velocity": 117}, {"time": 4183, "pitch": 87, "duration": 6, "velocity": 87}, {"time": 4189, "pitch": 84, "duration": 18, "velocity": 100}, {"time": 4207, "pitch": 79, "duration": 6, "velocity": 100}, {"time": 4213, "pitch": 82, "duration": 12, "velocity": 116}, {"time": 4225, "pitch": 79, "duration": 12, "velocity": 114}, {"time": 4237, "pitch": 77, "duration": 12, "velocity": 116}, {"time": 4249, "pitch": 75, "duration": 24, "velocity": 114}, {"time": 4273, "pitch": 79, "duration": 6, "velocity": 113}, {"time": 4279, "pitch": 82, "duration": 6, "velocity": 113}, {"time": 4285, "pitch": 82, "duration": 24, "velocity": 116}, {"time": 4309, "pitch": 79, "duration": 6, "velocity": 110}, {"time": 4315, "pitch": 82, "duration": 6, "velocity": 113}, {"time": 4321, "pitch": 84, "duration": 6, "velocity": 114}, {"time": 4327, "pitch": 87, "duration": 6, "velocity": 113}, {"time": 4333, "pitch": 84, "duration": 12, "velocity": 114}, {"time": 4345, "pitch": 79, "duration": 13, "velocity": 114}, {"time": 4357, "pitch": 77, "duration": 60, "velocity": 116}, {"time": 4417, "pitch": 79, "duration": 12, "velocity": 113}, {"time": 4429, "pitch": 82, "duration": 6, "velocity": 113}, {"time": 4435, "pitch": 82, "duration": 18, "velocity": 117}, {"time": 4453, "pitch": 79, "duration": 6, "velocity": 110}, {"time": 4459, "pitch": 82, "duration": 6, "velocity": 114}, {"time": 4465, "pitch": 84, "duration": 6, "velocity": 117}, {"time": 4471, "pitch": 87, "duration": 6, "velocity": 87}, {"time": 4477, "pitch": 84, "duration": 18, "velocity": 100}, {"time": 4495, "pitch": 79, "duration": 6, "velocity": 100}, {"time": 4501, "pitch": 82, "duration": 12, "velocity": 116}, {"time": 4513, "pitch": 79, "duration": 12, "velocity": 114}, {"time": 4525, "pitch": 77, "duration": 12, "velocity": 116}, {"time": 4537, "pitch": 75, "duration": 33, "velocity": 114}, {"time": 4570, "pitch": 72, "duration": 6, "velocity": 113}, {"time": 4576, "pitch": 70, "duration": 21, "velocity": 114}, {"time": 4597, "pitch": 72, "duration": 6, "velocity": 117}, {"time": 4603, "pitch": 75, "duration": 6, "velocity": 113}, {"time": 4609, "pitch": 77, "duration": 6, "velocity": 117}, {"time": 4615, "pitch": 79, "duration": 6, "velocity": 117}, {"time": 4621, "pitch": 77, "duration": 18, "velocity": 119}, {"time": 4639, "pitch": 75, "duration": 6, "velocity": 116}, {"time": 4645, "pitch": 75, "duration": 63, "velocity": 120}, {"time": 4708, "pitch": 72, "duration": 15, "velocity": 113}, {"time": 4723, "pitch": 70, "duration": 30, "velocity": 114}, {"time": 4753, "pitch": 72, "duration": 6, "velocity": 109}, {"time": 4759, "pitch": 75, "duration": 6, "velocity": 88}, {"time": 4765, "pitch": 77, "duration": 6, "velocity": 96}, {"time": 4771, "pitch": 79, "duration": 6, "velocity": 109}, {"time": 4777, "pitch": 77, "duration": 39, "velocity": 113}, {"time": 4816, "pitch": 75, "duration": 6, "velocity": 104}, {"time": 4822, "pitch": 75, "duration": 38, "velocity": 107}]}, {"program": 0, "is_drum": false, "name": "PIANO", "notes": [{"time": 31, "pitch": 51, "duration": 27, "velocity": 84}, {"time": 37, "pitch": 58, "duration": 18, "velocity": 63}, {"time": 43, "pitch": 63, "duration": 11, "velocity": 80}, {"time": 67, "pitch": 48, "duration": 28, "velocity": 76}, {"time": 73, "pitch": 55, "duration": 21, "velocity": 70}, {"time": 79, "pitch": 60, "duration": 13, "velocity": 81}, {"time": 103, "pitch": 44, "duration": 27, "velocity": 83}, {"time": 109, "pitch": 51, "duration": 21, "velocity": 75}, {"time": 115, "pitch": 56, "duration": 16, "velocity": 74}, {"time": 139, "pitch": 51, "duration": 27, "velocity": 68}, {"time": 145, "pitch": 58, "duration": 20, "velocity": 68}, {"time": 151, "pitch": 63, "duration": 14, "velocity": 73}, {"time": 157, "pitch": 65, "duration": 8, "velocity": 72}, {"time": 163, "pitch": 67, "duration": 9, "velocity": 78}, {"time": 175, "pitch": 48, "duration": 29, "velocity": 78}, {"time": 181, "pitch": 55, "duration": 20, "velocity": 56}, {"time": 187, "pitch": 60, "duration": 13, "velocity": 74}, {"time": 211, "pitch": 44, "duration": 28, "velocity": 78}, {"time": 217, "pitch": 51, "duration": 22, "velocity": 63}, {"time": 223, "pitch": 56, "duration": 17, "velocity": 79}, {"time": 247, "pitch": 46, "duration": 32, "velocity": 72}, {"time": 253, "pitch": 53, "duration": 32, "velocity": 65}, {"time": 259, "pitch": 58, "duration": 25, "velocity": 67}, {"time": 265, "pitch": 60, "duration": 6, "velocity": 61}, {"time": 271, "pitch": 62, "duration": 13, "velocity": 69}, {"time": 283, "pitch": 46, "duration": 31, "velocity": 78}, {"time": 289, "pitch": 53, "duration": 26, "velocity": 71}, {"time": 295, "pitch": 58, "duration": 21, "velocity": 73}, {"time": 301, "pitch": 60, "duration": 8, "velocity": 70}, {"time": 307, "pitch": 62, "duration": 13, "velocity": 71}, {"time": 319, "pitch": 51, "duration": 31, "velocity": 78}, {"time": 325, "pitch": 58, "duration": 23, "velocity": 78}, {"time": 331, "pitch": 63, "duration": 13, "velocity": 81}, {"time": 337, "pitch": 65, "duration": 8, "velocity": 75}, {"time": 343, "pitch": 67, "duration": 16, "velocity": 83}, {"time": 355, "pitch": 51, "duration": 23, "velocity": 86}, {"time": 361, "pitch": 58, "duration": 15, "velocity": 69}, {"time": 367, "pitch": 63, "duration": 7, "velocity": 79}, {"time": 373, "pitch": 65, "duration": 7, "velocity": 76}, {"time": 379, "pitch": 67, "duration": 23, "velocity": 81}, {"time": 391, "pitch": 48, "duration": 27, "velocity": 83}, {"time": 397, "pitch": 55, "duration": 20, "velocity": 78}, {"time": 403, "pitch": 60, "duration": 13, "velocity": 84}, {"time": 409, "pitch": 63, "duration": 8, "velocity": 77}, {"time": 415, "pitch": 67, "duration": 22, "velocity": 78}, {"time": 427, "pitch": 44, "duration": 26, "velocity": 78}, {"time": 433, "pitch": 51, "duration": 19, "velocity": 58}, {"time": 439, "pitch": 56, "duration": 12, "velocity": 76}, {"time": 445, "pitch": 60, "duration": 8, "velocity": 68}, {"time": 451, "pitch": 63, "duration": 6, "velocity": 79}, {"time": 457, "pitch": 65, "duration": 6, "velocity": 69}, {"time": 463, "pitch": 51, "duration": 24, "velocity": 81}, {"time": 469, "pitch": 58, "duration": 17, "velocity": 75}, {"time": 475, "pitch": 63, "duration": 9, "velocity": 85}, {"time": 481, "pitch": 65, "duration": 7, "velocity": 89}, {"time": 487, "pitch": 67, "duration": 7, "velocity": 89}, {"time": 493, "pitch": 65, "duration": 7, "velocity": 84}, {"time": 499, "pitch": 44, "duration": 23, "velocity": 78}, {"time": 505, "pitch": 51, "duration": 17, "velocity": 70}, {"time": 511, "pitch": 56, "duration": 13, "velocity": 76}, {"time": 517, "pitch": 60, "duration": 7, "velocity": 78}, {"time": 523, "pitch": 63, "duration": 12, "velocity": 86}, {"time": 535, "pitch": 51, "duration": 46, "velocity": 78}, {"time": 541, "pitch": 58, "duration": 39, "velocity": 66}, {"time": 547, "pitch": 63, "duration": 33, "velocity": 80}, {"time": 553, "pitch": 65, "duration": 6, "velocity": 72}, {"time": 559, "pitch": 67, "duration": 5, "velocity": 81}, {"time": 565, "pitch": 70, "duration": 2, "velocity": 67}, {"time": 571, "pitch": 75, "duration": 2, "velocity": 82}, {"time": 607, "pitch": 51, "duration": 31, "velocity": 86}, {"time": 613, "pitch": 58, "duration": 24, "velocity": 60}, {"time": 619, "pitch": 63, "duration": 17, "velocity": 68}, {"time": 643, "pitch": 51, "duration": 25, "velocity": 73}, {"time": 649, "pitch": 58, "duration": 18, "velocity": 50}, {"time": 655, "pitch": 63, "duration": 12, "velocity": 78}, {"time": 667, "pitch": 67, "duration": 25, "velocity": 78}, {"time": 679, "pitch": 48, "duration": 26, "velocity": 71}, {"time": 685, "pitch": 55, "duration": 20, "velocity": 71}, {"time": 691, "pitch": 60, "duration": 13, "velocity": 75}, {"time": 697, "pitch": 63, "duration": 8, "velocity": 70}, {"time": 703, "pitch": 67, "duration": 20, "velocity": 75}, {"time": 715, "pitch": 44, "duration": 25, "velocity": 74}, {"time": 721, "pitch": 51, "duration": 19, "velocity": 72}, {"time": 727, "pitch": 56, "duration": 13, "velocity": 70}, {"time": 739, "pitch": 60, "duration": 13, "velocity": 67}, {"time": 751, "pitch": 51, "duration": 28, "velocity": 82}, {"time": 757, "pitch": 58, "duration": 22, "velocity": 75}, {"time": 763, "pitch": 63, "duration": 14, "velocity": 80}, {"time": 775, "pitch": 70, "duration": 15, "velocity": 73}, {"time": 787, "pitch": 53, "duration": 25, "velocity": 82}, {"time": 793, "pitch": 60, "duration": 19, "velocity": 65}, {"time": 799, "pitch": 65, "duration": 36, "velocity": 73}, {"time": 823, "pitch": 46, "duration": 62, "velocity": 75}, {"time": 829, "pitch": 53, "duration": 57, "velocity": 66}, {"time": 835, "pitch": 58, "duration": 19, "velocity": 70}, {"time": 841, "pitch": 63, "duration": 6, "velocity": 81}, {"time": 847, "pitch": 65, "duration": 6, "velocity": 87}, {"time": 853, "pitch": 63, "duration": 6, "velocity": 81}, {"time": 859, "pitch": 58, "duration": 34, "velocity": 52}, {"time": 859, "pitch": 62, "duration": 33, "velocity": 78}, {"time": 859, "pitch": 70, "duration": 36, "velocity": 76}, {"time": 895, "pitch": 51, "duration": 30, "velocity": 74}, {"time": 901, "pitch": 58, "duration": 23, "velocity": 69}, {"time": 907, "pitch": 63, "duration": 15, "velocity": 81}, {"time": 919, "pitch": 67, "duration": 14, "velocity": 73}, {"time": 931, "pitch": 51, "duration": 27, "velocity": 72}, {"time": 937, "pitch": 58, "duration": 19, "velocity": 58}, {"time": 943, "pitch": 63, "duration": 13, "velocity": 80}, {"time": 955, "pitch": 65, "duration": 7, "velocity": 80}, {"time": 961, "pitch": 67, "duration": 23, "velocity": 87}, {"time": 967, "pitch": 48, "duration": 28, "velocity": 76}, {"time": 973, "pitch": 55, "duration": 22, "velocity": 67}, {"time": 979, "pitch": 60, "duration": 14, "velocity": 77}, {"time": 985, "pitch": 63, "duration": 20, "velocity": 79}, {"time": 1003, "pitch": 44, "duration": 27, "velocity": 77}, {"time": 1009, "pitch": 51, "duration": 20, "velocity": 64}, {"time": 1015, "pitch": 56, "duration": 14, "velocity": 78}, {"time": 1021, "pitch": 60, "duration": 7, "velocity": 79}, {"time": 1027, "pitch": 63, "duration": 6, "velocity": 85}, {"time": 1033, "pitch": 65, "duration": 7, "velocity": 75}, {"time": 1039, "pitch": 51, "duration": 29, "velocity": 77}, {"time": 1039, "pitch": 67, "duration": 12, "velocity": 82}, {"time": 1045, "pitch": 58, "duration": 23, "velocity": 73}, {"time": 1051, "pitch": 63, "duration": 15, "velocity": 76}, {"time": 1063, "pitch": 67, "duration": 13, "velocity": 84}, {"time": 1075, "pitch": 44, "duration": 26, "velocity": 81}, {"time": 1081, "pitch": 51, "duration": 19, "velocity": 65}, {"time": 1087, "pitch": 56, "duration": 15, "velocity": 80}, {"time": 1099, "pitch": 60, "duration": 11, "velocity": 71}, {"time": 1111, "pitch": 51, "duration": 32, "velocity": 76}, {"time": 1117, "pitch": 58, "duration": 25, "velocity": 63}, {"time": 1123, "pitch": 63, "duration": 15, "velocity": 81}, {"time": 1129, "pitch": 65, "duration": 6, "velocity": 75}, {"time": 1135, "pitch": 67, "duration": 6, "velocity": 86}, {"time": 1141, "pitch": 65, "duration": 6, "velocity": 83}, {"time": 1147, "pitch": 51, "duration": 32, "velocity": 74}, {"time": 1147, "pitch": 63, "duration": 33, "velocity": 79}, {"time": 1147, "pitch": 67, "duration": 32, "velocity": 77}, {"time": 1183, "pitch": 51, "duration": 32, "velocity": 77}, {"time": 1189, "pitch": 58, "duration": 25, "velocity": 81}, {"time": 1195, "pitch": 63, "duration": 7, "velocity": 80}, {"time": 1201, "pitch": 65, "duration": 8, "velocity": 86}, {"time": 1207, "pitch": 67, "duration": 6, "velocity": 83}, {"time": 1213, "pitch": 70, "duration": 14, "velocity": 81}, {"time": 1219, "pitch": 51, "duration": 26, "velocity": 83}, {"time": 1225, "pitch": 58, "duration": 21, "velocity": 79}, {"time": 1231, "pitch": 65, "duration": 6, "velocity": 76}, {"time": 1237, "pitch": 70, "duration": 7, "velocity": 83}, {"time": 1243, "pitch": 65, "duration": 7, "velocity": 85}, {"time": 1249, "pitch": 67, "duration": 6, "velocity": 83}, {"time": 1255, "pitch": 48, "duration": 28, "velocity": 76}, {"time": 1255, "pitch": 63, "duration": 27, "velocity": 78}, {"time": 1261, "pitch": 55, "duration": 21, "velocity": 75}, {"time": 1267, "pitch": 60, "duration": 14, "velocity": 86}, {"time": 1273, "pitch": 72, "duration": 20, "velocity": 79}, {"time": 1279, "pitch": 67, "duration": 13, "velocity": 86}, {"time": 1285, "pitch": 63, "duration": 9, "velocity": 78}, {"time": 1291, "pitch": 44, "duration": 30, "velocity": 83}, {"time": 1297, "pitch": 51, "duration": 24, "velocity": 73}, {"time": 1303, "pitch": 56, "duration": 20, "velocity": 78}, {"time": 1309, "pitch": 60, "duration": 19, "velocity": 82}, {"time": 1309, "pitch": 68, "duration": 21, "velocity": 74}, {"time": 1327, "pitch": 51, "duration": 32, "velocity": 84}, {"time": 1333, "pitch": 58, "duration": 26, "velocity": 66}, {"time": 1339, "pitch": 63, "duration": 18, "velocity": 81}, {"time": 1345, "pitch": 65, "duration": 8, "velocity": 84}, {"time": 1351, "pitch": 67, "duration": 6, "velocity": 88}, {"time": 1357, "pitch": 70, "duration": 6, "velocity": 83}, {"time": 1363, "pitch": 44, "duration": 28, "velocity": 82}, {"time": 1369, "pitch": 51, "duration": 23, "velocity": 74}, {"time": 1375, "pitch": 56, "duration": 17, "velocity": 78}, {"time": 1381, "pitch": 60, "duration": 16, "velocity": 73}, {"time": 1387, "pitch": 63, "duration": 12, "velocity": 79}, {"time": 1399, "pitch": 46, "duration": 31, "velocity": 80}, {"time": 1405, "pitch": 53, "duration": 30, "velocity": 71}, {"time": 1411, "pitch": 58, "duration": 19, "velocity": 82}, {"time": 1417, "pitch": 63, "duration": 7, "velocity": 85}, {"time": 1423, "pitch": 65, "duration": 9, "velocity": 102}, {"time": 1435, "pitch": 46, "duration": 29, "velocity": 82}, {"time": 1435, "pitch": 62, "duration": 15, "velocity": 77}, {"time": 1435, "pitch": 65, "duration": 15, "velocity": 83}, {"time": 1435, "pitch": 70, "duration": 15, "velocity": 88}, {"time": 1441, "pitch": 53, "duration": 23, "velocity": 61}, {"time": 1447, "pitch": 58, "duration": 20, "velocity": 82}, {"time": 1453, "pitch": 62, "duration": 7, "velocity": 84}, {"time": 1459, "pitch": 65, "duration": 11, "velocity": 91}, {"time": 1471, "pitch": 51, "duration": 31, "velocity": 83}, {"time": 1477, "pitch": 58, "duration": 26, "velocity": 71}, {"time": 1483, "pitch": 63, "duration": 19, "velocity": 82}, {"time": 1495, "pitch": 67, "duration": 6, "velocity": 78}, {"time": 1501, "pitch": 70, "duration": 10, "velocity": 79}, {"time": 1507, "pitch": 51, "duration": 25, "velocity": 83}, {"time": 1513, "pitch": 58, "duration": 19, "velocity": 71}, {"time": 1519, "pitch": 63, "duration": 12, "velocity": 84}, {"time": 1531, "pitch": 65, "duration": 6, "velocity": 86}, {"time": 1537, "pitch": 67, "duration": 18, "velocity": 81}, {"time": 1543, "pitch": 48, "duration": 26, "velocity": 80}, {"time": 1549, "pitch": 55, "duration": 20, "velocity": 72}, {"time": 1555, "pitch": 60, "duration": 14, "velocity": 80}, {"time": 1561, "pitch": 63, "duration": 14, "velocity": 80}, {"time": 1579, "pitch": 44, "duration": 31, "velocity": 74}, {"time": 1585, "pitch": 51, "duration": 25, "velocity": 73}, {"time": 1591, "pitch": 56, "duration": 19, "velocity": 78}, {"time": 1603, "pitch": 67, "duration": 9, "velocity": 75}, {"time": 1618, "pitch": 51, "duration": 26, "velocity": 83}, {"time": 1624, "pitch": 58, "duration": 19, "velocity": 74}, {"time": 1630, "pitch": 63, "duration": 12, "velocity": 81}, {"time": 1636, "pitch": 65, "duration": 12, "velocity": 80}, {"time": 1654, "pitch": 44, "duration": 29, "velocity": 84}, {"time": 1660, "pitch": 51, "duration": 24, "velocity": 70}, {"time": 1666, "pitch": 56, "duration": 19, "velocity": 70}, {"time": 1672, "pitch": 60, "duration": 8, "velocity": 63}, {"time": 1678, "pitch": 63, "duration": 13, "velocity": 85}, {"time": 1690, "pitch": 51, "duration": 29, "velocity": 78}, {"time": 1696, "pitch": 58, "duration": 21, "velocity": 71}, {"time": 1702, "pitch": 63, "duration": 13, "velocity": 86}, {"time": 1708, "pitch": 65, "duration": 6, "velocity": 76}, {"time": 1714, "pitch": 67, "duration": 6, "velocity": 85}, {"time": 1720, "pitch": 65, "duration": 6, "velocity": 71}, {"time": 1726, "pitch": 51, "duration": 32, "velocity": 87}, {"time": 1732, "pitch": 58, "duration": 27, "velocity": 75}, {"time": 1738, "pitch": 63, "duration": 20, "velocity": 86}, {"time": 1744, "pitch": 65, "duration": 8, "velocity": 69}, {"time": 1750, "pitch": 67, "duration": 5, "velocity": 84}, {"time": 1756, "pitch": 70, "duration": 6, "velocity": 74}, {"time": 1762, "pitch": 43, "duration": 24, "velocity": 86}, {"time": 1768, "pitch": 50, "duration": 20, "velocity": 75}, {"time": 1774, "pitch": 55, "duration": 16, "velocity": 82}, {"time": 1780, "pitch": 58, "duration": 7, "velocity": 84}, {"time": 1786, "pitch": 62, "duration": 10, "velocity": 88}, {"time": 1789, "pitch": 67, "duration": 8, "velocity": 87}, {"time": 1795, "pitch": 48, "duration": 27, "velocity": 88}, {"time": 1801, "pitch": 55, "duration": 21, "velocity": 76}, {"time": 1807, "pitch": 60, "duration": 13, "velocity": 85}, {"time": 1813, "pitch": 63, "duration": 12, "velocity": 76}, {"time": 1819, "pitch": 67, "duration": 10, "velocity": 88}, {"time": 1825, "pitch": 72, "duration": 6, "velocity": 87}, {"time": 1831, "pitch": 43, "duration": 29, "velocity": 88}, {"time": 1837, "pitch": 50, "duration": 24, "velocity": 79}, {"time": 1843, "pitch": 55, "duration": 20, "velocity": 83}, {"time": 1849, "pitch": 58, "duration": 8, "velocity": 80}, {"time": 1855, "pitch": 62, "duration": 12, "velocity": 86}, {"time": 1861, "pitch": 67, "duration": 8, "velocity": 83}, {"time": 1867, "pitch": 48, "duration": 26, "velocity": 86}, {"time": 1873, "pitch": 55, "duration": 20, "velocity": 87}, {"time": 1879, "pitch": 60, "duration": 13, "velocity": 87}, {"time": 1885, "pitch": 63, "duration": 8, "velocity": 82}, {"time": 1891, "pitch": 67, "duration": 12, "velocity": 86}, {"time": 1897, "pitch": 72, "duration": 7, "velocity": 86}, {"time": 1905, "pitch": 43, "duration": 26, "velocity": 88}, {"time": 1911, "pitch": 50, "duration": 21, "velocity": 84}, {"time": 1917, "pitch": 55, "duration": 13, "velocity": 88}, {"time": 1923, "pitch": 58, "duration": 7, "velocity": 86}, {"time": 1929, "pitch": 62, "duration": 6, "velocity": 87}, {"time": 1933, "pitch": 67, "duration": 11, "velocity": 89}, {"time": 1939, "pitch": 48, "duration": 27, "velocity": 90}, {"time": 1945, "pitch": 55, "duration": 21, "velocity": 81}, {"time": 1951, "pitch": 60, "duration": 13, "velocity": 88}, {"time": 1957, "pitch": 63, "duration": 9, "velocity": 78}, {"time": 1963, "pitch": 67, "duration": 11, "velocity": 81}, {"time": 1969, "pitch": 72, "duration": 6, "velocity": 81}, {"time": 1975, "pitch": 53, "duration": 23, "velocity": 86}, {"time": 1981, "pitch": 60, "duration": 17, "velocity": 76}, {"time": 1987, "pitch": 65, "duration": 10, "velocity": 87}, {"time": 1993, "pitch": 68, "duration": 9, "velocity": 79}, {"time": 1999, "pitch": 72, "duration": 11, "velocity": 81}, {"time": 2005, "pitch": 77, "duration": 7, "velocity": 84}, {"time": 2011, "pitch": 46, "duration": 21, "velocity": 86}, {"time": 2017, "pitch": 53, "duration": 15, "velocity": 84}, {"time": 2023, "pitch": 58, "duration": 8, "velocity": 89}, {"time": 2029, "pitch": 62, "duration": 8, "velocity": 88}, {"time": 2035, "pitch": 65, "duration": 7, "velocity": 87}, {"time": 2041, "pitch": 70, "duration": 10, "velocity": 88}, {"time": 2047, "pitch": 43, "duration": 24, "velocity": 88}, {"time": 2053, "pitch": 50, "duration": 19, "velocity": 83}, {"time": 2059, "pitch": 55, "duration": 18, "velocity": 90}, {"time": 2065, "pitch": 58, "duration": 7, "velocity": 83}, {"time": 2071, "pitch": 62, "duration": 7, "velocity": 90}, {"time": 2077, "pitch": 67, "duration": 16, "velocity": 90}, {"time": 2083, "pitch": 48, "duration": 25, "velocity": 90}, {"time": 2089, "pitch": 55, "duration": 19, "velocity": 83}, {"time": 2095, "pitch": 60, "duration": 11, "velocity": 88}, {"time": 2101, "pitch": 63, "duration": 9, "velocity": 87}, {"time": 2107, "pitch": 67, "duration": 7, "velocity": 86}, {"time": 2110, "pitch": 72, "duration": 8, "velocity": 88}, {"time": 2119, "pitch": 43, "duration": 31, "velocity": 89}, {"time": 2125, "pitch": 50, "duration": 25, "velocity": 78}, {"time": 2131, "pitch": 55, "duration": 21, "velocity": 83}, {"time": 2137, "pitch": 58, "duration": 13, "velocity": 79}, {"time": 2143, "pitch": 62, "duration": 7, "velocity": 86}, {"time": 2143, "pitch": 67, "duration": 12, "velocity": 94}, {"time": 2155, "pitch": 48, "duration": 23, "velocity": 81}, {"time": 2155, "pitch": 63, "duration": 8, "velocity": 88}, {"time": 2158, "pitch": 55, "duration": 18, "velocity": 79}, {"time": 2167, "pitch": 60, "duration": 9, "velocity": 88}, {"time": 2173, "pitch": 63, "duration": 8, "velocity": 86}, {"time": 2179, "pitch": 67, "duration": 8, "velocity": 85}, {"time": 2185, "pitch": 72, "duration": 5, "velocity": 87}, {"time": 2191, "pitch": 51, "duration": 25, "velocity": 86}, {"time": 2197, "pitch": 58, "duration": 17, "velocity": 75}, {"time": 2203, "pitch": 63, "duration": 8, "velocity": 82}, {"time": 2209, "pitch": 67, "duration": 12, "velocity": 78}, {"time": 2215, "pitch": 70, "duration": 7, "velocity": 83}, {"time": 2221, "pitch": 72, "duration": 7, "velocity": 81}, {"time": 2227, "pitch": 44, "duration": 28, "velocity": 85}, {"time": 2233, "pitch": 51, "duration": 22, "velocity": 71}, {"time": 2239, "pitch": 56, "duration": 19, "velocity": 78}, {"time": 2245, "pitch": 60, "duration": 11, "velocity": 78}, {"time": 2251, "pitch": 63, "duration": 7, "velocity": 70}, {"time": 2257, "pitch": 68, "duration": 7, "velocity": 81}, {"time": 2263, "pitch": 47, "duration": 31, "velocity": 90}, {"time": 2269, "pitch": 54, "duration": 26, "velocity": 80}, {"time": 2275, "pitch": 59, "duration": 19, "velocity": 81}, {"time": 2281, "pitch": 63, "duration": 8, "velocity": 80}, {"time": 2287, "pitch": 66, "duration": 9, "velocity": 80}, {"time": 2293, "pitch": 71, "duration": 5, "velocity": 83}, {"time": 2299, "pitch": 46, "duration": 27, "velocity": 88}, {"time": 2305, "pitch": 54, "duration": 19, "velocity": 75}, {"time": 2311, "pitch": 58, "duration": 11, "velocity": 83}, {"time": 2317, "pitch": 61, "duration": 7, "velocity": 82}, {"time": 2323, "pitch": 66, "duration": 7, "velocity": 113}, {"time": 2329, "pitch": 68, "duration": 19, "velocity": 81}, {"time": 2335, "pitch": 44, "duration": 26, "velocity": 86}, {"time": 2335, "pitch": 59, "duration": 13, "velocity": 77}, {"time": 2335, "pitch": 63, "duration": 14, "velocity": 83}, {"time": 2341, "pitch": 51, "duration": 20, "velocity": 75}, {"time": 2347, "pitch": 56, "duration": 14, "velocity": 82}, {"time": 2359, "pitch": 59, "duration": 8, "velocity": 85}, {"time": 2359, "pitch": 68, "duration": 10, "velocity": 88}, {"time": 2371, "pitch": 49, "duration": 26, "velocity": 84}, {"time": 2371, "pitch": 61, "duration": 15, "velocity": 88}, {"time": 2371, "pitch": 64, "duration": 15, "velocity": 90}, {"time": 2371, "pitch": 68, "duration": 14, "velocity": 88}, {"time": 2383, "pitch": 56, "duration": 13, "velocity": 86}, {"time": 2395, "pitch": 61, "duration": 10, "velocity": 93}, {"time": 2395, "pitch": 68, "duration": 9, "velocity": 100}, {"time": 2407, "pitch": 45, "duration": 28, "velocity": 85}, {"time": 2407, "pitch": 64, "duration": 20, "velocity": 70}, {"time": 2407, "pitch": 73, "duration": 4, "velocity": 91}, {"time": 2413, "pitch": 52, "duration": 20, "velocity": 71}, {"time": 2419, "pitch": 57, "duration": 15, "velocity": 83}, {"time": 2425, "pitch": 61, "duration": 8, "velocity": 84}, {"time": 2431, "pitch": 68, "duration": 11, "velocity": 113}, {"time": 2437, "pitch": 61, "duration": 5, "velocity": 82}, {"time": 2443, "pitch": 44, "duration": 28, "velocity": 86}, {"time": 2443, "pitch": 59, "duration": 31, "velocity": 88}, {"time": 2443, "pitch": 68, "duration": 19, "velocity": 86}, {"time": 2449, "pitch": 51, "duration": 21, "velocity": 71}, {"time": 2455, "pitch": 56, "duration": 15, "velocity": 80}, {"time": 2461, "pitch": 63, "duration": 13, "velocity": 80}, {"time": 2467, "pitch": 68, "duration": 7, "velocity": 84}, {"time": 2479, "pitch": 40, "duration": 27, "velocity": 86}, {"time": 2479, "pitch": 59, "duration": 26, "velocity": 67}, {"time": 2479, "pitch": 68, "duration": 3, "velocity": 88}, {"time": 2485, "pitch": 47, "duration": 25, "velocity": 64}, {"time": 2491, "pitch": 52, "duration": 18, "velocity": 80}, {"time": 2503, "pitch": 66, "duration": 9, "velocity": 88}, {"time": 2515, "pitch": 42, "duration": 32, "velocity": 83}, {"time": 2515, "pitch": 58, "duration": 4, "velocity": 63}, {"time": 2515, "pitch": 61, "duration": 2, "velocity": 76}, {"time": 2521, "pitch": 49, "duration": 26, "velocity": 81}, {"time": 2527, "pitch": 54, "duration": 20, "velocity": 81}, {"time": 2533, "pitch": 59, "duration": 6, "velocity": 77}, {"time": 2551, "pitch": 52, "duration": 29, "velocity": 82}, {"time": 2551, "pitch": 59, "duration": 5, "velocity": 69}, {"time": 2551, "pitch": 64, "duration": 5, "velocity": 75}, {"time": 2551, "pitch": 68, "duration": 6, "velocity": 91}, {"time": 2557, "pitch": 59, "duration": 23, "velocity": 81}, {"time": 2563, "pitch": 64, "duration": 16, "velocity": 79}, {"time": 2587, "pitch": 54, "duration": 26, "velocity": 81}, {"time": 2587, "pitch": 70, "duration": 39, "velocity": 67}, {"time": 2587, "pitch": 78, "duration": 7, "velocity": 89}, {"time": 2593, "pitch": 61, "duration": 20, "velocity": 73}, {"time": 2599, "pitch": 66, "duration": 12, "velocity": 77}, {"time": 2623, "pitch": 51, "duration": 26, "velocity": 86}, {"time": 2623, "pitch": 66, "duration": 25, "velocity": 89}, {"time": 2623, "pitch": 73, "duration": 24, "velocity": 89}, {"time": 2629, "pitch": 58, "duration": 19, "velocity": 73}, {"time": 2635, "pitch": 63, "duration": 13, "velocity": 82}, {"time": 2647, "pitch": 70, "duration": 13, "velocity": 91}, {"time": 2659, "pitch": 44, "duration": 26, "velocity": 83}, {"time": 2659, "pitch": 63, "duration": 19, "velocity": 87}, {"time": 2659, "pitch": 71, "duration": 6, "velocity": 87}, {"time": 2665, "pitch": 51, "duration": 20, "velocity": 68}, {"time": 2671, "pitch": 56, "duration": 13, "velocity": 87}, {"time": 2677, "pitch": 58, "duration": 8, "velocity": 87}, {"time": 2683, "pitch": 59, "duration": 12, "velocity": 94}, {"time": 2695, "pitch": 40, "duration": 30, "velocity": 83}, {"time": 2695, "pitch": 56, "duration": 7, "velocity": 86}, {"time": 2695, "pitch": 64, "duration": 12, "velocity": 90}, {"time": 2701, "pitch": 47, "duration": 31, "velocity": 74}, {"time": 2707, "pitch": 52, "duration": 20, "velocity": 81}, {"time": 2713, "pitch": 59, "duration": 14, "velocity": 76}, {"time": 2719, "pitch": 66, "duration": 6, "velocity": 98}, {"time": 2731, "pitch": 42, "duration": 29, "velocity": 80}, {"time": 2731, "pitch": 58, "duration": 16, "velocity": 79}, {"time": 2731, "pitch": 66, "duration": 13, "velocity": 89}, {"time": 2737, "pitch": 49, "duration": 26, "velocity": 75}, {"time": 2743, "pitch": 54, "duration": 20, "velocity": 76}, {"time": 2755, "pitch": 58, "duration": 4, "velocity": 84}, {"time": 2755, "pitch": 66, "duration": 10, "velocity": 87}, {"time": 2767, "pitch": 44, "duration": 35, "velocity": 79}, {"time": 2767, "pitch": 59, "duration": 18, "velocity": 82}, {"time": 2767, "pitch": 68, "duration": 17, "velocity": 90}, {"time": 2773, "pitch": 51, "duration": 24, "velocity": 76}, {"time": 2779, "pitch": 56, "duration": 16, "velocity": 83}, {"time": 2785, "pitch": 63, "duration": 6, "velocity": 96}, {"time": 2791, "pitch": 61, "duration": 6, "velocity": 94}, {"time": 2797, "pitch": 59, "duration": 7, "velocity": 84}, {"time": 2803, "pitch": 56, "duration": 16, "velocity": 80}, {"time": 2836, "pitch": 63, "duration": 21, "velocity": 66}, {"time": 2839, "pitch": 51, "duration": 25, "velocity": 85}, {"time": 2839, "pitch": 70, "duration": 18, "velocity": 90}, {"time": 2857, "pitch": 58, "duration": 7, "velocity": 70}, {"time": 2863, "pitch": 66, "duration": 5, "velocity": 100}, {"time": 2869, "pitch": 70, "duration": 7, "velocity": 84}, {"time": 2875, "pitch": 46, "duration": 26, "velocity": 79}, {"time": 2875, "pitch": 61, "duration": 17, "velocity": 83}, {"time": 2875, "pitch": 65, "duration": 19, "velocity": 86}, {"time": 2881, "pitch": 53, "duration": 22, "velocity": 75}, {"time": 2887, "pitch": 58, "duration": 14, "velocity": 81}, {"time": 2899, "pitch": 61, "duration": 9, "velocity": 86}, {"time": 2899, "pitch": 65, "duration": 9, "velocity": 90}, {"time": 2911, "pitch": 51, "duration": 52, "velocity": 91}, {"time": 2917, "pitch": 58, "duration": 45, "velocity": 81}, {"time": 2923, "pitch": 63, "duration": 38, "velocity": 85}, {"time": 2929, "pitch": 67, "duration": 6, "velocity": 81}, {"time": 2935, "pitch": 70, "duration": 1, "velocity": 87}, {"time": 2941, "pitch": 75, "duration": 24, "velocity": 81}, {"time": 2947, "pitch": 87, "duration": 15, "velocity": 79}, {"time": 2977, "pitch": 51, "duration": 31, "velocity": 86}, {"time": 2983, "pitch": 58, "duration": 24, "velocity": 60}, {"time": 2989, "pitch": 63, "duration": 17, "velocity": 68}, {"time": 3013, "pitch": 51, "duration": 25, "velocity": 73}, {"time": 3019, "pitch": 58, "duration": 18, "velocity": 50}, {"time": 3025, "pitch": 63, "duration": 12, "velocity": 78}, {"time": 3037, "pitch": 67, "duration": 25, "velocity": 78}, {"time": 3049, "pitch": 48, "duration": 26, "velocity": 71}, {"time": 3055, "pitch": 55, "duration": 20, "velocity": 71}, {"time": 3061, "pitch": 60, "duration": 13, "velocity": 75}, {"time": 3067, "pitch": 63, "duration": 8, "velocity": 70}, {"time": 3073, "pitch": 67, "duration": 20, "velocity": 75}, {"time": 3085, "pitch": 44, "duration": 25, "velocity": 74}, {"time": 3091, "pitch": 51, "duration": 19, "velocity": 72}, {"time": 3097, "pitch": 56, "duration": 13, "velocity": 70}, {"time": 3109, "pitch": 60, "duration": 13, "velocity": 67}, {"time": 3121, "pitch": 51, "duration": 28, "velocity": 82}, {"time": 3127, "pitch": 58, "duration": 22, "velocity": 75}, {"time": 3133, "pitch": 63, "duration": 14, "velocity": 80}, {"time": 3145, "pitch": 70, "duration": 15, "velocity": 73}, {"time": 3157, "pitch": 53, "duration": 25, "velocity": 82}, {"time": 3163, "pitch": 60, "duration": 19, "velocity": 65}, {"time": 3169, "pitch": 65, "duration": 36, "velocity": 73}, {"time": 3199, "pitch": 46, "duration": 62, "velocity": 75}, {"time": 3205, "pitch": 53, "duration": 57, "velocity": 66}, {"time": 3211, "pitch": 58, "duration": 11, "velocity": 70}, {"time": 3217, "pitch": 63, "duration": 5, "velocity": 81}, {"time": 3223, "pitch": 63, "duration": 6, "velocity": 81}, {"time": 3235, "pitch": 58, "duration": 34, "velocity": 52}, {"time": 3235, "pitch": 62, "duration": 33, "velocity": 78}, {"time": 3235, "pitch": 70, "duration": 36, "velocity": 76}, {"time": 3271, "pitch": 51, "duration": 30, "velocity": 74}, {"time": 3277, "pitch": 58, "duration": 23, "velocity": 69}, {"time": 3283, "pitch": 63, "duration": 15, "velocity": 81}, {"time": 3289, "pitch": 67, "duration": 14, "velocity": 73}, {"time": 3307, "pitch": 51, "duration": 27, "velocity": 72}, {"time": 3313, "pitch": 58, "duration": 19, "velocity": 58}, {"time": 3319, "pitch": 63, "duration": 13, "velocity": 80}, {"time": 3331, "pitch": 65, "duration": 7, "velocity": 80}, {"time": 3337, "pitch": 67, "duration": 15, "velocity": 87}, {"time": 3343, "pitch": 48, "duration": 28, "velocity": 76}, {"time": 3349, "pitch": 55, "duration": 22, "velocity": 67}, {"time": 3355, "pitch": 60, "duration": 14, "velocity": 77}, {"time": 3361, "pitch": 63, "duration": 20, "velocity": 79}, {"time": 3379, "pitch": 44, "duration": 27, "velocity": 77}, {"time": 3388, "pitch": 51, "duration": 20, "velocity": 64}, {"time": 3391, "pitch": 56, "duration": 14, "velocity": 78}, {"time": 3397, "pitch": 60, "duration": 7, "velocity": 79}, {"time": 3403, "pitch": 63, "duration": 6, "velocity": 85}, {"time": 3409, "pitch": 65, "duration": 7, "velocity": 75}, {"time": 3415, "pitch": 51, "duration": 29, "velocity": 77}, {"time": 3415, "pitch": 67, "duration": 12, "velocity": 82}, {"time": 3421, "pitch": 58, "duration": 23, "velocity": 73}, {"time": 3427, "pitch": 63, "duration": 15, "velocity": 76}, {"time": 3439, "pitch": 67, "duration": 13, "velocity": 84}, {"time": 3451, "pitch": 44, "duration": 26, "velocity": 81}, {"time": 3457, "pitch": 51, "duration": 19, "velocity": 65}, {"time": 3463, "pitch": 56, "duration": 15, "velocity": 80}, {"time": 3475, "pitch": 60, "duration": 11, "velocity": 71}, {"time": 3487, "pitch": 51, "duration": 32, "velocity": 76}, {"time": 3493, "pitch": 58, "duration": 25, "velocity": 63}, {"time": 3499, "pitch": 63, "duration": 15, "velocity": 81}, {"time": 3505, "pitch": 65, "duration": 6, "velocity": 75}, {"time": 3511, "pitch": 67, "duration": 6, "velocity": 86}, {"time": 3517, "pitch": 65, "duration": 6, "velocity": 83}, {"time": 3523, "pitch": 51, "duration": 32, "velocity": 74}, {"time": 3523, "pitch": 63, "duration": 33, "velocity": 79}, {"time": 3523, "pitch": 67, "duration": 32, "velocity": 77}, {"time": 3559, "pitch": 51, "duration": 32, "velocity": 77}, {"time": 3565, "pitch": 58, "duration": 25, "velocity": 81}, {"time": 3571, "pitch": 63, "duration": 7, "velocity": 80}, {"time": 3577, "pitch": 65, "duration": 8, "velocity": 86}, {"time": 3583, "pitch": 67, "duration": 6, "velocity": 83}, {"time": 3589, "pitch": 70, "duration": 14, "velocity": 81}, {"time": 3595, "pitch": 51, "duration": 26, "velocity": 83}, {"time": 3601, "pitch": 58, "duration": 21, "velocity": 79}, {"time": 3607, "pitch": 65, "duration": 6, "velocity": 76}, {"time": 3613, "pitch": 70, "duration": 7, "velocity": 83}, {"time": 3619, "pitch": 65, "duration": 7, "velocity": 85}, {"time": 3625, "pitch": 67, "duration": 6, "velocity": 83}, {"time": 3631, "pitch": 48, "duration": 28, "velocity": 76}, {"time": 3631, "pitch": 63, "duration": 27, "velocity": 78}, {"time": 3637, "pitch": 55, "duration": 21, "velocity": 75}, {"time": 3643, "pitch": 60, "duration": 14, "velocity": 86}, {"time": 3649, "pitch": 72, "duration": 20, "velocity": 79}, {"time": 3655, "pitch": 67, "duration": 13, "velocity": 86}, {"time": 3661, "pitch": 63, "duration": 9, "velocity": 78}, {"time": 3667, "pitch": 44, "duration": 30, "velocity": 83}, {"time": 3673, "pitch": 51, "duration": 24, "velocity": 73}, {"time": 3679, "pitch": 56, "duration": 20, "velocity": 78}, {"time": 3685, "pitch": 60, "duration": 19, "velocity": 82}, {"time": 3685, "pitch": 68, "duration": 21, "velocity": 74}, {"time": 3703, "pitch": 51, "duration": 32, "velocity": 84}, {"time": 3709, "pitch": 58, "duration": 26, "velocity": 66}, {"time": 3715, "pitch": 63, "duration": 18, "velocity": 81}, {"time": 3721, "pitch": 65, "duration": 8, "velocity": 84}, {"time": 3727, "pitch": 67, "duration": 6, "velocity": 88}, {"time": 3733, "pitch": 70, "duration": 6, "velocity": 83}, {"time": 3739, "pitch": 44, "duration": 28, "velocity": 82}, {"time": 3745, "pitch": 51, "duration": 23, "velocity": 74}, {"time": 3751, "pitch": 56, "duration": 17, "velocity": 78}, {"time": 3757, "pitch": 60, "duration": 16, "velocity": 73}, {"time": 3766, "pitch": 63, "duration": 12, "velocity": 79}, {"time": 3775, "pitch": 46, "duration": 31, "velocity": 80}, {"time": 3781, "pitch": 53, "duration": 30, "velocity": 71}, {"time": 3787, "pitch": 58, "duration": 19, "velocity": 82}, {"time": 3793, "pitch": 63, "duration": 7, "velocity": 85}, {"time": 3799, "pitch": 65, "duration": 9, "velocity": 102}, {"time": 3811, "pitch": 46, "duration": 29, "velocity": 82}, {"time": 3811, "pitch": 62, "duration": 15, "velocity": 77}, {"time": 3811, "pitch": 65, "duration": 15, "velocity": 83}, {"time": 3811, "pitch": 70, "duration": 15, "velocity": 88}, {"time": 3817, "pitch": 53, "duration": 23, "velocity": 61}, {"time": 3823, "pitch": 58, "duration": 20, "velocity": 82}, {"time": 3829, "pitch": 62, "duration": 7, "velocity": 84}, {"time": 3835, "pitch": 65, "duration": 11, "velocity": 91}, {"time": 3847, "pitch": 43, "duration": 24, "velocity": 88}, {"time": 3853, "pitch": 50, "duration": 19, "velocity": 83}, {"time": 3859, "pitch": 55, "duration": 18, "velocity": 90}, {"time": 3865, "pitch": 58, "duration": 7, "velocity": 83}, {"time": 3871, "pitch": 62, "duration": 7, "velocity": 90}, {"time": 3877, "pitch": 67, "duration": 16, "velocity": 90}, {"time": 3883, "pitch": 48, "duration": 25, "velocity": 90}, {"time": 3889, "pitch": 55, "duration": 19, "velocity": 83}, {"time": 3895, "pitch": 60, "duration": 11, "velocity": 88}, {"time": 3901, "pitch": 63, "duration": 9, "velocity": 87}, {"time": 3907, "pitch": 67, "duration": 7, "velocity": 86}, {"time": 3910, "pitch": 72, "duration": 8, "velocity": 88}, {"time": 3913, "pitch": 43, "duration": 31, "velocity": 89}, {"time": 3919, "pitch": 50, "duration": 25, "velocity": 78}, {"time": 3925, "pitch": 55, "duration": 21, "velocity": 83}, {"time": 3931, "pitch": 58, "duration": 13, "velocity": 79}, {"time": 3937, "pitch": 62, "duration": 7, "velocity": 86}, {"time": 3943, "pitch": 67, "duration": 12, "velocity": 94}, {"time": 3949, "pitch": 48, "duration": 23, "velocity": 81}, {"time": 3949, "pitch": 63, "duration": 8, "velocity": 88}, {"time": 3955, "pitch": 55, "duration": 18, "velocity": 79}, {"time": 3961, "pitch": 60, "duration": 9, "velocity": 88}, {"time": 3967, "pitch": 63, "duration": 8, "velocity": 86}, {"time": 3973, "pitch": 67, "duration": 8, "velocity": 85}, {"time": 3979, "pitch": 72, "duration": 5, "velocity": 87}, {"time": 3985, "pitch": 51, "duration": 25, "velocity": 86}, {"time": 3991, "pitch": 58, "duration": 17, "velocity": 75}, {"time": 3997, "pitch": 63, "duration": 8, "velocity": 82}, {"time": 4003, "pitch": 67, "duration": 12, "velocity": 78}, {"time": 4009, "pitch": 70, "duration": 7, "velocity": 83}, {"time": 4015, "pitch": 72, "duration": 7, "velocity": 81}, {"time": 4021, "pitch": 44, "duration": 28, "velocity": 84}, {"time": 4021, "pitch": 44, "duration": 28, "velocity": 85}, {"time": 4027, "pitch": 51, "duration": 22, "velocity": 70}, {"time": 4027, "pitch": 51, "duration": 22, "velocity": 71}, {"time": 4033, "pitch": 56, "duration": 19, "velocity": 70}, {"time": 4033, "pitch": 56, "duration": 19, "velocity": 78}, {"time": 4039, "pitch": 60, "duration": 8, "velocity": 63}, {"time": 4039, "pitch": 60, "duration": 8, "velocity": 78}, {"time": 4045, "pitch": 63, "duration": 7, "velocity": 70}, {"time": 4045, "pitch": 63, "duration": 7, "velocity": 85}, {"time": 4051, "pitch": 68, "duration": 7, "velocity": 81}, {"time": 4057, "pitch": 51, "duration": 29, "velocity": 78}, {"time": 4063, "pitch": 58, "duration": 21, "velocity": 71}, {"time": 4069, "pitch": 63, "duration": 13, "velocity": 86}, {"time": 4075, "pitch": 65, "duration": 6, "velocity": 76}, {"time": 4081, "pitch": 67, "duration": 6, "velocity": 85}, {"time": 4087, "pitch": 65, "duration": 7, "velocity": 71}, {"time": 4099, "pitch": 51, "duration": 26, "velocity": 92}, {"time": 4105, "pitch": 58, "duration": 18, "velocity": 81}, {"time": 4111, "pitch": 63, "duration": 10, "velocity": 93}, {"time": 4117, "pitch": 65, "duration": 8, "velocity": 91}, {"time": 4123, "pitch": 67, "duration": 7, "velocity": 107}, {"time": 4129, "pitch": 70, "duration": 9, "velocity": 98}, {"time": 4135, "pitch": 43, "duration": 27, "velocity": 107}, {"time": 4141, "pitch": 50, "duration": 21, "velocity": 86}, {"time": 4147, "pitch": 55, "duration": 14, "velocity": 100}, {"time": 4153, "pitch": 58, "duration": 9, "velocity": 92}, {"time": 4159, "pitch": 62, "duration": 8, "velocity": 108}, {"time": 4165, "pitch": 67, "duration": 9, "velocity": 96}, {"time": 4177, "pitch": 48, "duration": 28, "velocity": 110}, {"time": 4183, "pitch": 55, "duration": 21, "velocity": 85}, {"time": 4189, "pitch": 60, "duration": 12, "velocity": 96}, {"time": 4195, "pitch": 63, "duration": 8, "velocity": 92}, {"time": 4201, "pitch": 67, "duration": 7, "velocity": 107}, {"time": 4207, "pitch": 72, "duration": 11, "velocity": 100}, {"time": 4213, "pitch": 43, "duration": 27, "velocity": 93}, {"time": 4219, "pitch": 50, "duration": 22, "velocity": 83}, {"time": 4225, "pitch": 55, "duration": 15, "velocity": 88}, {"time": 4231, "pitch": 58, "duration": 8, "velocity": 91}, {"time": 4237, "pitch": 62, "duration": 7, "velocity": 93}, {"time": 4243, "pitch": 67, "duration": 9, "velocity": 92}, {"time": 4249, "pitch": 48, "duration": 29, "velocity": 92}, {"time": 4255, "pitch": 55, "duration": 22, "velocity": 83}, {"time": 4261, "pitch": 60, "duration": 15, "velocity": 93}, {"time": 4267, "pitch": 63, "duration": 13, "velocity": 84}, {"time": 4273, "pitch": 72, "duration": 14, "velocity": 104}, {"time": 4279, "pitch": 67, "duration": 7, "velocity": 100}, {"time": 4285, "pitch": 43, "duration": 28, "velocity": 92}, {"time": 4291, "pitch": 50, "duration": 23, "velocity": 84}, {"time": 4297, "pitch": 55, "duration": 18, "velocity": 91}, {"time": 4303, "pitch": 58, "duration": 10, "velocity": 82}, {"time": 4309, "pitch": 62, "duration": 7, "velocity": 98}, {"time": 4315, "pitch": 67, "duration": 9, "velocity": 93}, {"time": 4321, "pitch": 48, "duration": 28, "velocity": 91}, {"time": 4327, "pitch": 55, "duration": 21, "velocity": 84}, {"time": 4333, "pitch": 60, "duration": 14, "velocity": 88}, {"time": 4339, "pitch": 63, "duration": 9, "velocity": 86}, {"time": 4345, "pitch": 67, "duration": 7, "velocity": 91}, {"time": 4351, "pitch": 72, "duration": 9, "velocity": 89}, {"time": 4357, "pitch": 44, "duration": 31, "velocity": 85}, {"time": 4363, "pitch": 51, "duration": 24, "velocity": 78}, {"time": 4369, "pitch": 56, "duration": 18, "velocity": 82}, {"time": 4375, "pitch": 60, "duration": 10, "velocity": 82}, {"time": 4381, "pitch": 63, "duration": 7, "velocity": 83}, {"time": 4387, "pitch": 68, "duration": 9, "velocity": 84}, {"time": 4393, "pitch": 46, "duration": 24, "velocity": 89}, {"time": 4399, "pitch": 53, "duration": 18, "velocity": 81}, {"time": 4405, "pitch": 58, "duration": 10, "velocity": 102}, {"time": 4411, "pitch": 62, "duration": 8, "velocity": 100}, {"time": 4417, "pitch": 65, "duration": 7, "velocity": 107}, {"time": 4423, "pitch": 70, "duration": 8, "velocity": 96}, {"time": 4435, "pitch": 43, "duration": 26, "velocity": 88}, {"time": 4435, "pitch": 62, "duration": 16, "velocity": 88}, {"time": 4435, "pitch": 67, "duration": 15, "velocity": 104}, {"time": 4441, "pitch": 50, "duration": 19, "velocity": 77}, {"time": 4447, "pitch": 55, "duration": 15, "velocity": 87}, {"time": 4453, "pitch": 58, "duration": 2, "velocity": 87}, {"time": 4459, "pitch": 62, "duration": 5, "velocity": 98}, {"time": 4465, "pitch": 48, "duration": 20, "velocity": 100}, {"time": 4465, "pitch": 67, "duration": 8, "velocity": 104}, {"time": 4471, "pitch": 55, "duration": 14, "velocity": 86}, {"time": 4477, "pitch": 60, "duration": 7, "velocity": 98}, {"time": 4483, "pitch": 63, "duration": 8, "velocity": 89}, {"time": 4489, "pitch": 67, "duration": 7, "velocity": 92}, {"time": 4495, "pitch": 72, "duration": 6, "velocity": 88}, {"time": 4501, "pitch": 43, "duration": 27, "velocity": 86}, {"time": 4501, "pitch": 62, "duration": 17, "velocity": 87}, {"time": 4501, "pitch": 70, "duration": 7, "velocity": 88}, {"time": 4507, "pitch": 50, "duration": 23, "velocity": 79}, {"time": 4513, "pitch": 55, "duration": 25, "velocity": 89}, {"time": 4519, "pitch": 58, "duration": 11, "velocity": 84}, {"time": 4525, "pitch": 67, "duration": 12, "velocity": 102}, {"time": 4531, "pitch": 62, "duration": 7, "velocity": 83}, {"time": 4537, "pitch": 48, "duration": 22, "velocity": 86}, {"time": 4537, "pitch": 60, "duration": 5, "velocity": 78}, {"time": 4537, "pitch": 63, "duration": 11, "velocity": 87}, {"time": 4543, "pitch": 55, "duration": 15, "velocity": 79}, {"time": 4549, "pitch": 60, "duration": 8, "velocity": 96}, {"time": 4555, "pitch": 63, "duration": 8, "velocity": 83}, {"time": 4561, "pitch": 67, "duration": 5, "velocity": 86}, {"time": 4576, "pitch": 51, "duration": 25, "velocity": 92}, {"time": 4582, "pitch": 58, "duration": 19, "velocity": 80}, {"time": 4588, "pitch": 63, "duration": 12, "velocity": 85}, {"time": 4594, "pitch": 67, "duration": 14, "velocity": 80}, {"time": 4600, "pitch": 70, "duration": 12, "velocity": 81}, {"time": 4606, "pitch": 75, "duration": 7, "velocity": 83}, {"time": 4609, "pitch": 44, "duration": 31, "velocity": 84}, {"time": 4615, "pitch": 51, "duration": 24, "velocity": 77}, {"time": 4621, "pitch": 56, "duration": 18, "velocity": 83}, {"time": 4627, "pitch": 60, "duration": 10, "velocity": 75}, {"time": 4633, "pitch": 63, "duration": 8, "velocity": 75}, {"time": 4639, "pitch": 68, "duration": 7, "velocity": 82}, {"time": 4645, "pitch": 51, "duration": 66, "velocity": 88}, {"time": 4651, "pitch": 58, "duration": 20, "velocity": 75}, {"time": 4657, "pitch": 63, "duration": 13, "velocity": 81}, {"time": 4663, "pitch": 65, "duration": 6, "velocity": 75}, {"time": 4669, "pitch": 67, "duration": 6, "velocity": 79}, {"time": 4675, "pitch": 65, "duration": 7, "velocity": 75}, {"time": 4684, "pitch": 58, "duration": 30, "velocity": 64}, {"time": 4684, "pitch": 63, "duration": 35, "velocity": 72}, {"time": 4684, "pitch": 70, "duration": 34, "velocity": 72}, {"time": 4723, "pitch": 51, "duration": 30, "velocity": 88}, {"time": 4729, "pitch": 58, "duration": 21, "velocity": 72}, {"time": 4735, "pitch": 63, "duration": 13, "velocity": 84}, {"time": 4741, "pitch": 65, "duration": 9, "velocity": 65}, {"time": 4747, "pitch": 67, "duration": 8, "velocity": 77}, {"time": 4753, "pitch": 70, "duration": 8, "velocity": 83}, {"time": 4765, "pitch": 44, "duration": 36, "velocity": 85}, {"time": 4771, "pitch": 51, "duration": 29, "velocity": 71}, {"time": 4777, "pitch": 56, "duration": 23, "velocity": 82}, {"time": 4785, "pitch": 60, "duration": 11, "velocity": 74}, {"time": 4793, "pitch": 63, "duration": 26, "velocity": 76}, {"time": 4801, "pitch": 68, "duration": 20, "velocity": 78}, {"time": 4822, "pitch": 39, "duration": 87, "velocity": 86}, {"time": 4829, "pitch": 46, "duration": 80, "velocity": 68}, {"time": 4836, "pitch": 51, "duration": 73, "velocity": 75}, {"time": 4842, "pitch": 55, "duration": 7, "velocity": 65}, {"time": 4850, "pitch": 58, "duration": 6, "velocity": 71}, {"time": 4857, "pitch": 63, "duration": 1, "velocity": 78}, {"time": 4865, "pitch": 67, "duration": 8, "velocity": 68}, {"time": 4873, "pitch": 70, "duration": 8, "velocity": 67}, {"time": 4886, "pitch": 75, "duration": 2, "velocity": 71}, {"time": 4901, "pitch": 79, "duration": 3, "velocity": 62}, {"time": 4903, "pitch": 82, "duration": 1, "velocity": 68}, {"time": 4904, "pitch": 87, "duration": 1, "velocity": 89}], "annotations": [{"time": 33, "annotation": {"number": 64, "value": 127}, "group": "control_change"}, {"time": 64, "annotation": {"number": 64, "value": 38}, "group": "control_change"}, {"time": 64, "annotation": {"number": 64, "value": 0}, "group": "control_change"}, {"time": 67, "annotation": {"number": 64, "value": 127}, "group": "control_change"}, {"time": 99, "annotation": {"number": 64, "value": 38}, "group": "control_change"}, {"time": 99, "annotation": {"number": 64, "value": 0}, "group": "control_change"}, {"time": 102, "annotation": {"number": 64, "value": 127}, "group": "control_change"}, {"time": 135, "annotation": {"number": 64, "value": 0}, "group": "control_change"}, {"time": 138, "annotation": {"number": 64, "value": 74}, "group": "control_change"}, {"time": 138, "annotation": {"number": 64, "value": 127}, "group": "control_change"}, {"time": 172, "annotation": {"number": 64, "value": 38}, "group": "control_change"}, {"time": 172, "annotation": {"number": 64, "value": 0}, "group": "control_change"}, {"time": 175, "annotation": {"number": 64, "value": 127}, "group": "control_change"}, {"time": 206, "annotation": {"number": 64, "value": 38}, "group": "control_change"}, {"time": 207, "annotation": {"number": 64, "value": 0}, "group": "control_change"}, {"time": 210, "annotation": {"number": 64, "value": 127}, "group": "control_change"}, {"time": 219, "annotation": {"number": 64, "value": 74}, "group": "control_change"}, {"time": 219, "annotation": {"number": 64, "value": 0}, "group": "control_change"}, {"time": 334, "annotation": {"number": 64, "value": 74}, "group": "control_change"}, {"time": 334, "annotation": {"number": 64, "value": 127}, "group": "control_change"}, {"time": 353, "annotation": {"number": 64, "value": 38}, "group": "control_change"}, {"time": 353, "annotation": {"number": 64, "value": 0}, "group": "control_change"}, {"time": 355, "annotation": {"number": 64, "value": 127}, "group": "control_change"}, {"time": 371, "annotation": {"number": 64, "value": 38}, "group": "control_change"}, {"time": 372, "annotation": {"number": 64, "value": 0}, "group": "control_change"}, {"time": 387, "annotation": {"number": 64, "value": 74}, "group": "control_change"}, {"time": 387, "annotation": {"number": 64, "value": 0}, "group": "control_change"}, {"time": 390, "annotation": {"number": 64, "value": 127}, "group": "control_change"}, {"time": 423, "annotation": {"number": 64, "value": 38}, "group": "control_change"}, {"time": 423, "annotation": {"number": 64, "value": 0}, "group": "control_change"}, {"time": 426, "annotation": {"number": 64, "value": 127}, "group": "control_change"}, {"time": 461, "annotation": {"number": 64, "value": 74}, "group": "control_change"}, {"time": 461, "annotation": {"number": 64, "value": 0}, "group": "control_change"}, {"time": 463, "annotation": {"number": 64, "value": 38}, "group": "control_change"}, {"time": 463, "annotation": {"number": 64, "value": 127}, "group": "control_change"}, {"time": 496, "annotation": {"number": 64, "value": 0}, "group": "control_change"}, {"time": 498, "annotation": {"number": 64, "value": 38}, "group": "control_change"}, {"time": 498, "annotation": {"number": 64, "value": 127}, "group": "control_change"}, {"time": 500, "annotation": {"number": 64, "value": 127}, "group": "control_change"}, {"time": 507, "annotation": {"number": 64, "value": 74}, "group": "control_change"}, {"time": 507, "annotation": {"number": 64, "value": 0}, "group": "control_change"}, {"time": 531, "annotation": {"number": 64, "value": 74}, "group": "control_change"}, {"time": 531, "annotation": {"number": 64, "value": 0}, "group": "control_change"}, {"time": 534, "annotation": {"number": 64, "value": 74}, "group": "control_change"}, {"time": 534, "annotation": {"number": 64, "value": 127}, "group": "control_change"}, {"time": 607, "annotation": {"number": 64, "value": 127}, "group": "control_change"}, {"time": 639, "annotation": {"number": 64, "value": 38}, "group": "control_change"}, {"time": 639, "annotation": {"number": 64, "value": 0}, "group": "control_change"}, {"time": 642, "annotation": {"number": 64, "value": 127}, "group": "control_change"}, {"time": 675, "annotation": {"number": 64, "value": 38}, "group": "control_change"}, {"time": 675, "annotation": {"number": 64, "value": 0}, "group": "control_change"}, {"time": 678, "annotation": {"number": 64, "value": 127}, "group": "control_change"}, {"time": 749, "annotation": {"number": 64, "value": 74}, "group": "control_change"}, {"time": 749, "annotation": {"number": 64, "value": 0}, "group": "control_change"}, {"time": 752, "annotation": {"number": 64, "value": 74}, "group": "control_change"}, {"time": 752, "annotation": {"number": 64, "value": 127}, "group": "control_change"}, {"time": 787, "annotation": {"number": 64, "value": 38}, "group": "control_change"}, {"time": 788, "annotation": {"number": 64, "value": 74}, "group": "control_change"}, {"time": 788, "annotation": {"number": 64, "value": 0}, "group": "control_change"}, {"time": 788, "annotation": {"number": 64, "value": 127}, "group": "control_change"}, {"time": 789, "annotation": {"number": 64, "value": 127}, "group": "control_change"}, {"time": 801, "annotation": {"number": 64, "value": 74}, "group": "control_change"}, {"time": 801, "annotation": {"number": 64, "value": 0}, "group": "control_change"}, {"time": 821, "annotation": {"number": 64, "value": 38}, "group": "control_change"}, {"time": 822, "annotation": {"number": 64, "value": 0}, "group": "control_change"}, {"time": 824, "annotation": {"number": 64, "value": 127}, "group": "control_change"}, {"time": 893, "annotation": {"number": 64, "value": 74}, "group": "control_change"}, {"time": 894, "annotation": {"number": 64, "value": 0}, "group": "control_change"}, {"time": 896, "annotation": {"number": 64, "value": 127}, "group": "control_change"}, {"time": 930, "annotation": {"number": 64, "value": 38}, "group": "control_change"}, {"time": 930, "annotation": {"number": 64, "value": 0}, "group": "control_change"}, {"time": 932, "annotation": {"number": 64, "value": 127}, "group": "control_change"}, {"time": 965, "annotation": {"number": 64, "value": 74}, "group": "control_change"}, {"time": 966, "annotation": {"number": 64, "value": 0}, "group": "control_change"}, {"time": 967, "annotation": {"number": 64, "value": 127}, "group": "control_change"}, {"time": 1002, "annotation": {"number": 64, "value": 38}, "group": "control_change"}, {"time": 1002, "annotation": {"number": 64, "value": 0}, "group": "control_change"}, {"time": 1004, "annotation": {"number": 64, "value": 127}, "group": "control_change"}, {"time": 1038, "annotation": {"number": 64, "value": 38}, "group": "control_change"}, {"time": 1038, "annotation": {"number": 64, "value": 0}, "group": "control_change"}, {"time": 1041, "annotation": {"number": 64, "value": 127}, "group": "control_change"}, {"time": 1073, "annotation": {"number": 64, "value": 74}, "group": "control_change"}, {"time": 1073, "annotation": {"number": 64, "value": 0}, "group": "control_change"}, {"time": 1075, "annotation": {"number": 64, "value": 74}, "group": "control_change"}, {"time": 1076, "annotation": {"number": 64, "value": 127}, "group": "control_change"}, {"time": 1083, "annotation": {"number": 64, "value": 74}, "group": "control_change"}, {"time": 1083, "annotation": {"number": 64, "value": 0}, "group": "control_change"}, {"time": 1109, "annotation": {"number": 64, "value": 38}, "group": "control_change"}, {"time": 1109, "annotation": {"number": 64, "value": 0}, "group": "control_change"}, {"time": 1111, "annotation": {"number": 64, "value": 127}, "group": "control_change"}, {"time": 1181, "annotation": {"number": 64, "value": 0}, "group": "control_change"}, {"time": 1184, "annotation": {"number": 64, "value": 127}, "group": "control_change"}, {"time": 1253, "annotation": {"number": 64, "value": 74}, "group": "control_change"}, {"time": 1253, "annotation": {"number": 64, "value": 0}, "group": "control_change"}, {"time": 1255, "annotation": {"number": 64, "value": 74}, "group": "control_change"}, {"time": 1255, "annotation": {"number": 64, "value": 127}, "group": "control_change"}, {"time": 1327, "annotation": {"number": 64, "value": 0}, "group": "control_change"}, {"time": 1328, "annotation": {"number": 64, "value": 127}, "group": "control_change"}, {"time": 1365, "annotation": {"number": 64, "value": 127}, "group": "control_change"}, {"time": 1366, "annotation": {"number": 64, "value": 127}, "group": "control_change"}, {"time": 1369, "annotation": {"number": 64, "value": 38}, "group": "control_change"}, {"time": 1369, "annotation": {"number": 64, "value": 0}, "group": "control_change"}, {"time": 1374, "annotation": {"number": 64, "value": 38}, "group": "control_change"}, {"time": 1374, "annotation": {"number": 64, "value": 0}, "group": "control_change"}, {"time": 1398, "annotation": {"number": 64, "value": 0}, "group": "control_change"}, {"time": 1401, "annotation": {"number": 64, "value": 127}, "group": "control_change"}, {"time": 1469, "annotation": {"number": 64, "value": 0}, "group": "control_change"}, {"time": 1472, "annotation": {"number": 64, "value": 127}, "group": "control_change"}, {"time": 1482, "annotation": {"number": 64, "value": 127}, "group": "control_change"}, {"time": 1503, "annotation": {"number": 64, "value": 38}, "group": "control_change"}, {"time": 1503, "annotation": {"number": 64, "value": 0}, "group": "control_change"}, {"time": 1505, "annotation": {"number": 64, "value": 74}, "group": "control_change"}, {"time": 1505, "annotation": {"number": 64, "value": 0}, "group": "control_change"}, {"time": 1507, "annotation": {"number": 64, "value": 127}, "group": "control_change"}, {"time": 1539, "annotation": {"number": 64, "value": 38}, "group": "control_change"}, {"time": 1539, "annotation": {"number": 64, "value": 0}, "group": "control_change"}, {"time": 1541, "annotation": {"number": 64, "value": 127}, "group": "control_change"}, {"time": 1576, "annotation": {"number": 64, "value": 74}, "group": "control_change"}, {"time": 1576, "annotation": {"number": 64, "value": 0}, "group": "control_change"}, {"time": 1578, "annotation": {"number": 64, "value": 127}, "group": "control_change"}, {"time": 1616, "annotation": {"number": 64, "value": 0}, "group": "control_change"}, {"time": 1617, "annotation": {"number": 64, "value": 127}, "group": "control_change"}, {"time": 1618, "annotation": {"number": 64, "value": 127}, "group": "control_change"}, {"time": 1628, "annotation": {"number": 64, "value": 38}, "group": "control_change"}, {"time": 1628, "annotation": {"number": 64, "value": 0}, "group": "control_change"}, {"time": 1651, "annotation": {"number": 64, "value": 38}, "group": "control_change"}, {"time": 1651, "annotation": {"number": 64, "value": 0}, "group": "control_change"}, {"time": 1652, "annotation": {"number": 64, "value": 0}, "group": "control_change"}, {"time": 1654, "annotation": {"number": 64, "value": 127}, "group": "control_change"}, {"time": 1663, "annotation": {"number": 64, "value": 38}, "group": "control_change"}, {"time": 1663, "annotation": {"number": 64, "value": 0}, "group": "control_change"}, {"time": 1689, "annotation": {"number": 64, "value": 74}, "group": "control_change"}, {"time": 1689, "annotation": {"number": 64, "value": 0}, "group": "control_change"}, {"time": 1692, "annotation": {"number": 64, "value": 127}, "group": "control_change"}, {"time": 1726, "annotation": {"number": 64, "value": 127}, "group": "control_change"}, {"time": 1743, "annotation": {"number": 64, "value": 74}, "group": "control_change"}, {"time": 1743, "annotation": {"number": 64, "value": 0}, "group": "control_change"}, {"time": 1758, "annotation": {"number": 64, "value": 38}, "group": "control_change"}, {"time": 1759, "annotation": {"number": 64, "value": 0}, "group": "control_change"}, {"time": 1761, "annotation": {"number": 64, "value": 127}, "group": "control_change"}, {"time": 1762, "annotation": {"number": 64, "value": 127}, "group": "control_change"}, {"time": 1772, "annotation": {"number": 64, "value": 0}, "group": "control_change"}, {"time": 1792, "annotation": {"number": 64, "value": 38}, "group": "control_change"}, {"time": 1792, "annotation": {"number": 64, "value": 0}, "group": "control_change"}, {"time": 1795, "annotation": {"number": 64, "value": 127}, "group": "control_change"}, {"time": 1827, "annotation": {"number": 64, "value": 38}, "group": "control_change"}, {"time": 1827, "annotation": {"number": 64, "value": 0}, "group": "control_change"}, {"time": 1830, "annotation": {"number": 64, "value": 127}, "group": "control_change"}, {"time": 1831, "annotation": {"number": 64, "value": 127}, "group": "control_change"}, {"time": 1846, "annotation": {"number": 64, "value": 74}, "group": "control_change"}, {"time": 1846, "annotation": {"number": 64, "value": 38}, "group": "control_change"}, {"time": 1846, "annotation": {"number": 64, "value": 0}, "group": "control_change"}, {"time": 1864, "annotation": {"number": 64, "value": 38}, "group": "control_change"}, {"time": 1864, "annotation": {"number": 64, "value": 0}, "group": "control_change"}, {"time": 1868, "annotation": {"number": 64, "value": 127}, "group": "control_change"}, {"time": 1900, "annotation": {"number": 64, "value": 0}, "group": "control_change"}, {"time": 1904, "annotation": {"number": 64, "value": 127}, "group": "control_change"}, {"time": 1935, "annotation": {"number": 64, "value": 0}, "group": "control_change"}, {"time": 1938, "annotation": {"number": 64, "value": 127}, "group": "control_change"}, {"time": 1972, "annotation": {"number": 64, "value": 74}, "group": "control_change"}, {"time": 1972, "annotation": {"number": 64, "value": 0}, "group": "control_change"}, {"time": 1976, "annotation": {"number": 64, "value": 127}, "group": "control_change"}, {"time": 1977, "annotation": {"number": 64, "value": 127}, "group": "control_change"}, {"time": 1986, "annotation": {"number": 64, "value": 74}, "group": "control_change"}, {"time": 1986, "annotation": {"number": 64, "value": 38}, "group": "control_change"}, {"time": 1986, "annotation": {"number": 64, "value": 0}, "group": "control_change"}, {"time": 2008, "annotation": {"number": 64, "value": 38}, "group": "control_change"}, {"time": 2008, "annotation": {"number": 64, "value": 0}, "group": "control_change"}, {"time": 2011, "annotation": {"number": 64, "value": 127}, "group": "control_change"}, {"time": 2042, "annotation": {"number": 64, "value": 38}, "group": "control_change"}, {"time": 2042, "annotation": {"number": 64, "value": 0}, "group": "control_change"}, {"time": 2046, "annotation": {"number": 64, "value": 127}, "group": "control_change"}, {"time": 2078, "annotation": {"number": 64, "value": 0}, "group": "control_change"}, {"time": 2081, "annotation": {"number": 64, "value": 127}, "group": "control_change"}, {"time": 2114, "annotation": {"number": 64, "value": 38}, "group": "control_change"}, {"time": 2114, "annotation": {"number": 64, "value": 0}, "group": "control_change"}, {"time": 2117, "annotation": {"number": 64, "value": 127}, "group": "control_change"}, {"time": 2151, "annotation": {"number": 64, "value": 38}, "group": "control_change"}, {"time": 2151, "annotation": {"number": 64, "value": 0}, "group": "control_change"}, {"time": 2155, "annotation": {"number": 64, "value": 127}, "group": "control_change"}, {"time": 2187, "annotation": {"number": 64, "value": 74}, "group": "control_change"}, {"time": 2188, "annotation": {"number": 64, "value": 0}, "group": "control_change"}, {"time": 2192, "annotation": {"number": 64, "value": 127}, "group": "control_change"}, {"time": 2224, "annotation": {"number": 64, "value": 74}, "group": "control_change"}, {"time": 2224, "annotation": {"number": 64, "value": 0}, "group": "control_change"}, {"time": 2228, "annotation": {"number": 64, "value": 127}, "group": "control_change"}, {"time": 2262, "annotation": {"number": 64, "value": 38}, "group": "control_change"}, {"time": 2262, "annotation": {"number": 64, "value": 0}, "group": "control_change"}, {"time": 2264, "annotation": {"number": 64, "value": 127}, "group": "control_change"}, {"time": 2280, "annotation": {"number": 64, "value": 74}, "group": "control_change"}, {"time": 2280, "annotation": {"number": 64, "value": 0}, "group": "control_change"}, {"time": 2297, "annotation": {"number": 64, "value": 38}, "group": "control_change"}, {"time": 2297, "annotation": {"number": 64, "value": 0}, "group": "control_change"}, {"time": 2299, "annotation": {"number": 64, "value": 127}, "group": "control_change"}, {"time": 2332, "annotation": {"number": 64, "value": 0}, "group": "control_change"}, {"time": 2335, "annotation": {"number": 64, "value": 74}, "group": "control_change"}, {"time": 2335, "annotation": {"number": 64, "value": 127}, "group": "control_change"}, {"time": 2368, "annotation": {"number": 64, "value": 74}, "group": "control_change"}, {"time": 2369, "annotation": {"number": 64, "value": 0}, "group": "control_change"}, {"time": 2372, "annotation": {"number": 64, "value": 127}, "group": "control_change"}, {"time": 2405, "annotation": {"number": 64, "value": 38}, "group": "control_change"}, {"time": 2405, "annotation": {"number": 64, "value": 0}, "group": "control_change"}, {"time": 2407, "annotation": {"number": 64, "value": 127}, "group": "control_change"}, {"time": 2419, "annotation": {"number": 64, "value": 74}, "group": "control_change"}, {"time": 2419, "annotation": {"number": 64, "value": 38}, "group": "control_change"}, {"time": 2419, "annotation": {"number": 64, "value": 0}, "group": "control_change"}, {"time": 2440, "annotation": {"number": 64, "value": 0}, "group": "control_change"}, {"time": 2443, "annotation": {"number": 64, "value": 127}, "group": "control_change"}, {"time": 2476, "annotation": {"number": 64, "value": 38}, "group": "control_change"}, {"time": 2476, "annotation": {"number": 64, "value": 0}, "group": "control_change"}, {"time": 2480, "annotation": {"number": 64, "value": 127}, "group": "control_change"}, {"time": 2512, "annotation": {"number": 64, "value": 38}, "group": "control_change"}, {"time": 2512, "annotation": {"number": 64, "value": 0}, "group": "control_change"}, {"time": 2516, "annotation": {"number": 64, "value": 127}, "group": "control_change"}, {"time": 2551, "annotation": {"number": 64, "value": 127}, "group": "control_change"}, {"time": 2562, "annotation": {"number": 64, "value": 38}, "group": "control_change"}, {"time": 2562, "annotation": {"number": 64, "value": 0}, "group": "control_change"}, {"time": 2619, "annotation": {"number": 64, "value": 38}, "group": "control_change"}, {"time": 2619, "annotation": {"number": 64, "value": 0}, "group": "control_change"}, {"time": 2623, "annotation": {"number": 64, "value": 127}, "group": "control_change"}, {"time": 2656, "annotation": {"number": 64, "value": 38}, "group": "control_change"}, {"time": 2656, "annotation": {"number": 64, "value": 0}, "group": "control_change"}, {"time": 2658, "annotation": {"number": 64, "value": 127}, "group": "control_change"}, {"time": 2692, "annotation": {"number": 64, "value": 74}, "group": "control_change"}, {"time": 2692, "annotation": {"number": 64, "value": 0}, "group": "control_change"}, {"time": 2695, "annotation": {"number": 64, "value": 127}, "group": "control_change"}, {"time": 2728, "annotation": {"number": 64, "value": 0}, "group": "control_change"}, {"time": 2732, "annotation": {"number": 64, "value": 127}, "group": "control_change"}, {"time": 2764, "annotation": {"number": 64, "value": 38}, "group": "control_change"}, {"time": 2764, "annotation": {"number": 64, "value": 0}, "group": "control_change"}, {"time": 2767, "annotation": {"number": 64, "value": 127}, "group": "control_change"}, {"time": 2801, "annotation": {"number": 64, "value": 0}, "group": "control_change"}, {"time": 2802, "annotation": {"number": 64, "value": 127}, "group": "control_change"}, {"time": 2834, "annotation": {"number": 64, "value": 0}, "group": "control_change"}, {"time": 2841, "annotation": {"number": 64, "value": 127}, "group": "control_change"}, {"time": 2871, "annotation": {"number": 64, "value": 74}, "group": "control_change"}, {"time": 2872, "annotation": {"number": 64, "value": 38}, "group": "control_change"}, {"time": 2872, "annotation": {"number": 64, "value": 0}, "group": "control_change"}, {"time": 2875, "annotation": {"number": 64, "value": 127}, "group": "control_change"}, {"time": 2908, "annotation": {"number": 64, "value": 38}, "group": "control_change"}, {"time": 2908, "annotation": {"number": 64, "value": 0}, "group": "control_change"}, {"time": 2913, "annotation": {"number": 64, "value": 127}, "group": "control_change"}, {"time": 2977, "annotation": {"number": 64, "value": 127}, "group": "control_change"}, {"time": 3009, "annotation": {"number": 64, "value": 38}, "group": "control_change"}, {"time": 3009, "annotation": {"number": 64, "value": 0}, "group": "control_change"}, {"time": 3013, "annotation": {"number": 64, "value": 127}, "group": "control_change"}, {"time": 3045, "annotation": {"number": 64, "value": 38}, "group": "control_change"}, {"time": 3045, "annotation": {"number": 64, "value": 0}, "group": "control_change"}, {"time": 3048, "annotation": {"number": 64, "value": 127}, "group": "control_change"}, {"time": 3120, "annotation": {"number": 64, "value": 74}, "group": "control_change"}, {"time": 3120, "annotation": {"number": 64, "value": 0}, "group": "control_change"}, {"time": 3122, "annotation": {"number": 64, "value": 74}, "group": "control_change"}, {"time": 3122, "annotation": {"number": 64, "value": 127}, "group": "control_change"}, {"time": 3158, "annotation": {"number": 64, "value": 38}, "group": "control_change"}, {"time": 3158, "annotation": {"number": 64, "value": 74}, "group": "control_change"}, {"time": 3158, "annotation": {"number": 64, "value": 0}, "group": "control_change"}, {"time": 3159, "annotation": {"number": 64, "value": 74}, "group": "control_change"}, {"time": 3159, "annotation": {"number": 64, "value": 127}, "group": "control_change"}, {"time": 3171, "annotation": {"number": 64, "value": 74}, "group": "control_change"}, {"time": 3171, "annotation": {"number": 64, "value": 0}, "group": "control_change"}, {"time": 3192, "annotation": {"number": 64, "value": 38}, "group": "control_change"}, {"time": 3192, "annotation": {"number": 64, "value": 0}, "group": "control_change"}, {"time": 3195, "annotation": {"number": 64, "value": 127}, "group": "control_change"}, {"time": 3264, "annotation": {"number": 64, "value": 74}, "group": "control_change"}, {"time": 3264, "annotation": {"number": 64, "value": 0}, "group": "control_change"}, {"time": 3266, "annotation": {"number": 64, "value": 127}, "group": "control_change"}, {"time": 3300, "annotation": {"number": 64, "value": 38}, "group": "control_change"}, {"time": 3301, "annotation": {"number": 64, "value": 0}, "group": "control_change"}, {"time": 3303, "annotation": {"number": 64, "value": 127}, "group": "control_change"}, {"time": 3336, "annotation": {"number": 64, "value": 74}, "group": "control_change"}, {"time": 3336, "annotation": {"number": 64, "value": 0}, "group": "control_change"}, {"time": 3338, "annotation": {"number": 64, "value": 127}, "group": "control_change"}, {"time": 3372, "annotation": {"number": 64, "value": 38}, "group": "control_change"}, {"time": 3372, "annotation": {"number": 64, "value": 0}, "group": "control_change"}, {"time": 3375, "annotation": {"number": 64, "value": 127}, "group": "control_change"}, {"time": 3408, "annotation": {"number": 64, "value": 38}, "group": "control_change"}, {"time": 3408, "annotation": {"number": 64, "value": 0}, "group": "control_change"}, {"time": 3411, "annotation": {"number": 64, "value": 127}, "group": "control_change"}, {"time": 3443, "annotation": {"number": 64, "value": 74}, "group": "control_change"}, {"time": 3443, "annotation": {"number": 64, "value": 0}, "group": "control_change"}, {"time": 3446, "annotation": {"number": 64, "value": 74}, "group": "control_change"}, {"time": 3446, "annotation": {"number": 64, "value": 127}, "group": "control_change"}, {"time": 3453, "annotation": {"number": 64, "value": 74}, "group": "control_change"}, {"time": 3453, "annotation": {"number": 64, "value": 0}, "group": "control_change"}, {"time": 3480, "annotation": {"number": 64, "value": 38}, "group": "control_change"}, {"time": 3480, "annotation": {"number": 64, "value": 0}, "group": "control_change"}, {"time": 3482, "annotation": {"number": 64, "value": 127}, "group": "control_change"}, {"time": 3557, "annotation": {"number": 64, "value": 0}, "group": "control_change"}, {"time": 3561, "annotation": {"number": 64, "value": 127}, "group": "control_change"}, {"time": 3629, "annotation": {"number": 64, "value": 74}, "group": "control_change"}, {"time": 3629, "annotation": {"number": 64, "value": 0}, "group": "control_change"}, {"time": 3631, "annotation": {"number": 64, "value": 74}, "group": "control_change"}, {"time": 3631, "annotation": {"number": 64, "value": 127}, "group": "control_change"}, {"time": 3703, "annotation": {"number": 64, "value": 0}, "group": "control_change"}, {"time": 3705, "annotation": {"number": 64, "value": 127}, "group": "control_change"}, {"time": 3741, "annotation": {"number": 64, "value": 127}, "group": "control_change"}, {"time": 3742, "annotation": {"number": 64, "value": 127}, "group": "control_change"}, {"time": 3746, "annotation": {"number": 64, "value": 38}, "group": "control_change"}, {"time": 3746, "annotation": {"number": 64, "value": 0}, "group": "control_change"}, {"time": 3750, "annotation": {"number": 64, "value": 38}, "group": "control_change"}, {"time": 3750, "annotation": {"number": 64, "value": 0}, "group": "control_change"}, {"time": 3774, "annotation": {"number": 64, "value": 0}, "group": "control_change"}, {"time": 3777, "annotation": {"number": 64, "value": 127}, "group": "control_change"}, {"time": 3845, "annotation": {"number": 64, "value": 0}, "group": "control_change"}, {"time": 3878, "annotation": {"number": 64, "value": 0}, "group": "control_change"}, {"time": 3881, "annotation": {"number": 64, "value": 127}, "group": "control_change"}, {"time": 3914, "annotation": {"number": 64, "value": 38}, "group": "control_change"}, {"time": 3914, "annotation": {"number": 64, "value": 0}, "group": "control_change"}, {"time": 3917, "annotation": {"number": 64, "value": 127}, "group": "control_change"}, {"time": 3951, "annotation": {"number": 64, "value": 38}, "group": "control_change"}, {"time": 3951, "annotation": {"number": 64, "value": 0}, "group": "control_change"}, {"time": 3955, "annotation": {"number": 64, "value": 127}, "group": "control_change"}, {"time": 3987, "annotation": {"number": 64, "value": 74}, "group": "control_change"}, {"time": 3988, "annotation": {"number": 64, "value": 0}, "group": "control_change"}, {"time": 3992, "annotation": {"number": 64, "value": 127}, "group": "control_change"}, {"time": 4021, "annotation": {"number": 64, "value": 0}, "group": "control_change"}, {"time": 4024, "annotation": {"number": 64, "value": 127}, "group": "control_change"}, {"time": 4024, "annotation": {"number": 64, "value": 74}, "group": "control_change"}, {"time": 4024, "annotation": {"number": 64, "value": 0}, "group": "control_change"}, {"time": 4028, "annotation": {"number": 64, "value": 127}, "group": "control_change"}, {"time": 4033, "annotation": {"number": 64, "value": 38}, "group": "control_change"}, {"time": 4033, "annotation": {"number": 64, "value": 0}, "group": "control_change"}, {"time": 4059, "annotation": {"number": 64, "value": 74}, "group": "control_change"}, {"time": 4059, "annotation": {"number": 64, "value": 0}, "group": "control_change"}, {"time": 4062, "annotation": {"number": 64, "value": 38}, "group": "control_change"}, {"time": 4062, "annotation": {"number": 64, "value": 0}, "group": "control_change"}, {"time": 4062, "annotation": {"number": 64, "value": 127}, "group": "control_change"}, {"time": 4064, "annotation": {"number": 64, "value": 127}, "group": "control_change"}, {"time": 4080, "annotation": {"number": 64, "value": 74}, "group": "control_change"}, {"time": 4080, "annotation": {"number": 64, "value": 0}, "group": "control_change"}, {"time": 4096, "annotation": {"number": 64, "value": 127}, "group": "control_change"}, {"time": 4578, "annotation": {"number": 64, "value": 127}, "group": "control_change"}, {"time": 4610, "annotation": {"number": 64, "value": 38}, "group": "control_change"}, {"time": 4610, "annotation": {"number": 64, "value": 0}, "group": "control_change"}, {"time": 4611, "annotation": {"number": 64, "value": 127}, "group": "control_change"}, {"time": 4647, "annotation": {"number": 64, "value": 38}, "group": "control_change"}, {"time": 4648, "annotation": {"number": 64, "value": 0}, "group": "control_change"}, {"time": 4650, "annotation": {"number": 64, "value": 127}, "group": "control_change"}, {"time": 4720, "annotation": {"number": 64, "value": 74}, "group": "control_change"}, {"time": 4720, "annotation": {"number": 64, "value": 0}, "group": "control_change"}, {"time": 4724, "annotation": {"number": 64, "value": 127}, "group": "control_change"}, {"time": 4726, "annotation": {"number": 64, "value": 127}, "group": "control_change"}, {"time": 4739, "annotation": {"number": 64, "value": 38}, "group": "control_change"}, {"time": 4739, "annotation": {"number": 64, "value": 0}, "group": "control_change"}, {"time": 4822, "annotation": {"number": 64, "value": 0}, "group": "control_change"}, {"time": 4822, "annotation": {"number": 64, "value": 74}, "group": "control_change"}, {"time": 4826, "annotation": {"number": 64, "value": 127}, "group": "control_change"}, {"time": 4918, "annotation": {"number": 64, "value": 0}, "group": "control_change"}]}]}