{"metadata": {"schema_version": "0.2", "title": "None", "source_filename": "282.mid", "source_format": "midi"}, "resolution": 12, "tempos": [{"time": 0, "qpm": 73.00007178340392}], "time_signatures": [{"time": 0, "numerator": 4, "denominator": 4}], "tracks": [{"program": 0, "is_drum": false, "name": "MELODY", "notes": [{"time": 252, "pitch": 57, "duration": 6, "velocity": 89}, {"time": 258, "pitch": 57, "duration": 6, "velocity": 91}, {"time": 264, "pitch": 66, "duration": 6, "velocity": 86}, {"time": 270, "pitch": 64, "duration": 6, "velocity": 87}, {"time": 276, "pitch": 66, "duration": 3, "velocity": 84}, {"time": 279, "pitch": 64, "duration": 6, "velocity": 85}, {"time": 285, "pitch": 62, "duration": 15, "velocity": 88}, {"time": 300, "pitch": 57, "duration": 6, "velocity": 91}, {"time": 306, "pitch": 57, "duration": 6, "velocity": 88}, {"time": 312, "pitch": 66, "duration": 6, "velocity": 86}, {"time": 318, "pitch": 64, "duration": 6, "velocity": 90}, {"time": 324, "pitch": 66, "duration": 3, "velocity": 84}, {"time": 327, "pitch": 64, "duration": 6, "velocity": 88}, {"time": 333, "pitch": 62, "duration": 15, "velocity": 91}, {"time": 348, "pitch": 67, "duration": 6, "velocity": 100}, {"time": 354, "pitch": 67, "duration": 6, "velocity": 96}, {"time": 360, "pitch": 66, "duration": 6, "velocity": 91}, {"time": 366, "pitch": 64, "duration": 6, "velocity": 93}, {"time": 372, "pitch": 66, "duration": 3, "velocity": 86}, {"time": 375, "pitch": 64, "duration": 9, "velocity": 92}, {"time": 384, "pitch": 62, "duration": 6, "velocity": 88}, {"time": 390, "pitch": 64, "duration": 54, "velocity": 92}, {"time": 444, "pitch": 57, "duration": 6, "velocity": 88}, {"time": 450, "pitch": 57, "duration": 6, "velocity": 91}, {"time": 456, "pitch": 66, "duration": 6, "velocity": 89}, {"time": 462, "pitch": 64, "duration": 6, "velocity": 88}, {"time": 468, "pitch": 66, "duration": 4, "velocity": 83}, {"time": 471, "pitch": 64, "duration": 6, "velocity": 86}, {"time": 477, "pitch": 62, "duration": 15, "velocity": 91}, {"time": 492, "pitch": 57, "duration": 6, "velocity": 88}, {"time": 498, "pitch": 57, "duration": 6, "velocity": 94}, {"time": 504, "pitch": 66, "duration": 6, "velocity": 103}, {"time": 510, "pitch": 69, "duration": 6, "velocity": 92}, {"time": 516, "pitch": 66, "duration": 3, "velocity": 86}, {"time": 519, "pitch": 64, "duration": 6, "velocity": 91}, {"time": 525, "pitch": 62, "duration": 15, "velocity": 89}, {"time": 540, "pitch": 67, "duration": 6, "velocity": 106}, {"time": 546, "pitch": 67, "duration": 6, "velocity": 110}, {"time": 552, "pitch": 66, "duration": 6, "velocity": 106}, {"time": 558, "pitch": 64, "duration": 6, "velocity": 98}, {"time": 564, "pitch": 66, "duration": 3, "velocity": 91}, {"time": 567, "pitch": 64, "duration": 6, "velocity": 93}, {"time": 573, "pitch": 62, "duration": 9, "velocity": 88}, {"time": 582, "pitch": 69, "duration": 39, "velocity": 108}, {"time": 621, "pitch": 74, "duration": 6, "velocity": 114}, {"time": 627, "pitch": 73, "duration": 3, "velocity": 95}, {"time": 630, "pitch": 71, "duration": 6, "velocity": 102}, {"time": 636, "pitch": 71, "duration": 6, "velocity": 100}, {"time": 642, "pitch": 73, "duration": 6, "velocity": 103}, {"time": 648, "pitch": 71, "duration": 3, "velocity": 94}, {"time": 651, "pitch": 71, "duration": 6, "velocity": 96}, {"time": 657, "pitch": 66, "duration": 12, "velocity": 95}, {"time": 669, "pitch": 66, "duration": 6, "velocity": 97}, {"time": 675, "pitch": 69, "duration": 3, "velocity": 89}, {"time": 678, "pitch": 71, "duration": 6, "velocity": 93}, {"time": 684, "pitch": 71, "duration": 6, "velocity": 96}, {"time": 690, "pitch": 62, "duration": 6, "velocity": 98}, {"time": 696, "pitch": 64, "duration": 6, "velocity": 98}, {"time": 702, "pitch": 66, "duration": 15, "velocity": 91}, {"time": 717, "pitch": 66, "duration": 3, "velocity": 86}, {"time": 720, "pitch": 66, "duration": 4, "velocity": 84}, {"time": 723, "pitch": 69, "duration": 3, "velocity": 88}, {"time": 726, "pitch": 71, "duration": 3, "velocity": 91}, {"time": 729, "pitch": 69, "duration": 4, "velocity": 87}, {"time": 732, "pitch": 71, "duration": 4, "velocity": 88}, {"time": 735, "pitch": 69, "duration": 4, "velocity": 87}, {"time": 738, "pitch": 71, "duration": 6, "velocity": 91}, {"time": 744, "pitch": 69, "duration": 3, "velocity": 107}, {"time": 747, "pitch": 71, "duration": 18, "velocity": 113}, {"time": 765, "pitch": 71, "duration": 6, "velocity": 110}, {"time": 771, "pitch": 74, "duration": 3, "velocity": 100}, {"time": 774, "pitch": 76, "duration": 3, "velocity": 110}, {"time": 777, "pitch": 74, "duration": 3, "velocity": 92}, {"time": 780, "pitch": 76, "duration": 3, "velocity": 98}, {"time": 783, "pitch": 74, "duration": 3, "velocity": 91}, {"time": 786, "pitch": 78, "duration": 6, "velocity": 113}, {"time": 792, "pitch": 74, "duration": 3, "velocity": 110}, {"time": 795, "pitch": 76, "duration": 33, "velocity": 119}, {"time": 828, "pitch": 74, "duration": 6, "velocity": 116}, {"time": 834, "pitch": 74, "duration": 6, "velocity": 117}, {"time": 840, "pitch": 69, "duration": 6, "velocity": 114}, {"time": 846, "pitch": 76, "duration": 6, "velocity": 119}, {"time": 852, "pitch": 74, "duration": 4, "velocity": 108}, {"time": 855, "pitch": 73, "duration": 6, "velocity": 113}, {"time": 861, "pitch": 74, "duration": 6, "velocity": 113}, {"time": 867, "pitch": 71, "duration": 12, "velocity": 102}, {"time": 879, "pitch": 74, "duration": 3, "velocity": 100}, {"time": 882, "pitch": 74, "duration": 3, "velocity": 108}, {"time": 885, "pitch": 69, "duration": 9, "velocity": 107}, {"time": 894, "pitch": 76, "duration": 6, "velocity": 108}, {"time": 900, "pitch": 74, "duration": 4, "velocity": 102}, {"time": 903, "pitch": 73, "duration": 6, "velocity": 100}, {"time": 909, "pitch": 74, "duration": 6, "velocity": 102}, {"time": 915, "pitch": 71, "duration": 12, "velocity": 110}, {"time": 927, "pitch": 74, "duration": 3, "velocity": 107}, {"time": 930, "pitch": 74, "duration": 3, "velocity": 107}, {"time": 933, "pitch": 69, "duration": 9, "velocity": 102}, {"time": 942, "pitch": 76, "duration": 6, "velocity": 119}, {"time": 948, "pitch": 74, "duration": 3, "velocity": 110}, {"time": 951, "pitch": 76, "duration": 6, "velocity": 116}, {"time": 957, "pitch": 78, "duration": 9, "velocity": 116}, {"time": 966, "pitch": 79, "duration": 6, "velocity": 123}, {"time": 972, "pitch": 78, "duration": 3, "velocity": 113}, {"time": 975, "pitch": 74, "duration": 6, "velocity": 116}, {"time": 981, "pitch": 76, "duration": 9, "velocity": 110}, {"time": 990, "pitch": 79, "duration": 6, "velocity": 116}, {"time": 996, "pitch": 78, "duration": 4, "velocity": 106}, {"time": 999, "pitch": 74, "duration": 6, "velocity": 114}, {"time": 1005, "pitch": 76, "duration": 15, "velocity": 114}, {"time": 1020, "pitch": 74, "duration": 6, "velocity": 116}, {"time": 1026, "pitch": 74, "duration": 6, "velocity": 117}, {"time": 1032, "pitch": 69, "duration": 6, "velocity": 114}, {"time": 1038, "pitch": 76, "duration": 6, "velocity": 119}, {"time": 1044, "pitch": 74, "duration": 4, "velocity": 108}, {"time": 1047, "pitch": 73, "duration": 6, "velocity": 113}, {"time": 1053, "pitch": 74, "duration": 6, "velocity": 113}, {"time": 1059, "pitch": 71, "duration": 12, "velocity": 102}, {"time": 1071, "pitch": 74, "duration": 3, "velocity": 100}, {"time": 1074, "pitch": 74, "duration": 3, "velocity": 108}, {"time": 1077, "pitch": 69, "duration": 9, "velocity": 107}, {"time": 1086, "pitch": 76, "duration": 6, "velocity": 116}, {"time": 1092, "pitch": 74, "duration": 3, "velocity": 107}, {"time": 1095, "pitch": 76, "duration": 6, "velocity": 110}, {"time": 1101, "pitch": 78, "duration": 9, "velocity": 119}, {"time": 1110, "pitch": 79, "duration": 3, "velocity": 116}, {"time": 1113, "pitch": 78, "duration": 6, "velocity": 116}, {"time": 1119, "pitch": 74, "duration": 15, "velocity": 116}, {"time": 1134, "pitch": 79, "duration": 4, "velocity": 116}, {"time": 1137, "pitch": 78, "duration": 6, "velocity": 116}, {"time": 1143, "pitch": 74, "duration": 12, "velocity": 116}, {"time": 1155, "pitch": 69, "duration": 3, "velocity": 100}, {"time": 1158, "pitch": 79, "duration": 3, "velocity": 110}, {"time": 1161, "pitch": 78, "duration": 6, "velocity": 109}, {"time": 1167, "pitch": 74, "duration": 6, "velocity": 114}, {"time": 1173, "pitch": 76, "duration": 6, "velocity": 110}, {"time": 1179, "pitch": 74, "duration": 3, "velocity": 110}, {"time": 1182, "pitch": 76, "duration": 6, "velocity": 116}, {"time": 1188, "pitch": 78, "duration": 6, "velocity": 116}, {"time": 1194, "pitch": 74, "duration": 6, "velocity": 119}, {"time": 1200, "pitch": 73, "duration": 6, "velocity": 116}, {"time": 1206, "pitch": 74, "duration": 27, "velocity": 113}, {"time": 1404, "pitch": 57, "duration": 6, "velocity": 89}, {"time": 1410, "pitch": 57, "duration": 6, "velocity": 91}, {"time": 1416, "pitch": 66, "duration": 6, "velocity": 86}, {"time": 1422, "pitch": 64, "duration": 6, "velocity": 87}, {"time": 1428, "pitch": 66, "duration": 3, "velocity": 84}, {"time": 1431, "pitch": 64, "duration": 6, "velocity": 85}, {"time": 1437, "pitch": 62, "duration": 15, "velocity": 88}, {"time": 1452, "pitch": 57, "duration": 6, "velocity": 91}, {"time": 1458, "pitch": 57, "duration": 6, "velocity": 88}, {"time": 1464, "pitch": 66, "duration": 6, "velocity": 86}, {"time": 1470, "pitch": 64, "duration": 6, "velocity": 90}, {"time": 1476, "pitch": 66, "duration": 3, "velocity": 84}, {"time": 1479, "pitch": 64, "duration": 6, "velocity": 88}, {"time": 1485, "pitch": 62, "duration": 15, "velocity": 91}, {"time": 1500, "pitch": 67, "duration": 6, "velocity": 100}, {"time": 1506, "pitch": 67, "duration": 6, "velocity": 96}, {"time": 1512, "pitch": 66, "duration": 6, "velocity": 91}, {"time": 1518, "pitch": 64, "duration": 6, "velocity": 93}, {"time": 1524, "pitch": 66, "duration": 3, "velocity": 86}, {"time": 1527, "pitch": 64, "duration": 9, "velocity": 92}, {"time": 1536, "pitch": 62, "duration": 6, "velocity": 88}, {"time": 1542, "pitch": 64, "duration": 54, "velocity": 92}, {"time": 1596, "pitch": 57, "duration": 6, "velocity": 88}, {"time": 1602, "pitch": 57, "duration": 6, "velocity": 91}, {"time": 1608, "pitch": 66, "duration": 6, "velocity": 89}, {"time": 1614, "pitch": 64, "duration": 6, "velocity": 88}, {"time": 1620, "pitch": 66, "duration": 3, "velocity": 83}, {"time": 1623, "pitch": 64, "duration": 6, "velocity": 86}, {"time": 1629, "pitch": 62, "duration": 15, "velocity": 91}, {"time": 1644, "pitch": 57, "duration": 6, "velocity": 88}, {"time": 1650, "pitch": 57, "duration": 6, "velocity": 94}, {"time": 1656, "pitch": 66, "duration": 6, "velocity": 103}, {"time": 1662, "pitch": 69, "duration": 6, "velocity": 92}, {"time": 1668, "pitch": 66, "duration": 3, "velocity": 86}, {"time": 1671, "pitch": 64, "duration": 6, "velocity": 91}, {"time": 1677, "pitch": 62, "duration": 15, "velocity": 89}, {"time": 1692, "pitch": 67, "duration": 6, "velocity": 106}, {"time": 1698, "pitch": 67, "duration": 6, "velocity": 110}, {"time": 1704, "pitch": 66, "duration": 6, "velocity": 106}, {"time": 1710, "pitch": 64, "duration": 6, "velocity": 98}, {"time": 1716, "pitch": 66, "duration": 3, "velocity": 91}, {"time": 1719, "pitch": 64, "duration": 6, "velocity": 93}, {"time": 1725, "pitch": 62, "duration": 9, "velocity": 88}, {"time": 1734, "pitch": 69, "duration": 39, "velocity": 108}, {"time": 1773, "pitch": 74, "duration": 6, "velocity": 114}, {"time": 1779, "pitch": 73, "duration": 3, "velocity": 95}, {"time": 1782, "pitch": 71, "duration": 6, "velocity": 102}, {"time": 1788, "pitch": 71, "duration": 6, "velocity": 100}, {"time": 1794, "pitch": 73, "duration": 6, "velocity": 103}, {"time": 1800, "pitch": 71, "duration": 3, "velocity": 94}, {"time": 1803, "pitch": 71, "duration": 6, "velocity": 96}, {"time": 1809, "pitch": 66, "duration": 12, "velocity": 95}, {"time": 1821, "pitch": 66, "duration": 6, "velocity": 97}, {"time": 1827, "pitch": 69, "duration": 3, "velocity": 89}, {"time": 1830, "pitch": 71, "duration": 6, "velocity": 93}, {"time": 1836, "pitch": 71, "duration": 6, "velocity": 96}, {"time": 1842, "pitch": 62, "duration": 6, "velocity": 98}, {"time": 1848, "pitch": 64, "duration": 6, "velocity": 98}, {"time": 1854, "pitch": 66, "duration": 15, "velocity": 91}, {"time": 1869, "pitch": 66, "duration": 3, "velocity": 86}, {"time": 1872, "pitch": 66, "duration": 3, "velocity": 84}, {"time": 1875, "pitch": 69, "duration": 3, "velocity": 88}, {"time": 1878, "pitch": 71, "duration": 3, "velocity": 91}, {"time": 1881, "pitch": 69, "duration": 3, "velocity": 87}, {"time": 1884, "pitch": 71, "duration": 3, "velocity": 88}, {"time": 1887, "pitch": 69, "duration": 3, "velocity": 87}, {"time": 1890, "pitch": 71, "duration": 6, "velocity": 91}, {"time": 1896, "pitch": 69, "duration": 3, "velocity": 107}, {"time": 1899, "pitch": 71, "duration": 18, "velocity": 113}, {"time": 1917, "pitch": 71, "duration": 6, "velocity": 110}, {"time": 1923, "pitch": 74, "duration": 3, "velocity": 100}, {"time": 1926, "pitch": 76, "duration": 3, "velocity": 110}, {"time": 1929, "pitch": 74, "duration": 3, "velocity": 92}, {"time": 1932, "pitch": 76, "duration": 3, "velocity": 98}, {"time": 1935, "pitch": 74, "duration": 3, "velocity": 91}, {"time": 1938, "pitch": 78, "duration": 6, "velocity": 113}, {"time": 1944, "pitch": 74, "duration": 3, "velocity": 110}, {"time": 1947, "pitch": 76, "duration": 33, "velocity": 119}, {"time": 1980, "pitch": 74, "duration": 6, "velocity": 116}, {"time": 1986, "pitch": 74, "duration": 6, "velocity": 117}, {"time": 1992, "pitch": 69, "duration": 6, "velocity": 114}, {"time": 1998, "pitch": 76, "duration": 6, "velocity": 119}, {"time": 2004, "pitch": 74, "duration": 3, "velocity": 108}, {"time": 2007, "pitch": 73, "duration": 6, "velocity": 113}, {"time": 2013, "pitch": 74, "duration": 6, "velocity": 113}, {"time": 2019, "pitch": 71, "duration": 12, "velocity": 102}, {"time": 2031, "pitch": 74, "duration": 3, "velocity": 100}, {"time": 2034, "pitch": 74, "duration": 3, "velocity": 108}, {"time": 2037, "pitch": 69, "duration": 9, "velocity": 107}, {"time": 2046, "pitch": 76, "duration": 6, "velocity": 108}, {"time": 2052, "pitch": 74, "duration": 3, "velocity": 102}, {"time": 2055, "pitch": 73, "duration": 6, "velocity": 100}, {"time": 2061, "pitch": 74, "duration": 6, "velocity": 102}, {"time": 2067, "pitch": 71, "duration": 12, "velocity": 110}, {"time": 2079, "pitch": 74, "duration": 3, "velocity": 107}, {"time": 2082, "pitch": 74, "duration": 3, "velocity": 107}, {"time": 2085, "pitch": 69, "duration": 9, "velocity": 102}, {"time": 2094, "pitch": 76, "duration": 6, "velocity": 119}, {"time": 2100, "pitch": 74, "duration": 3, "velocity": 110}, {"time": 2103, "pitch": 76, "duration": 6, "velocity": 116}, {"time": 2109, "pitch": 78, "duration": 9, "velocity": 116}, {"time": 2118, "pitch": 79, "duration": 6, "velocity": 123}, {"time": 2124, "pitch": 78, "duration": 3, "velocity": 113}, {"time": 2127, "pitch": 74, "duration": 6, "velocity": 116}, {"time": 2133, "pitch": 76, "duration": 9, "velocity": 110}, {"time": 2142, "pitch": 79, "duration": 6, "velocity": 116}, {"time": 2148, "pitch": 78, "duration": 3, "velocity": 106}, {"time": 2151, "pitch": 74, "duration": 6, "velocity": 114}, {"time": 2157, "pitch": 76, "duration": 15, "velocity": 114}, {"time": 2172, "pitch": 74, "duration": 6, "velocity": 116}, {"time": 2178, "pitch": 74, "duration": 6, "velocity": 117}, {"time": 2184, "pitch": 69, "duration": 6, "velocity": 114}, {"time": 2190, "pitch": 76, "duration": 6, "velocity": 119}, {"time": 2196, "pitch": 74, "duration": 3, "velocity": 108}, {"time": 2199, "pitch": 73, "duration": 6, "velocity": 113}, {"time": 2205, "pitch": 74, "duration": 6, "velocity": 113}, {"time": 2211, "pitch": 71, "duration": 12, "velocity": 102}, {"time": 2223, "pitch": 74, "duration": 3, "velocity": 100}, {"time": 2226, "pitch": 74, "duration": 3, "velocity": 108}, {"time": 2229, "pitch": 69, "duration": 9, "velocity": 107}, {"time": 2238, "pitch": 76, "duration": 6, "velocity": 116}, {"time": 2244, "pitch": 74, "duration": 3, "velocity": 107}, {"time": 2247, "pitch": 76, "duration": 6, "velocity": 110}, {"time": 2253, "pitch": 78, "duration": 9, "velocity": 119}, {"time": 2262, "pitch": 79, "duration": 3, "velocity": 116}, {"time": 2265, "pitch": 78, "duration": 6, "velocity": 116}, {"time": 2271, "pitch": 74, "duration": 15, "velocity": 116}, {"time": 2286, "pitch": 79, "duration": 4, "velocity": 116}, {"time": 2289, "pitch": 78, "duration": 6, "velocity": 116}, {"time": 2295, "pitch": 74, "duration": 12, "velocity": 116}, {"time": 2307, "pitch": 69, "duration": 3, "velocity": 100}, {"time": 2310, "pitch": 79, "duration": 3, "velocity": 110}, {"time": 2313, "pitch": 78, "duration": 6, "velocity": 109}, {"time": 2319, "pitch": 74, "duration": 6, "velocity": 114}, {"time": 2325, "pitch": 76, "duration": 6, "velocity": 110}, {"time": 2331, "pitch": 74, "duration": 3, "velocity": 110}, {"time": 2334, "pitch": 76, "duration": 6, "velocity": 116}, {"time": 2340, "pitch": 78, "duration": 6, "velocity": 116}, {"time": 2346, "pitch": 74, "duration": 6, "velocity": 119}, {"time": 2352, "pitch": 73, "duration": 6, "velocity": 116}, {"time": 2358, "pitch": 74, "duration": 23, "velocity": 113}, {"time": 2562, "pitch": 74, "duration": 6, "velocity": 116}, {"time": 2568, "pitch": 74, "duration": 6, "velocity": 117}, {"time": 2574, "pitch": 69, "duration": 6, "velocity": 114}, {"time": 2580, "pitch": 76, "duration": 6, "velocity": 119}, {"time": 2586, "pitch": 74, "duration": 4, "velocity": 108}, {"time": 2589, "pitch": 73, "duration": 6, "velocity": 113}, {"time": 2595, "pitch": 74, "duration": 6, "velocity": 113}, {"time": 2601, "pitch": 71, "duration": 12, "velocity": 102}, {"time": 2613, "pitch": 74, "duration": 3, "velocity": 100}, {"time": 2616, "pitch": 74, "duration": 3, "velocity": 108}, {"time": 2619, "pitch": 69, "duration": 9, "velocity": 107}, {"time": 2628, "pitch": 76, "duration": 6, "velocity": 108}, {"time": 2634, "pitch": 74, "duration": 4, "velocity": 102}, {"time": 2637, "pitch": 73, "duration": 6, "velocity": 100}, {"time": 2643, "pitch": 74, "duration": 6, "velocity": 102}, {"time": 2649, "pitch": 71, "duration": 12, "velocity": 110}, {"time": 2661, "pitch": 74, "duration": 3, "velocity": 107}, {"time": 2664, "pitch": 74, "duration": 3, "velocity": 107}, {"time": 2667, "pitch": 69, "duration": 9, "velocity": 102}, {"time": 2676, "pitch": 76, "duration": 6, "velocity": 119}, {"time": 2682, "pitch": 74, "duration": 3, "velocity": 110}, {"time": 2685, "pitch": 76, "duration": 6, "velocity": 116}, {"time": 2691, "pitch": 78, "duration": 9, "velocity": 116}, {"time": 2700, "pitch": 79, "duration": 6, "velocity": 123}, {"time": 2706, "pitch": 78, "duration": 3, "velocity": 113}, {"time": 2709, "pitch": 74, "duration": 6, "velocity": 116}, {"time": 2715, "pitch": 76, "duration": 9, "velocity": 110}, {"time": 2724, "pitch": 79, "duration": 6, "velocity": 116}, {"time": 2730, "pitch": 78, "duration": 4, "velocity": 106}, {"time": 2733, "pitch": 74, "duration": 6, "velocity": 114}, {"time": 2739, "pitch": 76, "duration": 15, "velocity": 114}, {"time": 2754, "pitch": 74, "duration": 6, "velocity": 116}, {"time": 2760, "pitch": 74, "duration": 6, "velocity": 117}, {"time": 2766, "pitch": 69, "duration": 6, "velocity": 114}, {"time": 2772, "pitch": 76, "duration": 6, "velocity": 119}, {"time": 2778, "pitch": 74, "duration": 4, "velocity": 108}, {"time": 2781, "pitch": 73, "duration": 6, "velocity": 113}, {"time": 2787, "pitch": 74, "duration": 6, "velocity": 113}, {"time": 2793, "pitch": 71, "duration": 12, "velocity": 102}, {"time": 2805, "pitch": 74, "duration": 3, "velocity": 100}, {"time": 2808, "pitch": 74, "duration": 3, "velocity": 108}, {"time": 2811, "pitch": 69, "duration": 9, "velocity": 107}, {"time": 2820, "pitch": 76, "duration": 6, "velocity": 116}, {"time": 2826, "pitch": 74, "duration": 3, "velocity": 107}, {"time": 2829, "pitch": 76, "duration": 6, "velocity": 110}, {"time": 2835, "pitch": 78, "duration": 9, "velocity": 119}, {"time": 2844, "pitch": 79, "duration": 3, "velocity": 116}, {"time": 2847, "pitch": 78, "duration": 6, "velocity": 116}, {"time": 2853, "pitch": 74, "duration": 15, "velocity": 116}, {"time": 2868, "pitch": 79, "duration": 4, "velocity": 116}, {"time": 2871, "pitch": 78, "duration": 6, "velocity": 116}, {"time": 2877, "pitch": 74, "duration": 12, "velocity": 116}, {"time": 2889, "pitch": 69, "duration": 3, "velocity": 100}, {"time": 2892, "pitch": 79, "duration": 3, "velocity": 110}, {"time": 2895, "pitch": 78, "duration": 6, "velocity": 109}, {"time": 2901, "pitch": 74, "duration": 6, "velocity": 114}, {"time": 2907, "pitch": 76, "duration": 6, "velocity": 110}, {"time": 2913, "pitch": 74, "duration": 3, "velocity": 110}, {"time": 2916, "pitch": 76, "duration": 6, "velocity": 116}, {"time": 2922, "pitch": 78, "duration": 6, "velocity": 116}, {"time": 2928, "pitch": 74, "duration": 6, "velocity": 119}, {"time": 2934, "pitch": 73, "duration": 6, "velocity": 116}, {"time": 2940, "pitch": 74, "duration": 20, "velocity": 113}, {"time": 2993, "pitch": 74, "duration": 6, "velocity": 116}, {"time": 2999, "pitch": 74, "duration": 6, "velocity": 117}, {"time": 3005, "pitch": 69, "duration": 6, "velocity": 114}, {"time": 3011, "pitch": 76, "duration": 6, "velocity": 119}, {"time": 3017, "pitch": 74, "duration": 4, "velocity": 108}, {"time": 3020, "pitch": 73, "duration": 6, "velocity": 113}, {"time": 3026, "pitch": 74, "duration": 6, "velocity": 113}, {"time": 3032, "pitch": 71, "duration": 12, "velocity": 102}, {"time": 3044, "pitch": 74, "duration": 3, "velocity": 100}, {"time": 3047, "pitch": 74, "duration": 3, "velocity": 108}, {"time": 3050, "pitch": 69, "duration": 9, "velocity": 107}, {"time": 3059, "pitch": 76, "duration": 6, "velocity": 108}, {"time": 3065, "pitch": 74, "duration": 4, "velocity": 102}, {"time": 3068, "pitch": 73, "duration": 6, "velocity": 100}, {"time": 3074, "pitch": 74, "duration": 6, "velocity": 102}, {"time": 3080, "pitch": 71, "duration": 12, "velocity": 110}, {"time": 3092, "pitch": 74, "duration": 3, "velocity": 107}, {"time": 3095, "pitch": 74, "duration": 3, "velocity": 107}, {"time": 3098, "pitch": 69, "duration": 9, "velocity": 102}, {"time": 3107, "pitch": 76, "duration": 6, "velocity": 119}, {"time": 3113, "pitch": 74, "duration": 3, "velocity": 110}, {"time": 3116, "pitch": 76, "duration": 6, "velocity": 116}, {"time": 3122, "pitch": 78, "duration": 9, "velocity": 116}, {"time": 3131, "pitch": 79, "duration": 6, "velocity": 123}, {"time": 3137, "pitch": 78, "duration": 3, "velocity": 113}, {"time": 3140, "pitch": 74, "duration": 6, "velocity": 116}, {"time": 3146, "pitch": 76, "duration": 9, "velocity": 110}, {"time": 3155, "pitch": 79, "duration": 6, "velocity": 116}, {"time": 3161, "pitch": 78, "duration": 4, "velocity": 106}, {"time": 3164, "pitch": 74, "duration": 6, "velocity": 114}, {"time": 3170, "pitch": 76, "duration": 15, "velocity": 114}, {"time": 3185, "pitch": 74, "duration": 6, "velocity": 116}, {"time": 3191, "pitch": 74, "duration": 6, "velocity": 117}, {"time": 3197, "pitch": 69, "duration": 6, "velocity": 114}, {"time": 3203, "pitch": 76, "duration": 6, "velocity": 119}, {"time": 3209, "pitch": 74, "duration": 4, "velocity": 108}, {"time": 3212, "pitch": 73, "duration": 6, "velocity": 113}, {"time": 3218, "pitch": 74, "duration": 6, "velocity": 113}, {"time": 3224, "pitch": 71, "duration": 12, "velocity": 102}, {"time": 3236, "pitch": 74, "duration": 3, "velocity": 100}, {"time": 3239, "pitch": 74, "duration": 3, "velocity": 108}, {"time": 3242, "pitch": 69, "duration": 9, "velocity": 107}, {"time": 3251, "pitch": 76, "duration": 6, "velocity": 116}, {"time": 3257, "pitch": 74, "duration": 3, "velocity": 107}, {"time": 3260, "pitch": 76, "duration": 6, "velocity": 110}, {"time": 3266, "pitch": 78, "duration": 9, "velocity": 119}, {"time": 3275, "pitch": 79, "duration": 4, "velocity": 116}, {"time": 3278, "pitch": 78, "duration": 6, "velocity": 116}, {"time": 3284, "pitch": 74, "duration": 15, "velocity": 116}, {"time": 3299, "pitch": 79, "duration": 5, "velocity": 116}, {"time": 3302, "pitch": 78, "duration": 6, "velocity": 116}, {"time": 3308, "pitch": 74, "duration": 12, "velocity": 116}, {"time": 3320, "pitch": 69, "duration": 3, "velocity": 100}, {"time": 3323, "pitch": 79, "duration": 4, "velocity": 110}, {"time": 3326, "pitch": 78, "duration": 6, "velocity": 109}, {"time": 3332, "pitch": 74, "duration": 6, "velocity": 114}, {"time": 3338, "pitch": 76, "duration": 6, "velocity": 110}, {"time": 3344, "pitch": 74, "duration": 3, "velocity": 110}, {"time": 3347, "pitch": 76, "duration": 6, "velocity": 116}, {"time": 3353, "pitch": 78, "duration": 6, "velocity": 116}, {"time": 3359, "pitch": 74, "duration": 6, "velocity": 119}, {"time": 3365, "pitch": 73, "duration": 6, "velocity": 116}, {"time": 3371, "pitch": 74, "duration": 37, "velocity": 113}]}, {"program": 0, "is_drum": false, "name": "BRIDGE", "notes": [{"time": 24, "pitch": 69, "duration": 4, "velocity": 93}, {"time": 30, "pitch": 62, "duration": 6, "velocity": 82}, {"time": 36, "pitch": 69, "duration": 6, "velocity": 86}, {"time": 42, "pitch": 64, "duration": 5, "velocity": 83}, {"time": 54, "pitch": 66, "duration": 7, "velocity": 116}, {"time": 66, "pitch": 66, "duration": 6, "velocity": 113}, {"time": 72, "pitch": 62, "duration": 4, "velocity": 96}, {"time": 78, "pitch": 64, "duration": 5, "velocity": 108}, {"time": 96, "pitch": 62, "duration": 2, "velocity": 96}, {"time": 99, "pitch": 64, "duration": 3, "velocity": 93}, {"time": 102, "pitch": 66, "duration": 5, "velocity": 95}, {"time": 108, "pitch": 67, "duration": 6, "velocity": 91}, {"time": 114, "pitch": 69, "duration": 6, "velocity": 92}, {"time": 120, "pitch": 66, "duration": 6, "velocity": 86}, {"time": 126, "pitch": 62, "duration": 5, "velocity": 89}, {"time": 138, "pitch": 64, "duration": 4, "velocity": 102}, {"time": 144, "pitch": 64, "duration": 6, "velocity": 104}, {"time": 150, "pitch": 62, "duration": 8, "velocity": 98}, {"time": 162, "pitch": 62, "duration": 3, "velocity": 98}, {"time": 168, "pitch": 62, "duration": 6, "velocity": 94}, {"time": 174, "pitch": 61, "duration": 9, "velocity": 93}, {"time": 186, "pitch": 59, "duration": 7, "velocity": 91}, {"time": 192, "pitch": 61, "duration": 6, "velocity": 86}, {"time": 198, "pitch": 62, "duration": 16, "velocity": 88}, {"time": 411, "pitch": 69, "duration": 2, "velocity": 91}, {"time": 414, "pitch": 74, "duration": 13, "velocity": 108}, {"time": 426, "pitch": 73, "duration": 13, "velocity": 93}, {"time": 438, "pitch": 74, "duration": 8, "velocity": 94}, {"time": 606, "pitch": 74, "duration": 13, "velocity": 108}, {"time": 618, "pitch": 76, "duration": 13, "velocity": 100}, {"time": 630, "pitch": 78, "duration": 6, "velocity": 89}, {"time": 1248, "pitch": 62, "duration": 2, "velocity": 96}, {"time": 1251, "pitch": 64, "duration": 3, "velocity": 93}, {"time": 1254, "pitch": 66, "duration": 5, "velocity": 95}, {"time": 1260, "pitch": 67, "duration": 6, "velocity": 91}, {"time": 1266, "pitch": 69, "duration": 6, "velocity": 92}, {"time": 1272, "pitch": 66, "duration": 6, "velocity": 86}, {"time": 1278, "pitch": 62, "duration": 5, "velocity": 89}, {"time": 1290, "pitch": 64, "duration": 4, "velocity": 102}, {"time": 1296, "pitch": 64, "duration": 6, "velocity": 104}, {"time": 1302, "pitch": 62, "duration": 8, "velocity": 98}, {"time": 1314, "pitch": 62, "duration": 3, "velocity": 98}, {"time": 1320, "pitch": 62, "duration": 6, "velocity": 94}, {"time": 1326, "pitch": 61, "duration": 9, "velocity": 93}, {"time": 1338, "pitch": 59, "duration": 7, "velocity": 91}, {"time": 1344, "pitch": 61, "duration": 6, "velocity": 86}, {"time": 1350, "pitch": 62, "duration": 16, "velocity": 88}, {"time": 1565, "pitch": 74, "duration": 13, "velocity": 108}, {"time": 1577, "pitch": 73, "duration": 11, "velocity": 116}, {"time": 1589, "pitch": 69, "duration": 7, "velocity": 104}, {"time": 1974, "pitch": 66, "duration": 10, "velocity": 109}, {"time": 1986, "pitch": 69, "duration": 10, "velocity": 113}, {"time": 1998, "pitch": 71, "duration": 12, "velocity": 108}, {"time": 2010, "pitch": 69, "duration": 12, "velocity": 110}, {"time": 2022, "pitch": 66, "duration": 9, "velocity": 109}, {"time": 2046, "pitch": 69, "duration": 7, "velocity": 114}, {"time": 2052, "pitch": 67, "duration": 7, "velocity": 102}, {"time": 2058, "pitch": 66, "duration": 6, "velocity": 113}, {"time": 2064, "pitch": 64, "duration": 6, "velocity": 98}, {"time": 2070, "pitch": 62, "duration": 15, "velocity": 94}, {"time": 2094, "pitch": 66, "duration": 22, "velocity": 116}, {"time": 2118, "pitch": 71, "duration": 11, "velocity": 113}, {"time": 2130, "pitch": 73, "duration": 11, "velocity": 109}, {"time": 2142, "pitch": 74, "duration": 13, "velocity": 114}, {"time": 2154, "pitch": 73, "duration": 12, "velocity": 116}, {"time": 2166, "pitch": 69, "duration": 24, "velocity": 90}, {"time": 2190, "pitch": 78, "duration": 12, "velocity": 103}, {"time": 2202, "pitch": 76, "duration": 12, "velocity": 92}, {"time": 2214, "pitch": 74, "duration": 23, "velocity": 107}, {"time": 2238, "pitch": 73, "duration": 12, "velocity": 106}, {"time": 2250, "pitch": 74, "duration": 12, "velocity": 110}, {"time": 2262, "pitch": 71, "duration": 17, "velocity": 94}, {"time": 2286, "pitch": 74, "duration": 11, "velocity": 107}, {"time": 2295, "pitch": 69, "duration": 15, "velocity": 93}, {"time": 2301, "pitch": 73, "duration": 6, "velocity": 116}, {"time": 2310, "pitch": 74, "duration": 22, "velocity": 113}, {"time": 2406, "pitch": 74, "duration": 26, "velocity": 114}, {"time": 2430, "pitch": 73, "duration": 11, "velocity": 116}, {"time": 2442, "pitch": 69, "duration": 13, "velocity": 117}, {"time": 2454, "pitch": 67, "duration": 4, "velocity": 97}, {"time": 2458, "pitch": 66, "duration": 4, "velocity": 93}, {"time": 2462, "pitch": 67, "duration": 4, "velocity": 93}, {"time": 2466, "pitch": 69, "duration": 4, "velocity": 100}, {"time": 2466, "pitch": 73, "duration": 4, "velocity": 97}, {"time": 2470, "pitch": 67, "duration": 4, "velocity": 88}, {"time": 2474, "pitch": 69, "duration": 4, "velocity": 87}, {"time": 2478, "pitch": 71, "duration": 6, "velocity": 91}, {"time": 2478, "pitch": 74, "duration": 5, "velocity": 97}, {"time": 2482, "pitch": 69, "duration": 4, "velocity": 87}, {"time": 2486, "pitch": 71, "duration": 4, "velocity": 89}, {"time": 2490, "pitch": 73, "duration": 4, "velocity": 108}, {"time": 2490, "pitch": 76, "duration": 4, "velocity": 97}, {"time": 2494, "pitch": 71, "duration": 4, "velocity": 87}, {"time": 2498, "pitch": 73, "duration": 4, "velocity": 90}, {"time": 2502, "pitch": 62, "duration": 5, "velocity": 97}, {"time": 2502, "pitch": 74, "duration": 8, "velocity": 114}, {"time": 2506, "pitch": 61, "duration": 4, "velocity": 82}, {"time": 2510, "pitch": 62, "duration": 4, "velocity": 89}, {"time": 2514, "pitch": 64, "duration": 5, "velocity": 114}, {"time": 2518, "pitch": 62, "duration": 4, "velocity": 97}, {"time": 2522, "pitch": 64, "duration": 4, "velocity": 97}, {"time": 2526, "pitch": 66, "duration": 5, "velocity": 113}, {"time": 2530, "pitch": 64, "duration": 4, "velocity": 97}, {"time": 2530, "pitch": 76, "duration": 4, "velocity": 97}, {"time": 2535, "pitch": 66, "duration": 3, "velocity": 97}, {"time": 2535, "pitch": 78, "duration": 3, "velocity": 97}, {"time": 2540, "pitch": 69, "duration": 14, "velocity": 108}, {"time": 2540, "pitch": 81, "duration": 9, "velocity": 97}, {"time": 2580, "pitch": 66, "duration": 10, "velocity": 109}, {"time": 2592, "pitch": 69, "duration": 10, "velocity": 113}, {"time": 2604, "pitch": 71, "duration": 12, "velocity": 108}, {"time": 2616, "pitch": 69, "duration": 12, "velocity": 110}, {"time": 2628, "pitch": 66, "duration": 9, "velocity": 109}, {"time": 2652, "pitch": 69, "duration": 7, "velocity": 114}, {"time": 2658, "pitch": 67, "duration": 7, "velocity": 102}, {"time": 2664, "pitch": 66, "duration": 6, "velocity": 113}, {"time": 2670, "pitch": 64, "duration": 6, "velocity": 98}, {"time": 2676, "pitch": 62, "duration": 15, "velocity": 94}, {"time": 2700, "pitch": 66, "duration": 22, "velocity": 116}, {"time": 2724, "pitch": 71, "duration": 11, "velocity": 113}, {"time": 2736, "pitch": 73, "duration": 11, "velocity": 109}, {"time": 2748, "pitch": 74, "duration": 13, "velocity": 114}, {"time": 2760, "pitch": 73, "duration": 12, "velocity": 116}, {"time": 2772, "pitch": 69, "duration": 24, "velocity": 90}, {"time": 2796, "pitch": 78, "duration": 12, "velocity": 103}, {"time": 2808, "pitch": 76, "duration": 12, "velocity": 92}, {"time": 2820, "pitch": 74, "duration": 23, "velocity": 107}, {"time": 2844, "pitch": 73, "duration": 12, "velocity": 106}, {"time": 2856, "pitch": 74, "duration": 12, "velocity": 110}, {"time": 2868, "pitch": 71, "duration": 17, "velocity": 94}, {"time": 2892, "pitch": 74, "duration": 11, "velocity": 107}, {"time": 2901, "pitch": 69, "duration": 15, "velocity": 93}, {"time": 2907, "pitch": 73, "duration": 6, "velocity": 116}, {"time": 2916, "pitch": 74, "duration": 22, "velocity": 113}, {"time": 2934, "pitch": 64, "duration": 4, "velocity": 104}, {"time": 2937, "pitch": 66, "duration": 2, "velocity": 97}, {"time": 2940, "pitch": 67, "duration": 5, "velocity": 113}, {"time": 2946, "pitch": 66, "duration": 3, "velocity": 103}, {"time": 2949, "pitch": 67, "duration": 3, "velocity": 94}, {"time": 2952, "pitch": 69, "duration": 4, "velocity": 108}, {"time": 2958, "pitch": 67, "duration": 4, "velocity": 96}, {"time": 2961, "pitch": 69, "duration": 2, "velocity": 93}, {"time": 2964, "pitch": 71, "duration": 4, "velocity": 116}, {"time": 2970, "pitch": 69, "duration": 3, "velocity": 100}, {"time": 2973, "pitch": 71, "duration": 2, "velocity": 104}, {"time": 2976, "pitch": 73, "duration": 2, "velocity": 106}, {"time": 2979, "pitch": 73, "duration": 4, "velocity": 123}, {"time": 3011, "pitch": 66, "duration": 10, "velocity": 109}, {"time": 3023, "pitch": 69, "duration": 11, "velocity": 113}, {"time": 3035, "pitch": 71, "duration": 13, "velocity": 108}, {"time": 3047, "pitch": 69, "duration": 12, "velocity": 110}, {"time": 3059, "pitch": 66, "duration": 9, "velocity": 109}, {"time": 3083, "pitch": 69, "duration": 7, "velocity": 114}, {"time": 3089, "pitch": 67, "duration": 7, "velocity": 102}, {"time": 3095, "pitch": 66, "duration": 6, "velocity": 113}, {"time": 3101, "pitch": 64, "duration": 6, "velocity": 98}, {"time": 3107, "pitch": 62, "duration": 15, "velocity": 94}, {"time": 3131, "pitch": 66, "duration": 22, "velocity": 116}, {"time": 3155, "pitch": 71, "duration": 11, "velocity": 113}, {"time": 3167, "pitch": 73, "duration": 11, "velocity": 109}, {"time": 3179, "pitch": 74, "duration": 13, "velocity": 114}, {"time": 3191, "pitch": 73, "duration": 13, "velocity": 116}, {"time": 3203, "pitch": 69, "duration": 24, "velocity": 90}, {"time": 3227, "pitch": 74, "duration": 24, "velocity": 103}, {"time": 3252, "pitch": 73, "duration": 3, "velocity": 80}, {"time": 3255, "pitch": 66, "duration": 2, "velocity": 80}, {"time": 3258, "pitch": 69, "duration": 3, "velocity": 81}, {"time": 3261, "pitch": 66, "duration": 2, "velocity": 82}, {"time": 3264, "pitch": 73, "duration": 3, "velocity": 82}, {"time": 3267, "pitch": 66, "duration": 3, "velocity": 83}, {"time": 3270, "pitch": 69, "duration": 3, "velocity": 84}, {"time": 3273, "pitch": 66, "duration": 1, "velocity": 84}, {"time": 3276, "pitch": 74, "duration": 3, "velocity": 84}, {"time": 3279, "pitch": 67, "duration": 3, "velocity": 84}, {"time": 3282, "pitch": 71, "duration": 3, "velocity": 84}, {"time": 3285, "pitch": 67, "duration": 2, "velocity": 84}, {"time": 3288, "pitch": 74, "duration": 3, "velocity": 84}, {"time": 3291, "pitch": 67, "duration": 3, "velocity": 84}, {"time": 3294, "pitch": 71, "duration": 3, "velocity": 84}, {"time": 3297, "pitch": 67, "duration": 2, "velocity": 84}, {"time": 3300, "pitch": 74, "duration": 4, "velocity": 84}, {"time": 3303, "pitch": 66, "duration": 3, "velocity": 84}, {"time": 3306, "pitch": 69, "duration": 3, "velocity": 84}, {"time": 3309, "pitch": 66, "duration": 2, "velocity": 84}, {"time": 3312, "pitch": 74, "duration": 3, "velocity": 84}, {"time": 3315, "pitch": 66, "duration": 3, "velocity": 84}, {"time": 3318, "pitch": 69, "duration": 3, "velocity": 84}, {"time": 3321, "pitch": 66, "duration": 1, "velocity": 84}, {"time": 3324, "pitch": 74, "duration": 4, "velocity": 84}, {"time": 3327, "pitch": 67, "duration": 2, "velocity": 84}, {"time": 3330, "pitch": 71, "duration": 3, "velocity": 84}, {"time": 3333, "pitch": 67, "duration": 3, "velocity": 84}, {"time": 3336, "pitch": 74, "duration": 3, "velocity": 84}, {"time": 3339, "pitch": 67, "duration": 3, "velocity": 84}, {"time": 3342, "pitch": 71, "duration": 3, "velocity": 84}, {"time": 3345, "pitch": 67, "duration": 1, "velocity": 84}, {"time": 3347, "pitch": 76, "duration": 4, "velocity": 84}, {"time": 3347, "pitch": 81, "duration": 9, "velocity": 84}, {"time": 3359, "pitch": 79, "duration": 6, "velocity": 84}, {"time": 3360, "pitch": 74, "duration": 6, "velocity": 84}, {"time": 3372, "pitch": 81, "duration": 36, "velocity": 84}, {"time": 3372, "pitch": 74, "duration": 36, "velocity": 85}, {"time": 3383, "pitch": 66, "duration": 5, "velocity": 76}, {"time": 3383, "pitch": 69, "duration": 6, "velocity": 76}, {"time": 3396, "pitch": 69, "duration": 10, "velocity": 76}, {"time": 3413, "pitch": 62, "duration": 3, "velocity": 96}, {"time": 3416, "pitch": 64, "duration": 3, "velocity": 93}, {"time": 3419, "pitch": 66, "duration": 6, "velocity": 95}, {"time": 3425, "pitch": 67, "duration": 6, "velocity": 91}, {"time": 3431, "pitch": 69, "duration": 6, "velocity": 92}, {"time": 3437, "pitch": 66, "duration": 6, "velocity": 86}, {"time": 3443, "pitch": 62, "duration": 6, "velocity": 89}, {"time": 3444, "pitch": 67, "duration": 11, "velocity": 113}, {"time": 3455, "pitch": 64, "duration": 6, "velocity": 102}, {"time": 3461, "pitch": 64, "duration": 6, "velocity": 104}, {"time": 3467, "pitch": 62, "duration": 12, "velocity": 98}, {"time": 3479, "pitch": 62, "duration": 6, "velocity": 98}, {"time": 3485, "pitch": 62, "duration": 6, "velocity": 94}, {"time": 3491, "pitch": 61, "duration": 12, "velocity": 93}, {"time": 3503, "pitch": 59, "duration": 7, "velocity": 91}, {"time": 3509, "pitch": 61, "duration": 7, "velocity": 86}, {"time": 3515, "pitch": 62, "duration": 23, "velocity": 88}]}, {"program": 0, "is_drum": false, "name": "PIANO", "notes": [{"time": 54, "pitch": 50, "duration": 24, "velocity": 85}, {"time": 54, "pitch": 62, "duration": 10, "velocity": 80}, {"time": 54, "pitch": 66, "duration": 10, "velocity": 82}, {"time": 54, "pitch": 69, "duration": 8, "velocity": 81}, {"time": 66, "pitch": 62, "duration": 7, "velocity": 83}, {"time": 66, "pitch": 66, "duration": 8, "velocity": 83}, {"time": 66, "pitch": 69, "duration": 8, "velocity": 82}, {"time": 78, "pitch": 45, "duration": 16, "velocity": 70}, {"time": 78, "pitch": 61, "duration": 9, "velocity": 80}, {"time": 78, "pitch": 64, "duration": 7, "velocity": 83}, {"time": 78, "pitch": 69, "duration": 7, "velocity": 85}, {"time": 90, "pitch": 61, "duration": 5, "velocity": 77}, {"time": 90, "pitch": 64, "duration": 9, "velocity": 36}, {"time": 90, "pitch": 69, "duration": 9, "velocity": 84}, {"time": 102, "pitch": 47, "duration": 13, "velocity": 79}, {"time": 102, "pitch": 62, "duration": 9, "velocity": 83}, {"time": 102, "pitch": 66, "duration": 9, "velocity": 82}, {"time": 102, "pitch": 69, "duration": 8, "velocity": 83}, {"time": 114, "pitch": 62, "duration": 4, "velocity": 82}, {"time": 114, "pitch": 66, "duration": 5, "velocity": 83}, {"time": 114, "pitch": 69, "duration": 5, "velocity": 85}, {"time": 126, "pitch": 43, "duration": 15, "velocity": 78}, {"time": 126, "pitch": 59, "duration": 9, "velocity": 77}, {"time": 126, "pitch": 62, "duration": 9, "velocity": 80}, {"time": 126, "pitch": 67, "duration": 8, "velocity": 81}, {"time": 138, "pitch": 59, "duration": 5, "velocity": 81}, {"time": 138, "pitch": 62, "duration": 6, "velocity": 84}, {"time": 138, "pitch": 67, "duration": 6, "velocity": 82}, {"time": 150, "pitch": 38, "duration": 13, "velocity": 79}, {"time": 150, "pitch": 50, "duration": 14, "velocity": 76}, {"time": 150, "pitch": 62, "duration": 8, "velocity": 81}, {"time": 150, "pitch": 66, "duration": 9, "velocity": 80}, {"time": 150, "pitch": 69, "duration": 7, "velocity": 82}, {"time": 162, "pitch": 62, "duration": 7, "velocity": 84}, {"time": 162, "pitch": 66, "duration": 8, "velocity": 79}, {"time": 162, "pitch": 69, "duration": 7, "velocity": 82}, {"time": 174, "pitch": 45, "duration": 14, "velocity": 76}, {"time": 174, "pitch": 61, "duration": 8, "velocity": 83}, {"time": 174, "pitch": 64, "duration": 8, "velocity": 86}, {"time": 174, "pitch": 69, "duration": 8, "velocity": 77}, {"time": 186, "pitch": 61, "duration": 6, "velocity": 80}, {"time": 186, "pitch": 64, "duration": 9, "velocity": 83}, {"time": 186, "pitch": 69, "duration": 9, "velocity": 87}, {"time": 198, "pitch": 38, "duration": 30, "velocity": 81}, {"time": 198, "pitch": 50, "duration": 30, "velocity": 78}, {"time": 198, "pitch": 62, "duration": 9, "velocity": 83}, {"time": 198, "pitch": 66, "duration": 9, "velocity": 83}, {"time": 198, "pitch": 69, "duration": 8, "velocity": 82}, {"time": 210, "pitch": 62, "duration": 8, "velocity": 74}, {"time": 210, "pitch": 66, "duration": 8, "velocity": 74}, {"time": 210, "pitch": 69, "duration": 7, "velocity": 69}, {"time": 222, "pitch": 62, "duration": 8, "velocity": 75}, {"time": 222, "pitch": 66, "duration": 8, "velocity": 74}, {"time": 222, "pitch": 69, "duration": 8, "velocity": 75}, {"time": 246, "pitch": 50, "duration": 37, "velocity": 98}, {"time": 252, "pitch": 57, "duration": 7, "velocity": 48}, {"time": 258, "pitch": 62, "duration": 8, "velocity": 78}, {"time": 258, "pitch": 69, "duration": 6, "velocity": 85}, {"time": 264, "pitch": 57, "duration": 7, "velocity": 40}, {"time": 270, "pitch": 62, "duration": 7, "velocity": 73}, {"time": 270, "pitch": 66, "duration": 6, "velocity": 72}, {"time": 270, "pitch": 69, "duration": 6, "velocity": 70}, {"time": 276, "pitch": 57, "duration": 7, "velocity": 40}, {"time": 282, "pitch": 62, "duration": 10, "velocity": 90}, {"time": 282, "pitch": 69, "duration": 7, "velocity": 89}, {"time": 288, "pitch": 49, "duration": 7, "velocity": 77}, {"time": 294, "pitch": 47, "duration": 26, "velocity": 80}, {"time": 294, "pitch": 62, "duration": 7, "velocity": 78}, {"time": 294, "pitch": 66, "duration": 7, "velocity": 81}, {"time": 294, "pitch": 69, "duration": 6, "velocity": 80}, {"time": 300, "pitch": 54, "duration": 32, "velocity": 71}, {"time": 306, "pitch": 62, "duration": 7, "velocity": 77}, {"time": 306, "pitch": 66, "duration": 6, "velocity": 70}, {"time": 306, "pitch": 69, "duration": 6, "velocity": 79}, {"time": 318, "pitch": 62, "duration": 8, "velocity": 81}, {"time": 318, "pitch": 69, "duration": 7, "velocity": 84}, {"time": 327, "pitch": 47, "duration": 7, "velocity": 30}, {"time": 330, "pitch": 62, "duration": 6, "velocity": 89}, {"time": 330, "pitch": 69, "duration": 8, "velocity": 89}, {"time": 336, "pitch": 66, "duration": 6, "velocity": 62}, {"time": 342, "pitch": 43, "duration": 43, "velocity": 75}, {"time": 342, "pitch": 55, "duration": 18, "velocity": 70}, {"time": 342, "pitch": 59, "duration": 9, "velocity": 82}, {"time": 342, "pitch": 67, "duration": 7, "velocity": 85}, {"time": 354, "pitch": 59, "duration": 9, "velocity": 86}, {"time": 354, "pitch": 67, "duration": 7, "velocity": 88}, {"time": 366, "pitch": 59, "duration": 7, "velocity": 87}, {"time": 366, "pitch": 67, "duration": 7, "velocity": 87}, {"time": 378, "pitch": 59, "duration": 6, "velocity": 87}, {"time": 378, "pitch": 67, "duration": 9, "velocity": 87}, {"time": 390, "pitch": 45, "duration": 40, "velocity": 71}, {"time": 390, "pitch": 57, "duration": 9, "velocity": 67}, {"time": 390, "pitch": 61, "duration": 1, "velocity": 71}, {"time": 390, "pitch": 67, "duration": 6, "velocity": 85}, {"time": 396, "pitch": 52, "duration": 6, "velocity": 38}, {"time": 402, "pitch": 62, "duration": 12, "velocity": 88}, {"time": 408, "pitch": 52, "duration": 6, "velocity": 42}, {"time": 414, "pitch": 57, "duration": 9, "velocity": 77}, {"time": 414, "pitch": 64, "duration": 9, "velocity": 75}, {"time": 420, "pitch": 52, "duration": 9, "velocity": 44}, {"time": 426, "pitch": 57, "duration": 5, "velocity": 87}, {"time": 438, "pitch": 50, "duration": 40, "velocity": 82}, {"time": 438, "pitch": 62, "duration": 8, "velocity": 87}, {"time": 438, "pitch": 69, "duration": 6, "velocity": 88}, {"time": 444, "pitch": 57, "duration": 7, "velocity": 64}, {"time": 450, "pitch": 62, "duration": 12, "velocity": 84}, {"time": 450, "pitch": 69, "duration": 6, "velocity": 83}, {"time": 456, "pitch": 57, "duration": 7, "velocity": 66}, {"time": 462, "pitch": 64, "duration": 12, "velocity": 86}, {"time": 468, "pitch": 57, "duration": 10, "velocity": 56}, {"time": 474, "pitch": 62, "duration": 8, "velocity": 87}, {"time": 474, "pitch": 69, "duration": 5, "velocity": 87}, {"time": 480, "pitch": 49, "duration": 6, "velocity": 76}, {"time": 486, "pitch": 47, "duration": 39, "velocity": 83}, {"time": 492, "pitch": 54, "duration": 33, "velocity": 74}, {"time": 498, "pitch": 62, "duration": 7, "velocity": 84}, {"time": 498, "pitch": 69, "duration": 6, "velocity": 84}, {"time": 504, "pitch": 57, "duration": 20, "velocity": 64}, {"time": 510, "pitch": 62, "duration": 8, "velocity": 76}, {"time": 510, "pitch": 69, "duration": 7, "velocity": 77}, {"time": 522, "pitch": 62, "duration": 7, "velocity": 88}, {"time": 522, "pitch": 69, "duration": 7, "velocity": 86}, {"time": 534, "pitch": 43, "duration": 42, "velocity": 88}, {"time": 540, "pitch": 55, "duration": 7, "velocity": 70}, {"time": 546, "pitch": 59, "duration": 8, "velocity": 83}, {"time": 546, "pitch": 67, "duration": 7, "velocity": 86}, {"time": 552, "pitch": 55, "duration": 6, "velocity": 65}, {"time": 558, "pitch": 59, "duration": 9, "velocity": 75}, {"time": 558, "pitch": 67, "duration": 7, "velocity": 81}, {"time": 564, "pitch": 55, "duration": 13, "velocity": 68}, {"time": 570, "pitch": 62, "duration": 6, "velocity": 84}, {"time": 576, "pitch": 67, "duration": 9, "velocity": 81}, {"time": 582, "pitch": 45, "duration": 41, "velocity": 88}, {"time": 588, "pitch": 52, "duration": 20, "velocity": 77}, {"time": 594, "pitch": 62, "duration": 5, "velocity": 102}, {"time": 600, "pitch": 57, "duration": 8, "velocity": 79}, {"time": 606, "pitch": 61, "duration": 11, "velocity": 85}, {"time": 606, "pitch": 69, "duration": 8, "velocity": 88}, {"time": 612, "pitch": 57, "duration": 10, "velocity": 73}, {"time": 618, "pitch": 64, "duration": 6, "velocity": 90}, {"time": 624, "pitch": 69, "duration": 6, "velocity": 87}, {"time": 630, "pitch": 47, "duration": 15, "velocity": 83}, {"time": 630, "pitch": 62, "duration": 7, "velocity": 87}, {"time": 630, "pitch": 66, "duration": 6, "velocity": 86}, {"time": 630, "pitch": 69, "duration": 5, "velocity": 88}, {"time": 636, "pitch": 54, "duration": 9, "velocity": 48}, {"time": 642, "pitch": 62, "duration": 7, "velocity": 98}, {"time": 642, "pitch": 69, "duration": 8, "velocity": 92}, {"time": 648, "pitch": 66, "duration": 5, "velocity": 82}, {"time": 654, "pitch": 42, "duration": 13, "velocity": 75}, {"time": 654, "pitch": 54, "duration": 13, "velocity": 77}, {"time": 654, "pitch": 61, "duration": 8, "velocity": 86}, {"time": 654, "pitch": 66, "duration": 9, "velocity": 84}, {"time": 654, "pitch": 69, "duration": 8, "velocity": 88}, {"time": 666, "pitch": 61, "duration": 6, "velocity": 88}, {"time": 666, "pitch": 66, "duration": 7, "velocity": 89}, {"time": 666, "pitch": 69, "duration": 6, "velocity": 92}, {"time": 672, "pitch": 42, "duration": 2, "velocity": 82}, {"time": 678, "pitch": 43, "duration": 9, "velocity": 86}, {"time": 678, "pitch": 59, "duration": 6, "velocity": 89}, {"time": 678, "pitch": 62, "duration": 7, "velocity": 92}, {"time": 678, "pitch": 67, "duration": 9, "velocity": 89}, {"time": 690, "pitch": 45, "duration": 9, "velocity": 83}, {"time": 690, "pitch": 61, "duration": 7, "velocity": 83}, {"time": 690, "pitch": 64, "duration": 7, "velocity": 87}, {"time": 690, "pitch": 69, "duration": 7, "velocity": 87}, {"time": 702, "pitch": 38, "duration": 21, "velocity": 86}, {"time": 702, "pitch": 50, "duration": 22, "velocity": 80}, {"time": 702, "pitch": 62, "duration": 10, "velocity": 81}, {"time": 702, "pitch": 66, "duration": 10, "velocity": 84}, {"time": 714, "pitch": 62, "duration": 10, "velocity": 87}, {"time": 714, "pitch": 66, "duration": 8, "velocity": 84}, {"time": 714, "pitch": 69, "duration": 7, "velocity": 87}, {"time": 726, "pitch": 43, "duration": 46, "velocity": 88}, {"time": 726, "pitch": 59, "duration": 8, "velocity": 87}, {"time": 726, "pitch": 62, "duration": 9, "velocity": 89}, {"time": 726, "pitch": 67, "duration": 8, "velocity": 89}, {"time": 738, "pitch": 59, "duration": 10, "velocity": 93}, {"time": 738, "pitch": 62, "duration": 11, "velocity": 94}, {"time": 738, "pitch": 67, "duration": 10, "velocity": 91}, {"time": 750, "pitch": 59, "duration": 9, "velocity": 89}, {"time": 750, "pitch": 62, "duration": 10, "velocity": 92}, {"time": 750, "pitch": 67, "duration": 9, "velocity": 89}, {"time": 762, "pitch": 59, "duration": 7, "velocity": 91}, {"time": 762, "pitch": 62, "duration": 7, "velocity": 96}, {"time": 762, "pitch": 67, "duration": 7, "velocity": 91}, {"time": 774, "pitch": 45, "duration": 27, "velocity": 87}, {"time": 774, "pitch": 61, "duration": 7, "velocity": 89}, {"time": 774, "pitch": 64, "duration": 8, "velocity": 93}, {"time": 774, "pitch": 69, "duration": 7, "velocity": 92}, {"time": 786, "pitch": 61, "duration": 9, "velocity": 89}, {"time": 786, "pitch": 64, "duration": 9, "velocity": 93}, {"time": 786, "pitch": 69, "duration": 8, "velocity": 93}, {"time": 798, "pitch": 61, "duration": 8, "velocity": 91}, {"time": 798, "pitch": 64, "duration": 9, "velocity": 98}, {"time": 798, "pitch": 69, "duration": 9, "velocity": 102}, {"time": 807, "pitch": 45, "duration": 5, "velocity": 87}, {"time": 810, "pitch": 61, "duration": 6, "velocity": 103}, {"time": 810, "pitch": 64, "duration": 10, "velocity": 113}, {"time": 810, "pitch": 69, "duration": 8, "velocity": 107}, {"time": 816, "pitch": 45, "duration": 5, "velocity": 91}, {"time": 822, "pitch": 50, "duration": 15, "velocity": 92}, {"time": 822, "pitch": 62, "duration": 8, "velocity": 89}, {"time": 822, "pitch": 66, "duration": 8, "velocity": 90}, {"time": 822, "pitch": 69, "duration": 6, "velocity": 92}, {"time": 834, "pitch": 62, "duration": 9, "velocity": 102}, {"time": 834, "pitch": 66, "duration": 9, "velocity": 113}, {"time": 834, "pitch": 69, "duration": 8, "velocity": 102}, {"time": 840, "pitch": 50, "duration": 4, "velocity": 76}, {"time": 846, "pitch": 45, "duration": 14, "velocity": 70}, {"time": 846, "pitch": 57, "duration": 14, "velocity": 84}, {"time": 846, "pitch": 61, "duration": 6, "velocity": 86}, {"time": 846, "pitch": 64, "duration": 8, "velocity": 90}, {"time": 846, "pitch": 69, "duration": 7, "velocity": 89}, {"time": 858, "pitch": 61, "duration": 5, "velocity": 90}, {"time": 858, "pitch": 64, "duration": 9, "velocity": 94}, {"time": 858, "pitch": 69, "duration": 6, "velocity": 94}, {"time": 864, "pitch": 57, "duration": 5, "velocity": 80}, {"time": 870, "pitch": 47, "duration": 16, "velocity": 88}, {"time": 870, "pitch": 62, "duration": 10, "velocity": 88}, {"time": 870, "pitch": 66, "duration": 9, "velocity": 91}, {"time": 870, "pitch": 69, "duration": 8, "velocity": 92}, {"time": 882, "pitch": 62, "duration": 7, "velocity": 98}, {"time": 882, "pitch": 66, "duration": 7, "velocity": 97}, {"time": 882, "pitch": 69, "duration": 7, "velocity": 93}, {"time": 888, "pitch": 47, "duration": 2, "velocity": 86}, {"time": 894, "pitch": 45, "duration": 14, "velocity": 81}, {"time": 894, "pitch": 61, "duration": 7, "velocity": 88}, {"time": 894, "pitch": 64, "duration": 7, "velocity": 94}, {"time": 894, "pitch": 69, "duration": 7, "velocity": 91}, {"time": 906, "pitch": 61, "duration": 6, "velocity": 93}, {"time": 906, "pitch": 64, "duration": 6, "velocity": 96}, {"time": 906, "pitch": 69, "duration": 8, "velocity": 91}, {"time": 912, "pitch": 45, "duration": 3, "velocity": 82}, {"time": 918, "pitch": 43, "duration": 19, "velocity": 83}, {"time": 918, "pitch": 55, "duration": 20, "velocity": 85}, {"time": 918, "pitch": 59, "duration": 9, "velocity": 89}, {"time": 918, "pitch": 62, "duration": 9, "velocity": 93}, {"time": 918, "pitch": 67, "duration": 8, "velocity": 91}, {"time": 930, "pitch": 59, "duration": 6, "velocity": 90}, {"time": 930, "pitch": 62, "duration": 7, "velocity": 93}, {"time": 930, "pitch": 67, "duration": 7, "velocity": 90}, {"time": 942, "pitch": 50, "duration": 19, "velocity": 87}, {"time": 942, "pitch": 62, "duration": 9, "velocity": 88}, {"time": 942, "pitch": 66, "duration": 9, "velocity": 87}, {"time": 942, "pitch": 69, "duration": 7, "velocity": 88}, {"time": 954, "pitch": 62, "duration": 6, "velocity": 91}, {"time": 954, "pitch": 66, "duration": 6, "velocity": 93}, {"time": 954, "pitch": 69, "duration": 6, "velocity": 92}, {"time": 966, "pitch": 43, "duration": 19, "velocity": 86}, {"time": 966, "pitch": 55, "duration": 20, "velocity": 88}, {"time": 966, "pitch": 59, "duration": 8, "velocity": 93}, {"time": 966, "pitch": 62, "duration": 9, "velocity": 100}, {"time": 966, "pitch": 67, "duration": 8, "velocity": 92}, {"time": 978, "pitch": 59, "duration": 6, "velocity": 90}, {"time": 978, "pitch": 62, "duration": 7, "velocity": 94}, {"time": 978, "pitch": 67, "duration": 7, "velocity": 91}, {"time": 990, "pitch": 45, "duration": 21, "velocity": 88}, {"time": 990, "pitch": 61, "duration": 9, "velocity": 86}, {"time": 990, "pitch": 64, "duration": 9, "velocity": 89}, {"time": 990, "pitch": 69, "duration": 9, "velocity": 98}, {"time": 1002, "pitch": 61, "duration": 6, "velocity": 90}, {"time": 1002, "pitch": 64, "duration": 6, "velocity": 96}, {"time": 1002, "pitch": 69, "duration": 6, "velocity": 96}, {"time": 1014, "pitch": 50, "duration": 24, "velocity": 87}, {"time": 1014, "pitch": 57, "duration": 9, "velocity": 96}, {"time": 1014, "pitch": 62, "duration": 10, "velocity": 104}, {"time": 1014, "pitch": 66, "duration": 9, "velocity": 91}, {"time": 1026, "pitch": 57, "duration": 7, "velocity": 92}, {"time": 1026, "pitch": 62, "duration": 8, "velocity": 100}, {"time": 1026, "pitch": 66, "duration": 7, "velocity": 86}, {"time": 1038, "pitch": 45, "duration": 22, "velocity": 85}, {"time": 1038, "pitch": 61, "duration": 7, "velocity": 90}, {"time": 1038, "pitch": 64, "duration": 7, "velocity": 96}, {"time": 1038, "pitch": 69, "duration": 7, "velocity": 94}, {"time": 1044, "pitch": 57, "duration": 4, "velocity": 77}, {"time": 1047, "pitch": 61, "duration": 5, "velocity": 87}, {"time": 1047, "pitch": 64, "duration": 7, "velocity": 93}, {"time": 1047, "pitch": 69, "duration": 7, "velocity": 92}, {"time": 1053, "pitch": 57, "duration": 6, "velocity": 77}, {"time": 1056, "pitch": 61, "duration": 3, "velocity": 89}, {"time": 1056, "pitch": 64, "duration": 5, "velocity": 91}, {"time": 1056, "pitch": 69, "duration": 5, "velocity": 92}, {"time": 1062, "pitch": 47, "duration": 14, "velocity": 89}, {"time": 1062, "pitch": 62, "duration": 10, "velocity": 91}, {"time": 1062, "pitch": 66, "duration": 10, "velocity": 97}, {"time": 1062, "pitch": 69, "duration": 9, "velocity": 90}, {"time": 1074, "pitch": 62, "duration": 8, "velocity": 96}, {"time": 1074, "pitch": 66, "duration": 8, "velocity": 95}, {"time": 1074, "pitch": 69, "duration": 8, "velocity": 91}, {"time": 1080, "pitch": 47, "duration": 5, "velocity": 83}, {"time": 1086, "pitch": 45, "duration": 10, "velocity": 90}, {"time": 1086, "pitch": 61, "duration": 7, "velocity": 91}, {"time": 1086, "pitch": 64, "duration": 7, "velocity": 100}, {"time": 1086, "pitch": 69, "duration": 6, "velocity": 93}, {"time": 1095, "pitch": 61, "duration": 5, "velocity": 87}, {"time": 1095, "pitch": 64, "duration": 7, "velocity": 93}, {"time": 1095, "pitch": 69, "duration": 7, "velocity": 88}, {"time": 1101, "pitch": 45, "duration": 8, "velocity": 85}, {"time": 1104, "pitch": 61, "duration": 2, "velocity": 89}, {"time": 1104, "pitch": 64, "duration": 2, "velocity": 90}, {"time": 1104, "pitch": 69, "duration": 2, "velocity": 88}, {"time": 1110, "pitch": 43, "duration": 22, "velocity": 88}, {"time": 1110, "pitch": 55, "duration": 6, "velocity": 91}, {"time": 1110, "pitch": 59, "duration": 10, "velocity": 93}, {"time": 1110, "pitch": 62, "duration": 10, "velocity": 104}, {"time": 1110, "pitch": 67, "duration": 10, "velocity": 96}, {"time": 1119, "pitch": 55, "duration": 5, "velocity": 86}, {"time": 1122, "pitch": 59, "duration": 8, "velocity": 94}, {"time": 1122, "pitch": 62, "duration": 9, "velocity": 107}, {"time": 1122, "pitch": 67, "duration": 8, "velocity": 94}, {"time": 1134, "pitch": 50, "duration": 15, "velocity": 87}, {"time": 1134, "pitch": 57, "duration": 10, "velocity": 89}, {"time": 1134, "pitch": 62, "duration": 10, "velocity": 96}, {"time": 1134, "pitch": 66, "duration": 9, "velocity": 88}, {"time": 1146, "pitch": 57, "duration": 7, "velocity": 93}, {"time": 1146, "pitch": 62, "duration": 9, "velocity": 107}, {"time": 1146, "pitch": 66, "duration": 10, "velocity": 86}, {"time": 1152, "pitch": 50, "duration": 5, "velocity": 79}, {"time": 1158, "pitch": 43, "duration": 15, "velocity": 83}, {"time": 1158, "pitch": 55, "duration": 15, "velocity": 80}, {"time": 1158, "pitch": 59, "duration": 9, "velocity": 92}, {"time": 1158, "pitch": 62, "duration": 10, "velocity": 98}, {"time": 1158, "pitch": 67, "duration": 8, "velocity": 92}, {"time": 1170, "pitch": 59, "duration": 8, "velocity": 92}, {"time": 1170, "pitch": 62, "duration": 7, "velocity": 102}, {"time": 1170, "pitch": 67, "duration": 8, "velocity": 91}, {"time": 1176, "pitch": 43, "duration": 3, "velocity": 84}, {"time": 1182, "pitch": 45, "duration": 15, "velocity": 85}, {"time": 1182, "pitch": 57, "duration": 11, "velocity": 88}, {"time": 1182, "pitch": 61, "duration": 11, "velocity": 91}, {"time": 1182, "pitch": 64, "duration": 10, "velocity": 92}, {"time": 1194, "pitch": 57, "duration": 7, "velocity": 93}, {"time": 1194, "pitch": 61, "duration": 7, "velocity": 103}, {"time": 1194, "pitch": 64, "duration": 6, "velocity": 96}, {"time": 1200, "pitch": 45, "duration": 5, "velocity": 84}, {"time": 1206, "pitch": 50, "duration": 29, "velocity": 88}, {"time": 1206, "pitch": 57, "duration": 11, "velocity": 87}, {"time": 1206, "pitch": 62, "duration": 10, "velocity": 98}, {"time": 1206, "pitch": 66, "duration": 10, "velocity": 88}, {"time": 1218, "pitch": 57, "duration": 8, "velocity": 88}, {"time": 1218, "pitch": 62, "duration": 8, "velocity": 94}, {"time": 1218, "pitch": 66, "duration": 7, "velocity": 87}, {"time": 1227, "pitch": 57, "duration": 4, "velocity": 88}, {"time": 1227, "pitch": 62, "duration": 4, "velocity": 93}, {"time": 1227, "pitch": 66, "duration": 4, "velocity": 87}, {"time": 1233, "pitch": 57, "duration": 7, "velocity": 87}, {"time": 1233, "pitch": 62, "duration": 7, "velocity": 90}, {"time": 1233, "pitch": 66, "duration": 6, "velocity": 86}, {"time": 1242, "pitch": 50, "duration": 11, "velocity": 84}, {"time": 1242, "pitch": 57, "duration": 5, "velocity": 90}, {"time": 1242, "pitch": 62, "duration": 6, "velocity": 102}, {"time": 1242, "pitch": 66, "duration": 7, "velocity": 95}, {"time": 1254, "pitch": 47, "duration": 23, "velocity": 87}, {"time": 1254, "pitch": 59, "duration": 10, "velocity": 90}, {"time": 1254, "pitch": 62, "duration": 10, "velocity": 93}, {"time": 1254, "pitch": 66, "duration": 9, "velocity": 87}, {"time": 1266, "pitch": 59, "duration": 9, "velocity": 89}, {"time": 1266, "pitch": 62, "duration": 10, "velocity": 96}, {"time": 1266, "pitch": 66, "duration": 9, "velocity": 87}, {"time": 1275, "pitch": 43, "duration": 16, "velocity": 84}, {"time": 1278, "pitch": 55, "duration": 16, "velocity": 84}, {"time": 1278, "pitch": 59, "duration": 10, "velocity": 89}, {"time": 1278, "pitch": 62, "duration": 11, "velocity": 91}, {"time": 1278, "pitch": 67, "duration": 10, "velocity": 88}, {"time": 1290, "pitch": 59, "duration": 8, "velocity": 89}, {"time": 1290, "pitch": 62, "duration": 8, "velocity": 93}, {"time": 1290, "pitch": 67, "duration": 8, "velocity": 91}, {"time": 1296, "pitch": 43, "duration": 5, "velocity": 86}, {"time": 1302, "pitch": 50, "duration": 8, "velocity": 89}, {"time": 1302, "pitch": 57, "duration": 11, "velocity": 88}, {"time": 1302, "pitch": 62, "duration": 11, "velocity": 94}, {"time": 1302, "pitch": 66, "duration": 11, "velocity": 87}, {"time": 1311, "pitch": 50, "duration": 6, "velocity": 86}, {"time": 1314, "pitch": 57, "duration": 10, "velocity": 87}, {"time": 1314, "pitch": 62, "duration": 6, "velocity": 96}, {"time": 1314, "pitch": 66, "duration": 7, "velocity": 87}, {"time": 1320, "pitch": 50, "duration": 6, "velocity": 84}, {"time": 1326, "pitch": 45, "duration": 24, "velocity": 87}, {"time": 1326, "pitch": 57, "duration": 8, "velocity": 88}, {"time": 1326, "pitch": 61, "duration": 8, "velocity": 95}, {"time": 1326, "pitch": 64, "duration": 8, "velocity": 92}, {"time": 1335, "pitch": 57, "duration": 11, "velocity": 88}, {"time": 1335, "pitch": 61, "duration": 13, "velocity": 91}, {"time": 1335, "pitch": 64, "duration": 10, "velocity": 91}, {"time": 1350, "pitch": 50, "duration": 30, "velocity": 84}, {"time": 1350, "pitch": 57, "duration": 10, "velocity": 86}, {"time": 1350, "pitch": 62, "duration": 10, "velocity": 89}, {"time": 1350, "pitch": 66, "duration": 10, "velocity": 86}, {"time": 1362, "pitch": 57, "duration": 7, "velocity": 88}, {"time": 1362, "pitch": 62, "duration": 8, "velocity": 90}, {"time": 1362, "pitch": 66, "duration": 7, "velocity": 88}, {"time": 1371, "pitch": 57, "duration": 13, "velocity": 82}, {"time": 1371, "pitch": 62, "duration": 13, "velocity": 88}, {"time": 1371, "pitch": 66, "duration": 13, "velocity": 86}, {"time": 1380, "pitch": 50, "duration": 7, "velocity": 69}, {"time": 1386, "pitch": 57, "duration": 9, "velocity": 86}, {"time": 1386, "pitch": 62, "duration": 9, "velocity": 91}, {"time": 1386, "pitch": 66, "duration": 9, "velocity": 87}, {"time": 1392, "pitch": 50, "duration": 5, "velocity": 83}, {"time": 1398, "pitch": 50, "duration": 37, "velocity": 98}, {"time": 1404, "pitch": 57, "duration": 6, "velocity": 48}, {"time": 1410, "pitch": 62, "duration": 7, "velocity": 78}, {"time": 1410, "pitch": 69, "duration": 6, "velocity": 85}, {"time": 1416, "pitch": 57, "duration": 6, "velocity": 40}, {"time": 1422, "pitch": 62, "duration": 6, "velocity": 73}, {"time": 1422, "pitch": 66, "duration": 5, "velocity": 72}, {"time": 1422, "pitch": 69, "duration": 6, "velocity": 70}, {"time": 1428, "pitch": 57, "duration": 7, "velocity": 40}, {"time": 1434, "pitch": 62, "duration": 9, "velocity": 90}, {"time": 1434, "pitch": 69, "duration": 7, "velocity": 89}, {"time": 1440, "pitch": 49, "duration": 6, "velocity": 77}, {"time": 1446, "pitch": 47, "duration": 26, "velocity": 80}, {"time": 1446, "pitch": 62, "duration": 7, "velocity": 78}, {"time": 1446, "pitch": 66, "duration": 6, "velocity": 81}, {"time": 1446, "pitch": 69, "duration": 5, "velocity": 80}, {"time": 1452, "pitch": 54, "duration": 32, "velocity": 71}, {"time": 1458, "pitch": 62, "duration": 7, "velocity": 77}, {"time": 1458, "pitch": 66, "duration": 6, "velocity": 70}, {"time": 1458, "pitch": 69, "duration": 5, "velocity": 79}, {"time": 1470, "pitch": 62, "duration": 8, "velocity": 81}, {"time": 1470, "pitch": 69, "duration": 6, "velocity": 84}, {"time": 1479, "pitch": 47, "duration": 7, "velocity": 30}, {"time": 1482, "pitch": 62, "duration": 6, "velocity": 89}, {"time": 1482, "pitch": 69, "duration": 8, "velocity": 89}, {"time": 1488, "pitch": 66, "duration": 5, "velocity": 62}, {"time": 1494, "pitch": 43, "duration": 43, "velocity": 75}, {"time": 1494, "pitch": 55, "duration": 17, "velocity": 70}, {"time": 1494, "pitch": 59, "duration": 9, "velocity": 82}, {"time": 1494, "pitch": 67, "duration": 7, "velocity": 85}, {"time": 1506, "pitch": 59, "duration": 9, "velocity": 86}, {"time": 1506, "pitch": 67, "duration": 6, "velocity": 88}, {"time": 1518, "pitch": 59, "duration": 6, "velocity": 87}, {"time": 1518, "pitch": 67, "duration": 6, "velocity": 87}, {"time": 1530, "pitch": 59, "duration": 6, "velocity": 87}, {"time": 1530, "pitch": 67, "duration": 9, "velocity": 87}, {"time": 1542, "pitch": 45, "duration": 40, "velocity": 71}, {"time": 1542, "pitch": 57, "duration": 8, "velocity": 67}, {"time": 1542, "pitch": 61, "duration": 1, "velocity": 71}, {"time": 1542, "pitch": 67, "duration": 6, "velocity": 85}, {"time": 1548, "pitch": 52, "duration": 6, "velocity": 38}, {"time": 1554, "pitch": 62, "duration": 12, "velocity": 88}, {"time": 1560, "pitch": 52, "duration": 5, "velocity": 42}, {"time": 1566, "pitch": 57, "duration": 8, "velocity": 77}, {"time": 1566, "pitch": 64, "duration": 8, "velocity": 75}, {"time": 1572, "pitch": 52, "duration": 9, "velocity": 44}, {"time": 1578, "pitch": 57, "duration": 4, "velocity": 87}, {"time": 1590, "pitch": 50, "duration": 40, "velocity": 82}, {"time": 1590, "pitch": 62, "duration": 7, "velocity": 87}, {"time": 1590, "pitch": 69, "duration": 6, "velocity": 88}, {"time": 1596, "pitch": 57, "duration": 7, "velocity": 64}, {"time": 1602, "pitch": 62, "duration": 12, "velocity": 84}, {"time": 1602, "pitch": 69, "duration": 5, "velocity": 83}, {"time": 1608, "pitch": 57, "duration": 7, "velocity": 66}, {"time": 1614, "pitch": 64, "duration": 11, "velocity": 86}, {"time": 1620, "pitch": 57, "duration": 9, "velocity": 56}, {"time": 1626, "pitch": 62, "duration": 7, "velocity": 87}, {"time": 1626, "pitch": 69, "duration": 5, "velocity": 87}, {"time": 1632, "pitch": 49, "duration": 6, "velocity": 76}, {"time": 1638, "pitch": 47, "duration": 39, "velocity": 83}, {"time": 1644, "pitch": 54, "duration": 32, "velocity": 74}, {"time": 1650, "pitch": 62, "duration": 6, "velocity": 84}, {"time": 1650, "pitch": 69, "duration": 5, "velocity": 84}, {"time": 1656, "pitch": 57, "duration": 19, "velocity": 64}, {"time": 1662, "pitch": 62, "duration": 7, "velocity": 76}, {"time": 1662, "pitch": 69, "duration": 6, "velocity": 77}, {"time": 1674, "pitch": 62, "duration": 6, "velocity": 88}, {"time": 1674, "pitch": 69, "duration": 6, "velocity": 86}, {"time": 1686, "pitch": 43, "duration": 41, "velocity": 88}, {"time": 1692, "pitch": 55, "duration": 6, "velocity": 70}, {"time": 1698, "pitch": 59, "duration": 8, "velocity": 83}, {"time": 1698, "pitch": 67, "duration": 6, "velocity": 86}, {"time": 1704, "pitch": 55, "duration": 6, "velocity": 65}, {"time": 1710, "pitch": 59, "duration": 8, "velocity": 75}, {"time": 1710, "pitch": 67, "duration": 6, "velocity": 81}, {"time": 1716, "pitch": 55, "duration": 12, "velocity": 68}, {"time": 1722, "pitch": 62, "duration": 6, "velocity": 84}, {"time": 1728, "pitch": 67, "duration": 9, "velocity": 81}, {"time": 1734, "pitch": 45, "duration": 41, "velocity": 88}, {"time": 1740, "pitch": 52, "duration": 19, "velocity": 77}, {"time": 1746, "pitch": 62, "duration": 4, "velocity": 102}, {"time": 1752, "pitch": 57, "duration": 8, "velocity": 79}, {"time": 1758, "pitch": 61, "duration": 10, "velocity": 85}, {"time": 1758, "pitch": 69, "duration": 8, "velocity": 88}, {"time": 1764, "pitch": 57, "duration": 10, "velocity": 73}, {"time": 1770, "pitch": 64, "duration": 6, "velocity": 90}, {"time": 1776, "pitch": 69, "duration": 6, "velocity": 87}, {"time": 1782, "pitch": 47, "duration": 15, "velocity": 83}, {"time": 1782, "pitch": 62, "duration": 6, "velocity": 87}, {"time": 1782, "pitch": 66, "duration": 6, "velocity": 86}, {"time": 1782, "pitch": 69, "duration": 4, "velocity": 88}, {"time": 1788, "pitch": 54, "duration": 8, "velocity": 48}, {"time": 1794, "pitch": 62, "duration": 7, "velocity": 98}, {"time": 1794, "pitch": 69, "duration": 7, "velocity": 92}, {"time": 1800, "pitch": 66, "duration": 5, "velocity": 82}, {"time": 1806, "pitch": 42, "duration": 13, "velocity": 75}, {"time": 1806, "pitch": 54, "duration": 13, "velocity": 77}, {"time": 1806, "pitch": 61, "duration": 8, "velocity": 86}, {"time": 1806, "pitch": 66, "duration": 8, "velocity": 84}, {"time": 1806, "pitch": 69, "duration": 8, "velocity": 88}, {"time": 1818, "pitch": 61, "duration": 5, "velocity": 88}, {"time": 1818, "pitch": 66, "duration": 6, "velocity": 89}, {"time": 1818, "pitch": 69, "duration": 6, "velocity": 92}, {"time": 1824, "pitch": 42, "duration": 1, "velocity": 82}, {"time": 1830, "pitch": 43, "duration": 8, "velocity": 86}, {"time": 1830, "pitch": 59, "duration": 6, "velocity": 89}, {"time": 1830, "pitch": 62, "duration": 6, "velocity": 92}, {"time": 1830, "pitch": 67, "duration": 9, "velocity": 89}, {"time": 1842, "pitch": 45, "duration": 8, "velocity": 83}, {"time": 1842, "pitch": 61, "duration": 7, "velocity": 83}, {"time": 1842, "pitch": 64, "duration": 7, "velocity": 87}, {"time": 1842, "pitch": 69, "duration": 7, "velocity": 87}, {"time": 1854, "pitch": 38, "duration": 21, "velocity": 86}, {"time": 1854, "pitch": 50, "duration": 21, "velocity": 80}, {"time": 1854, "pitch": 62, "duration": 9, "velocity": 81}, {"time": 1854, "pitch": 66, "duration": 10, "velocity": 84}, {"time": 1866, "pitch": 62, "duration": 10, "velocity": 87}, {"time": 1866, "pitch": 66, "duration": 7, "velocity": 84}, {"time": 1866, "pitch": 69, "duration": 6, "velocity": 87}, {"time": 1878, "pitch": 43, "duration": 45, "velocity": 88}, {"time": 1878, "pitch": 59, "duration": 8, "velocity": 87}, {"time": 1878, "pitch": 62, "duration": 9, "velocity": 89}, {"time": 1878, "pitch": 67, "duration": 7, "velocity": 89}, {"time": 1890, "pitch": 59, "duration": 9, "velocity": 93}, {"time": 1890, "pitch": 62, "duration": 10, "velocity": 94}, {"time": 1890, "pitch": 67, "duration": 10, "velocity": 91}, {"time": 1902, "pitch": 59, "duration": 8, "velocity": 89}, {"time": 1902, "pitch": 62, "duration": 10, "velocity": 92}, {"time": 1902, "pitch": 67, "duration": 8, "velocity": 89}, {"time": 1914, "pitch": 59, "duration": 6, "velocity": 91}, {"time": 1914, "pitch": 62, "duration": 7, "velocity": 96}, {"time": 1914, "pitch": 67, "duration": 7, "velocity": 91}, {"time": 1926, "pitch": 45, "duration": 27, "velocity": 87}, {"time": 1926, "pitch": 61, "duration": 7, "velocity": 89}, {"time": 1926, "pitch": 64, "duration": 7, "velocity": 93}, {"time": 1926, "pitch": 69, "duration": 7, "velocity": 92}, {"time": 1938, "pitch": 61, "duration": 9, "velocity": 89}, {"time": 1938, "pitch": 64, "duration": 8, "velocity": 93}, {"time": 1938, "pitch": 69, "duration": 7, "velocity": 93}, {"time": 1950, "pitch": 61, "duration": 7, "velocity": 91}, {"time": 1950, "pitch": 64, "duration": 8, "velocity": 98}, {"time": 1950, "pitch": 69, "duration": 8, "velocity": 102}, {"time": 1959, "pitch": 45, "duration": 5, "velocity": 87}, {"time": 1962, "pitch": 61, "duration": 5, "velocity": 103}, {"time": 1962, "pitch": 64, "duration": 9, "velocity": 113}, {"time": 1962, "pitch": 69, "duration": 7, "velocity": 107}, {"time": 1968, "pitch": 45, "duration": 5, "velocity": 91}, {"time": 1974, "pitch": 50, "duration": 15, "velocity": 92}, {"time": 1974, "pitch": 62, "duration": 7, "velocity": 89}, {"time": 1974, "pitch": 66, "duration": 7, "velocity": 90}, {"time": 1974, "pitch": 69, "duration": 6, "velocity": 92}, {"time": 1986, "pitch": 62, "duration": 8, "velocity": 102}, {"time": 1986, "pitch": 66, "duration": 8, "velocity": 113}, {"time": 1986, "pitch": 69, "duration": 8, "velocity": 102}, {"time": 1992, "pitch": 50, "duration": 3, "velocity": 76}, {"time": 1998, "pitch": 45, "duration": 13, "velocity": 70}, {"time": 1998, "pitch": 57, "duration": 14, "velocity": 84}, {"time": 1998, "pitch": 61, "duration": 6, "velocity": 86}, {"time": 1998, "pitch": 64, "duration": 8, "velocity": 90}, {"time": 1998, "pitch": 69, "duration": 7, "velocity": 89}, {"time": 2010, "pitch": 61, "duration": 5, "velocity": 90}, {"time": 2010, "pitch": 64, "duration": 9, "velocity": 94}, {"time": 2010, "pitch": 69, "duration": 6, "velocity": 94}, {"time": 2016, "pitch": 57, "duration": 4, "velocity": 80}, {"time": 2022, "pitch": 47, "duration": 16, "velocity": 88}, {"time": 2022, "pitch": 62, "duration": 9, "velocity": 88}, {"time": 2022, "pitch": 66, "duration": 9, "velocity": 91}, {"time": 2022, "pitch": 69, "duration": 8, "velocity": 92}, {"time": 2034, "pitch": 62, "duration": 7, "velocity": 98}, {"time": 2034, "pitch": 66, "duration": 6, "velocity": 97}, {"time": 2034, "pitch": 69, "duration": 6, "velocity": 93}, {"time": 2040, "pitch": 47, "duration": 1, "velocity": 86}, {"time": 2046, "pitch": 45, "duration": 13, "velocity": 81}, {"time": 2046, "pitch": 61, "duration": 7, "velocity": 88}, {"time": 2046, "pitch": 64, "duration": 7, "velocity": 94}, {"time": 2046, "pitch": 69, "duration": 7, "velocity": 91}, {"time": 2058, "pitch": 61, "duration": 5, "velocity": 93}, {"time": 2058, "pitch": 64, "duration": 6, "velocity": 96}, {"time": 2058, "pitch": 69, "duration": 7, "velocity": 91}, {"time": 2064, "pitch": 45, "duration": 3, "velocity": 82}, {"time": 2070, "pitch": 43, "duration": 19, "velocity": 83}, {"time": 2070, "pitch": 55, "duration": 19, "velocity": 85}, {"time": 2070, "pitch": 59, "duration": 8, "velocity": 89}, {"time": 2070, "pitch": 62, "duration": 8, "velocity": 93}, {"time": 2070, "pitch": 67, "duration": 8, "velocity": 91}, {"time": 2082, "pitch": 59, "duration": 6, "velocity": 90}, {"time": 2082, "pitch": 62, "duration": 6, "velocity": 93}, {"time": 2082, "pitch": 67, "duration": 6, "velocity": 90}, {"time": 2094, "pitch": 50, "duration": 18, "velocity": 87}, {"time": 2094, "pitch": 62, "duration": 8, "velocity": 88}, {"time": 2094, "pitch": 66, "duration": 9, "velocity": 87}, {"time": 2094, "pitch": 69, "duration": 7, "velocity": 88}, {"time": 2106, "pitch": 62, "duration": 6, "velocity": 91}, {"time": 2106, "pitch": 66, "duration": 5, "velocity": 93}, {"time": 2106, "pitch": 69, "duration": 5, "velocity": 92}, {"time": 2118, "pitch": 43, "duration": 19, "velocity": 86}, {"time": 2118, "pitch": 55, "duration": 20, "velocity": 88}, {"time": 2118, "pitch": 59, "duration": 8, "velocity": 93}, {"time": 2118, "pitch": 62, "duration": 9, "velocity": 100}, {"time": 2118, "pitch": 67, "duration": 7, "velocity": 92}, {"time": 2130, "pitch": 59, "duration": 5, "velocity": 90}, {"time": 2130, "pitch": 62, "duration": 6, "velocity": 94}, {"time": 2130, "pitch": 67, "duration": 6, "velocity": 91}, {"time": 2142, "pitch": 45, "duration": 21, "velocity": 88}, {"time": 2142, "pitch": 61, "duration": 8, "velocity": 86}, {"time": 2142, "pitch": 64, "duration": 8, "velocity": 89}, {"time": 2142, "pitch": 69, "duration": 9, "velocity": 98}, {"time": 2154, "pitch": 61, "duration": 6, "velocity": 90}, {"time": 2154, "pitch": 64, "duration": 5, "velocity": 96}, {"time": 2154, "pitch": 69, "duration": 6, "velocity": 96}, {"time": 2166, "pitch": 50, "duration": 24, "velocity": 87}, {"time": 2166, "pitch": 57, "duration": 8, "velocity": 96}, {"time": 2166, "pitch": 62, "duration": 9, "velocity": 104}, {"time": 2166, "pitch": 66, "duration": 8, "velocity": 91}, {"time": 2178, "pitch": 57, "duration": 6, "velocity": 92}, {"time": 2178, "pitch": 62, "duration": 7, "velocity": 100}, {"time": 2178, "pitch": 66, "duration": 7, "velocity": 86}, {"time": 2190, "pitch": 45, "duration": 22, "velocity": 85}, {"time": 2190, "pitch": 61, "duration": 6, "velocity": 90}, {"time": 2190, "pitch": 64, "duration": 6, "velocity": 96}, {"time": 2190, "pitch": 69, "duration": 6, "velocity": 94}, {"time": 2196, "pitch": 57, "duration": 4, "velocity": 77}, {"time": 2199, "pitch": 61, "duration": 5, "velocity": 87}, {"time": 2199, "pitch": 64, "duration": 6, "velocity": 93}, {"time": 2199, "pitch": 69, "duration": 6, "velocity": 92}, {"time": 2205, "pitch": 57, "duration": 6, "velocity": 77}, {"time": 2208, "pitch": 61, "duration": 2, "velocity": 89}, {"time": 2208, "pitch": 64, "duration": 4, "velocity": 91}, {"time": 2208, "pitch": 69, "duration": 4, "velocity": 92}, {"time": 2214, "pitch": 47, "duration": 13, "velocity": 89}, {"time": 2214, "pitch": 62, "duration": 10, "velocity": 91}, {"time": 2214, "pitch": 66, "duration": 10, "velocity": 97}, {"time": 2214, "pitch": 69, "duration": 9, "velocity": 90}, {"time": 2226, "pitch": 62, "duration": 7, "velocity": 96}, {"time": 2226, "pitch": 66, "duration": 7, "velocity": 95}, {"time": 2226, "pitch": 69, "duration": 7, "velocity": 91}, {"time": 2232, "pitch": 47, "duration": 5, "velocity": 83}, {"time": 2238, "pitch": 45, "duration": 10, "velocity": 90}, {"time": 2238, "pitch": 61, "duration": 6, "velocity": 91}, {"time": 2238, "pitch": 64, "duration": 6, "velocity": 100}, {"time": 2238, "pitch": 69, "duration": 6, "velocity": 93}, {"time": 2247, "pitch": 61, "duration": 4, "velocity": 87}, {"time": 2247, "pitch": 64, "duration": 6, "velocity": 93}, {"time": 2247, "pitch": 69, "duration": 6, "velocity": 88}, {"time": 2253, "pitch": 45, "duration": 8, "velocity": 85}, {"time": 2256, "pitch": 61, "duration": 1, "velocity": 89}, {"time": 2256, "pitch": 64, "duration": 1, "velocity": 90}, {"time": 2256, "pitch": 69, "duration": 1, "velocity": 88}, {"time": 2262, "pitch": 43, "duration": 22, "velocity": 88}, {"time": 2262, "pitch": 55, "duration": 5, "velocity": 91}, {"time": 2262, "pitch": 59, "duration": 10, "velocity": 93}, {"time": 2262, "pitch": 62, "duration": 10, "velocity": 104}, {"time": 2262, "pitch": 67, "duration": 9, "velocity": 96}, {"time": 2271, "pitch": 55, "duration": 4, "velocity": 86}, {"time": 2274, "pitch": 59, "duration": 7, "velocity": 94}, {"time": 2274, "pitch": 62, "duration": 8, "velocity": 107}, {"time": 2274, "pitch": 67, "duration": 8, "velocity": 94}, {"time": 2286, "pitch": 50, "duration": 15, "velocity": 87}, {"time": 2286, "pitch": 57, "duration": 9, "velocity": 89}, {"time": 2286, "pitch": 62, "duration": 9, "velocity": 96}, {"time": 2286, "pitch": 66, "duration": 8, "velocity": 88}, {"time": 2298, "pitch": 57, "duration": 6, "velocity": 93}, {"time": 2298, "pitch": 62, "duration": 8, "velocity": 107}, {"time": 2298, "pitch": 66, "duration": 9, "velocity": 86}, {"time": 2304, "pitch": 50, "duration": 5, "velocity": 79}, {"time": 2310, "pitch": 43, "duration": 15, "velocity": 83}, {"time": 2310, "pitch": 55, "duration": 15, "velocity": 80}, {"time": 2310, "pitch": 59, "duration": 9, "velocity": 92}, {"time": 2310, "pitch": 62, "duration": 10, "velocity": 98}, {"time": 2310, "pitch": 67, "duration": 8, "velocity": 92}, {"time": 2322, "pitch": 59, "duration": 8, "velocity": 92}, {"time": 2322, "pitch": 62, "duration": 7, "velocity": 102}, {"time": 2322, "pitch": 67, "duration": 8, "velocity": 91}, {"time": 2328, "pitch": 43, "duration": 3, "velocity": 84}, {"time": 2334, "pitch": 45, "duration": 15, "velocity": 85}, {"time": 2334, "pitch": 57, "duration": 11, "velocity": 88}, {"time": 2334, "pitch": 61, "duration": 11, "velocity": 91}, {"time": 2334, "pitch": 64, "duration": 10, "velocity": 92}, {"time": 2346, "pitch": 57, "duration": 7, "velocity": 93}, {"time": 2346, "pitch": 61, "duration": 7, "velocity": 103}, {"time": 2346, "pitch": 64, "duration": 6, "velocity": 96}, {"time": 2352, "pitch": 45, "duration": 5, "velocity": 84}, {"time": 2358, "pitch": 50, "duration": 29, "velocity": 88}, {"time": 2358, "pitch": 57, "duration": 11, "velocity": 87}, {"time": 2358, "pitch": 62, "duration": 10, "velocity": 98}, {"time": 2358, "pitch": 66, "duration": 10, "velocity": 88}, {"time": 2370, "pitch": 57, "duration": 8, "velocity": 88}, {"time": 2370, "pitch": 62, "duration": 8, "velocity": 94}, {"time": 2370, "pitch": 66, "duration": 7, "velocity": 87}, {"time": 2379, "pitch": 57, "duration": 4, "velocity": 88}, {"time": 2379, "pitch": 62, "duration": 4, "velocity": 93}, {"time": 2379, "pitch": 66, "duration": 4, "velocity": 87}, {"time": 2385, "pitch": 57, "duration": 7, "velocity": 87}, {"time": 2385, "pitch": 62, "duration": 7, "velocity": 90}, {"time": 2385, "pitch": 66, "duration": 6, "velocity": 86}, {"time": 2394, "pitch": 50, "duration": 11, "velocity": 84}, {"time": 2394, "pitch": 57, "duration": 5, "velocity": 90}, {"time": 2394, "pitch": 62, "duration": 6, "velocity": 102}, {"time": 2394, "pitch": 66, "duration": 7, "velocity": 95}, {"time": 2406, "pitch": 47, "duration": 23, "velocity": 87}, {"time": 2406, "pitch": 59, "duration": 10, "velocity": 90}, {"time": 2406, "pitch": 62, "duration": 10, "velocity": 93}, {"time": 2406, "pitch": 66, "duration": 9, "velocity": 87}, {"time": 2418, "pitch": 59, "duration": 9, "velocity": 89}, {"time": 2418, "pitch": 62, "duration": 10, "velocity": 96}, {"time": 2418, "pitch": 66, "duration": 9, "velocity": 87}, {"time": 2427, "pitch": 43, "duration": 16, "velocity": 84}, {"time": 2430, "pitch": 55, "duration": 16, "velocity": 84}, {"time": 2430, "pitch": 59, "duration": 10, "velocity": 89}, {"time": 2430, "pitch": 62, "duration": 11, "velocity": 91}, {"time": 2430, "pitch": 67, "duration": 10, "velocity": 88}, {"time": 2442, "pitch": 59, "duration": 8, "velocity": 89}, {"time": 2442, "pitch": 62, "duration": 8, "velocity": 93}, {"time": 2442, "pitch": 67, "duration": 8, "velocity": 91}, {"time": 2448, "pitch": 43, "duration": 5, "velocity": 86}, {"time": 2454, "pitch": 50, "duration": 16, "velocity": 89}, {"time": 2454, "pitch": 57, "duration": 11, "velocity": 88}, {"time": 2454, "pitch": 62, "duration": 11, "velocity": 94}, {"time": 2454, "pitch": 66, "duration": 11, "velocity": 87}, {"time": 2466, "pitch": 57, "duration": 10, "velocity": 87}, {"time": 2466, "pitch": 62, "duration": 6, "velocity": 96}, {"time": 2466, "pitch": 66, "duration": 7, "velocity": 87}, {"time": 2472, "pitch": 50, "duration": 6, "velocity": 84}, {"time": 2478, "pitch": 45, "duration": 24, "velocity": 87}, {"time": 2478, "pitch": 57, "duration": 8, "velocity": 88}, {"time": 2478, "pitch": 61, "duration": 8, "velocity": 95}, {"time": 2478, "pitch": 64, "duration": 8, "velocity": 92}, {"time": 2490, "pitch": 57, "duration": 11, "velocity": 88}, {"time": 2490, "pitch": 61, "duration": 13, "velocity": 91}, {"time": 2490, "pitch": 64, "duration": 10, "velocity": 91}, {"time": 2502, "pitch": 50, "duration": 30, "velocity": 84}, {"time": 2502, "pitch": 57, "duration": 10, "velocity": 86}, {"time": 2502, "pitch": 62, "duration": 10, "velocity": 89}, {"time": 2502, "pitch": 66, "duration": 10, "velocity": 86}, {"time": 2514, "pitch": 57, "duration": 7, "velocity": 88}, {"time": 2514, "pitch": 62, "duration": 8, "velocity": 90}, {"time": 2514, "pitch": 66, "duration": 7, "velocity": 88}, {"time": 2526, "pitch": 57, "duration": 9, "velocity": 82}, {"time": 2526, "pitch": 62, "duration": 9, "velocity": 88}, {"time": 2526, "pitch": 66, "duration": 9, "velocity": 86}, {"time": 2534, "pitch": 50, "duration": 21, "velocity": 69}, {"time": 2540, "pitch": 57, "duration": 9, "velocity": 86}, {"time": 2540, "pitch": 62, "duration": 9, "velocity": 91}, {"time": 2540, "pitch": 66, "duration": 9, "velocity": 87}, {"time": 2556, "pitch": 50, "duration": 17, "velocity": 83}, {"time": 2565, "pitch": 57, "duration": 8, "velocity": 88}, {"time": 2568, "pitch": 62, "duration": 4, "velocity": 98}, {"time": 2571, "pitch": 66, "duration": 4, "velocity": 103}, {"time": 2574, "pitch": 69, "duration": 4, "velocity": 88}, {"time": 2577, "pitch": 74, "duration": 4, "velocity": 108}, {"time": 2580, "pitch": 45, "duration": 21, "velocity": 88}, {"time": 2580, "pitch": 64, "duration": 8, "velocity": 100}, {"time": 2580, "pitch": 73, "duration": 6, "velocity": 91}, {"time": 2586, "pitch": 52, "duration": 12, "velocity": 76}, {"time": 2589, "pitch": 57, "duration": 8, "velocity": 87}, {"time": 2595, "pitch": 61, "duration": 4, "velocity": 95}, {"time": 2598, "pitch": 64, "duration": 4, "velocity": 87}, {"time": 2598, "pitch": 69, "duration": 3, "velocity": 87}, {"time": 2601, "pitch": 57, "duration": 3, "velocity": 87}, {"time": 2601, "pitch": 69, "duration": 2, "velocity": 91}, {"time": 2604, "pitch": 47, "duration": 16, "velocity": 88}, {"time": 2604, "pitch": 62, "duration": 8, "velocity": 91}, {"time": 2604, "pitch": 66, "duration": 9, "velocity": 97}, {"time": 2604, "pitch": 69, "duration": 9, "velocity": 86}, {"time": 2610, "pitch": 54, "duration": 10, "velocity": 74}, {"time": 2613, "pitch": 59, "duration": 6, "velocity": 88}, {"time": 2616, "pitch": 62, "duration": 5, "velocity": 117}, {"time": 2616, "pitch": 69, "duration": 4, "velocity": 113}, {"time": 2619, "pitch": 64, "duration": 4, "velocity": 84}, {"time": 2622, "pitch": 66, "duration": 9, "velocity": 83}, {"time": 2625, "pitch": 69, "duration": 9, "velocity": 92}, {"time": 2628, "pitch": 42, "duration": 19, "velocity": 100}, {"time": 2631, "pitch": 49, "duration": 9, "velocity": 80}, {"time": 2634, "pitch": 54, "duration": 5, "velocity": 100}, {"time": 2637, "pitch": 61, "duration": 8, "velocity": 109}, {"time": 2637, "pitch": 69, "duration": 7, "velocity": 116}, {"time": 2643, "pitch": 54, "duration": 4, "velocity": 106}, {"time": 2646, "pitch": 66, "duration": 4, "velocity": 90}, {"time": 2649, "pitch": 69, "duration": 2, "velocity": 102}, {"time": 2652, "pitch": 43, "duration": 18, "velocity": 93}, {"time": 2652, "pitch": 59, "duration": 7, "velocity": 82}, {"time": 2652, "pitch": 62, "duration": 10, "velocity": 96}, {"time": 2652, "pitch": 67, "duration": 8, "velocity": 91}, {"time": 2658, "pitch": 50, "duration": 13, "velocity": 81}, {"time": 2661, "pitch": 55, "duration": 5, "velocity": 100}, {"time": 2664, "pitch": 59, "duration": 4, "velocity": 114}, {"time": 2664, "pitch": 67, "duration": 4, "velocity": 108}, {"time": 2667, "pitch": 62, "duration": 5, "velocity": 86}, {"time": 2670, "pitch": 55, "duration": 7, "velocity": 87}, {"time": 2670, "pitch": 67, "duration": 5, "velocity": 88}, {"time": 2675, "pitch": 62, "duration": 1, "velocity": 48}, {"time": 2676, "pitch": 50, "duration": 17, "velocity": 86}, {"time": 2676, "pitch": 62, "duration": 4, "velocity": 108}, {"time": 2676, "pitch": 66, "duration": 5, "velocity": 100}, {"time": 2682, "pitch": 57, "duration": 10, "velocity": 81}, {"time": 2685, "pitch": 62, "duration": 6, "velocity": 100}, {"time": 2688, "pitch": 66, "duration": 4, "velocity": 113}, {"time": 2691, "pitch": 69, "duration": 4, "velocity": 104}, {"time": 2694, "pitch": 74, "duration": 5, "velocity": 107}, {"time": 2700, "pitch": 43, "duration": 20, "velocity": 96}, {"time": 2700, "pitch": 67, "duration": 5, "velocity": 96}, {"time": 2700, "pitch": 71, "duration": 5, "velocity": 113}, {"time": 2700, "pitch": 74, "duration": 4, "velocity": 102}, {"time": 2706, "pitch": 50, "duration": 19, "velocity": 82}, {"time": 2709, "pitch": 55, "duration": 16, "velocity": 89}, {"time": 2712, "pitch": 59, "duration": 5, "velocity": 116}, {"time": 2712, "pitch": 67, "duration": 3, "velocity": 113}, {"time": 2715, "pitch": 62, "duration": 4, "velocity": 94}, {"time": 2719, "pitch": 67, "duration": 4, "velocity": 91}, {"time": 2722, "pitch": 64, "duration": 1, "velocity": 83}, {"time": 2724, "pitch": 45, "duration": 21, "velocity": 91}, {"time": 2724, "pitch": 61, "duration": 5, "velocity": 109}, {"time": 2724, "pitch": 64, "duration": 8, "velocity": 114}, {"time": 2724, "pitch": 69, "duration": 6, "velocity": 113}, {"time": 2730, "pitch": 52, "duration": 16, "velocity": 86}, {"time": 2733, "pitch": 61, "duration": 4, "velocity": 106}, {"time": 2733, "pitch": 64, "duration": 7, "velocity": 119}, {"time": 2733, "pitch": 69, "duration": 6, "velocity": 116}, {"time": 2739, "pitch": 57, "duration": 3, "velocity": 92}, {"time": 2742, "pitch": 61, "duration": 3, "velocity": 113}, {"time": 2742, "pitch": 69, "duration": 4, "velocity": 104}, {"time": 2745, "pitch": 57, "duration": 4, "velocity": 91}, {"time": 2748, "pitch": 50, "duration": 18, "velocity": 102}, {"time": 2748, "pitch": 62, "duration": 3, "velocity": 102}, {"time": 2748, "pitch": 66, "duration": 5, "velocity": 119}, {"time": 2748, "pitch": 69, "duration": 5, "velocity": 110}, {"time": 2754, "pitch": 57, "duration": 11, "velocity": 86}, {"time": 2757, "pitch": 62, "duration": 7, "velocity": 114}, {"time": 2760, "pitch": 66, "duration": 4, "velocity": 116}, {"time": 2763, "pitch": 69, "duration": 4, "velocity": 85}, {"time": 2766, "pitch": 74, "duration": 4, "velocity": 102}, {"time": 2772, "pitch": 45, "duration": 21, "velocity": 96}, {"time": 2772, "pitch": 64, "duration": 8, "velocity": 107}, {"time": 2772, "pitch": 73, "duration": 4, "velocity": 113}, {"time": 2778, "pitch": 52, "duration": 16, "velocity": 87}, {"time": 2781, "pitch": 61, "duration": 7, "velocity": 116}, {"time": 2781, "pitch": 69, "duration": 6, "velocity": 110}, {"time": 2787, "pitch": 57, "duration": 4, "velocity": 96}, {"time": 2790, "pitch": 64, "duration": 5, "velocity": 107}, {"time": 2793, "pitch": 57, "duration": 3, "velocity": 88}, {"time": 2796, "pitch": 47, "duration": 14, "velocity": 88}, {"time": 2796, "pitch": 62, "duration": 9, "velocity": 102}, {"time": 2796, "pitch": 66, "duration": 9, "velocity": 116}, {"time": 2796, "pitch": 69, "duration": 9, "velocity": 108}, {"time": 2802, "pitch": 54, "duration": 9, "velocity": 84}, {"time": 2805, "pitch": 59, "duration": 5, "velocity": 93}, {"time": 2808, "pitch": 62, "duration": 5, "velocity": 116}, {"time": 2808, "pitch": 69, "duration": 7, "velocity": 110}, {"time": 2811, "pitch": 64, "duration": 2, "velocity": 86}, {"time": 2814, "pitch": 47, "duration": 1, "velocity": 87}, {"time": 2814, "pitch": 64, "duration": 2, "velocity": 75}, {"time": 2816, "pitch": 66, "duration": 8, "velocity": 61}, {"time": 2817, "pitch": 69, "duration": 7, "velocity": 82}, {"time": 2820, "pitch": 42, "duration": 19, "velocity": 113}, {"time": 2826, "pitch": 49, "duration": 13, "velocity": 76}, {"time": 2829, "pitch": 54, "duration": 4, "velocity": 95}, {"time": 2832, "pitch": 61, "duration": 6, "velocity": 116}, {"time": 2832, "pitch": 69, "duration": 5, "velocity": 108}, {"time": 2835, "pitch": 54, "duration": 4, "velocity": 113}, {"time": 2838, "pitch": 66, "duration": 3, "velocity": 119}, {"time": 2841, "pitch": 69, "duration": 2, "velocity": 110}, {"time": 2844, "pitch": 43, "duration": 22, "velocity": 98}, {"time": 2844, "pitch": 59, "duration": 9, "velocity": 93}, {"time": 2844, "pitch": 62, "duration": 10, "velocity": 113}, {"time": 2844, "pitch": 67, "duration": 10, "velocity": 91}, {"time": 2850, "pitch": 50, "duration": 17, "velocity": 79}, {"time": 2853, "pitch": 55, "duration": 4, "velocity": 93}, {"time": 2856, "pitch": 59, "duration": 4, "velocity": 116}, {"time": 2856, "pitch": 67, "duration": 6, "velocity": 110}, {"time": 2859, "pitch": 62, "duration": 7, "velocity": 84}, {"time": 2862, "pitch": 55, "duration": 2, "velocity": 75}, {"time": 2865, "pitch": 55, "duration": 2, "velocity": 90}, {"time": 2865, "pitch": 67, "duration": 4, "velocity": 89}, {"time": 2868, "pitch": 50, "duration": 17, "velocity": 108}, {"time": 2871, "pitch": 57, "duration": 12, "velocity": 84}, {"time": 2874, "pitch": 62, "duration": 7, "velocity": 110}, {"time": 2877, "pitch": 66, "duration": 4, "velocity": 106}, {"time": 2880, "pitch": 69, "duration": 4, "velocity": 94}, {"time": 2883, "pitch": 74, "duration": 5, "velocity": 107}, {"time": 2886, "pitch": 69, "duration": 5, "velocity": 88}, {"time": 2892, "pitch": 43, "duration": 20, "velocity": 96}, {"time": 2892, "pitch": 67, "duration": 6, "velocity": 96}, {"time": 2892, "pitch": 71, "duration": 6, "velocity": 114}, {"time": 2892, "pitch": 74, "duration": 5, "velocity": 107}, {"time": 2898, "pitch": 50, "duration": 19, "velocity": 87}, {"time": 2901, "pitch": 55, "duration": 14, "velocity": 98}, {"time": 2904, "pitch": 59, "duration": 4, "velocity": 110}, {"time": 2907, "pitch": 62, "duration": 4, "velocity": 92}, {"time": 2910, "pitch": 67, "duration": 5, "velocity": 91}, {"time": 2916, "pitch": 45, "duration": 19, "velocity": 89}, {"time": 2916, "pitch": 61, "duration": 7, "velocity": 109}, {"time": 2916, "pitch": 64, "duration": 10, "velocity": 114}, {"time": 2922, "pitch": 52, "duration": 14, "velocity": 81}, {"time": 2925, "pitch": 57, "duration": 4, "velocity": 92}, {"time": 2928, "pitch": 61, "duration": 4, "velocity": 116}, {"time": 2928, "pitch": 64, "duration": 8, "velocity": 114}, {"time": 2928, "pitch": 69, "duration": 7, "velocity": 114}, {"time": 2936, "pitch": 57, "duration": 5, "velocity": 91}, {"time": 2940, "pitch": 50, "duration": 38, "velocity": 96}, {"time": 2940, "pitch": 62, "duration": 5, "velocity": 113}, {"time": 2940, "pitch": 66, "duration": 6, "velocity": 106}, {"time": 2940, "pitch": 69, "duration": 5, "velocity": 96}, {"time": 2946, "pitch": 57, "duration": 33, "velocity": 78}, {"time": 2949, "pitch": 62, "duration": 7, "velocity": 88}, {"time": 2952, "pitch": 66, "duration": 5, "velocity": 106}, {"time": 2955, "pitch": 69, "duration": 4, "velocity": 85}, {"time": 2958, "pitch": 62, "duration": 9, "velocity": 88}, {"time": 2961, "pitch": 66, "duration": 5, "velocity": 109}, {"time": 2961, "pitch": 69, "duration": 5, "velocity": 110}, {"time": 2961, "pitch": 74, "duration": 4, "velocity": 104}, {"time": 2967, "pitch": 66, "duration": 3, "velocity": 90}, {"time": 2967, "pitch": 69, "duration": 6, "velocity": 92}, {"time": 2967, "pitch": 74, "duration": 5, "velocity": 91}, {"time": 2973, "pitch": 62, "duration": 4, "velocity": 98}, {"time": 2979, "pitch": 50, "duration": 3, "velocity": 89}, {"time": 2979, "pitch": 66, "duration": 4, "velocity": 116}, {"time": 2979, "pitch": 69, "duration": 5, "velocity": 88}, {"time": 2987, "pitch": 69, "duration": 5, "velocity": 97}, {"time": 2987, "pitch": 66, "duration": 4, "velocity": 97}, {"time": 2987, "pitch": 74, "duration": 5, "velocity": 97}, {"time": 2988, "pitch": 50, "duration": 16, "velocity": 83}, {"time": 2993, "pitch": 57, "duration": 8, "velocity": 88}, {"time": 2996, "pitch": 62, "duration": 4, "velocity": 98}, {"time": 3002, "pitch": 66, "duration": 4, "velocity": 103}, {"time": 3005, "pitch": 69, "duration": 4, "velocity": 88}, {"time": 3008, "pitch": 74, "duration": 4, "velocity": 108}, {"time": 3011, "pitch": 45, "duration": 22, "velocity": 88}, {"time": 3011, "pitch": 64, "duration": 8, "velocity": 100}, {"time": 3011, "pitch": 73, "duration": 6, "velocity": 91}, {"time": 3017, "pitch": 52, "duration": 12, "velocity": 76}, {"time": 3020, "pitch": 57, "duration": 9, "velocity": 87}, {"time": 3026, "pitch": 61, "duration": 4, "velocity": 95}, {"time": 3029, "pitch": 64, "duration": 4, "velocity": 87}, {"time": 3029, "pitch": 69, "duration": 3, "velocity": 87}, {"time": 3032, "pitch": 57, "duration": 4, "velocity": 87}, {"time": 3032, "pitch": 69, "duration": 3, "velocity": 91}, {"time": 3035, "pitch": 47, "duration": 16, "velocity": 88}, {"time": 3035, "pitch": 62, "duration": 8, "velocity": 91}, {"time": 3035, "pitch": 66, "duration": 10, "velocity": 97}, {"time": 3035, "pitch": 69, "duration": 9, "velocity": 86}, {"time": 3041, "pitch": 54, "duration": 10, "velocity": 74}, {"time": 3044, "pitch": 59, "duration": 6, "velocity": 88}, {"time": 3047, "pitch": 62, "duration": 6, "velocity": 117}, {"time": 3047, "pitch": 69, "duration": 4, "velocity": 113}, {"time": 3050, "pitch": 64, "duration": 5, "velocity": 84}, {"time": 3053, "pitch": 66, "duration": 9, "velocity": 83}, {"time": 3056, "pitch": 69, "duration": 9, "velocity": 92}, {"time": 3059, "pitch": 42, "duration": 20, "velocity": 100}, {"time": 3062, "pitch": 49, "duration": 10, "velocity": 80}, {"time": 3065, "pitch": 54, "duration": 6, "velocity": 100}, {"time": 3068, "pitch": 61, "duration": 8, "velocity": 109}, {"time": 3068, "pitch": 69, "duration": 7, "velocity": 116}, {"time": 3074, "pitch": 54, "duration": 5, "velocity": 106}, {"time": 3077, "pitch": 66, "duration": 4, "velocity": 90}, {"time": 3080, "pitch": 69, "duration": 3, "velocity": 102}, {"time": 3083, "pitch": 43, "duration": 18, "velocity": 93}, {"time": 3083, "pitch": 59, "duration": 7, "velocity": 82}, {"time": 3083, "pitch": 62, "duration": 10, "velocity": 96}, {"time": 3083, "pitch": 67, "duration": 8, "velocity": 91}, {"time": 3089, "pitch": 50, "duration": 14, "velocity": 81}, {"time": 3092, "pitch": 55, "duration": 5, "velocity": 100}, {"time": 3095, "pitch": 59, "duration": 4, "velocity": 114}, {"time": 3095, "pitch": 67, "duration": 4, "velocity": 108}, {"time": 3098, "pitch": 62, "duration": 5, "velocity": 86}, {"time": 3101, "pitch": 55, "duration": 7, "velocity": 87}, {"time": 3101, "pitch": 67, "duration": 5, "velocity": 88}, {"time": 3106, "pitch": 62, "duration": 1, "velocity": 48}, {"time": 3107, "pitch": 50, "duration": 17, "velocity": 86}, {"time": 3107, "pitch": 62, "duration": 4, "velocity": 108}, {"time": 3107, "pitch": 66, "duration": 5, "velocity": 100}, {"time": 3113, "pitch": 57, "duration": 10, "velocity": 81}, {"time": 3116, "pitch": 62, "duration": 7, "velocity": 100}, {"time": 3119, "pitch": 66, "duration": 4, "velocity": 113}, {"time": 3122, "pitch": 69, "duration": 5, "velocity": 104}, {"time": 3125, "pitch": 74, "duration": 5, "velocity": 107}, {"time": 3131, "pitch": 43, "duration": 21, "velocity": 96}, {"time": 3131, "pitch": 67, "duration": 5, "velocity": 96}, {"time": 3131, "pitch": 71, "duration": 5, "velocity": 113}, {"time": 3131, "pitch": 74, "duration": 4, "velocity": 102}, {"time": 3137, "pitch": 50, "duration": 20, "velocity": 82}, {"time": 3140, "pitch": 55, "duration": 16, "velocity": 89}, {"time": 3143, "pitch": 59, "duration": 5, "velocity": 116}, {"time": 3143, "pitch": 67, "duration": 4, "velocity": 113}, {"time": 3146, "pitch": 62, "duration": 5, "velocity": 94}, {"time": 3149, "pitch": 67, "duration": 5, "velocity": 91}, {"time": 3152, "pitch": 64, "duration": 1, "velocity": 83}, {"time": 3155, "pitch": 45, "duration": 21, "velocity": 91}, {"time": 3155, "pitch": 61, "duration": 5, "velocity": 109}, {"time": 3155, "pitch": 64, "duration": 8, "velocity": 114}, {"time": 3155, "pitch": 69, "duration": 7, "velocity": 113}, {"time": 3161, "pitch": 52, "duration": 17, "velocity": 86}, {"time": 3164, "pitch": 61, "duration": 4, "velocity": 106}, {"time": 3164, "pitch": 64, "duration": 7, "velocity": 119}, {"time": 3164, "pitch": 69, "duration": 6, "velocity": 116}, {"time": 3170, "pitch": 57, "duration": 3, "velocity": 92}, {"time": 3173, "pitch": 61, "duration": 3, "velocity": 113}, {"time": 3173, "pitch": 69, "duration": 5, "velocity": 104}, {"time": 3176, "pitch": 57, "duration": 4, "velocity": 91}, {"time": 3179, "pitch": 50, "duration": 18, "velocity": 102}, {"time": 3179, "pitch": 62, "duration": 3, "velocity": 102}, {"time": 3179, "pitch": 66, "duration": 5, "velocity": 119}, {"time": 3179, "pitch": 69, "duration": 5, "velocity": 110}, {"time": 3185, "pitch": 57, "duration": 11, "velocity": 86}, {"time": 3188, "pitch": 62, "duration": 7, "velocity": 114}, {"time": 3191, "pitch": 66, "duration": 5, "velocity": 116}, {"time": 3194, "pitch": 69, "duration": 5, "velocity": 85}, {"time": 3197, "pitch": 74, "duration": 5, "velocity": 102}, {"time": 3203, "pitch": 45, "duration": 21, "velocity": 96}, {"time": 3203, "pitch": 64, "duration": 8, "velocity": 107}, {"time": 3203, "pitch": 73, "duration": 4, "velocity": 113}, {"time": 3209, "pitch": 52, "duration": 16, "velocity": 87}, {"time": 3212, "pitch": 61, "duration": 7, "velocity": 116}, {"time": 3212, "pitch": 69, "duration": 7, "velocity": 110}, {"time": 3218, "pitch": 57, "duration": 4, "velocity": 96}, {"time": 3221, "pitch": 64, "duration": 6, "velocity": 107}, {"time": 3224, "pitch": 57, "duration": 4, "velocity": 88}, {"time": 3227, "pitch": 47, "duration": 15, "velocity": 88}, {"time": 3227, "pitch": 62, "duration": 9, "velocity": 102}, {"time": 3227, "pitch": 66, "duration": 10, "velocity": 116}, {"time": 3227, "pitch": 69, "duration": 9, "velocity": 108}, {"time": 3233, "pitch": 54, "duration": 9, "velocity": 84}, {"time": 3236, "pitch": 59, "duration": 5, "velocity": 93}, {"time": 3239, "pitch": 62, "duration": 5, "velocity": 116}, {"time": 3239, "pitch": 69, "duration": 7, "velocity": 110}, {"time": 3242, "pitch": 64, "duration": 2, "velocity": 86}, {"time": 3245, "pitch": 47, "duration": 2, "velocity": 87}, {"time": 3245, "pitch": 64, "duration": 3, "velocity": 75}, {"time": 3247, "pitch": 66, "duration": 8, "velocity": 61}, {"time": 3248, "pitch": 69, "duration": 7, "velocity": 82}, {"time": 3251, "pitch": 42, "duration": 20, "velocity": 113}, {"time": 3257, "pitch": 49, "duration": 13, "velocity": 76}, {"time": 3260, "pitch": 54, "duration": 4, "velocity": 95}, {"time": 3263, "pitch": 61, "duration": 6, "velocity": 116}, {"time": 3263, "pitch": 69, "duration": 5, "velocity": 108}, {"time": 3266, "pitch": 54, "duration": 4, "velocity": 113}, {"time": 3269, "pitch": 66, "duration": 3, "velocity": 119}, {"time": 3272, "pitch": 69, "duration": 2, "velocity": 110}, {"time": 3275, "pitch": 43, "duration": 22, "velocity": 98}, {"time": 3275, "pitch": 59, "duration": 9, "velocity": 93}, {"time": 3275, "pitch": 62, "duration": 10, "velocity": 113}, {"time": 3275, "pitch": 67, "duration": 10, "velocity": 91}, {"time": 3281, "pitch": 50, "duration": 17, "velocity": 79}, {"time": 3284, "pitch": 55, "duration": 4, "velocity": 93}, {"time": 3287, "pitch": 59, "duration": 5, "velocity": 116}, {"time": 3287, "pitch": 67, "duration": 6, "velocity": 110}, {"time": 3290, "pitch": 62, "duration": 7, "velocity": 84}, {"time": 3293, "pitch": 55, "duration": 2, "velocity": 75}, {"time": 3296, "pitch": 55, "duration": 2, "velocity": 90}, {"time": 3296, "pitch": 67, "duration": 4, "velocity": 89}, {"time": 3299, "pitch": 50, "duration": 17, "velocity": 108}, {"time": 3302, "pitch": 57, "duration": 12, "velocity": 84}, {"time": 3305, "pitch": 62, "duration": 7, "velocity": 110}, {"time": 3308, "pitch": 66, "duration": 4, "velocity": 106}, {"time": 3311, "pitch": 69, "duration": 4, "velocity": 94}, {"time": 3314, "pitch": 74, "duration": 5, "velocity": 107}, {"time": 3317, "pitch": 69, "duration": 5, "velocity": 88}, {"time": 3323, "pitch": 43, "duration": 20, "velocity": 96}, {"time": 3323, "pitch": 67, "duration": 6, "velocity": 96}, {"time": 3323, "pitch": 71, "duration": 7, "velocity": 114}, {"time": 3323, "pitch": 74, "duration": 5, "velocity": 107}, {"time": 3329, "pitch": 50, "duration": 19, "velocity": 87}, {"time": 3332, "pitch": 55, "duration": 14, "velocity": 98}, {"time": 3335, "pitch": 59, "duration": 5, "velocity": 110}, {"time": 3338, "pitch": 62, "duration": 4, "velocity": 92}, {"time": 3341, "pitch": 67, "duration": 5, "velocity": 91}, {"time": 3347, "pitch": 45, "duration": 19, "velocity": 89}, {"time": 3347, "pitch": 61, "duration": 7, "velocity": 109}, {"time": 3347, "pitch": 64, "duration": 10, "velocity": 114}, {"time": 3353, "pitch": 52, "duration": 15, "velocity": 81}, {"time": 3356, "pitch": 57, "duration": 4, "velocity": 92}, {"time": 3359, "pitch": 61, "duration": 4, "velocity": 116}, {"time": 3359, "pitch": 64, "duration": 8, "velocity": 114}, {"time": 3360, "pitch": 67, "duration": 6, "velocity": 114}, {"time": 3365, "pitch": 57, "duration": 6, "velocity": 91}, {"time": 3371, "pitch": 50, "duration": 38, "velocity": 96}, {"time": 3371, "pitch": 62, "duration": 5, "velocity": 113}, {"time": 3371, "pitch": 66, "duration": 6, "velocity": 106}, {"time": 3371, "pitch": 69, "duration": 5, "velocity": 96}, {"time": 3377, "pitch": 57, "duration": 33, "velocity": 78}, {"time": 3383, "pitch": 61, "duration": 7, "velocity": 82}, {"time": 3389, "pitch": 62, "duration": 7, "velocity": 82}, {"time": 3396, "pitch": 64, "duration": 12, "velocity": 82}, {"time": 3419, "pitch": 47, "duration": 13, "velocity": 79}, {"time": 3419, "pitch": 62, "duration": 9, "velocity": 83}, {"time": 3419, "pitch": 66, "duration": 9, "velocity": 82}, {"time": 3419, "pitch": 69, "duration": 9, "velocity": 83}, {"time": 3431, "pitch": 62, "duration": 4, "velocity": 82}, {"time": 3431, "pitch": 66, "duration": 5, "velocity": 83}, {"time": 3431, "pitch": 69, "duration": 5, "velocity": 85}, {"time": 3443, "pitch": 43, "duration": 15, "velocity": 78}, {"time": 3443, "pitch": 59, "duration": 9, "velocity": 77}, {"time": 3443, "pitch": 62, "duration": 10, "velocity": 80}, {"time": 3443, "pitch": 67, "duration": 8, "velocity": 81}, {"time": 3455, "pitch": 59, "duration": 5, "velocity": 81}, {"time": 3455, "pitch": 62, "duration": 6, "velocity": 84}, {"time": 3455, "pitch": 67, "duration": 6, "velocity": 82}, {"time": 3467, "pitch": 38, "duration": 13, "velocity": 79}, {"time": 3467, "pitch": 50, "duration": 15, "velocity": 76}, {"time": 3467, "pitch": 62, "duration": 9, "velocity": 81}, {"time": 3467, "pitch": 66, "duration": 9, "velocity": 80}, {"time": 3467, "pitch": 69, "duration": 7, "velocity": 82}, {"time": 3479, "pitch": 62, "duration": 8, "velocity": 84}, {"time": 3479, "pitch": 66, "duration": 9, "velocity": 79}, {"time": 3479, "pitch": 69, "duration": 7, "velocity": 82}, {"time": 3491, "pitch": 45, "duration": 14, "velocity": 76}, {"time": 3491, "pitch": 61, "duration": 9, "velocity": 83}, {"time": 3491, "pitch": 64, "duration": 8, "velocity": 86}, {"time": 3491, "pitch": 69, "duration": 8, "velocity": 77}, {"time": 3503, "pitch": 61, "duration": 6, "velocity": 80}, {"time": 3503, "pitch": 64, "duration": 10, "velocity": 83}, {"time": 3503, "pitch": 69, "duration": 9, "velocity": 87}, {"time": 3515, "pitch": 38, "duration": 30, "velocity": 81}, {"time": 3515, "pitch": 50, "duration": 30, "velocity": 78}, {"time": 3515, "pitch": 62, "duration": 9, "velocity": 83}, {"time": 3515, "pitch": 66, "duration": 9, "velocity": 83}, {"time": 3515, "pitch": 69, "duration": 9, "velocity": 82}, {"time": 3527, "pitch": 62, "duration": 8, "velocity": 74}, {"time": 3527, "pitch": 66, "duration": 9, "velocity": 74}, {"time": 3527, "pitch": 69, "duration": 7, "velocity": 69}, {"time": 3539, "pitch": 62, "duration": 8, "velocity": 75}, {"time": 3539, "pitch": 66, "duration": 9, "velocity": 74}, {"time": 3539, "pitch": 69, "duration": 9, "velocity": 75}], "annotations": [{"time": 79, "annotation": {"number": 64, "value": 127}, "group": "control_change"}, {"time": 100, "annotation": {"number": 64, "value": 0}, "group": "control_change"}, {"time": 102, "annotation": {"number": 64, "value": 127}, "group": "control_change"}, {"time": 124, "annotation": {"number": 64, "value": 74}, "group": "control_change"}, {"time": 124, "annotation": {"number": 64, "value": 0}, "group": "control_change"}, {"time": 126, "annotation": {"number": 64, "value": 38}, "group": "control_change"}, {"time": 126, "annotation": {"number": 64, "value": 127}, "group": "control_change"}, {"time": 127, "annotation": {"number": 64, "value": 127}, "group": "control_change"}, {"time": 136, "annotation": {"number": 64, "value": 74}, "group": "control_change"}, {"time": 136, "annotation": {"number": 64, "value": 0}, "group": "control_change"}, {"time": 138, "annotation": {"number": 64, "value": 127}, "group": "control_change"}, {"time": 141, "annotation": {"number": 64, "value": 0}, "group": "control_change"}, {"time": 148, "annotation": {"number": 64, "value": 38}, "group": "control_change"}, {"time": 148, "annotation": {"number": 64, "value": 0}, "group": "control_change"}, {"time": 151, "annotation": {"number": 64, "value": 127}, "group": "control_change"}, {"time": 172, "annotation": {"number": 64, "value": 38}, "group": "control_change"}, {"time": 172, "annotation": {"number": 64, "value": 0}, "group": "control_change"}, {"time": 175, "annotation": {"number": 64, "value": 127}, "group": "control_change"}, {"time": 196, "annotation": {"number": 64, "value": 74}, "group": "control_change"}, {"time": 196, "annotation": {"number": 64, "value": 127}, "group": "control_change"}, {"time": 196, "annotation": {"number": 64, "value": 0}, "group": "control_change"}, {"time": 199, "annotation": {"number": 64, "value": 38}, "group": "control_change"}, {"time": 199, "annotation": {"number": 64, "value": 127}, "group": "control_change"}, {"time": 239, "annotation": {"number": 64, "value": 74}, "group": "control_change"}, {"time": 239, "annotation": {"number": 64, "value": 38}, "group": "control_change"}, {"time": 239, "annotation": {"number": 64, "value": 0}, "group": "control_change"}, {"time": 1926, "annotation": {"number": 64, "value": 74}, "group": "control_change"}, {"time": 1926, "annotation": {"number": 64, "value": 127}, "group": "control_change"}, {"time": 1948, "annotation": {"number": 64, "value": 38}, "group": "control_change"}, {"time": 1948, "annotation": {"number": 64, "value": 0}, "group": "control_change"}, {"time": 1950, "annotation": {"number": 64, "value": 127}, "group": "control_change"}, {"time": 1960, "annotation": {"number": 64, "value": 38}, "group": "control_change"}, {"time": 1960, "annotation": {"number": 64, "value": 0}, "group": "control_change"}, {"time": 1962, "annotation": {"number": 64, "value": 127}, "group": "control_change"}, {"time": 1971, "annotation": {"number": 64, "value": 0}, "group": "control_change"}, {"time": 1974, "annotation": {"number": 64, "value": 127}, "group": "control_change"}, {"time": 1983, "annotation": {"number": 64, "value": 38}, "group": "control_change"}, {"time": 1983, "annotation": {"number": 64, "value": 0}, "group": "control_change"}, {"time": 1985, "annotation": {"number": 64, "value": 127}, "group": "control_change"}, {"time": 1995, "annotation": {"number": 64, "value": 38}, "group": "control_change"}, {"time": 1995, "annotation": {"number": 64, "value": 0}, "group": "control_change"}, {"time": 1998, "annotation": {"number": 64, "value": 74}, "group": "control_change"}, {"time": 1998, "annotation": {"number": 64, "value": 127}, "group": "control_change"}, {"time": 2003, "annotation": {"number": 64, "value": 74}, "group": "control_change"}, {"time": 2003, "annotation": {"number": 64, "value": 127}, "group": "control_change"}, {"time": 2004, "annotation": {"number": 64, "value": 0}, "group": "control_change"}, {"time": 2019, "annotation": {"number": 64, "value": 38}, "group": "control_change"}, {"time": 2019, "annotation": {"number": 64, "value": 0}, "group": "control_change"}, {"time": 2022, "annotation": {"number": 64, "value": 74}, "group": "control_change"}, {"time": 2022, "annotation": {"number": 64, "value": 127}, "group": "control_change"}, {"time": 2043, "annotation": {"number": 64, "value": 74}, "group": "control_change"}, {"time": 2043, "annotation": {"number": 64, "value": 0}, "group": "control_change"}, {"time": 2046, "annotation": {"number": 64, "value": 127}, "group": "control_change"}, {"time": 2055, "annotation": {"number": 64, "value": 74}, "group": "control_change"}, {"time": 2055, "annotation": {"number": 64, "value": 0}, "group": "control_change"}, {"time": 2067, "annotation": {"number": 64, "value": 38}, "group": "control_change"}, {"time": 2067, "annotation": {"number": 64, "value": 0}, "group": "control_change"}, {"time": 2070, "annotation": {"number": 64, "value": 38}, "group": "control_change"}, {"time": 2070, "annotation": {"number": 64, "value": 127}, "group": "control_change"}, {"time": 2072, "annotation": {"number": 64, "value": 74}, "group": "control_change"}, {"time": 2072, "annotation": {"number": 64, "value": 127}, "group": "control_change"}, {"time": 2076, "annotation": {"number": 64, "value": 38}, "group": "control_change"}, {"time": 2076, "annotation": {"number": 64, "value": 0}, "group": "control_change"}, {"time": 2091, "annotation": {"number": 64, "value": 38}, "group": "control_change"}, {"time": 2091, "annotation": {"number": 64, "value": 0}, "group": "control_change"}, {"time": 2092, "annotation": {"number": 64, "value": 38}, "group": "control_change"}, {"time": 2092, "annotation": {"number": 64, "value": 0}, "group": "control_change"}, {"time": 2094, "annotation": {"number": 64, "value": 127}, "group": "control_change"}, {"time": 2102, "annotation": {"number": 64, "value": 0}, "group": "control_change"}, {"time": 2115, "annotation": {"number": 64, "value": 38}, "group": "control_change"}, {"time": 2115, "annotation": {"number": 64, "value": 0}, "group": "control_change"}, {"time": 2118, "annotation": {"number": 64, "value": 74}, "group": "control_change"}, {"time": 2118, "annotation": {"number": 64, "value": 127}, "group": "control_change"}, {"time": 2126, "annotation": {"number": 64, "value": 38}, "group": "control_change"}, {"time": 2126, "annotation": {"number": 64, "value": 0}, "group": "control_change"}, {"time": 2139, "annotation": {"number": 64, "value": 0}, "group": "control_change"}, {"time": 2142, "annotation": {"number": 64, "value": 127}, "group": "control_change"}, {"time": 2163, "annotation": {"number": 64, "value": 0}, "group": "control_change"}, {"time": 2166, "annotation": {"number": 64, "value": 127}, "group": "control_change"}, {"time": 2187, "annotation": {"number": 64, "value": 38}, "group": "control_change"}, {"time": 2187, "annotation": {"number": 64, "value": 0}, "group": "control_change"}, {"time": 2190, "annotation": {"number": 64, "value": 127}, "group": "control_change"}, {"time": 2197, "annotation": {"number": 64, "value": 38}, "group": "control_change"}, {"time": 2197, "annotation": {"number": 64, "value": 0}, "group": "control_change"}, {"time": 2198, "annotation": {"number": 64, "value": 74}, "group": "control_change"}, {"time": 2198, "annotation": {"number": 64, "value": 0}, "group": "control_change"}, {"time": 2199, "annotation": {"number": 64, "value": 127}, "group": "control_change"}, {"time": 2207, "annotation": {"number": 64, "value": 0}, "group": "control_change"}, {"time": 2208, "annotation": {"number": 64, "value": 127}, "group": "control_change"}, {"time": 2212, "annotation": {"number": 64, "value": 0}, "group": "control_change"}, {"time": 2214, "annotation": {"number": 64, "value": 127}, "group": "control_change"}, {"time": 2224, "annotation": {"number": 64, "value": 38}, "group": "control_change"}, {"time": 2224, "annotation": {"number": 64, "value": 0}, "group": "control_change"}, {"time": 2226, "annotation": {"number": 64, "value": 127}, "group": "control_change"}, {"time": 2235, "annotation": {"number": 64, "value": 0}, "group": "control_change"}, {"time": 2238, "annotation": {"number": 64, "value": 127}, "group": "control_change"}, {"time": 2243, "annotation": {"number": 64, "value": 38}, "group": "control_change"}, {"time": 2244, "annotation": {"number": 64, "value": 0}, "group": "control_change"}, {"time": 2245, "annotation": {"number": 64, "value": 127}, "group": "control_change"}, {"time": 2254, "annotation": {"number": 64, "value": 0}, "group": "control_change"}, {"time": 2255, "annotation": {"number": 64, "value": 74}, "group": "control_change"}, {"time": 2255, "annotation": {"number": 64, "value": 127}, "group": "control_change"}, {"time": 2260, "annotation": {"number": 64, "value": 38}, "group": "control_change"}, {"time": 2260, "annotation": {"number": 64, "value": 0}, "group": "control_change"}, {"time": 2261, "annotation": {"number": 64, "value": 127}, "group": "control_change"}, {"time": 2272, "annotation": {"number": 64, "value": 0}, "group": "control_change"}, {"time": 2274, "annotation": {"number": 64, "value": 74}, "group": "control_change"}, {"time": 2274, "annotation": {"number": 64, "value": 127}, "group": "control_change"}, {"time": 2283, "annotation": {"number": 64, "value": 0}, "group": "control_change"}, {"time": 2286, "annotation": {"number": 64, "value": 127}, "group": "control_change"}, {"time": 2295, "annotation": {"number": 64, "value": 74}, "group": "control_change"}, {"time": 2295, "annotation": {"number": 64, "value": 0}, "group": "control_change"}, {"time": 2297, "annotation": {"number": 64, "value": 127}, "group": "control_change"}, {"time": 2307, "annotation": {"number": 64, "value": 0}, "group": "control_change"}, {"time": 2309, "annotation": {"number": 64, "value": 127}, "group": "control_change"}, {"time": 2317, "annotation": {"number": 64, "value": 0}, "group": "control_change"}, {"time": 2568, "annotation": {"number": 64, "value": 127}, "group": "control_change"}, {"time": 2579, "annotation": {"number": 64, "value": 38}, "group": "control_change"}, {"time": 2579, "annotation": {"number": 64, "value": 0}, "group": "control_change"}, {"time": 2580, "annotation": {"number": 64, "value": 127}, "group": "control_change"}, {"time": 2588, "annotation": {"number": 64, "value": 74}, "group": "control_change"}, {"time": 2588, "annotation": {"number": 64, "value": 0}, "group": "control_change"}, {"time": 2588, "annotation": {"number": 64, "value": 127}, "group": "control_change"}, {"time": 2589, "annotation": {"number": 64, "value": 0}, "group": "control_change"}, {"time": 2590, "annotation": {"number": 64, "value": 127}, "group": "control_change"}, {"time": 2602, "annotation": {"number": 64, "value": 74}, "group": "control_change"}, {"time": 2602, "annotation": {"number": 64, "value": 0}, "group": "control_change"}, {"time": 2605, "annotation": {"number": 64, "value": 127}, "group": "control_change"}, {"time": 2614, "annotation": {"number": 64, "value": 38}, "group": "control_change"}, {"time": 2614, "annotation": {"number": 64, "value": 0}, "group": "control_change"}, {"time": 2614, "annotation": {"number": 64, "value": 127}, "group": "control_change"}, {"time": 2624, "annotation": {"number": 64, "value": 38}, "group": "control_change"}, {"time": 2624, "annotation": {"number": 64, "value": 0}, "group": "control_change"}, {"time": 2625, "annotation": {"number": 64, "value": 38}, "group": "control_change"}, {"time": 2625, "annotation": {"number": 64, "value": 0}, "group": "control_change"}, {"time": 2625, "annotation": {"number": 64, "value": 127}, "group": "control_change"}, {"time": 2626, "annotation": {"number": 64, "value": 74}, "group": "control_change"}, {"time": 2627, "annotation": {"number": 64, "value": 0}, "group": "control_change"}, {"time": 2628, "annotation": {"number": 64, "value": 127}, "group": "control_change"}, {"time": 2644, "annotation": {"number": 64, "value": 74}, "group": "control_change"}, {"time": 2644, "annotation": {"number": 64, "value": 127}, "group": "control_change"}, {"time": 2651, "annotation": {"number": 64, "value": 0}, "group": "control_change"}, {"time": 2652, "annotation": {"number": 64, "value": 127}, "group": "control_change"}, {"time": 2662, "annotation": {"number": 64, "value": 38}, "group": "control_change"}, {"time": 2662, "annotation": {"number": 64, "value": 0}, "group": "control_change"}, {"time": 2663, "annotation": {"number": 64, "value": 127}, "group": "control_change"}, {"time": 2674, "annotation": {"number": 64, "value": 0}, "group": "control_change"}, {"time": 2676, "annotation": {"number": 64, "value": 74}, "group": "control_change"}, {"time": 2676, "annotation": {"number": 64, "value": 127}, "group": "control_change"}, {"time": 2698, "annotation": {"number": 64, "value": 38}, "group": "control_change"}, {"time": 2698, "annotation": {"number": 64, "value": 0}, "group": "control_change"}, {"time": 2700, "annotation": {"number": 64, "value": 127}, "group": "control_change"}, {"time": 2709, "annotation": {"number": 64, "value": 38}, "group": "control_change"}, {"time": 2709, "annotation": {"number": 64, "value": 0}, "group": "control_change"}, {"time": 2710, "annotation": {"number": 64, "value": 127}, "group": "control_change"}, {"time": 2722, "annotation": {"number": 64, "value": 38}, "group": "control_change"}, {"time": 2723, "annotation": {"number": 64, "value": 0}, "group": "control_change"}, {"time": 2725, "annotation": {"number": 64, "value": 127}, "group": "control_change"}, {"time": 2729, "annotation": {"number": 64, "value": 74}, "group": "control_change"}, {"time": 2730, "annotation": {"number": 64, "value": 127}, "group": "control_change"}, {"time": 2731, "annotation": {"number": 64, "value": 74}, "group": "control_change"}, {"time": 2732, "annotation": {"number": 64, "value": 0}, "group": "control_change"}, {"time": 2732, "annotation": {"number": 64, "value": 74}, "group": "control_change"}, {"time": 2733, "annotation": {"number": 64, "value": 127}, "group": "control_change"}, {"time": 2740, "annotation": {"number": 64, "value": 74}, "group": "control_change"}, {"time": 2740, "annotation": {"number": 64, "value": 0}, "group": "control_change"}, {"time": 2742, "annotation": {"number": 64, "value": 127}, "group": "control_change"}, {"time": 2744, "annotation": {"number": 64, "value": 38}, "group": "control_change"}, {"time": 2745, "annotation": {"number": 64, "value": 0}, "group": "control_change"}, {"time": 2745, "annotation": {"number": 64, "value": 38}, "group": "control_change"}, {"time": 2745, "annotation": {"number": 64, "value": 127}, "group": "control_change"}, {"time": 2746, "annotation": {"number": 64, "value": 38}, "group": "control_change"}, {"time": 2746, "annotation": {"number": 64, "value": 0}, "group": "control_change"}, {"time": 2748, "annotation": {"number": 64, "value": 38}, "group": "control_change"}, {"time": 2748, "annotation": {"number": 64, "value": 127}, "group": "control_change"}, {"time": 2770, "annotation": {"number": 64, "value": 0}, "group": "control_change"}, {"time": 2772, "annotation": {"number": 64, "value": 127}, "group": "control_change"}, {"time": 2779, "annotation": {"number": 64, "value": 0}, "group": "control_change"}, {"time": 2780, "annotation": {"number": 64, "value": 127}, "group": "control_change"}, {"time": 2788, "annotation": {"number": 64, "value": 74}, "group": "control_change"}, {"time": 2788, "annotation": {"number": 64, "value": 0}, "group": "control_change"}, {"time": 2789, "annotation": {"number": 64, "value": 127}, "group": "control_change"}, {"time": 2794, "annotation": {"number": 64, "value": 0}, "group": "control_change"}, {"time": 2796, "annotation": {"number": 64, "value": 127}, "group": "control_change"}, {"time": 2804, "annotation": {"number": 64, "value": 38}, "group": "control_change"}, {"time": 2804, "annotation": {"number": 64, "value": 0}, "group": "control_change"}, {"time": 2805, "annotation": {"number": 64, "value": 127}, "group": "control_change"}, {"time": 2806, "annotation": {"number": 64, "value": 74}, "group": "control_change"}, {"time": 2806, "annotation": {"number": 64, "value": 0}, "group": "control_change"}, {"time": 2807, "annotation": {"number": 64, "value": 127}, "group": "control_change"}, {"time": 2814, "annotation": {"number": 64, "value": 38}, "group": "control_change"}, {"time": 2814, "annotation": {"number": 64, "value": 0}, "group": "control_change"}, {"time": 2815, "annotation": {"number": 64, "value": 74}, "group": "control_change"}, {"time": 2815, "annotation": {"number": 64, "value": 38}, "group": "control_change"}, {"time": 2815, "annotation": {"number": 64, "value": 127}, "group": "control_change"}, {"time": 2817, "annotation": {"number": 64, "value": 38}, "group": "control_change"}, {"time": 2818, "annotation": {"number": 64, "value": 0}, "group": "control_change"}, {"time": 2820, "annotation": {"number": 64, "value": 127}, "group": "control_change"}, {"time": 2823, "annotation": {"number": 64, "value": 0}, "group": "control_change"}, {"time": 2824, "annotation": {"number": 64, "value": 38}, "group": "control_change"}, {"time": 2824, "annotation": {"number": 64, "value": 127}, "group": "control_change"}, {"time": 2827, "annotation": {"number": 64, "value": 74}, "group": "control_change"}, {"time": 2827, "annotation": {"number": 64, "value": 127}, "group": "control_change"}, {"time": 2828, "annotation": {"number": 64, "value": 0}, "group": "control_change"}, {"time": 2830, "annotation": {"number": 64, "value": 127}, "group": "control_change"}, {"time": 2841, "annotation": {"number": 64, "value": 38}, "group": "control_change"}, {"time": 2841, "annotation": {"number": 64, "value": 0}, "group": "control_change"}, {"time": 2842, "annotation": {"number": 64, "value": 127}, "group": "control_change"}, {"time": 2842, "annotation": {"number": 64, "value": 0}, "group": "control_change"}, {"time": 2844, "annotation": {"number": 64, "value": 38}, "group": "control_change"}, {"time": 2844, "annotation": {"number": 64, "value": 127}, "group": "control_change"}, {"time": 2852, "annotation": {"number": 64, "value": 38}, "group": "control_change"}, {"time": 2852, "annotation": {"number": 64, "value": 127}, "group": "control_change"}, {"time": 2853, "annotation": {"number": 64, "value": 38}, "group": "control_change"}, {"time": 2853, "annotation": {"number": 64, "value": 0}, "group": "control_change"}, {"time": 2855, "annotation": {"number": 64, "value": 127}, "group": "control_change"}, {"time": 2866, "annotation": {"number": 64, "value": 74}, "group": "control_change"}, {"time": 2866, "annotation": {"number": 64, "value": 0}, "group": "control_change"}, {"time": 2868, "annotation": {"number": 64, "value": 127}, "group": "control_change"}, {"time": 2870, "annotation": {"number": 64, "value": 0}, "group": "control_change"}, {"time": 2871, "annotation": {"number": 64, "value": 38}, "group": "control_change"}, {"time": 2871, "annotation": {"number": 64, "value": 74}, "group": "control_change"}, {"time": 2871, "annotation": {"number": 64, "value": 127}, "group": "control_change"}, {"time": 2890, "annotation": {"number": 64, "value": 38}, "group": "control_change"}, {"time": 2890, "annotation": {"number": 64, "value": 0}, "group": "control_change"}, {"time": 2892, "annotation": {"number": 64, "value": 127}, "group": "control_change"}, {"time": 2913, "annotation": {"number": 64, "value": 38}, "group": "control_change"}, {"time": 2914, "annotation": {"number": 64, "value": 0}, "group": "control_change"}, {"time": 2916, "annotation": {"number": 64, "value": 38}, "group": "control_change"}, {"time": 2916, "annotation": {"number": 64, "value": 127}, "group": "control_change"}, {"time": 2926, "annotation": {"number": 64, "value": 74}, "group": "control_change"}, {"time": 2926, "annotation": {"number": 64, "value": 0}, "group": "control_change"}, {"time": 2928, "annotation": {"number": 64, "value": 127}, "group": "control_change"}, {"time": 2937, "annotation": {"number": 64, "value": 38}, "group": "control_change"}, {"time": 2937, "annotation": {"number": 64, "value": 127}, "group": "control_change"}, {"time": 2938, "annotation": {"number": 64, "value": 0}, "group": "control_change"}, {"time": 2940, "annotation": {"number": 64, "value": 127}, "group": "control_change"}, {"time": 2960, "annotation": {"number": 64, "value": 0}, "group": "control_change"}, {"time": 2961, "annotation": {"number": 64, "value": 127}, "group": "control_change"}, {"time": 2966, "annotation": {"number": 64, "value": 0}, "group": "control_change"}, {"time": 2967, "annotation": {"number": 64, "value": 38}, "group": "control_change"}, {"time": 2967, "annotation": {"number": 64, "value": 127}, "group": "control_change"}, {"time": 2974, "annotation": {"number": 64, "value": 74}, "group": "control_change"}, {"time": 2974, "annotation": {"number": 64, "value": 0}, "group": "control_change"}, {"time": 2976, "annotation": {"number": 64, "value": 127}, "group": "control_change"}, {"time": 2985, "annotation": {"number": 64, "value": 38}, "group": "control_change"}, {"time": 2985, "annotation": {"number": 64, "value": 0}, "group": "control_change"}, {"time": 3000, "annotation": {"number": 64, "value": 127}, "group": "control_change"}, {"time": 3012, "annotation": {"number": 64, "value": 38}, "group": "control_change"}, {"time": 3012, "annotation": {"number": 64, "value": 0}, "group": "control_change"}, {"time": 3013, "annotation": {"number": 64, "value": 127}, "group": "control_change"}, {"time": 3021, "annotation": {"number": 64, "value": 74}, "group": "control_change"}, {"time": 3021, "annotation": {"number": 64, "value": 0}, "group": "control_change"}, {"time": 3021, "annotation": {"number": 64, "value": 127}, "group": "control_change"}, {"time": 3022, "annotation": {"number": 64, "value": 0}, "group": "control_change"}, {"time": 3023, "annotation": {"number": 64, "value": 127}, "group": "control_change"}, {"time": 3035, "annotation": {"number": 64, "value": 74}, "group": "control_change"}, {"time": 3035, "annotation": {"number": 64, "value": 0}, "group": "control_change"}, {"time": 3037, "annotation": {"number": 64, "value": 127}, "group": "control_change"}, {"time": 3047, "annotation": {"number": 64, "value": 38}, "group": "control_change"}, {"time": 3047, "annotation": {"number": 64, "value": 0}, "group": "control_change"}, {"time": 3047, "annotation": {"number": 64, "value": 127}, "group": "control_change"}, {"time": 3057, "annotation": {"number": 64, "value": 38}, "group": "control_change"}, {"time": 3057, "annotation": {"number": 64, "value": 0}, "group": "control_change"}, {"time": 3058, "annotation": {"number": 64, "value": 38}, "group": "control_change"}, {"time": 3058, "annotation": {"number": 64, "value": 0}, "group": "control_change"}, {"time": 3058, "annotation": {"number": 64, "value": 127}, "group": "control_change"}, {"time": 3059, "annotation": {"number": 64, "value": 74}, "group": "control_change"}, {"time": 3059, "annotation": {"number": 64, "value": 0}, "group": "control_change"}, {"time": 3061, "annotation": {"number": 64, "value": 127}, "group": "control_change"}, {"time": 3076, "annotation": {"number": 64, "value": 74}, "group": "control_change"}, {"time": 3076, "annotation": {"number": 64, "value": 127}, "group": "control_change"}, {"time": 3084, "annotation": {"number": 64, "value": 0}, "group": "control_change"}, {"time": 3085, "annotation": {"number": 64, "value": 127}, "group": "control_change"}, {"time": 3095, "annotation": {"number": 64, "value": 38}, "group": "control_change"}, {"time": 3095, "annotation": {"number": 64, "value": 0}, "group": "control_change"}, {"time": 3096, "annotation": {"number": 64, "value": 127}, "group": "control_change"}, {"time": 3107, "annotation": {"number": 64, "value": 0}, "group": "control_change"}, {"time": 3109, "annotation": {"number": 64, "value": 74}, "group": "control_change"}, {"time": 3109, "annotation": {"number": 64, "value": 127}, "group": "control_change"}, {"time": 3131, "annotation": {"number": 64, "value": 38}, "group": "control_change"}, {"time": 3131, "annotation": {"number": 64, "value": 0}, "group": "control_change"}, {"time": 3133, "annotation": {"number": 64, "value": 127}, "group": "control_change"}, {"time": 3142, "annotation": {"number": 64, "value": 38}, "group": "control_change"}, {"time": 3142, "annotation": {"number": 64, "value": 0}, "group": "control_change"}, {"time": 3142, "annotation": {"number": 64, "value": 127}, "group": "control_change"}, {"time": 3155, "annotation": {"number": 64, "value": 38}, "group": "control_change"}, {"time": 3155, "annotation": {"number": 64, "value": 0}, "group": "control_change"}, {"time": 3157, "annotation": {"number": 64, "value": 127}, "group": "control_change"}, {"time": 3162, "annotation": {"number": 64, "value": 74}, "group": "control_change"}, {"time": 3162, "annotation": {"number": 64, "value": 127}, "group": "control_change"}, {"time": 3164, "annotation": {"number": 64, "value": 74}, "group": "control_change"}, {"time": 3164, "annotation": {"number": 64, "value": 0}, "group": "control_change"}, {"time": 3165, "annotation": {"number": 64, "value": 74}, "group": "control_change"}, {"time": 3165, "annotation": {"number": 64, "value": 127}, "group": "control_change"}, {"time": 3173, "annotation": {"number": 64, "value": 74}, "group": "control_change"}, {"time": 3173, "annotation": {"number": 64, "value": 0}, "group": "control_change"}, {"time": 3174, "annotation": {"number": 64, "value": 127}, "group": "control_change"}, {"time": 3177, "annotation": {"number": 64, "value": 38}, "group": "control_change"}, {"time": 3177, "annotation": {"number": 64, "value": 0}, "group": "control_change"}, {"time": 3178, "annotation": {"number": 64, "value": 38}, "group": "control_change"}, {"time": 3178, "annotation": {"number": 64, "value": 0}, "group": "control_change"}, {"time": 3178, "annotation": {"number": 64, "value": 127}, "group": "control_change"}, {"time": 3179, "annotation": {"number": 64, "value": 38}, "group": "control_change"}, {"time": 3179, "annotation": {"number": 64, "value": 0}, "group": "control_change"}, {"time": 3181, "annotation": {"number": 64, "value": 38}, "group": "control_change"}, {"time": 3181, "annotation": {"number": 64, "value": 127}, "group": "control_change"}, {"time": 3203, "annotation": {"number": 64, "value": 0}, "group": "control_change"}, {"time": 3205, "annotation": {"number": 64, "value": 127}, "group": "control_change"}, {"time": 3212, "annotation": {"number": 64, "value": 0}, "group": "control_change"}, {"time": 3213, "annotation": {"number": 64, "value": 127}, "group": "control_change"}, {"time": 3221, "annotation": {"number": 64, "value": 74}, "group": "control_change"}, {"time": 3221, "annotation": {"number": 64, "value": 0}, "group": "control_change"}, {"time": 3222, "annotation": {"number": 64, "value": 127}, "group": "control_change"}, {"time": 3226, "annotation": {"number": 64, "value": 0}, "group": "control_change"}, {"time": 3228, "annotation": {"number": 64, "value": 127}, "group": "control_change"}, {"time": 3237, "annotation": {"number": 64, "value": 38}, "group": "control_change"}, {"time": 3237, "annotation": {"number": 64, "value": 0}, "group": "control_change"}, {"time": 3237, "annotation": {"number": 64, "value": 127}, "group": "control_change"}, {"time": 3238, "annotation": {"number": 64, "value": 74}, "group": "control_change"}, {"time": 3238, "annotation": {"number": 64, "value": 0}, "group": "control_change"}, {"time": 3240, "annotation": {"number": 64, "value": 127}, "group": "control_change"}, {"time": 3247, "annotation": {"number": 64, "value": 38}, "group": "control_change"}, {"time": 3247, "annotation": {"number": 64, "value": 0}, "group": "control_change"}, {"time": 3248, "annotation": {"number": 64, "value": 74}, "group": "control_change"}, {"time": 3248, "annotation": {"number": 64, "value": 38}, "group": "control_change"}, {"time": 3248, "annotation": {"number": 64, "value": 127}, "group": "control_change"}, {"time": 3250, "annotation": {"number": 64, "value": 38}, "group": "control_change"}, {"time": 3250, "annotation": {"number": 64, "value": 0}, "group": "control_change"}, {"time": 3252, "annotation": {"number": 64, "value": 127}, "group": "control_change"}, {"time": 3256, "annotation": {"number": 64, "value": 0}, "group": "control_change"}, {"time": 3256, "annotation": {"number": 64, "value": 38}, "group": "control_change"}, {"time": 3257, "annotation": {"number": 64, "value": 127}, "group": "control_change"}, {"time": 3260, "annotation": {"number": 64, "value": 74}, "group": "control_change"}, {"time": 3260, "annotation": {"number": 64, "value": 127}, "group": "control_change"}, {"time": 3261, "annotation": {"number": 64, "value": 0}, "group": "control_change"}, {"time": 3263, "annotation": {"number": 64, "value": 127}, "group": "control_change"}, {"time": 3274, "annotation": {"number": 64, "value": 38}, "group": "control_change"}, {"time": 3274, "annotation": {"number": 64, "value": 0}, "group": "control_change"}, {"time": 3274, "annotation": {"number": 64, "value": 127}, "group": "control_change"}, {"time": 3275, "annotation": {"number": 64, "value": 0}, "group": "control_change"}, {"time": 3277, "annotation": {"number": 64, "value": 38}, "group": "control_change"}, {"time": 3277, "annotation": {"number": 64, "value": 127}, "group": "control_change"}, {"time": 3285, "annotation": {"number": 64, "value": 38}, "group": "control_change"}, {"time": 3285, "annotation": {"number": 64, "value": 127}, "group": "control_change"}, {"time": 3286, "annotation": {"number": 64, "value": 38}, "group": "control_change"}, {"time": 3286, "annotation": {"number": 64, "value": 0}, "group": "control_change"}, {"time": 3288, "annotation": {"number": 64, "value": 127}, "group": "control_change"}, {"time": 3299, "annotation": {"number": 64, "value": 74}, "group": "control_change"}, {"time": 3299, "annotation": {"number": 64, "value": 0}, "group": "control_change"}, {"time": 3300, "annotation": {"number": 64, "value": 127}, "group": "control_change"}, {"time": 3303, "annotation": {"number": 64, "value": 0}, "group": "control_change"}, {"time": 3303, "annotation": {"number": 64, "value": 38}, "group": "control_change"}, {"time": 3304, "annotation": {"number": 64, "value": 74}, "group": "control_change"}, {"time": 3304, "annotation": {"number": 64, "value": 38}, "group": "control_change"}, {"time": 3304, "annotation": {"number": 64, "value": 127}, "group": "control_change"}, {"time": 3322, "annotation": {"number": 64, "value": 38}, "group": "control_change"}, {"time": 3323, "annotation": {"number": 64, "value": 0}, "group": "control_change"}, {"time": 3325, "annotation": {"number": 64, "value": 127}, "group": "control_change"}, {"time": 3346, "annotation": {"number": 64, "value": 38}, "group": "control_change"}, {"time": 3346, "annotation": {"number": 64, "value": 0}, "group": "control_change"}, {"time": 3349, "annotation": {"number": 64, "value": 38}, "group": "control_change"}, {"time": 3349, "annotation": {"number": 64, "value": 127}, "group": "control_change"}, {"time": 3359, "annotation": {"number": 64, "value": 74}, "group": "control_change"}, {"time": 3359, "annotation": {"number": 64, "value": 0}, "group": "control_change"}, {"time": 3360, "annotation": {"number": 64, "value": 127}, "group": "control_change"}, {"time": 3369, "annotation": {"number": 64, "value": 38}, "group": "control_change"}, {"time": 3370, "annotation": {"number": 64, "value": 127}, "group": "control_change"}, {"time": 3371, "annotation": {"number": 64, "value": 0}, "group": "control_change"}, {"time": 3372, "annotation": {"number": 64, "value": 127}, "group": "control_change"}, {"time": 3393, "annotation": {"number": 64, "value": 0}, "group": "control_change"}, {"time": 3394, "annotation": {"number": 64, "value": 127}, "group": "control_change"}, {"time": 3399, "annotation": {"number": 64, "value": 0}, "group": "control_change"}, {"time": 3400, "annotation": {"number": 64, "value": 38}, "group": "control_change"}, {"time": 3400, "annotation": {"number": 64, "value": 127}, "group": "control_change"}, {"time": 3407, "annotation": {"number": 64, "value": 74}, "group": "control_change"}, {"time": 3407, "annotation": {"number": 64, "value": 0}, "group": "control_change"}, {"time": 3408, "annotation": {"number": 64, "value": 127}, "group": "control_change"}, {"time": 3418, "annotation": {"number": 64, "value": 38}, "group": "control_change"}, {"time": 3418, "annotation": {"number": 64, "value": 0}, "group": "control_change"}, {"time": 3419, "annotation": {"number": 64, "value": 127}, "group": "control_change"}, {"time": 3440, "annotation": {"number": 64, "value": 74}, "group": "control_change"}, {"time": 3440, "annotation": {"number": 64, "value": 0}, "group": "control_change"}, {"time": 3442, "annotation": {"number": 64, "value": 38}, "group": "control_change"}, {"time": 3442, "annotation": {"number": 64, "value": 127}, "group": "control_change"}, {"time": 3443, "annotation": {"number": 64, "value": 127}, "group": "control_change"}, {"time": 3452, "annotation": {"number": 64, "value": 74}, "group": "control_change"}, {"time": 3452, "annotation": {"number": 64, "value": 0}, "group": "control_change"}, {"time": 3454, "annotation": {"number": 64, "value": 127}, "group": "control_change"}, {"time": 3457, "annotation": {"number": 64, "value": 0}, "group": "control_change"}, {"time": 3465, "annotation": {"number": 64, "value": 38}, "group": "control_change"}, {"time": 3465, "annotation": {"number": 64, "value": 0}, "group": "control_change"}, {"time": 3467, "annotation": {"number": 64, "value": 127}, "group": "control_change"}, {"time": 3488, "annotation": {"number": 64, "value": 38}, "group": "control_change"}, {"time": 3488, "annotation": {"number": 64, "value": 0}, "group": "control_change"}, {"time": 3491, "annotation": {"number": 64, "value": 127}, "group": "control_change"}, {"time": 3512, "annotation": {"number": 64, "value": 74}, "group": "control_change"}, {"time": 3512, "annotation": {"number": 64, "value": 127}, "group": "control_change"}, {"time": 3512, "annotation": {"number": 64, "value": 0}, "group": "control_change"}, {"time": 3515, "annotation": {"number": 64, "value": 38}, "group": "control_change"}, {"time": 3515, "annotation": {"number": 64, "value": 127}, "group": "control_change"}, {"time": 3555, "annotation": {"number": 64, "value": 74}, "group": "control_change"}, {"time": 3555, "annotation": {"number": 64, "value": 38}, "group": "control_change"}, {"time": 3555, "annotation": {"number": 64, "value": 0}, "group": "control_change"}]}]}