{"metadata": {"schema_version": "0.2", "title": "None", "source_filename": "283.mid", "source_format": "midi"}, "resolution": 12, "tempos": [{"time": 0, "qpm": 74.000074000074}], "time_signatures": [{"time": 0, "numerator": 4, "denominator": 4}], "tracks": [{"program": 4, "is_drum": false, "name": "MELODY", "notes": [{"time": 110, "pitch": 67, "duration": 7, "velocity": 116}, {"time": 116, "pitch": 66, "duration": 6, "velocity": 106}, {"time": 122, "pitch": 67, "duration": 6, "velocity": 100}, {"time": 128, "pitch": 64, "duration": 6, "velocity": 94}, {"time": 134, "pitch": 66, "duration": 9, "velocity": 103}, {"time": 140, "pitch": 64, "duration": 3, "velocity": 86}, {"time": 143, "pitch": 64, "duration": 9, "velocity": 90}, {"time": 152, "pitch": 62, "duration": 12, "velocity": 88}, {"time": 164, "pitch": 64, "duration": 42, "velocity": 96}, {"time": 206, "pitch": 64, "duration": 6, "velocity": 93}, {"time": 212, "pitch": 62, "duration": 6, "velocity": 91}, {"time": 218, "pitch": 64, "duration": 6, "velocity": 89}, {"time": 224, "pitch": 67, "duration": 7, "velocity": 89}, {"time": 230, "pitch": 66, "duration": 6, "velocity": 88}, {"time": 236, "pitch": 64, "duration": 3, "velocity": 89}, {"time": 239, "pitch": 64, "duration": 9, "velocity": 87}, {"time": 248, "pitch": 62, "duration": 12, "velocity": 87}, {"time": 260, "pitch": 59, "duration": 36, "velocity": 83}, {"time": 296, "pitch": 59, "duration": 6, "velocity": 107}, {"time": 302, "pitch": 60, "duration": 6, "velocity": 104}, {"time": 308, "pitch": 59, "duration": 4, "velocity": 90}, {"time": 311, "pitch": 60, "duration": 9, "velocity": 98}, {"time": 320, "pitch": 71, "duration": 6, "velocity": 110}, {"time": 326, "pitch": 69, "duration": 18, "velocity": 114}, {"time": 344, "pitch": 62, "duration": 6, "velocity": 107}, {"time": 350, "pitch": 69, "duration": 6, "velocity": 102}, {"time": 356, "pitch": 67, "duration": 3, "velocity": 93}, {"time": 359, "pitch": 69, "duration": 9, "velocity": 108}, {"time": 368, "pitch": 74, "duration": 6, "velocity": 114}, {"time": 374, "pitch": 71, "duration": 12, "velocity": 110}, {"time": 386, "pitch": 71, "duration": 6, "velocity": 113}, {"time": 392, "pitch": 67, "duration": 7, "velocity": 102}, {"time": 398, "pitch": 64, "duration": 12, "velocity": 98}, {"time": 410, "pitch": 64, "duration": 6, "velocity": 102}, {"time": 416, "pitch": 71, "duration": 6, "velocity": 108}, {"time": 422, "pitch": 69, "duration": 12, "velocity": 100}, {"time": 434, "pitch": 66, "duration": 12, "velocity": 113}, {"time": 446, "pitch": 64, "duration": 48, "velocity": 98}, {"time": 494, "pitch": 67, "duration": 7, "velocity": 116}, {"time": 500, "pitch": 66, "duration": 6, "velocity": 106}, {"time": 506, "pitch": 67, "duration": 6, "velocity": 100}, {"time": 512, "pitch": 64, "duration": 6, "velocity": 94}, {"time": 518, "pitch": 66, "duration": 9, "velocity": 103}, {"time": 524, "pitch": 64, "duration": 3, "velocity": 86}, {"time": 527, "pitch": 64, "duration": 9, "velocity": 90}, {"time": 536, "pitch": 62, "duration": 12, "velocity": 88}, {"time": 548, "pitch": 64, "duration": 42, "velocity": 96}, {"time": 590, "pitch": 64, "duration": 6, "velocity": 93}, {"time": 596, "pitch": 62, "duration": 6, "velocity": 91}, {"time": 602, "pitch": 64, "duration": 6, "velocity": 89}, {"time": 608, "pitch": 67, "duration": 7, "velocity": 89}, {"time": 614, "pitch": 66, "duration": 6, "velocity": 88}, {"time": 620, "pitch": 64, "duration": 3, "velocity": 89}, {"time": 623, "pitch": 64, "duration": 9, "velocity": 87}, {"time": 632, "pitch": 62, "duration": 12, "velocity": 87}, {"time": 644, "pitch": 59, "duration": 36, "velocity": 83}, {"time": 680, "pitch": 59, "duration": 6, "velocity": 107}, {"time": 686, "pitch": 60, "duration": 6, "velocity": 104}, {"time": 692, "pitch": 59, "duration": 4, "velocity": 90}, {"time": 695, "pitch": 60, "duration": 9, "velocity": 98}, {"time": 704, "pitch": 71, "duration": 6, "velocity": 110}, {"time": 710, "pitch": 69, "duration": 18, "velocity": 114}, {"time": 728, "pitch": 62, "duration": 6, "velocity": 107}, {"time": 734, "pitch": 69, "duration": 6, "velocity": 102}, {"time": 740, "pitch": 67, "duration": 3, "velocity": 93}, {"time": 743, "pitch": 69, "duration": 9, "velocity": 108}, {"time": 752, "pitch": 74, "duration": 6, "velocity": 114}, {"time": 758, "pitch": 71, "duration": 12, "velocity": 110}, {"time": 770, "pitch": 71, "duration": 6, "velocity": 113}, {"time": 776, "pitch": 67, "duration": 7, "velocity": 102}, {"time": 782, "pitch": 64, "duration": 12, "velocity": 98}, {"time": 794, "pitch": 64, "duration": 6, "velocity": 102}, {"time": 800, "pitch": 71, "duration": 6, "velocity": 108}, {"time": 806, "pitch": 69, "duration": 12, "velocity": 100}, {"time": 818, "pitch": 66, "duration": 12, "velocity": 113}, {"time": 830, "pitch": 64, "duration": 36, "velocity": 98}, {"time": 866, "pitch": 71, "duration": 6, "velocity": 91}, {"time": 872, "pitch": 74, "duration": 6, "velocity": 98}, {"time": 878, "pitch": 76, "duration": 6, "velocity": 93}, {"time": 884, "pitch": 74, "duration": 3, "velocity": 88}, {"time": 887, "pitch": 76, "duration": 6, "velocity": 87}, {"time": 893, "pitch": 71, "duration": 9, "velocity": 91}, {"time": 902, "pitch": 69, "duration": 24, "velocity": 88}, {"time": 926, "pitch": 74, "duration": 6, "velocity": 90}, {"time": 932, "pitch": 71, "duration": 5, "velocity": 89}, {"time": 935, "pitch": 74, "duration": 6, "velocity": 89}, {"time": 941, "pitch": 69, "duration": 9, "velocity": 87}, {"time": 950, "pitch": 67, "duration": 24, "velocity": 89}, {"time": 974, "pitch": 71, "duration": 6, "velocity": 104}, {"time": 980, "pitch": 69, "duration": 3, "velocity": 91}, {"time": 983, "pitch": 71, "duration": 9, "velocity": 88}, {"time": 992, "pitch": 64, "duration": 6, "velocity": 93}, {"time": 998, "pitch": 69, "duration": 6, "velocity": 104}, {"time": 1004, "pitch": 67, "duration": 4, "velocity": 88}, {"time": 1007, "pitch": 69, "duration": 9, "velocity": 88}, {"time": 1016, "pitch": 74, "duration": 12, "velocity": 98}, {"time": 1028, "pitch": 71, "duration": 30, "velocity": 96}, {"time": 1058, "pitch": 71, "duration": 6, "velocity": 91}, {"time": 1064, "pitch": 74, "duration": 6, "velocity": 98}, {"time": 1070, "pitch": 76, "duration": 6, "velocity": 93}, {"time": 1076, "pitch": 74, "duration": 3, "velocity": 88}, {"time": 1079, "pitch": 76, "duration": 6, "velocity": 87}, {"time": 1085, "pitch": 71, "duration": 9, "velocity": 91}, {"time": 1094, "pitch": 69, "duration": 24, "velocity": 88}, {"time": 1118, "pitch": 74, "duration": 6, "velocity": 90}, {"time": 1124, "pitch": 71, "duration": 5, "velocity": 89}, {"time": 1127, "pitch": 74, "duration": 6, "velocity": 89}, {"time": 1133, "pitch": 69, "duration": 9, "velocity": 87}, {"time": 1142, "pitch": 67, "duration": 12, "velocity": 89}, {"time": 1154, "pitch": 64, "duration": 6, "velocity": 102}, {"time": 1160, "pitch": 67, "duration": 6, "velocity": 102}, {"time": 1166, "pitch": 71, "duration": 6, "velocity": 116}, {"time": 1172, "pitch": 69, "duration": 3, "velocity": 100}, {"time": 1175, "pitch": 71, "duration": 9, "velocity": 110}, {"time": 1184, "pitch": 64, "duration": 6, "velocity": 104}, {"time": 1190, "pitch": 69, "duration": 6, "velocity": 113}, {"time": 1196, "pitch": 67, "duration": 3, "velocity": 88}, {"time": 1199, "pitch": 69, "duration": 9, "velocity": 93}, {"time": 1208, "pitch": 66, "duration": 12, "velocity": 100}, {"time": 1220, "pitch": 64, "duration": 19, "velocity": 94}, {"time": 1454, "pitch": 67, "duration": 7, "velocity": 116}, {"time": 1460, "pitch": 66, "duration": 6, "velocity": 106}, {"time": 1466, "pitch": 67, "duration": 6, "velocity": 100}, {"time": 1472, "pitch": 64, "duration": 6, "velocity": 94}, {"time": 1478, "pitch": 66, "duration": 9, "velocity": 103}, {"time": 1484, "pitch": 64, "duration": 3, "velocity": 86}, {"time": 1487, "pitch": 64, "duration": 9, "velocity": 90}, {"time": 1496, "pitch": 62, "duration": 12, "velocity": 88}, {"time": 1508, "pitch": 64, "duration": 42, "velocity": 96}, {"time": 1550, "pitch": 64, "duration": 6, "velocity": 93}, {"time": 1556, "pitch": 62, "duration": 6, "velocity": 91}, {"time": 1562, "pitch": 64, "duration": 6, "velocity": 89}, {"time": 1568, "pitch": 67, "duration": 7, "velocity": 89}, {"time": 1574, "pitch": 66, "duration": 6, "velocity": 88}, {"time": 1580, "pitch": 64, "duration": 3, "velocity": 89}, {"time": 1583, "pitch": 64, "duration": 9, "velocity": 87}, {"time": 1592, "pitch": 62, "duration": 12, "velocity": 87}, {"time": 1604, "pitch": 59, "duration": 36, "velocity": 83}, {"time": 1640, "pitch": 59, "duration": 6, "velocity": 107}, {"time": 1646, "pitch": 60, "duration": 6, "velocity": 104}, {"time": 1652, "pitch": 59, "duration": 4, "velocity": 90}, {"time": 1655, "pitch": 60, "duration": 9, "velocity": 98}, {"time": 1664, "pitch": 71, "duration": 6, "velocity": 110}, {"time": 1670, "pitch": 69, "duration": 18, "velocity": 114}, {"time": 1688, "pitch": 62, "duration": 6, "velocity": 107}, {"time": 1694, "pitch": 69, "duration": 6, "velocity": 102}, {"time": 1700, "pitch": 67, "duration": 3, "velocity": 93}, {"time": 1703, "pitch": 69, "duration": 9, "velocity": 108}, {"time": 1712, "pitch": 74, "duration": 6, "velocity": 114}, {"time": 1718, "pitch": 71, "duration": 12, "velocity": 110}, {"time": 1730, "pitch": 71, "duration": 6, "velocity": 113}, {"time": 1736, "pitch": 67, "duration": 7, "velocity": 102}, {"time": 1742, "pitch": 64, "duration": 12, "velocity": 98}, {"time": 1754, "pitch": 64, "duration": 6, "velocity": 102}, {"time": 1760, "pitch": 71, "duration": 6, "velocity": 108}, {"time": 1766, "pitch": 69, "duration": 12, "velocity": 100}, {"time": 1778, "pitch": 66, "duration": 12, "velocity": 113}, {"time": 1790, "pitch": 64, "duration": 36, "velocity": 98}, {"time": 1826, "pitch": 71, "duration": 6, "velocity": 91}, {"time": 1832, "pitch": 74, "duration": 6, "velocity": 98}, {"time": 1838, "pitch": 76, "duration": 6, "velocity": 93}, {"time": 1844, "pitch": 74, "duration": 3, "velocity": 88}, {"time": 1847, "pitch": 76, "duration": 6, "velocity": 87}, {"time": 1853, "pitch": 71, "duration": 9, "velocity": 91}, {"time": 1862, "pitch": 69, "duration": 24, "velocity": 88}, {"time": 1886, "pitch": 74, "duration": 6, "velocity": 90}, {"time": 1892, "pitch": 71, "duration": 5, "velocity": 89}, {"time": 1895, "pitch": 74, "duration": 6, "velocity": 89}, {"time": 1901, "pitch": 69, "duration": 9, "velocity": 87}, {"time": 1910, "pitch": 67, "duration": 24, "velocity": 89}, {"time": 1934, "pitch": 71, "duration": 6, "velocity": 104}, {"time": 1940, "pitch": 69, "duration": 3, "velocity": 91}, {"time": 1943, "pitch": 71, "duration": 9, "velocity": 88}, {"time": 1952, "pitch": 64, "duration": 6, "velocity": 93}, {"time": 1958, "pitch": 69, "duration": 6, "velocity": 104}, {"time": 1964, "pitch": 67, "duration": 4, "velocity": 88}, {"time": 1967, "pitch": 69, "duration": 9, "velocity": 88}, {"time": 1976, "pitch": 74, "duration": 12, "velocity": 98}, {"time": 1988, "pitch": 71, "duration": 30, "velocity": 96}, {"time": 2018, "pitch": 71, "duration": 6, "velocity": 91}, {"time": 2024, "pitch": 74, "duration": 6, "velocity": 98}, {"time": 2030, "pitch": 76, "duration": 6, "velocity": 93}, {"time": 2036, "pitch": 74, "duration": 3, "velocity": 88}, {"time": 2039, "pitch": 76, "duration": 6, "velocity": 87}, {"time": 2045, "pitch": 71, "duration": 9, "velocity": 91}, {"time": 2054, "pitch": 69, "duration": 24, "velocity": 88}, {"time": 2078, "pitch": 74, "duration": 6, "velocity": 90}, {"time": 2084, "pitch": 71, "duration": 5, "velocity": 89}, {"time": 2087, "pitch": 74, "duration": 6, "velocity": 89}, {"time": 2093, "pitch": 69, "duration": 9, "velocity": 87}, {"time": 2102, "pitch": 67, "duration": 12, "velocity": 89}, {"time": 2114, "pitch": 64, "duration": 6, "velocity": 102}, {"time": 2120, "pitch": 67, "duration": 6, "velocity": 102}, {"time": 2126, "pitch": 71, "duration": 6, "velocity": 116}, {"time": 2132, "pitch": 69, "duration": 3, "velocity": 100}, {"time": 2135, "pitch": 71, "duration": 9, "velocity": 110}, {"time": 2144, "pitch": 64, "duration": 6, "velocity": 104}, {"time": 2150, "pitch": 69, "duration": 6, "velocity": 113}, {"time": 2156, "pitch": 67, "duration": 3, "velocity": 88}, {"time": 2159, "pitch": 69, "duration": 9, "velocity": 93}, {"time": 2168, "pitch": 66, "duration": 12, "velocity": 100}, {"time": 2180, "pitch": 64, "duration": 23, "velocity": 94}, {"time": 2594, "pitch": 71, "duration": 6, "velocity": 91}, {"time": 2600, "pitch": 74, "duration": 6, "velocity": 98}, {"time": 2606, "pitch": 76, "duration": 6, "velocity": 93}, {"time": 2612, "pitch": 74, "duration": 3, "velocity": 88}, {"time": 2615, "pitch": 76, "duration": 6, "velocity": 87}, {"time": 2621, "pitch": 71, "duration": 9, "velocity": 91}, {"time": 2630, "pitch": 69, "duration": 24, "velocity": 88}, {"time": 2654, "pitch": 74, "duration": 6, "velocity": 90}, {"time": 2660, "pitch": 71, "duration": 5, "velocity": 89}, {"time": 2663, "pitch": 74, "duration": 6, "velocity": 89}, {"time": 2669, "pitch": 69, "duration": 9, "velocity": 87}, {"time": 2678, "pitch": 67, "duration": 24, "velocity": 89}, {"time": 2702, "pitch": 71, "duration": 6, "velocity": 104}, {"time": 2708, "pitch": 69, "duration": 3, "velocity": 91}, {"time": 2711, "pitch": 71, "duration": 9, "velocity": 88}, {"time": 2720, "pitch": 64, "duration": 6, "velocity": 93}, {"time": 2726, "pitch": 69, "duration": 6, "velocity": 104}, {"time": 2732, "pitch": 67, "duration": 4, "velocity": 88}, {"time": 2735, "pitch": 69, "duration": 9, "velocity": 88}, {"time": 2744, "pitch": 74, "duration": 12, "velocity": 98}, {"time": 2756, "pitch": 71, "duration": 30, "velocity": 96}, {"time": 2786, "pitch": 71, "duration": 6, "velocity": 91}, {"time": 2792, "pitch": 74, "duration": 6, "velocity": 98}, {"time": 2798, "pitch": 76, "duration": 6, "velocity": 93}, {"time": 2804, "pitch": 74, "duration": 3, "velocity": 88}, {"time": 2807, "pitch": 76, "duration": 6, "velocity": 87}, {"time": 2813, "pitch": 71, "duration": 9, "velocity": 91}, {"time": 2822, "pitch": 69, "duration": 24, "velocity": 88}, {"time": 2846, "pitch": 74, "duration": 6, "velocity": 90}, {"time": 2852, "pitch": 71, "duration": 5, "velocity": 89}, {"time": 2855, "pitch": 74, "duration": 6, "velocity": 89}, {"time": 2861, "pitch": 69, "duration": 9, "velocity": 87}, {"time": 2870, "pitch": 67, "duration": 12, "velocity": 89}, {"time": 2882, "pitch": 64, "duration": 6, "velocity": 102}, {"time": 2888, "pitch": 67, "duration": 6, "velocity": 102}, {"time": 2894, "pitch": 71, "duration": 6, "velocity": 116}, {"time": 2900, "pitch": 69, "duration": 3, "velocity": 100}, {"time": 2903, "pitch": 71, "duration": 9, "velocity": 110}, {"time": 2912, "pitch": 64, "duration": 6, "velocity": 104}, {"time": 2918, "pitch": 69, "duration": 6, "velocity": 113}, {"time": 2924, "pitch": 67, "duration": 3, "velocity": 88}, {"time": 2927, "pitch": 69, "duration": 9, "velocity": 93}, {"time": 2936, "pitch": 66, "duration": 12, "velocity": 100}, {"time": 2948, "pitch": 64, "duration": 30, "velocity": 94}, {"time": 2978, "pitch": 64, "duration": 6, "velocity": 113}, {"time": 2984, "pitch": 67, "duration": 6, "velocity": 108}, {"time": 2990, "pitch": 71, "duration": 7, "velocity": 108}, {"time": 2996, "pitch": 69, "duration": 3, "velocity": 100}, {"time": 2999, "pitch": 71, "duration": 9, "velocity": 96}, {"time": 3008, "pitch": 64, "duration": 6, "velocity": 104}, {"time": 3014, "pitch": 69, "duration": 6, "velocity": 113}, {"time": 3020, "pitch": 67, "duration": 3, "velocity": 94}, {"time": 3023, "pitch": 69, "duration": 63, "velocity": 94}, {"time": 3086, "pitch": 66, "duration": 12, "velocity": 109}, {"time": 3098, "pitch": 64, "duration": 18, "velocity": 96}]}, {"program": 0, "is_drum": false, "name": "PIANO", "notes": [{"time": 14, "pitch": 52, "duration": 44, "velocity": 80}, {"time": 14, "pitch": 64, "duration": 6, "velocity": 75}, {"time": 14, "pitch": 67, "duration": 6, "velocity": 76}, {"time": 14, "pitch": 71, "duration": 5, "velocity": 74}, {"time": 26, "pitch": 64, "duration": 8, "velocity": 71}, {"time": 26, "pitch": 67, "duration": 8, "velocity": 73}, {"time": 26, "pitch": 71, "duration": 7, "velocity": 71}, {"time": 38, "pitch": 64, "duration": 9, "velocity": 74}, {"time": 38, "pitch": 67, "duration": 9, "velocity": 74}, {"time": 38, "pitch": 71, "duration": 8, "velocity": 69}, {"time": 50, "pitch": 64, "duration": 8, "velocity": 72}, {"time": 50, "pitch": 67, "duration": 8, "velocity": 72}, {"time": 50, "pitch": 71, "duration": 8, "velocity": 68}, {"time": 62, "pitch": 52, "duration": 45, "velocity": 74}, {"time": 62, "pitch": 64, "duration": 7, "velocity": 65}, {"time": 62, "pitch": 67, "duration": 7, "velocity": 66}, {"time": 62, "pitch": 71, "duration": 7, "velocity": 65}, {"time": 74, "pitch": 64, "duration": 8, "velocity": 71}, {"time": 74, "pitch": 67, "duration": 8, "velocity": 74}, {"time": 74, "pitch": 71, "duration": 9, "velocity": 77}, {"time": 86, "pitch": 64, "duration": 9, "velocity": 69}, {"time": 86, "pitch": 67, "duration": 8, "velocity": 74}, {"time": 86, "pitch": 71, "duration": 8, "velocity": 72}, {"time": 98, "pitch": 64, "duration": 8, "velocity": 76}, {"time": 98, "pitch": 67, "duration": 8, "velocity": 79}, {"time": 98, "pitch": 71, "duration": 8, "velocity": 75}, {"time": 110, "pitch": 52, "duration": 23, "velocity": 77}, {"time": 110, "pitch": 64, "duration": 8, "velocity": 76}, {"time": 110, "pitch": 67, "duration": 7, "velocity": 77}, {"time": 110, "pitch": 71, "duration": 8, "velocity": 74}, {"time": 122, "pitch": 64, "duration": 4, "velocity": 76}, {"time": 122, "pitch": 67, "duration": 9, "velocity": 78}, {"time": 122, "pitch": 71, "duration": 7, "velocity": 74}, {"time": 134, "pitch": 50, "duration": 21, "velocity": 75}, {"time": 134, "pitch": 62, "duration": 9, "velocity": 76}, {"time": 134, "pitch": 66, "duration": 9, "velocity": 81}, {"time": 134, "pitch": 69, "duration": 8, "velocity": 79}, {"time": 146, "pitch": 62, "duration": 8, "velocity": 77}, {"time": 146, "pitch": 66, "duration": 10, "velocity": 83}, {"time": 146, "pitch": 69, "duration": 8, "velocity": 80}, {"time": 158, "pitch": 52, "duration": 45, "velocity": 68}, {"time": 158, "pitch": 64, "duration": 9, "velocity": 79}, {"time": 158, "pitch": 67, "duration": 8, "velocity": 78}, {"time": 158, "pitch": 71, "duration": 8, "velocity": 80}, {"time": 170, "pitch": 64, "duration": 9, "velocity": 71}, {"time": 170, "pitch": 67, "duration": 9, "velocity": 71}, {"time": 170, "pitch": 71, "duration": 9, "velocity": 71}, {"time": 182, "pitch": 64, "duration": 9, "velocity": 69}, {"time": 182, "pitch": 67, "duration": 9, "velocity": 70}, {"time": 182, "pitch": 71, "duration": 9, "velocity": 68}, {"time": 194, "pitch": 64, "duration": 8, "velocity": 71}, {"time": 194, "pitch": 67, "duration": 8, "velocity": 70}, {"time": 194, "pitch": 71, "duration": 8, "velocity": 69}, {"time": 206, "pitch": 48, "duration": 20, "velocity": 76}, {"time": 206, "pitch": 64, "duration": 8, "velocity": 76}, {"time": 206, "pitch": 67, "duration": 8, "velocity": 76}, {"time": 206, "pitch": 72, "duration": 8, "velocity": 77}, {"time": 218, "pitch": 64, "duration": 7, "velocity": 80}, {"time": 218, "pitch": 67, "duration": 10, "velocity": 81}, {"time": 218, "pitch": 72, "duration": 8, "velocity": 78}, {"time": 230, "pitch": 50, "duration": 18, "velocity": 81}, {"time": 230, "pitch": 62, "duration": 10, "velocity": 83}, {"time": 230, "pitch": 66, "duration": 10, "velocity": 82}, {"time": 230, "pitch": 69, "duration": 9, "velocity": 81}, {"time": 242, "pitch": 62, "duration": 7, "velocity": 77}, {"time": 242, "pitch": 66, "duration": 7, "velocity": 84}, {"time": 242, "pitch": 69, "duration": 6, "velocity": 80}, {"time": 254, "pitch": 43, "duration": 46, "velocity": 77}, {"time": 254, "pitch": 59, "duration": 10, "velocity": 78}, {"time": 254, "pitch": 62, "duration": 10, "velocity": 81}, {"time": 254, "pitch": 67, "duration": 9, "velocity": 74}, {"time": 266, "pitch": 59, "duration": 11, "velocity": 73}, {"time": 266, "pitch": 62, "duration": 11, "velocity": 78}, {"time": 266, "pitch": 67, "duration": 10, "velocity": 78}, {"time": 278, "pitch": 59, "duration": 10, "velocity": 77}, {"time": 278, "pitch": 62, "duration": 10, "velocity": 72}, {"time": 278, "pitch": 67, "duration": 8, "velocity": 74}, {"time": 290, "pitch": 59, "duration": 8, "velocity": 78}, {"time": 290, "pitch": 62, "duration": 8, "velocity": 81}, {"time": 290, "pitch": 67, "duration": 7, "velocity": 76}, {"time": 302, "pitch": 45, "duration": 21, "velocity": 84}, {"time": 302, "pitch": 60, "duration": 8, "velocity": 78}, {"time": 302, "pitch": 64, "duration": 8, "velocity": 83}, {"time": 302, "pitch": 69, "duration": 8, "velocity": 80}, {"time": 314, "pitch": 60, "duration": 8, "velocity": 81}, {"time": 314, "pitch": 64, "duration": 8, "velocity": 84}, {"time": 314, "pitch": 69, "duration": 8, "velocity": 81}, {"time": 326, "pitch": 50, "duration": 22, "velocity": 80}, {"time": 326, "pitch": 62, "duration": 9, "velocity": 82}, {"time": 326, "pitch": 66, "duration": 10, "velocity": 81}, {"time": 326, "pitch": 69, "duration": 9, "velocity": 81}, {"time": 338, "pitch": 62, "duration": 8, "velocity": 81}, {"time": 338, "pitch": 66, "duration": 6, "velocity": 83}, {"time": 338, "pitch": 69, "duration": 6, "velocity": 80}, {"time": 350, "pitch": 47, "duration": 22, "velocity": 79}, {"time": 350, "pitch": 62, "duration": 9, "velocity": 80}, {"time": 350, "pitch": 66, "duration": 10, "velocity": 79}, {"time": 350, "pitch": 69, "duration": 9, "velocity": 82}, {"time": 362, "pitch": 62, "duration": 10, "velocity": 81}, {"time": 362, "pitch": 66, "duration": 6, "velocity": 82}, {"time": 362, "pitch": 69, "duration": 6, "velocity": 82}, {"time": 374, "pitch": 52, "duration": 22, "velocity": 81}, {"time": 374, "pitch": 59, "duration": 10, "velocity": 81}, {"time": 374, "pitch": 64, "duration": 9, "velocity": 81}, {"time": 374, "pitch": 67, "duration": 9, "velocity": 78}, {"time": 386, "pitch": 59, "duration": 7, "velocity": 83}, {"time": 386, "pitch": 64, "duration": 8, "velocity": 84}, {"time": 386, "pitch": 67, "duration": 8, "velocity": 81}, {"time": 398, "pitch": 48, "duration": 21, "velocity": 82}, {"time": 398, "pitch": 60, "duration": 9, "velocity": 81}, {"time": 398, "pitch": 64, "duration": 9, "velocity": 84}, {"time": 398, "pitch": 67, "duration": 9, "velocity": 81}, {"time": 410, "pitch": 60, "duration": 6, "velocity": 77}, {"time": 410, "pitch": 64, "duration": 7, "velocity": 82}, {"time": 410, "pitch": 67, "duration": 7, "velocity": 81}, {"time": 422, "pitch": 50, "duration": 22, "velocity": 79}, {"time": 422, "pitch": 62, "duration": 9, "velocity": 78}, {"time": 422, "pitch": 66, "duration": 9, "velocity": 78}, {"time": 422, "pitch": 69, "duration": 9, "velocity": 78}, {"time": 434, "pitch": 62, "duration": 7, "velocity": 81}, {"time": 434, "pitch": 66, "duration": 5, "velocity": 81}, {"time": 434, "pitch": 69, "duration": 5, "velocity": 80}, {"time": 446, "pitch": 52, "duration": 44, "velocity": 75}, {"time": 446, "pitch": 59, "duration": 10, "velocity": 77}, {"time": 446, "pitch": 64, "duration": 9, "velocity": 77}, {"time": 446, "pitch": 67, "duration": 9, "velocity": 76}, {"time": 458, "pitch": 59, "duration": 8, "velocity": 71}, {"time": 458, "pitch": 64, "duration": 9, "velocity": 72}, {"time": 458, "pitch": 67, "duration": 9, "velocity": 69}, {"time": 470, "pitch": 59, "duration": 9, "velocity": 72}, {"time": 470, "pitch": 64, "duration": 9, "velocity": 76}, {"time": 470, "pitch": 67, "duration": 9, "velocity": 75}, {"time": 482, "pitch": 59, "duration": 7, "velocity": 72}, {"time": 482, "pitch": 64, "duration": 7, "velocity": 78}, {"time": 482, "pitch": 67, "duration": 7, "velocity": 78}, {"time": 494, "pitch": 52, "duration": 22, "velocity": 86}, {"time": 494, "pitch": 59, "duration": 8, "velocity": 77}, {"time": 494, "pitch": 64, "duration": 8, "velocity": 83}, {"time": 494, "pitch": 67, "duration": 8, "velocity": 78}, {"time": 506, "pitch": 59, "duration": 7, "velocity": 77}, {"time": 506, "pitch": 64, "duration": 8, "velocity": 80}, {"time": 506, "pitch": 67, "duration": 8, "velocity": 78}, {"time": 518, "pitch": 50, "duration": 22, "velocity": 79}, {"time": 518, "pitch": 57, "duration": 10, "velocity": 79}, {"time": 518, "pitch": 62, "duration": 9, "velocity": 86}, {"time": 518, "pitch": 66, "duration": 9, "velocity": 81}, {"time": 530, "pitch": 57, "duration": 7, "velocity": 75}, {"time": 530, "pitch": 62, "duration": 10, "velocity": 85}, {"time": 530, "pitch": 66, "duration": 8, "velocity": 75}, {"time": 542, "pitch": 48, "duration": 44, "velocity": 76}, {"time": 542, "pitch": 60, "duration": 9, "velocity": 76}, {"time": 542, "pitch": 64, "duration": 9, "velocity": 77}, {"time": 542, "pitch": 67, "duration": 8, "velocity": 76}, {"time": 554, "pitch": 60, "duration": 10, "velocity": 72}, {"time": 554, "pitch": 64, "duration": 10, "velocity": 76}, {"time": 554, "pitch": 67, "duration": 9, "velocity": 68}, {"time": 566, "pitch": 60, "duration": 10, "velocity": 73}, {"time": 566, "pitch": 64, "duration": 10, "velocity": 71}, {"time": 566, "pitch": 67, "duration": 9, "velocity": 74}, {"time": 578, "pitch": 60, "duration": 5, "velocity": 70}, {"time": 578, "pitch": 64, "duration": 6, "velocity": 66}, {"time": 578, "pitch": 67, "duration": 5, "velocity": 71}, {"time": 590, "pitch": 45, "duration": 21, "velocity": 77}, {"time": 590, "pitch": 60, "duration": 8, "velocity": 78}, {"time": 590, "pitch": 64, "duration": 8, "velocity": 81}, {"time": 590, "pitch": 69, "duration": 8, "velocity": 81}, {"time": 602, "pitch": 60, "duration": 7, "velocity": 79}, {"time": 602, "pitch": 64, "duration": 9, "velocity": 82}, {"time": 602, "pitch": 69, "duration": 8, "velocity": 79}, {"time": 614, "pitch": 50, "duration": 21, "velocity": 80}, {"time": 614, "pitch": 62, "duration": 9, "velocity": 82}, {"time": 614, "pitch": 66, "duration": 10, "velocity": 78}, {"time": 614, "pitch": 69, "duration": 9, "velocity": 79}, {"time": 626, "pitch": 62, "duration": 8, "velocity": 83}, {"time": 626, "pitch": 66, "duration": 6, "velocity": 80}, {"time": 626, "pitch": 69, "duration": 6, "velocity": 81}, {"time": 638, "pitch": 43, "duration": 45, "velocity": 67}, {"time": 638, "pitch": 59, "duration": 10, "velocity": 79}, {"time": 638, "pitch": 62, "duration": 10, "velocity": 79}, {"time": 638, "pitch": 67, "duration": 9, "velocity": 77}, {"time": 650, "pitch": 59, "duration": 10, "velocity": 75}, {"time": 650, "pitch": 62, "duration": 10, "velocity": 80}, {"time": 650, "pitch": 67, "duration": 10, "velocity": 75}, {"time": 662, "pitch": 59, "duration": 10, "velocity": 72}, {"time": 662, "pitch": 62, "duration": 10, "velocity": 76}, {"time": 662, "pitch": 67, "duration": 10, "velocity": 71}, {"time": 674, "pitch": 59, "duration": 6, "velocity": 78}, {"time": 674, "pitch": 62, "duration": 8, "velocity": 84}, {"time": 674, "pitch": 67, "duration": 7, "velocity": 78}, {"time": 686, "pitch": 48, "duration": 20, "velocity": 82}, {"time": 686, "pitch": 60, "duration": 9, "velocity": 80}, {"time": 686, "pitch": 64, "duration": 9, "velocity": 81}, {"time": 686, "pitch": 67, "duration": 9, "velocity": 81}, {"time": 698, "pitch": 60, "duration": 6, "velocity": 79}, {"time": 698, "pitch": 64, "duration": 7, "velocity": 83}, {"time": 698, "pitch": 67, "duration": 6, "velocity": 81}, {"time": 710, "pitch": 50, "duration": 21, "velocity": 90}, {"time": 710, "pitch": 62, "duration": 8, "velocity": 87}, {"time": 710, "pitch": 66, "duration": 9, "velocity": 84}, {"time": 710, "pitch": 69, "duration": 7, "velocity": 71}, {"time": 722, "pitch": 62, "duration": 8, "velocity": 84}, {"time": 722, "pitch": 66, "duration": 7, "velocity": 84}, {"time": 722, "pitch": 69, "duration": 6, "velocity": 81}, {"time": 734, "pitch": 47, "duration": 22, "velocity": 81}, {"time": 734, "pitch": 62, "duration": 9, "velocity": 83}, {"time": 734, "pitch": 66, "duration": 9, "velocity": 84}, {"time": 734, "pitch": 69, "duration": 8, "velocity": 81}, {"time": 746, "pitch": 62, "duration": 6, "velocity": 84}, {"time": 746, "pitch": 66, "duration": 6, "velocity": 85}, {"time": 746, "pitch": 69, "duration": 5, "velocity": 84}, {"time": 758, "pitch": 52, "duration": 21, "velocity": 82}, {"time": 758, "pitch": 59, "duration": 9, "velocity": 80}, {"time": 758, "pitch": 64, "duration": 8, "velocity": 81}, {"time": 758, "pitch": 67, "duration": 8, "velocity": 83}, {"time": 770, "pitch": 59, "duration": 7, "velocity": 85}, {"time": 770, "pitch": 64, "duration": 8, "velocity": 87}, {"time": 770, "pitch": 67, "duration": 7, "velocity": 83}, {"time": 782, "pitch": 48, "duration": 21, "velocity": 85}, {"time": 782, "pitch": 60, "duration": 8, "velocity": 81}, {"time": 782, "pitch": 64, "duration": 9, "velocity": 85}, {"time": 782, "pitch": 67, "duration": 8, "velocity": 81}, {"time": 794, "pitch": 60, "duration": 6, "velocity": 79}, {"time": 794, "pitch": 64, "duration": 7, "velocity": 83}, {"time": 794, "pitch": 67, "duration": 7, "velocity": 82}, {"time": 806, "pitch": 50, "duration": 20, "velocity": 86}, {"time": 806, "pitch": 57, "duration": 9, "velocity": 78}, {"time": 806, "pitch": 62, "duration": 9, "velocity": 83}, {"time": 806, "pitch": 66, "duration": 9, "velocity": 82}, {"time": 818, "pitch": 57, "duration": 6, "velocity": 83}, {"time": 818, "pitch": 62, "duration": 9, "velocity": 86}, {"time": 818, "pitch": 66, "duration": 9, "velocity": 80}, {"time": 830, "pitch": 52, "duration": 45, "velocity": 82}, {"time": 830, "pitch": 59, "duration": 10, "velocity": 81}, {"time": 830, "pitch": 64, "duration": 9, "velocity": 83}, {"time": 830, "pitch": 67, "duration": 9, "velocity": 85}, {"time": 842, "pitch": 59, "duration": 9, "velocity": 83}, {"time": 842, "pitch": 64, "duration": 9, "velocity": 86}, {"time": 842, "pitch": 67, "duration": 9, "velocity": 80}, {"time": 854, "pitch": 59, "duration": 8, "velocity": 81}, {"time": 854, "pitch": 64, "duration": 8, "velocity": 85}, {"time": 854, "pitch": 67, "duration": 8, "velocity": 81}, {"time": 866, "pitch": 59, "duration": 7, "velocity": 86}, {"time": 866, "pitch": 64, "duration": 7, "velocity": 88}, {"time": 866, "pitch": 67, "duration": 7, "velocity": 86}, {"time": 878, "pitch": 48, "duration": 21, "velocity": 89}, {"time": 878, "pitch": 60, "duration": 9, "velocity": 91}, {"time": 878, "pitch": 64, "duration": 9, "velocity": 102}, {"time": 878, "pitch": 67, "duration": 9, "velocity": 94}, {"time": 890, "pitch": 60, "duration": 7, "velocity": 89}, {"time": 890, "pitch": 64, "duration": 8, "velocity": 94}, {"time": 890, "pitch": 67, "duration": 8, "velocity": 91}, {"time": 902, "pitch": 50, "duration": 22, "velocity": 88}, {"time": 902, "pitch": 57, "duration": 9, "velocity": 87}, {"time": 902, "pitch": 62, "duration": 9, "velocity": 96}, {"time": 902, "pitch": 66, "duration": 9, "velocity": 85}, {"time": 914, "pitch": 57, "duration": 6, "velocity": 92}, {"time": 914, "pitch": 62, "duration": 8, "velocity": 107}, {"time": 914, "pitch": 66, "duration": 8, "velocity": 87}, {"time": 926, "pitch": 43, "duration": 10, "velocity": 84}, {"time": 926, "pitch": 59, "duration": 8, "velocity": 88}, {"time": 926, "pitch": 62, "duration": 10, "velocity": 93}, {"time": 926, "pitch": 67, "duration": 9, "velocity": 90}, {"time": 938, "pitch": 42, "duration": 11, "velocity": 80}, {"time": 938, "pitch": 57, "duration": 8, "velocity": 89}, {"time": 938, "pitch": 62, "duration": 11, "velocity": 93}, {"time": 938, "pitch": 66, "duration": 9, "velocity": 86}, {"time": 950, "pitch": 40, "duration": 21, "velocity": 81}, {"time": 950, "pitch": 52, "duration": 21, "velocity": 83}, {"time": 950, "pitch": 59, "duration": 10, "velocity": 86}, {"time": 950, "pitch": 64, "duration": 9, "velocity": 87}, {"time": 950, "pitch": 67, "duration": 9, "velocity": 87}, {"time": 962, "pitch": 59, "duration": 8, "velocity": 87}, {"time": 962, "pitch": 64, "duration": 8, "velocity": 88}, {"time": 962, "pitch": 67, "duration": 8, "velocity": 87}, {"time": 974, "pitch": 48, "duration": 21, "velocity": 88}, {"time": 974, "pitch": 60, "duration": 9, "velocity": 86}, {"time": 974, "pitch": 64, "duration": 9, "velocity": 92}, {"time": 974, "pitch": 67, "duration": 9, "velocity": 88}, {"time": 986, "pitch": 60, "duration": 7, "velocity": 87}, {"time": 986, "pitch": 64, "duration": 8, "velocity": 89}, {"time": 986, "pitch": 67, "duration": 8, "velocity": 87}, {"time": 998, "pitch": 50, "duration": 23, "velocity": 84}, {"time": 998, "pitch": 57, "duration": 9, "velocity": 83}, {"time": 998, "pitch": 62, "duration": 10, "velocity": 89}, {"time": 998, "pitch": 66, "duration": 9, "velocity": 83}, {"time": 1010, "pitch": 57, "duration": 6, "velocity": 79}, {"time": 1010, "pitch": 62, "duration": 9, "velocity": 87}, {"time": 1010, "pitch": 66, "duration": 10, "velocity": 83}, {"time": 1022, "pitch": 43, "duration": 15, "velocity": 74}, {"time": 1022, "pitch": 43, "duration": 15, "velocity": 84}, {"time": 1022, "pitch": 59, "duration": 10, "velocity": 88}, {"time": 1022, "pitch": 62, "duration": 10, "velocity": 91}, {"time": 1022, "pitch": 67, "duration": 8, "velocity": 88}, {"time": 1034, "pitch": 59, "duration": 7, "velocity": 89}, {"time": 1034, "pitch": 62, "duration": 8, "velocity": 98}, {"time": 1034, "pitch": 67, "duration": 6, "velocity": 89}, {"time": 1040, "pitch": 45, "duration": 6, "velocity": 88}, {"time": 1046, "pitch": 47, "duration": 15, "velocity": 87}, {"time": 1046, "pitch": 59, "duration": 10, "velocity": 88}, {"time": 1046, "pitch": 63, "duration": 11, "velocity": 89}, {"time": 1046, "pitch": 66, "duration": 9, "velocity": 87}, {"time": 1058, "pitch": 59, "duration": 8, "velocity": 91}, {"time": 1058, "pitch": 63, "duration": 6, "velocity": 89}, {"time": 1058, "pitch": 66, "duration": 9, "velocity": 87}, {"time": 1064, "pitch": 47, "duration": 6, "velocity": 86}, {"time": 1070, "pitch": 52, "duration": 22, "velocity": 89}, {"time": 1070, "pitch": 59, "duration": 9, "velocity": 90}, {"time": 1070, "pitch": 64, "duration": 9, "velocity": 93}, {"time": 1070, "pitch": 67, "duration": 9, "velocity": 91}, {"time": 1082, "pitch": 59, "duration": 8, "velocity": 91}, {"time": 1082, "pitch": 64, "duration": 8, "velocity": 96}, {"time": 1082, "pitch": 67, "duration": 9, "velocity": 91}, {"time": 1094, "pitch": 50, "duration": 16, "velocity": 88}, {"time": 1094, "pitch": 57, "duration": 10, "velocity": 89}, {"time": 1094, "pitch": 62, "duration": 9, "velocity": 94}, {"time": 1094, "pitch": 66, "duration": 9, "velocity": 86}, {"time": 1106, "pitch": 57, "duration": 7, "velocity": 89}, {"time": 1106, "pitch": 62, "duration": 8, "velocity": 104}, {"time": 1106, "pitch": 66, "duration": 8, "velocity": 87}, {"time": 1112, "pitch": 50, "duration": 5, "velocity": 82}, {"time": 1118, "pitch": 43, "duration": 10, "velocity": 88}, {"time": 1118, "pitch": 59, "duration": 9, "velocity": 92}, {"time": 1118, "pitch": 62, "duration": 9, "velocity": 102}, {"time": 1118, "pitch": 67, "duration": 9, "velocity": 91}, {"time": 1130, "pitch": 42, "duration": 12, "velocity": 85}, {"time": 1130, "pitch": 57, "duration": 8, "velocity": 91}, {"time": 1130, "pitch": 62, "duration": 11, "velocity": 96}, {"time": 1130, "pitch": 66, "duration": 10, "velocity": 90}, {"time": 1142, "pitch": 40, "duration": 20, "velocity": 84}, {"time": 1142, "pitch": 52, "duration": 21, "velocity": 83}, {"time": 1142, "pitch": 59, "duration": 10, "velocity": 88}, {"time": 1142, "pitch": 64, "duration": 9, "velocity": 96}, {"time": 1142, "pitch": 67, "duration": 9, "velocity": 90}, {"time": 1154, "pitch": 59, "duration": 7, "velocity": 91}, {"time": 1154, "pitch": 64, "duration": 8, "velocity": 93}, {"time": 1154, "pitch": 67, "duration": 7, "velocity": 88}, {"time": 1166, "pitch": 48, "duration": 21, "velocity": 87}, {"time": 1166, "pitch": 60, "duration": 9, "velocity": 88}, {"time": 1166, "pitch": 64, "duration": 9, "velocity": 94}, {"time": 1166, "pitch": 67, "duration": 9, "velocity": 90}, {"time": 1178, "pitch": 60, "duration": 7, "velocity": 88}, {"time": 1178, "pitch": 64, "duration": 8, "velocity": 94}, {"time": 1178, "pitch": 67, "duration": 8, "velocity": 88}, {"time": 1190, "pitch": 50, "duration": 22, "velocity": 86}, {"time": 1190, "pitch": 57, "duration": 9, "velocity": 88}, {"time": 1190, "pitch": 62, "duration": 9, "velocity": 90}, {"time": 1190, "pitch": 66, "duration": 9, "velocity": 84}, {"time": 1202, "pitch": 57, "duration": 6, "velocity": 87}, {"time": 1202, "pitch": 62, "duration": 9, "velocity": 93}, {"time": 1202, "pitch": 66, "duration": 8, "velocity": 85}, {"time": 1214, "pitch": 52, "duration": 42, "velocity": 82}, {"time": 1214, "pitch": 59, "duration": 10, "velocity": 82}, {"time": 1214, "pitch": 64, "duration": 10, "velocity": 88}, {"time": 1214, "pitch": 67, "duration": 10, "velocity": 87}, {"time": 1226, "pitch": 59, "duration": 9, "velocity": 76}, {"time": 1226, "pitch": 64, "duration": 9, "velocity": 78}, {"time": 1226, "pitch": 67, "duration": 10, "velocity": 77}, {"time": 1238, "pitch": 59, "duration": 8, "velocity": 77}, {"time": 1238, "pitch": 64, "duration": 8, "velocity": 78}, {"time": 1238, "pitch": 67, "duration": 9, "velocity": 74}, {"time": 1250, "pitch": 59, "duration": 5, "velocity": 83}, {"time": 1250, "pitch": 64, "duration": 5, "velocity": 85}, {"time": 1250, "pitch": 67, "duration": 5, "velocity": 81}, {"time": 1262, "pitch": 48, "duration": 19, "velocity": 88}, {"time": 1268, "pitch": 55, "duration": 18, "velocity": 78}, {"time": 1274, "pitch": 60, "duration": 12, "velocity": 71}, {"time": 1286, "pitch": 50, "duration": 18, "velocity": 83}, {"time": 1292, "pitch": 57, "duration": 12, "velocity": 73}, {"time": 1298, "pitch": 62, "duration": 7, "velocity": 71}, {"time": 1304, "pitch": 66, "duration": 23, "velocity": 82}, {"time": 1310, "pitch": 47, "duration": 17, "velocity": 86}, {"time": 1316, "pitch": 54, "duration": 12, "velocity": 72}, {"time": 1322, "pitch": 57, "duration": 13, "velocity": 75}, {"time": 1328, "pitch": 62, "duration": 8, "velocity": 82}, {"time": 1334, "pitch": 52, "duration": 18, "velocity": 86}, {"time": 1340, "pitch": 59, "duration": 12, "velocity": 77}, {"time": 1346, "pitch": 64, "duration": 11, "velocity": 86}, {"time": 1358, "pitch": 45, "duration": 20, "velocity": 85}, {"time": 1364, "pitch": 52, "duration": 18, "velocity": 69}, {"time": 1370, "pitch": 57, "duration": 11, "velocity": 77}, {"time": 1376, "pitch": 60, "duration": 8, "velocity": 85}, {"time": 1382, "pitch": 47, "duration": 19, "velocity": 84}, {"time": 1388, "pitch": 54, "duration": 15, "velocity": 76}, {"time": 1394, "pitch": 57, "duration": 11, "velocity": 79}, {"time": 1406, "pitch": 52, "duration": 31, "velocity": 80}, {"time": 1412, "pitch": 59, "duration": 24, "velocity": 58}, {"time": 1418, "pitch": 64, "duration": 7, "velocity": 87}, {"time": 1424, "pitch": 66, "duration": 7, "velocity": 84}, {"time": 1430, "pitch": 67, "duration": 12, "velocity": 78}, {"time": 1454, "pitch": 52, "duration": 22, "velocity": 86}, {"time": 1454, "pitch": 59, "duration": 8, "velocity": 77}, {"time": 1454, "pitch": 64, "duration": 8, "velocity": 83}, {"time": 1454, "pitch": 67, "duration": 8, "velocity": 78}, {"time": 1466, "pitch": 59, "duration": 7, "velocity": 77}, {"time": 1466, "pitch": 64, "duration": 8, "velocity": 80}, {"time": 1466, "pitch": 67, "duration": 8, "velocity": 78}, {"time": 1478, "pitch": 50, "duration": 22, "velocity": 79}, {"time": 1478, "pitch": 57, "duration": 10, "velocity": 79}, {"time": 1478, "pitch": 62, "duration": 9, "velocity": 86}, {"time": 1478, "pitch": 66, "duration": 9, "velocity": 81}, {"time": 1490, "pitch": 57, "duration": 7, "velocity": 75}, {"time": 1490, "pitch": 62, "duration": 10, "velocity": 85}, {"time": 1490, "pitch": 66, "duration": 8, "velocity": 75}, {"time": 1502, "pitch": 48, "duration": 44, "velocity": 76}, {"time": 1502, "pitch": 60, "duration": 9, "velocity": 76}, {"time": 1502, "pitch": 64, "duration": 9, "velocity": 77}, {"time": 1502, "pitch": 67, "duration": 8, "velocity": 76}, {"time": 1514, "pitch": 60, "duration": 10, "velocity": 72}, {"time": 1514, "pitch": 64, "duration": 10, "velocity": 76}, {"time": 1514, "pitch": 67, "duration": 9, "velocity": 68}, {"time": 1526, "pitch": 60, "duration": 10, "velocity": 73}, {"time": 1526, "pitch": 64, "duration": 10, "velocity": 71}, {"time": 1526, "pitch": 67, "duration": 9, "velocity": 74}, {"time": 1538, "pitch": 60, "duration": 5, "velocity": 70}, {"time": 1538, "pitch": 64, "duration": 6, "velocity": 66}, {"time": 1538, "pitch": 67, "duration": 5, "velocity": 71}, {"time": 1550, "pitch": 45, "duration": 21, "velocity": 77}, {"time": 1550, "pitch": 60, "duration": 8, "velocity": 78}, {"time": 1550, "pitch": 64, "duration": 8, "velocity": 81}, {"time": 1550, "pitch": 69, "duration": 8, "velocity": 81}, {"time": 1562, "pitch": 60, "duration": 7, "velocity": 79}, {"time": 1562, "pitch": 64, "duration": 9, "velocity": 82}, {"time": 1562, "pitch": 69, "duration": 8, "velocity": 79}, {"time": 1574, "pitch": 50, "duration": 21, "velocity": 80}, {"time": 1574, "pitch": 62, "duration": 9, "velocity": 82}, {"time": 1574, "pitch": 66, "duration": 10, "velocity": 78}, {"time": 1574, "pitch": 69, "duration": 9, "velocity": 79}, {"time": 1586, "pitch": 62, "duration": 8, "velocity": 83}, {"time": 1586, "pitch": 66, "duration": 6, "velocity": 80}, {"time": 1586, "pitch": 69, "duration": 6, "velocity": 81}, {"time": 1598, "pitch": 43, "duration": 45, "velocity": 67}, {"time": 1598, "pitch": 59, "duration": 10, "velocity": 79}, {"time": 1598, "pitch": 62, "duration": 10, "velocity": 79}, {"time": 1598, "pitch": 67, "duration": 9, "velocity": 77}, {"time": 1610, "pitch": 59, "duration": 10, "velocity": 75}, {"time": 1610, "pitch": 62, "duration": 10, "velocity": 80}, {"time": 1610, "pitch": 67, "duration": 10, "velocity": 75}, {"time": 1622, "pitch": 59, "duration": 10, "velocity": 72}, {"time": 1622, "pitch": 62, "duration": 10, "velocity": 76}, {"time": 1622, "pitch": 67, "duration": 10, "velocity": 71}, {"time": 1634, "pitch": 59, "duration": 6, "velocity": 78}, {"time": 1634, "pitch": 62, "duration": 8, "velocity": 84}, {"time": 1634, "pitch": 67, "duration": 7, "velocity": 78}, {"time": 1646, "pitch": 48, "duration": 20, "velocity": 82}, {"time": 1646, "pitch": 60, "duration": 9, "velocity": 80}, {"time": 1646, "pitch": 64, "duration": 9, "velocity": 81}, {"time": 1646, "pitch": 67, "duration": 9, "velocity": 81}, {"time": 1658, "pitch": 60, "duration": 6, "velocity": 79}, {"time": 1658, "pitch": 64, "duration": 7, "velocity": 83}, {"time": 1658, "pitch": 67, "duration": 6, "velocity": 81}, {"time": 1670, "pitch": 50, "duration": 21, "velocity": 90}, {"time": 1670, "pitch": 62, "duration": 8, "velocity": 87}, {"time": 1670, "pitch": 66, "duration": 9, "velocity": 84}, {"time": 1670, "pitch": 69, "duration": 7, "velocity": 71}, {"time": 1682, "pitch": 62, "duration": 8, "velocity": 84}, {"time": 1682, "pitch": 66, "duration": 7, "velocity": 84}, {"time": 1682, "pitch": 69, "duration": 6, "velocity": 81}, {"time": 1694, "pitch": 47, "duration": 22, "velocity": 81}, {"time": 1694, "pitch": 62, "duration": 9, "velocity": 83}, {"time": 1694, "pitch": 66, "duration": 9, "velocity": 84}, {"time": 1694, "pitch": 69, "duration": 8, "velocity": 81}, {"time": 1706, "pitch": 62, "duration": 6, "velocity": 84}, {"time": 1706, "pitch": 66, "duration": 6, "velocity": 85}, {"time": 1706, "pitch": 69, "duration": 5, "velocity": 84}, {"time": 1718, "pitch": 52, "duration": 21, "velocity": 82}, {"time": 1718, "pitch": 59, "duration": 9, "velocity": 80}, {"time": 1718, "pitch": 64, "duration": 8, "velocity": 81}, {"time": 1718, "pitch": 67, "duration": 8, "velocity": 83}, {"time": 1730, "pitch": 59, "duration": 7, "velocity": 85}, {"time": 1730, "pitch": 64, "duration": 8, "velocity": 87}, {"time": 1730, "pitch": 67, "duration": 7, "velocity": 83}, {"time": 1742, "pitch": 48, "duration": 21, "velocity": 85}, {"time": 1742, "pitch": 60, "duration": 8, "velocity": 81}, {"time": 1742, "pitch": 64, "duration": 9, "velocity": 85}, {"time": 1742, "pitch": 67, "duration": 8, "velocity": 81}, {"time": 1754, "pitch": 60, "duration": 6, "velocity": 79}, {"time": 1754, "pitch": 64, "duration": 7, "velocity": 83}, {"time": 1754, "pitch": 67, "duration": 7, "velocity": 82}, {"time": 1766, "pitch": 50, "duration": 20, "velocity": 86}, {"time": 1766, "pitch": 57, "duration": 9, "velocity": 78}, {"time": 1766, "pitch": 62, "duration": 9, "velocity": 83}, {"time": 1766, "pitch": 66, "duration": 9, "velocity": 82}, {"time": 1778, "pitch": 57, "duration": 6, "velocity": 83}, {"time": 1778, "pitch": 62, "duration": 9, "velocity": 86}, {"time": 1778, "pitch": 66, "duration": 9, "velocity": 80}, {"time": 1790, "pitch": 52, "duration": 45, "velocity": 82}, {"time": 1790, "pitch": 59, "duration": 10, "velocity": 81}, {"time": 1790, "pitch": 64, "duration": 9, "velocity": 83}, {"time": 1790, "pitch": 67, "duration": 9, "velocity": 85}, {"time": 1802, "pitch": 59, "duration": 9, "velocity": 83}, {"time": 1802, "pitch": 64, "duration": 9, "velocity": 86}, {"time": 1802, "pitch": 67, "duration": 9, "velocity": 80}, {"time": 1814, "pitch": 59, "duration": 8, "velocity": 81}, {"time": 1814, "pitch": 64, "duration": 8, "velocity": 85}, {"time": 1814, "pitch": 67, "duration": 8, "velocity": 81}, {"time": 1826, "pitch": 59, "duration": 7, "velocity": 86}, {"time": 1826, "pitch": 64, "duration": 7, "velocity": 88}, {"time": 1826, "pitch": 67, "duration": 7, "velocity": 86}, {"time": 1838, "pitch": 48, "duration": 21, "velocity": 89}, {"time": 1838, "pitch": 60, "duration": 9, "velocity": 91}, {"time": 1838, "pitch": 64, "duration": 9, "velocity": 102}, {"time": 1838, "pitch": 67, "duration": 9, "velocity": 94}, {"time": 1850, "pitch": 60, "duration": 7, "velocity": 89}, {"time": 1850, "pitch": 64, "duration": 8, "velocity": 94}, {"time": 1850, "pitch": 67, "duration": 8, "velocity": 91}, {"time": 1862, "pitch": 50, "duration": 22, "velocity": 88}, {"time": 1862, "pitch": 57, "duration": 9, "velocity": 87}, {"time": 1862, "pitch": 62, "duration": 9, "velocity": 96}, {"time": 1862, "pitch": 66, "duration": 9, "velocity": 85}, {"time": 1874, "pitch": 57, "duration": 6, "velocity": 92}, {"time": 1874, "pitch": 62, "duration": 8, "velocity": 107}, {"time": 1874, "pitch": 66, "duration": 8, "velocity": 87}, {"time": 1886, "pitch": 43, "duration": 10, "velocity": 84}, {"time": 1886, "pitch": 59, "duration": 8, "velocity": 88}, {"time": 1886, "pitch": 62, "duration": 10, "velocity": 93}, {"time": 1886, "pitch": 67, "duration": 9, "velocity": 90}, {"time": 1898, "pitch": 42, "duration": 11, "velocity": 80}, {"time": 1898, "pitch": 57, "duration": 8, "velocity": 89}, {"time": 1898, "pitch": 62, "duration": 11, "velocity": 93}, {"time": 1898, "pitch": 66, "duration": 9, "velocity": 86}, {"time": 1910, "pitch": 40, "duration": 21, "velocity": 81}, {"time": 1910, "pitch": 52, "duration": 21, "velocity": 83}, {"time": 1910, "pitch": 59, "duration": 10, "velocity": 86}, {"time": 1910, "pitch": 64, "duration": 9, "velocity": 87}, {"time": 1910, "pitch": 67, "duration": 9, "velocity": 87}, {"time": 1922, "pitch": 59, "duration": 8, "velocity": 87}, {"time": 1922, "pitch": 64, "duration": 8, "velocity": 88}, {"time": 1922, "pitch": 67, "duration": 8, "velocity": 87}, {"time": 1934, "pitch": 48, "duration": 21, "velocity": 88}, {"time": 1934, "pitch": 60, "duration": 9, "velocity": 86}, {"time": 1934, "pitch": 64, "duration": 9, "velocity": 92}, {"time": 1934, "pitch": 67, "duration": 9, "velocity": 88}, {"time": 1946, "pitch": 60, "duration": 7, "velocity": 87}, {"time": 1946, "pitch": 64, "duration": 8, "velocity": 89}, {"time": 1946, "pitch": 67, "duration": 8, "velocity": 87}, {"time": 1958, "pitch": 50, "duration": 23, "velocity": 84}, {"time": 1958, "pitch": 57, "duration": 9, "velocity": 83}, {"time": 1958, "pitch": 62, "duration": 10, "velocity": 89}, {"time": 1958, "pitch": 66, "duration": 9, "velocity": 83}, {"time": 1970, "pitch": 57, "duration": 6, "velocity": 79}, {"time": 1970, "pitch": 62, "duration": 9, "velocity": 87}, {"time": 1970, "pitch": 66, "duration": 10, "velocity": 83}, {"time": 1982, "pitch": 43, "duration": 15, "velocity": 74}, {"time": 1982, "pitch": 43, "duration": 15, "velocity": 84}, {"time": 1982, "pitch": 59, "duration": 10, "velocity": 88}, {"time": 1982, "pitch": 62, "duration": 10, "velocity": 91}, {"time": 1982, "pitch": 67, "duration": 8, "velocity": 88}, {"time": 1994, "pitch": 59, "duration": 7, "velocity": 89}, {"time": 1994, "pitch": 62, "duration": 8, "velocity": 98}, {"time": 1994, "pitch": 67, "duration": 6, "velocity": 89}, {"time": 2000, "pitch": 45, "duration": 6, "velocity": 88}, {"time": 2006, "pitch": 47, "duration": 15, "velocity": 87}, {"time": 2006, "pitch": 59, "duration": 10, "velocity": 88}, {"time": 2006, "pitch": 63, "duration": 11, "velocity": 89}, {"time": 2006, "pitch": 66, "duration": 9, "velocity": 87}, {"time": 2018, "pitch": 59, "duration": 8, "velocity": 91}, {"time": 2018, "pitch": 63, "duration": 6, "velocity": 89}, {"time": 2018, "pitch": 66, "duration": 9, "velocity": 87}, {"time": 2024, "pitch": 47, "duration": 6, "velocity": 86}, {"time": 2030, "pitch": 52, "duration": 22, "velocity": 89}, {"time": 2030, "pitch": 59, "duration": 9, "velocity": 90}, {"time": 2030, "pitch": 64, "duration": 9, "velocity": 93}, {"time": 2030, "pitch": 67, "duration": 9, "velocity": 91}, {"time": 2042, "pitch": 59, "duration": 8, "velocity": 91}, {"time": 2042, "pitch": 64, "duration": 8, "velocity": 96}, {"time": 2042, "pitch": 67, "duration": 9, "velocity": 91}, {"time": 2054, "pitch": 50, "duration": 16, "velocity": 88}, {"time": 2054, "pitch": 57, "duration": 10, "velocity": 89}, {"time": 2054, "pitch": 62, "duration": 9, "velocity": 94}, {"time": 2054, "pitch": 66, "duration": 9, "velocity": 86}, {"time": 2066, "pitch": 57, "duration": 7, "velocity": 89}, {"time": 2066, "pitch": 62, "duration": 8, "velocity": 104}, {"time": 2066, "pitch": 66, "duration": 8, "velocity": 87}, {"time": 2072, "pitch": 50, "duration": 5, "velocity": 82}, {"time": 2078, "pitch": 43, "duration": 10, "velocity": 88}, {"time": 2078, "pitch": 59, "duration": 9, "velocity": 92}, {"time": 2078, "pitch": 62, "duration": 9, "velocity": 102}, {"time": 2078, "pitch": 67, "duration": 9, "velocity": 91}, {"time": 2090, "pitch": 42, "duration": 12, "velocity": 85}, {"time": 2090, "pitch": 57, "duration": 8, "velocity": 91}, {"time": 2090, "pitch": 62, "duration": 11, "velocity": 96}, {"time": 2090, "pitch": 66, "duration": 10, "velocity": 90}, {"time": 2102, "pitch": 40, "duration": 20, "velocity": 84}, {"time": 2102, "pitch": 52, "duration": 21, "velocity": 83}, {"time": 2102, "pitch": 59, "duration": 10, "velocity": 88}, {"time": 2102, "pitch": 64, "duration": 9, "velocity": 96}, {"time": 2102, "pitch": 67, "duration": 9, "velocity": 90}, {"time": 2114, "pitch": 59, "duration": 7, "velocity": 91}, {"time": 2114, "pitch": 64, "duration": 8, "velocity": 93}, {"time": 2114, "pitch": 67, "duration": 7, "velocity": 88}, {"time": 2126, "pitch": 48, "duration": 21, "velocity": 87}, {"time": 2126, "pitch": 60, "duration": 9, "velocity": 88}, {"time": 2126, "pitch": 64, "duration": 9, "velocity": 94}, {"time": 2126, "pitch": 67, "duration": 9, "velocity": 90}, {"time": 2138, "pitch": 60, "duration": 7, "velocity": 88}, {"time": 2138, "pitch": 64, "duration": 8, "velocity": 94}, {"time": 2138, "pitch": 67, "duration": 8, "velocity": 88}, {"time": 2150, "pitch": 50, "duration": 22, "velocity": 86}, {"time": 2150, "pitch": 57, "duration": 9, "velocity": 88}, {"time": 2150, "pitch": 62, "duration": 9, "velocity": 90}, {"time": 2150, "pitch": 66, "duration": 9, "velocity": 84}, {"time": 2162, "pitch": 57, "duration": 6, "velocity": 87}, {"time": 2162, "pitch": 62, "duration": 9, "velocity": 93}, {"time": 2162, "pitch": 66, "duration": 8, "velocity": 85}, {"time": 2174, "pitch": 52, "duration": 42, "velocity": 82}, {"time": 2174, "pitch": 59, "duration": 10, "velocity": 82}, {"time": 2174, "pitch": 64, "duration": 10, "velocity": 88}, {"time": 2174, "pitch": 67, "duration": 10, "velocity": 87}, {"time": 2186, "pitch": 59, "duration": 9, "velocity": 76}, {"time": 2186, "pitch": 64, "duration": 9, "velocity": 78}, {"time": 2186, "pitch": 67, "duration": 10, "velocity": 77}, {"time": 2198, "pitch": 59, "duration": 8, "velocity": 77}, {"time": 2198, "pitch": 64, "duration": 8, "velocity": 78}, {"time": 2198, "pitch": 67, "duration": 9, "velocity": 74}, {"time": 2210, "pitch": 59, "duration": 5, "velocity": 83}, {"time": 2210, "pitch": 64, "duration": 5, "velocity": 85}, {"time": 2210, "pitch": 67, "duration": 5, "velocity": 81}, {"time": 2222, "pitch": 45, "duration": 30, "velocity": 93}, {"time": 2222, "pitch": 61, "duration": 8, "velocity": 95}, {"time": 2222, "pitch": 64, "duration": 8, "velocity": 104}, {"time": 2222, "pitch": 69, "duration": 7, "velocity": 102}, {"time": 2234, "pitch": 61, "duration": 7, "velocity": 90}, {"time": 2234, "pitch": 64, "duration": 7, "velocity": 98}, {"time": 2234, "pitch": 69, "duration": 7, "velocity": 92}, {"time": 2243, "pitch": 61, "duration": 2, "velocity": 86}, {"time": 2243, "pitch": 64, "duration": 2, "velocity": 88}, {"time": 2243, "pitch": 69, "duration": 2, "velocity": 91}, {"time": 2249, "pitch": 61, "duration": 6, "velocity": 82}, {"time": 2249, "pitch": 64, "duration": 6, "velocity": 88}, {"time": 2249, "pitch": 69, "duration": 6, "velocity": 87}, {"time": 2255, "pitch": 45, "duration": 13, "velocity": 38}, {"time": 2258, "pitch": 61, "duration": 7, "velocity": 89}, {"time": 2258, "pitch": 64, "duration": 8, "velocity": 102}, {"time": 2258, "pitch": 69, "duration": 8, "velocity": 100}, {"time": 2270, "pitch": 40, "duration": 42, "velocity": 88}, {"time": 2270, "pitch": 52, "duration": 16, "velocity": 89}, {"time": 2270, "pitch": 59, "duration": 10, "velocity": 100}, {"time": 2270, "pitch": 64, "duration": 10, "velocity": 107}, {"time": 2270, "pitch": 67, "duration": 9, "velocity": 98}, {"time": 2282, "pitch": 59, "duration": 8, "velocity": 91}, {"time": 2282, "pitch": 64, "duration": 8, "velocity": 91}, {"time": 2282, "pitch": 67, "duration": 8, "velocity": 91}, {"time": 2288, "pitch": 52, "duration": 11, "velocity": 71}, {"time": 2291, "pitch": 59, "duration": 2, "velocity": 87}, {"time": 2291, "pitch": 64, "duration": 2, "velocity": 88}, {"time": 2291, "pitch": 67, "duration": 2, "velocity": 85}, {"time": 2297, "pitch": 59, "duration": 7, "velocity": 86}, {"time": 2297, "pitch": 64, "duration": 7, "velocity": 89}, {"time": 2297, "pitch": 67, "duration": 7, "velocity": 86}, {"time": 2303, "pitch": 52, "duration": 5, "velocity": 89}, {"time": 2306, "pitch": 59, "duration": 8, "velocity": 102}, {"time": 2306, "pitch": 64, "duration": 9, "velocity": 110}, {"time": 2306, "pitch": 67, "duration": 8, "velocity": 94}, {"time": 2312, "pitch": 52, "duration": 5, "velocity": 85}, {"time": 2318, "pitch": 43, "duration": 26, "velocity": 96}, {"time": 2318, "pitch": 59, "duration": 10, "velocity": 107}, {"time": 2318, "pitch": 62, "duration": 10, "velocity": 114}, {"time": 2318, "pitch": 67, "duration": 9, "velocity": 100}, {"time": 2330, "pitch": 59, "duration": 7, "velocity": 96}, {"time": 2330, "pitch": 62, "duration": 7, "velocity": 102}, {"time": 2330, "pitch": 67, "duration": 7, "velocity": 91}, {"time": 2339, "pitch": 59, "duration": 12, "velocity": 88}, {"time": 2339, "pitch": 62, "duration": 12, "velocity": 93}, {"time": 2339, "pitch": 67, "duration": 12, "velocity": 89}, {"time": 2348, "pitch": 43, "duration": 9, "velocity": 83}, {"time": 2354, "pitch": 59, "duration": 7, "velocity": 92}, {"time": 2354, "pitch": 62, "duration": 8, "velocity": 100}, {"time": 2354, "pitch": 67, "duration": 10, "velocity": 89}, {"time": 2360, "pitch": 43, "duration": 2, "velocity": 86}, {"time": 2366, "pitch": 45, "duration": 6, "velocity": 86}, {"time": 2366, "pitch": 61, "duration": 6, "velocity": 95}, {"time": 2366, "pitch": 64, "duration": 7, "velocity": 104}, {"time": 2366, "pitch": 69, "duration": 6, "velocity": 100}, {"time": 2375, "pitch": 45, "duration": 6, "velocity": 88}, {"time": 2375, "pitch": 61, "duration": 6, "velocity": 91}, {"time": 2375, "pitch": 64, "duration": 7, "velocity": 102}, {"time": 2375, "pitch": 69, "duration": 6, "velocity": 102}, {"time": 2384, "pitch": 45, "duration": 25, "velocity": 91}, {"time": 2384, "pitch": 61, "duration": 24, "velocity": 97}, {"time": 2384, "pitch": 64, "duration": 24, "velocity": 108}, {"time": 2384, "pitch": 69, "duration": 25, "velocity": 114}, {"time": 2414, "pitch": 48, "duration": 46, "velocity": 81}, {"time": 2414, "pitch": 60, "duration": 11, "velocity": 87}, {"time": 2414, "pitch": 64, "duration": 11, "velocity": 89}, {"time": 2414, "pitch": 67, "duration": 10, "velocity": 87}, {"time": 2426, "pitch": 60, "duration": 10, "velocity": 86}, {"time": 2426, "pitch": 64, "duration": 10, "velocity": 87}, {"time": 2426, "pitch": 67, "duration": 10, "velocity": 86}, {"time": 2438, "pitch": 60, "duration": 10, "velocity": 78}, {"time": 2438, "pitch": 64, "duration": 11, "velocity": 83}, {"time": 2438, "pitch": 67, "duration": 10, "velocity": 78}, {"time": 2450, "pitch": 60, "duration": 7, "velocity": 86}, {"time": 2450, "pitch": 64, "duration": 9, "velocity": 87}, {"time": 2450, "pitch": 67, "duration": 8, "velocity": 85}, {"time": 2462, "pitch": 50, "duration": 41, "velocity": 79}, {"time": 2462, "pitch": 57, "duration": 11, "velocity": 80}, {"time": 2462, "pitch": 62, "duration": 11, "velocity": 86}, {"time": 2462, "pitch": 66, "duration": 11, "velocity": 83}, {"time": 2474, "pitch": 57, "duration": 11, "velocity": 80}, {"time": 2474, "pitch": 62, "duration": 11, "velocity": 87}, {"time": 2474, "pitch": 66, "duration": 11, "velocity": 79}, {"time": 2486, "pitch": 57, "duration": 10, "velocity": 81}, {"time": 2486, "pitch": 62, "duration": 10, "velocity": 87}, {"time": 2486, "pitch": 66, "duration": 11, "velocity": 74}, {"time": 2498, "pitch": 57, "duration": 4, "velocity": 80}, {"time": 2498, "pitch": 62, "duration": 6, "velocity": 87}, {"time": 2504, "pitch": 41, "duration": 47, "velocity": 88}, {"time": 2504, "pitch": 53, "duration": 47, "velocity": 88}, {"time": 2504, "pitch": 57, "duration": 47, "velocity": 91}, {"time": 2504, "pitch": 60, "duration": 47, "velocity": 98}, {"time": 2504, "pitch": 65, "duration": 46, "velocity": 94}, {"time": 2558, "pitch": 45, "duration": 26, "velocity": 86}, {"time": 2558, "pitch": 57, "duration": 25, "velocity": 91}, {"time": 2558, "pitch": 61, "duration": 26, "velocity": 103}, {"time": 2558, "pitch": 64, "duration": 26, "velocity": 100}, {"time": 2606, "pitch": 48, "duration": 21, "velocity": 89}, {"time": 2606, "pitch": 60, "duration": 9, "velocity": 91}, {"time": 2606, "pitch": 64, "duration": 9, "velocity": 102}, {"time": 2606, "pitch": 67, "duration": 9, "velocity": 94}, {"time": 2618, "pitch": 60, "duration": 7, "velocity": 89}, {"time": 2618, "pitch": 64, "duration": 8, "velocity": 94}, {"time": 2618, "pitch": 67, "duration": 8, "velocity": 91}, {"time": 2630, "pitch": 50, "duration": 22, "velocity": 88}, {"time": 2630, "pitch": 57, "duration": 9, "velocity": 87}, {"time": 2630, "pitch": 62, "duration": 9, "velocity": 96}, {"time": 2630, "pitch": 66, "duration": 9, "velocity": 85}, {"time": 2642, "pitch": 57, "duration": 6, "velocity": 92}, {"time": 2642, "pitch": 62, "duration": 8, "velocity": 107}, {"time": 2642, "pitch": 66, "duration": 8, "velocity": 87}, {"time": 2654, "pitch": 43, "duration": 10, "velocity": 84}, {"time": 2654, "pitch": 59, "duration": 8, "velocity": 88}, {"time": 2654, "pitch": 62, "duration": 10, "velocity": 93}, {"time": 2654, "pitch": 67, "duration": 9, "velocity": 90}, {"time": 2666, "pitch": 42, "duration": 11, "velocity": 80}, {"time": 2666, "pitch": 57, "duration": 8, "velocity": 89}, {"time": 2666, "pitch": 62, "duration": 11, "velocity": 93}, {"time": 2666, "pitch": 66, "duration": 9, "velocity": 86}, {"time": 2678, "pitch": 40, "duration": 21, "velocity": 81}, {"time": 2678, "pitch": 52, "duration": 21, "velocity": 83}, {"time": 2678, "pitch": 59, "duration": 10, "velocity": 86}, {"time": 2678, "pitch": 64, "duration": 9, "velocity": 87}, {"time": 2678, "pitch": 67, "duration": 9, "velocity": 87}, {"time": 2690, "pitch": 59, "duration": 8, "velocity": 87}, {"time": 2690, "pitch": 64, "duration": 8, "velocity": 88}, {"time": 2690, "pitch": 67, "duration": 8, "velocity": 87}, {"time": 2702, "pitch": 48, "duration": 21, "velocity": 88}, {"time": 2702, "pitch": 60, "duration": 9, "velocity": 86}, {"time": 2702, "pitch": 64, "duration": 9, "velocity": 92}, {"time": 2702, "pitch": 67, "duration": 9, "velocity": 88}, {"time": 2714, "pitch": 60, "duration": 7, "velocity": 87}, {"time": 2714, "pitch": 64, "duration": 8, "velocity": 89}, {"time": 2714, "pitch": 67, "duration": 8, "velocity": 87}, {"time": 2726, "pitch": 50, "duration": 23, "velocity": 84}, {"time": 2726, "pitch": 57, "duration": 9, "velocity": 83}, {"time": 2726, "pitch": 62, "duration": 10, "velocity": 89}, {"time": 2726, "pitch": 66, "duration": 9, "velocity": 83}, {"time": 2738, "pitch": 57, "duration": 6, "velocity": 79}, {"time": 2738, "pitch": 62, "duration": 9, "velocity": 87}, {"time": 2738, "pitch": 66, "duration": 10, "velocity": 83}, {"time": 2750, "pitch": 43, "duration": 15, "velocity": 74}, {"time": 2750, "pitch": 43, "duration": 15, "velocity": 84}, {"time": 2750, "pitch": 59, "duration": 10, "velocity": 88}, {"time": 2750, "pitch": 62, "duration": 10, "velocity": 91}, {"time": 2750, "pitch": 67, "duration": 8, "velocity": 88}, {"time": 2762, "pitch": 59, "duration": 7, "velocity": 89}, {"time": 2762, "pitch": 62, "duration": 8, "velocity": 98}, {"time": 2762, "pitch": 67, "duration": 6, "velocity": 89}, {"time": 2768, "pitch": 45, "duration": 6, "velocity": 88}, {"time": 2774, "pitch": 47, "duration": 15, "velocity": 87}, {"time": 2774, "pitch": 59, "duration": 10, "velocity": 88}, {"time": 2774, "pitch": 63, "duration": 11, "velocity": 89}, {"time": 2774, "pitch": 66, "duration": 9, "velocity": 87}, {"time": 2786, "pitch": 59, "duration": 8, "velocity": 91}, {"time": 2786, "pitch": 63, "duration": 6, "velocity": 89}, {"time": 2786, "pitch": 66, "duration": 9, "velocity": 87}, {"time": 2792, "pitch": 47, "duration": 6, "velocity": 86}, {"time": 2798, "pitch": 52, "duration": 22, "velocity": 89}, {"time": 2798, "pitch": 59, "duration": 9, "velocity": 90}, {"time": 2798, "pitch": 64, "duration": 9, "velocity": 93}, {"time": 2798, "pitch": 67, "duration": 9, "velocity": 91}, {"time": 2810, "pitch": 59, "duration": 8, "velocity": 91}, {"time": 2810, "pitch": 64, "duration": 8, "velocity": 96}, {"time": 2810, "pitch": 67, "duration": 9, "velocity": 91}, {"time": 2822, "pitch": 50, "duration": 16, "velocity": 88}, {"time": 2822, "pitch": 57, "duration": 10, "velocity": 89}, {"time": 2822, "pitch": 62, "duration": 9, "velocity": 94}, {"time": 2822, "pitch": 66, "duration": 9, "velocity": 86}, {"time": 2834, "pitch": 57, "duration": 7, "velocity": 89}, {"time": 2834, "pitch": 62, "duration": 8, "velocity": 104}, {"time": 2834, "pitch": 66, "duration": 8, "velocity": 87}, {"time": 2840, "pitch": 50, "duration": 5, "velocity": 82}, {"time": 2846, "pitch": 43, "duration": 10, "velocity": 88}, {"time": 2846, "pitch": 59, "duration": 9, "velocity": 92}, {"time": 2846, "pitch": 62, "duration": 9, "velocity": 102}, {"time": 2846, "pitch": 67, "duration": 9, "velocity": 91}, {"time": 2858, "pitch": 42, "duration": 12, "velocity": 85}, {"time": 2858, "pitch": 57, "duration": 8, "velocity": 91}, {"time": 2858, "pitch": 62, "duration": 11, "velocity": 96}, {"time": 2858, "pitch": 66, "duration": 10, "velocity": 90}, {"time": 2870, "pitch": 40, "duration": 20, "velocity": 84}, {"time": 2870, "pitch": 52, "duration": 21, "velocity": 83}, {"time": 2870, "pitch": 59, "duration": 10, "velocity": 88}, {"time": 2870, "pitch": 64, "duration": 9, "velocity": 96}, {"time": 2870, "pitch": 67, "duration": 9, "velocity": 90}, {"time": 2882, "pitch": 59, "duration": 7, "velocity": 91}, {"time": 2882, "pitch": 64, "duration": 8, "velocity": 93}, {"time": 2882, "pitch": 67, "duration": 7, "velocity": 88}, {"time": 2894, "pitch": 48, "duration": 21, "velocity": 87}, {"time": 2894, "pitch": 60, "duration": 9, "velocity": 88}, {"time": 2894, "pitch": 64, "duration": 9, "velocity": 94}, {"time": 2894, "pitch": 67, "duration": 9, "velocity": 90}, {"time": 2906, "pitch": 60, "duration": 7, "velocity": 88}, {"time": 2906, "pitch": 64, "duration": 8, "velocity": 94}, {"time": 2906, "pitch": 67, "duration": 8, "velocity": 88}, {"time": 2918, "pitch": 50, "duration": 22, "velocity": 86}, {"time": 2918, "pitch": 57, "duration": 9, "velocity": 88}, {"time": 2918, "pitch": 62, "duration": 9, "velocity": 90}, {"time": 2918, "pitch": 66, "duration": 9, "velocity": 84}, {"time": 2930, "pitch": 57, "duration": 6, "velocity": 87}, {"time": 2930, "pitch": 62, "duration": 9, "velocity": 93}, {"time": 2930, "pitch": 66, "duration": 8, "velocity": 85}, {"time": 2942, "pitch": 52, "duration": 42, "velocity": 82}, {"time": 2942, "pitch": 59, "duration": 10, "velocity": 82}, {"time": 2942, "pitch": 64, "duration": 10, "velocity": 88}, {"time": 2942, "pitch": 67, "duration": 10, "velocity": 87}, {"time": 2954, "pitch": 59, "duration": 9, "velocity": 76}, {"time": 2954, "pitch": 64, "duration": 9, "velocity": 78}, {"time": 2954, "pitch": 67, "duration": 10, "velocity": 77}, {"time": 2966, "pitch": 59, "duration": 8, "velocity": 77}, {"time": 2966, "pitch": 64, "duration": 8, "velocity": 78}, {"time": 2966, "pitch": 67, "duration": 9, "velocity": 74}, {"time": 2978, "pitch": 59, "duration": 5, "velocity": 83}, {"time": 2978, "pitch": 64, "duration": 5, "velocity": 85}, {"time": 2978, "pitch": 67, "duration": 5, "velocity": 81}, {"time": 2990, "pitch": 48, "duration": 19, "velocity": 89}, {"time": 2996, "pitch": 55, "duration": 18, "velocity": 66}, {"time": 3002, "pitch": 60, "duration": 10, "velocity": 77}, {"time": 3008, "pitch": 64, "duration": 9, "velocity": 79}, {"time": 3014, "pitch": 50, "duration": 65, "velocity": 86}, {"time": 3020, "pitch": 57, "duration": 59, "velocity": 77}, {"time": 3026, "pitch": 62, "duration": 51, "velocity": 77}, {"time": 3032, "pitch": 66, "duration": 46, "velocity": 77}, {"time": 3038, "pitch": 74, "duration": 39, "velocity": 81}, {"time": 3088, "pitch": 52, "duration": 84, "velocity": 91}, {"time": 3094, "pitch": 59, "duration": 77, "velocity": 75}, {"time": 3100, "pitch": 64, "duration": 70, "velocity": 83}, {"time": 3106, "pitch": 67, "duration": 5, "velocity": 78}, {"time": 3112, "pitch": 69, "duration": 2, "velocity": 83}, {"time": 3118, "pitch": 71, "duration": 5, "velocity": 80}, {"time": 3124, "pitch": 74, "duration": 4, "velocity": 72}, {"time": 3130, "pitch": 76, "duration": 2, "velocity": 79}, {"time": 3136, "pitch": 79, "duration": 7, "velocity": 75}, {"time": 3143, "pitch": 83, "duration": 10, "velocity": 77}, {"time": 3163, "pitch": 79, "duration": 6, "velocity": 74}, {"time": 3166, "pitch": 88, "duration": 4, "velocity": 79}]}]}