{"metadata": {"schema_version": "0.2", "title": "None", "source_filename": "284.mid", "source_format": "midi"}, "resolution": 12, "tempos": [{"time": 0, "qpm": 102.0000510000255}], "key_signatures": [{"time": 0, "root": 0, "mode": "major"}], "time_signatures": [{"time": 0, "numerator": 4, "denominator": 4}], "tracks": [{"program": 4, "is_drum": false, "name": "MELODY", "notes": [{"time": 722, "pitch": 69, "duration": 11, "velocity": 108}, {"time": 740, "pitch": 62, "duration": 4, "velocity": 98}, {"time": 746, "pitch": 65, "duration": 7, "velocity": 113}, {"time": 758, "pitch": 69, "duration": 8, "velocity": 102}, {"time": 770, "pitch": 65, "duration": 8, "velocity": 110}, {"time": 782, "pitch": 67, "duration": 5, "velocity": 110}, {"time": 788, "pitch": 65, "duration": 6, "velocity": 104}, {"time": 794, "pitch": 62, "duration": 8, "velocity": 107}, {"time": 818, "pitch": 62, "duration": 4, "velocity": 116}, {"time": 824, "pitch": 74, "duration": 3, "velocity": 92}, {"time": 830, "pitch": 74, "duration": 4, "velocity": 107}, {"time": 836, "pitch": 72, "duration": 7, "velocity": 108}, {"time": 842, "pitch": 67, "duration": 9, "velocity": 108}, {"time": 854, "pitch": 65, "duration": 5, "velocity": 113}, {"time": 860, "pitch": 67, "duration": 7, "velocity": 108}, {"time": 866, "pitch": 69, "duration": 9, "velocity": 104}, {"time": 914, "pitch": 69, "duration": 15, "velocity": 113}, {"time": 932, "pitch": 77, "duration": 5, "velocity": 113}, {"time": 938, "pitch": 74, "duration": 13, "velocity": 110}, {"time": 950, "pitch": 72, "duration": 11, "velocity": 108}, {"time": 962, "pitch": 74, "duration": 10, "velocity": 107}, {"time": 974, "pitch": 62, "duration": 4, "velocity": 113}, {"time": 980, "pitch": 69, "duration": 6, "velocity": 107}, {"time": 986, "pitch": 67, "duration": 7, "velocity": 100}, {"time": 1010, "pitch": 67, "duration": 6, "velocity": 113}, {"time": 1016, "pitch": 69, "duration": 6, "velocity": 102}, {"time": 1022, "pitch": 67, "duration": 7, "velocity": 91}, {"time": 1028, "pitch": 65, "duration": 6, "velocity": 100}, {"time": 1034, "pitch": 72, "duration": 11, "velocity": 102}, {"time": 1046, "pitch": 69, "duration": 6, "velocity": 107}, {"time": 1052, "pitch": 67, "duration": 8, "velocity": 96}, {"time": 1058, "pitch": 69, "duration": 9, "velocity": 110}, {"time": 1106, "pitch": 69, "duration": 11, "velocity": 108}, {"time": 1124, "pitch": 62, "duration": 4, "velocity": 98}, {"time": 1130, "pitch": 65, "duration": 7, "velocity": 113}, {"time": 1142, "pitch": 67, "duration": 7, "velocity": 98}, {"time": 1148, "pitch": 69, "duration": 5, "velocity": 104}, {"time": 1154, "pitch": 65, "duration": 8, "velocity": 110}, {"time": 1166, "pitch": 67, "duration": 5, "velocity": 110}, {"time": 1172, "pitch": 65, "duration": 6, "velocity": 104}, {"time": 1178, "pitch": 62, "duration": 8, "velocity": 107}, {"time": 1202, "pitch": 62, "duration": 4, "velocity": 116}, {"time": 1208, "pitch": 74, "duration": 3, "velocity": 92}, {"time": 1214, "pitch": 74, "duration": 4, "velocity": 107}, {"time": 1220, "pitch": 72, "duration": 7, "velocity": 108}, {"time": 1226, "pitch": 67, "duration": 9, "velocity": 108}, {"time": 1238, "pitch": 65, "duration": 5, "velocity": 113}, {"time": 1244, "pitch": 67, "duration": 7, "velocity": 108}, {"time": 1250, "pitch": 69, "duration": 9, "velocity": 104}, {"time": 1298, "pitch": 69, "duration": 15, "velocity": 113}, {"time": 1316, "pitch": 77, "duration": 5, "velocity": 113}, {"time": 1322, "pitch": 74, "duration": 13, "velocity": 110}, {"time": 1334, "pitch": 72, "duration": 11, "velocity": 108}, {"time": 1346, "pitch": 62, "duration": 10, "velocity": 107}, {"time": 1358, "pitch": 65, "duration": 4, "velocity": 113}, {"time": 1364, "pitch": 69, "duration": 6, "velocity": 107}, {"time": 1370, "pitch": 67, "duration": 7, "velocity": 100}, {"time": 1394, "pitch": 67, "duration": 6, "velocity": 113}, {"time": 1400, "pitch": 69, "duration": 6, "velocity": 102}, {"time": 1406, "pitch": 67, "duration": 7, "velocity": 91}, {"time": 1412, "pitch": 67, "duration": 1, "velocity": 100}, {"time": 1418, "pitch": 72, "duration": 11, "velocity": 102}, {"time": 1430, "pitch": 60, "duration": 4, "velocity": 104}, {"time": 1436, "pitch": 60, "duration": 7, "velocity": 102}, {"time": 1448, "pitch": 62, "duration": 7, "velocity": 110}, {"time": 1490, "pitch": 74, "duration": 16, "velocity": 117}, {"time": 1508, "pitch": 69, "duration": 4, "velocity": 114}, {"time": 1514, "pitch": 77, "duration": 11, "velocity": 116}, {"time": 1526, "pitch": 74, "duration": 11, "velocity": 116}, {"time": 1538, "pitch": 72, "duration": 11, "velocity": 113}, {"time": 1550, "pitch": 67, "duration": 6, "velocity": 113}, {"time": 1556, "pitch": 72, "duration": 6, "velocity": 113}, {"time": 1562, "pitch": 69, "duration": 6, "velocity": 110}, {"time": 1586, "pitch": 67, "duration": 6, "velocity": 114}, {"time": 1592, "pitch": 69, "duration": 6, "velocity": 107}, {"time": 1598, "pitch": 67, "duration": 7, "velocity": 96}, {"time": 1604, "pitch": 69, "duration": 6, "velocity": 98}, {"time": 1610, "pitch": 67, "duration": 7, "velocity": 107}, {"time": 1616, "pitch": 65, "duration": 4, "velocity": 107}, {"time": 1622, "pitch": 65, "duration": 6, "velocity": 107}, {"time": 1628, "pitch": 67, "duration": 7, "velocity": 104}, {"time": 1634, "pitch": 69, "duration": 7, "velocity": 104}, {"time": 1682, "pitch": 74, "duration": 13, "velocity": 108}, {"time": 1700, "pitch": 69, "duration": 6, "velocity": 114}, {"time": 1706, "pitch": 67, "duration": 7, "velocity": 114}, {"time": 1718, "pitch": 67, "duration": 7, "velocity": 114}, {"time": 1724, "pitch": 69, "duration": 5, "velocity": 107}, {"time": 1730, "pitch": 72, "duration": 11, "velocity": 110}, {"time": 1742, "pitch": 69, "duration": 5, "velocity": 108}, {"time": 1748, "pitch": 72, "duration": 6, "velocity": 113}, {"time": 1754, "pitch": 74, "duration": 6, "velocity": 108}, {"time": 1778, "pitch": 74, "duration": 4, "velocity": 108}, {"time": 1784, "pitch": 74, "duration": 3, "velocity": 100}, {"time": 1790, "pitch": 74, "duration": 4, "velocity": 100}, {"time": 1796, "pitch": 77, "duration": 7, "velocity": 108}, {"time": 1802, "pitch": 76, "duration": 7, "velocity": 116}, {"time": 1814, "pitch": 74, "duration": 6, "velocity": 110}, {"time": 1820, "pitch": 72, "duration": 4, "velocity": 104}, {"time": 1826, "pitch": 72, "duration": 10, "velocity": 107}, {"time": 1874, "pitch": 74, "duration": 16, "velocity": 117}, {"time": 1892, "pitch": 69, "duration": 4, "velocity": 114}, {"time": 1898, "pitch": 77, "duration": 11, "velocity": 116}, {"time": 1910, "pitch": 74, "duration": 11, "velocity": 116}, {"time": 1922, "pitch": 72, "duration": 11, "velocity": 113}, {"time": 1934, "pitch": 67, "duration": 6, "velocity": 113}, {"time": 1940, "pitch": 72, "duration": 6, "velocity": 113}, {"time": 1946, "pitch": 69, "duration": 6, "velocity": 110}, {"time": 1970, "pitch": 67, "duration": 6, "velocity": 114}, {"time": 1976, "pitch": 69, "duration": 6, "velocity": 107}, {"time": 1982, "pitch": 67, "duration": 7, "velocity": 96}, {"time": 1988, "pitch": 69, "duration": 6, "velocity": 98}, {"time": 1994, "pitch": 67, "duration": 7, "velocity": 107}, {"time": 2000, "pitch": 65, "duration": 4, "velocity": 107}, {"time": 2006, "pitch": 65, "duration": 6, "velocity": 107}, {"time": 2012, "pitch": 67, "duration": 7, "velocity": 104}, {"time": 2018, "pitch": 69, "duration": 7, "velocity": 104}, {"time": 2066, "pitch": 74, "duration": 13, "velocity": 108}, {"time": 2084, "pitch": 69, "duration": 6, "velocity": 114}, {"time": 2090, "pitch": 67, "duration": 7, "velocity": 114}, {"time": 2102, "pitch": 67, "duration": 7, "velocity": 114}, {"time": 2108, "pitch": 69, "duration": 5, "velocity": 107}, {"time": 2114, "pitch": 72, "duration": 11, "velocity": 110}, {"time": 2126, "pitch": 69, "duration": 5, "velocity": 108}, {"time": 2132, "pitch": 72, "duration": 6, "velocity": 113}, {"time": 2138, "pitch": 74, "duration": 6, "velocity": 108}, {"time": 2162, "pitch": 74, "duration": 4, "velocity": 108}, {"time": 2168, "pitch": 74, "duration": 3, "velocity": 100}, {"time": 2174, "pitch": 74, "duration": 4, "velocity": 100}, {"time": 2180, "pitch": 77, "duration": 7, "velocity": 108}, {"time": 2186, "pitch": 76, "duration": 7, "velocity": 116}, {"time": 2198, "pitch": 74, "duration": 6, "velocity": 110}, {"time": 2204, "pitch": 72, "duration": 4, "velocity": 104}, {"time": 2210, "pitch": 74, "duration": 10, "velocity": 107}, {"time": 2642, "pitch": 69, "duration": 11, "velocity": 108}, {"time": 2660, "pitch": 62, "duration": 4, "velocity": 98}, {"time": 2666, "pitch": 65, "duration": 7, "velocity": 113}, {"time": 2678, "pitch": 69, "duration": 7, "velocity": 102}, {"time": 2690, "pitch": 65, "duration": 8, "velocity": 110}, {"time": 2702, "pitch": 67, "duration": 5, "velocity": 110}, {"time": 2708, "pitch": 65, "duration": 6, "velocity": 104}, {"time": 2714, "pitch": 62, "duration": 8, "velocity": 107}, {"time": 2738, "pitch": 62, "duration": 4, "velocity": 116}, {"time": 2744, "pitch": 74, "duration": 3, "velocity": 92}, {"time": 2750, "pitch": 74, "duration": 4, "velocity": 107}, {"time": 2756, "pitch": 72, "duration": 6, "velocity": 108}, {"time": 2762, "pitch": 67, "duration": 9, "velocity": 108}, {"time": 2774, "pitch": 65, "duration": 5, "velocity": 113}, {"time": 2780, "pitch": 67, "duration": 7, "velocity": 108}, {"time": 2786, "pitch": 69, "duration": 9, "velocity": 104}, {"time": 2834, "pitch": 69, "duration": 15, "velocity": 113}, {"time": 2852, "pitch": 77, "duration": 5, "velocity": 113}, {"time": 2858, "pitch": 74, "duration": 13, "velocity": 110}, {"time": 2870, "pitch": 72, "duration": 11, "velocity": 108}, {"time": 2882, "pitch": 74, "duration": 10, "velocity": 107}, {"time": 2894, "pitch": 62, "duration": 4, "velocity": 113}, {"time": 2900, "pitch": 69, "duration": 6, "velocity": 107}, {"time": 2906, "pitch": 67, "duration": 7, "velocity": 100}, {"time": 2930, "pitch": 67, "duration": 6, "velocity": 113}, {"time": 2936, "pitch": 69, "duration": 6, "velocity": 102}, {"time": 2942, "pitch": 67, "duration": 7, "velocity": 91}, {"time": 2948, "pitch": 65, "duration": 6, "velocity": 100}, {"time": 2954, "pitch": 72, "duration": 11, "velocity": 102}, {"time": 2966, "pitch": 69, "duration": 6, "velocity": 107}, {"time": 2972, "pitch": 67, "duration": 8, "velocity": 96}, {"time": 2978, "pitch": 69, "duration": 8, "velocity": 110}, {"time": 3026, "pitch": 69, "duration": 11, "velocity": 108}, {"time": 3044, "pitch": 62, "duration": 4, "velocity": 98}, {"time": 3050, "pitch": 65, "duration": 7, "velocity": 113}, {"time": 3062, "pitch": 67, "duration": 7, "velocity": 98}, {"time": 3068, "pitch": 69, "duration": 5, "velocity": 104}, {"time": 3074, "pitch": 65, "duration": 8, "velocity": 110}, {"time": 3086, "pitch": 67, "duration": 5, "velocity": 110}, {"time": 3092, "pitch": 65, "duration": 6, "velocity": 104}, {"time": 3098, "pitch": 62, "duration": 8, "velocity": 107}, {"time": 3122, "pitch": 62, "duration": 4, "velocity": 116}, {"time": 3128, "pitch": 74, "duration": 3, "velocity": 92}, {"time": 3134, "pitch": 74, "duration": 4, "velocity": 107}, {"time": 3140, "pitch": 72, "duration": 6, "velocity": 108}, {"time": 3146, "pitch": 67, "duration": 9, "velocity": 108}, {"time": 3158, "pitch": 65, "duration": 5, "velocity": 113}, {"time": 3164, "pitch": 67, "duration": 7, "velocity": 108}, {"time": 3170, "pitch": 69, "duration": 9, "velocity": 104}, {"time": 3218, "pitch": 69, "duration": 15, "velocity": 113}, {"time": 3236, "pitch": 77, "duration": 5, "velocity": 113}, {"time": 3242, "pitch": 74, "duration": 13, "velocity": 110}, {"time": 3254, "pitch": 72, "duration": 11, "velocity": 108}, {"time": 3266, "pitch": 62, "duration": 10, "velocity": 107}, {"time": 3278, "pitch": 65, "duration": 4, "velocity": 113}, {"time": 3284, "pitch": 69, "duration": 6, "velocity": 107}, {"time": 3290, "pitch": 67, "duration": 7, "velocity": 100}, {"time": 3314, "pitch": 67, "duration": 6, "velocity": 113}, {"time": 3320, "pitch": 69, "duration": 6, "velocity": 102}, {"time": 3326, "pitch": 67, "duration": 7, "velocity": 91}, {"time": 3332, "pitch": 67, "duration": 1, "velocity": 100}, {"time": 3338, "pitch": 72, "duration": 11, "velocity": 102}, {"time": 3350, "pitch": 60, "duration": 4, "velocity": 104}, {"time": 3356, "pitch": 60, "duration": 7, "velocity": 102}, {"time": 3368, "pitch": 62, "duration": 7, "velocity": 110}, {"time": 3410, "pitch": 74, "duration": 16, "velocity": 117}, {"time": 3428, "pitch": 69, "duration": 4, "velocity": 114}, {"time": 3434, "pitch": 77, "duration": 11, "velocity": 116}, {"time": 3446, "pitch": 74, "duration": 11, "velocity": 116}, {"time": 3458, "pitch": 72, "duration": 10, "velocity": 113}, {"time": 3470, "pitch": 67, "duration": 6, "velocity": 113}, {"time": 3476, "pitch": 72, "duration": 6, "velocity": 113}, {"time": 3482, "pitch": 69, "duration": 6, "velocity": 110}, {"time": 3506, "pitch": 67, "duration": 6, "velocity": 114}, {"time": 3512, "pitch": 69, "duration": 6, "velocity": 107}, {"time": 3518, "pitch": 67, "duration": 7, "velocity": 96}, {"time": 3524, "pitch": 69, "duration": 6, "velocity": 98}, {"time": 3530, "pitch": 67, "duration": 7, "velocity": 107}, {"time": 3536, "pitch": 65, "duration": 4, "velocity": 107}, {"time": 3542, "pitch": 65, "duration": 6, "velocity": 107}, {"time": 3548, "pitch": 67, "duration": 7, "velocity": 104}, {"time": 3554, "pitch": 69, "duration": 7, "velocity": 104}, {"time": 3602, "pitch": 74, "duration": 13, "velocity": 108}, {"time": 3620, "pitch": 69, "duration": 6, "velocity": 114}, {"time": 3626, "pitch": 67, "duration": 7, "velocity": 114}, {"time": 3638, "pitch": 67, "duration": 7, "velocity": 114}, {"time": 3644, "pitch": 69, "duration": 5, "velocity": 107}, {"time": 3650, "pitch": 72, "duration": 11, "velocity": 110}, {"time": 3662, "pitch": 69, "duration": 5, "velocity": 108}, {"time": 3668, "pitch": 72, "duration": 6, "velocity": 113}, {"time": 3674, "pitch": 74, "duration": 6, "velocity": 108}, {"time": 3698, "pitch": 74, "duration": 4, "velocity": 108}, {"time": 3704, "pitch": 74, "duration": 3, "velocity": 100}, {"time": 3710, "pitch": 74, "duration": 4, "velocity": 100}, {"time": 3716, "pitch": 77, "duration": 7, "velocity": 108}, {"time": 3722, "pitch": 76, "duration": 6, "velocity": 116}, {"time": 3734, "pitch": 74, "duration": 6, "velocity": 110}, {"time": 3740, "pitch": 72, "duration": 4, "velocity": 104}, {"time": 3746, "pitch": 72, "duration": 10, "velocity": 107}, {"time": 3794, "pitch": 74, "duration": 16, "velocity": 117}, {"time": 3812, "pitch": 69, "duration": 4, "velocity": 114}, {"time": 3818, "pitch": 77, "duration": 11, "velocity": 116}, {"time": 3830, "pitch": 74, "duration": 11, "velocity": 116}, {"time": 3842, "pitch": 72, "duration": 10, "velocity": 113}, {"time": 3854, "pitch": 67, "duration": 6, "velocity": 113}, {"time": 3860, "pitch": 72, "duration": 6, "velocity": 113}, {"time": 3866, "pitch": 69, "duration": 6, "velocity": 110}, {"time": 3890, "pitch": 67, "duration": 6, "velocity": 114}, {"time": 3896, "pitch": 69, "duration": 6, "velocity": 107}, {"time": 3902, "pitch": 67, "duration": 7, "velocity": 96}, {"time": 3908, "pitch": 69, "duration": 6, "velocity": 98}, {"time": 3914, "pitch": 67, "duration": 7, "velocity": 107}, {"time": 3920, "pitch": 65, "duration": 4, "velocity": 107}, {"time": 3926, "pitch": 65, "duration": 6, "velocity": 107}, {"time": 3932, "pitch": 67, "duration": 7, "velocity": 104}, {"time": 3938, "pitch": 69, "duration": 7, "velocity": 104}, {"time": 3986, "pitch": 74, "duration": 13, "velocity": 108}, {"time": 4004, "pitch": 69, "duration": 6, "velocity": 114}, {"time": 4010, "pitch": 67, "duration": 7, "velocity": 114}, {"time": 4022, "pitch": 67, "duration": 7, "velocity": 114}, {"time": 4028, "pitch": 69, "duration": 5, "velocity": 107}, {"time": 4034, "pitch": 72, "duration": 11, "velocity": 110}, {"time": 4046, "pitch": 69, "duration": 5, "velocity": 108}, {"time": 4052, "pitch": 72, "duration": 6, "velocity": 113}, {"time": 4058, "pitch": 74, "duration": 6, "velocity": 108}, {"time": 4082, "pitch": 74, "duration": 4, "velocity": 108}, {"time": 4088, "pitch": 74, "duration": 3, "velocity": 100}, {"time": 4094, "pitch": 74, "duration": 4, "velocity": 100}, {"time": 4100, "pitch": 77, "duration": 7, "velocity": 108}, {"time": 4106, "pitch": 76, "duration": 6, "velocity": 116}, {"time": 4118, "pitch": 74, "duration": 6, "velocity": 110}, {"time": 4124, "pitch": 72, "duration": 4, "velocity": 104}, {"time": 4130, "pitch": 74, "duration": 10, "velocity": 107}, {"time": 4178, "pitch": 74, "duration": 16, "velocity": 117}, {"time": 4196, "pitch": 69, "duration": 4, "velocity": 114}, {"time": 4202, "pitch": 77, "duration": 11, "velocity": 116}, {"time": 4214, "pitch": 74, "duration": 11, "velocity": 116}, {"time": 4226, "pitch": 72, "duration": 10, "velocity": 113}, {"time": 4238, "pitch": 67, "duration": 6, "velocity": 113}, {"time": 4244, "pitch": 72, "duration": 6, "velocity": 113}, {"time": 4250, "pitch": 69, "duration": 6, "velocity": 110}, {"time": 4274, "pitch": 67, "duration": 6, "velocity": 114}, {"time": 4280, "pitch": 67, "duration": 6, "velocity": 107}, {"time": 4286, "pitch": 67, "duration": 7, "velocity": 96}, {"time": 4292, "pitch": 69, "duration": 6, "velocity": 98}, {"time": 4298, "pitch": 67, "duration": 7, "velocity": 107}, {"time": 4304, "pitch": 65, "duration": 4, "velocity": 107}, {"time": 4310, "pitch": 65, "duration": 6, "velocity": 107}, {"time": 4316, "pitch": 72, "duration": 12, "velocity": 104}, {"time": 4328, "pitch": 69, "duration": 7, "velocity": 104}, {"time": 4370, "pitch": 74, "duration": 13, "velocity": 108}, {"time": 4388, "pitch": 69, "duration": 6, "velocity": 114}, {"time": 4394, "pitch": 67, "duration": 7, "velocity": 114}, {"time": 4406, "pitch": 67, "duration": 7, "velocity": 114}, {"time": 4412, "pitch": 69, "duration": 5, "velocity": 107}, {"time": 4418, "pitch": 72, "duration": 11, "velocity": 110}, {"time": 4430, "pitch": 69, "duration": 5, "velocity": 108}, {"time": 4436, "pitch": 72, "duration": 6, "velocity": 113}, {"time": 4442, "pitch": 74, "duration": 6, "velocity": 108}, {"time": 4466, "pitch": 74, "duration": 4, "velocity": 108}, {"time": 4472, "pitch": 74, "duration": 3, "velocity": 100}, {"time": 4478, "pitch": 74, "duration": 4, "velocity": 100}, {"time": 4484, "pitch": 77, "duration": 7, "velocity": 108}, {"time": 4490, "pitch": 76, "duration": 6, "velocity": 116}, {"time": 4502, "pitch": 74, "duration": 6, "velocity": 110}, {"time": 4508, "pitch": 72, "duration": 4, "velocity": 104}, {"time": 4514, "pitch": 72, "duration": 10, "velocity": 107}, {"time": 4562, "pitch": 74, "duration": 16, "velocity": 117}, {"time": 4580, "pitch": 69, "duration": 4, "velocity": 114}, {"time": 4586, "pitch": 77, "duration": 11, "velocity": 116}, {"time": 4598, "pitch": 74, "duration": 11, "velocity": 116}, {"time": 4610, "pitch": 72, "duration": 10, "velocity": 113}, {"time": 4622, "pitch": 67, "duration": 6, "velocity": 113}, {"time": 4628, "pitch": 72, "duration": 6, "velocity": 113}, {"time": 4634, "pitch": 69, "duration": 6, "velocity": 110}, {"time": 4652, "pitch": 65, "duration": 6, "velocity": 114}, {"time": 4658, "pitch": 67, "duration": 6, "velocity": 107}, {"time": 4664, "pitch": 67, "duration": 1, "velocity": 96}, {"time": 4676, "pitch": 69, "duration": 6, "velocity": 97}, {"time": 4682, "pitch": 67, "duration": 7, "velocity": 107}, {"time": 4688, "pitch": 65, "duration": 12, "velocity": 107}, {"time": 4700, "pitch": 72, "duration": 7, "velocity": 104}, {"time": 4712, "pitch": 69, "duration": 7, "velocity": 104}, {"time": 4754, "pitch": 74, "duration": 13, "velocity": 108}, {"time": 4772, "pitch": 69, "duration": 6, "velocity": 114}, {"time": 4778, "pitch": 67, "duration": 7, "velocity": 114}, {"time": 4790, "pitch": 67, "duration": 7, "velocity": 114}, {"time": 4796, "pitch": 69, "duration": 5, "velocity": 107}, {"time": 4802, "pitch": 72, "duration": 11, "velocity": 110}, {"time": 4814, "pitch": 69, "duration": 5, "velocity": 108}, {"time": 4820, "pitch": 72, "duration": 6, "velocity": 113}, {"time": 4826, "pitch": 74, "duration": 6, "velocity": 108}, {"time": 4850, "pitch": 74, "duration": 4, "velocity": 108}, {"time": 4856, "pitch": 74, "duration": 3, "velocity": 100}, {"time": 4862, "pitch": 74, "duration": 4, "velocity": 100}, {"time": 4868, "pitch": 77, "duration": 7, "velocity": 108}, {"time": 4874, "pitch": 76, "duration": 6, "velocity": 116}, {"time": 4880, "pitch": 74, "duration": 12, "velocity": 110}, {"time": 4892, "pitch": 72, "duration": 4, "velocity": 104}, {"time": 4898, "pitch": 74, "duration": 10, "velocity": 107}, {"time": 4946, "pitch": 74, "duration": 4, "velocity": 108}, {"time": 4952, "pitch": 74, "duration": 3, "velocity": 100}, {"time": 4958, "pitch": 74, "duration": 4, "velocity": 100}, {"time": 4964, "pitch": 77, "duration": 7, "velocity": 108}, {"time": 4970, "pitch": 76, "duration": 7, "velocity": 116}, {"time": 4979, "pitch": 74, "duration": 9, "velocity": 110}, {"time": 4988, "pitch": 72, "duration": 51, "velocity": 104}, {"time": 5042, "pitch": 74, "duration": 75, "velocity": 114}]}, {"program": 0, "is_drum": false, "name": "PIANO", "notes": [{"time": 338, "pitch": 50, "duration": 14, "velocity": 96}, {"time": 338, "pitch": 62, "duration": 14, "velocity": 90}, {"time": 350, "pitch": 65, "duration": 19, "velocity": 98}, {"time": 350, "pitch": 69, "duration": 19, "velocity": 107}, {"time": 350, "pitch": 74, "duration": 18, "velocity": 100}, {"time": 356, "pitch": 57, "duration": 6, "velocity": 88}, {"time": 362, "pitch": 50, "duration": 14, "velocity": 94}, {"time": 362, "pitch": 62, "duration": 13, "velocity": 100}, {"time": 374, "pitch": 65, "duration": 15, "velocity": 96}, {"time": 374, "pitch": 69, "duration": 14, "velocity": 110}, {"time": 374, "pitch": 74, "duration": 14, "velocity": 96}, {"time": 380, "pitch": 57, "duration": 2, "velocity": 87}, {"time": 386, "pitch": 41, "duration": 13, "velocity": 96}, {"time": 386, "pitch": 53, "duration": 12, "velocity": 90}, {"time": 398, "pitch": 65, "duration": 13, "velocity": 96}, {"time": 398, "pitch": 69, "duration": 13, "velocity": 107}, {"time": 398, "pitch": 72, "duration": 13, "velocity": 91}, {"time": 404, "pitch": 48, "duration": 3, "velocity": 96}, {"time": 410, "pitch": 41, "duration": 13, "velocity": 104}, {"time": 410, "pitch": 53, "duration": 13, "velocity": 89}, {"time": 422, "pitch": 65, "duration": 11, "velocity": 93}, {"time": 422, "pitch": 69, "duration": 13, "velocity": 107}, {"time": 422, "pitch": 72, "duration": 12, "velocity": 92}, {"time": 428, "pitch": 48, "duration": 6, "velocity": 88}, {"time": 434, "pitch": 43, "duration": 13, "velocity": 90}, {"time": 434, "pitch": 55, "duration": 13, "velocity": 102}, {"time": 446, "pitch": 62, "duration": 14, "velocity": 98}, {"time": 446, "pitch": 67, "duration": 14, "velocity": 107}, {"time": 446, "pitch": 70, "duration": 14, "velocity": 89}, {"time": 452, "pitch": 50, "duration": 2, "velocity": 87}, {"time": 458, "pitch": 36, "duration": 14, "velocity": 104}, {"time": 458, "pitch": 48, "duration": 14, "velocity": 93}, {"time": 470, "pitch": 64, "duration": 9, "velocity": 104}, {"time": 470, "pitch": 67, "duration": 11, "velocity": 110}, {"time": 470, "pitch": 72, "duration": 10, "velocity": 91}, {"time": 476, "pitch": 36, "duration": 6, "velocity": 110}, {"time": 482, "pitch": 41, "duration": 12, "velocity": 102}, {"time": 482, "pitch": 53, "duration": 12, "velocity": 93}, {"time": 494, "pitch": 60, "duration": 20, "velocity": 91}, {"time": 494, "pitch": 65, "duration": 20, "velocity": 104}, {"time": 494, "pitch": 69, "duration": 20, "velocity": 96}, {"time": 500, "pitch": 48, "duration": 5, "velocity": 89}, {"time": 512, "pitch": 41, "duration": 8, "velocity": 104}, {"time": 512, "pitch": 53, "duration": 8, "velocity": 91}, {"time": 518, "pitch": 60, "duration": 11, "velocity": 100}, {"time": 518, "pitch": 65, "duration": 11, "velocity": 104}, {"time": 518, "pitch": 69, "duration": 11, "velocity": 100}, {"time": 524, "pitch": 48, "duration": 3, "velocity": 92}, {"time": 530, "pitch": 50, "duration": 13, "velocity": 91}, {"time": 530, "pitch": 62, "duration": 13, "velocity": 96}, {"time": 542, "pitch": 65, "duration": 12, "velocity": 88}, {"time": 542, "pitch": 69, "duration": 12, "velocity": 92}, {"time": 542, "pitch": 74, "duration": 12, "velocity": 88}, {"time": 548, "pitch": 57, "duration": 6, "velocity": 88}, {"time": 554, "pitch": 43, "duration": 13, "velocity": 98}, {"time": 554, "pitch": 55, "duration": 13, "velocity": 90}, {"time": 566, "pitch": 62, "duration": 7, "velocity": 96}, {"time": 566, "pitch": 67, "duration": 7, "velocity": 107}, {"time": 566, "pitch": 70, "duration": 7, "velocity": 103}, {"time": 572, "pitch": 50, "duration": 7, "velocity": 92}, {"time": 578, "pitch": 48, "duration": 21, "velocity": 102}, {"time": 578, "pitch": 60, "duration": 15, "velocity": 85}, {"time": 578, "pitch": 64, "duration": 15, "velocity": 91}, {"time": 578, "pitch": 67, "duration": 15, "velocity": 85}, {"time": 590, "pitch": 55, "duration": 11, "velocity": 87}, {"time": 596, "pitch": 60, "duration": 3, "velocity": 83}, {"time": 596, "pitch": 64, "duration": 6, "velocity": 86}, {"time": 596, "pitch": 67, "duration": 5, "velocity": 87}, {"time": 602, "pitch": 50, "duration": 14, "velocity": 89}, {"time": 602, "pitch": 62, "duration": 10, "velocity": 88}, {"time": 602, "pitch": 65, "duration": 11, "velocity": 93}, {"time": 602, "pitch": 69, "duration": 9, "velocity": 96}, {"time": 614, "pitch": 62, "duration": 6, "velocity": 93}, {"time": 614, "pitch": 65, "duration": 7, "velocity": 98}, {"time": 614, "pitch": 69, "duration": 6, "velocity": 98}, {"time": 620, "pitch": 50, "duration": 4, "velocity": 89}, {"time": 626, "pitch": 46, "duration": 12, "velocity": 86}, {"time": 626, "pitch": 58, "duration": 13, "velocity": 86}, {"time": 638, "pitch": 62, "duration": 13, "velocity": 92}, {"time": 638, "pitch": 65, "duration": 16, "velocity": 100}, {"time": 638, "pitch": 70, "duration": 14, "velocity": 91}, {"time": 644, "pitch": 46, "duration": 6, "velocity": 97}, {"time": 650, "pitch": 48, "duration": 13, "velocity": 93}, {"time": 662, "pitch": 64, "duration": 7, "velocity": 89}, {"time": 662, "pitch": 67, "duration": 11, "velocity": 98}, {"time": 662, "pitch": 72, "duration": 8, "velocity": 93}, {"time": 668, "pitch": 48, "duration": 6, "velocity": 84}, {"time": 674, "pitch": 50, "duration": 28, "velocity": 98}, {"time": 674, "pitch": 62, "duration": 18, "velocity": 91}, {"time": 674, "pitch": 65, "duration": 18, "velocity": 91}, {"time": 674, "pitch": 69, "duration": 18, "velocity": 91}, {"time": 692, "pitch": 62, "duration": 14, "velocity": 94}, {"time": 692, "pitch": 65, "duration": 14, "velocity": 102}, {"time": 692, "pitch": 69, "duration": 14, "velocity": 102}, {"time": 704, "pitch": 50, "duration": 8, "velocity": 93}, {"time": 710, "pitch": 62, "duration": 6, "velocity": 107}, {"time": 710, "pitch": 65, "duration": 6, "velocity": 113}, {"time": 710, "pitch": 69, "duration": 6, "velocity": 108}, {"time": 716, "pitch": 50, "duration": 7, "velocity": 102}, {"time": 722, "pitch": 50, "duration": 1, "velocity": 87}, {"time": 722, "pitch": 62, "duration": 9, "velocity": 85}, {"time": 722, "pitch": 65, "duration": 11, "velocity": 88}, {"time": 722, "pitch": 69, "duration": 10, "velocity": 87}, {"time": 728, "pitch": 57, "duration": 20, "velocity": 79}, {"time": 734, "pitch": 62, "duration": 5, "velocity": 80}, {"time": 740, "pitch": 62, "duration": 14, "velocity": 89}, {"time": 740, "pitch": 65, "duration": 14, "velocity": 89}, {"time": 740, "pitch": 69, "duration": 14, "velocity": 91}, {"time": 752, "pitch": 57, "duration": 8, "velocity": 84}, {"time": 758, "pitch": 62, "duration": 19, "velocity": 86}, {"time": 758, "pitch": 65, "duration": 20, "velocity": 87}, {"time": 758, "pitch": 69, "duration": 19, "velocity": 88}, {"time": 764, "pitch": 57, "duration": 8, "velocity": 84}, {"time": 770, "pitch": 50, "duration": 39, "velocity": 91}, {"time": 776, "pitch": 57, "duration": 17, "velocity": 76}, {"time": 782, "pitch": 62, "duration": 6, "velocity": 75}, {"time": 788, "pitch": 62, "duration": 14, "velocity": 91}, {"time": 788, "pitch": 65, "duration": 14, "velocity": 94}, {"time": 788, "pitch": 69, "duration": 14, "velocity": 93}, {"time": 800, "pitch": 57, "duration": 8, "velocity": 88}, {"time": 806, "pitch": 62, "duration": 17, "velocity": 104}, {"time": 806, "pitch": 69, "duration": 12, "velocity": 93}, {"time": 812, "pitch": 65, "duration": 7, "velocity": 88}, {"time": 818, "pitch": 43, "duration": 18, "velocity": 94}, {"time": 824, "pitch": 55, "duration": 18, "velocity": 88}, {"time": 830, "pitch": 58, "duration": 7, "velocity": 106}, {"time": 830, "pitch": 67, "duration": 19, "velocity": 96}, {"time": 836, "pitch": 62, "duration": 7, "velocity": 88}, {"time": 842, "pitch": 48, "duration": 19, "velocity": 88}, {"time": 842, "pitch": 60, "duration": 5, "velocity": 84}, {"time": 842, "pitch": 64, "duration": 7, "velocity": 88}, {"time": 848, "pitch": 55, "duration": 12, "velocity": 86}, {"time": 854, "pitch": 60, "duration": 12, "velocity": 93}, {"time": 854, "pitch": 64, "duration": 7, "velocity": 91}, {"time": 854, "pitch": 72, "duration": 7, "velocity": 96}, {"time": 860, "pitch": 67, "duration": 6, "velocity": 89}, {"time": 866, "pitch": 53, "duration": 43, "velocity": 86}, {"time": 866, "pitch": 65, "duration": 7, "velocity": 87}, {"time": 866, "pitch": 69, "duration": 10, "velocity": 88}, {"time": 866, "pitch": 72, "duration": 16, "velocity": 87}, {"time": 872, "pitch": 60, "duration": 19, "velocity": 83}, {"time": 878, "pitch": 65, "duration": 13, "velocity": 90}, {"time": 884, "pitch": 67, "duration": 7, "velocity": 102}, {"time": 884, "pitch": 72, "duration": 14, "velocity": 108}, {"time": 890, "pitch": 69, "duration": 9, "velocity": 84}, {"time": 896, "pitch": 60, "duration": 12, "velocity": 87}, {"time": 902, "pitch": 69, "duration": 7, "velocity": 114}, {"time": 902, "pitch": 72, "duration": 7, "velocity": 114}, {"time": 914, "pitch": 50, "duration": 40, "velocity": 89}, {"time": 914, "pitch": 65, "duration": 15, "velocity": 85}, {"time": 914, "pitch": 69, "duration": 15, "velocity": 87}, {"time": 914, "pitch": 74, "duration": 14, "velocity": 88}, {"time": 920, "pitch": 57, "duration": 31, "velocity": 74}, {"time": 926, "pitch": 62, "duration": 12, "velocity": 80}, {"time": 932, "pitch": 65, "duration": 12, "velocity": 86}, {"time": 932, "pitch": 69, "duration": 14, "velocity": 90}, {"time": 932, "pitch": 74, "duration": 12, "velocity": 87}, {"time": 944, "pitch": 62, "duration": 7, "velocity": 86}, {"time": 950, "pitch": 65, "duration": 8, "velocity": 96}, {"time": 950, "pitch": 74, "duration": 17, "velocity": 88}, {"time": 956, "pitch": 69, "duration": 6, "velocity": 87}, {"time": 962, "pitch": 43, "duration": 42, "velocity": 87}, {"time": 962, "pitch": 67, "duration": 7, "velocity": 87}, {"time": 962, "pitch": 70, "duration": 6, "velocity": 86}, {"time": 968, "pitch": 50, "duration": 37, "velocity": 79}, {"time": 974, "pitch": 55, "duration": 12, "velocity": 82}, {"time": 980, "pitch": 58, "duration": 12, "velocity": 86}, {"time": 980, "pitch": 62, "duration": 12, "velocity": 91}, {"time": 980, "pitch": 67, "duration": 12, "velocity": 91}, {"time": 992, "pitch": 55, "duration": 7, "velocity": 88}, {"time": 998, "pitch": 58, "duration": 5, "velocity": 97}, {"time": 998, "pitch": 62, "duration": 11, "velocity": 102}, {"time": 998, "pitch": 67, "duration": 7, "velocity": 102}, {"time": 1004, "pitch": 55, "duration": 5, "velocity": 88}, {"time": 1010, "pitch": 48, "duration": 39, "velocity": 87}, {"time": 1010, "pitch": 60, "duration": 6, "velocity": 86}, {"time": 1010, "pitch": 64, "duration": 10, "velocity": 92}, {"time": 1010, "pitch": 67, "duration": 12, "velocity": 89}, {"time": 1016, "pitch": 55, "duration": 32, "velocity": 74}, {"time": 1022, "pitch": 60, "duration": 11, "velocity": 85}, {"time": 1028, "pitch": 64, "duration": 15, "velocity": 94}, {"time": 1028, "pitch": 72, "duration": 16, "velocity": 91}, {"time": 1040, "pitch": 60, "duration": 7, "velocity": 89}, {"time": 1046, "pitch": 64, "duration": 4, "velocity": 92}, {"time": 1046, "pitch": 67, "duration": 4, "velocity": 100}, {"time": 1046, "pitch": 72, "duration": 4, "velocity": 83}, {"time": 1058, "pitch": 45, "duration": 44, "velocity": 84}, {"time": 1058, "pitch": 60, "duration": 13, "velocity": 88}, {"time": 1058, "pitch": 64, "duration": 15, "velocity": 96}, {"time": 1058, "pitch": 69, "duration": 12, "velocity": 90}, {"time": 1064, "pitch": 52, "duration": 37, "velocity": 81}, {"time": 1070, "pitch": 57, "duration": 18, "velocity": 85}, {"time": 1076, "pitch": 60, "duration": 3, "velocity": 110}, {"time": 1076, "pitch": 69, "duration": 3, "velocity": 104}, {"time": 1088, "pitch": 60, "duration": 8, "velocity": 108}, {"time": 1088, "pitch": 64, "duration": 9, "velocity": 116}, {"time": 1088, "pitch": 69, "duration": 8, "velocity": 110}, {"time": 1094, "pitch": 57, "duration": 6, "velocity": 113}, {"time": 1100, "pitch": 60, "duration": 5, "velocity": 113}, {"time": 1100, "pitch": 64, "duration": 6, "velocity": 119}, {"time": 1100, "pitch": 69, "duration": 3, "velocity": 110}, {"time": 1106, "pitch": 50, "duration": 43, "velocity": 88}, {"time": 1106, "pitch": 65, "duration": 15, "velocity": 89}, {"time": 1106, "pitch": 69, "duration": 16, "velocity": 91}, {"time": 1112, "pitch": 57, "duration": 42, "velocity": 64}, {"time": 1118, "pitch": 62, "duration": 12, "velocity": 83}, {"time": 1124, "pitch": 65, "duration": 15, "velocity": 87}, {"time": 1124, "pitch": 69, "duration": 15, "velocity": 93}, {"time": 1136, "pitch": 62, "duration": 7, "velocity": 83}, {"time": 1142, "pitch": 65, "duration": 10, "velocity": 88}, {"time": 1142, "pitch": 69, "duration": 10, "velocity": 83}, {"time": 1148, "pitch": 62, "duration": 3, "velocity": 82}, {"time": 1154, "pitch": 50, "duration": 39, "velocity": 84}, {"time": 1154, "pitch": 65, "duration": 15, "velocity": 93}, {"time": 1154, "pitch": 69, "duration": 13, "velocity": 88}, {"time": 1160, "pitch": 57, "duration": 16, "velocity": 77}, {"time": 1166, "pitch": 62, "duration": 7, "velocity": 89}, {"time": 1172, "pitch": 65, "duration": 15, "velocity": 107}, {"time": 1172, "pitch": 69, "duration": 14, "velocity": 107}, {"time": 1184, "pitch": 57, "duration": 8, "velocity": 81}, {"time": 1190, "pitch": 62, "duration": 14, "velocity": 98}, {"time": 1190, "pitch": 69, "duration": 13, "velocity": 89}, {"time": 1196, "pitch": 65, "duration": 7, "velocity": 92}, {"time": 1202, "pitch": 43, "duration": 19, "velocity": 93}, {"time": 1208, "pitch": 50, "duration": 13, "velocity": 87}, {"time": 1214, "pitch": 55, "duration": 12, "velocity": 93}, {"time": 1220, "pitch": 58, "duration": 5, "velocity": 86}, {"time": 1220, "pitch": 62, "duration": 10, "velocity": 86}, {"time": 1220, "pitch": 67, "duration": 1, "velocity": 84}, {"time": 1220, "pitch": 67, "duration": 1, "velocity": 90}, {"time": 1226, "pitch": 48, "duration": 17, "velocity": 88}, {"time": 1232, "pitch": 55, "duration": 10, "velocity": 88}, {"time": 1238, "pitch": 60, "duration": 29, "velocity": 100}, {"time": 1238, "pitch": 67, "duration": 14, "velocity": 96}, {"time": 1244, "pitch": 64, "duration": 8, "velocity": 88}, {"time": 1250, "pitch": 41, "duration": 44, "velocity": 93}, {"time": 1256, "pitch": 48, "duration": 37, "velocity": 83}, {"time": 1262, "pitch": 53, "duration": 17, "velocity": 88}, {"time": 1268, "pitch": 57, "duration": 21, "velocity": 100}, {"time": 1268, "pitch": 60, "duration": 10, "velocity": 102}, {"time": 1268, "pitch": 65, "duration": 10, "velocity": 104}, {"time": 1280, "pitch": 60, "duration": 10, "velocity": 86}, {"time": 1280, "pitch": 65, "duration": 8, "velocity": 81}, {"time": 1286, "pitch": 53, "duration": 8, "velocity": 110}, {"time": 1292, "pitch": 57, "duration": 5, "velocity": 91}, {"time": 1292, "pitch": 60, "duration": 7, "velocity": 96}, {"time": 1292, "pitch": 65, "duration": 7, "velocity": 100}, {"time": 1298, "pitch": 50, "duration": 40, "velocity": 88}, {"time": 1298, "pitch": 65, "duration": 1, "velocity": 88}, {"time": 1298, "pitch": 69, "duration": 16, "velocity": 92}, {"time": 1298, "pitch": 74, "duration": 11, "velocity": 88}, {"time": 1304, "pitch": 57, "duration": 32, "velocity": 77}, {"time": 1310, "pitch": 62, "duration": 13, "velocity": 86}, {"time": 1316, "pitch": 65, "duration": 15, "velocity": 91}, {"time": 1316, "pitch": 69, "duration": 16, "velocity": 98}, {"time": 1328, "pitch": 62, "duration": 7, "velocity": 92}, {"time": 1334, "pitch": 65, "duration": 12, "velocity": 110}, {"time": 1334, "pitch": 69, "duration": 12, "velocity": 113}, {"time": 1346, "pitch": 43, "duration": 38, "velocity": 93}, {"time": 1352, "pitch": 50, "duration": 33, "velocity": 86}, {"time": 1358, "pitch": 55, "duration": 14, "velocity": 88}, {"time": 1364, "pitch": 58, "duration": 15, "velocity": 89}, {"time": 1364, "pitch": 67, "duration": 13, "velocity": 92}, {"time": 1376, "pitch": 55, "duration": 16, "velocity": 96}, {"time": 1382, "pitch": 62, "duration": 10, "velocity": 104}, {"time": 1382, "pitch": 67, "duration": 8, "velocity": 100}, {"time": 1394, "pitch": 48, "duration": 41, "velocity": 84}, {"time": 1394, "pitch": 60, "duration": 7, "velocity": 88}, {"time": 1394, "pitch": 64, "duration": 12, "velocity": 93}, {"time": 1394, "pitch": 67, "duration": 15, "velocity": 89}, {"time": 1400, "pitch": 55, "duration": 35, "velocity": 80}, {"time": 1406, "pitch": 60, "duration": 9, "velocity": 86}, {"time": 1412, "pitch": 64, "duration": 14, "velocity": 98}, {"time": 1412, "pitch": 67, "duration": 14, "velocity": 98}, {"time": 1424, "pitch": 60, "duration": 9, "velocity": 91}, {"time": 1430, "pitch": 64, "duration": 11, "velocity": 107}, {"time": 1430, "pitch": 67, "duration": 9, "velocity": 102}, {"time": 1442, "pitch": 50, "duration": 43, "velocity": 92}, {"time": 1442, "pitch": 62, "duration": 11, "velocity": 89}, {"time": 1442, "pitch": 65, "duration": 17, "velocity": 90}, {"time": 1442, "pitch": 69, "duration": 11, "velocity": 91}, {"time": 1448, "pitch": 57, "duration": 18, "velocity": 76}, {"time": 1454, "pitch": 62, "duration": 3, "velocity": 46}, {"time": 1454, "pitch": 69, "duration": 2, "velocity": 64}, {"time": 1460, "pitch": 62, "duration": 14, "velocity": 93}, {"time": 1460, "pitch": 65, "duration": 14, "velocity": 98}, {"time": 1460, "pitch": 69, "duration": 13, "velocity": 98}, {"time": 1472, "pitch": 57, "duration": 13, "velocity": 91}, {"time": 1478, "pitch": 62, "duration": 6, "velocity": 108}, {"time": 1478, "pitch": 65, "duration": 7, "velocity": 110}, {"time": 1478, "pitch": 69, "duration": 7, "velocity": 108}, {"time": 1490, "pitch": 50, "duration": 40, "velocity": 92}, {"time": 1490, "pitch": 62, "duration": 15, "velocity": 100}, {"time": 1490, "pitch": 65, "duration": 15, "velocity": 108}, {"time": 1490, "pitch": 69, "duration": 14, "velocity": 102}, {"time": 1502, "pitch": 57, "duration": 13, "velocity": 88}, {"time": 1508, "pitch": 62, "duration": 14, "velocity": 104}, {"time": 1508, "pitch": 65, "duration": 15, "velocity": 104}, {"time": 1508, "pitch": 69, "duration": 14, "velocity": 102}, {"time": 1520, "pitch": 57, "duration": 9, "velocity": 91}, {"time": 1526, "pitch": 62, "duration": 18, "velocity": 108}, {"time": 1526, "pitch": 69, "duration": 13, "velocity": 86}, {"time": 1532, "pitch": 65, "duration": 7, "velocity": 108}, {"time": 1538, "pitch": 41, "duration": 44, "velocity": 104}, {"time": 1544, "pitch": 48, "duration": 37, "velocity": 87}, {"time": 1550, "pitch": 53, "duration": 15, "velocity": 107}, {"time": 1556, "pitch": 57, "duration": 12, "velocity": 104}, {"time": 1556, "pitch": 65, "duration": 14, "velocity": 102}, {"time": 1562, "pitch": 60, "duration": 10, "velocity": 81}, {"time": 1568, "pitch": 53, "duration": 9, "velocity": 100}, {"time": 1574, "pitch": 57, "duration": 7, "velocity": 113}, {"time": 1574, "pitch": 65, "duration": 14, "velocity": 93}, {"time": 1580, "pitch": 60, "duration": 7, "velocity": 91}, {"time": 1586, "pitch": 43, "duration": 18, "velocity": 94}, {"time": 1592, "pitch": 50, "duration": 13, "velocity": 88}, {"time": 1598, "pitch": 55, "duration": 12, "velocity": 114}, {"time": 1604, "pitch": 58, "duration": 7, "velocity": 109}, {"time": 1604, "pitch": 67, "duration": 9, "velocity": 89}, {"time": 1610, "pitch": 48, "duration": 16, "velocity": 92}, {"time": 1616, "pitch": 55, "duration": 9, "velocity": 90}, {"time": 1622, "pitch": 60, "duration": 18, "velocity": 113}, {"time": 1622, "pitch": 67, "duration": 14, "velocity": 94}, {"time": 1628, "pitch": 64, "duration": 7, "velocity": 98}, {"time": 1634, "pitch": 41, "duration": 44, "velocity": 94}, {"time": 1640, "pitch": 48, "duration": 28, "velocity": 78}, {"time": 1646, "pitch": 53, "duration": 19, "velocity": 107}, {"time": 1652, "pitch": 57, "duration": 8, "velocity": 110}, {"time": 1652, "pitch": 65, "duration": 9, "velocity": 93}, {"time": 1658, "pitch": 60, "duration": 2, "velocity": 78}, {"time": 1664, "pitch": 60, "duration": 9, "velocity": 102}, {"time": 1664, "pitch": 65, "duration": 8, "velocity": 98}, {"time": 1670, "pitch": 48, "duration": 7, "velocity": 38}, {"time": 1670, "pitch": 53, "duration": 6, "velocity": 113}, {"time": 1676, "pitch": 60, "duration": 5, "velocity": 102}, {"time": 1676, "pitch": 65, "duration": 6, "velocity": 96}, {"time": 1682, "pitch": 50, "duration": 14, "velocity": 89}, {"time": 1682, "pitch": 62, "duration": 8, "velocity": 86}, {"time": 1682, "pitch": 65, "duration": 8, "velocity": 89}, {"time": 1682, "pitch": 69, "duration": 7, "velocity": 88}, {"time": 1688, "pitch": 57, "duration": 8, "velocity": 86}, {"time": 1694, "pitch": 62, "duration": 10, "velocity": 100}, {"time": 1694, "pitch": 65, "duration": 5, "velocity": 110}, {"time": 1694, "pitch": 69, "duration": 6, "velocity": 98}, {"time": 1700, "pitch": 50, "duration": 1, "velocity": 77}, {"time": 1706, "pitch": 43, "duration": 18, "velocity": 91}, {"time": 1706, "pitch": 58, "duration": 5, "velocity": 90}, {"time": 1706, "pitch": 62, "duration": 8, "velocity": 91}, {"time": 1706, "pitch": 67, "duration": 7, "velocity": 92}, {"time": 1712, "pitch": 50, "duration": 13, "velocity": 88}, {"time": 1718, "pitch": 58, "duration": 5, "velocity": 100}, {"time": 1718, "pitch": 62, "duration": 9, "velocity": 110}, {"time": 1718, "pitch": 67, "duration": 5, "velocity": 108}, {"time": 1724, "pitch": 55, "duration": 6, "velocity": 89}, {"time": 1730, "pitch": 48, "duration": 19, "velocity": 87}, {"time": 1730, "pitch": 60, "duration": 7, "velocity": 90}, {"time": 1730, "pitch": 64, "duration": 7, "velocity": 102}, {"time": 1730, "pitch": 67, "duration": 7, "velocity": 94}, {"time": 1736, "pitch": 55, "duration": 7, "velocity": 87}, {"time": 1742, "pitch": 60, "duration": 6, "velocity": 100}, {"time": 1742, "pitch": 64, "duration": 10, "velocity": 110}, {"time": 1742, "pitch": 67, "duration": 8, "velocity": 108}, {"time": 1748, "pitch": 55, "duration": 7, "velocity": 88}, {"time": 1754, "pitch": 50, "duration": 15, "velocity": 89}, {"time": 1754, "pitch": 62, "duration": 8, "velocity": 89}, {"time": 1754, "pitch": 65, "duration": 8, "velocity": 98}, {"time": 1754, "pitch": 69, "duration": 7, "velocity": 98}, {"time": 1760, "pitch": 57, "duration": 7, "velocity": 87}, {"time": 1766, "pitch": 62, "duration": 6, "velocity": 104}, {"time": 1766, "pitch": 65, "duration": 7, "velocity": 110}, {"time": 1766, "pitch": 69, "duration": 6, "velocity": 107}, {"time": 1772, "pitch": 50, "duration": 3, "velocity": 102}, {"time": 1778, "pitch": 46, "duration": 18, "velocity": 95}, {"time": 1778, "pitch": 62, "duration": 15, "velocity": 104}, {"time": 1778, "pitch": 70, "duration": 15, "velocity": 106}, {"time": 1784, "pitch": 53, "duration": 13, "velocity": 85}, {"time": 1790, "pitch": 58, "duration": 7, "velocity": 93}, {"time": 1796, "pitch": 62, "duration": 8, "velocity": 92}, {"time": 1796, "pitch": 70, "duration": 11, "velocity": 106}, {"time": 1802, "pitch": 48, "duration": 20, "velocity": 94}, {"time": 1808, "pitch": 55, "duration": 19, "velocity": 83}, {"time": 1814, "pitch": 64, "duration": 8, "velocity": 91}, {"time": 1814, "pitch": 67, "duration": 8, "velocity": 100}, {"time": 1814, "pitch": 72, "duration": 7, "velocity": 90}, {"time": 1820, "pitch": 60, "duration": 5, "velocity": 85}, {"time": 1826, "pitch": 48, "duration": 38, "velocity": 93}, {"time": 1826, "pitch": 64, "duration": 2, "velocity": 85}, {"time": 1826, "pitch": 67, "duration": 2, "velocity": 87}, {"time": 1826, "pitch": 72, "duration": 2, "velocity": 84}, {"time": 1832, "pitch": 55, "duration": 32, "velocity": 85}, {"time": 1838, "pitch": 60, "duration": 7, "velocity": 93}, {"time": 1844, "pitch": 64, "duration": 6, "velocity": 102}, {"time": 1844, "pitch": 67, "duration": 6, "velocity": 110}, {"time": 1844, "pitch": 72, "duration": 6, "velocity": 100}, {"time": 1856, "pitch": 60, "duration": 7, "velocity": 88}, {"time": 1862, "pitch": 64, "duration": 6, "velocity": 107}, {"time": 1862, "pitch": 67, "duration": 6, "velocity": 113}, {"time": 1862, "pitch": 72, "duration": 6, "velocity": 100}, {"time": 1874, "pitch": 50, "duration": 44, "velocity": 100}, {"time": 1874, "pitch": 62, "duration": 11, "velocity": 93}, {"time": 1874, "pitch": 65, "duration": 15, "velocity": 96}, {"time": 1874, "pitch": 69, "duration": 13, "velocity": 91}, {"time": 1880, "pitch": 57, "duration": 18, "velocity": 80}, {"time": 1886, "pitch": 62, "duration": 10, "velocity": 96}, {"time": 1892, "pitch": 65, "duration": 15, "velocity": 107}, {"time": 1892, "pitch": 69, "duration": 14, "velocity": 104}, {"time": 1904, "pitch": 57, "duration": 8, "velocity": 87}, {"time": 1910, "pitch": 65, "duration": 8, "velocity": 113}, {"time": 1910, "pitch": 69, "duration": 8, "velocity": 108}, {"time": 1922, "pitch": 41, "duration": 41, "velocity": 92}, {"time": 1922, "pitch": 60, "duration": 13, "velocity": 88}, {"time": 1922, "pitch": 65, "duration": 14, "velocity": 100}, {"time": 1922, "pitch": 69, "duration": 12, "velocity": 90}, {"time": 1928, "pitch": 48, "duration": 37, "velocity": 75}, {"time": 1934, "pitch": 53, "duration": 10, "velocity": 86}, {"time": 1940, "pitch": 60, "duration": 12, "velocity": 90}, {"time": 1940, "pitch": 65, "duration": 12, "velocity": 102}, {"time": 1940, "pitch": 69, "duration": 12, "velocity": 92}, {"time": 1952, "pitch": 53, "duration": 6, "velocity": 86}, {"time": 1958, "pitch": 60, "duration": 7, "velocity": 102}, {"time": 1958, "pitch": 69, "duration": 5, "velocity": 100}, {"time": 1964, "pitch": 53, "duration": 6, "velocity": 91}, {"time": 1970, "pitch": 43, "duration": 19, "velocity": 91}, {"time": 1970, "pitch": 58, "duration": 10, "velocity": 93}, {"time": 1970, "pitch": 67, "duration": 7, "velocity": 110}, {"time": 1976, "pitch": 50, "duration": 13, "velocity": 87}, {"time": 1982, "pitch": 58, "duration": 6, "velocity": 100}, {"time": 1982, "pitch": 67, "duration": 7, "velocity": 113}, {"time": 1988, "pitch": 55, "duration": 6, "velocity": 89}, {"time": 1994, "pitch": 48, "duration": 15, "velocity": 87}, {"time": 1994, "pitch": 60, "duration": 7, "velocity": 88}, {"time": 1994, "pitch": 64, "duration": 7, "velocity": 98}, {"time": 1994, "pitch": 67, "duration": 7, "velocity": 93}, {"time": 2000, "pitch": 55, "duration": 8, "velocity": 87}, {"time": 2006, "pitch": 60, "duration": 6, "velocity": 110}, {"time": 2006, "pitch": 67, "duration": 7, "velocity": 110}, {"time": 2018, "pitch": 41, "duration": 41, "velocity": 96}, {"time": 2018, "pitch": 60, "duration": 15, "velocity": 87}, {"time": 2018, "pitch": 65, "duration": 15, "velocity": 94}, {"time": 2018, "pitch": 69, "duration": 14, "velocity": 93}, {"time": 2024, "pitch": 48, "duration": 36, "velocity": 81}, {"time": 2030, "pitch": 53, "duration": 10, "velocity": 87}, {"time": 2036, "pitch": 60, "duration": 13, "velocity": 92}, {"time": 2036, "pitch": 65, "duration": 13, "velocity": 104}, {"time": 2036, "pitch": 69, "duration": 12, "velocity": 93}, {"time": 2048, "pitch": 53, "duration": 7, "velocity": 94}, {"time": 2054, "pitch": 60, "duration": 7, "velocity": 104}, {"time": 2054, "pitch": 65, "duration": 9, "velocity": 110}, {"time": 2054, "pitch": 69, "duration": 8, "velocity": 100}, {"time": 2060, "pitch": 53, "duration": 4, "velocity": 89}, {"time": 2066, "pitch": 50, "duration": 15, "velocity": 86}, {"time": 2066, "pitch": 62, "duration": 8, "velocity": 88}, {"time": 2066, "pitch": 65, "duration": 8, "velocity": 94}, {"time": 2066, "pitch": 69, "duration": 8, "velocity": 91}, {"time": 2072, "pitch": 57, "duration": 9, "velocity": 86}, {"time": 2078, "pitch": 62, "duration": 11, "velocity": 96}, {"time": 2078, "pitch": 65, "duration": 7, "velocity": 104}, {"time": 2078, "pitch": 69, "duration": 7, "velocity": 91}, {"time": 2090, "pitch": 43, "duration": 16, "velocity": 88}, {"time": 2090, "pitch": 58, "duration": 7, "velocity": 91}, {"time": 2090, "pitch": 62, "duration": 8, "velocity": 89}, {"time": 2090, "pitch": 67, "duration": 6, "velocity": 96}, {"time": 2096, "pitch": 50, "duration": 9, "velocity": 85}, {"time": 2102, "pitch": 58, "duration": 6, "velocity": 97}, {"time": 2102, "pitch": 62, "duration": 7, "velocity": 113}, {"time": 2102, "pitch": 67, "duration": 6, "velocity": 113}, {"time": 2108, "pitch": 43, "duration": 3, "velocity": 89}, {"time": 2114, "pitch": 48, "duration": 18, "velocity": 88}, {"time": 2114, "pitch": 64, "duration": 9, "velocity": 88}, {"time": 2114, "pitch": 67, "duration": 9, "velocity": 91}, {"time": 2114, "pitch": 72, "duration": 7, "velocity": 87}, {"time": 2120, "pitch": 55, "duration": 13, "velocity": 80}, {"time": 2126, "pitch": 64, "duration": 7, "velocity": 89}, {"time": 2126, "pitch": 67, "duration": 10, "velocity": 100}, {"time": 2126, "pitch": 72, "duration": 7, "velocity": 93}, {"time": 2132, "pitch": 60, "duration": 6, "velocity": 86}, {"time": 2138, "pitch": 50, "duration": 14, "velocity": 91}, {"time": 2138, "pitch": 62, "duration": 7, "velocity": 88}, {"time": 2138, "pitch": 65, "duration": 8, "velocity": 98}, {"time": 2138, "pitch": 69, "duration": 7, "velocity": 89}, {"time": 2144, "pitch": 57, "duration": 8, "velocity": 84}, {"time": 2150, "pitch": 62, "duration": 7, "velocity": 108}, {"time": 2150, "pitch": 65, "duration": 10, "velocity": 114}, {"time": 2150, "pitch": 69, "duration": 7, "velocity": 110}, {"time": 2156, "pitch": 48, "duration": 3, "velocity": 100}, {"time": 2162, "pitch": 46, "duration": 18, "velocity": 95}, {"time": 2162, "pitch": 62, "duration": 8, "velocity": 88}, {"time": 2162, "pitch": 65, "duration": 8, "velocity": 96}, {"time": 2162, "pitch": 70, "duration": 8, "velocity": 97}, {"time": 2168, "pitch": 53, "duration": 12, "velocity": 84}, {"time": 2174, "pitch": 62, "duration": 6, "velocity": 98}, {"time": 2174, "pitch": 65, "duration": 7, "velocity": 110}, {"time": 2174, "pitch": 70, "duration": 7, "velocity": 100}, {"time": 2180, "pitch": 58, "duration": 3, "velocity": 89}, {"time": 2186, "pitch": 48, "duration": 14, "velocity": 88}, {"time": 2186, "pitch": 64, "duration": 8, "velocity": 88}, {"time": 2186, "pitch": 67, "duration": 8, "velocity": 93}, {"time": 2186, "pitch": 72, "duration": 7, "velocity": 90}, {"time": 2192, "pitch": 55, "duration": 8, "velocity": 86}, {"time": 2198, "pitch": 64, "duration": 7, "velocity": 100}, {"time": 2198, "pitch": 67, "duration": 7, "velocity": 102}, {"time": 2198, "pitch": 72, "duration": 8, "velocity": 91}, {"time": 2204, "pitch": 48, "duration": 3, "velocity": 91}, {"time": 2210, "pitch": 50, "duration": 38, "velocity": 89}, {"time": 2210, "pitch": 62, "duration": 5, "velocity": 89}, {"time": 2210, "pitch": 65, "duration": 15, "velocity": 94}, {"time": 2210, "pitch": 69, "duration": 14, "velocity": 91}, {"time": 2216, "pitch": 57, "duration": 19, "velocity": 84}, {"time": 2222, "pitch": 62, "duration": 6, "velocity": 113}, {"time": 2228, "pitch": 64, "duration": 6, "velocity": 104}, {"time": 2228, "pitch": 69, "duration": 5, "velocity": 100}, {"time": 2234, "pitch": 65, "duration": 6, "velocity": 98}, {"time": 2234, "pitch": 69, "duration": 7, "velocity": 92}, {"time": 2240, "pitch": 57, "duration": 8, "velocity": 88}, {"time": 2246, "pitch": 65, "duration": 6, "velocity": 96}, {"time": 2246, "pitch": 69, "duration": 7, "velocity": 108}, {"time": 2246, "pitch": 74, "duration": 6, "velocity": 102}, {"time": 2252, "pitch": 50, "duration": 7, "velocity": 102}, {"time": 2257, "pitch": 70, "duration": 7, "velocity": 78}, {"time": 2257, "pitch": 46, "duration": 26, "velocity": 90}, {"time": 2257, "pitch": 34, "duration": 43, "velocity": 88}, {"time": 2257, "pitch": 62, "duration": 7, "velocity": 63}, {"time": 2257, "pitch": 65, "duration": 7, "velocity": 66}, {"time": 2282, "pitch": 65, "duration": 6, "velocity": 47}, {"time": 2282, "pitch": 70, "duration": 6, "velocity": 53}, {"time": 2282, "pitch": 62, "duration": 6, "velocity": 45}, {"time": 2288, "pitch": 46, "duration": 7, "velocity": 52}, {"time": 2294, "pitch": 65, "duration": 6, "velocity": 66}, {"time": 2294, "pitch": 70, "duration": 6, "velocity": 75}, {"time": 2294, "pitch": 62, "duration": 6, "velocity": 69}, {"time": 2299, "pitch": 46, "duration": 2, "velocity": 65}, {"time": 2306, "pitch": 46, "duration": 37, "velocity": 76}, {"time": 2306, "pitch": 62, "duration": 13, "velocity": 80}, {"time": 2306, "pitch": 70, "duration": 13, "velocity": 71}, {"time": 2306, "pitch": 34, "duration": 43, "velocity": 77}, {"time": 2306, "pitch": 65, "duration": 8, "velocity": 59}, {"time": 2342, "pitch": 65, "duration": 6, "velocity": 67}, {"time": 2342, "pitch": 70, "duration": 5, "velocity": 76}, {"time": 2342, "pitch": 62, "duration": 5, "velocity": 61}, {"time": 2348, "pitch": 45, "duration": 1, "velocity": 58}, {"time": 2354, "pitch": 61, "duration": 7, "velocity": 71}, {"time": 2354, "pitch": 45, "duration": 36, "velocity": 77}, {"time": 2354, "pitch": 69, "duration": 7, "velocity": 74}, {"time": 2354, "pitch": 33, "duration": 77, "velocity": 79}, {"time": 2354, "pitch": 64, "duration": 7, "velocity": 69}, {"time": 2367, "pitch": 61, "duration": 5, "velocity": 39}, {"time": 2367, "pitch": 69, "duration": 5, "velocity": 43}, {"time": 2367, "pitch": 64, "duration": 4, "velocity": 47}, {"time": 2378, "pitch": 61, "duration": 5, "velocity": 36}, {"time": 2378, "pitch": 69, "duration": 5, "velocity": 44}, {"time": 2378, "pitch": 64, "duration": 5, "velocity": 50}, {"time": 2390, "pitch": 61, "duration": 5, "velocity": 44}, {"time": 2390, "pitch": 64, "duration": 5, "velocity": 51}, {"time": 2390, "pitch": 69, "duration": 5, "velocity": 51}, {"time": 2396, "pitch": 45, "duration": 32, "velocity": 55}, {"time": 2402, "pitch": 61, "duration": 6, "velocity": 52}, {"time": 2402, "pitch": 69, "duration": 6, "velocity": 62}, {"time": 2402, "pitch": 64, "duration": 6, "velocity": 59}, {"time": 2414, "pitch": 61, "duration": 5, "velocity": 38}, {"time": 2414, "pitch": 64, "duration": 5, "velocity": 44}, {"time": 2415, "pitch": 69, "duration": 4, "velocity": 47}, {"time": 2426, "pitch": 61, "duration": 3, "velocity": 95}, {"time": 2426, "pitch": 69, "duration": 3, "velocity": 92}, {"time": 2426, "pitch": 64, "duration": 3, "velocity": 83}, {"time": 2428, "pitch": 45, "duration": 10, "velocity": 80}, {"time": 2431, "pitch": 61, "duration": 3, "velocity": 62}, {"time": 2431, "pitch": 69, "duration": 3, "velocity": 73}, {"time": 2431, "pitch": 64, "duration": 3, "velocity": 68}, {"time": 2433, "pitch": 33, "duration": 7, "velocity": 98}, {"time": 2437, "pitch": 69, "duration": 4, "velocity": 75}, {"time": 2437, "pitch": 61, "duration": 4, "velocity": 80}, {"time": 2437, "pitch": 64, "duration": 5, "velocity": 83}, {"time": 2440, "pitch": 45, "duration": 6, "velocity": 94}, {"time": 2443, "pitch": 33, "duration": 3, "velocity": 102}, {"time": 2450, "pitch": 38, "duration": 18, "velocity": 83}, {"time": 2450, "pitch": 50, "duration": 13, "velocity": 85}, {"time": 2450, "pitch": 62, "duration": 6, "velocity": 79}, {"time": 2450, "pitch": 65, "duration": 6, "velocity": 71}, {"time": 2450, "pitch": 69, "duration": 6, "velocity": 82}, {"time": 2462, "pitch": 62, "duration": 7, "velocity": 87}, {"time": 2462, "pitch": 65, "duration": 7, "velocity": 90}, {"time": 2462, "pitch": 69, "duration": 7, "velocity": 84}, {"time": 2468, "pitch": 50, "duration": 1, "velocity": 74}, {"time": 2474, "pitch": 31, "duration": 18, "velocity": 95}, {"time": 2474, "pitch": 43, "duration": 13, "velocity": 94}, {"time": 2474, "pitch": 58, "duration": 8, "velocity": 59}, {"time": 2474, "pitch": 67, "duration": 8, "velocity": 66}, {"time": 2474, "pitch": 62, "duration": 8, "velocity": 65}, {"time": 2485, "pitch": 67, "duration": 4, "velocity": 60}, {"time": 2485, "pitch": 58, "duration": 3, "velocity": 68}, {"time": 2485, "pitch": 62, "duration": 4, "velocity": 55}, {"time": 2492, "pitch": 43, "duration": 1, "velocity": 68}, {"time": 2498, "pitch": 36, "duration": 18, "velocity": 88}, {"time": 2498, "pitch": 48, "duration": 5, "velocity": 85}, {"time": 2498, "pitch": 60, "duration": 6, "velocity": 81}, {"time": 2498, "pitch": 64, "duration": 6, "velocity": 69}, {"time": 2498, "pitch": 67, "duration": 6, "velocity": 84}, {"time": 2506, "pitch": 48, "duration": 5, "velocity": 80}, {"time": 2510, "pitch": 60, "duration": 5, "velocity": 90}, {"time": 2510, "pitch": 64, "duration": 6, "velocity": 90}, {"time": 2510, "pitch": 67, "duration": 6, "velocity": 99}, {"time": 2516, "pitch": 48, "duration": 1, "velocity": 81}, {"time": 2522, "pitch": 38, "duration": 19, "velocity": 84}, {"time": 2522, "pitch": 50, "duration": 6, "velocity": 83}, {"time": 2522, "pitch": 62, "duration": 7, "velocity": 84}, {"time": 2522, "pitch": 65, "duration": 8, "velocity": 83}, {"time": 2522, "pitch": 69, "duration": 7, "velocity": 83}, {"time": 2530, "pitch": 50, "duration": 5, "velocity": 84}, {"time": 2534, "pitch": 62, "duration": 5, "velocity": 97}, {"time": 2534, "pitch": 65, "duration": 5, "velocity": 99}, {"time": 2534, "pitch": 69, "duration": 5, "velocity": 99}, {"time": 2540, "pitch": 50, "duration": 1, "velocity": 80}, {"time": 2546, "pitch": 34, "duration": 19, "velocity": 92}, {"time": 2546, "pitch": 46, "duration": 6, "velocity": 87}, {"time": 2546, "pitch": 58, "duration": 7, "velocity": 85}, {"time": 2546, "pitch": 62, "duration": 7, "velocity": 72}, {"time": 2546, "pitch": 65, "duration": 7, "velocity": 86}, {"time": 2554, "pitch": 46, "duration": 5, "velocity": 79}, {"time": 2558, "pitch": 58, "duration": 5, "velocity": 104}, {"time": 2558, "pitch": 62, "duration": 6, "velocity": 88}, {"time": 2558, "pitch": 65, "duration": 7, "velocity": 93}, {"time": 2564, "pitch": 46, "duration": 1, "velocity": 90}, {"time": 2570, "pitch": 36, "duration": 19, "velocity": 96}, {"time": 2570, "pitch": 48, "duration": 6, "velocity": 90}, {"time": 2570, "pitch": 60, "duration": 7, "velocity": 84}, {"time": 2570, "pitch": 64, "duration": 8, "velocity": 83}, {"time": 2570, "pitch": 67, "duration": 7, "velocity": 82}, {"time": 2578, "pitch": 48, "duration": 6, "velocity": 76}, {"time": 2582, "pitch": 60, "duration": 6, "velocity": 110}, {"time": 2582, "pitch": 64, "duration": 7, "velocity": 99}, {"time": 2582, "pitch": 67, "duration": 7, "velocity": 96}, {"time": 2588, "pitch": 48, "duration": 1, "velocity": 75}, {"time": 2594, "pitch": 38, "duration": 18, "velocity": 96}, {"time": 2594, "pitch": 50, "duration": 8, "velocity": 97}, {"time": 2594, "pitch": 62, "duration": 7, "velocity": 75}, {"time": 2594, "pitch": 65, "duration": 7, "velocity": 58}, {"time": 2594, "pitch": 69, "duration": 8, "velocity": 71}, {"time": 2602, "pitch": 50, "duration": 6, "velocity": 88}, {"time": 2606, "pitch": 62, "duration": 5, "velocity": 106}, {"time": 2606, "pitch": 65, "duration": 5, "velocity": 95}, {"time": 2606, "pitch": 69, "duration": 6, "velocity": 99}, {"time": 2612, "pitch": 50, "duration": 1, "velocity": 68}, {"time": 2618, "pitch": 38, "duration": 17, "velocity": 88}, {"time": 2618, "pitch": 50, "duration": 6, "velocity": 87}, {"time": 2618, "pitch": 62, "duration": 7, "velocity": 88}, {"time": 2618, "pitch": 65, "duration": 7, "velocity": 75}, {"time": 2618, "pitch": 69, "duration": 7, "velocity": 80}, {"time": 2626, "pitch": 50, "duration": 5, "velocity": 76}, {"time": 2630, "pitch": 62, "duration": 6, "velocity": 100}, {"time": 2630, "pitch": 65, "duration": 7, "velocity": 95}, {"time": 2630, "pitch": 69, "duration": 7, "velocity": 96}, {"time": 2636, "pitch": 50, "duration": 1, "velocity": 91}, {"time": 2642, "pitch": 50, "duration": 44, "velocity": 87}, {"time": 2642, "pitch": 62, "duration": 9, "velocity": 85}, {"time": 2642, "pitch": 65, "duration": 11, "velocity": 88}, {"time": 2642, "pitch": 69, "duration": 10, "velocity": 87}, {"time": 2648, "pitch": 57, "duration": 20, "velocity": 79}, {"time": 2654, "pitch": 62, "duration": 5, "velocity": 80}, {"time": 2660, "pitch": 62, "duration": 14, "velocity": 89}, {"time": 2660, "pitch": 65, "duration": 14, "velocity": 89}, {"time": 2660, "pitch": 69, "duration": 14, "velocity": 91}, {"time": 2672, "pitch": 57, "duration": 8, "velocity": 84}, {"time": 2678, "pitch": 62, "duration": 19, "velocity": 86}, {"time": 2678, "pitch": 65, "duration": 20, "velocity": 87}, {"time": 2678, "pitch": 69, "duration": 19, "velocity": 88}, {"time": 2684, "pitch": 57, "duration": 8, "velocity": 84}, {"time": 2690, "pitch": 50, "duration": 39, "velocity": 91}, {"time": 2696, "pitch": 57, "duration": 17, "velocity": 76}, {"time": 2702, "pitch": 62, "duration": 6, "velocity": 75}, {"time": 2708, "pitch": 62, "duration": 14, "velocity": 91}, {"time": 2708, "pitch": 65, "duration": 14, "velocity": 94}, {"time": 2708, "pitch": 69, "duration": 14, "velocity": 93}, {"time": 2720, "pitch": 57, "duration": 8, "velocity": 88}, {"time": 2726, "pitch": 62, "duration": 17, "velocity": 104}, {"time": 2726, "pitch": 69, "duration": 12, "velocity": 93}, {"time": 2732, "pitch": 65, "duration": 7, "velocity": 88}, {"time": 2738, "pitch": 43, "duration": 18, "velocity": 94}, {"time": 2744, "pitch": 55, "duration": 18, "velocity": 88}, {"time": 2750, "pitch": 58, "duration": 7, "velocity": 106}, {"time": 2750, "pitch": 67, "duration": 19, "velocity": 96}, {"time": 2756, "pitch": 62, "duration": 7, "velocity": 88}, {"time": 2762, "pitch": 48, "duration": 19, "velocity": 88}, {"time": 2762, "pitch": 60, "duration": 5, "velocity": 84}, {"time": 2762, "pitch": 64, "duration": 7, "velocity": 88}, {"time": 2768, "pitch": 55, "duration": 12, "velocity": 86}, {"time": 2774, "pitch": 60, "duration": 12, "velocity": 93}, {"time": 2774, "pitch": 64, "duration": 7, "velocity": 91}, {"time": 2774, "pitch": 72, "duration": 7, "velocity": 96}, {"time": 2780, "pitch": 67, "duration": 6, "velocity": 89}, {"time": 2786, "pitch": 53, "duration": 43, "velocity": 86}, {"time": 2786, "pitch": 65, "duration": 7, "velocity": 87}, {"time": 2786, "pitch": 69, "duration": 10, "velocity": 88}, {"time": 2786, "pitch": 72, "duration": 16, "velocity": 87}, {"time": 2792, "pitch": 60, "duration": 19, "velocity": 83}, {"time": 2798, "pitch": 65, "duration": 13, "velocity": 90}, {"time": 2804, "pitch": 67, "duration": 7, "velocity": 102}, {"time": 2804, "pitch": 72, "duration": 14, "velocity": 108}, {"time": 2810, "pitch": 69, "duration": 9, "velocity": 84}, {"time": 2816, "pitch": 60, "duration": 12, "velocity": 87}, {"time": 2822, "pitch": 69, "duration": 7, "velocity": 114}, {"time": 2822, "pitch": 72, "duration": 7, "velocity": 114}, {"time": 2834, "pitch": 50, "duration": 40, "velocity": 89}, {"time": 2834, "pitch": 65, "duration": 15, "velocity": 85}, {"time": 2834, "pitch": 69, "duration": 15, "velocity": 87}, {"time": 2834, "pitch": 74, "duration": 14, "velocity": 88}, {"time": 2840, "pitch": 57, "duration": 31, "velocity": 74}, {"time": 2846, "pitch": 62, "duration": 12, "velocity": 80}, {"time": 2852, "pitch": 65, "duration": 12, "velocity": 86}, {"time": 2852, "pitch": 69, "duration": 14, "velocity": 90}, {"time": 2852, "pitch": 74, "duration": 12, "velocity": 87}, {"time": 2864, "pitch": 62, "duration": 7, "velocity": 86}, {"time": 2870, "pitch": 65, "duration": 8, "velocity": 96}, {"time": 2870, "pitch": 74, "duration": 17, "velocity": 88}, {"time": 2876, "pitch": 69, "duration": 6, "velocity": 87}, {"time": 2882, "pitch": 43, "duration": 42, "velocity": 87}, {"time": 2882, "pitch": 67, "duration": 7, "velocity": 87}, {"time": 2882, "pitch": 70, "duration": 6, "velocity": 86}, {"time": 2888, "pitch": 50, "duration": 37, "velocity": 79}, {"time": 2894, "pitch": 55, "duration": 12, "velocity": 82}, {"time": 2900, "pitch": 58, "duration": 12, "velocity": 86}, {"time": 2900, "pitch": 62, "duration": 12, "velocity": 91}, {"time": 2900, "pitch": 67, "duration": 12, "velocity": 91}, {"time": 2912, "pitch": 55, "duration": 7, "velocity": 88}, {"time": 2918, "pitch": 58, "duration": 5, "velocity": 97}, {"time": 2918, "pitch": 62, "duration": 11, "velocity": 102}, {"time": 2918, "pitch": 67, "duration": 7, "velocity": 102}, {"time": 2924, "pitch": 55, "duration": 5, "velocity": 88}, {"time": 2930, "pitch": 48, "duration": 39, "velocity": 87}, {"time": 2930, "pitch": 60, "duration": 6, "velocity": 86}, {"time": 2930, "pitch": 64, "duration": 10, "velocity": 92}, {"time": 2930, "pitch": 67, "duration": 12, "velocity": 89}, {"time": 2936, "pitch": 55, "duration": 32, "velocity": 74}, {"time": 2942, "pitch": 60, "duration": 11, "velocity": 85}, {"time": 2948, "pitch": 64, "duration": 15, "velocity": 94}, {"time": 2948, "pitch": 72, "duration": 16, "velocity": 91}, {"time": 2960, "pitch": 60, "duration": 7, "velocity": 89}, {"time": 2966, "pitch": 64, "duration": 4, "velocity": 92}, {"time": 2966, "pitch": 67, "duration": 4, "velocity": 100}, {"time": 2966, "pitch": 72, "duration": 4, "velocity": 83}, {"time": 2978, "pitch": 45, "duration": 44, "velocity": 84}, {"time": 2978, "pitch": 60, "duration": 13, "velocity": 88}, {"time": 2978, "pitch": 64, "duration": 15, "velocity": 96}, {"time": 2978, "pitch": 69, "duration": 12, "velocity": 90}, {"time": 2984, "pitch": 52, "duration": 37, "velocity": 81}, {"time": 2990, "pitch": 57, "duration": 18, "velocity": 85}, {"time": 2996, "pitch": 60, "duration": 3, "velocity": 110}, {"time": 2996, "pitch": 69, "duration": 3, "velocity": 104}, {"time": 3008, "pitch": 60, "duration": 8, "velocity": 108}, {"time": 3008, "pitch": 64, "duration": 9, "velocity": 116}, {"time": 3008, "pitch": 69, "duration": 8, "velocity": 110}, {"time": 3014, "pitch": 57, "duration": 6, "velocity": 113}, {"time": 3020, "pitch": 60, "duration": 5, "velocity": 113}, {"time": 3020, "pitch": 64, "duration": 6, "velocity": 119}, {"time": 3020, "pitch": 69, "duration": 3, "velocity": 110}, {"time": 3026, "pitch": 50, "duration": 43, "velocity": 88}, {"time": 3026, "pitch": 65, "duration": 15, "velocity": 89}, {"time": 3026, "pitch": 69, "duration": 16, "velocity": 91}, {"time": 3032, "pitch": 57, "duration": 42, "velocity": 64}, {"time": 3038, "pitch": 62, "duration": 12, "velocity": 83}, {"time": 3044, "pitch": 65, "duration": 15, "velocity": 87}, {"time": 3044, "pitch": 69, "duration": 15, "velocity": 93}, {"time": 3056, "pitch": 62, "duration": 7, "velocity": 83}, {"time": 3062, "pitch": 65, "duration": 10, "velocity": 88}, {"time": 3062, "pitch": 69, "duration": 10, "velocity": 83}, {"time": 3068, "pitch": 62, "duration": 3, "velocity": 82}, {"time": 3074, "pitch": 50, "duration": 39, "velocity": 84}, {"time": 3074, "pitch": 65, "duration": 15, "velocity": 93}, {"time": 3074, "pitch": 69, "duration": 13, "velocity": 88}, {"time": 3080, "pitch": 57, "duration": 16, "velocity": 77}, {"time": 3086, "pitch": 62, "duration": 7, "velocity": 89}, {"time": 3092, "pitch": 65, "duration": 15, "velocity": 107}, {"time": 3092, "pitch": 69, "duration": 14, "velocity": 107}, {"time": 3104, "pitch": 57, "duration": 8, "velocity": 81}, {"time": 3110, "pitch": 62, "duration": 14, "velocity": 98}, {"time": 3110, "pitch": 69, "duration": 13, "velocity": 89}, {"time": 3116, "pitch": 65, "duration": 7, "velocity": 92}, {"time": 3122, "pitch": 43, "duration": 19, "velocity": 93}, {"time": 3128, "pitch": 50, "duration": 13, "velocity": 87}, {"time": 3134, "pitch": 55, "duration": 12, "velocity": 93}, {"time": 3140, "pitch": 58, "duration": 5, "velocity": 86}, {"time": 3140, "pitch": 62, "duration": 10, "velocity": 86}, {"time": 3140, "pitch": 67, "duration": 1, "velocity": 84}, {"time": 3140, "pitch": 67, "duration": 1, "velocity": 90}, {"time": 3146, "pitch": 48, "duration": 17, "velocity": 88}, {"time": 3152, "pitch": 55, "duration": 10, "velocity": 88}, {"time": 3158, "pitch": 60, "duration": 29, "velocity": 100}, {"time": 3158, "pitch": 67, "duration": 14, "velocity": 96}, {"time": 3164, "pitch": 64, "duration": 8, "velocity": 88}, {"time": 3170, "pitch": 41, "duration": 44, "velocity": 93}, {"time": 3176, "pitch": 48, "duration": 37, "velocity": 83}, {"time": 3182, "pitch": 53, "duration": 17, "velocity": 88}, {"time": 3188, "pitch": 57, "duration": 21, "velocity": 100}, {"time": 3188, "pitch": 60, "duration": 10, "velocity": 102}, {"time": 3188, "pitch": 65, "duration": 10, "velocity": 104}, {"time": 3200, "pitch": 60, "duration": 10, "velocity": 86}, {"time": 3200, "pitch": 65, "duration": 8, "velocity": 81}, {"time": 3206, "pitch": 53, "duration": 8, "velocity": 110}, {"time": 3212, "pitch": 57, "duration": 5, "velocity": 91}, {"time": 3212, "pitch": 60, "duration": 7, "velocity": 96}, {"time": 3212, "pitch": 65, "duration": 7, "velocity": 100}, {"time": 3218, "pitch": 50, "duration": 40, "velocity": 88}, {"time": 3218, "pitch": 65, "duration": 1, "velocity": 88}, {"time": 3218, "pitch": 69, "duration": 16, "velocity": 92}, {"time": 3218, "pitch": 74, "duration": 11, "velocity": 88}, {"time": 3224, "pitch": 57, "duration": 32, "velocity": 77}, {"time": 3230, "pitch": 62, "duration": 13, "velocity": 86}, {"time": 3236, "pitch": 65, "duration": 15, "velocity": 91}, {"time": 3236, "pitch": 69, "duration": 16, "velocity": 98}, {"time": 3248, "pitch": 62, "duration": 7, "velocity": 92}, {"time": 3254, "pitch": 65, "duration": 12, "velocity": 110}, {"time": 3254, "pitch": 69, "duration": 12, "velocity": 113}, {"time": 3266, "pitch": 43, "duration": 38, "velocity": 93}, {"time": 3272, "pitch": 50, "duration": 33, "velocity": 86}, {"time": 3278, "pitch": 55, "duration": 14, "velocity": 88}, {"time": 3284, "pitch": 58, "duration": 15, "velocity": 89}, {"time": 3284, "pitch": 67, "duration": 13, "velocity": 92}, {"time": 3296, "pitch": 55, "duration": 16, "velocity": 96}, {"time": 3302, "pitch": 62, "duration": 10, "velocity": 104}, {"time": 3302, "pitch": 67, "duration": 8, "velocity": 100}, {"time": 3314, "pitch": 48, "duration": 41, "velocity": 84}, {"time": 3314, "pitch": 60, "duration": 7, "velocity": 88}, {"time": 3314, "pitch": 64, "duration": 12, "velocity": 93}, {"time": 3314, "pitch": 67, "duration": 15, "velocity": 89}, {"time": 3320, "pitch": 55, "duration": 35, "velocity": 80}, {"time": 3326, "pitch": 60, "duration": 9, "velocity": 86}, {"time": 3332, "pitch": 64, "duration": 14, "velocity": 98}, {"time": 3332, "pitch": 67, "duration": 14, "velocity": 98}, {"time": 3344, "pitch": 60, "duration": 9, "velocity": 91}, {"time": 3350, "pitch": 64, "duration": 11, "velocity": 107}, {"time": 3350, "pitch": 67, "duration": 9, "velocity": 102}, {"time": 3362, "pitch": 50, "duration": 43, "velocity": 92}, {"time": 3362, "pitch": 62, "duration": 11, "velocity": 89}, {"time": 3362, "pitch": 65, "duration": 17, "velocity": 90}, {"time": 3362, "pitch": 69, "duration": 11, "velocity": 91}, {"time": 3368, "pitch": 57, "duration": 18, "velocity": 76}, {"time": 3374, "pitch": 62, "duration": 3, "velocity": 46}, {"time": 3374, "pitch": 69, "duration": 2, "velocity": 64}, {"time": 3380, "pitch": 62, "duration": 14, "velocity": 93}, {"time": 3380, "pitch": 65, "duration": 14, "velocity": 98}, {"time": 3380, "pitch": 69, "duration": 13, "velocity": 98}, {"time": 3392, "pitch": 57, "duration": 13, "velocity": 91}, {"time": 3398, "pitch": 62, "duration": 6, "velocity": 108}, {"time": 3398, "pitch": 65, "duration": 7, "velocity": 110}, {"time": 3398, "pitch": 69, "duration": 7, "velocity": 108}, {"time": 3410, "pitch": 50, "duration": 40, "velocity": 92}, {"time": 3410, "pitch": 62, "duration": 15, "velocity": 100}, {"time": 3410, "pitch": 65, "duration": 15, "velocity": 108}, {"time": 3410, "pitch": 69, "duration": 14, "velocity": 102}, {"time": 3422, "pitch": 57, "duration": 13, "velocity": 88}, {"time": 3428, "pitch": 62, "duration": 14, "velocity": 104}, {"time": 3428, "pitch": 65, "duration": 15, "velocity": 104}, {"time": 3428, "pitch": 69, "duration": 14, "velocity": 102}, {"time": 3440, "pitch": 57, "duration": 9, "velocity": 91}, {"time": 3446, "pitch": 62, "duration": 18, "velocity": 108}, {"time": 3446, "pitch": 69, "duration": 13, "velocity": 86}, {"time": 3452, "pitch": 65, "duration": 7, "velocity": 108}, {"time": 3458, "pitch": 41, "duration": 44, "velocity": 104}, {"time": 3464, "pitch": 48, "duration": 37, "velocity": 87}, {"time": 3470, "pitch": 53, "duration": 15, "velocity": 107}, {"time": 3476, "pitch": 57, "duration": 12, "velocity": 104}, {"time": 3476, "pitch": 65, "duration": 14, "velocity": 102}, {"time": 3482, "pitch": 60, "duration": 10, "velocity": 81}, {"time": 3488, "pitch": 53, "duration": 9, "velocity": 100}, {"time": 3494, "pitch": 57, "duration": 7, "velocity": 113}, {"time": 3494, "pitch": 65, "duration": 14, "velocity": 93}, {"time": 3500, "pitch": 60, "duration": 7, "velocity": 91}, {"time": 3506, "pitch": 43, "duration": 18, "velocity": 94}, {"time": 3512, "pitch": 50, "duration": 13, "velocity": 88}, {"time": 3518, "pitch": 55, "duration": 12, "velocity": 114}, {"time": 3524, "pitch": 58, "duration": 7, "velocity": 109}, {"time": 3524, "pitch": 67, "duration": 9, "velocity": 89}, {"time": 3530, "pitch": 48, "duration": 16, "velocity": 92}, {"time": 3536, "pitch": 55, "duration": 9, "velocity": 90}, {"time": 3542, "pitch": 60, "duration": 18, "velocity": 113}, {"time": 3542, "pitch": 67, "duration": 14, "velocity": 94}, {"time": 3548, "pitch": 64, "duration": 7, "velocity": 98}, {"time": 3554, "pitch": 41, "duration": 44, "velocity": 94}, {"time": 3560, "pitch": 48, "duration": 28, "velocity": 78}, {"time": 3566, "pitch": 53, "duration": 19, "velocity": 107}, {"time": 3572, "pitch": 57, "duration": 8, "velocity": 110}, {"time": 3572, "pitch": 65, "duration": 9, "velocity": 93}, {"time": 3578, "pitch": 60, "duration": 2, "velocity": 78}, {"time": 3584, "pitch": 60, "duration": 9, "velocity": 102}, {"time": 3584, "pitch": 65, "duration": 8, "velocity": 98}, {"time": 3590, "pitch": 48, "duration": 7, "velocity": 38}, {"time": 3590, "pitch": 53, "duration": 6, "velocity": 113}, {"time": 3596, "pitch": 60, "duration": 5, "velocity": 102}, {"time": 3596, "pitch": 65, "duration": 6, "velocity": 96}, {"time": 3602, "pitch": 50, "duration": 14, "velocity": 89}, {"time": 3602, "pitch": 62, "duration": 8, "velocity": 86}, {"time": 3602, "pitch": 65, "duration": 8, "velocity": 89}, {"time": 3602, "pitch": 69, "duration": 7, "velocity": 88}, {"time": 3608, "pitch": 57, "duration": 8, "velocity": 86}, {"time": 3614, "pitch": 62, "duration": 10, "velocity": 100}, {"time": 3614, "pitch": 65, "duration": 5, "velocity": 110}, {"time": 3614, "pitch": 69, "duration": 6, "velocity": 98}, {"time": 3620, "pitch": 50, "duration": 1, "velocity": 77}, {"time": 3626, "pitch": 43, "duration": 18, "velocity": 91}, {"time": 3626, "pitch": 58, "duration": 5, "velocity": 90}, {"time": 3626, "pitch": 62, "duration": 8, "velocity": 91}, {"time": 3626, "pitch": 67, "duration": 7, "velocity": 92}, {"time": 3632, "pitch": 50, "duration": 13, "velocity": 88}, {"time": 3638, "pitch": 58, "duration": 5, "velocity": 100}, {"time": 3638, "pitch": 62, "duration": 9, "velocity": 110}, {"time": 3638, "pitch": 67, "duration": 5, "velocity": 108}, {"time": 3644, "pitch": 55, "duration": 6, "velocity": 89}, {"time": 3650, "pitch": 48, "duration": 19, "velocity": 87}, {"time": 3650, "pitch": 60, "duration": 7, "velocity": 90}, {"time": 3650, "pitch": 64, "duration": 7, "velocity": 102}, {"time": 3650, "pitch": 67, "duration": 7, "velocity": 94}, {"time": 3656, "pitch": 55, "duration": 7, "velocity": 87}, {"time": 3662, "pitch": 60, "duration": 6, "velocity": 100}, {"time": 3662, "pitch": 64, "duration": 10, "velocity": 110}, {"time": 3662, "pitch": 67, "duration": 8, "velocity": 108}, {"time": 3668, "pitch": 55, "duration": 7, "velocity": 88}, {"time": 3674, "pitch": 50, "duration": 15, "velocity": 89}, {"time": 3674, "pitch": 62, "duration": 8, "velocity": 89}, {"time": 3674, "pitch": 65, "duration": 8, "velocity": 98}, {"time": 3674, "pitch": 69, "duration": 7, "velocity": 98}, {"time": 3680, "pitch": 57, "duration": 7, "velocity": 87}, {"time": 3686, "pitch": 62, "duration": 6, "velocity": 104}, {"time": 3686, "pitch": 65, "duration": 7, "velocity": 110}, {"time": 3686, "pitch": 69, "duration": 6, "velocity": 107}, {"time": 3692, "pitch": 50, "duration": 3, "velocity": 102}, {"time": 3698, "pitch": 46, "duration": 18, "velocity": 95}, {"time": 3698, "pitch": 62, "duration": 15, "velocity": 104}, {"time": 3698, "pitch": 70, "duration": 15, "velocity": 106}, {"time": 3704, "pitch": 53, "duration": 13, "velocity": 85}, {"time": 3710, "pitch": 58, "duration": 7, "velocity": 93}, {"time": 3716, "pitch": 62, "duration": 8, "velocity": 92}, {"time": 3716, "pitch": 70, "duration": 11, "velocity": 106}, {"time": 3722, "pitch": 48, "duration": 20, "velocity": 94}, {"time": 3728, "pitch": 55, "duration": 19, "velocity": 83}, {"time": 3734, "pitch": 64, "duration": 8, "velocity": 91}, {"time": 3734, "pitch": 67, "duration": 8, "velocity": 100}, {"time": 3734, "pitch": 72, "duration": 7, "velocity": 90}, {"time": 3740, "pitch": 60, "duration": 5, "velocity": 85}, {"time": 3746, "pitch": 48, "duration": 38, "velocity": 93}, {"time": 3746, "pitch": 64, "duration": 2, "velocity": 85}, {"time": 3746, "pitch": 67, "duration": 2, "velocity": 87}, {"time": 3746, "pitch": 72, "duration": 2, "velocity": 84}, {"time": 3752, "pitch": 55, "duration": 32, "velocity": 85}, {"time": 3758, "pitch": 60, "duration": 7, "velocity": 93}, {"time": 3764, "pitch": 64, "duration": 6, "velocity": 102}, {"time": 3764, "pitch": 67, "duration": 6, "velocity": 110}, {"time": 3764, "pitch": 72, "duration": 6, "velocity": 100}, {"time": 3776, "pitch": 60, "duration": 7, "velocity": 88}, {"time": 3782, "pitch": 64, "duration": 6, "velocity": 107}, {"time": 3782, "pitch": 67, "duration": 6, "velocity": 113}, {"time": 3782, "pitch": 72, "duration": 6, "velocity": 100}, {"time": 3794, "pitch": 50, "duration": 44, "velocity": 100}, {"time": 3794, "pitch": 62, "duration": 11, "velocity": 93}, {"time": 3794, "pitch": 65, "duration": 15, "velocity": 96}, {"time": 3794, "pitch": 69, "duration": 13, "velocity": 91}, {"time": 3800, "pitch": 57, "duration": 18, "velocity": 80}, {"time": 3806, "pitch": 62, "duration": 10, "velocity": 96}, {"time": 3812, "pitch": 65, "duration": 15, "velocity": 107}, {"time": 3812, "pitch": 69, "duration": 14, "velocity": 104}, {"time": 3824, "pitch": 57, "duration": 8, "velocity": 87}, {"time": 3830, "pitch": 65, "duration": 8, "velocity": 113}, {"time": 3830, "pitch": 69, "duration": 8, "velocity": 108}, {"time": 3842, "pitch": 41, "duration": 41, "velocity": 92}, {"time": 3842, "pitch": 60, "duration": 13, "velocity": 88}, {"time": 3842, "pitch": 65, "duration": 14, "velocity": 100}, {"time": 3842, "pitch": 69, "duration": 12, "velocity": 90}, {"time": 3848, "pitch": 48, "duration": 37, "velocity": 75}, {"time": 3854, "pitch": 53, "duration": 10, "velocity": 86}, {"time": 3860, "pitch": 60, "duration": 12, "velocity": 90}, {"time": 3860, "pitch": 65, "duration": 12, "velocity": 102}, {"time": 3860, "pitch": 69, "duration": 12, "velocity": 92}, {"time": 3872, "pitch": 53, "duration": 6, "velocity": 86}, {"time": 3878, "pitch": 60, "duration": 7, "velocity": 102}, {"time": 3878, "pitch": 69, "duration": 5, "velocity": 100}, {"time": 3884, "pitch": 53, "duration": 6, "velocity": 91}, {"time": 3890, "pitch": 43, "duration": 19, "velocity": 91}, {"time": 3890, "pitch": 58, "duration": 10, "velocity": 93}, {"time": 3890, "pitch": 67, "duration": 7, "velocity": 110}, {"time": 3896, "pitch": 50, "duration": 13, "velocity": 87}, {"time": 3902, "pitch": 58, "duration": 6, "velocity": 100}, {"time": 3902, "pitch": 67, "duration": 7, "velocity": 113}, {"time": 3908, "pitch": 55, "duration": 6, "velocity": 89}, {"time": 3914, "pitch": 48, "duration": 15, "velocity": 87}, {"time": 3914, "pitch": 60, "duration": 7, "velocity": 88}, {"time": 3914, "pitch": 64, "duration": 7, "velocity": 98}, {"time": 3914, "pitch": 67, "duration": 7, "velocity": 93}, {"time": 3920, "pitch": 55, "duration": 8, "velocity": 87}, {"time": 3926, "pitch": 60, "duration": 6, "velocity": 110}, {"time": 3926, "pitch": 67, "duration": 7, "velocity": 110}, {"time": 3938, "pitch": 41, "duration": 41, "velocity": 96}, {"time": 3938, "pitch": 60, "duration": 15, "velocity": 87}, {"time": 3938, "pitch": 65, "duration": 15, "velocity": 94}, {"time": 3938, "pitch": 69, "duration": 14, "velocity": 93}, {"time": 3944, "pitch": 48, "duration": 36, "velocity": 81}, {"time": 3950, "pitch": 53, "duration": 10, "velocity": 87}, {"time": 3956, "pitch": 60, "duration": 13, "velocity": 92}, {"time": 3956, "pitch": 65, "duration": 13, "velocity": 104}, {"time": 3956, "pitch": 69, "duration": 12, "velocity": 93}, {"time": 3968, "pitch": 53, "duration": 7, "velocity": 94}, {"time": 3974, "pitch": 60, "duration": 7, "velocity": 104}, {"time": 3974, "pitch": 65, "duration": 9, "velocity": 110}, {"time": 3974, "pitch": 69, "duration": 8, "velocity": 100}, {"time": 3980, "pitch": 53, "duration": 4, "velocity": 89}, {"time": 3986, "pitch": 50, "duration": 15, "velocity": 86}, {"time": 3986, "pitch": 62, "duration": 8, "velocity": 88}, {"time": 3986, "pitch": 65, "duration": 8, "velocity": 94}, {"time": 3986, "pitch": 69, "duration": 8, "velocity": 91}, {"time": 3992, "pitch": 57, "duration": 9, "velocity": 86}, {"time": 3998, "pitch": 62, "duration": 11, "velocity": 96}, {"time": 3998, "pitch": 65, "duration": 7, "velocity": 104}, {"time": 3998, "pitch": 69, "duration": 7, "velocity": 91}, {"time": 4010, "pitch": 43, "duration": 16, "velocity": 88}, {"time": 4010, "pitch": 58, "duration": 7, "velocity": 91}, {"time": 4010, "pitch": 62, "duration": 8, "velocity": 89}, {"time": 4010, "pitch": 67, "duration": 6, "velocity": 96}, {"time": 4016, "pitch": 50, "duration": 9, "velocity": 85}, {"time": 4022, "pitch": 58, "duration": 6, "velocity": 97}, {"time": 4022, "pitch": 62, "duration": 7, "velocity": 113}, {"time": 4022, "pitch": 67, "duration": 6, "velocity": 113}, {"time": 4028, "pitch": 43, "duration": 3, "velocity": 89}, {"time": 4034, "pitch": 48, "duration": 18, "velocity": 88}, {"time": 4034, "pitch": 64, "duration": 9, "velocity": 88}, {"time": 4034, "pitch": 67, "duration": 9, "velocity": 91}, {"time": 4034, "pitch": 72, "duration": 7, "velocity": 87}, {"time": 4040, "pitch": 55, "duration": 13, "velocity": 80}, {"time": 4046, "pitch": 64, "duration": 7, "velocity": 89}, {"time": 4046, "pitch": 67, "duration": 10, "velocity": 100}, {"time": 4046, "pitch": 72, "duration": 7, "velocity": 93}, {"time": 4052, "pitch": 60, "duration": 6, "velocity": 86}, {"time": 4058, "pitch": 50, "duration": 14, "velocity": 91}, {"time": 4058, "pitch": 62, "duration": 7, "velocity": 88}, {"time": 4058, "pitch": 65, "duration": 8, "velocity": 98}, {"time": 4058, "pitch": 69, "duration": 7, "velocity": 89}, {"time": 4064, "pitch": 57, "duration": 8, "velocity": 84}, {"time": 4070, "pitch": 62, "duration": 7, "velocity": 108}, {"time": 4070, "pitch": 65, "duration": 10, "velocity": 114}, {"time": 4070, "pitch": 69, "duration": 7, "velocity": 110}, {"time": 4076, "pitch": 48, "duration": 3, "velocity": 100}, {"time": 4082, "pitch": 46, "duration": 18, "velocity": 95}, {"time": 4082, "pitch": 62, "duration": 8, "velocity": 88}, {"time": 4082, "pitch": 65, "duration": 8, "velocity": 96}, {"time": 4082, "pitch": 70, "duration": 8, "velocity": 97}, {"time": 4088, "pitch": 53, "duration": 12, "velocity": 84}, {"time": 4094, "pitch": 62, "duration": 6, "velocity": 98}, {"time": 4094, "pitch": 65, "duration": 7, "velocity": 110}, {"time": 4094, "pitch": 70, "duration": 7, "velocity": 100}, {"time": 4100, "pitch": 58, "duration": 3, "velocity": 89}, {"time": 4106, "pitch": 48, "duration": 14, "velocity": 88}, {"time": 4106, "pitch": 64, "duration": 8, "velocity": 88}, {"time": 4106, "pitch": 67, "duration": 8, "velocity": 93}, {"time": 4106, "pitch": 72, "duration": 7, "velocity": 90}, {"time": 4112, "pitch": 55, "duration": 8, "velocity": 86}, {"time": 4118, "pitch": 64, "duration": 7, "velocity": 100}, {"time": 4118, "pitch": 67, "duration": 7, "velocity": 102}, {"time": 4118, "pitch": 72, "duration": 8, "velocity": 91}, {"time": 4124, "pitch": 48, "duration": 3, "velocity": 91}, {"time": 4130, "pitch": 50, "duration": 38, "velocity": 89}, {"time": 4130, "pitch": 62, "duration": 5, "velocity": 89}, {"time": 4130, "pitch": 65, "duration": 15, "velocity": 94}, {"time": 4130, "pitch": 69, "duration": 14, "velocity": 91}, {"time": 4136, "pitch": 57, "duration": 19, "velocity": 84}, {"time": 4142, "pitch": 62, "duration": 6, "velocity": 113}, {"time": 4148, "pitch": 64, "duration": 6, "velocity": 104}, {"time": 4148, "pitch": 69, "duration": 5, "velocity": 100}, {"time": 4154, "pitch": 65, "duration": 6, "velocity": 98}, {"time": 4154, "pitch": 69, "duration": 7, "velocity": 92}, {"time": 4160, "pitch": 57, "duration": 8, "velocity": 88}, {"time": 4166, "pitch": 65, "duration": 6, "velocity": 96}, {"time": 4166, "pitch": 69, "duration": 7, "velocity": 108}, {"time": 4166, "pitch": 74, "duration": 6, "velocity": 102}, {"time": 4172, "pitch": 50, "duration": 7, "velocity": 102}, {"time": 4178, "pitch": 50, "duration": 1, "velocity": 90}, {"time": 4184, "pitch": 57, "duration": 35, "velocity": 75}, {"time": 4190, "pitch": 62, "duration": 12, "velocity": 87}, {"time": 4196, "pitch": 65, "duration": 14, "velocity": 89}, {"time": 4196, "pitch": 69, "duration": 13, "velocity": 88}, {"time": 4208, "pitch": 62, "duration": 14, "velocity": 88}, {"time": 4214, "pitch": 65, "duration": 12, "velocity": 94}, {"time": 4220, "pitch": 69, "duration": 8, "velocity": 88}, {"time": 4226, "pitch": 53, "duration": 39, "velocity": 85}, {"time": 4232, "pitch": 60, "duration": 30, "velocity": 80}, {"time": 4238, "pitch": 65, "duration": 13, "velocity": 88}, {"time": 4244, "pitch": 67, "duration": 19, "velocity": 88}, {"time": 4244, "pitch": 72, "duration": 12, "velocity": 88}, {"time": 4256, "pitch": 65, "duration": 5, "velocity": 89}, {"time": 4262, "pitch": 69, "duration": 13, "velocity": 107}, {"time": 4274, "pitch": 43, "duration": 18, "velocity": 86}, {"time": 4274, "pitch": 62, "duration": 11, "velocity": 78}, {"time": 4274, "pitch": 67, "duration": 7, "velocity": 88}, {"time": 4280, "pitch": 50, "duration": 13, "velocity": 80}, {"time": 4286, "pitch": 55, "duration": 11, "velocity": 87}, {"time": 4292, "pitch": 58, "duration": 8, "velocity": 86}, {"time": 4292, "pitch": 67, "duration": 8, "velocity": 90}, {"time": 4298, "pitch": 48, "duration": 19, "velocity": 87}, {"time": 4304, "pitch": 55, "duration": 12, "velocity": 82}, {"time": 4310, "pitch": 60, "duration": 5, "velocity": 91}, {"time": 4316, "pitch": 64, "duration": 9, "velocity": 91}, {"time": 4316, "pitch": 67, "duration": 8, "velocity": 88}, {"time": 4322, "pitch": 41, "duration": 38, "velocity": 92}, {"time": 4328, "pitch": 48, "duration": 33, "velocity": 83}, {"time": 4334, "pitch": 53, "duration": 15, "velocity": 91}, {"time": 4340, "pitch": 57, "duration": 7, "velocity": 87}, {"time": 4340, "pitch": 65, "duration": 14, "velocity": 88}, {"time": 4346, "pitch": 60, "duration": 9, "velocity": 84}, {"time": 4352, "pitch": 53, "duration": 15, "velocity": 87}, {"time": 4358, "pitch": 60, "duration": 12, "velocity": 89}, {"time": 4358, "pitch": 65, "duration": 13, "velocity": 88}, {"time": 4370, "pitch": 50, "duration": 20, "velocity": 88}, {"time": 4376, "pitch": 57, "duration": 12, "velocity": 75}, {"time": 4382, "pitch": 62, "duration": 5, "velocity": 88}, {"time": 4388, "pitch": 65, "duration": 7, "velocity": 87}, {"time": 4388, "pitch": 74, "duration": 6, "velocity": 87}, {"time": 4394, "pitch": 43, "duration": 19, "velocity": 89}, {"time": 4400, "pitch": 50, "duration": 13, "velocity": 85}, {"time": 4406, "pitch": 55, "duration": 11, "velocity": 89}, {"time": 4412, "pitch": 58, "duration": 6, "velocity": 85}, {"time": 4412, "pitch": 67, "duration": 6, "velocity": 87}, {"time": 4418, "pitch": 45, "duration": 19, "velocity": 89}, {"time": 4424, "pitch": 52, "duration": 13, "velocity": 81}, {"time": 4430, "pitch": 57, "duration": 12, "velocity": 88}, {"time": 4436, "pitch": 60, "duration": 7, "velocity": 91}, {"time": 4436, "pitch": 69, "duration": 10, "velocity": 88}, {"time": 4442, "pitch": 50, "duration": 18, "velocity": 88}, {"time": 4448, "pitch": 57, "duration": 12, "velocity": 87}, {"time": 4454, "pitch": 62, "duration": 14, "velocity": 110}, {"time": 4454, "pitch": 69, "duration": 2, "velocity": 87}, {"time": 4460, "pitch": 64, "duration": 18, "velocity": 94}, {"time": 4466, "pitch": 46, "duration": 42, "velocity": 86}, {"time": 4472, "pitch": 53, "duration": 35, "velocity": 64}, {"time": 4478, "pitch": 58, "duration": 15, "velocity": 90}, {"time": 4484, "pitch": 62, "duration": 6, "velocity": 88}, {"time": 4490, "pitch": 65, "duration": 9, "velocity": 110}, {"time": 4496, "pitch": 58, "duration": 12, "velocity": 95}, {"time": 4502, "pitch": 62, "duration": 13, "velocity": 88}, {"time": 4508, "pitch": 65, "duration": 11, "velocity": 91}, {"time": 4514, "pitch": 48, "duration": 39, "velocity": 94}, {"time": 4520, "pitch": 55, "duration": 32, "velocity": 87}, {"time": 4526, "pitch": 64, "duration": 7, "velocity": 98}, {"time": 4526, "pitch": 67, "duration": 6, "velocity": 108}, {"time": 4532, "pitch": 60, "duration": 8, "velocity": 107}, {"time": 4538, "pitch": 64, "duration": 7, "velocity": 113}, {"time": 4538, "pitch": 72, "duration": 7, "velocity": 110}, {"time": 4544, "pitch": 60, "duration": 7, "velocity": 110}, {"time": 4550, "pitch": 67, "duration": 10, "velocity": 116}, {"time": 4550, "pitch": 72, "duration": 12, "velocity": 107}, {"time": 4556, "pitch": 48, "duration": 7, "velocity": 110}, {"time": 4562, "pitch": 50, "duration": 27, "velocity": 107}, {"time": 4562, "pitch": 62, "duration": 16, "velocity": 89}, {"time": 4562, "pitch": 65, "duration": 16, "velocity": 102}, {"time": 4562, "pitch": 69, "duration": 12, "velocity": 94}, {"time": 4574, "pitch": 57, "duration": 13, "velocity": 91}, {"time": 4580, "pitch": 62, "duration": 13, "velocity": 108}, {"time": 4580, "pitch": 65, "duration": 14, "velocity": 116}, {"time": 4580, "pitch": 69, "duration": 13, "velocity": 110}, {"time": 4592, "pitch": 50, "duration": 9, "velocity": 108}, {"time": 4598, "pitch": 62, "duration": 14, "velocity": 114}, {"time": 4598, "pitch": 65, "duration": 15, "velocity": 116}, {"time": 4598, "pitch": 69, "duration": 15, "velocity": 107}, {"time": 4604, "pitch": 50, "duration": 3, "velocity": 94}, {"time": 4610, "pitch": 41, "duration": 14, "velocity": 104}, {"time": 4610, "pitch": 53, "duration": 14, "velocity": 107}, {"time": 4622, "pitch": 60, "duration": 20, "velocity": 108}, {"time": 4622, "pitch": 65, "duration": 20, "velocity": 116}, {"time": 4622, "pitch": 69, "duration": 19, "velocity": 108}, {"time": 4628, "pitch": 41, "duration": 9, "velocity": 104}, {"time": 4628, "pitch": 53, "duration": 2, "velocity": 108}, {"time": 4640, "pitch": 41, "duration": 8, "velocity": 104}, {"time": 4640, "pitch": 53, "duration": 8, "velocity": 98}, {"time": 4646, "pitch": 60, "duration": 9, "velocity": 107}, {"time": 4646, "pitch": 65, "duration": 9, "velocity": 114}, {"time": 4652, "pitch": 41, "duration": 4, "velocity": 81}, {"time": 4652, "pitch": 53, "duration": 5, "velocity": 98}, {"time": 4658, "pitch": 43, "duration": 18, "velocity": 91}, {"time": 4658, "pitch": 58, "duration": 14, "velocity": 89}, {"time": 4658, "pitch": 62, "duration": 15, "velocity": 98}, {"time": 4658, "pitch": 67, "duration": 12, "velocity": 98}, {"time": 4664, "pitch": 50, "duration": 13, "velocity": 85}, {"time": 4670, "pitch": 55, "duration": 12, "velocity": 87}, {"time": 4676, "pitch": 58, "duration": 6, "velocity": 89}, {"time": 4676, "pitch": 62, "duration": 14, "velocity": 98}, {"time": 4676, "pitch": 67, "duration": 8, "velocity": 104}, {"time": 4682, "pitch": 48, "duration": 13, "velocity": 94}, {"time": 4688, "pitch": 55, "duration": 8, "velocity": 87}, {"time": 4694, "pitch": 60, "duration": 15, "velocity": 96}, {"time": 4694, "pitch": 64, "duration": 14, "velocity": 107}, {"time": 4694, "pitch": 67, "duration": 13, "velocity": 88}, {"time": 4700, "pitch": 48, "duration": 2, "velocity": 96}, {"time": 4706, "pitch": 41, "duration": 41, "velocity": 107}, {"time": 4712, "pitch": 53, "duration": 7, "velocity": 92}, {"time": 4718, "pitch": 57, "duration": 15, "velocity": 104}, {"time": 4718, "pitch": 60, "duration": 15, "velocity": 110}, {"time": 4718, "pitch": 65, "duration": 13, "velocity": 100}, {"time": 4724, "pitch": 53, "duration": 13, "velocity": 86}, {"time": 4736, "pitch": 57, "duration": 8, "velocity": 96}, {"time": 4736, "pitch": 60, "duration": 9, "velocity": 98}, {"time": 4736, "pitch": 65, "duration": 8, "velocity": 96}, {"time": 4742, "pitch": 53, "duration": 9, "velocity": 113}, {"time": 4748, "pitch": 57, "duration": 5, "velocity": 91}, {"time": 4748, "pitch": 60, "duration": 7, "velocity": 90}, {"time": 4748, "pitch": 65, "duration": 7, "velocity": 89}, {"time": 4754, "pitch": 50, "duration": 14, "velocity": 100}, {"time": 4760, "pitch": 57, "duration": 8, "velocity": 88}, {"time": 4766, "pitch": 62, "duration": 15, "velocity": 108}, {"time": 4766, "pitch": 65, "duration": 11, "velocity": 113}, {"time": 4766, "pitch": 69, "duration": 12, "velocity": 104}, {"time": 4772, "pitch": 50, "duration": 3, "velocity": 104}, {"time": 4778, "pitch": 43, "duration": 18, "velocity": 104}, {"time": 4784, "pitch": 50, "duration": 13, "velocity": 88}, {"time": 4790, "pitch": 58, "duration": 6, "velocity": 97}, {"time": 4790, "pitch": 62, "duration": 6, "velocity": 98}, {"time": 4790, "pitch": 67, "duration": 5, "velocity": 102}, {"time": 4796, "pitch": 55, "duration": 6, "velocity": 96}, {"time": 4802, "pitch": 45, "duration": 19, "velocity": 94}, {"time": 4802, "pitch": 60, "duration": 9, "velocity": 94}, {"time": 4802, "pitch": 64, "duration": 9, "velocity": 107}, {"time": 4802, "pitch": 69, "duration": 8, "velocity": 102}, {"time": 4808, "pitch": 52, "duration": 12, "velocity": 84}, {"time": 4814, "pitch": 60, "duration": 8, "velocity": 108}, {"time": 4814, "pitch": 64, "duration": 10, "velocity": 119}, {"time": 4814, "pitch": 69, "duration": 8, "velocity": 108}, {"time": 4820, "pitch": 57, "duration": 6, "velocity": 94}, {"time": 4826, "pitch": 50, "duration": 15, "velocity": 98}, {"time": 4826, "pitch": 62, "duration": 8, "velocity": 102}, {"time": 4826, "pitch": 65, "duration": 8, "velocity": 110}, {"time": 4826, "pitch": 69, "duration": 8, "velocity": 96}, {"time": 4832, "pitch": 57, "duration": 8, "velocity": 87}, {"time": 4838, "pitch": 62, "duration": 7, "velocity": 113}, {"time": 4838, "pitch": 65, "duration": 9, "velocity": 117}, {"time": 4838, "pitch": 69, "duration": 7, "velocity": 110}, {"time": 4844, "pitch": 48, "duration": 2, "velocity": 100}, {"time": 4850, "pitch": 46, "duration": 18, "velocity": 91}, {"time": 4850, "pitch": 62, "duration": 8, "velocity": 89}, {"time": 4850, "pitch": 65, "duration": 8, "velocity": 100}, {"time": 4850, "pitch": 70, "duration": 8, "velocity": 90}, {"time": 4856, "pitch": 53, "duration": 12, "velocity": 82}, {"time": 4862, "pitch": 62, "duration": 7, "velocity": 104}, {"time": 4862, "pitch": 65, "duration": 10, "velocity": 113}, {"time": 4862, "pitch": 70, "duration": 7, "velocity": 95}, {"time": 4868, "pitch": 58, "duration": 4, "velocity": 93}, {"time": 4874, "pitch": 48, "duration": 16, "velocity": 91}, {"time": 4874, "pitch": 64, "duration": 8, "velocity": 91}, {"time": 4874, "pitch": 67, "duration": 8, "velocity": 96}, {"time": 4874, "pitch": 72, "duration": 8, "velocity": 91}, {"time": 4880, "pitch": 55, "duration": 9, "velocity": 88}, {"time": 4886, "pitch": 64, "duration": 7, "velocity": 96}, {"time": 4886, "pitch": 67, "duration": 11, "velocity": 94}, {"time": 4886, "pitch": 72, "duration": 7, "velocity": 96}, {"time": 4892, "pitch": 48, "duration": 3, "velocity": 91}, {"time": 4898, "pitch": 50, "duration": 50, "velocity": 88}, {"time": 4898, "pitch": 62, "duration": 5, "velocity": 89}, {"time": 4898, "pitch": 65, "duration": 10, "velocity": 98}, {"time": 4898, "pitch": 69, "duration": 10, "velocity": 88}, {"time": 4904, "pitch": 57, "duration": 43, "velocity": 80}, {"time": 4910, "pitch": 62, "duration": 10, "velocity": 107}, {"time": 4916, "pitch": 65, "duration": 12, "velocity": 107}, {"time": 4916, "pitch": 69, "duration": 13, "velocity": 116}, {"time": 4916, "pitch": 74, "duration": 13, "velocity": 107}, {"time": 4928, "pitch": 62, "duration": 7, "velocity": 104}, {"time": 4934, "pitch": 65, "duration": 8, "velocity": 113}, {"time": 4934, "pitch": 74, "duration": 9, "velocity": 107}, {"time": 4940, "pitch": 62, "duration": 6, "velocity": 84}, {"time": 4946, "pitch": 46, "duration": 18, "velocity": 87}, {"time": 4946, "pitch": 62, "duration": 8, "velocity": 96}, {"time": 4946, "pitch": 65, "duration": 9, "velocity": 107}, {"time": 4946, "pitch": 70, "duration": 8, "velocity": 90}, {"time": 4952, "pitch": 53, "duration": 17, "velocity": 77}, {"time": 4958, "pitch": 58, "duration": 6, "velocity": 86}, {"time": 4958, "pitch": 62, "duration": 7, "velocity": 93}, {"time": 4958, "pitch": 65, "duration": 10, "velocity": 100}, {"time": 4958, "pitch": 70, "duration": 8, "velocity": 93}, {"time": 4970, "pitch": 48, "duration": 66, "velocity": 87}, {"time": 4970, "pitch": 64, "duration": 9, "velocity": 88}, {"time": 4970, "pitch": 67, "duration": 9, "velocity": 91}, {"time": 4970, "pitch": 72, "duration": 9, "velocity": 89}, {"time": 4976, "pitch": 55, "duration": 59, "velocity": 82}, {"time": 4982, "pitch": 64, "duration": 8, "velocity": 88}, {"time": 4982, "pitch": 67, "duration": 9, "velocity": 88}, {"time": 4982, "pitch": 72, "duration": 8, "velocity": 88}, {"time": 4988, "pitch": 60, "duration": 47, "velocity": 84}, {"time": 4994, "pitch": 64, "duration": 40, "velocity": 89}, {"time": 4994, "pitch": 67, "duration": 40, "velocity": 89}, {"time": 4994, "pitch": 72, "duration": 40, "velocity": 89}, {"time": 5042, "pitch": 50, "duration": 39, "velocity": 100}, {"time": 5042, "pitch": 62, "duration": 6, "velocity": 91}, {"time": 5042, "pitch": 65, "duration": 15, "velocity": 96}, {"time": 5042, "pitch": 69, "duration": 15, "velocity": 92}, {"time": 5048, "pitch": 57, "duration": 18, "velocity": 86}, {"time": 5054, "pitch": 62, "duration": 8, "velocity": 88}, {"time": 5060, "pitch": 65, "duration": 15, "velocity": 107}, {"time": 5060, "pitch": 69, "duration": 14, "velocity": 102}, {"time": 5072, "pitch": 57, "duration": 10, "velocity": 86}, {"time": 5078, "pitch": 65, "duration": 10, "velocity": 108}, {"time": 5078, "pitch": 69, "duration": 9, "velocity": 98}, {"time": 5084, "pitch": 50, "duration": 3, "velocity": 90}, {"time": 5090, "pitch": 50, "duration": 42, "velocity": 108}, {"time": 5096, "pitch": 57, "duration": 16, "velocity": 86}, {"time": 5102, "pitch": 62, "duration": 5, "velocity": 102}, {"time": 5102, "pitch": 69, "duration": 5, "velocity": 92}, {"time": 5108, "pitch": 62, "duration": 8, "velocity": 93}, {"time": 5108, "pitch": 65, "duration": 13, "velocity": 107}, {"time": 5108, "pitch": 69, "duration": 12, "velocity": 88}, {"time": 5120, "pitch": 57, "duration": 8, "velocity": 87}, {"time": 5126, "pitch": 62, "duration": 9, "velocity": 113}, {"time": 5126, "pitch": 69, "duration": 14, "velocity": 110}, {"time": 5132, "pitch": 57, "duration": 8, "velocity": 86}, {"time": 5138, "pitch": 50, "duration": 71, "velocity": 91}, {"time": 5144, "pitch": 57, "duration": 64, "velocity": 88}, {"time": 5150, "pitch": 62, "duration": 15, "velocity": 83}, {"time": 5156, "pitch": 69, "duration": 8, "velocity": 89}, {"time": 5164, "pitch": 65, "duration": 8, "velocity": 87}, {"time": 5171, "pitch": 62, "duration": 1, "velocity": 77}, {"time": 5179, "pitch": 74, "duration": 29, "velocity": 76}, {"time": 5189, "pitch": 81, "duration": 14, "velocity": 38}, {"time": 5197, "pitch": 77, "duration": 12, "velocity": 73}], "annotations": [{"time": 962, "annotation": {"number": 64, "value": 127}, "group": "control_change"}, {"time": 1063, "annotation": {"number": 64, "value": 38}, "group": "control_change"}, {"time": 1063, "annotation": {"number": 64, "value": 0}, "group": "control_change"}, {"time": 1394, "annotation": {"number": 64, "value": 127}, "group": "control_change"}, {"time": 1438, "annotation": {"number": 64, "value": 0}, "group": "control_change"}, {"time": 1441, "annotation": {"number": 64, "value": 127}, "group": "control_change"}, {"time": 1442, "annotation": {"number": 64, "value": 127}, "group": "control_change"}, {"time": 1485, "annotation": {"number": 64, "value": 38}, "group": "control_change"}, {"time": 1485, "annotation": {"number": 64, "value": 0}, "group": "control_change"}, {"time": 1490, "annotation": {"number": 64, "value": 127}, "group": "control_change"}, {"time": 1536, "annotation": {"number": 64, "value": 0}, "group": "control_change"}, {"time": 1538, "annotation": {"number": 64, "value": 127}, "group": "control_change"}, {"time": 1584, "annotation": {"number": 64, "value": 38}, "group": "control_change"}, {"time": 1584, "annotation": {"number": 64, "value": 0}, "group": "control_change"}, {"time": 1587, "annotation": {"number": 64, "value": 127}, "group": "control_change"}, {"time": 1631, "annotation": {"number": 64, "value": 38}, "group": "control_change"}, {"time": 1632, "annotation": {"number": 64, "value": 0}, "group": "control_change"}, {"time": 1633, "annotation": {"number": 64, "value": 127}, "group": "control_change"}, {"time": 1680, "annotation": {"number": 64, "value": 38}, "group": "control_change"}, {"time": 1680, "annotation": {"number": 64, "value": 0}, "group": "control_change"}, {"time": 1681, "annotation": {"number": 64, "value": 127}, "group": "control_change"}, {"time": 1682, "annotation": {"number": 64, "value": 127}, "group": "control_change"}, {"time": 1720, "annotation": {"number": 64, "value": 74}, "group": "control_change"}, {"time": 1720, "annotation": {"number": 64, "value": 0}, "group": "control_change"}, {"time": 1728, "annotation": {"number": 64, "value": 38}, "group": "control_change"}, {"time": 1729, "annotation": {"number": 64, "value": 0}, "group": "control_change"}, {"time": 1729, "annotation": {"number": 64, "value": 127}, "group": "control_change"}, {"time": 1751, "annotation": {"number": 64, "value": 38}, "group": "control_change"}, {"time": 1751, "annotation": {"number": 64, "value": 0}, "group": "control_change"}, {"time": 1754, "annotation": {"number": 64, "value": 127}, "group": "control_change"}, {"time": 1776, "annotation": {"number": 64, "value": 0}, "group": "control_change"}, {"time": 1777, "annotation": {"number": 64, "value": 127}, "group": "control_change"}, {"time": 1778, "annotation": {"number": 64, "value": 127}, "group": "control_change"}, {"time": 1800, "annotation": {"number": 64, "value": 38}, "group": "control_change"}, {"time": 1800, "annotation": {"number": 64, "value": 0}, "group": "control_change"}, {"time": 1802, "annotation": {"number": 64, "value": 127}, "group": "control_change"}, {"time": 1803, "annotation": {"number": 64, "value": 127}, "group": "control_change"}, {"time": 1822, "annotation": {"number": 64, "value": 38}, "group": "control_change"}, {"time": 1822, "annotation": {"number": 64, "value": 0}, "group": "control_change"}, {"time": 1825, "annotation": {"number": 64, "value": 127}, "group": "control_change"}, {"time": 1826, "annotation": {"number": 64, "value": 74}, "group": "control_change"}, {"time": 1826, "annotation": {"number": 64, "value": 127}, "group": "control_change"}, {"time": 1871, "annotation": {"number": 64, "value": 0}, "group": "control_change"}, {"time": 1874, "annotation": {"number": 64, "value": 74}, "group": "control_change"}, {"time": 1874, "annotation": {"number": 64, "value": 127}, "group": "control_change"}, {"time": 1907, "annotation": {"number": 64, "value": 74}, "group": "control_change"}, {"time": 1907, "annotation": {"number": 64, "value": 127}, "group": "control_change"}, {"time": 1907, "annotation": {"number": 64, "value": 0}, "group": "control_change"}, {"time": 1919, "annotation": {"number": 64, "value": 38}, "group": "control_change"}, {"time": 1919, "annotation": {"number": 64, "value": 0}, "group": "control_change"}, {"time": 1922, "annotation": {"number": 64, "value": 38}, "group": "control_change"}, {"time": 1922, "annotation": {"number": 64, "value": 127}, "group": "control_change"}, {"time": 1941, "annotation": {"number": 64, "value": 0}, "group": "control_change"}, {"time": 1969, "annotation": {"number": 64, "value": 74}, "group": "control_change"}, {"time": 1969, "annotation": {"number": 64, "value": 0}, "group": "control_change"}, {"time": 1970, "annotation": {"number": 64, "value": 127}, "group": "control_change"}, {"time": 1991, "annotation": {"number": 64, "value": 0}, "group": "control_change"}, {"time": 1994, "annotation": {"number": 64, "value": 74}, "group": "control_change"}, {"time": 1994, "annotation": {"number": 64, "value": 127}, "group": "control_change"}, {"time": 2015, "annotation": {"number": 64, "value": 0}, "group": "control_change"}, {"time": 2018, "annotation": {"number": 64, "value": 38}, "group": "control_change"}, {"time": 2018, "annotation": {"number": 64, "value": 127}, "group": "control_change"}, {"time": 2061, "annotation": {"number": 64, "value": 127}, "group": "control_change"}, {"time": 2063, "annotation": {"number": 64, "value": 38}, "group": "control_change"}, {"time": 2063, "annotation": {"number": 64, "value": 0}, "group": "control_change"}, {"time": 2064, "annotation": {"number": 64, "value": 38}, "group": "control_change"}, {"time": 2064, "annotation": {"number": 64, "value": 0}, "group": "control_change"}, {"time": 2065, "annotation": {"number": 64, "value": 127}, "group": "control_change"}, {"time": 2066, "annotation": {"number": 64, "value": 127}, "group": "control_change"}, {"time": 2088, "annotation": {"number": 64, "value": 38}, "group": "control_change"}, {"time": 2088, "annotation": {"number": 64, "value": 0}, "group": "control_change"}, {"time": 2090, "annotation": {"number": 64, "value": 127}, "group": "control_change"}, {"time": 2105, "annotation": {"number": 64, "value": 38}, "group": "control_change"}, {"time": 2105, "annotation": {"number": 64, "value": 0}, "group": "control_change"}, {"time": 2112, "annotation": {"number": 64, "value": 74}, "group": "control_change"}, {"time": 2112, "annotation": {"number": 64, "value": 0}, "group": "control_change"}, {"time": 2114, "annotation": {"number": 64, "value": 127}, "group": "control_change"}, {"time": 2135, "annotation": {"number": 64, "value": 0}, "group": "control_change"}, {"time": 2138, "annotation": {"number": 64, "value": 127}, "group": "control_change"}, {"time": 2161, "annotation": {"number": 64, "value": 0}, "group": "control_change"}, {"time": 2162, "annotation": {"number": 64, "value": 127}, "group": "control_change"}, {"time": 2183, "annotation": {"number": 64, "value": 0}, "group": "control_change"}, {"time": 2186, "annotation": {"number": 64, "value": 127}, "group": "control_change"}, {"time": 2207, "annotation": {"number": 64, "value": 74}, "group": "control_change"}, {"time": 2207, "annotation": {"number": 64, "value": 0}, "group": "control_change"}, {"time": 2210, "annotation": {"number": 64, "value": 127}, "group": "control_change"}, {"time": 2257, "annotation": {"number": 64, "value": 0}, "group": "control_change"}, {"time": 2260, "annotation": {"number": 64, "value": 71}, "group": "control_change"}, {"time": 2261, "annotation": {"number": 64, "value": 127}, "group": "control_change"}, {"time": 2306, "annotation": {"number": 64, "value": 71}, "group": "control_change"}, {"time": 2307, "annotation": {"number": 64, "value": 0}, "group": "control_change"}, {"time": 2315, "annotation": {"number": 64, "value": 71}, "group": "control_change"}, {"time": 2354, "annotation": {"number": 64, "value": 0}, "group": "control_change"}, {"time": 2361, "annotation": {"number": 64, "value": 71}, "group": "control_change"}, {"time": 2363, "annotation": {"number": 64, "value": 127}, "group": "control_change"}, {"time": 2427, "annotation": {"number": 64, "value": 71}, "group": "control_change"}, {"time": 2428, "annotation": {"number": 64, "value": 127}, "group": "control_change"}, {"time": 2450, "annotation": {"number": 64, "value": 71}, "group": "control_change"}, {"time": 2450, "annotation": {"number": 64, "value": 0}, "group": "control_change"}, {"time": 2452, "annotation": {"number": 64, "value": 71}, "group": "control_change"}, {"time": 2453, "annotation": {"number": 64, "value": 127}, "group": "control_change"}, {"time": 2474, "annotation": {"number": 64, "value": 71}, "group": "control_change"}, {"time": 2475, "annotation": {"number": 64, "value": 0}, "group": "control_change"}, {"time": 2479, "annotation": {"number": 64, "value": 71}, "group": "control_change"}, {"time": 2480, "annotation": {"number": 64, "value": 127}, "group": "control_change"}, {"time": 2498, "annotation": {"number": 64, "value": 71}, "group": "control_change"}, {"time": 2498, "annotation": {"number": 64, "value": 0}, "group": "control_change"}, {"time": 2502, "annotation": {"number": 64, "value": 71}, "group": "control_change"}, {"time": 2503, "annotation": {"number": 64, "value": 127}, "group": "control_change"}, {"time": 2521, "annotation": {"number": 64, "value": 71}, "group": "control_change"}, {"time": 2522, "annotation": {"number": 64, "value": 0}, "group": "control_change"}, {"time": 2526, "annotation": {"number": 64, "value": 71}, "group": "control_change"}, {"time": 2527, "annotation": {"number": 64, "value": 127}, "group": "control_change"}, {"time": 2546, "annotation": {"number": 64, "value": 71}, "group": "control_change"}, {"time": 2546, "annotation": {"number": 64, "value": 0}, "group": "control_change"}, {"time": 2550, "annotation": {"number": 64, "value": 71}, "group": "control_change"}, {"time": 2550, "annotation": {"number": 64, "value": 127}, "group": "control_change"}, {"time": 2569, "annotation": {"number": 64, "value": 71}, "group": "control_change"}, {"time": 2570, "annotation": {"number": 64, "value": 0}, "group": "control_change"}, {"time": 2574, "annotation": {"number": 64, "value": 71}, "group": "control_change"}, {"time": 2575, "annotation": {"number": 64, "value": 127}, "group": "control_change"}, {"time": 2594, "annotation": {"number": 64, "value": 71}, "group": "control_change"}, {"time": 2595, "annotation": {"number": 64, "value": 0}, "group": "control_change"}, {"time": 2600, "annotation": {"number": 64, "value": 71}, "group": "control_change"}, {"time": 2601, "annotation": {"number": 64, "value": 127}, "group": "control_change"}, {"time": 2618, "annotation": {"number": 64, "value": 71}, "group": "control_change"}, {"time": 2618, "annotation": {"number": 64, "value": 0}, "group": "control_change"}, {"time": 2622, "annotation": {"number": 64, "value": 71}, "group": "control_change"}, {"time": 2624, "annotation": {"number": 64, "value": 127}, "group": "control_change"}, {"time": 2640, "annotation": {"number": 64, "value": 71}, "group": "control_change"}, {"time": 2640, "annotation": {"number": 64, "value": 0}, "group": "control_change"}, {"time": 2882, "annotation": {"number": 64, "value": 127}, "group": "control_change"}, {"time": 2983, "annotation": {"number": 64, "value": 38}, "group": "control_change"}, {"time": 2983, "annotation": {"number": 64, "value": 0}, "group": "control_change"}, {"time": 3314, "annotation": {"number": 64, "value": 127}, "group": "control_change"}, {"time": 3358, "annotation": {"number": 64, "value": 0}, "group": "control_change"}, {"time": 3361, "annotation": {"number": 64, "value": 127}, "group": "control_change"}, {"time": 3362, "annotation": {"number": 64, "value": 127}, "group": "control_change"}, {"time": 3405, "annotation": {"number": 64, "value": 38}, "group": "control_change"}, {"time": 3405, "annotation": {"number": 64, "value": 0}, "group": "control_change"}, {"time": 3410, "annotation": {"number": 64, "value": 127}, "group": "control_change"}, {"time": 3456, "annotation": {"number": 64, "value": 0}, "group": "control_change"}, {"time": 3458, "annotation": {"number": 64, "value": 127}, "group": "control_change"}, {"time": 3504, "annotation": {"number": 64, "value": 38}, "group": "control_change"}, {"time": 3504, "annotation": {"number": 64, "value": 0}, "group": "control_change"}, {"time": 3507, "annotation": {"number": 64, "value": 127}, "group": "control_change"}, {"time": 3551, "annotation": {"number": 64, "value": 38}, "group": "control_change"}, {"time": 3552, "annotation": {"number": 64, "value": 0}, "group": "control_change"}, {"time": 3553, "annotation": {"number": 64, "value": 127}, "group": "control_change"}, {"time": 3600, "annotation": {"number": 64, "value": 38}, "group": "control_change"}, {"time": 3600, "annotation": {"number": 64, "value": 0}, "group": "control_change"}, {"time": 3601, "annotation": {"number": 64, "value": 127}, "group": "control_change"}, {"time": 3602, "annotation": {"number": 64, "value": 127}, "group": "control_change"}, {"time": 3640, "annotation": {"number": 64, "value": 74}, "group": "control_change"}, {"time": 3640, "annotation": {"number": 64, "value": 0}, "group": "control_change"}, {"time": 3648, "annotation": {"number": 64, "value": 38}, "group": "control_change"}, {"time": 3649, "annotation": {"number": 64, "value": 0}, "group": "control_change"}, {"time": 3649, "annotation": {"number": 64, "value": 127}, "group": "control_change"}, {"time": 3671, "annotation": {"number": 64, "value": 38}, "group": "control_change"}, {"time": 3671, "annotation": {"number": 64, "value": 0}, "group": "control_change"}, {"time": 3674, "annotation": {"number": 64, "value": 127}, "group": "control_change"}, {"time": 3696, "annotation": {"number": 64, "value": 0}, "group": "control_change"}, {"time": 3697, "annotation": {"number": 64, "value": 127}, "group": "control_change"}, {"time": 3698, "annotation": {"number": 64, "value": 127}, "group": "control_change"}, {"time": 3720, "annotation": {"number": 64, "value": 38}, "group": "control_change"}, {"time": 3720, "annotation": {"number": 64, "value": 0}, "group": "control_change"}, {"time": 3722, "annotation": {"number": 64, "value": 127}, "group": "control_change"}, {"time": 3723, "annotation": {"number": 64, "value": 127}, "group": "control_change"}, {"time": 3742, "annotation": {"number": 64, "value": 38}, "group": "control_change"}, {"time": 3742, "annotation": {"number": 64, "value": 0}, "group": "control_change"}, {"time": 3745, "annotation": {"number": 64, "value": 127}, "group": "control_change"}, {"time": 3746, "annotation": {"number": 64, "value": 74}, "group": "control_change"}, {"time": 3746, "annotation": {"number": 64, "value": 127}, "group": "control_change"}, {"time": 3791, "annotation": {"number": 64, "value": 0}, "group": "control_change"}, {"time": 3794, "annotation": {"number": 64, "value": 74}, "group": "control_change"}, {"time": 3794, "annotation": {"number": 64, "value": 127}, "group": "control_change"}, {"time": 3827, "annotation": {"number": 64, "value": 74}, "group": "control_change"}, {"time": 3827, "annotation": {"number": 64, "value": 127}, "group": "control_change"}, {"time": 3827, "annotation": {"number": 64, "value": 0}, "group": "control_change"}, {"time": 3839, "annotation": {"number": 64, "value": 38}, "group": "control_change"}, {"time": 3839, "annotation": {"number": 64, "value": 0}, "group": "control_change"}, {"time": 3842, "annotation": {"number": 64, "value": 38}, "group": "control_change"}, {"time": 3842, "annotation": {"number": 64, "value": 127}, "group": "control_change"}, {"time": 3861, "annotation": {"number": 64, "value": 0}, "group": "control_change"}, {"time": 3889, "annotation": {"number": 64, "value": 74}, "group": "control_change"}, {"time": 3889, "annotation": {"number": 64, "value": 0}, "group": "control_change"}, {"time": 3890, "annotation": {"number": 64, "value": 127}, "group": "control_change"}, {"time": 3911, "annotation": {"number": 64, "value": 0}, "group": "control_change"}, {"time": 3914, "annotation": {"number": 64, "value": 74}, "group": "control_change"}, {"time": 3914, "annotation": {"number": 64, "value": 127}, "group": "control_change"}, {"time": 3935, "annotation": {"number": 64, "value": 0}, "group": "control_change"}, {"time": 3938, "annotation": {"number": 64, "value": 38}, "group": "control_change"}, {"time": 3938, "annotation": {"number": 64, "value": 127}, "group": "control_change"}, {"time": 3981, "annotation": {"number": 64, "value": 127}, "group": "control_change"}, {"time": 3983, "annotation": {"number": 64, "value": 38}, "group": "control_change"}, {"time": 3983, "annotation": {"number": 64, "value": 0}, "group": "control_change"}, {"time": 3984, "annotation": {"number": 64, "value": 38}, "group": "control_change"}, {"time": 3984, "annotation": {"number": 64, "value": 0}, "group": "control_change"}, {"time": 3985, "annotation": {"number": 64, "value": 127}, "group": "control_change"}, {"time": 3986, "annotation": {"number": 64, "value": 127}, "group": "control_change"}, {"time": 4008, "annotation": {"number": 64, "value": 38}, "group": "control_change"}, {"time": 4008, "annotation": {"number": 64, "value": 0}, "group": "control_change"}, {"time": 4010, "annotation": {"number": 64, "value": 127}, "group": "control_change"}, {"time": 4025, "annotation": {"number": 64, "value": 38}, "group": "control_change"}, {"time": 4025, "annotation": {"number": 64, "value": 0}, "group": "control_change"}, {"time": 4032, "annotation": {"number": 64, "value": 74}, "group": "control_change"}, {"time": 4032, "annotation": {"number": 64, "value": 0}, "group": "control_change"}, {"time": 4034, "annotation": {"number": 64, "value": 127}, "group": "control_change"}, {"time": 4055, "annotation": {"number": 64, "value": 0}, "group": "control_change"}, {"time": 4058, "annotation": {"number": 64, "value": 127}, "group": "control_change"}, {"time": 4081, "annotation": {"number": 64, "value": 0}, "group": "control_change"}, {"time": 4082, "annotation": {"number": 64, "value": 127}, "group": "control_change"}, {"time": 4103, "annotation": {"number": 64, "value": 0}, "group": "control_change"}, {"time": 4106, "annotation": {"number": 64, "value": 127}, "group": "control_change"}, {"time": 4127, "annotation": {"number": 64, "value": 74}, "group": "control_change"}, {"time": 4127, "annotation": {"number": 64, "value": 0}, "group": "control_change"}, {"time": 4130, "annotation": {"number": 64, "value": 127}, "group": "control_change"}, {"time": 4177, "annotation": {"number": 64, "value": 0}, "group": "control_change"}]}]}