{"metadata": {"schema_version": "0.2", "title": "None", "source_filename": "285.mid", "source_format": "midi"}, "resolution": 12, "tempos": [{"time": 0, "qpm": 68.00014960032912}], "time_signatures": [{"time": 0, "numerator": 4, "denominator": 4}], "tracks": [{"program": 0, "is_drum": false, "name": "MELODY", "notes": [{"time": 359, "pitch": 72, "duration": 6, "velocity": 110}, {"time": 365, "pitch": 74, "duration": 6, "velocity": 110}, {"time": 371, "pitch": 76, "duration": 18, "velocity": 98}, {"time": 389, "pitch": 76, "duration": 3, "velocity": 88}, {"time": 392, "pitch": 76, "duration": 3, "velocity": 88}, {"time": 395, "pitch": 76, "duration": 6, "velocity": 89}, {"time": 401, "pitch": 74, "duration": 6, "velocity": 91}, {"time": 407, "pitch": 74, "duration": 6, "velocity": 89}, {"time": 413, "pitch": 76, "duration": 6, "velocity": 91}, {"time": 419, "pitch": 76, "duration": 36, "velocity": 90}, {"time": 455, "pitch": 76, "duration": 6, "velocity": 102}, {"time": 461, "pitch": 79, "duration": 6, "velocity": 108}, {"time": 467, "pitch": 81, "duration": 18, "velocity": 113}, {"time": 485, "pitch": 81, "duration": 3, "velocity": 92}, {"time": 488, "pitch": 81, "duration": 3, "velocity": 92}, {"time": 491, "pitch": 84, "duration": 6, "velocity": 100}, {"time": 497, "pitch": 81, "duration": 6, "velocity": 94}, {"time": 503, "pitch": 81, "duration": 6, "velocity": 107}, {"time": 509, "pitch": 76, "duration": 6, "velocity": 108}, {"time": 515, "pitch": 79, "duration": 36, "velocity": 107}, {"time": 551, "pitch": 76, "duration": 7, "velocity": 94}, {"time": 557, "pitch": 79, "duration": 6, "velocity": 98}, {"time": 563, "pitch": 81, "duration": 18, "velocity": 104}, {"time": 581, "pitch": 81, "duration": 3, "velocity": 107}, {"time": 584, "pitch": 81, "duration": 3, "velocity": 96}, {"time": 587, "pitch": 86, "duration": 6, "velocity": 113}, {"time": 593, "pitch": 84, "duration": 6, "velocity": 94}, {"time": 599, "pitch": 84, "duration": 6, "velocity": 104}, {"time": 605, "pitch": 81, "duration": 6, "velocity": 104}, {"time": 611, "pitch": 79, "duration": 9, "velocity": 110}, {"time": 620, "pitch": 81, "duration": 3, "velocity": 96}, {"time": 623, "pitch": 76, "duration": 6, "velocity": 98}, {"time": 629, "pitch": 74, "duration": 6, "velocity": 98}, {"time": 635, "pitch": 72, "duration": 12, "velocity": 91}, {"time": 647, "pitch": 72, "duration": 6, "velocity": 108}, {"time": 653, "pitch": 74, "duration": 6, "velocity": 100}, {"time": 659, "pitch": 76, "duration": 18, "velocity": 104}, {"time": 677, "pitch": 76, "duration": 3, "velocity": 98}, {"time": 680, "pitch": 81, "duration": 3, "velocity": 93}, {"time": 683, "pitch": 79, "duration": 6, "velocity": 96}, {"time": 689, "pitch": 76, "duration": 6, "velocity": 93}, {"time": 695, "pitch": 74, "duration": 9, "velocity": 93}, {"time": 704, "pitch": 72, "duration": 3, "velocity": 88}, {"time": 707, "pitch": 72, "duration": 36, "velocity": 93}, {"time": 743, "pitch": 72, "duration": 6, "velocity": 104}, {"time": 749, "pitch": 71, "duration": 6, "velocity": 104}, {"time": 755, "pitch": 69, "duration": 12, "velocity": 104}, {"time": 767, "pitch": 72, "duration": 6, "velocity": 113}, {"time": 773, "pitch": 74, "duration": 3, "velocity": 94}, {"time": 776, "pitch": 76, "duration": 15, "velocity": 113}, {"time": 791, "pitch": 76, "duration": 6, "velocity": 91}, {"time": 797, "pitch": 81, "duration": 3, "velocity": 94}, {"time": 800, "pitch": 81, "duration": 6, "velocity": 98}, {"time": 806, "pitch": 79, "duration": 3, "velocity": 91}, {"time": 809, "pitch": 79, "duration": 3, "velocity": 90}, {"time": 812, "pitch": 79, "duration": 3, "velocity": 92}, {"time": 815, "pitch": 79, "duration": 3, "velocity": 102}, {"time": 818, "pitch": 76, "duration": 6, "velocity": 91}, {"time": 824, "pitch": 79, "duration": 12, "velocity": 100}, {"time": 836, "pitch": 76, "duration": 4, "velocity": 93}, {"time": 839, "pitch": 79, "duration": 6, "velocity": 107}, {"time": 845, "pitch": 81, "duration": 3, "velocity": 92}, {"time": 848, "pitch": 84, "duration": 15, "velocity": 108}, {"time": 863, "pitch": 84, "duration": 6, "velocity": 108}, {"time": 869, "pitch": 81, "duration": 3, "velocity": 98}, {"time": 872, "pitch": 84, "duration": 12, "velocity": 107}, {"time": 884, "pitch": 79, "duration": 3, "velocity": 107}, {"time": 887, "pitch": 81, "duration": 6, "velocity": 104}, {"time": 893, "pitch": 84, "duration": 6, "velocity": 107}, {"time": 899, "pitch": 86, "duration": 3, "velocity": 107}, {"time": 902, "pitch": 86, "duration": 3, "velocity": 107}, {"time": 905, "pitch": 86, "duration": 3, "velocity": 102}, {"time": 908, "pitch": 86, "duration": 3, "velocity": 100}, {"time": 911, "pitch": 86, "duration": 6, "velocity": 119}, {"time": 917, "pitch": 84, "duration": 3, "velocity": 107}, {"time": 920, "pitch": 86, "duration": 36, "velocity": 120}, {"time": 956, "pitch": 79, "duration": 3, "velocity": 113}, {"time": 959, "pitch": 84, "duration": 6, "velocity": 113}, {"time": 965, "pitch": 86, "duration": 6, "velocity": 113}, {"time": 971, "pitch": 88, "duration": 3, "velocity": 108}, {"time": 974, "pitch": 88, "duration": 3, "velocity": 104}, {"time": 977, "pitch": 88, "duration": 3, "velocity": 104}, {"time": 980, "pitch": 88, "duration": 3, "velocity": 102}, {"time": 983, "pitch": 86, "duration": 6, "velocity": 114}, {"time": 989, "pitch": 84, "duration": 6, "velocity": 110}, {"time": 995, "pitch": 88, "duration": 3, "velocity": 113}, {"time": 998, "pitch": 88, "duration": 3, "velocity": 108}, {"time": 1001, "pitch": 88, "duration": 3, "velocity": 104}, {"time": 1004, "pitch": 88, "duration": 3, "velocity": 110}, {"time": 1007, "pitch": 86, "duration": 6, "velocity": 116}, {"time": 1013, "pitch": 84, "duration": 6, "velocity": 114}, {"time": 1019, "pitch": 84, "duration": 6, "velocity": 107}, {"time": 1025, "pitch": 81, "duration": 6, "velocity": 113}, {"time": 1031, "pitch": 84, "duration": 6, "velocity": 114}, {"time": 1037, "pitch": 86, "duration": 3, "velocity": 117}, {"time": 1040, "pitch": 88, "duration": 15, "velocity": 120}, {"time": 1055, "pitch": 79, "duration": 6, "velocity": 114}, {"time": 1061, "pitch": 81, "duration": 6, "velocity": 113}, {"time": 1067, "pitch": 86, "duration": 3, "velocity": 110}, {"time": 1070, "pitch": 86, "duration": 3, "velocity": 104}, {"time": 1073, "pitch": 86, "duration": 3, "velocity": 108}, {"time": 1076, "pitch": 86, "duration": 3, "velocity": 107}, {"time": 1079, "pitch": 84, "duration": 6, "velocity": 114}, {"time": 1085, "pitch": 81, "duration": 6, "velocity": 113}, {"time": 1091, "pitch": 86, "duration": 3, "velocity": 110}, {"time": 1094, "pitch": 86, "duration": 3, "velocity": 108}, {"time": 1097, "pitch": 86, "duration": 3, "velocity": 102}, {"time": 1100, "pitch": 86, "duration": 3, "velocity": 102}, {"time": 1103, "pitch": 84, "duration": 6, "velocity": 114}, {"time": 1109, "pitch": 81, "duration": 6, "velocity": 114}, {"time": 1115, "pitch": 84, "duration": 6, "velocity": 114}, {"time": 1121, "pitch": 81, "duration": 6, "velocity": 114}, {"time": 1127, "pitch": 76, "duration": 6, "velocity": 108}, {"time": 1133, "pitch": 81, "duration": 3, "velocity": 110}, {"time": 1136, "pitch": 79, "duration": 12, "velocity": 114}, {"time": 1148, "pitch": 79, "duration": 3, "velocity": 113}, {"time": 1151, "pitch": 84, "duration": 6, "velocity": 113}, {"time": 1157, "pitch": 86, "duration": 6, "velocity": 113}, {"time": 1163, "pitch": 88, "duration": 3, "velocity": 108}, {"time": 1166, "pitch": 88, "duration": 3, "velocity": 104}, {"time": 1169, "pitch": 88, "duration": 3, "velocity": 104}, {"time": 1172, "pitch": 88, "duration": 3, "velocity": 102}, {"time": 1175, "pitch": 86, "duration": 6, "velocity": 114}, {"time": 1181, "pitch": 84, "duration": 6, "velocity": 110}, {"time": 1187, "pitch": 88, "duration": 3, "velocity": 113}, {"time": 1190, "pitch": 88, "duration": 3, "velocity": 108}, {"time": 1193, "pitch": 88, "duration": 3, "velocity": 104}, {"time": 1196, "pitch": 88, "duration": 3, "velocity": 110}, {"time": 1199, "pitch": 86, "duration": 6, "velocity": 116}, {"time": 1205, "pitch": 84, "duration": 6, "velocity": 114}, {"time": 1211, "pitch": 84, "duration": 6, "velocity": 107}, {"time": 1217, "pitch": 81, "duration": 6, "velocity": 113}, {"time": 1223, "pitch": 84, "duration": 6, "velocity": 114}, {"time": 1229, "pitch": 86, "duration": 3, "velocity": 117}, {"time": 1232, "pitch": 88, "duration": 27, "velocity": 120}, {"time": 1259, "pitch": 86, "duration": 6, "velocity": 119}, {"time": 1265, "pitch": 84, "duration": 6, "velocity": 110}, {"time": 1271, "pitch": 86, "duration": 6, "velocity": 110}, {"time": 1277, "pitch": 84, "duration": 3, "velocity": 104}, {"time": 1280, "pitch": 86, "duration": 9, "velocity": 117}, {"time": 1289, "pitch": 88, "duration": 6, "velocity": 117}, {"time": 1295, "pitch": 86, "duration": 6, "velocity": 113}, {"time": 1301, "pitch": 84, "duration": 6, "velocity": 110}, {"time": 1307, "pitch": 84, "duration": 24, "velocity": 116}, {"time": 1439, "pitch": 72, "duration": 6, "velocity": 110}, {"time": 1445, "pitch": 74, "duration": 6, "velocity": 110}, {"time": 1451, "pitch": 76, "duration": 18, "velocity": 98}, {"time": 1469, "pitch": 76, "duration": 3, "velocity": 88}, {"time": 1472, "pitch": 76, "duration": 3, "velocity": 88}, {"time": 1475, "pitch": 76, "duration": 6, "velocity": 89}, {"time": 1481, "pitch": 74, "duration": 6, "velocity": 91}, {"time": 1487, "pitch": 74, "duration": 6, "velocity": 89}, {"time": 1493, "pitch": 76, "duration": 6, "velocity": 91}, {"time": 1499, "pitch": 76, "duration": 36, "velocity": 90}, {"time": 1535, "pitch": 76, "duration": 6, "velocity": 102}, {"time": 1541, "pitch": 79, "duration": 6, "velocity": 108}, {"time": 1547, "pitch": 81, "duration": 18, "velocity": 113}, {"time": 1565, "pitch": 81, "duration": 3, "velocity": 92}, {"time": 1568, "pitch": 81, "duration": 3, "velocity": 92}, {"time": 1571, "pitch": 84, "duration": 6, "velocity": 100}, {"time": 1577, "pitch": 81, "duration": 6, "velocity": 94}, {"time": 1583, "pitch": 81, "duration": 6, "velocity": 107}, {"time": 1589, "pitch": 76, "duration": 6, "velocity": 108}, {"time": 1595, "pitch": 79, "duration": 36, "velocity": 107}, {"time": 1631, "pitch": 76, "duration": 7, "velocity": 94}, {"time": 1637, "pitch": 79, "duration": 6, "velocity": 98}, {"time": 1643, "pitch": 81, "duration": 18, "velocity": 104}, {"time": 1661, "pitch": 81, "duration": 3, "velocity": 107}, {"time": 1664, "pitch": 81, "duration": 3, "velocity": 96}, {"time": 1667, "pitch": 86, "duration": 6, "velocity": 113}, {"time": 1673, "pitch": 84, "duration": 6, "velocity": 94}, {"time": 1679, "pitch": 84, "duration": 6, "velocity": 104}, {"time": 1685, "pitch": 81, "duration": 6, "velocity": 104}, {"time": 1691, "pitch": 79, "duration": 9, "velocity": 110}, {"time": 1700, "pitch": 81, "duration": 3, "velocity": 96}, {"time": 1703, "pitch": 76, "duration": 6, "velocity": 98}, {"time": 1709, "pitch": 74, "duration": 6, "velocity": 98}, {"time": 1715, "pitch": 72, "duration": 12, "velocity": 91}, {"time": 1727, "pitch": 72, "duration": 6, "velocity": 108}, {"time": 1733, "pitch": 74, "duration": 6, "velocity": 100}, {"time": 1739, "pitch": 76, "duration": 18, "velocity": 104}, {"time": 1757, "pitch": 76, "duration": 3, "velocity": 98}, {"time": 1760, "pitch": 81, "duration": 3, "velocity": 93}, {"time": 1763, "pitch": 79, "duration": 6, "velocity": 96}, {"time": 1769, "pitch": 76, "duration": 6, "velocity": 93}, {"time": 1775, "pitch": 74, "duration": 9, "velocity": 93}, {"time": 1784, "pitch": 72, "duration": 3, "velocity": 88}, {"time": 1787, "pitch": 72, "duration": 36, "velocity": 93}, {"time": 1823, "pitch": 72, "duration": 6, "velocity": 104}, {"time": 1829, "pitch": 71, "duration": 6, "velocity": 104}, {"time": 1835, "pitch": 69, "duration": 12, "velocity": 104}, {"time": 1847, "pitch": 72, "duration": 6, "velocity": 113}, {"time": 1853, "pitch": 74, "duration": 3, "velocity": 94}, {"time": 1856, "pitch": 76, "duration": 15, "velocity": 113}, {"time": 1871, "pitch": 76, "duration": 6, "velocity": 91}, {"time": 1877, "pitch": 81, "duration": 3, "velocity": 94}, {"time": 1880, "pitch": 81, "duration": 6, "velocity": 98}, {"time": 1886, "pitch": 79, "duration": 3, "velocity": 91}, {"time": 1889, "pitch": 79, "duration": 3, "velocity": 90}, {"time": 1892, "pitch": 79, "duration": 3, "velocity": 92}, {"time": 1895, "pitch": 79, "duration": 3, "velocity": 102}, {"time": 1898, "pitch": 76, "duration": 6, "velocity": 91}, {"time": 1904, "pitch": 79, "duration": 12, "velocity": 100}, {"time": 1916, "pitch": 76, "duration": 4, "velocity": 93}, {"time": 1919, "pitch": 79, "duration": 6, "velocity": 107}, {"time": 1925, "pitch": 81, "duration": 3, "velocity": 92}, {"time": 1928, "pitch": 84, "duration": 15, "velocity": 108}, {"time": 1943, "pitch": 84, "duration": 6, "velocity": 108}, {"time": 1949, "pitch": 81, "duration": 3, "velocity": 98}, {"time": 1952, "pitch": 84, "duration": 12, "velocity": 107}, {"time": 1964, "pitch": 79, "duration": 3, "velocity": 107}, {"time": 1967, "pitch": 81, "duration": 6, "velocity": 104}, {"time": 1973, "pitch": 84, "duration": 6, "velocity": 107}, {"time": 1979, "pitch": 86, "duration": 3, "velocity": 107}, {"time": 1982, "pitch": 86, "duration": 3, "velocity": 107}, {"time": 1985, "pitch": 86, "duration": 3, "velocity": 102}, {"time": 1988, "pitch": 86, "duration": 3, "velocity": 100}, {"time": 1991, "pitch": 86, "duration": 6, "velocity": 119}, {"time": 1997, "pitch": 84, "duration": 3, "velocity": 107}, {"time": 2000, "pitch": 86, "duration": 27, "velocity": 120}, {"time": 2036, "pitch": 79, "duration": 3, "velocity": 113}, {"time": 2039, "pitch": 84, "duration": 6, "velocity": 113}, {"time": 2045, "pitch": 86, "duration": 6, "velocity": 113}, {"time": 2051, "pitch": 88, "duration": 3, "velocity": 108}, {"time": 2054, "pitch": 88, "duration": 3, "velocity": 104}, {"time": 2057, "pitch": 88, "duration": 3, "velocity": 104}, {"time": 2060, "pitch": 88, "duration": 3, "velocity": 102}, {"time": 2063, "pitch": 86, "duration": 6, "velocity": 114}, {"time": 2069, "pitch": 84, "duration": 6, "velocity": 110}, {"time": 2075, "pitch": 88, "duration": 3, "velocity": 113}, {"time": 2078, "pitch": 88, "duration": 3, "velocity": 108}, {"time": 2081, "pitch": 88, "duration": 3, "velocity": 104}, {"time": 2084, "pitch": 88, "duration": 3, "velocity": 110}, {"time": 2087, "pitch": 86, "duration": 6, "velocity": 116}, {"time": 2093, "pitch": 84, "duration": 6, "velocity": 114}, {"time": 2099, "pitch": 84, "duration": 6, "velocity": 107}, {"time": 2105, "pitch": 81, "duration": 6, "velocity": 113}, {"time": 2111, "pitch": 84, "duration": 6, "velocity": 114}, {"time": 2117, "pitch": 86, "duration": 3, "velocity": 117}, {"time": 2120, "pitch": 88, "duration": 15, "velocity": 120}, {"time": 2135, "pitch": 79, "duration": 6, "velocity": 114}, {"time": 2141, "pitch": 81, "duration": 6, "velocity": 113}, {"time": 2147, "pitch": 86, "duration": 3, "velocity": 110}, {"time": 2150, "pitch": 86, "duration": 3, "velocity": 104}, {"time": 2153, "pitch": 86, "duration": 3, "velocity": 108}, {"time": 2156, "pitch": 86, "duration": 3, "velocity": 107}, {"time": 2159, "pitch": 84, "duration": 6, "velocity": 114}, {"time": 2165, "pitch": 81, "duration": 6, "velocity": 113}, {"time": 2171, "pitch": 86, "duration": 3, "velocity": 110}, {"time": 2174, "pitch": 86, "duration": 3, "velocity": 108}, {"time": 2177, "pitch": 86, "duration": 3, "velocity": 102}, {"time": 2180, "pitch": 86, "duration": 3, "velocity": 102}, {"time": 2183, "pitch": 84, "duration": 6, "velocity": 114}, {"time": 2189, "pitch": 81, "duration": 6, "velocity": 114}, {"time": 2195, "pitch": 84, "duration": 6, "velocity": 114}, {"time": 2201, "pitch": 81, "duration": 6, "velocity": 114}, {"time": 2207, "pitch": 76, "duration": 6, "velocity": 108}, {"time": 2213, "pitch": 81, "duration": 3, "velocity": 110}, {"time": 2216, "pitch": 79, "duration": 12, "velocity": 114}, {"time": 2228, "pitch": 79, "duration": 3, "velocity": 113}, {"time": 2231, "pitch": 84, "duration": 6, "velocity": 113}, {"time": 2237, "pitch": 86, "duration": 6, "velocity": 113}, {"time": 2243, "pitch": 88, "duration": 3, "velocity": 108}, {"time": 2246, "pitch": 88, "duration": 3, "velocity": 104}, {"time": 2249, "pitch": 88, "duration": 3, "velocity": 104}, {"time": 2252, "pitch": 88, "duration": 3, "velocity": 102}, {"time": 2255, "pitch": 86, "duration": 6, "velocity": 114}, {"time": 2261, "pitch": 84, "duration": 6, "velocity": 110}, {"time": 2267, "pitch": 88, "duration": 3, "velocity": 113}, {"time": 2270, "pitch": 88, "duration": 3, "velocity": 108}, {"time": 2273, "pitch": 88, "duration": 3, "velocity": 104}, {"time": 2276, "pitch": 88, "duration": 3, "velocity": 110}, {"time": 2279, "pitch": 86, "duration": 6, "velocity": 116}, {"time": 2285, "pitch": 84, "duration": 6, "velocity": 114}, {"time": 2291, "pitch": 84, "duration": 6, "velocity": 107}, {"time": 2297, "pitch": 81, "duration": 6, "velocity": 113}, {"time": 2303, "pitch": 84, "duration": 6, "velocity": 114}, {"time": 2309, "pitch": 86, "duration": 3, "velocity": 117}, {"time": 2312, "pitch": 88, "duration": 27, "velocity": 120}, {"time": 2339, "pitch": 86, "duration": 6, "velocity": 119}, {"time": 2345, "pitch": 84, "duration": 6, "velocity": 110}, {"time": 2351, "pitch": 86, "duration": 6, "velocity": 110}, {"time": 2357, "pitch": 84, "duration": 3, "velocity": 104}, {"time": 2360, "pitch": 86, "duration": 9, "velocity": 117}, {"time": 2369, "pitch": 88, "duration": 6, "velocity": 117}, {"time": 2375, "pitch": 86, "duration": 6, "velocity": 113}, {"time": 2381, "pitch": 84, "duration": 6, "velocity": 110}, {"time": 2387, "pitch": 84, "duration": 24, "velocity": 116}, {"time": 2471, "pitch": 67, "duration": 7, "velocity": 114}, {"time": 2477, "pitch": 69, "duration": 5, "velocity": 113}, {"time": 2483, "pitch": 74, "duration": 8, "velocity": 117}, {"time": 2492, "pitch": 76, "duration": 24, "velocity": 117}, {"time": 2519, "pitch": 74, "duration": 7, "velocity": 113}, {"time": 2525, "pitch": 72, "duration": 6, "velocity": 104}, {"time": 2531, "pitch": 74, "duration": 9, "velocity": 89}, {"time": 2540, "pitch": 71, "duration": 23, "velocity": 110}, {"time": 2567, "pitch": 67, "duration": 6, "velocity": 113}, {"time": 2573, "pitch": 69, "duration": 5, "velocity": 108}, {"time": 2579, "pitch": 74, "duration": 7, "velocity": 116}, {"time": 2588, "pitch": 76, "duration": 20, "velocity": 116}, {"time": 2615, "pitch": 74, "duration": 7, "velocity": 114}, {"time": 2621, "pitch": 72, "duration": 6, "velocity": 113}, {"time": 2627, "pitch": 71, "duration": 9, "velocity": 113}, {"time": 2636, "pitch": 69, "duration": 17, "velocity": 114}, {"time": 2653, "pitch": 73, "duration": 7, "velocity": 123}, {"time": 2660, "pitch": 74, "duration": 6, "velocity": 119}, {"time": 2666, "pitch": 76, "duration": 9, "velocity": 113}, {"time": 2675, "pitch": 76, "duration": 21, "velocity": 116}, {"time": 2852, "pitch": 80, "duration": 3, "velocity": 113}, {"time": 2855, "pitch": 85, "duration": 6, "velocity": 113}, {"time": 2861, "pitch": 87, "duration": 6, "velocity": 113}, {"time": 2867, "pitch": 89, "duration": 3, "velocity": 108}, {"time": 2870, "pitch": 89, "duration": 3, "velocity": 104}, {"time": 2873, "pitch": 89, "duration": 3, "velocity": 104}, {"time": 2876, "pitch": 89, "duration": 3, "velocity": 102}, {"time": 2879, "pitch": 87, "duration": 6, "velocity": 114}, {"time": 2885, "pitch": 85, "duration": 6, "velocity": 110}, {"time": 2891, "pitch": 89, "duration": 3, "velocity": 113}, {"time": 2894, "pitch": 89, "duration": 3, "velocity": 108}, {"time": 2897, "pitch": 89, "duration": 3, "velocity": 104}, {"time": 2900, "pitch": 89, "duration": 3, "velocity": 110}, {"time": 2903, "pitch": 87, "duration": 6, "velocity": 116}, {"time": 2909, "pitch": 85, "duration": 6, "velocity": 114}, {"time": 2915, "pitch": 85, "duration": 6, "velocity": 107}, {"time": 2921, "pitch": 82, "duration": 6, "velocity": 113}, {"time": 2927, "pitch": 85, "duration": 6, "velocity": 114}, {"time": 2933, "pitch": 87, "duration": 3, "velocity": 117}, {"time": 2936, "pitch": 89, "duration": 15, "velocity": 120}, {"time": 2951, "pitch": 80, "duration": 6, "velocity": 114}, {"time": 2957, "pitch": 82, "duration": 6, "velocity": 113}, {"time": 2963, "pitch": 87, "duration": 3, "velocity": 110}, {"time": 2966, "pitch": 87, "duration": 3, "velocity": 104}, {"time": 2969, "pitch": 87, "duration": 3, "velocity": 108}, {"time": 2972, "pitch": 87, "duration": 3, "velocity": 107}, {"time": 2975, "pitch": 85, "duration": 6, "velocity": 114}, {"time": 2981, "pitch": 82, "duration": 6, "velocity": 113}, {"time": 2987, "pitch": 87, "duration": 3, "velocity": 110}, {"time": 2990, "pitch": 87, "duration": 3, "velocity": 108}, {"time": 2993, "pitch": 87, "duration": 3, "velocity": 102}, {"time": 2996, "pitch": 87, "duration": 3, "velocity": 102}, {"time": 2999, "pitch": 85, "duration": 6, "velocity": 114}, {"time": 3005, "pitch": 82, "duration": 6, "velocity": 114}, {"time": 3011, "pitch": 85, "duration": 6, "velocity": 114}, {"time": 3017, "pitch": 82, "duration": 6, "velocity": 114}, {"time": 3023, "pitch": 77, "duration": 6, "velocity": 108}, {"time": 3029, "pitch": 82, "duration": 3, "velocity": 110}, {"time": 3032, "pitch": 80, "duration": 12, "velocity": 114}, {"time": 3044, "pitch": 80, "duration": 3, "velocity": 113}, {"time": 3047, "pitch": 85, "duration": 6, "velocity": 113}, {"time": 3053, "pitch": 87, "duration": 6, "velocity": 113}, {"time": 3059, "pitch": 89, "duration": 3, "velocity": 108}, {"time": 3062, "pitch": 89, "duration": 3, "velocity": 104}, {"time": 3065, "pitch": 89, "duration": 3, "velocity": 104}, {"time": 3068, "pitch": 89, "duration": 3, "velocity": 102}, {"time": 3071, "pitch": 87, "duration": 6, "velocity": 114}, {"time": 3077, "pitch": 85, "duration": 6, "velocity": 110}, {"time": 3083, "pitch": 89, "duration": 3, "velocity": 113}, {"time": 3086, "pitch": 89, "duration": 3, "velocity": 108}, {"time": 3089, "pitch": 89, "duration": 3, "velocity": 104}, {"time": 3092, "pitch": 89, "duration": 3, "velocity": 110}, {"time": 3095, "pitch": 87, "duration": 6, "velocity": 116}, {"time": 3101, "pitch": 85, "duration": 6, "velocity": 114}, {"time": 3107, "pitch": 85, "duration": 6, "velocity": 107}, {"time": 3113, "pitch": 82, "duration": 6, "velocity": 113}, {"time": 3119, "pitch": 85, "duration": 6, "velocity": 114}, {"time": 3125, "pitch": 87, "duration": 3, "velocity": 117}, {"time": 3128, "pitch": 89, "duration": 27, "velocity": 120}, {"time": 3155, "pitch": 87, "duration": 6, "velocity": 119}, {"time": 3161, "pitch": 85, "duration": 6, "velocity": 110}, {"time": 3167, "pitch": 87, "duration": 6, "velocity": 110}, {"time": 3173, "pitch": 85, "duration": 3, "velocity": 104}, {"time": 3176, "pitch": 87, "duration": 9, "velocity": 117}, {"time": 3185, "pitch": 89, "duration": 6, "velocity": 117}, {"time": 3191, "pitch": 87, "duration": 6, "velocity": 113}, {"time": 3197, "pitch": 85, "duration": 6, "velocity": 110}, {"time": 3203, "pitch": 85, "duration": 24, "velocity": 116}, {"time": 3251, "pitch": 75, "duration": 6, "velocity": 114}, {"time": 3257, "pitch": 73, "duration": 6, "velocity": 108}, {"time": 3263, "pitch": 75, "duration": 9, "velocity": 113}, {"time": 3272, "pitch": 73, "duration": 3, "velocity": 108}, {"time": 3275, "pitch": 75, "duration": 9, "velocity": 110}, {"time": 3284, "pitch": 77, "duration": 33, "velocity": 110}, {"time": 3317, "pitch": 75, "duration": 18, "velocity": 113}, {"time": 3335, "pitch": 73, "duration": 12, "velocity": 114}, {"time": 3347, "pitch": 73, "duration": 48, "velocity": 110}]}, {"program": 0, "is_drum": false, "name": "BRIDGE", "notes": [{"time": 23, "pitch": 60, "duration": 7, "velocity": 108}, {"time": 29, "pitch": 62, "duration": 6, "velocity": 87}, {"time": 35, "pitch": 64, "duration": 12, "velocity": 88}, {"time": 47, "pitch": 64, "duration": 6, "velocity": 108}, {"time": 53, "pitch": 67, "duration": 6, "velocity": 90}, {"time": 59, "pitch": 69, "duration": 12, "velocity": 94}, {"time": 71, "pitch": 69, "duration": 6, "velocity": 100}, {"time": 77, "pitch": 72, "duration": 6, "velocity": 90}, {"time": 83, "pitch": 74, "duration": 6, "velocity": 94}, {"time": 89, "pitch": 72, "duration": 6, "velocity": 89}, {"time": 95, "pitch": 74, "duration": 6, "velocity": 92}, {"time": 101, "pitch": 76, "duration": 6, "velocity": 89}, {"time": 107, "pitch": 76, "duration": 3, "velocity": 88}, {"time": 110, "pitch": 64, "duration": 2, "velocity": 86}, {"time": 112, "pitch": 62, "duration": 1, "velocity": 90}, {"time": 113, "pitch": 60, "duration": 3, "velocity": 100}, {"time": 116, "pitch": 62, "duration": 3, "velocity": 100}, {"time": 119, "pitch": 64, "duration": 3, "velocity": 96}, {"time": 122, "pitch": 67, "duration": 3, "velocity": 104}, {"time": 125, "pitch": 69, "duration": 3, "velocity": 93}, {"time": 128, "pitch": 72, "duration": 3, "velocity": 102}, {"time": 131, "pitch": 76, "duration": 3, "velocity": 119}, {"time": 134, "pitch": 74, "duration": 3, "velocity": 104}, {"time": 137, "pitch": 74, "duration": 3, "velocity": 100}, {"time": 140, "pitch": 72, "duration": 3, "velocity": 110}, {"time": 143, "pitch": 72, "duration": 3, "velocity": 110}, {"time": 146, "pitch": 69, "duration": 3, "velocity": 98}, {"time": 149, "pitch": 69, "duration": 3, "velocity": 102}, {"time": 152, "pitch": 64, "duration": 3, "velocity": 97}, {"time": 152, "pitch": 76, "duration": 3, "velocity": 114}, {"time": 155, "pitch": 64, "duration": 24, "velocity": 97}, {"time": 155, "pitch": 76, "duration": 24, "velocity": 117}, {"time": 179, "pitch": 76, "duration": 3, "velocity": 120}, {"time": 182, "pitch": 74, "duration": 3, "velocity": 91}, {"time": 185, "pitch": 74, "duration": 3, "velocity": 94}, {"time": 188, "pitch": 72, "duration": 3, "velocity": 88}, {"time": 191, "pitch": 72, "duration": 3, "velocity": 102}, {"time": 194, "pitch": 68, "duration": 3, "velocity": 88}, {"time": 197, "pitch": 68, "duration": 3, "velocity": 92}, {"time": 200, "pitch": 64, "duration": 3, "velocity": 97}, {"time": 200, "pitch": 76, "duration": 3, "velocity": 110}, {"time": 203, "pitch": 64, "duration": 12, "velocity": 97}, {"time": 203, "pitch": 76, "duration": 12, "velocity": 116}, {"time": 215, "pitch": 74, "duration": 6, "velocity": 114}, {"time": 221, "pitch": 72, "duration": 6, "velocity": 114}, {"time": 227, "pitch": 72, "duration": 12, "velocity": 113}, {"time": 239, "pitch": 74, "duration": 3, "velocity": 113}, {"time": 242, "pitch": 79, "duration": 3, "velocity": 98}, {"time": 245, "pitch": 74, "duration": 27, "velocity": 110}, {"time": 272, "pitch": 79, "duration": 3, "velocity": 114}, {"time": 275, "pitch": 79, "duration": 9, "velocity": 117}, {"time": 284, "pitch": 77, "duration": 2, "velocity": 100}, {"time": 286, "pitch": 76, "duration": 1, "velocity": 107}, {"time": 287, "pitch": 74, "duration": 9, "velocity": 98}, {"time": 296, "pitch": 72, "duration": 3, "velocity": 82}, {"time": 299, "pitch": 76, "duration": 15, "velocity": 94}, {"time": 314, "pitch": 74, "duration": 2, "velocity": 86}, {"time": 317, "pitch": 72, "duration": 3, "velocity": 81}, {"time": 320, "pitch": 69, "duration": 3, "velocity": 87}, {"time": 323, "pitch": 62, "duration": 3, "velocity": 51}, {"time": 323, "pitch": 67, "duration": 3, "velocity": 51}, {"time": 326, "pitch": 60, "duration": 3, "velocity": 53}, {"time": 329, "pitch": 62, "duration": 3, "velocity": 55}, {"time": 332, "pitch": 67, "duration": 3, "velocity": 57}, {"time": 335, "pitch": 62, "duration": 3, "velocity": 58}, {"time": 338, "pitch": 60, "duration": 3, "velocity": 59}, {"time": 341, "pitch": 62, "duration": 3, "velocity": 60}, {"time": 344, "pitch": 67, "duration": 3, "velocity": 61}, {"time": 347, "pitch": 62, "duration": 3, "velocity": 63}, {"time": 350, "pitch": 60, "duration": 3, "velocity": 65}, {"time": 353, "pitch": 62, "duration": 3, "velocity": 69}, {"time": 356, "pitch": 67, "duration": 3, "velocity": 70}, {"time": 359, "pitch": 62, "duration": 3, "velocity": 76}, {"time": 362, "pitch": 60, "duration": 3, "velocity": 76}, {"time": 365, "pitch": 62, "duration": 3, "velocity": 76}, {"time": 368, "pitch": 67, "duration": 3, "velocity": 76}, {"time": 371, "pitch": 64, "duration": 3, "velocity": 76}, {"time": 374, "pitch": 60, "duration": 3, "velocity": 76}, {"time": 377, "pitch": 62, "duration": 3, "velocity": 76}, {"time": 380, "pitch": 67, "duration": 3, "velocity": 76}, {"time": 383, "pitch": 64, "duration": 3, "velocity": 76}, {"time": 386, "pitch": 60, "duration": 3, "velocity": 76}, {"time": 389, "pitch": 62, "duration": 3, "velocity": 76}, {"time": 392, "pitch": 67, "duration": 3, "velocity": 76}, {"time": 395, "pitch": 62, "duration": 3, "velocity": 76}, {"time": 398, "pitch": 59, "duration": 3, "velocity": 76}, {"time": 401, "pitch": 62, "duration": 3, "velocity": 76}, {"time": 404, "pitch": 67, "duration": 3, "velocity": 76}, {"time": 407, "pitch": 62, "duration": 3, "velocity": 76}, {"time": 410, "pitch": 59, "duration": 3, "velocity": 76}, {"time": 413, "pitch": 62, "duration": 3, "velocity": 76}, {"time": 416, "pitch": 67, "duration": 3, "velocity": 77}, {"time": 419, "pitch": 64, "duration": 3, "velocity": 76}, {"time": 422, "pitch": 60, "duration": 3, "velocity": 76}, {"time": 425, "pitch": 62, "duration": 3, "velocity": 74}, {"time": 428, "pitch": 57, "duration": 3, "velocity": 71}, {"time": 431, "pitch": 64, "duration": 3, "velocity": 71}, {"time": 434, "pitch": 60, "duration": 3, "velocity": 71}, {"time": 437, "pitch": 62, "duration": 3, "velocity": 71}, {"time": 440, "pitch": 57, "duration": 3, "velocity": 71}, {"time": 443, "pitch": 64, "duration": 3, "velocity": 71}, {"time": 446, "pitch": 60, "duration": 3, "velocity": 71}, {"time": 446, "pitch": 71, "duration": 4, "velocity": 85}, {"time": 449, "pitch": 62, "duration": 3, "velocity": 71}, {"time": 449, "pitch": 72, "duration": 2, "velocity": 85}, {"time": 452, "pitch": 57, "duration": 3, "velocity": 71}, {"time": 452, "pitch": 79, "duration": 4, "velocity": 102}, {"time": 455, "pitch": 64, "duration": 3, "velocity": 71}, {"time": 458, "pitch": 60, "duration": 3, "velocity": 71}, {"time": 461, "pitch": 62, "duration": 3, "velocity": 71}, {"time": 464, "pitch": 57, "duration": 3, "velocity": 73}, {"time": 467, "pitch": 69, "duration": 3, "velocity": 75}, {"time": 470, "pitch": 60, "duration": 3, "velocity": 75}, {"time": 473, "pitch": 62, "duration": 3, "velocity": 75}, {"time": 476, "pitch": 69, "duration": 3, "velocity": 75}, {"time": 479, "pitch": 69, "duration": 3, "velocity": 76}, {"time": 482, "pitch": 60, "duration": 3, "velocity": 76}, {"time": 485, "pitch": 62, "duration": 3, "velocity": 76}, {"time": 488, "pitch": 69, "duration": 3, "velocity": 76}, {"time": 491, "pitch": 69, "duration": 3, "velocity": 76}, {"time": 494, "pitch": 60, "duration": 3, "velocity": 76}, {"time": 497, "pitch": 62, "duration": 3, "velocity": 76}, {"time": 500, "pitch": 69, "duration": 3, "velocity": 76}, {"time": 503, "pitch": 69, "duration": 3, "velocity": 76}, {"time": 506, "pitch": 60, "duration": 3, "velocity": 76}, {"time": 509, "pitch": 62, "duration": 3, "velocity": 76}, {"time": 512, "pitch": 69, "duration": 3, "velocity": 76}, {"time": 515, "pitch": 67, "duration": 3, "velocity": 76}, {"time": 518, "pitch": 60, "duration": 3, "velocity": 76}, {"time": 521, "pitch": 62, "duration": 3, "velocity": 76}, {"time": 524, "pitch": 67, "duration": 3, "velocity": 76}, {"time": 527, "pitch": 67, "duration": 3, "velocity": 76}, {"time": 530, "pitch": 60, "duration": 3, "velocity": 76}, {"time": 533, "pitch": 62, "duration": 3, "velocity": 77}, {"time": 536, "pitch": 67, "duration": 3, "velocity": 85}, {"time": 539, "pitch": 67, "duration": 3, "velocity": 88}, {"time": 542, "pitch": 59, "duration": 3, "velocity": 88}, {"time": 545, "pitch": 62, "duration": 3, "velocity": 88}, {"time": 548, "pitch": 67, "duration": 3, "velocity": 88}, {"time": 551, "pitch": 59, "duration": 3, "velocity": 88}, {"time": 551, "pitch": 67, "duration": 3, "velocity": 88}, {"time": 554, "pitch": 62, "duration": 3, "velocity": 88}, {"time": 557, "pitch": 67, "duration": 6, "velocity": 88}, {"time": 563, "pitch": 69, "duration": 3, "velocity": 75}, {"time": 566, "pitch": 60, "duration": 3, "velocity": 75}, {"time": 569, "pitch": 62, "duration": 3, "velocity": 75}, {"time": 572, "pitch": 69, "duration": 3, "velocity": 75}, {"time": 575, "pitch": 69, "duration": 3, "velocity": 76}, {"time": 578, "pitch": 60, "duration": 3, "velocity": 76}, {"time": 581, "pitch": 62, "duration": 3, "velocity": 76}, {"time": 584, "pitch": 69, "duration": 3, "velocity": 76}, {"time": 587, "pitch": 67, "duration": 3, "velocity": 76}, {"time": 590, "pitch": 60, "duration": 3, "velocity": 76}, {"time": 593, "pitch": 62, "duration": 3, "velocity": 76}, {"time": 596, "pitch": 67, "duration": 3, "velocity": 76}, {"time": 599, "pitch": 67, "duration": 3, "velocity": 76}, {"time": 602, "pitch": 60, "duration": 3, "velocity": 76}, {"time": 605, "pitch": 62, "duration": 3, "velocity": 77}, {"time": 608, "pitch": 67, "duration": 3, "velocity": 71}, {"time": 611, "pitch": 64, "duration": 3, "velocity": 71}, {"time": 614, "pitch": 60, "duration": 4, "velocity": 71}, {"time": 617, "pitch": 62, "duration": 3, "velocity": 71}, {"time": 620, "pitch": 64, "duration": 3, "velocity": 71}, {"time": 623, "pitch": 64, "duration": 3, "velocity": 71}, {"time": 626, "pitch": 60, "duration": 4, "velocity": 71}, {"time": 629, "pitch": 62, "duration": 3, "velocity": 71}, {"time": 632, "pitch": 64, "duration": 3, "velocity": 71}, {"time": 635, "pitch": 64, "duration": 3, "velocity": 71}, {"time": 638, "pitch": 60, "duration": 4, "velocity": 71}, {"time": 641, "pitch": 62, "duration": 3, "velocity": 71}, {"time": 644, "pitch": 57, "duration": 3, "velocity": 71}, {"time": 647, "pitch": 64, "duration": 4, "velocity": 71}, {"time": 650, "pitch": 60, "duration": 5, "velocity": 71}, {"time": 653, "pitch": 62, "duration": 3, "velocity": 71}, {"time": 656, "pitch": 57, "duration": 3, "velocity": 71}, {"time": 659, "pitch": 64, "duration": 3, "velocity": 71}, {"time": 662, "pitch": 60, "duration": 4, "velocity": 71}, {"time": 665, "pitch": 62, "duration": 3, "velocity": 71}, {"time": 668, "pitch": 57, "duration": 3, "velocity": 71}, {"time": 671, "pitch": 64, "duration": 3, "velocity": 71}, {"time": 674, "pitch": 60, "duration": 4, "velocity": 71}, {"time": 677, "pitch": 62, "duration": 3, "velocity": 71}, {"time": 680, "pitch": 57, "duration": 3, "velocity": 71}, {"time": 683, "pitch": 64, "duration": 4, "velocity": 71}, {"time": 686, "pitch": 60, "duration": 4, "velocity": 71}, {"time": 689, "pitch": 62, "duration": 3, "velocity": 71}, {"time": 692, "pitch": 67, "duration": 3, "velocity": 71}, {"time": 695, "pitch": 64, "duration": 4, "velocity": 71}, {"time": 698, "pitch": 60, "duration": 4, "velocity": 72}, {"time": 701, "pitch": 62, "duration": 3, "velocity": 72}, {"time": 704, "pitch": 67, "duration": 3, "velocity": 72}, {"time": 707, "pitch": 64, "duration": 4, "velocity": 72}, {"time": 710, "pitch": 60, "duration": 3, "velocity": 72}, {"time": 713, "pitch": 62, "duration": 4, "velocity": 72}, {"time": 716, "pitch": 64, "duration": 3, "velocity": 72}, {"time": 719, "pitch": 64, "duration": 3, "velocity": 72}, {"time": 722, "pitch": 60, "duration": 4, "velocity": 72}, {"time": 725, "pitch": 62, "duration": 3, "velocity": 72}, {"time": 728, "pitch": 57, "duration": 4, "velocity": 74}, {"time": 731, "pitch": 64, "duration": 3, "velocity": 75}, {"time": 734, "pitch": 60, "duration": 6, "velocity": 76}, {"time": 737, "pitch": 62, "duration": 3, "velocity": 76}, {"time": 740, "pitch": 57, "duration": 3, "velocity": 75}, {"time": 743, "pitch": 64, "duration": 4, "velocity": 77}, {"time": 746, "pitch": 60, "duration": 4, "velocity": 77}, {"time": 749, "pitch": 62, "duration": 3, "velocity": 77}, {"time": 752, "pitch": 57, "duration": 4, "velocity": 77}, {"time": 755, "pitch": 60, "duration": 13, "velocity": 77}, {"time": 1325, "pitch": 72, "duration": 3, "velocity": 87}, {"time": 1328, "pitch": 74, "duration": 4, "velocity": 88}, {"time": 1331, "pitch": 76, "duration": 9, "velocity": 93}, {"time": 1340, "pitch": 77, "duration": 10, "velocity": 91}, {"time": 1349, "pitch": 79, "duration": 5, "velocity": 88}, {"time": 1355, "pitch": 79, "duration": 9, "velocity": 90}, {"time": 1364, "pitch": 77, "duration": 10, "velocity": 89}, {"time": 1373, "pitch": 76, "duration": 6, "velocity": 89}, {"time": 1379, "pitch": 74, "duration": 9, "velocity": 89}, {"time": 1412, "pitch": 96, "duration": 3, "velocity": 116}, {"time": 1415, "pitch": 95, "duration": 3, "velocity": 96}, {"time": 1418, "pitch": 91, "duration": 3, "velocity": 102}, {"time": 1421, "pitch": 86, "duration": 3, "velocity": 96}, {"time": 1424, "pitch": 84, "duration": 3, "velocity": 89}, {"time": 1427, "pitch": 83, "duration": 3, "velocity": 98}, {"time": 1430, "pitch": 79, "duration": 3, "velocity": 91}, {"time": 1433, "pitch": 74, "duration": 3, "velocity": 94}, {"time": 1436, "pitch": 72, "duration": 3, "velocity": 91}, {"time": 1439, "pitch": 71, "duration": 3, "velocity": 89}, {"time": 1442, "pitch": 67, "duration": 3, "velocity": 93}, {"time": 1445, "pitch": 62, "duration": 3, "velocity": 91}, {"time": 1448, "pitch": 60, "duration": 3, "velocity": 91}, {"time": 1511, "pitch": 71, "duration": 3, "velocity": 90}, {"time": 1514, "pitch": 72, "duration": 6, "velocity": 88}, {"time": 1520, "pitch": 79, "duration": 11, "velocity": 107}, {"time": 1607, "pitch": 71, "duration": 3, "velocity": 96}, {"time": 1610, "pitch": 72, "duration": 3, "velocity": 88}, {"time": 1613, "pitch": 79, "duration": 3, "velocity": 93}, {"time": 1616, "pitch": 74, "duration": 20, "velocity": 94}, {"time": 2051, "pitch": 76, "duration": 14, "velocity": 93}, {"time": 2051, "pitch": 88, "duration": 14, "velocity": 110}, {"time": 2147, "pitch": 86, "duration": 12, "velocity": 116}, {"time": 2243, "pitch": 88, "duration": 48, "velocity": 114}, {"time": 2651, "pitch": 61, "duration": 7, "velocity": 125}, {"time": 2660, "pitch": 62, "duration": 6, "velocity": 127}, {"time": 2667, "pitch": 64, "duration": 6, "velocity": 127}, {"time": 2676, "pitch": 64, "duration": 39, "velocity": 127}, {"time": 2771, "pitch": 55, "duration": 3, "velocity": 95}, {"time": 2773, "pitch": 59, "duration": 3, "velocity": 98}, {"time": 2774, "pitch": 62, "duration": 3, "velocity": 99}, {"time": 2776, "pitch": 67, "duration": 2, "velocity": 101}, {"time": 2777, "pitch": 55, "duration": 3, "velocity": 102}, {"time": 2779, "pitch": 59, "duration": 3, "velocity": 105}, {"time": 2780, "pitch": 62, "duration": 2, "velocity": 106}, {"time": 2782, "pitch": 67, "duration": 2, "velocity": 107}, {"time": 2783, "pitch": 59, "duration": 3, "velocity": 107}, {"time": 2785, "pitch": 62, "duration": 3, "velocity": 109}, {"time": 2786, "pitch": 67, "duration": 2, "velocity": 110}, {"time": 2788, "pitch": 71, "duration": 2, "velocity": 110}, {"time": 2789, "pitch": 59, "duration": 2, "velocity": 110}, {"time": 2791, "pitch": 62, "duration": 2, "velocity": 110}, {"time": 2792, "pitch": 67, "duration": 2, "velocity": 110}, {"time": 2794, "pitch": 71, "duration": 1, "velocity": 110}, {"time": 2795, "pitch": 62, "duration": 2, "velocity": 110}, {"time": 2797, "pitch": 67, "duration": 2, "velocity": 110}, {"time": 2798, "pitch": 71, "duration": 2, "velocity": 110}, {"time": 2800, "pitch": 74, "duration": 2, "velocity": 110}, {"time": 2801, "pitch": 62, "duration": 2, "velocity": 110}, {"time": 2803, "pitch": 67, "duration": 2, "velocity": 110}, {"time": 2804, "pitch": 71, "duration": 2, "velocity": 110}, {"time": 2806, "pitch": 74, "duration": 1, "velocity": 110}, {"time": 2807, "pitch": 67, "duration": 2, "velocity": 110}, {"time": 2809, "pitch": 71, "duration": 2, "velocity": 110}, {"time": 2810, "pitch": 74, "duration": 2, "velocity": 111}, {"time": 2812, "pitch": 79, "duration": 2, "velocity": 112}, {"time": 2813, "pitch": 67, "duration": 2, "velocity": 112}, {"time": 2815, "pitch": 71, "duration": 1, "velocity": 112}, {"time": 2816, "pitch": 74, "duration": 2, "velocity": 112}, {"time": 2818, "pitch": 79, "duration": 1, "velocity": 112}, {"time": 2819, "pitch": 68, "duration": 2, "velocity": 113}, {"time": 2821, "pitch": 72, "duration": 2, "velocity": 113}, {"time": 2822, "pitch": 75, "duration": 3, "velocity": 114}, {"time": 2824, "pitch": 80, "duration": 2, "velocity": 116}, {"time": 2825, "pitch": 68, "duration": 2, "velocity": 116}, {"time": 2827, "pitch": 72, "duration": 3, "velocity": 117}, {"time": 2828, "pitch": 75, "duration": 2, "velocity": 118}, {"time": 2830, "pitch": 80, "duration": 1, "velocity": 120}, {"time": 2831, "pitch": 72, "duration": 2, "velocity": 120}, {"time": 2833, "pitch": 75, "duration": 2, "velocity": 122}, {"time": 2834, "pitch": 80, "duration": 2, "velocity": 125}, {"time": 2836, "pitch": 84, "duration": 2, "velocity": 124}, {"time": 2837, "pitch": 72, "duration": 2, "velocity": 127}, {"time": 2839, "pitch": 75, "duration": 2, "velocity": 127}, {"time": 2840, "pitch": 80, "duration": 2, "velocity": 127}, {"time": 2842, "pitch": 84, "duration": 1, "velocity": 127}, {"time": 2843, "pitch": 68, "duration": 2, "velocity": 127}, {"time": 2843, "pitch": 72, "duration": 2, "velocity": 127}, {"time": 2843, "pitch": 75, "duration": 2, "velocity": 127}, {"time": 2843, "pitch": 80, "duration": 2, "velocity": 127}, {"time": 2843, "pitch": 84, "duration": 2, "velocity": 127}, {"time": 2846, "pitch": 68, "duration": 2, "velocity": 111}, {"time": 2846, "pitch": 72, "duration": 2, "velocity": 124}, {"time": 2846, "pitch": 75, "duration": 2, "velocity": 127}, {"time": 2846, "pitch": 80, "duration": 2, "velocity": 127}, {"time": 2846, "pitch": 84, "duration": 2, "velocity": 127}, {"time": 2867, "pitch": 77, "duration": 14, "velocity": 93}, {"time": 2867, "pitch": 89, "duration": 14, "velocity": 110}, {"time": 2963, "pitch": 87, "duration": 21, "velocity": 116}, {"time": 2987, "pitch": 85, "duration": 7, "velocity": 110}, {"time": 3059, "pitch": 89, "duration": 48, "velocity": 114}, {"time": 3347, "pitch": 73, "duration": 5, "velocity": 123}, {"time": 3353, "pitch": 68, "duration": 5, "velocity": 116}, {"time": 3359, "pitch": 73, "duration": 5, "velocity": 123}, {"time": 3365, "pitch": 75, "duration": 4, "velocity": 119}, {"time": 3371, "pitch": 77, "duration": 4, "velocity": 119}, {"time": 3383, "pitch": 77, "duration": 5, "velocity": 117}, {"time": 3389, "pitch": 80, "duration": 5, "velocity": 119}, {"time": 3395, "pitch": 82, "duration": 6, "velocity": 119}, {"time": 3401, "pitch": 80, "duration": 5, "velocity": 116}, {"time": 3407, "pitch": 82, "duration": 4, "velocity": 119}, {"time": 3413, "pitch": 85, "duration": 4, "velocity": 123}, {"time": 3419, "pitch": 87, "duration": 6, "velocity": 117}, {"time": 3464, "pitch": 90, "duration": 3, "velocity": 113}, {"time": 3467, "pitch": 87, "duration": 3, "velocity": 100}, {"time": 3470, "pitch": 85, "duration": 2, "velocity": 91}, {"time": 3473, "pitch": 81, "duration": 3, "velocity": 83}, {"time": 3476, "pitch": 78, "duration": 4, "velocity": 100}, {"time": 3480, "pitch": 75, "duration": 4, "velocity": 91}, {"time": 3483, "pitch": 73, "duration": 1, "velocity": 92}, {"time": 3487, "pitch": 69, "duration": 3, "velocity": 100}, {"time": 3490, "pitch": 66, "duration": 2, "velocity": 88}, {"time": 3494, "pitch": 63, "duration": 6, "velocity": 87}, {"time": 3499, "pitch": 61, "duration": 5, "velocity": 94}, {"time": 3505, "pitch": 57, "duration": 5, "velocity": 97}, {"time": 3511, "pitch": 54, "duration": 5, "velocity": 89}]}, {"program": 0, "is_drum": false, "name": "PIANO", "notes": [{"time": 35, "pitch": 48, "duration": 21, "velocity": 76}, {"time": 35, "pitch": 60, "duration": 11, "velocity": 73}, {"time": 35, "pitch": 64, "duration": 11, "velocity": 80}, {"time": 35, "pitch": 67, "duration": 10, "velocity": 80}, {"time": 47, "pitch": 60, "duration": 8, "velocity": 71}, {"time": 47, "pitch": 64, "duration": 8, "velocity": 81}, {"time": 47, "pitch": 67, "duration": 7, "velocity": 85}, {"time": 59, "pitch": 48, "duration": 23, "velocity": 80}, {"time": 59, "pitch": 60, "duration": 9, "velocity": 78}, {"time": 59, "pitch": 64, "duration": 9, "velocity": 80}, {"time": 59, "pitch": 69, "duration": 8, "velocity": 85}, {"time": 71, "pitch": 60, "duration": 9, "velocity": 80}, {"time": 71, "pitch": 64, "duration": 9, "velocity": 80}, {"time": 71, "pitch": 69, "duration": 8, "velocity": 82}, {"time": 83, "pitch": 45, "duration": 21, "velocity": 62}, {"time": 83, "pitch": 57, "duration": 21, "velocity": 68}, {"time": 83, "pitch": 60, "duration": 8, "velocity": 78}, {"time": 83, "pitch": 64, "duration": 8, "velocity": 81}, {"time": 83, "pitch": 69, "duration": 8, "velocity": 83}, {"time": 95, "pitch": 60, "duration": 8, "velocity": 78}, {"time": 95, "pitch": 64, "duration": 8, "velocity": 82}, {"time": 95, "pitch": 69, "duration": 8, "velocity": 81}, {"time": 107, "pitch": 43, "duration": 23, "velocity": 76}, {"time": 107, "pitch": 60, "duration": 9, "velocity": 74}, {"time": 107, "pitch": 64, "duration": 9, "velocity": 79}, {"time": 107, "pitch": 69, "duration": 7, "velocity": 83}, {"time": 119, "pitch": 60, "duration": 7, "velocity": 82}, {"time": 119, "pitch": 64, "duration": 8, "velocity": 87}, {"time": 119, "pitch": 69, "duration": 7, "velocity": 86}, {"time": 131, "pitch": 41, "duration": 43, "velocity": 84}, {"time": 131, "pitch": 53, "duration": 30, "velocity": 83}, {"time": 131, "pitch": 60, "duration": 8, "velocity": 84}, {"time": 131, "pitch": 65, "duration": 8, "velocity": 88}, {"time": 131, "pitch": 69, "duration": 8, "velocity": 88}, {"time": 143, "pitch": 60, "duration": 10, "velocity": 84}, {"time": 143, "pitch": 65, "duration": 10, "velocity": 88}, {"time": 143, "pitch": 69, "duration": 10, "velocity": 87}, {"time": 155, "pitch": 60, "duration": 9, "velocity": 83}, {"time": 155, "pitch": 65, "duration": 9, "velocity": 87}, {"time": 155, "pitch": 69, "duration": 10, "velocity": 85}, {"time": 161, "pitch": 53, "duration": 10, "velocity": 77}, {"time": 167, "pitch": 60, "duration": 6, "velocity": 86}, {"time": 167, "pitch": 65, "duration": 6, "velocity": 88}, {"time": 167, "pitch": 69, "duration": 6, "velocity": 87}, {"time": 179, "pitch": 41, "duration": 44, "velocity": 102}, {"time": 179, "pitch": 65, "duration": 10, "velocity": 96}, {"time": 179, "pitch": 68, "duration": 9, "velocity": 109}, {"time": 179, "pitch": 74, "duration": 10, "velocity": 93}, {"time": 191, "pitch": 65, "duration": 10, "velocity": 87}, {"time": 191, "pitch": 68, "duration": 10, "velocity": 91}, {"time": 191, "pitch": 74, "duration": 9, "velocity": 88}, {"time": 203, "pitch": 65, "duration": 8, "velocity": 88}, {"time": 203, "pitch": 68, "duration": 9, "velocity": 90}, {"time": 203, "pitch": 74, "duration": 8, "velocity": 88}, {"time": 215, "pitch": 65, "duration": 7, "velocity": 87}, {"time": 215, "pitch": 68, "duration": 9, "velocity": 87}, {"time": 215, "pitch": 74, "duration": 8, "velocity": 86}, {"time": 227, "pitch": 41, "duration": 16, "velocity": 88}, {"time": 227, "pitch": 60, "duration": 15, "velocity": 86}, {"time": 227, "pitch": 65, "duration": 16, "velocity": 88}, {"time": 227, "pitch": 69, "duration": 16, "velocity": 88}, {"time": 245, "pitch": 42, "duration": 23, "velocity": 82}, {"time": 245, "pitch": 62, "duration": 27, "velocity": 87}, {"time": 245, "pitch": 65, "duration": 23, "velocity": 90}, {"time": 245, "pitch": 69, "duration": 23, "velocity": 87}, {"time": 275, "pitch": 43, "duration": 43, "velocity": 84}, {"time": 275, "pitch": 59, "duration": 9, "velocity": 84}, {"time": 275, "pitch": 62, "duration": 9, "velocity": 87}, {"time": 275, "pitch": 67, "duration": 7, "velocity": 86}, {"time": 287, "pitch": 59, "duration": 10, "velocity": 73}, {"time": 287, "pitch": 62, "duration": 9, "velocity": 76}, {"time": 287, "pitch": 67, "duration": 9, "velocity": 83}, {"time": 299, "pitch": 59, "duration": 9, "velocity": 67}, {"time": 299, "pitch": 62, "duration": 9, "velocity": 68}, {"time": 299, "pitch": 67, "duration": 8, "velocity": 71}, {"time": 311, "pitch": 59, "duration": 5, "velocity": 77}, {"time": 311, "pitch": 62, "duration": 8, "velocity": 80}, {"time": 311, "pitch": 67, "duration": 7, "velocity": 83}, {"time": 323, "pitch": 43, "duration": 25, "velocity": 73}, {"time": 323, "pitch": 59, "duration": 24, "velocity": 73}, {"time": 323, "pitch": 62, "duration": 24, "velocity": 77}, {"time": 323, "pitch": 67, "duration": 24, "velocity": 75}, {"time": 371, "pitch": 48, "duration": 17, "velocity": 80}, {"time": 371, "pitch": 60, "duration": 17, "velocity": 74}, {"time": 371, "pitch": 64, "duration": 18, "velocity": 77}, {"time": 371, "pitch": 67, "duration": 16, "velocity": 80}, {"time": 395, "pitch": 47, "duration": 22, "velocity": 70}, {"time": 395, "pitch": 59, "duration": 19, "velocity": 70}, {"time": 395, "pitch": 62, "duration": 22, "velocity": 73}, {"time": 395, "pitch": 67, "duration": 18, "velocity": 67}, {"time": 419, "pitch": 45, "duration": 39, "velocity": 70}, {"time": 419, "pitch": 57, "duration": 38, "velocity": 63}, {"time": 419, "pitch": 60, "duration": 39, "velocity": 69}, {"time": 419, "pitch": 64, "duration": 39, "velocity": 72}, {"time": 419, "pitch": 67, "duration": 38, "velocity": 70}, {"time": 467, "pitch": 41, "duration": 13, "velocity": 77}, {"time": 467, "pitch": 53, "duration": 13, "velocity": 81}, {"time": 467, "pitch": 60, "duration": 19, "velocity": 68}, {"time": 467, "pitch": 65, "duration": 18, "velocity": 67}, {"time": 467, "pitch": 69, "duration": 21, "velocity": 75}, {"time": 491, "pitch": 42, "duration": 13, "velocity": 71}, {"time": 491, "pitch": 54, "duration": 14, "velocity": 72}, {"time": 491, "pitch": 62, "duration": 20, "velocity": 82}, {"time": 491, "pitch": 66, "duration": 19, "velocity": 79}, {"time": 491, "pitch": 69, "duration": 19, "velocity": 78}, {"time": 515, "pitch": 43, "duration": 41, "velocity": 68}, {"time": 515, "pitch": 55, "duration": 43, "velocity": 68}, {"time": 515, "pitch": 59, "duration": 43, "velocity": 67}, {"time": 515, "pitch": 62, "duration": 43, "velocity": 64}, {"time": 515, "pitch": 67, "duration": 42, "velocity": 77}, {"time": 563, "pitch": 41, "duration": 19, "velocity": 82}, {"time": 569, "pitch": 53, "duration": 16, "velocity": 69}, {"time": 575, "pitch": 57, "duration": 13, "velocity": 77}, {"time": 581, "pitch": 65, "duration": 7, "velocity": 83}, {"time": 587, "pitch": 43, "duration": 14, "velocity": 85}, {"time": 593, "pitch": 55, "duration": 7, "velocity": 76}, {"time": 599, "pitch": 59, "duration": 14, "velocity": 87}, {"time": 599, "pitch": 67, "duration": 13, "velocity": 87}, {"time": 605, "pitch": 42, "duration": 7, "velocity": 73}, {"time": 611, "pitch": 40, "duration": 9, "velocity": 88}, {"time": 617, "pitch": 52, "duration": 18, "velocity": 82}, {"time": 623, "pitch": 44, "duration": 9, "velocity": 88}, {"time": 623, "pitch": 59, "duration": 13, "velocity": 87}, {"time": 623, "pitch": 67, "duration": 2, "velocity": 84}, {"time": 629, "pitch": 64, "duration": 9, "velocity": 83}, {"time": 635, "pitch": 45, "duration": 19, "velocity": 85}, {"time": 635, "pitch": 60, "duration": 17, "velocity": 73}, {"time": 641, "pitch": 52, "duration": 13, "velocity": 68}, {"time": 647, "pitch": 57, "duration": 6, "velocity": 83}, {"time": 653, "pitch": 64, "duration": 5, "velocity": 79}, {"time": 659, "pitch": 42, "duration": 18, "velocity": 85}, {"time": 665, "pitch": 54, "duration": 18, "velocity": 61}, {"time": 671, "pitch": 57, "duration": 9, "velocity": 70}, {"time": 677, "pitch": 64, "duration": 6, "velocity": 73}, {"time": 683, "pitch": 43, "duration": 16, "velocity": 70}, {"time": 683, "pitch": 59, "duration": 9, "velocity": 79}, {"time": 683, "pitch": 67, "duration": 7, "velocity": 81}, {"time": 689, "pitch": 55, "duration": 17, "velocity": 44}, {"time": 695, "pitch": 59, "duration": 7, "velocity": 76}, {"time": 695, "pitch": 67, "duration": 10, "velocity": 78}, {"time": 707, "pitch": 48, "duration": 37, "velocity": 72}, {"time": 707, "pitch": 60, "duration": 7, "velocity": 75}, {"time": 707, "pitch": 65, "duration": 6, "velocity": 73}, {"time": 713, "pitch": 55, "duration": 7, "velocity": 38}, {"time": 719, "pitch": 60, "duration": 6, "velocity": 83}, {"time": 719, "pitch": 65, "duration": 7, "velocity": 79}, {"time": 725, "pitch": 55, "duration": 19, "velocity": 50}, {"time": 731, "pitch": 60, "duration": 13, "velocity": 71}, {"time": 731, "pitch": 64, "duration": 13, "velocity": 78}, {"time": 755, "pitch": 45, "duration": 18, "velocity": 85}, {"time": 758, "pitch": 52, "duration": 14, "velocity": 76}, {"time": 761, "pitch": 57, "duration": 11, "velocity": 84}, {"time": 764, "pitch": 59, "duration": 2, "velocity": 83}, {"time": 767, "pitch": 60, "duration": 2, "velocity": 102}, {"time": 773, "pitch": 64, "duration": 5, "velocity": 89}, {"time": 779, "pitch": 40, "duration": 18, "velocity": 87}, {"time": 779, "pitch": 59, "duration": 3, "velocity": 84}, {"time": 779, "pitch": 67, "duration": 8, "velocity": 87}, {"time": 788, "pitch": 52, "duration": 10, "velocity": 87}, {"time": 791, "pitch": 64, "duration": 4, "velocity": 98}, {"time": 794, "pitch": 67, "duration": 2, "velocity": 100}, {"time": 797, "pitch": 72, "duration": 5, "velocity": 107}, {"time": 803, "pitch": 41, "duration": 18, "velocity": 86}, {"time": 803, "pitch": 65, "duration": 5, "velocity": 74}, {"time": 803, "pitch": 69, "duration": 9, "velocity": 92}, {"time": 806, "pitch": 48, "duration": 16, "velocity": 76}, {"time": 809, "pitch": 53, "duration": 9, "velocity": 83}, {"time": 812, "pitch": 60, "duration": 3, "velocity": 75}, {"time": 815, "pitch": 65, "duration": 6, "velocity": 110}, {"time": 821, "pitch": 53, "duration": 2, "velocity": 32}, {"time": 821, "pitch": 69, "duration": 4, "velocity": 91}, {"time": 824, "pitch": 60, "duration": 5, "velocity": 80}, {"time": 824, "pitch": 67, "duration": 10, "velocity": 82}, {"time": 827, "pitch": 48, "duration": 19, "velocity": 86}, {"time": 830, "pitch": 55, "duration": 17, "velocity": 82}, {"time": 833, "pitch": 60, "duration": 7, "velocity": 88}, {"time": 836, "pitch": 64, "duration": 2, "velocity": 102}, {"time": 839, "pitch": 67, "duration": 5, "velocity": 119}, {"time": 845, "pitch": 60, "duration": 2, "velocity": 88}, {"time": 851, "pitch": 50, "duration": 18, "velocity": 93}, {"time": 854, "pitch": 57, "duration": 15, "velocity": 81}, {"time": 857, "pitch": 62, "duration": 11, "velocity": 91}, {"time": 860, "pitch": 65, "duration": 2, "velocity": 87}, {"time": 863, "pitch": 69, "duration": 6, "velocity": 104}, {"time": 869, "pitch": 65, "duration": 8, "velocity": 87}, {"time": 869, "pitch": 74, "duration": 8, "velocity": 92}, {"time": 872, "pitch": 69, "duration": 5, "velocity": 93}, {"time": 875, "pitch": 52, "duration": 15, "velocity": 92}, {"time": 878, "pitch": 59, "duration": 7, "velocity": 84}, {"time": 881, "pitch": 64, "duration": 2, "velocity": 98}, {"time": 884, "pitch": 71, "duration": 8, "velocity": 119}, {"time": 887, "pitch": 59, "duration": 2, "velocity": 98}, {"time": 890, "pitch": 64, "duration": 4, "velocity": 93}, {"time": 893, "pitch": 67, "duration": 3, "velocity": 102}, {"time": 896, "pitch": 71, "duration": 3, "velocity": 89}, {"time": 899, "pitch": 50, "duration": 7, "velocity": 100}, {"time": 899, "pitch": 60, "duration": 10, "velocity": 104}, {"time": 899, "pitch": 69, "duration": 11, "velocity": 113}, {"time": 905, "pitch": 53, "duration": 1, "velocity": 88}, {"time": 911, "pitch": 42, "duration": 7, "velocity": 100}, {"time": 911, "pitch": 62, "duration": 9, "velocity": 107}, {"time": 911, "pitch": 66, "duration": 7, "velocity": 116}, {"time": 911, "pitch": 69, "duration": 6, "velocity": 91}, {"time": 917, "pitch": 54, "duration": 1, "velocity": 84}, {"time": 923, "pitch": 43, "duration": 48, "velocity": 100}, {"time": 923, "pitch": 59, "duration": 3, "velocity": 81}, {"time": 923, "pitch": 62, "duration": 3, "velocity": 87}, {"time": 923, "pitch": 67, "duration": 4, "velocity": 104}, {"time": 926, "pitch": 50, "duration": 37, "velocity": 84}, {"time": 929, "pitch": 55, "duration": 6, "velocity": 100}, {"time": 932, "pitch": 71, "duration": 1, "velocity": 88}, {"time": 932, "pitch": 81, "duration": 1, "velocity": 88}, {"time": 935, "pitch": 71, "duration": 4, "velocity": 98}, {"time": 935, "pitch": 83, "duration": 4, "velocity": 116}, {"time": 938, "pitch": 55, "duration": 6, "velocity": 102}, {"time": 941, "pitch": 72, "duration": 1, "velocity": 87}, {"time": 941, "pitch": 84, "duration": 1, "velocity": 100}, {"time": 944, "pitch": 74, "duration": 3, "velocity": 108}, {"time": 944, "pitch": 86, "duration": 2, "velocity": 117}, {"time": 947, "pitch": 55, "duration": 6, "velocity": 84}, {"time": 956, "pitch": 55, "duration": 4, "velocity": 94}, {"time": 959, "pitch": 59, "duration": 3, "velocity": 119}, {"time": 959, "pitch": 67, "duration": 5, "velocity": 114}, {"time": 962, "pitch": 62, "duration": 3, "velocity": 87}, {"time": 965, "pitch": 50, "duration": 1, "velocity": 71}, {"time": 965, "pitch": 59, "duration": 1, "velocity": 104}, {"time": 971, "pitch": 36, "duration": 42, "velocity": 93}, {"time": 971, "pitch": 48, "duration": 42, "velocity": 93}, {"time": 971, "pitch": 64, "duration": 9, "velocity": 94}, {"time": 971, "pitch": 67, "duration": 9, "velocity": 104}, {"time": 971, "pitch": 72, "duration": 8, "velocity": 98}, {"time": 977, "pitch": 55, "duration": 20, "velocity": 74}, {"time": 980, "pitch": 60, "duration": 4, "velocity": 85}, {"time": 983, "pitch": 62, "duration": 5, "velocity": 110}, {"time": 983, "pitch": 67, "duration": 9, "velocity": 107}, {"time": 983, "pitch": 72, "duration": 9, "velocity": 96}, {"time": 989, "pitch": 60, "duration": 6, "velocity": 77}, {"time": 995, "pitch": 64, "duration": 11, "velocity": 104}, {"time": 995, "pitch": 67, "duration": 6, "velocity": 113}, {"time": 995, "pitch": 72, "duration": 5, "velocity": 100}, {"time": 1004, "pitch": 55, "duration": 9, "velocity": 89}, {"time": 1007, "pitch": 60, "duration": 4, "velocity": 107}, {"time": 1010, "pitch": 64, "duration": 4, "velocity": 116}, {"time": 1013, "pitch": 67, "duration": 5, "velocity": 116}, {"time": 1016, "pitch": 64, "duration": 13, "velocity": 88}, {"time": 1019, "pitch": 45, "duration": 15, "velocity": 88}, {"time": 1019, "pitch": 60, "duration": 10, "velocity": 88}, {"time": 1019, "pitch": 69, "duration": 9, "velocity": 94}, {"time": 1025, "pitch": 52, "duration": 10, "velocity": 73}, {"time": 1028, "pitch": 57, "duration": 5, "velocity": 87}, {"time": 1031, "pitch": 60, "duration": 6, "velocity": 113}, {"time": 1031, "pitch": 69, "duration": 6, "velocity": 113}, {"time": 1034, "pitch": 64, "duration": 8, "velocity": 81}, {"time": 1037, "pitch": 45, "duration": 2, "velocity": 88}, {"time": 1043, "pitch": 40, "duration": 23, "velocity": 89}, {"time": 1043, "pitch": 62, "duration": 7, "velocity": 94}, {"time": 1043, "pitch": 67, "duration": 7, "velocity": 107}, {"time": 1046, "pitch": 47, "duration": 20, "velocity": 77}, {"time": 1049, "pitch": 52, "duration": 4, "velocity": 89}, {"time": 1052, "pitch": 59, "duration": 6, "velocity": 96}, {"time": 1052, "pitch": 67, "duration": 5, "velocity": 107}, {"time": 1055, "pitch": 52, "duration": 10, "velocity": 100}, {"time": 1058, "pitch": 62, "duration": 2, "velocity": 104}, {"time": 1061, "pitch": 64, "duration": 5, "velocity": 108}, {"time": 1067, "pitch": 41, "duration": 21, "velocity": 94}, {"time": 1067, "pitch": 53, "duration": 21, "velocity": 94}, {"time": 1067, "pitch": 65, "duration": 9, "velocity": 107}, {"time": 1067, "pitch": 72, "duration": 9, "velocity": 107}, {"time": 1076, "pitch": 60, "duration": 12, "velocity": 88}, {"time": 1079, "pitch": 65, "duration": 9, "velocity": 113}, {"time": 1079, "pitch": 72, "duration": 4, "velocity": 102}, {"time": 1082, "pitch": 69, "duration": 7, "velocity": 88}, {"time": 1085, "pitch": 72, "duration": 5, "velocity": 87}, {"time": 1091, "pitch": 40, "duration": 20, "velocity": 96}, {"time": 1091, "pitch": 52, "duration": 20, "velocity": 96}, {"time": 1091, "pitch": 64, "duration": 9, "velocity": 110}, {"time": 1091, "pitch": 71, "duration": 15, "velocity": 110}, {"time": 1100, "pitch": 59, "duration": 4, "velocity": 87}, {"time": 1103, "pitch": 64, "duration": 4, "velocity": 107}, {"time": 1103, "pitch": 67, "duration": 4, "velocity": 119}, {"time": 1106, "pitch": 59, "duration": 5, "velocity": 104}, {"time": 1109, "pitch": 69, "duration": 5, "velocity": 102}, {"time": 1115, "pitch": 41, "duration": 10, "velocity": 104}, {"time": 1115, "pitch": 53, "duration": 10, "velocity": 104}, {"time": 1115, "pitch": 60, "duration": 8, "velocity": 108}, {"time": 1115, "pitch": 65, "duration": 10, "velocity": 114}, {"time": 1115, "pitch": 69, "duration": 9, "velocity": 107}, {"time": 1127, "pitch": 42, "duration": 4, "velocity": 85}, {"time": 1127, "pitch": 54, "duration": 5, "velocity": 87}, {"time": 1127, "pitch": 62, "duration": 9, "velocity": 96}, {"time": 1127, "pitch": 66, "duration": 7, "velocity": 95}, {"time": 1127, "pitch": 69, "duration": 6, "velocity": 88}, {"time": 1136, "pitch": 59, "duration": 9, "velocity": 74}, {"time": 1136, "pitch": 62, "duration": 2, "velocity": 87}, {"time": 1139, "pitch": 43, "duration": 18, "velocity": 87}, {"time": 1139, "pitch": 67, "duration": 8, "velocity": 89}, {"time": 1142, "pitch": 50, "duration": 16, "velocity": 88}, {"time": 1145, "pitch": 55, "duration": 16, "velocity": 93}, {"time": 1148, "pitch": 59, "duration": 4, "velocity": 90}, {"time": 1151, "pitch": 62, "duration": 2, "velocity": 87}, {"time": 1154, "pitch": 67, "duration": 1, "velocity": 96}, {"time": 1157, "pitch": 67, "duration": 4, "velocity": 89}, {"time": 1160, "pitch": 72, "duration": 3, "velocity": 82}, {"time": 1163, "pitch": 48, "duration": 18, "velocity": 88}, {"time": 1163, "pitch": 55, "duration": 9, "velocity": 89}, {"time": 1163, "pitch": 60, "duration": 9, "velocity": 92}, {"time": 1163, "pitch": 64, "duration": 7, "velocity": 94}, {"time": 1172, "pitch": 55, "duration": 9, "velocity": 78}, {"time": 1175, "pitch": 55, "duration": 6, "velocity": 93}, {"time": 1175, "pitch": 60, "duration": 10, "velocity": 100}, {"time": 1175, "pitch": 64, "duration": 11, "velocity": 90}, {"time": 1187, "pitch": 48, "duration": 14, "velocity": 87}, {"time": 1187, "pitch": 55, "duration": 9, "velocity": 83}, {"time": 1187, "pitch": 60, "duration": 9, "velocity": 89}, {"time": 1187, "pitch": 64, "duration": 8, "velocity": 86}, {"time": 1196, "pitch": 55, "duration": 6, "velocity": 84}, {"time": 1199, "pitch": 55, "duration": 3, "velocity": 104}, {"time": 1199, "pitch": 64, "duration": 10, "velocity": 93}, {"time": 1205, "pitch": 47, "duration": 6, "velocity": 84}, {"time": 1211, "pitch": 45, "duration": 15, "velocity": 88}, {"time": 1211, "pitch": 57, "duration": 8, "velocity": 89}, {"time": 1211, "pitch": 60, "duration": 8, "velocity": 91}, {"time": 1211, "pitch": 64, "duration": 8, "velocity": 86}, {"time": 1220, "pitch": 57, "duration": 5, "velocity": 76}, {"time": 1223, "pitch": 57, "duration": 2, "velocity": 96}, {"time": 1223, "pitch": 60, "duration": 11, "velocity": 100}, {"time": 1223, "pitch": 64, "duration": 10, "velocity": 89}, {"time": 1229, "pitch": 45, "duration": 3, "velocity": 77}, {"time": 1232, "pitch": 67, "duration": 7, "velocity": 79}, {"time": 1235, "pitch": 40, "duration": 18, "velocity": 87}, {"time": 1235, "pitch": 71, "duration": 3, "velocity": 76}, {"time": 1235, "pitch": 74, "duration": 4, "velocity": 93}, {"time": 1241, "pitch": 47, "duration": 13, "velocity": 77}, {"time": 1244, "pitch": 52, "duration": 10, "velocity": 92}, {"time": 1247, "pitch": 55, "duration": 3, "velocity": 104}, {"time": 1250, "pitch": 59, "duration": 2, "velocity": 108}, {"time": 1253, "pitch": 62, "duration": 5, "velocity": 113}, {"time": 1259, "pitch": 41, "duration": 21, "velocity": 88}, {"time": 1259, "pitch": 57, "duration": 9, "velocity": 88}, {"time": 1259, "pitch": 60, "duration": 10, "velocity": 89}, {"time": 1259, "pitch": 65, "duration": 9, "velocity": 89}, {"time": 1271, "pitch": 53, "duration": 3, "velocity": 38}, {"time": 1271, "pitch": 57, "duration": 6, "velocity": 94}, {"time": 1271, "pitch": 60, "duration": 6, "velocity": 96}, {"time": 1271, "pitch": 65, "duration": 7, "velocity": 91}, {"time": 1277, "pitch": 53, "duration": 2, "velocity": 86}, {"time": 1283, "pitch": 43, "duration": 18, "velocity": 82}, {"time": 1283, "pitch": 62, "duration": 8, "velocity": 86}, {"time": 1283, "pitch": 67, "duration": 5, "velocity": 88}, {"time": 1283, "pitch": 71, "duration": 5, "velocity": 87}, {"time": 1289, "pitch": 50, "duration": 12, "velocity": 65}, {"time": 1295, "pitch": 59, "duration": 8, "velocity": 87}, {"time": 1295, "pitch": 62, "duration": 12, "velocity": 87}, {"time": 1295, "pitch": 67, "duration": 9, "velocity": 89}, {"time": 1307, "pitch": 36, "duration": 18, "velocity": 87}, {"time": 1307, "pitch": 48, "duration": 18, "velocity": 87}, {"time": 1307, "pitch": 64, "duration": 7, "velocity": 86}, {"time": 1307, "pitch": 67, "duration": 8, "velocity": 88}, {"time": 1307, "pitch": 72, "duration": 7, "velocity": 87}, {"time": 1313, "pitch": 55, "duration": 13, "velocity": 64}, {"time": 1319, "pitch": 60, "duration": 5, "velocity": 80}, {"time": 1319, "pitch": 64, "duration": 6, "velocity": 81}, {"time": 1319, "pitch": 67, "duration": 6, "velocity": 79}, {"time": 1319, "pitch": 72, "duration": 12, "velocity": 86}, {"time": 1331, "pitch": 46, "duration": 15, "velocity": 81}, {"time": 1331, "pitch": 58, "duration": 14, "velocity": 85}, {"time": 1331, "pitch": 67, "duration": 9, "velocity": 89}, {"time": 1331, "pitch": 70, "duration": 10, "velocity": 87}, {"time": 1331, "pitch": 76, "duration": 10, "velocity": 91}, {"time": 1343, "pitch": 67, "duration": 7, "velocity": 88}, {"time": 1343, "pitch": 70, "duration": 7, "velocity": 89}, {"time": 1343, "pitch": 76, "duration": 10, "velocity": 88}, {"time": 1352, "pitch": 69, "duration": 10, "velocity": 72}, {"time": 1352, "pitch": 72, "duration": 10, "velocity": 81}, {"time": 1355, "pitch": 41, "duration": 19, "velocity": 90}, {"time": 1355, "pitch": 79, "duration": 9, "velocity": 93}, {"time": 1361, "pitch": 53, "duration": 8, "velocity": 42}, {"time": 1367, "pitch": 69, "duration": 6, "velocity": 88}, {"time": 1367, "pitch": 72, "duration": 6, "velocity": 91}, {"time": 1367, "pitch": 79, "duration": 6, "velocity": 88}, {"time": 1373, "pitch": 53, "duration": 6, "velocity": 81}, {"time": 1376, "pitch": 67, "duration": 9, "velocity": 71}, {"time": 1376, "pitch": 71, "duration": 7, "velocity": 85}, {"time": 1379, "pitch": 43, "duration": 44, "velocity": 87}, {"time": 1379, "pitch": 77, "duration": 5, "velocity": 91}, {"time": 1385, "pitch": 50, "duration": 38, "velocity": 71}, {"time": 1388, "pitch": 55, "duration": 35, "velocity": 83}, {"time": 1391, "pitch": 60, "duration": 6, "velocity": 88}, {"time": 1397, "pitch": 62, "duration": 2, "velocity": 79}, {"time": 1400, "pitch": 60, "duration": 2, "velocity": 66}, {"time": 1403, "pitch": 59, "duration": 14, "velocity": 76}, {"time": 1451, "pitch": 48, "duration": 17, "velocity": 80}, {"time": 1451, "pitch": 60, "duration": 17, "velocity": 74}, {"time": 1451, "pitch": 64, "duration": 18, "velocity": 77}, {"time": 1451, "pitch": 67, "duration": 16, "velocity": 80}, {"time": 1475, "pitch": 47, "duration": 22, "velocity": 70}, {"time": 1475, "pitch": 59, "duration": 19, "velocity": 70}, {"time": 1475, "pitch": 62, "duration": 22, "velocity": 73}, {"time": 1475, "pitch": 67, "duration": 18, "velocity": 67}, {"time": 1499, "pitch": 45, "duration": 39, "velocity": 70}, {"time": 1499, "pitch": 57, "duration": 38, "velocity": 63}, {"time": 1499, "pitch": 60, "duration": 39, "velocity": 69}, {"time": 1499, "pitch": 64, "duration": 39, "velocity": 72}, {"time": 1499, "pitch": 67, "duration": 38, "velocity": 70}, {"time": 1547, "pitch": 41, "duration": 13, "velocity": 77}, {"time": 1547, "pitch": 53, "duration": 13, "velocity": 81}, {"time": 1547, "pitch": 60, "duration": 19, "velocity": 68}, {"time": 1547, "pitch": 65, "duration": 18, "velocity": 67}, {"time": 1547, "pitch": 69, "duration": 21, "velocity": 75}, {"time": 1571, "pitch": 42, "duration": 13, "velocity": 71}, {"time": 1571, "pitch": 54, "duration": 14, "velocity": 72}, {"time": 1571, "pitch": 62, "duration": 20, "velocity": 82}, {"time": 1571, "pitch": 66, "duration": 19, "velocity": 79}, {"time": 1571, "pitch": 69, "duration": 19, "velocity": 78}, {"time": 1595, "pitch": 43, "duration": 41, "velocity": 68}, {"time": 1595, "pitch": 55, "duration": 43, "velocity": 68}, {"time": 1595, "pitch": 59, "duration": 43, "velocity": 67}, {"time": 1595, "pitch": 62, "duration": 43, "velocity": 64}, {"time": 1595, "pitch": 67, "duration": 42, "velocity": 77}, {"time": 1643, "pitch": 41, "duration": 19, "velocity": 82}, {"time": 1649, "pitch": 53, "duration": 16, "velocity": 69}, {"time": 1655, "pitch": 57, "duration": 13, "velocity": 77}, {"time": 1661, "pitch": 65, "duration": 7, "velocity": 83}, {"time": 1667, "pitch": 43, "duration": 14, "velocity": 85}, {"time": 1673, "pitch": 55, "duration": 7, "velocity": 76}, {"time": 1679, "pitch": 59, "duration": 14, "velocity": 87}, {"time": 1679, "pitch": 67, "duration": 13, "velocity": 87}, {"time": 1685, "pitch": 42, "duration": 7, "velocity": 73}, {"time": 1691, "pitch": 40, "duration": 18, "velocity": 88}, {"time": 1697, "pitch": 52, "duration": 18, "velocity": 82}, {"time": 1703, "pitch": 59, "duration": 13, "velocity": 87}, {"time": 1703, "pitch": 67, "duration": 2, "velocity": 84}, {"time": 1709, "pitch": 64, "duration": 9, "velocity": 83}, {"time": 1715, "pitch": 45, "duration": 19, "velocity": 85}, {"time": 1715, "pitch": 60, "duration": 17, "velocity": 73}, {"time": 1721, "pitch": 52, "duration": 13, "velocity": 68}, {"time": 1727, "pitch": 57, "duration": 6, "velocity": 83}, {"time": 1733, "pitch": 64, "duration": 5, "velocity": 79}, {"time": 1739, "pitch": 42, "duration": 18, "velocity": 85}, {"time": 1745, "pitch": 53, "duration": 18, "velocity": 61}, {"time": 1751, "pitch": 57, "duration": 9, "velocity": 70}, {"time": 1757, "pitch": 64, "duration": 6, "velocity": 73}, {"time": 1763, "pitch": 43, "duration": 16, "velocity": 70}, {"time": 1763, "pitch": 59, "duration": 9, "velocity": 79}, {"time": 1763, "pitch": 67, "duration": 7, "velocity": 81}, {"time": 1769, "pitch": 55, "duration": 17, "velocity": 44}, {"time": 1775, "pitch": 59, "duration": 7, "velocity": 76}, {"time": 1775, "pitch": 67, "duration": 10, "velocity": 78}, {"time": 1787, "pitch": 48, "duration": 37, "velocity": 72}, {"time": 1787, "pitch": 60, "duration": 7, "velocity": 75}, {"time": 1787, "pitch": 65, "duration": 6, "velocity": 73}, {"time": 1793, "pitch": 55, "duration": 7, "velocity": 38}, {"time": 1799, "pitch": 60, "duration": 6, "velocity": 83}, {"time": 1799, "pitch": 65, "duration": 7, "velocity": 79}, {"time": 1805, "pitch": 55, "duration": 19, "velocity": 50}, {"time": 1811, "pitch": 60, "duration": 13, "velocity": 71}, {"time": 1811, "pitch": 64, "duration": 13, "velocity": 78}, {"time": 1835, "pitch": 45, "duration": 14, "velocity": 76}, {"time": 1835, "pitch": 60, "duration": 7, "velocity": 75}, {"time": 1835, "pitch": 64, "duration": 7, "velocity": 78}, {"time": 1835, "pitch": 69, "duration": 7, "velocity": 78}, {"time": 1847, "pitch": 60, "duration": 7, "velocity": 79}, {"time": 1847, "pitch": 64, "duration": 7, "velocity": 81}, {"time": 1847, "pitch": 69, "duration": 6, "velocity": 83}, {"time": 1859, "pitch": 40, "duration": 18, "velocity": 84}, {"time": 1859, "pitch": 59, "duration": 8, "velocity": 81}, {"time": 1859, "pitch": 64, "duration": 8, "velocity": 84}, {"time": 1859, "pitch": 67, "duration": 7, "velocity": 84}, {"time": 1871, "pitch": 59, "duration": 6, "velocity": 82}, {"time": 1871, "pitch": 64, "duration": 7, "velocity": 80}, {"time": 1871, "pitch": 67, "duration": 6, "velocity": 83}, {"time": 1883, "pitch": 41, "duration": 15, "velocity": 86}, {"time": 1883, "pitch": 60, "duration": 8, "velocity": 82}, {"time": 1883, "pitch": 65, "duration": 8, "velocity": 86}, {"time": 1883, "pitch": 69, "duration": 8, "velocity": 87}, {"time": 1895, "pitch": 60, "duration": 10, "velocity": 84}, {"time": 1895, "pitch": 65, "duration": 8, "velocity": 88}, {"time": 1895, "pitch": 69, "duration": 9, "velocity": 86}, {"time": 1907, "pitch": 48, "duration": 17, "velocity": 81}, {"time": 1907, "pitch": 60, "duration": 9, "velocity": 84}, {"time": 1907, "pitch": 64, "duration": 9, "velocity": 84}, {"time": 1907, "pitch": 67, "duration": 8, "velocity": 84}, {"time": 1919, "pitch": 60, "duration": 6, "velocity": 83}, {"time": 1919, "pitch": 64, "duration": 6, "velocity": 86}, {"time": 1919, "pitch": 67, "duration": 6, "velocity": 86}, {"time": 1931, "pitch": 38, "duration": 19, "velocity": 98}, {"time": 1931, "pitch": 57, "duration": 8, "velocity": 88}, {"time": 1931, "pitch": 60, "duration": 9, "velocity": 91}, {"time": 1931, "pitch": 62, "duration": 8, "velocity": 91}, {"time": 1931, "pitch": 65, "duration": 8, "velocity": 90}, {"time": 1940, "pitch": 50, "duration": 6, "velocity": 73}, {"time": 1943, "pitch": 57, "duration": 6, "velocity": 96}, {"time": 1943, "pitch": 60, "duration": 7, "velocity": 104}, {"time": 1943, "pitch": 65, "duration": 6, "velocity": 94}, {"time": 1955, "pitch": 40, "duration": 19, "velocity": 85}, {"time": 1955, "pitch": 52, "duration": 7, "velocity": 86}, {"time": 1955, "pitch": 59, "duration": 9, "velocity": 88}, {"time": 1955, "pitch": 64, "duration": 9, "velocity": 90}, {"time": 1955, "pitch": 67, "duration": 9, "velocity": 89}, {"time": 1964, "pitch": 52, "duration": 6, "velocity": 77}, {"time": 1967, "pitch": 59, "duration": 7, "velocity": 92}, {"time": 1967, "pitch": 64, "duration": 7, "velocity": 100}, {"time": 1967, "pitch": 67, "duration": 7, "velocity": 96}, {"time": 1973, "pitch": 52, "duration": 3, "velocity": 81}, {"time": 1979, "pitch": 41, "duration": 7, "velocity": 93}, {"time": 1979, "pitch": 57, "duration": 6, "velocity": 94}, {"time": 1979, "pitch": 60, "duration": 6, "velocity": 102}, {"time": 1979, "pitch": 65, "duration": 7, "velocity": 93}, {"time": 1991, "pitch": 42, "duration": 5, "velocity": 90}, {"time": 1991, "pitch": 57, "duration": 6, "velocity": 91}, {"time": 1991, "pitch": 62, "duration": 6, "velocity": 102}, {"time": 1991, "pitch": 66, "duration": 6, "velocity": 100}, {"time": 2003, "pitch": 43, "duration": 19, "velocity": 96}, {"time": 2003, "pitch": 59, "duration": 10, "velocity": 91}, {"time": 2003, "pitch": 62, "duration": 10, "velocity": 110}, {"time": 2003, "pitch": 67, "duration": 11, "velocity": 107}, {"time": 2009, "pitch": 50, "duration": 12, "velocity": 71}, {"time": 2012, "pitch": 55, "duration": 9, "velocity": 87}, {"time": 2015, "pitch": 60, "duration": 5, "velocity": 98}, {"time": 2021, "pitch": 62, "duration": 3, "velocity": 98}, {"time": 2024, "pitch": 59, "duration": 6, "velocity": 77}, {"time": 2024, "pitch": 60, "duration": 2, "velocity": 72}, {"time": 2026, "pitch": 62, "duration": 5, "velocity": 86}, {"time": 2027, "pitch": 43, "duration": 5, "velocity": 88}, {"time": 2027, "pitch": 55, "duration": 5, "velocity": 89}, {"time": 2027, "pitch": 67, "duration": 5, "velocity": 104}, {"time": 2051, "pitch": 36, "duration": 42, "velocity": 93}, {"time": 2051, "pitch": 48, "duration": 42, "velocity": 93}, {"time": 2051, "pitch": 64, "duration": 9, "velocity": 94}, {"time": 2051, "pitch": 67, "duration": 9, "velocity": 104}, {"time": 2051, "pitch": 72, "duration": 8, "velocity": 98}, {"time": 2057, "pitch": 55, "duration": 20, "velocity": 74}, {"time": 2060, "pitch": 60, "duration": 4, "velocity": 85}, {"time": 2063, "pitch": 62, "duration": 5, "velocity": 110}, {"time": 2063, "pitch": 67, "duration": 9, "velocity": 107}, {"time": 2063, "pitch": 72, "duration": 9, "velocity": 96}, {"time": 2069, "pitch": 60, "duration": 6, "velocity": 77}, {"time": 2075, "pitch": 64, "duration": 11, "velocity": 104}, {"time": 2075, "pitch": 67, "duration": 6, "velocity": 113}, {"time": 2075, "pitch": 72, "duration": 5, "velocity": 100}, {"time": 2084, "pitch": 55, "duration": 9, "velocity": 89}, {"time": 2087, "pitch": 60, "duration": 4, "velocity": 107}, {"time": 2090, "pitch": 64, "duration": 4, "velocity": 116}, {"time": 2093, "pitch": 67, "duration": 5, "velocity": 116}, {"time": 2096, "pitch": 64, "duration": 13, "velocity": 88}, {"time": 2099, "pitch": 45, "duration": 15, "velocity": 88}, {"time": 2099, "pitch": 60, "duration": 10, "velocity": 88}, {"time": 2099, "pitch": 69, "duration": 9, "velocity": 94}, {"time": 2105, "pitch": 52, "duration": 10, "velocity": 73}, {"time": 2108, "pitch": 57, "duration": 5, "velocity": 87}, {"time": 2111, "pitch": 60, "duration": 6, "velocity": 113}, {"time": 2111, "pitch": 69, "duration": 6, "velocity": 113}, {"time": 2114, "pitch": 64, "duration": 8, "velocity": 81}, {"time": 2117, "pitch": 45, "duration": 2, "velocity": 88}, {"time": 2123, "pitch": 40, "duration": 23, "velocity": 89}, {"time": 2123, "pitch": 62, "duration": 7, "velocity": 94}, {"time": 2123, "pitch": 67, "duration": 7, "velocity": 107}, {"time": 2126, "pitch": 47, "duration": 20, "velocity": 77}, {"time": 2129, "pitch": 52, "duration": 4, "velocity": 89}, {"time": 2132, "pitch": 59, "duration": 6, "velocity": 96}, {"time": 2132, "pitch": 67, "duration": 5, "velocity": 107}, {"time": 2135, "pitch": 52, "duration": 10, "velocity": 100}, {"time": 2138, "pitch": 62, "duration": 2, "velocity": 104}, {"time": 2141, "pitch": 64, "duration": 5, "velocity": 108}, {"time": 2147, "pitch": 41, "duration": 21, "velocity": 94}, {"time": 2147, "pitch": 53, "duration": 21, "velocity": 94}, {"time": 2147, "pitch": 65, "duration": 9, "velocity": 107}, {"time": 2147, "pitch": 72, "duration": 9, "velocity": 107}, {"time": 2156, "pitch": 60, "duration": 12, "velocity": 88}, {"time": 2159, "pitch": 65, "duration": 9, "velocity": 113}, {"time": 2159, "pitch": 72, "duration": 4, "velocity": 102}, {"time": 2162, "pitch": 69, "duration": 7, "velocity": 88}, {"time": 2165, "pitch": 72, "duration": 5, "velocity": 87}, {"time": 2171, "pitch": 40, "duration": 20, "velocity": 96}, {"time": 2171, "pitch": 52, "duration": 20, "velocity": 96}, {"time": 2171, "pitch": 64, "duration": 9, "velocity": 110}, {"time": 2171, "pitch": 71, "duration": 15, "velocity": 110}, {"time": 2180, "pitch": 59, "duration": 4, "velocity": 87}, {"time": 2183, "pitch": 64, "duration": 4, "velocity": 107}, {"time": 2183, "pitch": 67, "duration": 4, "velocity": 119}, {"time": 2186, "pitch": 59, "duration": 5, "velocity": 104}, {"time": 2189, "pitch": 69, "duration": 5, "velocity": 102}, {"time": 2195, "pitch": 41, "duration": 10, "velocity": 104}, {"time": 2195, "pitch": 53, "duration": 10, "velocity": 104}, {"time": 2195, "pitch": 60, "duration": 8, "velocity": 108}, {"time": 2195, "pitch": 65, "duration": 10, "velocity": 114}, {"time": 2195, "pitch": 69, "duration": 9, "velocity": 107}, {"time": 2207, "pitch": 42, "duration": 4, "velocity": 85}, {"time": 2207, "pitch": 54, "duration": 5, "velocity": 87}, {"time": 2207, "pitch": 62, "duration": 9, "velocity": 96}, {"time": 2207, "pitch": 66, "duration": 7, "velocity": 95}, {"time": 2207, "pitch": 69, "duration": 6, "velocity": 88}, {"time": 2216, "pitch": 59, "duration": 9, "velocity": 74}, {"time": 2216, "pitch": 62, "duration": 2, "velocity": 87}, {"time": 2219, "pitch": 43, "duration": 18, "velocity": 87}, {"time": 2219, "pitch": 67, "duration": 8, "velocity": 89}, {"time": 2222, "pitch": 50, "duration": 16, "velocity": 88}, {"time": 2225, "pitch": 55, "duration": 16, "velocity": 93}, {"time": 2228, "pitch": 59, "duration": 4, "velocity": 90}, {"time": 2231, "pitch": 62, "duration": 2, "velocity": 87}, {"time": 2234, "pitch": 67, "duration": 1, "velocity": 96}, {"time": 2237, "pitch": 67, "duration": 4, "velocity": 89}, {"time": 2240, "pitch": 72, "duration": 3, "velocity": 82}, {"time": 2243, "pitch": 48, "duration": 18, "velocity": 88}, {"time": 2243, "pitch": 55, "duration": 9, "velocity": 89}, {"time": 2243, "pitch": 60, "duration": 9, "velocity": 92}, {"time": 2243, "pitch": 64, "duration": 7, "velocity": 94}, {"time": 2252, "pitch": 55, "duration": 9, "velocity": 78}, {"time": 2255, "pitch": 55, "duration": 6, "velocity": 93}, {"time": 2255, "pitch": 60, "duration": 10, "velocity": 100}, {"time": 2255, "pitch": 64, "duration": 11, "velocity": 90}, {"time": 2267, "pitch": 48, "duration": 14, "velocity": 87}, {"time": 2267, "pitch": 55, "duration": 9, "velocity": 83}, {"time": 2267, "pitch": 60, "duration": 9, "velocity": 89}, {"time": 2267, "pitch": 64, "duration": 8, "velocity": 86}, {"time": 2276, "pitch": 55, "duration": 6, "velocity": 84}, {"time": 2279, "pitch": 55, "duration": 3, "velocity": 104}, {"time": 2279, "pitch": 64, "duration": 10, "velocity": 93}, {"time": 2285, "pitch": 47, "duration": 6, "velocity": 84}, {"time": 2291, "pitch": 45, "duration": 15, "velocity": 88}, {"time": 2291, "pitch": 57, "duration": 8, "velocity": 89}, {"time": 2291, "pitch": 60, "duration": 8, "velocity": 91}, {"time": 2291, "pitch": 64, "duration": 8, "velocity": 86}, {"time": 2300, "pitch": 57, "duration": 5, "velocity": 76}, {"time": 2303, "pitch": 57, "duration": 2, "velocity": 96}, {"time": 2303, "pitch": 60, "duration": 11, "velocity": 100}, {"time": 2303, "pitch": 64, "duration": 10, "velocity": 89}, {"time": 2309, "pitch": 45, "duration": 3, "velocity": 77}, {"time": 2312, "pitch": 67, "duration": 7, "velocity": 79}, {"time": 2315, "pitch": 40, "duration": 18, "velocity": 87}, {"time": 2315, "pitch": 71, "duration": 3, "velocity": 76}, {"time": 2315, "pitch": 74, "duration": 4, "velocity": 93}, {"time": 2321, "pitch": 47, "duration": 13, "velocity": 77}, {"time": 2324, "pitch": 52, "duration": 10, "velocity": 92}, {"time": 2327, "pitch": 55, "duration": 3, "velocity": 104}, {"time": 2330, "pitch": 59, "duration": 2, "velocity": 108}, {"time": 2333, "pitch": 62, "duration": 5, "velocity": 113}, {"time": 2339, "pitch": 41, "duration": 21, "velocity": 88}, {"time": 2339, "pitch": 57, "duration": 9, "velocity": 88}, {"time": 2339, "pitch": 60, "duration": 10, "velocity": 89}, {"time": 2339, "pitch": 65, "duration": 9, "velocity": 89}, {"time": 2351, "pitch": 53, "duration": 3, "velocity": 38}, {"time": 2351, "pitch": 57, "duration": 6, "velocity": 94}, {"time": 2351, "pitch": 60, "duration": 6, "velocity": 96}, {"time": 2351, "pitch": 65, "duration": 7, "velocity": 91}, {"time": 2357, "pitch": 53, "duration": 2, "velocity": 86}, {"time": 2363, "pitch": 43, "duration": 18, "velocity": 82}, {"time": 2363, "pitch": 62, "duration": 8, "velocity": 86}, {"time": 2363, "pitch": 67, "duration": 5, "velocity": 88}, {"time": 2363, "pitch": 71, "duration": 5, "velocity": 87}, {"time": 2369, "pitch": 50, "duration": 12, "velocity": 65}, {"time": 2375, "pitch": 59, "duration": 8, "velocity": 87}, {"time": 2375, "pitch": 62, "duration": 12, "velocity": 87}, {"time": 2375, "pitch": 67, "duration": 9, "velocity": 89}, {"time": 2387, "pitch": 36, "duration": 18, "velocity": 87}, {"time": 2387, "pitch": 48, "duration": 18, "velocity": 87}, {"time": 2387, "pitch": 64, "duration": 7, "velocity": 86}, {"time": 2387, "pitch": 67, "duration": 8, "velocity": 88}, {"time": 2387, "pitch": 72, "duration": 7, "velocity": 87}, {"time": 2393, "pitch": 55, "duration": 13, "velocity": 64}, {"time": 2399, "pitch": 60, "duration": 5, "velocity": 80}, {"time": 2399, "pitch": 64, "duration": 6, "velocity": 81}, {"time": 2399, "pitch": 67, "duration": 6, "velocity": 79}, {"time": 2399, "pitch": 72, "duration": 12, "velocity": 86}, {"time": 2435, "pitch": 36, "duration": 42, "velocity": 91}, {"time": 2483, "pitch": 53, "duration": 41, "velocity": 89}, {"time": 2483, "pitch": 65, "duration": 41, "velocity": 107}, {"time": 2483, "pitch": 67, "duration": 2, "velocity": 98}, {"time": 2483, "pitch": 69, "duration": 5, "velocity": 114}, {"time": 2483, "pitch": 72, "duration": 41, "velocity": 110}, {"time": 2486, "pitch": 69, "duration": 2, "velocity": 93}, {"time": 2489, "pitch": 74, "duration": 2, "velocity": 108}, {"time": 2492, "pitch": 67, "duration": 2, "velocity": 94}, {"time": 2495, "pitch": 69, "duration": 2, "velocity": 88}, {"time": 2498, "pitch": 74, "duration": 2, "velocity": 110}, {"time": 2501, "pitch": 67, "duration": 2, "velocity": 91}, {"time": 2504, "pitch": 69, "duration": 1, "velocity": 91}, {"time": 2507, "pitch": 74, "duration": 2, "velocity": 107}, {"time": 2510, "pitch": 67, "duration": 2, "velocity": 93}, {"time": 2513, "pitch": 69, "duration": 1, "velocity": 91}, {"time": 2516, "pitch": 74, "duration": 2, "velocity": 107}, {"time": 2519, "pitch": 67, "duration": 2, "velocity": 90}, {"time": 2522, "pitch": 69, "duration": 1, "velocity": 90}, {"time": 2525, "pitch": 74, "duration": 2, "velocity": 108}, {"time": 2528, "pitch": 67, "duration": 1, "velocity": 94}, {"time": 2531, "pitch": 40, "duration": 42, "velocity": 88}, {"time": 2531, "pitch": 52, "duration": 42, "velocity": 87}, {"time": 2531, "pitch": 64, "duration": 2, "velocity": 92}, {"time": 2531, "pitch": 64, "duration": 2, "velocity": 94}, {"time": 2531, "pitch": 67, "duration": 43, "velocity": 100}, {"time": 2531, "pitch": 74, "duration": 43, "velocity": 90}, {"time": 2534, "pitch": 69, "duration": 1, "velocity": 96}, {"time": 2537, "pitch": 71, "duration": 1, "velocity": 107}, {"time": 2540, "pitch": 64, "duration": 1, "velocity": 87}, {"time": 2543, "pitch": 69, "duration": 1, "velocity": 98}, {"time": 2546, "pitch": 72, "duration": 2, "velocity": 96}, {"time": 2549, "pitch": 64, "duration": 1, "velocity": 88}, {"time": 2552, "pitch": 69, "duration": 1, "velocity": 89}, {"time": 2555, "pitch": 71, "duration": 1, "velocity": 107}, {"time": 2558, "pitch": 64, "duration": 1, "velocity": 88}, {"time": 2561, "pitch": 69, "duration": 1, "velocity": 98}, {"time": 2564, "pitch": 72, "duration": 2, "velocity": 100}, {"time": 2567, "pitch": 64, "duration": 1, "velocity": 85}, {"time": 2570, "pitch": 69, "duration": 1, "velocity": 88}, {"time": 2573, "pitch": 71, "duration": 1, "velocity": 107}, {"time": 2576, "pitch": 72, "duration": 2, "velocity": 96}, {"time": 2579, "pitch": 41, "duration": 42, "velocity": 88}, {"time": 2579, "pitch": 53, "duration": 42, "velocity": 89}, {"time": 2579, "pitch": 65, "duration": 42, "velocity": 107}, {"time": 2579, "pitch": 69, "duration": 2, "velocity": 89}, {"time": 2579, "pitch": 69, "duration": 2, "velocity": 108}, {"time": 2579, "pitch": 74, "duration": 8, "velocity": 91}, {"time": 2582, "pitch": 72, "duration": 1, "velocity": 91}, {"time": 2585, "pitch": 74, "duration": 2, "velocity": 100}, {"time": 2588, "pitch": 69, "duration": 2, "velocity": 92}, {"time": 2591, "pitch": 72, "duration": 1, "velocity": 91}, {"time": 2594, "pitch": 74, "duration": 2, "velocity": 107}, {"time": 2597, "pitch": 69, "duration": 1, "velocity": 94}, {"time": 2600, "pitch": 72, "duration": 1, "velocity": 91}, {"time": 2603, "pitch": 74, "duration": 2, "velocity": 104}, {"time": 2606, "pitch": 69, "duration": 1, "velocity": 89}, {"time": 2609, "pitch": 72, "duration": 1, "velocity": 93}, {"time": 2612, "pitch": 74, "duration": 2, "velocity": 107}, {"time": 2615, "pitch": 69, "duration": 1, "velocity": 89}, {"time": 2618, "pitch": 72, "duration": 1, "velocity": 96}, {"time": 2621, "pitch": 74, "duration": 2, "velocity": 107}, {"time": 2624, "pitch": 69, "duration": 1, "velocity": 89}, {"time": 2627, "pitch": 40, "duration": 39, "velocity": 87}, {"time": 2627, "pitch": 52, "duration": 40, "velocity": 87}, {"time": 2627, "pitch": 62, "duration": 37, "velocity": 98}, {"time": 2627, "pitch": 67, "duration": 40, "velocity": 102}, {"time": 2627, "pitch": 71, "duration": 39, "velocity": 93}, {"time": 2675, "pitch": 53, "duration": 47, "velocity": 89}, {"time": 2675, "pitch": 65, "duration": 10, "velocity": 89}, {"time": 2675, "pitch": 69, "duration": 10, "velocity": 93}, {"time": 2675, "pitch": 72, "duration": 10, "velocity": 88}, {"time": 2675, "pitch": 76, "duration": 10, "velocity": 88}, {"time": 2687, "pitch": 65, "duration": 11, "velocity": 81}, {"time": 2687, "pitch": 69, "duration": 11, "velocity": 83}, {"time": 2687, "pitch": 72, "duration": 11, "velocity": 79}, {"time": 2687, "pitch": 76, "duration": 23, "velocity": 85}, {"time": 2699, "pitch": 65, "duration": 10, "velocity": 83}, {"time": 2699, "pitch": 69, "duration": 10, "velocity": 85}, {"time": 2699, "pitch": 72, "duration": 10, "velocity": 81}, {"time": 2711, "pitch": 65, "duration": 8, "velocity": 84}, {"time": 2711, "pitch": 69, "duration": 10, "velocity": 86}, {"time": 2711, "pitch": 72, "duration": 10, "velocity": 82}, {"time": 2711, "pitch": 76, "duration": 7, "velocity": 81}, {"time": 2723, "pitch": 33, "duration": 11, "velocity": 90}, {"time": 2723, "pitch": 45, "duration": 12, "velocity": 90}, {"time": 2723, "pitch": 64, "duration": 10, "velocity": 90}, {"time": 2723, "pitch": 69, "duration": 11, "velocity": 90}, {"time": 2723, "pitch": 72, "duration": 10, "velocity": 90}, {"time": 2735, "pitch": 64, "duration": 7, "velocity": 98}, {"time": 2735, "pitch": 69, "duration": 7, "velocity": 98}, {"time": 2735, "pitch": 72, "duration": 7, "velocity": 98}, {"time": 2741, "pitch": 40, "duration": 11, "velocity": 98}, {"time": 2744, "pitch": 45, "duration": 9, "velocity": 98}, {"time": 2744, "pitch": 64, "duration": 4, "velocity": 98}, {"time": 2744, "pitch": 69, "duration": 4, "velocity": 98}, {"time": 2744, "pitch": 72, "duration": 4, "velocity": 98}, {"time": 2750, "pitch": 64, "duration": 6, "velocity": 98}, {"time": 2750, "pitch": 69, "duration": 6, "velocity": 98}, {"time": 2750, "pitch": 72, "duration": 6, "velocity": 98}, {"time": 2756, "pitch": 33, "duration": 3, "velocity": 98}, {"time": 2759, "pitch": 45, "duration": 3, "velocity": 100}, {"time": 2759, "pitch": 64, "duration": 4, "velocity": 100}, {"time": 2759, "pitch": 69, "duration": 5, "velocity": 100}, {"time": 2759, "pitch": 72, "duration": 5, "velocity": 100}, {"time": 2762, "pitch": 33, "duration": 3, "velocity": 107}, {"time": 2765, "pitch": 38, "duration": 3, "velocity": 107}, {"time": 2768, "pitch": 40, "duration": 3, "velocity": 97}, {"time": 2771, "pitch": 31, "duration": 4, "velocity": 87}, {"time": 2771, "pitch": 43, "duration": 4, "velocity": 87}, {"time": 2771, "pitch": 59, "duration": 5, "velocity": 87}, {"time": 2771, "pitch": 62, "duration": 5, "velocity": 89}, {"time": 2771, "pitch": 67, "duration": 4, "velocity": 87}, {"time": 2777, "pitch": 31, "duration": 4, "velocity": 88}, {"time": 2777, "pitch": 43, "duration": 4, "velocity": 88}, {"time": 2777, "pitch": 59, "duration": 5, "velocity": 81}, {"time": 2777, "pitch": 62, "duration": 5, "velocity": 84}, {"time": 2777, "pitch": 67, "duration": 4, "velocity": 84}, {"time": 2783, "pitch": 31, "duration": 4, "velocity": 88}, {"time": 2783, "pitch": 43, "duration": 4, "velocity": 88}, {"time": 2783, "pitch": 59, "duration": 4, "velocity": 84}, {"time": 2783, "pitch": 62, "duration": 4, "velocity": 91}, {"time": 2783, "pitch": 67, "duration": 4, "velocity": 88}, {"time": 2789, "pitch": 31, "duration": 4, "velocity": 89}, {"time": 2789, "pitch": 43, "duration": 4, "velocity": 89}, {"time": 2789, "pitch": 59, "duration": 4, "velocity": 86}, {"time": 2789, "pitch": 62, "duration": 4, "velocity": 91}, {"time": 2789, "pitch": 67, "duration": 4, "velocity": 88}, {"time": 2795, "pitch": 31, "duration": 4, "velocity": 92}, {"time": 2795, "pitch": 43, "duration": 4, "velocity": 92}, {"time": 2795, "pitch": 59, "duration": 4, "velocity": 86}, {"time": 2795, "pitch": 62, "duration": 4, "velocity": 92}, {"time": 2795, "pitch": 67, "duration": 4, "velocity": 89}, {"time": 2801, "pitch": 31, "duration": 4, "velocity": 89}, {"time": 2801, "pitch": 43, "duration": 4, "velocity": 89}, {"time": 2801, "pitch": 59, "duration": 4, "velocity": 86}, {"time": 2801, "pitch": 62, "duration": 4, "velocity": 91}, {"time": 2801, "pitch": 67, "duration": 4, "velocity": 89}, {"time": 2807, "pitch": 31, "duration": 4, "velocity": 91}, {"time": 2807, "pitch": 43, "duration": 4, "velocity": 91}, {"time": 2807, "pitch": 59, "duration": 4, "velocity": 84}, {"time": 2807, "pitch": 62, "duration": 4, "velocity": 91}, {"time": 2807, "pitch": 67, "duration": 4, "velocity": 88}, {"time": 2813, "pitch": 31, "duration": 3, "velocity": 94}, {"time": 2813, "pitch": 43, "duration": 3, "velocity": 94}, {"time": 2813, "pitch": 59, "duration": 3, "velocity": 86}, {"time": 2813, "pitch": 62, "duration": 3, "velocity": 91}, {"time": 2813, "pitch": 67, "duration": 3, "velocity": 87}, {"time": 2819, "pitch": 32, "duration": 5, "velocity": 104}, {"time": 2819, "pitch": 44, "duration": 5, "velocity": 104}, {"time": 2819, "pitch": 60, "duration": 4, "velocity": 92}, {"time": 2819, "pitch": 63, "duration": 4, "velocity": 104}, {"time": 2819, "pitch": 68, "duration": 4, "velocity": 96}, {"time": 2825, "pitch": 32, "duration": 5, "velocity": 104}, {"time": 2825, "pitch": 44, "duration": 5, "velocity": 104}, {"time": 2825, "pitch": 60, "duration": 4, "velocity": 92}, {"time": 2825, "pitch": 63, "duration": 4, "velocity": 104}, {"time": 2825, "pitch": 68, "duration": 4, "velocity": 96}, {"time": 2831, "pitch": 32, "duration": 5, "velocity": 99}, {"time": 2831, "pitch": 44, "duration": 5, "velocity": 99}, {"time": 2831, "pitch": 60, "duration": 4, "velocity": 99}, {"time": 2831, "pitch": 63, "duration": 4, "velocity": 99}, {"time": 2831, "pitch": 68, "duration": 4, "velocity": 99}, {"time": 2837, "pitch": 32, "duration": 5, "velocity": 106}, {"time": 2837, "pitch": 44, "duration": 5, "velocity": 106}, {"time": 2837, "pitch": 60, "duration": 4, "velocity": 106}, {"time": 2837, "pitch": 63, "duration": 4, "velocity": 106}, {"time": 2837, "pitch": 68, "duration": 4, "velocity": 106}, {"time": 2843, "pitch": 32, "duration": 3, "velocity": 111}, {"time": 2843, "pitch": 44, "duration": 3, "velocity": 111}, {"time": 2843, "pitch": 60, "duration": 2, "velocity": 111}, {"time": 2843, "pitch": 63, "duration": 2, "velocity": 111}, {"time": 2843, "pitch": 68, "duration": 2, "velocity": 111}, {"time": 2846, "pitch": 32, "duration": 4, "velocity": 127}, {"time": 2846, "pitch": 44, "duration": 4, "velocity": 127}, {"time": 2846, "pitch": 60, "duration": 4, "velocity": 127}, {"time": 2846, "pitch": 63, "duration": 4, "velocity": 127}, {"time": 2846, "pitch": 68, "duration": 4, "velocity": 127}, {"time": 2867, "pitch": 37, "duration": 20, "velocity": 81}, {"time": 2867, "pitch": 49, "duration": 21, "velocity": 81}, {"time": 2867, "pitch": 61, "duration": 10, "velocity": 87}, {"time": 2867, "pitch": 65, "duration": 8, "velocity": 89}, {"time": 2867, "pitch": 68, "duration": 7, "velocity": 88}, {"time": 2879, "pitch": 61, "duration": 5, "velocity": 87}, {"time": 2879, "pitch": 65, "duration": 6, "velocity": 88}, {"time": 2879, "pitch": 68, "duration": 6, "velocity": 88}, {"time": 2885, "pitch": 56, "duration": 7, "velocity": 69}, {"time": 2888, "pitch": 37, "duration": 2, "velocity": 97}, {"time": 2891, "pitch": 37, "duration": 19, "velocity": 86}, {"time": 2891, "pitch": 49, "duration": 19, "velocity": 86}, {"time": 2891, "pitch": 65, "duration": 9, "velocity": 87}, {"time": 2891, "pitch": 68, "duration": 9, "velocity": 92}, {"time": 2891, "pitch": 73, "duration": 9, "velocity": 87}, {"time": 2900, "pitch": 56, "duration": 10, "velocity": 81}, {"time": 2903, "pitch": 65, "duration": 9, "velocity": 89}, {"time": 2903, "pitch": 68, "duration": 10, "velocity": 96}, {"time": 2903, "pitch": 73, "duration": 9, "velocity": 88}, {"time": 2915, "pitch": 34, "duration": 20, "velocity": 85}, {"time": 2915, "pitch": 46, "duration": 15, "velocity": 85}, {"time": 2915, "pitch": 65, "duration": 8, "velocity": 84}, {"time": 2915, "pitch": 70, "duration": 8, "velocity": 87}, {"time": 2915, "pitch": 73, "duration": 7, "velocity": 87}, {"time": 2921, "pitch": 53, "duration": 9, "velocity": 42}, {"time": 2927, "pitch": 65, "duration": 10, "velocity": 90}, {"time": 2927, "pitch": 70, "duration": 11, "velocity": 91}, {"time": 2927, "pitch": 73, "duration": 9, "velocity": 88}, {"time": 2933, "pitch": 46, "duration": 1, "velocity": 83}, {"time": 2936, "pitch": 34, "duration": 2, "velocity": 97}, {"time": 2939, "pitch": 41, "duration": 18, "velocity": 88}, {"time": 2939, "pitch": 65, "duration": 9, "velocity": 89}, {"time": 2939, "pitch": 68, "duration": 9, "velocity": 98}, {"time": 2939, "pitch": 72, "duration": 9, "velocity": 90}, {"time": 2948, "pitch": 53, "duration": 5, "velocity": 72}, {"time": 2951, "pitch": 65, "duration": 6, "velocity": 102}, {"time": 2951, "pitch": 68, "duration": 7, "velocity": 110}, {"time": 2951, "pitch": 72, "duration": 8, "velocity": 104}, {"time": 2957, "pitch": 53, "duration": 4, "velocity": 85}, {"time": 2960, "pitch": 41, "duration": 2, "velocity": 97}, {"time": 2963, "pitch": 42, "duration": 15, "velocity": 87}, {"time": 2963, "pitch": 58, "duration": 3, "velocity": 88}, {"time": 2963, "pitch": 61, "duration": 6, "velocity": 96}, {"time": 2963, "pitch": 66, "duration": 6, "velocity": 91}, {"time": 2972, "pitch": 54, "duration": 5, "velocity": 61}, {"time": 2975, "pitch": 61, "duration": 9, "velocity": 89}, {"time": 2975, "pitch": 66, "duration": 9, "velocity": 100}, {"time": 2975, "pitch": 70, "duration": 7, "velocity": 93}, {"time": 2981, "pitch": 42, "duration": 5, "velocity": 81}, {"time": 2987, "pitch": 41, "duration": 19, "velocity": 87}, {"time": 2987, "pitch": 61, "duration": 8, "velocity": 86}, {"time": 2987, "pitch": 65, "duration": 8, "velocity": 91}, {"time": 2987, "pitch": 68, "duration": 8, "velocity": 88}, {"time": 2996, "pitch": 53, "duration": 4, "velocity": 77}, {"time": 2999, "pitch": 61, "duration": 8, "velocity": 93}, {"time": 2999, "pitch": 65, "duration": 10, "velocity": 107}, {"time": 2999, "pitch": 68, "duration": 7, "velocity": 98}, {"time": 3005, "pitch": 53, "duration": 3, "velocity": 83}, {"time": 3008, "pitch": 41, "duration": 2, "velocity": 97}, {"time": 3011, "pitch": 42, "duration": 3, "velocity": 89}, {"time": 3011, "pitch": 54, "duration": 2, "velocity": 97}, {"time": 3011, "pitch": 61, "duration": 7, "velocity": 89}, {"time": 3011, "pitch": 66, "duration": 11, "velocity": 104}, {"time": 3011, "pitch": 70, "duration": 11, "velocity": 100}, {"time": 3023, "pitch": 43, "duration": 4, "velocity": 85}, {"time": 3023, "pitch": 55, "duration": 5, "velocity": 87}, {"time": 3023, "pitch": 63, "duration": 9, "velocity": 96}, {"time": 3023, "pitch": 67, "duration": 7, "velocity": 95}, {"time": 3023, "pitch": 70, "duration": 6, "velocity": 88}, {"time": 3032, "pitch": 60, "duration": 9, "velocity": 74}, {"time": 3032, "pitch": 63, "duration": 2, "velocity": 87}, {"time": 3035, "pitch": 44, "duration": 18, "velocity": 87}, {"time": 3035, "pitch": 68, "duration": 8, "velocity": 89}, {"time": 3038, "pitch": 51, "duration": 16, "velocity": 88}, {"time": 3041, "pitch": 56, "duration": 16, "velocity": 93}, {"time": 3044, "pitch": 60, "duration": 4, "velocity": 90}, {"time": 3047, "pitch": 63, "duration": 2, "velocity": 87}, {"time": 3050, "pitch": 68, "duration": 1, "velocity": 96}, {"time": 3053, "pitch": 32, "duration": 6, "velocity": 97}, {"time": 3053, "pitch": 68, "duration": 4, "velocity": 89}, {"time": 3056, "pitch": 73, "duration": 3, "velocity": 82}, {"time": 3059, "pitch": 37, "duration": 18, "velocity": 88}, {"time": 3059, "pitch": 49, "duration": 18, "velocity": 88}, {"time": 3059, "pitch": 68, "duration": 9, "velocity": 89}, {"time": 3059, "pitch": 73, "duration": 9, "velocity": 92}, {"time": 3059, "pitch": 77, "duration": 7, "velocity": 94}, {"time": 3068, "pitch": 56, "duration": 9, "velocity": 78}, {"time": 3071, "pitch": 68, "duration": 9, "velocity": 93}, {"time": 3071, "pitch": 73, "duration": 10, "velocity": 100}, {"time": 3071, "pitch": 77, "duration": 11, "velocity": 90}, {"time": 3080, "pitch": 37, "duration": 2, "velocity": 97}, {"time": 3083, "pitch": 37, "duration": 17, "velocity": 87}, {"time": 3083, "pitch": 49, "duration": 14, "velocity": 87}, {"time": 3083, "pitch": 68, "duration": 9, "velocity": 83}, {"time": 3083, "pitch": 73, "duration": 9, "velocity": 89}, {"time": 3083, "pitch": 77, "duration": 8, "velocity": 86}, {"time": 3092, "pitch": 56, "duration": 6, "velocity": 84}, {"time": 3095, "pitch": 68, "duration": 8, "velocity": 104}, {"time": 3095, "pitch": 77, "duration": 10, "velocity": 93}, {"time": 3101, "pitch": 48, "duration": 6, "velocity": 84}, {"time": 3107, "pitch": 34, "duration": 15, "velocity": 88}, {"time": 3107, "pitch": 46, "duration": 15, "velocity": 88}, {"time": 3107, "pitch": 70, "duration": 8, "velocity": 89}, {"time": 3107, "pitch": 73, "duration": 8, "velocity": 91}, {"time": 3107, "pitch": 77, "duration": 8, "velocity": 86}, {"time": 3116, "pitch": 58, "duration": 5, "velocity": 76}, {"time": 3119, "pitch": 70, "duration": 6, "velocity": 96}, {"time": 3119, "pitch": 73, "duration": 11, "velocity": 100}, {"time": 3119, "pitch": 77, "duration": 10, "velocity": 89}, {"time": 3125, "pitch": 46, "duration": 1, "velocity": 77}, {"time": 3128, "pitch": 34, "duration": 2, "velocity": 97}, {"time": 3128, "pitch": 68, "duration": 7, "velocity": 79}, {"time": 3131, "pitch": 41, "duration": 17, "velocity": 87}, {"time": 3131, "pitch": 72, "duration": 3, "velocity": 76}, {"time": 3131, "pitch": 75, "duration": 4, "velocity": 93}, {"time": 3137, "pitch": 48, "duration": 13, "velocity": 77}, {"time": 3140, "pitch": 53, "duration": 10, "velocity": 92}, {"time": 3143, "pitch": 56, "duration": 3, "velocity": 104}, {"time": 3146, "pitch": 60, "duration": 2, "velocity": 108}, {"time": 3149, "pitch": 41, "duration": 2, "velocity": 97}, {"time": 3149, "pitch": 63, "duration": 5, "velocity": 113}, {"time": 3155, "pitch": 42, "duration": 21, "velocity": 88}, {"time": 3155, "pitch": 58, "duration": 9, "velocity": 88}, {"time": 3155, "pitch": 61, "duration": 10, "velocity": 89}, {"time": 3155, "pitch": 66, "duration": 9, "velocity": 89}, {"time": 3167, "pitch": 54, "duration": 3, "velocity": 38}, {"time": 3167, "pitch": 58, "duration": 6, "velocity": 94}, {"time": 3167, "pitch": 61, "duration": 6, "velocity": 96}, {"time": 3167, "pitch": 66, "duration": 7, "velocity": 91}, {"time": 3173, "pitch": 54, "duration": 2, "velocity": 86}, {"time": 3179, "pitch": 44, "duration": 18, "velocity": 82}, {"time": 3179, "pitch": 63, "duration": 8, "velocity": 86}, {"time": 3179, "pitch": 68, "duration": 5, "velocity": 88}, {"time": 3179, "pitch": 72, "duration": 5, "velocity": 87}, {"time": 3185, "pitch": 51, "duration": 12, "velocity": 65}, {"time": 3191, "pitch": 60, "duration": 8, "velocity": 87}, {"time": 3191, "pitch": 63, "duration": 12, "velocity": 87}, {"time": 3191, "pitch": 68, "duration": 9, "velocity": 89}, {"time": 3203, "pitch": 49, "duration": 12, "velocity": 87}, {"time": 3203, "pitch": 65, "duration": 7, "velocity": 86}, {"time": 3203, "pitch": 68, "duration": 8, "velocity": 88}, {"time": 3203, "pitch": 73, "duration": 7, "velocity": 87}, {"time": 3218, "pitch": 61, "duration": 3, "velocity": 81}, {"time": 3221, "pitch": 65, "duration": 2, "velocity": 87}, {"time": 3224, "pitch": 68, "duration": 2, "velocity": 89}, {"time": 3227, "pitch": 49, "duration": 18, "velocity": 88}, {"time": 3227, "pitch": 72, "duration": 8, "velocity": 108}, {"time": 3233, "pitch": 56, "duration": 11, "velocity": 74}, {"time": 3236, "pitch": 73, "duration": 6, "velocity": 108}, {"time": 3242, "pitch": 72, "duration": 8, "velocity": 100}, {"time": 3251, "pitch": 51, "duration": 22, "velocity": 90}, {"time": 3257, "pitch": 58, "duration": 13, "velocity": 78}, {"time": 3263, "pitch": 63, "duration": 6, "velocity": 82}, {"time": 3269, "pitch": 75, "duration": 6, "velocity": 38}, {"time": 3275, "pitch": 44, "duration": 53, "velocity": 84}, {"time": 3281, "pitch": 51, "duration": 47, "velocity": 67}, {"time": 3286, "pitch": 56, "duration": 43, "velocity": 81}, {"time": 3289, "pitch": 60, "duration": 3, "velocity": 76}, {"time": 3292, "pitch": 63, "duration": 3, "velocity": 80}, {"time": 3295, "pitch": 68, "duration": 1, "velocity": 77}, {"time": 3299, "pitch": 72, "duration": 5, "velocity": 78}, {"time": 3303, "pitch": 75, "duration": 5, "velocity": 79}, {"time": 3308, "pitch": 80, "duration": 20, "velocity": 82}, {"time": 3347, "pitch": 49, "duration": 24, "velocity": 77}, {"time": 3347, "pitch": 65, "duration": 10, "velocity": 76}, {"time": 3347, "pitch": 68, "duration": 10, "velocity": 81}, {"time": 3347, "pitch": 73, "duration": 9, "velocity": 79}, {"time": 3359, "pitch": 65, "duration": 9, "velocity": 67}, {"time": 3359, "pitch": 68, "duration": 8, "velocity": 70}, {"time": 3359, "pitch": 73, "duration": 9, "velocity": 65}, {"time": 3371, "pitch": 47, "duration": 18, "velocity": 86}, {"time": 3371, "pitch": 65, "duration": 6, "velocity": 69}, {"time": 3371, "pitch": 68, "duration": 6, "velocity": 71}, {"time": 3371, "pitch": 73, "duration": 7, "velocity": 67}, {"time": 3377, "pitch": 59, "duration": 14, "velocity": 76}, {"time": 3383, "pitch": 65, "duration": 12, "velocity": 77}, {"time": 3383, "pitch": 74, "duration": 15, "velocity": 67}, {"time": 3395, "pitch": 54, "duration": 19, "velocity": 88}, {"time": 3401, "pitch": 61, "duration": 12, "velocity": 80}, {"time": 3407, "pitch": 70, "duration": 19, "velocity": 86}, {"time": 3413, "pitch": 73, "duration": 7, "velocity": 80}, {"time": 3419, "pitch": 44, "duration": 29, "velocity": 76}, {"time": 3419, "pitch": 80, "duration": 6, "velocity": 88}, {"time": 3428, "pitch": 51, "duration": 22, "velocity": 71}, {"time": 3434, "pitch": 56, "duration": 21, "velocity": 72}, {"time": 3434, "pitch": 60, "duration": 17, "velocity": 82}, {"time": 3434, "pitch": 68, "duration": 18, "velocity": 81}, {"time": 3526, "pitch": 65, "duration": 17, "velocity": 70}, {"time": 3527, "pitch": 68, "duration": 16, "velocity": 76}, {"time": 3529, "pitch": 49, "duration": 16, "velocity": 75}, {"time": 3529, "pitch": 73, "duration": 15, "velocity": 83}, {"time": 3565, "pitch": 65, "duration": 11, "velocity": 89}, {"time": 3565, "pitch": 68, "duration": 11, "velocity": 91}, {"time": 3565, "pitch": 73, "duration": 11, "velocity": 88}], "annotations": [{"time": 52, "annotation": {"number": 64, "value": 127}, "group": "control_change"}, {"time": 79, "annotation": {"number": 64, "value": 38}, "group": "control_change"}, {"time": 79, "annotation": {"number": 64, "value": 0}, "group": "control_change"}, {"time": 82, "annotation": {"number": 64, "value": 127}, "group": "control_change"}, {"time": 106, "annotation": {"number": 64, "value": 127}, "group": "control_change"}, {"time": 113, "annotation": {"number": 64, "value": 38}, "group": "control_change"}, {"time": 113, "annotation": {"number": 64, "value": 0}, "group": "control_change"}, {"time": 126, "annotation": {"number": 64, "value": 74}, "group": "control_change"}, {"time": 126, "annotation": {"number": 64, "value": 0}, "group": "control_change"}, {"time": 130, "annotation": {"number": 64, "value": 127}, "group": "control_change"}, {"time": 173, "annotation": {"number": 64, "value": 0}, "group": "control_change"}, {"time": 178, "annotation": {"number": 64, "value": 38}, "group": "control_change"}, {"time": 178, "annotation": {"number": 64, "value": 127}, "group": "control_change"}, {"time": 184, "annotation": {"number": 64, "value": 74}, "group": "control_change"}, {"time": 184, "annotation": {"number": 64, "value": 0}, "group": "control_change"}, {"time": 228, "annotation": {"number": 64, "value": 127}, "group": "control_change"}, {"time": 243, "annotation": {"number": 64, "value": 38}, "group": "control_change"}, {"time": 243, "annotation": {"number": 64, "value": 0}, "group": "control_change"}, {"time": 245, "annotation": {"number": 64, "value": 127}, "group": "control_change"}, {"time": 271, "annotation": {"number": 64, "value": 38}, "group": "control_change"}, {"time": 271, "annotation": {"number": 64, "value": 0}, "group": "control_change"}, {"time": 275, "annotation": {"number": 64, "value": 38}, "group": "control_change"}, {"time": 275, "annotation": {"number": 64, "value": 127}, "group": "control_change"}, {"time": 318, "annotation": {"number": 64, "value": 38}, "group": "control_change"}, {"time": 318, "annotation": {"number": 64, "value": 0}, "group": "control_change"}, {"time": 323, "annotation": {"number": 64, "value": 127}, "group": "control_change"}, {"time": 372, "annotation": {"number": 64, "value": 127}, "group": "control_change"}, {"time": 390, "annotation": {"number": 64, "value": 74}, "group": "control_change"}, {"time": 390, "annotation": {"number": 64, "value": 0}, "group": "control_change"}, {"time": 395, "annotation": {"number": 64, "value": 127}, "group": "control_change"}, {"time": 415, "annotation": {"number": 64, "value": 0}, "group": "control_change"}, {"time": 420, "annotation": {"number": 64, "value": 127}, "group": "control_change"}, {"time": 462, "annotation": {"number": 64, "value": 74}, "group": "control_change"}, {"time": 462, "annotation": {"number": 64, "value": 0}, "group": "control_change"}, {"time": 467, "annotation": {"number": 64, "value": 127}, "group": "control_change"}, {"time": 470, "annotation": {"number": 64, "value": 127}, "group": "control_change"}, {"time": 489, "annotation": {"number": 64, "value": 74}, "group": "control_change"}, {"time": 489, "annotation": {"number": 64, "value": 0}, "group": "control_change"}, {"time": 491, "annotation": {"number": 64, "value": 127}, "group": "control_change"}, {"time": 500, "annotation": {"number": 64, "value": 74}, "group": "control_change"}, {"time": 500, "annotation": {"number": 64, "value": 0}, "group": "control_change"}, {"time": 560, "annotation": {"number": 64, "value": 38}, "group": "control_change"}, {"time": 560, "annotation": {"number": 64, "value": 0}, "group": "control_change"}, {"time": 564, "annotation": {"number": 64, "value": 127}, "group": "control_change"}, {"time": 706, "annotation": {"number": 64, "value": 38}, "group": "control_change"}, {"time": 706, "annotation": {"number": 64, "value": 0}, "group": "control_change"}, {"time": 755, "annotation": {"number": 64, "value": 127}, "group": "control_change"}, {"time": 756, "annotation": {"number": 64, "value": 127}, "group": "control_change"}, {"time": 778, "annotation": {"number": 64, "value": 38}, "group": "control_change"}, {"time": 778, "annotation": {"number": 64, "value": 0}, "group": "control_change"}, {"time": 779, "annotation": {"number": 64, "value": 127}, "group": "control_change"}, {"time": 780, "annotation": {"number": 64, "value": 74}, "group": "control_change"}, {"time": 780, "annotation": {"number": 64, "value": 127}, "group": "control_change"}, {"time": 801, "annotation": {"number": 64, "value": 0}, "group": "control_change"}, {"time": 802, "annotation": {"number": 64, "value": 38}, "group": "control_change"}, {"time": 802, "annotation": {"number": 64, "value": 0}, "group": "control_change"}, {"time": 802, "annotation": {"number": 64, "value": 127}, "group": "control_change"}, {"time": 803, "annotation": {"number": 64, "value": 74}, "group": "control_change"}, {"time": 803, "annotation": {"number": 64, "value": 127}, "group": "control_change"}, {"time": 804, "annotation": {"number": 64, "value": 74}, "group": "control_change"}, {"time": 804, "annotation": {"number": 64, "value": 0}, "group": "control_change"}, {"time": 804, "annotation": {"number": 64, "value": 127}, "group": "control_change"}, {"time": 825, "annotation": {"number": 64, "value": 0}, "group": "control_change"}, {"time": 826, "annotation": {"number": 64, "value": 38}, "group": "control_change"}, {"time": 826, "annotation": {"number": 64, "value": 0}, "group": "control_change"}, {"time": 827, "annotation": {"number": 64, "value": 127}, "group": "control_change"}, {"time": 848, "annotation": {"number": 64, "value": 38}, "group": "control_change"}, {"time": 848, "annotation": {"number": 64, "value": 0}, "group": "control_change"}, {"time": 849, "annotation": {"number": 64, "value": 74}, "group": "control_change"}, {"time": 849, "annotation": {"number": 64, "value": 0}, "group": "control_change"}, {"time": 851, "annotation": {"number": 64, "value": 127}, "group": "control_change"}, {"time": 852, "annotation": {"number": 64, "value": 38}, "group": "control_change"}, {"time": 852, "annotation": {"number": 64, "value": 127}, "group": "control_change"}, {"time": 863, "annotation": {"number": 64, "value": 38}, "group": "control_change"}, {"time": 863, "annotation": {"number": 64, "value": 0}, "group": "control_change"}, {"time": 872, "annotation": {"number": 64, "value": 74}, "group": "control_change"}, {"time": 872, "annotation": {"number": 64, "value": 127}, "group": "control_change"}, {"time": 873, "annotation": {"number": 64, "value": 0}, "group": "control_change"}, {"time": 874, "annotation": {"number": 64, "value": 38}, "group": "control_change"}, {"time": 874, "annotation": {"number": 64, "value": 0}, "group": "control_change"}, {"time": 875, "annotation": {"number": 64, "value": 127}, "group": "control_change"}, {"time": 897, "annotation": {"number": 64, "value": 38}, "group": "control_change"}, {"time": 897, "annotation": {"number": 64, "value": 0}, "group": "control_change"}, {"time": 898, "annotation": {"number": 64, "value": 74}, "group": "control_change"}, {"time": 898, "annotation": {"number": 64, "value": 0}, "group": "control_change"}, {"time": 899, "annotation": {"number": 64, "value": 127}, "group": "control_change"}, {"time": 899, "annotation": {"number": 64, "value": 74}, "group": "control_change"}, {"time": 900, "annotation": {"number": 64, "value": 127}, "group": "control_change"}, {"time": 908, "annotation": {"number": 64, "value": 74}, "group": "control_change"}, {"time": 909, "annotation": {"number": 64, "value": 0}, "group": "control_change"}, {"time": 910, "annotation": {"number": 64, "value": 74}, "group": "control_change"}, {"time": 910, "annotation": {"number": 64, "value": 0}, "group": "control_change"}, {"time": 911, "annotation": {"number": 64, "value": 127}, "group": "control_change"}, {"time": 921, "annotation": {"number": 64, "value": 74}, "group": "control_change"}, {"time": 921, "annotation": {"number": 64, "value": 0}, "group": "control_change"}, {"time": 922, "annotation": {"number": 64, "value": 38}, "group": "control_change"}, {"time": 922, "annotation": {"number": 64, "value": 0}, "group": "control_change"}, {"time": 923, "annotation": {"number": 64, "value": 127}, "group": "control_change"}, {"time": 945, "annotation": {"number": 64, "value": 0}, "group": "control_change"}, {"time": 947, "annotation": {"number": 64, "value": 127}, "group": "control_change"}, {"time": 956, "annotation": {"number": 64, "value": 38}, "group": "control_change"}, {"time": 956, "annotation": {"number": 64, "value": 0}, "group": "control_change"}, {"time": 967, "annotation": {"number": 64, "value": 38}, "group": "control_change"}, {"time": 967, "annotation": {"number": 64, "value": 0}, "group": "control_change"}, {"time": 971, "annotation": {"number": 64, "value": 127}, "group": "control_change"}, {"time": 982, "annotation": {"number": 64, "value": 38}, "group": "control_change"}, {"time": 982, "annotation": {"number": 64, "value": 0}, "group": "control_change"}, {"time": 983, "annotation": {"number": 64, "value": 38}, "group": "control_change"}, {"time": 983, "annotation": {"number": 64, "value": 127}, "group": "control_change"}, {"time": 993, "annotation": {"number": 64, "value": 0}, "group": "control_change"}, {"time": 995, "annotation": {"number": 64, "value": 127}, "group": "control_change"}, {"time": 1006, "annotation": {"number": 64, "value": 0}, "group": "control_change"}, {"time": 1007, "annotation": {"number": 64, "value": 127}, "group": "control_change"}, {"time": 1017, "annotation": {"number": 64, "value": 38}, "group": "control_change"}, {"time": 1017, "annotation": {"number": 64, "value": 0}, "group": "control_change"}, {"time": 1019, "annotation": {"number": 64, "value": 127}, "group": "control_change"}, {"time": 1030, "annotation": {"number": 64, "value": 0}, "group": "control_change"}, {"time": 1031, "annotation": {"number": 64, "value": 127}, "group": "control_change"}, {"time": 1041, "annotation": {"number": 64, "value": 38}, "group": "control_change"}, {"time": 1041, "annotation": {"number": 64, "value": 0}, "group": "control_change"}, {"time": 1041, "annotation": {"number": 64, "value": 74}, "group": "control_change"}, {"time": 1043, "annotation": {"number": 64, "value": 127}, "group": "control_change"}, {"time": 1064, "annotation": {"number": 64, "value": 74}, "group": "control_change"}, {"time": 1064, "annotation": {"number": 64, "value": 0}, "group": "control_change"}, {"time": 1064, "annotation": {"number": 64, "value": 38}, "group": "control_change"}, {"time": 1065, "annotation": {"number": 64, "value": 0}, "group": "control_change"}, {"time": 1067, "annotation": {"number": 64, "value": 127}, "group": "control_change"}, {"time": 1074, "annotation": {"number": 64, "value": 74}, "group": "control_change"}, {"time": 1085, "annotation": {"number": 64, "value": 127}, "group": "control_change"}, {"time": 1088, "annotation": {"number": 64, "value": 38}, "group": "control_change"}, {"time": 1088, "annotation": {"number": 64, "value": 0}, "group": "control_change"}, {"time": 1090, "annotation": {"number": 64, "value": 38}, "group": "control_change"}, {"time": 1090, "annotation": {"number": 64, "value": 0}, "group": "control_change"}, {"time": 1091, "annotation": {"number": 64, "value": 127}, "group": "control_change"}, {"time": 1112, "annotation": {"number": 64, "value": 0}, "group": "control_change"}, {"time": 1114, "annotation": {"number": 64, "value": 38}, "group": "control_change"}, {"time": 1114, "annotation": {"number": 64, "value": 0}, "group": "control_change"}, {"time": 1115, "annotation": {"number": 64, "value": 29}, "group": "control_change"}, {"time": 1115, "annotation": {"number": 64, "value": 74}, "group": "control_change"}, {"time": 1115, "annotation": {"number": 64, "value": 127}, "group": "control_change"}, {"time": 1125, "annotation": {"number": 64, "value": 74}, "group": "control_change"}, {"time": 1125, "annotation": {"number": 64, "value": 0}, "group": "control_change"}, {"time": 1125, "annotation": {"number": 64, "value": 38}, "group": "control_change"}, {"time": 1125, "annotation": {"number": 64, "value": 127}, "group": "control_change"}, {"time": 1126, "annotation": {"number": 64, "value": 74}, "group": "control_change"}, {"time": 1126, "annotation": {"number": 64, "value": 0}, "group": "control_change"}, {"time": 1127, "annotation": {"number": 64, "value": 127}, "group": "control_change"}, {"time": 1137, "annotation": {"number": 64, "value": 38}, "group": "control_change"}, {"time": 1137, "annotation": {"number": 64, "value": 0}, "group": "control_change"}, {"time": 1138, "annotation": {"number": 64, "value": 127}, "group": "control_change"}, {"time": 1160, "annotation": {"number": 64, "value": 0}, "group": "control_change"}, {"time": 1163, "annotation": {"number": 64, "value": 127}, "group": "control_change"}, {"time": 1184, "annotation": {"number": 64, "value": 38}, "group": "control_change"}, {"time": 1185, "annotation": {"number": 64, "value": 0}, "group": "control_change"}, {"time": 1187, "annotation": {"number": 64, "value": 127}, "group": "control_change"}, {"time": 1207, "annotation": {"number": 64, "value": 74}, "group": "control_change"}, {"time": 1207, "annotation": {"number": 64, "value": 0}, "group": "control_change"}, {"time": 1207, "annotation": {"number": 64, "value": 38}, "group": "control_change"}, {"time": 1208, "annotation": {"number": 64, "value": 0}, "group": "control_change"}, {"time": 1211, "annotation": {"number": 64, "value": 127}, "group": "control_change"}, {"time": 1219, "annotation": {"number": 64, "value": 0}, "group": "control_change"}, {"time": 1233, "annotation": {"number": 64, "value": 38}, "group": "control_change"}, {"time": 1233, "annotation": {"number": 64, "value": 0}, "group": "control_change"}, {"time": 1235, "annotation": {"number": 64, "value": 127}, "group": "control_change"}, {"time": 1256, "annotation": {"number": 64, "value": 38}, "group": "control_change"}, {"time": 1256, "annotation": {"number": 64, "value": 0}, "group": "control_change"}, {"time": 1259, "annotation": {"number": 64, "value": 127}, "group": "control_change"}, {"time": 1280, "annotation": {"number": 64, "value": 38}, "group": "control_change"}, {"time": 1280, "annotation": {"number": 64, "value": 0}, "group": "control_change"}, {"time": 1283, "annotation": {"number": 64, "value": 127}, "group": "control_change"}, {"time": 1304, "annotation": {"number": 64, "value": 74}, "group": "control_change"}, {"time": 1304, "annotation": {"number": 64, "value": 0}, "group": "control_change"}, {"time": 1305, "annotation": {"number": 64, "value": 74}, "group": "control_change"}, {"time": 1305, "annotation": {"number": 64, "value": 0}, "group": "control_change"}, {"time": 1306, "annotation": {"number": 64, "value": 127}, "group": "control_change"}, {"time": 1307, "annotation": {"number": 64, "value": 127}, "group": "control_change"}, {"time": 1309, "annotation": {"number": 64, "value": 127}, "group": "control_change"}, {"time": 1316, "annotation": {"number": 64, "value": 74}, "group": "control_change"}, {"time": 1316, "annotation": {"number": 64, "value": 0}, "group": "control_change"}, {"time": 1428, "annotation": {"number": 64, "value": 127}, "group": "control_change"}, {"time": 1452, "annotation": {"number": 64, "value": 127}, "group": "control_change"}, {"time": 1470, "annotation": {"number": 64, "value": 74}, "group": "control_change"}, {"time": 1470, "annotation": {"number": 64, "value": 0}, "group": "control_change"}, {"time": 1475, "annotation": {"number": 64, "value": 127}, "group": "control_change"}, {"time": 1495, "annotation": {"number": 64, "value": 0}, "group": "control_change"}, {"time": 1500, "annotation": {"number": 64, "value": 127}, "group": "control_change"}, {"time": 1542, "annotation": {"number": 64, "value": 74}, "group": "control_change"}, {"time": 1542, "annotation": {"number": 64, "value": 0}, "group": "control_change"}, {"time": 1547, "annotation": {"number": 64, "value": 127}, "group": "control_change"}, {"time": 1550, "annotation": {"number": 64, "value": 127}, "group": "control_change"}, {"time": 1569, "annotation": {"number": 64, "value": 74}, "group": "control_change"}, {"time": 1569, "annotation": {"number": 64, "value": 0}, "group": "control_change"}, {"time": 1571, "annotation": {"number": 64, "value": 127}, "group": "control_change"}, {"time": 1580, "annotation": {"number": 64, "value": 74}, "group": "control_change"}, {"time": 1580, "annotation": {"number": 64, "value": 0}, "group": "control_change"}, {"time": 1640, "annotation": {"number": 64, "value": 38}, "group": "control_change"}, {"time": 1640, "annotation": {"number": 64, "value": 0}, "group": "control_change"}, {"time": 1644, "annotation": {"number": 64, "value": 127}, "group": "control_change"}, {"time": 1786, "annotation": {"number": 64, "value": 38}, "group": "control_change"}, {"time": 1786, "annotation": {"number": 64, "value": 0}, "group": "control_change"}, {"time": 1835, "annotation": {"number": 64, "value": 127}, "group": "control_change"}, {"time": 1882, "annotation": {"number": 64, "value": 38}, "group": "control_change"}, {"time": 1882, "annotation": {"number": 64, "value": 0}, "group": "control_change"}, {"time": 1882, "annotation": {"number": 64, "value": 127}, "group": "control_change"}, {"time": 1905, "annotation": {"number": 64, "value": 0}, "group": "control_change"}, {"time": 1907, "annotation": {"number": 64, "value": 127}, "group": "control_change"}, {"time": 1929, "annotation": {"number": 64, "value": 74}, "group": "control_change"}, {"time": 1929, "annotation": {"number": 64, "value": 0}, "group": "control_change"}, {"time": 1931, "annotation": {"number": 64, "value": 127}, "group": "control_change"}, {"time": 1943, "annotation": {"number": 64, "value": 38}, "group": "control_change"}, {"time": 1943, "annotation": {"number": 64, "value": 0}, "group": "control_change"}, {"time": 1953, "annotation": {"number": 64, "value": 0}, "group": "control_change"}, {"time": 1955, "annotation": {"number": 64, "value": 127}, "group": "control_change"}, {"time": 1977, "annotation": {"number": 64, "value": 38}, "group": "control_change"}, {"time": 1977, "annotation": {"number": 64, "value": 0}, "group": "control_change"}, {"time": 1979, "annotation": {"number": 64, "value": 127}, "group": "control_change"}, {"time": 1988, "annotation": {"number": 64, "value": 74}, "group": "control_change"}, {"time": 1989, "annotation": {"number": 64, "value": 0}, "group": "control_change"}, {"time": 1991, "annotation": {"number": 64, "value": 127}, "group": "control_change"}, {"time": 2001, "annotation": {"number": 64, "value": 74}, "group": "control_change"}, {"time": 2001, "annotation": {"number": 64, "value": 0}, "group": "control_change"}, {"time": 2003, "annotation": {"number": 64, "value": 127}, "group": "control_change"}, {"time": 2025, "annotation": {"number": 64, "value": 0}, "group": "control_change"}, {"time": 2027, "annotation": {"number": 64, "value": 127}, "group": "control_change"}, {"time": 2036, "annotation": {"number": 64, "value": 38}, "group": "control_change"}, {"time": 2036, "annotation": {"number": 64, "value": 0}, "group": "control_change"}, {"time": 2051, "annotation": {"number": 64, "value": 127}, "group": "control_change"}, {"time": 2062, "annotation": {"number": 64, "value": 38}, "group": "control_change"}, {"time": 2062, "annotation": {"number": 64, "value": 0}, "group": "control_change"}, {"time": 2063, "annotation": {"number": 64, "value": 38}, "group": "control_change"}, {"time": 2063, "annotation": {"number": 64, "value": 127}, "group": "control_change"}, {"time": 2073, "annotation": {"number": 64, "value": 0}, "group": "control_change"}, {"time": 2075, "annotation": {"number": 64, "value": 127}, "group": "control_change"}, {"time": 2086, "annotation": {"number": 64, "value": 0}, "group": "control_change"}, {"time": 2087, "annotation": {"number": 64, "value": 127}, "group": "control_change"}, {"time": 2097, "annotation": {"number": 64, "value": 38}, "group": "control_change"}, {"time": 2097, "annotation": {"number": 64, "value": 0}, "group": "control_change"}, {"time": 2099, "annotation": {"number": 64, "value": 127}, "group": "control_change"}, {"time": 2110, "annotation": {"number": 64, "value": 0}, "group": "control_change"}, {"time": 2111, "annotation": {"number": 64, "value": 127}, "group": "control_change"}, {"time": 2121, "annotation": {"number": 64, "value": 38}, "group": "control_change"}, {"time": 2121, "annotation": {"number": 64, "value": 0}, "group": "control_change"}, {"time": 2121, "annotation": {"number": 64, "value": 74}, "group": "control_change"}, {"time": 2123, "annotation": {"number": 64, "value": 127}, "group": "control_change"}, {"time": 2144, "annotation": {"number": 64, "value": 74}, "group": "control_change"}, {"time": 2144, "annotation": {"number": 64, "value": 0}, "group": "control_change"}, {"time": 2144, "annotation": {"number": 64, "value": 38}, "group": "control_change"}, {"time": 2145, "annotation": {"number": 64, "value": 0}, "group": "control_change"}, {"time": 2147, "annotation": {"number": 64, "value": 127}, "group": "control_change"}, {"time": 2154, "annotation": {"number": 64, "value": 74}, "group": "control_change"}, {"time": 2165, "annotation": {"number": 64, "value": 127}, "group": "control_change"}, {"time": 2168, "annotation": {"number": 64, "value": 38}, "group": "control_change"}, {"time": 2168, "annotation": {"number": 64, "value": 0}, "group": "control_change"}, {"time": 2170, "annotation": {"number": 64, "value": 38}, "group": "control_change"}, {"time": 2170, "annotation": {"number": 64, "value": 0}, "group": "control_change"}, {"time": 2171, "annotation": {"number": 64, "value": 127}, "group": "control_change"}, {"time": 2192, "annotation": {"number": 64, "value": 0}, "group": "control_change"}, {"time": 2194, "annotation": {"number": 64, "value": 38}, "group": "control_change"}, {"time": 2194, "annotation": {"number": 64, "value": 0}, "group": "control_change"}, {"time": 2195, "annotation": {"number": 64, "value": 29}, "group": "control_change"}, {"time": 2195, "annotation": {"number": 64, "value": 74}, "group": "control_change"}, {"time": 2195, "annotation": {"number": 64, "value": 127}, "group": "control_change"}, {"time": 2205, "annotation": {"number": 64, "value": 74}, "group": "control_change"}, {"time": 2205, "annotation": {"number": 64, "value": 0}, "group": "control_change"}, {"time": 2205, "annotation": {"number": 64, "value": 38}, "group": "control_change"}, {"time": 2205, "annotation": {"number": 64, "value": 127}, "group": "control_change"}, {"time": 2206, "annotation": {"number": 64, "value": 74}, "group": "control_change"}, {"time": 2206, "annotation": {"number": 64, "value": 0}, "group": "control_change"}, {"time": 2207, "annotation": {"number": 64, "value": 127}, "group": "control_change"}, {"time": 2217, "annotation": {"number": 64, "value": 38}, "group": "control_change"}, {"time": 2217, "annotation": {"number": 64, "value": 0}, "group": "control_change"}, {"time": 2218, "annotation": {"number": 64, "value": 127}, "group": "control_change"}, {"time": 2240, "annotation": {"number": 64, "value": 0}, "group": "control_change"}, {"time": 2243, "annotation": {"number": 64, "value": 127}, "group": "control_change"}, {"time": 2264, "annotation": {"number": 64, "value": 38}, "group": "control_change"}, {"time": 2265, "annotation": {"number": 64, "value": 0}, "group": "control_change"}, {"time": 2267, "annotation": {"number": 64, "value": 127}, "group": "control_change"}, {"time": 2287, "annotation": {"number": 64, "value": 74}, "group": "control_change"}, {"time": 2287, "annotation": {"number": 64, "value": 0}, "group": "control_change"}, {"time": 2287, "annotation": {"number": 64, "value": 38}, "group": "control_change"}, {"time": 2288, "annotation": {"number": 64, "value": 0}, "group": "control_change"}, {"time": 2291, "annotation": {"number": 64, "value": 127}, "group": "control_change"}, {"time": 2299, "annotation": {"number": 64, "value": 0}, "group": "control_change"}, {"time": 2313, "annotation": {"number": 64, "value": 38}, "group": "control_change"}, {"time": 2313, "annotation": {"number": 64, "value": 0}, "group": "control_change"}, {"time": 2315, "annotation": {"number": 64, "value": 127}, "group": "control_change"}, {"time": 2336, "annotation": {"number": 64, "value": 38}, "group": "control_change"}, {"time": 2336, "annotation": {"number": 64, "value": 0}, "group": "control_change"}, {"time": 2339, "annotation": {"number": 64, "value": 127}, "group": "control_change"}, {"time": 2360, "annotation": {"number": 64, "value": 38}, "group": "control_change"}, {"time": 2360, "annotation": {"number": 64, "value": 0}, "group": "control_change"}, {"time": 2363, "annotation": {"number": 64, "value": 127}, "group": "control_change"}, {"time": 2384, "annotation": {"number": 64, "value": 74}, "group": "control_change"}, {"time": 2384, "annotation": {"number": 64, "value": 0}, "group": "control_change"}, {"time": 2385, "annotation": {"number": 64, "value": 74}, "group": "control_change"}, {"time": 2385, "annotation": {"number": 64, "value": 0}, "group": "control_change"}, {"time": 2386, "annotation": {"number": 64, "value": 127}, "group": "control_change"}, {"time": 2387, "annotation": {"number": 64, "value": 127}, "group": "control_change"}, {"time": 2389, "annotation": {"number": 64, "value": 127}, "group": "control_change"}, {"time": 2396, "annotation": {"number": 64, "value": 74}, "group": "control_change"}, {"time": 2396, "annotation": {"number": 64, "value": 0}, "group": "control_change"}, {"time": 2913, "annotation": {"number": 64, "value": 38}, "group": "control_change"}, {"time": 2913, "annotation": {"number": 64, "value": 0}, "group": "control_change"}, {"time": 2915, "annotation": {"number": 64, "value": 127}, "group": "control_change"}, {"time": 2937, "annotation": {"number": 64, "value": 38}, "group": "control_change"}, {"time": 2937, "annotation": {"number": 64, "value": 0}, "group": "control_change"}, {"time": 2939, "annotation": {"number": 64, "value": 127}, "group": "control_change"}, {"time": 2960, "annotation": {"number": 64, "value": 38}, "group": "control_change"}, {"time": 2961, "annotation": {"number": 64, "value": 0}, "group": "control_change"}, {"time": 2963, "annotation": {"number": 64, "value": 127}, "group": "control_change"}, {"time": 2970, "annotation": {"number": 64, "value": 123}, "group": "control_change"}, {"time": 2978, "annotation": {"number": 64, "value": 127}, "group": "control_change"}, {"time": 2984, "annotation": {"number": 64, "value": 38}, "group": "control_change"}, {"time": 2984, "annotation": {"number": 64, "value": 0}, "group": "control_change"}, {"time": 2987, "annotation": {"number": 64, "value": 127}, "group": "control_change"}, {"time": 3008, "annotation": {"number": 64, "value": 38}, "group": "control_change"}, {"time": 3008, "annotation": {"number": 64, "value": 0}, "group": "control_change"}, {"time": 3011, "annotation": {"number": 64, "value": 74}, "group": "control_change"}, {"time": 3011, "annotation": {"number": 64, "value": 127}, "group": "control_change"}, {"time": 3021, "annotation": {"number": 64, "value": 74}, "group": "control_change"}, {"time": 3021, "annotation": {"number": 64, "value": 0}, "group": "control_change"}, {"time": 3023, "annotation": {"number": 64, "value": 127}, "group": "control_change"}, {"time": 3033, "annotation": {"number": 64, "value": 38}, "group": "control_change"}, {"time": 3033, "annotation": {"number": 64, "value": 0}, "group": "control_change"}, {"time": 3034, "annotation": {"number": 64, "value": 127}, "group": "control_change"}, {"time": 3056, "annotation": {"number": 64, "value": 0}, "group": "control_change"}, {"time": 3059, "annotation": {"number": 64, "value": 127}, "group": "control_change"}, {"time": 3080, "annotation": {"number": 64, "value": 38}, "group": "control_change"}, {"time": 3081, "annotation": {"number": 64, "value": 0}, "group": "control_change"}, {"time": 3083, "annotation": {"number": 64, "value": 127}, "group": "control_change"}, {"time": 3103, "annotation": {"number": 64, "value": 74}, "group": "control_change"}, {"time": 3103, "annotation": {"number": 64, "value": 0}, "group": "control_change"}, {"time": 3103, "annotation": {"number": 64, "value": 38}, "group": "control_change"}, {"time": 3104, "annotation": {"number": 64, "value": 0}, "group": "control_change"}, {"time": 3107, "annotation": {"number": 64, "value": 127}, "group": "control_change"}, {"time": 3125, "annotation": {"number": 64, "value": 114}, "group": "control_change"}, {"time": 3129, "annotation": {"number": 64, "value": 38}, "group": "control_change"}, {"time": 3129, "annotation": {"number": 64, "value": 0}, "group": "control_change"}, {"time": 3131, "annotation": {"number": 64, "value": 127}, "group": "control_change"}, {"time": 3152, "annotation": {"number": 64, "value": 38}, "group": "control_change"}, {"time": 3152, "annotation": {"number": 64, "value": 0}, "group": "control_change"}, {"time": 3155, "annotation": {"number": 64, "value": 127}, "group": "control_change"}, {"time": 3176, "annotation": {"number": 64, "value": 38}, "group": "control_change"}, {"time": 3176, "annotation": {"number": 64, "value": 0}, "group": "control_change"}, {"time": 3179, "annotation": {"number": 64, "value": 127}, "group": "control_change"}, {"time": 3200, "annotation": {"number": 64, "value": 74}, "group": "control_change"}, {"time": 3200, "annotation": {"number": 64, "value": 0}, "group": "control_change"}, {"time": 3201, "annotation": {"number": 64, "value": 74}, "group": "control_change"}, {"time": 3201, "annotation": {"number": 64, "value": 0}, "group": "control_change"}, {"time": 3202, "annotation": {"number": 64, "value": 127}, "group": "control_change"}, {"time": 3203, "annotation": {"number": 64, "value": 127}, "group": "control_change"}, {"time": 3205, "annotation": {"number": 64, "value": 127}, "group": "control_change"}, {"time": 3212, "annotation": {"number": 64, "value": 74}, "group": "control_change"}, {"time": 3212, "annotation": {"number": 64, "value": 0}, "group": "control_change"}, {"time": 3214, "annotation": {"number": 64, "value": 38}, "group": "control_change"}, {"time": 3214, "annotation": {"number": 64, "value": 127}, "group": "control_change"}]}]}