{"metadata": {"schema_version": "0.2", "title": "None", "source_filename": "287.mid", "source_format": "midi"}, "resolution": 12, "tempos": [{"time": 0, "qpm": 69.00009660013524}], "time_signatures": [{"time": 0, "numerator": 4, "denominator": 4}], "tracks": [{"program": 4, "is_drum": false, "name": "MELODY", "notes": [{"time": 308, "pitch": 63, "duration": 3, "velocity": 89}, {"time": 311, "pitch": 63, "duration": 3, "velocity": 89}, {"time": 314, "pitch": 63, "duration": 6, "velocity": 102}, {"time": 320, "pitch": 64, "duration": 3, "velocity": 94}, {"time": 323, "pitch": 63, "duration": 33, "velocity": 96}, {"time": 356, "pitch": 63, "duration": 4, "velocity": 108}, {"time": 359, "pitch": 64, "duration": 3, "velocity": 104}, {"time": 362, "pitch": 66, "duration": 6, "velocity": 116}, {"time": 368, "pitch": 66, "duration": 3, "velocity": 110}, {"time": 371, "pitch": 68, "duration": 9, "velocity": 116}, {"time": 380, "pitch": 66, "duration": 24, "velocity": 114}, {"time": 404, "pitch": 68, "duration": 3, "velocity": 110}, {"time": 407, "pitch": 70, "duration": 3, "velocity": 94}, {"time": 410, "pitch": 71, "duration": 18, "velocity": 114}, {"time": 428, "pitch": 63, "duration": 3, "velocity": 113}, {"time": 431, "pitch": 71, "duration": 3, "velocity": 108}, {"time": 434, "pitch": 70, "duration": 6, "velocity": 114}, {"time": 440, "pitch": 68, "duration": 6, "velocity": 93}, {"time": 446, "pitch": 66, "duration": 6, "velocity": 108}, {"time": 452, "pitch": 68, "duration": 48, "velocity": 110}, {"time": 500, "pitch": 68, "duration": 3, "velocity": 110}, {"time": 503, "pitch": 66, "duration": 4, "velocity": 92}, {"time": 506, "pitch": 64, "duration": 6, "velocity": 107}, {"time": 512, "pitch": 63, "duration": 6, "velocity": 100}, {"time": 518, "pitch": 64, "duration": 6, "velocity": 107}, {"time": 524, "pitch": 66, "duration": 6, "velocity": 98}, {"time": 530, "pitch": 68, "duration": 6, "velocity": 116}, {"time": 536, "pitch": 66, "duration": 3, "velocity": 102}, {"time": 539, "pitch": 66, "duration": 9, "velocity": 108}, {"time": 548, "pitch": 71, "duration": 3, "velocity": 104}, {"time": 551, "pitch": 73, "duration": 4, "velocity": 88}, {"time": 554, "pitch": 75, "duration": 6, "velocity": 107}, {"time": 560, "pitch": 73, "duration": 6, "velocity": 107}, {"time": 566, "pitch": 73, "duration": 6, "velocity": 108}, {"time": 572, "pitch": 71, "duration": 4, "velocity": 104}, {"time": 575, "pitch": 68, "duration": 9, "velocity": 110}, {"time": 584, "pitch": 66, "duration": 12, "velocity": 96}, {"time": 596, "pitch": 71, "duration": 3, "velocity": 108}, {"time": 599, "pitch": 73, "duration": 4, "velocity": 110}, {"time": 602, "pitch": 75, "duration": 6, "velocity": 113}, {"time": 608, "pitch": 73, "duration": 6, "velocity": 107}, {"time": 614, "pitch": 73, "duration": 6, "velocity": 107}, {"time": 620, "pitch": 71, "duration": 6, "velocity": 102}, {"time": 626, "pitch": 71, "duration": 9, "velocity": 104}, {"time": 635, "pitch": 68, "duration": 12, "velocity": 114}, {"time": 647, "pitch": 71, "duration": 5, "velocity": 114}, {"time": 650, "pitch": 73, "duration": 42, "velocity": 117}, {"time": 692, "pitch": 63, "duration": 4, "velocity": 110}, {"time": 695, "pitch": 64, "duration": 4, "velocity": 92}, {"time": 698, "pitch": 63, "duration": 6, "velocity": 108}, {"time": 704, "pitch": 64, "duration": 3, "velocity": 102}, {"time": 707, "pitch": 63, "duration": 33, "velocity": 107}, {"time": 740, "pitch": 63, "duration": 4, "velocity": 98}, {"time": 743, "pitch": 64, "duration": 4, "velocity": 98}, {"time": 746, "pitch": 66, "duration": 6, "velocity": 107}, {"time": 752, "pitch": 66, "duration": 3, "velocity": 108}, {"time": 755, "pitch": 68, "duration": 13, "velocity": 108}, {"time": 767, "pitch": 66, "duration": 21, "velocity": 113}, {"time": 788, "pitch": 68, "duration": 3, "velocity": 104}, {"time": 791, "pitch": 70, "duration": 4, "velocity": 102}, {"time": 794, "pitch": 71, "duration": 18, "velocity": 113}, {"time": 812, "pitch": 70, "duration": 4, "velocity": 104}, {"time": 815, "pitch": 71, "duration": 3, "velocity": 96}, {"time": 818, "pitch": 70, "duration": 6, "velocity": 100}, {"time": 824, "pitch": 68, "duration": 6, "velocity": 110}, {"time": 830, "pitch": 66, "duration": 6, "velocity": 110}, {"time": 836, "pitch": 68, "duration": 48, "velocity": 114}, {"time": 884, "pitch": 68, "duration": 4, "velocity": 107}, {"time": 887, "pitch": 66, "duration": 3, "velocity": 93}, {"time": 890, "pitch": 64, "duration": 6, "velocity": 100}, {"time": 896, "pitch": 63, "duration": 6, "velocity": 100}, {"time": 902, "pitch": 64, "duration": 6, "velocity": 107}, {"time": 908, "pitch": 66, "duration": 6, "velocity": 113}, {"time": 914, "pitch": 68, "duration": 6, "velocity": 114}, {"time": 920, "pitch": 66, "duration": 3, "velocity": 107}, {"time": 923, "pitch": 66, "duration": 9, "velocity": 110}, {"time": 932, "pitch": 71, "duration": 3, "velocity": 104}, {"time": 935, "pitch": 73, "duration": 3, "velocity": 96}, {"time": 938, "pitch": 75, "duration": 6, "velocity": 108}, {"time": 944, "pitch": 73, "duration": 6, "velocity": 102}, {"time": 950, "pitch": 73, "duration": 6, "velocity": 107}, {"time": 956, "pitch": 71, "duration": 3, "velocity": 96}, {"time": 959, "pitch": 68, "duration": 9, "velocity": 94}, {"time": 968, "pitch": 66, "duration": 12, "velocity": 92}, {"time": 980, "pitch": 71, "duration": 3, "velocity": 108}, {"time": 983, "pitch": 73, "duration": 3, "velocity": 107}, {"time": 986, "pitch": 75, "duration": 6, "velocity": 116}, {"time": 992, "pitch": 73, "duration": 6, "velocity": 108}, {"time": 998, "pitch": 73, "duration": 6, "velocity": 104}, {"time": 1004, "pitch": 71, "duration": 6, "velocity": 102}, {"time": 1010, "pitch": 71, "duration": 9, "velocity": 108}, {"time": 1019, "pitch": 68, "duration": 9, "velocity": 117}, {"time": 1028, "pitch": 80, "duration": 12, "velocity": 120}, {"time": 1040, "pitch": 80, "duration": 18, "velocity": 123}, {"time": 1058, "pitch": 78, "duration": 33, "velocity": 117}, {"time": 1091, "pitch": 68, "duration": 3, "velocity": 116}, {"time": 1094, "pitch": 83, "duration": 6, "velocity": 113}, {"time": 1100, "pitch": 83, "duration": 3, "velocity": 119}, {"time": 1103, "pitch": 83, "duration": 3, "velocity": 107}, {"time": 1106, "pitch": 82, "duration": 6, "velocity": 113}, {"time": 1112, "pitch": 80, "duration": 6, "velocity": 117}, {"time": 1118, "pitch": 78, "duration": 6, "velocity": 114}, {"time": 1124, "pitch": 73, "duration": 6, "velocity": 117}, {"time": 1130, "pitch": 75, "duration": 18, "velocity": 116}, {"time": 1148, "pitch": 76, "duration": 6, "velocity": 116}, {"time": 1154, "pitch": 78, "duration": 33, "velocity": 117}, {"time": 1187, "pitch": 68, "duration": 3, "velocity": 108}, {"time": 1190, "pitch": 80, "duration": 3, "velocity": 116}, {"time": 1193, "pitch": 80, "duration": 6, "velocity": 116}, {"time": 1199, "pitch": 80, "duration": 3, "velocity": 114}, {"time": 1202, "pitch": 78, "duration": 6, "velocity": 116}, {"time": 1208, "pitch": 73, "duration": 3, "velocity": 113}, {"time": 1211, "pitch": 73, "duration": 6, "velocity": 116}, {"time": 1217, "pitch": 76, "duration": 9, "velocity": 113}, {"time": 1226, "pitch": 75, "duration": 3, "velocity": 117}, {"time": 1229, "pitch": 73, "duration": 3, "velocity": 100}, {"time": 1232, "pitch": 71, "duration": 51, "velocity": 113}, {"time": 1283, "pitch": 68, "duration": 3, "velocity": 110}, {"time": 1286, "pitch": 80, "duration": 4, "velocity": 116}, {"time": 1289, "pitch": 82, "duration": 6, "velocity": 116}, {"time": 1295, "pitch": 83, "duration": 3, "velocity": 120}, {"time": 1298, "pitch": 83, "duration": 6, "velocity": 119}, {"time": 1304, "pitch": 82, "duration": 6, "velocity": 113}, {"time": 1310, "pitch": 80, "duration": 6, "velocity": 116}, {"time": 1316, "pitch": 78, "duration": 6, "velocity": 117}, {"time": 1322, "pitch": 75, "duration": 12, "velocity": 119}, {"time": 1334, "pitch": 73, "duration": 6, "velocity": 114}, {"time": 1340, "pitch": 78, "duration": 6, "velocity": 116}, {"time": 1346, "pitch": 71, "duration": 36, "velocity": 117}, {"time": 1382, "pitch": 76, "duration": 4, "velocity": 116}, {"time": 1385, "pitch": 75, "duration": 6, "velocity": 114}, {"time": 1391, "pitch": 76, "duration": 3, "velocity": 107}, {"time": 1394, "pitch": 75, "duration": 6, "velocity": 116}, {"time": 1400, "pitch": 73, "duration": 4, "velocity": 110}, {"time": 1403, "pitch": 73, "duration": 1, "velocity": 114}, {"time": 1406, "pitch": 73, "duration": 1, "velocity": 116}, {"time": 1412, "pitch": 71, "duration": 6, "velocity": 117}, {"time": 1418, "pitch": 71, "duration": 48, "velocity": 116}, {"time": 1652, "pitch": 66, "duration": 3, "velocity": 89}, {"time": 1655, "pitch": 64, "duration": 3, "velocity": 89}, {"time": 1658, "pitch": 63, "duration": 6, "velocity": 102}, {"time": 1664, "pitch": 64, "duration": 3, "velocity": 94}, {"time": 1667, "pitch": 63, "duration": 33, "velocity": 96}, {"time": 1700, "pitch": 63, "duration": 4, "velocity": 108}, {"time": 1703, "pitch": 64, "duration": 3, "velocity": 104}, {"time": 1706, "pitch": 66, "duration": 6, "velocity": 116}, {"time": 1712, "pitch": 66, "duration": 3, "velocity": 110}, {"time": 1715, "pitch": 68, "duration": 9, "velocity": 116}, {"time": 1724, "pitch": 66, "duration": 24, "velocity": 114}, {"time": 1748, "pitch": 68, "duration": 3, "velocity": 110}, {"time": 1751, "pitch": 70, "duration": 3, "velocity": 94}, {"time": 1754, "pitch": 71, "duration": 18, "velocity": 114}, {"time": 1772, "pitch": 63, "duration": 3, "velocity": 113}, {"time": 1775, "pitch": 71, "duration": 3, "velocity": 108}, {"time": 1778, "pitch": 70, "duration": 6, "velocity": 114}, {"time": 1784, "pitch": 68, "duration": 6, "velocity": 93}, {"time": 1790, "pitch": 66, "duration": 6, "velocity": 108}, {"time": 1796, "pitch": 68, "duration": 48, "velocity": 110}, {"time": 1844, "pitch": 68, "duration": 3, "velocity": 110}, {"time": 1847, "pitch": 66, "duration": 4, "velocity": 92}, {"time": 1850, "pitch": 64, "duration": 6, "velocity": 107}, {"time": 1856, "pitch": 63, "duration": 6, "velocity": 100}, {"time": 1862, "pitch": 64, "duration": 6, "velocity": 107}, {"time": 1868, "pitch": 66, "duration": 6, "velocity": 98}, {"time": 1874, "pitch": 68, "duration": 6, "velocity": 116}, {"time": 1880, "pitch": 66, "duration": 3, "velocity": 102}, {"time": 1883, "pitch": 66, "duration": 9, "velocity": 108}, {"time": 1892, "pitch": 71, "duration": 3, "velocity": 104}, {"time": 1895, "pitch": 73, "duration": 4, "velocity": 88}, {"time": 1898, "pitch": 75, "duration": 6, "velocity": 107}, {"time": 1904, "pitch": 73, "duration": 6, "velocity": 107}, {"time": 1910, "pitch": 73, "duration": 6, "velocity": 108}, {"time": 1916, "pitch": 71, "duration": 4, "velocity": 104}, {"time": 1919, "pitch": 68, "duration": 9, "velocity": 110}, {"time": 1928, "pitch": 66, "duration": 12, "velocity": 96}, {"time": 1940, "pitch": 71, "duration": 3, "velocity": 108}, {"time": 1943, "pitch": 73, "duration": 4, "velocity": 110}, {"time": 1946, "pitch": 75, "duration": 6, "velocity": 113}, {"time": 1952, "pitch": 73, "duration": 6, "velocity": 107}, {"time": 1958, "pitch": 73, "duration": 6, "velocity": 107}, {"time": 1964, "pitch": 71, "duration": 6, "velocity": 102}, {"time": 1970, "pitch": 71, "duration": 9, "velocity": 104}, {"time": 1979, "pitch": 68, "duration": 12, "velocity": 114}, {"time": 1991, "pitch": 71, "duration": 5, "velocity": 114}, {"time": 1994, "pitch": 73, "duration": 42, "velocity": 117}, {"time": 2036, "pitch": 63, "duration": 4, "velocity": 110}, {"time": 2039, "pitch": 64, "duration": 4, "velocity": 92}, {"time": 2042, "pitch": 63, "duration": 6, "velocity": 108}, {"time": 2048, "pitch": 64, "duration": 3, "velocity": 102}, {"time": 2051, "pitch": 63, "duration": 33, "velocity": 107}, {"time": 2084, "pitch": 63, "duration": 4, "velocity": 98}, {"time": 2087, "pitch": 64, "duration": 4, "velocity": 98}, {"time": 2090, "pitch": 66, "duration": 6, "velocity": 107}, {"time": 2096, "pitch": 66, "duration": 3, "velocity": 108}, {"time": 2099, "pitch": 68, "duration": 13, "velocity": 108}, {"time": 2111, "pitch": 66, "duration": 21, "velocity": 113}, {"time": 2132, "pitch": 68, "duration": 3, "velocity": 104}, {"time": 2135, "pitch": 70, "duration": 4, "velocity": 102}, {"time": 2138, "pitch": 71, "duration": 18, "velocity": 113}, {"time": 2156, "pitch": 70, "duration": 4, "velocity": 104}, {"time": 2159, "pitch": 71, "duration": 3, "velocity": 96}, {"time": 2162, "pitch": 70, "duration": 6, "velocity": 100}, {"time": 2168, "pitch": 68, "duration": 6, "velocity": 110}, {"time": 2174, "pitch": 66, "duration": 6, "velocity": 110}, {"time": 2180, "pitch": 68, "duration": 48, "velocity": 114}, {"time": 2228, "pitch": 68, "duration": 4, "velocity": 107}, {"time": 2231, "pitch": 66, "duration": 3, "velocity": 93}, {"time": 2234, "pitch": 64, "duration": 6, "velocity": 100}, {"time": 2240, "pitch": 63, "duration": 6, "velocity": 100}, {"time": 2246, "pitch": 64, "duration": 6, "velocity": 107}, {"time": 2252, "pitch": 66, "duration": 6, "velocity": 113}, {"time": 2258, "pitch": 68, "duration": 6, "velocity": 114}, {"time": 2264, "pitch": 66, "duration": 3, "velocity": 107}, {"time": 2267, "pitch": 66, "duration": 9, "velocity": 110}, {"time": 2276, "pitch": 71, "duration": 3, "velocity": 104}, {"time": 2279, "pitch": 73, "duration": 3, "velocity": 96}, {"time": 2282, "pitch": 75, "duration": 6, "velocity": 108}, {"time": 2288, "pitch": 73, "duration": 6, "velocity": 102}, {"time": 2294, "pitch": 73, "duration": 6, "velocity": 107}, {"time": 2300, "pitch": 71, "duration": 3, "velocity": 96}, {"time": 2303, "pitch": 68, "duration": 9, "velocity": 94}, {"time": 2312, "pitch": 66, "duration": 12, "velocity": 92}, {"time": 2324, "pitch": 71, "duration": 3, "velocity": 108}, {"time": 2327, "pitch": 73, "duration": 3, "velocity": 107}, {"time": 2330, "pitch": 75, "duration": 6, "velocity": 116}, {"time": 2336, "pitch": 73, "duration": 6, "velocity": 108}, {"time": 2342, "pitch": 73, "duration": 6, "velocity": 104}, {"time": 2348, "pitch": 71, "duration": 6, "velocity": 102}, {"time": 2354, "pitch": 71, "duration": 9, "velocity": 108}, {"time": 2363, "pitch": 68, "duration": 9, "velocity": 117}, {"time": 2372, "pitch": 80, "duration": 12, "velocity": 120}, {"time": 2384, "pitch": 80, "duration": 18, "velocity": 123}, {"time": 2402, "pitch": 78, "duration": 33, "velocity": 117}, {"time": 2435, "pitch": 68, "duration": 3, "velocity": 116}, {"time": 2438, "pitch": 83, "duration": 6, "velocity": 113}, {"time": 2444, "pitch": 83, "duration": 3, "velocity": 119}, {"time": 2447, "pitch": 83, "duration": 3, "velocity": 107}, {"time": 2450, "pitch": 82, "duration": 6, "velocity": 113}, {"time": 2456, "pitch": 80, "duration": 6, "velocity": 117}, {"time": 2462, "pitch": 78, "duration": 6, "velocity": 114}, {"time": 2468, "pitch": 73, "duration": 6, "velocity": 117}, {"time": 2474, "pitch": 75, "duration": 18, "velocity": 116}, {"time": 2492, "pitch": 76, "duration": 6, "velocity": 116}, {"time": 2498, "pitch": 78, "duration": 33, "velocity": 117}, {"time": 2531, "pitch": 68, "duration": 3, "velocity": 108}, {"time": 2534, "pitch": 80, "duration": 3, "velocity": 116}, {"time": 2537, "pitch": 80, "duration": 6, "velocity": 116}, {"time": 2543, "pitch": 80, "duration": 3, "velocity": 114}, {"time": 2546, "pitch": 78, "duration": 6, "velocity": 116}, {"time": 2552, "pitch": 73, "duration": 3, "velocity": 113}, {"time": 2555, "pitch": 73, "duration": 6, "velocity": 116}, {"time": 2561, "pitch": 76, "duration": 9, "velocity": 113}, {"time": 2570, "pitch": 75, "duration": 3, "velocity": 117}, {"time": 2573, "pitch": 73, "duration": 3, "velocity": 100}, {"time": 2576, "pitch": 71, "duration": 51, "velocity": 113}, {"time": 2627, "pitch": 68, "duration": 3, "velocity": 110}, {"time": 2630, "pitch": 80, "duration": 4, "velocity": 116}, {"time": 2633, "pitch": 82, "duration": 6, "velocity": 116}, {"time": 2639, "pitch": 83, "duration": 3, "velocity": 120}, {"time": 2642, "pitch": 83, "duration": 6, "velocity": 119}, {"time": 2648, "pitch": 82, "duration": 6, "velocity": 113}, {"time": 2654, "pitch": 80, "duration": 6, "velocity": 116}, {"time": 2660, "pitch": 78, "duration": 6, "velocity": 117}, {"time": 2666, "pitch": 75, "duration": 12, "velocity": 119}, {"time": 2678, "pitch": 73, "duration": 6, "velocity": 114}, {"time": 2684, "pitch": 78, "duration": 6, "velocity": 116}, {"time": 2690, "pitch": 71, "duration": 36, "velocity": 117}, {"time": 2726, "pitch": 76, "duration": 4, "velocity": 116}, {"time": 2729, "pitch": 75, "duration": 6, "velocity": 114}, {"time": 2735, "pitch": 76, "duration": 3, "velocity": 107}, {"time": 2738, "pitch": 75, "duration": 6, "velocity": 116}, {"time": 2744, "pitch": 73, "duration": 4, "velocity": 110}, {"time": 2747, "pitch": 73, "duration": 1, "velocity": 114}, {"time": 2750, "pitch": 73, "duration": 1, "velocity": 116}, {"time": 2756, "pitch": 71, "duration": 6, "velocity": 117}, {"time": 2762, "pitch": 71, "duration": 48, "velocity": 116}, {"time": 3158, "pitch": 76, "duration": 6, "velocity": 116}, {"time": 3164, "pitch": 76, "duration": 12, "velocity": 116}, {"time": 3176, "pitch": 76, "duration": 6, "velocity": 117}, {"time": 3182, "pitch": 78, "duration": 6, "velocity": 114}, {"time": 3188, "pitch": 80, "duration": 6, "velocity": 116}, {"time": 3194, "pitch": 80, "duration": 6, "velocity": 116}, {"time": 3200, "pitch": 78, "duration": 6, "velocity": 113}, {"time": 3206, "pitch": 78, "duration": 6, "velocity": 116}, {"time": 3212, "pitch": 76, "duration": 6, "velocity": 114}, {"time": 3218, "pitch": 78, "duration": 6, "velocity": 116}, {"time": 3224, "pitch": 76, "duration": 3, "velocity": 110}, {"time": 3227, "pitch": 73, "duration": 27, "velocity": 116}, {"time": 3254, "pitch": 76, "duration": 6, "velocity": 117}, {"time": 3260, "pitch": 76, "duration": 6, "velocity": 116}, {"time": 3266, "pitch": 76, "duration": 6, "velocity": 116}, {"time": 3272, "pitch": 76, "duration": 6, "velocity": 114}, {"time": 3278, "pitch": 78, "duration": 6, "velocity": 116}, {"time": 3284, "pitch": 80, "duration": 6, "velocity": 116}, {"time": 3290, "pitch": 80, "duration": 12, "velocity": 116}, {"time": 3302, "pitch": 78, "duration": 12, "velocity": 116}, {"time": 3314, "pitch": 80, "duration": 12, "velocity": 120}, {"time": 3326, "pitch": 78, "duration": 24, "velocity": 120}, {"time": 3350, "pitch": 76, "duration": 6, "velocity": 116}, {"time": 3356, "pitch": 78, "duration": 6, "velocity": 114}, {"time": 3362, "pitch": 80, "duration": 6, "velocity": 107}, {"time": 3368, "pitch": 80, "duration": 7, "velocity": 114}, {"time": 3374, "pitch": 78, "duration": 6, "velocity": 113}, {"time": 3380, "pitch": 76, "duration": 6, "velocity": 114}, {"time": 3386, "pitch": 75, "duration": 6, "velocity": 114}, {"time": 3392, "pitch": 78, "duration": 3, "velocity": 116}, {"time": 3395, "pitch": 78, "duration": 51, "velocity": 113}, {"time": 3446, "pitch": 80, "duration": 6, "velocity": 116}, {"time": 3452, "pitch": 80, "duration": 6, "velocity": 116}, {"time": 3458, "pitch": 80, "duration": 6, "velocity": 117}, {"time": 3464, "pitch": 80, "duration": 6, "velocity": 114}, {"time": 3470, "pitch": 82, "duration": 6, "velocity": 119}, {"time": 3476, "pitch": 83, "duration": 6, "velocity": 116}, {"time": 3482, "pitch": 83, "duration": 24, "velocity": 113}, {"time": 3506, "pitch": 82, "duration": 33, "velocity": 119}, {"time": 3539, "pitch": 71, "duration": 3, "velocity": 108}, {"time": 3542, "pitch": 83, "duration": 3, "velocity": 116}, {"time": 3545, "pitch": 83, "duration": 1, "velocity": 114}, {"time": 3551, "pitch": 83, "duration": 3, "velocity": 114}, {"time": 3554, "pitch": 82, "duration": 6, "velocity": 117}, {"time": 3560, "pitch": 80, "duration": 6, "velocity": 108}, {"time": 3566, "pitch": 78, "duration": 6, "velocity": 113}, {"time": 3572, "pitch": 73, "duration": 6, "velocity": 108}, {"time": 3578, "pitch": 75, "duration": 18, "velocity": 114}, {"time": 3596, "pitch": 76, "duration": 6, "velocity": 116}, {"time": 3602, "pitch": 80, "duration": 12, "velocity": 117}, {"time": 3614, "pitch": 78, "duration": 21, "velocity": 117}, {"time": 3635, "pitch": 71, "duration": 3, "velocity": 107}, {"time": 3638, "pitch": 80, "duration": 3, "velocity": 117}, {"time": 3641, "pitch": 80, "duration": 6, "velocity": 117}, {"time": 3647, "pitch": 80, "duration": 3, "velocity": 116}, {"time": 3650, "pitch": 78, "duration": 6, "velocity": 119}, {"time": 3656, "pitch": 73, "duration": 3, "velocity": 116}, {"time": 3659, "pitch": 73, "duration": 6, "velocity": 116}, {"time": 3665, "pitch": 76, "duration": 9, "velocity": 108}, {"time": 3674, "pitch": 75, "duration": 6, "velocity": 116}, {"time": 3680, "pitch": 73, "duration": 6, "velocity": 108}, {"time": 3686, "pitch": 71, "duration": 45, "velocity": 102}, {"time": 3731, "pitch": 71, "duration": 3, "velocity": 113}, {"time": 3734, "pitch": 80, "duration": 3, "velocity": 117}, {"time": 3737, "pitch": 82, "duration": 6, "velocity": 116}, {"time": 3743, "pitch": 83, "duration": 3, "velocity": 117}, {"time": 3746, "pitch": 82, "duration": 6, "velocity": 117}, {"time": 3752, "pitch": 82, "duration": 6, "velocity": 113}, {"time": 3758, "pitch": 80, "duration": 6, "velocity": 113}, {"time": 3764, "pitch": 78, "duration": 6, "velocity": 116}, {"time": 3770, "pitch": 75, "duration": 12, "velocity": 119}, {"time": 3782, "pitch": 73, "duration": 6, "velocity": 117}, {"time": 3788, "pitch": 78, "duration": 6, "velocity": 88}, {"time": 3794, "pitch": 71, "duration": 36, "velocity": 113}, {"time": 3830, "pitch": 76, "duration": 5, "velocity": 116}, {"time": 3833, "pitch": 75, "duration": 6, "velocity": 107}, {"time": 3839, "pitch": 76, "duration": 4, "velocity": 107}, {"time": 3842, "pitch": 75, "duration": 6, "velocity": 108}, {"time": 3848, "pitch": 73, "duration": 4, "velocity": 114}, {"time": 3851, "pitch": 73, "duration": 1, "velocity": 110}, {"time": 3854, "pitch": 73, "duration": 6, "velocity": 110}, {"time": 3860, "pitch": 71, "duration": 6, "velocity": 116}, {"time": 3866, "pitch": 71, "duration": 60, "velocity": 117}, {"time": 3926, "pitch": 76, "duration": 6, "velocity": 113}, {"time": 3932, "pitch": 75, "duration": 6, "velocity": 102}, {"time": 3938, "pitch": 76, "duration": 6, "velocity": 104}, {"time": 3944, "pitch": 75, "duration": 8, "velocity": 107}, {"time": 3950, "pitch": 73, "duration": 6, "velocity": 110}, {"time": 3956, "pitch": 73, "duration": 34, "velocity": 110}, {"time": 3990, "pitch": 70, "duration": 12, "velocity": 117}, {"time": 4002, "pitch": 71, "duration": 66, "velocity": 114}]}, {"program": 0, "is_drum": false, "name": "PIANO", "notes": [{"time": 26, "pitch": 47, "duration": 47, "velocity": 93}, {"time": 26, "pitch": 59, "duration": 12, "velocity": 90}, {"time": 26, "pitch": 63, "duration": 12, "velocity": 104}, {"time": 26, "pitch": 66, "duration": 11, "velocity": 94}, {"time": 38, "pitch": 59, "duration": 11, "velocity": 88}, {"time": 38, "pitch": 63, "duration": 11, "velocity": 92}, {"time": 38, "pitch": 66, "duration": 10, "velocity": 92}, {"time": 50, "pitch": 59, "duration": 10, "velocity": 89}, {"time": 50, "pitch": 63, "duration": 10, "velocity": 93}, {"time": 50, "pitch": 66, "duration": 10, "velocity": 89}, {"time": 62, "pitch": 59, "duration": 10, "velocity": 91}, {"time": 62, "pitch": 63, "duration": 9, "velocity": 98}, {"time": 62, "pitch": 66, "duration": 10, "velocity": 93}, {"time": 74, "pitch": 46, "duration": 40, "velocity": 88}, {"time": 74, "pitch": 58, "duration": 8, "velocity": 91}, {"time": 74, "pitch": 61, "duration": 8, "velocity": 98}, {"time": 74, "pitch": 66, "duration": 8, "velocity": 92}, {"time": 86, "pitch": 58, "duration": 9, "velocity": 96}, {"time": 86, "pitch": 61, "duration": 9, "velocity": 108}, {"time": 86, "pitch": 66, "duration": 9, "velocity": 98}, {"time": 98, "pitch": 58, "duration": 2, "velocity": 92}, {"time": 98, "pitch": 61, "duration": 8, "velocity": 107}, {"time": 98, "pitch": 66, "duration": 8, "velocity": 96}, {"time": 110, "pitch": 58, "duration": 9, "velocity": 104}, {"time": 110, "pitch": 61, "duration": 11, "velocity": 113}, {"time": 110, "pitch": 66, "duration": 10, "velocity": 102}, {"time": 122, "pitch": 52, "duration": 22, "velocity": 88}, {"time": 122, "pitch": 59, "duration": 10, "velocity": 88}, {"time": 122, "pitch": 64, "duration": 10, "velocity": 89}, {"time": 122, "pitch": 68, "duration": 10, "velocity": 88}, {"time": 134, "pitch": 59, "duration": 8, "velocity": 88}, {"time": 134, "pitch": 64, "duration": 7, "velocity": 91}, {"time": 134, "pitch": 68, "duration": 7, "velocity": 88}, {"time": 146, "pitch": 51, "duration": 21, "velocity": 86}, {"time": 146, "pitch": 58, "duration": 9, "velocity": 88}, {"time": 146, "pitch": 63, "duration": 9, "velocity": 91}, {"time": 146, "pitch": 66, "duration": 8, "velocity": 88}, {"time": 158, "pitch": 58, "duration": 8, "velocity": 90}, {"time": 158, "pitch": 63, "duration": 8, "velocity": 91}, {"time": 158, "pitch": 66, "duration": 8, "velocity": 89}, {"time": 170, "pitch": 49, "duration": 18, "velocity": 87}, {"time": 170, "pitch": 61, "duration": 9, "velocity": 91}, {"time": 170, "pitch": 64, "duration": 9, "velocity": 100}, {"time": 170, "pitch": 68, "duration": 8, "velocity": 94}, {"time": 182, "pitch": 61, "duration": 8, "velocity": 91}, {"time": 182, "pitch": 64, "duration": 8, "velocity": 98}, {"time": 182, "pitch": 68, "duration": 8, "velocity": 91}, {"time": 194, "pitch": 42, "duration": 21, "velocity": 84}, {"time": 194, "pitch": 54, "duration": 21, "velocity": 80}, {"time": 194, "pitch": 58, "duration": 9, "velocity": 90}, {"time": 194, "pitch": 61, "duration": 8, "velocity": 98}, {"time": 194, "pitch": 66, "duration": 8, "velocity": 91}, {"time": 206, "pitch": 58, "duration": 8, "velocity": 90}, {"time": 206, "pitch": 61, "duration": 9, "velocity": 94}, {"time": 206, "pitch": 66, "duration": 8, "velocity": 93}, {"time": 218, "pitch": 47, "duration": 6, "velocity": 87}, {"time": 218, "pitch": 59, "duration": 9, "velocity": 89}, {"time": 218, "pitch": 64, "duration": 9, "velocity": 94}, {"time": 218, "pitch": 68, "duration": 8, "velocity": 90}, {"time": 227, "pitch": 47, "duration": 5, "velocity": 87}, {"time": 227, "pitch": 59, "duration": 38, "velocity": 88}, {"time": 227, "pitch": 63, "duration": 38, "velocity": 96}, {"time": 227, "pitch": 66, "duration": 38, "velocity": 91}, {"time": 266, "pitch": 47, "duration": 7, "velocity": 93}, {"time": 266, "pitch": 59, "duration": 6, "velocity": 88}, {"time": 266, "pitch": 64, "duration": 6, "velocity": 93}, {"time": 266, "pitch": 68, "duration": 6, "velocity": 92}, {"time": 275, "pitch": 47, "duration": 7, "velocity": 93}, {"time": 275, "pitch": 59, "duration": 9, "velocity": 90}, {"time": 275, "pitch": 63, "duration": 9, "velocity": 108}, {"time": 275, "pitch": 66, "duration": 9, "velocity": 96}, {"time": 314, "pitch": 47, "duration": 43, "velocity": 86}, {"time": 320, "pitch": 54, "duration": 36, "velocity": 64}, {"time": 326, "pitch": 59, "duration": 28, "velocity": 65}, {"time": 332, "pitch": 61, "duration": 26, "velocity": 67}, {"time": 332, "pitch": 70, "duration": 23, "velocity": 73}, {"time": 362, "pitch": 46, "duration": 40, "velocity": 83}, {"time": 368, "pitch": 54, "duration": 35, "velocity": 71}, {"time": 374, "pitch": 58, "duration": 27, "velocity": 66}, {"time": 374, "pitch": 66, "duration": 7, "velocity": 69}, {"time": 380, "pitch": 61, "duration": 21, "velocity": 73}, {"time": 410, "pitch": 44, "duration": 20, "velocity": 79}, {"time": 410, "pitch": 59, "duration": 21, "velocity": 81}, {"time": 410, "pitch": 68, "duration": 20, "velocity": 87}, {"time": 416, "pitch": 51, "duration": 17, "velocity": 52}, {"time": 422, "pitch": 56, "duration": 6, "velocity": 75}, {"time": 434, "pitch": 42, "duration": 18, "velocity": 65}, {"time": 434, "pitch": 58, "duration": 20, "velocity": 81}, {"time": 434, "pitch": 66, "duration": 20, "velocity": 81}, {"time": 440, "pitch": 51, "duration": 13, "velocity": 67}, {"time": 446, "pitch": 54, "duration": 6, "velocity": 70}, {"time": 458, "pitch": 40, "duration": 38, "velocity": 76}, {"time": 458, "pitch": 56, "duration": 17, "velocity": 75}, {"time": 458, "pitch": 64, "duration": 14, "velocity": 82}, {"time": 464, "pitch": 47, "duration": 32, "velocity": 67}, {"time": 470, "pitch": 52, "duration": 26, "velocity": 77}, {"time": 476, "pitch": 56, "duration": 19, "velocity": 76}, {"time": 476, "pitch": 64, "duration": 20, "velocity": 83}, {"time": 506, "pitch": 40, "duration": 19, "velocity": 87}, {"time": 512, "pitch": 47, "duration": 15, "velocity": 68}, {"time": 518, "pitch": 52, "duration": 11, "velocity": 75}, {"time": 524, "pitch": 56, "duration": 5, "velocity": 78}, {"time": 524, "pitch": 64, "duration": 5, "velocity": 73}, {"time": 530, "pitch": 42, "duration": 24, "velocity": 80}, {"time": 530, "pitch": 58, "duration": 8, "velocity": 80}, {"time": 530, "pitch": 66, "duration": 8, "velocity": 87}, {"time": 542, "pitch": 58, "duration": 10, "velocity": 88}, {"time": 542, "pitch": 66, "duration": 9, "velocity": 88}, {"time": 554, "pitch": 39, "duration": 19, "velocity": 81}, {"time": 554, "pitch": 51, "duration": 24, "velocity": 81}, {"time": 554, "pitch": 58, "duration": 9, "velocity": 85}, {"time": 554, "pitch": 66, "duration": 8, "velocity": 87}, {"time": 566, "pitch": 58, "duration": 9, "velocity": 85}, {"time": 566, "pitch": 66, "duration": 9, "velocity": 88}, {"time": 578, "pitch": 44, "duration": 18, "velocity": 77}, {"time": 578, "pitch": 59, "duration": 9, "velocity": 84}, {"time": 578, "pitch": 68, "duration": 9, "velocity": 86}, {"time": 590, "pitch": 59, "duration": 7, "velocity": 88}, {"time": 590, "pitch": 68, "duration": 6, "velocity": 91}, {"time": 602, "pitch": 40, "duration": 17, "velocity": 80}, {"time": 602, "pitch": 52, "duration": 17, "velocity": 81}, {"time": 602, "pitch": 56, "duration": 9, "velocity": 84}, {"time": 602, "pitch": 64, "duration": 7, "velocity": 81}, {"time": 614, "pitch": 56, "duration": 8, "velocity": 86}, {"time": 614, "pitch": 64, "duration": 7, "velocity": 87}, {"time": 626, "pitch": 41, "duration": 18, "velocity": 78}, {"time": 626, "pitch": 53, "duration": 18, "velocity": 81}, {"time": 626, "pitch": 56, "duration": 9, "velocity": 88}, {"time": 626, "pitch": 65, "duration": 9, "velocity": 87}, {"time": 638, "pitch": 56, "duration": 8, "velocity": 88}, {"time": 638, "pitch": 65, "duration": 10, "velocity": 87}, {"time": 650, "pitch": 42, "duration": 35, "velocity": 83}, {"time": 650, "pitch": 58, "duration": 15, "velocity": 81}, {"time": 650, "pitch": 66, "duration": 15, "velocity": 88}, {"time": 656, "pitch": 49, "duration": 28, "velocity": 75}, {"time": 662, "pitch": 54, "duration": 22, "velocity": 76}, {"time": 665, "pitch": 59, "duration": 4, "velocity": 88}, {"time": 668, "pitch": 61, "duration": 4, "velocity": 89}, {"time": 671, "pitch": 59, "duration": 4, "velocity": 82}, {"time": 674, "pitch": 58, "duration": 12, "velocity": 86}, {"time": 674, "pitch": 61, "duration": 13, "velocity": 81}, {"time": 674, "pitch": 66, "duration": 13, "velocity": 86}, {"time": 698, "pitch": 47, "duration": 46, "velocity": 81}, {"time": 698, "pitch": 61, "duration": 9, "velocity": 75}, {"time": 698, "pitch": 63, "duration": 8, "velocity": 74}, {"time": 698, "pitch": 66, "duration": 7, "velocity": 75}, {"time": 710, "pitch": 61, "duration": 10, "velocity": 74}, {"time": 710, "pitch": 63, "duration": 9, "velocity": 72}, {"time": 710, "pitch": 66, "duration": 7, "velocity": 73}, {"time": 722, "pitch": 61, "duration": 10, "velocity": 73}, {"time": 722, "pitch": 63, "duration": 10, "velocity": 74}, {"time": 722, "pitch": 66, "duration": 8, "velocity": 73}, {"time": 734, "pitch": 61, "duration": 9, "velocity": 83}, {"time": 734, "pitch": 63, "duration": 11, "velocity": 84}, {"time": 734, "pitch": 66, "duration": 10, "velocity": 81}, {"time": 746, "pitch": 46, "duration": 48, "velocity": 82}, {"time": 746, "pitch": 58, "duration": 10, "velocity": 85}, {"time": 746, "pitch": 61, "duration": 10, "velocity": 86}, {"time": 746, "pitch": 66, "duration": 10, "velocity": 86}, {"time": 758, "pitch": 58, "duration": 10, "velocity": 82}, {"time": 758, "pitch": 61, "duration": 10, "velocity": 84}, {"time": 758, "pitch": 66, "duration": 10, "velocity": 83}, {"time": 770, "pitch": 58, "duration": 10, "velocity": 78}, {"time": 770, "pitch": 61, "duration": 12, "velocity": 81}, {"time": 770, "pitch": 66, "duration": 10, "velocity": 84}, {"time": 782, "pitch": 58, "duration": 8, "velocity": 83}, {"time": 782, "pitch": 61, "duration": 12, "velocity": 84}, {"time": 782, "pitch": 66, "duration": 10, "velocity": 87}, {"time": 794, "pitch": 44, "duration": 23, "velocity": 83}, {"time": 794, "pitch": 59, "duration": 11, "velocity": 83}, {"time": 794, "pitch": 63, "duration": 11, "velocity": 87}, {"time": 794, "pitch": 66, "duration": 10, "velocity": 84}, {"time": 806, "pitch": 59, "duration": 7, "velocity": 80}, {"time": 806, "pitch": 63, "duration": 11, "velocity": 85}, {"time": 806, "pitch": 66, "duration": 9, "velocity": 82}, {"time": 818, "pitch": 42, "duration": 20, "velocity": 78}, {"time": 818, "pitch": 54, "duration": 17, "velocity": 80}, {"time": 818, "pitch": 58, "duration": 9, "velocity": 83}, {"time": 818, "pitch": 61, "duration": 9, "velocity": 84}, {"time": 818, "pitch": 66, "duration": 9, "velocity": 78}, {"time": 830, "pitch": 58, "duration": 8, "velocity": 78}, {"time": 830, "pitch": 61, "duration": 12, "velocity": 83}, {"time": 830, "pitch": 66, "duration": 9, "velocity": 80}, {"time": 842, "pitch": 40, "duration": 44, "velocity": 75}, {"time": 842, "pitch": 52, "duration": 45, "velocity": 73}, {"time": 842, "pitch": 56, "duration": 10, "velocity": 81}, {"time": 842, "pitch": 59, "duration": 9, "velocity": 78}, {"time": 842, "pitch": 64, "duration": 9, "velocity": 84}, {"time": 854, "pitch": 56, "duration": 11, "velocity": 56}, {"time": 854, "pitch": 59, "duration": 10, "velocity": 66}, {"time": 854, "pitch": 64, "duration": 9, "velocity": 76}, {"time": 866, "pitch": 56, "duration": 10, "velocity": 68}, {"time": 866, "pitch": 59, "duration": 10, "velocity": 76}, {"time": 866, "pitch": 64, "duration": 9, "velocity": 78}, {"time": 878, "pitch": 56, "duration": 9, "velocity": 80}, {"time": 878, "pitch": 59, "duration": 8, "velocity": 84}, {"time": 878, "pitch": 64, "duration": 8, "velocity": 82}, {"time": 890, "pitch": 49, "duration": 24, "velocity": 83}, {"time": 890, "pitch": 56, "duration": 10, "velocity": 76}, {"time": 890, "pitch": 59, "duration": 9, "velocity": 81}, {"time": 890, "pitch": 61, "duration": 9, "velocity": 84}, {"time": 890, "pitch": 64, "duration": 8, "velocity": 81}, {"time": 902, "pitch": 56, "duration": 9, "velocity": 77}, {"time": 902, "pitch": 59, "duration": 12, "velocity": 81}, {"time": 902, "pitch": 61, "duration": 11, "velocity": 81}, {"time": 902, "pitch": 64, "duration": 9, "velocity": 81}, {"time": 914, "pitch": 39, "duration": 17, "velocity": 74}, {"time": 914, "pitch": 51, "duration": 17, "velocity": 73}, {"time": 914, "pitch": 58, "duration": 8, "velocity": 74}, {"time": 914, "pitch": 63, "duration": 8, "velocity": 77}, {"time": 914, "pitch": 66, "duration": 9, "velocity": 78}, {"time": 926, "pitch": 58, "duration": 6, "velocity": 82}, {"time": 926, "pitch": 63, "duration": 6, "velocity": 84}, {"time": 926, "pitch": 66, "duration": 6, "velocity": 80}, {"time": 938, "pitch": 47, "duration": 39, "velocity": 88}, {"time": 938, "pitch": 63, "duration": 9, "velocity": 86}, {"time": 938, "pitch": 66, "duration": 10, "velocity": 89}, {"time": 938, "pitch": 71, "duration": 8, "velocity": 87}, {"time": 950, "pitch": 63, "duration": 9, "velocity": 85}, {"time": 950, "pitch": 66, "duration": 10, "velocity": 87}, {"time": 950, "pitch": 71, "duration": 9, "velocity": 85}, {"time": 962, "pitch": 63, "duration": 9, "velocity": 84}, {"time": 962, "pitch": 66, "duration": 9, "velocity": 88}, {"time": 962, "pitch": 71, "duration": 8, "velocity": 82}, {"time": 974, "pitch": 63, "duration": 7, "velocity": 87}, {"time": 974, "pitch": 66, "duration": 9, "velocity": 91}, {"time": 974, "pitch": 71, "duration": 8, "velocity": 86}, {"time": 986, "pitch": 40, "duration": 39, "velocity": 83}, {"time": 986, "pitch": 52, "duration": 29, "velocity": 80}, {"time": 986, "pitch": 64, "duration": 9, "velocity": 86}, {"time": 986, "pitch": 68, "duration": 8, "velocity": 90}, {"time": 986, "pitch": 71, "duration": 9, "velocity": 84}, {"time": 998, "pitch": 64, "duration": 11, "velocity": 84}, {"time": 998, "pitch": 68, "duration": 10, "velocity": 87}, {"time": 998, "pitch": 71, "duration": 10, "velocity": 82}, {"time": 1010, "pitch": 64, "duration": 9, "velocity": 87}, {"time": 1010, "pitch": 68, "duration": 9, "velocity": 89}, {"time": 1010, "pitch": 71, "duration": 9, "velocity": 86}, {"time": 1019, "pitch": 52, "duration": 6, "velocity": 78}, {"time": 1022, "pitch": 64, "duration": 5, "velocity": 90}, {"time": 1022, "pitch": 68, "duration": 7, "velocity": 94}, {"time": 1022, "pitch": 71, "duration": 6, "velocity": 89}, {"time": 1028, "pitch": 40, "duration": 2, "velocity": 86}, {"time": 1031, "pitch": 61, "duration": 13, "velocity": 76}, {"time": 1031, "pitch": 66, "duration": 3, "velocity": 81}, {"time": 1034, "pitch": 42, "duration": 20, "velocity": 86}, {"time": 1034, "pitch": 70, "duration": 4, "velocity": 104}, {"time": 1040, "pitch": 49, "duration": 10, "velocity": 75}, {"time": 1043, "pitch": 54, "duration": 10, "velocity": 88}, {"time": 1046, "pitch": 59, "duration": 10, "velocity": 113}, {"time": 1052, "pitch": 49, "duration": 6, "velocity": 78}, {"time": 1055, "pitch": 58, "duration": 4, "velocity": 83}, {"time": 1055, "pitch": 61, "duration": 3, "velocity": 84}, {"time": 1058, "pitch": 42, "duration": 19, "velocity": 91}, {"time": 1058, "pitch": 54, "duration": 3, "velocity": 65}, {"time": 1058, "pitch": 66, "duration": 3, "velocity": 116}, {"time": 1067, "pitch": 54, "duration": 4, "velocity": 84}, {"time": 1070, "pitch": 66, "duration": 3, "velocity": 110}, {"time": 1070, "pitch": 78, "duration": 3, "velocity": 110}, {"time": 1073, "pitch": 54, "duration": 6, "velocity": 89}, {"time": 1073, "pitch": 68, "duration": 3, "velocity": 94}, {"time": 1073, "pitch": 80, "duration": 3, "velocity": 108}, {"time": 1079, "pitch": 70, "duration": 2, "velocity": 93}, {"time": 1079, "pitch": 82, "duration": 2, "velocity": 110}, {"time": 1082, "pitch": 40, "duration": 21, "velocity": 87}, {"time": 1082, "pitch": 52, "duration": 21, "velocity": 87}, {"time": 1082, "pitch": 59, "duration": 9, "velocity": 88}, {"time": 1082, "pitch": 64, "duration": 8, "velocity": 104}, {"time": 1082, "pitch": 68, "duration": 8, "velocity": 92}, {"time": 1082, "pitch": 71, "duration": 4, "velocity": 88}, {"time": 1082, "pitch": 83, "duration": 4, "velocity": 114}, {"time": 1094, "pitch": 59, "duration": 8, "velocity": 91}, {"time": 1094, "pitch": 64, "duration": 8, "velocity": 94}, {"time": 1094, "pitch": 68, "duration": 8, "velocity": 88}, {"time": 1106, "pitch": 40, "duration": 16, "velocity": 87}, {"time": 1106, "pitch": 52, "duration": 14, "velocity": 87}, {"time": 1106, "pitch": 58, "duration": 10, "velocity": 93}, {"time": 1106, "pitch": 61, "duration": 10, "velocity": 102}, {"time": 1106, "pitch": 66, "duration": 9, "velocity": 93}, {"time": 1118, "pitch": 58, "duration": 7, "velocity": 89}, {"time": 1118, "pitch": 61, "duration": 10, "velocity": 89}, {"time": 1118, "pitch": 66, "duration": 8, "velocity": 88}, {"time": 1130, "pitch": 35, "duration": 21, "velocity": 88}, {"time": 1130, "pitch": 47, "duration": 21, "velocity": 87}, {"time": 1130, "pitch": 59, "duration": 10, "velocity": 89}, {"time": 1130, "pitch": 63, "duration": 10, "velocity": 100}, {"time": 1130, "pitch": 66, "duration": 10, "velocity": 92}, {"time": 1142, "pitch": 59, "duration": 8, "velocity": 84}, {"time": 1142, "pitch": 63, "duration": 8, "velocity": 91}, {"time": 1142, "pitch": 66, "duration": 8, "velocity": 88}, {"time": 1154, "pitch": 37, "duration": 6, "velocity": 96}, {"time": 1154, "pitch": 49, "duration": 6, "velocity": 96}, {"time": 1154, "pitch": 61, "duration": 8, "velocity": 92}, {"time": 1154, "pitch": 64, "duration": 11, "velocity": 107}, {"time": 1154, "pitch": 68, "duration": 11, "velocity": 102}, {"time": 1166, "pitch": 39, "duration": 5, "velocity": 100}, {"time": 1166, "pitch": 51, "duration": 6, "velocity": 91}, {"time": 1166, "pitch": 63, "duration": 9, "velocity": 96}, {"time": 1166, "pitch": 66, "duration": 13, "velocity": 108}, {"time": 1166, "pitch": 70, "duration": 12, "velocity": 104}, {"time": 1178, "pitch": 40, "duration": 22, "velocity": 98}, {"time": 1178, "pitch": 52, "duration": 22, "velocity": 89}, {"time": 1178, "pitch": 64, "duration": 9, "velocity": 96}, {"time": 1178, "pitch": 68, "duration": 9, "velocity": 107}, {"time": 1178, "pitch": 71, "duration": 9, "velocity": 98}, {"time": 1190, "pitch": 64, "duration": 8, "velocity": 98}, {"time": 1190, "pitch": 68, "duration": 8, "velocity": 107}, {"time": 1190, "pitch": 71, "duration": 8, "velocity": 88}, {"time": 1202, "pitch": 42, "duration": 16, "velocity": 89}, {"time": 1202, "pitch": 54, "duration": 16, "velocity": 87}, {"time": 1202, "pitch": 61, "duration": 8, "velocity": 89}, {"time": 1202, "pitch": 66, "duration": 8, "velocity": 92}, {"time": 1202, "pitch": 70, "duration": 7, "velocity": 90}, {"time": 1214, "pitch": 61, "duration": 8, "velocity": 96}, {"time": 1214, "pitch": 66, "duration": 8, "velocity": 96}, {"time": 1214, "pitch": 70, "duration": 8, "velocity": 91}, {"time": 1226, "pitch": 47, "duration": 15, "velocity": 83}, {"time": 1226, "pitch": 59, "duration": 10, "velocity": 91}, {"time": 1226, "pitch": 63, "duration": 10, "velocity": 102}, {"time": 1226, "pitch": 66, "duration": 10, "velocity": 92}, {"time": 1238, "pitch": 59, "duration": 7, "velocity": 88}, {"time": 1238, "pitch": 63, "duration": 10, "velocity": 94}, {"time": 1238, "pitch": 66, "duration": 9, "velocity": 92}, {"time": 1250, "pitch": 37, "duration": 5, "velocity": 96}, {"time": 1250, "pitch": 49, "duration": 6, "velocity": 89}, {"time": 1250, "pitch": 61, "duration": 9, "velocity": 93}, {"time": 1250, "pitch": 64, "duration": 13, "velocity": 104}, {"time": 1250, "pitch": 68, "duration": 11, "velocity": 96}, {"time": 1262, "pitch": 39, "duration": 4, "velocity": 93}, {"time": 1262, "pitch": 51, "duration": 4, "velocity": 96}, {"time": 1262, "pitch": 63, "duration": 6, "velocity": 91}, {"time": 1262, "pitch": 66, "duration": 6, "velocity": 94}, {"time": 1262, "pitch": 71, "duration": 5, "velocity": 89}, {"time": 1274, "pitch": 40, "duration": 21, "velocity": 92}, {"time": 1274, "pitch": 59, "duration": 11, "velocity": 92}, {"time": 1274, "pitch": 64, "duration": 6, "velocity": 104}, {"time": 1274, "pitch": 68, "duration": 6, "velocity": 96}, {"time": 1280, "pitch": 47, "duration": 15, "velocity": 72}, {"time": 1283, "pitch": 52, "duration": 12, "velocity": 85}, {"time": 1286, "pitch": 56, "duration": 7, "velocity": 104}, {"time": 1286, "pitch": 64, "duration": 8, "velocity": 92}, {"time": 1292, "pitch": 59, "duration": 7, "velocity": 85}, {"time": 1298, "pitch": 40, "duration": 24, "velocity": 90}, {"time": 1298, "pitch": 58, "duration": 10, "velocity": 93}, {"time": 1298, "pitch": 61, "duration": 10, "velocity": 104}, {"time": 1298, "pitch": 66, "duration": 10, "velocity": 98}, {"time": 1310, "pitch": 58, "duration": 8, "velocity": 100}, {"time": 1310, "pitch": 61, "duration": 10, "velocity": 110}, {"time": 1310, "pitch": 66, "duration": 8, "velocity": 91}, {"time": 1322, "pitch": 47, "duration": 11, "velocity": 85}, {"time": 1322, "pitch": 59, "duration": 10, "velocity": 91}, {"time": 1322, "pitch": 63, "duration": 11, "velocity": 107}, {"time": 1322, "pitch": 66, "duration": 9, "velocity": 94}, {"time": 1334, "pitch": 46, "duration": 12, "velocity": 86}, {"time": 1334, "pitch": 58, "duration": 9, "velocity": 100}, {"time": 1334, "pitch": 61, "duration": 12, "velocity": 108}, {"time": 1334, "pitch": 66, "duration": 9, "velocity": 90}, {"time": 1346, "pitch": 44, "duration": 18, "velocity": 88}, {"time": 1346, "pitch": 56, "duration": 16, "velocity": 86}, {"time": 1346, "pitch": 59, "duration": 10, "velocity": 89}, {"time": 1346, "pitch": 63, "duration": 9, "velocity": 92}, {"time": 1346, "pitch": 68, "duration": 9, "velocity": 94}, {"time": 1358, "pitch": 59, "duration": 7, "velocity": 88}, {"time": 1358, "pitch": 63, "duration": 7, "velocity": 91}, {"time": 1358, "pitch": 68, "duration": 7, "velocity": 88}, {"time": 1370, "pitch": 40, "duration": 20, "velocity": 88}, {"time": 1370, "pitch": 52, "duration": 21, "velocity": 86}, {"time": 1370, "pitch": 59, "duration": 8, "velocity": 88}, {"time": 1370, "pitch": 64, "duration": 8, "velocity": 92}, {"time": 1370, "pitch": 68, "duration": 8, "velocity": 89}, {"time": 1382, "pitch": 59, "duration": 9, "velocity": 89}, {"time": 1382, "pitch": 64, "duration": 9, "velocity": 89}, {"time": 1382, "pitch": 68, "duration": 9, "velocity": 87}, {"time": 1394, "pitch": 42, "duration": 22, "velocity": 89}, {"time": 1394, "pitch": 58, "duration": 9, "velocity": 91}, {"time": 1394, "pitch": 61, "duration": 9, "velocity": 96}, {"time": 1394, "pitch": 66, "duration": 9, "velocity": 92}, {"time": 1406, "pitch": 58, "duration": 9, "velocity": 90}, {"time": 1406, "pitch": 61, "duration": 11, "velocity": 98}, {"time": 1406, "pitch": 66, "duration": 9, "velocity": 92}, {"time": 1418, "pitch": 47, "duration": 30, "velocity": 93}, {"time": 1418, "pitch": 59, "duration": 11, "velocity": 91}, {"time": 1418, "pitch": 63, "duration": 11, "velocity": 102}, {"time": 1418, "pitch": 66, "duration": 9, "velocity": 96}, {"time": 1430, "pitch": 59, "duration": 11, "velocity": 88}, {"time": 1430, "pitch": 63, "duration": 11, "velocity": 89}, {"time": 1430, "pitch": 66, "duration": 9, "velocity": 88}, {"time": 1442, "pitch": 59, "duration": 10, "velocity": 89}, {"time": 1442, "pitch": 63, "duration": 10, "velocity": 91}, {"time": 1442, "pitch": 66, "duration": 10, "velocity": 89}, {"time": 1451, "pitch": 47, "duration": 7, "velocity": 86}, {"time": 1454, "pitch": 59, "duration": 8, "velocity": 90}, {"time": 1454, "pitch": 63, "duration": 8, "velocity": 96}, {"time": 1454, "pitch": 66, "duration": 8, "velocity": 92}, {"time": 1466, "pitch": 47, "duration": 40, "velocity": 87}, {"time": 1472, "pitch": 54, "duration": 35, "velocity": 46}, {"time": 1478, "pitch": 61, "duration": 38, "velocity": 74}, {"time": 1478, "pitch": 66, "duration": 25, "velocity": 75}, {"time": 1514, "pitch": 46, "duration": 38, "velocity": 85}, {"time": 1520, "pitch": 54, "duration": 31, "velocity": 72}, {"time": 1526, "pitch": 58, "duration": 29, "velocity": 76}, {"time": 1526, "pitch": 66, "duration": 28, "velocity": 77}, {"time": 1562, "pitch": 40, "duration": 43, "velocity": 82}, {"time": 1562, "pitch": 56, "duration": 14, "velocity": 76}, {"time": 1562, "pitch": 64, "duration": 13, "velocity": 86}, {"time": 1568, "pitch": 47, "duration": 37, "velocity": 60}, {"time": 1574, "pitch": 52, "duration": 31, "velocity": 70}, {"time": 1580, "pitch": 59, "duration": 22, "velocity": 73}, {"time": 1610, "pitch": 42, "duration": 37, "velocity": 86}, {"time": 1616, "pitch": 49, "duration": 31, "velocity": 74}, {"time": 1622, "pitch": 54, "duration": 24, "velocity": 76}, {"time": 1628, "pitch": 58, "duration": 18, "velocity": 70}, {"time": 1634, "pitch": 61, "duration": 12, "velocity": 80}, {"time": 1658, "pitch": 47, "duration": 43, "velocity": 86}, {"time": 1664, "pitch": 54, "duration": 36, "velocity": 64}, {"time": 1670, "pitch": 59, "duration": 28, "velocity": 65}, {"time": 1676, "pitch": 61, "duration": 26, "velocity": 67}, {"time": 1676, "pitch": 70, "duration": 23, "velocity": 73}, {"time": 1706, "pitch": 46, "duration": 40, "velocity": 83}, {"time": 1712, "pitch": 54, "duration": 35, "velocity": 71}, {"time": 1718, "pitch": 58, "duration": 27, "velocity": 66}, {"time": 1718, "pitch": 66, "duration": 7, "velocity": 69}, {"time": 1724, "pitch": 61, "duration": 21, "velocity": 73}, {"time": 1754, "pitch": 44, "duration": 20, "velocity": 79}, {"time": 1754, "pitch": 59, "duration": 21, "velocity": 81}, {"time": 1754, "pitch": 68, "duration": 20, "velocity": 87}, {"time": 1760, "pitch": 51, "duration": 17, "velocity": 52}, {"time": 1766, "pitch": 56, "duration": 6, "velocity": 75}, {"time": 1778, "pitch": 42, "duration": 18, "velocity": 65}, {"time": 1778, "pitch": 58, "duration": 20, "velocity": 81}, {"time": 1778, "pitch": 66, "duration": 20, "velocity": 81}, {"time": 1784, "pitch": 51, "duration": 13, "velocity": 67}, {"time": 1790, "pitch": 54, "duration": 6, "velocity": 70}, {"time": 1802, "pitch": 40, "duration": 38, "velocity": 76}, {"time": 1802, "pitch": 56, "duration": 17, "velocity": 75}, {"time": 1802, "pitch": 64, "duration": 14, "velocity": 82}, {"time": 1808, "pitch": 47, "duration": 32, "velocity": 67}, {"time": 1814, "pitch": 52, "duration": 26, "velocity": 77}, {"time": 1820, "pitch": 56, "duration": 19, "velocity": 76}, {"time": 1820, "pitch": 64, "duration": 20, "velocity": 83}, {"time": 1850, "pitch": 40, "duration": 19, "velocity": 87}, {"time": 1856, "pitch": 47, "duration": 15, "velocity": 68}, {"time": 1862, "pitch": 52, "duration": 11, "velocity": 75}, {"time": 1868, "pitch": 56, "duration": 5, "velocity": 78}, {"time": 1868, "pitch": 64, "duration": 5, "velocity": 73}, {"time": 1874, "pitch": 42, "duration": 24, "velocity": 80}, {"time": 1874, "pitch": 58, "duration": 8, "velocity": 80}, {"time": 1874, "pitch": 66, "duration": 8, "velocity": 87}, {"time": 1886, "pitch": 58, "duration": 10, "velocity": 88}, {"time": 1886, "pitch": 66, "duration": 9, "velocity": 88}, {"time": 1898, "pitch": 39, "duration": 19, "velocity": 81}, {"time": 1898, "pitch": 51, "duration": 24, "velocity": 81}, {"time": 1898, "pitch": 58, "duration": 9, "velocity": 85}, {"time": 1898, "pitch": 66, "duration": 8, "velocity": 87}, {"time": 1910, "pitch": 58, "duration": 9, "velocity": 85}, {"time": 1910, "pitch": 66, "duration": 9, "velocity": 88}, {"time": 1922, "pitch": 44, "duration": 18, "velocity": 77}, {"time": 1922, "pitch": 59, "duration": 9, "velocity": 84}, {"time": 1922, "pitch": 68, "duration": 9, "velocity": 86}, {"time": 1934, "pitch": 59, "duration": 7, "velocity": 88}, {"time": 1934, "pitch": 68, "duration": 6, "velocity": 91}, {"time": 1946, "pitch": 40, "duration": 17, "velocity": 80}, {"time": 1946, "pitch": 52, "duration": 17, "velocity": 81}, {"time": 1946, "pitch": 56, "duration": 9, "velocity": 84}, {"time": 1946, "pitch": 64, "duration": 7, "velocity": 81}, {"time": 1958, "pitch": 56, "duration": 8, "velocity": 86}, {"time": 1958, "pitch": 64, "duration": 7, "velocity": 87}, {"time": 1970, "pitch": 41, "duration": 18, "velocity": 78}, {"time": 1970, "pitch": 53, "duration": 18, "velocity": 81}, {"time": 1970, "pitch": 56, "duration": 9, "velocity": 88}, {"time": 1970, "pitch": 65, "duration": 9, "velocity": 87}, {"time": 1982, "pitch": 56, "duration": 8, "velocity": 88}, {"time": 1982, "pitch": 65, "duration": 10, "velocity": 87}, {"time": 1994, "pitch": 42, "duration": 35, "velocity": 83}, {"time": 1994, "pitch": 58, "duration": 9, "velocity": 81}, {"time": 1994, "pitch": 66, "duration": 9, "velocity": 88}, {"time": 2000, "pitch": 49, "duration": 28, "velocity": 75}, {"time": 2006, "pitch": 54, "duration": 22, "velocity": 76}, {"time": 2006, "pitch": 58, "duration": 15, "velocity": 81}, {"time": 2006, "pitch": 66, "duration": 15, "velocity": 88}, {"time": 2042, "pitch": 47, "duration": 46, "velocity": 81}, {"time": 2042, "pitch": 61, "duration": 9, "velocity": 75}, {"time": 2042, "pitch": 63, "duration": 8, "velocity": 74}, {"time": 2042, "pitch": 66, "duration": 7, "velocity": 75}, {"time": 2054, "pitch": 61, "duration": 10, "velocity": 74}, {"time": 2054, "pitch": 63, "duration": 9, "velocity": 72}, {"time": 2054, "pitch": 66, "duration": 7, "velocity": 73}, {"time": 2066, "pitch": 61, "duration": 10, "velocity": 73}, {"time": 2066, "pitch": 63, "duration": 10, "velocity": 74}, {"time": 2066, "pitch": 66, "duration": 8, "velocity": 73}, {"time": 2078, "pitch": 61, "duration": 9, "velocity": 83}, {"time": 2078, "pitch": 63, "duration": 11, "velocity": 84}, {"time": 2078, "pitch": 66, "duration": 10, "velocity": 81}, {"time": 2090, "pitch": 46, "duration": 48, "velocity": 82}, {"time": 2090, "pitch": 58, "duration": 10, "velocity": 85}, {"time": 2090, "pitch": 61, "duration": 10, "velocity": 86}, {"time": 2090, "pitch": 66, "duration": 10, "velocity": 86}, {"time": 2102, "pitch": 58, "duration": 10, "velocity": 82}, {"time": 2102, "pitch": 61, "duration": 10, "velocity": 84}, {"time": 2102, "pitch": 66, "duration": 10, "velocity": 83}, {"time": 2114, "pitch": 58, "duration": 10, "velocity": 78}, {"time": 2114, "pitch": 61, "duration": 12, "velocity": 81}, {"time": 2114, "pitch": 66, "duration": 10, "velocity": 84}, {"time": 2126, "pitch": 58, "duration": 8, "velocity": 83}, {"time": 2126, "pitch": 61, "duration": 12, "velocity": 84}, {"time": 2126, "pitch": 66, "duration": 10, "velocity": 87}, {"time": 2138, "pitch": 44, "duration": 23, "velocity": 83}, {"time": 2138, "pitch": 59, "duration": 11, "velocity": 83}, {"time": 2138, "pitch": 63, "duration": 11, "velocity": 87}, {"time": 2138, "pitch": 66, "duration": 10, "velocity": 84}, {"time": 2150, "pitch": 59, "duration": 7, "velocity": 80}, {"time": 2150, "pitch": 63, "duration": 11, "velocity": 85}, {"time": 2150, "pitch": 66, "duration": 9, "velocity": 82}, {"time": 2162, "pitch": 42, "duration": 20, "velocity": 78}, {"time": 2162, "pitch": 54, "duration": 17, "velocity": 80}, {"time": 2162, "pitch": 58, "duration": 9, "velocity": 83}, {"time": 2162, "pitch": 61, "duration": 9, "velocity": 84}, {"time": 2162, "pitch": 66, "duration": 9, "velocity": 78}, {"time": 2174, "pitch": 58, "duration": 8, "velocity": 78}, {"time": 2174, "pitch": 61, "duration": 12, "velocity": 83}, {"time": 2174, "pitch": 66, "duration": 9, "velocity": 80}, {"time": 2186, "pitch": 40, "duration": 44, "velocity": 75}, {"time": 2186, "pitch": 52, "duration": 45, "velocity": 73}, {"time": 2186, "pitch": 56, "duration": 10, "velocity": 81}, {"time": 2186, "pitch": 59, "duration": 9, "velocity": 78}, {"time": 2186, "pitch": 64, "duration": 9, "velocity": 84}, {"time": 2198, "pitch": 56, "duration": 11, "velocity": 56}, {"time": 2198, "pitch": 59, "duration": 10, "velocity": 66}, {"time": 2198, "pitch": 64, "duration": 9, "velocity": 76}, {"time": 2210, "pitch": 56, "duration": 10, "velocity": 68}, {"time": 2210, "pitch": 59, "duration": 10, "velocity": 76}, {"time": 2210, "pitch": 64, "duration": 9, "velocity": 78}, {"time": 2222, "pitch": 56, "duration": 9, "velocity": 80}, {"time": 2222, "pitch": 59, "duration": 8, "velocity": 84}, {"time": 2222, "pitch": 64, "duration": 8, "velocity": 82}, {"time": 2234, "pitch": 49, "duration": 24, "velocity": 83}, {"time": 2234, "pitch": 56, "duration": 10, "velocity": 76}, {"time": 2234, "pitch": 59, "duration": 9, "velocity": 81}, {"time": 2234, "pitch": 61, "duration": 9, "velocity": 84}, {"time": 2234, "pitch": 64, "duration": 8, "velocity": 81}, {"time": 2246, "pitch": 56, "duration": 9, "velocity": 77}, {"time": 2246, "pitch": 59, "duration": 12, "velocity": 81}, {"time": 2246, "pitch": 61, "duration": 11, "velocity": 81}, {"time": 2246, "pitch": 64, "duration": 9, "velocity": 81}, {"time": 2258, "pitch": 39, "duration": 17, "velocity": 74}, {"time": 2258, "pitch": 51, "duration": 17, "velocity": 73}, {"time": 2258, "pitch": 58, "duration": 8, "velocity": 74}, {"time": 2258, "pitch": 63, "duration": 8, "velocity": 77}, {"time": 2258, "pitch": 66, "duration": 9, "velocity": 78}, {"time": 2270, "pitch": 58, "duration": 6, "velocity": 82}, {"time": 2270, "pitch": 63, "duration": 6, "velocity": 84}, {"time": 2270, "pitch": 66, "duration": 6, "velocity": 80}, {"time": 2282, "pitch": 47, "duration": 39, "velocity": 88}, {"time": 2282, "pitch": 63, "duration": 9, "velocity": 86}, {"time": 2282, "pitch": 66, "duration": 10, "velocity": 89}, {"time": 2282, "pitch": 71, "duration": 8, "velocity": 87}, {"time": 2294, "pitch": 63, "duration": 9, "velocity": 85}, {"time": 2294, "pitch": 66, "duration": 10, "velocity": 87}, {"time": 2294, "pitch": 71, "duration": 9, "velocity": 85}, {"time": 2306, "pitch": 63, "duration": 9, "velocity": 84}, {"time": 2306, "pitch": 66, "duration": 9, "velocity": 88}, {"time": 2306, "pitch": 71, "duration": 8, "velocity": 82}, {"time": 2318, "pitch": 63, "duration": 7, "velocity": 87}, {"time": 2318, "pitch": 66, "duration": 9, "velocity": 91}, {"time": 2318, "pitch": 71, "duration": 8, "velocity": 86}, {"time": 2330, "pitch": 40, "duration": 39, "velocity": 83}, {"time": 2330, "pitch": 52, "duration": 29, "velocity": 80}, {"time": 2330, "pitch": 64, "duration": 9, "velocity": 86}, {"time": 2330, "pitch": 68, "duration": 8, "velocity": 90}, {"time": 2330, "pitch": 71, "duration": 9, "velocity": 84}, {"time": 2342, "pitch": 64, "duration": 11, "velocity": 84}, {"time": 2342, "pitch": 68, "duration": 10, "velocity": 87}, {"time": 2342, "pitch": 71, "duration": 10, "velocity": 82}, {"time": 2354, "pitch": 64, "duration": 9, "velocity": 87}, {"time": 2354, "pitch": 68, "duration": 9, "velocity": 89}, {"time": 2354, "pitch": 71, "duration": 9, "velocity": 86}, {"time": 2363, "pitch": 52, "duration": 6, "velocity": 78}, {"time": 2366, "pitch": 64, "duration": 5, "velocity": 90}, {"time": 2366, "pitch": 68, "duration": 7, "velocity": 94}, {"time": 2366, "pitch": 71, "duration": 6, "velocity": 89}, {"time": 2372, "pitch": 40, "duration": 2, "velocity": 86}, {"time": 2375, "pitch": 61, "duration": 13, "velocity": 76}, {"time": 2375, "pitch": 66, "duration": 3, "velocity": 81}, {"time": 2378, "pitch": 42, "duration": 20, "velocity": 86}, {"time": 2378, "pitch": 70, "duration": 4, "velocity": 104}, {"time": 2384, "pitch": 49, "duration": 10, "velocity": 75}, {"time": 2387, "pitch": 54, "duration": 10, "velocity": 88}, {"time": 2390, "pitch": 59, "duration": 10, "velocity": 113}, {"time": 2396, "pitch": 49, "duration": 6, "velocity": 78}, {"time": 2399, "pitch": 58, "duration": 4, "velocity": 83}, {"time": 2399, "pitch": 61, "duration": 3, "velocity": 84}, {"time": 2402, "pitch": 42, "duration": 19, "velocity": 91}, {"time": 2402, "pitch": 54, "duration": 3, "velocity": 65}, {"time": 2402, "pitch": 66, "duration": 3, "velocity": 116}, {"time": 2411, "pitch": 54, "duration": 4, "velocity": 84}, {"time": 2414, "pitch": 66, "duration": 3, "velocity": 110}, {"time": 2414, "pitch": 78, "duration": 3, "velocity": 110}, {"time": 2417, "pitch": 54, "duration": 6, "velocity": 89}, {"time": 2417, "pitch": 68, "duration": 3, "velocity": 94}, {"time": 2417, "pitch": 80, "duration": 3, "velocity": 108}, {"time": 2423, "pitch": 70, "duration": 2, "velocity": 93}, {"time": 2423, "pitch": 82, "duration": 2, "velocity": 110}, {"time": 2426, "pitch": 40, "duration": 21, "velocity": 87}, {"time": 2426, "pitch": 52, "duration": 21, "velocity": 87}, {"time": 2426, "pitch": 59, "duration": 9, "velocity": 88}, {"time": 2426, "pitch": 64, "duration": 8, "velocity": 104}, {"time": 2426, "pitch": 68, "duration": 8, "velocity": 92}, {"time": 2426, "pitch": 71, "duration": 4, "velocity": 88}, {"time": 2426, "pitch": 83, "duration": 4, "velocity": 114}, {"time": 2438, "pitch": 59, "duration": 8, "velocity": 91}, {"time": 2438, "pitch": 64, "duration": 8, "velocity": 94}, {"time": 2438, "pitch": 68, "duration": 8, "velocity": 88}, {"time": 2450, "pitch": 40, "duration": 16, "velocity": 87}, {"time": 2450, "pitch": 52, "duration": 14, "velocity": 87}, {"time": 2450, "pitch": 58, "duration": 10, "velocity": 93}, {"time": 2450, "pitch": 61, "duration": 10, "velocity": 102}, {"time": 2450, "pitch": 66, "duration": 9, "velocity": 93}, {"time": 2462, "pitch": 58, "duration": 7, "velocity": 89}, {"time": 2462, "pitch": 61, "duration": 10, "velocity": 89}, {"time": 2462, "pitch": 66, "duration": 8, "velocity": 88}, {"time": 2474, "pitch": 35, "duration": 21, "velocity": 88}, {"time": 2474, "pitch": 47, "duration": 21, "velocity": 87}, {"time": 2474, "pitch": 59, "duration": 10, "velocity": 89}, {"time": 2474, "pitch": 63, "duration": 10, "velocity": 100}, {"time": 2474, "pitch": 66, "duration": 10, "velocity": 92}, {"time": 2486, "pitch": 59, "duration": 8, "velocity": 84}, {"time": 2486, "pitch": 63, "duration": 8, "velocity": 91}, {"time": 2486, "pitch": 66, "duration": 8, "velocity": 88}, {"time": 2498, "pitch": 37, "duration": 6, "velocity": 96}, {"time": 2498, "pitch": 49, "duration": 6, "velocity": 96}, {"time": 2498, "pitch": 61, "duration": 8, "velocity": 92}, {"time": 2498, "pitch": 64, "duration": 11, "velocity": 107}, {"time": 2498, "pitch": 68, "duration": 11, "velocity": 102}, {"time": 2510, "pitch": 39, "duration": 5, "velocity": 100}, {"time": 2510, "pitch": 51, "duration": 6, "velocity": 91}, {"time": 2510, "pitch": 63, "duration": 9, "velocity": 96}, {"time": 2510, "pitch": 66, "duration": 13, "velocity": 108}, {"time": 2510, "pitch": 70, "duration": 12, "velocity": 104}, {"time": 2522, "pitch": 40, "duration": 22, "velocity": 98}, {"time": 2522, "pitch": 52, "duration": 22, "velocity": 89}, {"time": 2522, "pitch": 64, "duration": 9, "velocity": 96}, {"time": 2522, "pitch": 68, "duration": 9, "velocity": 107}, {"time": 2522, "pitch": 71, "duration": 9, "velocity": 98}, {"time": 2534, "pitch": 64, "duration": 8, "velocity": 98}, {"time": 2534, "pitch": 68, "duration": 8, "velocity": 107}, {"time": 2534, "pitch": 71, "duration": 8, "velocity": 88}, {"time": 2546, "pitch": 42, "duration": 16, "velocity": 89}, {"time": 2546, "pitch": 54, "duration": 16, "velocity": 87}, {"time": 2546, "pitch": 61, "duration": 8, "velocity": 89}, {"time": 2546, "pitch": 66, "duration": 8, "velocity": 92}, {"time": 2546, "pitch": 70, "duration": 7, "velocity": 90}, {"time": 2558, "pitch": 61, "duration": 8, "velocity": 96}, {"time": 2558, "pitch": 66, "duration": 8, "velocity": 96}, {"time": 2558, "pitch": 70, "duration": 8, "velocity": 91}, {"time": 2570, "pitch": 47, "duration": 15, "velocity": 83}, {"time": 2570, "pitch": 59, "duration": 10, "velocity": 91}, {"time": 2570, "pitch": 63, "duration": 10, "velocity": 102}, {"time": 2570, "pitch": 66, "duration": 10, "velocity": 92}, {"time": 2582, "pitch": 59, "duration": 7, "velocity": 88}, {"time": 2582, "pitch": 63, "duration": 10, "velocity": 94}, {"time": 2582, "pitch": 66, "duration": 9, "velocity": 92}, {"time": 2594, "pitch": 37, "duration": 5, "velocity": 96}, {"time": 2594, "pitch": 49, "duration": 6, "velocity": 89}, {"time": 2594, "pitch": 61, "duration": 9, "velocity": 93}, {"time": 2594, "pitch": 64, "duration": 13, "velocity": 104}, {"time": 2594, "pitch": 68, "duration": 11, "velocity": 96}, {"time": 2606, "pitch": 39, "duration": 4, "velocity": 93}, {"time": 2606, "pitch": 51, "duration": 4, "velocity": 96}, {"time": 2606, "pitch": 63, "duration": 6, "velocity": 91}, {"time": 2606, "pitch": 66, "duration": 6, "velocity": 94}, {"time": 2606, "pitch": 71, "duration": 5, "velocity": 89}, {"time": 2618, "pitch": 40, "duration": 21, "velocity": 92}, {"time": 2618, "pitch": 59, "duration": 11, "velocity": 92}, {"time": 2618, "pitch": 64, "duration": 6, "velocity": 104}, {"time": 2618, "pitch": 68, "duration": 6, "velocity": 96}, {"time": 2624, "pitch": 47, "duration": 15, "velocity": 72}, {"time": 2627, "pitch": 52, "duration": 12, "velocity": 85}, {"time": 2630, "pitch": 56, "duration": 7, "velocity": 104}, {"time": 2630, "pitch": 64, "duration": 8, "velocity": 92}, {"time": 2636, "pitch": 59, "duration": 7, "velocity": 85}, {"time": 2642, "pitch": 40, "duration": 24, "velocity": 90}, {"time": 2642, "pitch": 58, "duration": 10, "velocity": 93}, {"time": 2642, "pitch": 61, "duration": 10, "velocity": 104}, {"time": 2642, "pitch": 66, "duration": 10, "velocity": 98}, {"time": 2654, "pitch": 58, "duration": 8, "velocity": 100}, {"time": 2654, "pitch": 61, "duration": 10, "velocity": 110}, {"time": 2654, "pitch": 66, "duration": 8, "velocity": 91}, {"time": 2666, "pitch": 47, "duration": 11, "velocity": 85}, {"time": 2666, "pitch": 59, "duration": 10, "velocity": 91}, {"time": 2666, "pitch": 63, "duration": 11, "velocity": 107}, {"time": 2666, "pitch": 66, "duration": 9, "velocity": 94}, {"time": 2678, "pitch": 46, "duration": 12, "velocity": 86}, {"time": 2678, "pitch": 58, "duration": 9, "velocity": 100}, {"time": 2678, "pitch": 61, "duration": 12, "velocity": 108}, {"time": 2678, "pitch": 66, "duration": 9, "velocity": 90}, {"time": 2690, "pitch": 44, "duration": 18, "velocity": 88}, {"time": 2690, "pitch": 56, "duration": 16, "velocity": 86}, {"time": 2690, "pitch": 59, "duration": 10, "velocity": 89}, {"time": 2690, "pitch": 63, "duration": 9, "velocity": 92}, {"time": 2690, "pitch": 68, "duration": 9, "velocity": 94}, {"time": 2702, "pitch": 59, "duration": 7, "velocity": 88}, {"time": 2702, "pitch": 63, "duration": 7, "velocity": 91}, {"time": 2702, "pitch": 68, "duration": 7, "velocity": 88}, {"time": 2714, "pitch": 40, "duration": 20, "velocity": 88}, {"time": 2714, "pitch": 52, "duration": 21, "velocity": 86}, {"time": 2714, "pitch": 59, "duration": 8, "velocity": 88}, {"time": 2714, "pitch": 64, "duration": 8, "velocity": 92}, {"time": 2714, "pitch": 68, "duration": 8, "velocity": 89}, {"time": 2726, "pitch": 59, "duration": 9, "velocity": 89}, {"time": 2726, "pitch": 64, "duration": 9, "velocity": 89}, {"time": 2726, "pitch": 68, "duration": 9, "velocity": 87}, {"time": 2738, "pitch": 42, "duration": 22, "velocity": 89}, {"time": 2738, "pitch": 58, "duration": 9, "velocity": 91}, {"time": 2738, "pitch": 61, "duration": 9, "velocity": 96}, {"time": 2738, "pitch": 66, "duration": 9, "velocity": 92}, {"time": 2750, "pitch": 58, "duration": 9, "velocity": 90}, {"time": 2750, "pitch": 61, "duration": 11, "velocity": 98}, {"time": 2750, "pitch": 66, "duration": 9, "velocity": 92}, {"time": 2762, "pitch": 47, "duration": 30, "velocity": 93}, {"time": 2762, "pitch": 59, "duration": 11, "velocity": 91}, {"time": 2762, "pitch": 63, "duration": 11, "velocity": 102}, {"time": 2762, "pitch": 66, "duration": 9, "velocity": 96}, {"time": 2774, "pitch": 59, "duration": 11, "velocity": 88}, {"time": 2774, "pitch": 63, "duration": 11, "velocity": 89}, {"time": 2774, "pitch": 66, "duration": 9, "velocity": 88}, {"time": 2786, "pitch": 59, "duration": 10, "velocity": 89}, {"time": 2786, "pitch": 63, "duration": 10, "velocity": 91}, {"time": 2786, "pitch": 66, "duration": 10, "velocity": 89}, {"time": 2795, "pitch": 47, "duration": 7, "velocity": 86}, {"time": 2810, "pitch": 46, "duration": 42, "velocity": 86}, {"time": 2810, "pitch": 58, "duration": 10, "velocity": 92}, {"time": 2810, "pitch": 61, "duration": 9, "velocity": 102}, {"time": 2810, "pitch": 66, "duration": 8, "velocity": 93}, {"time": 2822, "pitch": 58, "duration": 10, "velocity": 88}, {"time": 2822, "pitch": 61, "duration": 10, "velocity": 91}, {"time": 2822, "pitch": 66, "duration": 10, "velocity": 88}, {"time": 2834, "pitch": 58, "duration": 9, "velocity": 86}, {"time": 2834, "pitch": 61, "duration": 9, "velocity": 89}, {"time": 2834, "pitch": 66, "duration": 9, "velocity": 87}, {"time": 2846, "pitch": 58, "duration": 6, "velocity": 88}, {"time": 2846, "pitch": 61, "duration": 6, "velocity": 92}, {"time": 2846, "pitch": 66, "duration": 7, "velocity": 89}, {"time": 2858, "pitch": 44, "duration": 24, "velocity": 84}, {"time": 2858, "pitch": 59, "duration": 9, "velocity": 84}, {"time": 2858, "pitch": 63, "duration": 9, "velocity": 87}, {"time": 2858, "pitch": 68, "duration": 8, "velocity": 86}, {"time": 2870, "pitch": 59, "duration": 9, "velocity": 83}, {"time": 2870, "pitch": 63, "duration": 12, "velocity": 86}, {"time": 2870, "pitch": 68, "duration": 10, "velocity": 86}, {"time": 2882, "pitch": 42, "duration": 24, "velocity": 84}, {"time": 2882, "pitch": 58, "duration": 10, "velocity": 87}, {"time": 2882, "pitch": 61, "duration": 10, "velocity": 88}, {"time": 2882, "pitch": 66, "duration": 9, "velocity": 89}, {"time": 2894, "pitch": 58, "duration": 8, "velocity": 85}, {"time": 2894, "pitch": 61, "duration": 10, "velocity": 87}, {"time": 2894, "pitch": 66, "duration": 11, "velocity": 85}, {"time": 2906, "pitch": 40, "duration": 22, "velocity": 85}, {"time": 2906, "pitch": 52, "duration": 22, "velocity": 79}, {"time": 2906, "pitch": 59, "duration": 9, "velocity": 85}, {"time": 2906, "pitch": 64, "duration": 9, "velocity": 88}, {"time": 2906, "pitch": 68, "duration": 9, "velocity": 88}, {"time": 2918, "pitch": 59, "duration": 9, "velocity": 81}, {"time": 2918, "pitch": 64, "duration": 9, "velocity": 86}, {"time": 2918, "pitch": 68, "duration": 8, "velocity": 83}, {"time": 2930, "pitch": 40, "duration": 21, "velocity": 82}, {"time": 2930, "pitch": 52, "duration": 21, "velocity": 77}, {"time": 2930, "pitch": 59, "duration": 9, "velocity": 87}, {"time": 2930, "pitch": 64, "duration": 9, "velocity": 91}, {"time": 2930, "pitch": 68, "duration": 8, "velocity": 89}, {"time": 2942, "pitch": 59, "duration": 9, "velocity": 87}, {"time": 2942, "pitch": 64, "duration": 10, "velocity": 89}, {"time": 2942, "pitch": 68, "duration": 9, "velocity": 87}, {"time": 2954, "pitch": 47, "duration": 45, "velocity": 86}, {"time": 2954, "pitch": 59, "duration": 10, "velocity": 86}, {"time": 2954, "pitch": 63, "duration": 9, "velocity": 88}, {"time": 2954, "pitch": 66, "duration": 9, "velocity": 88}, {"time": 2966, "pitch": 59, "duration": 12, "velocity": 86}, {"time": 2966, "pitch": 63, "duration": 12, "velocity": 87}, {"time": 2966, "pitch": 66, "duration": 10, "velocity": 84}, {"time": 2978, "pitch": 59, "duration": 11, "velocity": 83}, {"time": 2978, "pitch": 63, "duration": 11, "velocity": 87}, {"time": 2978, "pitch": 66, "duration": 9, "velocity": 84}, {"time": 2990, "pitch": 59, "duration": 9, "velocity": 88}, {"time": 2990, "pitch": 63, "duration": 10, "velocity": 89}, {"time": 2990, "pitch": 66, "duration": 9, "velocity": 87}, {"time": 3002, "pitch": 46, "duration": 39, "velocity": 76}, {"time": 3002, "pitch": 58, "duration": 10, "velocity": 88}, {"time": 3002, "pitch": 61, "duration": 9, "velocity": 88}, {"time": 3002, "pitch": 66, "duration": 9, "velocity": 85}, {"time": 3014, "pitch": 58, "duration": 10, "velocity": 83}, {"time": 3014, "pitch": 61, "duration": 9, "velocity": 87}, {"time": 3014, "pitch": 66, "duration": 9, "velocity": 84}, {"time": 3026, "pitch": 58, "duration": 10, "velocity": 84}, {"time": 3026, "pitch": 61, "duration": 10, "velocity": 90}, {"time": 3026, "pitch": 66, "duration": 10, "velocity": 85}, {"time": 3038, "pitch": 58, "duration": 8, "velocity": 85}, {"time": 3038, "pitch": 61, "duration": 10, "velocity": 91}, {"time": 3038, "pitch": 66, "duration": 9, "velocity": 87}, {"time": 3050, "pitch": 44, "duration": 24, "velocity": 85}, {"time": 3050, "pitch": 63, "duration": 10, "velocity": 88}, {"time": 3050, "pitch": 68, "duration": 9, "velocity": 93}, {"time": 3050, "pitch": 71, "duration": 9, "velocity": 87}, {"time": 3062, "pitch": 63, "duration": 8, "velocity": 83}, {"time": 3062, "pitch": 68, "duration": 11, "velocity": 87}, {"time": 3062, "pitch": 71, "duration": 9, "velocity": 84}, {"time": 3074, "pitch": 42, "duration": 24, "velocity": 84}, {"time": 3074, "pitch": 61, "duration": 9, "velocity": 88}, {"time": 3074, "pitch": 66, "duration": 9, "velocity": 91}, {"time": 3074, "pitch": 70, "duration": 8, "velocity": 88}, {"time": 3086, "pitch": 61, "duration": 9, "velocity": 87}, {"time": 3086, "pitch": 66, "duration": 12, "velocity": 91}, {"time": 3086, "pitch": 70, "duration": 10, "velocity": 86}, {"time": 3098, "pitch": 40, "duration": 50, "velocity": 86}, {"time": 3098, "pitch": 52, "duration": 49, "velocity": 86}, {"time": 3098, "pitch": 59, "duration": 5, "velocity": 87}, {"time": 3098, "pitch": 64, "duration": 5, "velocity": 89}, {"time": 3098, "pitch": 68, "duration": 4, "velocity": 90}, {"time": 3104, "pitch": 59, "duration": 5, "velocity": 86}, {"time": 3104, "pitch": 64, "duration": 5, "velocity": 88}, {"time": 3104, "pitch": 68, "duration": 5, "velocity": 87}, {"time": 3110, "pitch": 59, "duration": 5, "velocity": 86}, {"time": 3110, "pitch": 64, "duration": 5, "velocity": 88}, {"time": 3110, "pitch": 68, "duration": 5, "velocity": 87}, {"time": 3116, "pitch": 59, "duration": 5, "velocity": 86}, {"time": 3116, "pitch": 64, "duration": 5, "velocity": 88}, {"time": 3116, "pitch": 68, "duration": 5, "velocity": 85}, {"time": 3122, "pitch": 59, "duration": 4, "velocity": 86}, {"time": 3122, "pitch": 64, "duration": 5, "velocity": 87}, {"time": 3122, "pitch": 68, "duration": 5, "velocity": 84}, {"time": 3128, "pitch": 59, "duration": 5, "velocity": 84}, {"time": 3128, "pitch": 64, "duration": 5, "velocity": 86}, {"time": 3128, "pitch": 68, "duration": 5, "velocity": 83}, {"time": 3134, "pitch": 59, "duration": 4, "velocity": 85}, {"time": 3134, "pitch": 64, "duration": 5, "velocity": 88}, {"time": 3134, "pitch": 68, "duration": 4, "velocity": 87}, {"time": 3140, "pitch": 59, "duration": 7, "velocity": 81}, {"time": 3140, "pitch": 64, "duration": 7, "velocity": 86}, {"time": 3140, "pitch": 68, "duration": 8, "velocity": 85}, {"time": 3146, "pitch": 40, "duration": 2, "velocity": 98}, {"time": 3146, "pitch": 56, "duration": 8, "velocity": 94}, {"time": 3146, "pitch": 59, "duration": 1, "velocity": 107}, {"time": 3146, "pitch": 64, "duration": 1, "velocity": 100}, {"time": 3158, "pitch": 56, "duration": 8, "velocity": 92}, {"time": 3158, "pitch": 59, "duration": 8, "velocity": 102}, {"time": 3158, "pitch": 64, "duration": 8, "velocity": 96}, {"time": 3164, "pitch": 47, "duration": 13, "velocity": 80}, {"time": 3167, "pitch": 56, "duration": 5, "velocity": 85}, {"time": 3167, "pitch": 59, "duration": 2, "velocity": 88}, {"time": 3167, "pitch": 64, "duration": 2, "velocity": 87}, {"time": 3176, "pitch": 56, "duration": 4, "velocity": 82}, {"time": 3176, "pitch": 59, "duration": 4, "velocity": 82}, {"time": 3176, "pitch": 64, "duration": 3, "velocity": 82}, {"time": 3179, "pitch": 47, "duration": 4, "velocity": 79}, {"time": 3182, "pitch": 56, "duration": 7, "velocity": 104}, {"time": 3182, "pitch": 59, "duration": 7, "velocity": 114}, {"time": 3182, "pitch": 64, "duration": 7, "velocity": 108}, {"time": 3188, "pitch": 47, "duration": 6, "velocity": 83}, {"time": 3194, "pitch": 42, "duration": 31, "velocity": 91}, {"time": 3194, "pitch": 58, "duration": 8, "velocity": 104}, {"time": 3194, "pitch": 61, "duration": 9, "velocity": 116}, {"time": 3194, "pitch": 66, "duration": 8, "velocity": 104}, {"time": 3200, "pitch": 49, "duration": 6, "velocity": 44}, {"time": 3206, "pitch": 58, "duration": 7, "velocity": 107}, {"time": 3206, "pitch": 61, "duration": 7, "velocity": 116}, {"time": 3206, "pitch": 66, "duration": 7, "velocity": 102}, {"time": 3212, "pitch": 49, "duration": 14, "velocity": 81}, {"time": 3215, "pitch": 58, "duration": 4, "velocity": 100}, {"time": 3215, "pitch": 61, "duration": 4, "velocity": 108}, {"time": 3215, "pitch": 66, "duration": 3, "velocity": 94}, {"time": 3221, "pitch": 58, "duration": 7, "velocity": 88}, {"time": 3221, "pitch": 61, "duration": 7, "velocity": 91}, {"time": 3221, "pitch": 66, "duration": 7, "velocity": 91}, {"time": 3227, "pitch": 42, "duration": 5, "velocity": 98}, {"time": 3230, "pitch": 58, "duration": 4, "velocity": 107}, {"time": 3230, "pitch": 61, "duration": 4, "velocity": 116}, {"time": 3230, "pitch": 66, "duration": 4, "velocity": 104}, {"time": 3233, "pitch": 42, "duration": 4, "velocity": 88}, {"time": 3236, "pitch": 58, "duration": 4, "velocity": 107}, {"time": 3236, "pitch": 61, "duration": 5, "velocity": 116}, {"time": 3236, "pitch": 66, "duration": 5, "velocity": 102}, {"time": 3239, "pitch": 41, "duration": 3, "velocity": 100}, {"time": 3242, "pitch": 40, "duration": 46, "velocity": 104}, {"time": 3242, "pitch": 59, "duration": 10, "velocity": 104}, {"time": 3242, "pitch": 64, "duration": 10, "velocity": 114}, {"time": 3242, "pitch": 68, "duration": 9, "velocity": 110}, {"time": 3251, "pitch": 52, "duration": 5, "velocity": 91}, {"time": 3254, "pitch": 59, "duration": 11, "velocity": 114}, {"time": 3254, "pitch": 64, "duration": 11, "velocity": 119}, {"time": 3254, "pitch": 68, "duration": 11, "velocity": 113}, {"time": 3260, "pitch": 52, "duration": 8, "velocity": 88}, {"time": 3266, "pitch": 59, "duration": 8, "velocity": 93}, {"time": 3266, "pitch": 64, "duration": 8, "velocity": 104}, {"time": 3266, "pitch": 68, "duration": 8, "velocity": 91}, {"time": 3272, "pitch": 52, "duration": 5, "velocity": 94}, {"time": 3275, "pitch": 59, "duration": 8, "velocity": 113}, {"time": 3275, "pitch": 64, "duration": 8, "velocity": 117}, {"time": 3275, "pitch": 68, "duration": 8, "velocity": 107}, {"time": 3281, "pitch": 52, "duration": 4, "velocity": 94}, {"time": 3284, "pitch": 59, "duration": 4, "velocity": 104}, {"time": 3284, "pitch": 64, "duration": 4, "velocity": 114}, {"time": 3284, "pitch": 68, "duration": 4, "velocity": 94}, {"time": 3287, "pitch": 52, "duration": 3, "velocity": 86}, {"time": 3290, "pitch": 42, "duration": 44, "velocity": 100}, {"time": 3290, "pitch": 58, "duration": 10, "velocity": 114}, {"time": 3290, "pitch": 61, "duration": 10, "velocity": 119}, {"time": 3290, "pitch": 66, "duration": 10, "velocity": 110}, {"time": 3299, "pitch": 49, "duration": 6, "velocity": 87}, {"time": 3302, "pitch": 58, "duration": 11, "velocity": 114}, {"time": 3302, "pitch": 61, "duration": 10, "velocity": 119}, {"time": 3302, "pitch": 66, "duration": 10, "velocity": 108}, {"time": 3308, "pitch": 49, "duration": 8, "velocity": 81}, {"time": 3314, "pitch": 58, "duration": 11, "velocity": 110}, {"time": 3314, "pitch": 61, "duration": 11, "velocity": 117}, {"time": 3314, "pitch": 66, "duration": 11, "velocity": 100}, {"time": 3323, "pitch": 49, "duration": 3, "velocity": 90}, {"time": 3326, "pitch": 58, "duration": 4, "velocity": 114}, {"time": 3326, "pitch": 61, "duration": 4, "velocity": 119}, {"time": 3326, "pitch": 66, "duration": 4, "velocity": 107}, {"time": 3329, "pitch": 49, "duration": 4, "velocity": 117}, {"time": 3332, "pitch": 58, "duration": 3, "velocity": 114}, {"time": 3332, "pitch": 61, "duration": 5, "velocity": 119}, {"time": 3332, "pitch": 66, "duration": 5, "velocity": 110}, {"time": 3335, "pitch": 42, "duration": 2, "velocity": 110}, {"time": 3338, "pitch": 40, "duration": 43, "velocity": 91}, {"time": 3338, "pitch": 52, "duration": 17, "velocity": 94}, {"time": 3338, "pitch": 59, "duration": 10, "velocity": 91}, {"time": 3338, "pitch": 64, "duration": 9, "velocity": 96}, {"time": 3338, "pitch": 68, "duration": 9, "velocity": 92}, {"time": 3350, "pitch": 59, "duration": 10, "velocity": 94}, {"time": 3350, "pitch": 64, "duration": 10, "velocity": 100}, {"time": 3350, "pitch": 68, "duration": 10, "velocity": 94}, {"time": 3359, "pitch": 52, "duration": 7, "velocity": 77}, {"time": 3362, "pitch": 59, "duration": 10, "velocity": 91}, {"time": 3362, "pitch": 64, "duration": 10, "velocity": 98}, {"time": 3362, "pitch": 68, "duration": 10, "velocity": 91}, {"time": 3371, "pitch": 52, "duration": 5, "velocity": 86}, {"time": 3374, "pitch": 59, "duration": 7, "velocity": 102}, {"time": 3374, "pitch": 64, "duration": 7, "velocity": 108}, {"time": 3374, "pitch": 68, "duration": 7, "velocity": 93}, {"time": 3380, "pitch": 52, "duration": 4, "velocity": 83}, {"time": 3386, "pitch": 39, "duration": 44, "velocity": 88}, {"time": 3386, "pitch": 51, "duration": 17, "velocity": 88}, {"time": 3386, "pitch": 58, "duration": 11, "velocity": 91}, {"time": 3386, "pitch": 63, "duration": 10, "velocity": 107}, {"time": 3386, "pitch": 66, "duration": 10, "velocity": 96}, {"time": 3398, "pitch": 58, "duration": 8, "velocity": 96}, {"time": 3398, "pitch": 63, "duration": 8, "velocity": 104}, {"time": 3398, "pitch": 66, "duration": 8, "velocity": 93}, {"time": 3404, "pitch": 51, "duration": 10, "velocity": 87}, {"time": 3407, "pitch": 58, "duration": 2, "velocity": 92}, {"time": 3407, "pitch": 63, "duration": 2, "velocity": 98}, {"time": 3407, "pitch": 66, "duration": 2, "velocity": 92}, {"time": 3413, "pitch": 58, "duration": 7, "velocity": 93}, {"time": 3413, "pitch": 63, "duration": 7, "velocity": 98}, {"time": 3413, "pitch": 66, "duration": 7, "velocity": 92}, {"time": 3419, "pitch": 51, "duration": 5, "velocity": 104}, {"time": 3422, "pitch": 58, "duration": 7, "velocity": 110}, {"time": 3422, "pitch": 63, "duration": 9, "velocity": 114}, {"time": 3422, "pitch": 66, "duration": 9, "velocity": 104}, {"time": 3428, "pitch": 51, "duration": 5, "velocity": 102}, {"time": 3434, "pitch": 40, "duration": 40, "velocity": 98}, {"time": 3434, "pitch": 59, "duration": 9, "velocity": 108}, {"time": 3434, "pitch": 64, "duration": 8, "velocity": 116}, {"time": 3434, "pitch": 68, "duration": 9, "velocity": 108}, {"time": 3440, "pitch": 52, "duration": 7, "velocity": 79}, {"time": 3446, "pitch": 59, "duration": 10, "velocity": 108}, {"time": 3446, "pitch": 64, "duration": 10, "velocity": 116}, {"time": 3446, "pitch": 68, "duration": 10, "velocity": 104}, {"time": 3455, "pitch": 52, "duration": 7, "velocity": 84}, {"time": 3458, "pitch": 59, "duration": 10, "velocity": 104}, {"time": 3458, "pitch": 64, "duration": 10, "velocity": 114}, {"time": 3458, "pitch": 68, "duration": 10, "velocity": 102}, {"time": 3467, "pitch": 52, "duration": 6, "velocity": 98}, {"time": 3470, "pitch": 59, "duration": 8, "velocity": 113}, {"time": 3470, "pitch": 64, "duration": 8, "velocity": 116}, {"time": 3470, "pitch": 68, "duration": 8, "velocity": 110}, {"time": 3476, "pitch": 40, "duration": 3, "velocity": 92}, {"time": 3482, "pitch": 42, "duration": 22, "velocity": 107}, {"time": 3482, "pitch": 58, "duration": 10, "velocity": 110}, {"time": 3482, "pitch": 61, "duration": 10, "velocity": 116}, {"time": 3482, "pitch": 66, "duration": 9, "velocity": 107}, {"time": 3491, "pitch": 54, "duration": 6, "velocity": 93}, {"time": 3494, "pitch": 58, "duration": 11, "velocity": 113}, {"time": 3494, "pitch": 61, "duration": 11, "velocity": 117}, {"time": 3494, "pitch": 66, "duration": 10, "velocity": 108}, {"time": 3500, "pitch": 54, "duration": 5, "velocity": 91}, {"time": 3506, "pitch": 42, "duration": 15, "velocity": 94}, {"time": 3506, "pitch": 54, "duration": 6, "velocity": 96}, {"time": 3506, "pitch": 58, "duration": 10, "velocity": 104}, {"time": 3506, "pitch": 61, "duration": 10, "velocity": 110}, {"time": 3506, "pitch": 66, "duration": 10, "velocity": 102}, {"time": 3515, "pitch": 54, "duration": 6, "velocity": 104}, {"time": 3518, "pitch": 58, "duration": 9, "velocity": 110}, {"time": 3518, "pitch": 61, "duration": 10, "velocity": 117}, {"time": 3518, "pitch": 66, "duration": 9, "velocity": 108}, {"time": 3524, "pitch": 42, "duration": 5, "velocity": 98}, {"time": 3530, "pitch": 40, "duration": 21, "velocity": 98}, {"time": 3530, "pitch": 59, "duration": 9, "velocity": 98}, {"time": 3530, "pitch": 64, "duration": 9, "velocity": 113}, {"time": 3530, "pitch": 68, "duration": 9, "velocity": 100}, {"time": 3539, "pitch": 52, "duration": 5, "velocity": 81}, {"time": 3542, "pitch": 59, "duration": 9, "velocity": 113}, {"time": 3542, "pitch": 64, "duration": 9, "velocity": 117}, {"time": 3542, "pitch": 68, "duration": 9, "velocity": 108}, {"time": 3548, "pitch": 52, "duration": 5, "velocity": 77}, {"time": 3554, "pitch": 42, "duration": 15, "velocity": 89}, {"time": 3554, "pitch": 58, "duration": 10, "velocity": 108}, {"time": 3554, "pitch": 61, "duration": 10, "velocity": 116}, {"time": 3554, "pitch": 66, "duration": 10, "velocity": 107}, {"time": 3563, "pitch": 54, "duration": 5, "velocity": 91}, {"time": 3566, "pitch": 58, "duration": 8, "velocity": 108}, {"time": 3566, "pitch": 61, "duration": 9, "velocity": 116}, {"time": 3566, "pitch": 66, "duration": 8, "velocity": 107}, {"time": 3572, "pitch": 42, "duration": 2, "velocity": 90}, {"time": 3578, "pitch": 35, "duration": 21, "velocity": 93}, {"time": 3578, "pitch": 47, "duration": 7, "velocity": 88}, {"time": 3578, "pitch": 59, "duration": 11, "velocity": 102}, {"time": 3578, "pitch": 63, "duration": 10, "velocity": 113}, {"time": 3578, "pitch": 66, "duration": 11, "velocity": 102}, {"time": 3587, "pitch": 47, "duration": 5, "velocity": 87}, {"time": 3590, "pitch": 59, "duration": 8, "velocity": 92}, {"time": 3590, "pitch": 63, "duration": 10, "velocity": 102}, {"time": 3590, "pitch": 66, "duration": 10, "velocity": 102}, {"time": 3596, "pitch": 47, "duration": 4, "velocity": 86}, {"time": 3602, "pitch": 37, "duration": 7, "velocity": 98}, {"time": 3602, "pitch": 49, "duration": 7, "velocity": 102}, {"time": 3602, "pitch": 61, "duration": 9, "velocity": 104}, {"time": 3602, "pitch": 64, "duration": 11, "velocity": 113}, {"time": 3602, "pitch": 68, "duration": 10, "velocity": 104}, {"time": 3614, "pitch": 39, "duration": 6, "velocity": 104}, {"time": 3614, "pitch": 51, "duration": 6, "velocity": 102}, {"time": 3614, "pitch": 63, "duration": 7, "velocity": 107}, {"time": 3614, "pitch": 66, "duration": 7, "velocity": 116}, {"time": 3614, "pitch": 70, "duration": 5, "velocity": 104}, {"time": 3626, "pitch": 40, "duration": 22, "velocity": 98}, {"time": 3626, "pitch": 59, "duration": 10, "velocity": 96}, {"time": 3626, "pitch": 64, "duration": 9, "velocity": 116}, {"time": 3626, "pitch": 68, "duration": 9, "velocity": 104}, {"time": 3632, "pitch": 47, "duration": 16, "velocity": 75}, {"time": 3635, "pitch": 52, "duration": 5, "velocity": 83}, {"time": 3638, "pitch": 59, "duration": 10, "velocity": 100}, {"time": 3638, "pitch": 64, "duration": 10, "velocity": 114}, {"time": 3638, "pitch": 68, "duration": 9, "velocity": 104}, {"time": 3644, "pitch": 52, "duration": 5, "velocity": 80}, {"time": 3650, "pitch": 42, "duration": 18, "velocity": 96}, {"time": 3650, "pitch": 58, "duration": 8, "velocity": 102}, {"time": 3650, "pitch": 61, "duration": 8, "velocity": 107}, {"time": 3650, "pitch": 66, "duration": 8, "velocity": 92}, {"time": 3659, "pitch": 54, "duration": 5, "velocity": 72}, {"time": 3662, "pitch": 58, "duration": 8, "velocity": 104}, {"time": 3662, "pitch": 61, "duration": 11, "velocity": 110}, {"time": 3662, "pitch": 66, "duration": 9, "velocity": 102}, {"time": 3668, "pitch": 54, "duration": 6, "velocity": 87}, {"time": 3674, "pitch": 47, "duration": 15, "velocity": 88}, {"time": 3674, "pitch": 59, "duration": 9, "velocity": 108}, {"time": 3674, "pitch": 63, "duration": 9, "velocity": 114}, {"time": 3674, "pitch": 66, "duration": 9, "velocity": 102}, {"time": 3680, "pitch": 54, "duration": 7, "velocity": 76}, {"time": 3686, "pitch": 59, "duration": 8, "velocity": 102}, {"time": 3686, "pitch": 63, "duration": 10, "velocity": 110}, {"time": 3686, "pitch": 66, "duration": 10, "velocity": 107}, {"time": 3692, "pitch": 47, "duration": 2, "velocity": 89}, {"time": 3698, "pitch": 37, "duration": 6, "velocity": 102}, {"time": 3698, "pitch": 49, "duration": 7, "velocity": 102}, {"time": 3698, "pitch": 61, "duration": 8, "velocity": 108}, {"time": 3698, "pitch": 64, "duration": 8, "velocity": 114}, {"time": 3698, "pitch": 68, "duration": 8, "velocity": 108}, {"time": 3710, "pitch": 39, "duration": 6, "velocity": 110}, {"time": 3710, "pitch": 51, "duration": 7, "velocity": 107}, {"time": 3710, "pitch": 63, "duration": 7, "velocity": 108}, {"time": 3710, "pitch": 66, "duration": 7, "velocity": 116}, {"time": 3710, "pitch": 70, "duration": 7, "velocity": 108}, {"time": 3722, "pitch": 40, "duration": 20, "velocity": 108}, {"time": 3722, "pitch": 59, "duration": 10, "velocity": 104}, {"time": 3722, "pitch": 64, "duration": 9, "velocity": 116}, {"time": 3722, "pitch": 68, "duration": 9, "velocity": 104}, {"time": 3728, "pitch": 47, "duration": 7, "velocity": 78}, {"time": 3734, "pitch": 59, "duration": 10, "velocity": 107}, {"time": 3734, "pitch": 64, "duration": 11, "velocity": 116}, {"time": 3734, "pitch": 68, "duration": 10, "velocity": 104}, {"time": 3740, "pitch": 47, "duration": 6, "velocity": 86}, {"time": 3746, "pitch": 42, "duration": 19, "velocity": 89}, {"time": 3746, "pitch": 58, "duration": 9, "velocity": 96}, {"time": 3746, "pitch": 61, "duration": 9, "velocity": 113}, {"time": 3746, "pitch": 66, "duration": 8, "velocity": 98}, {"time": 3758, "pitch": 54, "duration": 5, "velocity": 85}, {"time": 3758, "pitch": 58, "duration": 8, "velocity": 96}, {"time": 3758, "pitch": 61, "duration": 10, "velocity": 102}, {"time": 3758, "pitch": 66, "duration": 8, "velocity": 88}, {"time": 3764, "pitch": 54, "duration": 5, "velocity": 87}, {"time": 3770, "pitch": 47, "duration": 11, "velocity": 91}, {"time": 3770, "pitch": 59, "duration": 10, "velocity": 100}, {"time": 3770, "pitch": 63, "duration": 11, "velocity": 114}, {"time": 3770, "pitch": 66, "duration": 9, "velocity": 100}, {"time": 3782, "pitch": 46, "duration": 12, "velocity": 93}, {"time": 3782, "pitch": 58, "duration": 9, "velocity": 107}, {"time": 3782, "pitch": 61, "duration": 11, "velocity": 113}, {"time": 3782, "pitch": 66, "duration": 9, "velocity": 96}, {"time": 3794, "pitch": 44, "duration": 20, "velocity": 91}, {"time": 3794, "pitch": 56, "duration": 7, "velocity": 90}, {"time": 3794, "pitch": 59, "duration": 10, "velocity": 96}, {"time": 3794, "pitch": 63, "duration": 10, "velocity": 113}, {"time": 3794, "pitch": 68, "duration": 9, "velocity": 108}, {"time": 3803, "pitch": 56, "duration": 6, "velocity": 86}, {"time": 3806, "pitch": 59, "duration": 8, "velocity": 94}, {"time": 3806, "pitch": 63, "duration": 8, "velocity": 108}, {"time": 3806, "pitch": 68, "duration": 9, "velocity": 104}, {"time": 3812, "pitch": 56, "duration": 2, "velocity": 91}, {"time": 3818, "pitch": 40, "duration": 22, "velocity": 94}, {"time": 3818, "pitch": 52, "duration": 14, "velocity": 102}, {"time": 3818, "pitch": 59, "duration": 10, "velocity": 102}, {"time": 3818, "pitch": 64, "duration": 9, "velocity": 113}, {"time": 3818, "pitch": 68, "duration": 9, "velocity": 102}, {"time": 3830, "pitch": 59, "duration": 8, "velocity": 92}, {"time": 3830, "pitch": 64, "duration": 10, "velocity": 90}, {"time": 3830, "pitch": 68, "duration": 9, "velocity": 93}, {"time": 3836, "pitch": 52, "duration": 5, "velocity": 86}, {"time": 3842, "pitch": 42, "duration": 20, "velocity": 87}, {"time": 3842, "pitch": 54, "duration": 5, "velocity": 96}, {"time": 3842, "pitch": 58, "duration": 9, "velocity": 98}, {"time": 3842, "pitch": 61, "duration": 8, "velocity": 110}, {"time": 3842, "pitch": 66, "duration": 8, "velocity": 100}, {"time": 3851, "pitch": 54, "duration": 5, "velocity": 79}, {"time": 3854, "pitch": 58, "duration": 9, "velocity": 104}, {"time": 3854, "pitch": 61, "duration": 11, "velocity": 114}, {"time": 3854, "pitch": 66, "duration": 9, "velocity": 104}, {"time": 3860, "pitch": 54, "duration": 5, "velocity": 92}, {"time": 3866, "pitch": 47, "duration": 40, "velocity": 96}, {"time": 3866, "pitch": 59, "duration": 11, "velocity": 96}, {"time": 3866, "pitch": 63, "duration": 11, "velocity": 113}, {"time": 3866, "pitch": 66, "duration": 11, "velocity": 98}, {"time": 3878, "pitch": 59, "duration": 9, "velocity": 89}, {"time": 3878, "pitch": 63, "duration": 9, "velocity": 107}, {"time": 3878, "pitch": 66, "duration": 9, "velocity": 91}, {"time": 3887, "pitch": 54, "duration": 6, "velocity": 67}, {"time": 3890, "pitch": 59, "duration": 9, "velocity": 82}, {"time": 3890, "pitch": 63, "duration": 9, "velocity": 87}, {"time": 3890, "pitch": 66, "duration": 9, "velocity": 84}, {"time": 3896, "pitch": 54, "duration": 7, "velocity": 85}, {"time": 3902, "pitch": 59, "duration": 4, "velocity": 89}, {"time": 3905, "pitch": 63, "duration": 3, "velocity": 91}, {"time": 3908, "pitch": 66, "duration": 6, "velocity": 94}, {"time": 3911, "pitch": 68, "duration": 36, "velocity": 89}, {"time": 3914, "pitch": 40, "duration": 36, "velocity": 86}, {"time": 3914, "pitch": 59, "duration": 31, "velocity": 83}, {"time": 3914, "pitch": 64, "duration": 35, "velocity": 88}, {"time": 3941, "pitch": 42, "duration": 61, "velocity": 86}, {"time": 3947, "pitch": 49, "duration": 56, "velocity": 64}, {"time": 3950, "pitch": 54, "duration": 52, "velocity": 83}, {"time": 3986, "pitch": 85, "duration": 1, "velocity": 71}, {"time": 3995, "pitch": 88, "duration": 9, "velocity": 82}, {"time": 4008, "pitch": 47, "duration": 73, "velocity": 78}, {"time": 4015, "pitch": 54, "duration": 65, "velocity": 73}, {"time": 4021, "pitch": 59, "duration": 59, "velocity": 79}, {"time": 4028, "pitch": 66, "duration": 7, "velocity": 89}, {"time": 4035, "pitch": 63, "duration": 45, "velocity": 81}, {"time": 4043, "pitch": 70, "duration": 37, "velocity": 74}, {"time": 4052, "pitch": 73, "duration": 28, "velocity": 75}], "annotations": [{"time": 51, "annotation": {"number": 64, "value": 38}, "group": "control_change"}, {"time": 51, "annotation": {"number": 64, "value": 127}, "group": "control_change"}, {"time": 72, "annotation": {"number": 64, "value": 0}, "group": "control_change"}, {"time": 74, "annotation": {"number": 64, "value": 74}, "group": "control_change"}, {"time": 74, "annotation": {"number": 64, "value": 127}, "group": "control_change"}, {"time": 84, "annotation": {"number": 64, "value": 38}, "group": "control_change"}, {"time": 84, "annotation": {"number": 64, "value": 0}, "group": "control_change"}, {"time": 120, "annotation": {"number": 64, "value": 38}, "group": "control_change"}, {"time": 120, "annotation": {"number": 64, "value": 0}, "group": "control_change"}, {"time": 122, "annotation": {"number": 64, "value": 127}, "group": "control_change"}, {"time": 123, "annotation": {"number": 64, "value": 127}, "group": "control_change"}, {"time": 137, "annotation": {"number": 64, "value": 74}, "group": "control_change"}, {"time": 137, "annotation": {"number": 64, "value": 0}, "group": "control_change"}, {"time": 142, "annotation": {"number": 64, "value": 38}, "group": "control_change"}, {"time": 142, "annotation": {"number": 64, "value": 0}, "group": "control_change"}, {"time": 146, "annotation": {"number": 64, "value": 127}, "group": "control_change"}, {"time": 167, "annotation": {"number": 64, "value": 0}, "group": "control_change"}, {"time": 170, "annotation": {"number": 64, "value": 127}, "group": "control_change"}, {"time": 216, "annotation": {"number": 64, "value": 74}, "group": "control_change"}, {"time": 216, "annotation": {"number": 64, "value": 0}, "group": "control_change"}, {"time": 219, "annotation": {"number": 64, "value": 127}, "group": "control_change"}, {"time": 226, "annotation": {"number": 64, "value": 38}, "group": "control_change"}, {"time": 226, "annotation": {"number": 64, "value": 0}, "group": "control_change"}, {"time": 264, "annotation": {"number": 64, "value": 0}, "group": "control_change"}, {"time": 268, "annotation": {"number": 64, "value": 127}, "group": "control_change"}, {"time": 285, "annotation": {"number": 64, "value": 38}, "group": "control_change"}, {"time": 285, "annotation": {"number": 64, "value": 0}, "group": "control_change"}, {"time": 316, "annotation": {"number": 64, "value": 127}, "group": "control_change"}, {"time": 359, "annotation": {"number": 64, "value": 38}, "group": "control_change"}, {"time": 359, "annotation": {"number": 64, "value": 0}, "group": "control_change"}, {"time": 363, "annotation": {"number": 64, "value": 127}, "group": "control_change"}, {"time": 407, "annotation": {"number": 64, "value": 74}, "group": "control_change"}, {"time": 407, "annotation": {"number": 64, "value": 127}, "group": "control_change"}, {"time": 407, "annotation": {"number": 64, "value": 0}, "group": "control_change"}, {"time": 411, "annotation": {"number": 64, "value": 127}, "group": "control_change"}, {"time": 412, "annotation": {"number": 64, "value": 127}, "group": "control_change"}, {"time": 432, "annotation": {"number": 64, "value": 74}, "group": "control_change"}, {"time": 432, "annotation": {"number": 64, "value": 0}, "group": "control_change"}, {"time": 435, "annotation": {"number": 64, "value": 127}, "group": "control_change"}, {"time": 436, "annotation": {"number": 64, "value": 38}, "group": "control_change"}, {"time": 436, "annotation": {"number": 64, "value": 0}, "group": "control_change"}, {"time": 455, "annotation": {"number": 64, "value": 74}, "group": "control_change"}, {"time": 455, "annotation": {"number": 64, "value": 0}, "group": "control_change"}, {"time": 459, "annotation": {"number": 64, "value": 74}, "group": "control_change"}, {"time": 459, "annotation": {"number": 64, "value": 127}, "group": "control_change"}, {"time": 498, "annotation": {"number": 64, "value": 0}, "group": "control_change"}, {"time": 507, "annotation": {"number": 64, "value": 127}, "group": "control_change"}, {"time": 528, "annotation": {"number": 64, "value": 38}, "group": "control_change"}, {"time": 528, "annotation": {"number": 64, "value": 0}, "group": "control_change"}, {"time": 531, "annotation": {"number": 64, "value": 38}, "group": "control_change"}, {"time": 531, "annotation": {"number": 64, "value": 127}, "group": "control_change"}, {"time": 550, "annotation": {"number": 64, "value": 38}, "group": "control_change"}, {"time": 551, "annotation": {"number": 64, "value": 127}, "group": "control_change"}, {"time": 551, "annotation": {"number": 64, "value": 38}, "group": "control_change"}, {"time": 551, "annotation": {"number": 64, "value": 0}, "group": "control_change"}, {"time": 556, "annotation": {"number": 64, "value": 127}, "group": "control_change"}, {"time": 575, "annotation": {"number": 64, "value": 74}, "group": "control_change"}, {"time": 575, "annotation": {"number": 64, "value": 38}, "group": "control_change"}, {"time": 575, "annotation": {"number": 64, "value": 0}, "group": "control_change"}, {"time": 581, "annotation": {"number": 64, "value": 127}, "group": "control_change"}, {"time": 601, "annotation": {"number": 64, "value": 38}, "group": "control_change"}, {"time": 601, "annotation": {"number": 64, "value": 127}, "group": "control_change"}, {"time": 601, "annotation": {"number": 64, "value": 0}, "group": "control_change"}, {"time": 615, "annotation": {"number": 64, "value": 127}, "group": "control_change"}, {"time": 648, "annotation": {"number": 64, "value": 38}, "group": "control_change"}, {"time": 648, "annotation": {"number": 64, "value": 0}, "group": "control_change"}, {"time": 651, "annotation": {"number": 64, "value": 127}, "group": "control_change"}, {"time": 673, "annotation": {"number": 64, "value": 74}, "group": "control_change"}, {"time": 673, "annotation": {"number": 64, "value": 127}, "group": "control_change"}, {"time": 673, "annotation": {"number": 64, "value": 0}, "group": "control_change"}, {"time": 675, "annotation": {"number": 64, "value": 127}, "group": "control_change"}, {"time": 688, "annotation": {"number": 64, "value": 38}, "group": "control_change"}, {"time": 688, "annotation": {"number": 64, "value": 0}, "group": "control_change"}, {"time": 699, "annotation": {"number": 64, "value": 127}, "group": "control_change"}, {"time": 743, "annotation": {"number": 64, "value": 0}, "group": "control_change"}, {"time": 747, "annotation": {"number": 64, "value": 127}, "group": "control_change"}, {"time": 791, "annotation": {"number": 64, "value": 74}, "group": "control_change"}, {"time": 791, "annotation": {"number": 64, "value": 0}, "group": "control_change"}, {"time": 794, "annotation": {"number": 64, "value": 127}, "group": "control_change"}, {"time": 815, "annotation": {"number": 64, "value": 38}, "group": "control_change"}, {"time": 815, "annotation": {"number": 64, "value": 0}, "group": "control_change"}, {"time": 818, "annotation": {"number": 64, "value": 127}, "group": "control_change"}, {"time": 840, "annotation": {"number": 64, "value": 74}, "group": "control_change"}, {"time": 840, "annotation": {"number": 64, "value": 38}, "group": "control_change"}, {"time": 840, "annotation": {"number": 64, "value": 0}, "group": "control_change"}, {"time": 842, "annotation": {"number": 64, "value": 74}, "group": "control_change"}, {"time": 842, "annotation": {"number": 64, "value": 127}, "group": "control_change"}, {"time": 888, "annotation": {"number": 64, "value": 74}, "group": "control_change"}, {"time": 888, "annotation": {"number": 64, "value": 0}, "group": "control_change"}, {"time": 890, "annotation": {"number": 64, "value": 127}, "group": "control_change"}, {"time": 913, "annotation": {"number": 64, "value": 74}, "group": "control_change"}, {"time": 913, "annotation": {"number": 64, "value": 0}, "group": "control_change"}, {"time": 915, "annotation": {"number": 64, "value": 127}, "group": "control_change"}, {"time": 929, "annotation": {"number": 64, "value": 38}, "group": "control_change"}, {"time": 929, "annotation": {"number": 64, "value": 0}, "group": "control_change"}, {"time": 935, "annotation": {"number": 64, "value": 74}, "group": "control_change"}, {"time": 935, "annotation": {"number": 64, "value": 0}, "group": "control_change"}, {"time": 939, "annotation": {"number": 64, "value": 127}, "group": "control_change"}, {"time": 939, "annotation": {"number": 64, "value": 38}, "group": "control_change"}, {"time": 940, "annotation": {"number": 64, "value": 127}, "group": "control_change"}, {"time": 941, "annotation": {"number": 64, "value": 38}, "group": "control_change"}, {"time": 941, "annotation": {"number": 64, "value": 0}, "group": "control_change"}, {"time": 985, "annotation": {"number": 64, "value": 0}, "group": "control_change"}, {"time": 986, "annotation": {"number": 64, "value": 74}, "group": "control_change"}, {"time": 986, "annotation": {"number": 64, "value": 127}, "group": "control_change"}, {"time": 1083, "annotation": {"number": 64, "value": 127}, "group": "control_change"}, {"time": 1102, "annotation": {"number": 64, "value": 74}, "group": "control_change"}, {"time": 1102, "annotation": {"number": 64, "value": 0}, "group": "control_change"}, {"time": 1103, "annotation": {"number": 64, "value": 38}, "group": "control_change"}, {"time": 1103, "annotation": {"number": 64, "value": 0}, "group": "control_change"}, {"time": 1106, "annotation": {"number": 64, "value": 74}, "group": "control_change"}, {"time": 1106, "annotation": {"number": 64, "value": 127}, "group": "control_change"}, {"time": 1127, "annotation": {"number": 64, "value": 38}, "group": "control_change"}, {"time": 1127, "annotation": {"number": 64, "value": 0}, "group": "control_change"}, {"time": 1130, "annotation": {"number": 64, "value": 127}, "group": "control_change"}, {"time": 1151, "annotation": {"number": 64, "value": 38}, "group": "control_change"}, {"time": 1151, "annotation": {"number": 64, "value": 0}, "group": "control_change"}, {"time": 1153, "annotation": {"number": 64, "value": 38}, "group": "control_change"}, {"time": 1154, "annotation": {"number": 64, "value": 127}, "group": "control_change"}, {"time": 1174, "annotation": {"number": 64, "value": 38}, "group": "control_change"}, {"time": 1174, "annotation": {"number": 64, "value": 0}, "group": "control_change"}, {"time": 1178, "annotation": {"number": 64, "value": 127}, "group": "control_change"}, {"time": 1200, "annotation": {"number": 64, "value": 0}, "group": "control_change"}, {"time": 1202, "annotation": {"number": 64, "value": 127}, "group": "control_change"}, {"time": 1203, "annotation": {"number": 64, "value": 127}, "group": "control_change"}, {"time": 1213, "annotation": {"number": 64, "value": 74}, "group": "control_change"}, {"time": 1213, "annotation": {"number": 64, "value": 0}, "group": "control_change"}, {"time": 1223, "annotation": {"number": 64, "value": 38}, "group": "control_change"}, {"time": 1223, "annotation": {"number": 64, "value": 0}, "group": "control_change"}, {"time": 1226, "annotation": {"number": 64, "value": 74}, "group": "control_change"}, {"time": 1226, "annotation": {"number": 64, "value": 127}, "group": "control_change"}, {"time": 1247, "annotation": {"number": 64, "value": 38}, "group": "control_change"}, {"time": 1247, "annotation": {"number": 64, "value": 0}, "group": "control_change"}, {"time": 1250, "annotation": {"number": 64, "value": 127}, "group": "control_change"}, {"time": 1272, "annotation": {"number": 64, "value": 38}, "group": "control_change"}, {"time": 1272, "annotation": {"number": 64, "value": 0}, "group": "control_change"}, {"time": 1274, "annotation": {"number": 64, "value": 127}, "group": "control_change"}, {"time": 1279, "annotation": {"number": 64, "value": 74}, "group": "control_change"}, {"time": 1279, "annotation": {"number": 64, "value": 0}, "group": "control_change"}, {"time": 1296, "annotation": {"number": 64, "value": 38}, "group": "control_change"}, {"time": 1297, "annotation": {"number": 64, "value": 0}, "group": "control_change"}, {"time": 1299, "annotation": {"number": 64, "value": 127}, "group": "control_change"}, {"time": 1319, "annotation": {"number": 64, "value": 0}, "group": "control_change"}, {"time": 1323, "annotation": {"number": 64, "value": 127}, "group": "control_change"}, {"time": 1331, "annotation": {"number": 64, "value": 0}, "group": "control_change"}, {"time": 1335, "annotation": {"number": 64, "value": 127}, "group": "control_change"}, {"time": 1342, "annotation": {"number": 64, "value": 74}, "group": "control_change"}, {"time": 1342, "annotation": {"number": 64, "value": 0}, "group": "control_change"}, {"time": 1347, "annotation": {"number": 64, "value": 127}, "group": "control_change"}, {"time": 1371, "annotation": {"number": 64, "value": 74}, "group": "control_change"}, {"time": 1371, "annotation": {"number": 64, "value": 127}, "group": "control_change"}, {"time": 1371, "annotation": {"number": 64, "value": 38}, "group": "control_change"}, {"time": 1371, "annotation": {"number": 64, "value": 0}, "group": "control_change"}, {"time": 1391, "annotation": {"number": 64, "value": 0}, "group": "control_change"}, {"time": 1395, "annotation": {"number": 64, "value": 74}, "group": "control_change"}, {"time": 1395, "annotation": {"number": 64, "value": 127}, "group": "control_change"}, {"time": 1415, "annotation": {"number": 64, "value": 74}, "group": "control_change"}, {"time": 1416, "annotation": {"number": 64, "value": 0}, "group": "control_change"}, {"time": 1418, "annotation": {"number": 64, "value": 38}, "group": "control_change"}, {"time": 1418, "annotation": {"number": 64, "value": 127}, "group": "control_change"}, {"time": 1466, "annotation": {"number": 64, "value": 38}, "group": "control_change"}, {"time": 1466, "annotation": {"number": 64, "value": 0}, "group": "control_change"}, {"time": 1660, "annotation": {"number": 64, "value": 127}, "group": "control_change"}, {"time": 1703, "annotation": {"number": 64, "value": 38}, "group": "control_change"}, {"time": 1703, "annotation": {"number": 64, "value": 0}, "group": "control_change"}, {"time": 1707, "annotation": {"number": 64, "value": 127}, "group": "control_change"}, {"time": 1751, "annotation": {"number": 64, "value": 74}, "group": "control_change"}, {"time": 1751, "annotation": {"number": 64, "value": 127}, "group": "control_change"}, {"time": 1751, "annotation": {"number": 64, "value": 0}, "group": "control_change"}, {"time": 1755, "annotation": {"number": 64, "value": 127}, "group": "control_change"}, {"time": 1756, "annotation": {"number": 64, "value": 127}, "group": "control_change"}, {"time": 1776, "annotation": {"number": 64, "value": 74}, "group": "control_change"}, {"time": 1776, "annotation": {"number": 64, "value": 0}, "group": "control_change"}, {"time": 1779, "annotation": {"number": 64, "value": 127}, "group": "control_change"}, {"time": 1780, "annotation": {"number": 64, "value": 38}, "group": "control_change"}, {"time": 1780, "annotation": {"number": 64, "value": 0}, "group": "control_change"}, {"time": 1799, "annotation": {"number": 64, "value": 74}, "group": "control_change"}, {"time": 1799, "annotation": {"number": 64, "value": 0}, "group": "control_change"}, {"time": 1803, "annotation": {"number": 64, "value": 74}, "group": "control_change"}, {"time": 1803, "annotation": {"number": 64, "value": 127}, "group": "control_change"}, {"time": 1842, "annotation": {"number": 64, "value": 0}, "group": "control_change"}, {"time": 1851, "annotation": {"number": 64, "value": 127}, "group": "control_change"}, {"time": 1872, "annotation": {"number": 64, "value": 38}, "group": "control_change"}, {"time": 1872, "annotation": {"number": 64, "value": 0}, "group": "control_change"}, {"time": 1875, "annotation": {"number": 64, "value": 38}, "group": "control_change"}, {"time": 1875, "annotation": {"number": 64, "value": 127}, "group": "control_change"}, {"time": 1894, "annotation": {"number": 64, "value": 38}, "group": "control_change"}, {"time": 1895, "annotation": {"number": 64, "value": 127}, "group": "control_change"}, {"time": 1895, "annotation": {"number": 64, "value": 38}, "group": "control_change"}, {"time": 1895, "annotation": {"number": 64, "value": 0}, "group": "control_change"}, {"time": 1900, "annotation": {"number": 64, "value": 127}, "group": "control_change"}, {"time": 1919, "annotation": {"number": 64, "value": 74}, "group": "control_change"}, {"time": 1919, "annotation": {"number": 64, "value": 38}, "group": "control_change"}, {"time": 1919, "annotation": {"number": 64, "value": 0}, "group": "control_change"}, {"time": 1925, "annotation": {"number": 64, "value": 127}, "group": "control_change"}, {"time": 1945, "annotation": {"number": 64, "value": 38}, "group": "control_change"}, {"time": 1945, "annotation": {"number": 64, "value": 127}, "group": "control_change"}, {"time": 1945, "annotation": {"number": 64, "value": 0}, "group": "control_change"}, {"time": 1959, "annotation": {"number": 64, "value": 127}, "group": "control_change"}, {"time": 1992, "annotation": {"number": 64, "value": 38}, "group": "control_change"}, {"time": 1992, "annotation": {"number": 64, "value": 0}, "group": "control_change"}, {"time": 1995, "annotation": {"number": 64, "value": 127}, "group": "control_change"}, {"time": 2017, "annotation": {"number": 64, "value": 74}, "group": "control_change"}, {"time": 2017, "annotation": {"number": 64, "value": 127}, "group": "control_change"}, {"time": 2017, "annotation": {"number": 64, "value": 0}, "group": "control_change"}, {"time": 2019, "annotation": {"number": 64, "value": 127}, "group": "control_change"}, {"time": 2043, "annotation": {"number": 64, "value": 127}, "group": "control_change"}, {"time": 2087, "annotation": {"number": 64, "value": 0}, "group": "control_change"}, {"time": 2091, "annotation": {"number": 64, "value": 127}, "group": "control_change"}, {"time": 2135, "annotation": {"number": 64, "value": 74}, "group": "control_change"}, {"time": 2135, "annotation": {"number": 64, "value": 0}, "group": "control_change"}, {"time": 2138, "annotation": {"number": 64, "value": 127}, "group": "control_change"}, {"time": 2159, "annotation": {"number": 64, "value": 38}, "group": "control_change"}, {"time": 2159, "annotation": {"number": 64, "value": 0}, "group": "control_change"}, {"time": 2162, "annotation": {"number": 64, "value": 127}, "group": "control_change"}, {"time": 2184, "annotation": {"number": 64, "value": 74}, "group": "control_change"}, {"time": 2184, "annotation": {"number": 64, "value": 38}, "group": "control_change"}, {"time": 2184, "annotation": {"number": 64, "value": 0}, "group": "control_change"}, {"time": 2186, "annotation": {"number": 64, "value": 74}, "group": "control_change"}, {"time": 2186, "annotation": {"number": 64, "value": 127}, "group": "control_change"}, {"time": 2232, "annotation": {"number": 64, "value": 74}, "group": "control_change"}, {"time": 2232, "annotation": {"number": 64, "value": 0}, "group": "control_change"}, {"time": 2234, "annotation": {"number": 64, "value": 127}, "group": "control_change"}, {"time": 2257, "annotation": {"number": 64, "value": 74}, "group": "control_change"}, {"time": 2257, "annotation": {"number": 64, "value": 0}, "group": "control_change"}, {"time": 2259, "annotation": {"number": 64, "value": 127}, "group": "control_change"}, {"time": 2273, "annotation": {"number": 64, "value": 38}, "group": "control_change"}, {"time": 2273, "annotation": {"number": 64, "value": 0}, "group": "control_change"}, {"time": 2279, "annotation": {"number": 64, "value": 74}, "group": "control_change"}, {"time": 2279, "annotation": {"number": 64, "value": 0}, "group": "control_change"}, {"time": 2283, "annotation": {"number": 64, "value": 127}, "group": "control_change"}, {"time": 2283, "annotation": {"number": 64, "value": 38}, "group": "control_change"}, {"time": 2284, "annotation": {"number": 64, "value": 127}, "group": "control_change"}, {"time": 2285, "annotation": {"number": 64, "value": 38}, "group": "control_change"}, {"time": 2285, "annotation": {"number": 64, "value": 0}, "group": "control_change"}, {"time": 2329, "annotation": {"number": 64, "value": 0}, "group": "control_change"}, {"time": 2330, "annotation": {"number": 64, "value": 74}, "group": "control_change"}, {"time": 2330, "annotation": {"number": 64, "value": 127}, "group": "control_change"}, {"time": 2427, "annotation": {"number": 64, "value": 127}, "group": "control_change"}, {"time": 2446, "annotation": {"number": 64, "value": 74}, "group": "control_change"}, {"time": 2446, "annotation": {"number": 64, "value": 0}, "group": "control_change"}, {"time": 2447, "annotation": {"number": 64, "value": 38}, "group": "control_change"}, {"time": 2447, "annotation": {"number": 64, "value": 0}, "group": "control_change"}, {"time": 2450, "annotation": {"number": 64, "value": 74}, "group": "control_change"}, {"time": 2450, "annotation": {"number": 64, "value": 127}, "group": "control_change"}, {"time": 2471, "annotation": {"number": 64, "value": 38}, "group": "control_change"}, {"time": 2471, "annotation": {"number": 64, "value": 0}, "group": "control_change"}, {"time": 2474, "annotation": {"number": 64, "value": 127}, "group": "control_change"}, {"time": 2495, "annotation": {"number": 64, "value": 38}, "group": "control_change"}, {"time": 2495, "annotation": {"number": 64, "value": 0}, "group": "control_change"}, {"time": 2497, "annotation": {"number": 64, "value": 38}, "group": "control_change"}, {"time": 2498, "annotation": {"number": 64, "value": 127}, "group": "control_change"}, {"time": 2518, "annotation": {"number": 64, "value": 38}, "group": "control_change"}, {"time": 2518, "annotation": {"number": 64, "value": 0}, "group": "control_change"}, {"time": 2522, "annotation": {"number": 64, "value": 127}, "group": "control_change"}, {"time": 2544, "annotation": {"number": 64, "value": 0}, "group": "control_change"}, {"time": 2546, "annotation": {"number": 64, "value": 127}, "group": "control_change"}, {"time": 2547, "annotation": {"number": 64, "value": 127}, "group": "control_change"}, {"time": 2557, "annotation": {"number": 64, "value": 74}, "group": "control_change"}, {"time": 2557, "annotation": {"number": 64, "value": 0}, "group": "control_change"}, {"time": 2567, "annotation": {"number": 64, "value": 38}, "group": "control_change"}, {"time": 2567, "annotation": {"number": 64, "value": 0}, "group": "control_change"}, {"time": 2570, "annotation": {"number": 64, "value": 74}, "group": "control_change"}, {"time": 2570, "annotation": {"number": 64, "value": 127}, "group": "control_change"}, {"time": 2591, "annotation": {"number": 64, "value": 38}, "group": "control_change"}, {"time": 2591, "annotation": {"number": 64, "value": 0}, "group": "control_change"}, {"time": 2594, "annotation": {"number": 64, "value": 127}, "group": "control_change"}, {"time": 2616, "annotation": {"number": 64, "value": 38}, "group": "control_change"}, {"time": 2616, "annotation": {"number": 64, "value": 0}, "group": "control_change"}, {"time": 2618, "annotation": {"number": 64, "value": 127}, "group": "control_change"}, {"time": 2623, "annotation": {"number": 64, "value": 74}, "group": "control_change"}, {"time": 2623, "annotation": {"number": 64, "value": 0}, "group": "control_change"}, {"time": 2640, "annotation": {"number": 64, "value": 38}, "group": "control_change"}, {"time": 2641, "annotation": {"number": 64, "value": 0}, "group": "control_change"}, {"time": 2643, "annotation": {"number": 64, "value": 127}, "group": "control_change"}, {"time": 2663, "annotation": {"number": 64, "value": 0}, "group": "control_change"}, {"time": 2667, "annotation": {"number": 64, "value": 127}, "group": "control_change"}, {"time": 2675, "annotation": {"number": 64, "value": 0}, "group": "control_change"}, {"time": 2679, "annotation": {"number": 64, "value": 127}, "group": "control_change"}, {"time": 2686, "annotation": {"number": 64, "value": 74}, "group": "control_change"}, {"time": 2686, "annotation": {"number": 64, "value": 0}, "group": "control_change"}, {"time": 2691, "annotation": {"number": 64, "value": 127}, "group": "control_change"}, {"time": 2715, "annotation": {"number": 64, "value": 74}, "group": "control_change"}, {"time": 2715, "annotation": {"number": 64, "value": 127}, "group": "control_change"}, {"time": 2715, "annotation": {"number": 64, "value": 38}, "group": "control_change"}, {"time": 2715, "annotation": {"number": 64, "value": 0}, "group": "control_change"}, {"time": 2735, "annotation": {"number": 64, "value": 0}, "group": "control_change"}, {"time": 2739, "annotation": {"number": 64, "value": 74}, "group": "control_change"}, {"time": 2739, "annotation": {"number": 64, "value": 127}, "group": "control_change"}, {"time": 2759, "annotation": {"number": 64, "value": 74}, "group": "control_change"}, {"time": 2760, "annotation": {"number": 64, "value": 0}, "group": "control_change"}, {"time": 2762, "annotation": {"number": 64, "value": 38}, "group": "control_change"}, {"time": 2762, "annotation": {"number": 64, "value": 127}, "group": "control_change"}, {"time": 2811, "annotation": {"number": 64, "value": 127}, "group": "control_change"}, {"time": 2857, "annotation": {"number": 64, "value": 38}, "group": "control_change"}, {"time": 2857, "annotation": {"number": 64, "value": 0}, "group": "control_change"}, {"time": 2858, "annotation": {"number": 64, "value": 74}, "group": "control_change"}, {"time": 2858, "annotation": {"number": 64, "value": 127}, "group": "control_change"}, {"time": 2859, "annotation": {"number": 64, "value": 127}, "group": "control_change"}, {"time": 2880, "annotation": {"number": 64, "value": 74}, "group": "control_change"}, {"time": 2880, "annotation": {"number": 64, "value": 0}, "group": "control_change"}, {"time": 2881, "annotation": {"number": 64, "value": 38}, "group": "control_change"}, {"time": 2881, "annotation": {"number": 64, "value": 0}, "group": "control_change"}, {"time": 2882, "annotation": {"number": 64, "value": 127}, "group": "control_change"}, {"time": 2904, "annotation": {"number": 64, "value": 38}, "group": "control_change"}, {"time": 2904, "annotation": {"number": 64, "value": 0}, "group": "control_change"}, {"time": 2906, "annotation": {"number": 64, "value": 127}, "group": "control_change"}, {"time": 2953, "annotation": {"number": 64, "value": 38}, "group": "control_change"}, {"time": 2953, "annotation": {"number": 64, "value": 0}, "group": "control_change"}, {"time": 2954, "annotation": {"number": 64, "value": 127}, "group": "control_change"}, {"time": 2955, "annotation": {"number": 64, "value": 74}, "group": "control_change"}, {"time": 2955, "annotation": {"number": 64, "value": 127}, "group": "control_change"}, {"time": 2992, "annotation": {"number": 64, "value": 38}, "group": "control_change"}, {"time": 2992, "annotation": {"number": 64, "value": 0}, "group": "control_change"}, {"time": 3000, "annotation": {"number": 64, "value": 74}, "group": "control_change"}, {"time": 3001, "annotation": {"number": 64, "value": 0}, "group": "control_change"}, {"time": 3003, "annotation": {"number": 64, "value": 127}, "group": "control_change"}, {"time": 3049, "annotation": {"number": 64, "value": 74}, "group": "control_change"}, {"time": 3049, "annotation": {"number": 64, "value": 0}, "group": "control_change"}, {"time": 3050, "annotation": {"number": 64, "value": 127}, "group": "control_change"}, {"time": 3051, "annotation": {"number": 64, "value": 127}, "group": "control_change"}, {"time": 3072, "annotation": {"number": 64, "value": 74}, "group": "control_change"}, {"time": 3072, "annotation": {"number": 64, "value": 0}, "group": "control_change"}, {"time": 3074, "annotation": {"number": 64, "value": 127}, "group": "control_change"}, {"time": 3094, "annotation": {"number": 64, "value": 0}, "group": "control_change"}, {"time": 3096, "annotation": {"number": 64, "value": 38}, "group": "control_change"}, {"time": 3096, "annotation": {"number": 64, "value": 0}, "group": "control_change"}, {"time": 3098, "annotation": {"number": 64, "value": 127}, "group": "control_change"}, {"time": 3099, "annotation": {"number": 64, "value": 74}, "group": "control_change"}, {"time": 3099, "annotation": {"number": 64, "value": 127}, "group": "control_change"}, {"time": 3143, "annotation": {"number": 64, "value": 38}, "group": "control_change"}, {"time": 3144, "annotation": {"number": 64, "value": 0}, "group": "control_change"}, {"time": 3531, "annotation": {"number": 64, "value": 127}, "group": "control_change"}, {"time": 3553, "annotation": {"number": 64, "value": 38}, "group": "control_change"}, {"time": 3553, "annotation": {"number": 64, "value": 0}, "group": "control_change"}, {"time": 3555, "annotation": {"number": 64, "value": 38}, "group": "control_change"}, {"time": 3555, "annotation": {"number": 64, "value": 127}, "group": "control_change"}, {"time": 3577, "annotation": {"number": 64, "value": 0}, "group": "control_change"}, {"time": 3578, "annotation": {"number": 64, "value": 127}, "group": "control_change"}, {"time": 3579, "annotation": {"number": 64, "value": 74}, "group": "control_change"}, {"time": 3579, "annotation": {"number": 64, "value": 127}, "group": "control_change"}, {"time": 3600, "annotation": {"number": 64, "value": 38}, "group": "control_change"}, {"time": 3600, "annotation": {"number": 64, "value": 0}, "group": "control_change"}, {"time": 3601, "annotation": {"number": 64, "value": 38}, "group": "control_change"}, {"time": 3601, "annotation": {"number": 64, "value": 0}, "group": "control_change"}, {"time": 3602, "annotation": {"number": 64, "value": 127}, "group": "control_change"}, {"time": 3612, "annotation": {"number": 64, "value": 38}, "group": "control_change"}, {"time": 3612, "annotation": {"number": 64, "value": 0}, "group": "control_change"}, {"time": 3613, "annotation": {"number": 64, "value": 38}, "group": "control_change"}, {"time": 3613, "annotation": {"number": 64, "value": 0}, "group": "control_change"}, {"time": 3614, "annotation": {"number": 64, "value": 127}, "group": "control_change"}, {"time": 3624, "annotation": {"number": 64, "value": 0}, "group": "control_change"}, {"time": 3626, "annotation": {"number": 64, "value": 127}, "group": "control_change"}, {"time": 3648, "annotation": {"number": 64, "value": 0}, "group": "control_change"}, {"time": 3650, "annotation": {"number": 64, "value": 127}, "group": "control_change"}, {"time": 3662, "annotation": {"number": 64, "value": 38}, "group": "control_change"}, {"time": 3663, "annotation": {"number": 64, "value": 0}, "group": "control_change"}, {"time": 3672, "annotation": {"number": 64, "value": 0}, "group": "control_change"}, {"time": 3674, "annotation": {"number": 64, "value": 127}, "group": "control_change"}, {"time": 3696, "annotation": {"number": 64, "value": 74}, "group": "control_change"}, {"time": 3696, "annotation": {"number": 64, "value": 0}, "group": "control_change"}, {"time": 3698, "annotation": {"number": 64, "value": 127}, "group": "control_change"}, {"time": 3709, "annotation": {"number": 64, "value": 38}, "group": "control_change"}, {"time": 3709, "annotation": {"number": 64, "value": 0}, "group": "control_change"}, {"time": 3710, "annotation": {"number": 64, "value": 74}, "group": "control_change"}, {"time": 3710, "annotation": {"number": 64, "value": 127}, "group": "control_change"}, {"time": 3720, "annotation": {"number": 64, "value": 0}, "group": "control_change"}, {"time": 3722, "annotation": {"number": 64, "value": 127}, "group": "control_change"}, {"time": 3744, "annotation": {"number": 64, "value": 0}, "group": "control_change"}, {"time": 3746, "annotation": {"number": 64, "value": 74}, "group": "control_change"}, {"time": 3746, "annotation": {"number": 64, "value": 127}, "group": "control_change"}, {"time": 3747, "annotation": {"number": 64, "value": 127}, "group": "control_change"}, {"time": 3768, "annotation": {"number": 64, "value": 0}, "group": "control_change"}, {"time": 3768, "annotation": {"number": 64, "value": 38}, "group": "control_change"}, {"time": 3770, "annotation": {"number": 64, "value": 127}, "group": "control_change"}, {"time": 3770, "annotation": {"number": 64, "value": 38}, "group": "control_change"}, {"time": 3780, "annotation": {"number": 64, "value": 38}, "group": "control_change"}, {"time": 3780, "annotation": {"number": 64, "value": 0}, "group": "control_change"}, {"time": 3782, "annotation": {"number": 64, "value": 127}, "group": "control_change"}, {"time": 3790, "annotation": {"number": 64, "value": 74}, "group": "control_change"}, {"time": 3790, "annotation": {"number": 64, "value": 0}, "group": "control_change"}, {"time": 3792, "annotation": {"number": 64, "value": 0}, "group": "control_change"}, {"time": 3794, "annotation": {"number": 64, "value": 127}, "group": "control_change"}, {"time": 3816, "annotation": {"number": 64, "value": 0}, "group": "control_change"}, {"time": 3818, "annotation": {"number": 64, "value": 127}, "group": "control_change"}, {"time": 3840, "annotation": {"number": 64, "value": 74}, "group": "control_change"}, {"time": 3840, "annotation": {"number": 64, "value": 0}, "group": "control_change"}, {"time": 3842, "annotation": {"number": 64, "value": 127}, "group": "control_change"}, {"time": 3864, "annotation": {"number": 64, "value": 0}, "group": "control_change"}, {"time": 3866, "annotation": {"number": 64, "value": 127}, "group": "control_change"}, {"time": 3867, "annotation": {"number": 64, "value": 74}, "group": "control_change"}, {"time": 3868, "annotation": {"number": 64, "value": 38}, "group": "control_change"}, {"time": 3868, "annotation": {"number": 64, "value": 0}, "group": "control_change"}, {"time": 3868, "annotation": {"number": 64, "value": 127}, "group": "control_change"}, {"time": 3911, "annotation": {"number": 64, "value": 38}, "group": "control_change"}, {"time": 3911, "annotation": {"number": 64, "value": 0}, "group": "control_change"}, {"time": 3913, "annotation": {"number": 64, "value": 127}, "group": "control_change"}, {"time": 3942, "annotation": {"number": 64, "value": 127}, "group": "control_change"}, {"time": 3970, "annotation": {"number": 64, "value": 38}, "group": "control_change"}, {"time": 3970, "annotation": {"number": 64, "value": 0}, "group": "control_change"}, {"time": 4012, "annotation": {"number": 64, "value": 38}, "group": "control_change"}, {"time": 4012, "annotation": {"number": 64, "value": 0}, "group": "control_change"}, {"time": 4014, "annotation": {"number": 64, "value": 127}, "group": "control_change"}]}]}