{"metadata": {"schema_version": "0.2", "title": "None", "source_filename": "288.mid", "source_format": "midi"}, "resolution": 12, "tempos": [{"time": 0, "qpm": 102.0000510000255}, {"time": 1568, "qpm": 104.00001386666851}, {"time": 2792, "qpm": 102.0000510000255}, {"time": 3177, "qpm": 104.00001386666851}], "time_signatures": [{"time": 0, "numerator": 4, "denominator": 4}], "tracks": [{"program": 0, "is_drum": false, "name": "MELODY", "notes": [{"time": 830, "pitch": 77, "duration": 6, "velocity": 107}, {"time": 836, "pitch": 77, "duration": 6, "velocity": 113}, {"time": 842, "pitch": 77, "duration": 6, "velocity": 107}, {"time": 848, "pitch": 77, "duration": 6, "velocity": 113}, {"time": 854, "pitch": 75, "duration": 6, "velocity": 109}, {"time": 860, "pitch": 74, "duration": 6, "velocity": 107}, {"time": 866, "pitch": 70, "duration": 6, "velocity": 109}, {"time": 872, "pitch": 72, "duration": 12, "velocity": 108}, {"time": 884, "pitch": 74, "duration": 6, "velocity": 98}, {"time": 890, "pitch": 72, "duration": 12, "velocity": 114}, {"time": 902, "pitch": 72, "duration": 6, "velocity": 107}, {"time": 908, "pitch": 74, "duration": 6, "velocity": 107}, {"time": 914, "pitch": 75, "duration": 6, "velocity": 95}, {"time": 920, "pitch": 74, "duration": 18, "velocity": 107}, {"time": 938, "pitch": 74, "duration": 3, "velocity": 113}, {"time": 941, "pitch": 75, "duration": 3, "velocity": 88}, {"time": 944, "pitch": 74, "duration": 6, "velocity": 108}, {"time": 950, "pitch": 72, "duration": 6, "velocity": 100}, {"time": 956, "pitch": 70, "duration": 6, "velocity": 109}, {"time": 962, "pitch": 72, "duration": 6, "velocity": 100}, {"time": 968, "pitch": 67, "duration": 36, "velocity": 107}, {"time": 1004, "pitch": 67, "duration": 6, "velocity": 107}, {"time": 1010, "pitch": 69, "duration": 6, "velocity": 107}, {"time": 1016, "pitch": 70, "duration": 12, "velocity": 106}, {"time": 1028, "pitch": 69, "duration": 7, "velocity": 104}, {"time": 1034, "pitch": 67, "duration": 12, "velocity": 104}, {"time": 1046, "pitch": 74, "duration": 18, "velocity": 104}, {"time": 1064, "pitch": 72, "duration": 12, "velocity": 98}, {"time": 1076, "pitch": 77, "duration": 6, "velocity": 110}, {"time": 1082, "pitch": 72, "duration": 12, "velocity": 100}, {"time": 1094, "pitch": 72, "duration": 6, "velocity": 113}, {"time": 1100, "pitch": 74, "duration": 6, "velocity": 110}, {"time": 1106, "pitch": 75, "duration": 6, "velocity": 100}, {"time": 1112, "pitch": 74, "duration": 102, "velocity": 114}, {"time": 1214, "pitch": 77, "duration": 6, "velocity": 114}, {"time": 1220, "pitch": 77, "duration": 6, "velocity": 110}, {"time": 1226, "pitch": 77, "duration": 6, "velocity": 108}, {"time": 1232, "pitch": 77, "duration": 6, "velocity": 113}, {"time": 1238, "pitch": 75, "duration": 6, "velocity": 103}, {"time": 1244, "pitch": 74, "duration": 6, "velocity": 110}, {"time": 1250, "pitch": 70, "duration": 6, "velocity": 113}, {"time": 1256, "pitch": 72, "duration": 12, "velocity": 113}, {"time": 1268, "pitch": 74, "duration": 6, "velocity": 114}, {"time": 1274, "pitch": 72, "duration": 12, "velocity": 108}, {"time": 1286, "pitch": 72, "duration": 6, "velocity": 116}, {"time": 1292, "pitch": 74, "duration": 6, "velocity": 113}, {"time": 1298, "pitch": 75, "duration": 6, "velocity": 106}, {"time": 1304, "pitch": 74, "duration": 18, "velocity": 116}, {"time": 1322, "pitch": 74, "duration": 3, "velocity": 114}, {"time": 1325, "pitch": 75, "duration": 3, "velocity": 86}, {"time": 1328, "pitch": 74, "duration": 6, "velocity": 108}, {"time": 1334, "pitch": 72, "duration": 6, "velocity": 98}, {"time": 1340, "pitch": 70, "duration": 6, "velocity": 95}, {"time": 1346, "pitch": 72, "duration": 6, "velocity": 113}, {"time": 1352, "pitch": 67, "duration": 36, "velocity": 113}, {"time": 1388, "pitch": 67, "duration": 7, "velocity": 102}, {"time": 1394, "pitch": 69, "duration": 6, "velocity": 110}, {"time": 1400, "pitch": 70, "duration": 12, "velocity": 119}, {"time": 1412, "pitch": 69, "duration": 6, "velocity": 113}, {"time": 1418, "pitch": 67, "duration": 12, "velocity": 114}, {"time": 1430, "pitch": 74, "duration": 18, "velocity": 116}, {"time": 1448, "pitch": 72, "duration": 12, "velocity": 119}, {"time": 1460, "pitch": 77, "duration": 6, "velocity": 113}, {"time": 1466, "pitch": 72, "duration": 12, "velocity": 110}, {"time": 1478, "pitch": 72, "duration": 18, "velocity": 94}, {"time": 1496, "pitch": 72, "duration": 6, "velocity": 113}, {"time": 1502, "pitch": 74, "duration": 7, "velocity": 113}, {"time": 1508, "pitch": 75, "duration": 6, "velocity": 106}, {"time": 1514, "pitch": 74, "duration": 54, "velocity": 116}, {"time": 1568, "pitch": 82, "duration": 6, "velocity": 119}, {"time": 1574, "pitch": 81, "duration": 6, "velocity": 113}, {"time": 1580, "pitch": 82, "duration": 6, "velocity": 106}, {"time": 1586, "pitch": 81, "duration": 6, "velocity": 116}, {"time": 1592, "pitch": 74, "duration": 24, "velocity": 108}, {"time": 1616, "pitch": 82, "duration": 6, "velocity": 119}, {"time": 1622, "pitch": 81, "duration": 5, "velocity": 110}, {"time": 1625, "pitch": 82, "duration": 9, "velocity": 106}, {"time": 1634, "pitch": 81, "duration": 6, "velocity": 110}, {"time": 1640, "pitch": 72, "duration": 30, "velocity": 117}, {"time": 1670, "pitch": 77, "duration": 6, "velocity": 116}, {"time": 1676, "pitch": 82, "duration": 6, "velocity": 123}, {"time": 1682, "pitch": 81, "duration": 6, "velocity": 113}, {"time": 1688, "pitch": 79, "duration": 12, "velocity": 116}, {"time": 1700, "pitch": 79, "duration": 6, "velocity": 114}, {"time": 1706, "pitch": 77, "duration": 6, "velocity": 113}, {"time": 1712, "pitch": 79, "duration": 6, "velocity": 114}, {"time": 1718, "pitch": 81, "duration": 6, "velocity": 110}, {"time": 1724, "pitch": 79, "duration": 7, "velocity": 113}, {"time": 1730, "pitch": 77, "duration": 12, "velocity": 108}, {"time": 1742, "pitch": 74, "duration": 30, "velocity": 117}, {"time": 1772, "pitch": 74, "duration": 6, "velocity": 119}, {"time": 1778, "pitch": 77, "duration": 6, "velocity": 114}, {"time": 1784, "pitch": 79, "duration": 12, "velocity": 116}, {"time": 1796, "pitch": 77, "duration": 6, "velocity": 114}, {"time": 1802, "pitch": 79, "duration": 12, "velocity": 116}, {"time": 1814, "pitch": 74, "duration": 12, "velocity": 114}, {"time": 1826, "pitch": 77, "duration": 42, "velocity": 116}, {"time": 1868, "pitch": 79, "duration": 6, "velocity": 116}, {"time": 1874, "pitch": 81, "duration": 6, "velocity": 117}, {"time": 1880, "pitch": 82, "duration": 12, "velocity": 119}, {"time": 1892, "pitch": 81, "duration": 6, "velocity": 117}, {"time": 1898, "pitch": 79, "duration": 12, "velocity": 116}, {"time": 1910, "pitch": 86, "duration": 18, "velocity": 119}, {"time": 1928, "pitch": 84, "duration": 24, "velocity": 119}, {"time": 1952, "pitch": 82, "duration": 6, "velocity": 119}, {"time": 1958, "pitch": 81, "duration": 6, "velocity": 116}, {"time": 1964, "pitch": 82, "duration": 6, "velocity": 109}, {"time": 1970, "pitch": 81, "duration": 6, "velocity": 116}, {"time": 1976, "pitch": 74, "duration": 24, "velocity": 117}, {"time": 2000, "pitch": 82, "duration": 6, "velocity": 123}, {"time": 2006, "pitch": 81, "duration": 6, "velocity": 114}, {"time": 2012, "pitch": 82, "duration": 6, "velocity": 113}, {"time": 2018, "pitch": 81, "duration": 12, "velocity": 116}, {"time": 2030, "pitch": 72, "duration": 24, "velocity": 117}, {"time": 2054, "pitch": 79, "duration": 6, "velocity": 116}, {"time": 2060, "pitch": 82, "duration": 6, "velocity": 116}, {"time": 2066, "pitch": 81, "duration": 6, "velocity": 114}, {"time": 2072, "pitch": 79, "duration": 12, "velocity": 117}, {"time": 2084, "pitch": 79, "duration": 6, "velocity": 114}, {"time": 2090, "pitch": 77, "duration": 6, "velocity": 113}, {"time": 2096, "pitch": 79, "duration": 6, "velocity": 113}, {"time": 2102, "pitch": 81, "duration": 6, "velocity": 116}, {"time": 2108, "pitch": 79, "duration": 6, "velocity": 104}, {"time": 2114, "pitch": 77, "duration": 12, "velocity": 116}, {"time": 2126, "pitch": 74, "duration": 30, "velocity": 114}, {"time": 2156, "pitch": 74, "duration": 6, "velocity": 116}, {"time": 2162, "pitch": 77, "duration": 6, "velocity": 113}, {"time": 2168, "pitch": 79, "duration": 12, "velocity": 117}, {"time": 2180, "pitch": 77, "duration": 6, "velocity": 114}, {"time": 2186, "pitch": 79, "duration": 12, "velocity": 117}, {"time": 2198, "pitch": 74, "duration": 12, "velocity": 116}, {"time": 2210, "pitch": 77, "duration": 42, "velocity": 119}, {"time": 2252, "pitch": 79, "duration": 6, "velocity": 116}, {"time": 2258, "pitch": 81, "duration": 6, "velocity": 116}, {"time": 2264, "pitch": 82, "duration": 12, "velocity": 119}, {"time": 2276, "pitch": 81, "duration": 6, "velocity": 117}, {"time": 2282, "pitch": 79, "duration": 12, "velocity": 116}, {"time": 2294, "pitch": 86, "duration": 18, "velocity": 120}, {"time": 2312, "pitch": 84, "duration": 24, "velocity": 117}, {"time": 2336, "pitch": 82, "duration": 6, "velocity": 119}, {"time": 2342, "pitch": 81, "duration": 6, "velocity": 113}, {"time": 2348, "pitch": 79, "duration": 6, "velocity": 110}, {"time": 2354, "pitch": 77, "duration": 15, "velocity": 110}, {"time": 2369, "pitch": 79, "duration": 39, "velocity": 114}, {"time": 2846, "pitch": 77, "duration": 6, "velocity": 114}, {"time": 2852, "pitch": 77, "duration": 6, "velocity": 110}, {"time": 2858, "pitch": 77, "duration": 6, "velocity": 108}, {"time": 2864, "pitch": 77, "duration": 6, "velocity": 113}, {"time": 2870, "pitch": 75, "duration": 6, "velocity": 103}, {"time": 2876, "pitch": 74, "duration": 6, "velocity": 110}, {"time": 2882, "pitch": 70, "duration": 6, "velocity": 113}, {"time": 2888, "pitch": 72, "duration": 12, "velocity": 113}, {"time": 2900, "pitch": 74, "duration": 6, "velocity": 114}, {"time": 2906, "pitch": 72, "duration": 12, "velocity": 108}, {"time": 2918, "pitch": 72, "duration": 6, "velocity": 116}, {"time": 2924, "pitch": 74, "duration": 6, "velocity": 113}, {"time": 2930, "pitch": 75, "duration": 6, "velocity": 106}, {"time": 2936, "pitch": 74, "duration": 18, "velocity": 116}, {"time": 2954, "pitch": 74, "duration": 3, "velocity": 114}, {"time": 2957, "pitch": 75, "duration": 3, "velocity": 86}, {"time": 2960, "pitch": 74, "duration": 6, "velocity": 108}, {"time": 2966, "pitch": 72, "duration": 6, "velocity": 98}, {"time": 2972, "pitch": 70, "duration": 6, "velocity": 95}, {"time": 2978, "pitch": 72, "duration": 6, "velocity": 113}, {"time": 2984, "pitch": 67, "duration": 36, "velocity": 113}, {"time": 3020, "pitch": 67, "duration": 7, "velocity": 102}, {"time": 3026, "pitch": 69, "duration": 6, "velocity": 110}, {"time": 3032, "pitch": 70, "duration": 12, "velocity": 119}, {"time": 3044, "pitch": 69, "duration": 6, "velocity": 113}, {"time": 3050, "pitch": 67, "duration": 12, "velocity": 114}, {"time": 3062, "pitch": 74, "duration": 18, "velocity": 116}, {"time": 3080, "pitch": 72, "duration": 12, "velocity": 119}, {"time": 3092, "pitch": 77, "duration": 6, "velocity": 113}, {"time": 3098, "pitch": 72, "duration": 12, "velocity": 110}, {"time": 3110, "pitch": 72, "duration": 18, "velocity": 94}, {"time": 3128, "pitch": 72, "duration": 6, "velocity": 113}, {"time": 3134, "pitch": 74, "duration": 7, "velocity": 113}, {"time": 3140, "pitch": 75, "duration": 6, "velocity": 106}, {"time": 3146, "pitch": 74, "duration": 30, "velocity": 116}, {"time": 3200, "pitch": 82, "duration": 6, "velocity": 119}, {"time": 3206, "pitch": 81, "duration": 6, "velocity": 113}, {"time": 3212, "pitch": 82, "duration": 6, "velocity": 106}, {"time": 3218, "pitch": 81, "duration": 6, "velocity": 116}, {"time": 3224, "pitch": 74, "duration": 24, "velocity": 108}, {"time": 3248, "pitch": 82, "duration": 6, "velocity": 119}, {"time": 3254, "pitch": 81, "duration": 5, "velocity": 110}, {"time": 3257, "pitch": 82, "duration": 9, "velocity": 106}, {"time": 3266, "pitch": 81, "duration": 6, "velocity": 110}, {"time": 3272, "pitch": 72, "duration": 30, "velocity": 117}, {"time": 3302, "pitch": 77, "duration": 6, "velocity": 116}, {"time": 3308, "pitch": 82, "duration": 6, "velocity": 123}, {"time": 3314, "pitch": 81, "duration": 6, "velocity": 113}, {"time": 3320, "pitch": 79, "duration": 12, "velocity": 116}, {"time": 3332, "pitch": 79, "duration": 6, "velocity": 114}, {"time": 3338, "pitch": 77, "duration": 6, "velocity": 113}, {"time": 3344, "pitch": 79, "duration": 6, "velocity": 114}, {"time": 3350, "pitch": 81, "duration": 6, "velocity": 110}, {"time": 3356, "pitch": 79, "duration": 7, "velocity": 113}, {"time": 3362, "pitch": 77, "duration": 12, "velocity": 108}, {"time": 3374, "pitch": 74, "duration": 30, "velocity": 117}, {"time": 3404, "pitch": 74, "duration": 6, "velocity": 119}, {"time": 3410, "pitch": 77, "duration": 6, "velocity": 114}, {"time": 3416, "pitch": 79, "duration": 12, "velocity": 116}, {"time": 3428, "pitch": 77, "duration": 6, "velocity": 114}, {"time": 3434, "pitch": 79, "duration": 12, "velocity": 116}, {"time": 3446, "pitch": 74, "duration": 12, "velocity": 114}, {"time": 3458, "pitch": 77, "duration": 42, "velocity": 116}, {"time": 3500, "pitch": 79, "duration": 6, "velocity": 116}, {"time": 3506, "pitch": 81, "duration": 6, "velocity": 117}, {"time": 3512, "pitch": 82, "duration": 12, "velocity": 119}, {"time": 3524, "pitch": 81, "duration": 6, "velocity": 117}, {"time": 3530, "pitch": 79, "duration": 12, "velocity": 116}, {"time": 3542, "pitch": 86, "duration": 18, "velocity": 119}, {"time": 3560, "pitch": 84, "duration": 24, "velocity": 119}, {"time": 3584, "pitch": 82, "duration": 6, "velocity": 119}, {"time": 3590, "pitch": 81, "duration": 6, "velocity": 116}, {"time": 3596, "pitch": 82, "duration": 6, "velocity": 109}, {"time": 3602, "pitch": 81, "duration": 6, "velocity": 116}, {"time": 3608, "pitch": 74, "duration": 24, "velocity": 117}, {"time": 3632, "pitch": 82, "duration": 6, "velocity": 123}, {"time": 3638, "pitch": 81, "duration": 6, "velocity": 114}, {"time": 3644, "pitch": 82, "duration": 6, "velocity": 113}, {"time": 3650, "pitch": 81, "duration": 12, "velocity": 116}, {"time": 3662, "pitch": 72, "duration": 24, "velocity": 117}, {"time": 3686, "pitch": 79, "duration": 6, "velocity": 116}, {"time": 3692, "pitch": 82, "duration": 6, "velocity": 116}, {"time": 3698, "pitch": 81, "duration": 6, "velocity": 114}, {"time": 3704, "pitch": 79, "duration": 12, "velocity": 117}, {"time": 3716, "pitch": 79, "duration": 6, "velocity": 114}, {"time": 3722, "pitch": 77, "duration": 6, "velocity": 113}, {"time": 3728, "pitch": 79, "duration": 6, "velocity": 113}, {"time": 3734, "pitch": 81, "duration": 6, "velocity": 116}, {"time": 3740, "pitch": 79, "duration": 6, "velocity": 104}, {"time": 3746, "pitch": 77, "duration": 12, "velocity": 116}, {"time": 3758, "pitch": 74, "duration": 30, "velocity": 114}, {"time": 3788, "pitch": 74, "duration": 6, "velocity": 116}, {"time": 3794, "pitch": 77, "duration": 6, "velocity": 113}, {"time": 3800, "pitch": 79, "duration": 12, "velocity": 117}, {"time": 3812, "pitch": 77, "duration": 6, "velocity": 114}, {"time": 3818, "pitch": 79, "duration": 12, "velocity": 117}, {"time": 3830, "pitch": 74, "duration": 12, "velocity": 116}, {"time": 3842, "pitch": 77, "duration": 42, "velocity": 119}, {"time": 3884, "pitch": 79, "duration": 6, "velocity": 116}, {"time": 3890, "pitch": 81, "duration": 6, "velocity": 116}, {"time": 3896, "pitch": 82, "duration": 12, "velocity": 119}, {"time": 3908, "pitch": 81, "duration": 6, "velocity": 117}, {"time": 3914, "pitch": 79, "duration": 12, "velocity": 116}, {"time": 3926, "pitch": 86, "duration": 18, "velocity": 120}, {"time": 3944, "pitch": 84, "duration": 24, "velocity": 117}, {"time": 3968, "pitch": 82, "duration": 6, "velocity": 119}, {"time": 3974, "pitch": 81, "duration": 6, "velocity": 113}, {"time": 3980, "pitch": 79, "duration": 6, "velocity": 110}, {"time": 3986, "pitch": 77, "duration": 15, "velocity": 110}, {"time": 4001, "pitch": 79, "duration": 41, "velocity": 114}, {"time": 4064, "pitch": 82, "duration": 6, "velocity": 119}, {"time": 4070, "pitch": 81, "duration": 6, "velocity": 113}, {"time": 4076, "pitch": 82, "duration": 6, "velocity": 106}, {"time": 4082, "pitch": 81, "duration": 6, "velocity": 116}, {"time": 4088, "pitch": 74, "duration": 24, "velocity": 108}, {"time": 4112, "pitch": 82, "duration": 6, "velocity": 119}, {"time": 4118, "pitch": 81, "duration": 5, "velocity": 110}, {"time": 4121, "pitch": 82, "duration": 9, "velocity": 106}, {"time": 4130, "pitch": 81, "duration": 6, "velocity": 110}, {"time": 4136, "pitch": 72, "duration": 30, "velocity": 117}, {"time": 4166, "pitch": 77, "duration": 6, "velocity": 116}, {"time": 4172, "pitch": 82, "duration": 6, "velocity": 123}, {"time": 4178, "pitch": 81, "duration": 6, "velocity": 113}, {"time": 4184, "pitch": 79, "duration": 12, "velocity": 116}, {"time": 4196, "pitch": 79, "duration": 6, "velocity": 114}, {"time": 4202, "pitch": 77, "duration": 6, "velocity": 113}, {"time": 4208, "pitch": 79, "duration": 6, "velocity": 114}, {"time": 4214, "pitch": 81, "duration": 6, "velocity": 110}, {"time": 4220, "pitch": 79, "duration": 7, "velocity": 113}, {"time": 4226, "pitch": 77, "duration": 12, "velocity": 108}, {"time": 4238, "pitch": 74, "duration": 30, "velocity": 117}, {"time": 4268, "pitch": 74, "duration": 6, "velocity": 119}, {"time": 4274, "pitch": 77, "duration": 6, "velocity": 114}, {"time": 4280, "pitch": 79, "duration": 12, "velocity": 116}, {"time": 4292, "pitch": 77, "duration": 6, "velocity": 114}, {"time": 4298, "pitch": 79, "duration": 12, "velocity": 116}, {"time": 4310, "pitch": 74, "duration": 12, "velocity": 114}, {"time": 4322, "pitch": 77, "duration": 42, "velocity": 116}, {"time": 4364, "pitch": 79, "duration": 6, "velocity": 116}, {"time": 4370, "pitch": 81, "duration": 6, "velocity": 117}, {"time": 4376, "pitch": 82, "duration": 12, "velocity": 119}, {"time": 4388, "pitch": 81, "duration": 6, "velocity": 117}, {"time": 4394, "pitch": 79, "duration": 12, "velocity": 116}, {"time": 4406, "pitch": 86, "duration": 18, "velocity": 119}, {"time": 4424, "pitch": 84, "duration": 24, "velocity": 119}, {"time": 4448, "pitch": 82, "duration": 6, "velocity": 119}, {"time": 4454, "pitch": 81, "duration": 6, "velocity": 116}, {"time": 4460, "pitch": 82, "duration": 6, "velocity": 109}, {"time": 4466, "pitch": 81, "duration": 6, "velocity": 116}, {"time": 4472, "pitch": 74, "duration": 24, "velocity": 117}, {"time": 4496, "pitch": 82, "duration": 6, "velocity": 123}, {"time": 4502, "pitch": 81, "duration": 6, "velocity": 114}, {"time": 4508, "pitch": 82, "duration": 6, "velocity": 113}, {"time": 4514, "pitch": 81, "duration": 12, "velocity": 116}, {"time": 4526, "pitch": 72, "duration": 24, "velocity": 117}, {"time": 4550, "pitch": 79, "duration": 6, "velocity": 116}, {"time": 4556, "pitch": 82, "duration": 6, "velocity": 116}, {"time": 4562, "pitch": 81, "duration": 6, "velocity": 114}, {"time": 4568, "pitch": 79, "duration": 12, "velocity": 117}, {"time": 4580, "pitch": 79, "duration": 6, "velocity": 114}, {"time": 4586, "pitch": 77, "duration": 6, "velocity": 113}, {"time": 4592, "pitch": 79, "duration": 6, "velocity": 113}, {"time": 4598, "pitch": 81, "duration": 6, "velocity": 116}, {"time": 4604, "pitch": 79, "duration": 6, "velocity": 104}, {"time": 4610, "pitch": 77, "duration": 12, "velocity": 116}, {"time": 4622, "pitch": 74, "duration": 30, "velocity": 114}, {"time": 4652, "pitch": 74, "duration": 6, "velocity": 116}, {"time": 4658, "pitch": 77, "duration": 6, "velocity": 113}, {"time": 4664, "pitch": 79, "duration": 12, "velocity": 117}, {"time": 4676, "pitch": 77, "duration": 6, "velocity": 114}, {"time": 4682, "pitch": 79, "duration": 12, "velocity": 117}, {"time": 4694, "pitch": 74, "duration": 12, "velocity": 116}, {"time": 4706, "pitch": 77, "duration": 42, "velocity": 119}, {"time": 4748, "pitch": 79, "duration": 6, "velocity": 116}, {"time": 4754, "pitch": 81, "duration": 6, "velocity": 116}, {"time": 4760, "pitch": 82, "duration": 12, "velocity": 119}, {"time": 4772, "pitch": 81, "duration": 6, "velocity": 117}, {"time": 4778, "pitch": 79, "duration": 12, "velocity": 116}, {"time": 4790, "pitch": 86, "duration": 18, "velocity": 120}, {"time": 4808, "pitch": 84, "duration": 24, "velocity": 117}, {"time": 4832, "pitch": 82, "duration": 6, "velocity": 119}, {"time": 4838, "pitch": 81, "duration": 6, "velocity": 113}, {"time": 4844, "pitch": 79, "duration": 6, "velocity": 110}, {"time": 4850, "pitch": 77, "duration": 15, "velocity": 110}, {"time": 4865, "pitch": 79, "duration": 41, "velocity": 114}]}, {"program": 0, "is_drum": false, "name": "PIANO", "notes": [{"time": 32, "pitch": 43, "duration": 108, "velocity": 80}, {"time": 32, "pitch": 55, "duration": 109, "velocity": 78}, {"time": 32, "pitch": 62, "duration": 107, "velocity": 86}, {"time": 32, "pitch": 67, "duration": 107, "velocity": 83}, {"time": 32, "pitch": 70, "duration": 107, "velocity": 77}, {"time": 155, "pitch": 43, "duration": 38, "velocity": 86}, {"time": 155, "pitch": 55, "duration": 39, "velocity": 82}, {"time": 155, "pitch": 63, "duration": 43, "velocity": 85}, {"time": 155, "pitch": 67, "duration": 43, "velocity": 88}, {"time": 155, "pitch": 72, "duration": 43, "velocity": 84}, {"time": 200, "pitch": 43, "duration": 72, "velocity": 82}, {"time": 200, "pitch": 55, "duration": 72, "velocity": 81}, {"time": 200, "pitch": 62, "duration": 72, "velocity": 81}, {"time": 200, "pitch": 67, "duration": 73, "velocity": 80}, {"time": 200, "pitch": 70, "duration": 73, "velocity": 83}, {"time": 305, "pitch": 50, "duration": 74, "velocity": 92}, {"time": 305, "pitch": 62, "duration": 73, "velocity": 91}, {"time": 305, "pitch": 66, "duration": 74, "velocity": 88}, {"time": 305, "pitch": 69, "duration": 74, "velocity": 91}, {"time": 398, "pitch": 43, "duration": 36, "velocity": 96}, {"time": 398, "pitch": 55, "duration": 39, "velocity": 107}, {"time": 398, "pitch": 62, "duration": 21, "velocity": 107}, {"time": 398, "pitch": 67, "duration": 21, "velocity": 114}, {"time": 398, "pitch": 70, "duration": 19, "velocity": 113}, {"time": 422, "pitch": 62, "duration": 22, "velocity": 94}, {"time": 422, "pitch": 67, "duration": 22, "velocity": 102}, {"time": 422, "pitch": 70, "duration": 20, "velocity": 97}, {"time": 446, "pitch": 46, "duration": 39, "velocity": 83}, {"time": 446, "pitch": 58, "duration": 36, "velocity": 86}, {"time": 446, "pitch": 62, "duration": 21, "velocity": 93}, {"time": 446, "pitch": 65, "duration": 21, "velocity": 107}, {"time": 446, "pitch": 70, "duration": 19, "velocity": 91}, {"time": 470, "pitch": 62, "duration": 20, "velocity": 92}, {"time": 470, "pitch": 65, "duration": 23, "velocity": 104}, {"time": 470, "pitch": 70, "duration": 19, "velocity": 90}, {"time": 491, "pitch": 41, "duration": 39, "velocity": 84}, {"time": 491, "pitch": 53, "duration": 40, "velocity": 84}, {"time": 491, "pitch": 60, "duration": 22, "velocity": 93}, {"time": 491, "pitch": 65, "duration": 2, "velocity": 91}, {"time": 491, "pitch": 69, "duration": 22, "velocity": 91}, {"time": 515, "pitch": 60, "duration": 14, "velocity": 94}, {"time": 515, "pitch": 65, "duration": 14, "velocity": 94}, {"time": 515, "pitch": 69, "duration": 13, "velocity": 86}, {"time": 539, "pitch": 43, "duration": 36, "velocity": 88}, {"time": 539, "pitch": 55, "duration": 35, "velocity": 87}, {"time": 539, "pitch": 58, "duration": 21, "velocity": 87}, {"time": 539, "pitch": 62, "duration": 19, "velocity": 92}, {"time": 539, "pitch": 67, "duration": 16, "velocity": 91}, {"time": 563, "pitch": 58, "duration": 20, "velocity": 95}, {"time": 563, "pitch": 62, "duration": 19, "velocity": 104}, {"time": 563, "pitch": 67, "duration": 17, "velocity": 100}, {"time": 584, "pitch": 39, "duration": 39, "velocity": 87}, {"time": 584, "pitch": 51, "duration": 40, "velocity": 87}, {"time": 584, "pitch": 58, "duration": 22, "velocity": 100}, {"time": 584, "pitch": 63, "duration": 22, "velocity": 97}, {"time": 584, "pitch": 67, "duration": 19, "velocity": 102}, {"time": 608, "pitch": 58, "duration": 16, "velocity": 90}, {"time": 608, "pitch": 63, "duration": 22, "velocity": 93}, {"time": 608, "pitch": 67, "duration": 18, "velocity": 110}, {"time": 632, "pitch": 41, "duration": 41, "velocity": 89}, {"time": 632, "pitch": 53, "duration": 43, "velocity": 88}, {"time": 632, "pitch": 60, "duration": 21, "velocity": 88}, {"time": 632, "pitch": 65, "duration": 20, "velocity": 92}, {"time": 632, "pitch": 69, "duration": 20, "velocity": 94}, {"time": 656, "pitch": 60, "duration": 17, "velocity": 91}, {"time": 656, "pitch": 65, "duration": 14, "velocity": 94}, {"time": 656, "pitch": 69, "duration": 13, "velocity": 89}, {"time": 674, "pitch": 43, "duration": 42, "velocity": 86}, {"time": 674, "pitch": 55, "duration": 43, "velocity": 86}, {"time": 674, "pitch": 58, "duration": 42, "velocity": 86}, {"time": 674, "pitch": 62, "duration": 40, "velocity": 91}, {"time": 674, "pitch": 67, "duration": 41, "velocity": 91}, {"time": 728, "pitch": 43, "duration": 47, "velocity": 87}, {"time": 728, "pitch": 55, "duration": 46, "velocity": 91}, {"time": 728, "pitch": 58, "duration": 45, "velocity": 89}, {"time": 728, "pitch": 62, "duration": 46, "velocity": 104}, {"time": 728, "pitch": 67, "duration": 48, "velocity": 100}, {"time": 812, "pitch": 53, "duration": 9, "velocity": 74}, {"time": 824, "pitch": 46, "duration": 38, "velocity": 76}, {"time": 830, "pitch": 53, "duration": 31, "velocity": 79}, {"time": 836, "pitch": 58, "duration": 18, "velocity": 80}, {"time": 842, "pitch": 62, "duration": 31, "velocity": 87}, {"time": 842, "pitch": 65, "duration": 18, "velocity": 85}, {"time": 854, "pitch": 58, "duration": 6, "velocity": 89}, {"time": 860, "pitch": 65, "duration": 6, "velocity": 86}, {"time": 866, "pitch": 53, "duration": 3, "velocity": 74}, {"time": 872, "pitch": 41, "duration": 38, "velocity": 84}, {"time": 878, "pitch": 53, "duration": 33, "velocity": 81}, {"time": 884, "pitch": 60, "duration": 31, "velocity": 75}, {"time": 890, "pitch": 69, "duration": 29, "velocity": 87}, {"time": 896, "pitch": 65, "duration": 18, "velocity": 97}, {"time": 920, "pitch": 43, "duration": 37, "velocity": 86}, {"time": 926, "pitch": 50, "duration": 31, "velocity": 81}, {"time": 932, "pitch": 55, "duration": 28, "velocity": 81}, {"time": 938, "pitch": 62, "duration": 18, "velocity": 87}, {"time": 938, "pitch": 70, "duration": 33, "velocity": 84}, {"time": 956, "pitch": 62, "duration": 12, "velocity": 97}, {"time": 968, "pitch": 51, "duration": 38, "velocity": 82}, {"time": 974, "pitch": 58, "duration": 30, "velocity": 73}, {"time": 980, "pitch": 63, "duration": 24, "velocity": 81}, {"time": 986, "pitch": 67, "duration": 27, "velocity": 89}, {"time": 986, "pitch": 70, "duration": 26, "velocity": 85}, {"time": 1004, "pitch": 39, "duration": 6, "velocity": 97}, {"time": 1010, "pitch": 41, "duration": 6, "velocity": 97}, {"time": 1016, "pitch": 43, "duration": 40, "velocity": 88}, {"time": 1022, "pitch": 55, "duration": 34, "velocity": 80}, {"time": 1040, "pitch": 58, "duration": 19, "velocity": 84}, {"time": 1040, "pitch": 67, "duration": 19, "velocity": 88}, {"time": 1064, "pitch": 41, "duration": 40, "velocity": 91}, {"time": 1070, "pitch": 53, "duration": 34, "velocity": 74}, {"time": 1076, "pitch": 60, "duration": 36, "velocity": 77}, {"time": 1082, "pitch": 69, "duration": 29, "velocity": 89}, {"time": 1112, "pitch": 43, "duration": 43, "velocity": 83}, {"time": 1118, "pitch": 50, "duration": 38, "velocity": 81}, {"time": 1124, "pitch": 55, "duration": 31, "velocity": 81}, {"time": 1130, "pitch": 58, "duration": 22, "velocity": 86}, {"time": 1130, "pitch": 67, "duration": 8, "velocity": 89}, {"time": 1160, "pitch": 43, "duration": 37, "velocity": 82}, {"time": 1160, "pitch": 58, "duration": 27, "velocity": 86}, {"time": 1160, "pitch": 67, "duration": 13, "velocity": 91}, {"time": 1166, "pitch": 50, "duration": 31, "velocity": 81}, {"time": 1172, "pitch": 55, "duration": 11, "velocity": 83}, {"time": 1178, "pitch": 62, "duration": 18, "velocity": 96}, {"time": 1190, "pitch": 55, "duration": 7, "velocity": 82}, {"time": 1196, "pitch": 58, "duration": 7, "velocity": 89}, {"time": 1208, "pitch": 46, "duration": 39, "velocity": 85}, {"time": 1214, "pitch": 53, "duration": 30, "velocity": 77}, {"time": 1220, "pitch": 58, "duration": 12, "velocity": 84}, {"time": 1226, "pitch": 62, "duration": 20, "velocity": 89}, {"time": 1226, "pitch": 70, "duration": 15, "velocity": 90}, {"time": 1238, "pitch": 58, "duration": 7, "velocity": 84}, {"time": 1250, "pitch": 70, "duration": 4, "velocity": 109}, {"time": 1256, "pitch": 41, "duration": 40, "velocity": 82}, {"time": 1256, "pitch": 69, "duration": 35, "velocity": 107}, {"time": 1262, "pitch": 48, "duration": 35, "velocity": 70}, {"time": 1268, "pitch": 53, "duration": 13, "velocity": 75}, {"time": 1274, "pitch": 60, "duration": 21, "velocity": 87}, {"time": 1286, "pitch": 53, "duration": 14, "velocity": 82}, {"time": 1292, "pitch": 65, "duration": 6, "velocity": 87}, {"time": 1298, "pitch": 69, "duration": 6, "velocity": 88}, {"time": 1304, "pitch": 43, "duration": 38, "velocity": 83}, {"time": 1304, "pitch": 67, "duration": 14, "velocity": 93}, {"time": 1310, "pitch": 50, "duration": 31, "velocity": 80}, {"time": 1316, "pitch": 55, "duration": 25, "velocity": 79}, {"time": 1322, "pitch": 58, "duration": 22, "velocity": 85}, {"time": 1322, "pitch": 67, "duration": 15, "velocity": 93}, {"time": 1340, "pitch": 62, "duration": 18, "velocity": 89}, {"time": 1346, "pitch": 67, "duration": 12, "velocity": 84}, {"time": 1352, "pitch": 39, "duration": 38, "velocity": 84}, {"time": 1358, "pitch": 51, "duration": 20, "velocity": 83}, {"time": 1364, "pitch": 58, "duration": 8, "velocity": 81}, {"time": 1370, "pitch": 63, "duration": 17, "velocity": 90}, {"time": 1382, "pitch": 51, "duration": 10, "velocity": 85}, {"time": 1388, "pitch": 58, "duration": 9, "velocity": 100}, {"time": 1394, "pitch": 63, "duration": 7, "velocity": 81}, {"time": 1400, "pitch": 43, "duration": 40, "velocity": 86}, {"time": 1406, "pitch": 50, "duration": 33, "velocity": 80}, {"time": 1412, "pitch": 55, "duration": 10, "velocity": 86}, {"time": 1418, "pitch": 58, "duration": 22, "velocity": 89}, {"time": 1418, "pitch": 67, "duration": 16, "velocity": 94}, {"time": 1430, "pitch": 55, "duration": 7, "velocity": 84}, {"time": 1436, "pitch": 62, "duration": 7, "velocity": 86}, {"time": 1442, "pitch": 67, "duration": 7, "velocity": 83}, {"time": 1448, "pitch": 41, "duration": 39, "velocity": 62}, {"time": 1448, "pitch": 65, "duration": 17, "velocity": 92}, {"time": 1454, "pitch": 48, "duration": 36, "velocity": 73}, {"time": 1460, "pitch": 53, "duration": 10, "velocity": 84}, {"time": 1466, "pitch": 57, "duration": 18, "velocity": 86}, {"time": 1466, "pitch": 65, "duration": 12, "velocity": 86}, {"time": 1478, "pitch": 53, "duration": 14, "velocity": 81}, {"time": 1484, "pitch": 60, "duration": 11, "velocity": 82}, {"time": 1490, "pitch": 57, "duration": 5, "velocity": 79}, {"time": 1496, "pitch": 43, "duration": 42, "velocity": 88}, {"time": 1502, "pitch": 50, "duration": 31, "velocity": 80}, {"time": 1508, "pitch": 55, "duration": 9, "velocity": 84}, {"time": 1514, "pitch": 58, "duration": 19, "velocity": 87}, {"time": 1514, "pitch": 67, "duration": 12, "velocity": 90}, {"time": 1523, "pitch": 55, "duration": 13, "velocity": 78}, {"time": 1532, "pitch": 62, "duration": 6, "velocity": 87}, {"time": 1538, "pitch": 50, "duration": 6, "velocity": 72}, {"time": 1544, "pitch": 43, "duration": 36, "velocity": 87}, {"time": 1544, "pitch": 55, "duration": 13, "velocity": 86}, {"time": 1544, "pitch": 58, "duration": 20, "velocity": 87}, {"time": 1544, "pitch": 67, "duration": 19, "velocity": 89}, {"time": 1562, "pitch": 50, "duration": 9, "velocity": 87}, {"time": 1568, "pitch": 58, "duration": 13, "velocity": 109}, {"time": 1568, "pitch": 67, "duration": 8, "velocity": 96}, {"time": 1574, "pitch": 50, "duration": 6, "velocity": 84}, {"time": 1580, "pitch": 62, "duration": 6, "velocity": 100}, {"time": 1586, "pitch": 67, "duration": 6, "velocity": 88}, {"time": 1592, "pitch": 46, "duration": 39, "velocity": 82}, {"time": 1592, "pitch": 62, "duration": 9, "velocity": 89}, {"time": 1592, "pitch": 65, "duration": 11, "velocity": 88}, {"time": 1598, "pitch": 53, "duration": 31, "velocity": 72}, {"time": 1604, "pitch": 58, "duration": 10, "velocity": 83}, {"time": 1610, "pitch": 62, "duration": 14, "velocity": 94}, {"time": 1610, "pitch": 70, "duration": 14, "velocity": 106}, {"time": 1622, "pitch": 58, "duration": 7, "velocity": 86}, {"time": 1628, "pitch": 62, "duration": 8, "velocity": 107}, {"time": 1628, "pitch": 70, "duration": 10, "velocity": 103}, {"time": 1640, "pitch": 41, "duration": 43, "velocity": 86}, {"time": 1640, "pitch": 60, "duration": 13, "velocity": 90}, {"time": 1640, "pitch": 69, "duration": 6, "velocity": 104}, {"time": 1646, "pitch": 48, "duration": 43, "velocity": 73}, {"time": 1652, "pitch": 53, "duration": 8, "velocity": 84}, {"time": 1652, "pitch": 60, "duration": 1, "velocity": 38}, {"time": 1658, "pitch": 57, "duration": 15, "velocity": 102}, {"time": 1658, "pitch": 65, "duration": 14, "velocity": 102}, {"time": 1670, "pitch": 53, "duration": 7, "velocity": 93}, {"time": 1676, "pitch": 57, "duration": 5, "velocity": 100}, {"time": 1676, "pitch": 65, "duration": 5, "velocity": 94}, {"time": 1682, "pitch": 53, "duration": 6, "velocity": 79}, {"time": 1688, "pitch": 43, "duration": 37, "velocity": 82}, {"time": 1688, "pitch": 58, "duration": 14, "velocity": 90}, {"time": 1688, "pitch": 62, "duration": 13, "velocity": 96}, {"time": 1688, "pitch": 67, "duration": 13, "velocity": 94}, {"time": 1700, "pitch": 50, "duration": 25, "velocity": 81}, {"time": 1706, "pitch": 58, "duration": 12, "velocity": 95}, {"time": 1706, "pitch": 62, "duration": 11, "velocity": 96}, {"time": 1706, "pitch": 67, "duration": 11, "velocity": 100}, {"time": 1718, "pitch": 55, "duration": 7, "velocity": 85}, {"time": 1724, "pitch": 58, "duration": 9, "velocity": 97}, {"time": 1724, "pitch": 62, "duration": 9, "velocity": 94}, {"time": 1724, "pitch": 67, "duration": 8, "velocity": 96}, {"time": 1736, "pitch": 38, "duration": 25, "velocity": 96}, {"time": 1736, "pitch": 62, "duration": 17, "velocity": 98}, {"time": 1736, "pitch": 65, "duration": 17, "velocity": 108}, {"time": 1736, "pitch": 69, "duration": 14, "velocity": 98}, {"time": 1754, "pitch": 50, "duration": 9, "velocity": 78}, {"time": 1760, "pitch": 62, "duration": 8, "velocity": 107}, {"time": 1760, "pitch": 65, "duration": 8, "velocity": 114}, {"time": 1760, "pitch": 69, "duration": 8, "velocity": 107}, {"time": 1766, "pitch": 38, "duration": 7, "velocity": 102}, {"time": 1772, "pitch": 62, "duration": 5, "velocity": 98}, {"time": 1772, "pitch": 65, "duration": 6, "velocity": 104}, {"time": 1772, "pitch": 69, "duration": 6, "velocity": 100}, {"time": 1784, "pitch": 39, "duration": 24, "velocity": 89}, {"time": 1784, "pitch": 63, "duration": 14, "velocity": 106}, {"time": 1784, "pitch": 67, "duration": 17, "velocity": 110}, {"time": 1784, "pitch": 70, "duration": 16, "velocity": 103}, {"time": 1796, "pitch": 51, "duration": 11, "velocity": 84}, {"time": 1802, "pitch": 63, "duration": 13, "velocity": 103}, {"time": 1802, "pitch": 67, "duration": 13, "velocity": 110}, {"time": 1802, "pitch": 70, "duration": 14, "velocity": 95}, {"time": 1814, "pitch": 39, "duration": 8, "velocity": 90}, {"time": 1820, "pitch": 63, "duration": 4, "velocity": 93}, {"time": 1820, "pitch": 67, "duration": 6, "velocity": 102}, {"time": 1820, "pitch": 70, "duration": 5, "velocity": 93}, {"time": 1832, "pitch": 41, "duration": 36, "velocity": 89}, {"time": 1832, "pitch": 60, "duration": 13, "velocity": 90}, {"time": 1832, "pitch": 65, "duration": 13, "velocity": 93}, {"time": 1832, "pitch": 69, "duration": 11, "velocity": 91}, {"time": 1838, "pitch": 48, "duration": 31, "velocity": 84}, {"time": 1844, "pitch": 53, "duration": 11, "velocity": 86}, {"time": 1850, "pitch": 60, "duration": 14, "velocity": 96}, {"time": 1850, "pitch": 65, "duration": 15, "velocity": 110}, {"time": 1850, "pitch": 69, "duration": 14, "velocity": 94}, {"time": 1862, "pitch": 53, "duration": 6, "velocity": 91}, {"time": 1868, "pitch": 60, "duration": 4, "velocity": 88}, {"time": 1868, "pitch": 65, "duration": 5, "velocity": 107}, {"time": 1868, "pitch": 69, "duration": 5, "velocity": 93}, {"time": 1880, "pitch": 39, "duration": 24, "velocity": 93}, {"time": 1880, "pitch": 63, "duration": 14, "velocity": 97}, {"time": 1880, "pitch": 67, "duration": 14, "velocity": 113}, {"time": 1880, "pitch": 70, "duration": 15, "velocity": 100}, {"time": 1892, "pitch": 51, "duration": 12, "velocity": 89}, {"time": 1898, "pitch": 63, "duration": 15, "velocity": 106}, {"time": 1898, "pitch": 67, "duration": 13, "velocity": 108}, {"time": 1898, "pitch": 70, "duration": 14, "velocity": 93}, {"time": 1910, "pitch": 39, "duration": 8, "velocity": 109}, {"time": 1916, "pitch": 63, "duration": 5, "velocity": 97}, {"time": 1916, "pitch": 67, "duration": 6, "velocity": 108}, {"time": 1916, "pitch": 70, "duration": 5, "velocity": 106}, {"time": 1928, "pitch": 41, "duration": 38, "velocity": 98}, {"time": 1928, "pitch": 60, "duration": 14, "velocity": 108}, {"time": 1928, "pitch": 65, "duration": 13, "velocity": 113}, {"time": 1928, "pitch": 69, "duration": 13, "velocity": 102}, {"time": 1934, "pitch": 48, "duration": 32, "velocity": 84}, {"time": 1940, "pitch": 53, "duration": 11, "velocity": 88}, {"time": 1946, "pitch": 60, "duration": 13, "velocity": 104}, {"time": 1946, "pitch": 65, "duration": 13, "velocity": 113}, {"time": 1946, "pitch": 69, "duration": 13, "velocity": 98}, {"time": 1958, "pitch": 53, "duration": 7, "velocity": 110}, {"time": 1964, "pitch": 60, "duration": 7, "velocity": 104}, {"time": 1964, "pitch": 65, "duration": 7, "velocity": 114}, {"time": 1964, "pitch": 69, "duration": 8, "velocity": 102}, {"time": 1970, "pitch": 41, "duration": 1, "velocity": 88}, {"time": 1976, "pitch": 62, "duration": 21, "velocity": 104}, {"time": 1976, "pitch": 65, "duration": 20, "velocity": 114}, {"time": 1976, "pitch": 70, "duration": 20, "velocity": 113}, {"time": 1982, "pitch": 46, "duration": 33, "velocity": 103}, {"time": 1988, "pitch": 53, "duration": 20, "velocity": 87}, {"time": 1994, "pitch": 58, "duration": 9, "velocity": 106}, {"time": 2000, "pitch": 62, "duration": 13, "velocity": 108}, {"time": 2000, "pitch": 65, "duration": 13, "velocity": 117}, {"time": 2000, "pitch": 70, "duration": 13, "velocity": 113}, {"time": 2012, "pitch": 58, "duration": 2, "velocity": 113}, {"time": 2018, "pitch": 62, "duration": 8, "velocity": 107}, {"time": 2018, "pitch": 65, "duration": 7, "velocity": 114}, {"time": 2018, "pitch": 70, "duration": 6, "velocity": 106}, {"time": 2024, "pitch": 41, "duration": 39, "velocity": 91}, {"time": 2030, "pitch": 48, "duration": 34, "velocity": 88}, {"time": 2036, "pitch": 53, "duration": 11, "velocity": 100}, {"time": 2042, "pitch": 60, "duration": 14, "velocity": 110}, {"time": 2042, "pitch": 65, "duration": 13, "velocity": 117}, {"time": 2042, "pitch": 69, "duration": 13, "velocity": 110}, {"time": 2054, "pitch": 53, "duration": 11, "velocity": 113}, {"time": 2060, "pitch": 60, "duration": 6, "velocity": 107}, {"time": 2060, "pitch": 65, "duration": 9, "velocity": 114}, {"time": 2060, "pitch": 69, "duration": 6, "velocity": 104}, {"time": 2072, "pitch": 43, "duration": 36, "velocity": 91}, {"time": 2072, "pitch": 62, "duration": 14, "velocity": 107}, {"time": 2072, "pitch": 67, "duration": 13, "velocity": 116}, {"time": 2072, "pitch": 70, "duration": 12, "velocity": 116}, {"time": 2078, "pitch": 50, "duration": 31, "velocity": 86}, {"time": 2084, "pitch": 55, "duration": 9, "velocity": 93}, {"time": 2090, "pitch": 62, "duration": 14, "velocity": 102}, {"time": 2090, "pitch": 67, "duration": 13, "velocity": 116}, {"time": 2090, "pitch": 70, "duration": 12, "velocity": 116}, {"time": 2102, "pitch": 55, "duration": 8, "velocity": 100}, {"time": 2108, "pitch": 62, "duration": 9, "velocity": 108}, {"time": 2108, "pitch": 67, "duration": 10, "velocity": 116}, {"time": 2108, "pitch": 70, "duration": 7, "velocity": 116}, {"time": 2120, "pitch": 38, "duration": 2, "velocity": 100}, {"time": 2120, "pitch": 62, "duration": 14, "velocity": 108}, {"time": 2120, "pitch": 65, "duration": 14, "velocity": 114}, {"time": 2120, "pitch": 69, "duration": 14, "velocity": 110}, {"time": 2132, "pitch": 50, "duration": 12, "velocity": 82}, {"time": 2138, "pitch": 62, "duration": 13, "velocity": 113}, {"time": 2138, "pitch": 65, "duration": 13, "velocity": 117}, {"time": 2138, "pitch": 69, "duration": 13, "velocity": 114}, {"time": 2150, "pitch": 50, "duration": 5, "velocity": 88}, {"time": 2156, "pitch": 62, "duration": 4, "velocity": 110}, {"time": 2156, "pitch": 65, "duration": 5, "velocity": 116}, {"time": 2156, "pitch": 69, "duration": 4, "velocity": 113}, {"time": 2168, "pitch": 39, "duration": 22, "velocity": 87}, {"time": 2168, "pitch": 63, "duration": 13, "velocity": 106}, {"time": 2168, "pitch": 67, "duration": 13, "velocity": 116}, {"time": 2168, "pitch": 70, "duration": 13, "velocity": 103}, {"time": 2180, "pitch": 51, "duration": 9, "velocity": 82}, {"time": 2186, "pitch": 63, "duration": 14, "velocity": 109}, {"time": 2186, "pitch": 67, "duration": 13, "velocity": 117}, {"time": 2186, "pitch": 70, "duration": 13, "velocity": 109}, {"time": 2198, "pitch": 39, "duration": 7, "velocity": 95}, {"time": 2204, "pitch": 63, "duration": 5, "velocity": 100}, {"time": 2204, "pitch": 67, "duration": 9, "velocity": 110}, {"time": 2204, "pitch": 70, "duration": 5, "velocity": 95}, {"time": 2216, "pitch": 41, "duration": 22, "velocity": 96}, {"time": 2216, "pitch": 60, "duration": 13, "velocity": 102}, {"time": 2216, "pitch": 65, "duration": 13, "velocity": 110}, {"time": 2216, "pitch": 69, "duration": 13, "velocity": 104}, {"time": 2228, "pitch": 48, "duration": 10, "velocity": 80}, {"time": 2234, "pitch": 60, "duration": 13, "velocity": 107}, {"time": 2234, "pitch": 65, "duration": 13, "velocity": 114}, {"time": 2234, "pitch": 69, "duration": 13, "velocity": 104}, {"time": 2246, "pitch": 41, "duration": 6, "velocity": 107}, {"time": 2252, "pitch": 60, "duration": 4, "velocity": 100}, {"time": 2252, "pitch": 65, "duration": 6, "velocity": 114}, {"time": 2252, "pitch": 69, "duration": 5, "velocity": 110}, {"time": 2264, "pitch": 39, "duration": 20, "velocity": 88}, {"time": 2264, "pitch": 63, "duration": 14, "velocity": 106}, {"time": 2264, "pitch": 67, "duration": 12, "velocity": 113}, {"time": 2264, "pitch": 70, "duration": 15, "velocity": 109}, {"time": 2276, "pitch": 51, "duration": 8, "velocity": 106}, {"time": 2282, "pitch": 63, "duration": 13, "velocity": 106}, {"time": 2282, "pitch": 67, "duration": 13, "velocity": 114}, {"time": 2282, "pitch": 70, "duration": 14, "velocity": 109}, {"time": 2294, "pitch": 39, "duration": 6, "velocity": 103}, {"time": 2300, "pitch": 63, "duration": 4, "velocity": 103}, {"time": 2300, "pitch": 67, "duration": 9, "velocity": 98}, {"time": 2300, "pitch": 70, "duration": 6, "velocity": 93}, {"time": 2312, "pitch": 41, "duration": 38, "velocity": 98}, {"time": 2312, "pitch": 60, "duration": 38, "velocity": 102}, {"time": 2312, "pitch": 65, "duration": 36, "velocity": 110}, {"time": 2312, "pitch": 69, "duration": 36, "velocity": 104}, {"time": 2357, "pitch": 58, "duration": 15, "velocity": 76}, {"time": 2360, "pitch": 43, "duration": 57, "velocity": 91}, {"time": 2360, "pitch": 62, "duration": 12, "velocity": 65}, {"time": 2360, "pitch": 67, "duration": 12, "velocity": 113}, {"time": 2366, "pitch": 50, "duration": 50, "velocity": 78}, {"time": 2372, "pitch": 55, "duration": 10, "velocity": 88}, {"time": 2378, "pitch": 57, "duration": 11, "velocity": 104}, {"time": 2390, "pitch": 55, "duration": 25, "velocity": 89}, {"time": 2396, "pitch": 62, "duration": 6, "velocity": 82}, {"time": 2402, "pitch": 67, "duration": 7, "velocity": 79}, {"time": 2408, "pitch": 62, "duration": 8, "velocity": 88}, {"time": 2408, "pitch": 70, "duration": 10, "velocity": 100}, {"time": 2456, "pitch": 46, "duration": 26, "velocity": 88}, {"time": 2456, "pitch": 58, "duration": 12, "velocity": 88}, {"time": 2456, "pitch": 62, "duration": 20, "velocity": 93}, {"time": 2456, "pitch": 65, "duration": 20, "velocity": 100}, {"time": 2456, "pitch": 69, "duration": 19, "velocity": 96}, {"time": 2474, "pitch": 58, "duration": 9, "velocity": 85}, {"time": 2480, "pitch": 62, "duration": 14, "velocity": 104}, {"time": 2480, "pitch": 65, "duration": 15, "velocity": 110}, {"time": 2480, "pitch": 69, "duration": 14, "velocity": 102}, {"time": 2492, "pitch": 46, "duration": 2, "velocity": 82}, {"time": 2498, "pitch": 41, "duration": 33, "velocity": 104}, {"time": 2498, "pitch": 53, "duration": 17, "velocity": 90}, {"time": 2498, "pitch": 60, "duration": 26, "velocity": 104}, {"time": 2498, "pitch": 65, "duration": 26, "velocity": 110}, {"time": 2498, "pitch": 69, "duration": 26, "velocity": 100}, {"time": 2522, "pitch": 53, "duration": 8, "velocity": 94}, {"time": 2528, "pitch": 60, "duration": 16, "velocity": 113}, {"time": 2528, "pitch": 65, "duration": 13, "velocity": 116}, {"time": 2528, "pitch": 69, "duration": 12, "velocity": 107}, {"time": 2540, "pitch": 41, "duration": 3, "velocity": 87}, {"time": 2540, "pitch": 53, "duration": 4, "velocity": 88}, {"time": 2546, "pitch": 43, "duration": 38, "velocity": 89}, {"time": 2546, "pitch": 55, "duration": 13, "velocity": 96}, {"time": 2546, "pitch": 58, "duration": 20, "velocity": 100}, {"time": 2546, "pitch": 62, "duration": 18, "velocity": 104}, {"time": 2546, "pitch": 67, "duration": 18, "velocity": 104}, {"time": 2570, "pitch": 55, "duration": 13, "velocity": 90}, {"time": 2570, "pitch": 58, "duration": 9, "velocity": 109}, {"time": 2570, "pitch": 62, "duration": 8, "velocity": 113}, {"time": 2570, "pitch": 67, "duration": 8, "velocity": 104}, {"time": 2594, "pitch": 39, "duration": 32, "velocity": 86}, {"time": 2594, "pitch": 51, "duration": 10, "velocity": 86}, {"time": 2594, "pitch": 58, "duration": 26, "velocity": 100}, {"time": 2594, "pitch": 63, "duration": 27, "velocity": 88}, {"time": 2594, "pitch": 67, "duration": 25, "velocity": 96}, {"time": 2618, "pitch": 51, "duration": 7, "velocity": 86}, {"time": 2624, "pitch": 58, "duration": 10, "velocity": 109}, {"time": 2624, "pitch": 63, "duration": 12, "velocity": 103}, {"time": 2624, "pitch": 67, "duration": 11, "velocity": 110}, {"time": 2636, "pitch": 39, "duration": 2, "velocity": 91}, {"time": 2648, "pitch": 38, "duration": 37, "velocity": 91}, {"time": 2648, "pitch": 50, "duration": 13, "velocity": 88}, {"time": 2648, "pitch": 62, "duration": 20, "velocity": 91}, {"time": 2648, "pitch": 65, "duration": 20, "velocity": 96}, {"time": 2648, "pitch": 69, "duration": 20, "velocity": 91}, {"time": 2666, "pitch": 50, "duration": 9, "velocity": 86}, {"time": 2672, "pitch": 62, "duration": 12, "velocity": 100}, {"time": 2672, "pitch": 65, "duration": 12, "velocity": 108}, {"time": 2672, "pitch": 69, "duration": 12, "velocity": 98}, {"time": 2684, "pitch": 50, "duration": 3, "velocity": 84}, {"time": 2690, "pitch": 39, "duration": 35, "velocity": 83}, {"time": 2690, "pitch": 51, "duration": 13, "velocity": 85}, {"time": 2690, "pitch": 63, "duration": 18, "velocity": 90}, {"time": 2690, "pitch": 67, "duration": 17, "velocity": 107}, {"time": 2690, "pitch": 70, "duration": 19, "velocity": 95}, {"time": 2714, "pitch": 51, "duration": 17, "velocity": 80}, {"time": 2714, "pitch": 63, "duration": 16, "velocity": 91}, {"time": 2714, "pitch": 67, "duration": 15, "velocity": 107}, {"time": 2714, "pitch": 70, "duration": 16, "velocity": 88}, {"time": 2738, "pitch": 41, "duration": 41, "velocity": 87}, {"time": 2738, "pitch": 53, "duration": 43, "velocity": 86}, {"time": 2738, "pitch": 60, "duration": 42, "velocity": 88}, {"time": 2738, "pitch": 65, "duration": 41, "velocity": 92}, {"time": 2738, "pitch": 69, "duration": 40, "velocity": 91}, {"time": 2786, "pitch": 43, "duration": 49, "velocity": 83}, {"time": 2786, "pitch": 55, "duration": 49, "velocity": 84}, {"time": 2786, "pitch": 58, "duration": 49, "velocity": 85}, {"time": 2786, "pitch": 62, "duration": 49, "velocity": 88}, {"time": 2786, "pitch": 67, "duration": 49, "velocity": 88}, {"time": 2840, "pitch": 46, "duration": 39, "velocity": 85}, {"time": 2846, "pitch": 53, "duration": 30, "velocity": 77}, {"time": 2852, "pitch": 58, "duration": 12, "velocity": 84}, {"time": 2858, "pitch": 62, "duration": 20, "velocity": 89}, {"time": 2858, "pitch": 70, "duration": 15, "velocity": 90}, {"time": 2870, "pitch": 58, "duration": 7, "velocity": 84}, {"time": 2882, "pitch": 70, "duration": 4, "velocity": 109}, {"time": 2888, "pitch": 41, "duration": 40, "velocity": 82}, {"time": 2888, "pitch": 69, "duration": 35, "velocity": 107}, {"time": 2894, "pitch": 48, "duration": 35, "velocity": 70}, {"time": 2900, "pitch": 53, "duration": 13, "velocity": 75}, {"time": 2906, "pitch": 60, "duration": 21, "velocity": 87}, {"time": 2918, "pitch": 53, "duration": 14, "velocity": 82}, {"time": 2924, "pitch": 65, "duration": 6, "velocity": 87}, {"time": 2930, "pitch": 69, "duration": 6, "velocity": 88}, {"time": 2936, "pitch": 43, "duration": 38, "velocity": 83}, {"time": 2936, "pitch": 67, "duration": 14, "velocity": 93}, {"time": 2942, "pitch": 50, "duration": 31, "velocity": 80}, {"time": 2948, "pitch": 55, "duration": 25, "velocity": 79}, {"time": 2954, "pitch": 58, "duration": 22, "velocity": 85}, {"time": 2954, "pitch": 67, "duration": 15, "velocity": 93}, {"time": 2972, "pitch": 62, "duration": 18, "velocity": 89}, {"time": 2978, "pitch": 67, "duration": 12, "velocity": 84}, {"time": 2984, "pitch": 39, "duration": 38, "velocity": 84}, {"time": 2990, "pitch": 51, "duration": 20, "velocity": 83}, {"time": 2996, "pitch": 58, "duration": 8, "velocity": 81}, {"time": 3002, "pitch": 63, "duration": 17, "velocity": 90}, {"time": 3014, "pitch": 51, "duration": 10, "velocity": 85}, {"time": 3020, "pitch": 58, "duration": 9, "velocity": 100}, {"time": 3026, "pitch": 63, "duration": 7, "velocity": 81}, {"time": 3032, "pitch": 43, "duration": 40, "velocity": 86}, {"time": 3038, "pitch": 50, "duration": 33, "velocity": 80}, {"time": 3044, "pitch": 55, "duration": 10, "velocity": 86}, {"time": 3050, "pitch": 58, "duration": 22, "velocity": 89}, {"time": 3050, "pitch": 67, "duration": 16, "velocity": 94}, {"time": 3062, "pitch": 55, "duration": 7, "velocity": 84}, {"time": 3068, "pitch": 62, "duration": 7, "velocity": 86}, {"time": 3074, "pitch": 67, "duration": 7, "velocity": 83}, {"time": 3080, "pitch": 41, "duration": 39, "velocity": 62}, {"time": 3080, "pitch": 65, "duration": 17, "velocity": 92}, {"time": 3086, "pitch": 48, "duration": 36, "velocity": 73}, {"time": 3092, "pitch": 53, "duration": 10, "velocity": 84}, {"time": 3098, "pitch": 57, "duration": 18, "velocity": 86}, {"time": 3098, "pitch": 65, "duration": 12, "velocity": 86}, {"time": 3110, "pitch": 53, "duration": 14, "velocity": 81}, {"time": 3116, "pitch": 60, "duration": 11, "velocity": 82}, {"time": 3122, "pitch": 57, "duration": 5, "velocity": 79}, {"time": 3128, "pitch": 43, "duration": 42, "velocity": 88}, {"time": 3134, "pitch": 50, "duration": 31, "velocity": 80}, {"time": 3140, "pitch": 55, "duration": 9, "velocity": 84}, {"time": 3146, "pitch": 58, "duration": 19, "velocity": 87}, {"time": 3146, "pitch": 67, "duration": 12, "velocity": 90}, {"time": 3155, "pitch": 55, "duration": 13, "velocity": 78}, {"time": 3164, "pitch": 62, "duration": 6, "velocity": 87}, {"time": 3170, "pitch": 50, "duration": 6, "velocity": 72}, {"time": 3176, "pitch": 43, "duration": 36, "velocity": 87}, {"time": 3176, "pitch": 55, "duration": 13, "velocity": 86}, {"time": 3176, "pitch": 58, "duration": 20, "velocity": 87}, {"time": 3176, "pitch": 67, "duration": 19, "velocity": 89}, {"time": 3194, "pitch": 50, "duration": 9, "velocity": 87}, {"time": 3200, "pitch": 58, "duration": 13, "velocity": 109}, {"time": 3200, "pitch": 67, "duration": 8, "velocity": 96}, {"time": 3206, "pitch": 50, "duration": 6, "velocity": 84}, {"time": 3212, "pitch": 62, "duration": 6, "velocity": 100}, {"time": 3218, "pitch": 67, "duration": 6, "velocity": 88}, {"time": 3224, "pitch": 46, "duration": 39, "velocity": 82}, {"time": 3224, "pitch": 62, "duration": 9, "velocity": 89}, {"time": 3224, "pitch": 65, "duration": 11, "velocity": 88}, {"time": 3230, "pitch": 53, "duration": 31, "velocity": 72}, {"time": 3236, "pitch": 58, "duration": 10, "velocity": 83}, {"time": 3242, "pitch": 62, "duration": 14, "velocity": 94}, {"time": 3242, "pitch": 70, "duration": 14, "velocity": 106}, {"time": 3254, "pitch": 58, "duration": 7, "velocity": 86}, {"time": 3260, "pitch": 62, "duration": 8, "velocity": 107}, {"time": 3260, "pitch": 70, "duration": 10, "velocity": 103}, {"time": 3272, "pitch": 41, "duration": 43, "velocity": 86}, {"time": 3272, "pitch": 60, "duration": 13, "velocity": 90}, {"time": 3272, "pitch": 69, "duration": 6, "velocity": 104}, {"time": 3278, "pitch": 48, "duration": 43, "velocity": 73}, {"time": 3284, "pitch": 53, "duration": 8, "velocity": 84}, {"time": 3284, "pitch": 60, "duration": 1, "velocity": 38}, {"time": 3290, "pitch": 57, "duration": 15, "velocity": 102}, {"time": 3290, "pitch": 65, "duration": 14, "velocity": 102}, {"time": 3302, "pitch": 53, "duration": 7, "velocity": 93}, {"time": 3308, "pitch": 57, "duration": 5, "velocity": 100}, {"time": 3308, "pitch": 65, "duration": 5, "velocity": 94}, {"time": 3314, "pitch": 53, "duration": 6, "velocity": 79}, {"time": 3320, "pitch": 43, "duration": 37, "velocity": 82}, {"time": 3320, "pitch": 58, "duration": 14, "velocity": 90}, {"time": 3320, "pitch": 62, "duration": 13, "velocity": 96}, {"time": 3320, "pitch": 67, "duration": 13, "velocity": 94}, {"time": 3332, "pitch": 50, "duration": 25, "velocity": 81}, {"time": 3338, "pitch": 58, "duration": 12, "velocity": 95}, {"time": 3338, "pitch": 62, "duration": 11, "velocity": 96}, {"time": 3338, "pitch": 67, "duration": 11, "velocity": 100}, {"time": 3350, "pitch": 55, "duration": 7, "velocity": 85}, {"time": 3356, "pitch": 58, "duration": 9, "velocity": 97}, {"time": 3356, "pitch": 62, "duration": 9, "velocity": 94}, {"time": 3356, "pitch": 67, "duration": 8, "velocity": 96}, {"time": 3368, "pitch": 38, "duration": 25, "velocity": 96}, {"time": 3368, "pitch": 62, "duration": 17, "velocity": 98}, {"time": 3368, "pitch": 65, "duration": 17, "velocity": 108}, {"time": 3368, "pitch": 69, "duration": 14, "velocity": 98}, {"time": 3386, "pitch": 50, "duration": 9, "velocity": 78}, {"time": 3392, "pitch": 62, "duration": 8, "velocity": 107}, {"time": 3392, "pitch": 65, "duration": 8, "velocity": 114}, {"time": 3392, "pitch": 69, "duration": 8, "velocity": 107}, {"time": 3398, "pitch": 38, "duration": 7, "velocity": 102}, {"time": 3404, "pitch": 62, "duration": 5, "velocity": 98}, {"time": 3404, "pitch": 65, "duration": 6, "velocity": 104}, {"time": 3404, "pitch": 69, "duration": 6, "velocity": 100}, {"time": 3416, "pitch": 39, "duration": 24, "velocity": 89}, {"time": 3416, "pitch": 63, "duration": 14, "velocity": 106}, {"time": 3416, "pitch": 67, "duration": 17, "velocity": 110}, {"time": 3416, "pitch": 70, "duration": 16, "velocity": 103}, {"time": 3428, "pitch": 51, "duration": 11, "velocity": 84}, {"time": 3434, "pitch": 63, "duration": 13, "velocity": 103}, {"time": 3434, "pitch": 67, "duration": 13, "velocity": 110}, {"time": 3434, "pitch": 70, "duration": 14, "velocity": 95}, {"time": 3446, "pitch": 39, "duration": 8, "velocity": 90}, {"time": 3452, "pitch": 63, "duration": 4, "velocity": 93}, {"time": 3452, "pitch": 67, "duration": 6, "velocity": 102}, {"time": 3452, "pitch": 70, "duration": 5, "velocity": 93}, {"time": 3464, "pitch": 41, "duration": 36, "velocity": 89}, {"time": 3464, "pitch": 60, "duration": 13, "velocity": 90}, {"time": 3464, "pitch": 65, "duration": 13, "velocity": 93}, {"time": 3464, "pitch": 69, "duration": 11, "velocity": 91}, {"time": 3470, "pitch": 48, "duration": 31, "velocity": 84}, {"time": 3476, "pitch": 53, "duration": 11, "velocity": 86}, {"time": 3482, "pitch": 60, "duration": 14, "velocity": 96}, {"time": 3482, "pitch": 65, "duration": 15, "velocity": 110}, {"time": 3482, "pitch": 69, "duration": 14, "velocity": 94}, {"time": 3494, "pitch": 53, "duration": 6, "velocity": 91}, {"time": 3500, "pitch": 60, "duration": 4, "velocity": 88}, {"time": 3500, "pitch": 65, "duration": 5, "velocity": 107}, {"time": 3500, "pitch": 69, "duration": 5, "velocity": 93}, {"time": 3512, "pitch": 39, "duration": 24, "velocity": 93}, {"time": 3512, "pitch": 63, "duration": 14, "velocity": 97}, {"time": 3512, "pitch": 67, "duration": 14, "velocity": 113}, {"time": 3512, "pitch": 70, "duration": 15, "velocity": 100}, {"time": 3524, "pitch": 51, "duration": 12, "velocity": 89}, {"time": 3530, "pitch": 63, "duration": 15, "velocity": 106}, {"time": 3530, "pitch": 67, "duration": 13, "velocity": 108}, {"time": 3530, "pitch": 70, "duration": 14, "velocity": 93}, {"time": 3542, "pitch": 39, "duration": 8, "velocity": 109}, {"time": 3548, "pitch": 63, "duration": 5, "velocity": 97}, {"time": 3548, "pitch": 67, "duration": 6, "velocity": 108}, {"time": 3548, "pitch": 70, "duration": 5, "velocity": 106}, {"time": 3560, "pitch": 41, "duration": 38, "velocity": 98}, {"time": 3560, "pitch": 60, "duration": 14, "velocity": 108}, {"time": 3560, "pitch": 65, "duration": 13, "velocity": 113}, {"time": 3560, "pitch": 69, "duration": 13, "velocity": 102}, {"time": 3566, "pitch": 48, "duration": 32, "velocity": 84}, {"time": 3572, "pitch": 53, "duration": 11, "velocity": 88}, {"time": 3578, "pitch": 60, "duration": 13, "velocity": 104}, {"time": 3578, "pitch": 65, "duration": 13, "velocity": 113}, {"time": 3578, "pitch": 69, "duration": 13, "velocity": 98}, {"time": 3590, "pitch": 53, "duration": 7, "velocity": 110}, {"time": 3596, "pitch": 60, "duration": 7, "velocity": 104}, {"time": 3596, "pitch": 65, "duration": 7, "velocity": 114}, {"time": 3596, "pitch": 69, "duration": 8, "velocity": 102}, {"time": 3602, "pitch": 41, "duration": 1, "velocity": 88}, {"time": 3608, "pitch": 62, "duration": 21, "velocity": 104}, {"time": 3608, "pitch": 65, "duration": 20, "velocity": 114}, {"time": 3608, "pitch": 70, "duration": 20, "velocity": 113}, {"time": 3614, "pitch": 46, "duration": 33, "velocity": 103}, {"time": 3620, "pitch": 53, "duration": 20, "velocity": 87}, {"time": 3626, "pitch": 58, "duration": 9, "velocity": 106}, {"time": 3632, "pitch": 62, "duration": 13, "velocity": 108}, {"time": 3632, "pitch": 65, "duration": 13, "velocity": 117}, {"time": 3632, "pitch": 70, "duration": 13, "velocity": 113}, {"time": 3644, "pitch": 58, "duration": 2, "velocity": 113}, {"time": 3650, "pitch": 62, "duration": 8, "velocity": 107}, {"time": 3650, "pitch": 65, "duration": 7, "velocity": 114}, {"time": 3650, "pitch": 70, "duration": 6, "velocity": 106}, {"time": 3656, "pitch": 41, "duration": 39, "velocity": 91}, {"time": 3662, "pitch": 48, "duration": 34, "velocity": 88}, {"time": 3668, "pitch": 53, "duration": 11, "velocity": 100}, {"time": 3674, "pitch": 60, "duration": 14, "velocity": 110}, {"time": 3674, "pitch": 65, "duration": 13, "velocity": 117}, {"time": 3674, "pitch": 69, "duration": 13, "velocity": 110}, {"time": 3686, "pitch": 53, "duration": 11, "velocity": 113}, {"time": 3692, "pitch": 60, "duration": 6, "velocity": 107}, {"time": 3692, "pitch": 65, "duration": 9, "velocity": 114}, {"time": 3692, "pitch": 69, "duration": 6, "velocity": 104}, {"time": 3704, "pitch": 43, "duration": 36, "velocity": 91}, {"time": 3704, "pitch": 62, "duration": 14, "velocity": 107}, {"time": 3704, "pitch": 67, "duration": 13, "velocity": 116}, {"time": 3704, "pitch": 70, "duration": 12, "velocity": 116}, {"time": 3710, "pitch": 50, "duration": 31, "velocity": 86}, {"time": 3716, "pitch": 55, "duration": 9, "velocity": 93}, {"time": 3722, "pitch": 62, "duration": 14, "velocity": 102}, {"time": 3722, "pitch": 67, "duration": 13, "velocity": 116}, {"time": 3722, "pitch": 70, "duration": 12, "velocity": 116}, {"time": 3734, "pitch": 55, "duration": 8, "velocity": 100}, {"time": 3740, "pitch": 62, "duration": 9, "velocity": 108}, {"time": 3740, "pitch": 67, "duration": 10, "velocity": 116}, {"time": 3740, "pitch": 70, "duration": 7, "velocity": 116}, {"time": 3752, "pitch": 38, "duration": 2, "velocity": 100}, {"time": 3752, "pitch": 62, "duration": 14, "velocity": 108}, {"time": 3752, "pitch": 65, "duration": 14, "velocity": 114}, {"time": 3752, "pitch": 69, "duration": 14, "velocity": 110}, {"time": 3764, "pitch": 50, "duration": 12, "velocity": 82}, {"time": 3770, "pitch": 62, "duration": 13, "velocity": 113}, {"time": 3770, "pitch": 65, "duration": 13, "velocity": 117}, {"time": 3770, "pitch": 69, "duration": 13, "velocity": 114}, {"time": 3782, "pitch": 50, "duration": 5, "velocity": 88}, {"time": 3788, "pitch": 62, "duration": 4, "velocity": 110}, {"time": 3788, "pitch": 65, "duration": 5, "velocity": 116}, {"time": 3788, "pitch": 69, "duration": 4, "velocity": 113}, {"time": 3800, "pitch": 39, "duration": 22, "velocity": 87}, {"time": 3800, "pitch": 63, "duration": 13, "velocity": 106}, {"time": 3800, "pitch": 67, "duration": 13, "velocity": 116}, {"time": 3800, "pitch": 70, "duration": 13, "velocity": 103}, {"time": 3812, "pitch": 51, "duration": 9, "velocity": 82}, {"time": 3818, "pitch": 63, "duration": 14, "velocity": 109}, {"time": 3818, "pitch": 67, "duration": 13, "velocity": 117}, {"time": 3818, "pitch": 70, "duration": 13, "velocity": 109}, {"time": 3830, "pitch": 39, "duration": 7, "velocity": 95}, {"time": 3836, "pitch": 63, "duration": 5, "velocity": 100}, {"time": 3836, "pitch": 67, "duration": 9, "velocity": 110}, {"time": 3836, "pitch": 70, "duration": 5, "velocity": 95}, {"time": 3848, "pitch": 41, "duration": 22, "velocity": 96}, {"time": 3848, "pitch": 60, "duration": 13, "velocity": 102}, {"time": 3848, "pitch": 65, "duration": 13, "velocity": 110}, {"time": 3848, "pitch": 69, "duration": 13, "velocity": 104}, {"time": 3860, "pitch": 48, "duration": 10, "velocity": 80}, {"time": 3866, "pitch": 60, "duration": 13, "velocity": 107}, {"time": 3866, "pitch": 65, "duration": 13, "velocity": 114}, {"time": 3866, "pitch": 69, "duration": 13, "velocity": 104}, {"time": 3878, "pitch": 41, "duration": 6, "velocity": 107}, {"time": 3884, "pitch": 60, "duration": 4, "velocity": 100}, {"time": 3884, "pitch": 65, "duration": 6, "velocity": 114}, {"time": 3884, "pitch": 69, "duration": 5, "velocity": 110}, {"time": 3896, "pitch": 39, "duration": 20, "velocity": 88}, {"time": 3896, "pitch": 63, "duration": 14, "velocity": 106}, {"time": 3896, "pitch": 67, "duration": 12, "velocity": 113}, {"time": 3896, "pitch": 70, "duration": 15, "velocity": 109}, {"time": 3908, "pitch": 51, "duration": 8, "velocity": 106}, {"time": 3914, "pitch": 63, "duration": 13, "velocity": 106}, {"time": 3914, "pitch": 67, "duration": 13, "velocity": 114}, {"time": 3914, "pitch": 70, "duration": 14, "velocity": 109}, {"time": 3926, "pitch": 39, "duration": 6, "velocity": 103}, {"time": 3932, "pitch": 63, "duration": 4, "velocity": 103}, {"time": 3932, "pitch": 67, "duration": 9, "velocity": 98}, {"time": 3932, "pitch": 70, "duration": 6, "velocity": 93}, {"time": 3944, "pitch": 41, "duration": 38, "velocity": 98}, {"time": 3944, "pitch": 60, "duration": 38, "velocity": 102}, {"time": 3944, "pitch": 65, "duration": 36, "velocity": 110}, {"time": 3944, "pitch": 69, "duration": 36, "velocity": 104}, {"time": 3989, "pitch": 58, "duration": 15, "velocity": 76}, {"time": 3992, "pitch": 43, "duration": 57, "velocity": 91}, {"time": 3992, "pitch": 62, "duration": 12, "velocity": 65}, {"time": 3992, "pitch": 67, "duration": 12, "velocity": 113}, {"time": 3998, "pitch": 50, "duration": 50, "velocity": 78}, {"time": 4004, "pitch": 55, "duration": 10, "velocity": 88}, {"time": 4010, "pitch": 57, "duration": 11, "velocity": 104}, {"time": 4022, "pitch": 55, "duration": 25, "velocity": 89}, {"time": 4028, "pitch": 62, "duration": 6, "velocity": 82}, {"time": 4034, "pitch": 67, "duration": 7, "velocity": 79}, {"time": 4040, "pitch": 62, "duration": 8, "velocity": 88}, {"time": 4040, "pitch": 70, "duration": 10, "velocity": 100}, {"time": 4088, "pitch": 46, "duration": 39, "velocity": 82}, {"time": 4088, "pitch": 62, "duration": 9, "velocity": 89}, {"time": 4088, "pitch": 65, "duration": 11, "velocity": 88}, {"time": 4094, "pitch": 53, "duration": 31, "velocity": 72}, {"time": 4100, "pitch": 58, "duration": 10, "velocity": 83}, {"time": 4106, "pitch": 62, "duration": 14, "velocity": 94}, {"time": 4106, "pitch": 70, "duration": 14, "velocity": 106}, {"time": 4118, "pitch": 58, "duration": 7, "velocity": 86}, {"time": 4124, "pitch": 62, "duration": 8, "velocity": 107}, {"time": 4124, "pitch": 70, "duration": 10, "velocity": 103}, {"time": 4136, "pitch": 41, "duration": 43, "velocity": 86}, {"time": 4136, "pitch": 60, "duration": 13, "velocity": 90}, {"time": 4136, "pitch": 69, "duration": 6, "velocity": 104}, {"time": 4142, "pitch": 48, "duration": 43, "velocity": 73}, {"time": 4148, "pitch": 53, "duration": 8, "velocity": 84}, {"time": 4148, "pitch": 60, "duration": 1, "velocity": 38}, {"time": 4154, "pitch": 57, "duration": 15, "velocity": 102}, {"time": 4154, "pitch": 65, "duration": 14, "velocity": 102}, {"time": 4166, "pitch": 53, "duration": 7, "velocity": 93}, {"time": 4172, "pitch": 57, "duration": 5, "velocity": 100}, {"time": 4172, "pitch": 65, "duration": 5, "velocity": 94}, {"time": 4178, "pitch": 53, "duration": 6, "velocity": 79}, {"time": 4184, "pitch": 43, "duration": 37, "velocity": 82}, {"time": 4184, "pitch": 58, "duration": 14, "velocity": 90}, {"time": 4184, "pitch": 62, "duration": 13, "velocity": 96}, {"time": 4184, "pitch": 67, "duration": 13, "velocity": 94}, {"time": 4196, "pitch": 50, "duration": 25, "velocity": 81}, {"time": 4202, "pitch": 58, "duration": 12, "velocity": 95}, {"time": 4202, "pitch": 62, "duration": 11, "velocity": 96}, {"time": 4202, "pitch": 67, "duration": 11, "velocity": 100}, {"time": 4214, "pitch": 55, "duration": 7, "velocity": 85}, {"time": 4220, "pitch": 58, "duration": 9, "velocity": 97}, {"time": 4220, "pitch": 62, "duration": 9, "velocity": 94}, {"time": 4220, "pitch": 67, "duration": 8, "velocity": 96}, {"time": 4232, "pitch": 38, "duration": 25, "velocity": 96}, {"time": 4232, "pitch": 62, "duration": 17, "velocity": 98}, {"time": 4232, "pitch": 65, "duration": 17, "velocity": 108}, {"time": 4232, "pitch": 69, "duration": 14, "velocity": 98}, {"time": 4250, "pitch": 50, "duration": 9, "velocity": 78}, {"time": 4256, "pitch": 62, "duration": 8, "velocity": 107}, {"time": 4256, "pitch": 65, "duration": 8, "velocity": 114}, {"time": 4256, "pitch": 69, "duration": 8, "velocity": 107}, {"time": 4262, "pitch": 38, "duration": 7, "velocity": 102}, {"time": 4268, "pitch": 62, "duration": 5, "velocity": 98}, {"time": 4268, "pitch": 65, "duration": 6, "velocity": 104}, {"time": 4268, "pitch": 69, "duration": 6, "velocity": 100}, {"time": 4280, "pitch": 39, "duration": 24, "velocity": 89}, {"time": 4280, "pitch": 63, "duration": 14, "velocity": 106}, {"time": 4280, "pitch": 67, "duration": 17, "velocity": 110}, {"time": 4280, "pitch": 70, "duration": 16, "velocity": 103}, {"time": 4292, "pitch": 51, "duration": 11, "velocity": 84}, {"time": 4298, "pitch": 63, "duration": 13, "velocity": 103}, {"time": 4298, "pitch": 67, "duration": 13, "velocity": 110}, {"time": 4298, "pitch": 70, "duration": 14, "velocity": 95}, {"time": 4310, "pitch": 39, "duration": 8, "velocity": 90}, {"time": 4316, "pitch": 63, "duration": 4, "velocity": 93}, {"time": 4316, "pitch": 67, "duration": 6, "velocity": 102}, {"time": 4316, "pitch": 70, "duration": 5, "velocity": 93}, {"time": 4328, "pitch": 41, "duration": 36, "velocity": 89}, {"time": 4328, "pitch": 60, "duration": 13, "velocity": 90}, {"time": 4328, "pitch": 65, "duration": 13, "velocity": 93}, {"time": 4328, "pitch": 69, "duration": 11, "velocity": 91}, {"time": 4334, "pitch": 48, "duration": 31, "velocity": 84}, {"time": 4340, "pitch": 53, "duration": 11, "velocity": 86}, {"time": 4346, "pitch": 60, "duration": 14, "velocity": 96}, {"time": 4346, "pitch": 65, "duration": 15, "velocity": 110}, {"time": 4346, "pitch": 69, "duration": 14, "velocity": 94}, {"time": 4358, "pitch": 53, "duration": 6, "velocity": 91}, {"time": 4364, "pitch": 60, "duration": 4, "velocity": 88}, {"time": 4364, "pitch": 65, "duration": 5, "velocity": 107}, {"time": 4364, "pitch": 69, "duration": 5, "velocity": 93}, {"time": 4376, "pitch": 39, "duration": 24, "velocity": 93}, {"time": 4376, "pitch": 63, "duration": 14, "velocity": 97}, {"time": 4376, "pitch": 67, "duration": 14, "velocity": 113}, {"time": 4376, "pitch": 70, "duration": 15, "velocity": 100}, {"time": 4388, "pitch": 51, "duration": 12, "velocity": 89}, {"time": 4394, "pitch": 63, "duration": 15, "velocity": 106}, {"time": 4394, "pitch": 67, "duration": 13, "velocity": 108}, {"time": 4394, "pitch": 70, "duration": 14, "velocity": 93}, {"time": 4406, "pitch": 39, "duration": 8, "velocity": 109}, {"time": 4412, "pitch": 63, "duration": 5, "velocity": 97}, {"time": 4412, "pitch": 67, "duration": 6, "velocity": 108}, {"time": 4412, "pitch": 70, "duration": 5, "velocity": 106}, {"time": 4424, "pitch": 41, "duration": 38, "velocity": 98}, {"time": 4424, "pitch": 60, "duration": 14, "velocity": 108}, {"time": 4424, "pitch": 65, "duration": 13, "velocity": 113}, {"time": 4424, "pitch": 69, "duration": 13, "velocity": 102}, {"time": 4430, "pitch": 48, "duration": 32, "velocity": 84}, {"time": 4436, "pitch": 53, "duration": 11, "velocity": 88}, {"time": 4442, "pitch": 60, "duration": 13, "velocity": 104}, {"time": 4442, "pitch": 65, "duration": 13, "velocity": 113}, {"time": 4442, "pitch": 69, "duration": 13, "velocity": 98}, {"time": 4454, "pitch": 53, "duration": 7, "velocity": 110}, {"time": 4460, "pitch": 60, "duration": 7, "velocity": 104}, {"time": 4460, "pitch": 65, "duration": 7, "velocity": 114}, {"time": 4460, "pitch": 69, "duration": 8, "velocity": 102}, {"time": 4466, "pitch": 41, "duration": 1, "velocity": 88}, {"time": 4472, "pitch": 62, "duration": 21, "velocity": 104}, {"time": 4472, "pitch": 65, "duration": 20, "velocity": 114}, {"time": 4472, "pitch": 70, "duration": 20, "velocity": 113}, {"time": 4478, "pitch": 46, "duration": 33, "velocity": 103}, {"time": 4484, "pitch": 53, "duration": 20, "velocity": 87}, {"time": 4490, "pitch": 58, "duration": 9, "velocity": 106}, {"time": 4496, "pitch": 62, "duration": 13, "velocity": 108}, {"time": 4496, "pitch": 65, "duration": 13, "velocity": 117}, {"time": 4496, "pitch": 70, "duration": 13, "velocity": 113}, {"time": 4508, "pitch": 58, "duration": 2, "velocity": 113}, {"time": 4514, "pitch": 62, "duration": 8, "velocity": 107}, {"time": 4514, "pitch": 65, "duration": 7, "velocity": 114}, {"time": 4514, "pitch": 70, "duration": 6, "velocity": 106}, {"time": 4520, "pitch": 41, "duration": 39, "velocity": 91}, {"time": 4526, "pitch": 48, "duration": 34, "velocity": 88}, {"time": 4532, "pitch": 53, "duration": 11, "velocity": 100}, {"time": 4538, "pitch": 60, "duration": 14, "velocity": 110}, {"time": 4538, "pitch": 65, "duration": 13, "velocity": 117}, {"time": 4538, "pitch": 69, "duration": 13, "velocity": 110}, {"time": 4550, "pitch": 53, "duration": 11, "velocity": 113}, {"time": 4556, "pitch": 60, "duration": 6, "velocity": 107}, {"time": 4556, "pitch": 65, "duration": 9, "velocity": 114}, {"time": 4556, "pitch": 69, "duration": 6, "velocity": 104}, {"time": 4568, "pitch": 43, "duration": 36, "velocity": 91}, {"time": 4568, "pitch": 62, "duration": 14, "velocity": 107}, {"time": 4568, "pitch": 67, "duration": 13, "velocity": 116}, {"time": 4568, "pitch": 70, "duration": 12, "velocity": 116}, {"time": 4574, "pitch": 50, "duration": 31, "velocity": 86}, {"time": 4580, "pitch": 55, "duration": 9, "velocity": 93}, {"time": 4586, "pitch": 62, "duration": 14, "velocity": 102}, {"time": 4586, "pitch": 67, "duration": 13, "velocity": 116}, {"time": 4586, "pitch": 70, "duration": 12, "velocity": 116}, {"time": 4598, "pitch": 55, "duration": 8, "velocity": 100}, {"time": 4604, "pitch": 62, "duration": 9, "velocity": 108}, {"time": 4604, "pitch": 67, "duration": 10, "velocity": 116}, {"time": 4604, "pitch": 70, "duration": 7, "velocity": 116}, {"time": 4616, "pitch": 38, "duration": 2, "velocity": 100}, {"time": 4616, "pitch": 62, "duration": 14, "velocity": 108}, {"time": 4616, "pitch": 65, "duration": 14, "velocity": 114}, {"time": 4616, "pitch": 69, "duration": 14, "velocity": 110}, {"time": 4628, "pitch": 50, "duration": 12, "velocity": 82}, {"time": 4634, "pitch": 62, "duration": 13, "velocity": 113}, {"time": 4634, "pitch": 65, "duration": 13, "velocity": 117}, {"time": 4634, "pitch": 69, "duration": 13, "velocity": 114}, {"time": 4646, "pitch": 50, "duration": 5, "velocity": 88}, {"time": 4652, "pitch": 62, "duration": 4, "velocity": 110}, {"time": 4652, "pitch": 65, "duration": 5, "velocity": 116}, {"time": 4652, "pitch": 69, "duration": 4, "velocity": 113}, {"time": 4664, "pitch": 39, "duration": 22, "velocity": 87}, {"time": 4664, "pitch": 63, "duration": 13, "velocity": 106}, {"time": 4664, "pitch": 67, "duration": 13, "velocity": 116}, {"time": 4664, "pitch": 70, "duration": 13, "velocity": 103}, {"time": 4676, "pitch": 51, "duration": 9, "velocity": 82}, {"time": 4682, "pitch": 63, "duration": 14, "velocity": 109}, {"time": 4682, "pitch": 67, "duration": 13, "velocity": 117}, {"time": 4682, "pitch": 70, "duration": 13, "velocity": 109}, {"time": 4694, "pitch": 39, "duration": 7, "velocity": 95}, {"time": 4700, "pitch": 63, "duration": 5, "velocity": 100}, {"time": 4700, "pitch": 67, "duration": 9, "velocity": 110}, {"time": 4700, "pitch": 70, "duration": 5, "velocity": 95}, {"time": 4712, "pitch": 41, "duration": 22, "velocity": 96}, {"time": 4712, "pitch": 60, "duration": 13, "velocity": 102}, {"time": 4712, "pitch": 65, "duration": 13, "velocity": 110}, {"time": 4712, "pitch": 69, "duration": 13, "velocity": 104}, {"time": 4724, "pitch": 48, "duration": 10, "velocity": 80}, {"time": 4730, "pitch": 60, "duration": 13, "velocity": 107}, {"time": 4730, "pitch": 65, "duration": 13, "velocity": 114}, {"time": 4730, "pitch": 69, "duration": 13, "velocity": 104}, {"time": 4742, "pitch": 41, "duration": 6, "velocity": 107}, {"time": 4748, "pitch": 60, "duration": 4, "velocity": 100}, {"time": 4748, "pitch": 65, "duration": 6, "velocity": 114}, {"time": 4748, "pitch": 69, "duration": 5, "velocity": 110}, {"time": 4760, "pitch": 39, "duration": 20, "velocity": 88}, {"time": 4760, "pitch": 63, "duration": 14, "velocity": 106}, {"time": 4760, "pitch": 67, "duration": 12, "velocity": 113}, {"time": 4760, "pitch": 70, "duration": 15, "velocity": 109}, {"time": 4772, "pitch": 51, "duration": 8, "velocity": 106}, {"time": 4778, "pitch": 63, "duration": 13, "velocity": 106}, {"time": 4778, "pitch": 67, "duration": 13, "velocity": 114}, {"time": 4778, "pitch": 70, "duration": 14, "velocity": 109}, {"time": 4790, "pitch": 39, "duration": 6, "velocity": 103}, {"time": 4796, "pitch": 63, "duration": 4, "velocity": 103}, {"time": 4796, "pitch": 67, "duration": 9, "velocity": 98}, {"time": 4796, "pitch": 70, "duration": 6, "velocity": 93}, {"time": 4808, "pitch": 41, "duration": 38, "velocity": 98}, {"time": 4808, "pitch": 60, "duration": 38, "velocity": 102}, {"time": 4808, "pitch": 65, "duration": 36, "velocity": 110}, {"time": 4808, "pitch": 69, "duration": 36, "velocity": 104}, {"time": 4856, "pitch": 43, "duration": 46, "velocity": 91}, {"time": 4856, "pitch": 58, "duration": 15, "velocity": 76}, {"time": 4856, "pitch": 62, "duration": 12, "velocity": 65}, {"time": 4856, "pitch": 67, "duration": 12, "velocity": 113}, {"time": 4862, "pitch": 50, "duration": 39, "velocity": 78}, {"time": 4868, "pitch": 55, "duration": 10, "velocity": 88}, {"time": 4874, "pitch": 57, "duration": 11, "velocity": 104}, {"time": 4886, "pitch": 55, "duration": 14, "velocity": 89}, {"time": 4904, "pitch": 43, "duration": 44, "velocity": 87}, {"time": 4904, "pitch": 55, "duration": 44, "velocity": 82}, {"time": 4904, "pitch": 60, "duration": 43, "velocity": 92}, {"time": 4904, "pitch": 63, "duration": 46, "velocity": 103}, {"time": 4904, "pitch": 67, "duration": 43, "velocity": 93}, {"time": 4952, "pitch": 43, "duration": 41, "velocity": 83}, {"time": 4952, "pitch": 55, "duration": 42, "velocity": 83}, {"time": 4952, "pitch": 62, "duration": 43, "velocity": 88}, {"time": 4952, "pitch": 67, "duration": 44, "velocity": 91}, {"time": 4952, "pitch": 70, "duration": 39, "velocity": 87}, {"time": 5000, "pitch": 43, "duration": 42, "velocity": 85}, {"time": 5000, "pitch": 55, "duration": 44, "velocity": 85}, {"time": 5000, "pitch": 60, "duration": 44, "velocity": 87}, {"time": 5000, "pitch": 63, "duration": 46, "velocity": 93}, {"time": 5000, "pitch": 67, "duration": 45, "velocity": 89}, {"time": 5048, "pitch": 43, "duration": 72, "velocity": 83}, {"time": 5048, "pitch": 55, "duration": 72, "velocity": 87}, {"time": 5048, "pitch": 62, "duration": 44, "velocity": 86}, {"time": 5048, "pitch": 67, "duration": 72, "velocity": 90}, {"time": 5048, "pitch": 70, "duration": 42, "velocity": 84}, {"time": 5096, "pitch": 62, "duration": 22, "velocity": 71}, {"time": 5096, "pitch": 70, "duration": 23, "velocity": 79}], "annotations": [{"time": 826, "annotation": {"number": 64, "value": 38}, "group": "control_change"}, {"time": 827, "annotation": {"number": 64, "value": 127}, "group": "control_change"}, {"time": 870, "annotation": {"number": 64, "value": 0}, "group": "control_change"}, {"time": 872, "annotation": {"number": 64, "value": 127}, "group": "control_change"}, {"time": 918, "annotation": {"number": 64, "value": 74}, "group": "control_change"}, {"time": 918, "annotation": {"number": 64, "value": 38}, "group": "control_change"}, {"time": 918, "annotation": {"number": 64, "value": 0}, "group": "control_change"}, {"time": 920, "annotation": {"number": 64, "value": 127}, "group": "control_change"}, {"time": 967, "annotation": {"number": 64, "value": 0}, "group": "control_change"}, {"time": 968, "annotation": {"number": 64, "value": 38}, "group": "control_change"}, {"time": 968, "annotation": {"number": 64, "value": 127}, "group": "control_change"}, {"time": 1014, "annotation": {"number": 64, "value": 38}, "group": "control_change"}, {"time": 1014, "annotation": {"number": 64, "value": 0}, "group": "control_change"}, {"time": 1015, "annotation": {"number": 64, "value": 127}, "group": "control_change"}, {"time": 1110, "annotation": {"number": 64, "value": 74}, "group": "control_change"}, {"time": 1111, "annotation": {"number": 64, "value": 38}, "group": "control_change"}, {"time": 1111, "annotation": {"number": 64, "value": 0}, "group": "control_change"}, {"time": 1112, "annotation": {"number": 64, "value": 127}, "group": "control_change"}, {"time": 1543, "annotation": {"number": 64, "value": 38}, "group": "control_change"}, {"time": 1543, "annotation": {"number": 64, "value": 0}, "group": "control_change"}, {"time": 1544, "annotation": {"number": 64, "value": 127}, "group": "control_change"}, {"time": 1591, "annotation": {"number": 64, "value": 74}, "group": "control_change"}, {"time": 1591, "annotation": {"number": 64, "value": 127}, "group": "control_change"}, {"time": 1734, "annotation": {"number": 64, "value": 74}, "group": "control_change"}, {"time": 1734, "annotation": {"number": 64, "value": 127}, "group": "control_change"}, {"time": 1734, "annotation": {"number": 64, "value": 0}, "group": "control_change"}, {"time": 1735, "annotation": {"number": 64, "value": 127}, "group": "control_change"}, {"time": 1738, "annotation": {"number": 64, "value": 74}, "group": "control_change"}, {"time": 1738, "annotation": {"number": 64, "value": 127}, "group": "control_change"}, {"time": 1754, "annotation": {"number": 64, "value": 74}, "group": "control_change"}, {"time": 1754, "annotation": {"number": 64, "value": 0}, "group": "control_change"}, {"time": 1758, "annotation": {"number": 64, "value": 74}, "group": "control_change"}, {"time": 1758, "annotation": {"number": 64, "value": 38}, "group": "control_change"}, {"time": 1758, "annotation": {"number": 64, "value": 0}, "group": "control_change"}, {"time": 1759, "annotation": {"number": 64, "value": 74}, "group": "control_change"}, {"time": 1759, "annotation": {"number": 64, "value": 127}, "group": "control_change"}, {"time": 1783, "annotation": {"number": 64, "value": 74}, "group": "control_change"}, {"time": 1783, "annotation": {"number": 64, "value": 0}, "group": "control_change"}, {"time": 1784, "annotation": {"number": 64, "value": 127}, "group": "control_change"}, {"time": 1831, "annotation": {"number": 64, "value": 38}, "group": "control_change"}, {"time": 1831, "annotation": {"number": 64, "value": 0}, "group": "control_change"}, {"time": 1832, "annotation": {"number": 64, "value": 127}, "group": "control_change"}, {"time": 1846, "annotation": {"number": 64, "value": 74}, "group": "control_change"}, {"time": 1846, "annotation": {"number": 64, "value": 0}, "group": "control_change"}, {"time": 1867, "annotation": {"number": 64, "value": 74}, "group": "control_change"}, {"time": 1867, "annotation": {"number": 64, "value": 127}, "group": "control_change"}, {"time": 1915, "annotation": {"number": 64, "value": 38}, "group": "control_change"}, {"time": 1915, "annotation": {"number": 64, "value": 0}, "group": "control_change"}, {"time": 1916, "annotation": {"number": 64, "value": 127}, "group": "control_change"}, {"time": 1926, "annotation": {"number": 64, "value": 38}, "group": "control_change"}, {"time": 1926, "annotation": {"number": 64, "value": 0}, "group": "control_change"}, {"time": 1928, "annotation": {"number": 64, "value": 38}, "group": "control_change"}, {"time": 1928, "annotation": {"number": 64, "value": 127}, "group": "control_change"}, {"time": 1962, "annotation": {"number": 64, "value": 74}, "group": "control_change"}, {"time": 1962, "annotation": {"number": 64, "value": 0}, "group": "control_change"}, {"time": 1964, "annotation": {"number": 64, "value": 127}, "group": "control_change"}, {"time": 1973, "annotation": {"number": 64, "value": 38}, "group": "control_change"}, {"time": 1973, "annotation": {"number": 64, "value": 0}, "group": "control_change"}, {"time": 1976, "annotation": {"number": 64, "value": 127}, "group": "control_change"}, {"time": 1999, "annotation": {"number": 64, "value": 74}, "group": "control_change"}, {"time": 1999, "annotation": {"number": 64, "value": 0}, "group": "control_change"}, {"time": 2000, "annotation": {"number": 64, "value": 127}, "group": "control_change"}, {"time": 2021, "annotation": {"number": 64, "value": 38}, "group": "control_change"}, {"time": 2021, "annotation": {"number": 64, "value": 0}, "group": "control_change"}, {"time": 2023, "annotation": {"number": 64, "value": 38}, "group": "control_change"}, {"time": 2024, "annotation": {"number": 64, "value": 127}, "group": "control_change"}, {"time": 2118, "annotation": {"number": 64, "value": 0}, "group": "control_change"}, {"time": 2120, "annotation": {"number": 64, "value": 127}, "group": "control_change"}, {"time": 2153, "annotation": {"number": 64, "value": 74}, "group": "control_change"}, {"time": 2154, "annotation": {"number": 64, "value": 0}, "group": "control_change"}, {"time": 2155, "annotation": {"number": 64, "value": 127}, "group": "control_change"}, {"time": 2201, "annotation": {"number": 64, "value": 0}, "group": "control_change"}, {"time": 2204, "annotation": {"number": 64, "value": 127}, "group": "control_change"}, {"time": 2214, "annotation": {"number": 64, "value": 0}, "group": "control_change"}, {"time": 2216, "annotation": {"number": 64, "value": 127}, "group": "control_change"}, {"time": 2249, "annotation": {"number": 64, "value": 74}, "group": "control_change"}, {"time": 2249, "annotation": {"number": 64, "value": 0}, "group": "control_change"}, {"time": 2252, "annotation": {"number": 64, "value": 127}, "group": "control_change"}, {"time": 2263, "annotation": {"number": 64, "value": 74}, "group": "control_change"}, {"time": 2263, "annotation": {"number": 64, "value": 127}, "group": "control_change"}, {"time": 2281, "annotation": {"number": 64, "value": 74}, "group": "control_change"}, {"time": 2281, "annotation": {"number": 64, "value": 127}, "group": "control_change"}, {"time": 2298, "annotation": {"number": 64, "value": 74}, "group": "control_change"}, {"time": 2298, "annotation": {"number": 64, "value": 0}, "group": "control_change"}, {"time": 2300, "annotation": {"number": 64, "value": 127}, "group": "control_change"}, {"time": 2310, "annotation": {"number": 64, "value": 0}, "group": "control_change"}, {"time": 2312, "annotation": {"number": 64, "value": 127}, "group": "control_change"}, {"time": 2429, "annotation": {"number": 64, "value": 38}, "group": "control_change"}, {"time": 2429, "annotation": {"number": 64, "value": 0}, "group": "control_change"}, {"time": 2457, "annotation": {"number": 64, "value": 74}, "group": "control_change"}, {"time": 2457, "annotation": {"number": 64, "value": 127}, "group": "control_change"}, {"time": 2496, "annotation": {"number": 64, "value": 38}, "group": "control_change"}, {"time": 2496, "annotation": {"number": 64, "value": 0}, "group": "control_change"}, {"time": 2498, "annotation": {"number": 64, "value": 74}, "group": "control_change"}, {"time": 2498, "annotation": {"number": 64, "value": 127}, "group": "control_change"}, {"time": 2526, "annotation": {"number": 64, "value": 0}, "group": "control_change"}, {"time": 2528, "annotation": {"number": 64, "value": 127}, "group": "control_change"}, {"time": 2548, "annotation": {"number": 64, "value": 74}, "group": "control_change"}, {"time": 2548, "annotation": {"number": 64, "value": 0}, "group": "control_change"}, {"time": 2551, "annotation": {"number": 64, "value": 127}, "group": "control_change"}, {"time": 2594, "annotation": {"number": 64, "value": 74}, "group": "control_change"}, {"time": 2594, "annotation": {"number": 64, "value": 127}, "group": "control_change"}, {"time": 2609, "annotation": {"number": 64, "value": 38}, "group": "control_change"}, {"time": 2609, "annotation": {"number": 64, "value": 127}, "group": "control_change"}, {"time": 2609, "annotation": {"number": 64, "value": 0}, "group": "control_change"}, {"time": 2623, "annotation": {"number": 64, "value": 0}, "group": "control_change"}, {"time": 2624, "annotation": {"number": 64, "value": 127}, "group": "control_change"}, {"time": 2646, "annotation": {"number": 64, "value": 0}, "group": "control_change"}, {"time": 2647, "annotation": {"number": 64, "value": 127}, "group": "control_change"}, {"time": 2648, "annotation": {"number": 64, "value": 74}, "group": "control_change"}, {"time": 2648, "annotation": {"number": 64, "value": 127}, "group": "control_change"}, {"time": 2693, "annotation": {"number": 64, "value": 38}, "group": "control_change"}, {"time": 2693, "annotation": {"number": 64, "value": 0}, "group": "control_change"}, {"time": 2695, "annotation": {"number": 64, "value": 127}, "group": "control_change"}, {"time": 2696, "annotation": {"number": 64, "value": 127}, "group": "control_change"}, {"time": 2710, "annotation": {"number": 64, "value": 38}, "group": "control_change"}, {"time": 2710, "annotation": {"number": 64, "value": 0}, "group": "control_change"}, {"time": 2739, "annotation": {"number": 64, "value": 74}, "group": "control_change"}, {"time": 2740, "annotation": {"number": 64, "value": 0}, "group": "control_change"}, {"time": 2742, "annotation": {"number": 64, "value": 127}, "group": "control_change"}, {"time": 3175, "annotation": {"number": 64, "value": 38}, "group": "control_change"}, {"time": 3175, "annotation": {"number": 64, "value": 0}, "group": "control_change"}, {"time": 3176, "annotation": {"number": 64, "value": 127}, "group": "control_change"}, {"time": 3223, "annotation": {"number": 64, "value": 74}, "group": "control_change"}, {"time": 3223, "annotation": {"number": 64, "value": 127}, "group": "control_change"}, {"time": 3366, "annotation": {"number": 64, "value": 74}, "group": "control_change"}, {"time": 3366, "annotation": {"number": 64, "value": 127}, "group": "control_change"}, {"time": 3366, "annotation": {"number": 64, "value": 0}, "group": "control_change"}, {"time": 3367, "annotation": {"number": 64, "value": 127}, "group": "control_change"}, {"time": 3370, "annotation": {"number": 64, "value": 74}, "group": "control_change"}, {"time": 3370, "annotation": {"number": 64, "value": 127}, "group": "control_change"}, {"time": 3386, "annotation": {"number": 64, "value": 74}, "group": "control_change"}, {"time": 3386, "annotation": {"number": 64, "value": 0}, "group": "control_change"}, {"time": 3390, "annotation": {"number": 64, "value": 74}, "group": "control_change"}, {"time": 3390, "annotation": {"number": 64, "value": 38}, "group": "control_change"}, {"time": 3390, "annotation": {"number": 64, "value": 0}, "group": "control_change"}, {"time": 3391, "annotation": {"number": 64, "value": 74}, "group": "control_change"}, {"time": 3391, "annotation": {"number": 64, "value": 127}, "group": "control_change"}, {"time": 3415, "annotation": {"number": 64, "value": 74}, "group": "control_change"}, {"time": 3415, "annotation": {"number": 64, "value": 0}, "group": "control_change"}, {"time": 3416, "annotation": {"number": 64, "value": 127}, "group": "control_change"}, {"time": 3463, "annotation": {"number": 64, "value": 38}, "group": "control_change"}, {"time": 3463, "annotation": {"number": 64, "value": 0}, "group": "control_change"}, {"time": 3464, "annotation": {"number": 64, "value": 127}, "group": "control_change"}, {"time": 3478, "annotation": {"number": 64, "value": 74}, "group": "control_change"}, {"time": 3478, "annotation": {"number": 64, "value": 0}, "group": "control_change"}, {"time": 3499, "annotation": {"number": 64, "value": 74}, "group": "control_change"}, {"time": 3499, "annotation": {"number": 64, "value": 127}, "group": "control_change"}, {"time": 3547, "annotation": {"number": 64, "value": 38}, "group": "control_change"}, {"time": 3547, "annotation": {"number": 64, "value": 0}, "group": "control_change"}, {"time": 3548, "annotation": {"number": 64, "value": 127}, "group": "control_change"}, {"time": 3558, "annotation": {"number": 64, "value": 38}, "group": "control_change"}, {"time": 3558, "annotation": {"number": 64, "value": 0}, "group": "control_change"}, {"time": 3560, "annotation": {"number": 64, "value": 38}, "group": "control_change"}, {"time": 3560, "annotation": {"number": 64, "value": 127}, "group": "control_change"}, {"time": 3594, "annotation": {"number": 64, "value": 74}, "group": "control_change"}, {"time": 3594, "annotation": {"number": 64, "value": 0}, "group": "control_change"}, {"time": 3596, "annotation": {"number": 64, "value": 127}, "group": "control_change"}, {"time": 3605, "annotation": {"number": 64, "value": 38}, "group": "control_change"}, {"time": 3605, "annotation": {"number": 64, "value": 0}, "group": "control_change"}, {"time": 3608, "annotation": {"number": 64, "value": 127}, "group": "control_change"}, {"time": 3631, "annotation": {"number": 64, "value": 74}, "group": "control_change"}, {"time": 3631, "annotation": {"number": 64, "value": 0}, "group": "control_change"}, {"time": 3632, "annotation": {"number": 64, "value": 127}, "group": "control_change"}, {"time": 3653, "annotation": {"number": 64, "value": 38}, "group": "control_change"}, {"time": 3653, "annotation": {"number": 64, "value": 0}, "group": "control_change"}, {"time": 3655, "annotation": {"number": 64, "value": 38}, "group": "control_change"}, {"time": 3656, "annotation": {"number": 64, "value": 127}, "group": "control_change"}, {"time": 3750, "annotation": {"number": 64, "value": 0}, "group": "control_change"}, {"time": 3752, "annotation": {"number": 64, "value": 127}, "group": "control_change"}, {"time": 3785, "annotation": {"number": 64, "value": 74}, "group": "control_change"}, {"time": 3786, "annotation": {"number": 64, "value": 0}, "group": "control_change"}, {"time": 3787, "annotation": {"number": 64, "value": 127}, "group": "control_change"}, {"time": 3833, "annotation": {"number": 64, "value": 0}, "group": "control_change"}, {"time": 3836, "annotation": {"number": 64, "value": 127}, "group": "control_change"}, {"time": 3846, "annotation": {"number": 64, "value": 0}, "group": "control_change"}, {"time": 3848, "annotation": {"number": 64, "value": 127}, "group": "control_change"}, {"time": 3881, "annotation": {"number": 64, "value": 74}, "group": "control_change"}, {"time": 3881, "annotation": {"number": 64, "value": 0}, "group": "control_change"}, {"time": 3884, "annotation": {"number": 64, "value": 127}, "group": "control_change"}, {"time": 3895, "annotation": {"number": 64, "value": 74}, "group": "control_change"}, {"time": 3895, "annotation": {"number": 64, "value": 127}, "group": "control_change"}, {"time": 3913, "annotation": {"number": 64, "value": 74}, "group": "control_change"}, {"time": 3913, "annotation": {"number": 64, "value": 127}, "group": "control_change"}, {"time": 3930, "annotation": {"number": 64, "value": 74}, "group": "control_change"}, {"time": 3930, "annotation": {"number": 64, "value": 0}, "group": "control_change"}, {"time": 3932, "annotation": {"number": 64, "value": 127}, "group": "control_change"}, {"time": 3942, "annotation": {"number": 64, "value": 0}, "group": "control_change"}, {"time": 3944, "annotation": {"number": 64, "value": 127}, "group": "control_change"}, {"time": 4061, "annotation": {"number": 64, "value": 38}, "group": "control_change"}, {"time": 4061, "annotation": {"number": 64, "value": 0}, "group": "control_change"}, {"time": 4230, "annotation": {"number": 64, "value": 74}, "group": "control_change"}, {"time": 4230, "annotation": {"number": 64, "value": 127}, "group": "control_change"}, {"time": 4230, "annotation": {"number": 64, "value": 0}, "group": "control_change"}, {"time": 4231, "annotation": {"number": 64, "value": 127}, "group": "control_change"}, {"time": 4234, "annotation": {"number": 64, "value": 74}, "group": "control_change"}, {"time": 4234, "annotation": {"number": 64, "value": 127}, "group": "control_change"}, {"time": 4250, "annotation": {"number": 64, "value": 74}, "group": "control_change"}, {"time": 4250, "annotation": {"number": 64, "value": 0}, "group": "control_change"}, {"time": 4254, "annotation": {"number": 64, "value": 74}, "group": "control_change"}, {"time": 4254, "annotation": {"number": 64, "value": 38}, "group": "control_change"}, {"time": 4254, "annotation": {"number": 64, "value": 0}, "group": "control_change"}, {"time": 4255, "annotation": {"number": 64, "value": 74}, "group": "control_change"}, {"time": 4255, "annotation": {"number": 64, "value": 127}, "group": "control_change"}, {"time": 4279, "annotation": {"number": 64, "value": 74}, "group": "control_change"}, {"time": 4279, "annotation": {"number": 64, "value": 0}, "group": "control_change"}, {"time": 4280, "annotation": {"number": 64, "value": 127}, "group": "control_change"}, {"time": 4327, "annotation": {"number": 64, "value": 38}, "group": "control_change"}, {"time": 4327, "annotation": {"number": 64, "value": 0}, "group": "control_change"}, {"time": 4328, "annotation": {"number": 64, "value": 127}, "group": "control_change"}, {"time": 4342, "annotation": {"number": 64, "value": 74}, "group": "control_change"}, {"time": 4342, "annotation": {"number": 64, "value": 0}, "group": "control_change"}, {"time": 4363, "annotation": {"number": 64, "value": 74}, "group": "control_change"}, {"time": 4363, "annotation": {"number": 64, "value": 127}, "group": "control_change"}, {"time": 4411, "annotation": {"number": 64, "value": 38}, "group": "control_change"}, {"time": 4411, "annotation": {"number": 64, "value": 0}, "group": "control_change"}, {"time": 4412, "annotation": {"number": 64, "value": 127}, "group": "control_change"}, {"time": 4422, "annotation": {"number": 64, "value": 38}, "group": "control_change"}, {"time": 4422, "annotation": {"number": 64, "value": 0}, "group": "control_change"}, {"time": 4424, "annotation": {"number": 64, "value": 38}, "group": "control_change"}, {"time": 4424, "annotation": {"number": 64, "value": 127}, "group": "control_change"}, {"time": 4458, "annotation": {"number": 64, "value": 74}, "group": "control_change"}, {"time": 4458, "annotation": {"number": 64, "value": 0}, "group": "control_change"}, {"time": 4460, "annotation": {"number": 64, "value": 127}, "group": "control_change"}, {"time": 4469, "annotation": {"number": 64, "value": 38}, "group": "control_change"}, {"time": 4469, "annotation": {"number": 64, "value": 0}, "group": "control_change"}, {"time": 4472, "annotation": {"number": 64, "value": 127}, "group": "control_change"}, {"time": 4495, "annotation": {"number": 64, "value": 74}, "group": "control_change"}, {"time": 4495, "annotation": {"number": 64, "value": 0}, "group": "control_change"}, {"time": 4496, "annotation": {"number": 64, "value": 127}, "group": "control_change"}, {"time": 4517, "annotation": {"number": 64, "value": 38}, "group": "control_change"}, {"time": 4517, "annotation": {"number": 64, "value": 0}, "group": "control_change"}, {"time": 4519, "annotation": {"number": 64, "value": 38}, "group": "control_change"}, {"time": 4520, "annotation": {"number": 64, "value": 127}, "group": "control_change"}, {"time": 4614, "annotation": {"number": 64, "value": 0}, "group": "control_change"}, {"time": 4616, "annotation": {"number": 64, "value": 127}, "group": "control_change"}, {"time": 4649, "annotation": {"number": 64, "value": 74}, "group": "control_change"}, {"time": 4650, "annotation": {"number": 64, "value": 0}, "group": "control_change"}, {"time": 4651, "annotation": {"number": 64, "value": 127}, "group": "control_change"}, {"time": 4697, "annotation": {"number": 64, "value": 0}, "group": "control_change"}, {"time": 4700, "annotation": {"number": 64, "value": 127}, "group": "control_change"}, {"time": 4710, "annotation": {"number": 64, "value": 0}, "group": "control_change"}, {"time": 4712, "annotation": {"number": 64, "value": 127}, "group": "control_change"}, {"time": 4745, "annotation": {"number": 64, "value": 74}, "group": "control_change"}, {"time": 4745, "annotation": {"number": 64, "value": 0}, "group": "control_change"}, {"time": 4748, "annotation": {"number": 64, "value": 127}, "group": "control_change"}, {"time": 4759, "annotation": {"number": 64, "value": 74}, "group": "control_change"}, {"time": 4759, "annotation": {"number": 64, "value": 127}, "group": "control_change"}, {"time": 4777, "annotation": {"number": 64, "value": 74}, "group": "control_change"}, {"time": 4777, "annotation": {"number": 64, "value": 127}, "group": "control_change"}, {"time": 4794, "annotation": {"number": 64, "value": 74}, "group": "control_change"}, {"time": 4794, "annotation": {"number": 64, "value": 0}, "group": "control_change"}, {"time": 4796, "annotation": {"number": 64, "value": 127}, "group": "control_change"}, {"time": 4806, "annotation": {"number": 64, "value": 0}, "group": "control_change"}, {"time": 4808, "annotation": {"number": 64, "value": 127}, "group": "control_change"}, {"time": 4904, "annotation": {"number": 64, "value": 127}, "group": "control_change"}, {"time": 4949, "annotation": {"number": 64, "value": 74}, "group": "control_change"}, {"time": 4949, "annotation": {"number": 64, "value": 0}, "group": "control_change"}, {"time": 4952, "annotation": {"number": 64, "value": 127}, "group": "control_change"}, {"time": 5045, "annotation": {"number": 64, "value": 38}, "group": "control_change"}, {"time": 5046, "annotation": {"number": 64, "value": 0}, "group": "control_change"}, {"time": 5048, "annotation": {"number": 64, "value": 127}, "group": "control_change"}, {"time": 5130, "annotation": {"number": 64, "value": 38}, "group": "control_change"}, {"time": 5130, "annotation": {"number": 64, "value": 0}, "group": "control_change"}]}]}