{"metadata": {"schema_version": "0.2", "title": "None", "source_filename": "289.mid", "source_format": "midi"}, "resolution": 12, "tempos": [{"time": 0, "qpm": 62.00005993339127}, {"time": 348, "qpm": 59.7500059750006}, {"time": 354, "qpm": 56.75009245535896}, {"time": 362, "qpm": 54.7500205312577}, {"time": 384, "qpm": 59.00006686674245}, {"time": 388, "qpm": 59.7500059750006}, {"time": 392, "qpm": 61.00003456668625}, {"time": 396, "qpm": 62.00005993339127}, {"time": 1140, "qpm": 59.50008032510844}, {"time": 1146, "qpm": 58.50000146250004}, {"time": 1151, "qpm": 57.00008550012825}, {"time": 1153, "qpm": 56.50010122934803}, {"time": 1160, "qpm": 56.75009245535896}, {"time": 1161, "qpm": 57.00008550012825}, {"time": 1164, "qpm": 57.750002165625084}, {"time": 1167, "qpm": 58.50000146250004}, {"time": 1169, "qpm": 59.250013331253}, {"time": 1174, "qpm": 60.500032770851085}, {"time": 1178, "qpm": 61.00003456668625}, {"time": 1200, "qpm": 60.0}, {"time": 1213, "qpm": 59.50008032510844}], "time_signatures": [{"time": 0, "numerator": 1, "denominator": 4}], "tracks": [{"program": 0, "is_drum": false, "name": "MELODY", "notes": [{"time": 377, "pitch": 61, "duration": 4, "velocity": 60}, {"time": 381, "pitch": 63, "duration": 5, "velocity": 58}, {"time": 386, "pitch": 61, "duration": 5, "velocity": 59}, {"time": 390, "pitch": 73, "duration": 6, "velocity": 60}, {"time": 395, "pitch": 70, "duration": 23, "velocity": 54}, {"time": 423, "pitch": 68, "duration": 2, "velocity": 46}, {"time": 426, "pitch": 68, "duration": 2, "velocity": 51}, {"time": 429, "pitch": 68, "duration": 10, "velocity": 55}, {"time": 438, "pitch": 70, "duration": 4, "velocity": 56}, {"time": 442, "pitch": 68, "duration": 6, "velocity": 56}, {"time": 447, "pitch": 66, "duration": 23, "velocity": 54}, {"time": 477, "pitch": 66, "duration": 3, "velocity": 60}, {"time": 480, "pitch": 68, "duration": 5, "velocity": 58}, {"time": 485, "pitch": 66, "duration": 5, "velocity": 59}, {"time": 490, "pitch": 78, "duration": 5, "velocity": 59}, {"time": 495, "pitch": 75, "duration": 17, "velocity": 60}, {"time": 516, "pitch": 75, "duration": 2, "velocity": 56}, {"time": 520, "pitch": 75, "duration": 2, "velocity": 60}, {"time": 523, "pitch": 75, "duration": 2, "velocity": 62}, {"time": 526, "pitch": 75, "duration": 10, "velocity": 62}, {"time": 536, "pitch": 78, "duration": 4, "velocity": 53}, {"time": 539, "pitch": 75, "duration": 6, "velocity": 60}, {"time": 545, "pitch": 73, "duration": 23, "velocity": 54}, {"time": 572, "pitch": 66, "duration": 4, "velocity": 59}, {"time": 576, "pitch": 68, "duration": 6, "velocity": 57}, {"time": 582, "pitch": 66, "duration": 7, "velocity": 60}, {"time": 589, "pitch": 78, "duration": 3, "velocity": 59}, {"time": 592, "pitch": 75, "duration": 20, "velocity": 58}, {"time": 613, "pitch": 75, "duration": 3, "velocity": 58}, {"time": 617, "pitch": 75, "duration": 2, "velocity": 60}, {"time": 620, "pitch": 75, "duration": 4, "velocity": 59}, {"time": 625, "pitch": 75, "duration": 4, "velocity": 60}, {"time": 629, "pitch": 70, "duration": 4, "velocity": 49}, {"time": 633, "pitch": 73, "duration": 6, "velocity": 59}, {"time": 639, "pitch": 75, "duration": 4, "velocity": 51}, {"time": 646, "pitch": 70, "duration": 5, "velocity": 57}, {"time": 651, "pitch": 68, "duration": 4, "velocity": 48}, {"time": 655, "pitch": 66, "duration": 11, "velocity": 54}, {"time": 668, "pitch": 66, "duration": 4, "velocity": 63}, {"time": 672, "pitch": 68, "duration": 5, "velocity": 55}, {"time": 677, "pitch": 70, "duration": 4, "velocity": 51}, {"time": 681, "pitch": 63, "duration": 13, "velocity": 54}, {"time": 695, "pitch": 66, "duration": 4, "velocity": 58}, {"time": 698, "pitch": 68, "duration": 4, "velocity": 53}, {"time": 701, "pitch": 70, "duration": 3, "velocity": 52}, {"time": 704, "pitch": 63, "duration": 7, "velocity": 58}, {"time": 716, "pitch": 70, "duration": 5, "velocity": 59}, {"time": 720, "pitch": 68, "duration": 8, "velocity": 53}, {"time": 727, "pitch": 66, "duration": 6, "velocity": 55}, {"time": 733, "pitch": 68, "duration": 25, "velocity": 52}, {"time": 762, "pitch": 61, "duration": 2, "velocity": 59}, {"time": 765, "pitch": 61, "duration": 5, "velocity": 59}, {"time": 770, "pitch": 63, "duration": 3, "velocity": 56}, {"time": 773, "pitch": 61, "duration": 8, "velocity": 59}, {"time": 780, "pitch": 73, "duration": 4, "velocity": 59}, {"time": 784, "pitch": 70, "duration": 21, "velocity": 58}, {"time": 808, "pitch": 68, "duration": 3, "velocity": 47}, {"time": 812, "pitch": 68, "duration": 3, "velocity": 58}, {"time": 816, "pitch": 68, "duration": 5, "velocity": 58}, {"time": 821, "pitch": 70, "duration": 4, "velocity": 54}, {"time": 824, "pitch": 68, "duration": 6, "velocity": 53}, {"time": 830, "pitch": 66, "duration": 23, "velocity": 54}, {"time": 860, "pitch": 66, "duration": 4, "velocity": 62}, {"time": 864, "pitch": 68, "duration": 6, "velocity": 58}, {"time": 870, "pitch": 66, "duration": 8, "velocity": 62}, {"time": 877, "pitch": 78, "duration": 4, "velocity": 58}, {"time": 881, "pitch": 75, "duration": 14, "velocity": 60}, {"time": 899, "pitch": 75, "duration": 2, "velocity": 59}, {"time": 902, "pitch": 75, "duration": 2, "velocity": 61}, {"time": 905, "pitch": 75, "duration": 2, "velocity": 64}, {"time": 908, "pitch": 75, "duration": 5, "velocity": 65}, {"time": 915, "pitch": 75, "duration": 3, "velocity": 60}, {"time": 918, "pitch": 78, "duration": 3, "velocity": 59}, {"time": 921, "pitch": 75, "duration": 6, "velocity": 61}, {"time": 927, "pitch": 73, "duration": 23, "velocity": 52}, {"time": 956, "pitch": 66, "duration": 5, "velocity": 59}, {"time": 961, "pitch": 68, "duration": 4, "velocity": 58}, {"time": 965, "pitch": 66, "duration": 8, "velocity": 59}, {"time": 972, "pitch": 78, "duration": 4, "velocity": 59}, {"time": 976, "pitch": 75, "duration": 14, "velocity": 60}, {"time": 994, "pitch": 75, "duration": 2, "velocity": 58}, {"time": 997, "pitch": 75, "duration": 2, "velocity": 59}, {"time": 1000, "pitch": 75, "duration": 2, "velocity": 59}, {"time": 1004, "pitch": 75, "duration": 2, "velocity": 59}, {"time": 1007, "pitch": 75, "duration": 1, "velocity": 60}, {"time": 1010, "pitch": 75, "duration": 2, "velocity": 59}, {"time": 1013, "pitch": 70, "duration": 2, "velocity": 54}, {"time": 1016, "pitch": 73, "duration": 6, "velocity": 58}, {"time": 1021, "pitch": 75, "duration": 10, "velocity": 59}, {"time": 1031, "pitch": 70, "duration": 4, "velocity": 59}, {"time": 1035, "pitch": 68, "duration": 4, "velocity": 51}, {"time": 1039, "pitch": 66, "duration": 9, "velocity": 58}, {"time": 1052, "pitch": 66, "duration": 4, "velocity": 59}, {"time": 1056, "pitch": 68, "duration": 4, "velocity": 54}, {"time": 1060, "pitch": 70, "duration": 4, "velocity": 52}, {"time": 1064, "pitch": 63, "duration": 10, "velocity": 57}, {"time": 1076, "pitch": 66, "duration": 4, "velocity": 56}, {"time": 1080, "pitch": 68, "duration": 5, "velocity": 55}, {"time": 1084, "pitch": 70, "duration": 4, "velocity": 58}, {"time": 1088, "pitch": 62, "duration": 10, "velocity": 58}, {"time": 1100, "pitch": 70, "duration": 6, "velocity": 56}, {"time": 1106, "pitch": 68, "duration": 4, "velocity": 50}, {"time": 1110, "pitch": 66, "duration": 4, "velocity": 50}, {"time": 1115, "pitch": 66, "duration": 27, "velocity": 53}, {"time": 1147, "pitch": 78, "duration": 5, "velocity": 58}, {"time": 1152, "pitch": 77, "duration": 7, "velocity": 62}, {"time": 1159, "pitch": 75, "duration": 3, "velocity": 62}, {"time": 1162, "pitch": 73, "duration": 2, "velocity": 58}, {"time": 1165, "pitch": 73, "duration": 3, "velocity": 54}, {"time": 1168, "pitch": 70, "duration": 3, "velocity": 44}, {"time": 1171, "pitch": 73, "duration": 2, "velocity": 59}, {"time": 1174, "pitch": 73, "duration": 2, "velocity": 59}, {"time": 1177, "pitch": 73, "duration": 2, "velocity": 64}, {"time": 1180, "pitch": 70, "duration": 3, "velocity": 59}, {"time": 1183, "pitch": 73, "duration": 5, "velocity": 63}, {"time": 1188, "pitch": 75, "duration": 4, "velocity": 58}, {"time": 1192, "pitch": 73, "duration": 6, "velocity": 59}, {"time": 1200, "pitch": 78, "duration": 4, "velocity": 59}, {"time": 1204, "pitch": 77, "duration": 4, "velocity": 58}, {"time": 1208, "pitch": 75, "duration": 3, "velocity": 64}, {"time": 1211, "pitch": 73, "duration": 1, "velocity": 52}, {"time": 1214, "pitch": 73, "duration": 2, "velocity": 57}, {"time": 1216, "pitch": 70, "duration": 3, "velocity": 56}, {"time": 1219, "pitch": 73, "duration": 3, "velocity": 50}, {"time": 1223, "pitch": 73, "duration": 4, "velocity": 59}, {"time": 1229, "pitch": 70, "duration": 3, "velocity": 54}, {"time": 1232, "pitch": 75, "duration": 4, "velocity": 58}, {"time": 1237, "pitch": 70, "duration": 3, "velocity": 60}, {"time": 1240, "pitch": 68, "duration": 4, "velocity": 58}, {"time": 1243, "pitch": 66, "duration": 4, "velocity": 44}, {"time": 1249, "pitch": 66, "duration": 3, "velocity": 59}, {"time": 1252, "pitch": 68, "duration": 3, "velocity": 56}, {"time": 1256, "pitch": 70, "duration": 3, "velocity": 59}, {"time": 1259, "pitch": 68, "duration": 4, "velocity": 59}, {"time": 1263, "pitch": 66, "duration": 3, "velocity": 54}, {"time": 1267, "pitch": 66, "duration": 3, "velocity": 58}, {"time": 1273, "pitch": 66, "duration": 3, "velocity": 59}, {"time": 1276, "pitch": 75, "duration": 3, "velocity": 62}, {"time": 1279, "pitch": 73, "duration": 2, "velocity": 59}, {"time": 1282, "pitch": 70, "duration": 2, "velocity": 58}, {"time": 1284, "pitch": 68, "duration": 4, "velocity": 56}, {"time": 1287, "pitch": 66, "duration": 8, "velocity": 53}, {"time": 1296, "pitch": 66, "duration": 4, "velocity": 56}, {"time": 1299, "pitch": 68, "duration": 2, "velocity": 57}, {"time": 1303, "pitch": 70, "duration": 2, "velocity": 59}, {"time": 1305, "pitch": 68, "duration": 2, "velocity": 52}, {"time": 1308, "pitch": 68, "duration": 3, "velocity": 58}, {"time": 1311, "pitch": 66, "duration": 2, "velocity": 58}, {"time": 1314, "pitch": 66, "duration": 4, "velocity": 59}, {"time": 1318, "pitch": 63, "duration": 2, "velocity": 62}, {"time": 1321, "pitch": 63, "duration": 2, "velocity": 59}, {"time": 1324, "pitch": 66, "duration": 2, "velocity": 59}, {"time": 1327, "pitch": 75, "duration": 5, "velocity": 69}, {"time": 1333, "pitch": 77, "duration": 3, "velocity": 58}, {"time": 1336, "pitch": 73, "duration": 5, "velocity": 60}, {"time": 1342, "pitch": 78, "duration": 6, "velocity": 59}, {"time": 1348, "pitch": 77, "duration": 4, "velocity": 62}, {"time": 1353, "pitch": 75, "duration": 3, "velocity": 62}, {"time": 1356, "pitch": 73, "duration": 2, "velocity": 51}, {"time": 1359, "pitch": 73, "duration": 2, "velocity": 56}, {"time": 1361, "pitch": 70, "duration": 3, "velocity": 59}, {"time": 1364, "pitch": 73, "duration": 2, "velocity": 59}, {"time": 1367, "pitch": 73, "duration": 2, "velocity": 54}, {"time": 1370, "pitch": 73, "duration": 3, "velocity": 59}, {"time": 1373, "pitch": 70, "duration": 2, "velocity": 58}, {"time": 1376, "pitch": 73, "duration": 4, "velocity": 60}, {"time": 1381, "pitch": 75, "duration": 4, "velocity": 62}, {"time": 1385, "pitch": 73, "duration": 6, "velocity": 59}, {"time": 1392, "pitch": 78, "duration": 4, "velocity": 61}, {"time": 1397, "pitch": 80, "duration": 2, "velocity": 65}, {"time": 1400, "pitch": 77, "duration": 2, "velocity": 69}, {"time": 1403, "pitch": 73, "duration": 2, "velocity": 62}, {"time": 1406, "pitch": 73, "duration": 2, "velocity": 62}, {"time": 1409, "pitch": 70, "duration": 2, "velocity": 59}, {"time": 1412, "pitch": 73, "duration": 4, "velocity": 54}, {"time": 1417, "pitch": 75, "duration": 4, "velocity": 62}, {"time": 1422, "pitch": 78, "duration": 2, "velocity": 60}, {"time": 1425, "pitch": 80, "duration": 5, "velocity": 60}, {"time": 1430, "pitch": 75, "duration": 3, "velocity": 62}, {"time": 1433, "pitch": 78, "duration": 7, "velocity": 60}, {"time": 1442, "pitch": 78, "duration": 2, "velocity": 59}, {"time": 1445, "pitch": 80, "duration": 2, "velocity": 65}, {"time": 1448, "pitch": 82, "duration": 3, "velocity": 61}, {"time": 1452, "pitch": 80, "duration": 3, "velocity": 54}, {"time": 1456, "pitch": 78, "duration": 2, "velocity": 60}, {"time": 1460, "pitch": 75, "duration": 4, "velocity": 65}, {"time": 1466, "pitch": 78, "duration": 1, "velocity": 59}, {"time": 1468, "pitch": 80, "duration": 2, "velocity": 59}, {"time": 1472, "pitch": 77, "duration": 3, "velocity": 60}, {"time": 1476, "pitch": 73, "duration": 3, "velocity": 59}, {"time": 1480, "pitch": 70, "duration": 3, "velocity": 60}, {"time": 1484, "pitch": 78, "duration": 4, "velocity": 59}, {"time": 1490, "pitch": 73, "duration": 1, "velocity": 65}, {"time": 1493, "pitch": 75, "duration": 2, "velocity": 65}, {"time": 1496, "pitch": 78, "duration": 2, "velocity": 63}, {"time": 1498, "pitch": 75, "duration": 2, "velocity": 63}, {"time": 1501, "pitch": 75, "duration": 2, "velocity": 65}, {"time": 1504, "pitch": 73, "duration": 2, "velocity": 59}, {"time": 1507, "pitch": 75, "duration": 2, "velocity": 69}, {"time": 1511, "pitch": 78, "duration": 7, "velocity": 64}, {"time": 1520, "pitch": 82, "duration": 5, "velocity": 59}, {"time": 1525, "pitch": 80, "duration": 7, "velocity": 62}, {"time": 1532, "pitch": 78, "duration": 3, "velocity": 60}, {"time": 1536, "pitch": 78, "duration": 4, "velocity": 58}, {"time": 1540, "pitch": 80, "duration": 5, "velocity": 59}, {"time": 1545, "pitch": 78, "duration": 49, "velocity": 60}, {"time": 1859, "pitch": 61, "duration": 4, "velocity": 58}, {"time": 1862, "pitch": 61, "duration": 1, "velocity": 59}, {"time": 1867, "pitch": 63, "duration": 4, "velocity": 58}, {"time": 1871, "pitch": 61, "duration": 5, "velocity": 58}, {"time": 1875, "pitch": 73, "duration": 5, "velocity": 58}, {"time": 1882, "pitch": 70, "duration": 15, "velocity": 58}, {"time": 1905, "pitch": 68, "duration": 3, "velocity": 53}, {"time": 1909, "pitch": 68, "duration": 3, "velocity": 56}, {"time": 1913, "pitch": 68, "duration": 4, "velocity": 58}, {"time": 1917, "pitch": 70, "duration": 3, "velocity": 57}, {"time": 1920, "pitch": 68, "duration": 6, "velocity": 53}, {"time": 1925, "pitch": 66, "duration": 23, "velocity": 58}, {"time": 1955, "pitch": 66, "duration": 3, "velocity": 65}, {"time": 1959, "pitch": 68, "duration": 3, "velocity": 65}, {"time": 1963, "pitch": 66, "duration": 3, "velocity": 64}, {"time": 1967, "pitch": 78, "duration": 6, "velocity": 67}, {"time": 1972, "pitch": 75, "duration": 17, "velocity": 60}, {"time": 1992, "pitch": 75, "duration": 1, "velocity": 64}, {"time": 1995, "pitch": 75, "duration": 2, "velocity": 64}, {"time": 1997, "pitch": 73, "duration": 3, "velocity": 59}, {"time": 2000, "pitch": 75, "duration": 4, "velocity": 65}, {"time": 2005, "pitch": 75, "duration": 3, "velocity": 63}, {"time": 2009, "pitch": 78, "duration": 3, "velocity": 61}, {"time": 2013, "pitch": 75, "duration": 5, "velocity": 65}, {"time": 2018, "pitch": 73, "duration": 18, "velocity": 58}, {"time": 2047, "pitch": 66, "duration": 3, "velocity": 58}, {"time": 2051, "pitch": 68, "duration": 4, "velocity": 59}, {"time": 2055, "pitch": 66, "duration": 7, "velocity": 62}, {"time": 2062, "pitch": 78, "duration": 4, "velocity": 59}, {"time": 2066, "pitch": 75, "duration": 16, "velocity": 60}, {"time": 2085, "pitch": 75, "duration": 1, "velocity": 57}, {"time": 2087, "pitch": 75, "duration": 1, "velocity": 60}, {"time": 2090, "pitch": 75, "duration": 1, "velocity": 60}, {"time": 2093, "pitch": 75, "duration": 3, "velocity": 64}, {"time": 2097, "pitch": 75, "duration": 3, "velocity": 63}, {"time": 2101, "pitch": 70, "duration": 2, "velocity": 59}, {"time": 2104, "pitch": 73, "duration": 5, "velocity": 59}, {"time": 2110, "pitch": 75, "duration": 9, "velocity": 60}, {"time": 2119, "pitch": 70, "duration": 5, "velocity": 59}, {"time": 2123, "pitch": 68, "duration": 4, "velocity": 54}, {"time": 2127, "pitch": 66, "duration": 9, "velocity": 56}, {"time": 2139, "pitch": 66, "duration": 3, "velocity": 60}, {"time": 2143, "pitch": 68, "duration": 3, "velocity": 59}, {"time": 2147, "pitch": 70, "duration": 3, "velocity": 60}, {"time": 2151, "pitch": 63, "duration": 10, "velocity": 59}, {"time": 2161, "pitch": 66, "duration": 4, "velocity": 58}, {"time": 2166, "pitch": 68, "duration": 4, "velocity": 57}, {"time": 2169, "pitch": 70, "duration": 4, "velocity": 52}, {"time": 2173, "pitch": 62, "duration": 10, "velocity": 57}, {"time": 2185, "pitch": 70, "duration": 6, "velocity": 59}, {"time": 2191, "pitch": 68, "duration": 6, "velocity": 59}, {"time": 2196, "pitch": 66, "duration": 4, "velocity": 57}, {"time": 2200, "pitch": 68, "duration": 9, "velocity": 50}, {"time": 2208, "pitch": 66, "duration": 22, "velocity": 58}, {"time": 2231, "pitch": 78, "duration": 5, "velocity": 64}, {"time": 2237, "pitch": 77, "duration": 6, "velocity": 64}, {"time": 2243, "pitch": 75, "duration": 3, "velocity": 64}, {"time": 2246, "pitch": 73, "duration": 1, "velocity": 58}, {"time": 2249, "pitch": 73, "duration": 2, "velocity": 58}, {"time": 2251, "pitch": 70, "duration": 3, "velocity": 57}, {"time": 2254, "pitch": 73, "duration": 2, "velocity": 64}, {"time": 2257, "pitch": 73, "duration": 2, "velocity": 57}, {"time": 2260, "pitch": 73, "duration": 2, "velocity": 59}, {"time": 2263, "pitch": 70, "duration": 2, "velocity": 59}, {"time": 2266, "pitch": 73, "duration": 4, "velocity": 65}, {"time": 2270, "pitch": 75, "duration": 4, "velocity": 62}, {"time": 2274, "pitch": 73, "duration": 5, "velocity": 62}, {"time": 2280, "pitch": 78, "duration": 5, "velocity": 60}, {"time": 2285, "pitch": 77, "duration": 4, "velocity": 61}, {"time": 2289, "pitch": 75, "duration": 3, "velocity": 63}, {"time": 2292, "pitch": 73, "duration": 1, "velocity": 56}, {"time": 2295, "pitch": 73, "duration": 2, "velocity": 60}, {"time": 2297, "pitch": 70, "duration": 3, "velocity": 57}, {"time": 2300, "pitch": 73, "duration": 4, "velocity": 64}, {"time": 2305, "pitch": 73, "duration": 3, "velocity": 59}, {"time": 2309, "pitch": 70, "duration": 3, "velocity": 59}, {"time": 2313, "pitch": 73, "duration": 4, "velocity": 62}, {"time": 2318, "pitch": 70, "duration": 3, "velocity": 58}, {"time": 2321, "pitch": 68, "duration": 2, "velocity": 53}, {"time": 2324, "pitch": 66, "duration": 4, "velocity": 57}, {"time": 2330, "pitch": 66, "duration": 3, "velocity": 62}, {"time": 2333, "pitch": 68, "duration": 3, "velocity": 53}, {"time": 2336, "pitch": 70, "duration": 6, "velocity": 60}, {"time": 2342, "pitch": 68, "duration": 3, "velocity": 59}, {"time": 2344, "pitch": 66, "duration": 3, "velocity": 54}, {"time": 2348, "pitch": 66, "duration": 4, "velocity": 62}, {"time": 2354, "pitch": 66, "duration": 1, "velocity": 60}, {"time": 2356, "pitch": 75, "duration": 2, "velocity": 59}, {"time": 2359, "pitch": 73, "duration": 3, "velocity": 62}, {"time": 2362, "pitch": 70, "duration": 2, "velocity": 58}, {"time": 2365, "pitch": 68, "duration": 3, "velocity": 54}, {"time": 2368, "pitch": 66, "duration": 6, "velocity": 60}, {"time": 2377, "pitch": 66, "duration": 2, "velocity": 57}, {"time": 2380, "pitch": 68, "duration": 2, "velocity": 59}, {"time": 2383, "pitch": 70, "duration": 2, "velocity": 59}, {"time": 2385, "pitch": 68, "duration": 2, "velocity": 43}, {"time": 2388, "pitch": 68, "duration": 3, "velocity": 54}, {"time": 2391, "pitch": 66, "duration": 2, "velocity": 60}, {"time": 2394, "pitch": 66, "duration": 2, "velocity": 60}, {"time": 2397, "pitch": 63, "duration": 2, "velocity": 60}, {"time": 2400, "pitch": 63, "duration": 3, "velocity": 62}, {"time": 2403, "pitch": 66, "duration": 2, "velocity": 61}, {"time": 2407, "pitch": 75, "duration": 4, "velocity": 63}, {"time": 2412, "pitch": 77, "duration": 3, "velocity": 60}, {"time": 2415, "pitch": 73, "duration": 6, "velocity": 59}, {"time": 2422, "pitch": 78, "duration": 4, "velocity": 62}, {"time": 2426, "pitch": 77, "duration": 3, "velocity": 63}, {"time": 2429, "pitch": 75, "duration": 3, "velocity": 64}, {"time": 2432, "pitch": 73, "duration": 2, "velocity": 61}, {"time": 2435, "pitch": 73, "duration": 3, "velocity": 60}, {"time": 2438, "pitch": 70, "duration": 3, "velocity": 55}, {"time": 2441, "pitch": 73, "duration": 2, "velocity": 62}, {"time": 2444, "pitch": 73, "duration": 2, "velocity": 54}, {"time": 2447, "pitch": 73, "duration": 2, "velocity": 59}, {"time": 2450, "pitch": 70, "duration": 2, "velocity": 59}, {"time": 2453, "pitch": 73, "duration": 3, "velocity": 61}, {"time": 2457, "pitch": 75, "duration": 3, "velocity": 60}, {"time": 2461, "pitch": 73, "duration": 4, "velocity": 61}, {"time": 2468, "pitch": 78, "duration": 4, "velocity": 62}, {"time": 2473, "pitch": 80, "duration": 2, "velocity": 64}, {"time": 2476, "pitch": 77, "duration": 3, "velocity": 62}, {"time": 2479, "pitch": 73, "duration": 2, "velocity": 58}, {"time": 2482, "pitch": 73, "duration": 2, "velocity": 61}, {"time": 2485, "pitch": 70, "duration": 2, "velocity": 53}, {"time": 2488, "pitch": 73, "duration": 3, "velocity": 61}, {"time": 2492, "pitch": 75, "duration": 4, "velocity": 65}, {"time": 2496, "pitch": 78, "duration": 3, "velocity": 58}, {"time": 2500, "pitch": 80, "duration": 6, "velocity": 58}, {"time": 2506, "pitch": 75, "duration": 2, "velocity": 61}, {"time": 2509, "pitch": 78, "duration": 4, "velocity": 60}, {"time": 2517, "pitch": 78, "duration": 2, "velocity": 60}, {"time": 2520, "pitch": 80, "duration": 2, "velocity": 61}, {"time": 2523, "pitch": 82, "duration": 4, "velocity": 60}, {"time": 2527, "pitch": 80, "duration": 4, "velocity": 55}, {"time": 2531, "pitch": 78, "duration": 4, "velocity": 63}, {"time": 2535, "pitch": 75, "duration": 4, "velocity": 69}, {"time": 2541, "pitch": 78, "duration": 2, "velocity": 62}, {"time": 2543, "pitch": 80, "duration": 3, "velocity": 58}, {"time": 2547, "pitch": 77, "duration": 5, "velocity": 69}, {"time": 2553, "pitch": 73, "duration": 3, "velocity": 62}, {"time": 2556, "pitch": 70, "duration": 3, "velocity": 60}, {"time": 2559, "pitch": 78, "duration": 5, "velocity": 60}, {"time": 2564, "pitch": 73, "duration": 1, "velocity": 61}, {"time": 2567, "pitch": 75, "duration": 2, "velocity": 69}, {"time": 2570, "pitch": 78, "duration": 2, "velocity": 64}, {"time": 2573, "pitch": 75, "duration": 1, "velocity": 65}, {"time": 2576, "pitch": 75, "duration": 2, "velocity": 65}, {"time": 2578, "pitch": 73, "duration": 3, "velocity": 58}, {"time": 2582, "pitch": 75, "duration": 3, "velocity": 65}, {"time": 2585, "pitch": 78, "duration": 6, "velocity": 63}, {"time": 2594, "pitch": 82, "duration": 6, "velocity": 53}, {"time": 2600, "pitch": 80, "duration": 3, "velocity": 58}, {"time": 2602, "pitch": 78, "duration": 3, "velocity": 53}, {"time": 2605, "pitch": 78, "duration": 3, "velocity": 58}, {"time": 2610, "pitch": 78, "duration": 2, "velocity": 60}, {"time": 2613, "pitch": 80, "duration": 7, "velocity": 59}, {"time": 2620, "pitch": 78, "duration": 31, "velocity": 59}, {"time": 2655, "pitch": 79, "duration": 10, "velocity": 64}, {"time": 2664, "pitch": 78, "duration": 10, "velocity": 63}, {"time": 2673, "pitch": 76, "duration": 3, "velocity": 65}, {"time": 2676, "pitch": 74, "duration": 2, "velocity": 65}, {"time": 2679, "pitch": 74, "duration": 2, "velocity": 60}, {"time": 2681, "pitch": 71, "duration": 3, "velocity": 59}, {"time": 2684, "pitch": 74, "duration": 2, "velocity": 72}, {"time": 2687, "pitch": 74, "duration": 2, "velocity": 69}, {"time": 2690, "pitch": 74, "duration": 2, "velocity": 62}, {"time": 2692, "pitch": 71, "duration": 3, "velocity": 59}, {"time": 2695, "pitch": 74, "duration": 3, "velocity": 74}, {"time": 2699, "pitch": 76, "duration": 5, "velocity": 59}, {"time": 2705, "pitch": 74, "duration": 5, "velocity": 62}, {"time": 2711, "pitch": 79, "duration": 5, "velocity": 59}, {"time": 2717, "pitch": 78, "duration": 3, "velocity": 60}, {"time": 2720, "pitch": 76, "duration": 3, "velocity": 60}, {"time": 2723, "pitch": 74, "duration": 2, "velocity": 60}, {"time": 2726, "pitch": 74, "duration": 2, "velocity": 63}, {"time": 2729, "pitch": 71, "duration": 2, "velocity": 58}, {"time": 2732, "pitch": 74, "duration": 2, "velocity": 65}, {"time": 2737, "pitch": 74, "duration": 3, "velocity": 60}, {"time": 2741, "pitch": 71, "duration": 3, "velocity": 59}, {"time": 2744, "pitch": 76, "duration": 5, "velocity": 65}, {"time": 2750, "pitch": 71, "duration": 2, "velocity": 59}, {"time": 2752, "pitch": 69, "duration": 4, "velocity": 59}, {"time": 2756, "pitch": 67, "duration": 4, "velocity": 54}, {"time": 2762, "pitch": 67, "duration": 2, "velocity": 60}, {"time": 2765, "pitch": 69, "duration": 2, "velocity": 59}, {"time": 2768, "pitch": 71, "duration": 5, "velocity": 60}, {"time": 2774, "pitch": 69, "duration": 3, "velocity": 60}, {"time": 2777, "pitch": 67, "duration": 2, "velocity": 56}, {"time": 2780, "pitch": 67, "duration": 4, "velocity": 56}, {"time": 2786, "pitch": 67, "duration": 2, "velocity": 59}, {"time": 2788, "pitch": 76, "duration": 3, "velocity": 61}, {"time": 2792, "pitch": 74, "duration": 2, "velocity": 65}, {"time": 2795, "pitch": 71, "duration": 2, "velocity": 58}, {"time": 2797, "pitch": 69, "duration": 2, "velocity": 60}, {"time": 2801, "pitch": 67, "duration": 5, "velocity": 61}, {"time": 2809, "pitch": 67, "duration": 2, "velocity": 60}, {"time": 2812, "pitch": 69, "duration": 2, "velocity": 59}, {"time": 2815, "pitch": 71, "duration": 2, "velocity": 59}, {"time": 2817, "pitch": 69, "duration": 2, "velocity": 58}, {"time": 2820, "pitch": 69, "duration": 3, "velocity": 59}, {"time": 2823, "pitch": 67, "duration": 2, "velocity": 60}, {"time": 2826, "pitch": 67, "duration": 2, "velocity": 60}, {"time": 2829, "pitch": 64, "duration": 2, "velocity": 64}, {"time": 2832, "pitch": 64, "duration": 2, "velocity": 64}, {"time": 2835, "pitch": 67, "duration": 2, "velocity": 60}, {"time": 2838, "pitch": 76, "duration": 5, "velocity": 62}, {"time": 2844, "pitch": 78, "duration": 3, "velocity": 60}, {"time": 2847, "pitch": 74, "duration": 5, "velocity": 65}, {"time": 2853, "pitch": 79, "duration": 4, "velocity": 64}, {"time": 2858, "pitch": 78, "duration": 3, "velocity": 61}, {"time": 2861, "pitch": 76, "duration": 3, "velocity": 62}, {"time": 2864, "pitch": 74, "duration": 2, "velocity": 59}, {"time": 2867, "pitch": 74, "duration": 2, "velocity": 62}, {"time": 2870, "pitch": 71, "duration": 2, "velocity": 54}, {"time": 2873, "pitch": 74, "duration": 3, "velocity": 65}, {"time": 2877, "pitch": 74, "duration": 3, "velocity": 63}, {"time": 2880, "pitch": 74, "duration": 2, "velocity": 63}, {"time": 2882, "pitch": 71, "duration": 2, "velocity": 59}, {"time": 2885, "pitch": 74, "duration": 2, "velocity": 72}, {"time": 2888, "pitch": 76, "duration": 4, "velocity": 62}, {"time": 2894, "pitch": 74, "duration": 4, "velocity": 75}, {"time": 2900, "pitch": 79, "duration": 4, "velocity": 61}, {"time": 2905, "pitch": 81, "duration": 3, "velocity": 59}, {"time": 2909, "pitch": 78, "duration": 2, "velocity": 62}, {"time": 2912, "pitch": 74, "duration": 1, "velocity": 65}, {"time": 2915, "pitch": 74, "duration": 1, "velocity": 69}, {"time": 2917, "pitch": 71, "duration": 2, "velocity": 63}, {"time": 2920, "pitch": 74, "duration": 3, "velocity": 67}, {"time": 2924, "pitch": 76, "duration": 3, "velocity": 64}, {"time": 2928, "pitch": 79, "duration": 3, "velocity": 60}, {"time": 2932, "pitch": 81, "duration": 5, "velocity": 60}, {"time": 2938, "pitch": 76, "duration": 2, "velocity": 62}, {"time": 2941, "pitch": 79, "duration": 6, "velocity": 59}, {"time": 2949, "pitch": 79, "duration": 2, "velocity": 62}, {"time": 2952, "pitch": 81, "duration": 2, "velocity": 59}, {"time": 2956, "pitch": 83, "duration": 5, "velocity": 59}, {"time": 2961, "pitch": 81, "duration": 3, "velocity": 53}, {"time": 2964, "pitch": 79, "duration": 3, "velocity": 57}, {"time": 2968, "pitch": 76, "duration": 4, "velocity": 56}, {"time": 2973, "pitch": 79, "duration": 3, "velocity": 58}, {"time": 2976, "pitch": 81, "duration": 3, "velocity": 59}, {"time": 2980, "pitch": 78, "duration": 6, "velocity": 62}, {"time": 2986, "pitch": 74, "duration": 2, "velocity": 58}, {"time": 2990, "pitch": 71, "duration": 3, "velocity": 61}, {"time": 2993, "pitch": 79, "duration": 31, "velocity": 55}, {"time": 3030, "pitch": 74, "duration": 3, "velocity": 65}, {"time": 3033, "pitch": 76, "duration": 3, "velocity": 58}, {"time": 3037, "pitch": 79, "duration": 3, "velocity": 58}, {"time": 3041, "pitch": 76, "duration": 2, "velocity": 59}, {"time": 3045, "pitch": 76, "duration": 3, "velocity": 59}, {"time": 3049, "pitch": 74, "duration": 2, "velocity": 59}, {"time": 3052, "pitch": 76, "duration": 4, "velocity": 55}, {"time": 3057, "pitch": 79, "duration": 6, "velocity": 58}, {"time": 3070, "pitch": 83, "duration": 7, "velocity": 52}, {"time": 3077, "pitch": 81, "duration": 5, "velocity": 53}, {"time": 3082, "pitch": 79, "duration": 5, "velocity": 56}, {"time": 3089, "pitch": 79, "duration": 7, "velocity": 49}, {"time": 3096, "pitch": 81, "duration": 17, "velocity": 59}, {"time": 3112, "pitch": 79, "duration": 41, "velocity": 55}]}, {"program": 0, "is_drum": false, "name": "PIANO", "notes": [{"time": 9, "pitch": 42, "duration": 37, "velocity": 55}, {"time": 15, "pitch": 49, "duration": 14, "velocity": 43}, {"time": 20, "pitch": 56, "duration": 6, "velocity": 52}, {"time": 26, "pitch": 58, "duration": 7, "velocity": 52}, {"time": 32, "pitch": 49, "duration": 12, "velocity": 25}, {"time": 37, "pitch": 61, "duration": 8, "velocity": 52}, {"time": 37, "pitch": 54, "duration": 7, "velocity": 47}, {"time": 56, "pitch": 61, "duration": 13, "velocity": 47}, {"time": 56, "pitch": 65, "duration": 17, "velocity": 54}, {"time": 56, "pitch": 46, "duration": 37, "velocity": 58}, {"time": 62, "pitch": 53, "duration": 30, "velocity": 40}, {"time": 69, "pitch": 56, "duration": 25, "velocity": 42}, {"time": 69, "pitch": 58, "duration": 1, "velocity": 31}, {"time": 75, "pitch": 61, "duration": 19, "velocity": 52}, {"time": 100, "pitch": 54, "duration": 3, "velocity": 31}, {"time": 101, "pitch": 59, "duration": 8, "velocity": 42}, {"time": 102, "pitch": 47, "duration": 46, "velocity": 49}, {"time": 102, "pitch": 63, "duration": 10, "velocity": 53}, {"time": 108, "pitch": 54, "duration": 38, "velocity": 39}, {"time": 114, "pitch": 59, "duration": 34, "velocity": 42}, {"time": 120, "pitch": 66, "duration": 28, "velocity": 48}, {"time": 149, "pitch": 54, "duration": 6, "velocity": 45}, {"time": 149, "pitch": 59, "duration": 10, "velocity": 45}, {"time": 150, "pitch": 62, "duration": 12, "velocity": 46}, {"time": 150, "pitch": 47, "duration": 39, "velocity": 58}, {"time": 151, "pitch": 66, "duration": 12, "velocity": 48}, {"time": 156, "pitch": 54, "duration": 12, "velocity": 51}, {"time": 163, "pitch": 59, "duration": 25, "velocity": 48}, {"time": 168, "pitch": 62, "duration": 20, "velocity": 67}, {"time": 175, "pitch": 66, "duration": 14, "velocity": 37}, {"time": 197, "pitch": 65, "duration": 15, "velocity": 53}, {"time": 198, "pitch": 61, "duration": 12, "velocity": 48}, {"time": 199, "pitch": 46, "duration": 45, "velocity": 58}, {"time": 199, "pitch": 58, "duration": 7, "velocity": 48}, {"time": 205, "pitch": 53, "duration": 38, "velocity": 54}, {"time": 211, "pitch": 56, "duration": 5, "velocity": 65}, {"time": 217, "pitch": 61, "duration": 3, "velocity": 62}, {"time": 223, "pitch": 65, "duration": 18, "velocity": 53}, {"time": 223, "pitch": 58, "duration": 9, "velocity": 47}, {"time": 247, "pitch": 46, "duration": 38, "velocity": 58}, {"time": 247, "pitch": 61, "duration": 10, "velocity": 54}, {"time": 247, "pitch": 58, "duration": 7, "velocity": 51}, {"time": 253, "pitch": 53, "duration": 32, "velocity": 46}, {"time": 259, "pitch": 58, "duration": 12, "velocity": 59}, {"time": 264, "pitch": 65, "duration": 14, "velocity": 52}, {"time": 271, "pitch": 70, "duration": 8, "velocity": 56}, {"time": 277, "pitch": 58, "duration": 5, "velocity": 42}, {"time": 283, "pitch": 65, "duration": 4, "velocity": 60}, {"time": 283, "pitch": 61, "duration": 4, "velocity": 58}, {"time": 294, "pitch": 57, "duration": 8, "velocity": 49}, {"time": 296, "pitch": 45, "duration": 37, "velocity": 65}, {"time": 296, "pitch": 64, "duration": 12, "velocity": 51}, {"time": 301, "pitch": 52, "duration": 15, "velocity": 46}, {"time": 307, "pitch": 57, "duration": 19, "velocity": 63}, {"time": 313, "pitch": 69, "duration": 19, "velocity": 54}, {"time": 319, "pitch": 52, "duration": 14, "velocity": 38}, {"time": 325, "pitch": 64, "duration": 7, "velocity": 46}, {"time": 331, "pitch": 57, "duration": 2, "velocity": 61}, {"time": 342, "pitch": 61, "duration": 13, "velocity": 53}, {"time": 343, "pitch": 37, "duration": 3, "velocity": 56}, {"time": 343, "pitch": 66, "duration": 15, "velocity": 52}, {"time": 349, "pitch": 49, "duration": 41, "velocity": 51}, {"time": 355, "pitch": 56, "duration": 34, "velocity": 61}, {"time": 357, "pitch": 61, "duration": 2, "velocity": 53}, {"time": 360, "pitch": 61, "duration": 4, "velocity": 54}, {"time": 360, "pitch": 66, "duration": 5, "velocity": 53}, {"time": 365, "pitch": 65, "duration": 24, "velocity": 46}, {"time": 365, "pitch": 61, "duration": 24, "velocity": 44}, {"time": 388, "pitch": 54, "duration": 2, "velocity": 42}, {"time": 389, "pitch": 58, "duration": 10, "velocity": 34}, {"time": 389, "pitch": 42, "duration": 25, "velocity": 58}, {"time": 390, "pitch": 61, "duration": 6, "velocity": 48}, {"time": 390, "pitch": 66, "duration": 12, "velocity": 58}, {"time": 396, "pitch": 49, "duration": 17, "velocity": 39}, {"time": 402, "pitch": 54, "duration": 9, "velocity": 65}, {"time": 408, "pitch": 61, "duration": 4, "velocity": 54}, {"time": 411, "pitch": 66, "duration": 4, "velocity": 57}, {"time": 415, "pitch": 65, "duration": 20, "velocity": 51}, {"time": 415, "pitch": 46, "duration": 20, "velocity": 56}, {"time": 421, "pitch": 53, "duration": 12, "velocity": 31}, {"time": 428, "pitch": 56, "duration": 4, "velocity": 45}, {"time": 428, "pitch": 61, "duration": 7, "velocity": 52}, {"time": 439, "pitch": 58, "duration": 2, "velocity": 38}, {"time": 440, "pitch": 63, "duration": 8, "velocity": 46}, {"time": 441, "pitch": 39, "duration": 14, "velocity": 58}, {"time": 441, "pitch": 66, "duration": 13, "velocity": 53}, {"time": 447, "pitch": 46, "duration": 7, "velocity": 22}, {"time": 453, "pitch": 58, "duration": 2, "velocity": 59}, {"time": 464, "pitch": 54, "duration": 9, "velocity": 41}, {"time": 465, "pitch": 42, "duration": 18, "velocity": 58}, {"time": 466, "pitch": 64, "duration": 6, "velocity": 48}, {"time": 471, "pitch": 49, "duration": 10, "velocity": 30}, {"time": 477, "pitch": 54, "duration": 3, "velocity": 54}, {"time": 477, "pitch": 58, "duration": 4, "velocity": 52}, {"time": 486, "pitch": 54, "duration": 3, "velocity": 32}, {"time": 488, "pitch": 59, "duration": 7, "velocity": 44}, {"time": 489, "pitch": 47, "duration": 17, "velocity": 51}, {"time": 489, "pitch": 63, "duration": 7, "velocity": 58}, {"time": 495, "pitch": 54, "duration": 7, "velocity": 16}, {"time": 501, "pitch": 59, "duration": 5, "velocity": 51}, {"time": 512, "pitch": 56, "duration": 1, "velocity": 36}, {"time": 512, "pitch": 61, "duration": 13, "velocity": 50}, {"time": 513, "pitch": 37, "duration": 16, "velocity": 49}, {"time": 514, "pitch": 65, "duration": 7, "velocity": 58}, {"time": 519, "pitch": 44, "duration": 9, "velocity": 31}, {"time": 525, "pitch": 56, "duration": 7, "velocity": 63}, {"time": 531, "pitch": 61, "duration": 4, "velocity": 60}, {"time": 537, "pitch": 42, "duration": 22, "velocity": 58}, {"time": 537, "pitch": 58, "duration": 12, "velocity": 51}, {"time": 543, "pitch": 49, "duration": 14, "velocity": 26}, {"time": 549, "pitch": 54, "duration": 7, "velocity": 60}, {"time": 555, "pitch": 56, "duration": 7, "velocity": 69}, {"time": 561, "pitch": 54, "duration": 8, "velocity": 48}, {"time": 562, "pitch": 42, "duration": 21, "velocity": 59}, {"time": 562, "pitch": 58, "duration": 7, "velocity": 50}, {"time": 568, "pitch": 49, "duration": 13, "velocity": 31}, {"time": 574, "pitch": 58, "duration": 7, "velocity": 52}, {"time": 574, "pitch": 54, "duration": 9, "velocity": 49}, {"time": 585, "pitch": 54, "duration": 2, "velocity": 46}, {"time": 586, "pitch": 59, "duration": 12, "velocity": 49}, {"time": 586, "pitch": 47, "duration": 20, "velocity": 72}, {"time": 591, "pitch": 51, "duration": 15, "velocity": 27}, {"time": 598, "pitch": 63, "duration": 7, "velocity": 60}, {"time": 603, "pitch": 54, "duration": 4, "velocity": 59}, {"time": 609, "pitch": 47, "duration": 18, "velocity": 40}, {"time": 610, "pitch": 54, "duration": 10, "velocity": 45}, {"time": 610, "pitch": 59, "duration": 8, "velocity": 40}, {"time": 622, "pitch": 59, "duration": 5, "velocity": 58}, {"time": 622, "pitch": 63, "duration": 6, "velocity": 57}, {"time": 633, "pitch": 58, "duration": 9, "velocity": 45}, {"time": 634, "pitch": 61, "duration": 8, "velocity": 51}, {"time": 634, "pitch": 46, "duration": 16, "velocity": 59}, {"time": 639, "pitch": 53, "duration": 9, "velocity": 42}, {"time": 645, "pitch": 61, "duration": 5, "velocity": 51}, {"time": 645, "pitch": 65, "duration": 5, "velocity": 57}, {"time": 645, "pitch": 58, "duration": 5, "velocity": 44}, {"time": 656, "pitch": 58, "duration": 2, "velocity": 39}, {"time": 657, "pitch": 63, "duration": 7, "velocity": 50}, {"time": 658, "pitch": 39, "duration": 15, "velocity": 57}, {"time": 658, "pitch": 66, "duration": 11, "velocity": 53}, {"time": 663, "pitch": 46, "duration": 9, "velocity": 34}, {"time": 670, "pitch": 58, "duration": 3, "velocity": 52}, {"time": 670, "pitch": 65, "duration": 5, "velocity": 59}, {"time": 680, "pitch": 56, "duration": 3, "velocity": 43}, {"time": 681, "pitch": 59, "duration": 8, "velocity": 47}, {"time": 681, "pitch": 44, "duration": 21, "velocity": 58}, {"time": 682, "pitch": 63, "duration": 12, "velocity": 54}, {"time": 687, "pitch": 51, "duration": 12, "velocity": 29}, {"time": 693, "pitch": 59, "duration": 5, "velocity": 65}, {"time": 705, "pitch": 56, "duration": 2, "velocity": 41}, {"time": 705, "pitch": 60, "duration": 13, "velocity": 48}, {"time": 706, "pitch": 63, "duration": 12, "velocity": 49}, {"time": 706, "pitch": 44, "duration": 16, "velocity": 58}, {"time": 706, "pitch": 66, "duration": 9, "velocity": 47}, {"time": 712, "pitch": 51, "duration": 8, "velocity": 43}, {"time": 718, "pitch": 56, "duration": 9, "velocity": 59}, {"time": 729, "pitch": 66, "duration": 18, "velocity": 60}, {"time": 729, "pitch": 37, "duration": 4, "velocity": 56}, {"time": 741, "pitch": 49, "duration": 11, "velocity": 60}, {"time": 744, "pitch": 56, "duration": 8, "velocity": 53}, {"time": 748, "pitch": 61, "duration": 3, "velocity": 61}, {"time": 751, "pitch": 66, "duration": 4, "velocity": 61}, {"time": 754, "pitch": 49, "duration": 18, "velocity": 62}, {"time": 754, "pitch": 61, "duration": 18, "velocity": 55}, {"time": 754, "pitch": 65, "duration": 18, "velocity": 58}, {"time": 776, "pitch": 54, "duration": 7, "velocity": 43}, {"time": 777, "pitch": 42, "duration": 14, "velocity": 60}, {"time": 777, "pitch": 58, "duration": 7, "velocity": 53}, {"time": 778, "pitch": 61, "duration": 7, "velocity": 22}, {"time": 782, "pitch": 49, "duration": 7, "velocity": 28}, {"time": 787, "pitch": 61, "duration": 5, "velocity": 54}, {"time": 788, "pitch": 54, "duration": 1, "velocity": 49}, {"time": 788, "pitch": 58, "duration": 2, "velocity": 46}, {"time": 796, "pitch": 56, "duration": 3, "velocity": 44}, {"time": 798, "pitch": 57, "duration": 1, "velocity": 44}, {"time": 799, "pitch": 58, "duration": 6, "velocity": 52}, {"time": 799, "pitch": 46, "duration": 16, "velocity": 59}, {"time": 805, "pitch": 53, "duration": 8, "velocity": 41}, {"time": 811, "pitch": 62, "duration": 3, "velocity": 60}, {"time": 811, "pitch": 56, "duration": 3, "velocity": 65}, {"time": 821, "pitch": 58, "duration": 2, "velocity": 32}, {"time": 822, "pitch": 63, "duration": 2, "velocity": 50}, {"time": 823, "pitch": 66, "duration": 8, "velocity": 54}, {"time": 823, "pitch": 39, "duration": 18, "velocity": 61}, {"time": 829, "pitch": 46, "duration": 7, "velocity": 34}, {"time": 835, "pitch": 58, "duration": 5, "velocity": 64}, {"time": 838, "pitch": 63, "duration": 3, "velocity": 54}, {"time": 841, "pitch": 66, "duration": 1, "velocity": 59}, {"time": 847, "pitch": 42, "duration": 15, "velocity": 53}, {"time": 847, "pitch": 64, "duration": 5, "velocity": 57}, {"time": 847, "pitch": 54, "duration": 6, "velocity": 55}, {"time": 853, "pitch": 49, "duration": 9, "velocity": 49}, {"time": 859, "pitch": 54, "duration": 3, "velocity": 60}, {"time": 859, "pitch": 61, "duration": 4, "velocity": 60}, {"time": 871, "pitch": 47, "duration": 16, "velocity": 60}, {"time": 871, "pitch": 59, "duration": 6, "velocity": 49}, {"time": 871, "pitch": 63, "duration": 8, "velocity": 57}, {"time": 877, "pitch": 54, "duration": 10, "velocity": 22}, {"time": 883, "pitch": 59, "duration": 3, "velocity": 59}, {"time": 883, "pitch": 63, "duration": 5, "velocity": 59}, {"time": 883, "pitch": 66, "duration": 5, "velocity": 58}, {"time": 893, "pitch": 56, "duration": 3, "velocity": 31}, {"time": 894, "pitch": 61, "duration": 6, "velocity": 48}, {"time": 895, "pitch": 49, "duration": 18, "velocity": 58}, {"time": 895, "pitch": 65, "duration": 7, "velocity": 58}, {"time": 901, "pitch": 56, "duration": 4, "velocity": 58}, {"time": 907, "pitch": 61, "duration": 4, "velocity": 59}, {"time": 907, "pitch": 56, "duration": 4, "velocity": 58}, {"time": 913, "pitch": 59, "duration": 6, "velocity": 60}, {"time": 920, "pitch": 42, "duration": 18, "velocity": 62}, {"time": 926, "pitch": 49, "duration": 12, "velocity": 57}, {"time": 932, "pitch": 54, "duration": 5, "velocity": 67}, {"time": 935, "pitch": 58, "duration": 3, "velocity": 60}, {"time": 938, "pitch": 61, "duration": 1, "velocity": 65}, {"time": 943, "pitch": 49, "duration": 2, "velocity": 56}, {"time": 944, "pitch": 37, "duration": 6, "velocity": 59}, {"time": 944, "pitch": 52, "duration": 1, "velocity": 48}, {"time": 945, "pitch": 56, "duration": 5, "velocity": 58}, {"time": 946, "pitch": 44, "duration": 3, "velocity": 54}, {"time": 949, "pitch": 49, "duration": 2, "velocity": 64}, {"time": 955, "pitch": 42, "duration": 10, "velocity": 58}, {"time": 955, "pitch": 54, "duration": 4, "velocity": 58}, {"time": 955, "pitch": 58, "duration": 5, "velocity": 55}, {"time": 958, "pitch": 49, "duration": 5, "velocity": 54}, {"time": 961, "pitch": 54, "duration": 4, "velocity": 64}, {"time": 964, "pitch": 58, "duration": 2, "velocity": 59}, {"time": 968, "pitch": 59, "duration": 12, "velocity": 60}, {"time": 968, "pitch": 47, "duration": 17, "velocity": 69}, {"time": 973, "pitch": 51, "duration": 12, "velocity": 47}, {"time": 979, "pitch": 63, "duration": 7, "velocity": 60}, {"time": 985, "pitch": 54, "duration": 1, "velocity": 63}, {"time": 989, "pitch": 56, "duration": 2, "velocity": 54}, {"time": 990, "pitch": 61, "duration": 6, "velocity": 49}, {"time": 991, "pitch": 49, "duration": 18, "velocity": 56}, {"time": 991, "pitch": 65, "duration": 7, "velocity": 59}, {"time": 997, "pitch": 56, "duration": 3, "velocity": 50}, {"time": 1003, "pitch": 61, "duration": 5, "velocity": 59}, {"time": 1003, "pitch": 56, "duration": 4, "velocity": 58}, {"time": 1014, "pitch": 58, "duration": 3, "velocity": 41}, {"time": 1015, "pitch": 61, "duration": 2, "velocity": 50}, {"time": 1016, "pitch": 46, "duration": 15, "velocity": 59}, {"time": 1016, "pitch": 65, "duration": 8, "velocity": 58}, {"time": 1022, "pitch": 53, "duration": 8, "velocity": 53}, {"time": 1027, "pitch": 58, "duration": 6, "velocity": 58}, {"time": 1027, "pitch": 61, "duration": 5, "velocity": 67}, {"time": 1038, "pitch": 58, "duration": 1, "velocity": 37}, {"time": 1038, "pitch": 63, "duration": 2, "velocity": 49}, {"time": 1039, "pitch": 66, "duration": 10, "velocity": 59}, {"time": 1039, "pitch": 51, "duration": 14, "velocity": 61}, {"time": 1045, "pitch": 58, "duration": 6, "velocity": 58}, {"time": 1051, "pitch": 65, "duration": 7, "velocity": 64}, {"time": 1061, "pitch": 56, "duration": 3, "velocity": 43}, {"time": 1062, "pitch": 59, "duration": 11, "velocity": 47}, {"time": 1063, "pitch": 63, "duration": 13, "velocity": 53}, {"time": 1064, "pitch": 44, "duration": 14, "velocity": 54}, {"time": 1069, "pitch": 51, "duration": 9, "velocity": 42}, {"time": 1075, "pitch": 56, "duration": 2, "velocity": 64}, {"time": 1085, "pitch": 54, "duration": 14, "velocity": 38}, {"time": 1086, "pitch": 59, "duration": 12, "velocity": 59}, {"time": 1087, "pitch": 47, "duration": 20, "velocity": 64}, {"time": 1088, "pitch": 62, "duration": 9, "velocity": 58}, {"time": 1089, "pitch": 66, "duration": 11, "velocity": 59}, {"time": 1100, "pitch": 59, "duration": 5, "velocity": 53}, {"time": 1100, "pitch": 62, "duration": 6, "velocity": 57}, {"time": 1112, "pitch": 42, "duration": 21, "velocity": 59}, {"time": 1112, "pitch": 54, "duration": 4, "velocity": 48}, {"time": 1113, "pitch": 58, "duration": 7, "velocity": 49}, {"time": 1113, "pitch": 61, "duration": 4, "velocity": 51}, {"time": 1118, "pitch": 49, "duration": 13, "velocity": 48}, {"time": 1123, "pitch": 56, "duration": 7, "velocity": 67}, {"time": 1129, "pitch": 58, "duration": 4, "velocity": 64}, {"time": 1134, "pitch": 54, "duration": 2, "velocity": 42}, {"time": 1134, "pitch": 61, "duration": 1, "velocity": 32}, {"time": 1135, "pitch": 58, "duration": 1, "velocity": 53}, {"time": 1135, "pitch": 42, "duration": 20, "velocity": 60}, {"time": 1136, "pitch": 61, "duration": 3, "velocity": 59}, {"time": 1141, "pitch": 49, "duration": 13, "velocity": 52}, {"time": 1144, "pitch": 54, "duration": 4, "velocity": 58}, {"time": 1147, "pitch": 66, "duration": 3, "velocity": 67}, {"time": 1149, "pitch": 61, "duration": 4, "velocity": 60}, {"time": 1152, "pitch": 54, "duration": 3, "velocity": 60}, {"time": 1158, "pitch": 42, "duration": 22, "velocity": 60}, {"time": 1158, "pitch": 58, "duration": 6, "velocity": 52}, {"time": 1158, "pitch": 54, "duration": 10, "velocity": 58}, {"time": 1164, "pitch": 49, "duration": 14, "velocity": 41}, {"time": 1171, "pitch": 61, "duration": 7, "velocity": 59}, {"time": 1171, "pitch": 58, "duration": 4, "velocity": 59}, {"time": 1177, "pitch": 54, "duration": 7, "velocity": 51}, {"time": 1183, "pitch": 42, "duration": 19, "velocity": 58}, {"time": 1183, "pitch": 66, "duration": 6, "velocity": 50}, {"time": 1186, "pitch": 49, "duration": 11, "velocity": 47}, {"time": 1189, "pitch": 54, "duration": 5, "velocity": 57}, {"time": 1192, "pitch": 58, "duration": 2, "velocity": 51}, {"time": 1195, "pitch": 58, "duration": 6, "velocity": 58}, {"time": 1195, "pitch": 61, "duration": 7, "velocity": 60}, {"time": 1195, "pitch": 54, "duration": 5, "velocity": 59}, {"time": 1201, "pitch": 49, "duration": 2, "velocity": 58}, {"time": 1206, "pitch": 58, "duration": 3, "velocity": 49}, {"time": 1207, "pitch": 61, "duration": 6, "velocity": 51}, {"time": 1207, "pitch": 46, "duration": 19, "velocity": 60}, {"time": 1210, "pitch": 53, "duration": 10, "velocity": 51}, {"time": 1213, "pitch": 58, "duration": 4, "velocity": 58}, {"time": 1216, "pitch": 61, "duration": 1, "velocity": 58}, {"time": 1219, "pitch": 61, "duration": 6, "velocity": 67}, {"time": 1219, "pitch": 65, "duration": 6, "velocity": 67}, {"time": 1219, "pitch": 58, "duration": 4, "velocity": 58}, {"time": 1222, "pitch": 53, "duration": 3, "velocity": 53}, {"time": 1225, "pitch": 58, "duration": 3, "velocity": 54}, {"time": 1230, "pitch": 58, "duration": 1, "velocity": 37}, {"time": 1231, "pitch": 63, "duration": 1, "velocity": 50}, {"time": 1231, "pitch": 66, "duration": 10, "velocity": 55}, {"time": 1231, "pitch": 39, "duration": 15, "velocity": 60}, {"time": 1237, "pitch": 46, "duration": 8, "velocity": 41}, {"time": 1243, "pitch": 65, "duration": 6, "velocity": 62}, {"time": 1243, "pitch": 58, "duration": 5, "velocity": 60}, {"time": 1249, "pitch": 63, "duration": 1, "velocity": 58}, {"time": 1255, "pitch": 66, "duration": 7, "velocity": 53}, {"time": 1255, "pitch": 47, "duration": 15, "velocity": 59}, {"time": 1255, "pitch": 59, "duration": 8, "velocity": 48}, {"time": 1255, "pitch": 63, "duration": 8, "velocity": 56}, {"time": 1260, "pitch": 54, "duration": 9, "velocity": 43}, {"time": 1267, "pitch": 63, "duration": 6, "velocity": 64}, {"time": 1267, "pitch": 59, "duration": 4, "velocity": 67}, {"time": 1267, "pitch": 66, "duration": 5, "velocity": 60}, {"time": 1273, "pitch": 47, "duration": 1, "velocity": 60}, {"time": 1279, "pitch": 46, "duration": 17, "velocity": 60}, {"time": 1279, "pitch": 61, "duration": 6, "velocity": 60}, {"time": 1279, "pitch": 56, "duration": 4, "velocity": 59}, {"time": 1284, "pitch": 53, "duration": 9, "velocity": 46}, {"time": 1291, "pitch": 61, "duration": 5, "velocity": 62}, {"time": 1291, "pitch": 58, "duration": 4, "velocity": 56}, {"time": 1291, "pitch": 65, "duration": 6, "velocity": 60}, {"time": 1296, "pitch": 58, "duration": 2, "velocity": 56}, {"time": 1302, "pitch": 44, "duration": 16, "velocity": 59}, {"time": 1302, "pitch": 56, "duration": 6, "velocity": 59}, {"time": 1302, "pitch": 63, "duration": 6, "velocity": 57}, {"time": 1308, "pitch": 51, "duration": 7, "velocity": 43}, {"time": 1314, "pitch": 59, "duration": 6, "velocity": 67}, {"time": 1315, "pitch": 56, "duration": 3, "velocity": 61}, {"time": 1317, "pitch": 51, "duration": 2, "velocity": 57}, {"time": 1320, "pitch": 44, "duration": 2, "velocity": 59}, {"time": 1323, "pitch": 56, "duration": 3, "velocity": 69}, {"time": 1326, "pitch": 37, "duration": 2, "velocity": 58}, {"time": 1326, "pitch": 61, "duration": 6, "velocity": 63}, {"time": 1326, "pitch": 56, "duration": 5, "velocity": 63}, {"time": 1332, "pitch": 49, "duration": 10, "velocity": 59}, {"time": 1335, "pitch": 56, "duration": 4, "velocity": 59}, {"time": 1338, "pitch": 65, "duration": 8, "velocity": 69}, {"time": 1338, "pitch": 61, "duration": 4, "velocity": 65}, {"time": 1341, "pitch": 56, "duration": 2, "velocity": 58}, {"time": 1345, "pitch": 61, "duration": 5, "velocity": 61}, {"time": 1353, "pitch": 61, "duration": 3, "velocity": 55}, {"time": 1353, "pitch": 66, "duration": 8, "velocity": 55}, {"time": 1353, "pitch": 42, "duration": 22, "velocity": 60}, {"time": 1359, "pitch": 49, "duration": 12, "velocity": 44}, {"time": 1364, "pitch": 61, "duration": 7, "velocity": 59}, {"time": 1364, "pitch": 54, "duration": 7, "velocity": 61}, {"time": 1370, "pitch": 58, "duration": 2, "velocity": 60}, {"time": 1376, "pitch": 42, "duration": 16, "velocity": 59}, {"time": 1376, "pitch": 66, "duration": 6, "velocity": 59}, {"time": 1382, "pitch": 49, "duration": 6, "velocity": 40}, {"time": 1388, "pitch": 61, "duration": 6, "velocity": 60}, {"time": 1388, "pitch": 58, "duration": 4, "velocity": 62}, {"time": 1388, "pitch": 54, "duration": 3, "velocity": 62}, {"time": 1391, "pitch": 49, "duration": 1, "velocity": 59}, {"time": 1394, "pitch": 54, "duration": 4, "velocity": 65}, {"time": 1397, "pitch": 58, "duration": 2, "velocity": 58}, {"time": 1400, "pitch": 46, "duration": 22, "velocity": 59}, {"time": 1400, "pitch": 58, "duration": 6, "velocity": 52}, {"time": 1400, "pitch": 61, "duration": 5, "velocity": 59}, {"time": 1406, "pitch": 53, "duration": 7, "velocity": 45}, {"time": 1412, "pitch": 61, "duration": 9, "velocity": 60}, {"time": 1412, "pitch": 65, "duration": 11, "velocity": 62}, {"time": 1412, "pitch": 58, "duration": 6, "velocity": 58}, {"time": 1418, "pitch": 53, "duration": 5, "velocity": 54}, {"time": 1424, "pitch": 65, "duration": 6, "velocity": 58}, {"time": 1424, "pitch": 51, "duration": 18, "velocity": 67}, {"time": 1425, "pitch": 58, "duration": 3, "velocity": 53}, {"time": 1430, "pitch": 58, "duration": 5, "velocity": 63}, {"time": 1436, "pitch": 63, "duration": 6, "velocity": 63}, {"time": 1436, "pitch": 66, "duration": 7, "velocity": 59}, {"time": 1442, "pitch": 58, "duration": 2, "velocity": 59}, {"time": 1447, "pitch": 47, "duration": 20, "velocity": 62}, {"time": 1448, "pitch": 59, "duration": 7, "velocity": 50}, {"time": 1448, "pitch": 63, "duration": 9, "velocity": 55}, {"time": 1453, "pitch": 54, "duration": 13, "velocity": 36}, {"time": 1458, "pitch": 59, "duration": 2, "velocity": 30}, {"time": 1459, "pitch": 63, "duration": 2, "velocity": 53}, {"time": 1460, "pitch": 66, "duration": 6, "velocity": 58}, {"time": 1465, "pitch": 59, "duration": 2, "velocity": 59}, {"time": 1471, "pitch": 58, "duration": 4, "velocity": 56}, {"time": 1471, "pitch": 61, "duration": 5, "velocity": 57}, {"time": 1471, "pitch": 46, "duration": 7, "velocity": 60}, {"time": 1481, "pitch": 58, "duration": 2, "velocity": 43}, {"time": 1482, "pitch": 63, "duration": 3, "velocity": 52}, {"time": 1483, "pitch": 39, "duration": 6, "velocity": 65}, {"time": 1483, "pitch": 66, "duration": 7, "velocity": 54}, {"time": 1486, "pitch": 46, "duration": 3, "velocity": 47}, {"time": 1489, "pitch": 58, "duration": 2, "velocity": 64}, {"time": 1495, "pitch": 56, "duration": 10, "velocity": 47}, {"time": 1496, "pitch": 44, "duration": 20, "velocity": 59}, {"time": 1496, "pitch": 59, "duration": 3, "velocity": 57}, {"time": 1496, "pitch": 63, "duration": 8, "velocity": 58}, {"time": 1501, "pitch": 51, "duration": 7, "velocity": 42}, {"time": 1507, "pitch": 59, "duration": 6, "velocity": 69}, {"time": 1510, "pitch": 51, "duration": 4, "velocity": 47}, {"time": 1513, "pitch": 56, "duration": 3, "velocity": 53}, {"time": 1518, "pitch": 56, "duration": 2, "velocity": 52}, {"time": 1519, "pitch": 61, "duration": 6, "velocity": 58}, {"time": 1519, "pitch": 49, "duration": 22, "velocity": 59}, {"time": 1520, "pitch": 65, "duration": 7, "velocity": 59}, {"time": 1525, "pitch": 56, "duration": 4, "velocity": 56}, {"time": 1531, "pitch": 61, "duration": 6, "velocity": 58}, {"time": 1531, "pitch": 56, "duration": 4, "velocity": 60}, {"time": 1537, "pitch": 59, "duration": 5, "velocity": 57}, {"time": 1543, "pitch": 58, "duration": 7, "velocity": 49}, {"time": 1543, "pitch": 54, "duration": 7, "velocity": 47}, {"time": 1543, "pitch": 42, "duration": 20, "velocity": 58}, {"time": 1549, "pitch": 49, "duration": 15, "velocity": 43}, {"time": 1554, "pitch": 56, "duration": 7, "velocity": 58}, {"time": 1561, "pitch": 58, "duration": 28, "velocity": 60}, {"time": 1566, "pitch": 54, "duration": 23, "velocity": 27}, {"time": 1567, "pitch": 61, "duration": 23, "velocity": 54}, {"time": 1590, "pitch": 39, "duration": 26, "velocity": 62}, {"time": 1593, "pitch": 46, "duration": 21, "velocity": 41}, {"time": 1596, "pitch": 58, "duration": 6, "velocity": 43}, {"time": 1599, "pitch": 63, "duration": 15, "velocity": 50}, {"time": 1614, "pitch": 66, "duration": 1, "velocity": 58}, {"time": 1619, "pitch": 58, "duration": 3, "velocity": 39}, {"time": 1625, "pitch": 58, "duration": 5, "velocity": 50}, {"time": 1625, "pitch": 66, "duration": 5, "velocity": 53}, {"time": 1625, "pitch": 63, "duration": 4, "velocity": 51}, {"time": 1636, "pitch": 59, "duration": 18, "velocity": 43}, {"time": 1637, "pitch": 47, "duration": 36, "velocity": 59}, {"time": 1637, "pitch": 63, "duration": 17, "velocity": 43}, {"time": 1653, "pitch": 54, "duration": 19, "velocity": 40}, {"time": 1657, "pitch": 59, "duration": 15, "velocity": 42}, {"time": 1659, "pitch": 66, "duration": 15, "velocity": 59}, {"time": 1682, "pitch": 54, "duration": 3, "velocity": 45}, {"time": 1683, "pitch": 59, "duration": 6, "velocity": 51}, {"time": 1684, "pitch": 62, "duration": 3, "velocity": 54}, {"time": 1684, "pitch": 47, "duration": 14, "velocity": 74}, {"time": 1689, "pitch": 54, "duration": 8, "velocity": 52}, {"time": 1692, "pitch": 59, "duration": 6, "velocity": 64}, {"time": 1697, "pitch": 62, "duration": 4, "velocity": 72}, {"time": 1700, "pitch": 54, "duration": 4, "velocity": 59}, {"time": 1703, "pitch": 59, "duration": 3, "velocity": 19}, {"time": 1706, "pitch": 40, "duration": 16, "velocity": 64}, {"time": 1709, "pitch": 47, "duration": 13, "velocity": 48}, {"time": 1712, "pitch": 52, "duration": 9, "velocity": 50}, {"time": 1715, "pitch": 56, "duration": 7, "velocity": 58}, {"time": 1721, "pitch": 64, "duration": 10, "velocity": 57}, {"time": 1724, "pitch": 52, "duration": 5, "velocity": 58}, {"time": 1730, "pitch": 45, "duration": 17, "velocity": 74}, {"time": 1733, "pitch": 52, "duration": 14, "velocity": 43}, {"time": 1736, "pitch": 57, "duration": 10, "velocity": 54}, {"time": 1739, "pitch": 61, "duration": 12, "velocity": 56}, {"time": 1745, "pitch": 64, "duration": 4, "velocity": 54}, {"time": 1748, "pitch": 69, "duration": 6, "velocity": 57}, {"time": 1751, "pitch": 57, "duration": 3, "velocity": 62}, {"time": 1754, "pitch": 42, "duration": 21, "velocity": 59}, {"time": 1756, "pitch": 49, "duration": 18, "velocity": 40}, {"time": 1759, "pitch": 54, "duration": 4, "velocity": 49}, {"time": 1763, "pitch": 56, "duration": 6, "velocity": 62}, {"time": 1769, "pitch": 57, "duration": 8, "velocity": 64}, {"time": 1775, "pitch": 61, "duration": 4, "velocity": 58}, {"time": 1779, "pitch": 38, "duration": 19, "velocity": 60}, {"time": 1781, "pitch": 45, "duration": 21, "velocity": 51}, {"time": 1785, "pitch": 50, "duration": 12, "velocity": 59}, {"time": 1788, "pitch": 57, "duration": 6, "velocity": 55}, {"time": 1794, "pitch": 54, "duration": 15, "velocity": 45}, {"time": 1797, "pitch": 57, "duration": 10, "velocity": 51}, {"time": 1800, "pitch": 62, "duration": 12, "velocity": 53}, {"time": 1803, "pitch": 38, "duration": 18, "velocity": 59}, {"time": 1806, "pitch": 45, "duration": 14, "velocity": 48}, {"time": 1809, "pitch": 50, "duration": 9, "velocity": 58}, {"time": 1812, "pitch": 54, "duration": 6, "velocity": 48}, {"time": 1818, "pitch": 57, "duration": 1, "velocity": 58}, {"time": 1827, "pitch": 66, "duration": 17, "velocity": 53}, {"time": 1827, "pitch": 61, "duration": 4, "velocity": 52}, {"time": 1827, "pitch": 37, "duration": 5, "velocity": 58}, {"time": 1833, "pitch": 61, "duration": 10, "velocity": 56}, {"time": 1839, "pitch": 49, "duration": 10, "velocity": 51}, {"time": 1842, "pitch": 56, "duration": 7, "velocity": 46}, {"time": 1845, "pitch": 61, "duration": 4, "velocity": 58}, {"time": 1848, "pitch": 66, "duration": 2, "velocity": 54}, {"time": 1851, "pitch": 65, "duration": 22, "velocity": 57}, {"time": 1851, "pitch": 49, "duration": 22, "velocity": 55}, {"time": 1851, "pitch": 61, "duration": 22, "velocity": 51}, {"time": 1871, "pitch": 66, "duration": 6, "velocity": 43}, {"time": 1872, "pitch": 61, "duration": 1, "velocity": 52}, {"time": 1872, "pitch": 58, "duration": 5, "velocity": 51}, {"time": 1873, "pitch": 54, "duration": 5, "velocity": 52}, {"time": 1874, "pitch": 42, "duration": 18, "velocity": 59}, {"time": 1879, "pitch": 49, "duration": 12, "velocity": 37}, {"time": 1885, "pitch": 61, "duration": 5, "velocity": 60}, {"time": 1885, "pitch": 58, "duration": 5, "velocity": 60}, {"time": 1891, "pitch": 54, "duration": 5, "velocity": 60}, {"time": 1896, "pitch": 56, "duration": 1, "velocity": 53}, {"time": 1897, "pitch": 46, "duration": 14, "velocity": 59}, {"time": 1897, "pitch": 58, "duration": 6, "velocity": 52}, {"time": 1902, "pitch": 53, "duration": 9, "velocity": 58}, {"time": 1908, "pitch": 62, "duration": 4, "velocity": 59}, {"time": 1908, "pitch": 56, "duration": 4, "velocity": 60}, {"time": 1918, "pitch": 58, "duration": 3, "velocity": 37}, {"time": 1918, "pitch": 63, "duration": 8, "velocity": 49}, {"time": 1920, "pitch": 39, "duration": 15, "velocity": 59}, {"time": 1920, "pitch": 66, "duration": 5, "velocity": 53}, {"time": 1925, "pitch": 46, "duration": 9, "velocity": 23}, {"time": 1931, "pitch": 66, "duration": 7, "velocity": 59}, {"time": 1931, "pitch": 63, "duration": 6, "velocity": 60}, {"time": 1931, "pitch": 58, "duration": 3, "velocity": 58}, {"time": 1937, "pitch": 58, "duration": 3, "velocity": 58}, {"time": 1942, "pitch": 61, "duration": 7, "velocity": 59}, {"time": 1943, "pitch": 49, "duration": 7, "velocity": 58}, {"time": 1948, "pitch": 56, "duration": 3, "velocity": 63}, {"time": 1954, "pitch": 54, "duration": 6, "velocity": 58}, {"time": 1954, "pitch": 58, "duration": 7, "velocity": 55}, {"time": 1954, "pitch": 42, "duration": 10, "velocity": 58}, {"time": 1960, "pitch": 49, "duration": 3, "velocity": 47}, {"time": 1966, "pitch": 59, "duration": 7, "velocity": 48}, {"time": 1966, "pitch": 54, "duration": 3, "velocity": 54}, {"time": 1966, "pitch": 47, "duration": 18, "velocity": 60}, {"time": 1971, "pitch": 54, "duration": 3, "velocity": 35}, {"time": 1977, "pitch": 54, "duration": 3, "velocity": 57}, {"time": 1977, "pitch": 59, "duration": 6, "velocity": 60}, {"time": 1977, "pitch": 63, "duration": 7, "velocity": 58}, {"time": 1983, "pitch": 54, "duration": 4, "velocity": 46}, {"time": 1986, "pitch": 59, "duration": 3, "velocity": 52}, {"time": 1989, "pitch": 56, "duration": 3, "velocity": 53}, {"time": 1989, "pitch": 61, "duration": 7, "velocity": 54}, {"time": 1989, "pitch": 49, "duration": 13, "velocity": 51}, {"time": 1994, "pitch": 56, "duration": 6, "velocity": 58}, {"time": 2000, "pitch": 61, "duration": 3, "velocity": 60}, {"time": 2000, "pitch": 65, "duration": 3, "velocity": 62}, {"time": 2010, "pitch": 54, "duration": 4, "velocity": 44}, {"time": 2011, "pitch": 58, "duration": 5, "velocity": 45}, {"time": 2012, "pitch": 61, "duration": 6, "velocity": 51}, {"time": 2012, "pitch": 42, "duration": 21, "velocity": 59}, {"time": 2017, "pitch": 49, "duration": 7, "velocity": 24}, {"time": 2023, "pitch": 54, "duration": 3, "velocity": 58}, {"time": 2023, "pitch": 61, "duration": 5, "velocity": 58}, {"time": 2026, "pitch": 49, "duration": 6, "velocity": 49}, {"time": 2029, "pitch": 54, "duration": 3, "velocity": 60}, {"time": 2032, "pitch": 56, "duration": 3, "velocity": 59}, {"time": 2035, "pitch": 54, "duration": 4, "velocity": 59}, {"time": 2035, "pitch": 58, "duration": 4, "velocity": 60}, {"time": 2035, "pitch": 42, "duration": 18, "velocity": 60}, {"time": 2040, "pitch": 61, "duration": 5, "velocity": 58}, {"time": 2040, "pitch": 54, "duration": 5, "velocity": 57}, {"time": 2040, "pitch": 58, "duration": 5, "velocity": 46}, {"time": 2047, "pitch": 58, "duration": 4, "velocity": 64}, {"time": 2047, "pitch": 54, "duration": 3, "velocity": 62}, {"time": 2047, "pitch": 61, "duration": 5, "velocity": 67}, {"time": 2047, "pitch": 49, "duration": 5, "velocity": 60}, {"time": 2052, "pitch": 54, "duration": 7, "velocity": 62}, {"time": 2058, "pitch": 59, "duration": 6, "velocity": 49}, {"time": 2058, "pitch": 47, "duration": 14, "velocity": 62}, {"time": 2058, "pitch": 63, "duration": 6, "velocity": 58}, {"time": 2069, "pitch": 59, "duration": 7, "velocity": 58}, {"time": 2075, "pitch": 54, "duration": 2, "velocity": 59}, {"time": 2079, "pitch": 54, "duration": 2, "velocity": 38}, {"time": 2080, "pitch": 59, "duration": 2, "velocity": 47}, {"time": 2081, "pitch": 47, "duration": 14, "velocity": 55}, {"time": 2081, "pitch": 66, "duration": 3, "velocity": 56}, {"time": 2081, "pitch": 68, "duration": 3, "velocity": 55}, {"time": 2087, "pitch": 54, "duration": 7, "velocity": 36}, {"time": 2093, "pitch": 59, "duration": 4, "velocity": 64}, {"time": 2093, "pitch": 63, "duration": 6, "velocity": 60}, {"time": 2098, "pitch": 47, "duration": 5, "velocity": 65}, {"time": 2104, "pitch": 56, "duration": 6, "velocity": 54}, {"time": 2104, "pitch": 61, "duration": 6, "velocity": 52}, {"time": 2104, "pitch": 46, "duration": 14, "velocity": 58}, {"time": 2110, "pitch": 53, "duration": 7, "velocity": 33}, {"time": 2116, "pitch": 56, "duration": 4, "velocity": 58}, {"time": 2116, "pitch": 61, "duration": 4, "velocity": 60}, {"time": 2116, "pitch": 65, "duration": 5, "velocity": 60}, {"time": 2121, "pitch": 46, "duration": 3, "velocity": 59}, {"time": 2124, "pitch": 58, "duration": 9, "velocity": 49}, {"time": 2127, "pitch": 39, "duration": 14, "velocity": 51}, {"time": 2127, "pitch": 63, "duration": 7, "velocity": 54}, {"time": 2133, "pitch": 46, "duration": 7, "velocity": 46}, {"time": 2139, "pitch": 63, "duration": 3, "velocity": 60}, {"time": 2139, "pitch": 66, "duration": 4, "velocity": 60}, {"time": 2139, "pitch": 58, "duration": 3, "velocity": 58}, {"time": 2148, "pitch": 56, "duration": 3, "velocity": 47}, {"time": 2149, "pitch": 59, "duration": 6, "velocity": 41}, {"time": 2150, "pitch": 63, "duration": 5, "velocity": 51}, {"time": 2150, "pitch": 44, "duration": 18, "velocity": 59}, {"time": 2156, "pitch": 51, "duration": 6, "velocity": 37}, {"time": 2162, "pitch": 59, "duration": 5, "velocity": 64}, {"time": 2162, "pitch": 56, "duration": 2, "velocity": 58}, {"time": 2162, "pitch": 63, "duration": 6, "velocity": 59}, {"time": 2164, "pitch": 51, "duration": 3, "velocity": 52}, {"time": 2167, "pitch": 56, "duration": 2, "velocity": 62}, {"time": 2173, "pitch": 47, "duration": 16, "velocity": 61}, {"time": 2173, "pitch": 54, "duration": 3, "velocity": 52}, {"time": 2173, "pitch": 62, "duration": 6, "velocity": 52}, {"time": 2173, "pitch": 59, "duration": 6, "velocity": 48}, {"time": 2178, "pitch": 54, "duration": 5, "velocity": 58}, {"time": 2185, "pitch": 62, "duration": 5, "velocity": 61}, {"time": 2185, "pitch": 66, "duration": 5, "velocity": 58}, {"time": 2185, "pitch": 59, "duration": 5, "velocity": 64}, {"time": 2185, "pitch": 54, "duration": 3, "velocity": 60}, {"time": 2190, "pitch": 54, "duration": 2, "velocity": 64}, {"time": 2196, "pitch": 42, "duration": 21, "velocity": 59}, {"time": 2196, "pitch": 54, "duration": 6, "velocity": 55}, {"time": 2196, "pitch": 58, "duration": 6, "velocity": 55}, {"time": 2202, "pitch": 49, "duration": 9, "velocity": 50}, {"time": 2205, "pitch": 54, "duration": 1, "velocity": 48}, {"time": 2207, "pitch": 56, "duration": 3, "velocity": 60}, {"time": 2210, "pitch": 58, "duration": 3, "velocity": 60}, {"time": 2213, "pitch": 49, "duration": 3, "velocity": 63}, {"time": 2216, "pitch": 54, "duration": 2, "velocity": 53}, {"time": 2219, "pitch": 58, "duration": 4, "velocity": 60}, {"time": 2219, "pitch": 61, "duration": 4, "velocity": 61}, {"time": 2219, "pitch": 42, "duration": 14, "velocity": 62}, {"time": 2219, "pitch": 54, "duration": 4, "velocity": 59}, {"time": 2225, "pitch": 49, "duration": 7, "velocity": 58}, {"time": 2228, "pitch": 54, "duration": 1, "velocity": 50}, {"time": 2231, "pitch": 58, "duration": 5, "velocity": 63}, {"time": 2231, "pitch": 61, "duration": 6, "velocity": 64}, {"time": 2231, "pitch": 54, "duration": 6, "velocity": 59}, {"time": 2231, "pitch": 66, "duration": 5, "velocity": 57}, {"time": 2236, "pitch": 42, "duration": 3, "velocity": 59}, {"time": 2242, "pitch": 42, "duration": 21, "velocity": 60}, {"time": 2242, "pitch": 61, "duration": 6, "velocity": 56}, {"time": 2242, "pitch": 54, "duration": 6, "velocity": 59}, {"time": 2248, "pitch": 49, "duration": 7, "velocity": 42}, {"time": 2254, "pitch": 58, "duration": 4, "velocity": 63}, {"time": 2254, "pitch": 54, "duration": 4, "velocity": 61}, {"time": 2257, "pitch": 49, "duration": 6, "velocity": 52}, {"time": 2260, "pitch": 54, "duration": 3, "velocity": 61}, {"time": 2263, "pitch": 56, "duration": 3, "velocity": 62}, {"time": 2266, "pitch": 58, "duration": 6, "velocity": 59}, {"time": 2266, "pitch": 42, "duration": 15, "velocity": 59}, {"time": 2271, "pitch": 49, "duration": 7, "velocity": 46}, {"time": 2274, "pitch": 54, "duration": 2, "velocity": 46}, {"time": 2277, "pitch": 61, "duration": 4, "velocity": 60}, {"time": 2277, "pitch": 54, "duration": 4, "velocity": 60}, {"time": 2278, "pitch": 58, "duration": 4, "velocity": 62}, {"time": 2280, "pitch": 49, "duration": 2, "velocity": 62}, {"time": 2283, "pitch": 54, "duration": 2, "velocity": 61}, {"time": 2286, "pitch": 56, "duration": 2, "velocity": 55}, {"time": 2289, "pitch": 58, "duration": 7, "velocity": 57}, {"time": 2289, "pitch": 46, "duration": 21, "velocity": 59}, {"time": 2295, "pitch": 53, "duration": 6, "velocity": 49}, {"time": 2301, "pitch": 65, "duration": 3, "velocity": 62}, {"time": 2301, "pitch": 58, "duration": 3, "velocity": 60}, {"time": 2303, "pitch": 53, "duration": 6, "velocity": 58}, {"time": 2306, "pitch": 61, "duration": 3, "velocity": 59}, {"time": 2309, "pitch": 58, "duration": 2, "velocity": 50}, {"time": 2312, "pitch": 63, "duration": 6, "velocity": 58}, {"time": 2312, "pitch": 58, "duration": 3, "velocity": 59}, {"time": 2312, "pitch": 51, "duration": 15, "velocity": 60}, {"time": 2318, "pitch": 58, "duration": 2, "velocity": 53}, {"time": 2324, "pitch": 66, "duration": 5, "velocity": 59}, {"time": 2324, "pitch": 63, "duration": 5, "velocity": 65}, {"time": 2324, "pitch": 58, "duration": 5, "velocity": 61}, {"time": 2329, "pitch": 49, "duration": 1, "velocity": 69}, {"time": 2336, "pitch": 47, "duration": 13, "velocity": 65}, {"time": 2336, "pitch": 59, "duration": 6, "velocity": 51}, {"time": 2336, "pitch": 63, "duration": 7, "velocity": 56}, {"time": 2341, "pitch": 54, "duration": 7, "velocity": 35}, {"time": 2347, "pitch": 59, "duration": 4, "velocity": 64}, {"time": 2348, "pitch": 63, "duration": 6, "velocity": 60}, {"time": 2348, "pitch": 66, "duration": 8, "velocity": 58}, {"time": 2350, "pitch": 54, "duration": 4, "velocity": 52}, {"time": 2353, "pitch": 47, "duration": 3, "velocity": 72}, {"time": 2356, "pitch": 59, "duration": 3, "velocity": 60}, {"time": 2359, "pitch": 58, "duration": 5, "velocity": 47}, {"time": 2359, "pitch": 46, "duration": 20, "velocity": 59}, {"time": 2363, "pitch": 53, "duration": 15, "velocity": 56}, {"time": 2365, "pitch": 58, "duration": 4, "velocity": 58}, {"time": 2368, "pitch": 61, "duration": 3, "velocity": 55}, {"time": 2371, "pitch": 63, "duration": 6, "velocity": 60}, {"time": 2377, "pitch": 61, "duration": 2, "velocity": 74}, {"time": 2383, "pitch": 44, "duration": 15, "velocity": 59}, {"time": 2383, "pitch": 59, "duration": 6, "velocity": 53}, {"time": 2383, "pitch": 56, "duration": 4, "velocity": 58}, {"time": 2388, "pitch": 51, "duration": 6, "velocity": 44}, {"time": 2394, "pitch": 63, "duration": 5, "velocity": 64}, {"time": 2394, "pitch": 59, "duration": 5, "velocity": 69}, {"time": 2394, "pitch": 56, "duration": 3, "velocity": 62}, {"time": 2397, "pitch": 51, "duration": 1, "velocity": 61}, {"time": 2400, "pitch": 44, "duration": 2, "velocity": 59}, {"time": 2403, "pitch": 56, "duration": 2, "velocity": 65}, {"time": 2406, "pitch": 37, "duration": 1, "velocity": 60}, {"time": 2406, "pitch": 56, "duration": 5, "velocity": 64}, {"time": 2406, "pitch": 61, "duration": 6, "velocity": 64}, {"time": 2412, "pitch": 49, "duration": 10, "velocity": 60}, {"time": 2415, "pitch": 56, "duration": 3, "velocity": 60}, {"time": 2418, "pitch": 61, "duration": 3, "velocity": 64}, {"time": 2418, "pitch": 65, "duration": 6, "velocity": 74}, {"time": 2420, "pitch": 56, "duration": 2, "velocity": 58}, {"time": 2424, "pitch": 61, "duration": 4, "velocity": 67}, {"time": 2429, "pitch": 66, "duration": 3, "velocity": 55}, {"time": 2429, "pitch": 42, "duration": 17, "velocity": 59}, {"time": 2429, "pitch": 61, "duration": 3, "velocity": 58}, {"time": 2435, "pitch": 49, "duration": 7, "velocity": 47}, {"time": 2441, "pitch": 58, "duration": 5, "velocity": 63}, {"time": 2441, "pitch": 54, "duration": 5, "velocity": 62}, {"time": 2447, "pitch": 49, "duration": 4, "velocity": 57}, {"time": 2450, "pitch": 54, "duration": 8, "velocity": 59}, {"time": 2453, "pitch": 42, "duration": 15, "velocity": 59}, {"time": 2453, "pitch": 58, "duration": 5, "velocity": 60}, {"time": 2453, "pitch": 66, "duration": 5, "velocity": 59}, {"time": 2453, "pitch": 61, "duration": 5, "velocity": 59}, {"time": 2458, "pitch": 49, "duration": 7, "velocity": 41}, {"time": 2465, "pitch": 61, "duration": 3, "velocity": 63}, {"time": 2465, "pitch": 58, "duration": 3, "velocity": 63}, {"time": 2465, "pitch": 54, "duration": 3, "velocity": 61}, {"time": 2467, "pitch": 49, "duration": 2, "velocity": 60}, {"time": 2470, "pitch": 54, "duration": 3, "velocity": 65}, {"time": 2473, "pitch": 56, "duration": 3, "velocity": 58}, {"time": 2476, "pitch": 46, "duration": 22, "velocity": 59}, {"time": 2476, "pitch": 58, "duration": 8, "velocity": 53}, {"time": 2482, "pitch": 53, "duration": 8, "velocity": 47}, {"time": 2488, "pitch": 65, "duration": 6, "velocity": 60}, {"time": 2488, "pitch": 58, "duration": 6, "velocity": 61}, {"time": 2494, "pitch": 53, "duration": 3, "velocity": 50}, {"time": 2496, "pitch": 58, "duration": 2, "velocity": 51}, {"time": 2500, "pitch": 63, "duration": 6, "velocity": 60}, {"time": 2500, "pitch": 58, "duration": 2, "velocity": 60}, {"time": 2500, "pitch": 51, "duration": 17, "velocity": 62}, {"time": 2505, "pitch": 58, "duration": 3, "velocity": 48}, {"time": 2511, "pitch": 63, "duration": 5, "velocity": 60}, {"time": 2511, "pitch": 66, "duration": 5, "velocity": 60}, {"time": 2511, "pitch": 58, "duration": 6, "velocity": 60}, {"time": 2523, "pitch": 47, "duration": 22, "velocity": 62}, {"time": 2523, "pitch": 59, "duration": 7, "velocity": 57}, {"time": 2523, "pitch": 63, "duration": 7, "velocity": 56}, {"time": 2528, "pitch": 54, "duration": 15, "velocity": 36}, {"time": 2535, "pitch": 59, "duration": 5, "velocity": 53}, {"time": 2535, "pitch": 63, "duration": 8, "velocity": 53}, {"time": 2535, "pitch": 66, "duration": 7, "velocity": 54}, {"time": 2547, "pitch": 58, "duration": 3, "velocity": 54}, {"time": 2547, "pitch": 65, "duration": 5, "velocity": 59}, {"time": 2547, "pitch": 46, "duration": 9, "velocity": 60}, {"time": 2552, "pitch": 58, "duration": 4, "velocity": 62}, {"time": 2558, "pitch": 58, "duration": 2, "velocity": 58}, {"time": 2558, "pitch": 63, "duration": 6, "velocity": 57}, {"time": 2558, "pitch": 51, "duration": 7, "velocity": 60}, {"time": 2564, "pitch": 58, "duration": 2, "velocity": 61}, {"time": 2570, "pitch": 63, "duration": 9, "velocity": 55}, {"time": 2570, "pitch": 44, "duration": 20, "velocity": 60}, {"time": 2570, "pitch": 56, "duration": 6, "velocity": 55}, {"time": 2570, "pitch": 59, "duration": 8, "velocity": 46}, {"time": 2576, "pitch": 51, "duration": 13, "velocity": 44}, {"time": 2578, "pitch": 56, "duration": 2, "velocity": 50}, {"time": 2581, "pitch": 58, "duration": 4, "velocity": 59}, {"time": 2584, "pitch": 59, "duration": 3, "velocity": 69}, {"time": 2587, "pitch": 63, "duration": 2, "velocity": 59}, {"time": 2590, "pitch": 56, "duration": 2, "velocity": 53}, {"time": 2594, "pitch": 61, "duration": 6, "velocity": 60}, {"time": 2594, "pitch": 56, "duration": 3, "velocity": 59}, {"time": 2594, "pitch": 37, "duration": 3, "velocity": 59}, {"time": 2599, "pitch": 56, "duration": 3, "velocity": 58}, {"time": 2605, "pitch": 65, "duration": 5, "velocity": 63}, {"time": 2605, "pitch": 61, "duration": 5, "velocity": 63}, {"time": 2605, "pitch": 56, "duration": 3, "velocity": 61}, {"time": 2608, "pitch": 49, "duration": 2, "velocity": 57}, {"time": 2611, "pitch": 56, "duration": 4, "velocity": 60}, {"time": 2614, "pitch": 61, "duration": 1, "velocity": 50}, {"time": 2617, "pitch": 58, "duration": 6, "velocity": 57}, {"time": 2617, "pitch": 54, "duration": 6, "velocity": 52}, {"time": 2617, "pitch": 42, "duration": 22, "velocity": 59}, {"time": 2623, "pitch": 49, "duration": 6, "velocity": 38}, {"time": 2629, "pitch": 54, "duration": 3, "velocity": 60}, {"time": 2629, "pitch": 58, "duration": 2, "velocity": 61}, {"time": 2631, "pitch": 49, "duration": 7, "velocity": 48}, {"time": 2635, "pitch": 56, "duration": 5, "velocity": 52}, {"time": 2640, "pitch": 62, "duration": 6, "velocity": 57}, {"time": 2640, "pitch": 38, "duration": 11, "velocity": 65}, {"time": 2640, "pitch": 50, "duration": 4, "velocity": 63}, {"time": 2643, "pitch": 45, "duration": 8, "velocity": 58}, {"time": 2646, "pitch": 50, "duration": 2, "velocity": 67}, {"time": 2650, "pitch": 62, "duration": 2, "velocity": 52}, {"time": 2650, "pitch": 50, "duration": 2, "velocity": 60}, {"time": 2653, "pitch": 50, "duration": 7, "velocity": 60}, {"time": 2653, "pitch": 62, "duration": 19, "velocity": 57}, {"time": 2653, "pitch": 38, "duration": 18, "velocity": 72}, {"time": 2653, "pitch": 45, "duration": 18, "velocity": 72}, {"time": 2661, "pitch": 50, "duration": 10, "velocity": 69}, {"time": 2673, "pitch": 55, "duration": 5, "velocity": 58}, {"time": 2673, "pitch": 62, "duration": 6, "velocity": 57}, {"time": 2673, "pitch": 43, "duration": 21, "velocity": 59}, {"time": 2677, "pitch": 50, "duration": 9, "velocity": 50}, {"time": 2679, "pitch": 55, "duration": 4, "velocity": 54}, {"time": 2682, "pitch": 59, "duration": 1, "velocity": 50}, {"time": 2685, "pitch": 55, "duration": 6, "velocity": 59}, {"time": 2685, "pitch": 62, "duration": 15, "velocity": 58}, {"time": 2690, "pitch": 50, "duration": 4, "velocity": 48}, {"time": 2693, "pitch": 55, "duration": 6, "velocity": 52}, {"time": 2696, "pitch": 43, "duration": 15, "velocity": 59}, {"time": 2699, "pitch": 50, "duration": 11, "velocity": 48}, {"time": 2702, "pitch": 55, "duration": 3, "velocity": 56}, {"time": 2705, "pitch": 59, "duration": 1, "velocity": 48}, {"time": 2708, "pitch": 59, "duration": 6, "velocity": 64}, {"time": 2708, "pitch": 55, "duration": 6, "velocity": 59}, {"time": 2708, "pitch": 62, "duration": 7, "velocity": 60}, {"time": 2714, "pitch": 43, "duration": 3, "velocity": 60}, {"time": 2720, "pitch": 66, "duration": 5, "velocity": 56}, {"time": 2720, "pitch": 47, "duration": 19, "velocity": 62}, {"time": 2720, "pitch": 59, "duration": 6, "velocity": 56}, {"time": 2721, "pitch": 62, "duration": 5, "velocity": 58}, {"time": 2726, "pitch": 54, "duration": 12, "velocity": 48}, {"time": 2729, "pitch": 59, "duration": 2, "velocity": 58}, {"time": 2732, "pitch": 71, "duration": 4, "velocity": 59}, {"time": 2732, "pitch": 59, "duration": 4, "velocity": 62}, {"time": 2735, "pitch": 66, "duration": 4, "velocity": 58}, {"time": 2738, "pitch": 62, "duration": 3, "velocity": 60}, {"time": 2741, "pitch": 59, "duration": 2, "velocity": 63}, {"time": 2744, "pitch": 59, "duration": 2, "velocity": 51}, {"time": 2744, "pitch": 64, "duration": 6, "velocity": 60}, {"time": 2744, "pitch": 40, "duration": 25, "velocity": 61}, {"time": 2747, "pitch": 47, "duration": 10, "velocity": 46}, {"time": 2750, "pitch": 59, "duration": 4, "velocity": 52}, {"time": 2753, "pitch": 64, "duration": 1, "velocity": 55}, {"time": 2756, "pitch": 64, "duration": 6, "velocity": 64}, {"time": 2756, "pitch": 59, "duration": 4, "velocity": 59}, {"time": 2756, "pitch": 67, "duration": 7, "velocity": 60}, {"time": 2759, "pitch": 47, "duration": 9, "velocity": 54}, {"time": 2762, "pitch": 59, "duration": 6, "velocity": 64}, {"time": 2765, "pitch": 64, "duration": 3, "velocity": 57}, {"time": 2768, "pitch": 55, "duration": 3, "velocity": 57}, {"time": 2768, "pitch": 48, "duration": 20, "velocity": 63}, {"time": 2768, "pitch": 64, "duration": 7, "velocity": 59}, {"time": 2774, "pitch": 55, "duration": 4, "velocity": 58}, {"time": 2777, "pitch": 60, "duration": 1, "velocity": 55}, {"time": 2780, "pitch": 55, "duration": 2, "velocity": 61}, {"time": 2780, "pitch": 64, "duration": 6, "velocity": 61}, {"time": 2783, "pitch": 55, "duration": 4, "velocity": 58}, {"time": 2786, "pitch": 60, "duration": 3, "velocity": 55}, {"time": 2789, "pitch": 64, "duration": 2, "velocity": 59}, {"time": 2791, "pitch": 59, "duration": 5, "velocity": 54}, {"time": 2791, "pitch": 62, "duration": 6, "velocity": 53}, {"time": 2792, "pitch": 47, "duration": 18, "velocity": 60}, {"time": 2795, "pitch": 54, "duration": 10, "velocity": 48}, {"time": 2798, "pitch": 59, "duration": 4, "velocity": 57}, {"time": 2801, "pitch": 62, "duration": 1, "velocity": 56}, {"time": 2804, "pitch": 66, "duration": 4, "velocity": 61}, {"time": 2804, "pitch": 59, "duration": 3, "velocity": 53}, {"time": 2806, "pitch": 54, "duration": 3, "velocity": 44}, {"time": 2809, "pitch": 62, "duration": 3, "velocity": 61}, {"time": 2812, "pitch": 59, "duration": 1, "velocity": 50}, {"time": 2815, "pitch": 60, "duration": 6, "velocity": 47}, {"time": 2815, "pitch": 57, "duration": 6, "velocity": 54}, {"time": 2815, "pitch": 45, "duration": 15, "velocity": 59}, {"time": 2820, "pitch": 52, "duration": 7, "velocity": 49}, {"time": 2827, "pitch": 60, "duration": 3, "velocity": 72}, {"time": 2827, "pitch": 57, "duration": 2, "velocity": 60}, {"time": 2829, "pitch": 52, "duration": 1, "velocity": 59}, {"time": 2832, "pitch": 57, "duration": 4, "velocity": 60}, {"time": 2835, "pitch": 60, "duration": 2, "velocity": 61}, {"time": 2838, "pitch": 62, "duration": 3, "velocity": 58}, {"time": 2838, "pitch": 57, "duration": 4, "velocity": 58}, {"time": 2838, "pitch": 38, "duration": 16, "velocity": 62}, {"time": 2844, "pitch": 45, "duration": 7, "velocity": 49}, {"time": 2847, "pitch": 57, "duration": 1, "velocity": 58}, {"time": 2850, "pitch": 66, "duration": 6, "velocity": 62}, {"time": 2850, "pitch": 62, "duration": 5, "velocity": 61}, {"time": 2850, "pitch": 57, "duration": 3, "velocity": 64}, {"time": 2852, "pitch": 45, "duration": 2, "velocity": 58}, {"time": 2856, "pitch": 57, "duration": 1, "velocity": 62}, {"time": 2861, "pitch": 43, "duration": 18, "velocity": 59}, {"time": 2862, "pitch": 62, "duration": 4, "velocity": 54}, {"time": 2862, "pitch": 55, "duration": 4, "velocity": 53}, {"time": 2862, "pitch": 59, "duration": 4, "velocity": 50}, {"time": 2867, "pitch": 50, "duration": 7, "velocity": 49}, {"time": 2874, "pitch": 55, "duration": 2, "velocity": 59}, {"time": 2874, "pitch": 59, "duration": 2, "velocity": 64}, {"time": 2874, "pitch": 62, "duration": 3, "velocity": 62}, {"time": 2876, "pitch": 50, "duration": 2, "velocity": 54}, {"time": 2879, "pitch": 55, "duration": 4, "velocity": 59}, {"time": 2885, "pitch": 55, "duration": 4, "velocity": 59}, {"time": 2885, "pitch": 59, "duration": 3, "velocity": 58}, {"time": 2885, "pitch": 62, "duration": 4, "velocity": 58}, {"time": 2885, "pitch": 43, "duration": 16, "velocity": 59}, {"time": 2890, "pitch": 50, "duration": 7, "velocity": 43}, {"time": 2893, "pitch": 55, "duration": 1, "velocity": 51}, {"time": 2896, "pitch": 55, "duration": 4, "velocity": 62}, {"time": 2896, "pitch": 59, "duration": 4, "velocity": 69}, {"time": 2896, "pitch": 67, "duration": 4, "velocity": 53}, {"time": 2896, "pitch": 62, "duration": 3, "velocity": 62}, {"time": 2899, "pitch": 50, "duration": 2, "velocity": 56}, {"time": 2902, "pitch": 55, "duration": 2, "velocity": 69}, {"time": 2905, "pitch": 57, "duration": 3, "velocity": 53}, {"time": 2908, "pitch": 59, "duration": 7, "velocity": 59}, {"time": 2908, "pitch": 47, "duration": 19, "velocity": 59}, {"time": 2914, "pitch": 54, "duration": 7, "velocity": 54}, {"time": 2920, "pitch": 71, "duration": 4, "velocity": 60}, {"time": 2920, "pitch": 59, "duration": 4, "velocity": 67}, {"time": 2920, "pitch": 66, "duration": 4, "velocity": 63}, {"time": 2920, "pitch": 62, "duration": 4, "velocity": 69}, {"time": 2923, "pitch": 54, "duration": 4, "velocity": 58}, {"time": 2926, "pitch": 59, "duration": 4, "velocity": 62}, {"time": 2929, "pitch": 62, "duration": 2, "velocity": 59}, {"time": 2932, "pitch": 59, "duration": 4, "velocity": 56}, {"time": 2932, "pitch": 67, "duration": 7, "velocity": 49}, {"time": 2932, "pitch": 40, "duration": 17, "velocity": 61}, {"time": 2935, "pitch": 47, "duration": 10, "velocity": 47}, {"time": 2938, "pitch": 59, "duration": 3, "velocity": 60}, {"time": 2941, "pitch": 64, "duration": 1, "velocity": 59}, {"time": 2944, "pitch": 59, "duration": 3, "velocity": 61}, {"time": 2944, "pitch": 67, "duration": 6, "velocity": 59}, {"time": 2946, "pitch": 47, "duration": 3, "velocity": 58}, {"time": 2949, "pitch": 59, "duration": 4, "velocity": 63}, {"time": 2952, "pitch": 64, "duration": 5, "velocity": 62}, {"time": 2955, "pitch": 48, "duration": 19, "velocity": 65}, {"time": 2958, "pitch": 55, "duration": 15, "velocity": 50}, {"time": 2961, "pitch": 60, "duration": 3, "velocity": 55}, {"time": 2964, "pitch": 62, "duration": 3, "velocity": 58}, {"time": 2967, "pitch": 64, "duration": 2, "velocity": 59}, {"time": 2969, "pitch": 67, "duration": 4, "velocity": 57}, {"time": 2972, "pitch": 60, "duration": 3, "velocity": 56}, {"time": 2978, "pitch": 47, "duration": 10, "velocity": 59}, {"time": 2979, "pitch": 59, "duration": 4, "velocity": 54}, {"time": 2979, "pitch": 62, "duration": 6, "velocity": 53}, {"time": 2982, "pitch": 54, "duration": 5, "velocity": 49}, {"time": 2985, "pitch": 59, "duration": 5, "velocity": 58}, {"time": 2987, "pitch": 62, "duration": 5, "velocity": 58}, {"time": 2991, "pitch": 40, "duration": 41, "velocity": 64}, {"time": 2994, "pitch": 47, "duration": 37, "velocity": 45}, {"time": 2998, "pitch": 52, "duration": 4, "velocity": 58}, {"time": 3001, "pitch": 54, "duration": 3, "velocity": 67}, {"time": 3005, "pitch": 55, "duration": 5, "velocity": 60}, {"time": 3009, "pitch": 59, "duration": 3, "velocity": 67}, {"time": 3012, "pitch": 55, "duration": 2, "velocity": 46}, {"time": 3014, "pitch": 59, "duration": 1, "velocity": 59}, {"time": 3015, "pitch": 64, "duration": 1, "velocity": 61}, {"time": 3019, "pitch": 66, "duration": 2, "velocity": 61}, {"time": 3024, "pitch": 67, "duration": 8, "velocity": 52}, {"time": 3038, "pitch": 45, "duration": 21, "velocity": 58}, {"time": 3040, "pitch": 52, "duration": 17, "velocity": 51}, {"time": 3041, "pitch": 55, "duration": 22, "velocity": 47}, {"time": 3042, "pitch": 60, "duration": 24, "velocity": 46}, {"time": 3043, "pitch": 64, "duration": 23, "velocity": 53}, {"time": 3068, "pitch": 38, "duration": 69, "velocity": 62}, {"time": 3072, "pitch": 45, "duration": 2, "velocity": 44}, {"time": 3074, "pitch": 50, "duration": 3, "velocity": 59}, {"time": 3077, "pitch": 54, "duration": 1, "velocity": 59}, {"time": 3079, "pitch": 50, "duration": 25, "velocity": 61}, {"time": 3082, "pitch": 57, "duration": 22, "velocity": 46}, {"time": 3085, "pitch": 60, "duration": 4, "velocity": 58}, {"time": 3089, "pitch": 66, "duration": 2, "velocity": 54}, {"time": 3093, "pitch": 69, "duration": 3, "velocity": 50}, {"time": 3098, "pitch": 74, "duration": 27, "velocity": 64}, {"time": 3141, "pitch": 40, "duration": 11, "velocity": 59}, {"time": 3145, "pitch": 47, "duration": 6, "velocity": 35}, {"time": 3149, "pitch": 52, "duration": 4, "velocity": 61}, {"time": 3153, "pitch": 55, "duration": 2, "velocity": 54}, {"time": 3157, "pitch": 54, "duration": 9, "velocity": 51}, {"time": 3157, "pitch": 38, "duration": 12, "velocity": 60}, {"time": 3161, "pitch": 45, "duration": 7, "velocity": 36}, {"time": 3166, "pitch": 50, "duration": 3, "velocity": 51}, {"time": 3174, "pitch": 36, "duration": 39, "velocity": 56}, {"time": 3179, "pitch": 43, "duration": 33, "velocity": 32}, {"time": 3184, "pitch": 52, "duration": 2, "velocity": 53}, {"time": 3188, "pitch": 55, "duration": 3, "velocity": 48}, {"time": 3194, "pitch": 60, "duration": 19, "velocity": 51}, {"time": 3227, "pitch": 55, "duration": 6, "velocity": 48}, {"time": 3227, "pitch": 43, "duration": 17, "velocity": 59}, {"time": 3227, "pitch": 59, "duration": 10, "velocity": 46}, {"time": 3228, "pitch": 62, "duration": 8, "velocity": 51}, {"time": 3232, "pitch": 50, "duration": 5, "velocity": 39}, {"time": 3236, "pitch": 55, "duration": 6, "velocity": 55}, {"time": 3241, "pitch": 50, "duration": 4, "velocity": 25}, {"time": 3246, "pitch": 43, "duration": 43, "velocity": 59}, {"time": 3252, "pitch": 50, "duration": 37, "velocity": 45}, {"time": 3257, "pitch": 55, "duration": 14, "velocity": 44}, {"time": 3259, "pitch": 60, "duration": 12, "velocity": 49}, {"time": 3266, "pitch": 64, "duration": 36, "velocity": 48}, {"time": 3297, "pitch": 43, "duration": 66, "velocity": 58}, {"time": 3301, "pitch": 50, "duration": 61, "velocity": 44}, {"time": 3303, "pitch": 55, "duration": 3, "velocity": 46}, {"time": 3306, "pitch": 57, "duration": 2, "velocity": 49}, {"time": 3309, "pitch": 59, "duration": 3, "velocity": 49}, {"time": 3312, "pitch": 62, "duration": 2, "velocity": 50}, {"time": 3315, "pitch": 67, "duration": 2, "velocity": 46}, {"time": 3318, "pitch": 69, "duration": 2, "velocity": 46}, {"time": 3322, "pitch": 71, "duration": 4, "velocity": 41}, {"time": 3325, "pitch": 74, "duration": 2, "velocity": 53}, {"time": 3328, "pitch": 71, "duration": 1, "velocity": 43}, {"time": 3329, "pitch": 74, "duration": 1, "velocity": 52}, {"time": 3329, "pitch": 79, "duration": 2, "velocity": 50}, {"time": 3333, "pitch": 81, "duration": 2, "velocity": 44}, {"time": 3337, "pitch": 83, "duration": 5, "velocity": 28}, {"time": 3343, "pitch": 86, "duration": 3, "velocity": 35}, {"time": 3353, "pitch": 95, "duration": 1, "velocity": 47}], "annotations": [{"time": 26, "annotation": {"number": 64, "value": 127}, "group": "control_change"}, {"time": 55, "annotation": {"number": 64, "value": 0}, "group": "control_change"}, {"time": 64, "annotation": {"number": 64, "value": 127}, "group": "control_change"}, {"time": 101, "annotation": {"number": 64, "value": 0}, "group": "control_change"}, {"time": 104, "annotation": {"number": 64, "value": 127}, "group": "control_change"}, {"time": 158, "annotation": {"number": 64, "value": 127}, "group": "control_change"}, {"time": 158, "annotation": {"number": 64, "value": 0}, "group": "control_change"}, {"time": 197, "annotation": {"number": 64, "value": 0}, "group": "control_change"}, {"time": 204, "annotation": {"number": 64, "value": 127}, "group": "control_change"}, {"time": 246, "annotation": {"number": 64, "value": 0}, "group": "control_change"}, {"time": 249, "annotation": {"number": 64, "value": 127}, "group": "control_change"}, {"time": 249, "annotation": {"number": 64, "value": 0}, "group": "control_change"}, {"time": 295, "annotation": {"number": 64, "value": 0}, "group": "control_change"}, {"time": 297, "annotation": {"number": 64, "value": 127}, "group": "control_change"}, {"time": 343, "annotation": {"number": 64, "value": 127}, "group": "control_change"}, {"time": 343, "annotation": {"number": 64, "value": 0}, "group": "control_change"}, {"time": 392, "annotation": {"number": 64, "value": 127}, "group": "control_change"}, {"time": 392, "annotation": {"number": 64, "value": 0}, "group": "control_change"}, {"time": 416, "annotation": {"number": 64, "value": 0}, "group": "control_change"}, {"time": 418, "annotation": {"number": 64, "value": 127}, "group": "control_change"}, {"time": 439, "annotation": {"number": 64, "value": 0}, "group": "control_change"}, {"time": 442, "annotation": {"number": 64, "value": 127}, "group": "control_change"}, {"time": 442, "annotation": {"number": 64, "value": 0}, "group": "control_change"}, {"time": 443, "annotation": {"number": 64, "value": 127}, "group": "control_change"}, {"time": 464, "annotation": {"number": 64, "value": 0}, "group": "control_change"}, {"time": 466, "annotation": {"number": 64, "value": 127}, "group": "control_change"}, {"time": 487, "annotation": {"number": 64, "value": 0}, "group": "control_change"}, {"time": 490, "annotation": {"number": 64, "value": 127}, "group": "control_change"}, {"time": 512, "annotation": {"number": 64, "value": 0}, "group": "control_change"}, {"time": 515, "annotation": {"number": 64, "value": 127}, "group": "control_change"}, {"time": 537, "annotation": {"number": 64, "value": 0}, "group": "control_change"}, {"time": 541, "annotation": {"number": 64, "value": 127}, "group": "control_change"}, {"time": 561, "annotation": {"number": 64, "value": 0}, "group": "control_change"}, {"time": 563, "annotation": {"number": 64, "value": 127}, "group": "control_change"}, {"time": 586, "annotation": {"number": 64, "value": 0}, "group": "control_change"}, {"time": 588, "annotation": {"number": 64, "value": 127}, "group": "control_change"}, {"time": 634, "annotation": {"number": 64, "value": 0}, "group": "control_change"}, {"time": 639, "annotation": {"number": 64, "value": 127}, "group": "control_change"}, {"time": 657, "annotation": {"number": 64, "value": 0}, "group": "control_change"}, {"time": 661, "annotation": {"number": 64, "value": 127}, "group": "control_change"}, {"time": 680, "annotation": {"number": 64, "value": 0}, "group": "control_change"}, {"time": 688, "annotation": {"number": 64, "value": 127}, "group": "control_change"}, {"time": 706, "annotation": {"number": 64, "value": 0}, "group": "control_change"}, {"time": 708, "annotation": {"number": 64, "value": 127}, "group": "control_change"}, {"time": 728, "annotation": {"number": 64, "value": 0}, "group": "control_change"}, {"time": 730, "annotation": {"number": 64, "value": 127}, "group": "control_change"}, {"time": 754, "annotation": {"number": 64, "value": 0}, "group": "control_change"}, {"time": 755, "annotation": {"number": 64, "value": 127}, "group": "control_change"}, {"time": 780, "annotation": {"number": 64, "value": 127}, "group": "control_change"}, {"time": 797, "annotation": {"number": 64, "value": 0}, "group": "control_change"}, {"time": 801, "annotation": {"number": 64, "value": 127}, "group": "control_change"}, {"time": 821, "annotation": {"number": 64, "value": 0}, "group": "control_change"}, {"time": 824, "annotation": {"number": 64, "value": 127}, "group": "control_change"}, {"time": 847, "annotation": {"number": 64, "value": 0}, "group": "control_change"}, {"time": 849, "annotation": {"number": 64, "value": 127}, "group": "control_change"}, {"time": 870, "annotation": {"number": 64, "value": 0}, "group": "control_change"}, {"time": 872, "annotation": {"number": 64, "value": 127}, "group": "control_change"}, {"time": 895, "annotation": {"number": 64, "value": 0}, "group": "control_change"}, {"time": 897, "annotation": {"number": 64, "value": 127}, "group": "control_change"}, {"time": 921, "annotation": {"number": 64, "value": 127}, "group": "control_change"}, {"time": 942, "annotation": {"number": 64, "value": 0}, "group": "control_change"}, {"time": 944, "annotation": {"number": 64, "value": 127}, "group": "control_change"}, {"time": 955, "annotation": {"number": 64, "value": 0}, "group": "control_change"}, {"time": 957, "annotation": {"number": 64, "value": 127}, "group": "control_change"}, {"time": 966, "annotation": {"number": 64, "value": 0}, "group": "control_change"}, {"time": 968, "annotation": {"number": 64, "value": 127}, "group": "control_change"}, {"time": 989, "annotation": {"number": 64, "value": 0}, "group": "control_change"}, {"time": 991, "annotation": {"number": 64, "value": 127}, "group": "control_change"}, {"time": 1015, "annotation": {"number": 64, "value": 0}, "group": "control_change"}, {"time": 1017, "annotation": {"number": 64, "value": 127}, "group": "control_change"}, {"time": 1038, "annotation": {"number": 64, "value": 0}, "group": "control_change"}, {"time": 1040, "annotation": {"number": 64, "value": 127}, "group": "control_change"}, {"time": 1061, "annotation": {"number": 64, "value": 0}, "group": "control_change"}, {"time": 1066, "annotation": {"number": 64, "value": 127}, "group": "control_change"}, {"time": 1085, "annotation": {"number": 64, "value": 0}, "group": "control_change"}, {"time": 1087, "annotation": {"number": 64, "value": 127}, "group": "control_change"}, {"time": 1112, "annotation": {"number": 64, "value": 0}, "group": "control_change"}, {"time": 1115, "annotation": {"number": 64, "value": 127}, "group": "control_change"}, {"time": 1134, "annotation": {"number": 64, "value": 0}, "group": "control_change"}, {"time": 1136, "annotation": {"number": 64, "value": 127}, "group": "control_change"}, {"time": 1156, "annotation": {"number": 64, "value": 0}, "group": "control_change"}, {"time": 1159, "annotation": {"number": 64, "value": 127}, "group": "control_change"}, {"time": 1182, "annotation": {"number": 64, "value": 0}, "group": "control_change"}, {"time": 1184, "annotation": {"number": 64, "value": 127}, "group": "control_change"}, {"time": 1206, "annotation": {"number": 64, "value": 0}, "group": "control_change"}, {"time": 1208, "annotation": {"number": 64, "value": 127}, "group": "control_change"}, {"time": 1230, "annotation": {"number": 64, "value": 0}, "group": "control_change"}, {"time": 1232, "annotation": {"number": 64, "value": 127}, "group": "control_change"}, {"time": 1254, "annotation": {"number": 64, "value": 0}, "group": "control_change"}, {"time": 1256, "annotation": {"number": 64, "value": 127}, "group": "control_change"}, {"time": 1278, "annotation": {"number": 64, "value": 0}, "group": "control_change"}, {"time": 1280, "annotation": {"number": 64, "value": 127}, "group": "control_change"}, {"time": 1301, "annotation": {"number": 64, "value": 0}, "group": "control_change"}, {"time": 1303, "annotation": {"number": 64, "value": 127}, "group": "control_change"}, {"time": 1325, "annotation": {"number": 64, "value": 0}, "group": "control_change"}, {"time": 1326, "annotation": {"number": 64, "value": 127}, "group": "control_change"}, {"time": 1351, "annotation": {"number": 64, "value": 0}, "group": "control_change"}, {"time": 1353, "annotation": {"number": 64, "value": 127}, "group": "control_change"}, {"time": 1375, "annotation": {"number": 64, "value": 0}, "group": "control_change"}, {"time": 1377, "annotation": {"number": 64, "value": 127}, "group": "control_change"}, {"time": 1399, "annotation": {"number": 64, "value": 0}, "group": "control_change"}, {"time": 1402, "annotation": {"number": 64, "value": 127}, "group": "control_change"}, {"time": 1424, "annotation": {"number": 64, "value": 0}, "group": "control_change"}, {"time": 1425, "annotation": {"number": 64, "value": 127}, "group": "control_change"}, {"time": 1446, "annotation": {"number": 64, "value": 0}, "group": "control_change"}, {"time": 1448, "annotation": {"number": 64, "value": 127}, "group": "control_change"}, {"time": 1470, "annotation": {"number": 64, "value": 0}, "group": "control_change"}, {"time": 1472, "annotation": {"number": 64, "value": 127}, "group": "control_change"}, {"time": 1482, "annotation": {"number": 64, "value": 0}, "group": "control_change"}, {"time": 1484, "annotation": {"number": 64, "value": 127}, "group": "control_change"}, {"time": 1495, "annotation": {"number": 64, "value": 0}, "group": "control_change"}, {"time": 1497, "annotation": {"number": 64, "value": 127}, "group": "control_change"}, {"time": 1518, "annotation": {"number": 64, "value": 0}, "group": "control_change"}, {"time": 1520, "annotation": {"number": 64, "value": 127}, "group": "control_change"}, {"time": 1543, "annotation": {"number": 64, "value": 0}, "group": "control_change"}, {"time": 1546, "annotation": {"number": 64, "value": 127}, "group": "control_change"}, {"time": 1587, "annotation": {"number": 64, "value": 0}, "group": "control_change"}, {"time": 1591, "annotation": {"number": 64, "value": 127}, "group": "control_change"}, {"time": 1635, "annotation": {"number": 64, "value": 0}, "group": "control_change"}, {"time": 1637, "annotation": {"number": 64, "value": 127}, "group": "control_change"}, {"time": 1682, "annotation": {"number": 64, "value": 0}, "group": "control_change"}, {"time": 1684, "annotation": {"number": 64, "value": 127}, "group": "control_change"}, {"time": 1706, "annotation": {"number": 64, "value": 0}, "group": "control_change"}, {"time": 1707, "annotation": {"number": 64, "value": 127}, "group": "control_change"}, {"time": 1732, "annotation": {"number": 64, "value": 127}, "group": "control_change"}, {"time": 1732, "annotation": {"number": 64, "value": 0}, "group": "control_change"}, {"time": 1752, "annotation": {"number": 64, "value": 0}, "group": "control_change"}, {"time": 1754, "annotation": {"number": 64, "value": 127}, "group": "control_change"}, {"time": 1778, "annotation": {"number": 64, "value": 0}, "group": "control_change"}, {"time": 1779, "annotation": {"number": 64, "value": 127}, "group": "control_change"}, {"time": 1802, "annotation": {"number": 64, "value": 0}, "group": "control_change"}, {"time": 1804, "annotation": {"number": 64, "value": 127}, "group": "control_change"}, {"time": 1826, "annotation": {"number": 64, "value": 0}, "group": "control_change"}, {"time": 1828, "annotation": {"number": 64, "value": 127}, "group": "control_change"}, {"time": 1850, "annotation": {"number": 64, "value": 0}, "group": "control_change"}, {"time": 1852, "annotation": {"number": 64, "value": 127}, "group": "control_change"}, {"time": 1871, "annotation": {"number": 64, "value": 0}, "group": "control_change"}, {"time": 1874, "annotation": {"number": 64, "value": 127}, "group": "control_change"}, {"time": 1895, "annotation": {"number": 64, "value": 0}, "group": "control_change"}, {"time": 1897, "annotation": {"number": 64, "value": 127}, "group": "control_change"}, {"time": 1918, "annotation": {"number": 64, "value": 0}, "group": "control_change"}, {"time": 1921, "annotation": {"number": 64, "value": 127}, "group": "control_change"}, {"time": 1942, "annotation": {"number": 64, "value": 0}, "group": "control_change"}, {"time": 1943, "annotation": {"number": 64, "value": 127}, "group": "control_change"}, {"time": 1954, "annotation": {"number": 64, "value": 0}, "group": "control_change"}, {"time": 1956, "annotation": {"number": 64, "value": 127}, "group": "control_change"}, {"time": 1965, "annotation": {"number": 64, "value": 0}, "group": "control_change"}, {"time": 1966, "annotation": {"number": 64, "value": 127}, "group": "control_change"}, {"time": 1988, "annotation": {"number": 64, "value": 0}, "group": "control_change"}, {"time": 1990, "annotation": {"number": 64, "value": 127}, "group": "control_change"}, {"time": 2010, "annotation": {"number": 64, "value": 0}, "group": "control_change"}, {"time": 2013, "annotation": {"number": 64, "value": 127}, "group": "control_change"}, {"time": 2034, "annotation": {"number": 64, "value": 0}, "group": "control_change"}, {"time": 2035, "annotation": {"number": 64, "value": 127}, "group": "control_change"}, {"time": 2056, "annotation": {"number": 64, "value": 0}, "group": "control_change"}, {"time": 2058, "annotation": {"number": 64, "value": 127}, "group": "control_change"}, {"time": 2080, "annotation": {"number": 64, "value": 0}, "group": "control_change"}, {"time": 2081, "annotation": {"number": 64, "value": 127}, "group": "control_change"}, {"time": 2103, "annotation": {"number": 64, "value": 0}, "group": "control_change"}, {"time": 2106, "annotation": {"number": 64, "value": 127}, "group": "control_change"}, {"time": 2127, "annotation": {"number": 64, "value": 0}, "group": "control_change"}, {"time": 2128, "annotation": {"number": 64, "value": 127}, "group": "control_change"}, {"time": 2148, "annotation": {"number": 64, "value": 0}, "group": "control_change"}, {"time": 2152, "annotation": {"number": 64, "value": 127}, "group": "control_change"}, {"time": 2172, "annotation": {"number": 64, "value": 0}, "group": "control_change"}, {"time": 2173, "annotation": {"number": 64, "value": 127}, "group": "control_change"}, {"time": 2194, "annotation": {"number": 64, "value": 0}, "group": "control_change"}, {"time": 2197, "annotation": {"number": 64, "value": 127}, "group": "control_change"}, {"time": 2218, "annotation": {"number": 64, "value": 0}, "group": "control_change"}, {"time": 2219, "annotation": {"number": 64, "value": 127}, "group": "control_change"}, {"time": 2241, "annotation": {"number": 64, "value": 0}, "group": "control_change"}, {"time": 2243, "annotation": {"number": 64, "value": 127}, "group": "control_change"}, {"time": 2264, "annotation": {"number": 64, "value": 0}, "group": "control_change"}, {"time": 2267, "annotation": {"number": 64, "value": 127}, "group": "control_change"}, {"time": 2287, "annotation": {"number": 64, "value": 0}, "group": "control_change"}, {"time": 2290, "annotation": {"number": 64, "value": 127}, "group": "control_change"}, {"time": 2311, "annotation": {"number": 64, "value": 0}, "group": "control_change"}, {"time": 2313, "annotation": {"number": 64, "value": 127}, "group": "control_change"}, {"time": 2334, "annotation": {"number": 64, "value": 0}, "group": "control_change"}, {"time": 2336, "annotation": {"number": 64, "value": 127}, "group": "control_change"}, {"time": 2359, "annotation": {"number": 64, "value": 0}, "group": "control_change"}, {"time": 2361, "annotation": {"number": 64, "value": 127}, "group": "control_change"}, {"time": 2382, "annotation": {"number": 64, "value": 0}, "group": "control_change"}, {"time": 2384, "annotation": {"number": 64, "value": 127}, "group": "control_change"}, {"time": 2404, "annotation": {"number": 64, "value": 0}, "group": "control_change"}, {"time": 2406, "annotation": {"number": 64, "value": 127}, "group": "control_change"}, {"time": 2428, "annotation": {"number": 64, "value": 0}, "group": "control_change"}, {"time": 2430, "annotation": {"number": 64, "value": 127}, "group": "control_change"}, {"time": 2452, "annotation": {"number": 64, "value": 0}, "group": "control_change"}, {"time": 2454, "annotation": {"number": 64, "value": 127}, "group": "control_change"}, {"time": 2474, "annotation": {"number": 64, "value": 0}, "group": "control_change"}, {"time": 2476, "annotation": {"number": 64, "value": 127}, "group": "control_change"}, {"time": 2499, "annotation": {"number": 64, "value": 0}, "group": "control_change"}, {"time": 2500, "annotation": {"number": 64, "value": 127}, "group": "control_change"}, {"time": 2521, "annotation": {"number": 64, "value": 0}, "group": "control_change"}, {"time": 2523, "annotation": {"number": 64, "value": 127}, "group": "control_change"}, {"time": 2546, "annotation": {"number": 64, "value": 0}, "group": "control_change"}, {"time": 2548, "annotation": {"number": 64, "value": 127}, "group": "control_change"}, {"time": 2556, "annotation": {"number": 64, "value": 0}, "group": "control_change"}, {"time": 2558, "annotation": {"number": 64, "value": 127}, "group": "control_change"}, {"time": 2570, "annotation": {"number": 64, "value": 0}, "group": "control_change"}, {"time": 2575, "annotation": {"number": 64, "value": 127}, "group": "control_change"}, {"time": 2575, "annotation": {"number": 64, "value": 0}, "group": "control_change"}, {"time": 2576, "annotation": {"number": 64, "value": 127}, "group": "control_change"}, {"time": 2592, "annotation": {"number": 64, "value": 0}, "group": "control_change"}, {"time": 2594, "annotation": {"number": 64, "value": 127}, "group": "control_change"}, {"time": 2616, "annotation": {"number": 64, "value": 0}, "group": "control_change"}, {"time": 2619, "annotation": {"number": 64, "value": 127}, "group": "control_change"}, {"time": 2634, "annotation": {"number": 64, "value": 127}, "group": "control_change"}, {"time": 2638, "annotation": {"number": 64, "value": 0}, "group": "control_change"}, {"time": 2640, "annotation": {"number": 64, "value": 127}, "group": "control_change"}, {"time": 2641, "annotation": {"number": 64, "value": 127}, "group": "control_change"}, {"time": 2668, "annotation": {"number": 64, "value": 0}, "group": "control_change"}, {"time": 2673, "annotation": {"number": 64, "value": 0}, "group": "control_change"}, {"time": 2674, "annotation": {"number": 64, "value": 127}, "group": "control_change"}, {"time": 2674, "annotation": {"number": 64, "value": 0}, "group": "control_change"}, {"time": 2675, "annotation": {"number": 64, "value": 127}, "group": "control_change"}, {"time": 2696, "annotation": {"number": 64, "value": 0}, "group": "control_change"}, {"time": 2698, "annotation": {"number": 64, "value": 127}, "group": "control_change"}, {"time": 2719, "annotation": {"number": 64, "value": 0}, "group": "control_change"}, {"time": 2721, "annotation": {"number": 64, "value": 127}, "group": "control_change"}, {"time": 2743, "annotation": {"number": 64, "value": 0}, "group": "control_change"}, {"time": 2745, "annotation": {"number": 64, "value": 127}, "group": "control_change"}, {"time": 2766, "annotation": {"number": 64, "value": 0}, "group": "control_change"}, {"time": 2769, "annotation": {"number": 64, "value": 127}, "group": "control_change"}, {"time": 2769, "annotation": {"number": 64, "value": 0}, "group": "control_change"}, {"time": 2790, "annotation": {"number": 64, "value": 0}, "group": "control_change"}, {"time": 2793, "annotation": {"number": 64, "value": 127}, "group": "control_change"}, {"time": 2814, "annotation": {"number": 64, "value": 0}, "group": "control_change"}, {"time": 2817, "annotation": {"number": 64, "value": 127}, "group": "control_change"}, {"time": 2836, "annotation": {"number": 64, "value": 0}, "group": "control_change"}, {"time": 2838, "annotation": {"number": 64, "value": 127}, "group": "control_change"}, {"time": 2860, "annotation": {"number": 64, "value": 0}, "group": "control_change"}, {"time": 2862, "annotation": {"number": 64, "value": 127}, "group": "control_change"}, {"time": 2884, "annotation": {"number": 64, "value": 0}, "group": "control_change"}, {"time": 2885, "annotation": {"number": 64, "value": 127}, "group": "control_change"}, {"time": 2906, "annotation": {"number": 64, "value": 0}, "group": "control_change"}, {"time": 2908, "annotation": {"number": 64, "value": 127}, "group": "control_change"}, {"time": 2934, "annotation": {"number": 64, "value": 127}, "group": "control_change"}, {"time": 2934, "annotation": {"number": 64, "value": 0}, "group": "control_change"}, {"time": 2954, "annotation": {"number": 64, "value": 0}, "group": "control_change"}, {"time": 2956, "annotation": {"number": 64, "value": 127}, "group": "control_change"}, {"time": 2978, "annotation": {"number": 64, "value": 0}, "group": "control_change"}, {"time": 2980, "annotation": {"number": 64, "value": 127}, "group": "control_change"}, {"time": 2989, "annotation": {"number": 64, "value": 0}, "group": "control_change"}, {"time": 2992, "annotation": {"number": 64, "value": 127}, "group": "control_change"}, {"time": 3038, "annotation": {"number": 64, "value": 0}, "group": "control_change"}, {"time": 3043, "annotation": {"number": 64, "value": 127}, "group": "control_change"}, {"time": 3070, "annotation": {"number": 64, "value": 0}, "group": "control_change"}, {"time": 3072, "annotation": {"number": 64, "value": 127}, "group": "control_change"}, {"time": 3112, "annotation": {"number": 64, "value": 0}, "group": "control_change"}, {"time": 3146, "annotation": {"number": 64, "value": 127}, "group": "control_change"}, {"time": 3156, "annotation": {"number": 64, "value": 0}, "group": "control_change"}, {"time": 3163, "annotation": {"number": 64, "value": 127}, "group": "control_change"}, {"time": 3164, "annotation": {"number": 64, "value": 0}, "group": "control_change"}, {"time": 3164, "annotation": {"number": 64, "value": 127}, "group": "control_change"}, {"time": 3172, "annotation": {"number": 64, "value": 0}, "group": "control_change"}, {"time": 3175, "annotation": {"number": 64, "value": 127}, "group": "control_change"}, {"time": 3226, "annotation": {"number": 64, "value": 0}, "group": "control_change"}, {"time": 3229, "annotation": {"number": 64, "value": 127}, "group": "control_change"}, {"time": 3245, "annotation": {"number": 64, "value": 0}, "group": "control_change"}, {"time": 3247, "annotation": {"number": 64, "value": 127}, "group": "control_change"}, {"time": 3296, "annotation": {"number": 64, "value": 0}, "group": "control_change"}, {"time": 3302, "annotation": {"number": 64, "value": 127}, "group": "control_change"}, {"time": 3387, "annotation": {"number": 64, "value": 0}, "group": "control_change"}]}]}