{"metadata": {"schema_version": "0.2", "title": "None", "source_filename": "290.mid", "source_format": "midi"}, "resolution": 12, "tempos": [{"time": 0, "qpm": 69.00009660013524}], "time_signatures": [{"time": 0, "numerator": 4, "denominator": 4}], "tracks": [{"program": 0, "is_drum": false, "name": "MELODY", "notes": [{"time": 383, "pitch": 61, "duration": 6, "velocity": 104}, {"time": 389, "pitch": 58, "duration": 6, "velocity": 89}, {"time": 395, "pitch": 66, "duration": 18, "velocity": 98}, {"time": 413, "pitch": 66, "duration": 3, "velocity": 93}, {"time": 416, "pitch": 66, "duration": 3, "velocity": 86}, {"time": 419, "pitch": 65, "duration": 6, "velocity": 90}, {"time": 425, "pitch": 65, "duration": 6, "velocity": 88}, {"time": 431, "pitch": 66, "duration": 6, "velocity": 108}, {"time": 437, "pitch": 66, "duration": 36, "velocity": 108}, {"time": 473, "pitch": 61, "duration": 6, "velocity": 93}, {"time": 479, "pitch": 61, "duration": 6, "velocity": 98}, {"time": 485, "pitch": 58, "duration": 4, "velocity": 87}, {"time": 488, "pitch": 66, "duration": 21, "velocity": 102}, {"time": 509, "pitch": 66, "duration": 3, "velocity": 88}, {"time": 512, "pitch": 66, "duration": 3, "velocity": 89}, {"time": 515, "pitch": 68, "duration": 6, "velocity": 96}, {"time": 521, "pitch": 68, "duration": 6, "velocity": 102}, {"time": 527, "pitch": 70, "duration": 6, "velocity": 94}, {"time": 533, "pitch": 70, "duration": 42, "velocity": 96}, {"time": 575, "pitch": 66, "duration": 6, "velocity": 113}, {"time": 581, "pitch": 68, "duration": 6, "velocity": 108}, {"time": 587, "pitch": 70, "duration": 6, "velocity": 108}, {"time": 593, "pitch": 70, "duration": 6, "velocity": 107}, {"time": 599, "pitch": 70, "duration": 6, "velocity": 110}, {"time": 605, "pitch": 71, "duration": 3, "velocity": 109}, {"time": 608, "pitch": 68, "duration": 24, "velocity": 110}, {"time": 632, "pitch": 61, "duration": 3, "velocity": 102}, {"time": 635, "pitch": 73, "duration": 6, "velocity": 110}, {"time": 641, "pitch": 71, "duration": 6, "velocity": 113}, {"time": 647, "pitch": 71, "duration": 6, "velocity": 110}, {"time": 653, "pitch": 70, "duration": 3, "velocity": 91}, {"time": 656, "pitch": 70, "duration": 24, "velocity": 91}, {"time": 680, "pitch": 61, "duration": 3, "velocity": 88}, {"time": 683, "pitch": 70, "duration": 6, "velocity": 107}, {"time": 689, "pitch": 68, "duration": 6, "velocity": 94}, {"time": 695, "pitch": 68, "duration": 6, "velocity": 102}, {"time": 701, "pitch": 66, "duration": 6, "velocity": 93}, {"time": 707, "pitch": 66, "duration": 6, "velocity": 107}, {"time": 713, "pitch": 63, "duration": 6, "velocity": 107}, {"time": 719, "pitch": 66, "duration": 9, "velocity": 108}, {"time": 728, "pitch": 68, "duration": 39, "velocity": 108}, {"time": 767, "pitch": 61, "duration": 6, "velocity": 104}, {"time": 773, "pitch": 58, "duration": 6, "velocity": 89}, {"time": 779, "pitch": 66, "duration": 18, "velocity": 98}, {"time": 797, "pitch": 66, "duration": 3, "velocity": 93}, {"time": 800, "pitch": 66, "duration": 3, "velocity": 86}, {"time": 803, "pitch": 65, "duration": 6, "velocity": 90}, {"time": 809, "pitch": 65, "duration": 6, "velocity": 88}, {"time": 815, "pitch": 66, "duration": 6, "velocity": 108}, {"time": 821, "pitch": 66, "duration": 36, "velocity": 108}, {"time": 857, "pitch": 61, "duration": 3, "velocity": 93}, {"time": 860, "pitch": 61, "duration": 3, "velocity": 93}, {"time": 863, "pitch": 61, "duration": 6, "velocity": 98}, {"time": 869, "pitch": 58, "duration": 6, "velocity": 87}, {"time": 875, "pitch": 66, "duration": 21, "velocity": 102}, {"time": 896, "pitch": 66, "duration": 3, "velocity": 88}, {"time": 899, "pitch": 68, "duration": 6, "velocity": 96}, {"time": 905, "pitch": 68, "duration": 3, "velocity": 102}, {"time": 908, "pitch": 68, "duration": 3, "velocity": 102}, {"time": 911, "pitch": 70, "duration": 6, "velocity": 94}, {"time": 917, "pitch": 70, "duration": 42, "velocity": 96}, {"time": 959, "pitch": 66, "duration": 6, "velocity": 113}, {"time": 965, "pitch": 68, "duration": 6, "velocity": 108}, {"time": 971, "pitch": 70, "duration": 6, "velocity": 108}, {"time": 977, "pitch": 70, "duration": 6, "velocity": 107}, {"time": 983, "pitch": 70, "duration": 6, "velocity": 110}, {"time": 989, "pitch": 71, "duration": 3, "velocity": 109}, {"time": 992, "pitch": 68, "duration": 24, "velocity": 110}, {"time": 1016, "pitch": 61, "duration": 3, "velocity": 102}, {"time": 1019, "pitch": 73, "duration": 6, "velocity": 110}, {"time": 1025, "pitch": 71, "duration": 6, "velocity": 113}, {"time": 1031, "pitch": 71, "duration": 6, "velocity": 110}, {"time": 1037, "pitch": 70, "duration": 3, "velocity": 91}, {"time": 1040, "pitch": 70, "duration": 24, "velocity": 91}, {"time": 1064, "pitch": 61, "duration": 3, "velocity": 88}, {"time": 1067, "pitch": 70, "duration": 6, "velocity": 107}, {"time": 1073, "pitch": 68, "duration": 6, "velocity": 94}, {"time": 1079, "pitch": 68, "duration": 6, "velocity": 102}, {"time": 1085, "pitch": 66, "duration": 6, "velocity": 93}, {"time": 1091, "pitch": 66, "duration": 6, "velocity": 107}, {"time": 1097, "pitch": 63, "duration": 3, "velocity": 107}, {"time": 1100, "pitch": 63, "duration": 3, "velocity": 107}, {"time": 1103, "pitch": 75, "duration": 6, "velocity": 108}, {"time": 1109, "pitch": 73, "duration": 51, "velocity": 108}, {"time": 1160, "pitch": 73, "duration": 3, "velocity": 102}, {"time": 1163, "pitch": 78, "duration": 6, "velocity": 117}, {"time": 1169, "pitch": 78, "duration": 6, "velocity": 113}, {"time": 1175, "pitch": 78, "duration": 6, "velocity": 114}, {"time": 1181, "pitch": 78, "duration": 6, "velocity": 110}, {"time": 1187, "pitch": 77, "duration": 6, "velocity": 110}, {"time": 1193, "pitch": 78, "duration": 6, "velocity": 117}, {"time": 1199, "pitch": 80, "duration": 6, "velocity": 114}, {"time": 1205, "pitch": 78, "duration": 48, "velocity": 119}, {"time": 1253, "pitch": 73, "duration": 3, "velocity": 89}, {"time": 1256, "pitch": 73, "duration": 3, "velocity": 89}, {"time": 1259, "pitch": 75, "duration": 6, "velocity": 104}, {"time": 1265, "pitch": 75, "duration": 6, "velocity": 100}, {"time": 1271, "pitch": 75, "duration": 6, "velocity": 100}, {"time": 1277, "pitch": 75, "duration": 6, "velocity": 107}, {"time": 1283, "pitch": 73, "duration": 6, "velocity": 110}, {"time": 1289, "pitch": 75, "duration": 6, "velocity": 113}, {"time": 1295, "pitch": 73, "duration": 12, "velocity": 102}, {"time": 1307, "pitch": 70, "duration": 45, "velocity": 113}, {"time": 1352, "pitch": 73, "duration": 3, "velocity": 87}, {"time": 1355, "pitch": 78, "duration": 6, "velocity": 114}, {"time": 1361, "pitch": 78, "duration": 6, "velocity": 113}, {"time": 1367, "pitch": 78, "duration": 6, "velocity": 110}, {"time": 1373, "pitch": 78, "duration": 3, "velocity": 108}, {"time": 1376, "pitch": 78, "duration": 3, "velocity": 108}, {"time": 1379, "pitch": 82, "duration": 6, "velocity": 113}, {"time": 1385, "pitch": 80, "duration": 6, "velocity": 114}, {"time": 1391, "pitch": 82, "duration": 6, "velocity": 113}, {"time": 1397, "pitch": 80, "duration": 6, "velocity": 116}, {"time": 1403, "pitch": 78, "duration": 42, "velocity": 113}, {"time": 1445, "pitch": 73, "duration": 3, "velocity": 110}, {"time": 1448, "pitch": 73, "duration": 3, "velocity": 102}, {"time": 1451, "pitch": 75, "duration": 6, "velocity": 113}, {"time": 1457, "pitch": 75, "duration": 6, "velocity": 107}, {"time": 1463, "pitch": 75, "duration": 6, "velocity": 114}, {"time": 1469, "pitch": 75, "duration": 6, "velocity": 113}, {"time": 1475, "pitch": 73, "duration": 6, "velocity": 107}, {"time": 1481, "pitch": 78, "duration": 6, "velocity": 113}, {"time": 1487, "pitch": 77, "duration": 6, "velocity": 113}, {"time": 1493, "pitch": 78, "duration": 6, "velocity": 116}, {"time": 1679, "pitch": 61, "duration": 6, "velocity": 104}, {"time": 1685, "pitch": 58, "duration": 6, "velocity": 89}, {"time": 1691, "pitch": 66, "duration": 18, "velocity": 98}, {"time": 1709, "pitch": 66, "duration": 3, "velocity": 93}, {"time": 1712, "pitch": 66, "duration": 3, "velocity": 86}, {"time": 1715, "pitch": 65, "duration": 6, "velocity": 90}, {"time": 1721, "pitch": 65, "duration": 6, "velocity": 88}, {"time": 1727, "pitch": 66, "duration": 6, "velocity": 108}, {"time": 1733, "pitch": 66, "duration": 36, "velocity": 108}, {"time": 1769, "pitch": 61, "duration": 3, "velocity": 93}, {"time": 1772, "pitch": 61, "duration": 3, "velocity": 93}, {"time": 1775, "pitch": 61, "duration": 6, "velocity": 98}, {"time": 1781, "pitch": 58, "duration": 4, "velocity": 87}, {"time": 1784, "pitch": 66, "duration": 24, "velocity": 102}, {"time": 1808, "pitch": 66, "duration": 3, "velocity": 89}, {"time": 1811, "pitch": 68, "duration": 6, "velocity": 96}, {"time": 1817, "pitch": 68, "duration": 3, "velocity": 102}, {"time": 1820, "pitch": 68, "duration": 3, "velocity": 102}, {"time": 1823, "pitch": 70, "duration": 6, "velocity": 94}, {"time": 1829, "pitch": 70, "duration": 42, "velocity": 96}, {"time": 1871, "pitch": 66, "duration": 6, "velocity": 113}, {"time": 1877, "pitch": 68, "duration": 3, "velocity": 108}, {"time": 1880, "pitch": 70, "duration": 9, "velocity": 108}, {"time": 1889, "pitch": 70, "duration": 6, "velocity": 107}, {"time": 1895, "pitch": 70, "duration": 6, "velocity": 110}, {"time": 1901, "pitch": 71, "duration": 3, "velocity": 109}, {"time": 1904, "pitch": 68, "duration": 24, "velocity": 110}, {"time": 1928, "pitch": 61, "duration": 3, "velocity": 102}, {"time": 1931, "pitch": 73, "duration": 6, "velocity": 110}, {"time": 1937, "pitch": 71, "duration": 3, "velocity": 113}, {"time": 1940, "pitch": 71, "duration": 9, "velocity": 110}, {"time": 1949, "pitch": 70, "duration": 4, "velocity": 91}, {"time": 1952, "pitch": 70, "duration": 1, "velocity": 91}, {"time": 1976, "pitch": 61, "duration": 3, "velocity": 88}, {"time": 1979, "pitch": 70, "duration": 6, "velocity": 107}, {"time": 1985, "pitch": 68, "duration": 3, "velocity": 94}, {"time": 1988, "pitch": 68, "duration": 9, "velocity": 102}, {"time": 1997, "pitch": 66, "duration": 6, "velocity": 93}, {"time": 2003, "pitch": 66, "duration": 6, "velocity": 107}, {"time": 2009, "pitch": 63, "duration": 3, "velocity": 107}, {"time": 2012, "pitch": 63, "duration": 3, "velocity": 107}, {"time": 2015, "pitch": 75, "duration": 6, "velocity": 108}, {"time": 2021, "pitch": 73, "duration": 51, "velocity": 108}, {"time": 2072, "pitch": 73, "duration": 3, "velocity": 102}, {"time": 2075, "pitch": 78, "duration": 6, "velocity": 117}, {"time": 2081, "pitch": 78, "duration": 6, "velocity": 113}, {"time": 2087, "pitch": 78, "duration": 6, "velocity": 114}, {"time": 2093, "pitch": 78, "duration": 6, "velocity": 110}, {"time": 2099, "pitch": 77, "duration": 6, "velocity": 110}, {"time": 2105, "pitch": 78, "duration": 6, "velocity": 117}, {"time": 2111, "pitch": 80, "duration": 6, "velocity": 114}, {"time": 2117, "pitch": 78, "duration": 48, "velocity": 119}, {"time": 2165, "pitch": 73, "duration": 3, "velocity": 89}, {"time": 2168, "pitch": 73, "duration": 3, "velocity": 89}, {"time": 2171, "pitch": 75, "duration": 6, "velocity": 104}, {"time": 2177, "pitch": 75, "duration": 6, "velocity": 100}, {"time": 2183, "pitch": 75, "duration": 6, "velocity": 100}, {"time": 2189, "pitch": 75, "duration": 6, "velocity": 107}, {"time": 2195, "pitch": 73, "duration": 6, "velocity": 110}, {"time": 2201, "pitch": 75, "duration": 6, "velocity": 113}, {"time": 2207, "pitch": 73, "duration": 9, "velocity": 102}, {"time": 2216, "pitch": 70, "duration": 48, "velocity": 113}, {"time": 2264, "pitch": 73, "duration": 3, "velocity": 87}, {"time": 2267, "pitch": 78, "duration": 6, "velocity": 114}, {"time": 2273, "pitch": 78, "duration": 6, "velocity": 113}, {"time": 2279, "pitch": 78, "duration": 6, "velocity": 110}, {"time": 2285, "pitch": 78, "duration": 3, "velocity": 108}, {"time": 2288, "pitch": 78, "duration": 3, "velocity": 108}, {"time": 2291, "pitch": 82, "duration": 6, "velocity": 113}, {"time": 2297, "pitch": 80, "duration": 6, "velocity": 114}, {"time": 2303, "pitch": 82, "duration": 6, "velocity": 113}, {"time": 2309, "pitch": 80, "duration": 6, "velocity": 116}, {"time": 2315, "pitch": 78, "duration": 42, "velocity": 113}, {"time": 2357, "pitch": 73, "duration": 3, "velocity": 110}, {"time": 2360, "pitch": 73, "duration": 3, "velocity": 102}, {"time": 2363, "pitch": 75, "duration": 6, "velocity": 113}, {"time": 2369, "pitch": 75, "duration": 6, "velocity": 107}, {"time": 2375, "pitch": 75, "duration": 6, "velocity": 114}, {"time": 2381, "pitch": 75, "duration": 6, "velocity": 113}, {"time": 2387, "pitch": 73, "duration": 6, "velocity": 107}, {"time": 2393, "pitch": 78, "duration": 6, "velocity": 113}, {"time": 2399, "pitch": 77, "duration": 6, "velocity": 113}, {"time": 2405, "pitch": 78, "duration": 51, "velocity": 116}, {"time": 2456, "pitch": 73, "duration": 3, "velocity": 102}, {"time": 2459, "pitch": 78, "duration": 6, "velocity": 117}, {"time": 2465, "pitch": 78, "duration": 6, "velocity": 113}, {"time": 2471, "pitch": 78, "duration": 6, "velocity": 114}, {"time": 2477, "pitch": 78, "duration": 6, "velocity": 110}, {"time": 2483, "pitch": 77, "duration": 6, "velocity": 110}, {"time": 2489, "pitch": 78, "duration": 6, "velocity": 117}, {"time": 2495, "pitch": 80, "duration": 6, "velocity": 114}, {"time": 2501, "pitch": 78, "duration": 48, "velocity": 119}, {"time": 2549, "pitch": 73, "duration": 3, "velocity": 89}, {"time": 2552, "pitch": 73, "duration": 3, "velocity": 89}, {"time": 2555, "pitch": 75, "duration": 6, "velocity": 104}, {"time": 2561, "pitch": 75, "duration": 6, "velocity": 100}, {"time": 2567, "pitch": 75, "duration": 6, "velocity": 100}, {"time": 2573, "pitch": 75, "duration": 6, "velocity": 107}, {"time": 2579, "pitch": 73, "duration": 6, "velocity": 110}, {"time": 2585, "pitch": 75, "duration": 6, "velocity": 113}, {"time": 2591, "pitch": 73, "duration": 6, "velocity": 102}, {"time": 2597, "pitch": 70, "duration": 51, "velocity": 113}, {"time": 2648, "pitch": 73, "duration": 3, "velocity": 87}, {"time": 2651, "pitch": 78, "duration": 6, "velocity": 114}, {"time": 2657, "pitch": 78, "duration": 6, "velocity": 113}, {"time": 2663, "pitch": 78, "duration": 6, "velocity": 110}, {"time": 2669, "pitch": 78, "duration": 3, "velocity": 108}, {"time": 2672, "pitch": 78, "duration": 3, "velocity": 108}, {"time": 2675, "pitch": 82, "duration": 6, "velocity": 113}, {"time": 2681, "pitch": 80, "duration": 6, "velocity": 114}, {"time": 2687, "pitch": 82, "duration": 6, "velocity": 113}, {"time": 2693, "pitch": 80, "duration": 6, "velocity": 116}, {"time": 2699, "pitch": 78, "duration": 42, "velocity": 113}, {"time": 2741, "pitch": 73, "duration": 3, "velocity": 110}, {"time": 2744, "pitch": 73, "duration": 3, "velocity": 102}, {"time": 2747, "pitch": 75, "duration": 6, "velocity": 113}, {"time": 2753, "pitch": 75, "duration": 6, "velocity": 107}, {"time": 2759, "pitch": 75, "duration": 6, "velocity": 114}, {"time": 2765, "pitch": 75, "duration": 6, "velocity": 113}, {"time": 2771, "pitch": 73, "duration": 6, "velocity": 107}, {"time": 2777, "pitch": 78, "duration": 6, "velocity": 113}, {"time": 2783, "pitch": 77, "duration": 6, "velocity": 113}, {"time": 2789, "pitch": 78, "duration": 6, "velocity": 116}, {"time": 2837, "pitch": 73, "duration": 3, "velocity": 98}, {"time": 2840, "pitch": 73, "duration": 3, "velocity": 104}, {"time": 2843, "pitch": 75, "duration": 6, "velocity": 113}, {"time": 2849, "pitch": 75, "duration": 6, "velocity": 100}, {"time": 2855, "pitch": 75, "duration": 6, "velocity": 100}, {"time": 2861, "pitch": 75, "duration": 6, "velocity": 100}, {"time": 2867, "pitch": 73, "duration": 7, "velocity": 107}, {"time": 2873, "pitch": 68, "duration": 6, "velocity": 89}, {"time": 2879, "pitch": 70, "duration": 12, "velocity": 104}, {"time": 2891, "pitch": 66, "duration": 24, "velocity": 100}]}, {"program": 0, "is_drum": false, "name": "PIANO", "notes": [{"time": 11, "pitch": 42, "duration": 18, "velocity": 74}, {"time": 11, "pitch": 54, "duration": 22, "velocity": 76}, {"time": 11, "pitch": 58, "duration": 17, "velocity": 83}, {"time": 11, "pitch": 61, "duration": 21, "velocity": 83}, {"time": 11, "pitch": 66, "duration": 19, "velocity": 86}, {"time": 35, "pitch": 53, "duration": 13, "velocity": 86}, {"time": 35, "pitch": 61, "duration": 20, "velocity": 84}, {"time": 35, "pitch": 65, "duration": 19, "velocity": 86}, {"time": 35, "pitch": 68, "duration": 18, "velocity": 84}, {"time": 59, "pitch": 39, "duration": 38, "velocity": 74}, {"time": 59, "pitch": 51, "duration": 38, "velocity": 74}, {"time": 59, "pitch": 58, "duration": 21, "velocity": 71}, {"time": 59, "pitch": 61, "duration": 21, "velocity": 70}, {"time": 59, "pitch": 63, "duration": 22, "velocity": 70}, {"time": 59, "pitch": 66, "duration": 22, "velocity": 76}, {"time": 107, "pitch": 47, "duration": 22, "velocity": 76}, {"time": 107, "pitch": 59, "duration": 23, "velocity": 78}, {"time": 107, "pitch": 63, "duration": 23, "velocity": 76}, {"time": 107, "pitch": 66, "duration": 23, "velocity": 75}, {"time": 107, "pitch": 70, "duration": 23, "velocity": 75}, {"time": 131, "pitch": 49, "duration": 17, "velocity": 88}, {"time": 131, "pitch": 61, "duration": 18, "velocity": 83}, {"time": 131, "pitch": 65, "duration": 18, "velocity": 83}, {"time": 131, "pitch": 68, "duration": 18, "velocity": 83}, {"time": 155, "pitch": 42, "duration": 43, "velocity": 77}, {"time": 155, "pitch": 58, "duration": 13, "velocity": 42}, {"time": 155, "pitch": 61, "duration": 13, "velocity": 69}, {"time": 155, "pitch": 66, "duration": 12, "velocity": 78}, {"time": 161, "pitch": 49, "duration": 34, "velocity": 73}, {"time": 167, "pitch": 54, "duration": 29, "velocity": 71}, {"time": 173, "pitch": 56, "duration": 6, "velocity": 67}, {"time": 179, "pitch": 58, "duration": 19, "velocity": 69}, {"time": 203, "pitch": 42, "duration": 17, "velocity": 76}, {"time": 203, "pitch": 58, "duration": 18, "velocity": 71}, {"time": 203, "pitch": 66, "duration": 17, "velocity": 88}, {"time": 209, "pitch": 49, "duration": 11, "velocity": 46}, {"time": 215, "pitch": 54, "duration": 5, "velocity": 75}, {"time": 227, "pitch": 41, "duration": 17, "velocity": 68}, {"time": 227, "pitch": 61, "duration": 10, "velocity": 48}, {"time": 227, "pitch": 65, "duration": 8, "velocity": 58}, {"time": 227, "pitch": 68, "duration": 8, "velocity": 75}, {"time": 239, "pitch": 61, "duration": 7, "velocity": 78}, {"time": 239, "pitch": 65, "duration": 8, "velocity": 86}, {"time": 239, "pitch": 68, "duration": 9, "velocity": 77}, {"time": 251, "pitch": 39, "duration": 37, "velocity": 85}, {"time": 251, "pitch": 63, "duration": 11, "velocity": 78}, {"time": 251, "pitch": 66, "duration": 6, "velocity": 82}, {"time": 251, "pitch": 70, "duration": 9, "velocity": 86}, {"time": 257, "pitch": 46, "duration": 31, "velocity": 63}, {"time": 263, "pitch": 51, "duration": 26, "velocity": 78}, {"time": 269, "pitch": 58, "duration": 20, "velocity": 80}, {"time": 269, "pitch": 66, "duration": 20, "velocity": 81}, {"time": 299, "pitch": 47, "duration": 18, "velocity": 83}, {"time": 305, "pitch": 54, "duration": 13, "velocity": 75}, {"time": 311, "pitch": 59, "duration": 7, "velocity": 82}, {"time": 317, "pitch": 63, "duration": 7, "velocity": 83}, {"time": 323, "pitch": 49, "duration": 14, "velocity": 84}, {"time": 329, "pitch": 56, "duration": 8, "velocity": 77}, {"time": 335, "pitch": 61, "duration": 6, "velocity": 80}, {"time": 341, "pitch": 65, "duration": 6, "velocity": 72}, {"time": 347, "pitch": 42, "duration": 37, "velocity": 77}, {"time": 347, "pitch": 58, "duration": 13, "velocity": 65}, {"time": 347, "pitch": 66, "duration": 13, "velocity": 86}, {"time": 353, "pitch": 49, "duration": 31, "velocity": 71}, {"time": 359, "pitch": 59, "duration": 12, "velocity": 84}, {"time": 365, "pitch": 54, "duration": 18, "velocity": 48}, {"time": 371, "pitch": 58, "duration": 13, "velocity": 80}, {"time": 371, "pitch": 66, "duration": 13, "velocity": 72}, {"time": 395, "pitch": 54, "duration": 18, "velocity": 83}, {"time": 401, "pitch": 61, "duration": 18, "velocity": 67}, {"time": 407, "pitch": 66, "duration": 5, "velocity": 79}, {"time": 413, "pitch": 73, "duration": 18, "velocity": 80}, {"time": 419, "pitch": 53, "duration": 17, "velocity": 74}, {"time": 425, "pitch": 61, "duration": 9, "velocity": 65}, {"time": 431, "pitch": 68, "duration": 13, "velocity": 82}, {"time": 443, "pitch": 51, "duration": 41, "velocity": 78}, {"time": 443, "pitch": 70, "duration": 19, "velocity": 84}, {"time": 449, "pitch": 58, "duration": 33, "velocity": 61}, {"time": 455, "pitch": 63, "duration": 26, "velocity": 73}, {"time": 461, "pitch": 68, "duration": 6, "velocity": 73}, {"time": 467, "pitch": 66, "duration": 27, "velocity": 79}, {"time": 491, "pitch": 42, "duration": 13, "velocity": 76}, {"time": 497, "pitch": 54, "duration": 7, "velocity": 77}, {"time": 503, "pitch": 58, "duration": 9, "velocity": 81}, {"time": 509, "pitch": 61, "duration": 6, "velocity": 76}, {"time": 515, "pitch": 53, "duration": 20, "velocity": 73}, {"time": 515, "pitch": 65, "duration": 5, "velocity": 87}, {"time": 521, "pitch": 60, "duration": 12, "velocity": 65}, {"time": 527, "pitch": 65, "duration": 6, "velocity": 80}, {"time": 533, "pitch": 70, "duration": 24, "velocity": 86}, {"time": 539, "pitch": 51, "duration": 40, "velocity": 82}, {"time": 545, "pitch": 58, "duration": 32, "velocity": 67}, {"time": 551, "pitch": 63, "duration": 26, "velocity": 77}, {"time": 557, "pitch": 68, "duration": 6, "velocity": 78}, {"time": 563, "pitch": 66, "duration": 22, "velocity": 75}, {"time": 587, "pitch": 47, "duration": 19, "velocity": 83}, {"time": 593, "pitch": 54, "duration": 12, "velocity": 71}, {"time": 599, "pitch": 59, "duration": 7, "velocity": 80}, {"time": 605, "pitch": 63, "duration": 9, "velocity": 86}, {"time": 605, "pitch": 71, "duration": 8, "velocity": 82}, {"time": 611, "pitch": 49, "duration": 18, "velocity": 86}, {"time": 617, "pitch": 56, "duration": 11, "velocity": 74}, {"time": 623, "pitch": 61, "duration": 5, "velocity": 86}, {"time": 629, "pitch": 65, "duration": 3, "velocity": 91}, {"time": 632, "pitch": 66, "duration": 4, "velocity": 86}, {"time": 635, "pitch": 54, "duration": 10, "velocity": 77}, {"time": 635, "pitch": 61, "duration": 11, "velocity": 78}, {"time": 635, "pitch": 66, "duration": 1, "velocity": 81}, {"time": 635, "pitch": 70, "duration": 9, "velocity": 78}, {"time": 647, "pitch": 53, "duration": 12, "velocity": 80}, {"time": 647, "pitch": 65, "duration": 12, "velocity": 85}, {"time": 647, "pitch": 68, "duration": 12, "velocity": 79}, {"time": 659, "pitch": 51, "duration": 19, "velocity": 74}, {"time": 659, "pitch": 63, "duration": 20, "velocity": 71}, {"time": 659, "pitch": 66, "duration": 19, "velocity": 84}, {"time": 683, "pitch": 47, "duration": 21, "velocity": 84}, {"time": 689, "pitch": 54, "duration": 32, "velocity": 73}, {"time": 695, "pitch": 59, "duration": 9, "velocity": 78}, {"time": 701, "pitch": 63, "duration": 7, "velocity": 70}, {"time": 728, "pitch": 61, "duration": 3, "velocity": 67}, {"time": 731, "pitch": 49, "duration": 38, "velocity": 81}, {"time": 731, "pitch": 65, "duration": 11, "velocity": 85}, {"time": 737, "pitch": 56, "duration": 32, "velocity": 76}, {"time": 743, "pitch": 61, "duration": 25, "velocity": 74}, {"time": 749, "pitch": 66, "duration": 6, "velocity": 82}, {"time": 755, "pitch": 65, "duration": 3, "velocity": 77}, {"time": 755, "pitch": 68, "duration": 3, "velocity": 81}, {"time": 767, "pitch": 71, "duration": 6, "velocity": 119}, {"time": 773, "pitch": 73, "duration": 6, "velocity": 79}, {"time": 779, "pitch": 42, "duration": 24, "velocity": 83}, {"time": 779, "pitch": 66, "duration": 6, "velocity": 83}, {"time": 779, "pitch": 70, "duration": 24, "velocity": 85}, {"time": 785, "pitch": 54, "duration": 8, "velocity": 76}, {"time": 791, "pitch": 61, "duration": 13, "velocity": 76}, {"time": 803, "pitch": 41, "duration": 15, "velocity": 83}, {"time": 803, "pitch": 65, "duration": 6, "velocity": 85}, {"time": 803, "pitch": 68, "duration": 6, "velocity": 86}, {"time": 809, "pitch": 53, "duration": 15, "velocity": 64}, {"time": 815, "pitch": 65, "duration": 13, "velocity": 96}, {"time": 815, "pitch": 68, "duration": 11, "velocity": 93}, {"time": 827, "pitch": 51, "duration": 42, "velocity": 81}, {"time": 827, "pitch": 63, "duration": 8, "velocity": 78}, {"time": 827, "pitch": 66, "duration": 7, "velocity": 80}, {"time": 827, "pitch": 70, "duration": 5, "velocity": 78}, {"time": 833, "pitch": 58, "duration": 7, "velocity": 64}, {"time": 839, "pitch": 63, "duration": 6, "velocity": 83}, {"time": 839, "pitch": 66, "duration": 6, "velocity": 83}, {"time": 839, "pitch": 70, "duration": 6, "velocity": 79}, {"time": 845, "pitch": 58, "duration": 7, "velocity": 40}, {"time": 851, "pitch": 65, "duration": 7, "velocity": 82}, {"time": 851, "pitch": 70, "duration": 6, "velocity": 81}, {"time": 857, "pitch": 58, "duration": 10, "velocity": 73}, {"time": 863, "pitch": 63, "duration": 7, "velocity": 87}, {"time": 863, "pitch": 70, "duration": 11, "velocity": 88}, {"time": 869, "pitch": 65, "duration": 6, "velocity": 86}, {"time": 875, "pitch": 42, "duration": 19, "velocity": 81}, {"time": 875, "pitch": 61, "duration": 7, "velocity": 77}, {"time": 875, "pitch": 66, "duration": 6, "velocity": 85}, {"time": 875, "pitch": 70, "duration": 7, "velocity": 81}, {"time": 881, "pitch": 54, "duration": 12, "velocity": 72}, {"time": 887, "pitch": 61, "duration": 9, "velocity": 86}, {"time": 887, "pitch": 66, "duration": 10, "velocity": 84}, {"time": 887, "pitch": 70, "duration": 8, "velocity": 88}, {"time": 899, "pitch": 41, "duration": 2, "velocity": 84}, {"time": 899, "pitch": 65, "duration": 11, "velocity": 87}, {"time": 899, "pitch": 68, "duration": 9, "velocity": 84}, {"time": 911, "pitch": 65, "duration": 12, "velocity": 87}, {"time": 911, "pitch": 68, "duration": 10, "velocity": 86}, {"time": 923, "pitch": 51, "duration": 42, "velocity": 82}, {"time": 923, "pitch": 63, "duration": 4, "velocity": 78}, {"time": 923, "pitch": 66, "duration": 11, "velocity": 76}, {"time": 923, "pitch": 70, "duration": 12, "velocity": 83}, {"time": 929, "pitch": 58, "duration": 35, "velocity": 60}, {"time": 935, "pitch": 63, "duration": 9, "velocity": 80}, {"time": 941, "pitch": 65, "duration": 3, "velocity": 85}, {"time": 944, "pitch": 66, "duration": 4, "velocity": 89}, {"time": 947, "pitch": 63, "duration": 10, "velocity": 73}, {"time": 947, "pitch": 70, "duration": 4, "velocity": 71}, {"time": 953, "pitch": 70, "duration": 5, "velocity": 86}, {"time": 956, "pitch": 78, "duration": 6, "velocity": 104}, {"time": 959, "pitch": 63, "duration": 4, "velocity": 78}, {"time": 959, "pitch": 70, "duration": 9, "velocity": 83}, {"time": 962, "pitch": 77, "duration": 9, "velocity": 91}, {"time": 971, "pitch": 47, "duration": 18, "velocity": 84}, {"time": 977, "pitch": 54, "duration": 12, "velocity": 71}, {"time": 983, "pitch": 59, "duration": 8, "velocity": 74}, {"time": 983, "pitch": 63, "duration": 8, "velocity": 86}, {"time": 983, "pitch": 71, "duration": 7, "velocity": 83}, {"time": 992, "pitch": 61, "duration": 4, "velocity": 81}, {"time": 995, "pitch": 49, "duration": 19, "velocity": 83}, {"time": 995, "pitch": 65, "duration": 5, "velocity": 76}, {"time": 995, "pitch": 68, "duration": 19, "velocity": 87}, {"time": 1001, "pitch": 56, "duration": 12, "velocity": 64}, {"time": 1007, "pitch": 61, "duration": 5, "velocity": 82}, {"time": 1019, "pitch": 54, "duration": 12, "velocity": 86}, {"time": 1019, "pitch": 61, "duration": 13, "velocity": 86}, {"time": 1019, "pitch": 66, "duration": 1, "velocity": 90}, {"time": 1019, "pitch": 70, "duration": 12, "velocity": 88}, {"time": 1031, "pitch": 53, "duration": 12, "velocity": 85}, {"time": 1031, "pitch": 65, "duration": 11, "velocity": 90}, {"time": 1031, "pitch": 68, "duration": 10, "velocity": 88}, {"time": 1040, "pitch": 63, "duration": 3, "velocity": 40}, {"time": 1043, "pitch": 51, "duration": 17, "velocity": 86}, {"time": 1043, "pitch": 66, "duration": 17, "velocity": 70}, {"time": 1043, "pitch": 70, "duration": 19, "velocity": 91}, {"time": 1049, "pitch": 58, "duration": 10, "velocity": 72}, {"time": 1055, "pitch": 63, "duration": 3, "velocity": 85}, {"time": 1061, "pitch": 65, "duration": 6, "velocity": 85}, {"time": 1067, "pitch": 47, "duration": 19, "velocity": 81}, {"time": 1067, "pitch": 63, "duration": 7, "velocity": 88}, {"time": 1067, "pitch": 66, "duration": 7, "velocity": 89}, {"time": 1073, "pitch": 59, "duration": 8, "velocity": 66}, {"time": 1079, "pitch": 63, "duration": 12, "velocity": 102}, {"time": 1079, "pitch": 66, "duration": 7, "velocity": 93}, {"time": 1085, "pitch": 59, "duration": 3, "velocity": 82}, {"time": 1088, "pitch": 61, "duration": 3, "velocity": 73}, {"time": 1091, "pitch": 49, "duration": 19, "velocity": 87}, {"time": 1091, "pitch": 65, "duration": 5, "velocity": 67}, {"time": 1091, "pitch": 68, "duration": 7, "velocity": 89}, {"time": 1097, "pitch": 56, "duration": 12, "velocity": 65}, {"time": 1103, "pitch": 61, "duration": 5, "velocity": 80}, {"time": 1103, "pitch": 65, "duration": 10, "velocity": 94}, {"time": 1103, "pitch": 68, "duration": 10, "velocity": 89}, {"time": 1115, "pitch": 49, "duration": 21, "velocity": 86}, {"time": 1115, "pitch": 65, "duration": 6, "velocity": 98}, {"time": 1115, "pitch": 68, "duration": 6, "velocity": 92}, {"time": 1121, "pitch": 56, "duration": 18, "velocity": 79}, {"time": 1124, "pitch": 61, "duration": 4, "velocity": 91}, {"time": 1127, "pitch": 71, "duration": 12, "velocity": 123}, {"time": 1133, "pitch": 61, "duration": 2, "velocity": 83}, {"time": 1139, "pitch": 49, "duration": 19, "velocity": 85}, {"time": 1139, "pitch": 68, "duration": 10, "velocity": 104}, {"time": 1145, "pitch": 56, "duration": 12, "velocity": 80}, {"time": 1148, "pitch": 61, "duration": 8, "velocity": 87}, {"time": 1151, "pitch": 65, "duration": 4, "velocity": 96}, {"time": 1154, "pitch": 66, "duration": 2, "velocity": 86}, {"time": 1157, "pitch": 68, "duration": 5, "velocity": 98}, {"time": 1163, "pitch": 42, "duration": 19, "velocity": 87}, {"time": 1163, "pitch": 61, "duration": 7, "velocity": 91}, {"time": 1163, "pitch": 70, "duration": 3, "velocity": 92}, {"time": 1169, "pitch": 54, "duration": 7, "velocity": 85}, {"time": 1175, "pitch": 58, "duration": 7, "velocity": 102}, {"time": 1175, "pitch": 66, "duration": 10, "velocity": 104}, {"time": 1181, "pitch": 54, "duration": 6, "velocity": 84}, {"time": 1187, "pitch": 49, "duration": 19, "velocity": 88}, {"time": 1187, "pitch": 61, "duration": 5, "velocity": 88}, {"time": 1187, "pitch": 65, "duration": 8, "velocity": 94}, {"time": 1187, "pitch": 68, "duration": 10, "velocity": 88}, {"time": 1193, "pitch": 56, "duration": 5, "velocity": 84}, {"time": 1199, "pitch": 61, "duration": 7, "velocity": 100}, {"time": 1199, "pitch": 65, "duration": 9, "velocity": 98}, {"time": 1199, "pitch": 68, "duration": 11, "velocity": 104}, {"time": 1205, "pitch": 56, "duration": 6, "velocity": 85}, {"time": 1211, "pitch": 51, "duration": 40, "velocity": 88}, {"time": 1211, "pitch": 63, "duration": 3, "velocity": 77}, {"time": 1211, "pitch": 66, "duration": 3, "velocity": 82}, {"time": 1211, "pitch": 70, "duration": 3, "velocity": 108}, {"time": 1217, "pitch": 58, "duration": 33, "velocity": 73}, {"time": 1217, "pitch": 75, "duration": 2, "velocity": 90}, {"time": 1220, "pitch": 77, "duration": 2, "velocity": 108}, {"time": 1223, "pitch": 63, "duration": 9, "velocity": 87}, {"time": 1223, "pitch": 82, "duration": 1, "velocity": 100}, {"time": 1226, "pitch": 80, "duration": 4, "velocity": 114}, {"time": 1232, "pitch": 75, "duration": 5, "velocity": 94}, {"time": 1232, "pitch": 78, "duration": 10, "velocity": 104}, {"time": 1235, "pitch": 63, "duration": 9, "velocity": 87}, {"time": 1247, "pitch": 63, "duration": 3, "velocity": 89}, {"time": 1247, "pitch": 70, "duration": 14, "velocity": 87}, {"time": 1247, "pitch": 75, "duration": 14, "velocity": 93}, {"time": 1259, "pitch": 47, "duration": 19, "velocity": 91}, {"time": 1259, "pitch": 66, "duration": 6, "velocity": 93}, {"time": 1259, "pitch": 71, "duration": 5, "velocity": 100}, {"time": 1259, "pitch": 75, "duration": 2, "velocity": 87}, {"time": 1265, "pitch": 59, "duration": 7, "velocity": 75}, {"time": 1271, "pitch": 63, "duration": 11, "velocity": 104}, {"time": 1271, "pitch": 71, "duration": 6, "velocity": 103}, {"time": 1277, "pitch": 59, "duration": 3, "velocity": 85}, {"time": 1283, "pitch": 49, "duration": 14, "velocity": 88}, {"time": 1283, "pitch": 61, "duration": 7, "velocity": 89}, {"time": 1283, "pitch": 68, "duration": 6, "velocity": 94}, {"time": 1289, "pitch": 56, "duration": 8, "velocity": 78}, {"time": 1295, "pitch": 61, "duration": 12, "velocity": 102}, {"time": 1295, "pitch": 68, "duration": 9, "velocity": 104}, {"time": 1301, "pitch": 49, "duration": 2, "velocity": 84}, {"time": 1307, "pitch": 42, "duration": 20, "velocity": 87}, {"time": 1307, "pitch": 58, "duration": 11, "velocity": 92}, {"time": 1307, "pitch": 66, "duration": 11, "velocity": 98}, {"time": 1316, "pitch": 54, "duration": 5, "velocity": 87}, {"time": 1319, "pitch": 59, "duration": 10, "velocity": 116}, {"time": 1325, "pitch": 54, "duration": 6, "velocity": 83}, {"time": 1331, "pitch": 42, "duration": 16, "velocity": 91}, {"time": 1331, "pitch": 58, "duration": 4, "velocity": 81}, {"time": 1331, "pitch": 61, "duration": 5, "velocity": 81}, {"time": 1331, "pitch": 66, "duration": 7, "velocity": 104}, {"time": 1337, "pitch": 49, "duration": 11, "velocity": 79}, {"time": 1340, "pitch": 54, "duration": 10, "velocity": 96}, {"time": 1343, "pitch": 61, "duration": 4, "velocity": 104}, {"time": 1346, "pitch": 66, "duration": 2, "velocity": 100}, {"time": 1349, "pitch": 68, "duration": 3, "velocity": 98}, {"time": 1352, "pitch": 70, "duration": 12, "velocity": 87}, {"time": 1355, "pitch": 61, "duration": 8, "velocity": 88}, {"time": 1355, "pitch": 66, "duration": 8, "velocity": 100}, {"time": 1361, "pitch": 42, "duration": 9, "velocity": 83}, {"time": 1367, "pitch": 61, "duration": 9, "velocity": 93}, {"time": 1367, "pitch": 66, "duration": 9, "velocity": 104}, {"time": 1367, "pitch": 70, "duration": 8, "velocity": 98}, {"time": 1373, "pitch": 42, "duration": 2, "velocity": 90}, {"time": 1379, "pitch": 49, "duration": 14, "velocity": 92}, {"time": 1379, "pitch": 61, "duration": 8, "velocity": 96}, {"time": 1379, "pitch": 65, "duration": 8, "velocity": 108}, {"time": 1379, "pitch": 68, "duration": 8, "velocity": 98}, {"time": 1391, "pitch": 61, "duration": 8, "velocity": 102}, {"time": 1391, "pitch": 65, "duration": 11, "velocity": 113}, {"time": 1391, "pitch": 68, "duration": 9, "velocity": 107}, {"time": 1397, "pitch": 49, "duration": 2, "velocity": 93}, {"time": 1403, "pitch": 39, "duration": 1, "velocity": 92}, {"time": 1403, "pitch": 51, "duration": 2, "velocity": 94}, {"time": 1403, "pitch": 63, "duration": 5, "velocity": 90}, {"time": 1403, "pitch": 66, "duration": 14, "velocity": 102}, {"time": 1403, "pitch": 70, "duration": 10, "velocity": 98}, {"time": 1409, "pitch": 51, "duration": 36, "velocity": 82}, {"time": 1412, "pitch": 58, "duration": 31, "velocity": 83}, {"time": 1415, "pitch": 63, "duration": 8, "velocity": 107}, {"time": 1421, "pitch": 65, "duration": 4, "velocity": 89}, {"time": 1424, "pitch": 66, "duration": 3, "velocity": 107}, {"time": 1427, "pitch": 63, "duration": 10, "velocity": 94}, {"time": 1430, "pitch": 70, "duration": 2, "velocity": 87}, {"time": 1433, "pitch": 70, "duration": 18, "velocity": 84}, {"time": 1433, "pitch": 78, "duration": 3, "velocity": 93}, {"time": 1436, "pitch": 77, "duration": 7, "velocity": 94}, {"time": 1439, "pitch": 63, "duration": 4, "velocity": 87}, {"time": 1442, "pitch": 75, "duration": 8, "velocity": 96}, {"time": 1451, "pitch": 47, "duration": 19, "velocity": 87}, {"time": 1451, "pitch": 66, "duration": 10, "velocity": 92}, {"time": 1451, "pitch": 71, "duration": 10, "velocity": 90}, {"time": 1451, "pitch": 75, "duration": 9, "velocity": 91}, {"time": 1457, "pitch": 59, "duration": 8, "velocity": 79}, {"time": 1463, "pitch": 66, "duration": 7, "velocity": 94}, {"time": 1463, "pitch": 71, "duration": 11, "velocity": 90}, {"time": 1463, "pitch": 75, "duration": 8, "velocity": 87}, {"time": 1469, "pitch": 59, "duration": 3, "velocity": 83}, {"time": 1475, "pitch": 49, "duration": 18, "velocity": 87}, {"time": 1475, "pitch": 65, "duration": 8, "velocity": 88}, {"time": 1475, "pitch": 68, "duration": 6, "velocity": 94}, {"time": 1475, "pitch": 73, "duration": 4, "velocity": 88}, {"time": 1481, "pitch": 56, "duration": 10, "velocity": 71}, {"time": 1487, "pitch": 61, "duration": 10, "velocity": 88}, {"time": 1487, "pitch": 65, "duration": 8, "velocity": 96}, {"time": 1487, "pitch": 68, "duration": 8, "velocity": 91}, {"time": 1499, "pitch": 42, "duration": 19, "velocity": 87}, {"time": 1499, "pitch": 58, "duration": 6, "velocity": 38}, {"time": 1499, "pitch": 61, "duration": 8, "velocity": 85}, {"time": 1499, "pitch": 66, "duration": 8, "velocity": 90}, {"time": 1505, "pitch": 49, "duration": 18, "velocity": 66}, {"time": 1508, "pitch": 54, "duration": 5, "velocity": 81}, {"time": 1511, "pitch": 59, "duration": 7, "velocity": 97}, {"time": 1511, "pitch": 66, "duration": 7, "velocity": 91}, {"time": 1517, "pitch": 54, "duration": 5, "velocity": 73}, {"time": 1523, "pitch": 42, "duration": 18, "velocity": 87}, {"time": 1523, "pitch": 61, "duration": 7, "velocity": 87}, {"time": 1523, "pitch": 66, "duration": 7, "velocity": 89}, {"time": 1523, "pitch": 70, "duration": 7, "velocity": 88}, {"time": 1529, "pitch": 54, "duration": 6, "velocity": 64}, {"time": 1535, "pitch": 61, "duration": 5, "velocity": 94}, {"time": 1535, "pitch": 66, "duration": 6, "velocity": 91}, {"time": 1535, "pitch": 70, "duration": 6, "velocity": 90}, {"time": 1541, "pitch": 54, "duration": 2, "velocity": 86}, {"time": 1547, "pitch": 47, "duration": 20, "velocity": 85}, {"time": 1547, "pitch": 63, "duration": 11, "velocity": 88}, {"time": 1547, "pitch": 66, "duration": 11, "velocity": 93}, {"time": 1547, "pitch": 71, "duration": 10, "velocity": 87}, {"time": 1547, "pitch": 73, "duration": 10, "velocity": 91}, {"time": 1553, "pitch": 59, "duration": 11, "velocity": 46}, {"time": 1559, "pitch": 63, "duration": 9, "velocity": 86}, {"time": 1559, "pitch": 66, "duration": 10, "velocity": 90}, {"time": 1559, "pitch": 71, "duration": 9, "velocity": 85}, {"time": 1559, "pitch": 73, "duration": 9, "velocity": 87}, {"time": 1571, "pitch": 49, "duration": 21, "velocity": 84}, {"time": 1571, "pitch": 65, "duration": 8, "velocity": 88}, {"time": 1571, "pitch": 68, "duration": 8, "velocity": 89}, {"time": 1571, "pitch": 73, "duration": 8, "velocity": 87}, {"time": 1583, "pitch": 65, "duration": 10, "velocity": 86}, {"time": 1583, "pitch": 68, "duration": 10, "velocity": 86}, {"time": 1583, "pitch": 73, "duration": 10, "velocity": 84}, {"time": 1595, "pitch": 47, "duration": 18, "velocity": 87}, {"time": 1595, "pitch": 59, "duration": 19, "velocity": 89}, {"time": 1595, "pitch": 62, "duration": 18, "velocity": 100}, {"time": 1595, "pitch": 66, "duration": 18, "velocity": 98}, {"time": 1619, "pitch": 49, "duration": 66, "velocity": 83}, {"time": 1619, "pitch": 63, "duration": 12, "velocity": 87}, {"time": 1619, "pitch": 68, "duration": 13, "velocity": 88}, {"time": 1625, "pitch": 56, "duration": 21, "velocity": 38}, {"time": 1631, "pitch": 61, "duration": 15, "velocity": 71}, {"time": 1637, "pitch": 66, "duration": 7, "velocity": 85}, {"time": 1649, "pitch": 56, "duration": 35, "velocity": 77}, {"time": 1655, "pitch": 61, "duration": 14, "velocity": 79}, {"time": 1661, "pitch": 66, "duration": 7, "velocity": 84}, {"time": 1667, "pitch": 65, "duration": 17, "velocity": 88}, {"time": 1691, "pitch": 54, "duration": 18, "velocity": 83}, {"time": 1697, "pitch": 61, "duration": 18, "velocity": 67}, {"time": 1703, "pitch": 66, "duration": 5, "velocity": 79}, {"time": 1709, "pitch": 73, "duration": 18, "velocity": 80}, {"time": 1715, "pitch": 53, "duration": 17, "velocity": 74}, {"time": 1721, "pitch": 61, "duration": 9, "velocity": 65}, {"time": 1727, "pitch": 68, "duration": 13, "velocity": 82}, {"time": 1739, "pitch": 51, "duration": 41, "velocity": 78}, {"time": 1739, "pitch": 70, "duration": 19, "velocity": 84}, {"time": 1745, "pitch": 58, "duration": 33, "velocity": 61}, {"time": 1751, "pitch": 63, "duration": 26, "velocity": 73}, {"time": 1757, "pitch": 68, "duration": 6, "velocity": 73}, {"time": 1763, "pitch": 66, "duration": 27, "velocity": 79}, {"time": 1787, "pitch": 42, "duration": 13, "velocity": 76}, {"time": 1793, "pitch": 54, "duration": 7, "velocity": 77}, {"time": 1799, "pitch": 58, "duration": 9, "velocity": 81}, {"time": 1805, "pitch": 61, "duration": 6, "velocity": 76}, {"time": 1811, "pitch": 53, "duration": 20, "velocity": 73}, {"time": 1811, "pitch": 65, "duration": 5, "velocity": 87}, {"time": 1817, "pitch": 60, "duration": 12, "velocity": 65}, {"time": 1823, "pitch": 65, "duration": 6, "velocity": 80}, {"time": 1829, "pitch": 70, "duration": 24, "velocity": 86}, {"time": 1835, "pitch": 51, "duration": 40, "velocity": 82}, {"time": 1841, "pitch": 58, "duration": 32, "velocity": 67}, {"time": 1847, "pitch": 63, "duration": 26, "velocity": 77}, {"time": 1853, "pitch": 68, "duration": 6, "velocity": 78}, {"time": 1859, "pitch": 66, "duration": 22, "velocity": 75}, {"time": 1883, "pitch": 47, "duration": 19, "velocity": 83}, {"time": 1889, "pitch": 54, "duration": 12, "velocity": 71}, {"time": 1895, "pitch": 59, "duration": 7, "velocity": 80}, {"time": 1901, "pitch": 63, "duration": 9, "velocity": 86}, {"time": 1901, "pitch": 71, "duration": 8, "velocity": 82}, {"time": 1907, "pitch": 49, "duration": 18, "velocity": 86}, {"time": 1913, "pitch": 56, "duration": 11, "velocity": 74}, {"time": 1919, "pitch": 61, "duration": 5, "velocity": 86}, {"time": 1925, "pitch": 65, "duration": 3, "velocity": 91}, {"time": 1928, "pitch": 66, "duration": 4, "velocity": 86}, {"time": 1931, "pitch": 54, "duration": 10, "velocity": 77}, {"time": 1931, "pitch": 61, "duration": 11, "velocity": 78}, {"time": 1931, "pitch": 66, "duration": 1, "velocity": 81}, {"time": 1931, "pitch": 70, "duration": 9, "velocity": 78}, {"time": 1943, "pitch": 53, "duration": 12, "velocity": 80}, {"time": 1943, "pitch": 65, "duration": 12, "velocity": 85}, {"time": 1943, "pitch": 68, "duration": 12, "velocity": 79}, {"time": 1955, "pitch": 51, "duration": 19, "velocity": 74}, {"time": 1955, "pitch": 63, "duration": 20, "velocity": 71}, {"time": 1955, "pitch": 66, "duration": 19, "velocity": 84}, {"time": 1979, "pitch": 47, "duration": 21, "velocity": 84}, {"time": 1985, "pitch": 54, "duration": 32, "velocity": 73}, {"time": 1991, "pitch": 59, "duration": 9, "velocity": 78}, {"time": 1997, "pitch": 63, "duration": 7, "velocity": 70}, {"time": 2024, "pitch": 61, "duration": 3, "velocity": 67}, {"time": 2027, "pitch": 49, "duration": 38, "velocity": 81}, {"time": 2027, "pitch": 65, "duration": 11, "velocity": 85}, {"time": 2033, "pitch": 56, "duration": 32, "velocity": 76}, {"time": 2039, "pitch": 61, "duration": 25, "velocity": 74}, {"time": 2045, "pitch": 66, "duration": 6, "velocity": 82}, {"time": 2051, "pitch": 65, "duration": 3, "velocity": 77}, {"time": 2051, "pitch": 68, "duration": 3, "velocity": 81}, {"time": 2063, "pitch": 71, "duration": 6, "velocity": 119}, {"time": 2069, "pitch": 73, "duration": 6, "velocity": 79}, {"time": 2075, "pitch": 42, "duration": 18, "velocity": 104}, {"time": 2075, "pitch": 61, "duration": 9, "velocity": 108}, {"time": 2075, "pitch": 66, "duration": 9, "velocity": 116}, {"time": 2075, "pitch": 70, "duration": 9, "velocity": 113}, {"time": 2084, "pitch": 54, "duration": 5, "velocity": 89}, {"time": 2087, "pitch": 61, "duration": 11, "velocity": 113}, {"time": 2087, "pitch": 66, "duration": 11, "velocity": 117}, {"time": 2087, "pitch": 70, "duration": 10, "velocity": 113}, {"time": 2093, "pitch": 54, "duration": 6, "velocity": 88}, {"time": 2099, "pitch": 49, "duration": 19, "velocity": 91}, {"time": 2099, "pitch": 61, "duration": 9, "velocity": 107}, {"time": 2099, "pitch": 65, "duration": 9, "velocity": 113}, {"time": 2099, "pitch": 68, "duration": 10, "velocity": 110}, {"time": 2108, "pitch": 56, "duration": 4, "velocity": 90}, {"time": 2111, "pitch": 61, "duration": 8, "velocity": 113}, {"time": 2111, "pitch": 65, "duration": 10, "velocity": 117}, {"time": 2111, "pitch": 68, "duration": 11, "velocity": 117}, {"time": 2117, "pitch": 56, "duration": 6, "velocity": 88}, {"time": 2123, "pitch": 51, "duration": 40, "velocity": 88}, {"time": 2123, "pitch": 63, "duration": 4, "velocity": 108}, {"time": 2123, "pitch": 66, "duration": 9, "velocity": 110}, {"time": 2123, "pitch": 70, "duration": 10, "velocity": 107}, {"time": 2129, "pitch": 58, "duration": 11, "velocity": 80}, {"time": 2132, "pitch": 63, "duration": 6, "velocity": 107}, {"time": 2135, "pitch": 65, "duration": 8, "velocity": 120}, {"time": 2141, "pitch": 58, "duration": 2, "velocity": 36}, {"time": 2141, "pitch": 63, "duration": 3, "velocity": 83}, {"time": 2144, "pitch": 63, "duration": 4, "velocity": 116}, {"time": 2144, "pitch": 66, "duration": 5, "velocity": 114}, {"time": 2144, "pitch": 70, "duration": 4, "velocity": 114}, {"time": 2147, "pitch": 58, "duration": 3, "velocity": 75}, {"time": 2150, "pitch": 63, "duration": 6, "velocity": 102}, {"time": 2150, "pitch": 66, "duration": 6, "velocity": 113}, {"time": 2150, "pitch": 70, "duration": 6, "velocity": 108}, {"time": 2156, "pitch": 58, "duration": 5, "velocity": 104}, {"time": 2159, "pitch": 63, "duration": 7, "velocity": 119}, {"time": 2159, "pitch": 66, "duration": 7, "velocity": 119}, {"time": 2159, "pitch": 70, "duration": 8, "velocity": 113}, {"time": 2165, "pitch": 51, "duration": 1, "velocity": 88}, {"time": 2171, "pitch": 47, "duration": 19, "velocity": 103}, {"time": 2171, "pitch": 63, "duration": 9, "velocity": 113}, {"time": 2171, "pitch": 66, "duration": 9, "velocity": 116}, {"time": 2171, "pitch": 71, "duration": 9, "velocity": 113}, {"time": 2180, "pitch": 59, "duration": 5, "velocity": 103}, {"time": 2183, "pitch": 63, "duration": 10, "velocity": 114}, {"time": 2183, "pitch": 66, "duration": 8, "velocity": 119}, {"time": 2183, "pitch": 71, "duration": 9, "velocity": 116}, {"time": 2189, "pitch": 59, "duration": 4, "velocity": 100}, {"time": 2195, "pitch": 49, "duration": 17, "velocity": 100}, {"time": 2195, "pitch": 61, "duration": 8, "velocity": 104}, {"time": 2195, "pitch": 65, "duration": 7, "velocity": 110}, {"time": 2195, "pitch": 68, "duration": 8, "velocity": 110}, {"time": 2201, "pitch": 56, "duration": 5, "velocity": 88}, {"time": 2204, "pitch": 61, "duration": 10, "velocity": 110}, {"time": 2204, "pitch": 65, "duration": 9, "velocity": 117}, {"time": 2204, "pitch": 68, "duration": 9, "velocity": 110}, {"time": 2210, "pitch": 56, "duration": 2, "velocity": 88}, {"time": 2219, "pitch": 42, "duration": 33, "velocity": 92}, {"time": 2219, "pitch": 58, "duration": 10, "velocity": 104}, {"time": 2219, "pitch": 61, "duration": 10, "velocity": 113}, {"time": 2219, "pitch": 66, "duration": 9, "velocity": 104}, {"time": 2228, "pitch": 54, "duration": 4, "velocity": 94}, {"time": 2231, "pitch": 58, "duration": 7, "velocity": 116}, {"time": 2231, "pitch": 61, "duration": 7, "velocity": 119}, {"time": 2231, "pitch": 66, "duration": 7, "velocity": 114}, {"time": 2237, "pitch": 54, "duration": 12, "velocity": 86}, {"time": 2240, "pitch": 58, "duration": 1, "velocity": 108}, {"time": 2240, "pitch": 61, "duration": 1, "velocity": 116}, {"time": 2240, "pitch": 66, "duration": 1, "velocity": 108}, {"time": 2246, "pitch": 58, "duration": 7, "velocity": 113}, {"time": 2246, "pitch": 61, "duration": 7, "velocity": 119}, {"time": 2246, "pitch": 66, "duration": 7, "velocity": 113}, {"time": 2252, "pitch": 42, "duration": 3, "velocity": 96}, {"time": 2252, "pitch": 54, "duration": 4, "velocity": 113}, {"time": 2255, "pitch": 58, "duration": 6, "velocity": 116}, {"time": 2255, "pitch": 61, "duration": 12, "velocity": 120}, {"time": 2255, "pitch": 66, "duration": 13, "velocity": 114}, {"time": 2261, "pitch": 42, "duration": 1, "velocity": 108}, {"time": 2267, "pitch": 42, "duration": 20, "velocity": 96}, {"time": 2267, "pitch": 54, "duration": 7, "velocity": 89}, {"time": 2273, "pitch": 61, "duration": 3, "velocity": 82}, {"time": 2273, "pitch": 66, "duration": 3, "velocity": 73}, {"time": 2273, "pitch": 70, "duration": 3, "velocity": 75}, {"time": 2276, "pitch": 54, "duration": 5, "velocity": 96}, {"time": 2279, "pitch": 61, "duration": 10, "velocity": 117}, {"time": 2279, "pitch": 66, "duration": 10, "velocity": 120}, {"time": 2279, "pitch": 70, "duration": 10, "velocity": 116}, {"time": 2285, "pitch": 54, "duration": 5, "velocity": 88}, {"time": 2291, "pitch": 49, "duration": 19, "velocity": 100}, {"time": 2291, "pitch": 61, "duration": 9, "velocity": 110}, {"time": 2291, "pitch": 65, "duration": 9, "velocity": 116}, {"time": 2291, "pitch": 68, "duration": 9, "velocity": 116}, {"time": 2300, "pitch": 56, "duration": 4, "velocity": 114}, {"time": 2303, "pitch": 61, "duration": 8, "velocity": 117}, {"time": 2303, "pitch": 65, "duration": 10, "velocity": 120}, {"time": 2303, "pitch": 68, "duration": 10, "velocity": 119}, {"time": 2309, "pitch": 56, "duration": 1, "velocity": 89}, {"time": 2315, "pitch": 51, "duration": 39, "velocity": 102}, {"time": 2315, "pitch": 63, "duration": 4, "velocity": 114}, {"time": 2315, "pitch": 66, "duration": 7, "velocity": 116}, {"time": 2315, "pitch": 70, "duration": 7, "velocity": 104}, {"time": 2321, "pitch": 58, "duration": 7, "velocity": 86}, {"time": 2324, "pitch": 65, "duration": 1, "velocity": 87}, {"time": 2327, "pitch": 65, "duration": 7, "velocity": 119}, {"time": 2327, "pitch": 70, "duration": 7, "velocity": 117}, {"time": 2333, "pitch": 58, "duration": 11, "velocity": 92}, {"time": 2336, "pitch": 63, "duration": 1, "velocity": 107}, {"time": 2336, "pitch": 66, "duration": 1, "velocity": 114}, {"time": 2336, "pitch": 70, "duration": 1, "velocity": 107}, {"time": 2342, "pitch": 63, "duration": 7, "velocity": 114}, {"time": 2342, "pitch": 66, "duration": 7, "velocity": 117}, {"time": 2342, "pitch": 70, "duration": 6, "velocity": 113}, {"time": 2348, "pitch": 58, "duration": 5, "velocity": 117}, {"time": 2351, "pitch": 63, "duration": 7, "velocity": 119}, {"time": 2351, "pitch": 66, "duration": 7, "velocity": 120}, {"time": 2351, "pitch": 70, "duration": 7, "velocity": 114}, {"time": 2357, "pitch": 51, "duration": 1, "velocity": 102}, {"time": 2363, "pitch": 47, "duration": 21, "velocity": 97}, {"time": 2363, "pitch": 59, "duration": 7, "velocity": 109}, {"time": 2363, "pitch": 63, "duration": 10, "velocity": 113}, {"time": 2363, "pitch": 66, "duration": 9, "velocity": 114}, {"time": 2363, "pitch": 71, "duration": 10, "velocity": 113}, {"time": 2372, "pitch": 59, "duration": 5, "velocity": 95}, {"time": 2375, "pitch": 63, "duration": 11, "velocity": 117}, {"time": 2375, "pitch": 66, "duration": 9, "velocity": 120}, {"time": 2375, "pitch": 71, "duration": 9, "velocity": 119}, {"time": 2381, "pitch": 59, "duration": 1, "velocity": 106}, {"time": 2384, "pitch": 59, "duration": 3, "velocity": 90}, {"time": 2387, "pitch": 49, "duration": 16, "velocity": 100}, {"time": 2387, "pitch": 61, "duration": 10, "velocity": 104}, {"time": 2387, "pitch": 65, "duration": 10, "velocity": 114}, {"time": 2387, "pitch": 68, "duration": 10, "velocity": 113}, {"time": 2396, "pitch": 56, "duration": 6, "velocity": 108}, {"time": 2399, "pitch": 61, "duration": 10, "velocity": 114}, {"time": 2399, "pitch": 65, "duration": 10, "velocity": 119}, {"time": 2399, "pitch": 68, "duration": 10, "velocity": 113}, {"time": 2405, "pitch": 49, "duration": 2, "velocity": 107}, {"time": 2411, "pitch": 42, "duration": 42, "velocity": 108}, {"time": 2411, "pitch": 61, "duration": 7, "velocity": 108}, {"time": 2411, "pitch": 66, "duration": 6, "velocity": 117}, {"time": 2411, "pitch": 70, "duration": 7, "velocity": 110}, {"time": 2420, "pitch": 54, "duration": 5, "velocity": 107}, {"time": 2423, "pitch": 58, "duration": 3, "velocity": 113}, {"time": 2423, "pitch": 61, "duration": 5, "velocity": 114}, {"time": 2423, "pitch": 66, "duration": 5, "velocity": 113}, {"time": 2429, "pitch": 54, "duration": 4, "velocity": 104}, {"time": 2432, "pitch": 61, "duration": 4, "velocity": 113}, {"time": 2432, "pitch": 66, "duration": 4, "velocity": 116}, {"time": 2432, "pitch": 70, "duration": 4, "velocity": 113}, {"time": 2435, "pitch": 54, "duration": 3, "velocity": 98}, {"time": 2438, "pitch": 61, "duration": 1, "velocity": 107}, {"time": 2438, "pitch": 66, "duration": 2, "velocity": 117}, {"time": 2438, "pitch": 70, "duration": 2, "velocity": 110}, {"time": 2444, "pitch": 54, "duration": 5, "velocity": 108}, {"time": 2447, "pitch": 66, "duration": 7, "velocity": 117}, {"time": 2447, "pitch": 70, "duration": 6, "velocity": 123}, {"time": 2447, "pitch": 73, "duration": 8, "velocity": 117}, {"time": 2453, "pitch": 54, "duration": 4, "velocity": 93}, {"time": 2459, "pitch": 42, "duration": 20, "velocity": 110}, {"time": 2459, "pitch": 54, "duration": 6, "velocity": 102}, {"time": 2459, "pitch": 61, "duration": 5, "velocity": 108}, {"time": 2459, "pitch": 66, "duration": 5, "velocity": 114}, {"time": 2459, "pitch": 70, "duration": 4, "velocity": 108}, {"time": 2465, "pitch": 61, "duration": 4, "velocity": 71}, {"time": 2465, "pitch": 66, "duration": 4, "velocity": 79}, {"time": 2465, "pitch": 70, "duration": 4, "velocity": 78}, {"time": 2468, "pitch": 54, "duration": 5, "velocity": 116}, {"time": 2471, "pitch": 61, "duration": 10, "velocity": 114}, {"time": 2471, "pitch": 66, "duration": 10, "velocity": 117}, {"time": 2471, "pitch": 70, "duration": 9, "velocity": 113}, {"time": 2477, "pitch": 54, "duration": 2, "velocity": 110}, {"time": 2483, "pitch": 37, "duration": 22, "velocity": 114}, {"time": 2483, "pitch": 49, "duration": 2, "velocity": 98}, {"time": 2483, "pitch": 61, "duration": 9, "velocity": 113}, {"time": 2483, "pitch": 65, "duration": 9, "velocity": 116}, {"time": 2483, "pitch": 68, "duration": 9, "velocity": 117}, {"time": 2489, "pitch": 49, "duration": 3, "velocity": 104}, {"time": 2492, "pitch": 49, "duration": 3, "velocity": 114}, {"time": 2492, "pitch": 61, "duration": 7, "velocity": 114}, {"time": 2492, "pitch": 65, "duration": 7, "velocity": 119}, {"time": 2492, "pitch": 68, "duration": 7, "velocity": 119}, {"time": 2498, "pitch": 49, "duration": 3, "velocity": 119}, {"time": 2501, "pitch": 61, "duration": 4, "velocity": 110}, {"time": 2501, "pitch": 65, "duration": 4, "velocity": 113}, {"time": 2501, "pitch": 68, "duration": 4, "velocity": 113}, {"time": 2504, "pitch": 49, "duration": 2, "velocity": 117}, {"time": 2507, "pitch": 39, "duration": 23, "velocity": 114}, {"time": 2507, "pitch": 63, "duration": 8, "velocity": 114}, {"time": 2507, "pitch": 66, "duration": 8, "velocity": 116}, {"time": 2507, "pitch": 70, "duration": 8, "velocity": 110}, {"time": 2513, "pitch": 51, "duration": 5, "velocity": 110}, {"time": 2516, "pitch": 63, "duration": 7, "velocity": 117}, {"time": 2516, "pitch": 66, "duration": 7, "velocity": 119}, {"time": 2516, "pitch": 70, "duration": 7, "velocity": 114}, {"time": 2522, "pitch": 51, "duration": 4, "velocity": 119}, {"time": 2525, "pitch": 63, "duration": 13, "velocity": 108}, {"time": 2525, "pitch": 66, "duration": 14, "velocity": 114}, {"time": 2525, "pitch": 70, "duration": 13, "velocity": 104}, {"time": 2528, "pitch": 51, "duration": 2, "velocity": 104}, {"time": 2531, "pitch": 39, "duration": 20, "velocity": 116}, {"time": 2537, "pitch": 51, "duration": 4, "velocity": 92}, {"time": 2540, "pitch": 63, "duration": 7, "velocity": 116}, {"time": 2540, "pitch": 66, "duration": 7, "velocity": 117}, {"time": 2540, "pitch": 70, "duration": 7, "velocity": 113}, {"time": 2546, "pitch": 51, "duration": 3, "velocity": 114}, {"time": 2549, "pitch": 63, "duration": 4, "velocity": 116}, {"time": 2549, "pitch": 66, "duration": 3, "velocity": 114}, {"time": 2549, "pitch": 70, "duration": 4, "velocity": 108}, {"time": 2552, "pitch": 51, "duration": 1, "velocity": 110}, {"time": 2555, "pitch": 47, "duration": 21, "velocity": 103}, {"time": 2555, "pitch": 63, "duration": 10, "velocity": 108}, {"time": 2555, "pitch": 66, "duration": 10, "velocity": 114}, {"time": 2555, "pitch": 71, "duration": 10, "velocity": 116}, {"time": 2561, "pitch": 59, "duration": 2, "velocity": 97}, {"time": 2564, "pitch": 59, "duration": 4, "velocity": 109}, {"time": 2567, "pitch": 63, "duration": 9, "velocity": 114}, {"time": 2567, "pitch": 66, "duration": 8, "velocity": 117}, {"time": 2567, "pitch": 71, "duration": 8, "velocity": 116}, {"time": 2573, "pitch": 59, "duration": 4, "velocity": 109}, {"time": 2579, "pitch": 49, "duration": 15, "velocity": 104}, {"time": 2579, "pitch": 61, "duration": 10, "velocity": 110}, {"time": 2579, "pitch": 65, "duration": 10, "velocity": 114}, {"time": 2579, "pitch": 68, "duration": 9, "velocity": 110}, {"time": 2588, "pitch": 56, "duration": 6, "velocity": 98}, {"time": 2591, "pitch": 61, "duration": 7, "velocity": 113}, {"time": 2591, "pitch": 65, "duration": 10, "velocity": 116}, {"time": 2591, "pitch": 68, "duration": 9, "velocity": 108}, {"time": 2597, "pitch": 49, "duration": 1, "velocity": 100}, {"time": 2603, "pitch": 42, "duration": 43, "velocity": 108}, {"time": 2603, "pitch": 61, "duration": 7, "velocity": 108}, {"time": 2603, "pitch": 66, "duration": 3, "velocity": 116}, {"time": 2603, "pitch": 70, "duration": 4, "velocity": 104}, {"time": 2606, "pitch": 49, "duration": 28, "velocity": 79}, {"time": 2609, "pitch": 54, "duration": 7, "velocity": 113}, {"time": 2612, "pitch": 58, "duration": 1, "velocity": 87}, {"time": 2612, "pitch": 61, "duration": 1, "velocity": 90}, {"time": 2615, "pitch": 58, "duration": 7, "velocity": 116}, {"time": 2615, "pitch": 61, "duration": 7, "velocity": 120}, {"time": 2615, "pitch": 66, "duration": 7, "velocity": 114}, {"time": 2621, "pitch": 54, "duration": 11, "velocity": 110}, {"time": 2624, "pitch": 58, "duration": 1, "velocity": 107}, {"time": 2624, "pitch": 61, "duration": 1, "velocity": 114}, {"time": 2624, "pitch": 66, "duration": 1, "velocity": 107}, {"time": 2630, "pitch": 58, "duration": 7, "velocity": 110}, {"time": 2630, "pitch": 61, "duration": 7, "velocity": 117}, {"time": 2630, "pitch": 66, "duration": 7, "velocity": 110}, {"time": 2636, "pitch": 49, "duration": 6, "velocity": 86}, {"time": 2636, "pitch": 54, "duration": 4, "velocity": 114}, {"time": 2639, "pitch": 58, "duration": 5, "velocity": 119}, {"time": 2639, "pitch": 61, "duration": 10, "velocity": 120}, {"time": 2639, "pitch": 66, "duration": 9, "velocity": 116}, {"time": 2645, "pitch": 54, "duration": 4, "velocity": 96}, {"time": 2651, "pitch": 42, "duration": 19, "velocity": 114}, {"time": 2651, "pitch": 58, "duration": 6, "velocity": 114}, {"time": 2651, "pitch": 61, "duration": 10, "velocity": 117}, {"time": 2651, "pitch": 66, "duration": 10, "velocity": 108}, {"time": 2660, "pitch": 54, "duration": 5, "velocity": 116}, {"time": 2663, "pitch": 58, "duration": 4, "velocity": 116}, {"time": 2663, "pitch": 61, "duration": 7, "velocity": 119}, {"time": 2663, "pitch": 66, "duration": 7, "velocity": 113}, {"time": 2669, "pitch": 54, "duration": 5, "velocity": 108}, {"time": 2675, "pitch": 49, "duration": 20, "velocity": 107}, {"time": 2675, "pitch": 61, "duration": 8, "velocity": 107}, {"time": 2675, "pitch": 65, "duration": 8, "velocity": 114}, {"time": 2675, "pitch": 68, "duration": 7, "velocity": 107}, {"time": 2681, "pitch": 56, "duration": 6, "velocity": 107}, {"time": 2684, "pitch": 61, "duration": 7, "velocity": 114}, {"time": 2684, "pitch": 65, "duration": 7, "velocity": 119}, {"time": 2684, "pitch": 68, "duration": 7, "velocity": 114}, {"time": 2690, "pitch": 56, "duration": 4, "velocity": 104}, {"time": 2693, "pitch": 61, "duration": 4, "velocity": 110}, {"time": 2693, "pitch": 65, "duration": 5, "velocity": 114}, {"time": 2693, "pitch": 68, "duration": 4, "velocity": 102}, {"time": 2699, "pitch": 39, "duration": 41, "velocity": 114}, {"time": 2699, "pitch": 63, "duration": 10, "velocity": 108}, {"time": 2699, "pitch": 66, "duration": 10, "velocity": 116}, {"time": 2699, "pitch": 70, "duration": 10, "velocity": 108}, {"time": 2705, "pitch": 51, "duration": 1, "velocity": 76}, {"time": 2708, "pitch": 51, "duration": 6, "velocity": 113}, {"time": 2711, "pitch": 63, "duration": 7, "velocity": 117}, {"time": 2711, "pitch": 66, "duration": 7, "velocity": 119}, {"time": 2711, "pitch": 70, "duration": 8, "velocity": 110}, {"time": 2717, "pitch": 51, "duration": 4, "velocity": 88}, {"time": 2720, "pitch": 51, "duration": 1, "velocity": 83}, {"time": 2720, "pitch": 63, "duration": 1, "velocity": 113}, {"time": 2720, "pitch": 66, "duration": 1, "velocity": 114}, {"time": 2720, "pitch": 70, "duration": 2, "velocity": 104}, {"time": 2723, "pitch": 66, "duration": 1, "velocity": 88}, {"time": 2726, "pitch": 63, "duration": 7, "velocity": 113}, {"time": 2726, "pitch": 66, "duration": 7, "velocity": 116}, {"time": 2726, "pitch": 70, "duration": 7, "velocity": 108}, {"time": 2732, "pitch": 51, "duration": 4, "velocity": 114}, {"time": 2735, "pitch": 63, "duration": 4, "velocity": 116}, {"time": 2735, "pitch": 66, "duration": 4, "velocity": 120}, {"time": 2735, "pitch": 70, "duration": 4, "velocity": 114}, {"time": 2738, "pitch": 51, "duration": 4, "velocity": 117}, {"time": 2741, "pitch": 63, "duration": 4, "velocity": 113}, {"time": 2741, "pitch": 66, "duration": 2, "velocity": 116}, {"time": 2741, "pitch": 70, "duration": 3, "velocity": 107}, {"time": 2744, "pitch": 66, "duration": 2, "velocity": 80}, {"time": 2747, "pitch": 47, "duration": 21, "velocity": 103}, {"time": 2747, "pitch": 59, "duration": 1, "velocity": 103}, {"time": 2747, "pitch": 63, "duration": 10, "velocity": 110}, {"time": 2747, "pitch": 66, "duration": 10, "velocity": 116}, {"time": 2747, "pitch": 71, "duration": 10, "velocity": 116}, {"time": 2756, "pitch": 59, "duration": 5, "velocity": 113}, {"time": 2759, "pitch": 63, "duration": 9, "velocity": 114}, {"time": 2759, "pitch": 66, "duration": 8, "velocity": 119}, {"time": 2759, "pitch": 71, "duration": 9, "velocity": 119}, {"time": 2765, "pitch": 59, "duration": 3, "velocity": 81}, {"time": 2771, "pitch": 49, "duration": 16, "velocity": 100}, {"time": 2771, "pitch": 61, "duration": 10, "velocity": 113}, {"time": 2771, "pitch": 65, "duration": 10, "velocity": 113}, {"time": 2771, "pitch": 68, "duration": 9, "velocity": 107}, {"time": 2780, "pitch": 56, "duration": 5, "velocity": 113}, {"time": 2783, "pitch": 61, "duration": 8, "velocity": 116}, {"time": 2783, "pitch": 65, "duration": 10, "velocity": 119}, {"time": 2783, "pitch": 68, "duration": 9, "velocity": 117}, {"time": 2789, "pitch": 49, "duration": 1, "velocity": 98}, {"time": 2795, "pitch": 42, "duration": 44, "velocity": 104}, {"time": 2795, "pitch": 61, "duration": 10, "velocity": 114}, {"time": 2795, "pitch": 66, "duration": 4, "velocity": 117}, {"time": 2795, "pitch": 70, "duration": 4, "velocity": 113}, {"time": 2804, "pitch": 54, "duration": 5, "velocity": 110}, {"time": 2807, "pitch": 58, "duration": 8, "velocity": 116}, {"time": 2807, "pitch": 61, "duration": 8, "velocity": 119}, {"time": 2807, "pitch": 66, "duration": 7, "velocity": 114}, {"time": 2813, "pitch": 54, "duration": 12, "velocity": 102}, {"time": 2816, "pitch": 58, "duration": 1, "velocity": 104}, {"time": 2816, "pitch": 61, "duration": 1, "velocity": 107}, {"time": 2816, "pitch": 66, "duration": 1, "velocity": 100}, {"time": 2822, "pitch": 58, "duration": 7, "velocity": 107}, {"time": 2822, "pitch": 61, "duration": 7, "velocity": 113}, {"time": 2822, "pitch": 66, "duration": 7, "velocity": 104}, {"time": 2828, "pitch": 54, "duration": 5, "velocity": 108}, {"time": 2831, "pitch": 58, "duration": 5, "velocity": 114}, {"time": 2831, "pitch": 61, "duration": 7, "velocity": 119}, {"time": 2831, "pitch": 66, "duration": 7, "velocity": 114}, {"time": 2840, "pitch": 63, "duration": 9, "velocity": 68}, {"time": 2842, "pitch": 66, "duration": 2, "velocity": 81}, {"time": 2843, "pitch": 47, "duration": 18, "velocity": 77}, {"time": 2843, "pitch": 70, "duration": 17, "velocity": 90}, {"time": 2849, "pitch": 54, "duration": 11, "velocity": 38}, {"time": 2855, "pitch": 59, "duration": 5, "velocity": 76}, {"time": 2861, "pitch": 70, "duration": 6, "velocity": 83}, {"time": 2867, "pitch": 49, "duration": 16, "velocity": 83}, {"time": 2867, "pitch": 61, "duration": 8, "velocity": 82}, {"time": 2867, "pitch": 68, "duration": 9, "velocity": 82}, {"time": 2879, "pitch": 61, "duration": 12, "velocity": 75}, {"time": 2879, "pitch": 68, "duration": 6, "velocity": 80}, {"time": 2889, "pitch": 63, "duration": 14, "velocity": 52}, {"time": 2891, "pitch": 47, "duration": 17, "velocity": 80}, {"time": 2891, "pitch": 71, "duration": 13, "velocity": 81}, {"time": 2897, "pitch": 54, "duration": 11, "velocity": 52}, {"time": 2903, "pitch": 59, "duration": 5, "velocity": 70}, {"time": 2909, "pitch": 63, "duration": 2, "velocity": 79}, {"time": 2909, "pitch": 71, "duration": 6, "velocity": 73}, {"time": 2915, "pitch": 68, "duration": 7, "velocity": 80}, {"time": 2915, "pitch": 49, "duration": 15, "velocity": 73}, {"time": 2915, "pitch": 65, "duration": 7, "velocity": 72}, {"time": 2921, "pitch": 56, "duration": 9, "velocity": 50}, {"time": 2928, "pitch": 68, "duration": 11, "velocity": 81}, {"time": 2939, "pitch": 62, "duration": 22, "velocity": 81}, {"time": 2939, "pitch": 59, "duration": 14, "velocity": 74}, {"time": 2940, "pitch": 47, "duration": 15, "velocity": 69}, {"time": 2965, "pitch": 61, "duration": 19, "velocity": 70}, {"time": 2965, "pitch": 65, "duration": 18, "velocity": 74}, {"time": 2968, "pitch": 49, "duration": 20, "velocity": 34}, {"time": 2990, "pitch": 59, "duration": 11, "velocity": 72}, {"time": 2990, "pitch": 42, "duration": 75, "velocity": 74}, {"time": 2991, "pitch": 66, "duration": 8, "velocity": 81}, {"time": 2997, "pitch": 49, "duration": 68, "velocity": 63}, {"time": 3001, "pitch": 54, "duration": 63, "velocity": 80}, {"time": 3004, "pitch": 58, "duration": 5, "velocity": 76}, {"time": 3008, "pitch": 59, "duration": 4, "velocity": 83}, {"time": 3012, "pitch": 66, "duration": 2, "velocity": 83}, {"time": 3017, "pitch": 70, "duration": 3, "velocity": 84}, {"time": 3021, "pitch": 71, "duration": 2, "velocity": 76}, {"time": 3027, "pitch": 73, "duration": 8, "velocity": 64}, {"time": 3032, "pitch": 78, "duration": 10, "velocity": 68}, {"time": 3037, "pitch": 83, "duration": 6, "velocity": 75}, {"time": 3055, "pitch": 78, "duration": 9, "velocity": 64}, {"time": 3057, "pitch": 85, "duration": 7, "velocity": 64}, {"time": 3059, "pitch": 90, "duration": 5, "velocity": 75}], "annotations": [{"time": 12, "annotation": {"number": 64, "value": 127}, "group": "control_change"}, {"time": 33, "annotation": {"number": 64, "value": 38}, "group": "control_change"}, {"time": 33, "annotation": {"number": 64, "value": 0}, "group": "control_change"}, {"time": 35, "annotation": {"number": 64, "value": 127}, "group": "control_change"}, {"time": 57, "annotation": {"number": 64, "value": 74}, "group": "control_change"}, {"time": 57, "annotation": {"number": 64, "value": 0}, "group": "control_change"}, {"time": 59, "annotation": {"number": 64, "value": 127}, "group": "control_change"}, {"time": 105, "annotation": {"number": 64, "value": 74}, "group": "control_change"}, {"time": 105, "annotation": {"number": 64, "value": 38}, "group": "control_change"}, {"time": 105, "annotation": {"number": 64, "value": 0}, "group": "control_change"}, {"time": 107, "annotation": {"number": 64, "value": 127}, "group": "control_change"}, {"time": 108, "annotation": {"number": 64, "value": 38}, "group": "control_change"}, {"time": 108, "annotation": {"number": 64, "value": 127}, "group": "control_change"}, {"time": 114, "annotation": {"number": 64, "value": 74}, "group": "control_change"}, {"time": 114, "annotation": {"number": 64, "value": 0}, "group": "control_change"}, {"time": 153, "annotation": {"number": 64, "value": 74}, "group": "control_change"}, {"time": 153, "annotation": {"number": 64, "value": 0}, "group": "control_change"}, {"time": 155, "annotation": {"number": 64, "value": 74}, "group": "control_change"}, {"time": 155, "annotation": {"number": 64, "value": 127}, "group": "control_change"}, {"time": 201, "annotation": {"number": 64, "value": 38}, "group": "control_change"}, {"time": 201, "annotation": {"number": 64, "value": 0}, "group": "control_change"}, {"time": 203, "annotation": {"number": 64, "value": 127}, "group": "control_change"}, {"time": 227, "annotation": {"number": 64, "value": 127}, "group": "control_change"}, {"time": 245, "annotation": {"number": 64, "value": 38}, "group": "control_change"}, {"time": 245, "annotation": {"number": 64, "value": 0}, "group": "control_change"}, {"time": 249, "annotation": {"number": 64, "value": 74}, "group": "control_change"}, {"time": 249, "annotation": {"number": 64, "value": 0}, "group": "control_change"}, {"time": 251, "annotation": {"number": 64, "value": 74}, "group": "control_change"}, {"time": 251, "annotation": {"number": 64, "value": 127}, "group": "control_change"}, {"time": 296, "annotation": {"number": 64, "value": 38}, "group": "control_change"}, {"time": 297, "annotation": {"number": 64, "value": 0}, "group": "control_change"}, {"time": 299, "annotation": {"number": 64, "value": 127}, "group": "control_change"}, {"time": 322, "annotation": {"number": 64, "value": 0}, "group": "control_change"}, {"time": 323, "annotation": {"number": 64, "value": 74}, "group": "control_change"}, {"time": 323, "annotation": {"number": 64, "value": 127}, "group": "control_change"}, {"time": 395, "annotation": {"number": 64, "value": 127}, "group": "control_change"}, {"time": 417, "annotation": {"number": 64, "value": 74}, "group": "control_change"}, {"time": 417, "annotation": {"number": 64, "value": 0}, "group": "control_change"}, {"time": 418, "annotation": {"number": 64, "value": 127}, "group": "control_change"}, {"time": 441, "annotation": {"number": 64, "value": 38}, "group": "control_change"}, {"time": 441, "annotation": {"number": 64, "value": 0}, "group": "control_change"}, {"time": 443, "annotation": {"number": 64, "value": 74}, "group": "control_change"}, {"time": 443, "annotation": {"number": 64, "value": 127}, "group": "control_change"}, {"time": 489, "annotation": {"number": 64, "value": 38}, "group": "control_change"}, {"time": 489, "annotation": {"number": 64, "value": 0}, "group": "control_change"}, {"time": 491, "annotation": {"number": 64, "value": 38}, "group": "control_change"}, {"time": 491, "annotation": {"number": 64, "value": 127}, "group": "control_change"}, {"time": 538, "annotation": {"number": 64, "value": 38}, "group": "control_change"}, {"time": 538, "annotation": {"number": 64, "value": 0}, "group": "control_change"}, {"time": 539, "annotation": {"number": 64, "value": 127}, "group": "control_change"}, {"time": 585, "annotation": {"number": 64, "value": 38}, "group": "control_change"}, {"time": 585, "annotation": {"number": 64, "value": 0}, "group": "control_change"}, {"time": 587, "annotation": {"number": 64, "value": 127}, "group": "control_change"}, {"time": 610, "annotation": {"number": 64, "value": 38}, "group": "control_change"}, {"time": 610, "annotation": {"number": 64, "value": 0}, "group": "control_change"}, {"time": 612, "annotation": {"number": 64, "value": 127}, "group": "control_change"}, {"time": 634, "annotation": {"number": 64, "value": 0}, "group": "control_change"}, {"time": 634, "annotation": {"number": 64, "value": 74}, "group": "control_change"}, {"time": 635, "annotation": {"number": 64, "value": 74}, "group": "control_change"}, {"time": 635, "annotation": {"number": 64, "value": 127}, "group": "control_change"}, {"time": 643, "annotation": {"number": 64, "value": 38}, "group": "control_change"}, {"time": 643, "annotation": {"number": 64, "value": 0}, "group": "control_change"}, {"time": 646, "annotation": {"number": 64, "value": 127}, "group": "control_change"}, {"time": 647, "annotation": {"number": 64, "value": 74}, "group": "control_change"}, {"time": 647, "annotation": {"number": 64, "value": 38}, "group": "control_change"}, {"time": 647, "annotation": {"number": 64, "value": 0}, "group": "control_change"}, {"time": 655, "annotation": {"number": 64, "value": 0}, "group": "control_change"}, {"time": 658, "annotation": {"number": 64, "value": 127}, "group": "control_change"}, {"time": 680, "annotation": {"number": 64, "value": 38}, "group": "control_change"}, {"time": 680, "annotation": {"number": 64, "value": 0}, "group": "control_change"}, {"time": 683, "annotation": {"number": 64, "value": 127}, "group": "control_change"}, {"time": 728, "annotation": {"number": 64, "value": 38}, "group": "control_change"}, {"time": 728, "annotation": {"number": 64, "value": 0}, "group": "control_change"}, {"time": 732, "annotation": {"number": 64, "value": 127}, "group": "control_change"}, {"time": 776, "annotation": {"number": 64, "value": 0}, "group": "control_change"}, {"time": 779, "annotation": {"number": 64, "value": 127}, "group": "control_change"}, {"time": 800, "annotation": {"number": 64, "value": 38}, "group": "control_change"}, {"time": 800, "annotation": {"number": 64, "value": 0}, "group": "control_change"}, {"time": 803, "annotation": {"number": 64, "value": 127}, "group": "control_change"}, {"time": 826, "annotation": {"number": 64, "value": 38}, "group": "control_change"}, {"time": 826, "annotation": {"number": 64, "value": 0}, "group": "control_change"}, {"time": 828, "annotation": {"number": 64, "value": 127}, "group": "control_change"}, {"time": 873, "annotation": {"number": 64, "value": 38}, "group": "control_change"}, {"time": 873, "annotation": {"number": 64, "value": 0}, "group": "control_change"}, {"time": 876, "annotation": {"number": 64, "value": 74}, "group": "control_change"}, {"time": 876, "annotation": {"number": 64, "value": 127}, "group": "control_change"}, {"time": 897, "annotation": {"number": 64, "value": 38}, "group": "control_change"}, {"time": 897, "annotation": {"number": 64, "value": 0}, "group": "control_change"}, {"time": 899, "annotation": {"number": 64, "value": 74}, "group": "control_change"}, {"time": 899, "annotation": {"number": 64, "value": 127}, "group": "control_change"}, {"time": 922, "annotation": {"number": 64, "value": 74}, "group": "control_change"}, {"time": 922, "annotation": {"number": 64, "value": 0}, "group": "control_change"}, {"time": 924, "annotation": {"number": 64, "value": 74}, "group": "control_change"}, {"time": 924, "annotation": {"number": 64, "value": 127}, "group": "control_change"}, {"time": 969, "annotation": {"number": 64, "value": 0}, "group": "control_change"}, {"time": 971, "annotation": {"number": 64, "value": 127}, "group": "control_change"}, {"time": 992, "annotation": {"number": 64, "value": 74}, "group": "control_change"}, {"time": 993, "annotation": {"number": 64, "value": 0}, "group": "control_change"}, {"time": 995, "annotation": {"number": 64, "value": 127}, "group": "control_change"}, {"time": 1016, "annotation": {"number": 64, "value": 74}, "group": "control_change"}, {"time": 1017, "annotation": {"number": 64, "value": 0}, "group": "control_change"}, {"time": 1019, "annotation": {"number": 64, "value": 127}, "group": "control_change"}, {"time": 1029, "annotation": {"number": 64, "value": 74}, "group": "control_change"}, {"time": 1029, "annotation": {"number": 64, "value": 0}, "group": "control_change"}, {"time": 1031, "annotation": {"number": 64, "value": 127}, "group": "control_change"}, {"time": 1040, "annotation": {"number": 64, "value": 0}, "group": "control_change"}, {"time": 1043, "annotation": {"number": 64, "value": 127}, "group": "control_change"}, {"time": 1064, "annotation": {"number": 64, "value": 0}, "group": "control_change"}, {"time": 1067, "annotation": {"number": 64, "value": 127}, "group": "control_change"}, {"time": 1088, "annotation": {"number": 64, "value": 74}, "group": "control_change"}, {"time": 1088, "annotation": {"number": 64, "value": 0}, "group": "control_change"}, {"time": 1091, "annotation": {"number": 64, "value": 127}, "group": "control_change"}, {"time": 1113, "annotation": {"number": 64, "value": 38}, "group": "control_change"}, {"time": 1113, "annotation": {"number": 64, "value": 0}, "group": "control_change"}, {"time": 1115, "annotation": {"number": 64, "value": 127}, "group": "control_change"}, {"time": 1137, "annotation": {"number": 64, "value": 74}, "group": "control_change"}, {"time": 1138, "annotation": {"number": 64, "value": 0}, "group": "control_change"}, {"time": 1139, "annotation": {"number": 64, "value": 127}, "group": "control_change"}, {"time": 1161, "annotation": {"number": 64, "value": 74}, "group": "control_change"}, {"time": 1161, "annotation": {"number": 64, "value": 0}, "group": "control_change"}, {"time": 1163, "annotation": {"number": 64, "value": 127}, "group": "control_change"}, {"time": 1184, "annotation": {"number": 64, "value": 38}, "group": "control_change"}, {"time": 1185, "annotation": {"number": 64, "value": 0}, "group": "control_change"}, {"time": 1187, "annotation": {"number": 64, "value": 127}, "group": "control_change"}, {"time": 1209, "annotation": {"number": 64, "value": 38}, "group": "control_change"}, {"time": 1209, "annotation": {"number": 64, "value": 0}, "group": "control_change"}, {"time": 1211, "annotation": {"number": 64, "value": 127}, "group": "control_change"}, {"time": 1221, "annotation": {"number": 64, "value": 38}, "group": "control_change"}, {"time": 1222, "annotation": {"number": 64, "value": 0}, "group": "control_change"}, {"time": 1223, "annotation": {"number": 64, "value": 127}, "group": "control_change"}, {"time": 1233, "annotation": {"number": 64, "value": 38}, "group": "control_change"}, {"time": 1233, "annotation": {"number": 64, "value": 0}, "group": "control_change"}, {"time": 1235, "annotation": {"number": 64, "value": 127}, "group": "control_change"}, {"time": 1256, "annotation": {"number": 64, "value": 74}, "group": "control_change"}, {"time": 1256, "annotation": {"number": 64, "value": 0}, "group": "control_change"}, {"time": 1259, "annotation": {"number": 64, "value": 127}, "group": "control_change"}, {"time": 1280, "annotation": {"number": 64, "value": 38}, "group": "control_change"}, {"time": 1280, "annotation": {"number": 64, "value": 0}, "group": "control_change"}, {"time": 1283, "annotation": {"number": 64, "value": 127}, "group": "control_change"}, {"time": 1305, "annotation": {"number": 64, "value": 38}, "group": "control_change"}, {"time": 1305, "annotation": {"number": 64, "value": 0}, "group": "control_change"}, {"time": 1307, "annotation": {"number": 64, "value": 127}, "group": "control_change"}, {"time": 1317, "annotation": {"number": 64, "value": 38}, "group": "control_change"}, {"time": 1318, "annotation": {"number": 64, "value": 0}, "group": "control_change"}, {"time": 1320, "annotation": {"number": 64, "value": 127}, "group": "control_change"}, {"time": 1329, "annotation": {"number": 64, "value": 0}, "group": "control_change"}, {"time": 1331, "annotation": {"number": 64, "value": 127}, "group": "control_change"}, {"time": 1353, "annotation": {"number": 64, "value": 38}, "group": "control_change"}, {"time": 1353, "annotation": {"number": 64, "value": 0}, "group": "control_change"}, {"time": 1355, "annotation": {"number": 64, "value": 127}, "group": "control_change"}, {"time": 1376, "annotation": {"number": 64, "value": 0}, "group": "control_change"}, {"time": 1379, "annotation": {"number": 64, "value": 127}, "group": "control_change"}, {"time": 1401, "annotation": {"number": 64, "value": 38}, "group": "control_change"}, {"time": 1401, "annotation": {"number": 64, "value": 0}, "group": "control_change"}, {"time": 1403, "annotation": {"number": 64, "value": 127}, "group": "control_change"}, {"time": 1424, "annotation": {"number": 64, "value": 38}, "group": "control_change"}, {"time": 1424, "annotation": {"number": 64, "value": 0}, "group": "control_change"}, {"time": 1426, "annotation": {"number": 64, "value": 127}, "group": "control_change"}, {"time": 1449, "annotation": {"number": 64, "value": 74}, "group": "control_change"}, {"time": 1449, "annotation": {"number": 64, "value": 0}, "group": "control_change"}, {"time": 1451, "annotation": {"number": 64, "value": 127}, "group": "control_change"}, {"time": 1473, "annotation": {"number": 64, "value": 74}, "group": "control_change"}, {"time": 1473, "annotation": {"number": 64, "value": 0}, "group": "control_change"}, {"time": 1475, "annotation": {"number": 64, "value": 127}, "group": "control_change"}, {"time": 1497, "annotation": {"number": 64, "value": 74}, "group": "control_change"}, {"time": 1497, "annotation": {"number": 64, "value": 0}, "group": "control_change"}, {"time": 1499, "annotation": {"number": 64, "value": 127}, "group": "control_change"}, {"time": 1509, "annotation": {"number": 64, "value": 74}, "group": "control_change"}, {"time": 1509, "annotation": {"number": 64, "value": 0}, "group": "control_change"}, {"time": 1511, "annotation": {"number": 64, "value": 74}, "group": "control_change"}, {"time": 1511, "annotation": {"number": 64, "value": 127}, "group": "control_change"}, {"time": 1522, "annotation": {"number": 64, "value": 38}, "group": "control_change"}, {"time": 1522, "annotation": {"number": 64, "value": 0}, "group": "control_change"}, {"time": 1523, "annotation": {"number": 64, "value": 127}, "group": "control_change"}, {"time": 1524, "annotation": {"number": 64, "value": 127}, "group": "control_change"}, {"time": 1543, "annotation": {"number": 64, "value": 38}, "group": "control_change"}, {"time": 1543, "annotation": {"number": 64, "value": 0}, "group": "control_change"}, {"time": 1544, "annotation": {"number": 64, "value": 0}, "group": "control_change"}, {"time": 1548, "annotation": {"number": 64, "value": 127}, "group": "control_change"}, {"time": 1569, "annotation": {"number": 64, "value": 74}, "group": "control_change"}, {"time": 1569, "annotation": {"number": 64, "value": 38}, "group": "control_change"}, {"time": 1569, "annotation": {"number": 64, "value": 0}, "group": "control_change"}, {"time": 1573, "annotation": {"number": 64, "value": 127}, "group": "control_change"}, {"time": 1599, "annotation": {"number": 64, "value": 38}, "group": "control_change"}, {"time": 1599, "annotation": {"number": 64, "value": 0}, "group": "control_change"}, {"time": 1619, "annotation": {"number": 64, "value": 127}, "group": "control_change"}, {"time": 1685, "annotation": {"number": 64, "value": 38}, "group": "control_change"}, {"time": 1685, "annotation": {"number": 64, "value": 0}, "group": "control_change"}, {"time": 1713, "annotation": {"number": 64, "value": 74}, "group": "control_change"}, {"time": 1713, "annotation": {"number": 64, "value": 0}, "group": "control_change"}, {"time": 1714, "annotation": {"number": 64, "value": 127}, "group": "control_change"}, {"time": 1737, "annotation": {"number": 64, "value": 38}, "group": "control_change"}, {"time": 1737, "annotation": {"number": 64, "value": 0}, "group": "control_change"}, {"time": 1739, "annotation": {"number": 64, "value": 74}, "group": "control_change"}, {"time": 1739, "annotation": {"number": 64, "value": 127}, "group": "control_change"}, {"time": 1785, "annotation": {"number": 64, "value": 38}, "group": "control_change"}, {"time": 1785, "annotation": {"number": 64, "value": 0}, "group": "control_change"}, {"time": 1787, "annotation": {"number": 64, "value": 38}, "group": "control_change"}, {"time": 1787, "annotation": {"number": 64, "value": 127}, "group": "control_change"}, {"time": 1834, "annotation": {"number": 64, "value": 38}, "group": "control_change"}, {"time": 1834, "annotation": {"number": 64, "value": 0}, "group": "control_change"}, {"time": 1835, "annotation": {"number": 64, "value": 127}, "group": "control_change"}, {"time": 1881, "annotation": {"number": 64, "value": 38}, "group": "control_change"}, {"time": 1881, "annotation": {"number": 64, "value": 0}, "group": "control_change"}, {"time": 1883, "annotation": {"number": 64, "value": 127}, "group": "control_change"}, {"time": 1906, "annotation": {"number": 64, "value": 38}, "group": "control_change"}, {"time": 1906, "annotation": {"number": 64, "value": 0}, "group": "control_change"}, {"time": 1908, "annotation": {"number": 64, "value": 127}, "group": "control_change"}, {"time": 1930, "annotation": {"number": 64, "value": 0}, "group": "control_change"}, {"time": 1930, "annotation": {"number": 64, "value": 74}, "group": "control_change"}, {"time": 1931, "annotation": {"number": 64, "value": 74}, "group": "control_change"}, {"time": 1931, "annotation": {"number": 64, "value": 127}, "group": "control_change"}, {"time": 1939, "annotation": {"number": 64, "value": 38}, "group": "control_change"}, {"time": 1939, "annotation": {"number": 64, "value": 0}, "group": "control_change"}, {"time": 1942, "annotation": {"number": 64, "value": 127}, "group": "control_change"}, {"time": 1943, "annotation": {"number": 64, "value": 74}, "group": "control_change"}, {"time": 1943, "annotation": {"number": 64, "value": 38}, "group": "control_change"}, {"time": 1943, "annotation": {"number": 64, "value": 0}, "group": "control_change"}, {"time": 1951, "annotation": {"number": 64, "value": 0}, "group": "control_change"}, {"time": 1954, "annotation": {"number": 64, "value": 127}, "group": "control_change"}, {"time": 1976, "annotation": {"number": 64, "value": 38}, "group": "control_change"}, {"time": 1976, "annotation": {"number": 64, "value": 0}, "group": "control_change"}, {"time": 1979, "annotation": {"number": 64, "value": 127}, "group": "control_change"}, {"time": 2024, "annotation": {"number": 64, "value": 38}, "group": "control_change"}, {"time": 2024, "annotation": {"number": 64, "value": 0}, "group": "control_change"}, {"time": 2028, "annotation": {"number": 64, "value": 127}, "group": "control_change"}, {"time": 2072, "annotation": {"number": 64, "value": 0}, "group": "control_change"}, {"time": 2075, "annotation": {"number": 64, "value": 127}, "group": "control_change"}, {"time": 2075, "annotation": {"number": 64, "value": 38}, "group": "control_change"}, {"time": 2075, "annotation": {"number": 64, "value": 74}, "group": "control_change"}, {"time": 2090, "annotation": {"number": 64, "value": 74}, "group": "control_change"}, {"time": 2090, "annotation": {"number": 64, "value": 127}, "group": "control_change"}, {"time": 2091, "annotation": {"number": 64, "value": 74}, "group": "control_change"}, {"time": 2091, "annotation": {"number": 64, "value": 0}, "group": "control_change"}, {"time": 2092, "annotation": {"number": 64, "value": 127}, "group": "control_change"}, {"time": 2098, "annotation": {"number": 64, "value": 38}, "group": "control_change"}, {"time": 2098, "annotation": {"number": 64, "value": 0}, "group": "control_change"}, {"time": 2100, "annotation": {"number": 64, "value": 127}, "group": "control_change"}, {"time": 2122, "annotation": {"number": 64, "value": 74}, "group": "control_change"}, {"time": 2122, "annotation": {"number": 64, "value": 0}, "group": "control_change"}, {"time": 2123, "annotation": {"number": 64, "value": 127}, "group": "control_change"}, {"time": 2124, "annotation": {"number": 64, "value": 74}, "group": "control_change"}, {"time": 2124, "annotation": {"number": 64, "value": 0}, "group": "control_change"}, {"time": 2124, "annotation": {"number": 64, "value": 127}, "group": "control_change"}, {"time": 2164, "annotation": {"number": 64, "value": 38}, "group": "control_change"}, {"time": 2164, "annotation": {"number": 64, "value": 0}, "group": "control_change"}, {"time": 2166, "annotation": {"number": 64, "value": 74}, "group": "control_change"}, {"time": 2166, "annotation": {"number": 64, "value": 127}, "group": "control_change"}, {"time": 2166, "annotation": {"number": 64, "value": 38}, "group": "control_change"}, {"time": 2166, "annotation": {"number": 64, "value": 0}, "group": "control_change"}, {"time": 2168, "annotation": {"number": 64, "value": 74}, "group": "control_change"}, {"time": 2168, "annotation": {"number": 64, "value": 0}, "group": "control_change"}, {"time": 2168, "annotation": {"number": 64, "value": 38}, "group": "control_change"}, {"time": 2168, "annotation": {"number": 64, "value": 127}, "group": "control_change"}, {"time": 2171, "annotation": {"number": 64, "value": 127}, "group": "control_change"}, {"time": 2171, "annotation": {"number": 64, "value": 0}, "group": "control_change"}, {"time": 2172, "annotation": {"number": 64, "value": 38}, "group": "control_change"}, {"time": 2172, "annotation": {"number": 64, "value": 0}, "group": "control_change"}, {"time": 2172, "annotation": {"number": 64, "value": 127}, "group": "control_change"}, {"time": 2173, "annotation": {"number": 64, "value": 127}, "group": "control_change"}, {"time": 2187, "annotation": {"number": 64, "value": 74}, "group": "control_change"}, {"time": 2187, "annotation": {"number": 64, "value": 127}, "group": "control_change"}, {"time": 2188, "annotation": {"number": 64, "value": 0}, "group": "control_change"}, {"time": 2189, "annotation": {"number": 64, "value": 127}, "group": "control_change"}, {"time": 2191, "annotation": {"number": 64, "value": 74}, "group": "control_change"}, {"time": 2191, "annotation": {"number": 64, "value": 0}, "group": "control_change"}, {"time": 2191, "annotation": {"number": 64, "value": 127}, "group": "control_change"}, {"time": 2192, "annotation": {"number": 64, "value": 74}, "group": "control_change"}, {"time": 2192, "annotation": {"number": 64, "value": 38}, "group": "control_change"}, {"time": 2192, "annotation": {"number": 64, "value": 0}, "group": "control_change"}, {"time": 2192, "annotation": {"number": 64, "value": 127}, "group": "control_change"}, {"time": 2195, "annotation": {"number": 64, "value": 0}, "group": "control_change"}, {"time": 2195, "annotation": {"number": 64, "value": 74}, "group": "control_change"}, {"time": 2195, "annotation": {"number": 64, "value": 127}, "group": "control_change"}, {"time": 2196, "annotation": {"number": 64, "value": 74}, "group": "control_change"}, {"time": 2196, "annotation": {"number": 64, "value": 38}, "group": "control_change"}, {"time": 2196, "annotation": {"number": 64, "value": 0}, "group": "control_change"}, {"time": 2196, "annotation": {"number": 64, "value": 127}, "group": "control_change"}, {"time": 2217, "annotation": {"number": 64, "value": 74}, "group": "control_change"}, {"time": 2217, "annotation": {"number": 64, "value": 127}, "group": "control_change"}, {"time": 2217, "annotation": {"number": 64, "value": 0}, "group": "control_change"}, {"time": 2218, "annotation": {"number": 64, "value": 127}, "group": "control_change"}, {"time": 2246, "annotation": {"number": 64, "value": 74}, "group": "control_change"}, {"time": 2246, "annotation": {"number": 64, "value": 127}, "group": "control_change"}, {"time": 2247, "annotation": {"number": 64, "value": 38}, "group": "control_change"}, {"time": 2247, "annotation": {"number": 64, "value": 0}, "group": "control_change"}, {"time": 2248, "annotation": {"number": 64, "value": 127}, "group": "control_change"}, {"time": 2261, "annotation": {"number": 64, "value": 74}, "group": "control_change"}, {"time": 2262, "annotation": {"number": 64, "value": 127}, "group": "control_change"}, {"time": 2266, "annotation": {"number": 64, "value": 0}, "group": "control_change"}, {"time": 2267, "annotation": {"number": 64, "value": 127}, "group": "control_change"}, {"time": 2267, "annotation": {"number": 64, "value": 74}, "group": "control_change"}, {"time": 2267, "annotation": {"number": 64, "value": 38}, "group": "control_change"}, {"time": 2267, "annotation": {"number": 64, "value": 0}, "group": "control_change"}, {"time": 2268, "annotation": {"number": 64, "value": 127}, "group": "control_change"}, {"time": 2268, "annotation": {"number": 64, "value": 38}, "group": "control_change"}, {"time": 2283, "annotation": {"number": 64, "value": 74}, "group": "control_change"}, {"time": 2283, "annotation": {"number": 64, "value": 127}, "group": "control_change"}, {"time": 2284, "annotation": {"number": 64, "value": 38}, "group": "control_change"}, {"time": 2284, "annotation": {"number": 64, "value": 0}, "group": "control_change"}, {"time": 2285, "annotation": {"number": 64, "value": 127}, "group": "control_change"}, {"time": 2290, "annotation": {"number": 64, "value": 38}, "group": "control_change"}, {"time": 2290, "annotation": {"number": 64, "value": 0}, "group": "control_change"}, {"time": 2291, "annotation": {"number": 64, "value": 127}, "group": "control_change"}, {"time": 2307, "annotation": {"number": 64, "value": 74}, "group": "control_change"}, {"time": 2307, "annotation": {"number": 64, "value": 0}, "group": "control_change"}, {"time": 2309, "annotation": {"number": 64, "value": 127}, "group": "control_change"}, {"time": 2313, "annotation": {"number": 64, "value": 0}, "group": "control_change"}, {"time": 2315, "annotation": {"number": 64, "value": 127}, "group": "control_change"}, {"time": 2336, "annotation": {"number": 64, "value": 74}, "group": "control_change"}, {"time": 2336, "annotation": {"number": 64, "value": 127}, "group": "control_change"}, {"time": 2343, "annotation": {"number": 64, "value": 38}, "group": "control_change"}, {"time": 2343, "annotation": {"number": 64, "value": 0}, "group": "control_change"}, {"time": 2344, "annotation": {"number": 64, "value": 74}, "group": "control_change"}, {"time": 2344, "annotation": {"number": 64, "value": 127}, "group": "control_change"}, {"time": 2345, "annotation": {"number": 64, "value": 74}, "group": "control_change"}, {"time": 2345, "annotation": {"number": 64, "value": 127}, "group": "control_change"}, {"time": 2347, "annotation": {"number": 64, "value": 74}, "group": "control_change"}, {"time": 2347, "annotation": {"number": 64, "value": 127}, "group": "control_change"}, {"time": 2355, "annotation": {"number": 64, "value": 74}, "group": "control_change"}, {"time": 2355, "annotation": {"number": 64, "value": 0}, "group": "control_change"}, {"time": 2357, "annotation": {"number": 64, "value": 127}, "group": "control_change"}, {"time": 2357, "annotation": {"number": 64, "value": 38}, "group": "control_change"}, {"time": 2362, "annotation": {"number": 64, "value": 74}, "group": "control_change"}, {"time": 2362, "annotation": {"number": 64, "value": 127}, "group": "control_change"}, {"time": 2362, "annotation": {"number": 64, "value": 0}, "group": "control_change"}, {"time": 2363, "annotation": {"number": 64, "value": 127}, "group": "control_change"}, {"time": 2381, "annotation": {"number": 64, "value": 74}, "group": "control_change"}, {"time": 2381, "annotation": {"number": 64, "value": 127}, "group": "control_change"}, {"time": 2387, "annotation": {"number": 64, "value": 0}, "group": "control_change"}, {"time": 2387, "annotation": {"number": 64, "value": 127}, "group": "control_change"}, {"time": 2388, "annotation": {"number": 64, "value": 127}, "group": "control_change"}, {"time": 2388, "annotation": {"number": 64, "value": 74}, "group": "control_change"}, {"time": 2403, "annotation": {"number": 64, "value": 0}, "group": "control_change"}, {"time": 2405, "annotation": {"number": 64, "value": 127}, "group": "control_change"}, {"time": 2410, "annotation": {"number": 64, "value": 74}, "group": "control_change"}, {"time": 2410, "annotation": {"number": 64, "value": 0}, "group": "control_change"}, {"time": 2410, "annotation": {"number": 64, "value": 38}, "group": "control_change"}, {"time": 2411, "annotation": {"number": 64, "value": 127}, "group": "control_change"}, {"time": 2411, "annotation": {"number": 64, "value": 74}, "group": "control_change"}, {"time": 2452, "annotation": {"number": 64, "value": 38}, "group": "control_change"}, {"time": 2452, "annotation": {"number": 64, "value": 0}, "group": "control_change"}, {"time": 2453, "annotation": {"number": 64, "value": 74}, "group": "control_change"}, {"time": 2453, "annotation": {"number": 64, "value": 127}, "group": "control_change"}, {"time": 2459, "annotation": {"number": 64, "value": 127}, "group": "control_change"}, {"time": 2461, "annotation": {"number": 64, "value": 0}, "group": "control_change"}, {"time": 2461, "annotation": {"number": 64, "value": 127}, "group": "control_change"}, {"time": 2463, "annotation": {"number": 64, "value": 74}, "group": "control_change"}, {"time": 2463, "annotation": {"number": 64, "value": 38}, "group": "control_change"}, {"time": 2464, "annotation": {"number": 64, "value": 127}, "group": "control_change"}, {"time": 2473, "annotation": {"number": 64, "value": 74}, "group": "control_change"}, {"time": 2473, "annotation": {"number": 64, "value": 127}, "group": "control_change"}, {"time": 2473, "annotation": {"number": 64, "value": 0}, "group": "control_change"}, {"time": 2474, "annotation": {"number": 64, "value": 74}, "group": "control_change"}, {"time": 2474, "annotation": {"number": 64, "value": 127}, "group": "control_change"}, {"time": 2475, "annotation": {"number": 64, "value": 0}, "group": "control_change"}, {"time": 2476, "annotation": {"number": 64, "value": 127}, "group": "control_change"}, {"time": 2477, "annotation": {"number": 64, "value": 74}, "group": "control_change"}, {"time": 2477, "annotation": {"number": 64, "value": 127}, "group": "control_change"}, {"time": 2480, "annotation": {"number": 64, "value": 74}, "group": "control_change"}, {"time": 2481, "annotation": {"number": 64, "value": 127}, "group": "control_change"}, {"time": 2481, "annotation": {"number": 64, "value": 0}, "group": "control_change"}, {"time": 2483, "annotation": {"number": 64, "value": 127}, "group": "control_change"}, {"time": 2490, "annotation": {"number": 64, "value": 0}, "group": "control_change"}, {"time": 2492, "annotation": {"number": 64, "value": 38}, "group": "control_change"}, {"time": 2492, "annotation": {"number": 64, "value": 127}, "group": "control_change"}, {"time": 2496, "annotation": {"number": 64, "value": 74}, "group": "control_change"}, {"time": 2496, "annotation": {"number": 64, "value": 0}, "group": "control_change"}, {"time": 2497, "annotation": {"number": 64, "value": 74}, "group": "control_change"}, {"time": 2497, "annotation": {"number": 64, "value": 127}, "group": "control_change"}, {"time": 2501, "annotation": {"number": 64, "value": 38}, "group": "control_change"}, {"time": 2501, "annotation": {"number": 64, "value": 0}, "group": "control_change"}, {"time": 2503, "annotation": {"number": 64, "value": 127}, "group": "control_change"}, {"time": 2503, "annotation": {"number": 64, "value": 74}, "group": "control_change"}, {"time": 2503, "annotation": {"number": 64, "value": 38}, "group": "control_change"}, {"time": 2503, "annotation": {"number": 64, "value": 0}, "group": "control_change"}, {"time": 2504, "annotation": {"number": 64, "value": 38}, "group": "control_change"}, {"time": 2504, "annotation": {"number": 64, "value": 127}, "group": "control_change"}, {"time": 2505, "annotation": {"number": 64, "value": 38}, "group": "control_change"}, {"time": 2505, "annotation": {"number": 64, "value": 0}, "group": "control_change"}, {"time": 2506, "annotation": {"number": 64, "value": 127}, "group": "control_change"}, {"time": 2514, "annotation": {"number": 64, "value": 74}, "group": "control_change"}, {"time": 2514, "annotation": {"number": 64, "value": 127}, "group": "control_change"}, {"time": 2515, "annotation": {"number": 64, "value": 38}, "group": "control_change"}, {"time": 2515, "annotation": {"number": 64, "value": 0}, "group": "control_change"}, {"time": 2515, "annotation": {"number": 64, "value": 127}, "group": "control_change"}, {"time": 2520, "annotation": {"number": 64, "value": 74}, "group": "control_change"}, {"time": 2520, "annotation": {"number": 64, "value": 127}, "group": "control_change"}, {"time": 2526, "annotation": {"number": 64, "value": 38}, "group": "control_change"}, {"time": 2526, "annotation": {"number": 64, "value": 127}, "group": "control_change"}, {"time": 2528, "annotation": {"number": 64, "value": 74}, "group": "control_change"}, {"time": 2528, "annotation": {"number": 64, "value": 127}, "group": "control_change"}, {"time": 2529, "annotation": {"number": 64, "value": 38}, "group": "control_change"}, {"time": 2529, "annotation": {"number": 64, "value": 0}, "group": "control_change"}, {"time": 2530, "annotation": {"number": 64, "value": 127}, "group": "control_change"}, {"time": 2549, "annotation": {"number": 64, "value": 38}, "group": "control_change"}, {"time": 2549, "annotation": {"number": 64, "value": 0}, "group": "control_change"}, {"time": 2550, "annotation": {"number": 64, "value": 127}, "group": "control_change"}, {"time": 2562, "annotation": {"number": 64, "value": 74}, "group": "control_change"}, {"time": 2562, "annotation": {"number": 64, "value": 127}, "group": "control_change"}, {"time": 2563, "annotation": {"number": 64, "value": 38}, "group": "control_change"}, {"time": 2563, "annotation": {"number": 64, "value": 0}, "group": "control_change"}, {"time": 2563, "annotation": {"number": 64, "value": 74}, "group": "control_change"}, {"time": 2563, "annotation": {"number": 64, "value": 127}, "group": "control_change"}, {"time": 2570, "annotation": {"number": 64, "value": 74}, "group": "control_change"}, {"time": 2571, "annotation": {"number": 64, "value": 0}, "group": "control_change"}, {"time": 2572, "annotation": {"number": 64, "value": 127}, "group": "control_change"}, {"time": 2572, "annotation": {"number": 64, "value": 74}, "group": "control_change"}, {"time": 2573, "annotation": {"number": 64, "value": 127}, "group": "control_change"}, {"time": 2576, "annotation": {"number": 64, "value": 38}, "group": "control_change"}, {"time": 2576, "annotation": {"number": 64, "value": 0}, "group": "control_change"}, {"time": 2578, "annotation": {"number": 64, "value": 127}, "group": "control_change"}, {"time": 2587, "annotation": {"number": 64, "value": 74}, "group": "control_change"}, {"time": 2588, "annotation": {"number": 64, "value": 127}, "group": "control_change"}, {"time": 2595, "annotation": {"number": 64, "value": 0}, "group": "control_change"}, {"time": 2597, "annotation": {"number": 64, "value": 127}, "group": "control_change"}, {"time": 2597, "annotation": {"number": 64, "value": 38}, "group": "control_change"}, {"time": 2601, "annotation": {"number": 64, "value": 74}, "group": "control_change"}, {"time": 2602, "annotation": {"number": 64, "value": 0}, "group": "control_change"}, {"time": 2602, "annotation": {"number": 64, "value": 127}, "group": "control_change"}, {"time": 2623, "annotation": {"number": 64, "value": 74}, "group": "control_change"}, {"time": 2623, "annotation": {"number": 64, "value": 127}, "group": "control_change"}, {"time": 2624, "annotation": {"number": 64, "value": 74}, "group": "control_change"}, {"time": 2624, "annotation": {"number": 64, "value": 127}, "group": "control_change"}, {"time": 2629, "annotation": {"number": 64, "value": 74}, "group": "control_change"}, {"time": 2629, "annotation": {"number": 64, "value": 127}, "group": "control_change"}, {"time": 2643, "annotation": {"number": 64, "value": 38}, "group": "control_change"}, {"time": 2643, "annotation": {"number": 64, "value": 0}, "group": "control_change"}, {"time": 2644, "annotation": {"number": 64, "value": 127}, "group": "control_change"}, {"time": 2649, "annotation": {"number": 64, "value": 38}, "group": "control_change"}, {"time": 2649, "annotation": {"number": 64, "value": 0}, "group": "control_change"}, {"time": 2650, "annotation": {"number": 64, "value": 127}, "group": "control_change"}, {"time": 2667, "annotation": {"number": 64, "value": 74}, "group": "control_change"}, {"time": 2667, "annotation": {"number": 64, "value": 0}, "group": "control_change"}, {"time": 2668, "annotation": {"number": 64, "value": 127}, "group": "control_change"}, {"time": 2669, "annotation": {"number": 64, "value": 38}, "group": "control_change"}, {"time": 2669, "annotation": {"number": 64, "value": 0}, "group": "control_change"}, {"time": 2670, "annotation": {"number": 64, "value": 127}, "group": "control_change"}, {"time": 2672, "annotation": {"number": 64, "value": 74}, "group": "control_change"}, {"time": 2672, "annotation": {"number": 64, "value": 127}, "group": "control_change"}, {"time": 2674, "annotation": {"number": 64, "value": 0}, "group": "control_change"}, {"time": 2674, "annotation": {"number": 64, "value": 127}, "group": "control_change"}, {"time": 2675, "annotation": {"number": 64, "value": 74}, "group": "control_change"}, {"time": 2675, "annotation": {"number": 64, "value": 127}, "group": "control_change"}, {"time": 2675, "annotation": {"number": 64, "value": 0}, "group": "control_change"}, {"time": 2681, "annotation": {"number": 64, "value": 38}, "group": "control_change"}, {"time": 2681, "annotation": {"number": 64, "value": 74}, "group": "control_change"}, {"time": 2681, "annotation": {"number": 64, "value": 127}, "group": "control_change"}, {"time": 2697, "annotation": {"number": 64, "value": 74}, "group": "control_change"}, {"time": 2697, "annotation": {"number": 64, "value": 127}, "group": "control_change"}, {"time": 2698, "annotation": {"number": 64, "value": 0}, "group": "control_change"}, {"time": 2699, "annotation": {"number": 64, "value": 127}, "group": "control_change"}, {"time": 2718, "annotation": {"number": 64, "value": 0}, "group": "control_change"}, {"time": 2719, "annotation": {"number": 64, "value": 127}, "group": "control_change"}, {"time": 2723, "annotation": {"number": 64, "value": 74}, "group": "control_change"}, {"time": 2723, "annotation": {"number": 64, "value": 127}, "group": "control_change"}, {"time": 2727, "annotation": {"number": 64, "value": 38}, "group": "control_change"}, {"time": 2727, "annotation": {"number": 64, "value": 0}, "group": "control_change"}, {"time": 2728, "annotation": {"number": 64, "value": 127}, "group": "control_change"}, {"time": 2736, "annotation": {"number": 64, "value": 38}, "group": "control_change"}, {"time": 2736, "annotation": {"number": 64, "value": 0}, "group": "control_change"}, {"time": 2737, "annotation": {"number": 64, "value": 127}, "group": "control_change"}, {"time": 2738, "annotation": {"number": 64, "value": 0}, "group": "control_change"}, {"time": 2740, "annotation": {"number": 64, "value": 127}, "group": "control_change"}, {"time": 2747, "annotation": {"number": 64, "value": 38}, "group": "control_change"}, {"time": 2747, "annotation": {"number": 64, "value": 127}, "group": "control_change"}, {"time": 2763, "annotation": {"number": 64, "value": 38}, "group": "control_change"}, {"time": 2763, "annotation": {"number": 64, "value": 0}, "group": "control_change"}, {"time": 2764, "annotation": {"number": 64, "value": 127}, "group": "control_change"}, {"time": 2769, "annotation": {"number": 64, "value": 38}, "group": "control_change"}, {"time": 2769, "annotation": {"number": 64, "value": 0}, "group": "control_change"}, {"time": 2770, "annotation": {"number": 64, "value": 127}, "group": "control_change"}, {"time": 2771, "annotation": {"number": 64, "value": 74}, "group": "control_change"}, {"time": 2771, "annotation": {"number": 64, "value": 127}, "group": "control_change"}, {"time": 2781, "annotation": {"number": 64, "value": 74}, "group": "control_change"}, {"time": 2781, "annotation": {"number": 64, "value": 0}, "group": "control_change"}, {"time": 2781, "annotation": {"number": 64, "value": 127}, "group": "control_change"}, {"time": 2787, "annotation": {"number": 64, "value": 0}, "group": "control_change"}, {"time": 2789, "annotation": {"number": 64, "value": 127}, "group": "control_change"}, {"time": 2795, "annotation": {"number": 64, "value": 74}, "group": "control_change"}, {"time": 2795, "annotation": {"number": 64, "value": 127}, "group": "control_change"}, {"time": 2842, "annotation": {"number": 64, "value": 74}, "group": "control_change"}, {"time": 2842, "annotation": {"number": 64, "value": 127}, "group": "control_change"}, {"time": 2843, "annotation": {"number": 64, "value": 127}, "group": "control_change"}, {"time": 2891, "annotation": {"number": 64, "value": 127}, "group": "control_change"}, {"time": 2910, "annotation": {"number": 64, "value": 0}, "group": "control_change"}, {"time": 2935, "annotation": {"number": 64, "value": 74}, "group": "control_change"}, {"time": 2935, "annotation": {"number": 64, "value": 0}, "group": "control_change"}, {"time": 2935, "annotation": {"number": 64, "value": 127}, "group": "control_change"}, {"time": 3072, "annotation": {"number": 64, "value": 38}, "group": "control_change"}, {"time": 3072, "annotation": {"number": 64, "value": 0}, "group": "control_change"}]}]}