{"metadata": {"schema_version": "0.2", "title": "None", "source_filename": "291.mid", "source_format": "midi"}, "resolution": 12, "tempos": [{"time": 0, "qpm": 93.000186000372}], "time_signatures": [{"time": 0, "numerator": 4, "denominator": 4}], "tracks": [{"program": 0, "is_drum": false, "name": "MELODY", "notes": [{"time": 448, "pitch": 71, "duration": 6, "velocity": 96}, {"time": 454, "pitch": 73, "duration": 18, "velocity": 108}, {"time": 472, "pitch": 76, "duration": 6, "velocity": 113}, {"time": 478, "pitch": 78, "duration": 6, "velocity": 98}, {"time": 484, "pitch": 81, "duration": 6, "velocity": 113}, {"time": 490, "pitch": 78, "duration": 6, "velocity": 92}, {"time": 496, "pitch": 76, "duration": 6, "velocity": 89}, {"time": 502, "pitch": 78, "duration": 6, "velocity": 94}, {"time": 508, "pitch": 76, "duration": 7, "velocity": 89}, {"time": 514, "pitch": 73, "duration": 6, "velocity": 94}, {"time": 520, "pitch": 71, "duration": 6, "velocity": 88}, {"time": 526, "pitch": 73, "duration": 18, "velocity": 96}, {"time": 544, "pitch": 69, "duration": 6, "velocity": 103}, {"time": 550, "pitch": 71, "duration": 12, "velocity": 102}, {"time": 562, "pitch": 71, "duration": 6, "velocity": 108}, {"time": 568, "pitch": 73, "duration": 6, "velocity": 104}, {"time": 574, "pitch": 71, "duration": 6, "velocity": 102}, {"time": 580, "pitch": 69, "duration": 6, "velocity": 93}, {"time": 586, "pitch": 66, "duration": 12, "velocity": 91}, {"time": 598, "pitch": 64, "duration": 30, "velocity": 91}, {"time": 640, "pitch": 66, "duration": 6, "velocity": 100}, {"time": 646, "pitch": 69, "duration": 18, "velocity": 106}, {"time": 664, "pitch": 71, "duration": 6, "velocity": 92}, {"time": 670, "pitch": 73, "duration": 7, "velocity": 96}, {"time": 676, "pitch": 71, "duration": 6, "velocity": 91}, {"time": 682, "pitch": 73, "duration": 7, "velocity": 93}, {"time": 688, "pitch": 76, "duration": 6, "velocity": 89}, {"time": 694, "pitch": 78, "duration": 6, "velocity": 92}, {"time": 700, "pitch": 76, "duration": 6, "velocity": 94}, {"time": 706, "pitch": 73, "duration": 6, "velocity": 89}, {"time": 712, "pitch": 71, "duration": 7, "velocity": 89}, {"time": 718, "pitch": 73, "duration": 18, "velocity": 91}, {"time": 736, "pitch": 69, "duration": 6, "velocity": 100}, {"time": 742, "pitch": 71, "duration": 18, "velocity": 108}, {"time": 760, "pitch": 73, "duration": 7, "velocity": 96}, {"time": 766, "pitch": 76, "duration": 6, "velocity": 94}, {"time": 772, "pitch": 78, "duration": 6, "velocity": 88}, {"time": 778, "pitch": 76, "duration": 6, "velocity": 93}, {"time": 784, "pitch": 73, "duration": 6, "velocity": 93}, {"time": 790, "pitch": 71, "duration": 28, "velocity": 93}, {"time": 832, "pitch": 71, "duration": 6, "velocity": 96}, {"time": 838, "pitch": 73, "duration": 18, "velocity": 108}, {"time": 856, "pitch": 76, "duration": 6, "velocity": 113}, {"time": 862, "pitch": 78, "duration": 6, "velocity": 98}, {"time": 868, "pitch": 81, "duration": 6, "velocity": 113}, {"time": 874, "pitch": 78, "duration": 6, "velocity": 92}, {"time": 880, "pitch": 76, "duration": 6, "velocity": 89}, {"time": 886, "pitch": 78, "duration": 6, "velocity": 94}, {"time": 892, "pitch": 76, "duration": 7, "velocity": 89}, {"time": 898, "pitch": 73, "duration": 6, "velocity": 94}, {"time": 904, "pitch": 71, "duration": 6, "velocity": 88}, {"time": 910, "pitch": 73, "duration": 18, "velocity": 96}, {"time": 928, "pitch": 69, "duration": 6, "velocity": 103}, {"time": 934, "pitch": 71, "duration": 12, "velocity": 102}, {"time": 946, "pitch": 71, "duration": 6, "velocity": 108}, {"time": 952, "pitch": 73, "duration": 6, "velocity": 104}, {"time": 958, "pitch": 71, "duration": 6, "velocity": 102}, {"time": 964, "pitch": 69, "duration": 6, "velocity": 93}, {"time": 970, "pitch": 66, "duration": 12, "velocity": 91}, {"time": 982, "pitch": 64, "duration": 42, "velocity": 91}, {"time": 1024, "pitch": 66, "duration": 6, "velocity": 100}, {"time": 1030, "pitch": 69, "duration": 18, "velocity": 106}, {"time": 1048, "pitch": 71, "duration": 6, "velocity": 92}, {"time": 1054, "pitch": 73, "duration": 7, "velocity": 96}, {"time": 1060, "pitch": 71, "duration": 6, "velocity": 91}, {"time": 1066, "pitch": 73, "duration": 7, "velocity": 93}, {"time": 1072, "pitch": 76, "duration": 6, "velocity": 89}, {"time": 1078, "pitch": 81, "duration": 6, "velocity": 116}, {"time": 1084, "pitch": 80, "duration": 6, "velocity": 102}, {"time": 1090, "pitch": 78, "duration": 6, "velocity": 107}, {"time": 1096, "pitch": 76, "duration": 6, "velocity": 110}, {"time": 1102, "pitch": 78, "duration": 12, "velocity": 114}, {"time": 1114, "pitch": 76, "duration": 6, "velocity": 108}, {"time": 1120, "pitch": 73, "duration": 6, "velocity": 102}, {"time": 1126, "pitch": 71, "duration": 12, "velocity": 107}, {"time": 1138, "pitch": 71, "duration": 6, "velocity": 114}, {"time": 1144, "pitch": 69, "duration": 6, "velocity": 113}, {"time": 1150, "pitch": 66, "duration": 12, "velocity": 108}, {"time": 1162, "pitch": 64, "duration": 6, "velocity": 92}, {"time": 1168, "pitch": 66, "duration": 12, "velocity": 91}, {"time": 1180, "pitch": 69, "duration": 78, "velocity": 95}, {"time": 1258, "pitch": 76, "duration": 7, "velocity": 107}, {"time": 1264, "pitch": 78, "duration": 6, "velocity": 113}, {"time": 1270, "pitch": 81, "duration": 18, "velocity": 119}, {"time": 1288, "pitch": 83, "duration": 6, "velocity": 113}, {"time": 1294, "pitch": 85, "duration": 6, "velocity": 113}, {"time": 1300, "pitch": 83, "duration": 6, "velocity": 107}, {"time": 1306, "pitch": 81, "duration": 6, "velocity": 116}, {"time": 1312, "pitch": 78, "duration": 6, "velocity": 108}, {"time": 1318, "pitch": 81, "duration": 36, "velocity": 116}, {"time": 1354, "pitch": 76, "duration": 6, "velocity": 116}, {"time": 1360, "pitch": 78, "duration": 6, "velocity": 107}, {"time": 1366, "pitch": 81, "duration": 18, "velocity": 116}, {"time": 1384, "pitch": 85, "duration": 6, "velocity": 110}, {"time": 1390, "pitch": 83, "duration": 6, "velocity": 110}, {"time": 1396, "pitch": 81, "duration": 6, "velocity": 106}, {"time": 1402, "pitch": 78, "duration": 6, "velocity": 104}, {"time": 1408, "pitch": 81, "duration": 6, "velocity": 84}, {"time": 1414, "pitch": 76, "duration": 36, "velocity": 102}, {"time": 1450, "pitch": 73, "duration": 6, "velocity": 113}, {"time": 1456, "pitch": 76, "duration": 6, "velocity": 113}, {"time": 1462, "pitch": 78, "duration": 18, "velocity": 113}, {"time": 1480, "pitch": 81, "duration": 6, "velocity": 116}, {"time": 1486, "pitch": 83, "duration": 6, "velocity": 107}, {"time": 1492, "pitch": 81, "duration": 6, "velocity": 113}, {"time": 1498, "pitch": 78, "duration": 6, "velocity": 113}, {"time": 1504, "pitch": 78, "duration": 6, "velocity": 94}, {"time": 1510, "pitch": 76, "duration": 6, "velocity": 104}, {"time": 1516, "pitch": 76, "duration": 6, "velocity": 104}, {"time": 1522, "pitch": 73, "duration": 6, "velocity": 96}, {"time": 1528, "pitch": 71, "duration": 6, "velocity": 98}, {"time": 1534, "pitch": 69, "duration": 12, "velocity": 100}, {"time": 1546, "pitch": 66, "duration": 6, "velocity": 116}, {"time": 1552, "pitch": 69, "duration": 6, "velocity": 109}, {"time": 1558, "pitch": 71, "duration": 18, "velocity": 113}, {"time": 1576, "pitch": 73, "duration": 6, "velocity": 116}, {"time": 1582, "pitch": 83, "duration": 6, "velocity": 110}, {"time": 1588, "pitch": 81, "duration": 6, "velocity": 109}, {"time": 1594, "pitch": 78, "duration": 6, "velocity": 93}, {"time": 1600, "pitch": 81, "duration": 6, "velocity": 116}, {"time": 1606, "pitch": 76, "duration": 36, "velocity": 114}, {"time": 1642, "pitch": 76, "duration": 7, "velocity": 107}, {"time": 1648, "pitch": 78, "duration": 6, "velocity": 113}, {"time": 1654, "pitch": 81, "duration": 18, "velocity": 119}, {"time": 1672, "pitch": 83, "duration": 6, "velocity": 113}, {"time": 1678, "pitch": 85, "duration": 6, "velocity": 113}, {"time": 1684, "pitch": 83, "duration": 6, "velocity": 107}, {"time": 1690, "pitch": 81, "duration": 6, "velocity": 116}, {"time": 1696, "pitch": 78, "duration": 6, "velocity": 108}, {"time": 1702, "pitch": 81, "duration": 36, "velocity": 116}, {"time": 1738, "pitch": 76, "duration": 6, "velocity": 116}, {"time": 1744, "pitch": 78, "duration": 6, "velocity": 107}, {"time": 1750, "pitch": 81, "duration": 18, "velocity": 116}, {"time": 1768, "pitch": 85, "duration": 6, "velocity": 110}, {"time": 1774, "pitch": 83, "duration": 6, "velocity": 110}, {"time": 1780, "pitch": 81, "duration": 6, "velocity": 106}, {"time": 1786, "pitch": 78, "duration": 6, "velocity": 104}, {"time": 1792, "pitch": 81, "duration": 6, "velocity": 84}, {"time": 1798, "pitch": 76, "duration": 36, "velocity": 102}, {"time": 1834, "pitch": 73, "duration": 6, "velocity": 113}, {"time": 1840, "pitch": 76, "duration": 6, "velocity": 113}, {"time": 1846, "pitch": 78, "duration": 18, "velocity": 113}, {"time": 1864, "pitch": 81, "duration": 6, "velocity": 116}, {"time": 1870, "pitch": 83, "duration": 6, "velocity": 107}, {"time": 1876, "pitch": 81, "duration": 6, "velocity": 113}, {"time": 1882, "pitch": 78, "duration": 6, "velocity": 113}, {"time": 1888, "pitch": 78, "duration": 6, "velocity": 94}, {"time": 1894, "pitch": 76, "duration": 6, "velocity": 104}, {"time": 1900, "pitch": 85, "duration": 6, "velocity": 110}, {"time": 1906, "pitch": 85, "duration": 6, "velocity": 116}, {"time": 1912, "pitch": 83, "duration": 6, "velocity": 113}, {"time": 1918, "pitch": 81, "duration": 12, "velocity": 113}, {"time": 1930, "pitch": 78, "duration": 6, "velocity": 110}, {"time": 1936, "pitch": 81, "duration": 6, "velocity": 109}, {"time": 1942, "pitch": 83, "duration": 12, "velocity": 114}, {"time": 1954, "pitch": 83, "duration": 6, "velocity": 116}, {"time": 1960, "pitch": 81, "duration": 6, "velocity": 109}, {"time": 1966, "pitch": 78, "duration": 6, "velocity": 110}, {"time": 1972, "pitch": 81, "duration": 6, "velocity": 113}, {"time": 1978, "pitch": 76, "duration": 6, "velocity": 107}, {"time": 1984, "pitch": 78, "duration": 12, "velocity": 100}, {"time": 1996, "pitch": 81, "duration": 38, "velocity": 119}, {"time": 2224, "pitch": 71, "duration": 6, "velocity": 96}, {"time": 2230, "pitch": 73, "duration": 18, "velocity": 108}, {"time": 2248, "pitch": 76, "duration": 6, "velocity": 113}, {"time": 2254, "pitch": 78, "duration": 6, "velocity": 98}, {"time": 2260, "pitch": 81, "duration": 6, "velocity": 113}, {"time": 2266, "pitch": 78, "duration": 6, "velocity": 92}, {"time": 2272, "pitch": 76, "duration": 6, "velocity": 89}, {"time": 2278, "pitch": 78, "duration": 6, "velocity": 94}, {"time": 2284, "pitch": 76, "duration": 7, "velocity": 89}, {"time": 2290, "pitch": 73, "duration": 6, "velocity": 94}, {"time": 2296, "pitch": 71, "duration": 6, "velocity": 88}, {"time": 2302, "pitch": 73, "duration": 18, "velocity": 96}, {"time": 2320, "pitch": 69, "duration": 6, "velocity": 103}, {"time": 2326, "pitch": 71, "duration": 12, "velocity": 102}, {"time": 2338, "pitch": 71, "duration": 6, "velocity": 108}, {"time": 2344, "pitch": 73, "duration": 6, "velocity": 104}, {"time": 2350, "pitch": 71, "duration": 6, "velocity": 102}, {"time": 2356, "pitch": 69, "duration": 6, "velocity": 93}, {"time": 2362, "pitch": 66, "duration": 12, "velocity": 91}, {"time": 2374, "pitch": 64, "duration": 30, "velocity": 91}, {"time": 2416, "pitch": 66, "duration": 6, "velocity": 100}, {"time": 2422, "pitch": 69, "duration": 18, "velocity": 106}, {"time": 2440, "pitch": 71, "duration": 6, "velocity": 92}, {"time": 2446, "pitch": 73, "duration": 7, "velocity": 96}, {"time": 2452, "pitch": 71, "duration": 6, "velocity": 91}, {"time": 2458, "pitch": 73, "duration": 7, "velocity": 93}, {"time": 2464, "pitch": 76, "duration": 6, "velocity": 89}, {"time": 2470, "pitch": 78, "duration": 6, "velocity": 92}, {"time": 2476, "pitch": 76, "duration": 6, "velocity": 94}, {"time": 2482, "pitch": 73, "duration": 6, "velocity": 89}, {"time": 2488, "pitch": 71, "duration": 7, "velocity": 89}, {"time": 2494, "pitch": 73, "duration": 18, "velocity": 91}, {"time": 2512, "pitch": 69, "duration": 6, "velocity": 100}, {"time": 2518, "pitch": 71, "duration": 18, "velocity": 108}, {"time": 2536, "pitch": 73, "duration": 7, "velocity": 96}, {"time": 2542, "pitch": 76, "duration": 6, "velocity": 94}, {"time": 2548, "pitch": 78, "duration": 6, "velocity": 88}, {"time": 2554, "pitch": 76, "duration": 6, "velocity": 93}, {"time": 2560, "pitch": 73, "duration": 6, "velocity": 93}, {"time": 2566, "pitch": 71, "duration": 20, "velocity": 93}, {"time": 2608, "pitch": 71, "duration": 6, "velocity": 96}, {"time": 2614, "pitch": 73, "duration": 18, "velocity": 108}, {"time": 2632, "pitch": 76, "duration": 6, "velocity": 113}, {"time": 2638, "pitch": 78, "duration": 6, "velocity": 98}, {"time": 2644, "pitch": 81, "duration": 6, "velocity": 113}, {"time": 2650, "pitch": 78, "duration": 6, "velocity": 92}, {"time": 2656, "pitch": 76, "duration": 6, "velocity": 89}, {"time": 2662, "pitch": 78, "duration": 6, "velocity": 94}, {"time": 2668, "pitch": 76, "duration": 7, "velocity": 89}, {"time": 2674, "pitch": 73, "duration": 6, "velocity": 94}, {"time": 2680, "pitch": 71, "duration": 6, "velocity": 88}, {"time": 2686, "pitch": 73, "duration": 18, "velocity": 96}, {"time": 2704, "pitch": 69, "duration": 6, "velocity": 103}, {"time": 2710, "pitch": 71, "duration": 12, "velocity": 102}, {"time": 2722, "pitch": 71, "duration": 6, "velocity": 108}, {"time": 2728, "pitch": 73, "duration": 6, "velocity": 104}, {"time": 2734, "pitch": 71, "duration": 6, "velocity": 102}, {"time": 2740, "pitch": 69, "duration": 6, "velocity": 93}, {"time": 2746, "pitch": 66, "duration": 12, "velocity": 91}, {"time": 2758, "pitch": 64, "duration": 30, "velocity": 91}, {"time": 2800, "pitch": 66, "duration": 6, "velocity": 100}, {"time": 2806, "pitch": 69, "duration": 18, "velocity": 106}, {"time": 2824, "pitch": 71, "duration": 6, "velocity": 92}, {"time": 2830, "pitch": 73, "duration": 7, "velocity": 96}, {"time": 2836, "pitch": 71, "duration": 6, "velocity": 91}, {"time": 2842, "pitch": 73, "duration": 7, "velocity": 93}, {"time": 2848, "pitch": 76, "duration": 6, "velocity": 89}, {"time": 2854, "pitch": 81, "duration": 6, "velocity": 116}, {"time": 2860, "pitch": 80, "duration": 6, "velocity": 102}, {"time": 2866, "pitch": 78, "duration": 6, "velocity": 107}, {"time": 2872, "pitch": 76, "duration": 6, "velocity": 110}, {"time": 2878, "pitch": 78, "duration": 12, "velocity": 114}, {"time": 2890, "pitch": 76, "duration": 6, "velocity": 108}, {"time": 2896, "pitch": 73, "duration": 6, "velocity": 102}, {"time": 2902, "pitch": 71, "duration": 12, "velocity": 107}, {"time": 2914, "pitch": 71, "duration": 6, "velocity": 114}, {"time": 2920, "pitch": 69, "duration": 6, "velocity": 113}, {"time": 2926, "pitch": 66, "duration": 12, "velocity": 108}, {"time": 2938, "pitch": 64, "duration": 6, "velocity": 92}, {"time": 2944, "pitch": 66, "duration": 6, "velocity": 91}, {"time": 2950, "pitch": 69, "duration": 21, "velocity": 95}, {"time": 3034, "pitch": 76, "duration": 7, "velocity": 107}, {"time": 3040, "pitch": 78, "duration": 6, "velocity": 113}, {"time": 3046, "pitch": 81, "duration": 18, "velocity": 119}, {"time": 3064, "pitch": 83, "duration": 6, "velocity": 113}, {"time": 3070, "pitch": 85, "duration": 6, "velocity": 113}, {"time": 3076, "pitch": 83, "duration": 6, "velocity": 107}, {"time": 3082, "pitch": 81, "duration": 6, "velocity": 116}, {"time": 3088, "pitch": 78, "duration": 6, "velocity": 108}, {"time": 3094, "pitch": 81, "duration": 36, "velocity": 116}, {"time": 3130, "pitch": 76, "duration": 6, "velocity": 116}, {"time": 3136, "pitch": 78, "duration": 6, "velocity": 107}, {"time": 3142, "pitch": 81, "duration": 18, "velocity": 116}, {"time": 3160, "pitch": 85, "duration": 6, "velocity": 110}, {"time": 3166, "pitch": 83, "duration": 6, "velocity": 110}, {"time": 3172, "pitch": 81, "duration": 6, "velocity": 106}, {"time": 3178, "pitch": 78, "duration": 6, "velocity": 104}, {"time": 3184, "pitch": 81, "duration": 6, "velocity": 84}, {"time": 3190, "pitch": 76, "duration": 36, "velocity": 102}, {"time": 3226, "pitch": 73, "duration": 6, "velocity": 113}, {"time": 3232, "pitch": 76, "duration": 6, "velocity": 113}, {"time": 3238, "pitch": 78, "duration": 18, "velocity": 113}, {"time": 3256, "pitch": 81, "duration": 6, "velocity": 116}, {"time": 3262, "pitch": 83, "duration": 6, "velocity": 107}, {"time": 3268, "pitch": 81, "duration": 6, "velocity": 113}, {"time": 3274, "pitch": 78, "duration": 6, "velocity": 113}, {"time": 3280, "pitch": 78, "duration": 6, "velocity": 94}, {"time": 3286, "pitch": 76, "duration": 6, "velocity": 104}, {"time": 3292, "pitch": 85, "duration": 6, "velocity": 110}, {"time": 3298, "pitch": 85, "duration": 6, "velocity": 116}, {"time": 3304, "pitch": 83, "duration": 6, "velocity": 113}, {"time": 3310, "pitch": 81, "duration": 12, "velocity": 113}, {"time": 3322, "pitch": 78, "duration": 6, "velocity": 110}, {"time": 3328, "pitch": 81, "duration": 6, "velocity": 109}, {"time": 3334, "pitch": 83, "duration": 18, "velocity": 114}, {"time": 3352, "pitch": 76, "duration": 6, "velocity": 114}, {"time": 3358, "pitch": 83, "duration": 6, "velocity": 114}, {"time": 3364, "pitch": 81, "duration": 6, "velocity": 113}, {"time": 3370, "pitch": 78, "duration": 6, "velocity": 119}, {"time": 3376, "pitch": 83, "duration": 6, "velocity": 113}, {"time": 3382, "pitch": 76, "duration": 36, "velocity": 110}, {"time": 3418, "pitch": 76, "duration": 7, "velocity": 107}, {"time": 3424, "pitch": 78, "duration": 6, "velocity": 113}, {"time": 3430, "pitch": 81, "duration": 18, "velocity": 119}, {"time": 3448, "pitch": 83, "duration": 6, "velocity": 113}, {"time": 3454, "pitch": 85, "duration": 6, "velocity": 113}, {"time": 3460, "pitch": 83, "duration": 6, "velocity": 107}, {"time": 3466, "pitch": 81, "duration": 6, "velocity": 116}, {"time": 3472, "pitch": 78, "duration": 6, "velocity": 108}, {"time": 3478, "pitch": 81, "duration": 36, "velocity": 116}, {"time": 3514, "pitch": 76, "duration": 6, "velocity": 116}, {"time": 3520, "pitch": 78, "duration": 6, "velocity": 107}, {"time": 3526, "pitch": 81, "duration": 18, "velocity": 116}, {"time": 3544, "pitch": 85, "duration": 6, "velocity": 110}, {"time": 3550, "pitch": 83, "duration": 6, "velocity": 110}, {"time": 3556, "pitch": 81, "duration": 6, "velocity": 106}, {"time": 3562, "pitch": 78, "duration": 6, "velocity": 104}, {"time": 3568, "pitch": 81, "duration": 6, "velocity": 84}, {"time": 3574, "pitch": 76, "duration": 36, "velocity": 102}, {"time": 3610, "pitch": 73, "duration": 6, "velocity": 113}, {"time": 3616, "pitch": 76, "duration": 6, "velocity": 113}, {"time": 3622, "pitch": 78, "duration": 18, "velocity": 113}, {"time": 3640, "pitch": 81, "duration": 6, "velocity": 116}, {"time": 3646, "pitch": 83, "duration": 6, "velocity": 107}, {"time": 3652, "pitch": 81, "duration": 6, "velocity": 113}, {"time": 3658, "pitch": 78, "duration": 6, "velocity": 113}, {"time": 3664, "pitch": 78, "duration": 6, "velocity": 94}, {"time": 3670, "pitch": 76, "duration": 6, "velocity": 104}, {"time": 3676, "pitch": 85, "duration": 6, "velocity": 110}, {"time": 3682, "pitch": 85, "duration": 6, "velocity": 116}, {"time": 3688, "pitch": 83, "duration": 6, "velocity": 113}, {"time": 3694, "pitch": 81, "duration": 12, "velocity": 113}, {"time": 3706, "pitch": 78, "duration": 6, "velocity": 110}, {"time": 3712, "pitch": 81, "duration": 6, "velocity": 109}, {"time": 3718, "pitch": 83, "duration": 12, "velocity": 114}, {"time": 3730, "pitch": 83, "duration": 6, "velocity": 116}, {"time": 3736, "pitch": 81, "duration": 6, "velocity": 109}, {"time": 3742, "pitch": 78, "duration": 6, "velocity": 110}, {"time": 3748, "pitch": 81, "duration": 6, "velocity": 113}, {"time": 3754, "pitch": 76, "duration": 6, "velocity": 107}, {"time": 3760, "pitch": 78, "duration": 6, "velocity": 100}, {"time": 3766, "pitch": 81, "duration": 36, "velocity": 119}, {"time": 3802, "pitch": 76, "duration": 6, "velocity": 116}, {"time": 3808, "pitch": 78, "duration": 6, "velocity": 114}, {"time": 3814, "pitch": 83, "duration": 12, "velocity": 119}, {"time": 3826, "pitch": 83, "duration": 6, "velocity": 110}, {"time": 3832, "pitch": 81, "duration": 6, "velocity": 104}, {"time": 3838, "pitch": 78, "duration": 9, "velocity": 96}, {"time": 3847, "pitch": 78, "duration": 42, "velocity": 113}, {"time": 3889, "pitch": 76, "duration": 15, "velocity": 102}, {"time": 3904, "pitch": 78, "duration": 12, "velocity": 110}, {"time": 3916, "pitch": 81, "duration": 22, "velocity": 114}]}, {"program": 0, "is_drum": false, "name": "PIANO", "notes": [{"time": 22, "pitch": 45, "duration": 42, "velocity": 79}, {"time": 22, "pitch": 57, "duration": 9, "velocity": 80}, {"time": 22, "pitch": 61, "duration": 13, "velocity": 82}, {"time": 22, "pitch": 64, "duration": 13, "velocity": 88}, {"time": 28, "pitch": 52, "duration": 35, "velocity": 67}, {"time": 34, "pitch": 57, "duration": 28, "velocity": 82}, {"time": 40, "pitch": 59, "duration": 29, "velocity": 87}, {"time": 40, "pitch": 64, "duration": 27, "velocity": 88}, {"time": 70, "pitch": 42, "duration": 41, "velocity": 80}, {"time": 70, "pitch": 57, "duration": 16, "velocity": 82}, {"time": 70, "pitch": 61, "duration": 11, "velocity": 86}, {"time": 70, "pitch": 64, "duration": 11, "velocity": 86}, {"time": 76, "pitch": 49, "duration": 36, "velocity": 71}, {"time": 82, "pitch": 54, "duration": 29, "velocity": 79}, {"time": 88, "pitch": 57, "duration": 29, "velocity": 84}, {"time": 88, "pitch": 61, "duration": 31, "velocity": 83}, {"time": 88, "pitch": 64, "duration": 31, "velocity": 84}, {"time": 118, "pitch": 47, "duration": 39, "velocity": 85}, {"time": 124, "pitch": 54, "duration": 32, "velocity": 76}, {"time": 130, "pitch": 59, "duration": 49, "velocity": 87}, {"time": 136, "pitch": 66, "duration": 30, "velocity": 87}, {"time": 166, "pitch": 40, "duration": 40, "velocity": 84}, {"time": 172, "pitch": 47, "duration": 34, "velocity": 76}, {"time": 178, "pitch": 52, "duration": 15, "velocity": 84}, {"time": 184, "pitch": 57, "duration": 2, "velocity": 83}, {"time": 190, "pitch": 56, "duration": 18, "velocity": 88}, {"time": 190, "pitch": 64, "duration": 19, "velocity": 88}, {"time": 202, "pitch": 52, "duration": 12, "velocity": 77}, {"time": 214, "pitch": 45, "duration": 40, "velocity": 84}, {"time": 214, "pitch": 57, "duration": 7, "velocity": 84}, {"time": 214, "pitch": 61, "duration": 4, "velocity": 89}, {"time": 214, "pitch": 64, "duration": 13, "velocity": 86}, {"time": 220, "pitch": 52, "duration": 31, "velocity": 65}, {"time": 220, "pitch": 61, "duration": 8, "velocity": 66}, {"time": 226, "pitch": 57, "duration": 14, "velocity": 84}, {"time": 232, "pitch": 59, "duration": 15, "velocity": 93}, {"time": 232, "pitch": 64, "duration": 14, "velocity": 96}, {"time": 244, "pitch": 57, "duration": 7, "velocity": 87}, {"time": 250, "pitch": 61, "duration": 11, "velocity": 102}, {"time": 250, "pitch": 64, "duration": 11, "velocity": 107}, {"time": 262, "pitch": 42, "duration": 42, "velocity": 84}, {"time": 262, "pitch": 57, "duration": 16, "velocity": 87}, {"time": 262, "pitch": 61, "duration": 17, "velocity": 87}, {"time": 262, "pitch": 66, "duration": 14, "velocity": 92}, {"time": 268, "pitch": 49, "duration": 36, "velocity": 74}, {"time": 274, "pitch": 54, "duration": 10, "velocity": 80}, {"time": 280, "pitch": 57, "duration": 13, "velocity": 87}, {"time": 280, "pitch": 61, "duration": 13, "velocity": 87}, {"time": 280, "pitch": 66, "duration": 13, "velocity": 89}, {"time": 292, "pitch": 54, "duration": 8, "velocity": 84}, {"time": 298, "pitch": 57, "duration": 8, "velocity": 87}, {"time": 298, "pitch": 61, "duration": 11, "velocity": 91}, {"time": 298, "pitch": 66, "duration": 8, "velocity": 89}, {"time": 304, "pitch": 54, "duration": 6, "velocity": 70}, {"time": 310, "pitch": 47, "duration": 15, "velocity": 84}, {"time": 310, "pitch": 59, "duration": 9, "velocity": 83}, {"time": 310, "pitch": 62, "duration": 9, "velocity": 91}, {"time": 310, "pitch": 66, "duration": 8, "velocity": 87}, {"time": 316, "pitch": 54, "duration": 8, "velocity": 77}, {"time": 322, "pitch": 59, "duration": 26, "velocity": 88}, {"time": 322, "pitch": 62, "duration": 10, "velocity": 91}, {"time": 322, "pitch": 66, "duration": 8, "velocity": 88}, {"time": 334, "pitch": 40, "duration": 16, "velocity": 81}, {"time": 334, "pitch": 56, "duration": 14, "velocity": 84}, {"time": 334, "pitch": 64, "duration": 12, "velocity": 89}, {"time": 340, "pitch": 47, "duration": 11, "velocity": 72}, {"time": 346, "pitch": 52, "duration": 12, "velocity": 83}, {"time": 352, "pitch": 56, "duration": 2, "velocity": 85}, {"time": 352, "pitch": 59, "duration": 6, "velocity": 80}, {"time": 352, "pitch": 64, "duration": 4, "velocity": 86}, {"time": 358, "pitch": 45, "duration": 89, "velocity": 83}, {"time": 358, "pitch": 57, "duration": 6, "velocity": 84}, {"time": 358, "pitch": 61, "duration": 11, "velocity": 88}, {"time": 358, "pitch": 64, "duration": 13, "velocity": 86}, {"time": 364, "pitch": 52, "duration": 82, "velocity": 65}, {"time": 370, "pitch": 57, "duration": 6, "velocity": 82}, {"time": 376, "pitch": 59, "duration": 6, "velocity": 88}, {"time": 382, "pitch": 57, "duration": 19, "velocity": 88}, {"time": 406, "pitch": 61, "duration": 42, "velocity": 76}, {"time": 406, "pitch": 64, "duration": 43, "velocity": 81}, {"time": 406, "pitch": 69, "duration": 42, "velocity": 78}, {"time": 454, "pitch": 45, "duration": 40, "velocity": 86}, {"time": 460, "pitch": 52, "duration": 33, "velocity": 73}, {"time": 466, "pitch": 57, "duration": 14, "velocity": 83}, {"time": 472, "pitch": 61, "duration": 14, "velocity": 91}, {"time": 472, "pitch": 69, "duration": 13, "velocity": 90}, {"time": 484, "pitch": 57, "duration": 7, "velocity": 78}, {"time": 490, "pitch": 61, "duration": 8, "velocity": 91}, {"time": 490, "pitch": 69, "duration": 7, "velocity": 89}, {"time": 496, "pitch": 64, "duration": 5, "velocity": 82}, {"time": 502, "pitch": 42, "duration": 39, "velocity": 80}, {"time": 502, "pitch": 61, "duration": 17, "velocity": 86}, {"time": 502, "pitch": 66, "duration": 13, "velocity": 88}, {"time": 508, "pitch": 49, "duration": 33, "velocity": 67}, {"time": 514, "pitch": 54, "duration": 14, "velocity": 81}, {"time": 520, "pitch": 57, "duration": 15, "velocity": 87}, {"time": 520, "pitch": 66, "duration": 14, "velocity": 88}, {"time": 532, "pitch": 54, "duration": 11, "velocity": 81}, {"time": 538, "pitch": 57, "duration": 11, "velocity": 74}, {"time": 538, "pitch": 66, "duration": 14, "velocity": 81}, {"time": 550, "pitch": 47, "duration": 40, "velocity": 88}, {"time": 556, "pitch": 54, "duration": 32, "velocity": 78}, {"time": 562, "pitch": 59, "duration": 14, "velocity": 85}, {"time": 568, "pitch": 62, "duration": 19, "velocity": 87}, {"time": 568, "pitch": 71, "duration": 14, "velocity": 87}, {"time": 580, "pitch": 59, "duration": 7, "velocity": 83}, {"time": 586, "pitch": 66, "duration": 12, "velocity": 94}, {"time": 598, "pitch": 40, "duration": 41, "velocity": 83}, {"time": 598, "pitch": 59, "duration": 19, "velocity": 86}, {"time": 598, "pitch": 68, "duration": 3, "velocity": 87}, {"time": 604, "pitch": 47, "duration": 35, "velocity": 81}, {"time": 610, "pitch": 52, "duration": 19, "velocity": 85}, {"time": 616, "pitch": 57, "duration": 6, "velocity": 84}, {"time": 622, "pitch": 56, "duration": 17, "velocity": 81}, {"time": 622, "pitch": 59, "duration": 14, "velocity": 83}, {"time": 622, "pitch": 64, "duration": 15, "velocity": 83}, {"time": 634, "pitch": 52, "duration": 9, "velocity": 74}, {"time": 646, "pitch": 42, "duration": 37, "velocity": 88}, {"time": 652, "pitch": 49, "duration": 30, "velocity": 78}, {"time": 658, "pitch": 54, "duration": 14, "velocity": 84}, {"time": 664, "pitch": 57, "duration": 14, "velocity": 89}, {"time": 664, "pitch": 66, "duration": 13, "velocity": 88}, {"time": 676, "pitch": 54, "duration": 7, "velocity": 85}, {"time": 682, "pitch": 57, "duration": 7, "velocity": 93}, {"time": 682, "pitch": 66, "duration": 9, "velocity": 87}, {"time": 688, "pitch": 61, "duration": 6, "velocity": 83}, {"time": 694, "pitch": 49, "duration": 39, "velocity": 86}, {"time": 694, "pitch": 61, "duration": 5, "velocity": 84}, {"time": 694, "pitch": 68, "duration": 11, "velocity": 91}, {"time": 700, "pitch": 56, "duration": 31, "velocity": 60}, {"time": 706, "pitch": 61, "duration": 13, "velocity": 82}, {"time": 712, "pitch": 64, "duration": 31, "velocity": 88}, {"time": 712, "pitch": 71, "duration": 13, "velocity": 91}, {"time": 724, "pitch": 61, "duration": 6, "velocity": 80}, {"time": 730, "pitch": 68, "duration": 13, "velocity": 90}, {"time": 742, "pitch": 47, "duration": 40, "velocity": 88}, {"time": 748, "pitch": 54, "duration": 31, "velocity": 75}, {"time": 754, "pitch": 59, "duration": 24, "velocity": 83}, {"time": 760, "pitch": 62, "duration": 22, "velocity": 87}, {"time": 760, "pitch": 71, "duration": 22, "velocity": 87}, {"time": 787, "pitch": 59, "duration": 20, "velocity": 70}, {"time": 790, "pitch": 40, "duration": 40, "velocity": 78}, {"time": 790, "pitch": 68, "duration": 4, "velocity": 87}, {"time": 796, "pitch": 47, "duration": 35, "velocity": 77}, {"time": 802, "pitch": 52, "duration": 15, "velocity": 86}, {"time": 808, "pitch": 57, "duration": 7, "velocity": 81}, {"time": 814, "pitch": 56, "duration": 18, "velocity": 84}, {"time": 814, "pitch": 64, "duration": 23, "velocity": 87}, {"time": 826, "pitch": 52, "duration": 10, "velocity": 81}, {"time": 838, "pitch": 45, "duration": 39, "velocity": 78}, {"time": 838, "pitch": 57, "duration": 7, "velocity": 83}, {"time": 838, "pitch": 61, "duration": 14, "velocity": 86}, {"time": 838, "pitch": 64, "duration": 11, "velocity": 83}, {"time": 844, "pitch": 52, "duration": 32, "velocity": 64}, {"time": 850, "pitch": 57, "duration": 13, "velocity": 72}, {"time": 856, "pitch": 61, "duration": 12, "velocity": 88}, {"time": 856, "pitch": 64, "duration": 12, "velocity": 90}, {"time": 868, "pitch": 57, "duration": 7, "velocity": 83}, {"time": 874, "pitch": 61, "duration": 10, "velocity": 104}, {"time": 874, "pitch": 64, "duration": 10, "velocity": 108}, {"time": 886, "pitch": 42, "duration": 40, "velocity": 83}, {"time": 886, "pitch": 57, "duration": 12, "velocity": 88}, {"time": 886, "pitch": 61, "duration": 16, "velocity": 87}, {"time": 886, "pitch": 66, "duration": 12, "velocity": 91}, {"time": 892, "pitch": 49, "duration": 34, "velocity": 56}, {"time": 898, "pitch": 54, "duration": 12, "velocity": 78}, {"time": 904, "pitch": 57, "duration": 12, "velocity": 88}, {"time": 904, "pitch": 61, "duration": 14, "velocity": 93}, {"time": 904, "pitch": 66, "duration": 11, "velocity": 92}, {"time": 916, "pitch": 54, "duration": 18, "velocity": 82}, {"time": 922, "pitch": 57, "duration": 7, "velocity": 89}, {"time": 922, "pitch": 61, "duration": 11, "velocity": 96}, {"time": 922, "pitch": 66, "duration": 7, "velocity": 89}, {"time": 934, "pitch": 47, "duration": 39, "velocity": 80}, {"time": 934, "pitch": 59, "duration": 6, "velocity": 86}, {"time": 934, "pitch": 62, "duration": 8, "velocity": 90}, {"time": 934, "pitch": 66, "duration": 9, "velocity": 88}, {"time": 940, "pitch": 54, "duration": 32, "velocity": 66}, {"time": 946, "pitch": 59, "duration": 12, "velocity": 81}, {"time": 952, "pitch": 62, "duration": 12, "velocity": 86}, {"time": 952, "pitch": 66, "duration": 12, "velocity": 88}, {"time": 952, "pitch": 71, "duration": 12, "velocity": 86}, {"time": 964, "pitch": 59, "duration": 7, "velocity": 79}, {"time": 970, "pitch": 62, "duration": 6, "velocity": 87}, {"time": 970, "pitch": 66, "duration": 10, "velocity": 85}, {"time": 970, "pitch": 71, "duration": 5, "velocity": 84}, {"time": 982, "pitch": 40, "duration": 42, "velocity": 78}, {"time": 982, "pitch": 59, "duration": 13, "velocity": 85}, {"time": 982, "pitch": 64, "duration": 4, "velocity": 88}, {"time": 982, "pitch": 68, "duration": 6, "velocity": 88}, {"time": 988, "pitch": 47, "duration": 42, "velocity": 74}, {"time": 994, "pitch": 52, "duration": 16, "velocity": 81}, {"time": 1000, "pitch": 57, "duration": 4, "velocity": 83}, {"time": 1006, "pitch": 56, "duration": 16, "velocity": 84}, {"time": 1006, "pitch": 59, "duration": 15, "velocity": 83}, {"time": 1006, "pitch": 64, "duration": 14, "velocity": 84}, {"time": 1018, "pitch": 52, "duration": 11, "velocity": 76}, {"time": 1030, "pitch": 42, "duration": 39, "velocity": 77}, {"time": 1030, "pitch": 57, "duration": 13, "velocity": 83}, {"time": 1030, "pitch": 61, "duration": 13, "velocity": 87}, {"time": 1030, "pitch": 66, "duration": 11, "velocity": 87}, {"time": 1036, "pitch": 49, "duration": 34, "velocity": 71}, {"time": 1042, "pitch": 54, "duration": 12, "velocity": 79}, {"time": 1048, "pitch": 57, "duration": 13, "velocity": 88}, {"time": 1048, "pitch": 61, "duration": 12, "velocity": 89}, {"time": 1048, "pitch": 66, "duration": 13, "velocity": 87}, {"time": 1060, "pitch": 54, "duration": 12, "velocity": 80}, {"time": 1066, "pitch": 57, "duration": 6, "velocity": 88}, {"time": 1066, "pitch": 61, "duration": 10, "velocity": 91}, {"time": 1066, "pitch": 66, "duration": 7, "velocity": 88}, {"time": 1078, "pitch": 49, "duration": 18, "velocity": 83}, {"time": 1078, "pitch": 61, "duration": 8, "velocity": 84}, {"time": 1078, "pitch": 64, "duration": 7, "velocity": 87}, {"time": 1078, "pitch": 68, "duration": 8, "velocity": 86}, {"time": 1084, "pitch": 56, "duration": 10, "velocity": 70}, {"time": 1090, "pitch": 61, "duration": 8, "velocity": 86}, {"time": 1090, "pitch": 64, "duration": 9, "velocity": 85}, {"time": 1090, "pitch": 68, "duration": 8, "velocity": 86}, {"time": 1102, "pitch": 42, "duration": 17, "velocity": 86}, {"time": 1102, "pitch": 57, "duration": 16, "velocity": 87}, {"time": 1102, "pitch": 61, "duration": 21, "velocity": 88}, {"time": 1102, "pitch": 66, "duration": 18, "velocity": 86}, {"time": 1108, "pitch": 49, "duration": 12, "velocity": 77}, {"time": 1114, "pitch": 54, "duration": 8, "velocity": 85}, {"time": 1126, "pitch": 47, "duration": 17, "velocity": 86}, {"time": 1126, "pitch": 59, "duration": 47, "velocity": 86}, {"time": 1126, "pitch": 62, "duration": 20, "velocity": 88}, {"time": 1126, "pitch": 66, "duration": 20, "velocity": 88}, {"time": 1138, "pitch": 54, "duration": 3, "velocity": 76}, {"time": 1150, "pitch": 40, "duration": 18, "velocity": 86}, {"time": 1150, "pitch": 56, "duration": 19, "velocity": 86}, {"time": 1150, "pitch": 64, "duration": 19, "velocity": 89}, {"time": 1156, "pitch": 47, "duration": 12, "velocity": 48}, {"time": 1162, "pitch": 52, "duration": 12, "velocity": 83}, {"time": 1174, "pitch": 45, "duration": 43, "velocity": 80}, {"time": 1174, "pitch": 57, "duration": 8, "velocity": 80}, {"time": 1174, "pitch": 61, "duration": 9, "velocity": 84}, {"time": 1174, "pitch": 64, "duration": 9, "velocity": 87}, {"time": 1180, "pitch": 52, "duration": 39, "velocity": 68}, {"time": 1186, "pitch": 57, "duration": 14, "velocity": 83}, {"time": 1186, "pitch": 61, "duration": 9, "velocity": 84}, {"time": 1186, "pitch": 64, "duration": 9, "velocity": 87}, {"time": 1198, "pitch": 61, "duration": 9, "velocity": 93}, {"time": 1198, "pitch": 64, "duration": 9, "velocity": 91}, {"time": 1204, "pitch": 57, "duration": 10, "velocity": 86}, {"time": 1210, "pitch": 61, "duration": 10, "velocity": 89}, {"time": 1210, "pitch": 64, "duration": 8, "velocity": 89}, {"time": 1222, "pitch": 47, "duration": 11, "velocity": 88}, {"time": 1222, "pitch": 59, "duration": 14, "velocity": 96}, {"time": 1222, "pitch": 62, "duration": 16, "velocity": 110}, {"time": 1222, "pitch": 66, "duration": 15, "velocity": 93}, {"time": 1234, "pitch": 47, "duration": 3, "velocity": 86}, {"time": 1240, "pitch": 52, "duration": 16, "velocity": 88}, {"time": 1240, "pitch": 59, "duration": 15, "velocity": 91}, {"time": 1240, "pitch": 64, "duration": 15, "velocity": 104}, {"time": 1240, "pitch": 68, "duration": 15, "velocity": 91}, {"time": 1258, "pitch": 52, "duration": 9, "velocity": 92}, {"time": 1258, "pitch": 59, "duration": 8, "velocity": 92}, {"time": 1258, "pitch": 64, "duration": 8, "velocity": 104}, {"time": 1258, "pitch": 68, "duration": 9, "velocity": 97}, {"time": 1270, "pitch": 45, "duration": 40, "velocity": 92}, {"time": 1270, "pitch": 61, "duration": 12, "velocity": 86}, {"time": 1270, "pitch": 64, "duration": 13, "velocity": 86}, {"time": 1270, "pitch": 69, "duration": 12, "velocity": 85}, {"time": 1276, "pitch": 52, "duration": 33, "velocity": 65}, {"time": 1282, "pitch": 57, "duration": 7, "velocity": 87}, {"time": 1282, "pitch": 61, "duration": 13, "velocity": 91}, {"time": 1282, "pitch": 64, "duration": 1, "velocity": 104}, {"time": 1282, "pitch": 69, "duration": 11, "velocity": 92}, {"time": 1300, "pitch": 57, "duration": 8, "velocity": 87}, {"time": 1306, "pitch": 61, "duration": 9, "velocity": 102}, {"time": 1306, "pitch": 64, "duration": 10, "velocity": 108}, {"time": 1306, "pitch": 69, "duration": 8, "velocity": 93}, {"time": 1318, "pitch": 42, "duration": 42, "velocity": 85}, {"time": 1318, "pitch": 61, "duration": 12, "velocity": 88}, {"time": 1318, "pitch": 66, "duration": 6, "velocity": 94}, {"time": 1318, "pitch": 69, "duration": 6, "velocity": 90}, {"time": 1324, "pitch": 49, "duration": 35, "velocity": 69}, {"time": 1330, "pitch": 54, "duration": 10, "velocity": 83}, {"time": 1330, "pitch": 57, "duration": 13, "velocity": 87}, {"time": 1330, "pitch": 61, "duration": 14, "velocity": 93}, {"time": 1330, "pitch": 66, "duration": 13, "velocity": 94}, {"time": 1348, "pitch": 54, "duration": 10, "velocity": 87}, {"time": 1354, "pitch": 57, "duration": 8, "velocity": 88}, {"time": 1354, "pitch": 61, "duration": 10, "velocity": 91}, {"time": 1354, "pitch": 66, "duration": 8, "velocity": 89}, {"time": 1366, "pitch": 47, "duration": 37, "velocity": 88}, {"time": 1366, "pitch": 59, "duration": 8, "velocity": 87}, {"time": 1366, "pitch": 62, "duration": 8, "velocity": 92}, {"time": 1366, "pitch": 66, "duration": 7, "velocity": 89}, {"time": 1372, "pitch": 54, "duration": 12, "velocity": 79}, {"time": 1378, "pitch": 59, "duration": 13, "velocity": 91}, {"time": 1378, "pitch": 62, "duration": 13, "velocity": 93}, {"time": 1378, "pitch": 66, "duration": 12, "velocity": 90}, {"time": 1396, "pitch": 54, "duration": 5, "velocity": 83}, {"time": 1402, "pitch": 59, "duration": 12, "velocity": 102}, {"time": 1402, "pitch": 62, "duration": 8, "velocity": 107}, {"time": 1402, "pitch": 66, "duration": 8, "velocity": 96}, {"time": 1414, "pitch": 40, "duration": 42, "velocity": 87}, {"time": 1414, "pitch": 56, "duration": 9, "velocity": 90}, {"time": 1414, "pitch": 59, "duration": 9, "velocity": 98}, {"time": 1414, "pitch": 64, "duration": 7, "velocity": 94}, {"time": 1420, "pitch": 47, "duration": 32, "velocity": 73}, {"time": 1426, "pitch": 52, "duration": 9, "velocity": 83}, {"time": 1426, "pitch": 56, "duration": 14, "velocity": 92}, {"time": 1426, "pitch": 59, "duration": 14, "velocity": 104}, {"time": 1426, "pitch": 64, "duration": 13, "velocity": 98}, {"time": 1444, "pitch": 52, "duration": 7, "velocity": 96}, {"time": 1450, "pitch": 56, "duration": 7, "velocity": 88}, {"time": 1450, "pitch": 59, "duration": 10, "velocity": 89}, {"time": 1450, "pitch": 64, "duration": 6, "velocity": 89}, {"time": 1456, "pitch": 47, "duration": 4, "velocity": 62}, {"time": 1456, "pitch": 52, "duration": 3, "velocity": 85}, {"time": 1462, "pitch": 42, "duration": 44, "velocity": 86}, {"time": 1462, "pitch": 57, "duration": 9, "velocity": 87}, {"time": 1462, "pitch": 61, "duration": 8, "velocity": 91}, {"time": 1462, "pitch": 66, "duration": 8, "velocity": 89}, {"time": 1468, "pitch": 49, "duration": 33, "velocity": 74}, {"time": 1474, "pitch": 54, "duration": 13, "velocity": 87}, {"time": 1474, "pitch": 57, "duration": 13, "velocity": 91}, {"time": 1474, "pitch": 61, "duration": 13, "velocity": 93}, {"time": 1474, "pitch": 66, "duration": 13, "velocity": 94}, {"time": 1492, "pitch": 54, "duration": 8, "velocity": 89}, {"time": 1498, "pitch": 57, "duration": 6, "velocity": 91}, {"time": 1498, "pitch": 61, "duration": 10, "velocity": 107}, {"time": 1498, "pitch": 66, "duration": 8, "velocity": 91}, {"time": 1504, "pitch": 49, "duration": 2, "velocity": 36}, {"time": 1504, "pitch": 54, "duration": 1, "velocity": 82}, {"time": 1510, "pitch": 49, "duration": 23, "velocity": 88}, {"time": 1510, "pitch": 56, "duration": 15, "velocity": 91}, {"time": 1510, "pitch": 61, "duration": 15, "velocity": 94}, {"time": 1510, "pitch": 64, "duration": 15, "velocity": 91}, {"time": 1525, "pitch": 64, "duration": 1, "velocity": 88}, {"time": 1528, "pitch": 56, "duration": 2, "velocity": 86}, {"time": 1528, "pitch": 61, "duration": 5, "velocity": 90}, {"time": 1534, "pitch": 42, "duration": 25, "velocity": 86}, {"time": 1534, "pitch": 57, "duration": 16, "velocity": 88}, {"time": 1534, "pitch": 61, "duration": 17, "velocity": 89}, {"time": 1534, "pitch": 66, "duration": 16, "velocity": 96}, {"time": 1546, "pitch": 54, "duration": 8, "velocity": 83}, {"time": 1552, "pitch": 57, "duration": 3, "velocity": 87}, {"time": 1552, "pitch": 61, "duration": 7, "velocity": 88}, {"time": 1552, "pitch": 66, "duration": 4, "velocity": 88}, {"time": 1558, "pitch": 47, "duration": 15, "velocity": 87}, {"time": 1558, "pitch": 59, "duration": 16, "velocity": 89}, {"time": 1558, "pitch": 62, "duration": 16, "velocity": 92}, {"time": 1558, "pitch": 66, "duration": 16, "velocity": 88}, {"time": 1576, "pitch": 47, "duration": 6, "velocity": 87}, {"time": 1576, "pitch": 59, "duration": 22, "velocity": 94}, {"time": 1576, "pitch": 62, "duration": 4, "velocity": 86}, {"time": 1576, "pitch": 66, "duration": 2, "velocity": 84}, {"time": 1582, "pitch": 40, "duration": 20, "velocity": 82}, {"time": 1582, "pitch": 52, "duration": 9, "velocity": 86}, {"time": 1582, "pitch": 56, "duration": 15, "velocity": 89}, {"time": 1582, "pitch": 64, "duration": 14, "velocity": 89}, {"time": 1594, "pitch": 52, "duration": 10, "velocity": 83}, {"time": 1600, "pitch": 56, "duration": 15, "velocity": 88}, {"time": 1600, "pitch": 59, "duration": 15, "velocity": 91}, {"time": 1600, "pitch": 64, "duration": 15, "velocity": 90}, {"time": 1606, "pitch": 40, "duration": 42, "velocity": 91}, {"time": 1612, "pitch": 47, "duration": 37, "velocity": 85}, {"time": 1615, "pitch": 52, "duration": 10, "velocity": 102}, {"time": 1618, "pitch": 56, "duration": 7, "velocity": 93}, {"time": 1624, "pitch": 59, "duration": 7, "velocity": 94}, {"time": 1630, "pitch": 52, "duration": 13, "velocity": 86}, {"time": 1630, "pitch": 64, "duration": 2, "velocity": 102}, {"time": 1642, "pitch": 71, "duration": 6, "velocity": 110}, {"time": 1642, "pitch": 76, "duration": 7, "velocity": 107}, {"time": 1648, "pitch": 52, "duration": 6, "velocity": 83}, {"time": 1654, "pitch": 45, "duration": 37, "velocity": 88}, {"time": 1654, "pitch": 64, "duration": 11, "velocity": 90}, {"time": 1654, "pitch": 69, "duration": 5, "velocity": 102}, {"time": 1654, "pitch": 73, "duration": 6, "velocity": 96}, {"time": 1660, "pitch": 52, "duration": 31, "velocity": 75}, {"time": 1666, "pitch": 57, "duration": 11, "velocity": 87}, {"time": 1666, "pitch": 61, "duration": 13, "velocity": 94}, {"time": 1666, "pitch": 64, "duration": 15, "velocity": 108}, {"time": 1666, "pitch": 69, "duration": 12, "velocity": 90}, {"time": 1684, "pitch": 57, "duration": 6, "velocity": 91}, {"time": 1690, "pitch": 61, "duration": 7, "velocity": 98}, {"time": 1690, "pitch": 64, "duration": 11, "velocity": 102}, {"time": 1690, "pitch": 69, "duration": 6, "velocity": 91}, {"time": 1696, "pitch": 44, "duration": 6, "velocity": 82}, {"time": 1702, "pitch": 42, "duration": 42, "velocity": 91}, {"time": 1702, "pitch": 61, "duration": 6, "velocity": 88}, {"time": 1702, "pitch": 66, "duration": 5, "velocity": 102}, {"time": 1702, "pitch": 69, "duration": 7, "velocity": 89}, {"time": 1708, "pitch": 49, "duration": 36, "velocity": 77}, {"time": 1714, "pitch": 54, "duration": 13, "velocity": 88}, {"time": 1714, "pitch": 57, "duration": 13, "velocity": 88}, {"time": 1714, "pitch": 61, "duration": 14, "velocity": 100}, {"time": 1714, "pitch": 66, "duration": 13, "velocity": 93}, {"time": 1732, "pitch": 54, "duration": 7, "velocity": 102}, {"time": 1738, "pitch": 57, "duration": 6, "velocity": 96}, {"time": 1738, "pitch": 61, "duration": 10, "velocity": 108}, {"time": 1738, "pitch": 66, "duration": 7, "velocity": 96}, {"time": 1744, "pitch": 54, "duration": 6, "velocity": 86}, {"time": 1750, "pitch": 47, "duration": 39, "velocity": 89}, {"time": 1750, "pitch": 59, "duration": 7, "velocity": 92}, {"time": 1750, "pitch": 62, "duration": 10, "velocity": 102}, {"time": 1750, "pitch": 66, "duration": 11, "velocity": 100}, {"time": 1756, "pitch": 54, "duration": 32, "velocity": 74}, {"time": 1762, "pitch": 59, "duration": 11, "velocity": 96}, {"time": 1762, "pitch": 62, "duration": 12, "velocity": 102}, {"time": 1762, "pitch": 66, "duration": 12, "velocity": 113}, {"time": 1762, "pitch": 71, "duration": 11, "velocity": 100}, {"time": 1780, "pitch": 59, "duration": 7, "velocity": 96}, {"time": 1786, "pitch": 62, "duration": 7, "velocity": 104}, {"time": 1786, "pitch": 66, "duration": 10, "velocity": 113}, {"time": 1786, "pitch": 71, "duration": 5, "velocity": 91}, {"time": 1792, "pitch": 47, "duration": 2, "velocity": 91}, {"time": 1798, "pitch": 40, "duration": 42, "velocity": 91}, {"time": 1798, "pitch": 59, "duration": 12, "velocity": 93}, {"time": 1798, "pitch": 64, "duration": 6, "velocity": 110}, {"time": 1798, "pitch": 68, "duration": 7, "velocity": 107}, {"time": 1804, "pitch": 47, "duration": 42, "velocity": 80}, {"time": 1810, "pitch": 52, "duration": 8, "velocity": 92}, {"time": 1810, "pitch": 56, "duration": 10, "velocity": 92}, {"time": 1810, "pitch": 59, "duration": 12, "velocity": 110}, {"time": 1810, "pitch": 64, "duration": 11, "velocity": 100}, {"time": 1828, "pitch": 52, "duration": 7, "velocity": 96}, {"time": 1834, "pitch": 56, "duration": 6, "velocity": 107}, {"time": 1834, "pitch": 59, "duration": 10, "velocity": 113}, {"time": 1834, "pitch": 64, "duration": 6, "velocity": 107}, {"time": 1840, "pitch": 52, "duration": 5, "velocity": 87}, {"time": 1846, "pitch": 42, "duration": 42, "velocity": 88}, {"time": 1846, "pitch": 57, "duration": 6, "velocity": 89}, {"time": 1846, "pitch": 61, "duration": 8, "velocity": 102}, {"time": 1846, "pitch": 66, "duration": 4, "velocity": 89}, {"time": 1852, "pitch": 49, "duration": 36, "velocity": 80}, {"time": 1858, "pitch": 54, "duration": 10, "velocity": 94}, {"time": 1858, "pitch": 57, "duration": 13, "velocity": 93}, {"time": 1858, "pitch": 61, "duration": 13, "velocity": 107}, {"time": 1858, "pitch": 66, "duration": 12, "velocity": 100}, {"time": 1876, "pitch": 54, "duration": 7, "velocity": 93}, {"time": 1882, "pitch": 57, "duration": 6, "velocity": 102}, {"time": 1882, "pitch": 61, "duration": 6, "velocity": 110}, {"time": 1882, "pitch": 66, "duration": 6, "velocity": 107}, {"time": 1888, "pitch": 54, "duration": 2, "velocity": 87}, {"time": 1894, "pitch": 49, "duration": 15, "velocity": 86}, {"time": 1894, "pitch": 56, "duration": 10, "velocity": 98}, {"time": 1894, "pitch": 61, "duration": 10, "velocity": 110}, {"time": 1894, "pitch": 64, "duration": 9, "velocity": 96}, {"time": 1906, "pitch": 56, "duration": 6, "velocity": 91}, {"time": 1906, "pitch": 61, "duration": 10, "velocity": 93}, {"time": 1906, "pitch": 64, "duration": 7, "velocity": 91}, {"time": 1912, "pitch": 49, "duration": 6, "velocity": 84}, {"time": 1918, "pitch": 42, "duration": 14, "velocity": 81}, {"time": 1918, "pitch": 54, "duration": 14, "velocity": 87}, {"time": 1918, "pitch": 57, "duration": 9, "velocity": 89}, {"time": 1918, "pitch": 61, "duration": 9, "velocity": 102}, {"time": 1918, "pitch": 66, "duration": 8, "velocity": 98}, {"time": 1930, "pitch": 57, "duration": 8, "velocity": 92}, {"time": 1930, "pitch": 61, "duration": 11, "velocity": 100}, {"time": 1930, "pitch": 66, "duration": 8, "velocity": 92}, {"time": 1936, "pitch": 42, "duration": 3, "velocity": 85}, {"time": 1936, "pitch": 54, "duration": 4, "velocity": 89}, {"time": 1942, "pitch": 47, "duration": 14, "velocity": 92}, {"time": 1942, "pitch": 59, "duration": 10, "velocity": 92}, {"time": 1942, "pitch": 62, "duration": 10, "velocity": 104}, {"time": 1942, "pitch": 66, "duration": 9, "velocity": 98}, {"time": 1954, "pitch": 59, "duration": 11, "velocity": 98}, {"time": 1954, "pitch": 62, "duration": 7, "velocity": 98}, {"time": 1954, "pitch": 66, "duration": 7, "velocity": 91}, {"time": 1960, "pitch": 47, "duration": 5, "velocity": 88}, {"time": 1966, "pitch": 40, "duration": 14, "velocity": 89}, {"time": 1966, "pitch": 52, "duration": 14, "velocity": 89}, {"time": 1966, "pitch": 56, "duration": 10, "velocity": 92}, {"time": 1966, "pitch": 59, "duration": 10, "velocity": 94}, {"time": 1966, "pitch": 64, "duration": 8, "velocity": 96}, {"time": 1978, "pitch": 56, "duration": 8, "velocity": 88}, {"time": 1978, "pitch": 59, "duration": 12, "velocity": 98}, {"time": 1978, "pitch": 64, "duration": 8, "velocity": 93}, {"time": 1984, "pitch": 40, "duration": 4, "velocity": 84}, {"time": 1984, "pitch": 52, "duration": 5, "velocity": 90}, {"time": 1990, "pitch": 45, "duration": 44, "velocity": 102}, {"time": 1990, "pitch": 57, "duration": 12, "velocity": 88}, {"time": 1990, "pitch": 61, "duration": 17, "velocity": 93}, {"time": 1990, "pitch": 64, "duration": 18, "velocity": 92}, {"time": 2002, "pitch": 52, "duration": 32, "velocity": 79}, {"time": 2008, "pitch": 57, "duration": 14, "velocity": 83}, {"time": 2014, "pitch": 61, "duration": 17, "velocity": 88}, {"time": 2014, "pitch": 64, "duration": 17, "velocity": 94}, {"time": 2014, "pitch": 69, "duration": 16, "velocity": 90}, {"time": 2026, "pitch": 57, "duration": 7, "velocity": 83}, {"time": 2038, "pitch": 45, "duration": 37, "velocity": 87}, {"time": 2038, "pitch": 57, "duration": 4, "velocity": 88}, {"time": 2038, "pitch": 61, "duration": 10, "velocity": 91}, {"time": 2038, "pitch": 64, "duration": 11, "velocity": 88}, {"time": 2044, "pitch": 52, "duration": 31, "velocity": 77}, {"time": 2050, "pitch": 57, "duration": 9, "velocity": 86}, {"time": 2056, "pitch": 61, "duration": 11, "velocity": 92}, {"time": 2056, "pitch": 64, "duration": 14, "velocity": 102}, {"time": 2056, "pitch": 69, "duration": 13, "velocity": 93}, {"time": 2068, "pitch": 57, "duration": 7, "velocity": 87}, {"time": 2074, "pitch": 61, "duration": 6, "velocity": 104}, {"time": 2074, "pitch": 64, "duration": 10, "velocity": 113}, {"time": 2074, "pitch": 69, "duration": 7, "velocity": 90}, {"time": 2080, "pitch": 44, "duration": 7, "velocity": 84}, {"time": 2086, "pitch": 42, "duration": 42, "velocity": 89}, {"time": 2086, "pitch": 61, "duration": 14, "velocity": 87}, {"time": 2086, "pitch": 66, "duration": 14, "velocity": 94}, {"time": 2086, "pitch": 69, "duration": 13, "velocity": 88}, {"time": 2092, "pitch": 49, "duration": 36, "velocity": 80}, {"time": 2098, "pitch": 54, "duration": 10, "velocity": 83}, {"time": 2104, "pitch": 61, "duration": 13, "velocity": 94}, {"time": 2104, "pitch": 66, "duration": 14, "velocity": 104}, {"time": 2104, "pitch": 69, "duration": 13, "velocity": 89}, {"time": 2116, "pitch": 54, "duration": 7, "velocity": 85}, {"time": 2122, "pitch": 61, "duration": 7, "velocity": 98}, {"time": 2122, "pitch": 66, "duration": 6, "velocity": 98}, {"time": 2122, "pitch": 69, "duration": 3, "velocity": 89}, {"time": 2128, "pitch": 54, "duration": 6, "velocity": 86}, {"time": 2134, "pitch": 47, "duration": 15, "velocity": 88}, {"time": 2134, "pitch": 59, "duration": 9, "velocity": 92}, {"time": 2134, "pitch": 62, "duration": 8, "velocity": 100}, {"time": 2134, "pitch": 66, "duration": 8, "velocity": 94}, {"time": 2140, "pitch": 54, "duration": 9, "velocity": 77}, {"time": 2146, "pitch": 59, "duration": 8, "velocity": 90}, {"time": 2146, "pitch": 62, "duration": 11, "velocity": 93}, {"time": 2146, "pitch": 66, "duration": 11, "velocity": 89}, {"time": 2152, "pitch": 47, "duration": 2, "velocity": 88}, {"time": 2158, "pitch": 40, "duration": 19, "velocity": 88}, {"time": 2158, "pitch": 59, "duration": 8, "velocity": 88}, {"time": 2158, "pitch": 64, "duration": 8, "velocity": 91}, {"time": 2158, "pitch": 68, "duration": 8, "velocity": 91}, {"time": 2164, "pitch": 47, "duration": 6, "velocity": 81}, {"time": 2170, "pitch": 52, "duration": 10, "velocity": 84}, {"time": 2170, "pitch": 59, "duration": 6, "velocity": 91}, {"time": 2170, "pitch": 64, "duration": 6, "velocity": 89}, {"time": 2170, "pitch": 68, "duration": 5, "velocity": 89}, {"time": 2176, "pitch": 47, "duration": 2, "velocity": 81}, {"time": 2182, "pitch": 45, "duration": 32, "velocity": 86}, {"time": 2182, "pitch": 57, "duration": 4, "velocity": 88}, {"time": 2182, "pitch": 61, "duration": 13, "velocity": 96}, {"time": 2182, "pitch": 64, "duration": 12, "velocity": 90}, {"time": 2188, "pitch": 52, "duration": 25, "velocity": 73}, {"time": 2194, "pitch": 57, "duration": 6, "velocity": 81}, {"time": 2200, "pitch": 59, "duration": 5, "velocity": 89}, {"time": 2206, "pitch": 57, "duration": 1, "velocity": 84}, {"time": 2230, "pitch": 45, "duration": 40, "velocity": 86}, {"time": 2236, "pitch": 52, "duration": 33, "velocity": 73}, {"time": 2242, "pitch": 57, "duration": 14, "velocity": 83}, {"time": 2248, "pitch": 61, "duration": 14, "velocity": 91}, {"time": 2248, "pitch": 69, "duration": 13, "velocity": 90}, {"time": 2260, "pitch": 57, "duration": 7, "velocity": 78}, {"time": 2266, "pitch": 61, "duration": 8, "velocity": 91}, {"time": 2266, "pitch": 69, "duration": 7, "velocity": 89}, {"time": 2272, "pitch": 64, "duration": 5, "velocity": 82}, {"time": 2278, "pitch": 42, "duration": 39, "velocity": 80}, {"time": 2278, "pitch": 61, "duration": 17, "velocity": 86}, {"time": 2278, "pitch": 66, "duration": 13, "velocity": 88}, {"time": 2284, "pitch": 49, "duration": 33, "velocity": 67}, {"time": 2290, "pitch": 54, "duration": 14, "velocity": 81}, {"time": 2296, "pitch": 57, "duration": 15, "velocity": 87}, {"time": 2296, "pitch": 66, "duration": 14, "velocity": 88}, {"time": 2308, "pitch": 54, "duration": 11, "velocity": 81}, {"time": 2314, "pitch": 57, "duration": 11, "velocity": 74}, {"time": 2314, "pitch": 66, "duration": 14, "velocity": 81}, {"time": 2326, "pitch": 47, "duration": 40, "velocity": 88}, {"time": 2332, "pitch": 54, "duration": 32, "velocity": 78}, {"time": 2338, "pitch": 59, "duration": 14, "velocity": 85}, {"time": 2344, "pitch": 62, "duration": 19, "velocity": 87}, {"time": 2344, "pitch": 71, "duration": 14, "velocity": 87}, {"time": 2356, "pitch": 59, "duration": 7, "velocity": 83}, {"time": 2362, "pitch": 66, "duration": 12, "velocity": 94}, {"time": 2374, "pitch": 40, "duration": 41, "velocity": 83}, {"time": 2374, "pitch": 59, "duration": 19, "velocity": 86}, {"time": 2374, "pitch": 68, "duration": 3, "velocity": 87}, {"time": 2380, "pitch": 47, "duration": 35, "velocity": 81}, {"time": 2386, "pitch": 52, "duration": 19, "velocity": 85}, {"time": 2392, "pitch": 57, "duration": 6, "velocity": 84}, {"time": 2398, "pitch": 56, "duration": 17, "velocity": 81}, {"time": 2398, "pitch": 59, "duration": 14, "velocity": 83}, {"time": 2398, "pitch": 64, "duration": 15, "velocity": 83}, {"time": 2410, "pitch": 52, "duration": 9, "velocity": 74}, {"time": 2422, "pitch": 42, "duration": 37, "velocity": 88}, {"time": 2428, "pitch": 49, "duration": 30, "velocity": 78}, {"time": 2434, "pitch": 54, "duration": 14, "velocity": 84}, {"time": 2440, "pitch": 57, "duration": 14, "velocity": 89}, {"time": 2440, "pitch": 66, "duration": 13, "velocity": 88}, {"time": 2452, "pitch": 54, "duration": 7, "velocity": 85}, {"time": 2458, "pitch": 57, "duration": 7, "velocity": 93}, {"time": 2458, "pitch": 66, "duration": 9, "velocity": 87}, {"time": 2464, "pitch": 61, "duration": 6, "velocity": 83}, {"time": 2470, "pitch": 49, "duration": 39, "velocity": 86}, {"time": 2470, "pitch": 61, "duration": 5, "velocity": 84}, {"time": 2470, "pitch": 68, "duration": 11, "velocity": 91}, {"time": 2476, "pitch": 56, "duration": 31, "velocity": 60}, {"time": 2482, "pitch": 61, "duration": 13, "velocity": 82}, {"time": 2488, "pitch": 64, "duration": 31, "velocity": 88}, {"time": 2488, "pitch": 71, "duration": 13, "velocity": 91}, {"time": 2500, "pitch": 61, "duration": 6, "velocity": 80}, {"time": 2506, "pitch": 68, "duration": 13, "velocity": 90}, {"time": 2518, "pitch": 47, "duration": 40, "velocity": 88}, {"time": 2524, "pitch": 54, "duration": 31, "velocity": 75}, {"time": 2530, "pitch": 59, "duration": 24, "velocity": 83}, {"time": 2536, "pitch": 62, "duration": 22, "velocity": 87}, {"time": 2536, "pitch": 71, "duration": 22, "velocity": 87}, {"time": 2563, "pitch": 59, "duration": 20, "velocity": 70}, {"time": 2566, "pitch": 40, "duration": 40, "velocity": 78}, {"time": 2566, "pitch": 68, "duration": 4, "velocity": 87}, {"time": 2572, "pitch": 47, "duration": 35, "velocity": 77}, {"time": 2578, "pitch": 52, "duration": 15, "velocity": 86}, {"time": 2584, "pitch": 57, "duration": 7, "velocity": 81}, {"time": 2590, "pitch": 56, "duration": 18, "velocity": 84}, {"time": 2590, "pitch": 64, "duration": 23, "velocity": 87}, {"time": 2602, "pitch": 52, "duration": 10, "velocity": 81}, {"time": 2614, "pitch": 45, "duration": 39, "velocity": 78}, {"time": 2614, "pitch": 57, "duration": 7, "velocity": 83}, {"time": 2614, "pitch": 61, "duration": 14, "velocity": 86}, {"time": 2614, "pitch": 64, "duration": 11, "velocity": 83}, {"time": 2620, "pitch": 52, "duration": 32, "velocity": 64}, {"time": 2626, "pitch": 57, "duration": 13, "velocity": 72}, {"time": 2632, "pitch": 61, "duration": 12, "velocity": 88}, {"time": 2632, "pitch": 64, "duration": 12, "velocity": 90}, {"time": 2644, "pitch": 57, "duration": 7, "velocity": 83}, {"time": 2650, "pitch": 61, "duration": 10, "velocity": 104}, {"time": 2650, "pitch": 64, "duration": 10, "velocity": 108}, {"time": 2662, "pitch": 42, "duration": 40, "velocity": 83}, {"time": 2662, "pitch": 57, "duration": 12, "velocity": 88}, {"time": 2662, "pitch": 61, "duration": 16, "velocity": 87}, {"time": 2662, "pitch": 66, "duration": 12, "velocity": 91}, {"time": 2668, "pitch": 49, "duration": 34, "velocity": 56}, {"time": 2674, "pitch": 54, "duration": 12, "velocity": 78}, {"time": 2680, "pitch": 57, "duration": 12, "velocity": 88}, {"time": 2680, "pitch": 61, "duration": 14, "velocity": 93}, {"time": 2680, "pitch": 66, "duration": 11, "velocity": 92}, {"time": 2692, "pitch": 54, "duration": 18, "velocity": 82}, {"time": 2698, "pitch": 57, "duration": 7, "velocity": 89}, {"time": 2698, "pitch": 61, "duration": 11, "velocity": 96}, {"time": 2698, "pitch": 66, "duration": 7, "velocity": 89}, {"time": 2710, "pitch": 47, "duration": 39, "velocity": 80}, {"time": 2710, "pitch": 59, "duration": 6, "velocity": 86}, {"time": 2710, "pitch": 62, "duration": 8, "velocity": 90}, {"time": 2710, "pitch": 66, "duration": 9, "velocity": 88}, {"time": 2716, "pitch": 54, "duration": 32, "velocity": 66}, {"time": 2722, "pitch": 59, "duration": 12, "velocity": 81}, {"time": 2728, "pitch": 62, "duration": 12, "velocity": 86}, {"time": 2728, "pitch": 66, "duration": 12, "velocity": 88}, {"time": 2728, "pitch": 71, "duration": 12, "velocity": 86}, {"time": 2740, "pitch": 59, "duration": 7, "velocity": 79}, {"time": 2746, "pitch": 62, "duration": 6, "velocity": 87}, {"time": 2746, "pitch": 66, "duration": 10, "velocity": 85}, {"time": 2746, "pitch": 71, "duration": 5, "velocity": 84}, {"time": 2758, "pitch": 40, "duration": 42, "velocity": 78}, {"time": 2758, "pitch": 59, "duration": 13, "velocity": 85}, {"time": 2758, "pitch": 64, "duration": 4, "velocity": 88}, {"time": 2758, "pitch": 68, "duration": 6, "velocity": 88}, {"time": 2764, "pitch": 47, "duration": 42, "velocity": 74}, {"time": 2770, "pitch": 52, "duration": 16, "velocity": 81}, {"time": 2776, "pitch": 57, "duration": 4, "velocity": 83}, {"time": 2782, "pitch": 56, "duration": 16, "velocity": 84}, {"time": 2782, "pitch": 59, "duration": 15, "velocity": 83}, {"time": 2782, "pitch": 64, "duration": 14, "velocity": 84}, {"time": 2794, "pitch": 52, "duration": 11, "velocity": 76}, {"time": 2806, "pitch": 42, "duration": 39, "velocity": 77}, {"time": 2806, "pitch": 57, "duration": 13, "velocity": 83}, {"time": 2806, "pitch": 61, "duration": 13, "velocity": 87}, {"time": 2806, "pitch": 66, "duration": 11, "velocity": 87}, {"time": 2812, "pitch": 49, "duration": 34, "velocity": 71}, {"time": 2818, "pitch": 54, "duration": 12, "velocity": 79}, {"time": 2824, "pitch": 57, "duration": 13, "velocity": 88}, {"time": 2824, "pitch": 61, "duration": 12, "velocity": 89}, {"time": 2824, "pitch": 66, "duration": 13, "velocity": 87}, {"time": 2836, "pitch": 54, "duration": 12, "velocity": 80}, {"time": 2842, "pitch": 57, "duration": 6, "velocity": 88}, {"time": 2842, "pitch": 61, "duration": 10, "velocity": 91}, {"time": 2842, "pitch": 66, "duration": 7, "velocity": 88}, {"time": 2854, "pitch": 49, "duration": 18, "velocity": 83}, {"time": 2854, "pitch": 61, "duration": 8, "velocity": 84}, {"time": 2854, "pitch": 64, "duration": 7, "velocity": 87}, {"time": 2854, "pitch": 68, "duration": 8, "velocity": 86}, {"time": 2860, "pitch": 56, "duration": 10, "velocity": 70}, {"time": 2866, "pitch": 61, "duration": 8, "velocity": 86}, {"time": 2866, "pitch": 64, "duration": 9, "velocity": 85}, {"time": 2866, "pitch": 68, "duration": 8, "velocity": 86}, {"time": 2878, "pitch": 42, "duration": 17, "velocity": 86}, {"time": 2878, "pitch": 57, "duration": 16, "velocity": 87}, {"time": 2878, "pitch": 61, "duration": 21, "velocity": 88}, {"time": 2878, "pitch": 66, "duration": 18, "velocity": 86}, {"time": 2884, "pitch": 49, "duration": 12, "velocity": 77}, {"time": 2890, "pitch": 54, "duration": 8, "velocity": 85}, {"time": 2902, "pitch": 47, "duration": 17, "velocity": 86}, {"time": 2902, "pitch": 59, "duration": 47, "velocity": 86}, {"time": 2902, "pitch": 62, "duration": 20, "velocity": 88}, {"time": 2902, "pitch": 66, "duration": 20, "velocity": 88}, {"time": 2914, "pitch": 54, "duration": 3, "velocity": 76}, {"time": 2926, "pitch": 40, "duration": 18, "velocity": 86}, {"time": 2926, "pitch": 56, "duration": 19, "velocity": 86}, {"time": 2926, "pitch": 64, "duration": 19, "velocity": 89}, {"time": 2932, "pitch": 47, "duration": 12, "velocity": 48}, {"time": 2938, "pitch": 52, "duration": 12, "velocity": 83}, {"time": 2950, "pitch": 45, "duration": 43, "velocity": 80}, {"time": 2950, "pitch": 57, "duration": 8, "velocity": 80}, {"time": 2950, "pitch": 61, "duration": 14, "velocity": 84}, {"time": 2950, "pitch": 64, "duration": 14, "velocity": 87}, {"time": 2956, "pitch": 52, "duration": 39, "velocity": 68}, {"time": 2962, "pitch": 57, "duration": 14, "velocity": 83}, {"time": 2974, "pitch": 61, "duration": 9, "velocity": 93}, {"time": 2974, "pitch": 64, "duration": 9, "velocity": 91}, {"time": 2980, "pitch": 57, "duration": 10, "velocity": 86}, {"time": 2986, "pitch": 61, "duration": 10, "velocity": 89}, {"time": 2986, "pitch": 64, "duration": 8, "velocity": 89}, {"time": 2998, "pitch": 47, "duration": 16, "velocity": 89}, {"time": 2998, "pitch": 59, "duration": 16, "velocity": 89}, {"time": 2998, "pitch": 62, "duration": 17, "velocity": 100}, {"time": 2998, "pitch": 66, "duration": 13, "velocity": 86}, {"time": 3016, "pitch": 52, "duration": 26, "velocity": 88}, {"time": 3016, "pitch": 59, "duration": 16, "velocity": 90}, {"time": 3016, "pitch": 64, "duration": 16, "velocity": 102}, {"time": 3016, "pitch": 68, "duration": 16, "velocity": 89}, {"time": 3034, "pitch": 59, "duration": 7, "velocity": 93}, {"time": 3034, "pitch": 64, "duration": 7, "velocity": 107}, {"time": 3034, "pitch": 68, "duration": 8, "velocity": 95}, {"time": 3046, "pitch": 45, "duration": 40, "velocity": 92}, {"time": 3046, "pitch": 61, "duration": 12, "velocity": 86}, {"time": 3046, "pitch": 64, "duration": 13, "velocity": 86}, {"time": 3046, "pitch": 69, "duration": 12, "velocity": 85}, {"time": 3052, "pitch": 52, "duration": 33, "velocity": 65}, {"time": 3058, "pitch": 57, "duration": 7, "velocity": 87}, {"time": 3058, "pitch": 61, "duration": 13, "velocity": 91}, {"time": 3058, "pitch": 64, "duration": 1, "velocity": 104}, {"time": 3058, "pitch": 69, "duration": 11, "velocity": 92}, {"time": 3076, "pitch": 57, "duration": 8, "velocity": 87}, {"time": 3082, "pitch": 61, "duration": 9, "velocity": 102}, {"time": 3082, "pitch": 64, "duration": 10, "velocity": 108}, {"time": 3082, "pitch": 69, "duration": 8, "velocity": 93}, {"time": 3094, "pitch": 42, "duration": 42, "velocity": 85}, {"time": 3094, "pitch": 61, "duration": 12, "velocity": 88}, {"time": 3094, "pitch": 66, "duration": 6, "velocity": 94}, {"time": 3094, "pitch": 69, "duration": 6, "velocity": 90}, {"time": 3100, "pitch": 49, "duration": 35, "velocity": 69}, {"time": 3106, "pitch": 54, "duration": 10, "velocity": 83}, {"time": 3106, "pitch": 57, "duration": 13, "velocity": 87}, {"time": 3106, "pitch": 61, "duration": 14, "velocity": 93}, {"time": 3106, "pitch": 66, "duration": 13, "velocity": 94}, {"time": 3124, "pitch": 54, "duration": 10, "velocity": 87}, {"time": 3130, "pitch": 57, "duration": 8, "velocity": 88}, {"time": 3130, "pitch": 61, "duration": 10, "velocity": 91}, {"time": 3130, "pitch": 66, "duration": 8, "velocity": 89}, {"time": 3142, "pitch": 47, "duration": 37, "velocity": 88}, {"time": 3142, "pitch": 59, "duration": 8, "velocity": 87}, {"time": 3142, "pitch": 62, "duration": 8, "velocity": 92}, {"time": 3142, "pitch": 66, "duration": 7, "velocity": 89}, {"time": 3148, "pitch": 54, "duration": 12, "velocity": 79}, {"time": 3154, "pitch": 59, "duration": 13, "velocity": 91}, {"time": 3154, "pitch": 62, "duration": 13, "velocity": 93}, {"time": 3154, "pitch": 66, "duration": 12, "velocity": 90}, {"time": 3172, "pitch": 54, "duration": 5, "velocity": 83}, {"time": 3178, "pitch": 59, "duration": 12, "velocity": 102}, {"time": 3178, "pitch": 62, "duration": 8, "velocity": 107}, {"time": 3178, "pitch": 66, "duration": 8, "velocity": 96}, {"time": 3190, "pitch": 40, "duration": 42, "velocity": 87}, {"time": 3190, "pitch": 56, "duration": 9, "velocity": 90}, {"time": 3190, "pitch": 59, "duration": 9, "velocity": 98}, {"time": 3190, "pitch": 64, "duration": 7, "velocity": 94}, {"time": 3196, "pitch": 47, "duration": 32, "velocity": 73}, {"time": 3202, "pitch": 52, "duration": 9, "velocity": 83}, {"time": 3202, "pitch": 56, "duration": 14, "velocity": 92}, {"time": 3202, "pitch": 59, "duration": 14, "velocity": 104}, {"time": 3202, "pitch": 64, "duration": 13, "velocity": 98}, {"time": 3220, "pitch": 52, "duration": 7, "velocity": 96}, {"time": 3226, "pitch": 56, "duration": 7, "velocity": 88}, {"time": 3226, "pitch": 59, "duration": 10, "velocity": 89}, {"time": 3226, "pitch": 64, "duration": 6, "velocity": 89}, {"time": 3232, "pitch": 47, "duration": 4, "velocity": 62}, {"time": 3232, "pitch": 52, "duration": 3, "velocity": 85}, {"time": 3238, "pitch": 42, "duration": 44, "velocity": 86}, {"time": 3238, "pitch": 57, "duration": 9, "velocity": 87}, {"time": 3238, "pitch": 61, "duration": 8, "velocity": 91}, {"time": 3238, "pitch": 66, "duration": 8, "velocity": 89}, {"time": 3244, "pitch": 49, "duration": 33, "velocity": 74}, {"time": 3250, "pitch": 54, "duration": 13, "velocity": 87}, {"time": 3250, "pitch": 57, "duration": 13, "velocity": 91}, {"time": 3250, "pitch": 61, "duration": 13, "velocity": 93}, {"time": 3250, "pitch": 66, "duration": 13, "velocity": 94}, {"time": 3268, "pitch": 54, "duration": 8, "velocity": 89}, {"time": 3274, "pitch": 57, "duration": 6, "velocity": 91}, {"time": 3274, "pitch": 61, "duration": 10, "velocity": 107}, {"time": 3274, "pitch": 66, "duration": 8, "velocity": 91}, {"time": 3280, "pitch": 49, "duration": 2, "velocity": 36}, {"time": 3280, "pitch": 54, "duration": 1, "velocity": 82}, {"time": 3286, "pitch": 49, "duration": 23, "velocity": 88}, {"time": 3286, "pitch": 56, "duration": 15, "velocity": 91}, {"time": 3286, "pitch": 61, "duration": 15, "velocity": 94}, {"time": 3286, "pitch": 64, "duration": 15, "velocity": 91}, {"time": 3301, "pitch": 64, "duration": 1, "velocity": 88}, {"time": 3304, "pitch": 56, "duration": 2, "velocity": 86}, {"time": 3304, "pitch": 61, "duration": 5, "velocity": 90}, {"time": 3310, "pitch": 42, "duration": 25, "velocity": 86}, {"time": 3310, "pitch": 57, "duration": 16, "velocity": 88}, {"time": 3310, "pitch": 61, "duration": 17, "velocity": 89}, {"time": 3310, "pitch": 66, "duration": 16, "velocity": 96}, {"time": 3322, "pitch": 54, "duration": 8, "velocity": 83}, {"time": 3328, "pitch": 57, "duration": 3, "velocity": 87}, {"time": 3328, "pitch": 61, "duration": 7, "velocity": 88}, {"time": 3328, "pitch": 66, "duration": 4, "velocity": 88}, {"time": 3334, "pitch": 47, "duration": 15, "velocity": 87}, {"time": 3334, "pitch": 59, "duration": 16, "velocity": 89}, {"time": 3334, "pitch": 62, "duration": 16, "velocity": 92}, {"time": 3334, "pitch": 66, "duration": 16, "velocity": 88}, {"time": 3352, "pitch": 47, "duration": 6, "velocity": 87}, {"time": 3352, "pitch": 59, "duration": 22, "velocity": 94}, {"time": 3352, "pitch": 62, "duration": 4, "velocity": 86}, {"time": 3352, "pitch": 66, "duration": 2, "velocity": 84}, {"time": 3358, "pitch": 40, "duration": 20, "velocity": 82}, {"time": 3358, "pitch": 52, "duration": 9, "velocity": 86}, {"time": 3358, "pitch": 56, "duration": 15, "velocity": 89}, {"time": 3358, "pitch": 64, "duration": 14, "velocity": 89}, {"time": 3370, "pitch": 52, "duration": 10, "velocity": 83}, {"time": 3376, "pitch": 56, "duration": 15, "velocity": 88}, {"time": 3376, "pitch": 59, "duration": 15, "velocity": 91}, {"time": 3376, "pitch": 64, "duration": 15, "velocity": 90}, {"time": 3382, "pitch": 40, "duration": 42, "velocity": 91}, {"time": 3388, "pitch": 47, "duration": 37, "velocity": 85}, {"time": 3391, "pitch": 52, "duration": 10, "velocity": 102}, {"time": 3394, "pitch": 56, "duration": 7, "velocity": 93}, {"time": 3400, "pitch": 59, "duration": 7, "velocity": 94}, {"time": 3406, "pitch": 52, "duration": 13, "velocity": 86}, {"time": 3406, "pitch": 64, "duration": 2, "velocity": 102}, {"time": 3418, "pitch": 68, "duration": 6, "velocity": 90}, {"time": 3418, "pitch": 71, "duration": 6, "velocity": 110}, {"time": 3418, "pitch": 76, "duration": 7, "velocity": 107}, {"time": 3424, "pitch": 52, "duration": 6, "velocity": 83}, {"time": 3430, "pitch": 45, "duration": 37, "velocity": 88}, {"time": 3430, "pitch": 64, "duration": 11, "velocity": 90}, {"time": 3430, "pitch": 69, "duration": 5, "velocity": 102}, {"time": 3430, "pitch": 73, "duration": 6, "velocity": 96}, {"time": 3436, "pitch": 52, "duration": 31, "velocity": 75}, {"time": 3442, "pitch": 57, "duration": 11, "velocity": 87}, {"time": 3442, "pitch": 61, "duration": 13, "velocity": 94}, {"time": 3442, "pitch": 64, "duration": 15, "velocity": 108}, {"time": 3442, "pitch": 69, "duration": 12, "velocity": 90}, {"time": 3460, "pitch": 57, "duration": 6, "velocity": 91}, {"time": 3466, "pitch": 61, "duration": 7, "velocity": 98}, {"time": 3466, "pitch": 64, "duration": 11, "velocity": 102}, {"time": 3466, "pitch": 69, "duration": 6, "velocity": 91}, {"time": 3472, "pitch": 44, "duration": 6, "velocity": 82}, {"time": 3478, "pitch": 42, "duration": 42, "velocity": 91}, {"time": 3478, "pitch": 61, "duration": 6, "velocity": 88}, {"time": 3478, "pitch": 66, "duration": 5, "velocity": 102}, {"time": 3478, "pitch": 69, "duration": 7, "velocity": 89}, {"time": 3484, "pitch": 49, "duration": 36, "velocity": 77}, {"time": 3490, "pitch": 54, "duration": 13, "velocity": 88}, {"time": 3490, "pitch": 57, "duration": 13, "velocity": 88}, {"time": 3490, "pitch": 61, "duration": 14, "velocity": 100}, {"time": 3490, "pitch": 66, "duration": 13, "velocity": 93}, {"time": 3508, "pitch": 54, "duration": 7, "velocity": 102}, {"time": 3514, "pitch": 57, "duration": 6, "velocity": 96}, {"time": 3514, "pitch": 61, "duration": 10, "velocity": 108}, {"time": 3514, "pitch": 66, "duration": 7, "velocity": 96}, {"time": 3520, "pitch": 54, "duration": 6, "velocity": 86}, {"time": 3526, "pitch": 47, "duration": 39, "velocity": 89}, {"time": 3526, "pitch": 59, "duration": 7, "velocity": 92}, {"time": 3526, "pitch": 62, "duration": 10, "velocity": 102}, {"time": 3526, "pitch": 66, "duration": 11, "velocity": 100}, {"time": 3532, "pitch": 54, "duration": 32, "velocity": 74}, {"time": 3538, "pitch": 59, "duration": 11, "velocity": 96}, {"time": 3538, "pitch": 62, "duration": 12, "velocity": 102}, {"time": 3538, "pitch": 66, "duration": 12, "velocity": 113}, {"time": 3538, "pitch": 71, "duration": 11, "velocity": 100}, {"time": 3556, "pitch": 59, "duration": 7, "velocity": 96}, {"time": 3562, "pitch": 62, "duration": 7, "velocity": 104}, {"time": 3562, "pitch": 66, "duration": 10, "velocity": 113}, {"time": 3562, "pitch": 71, "duration": 5, "velocity": 91}, {"time": 3568, "pitch": 47, "duration": 2, "velocity": 91}, {"time": 3574, "pitch": 40, "duration": 42, "velocity": 91}, {"time": 3574, "pitch": 59, "duration": 12, "velocity": 93}, {"time": 3574, "pitch": 64, "duration": 6, "velocity": 110}, {"time": 3574, "pitch": 68, "duration": 7, "velocity": 107}, {"time": 3580, "pitch": 47, "duration": 42, "velocity": 80}, {"time": 3586, "pitch": 52, "duration": 8, "velocity": 92}, {"time": 3586, "pitch": 56, "duration": 10, "velocity": 92}, {"time": 3586, "pitch": 59, "duration": 12, "velocity": 110}, {"time": 3586, "pitch": 64, "duration": 11, "velocity": 100}, {"time": 3604, "pitch": 52, "duration": 7, "velocity": 96}, {"time": 3610, "pitch": 56, "duration": 6, "velocity": 107}, {"time": 3610, "pitch": 59, "duration": 10, "velocity": 113}, {"time": 3610, "pitch": 64, "duration": 6, "velocity": 107}, {"time": 3616, "pitch": 52, "duration": 5, "velocity": 87}, {"time": 3622, "pitch": 42, "duration": 42, "velocity": 88}, {"time": 3622, "pitch": 57, "duration": 6, "velocity": 89}, {"time": 3622, "pitch": 61, "duration": 8, "velocity": 102}, {"time": 3622, "pitch": 66, "duration": 4, "velocity": 89}, {"time": 3628, "pitch": 49, "duration": 36, "velocity": 80}, {"time": 3634, "pitch": 54, "duration": 10, "velocity": 94}, {"time": 3634, "pitch": 57, "duration": 13, "velocity": 93}, {"time": 3634, "pitch": 61, "duration": 13, "velocity": 107}, {"time": 3634, "pitch": 66, "duration": 12, "velocity": 100}, {"time": 3652, "pitch": 54, "duration": 7, "velocity": 93}, {"time": 3658, "pitch": 57, "duration": 6, "velocity": 102}, {"time": 3658, "pitch": 61, "duration": 6, "velocity": 110}, {"time": 3658, "pitch": 66, "duration": 6, "velocity": 107}, {"time": 3664, "pitch": 54, "duration": 2, "velocity": 87}, {"time": 3670, "pitch": 49, "duration": 15, "velocity": 86}, {"time": 3670, "pitch": 56, "duration": 10, "velocity": 98}, {"time": 3670, "pitch": 61, "duration": 10, "velocity": 110}, {"time": 3670, "pitch": 64, "duration": 9, "velocity": 96}, {"time": 3682, "pitch": 56, "duration": 6, "velocity": 91}, {"time": 3682, "pitch": 61, "duration": 10, "velocity": 93}, {"time": 3682, "pitch": 64, "duration": 7, "velocity": 91}, {"time": 3688, "pitch": 49, "duration": 6, "velocity": 84}, {"time": 3694, "pitch": 42, "duration": 14, "velocity": 81}, {"time": 3694, "pitch": 54, "duration": 14, "velocity": 87}, {"time": 3694, "pitch": 57, "duration": 9, "velocity": 89}, {"time": 3694, "pitch": 61, "duration": 9, "velocity": 102}, {"time": 3694, "pitch": 66, "duration": 8, "velocity": 98}, {"time": 3706, "pitch": 57, "duration": 8, "velocity": 92}, {"time": 3706, "pitch": 61, "duration": 11, "velocity": 100}, {"time": 3706, "pitch": 66, "duration": 8, "velocity": 92}, {"time": 3712, "pitch": 42, "duration": 3, "velocity": 85}, {"time": 3712, "pitch": 54, "duration": 4, "velocity": 89}, {"time": 3718, "pitch": 47, "duration": 14, "velocity": 92}, {"time": 3718, "pitch": 59, "duration": 10, "velocity": 92}, {"time": 3718, "pitch": 62, "duration": 10, "velocity": 104}, {"time": 3718, "pitch": 66, "duration": 9, "velocity": 98}, {"time": 3730, "pitch": 59, "duration": 11, "velocity": 98}, {"time": 3730, "pitch": 62, "duration": 7, "velocity": 98}, {"time": 3730, "pitch": 66, "duration": 7, "velocity": 91}, {"time": 3736, "pitch": 47, "duration": 5, "velocity": 88}, {"time": 3742, "pitch": 40, "duration": 14, "velocity": 89}, {"time": 3742, "pitch": 52, "duration": 14, "velocity": 89}, {"time": 3742, "pitch": 56, "duration": 10, "velocity": 92}, {"time": 3742, "pitch": 59, "duration": 10, "velocity": 94}, {"time": 3742, "pitch": 64, "duration": 8, "velocity": 96}, {"time": 3754, "pitch": 56, "duration": 8, "velocity": 88}, {"time": 3754, "pitch": 59, "duration": 12, "velocity": 98}, {"time": 3754, "pitch": 64, "duration": 8, "velocity": 93}, {"time": 3760, "pitch": 40, "duration": 4, "velocity": 84}, {"time": 3760, "pitch": 52, "duration": 5, "velocity": 90}, {"time": 3766, "pitch": 45, "duration": 44, "velocity": 102}, {"time": 3766, "pitch": 57, "duration": 12, "velocity": 88}, {"time": 3766, "pitch": 61, "duration": 17, "velocity": 93}, {"time": 3766, "pitch": 64, "duration": 18, "velocity": 92}, {"time": 3778, "pitch": 52, "duration": 32, "velocity": 79}, {"time": 3784, "pitch": 57, "duration": 14, "velocity": 83}, {"time": 3790, "pitch": 61, "duration": 17, "velocity": 88}, {"time": 3790, "pitch": 64, "duration": 17, "velocity": 94}, {"time": 3790, "pitch": 69, "duration": 16, "velocity": 90}, {"time": 3802, "pitch": 57, "duration": 7, "velocity": 83}, {"time": 3922, "pitch": 45, "duration": 30, "velocity": 88}, {"time": 3928, "pitch": 52, "duration": 20, "velocity": 80}, {"time": 3934, "pitch": 57, "duration": 14, "velocity": 86}, {"time": 3946, "pitch": 64, "duration": 15, "velocity": 88}, {"time": 3952, "pitch": 61, "duration": 13, "velocity": 74}, {"time": 3955, "pitch": 45, "duration": 4, "velocity": 75}, {"time": 3958, "pitch": 42, "duration": 41, "velocity": 81}, {"time": 3964, "pitch": 49, "duration": 36, "velocity": 76}, {"time": 3970, "pitch": 54, "duration": 36, "velocity": 82}, {"time": 3976, "pitch": 57, "duration": 30, "velocity": 83}, {"time": 3976, "pitch": 66, "duration": 31, "velocity": 82}, {"time": 4006, "pitch": 47, "duration": 20, "velocity": 84}, {"time": 4012, "pitch": 54, "duration": 13, "velocity": 75}, {"time": 4018, "pitch": 59, "duration": 6, "velocity": 78}, {"time": 4024, "pitch": 62, "duration": 8, "velocity": 83}, {"time": 4024, "pitch": 71, "duration": 7, "velocity": 79}, {"time": 4030, "pitch": 40, "duration": 48, "velocity": 83}, {"time": 4036, "pitch": 47, "duration": 42, "velocity": 74}, {"time": 4045, "pitch": 52, "duration": 44, "velocity": 77}, {"time": 4051, "pitch": 56, "duration": 29, "velocity": 71}, {"time": 4051, "pitch": 64, "duration": 29, "velocity": 67}, {"time": 4087, "pitch": 57, "duration": 20, "velocity": 38}, {"time": 4090, "pitch": 45, "duration": 16, "velocity": 38}, {"time": 4090, "pitch": 61, "duration": 18, "velocity": 38}, {"time": 4093, "pitch": 64, "duration": 16, "velocity": 58}], "annotations": [{"time": 22, "annotation": {"number": 64, "value": 127}, "group": "control_change"}, {"time": 68, "annotation": {"number": 64, "value": 74}, "group": "control_change"}, {"time": 68, "annotation": {"number": 64, "value": 0}, "group": "control_change"}, {"time": 70, "annotation": {"number": 64, "value": 127}, "group": "control_change"}, {"time": 116, "annotation": {"number": 64, "value": 0}, "group": "control_change"}, {"time": 118, "annotation": {"number": 64, "value": 127}, "group": "control_change"}, {"time": 163, "annotation": {"number": 64, "value": 38}, "group": "control_change"}, {"time": 164, "annotation": {"number": 64, "value": 0}, "group": "control_change"}, {"time": 166, "annotation": {"number": 64, "value": 127}, "group": "control_change"}, {"time": 166, "annotation": {"number": 64, "value": 74}, "group": "control_change"}, {"time": 211, "annotation": {"number": 64, "value": 0}, "group": "control_change"}, {"time": 214, "annotation": {"number": 64, "value": 74}, "group": "control_change"}, {"time": 214, "annotation": {"number": 64, "value": 127}, "group": "control_change"}, {"time": 259, "annotation": {"number": 64, "value": 38}, "group": "control_change"}, {"time": 260, "annotation": {"number": 64, "value": 0}, "group": "control_change"}, {"time": 261, "annotation": {"number": 64, "value": 127}, "group": "control_change"}, {"time": 308, "annotation": {"number": 64, "value": 74}, "group": "control_change"}, {"time": 308, "annotation": {"number": 64, "value": 0}, "group": "control_change"}, {"time": 308, "annotation": {"number": 64, "value": 127}, "group": "control_change"}, {"time": 332, "annotation": {"number": 64, "value": 38}, "group": "control_change"}, {"time": 332, "annotation": {"number": 64, "value": 0}, "group": "control_change"}, {"time": 334, "annotation": {"number": 64, "value": 38}, "group": "control_change"}, {"time": 334, "annotation": {"number": 64, "value": 127}, "group": "control_change"}, {"time": 355, "annotation": {"number": 64, "value": 74}, "group": "control_change"}, {"time": 355, "annotation": {"number": 64, "value": 0}, "group": "control_change"}, {"time": 357, "annotation": {"number": 64, "value": 127}, "group": "control_change"}, {"time": 450, "annotation": {"number": 64, "value": 74}, "group": "control_change"}, {"time": 450, "annotation": {"number": 64, "value": 0}, "group": "control_change"}, {"time": 454, "annotation": {"number": 64, "value": 127}, "group": "control_change"}, {"time": 643, "annotation": {"number": 64, "value": 0}, "group": "control_change"}, {"time": 645, "annotation": {"number": 64, "value": 74}, "group": "control_change"}, {"time": 645, "annotation": {"number": 64, "value": 127}, "group": "control_change"}, {"time": 692, "annotation": {"number": 64, "value": 74}, "group": "control_change"}, {"time": 692, "annotation": {"number": 64, "value": 38}, "group": "control_change"}, {"time": 692, "annotation": {"number": 64, "value": 0}, "group": "control_change"}, {"time": 693, "annotation": {"number": 64, "value": 74}, "group": "control_change"}, {"time": 693, "annotation": {"number": 64, "value": 127}, "group": "control_change"}, {"time": 695, "annotation": {"number": 64, "value": 127}, "group": "control_change"}, {"time": 719, "annotation": {"number": 64, "value": 38}, "group": "control_change"}, {"time": 719, "annotation": {"number": 64, "value": 0}, "group": "control_change"}, {"time": 835, "annotation": {"number": 64, "value": 0}, "group": "control_change"}, {"time": 837, "annotation": {"number": 64, "value": 74}, "group": "control_change"}, {"time": 837, "annotation": {"number": 64, "value": 127}, "group": "control_change"}, {"time": 839, "annotation": {"number": 64, "value": 127}, "group": "control_change"}, {"time": 932, "annotation": {"number": 64, "value": 38}, "group": "control_change"}, {"time": 932, "annotation": {"number": 64, "value": 0}, "group": "control_change"}, {"time": 933, "annotation": {"number": 64, "value": 38}, "group": "control_change"}, {"time": 933, "annotation": {"number": 64, "value": 127}, "group": "control_change"}, {"time": 1027, "annotation": {"number": 64, "value": 38}, "group": "control_change"}, {"time": 1027, "annotation": {"number": 64, "value": 0}, "group": "control_change"}, {"time": 1030, "annotation": {"number": 64, "value": 127}, "group": "control_change"}, {"time": 1077, "annotation": {"number": 64, "value": 127}, "group": "control_change"}, {"time": 1101, "annotation": {"number": 64, "value": 38}, "group": "control_change"}, {"time": 1101, "annotation": {"number": 64, "value": 0}, "group": "control_change"}, {"time": 1102, "annotation": {"number": 64, "value": 127}, "group": "control_change"}, {"time": 1111, "annotation": {"number": 64, "value": 38}, "group": "control_change"}, {"time": 1111, "annotation": {"number": 64, "value": 0}, "group": "control_change"}, {"time": 1123, "annotation": {"number": 64, "value": 0}, "group": "control_change"}, {"time": 1125, "annotation": {"number": 64, "value": 74}, "group": "control_change"}, {"time": 1125, "annotation": {"number": 64, "value": 127}, "group": "control_change"}, {"time": 1171, "annotation": {"number": 64, "value": 74}, "group": "control_change"}, {"time": 1171, "annotation": {"number": 64, "value": 0}, "group": "control_change"}, {"time": 1173, "annotation": {"number": 64, "value": 127}, "group": "control_change"}, {"time": 1267, "annotation": {"number": 64, "value": 0}, "group": "control_change"}, {"time": 1270, "annotation": {"number": 64, "value": 127}, "group": "control_change"}, {"time": 1366, "annotation": {"number": 64, "value": 127}, "group": "control_change"}, {"time": 1380, "annotation": {"number": 64, "value": 74}, "group": "control_change"}, {"time": 1380, "annotation": {"number": 64, "value": 0}, "group": "control_change"}, {"time": 1412, "annotation": {"number": 64, "value": 74}, "group": "control_change"}, {"time": 1412, "annotation": {"number": 64, "value": 127}, "group": "control_change"}, {"time": 1459, "annotation": {"number": 64, "value": 38}, "group": "control_change"}, {"time": 1459, "annotation": {"number": 64, "value": 0}, "group": "control_change"}, {"time": 1461, "annotation": {"number": 64, "value": 127}, "group": "control_change"}, {"time": 1471, "annotation": {"number": 64, "value": 74}, "group": "control_change"}, {"time": 1471, "annotation": {"number": 64, "value": 127}, "group": "control_change"}, {"time": 1472, "annotation": {"number": 64, "value": 0}, "group": "control_change"}, {"time": 1473, "annotation": {"number": 64, "value": 74}, "group": "control_change"}, {"time": 1473, "annotation": {"number": 64, "value": 127}, "group": "control_change"}, {"time": 1508, "annotation": {"number": 64, "value": 38}, "group": "control_change"}, {"time": 1508, "annotation": {"number": 64, "value": 0}, "group": "control_change"}, {"time": 1509, "annotation": {"number": 64, "value": 127}, "group": "control_change"}, {"time": 1531, "annotation": {"number": 64, "value": 0}, "group": "control_change"}, {"time": 1533, "annotation": {"number": 64, "value": 127}, "group": "control_change"}, {"time": 1555, "annotation": {"number": 64, "value": 0}, "group": "control_change"}, {"time": 1557, "annotation": {"number": 64, "value": 127}, "group": "control_change"}, {"time": 1580, "annotation": {"number": 64, "value": 74}, "group": "control_change"}, {"time": 1580, "annotation": {"number": 64, "value": 0}, "group": "control_change"}, {"time": 1581, "annotation": {"number": 64, "value": 127}, "group": "control_change"}, {"time": 1591, "annotation": {"number": 64, "value": 38}, "group": "control_change"}, {"time": 1592, "annotation": {"number": 64, "value": 0}, "group": "control_change"}, {"time": 1593, "annotation": {"number": 64, "value": 127}, "group": "control_change"}, {"time": 1603, "annotation": {"number": 64, "value": 0}, "group": "control_change"}, {"time": 1605, "annotation": {"number": 64, "value": 127}, "group": "control_change"}, {"time": 1652, "annotation": {"number": 64, "value": 38}, "group": "control_change"}, {"time": 1652, "annotation": {"number": 64, "value": 0}, "group": "control_change"}, {"time": 1653, "annotation": {"number": 64, "value": 127}, "group": "control_change"}, {"time": 1702, "annotation": {"number": 64, "value": 9}, "group": "control_change"}, {"time": 1705, "annotation": {"number": 64, "value": 127}, "group": "control_change"}, {"time": 1940, "annotation": {"number": 64, "value": 0}, "group": "control_change"}, {"time": 1941, "annotation": {"number": 64, "value": 38}, "group": "control_change"}, {"time": 1941, "annotation": {"number": 64, "value": 127}, "group": "control_change"}, {"time": 1964, "annotation": {"number": 64, "value": 74}, "group": "control_change"}, {"time": 1964, "annotation": {"number": 64, "value": 0}, "group": "control_change"}, {"time": 1965, "annotation": {"number": 64, "value": 127}, "group": "control_change"}, {"time": 1987, "annotation": {"number": 64, "value": 38}, "group": "control_change"}, {"time": 1987, "annotation": {"number": 64, "value": 0}, "group": "control_change"}, {"time": 1989, "annotation": {"number": 64, "value": 74}, "group": "control_change"}, {"time": 1990, "annotation": {"number": 64, "value": 127}, "group": "control_change"}, {"time": 2000, "annotation": {"number": 64, "value": 38}, "group": "control_change"}, {"time": 2000, "annotation": {"number": 64, "value": 0}, "group": "control_change"}, {"time": 2001, "annotation": {"number": 64, "value": 127}, "group": "control_change"}, {"time": 2037, "annotation": {"number": 64, "value": 38}, "group": "control_change"}, {"time": 2037, "annotation": {"number": 64, "value": 0}, "group": "control_change"}, {"time": 2038, "annotation": {"number": 64, "value": 127}, "group": "control_change"}, {"time": 2083, "annotation": {"number": 64, "value": 38}, "group": "control_change"}, {"time": 2083, "annotation": {"number": 64, "value": 0}, "group": "control_change"}, {"time": 2085, "annotation": {"number": 64, "value": 127}, "group": "control_change"}, {"time": 2180, "annotation": {"number": 64, "value": 74}, "group": "control_change"}, {"time": 2181, "annotation": {"number": 64, "value": 0}, "group": "control_change"}, {"time": 2182, "annotation": {"number": 64, "value": 127}, "group": "control_change"}, {"time": 2226, "annotation": {"number": 64, "value": 38}, "group": "control_change"}, {"time": 2226, "annotation": {"number": 64, "value": 0}, "group": "control_change"}, {"time": 2419, "annotation": {"number": 64, "value": 0}, "group": "control_change"}, {"time": 2421, "annotation": {"number": 64, "value": 74}, "group": "control_change"}, {"time": 2421, "annotation": {"number": 64, "value": 127}, "group": "control_change"}, {"time": 2468, "annotation": {"number": 64, "value": 74}, "group": "control_change"}, {"time": 2468, "annotation": {"number": 64, "value": 38}, "group": "control_change"}, {"time": 2468, "annotation": {"number": 64, "value": 0}, "group": "control_change"}, {"time": 2469, "annotation": {"number": 64, "value": 74}, "group": "control_change"}, {"time": 2469, "annotation": {"number": 64, "value": 127}, "group": "control_change"}, {"time": 2471, "annotation": {"number": 64, "value": 127}, "group": "control_change"}, {"time": 2495, "annotation": {"number": 64, "value": 38}, "group": "control_change"}, {"time": 2495, "annotation": {"number": 64, "value": 0}, "group": "control_change"}, {"time": 2611, "annotation": {"number": 64, "value": 0}, "group": "control_change"}, {"time": 2613, "annotation": {"number": 64, "value": 74}, "group": "control_change"}, {"time": 2613, "annotation": {"number": 64, "value": 127}, "group": "control_change"}, {"time": 2615, "annotation": {"number": 64, "value": 127}, "group": "control_change"}, {"time": 2708, "annotation": {"number": 64, "value": 38}, "group": "control_change"}, {"time": 2708, "annotation": {"number": 64, "value": 0}, "group": "control_change"}, {"time": 2709, "annotation": {"number": 64, "value": 38}, "group": "control_change"}, {"time": 2709, "annotation": {"number": 64, "value": 127}, "group": "control_change"}, {"time": 2803, "annotation": {"number": 64, "value": 38}, "group": "control_change"}, {"time": 2803, "annotation": {"number": 64, "value": 0}, "group": "control_change"}, {"time": 2806, "annotation": {"number": 64, "value": 127}, "group": "control_change"}, {"time": 2853, "annotation": {"number": 64, "value": 127}, "group": "control_change"}, {"time": 2877, "annotation": {"number": 64, "value": 38}, "group": "control_change"}, {"time": 2877, "annotation": {"number": 64, "value": 0}, "group": "control_change"}, {"time": 2878, "annotation": {"number": 64, "value": 127}, "group": "control_change"}, {"time": 2887, "annotation": {"number": 64, "value": 38}, "group": "control_change"}, {"time": 2887, "annotation": {"number": 64, "value": 0}, "group": "control_change"}, {"time": 2899, "annotation": {"number": 64, "value": 0}, "group": "control_change"}, {"time": 2901, "annotation": {"number": 64, "value": 74}, "group": "control_change"}, {"time": 2901, "annotation": {"number": 64, "value": 127}, "group": "control_change"}, {"time": 2947, "annotation": {"number": 64, "value": 74}, "group": "control_change"}, {"time": 2947, "annotation": {"number": 64, "value": 0}, "group": "control_change"}, {"time": 2949, "annotation": {"number": 64, "value": 127}, "group": "control_change"}, {"time": 3043, "annotation": {"number": 64, "value": 0}, "group": "control_change"}, {"time": 3046, "annotation": {"number": 64, "value": 127}, "group": "control_change"}, {"time": 3142, "annotation": {"number": 64, "value": 127}, "group": "control_change"}, {"time": 3156, "annotation": {"number": 64, "value": 74}, "group": "control_change"}, {"time": 3156, "annotation": {"number": 64, "value": 0}, "group": "control_change"}, {"time": 3188, "annotation": {"number": 64, "value": 74}, "group": "control_change"}, {"time": 3188, "annotation": {"number": 64, "value": 127}, "group": "control_change"}, {"time": 3235, "annotation": {"number": 64, "value": 38}, "group": "control_change"}, {"time": 3235, "annotation": {"number": 64, "value": 0}, "group": "control_change"}, {"time": 3237, "annotation": {"number": 64, "value": 127}, "group": "control_change"}, {"time": 3247, "annotation": {"number": 64, "value": 74}, "group": "control_change"}, {"time": 3247, "annotation": {"number": 64, "value": 127}, "group": "control_change"}, {"time": 3248, "annotation": {"number": 64, "value": 0}, "group": "control_change"}, {"time": 3249, "annotation": {"number": 64, "value": 74}, "group": "control_change"}, {"time": 3249, "annotation": {"number": 64, "value": 127}, "group": "control_change"}, {"time": 3284, "annotation": {"number": 64, "value": 38}, "group": "control_change"}, {"time": 3284, "annotation": {"number": 64, "value": 0}, "group": "control_change"}, {"time": 3285, "annotation": {"number": 64, "value": 127}, "group": "control_change"}, {"time": 3307, "annotation": {"number": 64, "value": 0}, "group": "control_change"}, {"time": 3309, "annotation": {"number": 64, "value": 127}, "group": "control_change"}, {"time": 3331, "annotation": {"number": 64, "value": 0}, "group": "control_change"}, {"time": 3333, "annotation": {"number": 64, "value": 127}, "group": "control_change"}, {"time": 3356, "annotation": {"number": 64, "value": 74}, "group": "control_change"}, {"time": 3356, "annotation": {"number": 64, "value": 0}, "group": "control_change"}, {"time": 3357, "annotation": {"number": 64, "value": 127}, "group": "control_change"}, {"time": 3367, "annotation": {"number": 64, "value": 38}, "group": "control_change"}, {"time": 3368, "annotation": {"number": 64, "value": 0}, "group": "control_change"}, {"time": 3369, "annotation": {"number": 64, "value": 127}, "group": "control_change"}, {"time": 3379, "annotation": {"number": 64, "value": 0}, "group": "control_change"}, {"time": 3381, "annotation": {"number": 64, "value": 127}, "group": "control_change"}, {"time": 3428, "annotation": {"number": 64, "value": 38}, "group": "control_change"}, {"time": 3428, "annotation": {"number": 64, "value": 0}, "group": "control_change"}, {"time": 3429, "annotation": {"number": 64, "value": 127}, "group": "control_change"}, {"time": 3478, "annotation": {"number": 64, "value": 9}, "group": "control_change"}, {"time": 3481, "annotation": {"number": 64, "value": 127}, "group": "control_change"}, {"time": 3716, "annotation": {"number": 64, "value": 0}, "group": "control_change"}, {"time": 3717, "annotation": {"number": 64, "value": 38}, "group": "control_change"}, {"time": 3717, "annotation": {"number": 64, "value": 127}, "group": "control_change"}, {"time": 3740, "annotation": {"number": 64, "value": 74}, "group": "control_change"}, {"time": 3740, "annotation": {"number": 64, "value": 0}, "group": "control_change"}, {"time": 3741, "annotation": {"number": 64, "value": 127}, "group": "control_change"}, {"time": 3763, "annotation": {"number": 64, "value": 38}, "group": "control_change"}, {"time": 3763, "annotation": {"number": 64, "value": 0}, "group": "control_change"}, {"time": 3765, "annotation": {"number": 64, "value": 74}, "group": "control_change"}, {"time": 3766, "annotation": {"number": 64, "value": 127}, "group": "control_change"}, {"time": 3776, "annotation": {"number": 64, "value": 38}, "group": "control_change"}, {"time": 3776, "annotation": {"number": 64, "value": 0}, "group": "control_change"}, {"time": 3777, "annotation": {"number": 64, "value": 127}, "group": "control_change"}, {"time": 3813, "annotation": {"number": 64, "value": 38}, "group": "control_change"}, {"time": 3813, "annotation": {"number": 64, "value": 0}, "group": "control_change"}]}]}