{"metadata": {"schema_version": "0.2", "title": "None", "source_filename": "292.mid", "source_format": "midi"}, "resolution": 12, "tempos": [{"time": 0, "qpm": 87.00002175000543}], "time_signatures": [{"time": 0, "numerator": 4, "denominator": 4}], "tracks": [{"program": 0, "is_drum": false, "name": "MELODY", "notes": [{"time": 431, "pitch": 77, "duration": 1, "velocity": 100}, {"time": 434, "pitch": 77, "duration": 1, "velocity": 96}, {"time": 437, "pitch": 77, "duration": 4, "velocity": 110}, {"time": 443, "pitch": 72, "duration": 3, "velocity": 107}, {"time": 449, "pitch": 77, "duration": 1, "velocity": 110}, {"time": 452, "pitch": 77, "duration": 1, "velocity": 96}, {"time": 455, "pitch": 72, "duration": 1, "velocity": 100}, {"time": 461, "pitch": 77, "duration": 1, "velocity": 108}, {"time": 464, "pitch": 77, "duration": 1, "velocity": 102}, {"time": 467, "pitch": 77, "duration": 1, "velocity": 100}, {"time": 470, "pitch": 77, "duration": 1, "velocity": 102}, {"time": 473, "pitch": 77, "duration": 3, "velocity": 114}, {"time": 479, "pitch": 72, "duration": 4, "velocity": 96}, {"time": 485, "pitch": 77, "duration": 3, "velocity": 108}, {"time": 491, "pitch": 77, "duration": 3, "velocity": 108}, {"time": 497, "pitch": 77, "duration": 5, "velocity": 110}, {"time": 503, "pitch": 72, "duration": 4, "velocity": 108}, {"time": 509, "pitch": 77, "duration": 1, "velocity": 108}, {"time": 512, "pitch": 77, "duration": 1, "velocity": 98}, {"time": 515, "pitch": 77, "duration": 1, "velocity": 98}, {"time": 518, "pitch": 76, "duration": 1, "velocity": 107}, {"time": 521, "pitch": 77, "duration": 3, "velocity": 108}, {"time": 527, "pitch": 72, "duration": 3, "velocity": 110}, {"time": 539, "pitch": 77, "duration": 1, "velocity": 110}, {"time": 542, "pitch": 77, "duration": 2, "velocity": 98}, {"time": 545, "pitch": 72, "duration": 3, "velocity": 108}, {"time": 551, "pitch": 77, "duration": 1, "velocity": 100}, {"time": 554, "pitch": 77, "duration": 2, "velocity": 94}, {"time": 557, "pitch": 76, "duration": 4, "velocity": 114}, {"time": 563, "pitch": 76, "duration": 4, "velocity": 114}, {"time": 569, "pitch": 77, "duration": 3, "velocity": 113}, {"time": 575, "pitch": 76, "duration": 4, "velocity": 116}, {"time": 581, "pitch": 77, "duration": 1, "velocity": 108}, {"time": 584, "pitch": 77, "duration": 2, "velocity": 100}, {"time": 587, "pitch": 72, "duration": 3, "velocity": 108}, {"time": 593, "pitch": 77, "duration": 1, "velocity": 108}, {"time": 596, "pitch": 77, "duration": 1, "velocity": 100}, {"time": 599, "pitch": 77, "duration": 1, "velocity": 98}, {"time": 602, "pitch": 77, "duration": 1, "velocity": 98}, {"time": 605, "pitch": 77, "duration": 4, "velocity": 110}, {"time": 611, "pitch": 72, "duration": 2, "velocity": 113}, {"time": 617, "pitch": 77, "duration": 5, "velocity": 108}, {"time": 623, "pitch": 72, "duration": 3, "velocity": 107}, {"time": 632, "pitch": 77, "duration": 1, "velocity": 91}, {"time": 635, "pitch": 77, "duration": 1, "velocity": 94}, {"time": 638, "pitch": 77, "duration": 1, "velocity": 90}, {"time": 641, "pitch": 77, "duration": 1, "velocity": 96}, {"time": 644, "pitch": 77, "duration": 1, "velocity": 91}, {"time": 647, "pitch": 77, "duration": 1, "velocity": 91}, {"time": 650, "pitch": 77, "duration": 1, "velocity": 96}, {"time": 653, "pitch": 77, "duration": 2, "velocity": 116}, {"time": 659, "pitch": 72, "duration": 4, "velocity": 104}, {"time": 665, "pitch": 77, "duration": 1, "velocity": 93}, {"time": 668, "pitch": 77, "duration": 1, "velocity": 93}, {"time": 671, "pitch": 77, "duration": 1, "velocity": 91}, {"time": 674, "pitch": 77, "duration": 3, "velocity": 91}, {"time": 677, "pitch": 77, "duration": 2, "velocity": 110}, {"time": 683, "pitch": 72, "duration": 4, "velocity": 107}, {"time": 689, "pitch": 77, "duration": 1, "velocity": 102}, {"time": 692, "pitch": 77, "duration": 1, "velocity": 93}, {"time": 695, "pitch": 77, "duration": 1, "velocity": 89}, {"time": 698, "pitch": 77, "duration": 2, "velocity": 92}, {"time": 701, "pitch": 77, "duration": 3, "velocity": 108}, {"time": 704, "pitch": 77, "duration": 3, "velocity": 94}, {"time": 707, "pitch": 72, "duration": 3, "velocity": 102}, {"time": 713, "pitch": 77, "duration": 5, "velocity": 104}, {"time": 719, "pitch": 72, "duration": 3, "velocity": 108}, {"time": 728, "pitch": 77, "duration": 1, "velocity": 100}, {"time": 731, "pitch": 77, "duration": 1, "velocity": 100}, {"time": 734, "pitch": 77, "duration": 1, "velocity": 98}, {"time": 737, "pitch": 77, "duration": 2, "velocity": 116}, {"time": 740, "pitch": 77, "duration": 1, "velocity": 100}, {"time": 743, "pitch": 77, "duration": 1, "velocity": 91}, {"time": 746, "pitch": 77, "duration": 1, "velocity": 93}, {"time": 749, "pitch": 77, "duration": 2, "velocity": 116}, {"time": 752, "pitch": 77, "duration": 1, "velocity": 88}, {"time": 755, "pitch": 77, "duration": 1, "velocity": 90}, {"time": 758, "pitch": 77, "duration": 1, "velocity": 88}, {"time": 761, "pitch": 77, "duration": 1, "velocity": 88}, {"time": 764, "pitch": 77, "duration": 1, "velocity": 88}, {"time": 767, "pitch": 77, "duration": 2, "velocity": 107}, {"time": 770, "pitch": 79, "duration": 2, "velocity": 108}, {"time": 773, "pitch": 79, "duration": 2, "velocity": 107}, {"time": 779, "pitch": 77, "duration": 3, "velocity": 107}, {"time": 815, "pitch": 72, "duration": 3, "velocity": 116}, {"time": 821, "pitch": 72, "duration": 3, "velocity": 110}, {"time": 827, "pitch": 77, "duration": 1, "velocity": 108}, {"time": 830, "pitch": 77, "duration": 1, "velocity": 98}, {"time": 833, "pitch": 77, "duration": 1, "velocity": 90}, {"time": 836, "pitch": 77, "duration": 1, "velocity": 90}, {"time": 839, "pitch": 72, "duration": 1, "velocity": 88}, {"time": 845, "pitch": 77, "duration": 1, "velocity": 113}, {"time": 848, "pitch": 77, "duration": 1, "velocity": 104}, {"time": 851, "pitch": 72, "duration": 1, "velocity": 104}, {"time": 854, "pitch": 72, "duration": 2, "velocity": 94}, {"time": 857, "pitch": 77, "duration": 3, "velocity": 117}, {"time": 863, "pitch": 72, "duration": 3, "velocity": 104}, {"time": 866, "pitch": 72, "duration": 3, "velocity": 107}, {"time": 869, "pitch": 72, "duration": 1, "velocity": 102}, {"time": 875, "pitch": 77, "duration": 1, "velocity": 107}, {"time": 878, "pitch": 77, "duration": 1, "velocity": 100}, {"time": 881, "pitch": 77, "duration": 1, "velocity": 96}, {"time": 884, "pitch": 77, "duration": 2, "velocity": 102}, {"time": 887, "pitch": 72, "duration": 2, "velocity": 113}, {"time": 893, "pitch": 77, "duration": 2, "velocity": 94}, {"time": 896, "pitch": 72, "duration": 1, "velocity": 94}, {"time": 899, "pitch": 72, "duration": 1, "velocity": 88}, {"time": 902, "pitch": 72, "duration": 2, "velocity": 88}, {"time": 905, "pitch": 77, "duration": 3, "velocity": 113}, {"time": 911, "pitch": 77, "duration": 1, "velocity": 104}, {"time": 914, "pitch": 77, "duration": 1, "velocity": 94}, {"time": 917, "pitch": 77, "duration": 3, "velocity": 113}, {"time": 923, "pitch": 77, "duration": 1, "velocity": 108}, {"time": 926, "pitch": 77, "duration": 1, "velocity": 100}, {"time": 929, "pitch": 77, "duration": 2, "velocity": 110}, {"time": 932, "pitch": 77, "duration": 1, "velocity": 91}, {"time": 935, "pitch": 77, "duration": 1, "velocity": 94}, {"time": 938, "pitch": 77, "duration": 1, "velocity": 98}, {"time": 941, "pitch": 77, "duration": 2, "velocity": 113}, {"time": 944, "pitch": 77, "duration": 2, "velocity": 113}, {"time": 947, "pitch": 77, "duration": 1, "velocity": 91}, {"time": 950, "pitch": 77, "duration": 1, "velocity": 90}, {"time": 953, "pitch": 77, "duration": 1, "velocity": 89}, {"time": 956, "pitch": 77, "duration": 1, "velocity": 87}, {"time": 959, "pitch": 77, "duration": 3, "velocity": 89}, {"time": 965, "pitch": 72, "duration": 3, "velocity": 94}, {"time": 971, "pitch": 77, "duration": 1, "velocity": 104}, {"time": 974, "pitch": 77, "duration": 1, "velocity": 100}, {"time": 977, "pitch": 77, "duration": 1, "velocity": 96}, {"time": 980, "pitch": 77, "duration": 1, "velocity": 90}, {"time": 983, "pitch": 77, "duration": 1, "velocity": 94}, {"time": 986, "pitch": 77, "duration": 1, "velocity": 93}, {"time": 989, "pitch": 77, "duration": 1, "velocity": 96}, {"time": 992, "pitch": 77, "duration": 1, "velocity": 90}, {"time": 995, "pitch": 72, "duration": 1, "velocity": 91}, {"time": 998, "pitch": 72, "duration": 2, "velocity": 89}, {"time": 1001, "pitch": 77, "duration": 1, "velocity": 90}, {"time": 1007, "pitch": 77, "duration": 2, "velocity": 110}, {"time": 1013, "pitch": 77, "duration": 2, "velocity": 110}, {"time": 1019, "pitch": 80, "duration": 1, "velocity": 103}, {"time": 1022, "pitch": 80, "duration": 1, "velocity": 97}, {"time": 1025, "pitch": 77, "duration": 2, "velocity": 91}, {"time": 1028, "pitch": 77, "duration": 2, "velocity": 91}, {"time": 1031, "pitch": 77, "duration": 1, "velocity": 109}, {"time": 1034, "pitch": 77, "duration": 2, "velocity": 90}, {"time": 1037, "pitch": 77, "duration": 2, "velocity": 108}, {"time": 1043, "pitch": 80, "duration": 3, "velocity": 109}, {"time": 1049, "pitch": 77, "duration": 2, "velocity": 98}, {"time": 1052, "pitch": 77, "duration": 1, "velocity": 89}, {"time": 1055, "pitch": 77, "duration": 2, "velocity": 90}, {"time": 1058, "pitch": 80, "duration": 3, "velocity": 116}, {"time": 1064, "pitch": 77, "duration": 2, "velocity": 108}, {"time": 1067, "pitch": 77, "duration": 1, "velocity": 91}, {"time": 1070, "pitch": 77, "duration": 1, "velocity": 91}, {"time": 1073, "pitch": 77, "duration": 2, "velocity": 114}, {"time": 1076, "pitch": 77, "duration": 2, "velocity": 96}, {"time": 1079, "pitch": 72, "duration": 2, "velocity": 104}, {"time": 1085, "pitch": 77, "duration": 2, "velocity": 92}, {"time": 1086, "pitch": 75, "duration": 3, "velocity": 87}, {"time": 1089, "pitch": 77, "duration": 2, "velocity": 74}, {"time": 1091, "pitch": 75, "duration": 2, "velocity": 100}, {"time": 1094, "pitch": 77, "duration": 2, "velocity": 78}, {"time": 1095, "pitch": 75, "duration": 2, "velocity": 97}, {"time": 1097, "pitch": 77, "duration": 4, "velocity": 113}, {"time": 1103, "pitch": 72, "duration": 4, "velocity": 113}, {"time": 1109, "pitch": 75, "duration": 4, "velocity": 116}, {"time": 1115, "pitch": 77, "duration": 1, "velocity": 108}, {"time": 1118, "pitch": 77, "duration": 1, "velocity": 91}, {"time": 1121, "pitch": 72, "duration": 1, "velocity": 91}, {"time": 1124, "pitch": 72, "duration": 2, "velocity": 88}, {"time": 1127, "pitch": 77, "duration": 2, "velocity": 100}, {"time": 1133, "pitch": 77, "duration": 1, "velocity": 113}, {"time": 1136, "pitch": 77, "duration": 1, "velocity": 102}, {"time": 1139, "pitch": 77, "duration": 1, "velocity": 104}, {"time": 1142, "pitch": 77, "duration": 2, "velocity": 100}, {"time": 1145, "pitch": 72, "duration": 1, "velocity": 102}, {"time": 1148, "pitch": 72, "duration": 2, "velocity": 104}, {"time": 1151, "pitch": 77, "duration": 3, "velocity": 119}, {"time": 1157, "pitch": 77, "duration": 1, "velocity": 113}, {"time": 1160, "pitch": 77, "duration": 1, "velocity": 113}, {"time": 1163, "pitch": 72, "duration": 1, "velocity": 98}, {"time": 1166, "pitch": 72, "duration": 1, "velocity": 98}, {"time": 1169, "pitch": 77, "duration": 2, "velocity": 114}, {"time": 1175, "pitch": 77, "duration": 2, "velocity": 119}, {"time": 1199, "pitch": 77, "duration": 4, "velocity": 110}, {"time": 1202, "pitch": 79, "duration": 2, "velocity": 108}, {"time": 1205, "pitch": 80, "duration": 3, "velocity": 116}, {"time": 1211, "pitch": 80, "duration": 3, "velocity": 116}, {"time": 1214, "pitch": 80, "duration": 3, "velocity": 113}, {"time": 1220, "pitch": 80, "duration": 3, "velocity": 119}, {"time": 1229, "pitch": 79, "duration": 3, "velocity": 114}, {"time": 1235, "pitch": 84, "duration": 1, "velocity": 108}, {"time": 1238, "pitch": 84, "duration": 2, "velocity": 116}, {"time": 1253, "pitch": 89, "duration": 3, "velocity": 116}, {"time": 1259, "pitch": 89, "duration": 1, "velocity": 113}, {"time": 1262, "pitch": 89, "duration": 4, "velocity": 114}, {"time": 1268, "pitch": 87, "duration": 4, "velocity": 116}, {"time": 1274, "pitch": 85, "duration": 2, "velocity": 109}, {"time": 1277, "pitch": 87, "duration": 3, "velocity": 119}, {"time": 1283, "pitch": 80, "duration": 1, "velocity": 116}, {"time": 1286, "pitch": 80, "duration": 3, "velocity": 119}, {"time": 1301, "pitch": 85, "duration": 3, "velocity": 116}, {"time": 1307, "pitch": 85, "duration": 1, "velocity": 106}, {"time": 1310, "pitch": 85, "duration": 3, "velocity": 109}, {"time": 1316, "pitch": 87, "duration": 4, "velocity": 119}, {"time": 1325, "pitch": 82, "duration": 5, "velocity": 119}, {"time": 1331, "pitch": 80, "duration": 1, "velocity": 103}, {"time": 1334, "pitch": 84, "duration": 4, "velocity": 108}, {"time": 1340, "pitch": 82, "duration": 5, "velocity": 109}, {"time": 1349, "pitch": 82, "duration": 5, "velocity": 119}, {"time": 1355, "pitch": 80, "duration": 2, "velocity": 95}, {"time": 1358, "pitch": 79, "duration": 5, "velocity": 102}, {"time": 1364, "pitch": 80, "duration": 6, "velocity": 109}, {"time": 1373, "pitch": 80, "duration": 5, "velocity": 114}, {"time": 1385, "pitch": 79, "duration": 4, "velocity": 116}, {"time": 1397, "pitch": 80, "duration": 3, "velocity": 116}, {"time": 1403, "pitch": 80, "duration": 3, "velocity": 116}, {"time": 1406, "pitch": 80, "duration": 3, "velocity": 113}, {"time": 1412, "pitch": 80, "duration": 3, "velocity": 119}, {"time": 1421, "pitch": 79, "duration": 3, "velocity": 114}, {"time": 1427, "pitch": 84, "duration": 1, "velocity": 108}, {"time": 1430, "pitch": 84, "duration": 2, "velocity": 116}, {"time": 1445, "pitch": 89, "duration": 3, "velocity": 116}, {"time": 1451, "pitch": 89, "duration": 1, "velocity": 113}, {"time": 1454, "pitch": 89, "duration": 4, "velocity": 114}, {"time": 1460, "pitch": 87, "duration": 4, "velocity": 116}, {"time": 1466, "pitch": 85, "duration": 2, "velocity": 109}, {"time": 1469, "pitch": 87, "duration": 3, "velocity": 119}, {"time": 1475, "pitch": 80, "duration": 1, "velocity": 116}, {"time": 1478, "pitch": 80, "duration": 3, "velocity": 119}, {"time": 1493, "pitch": 85, "duration": 3, "velocity": 116}, {"time": 1499, "pitch": 85, "duration": 1, "velocity": 106}, {"time": 1502, "pitch": 85, "duration": 3, "velocity": 109}, {"time": 1508, "pitch": 85, "duration": 4, "velocity": 119}, {"time": 1517, "pitch": 84, "duration": 5, "velocity": 119}, {"time": 1523, "pitch": 82, "duration": 2, "velocity": 97}, {"time": 1526, "pitch": 80, "duration": 3, "velocity": 113}, {"time": 1529, "pitch": 79, "duration": 3, "velocity": 97}, {"time": 1532, "pitch": 80, "duration": 4, "velocity": 119}, {"time": 1541, "pitch": 77, "duration": 7, "velocity": 116}, {"time": 1565, "pitch": 77, "duration": 4, "velocity": 110}, {"time": 1577, "pitch": 79, "duration": 2, "velocity": 108}, {"time": 1589, "pitch": 80, "duration": 5, "velocity": 116}, {"time": 1595, "pitch": 80, "duration": 4, "velocity": 116}, {"time": 1598, "pitch": 80, "duration": 1, "velocity": 113}, {"time": 1604, "pitch": 80, "duration": 4, "velocity": 119}, {"time": 1613, "pitch": 79, "duration": 4, "velocity": 114}, {"time": 1619, "pitch": 84, "duration": 2, "velocity": 108}, {"time": 1622, "pitch": 84, "duration": 3, "velocity": 116}, {"time": 1637, "pitch": 89, "duration": 5, "velocity": 116}, {"time": 1643, "pitch": 89, "duration": 3, "velocity": 113}, {"time": 1646, "pitch": 89, "duration": 6, "velocity": 114}, {"time": 1652, "pitch": 87, "duration": 5, "velocity": 116}, {"time": 1658, "pitch": 85, "duration": 3, "velocity": 109}, {"time": 1661, "pitch": 87, "duration": 4, "velocity": 119}, {"time": 1667, "pitch": 80, "duration": 3, "velocity": 116}, {"time": 1670, "pitch": 80, "duration": 4, "velocity": 119}, {"time": 1685, "pitch": 85, "duration": 5, "velocity": 116}, {"time": 1691, "pitch": 85, "duration": 2, "velocity": 106}, {"time": 1694, "pitch": 85, "duration": 4, "velocity": 109}, {"time": 1700, "pitch": 87, "duration": 6, "velocity": 119}, {"time": 1709, "pitch": 82, "duration": 6, "velocity": 119}, {"time": 1715, "pitch": 80, "duration": 3, "velocity": 103}, {"time": 1718, "pitch": 84, "duration": 5, "velocity": 108}, {"time": 1724, "pitch": 82, "duration": 6, "velocity": 109}, {"time": 1733, "pitch": 82, "duration": 7, "velocity": 119}, {"time": 1739, "pitch": 80, "duration": 3, "velocity": 95}, {"time": 1742, "pitch": 79, "duration": 6, "velocity": 102}, {"time": 1748, "pitch": 80, "duration": 7, "velocity": 109}, {"time": 1757, "pitch": 80, "duration": 7, "velocity": 114}, {"time": 1769, "pitch": 79, "duration": 5, "velocity": 116}, {"time": 1781, "pitch": 80, "duration": 5, "velocity": 116}, {"time": 1787, "pitch": 80, "duration": 4, "velocity": 116}, {"time": 1790, "pitch": 80, "duration": 1, "velocity": 113}, {"time": 1796, "pitch": 80, "duration": 4, "velocity": 119}, {"time": 1805, "pitch": 79, "duration": 4, "velocity": 114}, {"time": 1811, "pitch": 84, "duration": 2, "velocity": 108}, {"time": 1814, "pitch": 84, "duration": 3, "velocity": 116}, {"time": 1829, "pitch": 89, "duration": 5, "velocity": 116}, {"time": 1835, "pitch": 89, "duration": 3, "velocity": 113}, {"time": 1838, "pitch": 89, "duration": 6, "velocity": 114}, {"time": 1844, "pitch": 87, "duration": 5, "velocity": 116}, {"time": 1850, "pitch": 85, "duration": 3, "velocity": 109}, {"time": 1853, "pitch": 87, "duration": 4, "velocity": 119}, {"time": 1859, "pitch": 80, "duration": 3, "velocity": 116}, {"time": 1862, "pitch": 80, "duration": 4, "velocity": 119}, {"time": 1877, "pitch": 85, "duration": 5, "velocity": 116}, {"time": 1883, "pitch": 85, "duration": 2, "velocity": 106}, {"time": 1886, "pitch": 85, "duration": 4, "velocity": 109}, {"time": 1892, "pitch": 85, "duration": 6, "velocity": 119}, {"time": 1901, "pitch": 84, "duration": 6, "velocity": 119}, {"time": 1907, "pitch": 82, "duration": 4, "velocity": 97}, {"time": 1910, "pitch": 80, "duration": 4, "velocity": 113}, {"time": 1913, "pitch": 79, "duration": 3, "velocity": 97}, {"time": 1916, "pitch": 80, "duration": 7, "velocity": 119}, {"time": 1925, "pitch": 77, "duration": 8, "velocity": 116}, {"time": 2351, "pitch": 77, "duration": 3, "velocity": 110}, {"time": 2354, "pitch": 75, "duration": 2, "velocity": 97}, {"time": 2357, "pitch": 77, "duration": 4, "velocity": 107}, {"time": 2363, "pitch": 77, "duration": 3, "velocity": 113}, {"time": 2369, "pitch": 77, "duration": 1, "velocity": 108}, {"time": 2372, "pitch": 77, "duration": 2, "velocity": 102}, {"time": 2375, "pitch": 75, "duration": 3, "velocity": 113}, {"time": 2381, "pitch": 75, "duration": 1, "velocity": 107}, {"time": 2384, "pitch": 75, "duration": 3, "velocity": 89}, {"time": 2387, "pitch": 77, "duration": 3, "velocity": 84}, {"time": 2390, "pitch": 75, "duration": 3, "velocity": 86}, {"time": 2393, "pitch": 77, "duration": 3, "velocity": 94}, {"time": 2399, "pitch": 75, "duration": 3, "velocity": 93}, {"time": 2405, "pitch": 77, "duration": 2, "velocity": 108}, {"time": 2411, "pitch": 75, "duration": 1, "velocity": 102}, {"time": 2414, "pitch": 77, "duration": 2, "velocity": 93}, {"time": 2417, "pitch": 75, "duration": 3, "velocity": 116}, {"time": 2423, "pitch": 77, "duration": 2, "velocity": 110}, {"time": 2429, "pitch": 77, "duration": 1, "velocity": 110}, {"time": 2432, "pitch": 75, "duration": 1, "velocity": 90}, {"time": 2435, "pitch": 77, "duration": 2, "velocity": 113}, {"time": 2438, "pitch": 75, "duration": 3, "velocity": 87}, {"time": 2441, "pitch": 77, "duration": 4, "velocity": 107}, {"time": 2447, "pitch": 75, "duration": 4, "velocity": 116}, {"time": 2459, "pitch": 77, "duration": 1, "velocity": 98}, {"time": 2462, "pitch": 77, "duration": 2, "velocity": 90}, {"time": 2465, "pitch": 72, "duration": 3, "velocity": 104}, {"time": 2471, "pitch": 77, "duration": 1, "velocity": 102}, {"time": 2474, "pitch": 77, "duration": 1, "velocity": 94}, {"time": 2477, "pitch": 77, "duration": 3, "velocity": 110}, {"time": 2483, "pitch": 72, "duration": 3, "velocity": 114}, {"time": 2489, "pitch": 77, "duration": 5, "velocity": 113}, {"time": 2495, "pitch": 72, "duration": 3, "velocity": 108}, {"time": 2501, "pitch": 77, "duration": 1, "velocity": 110}, {"time": 2504, "pitch": 77, "duration": 2, "velocity": 96}, {"time": 2507, "pitch": 72, "duration": 3, "velocity": 108}, {"time": 2513, "pitch": 77, "duration": 1, "velocity": 108}, {"time": 2516, "pitch": 77, "duration": 1, "velocity": 94}, {"time": 2519, "pitch": 77, "duration": 1, "velocity": 93}, {"time": 2522, "pitch": 77, "duration": 1, "velocity": 108}, {"time": 2525, "pitch": 77, "duration": 1, "velocity": 110}, {"time": 2531, "pitch": 72, "duration": 4, "velocity": 104}, {"time": 2537, "pitch": 77, "duration": 5, "velocity": 113}, {"time": 2543, "pitch": 72, "duration": 4, "velocity": 104}, {"time": 2552, "pitch": 77, "duration": 1, "velocity": 94}, {"time": 2555, "pitch": 77, "duration": 1, "velocity": 94}, {"time": 2558, "pitch": 77, "duration": 1, "velocity": 91}, {"time": 2561, "pitch": 77, "duration": 1, "velocity": 98}, {"time": 2564, "pitch": 77, "duration": 1, "velocity": 96}, {"time": 2567, "pitch": 77, "duration": 1, "velocity": 90}, {"time": 2570, "pitch": 77, "duration": 1, "velocity": 91}, {"time": 2573, "pitch": 77, "duration": 1, "velocity": 94}, {"time": 2579, "pitch": 72, "duration": 1, "velocity": 89}, {"time": 2585, "pitch": 77, "duration": 1, "velocity": 110}, {"time": 2588, "pitch": 77, "duration": 1, "velocity": 92}, {"time": 2591, "pitch": 77, "duration": 1, "velocity": 93}, {"time": 2594, "pitch": 77, "duration": 1, "velocity": 96}, {"time": 2597, "pitch": 77, "duration": 3, "velocity": 116}, {"time": 2603, "pitch": 72, "duration": 4, "velocity": 113}, {"time": 2609, "pitch": 77, "duration": 1, "velocity": 107}, {"time": 2612, "pitch": 77, "duration": 1, "velocity": 100}, {"time": 2615, "pitch": 77, "duration": 1, "velocity": 94}, {"time": 2618, "pitch": 77, "duration": 1, "velocity": 91}, {"time": 2621, "pitch": 77, "duration": 2, "velocity": 113}, {"time": 2624, "pitch": 77, "duration": 1, "velocity": 91}, {"time": 2627, "pitch": 72, "duration": 3, "velocity": 110}, {"time": 2633, "pitch": 77, "duration": 5, "velocity": 100}, {"time": 2639, "pitch": 72, "duration": 4, "velocity": 113}, {"time": 2648, "pitch": 77, "duration": 1, "velocity": 102}, {"time": 2651, "pitch": 77, "duration": 1, "velocity": 93}, {"time": 2654, "pitch": 77, "duration": 1, "velocity": 94}, {"time": 2657, "pitch": 77, "duration": 3, "velocity": 116}, {"time": 2660, "pitch": 77, "duration": 1, "velocity": 90}, {"time": 2663, "pitch": 77, "duration": 1, "velocity": 92}, {"time": 2666, "pitch": 77, "duration": 1, "velocity": 92}, {"time": 2669, "pitch": 77, "duration": 3, "velocity": 116}, {"time": 2672, "pitch": 77, "duration": 1, "velocity": 91}, {"time": 2675, "pitch": 77, "duration": 1, "velocity": 93}, {"time": 2678, "pitch": 77, "duration": 2, "velocity": 93}, {"time": 2681, "pitch": 77, "duration": 2, "velocity": 110}, {"time": 2684, "pitch": 77, "duration": 1, "velocity": 90}, {"time": 2687, "pitch": 77, "duration": 1, "velocity": 96}, {"time": 2690, "pitch": 79, "duration": 1, "velocity": 113}, {"time": 2693, "pitch": 79, "duration": 4, "velocity": 108}, {"time": 2699, "pitch": 77, "duration": 4, "velocity": 114}, {"time": 2735, "pitch": 77, "duration": 4, "velocity": 110}, {"time": 2738, "pitch": 79, "duration": 2, "velocity": 108}, {"time": 2741, "pitch": 80, "duration": 3, "velocity": 116}, {"time": 2747, "pitch": 80, "duration": 3, "velocity": 116}, {"time": 2750, "pitch": 80, "duration": 3, "velocity": 113}, {"time": 2756, "pitch": 80, "duration": 3, "velocity": 119}, {"time": 2765, "pitch": 79, "duration": 3, "velocity": 114}, {"time": 2771, "pitch": 84, "duration": 1, "velocity": 108}, {"time": 2774, "pitch": 84, "duration": 2, "velocity": 116}, {"time": 2789, "pitch": 89, "duration": 3, "velocity": 116}, {"time": 2795, "pitch": 89, "duration": 1, "velocity": 113}, {"time": 2798, "pitch": 89, "duration": 4, "velocity": 114}, {"time": 2804, "pitch": 87, "duration": 4, "velocity": 116}, {"time": 2810, "pitch": 85, "duration": 2, "velocity": 109}, {"time": 2813, "pitch": 87, "duration": 3, "velocity": 119}, {"time": 2819, "pitch": 80, "duration": 1, "velocity": 116}, {"time": 2822, "pitch": 80, "duration": 3, "velocity": 119}, {"time": 2837, "pitch": 85, "duration": 3, "velocity": 116}, {"time": 2843, "pitch": 85, "duration": 1, "velocity": 106}, {"time": 2846, "pitch": 85, "duration": 3, "velocity": 109}, {"time": 2852, "pitch": 87, "duration": 4, "velocity": 119}, {"time": 2861, "pitch": 82, "duration": 5, "velocity": 119}, {"time": 2867, "pitch": 80, "duration": 1, "velocity": 103}, {"time": 2870, "pitch": 84, "duration": 4, "velocity": 108}, {"time": 2876, "pitch": 82, "duration": 5, "velocity": 109}, {"time": 2885, "pitch": 82, "duration": 5, "velocity": 119}, {"time": 2891, "pitch": 80, "duration": 2, "velocity": 95}, {"time": 2894, "pitch": 79, "duration": 5, "velocity": 102}, {"time": 2900, "pitch": 80, "duration": 6, "velocity": 109}, {"time": 2909, "pitch": 80, "duration": 5, "velocity": 114}, {"time": 2921, "pitch": 79, "duration": 4, "velocity": 116}, {"time": 2933, "pitch": 80, "duration": 3, "velocity": 116}, {"time": 2939, "pitch": 80, "duration": 3, "velocity": 116}, {"time": 2942, "pitch": 80, "duration": 3, "velocity": 113}, {"time": 2948, "pitch": 80, "duration": 3, "velocity": 119}, {"time": 2957, "pitch": 79, "duration": 3, "velocity": 114}, {"time": 2963, "pitch": 84, "duration": 1, "velocity": 108}, {"time": 2966, "pitch": 84, "duration": 2, "velocity": 116}, {"time": 2981, "pitch": 89, "duration": 3, "velocity": 116}, {"time": 2987, "pitch": 89, "duration": 1, "velocity": 113}, {"time": 2990, "pitch": 89, "duration": 4, "velocity": 114}, {"time": 2996, "pitch": 87, "duration": 4, "velocity": 116}, {"time": 3002, "pitch": 85, "duration": 2, "velocity": 109}, {"time": 3005, "pitch": 87, "duration": 3, "velocity": 119}, {"time": 3011, "pitch": 80, "duration": 1, "velocity": 116}, {"time": 3014, "pitch": 80, "duration": 3, "velocity": 119}, {"time": 3029, "pitch": 85, "duration": 3, "velocity": 116}, {"time": 3035, "pitch": 85, "duration": 1, "velocity": 106}, {"time": 3038, "pitch": 85, "duration": 3, "velocity": 109}, {"time": 3044, "pitch": 85, "duration": 4, "velocity": 119}, {"time": 3053, "pitch": 82, "duration": 5, "velocity": 119}, {"time": 3059, "pitch": 80, "duration": 2, "velocity": 97}, {"time": 3062, "pitch": 79, "duration": 5, "velocity": 113}, {"time": 3068, "pitch": 80, "duration": 6, "velocity": 119}, {"time": 3077, "pitch": 77, "duration": 7, "velocity": 116}, {"time": 3101, "pitch": 77, "duration": 4, "velocity": 110}, {"time": 3113, "pitch": 79, "duration": 2, "velocity": 108}, {"time": 3125, "pitch": 80, "duration": 5, "velocity": 116}, {"time": 3131, "pitch": 80, "duration": 4, "velocity": 116}, {"time": 3134, "pitch": 80, "duration": 1, "velocity": 113}, {"time": 3140, "pitch": 80, "duration": 4, "velocity": 119}, {"time": 3149, "pitch": 79, "duration": 4, "velocity": 114}, {"time": 3155, "pitch": 84, "duration": 2, "velocity": 108}, {"time": 3158, "pitch": 84, "duration": 3, "velocity": 116}, {"time": 3173, "pitch": 89, "duration": 5, "velocity": 116}, {"time": 3179, "pitch": 89, "duration": 3, "velocity": 113}, {"time": 3182, "pitch": 89, "duration": 6, "velocity": 114}, {"time": 3188, "pitch": 87, "duration": 5, "velocity": 116}, {"time": 3194, "pitch": 85, "duration": 3, "velocity": 109}, {"time": 3197, "pitch": 87, "duration": 4, "velocity": 119}, {"time": 3203, "pitch": 80, "duration": 3, "velocity": 116}, {"time": 3206, "pitch": 80, "duration": 4, "velocity": 119}, {"time": 3221, "pitch": 85, "duration": 5, "velocity": 116}, {"time": 3227, "pitch": 85, "duration": 2, "velocity": 106}, {"time": 3230, "pitch": 85, "duration": 4, "velocity": 109}, {"time": 3236, "pitch": 87, "duration": 6, "velocity": 119}, {"time": 3245, "pitch": 82, "duration": 6, "velocity": 119}, {"time": 3251, "pitch": 80, "duration": 3, "velocity": 103}, {"time": 3254, "pitch": 84, "duration": 5, "velocity": 108}, {"time": 3260, "pitch": 82, "duration": 6, "velocity": 109}, {"time": 3269, "pitch": 82, "duration": 7, "velocity": 119}, {"time": 3275, "pitch": 80, "duration": 3, "velocity": 95}, {"time": 3278, "pitch": 79, "duration": 6, "velocity": 102}, {"time": 3284, "pitch": 80, "duration": 7, "velocity": 109}, {"time": 3293, "pitch": 80, "duration": 7, "velocity": 114}, {"time": 3305, "pitch": 79, "duration": 5, "velocity": 116}, {"time": 3317, "pitch": 80, "duration": 5, "velocity": 116}, {"time": 3323, "pitch": 80, "duration": 4, "velocity": 116}, {"time": 3326, "pitch": 80, "duration": 1, "velocity": 113}, {"time": 3332, "pitch": 80, "duration": 4, "velocity": 119}, {"time": 3341, "pitch": 79, "duration": 4, "velocity": 114}, {"time": 3347, "pitch": 84, "duration": 2, "velocity": 108}, {"time": 3350, "pitch": 84, "duration": 3, "velocity": 116}, {"time": 3365, "pitch": 89, "duration": 5, "velocity": 116}, {"time": 3371, "pitch": 89, "duration": 3, "velocity": 113}, {"time": 3374, "pitch": 89, "duration": 6, "velocity": 114}, {"time": 3380, "pitch": 87, "duration": 5, "velocity": 116}, {"time": 3386, "pitch": 85, "duration": 3, "velocity": 109}, {"time": 3389, "pitch": 87, "duration": 4, "velocity": 119}, {"time": 3395, "pitch": 80, "duration": 3, "velocity": 116}, {"time": 3398, "pitch": 80, "duration": 4, "velocity": 119}, {"time": 3413, "pitch": 85, "duration": 5, "velocity": 116}, {"time": 3419, "pitch": 85, "duration": 2, "velocity": 106}, {"time": 3422, "pitch": 85, "duration": 4, "velocity": 109}, {"time": 3428, "pitch": 85, "duration": 6, "velocity": 119}, {"time": 3437, "pitch": 82, "duration": 6, "velocity": 119}, {"time": 3443, "pitch": 80, "duration": 4, "velocity": 97}, {"time": 3446, "pitch": 79, "duration": 6, "velocity": 113}, {"time": 3452, "pitch": 80, "duration": 7, "velocity": 119}, {"time": 3461, "pitch": 77, "duration": 8, "velocity": 116}, {"time": 3503, "pitch": 77, "duration": 1, "velocity": 100}, {"time": 3506, "pitch": 77, "duration": 1, "velocity": 96}, {"time": 3509, "pitch": 77, "duration": 4, "velocity": 110}, {"time": 3515, "pitch": 72, "duration": 3, "velocity": 107}, {"time": 3521, "pitch": 77, "duration": 1, "velocity": 110}, {"time": 3524, "pitch": 77, "duration": 1, "velocity": 96}, {"time": 3527, "pitch": 72, "duration": 1, "velocity": 100}, {"time": 3533, "pitch": 77, "duration": 1, "velocity": 108}, {"time": 3536, "pitch": 77, "duration": 1, "velocity": 102}, {"time": 3539, "pitch": 77, "duration": 1, "velocity": 100}, {"time": 3542, "pitch": 77, "duration": 1, "velocity": 102}, {"time": 3545, "pitch": 77, "duration": 3, "velocity": 114}, {"time": 3551, "pitch": 72, "duration": 4, "velocity": 96}, {"time": 3557, "pitch": 77, "duration": 3, "velocity": 108}, {"time": 3563, "pitch": 77, "duration": 3, "velocity": 108}, {"time": 3569, "pitch": 77, "duration": 5, "velocity": 110}, {"time": 3575, "pitch": 72, "duration": 4, "velocity": 108}, {"time": 3581, "pitch": 77, "duration": 1, "velocity": 108}, {"time": 3584, "pitch": 77, "duration": 1, "velocity": 98}, {"time": 3587, "pitch": 77, "duration": 1, "velocity": 98}, {"time": 3590, "pitch": 76, "duration": 1, "velocity": 107}, {"time": 3593, "pitch": 77, "duration": 3, "velocity": 108}, {"time": 3599, "pitch": 72, "duration": 3, "velocity": 110}, {"time": 3611, "pitch": 77, "duration": 1, "velocity": 110}, {"time": 3614, "pitch": 77, "duration": 2, "velocity": 98}, {"time": 3617, "pitch": 72, "duration": 3, "velocity": 108}, {"time": 3623, "pitch": 77, "duration": 1, "velocity": 100}, {"time": 3626, "pitch": 77, "duration": 2, "velocity": 94}, {"time": 3629, "pitch": 76, "duration": 4, "velocity": 114}, {"time": 3635, "pitch": 76, "duration": 4, "velocity": 114}, {"time": 3641, "pitch": 77, "duration": 3, "velocity": 113}, {"time": 3647, "pitch": 76, "duration": 4, "velocity": 116}, {"time": 3653, "pitch": 77, "duration": 1, "velocity": 108}, {"time": 3656, "pitch": 77, "duration": 2, "velocity": 100}, {"time": 3659, "pitch": 72, "duration": 3, "velocity": 108}, {"time": 3665, "pitch": 77, "duration": 1, "velocity": 108}, {"time": 3668, "pitch": 77, "duration": 1, "velocity": 100}, {"time": 3671, "pitch": 77, "duration": 1, "velocity": 98}, {"time": 3674, "pitch": 77, "duration": 1, "velocity": 98}, {"time": 3677, "pitch": 77, "duration": 4, "velocity": 110}, {"time": 3683, "pitch": 72, "duration": 2, "velocity": 113}, {"time": 3689, "pitch": 77, "duration": 5, "velocity": 108}, {"time": 3695, "pitch": 72, "duration": 3, "velocity": 107}, {"time": 3704, "pitch": 77, "duration": 1, "velocity": 91}, {"time": 3707, "pitch": 77, "duration": 1, "velocity": 94}, {"time": 3710, "pitch": 77, "duration": 1, "velocity": 90}, {"time": 3713, "pitch": 77, "duration": 1, "velocity": 96}, {"time": 3716, "pitch": 77, "duration": 1, "velocity": 91}, {"time": 3719, "pitch": 77, "duration": 1, "velocity": 91}, {"time": 3722, "pitch": 77, "duration": 1, "velocity": 96}, {"time": 3725, "pitch": 77, "duration": 2, "velocity": 116}, {"time": 3731, "pitch": 72, "duration": 4, "velocity": 104}, {"time": 3737, "pitch": 77, "duration": 1, "velocity": 93}, {"time": 3740, "pitch": 77, "duration": 1, "velocity": 93}, {"time": 3743, "pitch": 77, "duration": 1, "velocity": 91}, {"time": 3746, "pitch": 77, "duration": 3, "velocity": 91}, {"time": 3749, "pitch": 77, "duration": 2, "velocity": 110}, {"time": 3755, "pitch": 72, "duration": 4, "velocity": 107}, {"time": 3761, "pitch": 77, "duration": 1, "velocity": 102}, {"time": 3764, "pitch": 77, "duration": 1, "velocity": 93}, {"time": 3767, "pitch": 77, "duration": 1, "velocity": 89}, {"time": 3770, "pitch": 77, "duration": 2, "velocity": 92}, {"time": 3773, "pitch": 77, "duration": 3, "velocity": 108}, {"time": 3776, "pitch": 77, "duration": 3, "velocity": 94}, {"time": 3779, "pitch": 72, "duration": 3, "velocity": 102}, {"time": 3785, "pitch": 77, "duration": 5, "velocity": 104}, {"time": 3791, "pitch": 72, "duration": 3, "velocity": 108}, {"time": 3800, "pitch": 77, "duration": 1, "velocity": 100}, {"time": 3803, "pitch": 77, "duration": 1, "velocity": 100}, {"time": 3806, "pitch": 77, "duration": 1, "velocity": 98}, {"time": 3809, "pitch": 77, "duration": 2, "velocity": 116}, {"time": 3812, "pitch": 77, "duration": 1, "velocity": 100}, {"time": 3815, "pitch": 77, "duration": 1, "velocity": 91}, {"time": 3818, "pitch": 77, "duration": 1, "velocity": 93}, {"time": 3821, "pitch": 77, "duration": 2, "velocity": 116}, {"time": 3824, "pitch": 77, "duration": 1, "velocity": 88}, {"time": 3827, "pitch": 77, "duration": 1, "velocity": 90}, {"time": 3830, "pitch": 77, "duration": 1, "velocity": 88}, {"time": 3833, "pitch": 77, "duration": 1, "velocity": 88}, {"time": 3836, "pitch": 77, "duration": 1, "velocity": 88}, {"time": 3839, "pitch": 77, "duration": 2, "velocity": 107}, {"time": 3842, "pitch": 79, "duration": 2, "velocity": 108}, {"time": 3845, "pitch": 79, "duration": 2, "velocity": 107}, {"time": 3851, "pitch": 77, "duration": 3, "velocity": 107}]}, {"program": 0, "is_drum": false, "name": "BRIDGE", "notes": [{"time": 47, "pitch": 77, "duration": 3, "velocity": 110}, {"time": 50, "pitch": 79, "duration": 2, "velocity": 108}, {"time": 53, "pitch": 80, "duration": 5, "velocity": 116}, {"time": 59, "pitch": 80, "duration": 2, "velocity": 116}, {"time": 62, "pitch": 80, "duration": 5, "velocity": 113}, {"time": 68, "pitch": 80, "duration": 8, "velocity": 119}, {"time": 77, "pitch": 79, "duration": 5, "velocity": 114}, {"time": 83, "pitch": 84, "duration": 2, "velocity": 108}, {"time": 86, "pitch": 84, "duration": 14, "velocity": 116}, {"time": 101, "pitch": 89, "duration": 5, "velocity": 116}, {"time": 107, "pitch": 89, "duration": 2, "velocity": 113}, {"time": 110, "pitch": 89, "duration": 5, "velocity": 114}, {"time": 116, "pitch": 87, "duration": 5, "velocity": 116}, {"time": 122, "pitch": 85, "duration": 2, "velocity": 109}, {"time": 125, "pitch": 87, "duration": 5, "velocity": 119}, {"time": 131, "pitch": 80, "duration": 2, "velocity": 116}, {"time": 134, "pitch": 80, "duration": 14, "velocity": 119}, {"time": 149, "pitch": 85, "duration": 5, "velocity": 116}, {"time": 155, "pitch": 85, "duration": 2, "velocity": 106}, {"time": 158, "pitch": 85, "duration": 11, "velocity": 109}, {"time": 170, "pitch": 85, "duration": 2, "velocity": 104}, {"time": 173, "pitch": 84, "duration": 11, "velocity": 108}, {"time": 185, "pitch": 84, "duration": 5, "velocity": 108}, {"time": 191, "pitch": 82, "duration": 5, "velocity": 102}, {"time": 197, "pitch": 82, "duration": 5, "velocity": 110}, {"time": 203, "pitch": 80, "duration": 2, "velocity": 97}, {"time": 206, "pitch": 79, "duration": 5, "velocity": 108}, {"time": 212, "pitch": 80, "duration": 8, "velocity": 116}, {"time": 221, "pitch": 80, "duration": 11, "velocity": 116}, {"time": 233, "pitch": 79, "duration": 5, "velocity": 110}, {"time": 239, "pitch": 77, "duration": 2, "velocity": 98}, {"time": 242, "pitch": 79, "duration": 2, "velocity": 94}, {"time": 245, "pitch": 80, "duration": 5, "velocity": 116}, {"time": 251, "pitch": 80, "duration": 2, "velocity": 116}, {"time": 254, "pitch": 80, "duration": 5, "velocity": 113}, {"time": 260, "pitch": 80, "duration": 8, "velocity": 119}, {"time": 269, "pitch": 79, "duration": 5, "velocity": 114}, {"time": 275, "pitch": 84, "duration": 2, "velocity": 108}, {"time": 278, "pitch": 84, "duration": 14, "velocity": 116}, {"time": 293, "pitch": 89, "duration": 5, "velocity": 116}, {"time": 299, "pitch": 89, "duration": 2, "velocity": 113}, {"time": 302, "pitch": 89, "duration": 5, "velocity": 114}, {"time": 308, "pitch": 87, "duration": 5, "velocity": 116}, {"time": 314, "pitch": 85, "duration": 2, "velocity": 109}, {"time": 317, "pitch": 87, "duration": 5, "velocity": 119}, {"time": 323, "pitch": 80, "duration": 2, "velocity": 116}, {"time": 326, "pitch": 80, "duration": 14, "velocity": 119}, {"time": 341, "pitch": 85, "duration": 5, "velocity": 116}, {"time": 347, "pitch": 85, "duration": 2, "velocity": 106}, {"time": 350, "pitch": 85, "duration": 5, "velocity": 109}, {"time": 356, "pitch": 85, "duration": 5, "velocity": 119}, {"time": 362, "pitch": 85, "duration": 2, "velocity": 100}, {"time": 365, "pitch": 84, "duration": 5, "velocity": 102}, {"time": 371, "pitch": 82, "duration": 5, "velocity": 104}, {"time": 377, "pitch": 80, "duration": 5, "velocity": 96}, {"time": 383, "pitch": 79, "duration": 5, "velocity": 96}, {"time": 389, "pitch": 79, "duration": 5, "velocity": 102}, {"time": 395, "pitch": 80, "duration": 2, "velocity": 102}, {"time": 398, "pitch": 77, "duration": 38, "velocity": 107}, {"time": 1001, "pitch": 72, "duration": 3, "velocity": 110}, {"time": 1004, "pitch": 70, "duration": 2, "velocity": 89}, {"time": 1007, "pitch": 68, "duration": 3, "velocity": 100}, {"time": 1010, "pitch": 70, "duration": 3, "velocity": 91}, {"time": 1013, "pitch": 72, "duration": 4, "velocity": 107}, {"time": 1055, "pitch": 70, "duration": 4, "velocity": 102}, {"time": 1061, "pitch": 68, "duration": 3, "velocity": 96}, {"time": 1109, "pitch": 72, "duration": 5, "velocity": 84}, {"time": 1115, "pitch": 68, "duration": 4, "velocity": 86}, {"time": 1118, "pitch": 70, "duration": 5, "velocity": 98}, {"time": 1133, "pitch": 67, "duration": 9, "velocity": 108}, {"time": 1157, "pitch": 67, "duration": 5, "velocity": 113}, {"time": 1163, "pitch": 68, "duration": 3, "velocity": 96}, {"time": 1166, "pitch": 65, "duration": 6, "velocity": 100}, {"time": 1187, "pitch": 60, "duration": 3, "velocity": 116}, {"time": 1193, "pitch": 65, "duration": 3, "velocity": 119}, {"time": 1199, "pitch": 67, "duration": 3, "velocity": 117}, {"time": 1205, "pitch": 68, "duration": 4, "velocity": 119}, {"time": 1214, "pitch": 68, "duration": 5, "velocity": 107}, {"time": 1223, "pitch": 65, "duration": 3, "velocity": 110}, {"time": 1229, "pitch": 67, "duration": 4, "velocity": 117}, {"time": 1349, "pitch": 65, "duration": 4, "velocity": 116}, {"time": 1358, "pitch": 60, "duration": 3, "velocity": 97}, {"time": 1367, "pitch": 65, "duration": 3, "velocity": 97}, {"time": 1385, "pitch": 65, "duration": 2, "velocity": 114}, {"time": 1391, "pitch": 67, "duration": 3, "velocity": 114}, {"time": 1397, "pitch": 68, "duration": 5, "velocity": 117}, {"time": 1589, "pitch": 68, "duration": 3, "velocity": 114}, {"time": 1613, "pitch": 67, "duration": 4, "velocity": 113}, {"time": 1637, "pitch": 65, "duration": 5, "velocity": 110}, {"time": 1769, "pitch": 65, "duration": 3, "velocity": 113}, {"time": 1775, "pitch": 67, "duration": 3, "velocity": 114}, {"time": 1781, "pitch": 68, "duration": 4, "velocity": 116}, {"time": 1805, "pitch": 67, "duration": 3, "velocity": 116}, {"time": 1829, "pitch": 65, "duration": 4, "velocity": 117}, {"time": 1925, "pitch": 65, "duration": 5, "velocity": 116}, {"time": 1973, "pitch": 77, "duration": 33, "velocity": 114}, {"time": 2009, "pitch": 79, "duration": 9, "velocity": 119}, {"time": 2021, "pitch": 80, "duration": 10, "velocity": 119}, {"time": 2039, "pitch": 82, "duration": 5, "velocity": 114}, {"time": 2045, "pitch": 80, "duration": 6, "velocity": 116}, {"time": 2057, "pitch": 75, "duration": 8, "velocity": 113}, {"time": 2069, "pitch": 85, "duration": 5, "velocity": 117}, {"time": 2087, "pitch": 70, "duration": 1, "velocity": 104}, {"time": 2087, "pitch": 85, "duration": 1, "velocity": 104}, {"time": 2090, "pitch": 70, "duration": 2, "velocity": 98}, {"time": 2090, "pitch": 85, "duration": 2, "velocity": 98}, {"time": 2093, "pitch": 68, "duration": 5, "velocity": 107}, {"time": 2093, "pitch": 84, "duration": 5, "velocity": 116}, {"time": 2099, "pitch": 67, "duration": 3, "velocity": 104}, {"time": 2099, "pitch": 82, "duration": 3, "velocity": 110}, {"time": 2102, "pitch": 65, "duration": 6, "velocity": 108}, {"time": 2102, "pitch": 80, "duration": 5, "velocity": 108}, {"time": 2108, "pitch": 67, "duration": 6, "velocity": 110}, {"time": 2108, "pitch": 82, "duration": 5, "velocity": 107}, {"time": 2117, "pitch": 68, "duration": 5, "velocity": 116}, {"time": 2117, "pitch": 84, "duration": 7, "velocity": 113}, {"time": 2135, "pitch": 65, "duration": 2, "velocity": 107}, {"time": 2138, "pitch": 63, "duration": 3, "velocity": 100}, {"time": 2141, "pitch": 65, "duration": 5, "velocity": 114}, {"time": 2153, "pitch": 72, "duration": 5, "velocity": 113}, {"time": 2159, "pitch": 75, "duration": 5, "velocity": 108}, {"time": 2165, "pitch": 77, "duration": 21, "velocity": 114}, {"time": 2201, "pitch": 79, "duration": 8, "velocity": 116}, {"time": 2213, "pitch": 80, "duration": 5, "velocity": 116}, {"time": 2231, "pitch": 82, "duration": 5, "velocity": 113}, {"time": 2237, "pitch": 80, "duration": 5, "velocity": 113}, {"time": 2252, "pitch": 75, "duration": 7, "velocity": 114}, {"time": 2261, "pitch": 85, "duration": 14, "velocity": 114}, {"time": 2279, "pitch": 85, "duration": 1, "velocity": 108}, {"time": 2282, "pitch": 85, "duration": 2, "velocity": 96}, {"time": 2285, "pitch": 84, "duration": 5, "velocity": 96}, {"time": 2291, "pitch": 70, "duration": 1, "velocity": 98}, {"time": 2291, "pitch": 82, "duration": 3, "velocity": 93}, {"time": 2294, "pitch": 70, "duration": 4, "velocity": 113}, {"time": 2294, "pitch": 80, "duration": 4, "velocity": 89}, {"time": 2300, "pitch": 72, "duration": 6, "velocity": 116}, {"time": 2300, "pitch": 79, "duration": 6, "velocity": 89}, {"time": 2306, "pitch": 68, "duration": 5, "velocity": 117}, {"time": 2306, "pitch": 77, "duration": 6, "velocity": 90}, {"time": 2537, "pitch": 72, "duration": 3, "velocity": 110}, {"time": 2540, "pitch": 70, "duration": 2, "velocity": 89}, {"time": 2543, "pitch": 68, "duration": 3, "velocity": 100}, {"time": 2546, "pitch": 70, "duration": 3, "velocity": 91}, {"time": 2549, "pitch": 72, "duration": 4, "velocity": 107}, {"time": 2591, "pitch": 70, "duration": 4, "velocity": 102}, {"time": 2597, "pitch": 68, "duration": 3, "velocity": 96}, {"time": 2645, "pitch": 72, "duration": 5, "velocity": 84}, {"time": 2651, "pitch": 68, "duration": 4, "velocity": 86}, {"time": 2654, "pitch": 70, "duration": 5, "velocity": 98}, {"time": 2669, "pitch": 67, "duration": 9, "velocity": 108}, {"time": 2693, "pitch": 67, "duration": 5, "velocity": 113}, {"time": 2699, "pitch": 68, "duration": 3, "velocity": 96}, {"time": 2702, "pitch": 65, "duration": 6, "velocity": 100}, {"time": 2723, "pitch": 60, "duration": 3, "velocity": 116}, {"time": 2729, "pitch": 65, "duration": 3, "velocity": 119}, {"time": 2735, "pitch": 67, "duration": 3, "velocity": 117}, {"time": 2741, "pitch": 68, "duration": 4, "velocity": 119}, {"time": 2750, "pitch": 68, "duration": 5, "velocity": 107}, {"time": 2759, "pitch": 65, "duration": 3, "velocity": 110}, {"time": 2765, "pitch": 67, "duration": 4, "velocity": 117}, {"time": 2885, "pitch": 65, "duration": 4, "velocity": 116}, {"time": 2921, "pitch": 65, "duration": 2, "velocity": 114}, {"time": 2927, "pitch": 67, "duration": 3, "velocity": 114}, {"time": 2933, "pitch": 68, "duration": 5, "velocity": 117}, {"time": 3125, "pitch": 68, "duration": 3, "velocity": 114}, {"time": 3149, "pitch": 67, "duration": 4, "velocity": 113}, {"time": 3173, "pitch": 65, "duration": 5, "velocity": 110}, {"time": 3305, "pitch": 65, "duration": 3, "velocity": 113}, {"time": 3311, "pitch": 67, "duration": 3, "velocity": 114}, {"time": 3317, "pitch": 68, "duration": 4, "velocity": 116}, {"time": 3341, "pitch": 67, "duration": 3, "velocity": 116}, {"time": 3365, "pitch": 65, "duration": 4, "velocity": 117}, {"time": 3461, "pitch": 65, "duration": 5, "velocity": 116}]}, {"program": 0, "is_drum": false, "name": "PIANO", "notes": [{"time": 53, "pitch": 41, "duration": 19, "velocity": 89}, {"time": 56, "pitch": 48, "duration": 20, "velocity": 83}, {"time": 59, "pitch": 53, "duration": 12, "velocity": 84}, {"time": 62, "pitch": 56, "duration": 7, "velocity": 80}, {"time": 68, "pitch": 60, "duration": 7, "velocity": 88}, {"time": 74, "pitch": 63, "duration": 4, "velocity": 86}, {"time": 77, "pitch": 39, "duration": 17, "velocity": 88}, {"time": 80, "pitch": 48, "duration": 15, "velocity": 77}, {"time": 83, "pitch": 51, "duration": 14, "velocity": 86}, {"time": 86, "pitch": 55, "duration": 14, "velocity": 87}, {"time": 92, "pitch": 63, "duration": 9, "velocity": 91}, {"time": 101, "pitch": 37, "duration": 17, "velocity": 89}, {"time": 104, "pitch": 44, "duration": 15, "velocity": 81}, {"time": 107, "pitch": 49, "duration": 14, "velocity": 83}, {"time": 110, "pitch": 53, "duration": 8, "velocity": 85}, {"time": 116, "pitch": 56, "duration": 7, "velocity": 87}, {"time": 122, "pitch": 61, "duration": 3, "velocity": 90}, {"time": 125, "pitch": 48, "duration": 18, "velocity": 83}, {"time": 128, "pitch": 55, "duration": 15, "velocity": 87}, {"time": 131, "pitch": 60, "duration": 10, "velocity": 90}, {"time": 134, "pitch": 63, "duration": 7, "velocity": 88}, {"time": 140, "pitch": 67, "duration": 8, "velocity": 90}, {"time": 146, "pitch": 72, "duration": 3, "velocity": 88}, {"time": 149, "pitch": 46, "duration": 20, "velocity": 87}, {"time": 152, "pitch": 53, "duration": 20, "velocity": 82}, {"time": 155, "pitch": 58, "duration": 14, "velocity": 89}, {"time": 158, "pitch": 61, "duration": 12, "velocity": 85}, {"time": 164, "pitch": 65, "duration": 9, "velocity": 86}, {"time": 170, "pitch": 70, "duration": 4, "velocity": 89}, {"time": 173, "pitch": 48, "duration": 19, "velocity": 88}, {"time": 176, "pitch": 55, "duration": 15, "velocity": 83}, {"time": 179, "pitch": 60, "duration": 10, "velocity": 77}, {"time": 182, "pitch": 64, "duration": 14, "velocity": 86}, {"time": 188, "pitch": 67, "duration": 6, "velocity": 93}, {"time": 194, "pitch": 68, "duration": 4, "velocity": 88}, {"time": 197, "pitch": 41, "duration": 45, "velocity": 91}, {"time": 203, "pitch": 48, "duration": 41, "velocity": 82}, {"time": 206, "pitch": 53, "duration": 18, "velocity": 84}, {"time": 209, "pitch": 55, "duration": 3, "velocity": 83}, {"time": 212, "pitch": 56, "duration": 1, "velocity": 88}, {"time": 215, "pitch": 60, "duration": 3, "velocity": 75}, {"time": 218, "pitch": 65, "duration": 2, "velocity": 89}, {"time": 221, "pitch": 67, "duration": 8, "velocity": 110}, {"time": 227, "pitch": 53, "duration": 16, "velocity": 84}, {"time": 230, "pitch": 60, "duration": 16, "velocity": 100}, {"time": 236, "pitch": 68, "duration": 10, "velocity": 102}, {"time": 245, "pitch": 41, "duration": 19, "velocity": 98}, {"time": 251, "pitch": 48, "duration": 18, "velocity": 86}, {"time": 254, "pitch": 53, "duration": 9, "velocity": 92}, {"time": 260, "pitch": 56, "duration": 4, "velocity": 87}, {"time": 263, "pitch": 60, "duration": 2, "velocity": 88}, {"time": 266, "pitch": 63, "duration": 6, "velocity": 89}, {"time": 269, "pitch": 39, "duration": 19, "velocity": 100}, {"time": 275, "pitch": 48, "duration": 12, "velocity": 83}, {"time": 278, "pitch": 51, "duration": 9, "velocity": 87}, {"time": 284, "pitch": 55, "duration": 4, "velocity": 87}, {"time": 287, "pitch": 58, "duration": 4, "velocity": 85}, {"time": 290, "pitch": 63, "duration": 7, "velocity": 93}, {"time": 293, "pitch": 37, "duration": 18, "velocity": 87}, {"time": 296, "pitch": 44, "duration": 15, "velocity": 84}, {"time": 299, "pitch": 49, "duration": 15, "velocity": 88}, {"time": 302, "pitch": 53, "duration": 8, "velocity": 86}, {"time": 308, "pitch": 56, "duration": 7, "velocity": 87}, {"time": 314, "pitch": 63, "duration": 4, "velocity": 90}, {"time": 317, "pitch": 48, "duration": 19, "velocity": 89}, {"time": 320, "pitch": 55, "duration": 15, "velocity": 87}, {"time": 323, "pitch": 60, "duration": 9, "velocity": 93}, {"time": 326, "pitch": 63, "duration": 4, "velocity": 91}, {"time": 329, "pitch": 67, "duration": 4, "velocity": 87}, {"time": 332, "pitch": 72, "duration": 6, "velocity": 92}, {"time": 335, "pitch": 63, "duration": 6, "velocity": 88}, {"time": 338, "pitch": 67, "duration": 3, "velocity": 87}, {"time": 341, "pitch": 46, "duration": 19, "velocity": 88}, {"time": 341, "pitch": 70, "duration": 9, "velocity": 98}, {"time": 344, "pitch": 53, "duration": 18, "velocity": 82}, {"time": 347, "pitch": 58, "duration": 13, "velocity": 88}, {"time": 350, "pitch": 61, "duration": 8, "velocity": 88}, {"time": 356, "pitch": 65, "duration": 9, "velocity": 87}, {"time": 362, "pitch": 70, "duration": 7, "velocity": 89}, {"time": 365, "pitch": 48, "duration": 20, "velocity": 91}, {"time": 368, "pitch": 55, "duration": 16, "velocity": 81}, {"time": 371, "pitch": 60, "duration": 11, "velocity": 88}, {"time": 374, "pitch": 64, "duration": 9, "velocity": 100}, {"time": 380, "pitch": 67, "duration": 9, "velocity": 87}, {"time": 383, "pitch": 72, "duration": 7, "velocity": 89}, {"time": 389, "pitch": 41, "duration": 34, "velocity": 89}, {"time": 395, "pitch": 48, "duration": 28, "velocity": 80}, {"time": 398, "pitch": 53, "duration": 24, "velocity": 81}, {"time": 404, "pitch": 55, "duration": 9, "velocity": 80}, {"time": 410, "pitch": 60, "duration": 13, "velocity": 69}, {"time": 413, "pitch": 56, "duration": 10, "velocity": 82}, {"time": 437, "pitch": 41, "duration": 20, "velocity": 88}, {"time": 437, "pitch": 60, "duration": 8, "velocity": 91}, {"time": 437, "pitch": 65, "duration": 8, "velocity": 104}, {"time": 443, "pitch": 48, "duration": 17, "velocity": 80}, {"time": 446, "pitch": 60, "duration": 1, "velocity": 85}, {"time": 446, "pitch": 65, "duration": 7, "velocity": 110}, {"time": 452, "pitch": 53, "duration": 5, "velocity": 86}, {"time": 455, "pitch": 60, "duration": 4, "velocity": 86}, {"time": 458, "pitch": 65, "duration": 2, "velocity": 89}, {"time": 461, "pitch": 39, "duration": 19, "velocity": 87}, {"time": 461, "pitch": 60, "duration": 7, "velocity": 94}, {"time": 461, "pitch": 67, "duration": 8, "velocity": 104}, {"time": 467, "pitch": 48, "duration": 12, "velocity": 77}, {"time": 470, "pitch": 60, "duration": 6, "velocity": 89}, {"time": 470, "pitch": 67, "duration": 6, "velocity": 108}, {"time": 476, "pitch": 51, "duration": 3, "velocity": 84}, {"time": 479, "pitch": 60, "duration": 4, "velocity": 91}, {"time": 479, "pitch": 67, "duration": 5, "velocity": 108}, {"time": 485, "pitch": 37, "duration": 2, "velocity": 92}, {"time": 485, "pitch": 60, "duration": 1, "velocity": 98}, {"time": 485, "pitch": 68, "duration": 14, "velocity": 102}, {"time": 491, "pitch": 49, "duration": 11, "velocity": 88}, {"time": 494, "pitch": 56, "duration": 8, "velocity": 86}, {"time": 500, "pitch": 65, "duration": 3, "velocity": 102}, {"time": 503, "pitch": 68, "duration": 5, "velocity": 94}, {"time": 509, "pitch": 48, "duration": 18, "velocity": 88}, {"time": 509, "pitch": 58, "duration": 13, "velocity": 87}, {"time": 509, "pitch": 67, "duration": 13, "velocity": 92}, {"time": 518, "pitch": 55, "duration": 8, "velocity": 89}, {"time": 524, "pitch": 58, "duration": 3, "velocity": 92}, {"time": 527, "pitch": 67, "duration": 5, "velocity": 96}, {"time": 533, "pitch": 46, "duration": 19, "velocity": 89}, {"time": 533, "pitch": 65, "duration": 10, "velocity": 96}, {"time": 539, "pitch": 53, "duration": 17, "velocity": 84}, {"time": 542, "pitch": 58, "duration": 2, "velocity": 88}, {"time": 545, "pitch": 61, "duration": 4, "velocity": 84}, {"time": 548, "pitch": 65, "duration": 2, "velocity": 88}, {"time": 551, "pitch": 68, "duration": 6, "velocity": 104}, {"time": 557, "pitch": 48, "duration": 18, "velocity": 87}, {"time": 557, "pitch": 67, "duration": 8, "velocity": 91}, {"time": 563, "pitch": 55, "duration": 4, "velocity": 78}, {"time": 566, "pitch": 64, "duration": 8, "velocity": 91}, {"time": 566, "pitch": 67, "duration": 6, "velocity": 88}, {"time": 572, "pitch": 55, "duration": 3, "velocity": 81}, {"time": 575, "pitch": 67, "duration": 5, "velocity": 107}, {"time": 581, "pitch": 41, "duration": 45, "velocity": 88}, {"time": 581, "pitch": 60, "duration": 7, "velocity": 88}, {"time": 581, "pitch": 67, "duration": 8, "velocity": 104}, {"time": 587, "pitch": 48, "duration": 39, "velocity": 78}, {"time": 590, "pitch": 60, "duration": 6, "velocity": 100}, {"time": 590, "pitch": 68, "duration": 6, "velocity": 100}, {"time": 593, "pitch": 53, "duration": 5, "velocity": 76}, {"time": 596, "pitch": 60, "duration": 7, "velocity": 86}, {"time": 596, "pitch": 67, "duration": 8, "velocity": 98}, {"time": 602, "pitch": 53, "duration": 10, "velocity": 83}, {"time": 605, "pitch": 60, "duration": 13, "velocity": 92}, {"time": 605, "pitch": 65, "duration": 13, "velocity": 102}, {"time": 617, "pitch": 53, "duration": 8, "velocity": 87}, {"time": 620, "pitch": 60, "duration": 2, "velocity": 88}, {"time": 623, "pitch": 67, "duration": 4, "velocity": 104}, {"time": 629, "pitch": 41, "duration": 20, "velocity": 88}, {"time": 629, "pitch": 60, "duration": 8, "velocity": 91}, {"time": 629, "pitch": 65, "duration": 8, "velocity": 104}, {"time": 635, "pitch": 48, "duration": 17, "velocity": 80}, {"time": 638, "pitch": 60, "duration": 1, "velocity": 85}, {"time": 638, "pitch": 65, "duration": 7, "velocity": 110}, {"time": 644, "pitch": 53, "duration": 5, "velocity": 86}, {"time": 647, "pitch": 60, "duration": 4, "velocity": 86}, {"time": 650, "pitch": 65, "duration": 2, "velocity": 89}, {"time": 653, "pitch": 39, "duration": 19, "velocity": 87}, {"time": 653, "pitch": 60, "duration": 7, "velocity": 94}, {"time": 653, "pitch": 67, "duration": 8, "velocity": 104}, {"time": 659, "pitch": 48, "duration": 12, "velocity": 77}, {"time": 662, "pitch": 60, "duration": 6, "velocity": 89}, {"time": 662, "pitch": 67, "duration": 6, "velocity": 108}, {"time": 668, "pitch": 51, "duration": 3, "velocity": 84}, {"time": 671, "pitch": 60, "duration": 4, "velocity": 91}, {"time": 671, "pitch": 67, "duration": 5, "velocity": 108}, {"time": 677, "pitch": 37, "duration": 2, "velocity": 92}, {"time": 677, "pitch": 60, "duration": 1, "velocity": 98}, {"time": 677, "pitch": 68, "duration": 14, "velocity": 102}, {"time": 683, "pitch": 49, "duration": 11, "velocity": 88}, {"time": 686, "pitch": 56, "duration": 8, "velocity": 86}, {"time": 692, "pitch": 65, "duration": 3, "velocity": 102}, {"time": 695, "pitch": 68, "duration": 5, "velocity": 94}, {"time": 701, "pitch": 48, "duration": 18, "velocity": 88}, {"time": 701, "pitch": 58, "duration": 13, "velocity": 87}, {"time": 701, "pitch": 67, "duration": 13, "velocity": 92}, {"time": 710, "pitch": 55, "duration": 8, "velocity": 89}, {"time": 716, "pitch": 58, "duration": 3, "velocity": 92}, {"time": 719, "pitch": 67, "duration": 5, "velocity": 96}, {"time": 725, "pitch": 46, "duration": 19, "velocity": 89}, {"time": 725, "pitch": 65, "duration": 10, "velocity": 96}, {"time": 731, "pitch": 53, "duration": 17, "velocity": 84}, {"time": 734, "pitch": 58, "duration": 2, "velocity": 88}, {"time": 737, "pitch": 61, "duration": 4, "velocity": 84}, {"time": 740, "pitch": 65, "duration": 2, "velocity": 88}, {"time": 743, "pitch": 68, "duration": 6, "velocity": 104}, {"time": 749, "pitch": 48, "duration": 18, "velocity": 87}, {"time": 749, "pitch": 67, "duration": 8, "velocity": 91}, {"time": 755, "pitch": 55, "duration": 4, "velocity": 78}, {"time": 758, "pitch": 64, "duration": 8, "velocity": 91}, {"time": 758, "pitch": 67, "duration": 6, "velocity": 88}, {"time": 764, "pitch": 55, "duration": 3, "velocity": 81}, {"time": 767, "pitch": 67, "duration": 5, "velocity": 107}, {"time": 773, "pitch": 41, "duration": 45, "velocity": 88}, {"time": 773, "pitch": 60, "duration": 7, "velocity": 88}, {"time": 773, "pitch": 67, "duration": 8, "velocity": 104}, {"time": 779, "pitch": 48, "duration": 39, "velocity": 78}, {"time": 782, "pitch": 60, "duration": 6, "velocity": 100}, {"time": 782, "pitch": 68, "duration": 6, "velocity": 100}, {"time": 785, "pitch": 53, "duration": 5, "velocity": 76}, {"time": 788, "pitch": 60, "duration": 7, "velocity": 86}, {"time": 788, "pitch": 67, "duration": 8, "velocity": 98}, {"time": 794, "pitch": 53, "duration": 10, "velocity": 83}, {"time": 797, "pitch": 60, "duration": 13, "velocity": 92}, {"time": 797, "pitch": 65, "duration": 13, "velocity": 102}, {"time": 809, "pitch": 53, "duration": 8, "velocity": 87}, {"time": 812, "pitch": 60, "duration": 2, "velocity": 88}, {"time": 815, "pitch": 67, "duration": 4, "velocity": 104}, {"time": 821, "pitch": 41, "duration": 20, "velocity": 88}, {"time": 821, "pitch": 60, "duration": 8, "velocity": 91}, {"time": 821, "pitch": 65, "duration": 8, "velocity": 104}, {"time": 827, "pitch": 48, "duration": 17, "velocity": 80}, {"time": 830, "pitch": 60, "duration": 1, "velocity": 85}, {"time": 830, "pitch": 65, "duration": 7, "velocity": 110}, {"time": 836, "pitch": 53, "duration": 5, "velocity": 86}, {"time": 839, "pitch": 60, "duration": 4, "velocity": 86}, {"time": 842, "pitch": 65, "duration": 2, "velocity": 89}, {"time": 845, "pitch": 39, "duration": 19, "velocity": 87}, {"time": 845, "pitch": 60, "duration": 7, "velocity": 94}, {"time": 845, "pitch": 67, "duration": 8, "velocity": 104}, {"time": 851, "pitch": 48, "duration": 12, "velocity": 77}, {"time": 854, "pitch": 60, "duration": 6, "velocity": 89}, {"time": 854, "pitch": 67, "duration": 6, "velocity": 108}, {"time": 860, "pitch": 51, "duration": 3, "velocity": 84}, {"time": 863, "pitch": 60, "duration": 4, "velocity": 91}, {"time": 863, "pitch": 67, "duration": 5, "velocity": 108}, {"time": 869, "pitch": 37, "duration": 2, "velocity": 92}, {"time": 869, "pitch": 60, "duration": 1, "velocity": 98}, {"time": 869, "pitch": 68, "duration": 14, "velocity": 102}, {"time": 875, "pitch": 49, "duration": 11, "velocity": 88}, {"time": 878, "pitch": 56, "duration": 8, "velocity": 86}, {"time": 884, "pitch": 65, "duration": 3, "velocity": 102}, {"time": 887, "pitch": 68, "duration": 5, "velocity": 94}, {"time": 893, "pitch": 48, "duration": 18, "velocity": 88}, {"time": 893, "pitch": 58, "duration": 13, "velocity": 87}, {"time": 893, "pitch": 67, "duration": 13, "velocity": 92}, {"time": 902, "pitch": 55, "duration": 8, "velocity": 89}, {"time": 908, "pitch": 58, "duration": 3, "velocity": 92}, {"time": 911, "pitch": 67, "duration": 5, "velocity": 96}, {"time": 917, "pitch": 46, "duration": 19, "velocity": 89}, {"time": 917, "pitch": 65, "duration": 10, "velocity": 96}, {"time": 923, "pitch": 53, "duration": 17, "velocity": 84}, {"time": 926, "pitch": 58, "duration": 2, "velocity": 88}, {"time": 929, "pitch": 61, "duration": 4, "velocity": 84}, {"time": 932, "pitch": 65, "duration": 2, "velocity": 88}, {"time": 935, "pitch": 68, "duration": 6, "velocity": 104}, {"time": 941, "pitch": 48, "duration": 18, "velocity": 87}, {"time": 941, "pitch": 67, "duration": 8, "velocity": 91}, {"time": 947, "pitch": 55, "duration": 4, "velocity": 78}, {"time": 950, "pitch": 64, "duration": 8, "velocity": 91}, {"time": 950, "pitch": 67, "duration": 6, "velocity": 88}, {"time": 956, "pitch": 55, "duration": 3, "velocity": 81}, {"time": 959, "pitch": 67, "duration": 5, "velocity": 107}, {"time": 965, "pitch": 41, "duration": 45, "velocity": 88}, {"time": 965, "pitch": 60, "duration": 7, "velocity": 88}, {"time": 965, "pitch": 67, "duration": 8, "velocity": 104}, {"time": 971, "pitch": 48, "duration": 39, "velocity": 78}, {"time": 974, "pitch": 60, "duration": 6, "velocity": 100}, {"time": 974, "pitch": 68, "duration": 6, "velocity": 100}, {"time": 977, "pitch": 53, "duration": 5, "velocity": 76}, {"time": 980, "pitch": 60, "duration": 7, "velocity": 86}, {"time": 980, "pitch": 67, "duration": 8, "velocity": 98}, {"time": 986, "pitch": 53, "duration": 10, "velocity": 83}, {"time": 989, "pitch": 60, "duration": 13, "velocity": 92}, {"time": 989, "pitch": 65, "duration": 13, "velocity": 102}, {"time": 1001, "pitch": 53, "duration": 8, "velocity": 87}, {"time": 1004, "pitch": 60, "duration": 2, "velocity": 88}, {"time": 1007, "pitch": 67, "duration": 4, "velocity": 104}, {"time": 1013, "pitch": 41, "duration": 20, "velocity": 88}, {"time": 1013, "pitch": 60, "duration": 8, "velocity": 91}, {"time": 1013, "pitch": 65, "duration": 8, "velocity": 104}, {"time": 1019, "pitch": 48, "duration": 17, "velocity": 80}, {"time": 1022, "pitch": 60, "duration": 1, "velocity": 85}, {"time": 1022, "pitch": 65, "duration": 7, "velocity": 110}, {"time": 1028, "pitch": 53, "duration": 5, "velocity": 86}, {"time": 1031, "pitch": 60, "duration": 4, "velocity": 86}, {"time": 1034, "pitch": 65, "duration": 2, "velocity": 89}, {"time": 1037, "pitch": 39, "duration": 19, "velocity": 87}, {"time": 1037, "pitch": 60, "duration": 7, "velocity": 94}, {"time": 1037, "pitch": 67, "duration": 8, "velocity": 104}, {"time": 1043, "pitch": 48, "duration": 12, "velocity": 77}, {"time": 1046, "pitch": 60, "duration": 6, "velocity": 89}, {"time": 1046, "pitch": 67, "duration": 6, "velocity": 108}, {"time": 1052, "pitch": 51, "duration": 3, "velocity": 84}, {"time": 1055, "pitch": 60, "duration": 4, "velocity": 91}, {"time": 1055, "pitch": 67, "duration": 5, "velocity": 108}, {"time": 1061, "pitch": 37, "duration": 2, "velocity": 92}, {"time": 1061, "pitch": 60, "duration": 1, "velocity": 98}, {"time": 1061, "pitch": 68, "duration": 14, "velocity": 102}, {"time": 1067, "pitch": 49, "duration": 11, "velocity": 88}, {"time": 1070, "pitch": 56, "duration": 8, "velocity": 86}, {"time": 1076, "pitch": 65, "duration": 3, "velocity": 102}, {"time": 1079, "pitch": 68, "duration": 5, "velocity": 94}, {"time": 1085, "pitch": 48, "duration": 18, "velocity": 88}, {"time": 1085, "pitch": 58, "duration": 13, "velocity": 87}, {"time": 1085, "pitch": 67, "duration": 13, "velocity": 92}, {"time": 1094, "pitch": 55, "duration": 8, "velocity": 89}, {"time": 1100, "pitch": 58, "duration": 3, "velocity": 92}, {"time": 1103, "pitch": 67, "duration": 5, "velocity": 96}, {"time": 1109, "pitch": 46, "duration": 19, "velocity": 89}, {"time": 1109, "pitch": 65, "duration": 10, "velocity": 96}, {"time": 1115, "pitch": 53, "duration": 17, "velocity": 84}, {"time": 1118, "pitch": 58, "duration": 2, "velocity": 88}, {"time": 1121, "pitch": 61, "duration": 4, "velocity": 84}, {"time": 1124, "pitch": 65, "duration": 2, "velocity": 88}, {"time": 1127, "pitch": 68, "duration": 6, "velocity": 104}, {"time": 1133, "pitch": 48, "duration": 18, "velocity": 87}, {"time": 1133, "pitch": 67, "duration": 8, "velocity": 91}, {"time": 1139, "pitch": 55, "duration": 4, "velocity": 78}, {"time": 1142, "pitch": 64, "duration": 8, "velocity": 91}, {"time": 1142, "pitch": 67, "duration": 6, "velocity": 88}, {"time": 1148, "pitch": 55, "duration": 3, "velocity": 81}, {"time": 1151, "pitch": 67, "duration": 5, "velocity": 107}, {"time": 1157, "pitch": 41, "duration": 45, "velocity": 88}, {"time": 1157, "pitch": 60, "duration": 7, "velocity": 88}, {"time": 1157, "pitch": 67, "duration": 8, "velocity": 104}, {"time": 1163, "pitch": 48, "duration": 39, "velocity": 78}, {"time": 1166, "pitch": 60, "duration": 6, "velocity": 100}, {"time": 1166, "pitch": 68, "duration": 6, "velocity": 100}, {"time": 1169, "pitch": 53, "duration": 5, "velocity": 76}, {"time": 1172, "pitch": 60, "duration": 7, "velocity": 86}, {"time": 1172, "pitch": 67, "duration": 8, "velocity": 98}, {"time": 1178, "pitch": 53, "duration": 10, "velocity": 83}, {"time": 1181, "pitch": 60, "duration": 13, "velocity": 92}, {"time": 1181, "pitch": 65, "duration": 13, "velocity": 102}, {"time": 1193, "pitch": 53, "duration": 8, "velocity": 87}, {"time": 1196, "pitch": 60, "duration": 2, "velocity": 88}, {"time": 1199, "pitch": 67, "duration": 4, "velocity": 104}, {"time": 1205, "pitch": 41, "duration": 20, "velocity": 88}, {"time": 1205, "pitch": 60, "duration": 8, "velocity": 91}, {"time": 1205, "pitch": 65, "duration": 8, "velocity": 104}, {"time": 1211, "pitch": 48, "duration": 17, "velocity": 80}, {"time": 1214, "pitch": 60, "duration": 1, "velocity": 85}, {"time": 1214, "pitch": 65, "duration": 7, "velocity": 110}, {"time": 1220, "pitch": 53, "duration": 5, "velocity": 86}, {"time": 1223, "pitch": 60, "duration": 4, "velocity": 86}, {"time": 1226, "pitch": 65, "duration": 2, "velocity": 89}, {"time": 1229, "pitch": 39, "duration": 19, "velocity": 87}, {"time": 1229, "pitch": 60, "duration": 7, "velocity": 94}, {"time": 1229, "pitch": 67, "duration": 8, "velocity": 104}, {"time": 1235, "pitch": 48, "duration": 12, "velocity": 77}, {"time": 1238, "pitch": 60, "duration": 6, "velocity": 89}, {"time": 1238, "pitch": 67, "duration": 6, "velocity": 108}, {"time": 1244, "pitch": 51, "duration": 3, "velocity": 84}, {"time": 1247, "pitch": 60, "duration": 4, "velocity": 91}, {"time": 1247, "pitch": 67, "duration": 5, "velocity": 108}, {"time": 1253, "pitch": 37, "duration": 2, "velocity": 92}, {"time": 1253, "pitch": 60, "duration": 1, "velocity": 98}, {"time": 1253, "pitch": 68, "duration": 14, "velocity": 102}, {"time": 1259, "pitch": 49, "duration": 11, "velocity": 88}, {"time": 1262, "pitch": 56, "duration": 8, "velocity": 86}, {"time": 1268, "pitch": 65, "duration": 3, "velocity": 102}, {"time": 1271, "pitch": 68, "duration": 5, "velocity": 94}, {"time": 1277, "pitch": 48, "duration": 18, "velocity": 88}, {"time": 1277, "pitch": 58, "duration": 13, "velocity": 87}, {"time": 1277, "pitch": 67, "duration": 13, "velocity": 92}, {"time": 1286, "pitch": 55, "duration": 8, "velocity": 89}, {"time": 1292, "pitch": 58, "duration": 3, "velocity": 92}, {"time": 1295, "pitch": 67, "duration": 5, "velocity": 96}, {"time": 1301, "pitch": 46, "duration": 19, "velocity": 89}, {"time": 1301, "pitch": 65, "duration": 10, "velocity": 96}, {"time": 1307, "pitch": 53, "duration": 17, "velocity": 84}, {"time": 1310, "pitch": 58, "duration": 2, "velocity": 88}, {"time": 1313, "pitch": 61, "duration": 4, "velocity": 84}, {"time": 1316, "pitch": 65, "duration": 2, "velocity": 88}, {"time": 1319, "pitch": 68, "duration": 6, "velocity": 104}, {"time": 1325, "pitch": 48, "duration": 18, "velocity": 87}, {"time": 1325, "pitch": 67, "duration": 8, "velocity": 91}, {"time": 1331, "pitch": 55, "duration": 4, "velocity": 78}, {"time": 1334, "pitch": 64, "duration": 8, "velocity": 91}, {"time": 1334, "pitch": 67, "duration": 6, "velocity": 88}, {"time": 1340, "pitch": 55, "duration": 3, "velocity": 81}, {"time": 1343, "pitch": 67, "duration": 5, "velocity": 107}, {"time": 1349, "pitch": 41, "duration": 45, "velocity": 88}, {"time": 1349, "pitch": 60, "duration": 7, "velocity": 88}, {"time": 1349, "pitch": 67, "duration": 8, "velocity": 104}, {"time": 1355, "pitch": 48, "duration": 39, "velocity": 78}, {"time": 1358, "pitch": 60, "duration": 6, "velocity": 100}, {"time": 1358, "pitch": 68, "duration": 6, "velocity": 100}, {"time": 1361, "pitch": 53, "duration": 5, "velocity": 76}, {"time": 1364, "pitch": 60, "duration": 7, "velocity": 86}, {"time": 1364, "pitch": 67, "duration": 8, "velocity": 98}, {"time": 1370, "pitch": 53, "duration": 10, "velocity": 83}, {"time": 1373, "pitch": 60, "duration": 13, "velocity": 92}, {"time": 1373, "pitch": 65, "duration": 13, "velocity": 102}, {"time": 1385, "pitch": 53, "duration": 8, "velocity": 87}, {"time": 1388, "pitch": 60, "duration": 2, "velocity": 88}, {"time": 1391, "pitch": 67, "duration": 4, "velocity": 104}, {"time": 1397, "pitch": 41, "duration": 20, "velocity": 88}, {"time": 1397, "pitch": 60, "duration": 8, "velocity": 91}, {"time": 1397, "pitch": 65, "duration": 8, "velocity": 104}, {"time": 1403, "pitch": 48, "duration": 17, "velocity": 80}, {"time": 1406, "pitch": 60, "duration": 1, "velocity": 85}, {"time": 1406, "pitch": 65, "duration": 7, "velocity": 110}, {"time": 1412, "pitch": 53, "duration": 5, "velocity": 86}, {"time": 1415, "pitch": 60, "duration": 4, "velocity": 86}, {"time": 1418, "pitch": 65, "duration": 2, "velocity": 89}, {"time": 1421, "pitch": 39, "duration": 19, "velocity": 87}, {"time": 1421, "pitch": 60, "duration": 7, "velocity": 94}, {"time": 1421, "pitch": 67, "duration": 8, "velocity": 104}, {"time": 1427, "pitch": 48, "duration": 12, "velocity": 77}, {"time": 1430, "pitch": 60, "duration": 6, "velocity": 89}, {"time": 1430, "pitch": 67, "duration": 6, "velocity": 108}, {"time": 1436, "pitch": 51, "duration": 3, "velocity": 84}, {"time": 1439, "pitch": 60, "duration": 4, "velocity": 91}, {"time": 1439, "pitch": 67, "duration": 5, "velocity": 108}, {"time": 1445, "pitch": 37, "duration": 2, "velocity": 92}, {"time": 1445, "pitch": 60, "duration": 1, "velocity": 98}, {"time": 1445, "pitch": 68, "duration": 14, "velocity": 102}, {"time": 1451, "pitch": 49, "duration": 11, "velocity": 88}, {"time": 1454, "pitch": 56, "duration": 8, "velocity": 86}, {"time": 1460, "pitch": 65, "duration": 3, "velocity": 102}, {"time": 1463, "pitch": 68, "duration": 5, "velocity": 94}, {"time": 1469, "pitch": 48, "duration": 18, "velocity": 88}, {"time": 1469, "pitch": 58, "duration": 13, "velocity": 87}, {"time": 1469, "pitch": 67, "duration": 13, "velocity": 92}, {"time": 1478, "pitch": 55, "duration": 8, "velocity": 89}, {"time": 1484, "pitch": 58, "duration": 3, "velocity": 92}, {"time": 1487, "pitch": 67, "duration": 5, "velocity": 96}, {"time": 1493, "pitch": 46, "duration": 19, "velocity": 89}, {"time": 1493, "pitch": 65, "duration": 10, "velocity": 96}, {"time": 1499, "pitch": 53, "duration": 17, "velocity": 84}, {"time": 1502, "pitch": 58, "duration": 2, "velocity": 88}, {"time": 1505, "pitch": 61, "duration": 4, "velocity": 84}, {"time": 1508, "pitch": 65, "duration": 2, "velocity": 88}, {"time": 1511, "pitch": 68, "duration": 6, "velocity": 104}, {"time": 1517, "pitch": 48, "duration": 18, "velocity": 87}, {"time": 1517, "pitch": 67, "duration": 8, "velocity": 91}, {"time": 1523, "pitch": 55, "duration": 4, "velocity": 78}, {"time": 1526, "pitch": 64, "duration": 8, "velocity": 91}, {"time": 1526, "pitch": 67, "duration": 6, "velocity": 88}, {"time": 1532, "pitch": 55, "duration": 3, "velocity": 81}, {"time": 1535, "pitch": 67, "duration": 5, "velocity": 107}, {"time": 1541, "pitch": 41, "duration": 45, "velocity": 88}, {"time": 1541, "pitch": 60, "duration": 7, "velocity": 88}, {"time": 1541, "pitch": 67, "duration": 8, "velocity": 104}, {"time": 1547, "pitch": 48, "duration": 39, "velocity": 78}, {"time": 1550, "pitch": 60, "duration": 6, "velocity": 100}, {"time": 1550, "pitch": 68, "duration": 6, "velocity": 100}, {"time": 1553, "pitch": 53, "duration": 5, "velocity": 76}, {"time": 1556, "pitch": 60, "duration": 7, "velocity": 86}, {"time": 1556, "pitch": 67, "duration": 8, "velocity": 98}, {"time": 1562, "pitch": 53, "duration": 10, "velocity": 83}, {"time": 1565, "pitch": 60, "duration": 13, "velocity": 92}, {"time": 1565, "pitch": 65, "duration": 13, "velocity": 102}, {"time": 1577, "pitch": 53, "duration": 8, "velocity": 87}, {"time": 1580, "pitch": 60, "duration": 2, "velocity": 88}, {"time": 1583, "pitch": 67, "duration": 4, "velocity": 104}, {"time": 1589, "pitch": 41, "duration": 20, "velocity": 88}, {"time": 1589, "pitch": 60, "duration": 8, "velocity": 91}, {"time": 1589, "pitch": 65, "duration": 8, "velocity": 104}, {"time": 1595, "pitch": 48, "duration": 17, "velocity": 80}, {"time": 1598, "pitch": 60, "duration": 1, "velocity": 85}, {"time": 1598, "pitch": 65, "duration": 7, "velocity": 110}, {"time": 1604, "pitch": 53, "duration": 5, "velocity": 86}, {"time": 1607, "pitch": 60, "duration": 4, "velocity": 86}, {"time": 1610, "pitch": 65, "duration": 2, "velocity": 89}, {"time": 1613, "pitch": 39, "duration": 19, "velocity": 87}, {"time": 1613, "pitch": 60, "duration": 7, "velocity": 94}, {"time": 1613, "pitch": 67, "duration": 8, "velocity": 104}, {"time": 1619, "pitch": 48, "duration": 12, "velocity": 77}, {"time": 1622, "pitch": 60, "duration": 6, "velocity": 89}, {"time": 1622, "pitch": 67, "duration": 6, "velocity": 108}, {"time": 1628, "pitch": 51, "duration": 3, "velocity": 84}, {"time": 1631, "pitch": 60, "duration": 4, "velocity": 91}, {"time": 1631, "pitch": 67, "duration": 5, "velocity": 108}, {"time": 1637, "pitch": 37, "duration": 2, "velocity": 92}, {"time": 1637, "pitch": 60, "duration": 1, "velocity": 98}, {"time": 1637, "pitch": 68, "duration": 14, "velocity": 102}, {"time": 1643, "pitch": 49, "duration": 11, "velocity": 88}, {"time": 1646, "pitch": 56, "duration": 8, "velocity": 86}, {"time": 1652, "pitch": 65, "duration": 3, "velocity": 102}, {"time": 1655, "pitch": 68, "duration": 5, "velocity": 94}, {"time": 1661, "pitch": 48, "duration": 18, "velocity": 88}, {"time": 1661, "pitch": 58, "duration": 13, "velocity": 87}, {"time": 1661, "pitch": 67, "duration": 13, "velocity": 92}, {"time": 1670, "pitch": 55, "duration": 8, "velocity": 89}, {"time": 1676, "pitch": 58, "duration": 3, "velocity": 92}, {"time": 1679, "pitch": 67, "duration": 5, "velocity": 96}, {"time": 1685, "pitch": 46, "duration": 19, "velocity": 89}, {"time": 1685, "pitch": 65, "duration": 10, "velocity": 96}, {"time": 1691, "pitch": 53, "duration": 17, "velocity": 84}, {"time": 1694, "pitch": 58, "duration": 2, "velocity": 88}, {"time": 1697, "pitch": 61, "duration": 4, "velocity": 84}, {"time": 1700, "pitch": 65, "duration": 2, "velocity": 88}, {"time": 1703, "pitch": 68, "duration": 6, "velocity": 104}, {"time": 1709, "pitch": 48, "duration": 18, "velocity": 87}, {"time": 1709, "pitch": 67, "duration": 8, "velocity": 91}, {"time": 1715, "pitch": 55, "duration": 4, "velocity": 78}, {"time": 1718, "pitch": 64, "duration": 8, "velocity": 91}, {"time": 1718, "pitch": 67, "duration": 6, "velocity": 88}, {"time": 1724, "pitch": 55, "duration": 3, "velocity": 81}, {"time": 1727, "pitch": 67, "duration": 5, "velocity": 107}, {"time": 1733, "pitch": 41, "duration": 45, "velocity": 88}, {"time": 1733, "pitch": 60, "duration": 7, "velocity": 88}, {"time": 1733, "pitch": 67, "duration": 8, "velocity": 104}, {"time": 1739, "pitch": 48, "duration": 39, "velocity": 78}, {"time": 1742, "pitch": 60, "duration": 6, "velocity": 100}, {"time": 1742, "pitch": 68, "duration": 6, "velocity": 100}, {"time": 1745, "pitch": 53, "duration": 5, "velocity": 76}, {"time": 1748, "pitch": 60, "duration": 7, "velocity": 86}, {"time": 1748, "pitch": 67, "duration": 8, "velocity": 98}, {"time": 1754, "pitch": 53, "duration": 10, "velocity": 83}, {"time": 1757, "pitch": 60, "duration": 13, "velocity": 92}, {"time": 1757, "pitch": 65, "duration": 13, "velocity": 102}, {"time": 1769, "pitch": 53, "duration": 8, "velocity": 87}, {"time": 1772, "pitch": 60, "duration": 2, "velocity": 88}, {"time": 1775, "pitch": 67, "duration": 4, "velocity": 104}, {"time": 1781, "pitch": 41, "duration": 20, "velocity": 88}, {"time": 1781, "pitch": 60, "duration": 8, "velocity": 91}, {"time": 1781, "pitch": 65, "duration": 8, "velocity": 104}, {"time": 1787, "pitch": 48, "duration": 17, "velocity": 80}, {"time": 1790, "pitch": 60, "duration": 1, "velocity": 85}, {"time": 1790, "pitch": 65, "duration": 7, "velocity": 110}, {"time": 1796, "pitch": 53, "duration": 5, "velocity": 86}, {"time": 1799, "pitch": 60, "duration": 4, "velocity": 86}, {"time": 1802, "pitch": 65, "duration": 2, "velocity": 89}, {"time": 1805, "pitch": 39, "duration": 19, "velocity": 87}, {"time": 1805, "pitch": 60, "duration": 7, "velocity": 94}, {"time": 1805, "pitch": 67, "duration": 8, "velocity": 104}, {"time": 1811, "pitch": 48, "duration": 12, "velocity": 77}, {"time": 1814, "pitch": 60, "duration": 6, "velocity": 89}, {"time": 1814, "pitch": 67, "duration": 6, "velocity": 108}, {"time": 1820, "pitch": 51, "duration": 3, "velocity": 84}, {"time": 1823, "pitch": 60, "duration": 4, "velocity": 91}, {"time": 1823, "pitch": 67, "duration": 5, "velocity": 108}, {"time": 1829, "pitch": 37, "duration": 2, "velocity": 92}, {"time": 1829, "pitch": 60, "duration": 1, "velocity": 98}, {"time": 1829, "pitch": 68, "duration": 14, "velocity": 102}, {"time": 1835, "pitch": 49, "duration": 11, "velocity": 88}, {"time": 1838, "pitch": 56, "duration": 8, "velocity": 86}, {"time": 1844, "pitch": 65, "duration": 3, "velocity": 102}, {"time": 1847, "pitch": 68, "duration": 5, "velocity": 94}, {"time": 1853, "pitch": 48, "duration": 18, "velocity": 88}, {"time": 1853, "pitch": 58, "duration": 13, "velocity": 87}, {"time": 1853, "pitch": 67, "duration": 13, "velocity": 92}, {"time": 1862, "pitch": 55, "duration": 8, "velocity": 89}, {"time": 1868, "pitch": 58, "duration": 3, "velocity": 92}, {"time": 1871, "pitch": 67, "duration": 5, "velocity": 96}, {"time": 1877, "pitch": 46, "duration": 19, "velocity": 89}, {"time": 1877, "pitch": 65, "duration": 10, "velocity": 96}, {"time": 1883, "pitch": 53, "duration": 17, "velocity": 84}, {"time": 1886, "pitch": 58, "duration": 2, "velocity": 88}, {"time": 1889, "pitch": 61, "duration": 4, "velocity": 84}, {"time": 1892, "pitch": 65, "duration": 2, "velocity": 88}, {"time": 1895, "pitch": 68, "duration": 6, "velocity": 104}, {"time": 1901, "pitch": 48, "duration": 18, "velocity": 87}, {"time": 1901, "pitch": 67, "duration": 8, "velocity": 91}, {"time": 1907, "pitch": 55, "duration": 4, "velocity": 78}, {"time": 1910, "pitch": 64, "duration": 8, "velocity": 91}, {"time": 1910, "pitch": 67, "duration": 6, "velocity": 88}, {"time": 1916, "pitch": 55, "duration": 3, "velocity": 81}, {"time": 1919, "pitch": 67, "duration": 5, "velocity": 107}, {"time": 1925, "pitch": 41, "duration": 45, "velocity": 88}, {"time": 1925, "pitch": 60, "duration": 7, "velocity": 88}, {"time": 1931, "pitch": 48, "duration": 39, "velocity": 78}, {"time": 1934, "pitch": 60, "duration": 6, "velocity": 100}, {"time": 1934, "pitch": 68, "duration": 6, "velocity": 100}, {"time": 1937, "pitch": 53, "duration": 5, "velocity": 76}, {"time": 1940, "pitch": 60, "duration": 7, "velocity": 86}, {"time": 1940, "pitch": 67, "duration": 8, "velocity": 98}, {"time": 1946, "pitch": 53, "duration": 10, "velocity": 83}, {"time": 1949, "pitch": 60, "duration": 13, "velocity": 92}, {"time": 1949, "pitch": 65, "duration": 13, "velocity": 102}, {"time": 1961, "pitch": 53, "duration": 8, "velocity": 87}, {"time": 1964, "pitch": 60, "duration": 2, "velocity": 88}, {"time": 1967, "pitch": 67, "duration": 4, "velocity": 104}, {"time": 1973, "pitch": 53, "duration": 24, "velocity": 87}, {"time": 1973, "pitch": 68, "duration": 11, "velocity": 92}, {"time": 1973, "pitch": 77, "duration": 10, "velocity": 100}, {"time": 1979, "pitch": 60, "duration": 9, "velocity": 64}, {"time": 1982, "pitch": 72, "duration": 6, "velocity": 96}, {"time": 1988, "pitch": 68, "duration": 5, "velocity": 89}, {"time": 1994, "pitch": 70, "duration": 2, "velocity": 46}, {"time": 1997, "pitch": 51, "duration": 24, "velocity": 87}, {"time": 1997, "pitch": 67, "duration": 16, "velocity": 103}, {"time": 1997, "pitch": 75, "duration": 13, "velocity": 100}, {"time": 2012, "pitch": 70, "duration": 3, "velocity": 87}, {"time": 2015, "pitch": 75, "duration": 5, "velocity": 102}, {"time": 2021, "pitch": 49, "duration": 24, "velocity": 89}, {"time": 2021, "pitch": 65, "duration": 13, "velocity": 91}, {"time": 2021, "pitch": 73, "duration": 13, "velocity": 96}, {"time": 2036, "pitch": 73, "duration": 9, "velocity": 96}, {"time": 2045, "pitch": 48, "duration": 23, "velocity": 87}, {"time": 2045, "pitch": 63, "duration": 13, "velocity": 92}, {"time": 2045, "pitch": 72, "duration": 12, "velocity": 92}, {"time": 2060, "pitch": 72, "duration": 8, "velocity": 102}, {"time": 2069, "pitch": 46, "duration": 24, "velocity": 83}, {"time": 2069, "pitch": 58, "duration": 9, "velocity": 83}, {"time": 2069, "pitch": 61, "duration": 13, "velocity": 92}, {"time": 2069, "pitch": 70, "duration": 13, "velocity": 91}, {"time": 2069, "pitch": 72, "duration": 3, "velocity": 92}, {"time": 2081, "pitch": 58, "duration": 5, "velocity": 86}, {"time": 2084, "pitch": 61, "duration": 4, "velocity": 93}, {"time": 2087, "pitch": 70, "duration": 5, "velocity": 100}, {"time": 2093, "pitch": 48, "duration": 17, "velocity": 84}, {"time": 2093, "pitch": 64, "duration": 12, "velocity": 93}, {"time": 2093, "pitch": 67, "duration": 15, "velocity": 91}, {"time": 2093, "pitch": 72, "duration": 12, "velocity": 98}, {"time": 2105, "pitch": 55, "duration": 6, "velocity": 76}, {"time": 2108, "pitch": 64, "duration": 3, "velocity": 87}, {"time": 2111, "pitch": 67, "duration": 1, "velocity": 44}, {"time": 2111, "pitch": 72, "duration": 18, "velocity": 96}, {"time": 2117, "pitch": 53, "duration": 48, "velocity": 85}, {"time": 2117, "pitch": 65, "duration": 13, "velocity": 84}, {"time": 2117, "pitch": 68, "duration": 13, "velocity": 88}, {"time": 2129, "pitch": 60, "duration": 18, "velocity": 70}, {"time": 2135, "pitch": 65, "duration": 13, "velocity": 92}, {"time": 2135, "pitch": 72, "duration": 12, "velocity": 100}, {"time": 2147, "pitch": 68, "duration": 7, "velocity": 88}, {"time": 2153, "pitch": 60, "duration": 13, "velocity": 87}, {"time": 2156, "pitch": 65, "duration": 3, "velocity": 87}, {"time": 2159, "pitch": 72, "duration": 5, "velocity": 107}, {"time": 2165, "pitch": 53, "duration": 1, "velocity": 87}, {"time": 2165, "pitch": 68, "duration": 11, "velocity": 92}, {"time": 2165, "pitch": 77, "duration": 10, "velocity": 100}, {"time": 2171, "pitch": 60, "duration": 9, "velocity": 64}, {"time": 2174, "pitch": 72, "duration": 6, "velocity": 96}, {"time": 2180, "pitch": 68, "duration": 5, "velocity": 89}, {"time": 2186, "pitch": 70, "duration": 2, "velocity": 46}, {"time": 2189, "pitch": 51, "duration": 24, "velocity": 87}, {"time": 2189, "pitch": 67, "duration": 16, "velocity": 103}, {"time": 2189, "pitch": 75, "duration": 13, "velocity": 100}, {"time": 2204, "pitch": 70, "duration": 3, "velocity": 87}, {"time": 2207, "pitch": 75, "duration": 5, "velocity": 102}, {"time": 2213, "pitch": 49, "duration": 24, "velocity": 89}, {"time": 2213, "pitch": 65, "duration": 13, "velocity": 91}, {"time": 2213, "pitch": 73, "duration": 13, "velocity": 96}, {"time": 2228, "pitch": 73, "duration": 9, "velocity": 96}, {"time": 2237, "pitch": 48, "duration": 23, "velocity": 87}, {"time": 2237, "pitch": 63, "duration": 13, "velocity": 92}, {"time": 2237, "pitch": 72, "duration": 12, "velocity": 92}, {"time": 2252, "pitch": 72, "duration": 8, "velocity": 102}, {"time": 2261, "pitch": 46, "duration": 24, "velocity": 83}, {"time": 2261, "pitch": 58, "duration": 9, "velocity": 83}, {"time": 2261, "pitch": 61, "duration": 13, "velocity": 92}, {"time": 2261, "pitch": 70, "duration": 13, "velocity": 91}, {"time": 2261, "pitch": 72, "duration": 3, "velocity": 92}, {"time": 2273, "pitch": 58, "duration": 5, "velocity": 86}, {"time": 2276, "pitch": 61, "duration": 4, "velocity": 93}, {"time": 2279, "pitch": 70, "duration": 5, "velocity": 100}, {"time": 2285, "pitch": 48, "duration": 17, "velocity": 84}, {"time": 2285, "pitch": 64, "duration": 12, "velocity": 93}, {"time": 2285, "pitch": 67, "duration": 15, "velocity": 91}, {"time": 2285, "pitch": 72, "duration": 12, "velocity": 98}, {"time": 2297, "pitch": 55, "duration": 6, "velocity": 76}, {"time": 2300, "pitch": 64, "duration": 3, "velocity": 87}, {"time": 2303, "pitch": 67, "duration": 1, "velocity": 44}, {"time": 2303, "pitch": 72, "duration": 18, "velocity": 96}, {"time": 2309, "pitch": 53, "duration": 48, "velocity": 85}, {"time": 2309, "pitch": 65, "duration": 13, "velocity": 84}, {"time": 2309, "pitch": 68, "duration": 13, "velocity": 88}, {"time": 2321, "pitch": 60, "duration": 18, "velocity": 70}, {"time": 2327, "pitch": 65, "duration": 13, "velocity": 92}, {"time": 2327, "pitch": 72, "duration": 12, "velocity": 100}, {"time": 2339, "pitch": 68, "duration": 7, "velocity": 88}, {"time": 2345, "pitch": 60, "duration": 13, "velocity": 87}, {"time": 2348, "pitch": 65, "duration": 3, "velocity": 87}, {"time": 2351, "pitch": 72, "duration": 5, "velocity": 107}, {"time": 2357, "pitch": 41, "duration": 20, "velocity": 88}, {"time": 2357, "pitch": 60, "duration": 1, "velocity": 91}, {"time": 2357, "pitch": 65, "duration": 8, "velocity": 104}, {"time": 2363, "pitch": 48, "duration": 17, "velocity": 80}, {"time": 2366, "pitch": 60, "duration": 1, "velocity": 85}, {"time": 2366, "pitch": 65, "duration": 7, "velocity": 110}, {"time": 2372, "pitch": 53, "duration": 5, "velocity": 86}, {"time": 2375, "pitch": 60, "duration": 4, "velocity": 86}, {"time": 2378, "pitch": 65, "duration": 2, "velocity": 89}, {"time": 2381, "pitch": 39, "duration": 19, "velocity": 87}, {"time": 2381, "pitch": 60, "duration": 7, "velocity": 94}, {"time": 2381, "pitch": 67, "duration": 8, "velocity": 104}, {"time": 2387, "pitch": 48, "duration": 12, "velocity": 77}, {"time": 2390, "pitch": 60, "duration": 6, "velocity": 89}, {"time": 2390, "pitch": 67, "duration": 6, "velocity": 108}, {"time": 2396, "pitch": 51, "duration": 3, "velocity": 84}, {"time": 2399, "pitch": 60, "duration": 4, "velocity": 91}, {"time": 2399, "pitch": 67, "duration": 5, "velocity": 108}, {"time": 2405, "pitch": 37, "duration": 2, "velocity": 92}, {"time": 2405, "pitch": 60, "duration": 1, "velocity": 98}, {"time": 2405, "pitch": 68, "duration": 14, "velocity": 102}, {"time": 2411, "pitch": 49, "duration": 11, "velocity": 88}, {"time": 2414, "pitch": 56, "duration": 8, "velocity": 86}, {"time": 2420, "pitch": 65, "duration": 3, "velocity": 102}, {"time": 2423, "pitch": 68, "duration": 5, "velocity": 94}, {"time": 2429, "pitch": 48, "duration": 18, "velocity": 88}, {"time": 2429, "pitch": 58, "duration": 13, "velocity": 87}, {"time": 2429, "pitch": 67, "duration": 13, "velocity": 92}, {"time": 2438, "pitch": 55, "duration": 8, "velocity": 89}, {"time": 2444, "pitch": 58, "duration": 3, "velocity": 92}, {"time": 2447, "pitch": 67, "duration": 5, "velocity": 96}, {"time": 2453, "pitch": 46, "duration": 19, "velocity": 89}, {"time": 2453, "pitch": 65, "duration": 10, "velocity": 96}, {"time": 2459, "pitch": 53, "duration": 17, "velocity": 84}, {"time": 2462, "pitch": 58, "duration": 2, "velocity": 88}, {"time": 2465, "pitch": 61, "duration": 4, "velocity": 84}, {"time": 2468, "pitch": 65, "duration": 2, "velocity": 88}, {"time": 2471, "pitch": 68, "duration": 6, "velocity": 104}, {"time": 2477, "pitch": 48, "duration": 18, "velocity": 87}, {"time": 2477, "pitch": 67, "duration": 8, "velocity": 91}, {"time": 2483, "pitch": 55, "duration": 4, "velocity": 78}, {"time": 2486, "pitch": 64, "duration": 8, "velocity": 91}, {"time": 2486, "pitch": 67, "duration": 6, "velocity": 88}, {"time": 2492, "pitch": 55, "duration": 3, "velocity": 81}, {"time": 2495, "pitch": 67, "duration": 5, "velocity": 107}, {"time": 2501, "pitch": 41, "duration": 45, "velocity": 88}, {"time": 2501, "pitch": 60, "duration": 7, "velocity": 88}, {"time": 2501, "pitch": 67, "duration": 8, "velocity": 104}, {"time": 2507, "pitch": 48, "duration": 39, "velocity": 78}, {"time": 2510, "pitch": 60, "duration": 6, "velocity": 100}, {"time": 2510, "pitch": 68, "duration": 6, "velocity": 100}, {"time": 2513, "pitch": 53, "duration": 5, "velocity": 76}, {"time": 2516, "pitch": 60, "duration": 7, "velocity": 86}, {"time": 2516, "pitch": 67, "duration": 8, "velocity": 98}, {"time": 2522, "pitch": 53, "duration": 10, "velocity": 83}, {"time": 2525, "pitch": 60, "duration": 13, "velocity": 92}, {"time": 2525, "pitch": 65, "duration": 13, "velocity": 102}, {"time": 2537, "pitch": 53, "duration": 8, "velocity": 87}, {"time": 2540, "pitch": 60, "duration": 2, "velocity": 88}, {"time": 2543, "pitch": 67, "duration": 4, "velocity": 104}, {"time": 2549, "pitch": 41, "duration": 20, "velocity": 88}, {"time": 2549, "pitch": 60, "duration": 8, "velocity": 91}, {"time": 2549, "pitch": 65, "duration": 8, "velocity": 104}, {"time": 2555, "pitch": 48, "duration": 17, "velocity": 80}, {"time": 2558, "pitch": 60, "duration": 1, "velocity": 85}, {"time": 2558, "pitch": 65, "duration": 7, "velocity": 110}, {"time": 2564, "pitch": 53, "duration": 5, "velocity": 86}, {"time": 2567, "pitch": 60, "duration": 4, "velocity": 86}, {"time": 2570, "pitch": 65, "duration": 2, "velocity": 89}, {"time": 2573, "pitch": 39, "duration": 19, "velocity": 87}, {"time": 2573, "pitch": 60, "duration": 7, "velocity": 94}, {"time": 2573, "pitch": 67, "duration": 8, "velocity": 104}, {"time": 2579, "pitch": 48, "duration": 12, "velocity": 77}, {"time": 2582, "pitch": 60, "duration": 6, "velocity": 89}, {"time": 2582, "pitch": 67, "duration": 6, "velocity": 108}, {"time": 2588, "pitch": 51, "duration": 3, "velocity": 84}, {"time": 2591, "pitch": 60, "duration": 4, "velocity": 91}, {"time": 2591, "pitch": 67, "duration": 5, "velocity": 108}, {"time": 2597, "pitch": 37, "duration": 2, "velocity": 92}, {"time": 2597, "pitch": 60, "duration": 1, "velocity": 98}, {"time": 2597, "pitch": 68, "duration": 14, "velocity": 102}, {"time": 2603, "pitch": 49, "duration": 11, "velocity": 88}, {"time": 2606, "pitch": 56, "duration": 8, "velocity": 86}, {"time": 2612, "pitch": 65, "duration": 3, "velocity": 102}, {"time": 2615, "pitch": 68, "duration": 5, "velocity": 94}, {"time": 2621, "pitch": 48, "duration": 18, "velocity": 88}, {"time": 2621, "pitch": 58, "duration": 13, "velocity": 87}, {"time": 2621, "pitch": 67, "duration": 13, "velocity": 92}, {"time": 2630, "pitch": 55, "duration": 8, "velocity": 89}, {"time": 2636, "pitch": 58, "duration": 3, "velocity": 92}, {"time": 2639, "pitch": 67, "duration": 5, "velocity": 96}, {"time": 2645, "pitch": 46, "duration": 19, "velocity": 89}, {"time": 2645, "pitch": 65, "duration": 10, "velocity": 96}, {"time": 2651, "pitch": 53, "duration": 17, "velocity": 84}, {"time": 2654, "pitch": 58, "duration": 2, "velocity": 88}, {"time": 2657, "pitch": 61, "duration": 4, "velocity": 84}, {"time": 2660, "pitch": 65, "duration": 2, "velocity": 88}, {"time": 2663, "pitch": 68, "duration": 6, "velocity": 104}, {"time": 2669, "pitch": 48, "duration": 18, "velocity": 87}, {"time": 2669, "pitch": 67, "duration": 8, "velocity": 91}, {"time": 2675, "pitch": 55, "duration": 4, "velocity": 78}, {"time": 2678, "pitch": 64, "duration": 8, "velocity": 91}, {"time": 2678, "pitch": 67, "duration": 6, "velocity": 88}, {"time": 2684, "pitch": 55, "duration": 3, "velocity": 81}, {"time": 2687, "pitch": 67, "duration": 5, "velocity": 107}, {"time": 2693, "pitch": 41, "duration": 45, "velocity": 88}, {"time": 2693, "pitch": 60, "duration": 7, "velocity": 88}, {"time": 2693, "pitch": 67, "duration": 8, "velocity": 104}, {"time": 2699, "pitch": 48, "duration": 39, "velocity": 78}, {"time": 2702, "pitch": 60, "duration": 6, "velocity": 100}, {"time": 2702, "pitch": 68, "duration": 6, "velocity": 100}, {"time": 2705, "pitch": 53, "duration": 5, "velocity": 76}, {"time": 2708, "pitch": 60, "duration": 7, "velocity": 86}, {"time": 2708, "pitch": 67, "duration": 8, "velocity": 98}, {"time": 2714, "pitch": 53, "duration": 10, "velocity": 83}, {"time": 2717, "pitch": 60, "duration": 13, "velocity": 92}, {"time": 2717, "pitch": 65, "duration": 13, "velocity": 102}, {"time": 2729, "pitch": 53, "duration": 8, "velocity": 87}, {"time": 2732, "pitch": 60, "duration": 2, "velocity": 88}, {"time": 2735, "pitch": 67, "duration": 4, "velocity": 104}, {"time": 2741, "pitch": 41, "duration": 20, "velocity": 88}, {"time": 2741, "pitch": 60, "duration": 8, "velocity": 91}, {"time": 2741, "pitch": 65, "duration": 8, "velocity": 104}, {"time": 2747, "pitch": 48, "duration": 17, "velocity": 80}, {"time": 2750, "pitch": 60, "duration": 1, "velocity": 85}, {"time": 2750, "pitch": 65, "duration": 7, "velocity": 110}, {"time": 2756, "pitch": 53, "duration": 5, "velocity": 86}, {"time": 2759, "pitch": 60, "duration": 4, "velocity": 86}, {"time": 2762, "pitch": 65, "duration": 2, "velocity": 89}, {"time": 2765, "pitch": 39, "duration": 19, "velocity": 87}, {"time": 2765, "pitch": 60, "duration": 7, "velocity": 94}, {"time": 2765, "pitch": 67, "duration": 8, "velocity": 104}, {"time": 2771, "pitch": 48, "duration": 12, "velocity": 77}, {"time": 2774, "pitch": 60, "duration": 6, "velocity": 89}, {"time": 2774, "pitch": 67, "duration": 6, "velocity": 108}, {"time": 2780, "pitch": 51, "duration": 3, "velocity": 84}, {"time": 2783, "pitch": 60, "duration": 4, "velocity": 91}, {"time": 2783, "pitch": 67, "duration": 5, "velocity": 108}, {"time": 2789, "pitch": 37, "duration": 2, "velocity": 92}, {"time": 2789, "pitch": 60, "duration": 1, "velocity": 98}, {"time": 2789, "pitch": 68, "duration": 14, "velocity": 102}, {"time": 2795, "pitch": 49, "duration": 11, "velocity": 88}, {"time": 2798, "pitch": 56, "duration": 8, "velocity": 86}, {"time": 2804, "pitch": 65, "duration": 3, "velocity": 102}, {"time": 2807, "pitch": 68, "duration": 5, "velocity": 94}, {"time": 2813, "pitch": 48, "duration": 18, "velocity": 88}, {"time": 2813, "pitch": 58, "duration": 13, "velocity": 87}, {"time": 2813, "pitch": 67, "duration": 13, "velocity": 92}, {"time": 2822, "pitch": 55, "duration": 8, "velocity": 89}, {"time": 2828, "pitch": 58, "duration": 3, "velocity": 92}, {"time": 2831, "pitch": 67, "duration": 5, "velocity": 96}, {"time": 2837, "pitch": 46, "duration": 19, "velocity": 89}, {"time": 2837, "pitch": 65, "duration": 10, "velocity": 96}, {"time": 2843, "pitch": 53, "duration": 17, "velocity": 84}, {"time": 2846, "pitch": 58, "duration": 2, "velocity": 88}, {"time": 2849, "pitch": 61, "duration": 4, "velocity": 84}, {"time": 2852, "pitch": 65, "duration": 2, "velocity": 88}, {"time": 2855, "pitch": 68, "duration": 6, "velocity": 104}, {"time": 2861, "pitch": 48, "duration": 18, "velocity": 87}, {"time": 2861, "pitch": 67, "duration": 8, "velocity": 91}, {"time": 2867, "pitch": 55, "duration": 4, "velocity": 78}, {"time": 2870, "pitch": 64, "duration": 8, "velocity": 91}, {"time": 2870, "pitch": 67, "duration": 6, "velocity": 88}, {"time": 2876, "pitch": 55, "duration": 3, "velocity": 81}, {"time": 2879, "pitch": 67, "duration": 5, "velocity": 107}, {"time": 2885, "pitch": 41, "duration": 45, "velocity": 88}, {"time": 2885, "pitch": 60, "duration": 7, "velocity": 88}, {"time": 2885, "pitch": 67, "duration": 8, "velocity": 104}, {"time": 2891, "pitch": 48, "duration": 39, "velocity": 78}, {"time": 2894, "pitch": 60, "duration": 6, "velocity": 100}, {"time": 2894, "pitch": 68, "duration": 6, "velocity": 100}, {"time": 2897, "pitch": 53, "duration": 5, "velocity": 76}, {"time": 2900, "pitch": 60, "duration": 7, "velocity": 86}, {"time": 2900, "pitch": 67, "duration": 8, "velocity": 98}, {"time": 2906, "pitch": 53, "duration": 10, "velocity": 83}, {"time": 2909, "pitch": 60, "duration": 13, "velocity": 92}, {"time": 2909, "pitch": 65, "duration": 13, "velocity": 102}, {"time": 2921, "pitch": 53, "duration": 8, "velocity": 87}, {"time": 2924, "pitch": 60, "duration": 2, "velocity": 88}, {"time": 2927, "pitch": 67, "duration": 4, "velocity": 104}, {"time": 2933, "pitch": 41, "duration": 20, "velocity": 88}, {"time": 2933, "pitch": 60, "duration": 8, "velocity": 91}, {"time": 2933, "pitch": 65, "duration": 8, "velocity": 104}, {"time": 2939, "pitch": 48, "duration": 17, "velocity": 80}, {"time": 2942, "pitch": 60, "duration": 1, "velocity": 85}, {"time": 2942, "pitch": 65, "duration": 7, "velocity": 110}, {"time": 2948, "pitch": 53, "duration": 5, "velocity": 86}, {"time": 2951, "pitch": 60, "duration": 4, "velocity": 86}, {"time": 2954, "pitch": 65, "duration": 2, "velocity": 89}, {"time": 2957, "pitch": 39, "duration": 19, "velocity": 87}, {"time": 2957, "pitch": 60, "duration": 7, "velocity": 94}, {"time": 2957, "pitch": 67, "duration": 8, "velocity": 104}, {"time": 2963, "pitch": 48, "duration": 12, "velocity": 77}, {"time": 2966, "pitch": 60, "duration": 6, "velocity": 89}, {"time": 2966, "pitch": 67, "duration": 6, "velocity": 108}, {"time": 2972, "pitch": 51, "duration": 3, "velocity": 84}, {"time": 2975, "pitch": 60, "duration": 4, "velocity": 91}, {"time": 2975, "pitch": 67, "duration": 5, "velocity": 108}, {"time": 2981, "pitch": 37, "duration": 2, "velocity": 92}, {"time": 2981, "pitch": 60, "duration": 1, "velocity": 98}, {"time": 2981, "pitch": 68, "duration": 14, "velocity": 102}, {"time": 2987, "pitch": 49, "duration": 11, "velocity": 88}, {"time": 2990, "pitch": 56, "duration": 8, "velocity": 86}, {"time": 2996, "pitch": 65, "duration": 3, "velocity": 102}, {"time": 2999, "pitch": 68, "duration": 5, "velocity": 94}, {"time": 3005, "pitch": 48, "duration": 18, "velocity": 88}, {"time": 3005, "pitch": 58, "duration": 13, "velocity": 87}, {"time": 3005, "pitch": 67, "duration": 13, "velocity": 92}, {"time": 3014, "pitch": 55, "duration": 8, "velocity": 89}, {"time": 3020, "pitch": 58, "duration": 3, "velocity": 92}, {"time": 3023, "pitch": 67, "duration": 5, "velocity": 96}, {"time": 3029, "pitch": 46, "duration": 19, "velocity": 89}, {"time": 3029, "pitch": 65, "duration": 10, "velocity": 96}, {"time": 3035, "pitch": 53, "duration": 17, "velocity": 84}, {"time": 3038, "pitch": 58, "duration": 2, "velocity": 88}, {"time": 3041, "pitch": 61, "duration": 4, "velocity": 84}, {"time": 3044, "pitch": 65, "duration": 2, "velocity": 88}, {"time": 3047, "pitch": 68, "duration": 6, "velocity": 104}, {"time": 3053, "pitch": 48, "duration": 18, "velocity": 87}, {"time": 3053, "pitch": 67, "duration": 8, "velocity": 91}, {"time": 3059, "pitch": 55, "duration": 4, "velocity": 78}, {"time": 3062, "pitch": 64, "duration": 8, "velocity": 91}, {"time": 3062, "pitch": 67, "duration": 6, "velocity": 88}, {"time": 3068, "pitch": 55, "duration": 3, "velocity": 81}, {"time": 3071, "pitch": 67, "duration": 5, "velocity": 107}, {"time": 3077, "pitch": 41, "duration": 45, "velocity": 88}, {"time": 3077, "pitch": 60, "duration": 7, "velocity": 88}, {"time": 3077, "pitch": 67, "duration": 8, "velocity": 104}, {"time": 3083, "pitch": 48, "duration": 39, "velocity": 78}, {"time": 3086, "pitch": 60, "duration": 6, "velocity": 100}, {"time": 3086, "pitch": 68, "duration": 6, "velocity": 100}, {"time": 3089, "pitch": 53, "duration": 5, "velocity": 76}, {"time": 3092, "pitch": 60, "duration": 7, "velocity": 86}, {"time": 3092, "pitch": 67, "duration": 8, "velocity": 98}, {"time": 3098, "pitch": 53, "duration": 10, "velocity": 83}, {"time": 3101, "pitch": 60, "duration": 13, "velocity": 92}, {"time": 3101, "pitch": 65, "duration": 13, "velocity": 102}, {"time": 3113, "pitch": 53, "duration": 8, "velocity": 87}, {"time": 3116, "pitch": 60, "duration": 2, "velocity": 88}, {"time": 3119, "pitch": 67, "duration": 4, "velocity": 104}, {"time": 3125, "pitch": 41, "duration": 20, "velocity": 88}, {"time": 3125, "pitch": 60, "duration": 8, "velocity": 91}, {"time": 3125, "pitch": 65, "duration": 8, "velocity": 104}, {"time": 3131, "pitch": 48, "duration": 17, "velocity": 80}, {"time": 3134, "pitch": 60, "duration": 1, "velocity": 85}, {"time": 3134, "pitch": 65, "duration": 7, "velocity": 110}, {"time": 3140, "pitch": 53, "duration": 5, "velocity": 86}, {"time": 3143, "pitch": 60, "duration": 4, "velocity": 86}, {"time": 3146, "pitch": 65, "duration": 2, "velocity": 89}, {"time": 3149, "pitch": 39, "duration": 19, "velocity": 87}, {"time": 3149, "pitch": 60, "duration": 7, "velocity": 94}, {"time": 3149, "pitch": 67, "duration": 8, "velocity": 104}, {"time": 3155, "pitch": 48, "duration": 12, "velocity": 77}, {"time": 3158, "pitch": 60, "duration": 6, "velocity": 89}, {"time": 3158, "pitch": 67, "duration": 6, "velocity": 108}, {"time": 3164, "pitch": 51, "duration": 3, "velocity": 84}, {"time": 3167, "pitch": 60, "duration": 4, "velocity": 91}, {"time": 3167, "pitch": 67, "duration": 5, "velocity": 108}, {"time": 3173, "pitch": 37, "duration": 2, "velocity": 92}, {"time": 3173, "pitch": 60, "duration": 1, "velocity": 98}, {"time": 3173, "pitch": 68, "duration": 14, "velocity": 102}, {"time": 3179, "pitch": 49, "duration": 11, "velocity": 88}, {"time": 3182, "pitch": 56, "duration": 8, "velocity": 86}, {"time": 3188, "pitch": 65, "duration": 3, "velocity": 102}, {"time": 3191, "pitch": 68, "duration": 5, "velocity": 94}, {"time": 3197, "pitch": 48, "duration": 18, "velocity": 88}, {"time": 3197, "pitch": 58, "duration": 13, "velocity": 87}, {"time": 3197, "pitch": 67, "duration": 13, "velocity": 92}, {"time": 3206, "pitch": 55, "duration": 8, "velocity": 89}, {"time": 3212, "pitch": 58, "duration": 3, "velocity": 92}, {"time": 3215, "pitch": 67, "duration": 5, "velocity": 96}, {"time": 3221, "pitch": 46, "duration": 19, "velocity": 89}, {"time": 3221, "pitch": 65, "duration": 10, "velocity": 96}, {"time": 3227, "pitch": 53, "duration": 17, "velocity": 84}, {"time": 3230, "pitch": 58, "duration": 2, "velocity": 88}, {"time": 3233, "pitch": 61, "duration": 4, "velocity": 84}, {"time": 3236, "pitch": 65, "duration": 2, "velocity": 88}, {"time": 3239, "pitch": 68, "duration": 6, "velocity": 104}, {"time": 3245, "pitch": 48, "duration": 18, "velocity": 87}, {"time": 3245, "pitch": 67, "duration": 8, "velocity": 91}, {"time": 3251, "pitch": 55, "duration": 4, "velocity": 78}, {"time": 3254, "pitch": 64, "duration": 8, "velocity": 91}, {"time": 3254, "pitch": 67, "duration": 6, "velocity": 88}, {"time": 3260, "pitch": 55, "duration": 3, "velocity": 81}, {"time": 3263, "pitch": 67, "duration": 5, "velocity": 107}, {"time": 3269, "pitch": 41, "duration": 45, "velocity": 88}, {"time": 3269, "pitch": 60, "duration": 7, "velocity": 88}, {"time": 3269, "pitch": 67, "duration": 8, "velocity": 104}, {"time": 3275, "pitch": 48, "duration": 39, "velocity": 78}, {"time": 3278, "pitch": 60, "duration": 6, "velocity": 100}, {"time": 3278, "pitch": 68, "duration": 6, "velocity": 100}, {"time": 3281, "pitch": 53, "duration": 5, "velocity": 76}, {"time": 3284, "pitch": 60, "duration": 7, "velocity": 86}, {"time": 3284, "pitch": 67, "duration": 8, "velocity": 98}, {"time": 3290, "pitch": 53, "duration": 10, "velocity": 83}, {"time": 3293, "pitch": 60, "duration": 13, "velocity": 92}, {"time": 3293, "pitch": 65, "duration": 13, "velocity": 102}, {"time": 3305, "pitch": 53, "duration": 8, "velocity": 87}, {"time": 3308, "pitch": 60, "duration": 2, "velocity": 88}, {"time": 3311, "pitch": 67, "duration": 4, "velocity": 104}, {"time": 3317, "pitch": 41, "duration": 20, "velocity": 88}, {"time": 3317, "pitch": 60, "duration": 8, "velocity": 91}, {"time": 3317, "pitch": 65, "duration": 8, "velocity": 104}, {"time": 3323, "pitch": 48, "duration": 17, "velocity": 80}, {"time": 3326, "pitch": 60, "duration": 1, "velocity": 85}, {"time": 3326, "pitch": 65, "duration": 7, "velocity": 110}, {"time": 3332, "pitch": 53, "duration": 5, "velocity": 86}, {"time": 3335, "pitch": 60, "duration": 4, "velocity": 86}, {"time": 3338, "pitch": 65, "duration": 2, "velocity": 89}, {"time": 3341, "pitch": 39, "duration": 19, "velocity": 87}, {"time": 3341, "pitch": 60, "duration": 7, "velocity": 94}, {"time": 3341, "pitch": 67, "duration": 8, "velocity": 104}, {"time": 3347, "pitch": 48, "duration": 12, "velocity": 77}, {"time": 3350, "pitch": 60, "duration": 6, "velocity": 89}, {"time": 3350, "pitch": 67, "duration": 6, "velocity": 108}, {"time": 3356, "pitch": 51, "duration": 3, "velocity": 84}, {"time": 3359, "pitch": 60, "duration": 4, "velocity": 91}, {"time": 3359, "pitch": 67, "duration": 5, "velocity": 108}, {"time": 3365, "pitch": 37, "duration": 2, "velocity": 92}, {"time": 3365, "pitch": 60, "duration": 1, "velocity": 98}, {"time": 3365, "pitch": 68, "duration": 14, "velocity": 102}, {"time": 3371, "pitch": 49, "duration": 11, "velocity": 88}, {"time": 3374, "pitch": 56, "duration": 8, "velocity": 86}, {"time": 3380, "pitch": 65, "duration": 3, "velocity": 102}, {"time": 3383, "pitch": 68, "duration": 5, "velocity": 94}, {"time": 3389, "pitch": 48, "duration": 18, "velocity": 88}, {"time": 3389, "pitch": 58, "duration": 13, "velocity": 87}, {"time": 3389, "pitch": 67, "duration": 13, "velocity": 92}, {"time": 3398, "pitch": 55, "duration": 8, "velocity": 89}, {"time": 3404, "pitch": 58, "duration": 3, "velocity": 92}, {"time": 3407, "pitch": 67, "duration": 5, "velocity": 96}, {"time": 3413, "pitch": 46, "duration": 19, "velocity": 89}, {"time": 3413, "pitch": 65, "duration": 10, "velocity": 96}, {"time": 3419, "pitch": 53, "duration": 17, "velocity": 84}, {"time": 3422, "pitch": 58, "duration": 2, "velocity": 88}, {"time": 3425, "pitch": 61, "duration": 4, "velocity": 84}, {"time": 3428, "pitch": 65, "duration": 2, "velocity": 88}, {"time": 3431, "pitch": 68, "duration": 6, "velocity": 104}, {"time": 3437, "pitch": 48, "duration": 18, "velocity": 87}, {"time": 3437, "pitch": 67, "duration": 8, "velocity": 91}, {"time": 3443, "pitch": 55, "duration": 4, "velocity": 78}, {"time": 3446, "pitch": 64, "duration": 8, "velocity": 91}, {"time": 3446, "pitch": 67, "duration": 6, "velocity": 88}, {"time": 3452, "pitch": 55, "duration": 3, "velocity": 81}, {"time": 3455, "pitch": 67, "duration": 5, "velocity": 107}, {"time": 3461, "pitch": 41, "duration": 45, "velocity": 88}, {"time": 3461, "pitch": 60, "duration": 7, "velocity": 88}, {"time": 3461, "pitch": 67, "duration": 8, "velocity": 104}, {"time": 3467, "pitch": 48, "duration": 39, "velocity": 78}, {"time": 3470, "pitch": 60, "duration": 6, "velocity": 100}, {"time": 3470, "pitch": 68, "duration": 6, "velocity": 100}, {"time": 3473, "pitch": 53, "duration": 5, "velocity": 76}, {"time": 3476, "pitch": 60, "duration": 7, "velocity": 86}, {"time": 3476, "pitch": 67, "duration": 8, "velocity": 98}, {"time": 3482, "pitch": 53, "duration": 10, "velocity": 83}, {"time": 3485, "pitch": 60, "duration": 13, "velocity": 92}, {"time": 3485, "pitch": 65, "duration": 13, "velocity": 102}, {"time": 3497, "pitch": 53, "duration": 8, "velocity": 87}, {"time": 3500, "pitch": 60, "duration": 2, "velocity": 88}, {"time": 3503, "pitch": 67, "duration": 4, "velocity": 104}, {"time": 3509, "pitch": 41, "duration": 20, "velocity": 88}, {"time": 3509, "pitch": 60, "duration": 8, "velocity": 91}, {"time": 3509, "pitch": 65, "duration": 8, "velocity": 104}, {"time": 3515, "pitch": 48, "duration": 17, "velocity": 80}, {"time": 3518, "pitch": 60, "duration": 1, "velocity": 85}, {"time": 3518, "pitch": 65, "duration": 7, "velocity": 110}, {"time": 3524, "pitch": 53, "duration": 5, "velocity": 86}, {"time": 3527, "pitch": 60, "duration": 4, "velocity": 86}, {"time": 3530, "pitch": 65, "duration": 2, "velocity": 89}, {"time": 3533, "pitch": 39, "duration": 19, "velocity": 87}, {"time": 3533, "pitch": 60, "duration": 7, "velocity": 94}, {"time": 3533, "pitch": 67, "duration": 8, "velocity": 104}, {"time": 3539, "pitch": 48, "duration": 12, "velocity": 77}, {"time": 3542, "pitch": 60, "duration": 6, "velocity": 89}, {"time": 3542, "pitch": 67, "duration": 6, "velocity": 108}, {"time": 3548, "pitch": 51, "duration": 3, "velocity": 84}, {"time": 3551, "pitch": 60, "duration": 4, "velocity": 91}, {"time": 3551, "pitch": 67, "duration": 5, "velocity": 108}, {"time": 3557, "pitch": 37, "duration": 2, "velocity": 92}, {"time": 3557, "pitch": 60, "duration": 1, "velocity": 98}, {"time": 3557, "pitch": 68, "duration": 14, "velocity": 102}, {"time": 3563, "pitch": 49, "duration": 11, "velocity": 88}, {"time": 3566, "pitch": 56, "duration": 8, "velocity": 86}, {"time": 3572, "pitch": 65, "duration": 3, "velocity": 102}, {"time": 3575, "pitch": 68, "duration": 5, "velocity": 94}, {"time": 3581, "pitch": 48, "duration": 18, "velocity": 88}, {"time": 3581, "pitch": 58, "duration": 13, "velocity": 87}, {"time": 3581, "pitch": 67, "duration": 13, "velocity": 92}, {"time": 3590, "pitch": 55, "duration": 8, "velocity": 89}, {"time": 3596, "pitch": 58, "duration": 3, "velocity": 92}, {"time": 3599, "pitch": 67, "duration": 5, "velocity": 96}, {"time": 3605, "pitch": 46, "duration": 19, "velocity": 89}, {"time": 3605, "pitch": 65, "duration": 10, "velocity": 96}, {"time": 3611, "pitch": 53, "duration": 17, "velocity": 84}, {"time": 3614, "pitch": 58, "duration": 2, "velocity": 88}, {"time": 3617, "pitch": 61, "duration": 4, "velocity": 84}, {"time": 3620, "pitch": 65, "duration": 2, "velocity": 88}, {"time": 3623, "pitch": 68, "duration": 6, "velocity": 104}, {"time": 3629, "pitch": 48, "duration": 18, "velocity": 87}, {"time": 3629, "pitch": 67, "duration": 8, "velocity": 91}, {"time": 3635, "pitch": 55, "duration": 4, "velocity": 78}, {"time": 3638, "pitch": 64, "duration": 8, "velocity": 91}, {"time": 3638, "pitch": 67, "duration": 6, "velocity": 88}, {"time": 3644, "pitch": 55, "duration": 3, "velocity": 81}, {"time": 3647, "pitch": 67, "duration": 5, "velocity": 107}, {"time": 3653, "pitch": 41, "duration": 45, "velocity": 88}, {"time": 3653, "pitch": 60, "duration": 7, "velocity": 88}, {"time": 3653, "pitch": 67, "duration": 8, "velocity": 104}, {"time": 3659, "pitch": 48, "duration": 39, "velocity": 78}, {"time": 3662, "pitch": 60, "duration": 6, "velocity": 100}, {"time": 3662, "pitch": 68, "duration": 6, "velocity": 100}, {"time": 3665, "pitch": 53, "duration": 5, "velocity": 76}, {"time": 3668, "pitch": 60, "duration": 7, "velocity": 86}, {"time": 3668, "pitch": 67, "duration": 8, "velocity": 98}, {"time": 3674, "pitch": 53, "duration": 10, "velocity": 83}, {"time": 3677, "pitch": 60, "duration": 13, "velocity": 92}, {"time": 3677, "pitch": 65, "duration": 13, "velocity": 102}, {"time": 3689, "pitch": 53, "duration": 8, "velocity": 87}, {"time": 3692, "pitch": 60, "duration": 2, "velocity": 88}, {"time": 3695, "pitch": 67, "duration": 4, "velocity": 104}, {"time": 3701, "pitch": 41, "duration": 20, "velocity": 88}, {"time": 3701, "pitch": 60, "duration": 8, "velocity": 91}, {"time": 3701, "pitch": 65, "duration": 8, "velocity": 104}, {"time": 3707, "pitch": 48, "duration": 17, "velocity": 80}, {"time": 3710, "pitch": 60, "duration": 1, "velocity": 85}, {"time": 3710, "pitch": 65, "duration": 7, "velocity": 110}, {"time": 3716, "pitch": 53, "duration": 5, "velocity": 86}, {"time": 3719, "pitch": 60, "duration": 4, "velocity": 86}, {"time": 3722, "pitch": 65, "duration": 2, "velocity": 89}, {"time": 3725, "pitch": 39, "duration": 19, "velocity": 87}, {"time": 3725, "pitch": 60, "duration": 7, "velocity": 94}, {"time": 3725, "pitch": 67, "duration": 8, "velocity": 104}, {"time": 3731, "pitch": 48, "duration": 12, "velocity": 77}, {"time": 3734, "pitch": 60, "duration": 6, "velocity": 89}, {"time": 3734, "pitch": 67, "duration": 6, "velocity": 108}, {"time": 3740, "pitch": 51, "duration": 3, "velocity": 84}, {"time": 3743, "pitch": 60, "duration": 4, "velocity": 91}, {"time": 3743, "pitch": 67, "duration": 5, "velocity": 108}, {"time": 3749, "pitch": 37, "duration": 2, "velocity": 92}, {"time": 3749, "pitch": 60, "duration": 1, "velocity": 98}, {"time": 3749, "pitch": 68, "duration": 14, "velocity": 102}, {"time": 3755, "pitch": 49, "duration": 11, "velocity": 88}, {"time": 3758, "pitch": 56, "duration": 8, "velocity": 86}, {"time": 3764, "pitch": 65, "duration": 3, "velocity": 102}, {"time": 3767, "pitch": 68, "duration": 5, "velocity": 94}, {"time": 3773, "pitch": 48, "duration": 18, "velocity": 88}, {"time": 3773, "pitch": 58, "duration": 13, "velocity": 87}, {"time": 3773, "pitch": 67, "duration": 13, "velocity": 92}, {"time": 3782, "pitch": 55, "duration": 8, "velocity": 89}, {"time": 3788, "pitch": 58, "duration": 3, "velocity": 92}, {"time": 3791, "pitch": 67, "duration": 5, "velocity": 96}, {"time": 3797, "pitch": 46, "duration": 19, "velocity": 89}, {"time": 3797, "pitch": 65, "duration": 10, "velocity": 96}, {"time": 3803, "pitch": 53, "duration": 17, "velocity": 84}, {"time": 3806, "pitch": 58, "duration": 2, "velocity": 88}, {"time": 3809, "pitch": 61, "duration": 4, "velocity": 84}, {"time": 3812, "pitch": 65, "duration": 2, "velocity": 88}, {"time": 3815, "pitch": 68, "duration": 6, "velocity": 104}, {"time": 3821, "pitch": 48, "duration": 18, "velocity": 87}, {"time": 3821, "pitch": 67, "duration": 8, "velocity": 91}, {"time": 3827, "pitch": 55, "duration": 4, "velocity": 78}, {"time": 3830, "pitch": 64, "duration": 8, "velocity": 91}, {"time": 3830, "pitch": 67, "duration": 6, "velocity": 88}, {"time": 3836, "pitch": 55, "duration": 3, "velocity": 81}, {"time": 3839, "pitch": 67, "duration": 5, "velocity": 107}, {"time": 3845, "pitch": 41, "duration": 45, "velocity": 88}, {"time": 3845, "pitch": 60, "duration": 7, "velocity": 88}, {"time": 3845, "pitch": 67, "duration": 8, "velocity": 104}, {"time": 3851, "pitch": 48, "duration": 39, "velocity": 78}, {"time": 3854, "pitch": 60, "duration": 6, "velocity": 100}, {"time": 3854, "pitch": 68, "duration": 6, "velocity": 100}, {"time": 3857, "pitch": 53, "duration": 5, "velocity": 76}, {"time": 3860, "pitch": 60, "duration": 7, "velocity": 86}, {"time": 3860, "pitch": 67, "duration": 8, "velocity": 98}, {"time": 3866, "pitch": 53, "duration": 10, "velocity": 83}, {"time": 3869, "pitch": 60, "duration": 13, "velocity": 92}, {"time": 3869, "pitch": 65, "duration": 13, "velocity": 102}, {"time": 3881, "pitch": 53, "duration": 8, "velocity": 87}, {"time": 3884, "pitch": 60, "duration": 2, "velocity": 88}, {"time": 3887, "pitch": 67, "duration": 4, "velocity": 104}], "annotations": [{"time": 54, "annotation": {"number": 64, "value": 127}, "group": "control_change"}, {"time": 76, "annotation": {"number": 64, "value": 74}, "group": "control_change"}, {"time": 76, "annotation": {"number": 64, "value": 0}, "group": "control_change"}, {"time": 78, "annotation": {"number": 64, "value": 127}, "group": "control_change"}, {"time": 99, "annotation": {"number": 64, "value": 0}, "group": "control_change"}, {"time": 101, "annotation": {"number": 64, "value": 127}, "group": "control_change"}, {"time": 123, "annotation": {"number": 64, "value": 38}, "group": "control_change"}, {"time": 123, "annotation": {"number": 64, "value": 0}, "group": "control_change"}, {"time": 125, "annotation": {"number": 64, "value": 127}, "group": "control_change"}, {"time": 148, "annotation": {"number": 64, "value": 74}, "group": "control_change"}, {"time": 148, "annotation": {"number": 64, "value": 0}, "group": "control_change"}, {"time": 150, "annotation": {"number": 64, "value": 127}, "group": "control_change"}, {"time": 172, "annotation": {"number": 64, "value": 74}, "group": "control_change"}, {"time": 172, "annotation": {"number": 64, "value": 0}, "group": "control_change"}, {"time": 173, "annotation": {"number": 64, "value": 127}, "group": "control_change"}, {"time": 195, "annotation": {"number": 64, "value": 38}, "group": "control_change"}, {"time": 195, "annotation": {"number": 64, "value": 0}, "group": "control_change"}, {"time": 196, "annotation": {"number": 64, "value": 127}, "group": "control_change"}, {"time": 244, "annotation": {"number": 64, "value": 74}, "group": "control_change"}, {"time": 244, "annotation": {"number": 64, "value": 0}, "group": "control_change"}, {"time": 246, "annotation": {"number": 64, "value": 127}, "group": "control_change"}, {"time": 268, "annotation": {"number": 64, "value": 38}, "group": "control_change"}, {"time": 268, "annotation": {"number": 64, "value": 0}, "group": "control_change"}, {"time": 269, "annotation": {"number": 64, "value": 38}, "group": "control_change"}, {"time": 269, "annotation": {"number": 64, "value": 127}, "group": "control_change"}, {"time": 292, "annotation": {"number": 64, "value": 38}, "group": "control_change"}, {"time": 293, "annotation": {"number": 64, "value": 0}, "group": "control_change"}, {"time": 294, "annotation": {"number": 64, "value": 127}, "group": "control_change"}, {"time": 340, "annotation": {"number": 64, "value": 38}, "group": "control_change"}, {"time": 340, "annotation": {"number": 64, "value": 0}, "group": "control_change"}, {"time": 342, "annotation": {"number": 64, "value": 127}, "group": "control_change"}, {"time": 363, "annotation": {"number": 64, "value": 0}, "group": "control_change"}, {"time": 365, "annotation": {"number": 64, "value": 127}, "group": "control_change"}, {"time": 388, "annotation": {"number": 64, "value": 74}, "group": "control_change"}, {"time": 388, "annotation": {"number": 64, "value": 0}, "group": "control_change"}, {"time": 390, "annotation": {"number": 64, "value": 127}, "group": "control_change"}, {"time": 435, "annotation": {"number": 64, "value": 0}, "group": "control_change"}, {"time": 459, "annotation": {"number": 64, "value": 0}, "group": "control_change"}, {"time": 460, "annotation": {"number": 64, "value": 74}, "group": "control_change"}, {"time": 461, "annotation": {"number": 64, "value": 127}, "group": "control_change"}, {"time": 483, "annotation": {"number": 64, "value": 0}, "group": "control_change"}, {"time": 484, "annotation": {"number": 64, "value": 127}, "group": "control_change"}, {"time": 507, "annotation": {"number": 64, "value": 38}, "group": "control_change"}, {"time": 507, "annotation": {"number": 64, "value": 0}, "group": "control_change"}, {"time": 509, "annotation": {"number": 64, "value": 127}, "group": "control_change"}, {"time": 531, "annotation": {"number": 64, "value": 0}, "group": "control_change"}, {"time": 532, "annotation": {"number": 64, "value": 127}, "group": "control_change"}, {"time": 555, "annotation": {"number": 64, "value": 74}, "group": "control_change"}, {"time": 555, "annotation": {"number": 64, "value": 0}, "group": "control_change"}, {"time": 557, "annotation": {"number": 64, "value": 127}, "group": "control_change"}, {"time": 579, "annotation": {"number": 64, "value": 38}, "group": "control_change"}, {"time": 579, "annotation": {"number": 64, "value": 0}, "group": "control_change"}, {"time": 581, "annotation": {"number": 64, "value": 127}, "group": "control_change"}, {"time": 604, "annotation": {"number": 64, "value": 38}, "group": "control_change"}, {"time": 604, "annotation": {"number": 64, "value": 0}, "group": "control_change"}, {"time": 605, "annotation": {"number": 64, "value": 127}, "group": "control_change"}, {"time": 628, "annotation": {"number": 64, "value": 0}, "group": "control_change"}, {"time": 651, "annotation": {"number": 64, "value": 0}, "group": "control_change"}, {"time": 652, "annotation": {"number": 64, "value": 74}, "group": "control_change"}, {"time": 653, "annotation": {"number": 64, "value": 127}, "group": "control_change"}, {"time": 675, "annotation": {"number": 64, "value": 0}, "group": "control_change"}, {"time": 676, "annotation": {"number": 64, "value": 127}, "group": "control_change"}, {"time": 699, "annotation": {"number": 64, "value": 38}, "group": "control_change"}, {"time": 699, "annotation": {"number": 64, "value": 0}, "group": "control_change"}, {"time": 701, "annotation": {"number": 64, "value": 127}, "group": "control_change"}, {"time": 723, "annotation": {"number": 64, "value": 0}, "group": "control_change"}, {"time": 724, "annotation": {"number": 64, "value": 127}, "group": "control_change"}, {"time": 747, "annotation": {"number": 64, "value": 74}, "group": "control_change"}, {"time": 747, "annotation": {"number": 64, "value": 0}, "group": "control_change"}, {"time": 749, "annotation": {"number": 64, "value": 127}, "group": "control_change"}, {"time": 771, "annotation": {"number": 64, "value": 38}, "group": "control_change"}, {"time": 771, "annotation": {"number": 64, "value": 0}, "group": "control_change"}, {"time": 773, "annotation": {"number": 64, "value": 127}, "group": "control_change"}, {"time": 796, "annotation": {"number": 64, "value": 38}, "group": "control_change"}, {"time": 796, "annotation": {"number": 64, "value": 0}, "group": "control_change"}, {"time": 797, "annotation": {"number": 64, "value": 127}, "group": "control_change"}, {"time": 820, "annotation": {"number": 64, "value": 0}, "group": "control_change"}, {"time": 843, "annotation": {"number": 64, "value": 0}, "group": "control_change"}, {"time": 844, "annotation": {"number": 64, "value": 74}, "group": "control_change"}, {"time": 845, "annotation": {"number": 64, "value": 127}, "group": "control_change"}, {"time": 867, "annotation": {"number": 64, "value": 0}, "group": "control_change"}, {"time": 868, "annotation": {"number": 64, "value": 127}, "group": "control_change"}, {"time": 891, "annotation": {"number": 64, "value": 38}, "group": "control_change"}, {"time": 891, "annotation": {"number": 64, "value": 0}, "group": "control_change"}, {"time": 893, "annotation": {"number": 64, "value": 127}, "group": "control_change"}, {"time": 915, "annotation": {"number": 64, "value": 0}, "group": "control_change"}, {"time": 916, "annotation": {"number": 64, "value": 127}, "group": "control_change"}, {"time": 939, "annotation": {"number": 64, "value": 74}, "group": "control_change"}, {"time": 939, "annotation": {"number": 64, "value": 0}, "group": "control_change"}, {"time": 941, "annotation": {"number": 64, "value": 127}, "group": "control_change"}, {"time": 963, "annotation": {"number": 64, "value": 38}, "group": "control_change"}, {"time": 963, "annotation": {"number": 64, "value": 0}, "group": "control_change"}, {"time": 965, "annotation": {"number": 64, "value": 127}, "group": "control_change"}, {"time": 988, "annotation": {"number": 64, "value": 38}, "group": "control_change"}, {"time": 988, "annotation": {"number": 64, "value": 0}, "group": "control_change"}, {"time": 989, "annotation": {"number": 64, "value": 127}, "group": "control_change"}, {"time": 1012, "annotation": {"number": 64, "value": 0}, "group": "control_change"}, {"time": 1035, "annotation": {"number": 64, "value": 0}, "group": "control_change"}, {"time": 1036, "annotation": {"number": 64, "value": 74}, "group": "control_change"}, {"time": 1037, "annotation": {"number": 64, "value": 127}, "group": "control_change"}, {"time": 1059, "annotation": {"number": 64, "value": 0}, "group": "control_change"}, {"time": 1060, "annotation": {"number": 64, "value": 127}, "group": "control_change"}, {"time": 1083, "annotation": {"number": 64, "value": 38}, "group": "control_change"}, {"time": 1083, "annotation": {"number": 64, "value": 0}, "group": "control_change"}, {"time": 1085, "annotation": {"number": 64, "value": 127}, "group": "control_change"}, {"time": 1107, "annotation": {"number": 64, "value": 0}, "group": "control_change"}, {"time": 1108, "annotation": {"number": 64, "value": 127}, "group": "control_change"}, {"time": 1131, "annotation": {"number": 64, "value": 74}, "group": "control_change"}, {"time": 1131, "annotation": {"number": 64, "value": 0}, "group": "control_change"}, {"time": 1133, "annotation": {"number": 64, "value": 127}, "group": "control_change"}, {"time": 1155, "annotation": {"number": 64, "value": 38}, "group": "control_change"}, {"time": 1155, "annotation": {"number": 64, "value": 0}, "group": "control_change"}, {"time": 1157, "annotation": {"number": 64, "value": 127}, "group": "control_change"}, {"time": 1180, "annotation": {"number": 64, "value": 38}, "group": "control_change"}, {"time": 1180, "annotation": {"number": 64, "value": 0}, "group": "control_change"}, {"time": 1181, "annotation": {"number": 64, "value": 127}, "group": "control_change"}, {"time": 1204, "annotation": {"number": 64, "value": 0}, "group": "control_change"}, {"time": 1227, "annotation": {"number": 64, "value": 0}, "group": "control_change"}, {"time": 1228, "annotation": {"number": 64, "value": 74}, "group": "control_change"}, {"time": 1229, "annotation": {"number": 64, "value": 127}, "group": "control_change"}, {"time": 1251, "annotation": {"number": 64, "value": 0}, "group": "control_change"}, {"time": 1252, "annotation": {"number": 64, "value": 127}, "group": "control_change"}, {"time": 1275, "annotation": {"number": 64, "value": 38}, "group": "control_change"}, {"time": 1275, "annotation": {"number": 64, "value": 0}, "group": "control_change"}, {"time": 1277, "annotation": {"number": 64, "value": 127}, "group": "control_change"}, {"time": 1299, "annotation": {"number": 64, "value": 0}, "group": "control_change"}, {"time": 1300, "annotation": {"number": 64, "value": 127}, "group": "control_change"}, {"time": 1323, "annotation": {"number": 64, "value": 74}, "group": "control_change"}, {"time": 1323, "annotation": {"number": 64, "value": 0}, "group": "control_change"}, {"time": 1325, "annotation": {"number": 64, "value": 127}, "group": "control_change"}, {"time": 1347, "annotation": {"number": 64, "value": 38}, "group": "control_change"}, {"time": 1347, "annotation": {"number": 64, "value": 0}, "group": "control_change"}, {"time": 1349, "annotation": {"number": 64, "value": 127}, "group": "control_change"}, {"time": 1372, "annotation": {"number": 64, "value": 38}, "group": "control_change"}, {"time": 1372, "annotation": {"number": 64, "value": 0}, "group": "control_change"}, {"time": 1373, "annotation": {"number": 64, "value": 127}, "group": "control_change"}, {"time": 1396, "annotation": {"number": 64, "value": 0}, "group": "control_change"}, {"time": 1419, "annotation": {"number": 64, "value": 0}, "group": "control_change"}, {"time": 1420, "annotation": {"number": 64, "value": 74}, "group": "control_change"}, {"time": 1421, "annotation": {"number": 64, "value": 127}, "group": "control_change"}, {"time": 1443, "annotation": {"number": 64, "value": 0}, "group": "control_change"}, {"time": 1444, "annotation": {"number": 64, "value": 127}, "group": "control_change"}, {"time": 1467, "annotation": {"number": 64, "value": 38}, "group": "control_change"}, {"time": 1467, "annotation": {"number": 64, "value": 0}, "group": "control_change"}, {"time": 1469, "annotation": {"number": 64, "value": 127}, "group": "control_change"}, {"time": 1491, "annotation": {"number": 64, "value": 0}, "group": "control_change"}, {"time": 1492, "annotation": {"number": 64, "value": 127}, "group": "control_change"}, {"time": 1515, "annotation": {"number": 64, "value": 74}, "group": "control_change"}, {"time": 1515, "annotation": {"number": 64, "value": 0}, "group": "control_change"}, {"time": 1517, "annotation": {"number": 64, "value": 127}, "group": "control_change"}, {"time": 1539, "annotation": {"number": 64, "value": 38}, "group": "control_change"}, {"time": 1539, "annotation": {"number": 64, "value": 0}, "group": "control_change"}, {"time": 1541, "annotation": {"number": 64, "value": 127}, "group": "control_change"}, {"time": 1564, "annotation": {"number": 64, "value": 38}, "group": "control_change"}, {"time": 1564, "annotation": {"number": 64, "value": 0}, "group": "control_change"}, {"time": 1565, "annotation": {"number": 64, "value": 127}, "group": "control_change"}, {"time": 1588, "annotation": {"number": 64, "value": 0}, "group": "control_change"}, {"time": 1611, "annotation": {"number": 64, "value": 0}, "group": "control_change"}, {"time": 1612, "annotation": {"number": 64, "value": 74}, "group": "control_change"}, {"time": 1613, "annotation": {"number": 64, "value": 127}, "group": "control_change"}, {"time": 1635, "annotation": {"number": 64, "value": 0}, "group": "control_change"}, {"time": 1636, "annotation": {"number": 64, "value": 127}, "group": "control_change"}, {"time": 1659, "annotation": {"number": 64, "value": 38}, "group": "control_change"}, {"time": 1659, "annotation": {"number": 64, "value": 0}, "group": "control_change"}, {"time": 1661, "annotation": {"number": 64, "value": 127}, "group": "control_change"}, {"time": 1683, "annotation": {"number": 64, "value": 0}, "group": "control_change"}, {"time": 1684, "annotation": {"number": 64, "value": 127}, "group": "control_change"}, {"time": 1707, "annotation": {"number": 64, "value": 74}, "group": "control_change"}, {"time": 1707, "annotation": {"number": 64, "value": 0}, "group": "control_change"}, {"time": 1709, "annotation": {"number": 64, "value": 127}, "group": "control_change"}, {"time": 1731, "annotation": {"number": 64, "value": 38}, "group": "control_change"}, {"time": 1731, "annotation": {"number": 64, "value": 0}, "group": "control_change"}, {"time": 1733, "annotation": {"number": 64, "value": 127}, "group": "control_change"}, {"time": 1756, "annotation": {"number": 64, "value": 38}, "group": "control_change"}, {"time": 1756, "annotation": {"number": 64, "value": 0}, "group": "control_change"}, {"time": 1757, "annotation": {"number": 64, "value": 127}, "group": "control_change"}, {"time": 1780, "annotation": {"number": 64, "value": 0}, "group": "control_change"}, {"time": 1803, "annotation": {"number": 64, "value": 0}, "group": "control_change"}, {"time": 1804, "annotation": {"number": 64, "value": 74}, "group": "control_change"}, {"time": 1805, "annotation": {"number": 64, "value": 127}, "group": "control_change"}, {"time": 1827, "annotation": {"number": 64, "value": 0}, "group": "control_change"}, {"time": 1828, "annotation": {"number": 64, "value": 127}, "group": "control_change"}, {"time": 1851, "annotation": {"number": 64, "value": 38}, "group": "control_change"}, {"time": 1851, "annotation": {"number": 64, "value": 0}, "group": "control_change"}, {"time": 1853, "annotation": {"number": 64, "value": 127}, "group": "control_change"}, {"time": 1875, "annotation": {"number": 64, "value": 0}, "group": "control_change"}, {"time": 1876, "annotation": {"number": 64, "value": 127}, "group": "control_change"}, {"time": 1899, "annotation": {"number": 64, "value": 74}, "group": "control_change"}, {"time": 1899, "annotation": {"number": 64, "value": 0}, "group": "control_change"}, {"time": 1901, "annotation": {"number": 64, "value": 127}, "group": "control_change"}, {"time": 1923, "annotation": {"number": 64, "value": 38}, "group": "control_change"}, {"time": 1923, "annotation": {"number": 64, "value": 0}, "group": "control_change"}, {"time": 1925, "annotation": {"number": 64, "value": 127}, "group": "control_change"}, {"time": 1948, "annotation": {"number": 64, "value": 38}, "group": "control_change"}, {"time": 1948, "annotation": {"number": 64, "value": 0}, "group": "control_change"}, {"time": 1949, "annotation": {"number": 64, "value": 127}, "group": "control_change"}, {"time": 1972, "annotation": {"number": 64, "value": 0}, "group": "control_change"}, {"time": 1995, "annotation": {"number": 64, "value": 0}, "group": "control_change"}, {"time": 1997, "annotation": {"number": 64, "value": 127}, "group": "control_change"}, {"time": 2020, "annotation": {"number": 64, "value": 38}, "group": "control_change"}, {"time": 2020, "annotation": {"number": 64, "value": 0}, "group": "control_change"}, {"time": 2021, "annotation": {"number": 64, "value": 127}, "group": "control_change"}, {"time": 2044, "annotation": {"number": 64, "value": 0}, "group": "control_change"}, {"time": 2046, "annotation": {"number": 64, "value": 127}, "group": "control_change"}, {"time": 2067, "annotation": {"number": 64, "value": 38}, "group": "control_change"}, {"time": 2067, "annotation": {"number": 64, "value": 0}, "group": "control_change"}, {"time": 2069, "annotation": {"number": 64, "value": 127}, "group": "control_change"}, {"time": 2091, "annotation": {"number": 64, "value": 0}, "group": "control_change"}, {"time": 2093, "annotation": {"number": 64, "value": 127}, "group": "control_change"}, {"time": 2094, "annotation": {"number": 64, "value": 127}, "group": "control_change"}, {"time": 2115, "annotation": {"number": 64, "value": 74}, "group": "control_change"}, {"time": 2115, "annotation": {"number": 64, "value": 0}, "group": "control_change"}, {"time": 2116, "annotation": {"number": 64, "value": 74}, "group": "control_change"}, {"time": 2116, "annotation": {"number": 64, "value": 0}, "group": "control_change"}, {"time": 2117, "annotation": {"number": 64, "value": 127}, "group": "control_change"}, {"time": 2125, "annotation": {"number": 64, "value": 0}, "group": "control_change"}, {"time": 2187, "annotation": {"number": 64, "value": 0}, "group": "control_change"}, {"time": 2189, "annotation": {"number": 64, "value": 127}, "group": "control_change"}, {"time": 2212, "annotation": {"number": 64, "value": 38}, "group": "control_change"}, {"time": 2212, "annotation": {"number": 64, "value": 0}, "group": "control_change"}, {"time": 2213, "annotation": {"number": 64, "value": 127}, "group": "control_change"}, {"time": 2236, "annotation": {"number": 64, "value": 0}, "group": "control_change"}, {"time": 2238, "annotation": {"number": 64, "value": 127}, "group": "control_change"}, {"time": 2259, "annotation": {"number": 64, "value": 38}, "group": "control_change"}, {"time": 2259, "annotation": {"number": 64, "value": 0}, "group": "control_change"}, {"time": 2261, "annotation": {"number": 64, "value": 127}, "group": "control_change"}, {"time": 2283, "annotation": {"number": 64, "value": 0}, "group": "control_change"}, {"time": 2285, "annotation": {"number": 64, "value": 127}, "group": "control_change"}, {"time": 2286, "annotation": {"number": 64, "value": 127}, "group": "control_change"}, {"time": 2307, "annotation": {"number": 64, "value": 74}, "group": "control_change"}, {"time": 2307, "annotation": {"number": 64, "value": 0}, "group": "control_change"}, {"time": 2308, "annotation": {"number": 64, "value": 74}, "group": "control_change"}, {"time": 2308, "annotation": {"number": 64, "value": 0}, "group": "control_change"}, {"time": 2309, "annotation": {"number": 64, "value": 127}, "group": "control_change"}, {"time": 2317, "annotation": {"number": 64, "value": 0}, "group": "control_change"}, {"time": 2379, "annotation": {"number": 64, "value": 0}, "group": "control_change"}, {"time": 2380, "annotation": {"number": 64, "value": 74}, "group": "control_change"}, {"time": 2381, "annotation": {"number": 64, "value": 127}, "group": "control_change"}, {"time": 2403, "annotation": {"number": 64, "value": 0}, "group": "control_change"}, {"time": 2404, "annotation": {"number": 64, "value": 127}, "group": "control_change"}, {"time": 2427, "annotation": {"number": 64, "value": 38}, "group": "control_change"}, {"time": 2427, "annotation": {"number": 64, "value": 0}, "group": "control_change"}, {"time": 2429, "annotation": {"number": 64, "value": 127}, "group": "control_change"}, {"time": 2451, "annotation": {"number": 64, "value": 0}, "group": "control_change"}, {"time": 2452, "annotation": {"number": 64, "value": 127}, "group": "control_change"}, {"time": 2475, "annotation": {"number": 64, "value": 74}, "group": "control_change"}, {"time": 2475, "annotation": {"number": 64, "value": 0}, "group": "control_change"}, {"time": 2477, "annotation": {"number": 64, "value": 127}, "group": "control_change"}, {"time": 2499, "annotation": {"number": 64, "value": 38}, "group": "control_change"}, {"time": 2499, "annotation": {"number": 64, "value": 0}, "group": "control_change"}, {"time": 2501, "annotation": {"number": 64, "value": 127}, "group": "control_change"}, {"time": 2524, "annotation": {"number": 64, "value": 38}, "group": "control_change"}, {"time": 2524, "annotation": {"number": 64, "value": 0}, "group": "control_change"}, {"time": 2525, "annotation": {"number": 64, "value": 127}, "group": "control_change"}, {"time": 2548, "annotation": {"number": 64, "value": 0}, "group": "control_change"}, {"time": 2571, "annotation": {"number": 64, "value": 0}, "group": "control_change"}, {"time": 2572, "annotation": {"number": 64, "value": 74}, "group": "control_change"}, {"time": 2573, "annotation": {"number": 64, "value": 127}, "group": "control_change"}, {"time": 2595, "annotation": {"number": 64, "value": 0}, "group": "control_change"}, {"time": 2596, "annotation": {"number": 64, "value": 127}, "group": "control_change"}, {"time": 2619, "annotation": {"number": 64, "value": 38}, "group": "control_change"}, {"time": 2619, "annotation": {"number": 64, "value": 0}, "group": "control_change"}, {"time": 2621, "annotation": {"number": 64, "value": 127}, "group": "control_change"}, {"time": 2643, "annotation": {"number": 64, "value": 0}, "group": "control_change"}, {"time": 2644, "annotation": {"number": 64, "value": 127}, "group": "control_change"}, {"time": 2667, "annotation": {"number": 64, "value": 74}, "group": "control_change"}, {"time": 2667, "annotation": {"number": 64, "value": 0}, "group": "control_change"}, {"time": 2669, "annotation": {"number": 64, "value": 127}, "group": "control_change"}, {"time": 2691, "annotation": {"number": 64, "value": 38}, "group": "control_change"}, {"time": 2691, "annotation": {"number": 64, "value": 0}, "group": "control_change"}, {"time": 2693, "annotation": {"number": 64, "value": 127}, "group": "control_change"}, {"time": 2716, "annotation": {"number": 64, "value": 38}, "group": "control_change"}, {"time": 2716, "annotation": {"number": 64, "value": 0}, "group": "control_change"}, {"time": 2717, "annotation": {"number": 64, "value": 127}, "group": "control_change"}, {"time": 2740, "annotation": {"number": 64, "value": 0}, "group": "control_change"}, {"time": 2763, "annotation": {"number": 64, "value": 0}, "group": "control_change"}, {"time": 2764, "annotation": {"number": 64, "value": 74}, "group": "control_change"}, {"time": 2765, "annotation": {"number": 64, "value": 127}, "group": "control_change"}, {"time": 2787, "annotation": {"number": 64, "value": 0}, "group": "control_change"}, {"time": 2788, "annotation": {"number": 64, "value": 127}, "group": "control_change"}, {"time": 2811, "annotation": {"number": 64, "value": 38}, "group": "control_change"}, {"time": 2811, "annotation": {"number": 64, "value": 0}, "group": "control_change"}, {"time": 2813, "annotation": {"number": 64, "value": 127}, "group": "control_change"}, {"time": 2835, "annotation": {"number": 64, "value": 0}, "group": "control_change"}, {"time": 2836, "annotation": {"number": 64, "value": 127}, "group": "control_change"}, {"time": 2859, "annotation": {"number": 64, "value": 74}, "group": "control_change"}, {"time": 2859, "annotation": {"number": 64, "value": 0}, "group": "control_change"}, {"time": 2861, "annotation": {"number": 64, "value": 127}, "group": "control_change"}, {"time": 2883, "annotation": {"number": 64, "value": 38}, "group": "control_change"}, {"time": 2883, "annotation": {"number": 64, "value": 0}, "group": "control_change"}, {"time": 2885, "annotation": {"number": 64, "value": 127}, "group": "control_change"}, {"time": 2908, "annotation": {"number": 64, "value": 38}, "group": "control_change"}, {"time": 2908, "annotation": {"number": 64, "value": 0}, "group": "control_change"}, {"time": 2909, "annotation": {"number": 64, "value": 127}, "group": "control_change"}, {"time": 2932, "annotation": {"number": 64, "value": 0}, "group": "control_change"}, {"time": 2955, "annotation": {"number": 64, "value": 0}, "group": "control_change"}, {"time": 2956, "annotation": {"number": 64, "value": 74}, "group": "control_change"}, {"time": 2957, "annotation": {"number": 64, "value": 127}, "group": "control_change"}, {"time": 2979, "annotation": {"number": 64, "value": 0}, "group": "control_change"}, {"time": 2980, "annotation": {"number": 64, "value": 127}, "group": "control_change"}, {"time": 3003, "annotation": {"number": 64, "value": 38}, "group": "control_change"}, {"time": 3003, "annotation": {"number": 64, "value": 0}, "group": "control_change"}, {"time": 3005, "annotation": {"number": 64, "value": 127}, "group": "control_change"}, {"time": 3027, "annotation": {"number": 64, "value": 0}, "group": "control_change"}, {"time": 3028, "annotation": {"number": 64, "value": 127}, "group": "control_change"}, {"time": 3051, "annotation": {"number": 64, "value": 74}, "group": "control_change"}, {"time": 3051, "annotation": {"number": 64, "value": 0}, "group": "control_change"}, {"time": 3053, "annotation": {"number": 64, "value": 127}, "group": "control_change"}, {"time": 3075, "annotation": {"number": 64, "value": 38}, "group": "control_change"}, {"time": 3075, "annotation": {"number": 64, "value": 0}, "group": "control_change"}, {"time": 3077, "annotation": {"number": 64, "value": 127}, "group": "control_change"}, {"time": 3100, "annotation": {"number": 64, "value": 38}, "group": "control_change"}, {"time": 3100, "annotation": {"number": 64, "value": 0}, "group": "control_change"}, {"time": 3101, "annotation": {"number": 64, "value": 127}, "group": "control_change"}, {"time": 3124, "annotation": {"number": 64, "value": 0}, "group": "control_change"}, {"time": 3147, "annotation": {"number": 64, "value": 0}, "group": "control_change"}, {"time": 3148, "annotation": {"number": 64, "value": 74}, "group": "control_change"}, {"time": 3149, "annotation": {"number": 64, "value": 127}, "group": "control_change"}, {"time": 3171, "annotation": {"number": 64, "value": 0}, "group": "control_change"}, {"time": 3172, "annotation": {"number": 64, "value": 127}, "group": "control_change"}, {"time": 3195, "annotation": {"number": 64, "value": 38}, "group": "control_change"}, {"time": 3195, "annotation": {"number": 64, "value": 0}, "group": "control_change"}, {"time": 3197, "annotation": {"number": 64, "value": 127}, "group": "control_change"}, {"time": 3219, "annotation": {"number": 64, "value": 0}, "group": "control_change"}, {"time": 3220, "annotation": {"number": 64, "value": 127}, "group": "control_change"}, {"time": 3243, "annotation": {"number": 64, "value": 74}, "group": "control_change"}, {"time": 3243, "annotation": {"number": 64, "value": 0}, "group": "control_change"}, {"time": 3245, "annotation": {"number": 64, "value": 127}, "group": "control_change"}, {"time": 3267, "annotation": {"number": 64, "value": 38}, "group": "control_change"}, {"time": 3267, "annotation": {"number": 64, "value": 0}, "group": "control_change"}, {"time": 3269, "annotation": {"number": 64, "value": 127}, "group": "control_change"}, {"time": 3292, "annotation": {"number": 64, "value": 38}, "group": "control_change"}, {"time": 3292, "annotation": {"number": 64, "value": 0}, "group": "control_change"}, {"time": 3293, "annotation": {"number": 64, "value": 127}, "group": "control_change"}, {"time": 3316, "annotation": {"number": 64, "value": 0}, "group": "control_change"}, {"time": 3339, "annotation": {"number": 64, "value": 0}, "group": "control_change"}, {"time": 3340, "annotation": {"number": 64, "value": 74}, "group": "control_change"}, {"time": 3341, "annotation": {"number": 64, "value": 127}, "group": "control_change"}, {"time": 3363, "annotation": {"number": 64, "value": 0}, "group": "control_change"}, {"time": 3364, "annotation": {"number": 64, "value": 127}, "group": "control_change"}, {"time": 3387, "annotation": {"number": 64, "value": 38}, "group": "control_change"}, {"time": 3387, "annotation": {"number": 64, "value": 0}, "group": "control_change"}, {"time": 3389, "annotation": {"number": 64, "value": 127}, "group": "control_change"}, {"time": 3411, "annotation": {"number": 64, "value": 0}, "group": "control_change"}, {"time": 3412, "annotation": {"number": 64, "value": 127}, "group": "control_change"}, {"time": 3435, "annotation": {"number": 64, "value": 74}, "group": "control_change"}, {"time": 3435, "annotation": {"number": 64, "value": 0}, "group": "control_change"}, {"time": 3437, "annotation": {"number": 64, "value": 127}, "group": "control_change"}, {"time": 3459, "annotation": {"number": 64, "value": 38}, "group": "control_change"}, {"time": 3459, "annotation": {"number": 64, "value": 0}, "group": "control_change"}, {"time": 3461, "annotation": {"number": 64, "value": 127}, "group": "control_change"}, {"time": 3484, "annotation": {"number": 64, "value": 38}, "group": "control_change"}, {"time": 3484, "annotation": {"number": 64, "value": 0}, "group": "control_change"}, {"time": 3485, "annotation": {"number": 64, "value": 127}, "group": "control_change"}, {"time": 3508, "annotation": {"number": 64, "value": 0}, "group": "control_change"}, {"time": 3531, "annotation": {"number": 64, "value": 0}, "group": "control_change"}, {"time": 3532, "annotation": {"number": 64, "value": 74}, "group": "control_change"}, {"time": 3533, "annotation": {"number": 64, "value": 127}, "group": "control_change"}, {"time": 3555, "annotation": {"number": 64, "value": 0}, "group": "control_change"}, {"time": 3556, "annotation": {"number": 64, "value": 127}, "group": "control_change"}, {"time": 3579, "annotation": {"number": 64, "value": 38}, "group": "control_change"}, {"time": 3579, "annotation": {"number": 64, "value": 0}, "group": "control_change"}, {"time": 3581, "annotation": {"number": 64, "value": 127}, "group": "control_change"}, {"time": 3603, "annotation": {"number": 64, "value": 0}, "group": "control_change"}, {"time": 3604, "annotation": {"number": 64, "value": 127}, "group": "control_change"}, {"time": 3627, "annotation": {"number": 64, "value": 74}, "group": "control_change"}, {"time": 3627, "annotation": {"number": 64, "value": 0}, "group": "control_change"}, {"time": 3629, "annotation": {"number": 64, "value": 127}, "group": "control_change"}, {"time": 3651, "annotation": {"number": 64, "value": 38}, "group": "control_change"}, {"time": 3651, "annotation": {"number": 64, "value": 0}, "group": "control_change"}, {"time": 3653, "annotation": {"number": 64, "value": 127}, "group": "control_change"}, {"time": 3676, "annotation": {"number": 64, "value": 38}, "group": "control_change"}, {"time": 3676, "annotation": {"number": 64, "value": 0}, "group": "control_change"}, {"time": 3677, "annotation": {"number": 64, "value": 127}, "group": "control_change"}, {"time": 3700, "annotation": {"number": 64, "value": 0}, "group": "control_change"}, {"time": 3723, "annotation": {"number": 64, "value": 0}, "group": "control_change"}, {"time": 3724, "annotation": {"number": 64, "value": 74}, "group": "control_change"}, {"time": 3725, "annotation": {"number": 64, "value": 127}, "group": "control_change"}, {"time": 3747, "annotation": {"number": 64, "value": 0}, "group": "control_change"}, {"time": 3748, "annotation": {"number": 64, "value": 127}, "group": "control_change"}, {"time": 3771, "annotation": {"number": 64, "value": 38}, "group": "control_change"}, {"time": 3771, "annotation": {"number": 64, "value": 0}, "group": "control_change"}, {"time": 3773, "annotation": {"number": 64, "value": 127}, "group": "control_change"}, {"time": 3795, "annotation": {"number": 64, "value": 0}, "group": "control_change"}, {"time": 3796, "annotation": {"number": 64, "value": 127}, "group": "control_change"}, {"time": 3819, "annotation": {"number": 64, "value": 74}, "group": "control_change"}, {"time": 3819, "annotation": {"number": 64, "value": 0}, "group": "control_change"}, {"time": 3821, "annotation": {"number": 64, "value": 127}, "group": "control_change"}, {"time": 3843, "annotation": {"number": 64, "value": 38}, "group": "control_change"}, {"time": 3843, "annotation": {"number": 64, "value": 0}, "group": "control_change"}, {"time": 3845, "annotation": {"number": 64, "value": 127}, "group": "control_change"}, {"time": 3868, "annotation": {"number": 64, "value": 38}, "group": "control_change"}, {"time": 3868, "annotation": {"number": 64, "value": 0}, "group": "control_change"}, {"time": 3869, "annotation": {"number": 64, "value": 127}, "group": "control_change"}, {"time": 3892, "annotation": {"number": 64, "value": 0}, "group": "control_change"}]}]}