{"metadata": {"schema_version": "0.2", "title": "None", "source_filename": "293.mid", "source_format": "midi"}, "resolution": 12, "tempos": [{"time": 0, "qpm": 59.00006686674245}], "time_signatures": [{"time": 0, "numerator": 4, "denominator": 4}], "tracks": [{"program": 0, "is_drum": false, "name": "MELODY", "notes": [{"time": 221, "pitch": 67, "duration": 4, "velocity": 87}, {"time": 224, "pitch": 69, "duration": 2, "velocity": 87}, {"time": 227, "pitch": 79, "duration": 3, "velocity": 98}, {"time": 230, "pitch": 76, "duration": 2, "velocity": 83}, {"time": 233, "pitch": 76, "duration": 3, "velocity": 86}, {"time": 236, "pitch": 74, "duration": 2, "velocity": 84}, {"time": 239, "pitch": 74, "duration": 2, "velocity": 89}, {"time": 242, "pitch": 72, "duration": 3, "velocity": 86}, {"time": 248, "pitch": 69, "duration": 3, "velocity": 86}, {"time": 251, "pitch": 76, "duration": 5, "velocity": 104}, {"time": 269, "pitch": 67, "duration": 4, "velocity": 90}, {"time": 272, "pitch": 69, "duration": 1, "velocity": 93}, {"time": 275, "pitch": 79, "duration": 3, "velocity": 104}, {"time": 278, "pitch": 79, "duration": 1, "velocity": 96}, {"time": 281, "pitch": 79, "duration": 3, "velocity": 98}, {"time": 284, "pitch": 81, "duration": 3, "velocity": 100}, {"time": 287, "pitch": 79, "duration": 4, "velocity": 104}, {"time": 290, "pitch": 76, "duration": 3, "velocity": 94}, {"time": 293, "pitch": 74, "duration": 3, "velocity": 91}, {"time": 296, "pitch": 72, "duration": 4, "velocity": 89}, {"time": 299, "pitch": 74, "duration": 4, "velocity": 91}, {"time": 320, "pitch": 74, "duration": 3, "velocity": 100}, {"time": 323, "pitch": 76, "duration": 3, "velocity": 100}, {"time": 326, "pitch": 74, "duration": 3, "velocity": 93}, {"time": 329, "pitch": 76, "duration": 3, "velocity": 94}, {"time": 332, "pitch": 79, "duration": 4, "velocity": 104}, {"time": 347, "pitch": 81, "duration": 3, "velocity": 104}, {"time": 350, "pitch": 79, "duration": 3, "velocity": 93}, {"time": 353, "pitch": 76, "duration": 3, "velocity": 92}, {"time": 356, "pitch": 79, "duration": 3, "velocity": 87}, {"time": 359, "pitch": 72, "duration": 5, "velocity": 89}, {"time": 371, "pitch": 69, "duration": 3, "velocity": 104}, {"time": 374, "pitch": 67, "duration": 4, "velocity": 89}, {"time": 377, "pitch": 69, "duration": 3, "velocity": 89}, {"time": 380, "pitch": 76, "duration": 2, "velocity": 88}, {"time": 383, "pitch": 76, "duration": 3, "velocity": 98}, {"time": 386, "pitch": 74, "duration": 3, "velocity": 94}, {"time": 389, "pitch": 72, "duration": 3, "velocity": 89}, {"time": 392, "pitch": 69, "duration": 4, "velocity": 94}, {"time": 398, "pitch": 74, "duration": 5, "velocity": 96}, {"time": 413, "pitch": 67, "duration": 4, "velocity": 87}, {"time": 416, "pitch": 69, "duration": 2, "velocity": 87}, {"time": 419, "pitch": 79, "duration": 3, "velocity": 98}, {"time": 422, "pitch": 76, "duration": 2, "velocity": 83}, {"time": 425, "pitch": 76, "duration": 3, "velocity": 86}, {"time": 428, "pitch": 74, "duration": 2, "velocity": 84}, {"time": 431, "pitch": 74, "duration": 2, "velocity": 89}, {"time": 434, "pitch": 72, "duration": 3, "velocity": 86}, {"time": 440, "pitch": 69, "duration": 3, "velocity": 86}, {"time": 443, "pitch": 76, "duration": 5, "velocity": 104}, {"time": 461, "pitch": 67, "duration": 4, "velocity": 90}, {"time": 464, "pitch": 69, "duration": 1, "velocity": 93}, {"time": 467, "pitch": 79, "duration": 3, "velocity": 104}, {"time": 470, "pitch": 79, "duration": 1, "velocity": 96}, {"time": 473, "pitch": 79, "duration": 3, "velocity": 98}, {"time": 476, "pitch": 81, "duration": 3, "velocity": 100}, {"time": 479, "pitch": 79, "duration": 4, "velocity": 104}, {"time": 482, "pitch": 76, "duration": 3, "velocity": 94}, {"time": 485, "pitch": 74, "duration": 3, "velocity": 91}, {"time": 488, "pitch": 72, "duration": 4, "velocity": 89}, {"time": 491, "pitch": 74, "duration": 4, "velocity": 91}, {"time": 512, "pitch": 74, "duration": 3, "velocity": 100}, {"time": 515, "pitch": 76, "duration": 3, "velocity": 100}, {"time": 518, "pitch": 74, "duration": 3, "velocity": 93}, {"time": 521, "pitch": 76, "duration": 3, "velocity": 94}, {"time": 524, "pitch": 79, "duration": 4, "velocity": 104}, {"time": 539, "pitch": 81, "duration": 3, "velocity": 104}, {"time": 542, "pitch": 79, "duration": 3, "velocity": 93}, {"time": 545, "pitch": 76, "duration": 3, "velocity": 92}, {"time": 548, "pitch": 79, "duration": 3, "velocity": 87}, {"time": 551, "pitch": 72, "duration": 5, "velocity": 89}, {"time": 563, "pitch": 69, "duration": 3, "velocity": 104}, {"time": 566, "pitch": 67, "duration": 4, "velocity": 89}, {"time": 569, "pitch": 69, "duration": 3, "velocity": 89}, {"time": 572, "pitch": 76, "duration": 3, "velocity": 107}, {"time": 575, "pitch": 74, "duration": 3, "velocity": 113}, {"time": 578, "pitch": 76, "duration": 5, "velocity": 108}, {"time": 584, "pitch": 74, "duration": 2, "velocity": 94}, {"time": 587, "pitch": 74, "duration": 4, "velocity": 104}, {"time": 593, "pitch": 72, "duration": 4, "velocity": 102}, {"time": 629, "pitch": 72, "duration": 4, "velocity": 102}, {"time": 632, "pitch": 74, "duration": 2, "velocity": 100}, {"time": 635, "pitch": 76, "duration": 4, "velocity": 110}, {"time": 641, "pitch": 79, "duration": 2, "velocity": 107}, {"time": 644, "pitch": 79, "duration": 4, "velocity": 110}, {"time": 656, "pitch": 76, "duration": 2, "velocity": 104}, {"time": 659, "pitch": 81, "duration": 4, "velocity": 114}, {"time": 665, "pitch": 79, "duration": 3, "velocity": 114}, {"time": 668, "pitch": 76, "duration": 3, "velocity": 114}, {"time": 683, "pitch": 74, "duration": 3, "velocity": 110}, {"time": 686, "pitch": 76, "duration": 4, "velocity": 91}, {"time": 689, "pitch": 74, "duration": 3, "velocity": 104}, {"time": 692, "pitch": 72, "duration": 3, "velocity": 93}, {"time": 695, "pitch": 74, "duration": 4, "velocity": 110}, {"time": 704, "pitch": 76, "duration": 2, "velocity": 92}, {"time": 707, "pitch": 76, "duration": 4, "velocity": 108}, {"time": 713, "pitch": 67, "duration": 4, "velocity": 107}, {"time": 725, "pitch": 72, "duration": 3, "velocity": 113}, {"time": 728, "pitch": 74, "duration": 2, "velocity": 91}, {"time": 731, "pitch": 76, "duration": 4, "velocity": 108}, {"time": 737, "pitch": 79, "duration": 2, "velocity": 113}, {"time": 740, "pitch": 79, "duration": 3, "velocity": 116}, {"time": 755, "pitch": 81, "duration": 4, "velocity": 116}, {"time": 761, "pitch": 84, "duration": 3, "velocity": 114}, {"time": 764, "pitch": 81, "duration": 4, "velocity": 116}, {"time": 773, "pitch": 79, "duration": 3, "velocity": 107}, {"time": 776, "pitch": 76, "duration": 3, "velocity": 104}, {"time": 779, "pitch": 74, "duration": 4, "velocity": 110}, {"time": 788, "pitch": 76, "duration": 3, "velocity": 108}, {"time": 791, "pitch": 74, "duration": 6, "velocity": 113}, {"time": 797, "pitch": 72, "duration": 6, "velocity": 108}, {"time": 803, "pitch": 74, "duration": 4, "velocity": 113}, {"time": 821, "pitch": 72, "duration": 3, "velocity": 108}, {"time": 824, "pitch": 74, "duration": 2, "velocity": 104}, {"time": 827, "pitch": 76, "duration": 3, "velocity": 114}, {"time": 833, "pitch": 79, "duration": 2, "velocity": 113}, {"time": 836, "pitch": 79, "duration": 4, "velocity": 113}, {"time": 845, "pitch": 79, "duration": 3, "velocity": 114}, {"time": 848, "pitch": 76, "duration": 2, "velocity": 108}, {"time": 851, "pitch": 81, "duration": 4, "velocity": 107}, {"time": 857, "pitch": 79, "duration": 3, "velocity": 114}, {"time": 860, "pitch": 76, "duration": 3, "velocity": 114}, {"time": 875, "pitch": 74, "duration": 3, "velocity": 114}, {"time": 878, "pitch": 76, "duration": 3, "velocity": 102}, {"time": 881, "pitch": 74, "duration": 3, "velocity": 108}, {"time": 884, "pitch": 72, "duration": 3, "velocity": 108}, {"time": 887, "pitch": 74, "duration": 4, "velocity": 116}, {"time": 896, "pitch": 76, "duration": 2, "velocity": 107}, {"time": 899, "pitch": 76, "duration": 4, "velocity": 114}, {"time": 905, "pitch": 79, "duration": 3, "velocity": 108}, {"time": 908, "pitch": 67, "duration": 3, "velocity": 108}, {"time": 917, "pitch": 67, "duration": 4, "velocity": 94}, {"time": 920, "pitch": 69, "duration": 2, "velocity": 107}, {"time": 923, "pitch": 72, "duration": 4, "velocity": 114}, {"time": 929, "pitch": 69, "duration": 2, "velocity": 108}, {"time": 941, "pitch": 81, "duration": 3, "velocity": 113}, {"time": 944, "pitch": 79, "duration": 3, "velocity": 113}, {"time": 947, "pitch": 76, "duration": 4, "velocity": 116}, {"time": 953, "pitch": 76, "duration": 3, "velocity": 113}, {"time": 956, "pitch": 79, "duration": 2, "velocity": 107}, {"time": 959, "pitch": 74, "duration": 4, "velocity": 116}, {"time": 965, "pitch": 72, "duration": 3, "velocity": 107}, {"time": 968, "pitch": 69, "duration": 3, "velocity": 108}, {"time": 971, "pitch": 72, "duration": 4, "velocity": 113}, {"time": 974, "pitch": 74, "duration": 3, "velocity": 102}, {"time": 977, "pitch": 72, "duration": 4, "velocity": 96}, {"time": 1013, "pitch": 72, "duration": 4, "velocity": 102}, {"time": 1016, "pitch": 74, "duration": 2, "velocity": 100}, {"time": 1019, "pitch": 76, "duration": 4, "velocity": 110}, {"time": 1025, "pitch": 79, "duration": 2, "velocity": 107}, {"time": 1028, "pitch": 79, "duration": 4, "velocity": 110}, {"time": 1040, "pitch": 76, "duration": 2, "velocity": 104}, {"time": 1043, "pitch": 81, "duration": 4, "velocity": 114}, {"time": 1049, "pitch": 79, "duration": 3, "velocity": 114}, {"time": 1052, "pitch": 76, "duration": 3, "velocity": 114}, {"time": 1067, "pitch": 74, "duration": 3, "velocity": 110}, {"time": 1070, "pitch": 76, "duration": 4, "velocity": 91}, {"time": 1073, "pitch": 74, "duration": 3, "velocity": 104}, {"time": 1076, "pitch": 72, "duration": 3, "velocity": 93}, {"time": 1079, "pitch": 74, "duration": 4, "velocity": 110}, {"time": 1088, "pitch": 76, "duration": 2, "velocity": 92}, {"time": 1091, "pitch": 76, "duration": 4, "velocity": 108}, {"time": 1097, "pitch": 67, "duration": 4, "velocity": 107}, {"time": 1109, "pitch": 72, "duration": 3, "velocity": 113}, {"time": 1112, "pitch": 74, "duration": 2, "velocity": 91}, {"time": 1115, "pitch": 76, "duration": 4, "velocity": 108}, {"time": 1121, "pitch": 79, "duration": 2, "velocity": 113}, {"time": 1124, "pitch": 79, "duration": 3, "velocity": 116}, {"time": 1139, "pitch": 81, "duration": 4, "velocity": 116}, {"time": 1145, "pitch": 84, "duration": 3, "velocity": 114}, {"time": 1148, "pitch": 81, "duration": 4, "velocity": 116}, {"time": 1157, "pitch": 79, "duration": 3, "velocity": 107}, {"time": 1160, "pitch": 76, "duration": 3, "velocity": 104}, {"time": 1163, "pitch": 74, "duration": 4, "velocity": 110}, {"time": 1172, "pitch": 76, "duration": 3, "velocity": 108}, {"time": 1175, "pitch": 74, "duration": 6, "velocity": 113}, {"time": 1181, "pitch": 72, "duration": 6, "velocity": 108}, {"time": 1187, "pitch": 74, "duration": 4, "velocity": 113}, {"time": 1205, "pitch": 72, "duration": 3, "velocity": 108}, {"time": 1208, "pitch": 74, "duration": 2, "velocity": 104}, {"time": 1211, "pitch": 76, "duration": 3, "velocity": 114}, {"time": 1217, "pitch": 79, "duration": 2, "velocity": 113}, {"time": 1220, "pitch": 79, "duration": 4, "velocity": 113}, {"time": 1229, "pitch": 79, "duration": 3, "velocity": 114}, {"time": 1232, "pitch": 76, "duration": 2, "velocity": 108}, {"time": 1235, "pitch": 81, "duration": 4, "velocity": 107}, {"time": 1241, "pitch": 79, "duration": 3, "velocity": 114}, {"time": 1244, "pitch": 76, "duration": 3, "velocity": 114}, {"time": 1259, "pitch": 74, "duration": 3, "velocity": 114}, {"time": 1262, "pitch": 76, "duration": 3, "velocity": 102}, {"time": 1265, "pitch": 74, "duration": 3, "velocity": 108}, {"time": 1268, "pitch": 72, "duration": 3, "velocity": 108}, {"time": 1271, "pitch": 74, "duration": 4, "velocity": 116}, {"time": 1280, "pitch": 76, "duration": 2, "velocity": 107}, {"time": 1283, "pitch": 76, "duration": 4, "velocity": 114}, {"time": 1289, "pitch": 79, "duration": 3, "velocity": 108}, {"time": 1292, "pitch": 67, "duration": 3, "velocity": 108}, {"time": 1301, "pitch": 72, "duration": 4, "velocity": 107}, {"time": 1304, "pitch": 74, "duration": 2, "velocity": 107}, {"time": 1307, "pitch": 76, "duration": 4, "velocity": 113}, {"time": 1313, "pitch": 79, "duration": 2, "velocity": 110}, {"time": 1316, "pitch": 79, "duration": 4, "velocity": 114}, {"time": 1325, "pitch": 79, "duration": 3, "velocity": 110}, {"time": 1328, "pitch": 76, "duration": 2, "velocity": 108}, {"time": 1331, "pitch": 81, "duration": 4, "velocity": 114}, {"time": 1337, "pitch": 81, "duration": 3, "velocity": 114}, {"time": 1340, "pitch": 79, "duration": 3, "velocity": 108}, {"time": 1343, "pitch": 76, "duration": 3, "velocity": 117}, {"time": 1355, "pitch": 74, "duration": 4, "velocity": 107}, {"time": 1358, "pitch": 76, "duration": 3, "velocity": 104}, {"time": 1361, "pitch": 79, "duration": 3, "velocity": 107}, {"time": 1364, "pitch": 81, "duration": 3, "velocity": 107}, {"time": 1373, "pitch": 69, "duration": 5, "velocity": 104}, {"time": 1379, "pitch": 72, "duration": 6, "velocity": 110}, {"time": 1589, "pitch": 67, "duration": 4, "velocity": 87}, {"time": 1592, "pitch": 69, "duration": 2, "velocity": 87}, {"time": 1595, "pitch": 79, "duration": 3, "velocity": 98}, {"time": 1598, "pitch": 76, "duration": 2, "velocity": 83}, {"time": 1601, "pitch": 76, "duration": 3, "velocity": 86}, {"time": 1604, "pitch": 74, "duration": 2, "velocity": 84}, {"time": 1607, "pitch": 74, "duration": 2, "velocity": 89}, {"time": 1610, "pitch": 72, "duration": 3, "velocity": 86}, {"time": 1616, "pitch": 69, "duration": 3, "velocity": 86}, {"time": 1619, "pitch": 76, "duration": 5, "velocity": 104}, {"time": 1637, "pitch": 67, "duration": 4, "velocity": 90}, {"time": 1640, "pitch": 69, "duration": 1, "velocity": 93}, {"time": 1643, "pitch": 79, "duration": 3, "velocity": 104}, {"time": 1646, "pitch": 79, "duration": 1, "velocity": 96}, {"time": 1649, "pitch": 79, "duration": 3, "velocity": 98}, {"time": 1652, "pitch": 81, "duration": 3, "velocity": 100}, {"time": 1655, "pitch": 79, "duration": 4, "velocity": 104}, {"time": 1658, "pitch": 76, "duration": 3, "velocity": 94}, {"time": 1661, "pitch": 74, "duration": 3, "velocity": 91}, {"time": 1664, "pitch": 72, "duration": 4, "velocity": 89}, {"time": 1667, "pitch": 74, "duration": 4, "velocity": 91}, {"time": 1688, "pitch": 74, "duration": 3, "velocity": 100}, {"time": 1691, "pitch": 76, "duration": 3, "velocity": 100}, {"time": 1694, "pitch": 74, "duration": 3, "velocity": 93}, {"time": 1697, "pitch": 76, "duration": 3, "velocity": 94}, {"time": 1700, "pitch": 79, "duration": 4, "velocity": 104}, {"time": 1715, "pitch": 81, "duration": 3, "velocity": 104}, {"time": 1718, "pitch": 79, "duration": 3, "velocity": 93}, {"time": 1721, "pitch": 76, "duration": 3, "velocity": 92}, {"time": 1724, "pitch": 79, "duration": 3, "velocity": 87}, {"time": 1727, "pitch": 72, "duration": 5, "velocity": 89}, {"time": 1739, "pitch": 69, "duration": 3, "velocity": 104}, {"time": 1742, "pitch": 67, "duration": 4, "velocity": 89}, {"time": 1745, "pitch": 69, "duration": 3, "velocity": 89}, {"time": 1748, "pitch": 76, "duration": 3, "velocity": 107}, {"time": 1751, "pitch": 74, "duration": 3, "velocity": 113}, {"time": 1754, "pitch": 76, "duration": 5, "velocity": 108}, {"time": 1760, "pitch": 74, "duration": 2, "velocity": 94}, {"time": 1763, "pitch": 74, "duration": 4, "velocity": 104}, {"time": 1769, "pitch": 72, "duration": 4, "velocity": 102}, {"time": 1805, "pitch": 72, "duration": 4, "velocity": 102}, {"time": 1808, "pitch": 74, "duration": 2, "velocity": 100}, {"time": 1811, "pitch": 76, "duration": 4, "velocity": 110}, {"time": 1817, "pitch": 79, "duration": 2, "velocity": 107}, {"time": 1820, "pitch": 79, "duration": 4, "velocity": 110}, {"time": 1832, "pitch": 76, "duration": 2, "velocity": 104}, {"time": 1835, "pitch": 81, "duration": 4, "velocity": 114}, {"time": 1841, "pitch": 79, "duration": 3, "velocity": 114}, {"time": 1844, "pitch": 76, "duration": 3, "velocity": 114}, {"time": 1859, "pitch": 74, "duration": 3, "velocity": 110}, {"time": 1862, "pitch": 76, "duration": 4, "velocity": 91}, {"time": 1865, "pitch": 74, "duration": 3, "velocity": 104}, {"time": 1868, "pitch": 72, "duration": 3, "velocity": 93}, {"time": 1871, "pitch": 74, "duration": 4, "velocity": 110}, {"time": 1880, "pitch": 76, "duration": 2, "velocity": 92}, {"time": 1883, "pitch": 76, "duration": 4, "velocity": 108}, {"time": 1889, "pitch": 67, "duration": 4, "velocity": 107}, {"time": 1901, "pitch": 72, "duration": 3, "velocity": 113}, {"time": 1904, "pitch": 74, "duration": 2, "velocity": 91}, {"time": 1907, "pitch": 76, "duration": 4, "velocity": 108}, {"time": 1913, "pitch": 79, "duration": 2, "velocity": 113}, {"time": 1916, "pitch": 79, "duration": 3, "velocity": 116}, {"time": 1931, "pitch": 81, "duration": 4, "velocity": 116}, {"time": 1937, "pitch": 84, "duration": 3, "velocity": 114}, {"time": 1940, "pitch": 81, "duration": 4, "velocity": 116}, {"time": 1949, "pitch": 79, "duration": 3, "velocity": 107}, {"time": 1952, "pitch": 76, "duration": 3, "velocity": 104}, {"time": 1955, "pitch": 74, "duration": 4, "velocity": 110}, {"time": 1964, "pitch": 76, "duration": 3, "velocity": 108}, {"time": 1967, "pitch": 74, "duration": 6, "velocity": 113}, {"time": 1973, "pitch": 72, "duration": 6, "velocity": 108}, {"time": 1979, "pitch": 74, "duration": 4, "velocity": 113}, {"time": 1997, "pitch": 72, "duration": 3, "velocity": 108}, {"time": 2000, "pitch": 74, "duration": 2, "velocity": 104}, {"time": 2003, "pitch": 76, "duration": 3, "velocity": 114}, {"time": 2009, "pitch": 79, "duration": 2, "velocity": 113}, {"time": 2012, "pitch": 79, "duration": 4, "velocity": 113}, {"time": 2021, "pitch": 79, "duration": 3, "velocity": 114}, {"time": 2024, "pitch": 76, "duration": 2, "velocity": 108}, {"time": 2027, "pitch": 81, "duration": 4, "velocity": 107}, {"time": 2033, "pitch": 79, "duration": 3, "velocity": 114}, {"time": 2036, "pitch": 76, "duration": 3, "velocity": 114}, {"time": 2051, "pitch": 74, "duration": 3, "velocity": 114}, {"time": 2054, "pitch": 76, "duration": 3, "velocity": 102}, {"time": 2057, "pitch": 74, "duration": 3, "velocity": 108}, {"time": 2060, "pitch": 72, "duration": 3, "velocity": 108}, {"time": 2063, "pitch": 74, "duration": 4, "velocity": 116}, {"time": 2072, "pitch": 76, "duration": 2, "velocity": 107}, {"time": 2075, "pitch": 76, "duration": 4, "velocity": 114}, {"time": 2081, "pitch": 79, "duration": 3, "velocity": 108}, {"time": 2084, "pitch": 67, "duration": 3, "velocity": 108}, {"time": 2093, "pitch": 67, "duration": 4, "velocity": 94}, {"time": 2096, "pitch": 69, "duration": 2, "velocity": 107}, {"time": 2099, "pitch": 72, "duration": 4, "velocity": 114}, {"time": 2105, "pitch": 69, "duration": 2, "velocity": 108}, {"time": 2117, "pitch": 81, "duration": 3, "velocity": 113}, {"time": 2120, "pitch": 79, "duration": 3, "velocity": 113}, {"time": 2123, "pitch": 76, "duration": 4, "velocity": 116}, {"time": 2129, "pitch": 76, "duration": 3, "velocity": 113}, {"time": 2132, "pitch": 79, "duration": 2, "velocity": 107}, {"time": 2135, "pitch": 74, "duration": 4, "velocity": 116}, {"time": 2141, "pitch": 72, "duration": 3, "velocity": 107}, {"time": 2144, "pitch": 69, "duration": 3, "velocity": 108}, {"time": 2147, "pitch": 72, "duration": 4, "velocity": 113}, {"time": 2150, "pitch": 74, "duration": 3, "velocity": 102}, {"time": 2153, "pitch": 72, "duration": 4, "velocity": 96}, {"time": 2189, "pitch": 72, "duration": 4, "velocity": 102}, {"time": 2192, "pitch": 74, "duration": 2, "velocity": 100}, {"time": 2195, "pitch": 76, "duration": 4, "velocity": 110}, {"time": 2201, "pitch": 79, "duration": 2, "velocity": 107}, {"time": 2204, "pitch": 79, "duration": 4, "velocity": 110}, {"time": 2216, "pitch": 76, "duration": 2, "velocity": 104}, {"time": 2219, "pitch": 81, "duration": 4, "velocity": 114}, {"time": 2225, "pitch": 79, "duration": 3, "velocity": 114}, {"time": 2228, "pitch": 76, "duration": 3, "velocity": 114}, {"time": 2243, "pitch": 74, "duration": 3, "velocity": 110}, {"time": 2246, "pitch": 76, "duration": 4, "velocity": 91}, {"time": 2249, "pitch": 74, "duration": 3, "velocity": 104}, {"time": 2252, "pitch": 72, "duration": 3, "velocity": 93}, {"time": 2255, "pitch": 74, "duration": 4, "velocity": 110}, {"time": 2264, "pitch": 76, "duration": 2, "velocity": 92}, {"time": 2267, "pitch": 76, "duration": 4, "velocity": 108}, {"time": 2273, "pitch": 67, "duration": 4, "velocity": 107}, {"time": 2285, "pitch": 72, "duration": 3, "velocity": 113}, {"time": 2288, "pitch": 74, "duration": 2, "velocity": 91}, {"time": 2291, "pitch": 76, "duration": 4, "velocity": 108}, {"time": 2297, "pitch": 79, "duration": 2, "velocity": 113}, {"time": 2300, "pitch": 79, "duration": 3, "velocity": 116}, {"time": 2315, "pitch": 81, "duration": 4, "velocity": 116}, {"time": 2321, "pitch": 84, "duration": 3, "velocity": 114}, {"time": 2324, "pitch": 81, "duration": 4, "velocity": 116}, {"time": 2333, "pitch": 79, "duration": 3, "velocity": 107}, {"time": 2336, "pitch": 76, "duration": 3, "velocity": 104}, {"time": 2339, "pitch": 74, "duration": 4, "velocity": 110}, {"time": 2348, "pitch": 76, "duration": 3, "velocity": 108}, {"time": 2351, "pitch": 74, "duration": 6, "velocity": 113}, {"time": 2357, "pitch": 72, "duration": 6, "velocity": 108}, {"time": 2363, "pitch": 74, "duration": 4, "velocity": 113}, {"time": 2381, "pitch": 72, "duration": 3, "velocity": 108}, {"time": 2384, "pitch": 74, "duration": 2, "velocity": 104}, {"time": 2387, "pitch": 76, "duration": 3, "velocity": 114}, {"time": 2393, "pitch": 79, "duration": 2, "velocity": 113}, {"time": 2396, "pitch": 79, "duration": 4, "velocity": 113}, {"time": 2405, "pitch": 79, "duration": 3, "velocity": 114}, {"time": 2408, "pitch": 76, "duration": 2, "velocity": 108}, {"time": 2411, "pitch": 81, "duration": 4, "velocity": 107}, {"time": 2417, "pitch": 79, "duration": 3, "velocity": 114}, {"time": 2420, "pitch": 76, "duration": 3, "velocity": 114}, {"time": 2435, "pitch": 74, "duration": 3, "velocity": 114}, {"time": 2438, "pitch": 76, "duration": 3, "velocity": 102}, {"time": 2441, "pitch": 74, "duration": 3, "velocity": 108}, {"time": 2444, "pitch": 72, "duration": 3, "velocity": 108}, {"time": 2447, "pitch": 74, "duration": 4, "velocity": 116}, {"time": 2456, "pitch": 76, "duration": 2, "velocity": 107}, {"time": 2459, "pitch": 76, "duration": 4, "velocity": 114}, {"time": 2465, "pitch": 79, "duration": 3, "velocity": 108}, {"time": 2468, "pitch": 67, "duration": 3, "velocity": 108}, {"time": 2477, "pitch": 72, "duration": 4, "velocity": 107}, {"time": 2480, "pitch": 74, "duration": 2, "velocity": 107}, {"time": 2483, "pitch": 76, "duration": 4, "velocity": 113}, {"time": 2489, "pitch": 79, "duration": 2, "velocity": 110}, {"time": 2492, "pitch": 79, "duration": 4, "velocity": 114}, {"time": 2501, "pitch": 79, "duration": 3, "velocity": 110}, {"time": 2504, "pitch": 76, "duration": 2, "velocity": 108}, {"time": 2507, "pitch": 81, "duration": 4, "velocity": 114}, {"time": 2513, "pitch": 81, "duration": 3, "velocity": 114}, {"time": 2516, "pitch": 79, "duration": 3, "velocity": 108}, {"time": 2519, "pitch": 76, "duration": 3, "velocity": 117}, {"time": 2531, "pitch": 74, "duration": 4, "velocity": 107}, {"time": 2534, "pitch": 76, "duration": 3, "velocity": 104}, {"time": 2537, "pitch": 79, "duration": 3, "velocity": 107}, {"time": 2540, "pitch": 81, "duration": 3, "velocity": 107}, {"time": 2549, "pitch": 69, "duration": 5, "velocity": 104}, {"time": 2555, "pitch": 72, "duration": 6, "velocity": 110}, {"time": 2573, "pitch": 72, "duration": 4, "velocity": 96}, {"time": 2576, "pitch": 74, "duration": 3, "velocity": 93}, {"time": 2579, "pitch": 76, "duration": 4, "velocity": 102}, {"time": 2585, "pitch": 79, "duration": 2, "velocity": 100}, {"time": 2588, "pitch": 79, "duration": 4, "velocity": 108}, {"time": 2598, "pitch": 79, "duration": 3, "velocity": 113}, {"time": 2601, "pitch": 76, "duration": 2, "velocity": 104}, {"time": 2604, "pitch": 81, "duration": 4, "velocity": 114}, {"time": 2610, "pitch": 81, "duration": 4, "velocity": 110}, {"time": 2613, "pitch": 79, "duration": 4, "velocity": 102}, {"time": 2617, "pitch": 76, "duration": 6, "velocity": 113}, {"time": 2630, "pitch": 74, "duration": 5, "velocity": 110}, {"time": 2635, "pitch": 76, "duration": 5, "velocity": 98}, {"time": 2639, "pitch": 79, "duration": 5, "velocity": 94}, {"time": 2645, "pitch": 81, "duration": 7, "velocity": 107}, {"time": 2663, "pitch": 69, "duration": 12, "velocity": 116}, {"time": 2675, "pitch": 72, "duration": 7, "velocity": 116}]}, {"program": 0, "is_drum": false, "name": "BRIDGE", "notes": [{"time": 11, "pitch": 76, "duration": 6, "velocity": 98}, {"time": 16, "pitch": 79, "duration": 2, "velocity": 91}, {"time": 20, "pitch": 79, "duration": 9, "velocity": 91}, {"time": 34, "pitch": 81, "duration": 4, "velocity": 107}, {"time": 41, "pitch": 79, "duration": 3, "velocity": 94}, {"time": 44, "pitch": 76, "duration": 4, "velocity": 96}, {"time": 56, "pitch": 72, "duration": 2, "velocity": 80}, {"time": 58, "pitch": 74, "duration": 2, "velocity": 79}, {"time": 59, "pitch": 76, "duration": 6, "velocity": 89}, {"time": 65, "pitch": 74, "duration": 3, "velocity": 88}, {"time": 68, "pitch": 72, "duration": 3, "velocity": 87}, {"time": 71, "pitch": 74, "duration": 3, "velocity": 94}, {"time": 77, "pitch": 76, "duration": 4, "velocity": 87}, {"time": 83, "pitch": 76, "duration": 4, "velocity": 85}, {"time": 95, "pitch": 74, "duration": 5, "velocity": 90}, {"time": 104, "pitch": 72, "duration": 2, "velocity": 87}, {"time": 106, "pitch": 74, "duration": 2, "velocity": 88}, {"time": 107, "pitch": 76, "duration": 6, "velocity": 91}, {"time": 113, "pitch": 79, "duration": 3, "velocity": 93}, {"time": 116, "pitch": 79, "duration": 6, "velocity": 96}, {"time": 128, "pitch": 76, "duration": 2, "velocity": 80}, {"time": 131, "pitch": 81, "duration": 5, "velocity": 107}, {"time": 137, "pitch": 84, "duration": 3, "velocity": 107}, {"time": 140, "pitch": 81, "duration": 3, "velocity": 102}, {"time": 152, "pitch": 79, "duration": 2, "velocity": 82}, {"time": 154, "pitch": 76, "duration": 1, "velocity": 89}, {"time": 155, "pitch": 74, "duration": 3, "velocity": 100}, {"time": 158, "pitch": 76, "duration": 3, "velocity": 88}, {"time": 161, "pitch": 79, "duration": 3, "velocity": 89}, {"time": 164, "pitch": 81, "duration": 3, "velocity": 104}, {"time": 173, "pitch": 69, "duration": 6, "velocity": 102}, {"time": 179, "pitch": 72, "duration": 5, "velocity": 104}, {"time": 683, "pitch": 79, "duration": 21, "velocity": 98}, {"time": 707, "pitch": 79, "duration": 7, "velocity": 108}, {"time": 713, "pitch": 76, "duration": 7, "velocity": 100}, {"time": 719, "pitch": 74, "duration": 7, "velocity": 92}, {"time": 725, "pitch": 72, "duration": 5, "velocity": 86}, {"time": 731, "pitch": 74, "duration": 8, "velocity": 102}, {"time": 1403, "pitch": 91, "duration": 4, "velocity": 116}, {"time": 1406, "pitch": 93, "duration": 3, "velocity": 100}, {"time": 1409, "pitch": 96, "duration": 3, "velocity": 114}, {"time": 1412, "pitch": 98, "duration": 3, "velocity": 113}, {"time": 1415, "pitch": 96, "duration": 9, "velocity": 116}, {"time": 1433, "pitch": 69, "duration": 6, "velocity": 94}, {"time": 1439, "pitch": 60, "duration": 7, "velocity": 100}, {"time": 1445, "pitch": 65, "duration": 7, "velocity": 93}, {"time": 1448, "pitch": 91, "duration": 2, "velocity": 91}, {"time": 1450, "pitch": 88, "duration": 1, "velocity": 92}, {"time": 1451, "pitch": 64, "duration": 7, "velocity": 89}, {"time": 1451, "pitch": 86, "duration": 3, "velocity": 102}, {"time": 1454, "pitch": 88, "duration": 3, "velocity": 93}, {"time": 1457, "pitch": 91, "duration": 3, "velocity": 107}, {"time": 1460, "pitch": 93, "duration": 3, "velocity": 102}, {"time": 1463, "pitch": 91, "duration": 4, "velocity": 102}, {"time": 1481, "pitch": 64, "duration": 7, "velocity": 102}, {"time": 1487, "pitch": 67, "duration": 6, "velocity": 88}, {"time": 1493, "pitch": 62, "duration": 6, "velocity": 92}, {"time": 1499, "pitch": 60, "duration": 14, "velocity": 89}, {"time": 1499, "pitch": 79, "duration": 3, "velocity": 114}, {"time": 1502, "pitch": 81, "duration": 3, "velocity": 98}, {"time": 1505, "pitch": 84, "duration": 3, "velocity": 100}, {"time": 1508, "pitch": 86, "duration": 3, "velocity": 107}, {"time": 1511, "pitch": 84, "duration": 3, "velocity": 113}, {"time": 1529, "pitch": 69, "duration": 8, "velocity": 98}, {"time": 1535, "pitch": 60, "duration": 6, "velocity": 88}, {"time": 1541, "pitch": 65, "duration": 3, "velocity": 93}, {"time": 1544, "pitch": 67, "duration": 2, "velocity": 90}, {"time": 1546, "pitch": 64, "duration": 1, "velocity": 84}, {"time": 1547, "pitch": 62, "duration": 3, "velocity": 89}, {"time": 1547, "pitch": 67, "duration": 9, "velocity": 88}, {"time": 1550, "pitch": 64, "duration": 3, "velocity": 86}, {"time": 1553, "pitch": 67, "duration": 3, "velocity": 85}, {"time": 1556, "pitch": 69, "duration": 3, "velocity": 88}, {"time": 1559, "pitch": 67, "duration": 5, "velocity": 81}, {"time": 1991, "pitch": 67, "duration": 4, "velocity": 93}, {"time": 1994, "pitch": 69, "duration": 3, "velocity": 97}, {"time": 1997, "pitch": 72, "duration": 3, "velocity": 107}, {"time": 2000, "pitch": 74, "duration": 3, "velocity": 112}, {"time": 2003, "pitch": 79, "duration": 11, "velocity": 125}, {"time": 2028, "pitch": 81, "duration": 22, "velocity": 114}, {"time": 2051, "pitch": 74, "duration": 28, "velocity": 97}, {"time": 2078, "pitch": 72, "duration": 4, "velocity": 107}, {"time": 2081, "pitch": 71, "duration": 4, "velocity": 100}, {"time": 2084, "pitch": 67, "duration": 3, "velocity": 91}, {"time": 2087, "pitch": 62, "duration": 4, "velocity": 86}, {"time": 2123, "pitch": 67, "duration": 23, "velocity": 120}, {"time": 2174, "pitch": 57, "duration": 4, "velocity": 89}, {"time": 2177, "pitch": 60, "duration": 4, "velocity": 86}, {"time": 2186, "pitch": 60, "duration": 3, "velocity": 83}, {"time": 2189, "pitch": 64, "duration": 2, "velocity": 88}, {"time": 2192, "pitch": 67, "duration": 2, "velocity": 102}, {"time": 2195, "pitch": 67, "duration": 4, "velocity": 113}, {"time": 2243, "pitch": 81, "duration": 20, "velocity": 106}, {"time": 2264, "pitch": 84, "duration": 4, "velocity": 96}, {"time": 2267, "pitch": 83, "duration": 6, "velocity": 96}, {"time": 2273, "pitch": 81, "duration": 5, "velocity": 96}, {"time": 2279, "pitch": 79, "duration": 13, "velocity": 96}, {"time": 2366, "pitch": 55, "duration": 4, "velocity": 86}, {"time": 2369, "pitch": 57, "duration": 3, "velocity": 86}, {"time": 2372, "pitch": 60, "duration": 3, "velocity": 86}, {"time": 2375, "pitch": 60, "duration": 4, "velocity": 90}, {"time": 2381, "pitch": 64, "duration": 3, "velocity": 92}, {"time": 2384, "pitch": 65, "duration": 3, "velocity": 90}, {"time": 2387, "pitch": 67, "duration": 5, "velocity": 113}, {"time": 2672, "pitch": 72, "duration": 2, "velocity": 87}, {"time": 2674, "pitch": 74, "duration": 2, "velocity": 88}, {"time": 2675, "pitch": 76, "duration": 6, "velocity": 91}, {"time": 2681, "pitch": 79, "duration": 3, "velocity": 93}, {"time": 2684, "pitch": 79, "duration": 6, "velocity": 96}, {"time": 2696, "pitch": 76, "duration": 2, "velocity": 80}, {"time": 2699, "pitch": 81, "duration": 5, "velocity": 107}, {"time": 2705, "pitch": 84, "duration": 3, "velocity": 107}, {"time": 2708, "pitch": 81, "duration": 3, "velocity": 102}, {"time": 2720, "pitch": 79, "duration": 2, "velocity": 82}, {"time": 2722, "pitch": 76, "duration": 1, "velocity": 89}, {"time": 2723, "pitch": 74, "duration": 3, "velocity": 100}, {"time": 2726, "pitch": 76, "duration": 3, "velocity": 88}, {"time": 2729, "pitch": 79, "duration": 3, "velocity": 89}, {"time": 2732, "pitch": 81, "duration": 3, "velocity": 104}, {"time": 2759, "pitch": 69, "duration": 12, "velocity": 102}, {"time": 2771, "pitch": 72, "duration": 5, "velocity": 104}]}, {"program": 0, "is_drum": false, "name": "PIANO", "notes": [{"time": 11, "pitch": 48, "duration": 21, "velocity": 90}, {"time": 14, "pitch": 55, "duration": 18, "velocity": 73}, {"time": 17, "pitch": 60, "duration": 14, "velocity": 77}, {"time": 20, "pitch": 67, "duration": 16, "velocity": 86}, {"time": 35, "pitch": 45, "duration": 21, "velocity": 88}, {"time": 38, "pitch": 52, "duration": 17, "velocity": 76}, {"time": 41, "pitch": 57, "duration": 14, "velocity": 82}, {"time": 44, "pitch": 60, "duration": 15, "velocity": 79}, {"time": 59, "pitch": 50, "duration": 19, "velocity": 80}, {"time": 62, "pitch": 57, "duration": 15, "velocity": 76}, {"time": 65, "pitch": 62, "duration": 4, "velocity": 65}, {"time": 68, "pitch": 67, "duration": 17, "velocity": 86}, {"time": 83, "pitch": 43, "duration": 20, "velocity": 80}, {"time": 86, "pitch": 50, "duration": 18, "velocity": 77}, {"time": 89, "pitch": 55, "duration": 15, "velocity": 79}, {"time": 92, "pitch": 59, "duration": 14, "velocity": 79}, {"time": 92, "pitch": 67, "duration": 14, "velocity": 75}, {"time": 107, "pitch": 40, "duration": 19, "velocity": 92}, {"time": 110, "pitch": 47, "duration": 17, "velocity": 78}, {"time": 113, "pitch": 52, "duration": 18, "velocity": 86}, {"time": 116, "pitch": 59, "duration": 15, "velocity": 87}, {"time": 116, "pitch": 64, "duration": 16, "velocity": 91}, {"time": 131, "pitch": 45, "duration": 20, "velocity": 83}, {"time": 134, "pitch": 52, "duration": 17, "velocity": 77}, {"time": 137, "pitch": 57, "duration": 15, "velocity": 87}, {"time": 140, "pitch": 60, "duration": 15, "velocity": 87}, {"time": 140, "pitch": 69, "duration": 15, "velocity": 85}, {"time": 155, "pitch": 50, "duration": 10, "velocity": 86}, {"time": 158, "pitch": 57, "duration": 7, "velocity": 80}, {"time": 161, "pitch": 62, "duration": 3, "velocity": 84}, {"time": 164, "pitch": 65, "duration": 4, "velocity": 81}, {"time": 167, "pitch": 43, "duration": 9, "velocity": 88}, {"time": 170, "pitch": 50, "duration": 6, "velocity": 81}, {"time": 173, "pitch": 55, "duration": 5, "velocity": 84}, {"time": 176, "pitch": 59, "duration": 4, "velocity": 80}, {"time": 179, "pitch": 48, "duration": 19, "velocity": 85}, {"time": 182, "pitch": 55, "duration": 16, "velocity": 74}, {"time": 185, "pitch": 60, "duration": 12, "velocity": 83}, {"time": 188, "pitch": 65, "duration": 4, "velocity": 83}, {"time": 191, "pitch": 64, "duration": 9, "velocity": 88}, {"time": 227, "pitch": 48, "duration": 19, "velocity": 89}, {"time": 233, "pitch": 55, "duration": 13, "velocity": 66}, {"time": 239, "pitch": 60, "duration": 7, "velocity": 78}, {"time": 245, "pitch": 64, "duration": 7, "velocity": 80}, {"time": 251, "pitch": 45, "duration": 21, "velocity": 87}, {"time": 257, "pitch": 52, "duration": 16, "velocity": 65}, {"time": 263, "pitch": 57, "duration": 10, "velocity": 73}, {"time": 275, "pitch": 48, "duration": 20, "velocity": 86}, {"time": 281, "pitch": 55, "duration": 13, "velocity": 73}, {"time": 287, "pitch": 60, "duration": 6, "velocity": 81}, {"time": 293, "pitch": 64, "duration": 8, "velocity": 80}, {"time": 299, "pitch": 43, "duration": 20, "velocity": 86}, {"time": 305, "pitch": 50, "duration": 15, "velocity": 66}, {"time": 311, "pitch": 55, "duration": 9, "velocity": 79}, {"time": 323, "pitch": 52, "duration": 19, "velocity": 86}, {"time": 329, "pitch": 59, "duration": 13, "velocity": 66}, {"time": 335, "pitch": 64, "duration": 6, "velocity": 77}, {"time": 347, "pitch": 45, "duration": 21, "velocity": 87}, {"time": 353, "pitch": 52, "duration": 15, "velocity": 78}, {"time": 359, "pitch": 57, "duration": 7, "velocity": 72}, {"time": 359, "pitch": 60, "duration": 13, "velocity": 69}, {"time": 371, "pitch": 41, "duration": 20, "velocity": 88}, {"time": 377, "pitch": 48, "duration": 16, "velocity": 74}, {"time": 383, "pitch": 53, "duration": 12, "velocity": 78}, {"time": 383, "pitch": 57, "duration": 14, "velocity": 76}, {"time": 383, "pitch": 65, "duration": 14, "velocity": 73}, {"time": 395, "pitch": 43, "duration": 20, "velocity": 84}, {"time": 401, "pitch": 50, "duration": 14, "velocity": 67}, {"time": 407, "pitch": 55, "duration": 12, "velocity": 80}, {"time": 407, "pitch": 59, "duration": 8, "velocity": 84}, {"time": 407, "pitch": 67, "duration": 9, "velocity": 83}, {"time": 419, "pitch": 48, "duration": 21, "velocity": 87}, {"time": 425, "pitch": 55, "duration": 14, "velocity": 76}, {"time": 431, "pitch": 60, "duration": 7, "velocity": 78}, {"time": 431, "pitch": 64, "duration": 15, "velocity": 81}, {"time": 431, "pitch": 67, "duration": 14, "velocity": 78}, {"time": 443, "pitch": 45, "duration": 20, "velocity": 72}, {"time": 449, "pitch": 52, "duration": 14, "velocity": 75}, {"time": 455, "pitch": 57, "duration": 9, "velocity": 70}, {"time": 455, "pitch": 60, "duration": 11, "velocity": 74}, {"time": 455, "pitch": 69, "duration": 11, "velocity": 80}, {"time": 467, "pitch": 48, "duration": 18, "velocity": 78}, {"time": 473, "pitch": 55, "duration": 11, "velocity": 74}, {"time": 479, "pitch": 60, "duration": 4, "velocity": 75}, {"time": 479, "pitch": 64, "duration": 14, "velocity": 86}, {"time": 479, "pitch": 67, "duration": 13, "velocity": 85}, {"time": 491, "pitch": 43, "duration": 20, "velocity": 81}, {"time": 497, "pitch": 50, "duration": 18, "velocity": 67}, {"time": 503, "pitch": 55, "duration": 12, "velocity": 72}, {"time": 503, "pitch": 59, "duration": 11, "velocity": 84}, {"time": 503, "pitch": 67, "duration": 13, "velocity": 84}, {"time": 515, "pitch": 52, "duration": 19, "velocity": 86}, {"time": 521, "pitch": 59, "duration": 12, "velocity": 61}, {"time": 527, "pitch": 64, "duration": 5, "velocity": 76}, {"time": 527, "pitch": 67, "duration": 12, "velocity": 84}, {"time": 527, "pitch": 71, "duration": 11, "velocity": 82}, {"time": 539, "pitch": 45, "duration": 20, "velocity": 75}, {"time": 539, "pitch": 64, "duration": 8, "velocity": 85}, {"time": 539, "pitch": 69, "duration": 2, "velocity": 84}, {"time": 539, "pitch": 72, "duration": 6, "velocity": 84}, {"time": 545, "pitch": 52, "duration": 13, "velocity": 67}, {"time": 551, "pitch": 57, "duration": 7, "velocity": 81}, {"time": 551, "pitch": 59, "duration": 8, "velocity": 75}, {"time": 551, "pitch": 67, "duration": 9, "velocity": 88}, {"time": 563, "pitch": 41, "duration": 9, "velocity": 84}, {"time": 563, "pitch": 57, "duration": 8, "velocity": 85}, {"time": 563, "pitch": 65, "duration": 9, "velocity": 89}, {"time": 575, "pitch": 43, "duration": 7, "velocity": 86}, {"time": 575, "pitch": 59, "duration": 9, "velocity": 86}, {"time": 575, "pitch": 67, "duration": 9, "velocity": 87}, {"time": 587, "pitch": 48, "duration": 21, "velocity": 83}, {"time": 587, "pitch": 60, "duration": 4, "velocity": 84}, {"time": 587, "pitch": 67, "duration": 15, "velocity": 88}, {"time": 593, "pitch": 55, "duration": 18, "velocity": 64}, {"time": 599, "pitch": 60, "duration": 8, "velocity": 83}, {"time": 602, "pitch": 65, "duration": 6, "velocity": 85}, {"time": 608, "pitch": 67, "duration": 3, "velocity": 65}, {"time": 611, "pitch": 48, "duration": 14, "velocity": 84}, {"time": 611, "pitch": 64, "duration": 12, "velocity": 87}, {"time": 623, "pitch": 60, "duration": 8, "velocity": 81}, {"time": 623, "pitch": 64, "duration": 9, "velocity": 42}, {"time": 623, "pitch": 67, "duration": 9, "velocity": 81}, {"time": 635, "pitch": 48, "duration": 19, "velocity": 87}, {"time": 635, "pitch": 60, "duration": 9, "velocity": 85}, {"time": 635, "pitch": 64, "duration": 9, "velocity": 88}, {"time": 635, "pitch": 67, "duration": 8, "velocity": 84}, {"time": 647, "pitch": 60, "duration": 9, "velocity": 88}, {"time": 647, "pitch": 64, "duration": 10, "velocity": 90}, {"time": 647, "pitch": 67, "duration": 9, "velocity": 88}, {"time": 659, "pitch": 45, "duration": 19, "velocity": 86}, {"time": 659, "pitch": 57, "duration": 22, "velocity": 86}, {"time": 659, "pitch": 60, "duration": 8, "velocity": 84}, {"time": 659, "pitch": 64, "duration": 9, "velocity": 87}, {"time": 659, "pitch": 69, "duration": 8, "velocity": 90}, {"time": 671, "pitch": 60, "duration": 8, "velocity": 85}, {"time": 671, "pitch": 64, "duration": 11, "velocity": 89}, {"time": 671, "pitch": 69, "duration": 9, "velocity": 88}, {"time": 683, "pitch": 50, "duration": 24, "velocity": 86}, {"time": 683, "pitch": 62, "duration": 9, "velocity": 86}, {"time": 683, "pitch": 65, "duration": 9, "velocity": 88}, {"time": 683, "pitch": 69, "duration": 9, "velocity": 90}, {"time": 695, "pitch": 62, "duration": 12, "velocity": 91}, {"time": 695, "pitch": 65, "duration": 10, "velocity": 91}, {"time": 695, "pitch": 69, "duration": 8, "velocity": 89}, {"time": 707, "pitch": 43, "duration": 21, "velocity": 85}, {"time": 707, "pitch": 55, "duration": 21, "velocity": 84}, {"time": 707, "pitch": 59, "duration": 10, "velocity": 88}, {"time": 707, "pitch": 62, "duration": 10, "velocity": 85}, {"time": 707, "pitch": 67, "duration": 9, "velocity": 88}, {"time": 719, "pitch": 59, "duration": 9, "velocity": 91}, {"time": 719, "pitch": 62, "duration": 10, "velocity": 96}, {"time": 719, "pitch": 67, "duration": 9, "velocity": 92}, {"time": 731, "pitch": 40, "duration": 18, "velocity": 93}, {"time": 731, "pitch": 59, "duration": 9, "velocity": 87}, {"time": 731, "pitch": 64, "duration": 9, "velocity": 91}, {"time": 731, "pitch": 67, "duration": 8, "velocity": 89}, {"time": 740, "pitch": 52, "duration": 5, "velocity": 80}, {"time": 743, "pitch": 59, "duration": 8, "velocity": 98}, {"time": 743, "pitch": 64, "duration": 6, "velocity": 102}, {"time": 743, "pitch": 67, "duration": 11, "velocity": 98}, {"time": 749, "pitch": 52, "duration": 7, "velocity": 84}, {"time": 752, "pitch": 64, "duration": 2, "velocity": 38}, {"time": 755, "pitch": 45, "duration": 19, "velocity": 84}, {"time": 755, "pitch": 60, "duration": 9, "velocity": 89}, {"time": 755, "pitch": 64, "duration": 9, "velocity": 98}, {"time": 755, "pitch": 69, "duration": 9, "velocity": 94}, {"time": 761, "pitch": 52, "duration": 13, "velocity": 75}, {"time": 764, "pitch": 57, "duration": 6, "velocity": 88}, {"time": 767, "pitch": 60, "duration": 9, "velocity": 91}, {"time": 767, "pitch": 64, "duration": 11, "velocity": 104}, {"time": 767, "pitch": 69, "duration": 9, "velocity": 94}, {"time": 773, "pitch": 57, "duration": 5, "velocity": 86}, {"time": 779, "pitch": 50, "duration": 15, "velocity": 87}, {"time": 779, "pitch": 62, "duration": 9, "velocity": 89}, {"time": 779, "pitch": 65, "duration": 9, "velocity": 93}, {"time": 779, "pitch": 69, "duration": 9, "velocity": 88}, {"time": 788, "pitch": 57, "duration": 7, "velocity": 79}, {"time": 791, "pitch": 62, "duration": 11, "velocity": 96}, {"time": 791, "pitch": 65, "duration": 8, "velocity": 100}, {"time": 791, "pitch": 69, "duration": 9, "velocity": 94}, {"time": 797, "pitch": 50, "duration": 2, "velocity": 80}, {"time": 797, "pitch": 52, "duration": 1, "velocity": 83}, {"time": 803, "pitch": 43, "duration": 19, "velocity": 91}, {"time": 803, "pitch": 59, "duration": 7, "velocity": 85}, {"time": 803, "pitch": 62, "duration": 7, "velocity": 94}, {"time": 803, "pitch": 67, "duration": 6, "velocity": 90}, {"time": 806, "pitch": 50, "duration": 17, "velocity": 85}, {"time": 809, "pitch": 55, "duration": 6, "velocity": 102}, {"time": 812, "pitch": 59, "duration": 7, "velocity": 98}, {"time": 812, "pitch": 67, "duration": 7, "velocity": 107}, {"time": 818, "pitch": 55, "duration": 8, "velocity": 96}, {"time": 821, "pitch": 59, "duration": 4, "velocity": 102}, {"time": 821, "pitch": 67, "duration": 4, "velocity": 94}, {"time": 824, "pitch": 62, "duration": 3, "velocity": 87}, {"time": 827, "pitch": 48, "duration": 15, "velocity": 91}, {"time": 827, "pitch": 60, "duration": 4, "velocity": 98}, {"time": 827, "pitch": 64, "duration": 7, "velocity": 100}, {"time": 827, "pitch": 67, "duration": 7, "velocity": 98}, {"time": 833, "pitch": 55, "duration": 9, "velocity": 77}, {"time": 836, "pitch": 60, "duration": 5, "velocity": 96}, {"time": 839, "pitch": 64, "duration": 8, "velocity": 107}, {"time": 839, "pitch": 67, "duration": 11, "velocity": 113}, {"time": 839, "pitch": 72, "duration": 8, "velocity": 104}, {"time": 845, "pitch": 47, "duration": 6, "velocity": 88}, {"time": 851, "pitch": 45, "duration": 21, "velocity": 86}, {"time": 851, "pitch": 64, "duration": 8, "velocity": 91}, {"time": 851, "pitch": 69, "duration": 6, "velocity": 110}, {"time": 851, "pitch": 72, "duration": 1, "velocity": 84}, {"time": 857, "pitch": 52, "duration": 15, "velocity": 83}, {"time": 860, "pitch": 60, "duration": 7, "velocity": 102}, {"time": 860, "pitch": 64, "duration": 7, "velocity": 100}, {"time": 860, "pitch": 69, "duration": 6, "velocity": 90}, {"time": 866, "pitch": 57, "duration": 5, "velocity": 88}, {"time": 869, "pitch": 60, "duration": 5, "velocity": 92}, {"time": 869, "pitch": 64, "duration": 5, "velocity": 102}, {"time": 869, "pitch": 69, "duration": 4, "velocity": 94}, {"time": 875, "pitch": 50, "duration": 15, "velocity": 88}, {"time": 875, "pitch": 62, "duration": 3, "velocity": 91}, {"time": 875, "pitch": 65, "duration": 6, "velocity": 94}, {"time": 875, "pitch": 69, "duration": 7, "velocity": 91}, {"time": 881, "pitch": 57, "duration": 10, "velocity": 69}, {"time": 884, "pitch": 62, "duration": 5, "velocity": 86}, {"time": 887, "pitch": 65, "duration": 8, "velocity": 104}, {"time": 887, "pitch": 69, "duration": 11, "velocity": 108}, {"time": 887, "pitch": 74, "duration": 7, "velocity": 107}, {"time": 893, "pitch": 50, "duration": 2, "velocity": 82}, {"time": 899, "pitch": 43, "duration": 20, "velocity": 88}, {"time": 899, "pitch": 62, "duration": 8, "velocity": 88}, {"time": 899, "pitch": 67, "duration": 3, "velocity": 94}, {"time": 899, "pitch": 71, "duration": 4, "velocity": 91}, {"time": 902, "pitch": 50, "duration": 16, "velocity": 78}, {"time": 905, "pitch": 55, "duration": 5, "velocity": 85}, {"time": 908, "pitch": 59, "duration": 5, "velocity": 94}, {"time": 908, "pitch": 62, "duration": 7, "velocity": 104}, {"time": 908, "pitch": 67, "duration": 6, "velocity": 102}, {"time": 914, "pitch": 55, "duration": 4, "velocity": 91}, {"time": 917, "pitch": 59, "duration": 4, "velocity": 94}, {"time": 920, "pitch": 62, "duration": 3, "velocity": 88}, {"time": 923, "pitch": 40, "duration": 9, "velocity": 88}, {"time": 923, "pitch": 41, "duration": 19, "velocity": 87}, {"time": 923, "pitch": 57, "duration": 9, "velocity": 86}, {"time": 923, "pitch": 60, "duration": 10, "velocity": 89}, {"time": 923, "pitch": 65, "duration": 9, "velocity": 91}, {"time": 932, "pitch": 53, "duration": 5, "velocity": 81}, {"time": 935, "pitch": 57, "duration": 6, "velocity": 91}, {"time": 935, "pitch": 60, "duration": 10, "velocity": 93}, {"time": 935, "pitch": 65, "duration": 6, "velocity": 92}, {"time": 941, "pitch": 53, "duration": 5, "velocity": 83}, {"time": 947, "pitch": 43, "duration": 19, "velocity": 87}, {"time": 947, "pitch": 59, "duration": 9, "velocity": 87}, {"time": 947, "pitch": 62, "duration": 9, "velocity": 90}, {"time": 947, "pitch": 67, "duration": 9, "velocity": 89}, {"time": 956, "pitch": 55, "duration": 5, "velocity": 81}, {"time": 959, "pitch": 59, "duration": 9, "velocity": 88}, {"time": 959, "pitch": 62, "duration": 11, "velocity": 93}, {"time": 959, "pitch": 67, "duration": 9, "velocity": 88}, {"time": 965, "pitch": 55, "duration": 6, "velocity": 79}, {"time": 971, "pitch": 48, "duration": 22, "velocity": 87}, {"time": 971, "pitch": 60, "duration": 4, "velocity": 88}, {"time": 971, "pitch": 64, "duration": 7, "velocity": 94}, {"time": 971, "pitch": 67, "duration": 7, "velocity": 90}, {"time": 974, "pitch": 55, "duration": 18, "velocity": 73}, {"time": 977, "pitch": 60, "duration": 5, "velocity": 84}, {"time": 980, "pitch": 65, "duration": 7, "velocity": 113}, {"time": 986, "pitch": 60, "duration": 5, "velocity": 84}, {"time": 989, "pitch": 64, "duration": 3, "velocity": 91}, {"time": 992, "pitch": 67, "duration": 1, "velocity": 70}, {"time": 995, "pitch": 48, "duration": 20, "velocity": 86}, {"time": 995, "pitch": 60, "duration": 3, "velocity": 86}, {"time": 995, "pitch": 64, "duration": 4, "velocity": 89}, {"time": 995, "pitch": 67, "duration": 4, "velocity": 88}, {"time": 998, "pitch": 55, "duration": 17, "velocity": 80}, {"time": 1001, "pitch": 60, "duration": 4, "velocity": 89}, {"time": 1004, "pitch": 64, "duration": 7, "velocity": 98}, {"time": 1004, "pitch": 67, "duration": 7, "velocity": 108}, {"time": 1004, "pitch": 72, "duration": 6, "velocity": 96}, {"time": 1007, "pitch": 60, "duration": 6, "velocity": 86}, {"time": 1013, "pitch": 64, "duration": 3, "velocity": 87}, {"time": 1013, "pitch": 67, "duration": 5, "velocity": 91}, {"time": 1013, "pitch": 72, "duration": 3, "velocity": 87}, {"time": 1019, "pitch": 48, "duration": 15, "velocity": 92}, {"time": 1019, "pitch": 64, "duration": 9, "velocity": 98}, {"time": 1019, "pitch": 67, "duration": 9, "velocity": 104}, {"time": 1019, "pitch": 72, "duration": 8, "velocity": 89}, {"time": 1025, "pitch": 55, "duration": 9, "velocity": 73}, {"time": 1028, "pitch": 60, "duration": 5, "velocity": 98}, {"time": 1031, "pitch": 64, "duration": 9, "velocity": 100}, {"time": 1031, "pitch": 67, "duration": 11, "velocity": 113}, {"time": 1031, "pitch": 72, "duration": 9, "velocity": 93}, {"time": 1037, "pitch": 47, "duration": 6, "velocity": 88}, {"time": 1043, "pitch": 45, "duration": 20, "velocity": 93}, {"time": 1043, "pitch": 64, "duration": 8, "velocity": 91}, {"time": 1043, "pitch": 69, "duration": 8, "velocity": 100}, {"time": 1043, "pitch": 72, "duration": 8, "velocity": 92}, {"time": 1049, "pitch": 52, "duration": 14, "velocity": 83}, {"time": 1052, "pitch": 64, "duration": 7, "velocity": 91}, {"time": 1052, "pitch": 69, "duration": 7, "velocity": 108}, {"time": 1052, "pitch": 72, "duration": 7, "velocity": 91}, {"time": 1058, "pitch": 57, "duration": 9, "velocity": 85}, {"time": 1061, "pitch": 64, "duration": 4, "velocity": 96}, {"time": 1061, "pitch": 69, "duration": 5, "velocity": 104}, {"time": 1061, "pitch": 72, "duration": 4, "velocity": 88}, {"time": 1067, "pitch": 50, "duration": 20, "velocity": 93}, {"time": 1070, "pitch": 57, "duration": 16, "velocity": 74}, {"time": 1073, "pitch": 62, "duration": 6, "velocity": 89}, {"time": 1076, "pitch": 65, "duration": 8, "velocity": 102}, {"time": 1076, "pitch": 69, "duration": 8, "velocity": 110}, {"time": 1076, "pitch": 74, "duration": 8, "velocity": 98}, {"time": 1082, "pitch": 62, "duration": 3, "velocity": 87}, {"time": 1085, "pitch": 65, "duration": 3, "velocity": 96}, {"time": 1085, "pitch": 69, "duration": 5, "velocity": 93}, {"time": 1085, "pitch": 74, "duration": 3, "velocity": 96}, {"time": 1091, "pitch": 43, "duration": 19, "velocity": 87}, {"time": 1091, "pitch": 62, "duration": 7, "velocity": 104}, {"time": 1091, "pitch": 67, "duration": 3, "velocity": 96}, {"time": 1091, "pitch": 71, "duration": 4, "velocity": 93}, {"time": 1094, "pitch": 50, "duration": 16, "velocity": 81}, {"time": 1097, "pitch": 55, "duration": 6, "velocity": 85}, {"time": 1100, "pitch": 59, "duration": 7, "velocity": 100}, {"time": 1100, "pitch": 62, "duration": 7, "velocity": 108}, {"time": 1100, "pitch": 67, "duration": 7, "velocity": 91}, {"time": 1106, "pitch": 55, "duration": 4, "velocity": 86}, {"time": 1109, "pitch": 59, "duration": 4, "velocity": 96}, {"time": 1109, "pitch": 67, "duration": 4, "velocity": 91}, {"time": 1112, "pitch": 62, "duration": 2, "velocity": 88}, {"time": 1115, "pitch": 40, "duration": 18, "velocity": 96}, {"time": 1115, "pitch": 59, "duration": 9, "velocity": 104}, {"time": 1115, "pitch": 64, "duration": 9, "velocity": 110}, {"time": 1115, "pitch": 67, "duration": 9, "velocity": 100}, {"time": 1121, "pitch": 47, "duration": 13, "velocity": 75}, {"time": 1124, "pitch": 52, "duration": 4, "velocity": 91}, {"time": 1127, "pitch": 59, "duration": 9, "velocity": 107}, {"time": 1127, "pitch": 64, "duration": 11, "velocity": 108}, {"time": 1127, "pitch": 67, "duration": 11, "velocity": 100}, {"time": 1133, "pitch": 52, "duration": 7, "velocity": 82}, {"time": 1139, "pitch": 45, "duration": 19, "velocity": 84}, {"time": 1139, "pitch": 60, "duration": 10, "velocity": 96}, {"time": 1139, "pitch": 64, "duration": 10, "velocity": 108}, {"time": 1139, "pitch": 69, "duration": 10, "velocity": 98}, {"time": 1145, "pitch": 52, "duration": 13, "velocity": 74}, {"time": 1148, "pitch": 57, "duration": 5, "velocity": 89}, {"time": 1151, "pitch": 60, "duration": 9, "velocity": 96}, {"time": 1151, "pitch": 64, "duration": 11, "velocity": 104}, {"time": 1151, "pitch": 69, "duration": 9, "velocity": 94}, {"time": 1157, "pitch": 57, "duration": 5, "velocity": 85}, {"time": 1163, "pitch": 50, "duration": 15, "velocity": 89}, {"time": 1163, "pitch": 62, "duration": 9, "velocity": 90}, {"time": 1163, "pitch": 65, "duration": 9, "velocity": 102}, {"time": 1163, "pitch": 69, "duration": 9, "velocity": 92}, {"time": 1172, "pitch": 57, "duration": 6, "velocity": 86}, {"time": 1175, "pitch": 62, "duration": 11, "velocity": 96}, {"time": 1175, "pitch": 65, "duration": 10, "velocity": 108}, {"time": 1175, "pitch": 69, "duration": 9, "velocity": 100}, {"time": 1181, "pitch": 50, "duration": 5, "velocity": 81}, {"time": 1187, "pitch": 43, "duration": 22, "velocity": 91}, {"time": 1187, "pitch": 59, "duration": 7, "velocity": 93}, {"time": 1187, "pitch": 62, "duration": 7, "velocity": 107}, {"time": 1187, "pitch": 67, "duration": 7, "velocity": 93}, {"time": 1190, "pitch": 50, "duration": 19, "velocity": 83}, {"time": 1193, "pitch": 55, "duration": 4, "velocity": 89}, {"time": 1196, "pitch": 59, "duration": 6, "velocity": 100}, {"time": 1196, "pitch": 62, "duration": 7, "velocity": 113}, {"time": 1196, "pitch": 67, "duration": 6, "velocity": 104}, {"time": 1202, "pitch": 55, "duration": 4, "velocity": 88}, {"time": 1205, "pitch": 59, "duration": 3, "velocity": 100}, {"time": 1205, "pitch": 62, "duration": 5, "velocity": 113}, {"time": 1205, "pitch": 67, "duration": 4, "velocity": 98}, {"time": 1208, "pitch": 55, "duration": 2, "velocity": 86}, {"time": 1211, "pitch": 40, "duration": 7, "velocity": 88}, {"time": 1211, "pitch": 48, "duration": 15, "velocity": 91}, {"time": 1211, "pitch": 64, "duration": 10, "velocity": 92}, {"time": 1211, "pitch": 67, "duration": 10, "velocity": 98}, {"time": 1211, "pitch": 72, "duration": 9, "velocity": 91}, {"time": 1217, "pitch": 55, "duration": 9, "velocity": 68}, {"time": 1220, "pitch": 60, "duration": 5, "velocity": 86}, {"time": 1223, "pitch": 64, "duration": 8, "velocity": 100}, {"time": 1223, "pitch": 67, "duration": 11, "velocity": 107}, {"time": 1223, "pitch": 72, "duration": 8, "velocity": 89}, {"time": 1229, "pitch": 47, "duration": 6, "velocity": 84}, {"time": 1235, "pitch": 45, "duration": 19, "velocity": 94}, {"time": 1235, "pitch": 64, "duration": 9, "velocity": 92}, {"time": 1235, "pitch": 69, "duration": 9, "velocity": 107}, {"time": 1235, "pitch": 72, "duration": 9, "velocity": 91}, {"time": 1241, "pitch": 52, "duration": 13, "velocity": 63}, {"time": 1244, "pitch": 57, "duration": 5, "velocity": 87}, {"time": 1247, "pitch": 64, "duration": 8, "velocity": 98}, {"time": 1247, "pitch": 69, "duration": 8, "velocity": 104}, {"time": 1247, "pitch": 72, "duration": 7, "velocity": 88}, {"time": 1253, "pitch": 57, "duration": 6, "velocity": 79}, {"time": 1259, "pitch": 50, "duration": 15, "velocity": 88}, {"time": 1259, "pitch": 62, "duration": 9, "velocity": 94}, {"time": 1259, "pitch": 65, "duration": 9, "velocity": 102}, {"time": 1259, "pitch": 69, "duration": 9, "velocity": 94}, {"time": 1268, "pitch": 57, "duration": 6, "velocity": 88}, {"time": 1271, "pitch": 62, "duration": 10, "velocity": 98}, {"time": 1271, "pitch": 65, "duration": 11, "velocity": 108}, {"time": 1271, "pitch": 69, "duration": 9, "velocity": 100}, {"time": 1277, "pitch": 50, "duration": 5, "velocity": 88}, {"time": 1283, "pitch": 43, "duration": 15, "velocity": 87}, {"time": 1283, "pitch": 62, "duration": 9, "velocity": 91}, {"time": 1283, "pitch": 67, "duration": 9, "velocity": 104}, {"time": 1283, "pitch": 71, "duration": 9, "velocity": 96}, {"time": 1289, "pitch": 50, "duration": 10, "velocity": 66}, {"time": 1292, "pitch": 55, "duration": 6, "velocity": 90}, {"time": 1295, "pitch": 62, "duration": 10, "velocity": 104}, {"time": 1295, "pitch": 67, "duration": 10, "velocity": 107}, {"time": 1295, "pitch": 71, "duration": 9, "velocity": 98}, {"time": 1301, "pitch": 43, "duration": 5, "velocity": 85}, {"time": 1307, "pitch": 40, "duration": 20, "velocity": 96}, {"time": 1307, "pitch": 64, "duration": 9, "velocity": 98}, {"time": 1307, "pitch": 67, "duration": 9, "velocity": 102}, {"time": 1307, "pitch": 71, "duration": 9, "velocity": 96}, {"time": 1313, "pitch": 47, "duration": 16, "velocity": 63}, {"time": 1316, "pitch": 52, "duration": 5, "velocity": 89}, {"time": 1319, "pitch": 64, "duration": 7, "velocity": 100}, {"time": 1319, "pitch": 67, "duration": 11, "velocity": 107}, {"time": 1319, "pitch": 71, "duration": 10, "velocity": 102}, {"time": 1325, "pitch": 52, "duration": 6, "velocity": 84}, {"time": 1331, "pitch": 45, "duration": 15, "velocity": 91}, {"time": 1331, "pitch": 60, "duration": 8, "velocity": 94}, {"time": 1331, "pitch": 60, "duration": 8, "velocity": 96}, {"time": 1331, "pitch": 64, "duration": 8, "velocity": 98}, {"time": 1331, "pitch": 64, "duration": 8, "velocity": 107}, {"time": 1331, "pitch": 69, "duration": 7, "velocity": 91}, {"time": 1331, "pitch": 69, "duration": 7, "velocity": 98}, {"time": 1337, "pitch": 52, "duration": 9, "velocity": 64}, {"time": 1337, "pitch": 52, "duration": 9, "velocity": 70}, {"time": 1340, "pitch": 57, "duration": 6, "velocity": 81}, {"time": 1343, "pitch": 60, "duration": 5, "velocity": 100}, {"time": 1343, "pitch": 60, "duration": 5, "velocity": 102}, {"time": 1343, "pitch": 64, "duration": 6, "velocity": 110}, {"time": 1343, "pitch": 64, "duration": 6, "velocity": 114}, {"time": 1343, "pitch": 69, "duration": 5, "velocity": 102}, {"time": 1343, "pitch": 69, "duration": 5, "velocity": 104}, {"time": 1355, "pitch": 41, "duration": 9, "velocity": 91}, {"time": 1355, "pitch": 53, "duration": 10, "velocity": 91}, {"time": 1355, "pitch": 60, "duration": 9, "velocity": 94}, {"time": 1355, "pitch": 65, "duration": 11, "velocity": 107}, {"time": 1355, "pitch": 69, "duration": 9, "velocity": 93}, {"time": 1367, "pitch": 43, "duration": 9, "velocity": 86}, {"time": 1367, "pitch": 55, "duration": 12, "velocity": 86}, {"time": 1367, "pitch": 59, "duration": 9, "velocity": 87}, {"time": 1367, "pitch": 62, "duration": 11, "velocity": 90}, {"time": 1367, "pitch": 67, "duration": 10, "velocity": 87}, {"time": 1379, "pitch": 48, "duration": 19, "velocity": 78}, {"time": 1379, "pitch": 60, "duration": 10, "velocity": 83}, {"time": 1379, "pitch": 64, "duration": 10, "velocity": 83}, {"time": 1379, "pitch": 67, "duration": 9, "velocity": 84}, {"time": 1388, "pitch": 55, "duration": 5, "velocity": 78}, {"time": 1391, "pitch": 60, "duration": 7, "velocity": 83}, {"time": 1391, "pitch": 64, "duration": 7, "velocity": 86}, {"time": 1391, "pitch": 67, "duration": 7, "velocity": 86}, {"time": 1397, "pitch": 55, "duration": 7, "velocity": 66}, {"time": 1403, "pitch": 41, "duration": 20, "velocity": 91}, {"time": 1403, "pitch": 53, "duration": 48, "velocity": 89}, {"time": 1403, "pitch": 60, "duration": 46, "velocity": 88}, {"time": 1403, "pitch": 65, "duration": 47, "velocity": 91}, {"time": 1403, "pitch": 69, "duration": 46, "velocity": 88}, {"time": 1424, "pitch": 41, "duration": 3, "velocity": 97}, {"time": 1427, "pitch": 41, "duration": 23, "velocity": 97}, {"time": 1451, "pitch": 48, "duration": 21, "velocity": 88}, {"time": 1451, "pitch": 60, "duration": 46, "velocity": 84}, {"time": 1451, "pitch": 64, "duration": 47, "velocity": 89}, {"time": 1451, "pitch": 67, "duration": 47, "velocity": 83}, {"time": 1472, "pitch": 48, "duration": 2, "velocity": 97}, {"time": 1475, "pitch": 48, "duration": 24, "velocity": 97}, {"time": 1499, "pitch": 41, "duration": 21, "velocity": 88}, {"time": 1499, "pitch": 53, "duration": 44, "velocity": 88}, {"time": 1499, "pitch": 60, "duration": 45, "velocity": 88}, {"time": 1499, "pitch": 65, "duration": 47, "velocity": 94}, {"time": 1499, "pitch": 69, "duration": 47, "velocity": 91}, {"time": 1520, "pitch": 41, "duration": 2, "velocity": 97}, {"time": 1523, "pitch": 41, "duration": 26, "velocity": 97}, {"time": 1547, "pitch": 43, "duration": 21, "velocity": 83}, {"time": 1547, "pitch": 55, "duration": 38, "velocity": 86}, {"time": 1547, "pitch": 62, "duration": 39, "velocity": 88}, {"time": 1547, "pitch": 67, "duration": 39, "velocity": 87}, {"time": 1547, "pitch": 71, "duration": 40, "velocity": 91}, {"time": 1568, "pitch": 43, "duration": 2, "velocity": 97}, {"time": 1571, "pitch": 43, "duration": 2, "velocity": 97}, {"time": 1575, "pitch": 43, "duration": 2, "velocity": 97}, {"time": 1580, "pitch": 43, "duration": 2, "velocity": 97}, {"time": 1583, "pitch": 43, "duration": 2, "velocity": 97}, {"time": 1586, "pitch": 43, "duration": 2, "velocity": 97}, {"time": 1589, "pitch": 43, "duration": 5, "velocity": 97}, {"time": 1589, "pitch": 55, "duration": 3, "velocity": 86}, {"time": 1595, "pitch": 48, "duration": 21, "velocity": 87}, {"time": 1601, "pitch": 55, "duration": 14, "velocity": 76}, {"time": 1607, "pitch": 60, "duration": 7, "velocity": 78}, {"time": 1607, "pitch": 64, "duration": 15, "velocity": 81}, {"time": 1607, "pitch": 67, "duration": 14, "velocity": 78}, {"time": 1619, "pitch": 45, "duration": 20, "velocity": 72}, {"time": 1625, "pitch": 52, "duration": 14, "velocity": 75}, {"time": 1631, "pitch": 57, "duration": 9, "velocity": 70}, {"time": 1631, "pitch": 60, "duration": 11, "velocity": 74}, {"time": 1631, "pitch": 69, "duration": 11, "velocity": 80}, {"time": 1643, "pitch": 48, "duration": 18, "velocity": 78}, {"time": 1649, "pitch": 55, "duration": 11, "velocity": 74}, {"time": 1655, "pitch": 60, "duration": 4, "velocity": 75}, {"time": 1655, "pitch": 64, "duration": 14, "velocity": 86}, {"time": 1655, "pitch": 67, "duration": 13, "velocity": 85}, {"time": 1667, "pitch": 43, "duration": 20, "velocity": 81}, {"time": 1673, "pitch": 50, "duration": 18, "velocity": 67}, {"time": 1679, "pitch": 55, "duration": 12, "velocity": 72}, {"time": 1679, "pitch": 59, "duration": 11, "velocity": 84}, {"time": 1679, "pitch": 67, "duration": 13, "velocity": 84}, {"time": 1691, "pitch": 52, "duration": 19, "velocity": 86}, {"time": 1697, "pitch": 59, "duration": 12, "velocity": 61}, {"time": 1703, "pitch": 64, "duration": 5, "velocity": 76}, {"time": 1703, "pitch": 67, "duration": 12, "velocity": 84}, {"time": 1703, "pitch": 71, "duration": 11, "velocity": 82}, {"time": 1715, "pitch": 45, "duration": 20, "velocity": 75}, {"time": 1715, "pitch": 64, "duration": 8, "velocity": 85}, {"time": 1715, "pitch": 69, "duration": 2, "velocity": 84}, {"time": 1715, "pitch": 72, "duration": 6, "velocity": 84}, {"time": 1721, "pitch": 52, "duration": 13, "velocity": 67}, {"time": 1727, "pitch": 57, "duration": 7, "velocity": 81}, {"time": 1727, "pitch": 59, "duration": 8, "velocity": 75}, {"time": 1727, "pitch": 67, "duration": 9, "velocity": 88}, {"time": 1739, "pitch": 41, "duration": 9, "velocity": 84}, {"time": 1739, "pitch": 57, "duration": 8, "velocity": 85}, {"time": 1739, "pitch": 65, "duration": 9, "velocity": 89}, {"time": 1751, "pitch": 43, "duration": 7, "velocity": 86}, {"time": 1751, "pitch": 59, "duration": 9, "velocity": 86}, {"time": 1751, "pitch": 67, "duration": 9, "velocity": 87}, {"time": 1763, "pitch": 48, "duration": 21, "velocity": 83}, {"time": 1763, "pitch": 60, "duration": 4, "velocity": 84}, {"time": 1763, "pitch": 67, "duration": 15, "velocity": 88}, {"time": 1769, "pitch": 55, "duration": 18, "velocity": 64}, {"time": 1775, "pitch": 60, "duration": 8, "velocity": 83}, {"time": 1778, "pitch": 65, "duration": 6, "velocity": 85}, {"time": 1784, "pitch": 67, "duration": 3, "velocity": 65}, {"time": 1787, "pitch": 48, "duration": 14, "velocity": 84}, {"time": 1787, "pitch": 64, "duration": 12, "velocity": 87}, {"time": 1799, "pitch": 60, "duration": 8, "velocity": 81}, {"time": 1799, "pitch": 64, "duration": 9, "velocity": 42}, {"time": 1799, "pitch": 67, "duration": 9, "velocity": 81}, {"time": 1811, "pitch": 48, "duration": 19, "velocity": 87}, {"time": 1811, "pitch": 60, "duration": 9, "velocity": 85}, {"time": 1811, "pitch": 64, "duration": 9, "velocity": 88}, {"time": 1811, "pitch": 67, "duration": 8, "velocity": 84}, {"time": 1823, "pitch": 60, "duration": 9, "velocity": 88}, {"time": 1823, "pitch": 64, "duration": 10, "velocity": 90}, {"time": 1823, "pitch": 67, "duration": 9, "velocity": 88}, {"time": 1832, "pitch": 48, "duration": 2, "velocity": 97}, {"time": 1835, "pitch": 45, "duration": 19, "velocity": 86}, {"time": 1835, "pitch": 57, "duration": 22, "velocity": 86}, {"time": 1835, "pitch": 60, "duration": 8, "velocity": 84}, {"time": 1835, "pitch": 64, "duration": 9, "velocity": 87}, {"time": 1835, "pitch": 69, "duration": 8, "velocity": 90}, {"time": 1847, "pitch": 60, "duration": 8, "velocity": 85}, {"time": 1847, "pitch": 64, "duration": 11, "velocity": 89}, {"time": 1847, "pitch": 69, "duration": 9, "velocity": 88}, {"time": 1859, "pitch": 50, "duration": 20, "velocity": 86}, {"time": 1859, "pitch": 62, "duration": 9, "velocity": 86}, {"time": 1859, "pitch": 65, "duration": 9, "velocity": 88}, {"time": 1859, "pitch": 69, "duration": 9, "velocity": 90}, {"time": 1871, "pitch": 62, "duration": 12, "velocity": 91}, {"time": 1871, "pitch": 65, "duration": 10, "velocity": 91}, {"time": 1871, "pitch": 69, "duration": 8, "velocity": 89}, {"time": 1880, "pitch": 50, "duration": 2, "velocity": 97}, {"time": 1883, "pitch": 43, "duration": 21, "velocity": 85}, {"time": 1883, "pitch": 55, "duration": 21, "velocity": 84}, {"time": 1883, "pitch": 59, "duration": 10, "velocity": 88}, {"time": 1883, "pitch": 62, "duration": 10, "velocity": 85}, {"time": 1883, "pitch": 67, "duration": 9, "velocity": 88}, {"time": 1895, "pitch": 59, "duration": 9, "velocity": 91}, {"time": 1895, "pitch": 62, "duration": 10, "velocity": 96}, {"time": 1895, "pitch": 67, "duration": 9, "velocity": 92}, {"time": 1907, "pitch": 40, "duration": 18, "velocity": 93}, {"time": 1907, "pitch": 59, "duration": 9, "velocity": 87}, {"time": 1907, "pitch": 64, "duration": 9, "velocity": 91}, {"time": 1907, "pitch": 67, "duration": 8, "velocity": 89}, {"time": 1916, "pitch": 52, "duration": 5, "velocity": 80}, {"time": 1919, "pitch": 59, "duration": 8, "velocity": 98}, {"time": 1919, "pitch": 64, "duration": 6, "velocity": 102}, {"time": 1919, "pitch": 67, "duration": 11, "velocity": 98}, {"time": 1925, "pitch": 52, "duration": 7, "velocity": 84}, {"time": 1928, "pitch": 40, "duration": 2, "velocity": 97}, {"time": 1928, "pitch": 64, "duration": 2, "velocity": 38}, {"time": 1931, "pitch": 45, "duration": 18, "velocity": 84}, {"time": 1931, "pitch": 60, "duration": 9, "velocity": 89}, {"time": 1931, "pitch": 64, "duration": 9, "velocity": 98}, {"time": 1931, "pitch": 69, "duration": 9, "velocity": 94}, {"time": 1937, "pitch": 52, "duration": 13, "velocity": 75}, {"time": 1940, "pitch": 57, "duration": 6, "velocity": 88}, {"time": 1943, "pitch": 60, "duration": 9, "velocity": 91}, {"time": 1943, "pitch": 64, "duration": 11, "velocity": 104}, {"time": 1943, "pitch": 69, "duration": 9, "velocity": 94}, {"time": 1949, "pitch": 45, "duration": 6, "velocity": 97}, {"time": 1949, "pitch": 57, "duration": 5, "velocity": 86}, {"time": 1955, "pitch": 50, "duration": 15, "velocity": 87}, {"time": 1955, "pitch": 62, "duration": 9, "velocity": 89}, {"time": 1955, "pitch": 65, "duration": 9, "velocity": 93}, {"time": 1955, "pitch": 69, "duration": 9, "velocity": 88}, {"time": 1964, "pitch": 57, "duration": 7, "velocity": 79}, {"time": 1967, "pitch": 62, "duration": 11, "velocity": 96}, {"time": 1967, "pitch": 65, "duration": 8, "velocity": 100}, {"time": 1967, "pitch": 69, "duration": 9, "velocity": 94}, {"time": 1973, "pitch": 50, "duration": 2, "velocity": 80}, {"time": 1979, "pitch": 43, "duration": 19, "velocity": 91}, {"time": 1979, "pitch": 59, "duration": 7, "velocity": 85}, {"time": 1979, "pitch": 62, "duration": 7, "velocity": 94}, {"time": 1979, "pitch": 67, "duration": 6, "velocity": 90}, {"time": 1982, "pitch": 50, "duration": 17, "velocity": 85}, {"time": 1985, "pitch": 55, "duration": 6, "velocity": 102}, {"time": 1988, "pitch": 59, "duration": 7, "velocity": 98}, {"time": 1988, "pitch": 67, "duration": 7, "velocity": 107}, {"time": 1994, "pitch": 55, "duration": 8, "velocity": 96}, {"time": 1997, "pitch": 59, "duration": 4, "velocity": 102}, {"time": 1997, "pitch": 67, "duration": 4, "velocity": 94}, {"time": 2000, "pitch": 62, "duration": 3, "velocity": 87}, {"time": 2003, "pitch": 48, "duration": 15, "velocity": 91}, {"time": 2003, "pitch": 60, "duration": 4, "velocity": 98}, {"time": 2003, "pitch": 64, "duration": 7, "velocity": 100}, {"time": 2003, "pitch": 67, "duration": 7, "velocity": 98}, {"time": 2009, "pitch": 55, "duration": 9, "velocity": 77}, {"time": 2012, "pitch": 60, "duration": 5, "velocity": 96}, {"time": 2015, "pitch": 64, "duration": 8, "velocity": 107}, {"time": 2015, "pitch": 67, "duration": 11, "velocity": 113}, {"time": 2015, "pitch": 72, "duration": 8, "velocity": 104}, {"time": 2021, "pitch": 47, "duration": 6, "velocity": 88}, {"time": 2027, "pitch": 45, "duration": 21, "velocity": 86}, {"time": 2027, "pitch": 64, "duration": 8, "velocity": 91}, {"time": 2027, "pitch": 69, "duration": 6, "velocity": 110}, {"time": 2027, "pitch": 72, "duration": 1, "velocity": 84}, {"time": 2033, "pitch": 52, "duration": 15, "velocity": 83}, {"time": 2036, "pitch": 60, "duration": 7, "velocity": 102}, {"time": 2036, "pitch": 64, "duration": 7, "velocity": 100}, {"time": 2036, "pitch": 69, "duration": 6, "velocity": 90}, {"time": 2042, "pitch": 57, "duration": 5, "velocity": 88}, {"time": 2045, "pitch": 60, "duration": 5, "velocity": 92}, {"time": 2045, "pitch": 64, "duration": 5, "velocity": 102}, {"time": 2045, "pitch": 69, "duration": 4, "velocity": 94}, {"time": 2051, "pitch": 50, "duration": 15, "velocity": 88}, {"time": 2051, "pitch": 62, "duration": 3, "velocity": 91}, {"time": 2051, "pitch": 65, "duration": 6, "velocity": 94}, {"time": 2051, "pitch": 69, "duration": 7, "velocity": 91}, {"time": 2057, "pitch": 57, "duration": 10, "velocity": 69}, {"time": 2060, "pitch": 62, "duration": 5, "velocity": 86}, {"time": 2063, "pitch": 65, "duration": 8, "velocity": 104}, {"time": 2063, "pitch": 69, "duration": 11, "velocity": 108}, {"time": 2063, "pitch": 74, "duration": 7, "velocity": 107}, {"time": 2069, "pitch": 50, "duration": 2, "velocity": 82}, {"time": 2075, "pitch": 43, "duration": 20, "velocity": 88}, {"time": 2075, "pitch": 62, "duration": 8, "velocity": 88}, {"time": 2075, "pitch": 67, "duration": 3, "velocity": 94}, {"time": 2075, "pitch": 71, "duration": 4, "velocity": 91}, {"time": 2078, "pitch": 50, "duration": 16, "velocity": 78}, {"time": 2081, "pitch": 55, "duration": 5, "velocity": 85}, {"time": 2084, "pitch": 59, "duration": 5, "velocity": 94}, {"time": 2084, "pitch": 62, "duration": 7, "velocity": 104}, {"time": 2084, "pitch": 67, "duration": 6, "velocity": 102}, {"time": 2090, "pitch": 55, "duration": 4, "velocity": 91}, {"time": 2093, "pitch": 59, "duration": 4, "velocity": 94}, {"time": 2096, "pitch": 62, "duration": 3, "velocity": 88}, {"time": 2099, "pitch": 41, "duration": 18, "velocity": 87}, {"time": 2099, "pitch": 57, "duration": 9, "velocity": 86}, {"time": 2099, "pitch": 60, "duration": 10, "velocity": 89}, {"time": 2099, "pitch": 65, "duration": 9, "velocity": 91}, {"time": 2108, "pitch": 53, "duration": 5, "velocity": 81}, {"time": 2111, "pitch": 57, "duration": 6, "velocity": 91}, {"time": 2111, "pitch": 60, "duration": 10, "velocity": 93}, {"time": 2111, "pitch": 65, "duration": 6, "velocity": 92}, {"time": 2117, "pitch": 41, "duration": 5, "velocity": 97}, {"time": 2117, "pitch": 53, "duration": 5, "velocity": 83}, {"time": 2123, "pitch": 43, "duration": 18, "velocity": 87}, {"time": 2123, "pitch": 59, "duration": 9, "velocity": 87}, {"time": 2123, "pitch": 62, "duration": 9, "velocity": 90}, {"time": 2123, "pitch": 67, "duration": 9, "velocity": 89}, {"time": 2132, "pitch": 55, "duration": 5, "velocity": 81}, {"time": 2135, "pitch": 59, "duration": 9, "velocity": 88}, {"time": 2135, "pitch": 62, "duration": 11, "velocity": 93}, {"time": 2135, "pitch": 67, "duration": 9, "velocity": 88}, {"time": 2141, "pitch": 43, "duration": 6, "velocity": 97}, {"time": 2141, "pitch": 55, "duration": 6, "velocity": 79}, {"time": 2147, "pitch": 48, "duration": 20, "velocity": 87}, {"time": 2147, "pitch": 60, "duration": 4, "velocity": 88}, {"time": 2147, "pitch": 64, "duration": 7, "velocity": 94}, {"time": 2147, "pitch": 67, "duration": 7, "velocity": 90}, {"time": 2150, "pitch": 55, "duration": 18, "velocity": 73}, {"time": 2153, "pitch": 60, "duration": 5, "velocity": 84}, {"time": 2156, "pitch": 65, "duration": 7, "velocity": 113}, {"time": 2162, "pitch": 60, "duration": 5, "velocity": 84}, {"time": 2165, "pitch": 64, "duration": 3, "velocity": 91}, {"time": 2168, "pitch": 48, "duration": 3, "velocity": 97}, {"time": 2168, "pitch": 67, "duration": 1, "velocity": 70}, {"time": 2171, "pitch": 48, "duration": 8, "velocity": 86}, {"time": 2171, "pitch": 60, "duration": 3, "velocity": 86}, {"time": 2171, "pitch": 64, "duration": 4, "velocity": 89}, {"time": 2171, "pitch": 67, "duration": 4, "velocity": 88}, {"time": 2174, "pitch": 55, "duration": 17, "velocity": 80}, {"time": 2177, "pitch": 60, "duration": 4, "velocity": 89}, {"time": 2180, "pitch": 48, "duration": 2, "velocity": 97}, {"time": 2180, "pitch": 64, "duration": 7, "velocity": 98}, {"time": 2180, "pitch": 67, "duration": 7, "velocity": 108}, {"time": 2180, "pitch": 72, "duration": 6, "velocity": 96}, {"time": 2183, "pitch": 48, "duration": 3, "velocity": 97}, {"time": 2183, "pitch": 60, "duration": 6, "velocity": 86}, {"time": 2189, "pitch": 48, "duration": 3, "velocity": 97}, {"time": 2189, "pitch": 64, "duration": 3, "velocity": 87}, {"time": 2189, "pitch": 67, "duration": 5, "velocity": 91}, {"time": 2189, "pitch": 72, "duration": 3, "velocity": 87}, {"time": 2195, "pitch": 48, "duration": 18, "velocity": 92}, {"time": 2195, "pitch": 64, "duration": 9, "velocity": 98}, {"time": 2195, "pitch": 67, "duration": 9, "velocity": 104}, {"time": 2195, "pitch": 72, "duration": 8, "velocity": 89}, {"time": 2219, "pitch": 45, "duration": 20, "velocity": 93}, {"time": 2219, "pitch": 64, "duration": 8, "velocity": 91}, {"time": 2219, "pitch": 69, "duration": 8, "velocity": 100}, {"time": 2219, "pitch": 72, "duration": 8, "velocity": 92}, {"time": 2225, "pitch": 52, "duration": 14, "velocity": 83}, {"time": 2228, "pitch": 57, "duration": 9, "velocity": 85}, {"time": 2228, "pitch": 64, "duration": 7, "velocity": 91}, {"time": 2228, "pitch": 69, "duration": 7, "velocity": 108}, {"time": 2228, "pitch": 72, "duration": 7, "velocity": 91}, {"time": 2237, "pitch": 64, "duration": 2, "velocity": 80}, {"time": 2239, "pitch": 67, "duration": 2, "velocity": 76}, {"time": 2240, "pitch": 69, "duration": 2, "velocity": 88}, {"time": 2242, "pitch": 72, "duration": 2, "velocity": 110}, {"time": 2243, "pitch": 50, "duration": 20, "velocity": 93}, {"time": 2243, "pitch": 74, "duration": 4, "velocity": 127}, {"time": 2246, "pitch": 57, "duration": 16, "velocity": 74}, {"time": 2249, "pitch": 62, "duration": 6, "velocity": 89}, {"time": 2252, "pitch": 65, "duration": 8, "velocity": 102}, {"time": 2252, "pitch": 69, "duration": 8, "velocity": 110}, {"time": 2252, "pitch": 74, "duration": 8, "velocity": 98}, {"time": 2258, "pitch": 62, "duration": 3, "velocity": 87}, {"time": 2261, "pitch": 65, "duration": 3, "velocity": 96}, {"time": 2261, "pitch": 69, "duration": 5, "velocity": 93}, {"time": 2261, "pitch": 74, "duration": 3, "velocity": 96}, {"time": 2267, "pitch": 43, "duration": 19, "velocity": 87}, {"time": 2267, "pitch": 62, "duration": 7, "velocity": 104}, {"time": 2267, "pitch": 67, "duration": 3, "velocity": 96}, {"time": 2267, "pitch": 71, "duration": 4, "velocity": 93}, {"time": 2270, "pitch": 50, "duration": 16, "velocity": 81}, {"time": 2273, "pitch": 55, "duration": 6, "velocity": 85}, {"time": 2276, "pitch": 59, "duration": 7, "velocity": 100}, {"time": 2276, "pitch": 62, "duration": 7, "velocity": 108}, {"time": 2276, "pitch": 67, "duration": 7, "velocity": 91}, {"time": 2282, "pitch": 55, "duration": 4, "velocity": 86}, {"time": 2285, "pitch": 59, "duration": 4, "velocity": 96}, {"time": 2285, "pitch": 67, "duration": 4, "velocity": 91}, {"time": 2288, "pitch": 62, "duration": 2, "velocity": 88}, {"time": 2291, "pitch": 40, "duration": 18, "velocity": 96}, {"time": 2291, "pitch": 59, "duration": 9, "velocity": 104}, {"time": 2291, "pitch": 64, "duration": 9, "velocity": 110}, {"time": 2291, "pitch": 67, "duration": 9, "velocity": 100}, {"time": 2297, "pitch": 47, "duration": 13, "velocity": 75}, {"time": 2300, "pitch": 52, "duration": 4, "velocity": 91}, {"time": 2303, "pitch": 59, "duration": 9, "velocity": 107}, {"time": 2303, "pitch": 64, "duration": 11, "velocity": 108}, {"time": 2303, "pitch": 67, "duration": 11, "velocity": 100}, {"time": 2309, "pitch": 52, "duration": 7, "velocity": 82}, {"time": 2315, "pitch": 45, "duration": 19, "velocity": 84}, {"time": 2315, "pitch": 60, "duration": 10, "velocity": 96}, {"time": 2315, "pitch": 64, "duration": 10, "velocity": 108}, {"time": 2315, "pitch": 69, "duration": 10, "velocity": 98}, {"time": 2321, "pitch": 52, "duration": 13, "velocity": 74}, {"time": 2324, "pitch": 57, "duration": 5, "velocity": 89}, {"time": 2327, "pitch": 60, "duration": 9, "velocity": 96}, {"time": 2327, "pitch": 64, "duration": 11, "velocity": 104}, {"time": 2327, "pitch": 69, "duration": 9, "velocity": 94}, {"time": 2333, "pitch": 57, "duration": 5, "velocity": 85}, {"time": 2339, "pitch": 50, "duration": 15, "velocity": 89}, {"time": 2339, "pitch": 62, "duration": 9, "velocity": 90}, {"time": 2339, "pitch": 65, "duration": 9, "velocity": 102}, {"time": 2339, "pitch": 69, "duration": 9, "velocity": 92}, {"time": 2348, "pitch": 57, "duration": 6, "velocity": 86}, {"time": 2351, "pitch": 62, "duration": 11, "velocity": 96}, {"time": 2351, "pitch": 65, "duration": 10, "velocity": 108}, {"time": 2351, "pitch": 69, "duration": 9, "velocity": 100}, {"time": 2357, "pitch": 50, "duration": 5, "velocity": 81}, {"time": 2363, "pitch": 43, "duration": 22, "velocity": 91}, {"time": 2363, "pitch": 59, "duration": 7, "velocity": 93}, {"time": 2363, "pitch": 62, "duration": 7, "velocity": 107}, {"time": 2363, "pitch": 67, "duration": 7, "velocity": 93}, {"time": 2366, "pitch": 50, "duration": 19, "velocity": 83}, {"time": 2369, "pitch": 55, "duration": 4, "velocity": 89}, {"time": 2372, "pitch": 59, "duration": 6, "velocity": 100}, {"time": 2372, "pitch": 62, "duration": 7, "velocity": 113}, {"time": 2372, "pitch": 67, "duration": 6, "velocity": 104}, {"time": 2378, "pitch": 55, "duration": 4, "velocity": 88}, {"time": 2381, "pitch": 59, "duration": 3, "velocity": 100}, {"time": 2381, "pitch": 62, "duration": 5, "velocity": 113}, {"time": 2381, "pitch": 67, "duration": 4, "velocity": 98}, {"time": 2384, "pitch": 55, "duration": 2, "velocity": 86}, {"time": 2387, "pitch": 40, "duration": 7, "velocity": 88}, {"time": 2387, "pitch": 48, "duration": 15, "velocity": 91}, {"time": 2387, "pitch": 64, "duration": 10, "velocity": 92}, {"time": 2387, "pitch": 67, "duration": 10, "velocity": 98}, {"time": 2387, "pitch": 72, "duration": 9, "velocity": 91}, {"time": 2393, "pitch": 55, "duration": 9, "velocity": 68}, {"time": 2396, "pitch": 60, "duration": 5, "velocity": 86}, {"time": 2399, "pitch": 64, "duration": 8, "velocity": 100}, {"time": 2399, "pitch": 67, "duration": 11, "velocity": 107}, {"time": 2399, "pitch": 72, "duration": 8, "velocity": 89}, {"time": 2405, "pitch": 47, "duration": 6, "velocity": 84}, {"time": 2411, "pitch": 45, "duration": 19, "velocity": 94}, {"time": 2411, "pitch": 64, "duration": 9, "velocity": 92}, {"time": 2411, "pitch": 69, "duration": 9, "velocity": 107}, {"time": 2411, "pitch": 72, "duration": 9, "velocity": 91}, {"time": 2417, "pitch": 52, "duration": 13, "velocity": 63}, {"time": 2420, "pitch": 57, "duration": 5, "velocity": 87}, {"time": 2423, "pitch": 64, "duration": 8, "velocity": 98}, {"time": 2423, "pitch": 69, "duration": 8, "velocity": 104}, {"time": 2423, "pitch": 72, "duration": 7, "velocity": 88}, {"time": 2429, "pitch": 57, "duration": 6, "velocity": 79}, {"time": 2435, "pitch": 50, "duration": 15, "velocity": 88}, {"time": 2435, "pitch": 62, "duration": 9, "velocity": 94}, {"time": 2435, "pitch": 65, "duration": 9, "velocity": 102}, {"time": 2435, "pitch": 69, "duration": 9, "velocity": 94}, {"time": 2444, "pitch": 57, "duration": 6, "velocity": 88}, {"time": 2447, "pitch": 62, "duration": 10, "velocity": 98}, {"time": 2447, "pitch": 65, "duration": 11, "velocity": 108}, {"time": 2447, "pitch": 69, "duration": 9, "velocity": 100}, {"time": 2453, "pitch": 50, "duration": 5, "velocity": 88}, {"time": 2459, "pitch": 43, "duration": 15, "velocity": 87}, {"time": 2459, "pitch": 62, "duration": 9, "velocity": 91}, {"time": 2459, "pitch": 67, "duration": 9, "velocity": 104}, {"time": 2459, "pitch": 71, "duration": 9, "velocity": 96}, {"time": 2465, "pitch": 50, "duration": 10, "velocity": 66}, {"time": 2468, "pitch": 55, "duration": 6, "velocity": 90}, {"time": 2471, "pitch": 62, "duration": 10, "velocity": 104}, {"time": 2471, "pitch": 67, "duration": 10, "velocity": 107}, {"time": 2471, "pitch": 71, "duration": 9, "velocity": 98}, {"time": 2477, "pitch": 43, "duration": 5, "velocity": 85}, {"time": 2483, "pitch": 40, "duration": 20, "velocity": 74}, {"time": 2483, "pitch": 64, "duration": 9, "velocity": 74}, {"time": 2483, "pitch": 67, "duration": 9, "velocity": 74}, {"time": 2483, "pitch": 71, "duration": 9, "velocity": 74}, {"time": 2489, "pitch": 47, "duration": 16, "velocity": 63}, {"time": 2492, "pitch": 52, "duration": 5, "velocity": 89}, {"time": 2495, "pitch": 64, "duration": 7, "velocity": 79}, {"time": 2495, "pitch": 67, "duration": 11, "velocity": 79}, {"time": 2495, "pitch": 71, "duration": 10, "velocity": 79}, {"time": 2501, "pitch": 52, "duration": 6, "velocity": 84}, {"time": 2507, "pitch": 45, "duration": 15, "velocity": 76}, {"time": 2507, "pitch": 60, "duration": 8, "velocity": 76}, {"time": 2507, "pitch": 64, "duration": 8, "velocity": 76}, {"time": 2507, "pitch": 69, "duration": 7, "velocity": 76}, {"time": 2513, "pitch": 52, "duration": 9, "velocity": 64}, {"time": 2513, "pitch": 52, "duration": 9, "velocity": 70}, {"time": 2516, "pitch": 57, "duration": 6, "velocity": 81}, {"time": 2519, "pitch": 60, "duration": 5, "velocity": 65}, {"time": 2519, "pitch": 64, "duration": 6, "velocity": 65}, {"time": 2519, "pitch": 69, "duration": 5, "velocity": 65}, {"time": 2531, "pitch": 41, "duration": 9, "velocity": 63}, {"time": 2531, "pitch": 53, "duration": 10, "velocity": 63}, {"time": 2531, "pitch": 60, "duration": 9, "velocity": 63}, {"time": 2531, "pitch": 65, "duration": 11, "velocity": 63}, {"time": 2531, "pitch": 69, "duration": 9, "velocity": 63}, {"time": 2543, "pitch": 43, "duration": 9, "velocity": 67}, {"time": 2543, "pitch": 55, "duration": 12, "velocity": 67}, {"time": 2543, "pitch": 59, "duration": 9, "velocity": 67}, {"time": 2543, "pitch": 62, "duration": 11, "velocity": 67}, {"time": 2543, "pitch": 67, "duration": 10, "velocity": 67}, {"time": 2555, "pitch": 48, "duration": 19, "velocity": 72}, {"time": 2555, "pitch": 60, "duration": 10, "velocity": 72}, {"time": 2555, "pitch": 64, "duration": 10, "velocity": 72}, {"time": 2555, "pitch": 67, "duration": 9, "velocity": 72}, {"time": 2564, "pitch": 55, "duration": 5, "velocity": 78}, {"time": 2567, "pitch": 60, "duration": 7, "velocity": 83}, {"time": 2567, "pitch": 64, "duration": 7, "velocity": 86}, {"time": 2567, "pitch": 67, "duration": 7, "velocity": 86}, {"time": 2573, "pitch": 55, "duration": 7, "velocity": 66}, {"time": 2579, "pitch": 48, "duration": 21, "velocity": 90}, {"time": 2582, "pitch": 55, "duration": 18, "velocity": 73}, {"time": 2585, "pitch": 60, "duration": 14, "velocity": 77}, {"time": 2588, "pitch": 67, "duration": 16, "velocity": 86}, {"time": 2605, "pitch": 45, "duration": 20, "velocity": 88}, {"time": 2606, "pitch": 57, "duration": 13, "velocity": 82}, {"time": 2607, "pitch": 64, "duration": 15, "velocity": 76}, {"time": 2607, "pitch": 60, "duration": 15, "velocity": 85}, {"time": 2608, "pitch": 69, "duration": 10, "velocity": 85}, {"time": 2626, "pitch": 50, "duration": 36, "velocity": 80}, {"time": 2627, "pitch": 57, "duration": 32, "velocity": 76}, {"time": 2627, "pitch": 62, "duration": 28, "velocity": 65}, {"time": 2628, "pitch": 65, "duration": 34, "velocity": 86}, {"time": 2663, "pitch": 43, "duration": 15, "velocity": 80}, {"time": 2675, "pitch": 48, "duration": 19, "velocity": 92}, {"time": 2681, "pitch": 52, "duration": 18, "velocity": 86}, {"time": 2684, "pitch": 60, "duration": 14, "velocity": 97}, {"time": 2684, "pitch": 55, "duration": 15, "velocity": 87}, {"time": 2684, "pitch": 64, "duration": 16, "velocity": 91}, {"time": 2696, "pitch": 48, "duration": 2, "velocity": 97}, {"time": 2699, "pitch": 45, "duration": 20, "velocity": 83}, {"time": 2702, "pitch": 52, "duration": 17, "velocity": 77}, {"time": 2705, "pitch": 57, "duration": 15, "velocity": 87}, {"time": 2708, "pitch": 60, "duration": 15, "velocity": 87}, {"time": 2708, "pitch": 69, "duration": 16, "velocity": 85}, {"time": 2709, "pitch": 64, "duration": 15, "velocity": 97}, {"time": 2723, "pitch": 50, "duration": 12, "velocity": 86}, {"time": 2726, "pitch": 57, "duration": 9, "velocity": 80}, {"time": 2729, "pitch": 62, "duration": 5, "velocity": 84}, {"time": 2732, "pitch": 65, "duration": 4, "velocity": 81}, {"time": 2735, "pitch": 43, "duration": 32, "velocity": 88}, {"time": 2738, "pitch": 50, "duration": 29, "velocity": 81}, {"time": 2741, "pitch": 55, "duration": 27, "velocity": 84}, {"time": 2744, "pitch": 62, "duration": 23, "velocity": 97}, {"time": 2744, "pitch": 59, "duration": 27, "velocity": 80}, {"time": 2771, "pitch": 48, "duration": 116, "velocity": 85}, {"time": 2783, "pitch": 64, "duration": 92, "velocity": 88}, {"time": 2796, "pitch": 67, "duration": 87, "velocity": 97}, {"time": 2831, "pitch": 76, "duration": 45, "velocity": 97}, {"time": 2843, "pitch": 79, "duration": 14, "velocity": 97}, {"time": 2855, "pitch": 86, "duration": 7, "velocity": 74}, {"time": 2861, "pitch": 79, "duration": 2, "velocity": 60}, {"time": 2866, "pitch": 79, "duration": 12, "velocity": 43}, {"time": 2867, "pitch": 84, "duration": 11, "velocity": 48}, {"time": 2868, "pitch": 88, "duration": 10, "velocity": 81}], "annotations": [{"time": 32, "annotation": {"number": 64, "value": 0}, "group": "control_change"}, {"time": 35, "annotation": {"number": 64, "value": 127}, "group": "control_change"}, {"time": 56, "annotation": {"number": 64, "value": 0}, "group": "control_change"}, {"time": 60, "annotation": {"number": 64, "value": 127}, "group": "control_change"}, {"time": 66, "annotation": {"number": 64, "value": 0}, "group": "control_change"}, {"time": 80, "annotation": {"number": 64, "value": 0}, "group": "control_change"}, {"time": 83, "annotation": {"number": 64, "value": 127}, "group": "control_change"}, {"time": 105, "annotation": {"number": 64, "value": 38}, "group": "control_change"}, {"time": 105, "annotation": {"number": 64, "value": 0}, "group": "control_change"}, {"time": 108, "annotation": {"number": 64, "value": 127}, "group": "control_change"}, {"time": 129, "annotation": {"number": 64, "value": 74}, "group": "control_change"}, {"time": 129, "annotation": {"number": 64, "value": 0}, "group": "control_change"}, {"time": 131, "annotation": {"number": 64, "value": 127}, "group": "control_change"}, {"time": 152, "annotation": {"number": 64, "value": 0}, "group": "control_change"}, {"time": 155, "annotation": {"number": 64, "value": 127}, "group": "control_change"}, {"time": 177, "annotation": {"number": 64, "value": 38}, "group": "control_change"}, {"time": 177, "annotation": {"number": 64, "value": 0}, "group": "control_change"}, {"time": 179, "annotation": {"number": 64, "value": 127}, "group": "control_change"}, {"time": 227, "annotation": {"number": 64, "value": 127}, "group": "control_change"}, {"time": 249, "annotation": {"number": 64, "value": 38}, "group": "control_change"}, {"time": 250, "annotation": {"number": 64, "value": 0}, "group": "control_change"}, {"time": 252, "annotation": {"number": 64, "value": 127}, "group": "control_change"}, {"time": 273, "annotation": {"number": 64, "value": 38}, "group": "control_change"}, {"time": 273, "annotation": {"number": 64, "value": 0}, "group": "control_change"}, {"time": 276, "annotation": {"number": 64, "value": 127}, "group": "control_change"}, {"time": 297, "annotation": {"number": 64, "value": 38}, "group": "control_change"}, {"time": 297, "annotation": {"number": 64, "value": 0}, "group": "control_change"}, {"time": 300, "annotation": {"number": 64, "value": 127}, "group": "control_change"}, {"time": 320, "annotation": {"number": 64, "value": 38}, "group": "control_change"}, {"time": 320, "annotation": {"number": 64, "value": 0}, "group": "control_change"}, {"time": 323, "annotation": {"number": 64, "value": 127}, "group": "control_change"}, {"time": 324, "annotation": {"number": 64, "value": 127}, "group": "control_change"}, {"time": 331, "annotation": {"number": 64, "value": 0}, "group": "control_change"}, {"time": 344, "annotation": {"number": 64, "value": 0}, "group": "control_change"}, {"time": 347, "annotation": {"number": 64, "value": 74}, "group": "control_change"}, {"time": 347, "annotation": {"number": 64, "value": 127}, "group": "control_change"}, {"time": 368, "annotation": {"number": 64, "value": 38}, "group": "control_change"}, {"time": 368, "annotation": {"number": 64, "value": 0}, "group": "control_change"}, {"time": 372, "annotation": {"number": 64, "value": 127}, "group": "control_change"}, {"time": 392, "annotation": {"number": 64, "value": 0}, "group": "control_change"}, {"time": 395, "annotation": {"number": 64, "value": 127}, "group": "control_change"}, {"time": 416, "annotation": {"number": 64, "value": 74}, "group": "control_change"}, {"time": 416, "annotation": {"number": 64, "value": 0}, "group": "control_change"}, {"time": 419, "annotation": {"number": 64, "value": 127}, "group": "control_change"}, {"time": 441, "annotation": {"number": 64, "value": 38}, "group": "control_change"}, {"time": 441, "annotation": {"number": 64, "value": 0}, "group": "control_change"}, {"time": 443, "annotation": {"number": 64, "value": 38}, "group": "control_change"}, {"time": 443, "annotation": {"number": 64, "value": 127}, "group": "control_change"}, {"time": 464, "annotation": {"number": 64, "value": 74}, "group": "control_change"}, {"time": 464, "annotation": {"number": 64, "value": 0}, "group": "control_change"}, {"time": 467, "annotation": {"number": 64, "value": 127}, "group": "control_change"}, {"time": 489, "annotation": {"number": 64, "value": 38}, "group": "control_change"}, {"time": 489, "annotation": {"number": 64, "value": 0}, "group": "control_change"}, {"time": 491, "annotation": {"number": 64, "value": 127}, "group": "control_change"}, {"time": 513, "annotation": {"number": 64, "value": 74}, "group": "control_change"}, {"time": 513, "annotation": {"number": 64, "value": 0}, "group": "control_change"}, {"time": 515, "annotation": {"number": 64, "value": 127}, "group": "control_change"}, {"time": 522, "annotation": {"number": 64, "value": 0}, "group": "control_change"}, {"time": 537, "annotation": {"number": 64, "value": 38}, "group": "control_change"}, {"time": 537, "annotation": {"number": 64, "value": 0}, "group": "control_change"}, {"time": 539, "annotation": {"number": 64, "value": 127}, "group": "control_change"}, {"time": 560, "annotation": {"number": 64, "value": 0}, "group": "control_change"}, {"time": 563, "annotation": {"number": 64, "value": 127}, "group": "control_change"}, {"time": 573, "annotation": {"number": 64, "value": 38}, "group": "control_change"}, {"time": 573, "annotation": {"number": 64, "value": 0}, "group": "control_change"}, {"time": 575, "annotation": {"number": 64, "value": 127}, "group": "control_change"}, {"time": 585, "annotation": {"number": 64, "value": 74}, "group": "control_change"}, {"time": 585, "annotation": {"number": 64, "value": 0}, "group": "control_change"}, {"time": 587, "annotation": {"number": 64, "value": 127}, "group": "control_change"}, {"time": 609, "annotation": {"number": 64, "value": 74}, "group": "control_change"}, {"time": 609, "annotation": {"number": 64, "value": 0}, "group": "control_change"}, {"time": 611, "annotation": {"number": 64, "value": 127}, "group": "control_change"}, {"time": 625, "annotation": {"number": 64, "value": 38}, "group": "control_change"}, {"time": 625, "annotation": {"number": 64, "value": 0}, "group": "control_change"}, {"time": 636, "annotation": {"number": 64, "value": 127}, "group": "control_change"}, {"time": 657, "annotation": {"number": 64, "value": 0}, "group": "control_change"}, {"time": 659, "annotation": {"number": 64, "value": 127}, "group": "control_change"}, {"time": 681, "annotation": {"number": 64, "value": 38}, "group": "control_change"}, {"time": 681, "annotation": {"number": 64, "value": 0}, "group": "control_change"}, {"time": 683, "annotation": {"number": 64, "value": 127}, "group": "control_change"}, {"time": 705, "annotation": {"number": 64, "value": 38}, "group": "control_change"}, {"time": 705, "annotation": {"number": 64, "value": 0}, "group": "control_change"}, {"time": 707, "annotation": {"number": 64, "value": 74}, "group": "control_change"}, {"time": 707, "annotation": {"number": 64, "value": 127}, "group": "control_change"}, {"time": 729, "annotation": {"number": 64, "value": 74}, "group": "control_change"}, {"time": 729, "annotation": {"number": 64, "value": 0}, "group": "control_change"}, {"time": 731, "annotation": {"number": 64, "value": 127}, "group": "control_change"}, {"time": 751, "annotation": {"number": 64, "value": 74}, "group": "control_change"}, {"time": 751, "annotation": {"number": 64, "value": 0}, "group": "control_change"}, {"time": 753, "annotation": {"number": 64, "value": 38}, "group": "control_change"}, {"time": 753, "annotation": {"number": 64, "value": 0}, "group": "control_change"}, {"time": 755, "annotation": {"number": 64, "value": 127}, "group": "control_change"}, {"time": 777, "annotation": {"number": 64, "value": 0}, "group": "control_change"}, {"time": 779, "annotation": {"number": 64, "value": 127}, "group": "control_change"}, {"time": 802, "annotation": {"number": 64, "value": 0}, "group": "control_change"}, {"time": 803, "annotation": {"number": 64, "value": 74}, "group": "control_change"}, {"time": 803, "annotation": {"number": 64, "value": 127}, "group": "control_change"}, {"time": 826, "annotation": {"number": 64, "value": 38}, "group": "control_change"}, {"time": 826, "annotation": {"number": 64, "value": 0}, "group": "control_change"}, {"time": 827, "annotation": {"number": 64, "value": 127}, "group": "control_change"}, {"time": 849, "annotation": {"number": 64, "value": 38}, "group": "control_change"}, {"time": 849, "annotation": {"number": 64, "value": 0}, "group": "control_change"}, {"time": 851, "annotation": {"number": 64, "value": 127}, "group": "control_change"}, {"time": 874, "annotation": {"number": 64, "value": 38}, "group": "control_change"}, {"time": 874, "annotation": {"number": 64, "value": 0}, "group": "control_change"}, {"time": 875, "annotation": {"number": 64, "value": 127}, "group": "control_change"}, {"time": 876, "annotation": {"number": 64, "value": 127}, "group": "control_change"}, {"time": 882, "annotation": {"number": 64, "value": 38}, "group": "control_change"}, {"time": 882, "annotation": {"number": 64, "value": 0}, "group": "control_change"}, {"time": 897, "annotation": {"number": 64, "value": 74}, "group": "control_change"}, {"time": 897, "annotation": {"number": 64, "value": 0}, "group": "control_change"}, {"time": 899, "annotation": {"number": 64, "value": 127}, "group": "control_change"}, {"time": 922, "annotation": {"number": 64, "value": 38}, "group": "control_change"}, {"time": 922, "annotation": {"number": 64, "value": 0}, "group": "control_change"}, {"time": 923, "annotation": {"number": 64, "value": 74}, "group": "control_change"}, {"time": 924, "annotation": {"number": 64, "value": 127}, "group": "control_change"}, {"time": 934, "annotation": {"number": 64, "value": 0}, "group": "control_change"}, {"time": 945, "annotation": {"number": 64, "value": 74}, "group": "control_change"}, {"time": 945, "annotation": {"number": 64, "value": 0}, "group": "control_change"}, {"time": 947, "annotation": {"number": 64, "value": 127}, "group": "control_change"}, {"time": 960, "annotation": {"number": 64, "value": 0}, "group": "control_change"}, {"time": 969, "annotation": {"number": 64, "value": 38}, "group": "control_change"}, {"time": 969, "annotation": {"number": 64, "value": 0}, "group": "control_change"}, {"time": 971, "annotation": {"number": 64, "value": 127}, "group": "control_change"}, {"time": 993, "annotation": {"number": 64, "value": 74}, "group": "control_change"}, {"time": 993, "annotation": {"number": 64, "value": 0}, "group": "control_change"}, {"time": 995, "annotation": {"number": 64, "value": 127}, "group": "control_change"}, {"time": 1017, "annotation": {"number": 64, "value": 0}, "group": "control_change"}, {"time": 1019, "annotation": {"number": 64, "value": 127}, "group": "control_change"}, {"time": 1041, "annotation": {"number": 64, "value": 38}, "group": "control_change"}, {"time": 1041, "annotation": {"number": 64, "value": 0}, "group": "control_change"}, {"time": 1043, "annotation": {"number": 64, "value": 127}, "group": "control_change"}, {"time": 1066, "annotation": {"number": 64, "value": 0}, "group": "control_change"}, {"time": 1067, "annotation": {"number": 64, "value": 127}, "group": "control_change"}, {"time": 1090, "annotation": {"number": 64, "value": 0}, "group": "control_change"}, {"time": 1091, "annotation": {"number": 64, "value": 127}, "group": "control_change"}, {"time": 1113, "annotation": {"number": 64, "value": 74}, "group": "control_change"}, {"time": 1113, "annotation": {"number": 64, "value": 0}, "group": "control_change"}, {"time": 1115, "annotation": {"number": 64, "value": 127}, "group": "control_change"}, {"time": 1137, "annotation": {"number": 64, "value": 38}, "group": "control_change"}, {"time": 1138, "annotation": {"number": 64, "value": 0}, "group": "control_change"}, {"time": 1139, "annotation": {"number": 64, "value": 127}, "group": "control_change"}, {"time": 1161, "annotation": {"number": 64, "value": 0}, "group": "control_change"}, {"time": 1163, "annotation": {"number": 64, "value": 127}, "group": "control_change"}, {"time": 1185, "annotation": {"number": 64, "value": 0}, "group": "control_change"}, {"time": 1187, "annotation": {"number": 64, "value": 127}, "group": "control_change"}, {"time": 1210, "annotation": {"number": 64, "value": 38}, "group": "control_change"}, {"time": 1210, "annotation": {"number": 64, "value": 0}, "group": "control_change"}, {"time": 1211, "annotation": {"number": 64, "value": 127}, "group": "control_change"}, {"time": 1212, "annotation": {"number": 64, "value": 127}, "group": "control_change"}, {"time": 1220, "annotation": {"number": 64, "value": 38}, "group": "control_change"}, {"time": 1220, "annotation": {"number": 64, "value": 0}, "group": "control_change"}, {"time": 1233, "annotation": {"number": 64, "value": 38}, "group": "control_change"}, {"time": 1233, "annotation": {"number": 64, "value": 0}, "group": "control_change"}, {"time": 1235, "annotation": {"number": 64, "value": 127}, "group": "control_change"}, {"time": 1257, "annotation": {"number": 64, "value": 38}, "group": "control_change"}, {"time": 1257, "annotation": {"number": 64, "value": 0}, "group": "control_change"}, {"time": 1259, "annotation": {"number": 64, "value": 127}, "group": "control_change"}, {"time": 1281, "annotation": {"number": 64, "value": 74}, "group": "control_change"}, {"time": 1281, "annotation": {"number": 64, "value": 0}, "group": "control_change"}, {"time": 1283, "annotation": {"number": 64, "value": 127}, "group": "control_change"}, {"time": 1305, "annotation": {"number": 64, "value": 38}, "group": "control_change"}, {"time": 1305, "annotation": {"number": 64, "value": 0}, "group": "control_change"}, {"time": 1307, "annotation": {"number": 64, "value": 127}, "group": "control_change"}, {"time": 1329, "annotation": {"number": 64, "value": 0}, "group": "control_change"}, {"time": 1331, "annotation": {"number": 64, "value": 127}, "group": "control_change"}, {"time": 1331, "annotation": {"number": 64, "value": 38}, "group": "control_change"}, {"time": 1341, "annotation": {"number": 64, "value": 0}, "group": "control_change"}, {"time": 1352, "annotation": {"number": 64, "value": 0}, "group": "control_change"}, {"time": 1353, "annotation": {"number": 64, "value": 38}, "group": "control_change"}, {"time": 1353, "annotation": {"number": 64, "value": 0}, "group": "control_change"}, {"time": 1355, "annotation": {"number": 64, "value": 127}, "group": "control_change"}, {"time": 1376, "annotation": {"number": 64, "value": 0}, "group": "control_change"}, {"time": 1617, "annotation": {"number": 64, "value": 38}, "group": "control_change"}, {"time": 1617, "annotation": {"number": 64, "value": 0}, "group": "control_change"}, {"time": 1619, "annotation": {"number": 64, "value": 38}, "group": "control_change"}, {"time": 1619, "annotation": {"number": 64, "value": 127}, "group": "control_change"}, {"time": 1640, "annotation": {"number": 64, "value": 74}, "group": "control_change"}, {"time": 1640, "annotation": {"number": 64, "value": 0}, "group": "control_change"}, {"time": 1643, "annotation": {"number": 64, "value": 127}, "group": "control_change"}, {"time": 1665, "annotation": {"number": 64, "value": 38}, "group": "control_change"}, {"time": 1665, "annotation": {"number": 64, "value": 0}, "group": "control_change"}, {"time": 1667, "annotation": {"number": 64, "value": 127}, "group": "control_change"}, {"time": 1689, "annotation": {"number": 64, "value": 74}, "group": "control_change"}, {"time": 1689, "annotation": {"number": 64, "value": 0}, "group": "control_change"}, {"time": 1691, "annotation": {"number": 64, "value": 127}, "group": "control_change"}, {"time": 1698, "annotation": {"number": 64, "value": 0}, "group": "control_change"}, {"time": 1713, "annotation": {"number": 64, "value": 38}, "group": "control_change"}, {"time": 1713, "annotation": {"number": 64, "value": 0}, "group": "control_change"}, {"time": 1715, "annotation": {"number": 64, "value": 127}, "group": "control_change"}, {"time": 1736, "annotation": {"number": 64, "value": 0}, "group": "control_change"}, {"time": 1739, "annotation": {"number": 64, "value": 127}, "group": "control_change"}, {"time": 1749, "annotation": {"number": 64, "value": 38}, "group": "control_change"}, {"time": 1749, "annotation": {"number": 64, "value": 0}, "group": "control_change"}, {"time": 1751, "annotation": {"number": 64, "value": 127}, "group": "control_change"}, {"time": 1761, "annotation": {"number": 64, "value": 74}, "group": "control_change"}, {"time": 1761, "annotation": {"number": 64, "value": 0}, "group": "control_change"}, {"time": 1763, "annotation": {"number": 64, "value": 127}, "group": "control_change"}, {"time": 1785, "annotation": {"number": 64, "value": 74}, "group": "control_change"}, {"time": 1785, "annotation": {"number": 64, "value": 0}, "group": "control_change"}, {"time": 1787, "annotation": {"number": 64, "value": 127}, "group": "control_change"}, {"time": 1801, "annotation": {"number": 64, "value": 38}, "group": "control_change"}, {"time": 1801, "annotation": {"number": 64, "value": 0}, "group": "control_change"}, {"time": 1812, "annotation": {"number": 64, "value": 127}, "group": "control_change"}, {"time": 1833, "annotation": {"number": 64, "value": 0}, "group": "control_change"}, {"time": 1835, "annotation": {"number": 64, "value": 127}, "group": "control_change"}, {"time": 1857, "annotation": {"number": 64, "value": 38}, "group": "control_change"}, {"time": 1857, "annotation": {"number": 64, "value": 0}, "group": "control_change"}, {"time": 1859, "annotation": {"number": 64, "value": 127}, "group": "control_change"}, {"time": 1881, "annotation": {"number": 64, "value": 38}, "group": "control_change"}, {"time": 1881, "annotation": {"number": 64, "value": 0}, "group": "control_change"}, {"time": 1883, "annotation": {"number": 64, "value": 74}, "group": "control_change"}, {"time": 1883, "annotation": {"number": 64, "value": 127}, "group": "control_change"}, {"time": 1905, "annotation": {"number": 64, "value": 74}, "group": "control_change"}, {"time": 1905, "annotation": {"number": 64, "value": 0}, "group": "control_change"}, {"time": 1907, "annotation": {"number": 64, "value": 127}, "group": "control_change"}, {"time": 1927, "annotation": {"number": 64, "value": 74}, "group": "control_change"}, {"time": 1927, "annotation": {"number": 64, "value": 0}, "group": "control_change"}, {"time": 1929, "annotation": {"number": 64, "value": 38}, "group": "control_change"}, {"time": 1929, "annotation": {"number": 64, "value": 0}, "group": "control_change"}, {"time": 1931, "annotation": {"number": 64, "value": 127}, "group": "control_change"}, {"time": 1953, "annotation": {"number": 64, "value": 0}, "group": "control_change"}, {"time": 1955, "annotation": {"number": 64, "value": 127}, "group": "control_change"}, {"time": 1978, "annotation": {"number": 64, "value": 0}, "group": "control_change"}, {"time": 1979, "annotation": {"number": 64, "value": 74}, "group": "control_change"}, {"time": 1979, "annotation": {"number": 64, "value": 127}, "group": "control_change"}, {"time": 2002, "annotation": {"number": 64, "value": 38}, "group": "control_change"}, {"time": 2002, "annotation": {"number": 64, "value": 0}, "group": "control_change"}, {"time": 2003, "annotation": {"number": 64, "value": 127}, "group": "control_change"}, {"time": 2025, "annotation": {"number": 64, "value": 38}, "group": "control_change"}, {"time": 2025, "annotation": {"number": 64, "value": 0}, "group": "control_change"}, {"time": 2027, "annotation": {"number": 64, "value": 127}, "group": "control_change"}, {"time": 2050, "annotation": {"number": 64, "value": 38}, "group": "control_change"}, {"time": 2050, "annotation": {"number": 64, "value": 0}, "group": "control_change"}, {"time": 2051, "annotation": {"number": 64, "value": 127}, "group": "control_change"}, {"time": 2052, "annotation": {"number": 64, "value": 127}, "group": "control_change"}, {"time": 2058, "annotation": {"number": 64, "value": 38}, "group": "control_change"}, {"time": 2058, "annotation": {"number": 64, "value": 0}, "group": "control_change"}, {"time": 2073, "annotation": {"number": 64, "value": 74}, "group": "control_change"}, {"time": 2073, "annotation": {"number": 64, "value": 0}, "group": "control_change"}, {"time": 2075, "annotation": {"number": 64, "value": 127}, "group": "control_change"}, {"time": 2098, "annotation": {"number": 64, "value": 38}, "group": "control_change"}, {"time": 2098, "annotation": {"number": 64, "value": 0}, "group": "control_change"}, {"time": 2099, "annotation": {"number": 64, "value": 74}, "group": "control_change"}, {"time": 2100, "annotation": {"number": 64, "value": 127}, "group": "control_change"}, {"time": 2110, "annotation": {"number": 64, "value": 0}, "group": "control_change"}, {"time": 2121, "annotation": {"number": 64, "value": 74}, "group": "control_change"}, {"time": 2121, "annotation": {"number": 64, "value": 0}, "group": "control_change"}, {"time": 2123, "annotation": {"number": 64, "value": 127}, "group": "control_change"}, {"time": 2136, "annotation": {"number": 64, "value": 0}, "group": "control_change"}, {"time": 2145, "annotation": {"number": 64, "value": 38}, "group": "control_change"}, {"time": 2145, "annotation": {"number": 64, "value": 0}, "group": "control_change"}, {"time": 2147, "annotation": {"number": 64, "value": 127}, "group": "control_change"}, {"time": 2169, "annotation": {"number": 64, "value": 74}, "group": "control_change"}, {"time": 2169, "annotation": {"number": 64, "value": 0}, "group": "control_change"}, {"time": 2171, "annotation": {"number": 64, "value": 127}, "group": "control_change"}, {"time": 2193, "annotation": {"number": 64, "value": 0}, "group": "control_change"}, {"time": 2195, "annotation": {"number": 64, "value": 127}, "group": "control_change"}, {"time": 2217, "annotation": {"number": 64, "value": 38}, "group": "control_change"}, {"time": 2217, "annotation": {"number": 64, "value": 0}, "group": "control_change"}, {"time": 2219, "annotation": {"number": 64, "value": 127}, "group": "control_change"}, {"time": 2242, "annotation": {"number": 64, "value": 0}, "group": "control_change"}, {"time": 2243, "annotation": {"number": 64, "value": 127}, "group": "control_change"}, {"time": 2266, "annotation": {"number": 64, "value": 0}, "group": "control_change"}, {"time": 2267, "annotation": {"number": 64, "value": 127}, "group": "control_change"}, {"time": 2289, "annotation": {"number": 64, "value": 74}, "group": "control_change"}, {"time": 2289, "annotation": {"number": 64, "value": 0}, "group": "control_change"}, {"time": 2291, "annotation": {"number": 64, "value": 127}, "group": "control_change"}, {"time": 2313, "annotation": {"number": 64, "value": 38}, "group": "control_change"}, {"time": 2314, "annotation": {"number": 64, "value": 0}, "group": "control_change"}, {"time": 2315, "annotation": {"number": 64, "value": 127}, "group": "control_change"}, {"time": 2337, "annotation": {"number": 64, "value": 0}, "group": "control_change"}, {"time": 2339, "annotation": {"number": 64, "value": 127}, "group": "control_change"}, {"time": 2361, "annotation": {"number": 64, "value": 0}, "group": "control_change"}, {"time": 2363, "annotation": {"number": 64, "value": 127}, "group": "control_change"}, {"time": 2386, "annotation": {"number": 64, "value": 38}, "group": "control_change"}, {"time": 2386, "annotation": {"number": 64, "value": 0}, "group": "control_change"}, {"time": 2387, "annotation": {"number": 64, "value": 127}, "group": "control_change"}, {"time": 2388, "annotation": {"number": 64, "value": 127}, "group": "control_change"}, {"time": 2396, "annotation": {"number": 64, "value": 38}, "group": "control_change"}, {"time": 2396, "annotation": {"number": 64, "value": 0}, "group": "control_change"}, {"time": 2409, "annotation": {"number": 64, "value": 38}, "group": "control_change"}, {"time": 2409, "annotation": {"number": 64, "value": 0}, "group": "control_change"}, {"time": 2411, "annotation": {"number": 64, "value": 127}, "group": "control_change"}, {"time": 2433, "annotation": {"number": 64, "value": 38}, "group": "control_change"}, {"time": 2433, "annotation": {"number": 64, "value": 0}, "group": "control_change"}, {"time": 2435, "annotation": {"number": 64, "value": 127}, "group": "control_change"}, {"time": 2457, "annotation": {"number": 64, "value": 74}, "group": "control_change"}, {"time": 2457, "annotation": {"number": 64, "value": 0}, "group": "control_change"}, {"time": 2459, "annotation": {"number": 64, "value": 127}, "group": "control_change"}, {"time": 2481, "annotation": {"number": 64, "value": 38}, "group": "control_change"}, {"time": 2481, "annotation": {"number": 64, "value": 0}, "group": "control_change"}, {"time": 2483, "annotation": {"number": 64, "value": 127}, "group": "control_change"}, {"time": 2505, "annotation": {"number": 64, "value": 0}, "group": "control_change"}, {"time": 2507, "annotation": {"number": 64, "value": 127}, "group": "control_change"}, {"time": 2507, "annotation": {"number": 64, "value": 38}, "group": "control_change"}, {"time": 2517, "annotation": {"number": 64, "value": 0}, "group": "control_change"}, {"time": 2528, "annotation": {"number": 64, "value": 0}, "group": "control_change"}, {"time": 2529, "annotation": {"number": 64, "value": 38}, "group": "control_change"}, {"time": 2529, "annotation": {"number": 64, "value": 0}, "group": "control_change"}, {"time": 2531, "annotation": {"number": 64, "value": 127}, "group": "control_change"}, {"time": 2552, "annotation": {"number": 64, "value": 0}, "group": "control_change"}, {"time": 2579, "annotation": {"number": 64, "value": 127}, "group": "control_change"}, {"time": 2600, "annotation": {"number": 64, "value": 0}, "group": "control_change"}, {"time": 2603, "annotation": {"number": 64, "value": 127}, "group": "control_change"}, {"time": 2624, "annotation": {"number": 64, "value": 0}, "group": "control_change"}, {"time": 2628, "annotation": {"number": 64, "value": 127}, "group": "control_change"}, {"time": 2634, "annotation": {"number": 64, "value": 0}, "group": "control_change"}, {"time": 2649, "annotation": {"number": 64, "value": 0}, "group": "control_change"}, {"time": 2652, "annotation": {"number": 64, "value": 127}, "group": "control_change"}, {"time": 2673, "annotation": {"number": 64, "value": 38}, "group": "control_change"}, {"time": 2673, "annotation": {"number": 64, "value": 0}, "group": "control_change"}, {"time": 2676, "annotation": {"number": 64, "value": 127}, "group": "control_change"}, {"time": 2697, "annotation": {"number": 64, "value": 74}, "group": "control_change"}, {"time": 2697, "annotation": {"number": 64, "value": 0}, "group": "control_change"}, {"time": 2699, "annotation": {"number": 64, "value": 127}, "group": "control_change"}, {"time": 2720, "annotation": {"number": 64, "value": 0}, "group": "control_change"}, {"time": 2723, "annotation": {"number": 64, "value": 127}, "group": "control_change"}, {"time": 2736, "annotation": {"number": 64, "value": 0}, "group": "control_change"}, {"time": 2739, "annotation": {"number": 64, "value": 127}, "group": "control_change"}, {"time": 2769, "annotation": {"number": 64, "value": 0}, "group": "control_change"}, {"time": 2771, "annotation": {"number": 64, "value": 6}, "group": "control_change"}, {"time": 2772, "annotation": {"number": 64, "value": 123}, "group": "control_change"}, {"time": 2790, "annotation": {"number": 64, "value": 127}, "group": "control_change"}, {"time": 2793, "annotation": {"number": 64, "value": 127}, "group": "control_change"}, {"time": 2796, "annotation": {"number": 64, "value": 127}, "group": "control_change"}, {"time": 2797, "annotation": {"number": 64, "value": 127}, "group": "control_change"}]}]}