{"metadata": {"schema_version": "0.2", "title": "None", "source_filename": "294.mid", "source_format": "midi"}, "resolution": 12, "tempos": [{"time": 0, "qpm": 70.00007000007}], "time_signatures": [{"time": 0, "numerator": 4, "denominator": 4}], "tracks": [{"program": 4, "is_drum": false, "name": "MELODY", "notes": [{"time": 424, "pitch": 70, "duration": 6, "velocity": 107}, {"time": 430, "pitch": 72, "duration": 6, "velocity": 104}, {"time": 436, "pitch": 75, "duration": 18, "velocity": 108}, {"time": 454, "pitch": 77, "duration": 6, "velocity": 108}, {"time": 460, "pitch": 79, "duration": 6, "velocity": 100}, {"time": 466, "pitch": 74, "duration": 6, "velocity": 102}, {"time": 472, "pitch": 74, "duration": 3, "velocity": 102}, {"time": 475, "pitch": 72, "duration": 3, "velocity": 89}, {"time": 478, "pitch": 70, "duration": 6, "velocity": 100}, {"time": 484, "pitch": 72, "duration": 36, "velocity": 108}, {"time": 520, "pitch": 75, "duration": 6, "velocity": 113}, {"time": 526, "pitch": 77, "duration": 6, "velocity": 107}, {"time": 532, "pitch": 79, "duration": 18, "velocity": 107}, {"time": 550, "pitch": 82, "duration": 6, "velocity": 110}, {"time": 556, "pitch": 84, "duration": 6, "velocity": 108}, {"time": 562, "pitch": 75, "duration": 6, "velocity": 116}, {"time": 568, "pitch": 77, "duration": 3, "velocity": 107}, {"time": 571, "pitch": 79, "duration": 3, "velocity": 91}, {"time": 574, "pitch": 80, "duration": 6, "velocity": 86}, {"time": 580, "pitch": 79, "duration": 36, "velocity": 92}, {"time": 616, "pitch": 79, "duration": 6, "velocity": 113}, {"time": 622, "pitch": 82, "duration": 6, "velocity": 92}, {"time": 628, "pitch": 84, "duration": 18, "velocity": 108}, {"time": 646, "pitch": 82, "duration": 6, "velocity": 116}, {"time": 652, "pitch": 84, "duration": 12, "velocity": 114}, {"time": 664, "pitch": 72, "duration": 6, "velocity": 116}, {"time": 670, "pitch": 79, "duration": 6, "velocity": 113}, {"time": 676, "pitch": 77, "duration": 18, "velocity": 114}, {"time": 694, "pitch": 75, "duration": 6, "velocity": 113}, {"time": 700, "pitch": 77, "duration": 12, "velocity": 107}, {"time": 712, "pitch": 77, "duration": 6, "velocity": 113}, {"time": 718, "pitch": 79, "duration": 6, "velocity": 108}, {"time": 724, "pitch": 70, "duration": 18, "velocity": 110}, {"time": 742, "pitch": 72, "duration": 6, "velocity": 113}, {"time": 748, "pitch": 74, "duration": 6, "velocity": 102}, {"time": 754, "pitch": 77, "duration": 6, "velocity": 107}, {"time": 760, "pitch": 79, "duration": 3, "velocity": 94}, {"time": 763, "pitch": 77, "duration": 3, "velocity": 91}, {"time": 766, "pitch": 72, "duration": 6, "velocity": 87}, {"time": 772, "pitch": 75, "duration": 54, "velocity": 110}, {"time": 826, "pitch": 82, "duration": 6, "velocity": 110}, {"time": 832, "pitch": 82, "duration": 6, "velocity": 119}, {"time": 838, "pitch": 84, "duration": 6, "velocity": 117}, {"time": 844, "pitch": 87, "duration": 6, "velocity": 120}, {"time": 850, "pitch": 86, "duration": 9, "velocity": 120}, {"time": 859, "pitch": 84, "duration": 6, "velocity": 117}, {"time": 865, "pitch": 82, "duration": 3, "velocity": 114}, {"time": 868, "pitch": 84, "duration": 54, "velocity": 117}, {"time": 922, "pitch": 82, "duration": 6, "velocity": 113}, {"time": 928, "pitch": 82, "duration": 6, "velocity": 113}, {"time": 934, "pitch": 84, "duration": 6, "velocity": 117}, {"time": 940, "pitch": 87, "duration": 6, "velocity": 110}, {"time": 946, "pitch": 86, "duration": 12, "velocity": 114}, {"time": 958, "pitch": 84, "duration": 3, "velocity": 108}, {"time": 961, "pitch": 82, "duration": 9, "velocity": 113}, {"time": 970, "pitch": 79, "duration": 30, "velocity": 113}, {"time": 1000, "pitch": 70, "duration": 6, "velocity": 116}, {"time": 1006, "pitch": 72, "duration": 6, "velocity": 113}, {"time": 1012, "pitch": 75, "duration": 18, "velocity": 114}, {"time": 1030, "pitch": 77, "duration": 6, "velocity": 113}, {"time": 1036, "pitch": 79, "duration": 6, "velocity": 108}, {"time": 1042, "pitch": 74, "duration": 6, "velocity": 104}, {"time": 1048, "pitch": 74, "duration": 3, "velocity": 107}, {"time": 1051, "pitch": 72, "duration": 3, "velocity": 93}, {"time": 1054, "pitch": 70, "duration": 6, "velocity": 100}, {"time": 1060, "pitch": 72, "duration": 36, "velocity": 107}, {"time": 1096, "pitch": 75, "duration": 6, "velocity": 114}, {"time": 1102, "pitch": 77, "duration": 6, "velocity": 107}, {"time": 1108, "pitch": 79, "duration": 18, "velocity": 113}, {"time": 1126, "pitch": 82, "duration": 6, "velocity": 113}, {"time": 1132, "pitch": 84, "duration": 6, "velocity": 110}, {"time": 1138, "pitch": 75, "duration": 6, "velocity": 113}, {"time": 1144, "pitch": 77, "duration": 3, "velocity": 102}, {"time": 1147, "pitch": 79, "duration": 3, "velocity": 102}, {"time": 1150, "pitch": 80, "duration": 6, "velocity": 97}, {"time": 1156, "pitch": 79, "duration": 36, "velocity": 107}, {"time": 1192, "pitch": 79, "duration": 6, "velocity": 113}, {"time": 1198, "pitch": 82, "duration": 6, "velocity": 113}, {"time": 1204, "pitch": 84, "duration": 18, "velocity": 117}, {"time": 1222, "pitch": 82, "duration": 6, "velocity": 116}, {"time": 1228, "pitch": 84, "duration": 12, "velocity": 116}, {"time": 1240, "pitch": 72, "duration": 6, "velocity": 116}, {"time": 1246, "pitch": 79, "duration": 6, "velocity": 116}, {"time": 1252, "pitch": 77, "duration": 18, "velocity": 119}, {"time": 1270, "pitch": 75, "duration": 6, "velocity": 116}, {"time": 1276, "pitch": 77, "duration": 12, "velocity": 114}, {"time": 1288, "pitch": 77, "duration": 6, "velocity": 116}, {"time": 1294, "pitch": 79, "duration": 6, "velocity": 113}, {"time": 1300, "pitch": 70, "duration": 18, "velocity": 116}, {"time": 1318, "pitch": 72, "duration": 6, "velocity": 114}, {"time": 1324, "pitch": 74, "duration": 6, "velocity": 110}, {"time": 1330, "pitch": 77, "duration": 6, "velocity": 113}, {"time": 1336, "pitch": 79, "duration": 6, "velocity": 104}, {"time": 1342, "pitch": 72, "duration": 6, "velocity": 116}, {"time": 1348, "pitch": 75, "duration": 49, "velocity": 116}, {"time": 1768, "pitch": 70, "duration": 6, "velocity": 107}, {"time": 1774, "pitch": 72, "duration": 6, "velocity": 104}, {"time": 1780, "pitch": 75, "duration": 18, "velocity": 108}, {"time": 1798, "pitch": 77, "duration": 6, "velocity": 108}, {"time": 1804, "pitch": 79, "duration": 6, "velocity": 100}, {"time": 1810, "pitch": 74, "duration": 6, "velocity": 102}, {"time": 1816, "pitch": 74, "duration": 3, "velocity": 102}, {"time": 1819, "pitch": 72, "duration": 3, "velocity": 89}, {"time": 1822, "pitch": 70, "duration": 6, "velocity": 100}, {"time": 1828, "pitch": 72, "duration": 36, "velocity": 108}, {"time": 1864, "pitch": 75, "duration": 6, "velocity": 113}, {"time": 1870, "pitch": 77, "duration": 6, "velocity": 107}, {"time": 1876, "pitch": 79, "duration": 18, "velocity": 107}, {"time": 1894, "pitch": 82, "duration": 6, "velocity": 110}, {"time": 1900, "pitch": 84, "duration": 6, "velocity": 108}, {"time": 1906, "pitch": 75, "duration": 6, "velocity": 116}, {"time": 1912, "pitch": 77, "duration": 3, "velocity": 107}, {"time": 1915, "pitch": 79, "duration": 3, "velocity": 91}, {"time": 1918, "pitch": 80, "duration": 6, "velocity": 86}, {"time": 1924, "pitch": 79, "duration": 36, "velocity": 92}, {"time": 1960, "pitch": 79, "duration": 6, "velocity": 113}, {"time": 1966, "pitch": 82, "duration": 6, "velocity": 92}, {"time": 1972, "pitch": 84, "duration": 18, "velocity": 108}, {"time": 1990, "pitch": 82, "duration": 6, "velocity": 116}, {"time": 1996, "pitch": 84, "duration": 12, "velocity": 114}, {"time": 2008, "pitch": 72, "duration": 6, "velocity": 116}, {"time": 2014, "pitch": 79, "duration": 6, "velocity": 113}, {"time": 2020, "pitch": 77, "duration": 18, "velocity": 114}, {"time": 2038, "pitch": 75, "duration": 6, "velocity": 113}, {"time": 2044, "pitch": 77, "duration": 12, "velocity": 107}, {"time": 2056, "pitch": 77, "duration": 6, "velocity": 113}, {"time": 2062, "pitch": 79, "duration": 6, "velocity": 108}, {"time": 2068, "pitch": 70, "duration": 18, "velocity": 110}, {"time": 2086, "pitch": 72, "duration": 6, "velocity": 113}, {"time": 2092, "pitch": 74, "duration": 6, "velocity": 102}, {"time": 2098, "pitch": 77, "duration": 6, "velocity": 107}, {"time": 2104, "pitch": 79, "duration": 3, "velocity": 94}, {"time": 2107, "pitch": 77, "duration": 3, "velocity": 91}, {"time": 2110, "pitch": 72, "duration": 6, "velocity": 87}, {"time": 2116, "pitch": 75, "duration": 48, "velocity": 110}, {"time": 2170, "pitch": 82, "duration": 6, "velocity": 110}, {"time": 2176, "pitch": 82, "duration": 6, "velocity": 119}, {"time": 2182, "pitch": 84, "duration": 6, "velocity": 117}, {"time": 2188, "pitch": 87, "duration": 6, "velocity": 120}, {"time": 2194, "pitch": 86, "duration": 12, "velocity": 120}, {"time": 2206, "pitch": 84, "duration": 3, "velocity": 117}, {"time": 2209, "pitch": 82, "duration": 3, "velocity": 114}, {"time": 2212, "pitch": 84, "duration": 54, "velocity": 117}, {"time": 2266, "pitch": 82, "duration": 6, "velocity": 113}, {"time": 2272, "pitch": 82, "duration": 6, "velocity": 113}, {"time": 2278, "pitch": 84, "duration": 6, "velocity": 117}, {"time": 2284, "pitch": 87, "duration": 6, "velocity": 110}, {"time": 2290, "pitch": 86, "duration": 12, "velocity": 114}, {"time": 2302, "pitch": 84, "duration": 3, "velocity": 108}, {"time": 2305, "pitch": 82, "duration": 9, "velocity": 113}, {"time": 2314, "pitch": 79, "duration": 30, "velocity": 113}, {"time": 2344, "pitch": 70, "duration": 6, "velocity": 116}, {"time": 2350, "pitch": 72, "duration": 6, "velocity": 113}, {"time": 2356, "pitch": 75, "duration": 18, "velocity": 114}, {"time": 2374, "pitch": 77, "duration": 6, "velocity": 113}, {"time": 2380, "pitch": 79, "duration": 6, "velocity": 108}, {"time": 2386, "pitch": 74, "duration": 6, "velocity": 104}, {"time": 2392, "pitch": 74, "duration": 3, "velocity": 107}, {"time": 2395, "pitch": 72, "duration": 3, "velocity": 93}, {"time": 2398, "pitch": 70, "duration": 6, "velocity": 100}, {"time": 2404, "pitch": 72, "duration": 36, "velocity": 107}, {"time": 2440, "pitch": 75, "duration": 6, "velocity": 114}, {"time": 2446, "pitch": 77, "duration": 6, "velocity": 107}, {"time": 2452, "pitch": 79, "duration": 18, "velocity": 113}, {"time": 2470, "pitch": 82, "duration": 6, "velocity": 113}, {"time": 2476, "pitch": 84, "duration": 6, "velocity": 110}, {"time": 2482, "pitch": 75, "duration": 6, "velocity": 113}, {"time": 2488, "pitch": 77, "duration": 3, "velocity": 102}, {"time": 2491, "pitch": 79, "duration": 3, "velocity": 102}, {"time": 2494, "pitch": 80, "duration": 6, "velocity": 97}, {"time": 2500, "pitch": 79, "duration": 36, "velocity": 107}, {"time": 2536, "pitch": 79, "duration": 6, "velocity": 113}, {"time": 2542, "pitch": 82, "duration": 6, "velocity": 113}, {"time": 2548, "pitch": 84, "duration": 18, "velocity": 117}, {"time": 2566, "pitch": 82, "duration": 6, "velocity": 116}, {"time": 2572, "pitch": 84, "duration": 12, "velocity": 116}, {"time": 2584, "pitch": 72, "duration": 6, "velocity": 116}, {"time": 2590, "pitch": 79, "duration": 6, "velocity": 116}, {"time": 2596, "pitch": 77, "duration": 18, "velocity": 119}, {"time": 2614, "pitch": 75, "duration": 6, "velocity": 116}, {"time": 2620, "pitch": 77, "duration": 12, "velocity": 114}, {"time": 2632, "pitch": 77, "duration": 6, "velocity": 116}, {"time": 2638, "pitch": 79, "duration": 6, "velocity": 113}, {"time": 2644, "pitch": 70, "duration": 18, "velocity": 116}, {"time": 2662, "pitch": 72, "duration": 6, "velocity": 114}, {"time": 2668, "pitch": 74, "duration": 6, "velocity": 110}, {"time": 2674, "pitch": 77, "duration": 6, "velocity": 113}, {"time": 2680, "pitch": 79, "duration": 6, "velocity": 104}, {"time": 2686, "pitch": 72, "duration": 6, "velocity": 116}, {"time": 2692, "pitch": 75, "duration": 49, "velocity": 116}, {"time": 2747, "pitch": 82, "duration": 6, "velocity": 110}, {"time": 2753, "pitch": 82, "duration": 6, "velocity": 119}, {"time": 2759, "pitch": 84, "duration": 6, "velocity": 117}, {"time": 2765, "pitch": 87, "duration": 6, "velocity": 120}, {"time": 2771, "pitch": 86, "duration": 9, "velocity": 120}, {"time": 2780, "pitch": 84, "duration": 6, "velocity": 117}, {"time": 2786, "pitch": 82, "duration": 3, "velocity": 114}, {"time": 2789, "pitch": 84, "duration": 54, "velocity": 117}, {"time": 2843, "pitch": 82, "duration": 6, "velocity": 113}, {"time": 2849, "pitch": 82, "duration": 6, "velocity": 113}, {"time": 2855, "pitch": 84, "duration": 6, "velocity": 117}, {"time": 2861, "pitch": 87, "duration": 6, "velocity": 110}, {"time": 2867, "pitch": 86, "duration": 12, "velocity": 114}, {"time": 2879, "pitch": 84, "duration": 3, "velocity": 108}, {"time": 2882, "pitch": 82, "duration": 9, "velocity": 113}, {"time": 2891, "pitch": 79, "duration": 30, "velocity": 113}, {"time": 2921, "pitch": 70, "duration": 6, "velocity": 116}, {"time": 2927, "pitch": 72, "duration": 6, "velocity": 113}, {"time": 2933, "pitch": 75, "duration": 18, "velocity": 114}, {"time": 2951, "pitch": 77, "duration": 6, "velocity": 113}, {"time": 2957, "pitch": 79, "duration": 6, "velocity": 108}, {"time": 2963, "pitch": 74, "duration": 6, "velocity": 104}, {"time": 2969, "pitch": 74, "duration": 3, "velocity": 107}, {"time": 2972, "pitch": 72, "duration": 3, "velocity": 93}, {"time": 2975, "pitch": 70, "duration": 6, "velocity": 100}, {"time": 2981, "pitch": 72, "duration": 36, "velocity": 107}, {"time": 3017, "pitch": 75, "duration": 6, "velocity": 114}, {"time": 3023, "pitch": 77, "duration": 6, "velocity": 107}, {"time": 3029, "pitch": 79, "duration": 18, "velocity": 113}, {"time": 3047, "pitch": 82, "duration": 6, "velocity": 113}, {"time": 3053, "pitch": 84, "duration": 6, "velocity": 110}, {"time": 3059, "pitch": 75, "duration": 6, "velocity": 113}, {"time": 3065, "pitch": 77, "duration": 3, "velocity": 102}, {"time": 3068, "pitch": 79, "duration": 3, "velocity": 102}, {"time": 3071, "pitch": 80, "duration": 6, "velocity": 97}, {"time": 3077, "pitch": 79, "duration": 36, "velocity": 107}, {"time": 3113, "pitch": 79, "duration": 6, "velocity": 113}, {"time": 3119, "pitch": 82, "duration": 6, "velocity": 113}, {"time": 3125, "pitch": 84, "duration": 18, "velocity": 117}, {"time": 3143, "pitch": 82, "duration": 6, "velocity": 116}, {"time": 3149, "pitch": 84, "duration": 12, "velocity": 116}, {"time": 3161, "pitch": 72, "duration": 6, "velocity": 116}, {"time": 3167, "pitch": 79, "duration": 6, "velocity": 116}, {"time": 3173, "pitch": 77, "duration": 18, "velocity": 119}, {"time": 3191, "pitch": 75, "duration": 6, "velocity": 116}, {"time": 3197, "pitch": 77, "duration": 12, "velocity": 114}, {"time": 3209, "pitch": 77, "duration": 6, "velocity": 116}, {"time": 3215, "pitch": 79, "duration": 6, "velocity": 113}, {"time": 3221, "pitch": 70, "duration": 18, "velocity": 116}, {"time": 3239, "pitch": 72, "duration": 6, "velocity": 114}, {"time": 3245, "pitch": 74, "duration": 6, "velocity": 110}, {"time": 3251, "pitch": 77, "duration": 6, "velocity": 113}, {"time": 3257, "pitch": 79, "duration": 6, "velocity": 104}, {"time": 3263, "pitch": 72, "duration": 6, "velocity": 116}, {"time": 3269, "pitch": 75, "duration": 49, "velocity": 116}, {"time": 3306, "pitch": 79, "duration": 11, "velocity": 104}, {"time": 3317, "pitch": 70, "duration": 18, "velocity": 116}, {"time": 3335, "pitch": 72, "duration": 6, "velocity": 104}, {"time": 3341, "pitch": 74, "duration": 6, "velocity": 108}, {"time": 3347, "pitch": 77, "duration": 6, "velocity": 100}, {"time": 3353, "pitch": 79, "duration": 6, "velocity": 110}, {"time": 3359, "pitch": 72, "duration": 6, "velocity": 88}, {"time": 3365, "pitch": 75, "duration": 48, "velocity": 108}, {"time": 3413, "pitch": 74, "duration": 22, "velocity": 117}, {"time": 3435, "pitch": 79, "duration": 31, "velocity": 114}, {"time": 3466, "pitch": 75, "duration": 34, "velocity": 108}]}, {"program": 0, "is_drum": false, "name": "PIANO", "notes": [{"time": 52, "pitch": 58, "duration": 40, "velocity": 74}, {"time": 55, "pitch": 39, "duration": 91, "velocity": 75}, {"time": 55, "pitch": 51, "duration": 91, "velocity": 76}, {"time": 55, "pitch": 63, "duration": 40, "velocity": 82}, {"time": 55, "pitch": 67, "duration": 40, "velocity": 81}, {"time": 100, "pitch": 58, "duration": 44, "velocity": 70}, {"time": 100, "pitch": 63, "duration": 44, "velocity": 71}, {"time": 100, "pitch": 67, "duration": 44, "velocity": 71}, {"time": 148, "pitch": 39, "duration": 37, "velocity": 75}, {"time": 148, "pitch": 51, "duration": 37, "velocity": 73}, {"time": 148, "pitch": 58, "duration": 41, "velocity": 68}, {"time": 148, "pitch": 63, "duration": 44, "velocity": 71}, {"time": 148, "pitch": 67, "duration": 42, "velocity": 75}, {"time": 196, "pitch": 44, "duration": 39, "velocity": 77}, {"time": 196, "pitch": 56, "duration": 38, "velocity": 77}, {"time": 196, "pitch": 60, "duration": 41, "velocity": 74}, {"time": 196, "pitch": 63, "duration": 40, "velocity": 76}, {"time": 196, "pitch": 68, "duration": 40, "velocity": 79}, {"time": 244, "pitch": 39, "duration": 6, "velocity": 74}, {"time": 244, "pitch": 48, "duration": 24, "velocity": 87}, {"time": 244, "pitch": 60, "duration": 19, "velocity": 84}, {"time": 244, "pitch": 63, "duration": 21, "velocity": 87}, {"time": 244, "pitch": 67, "duration": 18, "velocity": 86}, {"time": 268, "pitch": 43, "duration": 17, "velocity": 73}, {"time": 268, "pitch": 55, "duration": 17, "velocity": 79}, {"time": 268, "pitch": 58, "duration": 17, "velocity": 83}, {"time": 268, "pitch": 62, "duration": 17, "velocity": 80}, {"time": 268, "pitch": 67, "duration": 17, "velocity": 81}, {"time": 292, "pitch": 43, "duration": 21, "velocity": 81}, {"time": 292, "pitch": 55, "duration": 21, "velocity": 84}, {"time": 292, "pitch": 62, "duration": 20, "velocity": 87}, {"time": 292, "pitch": 67, "duration": 23, "velocity": 88}, {"time": 292, "pitch": 70, "duration": 19, "velocity": 86}, {"time": 316, "pitch": 48, "duration": 19, "velocity": 86}, {"time": 316, "pitch": 60, "duration": 18, "velocity": 88}, {"time": 316, "pitch": 63, "duration": 17, "velocity": 91}, {"time": 316, "pitch": 67, "duration": 16, "velocity": 86}, {"time": 340, "pitch": 46, "duration": 18, "velocity": 82}, {"time": 340, "pitch": 58, "duration": 19, "velocity": 82}, {"time": 340, "pitch": 62, "duration": 19, "velocity": 86}, {"time": 340, "pitch": 65, "duration": 18, "velocity": 86}, {"time": 364, "pitch": 44, "duration": 16, "velocity": 72}, {"time": 364, "pitch": 56, "duration": 15, "velocity": 76}, {"time": 364, "pitch": 58, "duration": 21, "velocity": 73}, {"time": 364, "pitch": 62, "duration": 20, "velocity": 78}, {"time": 364, "pitch": 65, "duration": 19, "velocity": 78}, {"time": 388, "pitch": 39, "duration": 26, "velocity": 77}, {"time": 388, "pitch": 51, "duration": 25, "velocity": 76}, {"time": 388, "pitch": 58, "duration": 26, "velocity": 76}, {"time": 388, "pitch": 63, "duration": 26, "velocity": 78}, {"time": 388, "pitch": 67, "duration": 26, "velocity": 83}, {"time": 436, "pitch": 51, "duration": 19, "velocity": 87}, {"time": 442, "pitch": 58, "duration": 13, "velocity": 63}, {"time": 448, "pitch": 63, "duration": 6, "velocity": 79}, {"time": 454, "pitch": 67, "duration": 24, "velocity": 82}, {"time": 460, "pitch": 50, "duration": 19, "velocity": 85}, {"time": 466, "pitch": 58, "duration": 12, "velocity": 66}, {"time": 472, "pitch": 62, "duration": 5, "velocity": 72}, {"time": 484, "pitch": 48, "duration": 42, "velocity": 83}, {"time": 490, "pitch": 55, "duration": 37, "velocity": 78}, {"time": 496, "pitch": 60, "duration": 29, "velocity": 82}, {"time": 502, "pitch": 65, "duration": 6, "velocity": 79}, {"time": 508, "pitch": 63, "duration": 23, "velocity": 80}, {"time": 532, "pitch": 51, "duration": 17, "velocity": 80}, {"time": 538, "pitch": 58, "duration": 10, "velocity": 74}, {"time": 544, "pitch": 63, "duration": 4, "velocity": 83}, {"time": 550, "pitch": 67, "duration": 17, "velocity": 78}, {"time": 556, "pitch": 44, "duration": 8, "velocity": 84}, {"time": 568, "pitch": 58, "duration": 9, "velocity": 74}, {"time": 571, "pitch": 46, "duration": 3, "velocity": 65}, {"time": 571, "pitch": 65, "duration": 11, "velocity": 75}, {"time": 580, "pitch": 39, "duration": 37, "velocity": 77}, {"time": 580, "pitch": 58, "duration": 17, "velocity": 44}, {"time": 580, "pitch": 67, "duration": 6, "velocity": 81}, {"time": 586, "pitch": 46, "duration": 32, "velocity": 65}, {"time": 592, "pitch": 51, "duration": 13, "velocity": 77}, {"time": 598, "pitch": 56, "duration": 6, "velocity": 75}, {"time": 604, "pitch": 55, "duration": 6, "velocity": 78}, {"time": 613, "pitch": 51, "duration": 7, "velocity": 77}, {"time": 616, "pitch": 58, "duration": 6, "velocity": 87}, {"time": 622, "pitch": 63, "duration": 6, "velocity": 84}, {"time": 628, "pitch": 44, "duration": 39, "velocity": 78}, {"time": 631, "pitch": 63, "duration": 10, "velocity": 63}, {"time": 634, "pitch": 51, "duration": 30, "velocity": 56}, {"time": 640, "pitch": 56, "duration": 24, "velocity": 78}, {"time": 646, "pitch": 60, "duration": 23, "velocity": 78}, {"time": 652, "pitch": 67, "duration": 14, "velocity": 81}, {"time": 676, "pitch": 41, "duration": 42, "velocity": 79}, {"time": 676, "pitch": 65, "duration": 13, "velocity": 84}, {"time": 682, "pitch": 48, "duration": 36, "velocity": 71}, {"time": 688, "pitch": 53, "duration": 30, "velocity": 73}, {"time": 694, "pitch": 56, "duration": 24, "velocity": 75}, {"time": 700, "pitch": 65, "duration": 20, "velocity": 79}, {"time": 724, "pitch": 46, "duration": 42, "velocity": 81}, {"time": 730, "pitch": 53, "duration": 35, "velocity": 65}, {"time": 736, "pitch": 58, "duration": 28, "velocity": 80}, {"time": 742, "pitch": 60, "duration": 9, "velocity": 71}, {"time": 748, "pitch": 62, "duration": 23, "velocity": 73}, {"time": 772, "pitch": 51, "duration": 41, "velocity": 80}, {"time": 778, "pitch": 58, "duration": 35, "velocity": 66}, {"time": 784, "pitch": 63, "duration": 27, "velocity": 81}, {"time": 790, "pitch": 65, "duration": 2, "velocity": 79}, {"time": 796, "pitch": 67, "duration": 24, "velocity": 83}, {"time": 796, "pitch": 70, "duration": 24, "velocity": 73}, {"time": 820, "pitch": 51, "duration": 41, "velocity": 86}, {"time": 826, "pitch": 58, "duration": 33, "velocity": 79}, {"time": 832, "pitch": 63, "duration": 26, "velocity": 84}, {"time": 844, "pitch": 67, "duration": 23, "velocity": 93}, {"time": 844, "pitch": 70, "duration": 23, "velocity": 88}, {"time": 868, "pitch": 48, "duration": 39, "velocity": 86}, {"time": 868, "pitch": 63, "duration": 15, "velocity": 85}, {"time": 868, "pitch": 72, "duration": 4, "velocity": 88}, {"time": 874, "pitch": 55, "duration": 32, "velocity": 56}, {"time": 880, "pitch": 60, "duration": 14, "velocity": 83}, {"time": 892, "pitch": 63, "duration": 23, "velocity": 87}, {"time": 892, "pitch": 67, "duration": 15, "velocity": 90}, {"time": 892, "pitch": 72, "duration": 13, "velocity": 86}, {"time": 904, "pitch": 60, "duration": 1, "velocity": 83}, {"time": 916, "pitch": 39, "duration": 12, "velocity": 84}, {"time": 916, "pitch": 58, "duration": 12, "velocity": 88}, {"time": 916, "pitch": 63, "duration": 12, "velocity": 86}, {"time": 916, "pitch": 67, "duration": 12, "velocity": 88}, {"time": 922, "pitch": 46, "duration": 7, "velocity": 70}, {"time": 928, "pitch": 51, "duration": 2, "velocity": 78}, {"time": 934, "pitch": 55, "duration": 21, "velocity": 82}, {"time": 940, "pitch": 58, "duration": 19, "velocity": 87}, {"time": 940, "pitch": 63, "duration": 20, "velocity": 90}, {"time": 940, "pitch": 67, "duration": 18, "velocity": 86}, {"time": 964, "pitch": 51, "duration": 41, "velocity": 92}, {"time": 970, "pitch": 58, "duration": 33, "velocity": 82}, {"time": 976, "pitch": 63, "duration": 16, "velocity": 86}, {"time": 982, "pitch": 70, "duration": 28, "velocity": 91}, {"time": 988, "pitch": 67, "duration": 22, "velocity": 88}, {"time": 994, "pitch": 63, "duration": 7, "velocity": 76}, {"time": 1012, "pitch": 51, "duration": 19, "velocity": 88}, {"time": 1018, "pitch": 58, "duration": 18, "velocity": 71}, {"time": 1024, "pitch": 63, "duration": 7, "velocity": 81}, {"time": 1030, "pitch": 65, "duration": 10, "velocity": 81}, {"time": 1036, "pitch": 50, "duration": 17, "velocity": 83}, {"time": 1042, "pitch": 58, "duration": 10, "velocity": 77}, {"time": 1048, "pitch": 62, "duration": 6, "velocity": 85}, {"time": 1054, "pitch": 65, "duration": 6, "velocity": 84}, {"time": 1060, "pitch": 48, "duration": 40, "velocity": 80}, {"time": 1060, "pitch": 63, "duration": 61, "velocity": 78}, {"time": 1066, "pitch": 55, "duration": 33, "velocity": 65}, {"time": 1072, "pitch": 60, "duration": 17, "velocity": 81}, {"time": 1078, "pitch": 72, "duration": 21, "velocity": 86}, {"time": 1084, "pitch": 67, "duration": 16, "velocity": 77}, {"time": 1096, "pitch": 60, "duration": 2, "velocity": 83}, {"time": 1108, "pitch": 39, "duration": 14, "velocity": 86}, {"time": 1108, "pitch": 58, "duration": 12, "velocity": 83}, {"time": 1108, "pitch": 67, "duration": 13, "velocity": 83}, {"time": 1114, "pitch": 46, "duration": 10, "velocity": 73}, {"time": 1120, "pitch": 51, "duration": 4, "velocity": 85}, {"time": 1132, "pitch": 44, "duration": 7, "velocity": 80}, {"time": 1132, "pitch": 60, "duration": 7, "velocity": 82}, {"time": 1132, "pitch": 63, "duration": 7, "velocity": 87}, {"time": 1132, "pitch": 68, "duration": 6, "velocity": 81}, {"time": 1144, "pitch": 46, "duration": 4, "velocity": 83}, {"time": 1144, "pitch": 58, "duration": 7, "velocity": 79}, {"time": 1144, "pitch": 62, "duration": 11, "velocity": 80}, {"time": 1144, "pitch": 65, "duration": 11, "velocity": 86}, {"time": 1156, "pitch": 39, "duration": 39, "velocity": 84}, {"time": 1156, "pitch": 58, "duration": 38, "velocity": 83}, {"time": 1156, "pitch": 67, "duration": 4, "velocity": 86}, {"time": 1162, "pitch": 46, "duration": 34, "velocity": 66}, {"time": 1168, "pitch": 51, "duration": 13, "velocity": 82}, {"time": 1174, "pitch": 55, "duration": 18, "velocity": 72}, {"time": 1180, "pitch": 63, "duration": 12, "velocity": 88}, {"time": 1192, "pitch": 51, "duration": 6, "velocity": 83}, {"time": 1204, "pitch": 44, "duration": 46, "velocity": 87}, {"time": 1210, "pitch": 51, "duration": 31, "velocity": 73}, {"time": 1216, "pitch": 56, "duration": 14, "velocity": 81}, {"time": 1222, "pitch": 60, "duration": 12, "velocity": 83}, {"time": 1228, "pitch": 68, "duration": 15, "velocity": 86}, {"time": 1252, "pitch": 41, "duration": 40, "velocity": 82}, {"time": 1252, "pitch": 65, "duration": 17, "velocity": 88}, {"time": 1258, "pitch": 48, "duration": 35, "velocity": 76}, {"time": 1264, "pitch": 53, "duration": 31, "velocity": 80}, {"time": 1270, "pitch": 56, "duration": 23, "velocity": 78}, {"time": 1276, "pitch": 65, "duration": 35, "velocity": 87}, {"time": 1300, "pitch": 46, "duration": 39, "velocity": 84}, {"time": 1306, "pitch": 53, "duration": 31, "velocity": 72}, {"time": 1312, "pitch": 58, "duration": 16, "velocity": 84}, {"time": 1318, "pitch": 62, "duration": 23, "velocity": 87}, {"time": 1324, "pitch": 70, "duration": 15, "velocity": 84}, {"time": 1348, "pitch": 39, "duration": 37, "velocity": 80}, {"time": 1348, "pitch": 58, "duration": 18, "velocity": 80}, {"time": 1348, "pitch": 67, "duration": 5, "velocity": 86}, {"time": 1354, "pitch": 46, "duration": 31, "velocity": 65}, {"time": 1360, "pitch": 51, "duration": 25, "velocity": 77}, {"time": 1366, "pitch": 55, "duration": 19, "velocity": 75}, {"time": 1372, "pitch": 63, "duration": 13, "velocity": 69}, {"time": 1396, "pitch": 53, "duration": 43, "velocity": 73}, {"time": 1396, "pitch": 60, "duration": 43, "velocity": 76}, {"time": 1396, "pitch": 65, "duration": 42, "velocity": 76}, {"time": 1396, "pitch": 68, "duration": 42, "velocity": 73}, {"time": 1444, "pitch": 53, "duration": 40, "velocity": 72}, {"time": 1444, "pitch": 60, "duration": 41, "velocity": 78}, {"time": 1444, "pitch": 65, "duration": 41, "velocity": 79}, {"time": 1444, "pitch": 68, "duration": 39, "velocity": 73}, {"time": 1492, "pitch": 53, "duration": 42, "velocity": 77}, {"time": 1492, "pitch": 60, "duration": 42, "velocity": 77}, {"time": 1492, "pitch": 65, "duration": 42, "velocity": 81}, {"time": 1492, "pitch": 68, "duration": 43, "velocity": 73}, {"time": 1540, "pitch": 46, "duration": 36, "velocity": 67}, {"time": 1540, "pitch": 62, "duration": 17, "velocity": 76}, {"time": 1540, "pitch": 65, "duration": 16, "velocity": 74}, {"time": 1540, "pitch": 70, "duration": 16, "velocity": 78}, {"time": 1558, "pitch": 53, "duration": 19, "velocity": 38}, {"time": 1564, "pitch": 58, "duration": 18, "velocity": 72}, {"time": 1564, "pitch": 65, "duration": 20, "velocity": 65}, {"time": 1588, "pitch": 48, "duration": 19, "velocity": 81}, {"time": 1588, "pitch": 60, "duration": 18, "velocity": 78}, {"time": 1588, "pitch": 63, "duration": 22, "velocity": 83}, {"time": 1588, "pitch": 67, "duration": 19, "velocity": 84}, {"time": 1612, "pitch": 46, "duration": 12, "velocity": 72}, {"time": 1612, "pitch": 58, "duration": 16, "velocity": 77}, {"time": 1612, "pitch": 62, "duration": 19, "velocity": 74}, {"time": 1612, "pitch": 67, "duration": 15, "velocity": 75}, {"time": 1636, "pitch": 43, "duration": 12, "velocity": 78}, {"time": 1636, "pitch": 58, "duration": 17, "velocity": 84}, {"time": 1636, "pitch": 62, "duration": 23, "velocity": 84}, {"time": 1636, "pitch": 65, "duration": 20, "velocity": 84}, {"time": 1660, "pitch": 48, "duration": 17, "velocity": 79}, {"time": 1660, "pitch": 60, "duration": 19, "velocity": 81}, {"time": 1660, "pitch": 63, "duration": 19, "velocity": 83}, {"time": 1660, "pitch": 67, "duration": 19, "velocity": 85}, {"time": 1684, "pitch": 51, "duration": 21, "velocity": 83}, {"time": 1684, "pitch": 58, "duration": 18, "velocity": 84}, {"time": 1684, "pitch": 63, "duration": 19, "velocity": 82}, {"time": 1684, "pitch": 67, "duration": 17, "velocity": 83}, {"time": 1708, "pitch": 46, "duration": 4, "velocity": 81}, {"time": 1708, "pitch": 58, "duration": 39, "velocity": 80}, {"time": 1708, "pitch": 62, "duration": 24, "velocity": 87}, {"time": 1708, "pitch": 65, "duration": 23, "velocity": 82}, {"time": 1720, "pitch": 44, "duration": 12, "velocity": 83}, {"time": 1732, "pitch": 39, "duration": 16, "velocity": 77}, {"time": 1732, "pitch": 51, "duration": 16, "velocity": 81}, {"time": 1732, "pitch": 63, "duration": 16, "velocity": 81}, {"time": 1732, "pitch": 67, "duration": 16, "velocity": 83}, {"time": 1780, "pitch": 51, "duration": 19, "velocity": 87}, {"time": 1786, "pitch": 58, "duration": 13, "velocity": 63}, {"time": 1792, "pitch": 63, "duration": 6, "velocity": 79}, {"time": 1798, "pitch": 67, "duration": 24, "velocity": 82}, {"time": 1804, "pitch": 50, "duration": 19, "velocity": 85}, {"time": 1810, "pitch": 58, "duration": 12, "velocity": 66}, {"time": 1816, "pitch": 62, "duration": 5, "velocity": 72}, {"time": 1828, "pitch": 48, "duration": 42, "velocity": 83}, {"time": 1834, "pitch": 55, "duration": 37, "velocity": 78}, {"time": 1840, "pitch": 60, "duration": 29, "velocity": 82}, {"time": 1846, "pitch": 65, "duration": 6, "velocity": 79}, {"time": 1852, "pitch": 63, "duration": 23, "velocity": 80}, {"time": 1876, "pitch": 51, "duration": 17, "velocity": 80}, {"time": 1882, "pitch": 58, "duration": 10, "velocity": 74}, {"time": 1888, "pitch": 63, "duration": 4, "velocity": 83}, {"time": 1894, "pitch": 67, "duration": 17, "velocity": 78}, {"time": 1900, "pitch": 44, "duration": 8, "velocity": 84}, {"time": 1912, "pitch": 58, "duration": 9, "velocity": 74}, {"time": 1915, "pitch": 46, "duration": 3, "velocity": 65}, {"time": 1915, "pitch": 65, "duration": 11, "velocity": 75}, {"time": 1924, "pitch": 39, "duration": 37, "velocity": 77}, {"time": 1924, "pitch": 58, "duration": 17, "velocity": 44}, {"time": 1924, "pitch": 67, "duration": 6, "velocity": 81}, {"time": 1930, "pitch": 46, "duration": 32, "velocity": 65}, {"time": 1936, "pitch": 51, "duration": 13, "velocity": 77}, {"time": 1942, "pitch": 56, "duration": 6, "velocity": 75}, {"time": 1948, "pitch": 55, "duration": 6, "velocity": 78}, {"time": 1957, "pitch": 51, "duration": 7, "velocity": 77}, {"time": 1960, "pitch": 58, "duration": 6, "velocity": 87}, {"time": 1966, "pitch": 63, "duration": 6, "velocity": 84}, {"time": 1972, "pitch": 44, "duration": 39, "velocity": 78}, {"time": 1975, "pitch": 63, "duration": 10, "velocity": 63}, {"time": 1978, "pitch": 51, "duration": 30, "velocity": 56}, {"time": 1984, "pitch": 56, "duration": 24, "velocity": 78}, {"time": 1990, "pitch": 60, "duration": 23, "velocity": 78}, {"time": 1996, "pitch": 67, "duration": 14, "velocity": 81}, {"time": 2020, "pitch": 41, "duration": 42, "velocity": 79}, {"time": 2020, "pitch": 65, "duration": 13, "velocity": 84}, {"time": 2026, "pitch": 48, "duration": 36, "velocity": 71}, {"time": 2032, "pitch": 53, "duration": 30, "velocity": 73}, {"time": 2038, "pitch": 56, "duration": 24, "velocity": 75}, {"time": 2044, "pitch": 65, "duration": 20, "velocity": 79}, {"time": 2068, "pitch": 46, "duration": 42, "velocity": 81}, {"time": 2074, "pitch": 53, "duration": 35, "velocity": 65}, {"time": 2080, "pitch": 58, "duration": 28, "velocity": 80}, {"time": 2086, "pitch": 60, "duration": 9, "velocity": 71}, {"time": 2092, "pitch": 62, "duration": 23, "velocity": 73}, {"time": 2116, "pitch": 51, "duration": 41, "velocity": 80}, {"time": 2122, "pitch": 58, "duration": 35, "velocity": 66}, {"time": 2128, "pitch": 63, "duration": 27, "velocity": 81}, {"time": 2134, "pitch": 65, "duration": 2, "velocity": 79}, {"time": 2140, "pitch": 67, "duration": 24, "velocity": 83}, {"time": 2140, "pitch": 70, "duration": 24, "velocity": 73}, {"time": 2164, "pitch": 51, "duration": 41, "velocity": 86}, {"time": 2170, "pitch": 58, "duration": 33, "velocity": 79}, {"time": 2176, "pitch": 63, "duration": 26, "velocity": 84}, {"time": 2188, "pitch": 67, "duration": 23, "velocity": 93}, {"time": 2188, "pitch": 70, "duration": 23, "velocity": 88}, {"time": 2212, "pitch": 48, "duration": 39, "velocity": 86}, {"time": 2212, "pitch": 63, "duration": 15, "velocity": 85}, {"time": 2212, "pitch": 72, "duration": 4, "velocity": 88}, {"time": 2218, "pitch": 55, "duration": 32, "velocity": 56}, {"time": 2224, "pitch": 60, "duration": 14, "velocity": 83}, {"time": 2236, "pitch": 63, "duration": 23, "velocity": 87}, {"time": 2236, "pitch": 67, "duration": 15, "velocity": 90}, {"time": 2236, "pitch": 72, "duration": 13, "velocity": 86}, {"time": 2248, "pitch": 60, "duration": 1, "velocity": 83}, {"time": 2260, "pitch": 39, "duration": 12, "velocity": 84}, {"time": 2260, "pitch": 58, "duration": 12, "velocity": 88}, {"time": 2260, "pitch": 63, "duration": 12, "velocity": 86}, {"time": 2260, "pitch": 67, "duration": 12, "velocity": 88}, {"time": 2266, "pitch": 46, "duration": 7, "velocity": 70}, {"time": 2272, "pitch": 51, "duration": 2, "velocity": 78}, {"time": 2278, "pitch": 55, "duration": 21, "velocity": 82}, {"time": 2284, "pitch": 58, "duration": 19, "velocity": 87}, {"time": 2284, "pitch": 63, "duration": 20, "velocity": 90}, {"time": 2284, "pitch": 67, "duration": 18, "velocity": 86}, {"time": 2308, "pitch": 51, "duration": 41, "velocity": 92}, {"time": 2314, "pitch": 58, "duration": 33, "velocity": 82}, {"time": 2320, "pitch": 63, "duration": 16, "velocity": 86}, {"time": 2326, "pitch": 70, "duration": 28, "velocity": 91}, {"time": 2332, "pitch": 67, "duration": 22, "velocity": 88}, {"time": 2338, "pitch": 63, "duration": 7, "velocity": 76}, {"time": 2356, "pitch": 51, "duration": 19, "velocity": 88}, {"time": 2362, "pitch": 58, "duration": 18, "velocity": 71}, {"time": 2368, "pitch": 63, "duration": 7, "velocity": 81}, {"time": 2374, "pitch": 65, "duration": 10, "velocity": 81}, {"time": 2380, "pitch": 50, "duration": 17, "velocity": 83}, {"time": 2386, "pitch": 58, "duration": 10, "velocity": 77}, {"time": 2392, "pitch": 62, "duration": 6, "velocity": 85}, {"time": 2398, "pitch": 65, "duration": 6, "velocity": 84}, {"time": 2404, "pitch": 48, "duration": 40, "velocity": 80}, {"time": 2404, "pitch": 63, "duration": 61, "velocity": 78}, {"time": 2410, "pitch": 55, "duration": 33, "velocity": 65}, {"time": 2416, "pitch": 60, "duration": 17, "velocity": 81}, {"time": 2422, "pitch": 72, "duration": 21, "velocity": 86}, {"time": 2428, "pitch": 67, "duration": 16, "velocity": 77}, {"time": 2440, "pitch": 60, "duration": 2, "velocity": 83}, {"time": 2452, "pitch": 39, "duration": 14, "velocity": 86}, {"time": 2452, "pitch": 58, "duration": 12, "velocity": 83}, {"time": 2452, "pitch": 67, "duration": 13, "velocity": 83}, {"time": 2458, "pitch": 46, "duration": 10, "velocity": 73}, {"time": 2464, "pitch": 51, "duration": 4, "velocity": 85}, {"time": 2476, "pitch": 44, "duration": 7, "velocity": 80}, {"time": 2476, "pitch": 60, "duration": 7, "velocity": 82}, {"time": 2476, "pitch": 63, "duration": 7, "velocity": 87}, {"time": 2476, "pitch": 68, "duration": 6, "velocity": 81}, {"time": 2488, "pitch": 46, "duration": 4, "velocity": 83}, {"time": 2488, "pitch": 58, "duration": 7, "velocity": 79}, {"time": 2488, "pitch": 62, "duration": 11, "velocity": 80}, {"time": 2488, "pitch": 65, "duration": 11, "velocity": 86}, {"time": 2500, "pitch": 39, "duration": 39, "velocity": 84}, {"time": 2500, "pitch": 58, "duration": 38, "velocity": 83}, {"time": 2500, "pitch": 67, "duration": 4, "velocity": 86}, {"time": 2506, "pitch": 46, "duration": 34, "velocity": 66}, {"time": 2512, "pitch": 51, "duration": 13, "velocity": 82}, {"time": 2518, "pitch": 55, "duration": 18, "velocity": 72}, {"time": 2524, "pitch": 63, "duration": 12, "velocity": 88}, {"time": 2536, "pitch": 51, "duration": 6, "velocity": 83}, {"time": 2548, "pitch": 44, "duration": 46, "velocity": 87}, {"time": 2554, "pitch": 51, "duration": 31, "velocity": 73}, {"time": 2560, "pitch": 56, "duration": 14, "velocity": 81}, {"time": 2566, "pitch": 60, "duration": 12, "velocity": 83}, {"time": 2572, "pitch": 68, "duration": 15, "velocity": 86}, {"time": 2596, "pitch": 41, "duration": 40, "velocity": 82}, {"time": 2596, "pitch": 65, "duration": 17, "velocity": 88}, {"time": 2602, "pitch": 48, "duration": 35, "velocity": 76}, {"time": 2608, "pitch": 53, "duration": 31, "velocity": 80}, {"time": 2614, "pitch": 56, "duration": 23, "velocity": 78}, {"time": 2620, "pitch": 65, "duration": 35, "velocity": 87}, {"time": 2644, "pitch": 46, "duration": 39, "velocity": 84}, {"time": 2650, "pitch": 53, "duration": 31, "velocity": 72}, {"time": 2656, "pitch": 58, "duration": 16, "velocity": 84}, {"time": 2662, "pitch": 62, "duration": 23, "velocity": 87}, {"time": 2668, "pitch": 70, "duration": 15, "velocity": 84}, {"time": 2692, "pitch": 39, "duration": 37, "velocity": 80}, {"time": 2692, "pitch": 58, "duration": 18, "velocity": 80}, {"time": 2692, "pitch": 67, "duration": 5, "velocity": 86}, {"time": 2698, "pitch": 46, "duration": 31, "velocity": 65}, {"time": 2704, "pitch": 51, "duration": 25, "velocity": 77}, {"time": 2710, "pitch": 55, "duration": 19, "velocity": 75}, {"time": 2716, "pitch": 63, "duration": 13, "velocity": 69}, {"time": 2740, "pitch": 51, "duration": 41, "velocity": 86}, {"time": 2746, "pitch": 58, "duration": 33, "velocity": 79}, {"time": 2752, "pitch": 63, "duration": 26, "velocity": 84}, {"time": 2764, "pitch": 67, "duration": 23, "velocity": 93}, {"time": 2764, "pitch": 70, "duration": 23, "velocity": 88}, {"time": 2788, "pitch": 48, "duration": 39, "velocity": 86}, {"time": 2788, "pitch": 63, "duration": 15, "velocity": 85}, {"time": 2788, "pitch": 72, "duration": 4, "velocity": 88}, {"time": 2794, "pitch": 55, "duration": 32, "velocity": 56}, {"time": 2800, "pitch": 60, "duration": 14, "velocity": 83}, {"time": 2812, "pitch": 63, "duration": 23, "velocity": 87}, {"time": 2812, "pitch": 67, "duration": 15, "velocity": 90}, {"time": 2812, "pitch": 72, "duration": 13, "velocity": 86}, {"time": 2824, "pitch": 60, "duration": 1, "velocity": 83}, {"time": 2836, "pitch": 39, "duration": 12, "velocity": 84}, {"time": 2836, "pitch": 58, "duration": 12, "velocity": 88}, {"time": 2836, "pitch": 63, "duration": 12, "velocity": 86}, {"time": 2836, "pitch": 67, "duration": 12, "velocity": 88}, {"time": 2842, "pitch": 46, "duration": 7, "velocity": 70}, {"time": 2848, "pitch": 51, "duration": 2, "velocity": 78}, {"time": 2854, "pitch": 55, "duration": 21, "velocity": 82}, {"time": 2860, "pitch": 58, "duration": 19, "velocity": 87}, {"time": 2860, "pitch": 63, "duration": 20, "velocity": 90}, {"time": 2860, "pitch": 67, "duration": 18, "velocity": 86}, {"time": 2884, "pitch": 51, "duration": 41, "velocity": 92}, {"time": 2890, "pitch": 58, "duration": 33, "velocity": 82}, {"time": 2896, "pitch": 63, "duration": 16, "velocity": 86}, {"time": 2902, "pitch": 70, "duration": 28, "velocity": 91}, {"time": 2908, "pitch": 67, "duration": 22, "velocity": 88}, {"time": 2914, "pitch": 63, "duration": 7, "velocity": 76}, {"time": 2932, "pitch": 51, "duration": 19, "velocity": 88}, {"time": 2938, "pitch": 58, "duration": 18, "velocity": 71}, {"time": 2944, "pitch": 63, "duration": 7, "velocity": 81}, {"time": 2950, "pitch": 65, "duration": 10, "velocity": 81}, {"time": 2956, "pitch": 50, "duration": 17, "velocity": 83}, {"time": 2962, "pitch": 58, "duration": 10, "velocity": 77}, {"time": 2968, "pitch": 62, "duration": 6, "velocity": 85}, {"time": 2974, "pitch": 65, "duration": 6, "velocity": 84}, {"time": 2980, "pitch": 48, "duration": 40, "velocity": 80}, {"time": 2980, "pitch": 63, "duration": 61, "velocity": 78}, {"time": 2986, "pitch": 55, "duration": 33, "velocity": 65}, {"time": 2992, "pitch": 60, "duration": 17, "velocity": 81}, {"time": 2998, "pitch": 72, "duration": 21, "velocity": 86}, {"time": 3004, "pitch": 67, "duration": 16, "velocity": 77}, {"time": 3016, "pitch": 60, "duration": 2, "velocity": 83}, {"time": 3028, "pitch": 39, "duration": 14, "velocity": 86}, {"time": 3028, "pitch": 58, "duration": 12, "velocity": 83}, {"time": 3028, "pitch": 67, "duration": 13, "velocity": 83}, {"time": 3034, "pitch": 46, "duration": 10, "velocity": 73}, {"time": 3040, "pitch": 51, "duration": 4, "velocity": 85}, {"time": 3052, "pitch": 44, "duration": 7, "velocity": 80}, {"time": 3052, "pitch": 60, "duration": 7, "velocity": 82}, {"time": 3052, "pitch": 63, "duration": 7, "velocity": 87}, {"time": 3052, "pitch": 68, "duration": 6, "velocity": 81}, {"time": 3064, "pitch": 46, "duration": 4, "velocity": 83}, {"time": 3064, "pitch": 58, "duration": 7, "velocity": 79}, {"time": 3064, "pitch": 62, "duration": 11, "velocity": 80}, {"time": 3064, "pitch": 65, "duration": 11, "velocity": 86}, {"time": 3076, "pitch": 39, "duration": 39, "velocity": 84}, {"time": 3076, "pitch": 58, "duration": 38, "velocity": 83}, {"time": 3076, "pitch": 67, "duration": 4, "velocity": 86}, {"time": 3082, "pitch": 46, "duration": 34, "velocity": 66}, {"time": 3088, "pitch": 51, "duration": 13, "velocity": 82}, {"time": 3094, "pitch": 55, "duration": 18, "velocity": 72}, {"time": 3100, "pitch": 63, "duration": 12, "velocity": 88}, {"time": 3112, "pitch": 51, "duration": 6, "velocity": 83}, {"time": 3124, "pitch": 44, "duration": 46, "velocity": 87}, {"time": 3130, "pitch": 51, "duration": 31, "velocity": 73}, {"time": 3136, "pitch": 56, "duration": 14, "velocity": 81}, {"time": 3142, "pitch": 60, "duration": 12, "velocity": 83}, {"time": 3148, "pitch": 68, "duration": 15, "velocity": 86}, {"time": 3172, "pitch": 41, "duration": 40, "velocity": 82}, {"time": 3172, "pitch": 65, "duration": 17, "velocity": 88}, {"time": 3178, "pitch": 48, "duration": 35, "velocity": 76}, {"time": 3184, "pitch": 53, "duration": 31, "velocity": 80}, {"time": 3190, "pitch": 56, "duration": 23, "velocity": 78}, {"time": 3196, "pitch": 65, "duration": 35, "velocity": 87}, {"time": 3220, "pitch": 46, "duration": 39, "velocity": 84}, {"time": 3226, "pitch": 53, "duration": 31, "velocity": 72}, {"time": 3232, "pitch": 58, "duration": 16, "velocity": 84}, {"time": 3238, "pitch": 62, "duration": 23, "velocity": 87}, {"time": 3244, "pitch": 70, "duration": 15, "velocity": 84}, {"time": 3268, "pitch": 39, "duration": 37, "velocity": 80}, {"time": 3268, "pitch": 58, "duration": 18, "velocity": 80}, {"time": 3268, "pitch": 67, "duration": 5, "velocity": 86}, {"time": 3274, "pitch": 46, "duration": 31, "velocity": 65}, {"time": 3280, "pitch": 51, "duration": 25, "velocity": 77}, {"time": 3286, "pitch": 55, "duration": 19, "velocity": 75}, {"time": 3292, "pitch": 63, "duration": 13, "velocity": 69}, {"time": 3319, "pitch": 46, "duration": 42, "velocity": 79}, {"time": 3319, "pitch": 58, "duration": 42, "velocity": 72}, {"time": 3319, "pitch": 62, "duration": 42, "velocity": 80}, {"time": 3319, "pitch": 65, "duration": 40, "velocity": 77}, {"time": 3364, "pitch": 58, "duration": 92, "velocity": 67}, {"time": 3364, "pitch": 63, "duration": 46, "velocity": 75}, {"time": 3364, "pitch": 67, "duration": 45, "velocity": 76}, {"time": 3367, "pitch": 51, "duration": 46, "velocity": 78}, {"time": 3415, "pitch": 46, "duration": 44, "velocity": 77}, {"time": 3415, "pitch": 62, "duration": 43, "velocity": 73}, {"time": 3415, "pitch": 65, "duration": 43, "velocity": 67}, {"time": 3463, "pitch": 51, "duration": 91, "velocity": 76}, {"time": 3463, "pitch": 58, "duration": 40, "velocity": 74}, {"time": 3463, "pitch": 63, "duration": 40, "velocity": 82}, {"time": 3463, "pitch": 67, "duration": 40, "velocity": 81}, {"time": 3465, "pitch": 39, "duration": 91, "velocity": 75}, {"time": 3510, "pitch": 58, "duration": 45, "velocity": 70}, {"time": 3510, "pitch": 63, "duration": 44, "velocity": 71}, {"time": 3510, "pitch": 67, "duration": 44, "velocity": 71}, {"time": 3558, "pitch": 39, "duration": 37, "velocity": 75}, {"time": 3558, "pitch": 51, "duration": 37, "velocity": 73}, {"time": 3558, "pitch": 58, "duration": 41, "velocity": 68}, {"time": 3558, "pitch": 63, "duration": 44, "velocity": 71}, {"time": 3558, "pitch": 67, "duration": 42, "velocity": 75}, {"time": 3606, "pitch": 44, "duration": 39, "velocity": 77}, {"time": 3606, "pitch": 56, "duration": 38, "velocity": 77}, {"time": 3606, "pitch": 60, "duration": 41, "velocity": 74}, {"time": 3606, "pitch": 63, "duration": 41, "velocity": 76}, {"time": 3606, "pitch": 68, "duration": 40, "velocity": 79}, {"time": 3653, "pitch": 63, "duration": 15, "velocity": 79}, {"time": 3653, "pitch": 58, "duration": 15, "velocity": 73}, {"time": 3653, "pitch": 39, "duration": 15, "velocity": 75}, {"time": 3653, "pitch": 67, "duration": 15, "velocity": 80}, {"time": 3653, "pitch": 51, "duration": 15, "velocity": 73}], "annotations": [{"time": 436, "annotation": {"number": 64, "value": 127}, "group": "control_change"}, {"time": 458, "annotation": {"number": 64, "value": 74}, "group": "control_change"}, {"time": 459, "annotation": {"number": 64, "value": 127}, "group": "control_change"}, {"time": 483, "annotation": {"number": 64, "value": 38}, "group": "control_change"}, {"time": 483, "annotation": {"number": 64, "value": 127}, "group": "control_change"}, {"time": 483, "annotation": {"number": 64, "value": 0}, "group": "control_change"}, {"time": 485, "annotation": {"number": 64, "value": 127}, "group": "control_change"}, {"time": 532, "annotation": {"number": 64, "value": 0}, "group": "control_change"}, {"time": 533, "annotation": {"number": 64, "value": 127}, "group": "control_change"}, {"time": 675, "annotation": {"number": 64, "value": 74}, "group": "control_change"}, {"time": 675, "annotation": {"number": 64, "value": 0}, "group": "control_change"}, {"time": 677, "annotation": {"number": 64, "value": 74}, "group": "control_change"}, {"time": 677, "annotation": {"number": 64, "value": 127}, "group": "control_change"}, {"time": 722, "annotation": {"number": 64, "value": 74}, "group": "control_change"}, {"time": 722, "annotation": {"number": 64, "value": 0}, "group": "control_change"}, {"time": 724, "annotation": {"number": 64, "value": 127}, "group": "control_change"}, {"time": 771, "annotation": {"number": 64, "value": 0}, "group": "control_change"}, {"time": 772, "annotation": {"number": 64, "value": 127}, "group": "control_change"}, {"time": 773, "annotation": {"number": 64, "value": 38}, "group": "control_change"}, {"time": 773, "annotation": {"number": 64, "value": 127}, "group": "control_change"}, {"time": 790, "annotation": {"number": 64, "value": 0}, "group": "control_change"}, {"time": 817, "annotation": {"number": 64, "value": 74}, "group": "control_change"}, {"time": 817, "annotation": {"number": 64, "value": 0}, "group": "control_change"}, {"time": 820, "annotation": {"number": 64, "value": 127}, "group": "control_change"}, {"time": 866, "annotation": {"number": 64, "value": 74}, "group": "control_change"}, {"time": 866, "annotation": {"number": 64, "value": 38}, "group": "control_change"}, {"time": 866, "annotation": {"number": 64, "value": 0}, "group": "control_change"}, {"time": 868, "annotation": {"number": 64, "value": 74}, "group": "control_change"}, {"time": 868, "annotation": {"number": 64, "value": 127}, "group": "control_change"}, {"time": 915, "annotation": {"number": 64, "value": 38}, "group": "control_change"}, {"time": 915, "annotation": {"number": 64, "value": 0}, "group": "control_change"}, {"time": 917, "annotation": {"number": 64, "value": 127}, "group": "control_change"}, {"time": 962, "annotation": {"number": 64, "value": 38}, "group": "control_change"}, {"time": 962, "annotation": {"number": 64, "value": 0}, "group": "control_change"}, {"time": 964, "annotation": {"number": 64, "value": 74}, "group": "control_change"}, {"time": 964, "annotation": {"number": 64, "value": 127}, "group": "control_change"}, {"time": 965, "annotation": {"number": 64, "value": 127}, "group": "control_change"}, {"time": 1010, "annotation": {"number": 64, "value": 38}, "group": "control_change"}, {"time": 1010, "annotation": {"number": 64, "value": 0}, "group": "control_change"}, {"time": 1012, "annotation": {"number": 64, "value": 127}, "group": "control_change"}, {"time": 1058, "annotation": {"number": 64, "value": 0}, "group": "control_change"}, {"time": 1060, "annotation": {"number": 64, "value": 127}, "group": "control_change"}, {"time": 1107, "annotation": {"number": 64, "value": 38}, "group": "control_change"}, {"time": 1107, "annotation": {"number": 64, "value": 0}, "group": "control_change"}, {"time": 1108, "annotation": {"number": 64, "value": 127}, "group": "control_change"}, {"time": 1130, "annotation": {"number": 64, "value": 74}, "group": "control_change"}, {"time": 1130, "annotation": {"number": 64, "value": 0}, "group": "control_change"}, {"time": 1133, "annotation": {"number": 64, "value": 127}, "group": "control_change"}, {"time": 1143, "annotation": {"number": 64, "value": 0}, "group": "control_change"}, {"time": 1145, "annotation": {"number": 64, "value": 127}, "group": "control_change"}, {"time": 1155, "annotation": {"number": 64, "value": 38}, "group": "control_change"}, {"time": 1155, "annotation": {"number": 64, "value": 0}, "group": "control_change"}, {"time": 1157, "annotation": {"number": 64, "value": 74}, "group": "control_change"}, {"time": 1157, "annotation": {"number": 64, "value": 127}, "group": "control_change"}, {"time": 1202, "annotation": {"number": 64, "value": 38}, "group": "control_change"}, {"time": 1202, "annotation": {"number": 64, "value": 0}, "group": "control_change"}, {"time": 1204, "annotation": {"number": 64, "value": 127}, "group": "control_change"}, {"time": 1251, "annotation": {"number": 64, "value": 0}, "group": "control_change"}, {"time": 1253, "annotation": {"number": 64, "value": 127}, "group": "control_change"}, {"time": 1299, "annotation": {"number": 64, "value": 74}, "group": "control_change"}, {"time": 1299, "annotation": {"number": 64, "value": 0}, "group": "control_change"}, {"time": 1301, "annotation": {"number": 64, "value": 127}, "group": "control_change"}, {"time": 1347, "annotation": {"number": 64, "value": 38}, "group": "control_change"}, {"time": 1347, "annotation": {"number": 64, "value": 0}, "group": "control_change"}, {"time": 1348, "annotation": {"number": 64, "value": 127}, "group": "control_change"}, {"time": 1396, "annotation": {"number": 64, "value": 127}, "group": "control_change"}, {"time": 1442, "annotation": {"number": 64, "value": 74}, "group": "control_change"}, {"time": 1442, "annotation": {"number": 64, "value": 0}, "group": "control_change"}, {"time": 1445, "annotation": {"number": 64, "value": 127}, "group": "control_change"}, {"time": 1489, "annotation": {"number": 64, "value": 74}, "group": "control_change"}, {"time": 1489, "annotation": {"number": 64, "value": 38}, "group": "control_change"}, {"time": 1489, "annotation": {"number": 64, "value": 0}, "group": "control_change"}, {"time": 1492, "annotation": {"number": 64, "value": 127}, "group": "control_change"}, {"time": 1538, "annotation": {"number": 64, "value": 74}, "group": "control_change"}, {"time": 1538, "annotation": {"number": 64, "value": 38}, "group": "control_change"}, {"time": 1538, "annotation": {"number": 64, "value": 0}, "group": "control_change"}, {"time": 1540, "annotation": {"number": 64, "value": 127}, "group": "control_change"}, {"time": 1586, "annotation": {"number": 64, "value": 74}, "group": "control_change"}, {"time": 1586, "annotation": {"number": 64, "value": 127}, "group": "control_change"}, {"time": 1586, "annotation": {"number": 64, "value": 38}, "group": "control_change"}, {"time": 1586, "annotation": {"number": 64, "value": 0}, "group": "control_change"}, {"time": 1588, "annotation": {"number": 64, "value": 127}, "group": "control_change"}, {"time": 1589, "annotation": {"number": 64, "value": 127}, "group": "control_change"}, {"time": 1604, "annotation": {"number": 64, "value": 74}, "group": "control_change"}, {"time": 1604, "annotation": {"number": 64, "value": 0}, "group": "control_change"}, {"time": 1635, "annotation": {"number": 64, "value": 38}, "group": "control_change"}, {"time": 1635, "annotation": {"number": 64, "value": 0}, "group": "control_change"}, {"time": 1637, "annotation": {"number": 64, "value": 127}, "group": "control_change"}, {"time": 1659, "annotation": {"number": 64, "value": 38}, "group": "control_change"}, {"time": 1659, "annotation": {"number": 64, "value": 0}, "group": "control_change"}, {"time": 1661, "annotation": {"number": 64, "value": 74}, "group": "control_change"}, {"time": 1661, "annotation": {"number": 64, "value": 127}, "group": "control_change"}, {"time": 1683, "annotation": {"number": 64, "value": 74}, "group": "control_change"}, {"time": 1683, "annotation": {"number": 64, "value": 0}, "group": "control_change"}, {"time": 1685, "annotation": {"number": 64, "value": 127}, "group": "control_change"}, {"time": 1706, "annotation": {"number": 64, "value": 0}, "group": "control_change"}, {"time": 1709, "annotation": {"number": 64, "value": 127}, "group": "control_change"}, {"time": 1719, "annotation": {"number": 64, "value": 38}, "group": "control_change"}, {"time": 1719, "annotation": {"number": 64, "value": 0}, "group": "control_change"}, {"time": 1721, "annotation": {"number": 64, "value": 127}, "group": "control_change"}, {"time": 1731, "annotation": {"number": 64, "value": 74}, "group": "control_change"}, {"time": 1731, "annotation": {"number": 64, "value": 0}, "group": "control_change"}, {"time": 1733, "annotation": {"number": 64, "value": 127}, "group": "control_change"}, {"time": 1780, "annotation": {"number": 64, "value": 127}, "group": "control_change"}, {"time": 1802, "annotation": {"number": 64, "value": 74}, "group": "control_change"}, {"time": 1803, "annotation": {"number": 64, "value": 127}, "group": "control_change"}, {"time": 1827, "annotation": {"number": 64, "value": 38}, "group": "control_change"}, {"time": 1827, "annotation": {"number": 64, "value": 127}, "group": "control_change"}, {"time": 1827, "annotation": {"number": 64, "value": 0}, "group": "control_change"}, {"time": 1829, "annotation": {"number": 64, "value": 127}, "group": "control_change"}, {"time": 1876, "annotation": {"number": 64, "value": 0}, "group": "control_change"}, {"time": 1877, "annotation": {"number": 64, "value": 127}, "group": "control_change"}, {"time": 2019, "annotation": {"number": 64, "value": 74}, "group": "control_change"}, {"time": 2019, "annotation": {"number": 64, "value": 0}, "group": "control_change"}, {"time": 2021, "annotation": {"number": 64, "value": 74}, "group": "control_change"}, {"time": 2021, "annotation": {"number": 64, "value": 127}, "group": "control_change"}, {"time": 2066, "annotation": {"number": 64, "value": 74}, "group": "control_change"}, {"time": 2066, "annotation": {"number": 64, "value": 0}, "group": "control_change"}, {"time": 2068, "annotation": {"number": 64, "value": 127}, "group": "control_change"}, {"time": 2115, "annotation": {"number": 64, "value": 0}, "group": "control_change"}, {"time": 2116, "annotation": {"number": 64, "value": 127}, "group": "control_change"}, {"time": 2117, "annotation": {"number": 64, "value": 38}, "group": "control_change"}, {"time": 2117, "annotation": {"number": 64, "value": 127}, "group": "control_change"}, {"time": 2134, "annotation": {"number": 64, "value": 0}, "group": "control_change"}, {"time": 2161, "annotation": {"number": 64, "value": 74}, "group": "control_change"}, {"time": 2161, "annotation": {"number": 64, "value": 0}, "group": "control_change"}, {"time": 2164, "annotation": {"number": 64, "value": 127}, "group": "control_change"}, {"time": 2210, "annotation": {"number": 64, "value": 74}, "group": "control_change"}, {"time": 2210, "annotation": {"number": 64, "value": 38}, "group": "control_change"}, {"time": 2210, "annotation": {"number": 64, "value": 0}, "group": "control_change"}, {"time": 2212, "annotation": {"number": 64, "value": 74}, "group": "control_change"}, {"time": 2212, "annotation": {"number": 64, "value": 127}, "group": "control_change"}, {"time": 2259, "annotation": {"number": 64, "value": 38}, "group": "control_change"}, {"time": 2259, "annotation": {"number": 64, "value": 0}, "group": "control_change"}, {"time": 2261, "annotation": {"number": 64, "value": 127}, "group": "control_change"}, {"time": 2306, "annotation": {"number": 64, "value": 38}, "group": "control_change"}, {"time": 2306, "annotation": {"number": 64, "value": 0}, "group": "control_change"}, {"time": 2308, "annotation": {"number": 64, "value": 74}, "group": "control_change"}, {"time": 2308, "annotation": {"number": 64, "value": 127}, "group": "control_change"}, {"time": 2309, "annotation": {"number": 64, "value": 127}, "group": "control_change"}, {"time": 2354, "annotation": {"number": 64, "value": 38}, "group": "control_change"}, {"time": 2354, "annotation": {"number": 64, "value": 0}, "group": "control_change"}, {"time": 2356, "annotation": {"number": 64, "value": 127}, "group": "control_change"}, {"time": 2402, "annotation": {"number": 64, "value": 0}, "group": "control_change"}, {"time": 2404, "annotation": {"number": 64, "value": 127}, "group": "control_change"}, {"time": 2451, "annotation": {"number": 64, "value": 38}, "group": "control_change"}, {"time": 2451, "annotation": {"number": 64, "value": 0}, "group": "control_change"}, {"time": 2452, "annotation": {"number": 64, "value": 127}, "group": "control_change"}, {"time": 2474, "annotation": {"number": 64, "value": 74}, "group": "control_change"}, {"time": 2474, "annotation": {"number": 64, "value": 0}, "group": "control_change"}, {"time": 2477, "annotation": {"number": 64, "value": 127}, "group": "control_change"}, {"time": 2487, "annotation": {"number": 64, "value": 0}, "group": "control_change"}, {"time": 2489, "annotation": {"number": 64, "value": 127}, "group": "control_change"}, {"time": 2499, "annotation": {"number": 64, "value": 38}, "group": "control_change"}, {"time": 2499, "annotation": {"number": 64, "value": 0}, "group": "control_change"}, {"time": 2501, "annotation": {"number": 64, "value": 74}, "group": "control_change"}, {"time": 2501, "annotation": {"number": 64, "value": 127}, "group": "control_change"}, {"time": 2546, "annotation": {"number": 64, "value": 38}, "group": "control_change"}, {"time": 2546, "annotation": {"number": 64, "value": 0}, "group": "control_change"}, {"time": 2548, "annotation": {"number": 64, "value": 127}, "group": "control_change"}, {"time": 2595, "annotation": {"number": 64, "value": 0}, "group": "control_change"}, {"time": 2597, "annotation": {"number": 64, "value": 127}, "group": "control_change"}, {"time": 2643, "annotation": {"number": 64, "value": 74}, "group": "control_change"}, {"time": 2643, "annotation": {"number": 64, "value": 0}, "group": "control_change"}, {"time": 2645, "annotation": {"number": 64, "value": 127}, "group": "control_change"}, {"time": 2691, "annotation": {"number": 64, "value": 38}, "group": "control_change"}, {"time": 2691, "annotation": {"number": 64, "value": 0}, "group": "control_change"}, {"time": 2692, "annotation": {"number": 64, "value": 127}, "group": "control_change"}, {"time": 2740, "annotation": {"number": 64, "value": 127}, "group": "control_change"}, {"time": 2786, "annotation": {"number": 64, "value": 74}, "group": "control_change"}, {"time": 2786, "annotation": {"number": 64, "value": 38}, "group": "control_change"}, {"time": 2786, "annotation": {"number": 64, "value": 0}, "group": "control_change"}, {"time": 2788, "annotation": {"number": 64, "value": 74}, "group": "control_change"}, {"time": 2788, "annotation": {"number": 64, "value": 127}, "group": "control_change"}, {"time": 2835, "annotation": {"number": 64, "value": 38}, "group": "control_change"}, {"time": 2835, "annotation": {"number": 64, "value": 0}, "group": "control_change"}, {"time": 2837, "annotation": {"number": 64, "value": 127}, "group": "control_change"}, {"time": 2882, "annotation": {"number": 64, "value": 38}, "group": "control_change"}, {"time": 2882, "annotation": {"number": 64, "value": 0}, "group": "control_change"}, {"time": 2884, "annotation": {"number": 64, "value": 74}, "group": "control_change"}, {"time": 2884, "annotation": {"number": 64, "value": 127}, "group": "control_change"}, {"time": 2885, "annotation": {"number": 64, "value": 127}, "group": "control_change"}, {"time": 2930, "annotation": {"number": 64, "value": 38}, "group": "control_change"}, {"time": 2930, "annotation": {"number": 64, "value": 0}, "group": "control_change"}, {"time": 2932, "annotation": {"number": 64, "value": 127}, "group": "control_change"}, {"time": 2978, "annotation": {"number": 64, "value": 0}, "group": "control_change"}, {"time": 2980, "annotation": {"number": 64, "value": 127}, "group": "control_change"}, {"time": 3027, "annotation": {"number": 64, "value": 38}, "group": "control_change"}, {"time": 3027, "annotation": {"number": 64, "value": 0}, "group": "control_change"}, {"time": 3028, "annotation": {"number": 64, "value": 127}, "group": "control_change"}, {"time": 3050, "annotation": {"number": 64, "value": 74}, "group": "control_change"}, {"time": 3050, "annotation": {"number": 64, "value": 0}, "group": "control_change"}, {"time": 3053, "annotation": {"number": 64, "value": 127}, "group": "control_change"}, {"time": 3063, "annotation": {"number": 64, "value": 0}, "group": "control_change"}, {"time": 3065, "annotation": {"number": 64, "value": 127}, "group": "control_change"}, {"time": 3075, "annotation": {"number": 64, "value": 38}, "group": "control_change"}, {"time": 3075, "annotation": {"number": 64, "value": 0}, "group": "control_change"}, {"time": 3077, "annotation": {"number": 64, "value": 74}, "group": "control_change"}, {"time": 3077, "annotation": {"number": 64, "value": 127}, "group": "control_change"}, {"time": 3122, "annotation": {"number": 64, "value": 38}, "group": "control_change"}, {"time": 3122, "annotation": {"number": 64, "value": 0}, "group": "control_change"}, {"time": 3124, "annotation": {"number": 64, "value": 127}, "group": "control_change"}, {"time": 3171, "annotation": {"number": 64, "value": 0}, "group": "control_change"}, {"time": 3173, "annotation": {"number": 64, "value": 127}, "group": "control_change"}, {"time": 3219, "annotation": {"number": 64, "value": 74}, "group": "control_change"}, {"time": 3219, "annotation": {"number": 64, "value": 0}, "group": "control_change"}, {"time": 3221, "annotation": {"number": 64, "value": 127}, "group": "control_change"}, {"time": 3267, "annotation": {"number": 64, "value": 38}, "group": "control_change"}, {"time": 3267, "annotation": {"number": 64, "value": 0}, "group": "control_change"}, {"time": 3268, "annotation": {"number": 64, "value": 127}, "group": "control_change"}]}]}