{"metadata": {"schema_version": "0.2", "title": "None", "source_filename": "295.mid", "source_format": "midi"}, "resolution": 12, "tempos": [{"time": 0, "qpm": 70.00007000007}, {"time": 158, "qpm": 70.50006873756702}, {"time": 575, "qpm": 70.00007000007}, {"time": 731, "qpm": 70.50006873756702}, {"time": 827, "qpm": 70.00007000007}, {"time": 875, "qpm": 70.50006873756702}, {"time": 1014, "qpm": 70.00007000007}, {"time": 1184, "qpm": 70.50006873756702}, {"time": 1271, "qpm": 70.00007000007}, {"time": 1378, "qpm": 70.50006873756702}, {"time": 1519, "qpm": 70.00007000007}, {"time": 1621, "qpm": 70.25012557209946}, {"time": 2075, "qpm": 70.00007000007}, {"time": 2279, "qpm": 70.25012557209946}, {"time": 2586, "qpm": 70.00007000007}, {"time": 2754, "qpm": 70.25012557209946}, {"time": 2911, "qpm": 70.50006873756702}, {"time": 3258, "qpm": 70.25012557209946}, {"time": 3449, "qpm": 70.00007000007}, {"time": 3501, "qpm": 70.25012557209946}, {"time": 3608, "qpm": 70.00007000007}, {"time": 4044, "qpm": 68.00014960032912}, {"time": 4045, "qpm": 65.75003808023038}, {"time": 4049, "qpm": 63.50005979588964}, {"time": 4055, "qpm": 62.00005993339127}, {"time": 4061, "qpm": 61.75005840526357}, {"time": 4067, "qpm": 60.0}, {"time": 4072, "qpm": 59.00006686674245}, {"time": 4074, "qpm": 58.00004253336452}], "time_signatures": [{"time": 0, "numerator": 1, "denominator": 4}], "tracks": [{"program": 4, "is_drum": false, "name": "MELODY", "notes": [{"time": 402, "pitch": 74, "duration": 3, "velocity": 84}, {"time": 405, "pitch": 72, "duration": 2, "velocity": 79}, {"time": 408, "pitch": 72, "duration": 5, "velocity": 82}, {"time": 414, "pitch": 74, "duration": 2, "velocity": 81}, {"time": 417, "pitch": 69, "duration": 11, "velocity": 83}, {"time": 432, "pitch": 67, "duration": 6, "velocity": 83}, {"time": 438, "pitch": 65, "duration": 3, "velocity": 82}, {"time": 441, "pitch": 69, "duration": 27, "velocity": 83}, {"time": 498, "pitch": 74, "duration": 1, "velocity": 86}, {"time": 501, "pitch": 74, "duration": 2, "velocity": 85}, {"time": 504, "pitch": 74, "duration": 6, "velocity": 89}, {"time": 510, "pitch": 76, "duration": 3, "velocity": 81}, {"time": 513, "pitch": 74, "duration": 6, "velocity": 93}, {"time": 519, "pitch": 72, "duration": 6, "velocity": 82}, {"time": 528, "pitch": 72, "duration": 6, "velocity": 87}, {"time": 534, "pitch": 74, "duration": 3, "velocity": 83}, {"time": 537, "pitch": 69, "duration": 27, "velocity": 83}, {"time": 585, "pitch": 69, "duration": 2, "velocity": 83}, {"time": 588, "pitch": 67, "duration": 2, "velocity": 75}, {"time": 591, "pitch": 65, "duration": 1, "velocity": 83}, {"time": 594, "pitch": 65, "duration": 2, "velocity": 82}, {"time": 597, "pitch": 62, "duration": 3, "velocity": 67}, {"time": 600, "pitch": 65, "duration": 6, "velocity": 83}, {"time": 606, "pitch": 62, "duration": 2, "velocity": 79}, {"time": 609, "pitch": 65, "duration": 13, "velocity": 82}, {"time": 624, "pitch": 62, "duration": 5, "velocity": 83}, {"time": 630, "pitch": 65, "duration": 6, "velocity": 78}, {"time": 636, "pitch": 69, "duration": 2, "velocity": 86}, {"time": 639, "pitch": 67, "duration": 1, "velocity": 71}, {"time": 642, "pitch": 67, "duration": 2, "velocity": 78}, {"time": 645, "pitch": 65, "duration": 1, "velocity": 80}, {"time": 648, "pitch": 67, "duration": 6, "velocity": 81}, {"time": 654, "pitch": 69, "duration": 3, "velocity": 74}, {"time": 657, "pitch": 67, "duration": 12, "velocity": 82}, {"time": 672, "pitch": 69, "duration": 3, "velocity": 83}, {"time": 675, "pitch": 67, "duration": 3, "velocity": 82}, {"time": 678, "pitch": 65, "duration": 3, "velocity": 83}, {"time": 681, "pitch": 69, "duration": 43, "velocity": 80}, {"time": 738, "pitch": 74, "duration": 3, "velocity": 84}, {"time": 741, "pitch": 72, "duration": 2, "velocity": 79}, {"time": 744, "pitch": 72, "duration": 5, "velocity": 82}, {"time": 750, "pitch": 74, "duration": 2, "velocity": 81}, {"time": 753, "pitch": 69, "duration": 11, "velocity": 83}, {"time": 768, "pitch": 67, "duration": 6, "velocity": 83}, {"time": 774, "pitch": 65, "duration": 3, "velocity": 82}, {"time": 777, "pitch": 69, "duration": 27, "velocity": 83}, {"time": 834, "pitch": 74, "duration": 1, "velocity": 86}, {"time": 837, "pitch": 74, "duration": 2, "velocity": 85}, {"time": 840, "pitch": 74, "duration": 6, "velocity": 89}, {"time": 846, "pitch": 76, "duration": 3, "velocity": 81}, {"time": 849, "pitch": 74, "duration": 6, "velocity": 93}, {"time": 855, "pitch": 72, "duration": 6, "velocity": 82}, {"time": 864, "pitch": 72, "duration": 6, "velocity": 87}, {"time": 870, "pitch": 74, "duration": 3, "velocity": 83}, {"time": 873, "pitch": 69, "duration": 27, "velocity": 83}, {"time": 921, "pitch": 69, "duration": 2, "velocity": 83}, {"time": 924, "pitch": 67, "duration": 2, "velocity": 75}, {"time": 927, "pitch": 65, "duration": 1, "velocity": 83}, {"time": 930, "pitch": 65, "duration": 2, "velocity": 82}, {"time": 933, "pitch": 62, "duration": 3, "velocity": 67}, {"time": 936, "pitch": 65, "duration": 6, "velocity": 83}, {"time": 942, "pitch": 62, "duration": 2, "velocity": 79}, {"time": 945, "pitch": 65, "duration": 13, "velocity": 82}, {"time": 960, "pitch": 62, "duration": 5, "velocity": 83}, {"time": 966, "pitch": 65, "duration": 6, "velocity": 78}, {"time": 972, "pitch": 69, "duration": 2, "velocity": 86}, {"time": 975, "pitch": 67, "duration": 1, "velocity": 71}, {"time": 978, "pitch": 67, "duration": 2, "velocity": 78}, {"time": 981, "pitch": 65, "duration": 1, "velocity": 80}, {"time": 984, "pitch": 67, "duration": 6, "velocity": 81}, {"time": 990, "pitch": 69, "duration": 3, "velocity": 74}, {"time": 993, "pitch": 67, "duration": 12, "velocity": 82}, {"time": 1008, "pitch": 69, "duration": 3, "velocity": 83}, {"time": 1011, "pitch": 72, "duration": 3, "velocity": 82}, {"time": 1014, "pitch": 69, "duration": 3, "velocity": 83}, {"time": 1017, "pitch": 74, "duration": 43, "velocity": 80}, {"time": 1074, "pitch": 74, "duration": 1, "velocity": 91}, {"time": 1077, "pitch": 74, "duration": 1, "velocity": 86}, {"time": 1080, "pitch": 74, "duration": 4, "velocity": 93}, {"time": 1086, "pitch": 74, "duration": 2, "velocity": 87}, {"time": 1089, "pitch": 76, "duration": 8, "velocity": 87}, {"time": 1098, "pitch": 76, "duration": 4, "velocity": 84}, {"time": 1104, "pitch": 74, "duration": 3, "velocity": 89}, {"time": 1107, "pitch": 76, "duration": 6, "velocity": 84}, {"time": 1113, "pitch": 74, "duration": 2, "velocity": 88}, {"time": 1116, "pitch": 72, "duration": 17, "velocity": 83}, {"time": 1134, "pitch": 69, "duration": 3, "velocity": 84}, {"time": 1137, "pitch": 74, "duration": 27, "velocity": 91}, {"time": 1170, "pitch": 74, "duration": 1, "velocity": 88}, {"time": 1173, "pitch": 74, "duration": 1, "velocity": 86}, {"time": 1176, "pitch": 74, "duration": 5, "velocity": 96}, {"time": 1182, "pitch": 77, "duration": 3, "velocity": 78}, {"time": 1185, "pitch": 79, "duration": 7, "velocity": 83}, {"time": 1194, "pitch": 76, "duration": 5, "velocity": 82}, {"time": 1200, "pitch": 74, "duration": 2, "velocity": 79}, {"time": 1203, "pitch": 76, "duration": 5, "velocity": 84}, {"time": 1209, "pitch": 74, "duration": 3, "velocity": 77}, {"time": 1212, "pitch": 72, "duration": 30, "velocity": 84}, {"time": 1257, "pitch": 69, "duration": 3, "velocity": 78}, {"time": 1260, "pitch": 70, "duration": 3, "velocity": 83}, {"time": 1263, "pitch": 69, "duration": 3, "velocity": 82}, {"time": 1266, "pitch": 70, "duration": 3, "velocity": 83}, {"time": 1269, "pitch": 69, "duration": 3, "velocity": 86}, {"time": 1272, "pitch": 70, "duration": 7, "velocity": 85}, {"time": 1278, "pitch": 69, "duration": 3, "velocity": 83}, {"time": 1281, "pitch": 72, "duration": 9, "velocity": 86}, {"time": 1290, "pitch": 70, "duration": 8, "velocity": 86}, {"time": 1302, "pitch": 73, "duration": 3, "velocity": 86}, {"time": 1305, "pitch": 74, "duration": 3, "velocity": 83}, {"time": 1308, "pitch": 76, "duration": 6, "velocity": 78}, {"time": 1314, "pitch": 69, "duration": 7, "velocity": 76}, {"time": 1320, "pitch": 79, "duration": 6, "velocity": 86}, {"time": 1326, "pitch": 76, "duration": 3, "velocity": 82}, {"time": 1329, "pitch": 77, "duration": 9, "velocity": 83}, {"time": 1338, "pitch": 74, "duration": 9, "velocity": 89}, {"time": 1350, "pitch": 74, "duration": 2, "velocity": 87}, {"time": 1353, "pitch": 72, "duration": 3, "velocity": 85}, {"time": 1356, "pitch": 74, "duration": 4, "velocity": 87}, {"time": 1362, "pitch": 74, "duration": 2, "velocity": 86}, {"time": 1365, "pitch": 72, "duration": 2, "velocity": 82}, {"time": 1368, "pitch": 74, "duration": 5, "velocity": 96}, {"time": 1374, "pitch": 72, "duration": 2, "velocity": 85}, {"time": 1377, "pitch": 74, "duration": 7, "velocity": 98}, {"time": 1386, "pitch": 74, "duration": 6, "velocity": 91}, {"time": 1392, "pitch": 76, "duration": 3, "velocity": 84}, {"time": 1395, "pitch": 77, "duration": 9, "velocity": 83}, {"time": 1404, "pitch": 76, "duration": 45, "velocity": 82}, {"time": 1458, "pitch": 77, "duration": 1, "velocity": 89}, {"time": 1461, "pitch": 77, "duration": 1, "velocity": 83}, {"time": 1464, "pitch": 77, "duration": 4, "velocity": 86}, {"time": 1470, "pitch": 77, "duration": 2, "velocity": 83}, {"time": 1473, "pitch": 79, "duration": 7, "velocity": 85}, {"time": 1482, "pitch": 76, "duration": 5, "velocity": 84}, {"time": 1488, "pitch": 74, "duration": 6, "velocity": 86}, {"time": 1494, "pitch": 72, "duration": 3, "velocity": 83}, {"time": 1497, "pitch": 74, "duration": 7, "velocity": 87}, {"time": 1506, "pitch": 74, "duration": 4, "velocity": 86}, {"time": 1512, "pitch": 72, "duration": 5, "velocity": 82}, {"time": 1518, "pitch": 70, "duration": 2, "velocity": 83}, {"time": 1521, "pitch": 72, "duration": 22, "velocity": 83}, {"time": 1554, "pitch": 77, "duration": 1, "velocity": 88}, {"time": 1557, "pitch": 77, "duration": 1, "velocity": 85}, {"time": 1560, "pitch": 77, "duration": 5, "velocity": 86}, {"time": 1566, "pitch": 79, "duration": 2, "velocity": 83}, {"time": 1569, "pitch": 76, "duration": 7, "velocity": 88}, {"time": 1578, "pitch": 76, "duration": 5, "velocity": 86}, {"time": 1584, "pitch": 74, "duration": 5, "velocity": 93}, {"time": 1590, "pitch": 72, "duration": 4, "velocity": 83}, {"time": 1596, "pitch": 74, "duration": 2, "velocity": 93}, {"time": 1599, "pitch": 77, "duration": 1, "velocity": 86}, {"time": 1602, "pitch": 77, "duration": 1, "velocity": 80}, {"time": 1605, "pitch": 77, "duration": 1, "velocity": 80}, {"time": 1608, "pitch": 77, "duration": 6, "velocity": 88}, {"time": 1614, "pitch": 74, "duration": 2, "velocity": 84}, {"time": 1617, "pitch": 79, "duration": 26, "velocity": 83}, {"time": 1650, "pitch": 77, "duration": 1, "velocity": 89}, {"time": 1653, "pitch": 77, "duration": 1, "velocity": 83}, {"time": 1656, "pitch": 77, "duration": 4, "velocity": 86}, {"time": 1662, "pitch": 77, "duration": 2, "velocity": 83}, {"time": 1665, "pitch": 79, "duration": 7, "velocity": 85}, {"time": 1674, "pitch": 76, "duration": 5, "velocity": 84}, {"time": 1680, "pitch": 74, "duration": 6, "velocity": 86}, {"time": 1686, "pitch": 72, "duration": 3, "velocity": 83}, {"time": 1689, "pitch": 74, "duration": 7, "velocity": 87}, {"time": 1698, "pitch": 74, "duration": 4, "velocity": 86}, {"time": 1704, "pitch": 72, "duration": 5, "velocity": 82}, {"time": 1710, "pitch": 70, "duration": 2, "velocity": 83}, {"time": 1713, "pitch": 72, "duration": 22, "velocity": 83}, {"time": 1746, "pitch": 77, "duration": 1, "velocity": 88}, {"time": 1749, "pitch": 77, "duration": 1, "velocity": 85}, {"time": 1752, "pitch": 77, "duration": 5, "velocity": 86}, {"time": 1758, "pitch": 79, "duration": 2, "velocity": 83}, {"time": 1761, "pitch": 76, "duration": 7, "velocity": 88}, {"time": 1770, "pitch": 76, "duration": 5, "velocity": 86}, {"time": 1776, "pitch": 74, "duration": 5, "velocity": 93}, {"time": 1782, "pitch": 72, "duration": 4, "velocity": 83}, {"time": 1788, "pitch": 74, "duration": 2, "velocity": 93}, {"time": 1791, "pitch": 77, "duration": 1, "velocity": 86}, {"time": 1794, "pitch": 77, "duration": 1, "velocity": 80}, {"time": 1797, "pitch": 77, "duration": 1, "velocity": 80}, {"time": 1800, "pitch": 77, "duration": 6, "velocity": 88}, {"time": 1806, "pitch": 74, "duration": 2, "velocity": 84}, {"time": 1809, "pitch": 79, "duration": 26, "velocity": 83}, {"time": 1854, "pitch": 77, "duration": 2, "velocity": 83}, {"time": 1857, "pitch": 76, "duration": 3, "velocity": 86}, {"time": 1860, "pitch": 77, "duration": 40, "velocity": 82}, {"time": 2442, "pitch": 74, "duration": 3, "velocity": 84}, {"time": 2445, "pitch": 72, "duration": 2, "velocity": 79}, {"time": 2448, "pitch": 72, "duration": 5, "velocity": 82}, {"time": 2454, "pitch": 74, "duration": 2, "velocity": 81}, {"time": 2457, "pitch": 69, "duration": 11, "velocity": 83}, {"time": 2472, "pitch": 67, "duration": 6, "velocity": 83}, {"time": 2478, "pitch": 65, "duration": 3, "velocity": 82}, {"time": 2481, "pitch": 69, "duration": 27, "velocity": 83}, {"time": 2538, "pitch": 74, "duration": 1, "velocity": 86}, {"time": 2541, "pitch": 74, "duration": 2, "velocity": 85}, {"time": 2544, "pitch": 74, "duration": 6, "velocity": 89}, {"time": 2550, "pitch": 76, "duration": 3, "velocity": 81}, {"time": 2553, "pitch": 74, "duration": 6, "velocity": 93}, {"time": 2559, "pitch": 72, "duration": 6, "velocity": 82}, {"time": 2568, "pitch": 72, "duration": 6, "velocity": 87}, {"time": 2574, "pitch": 74, "duration": 3, "velocity": 83}, {"time": 2577, "pitch": 69, "duration": 27, "velocity": 83}, {"time": 2625, "pitch": 69, "duration": 2, "velocity": 83}, {"time": 2628, "pitch": 67, "duration": 2, "velocity": 75}, {"time": 2631, "pitch": 65, "duration": 1, "velocity": 83}, {"time": 2634, "pitch": 65, "duration": 2, "velocity": 82}, {"time": 2637, "pitch": 62, "duration": 3, "velocity": 67}, {"time": 2640, "pitch": 65, "duration": 6, "velocity": 83}, {"time": 2646, "pitch": 62, "duration": 2, "velocity": 79}, {"time": 2649, "pitch": 65, "duration": 13, "velocity": 82}, {"time": 2664, "pitch": 62, "duration": 5, "velocity": 83}, {"time": 2670, "pitch": 65, "duration": 6, "velocity": 78}, {"time": 2676, "pitch": 69, "duration": 2, "velocity": 86}, {"time": 2679, "pitch": 67, "duration": 1, "velocity": 71}, {"time": 2682, "pitch": 67, "duration": 2, "velocity": 78}, {"time": 2685, "pitch": 65, "duration": 1, "velocity": 80}, {"time": 2688, "pitch": 67, "duration": 6, "velocity": 81}, {"time": 2694, "pitch": 69, "duration": 3, "velocity": 74}, {"time": 2697, "pitch": 67, "duration": 12, "velocity": 82}, {"time": 2712, "pitch": 69, "duration": 3, "velocity": 83}, {"time": 2715, "pitch": 72, "duration": 3, "velocity": 82}, {"time": 2718, "pitch": 69, "duration": 3, "velocity": 83}, {"time": 2721, "pitch": 74, "duration": 43, "velocity": 80}, {"time": 2778, "pitch": 74, "duration": 1, "velocity": 91}, {"time": 2781, "pitch": 74, "duration": 1, "velocity": 86}, {"time": 2784, "pitch": 74, "duration": 4, "velocity": 93}, {"time": 2790, "pitch": 74, "duration": 2, "velocity": 87}, {"time": 2793, "pitch": 76, "duration": 8, "velocity": 87}, {"time": 2802, "pitch": 76, "duration": 4, "velocity": 84}, {"time": 2808, "pitch": 74, "duration": 3, "velocity": 89}, {"time": 2811, "pitch": 76, "duration": 6, "velocity": 84}, {"time": 2817, "pitch": 74, "duration": 2, "velocity": 88}, {"time": 2820, "pitch": 72, "duration": 17, "velocity": 83}, {"time": 2838, "pitch": 69, "duration": 3, "velocity": 84}, {"time": 2841, "pitch": 74, "duration": 27, "velocity": 91}, {"time": 2874, "pitch": 74, "duration": 1, "velocity": 88}, {"time": 2877, "pitch": 74, "duration": 1, "velocity": 86}, {"time": 2880, "pitch": 74, "duration": 5, "velocity": 96}, {"time": 2886, "pitch": 77, "duration": 3, "velocity": 78}, {"time": 2889, "pitch": 79, "duration": 7, "velocity": 83}, {"time": 2898, "pitch": 76, "duration": 5, "velocity": 82}, {"time": 2904, "pitch": 74, "duration": 2, "velocity": 79}, {"time": 2907, "pitch": 76, "duration": 5, "velocity": 84}, {"time": 2913, "pitch": 74, "duration": 3, "velocity": 77}, {"time": 2916, "pitch": 72, "duration": 30, "velocity": 84}, {"time": 2961, "pitch": 69, "duration": 3, "velocity": 78}, {"time": 2964, "pitch": 70, "duration": 3, "velocity": 83}, {"time": 2967, "pitch": 69, "duration": 3, "velocity": 82}, {"time": 2970, "pitch": 70, "duration": 3, "velocity": 83}, {"time": 2973, "pitch": 69, "duration": 3, "velocity": 86}, {"time": 2976, "pitch": 70, "duration": 7, "velocity": 85}, {"time": 2982, "pitch": 69, "duration": 3, "velocity": 83}, {"time": 2985, "pitch": 72, "duration": 9, "velocity": 86}, {"time": 2994, "pitch": 70, "duration": 8, "velocity": 86}, {"time": 3006, "pitch": 73, "duration": 3, "velocity": 86}, {"time": 3009, "pitch": 74, "duration": 3, "velocity": 83}, {"time": 3012, "pitch": 76, "duration": 6, "velocity": 78}, {"time": 3018, "pitch": 69, "duration": 7, "velocity": 76}, {"time": 3024, "pitch": 79, "duration": 6, "velocity": 86}, {"time": 3030, "pitch": 76, "duration": 3, "velocity": 82}, {"time": 3033, "pitch": 77, "duration": 9, "velocity": 83}, {"time": 3042, "pitch": 74, "duration": 9, "velocity": 89}, {"time": 3054, "pitch": 74, "duration": 2, "velocity": 87}, {"time": 3057, "pitch": 72, "duration": 3, "velocity": 85}, {"time": 3060, "pitch": 74, "duration": 4, "velocity": 87}, {"time": 3066, "pitch": 74, "duration": 2, "velocity": 86}, {"time": 3069, "pitch": 72, "duration": 2, "velocity": 82}, {"time": 3072, "pitch": 74, "duration": 5, "velocity": 96}, {"time": 3078, "pitch": 72, "duration": 2, "velocity": 85}, {"time": 3081, "pitch": 74, "duration": 7, "velocity": 98}, {"time": 3090, "pitch": 74, "duration": 6, "velocity": 91}, {"time": 3096, "pitch": 76, "duration": 3, "velocity": 84}, {"time": 3099, "pitch": 77, "duration": 9, "velocity": 83}, {"time": 3108, "pitch": 76, "duration": 45, "velocity": 82}, {"time": 3162, "pitch": 77, "duration": 1, "velocity": 89}, {"time": 3165, "pitch": 77, "duration": 1, "velocity": 83}, {"time": 3168, "pitch": 77, "duration": 4, "velocity": 86}, {"time": 3174, "pitch": 77, "duration": 2, "velocity": 83}, {"time": 3177, "pitch": 79, "duration": 7, "velocity": 85}, {"time": 3186, "pitch": 76, "duration": 5, "velocity": 84}, {"time": 3192, "pitch": 74, "duration": 6, "velocity": 86}, {"time": 3198, "pitch": 72, "duration": 3, "velocity": 83}, {"time": 3201, "pitch": 74, "duration": 7, "velocity": 87}, {"time": 3210, "pitch": 74, "duration": 4, "velocity": 86}, {"time": 3216, "pitch": 72, "duration": 5, "velocity": 82}, {"time": 3222, "pitch": 70, "duration": 2, "velocity": 83}, {"time": 3225, "pitch": 72, "duration": 22, "velocity": 83}, {"time": 3258, "pitch": 77, "duration": 1, "velocity": 88}, {"time": 3261, "pitch": 77, "duration": 1, "velocity": 85}, {"time": 3264, "pitch": 77, "duration": 5, "velocity": 86}, {"time": 3270, "pitch": 79, "duration": 2, "velocity": 83}, {"time": 3273, "pitch": 76, "duration": 7, "velocity": 88}, {"time": 3282, "pitch": 76, "duration": 5, "velocity": 86}, {"time": 3288, "pitch": 74, "duration": 5, "velocity": 93}, {"time": 3294, "pitch": 72, "duration": 4, "velocity": 83}, {"time": 3300, "pitch": 74, "duration": 2, "velocity": 93}, {"time": 3303, "pitch": 77, "duration": 1, "velocity": 86}, {"time": 3306, "pitch": 77, "duration": 1, "velocity": 80}, {"time": 3309, "pitch": 77, "duration": 1, "velocity": 80}, {"time": 3312, "pitch": 77, "duration": 6, "velocity": 88}, {"time": 3318, "pitch": 74, "duration": 2, "velocity": 84}, {"time": 3321, "pitch": 79, "duration": 26, "velocity": 83}, {"time": 3354, "pitch": 77, "duration": 1, "velocity": 89}, {"time": 3357, "pitch": 77, "duration": 1, "velocity": 83}, {"time": 3360, "pitch": 77, "duration": 4, "velocity": 86}, {"time": 3366, "pitch": 77, "duration": 2, "velocity": 83}, {"time": 3369, "pitch": 79, "duration": 7, "velocity": 85}, {"time": 3378, "pitch": 76, "duration": 5, "velocity": 84}, {"time": 3384, "pitch": 74, "duration": 6, "velocity": 86}, {"time": 3390, "pitch": 72, "duration": 3, "velocity": 83}, {"time": 3393, "pitch": 74, "duration": 7, "velocity": 87}, {"time": 3402, "pitch": 74, "duration": 4, "velocity": 86}, {"time": 3408, "pitch": 72, "duration": 5, "velocity": 82}, {"time": 3414, "pitch": 70, "duration": 2, "velocity": 83}, {"time": 3417, "pitch": 72, "duration": 22, "velocity": 83}, {"time": 3450, "pitch": 77, "duration": 1, "velocity": 88}, {"time": 3453, "pitch": 77, "duration": 1, "velocity": 85}, {"time": 3456, "pitch": 77, "duration": 5, "velocity": 86}, {"time": 3462, "pitch": 79, "duration": 2, "velocity": 83}, {"time": 3465, "pitch": 76, "duration": 7, "velocity": 88}, {"time": 3474, "pitch": 76, "duration": 5, "velocity": 86}, {"time": 3480, "pitch": 74, "duration": 5, "velocity": 93}, {"time": 3486, "pitch": 72, "duration": 4, "velocity": 83}, {"time": 3492, "pitch": 74, "duration": 2, "velocity": 93}, {"time": 3495, "pitch": 77, "duration": 1, "velocity": 86}, {"time": 3498, "pitch": 77, "duration": 1, "velocity": 80}, {"time": 3501, "pitch": 77, "duration": 1, "velocity": 80}, {"time": 3504, "pitch": 77, "duration": 6, "velocity": 88}, {"time": 3510, "pitch": 74, "duration": 2, "velocity": 84}, {"time": 3513, "pitch": 79, "duration": 26, "velocity": 83}, {"time": 3546, "pitch": 77, "duration": 1, "velocity": 89}, {"time": 3549, "pitch": 77, "duration": 1, "velocity": 83}, {"time": 3552, "pitch": 77, "duration": 4, "velocity": 86}, {"time": 3558, "pitch": 77, "duration": 2, "velocity": 83}, {"time": 3561, "pitch": 79, "duration": 7, "velocity": 85}, {"time": 3570, "pitch": 76, "duration": 5, "velocity": 84}, {"time": 3576, "pitch": 74, "duration": 6, "velocity": 86}, {"time": 3582, "pitch": 72, "duration": 3, "velocity": 83}, {"time": 3585, "pitch": 74, "duration": 7, "velocity": 87}, {"time": 3594, "pitch": 74, "duration": 4, "velocity": 86}, {"time": 3600, "pitch": 72, "duration": 5, "velocity": 82}, {"time": 3606, "pitch": 70, "duration": 2, "velocity": 83}, {"time": 3609, "pitch": 72, "duration": 22, "velocity": 83}, {"time": 3642, "pitch": 77, "duration": 1, "velocity": 88}, {"time": 3645, "pitch": 77, "duration": 1, "velocity": 85}, {"time": 3648, "pitch": 77, "duration": 5, "velocity": 86}, {"time": 3654, "pitch": 79, "duration": 2, "velocity": 83}, {"time": 3657, "pitch": 76, "duration": 7, "velocity": 88}, {"time": 3666, "pitch": 76, "duration": 5, "velocity": 86}, {"time": 3672, "pitch": 74, "duration": 5, "velocity": 93}, {"time": 3678, "pitch": 72, "duration": 4, "velocity": 83}, {"time": 3684, "pitch": 74, "duration": 2, "velocity": 93}, {"time": 3687, "pitch": 77, "duration": 1, "velocity": 86}, {"time": 3690, "pitch": 77, "duration": 1, "velocity": 80}, {"time": 3693, "pitch": 77, "duration": 1, "velocity": 80}, {"time": 3696, "pitch": 77, "duration": 6, "velocity": 88}, {"time": 3702, "pitch": 74, "duration": 2, "velocity": 84}, {"time": 3705, "pitch": 79, "duration": 26, "velocity": 83}, {"time": 3738, "pitch": 77, "duration": 1, "velocity": 89}, {"time": 3741, "pitch": 77, "duration": 1, "velocity": 83}, {"time": 3744, "pitch": 77, "duration": 4, "velocity": 86}, {"time": 3750, "pitch": 77, "duration": 2, "velocity": 83}, {"time": 3753, "pitch": 79, "duration": 7, "velocity": 85}, {"time": 3762, "pitch": 76, "duration": 5, "velocity": 84}, {"time": 3768, "pitch": 74, "duration": 6, "velocity": 86}, {"time": 3774, "pitch": 72, "duration": 3, "velocity": 83}, {"time": 3777, "pitch": 74, "duration": 7, "velocity": 87}, {"time": 3786, "pitch": 74, "duration": 4, "velocity": 86}, {"time": 3792, "pitch": 72, "duration": 5, "velocity": 82}, {"time": 3798, "pitch": 70, "duration": 2, "velocity": 83}, {"time": 3801, "pitch": 72, "duration": 22, "velocity": 83}, {"time": 3834, "pitch": 77, "duration": 1, "velocity": 88}, {"time": 3837, "pitch": 77, "duration": 1, "velocity": 85}, {"time": 3840, "pitch": 77, "duration": 5, "velocity": 86}, {"time": 3846, "pitch": 79, "duration": 2, "velocity": 83}, {"time": 3849, "pitch": 76, "duration": 7, "velocity": 88}, {"time": 3858, "pitch": 76, "duration": 5, "velocity": 86}, {"time": 3864, "pitch": 74, "duration": 5, "velocity": 93}, {"time": 3870, "pitch": 72, "duration": 4, "velocity": 83}, {"time": 3876, "pitch": 74, "duration": 2, "velocity": 93}, {"time": 3879, "pitch": 77, "duration": 1, "velocity": 86}, {"time": 3882, "pitch": 77, "duration": 1, "velocity": 80}, {"time": 3885, "pitch": 77, "duration": 1, "velocity": 80}, {"time": 3888, "pitch": 77, "duration": 6, "velocity": 88}, {"time": 3894, "pitch": 74, "duration": 2, "velocity": 84}, {"time": 3897, "pitch": 79, "duration": 26, "velocity": 83}, {"time": 3942, "pitch": 77, "duration": 2, "velocity": 83}, {"time": 3945, "pitch": 76, "duration": 3, "velocity": 86}, {"time": 3948, "pitch": 77, "duration": 40, "velocity": 82}], "annotations": [{"time": 1098, "annotation": {"number": 64, "value": 127}, "group": "control_change"}, {"time": 1104, "annotation": {"number": 64, "value": 0}, "group": "control_change"}, {"time": 2802, "annotation": {"number": 64, "value": 127}, "group": "control_change"}, {"time": 2808, "annotation": {"number": 64, "value": 0}, "group": "control_change"}]}, {"program": 0, "is_drum": false, "name": "PIANO", "notes": [{"time": 10, "pitch": 57, "duration": 41, "velocity": 65}, {"time": 11, "pitch": 62, "duration": 39, "velocity": 71}, {"time": 11, "pitch": 50, "duration": 41, "velocity": 64}, {"time": 12, "pitch": 65, "duration": 38, "velocity": 71}, {"time": 57, "pitch": 53, "duration": 42, "velocity": 57}, {"time": 58, "pitch": 58, "duration": 45, "velocity": 67}, {"time": 59, "pitch": 46, "duration": 45, "velocity": 73}, {"time": 59, "pitch": 62, "duration": 44, "velocity": 72}, {"time": 108, "pitch": 50, "duration": 39, "velocity": 83}, {"time": 108, "pitch": 57, "duration": 36, "velocity": 54}, {"time": 108, "pitch": 62, "duration": 34, "velocity": 59}, {"time": 109, "pitch": 65, "duration": 33, "velocity": 62}, {"time": 154, "pitch": 57, "duration": 39, "velocity": 57}, {"time": 155, "pitch": 61, "duration": 41, "velocity": 68}, {"time": 155, "pitch": 45, "duration": 45, "velocity": 76}, {"time": 156, "pitch": 64, "duration": 47, "velocity": 67}, {"time": 204, "pitch": 38, "duration": 42, "velocity": 79}, {"time": 204, "pitch": 50, "duration": 44, "velocity": 100}, {"time": 204, "pitch": 57, "duration": 41, "velocity": 66}, {"time": 204, "pitch": 62, "duration": 41, "velocity": 78}, {"time": 205, "pitch": 65, "duration": 45, "velocity": 79}, {"time": 246, "pitch": 38, "duration": 6, "velocity": 80}, {"time": 252, "pitch": 46, "duration": 47, "velocity": 81}, {"time": 252, "pitch": 53, "duration": 39, "velocity": 69}, {"time": 252, "pitch": 58, "duration": 47, "velocity": 69}, {"time": 253, "pitch": 62, "duration": 45, "velocity": 79}, {"time": 294, "pitch": 53, "duration": 3, "velocity": 83}, {"time": 300, "pitch": 48, "duration": 41, "velocity": 83}, {"time": 300, "pitch": 55, "duration": 44, "velocity": 76}, {"time": 300, "pitch": 60, "duration": 42, "velocity": 76}, {"time": 301, "pitch": 64, "duration": 45, "velocity": 83}, {"time": 342, "pitch": 36, "duration": 6, "velocity": 72}, {"time": 348, "pitch": 38, "duration": 38, "velocity": 75}, {"time": 348, "pitch": 45, "duration": 46, "velocity": 74}, {"time": 349, "pitch": 57, "duration": 44, "velocity": 74}, {"time": 349, "pitch": 62, "duration": 45, "velocity": 72}, {"time": 349, "pitch": 65, "duration": 45, "velocity": 67}, {"time": 396, "pitch": 50, "duration": 41, "velocity": 77}, {"time": 396, "pitch": 57, "duration": 29, "velocity": 84}, {"time": 396, "pitch": 62, "duration": 29, "velocity": 84}, {"time": 396, "pitch": 65, "duration": 32, "velocity": 84}, {"time": 432, "pitch": 57, "duration": 2, "velocity": 76}, {"time": 432, "pitch": 62, "duration": 4, "velocity": 82}, {"time": 432, "pitch": 65, "duration": 5, "velocity": 78}, {"time": 438, "pitch": 45, "duration": 5, "velocity": 76}, {"time": 444, "pitch": 41, "duration": 38, "velocity": 78}, {"time": 444, "pitch": 53, "duration": 8, "velocity": 71}, {"time": 444, "pitch": 57, "duration": 6, "velocity": 76}, {"time": 456, "pitch": 48, "duration": 12, "velocity": 62}, {"time": 461, "pitch": 57, "duration": 4, "velocity": 68}, {"time": 461, "pitch": 60, "duration": 5, "velocity": 74}, {"time": 462, "pitch": 53, "duration": 2, "velocity": 60}, {"time": 474, "pitch": 53, "duration": 2, "velocity": 60}, {"time": 480, "pitch": 57, "duration": 3, "velocity": 70}, {"time": 480, "pitch": 60, "duration": 4, "velocity": 70}, {"time": 486, "pitch": 53, "duration": 1, "velocity": 79}, {"time": 492, "pitch": 50, "duration": 20, "velocity": 82}, {"time": 492, "pitch": 57, "duration": 3, "velocity": 70}, {"time": 492, "pitch": 62, "duration": 7, "velocity": 71}, {"time": 498, "pitch": 57, "duration": 6, "velocity": 66}, {"time": 510, "pitch": 57, "duration": 4, "velocity": 79}, {"time": 516, "pitch": 45, "duration": 16, "velocity": 75}, {"time": 516, "pitch": 57, "duration": 7, "velocity": 66}, {"time": 516, "pitch": 60, "duration": 6, "velocity": 74}, {"time": 528, "pitch": 57, "duration": 2, "velocity": 73}, {"time": 528, "pitch": 60, "duration": 2, "velocity": 75}, {"time": 528, "pitch": 64, "duration": 3, "velocity": 80}, {"time": 534, "pitch": 52, "duration": 5, "velocity": 65}, {"time": 540, "pitch": 50, "duration": 41, "velocity": 78}, {"time": 540, "pitch": 57, "duration": 3, "velocity": 68}, {"time": 540, "pitch": 62, "duration": 7, "velocity": 72}, {"time": 546, "pitch": 57, "duration": 6, "velocity": 60}, {"time": 552, "pitch": 62, "duration": 5, "velocity": 65}, {"time": 558, "pitch": 64, "duration": 5, "velocity": 70}, {"time": 564, "pitch": 62, "duration": 18, "velocity": 73}, {"time": 564, "pitch": 65, "duration": 19, "velocity": 73}, {"time": 582, "pitch": 50, "duration": 6, "velocity": 70}, {"time": 588, "pitch": 46, "duration": 33, "velocity": 70}, {"time": 588, "pitch": 58, "duration": 4, "velocity": 70}, {"time": 588, "pitch": 62, "duration": 13, "velocity": 76}, {"time": 594, "pitch": 53, "duration": 1, "velocity": 57}, {"time": 600, "pitch": 58, "duration": 10, "velocity": 82}, {"time": 600, "pitch": 62, "duration": 1, "velocity": 78}, {"time": 612, "pitch": 58, "duration": 10, "velocity": 68}, {"time": 612, "pitch": 62, "duration": 10, "velocity": 75}, {"time": 618, "pitch": 53, "duration": 2, "velocity": 74}, {"time": 624, "pitch": 46, "duration": 4, "velocity": 74}, {"time": 624, "pitch": 53, "duration": 1, "velocity": 78}, {"time": 624, "pitch": 58, "duration": 6, "velocity": 82}, {"time": 624, "pitch": 62, "duration": 6, "velocity": 82}, {"time": 630, "pitch": 53, "duration": 2, "velocity": 82}, {"time": 636, "pitch": 48, "duration": 20, "velocity": 82}, {"time": 636, "pitch": 55, "duration": 3, "velocity": 76}, {"time": 636, "pitch": 60, "duration": 7, "velocity": 76}, {"time": 642, "pitch": 55, "duration": 7, "velocity": 71}, {"time": 648, "pitch": 60, "duration": 9, "velocity": 70}, {"time": 648, "pitch": 64, "duration": 10, "velocity": 79}, {"time": 660, "pitch": 60, "duration": 9, "velocity": 70}, {"time": 660, "pitch": 64, "duration": 10, "velocity": 78}, {"time": 672, "pitch": 48, "duration": 4, "velocity": 81}, {"time": 672, "pitch": 60, "duration": 6, "velocity": 78}, {"time": 672, "pitch": 64, "duration": 9, "velocity": 82}, {"time": 678, "pitch": 55, "duration": 2, "velocity": 80}, {"time": 684, "pitch": 50, "duration": 40, "velocity": 80}, {"time": 684, "pitch": 57, "duration": 32, "velocity": 72}, {"time": 684, "pitch": 62, "duration": 35, "velocity": 72}, {"time": 684, "pitch": 65, "duration": 34, "velocity": 77}, {"time": 720, "pitch": 57, "duration": 2, "velocity": 83}, {"time": 720, "pitch": 62, "duration": 2, "velocity": 79}, {"time": 720, "pitch": 65, "duration": 2, "velocity": 78}, {"time": 726, "pitch": 45, "duration": 3, "velocity": 100}, {"time": 732, "pitch": 50, "duration": 22, "velocity": 82}, {"time": 732, "pitch": 57, "duration": 3, "velocity": 74}, {"time": 732, "pitch": 62, "duration": 8, "velocity": 77}, {"time": 738, "pitch": 57, "duration": 7, "velocity": 79}, {"time": 744, "pitch": 62, "duration": 2, "velocity": 80}, {"time": 744, "pitch": 65, "duration": 2, "velocity": 82}, {"time": 756, "pitch": 50, "duration": 15, "velocity": 75}, {"time": 756, "pitch": 62, "duration": 7, "velocity": 75}, {"time": 762, "pitch": 57, "duration": 3, "velocity": 62}, {"time": 768, "pitch": 57, "duration": 2, "velocity": 83}, {"time": 768, "pitch": 62, "duration": 5, "velocity": 84}, {"time": 768, "pitch": 65, "duration": 4, "velocity": 82}, {"time": 774, "pitch": 50, "duration": 3, "velocity": 78}, {"time": 774, "pitch": 57, "duration": 1, "velocity": 76}, {"time": 777, "pitch": 38, "duration": 3, "velocity": 77}, {"time": 780, "pitch": 41, "duration": 22, "velocity": 76}, {"time": 780, "pitch": 53, "duration": 9, "velocity": 70}, {"time": 780, "pitch": 57, "duration": 7, "velocity": 71}, {"time": 786, "pitch": 48, "duration": 21, "velocity": 64}, {"time": 792, "pitch": 57, "duration": 2, "velocity": 72}, {"time": 792, "pitch": 60, "duration": 2, "velocity": 76}, {"time": 798, "pitch": 53, "duration": 7, "velocity": 78}, {"time": 804, "pitch": 41, "duration": 4, "velocity": 81}, {"time": 804, "pitch": 60, "duration": 10, "velocity": 79}, {"time": 810, "pitch": 41, "duration": 12, "velocity": 79}, {"time": 810, "pitch": 48, "duration": 7, "velocity": 74}, {"time": 816, "pitch": 53, "duration": 5, "velocity": 79}, {"time": 816, "pitch": 57, "duration": 5, "velocity": 79}, {"time": 816, "pitch": 60, "duration": 6, "velocity": 81}, {"time": 822, "pitch": 45, "duration": 3, "velocity": 79}, {"time": 825, "pitch": 48, "duration": 3, "velocity": 75}, {"time": 828, "pitch": 50, "duration": 22, "velocity": 83}, {"time": 828, "pitch": 57, "duration": 3, "velocity": 75}, {"time": 828, "pitch": 62, "duration": 9, "velocity": 81}, {"time": 834, "pitch": 57, "duration": 6, "velocity": 71}, {"time": 840, "pitch": 62, "duration": 6, "velocity": 79}, {"time": 840, "pitch": 65, "duration": 10, "velocity": 79}, {"time": 846, "pitch": 57, "duration": 3, "velocity": 69}, {"time": 852, "pitch": 45, "duration": 19, "velocity": 80}, {"time": 852, "pitch": 57, "duration": 7, "velocity": 71}, {"time": 852, "pitch": 60, "duration": 9, "velocity": 75}, {"time": 852, "pitch": 64, "duration": 6, "velocity": 76}, {"time": 858, "pitch": 52, "duration": 7, "velocity": 79}, {"time": 861, "pitch": 57, "duration": 3, "velocity": 77}, {"time": 864, "pitch": 60, "duration": 4, "velocity": 76}, {"time": 864, "pitch": 64, "duration": 6, "velocity": 76}, {"time": 867, "pitch": 52, "duration": 5, "velocity": 73}, {"time": 870, "pitch": 60, "duration": 3, "velocity": 82}, {"time": 876, "pitch": 50, "duration": 21, "velocity": 78}, {"time": 876, "pitch": 57, "duration": 4, "velocity": 78}, {"time": 876, "pitch": 62, "duration": 10, "velocity": 78}, {"time": 882, "pitch": 57, "duration": 6, "velocity": 78}, {"time": 888, "pitch": 62, "duration": 5, "velocity": 78}, {"time": 888, "pitch": 65, "duration": 10, "velocity": 78}, {"time": 894, "pitch": 57, "duration": 5, "velocity": 78}, {"time": 900, "pitch": 50, "duration": 4, "velocity": 78}, {"time": 900, "pitch": 57, "duration": 5, "velocity": 78}, {"time": 900, "pitch": 62, "duration": 10, "velocity": 78}, {"time": 906, "pitch": 50, "duration": 11, "velocity": 77}, {"time": 909, "pitch": 57, "duration": 3, "velocity": 77}, {"time": 912, "pitch": 62, "duration": 5, "velocity": 77}, {"time": 912, "pitch": 65, "duration": 6, "velocity": 77}, {"time": 915, "pitch": 57, "duration": 2, "velocity": 74}, {"time": 918, "pitch": 50, "duration": 3, "velocity": 72}, {"time": 918, "pitch": 64, "duration": 6, "velocity": 70}, {"time": 921, "pitch": 48, "duration": 3, "velocity": 69}, {"time": 921, "pitch": 57, "duration": 3, "velocity": 69}, {"time": 924, "pitch": 46, "duration": 23, "velocity": 65}, {"time": 924, "pitch": 58, "duration": 6, "velocity": 65}, {"time": 924, "pitch": 62, "duration": 8, "velocity": 65}, {"time": 930, "pitch": 53, "duration": 7, "velocity": 69}, {"time": 936, "pitch": 58, "duration": 7, "velocity": 77}, {"time": 936, "pitch": 62, "duration": 7, "velocity": 80}, {"time": 942, "pitch": 53, "duration": 8, "velocity": 68}, {"time": 948, "pitch": 46, "duration": 4, "velocity": 72}, {"time": 948, "pitch": 58, "duration": 9, "velocity": 72}, {"time": 948, "pitch": 62, "duration": 6, "velocity": 72}, {"time": 954, "pitch": 46, "duration": 10, "velocity": 77}, {"time": 954, "pitch": 53, "duration": 7, "velocity": 83}, {"time": 960, "pitch": 58, "duration": 3, "velocity": 87}, {"time": 960, "pitch": 62, "duration": 3, "velocity": 82}, {"time": 966, "pitch": 58, "duration": 2, "velocity": 89}, {"time": 972, "pitch": 48, "duration": 20, "velocity": 77}, {"time": 972, "pitch": 55, "duration": 3, "velocity": 78}, {"time": 972, "pitch": 60, "duration": 6, "velocity": 78}, {"time": 978, "pitch": 55, "duration": 6, "velocity": 77}, {"time": 984, "pitch": 60, "duration": 2, "velocity": 77}, {"time": 984, "pitch": 64, "duration": 3, "velocity": 82}, {"time": 996, "pitch": 48, "duration": 20, "velocity": 79}, {"time": 996, "pitch": 55, "duration": 3, "velocity": 69}, {"time": 996, "pitch": 60, "duration": 7, "velocity": 73}, {"time": 1002, "pitch": 55, "duration": 3, "velocity": 66}, {"time": 1008, "pitch": 55, "duration": 2, "velocity": 84}, {"time": 1008, "pitch": 60, "duration": 3, "velocity": 84}, {"time": 1008, "pitch": 64, "duration": 5, "velocity": 85}, {"time": 1020, "pitch": 50, "duration": 18, "velocity": 77}, {"time": 1020, "pitch": 57, "duration": 2, "velocity": 76}, {"time": 1020, "pitch": 62, "duration": 6, "velocity": 78}, {"time": 1026, "pitch": 57, "duration": 3, "velocity": 71}, {"time": 1032, "pitch": 62, "duration": 2, "velocity": 83}, {"time": 1032, "pitch": 65, "duration": 6, "velocity": 81}, {"time": 1038, "pitch": 57, "duration": 3, "velocity": 78}, {"time": 1044, "pitch": 50, "duration": 11, "velocity": 84}, {"time": 1044, "pitch": 57, "duration": 3, "velocity": 82}, {"time": 1044, "pitch": 62, "duration": 6, "velocity": 83}, {"time": 1050, "pitch": 57, "duration": 1, "velocity": 85}, {"time": 1053, "pitch": 57, "duration": 2, "velocity": 85}, {"time": 1056, "pitch": 50, "duration": 3, "velocity": 85}, {"time": 1056, "pitch": 62, "duration": 3, "velocity": 85}, {"time": 1056, "pitch": 65, "duration": 4, "velocity": 85}, {"time": 1059, "pitch": 38, "duration": 3, "velocity": 85}, {"time": 1059, "pitch": 57, "duration": 3, "velocity": 85}, {"time": 1062, "pitch": 50, "duration": 3, "velocity": 85}, {"time": 1062, "pitch": 62, "duration": 2, "velocity": 85}, {"time": 1065, "pitch": 48, "duration": 3, "velocity": 85}, {"time": 1065, "pitch": 57, "duration": 1, "velocity": 85}, {"time": 1068, "pitch": 46, "duration": 16, "velocity": 89}, {"time": 1068, "pitch": 58, "duration": 6, "velocity": 89}, {"time": 1074, "pitch": 53, "duration": 6, "velocity": 84}, {"time": 1080, "pitch": 58, "duration": 6, "velocity": 82}, {"time": 1080, "pitch": 62, "duration": 4, "velocity": 82}, {"time": 1086, "pitch": 53, "duration": 3, "velocity": 81}, {"time": 1089, "pitch": 46, "duration": 3, "velocity": 81}, {"time": 1089, "pitch": 58, "duration": 1, "velocity": 80}, {"time": 1092, "pitch": 48, "duration": 13, "velocity": 79}, {"time": 1092, "pitch": 60, "duration": 6, "velocity": 79}, {"time": 1098, "pitch": 55, "duration": 5, "velocity": 82}, {"time": 1104, "pitch": 60, "duration": 5, "velocity": 82}, {"time": 1104, "pitch": 64, "duration": 4, "velocity": 83}, {"time": 1110, "pitch": 55, "duration": 1, "velocity": 77}, {"time": 1116, "pitch": 41, "duration": 19, "velocity": 82}, {"time": 1116, "pitch": 53, "duration": 9, "velocity": 72}, {"time": 1116, "pitch": 60, "duration": 8, "velocity": 68}, {"time": 1122, "pitch": 48, "duration": 7, "velocity": 83}, {"time": 1128, "pitch": 53, "duration": 3, "velocity": 82}, {"time": 1128, "pitch": 57, "duration": 8, "velocity": 82}, {"time": 1128, "pitch": 60, "duration": 6, "velocity": 83}, {"time": 1134, "pitch": 48, "duration": 2, "velocity": 80}, {"time": 1137, "pitch": 41, "duration": 3, "velocity": 81}, {"time": 1140, "pitch": 50, "duration": 13, "velocity": 79}, {"time": 1140, "pitch": 57, "duration": 3, "velocity": 79}, {"time": 1140, "pitch": 62, "duration": 6, "velocity": 79}, {"time": 1146, "pitch": 57, "duration": 4, "velocity": 78}, {"time": 1149, "pitch": 62, "duration": 2, "velocity": 77}, {"time": 1152, "pitch": 65, "duration": 5, "velocity": 76}, {"time": 1155, "pitch": 57, "duration": 3, "velocity": 76}, {"time": 1158, "pitch": 50, "duration": 3, "velocity": 76}, {"time": 1158, "pitch": 62, "duration": 2, "velocity": 76}, {"time": 1161, "pitch": 48, "duration": 3, "velocity": 77}, {"time": 1164, "pitch": 46, "duration": 16, "velocity": 77}, {"time": 1164, "pitch": 58, "duration": 7, "velocity": 79}, {"time": 1164, "pitch": 62, "duration": 10, "velocity": 79}, {"time": 1170, "pitch": 53, "duration": 9, "velocity": 80}, {"time": 1176, "pitch": 58, "duration": 4, "velocity": 80}, {"time": 1176, "pitch": 65, "duration": 6, "velocity": 80}, {"time": 1182, "pitch": 58, "duration": 4, "velocity": 80}, {"time": 1182, "pitch": 62, "duration": 3, "velocity": 80}, {"time": 1185, "pitch": 46, "duration": 3, "velocity": 81}, {"time": 1188, "pitch": 48, "duration": 15, "velocity": 82}, {"time": 1188, "pitch": 55, "duration": 3, "velocity": 82}, {"time": 1188, "pitch": 60, "duration": 7, "velocity": 82}, {"time": 1194, "pitch": 55, "duration": 4, "velocity": 82}, {"time": 1200, "pitch": 55, "duration": 3, "velocity": 82}, {"time": 1200, "pitch": 60, "duration": 6, "velocity": 82}, {"time": 1200, "pitch": 64, "duration": 9, "velocity": 82}, {"time": 1206, "pitch": 55, "duration": 2, "velocity": 79}, {"time": 1212, "pitch": 41, "duration": 21, "velocity": 79}, {"time": 1212, "pitch": 57, "duration": 6, "velocity": 79}, {"time": 1212, "pitch": 60, "duration": 9, "velocity": 79}, {"time": 1218, "pitch": 48, "duration": 13, "velocity": 79}, {"time": 1221, "pitch": 57, "duration": 3, "velocity": 79}, {"time": 1224, "pitch": 65, "duration": 4, "velocity": 79}, {"time": 1227, "pitch": 60, "duration": 4, "velocity": 79}, {"time": 1230, "pitch": 57, "duration": 6, "velocity": 79}, {"time": 1233, "pitch": 41, "duration": 3, "velocity": 79}, {"time": 1233, "pitch": 60, "duration": 9, "velocity": 79}, {"time": 1236, "pitch": 41, "duration": 18, "velocity": 79}, {"time": 1239, "pitch": 48, "duration": 10, "velocity": 79}, {"time": 1242, "pitch": 57, "duration": 3, "velocity": 79}, {"time": 1245, "pitch": 60, "duration": 1, "velocity": 79}, {"time": 1248, "pitch": 57, "duration": 5, "velocity": 79}, {"time": 1248, "pitch": 60, "duration": 5, "velocity": 79}, {"time": 1248, "pitch": 65, "duration": 6, "velocity": 79}, {"time": 1254, "pitch": 48, "duration": 3, "velocity": 79}, {"time": 1260, "pitch": 43, "duration": 21, "velocity": 79}, {"time": 1260, "pitch": 55, "duration": 6, "velocity": 79}, {"time": 1260, "pitch": 62, "duration": 5, "velocity": 79}, {"time": 1266, "pitch": 50, "duration": 7, "velocity": 79}, {"time": 1272, "pitch": 55, "duration": 6, "velocity": 79}, {"time": 1272, "pitch": 58, "duration": 7, "velocity": 79}, {"time": 1278, "pitch": 50, "duration": 4, "velocity": 79}, {"time": 1281, "pitch": 43, "duration": 3, "velocity": 79}, {"time": 1281, "pitch": 55, "duration": 3, "velocity": 79}, {"time": 1281, "pitch": 58, "duration": 8, "velocity": 79}, {"time": 1284, "pitch": 43, "duration": 18, "velocity": 79}, {"time": 1287, "pitch": 50, "duration": 11, "velocity": 79}, {"time": 1290, "pitch": 55, "duration": 4, "velocity": 79}, {"time": 1293, "pitch": 58, "duration": 2, "velocity": 79}, {"time": 1296, "pitch": 55, "duration": 5, "velocity": 79}, {"time": 1296, "pitch": 62, "duration": 6, "velocity": 79}, {"time": 1302, "pitch": 50, "duration": 1, "velocity": 79}, {"time": 1308, "pitch": 45, "duration": 19, "velocity": 79}, {"time": 1308, "pitch": 57, "duration": 6, "velocity": 79}, {"time": 1308, "pitch": 61, "duration": 7, "velocity": 79}, {"time": 1314, "pitch": 52, "duration": 7, "velocity": 79}, {"time": 1317, "pitch": 57, "duration": 1, "velocity": 79}, {"time": 1320, "pitch": 61, "duration": 3, "velocity": 79}, {"time": 1323, "pitch": 57, "duration": 3, "velocity": 79}, {"time": 1326, "pitch": 52, "duration": 3, "velocity": 79}, {"time": 1329, "pitch": 45, "duration": 3, "velocity": 79}, {"time": 1329, "pitch": 57, "duration": 1, "velocity": 79}, {"time": 1332, "pitch": 50, "duration": 13, "velocity": 79}, {"time": 1332, "pitch": 62, "duration": 3, "velocity": 79}, {"time": 1335, "pitch": 57, "duration": 3, "velocity": 79}, {"time": 1338, "pitch": 62, "duration": 2, "velocity": 79}, {"time": 1341, "pitch": 57, "duration": 2, "velocity": 79}, {"time": 1344, "pitch": 65, "duration": 5, "velocity": 79}, {"time": 1347, "pitch": 57, "duration": 2, "velocity": 79}, {"time": 1350, "pitch": 50, "duration": 3, "velocity": 79}, {"time": 1350, "pitch": 64, "duration": 3, "velocity": 79}, {"time": 1353, "pitch": 48, "duration": 3, "velocity": 79}, {"time": 1353, "pitch": 57, "duration": 3, "velocity": 79}, {"time": 1356, "pitch": 46, "duration": 20, "velocity": 79}, {"time": 1356, "pitch": 62, "duration": 7, "velocity": 79}, {"time": 1362, "pitch": 53, "duration": 9, "velocity": 79}, {"time": 1368, "pitch": 58, "duration": 5, "velocity": 78}, {"time": 1368, "pitch": 62, "duration": 10, "velocity": 79}, {"time": 1374, "pitch": 53, "duration": 4, "velocity": 77}, {"time": 1377, "pitch": 46, "duration": 3, "velocity": 78}, {"time": 1377, "pitch": 58, "duration": 6, "velocity": 78}, {"time": 1383, "pitch": 46, "duration": 15, "velocity": 75}, {"time": 1383, "pitch": 53, "duration": 13, "velocity": 75}, {"time": 1386, "pitch": 58, "duration": 4, "velocity": 75}, {"time": 1392, "pitch": 58, "duration": 3, "velocity": 74}, {"time": 1392, "pitch": 62, "duration": 3, "velocity": 74}, {"time": 1392, "pitch": 65, "duration": 3, "velocity": 74}, {"time": 1398, "pitch": 58, "duration": 2, "velocity": 74}, {"time": 1404, "pitch": 45, "duration": 6, "velocity": 74}, {"time": 1404, "pitch": 57, "duration": 6, "velocity": 74}, {"time": 1404, "pitch": 61, "duration": 7, "velocity": 74}, {"time": 1410, "pitch": 45, "duration": 6, "velocity": 75}, {"time": 1410, "pitch": 52, "duration": 7, "velocity": 76}, {"time": 1416, "pitch": 45, "duration": 6, "velocity": 76}, {"time": 1416, "pitch": 57, "duration": 5, "velocity": 78}, {"time": 1416, "pitch": 61, "duration": 5, "velocity": 78}, {"time": 1416, "pitch": 64, "duration": 5, "velocity": 78}, {"time": 1422, "pitch": 45, "duration": 6, "velocity": 78}, {"time": 1422, "pitch": 52, "duration": 3, "velocity": 79}, {"time": 1425, "pitch": 57, "duration": 4, "velocity": 79}, {"time": 1425, "pitch": 61, "duration": 3, "velocity": 79}, {"time": 1425, "pitch": 64, "duration": 3, "velocity": 79}, {"time": 1428, "pitch": 45, "duration": 3, "velocity": 79}, {"time": 1431, "pitch": 45, "duration": 3, "velocity": 79}, {"time": 1431, "pitch": 57, "duration": 2, "velocity": 79}, {"time": 1431, "pitch": 61, "duration": 4, "velocity": 79}, {"time": 1431, "pitch": 64, "duration": 3, "velocity": 79}, {"time": 1434, "pitch": 52, "duration": 8, "velocity": 79}, {"time": 1437, "pitch": 55, "duration": 3, "velocity": 79}, {"time": 1440, "pitch": 45, "duration": 6, "velocity": 79}, {"time": 1440, "pitch": 61, "duration": 8, "velocity": 79}, {"time": 1443, "pitch": 52, "duration": 4, "velocity": 79}, {"time": 1446, "pitch": 45, "duration": 3, "velocity": 79}, {"time": 1446, "pitch": 57, "duration": 4, "velocity": 79}, {"time": 1449, "pitch": 48, "duration": 3, "velocity": 79}, {"time": 1452, "pitch": 50, "duration": 16, "velocity": 79}, {"time": 1452, "pitch": 57, "duration": 4, "velocity": 79}, {"time": 1452, "pitch": 62, "duration": 8, "velocity": 79}, {"time": 1458, "pitch": 57, "duration": 6, "velocity": 79}, {"time": 1464, "pitch": 62, "duration": 3, "velocity": 79}, {"time": 1464, "pitch": 65, "duration": 5, "velocity": 79}, {"time": 1467, "pitch": 57, "duration": 5, "velocity": 80}, {"time": 1470, "pitch": 62, "duration": 3, "velocity": 80}, {"time": 1473, "pitch": 65, "duration": 8, "velocity": 69}, {"time": 1476, "pitch": 45, "duration": 16, "velocity": 83}, {"time": 1479, "pitch": 52, "duration": 11, "velocity": 76}, {"time": 1482, "pitch": 57, "duration": 3, "velocity": 72}, {"time": 1485, "pitch": 60, "duration": 1, "velocity": 77}, {"time": 1488, "pitch": 57, "duration": 4, "velocity": 77}, {"time": 1488, "pitch": 60, "duration": 4, "velocity": 82}, {"time": 1488, "pitch": 64, "duration": 5, "velocity": 83}, {"time": 1494, "pitch": 52, "duration": 2, "velocity": 82}, {"time": 1500, "pitch": 46, "duration": 6, "velocity": 82}, {"time": 1500, "pitch": 58, "duration": 3, "velocity": 71}, {"time": 1500, "pitch": 62, "duration": 8, "velocity": 77}, {"time": 1506, "pitch": 58, "duration": 1, "velocity": 80}, {"time": 1512, "pitch": 48, "duration": 6, "velocity": 81}, {"time": 1512, "pitch": 55, "duration": 2, "velocity": 82}, {"time": 1512, "pitch": 60, "duration": 6, "velocity": 82}, {"time": 1518, "pitch": 55, "duration": 1, "velocity": 77}, {"time": 1524, "pitch": 41, "duration": 17, "velocity": 81}, {"time": 1524, "pitch": 57, "duration": 5, "velocity": 72}, {"time": 1524, "pitch": 60, "duration": 8, "velocity": 76}, {"time": 1530, "pitch": 48, "duration": 10, "velocity": 68}, {"time": 1533, "pitch": 57, "duration": 1, "velocity": 72}, {"time": 1536, "pitch": 57, "duration": 1, "velocity": 78}, {"time": 1536, "pitch": 60, "duration": 3, "velocity": 84}, {"time": 1536, "pitch": 65, "duration": 5, "velocity": 82}, {"time": 1539, "pitch": 57, "duration": 2, "velocity": 78}, {"time": 1542, "pitch": 64, "duration": 4, "velocity": 85}, {"time": 1545, "pitch": 57, "duration": 3, "velocity": 75}, {"time": 1548, "pitch": 50, "duration": 17, "velocity": 83}, {"time": 1548, "pitch": 62, "duration": 5, "velocity": 79}, {"time": 1554, "pitch": 57, "duration": 3, "velocity": 77}, {"time": 1560, "pitch": 57, "duration": 2, "velocity": 78}, {"time": 1560, "pitch": 62, "duration": 6, "velocity": 81}, {"time": 1560, "pitch": 65, "duration": 6, "velocity": 77}, {"time": 1566, "pitch": 57, "duration": 4, "velocity": 77}, {"time": 1572, "pitch": 45, "duration": 16, "velocity": 83}, {"time": 1572, "pitch": 60, "duration": 8, "velocity": 77}, {"time": 1572, "pitch": 64, "duration": 7, "velocity": 82}, {"time": 1578, "pitch": 52, "duration": 7, "velocity": 77}, {"time": 1581, "pitch": 57, "duration": 1, "velocity": 74}, {"time": 1584, "pitch": 57, "duration": 2, "velocity": 82}, {"time": 1584, "pitch": 64, "duration": 6, "velocity": 83}, {"time": 1587, "pitch": 52, "duration": 3, "velocity": 82}, {"time": 1590, "pitch": 57, "duration": 2, "velocity": 82}, {"time": 1596, "pitch": 46, "duration": 14, "velocity": 91}, {"time": 1596, "pitch": 58, "duration": 5, "velocity": 78}, {"time": 1596, "pitch": 62, "duration": 7, "velocity": 83}, {"time": 1602, "pitch": 53, "duration": 7, "velocity": 67}, {"time": 1605, "pitch": 58, "duration": 1, "velocity": 71}, {"time": 1608, "pitch": 58, "duration": 4, "velocity": 81}, {"time": 1608, "pitch": 62, "duration": 5, "velocity": 82}, {"time": 1608, "pitch": 65, "duration": 5, "velocity": 81}, {"time": 1614, "pitch": 53, "duration": 1, "velocity": 78}, {"time": 1620, "pitch": 48, "duration": 13, "velocity": 82}, {"time": 1620, "pitch": 55, "duration": 2, "velocity": 78}, {"time": 1620, "pitch": 60, "duration": 8, "velocity": 79}, {"time": 1629, "pitch": 55, "duration": 1, "velocity": 85}, {"time": 1632, "pitch": 55, "duration": 1, "velocity": 89}, {"time": 1632, "pitch": 60, "duration": 3, "velocity": 93}, {"time": 1632, "pitch": 64, "duration": 4, "velocity": 91}, {"time": 1635, "pitch": 48, "duration": 1, "velocity": 84}, {"time": 1638, "pitch": 55, "duration": 3, "velocity": 86}, {"time": 1644, "pitch": 50, "duration": 14, "velocity": 84}, {"time": 1644, "pitch": 57, "duration": 3, "velocity": 78}, {"time": 1644, "pitch": 62, "duration": 7, "velocity": 76}, {"time": 1650, "pitch": 57, "duration": 2, "velocity": 71}, {"time": 1656, "pitch": 57, "duration": 2, "velocity": 81}, {"time": 1656, "pitch": 62, "duration": 4, "velocity": 83}, {"time": 1656, "pitch": 65, "duration": 4, "velocity": 78}, {"time": 1659, "pitch": 50, "duration": 1, "velocity": 83}, {"time": 1662, "pitch": 57, "duration": 2, "velocity": 83}, {"time": 1665, "pitch": 62, "duration": 2, "velocity": 81}, {"time": 1668, "pitch": 45, "duration": 15, "velocity": 84}, {"time": 1668, "pitch": 57, "duration": 6, "velocity": 83}, {"time": 1668, "pitch": 60, "duration": 6, "velocity": 85}, {"time": 1674, "pitch": 52, "duration": 7, "velocity": 76}, {"time": 1680, "pitch": 57, "duration": 4, "velocity": 83}, {"time": 1680, "pitch": 60, "duration": 4, "velocity": 88}, {"time": 1680, "pitch": 64, "duration": 5, "velocity": 87}, {"time": 1686, "pitch": 52, "duration": 1, "velocity": 78}, {"time": 1692, "pitch": 46, "duration": 6, "velocity": 83}, {"time": 1692, "pitch": 58, "duration": 5, "velocity": 77}, {"time": 1692, "pitch": 62, "duration": 9, "velocity": 80}, {"time": 1698, "pitch": 53, "duration": 2, "velocity": 73}, {"time": 1701, "pitch": 58, "duration": 1, "velocity": 82}, {"time": 1704, "pitch": 48, "duration": 7, "velocity": 87}, {"time": 1704, "pitch": 55, "duration": 3, "velocity": 83}, {"time": 1704, "pitch": 60, "duration": 6, "velocity": 84}, {"time": 1710, "pitch": 55, "duration": 1, "velocity": 84}, {"time": 1716, "pitch": 41, "duration": 16, "velocity": 82}, {"time": 1716, "pitch": 57, "duration": 5, "velocity": 77}, {"time": 1716, "pitch": 60, "duration": 9, "velocity": 82}, {"time": 1722, "pitch": 48, "duration": 9, "velocity": 76}, {"time": 1725, "pitch": 57, "duration": 2, "velocity": 80}, {"time": 1728, "pitch": 60, "duration": 2, "velocity": 87}, {"time": 1728, "pitch": 65, "duration": 4, "velocity": 84}, {"time": 1731, "pitch": 57, "duration": 2, "velocity": 82}, {"time": 1734, "pitch": 64, "duration": 4, "velocity": 89}, {"time": 1737, "pitch": 57, "duration": 2, "velocity": 73}, {"time": 1740, "pitch": 50, "duration": 19, "velocity": 83}, {"time": 1740, "pitch": 57, "duration": 3, "velocity": 78}, {"time": 1740, "pitch": 62, "duration": 7, "velocity": 80}, {"time": 1746, "pitch": 57, "duration": 3, "velocity": 78}, {"time": 1752, "pitch": 57, "duration": 2, "velocity": 82}, {"time": 1752, "pitch": 62, "duration": 5, "velocity": 84}, {"time": 1752, "pitch": 65, "duration": 6, "velocity": 82}, {"time": 1758, "pitch": 57, "duration": 3, "velocity": 83}, {"time": 1764, "pitch": 45, "duration": 17, "velocity": 80}, {"time": 1764, "pitch": 60, "duration": 6, "velocity": 77}, {"time": 1764, "pitch": 64, "duration": 6, "velocity": 83}, {"time": 1767, "pitch": 52, "duration": 10, "velocity": 76}, {"time": 1770, "pitch": 57, "duration": 3, "velocity": 72}, {"time": 1773, "pitch": 60, "duration": 1, "velocity": 73}, {"time": 1776, "pitch": 57, "duration": 3, "velocity": 82}, {"time": 1776, "pitch": 60, "duration": 5, "velocity": 87}, {"time": 1776, "pitch": 64, "duration": 5, "velocity": 86}, {"time": 1779, "pitch": 52, "duration": 2, "velocity": 75}, {"time": 1782, "pitch": 57, "duration": 1, "velocity": 82}, {"time": 1788, "pitch": 46, "duration": 14, "velocity": 84}, {"time": 1788, "pitch": 58, "duration": 8, "velocity": 76}, {"time": 1788, "pitch": 62, "duration": 10, "velocity": 77}, {"time": 1794, "pitch": 53, "duration": 7, "velocity": 76}, {"time": 1800, "pitch": 58, "duration": 2, "velocity": 82}, {"time": 1800, "pitch": 62, "duration": 4, "velocity": 84}, {"time": 1800, "pitch": 65, "duration": 6, "velocity": 83}, {"time": 1803, "pitch": 53, "duration": 1, "velocity": 79}, {"time": 1806, "pitch": 58, "duration": 3, "velocity": 85}, {"time": 1809, "pitch": 62, "duration": 1, "velocity": 76}, {"time": 1812, "pitch": 48, "duration": 18, "velocity": 91}, {"time": 1812, "pitch": 55, "duration": 3, "velocity": 79}, {"time": 1812, "pitch": 60, "duration": 7, "velocity": 82}, {"time": 1818, "pitch": 55, "duration": 3, "velocity": 82}, {"time": 1824, "pitch": 64, "duration": 12, "velocity": 82}, {"time": 1830, "pitch": 55, "duration": 4, "velocity": 70}, {"time": 1836, "pitch": 48, "duration": 16, "velocity": 74}, {"time": 1836, "pitch": 60, "duration": 20, "velocity": 73}, {"time": 1860, "pitch": 38, "duration": 37, "velocity": 79}, {"time": 1860, "pitch": 65, "duration": 12, "velocity": 79}, {"time": 1866, "pitch": 57, "duration": 6, "velocity": 66}, {"time": 1872, "pitch": 62, "duration": 6, "velocity": 78}, {"time": 1884, "pitch": 65, "duration": 7, "velocity": 74}, {"time": 1890, "pitch": 57, "duration": 2, "velocity": 69}, {"time": 1896, "pitch": 62, "duration": 5, "velocity": 78}, {"time": 1896, "pitch": 65, "duration": 6, "velocity": 77}, {"time": 1902, "pitch": 57, "duration": 1, "velocity": 82}, {"time": 1908, "pitch": 46, "duration": 41, "velocity": 81}, {"time": 1908, "pitch": 58, "duration": 6, "velocity": 69}, {"time": 1908, "pitch": 62, "duration": 6, "velocity": 79}, {"time": 1914, "pitch": 53, "duration": 5, "velocity": 69}, {"time": 1920, "pitch": 58, "duration": 3, "velocity": 68}, {"time": 1926, "pitch": 53, "duration": 4, "velocity": 58}, {"time": 1932, "pitch": 58, "duration": 2, "velocity": 67}, {"time": 1932, "pitch": 62, "duration": 2, "velocity": 71}, {"time": 1944, "pitch": 58, "duration": 6, "velocity": 87}, {"time": 1944, "pitch": 62, "duration": 7, "velocity": 80}, {"time": 1950, "pitch": 53, "duration": 3, "velocity": 83}, {"time": 1956, "pitch": 50, "duration": 16, "velocity": 87}, {"time": 1956, "pitch": 57, "duration": 3, "velocity": 74}, {"time": 1956, "pitch": 62, "duration": 7, "velocity": 78}, {"time": 1962, "pitch": 57, "duration": 6, "velocity": 81}, {"time": 1968, "pitch": 62, "duration": 5, "velocity": 83}, {"time": 1968, "pitch": 65, "duration": 6, "velocity": 82}, {"time": 1974, "pitch": 57, "duration": 2, "velocity": 82}, {"time": 1980, "pitch": 46, "duration": 13, "velocity": 84}, {"time": 1980, "pitch": 58, "duration": 6, "velocity": 75}, {"time": 1986, "pitch": 53, "duration": 4, "velocity": 72}, {"time": 1992, "pitch": 53, "duration": 11, "velocity": 71}, {"time": 1992, "pitch": 58, "duration": 12, "velocity": 71}, {"time": 1992, "pitch": 62, "duration": 13, "velocity": 78}, {"time": 2004, "pitch": 45, "duration": 20, "velocity": 84}, {"time": 2010, "pitch": 52, "duration": 14, "velocity": 83}, {"time": 2016, "pitch": 57, "duration": 8, "velocity": 87}, {"time": 2019, "pitch": 61, "duration": 5, "velocity": 87}, {"time": 2022, "pitch": 64, "duration": 7, "velocity": 83}, {"time": 2025, "pitch": 69, "duration": 5, "velocity": 84}, {"time": 2028, "pitch": 45, "duration": 22, "velocity": 87}, {"time": 2031, "pitch": 52, "duration": 10, "velocity": 86}, {"time": 2034, "pitch": 55, "duration": 3, "velocity": 89}, {"time": 2037, "pitch": 61, "duration": 1, "velocity": 89}, {"time": 2040, "pitch": 57, "duration": 3, "velocity": 83}, {"time": 2040, "pitch": 61, "duration": 4, "velocity": 82}, {"time": 2040, "pitch": 64, "duration": 5, "velocity": 86}, {"time": 2043, "pitch": 52, "duration": 8, "velocity": 93}, {"time": 2046, "pitch": 57, "duration": 5, "velocity": 91}, {"time": 2046, "pitch": 64, "duration": 1, "velocity": 58}, {"time": 2049, "pitch": 61, "duration": 2, "velocity": 77}, {"time": 2052, "pitch": 38, "duration": 14, "velocity": 87}, {"time": 2052, "pitch": 57, "duration": 4, "velocity": 78}, {"time": 2052, "pitch": 65, "duration": 6, "velocity": 78}, {"time": 2058, "pitch": 45, "duration": 7, "velocity": 70}, {"time": 2064, "pitch": 57, "duration": 2, "velocity": 83}, {"time": 2064, "pitch": 62, "duration": 3, "velocity": 83}, {"time": 2064, "pitch": 65, "duration": 3, "velocity": 85}, {"time": 2070, "pitch": 57, "duration": 3, "velocity": 86}, {"time": 2073, "pitch": 45, "duration": 3, "velocity": 100}, {"time": 2073, "pitch": 62, "duration": 1, "velocity": 79}, {"time": 2076, "pitch": 50, "duration": 6, "velocity": 86}, {"time": 2076, "pitch": 57, "duration": 3, "velocity": 82}, {"time": 2076, "pitch": 62, "duration": 6, "velocity": 82}, {"time": 2076, "pitch": 65, "duration": 7, "velocity": 80}, {"time": 2082, "pitch": 50, "duration": 6, "velocity": 100}, {"time": 2082, "pitch": 57, "duration": 3, "velocity": 78}, {"time": 2088, "pitch": 57, "duration": 2, "velocity": 83}, {"time": 2088, "pitch": 62, "duration": 3, "velocity": 88}, {"time": 2088, "pitch": 65, "duration": 4, "velocity": 83}, {"time": 2091, "pitch": 50, "duration": 1, "velocity": 82}, {"time": 2094, "pitch": 57, "duration": 5, "velocity": 83}, {"time": 2097, "pitch": 62, "duration": 3, "velocity": 77}, {"time": 2100, "pitch": 46, "duration": 18, "velocity": 85}, {"time": 2106, "pitch": 53, "duration": 7, "velocity": 78}, {"time": 2112, "pitch": 58, "duration": 5, "velocity": 83}, {"time": 2112, "pitch": 65, "duration": 4, "velocity": 82}, {"time": 2118, "pitch": 53, "duration": 3, "velocity": 66}, {"time": 2121, "pitch": 46, "duration": 3, "velocity": 100}, {"time": 2121, "pitch": 58, "duration": 4, "velocity": 75}, {"time": 2121, "pitch": 62, "duration": 7, "velocity": 79}, {"time": 2124, "pitch": 46, "duration": 13, "velocity": 84}, {"time": 2127, "pitch": 53, "duration": 10, "velocity": 80}, {"time": 2130, "pitch": 58, "duration": 3, "velocity": 84}, {"time": 2133, "pitch": 62, "duration": 1, "velocity": 81}, {"time": 2136, "pitch": 58, "duration": 4, "velocity": 84}, {"time": 2136, "pitch": 62, "duration": 5, "velocity": 86}, {"time": 2136, "pitch": 65, "duration": 5, "velocity": 83}, {"time": 2142, "pitch": 46, "duration": 6, "velocity": 93}, {"time": 2148, "pitch": 38, "duration": 14, "velocity": 83}, {"time": 2148, "pitch": 65, "duration": 5, "velocity": 86}, {"time": 2151, "pitch": 57, "duration": 3, "velocity": 74}, {"time": 2154, "pitch": 62, "duration": 3, "velocity": 78}, {"time": 2157, "pitch": 57, "duration": 1, "velocity": 76}, {"time": 2160, "pitch": 57, "duration": 1, "velocity": 83}, {"time": 2160, "pitch": 65, "duration": 5, "velocity": 83}, {"time": 2163, "pitch": 57, "duration": 3, "velocity": 82}, {"time": 2166, "pitch": 62, "duration": 3, "velocity": 77}, {"time": 2169, "pitch": 38, "duration": 3, "velocity": 100}, {"time": 2169, "pitch": 57, "duration": 3, "velocity": 82}, {"time": 2172, "pitch": 46, "duration": 14, "velocity": 87}, {"time": 2175, "pitch": 53, "duration": 10, "velocity": 72}, {"time": 2178, "pitch": 58, "duration": 3, "velocity": 80}, {"time": 2181, "pitch": 62, "duration": 1, "velocity": 83}, {"time": 2184, "pitch": 58, "duration": 3, "velocity": 82}, {"time": 2184, "pitch": 62, "duration": 4, "velocity": 83}, {"time": 2184, "pitch": 65, "duration": 5, "velocity": 84}, {"time": 2187, "pitch": 53, "duration": 2, "velocity": 82}, {"time": 2190, "pitch": 58, "duration": 3, "velocity": 87}, {"time": 2193, "pitch": 62, "duration": 2, "velocity": 82}, {"time": 2196, "pitch": 45, "duration": 21, "velocity": 86}, {"time": 2199, "pitch": 52, "duration": 7, "velocity": 76}, {"time": 2202, "pitch": 57, "duration": 4, "velocity": 82}, {"time": 2205, "pitch": 61, "duration": 3, "velocity": 93}, {"time": 2208, "pitch": 49, "duration": 10, "velocity": 82}, {"time": 2211, "pitch": 57, "duration": 1, "velocity": 77}, {"time": 2211, "pitch": 61, "duration": 4, "velocity": 88}, {"time": 2214, "pitch": 52, "duration": 4, "velocity": 81}, {"time": 2214, "pitch": 57, "duration": 1, "velocity": 84}, {"time": 2220, "pitch": 45, "duration": 18, "velocity": 86}, {"time": 2220, "pitch": 57, "duration": 3, "velocity": 83}, {"time": 2220, "pitch": 61, "duration": 4, "velocity": 88}, {"time": 2220, "pitch": 64, "duration": 3, "velocity": 88}, {"time": 2223, "pitch": 52, "duration": 10, "velocity": 78}, {"time": 2226, "pitch": 57, "duration": 1, "velocity": 84}, {"time": 2229, "pitch": 57, "duration": 1, "velocity": 84}, {"time": 2229, "pitch": 61, "duration": 1, "velocity": 87}, {"time": 2229, "pitch": 69, "duration": 1, "velocity": 80}, {"time": 2232, "pitch": 57, "duration": 2, "velocity": 91}, {"time": 2232, "pitch": 61, "duration": 2, "velocity": 96}, {"time": 2232, "pitch": 69, "duration": 3, "velocity": 83}, {"time": 2235, "pitch": 52, "duration": 3, "velocity": 81}, {"time": 2238, "pitch": 57, "duration": 5, "velocity": 83}, {"time": 2238, "pitch": 67, "duration": 3, "velocity": 77}, {"time": 2244, "pitch": 38, "duration": 14, "velocity": 87}, {"time": 2244, "pitch": 57, "duration": 4, "velocity": 78}, {"time": 2244, "pitch": 65, "duration": 6, "velocity": 78}, {"time": 2250, "pitch": 45, "duration": 7, "velocity": 70}, {"time": 2256, "pitch": 57, "duration": 2, "velocity": 83}, {"time": 2256, "pitch": 62, "duration": 3, "velocity": 83}, {"time": 2256, "pitch": 65, "duration": 3, "velocity": 85}, {"time": 2262, "pitch": 57, "duration": 3, "velocity": 86}, {"time": 2265, "pitch": 62, "duration": 1, "velocity": 79}, {"time": 2268, "pitch": 50, "duration": 6, "velocity": 86}, {"time": 2268, "pitch": 57, "duration": 3, "velocity": 82}, {"time": 2268, "pitch": 62, "duration": 6, "velocity": 82}, {"time": 2268, "pitch": 65, "duration": 7, "velocity": 80}, {"time": 2274, "pitch": 50, "duration": 6, "velocity": 100}, {"time": 2274, "pitch": 57, "duration": 3, "velocity": 78}, {"time": 2280, "pitch": 57, "duration": 2, "velocity": 83}, {"time": 2280, "pitch": 62, "duration": 3, "velocity": 88}, {"time": 2280, "pitch": 65, "duration": 4, "velocity": 83}, {"time": 2283, "pitch": 50, "duration": 1, "velocity": 82}, {"time": 2286, "pitch": 57, "duration": 5, "velocity": 83}, {"time": 2289, "pitch": 62, "duration": 3, "velocity": 77}, {"time": 2292, "pitch": 46, "duration": 15, "velocity": 85}, {"time": 2298, "pitch": 53, "duration": 7, "velocity": 78}, {"time": 2304, "pitch": 58, "duration": 5, "velocity": 83}, {"time": 2304, "pitch": 65, "duration": 4, "velocity": 82}, {"time": 2310, "pitch": 46, "duration": 3, "velocity": 100}, {"time": 2310, "pitch": 53, "duration": 3, "velocity": 66}, {"time": 2313, "pitch": 58, "duration": 4, "velocity": 75}, {"time": 2313, "pitch": 62, "duration": 7, "velocity": 79}, {"time": 2316, "pitch": 46, "duration": 13, "velocity": 84}, {"time": 2319, "pitch": 53, "duration": 10, "velocity": 80}, {"time": 2322, "pitch": 58, "duration": 3, "velocity": 84}, {"time": 2325, "pitch": 62, "duration": 1, "velocity": 81}, {"time": 2328, "pitch": 58, "duration": 4, "velocity": 84}, {"time": 2328, "pitch": 62, "duration": 5, "velocity": 86}, {"time": 2328, "pitch": 65, "duration": 5, "velocity": 83}, {"time": 2334, "pitch": 46, "duration": 1, "velocity": 93}, {"time": 2340, "pitch": 48, "duration": 22, "velocity": 84}, {"time": 2340, "pitch": 55, "duration": 2, "velocity": 77}, {"time": 2340, "pitch": 64, "duration": 6, "velocity": 82}, {"time": 2343, "pitch": 55, "duration": 3, "velocity": 77}, {"time": 2346, "pitch": 60, "duration": 3, "velocity": 78}, {"time": 2349, "pitch": 55, "duration": 3, "velocity": 82}, {"time": 2352, "pitch": 62, "duration": 3, "velocity": 83}, {"time": 2355, "pitch": 55, "duration": 3, "velocity": 81}, {"time": 2358, "pitch": 60, "duration": 3, "velocity": 83}, {"time": 2361, "pitch": 55, "duration": 4, "velocity": 87}, {"time": 2364, "pitch": 48, "duration": 14, "velocity": 88}, {"time": 2364, "pitch": 60, "duration": 3, "velocity": 84}, {"time": 2364, "pitch": 64, "duration": 4, "velocity": 85}, {"time": 2367, "pitch": 55, "duration": 3, "velocity": 85}, {"time": 2370, "pitch": 60, "duration": 3, "velocity": 78}, {"time": 2373, "pitch": 55, "duration": 1, "velocity": 73}, {"time": 2376, "pitch": 55, "duration": 2, "velocity": 89}, {"time": 2376, "pitch": 64, "duration": 4, "velocity": 87}, {"time": 2379, "pitch": 55, "duration": 3, "velocity": 79}, {"time": 2382, "pitch": 60, "duration": 3, "velocity": 78}, {"time": 2388, "pitch": 38, "duration": 47, "velocity": 85}, {"time": 2388, "pitch": 57, "duration": 36, "velocity": 75}, {"time": 2388, "pitch": 62, "duration": 36, "velocity": 78}, {"time": 2394, "pitch": 45, "duration": 31, "velocity": 59}, {"time": 2400, "pitch": 50, "duration": 27, "velocity": 72}, {"time": 2430, "pitch": 57, "duration": 5, "velocity": 66}, {"time": 2436, "pitch": 50, "duration": 41, "velocity": 82}, {"time": 2436, "pitch": 57, "duration": 3, "velocity": 74}, {"time": 2436, "pitch": 62, "duration": 8, "velocity": 77}, {"time": 2442, "pitch": 57, "duration": 7, "velocity": 79}, {"time": 2448, "pitch": 62, "duration": 2, "velocity": 80}, {"time": 2448, "pitch": 65, "duration": 2, "velocity": 82}, {"time": 2460, "pitch": 62, "duration": 7, "velocity": 71}, {"time": 2466, "pitch": 57, "duration": 3, "velocity": 62}, {"time": 2472, "pitch": 57, "duration": 2, "velocity": 83}, {"time": 2472, "pitch": 62, "duration": 5, "velocity": 84}, {"time": 2472, "pitch": 65, "duration": 4, "velocity": 82}, {"time": 2478, "pitch": 57, "duration": 1, "velocity": 76}, {"time": 2484, "pitch": 41, "duration": 43, "velocity": 76}, {"time": 2484, "pitch": 53, "duration": 9, "velocity": 70}, {"time": 2484, "pitch": 57, "duration": 7, "velocity": 71}, {"time": 2490, "pitch": 48, "duration": 21, "velocity": 64}, {"time": 2496, "pitch": 57, "duration": 2, "velocity": 72}, {"time": 2496, "pitch": 60, "duration": 2, "velocity": 76}, {"time": 2502, "pitch": 53, "duration": 7, "velocity": 78}, {"time": 2508, "pitch": 60, "duration": 10, "velocity": 80}, {"time": 2514, "pitch": 48, "duration": 7, "velocity": 74}, {"time": 2517, "pitch": 53, "duration": 5, "velocity": 81}, {"time": 2520, "pitch": 57, "duration": 5, "velocity": 84}, {"time": 2526, "pitch": 48, "duration": 2, "velocity": 79}, {"time": 2532, "pitch": 50, "duration": 22, "velocity": 83}, {"time": 2532, "pitch": 57, "duration": 3, "velocity": 75}, {"time": 2532, "pitch": 62, "duration": 12, "velocity": 81}, {"time": 2538, "pitch": 57, "duration": 6, "velocity": 71}, {"time": 2544, "pitch": 65, "duration": 10, "velocity": 82}, {"time": 2550, "pitch": 57, "duration": 3, "velocity": 69}, {"time": 2556, "pitch": 45, "duration": 19, "velocity": 80}, {"time": 2556, "pitch": 57, "duration": 7, "velocity": 71}, {"time": 2556, "pitch": 60, "duration": 9, "velocity": 75}, {"time": 2556, "pitch": 64, "duration": 6, "velocity": 76}, {"time": 2562, "pitch": 52, "duration": 7, "velocity": 79}, {"time": 2565, "pitch": 57, "duration": 3, "velocity": 77}, {"time": 2568, "pitch": 64, "duration": 6, "velocity": 89}, {"time": 2571, "pitch": 52, "duration": 5, "velocity": 73}, {"time": 2574, "pitch": 60, "duration": 3, "velocity": 82}, {"time": 2580, "pitch": 50, "duration": 21, "velocity": 79}, {"time": 2580, "pitch": 62, "duration": 13, "velocity": 78}, {"time": 2586, "pitch": 57, "duration": 6, "velocity": 70}, {"time": 2592, "pitch": 65, "duration": 12, "velocity": 80}, {"time": 2598, "pitch": 57, "duration": 8, "velocity": 69}, {"time": 2604, "pitch": 50, "duration": 17, "velocity": 76}, {"time": 2604, "pitch": 62, "duration": 10, "velocity": 74}, {"time": 2613, "pitch": 57, "duration": 3, "velocity": 78}, {"time": 2616, "pitch": 65, "duration": 6, "velocity": 84}, {"time": 2619, "pitch": 57, "duration": 2, "velocity": 81}, {"time": 2622, "pitch": 64, "duration": 6, "velocity": 84}, {"time": 2625, "pitch": 57, "duration": 3, "velocity": 73}, {"time": 2628, "pitch": 46, "duration": 28, "velocity": 80}, {"time": 2628, "pitch": 62, "duration": 8, "velocity": 69}, {"time": 2634, "pitch": 53, "duration": 7, "velocity": 69}, {"time": 2640, "pitch": 58, "duration": 7, "velocity": 77}, {"time": 2640, "pitch": 62, "duration": 7, "velocity": 80}, {"time": 2646, "pitch": 53, "duration": 8, "velocity": 68}, {"time": 2652, "pitch": 58, "duration": 9, "velocity": 76}, {"time": 2658, "pitch": 46, "duration": 10, "velocity": 77}, {"time": 2661, "pitch": 53, "duration": 7, "velocity": 83}, {"time": 2664, "pitch": 58, "duration": 3, "velocity": 87}, {"time": 2667, "pitch": 62, "duration": 3, "velocity": 82}, {"time": 2670, "pitch": 58, "duration": 2, "velocity": 89}, {"time": 2676, "pitch": 48, "duration": 20, "velocity": 77}, {"time": 2676, "pitch": 55, "duration": 3, "velocity": 78}, {"time": 2676, "pitch": 60, "duration": 6, "velocity": 78}, {"time": 2682, "pitch": 55, "duration": 6, "velocity": 77}, {"time": 2688, "pitch": 60, "duration": 2, "velocity": 77}, {"time": 2688, "pitch": 64, "duration": 3, "velocity": 82}, {"time": 2700, "pitch": 48, "duration": 15, "velocity": 79}, {"time": 2700, "pitch": 55, "duration": 3, "velocity": 69}, {"time": 2700, "pitch": 60, "duration": 7, "velocity": 73}, {"time": 2706, "pitch": 55, "duration": 3, "velocity": 66}, {"time": 2712, "pitch": 55, "duration": 2, "velocity": 84}, {"time": 2712, "pitch": 60, "duration": 3, "velocity": 84}, {"time": 2712, "pitch": 64, "duration": 5, "velocity": 85}, {"time": 2724, "pitch": 50, "duration": 18, "velocity": 77}, {"time": 2724, "pitch": 57, "duration": 2, "velocity": 76}, {"time": 2724, "pitch": 62, "duration": 6, "velocity": 78}, {"time": 2730, "pitch": 57, "duration": 3, "velocity": 71}, {"time": 2736, "pitch": 62, "duration": 2, "velocity": 83}, {"time": 2736, "pitch": 65, "duration": 6, "velocity": 81}, {"time": 2742, "pitch": 57, "duration": 3, "velocity": 78}, {"time": 2748, "pitch": 50, "duration": 11, "velocity": 84}, {"time": 2748, "pitch": 57, "duration": 3, "velocity": 82}, {"time": 2748, "pitch": 62, "duration": 6, "velocity": 83}, {"time": 2754, "pitch": 57, "duration": 1, "velocity": 85}, {"time": 2757, "pitch": 57, "duration": 2, "velocity": 85}, {"time": 2760, "pitch": 50, "duration": 3, "velocity": 85}, {"time": 2760, "pitch": 62, "duration": 3, "velocity": 85}, {"time": 2760, "pitch": 65, "duration": 4, "velocity": 85}, {"time": 2763, "pitch": 38, "duration": 3, "velocity": 85}, {"time": 2763, "pitch": 57, "duration": 3, "velocity": 85}, {"time": 2766, "pitch": 50, "duration": 3, "velocity": 85}, {"time": 2766, "pitch": 62, "duration": 2, "velocity": 85}, {"time": 2769, "pitch": 48, "duration": 3, "velocity": 85}, {"time": 2769, "pitch": 57, "duration": 1, "velocity": 85}, {"time": 2772, "pitch": 46, "duration": 16, "velocity": 89}, {"time": 2772, "pitch": 58, "duration": 6, "velocity": 89}, {"time": 2778, "pitch": 53, "duration": 6, "velocity": 84}, {"time": 2784, "pitch": 58, "duration": 6, "velocity": 82}, {"time": 2784, "pitch": 62, "duration": 4, "velocity": 82}, {"time": 2790, "pitch": 53, "duration": 3, "velocity": 81}, {"time": 2793, "pitch": 46, "duration": 3, "velocity": 81}, {"time": 2793, "pitch": 58, "duration": 1, "velocity": 80}, {"time": 2796, "pitch": 48, "duration": 13, "velocity": 79}, {"time": 2796, "pitch": 60, "duration": 6, "velocity": 79}, {"time": 2802, "pitch": 55, "duration": 5, "velocity": 82}, {"time": 2808, "pitch": 60, "duration": 5, "velocity": 82}, {"time": 2808, "pitch": 64, "duration": 4, "velocity": 83}, {"time": 2814, "pitch": 55, "duration": 1, "velocity": 77}, {"time": 2820, "pitch": 41, "duration": 19, "velocity": 82}, {"time": 2820, "pitch": 53, "duration": 9, "velocity": 72}, {"time": 2820, "pitch": 60, "duration": 8, "velocity": 68}, {"time": 2826, "pitch": 48, "duration": 7, "velocity": 83}, {"time": 2832, "pitch": 53, "duration": 3, "velocity": 82}, {"time": 2832, "pitch": 57, "duration": 8, "velocity": 82}, {"time": 2832, "pitch": 60, "duration": 6, "velocity": 83}, {"time": 2838, "pitch": 48, "duration": 2, "velocity": 80}, {"time": 2841, "pitch": 41, "duration": 3, "velocity": 81}, {"time": 2844, "pitch": 50, "duration": 13, "velocity": 79}, {"time": 2844, "pitch": 57, "duration": 3, "velocity": 79}, {"time": 2844, "pitch": 62, "duration": 6, "velocity": 79}, {"time": 2850, "pitch": 57, "duration": 4, "velocity": 78}, {"time": 2853, "pitch": 62, "duration": 2, "velocity": 77}, {"time": 2856, "pitch": 65, "duration": 5, "velocity": 76}, {"time": 2859, "pitch": 57, "duration": 3, "velocity": 76}, {"time": 2862, "pitch": 50, "duration": 3, "velocity": 76}, {"time": 2862, "pitch": 62, "duration": 2, "velocity": 76}, {"time": 2865, "pitch": 48, "duration": 3, "velocity": 77}, {"time": 2868, "pitch": 46, "duration": 16, "velocity": 77}, {"time": 2868, "pitch": 58, "duration": 7, "velocity": 79}, {"time": 2868, "pitch": 62, "duration": 10, "velocity": 79}, {"time": 2874, "pitch": 53, "duration": 9, "velocity": 80}, {"time": 2880, "pitch": 58, "duration": 4, "velocity": 80}, {"time": 2880, "pitch": 65, "duration": 6, "velocity": 80}, {"time": 2886, "pitch": 58, "duration": 4, "velocity": 80}, {"time": 2886, "pitch": 62, "duration": 3, "velocity": 80}, {"time": 2889, "pitch": 46, "duration": 3, "velocity": 81}, {"time": 2892, "pitch": 48, "duration": 15, "velocity": 82}, {"time": 2892, "pitch": 55, "duration": 3, "velocity": 82}, {"time": 2892, "pitch": 60, "duration": 7, "velocity": 82}, {"time": 2898, "pitch": 55, "duration": 4, "velocity": 82}, {"time": 2904, "pitch": 55, "duration": 3, "velocity": 82}, {"time": 2904, "pitch": 60, "duration": 6, "velocity": 82}, {"time": 2904, "pitch": 64, "duration": 9, "velocity": 82}, {"time": 2910, "pitch": 55, "duration": 2, "velocity": 79}, {"time": 2916, "pitch": 41, "duration": 21, "velocity": 79}, {"time": 2916, "pitch": 57, "duration": 6, "velocity": 79}, {"time": 2916, "pitch": 60, "duration": 9, "velocity": 79}, {"time": 2922, "pitch": 48, "duration": 13, "velocity": 79}, {"time": 2925, "pitch": 57, "duration": 3, "velocity": 79}, {"time": 2928, "pitch": 65, "duration": 4, "velocity": 79}, {"time": 2931, "pitch": 60, "duration": 4, "velocity": 79}, {"time": 2934, "pitch": 57, "duration": 6, "velocity": 79}, {"time": 2937, "pitch": 41, "duration": 3, "velocity": 79}, {"time": 2937, "pitch": 60, "duration": 9, "velocity": 79}, {"time": 2940, "pitch": 41, "duration": 18, "velocity": 79}, {"time": 2943, "pitch": 48, "duration": 10, "velocity": 79}, {"time": 2946, "pitch": 57, "duration": 3, "velocity": 79}, {"time": 2949, "pitch": 60, "duration": 1, "velocity": 79}, {"time": 2952, "pitch": 57, "duration": 5, "velocity": 79}, {"time": 2952, "pitch": 60, "duration": 5, "velocity": 79}, {"time": 2952, "pitch": 65, "duration": 6, "velocity": 79}, {"time": 2958, "pitch": 48, "duration": 3, "velocity": 79}, {"time": 2964, "pitch": 43, "duration": 21, "velocity": 79}, {"time": 2964, "pitch": 55, "duration": 6, "velocity": 79}, {"time": 2964, "pitch": 62, "duration": 5, "velocity": 79}, {"time": 2970, "pitch": 50, "duration": 7, "velocity": 79}, {"time": 2976, "pitch": 55, "duration": 6, "velocity": 79}, {"time": 2976, "pitch": 58, "duration": 7, "velocity": 79}, {"time": 2982, "pitch": 50, "duration": 4, "velocity": 79}, {"time": 2985, "pitch": 43, "duration": 3, "velocity": 79}, {"time": 2985, "pitch": 55, "duration": 3, "velocity": 79}, {"time": 2985, "pitch": 58, "duration": 8, "velocity": 79}, {"time": 2988, "pitch": 43, "duration": 18, "velocity": 79}, {"time": 2991, "pitch": 50, "duration": 11, "velocity": 79}, {"time": 2994, "pitch": 55, "duration": 4, "velocity": 79}, {"time": 2997, "pitch": 58, "duration": 2, "velocity": 79}, {"time": 3000, "pitch": 55, "duration": 5, "velocity": 79}, {"time": 3000, "pitch": 62, "duration": 6, "velocity": 79}, {"time": 3006, "pitch": 50, "duration": 1, "velocity": 79}, {"time": 3012, "pitch": 45, "duration": 19, "velocity": 79}, {"time": 3012, "pitch": 57, "duration": 6, "velocity": 79}, {"time": 3012, "pitch": 61, "duration": 7, "velocity": 79}, {"time": 3018, "pitch": 52, "duration": 7, "velocity": 79}, {"time": 3021, "pitch": 57, "duration": 1, "velocity": 79}, {"time": 3024, "pitch": 61, "duration": 3, "velocity": 79}, {"time": 3027, "pitch": 57, "duration": 3, "velocity": 79}, {"time": 3030, "pitch": 52, "duration": 3, "velocity": 79}, {"time": 3033, "pitch": 45, "duration": 3, "velocity": 79}, {"time": 3033, "pitch": 57, "duration": 1, "velocity": 79}, {"time": 3036, "pitch": 50, "duration": 13, "velocity": 79}, {"time": 3036, "pitch": 62, "duration": 3, "velocity": 79}, {"time": 3039, "pitch": 57, "duration": 3, "velocity": 79}, {"time": 3042, "pitch": 62, "duration": 2, "velocity": 79}, {"time": 3045, "pitch": 57, "duration": 2, "velocity": 79}, {"time": 3048, "pitch": 65, "duration": 5, "velocity": 79}, {"time": 3051, "pitch": 57, "duration": 2, "velocity": 79}, {"time": 3054, "pitch": 50, "duration": 3, "velocity": 79}, {"time": 3054, "pitch": 64, "duration": 3, "velocity": 79}, {"time": 3057, "pitch": 48, "duration": 3, "velocity": 79}, {"time": 3057, "pitch": 57, "duration": 3, "velocity": 79}, {"time": 3060, "pitch": 46, "duration": 20, "velocity": 79}, {"time": 3060, "pitch": 62, "duration": 7, "velocity": 79}, {"time": 3066, "pitch": 53, "duration": 9, "velocity": 79}, {"time": 3072, "pitch": 58, "duration": 5, "velocity": 78}, {"time": 3072, "pitch": 62, "duration": 10, "velocity": 79}, {"time": 3078, "pitch": 53, "duration": 4, "velocity": 77}, {"time": 3081, "pitch": 46, "duration": 3, "velocity": 78}, {"time": 3081, "pitch": 58, "duration": 6, "velocity": 78}, {"time": 3087, "pitch": 46, "duration": 15, "velocity": 75}, {"time": 3087, "pitch": 53, "duration": 13, "velocity": 75}, {"time": 3090, "pitch": 58, "duration": 4, "velocity": 75}, {"time": 3096, "pitch": 58, "duration": 3, "velocity": 74}, {"time": 3096, "pitch": 62, "duration": 3, "velocity": 74}, {"time": 3096, "pitch": 65, "duration": 3, "velocity": 74}, {"time": 3102, "pitch": 58, "duration": 2, "velocity": 74}, {"time": 3108, "pitch": 45, "duration": 6, "velocity": 74}, {"time": 3108, "pitch": 57, "duration": 6, "velocity": 74}, {"time": 3108, "pitch": 61, "duration": 7, "velocity": 74}, {"time": 3114, "pitch": 45, "duration": 6, "velocity": 75}, {"time": 3114, "pitch": 52, "duration": 7, "velocity": 76}, {"time": 3120, "pitch": 45, "duration": 6, "velocity": 76}, {"time": 3120, "pitch": 57, "duration": 5, "velocity": 78}, {"time": 3120, "pitch": 61, "duration": 5, "velocity": 78}, {"time": 3120, "pitch": 64, "duration": 5, "velocity": 78}, {"time": 3126, "pitch": 45, "duration": 6, "velocity": 78}, {"time": 3126, "pitch": 52, "duration": 3, "velocity": 79}, {"time": 3129, "pitch": 57, "duration": 4, "velocity": 79}, {"time": 3129, "pitch": 61, "duration": 3, "velocity": 79}, {"time": 3129, "pitch": 64, "duration": 3, "velocity": 79}, {"time": 3132, "pitch": 45, "duration": 3, "velocity": 79}, {"time": 3135, "pitch": 45, "duration": 3, "velocity": 79}, {"time": 3135, "pitch": 57, "duration": 2, "velocity": 79}, {"time": 3135, "pitch": 61, "duration": 4, "velocity": 79}, {"time": 3135, "pitch": 64, "duration": 3, "velocity": 79}, {"time": 3138, "pitch": 52, "duration": 8, "velocity": 79}, {"time": 3141, "pitch": 55, "duration": 3, "velocity": 79}, {"time": 3144, "pitch": 45, "duration": 6, "velocity": 79}, {"time": 3144, "pitch": 61, "duration": 8, "velocity": 79}, {"time": 3147, "pitch": 52, "duration": 4, "velocity": 79}, {"time": 3150, "pitch": 45, "duration": 3, "velocity": 79}, {"time": 3150, "pitch": 57, "duration": 4, "velocity": 79}, {"time": 3153, "pitch": 48, "duration": 3, "velocity": 79}, {"time": 3156, "pitch": 50, "duration": 16, "velocity": 79}, {"time": 3156, "pitch": 57, "duration": 4, "velocity": 79}, {"time": 3156, "pitch": 62, "duration": 8, "velocity": 79}, {"time": 3162, "pitch": 57, "duration": 6, "velocity": 79}, {"time": 3168, "pitch": 62, "duration": 3, "velocity": 79}, {"time": 3168, "pitch": 65, "duration": 5, "velocity": 79}, {"time": 3171, "pitch": 57, "duration": 5, "velocity": 80}, {"time": 3174, "pitch": 62, "duration": 3, "velocity": 80}, {"time": 3177, "pitch": 65, "duration": 8, "velocity": 69}, {"time": 3180, "pitch": 45, "duration": 16, "velocity": 83}, {"time": 3183, "pitch": 52, "duration": 11, "velocity": 76}, {"time": 3186, "pitch": 57, "duration": 3, "velocity": 72}, {"time": 3189, "pitch": 60, "duration": 1, "velocity": 77}, {"time": 3192, "pitch": 57, "duration": 4, "velocity": 77}, {"time": 3192, "pitch": 60, "duration": 4, "velocity": 82}, {"time": 3192, "pitch": 64, "duration": 5, "velocity": 83}, {"time": 3198, "pitch": 52, "duration": 2, "velocity": 82}, {"time": 3204, "pitch": 46, "duration": 6, "velocity": 82}, {"time": 3204, "pitch": 58, "duration": 3, "velocity": 71}, {"time": 3204, "pitch": 62, "duration": 8, "velocity": 77}, {"time": 3210, "pitch": 58, "duration": 1, "velocity": 80}, {"time": 3216, "pitch": 48, "duration": 6, "velocity": 81}, {"time": 3216, "pitch": 55, "duration": 2, "velocity": 82}, {"time": 3216, "pitch": 60, "duration": 6, "velocity": 82}, {"time": 3222, "pitch": 55, "duration": 1, "velocity": 77}, {"time": 3228, "pitch": 41, "duration": 17, "velocity": 81}, {"time": 3228, "pitch": 57, "duration": 5, "velocity": 72}, {"time": 3228, "pitch": 60, "duration": 8, "velocity": 76}, {"time": 3234, "pitch": 48, "duration": 10, "velocity": 68}, {"time": 3237, "pitch": 57, "duration": 1, "velocity": 72}, {"time": 3240, "pitch": 57, "duration": 1, "velocity": 78}, {"time": 3240, "pitch": 60, "duration": 3, "velocity": 84}, {"time": 3240, "pitch": 65, "duration": 5, "velocity": 82}, {"time": 3243, "pitch": 57, "duration": 2, "velocity": 78}, {"time": 3246, "pitch": 64, "duration": 4, "velocity": 85}, {"time": 3249, "pitch": 57, "duration": 3, "velocity": 75}, {"time": 3252, "pitch": 50, "duration": 17, "velocity": 83}, {"time": 3252, "pitch": 62, "duration": 5, "velocity": 79}, {"time": 3258, "pitch": 57, "duration": 3, "velocity": 77}, {"time": 3264, "pitch": 57, "duration": 2, "velocity": 78}, {"time": 3264, "pitch": 62, "duration": 6, "velocity": 81}, {"time": 3264, "pitch": 65, "duration": 6, "velocity": 77}, {"time": 3270, "pitch": 57, "duration": 4, "velocity": 77}, {"time": 3276, "pitch": 45, "duration": 16, "velocity": 83}, {"time": 3276, "pitch": 60, "duration": 8, "velocity": 77}, {"time": 3276, "pitch": 64, "duration": 7, "velocity": 82}, {"time": 3282, "pitch": 52, "duration": 7, "velocity": 77}, {"time": 3285, "pitch": 57, "duration": 1, "velocity": 74}, {"time": 3288, "pitch": 57, "duration": 2, "velocity": 82}, {"time": 3288, "pitch": 64, "duration": 6, "velocity": 83}, {"time": 3291, "pitch": 52, "duration": 3, "velocity": 82}, {"time": 3294, "pitch": 57, "duration": 2, "velocity": 82}, {"time": 3300, "pitch": 46, "duration": 14, "velocity": 91}, {"time": 3300, "pitch": 58, "duration": 5, "velocity": 78}, {"time": 3300, "pitch": 62, "duration": 7, "velocity": 83}, {"time": 3306, "pitch": 53, "duration": 7, "velocity": 67}, {"time": 3309, "pitch": 58, "duration": 1, "velocity": 71}, {"time": 3312, "pitch": 58, "duration": 4, "velocity": 81}, {"time": 3312, "pitch": 62, "duration": 5, "velocity": 82}, {"time": 3312, "pitch": 65, "duration": 5, "velocity": 81}, {"time": 3318, "pitch": 53, "duration": 1, "velocity": 78}, {"time": 3324, "pitch": 48, "duration": 13, "velocity": 82}, {"time": 3324, "pitch": 55, "duration": 2, "velocity": 78}, {"time": 3324, "pitch": 60, "duration": 8, "velocity": 79}, {"time": 3333, "pitch": 55, "duration": 1, "velocity": 85}, {"time": 3336, "pitch": 55, "duration": 1, "velocity": 89}, {"time": 3336, "pitch": 60, "duration": 3, "velocity": 93}, {"time": 3336, "pitch": 64, "duration": 4, "velocity": 91}, {"time": 3339, "pitch": 48, "duration": 1, "velocity": 84}, {"time": 3342, "pitch": 55, "duration": 3, "velocity": 86}, {"time": 3348, "pitch": 50, "duration": 14, "velocity": 84}, {"time": 3348, "pitch": 57, "duration": 3, "velocity": 78}, {"time": 3348, "pitch": 62, "duration": 7, "velocity": 76}, {"time": 3354, "pitch": 57, "duration": 2, "velocity": 71}, {"time": 3360, "pitch": 57, "duration": 2, "velocity": 81}, {"time": 3360, "pitch": 62, "duration": 4, "velocity": 83}, {"time": 3360, "pitch": 65, "duration": 4, "velocity": 78}, {"time": 3363, "pitch": 50, "duration": 1, "velocity": 83}, {"time": 3366, "pitch": 57, "duration": 2, "velocity": 83}, {"time": 3369, "pitch": 62, "duration": 2, "velocity": 81}, {"time": 3372, "pitch": 45, "duration": 15, "velocity": 84}, {"time": 3372, "pitch": 57, "duration": 6, "velocity": 83}, {"time": 3372, "pitch": 60, "duration": 6, "velocity": 85}, {"time": 3378, "pitch": 52, "duration": 7, "velocity": 76}, {"time": 3384, "pitch": 57, "duration": 4, "velocity": 83}, {"time": 3384, "pitch": 60, "duration": 4, "velocity": 88}, {"time": 3384, "pitch": 64, "duration": 5, "velocity": 87}, {"time": 3390, "pitch": 52, "duration": 1, "velocity": 78}, {"time": 3396, "pitch": 46, "duration": 6, "velocity": 83}, {"time": 3396, "pitch": 58, "duration": 5, "velocity": 77}, {"time": 3396, "pitch": 62, "duration": 9, "velocity": 80}, {"time": 3402, "pitch": 53, "duration": 2, "velocity": 73}, {"time": 3405, "pitch": 58, "duration": 1, "velocity": 82}, {"time": 3408, "pitch": 48, "duration": 7, "velocity": 87}, {"time": 3408, "pitch": 55, "duration": 3, "velocity": 83}, {"time": 3408, "pitch": 60, "duration": 6, "velocity": 84}, {"time": 3414, "pitch": 55, "duration": 1, "velocity": 84}, {"time": 3420, "pitch": 41, "duration": 16, "velocity": 82}, {"time": 3420, "pitch": 57, "duration": 5, "velocity": 77}, {"time": 3420, "pitch": 60, "duration": 9, "velocity": 82}, {"time": 3426, "pitch": 48, "duration": 9, "velocity": 76}, {"time": 3429, "pitch": 57, "duration": 2, "velocity": 80}, {"time": 3432, "pitch": 60, "duration": 2, "velocity": 87}, {"time": 3432, "pitch": 65, "duration": 4, "velocity": 84}, {"time": 3435, "pitch": 57, "duration": 2, "velocity": 82}, {"time": 3438, "pitch": 64, "duration": 4, "velocity": 89}, {"time": 3441, "pitch": 57, "duration": 2, "velocity": 73}, {"time": 3444, "pitch": 50, "duration": 19, "velocity": 83}, {"time": 3444, "pitch": 57, "duration": 3, "velocity": 78}, {"time": 3444, "pitch": 62, "duration": 7, "velocity": 80}, {"time": 3450, "pitch": 57, "duration": 3, "velocity": 78}, {"time": 3456, "pitch": 57, "duration": 2, "velocity": 82}, {"time": 3456, "pitch": 62, "duration": 5, "velocity": 84}, {"time": 3456, "pitch": 65, "duration": 6, "velocity": 82}, {"time": 3462, "pitch": 57, "duration": 3, "velocity": 83}, {"time": 3468, "pitch": 45, "duration": 17, "velocity": 80}, {"time": 3468, "pitch": 60, "duration": 6, "velocity": 77}, {"time": 3468, "pitch": 64, "duration": 6, "velocity": 83}, {"time": 3471, "pitch": 52, "duration": 10, "velocity": 76}, {"time": 3474, "pitch": 57, "duration": 3, "velocity": 72}, {"time": 3477, "pitch": 60, "duration": 1, "velocity": 73}, {"time": 3480, "pitch": 57, "duration": 3, "velocity": 82}, {"time": 3480, "pitch": 60, "duration": 5, "velocity": 87}, {"time": 3480, "pitch": 64, "duration": 5, "velocity": 86}, {"time": 3483, "pitch": 52, "duration": 2, "velocity": 75}, {"time": 3486, "pitch": 57, "duration": 1, "velocity": 82}, {"time": 3492, "pitch": 46, "duration": 14, "velocity": 84}, {"time": 3492, "pitch": 58, "duration": 8, "velocity": 76}, {"time": 3492, "pitch": 62, "duration": 10, "velocity": 77}, {"time": 3498, "pitch": 53, "duration": 7, "velocity": 76}, {"time": 3504, "pitch": 58, "duration": 2, "velocity": 82}, {"time": 3504, "pitch": 62, "duration": 4, "velocity": 84}, {"time": 3504, "pitch": 65, "duration": 6, "velocity": 83}, {"time": 3507, "pitch": 53, "duration": 1, "velocity": 79}, {"time": 3510, "pitch": 58, "duration": 3, "velocity": 85}, {"time": 3513, "pitch": 62, "duration": 1, "velocity": 76}, {"time": 3516, "pitch": 48, "duration": 18, "velocity": 91}, {"time": 3516, "pitch": 55, "duration": 3, "velocity": 79}, {"time": 3516, "pitch": 60, "duration": 7, "velocity": 82}, {"time": 3522, "pitch": 55, "duration": 3, "velocity": 82}, {"time": 3528, "pitch": 64, "duration": 9, "velocity": 82}, {"time": 3534, "pitch": 55, "duration": 4, "velocity": 70}, {"time": 3540, "pitch": 50, "duration": 16, "velocity": 79}, {"time": 3540, "pitch": 57, "duration": 4, "velocity": 79}, {"time": 3540, "pitch": 62, "duration": 8, "velocity": 79}, {"time": 3546, "pitch": 57, "duration": 6, "velocity": 79}, {"time": 3552, "pitch": 62, "duration": 3, "velocity": 79}, {"time": 3552, "pitch": 65, "duration": 5, "velocity": 79}, {"time": 3555, "pitch": 57, "duration": 5, "velocity": 80}, {"time": 3558, "pitch": 62, "duration": 3, "velocity": 80}, {"time": 3561, "pitch": 65, "duration": 8, "velocity": 69}, {"time": 3564, "pitch": 45, "duration": 16, "velocity": 83}, {"time": 3567, "pitch": 52, "duration": 11, "velocity": 76}, {"time": 3570, "pitch": 57, "duration": 3, "velocity": 72}, {"time": 3573, "pitch": 60, "duration": 1, "velocity": 77}, {"time": 3576, "pitch": 57, "duration": 4, "velocity": 77}, {"time": 3576, "pitch": 60, "duration": 4, "velocity": 82}, {"time": 3576, "pitch": 64, "duration": 5, "velocity": 83}, {"time": 3582, "pitch": 52, "duration": 2, "velocity": 82}, {"time": 3588, "pitch": 46, "duration": 6, "velocity": 82}, {"time": 3588, "pitch": 58, "duration": 3, "velocity": 71}, {"time": 3588, "pitch": 62, "duration": 8, "velocity": 77}, {"time": 3594, "pitch": 58, "duration": 1, "velocity": 80}, {"time": 3600, "pitch": 48, "duration": 6, "velocity": 81}, {"time": 3600, "pitch": 55, "duration": 2, "velocity": 82}, {"time": 3600, "pitch": 60, "duration": 6, "velocity": 82}, {"time": 3606, "pitch": 55, "duration": 1, "velocity": 77}, {"time": 3612, "pitch": 41, "duration": 17, "velocity": 81}, {"time": 3612, "pitch": 57, "duration": 5, "velocity": 72}, {"time": 3612, "pitch": 60, "duration": 8, "velocity": 76}, {"time": 3618, "pitch": 48, "duration": 10, "velocity": 68}, {"time": 3621, "pitch": 57, "duration": 1, "velocity": 72}, {"time": 3624, "pitch": 57, "duration": 1, "velocity": 78}, {"time": 3624, "pitch": 60, "duration": 3, "velocity": 84}, {"time": 3624, "pitch": 65, "duration": 5, "velocity": 82}, {"time": 3627, "pitch": 57, "duration": 2, "velocity": 78}, {"time": 3630, "pitch": 64, "duration": 4, "velocity": 85}, {"time": 3633, "pitch": 57, "duration": 3, "velocity": 75}, {"time": 3636, "pitch": 50, "duration": 17, "velocity": 83}, {"time": 3636, "pitch": 62, "duration": 5, "velocity": 79}, {"time": 3642, "pitch": 57, "duration": 3, "velocity": 77}, {"time": 3648, "pitch": 57, "duration": 2, "velocity": 78}, {"time": 3648, "pitch": 62, "duration": 6, "velocity": 81}, {"time": 3648, "pitch": 65, "duration": 6, "velocity": 77}, {"time": 3654, "pitch": 57, "duration": 4, "velocity": 77}, {"time": 3660, "pitch": 45, "duration": 16, "velocity": 83}, {"time": 3660, "pitch": 60, "duration": 8, "velocity": 77}, {"time": 3660, "pitch": 64, "duration": 7, "velocity": 82}, {"time": 3666, "pitch": 52, "duration": 7, "velocity": 77}, {"time": 3669, "pitch": 57, "duration": 1, "velocity": 74}, {"time": 3672, "pitch": 57, "duration": 2, "velocity": 82}, {"time": 3672, "pitch": 64, "duration": 6, "velocity": 83}, {"time": 3675, "pitch": 52, "duration": 3, "velocity": 82}, {"time": 3678, "pitch": 57, "duration": 2, "velocity": 82}, {"time": 3684, "pitch": 46, "duration": 14, "velocity": 91}, {"time": 3684, "pitch": 58, "duration": 5, "velocity": 78}, {"time": 3684, "pitch": 62, "duration": 7, "velocity": 83}, {"time": 3690, "pitch": 53, "duration": 7, "velocity": 67}, {"time": 3693, "pitch": 58, "duration": 1, "velocity": 71}, {"time": 3696, "pitch": 58, "duration": 4, "velocity": 81}, {"time": 3696, "pitch": 62, "duration": 5, "velocity": 82}, {"time": 3696, "pitch": 65, "duration": 5, "velocity": 81}, {"time": 3702, "pitch": 53, "duration": 1, "velocity": 78}, {"time": 3708, "pitch": 48, "duration": 13, "velocity": 82}, {"time": 3708, "pitch": 55, "duration": 2, "velocity": 78}, {"time": 3708, "pitch": 60, "duration": 8, "velocity": 79}, {"time": 3717, "pitch": 55, "duration": 1, "velocity": 85}, {"time": 3720, "pitch": 55, "duration": 1, "velocity": 89}, {"time": 3720, "pitch": 60, "duration": 3, "velocity": 93}, {"time": 3720, "pitch": 64, "duration": 4, "velocity": 91}, {"time": 3723, "pitch": 48, "duration": 1, "velocity": 84}, {"time": 3726, "pitch": 55, "duration": 3, "velocity": 86}, {"time": 3732, "pitch": 50, "duration": 14, "velocity": 84}, {"time": 3732, "pitch": 57, "duration": 3, "velocity": 78}, {"time": 3732, "pitch": 62, "duration": 7, "velocity": 76}, {"time": 3738, "pitch": 57, "duration": 2, "velocity": 71}, {"time": 3744, "pitch": 57, "duration": 2, "velocity": 81}, {"time": 3744, "pitch": 62, "duration": 4, "velocity": 83}, {"time": 3744, "pitch": 65, "duration": 4, "velocity": 78}, {"time": 3747, "pitch": 50, "duration": 1, "velocity": 83}, {"time": 3750, "pitch": 57, "duration": 2, "velocity": 83}, {"time": 3753, "pitch": 62, "duration": 2, "velocity": 81}, {"time": 3756, "pitch": 45, "duration": 15, "velocity": 84}, {"time": 3756, "pitch": 57, "duration": 6, "velocity": 83}, {"time": 3756, "pitch": 60, "duration": 6, "velocity": 85}, {"time": 3762, "pitch": 52, "duration": 7, "velocity": 76}, {"time": 3768, "pitch": 57, "duration": 4, "velocity": 83}, {"time": 3768, "pitch": 60, "duration": 4, "velocity": 88}, {"time": 3768, "pitch": 64, "duration": 5, "velocity": 87}, {"time": 3774, "pitch": 52, "duration": 1, "velocity": 78}, {"time": 3780, "pitch": 46, "duration": 6, "velocity": 83}, {"time": 3780, "pitch": 58, "duration": 5, "velocity": 77}, {"time": 3780, "pitch": 62, "duration": 9, "velocity": 80}, {"time": 3786, "pitch": 53, "duration": 2, "velocity": 73}, {"time": 3789, "pitch": 58, "duration": 1, "velocity": 82}, {"time": 3792, "pitch": 48, "duration": 7, "velocity": 87}, {"time": 3792, "pitch": 55, "duration": 3, "velocity": 83}, {"time": 3792, "pitch": 60, "duration": 6, "velocity": 84}, {"time": 3798, "pitch": 55, "duration": 1, "velocity": 84}, {"time": 3804, "pitch": 41, "duration": 16, "velocity": 82}, {"time": 3804, "pitch": 57, "duration": 5, "velocity": 77}, {"time": 3804, "pitch": 60, "duration": 9, "velocity": 82}, {"time": 3810, "pitch": 48, "duration": 9, "velocity": 76}, {"time": 3813, "pitch": 57, "duration": 2, "velocity": 80}, {"time": 3816, "pitch": 60, "duration": 2, "velocity": 87}, {"time": 3816, "pitch": 65, "duration": 4, "velocity": 84}, {"time": 3819, "pitch": 57, "duration": 2, "velocity": 82}, {"time": 3822, "pitch": 64, "duration": 4, "velocity": 89}, {"time": 3825, "pitch": 57, "duration": 2, "velocity": 73}, {"time": 3828, "pitch": 50, "duration": 19, "velocity": 83}, {"time": 3828, "pitch": 57, "duration": 3, "velocity": 78}, {"time": 3828, "pitch": 62, "duration": 7, "velocity": 80}, {"time": 3834, "pitch": 57, "duration": 3, "velocity": 78}, {"time": 3840, "pitch": 57, "duration": 2, "velocity": 82}, {"time": 3840, "pitch": 62, "duration": 5, "velocity": 84}, {"time": 3840, "pitch": 65, "duration": 6, "velocity": 82}, {"time": 3846, "pitch": 57, "duration": 3, "velocity": 83}, {"time": 3852, "pitch": 45, "duration": 17, "velocity": 80}, {"time": 3852, "pitch": 60, "duration": 6, "velocity": 77}, {"time": 3852, "pitch": 64, "duration": 6, "velocity": 83}, {"time": 3855, "pitch": 52, "duration": 10, "velocity": 76}, {"time": 3858, "pitch": 57, "duration": 3, "velocity": 72}, {"time": 3861, "pitch": 60, "duration": 1, "velocity": 73}, {"time": 3864, "pitch": 57, "duration": 3, "velocity": 82}, {"time": 3864, "pitch": 60, "duration": 5, "velocity": 87}, {"time": 3864, "pitch": 64, "duration": 5, "velocity": 86}, {"time": 3867, "pitch": 52, "duration": 2, "velocity": 75}, {"time": 3870, "pitch": 57, "duration": 1, "velocity": 82}, {"time": 3876, "pitch": 46, "duration": 14, "velocity": 84}, {"time": 3876, "pitch": 58, "duration": 8, "velocity": 76}, {"time": 3876, "pitch": 62, "duration": 10, "velocity": 77}, {"time": 3882, "pitch": 53, "duration": 7, "velocity": 76}, {"time": 3888, "pitch": 58, "duration": 2, "velocity": 82}, {"time": 3888, "pitch": 62, "duration": 4, "velocity": 84}, {"time": 3888, "pitch": 65, "duration": 6, "velocity": 83}, {"time": 3891, "pitch": 53, "duration": 1, "velocity": 79}, {"time": 3894, "pitch": 58, "duration": 3, "velocity": 85}, {"time": 3897, "pitch": 62, "duration": 1, "velocity": 76}, {"time": 3900, "pitch": 48, "duration": 18, "velocity": 91}, {"time": 3900, "pitch": 55, "duration": 3, "velocity": 79}, {"time": 3900, "pitch": 60, "duration": 7, "velocity": 82}, {"time": 3906, "pitch": 55, "duration": 3, "velocity": 82}, {"time": 3912, "pitch": 64, "duration": 12, "velocity": 82}, {"time": 3918, "pitch": 55, "duration": 4, "velocity": 70}, {"time": 3924, "pitch": 48, "duration": 16, "velocity": 74}, {"time": 3924, "pitch": 60, "duration": 20, "velocity": 73}, {"time": 3948, "pitch": 38, "duration": 37, "velocity": 79}, {"time": 3948, "pitch": 65, "duration": 12, "velocity": 79}, {"time": 3954, "pitch": 57, "duration": 6, "velocity": 66}, {"time": 3960, "pitch": 62, "duration": 6, "velocity": 78}, {"time": 3972, "pitch": 65, "duration": 7, "velocity": 74}, {"time": 3978, "pitch": 57, "duration": 2, "velocity": 69}, {"time": 3984, "pitch": 62, "duration": 5, "velocity": 78}, {"time": 3984, "pitch": 65, "duration": 6, "velocity": 77}, {"time": 3990, "pitch": 57, "duration": 1, "velocity": 82}, {"time": 3996, "pitch": 46, "duration": 41, "velocity": 81}, {"time": 3996, "pitch": 58, "duration": 6, "velocity": 69}, {"time": 3996, "pitch": 62, "duration": 6, "velocity": 79}, {"time": 4002, "pitch": 53, "duration": 5, "velocity": 69}, {"time": 4008, "pitch": 58, "duration": 3, "velocity": 68}, {"time": 4014, "pitch": 53, "duration": 4, "velocity": 58}, {"time": 4020, "pitch": 58, "duration": 2, "velocity": 67}, {"time": 4020, "pitch": 62, "duration": 2, "velocity": 71}, {"time": 4032, "pitch": 58, "duration": 6, "velocity": 87}, {"time": 4032, "pitch": 62, "duration": 7, "velocity": 80}, {"time": 4038, "pitch": 53, "duration": 3, "velocity": 83}, {"time": 4044, "pitch": 48, "duration": 20, "velocity": 83}, {"time": 4044, "pitch": 55, "duration": 3, "velocity": 76}, {"time": 4044, "pitch": 60, "duration": 7, "velocity": 76}, {"time": 4050, "pitch": 55, "duration": 7, "velocity": 82}, {"time": 4056, "pitch": 60, "duration": 4, "velocity": 74}, {"time": 4056, "pitch": 64, "duration": 4, "velocity": 83}, {"time": 4068, "pitch": 48, "duration": 14, "velocity": 78}, {"time": 4068, "pitch": 55, "duration": 2, "velocity": 73}, {"time": 4068, "pitch": 60, "duration": 6, "velocity": 71}, {"time": 4074, "pitch": 55, "duration": 6, "velocity": 75}, {"time": 4080, "pitch": 60, "duration": 3, "velocity": 82}, {"time": 4080, "pitch": 64, "duration": 4, "velocity": 85}, {"time": 4092, "pitch": 38, "duration": 40, "velocity": 88}, {"time": 4096, "pitch": 45, "duration": 36, "velocity": 66}, {"time": 4099, "pitch": 50, "duration": 3, "velocity": 72}, {"time": 4101, "pitch": 52, "duration": 3, "velocity": 82}, {"time": 4103, "pitch": 53, "duration": 4, "velocity": 71}, {"time": 4106, "pitch": 57, "duration": 2, "velocity": 61}, {"time": 4121, "pitch": 57, "duration": 10, "velocity": 52}, {"time": 4122, "pitch": 62, "duration": 9, "velocity": 68}], "annotations": [{"time": 14, "annotation": {"number": 64, "value": 127}, "group": "control_change"}, {"time": 14, "annotation": {"number": 64, "value": 0}, "group": "control_change"}, {"time": 16, "annotation": {"number": 64, "value": 0}, "group": "control_change"}, {"time": 48, "annotation": {"number": 64, "value": 127}, "group": "control_change"}, {"time": 57, "annotation": {"number": 64, "value": 0}, "group": "control_change"}, {"time": 60, "annotation": {"number": 64, "value": 127}, "group": "control_change"}, {"time": 107, "annotation": {"number": 64, "value": 0}, "group": "control_change"}, {"time": 110, "annotation": {"number": 64, "value": 127}, "group": "control_change"}, {"time": 153, "annotation": {"number": 64, "value": 0}, "group": "control_change"}, {"time": 158, "annotation": {"number": 64, "value": 127}, "group": "control_change"}, {"time": 200, "annotation": {"number": 64, "value": 0}, "group": "control_change"}, {"time": 204, "annotation": {"number": 64, "value": 127}, "group": "control_change"}, {"time": 250, "annotation": {"number": 64, "value": 0}, "group": "control_change"}, {"time": 255, "annotation": {"number": 64, "value": 127}, "group": "control_change"}, {"time": 255, "annotation": {"number": 64, "value": 0}, "group": "control_change"}, {"time": 299, "annotation": {"number": 64, "value": 0}, "group": "control_change"}, {"time": 302, "annotation": {"number": 64, "value": 127}, "group": "control_change"}, {"time": 346, "annotation": {"number": 64, "value": 0}, "group": "control_change"}, {"time": 352, "annotation": {"number": 64, "value": 127}, "group": "control_change"}, {"time": 393, "annotation": {"number": 64, "value": 0}, "group": "control_change"}, {"time": 396, "annotation": {"number": 64, "value": 127}, "group": "control_change"}, {"time": 443, "annotation": {"number": 64, "value": 0}, "group": "control_change"}, {"time": 449, "annotation": {"number": 64, "value": 127}, "group": "control_change"}, {"time": 491, "annotation": {"number": 64, "value": 0}, "group": "control_change"}, {"time": 494, "annotation": {"number": 64, "value": 127}, "group": "control_change"}, {"time": 494, "annotation": {"number": 64, "value": 0}, "group": "control_change"}, {"time": 515, "annotation": {"number": 64, "value": 0}, "group": "control_change"}, {"time": 520, "annotation": {"number": 64, "value": 127}, "group": "control_change"}, {"time": 538, "annotation": {"number": 64, "value": 0}, "group": "control_change"}, {"time": 542, "annotation": {"number": 64, "value": 127}, "group": "control_change"}, {"time": 585, "annotation": {"number": 64, "value": 0}, "group": "control_change"}, {"time": 589, "annotation": {"number": 64, "value": 127}, "group": "control_change"}, {"time": 634, "annotation": {"number": 64, "value": 0}, "group": "control_change"}, {"time": 640, "annotation": {"number": 64, "value": 127}, "group": "control_change"}, {"time": 681, "annotation": {"number": 64, "value": 0}, "group": "control_change"}, {"time": 684, "annotation": {"number": 64, "value": 127}, "group": "control_change"}, {"time": 730, "annotation": {"number": 64, "value": 0}, "group": "control_change"}, {"time": 736, "annotation": {"number": 64, "value": 127}, "group": "control_change"}, {"time": 778, "annotation": {"number": 64, "value": 0}, "group": "control_change"}, {"time": 786, "annotation": {"number": 64, "value": 127}, "group": "control_change"}, {"time": 826, "annotation": {"number": 64, "value": 0}, "group": "control_change"}, {"time": 829, "annotation": {"number": 64, "value": 127}, "group": "control_change"}, {"time": 829, "annotation": {"number": 64, "value": 0}, "group": "control_change"}, {"time": 830, "annotation": {"number": 64, "value": 127}, "group": "control_change"}, {"time": 851, "annotation": {"number": 64, "value": 0}, "group": "control_change"}, {"time": 857, "annotation": {"number": 64, "value": 127}, "group": "control_change"}, {"time": 874, "annotation": {"number": 64, "value": 0}, "group": "control_change"}, {"time": 877, "annotation": {"number": 64, "value": 127}, "group": "control_change"}, {"time": 900, "annotation": {"number": 64, "value": 0}, "group": "control_change"}, {"time": 903, "annotation": {"number": 64, "value": 127}, "group": "control_change"}, {"time": 921, "annotation": {"number": 64, "value": 0}, "group": "control_change"}, {"time": 925, "annotation": {"number": 64, "value": 127}, "group": "control_change"}, {"time": 970, "annotation": {"number": 64, "value": 0}, "group": "control_change"}, {"time": 973, "annotation": {"number": 64, "value": 127}, "group": "control_change"}, {"time": 1018, "annotation": {"number": 64, "value": 0}, "group": "control_change"}, {"time": 1021, "annotation": {"number": 64, "value": 127}, "group": "control_change"}, {"time": 1043, "annotation": {"number": 64, "value": 0}, "group": "control_change"}, {"time": 1045, "annotation": {"number": 64, "value": 127}, "group": "control_change"}, {"time": 1066, "annotation": {"number": 64, "value": 0}, "group": "control_change"}, {"time": 1068, "annotation": {"number": 64, "value": 127}, "group": "control_change"}, {"time": 1090, "annotation": {"number": 64, "value": 0}, "group": "control_change"}, {"time": 1092, "annotation": {"number": 64, "value": 127}, "group": "control_change"}, {"time": 1114, "annotation": {"number": 64, "value": 0}, "group": "control_change"}, {"time": 1118, "annotation": {"number": 64, "value": 127}, "group": "control_change"}, {"time": 1138, "annotation": {"number": 64, "value": 0}, "group": "control_change"}, {"time": 1141, "annotation": {"number": 64, "value": 127}, "group": "control_change"}, {"time": 1161, "annotation": {"number": 64, "value": 0}, "group": "control_change"}, {"time": 1164, "annotation": {"number": 64, "value": 127}, "group": "control_change"}, {"time": 1186, "annotation": {"number": 64, "value": 0}, "group": "control_change"}, {"time": 1189, "annotation": {"number": 64, "value": 127}, "group": "control_change"}, {"time": 1209, "annotation": {"number": 64, "value": 0}, "group": "control_change"}, {"time": 1213, "annotation": {"number": 64, "value": 127}, "group": "control_change"}, {"time": 1234, "annotation": {"number": 64, "value": 0}, "group": "control_change"}, {"time": 1237, "annotation": {"number": 64, "value": 127}, "group": "control_change"}, {"time": 1257, "annotation": {"number": 64, "value": 0}, "group": "control_change"}, {"time": 1261, "annotation": {"number": 64, "value": 127}, "group": "control_change"}, {"time": 1284, "annotation": {"number": 64, "value": 0}, "group": "control_change"}, {"time": 1287, "annotation": {"number": 64, "value": 127}, "group": "control_change"}, {"time": 1306, "annotation": {"number": 64, "value": 0}, "group": "control_change"}, {"time": 1310, "annotation": {"number": 64, "value": 127}, "group": "control_change"}, {"time": 1330, "annotation": {"number": 64, "value": 0}, "group": "control_change"}, {"time": 1333, "annotation": {"number": 64, "value": 127}, "group": "control_change"}, {"time": 1354, "annotation": {"number": 64, "value": 0}, "group": "control_change"}, {"time": 1358, "annotation": {"number": 64, "value": 127}, "group": "control_change"}, {"time": 1378, "annotation": {"number": 64, "value": 0}, "group": "control_change"}, {"time": 1382, "annotation": {"number": 64, "value": 127}, "group": "control_change"}, {"time": 1402, "annotation": {"number": 64, "value": 0}, "group": "control_change"}, {"time": 1406, "annotation": {"number": 64, "value": 127}, "group": "control_change"}, {"time": 1450, "annotation": {"number": 64, "value": 0}, "group": "control_change"}, {"time": 1457, "annotation": {"number": 64, "value": 127}, "group": "control_change"}, {"time": 1474, "annotation": {"number": 64, "value": 0}, "group": "control_change"}, {"time": 1480, "annotation": {"number": 64, "value": 127}, "group": "control_change"}, {"time": 1498, "annotation": {"number": 64, "value": 0}, "group": "control_change"}, {"time": 1502, "annotation": {"number": 64, "value": 127}, "group": "control_change"}, {"time": 1510, "annotation": {"number": 64, "value": 0}, "group": "control_change"}, {"time": 1513, "annotation": {"number": 64, "value": 127}, "group": "control_change"}, {"time": 1513, "annotation": {"number": 64, "value": 0}, "group": "control_change"}, {"time": 1521, "annotation": {"number": 64, "value": 0}, "group": "control_change"}, {"time": 1525, "annotation": {"number": 64, "value": 127}, "group": "control_change"}, {"time": 1545, "annotation": {"number": 64, "value": 0}, "group": "control_change"}, {"time": 1548, "annotation": {"number": 64, "value": 127}, "group": "control_change"}, {"time": 1571, "annotation": {"number": 64, "value": 0}, "group": "control_change"}, {"time": 1575, "annotation": {"number": 64, "value": 127}, "group": "control_change"}, {"time": 1593, "annotation": {"number": 64, "value": 0}, "group": "control_change"}, {"time": 1597, "annotation": {"number": 64, "value": 127}, "group": "control_change"}, {"time": 1618, "annotation": {"number": 64, "value": 0}, "group": "control_change"}, {"time": 1621, "annotation": {"number": 64, "value": 127}, "group": "control_change"}, {"time": 1642, "annotation": {"number": 64, "value": 0}, "group": "control_change"}, {"time": 1644, "annotation": {"number": 64, "value": 127}, "group": "control_change"}, {"time": 1667, "annotation": {"number": 64, "value": 0}, "group": "control_change"}, {"time": 1669, "annotation": {"number": 64, "value": 127}, "group": "control_change"}, {"time": 1669, "annotation": {"number": 64, "value": 0}, "group": "control_change"}, {"time": 1670, "annotation": {"number": 64, "value": 127}, "group": "control_change"}, {"time": 1689, "annotation": {"number": 64, "value": 0}, "group": "control_change"}, {"time": 1692, "annotation": {"number": 64, "value": 127}, "group": "control_change"}, {"time": 1702, "annotation": {"number": 64, "value": 0}, "group": "control_change"}, {"time": 1704, "annotation": {"number": 64, "value": 127}, "group": "control_change"}, {"time": 1714, "annotation": {"number": 64, "value": 0}, "group": "control_change"}, {"time": 1718, "annotation": {"number": 64, "value": 127}, "group": "control_change"}, {"time": 1737, "annotation": {"number": 64, "value": 0}, "group": "control_change"}, {"time": 1739, "annotation": {"number": 64, "value": 127}, "group": "control_change"}, {"time": 1761, "annotation": {"number": 64, "value": 0}, "group": "control_change"}, {"time": 1765, "annotation": {"number": 64, "value": 127}, "group": "control_change"}, {"time": 1785, "annotation": {"number": 64, "value": 0}, "group": "control_change"}, {"time": 1791, "annotation": {"number": 64, "value": 127}, "group": "control_change"}, {"time": 1810, "annotation": {"number": 64, "value": 0}, "group": "control_change"}, {"time": 1812, "annotation": {"number": 64, "value": 127}, "group": "control_change"}, {"time": 1858, "annotation": {"number": 64, "value": 0}, "group": "control_change"}, {"time": 1860, "annotation": {"number": 64, "value": 127}, "group": "control_change"}, {"time": 1906, "annotation": {"number": 64, "value": 0}, "group": "control_change"}, {"time": 1911, "annotation": {"number": 64, "value": 127}, "group": "control_change"}, {"time": 1911, "annotation": {"number": 64, "value": 0}, "group": "control_change"}, {"time": 1955, "annotation": {"number": 64, "value": 0}, "group": "control_change"}, {"time": 1959, "annotation": {"number": 64, "value": 127}, "group": "control_change"}, {"time": 1959, "annotation": {"number": 64, "value": 0}, "group": "control_change"}, {"time": 1978, "annotation": {"number": 64, "value": 0}, "group": "control_change"}, {"time": 1980, "annotation": {"number": 64, "value": 127}, "group": "control_change"}, {"time": 2001, "annotation": {"number": 64, "value": 0}, "group": "control_change"}, {"time": 2005, "annotation": {"number": 64, "value": 127}, "group": "control_change"}, {"time": 2026, "annotation": {"number": 64, "value": 0}, "group": "control_change"}, {"time": 2028, "annotation": {"number": 64, "value": 127}, "group": "control_change"}, {"time": 2049, "annotation": {"number": 64, "value": 0}, "group": "control_change"}, {"time": 2052, "annotation": {"number": 64, "value": 127}, "group": "control_change"}, {"time": 2074, "annotation": {"number": 64, "value": 0}, "group": "control_change"}, {"time": 2075, "annotation": {"number": 64, "value": 127}, "group": "control_change"}, {"time": 2098, "annotation": {"number": 64, "value": 0}, "group": "control_change"}, {"time": 2100, "annotation": {"number": 64, "value": 127}, "group": "control_change"}, {"time": 2146, "annotation": {"number": 64, "value": 0}, "group": "control_change"}, {"time": 2147, "annotation": {"number": 64, "value": 127}, "group": "control_change"}, {"time": 2147, "annotation": {"number": 64, "value": 0}, "group": "control_change"}, {"time": 2169, "annotation": {"number": 64, "value": 0}, "group": "control_change"}, {"time": 2172, "annotation": {"number": 64, "value": 127}, "group": "control_change"}, {"time": 2194, "annotation": {"number": 64, "value": 0}, "group": "control_change"}, {"time": 2197, "annotation": {"number": 64, "value": 127}, "group": "control_change"}, {"time": 2219, "annotation": {"number": 64, "value": 0}, "group": "control_change"}, {"time": 2220, "annotation": {"number": 64, "value": 127}, "group": "control_change"}, {"time": 2242, "annotation": {"number": 64, "value": 0}, "group": "control_change"}, {"time": 2244, "annotation": {"number": 64, "value": 127}, "group": "control_change"}, {"time": 2266, "annotation": {"number": 64, "value": 0}, "group": "control_change"}, {"time": 2267, "annotation": {"number": 64, "value": 127}, "group": "control_change"}, {"time": 2290, "annotation": {"number": 64, "value": 0}, "group": "control_change"}, {"time": 2292, "annotation": {"number": 64, "value": 127}, "group": "control_change"}, {"time": 2338, "annotation": {"number": 64, "value": 0}, "group": "control_change"}, {"time": 2339, "annotation": {"number": 64, "value": 127}, "group": "control_change"}, {"time": 2339, "annotation": {"number": 64, "value": 0}, "group": "control_change"}, {"time": 2340, "annotation": {"number": 64, "value": 0}, "group": "control_change"}, {"time": 2340, "annotation": {"number": 64, "value": 127}, "group": "control_change"}, {"time": 2361, "annotation": {"number": 64, "value": 0}, "group": "control_change"}, {"time": 2364, "annotation": {"number": 64, "value": 127}, "group": "control_change"}, {"time": 2385, "annotation": {"number": 64, "value": 0}, "group": "control_change"}, {"time": 2388, "annotation": {"number": 64, "value": 127}, "group": "control_change"}, {"time": 2434, "annotation": {"number": 64, "value": 0}, "group": "control_change"}, {"time": 2440, "annotation": {"number": 64, "value": 127}, "group": "control_change"}, {"time": 2482, "annotation": {"number": 64, "value": 0}, "group": "control_change"}, {"time": 2490, "annotation": {"number": 64, "value": 127}, "group": "control_change"}, {"time": 2530, "annotation": {"number": 64, "value": 0}, "group": "control_change"}, {"time": 2533, "annotation": {"number": 64, "value": 127}, "group": "control_change"}, {"time": 2533, "annotation": {"number": 64, "value": 0}, "group": "control_change"}, {"time": 2534, "annotation": {"number": 64, "value": 127}, "group": "control_change"}, {"time": 2555, "annotation": {"number": 64, "value": 0}, "group": "control_change"}, {"time": 2561, "annotation": {"number": 64, "value": 127}, "group": "control_change"}, {"time": 2578, "annotation": {"number": 64, "value": 0}, "group": "control_change"}, {"time": 2581, "annotation": {"number": 64, "value": 127}, "group": "control_change"}, {"time": 2604, "annotation": {"number": 64, "value": 0}, "group": "control_change"}, {"time": 2607, "annotation": {"number": 64, "value": 127}, "group": "control_change"}, {"time": 2625, "annotation": {"number": 64, "value": 0}, "group": "control_change"}, {"time": 2629, "annotation": {"number": 64, "value": 127}, "group": "control_change"}, {"time": 2674, "annotation": {"number": 64, "value": 0}, "group": "control_change"}, {"time": 2677, "annotation": {"number": 64, "value": 127}, "group": "control_change"}, {"time": 2722, "annotation": {"number": 64, "value": 0}, "group": "control_change"}, {"time": 2725, "annotation": {"number": 64, "value": 127}, "group": "control_change"}, {"time": 2747, "annotation": {"number": 64, "value": 0}, "group": "control_change"}, {"time": 2749, "annotation": {"number": 64, "value": 127}, "group": "control_change"}, {"time": 2770, "annotation": {"number": 64, "value": 0}, "group": "control_change"}, {"time": 2772, "annotation": {"number": 64, "value": 127}, "group": "control_change"}, {"time": 2794, "annotation": {"number": 64, "value": 0}, "group": "control_change"}, {"time": 2796, "annotation": {"number": 64, "value": 127}, "group": "control_change"}, {"time": 2818, "annotation": {"number": 64, "value": 0}, "group": "control_change"}, {"time": 2822, "annotation": {"number": 64, "value": 127}, "group": "control_change"}, {"time": 2842, "annotation": {"number": 64, "value": 0}, "group": "control_change"}, {"time": 2845, "annotation": {"number": 64, "value": 127}, "group": "control_change"}, {"time": 2865, "annotation": {"number": 64, "value": 0}, "group": "control_change"}, {"time": 2868, "annotation": {"number": 64, "value": 127}, "group": "control_change"}, {"time": 2890, "annotation": {"number": 64, "value": 0}, "group": "control_change"}, {"time": 2893, "annotation": {"number": 64, "value": 127}, "group": "control_change"}, {"time": 2913, "annotation": {"number": 64, "value": 0}, "group": "control_change"}, {"time": 2917, "annotation": {"number": 64, "value": 127}, "group": "control_change"}, {"time": 2938, "annotation": {"number": 64, "value": 0}, "group": "control_change"}, {"time": 2941, "annotation": {"number": 64, "value": 127}, "group": "control_change"}, {"time": 2961, "annotation": {"number": 64, "value": 0}, "group": "control_change"}, {"time": 2965, "annotation": {"number": 64, "value": 127}, "group": "control_change"}, {"time": 2988, "annotation": {"number": 64, "value": 0}, "group": "control_change"}, {"time": 2991, "annotation": {"number": 64, "value": 127}, "group": "control_change"}, {"time": 3010, "annotation": {"number": 64, "value": 0}, "group": "control_change"}, {"time": 3014, "annotation": {"number": 64, "value": 127}, "group": "control_change"}, {"time": 3034, "annotation": {"number": 64, "value": 0}, "group": "control_change"}, {"time": 3037, "annotation": {"number": 64, "value": 127}, "group": "control_change"}, {"time": 3058, "annotation": {"number": 64, "value": 0}, "group": "control_change"}, {"time": 3062, "annotation": {"number": 64, "value": 127}, "group": "control_change"}, {"time": 3082, "annotation": {"number": 64, "value": 0}, "group": "control_change"}, {"time": 3086, "annotation": {"number": 64, "value": 127}, "group": "control_change"}, {"time": 3106, "annotation": {"number": 64, "value": 0}, "group": "control_change"}, {"time": 3110, "annotation": {"number": 64, "value": 127}, "group": "control_change"}, {"time": 3154, "annotation": {"number": 64, "value": 0}, "group": "control_change"}, {"time": 3161, "annotation": {"number": 64, "value": 127}, "group": "control_change"}, {"time": 3178, "annotation": {"number": 64, "value": 0}, "group": "control_change"}, {"time": 3184, "annotation": {"number": 64, "value": 127}, "group": "control_change"}, {"time": 3202, "annotation": {"number": 64, "value": 0}, "group": "control_change"}, {"time": 3206, "annotation": {"number": 64, "value": 127}, "group": "control_change"}, {"time": 3214, "annotation": {"number": 64, "value": 0}, "group": "control_change"}, {"time": 3217, "annotation": {"number": 64, "value": 127}, "group": "control_change"}, {"time": 3217, "annotation": {"number": 64, "value": 0}, "group": "control_change"}, {"time": 3225, "annotation": {"number": 64, "value": 0}, "group": "control_change"}, {"time": 3229, "annotation": {"number": 64, "value": 127}, "group": "control_change"}, {"time": 3249, "annotation": {"number": 64, "value": 0}, "group": "control_change"}, {"time": 3252, "annotation": {"number": 64, "value": 127}, "group": "control_change"}, {"time": 3275, "annotation": {"number": 64, "value": 0}, "group": "control_change"}, {"time": 3279, "annotation": {"number": 64, "value": 127}, "group": "control_change"}, {"time": 3297, "annotation": {"number": 64, "value": 0}, "group": "control_change"}, {"time": 3301, "annotation": {"number": 64, "value": 127}, "group": "control_change"}, {"time": 3322, "annotation": {"number": 64, "value": 0}, "group": "control_change"}, {"time": 3325, "annotation": {"number": 64, "value": 127}, "group": "control_change"}, {"time": 3346, "annotation": {"number": 64, "value": 0}, "group": "control_change"}, {"time": 3348, "annotation": {"number": 64, "value": 127}, "group": "control_change"}, {"time": 3371, "annotation": {"number": 64, "value": 0}, "group": "control_change"}, {"time": 3373, "annotation": {"number": 64, "value": 127}, "group": "control_change"}, {"time": 3373, "annotation": {"number": 64, "value": 0}, "group": "control_change"}, {"time": 3374, "annotation": {"number": 64, "value": 127}, "group": "control_change"}, {"time": 3393, "annotation": {"number": 64, "value": 0}, "group": "control_change"}, {"time": 3396, "annotation": {"number": 64, "value": 127}, "group": "control_change"}, {"time": 3406, "annotation": {"number": 64, "value": 0}, "group": "control_change"}, {"time": 3408, "annotation": {"number": 64, "value": 127}, "group": "control_change"}, {"time": 3418, "annotation": {"number": 64, "value": 0}, "group": "control_change"}, {"time": 3422, "annotation": {"number": 64, "value": 127}, "group": "control_change"}, {"time": 3441, "annotation": {"number": 64, "value": 0}, "group": "control_change"}, {"time": 3443, "annotation": {"number": 64, "value": 127}, "group": "control_change"}, {"time": 3465, "annotation": {"number": 64, "value": 0}, "group": "control_change"}, {"time": 3469, "annotation": {"number": 64, "value": 127}, "group": "control_change"}, {"time": 3489, "annotation": {"number": 64, "value": 0}, "group": "control_change"}, {"time": 3495, "annotation": {"number": 64, "value": 127}, "group": "control_change"}, {"time": 3514, "annotation": {"number": 64, "value": 0}, "group": "control_change"}, {"time": 3516, "annotation": {"number": 64, "value": 127}, "group": "control_change"}, {"time": 3545, "annotation": {"number": 64, "value": 127}, "group": "control_change"}, {"time": 3562, "annotation": {"number": 64, "value": 0}, "group": "control_change"}, {"time": 3568, "annotation": {"number": 64, "value": 127}, "group": "control_change"}, {"time": 3586, "annotation": {"number": 64, "value": 0}, "group": "control_change"}, {"time": 3590, "annotation": {"number": 64, "value": 127}, "group": "control_change"}, {"time": 3598, "annotation": {"number": 64, "value": 0}, "group": "control_change"}, {"time": 3601, "annotation": {"number": 64, "value": 127}, "group": "control_change"}, {"time": 3601, "annotation": {"number": 64, "value": 0}, "group": "control_change"}, {"time": 3609, "annotation": {"number": 64, "value": 0}, "group": "control_change"}, {"time": 3613, "annotation": {"number": 64, "value": 127}, "group": "control_change"}, {"time": 3633, "annotation": {"number": 64, "value": 0}, "group": "control_change"}, {"time": 3636, "annotation": {"number": 64, "value": 127}, "group": "control_change"}, {"time": 3659, "annotation": {"number": 64, "value": 0}, "group": "control_change"}, {"time": 3663, "annotation": {"number": 64, "value": 127}, "group": "control_change"}, {"time": 3681, "annotation": {"number": 64, "value": 0}, "group": "control_change"}, {"time": 3685, "annotation": {"number": 64, "value": 127}, "group": "control_change"}, {"time": 3706, "annotation": {"number": 64, "value": 0}, "group": "control_change"}, {"time": 3709, "annotation": {"number": 64, "value": 127}, "group": "control_change"}, {"time": 3730, "annotation": {"number": 64, "value": 0}, "group": "control_change"}, {"time": 3732, "annotation": {"number": 64, "value": 127}, "group": "control_change"}, {"time": 3755, "annotation": {"number": 64, "value": 0}, "group": "control_change"}, {"time": 3757, "annotation": {"number": 64, "value": 127}, "group": "control_change"}, {"time": 3757, "annotation": {"number": 64, "value": 0}, "group": "control_change"}, {"time": 3758, "annotation": {"number": 64, "value": 127}, "group": "control_change"}, {"time": 3777, "annotation": {"number": 64, "value": 0}, "group": "control_change"}, {"time": 3780, "annotation": {"number": 64, "value": 127}, "group": "control_change"}, {"time": 3790, "annotation": {"number": 64, "value": 0}, "group": "control_change"}, {"time": 3792, "annotation": {"number": 64, "value": 127}, "group": "control_change"}, {"time": 3802, "annotation": {"number": 64, "value": 0}, "group": "control_change"}, {"time": 3806, "annotation": {"number": 64, "value": 127}, "group": "control_change"}, {"time": 3825, "annotation": {"number": 64, "value": 0}, "group": "control_change"}, {"time": 3827, "annotation": {"number": 64, "value": 127}, "group": "control_change"}, {"time": 3849, "annotation": {"number": 64, "value": 0}, "group": "control_change"}, {"time": 3853, "annotation": {"number": 64, "value": 127}, "group": "control_change"}, {"time": 3873, "annotation": {"number": 64, "value": 0}, "group": "control_change"}, {"time": 3879, "annotation": {"number": 64, "value": 127}, "group": "control_change"}, {"time": 3898, "annotation": {"number": 64, "value": 0}, "group": "control_change"}, {"time": 3900, "annotation": {"number": 64, "value": 127}, "group": "control_change"}, {"time": 3946, "annotation": {"number": 64, "value": 0}, "group": "control_change"}, {"time": 3948, "annotation": {"number": 64, "value": 127}, "group": "control_change"}, {"time": 3994, "annotation": {"number": 64, "value": 0}, "group": "control_change"}, {"time": 3999, "annotation": {"number": 64, "value": 127}, "group": "control_change"}, {"time": 3999, "annotation": {"number": 64, "value": 0}, "group": "control_change"}, {"time": 4043, "annotation": {"number": 64, "value": 0}, "group": "control_change"}, {"time": 4046, "annotation": {"number": 64, "value": 127}, "group": "control_change"}, {"time": 4090, "annotation": {"number": 64, "value": 0}, "group": "control_change"}, {"time": 4094, "annotation": {"number": 64, "value": 127}, "group": "control_change"}, {"time": 4094, "annotation": {"number": 64, "value": 0}, "group": "control_change"}, {"time": 4095, "annotation": {"number": 64, "value": 0}, "group": "control_change"}, {"time": 4095, "annotation": {"number": 64, "value": 127}, "group": "control_change"}, {"time": 4158, "annotation": {"number": 64, "value": 0}, "group": "control_change"}]}]}