{"metadata": {"schema_version": "0.2", "title": "None", "source_filename": "298.mid", "source_format": "midi"}, "resolution": 12, "tempos": [{"time": 0, "qpm": 96.99995311668933}], "key_signatures": [{"time": 0, "root": 0, "mode": "major"}], "time_signatures": [{"time": 0, "numerator": 4, "denominator": 4}], "tracks": [{"program": 4, "is_drum": false, "name": "MELODY", "notes": [{"time": 396, "pitch": 68, "duration": 6, "velocity": 113}, {"time": 402, "pitch": 68, "duration": 6, "velocity": 104}, {"time": 408, "pitch": 77, "duration": 12, "velocity": 108}, {"time": 420, "pitch": 77, "duration": 24, "velocity": 110}, {"time": 444, "pitch": 73, "duration": 7, "velocity": 91}, {"time": 450, "pitch": 75, "duration": 6, "velocity": 91}, {"time": 456, "pitch": 80, "duration": 12, "velocity": 104}, {"time": 468, "pitch": 80, "duration": 24, "velocity": 104}, {"time": 492, "pitch": 80, "duration": 6, "velocity": 100}, {"time": 498, "pitch": 72, "duration": 6, "velocity": 96}, {"time": 504, "pitch": 72, "duration": 12, "velocity": 100}, {"time": 516, "pitch": 73, "duration": 24, "velocity": 96}, {"time": 540, "pitch": 73, "duration": 9, "velocity": 93}, {"time": 549, "pitch": 73, "duration": 3, "velocity": 83}, {"time": 552, "pitch": 72, "duration": 12, "velocity": 93}, {"time": 564, "pitch": 77, "duration": 24, "velocity": 107}, {"time": 588, "pitch": 68, "duration": 12, "velocity": 107}, {"time": 600, "pitch": 70, "duration": 24, "velocity": 104}, {"time": 624, "pitch": 72, "duration": 24, "velocity": 104}, {"time": 648, "pitch": 80, "duration": 12, "velocity": 107}, {"time": 660, "pitch": 77, "duration": 12, "velocity": 110}, {"time": 672, "pitch": 73, "duration": 18, "velocity": 107}, {"time": 690, "pitch": 73, "duration": 6, "velocity": 107}, {"time": 696, "pitch": 70, "duration": 36, "velocity": 107}, {"time": 732, "pitch": 73, "duration": 12, "velocity": 104}, {"time": 744, "pitch": 75, "duration": 36, "velocity": 110}, {"time": 780, "pitch": 68, "duration": 6, "velocity": 113}, {"time": 786, "pitch": 68, "duration": 6, "velocity": 104}, {"time": 792, "pitch": 77, "duration": 12, "velocity": 108}, {"time": 804, "pitch": 77, "duration": 24, "velocity": 110}, {"time": 828, "pitch": 73, "duration": 7, "velocity": 91}, {"time": 834, "pitch": 75, "duration": 6, "velocity": 91}, {"time": 840, "pitch": 80, "duration": 12, "velocity": 104}, {"time": 852, "pitch": 80, "duration": 24, "velocity": 104}, {"time": 876, "pitch": 80, "duration": 6, "velocity": 100}, {"time": 882, "pitch": 72, "duration": 6, "velocity": 96}, {"time": 888, "pitch": 72, "duration": 12, "velocity": 100}, {"time": 900, "pitch": 73, "duration": 24, "velocity": 96}, {"time": 924, "pitch": 73, "duration": 9, "velocity": 93}, {"time": 933, "pitch": 73, "duration": 3, "velocity": 83}, {"time": 936, "pitch": 72, "duration": 12, "velocity": 93}, {"time": 948, "pitch": 77, "duration": 24, "velocity": 107}, {"time": 972, "pitch": 68, "duration": 12, "velocity": 107}, {"time": 984, "pitch": 70, "duration": 24, "velocity": 104}, {"time": 1008, "pitch": 72, "duration": 24, "velocity": 104}, {"time": 1032, "pitch": 80, "duration": 12, "velocity": 107}, {"time": 1044, "pitch": 77, "duration": 12, "velocity": 110}, {"time": 1056, "pitch": 73, "duration": 18, "velocity": 107}, {"time": 1074, "pitch": 73, "duration": 6, "velocity": 107}, {"time": 1080, "pitch": 70, "duration": 36, "velocity": 107}, {"time": 1116, "pitch": 72, "duration": 12, "velocity": 104}, {"time": 1128, "pitch": 73, "duration": 36, "velocity": 110}, {"time": 1164, "pitch": 73, "duration": 8, "velocity": 113}, {"time": 1170, "pitch": 75, "duration": 6, "velocity": 108}, {"time": 1176, "pitch": 77, "duration": 12, "velocity": 104}, {"time": 1188, "pitch": 80, "duration": 12, "velocity": 110}, {"time": 1200, "pitch": 75, "duration": 12, "velocity": 108}, {"time": 1212, "pitch": 77, "duration": 12, "velocity": 107}, {"time": 1224, "pitch": 73, "duration": 6, "velocity": 100}, {"time": 1230, "pitch": 70, "duration": 12, "velocity": 94}, {"time": 1242, "pitch": 73, "duration": 18, "velocity": 113}, {"time": 1260, "pitch": 75, "duration": 6, "velocity": 108}, {"time": 1266, "pitch": 77, "duration": 6, "velocity": 104}, {"time": 1272, "pitch": 78, "duration": 12, "velocity": 107}, {"time": 1284, "pitch": 82, "duration": 12, "velocity": 114}, {"time": 1296, "pitch": 77, "duration": 12, "velocity": 114}, {"time": 1308, "pitch": 78, "duration": 12, "velocity": 108}, {"time": 1320, "pitch": 77, "duration": 7, "velocity": 108}, {"time": 1326, "pitch": 75, "duration": 12, "velocity": 107}, {"time": 1338, "pitch": 75, "duration": 18, "velocity": 114}, {"time": 1356, "pitch": 73, "duration": 6, "velocity": 108}, {"time": 1362, "pitch": 75, "duration": 6, "velocity": 108}, {"time": 1368, "pitch": 77, "duration": 12, "velocity": 104}, {"time": 1380, "pitch": 80, "duration": 12, "velocity": 113}, {"time": 1392, "pitch": 75, "duration": 12, "velocity": 110}, {"time": 1404, "pitch": 77, "duration": 12, "velocity": 116}, {"time": 1416, "pitch": 75, "duration": 6, "velocity": 108}, {"time": 1422, "pitch": 70, "duration": 12, "velocity": 93}, {"time": 1434, "pitch": 73, "duration": 18, "velocity": 104}, {"time": 1452, "pitch": 75, "duration": 6, "velocity": 110}, {"time": 1458, "pitch": 77, "duration": 6, "velocity": 107}, {"time": 1464, "pitch": 78, "duration": 12, "velocity": 116}, {"time": 1476, "pitch": 77, "duration": 12, "velocity": 117}, {"time": 1488, "pitch": 73, "duration": 12, "velocity": 114}, {"time": 1500, "pitch": 75, "duration": 12, "velocity": 108}, {"time": 1512, "pitch": 73, "duration": 48, "velocity": 108}, {"time": 1932, "pitch": 68, "duration": 6, "velocity": 113}, {"time": 1938, "pitch": 68, "duration": 6, "velocity": 104}, {"time": 1944, "pitch": 77, "duration": 12, "velocity": 108}, {"time": 1956, "pitch": 77, "duration": 24, "velocity": 110}, {"time": 1980, "pitch": 73, "duration": 7, "velocity": 91}, {"time": 1986, "pitch": 75, "duration": 6, "velocity": 91}, {"time": 1992, "pitch": 80, "duration": 12, "velocity": 104}, {"time": 2004, "pitch": 80, "duration": 24, "velocity": 104}, {"time": 2028, "pitch": 80, "duration": 6, "velocity": 100}, {"time": 2034, "pitch": 72, "duration": 6, "velocity": 96}, {"time": 2040, "pitch": 72, "duration": 12, "velocity": 100}, {"time": 2052, "pitch": 73, "duration": 24, "velocity": 96}, {"time": 2076, "pitch": 73, "duration": 9, "velocity": 93}, {"time": 2085, "pitch": 73, "duration": 3, "velocity": 83}, {"time": 2088, "pitch": 72, "duration": 12, "velocity": 93}, {"time": 2100, "pitch": 77, "duration": 24, "velocity": 107}, {"time": 2124, "pitch": 68, "duration": 12, "velocity": 107}, {"time": 2136, "pitch": 70, "duration": 24, "velocity": 104}, {"time": 2160, "pitch": 72, "duration": 24, "velocity": 104}, {"time": 2184, "pitch": 80, "duration": 12, "velocity": 107}, {"time": 2196, "pitch": 77, "duration": 12, "velocity": 110}, {"time": 2208, "pitch": 73, "duration": 18, "velocity": 107}, {"time": 2226, "pitch": 73, "duration": 6, "velocity": 107}, {"time": 2232, "pitch": 70, "duration": 36, "velocity": 107}, {"time": 2268, "pitch": 73, "duration": 12, "velocity": 104}, {"time": 2280, "pitch": 75, "duration": 36, "velocity": 110}, {"time": 2316, "pitch": 68, "duration": 6, "velocity": 113}, {"time": 2322, "pitch": 68, "duration": 6, "velocity": 104}, {"time": 2328, "pitch": 77, "duration": 12, "velocity": 108}, {"time": 2340, "pitch": 77, "duration": 24, "velocity": 110}, {"time": 2364, "pitch": 73, "duration": 7, "velocity": 91}, {"time": 2370, "pitch": 75, "duration": 6, "velocity": 91}, {"time": 2376, "pitch": 80, "duration": 12, "velocity": 104}, {"time": 2388, "pitch": 80, "duration": 24, "velocity": 104}, {"time": 2412, "pitch": 80, "duration": 6, "velocity": 100}, {"time": 2418, "pitch": 72, "duration": 6, "velocity": 96}, {"time": 2424, "pitch": 72, "duration": 12, "velocity": 100}, {"time": 2436, "pitch": 73, "duration": 24, "velocity": 96}, {"time": 2460, "pitch": 73, "duration": 9, "velocity": 93}, {"time": 2469, "pitch": 73, "duration": 3, "velocity": 83}, {"time": 2472, "pitch": 72, "duration": 12, "velocity": 93}, {"time": 2484, "pitch": 77, "duration": 24, "velocity": 107}, {"time": 2508, "pitch": 68, "duration": 12, "velocity": 107}, {"time": 2520, "pitch": 70, "duration": 24, "velocity": 104}, {"time": 2544, "pitch": 72, "duration": 24, "velocity": 104}, {"time": 2568, "pitch": 80, "duration": 12, "velocity": 107}, {"time": 2580, "pitch": 77, "duration": 12, "velocity": 110}, {"time": 2592, "pitch": 73, "duration": 18, "velocity": 107}, {"time": 2610, "pitch": 73, "duration": 6, "velocity": 107}, {"time": 2616, "pitch": 70, "duration": 36, "velocity": 107}, {"time": 2652, "pitch": 72, "duration": 12, "velocity": 104}, {"time": 2664, "pitch": 73, "duration": 24, "velocity": 110}, {"time": 2700, "pitch": 73, "duration": 8, "velocity": 113}, {"time": 2706, "pitch": 75, "duration": 6, "velocity": 108}, {"time": 2712, "pitch": 77, "duration": 12, "velocity": 104}, {"time": 2724, "pitch": 80, "duration": 12, "velocity": 110}, {"time": 2736, "pitch": 75, "duration": 12, "velocity": 108}, {"time": 2748, "pitch": 77, "duration": 12, "velocity": 107}, {"time": 2760, "pitch": 73, "duration": 6, "velocity": 100}, {"time": 2766, "pitch": 70, "duration": 12, "velocity": 94}, {"time": 2778, "pitch": 73, "duration": 18, "velocity": 113}, {"time": 2796, "pitch": 75, "duration": 6, "velocity": 108}, {"time": 2802, "pitch": 77, "duration": 6, "velocity": 104}, {"time": 2808, "pitch": 78, "duration": 12, "velocity": 107}, {"time": 2820, "pitch": 82, "duration": 12, "velocity": 114}, {"time": 2832, "pitch": 77, "duration": 12, "velocity": 114}, {"time": 2844, "pitch": 78, "duration": 12, "velocity": 108}, {"time": 2856, "pitch": 77, "duration": 7, "velocity": 108}, {"time": 2862, "pitch": 75, "duration": 12, "velocity": 107}, {"time": 2874, "pitch": 75, "duration": 18, "velocity": 114}, {"time": 2892, "pitch": 73, "duration": 6, "velocity": 108}, {"time": 2898, "pitch": 75, "duration": 6, "velocity": 108}, {"time": 2904, "pitch": 77, "duration": 12, "velocity": 104}, {"time": 2916, "pitch": 80, "duration": 12, "velocity": 113}, {"time": 2928, "pitch": 75, "duration": 12, "velocity": 110}, {"time": 2940, "pitch": 77, "duration": 12, "velocity": 116}, {"time": 2952, "pitch": 75, "duration": 6, "velocity": 108}, {"time": 2958, "pitch": 70, "duration": 12, "velocity": 93}, {"time": 2970, "pitch": 73, "duration": 18, "velocity": 104}, {"time": 2988, "pitch": 75, "duration": 6, "velocity": 110}, {"time": 2994, "pitch": 77, "duration": 6, "velocity": 107}, {"time": 3000, "pitch": 78, "duration": 12, "velocity": 116}, {"time": 3012, "pitch": 77, "duration": 12, "velocity": 117}, {"time": 3024, "pitch": 73, "duration": 12, "velocity": 114}, {"time": 3036, "pitch": 75, "duration": 12, "velocity": 108}, {"time": 3048, "pitch": 73, "duration": 44, "velocity": 108}, {"time": 3084, "pitch": 73, "duration": 8, "velocity": 113}, {"time": 3090, "pitch": 75, "duration": 6, "velocity": 108}, {"time": 3096, "pitch": 77, "duration": 12, "velocity": 104}, {"time": 3108, "pitch": 80, "duration": 12, "velocity": 110}, {"time": 3120, "pitch": 75, "duration": 12, "velocity": 108}, {"time": 3132, "pitch": 77, "duration": 12, "velocity": 107}, {"time": 3144, "pitch": 73, "duration": 6, "velocity": 100}, {"time": 3150, "pitch": 70, "duration": 12, "velocity": 94}, {"time": 3162, "pitch": 73, "duration": 18, "velocity": 113}, {"time": 3180, "pitch": 75, "duration": 6, "velocity": 108}, {"time": 3186, "pitch": 77, "duration": 6, "velocity": 104}, {"time": 3192, "pitch": 78, "duration": 12, "velocity": 107}, {"time": 3204, "pitch": 82, "duration": 12, "velocity": 114}, {"time": 3216, "pitch": 77, "duration": 12, "velocity": 114}, {"time": 3228, "pitch": 78, "duration": 12, "velocity": 108}, {"time": 3240, "pitch": 77, "duration": 7, "velocity": 108}, {"time": 3246, "pitch": 75, "duration": 12, "velocity": 107}, {"time": 3258, "pitch": 75, "duration": 18, "velocity": 114}, {"time": 3276, "pitch": 73, "duration": 6, "velocity": 108}, {"time": 3282, "pitch": 75, "duration": 6, "velocity": 108}, {"time": 3288, "pitch": 77, "duration": 12, "velocity": 104}, {"time": 3300, "pitch": 80, "duration": 12, "velocity": 113}, {"time": 3312, "pitch": 75, "duration": 12, "velocity": 110}, {"time": 3324, "pitch": 77, "duration": 12, "velocity": 116}, {"time": 3336, "pitch": 75, "duration": 6, "velocity": 108}, {"time": 3342, "pitch": 70, "duration": 12, "velocity": 93}, {"time": 3354, "pitch": 73, "duration": 18, "velocity": 104}, {"time": 3372, "pitch": 75, "duration": 6, "velocity": 110}, {"time": 3378, "pitch": 77, "duration": 6, "velocity": 107}, {"time": 3384, "pitch": 78, "duration": 12, "velocity": 116}, {"time": 3396, "pitch": 77, "duration": 12, "velocity": 117}, {"time": 3408, "pitch": 73, "duration": 12, "velocity": 114}, {"time": 3420, "pitch": 75, "duration": 12, "velocity": 108}, {"time": 3432, "pitch": 77, "duration": 39, "velocity": 108}, {"time": 3473, "pitch": 75, "duration": 7, "velocity": 113}, {"time": 3479, "pitch": 77, "duration": 6, "velocity": 108}, {"time": 3485, "pitch": 79, "duration": 8, "velocity": 104}, {"time": 3497, "pitch": 82, "duration": 8, "velocity": 110}, {"time": 3509, "pitch": 77, "duration": 8, "velocity": 108}, {"time": 3521, "pitch": 79, "duration": 8, "velocity": 107}, {"time": 3533, "pitch": 75, "duration": 6, "velocity": 100}, {"time": 3539, "pitch": 72, "duration": 4, "velocity": 94}, {"time": 3551, "pitch": 75, "duration": 6, "velocity": 113}, {"time": 3569, "pitch": 77, "duration": 6, "velocity": 108}, {"time": 3575, "pitch": 79, "duration": 5, "velocity": 104}, {"time": 3581, "pitch": 80, "duration": 8, "velocity": 107}, {"time": 3593, "pitch": 84, "duration": 7, "velocity": 114}, {"time": 3605, "pitch": 79, "duration": 7, "velocity": 114}, {"time": 3617, "pitch": 80, "duration": 9, "velocity": 108}, {"time": 3629, "pitch": 79, "duration": 6, "velocity": 108}, {"time": 3635, "pitch": 77, "duration": 7, "velocity": 107}, {"time": 3647, "pitch": 77, "duration": 6, "velocity": 114}, {"time": 3665, "pitch": 75, "duration": 6, "velocity": 108}, {"time": 3671, "pitch": 77, "duration": 5, "velocity": 108}, {"time": 3677, "pitch": 79, "duration": 7, "velocity": 104}, {"time": 3689, "pitch": 82, "duration": 7, "velocity": 113}, {"time": 3701, "pitch": 77, "duration": 8, "velocity": 110}, {"time": 3713, "pitch": 79, "duration": 8, "velocity": 116}, {"time": 3725, "pitch": 77, "duration": 4, "velocity": 108}, {"time": 3731, "pitch": 72, "duration": 5, "velocity": 93}, {"time": 3743, "pitch": 75, "duration": 5, "velocity": 104}, {"time": 3761, "pitch": 77, "duration": 4, "velocity": 110}, {"time": 3767, "pitch": 79, "duration": 4, "velocity": 107}, {"time": 3773, "pitch": 80, "duration": 7, "velocity": 116}, {"time": 3785, "pitch": 79, "duration": 7, "velocity": 117}, {"time": 3822, "pitch": 80, "duration": 6, "velocity": 108}, {"time": 3834, "pitch": 79, "duration": 7, "velocity": 108}, {"time": 3864, "pitch": 79, "duration": 5, "velocity": 119}, {"time": 3870, "pitch": 80, "duration": 7, "velocity": 117}, {"time": 3882, "pitch": 79, "duration": 6, "velocity": 123}, {"time": 3894, "pitch": 75, "duration": 8, "velocity": 116}, {"time": 3906, "pitch": 77, "duration": 7, "velocity": 119}, {"time": 3918, "pitch": 75, "duration": 9, "velocity": 117}]}, {"program": 0, "is_drum": false, "name": "PIANO", "notes": [{"time": 24, "pitch": 49, "duration": 9, "velocity": 88}, {"time": 48, "pitch": 48, "duration": 12, "velocity": 81}, {"time": 72, "pitch": 46, "duration": 12, "velocity": 83}, {"time": 96, "pitch": 44, "duration": 10, "velocity": 84}, {"time": 120, "pitch": 42, "duration": 14, "velocity": 87}, {"time": 144, "pitch": 49, "duration": 17, "velocity": 86}, {"time": 168, "pitch": 42, "duration": 19, "velocity": 87}, {"time": 192, "pitch": 44, "duration": 18, "velocity": 87}, {"time": 198, "pitch": 51, "duration": 12, "velocity": 81}, {"time": 204, "pitch": 56, "duration": 12, "velocity": 84}, {"time": 216, "pitch": 49, "duration": 20, "velocity": 89}, {"time": 222, "pitch": 56, "duration": 19, "velocity": 81}, {"time": 228, "pitch": 61, "duration": 7, "velocity": 88}, {"time": 240, "pitch": 48, "duration": 21, "velocity": 86}, {"time": 246, "pitch": 56, "duration": 13, "velocity": 83}, {"time": 252, "pitch": 60, "duration": 6, "velocity": 86}, {"time": 258, "pitch": 65, "duration": 19, "velocity": 87}, {"time": 264, "pitch": 46, "duration": 20, "velocity": 87}, {"time": 270, "pitch": 53, "duration": 20, "velocity": 76}, {"time": 276, "pitch": 58, "duration": 7, "velocity": 87}, {"time": 282, "pitch": 61, "duration": 20, "velocity": 78}, {"time": 288, "pitch": 44, "duration": 19, "velocity": 87}, {"time": 294, "pitch": 53, "duration": 12, "velocity": 72}, {"time": 300, "pitch": 56, "duration": 6, "velocity": 83}, {"time": 312, "pitch": 42, "duration": 19, "velocity": 87}, {"time": 312, "pitch": 58, "duration": 18, "velocity": 84}, {"time": 312, "pitch": 60, "duration": 2, "velocity": 80}, {"time": 312, "pitch": 66, "duration": 18, "velocity": 88}, {"time": 318, "pitch": 49, "duration": 19, "velocity": 71}, {"time": 324, "pitch": 54, "duration": 12, "velocity": 84}, {"time": 336, "pitch": 44, "duration": 19, "velocity": 85}, {"time": 336, "pitch": 60, "duration": 22, "velocity": 86}, {"time": 336, "pitch": 68, "duration": 21, "velocity": 84}, {"time": 342, "pitch": 51, "duration": 13, "velocity": 71}, {"time": 348, "pitch": 56, "duration": 12, "velocity": 78}, {"time": 360, "pitch": 49, "duration": 35, "velocity": 80}, {"time": 366, "pitch": 56, "duration": 29, "velocity": 81}, {"time": 372, "pitch": 61, "duration": 22, "velocity": 85}, {"time": 378, "pitch": 66, "duration": 7, "velocity": 88}, {"time": 384, "pitch": 65, "duration": 10, "velocity": 87}, {"time": 408, "pitch": 61, "duration": 40, "velocity": 87}, {"time": 414, "pitch": 68, "duration": 35, "velocity": 77}, {"time": 420, "pitch": 73, "duration": 26, "velocity": 86}, {"time": 426, "pitch": 80, "duration": 30, "velocity": 82}, {"time": 432, "pitch": 92, "duration": 23, "velocity": 93}, {"time": 456, "pitch": 60, "duration": 40, "velocity": 88}, {"time": 462, "pitch": 68, "duration": 31, "velocity": 79}, {"time": 468, "pitch": 72, "duration": 24, "velocity": 84}, {"time": 474, "pitch": 80, "duration": 31, "velocity": 88}, {"time": 480, "pitch": 92, "duration": 19, "velocity": 100}, {"time": 504, "pitch": 58, "duration": 38, "velocity": 86}, {"time": 510, "pitch": 65, "duration": 32, "velocity": 75}, {"time": 516, "pitch": 70, "duration": 24, "velocity": 87}, {"time": 522, "pitch": 82, "duration": 31, "velocity": 83}, {"time": 528, "pitch": 92, "duration": 24, "velocity": 100}, {"time": 552, "pitch": 56, "duration": 39, "velocity": 80}, {"time": 558, "pitch": 65, "duration": 31, "velocity": 80}, {"time": 564, "pitch": 68, "duration": 25, "velocity": 80}, {"time": 570, "pitch": 80, "duration": 26, "velocity": 86}, {"time": 576, "pitch": 92, "duration": 19, "velocity": 102}, {"time": 600, "pitch": 54, "duration": 19, "velocity": 86}, {"time": 606, "pitch": 61, "duration": 18, "velocity": 68}, {"time": 612, "pitch": 66, "duration": 8, "velocity": 82}, {"time": 624, "pitch": 56, "duration": 17, "velocity": 86}, {"time": 630, "pitch": 63, "duration": 10, "velocity": 77}, {"time": 636, "pitch": 72, "duration": 8, "velocity": 81}, {"time": 642, "pitch": 75, "duration": 6, "velocity": 88}, {"time": 648, "pitch": 53, "duration": 18, "velocity": 87}, {"time": 654, "pitch": 60, "duration": 12, "velocity": 81}, {"time": 660, "pitch": 65, "duration": 14, "velocity": 87}, {"time": 666, "pitch": 73, "duration": 14, "velocity": 81}, {"time": 672, "pitch": 58, "duration": 16, "velocity": 83}, {"time": 678, "pitch": 65, "duration": 9, "velocity": 83}, {"time": 684, "pitch": 70, "duration": 6, "velocity": 93}, {"time": 690, "pitch": 73, "duration": 7, "velocity": 82}, {"time": 696, "pitch": 51, "duration": 41, "velocity": 86}, {"time": 696, "pitch": 66, "duration": 17, "velocity": 79}, {"time": 696, "pitch": 75, "duration": 9, "velocity": 88}, {"time": 702, "pitch": 58, "duration": 34, "velocity": 66}, {"time": 708, "pitch": 63, "duration": 27, "velocity": 84}, {"time": 714, "pitch": 65, "duration": 7, "velocity": 86}, {"time": 720, "pitch": 66, "duration": 26, "velocity": 88}, {"time": 744, "pitch": 44, "duration": 34, "velocity": 82}, {"time": 744, "pitch": 51, "duration": 29, "velocity": 78}, {"time": 750, "pitch": 56, "duration": 25, "velocity": 86}, {"time": 753, "pitch": 60, "duration": 3, "velocity": 88}, {"time": 756, "pitch": 63, "duration": 3, "velocity": 88}, {"time": 759, "pitch": 68, "duration": 2, "velocity": 86}, {"time": 762, "pitch": 72, "duration": 2, "velocity": 104}, {"time": 765, "pitch": 75, "duration": 2, "velocity": 82}, {"time": 768, "pitch": 80, "duration": 2, "velocity": 82}, {"time": 792, "pitch": 49, "duration": 40, "velocity": 87}, {"time": 798, "pitch": 56, "duration": 36, "velocity": 71}, {"time": 804, "pitch": 61, "duration": 28, "velocity": 81}, {"time": 840, "pitch": 48, "duration": 41, "velocity": 80}, {"time": 846, "pitch": 56, "duration": 33, "velocity": 81}, {"time": 852, "pitch": 60, "duration": 25, "velocity": 83}, {"time": 888, "pitch": 46, "duration": 39, "velocity": 84}, {"time": 894, "pitch": 53, "duration": 32, "velocity": 74}, {"time": 900, "pitch": 58, "duration": 25, "velocity": 80}, {"time": 936, "pitch": 44, "duration": 42, "velocity": 82}, {"time": 942, "pitch": 53, "duration": 35, "velocity": 68}, {"time": 948, "pitch": 56, "duration": 26, "velocity": 79}, {"time": 984, "pitch": 42, "duration": 20, "velocity": 87}, {"time": 990, "pitch": 49, "duration": 14, "velocity": 74}, {"time": 996, "pitch": 54, "duration": 8, "velocity": 73}, {"time": 1008, "pitch": 44, "duration": 20, "velocity": 85}, {"time": 1014, "pitch": 51, "duration": 12, "velocity": 38}, {"time": 1020, "pitch": 56, "duration": 9, "velocity": 73}, {"time": 1032, "pitch": 53, "duration": 20, "velocity": 86}, {"time": 1038, "pitch": 60, "duration": 12, "velocity": 76}, {"time": 1044, "pitch": 65, "duration": 6, "velocity": 85}, {"time": 1056, "pitch": 46, "duration": 18, "velocity": 87}, {"time": 1062, "pitch": 53, "duration": 13, "velocity": 78}, {"time": 1068, "pitch": 58, "duration": 13, "velocity": 81}, {"time": 1080, "pitch": 51, "duration": 12, "velocity": 83}, {"time": 1086, "pitch": 58, "duration": 7, "velocity": 80}, {"time": 1092, "pitch": 63, "duration": 3, "velocity": 88}, {"time": 1104, "pitch": 44, "duration": 19, "velocity": 86}, {"time": 1110, "pitch": 51, "duration": 14, "velocity": 77}, {"time": 1116, "pitch": 56, "duration": 12, "velocity": 83}, {"time": 1128, "pitch": 49, "duration": 36, "velocity": 84}, {"time": 1134, "pitch": 57, "duration": 15, "velocity": 78}, {"time": 1140, "pitch": 61, "duration": 9, "velocity": 80}, {"time": 1146, "pitch": 66, "duration": 8, "velocity": 81}, {"time": 1152, "pitch": 65, "duration": 12, "velocity": 83}, {"time": 1176, "pitch": 49, "duration": 18, "velocity": 91}, {"time": 1182, "pitch": 56, "duration": 19, "velocity": 81}, {"time": 1188, "pitch": 61, "duration": 6, "velocity": 89}, {"time": 1194, "pitch": 68, "duration": 20, "velocity": 100}, {"time": 1200, "pitch": 48, "duration": 20, "velocity": 85}, {"time": 1206, "pitch": 56, "duration": 13, "velocity": 80}, {"time": 1212, "pitch": 60, "duration": 6, "velocity": 84}, {"time": 1218, "pitch": 68, "duration": 22, "velocity": 82}, {"time": 1224, "pitch": 46, "duration": 19, "velocity": 83}, {"time": 1230, "pitch": 53, "duration": 19, "velocity": 77}, {"time": 1233, "pitch": 58, "duration": 6, "velocity": 84}, {"time": 1242, "pitch": 68, "duration": 25, "velocity": 86}, {"time": 1248, "pitch": 44, "duration": 19, "velocity": 83}, {"time": 1254, "pitch": 53, "duration": 12, "velocity": 77}, {"time": 1260, "pitch": 56, "duration": 6, "velocity": 85}, {"time": 1266, "pitch": 63, "duration": 25, "velocity": 81}, {"time": 1272, "pitch": 42, "duration": 18, "velocity": 87}, {"time": 1278, "pitch": 49, "duration": 12, "velocity": 73}, {"time": 1284, "pitch": 54, "duration": 7, "velocity": 87}, {"time": 1290, "pitch": 68, "duration": 5, "velocity": 81}, {"time": 1296, "pitch": 53, "duration": 18, "velocity": 83}, {"time": 1302, "pitch": 60, "duration": 12, "velocity": 79}, {"time": 1308, "pitch": 65, "duration": 5, "velocity": 88}, {"time": 1320, "pitch": 51, "duration": 20, "velocity": 86}, {"time": 1326, "pitch": 58, "duration": 13, "velocity": 77}, {"time": 1332, "pitch": 63, "duration": 6, "velocity": 87}, {"time": 1338, "pitch": 67, "duration": 11, "velocity": 86}, {"time": 1344, "pitch": 44, "duration": 18, "velocity": 87}, {"time": 1350, "pitch": 51, "duration": 13, "velocity": 81}, {"time": 1356, "pitch": 56, "duration": 13, "velocity": 86}, {"time": 1362, "pitch": 60, "duration": 8, "velocity": 85}, {"time": 1368, "pitch": 49, "duration": 19, "velocity": 84}, {"time": 1374, "pitch": 56, "duration": 20, "velocity": 84}, {"time": 1380, "pitch": 61, "duration": 7, "velocity": 87}, {"time": 1386, "pitch": 68, "duration": 21, "velocity": 102}, {"time": 1392, "pitch": 48, "duration": 21, "velocity": 84}, {"time": 1398, "pitch": 56, "duration": 12, "velocity": 83}, {"time": 1404, "pitch": 60, "duration": 5, "velocity": 86}, {"time": 1410, "pitch": 68, "duration": 7, "velocity": 93}, {"time": 1416, "pitch": 46, "duration": 19, "velocity": 87}, {"time": 1416, "pitch": 65, "duration": 18, "velocity": 87}, {"time": 1422, "pitch": 53, "duration": 18, "velocity": 88}, {"time": 1428, "pitch": 58, "duration": 7, "velocity": 83}, {"time": 1434, "pitch": 63, "duration": 24, "velocity": 104}, {"time": 1440, "pitch": 44, "duration": 19, "velocity": 80}, {"time": 1446, "pitch": 53, "duration": 13, "velocity": 76}, {"time": 1452, "pitch": 56, "duration": 6, "velocity": 87}, {"time": 1458, "pitch": 68, "duration": 22, "velocity": 86}, {"time": 1464, "pitch": 42, "duration": 18, "velocity": 88}, {"time": 1470, "pitch": 49, "duration": 14, "velocity": 84}, {"time": 1476, "pitch": 54, "duration": 8, "velocity": 86}, {"time": 1482, "pitch": 61, "duration": 6, "velocity": 85}, {"time": 1488, "pitch": 44, "duration": 18, "velocity": 88}, {"time": 1494, "pitch": 51, "duration": 13, "velocity": 84}, {"time": 1500, "pitch": 56, "duration": 14, "velocity": 88}, {"time": 1512, "pitch": 49, "duration": 34, "velocity": 88}, {"time": 1518, "pitch": 57, "duration": 28, "velocity": 82}, {"time": 1518, "pitch": 66, "duration": 7, "velocity": 102}, {"time": 1524, "pitch": 61, "duration": 21, "velocity": 76}, {"time": 1524, "pitch": 65, "duration": 6, "velocity": 104}, {"time": 1530, "pitch": 63, "duration": 7, "velocity": 98}, {"time": 1536, "pitch": 65, "duration": 6, "velocity": 91}, {"time": 1560, "pitch": 49, "duration": 18, "velocity": 87}, {"time": 1566, "pitch": 56, "duration": 19, "velocity": 82}, {"time": 1572, "pitch": 61, "duration": 6, "velocity": 86}, {"time": 1578, "pitch": 68, "duration": 22, "velocity": 96}, {"time": 1584, "pitch": 48, "duration": 20, "velocity": 84}, {"time": 1590, "pitch": 56, "duration": 13, "velocity": 79}, {"time": 1596, "pitch": 60, "duration": 5, "velocity": 87}, {"time": 1602, "pitch": 63, "duration": 25, "velocity": 84}, {"time": 1608, "pitch": 46, "duration": 19, "velocity": 84}, {"time": 1614, "pitch": 53, "duration": 15, "velocity": 80}, {"time": 1620, "pitch": 58, "duration": 6, "velocity": 85}, {"time": 1626, "pitch": 68, "duration": 20, "velocity": 85}, {"time": 1632, "pitch": 44, "duration": 20, "velocity": 83}, {"time": 1638, "pitch": 53, "duration": 13, "velocity": 80}, {"time": 1644, "pitch": 56, "duration": 6, "velocity": 85}, {"time": 1650, "pitch": 65, "duration": 21, "velocity": 86}, {"time": 1656, "pitch": 42, "duration": 19, "velocity": 86}, {"time": 1662, "pitch": 49, "duration": 13, "velocity": 79}, {"time": 1668, "pitch": 54, "duration": 10, "velocity": 86}, {"time": 1674, "pitch": 61, "duration": 7, "velocity": 78}, {"time": 1674, "pitch": 66, "duration": 7, "velocity": 80}, {"time": 1680, "pitch": 53, "duration": 19, "velocity": 86}, {"time": 1686, "pitch": 60, "duration": 13, "velocity": 80}, {"time": 1692, "pitch": 65, "duration": 6, "velocity": 87}, {"time": 1698, "pitch": 68, "duration": 10, "velocity": 83}, {"time": 1704, "pitch": 51, "duration": 19, "velocity": 86}, {"time": 1710, "pitch": 58, "duration": 12, "velocity": 79}, {"time": 1716, "pitch": 63, "duration": 5, "velocity": 88}, {"time": 1728, "pitch": 44, "duration": 19, "velocity": 86}, {"time": 1734, "pitch": 51, "duration": 13, "velocity": 85}, {"time": 1740, "pitch": 56, "duration": 11, "velocity": 93}, {"time": 1746, "pitch": 60, "duration": 6, "velocity": 86}, {"time": 1752, "pitch": 46, "duration": 19, "velocity": 86}, {"time": 1758, "pitch": 53, "duration": 19, "velocity": 87}, {"time": 1764, "pitch": 58, "duration": 6, "velocity": 90}, {"time": 1770, "pitch": 61, "duration": 10, "velocity": 88}, {"time": 1776, "pitch": 45, "duration": 18, "velocity": 89}, {"time": 1782, "pitch": 53, "duration": 12, "velocity": 87}, {"time": 1788, "pitch": 57, "duration": 6, "velocity": 87}, {"time": 1794, "pitch": 69, "duration": 9, "velocity": 86}, {"time": 1800, "pitch": 44, "duration": 18, "velocity": 88}, {"time": 1806, "pitch": 51, "duration": 19, "velocity": 87}, {"time": 1812, "pitch": 56, "duration": 6, "velocity": 88}, {"time": 1818, "pitch": 60, "duration": 9, "velocity": 86}, {"time": 1824, "pitch": 43, "duration": 19, "velocity": 85}, {"time": 1830, "pitch": 51, "duration": 13, "velocity": 85}, {"time": 1836, "pitch": 55, "duration": 7, "velocity": 83}, {"time": 1848, "pitch": 42, "duration": 19, "velocity": 88}, {"time": 1854, "pitch": 49, "duration": 18, "velocity": 84}, {"time": 1860, "pitch": 54, "duration": 12, "velocity": 89}, {"time": 1872, "pitch": 44, "duration": 19, "velocity": 87}, {"time": 1878, "pitch": 51, "duration": 14, "velocity": 82}, {"time": 1884, "pitch": 56, "duration": 12, "velocity": 88}, {"time": 1896, "pitch": 49, "duration": 35, "velocity": 85}, {"time": 1902, "pitch": 56, "duration": 29, "velocity": 80}, {"time": 1908, "pitch": 61, "duration": 22, "velocity": 87}, {"time": 1914, "pitch": 66, "duration": 7, "velocity": 92}, {"time": 1920, "pitch": 65, "duration": 13, "velocity": 91}, {"time": 1944, "pitch": 49, "duration": 40, "velocity": 87}, {"time": 1950, "pitch": 56, "duration": 36, "velocity": 71}, {"time": 1956, "pitch": 61, "duration": 28, "velocity": 81}, {"time": 1992, "pitch": 48, "duration": 41, "velocity": 80}, {"time": 1998, "pitch": 56, "duration": 33, "velocity": 81}, {"time": 2004, "pitch": 60, "duration": 25, "velocity": 83}, {"time": 2040, "pitch": 46, "duration": 39, "velocity": 84}, {"time": 2046, "pitch": 53, "duration": 32, "velocity": 74}, {"time": 2052, "pitch": 58, "duration": 25, "velocity": 80}, {"time": 2088, "pitch": 44, "duration": 42, "velocity": 82}, {"time": 2094, "pitch": 53, "duration": 35, "velocity": 68}, {"time": 2100, "pitch": 56, "duration": 26, "velocity": 79}, {"time": 2136, "pitch": 42, "duration": 20, "velocity": 87}, {"time": 2142, "pitch": 49, "duration": 14, "velocity": 74}, {"time": 2148, "pitch": 54, "duration": 8, "velocity": 73}, {"time": 2160, "pitch": 44, "duration": 20, "velocity": 85}, {"time": 2166, "pitch": 51, "duration": 12, "velocity": 38}, {"time": 2172, "pitch": 56, "duration": 9, "velocity": 73}, {"time": 2184, "pitch": 53, "duration": 20, "velocity": 86}, {"time": 2190, "pitch": 60, "duration": 12, "velocity": 76}, {"time": 2196, "pitch": 65, "duration": 6, "velocity": 85}, {"time": 2208, "pitch": 46, "duration": 18, "velocity": 87}, {"time": 2214, "pitch": 53, "duration": 13, "velocity": 78}, {"time": 2220, "pitch": 58, "duration": 13, "velocity": 81}, {"time": 2232, "pitch": 51, "duration": 12, "velocity": 83}, {"time": 2238, "pitch": 58, "duration": 7, "velocity": 80}, {"time": 2244, "pitch": 63, "duration": 3, "velocity": 88}, {"time": 2256, "pitch": 44, "duration": 19, "velocity": 86}, {"time": 2262, "pitch": 51, "duration": 14, "velocity": 77}, {"time": 2268, "pitch": 56, "duration": 12, "velocity": 83}, {"time": 2280, "pitch": 49, "duration": 36, "velocity": 84}, {"time": 2286, "pitch": 57, "duration": 15, "velocity": 78}, {"time": 2292, "pitch": 61, "duration": 9, "velocity": 80}, {"time": 2298, "pitch": 66, "duration": 8, "velocity": 81}, {"time": 2304, "pitch": 65, "duration": 12, "velocity": 83}, {"time": 2328, "pitch": 49, "duration": 18, "velocity": 91}, {"time": 2334, "pitch": 56, "duration": 19, "velocity": 81}, {"time": 2340, "pitch": 61, "duration": 6, "velocity": 89}, {"time": 2346, "pitch": 68, "duration": 20, "velocity": 100}, {"time": 2352, "pitch": 48, "duration": 20, "velocity": 85}, {"time": 2358, "pitch": 56, "duration": 13, "velocity": 80}, {"time": 2364, "pitch": 60, "duration": 6, "velocity": 84}, {"time": 2370, "pitch": 68, "duration": 22, "velocity": 82}, {"time": 2376, "pitch": 46, "duration": 19, "velocity": 83}, {"time": 2382, "pitch": 53, "duration": 19, "velocity": 77}, {"time": 2385, "pitch": 58, "duration": 6, "velocity": 84}, {"time": 2394, "pitch": 68, "duration": 25, "velocity": 86}, {"time": 2400, "pitch": 44, "duration": 19, "velocity": 83}, {"time": 2406, "pitch": 53, "duration": 12, "velocity": 77}, {"time": 2412, "pitch": 56, "duration": 6, "velocity": 85}, {"time": 2418, "pitch": 63, "duration": 25, "velocity": 81}, {"time": 2424, "pitch": 42, "duration": 18, "velocity": 87}, {"time": 2430, "pitch": 49, "duration": 12, "velocity": 73}, {"time": 2436, "pitch": 54, "duration": 7, "velocity": 87}, {"time": 2442, "pitch": 68, "duration": 5, "velocity": 81}, {"time": 2448, "pitch": 53, "duration": 18, "velocity": 83}, {"time": 2454, "pitch": 60, "duration": 12, "velocity": 79}, {"time": 2460, "pitch": 65, "duration": 5, "velocity": 88}, {"time": 2472, "pitch": 48, "duration": 20, "velocity": 86}, {"time": 2478, "pitch": 56, "duration": 13, "velocity": 77}, {"time": 2484, "pitch": 60, "duration": 6, "velocity": 87}, {"time": 2496, "pitch": 44, "duration": 18, "velocity": 87}, {"time": 2496, "pitch": 63, "duration": 11, "velocity": 86}, {"time": 2502, "pitch": 51, "duration": 13, "velocity": 81}, {"time": 2508, "pitch": 56, "duration": 13, "velocity": 86}, {"time": 2514, "pitch": 60, "duration": 8, "velocity": 85}, {"time": 2520, "pitch": 49, "duration": 19, "velocity": 84}, {"time": 2526, "pitch": 56, "duration": 20, "velocity": 84}, {"time": 2532, "pitch": 61, "duration": 7, "velocity": 87}, {"time": 2538, "pitch": 68, "duration": 21, "velocity": 102}, {"time": 2544, "pitch": 48, "duration": 21, "velocity": 84}, {"time": 2550, "pitch": 56, "duration": 12, "velocity": 83}, {"time": 2556, "pitch": 60, "duration": 5, "velocity": 86}, {"time": 2562, "pitch": 68, "duration": 7, "velocity": 93}, {"time": 2568, "pitch": 46, "duration": 19, "velocity": 87}, {"time": 2568, "pitch": 65, "duration": 18, "velocity": 87}, {"time": 2574, "pitch": 53, "duration": 18, "velocity": 88}, {"time": 2580, "pitch": 58, "duration": 7, "velocity": 83}, {"time": 2586, "pitch": 63, "duration": 24, "velocity": 104}, {"time": 2592, "pitch": 44, "duration": 19, "velocity": 80}, {"time": 2598, "pitch": 53, "duration": 13, "velocity": 76}, {"time": 2604, "pitch": 56, "duration": 6, "velocity": 87}, {"time": 2610, "pitch": 68, "duration": 22, "velocity": 86}, {"time": 2616, "pitch": 42, "duration": 18, "velocity": 88}, {"time": 2622, "pitch": 49, "duration": 14, "velocity": 84}, {"time": 2628, "pitch": 54, "duration": 8, "velocity": 86}, {"time": 2634, "pitch": 61, "duration": 6, "velocity": 85}, {"time": 2640, "pitch": 44, "duration": 18, "velocity": 88}, {"time": 2646, "pitch": 51, "duration": 13, "velocity": 84}, {"time": 2652, "pitch": 56, "duration": 14, "velocity": 88}, {"time": 2664, "pitch": 49, "duration": 34, "velocity": 88}, {"time": 2670, "pitch": 57, "duration": 28, "velocity": 82}, {"time": 2670, "pitch": 66, "duration": 7, "velocity": 102}, {"time": 2676, "pitch": 61, "duration": 21, "velocity": 76}, {"time": 2676, "pitch": 65, "duration": 6, "velocity": 104}, {"time": 2682, "pitch": 63, "duration": 7, "velocity": 98}, {"time": 2688, "pitch": 65, "duration": 6, "velocity": 91}, {"time": 2712, "pitch": 49, "duration": 18, "velocity": 91}, {"time": 2718, "pitch": 56, "duration": 19, "velocity": 81}, {"time": 2724, "pitch": 61, "duration": 6, "velocity": 89}, {"time": 2730, "pitch": 68, "duration": 20, "velocity": 100}, {"time": 2736, "pitch": 48, "duration": 20, "velocity": 85}, {"time": 2742, "pitch": 56, "duration": 13, "velocity": 80}, {"time": 2748, "pitch": 60, "duration": 6, "velocity": 84}, {"time": 2754, "pitch": 68, "duration": 22, "velocity": 82}, {"time": 2760, "pitch": 46, "duration": 19, "velocity": 83}, {"time": 2766, "pitch": 53, "duration": 19, "velocity": 77}, {"time": 2769, "pitch": 58, "duration": 6, "velocity": 84}, {"time": 2778, "pitch": 68, "duration": 25, "velocity": 86}, {"time": 2784, "pitch": 44, "duration": 19, "velocity": 83}, {"time": 2790, "pitch": 53, "duration": 12, "velocity": 77}, {"time": 2796, "pitch": 56, "duration": 6, "velocity": 85}, {"time": 2802, "pitch": 63, "duration": 25, "velocity": 81}, {"time": 2808, "pitch": 42, "duration": 18, "velocity": 87}, {"time": 2814, "pitch": 49, "duration": 12, "velocity": 73}, {"time": 2820, "pitch": 54, "duration": 7, "velocity": 87}, {"time": 2826, "pitch": 68, "duration": 5, "velocity": 81}, {"time": 2832, "pitch": 53, "duration": 18, "velocity": 83}, {"time": 2838, "pitch": 60, "duration": 12, "velocity": 79}, {"time": 2844, "pitch": 65, "duration": 5, "velocity": 88}, {"time": 2856, "pitch": 51, "duration": 20, "velocity": 86}, {"time": 2862, "pitch": 58, "duration": 13, "velocity": 77}, {"time": 2868, "pitch": 63, "duration": 6, "velocity": 87}, {"time": 2874, "pitch": 67, "duration": 11, "velocity": 86}, {"time": 2880, "pitch": 44, "duration": 18, "velocity": 87}, {"time": 2886, "pitch": 51, "duration": 13, "velocity": 81}, {"time": 2892, "pitch": 56, "duration": 13, "velocity": 86}, {"time": 2898, "pitch": 60, "duration": 8, "velocity": 85}, {"time": 2904, "pitch": 49, "duration": 19, "velocity": 84}, {"time": 2910, "pitch": 56, "duration": 20, "velocity": 84}, {"time": 2916, "pitch": 61, "duration": 7, "velocity": 87}, {"time": 2922, "pitch": 68, "duration": 21, "velocity": 102}, {"time": 2928, "pitch": 48, "duration": 21, "velocity": 84}, {"time": 2934, "pitch": 56, "duration": 12, "velocity": 83}, {"time": 2940, "pitch": 60, "duration": 5, "velocity": 86}, {"time": 2946, "pitch": 68, "duration": 7, "velocity": 93}, {"time": 2952, "pitch": 46, "duration": 19, "velocity": 87}, {"time": 2952, "pitch": 65, "duration": 18, "velocity": 87}, {"time": 2958, "pitch": 53, "duration": 18, "velocity": 88}, {"time": 2964, "pitch": 58, "duration": 7, "velocity": 83}, {"time": 2970, "pitch": 63, "duration": 24, "velocity": 104}, {"time": 2976, "pitch": 44, "duration": 19, "velocity": 80}, {"time": 2982, "pitch": 53, "duration": 13, "velocity": 76}, {"time": 2988, "pitch": 56, "duration": 6, "velocity": 87}, {"time": 2994, "pitch": 68, "duration": 22, "velocity": 86}, {"time": 3000, "pitch": 42, "duration": 18, "velocity": 88}, {"time": 3006, "pitch": 49, "duration": 14, "velocity": 84}, {"time": 3012, "pitch": 54, "duration": 8, "velocity": 86}, {"time": 3018, "pitch": 61, "duration": 6, "velocity": 85}, {"time": 3024, "pitch": 44, "duration": 18, "velocity": 88}, {"time": 3030, "pitch": 51, "duration": 13, "velocity": 84}, {"time": 3036, "pitch": 56, "duration": 14, "velocity": 88}, {"time": 3048, "pitch": 49, "duration": 34, "velocity": 88}, {"time": 3054, "pitch": 57, "duration": 28, "velocity": 82}, {"time": 3054, "pitch": 66, "duration": 7, "velocity": 102}, {"time": 3060, "pitch": 61, "duration": 21, "velocity": 76}, {"time": 3060, "pitch": 65, "duration": 6, "velocity": 104}, {"time": 3066, "pitch": 63, "duration": 7, "velocity": 98}, {"time": 3072, "pitch": 65, "duration": 6, "velocity": 91}, {"time": 3096, "pitch": 49, "duration": 18, "velocity": 91}, {"time": 3102, "pitch": 56, "duration": 19, "velocity": 81}, {"time": 3108, "pitch": 61, "duration": 6, "velocity": 89}, {"time": 3114, "pitch": 68, "duration": 20, "velocity": 100}, {"time": 3120, "pitch": 48, "duration": 20, "velocity": 85}, {"time": 3126, "pitch": 56, "duration": 13, "velocity": 80}, {"time": 3132, "pitch": 60, "duration": 6, "velocity": 84}, {"time": 3138, "pitch": 68, "duration": 22, "velocity": 82}, {"time": 3144, "pitch": 46, "duration": 19, "velocity": 83}, {"time": 3150, "pitch": 53, "duration": 19, "velocity": 77}, {"time": 3153, "pitch": 58, "duration": 6, "velocity": 84}, {"time": 3162, "pitch": 68, "duration": 25, "velocity": 86}, {"time": 3168, "pitch": 44, "duration": 19, "velocity": 83}, {"time": 3174, "pitch": 53, "duration": 12, "velocity": 77}, {"time": 3180, "pitch": 56, "duration": 6, "velocity": 85}, {"time": 3186, "pitch": 63, "duration": 25, "velocity": 81}, {"time": 3192, "pitch": 42, "duration": 18, "velocity": 87}, {"time": 3198, "pitch": 49, "duration": 12, "velocity": 73}, {"time": 3204, "pitch": 54, "duration": 7, "velocity": 87}, {"time": 3210, "pitch": 68, "duration": 5, "velocity": 81}, {"time": 3216, "pitch": 53, "duration": 18, "velocity": 83}, {"time": 3222, "pitch": 60, "duration": 12, "velocity": 79}, {"time": 3228, "pitch": 65, "duration": 5, "velocity": 88}, {"time": 3240, "pitch": 51, "duration": 20, "velocity": 86}, {"time": 3246, "pitch": 58, "duration": 13, "velocity": 77}, {"time": 3252, "pitch": 63, "duration": 6, "velocity": 87}, {"time": 3258, "pitch": 63, "duration": 11, "velocity": 86}, {"time": 3264, "pitch": 44, "duration": 18, "velocity": 87}, {"time": 3270, "pitch": 51, "duration": 13, "velocity": 81}, {"time": 3276, "pitch": 56, "duration": 13, "velocity": 86}, {"time": 3282, "pitch": 60, "duration": 8, "velocity": 85}, {"time": 3288, "pitch": 49, "duration": 19, "velocity": 84}, {"time": 3294, "pitch": 56, "duration": 20, "velocity": 84}, {"time": 3300, "pitch": 61, "duration": 7, "velocity": 87}, {"time": 3306, "pitch": 68, "duration": 21, "velocity": 102}, {"time": 3312, "pitch": 48, "duration": 21, "velocity": 84}, {"time": 3318, "pitch": 56, "duration": 12, "velocity": 83}, {"time": 3324, "pitch": 60, "duration": 5, "velocity": 86}, {"time": 3330, "pitch": 68, "duration": 7, "velocity": 93}, {"time": 3336, "pitch": 46, "duration": 19, "velocity": 87}, {"time": 3336, "pitch": 65, "duration": 18, "velocity": 87}, {"time": 3342, "pitch": 53, "duration": 18, "velocity": 88}, {"time": 3348, "pitch": 58, "duration": 7, "velocity": 83}, {"time": 3354, "pitch": 63, "duration": 24, "velocity": 104}, {"time": 3360, "pitch": 44, "duration": 19, "velocity": 80}, {"time": 3366, "pitch": 53, "duration": 13, "velocity": 76}, {"time": 3372, "pitch": 56, "duration": 6, "velocity": 87}, {"time": 3381, "pitch": 80, "duration": 5, "velocity": 91}, {"time": 3384, "pitch": 39, "duration": 12, "velocity": 100}, {"time": 3384, "pitch": 78, "duration": 4, "velocity": 100}, {"time": 3387, "pitch": 77, "duration": 3, "velocity": 91}, {"time": 3389, "pitch": 51, "duration": 8, "velocity": 59}, {"time": 3390, "pitch": 73, "duration": 1, "velocity": 86}, {"time": 3393, "pitch": 68, "duration": 3, "velocity": 87}, {"time": 3395, "pitch": 41, "duration": 13, "velocity": 98}, {"time": 3396, "pitch": 77, "duration": 5, "velocity": 93}, {"time": 3399, "pitch": 73, "duration": 2, "velocity": 102}, {"time": 3402, "pitch": 53, "duration": 6, "velocity": 63}, {"time": 3402, "pitch": 68, "duration": 2, "velocity": 91}, {"time": 3405, "pitch": 65, "duration": 1, "velocity": 83}, {"time": 3407, "pitch": 42, "duration": 13, "velocity": 94}, {"time": 3408, "pitch": 73, "duration": 3, "velocity": 107}, {"time": 3412, "pitch": 68, "duration": 2, "velocity": 80}, {"time": 3414, "pitch": 54, "duration": 7, "velocity": 74}, {"time": 3414, "pitch": 65, "duration": 2, "velocity": 69}, {"time": 3416, "pitch": 61, "duration": 2, "velocity": 76}, {"time": 3420, "pitch": 44, "duration": 12, "velocity": 96}, {"time": 3420, "pitch": 63, "duration": 2, "velocity": 82}, {"time": 3423, "pitch": 65, "duration": 3, "velocity": 80}, {"time": 3426, "pitch": 56, "duration": 7, "velocity": 71}, {"time": 3427, "pitch": 66, "duration": 3, "velocity": 103}, {"time": 3430, "pitch": 68, "duration": 3, "velocity": 99}, {"time": 3432, "pitch": 44, "duration": 14, "velocity": 126}, {"time": 3432, "pitch": 56, "duration": 1, "velocity": 110}, {"time": 3436, "pitch": 75, "duration": 3, "velocity": 99}, {"time": 3436, "pitch": 63, "duration": 4, "velocity": 95}, {"time": 3439, "pitch": 70, "duration": 3, "velocity": 73}, {"time": 3442, "pitch": 75, "duration": 2, "velocity": 35}, {"time": 3442, "pitch": 63, "duration": 2, "velocity": 63}, {"time": 3445, "pitch": 43, "duration": 14, "velocity": 95}, {"time": 3445, "pitch": 55, "duration": 9, "velocity": 87}, {"time": 3449, "pitch": 75, "duration": 3, "velocity": 92}, {"time": 3449, "pitch": 63, "duration": 3, "velocity": 91}, {"time": 3452, "pitch": 70, "duration": 3, "velocity": 73}, {"time": 3455, "pitch": 63, "duration": 1, "velocity": 53}, {"time": 3455, "pitch": 75, "duration": 2, "velocity": 56}, {"time": 3459, "pitch": 39, "duration": 11, "velocity": 111}, {"time": 3459, "pitch": 51, "duration": 5, "velocity": 96}, {"time": 3462, "pitch": 63, "duration": 3, "velocity": 95}, {"time": 3462, "pitch": 75, "duration": 4, "velocity": 99}, {"time": 3465, "pitch": 70, "duration": 3, "velocity": 76}, {"time": 3468, "pitch": 63, "duration": 1, "velocity": 49}, {"time": 3468, "pitch": 75, "duration": 1, "velocity": 51}, {"time": 3473, "pitch": 34, "duration": 13, "velocity": 94}, {"time": 3473, "pitch": 46, "duration": 14, "velocity": 99}, {"time": 3485, "pitch": 51, "duration": 18, "velocity": 91}, {"time": 3491, "pitch": 58, "duration": 19, "velocity": 81}, {"time": 3497, "pitch": 63, "duration": 6, "velocity": 89}, {"time": 3503, "pitch": 70, "duration": 20, "velocity": 100}, {"time": 3509, "pitch": 50, "duration": 20, "velocity": 85}, {"time": 3515, "pitch": 58, "duration": 12, "velocity": 80}, {"time": 3521, "pitch": 62, "duration": 5, "velocity": 84}, {"time": 3527, "pitch": 70, "duration": 22, "velocity": 82}, {"time": 3533, "pitch": 48, "duration": 19, "velocity": 83}, {"time": 3539, "pitch": 55, "duration": 19, "velocity": 77}, {"time": 3542, "pitch": 60, "duration": 6, "velocity": 84}, {"time": 3551, "pitch": 70, "duration": 24, "velocity": 86}, {"time": 3557, "pitch": 46, "duration": 19, "velocity": 83}, {"time": 3563, "pitch": 55, "duration": 12, "velocity": 77}, {"time": 3569, "pitch": 58, "duration": 5, "velocity": 85}, {"time": 3575, "pitch": 65, "duration": 25, "velocity": 81}, {"time": 3581, "pitch": 44, "duration": 18, "velocity": 87}, {"time": 3587, "pitch": 51, "duration": 12, "velocity": 73}, {"time": 3593, "pitch": 56, "duration": 7, "velocity": 87}, {"time": 3599, "pitch": 70, "duration": 5, "velocity": 81}, {"time": 3605, "pitch": 55, "duration": 18, "velocity": 83}, {"time": 3611, "pitch": 63, "duration": 12, "velocity": 79}, {"time": 3617, "pitch": 67, "duration": 5, "velocity": 88}, {"time": 3629, "pitch": 53, "duration": 20, "velocity": 86}, {"time": 3635, "pitch": 60, "duration": 12, "velocity": 77}, {"time": 3641, "pitch": 65, "duration": 6, "velocity": 87}, {"time": 3647, "pitch": 69, "duration": 11, "velocity": 86}, {"time": 3653, "pitch": 46, "duration": 18, "velocity": 87}, {"time": 3659, "pitch": 53, "duration": 13, "velocity": 81}, {"time": 3665, "pitch": 58, "duration": 13, "velocity": 86}, {"time": 3671, "pitch": 62, "duration": 8, "velocity": 85}, {"time": 3677, "pitch": 51, "duration": 19, "velocity": 84}, {"time": 3683, "pitch": 58, "duration": 20, "velocity": 84}, {"time": 3689, "pitch": 63, "duration": 6, "velocity": 87}, {"time": 3695, "pitch": 70, "duration": 21, "velocity": 102}, {"time": 3701, "pitch": 50, "duration": 21, "velocity": 84}, {"time": 3707, "pitch": 58, "duration": 12, "velocity": 83}, {"time": 3713, "pitch": 62, "duration": 5, "velocity": 86}, {"time": 3719, "pitch": 70, "duration": 7, "velocity": 93}, {"time": 3725, "pitch": 48, "duration": 19, "velocity": 87}, {"time": 3725, "pitch": 67, "duration": 18, "velocity": 87}, {"time": 3731, "pitch": 55, "duration": 18, "velocity": 88}, {"time": 3737, "pitch": 60, "duration": 6, "velocity": 83}, {"time": 3743, "pitch": 65, "duration": 24, "velocity": 104}, {"time": 3749, "pitch": 46, "duration": 19, "velocity": 80}, {"time": 3755, "pitch": 55, "duration": 13, "velocity": 76}, {"time": 3761, "pitch": 58, "duration": 6, "velocity": 87}, {"time": 3767, "pitch": 70, "duration": 22, "velocity": 86}, {"time": 3773, "pitch": 44, "duration": 18, "velocity": 88}, {"time": 3779, "pitch": 51, "duration": 13, "velocity": 84}, {"time": 3785, "pitch": 56, "duration": 8, "velocity": 86}, {"time": 3791, "pitch": 63, "duration": 5, "velocity": 85}, {"time": 3822, "pitch": 44, "duration": 7, "velocity": 85}, {"time": 3822, "pitch": 56, "duration": 7, "velocity": 81}, {"time": 3822, "pitch": 63, "duration": 7, "velocity": 80}, {"time": 3822, "pitch": 68, "duration": 7, "velocity": 79}, {"time": 3822, "pitch": 72, "duration": 6, "velocity": 83}, {"time": 3834, "pitch": 46, "duration": 23, "velocity": 79}, {"time": 3834, "pitch": 58, "duration": 22, "velocity": 78}, {"time": 3834, "pitch": 62, "duration": 21, "velocity": 82}, {"time": 3834, "pitch": 65, "duration": 21, "velocity": 85}, {"time": 3834, "pitch": 70, "duration": 20, "velocity": 80}, {"time": 3870, "pitch": 44, "duration": 6, "velocity": 80}, {"time": 3870, "pitch": 56, "duration": 7, "velocity": 78}, {"time": 3870, "pitch": 63, "duration": 6, "velocity": 84}, {"time": 3870, "pitch": 68, "duration": 5, "velocity": 85}, {"time": 3870, "pitch": 72, "duration": 4, "velocity": 79}, {"time": 3882, "pitch": 46, "duration": 28, "velocity": 79}, {"time": 3882, "pitch": 58, "duration": 30, "velocity": 78}, {"time": 3882, "pitch": 62, "duration": 26, "velocity": 83}, {"time": 3882, "pitch": 65, "duration": 27, "velocity": 87}, {"time": 3882, "pitch": 70, "duration": 25, "velocity": 86}, {"time": 3918, "pitch": 51, "duration": 18, "velocity": 89}, {"time": 3918, "pitch": 44, "duration": 13, "velocity": 89}, {"time": 3924, "pitch": 58, "duration": 18, "velocity": 86}, {"time": 3930, "pitch": 63, "duration": 5, "velocity": 91}, {"time": 3935, "pitch": 67, "duration": 7, "velocity": 91}, {"time": 3941, "pitch": 50, "duration": 19, "velocity": 83}, {"time": 3947, "pitch": 58, "duration": 12, "velocity": 83}, {"time": 3953, "pitch": 62, "duration": 6, "velocity": 84}, {"time": 3959, "pitch": 74, "duration": 7, "velocity": 83}, {"time": 3959, "pitch": 65, "duration": 10, "velocity": 91}, {"time": 3965, "pitch": 48, "duration": 19, "velocity": 86}, {"time": 3971, "pitch": 55, "duration": 13, "velocity": 78}, {"time": 3977, "pitch": 60, "duration": 6, "velocity": 87}, {"time": 3983, "pitch": 63, "duration": 15, "velocity": 82}, {"time": 3989, "pitch": 46, "duration": 27, "velocity": 85}, {"time": 4016, "pitch": 44, "duration": 22, "velocity": 89}, {"time": 4023, "pitch": 51, "duration": 23, "velocity": 85}, {"time": 4030, "pitch": 56, "duration": 16, "velocity": 96}, {"time": 4037, "pitch": 60, "duration": 11, "velocity": 90}, {"time": 4045, "pitch": 46, "duration": 30, "velocity": 86}, {"time": 4053, "pitch": 53, "duration": 23, "velocity": 85}, {"time": 4062, "pitch": 58, "duration": 14, "velocity": 98}, {"time": 4072, "pitch": 62, "duration": 18, "velocity": 91}, {"time": 4087, "pitch": 39, "duration": 56, "velocity": 107}, {"time": 4095, "pitch": 51, "duration": 48, "velocity": 89}, {"time": 4101, "pitch": 55, "duration": 1, "velocity": 95}, {"time": 4105, "pitch": 58, "duration": 1, "velocity": 86}, {"time": 4108, "pitch": 63, "duration": 3, "velocity": 88}, {"time": 4112, "pitch": 67, "duration": 1, "velocity": 86}, {"time": 4116, "pitch": 70, "duration": 3, "velocity": 94}, {"time": 4119, "pitch": 75, "duration": 4, "velocity": 87}, {"time": 4123, "pitch": 79, "duration": 2, "velocity": 84}, {"time": 4128, "pitch": 82, "duration": 6, "velocity": 86}, {"time": 4135, "pitch": 87, "duration": 2, "velocity": 36}, {"time": 4138, "pitch": 82, "duration": 3, "velocity": 74}, {"time": 4139, "pitch": 91, "duration": 3, "velocity": 84}, {"time": 4140, "pitch": 87, "duration": 2, "velocity": 38}, {"time": 4142, "pitch": 94, "duration": 2, "velocity": 93}]}]}