{"metadata": {"schema_version": "0.2", "title": "None", "source_filename": "299.mid", "source_format": "midi"}, "resolution": 12, "tempos": [{"time": 0, "qpm": 58.00004253336452}], "key_signatures": [{"time": 0, "root": 0, "mode": "major"}], "time_signatures": [{"time": 0, "numerator": 4, "denominator": 4}], "tracks": [{"program": 0, "is_drum": false, "name": "MELODY", "notes": [{"time": 202, "pitch": 75, "duration": 3, "velocity": 114}, {"time": 205, "pitch": 73, "duration": 3, "velocity": 108}, {"time": 208, "pitch": 72, "duration": 6, "velocity": 109}, {"time": 214, "pitch": 75, "duration": 6, "velocity": 100}, {"time": 220, "pitch": 80, "duration": 3, "velocity": 110}, {"time": 223, "pitch": 80, "duration": 6, "velocity": 110}, {"time": 229, "pitch": 84, "duration": 3, "velocity": 109}, {"time": 232, "pitch": 84, "duration": 3, "velocity": 116}, {"time": 235, "pitch": 85, "duration": 15, "velocity": 116}, {"time": 250, "pitch": 82, "duration": 3, "velocity": 110}, {"time": 253, "pitch": 80, "duration": 3, "velocity": 93}, {"time": 256, "pitch": 82, "duration": 3, "velocity": 107}, {"time": 259, "pitch": 82, "duration": 6, "velocity": 107}, {"time": 265, "pitch": 75, "duration": 3, "velocity": 92}, {"time": 268, "pitch": 75, "duration": 6, "velocity": 100}, {"time": 274, "pitch": 82, "duration": 3, "velocity": 98}, {"time": 277, "pitch": 82, "duration": 3, "velocity": 91}, {"time": 280, "pitch": 85, "duration": 3, "velocity": 110}, {"time": 283, "pitch": 84, "duration": 27, "velocity": 116}, {"time": 310, "pitch": 80, "duration": 3, "velocity": 110}, {"time": 313, "pitch": 80, "duration": 3, "velocity": 98}, {"time": 316, "pitch": 80, "duration": 6, "velocity": 110}, {"time": 322, "pitch": 80, "duration": 3, "velocity": 107}, {"time": 325, "pitch": 80, "duration": 21, "velocity": 107}, {"time": 346, "pitch": 84, "duration": 6, "velocity": 119}, {"time": 352, "pitch": 82, "duration": 42, "velocity": 116}, {"time": 394, "pitch": 75, "duration": 3, "velocity": 114}, {"time": 397, "pitch": 73, "duration": 3, "velocity": 108}, {"time": 400, "pitch": 72, "duration": 6, "velocity": 109}, {"time": 406, "pitch": 75, "duration": 6, "velocity": 100}, {"time": 412, "pitch": 80, "duration": 3, "velocity": 110}, {"time": 415, "pitch": 80, "duration": 6, "velocity": 110}, {"time": 421, "pitch": 84, "duration": 3, "velocity": 109}, {"time": 424, "pitch": 84, "duration": 3, "velocity": 116}, {"time": 427, "pitch": 85, "duration": 15, "velocity": 116}, {"time": 442, "pitch": 82, "duration": 3, "velocity": 110}, {"time": 445, "pitch": 80, "duration": 3, "velocity": 93}, {"time": 448, "pitch": 82, "duration": 3, "velocity": 107}, {"time": 451, "pitch": 82, "duration": 6, "velocity": 107}, {"time": 457, "pitch": 75, "duration": 3, "velocity": 92}, {"time": 460, "pitch": 79, "duration": 6, "velocity": 100}, {"time": 466, "pitch": 82, "duration": 3, "velocity": 98}, {"time": 469, "pitch": 82, "duration": 3, "velocity": 91}, {"time": 472, "pitch": 85, "duration": 3, "velocity": 110}, {"time": 475, "pitch": 84, "duration": 27, "velocity": 116}, {"time": 502, "pitch": 80, "duration": 3, "velocity": 108}, {"time": 505, "pitch": 82, "duration": 3, "velocity": 104}, {"time": 508, "pitch": 84, "duration": 6, "velocity": 113}, {"time": 514, "pitch": 85, "duration": 3, "velocity": 113}, {"time": 517, "pitch": 84, "duration": 15, "velocity": 113}, {"time": 532, "pitch": 80, "duration": 3, "velocity": 116}, {"time": 535, "pitch": 89, "duration": 9, "velocity": 119}, {"time": 544, "pitch": 87, "duration": 48, "velocity": 119}, {"time": 592, "pitch": 84, "duration": 9, "velocity": 123}, {"time": 601, "pitch": 84, "duration": 6, "velocity": 116}, {"time": 607, "pitch": 87, "duration": 9, "velocity": 117}, {"time": 616, "pitch": 77, "duration": 24, "velocity": 119}, {"time": 640, "pitch": 82, "duration": 9, "velocity": 114}, {"time": 649, "pitch": 82, "duration": 9, "velocity": 114}, {"time": 658, "pitch": 85, "duration": 6, "velocity": 116}, {"time": 664, "pitch": 84, "duration": 30, "velocity": 119}, {"time": 694, "pitch": 80, "duration": 3, "velocity": 110}, {"time": 697, "pitch": 80, "duration": 3, "velocity": 107}, {"time": 700, "pitch": 79, "duration": 3, "velocity": 116}, {"time": 703, "pitch": 80, "duration": 9, "velocity": 114}, {"time": 712, "pitch": 89, "duration": 6, "velocity": 116}, {"time": 718, "pitch": 84, "duration": 6, "velocity": 119}, {"time": 724, "pitch": 82, "duration": 6, "velocity": 116}, {"time": 730, "pitch": 80, "duration": 3, "velocity": 114}, {"time": 733, "pitch": 82, "duration": 45, "velocity": 119}, {"time": 778, "pitch": 84, "duration": 3, "velocity": 119}, {"time": 781, "pitch": 82, "duration": 3, "velocity": 110}, {"time": 784, "pitch": 80, "duration": 9, "velocity": 113}, {"time": 793, "pitch": 80, "duration": 9, "velocity": 113}, {"time": 802, "pitch": 77, "duration": 6, "velocity": 116}, {"time": 808, "pitch": 75, "duration": 18, "velocity": 116}, {"time": 826, "pitch": 84, "duration": 3, "velocity": 116}, {"time": 829, "pitch": 82, "duration": 3, "velocity": 104}, {"time": 832, "pitch": 80, "duration": 9, "velocity": 114}, {"time": 841, "pitch": 80, "duration": 6, "velocity": 117}, {"time": 847, "pitch": 89, "duration": 9, "velocity": 116}, {"time": 856, "pitch": 87, "duration": 18, "velocity": 114}, {"time": 874, "pitch": 80, "duration": 3, "velocity": 113}, {"time": 877, "pitch": 82, "duration": 3, "velocity": 108}, {"time": 880, "pitch": 84, "duration": 6, "velocity": 116}, {"time": 886, "pitch": 80, "duration": 3, "velocity": 107}, {"time": 889, "pitch": 80, "duration": 6, "velocity": 107}, {"time": 895, "pitch": 80, "duration": 6, "velocity": 117}, {"time": 901, "pitch": 89, "duration": 3, "velocity": 116}, {"time": 904, "pitch": 87, "duration": 6, "velocity": 116}, {"time": 910, "pitch": 80, "duration": 3, "velocity": 116}, {"time": 913, "pitch": 80, "duration": 9, "velocity": 117}, {"time": 922, "pitch": 80, "duration": 3, "velocity": 113}, {"time": 925, "pitch": 72, "duration": 3, "velocity": 106}, {"time": 928, "pitch": 73, "duration": 4, "velocity": 102}, {"time": 931, "pitch": 80, "duration": 6, "velocity": 113}, {"time": 937, "pitch": 80, "duration": 12, "velocity": 114}, {"time": 949, "pitch": 75, "duration": 3, "velocity": 104}, {"time": 952, "pitch": 84, "duration": 6, "velocity": 116}, {"time": 958, "pitch": 82, "duration": 3, "velocity": 104}, {"time": 961, "pitch": 80, "duration": 9, "velocity": 104}, {"time": 970, "pitch": 82, "duration": 6, "velocity": 113}, {"time": 976, "pitch": 80, "duration": 19, "velocity": 114}, {"time": 1162, "pitch": 75, "duration": 3, "velocity": 114}, {"time": 1165, "pitch": 73, "duration": 3, "velocity": 108}, {"time": 1168, "pitch": 72, "duration": 6, "velocity": 109}, {"time": 1174, "pitch": 75, "duration": 6, "velocity": 100}, {"time": 1180, "pitch": 80, "duration": 3, "velocity": 110}, {"time": 1183, "pitch": 80, "duration": 6, "velocity": 110}, {"time": 1189, "pitch": 84, "duration": 3, "velocity": 109}, {"time": 1192, "pitch": 84, "duration": 3, "velocity": 116}, {"time": 1195, "pitch": 85, "duration": 15, "velocity": 116}, {"time": 1210, "pitch": 82, "duration": 3, "velocity": 110}, {"time": 1213, "pitch": 80, "duration": 3, "velocity": 93}, {"time": 1216, "pitch": 82, "duration": 3, "velocity": 107}, {"time": 1219, "pitch": 82, "duration": 6, "velocity": 107}, {"time": 1225, "pitch": 75, "duration": 3, "velocity": 92}, {"time": 1228, "pitch": 79, "duration": 6, "velocity": 100}, {"time": 1234, "pitch": 82, "duration": 3, "velocity": 98}, {"time": 1237, "pitch": 82, "duration": 3, "velocity": 91}, {"time": 1240, "pitch": 85, "duration": 3, "velocity": 110}, {"time": 1243, "pitch": 84, "duration": 27, "velocity": 116}, {"time": 1270, "pitch": 80, "duration": 3, "velocity": 108}, {"time": 1273, "pitch": 82, "duration": 3, "velocity": 104}, {"time": 1276, "pitch": 84, "duration": 12, "velocity": 113}, {"time": 1288, "pitch": 84, "duration": 6, "velocity": 119}, {"time": 1294, "pitch": 82, "duration": 6, "velocity": 110}, {"time": 1300, "pitch": 82, "duration": 3, "velocity": 113}, {"time": 1303, "pitch": 77, "duration": 9, "velocity": 113}, {"time": 1312, "pitch": 82, "duration": 48, "velocity": 116}, {"time": 1360, "pitch": 84, "duration": 9, "velocity": 123}, {"time": 1369, "pitch": 84, "duration": 6, "velocity": 116}, {"time": 1375, "pitch": 87, "duration": 9, "velocity": 117}, {"time": 1384, "pitch": 77, "duration": 24, "velocity": 119}, {"time": 1408, "pitch": 82, "duration": 9, "velocity": 114}, {"time": 1417, "pitch": 82, "duration": 9, "velocity": 114}, {"time": 1426, "pitch": 85, "duration": 6, "velocity": 116}, {"time": 1432, "pitch": 84, "duration": 30, "velocity": 119}, {"time": 1462, "pitch": 80, "duration": 3, "velocity": 110}, {"time": 1465, "pitch": 80, "duration": 3, "velocity": 107}, {"time": 1468, "pitch": 79, "duration": 3, "velocity": 116}, {"time": 1471, "pitch": 80, "duration": 9, "velocity": 114}, {"time": 1480, "pitch": 89, "duration": 6, "velocity": 116}, {"time": 1486, "pitch": 84, "duration": 6, "velocity": 119}, {"time": 1492, "pitch": 82, "duration": 6, "velocity": 116}, {"time": 1498, "pitch": 80, "duration": 3, "velocity": 114}, {"time": 1501, "pitch": 82, "duration": 45, "velocity": 119}, {"time": 1546, "pitch": 84, "duration": 3, "velocity": 119}, {"time": 1549, "pitch": 82, "duration": 3, "velocity": 110}, {"time": 1552, "pitch": 80, "duration": 9, "velocity": 113}, {"time": 1561, "pitch": 80, "duration": 9, "velocity": 113}, {"time": 1570, "pitch": 77, "duration": 6, "velocity": 116}, {"time": 1576, "pitch": 75, "duration": 18, "velocity": 116}, {"time": 1594, "pitch": 84, "duration": 3, "velocity": 116}, {"time": 1597, "pitch": 82, "duration": 3, "velocity": 104}, {"time": 1600, "pitch": 80, "duration": 9, "velocity": 114}, {"time": 1609, "pitch": 80, "duration": 6, "velocity": 117}, {"time": 1615, "pitch": 89, "duration": 9, "velocity": 116}, {"time": 1624, "pitch": 87, "duration": 18, "velocity": 114}, {"time": 1642, "pitch": 80, "duration": 3, "velocity": 113}, {"time": 1645, "pitch": 82, "duration": 3, "velocity": 108}, {"time": 1648, "pitch": 84, "duration": 6, "velocity": 116}, {"time": 1654, "pitch": 80, "duration": 3, "velocity": 107}, {"time": 1657, "pitch": 80, "duration": 6, "velocity": 107}, {"time": 1663, "pitch": 80, "duration": 6, "velocity": 117}, {"time": 1669, "pitch": 89, "duration": 3, "velocity": 116}, {"time": 1672, "pitch": 87, "duration": 6, "velocity": 116}, {"time": 1678, "pitch": 80, "duration": 3, "velocity": 116}, {"time": 1681, "pitch": 80, "duration": 9, "velocity": 117}, {"time": 1690, "pitch": 80, "duration": 3, "velocity": 113}, {"time": 1693, "pitch": 72, "duration": 3, "velocity": 106}, {"time": 1696, "pitch": 73, "duration": 4, "velocity": 102}, {"time": 1699, "pitch": 80, "duration": 6, "velocity": 113}, {"time": 1705, "pitch": 80, "duration": 12, "velocity": 114}, {"time": 1717, "pitch": 75, "duration": 3, "velocity": 104}, {"time": 1720, "pitch": 84, "duration": 6, "velocity": 116}, {"time": 1726, "pitch": 82, "duration": 3, "velocity": 104}, {"time": 1729, "pitch": 80, "duration": 9, "velocity": 104}, {"time": 1738, "pitch": 82, "duration": 6, "velocity": 113}, {"time": 1744, "pitch": 80, "duration": 12, "velocity": 114}, {"time": 1840, "pitch": 84, "duration": 9, "velocity": 123}, {"time": 1849, "pitch": 84, "duration": 6, "velocity": 116}, {"time": 1855, "pitch": 87, "duration": 9, "velocity": 117}, {"time": 1864, "pitch": 77, "duration": 24, "velocity": 119}, {"time": 1888, "pitch": 82, "duration": 9, "velocity": 114}, {"time": 1897, "pitch": 82, "duration": 9, "velocity": 114}, {"time": 1906, "pitch": 85, "duration": 6, "velocity": 116}, {"time": 1912, "pitch": 84, "duration": 30, "velocity": 119}, {"time": 1942, "pitch": 80, "duration": 3, "velocity": 110}, {"time": 1945, "pitch": 80, "duration": 3, "velocity": 107}, {"time": 1948, "pitch": 79, "duration": 3, "velocity": 116}, {"time": 1951, "pitch": 80, "duration": 9, "velocity": 114}, {"time": 1960, "pitch": 89, "duration": 6, "velocity": 116}, {"time": 1966, "pitch": 84, "duration": 6, "velocity": 119}, {"time": 1972, "pitch": 82, "duration": 6, "velocity": 116}, {"time": 1978, "pitch": 80, "duration": 3, "velocity": 114}, {"time": 1981, "pitch": 82, "duration": 45, "velocity": 119}, {"time": 2026, "pitch": 84, "duration": 3, "velocity": 119}, {"time": 2029, "pitch": 82, "duration": 3, "velocity": 110}, {"time": 2032, "pitch": 80, "duration": 9, "velocity": 113}, {"time": 2041, "pitch": 80, "duration": 9, "velocity": 113}, {"time": 2050, "pitch": 77, "duration": 6, "velocity": 116}, {"time": 2056, "pitch": 75, "duration": 18, "velocity": 116}, {"time": 2074, "pitch": 84, "duration": 3, "velocity": 116}, {"time": 2077, "pitch": 82, "duration": 3, "velocity": 104}, {"time": 2080, "pitch": 80, "duration": 9, "velocity": 114}, {"time": 2089, "pitch": 80, "duration": 6, "velocity": 117}, {"time": 2095, "pitch": 89, "duration": 9, "velocity": 116}, {"time": 2104, "pitch": 87, "duration": 18, "velocity": 114}, {"time": 2122, "pitch": 80, "duration": 3, "velocity": 113}, {"time": 2125, "pitch": 82, "duration": 3, "velocity": 108}, {"time": 2128, "pitch": 84, "duration": 6, "velocity": 116}, {"time": 2134, "pitch": 80, "duration": 3, "velocity": 107}, {"time": 2137, "pitch": 80, "duration": 6, "velocity": 107}, {"time": 2143, "pitch": 80, "duration": 6, "velocity": 117}, {"time": 2149, "pitch": 89, "duration": 3, "velocity": 116}, {"time": 2152, "pitch": 87, "duration": 6, "velocity": 116}, {"time": 2158, "pitch": 80, "duration": 3, "velocity": 116}, {"time": 2161, "pitch": 80, "duration": 9, "velocity": 117}, {"time": 2170, "pitch": 80, "duration": 3, "velocity": 113}, {"time": 2173, "pitch": 72, "duration": 3, "velocity": 106}, {"time": 2176, "pitch": 73, "duration": 4, "velocity": 102}, {"time": 2179, "pitch": 80, "duration": 6, "velocity": 113}, {"time": 2185, "pitch": 80, "duration": 12, "velocity": 114}, {"time": 2197, "pitch": 75, "duration": 3, "velocity": 104}, {"time": 2245, "pitch": 63, "duration": 3, "velocity": 90}, {"time": 2248, "pitch": 72, "duration": 6, "velocity": 119}, {"time": 2254, "pitch": 70, "duration": 3, "velocity": 93}, {"time": 2257, "pitch": 68, "duration": 9, "velocity": 102}, {"time": 2266, "pitch": 70, "duration": 9, "velocity": 113}, {"time": 2275, "pitch": 68, "duration": 21, "velocity": 113}]}, {"program": 0, "is_drum": false, "name": "PIANO", "notes": [{"time": 16, "pitch": 44, "duration": 20, "velocity": 86}, {"time": 19, "pitch": 51, "duration": 18, "velocity": 78}, {"time": 22, "pitch": 56, "duration": 18, "velocity": 77}, {"time": 25, "pitch": 60, "duration": 14, "velocity": 80}, {"time": 25, "pitch": 68, "duration": 14, "velocity": 76}, {"time": 40, "pitch": 49, "duration": 20, "velocity": 84}, {"time": 43, "pitch": 56, "duration": 21, "velocity": 84}, {"time": 46, "pitch": 61, "duration": 18, "velocity": 75}, {"time": 49, "pitch": 65, "duration": 15, "velocity": 76}, {"time": 64, "pitch": 51, "duration": 20, "velocity": 78}, {"time": 67, "pitch": 58, "duration": 16, "velocity": 77}, {"time": 70, "pitch": 63, "duration": 17, "velocity": 77}, {"time": 73, "pitch": 67, "duration": 14, "velocity": 79}, {"time": 76, "pitch": 70, "duration": 11, "velocity": 80}, {"time": 88, "pitch": 44, "duration": 12, "velocity": 77}, {"time": 88, "pitch": 60, "duration": 10, "velocity": 84}, {"time": 88, "pitch": 68, "duration": 11, "velocity": 86}, {"time": 100, "pitch": 43, "duration": 12, "velocity": 82}, {"time": 100, "pitch": 60, "duration": 20, "velocity": 87}, {"time": 100, "pitch": 67, "duration": 11, "velocity": 83}, {"time": 112, "pitch": 41, "duration": 20, "velocity": 83}, {"time": 112, "pitch": 65, "duration": 7, "velocity": 82}, {"time": 112, "pitch": 68, "duration": 6, "velocity": 86}, {"time": 112, "pitch": 69, "duration": 1, "velocity": 77}, {"time": 118, "pitch": 48, "duration": 14, "velocity": 71}, {"time": 124, "pitch": 53, "duration": 13, "velocity": 82}, {"time": 127, "pitch": 65, "duration": 8, "velocity": 79}, {"time": 130, "pitch": 56, "duration": 7, "velocity": 84}, {"time": 136, "pitch": 46, "duration": 12, "velocity": 81}, {"time": 136, "pitch": 58, "duration": 6, "velocity": 87}, {"time": 136, "pitch": 62, "duration": 6, "velocity": 87}, {"time": 136, "pitch": 65, "duration": 6, "velocity": 85}, {"time": 145, "pitch": 48, "duration": 4, "velocity": 100}, {"time": 145, "pitch": 63, "duration": 4, "velocity": 117}, {"time": 151, "pitch": 50, "duration": 6, "velocity": 100}, {"time": 151, "pitch": 65, "duration": 5, "velocity": 119}, {"time": 160, "pitch": 39, "duration": 19, "velocity": 80}, {"time": 163, "pitch": 51, "duration": 9, "velocity": 96}, {"time": 166, "pitch": 61, "duration": 3, "velocity": 97}, {"time": 169, "pitch": 63, "duration": 4, "velocity": 97}, {"time": 175, "pitch": 51, "duration": 1, "velocity": 97}, {"time": 178, "pitch": 61, "duration": 4, "velocity": 97}, {"time": 184, "pitch": 51, "duration": 18, "velocity": 96}, {"time": 184, "pitch": 58, "duration": 18, "velocity": 84}, {"time": 184, "pitch": 63, "duration": 19, "velocity": 91}, {"time": 184, "pitch": 67, "duration": 19, "velocity": 85}, {"time": 193, "pitch": 77, "duration": 3, "velocity": 82}, {"time": 199, "pitch": 75, "duration": 7, "velocity": 73}, {"time": 208, "pitch": 44, "duration": 19, "velocity": 82}, {"time": 211, "pitch": 51, "duration": 16, "velocity": 66}, {"time": 214, "pitch": 56, "duration": 18, "velocity": 77}, {"time": 217, "pitch": 60, "duration": 14, "velocity": 84}, {"time": 217, "pitch": 68, "duration": 15, "velocity": 81}, {"time": 232, "pitch": 49, "duration": 19, "velocity": 80}, {"time": 235, "pitch": 56, "duration": 16, "velocity": 77}, {"time": 238, "pitch": 61, "duration": 20, "velocity": 72}, {"time": 241, "pitch": 68, "duration": 18, "velocity": 86}, {"time": 256, "pitch": 51, "duration": 17, "velocity": 87}, {"time": 259, "pitch": 58, "duration": 14, "velocity": 74}, {"time": 262, "pitch": 63, "duration": 3, "velocity": 75}, {"time": 265, "pitch": 67, "duration": 14, "velocity": 86}, {"time": 280, "pitch": 44, "duration": 11, "velocity": 80}, {"time": 280, "pitch": 60, "duration": 10, "velocity": 81}, {"time": 280, "pitch": 68, "duration": 11, "velocity": 88}, {"time": 289, "pitch": 43, "duration": 13, "velocity": 84}, {"time": 289, "pitch": 67, "duration": 9, "velocity": 93}, {"time": 292, "pitch": 60, "duration": 8, "velocity": 88}, {"time": 304, "pitch": 41, "duration": 18, "velocity": 80}, {"time": 304, "pitch": 56, "duration": 10, "velocity": 86}, {"time": 304, "pitch": 65, "duration": 26, "velocity": 84}, {"time": 310, "pitch": 48, "duration": 13, "velocity": 48}, {"time": 313, "pitch": 53, "duration": 11, "velocity": 75}, {"time": 316, "pitch": 56, "duration": 12, "velocity": 77}, {"time": 328, "pitch": 46, "duration": 19, "velocity": 79}, {"time": 331, "pitch": 53, "duration": 17, "velocity": 68}, {"time": 334, "pitch": 58, "duration": 16, "velocity": 81}, {"time": 337, "pitch": 62, "duration": 1, "velocity": 79}, {"time": 340, "pitch": 62, "duration": 10, "velocity": 87}, {"time": 352, "pitch": 51, "duration": 41, "velocity": 80}, {"time": 355, "pitch": 58, "duration": 10, "velocity": 70}, {"time": 358, "pitch": 63, "duration": 5, "velocity": 78}, {"time": 361, "pitch": 68, "duration": 10, "velocity": 107}, {"time": 370, "pitch": 58, "duration": 21, "velocity": 68}, {"time": 373, "pitch": 68, "duration": 4, "velocity": 87}, {"time": 376, "pitch": 63, "duration": 24, "velocity": 83}, {"time": 376, "pitch": 67, "duration": 20, "velocity": 88}, {"time": 400, "pitch": 44, "duration": 19, "velocity": 86}, {"time": 403, "pitch": 51, "duration": 17, "velocity": 78}, {"time": 406, "pitch": 56, "duration": 18, "velocity": 77}, {"time": 409, "pitch": 60, "duration": 12, "velocity": 81}, {"time": 412, "pitch": 68, "duration": 6, "velocity": 88}, {"time": 418, "pitch": 63, "duration": 2, "velocity": 71}, {"time": 421, "pitch": 68, "duration": 12, "velocity": 86}, {"time": 424, "pitch": 49, "duration": 23, "velocity": 75}, {"time": 424, "pitch": 61, "duration": 10, "velocity": 82}, {"time": 424, "pitch": 65, "duration": 9, "velocity": 82}, {"time": 433, "pitch": 56, "duration": 10, "velocity": 75}, {"time": 436, "pitch": 61, "duration": 6, "velocity": 87}, {"time": 439, "pitch": 68, "duration": 8, "velocity": 100}, {"time": 448, "pitch": 51, "duration": 7, "velocity": 82}, {"time": 448, "pitch": 58, "duration": 13, "velocity": 88}, {"time": 448, "pitch": 63, "duration": 14, "velocity": 93}, {"time": 448, "pitch": 67, "duration": 14, "velocity": 84}, {"time": 457, "pitch": 51, "duration": 1, "velocity": 83}, {"time": 460, "pitch": 51, "duration": 13, "velocity": 88}, {"time": 463, "pitch": 58, "duration": 4, "velocity": 88}, {"time": 466, "pitch": 67, "duration": 5, "velocity": 106}, {"time": 472, "pitch": 44, "duration": 11, "velocity": 73}, {"time": 472, "pitch": 60, "duration": 4, "velocity": 86}, {"time": 472, "pitch": 63, "duration": 11, "velocity": 88}, {"time": 472, "pitch": 68, "duration": 4, "velocity": 102}, {"time": 481, "pitch": 68, "duration": 2, "velocity": 86}, {"time": 484, "pitch": 43, "duration": 12, "velocity": 85}, {"time": 484, "pitch": 60, "duration": 6, "velocity": 93}, {"time": 484, "pitch": 67, "duration": 5, "velocity": 85}, {"time": 490, "pitch": 68, "duration": 5, "velocity": 90}, {"time": 496, "pitch": 41, "duration": 21, "velocity": 83}, {"time": 496, "pitch": 53, "duration": 6, "velocity": 80}, {"time": 496, "pitch": 56, "duration": 10, "velocity": 88}, {"time": 496, "pitch": 65, "duration": 10, "velocity": 84}, {"time": 505, "pitch": 53, "duration": 5, "velocity": 81}, {"time": 508, "pitch": 56, "duration": 9, "velocity": 87}, {"time": 508, "pitch": 65, "duration": 13, "velocity": 95}, {"time": 514, "pitch": 53, "duration": 2, "velocity": 80}, {"time": 520, "pitch": 46, "duration": 17, "velocity": 83}, {"time": 520, "pitch": 62, "duration": 9, "velocity": 89}, {"time": 520, "pitch": 65, "duration": 1, "velocity": 90}, {"time": 520, "pitch": 70, "duration": 9, "velocity": 96}, {"time": 529, "pitch": 53, "duration": 8, "velocity": 83}, {"time": 532, "pitch": 62, "duration": 5, "velocity": 103}, {"time": 532, "pitch": 70, "duration": 3, "velocity": 88}, {"time": 535, "pitch": 65, "duration": 8, "velocity": 95}, {"time": 538, "pitch": 70, "duration": 4, "velocity": 90}, {"time": 544, "pitch": 39, "duration": 21, "velocity": 90}, {"time": 544, "pitch": 63, "duration": 4, "velocity": 92}, {"time": 544, "pitch": 67, "duration": 3, "velocity": 100}, {"time": 544, "pitch": 70, "duration": 3, "velocity": 91}, {"time": 547, "pitch": 46, "duration": 17, "velocity": 77}, {"time": 550, "pitch": 51, "duration": 4, "velocity": 80}, {"time": 553, "pitch": 58, "duration": 7, "velocity": 107}, {"time": 559, "pitch": 51, "duration": 6, "velocity": 86}, {"time": 562, "pitch": 56, "duration": 3, "velocity": 98}, {"time": 562, "pitch": 58, "duration": 3, "velocity": 91}, {"time": 568, "pitch": 39, "duration": 13, "velocity": 94}, {"time": 568, "pitch": 51, "duration": 5, "velocity": 90}, {"time": 568, "pitch": 55, "duration": 9, "velocity": 95}, {"time": 568, "pitch": 58, "duration": 10, "velocity": 92}, {"time": 568, "pitch": 63, "duration": 9, "velocity": 100}, {"time": 577, "pitch": 51, "duration": 3, "velocity": 108}, {"time": 580, "pitch": 55, "duration": 6, "velocity": 116}, {"time": 580, "pitch": 58, "duration": 10, "velocity": 116}, {"time": 580, "pitch": 63, "duration": 9, "velocity": 113}, {"time": 586, "pitch": 41, "duration": 3, "velocity": 87}, {"time": 589, "pitch": 43, "duration": 1, "velocity": 100}, {"time": 592, "pitch": 44, "duration": 19, "velocity": 94}, {"time": 592, "pitch": 56, "duration": 2, "velocity": 91}, {"time": 592, "pitch": 60, "duration": 3, "velocity": 103}, {"time": 592, "pitch": 63, "duration": 3, "velocity": 94}, {"time": 598, "pitch": 51, "duration": 13, "velocity": 84}, {"time": 601, "pitch": 56, "duration": 5, "velocity": 92}, {"time": 604, "pitch": 63, "duration": 5, "velocity": 96}, {"time": 604, "pitch": 68, "duration": 8, "velocity": 107}, {"time": 604, "pitch": 72, "duration": 8, "velocity": 109}, {"time": 610, "pitch": 56, "duration": 5, "velocity": 79}, {"time": 616, "pitch": 49, "duration": 18, "velocity": 85}, {"time": 616, "pitch": 65, "duration": 7, "velocity": 90}, {"time": 616, "pitch": 68, "duration": 10, "velocity": 98}, {"time": 616, "pitch": 73, "duration": 9, "velocity": 96}, {"time": 622, "pitch": 56, "duration": 14, "velocity": 71}, {"time": 625, "pitch": 61, "duration": 8, "velocity": 96}, {"time": 631, "pitch": 65, "duration": 4, "velocity": 100}, {"time": 631, "pitch": 68, "duration": 5, "velocity": 100}, {"time": 631, "pitch": 73, "duration": 5, "velocity": 100}, {"time": 637, "pitch": 49, "duration": 2, "velocity": 88}, {"time": 640, "pitch": 51, "duration": 15, "velocity": 96}, {"time": 640, "pitch": 63, "duration": 10, "velocity": 89}, {"time": 640, "pitch": 67, "duration": 10, "velocity": 103}, {"time": 640, "pitch": 70, "duration": 10, "velocity": 104}, {"time": 649, "pitch": 58, "duration": 5, "velocity": 87}, {"time": 652, "pitch": 63, "duration": 8, "velocity": 98}, {"time": 652, "pitch": 67, "duration": 5, "velocity": 109}, {"time": 652, "pitch": 70, "duration": 5, "velocity": 98}, {"time": 658, "pitch": 51, "duration": 1, "velocity": 84}, {"time": 664, "pitch": 44, "duration": 11, "velocity": 87}, {"time": 664, "pitch": 60, "duration": 6, "velocity": 93}, {"time": 664, "pitch": 63, "duration": 7, "velocity": 104}, {"time": 664, "pitch": 68, "duration": 5, "velocity": 98}, {"time": 673, "pitch": 60, "duration": 1, "velocity": 86}, {"time": 673, "pitch": 63, "duration": 2, "velocity": 90}, {"time": 673, "pitch": 68, "duration": 2, "velocity": 91}, {"time": 676, "pitch": 43, "duration": 7, "velocity": 91}, {"time": 676, "pitch": 60, "duration": 7, "velocity": 100}, {"time": 676, "pitch": 63, "duration": 1, "velocity": 102}, {"time": 676, "pitch": 67, "duration": 8, "velocity": 93}, {"time": 682, "pitch": 63, "duration": 2, "velocity": 30}, {"time": 685, "pitch": 68, "duration": 1, "velocity": 90}, {"time": 688, "pitch": 41, "duration": 18, "velocity": 84}, {"time": 688, "pitch": 53, "duration": 7, "velocity": 86}, {"time": 688, "pitch": 56, "duration": 10, "velocity": 102}, {"time": 688, "pitch": 61, "duration": 10, "velocity": 100}, {"time": 688, "pitch": 65, "duration": 10, "velocity": 97}, {"time": 697, "pitch": 53, "duration": 4, "velocity": 84}, {"time": 700, "pitch": 56, "duration": 5, "velocity": 102}, {"time": 700, "pitch": 61, "duration": 9, "velocity": 116}, {"time": 700, "pitch": 65, "duration": 8, "velocity": 106}, {"time": 706, "pitch": 53, "duration": 3, "velocity": 83}, {"time": 712, "pitch": 46, "duration": 20, "velocity": 91}, {"time": 712, "pitch": 58, "duration": 4, "velocity": 91}, {"time": 712, "pitch": 62, "duration": 9, "velocity": 106}, {"time": 712, "pitch": 65, "duration": 9, "velocity": 109}, {"time": 718, "pitch": 53, "duration": 6, "velocity": 75}, {"time": 721, "pitch": 58, "duration": 2, "velocity": 87}, {"time": 724, "pitch": 58, "duration": 3, "velocity": 108}, {"time": 724, "pitch": 62, "duration": 6, "velocity": 119}, {"time": 724, "pitch": 65, "duration": 6, "velocity": 113}, {"time": 730, "pitch": 53, "duration": 1, "velocity": 85}, {"time": 736, "pitch": 39, "duration": 22, "velocity": 89}, {"time": 736, "pitch": 58, "duration": 5, "velocity": 98}, {"time": 736, "pitch": 63, "duration": 3, "velocity": 113}, {"time": 736, "pitch": 67, "duration": 3, "velocity": 106}, {"time": 739, "pitch": 46, "duration": 19, "velocity": 74}, {"time": 742, "pitch": 51, "duration": 4, "velocity": 100}, {"time": 745, "pitch": 55, "duration": 6, "velocity": 103}, {"time": 745, "pitch": 58, "duration": 7, "velocity": 108}, {"time": 745, "pitch": 63, "duration": 6, "velocity": 107}, {"time": 751, "pitch": 51, "duration": 3, "velocity": 104}, {"time": 754, "pitch": 55, "duration": 3, "velocity": 91}, {"time": 754, "pitch": 58, "duration": 4, "velocity": 92}, {"time": 754, "pitch": 63, "duration": 4, "velocity": 94}, {"time": 757, "pitch": 51, "duration": 1, "velocity": 87}, {"time": 760, "pitch": 39, "duration": 18, "velocity": 107}, {"time": 763, "pitch": 46, "duration": 15, "velocity": 85}, {"time": 766, "pitch": 51, "duration": 6, "velocity": 114}, {"time": 769, "pitch": 55, "duration": 2, "velocity": 95}, {"time": 769, "pitch": 63, "duration": 1, "velocity": 88}, {"time": 772, "pitch": 55, "duration": 3, "velocity": 113}, {"time": 772, "pitch": 58, "duration": 3, "velocity": 116}, {"time": 772, "pitch": 63, "duration": 3, "velocity": 113}, {"time": 775, "pitch": 51, "duration": 8, "velocity": 116}, {"time": 778, "pitch": 55, "duration": 3, "velocity": 116}, {"time": 778, "pitch": 63, "duration": 3, "velocity": 110}, {"time": 781, "pitch": 58, "duration": 2, "velocity": 78}, {"time": 784, "pitch": 49, "duration": 19, "velocity": 94}, {"time": 787, "pitch": 56, "duration": 9, "velocity": 83}, {"time": 790, "pitch": 61, "duration": 1, "velocity": 77}, {"time": 793, "pitch": 61, "duration": 7, "velocity": 93}, {"time": 793, "pitch": 68, "duration": 7, "velocity": 102}, {"time": 799, "pitch": 56, "duration": 3, "velocity": 83}, {"time": 802, "pitch": 61, "duration": 7, "velocity": 87}, {"time": 802, "pitch": 68, "duration": 7, "velocity": 86}, {"time": 808, "pitch": 44, "duration": 18, "velocity": 90}, {"time": 811, "pitch": 51, "duration": 16, "velocity": 79}, {"time": 814, "pitch": 56, "duration": 5, "velocity": 86}, {"time": 817, "pitch": 60, "duration": 6, "velocity": 100}, {"time": 817, "pitch": 68, "duration": 6, "velocity": 91}, {"time": 823, "pitch": 56, "duration": 9, "velocity": 83}, {"time": 826, "pitch": 60, "duration": 3, "velocity": 95}, {"time": 826, "pitch": 68, "duration": 5, "velocity": 96}, {"time": 832, "pitch": 49, "duration": 15, "velocity": 87}, {"time": 832, "pitch": 61, "duration": 9, "velocity": 89}, {"time": 832, "pitch": 65, "duration": 8, "velocity": 95}, {"time": 832, "pitch": 68, "duration": 8, "velocity": 94}, {"time": 841, "pitch": 56, "duration": 7, "velocity": 82}, {"time": 844, "pitch": 61, "duration": 15, "velocity": 98}, {"time": 844, "pitch": 65, "duration": 15, "velocity": 106}, {"time": 844, "pitch": 68, "duration": 14, "velocity": 104}, {"time": 850, "pitch": 49, "duration": 2, "velocity": 88}, {"time": 856, "pitch": 44, "duration": 14, "velocity": 92}, {"time": 862, "pitch": 51, "duration": 8, "velocity": 77}, {"time": 865, "pitch": 56, "duration": 5, "velocity": 87}, {"time": 868, "pitch": 60, "duration": 9, "velocity": 103}, {"time": 868, "pitch": 68, "duration": 9, "velocity": 107}, {"time": 874, "pitch": 43, "duration": 5, "velocity": 75}, {"time": 880, "pitch": 41, "duration": 18, "velocity": 85}, {"time": 880, "pitch": 53, "duration": 7, "velocity": 88}, {"time": 880, "pitch": 60, "duration": 9, "velocity": 90}, {"time": 880, "pitch": 65, "duration": 9, "velocity": 89}, {"time": 880, "pitch": 68, "duration": 9, "velocity": 104}, {"time": 889, "pitch": 53, "duration": 5, "velocity": 84}, {"time": 892, "pitch": 60, "duration": 10, "velocity": 95}, {"time": 892, "pitch": 65, "duration": 18, "velocity": 91}, {"time": 892, "pitch": 68, "duration": 14, "velocity": 100}, {"time": 898, "pitch": 53, "duration": 6, "velocity": 84}, {"time": 904, "pitch": 48, "duration": 15, "velocity": 81}, {"time": 904, "pitch": 60, "duration": 14, "velocity": 84}, {"time": 904, "pitch": 63, "duration": 6, "velocity": 86}, {"time": 904, "pitch": 67, "duration": 7, "velocity": 90}, {"time": 904, "pitch": 72, "duration": 6, "velocity": 84}, {"time": 916, "pitch": 63, "duration": 5, "velocity": 88}, {"time": 916, "pitch": 67, "duration": 4, "velocity": 91}, {"time": 916, "pitch": 72, "duration": 4, "velocity": 84}, {"time": 928, "pitch": 46, "duration": 14, "velocity": 67}, {"time": 928, "pitch": 58, "duration": 14, "velocity": 78}, {"time": 928, "pitch": 61, "duration": 7, "velocity": 83}, {"time": 928, "pitch": 65, "duration": 7, "velocity": 84}, {"time": 928, "pitch": 70, "duration": 7, "velocity": 86}, {"time": 940, "pitch": 61, "duration": 7, "velocity": 94}, {"time": 940, "pitch": 65, "duration": 10, "velocity": 103}, {"time": 940, "pitch": 70, "duration": 7, "velocity": 94}, {"time": 946, "pitch": 46, "duration": 4, "velocity": 81}, {"time": 952, "pitch": 51, "duration": 23, "velocity": 87}, {"time": 952, "pitch": 63, "duration": 20, "velocity": 89}, {"time": 952, "pitch": 67, "duration": 18, "velocity": 97}, {"time": 952, "pitch": 70, "duration": 16, "velocity": 92}, {"time": 976, "pitch": 44, "duration": 20, "velocity": 86}, {"time": 979, "pitch": 51, "duration": 18, "velocity": 78}, {"time": 982, "pitch": 56, "duration": 18, "velocity": 77}, {"time": 985, "pitch": 60, "duration": 14, "velocity": 80}, {"time": 985, "pitch": 68, "duration": 14, "velocity": 76}, {"time": 1000, "pitch": 49, "duration": 20, "velocity": 84}, {"time": 1003, "pitch": 56, "duration": 21, "velocity": 84}, {"time": 1006, "pitch": 61, "duration": 18, "velocity": 75}, {"time": 1009, "pitch": 65, "duration": 15, "velocity": 76}, {"time": 1024, "pitch": 51, "duration": 20, "velocity": 78}, {"time": 1027, "pitch": 58, "duration": 16, "velocity": 77}, {"time": 1030, "pitch": 63, "duration": 17, "velocity": 77}, {"time": 1033, "pitch": 67, "duration": 14, "velocity": 79}, {"time": 1036, "pitch": 70, "duration": 11, "velocity": 80}, {"time": 1048, "pitch": 44, "duration": 12, "velocity": 77}, {"time": 1048, "pitch": 60, "duration": 10, "velocity": 84}, {"time": 1048, "pitch": 68, "duration": 11, "velocity": 86}, {"time": 1060, "pitch": 43, "duration": 12, "velocity": 82}, {"time": 1060, "pitch": 60, "duration": 20, "velocity": 87}, {"time": 1060, "pitch": 67, "duration": 11, "velocity": 83}, {"time": 1072, "pitch": 41, "duration": 20, "velocity": 83}, {"time": 1072, "pitch": 65, "duration": 7, "velocity": 82}, {"time": 1072, "pitch": 68, "duration": 6, "velocity": 86}, {"time": 1072, "pitch": 53, "duration": 20, "velocity": 83}, {"time": 1078, "pitch": 48, "duration": 14, "velocity": 71}, {"time": 1084, "pitch": 53, "duration": 8, "velocity": 82}, {"time": 1087, "pitch": 65, "duration": 8, "velocity": 79}, {"time": 1090, "pitch": 56, "duration": 7, "velocity": 84}, {"time": 1096, "pitch": 46, "duration": 12, "velocity": 81}, {"time": 1096, "pitch": 58, "duration": 6, "velocity": 87}, {"time": 1096, "pitch": 62, "duration": 6, "velocity": 87}, {"time": 1096, "pitch": 65, "duration": 6, "velocity": 85}, {"time": 1105, "pitch": 48, "duration": 4, "velocity": 100}, {"time": 1105, "pitch": 63, "duration": 4, "velocity": 117}, {"time": 1111, "pitch": 50, "duration": 6, "velocity": 100}, {"time": 1111, "pitch": 65, "duration": 5, "velocity": 119}, {"time": 1120, "pitch": 39, "duration": 10, "velocity": 80}, {"time": 1120, "pitch": 51, "duration": 10, "velocity": 96}, {"time": 1135, "pitch": 63, "duration": 3, "velocity": 86}, {"time": 1144, "pitch": 51, "duration": 10, "velocity": 96}, {"time": 1144, "pitch": 58, "duration": 11, "velocity": 84}, {"time": 1144, "pitch": 63, "duration": 12, "velocity": 91}, {"time": 1144, "pitch": 67, "duration": 12, "velocity": 85}, {"time": 1168, "pitch": 44, "duration": 19, "velocity": 86}, {"time": 1171, "pitch": 51, "duration": 17, "velocity": 78}, {"time": 1174, "pitch": 56, "duration": 18, "velocity": 77}, {"time": 1177, "pitch": 60, "duration": 12, "velocity": 81}, {"time": 1180, "pitch": 68, "duration": 6, "velocity": 88}, {"time": 1186, "pitch": 63, "duration": 2, "velocity": 71}, {"time": 1189, "pitch": 68, "duration": 12, "velocity": 86}, {"time": 1192, "pitch": 49, "duration": 23, "velocity": 75}, {"time": 1192, "pitch": 61, "duration": 10, "velocity": 82}, {"time": 1192, "pitch": 65, "duration": 9, "velocity": 82}, {"time": 1201, "pitch": 56, "duration": 10, "velocity": 75}, {"time": 1204, "pitch": 61, "duration": 6, "velocity": 87}, {"time": 1207, "pitch": 68, "duration": 8, "velocity": 100}, {"time": 1216, "pitch": 51, "duration": 7, "velocity": 82}, {"time": 1216, "pitch": 58, "duration": 13, "velocity": 88}, {"time": 1216, "pitch": 63, "duration": 14, "velocity": 93}, {"time": 1216, "pitch": 67, "duration": 14, "velocity": 84}, {"time": 1225, "pitch": 51, "duration": 1, "velocity": 83}, {"time": 1228, "pitch": 51, "duration": 13, "velocity": 88}, {"time": 1231, "pitch": 58, "duration": 4, "velocity": 88}, {"time": 1234, "pitch": 67, "duration": 5, "velocity": 106}, {"time": 1240, "pitch": 44, "duration": 11, "velocity": 73}, {"time": 1240, "pitch": 60, "duration": 4, "velocity": 86}, {"time": 1240, "pitch": 63, "duration": 11, "velocity": 88}, {"time": 1240, "pitch": 68, "duration": 4, "velocity": 102}, {"time": 1249, "pitch": 68, "duration": 2, "velocity": 86}, {"time": 1252, "pitch": 43, "duration": 12, "velocity": 85}, {"time": 1252, "pitch": 60, "duration": 6, "velocity": 93}, {"time": 1252, "pitch": 67, "duration": 5, "velocity": 85}, {"time": 1258, "pitch": 68, "duration": 5, "velocity": 90}, {"time": 1264, "pitch": 41, "duration": 21, "velocity": 83}, {"time": 1264, "pitch": 53, "duration": 6, "velocity": 80}, {"time": 1264, "pitch": 56, "duration": 10, "velocity": 88}, {"time": 1264, "pitch": 65, "duration": 10, "velocity": 84}, {"time": 1273, "pitch": 53, "duration": 5, "velocity": 81}, {"time": 1276, "pitch": 56, "duration": 9, "velocity": 87}, {"time": 1276, "pitch": 65, "duration": 13, "velocity": 95}, {"time": 1282, "pitch": 53, "duration": 2, "velocity": 80}, {"time": 1288, "pitch": 46, "duration": 17, "velocity": 83}, {"time": 1288, "pitch": 62, "duration": 9, "velocity": 89}, {"time": 1288, "pitch": 65, "duration": 1, "velocity": 90}, {"time": 1288, "pitch": 70, "duration": 9, "velocity": 96}, {"time": 1297, "pitch": 53, "duration": 8, "velocity": 83}, {"time": 1300, "pitch": 62, "duration": 5, "velocity": 103}, {"time": 1300, "pitch": 70, "duration": 3, "velocity": 88}, {"time": 1303, "pitch": 65, "duration": 8, "velocity": 95}, {"time": 1306, "pitch": 70, "duration": 4, "velocity": 90}, {"time": 1312, "pitch": 39, "duration": 21, "velocity": 90}, {"time": 1312, "pitch": 63, "duration": 4, "velocity": 92}, {"time": 1312, "pitch": 67, "duration": 3, "velocity": 100}, {"time": 1312, "pitch": 70, "duration": 3, "velocity": 91}, {"time": 1315, "pitch": 46, "duration": 17, "velocity": 77}, {"time": 1318, "pitch": 51, "duration": 4, "velocity": 80}, {"time": 1321, "pitch": 58, "duration": 7, "velocity": 107}, {"time": 1327, "pitch": 51, "duration": 6, "velocity": 86}, {"time": 1330, "pitch": 56, "duration": 3, "velocity": 98}, {"time": 1330, "pitch": 58, "duration": 3, "velocity": 91}, {"time": 1336, "pitch": 39, "duration": 13, "velocity": 94}, {"time": 1336, "pitch": 51, "duration": 5, "velocity": 90}, {"time": 1336, "pitch": 55, "duration": 9, "velocity": 95}, {"time": 1336, "pitch": 58, "duration": 10, "velocity": 92}, {"time": 1336, "pitch": 63, "duration": 9, "velocity": 100}, {"time": 1345, "pitch": 51, "duration": 3, "velocity": 108}, {"time": 1348, "pitch": 55, "duration": 6, "velocity": 116}, {"time": 1348, "pitch": 58, "duration": 10, "velocity": 116}, {"time": 1348, "pitch": 63, "duration": 9, "velocity": 113}, {"time": 1354, "pitch": 41, "duration": 3, "velocity": 87}, {"time": 1357, "pitch": 43, "duration": 1, "velocity": 100}, {"time": 1360, "pitch": 44, "duration": 19, "velocity": 94}, {"time": 1360, "pitch": 56, "duration": 2, "velocity": 91}, {"time": 1360, "pitch": 60, "duration": 3, "velocity": 103}, {"time": 1360, "pitch": 63, "duration": 3, "velocity": 94}, {"time": 1366, "pitch": 51, "duration": 13, "velocity": 84}, {"time": 1369, "pitch": 56, "duration": 5, "velocity": 92}, {"time": 1372, "pitch": 63, "duration": 5, "velocity": 96}, {"time": 1372, "pitch": 68, "duration": 8, "velocity": 107}, {"time": 1372, "pitch": 72, "duration": 8, "velocity": 109}, {"time": 1378, "pitch": 56, "duration": 5, "velocity": 79}, {"time": 1384, "pitch": 49, "duration": 18, "velocity": 85}, {"time": 1384, "pitch": 65, "duration": 7, "velocity": 90}, {"time": 1384, "pitch": 68, "duration": 10, "velocity": 98}, {"time": 1384, "pitch": 73, "duration": 9, "velocity": 96}, {"time": 1390, "pitch": 56, "duration": 14, "velocity": 71}, {"time": 1393, "pitch": 61, "duration": 8, "velocity": 96}, {"time": 1399, "pitch": 65, "duration": 4, "velocity": 100}, {"time": 1399, "pitch": 68, "duration": 5, "velocity": 100}, {"time": 1399, "pitch": 73, "duration": 5, "velocity": 100}, {"time": 1405, "pitch": 49, "duration": 2, "velocity": 88}, {"time": 1408, "pitch": 51, "duration": 15, "velocity": 96}, {"time": 1408, "pitch": 63, "duration": 10, "velocity": 89}, {"time": 1408, "pitch": 67, "duration": 10, "velocity": 103}, {"time": 1408, "pitch": 70, "duration": 10, "velocity": 104}, {"time": 1417, "pitch": 58, "duration": 5, "velocity": 87}, {"time": 1420, "pitch": 63, "duration": 8, "velocity": 98}, {"time": 1420, "pitch": 67, "duration": 5, "velocity": 109}, {"time": 1420, "pitch": 70, "duration": 5, "velocity": 98}, {"time": 1426, "pitch": 51, "duration": 1, "velocity": 84}, {"time": 1432, "pitch": 44, "duration": 11, "velocity": 87}, {"time": 1432, "pitch": 60, "duration": 6, "velocity": 93}, {"time": 1432, "pitch": 63, "duration": 7, "velocity": 104}, {"time": 1432, "pitch": 68, "duration": 5, "velocity": 98}, {"time": 1441, "pitch": 60, "duration": 1, "velocity": 86}, {"time": 1441, "pitch": 63, "duration": 2, "velocity": 90}, {"time": 1441, "pitch": 68, "duration": 2, "velocity": 91}, {"time": 1444, "pitch": 43, "duration": 7, "velocity": 91}, {"time": 1444, "pitch": 60, "duration": 7, "velocity": 100}, {"time": 1444, "pitch": 63, "duration": 1, "velocity": 102}, {"time": 1444, "pitch": 67, "duration": 8, "velocity": 93}, {"time": 1450, "pitch": 63, "duration": 2, "velocity": 30}, {"time": 1453, "pitch": 68, "duration": 1, "velocity": 90}, {"time": 1456, "pitch": 41, "duration": 18, "velocity": 84}, {"time": 1456, "pitch": 53, "duration": 7, "velocity": 86}, {"time": 1456, "pitch": 56, "duration": 10, "velocity": 102}, {"time": 1456, "pitch": 61, "duration": 10, "velocity": 100}, {"time": 1456, "pitch": 65, "duration": 10, "velocity": 97}, {"time": 1465, "pitch": 53, "duration": 4, "velocity": 84}, {"time": 1468, "pitch": 56, "duration": 5, "velocity": 102}, {"time": 1468, "pitch": 61, "duration": 9, "velocity": 116}, {"time": 1468, "pitch": 65, "duration": 8, "velocity": 106}, {"time": 1474, "pitch": 53, "duration": 3, "velocity": 83}, {"time": 1480, "pitch": 46, "duration": 20, "velocity": 91}, {"time": 1480, "pitch": 58, "duration": 4, "velocity": 91}, {"time": 1480, "pitch": 62, "duration": 9, "velocity": 106}, {"time": 1480, "pitch": 65, "duration": 9, "velocity": 109}, {"time": 1486, "pitch": 53, "duration": 6, "velocity": 75}, {"time": 1489, "pitch": 58, "duration": 2, "velocity": 87}, {"time": 1492, "pitch": 58, "duration": 3, "velocity": 108}, {"time": 1492, "pitch": 62, "duration": 6, "velocity": 119}, {"time": 1492, "pitch": 65, "duration": 6, "velocity": 113}, {"time": 1498, "pitch": 53, "duration": 1, "velocity": 85}, {"time": 1504, "pitch": 39, "duration": 22, "velocity": 89}, {"time": 1504, "pitch": 58, "duration": 5, "velocity": 98}, {"time": 1504, "pitch": 63, "duration": 3, "velocity": 113}, {"time": 1504, "pitch": 67, "duration": 3, "velocity": 106}, {"time": 1507, "pitch": 46, "duration": 19, "velocity": 74}, {"time": 1510, "pitch": 51, "duration": 4, "velocity": 100}, {"time": 1513, "pitch": 55, "duration": 6, "velocity": 103}, {"time": 1513, "pitch": 58, "duration": 7, "velocity": 108}, {"time": 1513, "pitch": 63, "duration": 6, "velocity": 107}, {"time": 1519, "pitch": 51, "duration": 3, "velocity": 104}, {"time": 1522, "pitch": 55, "duration": 3, "velocity": 91}, {"time": 1522, "pitch": 58, "duration": 4, "velocity": 92}, {"time": 1522, "pitch": 63, "duration": 4, "velocity": 94}, {"time": 1525, "pitch": 51, "duration": 1, "velocity": 87}, {"time": 1528, "pitch": 39, "duration": 18, "velocity": 107}, {"time": 1531, "pitch": 46, "duration": 15, "velocity": 85}, {"time": 1534, "pitch": 51, "duration": 6, "velocity": 114}, {"time": 1537, "pitch": 55, "duration": 2, "velocity": 95}, {"time": 1537, "pitch": 63, "duration": 1, "velocity": 88}, {"time": 1540, "pitch": 55, "duration": 3, "velocity": 113}, {"time": 1540, "pitch": 58, "duration": 3, "velocity": 116}, {"time": 1540, "pitch": 63, "duration": 3, "velocity": 113}, {"time": 1543, "pitch": 51, "duration": 8, "velocity": 116}, {"time": 1546, "pitch": 55, "duration": 3, "velocity": 116}, {"time": 1546, "pitch": 63, "duration": 3, "velocity": 110}, {"time": 1549, "pitch": 58, "duration": 2, "velocity": 78}, {"time": 1552, "pitch": 49, "duration": 19, "velocity": 94}, {"time": 1555, "pitch": 56, "duration": 9, "velocity": 83}, {"time": 1558, "pitch": 61, "duration": 1, "velocity": 77}, {"time": 1561, "pitch": 61, "duration": 7, "velocity": 93}, {"time": 1561, "pitch": 68, "duration": 7, "velocity": 102}, {"time": 1567, "pitch": 56, "duration": 3, "velocity": 83}, {"time": 1570, "pitch": 61, "duration": 7, "velocity": 87}, {"time": 1570, "pitch": 68, "duration": 7, "velocity": 86}, {"time": 1576, "pitch": 44, "duration": 18, "velocity": 90}, {"time": 1579, "pitch": 51, "duration": 16, "velocity": 79}, {"time": 1582, "pitch": 56, "duration": 5, "velocity": 86}, {"time": 1585, "pitch": 60, "duration": 6, "velocity": 100}, {"time": 1585, "pitch": 68, "duration": 6, "velocity": 91}, {"time": 1591, "pitch": 56, "duration": 9, "velocity": 83}, {"time": 1594, "pitch": 60, "duration": 3, "velocity": 95}, {"time": 1594, "pitch": 68, "duration": 5, "velocity": 96}, {"time": 1600, "pitch": 49, "duration": 15, "velocity": 87}, {"time": 1600, "pitch": 61, "duration": 9, "velocity": 89}, {"time": 1600, "pitch": 65, "duration": 8, "velocity": 95}, {"time": 1600, "pitch": 68, "duration": 8, "velocity": 94}, {"time": 1609, "pitch": 56, "duration": 7, "velocity": 82}, {"time": 1612, "pitch": 61, "duration": 15, "velocity": 98}, {"time": 1612, "pitch": 65, "duration": 15, "velocity": 106}, {"time": 1612, "pitch": 68, "duration": 14, "velocity": 104}, {"time": 1618, "pitch": 49, "duration": 2, "velocity": 88}, {"time": 1624, "pitch": 44, "duration": 14, "velocity": 92}, {"time": 1630, "pitch": 51, "duration": 8, "velocity": 77}, {"time": 1633, "pitch": 56, "duration": 5, "velocity": 87}, {"time": 1636, "pitch": 60, "duration": 9, "velocity": 103}, {"time": 1636, "pitch": 68, "duration": 9, "velocity": 107}, {"time": 1642, "pitch": 43, "duration": 5, "velocity": 75}, {"time": 1648, "pitch": 41, "duration": 18, "velocity": 85}, {"time": 1648, "pitch": 53, "duration": 7, "velocity": 88}, {"time": 1648, "pitch": 60, "duration": 9, "velocity": 90}, {"time": 1648, "pitch": 65, "duration": 9, "velocity": 89}, {"time": 1648, "pitch": 68, "duration": 9, "velocity": 104}, {"time": 1657, "pitch": 53, "duration": 5, "velocity": 84}, {"time": 1660, "pitch": 60, "duration": 10, "velocity": 95}, {"time": 1660, "pitch": 65, "duration": 18, "velocity": 91}, {"time": 1660, "pitch": 68, "duration": 14, "velocity": 100}, {"time": 1666, "pitch": 53, "duration": 6, "velocity": 84}, {"time": 1672, "pitch": 48, "duration": 15, "velocity": 81}, {"time": 1672, "pitch": 60, "duration": 14, "velocity": 84}, {"time": 1672, "pitch": 63, "duration": 6, "velocity": 86}, {"time": 1672, "pitch": 67, "duration": 7, "velocity": 90}, {"time": 1672, "pitch": 72, "duration": 6, "velocity": 84}, {"time": 1684, "pitch": 63, "duration": 5, "velocity": 88}, {"time": 1684, "pitch": 67, "duration": 4, "velocity": 91}, {"time": 1684, "pitch": 72, "duration": 4, "velocity": 84}, {"time": 1696, "pitch": 46, "duration": 14, "velocity": 67}, {"time": 1696, "pitch": 58, "duration": 14, "velocity": 78}, {"time": 1696, "pitch": 61, "duration": 7, "velocity": 83}, {"time": 1696, "pitch": 65, "duration": 7, "velocity": 84}, {"time": 1696, "pitch": 70, "duration": 7, "velocity": 86}, {"time": 1708, "pitch": 61, "duration": 7, "velocity": 94}, {"time": 1708, "pitch": 65, "duration": 10, "velocity": 103}, {"time": 1708, "pitch": 70, "duration": 7, "velocity": 94}, {"time": 1714, "pitch": 46, "duration": 4, "velocity": 81}, {"time": 1720, "pitch": 51, "duration": 23, "velocity": 87}, {"time": 1720, "pitch": 63, "duration": 20, "velocity": 89}, {"time": 1720, "pitch": 67, "duration": 18, "velocity": 97}, {"time": 1720, "pitch": 70, "duration": 16, "velocity": 92}, {"time": 1744, "pitch": 44, "duration": 44, "velocity": 79}, {"time": 1744, "pitch": 56, "duration": 47, "velocity": 82}, {"time": 1744, "pitch": 60, "duration": 11, "velocity": 84}, {"time": 1744, "pitch": 63, "duration": 11, "velocity": 88}, {"time": 1744, "pitch": 68, "duration": 11, "velocity": 88}, {"time": 1756, "pitch": 60, "duration": 9, "velocity": 83}, {"time": 1756, "pitch": 63, "duration": 8, "velocity": 87}, {"time": 1756, "pitch": 68, "duration": 8, "velocity": 88}, {"time": 1768, "pitch": 60, "duration": 8, "velocity": 78}, {"time": 1768, "pitch": 63, "duration": 9, "velocity": 85}, {"time": 1768, "pitch": 68, "duration": 9, "velocity": 85}, {"time": 1780, "pitch": 60, "duration": 4, "velocity": 82}, {"time": 1780, "pitch": 63, "duration": 7, "velocity": 86}, {"time": 1780, "pitch": 68, "duration": 8, "velocity": 87}, {"time": 1792, "pitch": 49, "duration": 22, "velocity": 82}, {"time": 1792, "pitch": 68, "duration": 1, "velocity": 78}, {"time": 1798, "pitch": 56, "duration": 15, "velocity": 71}, {"time": 1801, "pitch": 63, "duration": 8, "velocity": 81}, {"time": 1807, "pitch": 70, "duration": 7, "velocity": 93}, {"time": 1816, "pitch": 51, "duration": 23, "velocity": 84}, {"time": 1816, "pitch": 58, "duration": 11, "velocity": 83}, {"time": 1816, "pitch": 63, "duration": 10, "velocity": 85}, {"time": 1816, "pitch": 67, "duration": 10, "velocity": 81}, {"time": 1828, "pitch": 58, "duration": 9, "velocity": 87}, {"time": 1828, "pitch": 63, "duration": 9, "velocity": 94}, {"time": 1828, "pitch": 67, "duration": 10, "velocity": 87}, {"time": 1840, "pitch": 44, "duration": 19, "velocity": 94}, {"time": 1840, "pitch": 56, "duration": 2, "velocity": 91}, {"time": 1840, "pitch": 60, "duration": 3, "velocity": 103}, {"time": 1840, "pitch": 63, "duration": 3, "velocity": 94}, {"time": 1846, "pitch": 51, "duration": 13, "velocity": 84}, {"time": 1849, "pitch": 56, "duration": 5, "velocity": 92}, {"time": 1852, "pitch": 63, "duration": 5, "velocity": 96}, {"time": 1852, "pitch": 68, "duration": 8, "velocity": 107}, {"time": 1852, "pitch": 72, "duration": 8, "velocity": 109}, {"time": 1858, "pitch": 56, "duration": 5, "velocity": 79}, {"time": 1864, "pitch": 49, "duration": 18, "velocity": 85}, {"time": 1864, "pitch": 65, "duration": 7, "velocity": 90}, {"time": 1864, "pitch": 68, "duration": 10, "velocity": 98}, {"time": 1864, "pitch": 73, "duration": 9, "velocity": 96}, {"time": 1870, "pitch": 56, "duration": 14, "velocity": 71}, {"time": 1873, "pitch": 61, "duration": 8, "velocity": 96}, {"time": 1879, "pitch": 65, "duration": 4, "velocity": 100}, {"time": 1879, "pitch": 68, "duration": 5, "velocity": 100}, {"time": 1879, "pitch": 73, "duration": 5, "velocity": 100}, {"time": 1885, "pitch": 49, "duration": 2, "velocity": 88}, {"time": 1888, "pitch": 51, "duration": 15, "velocity": 96}, {"time": 1888, "pitch": 63, "duration": 10, "velocity": 89}, {"time": 1888, "pitch": 67, "duration": 10, "velocity": 103}, {"time": 1888, "pitch": 70, "duration": 10, "velocity": 104}, {"time": 1897, "pitch": 58, "duration": 5, "velocity": 87}, {"time": 1900, "pitch": 63, "duration": 8, "velocity": 98}, {"time": 1900, "pitch": 67, "duration": 5, "velocity": 109}, {"time": 1900, "pitch": 70, "duration": 5, "velocity": 98}, {"time": 1906, "pitch": 51, "duration": 1, "velocity": 84}, {"time": 1912, "pitch": 44, "duration": 11, "velocity": 87}, {"time": 1912, "pitch": 60, "duration": 6, "velocity": 93}, {"time": 1912, "pitch": 63, "duration": 7, "velocity": 104}, {"time": 1912, "pitch": 68, "duration": 5, "velocity": 98}, {"time": 1921, "pitch": 60, "duration": 1, "velocity": 86}, {"time": 1921, "pitch": 63, "duration": 2, "velocity": 90}, {"time": 1921, "pitch": 68, "duration": 2, "velocity": 91}, {"time": 1924, "pitch": 43, "duration": 7, "velocity": 91}, {"time": 1924, "pitch": 60, "duration": 7, "velocity": 100}, {"time": 1924, "pitch": 63, "duration": 1, "velocity": 102}, {"time": 1924, "pitch": 67, "duration": 8, "velocity": 93}, {"time": 1930, "pitch": 63, "duration": 2, "velocity": 30}, {"time": 1933, "pitch": 68, "duration": 1, "velocity": 90}, {"time": 1936, "pitch": 41, "duration": 18, "velocity": 84}, {"time": 1936, "pitch": 53, "duration": 7, "velocity": 86}, {"time": 1936, "pitch": 56, "duration": 10, "velocity": 102}, {"time": 1936, "pitch": 61, "duration": 10, "velocity": 100}, {"time": 1936, "pitch": 65, "duration": 10, "velocity": 97}, {"time": 1945, "pitch": 53, "duration": 4, "velocity": 84}, {"time": 1948, "pitch": 56, "duration": 5, "velocity": 102}, {"time": 1948, "pitch": 61, "duration": 9, "velocity": 116}, {"time": 1948, "pitch": 65, "duration": 8, "velocity": 106}, {"time": 1954, "pitch": 53, "duration": 3, "velocity": 83}, {"time": 1960, "pitch": 46, "duration": 20, "velocity": 91}, {"time": 1960, "pitch": 58, "duration": 4, "velocity": 91}, {"time": 1960, "pitch": 62, "duration": 9, "velocity": 106}, {"time": 1960, "pitch": 65, "duration": 9, "velocity": 109}, {"time": 1966, "pitch": 53, "duration": 6, "velocity": 75}, {"time": 1969, "pitch": 58, "duration": 2, "velocity": 87}, {"time": 1972, "pitch": 58, "duration": 3, "velocity": 108}, {"time": 1972, "pitch": 62, "duration": 6, "velocity": 119}, {"time": 1972, "pitch": 65, "duration": 6, "velocity": 113}, {"time": 1978, "pitch": 53, "duration": 1, "velocity": 85}, {"time": 1984, "pitch": 39, "duration": 22, "velocity": 89}, {"time": 1984, "pitch": 58, "duration": 5, "velocity": 98}, {"time": 1984, "pitch": 63, "duration": 3, "velocity": 113}, {"time": 1984, "pitch": 67, "duration": 3, "velocity": 106}, {"time": 1987, "pitch": 46, "duration": 19, "velocity": 74}, {"time": 1990, "pitch": 51, "duration": 4, "velocity": 100}, {"time": 1993, "pitch": 55, "duration": 6, "velocity": 103}, {"time": 1993, "pitch": 58, "duration": 7, "velocity": 108}, {"time": 1993, "pitch": 63, "duration": 6, "velocity": 107}, {"time": 1999, "pitch": 51, "duration": 3, "velocity": 104}, {"time": 2002, "pitch": 55, "duration": 3, "velocity": 91}, {"time": 2002, "pitch": 58, "duration": 4, "velocity": 92}, {"time": 2002, "pitch": 63, "duration": 4, "velocity": 94}, {"time": 2005, "pitch": 51, "duration": 1, "velocity": 87}, {"time": 2008, "pitch": 39, "duration": 18, "velocity": 107}, {"time": 2011, "pitch": 46, "duration": 15, "velocity": 85}, {"time": 2014, "pitch": 51, "duration": 6, "velocity": 114}, {"time": 2017, "pitch": 55, "duration": 2, "velocity": 95}, {"time": 2017, "pitch": 63, "duration": 1, "velocity": 88}, {"time": 2020, "pitch": 55, "duration": 3, "velocity": 113}, {"time": 2020, "pitch": 58, "duration": 3, "velocity": 116}, {"time": 2020, "pitch": 63, "duration": 3, "velocity": 113}, {"time": 2023, "pitch": 51, "duration": 8, "velocity": 116}, {"time": 2026, "pitch": 55, "duration": 3, "velocity": 116}, {"time": 2026, "pitch": 63, "duration": 3, "velocity": 110}, {"time": 2029, "pitch": 58, "duration": 2, "velocity": 78}, {"time": 2032, "pitch": 49, "duration": 19, "velocity": 94}, {"time": 2035, "pitch": 56, "duration": 9, "velocity": 83}, {"time": 2038, "pitch": 61, "duration": 1, "velocity": 77}, {"time": 2041, "pitch": 61, "duration": 7, "velocity": 93}, {"time": 2041, "pitch": 68, "duration": 7, "velocity": 102}, {"time": 2047, "pitch": 56, "duration": 3, "velocity": 83}, {"time": 2050, "pitch": 61, "duration": 7, "velocity": 87}, {"time": 2050, "pitch": 68, "duration": 7, "velocity": 86}, {"time": 2056, "pitch": 44, "duration": 18, "velocity": 90}, {"time": 2059, "pitch": 51, "duration": 16, "velocity": 79}, {"time": 2062, "pitch": 56, "duration": 5, "velocity": 86}, {"time": 2065, "pitch": 60, "duration": 6, "velocity": 100}, {"time": 2065, "pitch": 68, "duration": 6, "velocity": 91}, {"time": 2071, "pitch": 56, "duration": 9, "velocity": 83}, {"time": 2074, "pitch": 60, "duration": 3, "velocity": 95}, {"time": 2074, "pitch": 68, "duration": 5, "velocity": 96}, {"time": 2080, "pitch": 49, "duration": 15, "velocity": 87}, {"time": 2080, "pitch": 61, "duration": 9, "velocity": 89}, {"time": 2080, "pitch": 65, "duration": 8, "velocity": 95}, {"time": 2080, "pitch": 68, "duration": 8, "velocity": 94}, {"time": 2089, "pitch": 56, "duration": 7, "velocity": 82}, {"time": 2092, "pitch": 61, "duration": 15, "velocity": 98}, {"time": 2092, "pitch": 65, "duration": 15, "velocity": 106}, {"time": 2092, "pitch": 68, "duration": 14, "velocity": 104}, {"time": 2098, "pitch": 49, "duration": 2, "velocity": 88}, {"time": 2104, "pitch": 44, "duration": 14, "velocity": 92}, {"time": 2110, "pitch": 51, "duration": 8, "velocity": 77}, {"time": 2113, "pitch": 56, "duration": 5, "velocity": 87}, {"time": 2116, "pitch": 60, "duration": 9, "velocity": 103}, {"time": 2116, "pitch": 68, "duration": 9, "velocity": 107}, {"time": 2122, "pitch": 43, "duration": 5, "velocity": 75}, {"time": 2128, "pitch": 41, "duration": 18, "velocity": 85}, {"time": 2128, "pitch": 53, "duration": 7, "velocity": 88}, {"time": 2128, "pitch": 60, "duration": 9, "velocity": 90}, {"time": 2128, "pitch": 65, "duration": 9, "velocity": 89}, {"time": 2128, "pitch": 68, "duration": 9, "velocity": 104}, {"time": 2137, "pitch": 53, "duration": 5, "velocity": 84}, {"time": 2140, "pitch": 60, "duration": 10, "velocity": 95}, {"time": 2140, "pitch": 65, "duration": 18, "velocity": 91}, {"time": 2140, "pitch": 68, "duration": 14, "velocity": 100}, {"time": 2146, "pitch": 53, "duration": 6, "velocity": 84}, {"time": 2152, "pitch": 48, "duration": 15, "velocity": 81}, {"time": 2152, "pitch": 60, "duration": 14, "velocity": 84}, {"time": 2152, "pitch": 63, "duration": 6, "velocity": 86}, {"time": 2152, "pitch": 67, "duration": 7, "velocity": 90}, {"time": 2152, "pitch": 72, "duration": 6, "velocity": 84}, {"time": 2164, "pitch": 63, "duration": 5, "velocity": 88}, {"time": 2164, "pitch": 67, "duration": 4, "velocity": 91}, {"time": 2164, "pitch": 72, "duration": 4, "velocity": 84}, {"time": 2176, "pitch": 46, "duration": 14, "velocity": 67}, {"time": 2176, "pitch": 58, "duration": 14, "velocity": 78}, {"time": 2176, "pitch": 61, "duration": 7, "velocity": 83}, {"time": 2176, "pitch": 65, "duration": 7, "velocity": 84}, {"time": 2176, "pitch": 70, "duration": 7, "velocity": 86}, {"time": 2188, "pitch": 61, "duration": 7, "velocity": 94}, {"time": 2188, "pitch": 65, "duration": 10, "velocity": 103}, {"time": 2188, "pitch": 70, "duration": 7, "velocity": 94}, {"time": 2194, "pitch": 46, "duration": 4, "velocity": 81}, {"time": 2200, "pitch": 51, "duration": 45, "velocity": 87}, {"time": 2203, "pitch": 58, "duration": 41, "velocity": 83}, {"time": 2206, "pitch": 63, "duration": 37, "velocity": 87}, {"time": 2209, "pitch": 67, "duration": 1, "velocity": 86}, {"time": 2212, "pitch": 70, "duration": 2, "velocity": 91}, {"time": 2215, "pitch": 75, "duration": 1, "velocity": 83}, {"time": 2218, "pitch": 79, "duration": 1, "velocity": 86}, {"time": 2221, "pitch": 75, "duration": 22, "velocity": 84}, {"time": 2224, "pitch": 87, "duration": 18, "velocity": 87}, {"time": 2272, "pitch": 44, "duration": 19, "velocity": 86}, {"time": 2275, "pitch": 51, "duration": 16, "velocity": 76}, {"time": 2278, "pitch": 56, "duration": 18, "velocity": 79}, {"time": 2281, "pitch": 60, "duration": 9, "velocity": 86}, {"time": 2296, "pitch": 49, "duration": 18, "velocity": 78}, {"time": 2299, "pitch": 56, "duration": 14, "velocity": 74}, {"time": 2301, "pitch": 61, "duration": 12, "velocity": 83}, {"time": 2304, "pitch": 65, "duration": 17, "velocity": 83}, {"time": 2321, "pitch": 44, "duration": 20, "velocity": 82}, {"time": 2324, "pitch": 51, "duration": 16, "velocity": 64}, {"time": 2327, "pitch": 56, "duration": 19, "velocity": 79}, {"time": 2330, "pitch": 60, "duration": 14, "velocity": 73}, {"time": 2346, "pitch": 49, "duration": 21, "velocity": 77}, {"time": 2349, "pitch": 56, "duration": 16, "velocity": 74}, {"time": 2352, "pitch": 63, "duration": 15, "velocity": 72}, {"time": 2357, "pitch": 68, "duration": 8, "velocity": 38}, {"time": 2376, "pitch": 60, "duration": 11, "velocity": 50}, {"time": 2379, "pitch": 44, "duration": 7, "velocity": 68}, {"time": 2379, "pitch": 56, "duration": 7, "velocity": 69}, {"time": 2379, "pitch": 63, "duration": 8, "velocity": 65}, {"time": 2379, "pitch": 68, "duration": 8, "velocity": 84}], "annotations": [{"time": 208, "annotation": {"number": 64, "value": 127}, "group": "control_change"}, {"time": 230, "annotation": {"number": 64, "value": 38}, "group": "control_change"}, {"time": 230, "annotation": {"number": 64, "value": 127}, "group": "control_change"}, {"time": 289, "annotation": {"number": 64, "value": 38}, "group": "control_change"}, {"time": 289, "annotation": {"number": 64, "value": 0}, "group": "control_change"}, {"time": 291, "annotation": {"number": 64, "value": 127}, "group": "control_change"}, {"time": 381, "annotation": {"number": 64, "value": 38}, "group": "control_change"}, {"time": 381, "annotation": {"number": 64, "value": 127}, "group": "control_change"}, {"time": 382, "annotation": {"number": 64, "value": 74}, "group": "control_change"}, {"time": 382, "annotation": {"number": 64, "value": 127}, "group": "control_change"}, {"time": 398, "annotation": {"number": 64, "value": 38}, "group": "control_change"}, {"time": 398, "annotation": {"number": 64, "value": 0}, "group": "control_change"}, {"time": 400, "annotation": {"number": 64, "value": 127}, "group": "control_change"}, {"time": 421, "annotation": {"number": 64, "value": 74}, "group": "control_change"}, {"time": 422, "annotation": {"number": 64, "value": 0}, "group": "control_change"}, {"time": 423, "annotation": {"number": 64, "value": 127}, "group": "control_change"}, {"time": 424, "annotation": {"number": 64, "value": 38}, "group": "control_change"}, {"time": 424, "annotation": {"number": 64, "value": 127}, "group": "control_change"}, {"time": 446, "annotation": {"number": 64, "value": 38}, "group": "control_change"}, {"time": 446, "annotation": {"number": 64, "value": 0}, "group": "control_change"}, {"time": 447, "annotation": {"number": 64, "value": 127}, "group": "control_change"}, {"time": 470, "annotation": {"number": 64, "value": 38}, "group": "control_change"}, {"time": 470, "annotation": {"number": 64, "value": 0}, "group": "control_change"}, {"time": 471, "annotation": {"number": 64, "value": 127}, "group": "control_change"}, {"time": 482, "annotation": {"number": 64, "value": 38}, "group": "control_change"}, {"time": 482, "annotation": {"number": 64, "value": 0}, "group": "control_change"}, {"time": 483, "annotation": {"number": 64, "value": 74}, "group": "control_change"}, {"time": 483, "annotation": {"number": 64, "value": 127}, "group": "control_change"}, {"time": 494, "annotation": {"number": 64, "value": 74}, "group": "control_change"}, {"time": 494, "annotation": {"number": 64, "value": 0}, "group": "control_change"}, {"time": 495, "annotation": {"number": 64, "value": 127}, "group": "control_change"}, {"time": 518, "annotation": {"number": 64, "value": 0}, "group": "control_change"}, {"time": 519, "annotation": {"number": 64, "value": 127}, "group": "control_change"}, {"time": 520, "annotation": {"number": 64, "value": 127}, "group": "control_change"}, {"time": 526, "annotation": {"number": 64, "value": 0}, "group": "control_change"}, {"time": 535, "annotation": {"number": 64, "value": 38}, "group": "control_change"}, {"time": 536, "annotation": {"number": 64, "value": 127}, "group": "control_change"}, {"time": 541, "annotation": {"number": 64, "value": 38}, "group": "control_change"}, {"time": 541, "annotation": {"number": 64, "value": 0}, "group": "control_change"}, {"time": 543, "annotation": {"number": 64, "value": 127}, "group": "control_change"}, {"time": 565, "annotation": {"number": 64, "value": 38}, "group": "control_change"}, {"time": 565, "annotation": {"number": 64, "value": 0}, "group": "control_change"}, {"time": 567, "annotation": {"number": 64, "value": 127}, "group": "control_change"}, {"time": 589, "annotation": {"number": 64, "value": 0}, "group": "control_change"}, {"time": 591, "annotation": {"number": 64, "value": 127}, "group": "control_change"}, {"time": 613, "annotation": {"number": 64, "value": 0}, "group": "control_change"}, {"time": 615, "annotation": {"number": 64, "value": 127}, "group": "control_change"}, {"time": 617, "annotation": {"number": 64, "value": 38}, "group": "control_change"}, {"time": 617, "annotation": {"number": 64, "value": 127}, "group": "control_change"}, {"time": 637, "annotation": {"number": 64, "value": 0}, "group": "control_change"}, {"time": 639, "annotation": {"number": 64, "value": 127}, "group": "control_change"}, {"time": 662, "annotation": {"number": 64, "value": 38}, "group": "control_change"}, {"time": 662, "annotation": {"number": 64, "value": 0}, "group": "control_change"}, {"time": 663, "annotation": {"number": 64, "value": 127}, "group": "control_change"}, {"time": 664, "annotation": {"number": 64, "value": 74}, "group": "control_change"}, {"time": 664, "annotation": {"number": 64, "value": 127}, "group": "control_change"}, {"time": 674, "annotation": {"number": 64, "value": 74}, "group": "control_change"}, {"time": 674, "annotation": {"number": 64, "value": 0}, "group": "control_change"}, {"time": 675, "annotation": {"number": 64, "value": 127}, "group": "control_change"}, {"time": 686, "annotation": {"number": 64, "value": 0}, "group": "control_change"}, {"time": 687, "annotation": {"number": 64, "value": 127}, "group": "control_change"}, {"time": 691, "annotation": {"number": 64, "value": 74}, "group": "control_change"}, {"time": 691, "annotation": {"number": 64, "value": 0}, "group": "control_change"}, {"time": 692, "annotation": {"number": 64, "value": 127}, "group": "control_change"}, {"time": 709, "annotation": {"number": 64, "value": 38}, "group": "control_change"}, {"time": 709, "annotation": {"number": 64, "value": 0}, "group": "control_change"}, {"time": 711, "annotation": {"number": 64, "value": 127}, "group": "control_change"}, {"time": 722, "annotation": {"number": 64, "value": 74}, "group": "control_change"}, {"time": 722, "annotation": {"number": 64, "value": 0}, "group": "control_change"}, {"time": 723, "annotation": {"number": 64, "value": 127}, "group": "control_change"}, {"time": 733, "annotation": {"number": 64, "value": 0}, "group": "control_change"}, {"time": 735, "annotation": {"number": 64, "value": 127}, "group": "control_change"}, {"time": 757, "annotation": {"number": 64, "value": 74}, "group": "control_change"}, {"time": 757, "annotation": {"number": 64, "value": 0}, "group": "control_change"}, {"time": 759, "annotation": {"number": 64, "value": 127}, "group": "control_change"}, {"time": 769, "annotation": {"number": 64, "value": 74}, "group": "control_change"}, {"time": 769, "annotation": {"number": 64, "value": 0}, "group": "control_change"}, {"time": 771, "annotation": {"number": 64, "value": 127}, "group": "control_change"}, {"time": 782, "annotation": {"number": 64, "value": 38}, "group": "control_change"}, {"time": 782, "annotation": {"number": 64, "value": 0}, "group": "control_change"}, {"time": 783, "annotation": {"number": 64, "value": 127}, "group": "control_change"}, {"time": 784, "annotation": {"number": 64, "value": 127}, "group": "control_change"}, {"time": 787, "annotation": {"number": 64, "value": 0}, "group": "control_change"}, {"time": 806, "annotation": {"number": 64, "value": 0}, "group": "control_change"}, {"time": 807, "annotation": {"number": 64, "value": 127}, "group": "control_change"}, {"time": 830, "annotation": {"number": 64, "value": 38}, "group": "control_change"}, {"time": 830, "annotation": {"number": 64, "value": 0}, "group": "control_change"}, {"time": 831, "annotation": {"number": 64, "value": 127}, "group": "control_change"}, {"time": 853, "annotation": {"number": 64, "value": 38}, "group": "control_change"}, {"time": 853, "annotation": {"number": 64, "value": 0}, "group": "control_change"}, {"time": 855, "annotation": {"number": 64, "value": 127}, "group": "control_change"}, {"time": 877, "annotation": {"number": 64, "value": 38}, "group": "control_change"}, {"time": 877, "annotation": {"number": 64, "value": 0}, "group": "control_change"}, {"time": 879, "annotation": {"number": 64, "value": 127}, "group": "control_change"}, {"time": 902, "annotation": {"number": 64, "value": 74}, "group": "control_change"}, {"time": 902, "annotation": {"number": 64, "value": 0}, "group": "control_change"}, {"time": 903, "annotation": {"number": 64, "value": 127}, "group": "control_change"}, {"time": 904, "annotation": {"number": 64, "value": 127}, "group": "control_change"}, {"time": 918, "annotation": {"number": 64, "value": 0}, "group": "control_change"}, {"time": 925, "annotation": {"number": 64, "value": 74}, "group": "control_change"}, {"time": 925, "annotation": {"number": 64, "value": 0}, "group": "control_change"}, {"time": 927, "annotation": {"number": 64, "value": 127}, "group": "control_change"}, {"time": 949, "annotation": {"number": 64, "value": 74}, "group": "control_change"}, {"time": 949, "annotation": {"number": 64, "value": 0}, "group": "control_change"}, {"time": 951, "annotation": {"number": 64, "value": 127}, "group": "control_change"}, {"time": 972, "annotation": {"number": 64, "value": 38}, "group": "control_change"}, {"time": 972, "annotation": {"number": 64, "value": 0}, "group": "control_change"}, {"time": 974, "annotation": {"number": 64, "value": 127}, "group": "control_change"}, {"time": 1189, "annotation": {"number": 64, "value": 74}, "group": "control_change"}, {"time": 1190, "annotation": {"number": 64, "value": 0}, "group": "control_change"}, {"time": 1191, "annotation": {"number": 64, "value": 127}, "group": "control_change"}, {"time": 1192, "annotation": {"number": 64, "value": 38}, "group": "control_change"}, {"time": 1192, "annotation": {"number": 64, "value": 127}, "group": "control_change"}, {"time": 1214, "annotation": {"number": 64, "value": 38}, "group": "control_change"}, {"time": 1214, "annotation": {"number": 64, "value": 0}, "group": "control_change"}, {"time": 1215, "annotation": {"number": 64, "value": 127}, "group": "control_change"}, {"time": 1238, "annotation": {"number": 64, "value": 38}, "group": "control_change"}, {"time": 1238, "annotation": {"number": 64, "value": 0}, "group": "control_change"}, {"time": 1239, "annotation": {"number": 64, "value": 127}, "group": "control_change"}, {"time": 1250, "annotation": {"number": 64, "value": 38}, "group": "control_change"}, {"time": 1250, "annotation": {"number": 64, "value": 0}, "group": "control_change"}, {"time": 1251, "annotation": {"number": 64, "value": 74}, "group": "control_change"}, {"time": 1251, "annotation": {"number": 64, "value": 127}, "group": "control_change"}, {"time": 1262, "annotation": {"number": 64, "value": 74}, "group": "control_change"}, {"time": 1262, "annotation": {"number": 64, "value": 0}, "group": "control_change"}, {"time": 1263, "annotation": {"number": 64, "value": 127}, "group": "control_change"}, {"time": 1286, "annotation": {"number": 64, "value": 0}, "group": "control_change"}, {"time": 1287, "annotation": {"number": 64, "value": 127}, "group": "control_change"}, {"time": 1288, "annotation": {"number": 64, "value": 127}, "group": "control_change"}, {"time": 1294, "annotation": {"number": 64, "value": 0}, "group": "control_change"}, {"time": 1303, "annotation": {"number": 64, "value": 38}, "group": "control_change"}, {"time": 1304, "annotation": {"number": 64, "value": 127}, "group": "control_change"}, {"time": 1309, "annotation": {"number": 64, "value": 38}, "group": "control_change"}, {"time": 1309, "annotation": {"number": 64, "value": 0}, "group": "control_change"}, {"time": 1311, "annotation": {"number": 64, "value": 127}, "group": "control_change"}, {"time": 1333, "annotation": {"number": 64, "value": 38}, "group": "control_change"}, {"time": 1333, "annotation": {"number": 64, "value": 0}, "group": "control_change"}, {"time": 1335, "annotation": {"number": 64, "value": 127}, "group": "control_change"}, {"time": 1357, "annotation": {"number": 64, "value": 0}, "group": "control_change"}, {"time": 1359, "annotation": {"number": 64, "value": 127}, "group": "control_change"}, {"time": 1381, "annotation": {"number": 64, "value": 0}, "group": "control_change"}, {"time": 1383, "annotation": {"number": 64, "value": 127}, "group": "control_change"}, {"time": 1385, "annotation": {"number": 64, "value": 38}, "group": "control_change"}, {"time": 1385, "annotation": {"number": 64, "value": 127}, "group": "control_change"}, {"time": 1405, "annotation": {"number": 64, "value": 0}, "group": "control_change"}, {"time": 1407, "annotation": {"number": 64, "value": 127}, "group": "control_change"}, {"time": 1430, "annotation": {"number": 64, "value": 38}, "group": "control_change"}, {"time": 1430, "annotation": {"number": 64, "value": 0}, "group": "control_change"}, {"time": 1431, "annotation": {"number": 64, "value": 127}, "group": "control_change"}, {"time": 1432, "annotation": {"number": 64, "value": 74}, "group": "control_change"}, {"time": 1432, "annotation": {"number": 64, "value": 127}, "group": "control_change"}, {"time": 1442, "annotation": {"number": 64, "value": 74}, "group": "control_change"}, {"time": 1442, "annotation": {"number": 64, "value": 0}, "group": "control_change"}, {"time": 1443, "annotation": {"number": 64, "value": 127}, "group": "control_change"}, {"time": 1454, "annotation": {"number": 64, "value": 0}, "group": "control_change"}, {"time": 1455, "annotation": {"number": 64, "value": 127}, "group": "control_change"}, {"time": 1459, "annotation": {"number": 64, "value": 74}, "group": "control_change"}, {"time": 1459, "annotation": {"number": 64, "value": 0}, "group": "control_change"}, {"time": 1460, "annotation": {"number": 64, "value": 127}, "group": "control_change"}, {"time": 1477, "annotation": {"number": 64, "value": 38}, "group": "control_change"}, {"time": 1477, "annotation": {"number": 64, "value": 0}, "group": "control_change"}, {"time": 1479, "annotation": {"number": 64, "value": 127}, "group": "control_change"}, {"time": 1490, "annotation": {"number": 64, "value": 74}, "group": "control_change"}, {"time": 1490, "annotation": {"number": 64, "value": 0}, "group": "control_change"}, {"time": 1491, "annotation": {"number": 64, "value": 127}, "group": "control_change"}, {"time": 1501, "annotation": {"number": 64, "value": 0}, "group": "control_change"}, {"time": 1503, "annotation": {"number": 64, "value": 127}, "group": "control_change"}, {"time": 1525, "annotation": {"number": 64, "value": 74}, "group": "control_change"}, {"time": 1525, "annotation": {"number": 64, "value": 0}, "group": "control_change"}, {"time": 1527, "annotation": {"number": 64, "value": 127}, "group": "control_change"}, {"time": 1537, "annotation": {"number": 64, "value": 74}, "group": "control_change"}, {"time": 1537, "annotation": {"number": 64, "value": 0}, "group": "control_change"}, {"time": 1539, "annotation": {"number": 64, "value": 127}, "group": "control_change"}, {"time": 1550, "annotation": {"number": 64, "value": 38}, "group": "control_change"}, {"time": 1550, "annotation": {"number": 64, "value": 0}, "group": "control_change"}, {"time": 1551, "annotation": {"number": 64, "value": 127}, "group": "control_change"}, {"time": 1552, "annotation": {"number": 64, "value": 127}, "group": "control_change"}, {"time": 1555, "annotation": {"number": 64, "value": 0}, "group": "control_change"}, {"time": 1574, "annotation": {"number": 64, "value": 0}, "group": "control_change"}, {"time": 1575, "annotation": {"number": 64, "value": 127}, "group": "control_change"}, {"time": 1598, "annotation": {"number": 64, "value": 38}, "group": "control_change"}, {"time": 1598, "annotation": {"number": 64, "value": 0}, "group": "control_change"}, {"time": 1599, "annotation": {"number": 64, "value": 127}, "group": "control_change"}, {"time": 1621, "annotation": {"number": 64, "value": 38}, "group": "control_change"}, {"time": 1621, "annotation": {"number": 64, "value": 0}, "group": "control_change"}, {"time": 1623, "annotation": {"number": 64, "value": 127}, "group": "control_change"}, {"time": 1645, "annotation": {"number": 64, "value": 38}, "group": "control_change"}, {"time": 1645, "annotation": {"number": 64, "value": 0}, "group": "control_change"}, {"time": 1647, "annotation": {"number": 64, "value": 127}, "group": "control_change"}, {"time": 1670, "annotation": {"number": 64, "value": 74}, "group": "control_change"}, {"time": 1670, "annotation": {"number": 64, "value": 0}, "group": "control_change"}, {"time": 1671, "annotation": {"number": 64, "value": 127}, "group": "control_change"}, {"time": 1672, "annotation": {"number": 64, "value": 127}, "group": "control_change"}, {"time": 1686, "annotation": {"number": 64, "value": 0}, "group": "control_change"}, {"time": 1693, "annotation": {"number": 64, "value": 74}, "group": "control_change"}, {"time": 1693, "annotation": {"number": 64, "value": 0}, "group": "control_change"}, {"time": 1695, "annotation": {"number": 64, "value": 127}, "group": "control_change"}, {"time": 1717, "annotation": {"number": 64, "value": 74}, "group": "control_change"}, {"time": 1717, "annotation": {"number": 64, "value": 0}, "group": "control_change"}, {"time": 1719, "annotation": {"number": 64, "value": 127}, "group": "control_change"}, {"time": 1740, "annotation": {"number": 64, "value": 38}, "group": "control_change"}, {"time": 1740, "annotation": {"number": 64, "value": 0}, "group": "control_change"}, {"time": 1742, "annotation": {"number": 64, "value": 127}, "group": "control_change"}, {"time": 1861, "annotation": {"number": 64, "value": 0}, "group": "control_change"}, {"time": 1863, "annotation": {"number": 64, "value": 127}, "group": "control_change"}, {"time": 1865, "annotation": {"number": 64, "value": 38}, "group": "control_change"}, {"time": 1865, "annotation": {"number": 64, "value": 127}, "group": "control_change"}, {"time": 1885, "annotation": {"number": 64, "value": 0}, "group": "control_change"}, {"time": 1887, "annotation": {"number": 64, "value": 127}, "group": "control_change"}, {"time": 1910, "annotation": {"number": 64, "value": 38}, "group": "control_change"}, {"time": 1910, "annotation": {"number": 64, "value": 0}, "group": "control_change"}, {"time": 1911, "annotation": {"number": 64, "value": 127}, "group": "control_change"}, {"time": 1912, "annotation": {"number": 64, "value": 74}, "group": "control_change"}, {"time": 1912, "annotation": {"number": 64, "value": 127}, "group": "control_change"}, {"time": 1922, "annotation": {"number": 64, "value": 74}, "group": "control_change"}, {"time": 1922, "annotation": {"number": 64, "value": 0}, "group": "control_change"}, {"time": 1923, "annotation": {"number": 64, "value": 127}, "group": "control_change"}, {"time": 1934, "annotation": {"number": 64, "value": 0}, "group": "control_change"}, {"time": 1935, "annotation": {"number": 64, "value": 127}, "group": "control_change"}, {"time": 1939, "annotation": {"number": 64, "value": 74}, "group": "control_change"}, {"time": 1939, "annotation": {"number": 64, "value": 0}, "group": "control_change"}, {"time": 1940, "annotation": {"number": 64, "value": 127}, "group": "control_change"}, {"time": 1957, "annotation": {"number": 64, "value": 38}, "group": "control_change"}, {"time": 1957, "annotation": {"number": 64, "value": 0}, "group": "control_change"}, {"time": 1959, "annotation": {"number": 64, "value": 127}, "group": "control_change"}, {"time": 1970, "annotation": {"number": 64, "value": 74}, "group": "control_change"}, {"time": 1970, "annotation": {"number": 64, "value": 0}, "group": "control_change"}, {"time": 1971, "annotation": {"number": 64, "value": 127}, "group": "control_change"}, {"time": 1981, "annotation": {"number": 64, "value": 0}, "group": "control_change"}, {"time": 1983, "annotation": {"number": 64, "value": 127}, "group": "control_change"}, {"time": 2005, "annotation": {"number": 64, "value": 74}, "group": "control_change"}, {"time": 2005, "annotation": {"number": 64, "value": 0}, "group": "control_change"}, {"time": 2007, "annotation": {"number": 64, "value": 127}, "group": "control_change"}, {"time": 2017, "annotation": {"number": 64, "value": 74}, "group": "control_change"}, {"time": 2017, "annotation": {"number": 64, "value": 0}, "group": "control_change"}, {"time": 2019, "annotation": {"number": 64, "value": 127}, "group": "control_change"}, {"time": 2030, "annotation": {"number": 64, "value": 38}, "group": "control_change"}, {"time": 2030, "annotation": {"number": 64, "value": 0}, "group": "control_change"}, {"time": 2031, "annotation": {"number": 64, "value": 127}, "group": "control_change"}, {"time": 2032, "annotation": {"number": 64, "value": 127}, "group": "control_change"}, {"time": 2035, "annotation": {"number": 64, "value": 0}, "group": "control_change"}, {"time": 2054, "annotation": {"number": 64, "value": 0}, "group": "control_change"}, {"time": 2055, "annotation": {"number": 64, "value": 127}, "group": "control_change"}, {"time": 2078, "annotation": {"number": 64, "value": 38}, "group": "control_change"}, {"time": 2078, "annotation": {"number": 64, "value": 0}, "group": "control_change"}, {"time": 2079, "annotation": {"number": 64, "value": 127}, "group": "control_change"}, {"time": 2101, "annotation": {"number": 64, "value": 38}, "group": "control_change"}, {"time": 2101, "annotation": {"number": 64, "value": 0}, "group": "control_change"}, {"time": 2103, "annotation": {"number": 64, "value": 127}, "group": "control_change"}, {"time": 2125, "annotation": {"number": 64, "value": 38}, "group": "control_change"}, {"time": 2125, "annotation": {"number": 64, "value": 0}, "group": "control_change"}, {"time": 2127, "annotation": {"number": 64, "value": 127}, "group": "control_change"}, {"time": 2150, "annotation": {"number": 64, "value": 74}, "group": "control_change"}, {"time": 2150, "annotation": {"number": 64, "value": 0}, "group": "control_change"}, {"time": 2151, "annotation": {"number": 64, "value": 127}, "group": "control_change"}, {"time": 2152, "annotation": {"number": 64, "value": 127}, "group": "control_change"}, {"time": 2166, "annotation": {"number": 64, "value": 0}, "group": "control_change"}, {"time": 2173, "annotation": {"number": 64, "value": 74}, "group": "control_change"}, {"time": 2173, "annotation": {"number": 64, "value": 0}, "group": "control_change"}, {"time": 2175, "annotation": {"number": 64, "value": 127}, "group": "control_change"}, {"time": 2197, "annotation": {"number": 64, "value": 74}, "group": "control_change"}, {"time": 2197, "annotation": {"number": 64, "value": 0}, "group": "control_change"}, {"time": 2199, "annotation": {"number": 64, "value": 127}, "group": "control_change"}, {"time": 2200, "annotation": {"number": 64, "value": 127}, "group": "control_change"}, {"time": 2250, "annotation": {"number": 64, "value": 38}, "group": "control_change"}, {"time": 2250, "annotation": {"number": 64, "value": 0}, "group": "control_change"}, {"time": 2274, "annotation": {"number": 64, "value": 127}, "group": "control_change"}, {"time": 2318, "annotation": {"number": 64, "value": 0}, "group": "control_change"}, {"time": 2321, "annotation": {"number": 64, "value": 127}, "group": "control_change"}, {"time": 2391, "annotation": {"number": 64, "value": 38}, "group": "control_change"}, {"time": 2392, "annotation": {"number": 64, "value": 0}, "group": "control_change"}]}]}