{"metadata": {"schema_version": "0.2", "title": "None", "source_filename": "300.mid", "source_format": "midi"}, "resolution": 12, "tempos": [{"time": 0, "qpm": 70.00007000007}, {"time": 598, "qpm": 69.62519596591615}, {"time": 601, "qpm": 68.87692726252097}, {"time": 604, "qpm": 68.1283993232579}, {"time": 607, "qpm": 67.37674267137555}, {"time": 610, "qpm": 68.48908512280093}, {"time": 610, "qpm": 70.00007000007}, {"time": 1714, "qpm": 69.8736335337542}, {"time": 1726, "qpm": 69.62107569203349}, {"time": 1738, "qpm": 69.24712220501303}, {"time": 1762, "qpm": 69.49882083667313}, {"time": 1762, "qpm": 70.00007000007}], "time_signatures": [{"time": 0, "numerator": 4, "denominator": 4}], "tracks": [{"program": 0, "is_drum": false, "name": "MELODY", "notes": [{"time": 610, "pitch": 75, "duration": 5, "velocity": 119}, {"time": 616, "pitch": 73, "duration": 5, "velocity": 117}, {"time": 622, "pitch": 68, "duration": 5, "velocity": 119}, {"time": 628, "pitch": 64, "duration": 3, "velocity": 113}, {"time": 631, "pitch": 63, "duration": 4, "velocity": 113}, {"time": 640, "pitch": 61, "duration": 3, "velocity": 102}, {"time": 643, "pitch": 63, "duration": 4, "velocity": 108}, {"time": 649, "pitch": 64, "duration": 4, "velocity": 113}, {"time": 655, "pitch": 66, "duration": 5, "velocity": 114}, {"time": 664, "pitch": 66, "duration": 1, "velocity": 100}, {"time": 667, "pitch": 66, "duration": 5, "velocity": 100}, {"time": 673, "pitch": 64, "duration": 2, "velocity": 100}, {"time": 676, "pitch": 68, "duration": 4, "velocity": 113}, {"time": 682, "pitch": 66, "duration": 4, "velocity": 110}, {"time": 706, "pitch": 75, "duration": 5, "velocity": 114}, {"time": 712, "pitch": 73, "duration": 6, "velocity": 114}, {"time": 718, "pitch": 68, "duration": 5, "velocity": 117}, {"time": 724, "pitch": 64, "duration": 2, "velocity": 102}, {"time": 727, "pitch": 63, "duration": 5, "velocity": 108}, {"time": 736, "pitch": 61, "duration": 4, "velocity": 93}, {"time": 739, "pitch": 63, "duration": 6, "velocity": 93}, {"time": 745, "pitch": 64, "duration": 3, "velocity": 104}, {"time": 754, "pitch": 66, "duration": 4, "velocity": 113}, {"time": 760, "pitch": 66, "duration": 1, "velocity": 100}, {"time": 763, "pitch": 66, "duration": 4, "velocity": 102}, {"time": 769, "pitch": 68, "duration": 2, "velocity": 110}, {"time": 772, "pitch": 69, "duration": 4, "velocity": 113}, {"time": 778, "pitch": 68, "duration": 4, "velocity": 114}, {"time": 796, "pitch": 68, "duration": 2, "velocity": 113}, {"time": 799, "pitch": 68, "duration": 1, "velocity": 110}, {"time": 802, "pitch": 68, "duration": 3, "velocity": 110}, {"time": 808, "pitch": 66, "duration": 2, "velocity": 104}, {"time": 811, "pitch": 66, "duration": 4, "velocity": 108}, {"time": 823, "pitch": 68, "duration": 2, "velocity": 114}, {"time": 826, "pitch": 75, "duration": 3, "velocity": 117}, {"time": 832, "pitch": 75, "duration": 1, "velocity": 117}, {"time": 838, "pitch": 73, "duration": 3, "velocity": 114}, {"time": 841, "pitch": 75, "duration": 4, "velocity": 116}, {"time": 847, "pitch": 73, "duration": 3, "velocity": 114}, {"time": 850, "pitch": 71, "duration": 4, "velocity": 117}, {"time": 856, "pitch": 68, "duration": 4, "velocity": 110}, {"time": 862, "pitch": 71, "duration": 2, "velocity": 113}, {"time": 865, "pitch": 73, "duration": 5, "velocity": 114}, {"time": 874, "pitch": 64, "duration": 5, "velocity": 117}, {"time": 892, "pitch": 68, "duration": 2, "velocity": 114}, {"time": 895, "pitch": 68, "duration": 1, "velocity": 114}, {"time": 898, "pitch": 68, "duration": 3, "velocity": 114}, {"time": 904, "pitch": 66, "duration": 2, "velocity": 114}, {"time": 907, "pitch": 66, "duration": 4, "velocity": 116}, {"time": 919, "pitch": 66, "duration": 2, "velocity": 116}, {"time": 922, "pitch": 68, "duration": 4, "velocity": 119}, {"time": 928, "pitch": 66, "duration": 2, "velocity": 110}, {"time": 931, "pitch": 71, "duration": 6, "velocity": 119}, {"time": 940, "pitch": 69, "duration": 4, "velocity": 119}, {"time": 946, "pitch": 68, "duration": 5, "velocity": 119}, {"time": 994, "pitch": 75, "duration": 5, "velocity": 119}, {"time": 1000, "pitch": 73, "duration": 5, "velocity": 117}, {"time": 1006, "pitch": 68, "duration": 5, "velocity": 119}, {"time": 1012, "pitch": 64, "duration": 3, "velocity": 113}, {"time": 1015, "pitch": 63, "duration": 4, "velocity": 113}, {"time": 1024, "pitch": 61, "duration": 3, "velocity": 102}, {"time": 1027, "pitch": 63, "duration": 4, "velocity": 108}, {"time": 1033, "pitch": 64, "duration": 4, "velocity": 113}, {"time": 1039, "pitch": 66, "duration": 5, "velocity": 114}, {"time": 1048, "pitch": 66, "duration": 1, "velocity": 100}, {"time": 1051, "pitch": 66, "duration": 5, "velocity": 100}, {"time": 1057, "pitch": 64, "duration": 2, "velocity": 100}, {"time": 1060, "pitch": 68, "duration": 4, "velocity": 113}, {"time": 1066, "pitch": 66, "duration": 4, "velocity": 110}, {"time": 1090, "pitch": 75, "duration": 5, "velocity": 114}, {"time": 1096, "pitch": 73, "duration": 6, "velocity": 114}, {"time": 1102, "pitch": 68, "duration": 5, "velocity": 117}, {"time": 1108, "pitch": 64, "duration": 2, "velocity": 102}, {"time": 1111, "pitch": 63, "duration": 5, "velocity": 108}, {"time": 1120, "pitch": 61, "duration": 4, "velocity": 93}, {"time": 1123, "pitch": 63, "duration": 6, "velocity": 93}, {"time": 1129, "pitch": 64, "duration": 3, "velocity": 104}, {"time": 1138, "pitch": 66, "duration": 4, "velocity": 113}, {"time": 1144, "pitch": 66, "duration": 1, "velocity": 100}, {"time": 1147, "pitch": 66, "duration": 4, "velocity": 102}, {"time": 1153, "pitch": 68, "duration": 2, "velocity": 110}, {"time": 1156, "pitch": 69, "duration": 4, "velocity": 113}, {"time": 1162, "pitch": 68, "duration": 4, "velocity": 114}, {"time": 1180, "pitch": 68, "duration": 2, "velocity": 113}, {"time": 1183, "pitch": 68, "duration": 1, "velocity": 110}, {"time": 1186, "pitch": 68, "duration": 3, "velocity": 110}, {"time": 1192, "pitch": 66, "duration": 2, "velocity": 104}, {"time": 1195, "pitch": 66, "duration": 4, "velocity": 108}, {"time": 1207, "pitch": 68, "duration": 2, "velocity": 114}, {"time": 1210, "pitch": 75, "duration": 3, "velocity": 117}, {"time": 1216, "pitch": 75, "duration": 1, "velocity": 117}, {"time": 1222, "pitch": 73, "duration": 3, "velocity": 114}, {"time": 1225, "pitch": 75, "duration": 4, "velocity": 116}, {"time": 1231, "pitch": 73, "duration": 3, "velocity": 114}, {"time": 1234, "pitch": 71, "duration": 4, "velocity": 117}, {"time": 1240, "pitch": 71, "duration": 2, "velocity": 110}, {"time": 1243, "pitch": 68, "duration": 2, "velocity": 113}, {"time": 1246, "pitch": 71, "duration": 3, "velocity": 114}, {"time": 1249, "pitch": 73, "duration": 5, "velocity": 114}, {"time": 1258, "pitch": 64, "duration": 5, "velocity": 117}, {"time": 1276, "pitch": 68, "duration": 2, "velocity": 114}, {"time": 1279, "pitch": 68, "duration": 1, "velocity": 114}, {"time": 1282, "pitch": 68, "duration": 3, "velocity": 114}, {"time": 1288, "pitch": 66, "duration": 2, "velocity": 114}, {"time": 1291, "pitch": 66, "duration": 4, "velocity": 116}, {"time": 1303, "pitch": 66, "duration": 2, "velocity": 116}, {"time": 1306, "pitch": 68, "duration": 4, "velocity": 119}, {"time": 1312, "pitch": 66, "duration": 2, "velocity": 110}, {"time": 1318, "pitch": 71, "duration": 6, "velocity": 119}, {"time": 1324, "pitch": 69, "duration": 2, "velocity": 119}, {"time": 1327, "pitch": 69, "duration": 2, "velocity": 119}, {"time": 1333, "pitch": 68, "duration": 2, "velocity": 119}, {"time": 1360, "pitch": 68, "duration": 4, "velocity": 120}, {"time": 1366, "pitch": 80, "duration": 4, "velocity": 117}, {"time": 1372, "pitch": 76, "duration": 4, "velocity": 120}, {"time": 1384, "pitch": 73, "duration": 2, "velocity": 114}, {"time": 1390, "pitch": 75, "duration": 4, "velocity": 117}, {"time": 1396, "pitch": 73, "duration": 4, "velocity": 116}, {"time": 1402, "pitch": 75, "duration": 3, "velocity": 116}, {"time": 1408, "pitch": 73, "duration": 3, "velocity": 113}, {"time": 1411, "pitch": 75, "duration": 4, "velocity": 114}, {"time": 1420, "pitch": 76, "duration": 4, "velocity": 116}, {"time": 1426, "pitch": 76, "duration": 5, "velocity": 110}, {"time": 1432, "pitch": 73, "duration": 3, "velocity": 110}, {"time": 1438, "pitch": 73, "duration": 3, "velocity": 116}, {"time": 1444, "pitch": 71, "duration": 2, "velocity": 110}, {"time": 1447, "pitch": 73, "duration": 4, "velocity": 110}, {"time": 1456, "pitch": 66, "duration": 3, "velocity": 117}, {"time": 1462, "pitch": 78, "duration": 4, "velocity": 114}, {"time": 1468, "pitch": 76, "duration": 4, "velocity": 116}, {"time": 1474, "pitch": 76, "duration": 3, "velocity": 114}, {"time": 1480, "pitch": 75, "duration": 3, "velocity": 116}, {"time": 1483, "pitch": 75, "duration": 3, "velocity": 117}, {"time": 1492, "pitch": 73, "duration": 4, "velocity": 114}, {"time": 1498, "pitch": 73, "duration": 4, "velocity": 110}, {"time": 1504, "pitch": 71, "duration": 2, "velocity": 108}, {"time": 1507, "pitch": 71, "duration": 3, "velocity": 114}, {"time": 1516, "pitch": 69, "duration": 1, "velocity": 116}, {"time": 1519, "pitch": 69, "duration": 1, "velocity": 103}, {"time": 1522, "pitch": 69, "duration": 5, "velocity": 116}, {"time": 1528, "pitch": 68, "duration": 4, "velocity": 116}, {"time": 1534, "pitch": 66, "duration": 4, "velocity": 110}, {"time": 1540, "pitch": 69, "duration": 2, "velocity": 113}, {"time": 1543, "pitch": 68, "duration": 4, "velocity": 119}, {"time": 1552, "pitch": 68, "duration": 3, "velocity": 117}, {"time": 1558, "pitch": 80, "duration": 5, "velocity": 114}, {"time": 1564, "pitch": 76, "duration": 7, "velocity": 116}, {"time": 1570, "pitch": 75, "duration": 4, "velocity": 117}, {"time": 1576, "pitch": 73, "duration": 2, "velocity": 113}, {"time": 1579, "pitch": 75, "duration": 5, "velocity": 114}, {"time": 1588, "pitch": 73, "duration": 3, "velocity": 113}, {"time": 1594, "pitch": 75, "duration": 6, "velocity": 91}, {"time": 1600, "pitch": 73, "duration": 3, "velocity": 114}, {"time": 1603, "pitch": 75, "duration": 3, "velocity": 116}, {"time": 1609, "pitch": 76, "duration": 4, "velocity": 114}, {"time": 1618, "pitch": 76, "duration": 5, "velocity": 116}, {"time": 1624, "pitch": 73, "duration": 3, "velocity": 116}, {"time": 1630, "pitch": 73, "duration": 3, "velocity": 117}, {"time": 1636, "pitch": 71, "duration": 2, "velocity": 116}, {"time": 1639, "pitch": 73, "duration": 4, "velocity": 117}, {"time": 1657, "pitch": 76, "duration": 1, "velocity": 114}, {"time": 1660, "pitch": 76, "duration": 1, "velocity": 108}, {"time": 1663, "pitch": 76, "duration": 1, "velocity": 110}, {"time": 1666, "pitch": 76, "duration": 3, "velocity": 116}, {"time": 1672, "pitch": 75, "duration": 1, "velocity": 113}, {"time": 1675, "pitch": 75, "duration": 1, "velocity": 114}, {"time": 1678, "pitch": 75, "duration": 3, "velocity": 119}, {"time": 1684, "pitch": 73, "duration": 1, "velocity": 116}, {"time": 1687, "pitch": 73, "duration": 1, "velocity": 113}, {"time": 1690, "pitch": 73, "duration": 3, "velocity": 117}, {"time": 1696, "pitch": 71, "duration": 4, "velocity": 114}, {"time": 1702, "pitch": 76, "duration": 4, "velocity": 117}, {"time": 1708, "pitch": 75, "duration": 3, "velocity": 110}, {"time": 1714, "pitch": 75, "duration": 3, "velocity": 117}, {"time": 1717, "pitch": 73, "duration": 4, "velocity": 117}, {"time": 2146, "pitch": 75, "duration": 6, "velocity": 119}, {"time": 2152, "pitch": 73, "duration": 5, "velocity": 117}, {"time": 2158, "pitch": 68, "duration": 5, "velocity": 119}, {"time": 2164, "pitch": 64, "duration": 3, "velocity": 113}, {"time": 2167, "pitch": 63, "duration": 4, "velocity": 113}, {"time": 2176, "pitch": 61, "duration": 3, "velocity": 102}, {"time": 2179, "pitch": 63, "duration": 5, "velocity": 108}, {"time": 2185, "pitch": 64, "duration": 4, "velocity": 113}, {"time": 2191, "pitch": 66, "duration": 5, "velocity": 114}, {"time": 2200, "pitch": 66, "duration": 2, "velocity": 100}, {"time": 2203, "pitch": 66, "duration": 5, "velocity": 100}, {"time": 2209, "pitch": 64, "duration": 2, "velocity": 100}, {"time": 2212, "pitch": 68, "duration": 4, "velocity": 113}, {"time": 2218, "pitch": 66, "duration": 4, "velocity": 110}, {"time": 2242, "pitch": 75, "duration": 5, "velocity": 114}, {"time": 2248, "pitch": 73, "duration": 6, "velocity": 114}, {"time": 2254, "pitch": 68, "duration": 5, "velocity": 117}, {"time": 2260, "pitch": 64, "duration": 2, "velocity": 102}, {"time": 2263, "pitch": 63, "duration": 6, "velocity": 108}, {"time": 2272, "pitch": 61, "duration": 4, "velocity": 93}, {"time": 2275, "pitch": 63, "duration": 6, "velocity": 93}, {"time": 2281, "pitch": 64, "duration": 3, "velocity": 104}, {"time": 2290, "pitch": 66, "duration": 4, "velocity": 113}, {"time": 2296, "pitch": 66, "duration": 2, "velocity": 100}, {"time": 2299, "pitch": 66, "duration": 4, "velocity": 102}, {"time": 2305, "pitch": 68, "duration": 2, "velocity": 110}, {"time": 2308, "pitch": 69, "duration": 4, "velocity": 113}, {"time": 2314, "pitch": 68, "duration": 4, "velocity": 114}, {"time": 2332, "pitch": 68, "duration": 2, "velocity": 113}, {"time": 2335, "pitch": 68, "duration": 1, "velocity": 110}, {"time": 2338, "pitch": 68, "duration": 3, "velocity": 110}, {"time": 2344, "pitch": 66, "duration": 2, "velocity": 104}, {"time": 2347, "pitch": 66, "duration": 4, "velocity": 108}, {"time": 2359, "pitch": 68, "duration": 2, "velocity": 114}, {"time": 2362, "pitch": 75, "duration": 3, "velocity": 117}, {"time": 2368, "pitch": 75, "duration": 2, "velocity": 117}, {"time": 2374, "pitch": 73, "duration": 3, "velocity": 114}, {"time": 2377, "pitch": 75, "duration": 4, "velocity": 116}, {"time": 2383, "pitch": 73, "duration": 3, "velocity": 114}, {"time": 2386, "pitch": 71, "duration": 4, "velocity": 117}, {"time": 2392, "pitch": 68, "duration": 4, "velocity": 110}, {"time": 2398, "pitch": 71, "duration": 2, "velocity": 113}, {"time": 2401, "pitch": 73, "duration": 5, "velocity": 114}, {"time": 2410, "pitch": 64, "duration": 5, "velocity": 117}, {"time": 2428, "pitch": 68, "duration": 2, "velocity": 114}, {"time": 2431, "pitch": 68, "duration": 1, "velocity": 114}, {"time": 2434, "pitch": 68, "duration": 3, "velocity": 114}, {"time": 2440, "pitch": 66, "duration": 2, "velocity": 114}, {"time": 2443, "pitch": 66, "duration": 4, "velocity": 116}, {"time": 2455, "pitch": 66, "duration": 2, "velocity": 116}, {"time": 2458, "pitch": 68, "duration": 4, "velocity": 119}, {"time": 2464, "pitch": 66, "duration": 2, "velocity": 110}, {"time": 2467, "pitch": 71, "duration": 6, "velocity": 119}, {"time": 2476, "pitch": 69, "duration": 4, "velocity": 119}, {"time": 2482, "pitch": 68, "duration": 5, "velocity": 119}, {"time": 2530, "pitch": 75, "duration": 6, "velocity": 119}, {"time": 2536, "pitch": 73, "duration": 5, "velocity": 117}, {"time": 2542, "pitch": 68, "duration": 5, "velocity": 119}, {"time": 2548, "pitch": 64, "duration": 3, "velocity": 113}, {"time": 2551, "pitch": 63, "duration": 4, "velocity": 113}, {"time": 2560, "pitch": 61, "duration": 3, "velocity": 102}, {"time": 2563, "pitch": 63, "duration": 5, "velocity": 108}, {"time": 2569, "pitch": 64, "duration": 4, "velocity": 113}, {"time": 2575, "pitch": 66, "duration": 5, "velocity": 114}, {"time": 2584, "pitch": 66, "duration": 2, "velocity": 100}, {"time": 2587, "pitch": 66, "duration": 5, "velocity": 100}, {"time": 2593, "pitch": 64, "duration": 2, "velocity": 100}, {"time": 2596, "pitch": 68, "duration": 4, "velocity": 113}, {"time": 2602, "pitch": 66, "duration": 4, "velocity": 110}, {"time": 2626, "pitch": 75, "duration": 5, "velocity": 114}, {"time": 2632, "pitch": 73, "duration": 6, "velocity": 114}, {"time": 2638, "pitch": 68, "duration": 5, "velocity": 117}, {"time": 2644, "pitch": 64, "duration": 2, "velocity": 102}, {"time": 2647, "pitch": 63, "duration": 6, "velocity": 108}, {"time": 2656, "pitch": 61, "duration": 4, "velocity": 93}, {"time": 2659, "pitch": 63, "duration": 6, "velocity": 93}, {"time": 2665, "pitch": 64, "duration": 3, "velocity": 104}, {"time": 2674, "pitch": 66, "duration": 4, "velocity": 113}, {"time": 2680, "pitch": 66, "duration": 2, "velocity": 100}, {"time": 2683, "pitch": 66, "duration": 4, "velocity": 102}, {"time": 2689, "pitch": 68, "duration": 2, "velocity": 110}, {"time": 2692, "pitch": 69, "duration": 4, "velocity": 113}, {"time": 2698, "pitch": 68, "duration": 4, "velocity": 114}, {"time": 2716, "pitch": 68, "duration": 2, "velocity": 113}, {"time": 2719, "pitch": 68, "duration": 1, "velocity": 110}, {"time": 2722, "pitch": 68, "duration": 3, "velocity": 110}, {"time": 2728, "pitch": 66, "duration": 2, "velocity": 104}, {"time": 2731, "pitch": 66, "duration": 4, "velocity": 108}, {"time": 2743, "pitch": 68, "duration": 2, "velocity": 114}, {"time": 2746, "pitch": 75, "duration": 3, "velocity": 117}, {"time": 2752, "pitch": 75, "duration": 2, "velocity": 117}, {"time": 2758, "pitch": 73, "duration": 3, "velocity": 114}, {"time": 2761, "pitch": 75, "duration": 4, "velocity": 116}, {"time": 2767, "pitch": 73, "duration": 3, "velocity": 114}, {"time": 2770, "pitch": 71, "duration": 4, "velocity": 117}, {"time": 2776, "pitch": 71, "duration": 2, "velocity": 110}, {"time": 2779, "pitch": 68, "duration": 3, "velocity": 113}, {"time": 2782, "pitch": 71, "duration": 3, "velocity": 114}, {"time": 2785, "pitch": 73, "duration": 5, "velocity": 114}, {"time": 2794, "pitch": 64, "duration": 5, "velocity": 117}, {"time": 2812, "pitch": 68, "duration": 2, "velocity": 114}, {"time": 2815, "pitch": 68, "duration": 1, "velocity": 114}, {"time": 2818, "pitch": 68, "duration": 3, "velocity": 114}, {"time": 2824, "pitch": 66, "duration": 2, "velocity": 114}, {"time": 2827, "pitch": 66, "duration": 4, "velocity": 116}, {"time": 2839, "pitch": 66, "duration": 2, "velocity": 116}, {"time": 2842, "pitch": 68, "duration": 4, "velocity": 119}, {"time": 2848, "pitch": 66, "duration": 2, "velocity": 110}, {"time": 2854, "pitch": 71, "duration": 6, "velocity": 119}, {"time": 2860, "pitch": 69, "duration": 2, "velocity": 119}, {"time": 2863, "pitch": 69, "duration": 2, "velocity": 119}, {"time": 2869, "pitch": 68, "duration": 2, "velocity": 119}, {"time": 2896, "pitch": 68, "duration": 4, "velocity": 120}, {"time": 2902, "pitch": 80, "duration": 4, "velocity": 117}, {"time": 2908, "pitch": 76, "duration": 4, "velocity": 120}, {"time": 2914, "pitch": 75, "duration": 4, "velocity": 120}, {"time": 2920, "pitch": 73, "duration": 3, "velocity": 114}, {"time": 2926, "pitch": 75, "duration": 4, "velocity": 117}, {"time": 2932, "pitch": 73, "duration": 4, "velocity": 116}, {"time": 2938, "pitch": 75, "duration": 3, "velocity": 116}, {"time": 2944, "pitch": 73, "duration": 3, "velocity": 113}, {"time": 2947, "pitch": 75, "duration": 4, "velocity": 114}, {"time": 2956, "pitch": 76, "duration": 4, "velocity": 116}, {"time": 2962, "pitch": 76, "duration": 5, "velocity": 110}, {"time": 2968, "pitch": 73, "duration": 3, "velocity": 110}, {"time": 2974, "pitch": 73, "duration": 3, "velocity": 116}, {"time": 2980, "pitch": 71, "duration": 3, "velocity": 110}, {"time": 2983, "pitch": 73, "duration": 4, "velocity": 110}, {"time": 2992, "pitch": 66, "duration": 3, "velocity": 117}, {"time": 2998, "pitch": 78, "duration": 4, "velocity": 114}, {"time": 3004, "pitch": 76, "duration": 4, "velocity": 116}, {"time": 3010, "pitch": 76, "duration": 4, "velocity": 114}, {"time": 3016, "pitch": 75, "duration": 3, "velocity": 116}, {"time": 3019, "pitch": 75, "duration": 3, "velocity": 117}, {"time": 3028, "pitch": 73, "duration": 4, "velocity": 114}, {"time": 3034, "pitch": 73, "duration": 4, "velocity": 110}, {"time": 3040, "pitch": 71, "duration": 2, "velocity": 108}, {"time": 3043, "pitch": 71, "duration": 3, "velocity": 114}, {"time": 3052, "pitch": 69, "duration": 1, "velocity": 116}, {"time": 3055, "pitch": 69, "duration": 1, "velocity": 103}, {"time": 3058, "pitch": 69, "duration": 5, "velocity": 116}, {"time": 3064, "pitch": 68, "duration": 4, "velocity": 116}, {"time": 3070, "pitch": 66, "duration": 4, "velocity": 110}, {"time": 3076, "pitch": 69, "duration": 2, "velocity": 113}, {"time": 3079, "pitch": 68, "duration": 4, "velocity": 119}, {"time": 3088, "pitch": 68, "duration": 3, "velocity": 117}, {"time": 3094, "pitch": 80, "duration": 5, "velocity": 114}, {"time": 3100, "pitch": 76, "duration": 7, "velocity": 116}, {"time": 3106, "pitch": 75, "duration": 4, "velocity": 117}, {"time": 3112, "pitch": 73, "duration": 2, "velocity": 113}, {"time": 3115, "pitch": 75, "duration": 5, "velocity": 114}, {"time": 3124, "pitch": 73, "duration": 3, "velocity": 113}, {"time": 3130, "pitch": 75, "duration": 6, "velocity": 91}, {"time": 3136, "pitch": 73, "duration": 3, "velocity": 114}, {"time": 3139, "pitch": 75, "duration": 4, "velocity": 116}, {"time": 3145, "pitch": 76, "duration": 4, "velocity": 114}, {"time": 3154, "pitch": 76, "duration": 5, "velocity": 116}, {"time": 3160, "pitch": 73, "duration": 3, "velocity": 116}, {"time": 3166, "pitch": 73, "duration": 3, "velocity": 117}, {"time": 3172, "pitch": 71, "duration": 2, "velocity": 116}, {"time": 3175, "pitch": 73, "duration": 4, "velocity": 117}, {"time": 3193, "pitch": 76, "duration": 2, "velocity": 114}, {"time": 3196, "pitch": 76, "duration": 1, "velocity": 108}, {"time": 3199, "pitch": 76, "duration": 2, "velocity": 110}, {"time": 3202, "pitch": 76, "duration": 3, "velocity": 116}, {"time": 3208, "pitch": 75, "duration": 1, "velocity": 113}, {"time": 3211, "pitch": 75, "duration": 1, "velocity": 114}, {"time": 3214, "pitch": 75, "duration": 3, "velocity": 119}, {"time": 3220, "pitch": 73, "duration": 1, "velocity": 116}, {"time": 3223, "pitch": 73, "duration": 1, "velocity": 113}, {"time": 3226, "pitch": 73, "duration": 3, "velocity": 117}, {"time": 3232, "pitch": 71, "duration": 4, "velocity": 114}, {"time": 3238, "pitch": 76, "duration": 4, "velocity": 117}, {"time": 3244, "pitch": 75, "duration": 3, "velocity": 110}, {"time": 3250, "pitch": 75, "duration": 3, "velocity": 117}, {"time": 3253, "pitch": 73, "duration": 4, "velocity": 117}, {"time": 3280, "pitch": 68, "duration": 4, "velocity": 120}, {"time": 3286, "pitch": 80, "duration": 4, "velocity": 117}, {"time": 3292, "pitch": 76, "duration": 4, "velocity": 120}, {"time": 3298, "pitch": 75, "duration": 4, "velocity": 120}, {"time": 3304, "pitch": 73, "duration": 3, "velocity": 114}, {"time": 3310, "pitch": 75, "duration": 4, "velocity": 117}, {"time": 3316, "pitch": 73, "duration": 4, "velocity": 116}, {"time": 3322, "pitch": 75, "duration": 3, "velocity": 116}, {"time": 3328, "pitch": 73, "duration": 3, "velocity": 113}, {"time": 3331, "pitch": 75, "duration": 4, "velocity": 114}, {"time": 3340, "pitch": 76, "duration": 4, "velocity": 116}, {"time": 3346, "pitch": 76, "duration": 5, "velocity": 110}, {"time": 3352, "pitch": 73, "duration": 3, "velocity": 110}, {"time": 3358, "pitch": 73, "duration": 3, "velocity": 116}, {"time": 3364, "pitch": 71, "duration": 3, "velocity": 110}, {"time": 3367, "pitch": 73, "duration": 4, "velocity": 110}, {"time": 3376, "pitch": 66, "duration": 3, "velocity": 117}, {"time": 3382, "pitch": 78, "duration": 4, "velocity": 114}, {"time": 3388, "pitch": 76, "duration": 4, "velocity": 116}, {"time": 3394, "pitch": 76, "duration": 4, "velocity": 114}, {"time": 3400, "pitch": 75, "duration": 3, "velocity": 116}, {"time": 3403, "pitch": 75, "duration": 3, "velocity": 117}, {"time": 3412, "pitch": 73, "duration": 4, "velocity": 114}, {"time": 3418, "pitch": 73, "duration": 4, "velocity": 110}, {"time": 3424, "pitch": 71, "duration": 2, "velocity": 108}, {"time": 3427, "pitch": 71, "duration": 3, "velocity": 114}, {"time": 3436, "pitch": 69, "duration": 1, "velocity": 116}, {"time": 3439, "pitch": 69, "duration": 1, "velocity": 103}, {"time": 3442, "pitch": 69, "duration": 5, "velocity": 116}, {"time": 3448, "pitch": 68, "duration": 4, "velocity": 116}, {"time": 3454, "pitch": 66, "duration": 4, "velocity": 110}, {"time": 3460, "pitch": 69, "duration": 2, "velocity": 113}, {"time": 3463, "pitch": 68, "duration": 4, "velocity": 119}, {"time": 3472, "pitch": 68, "duration": 3, "velocity": 117}, {"time": 3478, "pitch": 80, "duration": 5, "velocity": 114}, {"time": 3484, "pitch": 76, "duration": 7, "velocity": 116}, {"time": 3490, "pitch": 75, "duration": 4, "velocity": 117}, {"time": 3496, "pitch": 73, "duration": 2, "velocity": 113}, {"time": 3499, "pitch": 75, "duration": 5, "velocity": 114}, {"time": 3508, "pitch": 73, "duration": 3, "velocity": 113}, {"time": 3514, "pitch": 75, "duration": 6, "velocity": 91}, {"time": 3520, "pitch": 73, "duration": 3, "velocity": 114}, {"time": 3523, "pitch": 75, "duration": 4, "velocity": 116}, {"time": 3529, "pitch": 76, "duration": 4, "velocity": 114}, {"time": 3538, "pitch": 76, "duration": 5, "velocity": 116}, {"time": 3544, "pitch": 73, "duration": 3, "velocity": 116}, {"time": 3550, "pitch": 73, "duration": 3, "velocity": 117}, {"time": 3556, "pitch": 71, "duration": 2, "velocity": 116}, {"time": 3559, "pitch": 73, "duration": 4, "velocity": 117}, {"time": 3577, "pitch": 76, "duration": 2, "velocity": 114}, {"time": 3580, "pitch": 76, "duration": 1, "velocity": 108}, {"time": 3583, "pitch": 76, "duration": 2, "velocity": 110}, {"time": 3586, "pitch": 76, "duration": 3, "velocity": 116}, {"time": 3592, "pitch": 75, "duration": 1, "velocity": 113}, {"time": 3595, "pitch": 75, "duration": 1, "velocity": 114}, {"time": 3598, "pitch": 75, "duration": 3, "velocity": 119}, {"time": 3604, "pitch": 73, "duration": 1, "velocity": 116}, {"time": 3607, "pitch": 73, "duration": 1, "velocity": 113}, {"time": 3610, "pitch": 73, "duration": 3, "velocity": 117}, {"time": 3616, "pitch": 71, "duration": 4, "velocity": 114}, {"time": 3622, "pitch": 76, "duration": 4, "velocity": 117}, {"time": 3628, "pitch": 75, "duration": 3, "velocity": 110}, {"time": 3634, "pitch": 75, "duration": 3, "velocity": 117}, {"time": 3637, "pitch": 73, "duration": 4, "velocity": 117}]}, {"program": 0, "is_drum": false, "name": "PIANO", "notes": [{"time": 34, "pitch": 49, "duration": 19, "velocity": 85}, {"time": 46, "pitch": 61, "duration": 11, "velocity": 85}, {"time": 46, "pitch": 64, "duration": 12, "velocity": 85}, {"time": 46, "pitch": 68, "duration": 12, "velocity": 85}, {"time": 55, "pitch": 49, "duration": 1, "velocity": 87}, {"time": 64, "pitch": 49, "duration": 15, "velocity": 89}, {"time": 70, "pitch": 61, "duration": 11, "velocity": 85}, {"time": 70, "pitch": 64, "duration": 12, "velocity": 85}, {"time": 70, "pitch": 68, "duration": 12, "velocity": 85}, {"time": 79, "pitch": 49, "duration": 1, "velocity": 97}, {"time": 82, "pitch": 44, "duration": 16, "velocity": 93}, {"time": 94, "pitch": 56, "duration": 13, "velocity": 93}, {"time": 94, "pitch": 59, "duration": 14, "velocity": 93}, {"time": 94, "pitch": 63, "duration": 14, "velocity": 93}, {"time": 94, "pitch": 68, "duration": 14, "velocity": 93}, {"time": 103, "pitch": 44, "duration": 1, "velocity": 94}, {"time": 112, "pitch": 44, "duration": 14, "velocity": 86}, {"time": 118, "pitch": 56, "duration": 13, "velocity": 93}, {"time": 118, "pitch": 59, "duration": 14, "velocity": 93}, {"time": 118, "pitch": 63, "duration": 14, "velocity": 93}, {"time": 118, "pitch": 68, "duration": 14, "velocity": 93}, {"time": 130, "pitch": 45, "duration": 19, "velocity": 83}, {"time": 142, "pitch": 57, "duration": 6, "velocity": 83}, {"time": 142, "pitch": 61, "duration": 6, "velocity": 83}, {"time": 142, "pitch": 64, "duration": 6, "velocity": 83}, {"time": 142, "pitch": 68, "duration": 6, "velocity": 83}, {"time": 151, "pitch": 45, "duration": 1, "velocity": 97}, {"time": 160, "pitch": 45, "duration": 15, "velocity": 95}, {"time": 166, "pitch": 57, "duration": 6, "velocity": 83}, {"time": 166, "pitch": 61, "duration": 6, "velocity": 83}, {"time": 166, "pitch": 64, "duration": 6, "velocity": 83}, {"time": 166, "pitch": 68, "duration": 6, "velocity": 83}, {"time": 175, "pitch": 45, "duration": 1, "velocity": 97}, {"time": 178, "pitch": 49, "duration": 19, "velocity": 93}, {"time": 190, "pitch": 61, "duration": 8, "velocity": 93}, {"time": 190, "pitch": 64, "duration": 7, "velocity": 93}, {"time": 190, "pitch": 68, "duration": 8, "velocity": 93}, {"time": 199, "pitch": 49, "duration": 1, "velocity": 93}, {"time": 208, "pitch": 49, "duration": 11, "velocity": 93}, {"time": 214, "pitch": 61, "duration": 8, "velocity": 93}, {"time": 214, "pitch": 64, "duration": 7, "velocity": 93}, {"time": 214, "pitch": 68, "duration": 8, "velocity": 93}, {"time": 220, "pitch": 56, "duration": 9, "velocity": 100}, {"time": 226, "pitch": 49, "duration": 19, "velocity": 97}, {"time": 238, "pitch": 63, "duration": 17, "velocity": 96}, {"time": 238, "pitch": 64, "duration": 17, "velocity": 96}, {"time": 238, "pitch": 68, "duration": 17, "velocity": 96}, {"time": 248, "pitch": 49, "duration": 1, "velocity": 97}, {"time": 256, "pitch": 49, "duration": 13, "velocity": 97}, {"time": 262, "pitch": 63, "duration": 6, "velocity": 96}, {"time": 262, "pitch": 64, "duration": 6, "velocity": 96}, {"time": 262, "pitch": 68, "duration": 7, "velocity": 96}, {"time": 271, "pitch": 49, "duration": 3, "velocity": 97}, {"time": 274, "pitch": 49, "duration": 1, "velocity": 97}, {"time": 286, "pitch": 61, "duration": 15, "velocity": 97}, {"time": 286, "pitch": 64, "duration": 15, "velocity": 97}, {"time": 286, "pitch": 68, "duration": 15, "velocity": 97}, {"time": 296, "pitch": 49, "duration": 1, "velocity": 97}, {"time": 304, "pitch": 49, "duration": 14, "velocity": 93}, {"time": 310, "pitch": 61, "duration": 15, "velocity": 97}, {"time": 310, "pitch": 64, "duration": 15, "velocity": 97}, {"time": 310, "pitch": 68, "duration": 15, "velocity": 97}, {"time": 322, "pitch": 49, "duration": 19, "velocity": 89}, {"time": 334, "pitch": 61, "duration": 10, "velocity": 88}, {"time": 334, "pitch": 63, "duration": 10, "velocity": 88}, {"time": 334, "pitch": 64, "duration": 10, "velocity": 88}, {"time": 334, "pitch": 68, "duration": 10, "velocity": 88}, {"time": 343, "pitch": 49, "duration": 2, "velocity": 88}, {"time": 352, "pitch": 49, "duration": 14, "velocity": 88}, {"time": 358, "pitch": 61, "duration": 10, "velocity": 88}, {"time": 358, "pitch": 63, "duration": 10, "velocity": 88}, {"time": 358, "pitch": 64, "duration": 10, "velocity": 88}, {"time": 358, "pitch": 68, "duration": 10, "velocity": 88}, {"time": 370, "pitch": 49, "duration": 19, "velocity": 88}, {"time": 382, "pitch": 59, "duration": 12, "velocity": 88}, {"time": 382, "pitch": 61, "duration": 12, "velocity": 88}, {"time": 382, "pitch": 63, "duration": 12, "velocity": 88}, {"time": 382, "pitch": 66, "duration": 11, "velocity": 88}, {"time": 391, "pitch": 49, "duration": 1, "velocity": 88}, {"time": 394, "pitch": 49, "duration": 3, "velocity": 97}, {"time": 400, "pitch": 49, "duration": 3, "velocity": 88}, {"time": 403, "pitch": 49, "duration": 3, "velocity": 97}, {"time": 406, "pitch": 59, "duration": 12, "velocity": 88}, {"time": 406, "pitch": 61, "duration": 12, "velocity": 88}, {"time": 406, "pitch": 63, "duration": 12, "velocity": 88}, {"time": 406, "pitch": 66, "duration": 11, "velocity": 88}, {"time": 415, "pitch": 49, "duration": 3, "velocity": 97}, {"time": 418, "pitch": 49, "duration": 1, "velocity": 88}, {"time": 418, "pitch": 61, "duration": 12, "velocity": 88}, {"time": 418, "pitch": 64, "duration": 12, "velocity": 88}, {"time": 418, "pitch": 68, "duration": 11, "velocity": 88}, {"time": 430, "pitch": 61, "duration": 12, "velocity": 88}, {"time": 430, "pitch": 64, "duration": 1, "velocity": 88}, {"time": 430, "pitch": 68, "duration": 11, "velocity": 88}, {"time": 439, "pitch": 49, "duration": 1, "velocity": 88}, {"time": 442, "pitch": 49, "duration": 3, "velocity": 97}, {"time": 448, "pitch": 49, "duration": 3, "velocity": 88}, {"time": 451, "pitch": 49, "duration": 3, "velocity": 97}, {"time": 454, "pitch": 61, "duration": 12, "velocity": 88}, {"time": 454, "pitch": 64, "duration": 12, "velocity": 88}, {"time": 454, "pitch": 68, "duration": 11, "velocity": 88}, {"time": 463, "pitch": 49, "duration": 3, "velocity": 97}, {"time": 466, "pitch": 49, "duration": 1, "velocity": 88}, {"time": 478, "pitch": 61, "duration": 12, "velocity": 88}, {"time": 478, "pitch": 63, "duration": 13, "velocity": 83}, {"time": 478, "pitch": 66, "duration": 12, "velocity": 82}, {"time": 488, "pitch": 49, "duration": 1, "velocity": 88}, {"time": 490, "pitch": 49, "duration": 3, "velocity": 97}, {"time": 496, "pitch": 49, "duration": 3, "velocity": 91}, {"time": 499, "pitch": 49, "duration": 1, "velocity": 97}, {"time": 502, "pitch": 61, "duration": 12, "velocity": 88}, {"time": 502, "pitch": 63, "duration": 13, "velocity": 83}, {"time": 502, "pitch": 66, "duration": 12, "velocity": 82}, {"time": 511, "pitch": 49, "duration": 3, "velocity": 97}, {"time": 514, "pitch": 49, "duration": 12, "velocity": 78}, {"time": 514, "pitch": 61, "duration": 9, "velocity": 79}, {"time": 514, "pitch": 63, "duration": 1, "velocity": 83}, {"time": 514, "pitch": 64, "duration": 10, "velocity": 84}, {"time": 514, "pitch": 68, "duration": 9, "velocity": 84}, {"time": 526, "pitch": 47, "duration": 9, "velocity": 83}, {"time": 526, "pitch": 59, "duration": 9, "velocity": 83}, {"time": 526, "pitch": 63, "duration": 9, "velocity": 81}, {"time": 526, "pitch": 66, "duration": 10, "velocity": 82}, {"time": 535, "pitch": 47, "duration": 1, "velocity": 97}, {"time": 538, "pitch": 45, "duration": 9, "velocity": 82}, {"time": 538, "pitch": 61, "duration": 8, "velocity": 86}, {"time": 538, "pitch": 64, "duration": 8, "velocity": 84}, {"time": 550, "pitch": 44, "duration": 11, "velocity": 90}, {"time": 550, "pitch": 54, "duration": 37, "velocity": 84}, {"time": 550, "pitch": 60, "duration": 37, "velocity": 82}, {"time": 550, "pitch": 63, "duration": 37, "velocity": 81}, {"time": 562, "pitch": 44, "duration": 15, "velocity": 96}, {"time": 577, "pitch": 44, "duration": 3, "velocity": 97}, {"time": 583, "pitch": 44, "duration": 1, "velocity": 91}, {"time": 586, "pitch": 44, "duration": 3, "velocity": 97}, {"time": 595, "pitch": 44, "duration": 15, "velocity": 91}, {"time": 598, "pitch": 54, "duration": 12, "velocity": 84}, {"time": 598, "pitch": 60, "duration": 12, "velocity": 82}, {"time": 598, "pitch": 63, "duration": 12, "velocity": 81}, {"time": 610, "pitch": 49, "duration": 18, "velocity": 82}, {"time": 622, "pitch": 61, "duration": 21, "velocity": 85}, {"time": 622, "pitch": 63, "duration": 22, "velocity": 88}, {"time": 622, "pitch": 64, "duration": 22, "velocity": 87}, {"time": 622, "pitch": 68, "duration": 23, "velocity": 88}, {"time": 631, "pitch": 49, "duration": 3, "velocity": 100}, {"time": 634, "pitch": 49, "duration": 9, "velocity": 91}, {"time": 643, "pitch": 49, "duration": 1, "velocity": 97}, {"time": 646, "pitch": 61, "duration": 8, "velocity": 85}, {"time": 646, "pitch": 63, "duration": 9, "velocity": 88}, {"time": 646, "pitch": 64, "duration": 10, "velocity": 87}, {"time": 646, "pitch": 68, "duration": 10, "velocity": 88}, {"time": 650, "pitch": 44, "duration": 2, "velocity": 91}, {"time": 652, "pitch": 49, "duration": 4, "velocity": 93}, {"time": 656, "pitch": 52, "duration": 2, "velocity": 92}, {"time": 658, "pitch": 54, "duration": 21, "velocity": 98}, {"time": 658, "pitch": 57, "duration": 17, "velocity": 98}, {"time": 658, "pitch": 61, "duration": 18, "velocity": 98}, {"time": 658, "pitch": 64, "duration": 18, "velocity": 98}, {"time": 658, "pitch": 66, "duration": 19, "velocity": 98}, {"time": 679, "pitch": 54, "duration": 3, "velocity": 100}, {"time": 682, "pitch": 56, "duration": 6, "velocity": 79}, {"time": 691, "pitch": 56, "duration": 3, "velocity": 100}, {"time": 694, "pitch": 44, "duration": 12, "velocity": 100}, {"time": 694, "pitch": 60, "duration": 14, "velocity": 78}, {"time": 694, "pitch": 63, "duration": 14, "velocity": 81}, {"time": 694, "pitch": 66, "duration": 14, "velocity": 73}, {"time": 706, "pitch": 49, "duration": 16, "velocity": 82}, {"time": 718, "pitch": 61, "duration": 19, "velocity": 81}, {"time": 718, "pitch": 63, "duration": 22, "velocity": 84}, {"time": 718, "pitch": 64, "duration": 23, "velocity": 83}, {"time": 718, "pitch": 68, "duration": 21, "velocity": 85}, {"time": 727, "pitch": 49, "duration": 3, "velocity": 100}, {"time": 730, "pitch": 49, "duration": 15, "velocity": 91}, {"time": 742, "pitch": 61, "duration": 7, "velocity": 81}, {"time": 742, "pitch": 63, "duration": 9, "velocity": 84}, {"time": 742, "pitch": 64, "duration": 11, "velocity": 83}, {"time": 742, "pitch": 68, "duration": 9, "velocity": 85}, {"time": 746, "pitch": 44, "duration": 2, "velocity": 91}, {"time": 748, "pitch": 49, "duration": 4, "velocity": 93}, {"time": 752, "pitch": 52, "duration": 2, "velocity": 95}, {"time": 754, "pitch": 54, "duration": 24, "velocity": 78}, {"time": 766, "pitch": 57, "duration": 6, "velocity": 80}, {"time": 766, "pitch": 61, "duration": 6, "velocity": 79}, {"time": 766, "pitch": 66, "duration": 9, "velocity": 81}, {"time": 778, "pitch": 56, "duration": 14, "velocity": 71}, {"time": 778, "pitch": 60, "duration": 13, "velocity": 83}, {"time": 778, "pitch": 63, "duration": 12, "velocity": 75}, {"time": 778, "pitch": 66, "duration": 13, "velocity": 81}, {"time": 790, "pitch": 49, "duration": 12, "velocity": 83}, {"time": 790, "pitch": 61, "duration": 31, "velocity": 78}, {"time": 790, "pitch": 64, "duration": 7, "velocity": 83}, {"time": 790, "pitch": 68, "duration": 6, "velocity": 81}, {"time": 802, "pitch": 42, "duration": 21, "velocity": 75}, {"time": 802, "pitch": 54, "duration": 22, "velocity": 78}, {"time": 802, "pitch": 57, "duration": 17, "velocity": 84}, {"time": 802, "pitch": 66, "duration": 18, "velocity": 88}, {"time": 823, "pitch": 42, "duration": 3, "velocity": 100}, {"time": 826, "pitch": 47, "duration": 21, "velocity": 87}, {"time": 826, "pitch": 59, "duration": 19, "velocity": 79}, {"time": 826, "pitch": 63, "duration": 14, "velocity": 87}, {"time": 826, "pitch": 66, "duration": 18, "velocity": 82}, {"time": 847, "pitch": 47, "duration": 3, "velocity": 100}, {"time": 850, "pitch": 52, "duration": 21, "velocity": 81}, {"time": 850, "pitch": 59, "duration": 9, "velocity": 80}, {"time": 850, "pitch": 64, "duration": 9, "velocity": 85}, {"time": 850, "pitch": 68, "duration": 9, "velocity": 86}, {"time": 862, "pitch": 59, "duration": 7, "velocity": 81}, {"time": 862, "pitch": 64, "duration": 8, "velocity": 85}, {"time": 862, "pitch": 68, "duration": 8, "velocity": 84}, {"time": 871, "pitch": 52, "duration": 1, "velocity": 81}, {"time": 871, "pitch": 52, "duration": 1, "velocity": 97}, {"time": 874, "pitch": 49, "duration": 6, "velocity": 74}, {"time": 874, "pitch": 61, "duration": 9, "velocity": 81}, {"time": 874, "pitch": 64, "duration": 9, "velocity": 84}, {"time": 874, "pitch": 68, "duration": 8, "velocity": 82}, {"time": 883, "pitch": 51, "duration": 3, "velocity": 86}, {"time": 886, "pitch": 52, "duration": 12, "velocity": 91}, {"time": 886, "pitch": 61, "duration": 21, "velocity": 88}, {"time": 886, "pitch": 64, "duration": 5, "velocity": 86}, {"time": 886, "pitch": 68, "duration": 4, "velocity": 84}, {"time": 898, "pitch": 42, "duration": 18, "velocity": 77}, {"time": 898, "pitch": 54, "duration": 26, "velocity": 70}, {"time": 898, "pitch": 57, "duration": 8, "velocity": 80}, {"time": 898, "pitch": 66, "duration": 8, "velocity": 86}, {"time": 910, "pitch": 57, "duration": 9, "velocity": 78}, {"time": 910, "pitch": 61, "duration": 11, "velocity": 76}, {"time": 910, "pitch": 66, "duration": 10, "velocity": 79}, {"time": 919, "pitch": 42, "duration": 3, "velocity": 100}, {"time": 922, "pitch": 57, "duration": 9, "velocity": 78}, {"time": 922, "pitch": 61, "duration": 11, "velocity": 76}, {"time": 922, "pitch": 66, "duration": 10, "velocity": 79}, {"time": 922, "pitch": 42, "duration": 21, "velocity": 100}, {"time": 928, "pitch": 54, "duration": 13, "velocity": 77}, {"time": 931, "pitch": 57, "duration": 4, "velocity": 80}, {"time": 934, "pitch": 57, "duration": 1, "velocity": 78}, {"time": 934, "pitch": 61, "duration": 11, "velocity": 76}, {"time": 934, "pitch": 66, "duration": 10, "velocity": 79}, {"time": 940, "pitch": 66, "duration": 4, "velocity": 84}, {"time": 946, "pitch": 44, "duration": 21, "velocity": 83}, {"time": 952, "pitch": 51, "duration": 32, "velocity": 89}, {"time": 958, "pitch": 61, "duration": 10, "velocity": 88}, {"time": 967, "pitch": 44, "duration": 1, "velocity": 96}, {"time": 970, "pitch": 56, "duration": 8, "velocity": 96}, {"time": 970, "pitch": 60, "duration": 9, "velocity": 98}, {"time": 970, "pitch": 63, "duration": 9, "velocity": 98}, {"time": 970, "pitch": 66, "duration": 9, "velocity": 98}, {"time": 979, "pitch": 44, "duration": 8, "velocity": 90}, {"time": 982, "pitch": 56, "duration": 11, "velocity": 96}, {"time": 982, "pitch": 60, "duration": 12, "velocity": 98}, {"time": 982, "pitch": 63, "duration": 12, "velocity": 98}, {"time": 982, "pitch": 66, "duration": 12, "velocity": 98}, {"time": 994, "pitch": 49, "duration": 21, "velocity": 77}, {"time": 994, "pitch": 61, "duration": 18, "velocity": 78}, {"time": 994, "pitch": 63, "duration": 1, "velocity": 83}, {"time": 994, "pitch": 64, "duration": 21, "velocity": 81}, {"time": 994, "pitch": 68, "duration": 18, "velocity": 83}, {"time": 1012, "pitch": 56, "duration": 12, "velocity": 56}, {"time": 1015, "pitch": 49, "duration": 3, "velocity": 100}, {"time": 1018, "pitch": 49, "duration": 24, "velocity": 100}, {"time": 1024, "pitch": 61, "duration": 7, "velocity": 79}, {"time": 1030, "pitch": 56, "duration": 7, "velocity": 79}, {"time": 1030, "pitch": 63, "duration": 6, "velocity": 89}, {"time": 1030, "pitch": 68, "duration": 7, "velocity": 100}, {"time": 1036, "pitch": 64, "duration": 1, "velocity": 84}, {"time": 1042, "pitch": 54, "duration": 21, "velocity": 81}, {"time": 1042, "pitch": 57, "duration": 16, "velocity": 81}, {"time": 1042, "pitch": 61, "duration": 15, "velocity": 84}, {"time": 1042, "pitch": 66, "duration": 18, "velocity": 85}, {"time": 1063, "pitch": 54, "duration": 3, "velocity": 80}, {"time": 1066, "pitch": 56, "duration": 9, "velocity": 77}, {"time": 1066, "pitch": 60, "duration": 6, "velocity": 81}, {"time": 1066, "pitch": 63, "duration": 6, "velocity": 81}, {"time": 1066, "pitch": 66, "duration": 6, "velocity": 77}, {"time": 1075, "pitch": 56, "duration": 1, "velocity": 97}, {"time": 1078, "pitch": 60, "duration": 9, "velocity": 81}, {"time": 1078, "pitch": 63, "duration": 9, "velocity": 81}, {"time": 1078, "pitch": 66, "duration": 9, "velocity": 77}, {"time": 1087, "pitch": 56, "duration": 3, "velocity": 100}, {"time": 1090, "pitch": 49, "duration": 18, "velocity": 84}, {"time": 1090, "pitch": 61, "duration": 18, "velocity": 77}, {"time": 1090, "pitch": 63, "duration": 19, "velocity": 85}, {"time": 1090, "pitch": 64, "duration": 19, "velocity": 87}, {"time": 1090, "pitch": 68, "duration": 18, "velocity": 86}, {"time": 1108, "pitch": 56, "duration": 27, "velocity": 40}, {"time": 1111, "pitch": 49, "duration": 3, "velocity": 97}, {"time": 1111, "pitch": 63, "duration": 12, "velocity": 86}, {"time": 1114, "pitch": 49, "duration": 24, "velocity": 97}, {"time": 1117, "pitch": 61, "duration": 6, "velocity": 64}, {"time": 1117, "pitch": 64, "duration": 6, "velocity": 84}, {"time": 1126, "pitch": 61, "duration": 6, "velocity": 86}, {"time": 1126, "pitch": 64, "duration": 5, "velocity": 89}, {"time": 1126, "pitch": 68, "duration": 4, "velocity": 87}, {"time": 1138, "pitch": 54, "duration": 21, "velocity": 81}, {"time": 1138, "pitch": 57, "duration": 14, "velocity": 79}, {"time": 1138, "pitch": 61, "duration": 16, "velocity": 88}, {"time": 1138, "pitch": 64, "duration": 17, "velocity": 87}, {"time": 1159, "pitch": 54, "duration": 1, "velocity": 97}, {"time": 1162, "pitch": 56, "duration": 10, "velocity": 80}, {"time": 1162, "pitch": 60, "duration": 12, "velocity": 86}, {"time": 1162, "pitch": 63, "duration": 13, "velocity": 88}, {"time": 1162, "pitch": 66, "duration": 13, "velocity": 84}, {"time": 1171, "pitch": 44, "duration": 3, "velocity": 100}, {"time": 1174, "pitch": 49, "duration": 12, "velocity": 84}, {"time": 1174, "pitch": 61, "duration": 11, "velocity": 85}, {"time": 1174, "pitch": 63, "duration": 1, "velocity": 88}, {"time": 1174, "pitch": 64, "duration": 7, "velocity": 88}, {"time": 1174, "pitch": 68, "duration": 7, "velocity": 87}, {"time": 1186, "pitch": 42, "duration": 12, "velocity": 83}, {"time": 1186, "pitch": 54, "duration": 24, "velocity": 84}, {"time": 1186, "pitch": 57, "duration": 18, "velocity": 88}, {"time": 1198, "pitch": 61, "duration": 9, "velocity": 86}, {"time": 1198, "pitch": 66, "duration": 5, "velocity": 89}, {"time": 1202, "pitch": 42, "duration": 2, "velocity": 72}, {"time": 1204, "pitch": 44, "duration": 4, "velocity": 79}, {"time": 1208, "pitch": 45, "duration": 2, "velocity": 83}, {"time": 1210, "pitch": 47, "duration": 21, "velocity": 89}, {"time": 1210, "pitch": 59, "duration": 10, "velocity": 89}, {"time": 1210, "pitch": 63, "duration": 9, "velocity": 89}, {"time": 1210, "pitch": 66, "duration": 8, "velocity": 89}, {"time": 1222, "pitch": 59, "duration": 9, "velocity": 84}, {"time": 1222, "pitch": 63, "duration": 9, "velocity": 86}, {"time": 1222, "pitch": 66, "duration": 9, "velocity": 88}, {"time": 1234, "pitch": 52, "duration": 21, "velocity": 85}, {"time": 1234, "pitch": 59, "duration": 10, "velocity": 85}, {"time": 1234, "pitch": 64, "duration": 11, "velocity": 89}, {"time": 1234, "pitch": 68, "duration": 10, "velocity": 89}, {"time": 1246, "pitch": 59, "duration": 8, "velocity": 80}, {"time": 1246, "pitch": 64, "duration": 9, "velocity": 86}, {"time": 1246, "pitch": 68, "duration": 9, "velocity": 87}, {"time": 1255, "pitch": 52, "duration": 3, "velocity": 100}, {"time": 1258, "pitch": 49, "duration": 6, "velocity": 78}, {"time": 1258, "pitch": 61, "duration": 9, "velocity": 81}, {"time": 1258, "pitch": 64, "duration": 10, "velocity": 87}, {"time": 1258, "pitch": 68, "duration": 9, "velocity": 84}, {"time": 1267, "pitch": 49, "duration": 3, "velocity": 97}, {"time": 1270, "pitch": 61, "duration": 10, "velocity": 91}, {"time": 1270, "pitch": 64, "duration": 3, "velocity": 84}, {"time": 1270, "pitch": 68, "duration": 3, "velocity": 80}, {"time": 1273, "pitch": 49, "duration": 9, "velocity": 88}, {"time": 1282, "pitch": 42, "duration": 21, "velocity": 73}, {"time": 1282, "pitch": 54, "duration": 22, "velocity": 75}, {"time": 1282, "pitch": 57, "duration": 9, "velocity": 80}, {"time": 1282, "pitch": 61, "duration": 8, "velocity": 84}, {"time": 1282, "pitch": 66, "duration": 8, "velocity": 84}, {"time": 1294, "pitch": 57, "duration": 8, "velocity": 77}, {"time": 1294, "pitch": 61, "duration": 9, "velocity": 86}, {"time": 1294, "pitch": 66, "duration": 8, "velocity": 84}, {"time": 1303, "pitch": 42, "duration": 1, "velocity": 97}, {"time": 1306, "pitch": 45, "duration": 15, "velocity": 84}, {"time": 1306, "pitch": 57, "duration": 8, "velocity": 83}, {"time": 1306, "pitch": 61, "duration": 8, "velocity": 91}, {"time": 1306, "pitch": 64, "duration": 8, "velocity": 86}, {"time": 1318, "pitch": 57, "duration": 6, "velocity": 83}, {"time": 1318, "pitch": 61, "duration": 6, "velocity": 89}, {"time": 1318, "pitch": 64, "duration": 6, "velocity": 90}, {"time": 1324, "pitch": 45, "duration": 3, "velocity": 97}, {"time": 1330, "pitch": 44, "duration": 15, "velocity": 81}, {"time": 1330, "pitch": 56, "duration": 9, "velocity": 84}, {"time": 1330, "pitch": 60, "duration": 10, "velocity": 87}, {"time": 1330, "pitch": 63, "duration": 9, "velocity": 90}, {"time": 1339, "pitch": 51, "duration": 4, "velocity": 69}, {"time": 1342, "pitch": 56, "duration": 9, "velocity": 88}, {"time": 1345, "pitch": 63, "duration": 5, "velocity": 38}, {"time": 1346, "pitch": 44, "duration": 2, "velocity": 100}, {"time": 1348, "pitch": 44, "duration": 1, "velocity": 100}, {"time": 1348, "pitch": 51, "duration": 22, "velocity": 72}, {"time": 1351, "pitch": 44, "duration": 1, "velocity": 100}, {"time": 1354, "pitch": 44, "duration": 1, "velocity": 100}, {"time": 1354, "pitch": 56, "duration": 12, "velocity": 88}, {"time": 1354, "pitch": 60, "duration": 12, "velocity": 90}, {"time": 1354, "pitch": 63, "duration": 12, "velocity": 91}, {"time": 1357, "pitch": 44, "duration": 1, "velocity": 100}, {"time": 1366, "pitch": 44, "duration": 10, "velocity": 100}, {"time": 1378, "pitch": 49, "duration": 39, "velocity": 88}, {"time": 1378, "pitch": 61, "duration": 7, "velocity": 88}, {"time": 1378, "pitch": 64, "duration": 7, "velocity": 93}, {"time": 1378, "pitch": 68, "duration": 6, "velocity": 91}, {"time": 1384, "pitch": 56, "duration": 6, "velocity": 40}, {"time": 1390, "pitch": 61, "duration": 10, "velocity": 87}, {"time": 1390, "pitch": 64, "duration": 9, "velocity": 88}, {"time": 1390, "pitch": 68, "duration": 8, "velocity": 88}, {"time": 1396, "pitch": 56, "duration": 12, "velocity": 44}, {"time": 1399, "pitch": 63, "duration": 6, "velocity": 86}, {"time": 1408, "pitch": 61, "duration": 4, "velocity": 83}, {"time": 1408, "pitch": 68, "duration": 4, "velocity": 84}, {"time": 1411, "pitch": 56, "duration": 6, "velocity": 86}, {"time": 1414, "pitch": 61, "duration": 4, "velocity": 108}, {"time": 1414, "pitch": 68, "duration": 6, "velocity": 104}, {"time": 1417, "pitch": 63, "duration": 3, "velocity": 81}, {"time": 1420, "pitch": 64, "duration": 1, "velocity": 93}, {"time": 1426, "pitch": 42, "duration": 42, "velocity": 83}, {"time": 1426, "pitch": 57, "duration": 7, "velocity": 87}, {"time": 1426, "pitch": 61, "duration": 6, "velocity": 89}, {"time": 1426, "pitch": 66, "duration": 7, "velocity": 93}, {"time": 1435, "pitch": 54, "duration": 5, "velocity": 40}, {"time": 1438, "pitch": 57, "duration": 8, "velocity": 86}, {"time": 1438, "pitch": 61, "duration": 9, "velocity": 89}, {"time": 1438, "pitch": 66, "duration": 10, "velocity": 90}, {"time": 1444, "pitch": 49, "duration": 25, "velocity": 65}, {"time": 1447, "pitch": 54, "duration": 10, "velocity": 84}, {"time": 1453, "pitch": 57, "duration": 6, "velocity": 76}, {"time": 1456, "pitch": 61, "duration": 4, "velocity": 86}, {"time": 1459, "pitch": 54, "duration": 4, "velocity": 98}, {"time": 1462, "pitch": 57, "duration": 5, "velocity": 109}, {"time": 1462, "pitch": 66, "duration": 4, "velocity": 102}, {"time": 1465, "pitch": 54, "duration": 8, "velocity": 88}, {"time": 1468, "pitch": 61, "duration": 4, "velocity": 88}, {"time": 1471, "pitch": 66, "duration": 10, "velocity": 88}, {"time": 1474, "pitch": 47, "duration": 43, "velocity": 84}, {"time": 1474, "pitch": 59, "duration": 4, "velocity": 88}, {"time": 1474, "pitch": 63, "duration": 7, "velocity": 93}, {"time": 1480, "pitch": 54, "duration": 30, "velocity": 68}, {"time": 1486, "pitch": 61, "duration": 6, "velocity": 88}, {"time": 1486, "pitch": 66, "duration": 8, "velocity": 100}, {"time": 1492, "pitch": 59, "duration": 7, "velocity": 67}, {"time": 1498, "pitch": 63, "duration": 7, "velocity": 96}, {"time": 1498, "pitch": 66, "duration": 7, "velocity": 98}, {"time": 1504, "pitch": 59, "duration": 5, "velocity": 78}, {"time": 1507, "pitch": 61, "duration": 10, "velocity": 98}, {"time": 1513, "pitch": 54, "duration": 3, "velocity": 84}, {"time": 1516, "pitch": 63, "duration": 3, "velocity": 91}, {"time": 1519, "pitch": 66, "duration": 12, "velocity": 84}, {"time": 1522, "pitch": 40, "duration": 19, "velocity": 88}, {"time": 1522, "pitch": 56, "duration": 9, "velocity": 88}, {"time": 1522, "pitch": 59, "duration": 9, "velocity": 88}, {"time": 1528, "pitch": 47, "duration": 14, "velocity": 64}, {"time": 1531, "pitch": 52, "duration": 3, "velocity": 75}, {"time": 1534, "pitch": 56, "duration": 6, "velocity": 88}, {"time": 1534, "pitch": 59, "duration": 7, "velocity": 92}, {"time": 1534, "pitch": 66, "duration": 11, "velocity": 93}, {"time": 1540, "pitch": 52, "duration": 6, "velocity": 75}, {"time": 1546, "pitch": 44, "duration": 19, "velocity": 83}, {"time": 1546, "pitch": 56, "duration": 4, "velocity": 89}, {"time": 1546, "pitch": 60, "duration": 7, "velocity": 93}, {"time": 1546, "pitch": 63, "duration": 8, "velocity": 98}, {"time": 1546, "pitch": 66, "duration": 12, "velocity": 88}, {"time": 1552, "pitch": 51, "duration": 13, "velocity": 74}, {"time": 1555, "pitch": 56, "duration": 4, "velocity": 87}, {"time": 1558, "pitch": 60, "duration": 4, "velocity": 113}, {"time": 1561, "pitch": 56, "duration": 9, "velocity": 98}, {"time": 1564, "pitch": 61, "duration": 4, "velocity": 93}, {"time": 1567, "pitch": 63, "duration": 3, "velocity": 85}, {"time": 1570, "pitch": 49, "duration": 42, "velocity": 83}, {"time": 1570, "pitch": 61, "duration": 7, "velocity": 88}, {"time": 1570, "pitch": 64, "duration": 6, "velocity": 90}, {"time": 1570, "pitch": 68, "duration": 6, "velocity": 88}, {"time": 1576, "pitch": 56, "duration": 7, "velocity": 72}, {"time": 1582, "pitch": 63, "duration": 8, "velocity": 89}, {"time": 1582, "pitch": 68, "duration": 8, "velocity": 89}, {"time": 1588, "pitch": 56, "duration": 10, "velocity": 66}, {"time": 1591, "pitch": 61, "duration": 1, "velocity": 87}, {"time": 1591, "pitch": 64, "duration": 1, "velocity": 90}, {"time": 1591, "pitch": 68, "duration": 2, "velocity": 82}, {"time": 1597, "pitch": 63, "duration": 7, "velocity": 88}, {"time": 1597, "pitch": 68, "duration": 7, "velocity": 87}, {"time": 1603, "pitch": 56, "duration": 7, "velocity": 84}, {"time": 1606, "pitch": 61, "duration": 7, "velocity": 100}, {"time": 1606, "pitch": 64, "duration": 6, "velocity": 104}, {"time": 1606, "pitch": 68, "duration": 6, "velocity": 84}, {"time": 1612, "pitch": 63, "duration": 2, "velocity": 88}, {"time": 1615, "pitch": 61, "duration": 1, "velocity": 71}, {"time": 1618, "pitch": 42, "duration": 42, "velocity": 82}, {"time": 1618, "pitch": 57, "duration": 6, "velocity": 100}, {"time": 1618, "pitch": 61, "duration": 6, "velocity": 88}, {"time": 1618, "pitch": 66, "duration": 5, "velocity": 94}, {"time": 1624, "pitch": 49, "duration": 37, "velocity": 67}, {"time": 1630, "pitch": 57, "duration": 1, "velocity": 89}, {"time": 1630, "pitch": 66, "duration": 1, "velocity": 93}, {"time": 1636, "pitch": 54, "duration": 11, "velocity": 67}, {"time": 1639, "pitch": 61, "duration": 1, "velocity": 90}, {"time": 1645, "pitch": 57, "duration": 7, "velocity": 90}, {"time": 1645, "pitch": 66, "duration": 6, "velocity": 100}, {"time": 1651, "pitch": 54, "duration": 3, "velocity": 84}, {"time": 1654, "pitch": 57, "duration": 6, "velocity": 106}, {"time": 1654, "pitch": 66, "duration": 6, "velocity": 107}, {"time": 1657, "pitch": 54, "duration": 9, "velocity": 81}, {"time": 1660, "pitch": 61, "duration": 5, "velocity": 88}, {"time": 1663, "pitch": 66, "duration": 10, "velocity": 87}, {"time": 1666, "pitch": 47, "duration": 42, "velocity": 86}, {"time": 1666, "pitch": 59, "duration": 4, "velocity": 88}, {"time": 1666, "pitch": 63, "duration": 6, "velocity": 91}, {"time": 1672, "pitch": 54, "duration": 34, "velocity": 65}, {"time": 1678, "pitch": 61, "duration": 8, "velocity": 90}, {"time": 1678, "pitch": 66, "duration": 8, "velocity": 90}, {"time": 1684, "pitch": 59, "duration": 7, "velocity": 65}, {"time": 1687, "pitch": 63, "duration": 6, "velocity": 88}, {"time": 1687, "pitch": 66, "duration": 5, "velocity": 85}, {"time": 1693, "pitch": 61, "duration": 7, "velocity": 84}, {"time": 1693, "pitch": 66, "duration": 6, "velocity": 78}, {"time": 1699, "pitch": 59, "duration": 5, "velocity": 88}, {"time": 1702, "pitch": 61, "duration": 6, "velocity": 107}, {"time": 1702, "pitch": 66, "duration": 6, "velocity": 104}, {"time": 1708, "pitch": 63, "duration": 5, "velocity": 89}, {"time": 1714, "pitch": 49, "duration": 42, "velocity": 85}, {"time": 1714, "pitch": 61, "duration": 11, "velocity": 89}, {"time": 1714, "pitch": 68, "duration": 7, "velocity": 94}, {"time": 1720, "pitch": 56, "duration": 7, "velocity": 65}, {"time": 1726, "pitch": 63, "duration": 8, "velocity": 104}, {"time": 1732, "pitch": 56, "duration": 13, "velocity": 74}, {"time": 1735, "pitch": 61, "duration": 1, "velocity": 87}, {"time": 1735, "pitch": 64, "duration": 1, "velocity": 92}, {"time": 1741, "pitch": 63, "duration": 7, "velocity": 88}, {"time": 1741, "pitch": 66, "duration": 6, "velocity": 86}, {"time": 1747, "pitch": 56, "duration": 9, "velocity": 86}, {"time": 1750, "pitch": 61, "duration": 5, "velocity": 107}, {"time": 1750, "pitch": 68, "duration": 4, "velocity": 91}, {"time": 1753, "pitch": 63, "duration": 5, "velocity": 83}, {"time": 1756, "pitch": 64, "duration": 3, "velocity": 83}, {"time": 1759, "pitch": 63, "duration": 1, "velocity": 38}, {"time": 1762, "pitch": 42, "duration": 30, "velocity": 88}, {"time": 1762, "pitch": 61, "duration": 10, "velocity": 84}, {"time": 1762, "pitch": 64, "duration": 11, "velocity": 87}, {"time": 1762, "pitch": 68, "duration": 10, "velocity": 88}, {"time": 1774, "pitch": 61, "duration": 9, "velocity": 86}, {"time": 1774, "pitch": 64, "duration": 9, "velocity": 87}, {"time": 1774, "pitch": 68, "duration": 9, "velocity": 85}, {"time": 1783, "pitch": 54, "duration": 8, "velocity": 80}, {"time": 1786, "pitch": 61, "duration": 14, "velocity": 84}, {"time": 1786, "pitch": 64, "duration": 15, "velocity": 86}, {"time": 1786, "pitch": 68, "duration": 15, "velocity": 85}, {"time": 1795, "pitch": 42, "duration": 7, "velocity": 96}, {"time": 1798, "pitch": 54, "duration": 11, "velocity": 113}, {"time": 1801, "pitch": 61, "duration": 3, "velocity": 87}, {"time": 1804, "pitch": 63, "duration": 4, "velocity": 87}, {"time": 1810, "pitch": 49, "duration": 40, "velocity": 87}, {"time": 1810, "pitch": 61, "duration": 7, "velocity": 87}, {"time": 1810, "pitch": 64, "duration": 9, "velocity": 84}, {"time": 1810, "pitch": 68, "duration": 7, "velocity": 84}, {"time": 1819, "pitch": 56, "duration": 7, "velocity": 58}, {"time": 1822, "pitch": 63, "duration": 13, "velocity": 87}, {"time": 1822, "pitch": 64, "duration": 13, "velocity": 85}, {"time": 1822, "pitch": 68, "duration": 12, "velocity": 83}, {"time": 1834, "pitch": 56, "duration": 10, "velocity": 79}, {"time": 1840, "pitch": 63, "duration": 4, "velocity": 76}, {"time": 1843, "pitch": 64, "duration": 6, "velocity": 107}, {"time": 1846, "pitch": 56, "duration": 3, "velocity": 86}, {"time": 1849, "pitch": 63, "duration": 4, "velocity": 87}, {"time": 1852, "pitch": 64, "duration": 16, "velocity": 87}, {"time": 1858, "pitch": 42, "duration": 41, "velocity": 82}, {"time": 1858, "pitch": 54, "duration": 28, "velocity": 84}, {"time": 1858, "pitch": 61, "duration": 9, "velocity": 78}, {"time": 1858, "pitch": 68, "duration": 7, "velocity": 75}, {"time": 1870, "pitch": 61, "duration": 9, "velocity": 75}, {"time": 1870, "pitch": 64, "duration": 22, "velocity": 74}, {"time": 1870, "pitch": 68, "duration": 8, "velocity": 77}, {"time": 1882, "pitch": 61, "duration": 10, "velocity": 81}, {"time": 1882, "pitch": 68, "duration": 9, "velocity": 86}, {"time": 1891, "pitch": 54, "duration": 5, "velocity": 72}, {"time": 1894, "pitch": 61, "duration": 7, "velocity": 90}, {"time": 1894, "pitch": 64, "duration": 6, "velocity": 91}, {"time": 1894, "pitch": 68, "duration": 5, "velocity": 90}, {"time": 1897, "pitch": 54, "duration": 4, "velocity": 85}, {"time": 1900, "pitch": 63, "duration": 4, "velocity": 83}, {"time": 1906, "pitch": 49, "duration": 41, "velocity": 84}, {"time": 1906, "pitch": 61, "duration": 10, "velocity": 86}, {"time": 1906, "pitch": 63, "duration": 10, "velocity": 86}, {"time": 1906, "pitch": 64, "duration": 11, "velocity": 84}, {"time": 1906, "pitch": 68, "duration": 9, "velocity": 80}, {"time": 1918, "pitch": 61, "duration": 9, "velocity": 76}, {"time": 1918, "pitch": 63, "duration": 10, "velocity": 78}, {"time": 1918, "pitch": 64, "duration": 11, "velocity": 79}, {"time": 1918, "pitch": 68, "duration": 8, "velocity": 84}, {"time": 1930, "pitch": 61, "duration": 9, "velocity": 76}, {"time": 1930, "pitch": 63, "duration": 9, "velocity": 74}, {"time": 1930, "pitch": 64, "duration": 9, "velocity": 74}, {"time": 1930, "pitch": 68, "duration": 7, "velocity": 68}, {"time": 1939, "pitch": 56, "duration": 6, "velocity": 76}, {"time": 1942, "pitch": 63, "duration": 7, "velocity": 90}, {"time": 1948, "pitch": 64, "duration": 6, "velocity": 88}, {"time": 1951, "pitch": 68, "duration": 13, "velocity": 81}, {"time": 1954, "pitch": 42, "duration": 40, "velocity": 83}, {"time": 1954, "pitch": 54, "duration": 28, "velocity": 83}, {"time": 1954, "pitch": 61, "duration": 10, "velocity": 85}, {"time": 1954, "pitch": 64, "duration": 1, "velocity": 80}, {"time": 1966, "pitch": 61, "duration": 22, "velocity": 82}, {"time": 1966, "pitch": 64, "duration": 23, "velocity": 80}, {"time": 1966, "pitch": 68, "duration": 10, "velocity": 83}, {"time": 1978, "pitch": 68, "duration": 9, "velocity": 80}, {"time": 1987, "pitch": 54, "duration": 16, "velocity": 70}, {"time": 1990, "pitch": 63, "duration": 4, "velocity": 89}, {"time": 1993, "pitch": 64, "duration": 20, "velocity": 81}, {"time": 2002, "pitch": 49, "duration": 48, "velocity": 76}, {"time": 2002, "pitch": 61, "duration": 10, "velocity": 77}, {"time": 2002, "pitch": 68, "duration": 8, "velocity": 77}, {"time": 2014, "pitch": 61, "duration": 11, "velocity": 78}, {"time": 2014, "pitch": 64, "duration": 11, "velocity": 78}, {"time": 2014, "pitch": 68, "duration": 9, "velocity": 81}, {"time": 2026, "pitch": 61, "duration": 10, "velocity": 76}, {"time": 2026, "pitch": 64, "duration": 10, "velocity": 78}, {"time": 2026, "pitch": 68, "duration": 8, "velocity": 80}, {"time": 2038, "pitch": 61, "duration": 10, "velocity": 88}, {"time": 2038, "pitch": 64, "duration": 10, "velocity": 88}, {"time": 2038, "pitch": 68, "duration": 7, "velocity": 83}, {"time": 2050, "pitch": 42, "duration": 29, "velocity": 82}, {"time": 2050, "pitch": 54, "duration": 33, "velocity": 83}, {"time": 2050, "pitch": 61, "duration": 10, "velocity": 82}, {"time": 2050, "pitch": 63, "duration": 10, "velocity": 84}, {"time": 2050, "pitch": 64, "duration": 11, "velocity": 84}, {"time": 2050, "pitch": 68, "duration": 8, "velocity": 84}, {"time": 2062, "pitch": 61, "duration": 11, "velocity": 78}, {"time": 2062, "pitch": 63, "duration": 11, "velocity": 79}, {"time": 2062, "pitch": 64, "duration": 11, "velocity": 79}, {"time": 2062, "pitch": 68, "duration": 9, "velocity": 83}, {"time": 2074, "pitch": 61, "duration": 14, "velocity": 85}, {"time": 2074, "pitch": 63, "duration": 14, "velocity": 85}, {"time": 2074, "pitch": 64, "duration": 14, "velocity": 84}, {"time": 2074, "pitch": 68, "duration": 13, "velocity": 84}, {"time": 2083, "pitch": 42, "duration": 8, "velocity": 91}, {"time": 2086, "pitch": 54, "duration": 12, "velocity": 107}, {"time": 2089, "pitch": 61, "duration": 4, "velocity": 89}, {"time": 2092, "pitch": 63, "duration": 4, "velocity": 84}, {"time": 2095, "pitch": 64, "duration": 2, "velocity": 65}, {"time": 2098, "pitch": 44, "duration": 47, "velocity": 77}, {"time": 2098, "pitch": 56, "duration": 28, "velocity": 80}, {"time": 2098, "pitch": 60, "duration": 10, "velocity": 84}, {"time": 2098, "pitch": 63, "duration": 9, "velocity": 88}, {"time": 2098, "pitch": 68, "duration": 9, "velocity": 87}, {"time": 2110, "pitch": 60, "duration": 21, "velocity": 70}, {"time": 2110, "pitch": 63, "duration": 21, "velocity": 73}, {"time": 2110, "pitch": 68, "duration": 21, "velocity": 71}, {"time": 2131, "pitch": 56, "duration": 14, "velocity": 84}, {"time": 2134, "pitch": 60, "duration": 10, "velocity": 90}, {"time": 2134, "pitch": 68, "duration": 3, "velocity": 87}, {"time": 2137, "pitch": 63, "duration": 8, "velocity": 83}, {"time": 2140, "pitch": 68, "duration": 5, "velocity": 86}, {"time": 2146, "pitch": 49, "duration": 18, "velocity": 82}, {"time": 2158, "pitch": 61, "duration": 21, "velocity": 85}, {"time": 2158, "pitch": 63, "duration": 22, "velocity": 88}, {"time": 2158, "pitch": 64, "duration": 22, "velocity": 87}, {"time": 2158, "pitch": 68, "duration": 23, "velocity": 88}, {"time": 2167, "pitch": 49, "duration": 3, "velocity": 100}, {"time": 2170, "pitch": 49, "duration": 9, "velocity": 91}, {"time": 2179, "pitch": 49, "duration": 1, "velocity": 97}, {"time": 2182, "pitch": 61, "duration": 8, "velocity": 85}, {"time": 2182, "pitch": 63, "duration": 9, "velocity": 88}, {"time": 2182, "pitch": 64, "duration": 10, "velocity": 87}, {"time": 2182, "pitch": 68, "duration": 10, "velocity": 88}, {"time": 2186, "pitch": 44, "duration": 2, "velocity": 91}, {"time": 2188, "pitch": 49, "duration": 4, "velocity": 93}, {"time": 2192, "pitch": 52, "duration": 2, "velocity": 92}, {"time": 2194, "pitch": 54, "duration": 21, "velocity": 98}, {"time": 2194, "pitch": 57, "duration": 17, "velocity": 98}, {"time": 2194, "pitch": 61, "duration": 18, "velocity": 98}, {"time": 2206, "pitch": 64, "duration": 18, "velocity": 98}, {"time": 2206, "pitch": 66, "duration": 19, "velocity": 98}, {"time": 2215, "pitch": 54, "duration": 3, "velocity": 100}, {"time": 2218, "pitch": 56, "duration": 6, "velocity": 79}, {"time": 2227, "pitch": 56, "duration": 3, "velocity": 100}, {"time": 2230, "pitch": 44, "duration": 12, "velocity": 100}, {"time": 2230, "pitch": 60, "duration": 14, "velocity": 78}, {"time": 2230, "pitch": 63, "duration": 14, "velocity": 81}, {"time": 2230, "pitch": 66, "duration": 14, "velocity": 73}, {"time": 2242, "pitch": 49, "duration": 16, "velocity": 82}, {"time": 2254, "pitch": 61, "duration": 19, "velocity": 81}, {"time": 2254, "pitch": 63, "duration": 22, "velocity": 84}, {"time": 2254, "pitch": 64, "duration": 23, "velocity": 83}, {"time": 2254, "pitch": 68, "duration": 21, "velocity": 85}, {"time": 2263, "pitch": 49, "duration": 3, "velocity": 100}, {"time": 2266, "pitch": 49, "duration": 15, "velocity": 91}, {"time": 2278, "pitch": 61, "duration": 7, "velocity": 81}, {"time": 2278, "pitch": 63, "duration": 9, "velocity": 84}, {"time": 2278, "pitch": 64, "duration": 11, "velocity": 83}, {"time": 2278, "pitch": 68, "duration": 9, "velocity": 85}, {"time": 2282, "pitch": 44, "duration": 2, "velocity": 91}, {"time": 2284, "pitch": 49, "duration": 4, "velocity": 93}, {"time": 2288, "pitch": 52, "duration": 2, "velocity": 95}, {"time": 2290, "pitch": 54, "duration": 24, "velocity": 78}, {"time": 2302, "pitch": 57, "duration": 6, "velocity": 80}, {"time": 2302, "pitch": 61, "duration": 6, "velocity": 79}, {"time": 2302, "pitch": 66, "duration": 9, "velocity": 81}, {"time": 2314, "pitch": 56, "duration": 14, "velocity": 71}, {"time": 2314, "pitch": 60, "duration": 13, "velocity": 83}, {"time": 2314, "pitch": 63, "duration": 12, "velocity": 75}, {"time": 2314, "pitch": 66, "duration": 13, "velocity": 81}, {"time": 2326, "pitch": 49, "duration": 12, "velocity": 83}, {"time": 2326, "pitch": 61, "duration": 31, "velocity": 78}, {"time": 2326, "pitch": 64, "duration": 7, "velocity": 83}, {"time": 2326, "pitch": 68, "duration": 6, "velocity": 81}, {"time": 2338, "pitch": 42, "duration": 21, "velocity": 75}, {"time": 2338, "pitch": 54, "duration": 22, "velocity": 78}, {"time": 2338, "pitch": 57, "duration": 17, "velocity": 84}, {"time": 2338, "pitch": 66, "duration": 18, "velocity": 88}, {"time": 2359, "pitch": 42, "duration": 3, "velocity": 100}, {"time": 2362, "pitch": 47, "duration": 21, "velocity": 87}, {"time": 2362, "pitch": 59, "duration": 19, "velocity": 79}, {"time": 2362, "pitch": 63, "duration": 14, "velocity": 87}, {"time": 2362, "pitch": 66, "duration": 18, "velocity": 82}, {"time": 2383, "pitch": 47, "duration": 3, "velocity": 100}, {"time": 2386, "pitch": 52, "duration": 21, "velocity": 81}, {"time": 2386, "pitch": 59, "duration": 9, "velocity": 80}, {"time": 2386, "pitch": 64, "duration": 9, "velocity": 85}, {"time": 2386, "pitch": 68, "duration": 9, "velocity": 86}, {"time": 2398, "pitch": 59, "duration": 7, "velocity": 81}, {"time": 2398, "pitch": 64, "duration": 8, "velocity": 85}, {"time": 2398, "pitch": 68, "duration": 8, "velocity": 84}, {"time": 2407, "pitch": 52, "duration": 1, "velocity": 81}, {"time": 2407, "pitch": 52, "duration": 1, "velocity": 97}, {"time": 2410, "pitch": 49, "duration": 6, "velocity": 74}, {"time": 2410, "pitch": 61, "duration": 9, "velocity": 81}, {"time": 2410, "pitch": 64, "duration": 9, "velocity": 84}, {"time": 2410, "pitch": 68, "duration": 8, "velocity": 82}, {"time": 2419, "pitch": 51, "duration": 3, "velocity": 86}, {"time": 2422, "pitch": 52, "duration": 12, "velocity": 91}, {"time": 2422, "pitch": 61, "duration": 21, "velocity": 88}, {"time": 2422, "pitch": 64, "duration": 5, "velocity": 86}, {"time": 2422, "pitch": 68, "duration": 4, "velocity": 84}, {"time": 2434, "pitch": 42, "duration": 18, "velocity": 77}, {"time": 2434, "pitch": 54, "duration": 26, "velocity": 70}, {"time": 2434, "pitch": 57, "duration": 8, "velocity": 80}, {"time": 2434, "pitch": 66, "duration": 8, "velocity": 86}, {"time": 2446, "pitch": 57, "duration": 9, "velocity": 78}, {"time": 2446, "pitch": 61, "duration": 11, "velocity": 76}, {"time": 2446, "pitch": 66, "duration": 10, "velocity": 79}, {"time": 2455, "pitch": 42, "duration": 3, "velocity": 100}, {"time": 2458, "pitch": 57, "duration": 9, "velocity": 78}, {"time": 2458, "pitch": 61, "duration": 11, "velocity": 76}, {"time": 2458, "pitch": 66, "duration": 10, "velocity": 79}, {"time": 2458, "pitch": 42, "duration": 21, "velocity": 100}, {"time": 2464, "pitch": 54, "duration": 13, "velocity": 77}, {"time": 2467, "pitch": 57, "duration": 4, "velocity": 80}, {"time": 2470, "pitch": 57, "duration": 1, "velocity": 78}, {"time": 2470, "pitch": 61, "duration": 11, "velocity": 76}, {"time": 2470, "pitch": 66, "duration": 10, "velocity": 79}, {"time": 2476, "pitch": 66, "duration": 4, "velocity": 84}, {"time": 2482, "pitch": 44, "duration": 21, "velocity": 83}, {"time": 2488, "pitch": 51, "duration": 32, "velocity": 89}, {"time": 2494, "pitch": 61, "duration": 10, "velocity": 88}, {"time": 2503, "pitch": 44, "duration": 1, "velocity": 96}, {"time": 2506, "pitch": 56, "duration": 8, "velocity": 96}, {"time": 2506, "pitch": 60, "duration": 9, "velocity": 98}, {"time": 2506, "pitch": 63, "duration": 9, "velocity": 98}, {"time": 2506, "pitch": 66, "duration": 9, "velocity": 98}, {"time": 2515, "pitch": 44, "duration": 8, "velocity": 90}, {"time": 2518, "pitch": 56, "duration": 11, "velocity": 96}, {"time": 2518, "pitch": 60, "duration": 12, "velocity": 98}, {"time": 2518, "pitch": 63, "duration": 12, "velocity": 98}, {"time": 2518, "pitch": 66, "duration": 12, "velocity": 98}, {"time": 2530, "pitch": 49, "duration": 21, "velocity": 77}, {"time": 2530, "pitch": 61, "duration": 18, "velocity": 78}, {"time": 2530, "pitch": 63, "duration": 1, "velocity": 83}, {"time": 2530, "pitch": 64, "duration": 21, "velocity": 81}, {"time": 2530, "pitch": 68, "duration": 18, "velocity": 83}, {"time": 2548, "pitch": 56, "duration": 12, "velocity": 56}, {"time": 2551, "pitch": 49, "duration": 3, "velocity": 100}, {"time": 2554, "pitch": 49, "duration": 24, "velocity": 100}, {"time": 2560, "pitch": 61, "duration": 7, "velocity": 79}, {"time": 2566, "pitch": 56, "duration": 7, "velocity": 79}, {"time": 2566, "pitch": 63, "duration": 6, "velocity": 89}, {"time": 2566, "pitch": 68, "duration": 7, "velocity": 100}, {"time": 2572, "pitch": 64, "duration": 1, "velocity": 84}, {"time": 2578, "pitch": 54, "duration": 21, "velocity": 81}, {"time": 2578, "pitch": 57, "duration": 16, "velocity": 81}, {"time": 2578, "pitch": 61, "duration": 15, "velocity": 84}, {"time": 2578, "pitch": 66, "duration": 18, "velocity": 85}, {"time": 2599, "pitch": 54, "duration": 3, "velocity": 80}, {"time": 2602, "pitch": 56, "duration": 9, "velocity": 77}, {"time": 2602, "pitch": 60, "duration": 6, "velocity": 81}, {"time": 2602, "pitch": 63, "duration": 6, "velocity": 81}, {"time": 2602, "pitch": 66, "duration": 6, "velocity": 77}, {"time": 2611, "pitch": 56, "duration": 1, "velocity": 97}, {"time": 2614, "pitch": 60, "duration": 9, "velocity": 81}, {"time": 2614, "pitch": 63, "duration": 9, "velocity": 81}, {"time": 2614, "pitch": 66, "duration": 9, "velocity": 77}, {"time": 2623, "pitch": 56, "duration": 3, "velocity": 100}, {"time": 2626, "pitch": 49, "duration": 18, "velocity": 84}, {"time": 2626, "pitch": 61, "duration": 18, "velocity": 77}, {"time": 2626, "pitch": 63, "duration": 19, "velocity": 85}, {"time": 2626, "pitch": 64, "duration": 19, "velocity": 87}, {"time": 2626, "pitch": 68, "duration": 18, "velocity": 86}, {"time": 2644, "pitch": 56, "duration": 27, "velocity": 40}, {"time": 2647, "pitch": 49, "duration": 3, "velocity": 97}, {"time": 2647, "pitch": 63, "duration": 12, "velocity": 86}, {"time": 2650, "pitch": 49, "duration": 24, "velocity": 97}, {"time": 2653, "pitch": 61, "duration": 6, "velocity": 64}, {"time": 2653, "pitch": 64, "duration": 6, "velocity": 84}, {"time": 2662, "pitch": 61, "duration": 6, "velocity": 86}, {"time": 2662, "pitch": 64, "duration": 5, "velocity": 89}, {"time": 2662, "pitch": 68, "duration": 4, "velocity": 87}, {"time": 2674, "pitch": 54, "duration": 21, "velocity": 81}, {"time": 2674, "pitch": 57, "duration": 14, "velocity": 79}, {"time": 2674, "pitch": 61, "duration": 16, "velocity": 88}, {"time": 2674, "pitch": 64, "duration": 17, "velocity": 87}, {"time": 2695, "pitch": 54, "duration": 1, "velocity": 97}, {"time": 2698, "pitch": 56, "duration": 10, "velocity": 80}, {"time": 2698, "pitch": 60, "duration": 12, "velocity": 86}, {"time": 2698, "pitch": 63, "duration": 13, "velocity": 88}, {"time": 2698, "pitch": 66, "duration": 13, "velocity": 84}, {"time": 2707, "pitch": 44, "duration": 3, "velocity": 100}, {"time": 2710, "pitch": 49, "duration": 12, "velocity": 84}, {"time": 2710, "pitch": 61, "duration": 11, "velocity": 85}, {"time": 2710, "pitch": 63, "duration": 1, "velocity": 88}, {"time": 2710, "pitch": 64, "duration": 7, "velocity": 88}, {"time": 2710, "pitch": 68, "duration": 7, "velocity": 87}, {"time": 2722, "pitch": 42, "duration": 12, "velocity": 83}, {"time": 2722, "pitch": 54, "duration": 24, "velocity": 84}, {"time": 2722, "pitch": 57, "duration": 18, "velocity": 88}, {"time": 2734, "pitch": 61, "duration": 9, "velocity": 86}, {"time": 2734, "pitch": 66, "duration": 5, "velocity": 89}, {"time": 2738, "pitch": 42, "duration": 2, "velocity": 72}, {"time": 2740, "pitch": 44, "duration": 4, "velocity": 79}, {"time": 2744, "pitch": 45, "duration": 2, "velocity": 83}, {"time": 2746, "pitch": 47, "duration": 21, "velocity": 89}, {"time": 2746, "pitch": 59, "duration": 10, "velocity": 89}, {"time": 2746, "pitch": 63, "duration": 9, "velocity": 89}, {"time": 2746, "pitch": 66, "duration": 8, "velocity": 89}, {"time": 2758, "pitch": 59, "duration": 9, "velocity": 84}, {"time": 2758, "pitch": 63, "duration": 9, "velocity": 86}, {"time": 2758, "pitch": 66, "duration": 9, "velocity": 88}, {"time": 2770, "pitch": 52, "duration": 21, "velocity": 85}, {"time": 2770, "pitch": 59, "duration": 10, "velocity": 85}, {"time": 2770, "pitch": 64, "duration": 11, "velocity": 89}, {"time": 2770, "pitch": 68, "duration": 10, "velocity": 89}, {"time": 2782, "pitch": 59, "duration": 8, "velocity": 80}, {"time": 2782, "pitch": 64, "duration": 9, "velocity": 86}, {"time": 2782, "pitch": 68, "duration": 9, "velocity": 87}, {"time": 2791, "pitch": 52, "duration": 3, "velocity": 100}, {"time": 2794, "pitch": 49, "duration": 6, "velocity": 78}, {"time": 2794, "pitch": 61, "duration": 9, "velocity": 81}, {"time": 2794, "pitch": 64, "duration": 10, "velocity": 87}, {"time": 2794, "pitch": 68, "duration": 9, "velocity": 84}, {"time": 2803, "pitch": 49, "duration": 3, "velocity": 97}, {"time": 2806, "pitch": 61, "duration": 10, "velocity": 91}, {"time": 2806, "pitch": 64, "duration": 3, "velocity": 84}, {"time": 2806, "pitch": 68, "duration": 3, "velocity": 80}, {"time": 2809, "pitch": 49, "duration": 9, "velocity": 88}, {"time": 2818, "pitch": 42, "duration": 21, "velocity": 73}, {"time": 2818, "pitch": 54, "duration": 22, "velocity": 75}, {"time": 2818, "pitch": 57, "duration": 9, "velocity": 80}, {"time": 2818, "pitch": 61, "duration": 8, "velocity": 84}, {"time": 2818, "pitch": 66, "duration": 8, "velocity": 84}, {"time": 2830, "pitch": 57, "duration": 8, "velocity": 77}, {"time": 2830, "pitch": 61, "duration": 9, "velocity": 86}, {"time": 2830, "pitch": 66, "duration": 8, "velocity": 84}, {"time": 2839, "pitch": 42, "duration": 1, "velocity": 97}, {"time": 2842, "pitch": 45, "duration": 15, "velocity": 84}, {"time": 2842, "pitch": 57, "duration": 8, "velocity": 83}, {"time": 2842, "pitch": 61, "duration": 8, "velocity": 91}, {"time": 2842, "pitch": 64, "duration": 8, "velocity": 86}, {"time": 2854, "pitch": 57, "duration": 6, "velocity": 83}, {"time": 2854, "pitch": 61, "duration": 6, "velocity": 89}, {"time": 2854, "pitch": 64, "duration": 6, "velocity": 90}, {"time": 2860, "pitch": 45, "duration": 3, "velocity": 97}, {"time": 2866, "pitch": 44, "duration": 15, "velocity": 81}, {"time": 2866, "pitch": 56, "duration": 9, "velocity": 84}, {"time": 2866, "pitch": 60, "duration": 10, "velocity": 87}, {"time": 2866, "pitch": 63, "duration": 9, "velocity": 90}, {"time": 2875, "pitch": 51, "duration": 4, "velocity": 69}, {"time": 2878, "pitch": 56, "duration": 9, "velocity": 88}, {"time": 2881, "pitch": 63, "duration": 5, "velocity": 38}, {"time": 2882, "pitch": 44, "duration": 2, "velocity": 100}, {"time": 2884, "pitch": 44, "duration": 1, "velocity": 100}, {"time": 2884, "pitch": 51, "duration": 22, "velocity": 72}, {"time": 2887, "pitch": 44, "duration": 1, "velocity": 100}, {"time": 2890, "pitch": 44, "duration": 1, "velocity": 100}, {"time": 2890, "pitch": 56, "duration": 12, "velocity": 88}, {"time": 2890, "pitch": 60, "duration": 12, "velocity": 90}, {"time": 2890, "pitch": 63, "duration": 12, "velocity": 91}, {"time": 2893, "pitch": 44, "duration": 1, "velocity": 100}, {"time": 2902, "pitch": 44, "duration": 10, "velocity": 100}, {"time": 2914, "pitch": 49, "duration": 39, "velocity": 88}, {"time": 2914, "pitch": 61, "duration": 7, "velocity": 88}, {"time": 2914, "pitch": 64, "duration": 8, "velocity": 93}, {"time": 2914, "pitch": 68, "duration": 6, "velocity": 91}, {"time": 2920, "pitch": 56, "duration": 7, "velocity": 40}, {"time": 2926, "pitch": 61, "duration": 10, "velocity": 87}, {"time": 2926, "pitch": 64, "duration": 9, "velocity": 88}, {"time": 2926, "pitch": 68, "duration": 8, "velocity": 88}, {"time": 2932, "pitch": 56, "duration": 12, "velocity": 44}, {"time": 2935, "pitch": 63, "duration": 7, "velocity": 86}, {"time": 2944, "pitch": 61, "duration": 4, "velocity": 83}, {"time": 2944, "pitch": 68, "duration": 4, "velocity": 84}, {"time": 2947, "pitch": 56, "duration": 6, "velocity": 86}, {"time": 2950, "pitch": 61, "duration": 5, "velocity": 108}, {"time": 2950, "pitch": 68, "duration": 6, "velocity": 104}, {"time": 2953, "pitch": 63, "duration": 3, "velocity": 81}, {"time": 2956, "pitch": 64, "duration": 1, "velocity": 93}, {"time": 2962, "pitch": 42, "duration": 43, "velocity": 83}, {"time": 2962, "pitch": 57, "duration": 7, "velocity": 87}, {"time": 2962, "pitch": 61, "duration": 7, "velocity": 89}, {"time": 2962, "pitch": 66, "duration": 7, "velocity": 93}, {"time": 2971, "pitch": 54, "duration": 5, "velocity": 40}, {"time": 2974, "pitch": 57, "duration": 8, "velocity": 86}, {"time": 2974, "pitch": 61, "duration": 9, "velocity": 89}, {"time": 2974, "pitch": 66, "duration": 10, "velocity": 90}, {"time": 2980, "pitch": 49, "duration": 25, "velocity": 65}, {"time": 2983, "pitch": 54, "duration": 10, "velocity": 84}, {"time": 2989, "pitch": 57, "duration": 6, "velocity": 76}, {"time": 2992, "pitch": 61, "duration": 4, "velocity": 86}, {"time": 2995, "pitch": 54, "duration": 4, "velocity": 98}, {"time": 2998, "pitch": 57, "duration": 5, "velocity": 109}, {"time": 2998, "pitch": 66, "duration": 4, "velocity": 102}, {"time": 3001, "pitch": 54, "duration": 8, "velocity": 88}, {"time": 3004, "pitch": 61, "duration": 5, "velocity": 88}, {"time": 3007, "pitch": 66, "duration": 10, "velocity": 88}, {"time": 3010, "pitch": 47, "duration": 43, "velocity": 84}, {"time": 3010, "pitch": 59, "duration": 4, "velocity": 88}, {"time": 3010, "pitch": 63, "duration": 8, "velocity": 93}, {"time": 3016, "pitch": 54, "duration": 30, "velocity": 68}, {"time": 3022, "pitch": 61, "duration": 7, "velocity": 88}, {"time": 3022, "pitch": 66, "duration": 8, "velocity": 100}, {"time": 3028, "pitch": 59, "duration": 8, "velocity": 67}, {"time": 3034, "pitch": 63, "duration": 7, "velocity": 96}, {"time": 3034, "pitch": 66, "duration": 7, "velocity": 98}, {"time": 3040, "pitch": 59, "duration": 5, "velocity": 78}, {"time": 3043, "pitch": 61, "duration": 10, "velocity": 98}, {"time": 3049, "pitch": 54, "duration": 3, "velocity": 84}, {"time": 3052, "pitch": 63, "duration": 3, "velocity": 91}, {"time": 3055, "pitch": 66, "duration": 12, "velocity": 84}, {"time": 3058, "pitch": 40, "duration": 19, "velocity": 88}, {"time": 3058, "pitch": 56, "duration": 9, "velocity": 88}, {"time": 3058, "pitch": 59, "duration": 9, "velocity": 88}, {"time": 3064, "pitch": 47, "duration": 14, "velocity": 64}, {"time": 3067, "pitch": 52, "duration": 3, "velocity": 75}, {"time": 3070, "pitch": 56, "duration": 6, "velocity": 88}, {"time": 3070, "pitch": 59, "duration": 7, "velocity": 92}, {"time": 3070, "pitch": 66, "duration": 11, "velocity": 93}, {"time": 3076, "pitch": 52, "duration": 6, "velocity": 75}, {"time": 3082, "pitch": 44, "duration": 19, "velocity": 83}, {"time": 3082, "pitch": 56, "duration": 4, "velocity": 89}, {"time": 3082, "pitch": 60, "duration": 7, "velocity": 93}, {"time": 3082, "pitch": 63, "duration": 8, "velocity": 98}, {"time": 3082, "pitch": 66, "duration": 12, "velocity": 88}, {"time": 3088, "pitch": 51, "duration": 13, "velocity": 74}, {"time": 3091, "pitch": 56, "duration": 4, "velocity": 87}, {"time": 3094, "pitch": 60, "duration": 4, "velocity": 113}, {"time": 3097, "pitch": 56, "duration": 9, "velocity": 98}, {"time": 3100, "pitch": 61, "duration": 4, "velocity": 93}, {"time": 3103, "pitch": 63, "duration": 3, "velocity": 85}, {"time": 3106, "pitch": 49, "duration": 42, "velocity": 83}, {"time": 3106, "pitch": 61, "duration": 7, "velocity": 88}, {"time": 3106, "pitch": 64, "duration": 7, "velocity": 90}, {"time": 3106, "pitch": 68, "duration": 6, "velocity": 88}, {"time": 3112, "pitch": 56, "duration": 7, "velocity": 72}, {"time": 3118, "pitch": 63, "duration": 8, "velocity": 89}, {"time": 3118, "pitch": 68, "duration": 8, "velocity": 89}, {"time": 3124, "pitch": 56, "duration": 10, "velocity": 66}, {"time": 3127, "pitch": 61, "duration": 2, "velocity": 87}, {"time": 3127, "pitch": 64, "duration": 1, "velocity": 90}, {"time": 3127, "pitch": 68, "duration": 2, "velocity": 82}, {"time": 3133, "pitch": 63, "duration": 8, "velocity": 88}, {"time": 3133, "pitch": 68, "duration": 8, "velocity": 87}, {"time": 3139, "pitch": 56, "duration": 7, "velocity": 84}, {"time": 3142, "pitch": 61, "duration": 7, "velocity": 100}, {"time": 3142, "pitch": 64, "duration": 6, "velocity": 104}, {"time": 3142, "pitch": 68, "duration": 6, "velocity": 84}, {"time": 3148, "pitch": 63, "duration": 2, "velocity": 88}, {"time": 3151, "pitch": 61, "duration": 1, "velocity": 71}, {"time": 3154, "pitch": 42, "duration": 42, "velocity": 82}, {"time": 3154, "pitch": 57, "duration": 6, "velocity": 100}, {"time": 3154, "pitch": 61, "duration": 6, "velocity": 88}, {"time": 3154, "pitch": 66, "duration": 6, "velocity": 94}, {"time": 3160, "pitch": 49, "duration": 37, "velocity": 67}, {"time": 3166, "pitch": 57, "duration": 1, "velocity": 89}, {"time": 3166, "pitch": 66, "duration": 1, "velocity": 93}, {"time": 3172, "pitch": 54, "duration": 11, "velocity": 67}, {"time": 3175, "pitch": 61, "duration": 1, "velocity": 90}, {"time": 3181, "pitch": 57, "duration": 7, "velocity": 90}, {"time": 3181, "pitch": 66, "duration": 6, "velocity": 100}, {"time": 3187, "pitch": 54, "duration": 4, "velocity": 84}, {"time": 3190, "pitch": 57, "duration": 6, "velocity": 106}, {"time": 3190, "pitch": 66, "duration": 6, "velocity": 107}, {"time": 3193, "pitch": 54, "duration": 9, "velocity": 81}, {"time": 3196, "pitch": 61, "duration": 6, "velocity": 88}, {"time": 3199, "pitch": 66, "duration": 10, "velocity": 87}, {"time": 3202, "pitch": 47, "duration": 42, "velocity": 86}, {"time": 3202, "pitch": 59, "duration": 4, "velocity": 88}, {"time": 3202, "pitch": 63, "duration": 6, "velocity": 91}, {"time": 3208, "pitch": 54, "duration": 34, "velocity": 65}, {"time": 3214, "pitch": 61, "duration": 8, "velocity": 90}, {"time": 3214, "pitch": 66, "duration": 8, "velocity": 90}, {"time": 3220, "pitch": 59, "duration": 8, "velocity": 65}, {"time": 3223, "pitch": 63, "duration": 6, "velocity": 88}, {"time": 3223, "pitch": 66, "duration": 5, "velocity": 85}, {"time": 3229, "pitch": 61, "duration": 7, "velocity": 84}, {"time": 3229, "pitch": 66, "duration": 6, "velocity": 78}, {"time": 3235, "pitch": 59, "duration": 5, "velocity": 88}, {"time": 3238, "pitch": 61, "duration": 6, "velocity": 107}, {"time": 3238, "pitch": 66, "duration": 7, "velocity": 104}, {"time": 3244, "pitch": 63, "duration": 5, "velocity": 89}, {"time": 3250, "pitch": 49, "duration": 43, "velocity": 85}, {"time": 3250, "pitch": 61, "duration": 11, "velocity": 89}, {"time": 3250, "pitch": 68, "duration": 7, "velocity": 94}, {"time": 3256, "pitch": 56, "duration": 7, "velocity": 65}, {"time": 3262, "pitch": 63, "duration": 9, "velocity": 104}, {"time": 3268, "pitch": 56, "duration": 13, "velocity": 74}, {"time": 3271, "pitch": 61, "duration": 1, "velocity": 87}, {"time": 3271, "pitch": 64, "duration": 1, "velocity": 92}, {"time": 3277, "pitch": 63, "duration": 7, "velocity": 88}, {"time": 3277, "pitch": 66, "duration": 6, "velocity": 86}, {"time": 3283, "pitch": 56, "duration": 9, "velocity": 86}, {"time": 3286, "pitch": 61, "duration": 6, "velocity": 107}, {"time": 3286, "pitch": 68, "duration": 4, "velocity": 91}, {"time": 3289, "pitch": 63, "duration": 5, "velocity": 83}, {"time": 3292, "pitch": 64, "duration": 3, "velocity": 83}, {"time": 3295, "pitch": 63, "duration": 2, "velocity": 38}, {"time": 3298, "pitch": 49, "duration": 39, "velocity": 88}, {"time": 3298, "pitch": 61, "duration": 7, "velocity": 88}, {"time": 3298, "pitch": 64, "duration": 8, "velocity": 93}, {"time": 3298, "pitch": 68, "duration": 6, "velocity": 91}, {"time": 3304, "pitch": 56, "duration": 7, "velocity": 40}, {"time": 3310, "pitch": 61, "duration": 10, "velocity": 87}, {"time": 3310, "pitch": 64, "duration": 9, "velocity": 88}, {"time": 3310, "pitch": 68, "duration": 8, "velocity": 88}, {"time": 3316, "pitch": 56, "duration": 12, "velocity": 44}, {"time": 3319, "pitch": 63, "duration": 7, "velocity": 86}, {"time": 3328, "pitch": 61, "duration": 4, "velocity": 83}, {"time": 3328, "pitch": 68, "duration": 4, "velocity": 84}, {"time": 3331, "pitch": 56, "duration": 6, "velocity": 86}, {"time": 3334, "pitch": 61, "duration": 5, "velocity": 108}, {"time": 3334, "pitch": 68, "duration": 6, "velocity": 104}, {"time": 3337, "pitch": 63, "duration": 3, "velocity": 81}, {"time": 3340, "pitch": 64, "duration": 1, "velocity": 93}, {"time": 3346, "pitch": 42, "duration": 43, "velocity": 83}, {"time": 3346, "pitch": 57, "duration": 7, "velocity": 87}, {"time": 3346, "pitch": 61, "duration": 7, "velocity": 89}, {"time": 3346, "pitch": 66, "duration": 7, "velocity": 93}, {"time": 3355, "pitch": 54, "duration": 5, "velocity": 40}, {"time": 3358, "pitch": 57, "duration": 8, "velocity": 86}, {"time": 3358, "pitch": 61, "duration": 9, "velocity": 89}, {"time": 3358, "pitch": 66, "duration": 10, "velocity": 90}, {"time": 3364, "pitch": 49, "duration": 25, "velocity": 65}, {"time": 3367, "pitch": 54, "duration": 10, "velocity": 84}, {"time": 3373, "pitch": 57, "duration": 6, "velocity": 76}, {"time": 3376, "pitch": 61, "duration": 4, "velocity": 86}, {"time": 3379, "pitch": 54, "duration": 4, "velocity": 98}, {"time": 3382, "pitch": 57, "duration": 5, "velocity": 109}, {"time": 3382, "pitch": 66, "duration": 4, "velocity": 102}, {"time": 3385, "pitch": 54, "duration": 8, "velocity": 88}, {"time": 3388, "pitch": 61, "duration": 5, "velocity": 88}, {"time": 3391, "pitch": 66, "duration": 10, "velocity": 88}, {"time": 3394, "pitch": 47, "duration": 43, "velocity": 84}, {"time": 3394, "pitch": 59, "duration": 4, "velocity": 88}, {"time": 3394, "pitch": 63, "duration": 8, "velocity": 93}, {"time": 3400, "pitch": 54, "duration": 30, "velocity": 68}, {"time": 3406, "pitch": 61, "duration": 7, "velocity": 88}, {"time": 3406, "pitch": 66, "duration": 8, "velocity": 100}, {"time": 3412, "pitch": 59, "duration": 8, "velocity": 67}, {"time": 3418, "pitch": 63, "duration": 7, "velocity": 96}, {"time": 3418, "pitch": 66, "duration": 7, "velocity": 98}, {"time": 3424, "pitch": 59, "duration": 5, "velocity": 78}, {"time": 3427, "pitch": 61, "duration": 10, "velocity": 98}, {"time": 3433, "pitch": 54, "duration": 3, "velocity": 84}, {"time": 3436, "pitch": 63, "duration": 3, "velocity": 91}, {"time": 3439, "pitch": 66, "duration": 12, "velocity": 84}, {"time": 3442, "pitch": 40, "duration": 19, "velocity": 88}, {"time": 3442, "pitch": 56, "duration": 9, "velocity": 88}, {"time": 3442, "pitch": 59, "duration": 9, "velocity": 88}, {"time": 3448, "pitch": 47, "duration": 14, "velocity": 64}, {"time": 3451, "pitch": 52, "duration": 3, "velocity": 75}, {"time": 3454, "pitch": 56, "duration": 6, "velocity": 88}, {"time": 3454, "pitch": 59, "duration": 7, "velocity": 92}, {"time": 3454, "pitch": 66, "duration": 11, "velocity": 93}, {"time": 3460, "pitch": 52, "duration": 6, "velocity": 75}, {"time": 3466, "pitch": 44, "duration": 19, "velocity": 83}, {"time": 3466, "pitch": 56, "duration": 4, "velocity": 89}, {"time": 3466, "pitch": 60, "duration": 7, "velocity": 93}, {"time": 3466, "pitch": 63, "duration": 8, "velocity": 98}, {"time": 3466, "pitch": 66, "duration": 12, "velocity": 88}, {"time": 3472, "pitch": 51, "duration": 13, "velocity": 74}, {"time": 3475, "pitch": 56, "duration": 4, "velocity": 87}, {"time": 3478, "pitch": 60, "duration": 4, "velocity": 113}, {"time": 3481, "pitch": 56, "duration": 9, "velocity": 98}, {"time": 3484, "pitch": 61, "duration": 4, "velocity": 93}, {"time": 3487, "pitch": 63, "duration": 3, "velocity": 85}, {"time": 3490, "pitch": 49, "duration": 42, "velocity": 83}, {"time": 3490, "pitch": 61, "duration": 7, "velocity": 88}, {"time": 3490, "pitch": 64, "duration": 7, "velocity": 90}, {"time": 3490, "pitch": 68, "duration": 6, "velocity": 88}, {"time": 3496, "pitch": 56, "duration": 7, "velocity": 72}, {"time": 3502, "pitch": 63, "duration": 8, "velocity": 89}, {"time": 3502, "pitch": 68, "duration": 8, "velocity": 89}, {"time": 3508, "pitch": 56, "duration": 10, "velocity": 66}, {"time": 3511, "pitch": 61, "duration": 2, "velocity": 87}, {"time": 3511, "pitch": 64, "duration": 1, "velocity": 90}, {"time": 3511, "pitch": 68, "duration": 2, "velocity": 82}, {"time": 3517, "pitch": 63, "duration": 8, "velocity": 88}, {"time": 3517, "pitch": 68, "duration": 8, "velocity": 87}, {"time": 3523, "pitch": 56, "duration": 7, "velocity": 84}, {"time": 3526, "pitch": 61, "duration": 7, "velocity": 100}, {"time": 3526, "pitch": 64, "duration": 6, "velocity": 104}, {"time": 3526, "pitch": 68, "duration": 6, "velocity": 84}, {"time": 3532, "pitch": 63, "duration": 2, "velocity": 88}, {"time": 3535, "pitch": 61, "duration": 1, "velocity": 71}, {"time": 3538, "pitch": 42, "duration": 42, "velocity": 82}, {"time": 3538, "pitch": 57, "duration": 6, "velocity": 100}, {"time": 3538, "pitch": 61, "duration": 6, "velocity": 88}, {"time": 3538, "pitch": 66, "duration": 6, "velocity": 94}, {"time": 3544, "pitch": 49, "duration": 37, "velocity": 67}, {"time": 3550, "pitch": 57, "duration": 1, "velocity": 89}, {"time": 3550, "pitch": 66, "duration": 1, "velocity": 93}, {"time": 3556, "pitch": 54, "duration": 11, "velocity": 67}, {"time": 3559, "pitch": 61, "duration": 1, "velocity": 90}, {"time": 3565, "pitch": 57, "duration": 7, "velocity": 90}, {"time": 3565, "pitch": 66, "duration": 6, "velocity": 100}, {"time": 3571, "pitch": 54, "duration": 4, "velocity": 84}, {"time": 3574, "pitch": 57, "duration": 6, "velocity": 106}, {"time": 3574, "pitch": 66, "duration": 6, "velocity": 107}, {"time": 3577, "pitch": 54, "duration": 9, "velocity": 81}, {"time": 3580, "pitch": 61, "duration": 6, "velocity": 88}, {"time": 3583, "pitch": 66, "duration": 10, "velocity": 87}, {"time": 3586, "pitch": 47, "duration": 42, "velocity": 86}, {"time": 3586, "pitch": 59, "duration": 4, "velocity": 88}, {"time": 3586, "pitch": 63, "duration": 6, "velocity": 91}, {"time": 3592, "pitch": 54, "duration": 34, "velocity": 65}, {"time": 3598, "pitch": 61, "duration": 8, "velocity": 90}, {"time": 3598, "pitch": 66, "duration": 8, "velocity": 90}, {"time": 3604, "pitch": 59, "duration": 8, "velocity": 65}, {"time": 3607, "pitch": 63, "duration": 6, "velocity": 88}, {"time": 3607, "pitch": 66, "duration": 5, "velocity": 85}, {"time": 3613, "pitch": 61, "duration": 7, "velocity": 84}, {"time": 3613, "pitch": 66, "duration": 6, "velocity": 78}, {"time": 3619, "pitch": 59, "duration": 5, "velocity": 88}, {"time": 3622, "pitch": 61, "duration": 6, "velocity": 107}, {"time": 3622, "pitch": 66, "duration": 7, "velocity": 104}, {"time": 3628, "pitch": 63, "duration": 5, "velocity": 89}, {"time": 3634, "pitch": 49, "duration": 43, "velocity": 85}, {"time": 3634, "pitch": 61, "duration": 11, "velocity": 89}, {"time": 3634, "pitch": 68, "duration": 7, "velocity": 94}, {"time": 3640, "pitch": 56, "duration": 7, "velocity": 65}, {"time": 3646, "pitch": 63, "duration": 9, "velocity": 104}, {"time": 3652, "pitch": 56, "duration": 13, "velocity": 74}, {"time": 3655, "pitch": 61, "duration": 1, "velocity": 87}, {"time": 3655, "pitch": 64, "duration": 1, "velocity": 92}, {"time": 3661, "pitch": 63, "duration": 7, "velocity": 88}, {"time": 3661, "pitch": 66, "duration": 6, "velocity": 86}, {"time": 3667, "pitch": 56, "duration": 9, "velocity": 86}, {"time": 3670, "pitch": 61, "duration": 6, "velocity": 107}, {"time": 3670, "pitch": 68, "duration": 4, "velocity": 91}, {"time": 3673, "pitch": 63, "duration": 5, "velocity": 83}, {"time": 3676, "pitch": 64, "duration": 3, "velocity": 83}, {"time": 3679, "pitch": 63, "duration": 2, "velocity": 38}, {"time": 3682, "pitch": 42, "duration": 30, "velocity": 88}, {"time": 3682, "pitch": 61, "duration": 10, "velocity": 84}, {"time": 3682, "pitch": 64, "duration": 11, "velocity": 87}, {"time": 3682, "pitch": 68, "duration": 10, "velocity": 88}, {"time": 3694, "pitch": 61, "duration": 9, "velocity": 86}, {"time": 3694, "pitch": 64, "duration": 10, "velocity": 87}, {"time": 3694, "pitch": 68, "duration": 9, "velocity": 85}, {"time": 3703, "pitch": 54, "duration": 8, "velocity": 80}, {"time": 3706, "pitch": 61, "duration": 14, "velocity": 84}, {"time": 3706, "pitch": 64, "duration": 16, "velocity": 86}, {"time": 3706, "pitch": 68, "duration": 15, "velocity": 85}, {"time": 3715, "pitch": 42, "duration": 7, "velocity": 96}, {"time": 3718, "pitch": 54, "duration": 11, "velocity": 113}, {"time": 3721, "pitch": 61, "duration": 3, "velocity": 87}, {"time": 3724, "pitch": 63, "duration": 4, "velocity": 87}, {"time": 3730, "pitch": 49, "duration": 40, "velocity": 87}, {"time": 3730, "pitch": 61, "duration": 7, "velocity": 87}, {"time": 3730, "pitch": 64, "duration": 9, "velocity": 84}, {"time": 3730, "pitch": 68, "duration": 7, "velocity": 84}, {"time": 3739, "pitch": 56, "duration": 7, "velocity": 58}, {"time": 3742, "pitch": 63, "duration": 13, "velocity": 87}, {"time": 3742, "pitch": 64, "duration": 14, "velocity": 85}, {"time": 3742, "pitch": 68, "duration": 12, "velocity": 83}, {"time": 3754, "pitch": 56, "duration": 10, "velocity": 79}, {"time": 3760, "pitch": 63, "duration": 4, "velocity": 76}, {"time": 3763, "pitch": 64, "duration": 6, "velocity": 107}, {"time": 3766, "pitch": 56, "duration": 3, "velocity": 86}, {"time": 3769, "pitch": 63, "duration": 4, "velocity": 87}, {"time": 3772, "pitch": 64, "duration": 16, "velocity": 87}, {"time": 3778, "pitch": 42, "duration": 41, "velocity": 82}, {"time": 3778, "pitch": 54, "duration": 28, "velocity": 84}, {"time": 3778, "pitch": 61, "duration": 10, "velocity": 78}, {"time": 3778, "pitch": 68, "duration": 7, "velocity": 75}, {"time": 3790, "pitch": 61, "duration": 9, "velocity": 75}, {"time": 3790, "pitch": 64, "duration": 22, "velocity": 74}, {"time": 3790, "pitch": 68, "duration": 8, "velocity": 77}, {"time": 3802, "pitch": 61, "duration": 10, "velocity": 81}, {"time": 3802, "pitch": 68, "duration": 9, "velocity": 86}, {"time": 3811, "pitch": 54, "duration": 5, "velocity": 72}, {"time": 3814, "pitch": 61, "duration": 7, "velocity": 90}, {"time": 3814, "pitch": 64, "duration": 6, "velocity": 91}, {"time": 3814, "pitch": 68, "duration": 5, "velocity": 90}, {"time": 3817, "pitch": 54, "duration": 4, "velocity": 85}, {"time": 3820, "pitch": 63, "duration": 4, "velocity": 83}, {"time": 3826, "pitch": 49, "duration": 41, "velocity": 84}, {"time": 3826, "pitch": 61, "duration": 10, "velocity": 86}, {"time": 3826, "pitch": 63, "duration": 10, "velocity": 86}, {"time": 3826, "pitch": 64, "duration": 11, "velocity": 84}, {"time": 3826, "pitch": 68, "duration": 9, "velocity": 80}, {"time": 3838, "pitch": 61, "duration": 10, "velocity": 76}, {"time": 3838, "pitch": 63, "duration": 10, "velocity": 78}, {"time": 3838, "pitch": 64, "duration": 11, "velocity": 79}, {"time": 3838, "pitch": 68, "duration": 9, "velocity": 84}, {"time": 3850, "pitch": 61, "duration": 9, "velocity": 76}, {"time": 3850, "pitch": 63, "duration": 9, "velocity": 74}, {"time": 3850, "pitch": 64, "duration": 9, "velocity": 74}, {"time": 3850, "pitch": 68, "duration": 8, "velocity": 68}, {"time": 3859, "pitch": 56, "duration": 6, "velocity": 76}, {"time": 3862, "pitch": 63, "duration": 7, "velocity": 90}, {"time": 3868, "pitch": 64, "duration": 6, "velocity": 88}, {"time": 3871, "pitch": 68, "duration": 13, "velocity": 81}, {"time": 3874, "pitch": 42, "duration": 41, "velocity": 83}, {"time": 3874, "pitch": 54, "duration": 28, "velocity": 83}, {"time": 3874, "pitch": 61, "duration": 11, "velocity": 85}, {"time": 3874, "pitch": 64, "duration": 1, "velocity": 80}, {"time": 3886, "pitch": 61, "duration": 22, "velocity": 82}, {"time": 3886, "pitch": 64, "duration": 23, "velocity": 80}, {"time": 3886, "pitch": 68, "duration": 10, "velocity": 83}, {"time": 3898, "pitch": 68, "duration": 9, "velocity": 80}, {"time": 3907, "pitch": 54, "duration": 16, "velocity": 70}, {"time": 3910, "pitch": 63, "duration": 4, "velocity": 89}, {"time": 3913, "pitch": 64, "duration": 20, "velocity": 81}, {"time": 3922, "pitch": 49, "duration": 48, "velocity": 76}, {"time": 3922, "pitch": 61, "duration": 11, "velocity": 77}, {"time": 3922, "pitch": 68, "duration": 8, "velocity": 77}, {"time": 3934, "pitch": 61, "duration": 11, "velocity": 78}, {"time": 3934, "pitch": 64, "duration": 11, "velocity": 78}, {"time": 3934, "pitch": 68, "duration": 9, "velocity": 81}, {"time": 3946, "pitch": 61, "duration": 10, "velocity": 76}, {"time": 3946, "pitch": 64, "duration": 10, "velocity": 78}, {"time": 3946, "pitch": 68, "duration": 9, "velocity": 80}, {"time": 3958, "pitch": 61, "duration": 10, "velocity": 88}, {"time": 3958, "pitch": 64, "duration": 10, "velocity": 88}, {"time": 3958, "pitch": 68, "duration": 7, "velocity": 83}, {"time": 3970, "pitch": 42, "duration": 29, "velocity": 82}, {"time": 3970, "pitch": 54, "duration": 33, "velocity": 83}, {"time": 3970, "pitch": 61, "duration": 10, "velocity": 82}, {"time": 3970, "pitch": 63, "duration": 10, "velocity": 84}, {"time": 3970, "pitch": 64, "duration": 11, "velocity": 84}, {"time": 3970, "pitch": 68, "duration": 8, "velocity": 84}, {"time": 3982, "pitch": 61, "duration": 11, "velocity": 78}, {"time": 3982, "pitch": 63, "duration": 11, "velocity": 79}, {"time": 3982, "pitch": 64, "duration": 11, "velocity": 79}, {"time": 3982, "pitch": 68, "duration": 9, "velocity": 83}, {"time": 3994, "pitch": 61, "duration": 14, "velocity": 85}, {"time": 3994, "pitch": 63, "duration": 14, "velocity": 85}, {"time": 3994, "pitch": 64, "duration": 14, "velocity": 84}, {"time": 3994, "pitch": 68, "duration": 14, "velocity": 84}, {"time": 4003, "pitch": 42, "duration": 8, "velocity": 91}, {"time": 4006, "pitch": 54, "duration": 12, "velocity": 107}, {"time": 4009, "pitch": 61, "duration": 5, "velocity": 89}, {"time": 4012, "pitch": 63, "duration": 5, "velocity": 84}, {"time": 4015, "pitch": 64, "duration": 2, "velocity": 65}, {"time": 4018, "pitch": 44, "duration": 47, "velocity": 77}, {"time": 4018, "pitch": 56, "duration": 29, "velocity": 80}, {"time": 4018, "pitch": 60, "duration": 10, "velocity": 84}, {"time": 4018, "pitch": 63, "duration": 9, "velocity": 88}, {"time": 4018, "pitch": 68, "duration": 9, "velocity": 87}, {"time": 4030, "pitch": 60, "duration": 21, "velocity": 70}, {"time": 4030, "pitch": 63, "duration": 21, "velocity": 73}, {"time": 4030, "pitch": 68, "duration": 21, "velocity": 71}, {"time": 4051, "pitch": 56, "duration": 14, "velocity": 84}, {"time": 4054, "pitch": 60, "duration": 11, "velocity": 90}, {"time": 4054, "pitch": 68, "duration": 3, "velocity": 87}, {"time": 4057, "pitch": 63, "duration": 9, "velocity": 83}, {"time": 4060, "pitch": 68, "duration": 5, "velocity": 86}]}]}