{"metadata": {"schema_version": "0.2", "title": "None", "source_filename": "301.mid", "source_format": "midi"}, "resolution": 12, "tempos": [{"time": 0, "qpm": 58.50000146250004}], "key_signatures": [{"time": 0, "root": 0, "mode": "major"}], "time_signatures": [{"time": 0, "numerator": 4, "denominator": 4}], "tracks": [{"program": 0, "is_drum": false, "name": "MELODY", "notes": [{"time": 240, "pitch": 70, "duration": 2, "velocity": 88}, {"time": 243, "pitch": 72, "duration": 1, "velocity": 87}, {"time": 246, "pitch": 72, "duration": 4, "velocity": 92}, {"time": 252, "pitch": 70, "duration": 1, "velocity": 92}, {"time": 258, "pitch": 72, "duration": 3, "velocity": 86}, {"time": 264, "pitch": 70, "duration": 1, "velocity": 84}, {"time": 267, "pitch": 72, "duration": 3, "velocity": 90}, {"time": 273, "pitch": 74, "duration": 3, "velocity": 91}, {"time": 291, "pitch": 70, "duration": 2, "velocity": 87}, {"time": 294, "pitch": 77, "duration": 4, "velocity": 104}, {"time": 300, "pitch": 69, "duration": 1, "velocity": 87}, {"time": 303, "pitch": 69, "duration": 7, "velocity": 87}, {"time": 312, "pitch": 70, "duration": 4, "velocity": 89}, {"time": 315, "pitch": 72, "duration": 4, "velocity": 90}, {"time": 321, "pitch": 70, "duration": 3, "velocity": 91}, {"time": 342, "pitch": 74, "duration": 4, "velocity": 102}, {"time": 348, "pitch": 72, "duration": 1, "velocity": 87}, {"time": 351, "pitch": 74, "duration": 4, "velocity": 94}, {"time": 360, "pitch": 72, "duration": 1, "velocity": 88}, {"time": 363, "pitch": 74, "duration": 2, "velocity": 100}, {"time": 372, "pitch": 72, "duration": 2, "velocity": 87}, {"time": 375, "pitch": 67, "duration": 3, "velocity": 84}, {"time": 387, "pitch": 67, "duration": 1, "velocity": 87}, {"time": 390, "pitch": 74, "duration": 3, "velocity": 93}, {"time": 396, "pitch": 72, "duration": 1, "velocity": 82}, {"time": 399, "pitch": 74, "duration": 3, "velocity": 94}, {"time": 408, "pitch": 72, "duration": 1, "velocity": 84}, {"time": 411, "pitch": 74, "duration": 3, "velocity": 91}, {"time": 420, "pitch": 67, "duration": 1, "velocity": 84}, {"time": 423, "pitch": 70, "duration": 3, "velocity": 88}, {"time": 429, "pitch": 72, "duration": 3, "velocity": 81}, {"time": 435, "pitch": 67, "duration": 1, "velocity": 73}, {"time": 438, "pitch": 72, "duration": 3, "velocity": 100}, {"time": 444, "pitch": 70, "duration": 1, "velocity": 83}, {"time": 447, "pitch": 72, "duration": 1, "velocity": 93}, {"time": 459, "pitch": 70, "duration": 1, "velocity": 86}, {"time": 462, "pitch": 72, "duration": 2, "velocity": 93}, {"time": 465, "pitch": 74, "duration": 3, "velocity": 96}, {"time": 483, "pitch": 70, "duration": 3, "velocity": 83}, {"time": 486, "pitch": 77, "duration": 4, "velocity": 91}, {"time": 492, "pitch": 69, "duration": 1, "velocity": 83}, {"time": 495, "pitch": 69, "duration": 5, "velocity": 87}, {"time": 504, "pitch": 70, "duration": 2, "velocity": 83}, {"time": 507, "pitch": 72, "duration": 3, "velocity": 87}, {"time": 516, "pitch": 70, "duration": 2, "velocity": 81}, {"time": 531, "pitch": 67, "duration": 2, "velocity": 82}, {"time": 534, "pitch": 74, "duration": 3, "velocity": 94}, {"time": 540, "pitch": 72, "duration": 2, "velocity": 88}, {"time": 543, "pitch": 74, "duration": 3, "velocity": 92}, {"time": 552, "pitch": 72, "duration": 2, "velocity": 81}, {"time": 555, "pitch": 74, "duration": 3, "velocity": 86}, {"time": 564, "pitch": 72, "duration": 2, "velocity": 87}, {"time": 567, "pitch": 67, "duration": 3, "velocity": 83}, {"time": 579, "pitch": 67, "duration": 1, "velocity": 86}, {"time": 582, "pitch": 74, "duration": 3, "velocity": 108}, {"time": 588, "pitch": 72, "duration": 1, "velocity": 89}, {"time": 591, "pitch": 74, "duration": 3, "velocity": 113}, {"time": 600, "pitch": 72, "duration": 1, "velocity": 91}, {"time": 603, "pitch": 74, "duration": 3, "velocity": 98}, {"time": 609, "pitch": 75, "duration": 3, "velocity": 87}, {"time": 615, "pitch": 75, "duration": 3, "velocity": 100}, {"time": 624, "pitch": 77, "duration": 2, "velocity": 96}, {"time": 627, "pitch": 79, "duration": 1, "velocity": 92}, {"time": 630, "pitch": 81, "duration": 3, "velocity": 110}, {"time": 636, "pitch": 81, "duration": 1, "velocity": 102}, {"time": 639, "pitch": 81, "duration": 3, "velocity": 113}, {"time": 648, "pitch": 82, "duration": 1, "velocity": 109}, {"time": 651, "pitch": 81, "duration": 3, "velocity": 108}, {"time": 657, "pitch": 77, "duration": 4, "velocity": 110}, {"time": 672, "pitch": 74, "duration": 1, "velocity": 104}, {"time": 675, "pitch": 81, "duration": 1, "velocity": 102}, {"time": 678, "pitch": 81, "duration": 3, "velocity": 113}, {"time": 684, "pitch": 82, "duration": 3, "velocity": 109}, {"time": 690, "pitch": 82, "duration": 2, "velocity": 116}, {"time": 696, "pitch": 81, "duration": 1, "velocity": 102}, {"time": 699, "pitch": 81, "duration": 3, "velocity": 108}, {"time": 705, "pitch": 79, "duration": 3, "velocity": 104}, {"time": 720, "pitch": 79, "duration": 2, "velocity": 113}, {"time": 723, "pitch": 81, "duration": 1, "velocity": 110}, {"time": 726, "pitch": 82, "duration": 3, "velocity": 113}, {"time": 732, "pitch": 82, "duration": 1, "velocity": 109}, {"time": 735, "pitch": 82, "duration": 3, "velocity": 116}, {"time": 744, "pitch": 79, "duration": 4, "velocity": 114}, {"time": 750, "pitch": 75, "duration": 4, "velocity": 109}, {"time": 759, "pitch": 70, "duration": 2, "velocity": 91}, {"time": 762, "pitch": 77, "duration": 2, "velocity": 87}, {"time": 765, "pitch": 79, "duration": 5, "velocity": 104}, {"time": 774, "pitch": 77, "duration": 4, "velocity": 113}, {"time": 804, "pitch": 70, "duration": 5, "velocity": 116}, {"time": 810, "pitch": 72, "duration": 4, "velocity": 102}, {"time": 816, "pitch": 75, "duration": 3, "velocity": 116}, {"time": 822, "pitch": 75, "duration": 3, "velocity": 116}, {"time": 828, "pitch": 74, "duration": 1, "velocity": 107}, {"time": 831, "pitch": 74, "duration": 4, "velocity": 116}, {"time": 852, "pitch": 74, "duration": 6, "velocity": 114}, {"time": 858, "pitch": 77, "duration": 6, "velocity": 113}, {"time": 864, "pitch": 82, "duration": 3, "velocity": 116}, {"time": 870, "pitch": 84, "duration": 4, "velocity": 116}, {"time": 876, "pitch": 82, "duration": 1, "velocity": 116}, {"time": 879, "pitch": 82, "duration": 4, "velocity": 119}, {"time": 900, "pitch": 82, "duration": 3, "velocity": 106}, {"time": 906, "pitch": 82, "duration": 3, "velocity": 119}, {"time": 912, "pitch": 84, "duration": 3, "velocity": 117}, {"time": 918, "pitch": 86, "duration": 3, "velocity": 120}, {"time": 924, "pitch": 86, "duration": 1, "velocity": 117}, {"time": 927, "pitch": 86, "duration": 4, "velocity": 123}, {"time": 942, "pitch": 86, "duration": 4, "velocity": 114}, {"time": 948, "pitch": 84, "duration": 1, "velocity": 116}, {"time": 951, "pitch": 84, "duration": 4, "velocity": 117}, {"time": 960, "pitch": 79, "duration": 3, "velocity": 110}, {"time": 966, "pitch": 82, "duration": 3, "velocity": 119}, {"time": 972, "pitch": 82, "duration": 3, "velocity": 116}, {"time": 978, "pitch": 82, "duration": 3, "velocity": 119}, {"time": 981, "pitch": 84, "duration": 4, "velocity": 104}, {"time": 990, "pitch": 81, "duration": 4, "velocity": 117}, {"time": 1002, "pitch": 81, "duration": 2, "velocity": 117}, {"time": 1005, "pitch": 79, "duration": 3, "velocity": 104}, {"time": 1008, "pitch": 77, "duration": 2, "velocity": 110}, {"time": 1011, "pitch": 79, "duration": 2, "velocity": 110}, {"time": 1014, "pitch": 81, "duration": 3, "velocity": 119}, {"time": 1020, "pitch": 81, "duration": 2, "velocity": 96}, {"time": 1026, "pitch": 81, "duration": 4, "velocity": 119}, {"time": 1032, "pitch": 82, "duration": 2, "velocity": 116}, {"time": 1035, "pitch": 81, "duration": 3, "velocity": 116}, {"time": 1041, "pitch": 77, "duration": 3, "velocity": 117}, {"time": 1056, "pitch": 74, "duration": 2, "velocity": 113}, {"time": 1059, "pitch": 81, "duration": 1, "velocity": 114}, {"time": 1062, "pitch": 81, "duration": 1, "velocity": 116}, {"time": 1065, "pitch": 82, "duration": 3, "velocity": 119}, {"time": 1071, "pitch": 82, "duration": 3, "velocity": 119}, {"time": 1080, "pitch": 84, "duration": 3, "velocity": 110}, {"time": 1086, "pitch": 84, "duration": 3, "velocity": 116}, {"time": 1092, "pitch": 82, "duration": 3, "velocity": 116}, {"time": 1104, "pitch": 74, "duration": 2, "velocity": 113}, {"time": 1107, "pitch": 77, "duration": 1, "velocity": 113}, {"time": 1110, "pitch": 77, "duration": 1, "velocity": 107}, {"time": 1113, "pitch": 79, "duration": 3, "velocity": 114}, {"time": 1119, "pitch": 79, "duration": 3, "velocity": 116}, {"time": 1134, "pitch": 79, "duration": 4, "velocity": 117}, {"time": 1140, "pitch": 82, "duration": 1, "velocity": 123}, {"time": 1143, "pitch": 82, "duration": 3, "velocity": 123}, {"time": 1158, "pitch": 82, "duration": 3, "velocity": 119}, {"time": 1164, "pitch": 84, "duration": 1, "velocity": 114}, {"time": 1167, "pitch": 84, "duration": 4, "velocity": 119}, {"time": 1176, "pitch": 82, "duration": 3, "velocity": 119}, {"time": 1182, "pitch": 77, "duration": 5, "velocity": 114}, {"time": 1188, "pitch": 70, "duration": 5, "velocity": 116}, {"time": 1194, "pitch": 72, "duration": 4, "velocity": 102}, {"time": 1200, "pitch": 75, "duration": 3, "velocity": 116}, {"time": 1206, "pitch": 75, "duration": 3, "velocity": 116}, {"time": 1212, "pitch": 74, "duration": 1, "velocity": 107}, {"time": 1215, "pitch": 74, "duration": 4, "velocity": 116}, {"time": 1236, "pitch": 74, "duration": 6, "velocity": 114}, {"time": 1242, "pitch": 77, "duration": 6, "velocity": 113}, {"time": 1248, "pitch": 82, "duration": 3, "velocity": 116}, {"time": 1254, "pitch": 84, "duration": 4, "velocity": 116}, {"time": 1260, "pitch": 82, "duration": 1, "velocity": 116}, {"time": 1263, "pitch": 82, "duration": 4, "velocity": 119}, {"time": 1284, "pitch": 82, "duration": 3, "velocity": 106}, {"time": 1290, "pitch": 82, "duration": 3, "velocity": 119}, {"time": 1296, "pitch": 84, "duration": 3, "velocity": 117}, {"time": 1302, "pitch": 86, "duration": 3, "velocity": 120}, {"time": 1308, "pitch": 86, "duration": 1, "velocity": 117}, {"time": 1311, "pitch": 86, "duration": 4, "velocity": 123}, {"time": 1326, "pitch": 86, "duration": 4, "velocity": 114}, {"time": 1332, "pitch": 84, "duration": 1, "velocity": 116}, {"time": 1335, "pitch": 84, "duration": 4, "velocity": 117}, {"time": 1344, "pitch": 79, "duration": 3, "velocity": 110}, {"time": 1350, "pitch": 82, "duration": 3, "velocity": 119}, {"time": 1356, "pitch": 82, "duration": 3, "velocity": 116}, {"time": 1362, "pitch": 82, "duration": 3, "velocity": 119}, {"time": 1365, "pitch": 84, "duration": 4, "velocity": 104}, {"time": 1374, "pitch": 81, "duration": 4, "velocity": 117}, {"time": 1386, "pitch": 81, "duration": 2, "velocity": 117}, {"time": 1389, "pitch": 79, "duration": 3, "velocity": 104}, {"time": 1392, "pitch": 77, "duration": 2, "velocity": 110}, {"time": 1395, "pitch": 79, "duration": 2, "velocity": 110}, {"time": 1398, "pitch": 81, "duration": 3, "velocity": 119}, {"time": 1404, "pitch": 81, "duration": 2, "velocity": 96}, {"time": 1410, "pitch": 81, "duration": 4, "velocity": 119}, {"time": 1416, "pitch": 82, "duration": 2, "velocity": 116}, {"time": 1419, "pitch": 81, "duration": 3, "velocity": 116}, {"time": 1425, "pitch": 77, "duration": 3, "velocity": 117}, {"time": 1440, "pitch": 74, "duration": 2, "velocity": 113}, {"time": 1443, "pitch": 81, "duration": 1, "velocity": 114}, {"time": 1446, "pitch": 81, "duration": 1, "velocity": 116}, {"time": 1449, "pitch": 82, "duration": 3, "velocity": 119}, {"time": 1455, "pitch": 82, "duration": 3, "velocity": 119}, {"time": 1464, "pitch": 81, "duration": 1, "velocity": 110}, {"time": 1467, "pitch": 84, "duration": 3, "velocity": 116}, {"time": 1473, "pitch": 82, "duration": 3, "velocity": 119}, {"time": 1485, "pitch": 77, "duration": 1, "velocity": 113}, {"time": 1488, "pitch": 77, "duration": 1, "velocity": 107}, {"time": 1491, "pitch": 77, "duration": 1, "velocity": 98}, {"time": 1494, "pitch": 77, "duration": 3, "velocity": 113}, {"time": 1500, "pitch": 75, "duration": 1, "velocity": 100}, {"time": 1503, "pitch": 75, "duration": 2, "velocity": 109}, {"time": 1533, "pitch": 75, "duration": 2, "velocity": 86}, {"time": 1536, "pitch": 74, "duration": 3, "velocity": 85}, {"time": 1539, "pitch": 72, "duration": 1, "velocity": 84}, {"time": 1542, "pitch": 72, "duration": 6, "velocity": 92}, {"time": 1548, "pitch": 70, "duration": 5, "velocity": 86}, {"time": 1731, "pitch": 67, "duration": 1, "velocity": 73}, {"time": 1734, "pitch": 72, "duration": 3, "velocity": 100}, {"time": 1740, "pitch": 70, "duration": 1, "velocity": 83}, {"time": 1743, "pitch": 72, "duration": 1, "velocity": 93}, {"time": 1755, "pitch": 70, "duration": 1, "velocity": 86}, {"time": 1758, "pitch": 72, "duration": 2, "velocity": 93}, {"time": 1761, "pitch": 74, "duration": 3, "velocity": 96}, {"time": 1779, "pitch": 70, "duration": 3, "velocity": 83}, {"time": 1782, "pitch": 77, "duration": 4, "velocity": 91}, {"time": 1788, "pitch": 69, "duration": 1, "velocity": 83}, {"time": 1791, "pitch": 69, "duration": 5, "velocity": 87}, {"time": 1800, "pitch": 70, "duration": 2, "velocity": 83}, {"time": 1803, "pitch": 72, "duration": 3, "velocity": 87}, {"time": 1812, "pitch": 70, "duration": 2, "velocity": 81}, {"time": 1827, "pitch": 67, "duration": 2, "velocity": 82}, {"time": 1830, "pitch": 74, "duration": 3, "velocity": 94}, {"time": 1836, "pitch": 72, "duration": 2, "velocity": 88}, {"time": 1839, "pitch": 74, "duration": 3, "velocity": 92}, {"time": 1848, "pitch": 72, "duration": 2, "velocity": 81}, {"time": 1851, "pitch": 74, "duration": 3, "velocity": 86}, {"time": 1860, "pitch": 72, "duration": 2, "velocity": 87}, {"time": 1863, "pitch": 67, "duration": 3, "velocity": 83}, {"time": 1875, "pitch": 67, "duration": 1, "velocity": 86}, {"time": 1878, "pitch": 74, "duration": 3, "velocity": 108}, {"time": 1884, "pitch": 72, "duration": 1, "velocity": 89}, {"time": 1887, "pitch": 74, "duration": 3, "velocity": 113}, {"time": 1896, "pitch": 72, "duration": 1, "velocity": 91}, {"time": 1899, "pitch": 74, "duration": 3, "velocity": 98}, {"time": 1905, "pitch": 75, "duration": 3, "velocity": 87}, {"time": 1911, "pitch": 75, "duration": 3, "velocity": 100}, {"time": 1920, "pitch": 77, "duration": 2, "velocity": 96}, {"time": 1923, "pitch": 79, "duration": 1, "velocity": 92}, {"time": 1926, "pitch": 81, "duration": 3, "velocity": 110}, {"time": 1932, "pitch": 81, "duration": 1, "velocity": 102}, {"time": 1935, "pitch": 81, "duration": 3, "velocity": 113}, {"time": 1944, "pitch": 82, "duration": 1, "velocity": 109}, {"time": 1947, "pitch": 81, "duration": 3, "velocity": 108}, {"time": 1953, "pitch": 77, "duration": 4, "velocity": 110}, {"time": 1968, "pitch": 74, "duration": 1, "velocity": 104}, {"time": 1971, "pitch": 81, "duration": 1, "velocity": 102}, {"time": 1974, "pitch": 81, "duration": 3, "velocity": 113}, {"time": 1980, "pitch": 82, "duration": 3, "velocity": 109}, {"time": 1986, "pitch": 82, "duration": 2, "velocity": 116}, {"time": 1992, "pitch": 81, "duration": 1, "velocity": 102}, {"time": 1995, "pitch": 81, "duration": 3, "velocity": 108}, {"time": 2001, "pitch": 79, "duration": 3, "velocity": 104}, {"time": 2016, "pitch": 79, "duration": 2, "velocity": 113}, {"time": 2019, "pitch": 81, "duration": 1, "velocity": 110}, {"time": 2022, "pitch": 82, "duration": 3, "velocity": 113}, {"time": 2028, "pitch": 82, "duration": 1, "velocity": 109}, {"time": 2031, "pitch": 82, "duration": 3, "velocity": 116}, {"time": 2040, "pitch": 79, "duration": 4, "velocity": 114}, {"time": 2046, "pitch": 75, "duration": 4, "velocity": 109}, {"time": 2055, "pitch": 70, "duration": 2, "velocity": 91}, {"time": 2058, "pitch": 77, "duration": 2, "velocity": 87}, {"time": 2061, "pitch": 79, "duration": 5, "velocity": 104}, {"time": 2070, "pitch": 77, "duration": 4, "velocity": 113}, {"time": 2100, "pitch": 70, "duration": 5, "velocity": 116}, {"time": 2106, "pitch": 72, "duration": 4, "velocity": 102}, {"time": 2112, "pitch": 75, "duration": 3, "velocity": 116}, {"time": 2118, "pitch": 75, "duration": 3, "velocity": 116}, {"time": 2124, "pitch": 74, "duration": 1, "velocity": 107}, {"time": 2127, "pitch": 74, "duration": 4, "velocity": 116}, {"time": 2148, "pitch": 74, "duration": 6, "velocity": 114}, {"time": 2154, "pitch": 77, "duration": 6, "velocity": 113}, {"time": 2160, "pitch": 82, "duration": 3, "velocity": 116}, {"time": 2166, "pitch": 84, "duration": 4, "velocity": 116}, {"time": 2172, "pitch": 82, "duration": 1, "velocity": 116}, {"time": 2175, "pitch": 82, "duration": 4, "velocity": 119}, {"time": 2196, "pitch": 82, "duration": 3, "velocity": 106}, {"time": 2202, "pitch": 82, "duration": 3, "velocity": 119}, {"time": 2208, "pitch": 84, "duration": 3, "velocity": 117}, {"time": 2214, "pitch": 86, "duration": 3, "velocity": 120}, {"time": 2220, "pitch": 86, "duration": 1, "velocity": 117}, {"time": 2223, "pitch": 86, "duration": 4, "velocity": 123}, {"time": 2238, "pitch": 86, "duration": 4, "velocity": 114}, {"time": 2244, "pitch": 84, "duration": 1, "velocity": 116}, {"time": 2247, "pitch": 84, "duration": 4, "velocity": 117}, {"time": 2256, "pitch": 79, "duration": 3, "velocity": 110}, {"time": 2262, "pitch": 82, "duration": 3, "velocity": 119}, {"time": 2268, "pitch": 82, "duration": 3, "velocity": 116}, {"time": 2274, "pitch": 82, "duration": 3, "velocity": 119}, {"time": 2277, "pitch": 84, "duration": 4, "velocity": 104}, {"time": 2286, "pitch": 81, "duration": 4, "velocity": 117}, {"time": 2298, "pitch": 81, "duration": 2, "velocity": 117}, {"time": 2301, "pitch": 79, "duration": 3, "velocity": 104}, {"time": 2304, "pitch": 77, "duration": 2, "velocity": 110}, {"time": 2307, "pitch": 79, "duration": 2, "velocity": 110}, {"time": 2310, "pitch": 81, "duration": 3, "velocity": 119}, {"time": 2316, "pitch": 81, "duration": 2, "velocity": 96}, {"time": 2322, "pitch": 81, "duration": 4, "velocity": 119}, {"time": 2328, "pitch": 82, "duration": 2, "velocity": 116}, {"time": 2331, "pitch": 81, "duration": 3, "velocity": 116}, {"time": 2337, "pitch": 77, "duration": 3, "velocity": 117}, {"time": 2352, "pitch": 74, "duration": 2, "velocity": 113}, {"time": 2355, "pitch": 81, "duration": 1, "velocity": 114}, {"time": 2358, "pitch": 81, "duration": 1, "velocity": 116}, {"time": 2361, "pitch": 82, "duration": 3, "velocity": 119}, {"time": 2367, "pitch": 82, "duration": 3, "velocity": 119}, {"time": 2376, "pitch": 84, "duration": 3, "velocity": 110}, {"time": 2382, "pitch": 84, "duration": 3, "velocity": 116}, {"time": 2388, "pitch": 82, "duration": 3, "velocity": 116}, {"time": 2400, "pitch": 74, "duration": 2, "velocity": 113}, {"time": 2403, "pitch": 77, "duration": 1, "velocity": 113}, {"time": 2406, "pitch": 77, "duration": 1, "velocity": 107}, {"time": 2409, "pitch": 79, "duration": 3, "velocity": 114}, {"time": 2415, "pitch": 79, "duration": 3, "velocity": 116}, {"time": 2430, "pitch": 79, "duration": 4, "velocity": 117}, {"time": 2436, "pitch": 82, "duration": 1, "velocity": 123}, {"time": 2439, "pitch": 82, "duration": 3, "velocity": 123}, {"time": 2454, "pitch": 82, "duration": 3, "velocity": 119}, {"time": 2460, "pitch": 84, "duration": 1, "velocity": 114}, {"time": 2463, "pitch": 84, "duration": 4, "velocity": 119}, {"time": 2472, "pitch": 82, "duration": 3, "velocity": 119}, {"time": 2478, "pitch": 77, "duration": 5, "velocity": 114}, {"time": 2484, "pitch": 70, "duration": 5, "velocity": 116}, {"time": 2490, "pitch": 72, "duration": 4, "velocity": 102}, {"time": 2496, "pitch": 75, "duration": 3, "velocity": 116}, {"time": 2502, "pitch": 75, "duration": 3, "velocity": 116}, {"time": 2508, "pitch": 74, "duration": 1, "velocity": 107}, {"time": 2511, "pitch": 74, "duration": 4, "velocity": 116}, {"time": 2532, "pitch": 74, "duration": 6, "velocity": 114}, {"time": 2538, "pitch": 77, "duration": 6, "velocity": 113}, {"time": 2544, "pitch": 82, "duration": 3, "velocity": 116}, {"time": 2550, "pitch": 84, "duration": 4, "velocity": 116}, {"time": 2556, "pitch": 82, "duration": 1, "velocity": 116}, {"time": 2559, "pitch": 82, "duration": 4, "velocity": 119}, {"time": 2580, "pitch": 82, "duration": 3, "velocity": 106}, {"time": 2586, "pitch": 82, "duration": 3, "velocity": 119}, {"time": 2592, "pitch": 84, "duration": 3, "velocity": 117}, {"time": 2598, "pitch": 86, "duration": 3, "velocity": 120}, {"time": 2604, "pitch": 86, "duration": 1, "velocity": 117}, {"time": 2607, "pitch": 86, "duration": 4, "velocity": 123}, {"time": 2622, "pitch": 86, "duration": 4, "velocity": 114}, {"time": 2628, "pitch": 84, "duration": 1, "velocity": 116}, {"time": 2631, "pitch": 84, "duration": 4, "velocity": 117}, {"time": 2640, "pitch": 79, "duration": 3, "velocity": 110}, {"time": 2646, "pitch": 82, "duration": 3, "velocity": 119}, {"time": 2652, "pitch": 82, "duration": 3, "velocity": 116}, {"time": 2658, "pitch": 82, "duration": 3, "velocity": 119}, {"time": 2661, "pitch": 84, "duration": 4, "velocity": 104}, {"time": 2670, "pitch": 81, "duration": 4, "velocity": 117}, {"time": 2682, "pitch": 81, "duration": 2, "velocity": 117}, {"time": 2685, "pitch": 79, "duration": 3, "velocity": 104}, {"time": 2688, "pitch": 77, "duration": 2, "velocity": 110}, {"time": 2691, "pitch": 79, "duration": 2, "velocity": 110}, {"time": 2694, "pitch": 81, "duration": 3, "velocity": 119}, {"time": 2700, "pitch": 81, "duration": 2, "velocity": 96}, {"time": 2706, "pitch": 81, "duration": 4, "velocity": 119}, {"time": 2712, "pitch": 82, "duration": 2, "velocity": 116}, {"time": 2715, "pitch": 81, "duration": 3, "velocity": 116}, {"time": 2721, "pitch": 77, "duration": 3, "velocity": 117}, {"time": 2736, "pitch": 74, "duration": 2, "velocity": 113}, {"time": 2739, "pitch": 81, "duration": 1, "velocity": 114}, {"time": 2742, "pitch": 81, "duration": 1, "velocity": 116}, {"time": 2745, "pitch": 82, "duration": 3, "velocity": 119}, {"time": 2751, "pitch": 82, "duration": 3, "velocity": 119}, {"time": 2760, "pitch": 81, "duration": 1, "velocity": 110}, {"time": 2763, "pitch": 84, "duration": 3, "velocity": 116}, {"time": 2769, "pitch": 82, "duration": 3, "velocity": 119}, {"time": 2781, "pitch": 77, "duration": 1, "velocity": 113}, {"time": 2784, "pitch": 77, "duration": 1, "velocity": 107}, {"time": 2787, "pitch": 77, "duration": 1, "velocity": 98}, {"time": 2790, "pitch": 77, "duration": 3, "velocity": 113}, {"time": 2796, "pitch": 79, "duration": 1, "velocity": 100}, {"time": 2799, "pitch": 79, "duration": 2, "velocity": 109}, {"time": 2829, "pitch": 86, "duration": 3, "velocity": 110}, {"time": 2832, "pitch": 84, "duration": 3, "velocity": 104}, {"time": 2835, "pitch": 82, "duration": 2, "velocity": 108}, {"time": 2838, "pitch": 84, "duration": 4, "velocity": 113}, {"time": 2844, "pitch": 86, "duration": 12, "velocity": 119}, {"time": 2856, "pitch": 82, "duration": 6, "velocity": 116}, {"time": 2916, "pitch": 70, "duration": 5, "velocity": 116}, {"time": 2922, "pitch": 72, "duration": 4, "velocity": 102}, {"time": 2928, "pitch": 75, "duration": 3, "velocity": 116}, {"time": 2934, "pitch": 75, "duration": 3, "velocity": 116}, {"time": 2940, "pitch": 74, "duration": 1, "velocity": 107}, {"time": 2943, "pitch": 74, "duration": 4, "velocity": 116}, {"time": 2964, "pitch": 74, "duration": 6, "velocity": 114}, {"time": 2970, "pitch": 77, "duration": 6, "velocity": 113}, {"time": 2976, "pitch": 82, "duration": 3, "velocity": 116}, {"time": 2982, "pitch": 84, "duration": 4, "velocity": 116}, {"time": 2988, "pitch": 82, "duration": 1, "velocity": 116}, {"time": 2991, "pitch": 82, "duration": 4, "velocity": 119}, {"time": 3012, "pitch": 82, "duration": 3, "velocity": 106}, {"time": 3018, "pitch": 82, "duration": 3, "velocity": 119}, {"time": 3024, "pitch": 84, "duration": 3, "velocity": 117}, {"time": 3030, "pitch": 86, "duration": 3, "velocity": 120}, {"time": 3036, "pitch": 86, "duration": 1, "velocity": 117}, {"time": 3039, "pitch": 86, "duration": 4, "velocity": 123}, {"time": 3054, "pitch": 86, "duration": 4, "velocity": 114}, {"time": 3060, "pitch": 84, "duration": 1, "velocity": 116}, {"time": 3063, "pitch": 84, "duration": 4, "velocity": 117}, {"time": 3072, "pitch": 79, "duration": 3, "velocity": 110}, {"time": 3078, "pitch": 82, "duration": 3, "velocity": 119}, {"time": 3084, "pitch": 82, "duration": 3, "velocity": 116}, {"time": 3090, "pitch": 82, "duration": 3, "velocity": 119}, {"time": 3093, "pitch": 84, "duration": 4, "velocity": 104}, {"time": 3102, "pitch": 81, "duration": 4, "velocity": 117}, {"time": 3114, "pitch": 81, "duration": 2, "velocity": 117}, {"time": 3117, "pitch": 79, "duration": 3, "velocity": 104}, {"time": 3120, "pitch": 77, "duration": 2, "velocity": 110}, {"time": 3123, "pitch": 79, "duration": 2, "velocity": 110}, {"time": 3126, "pitch": 81, "duration": 3, "velocity": 119}, {"time": 3132, "pitch": 81, "duration": 2, "velocity": 96}, {"time": 3138, "pitch": 81, "duration": 4, "velocity": 119}, {"time": 3144, "pitch": 82, "duration": 2, "velocity": 116}, {"time": 3147, "pitch": 81, "duration": 3, "velocity": 116}, {"time": 3153, "pitch": 77, "duration": 3, "velocity": 117}, {"time": 3168, "pitch": 74, "duration": 2, "velocity": 113}, {"time": 3171, "pitch": 81, "duration": 1, "velocity": 114}, {"time": 3174, "pitch": 81, "duration": 1, "velocity": 116}, {"time": 3177, "pitch": 82, "duration": 3, "velocity": 119}, {"time": 3183, "pitch": 82, "duration": 3, "velocity": 119}, {"time": 3192, "pitch": 84, "duration": 3, "velocity": 110}, {"time": 3198, "pitch": 84, "duration": 3, "velocity": 116}, {"time": 3204, "pitch": 82, "duration": 3, "velocity": 116}, {"time": 3213, "pitch": 77, "duration": 1, "velocity": 104}, {"time": 3216, "pitch": 77, "duration": 1, "velocity": 108}, {"time": 3219, "pitch": 77, "duration": 1, "velocity": 107}, {"time": 3222, "pitch": 77, "duration": 3, "velocity": 117}, {"time": 3228, "pitch": 75, "duration": 1, "velocity": 110}, {"time": 3231, "pitch": 75, "duration": 15, "velocity": 116}, {"time": 3261, "pitch": 75, "duration": 2, "velocity": 102}, {"time": 3264, "pitch": 74, "duration": 2, "velocity": 87}, {"time": 3267, "pitch": 70, "duration": 2, "velocity": 89}, {"time": 3270, "pitch": 72, "duration": 4, "velocity": 92}, {"time": 3276, "pitch": 72, "duration": 4, "velocity": 87}, {"time": 3282, "pitch": 74, "duration": 5, "velocity": 88}, {"time": 3288, "pitch": 70, "duration": 5, "velocity": 89}, {"time": 3309, "pitch": 70, "duration": 3, "velocity": 88}, {"time": 3312, "pitch": 72, "duration": 2, "velocity": 87}, {"time": 3315, "pitch": 74, "duration": 2, "velocity": 88}, {"time": 3318, "pitch": 74, "duration": 4, "velocity": 94}, {"time": 3324, "pitch": 75, "duration": 3, "velocity": 88}, {"time": 3330, "pitch": 75, "duration": 8, "velocity": 91}, {"time": 3369, "pitch": 74, "duration": 4, "velocity": 84}, {"time": 3375, "pitch": 72, "duration": 3, "velocity": 86}, {"time": 3381, "pitch": 70, "duration": 6, "velocity": 87}, {"time": 3387, "pitch": 72, "duration": 6, "velocity": 85}, {"time": 3408, "pitch": 70, "duration": 3, "velocity": 87}, {"time": 3414, "pitch": 70, "duration": 6, "velocity": 84}]}, {"program": 0, "is_drum": false, "name": "BRIDGE", "notes": [{"time": 54, "pitch": 62, "duration": 36, "velocity": 98}, {"time": 90, "pitch": 65, "duration": 9, "velocity": 87}, {"time": 99, "pitch": 67, "duration": 3, "velocity": 87}, {"time": 102, "pitch": 62, "duration": 24, "velocity": 87}, {"time": 126, "pitch": 60, "duration": 12, "velocity": 86}, {"time": 138, "pitch": 70, "duration": 9, "velocity": 98}, {"time": 147, "pitch": 72, "duration": 3, "velocity": 102}, {"time": 150, "pitch": 74, "duration": 36, "velocity": 110}, {"time": 186, "pitch": 70, "duration": 9, "velocity": 91}, {"time": 195, "pitch": 72, "duration": 3, "velocity": 98}, {"time": 198, "pitch": 74, "duration": 18, "velocity": 100}, {"time": 216, "pitch": 75, "duration": 30, "velocity": 88}, {"time": 329, "pitch": 62, "duration": 4, "velocity": 84}, {"time": 332, "pitch": 60, "duration": 3, "velocity": 65}, {"time": 335, "pitch": 58, "duration": 3, "velocity": 56}, {"time": 338, "pitch": 53, "duration": 3, "velocity": 44}, {"time": 377, "pitch": 55, "duration": 3, "velocity": 85}, {"time": 380, "pitch": 57, "duration": 3, "velocity": 58}, {"time": 383, "pitch": 58, "duration": 2, "velocity": 63}, {"time": 425, "pitch": 58, "duration": 6, "velocity": 80}, {"time": 428, "pitch": 51, "duration": 3, "velocity": 71}, {"time": 431, "pitch": 53, "duration": 1, "velocity": 65}, {"time": 434, "pitch": 65, "duration": 4, "velocity": 83}, {"time": 438, "pitch": 60, "duration": 12, "velocity": 59}, {"time": 474, "pitch": 62, "duration": 3, "velocity": 87}, {"time": 476, "pitch": 63, "duration": 4, "velocity": 63}, {"time": 479, "pitch": 65, "duration": 6, "velocity": 55}, {"time": 485, "pitch": 58, "duration": 13, "velocity": 51}, {"time": 515, "pitch": 69, "duration": 4, "velocity": 68}, {"time": 518, "pitch": 70, "duration": 3, "velocity": 60}, {"time": 521, "pitch": 65, "duration": 3, "velocity": 62}, {"time": 524, "pitch": 58, "duration": 3, "velocity": 59}, {"time": 527, "pitch": 60, "duration": 3, "velocity": 54}, {"time": 530, "pitch": 65, "duration": 4, "velocity": 60}, {"time": 566, "pitch": 55, "duration": 2, "velocity": 94}, {"time": 569, "pitch": 55, "duration": 3, "velocity": 100}, {"time": 572, "pitch": 57, "duration": 3, "velocity": 85}, {"time": 575, "pitch": 58, "duration": 1, "velocity": 84}, {"time": 618, "pitch": 77, "duration": 24, "velocity": 104}, {"time": 618, "pitch": 89, "duration": 24, "velocity": 104}, {"time": 642, "pitch": 74, "duration": 11, "velocity": 94}, {"time": 642, "pitch": 86, "duration": 12, "velocity": 71}, {"time": 653, "pitch": 69, "duration": 12, "velocity": 52}, {"time": 653, "pitch": 81, "duration": 12, "velocity": 67}, {"time": 667, "pitch": 67, "duration": 6, "velocity": 55}, {"time": 667, "pitch": 79, "duration": 6, "velocity": 61}, {"time": 671, "pitch": 69, "duration": 5, "velocity": 71}, {"time": 671, "pitch": 81, "duration": 5, "velocity": 75}, {"time": 677, "pitch": 79, "duration": 36, "velocity": 76}, {"time": 677, "pitch": 67, "duration": 35, "velocity": 73}, {"time": 713, "pitch": 81, "duration": 7, "velocity": 67}, {"time": 713, "pitch": 69, "duration": 4, "velocity": 55}, {"time": 719, "pitch": 82, "duration": 7, "velocity": 79}, {"time": 719, "pitch": 70, "duration": 4, "velocity": 62}, {"time": 726, "pitch": 79, "duration": 23, "velocity": 63}, {"time": 726, "pitch": 65, "duration": 23, "velocity": 49}, {"time": 762, "pitch": 79, "duration": 12, "velocity": 73}, {"time": 762, "pitch": 67, "duration": 10, "velocity": 67}, {"time": 774, "pitch": 77, "duration": 24, "velocity": 71}, {"time": 774, "pitch": 65, "duration": 24, "velocity": 61}, {"time": 798, "pitch": 58, "duration": 5, "velocity": 88}, {"time": 800, "pitch": 51, "duration": 3, "velocity": 59}, {"time": 803, "pitch": 53, "duration": 7, "velocity": 67}, {"time": 900, "pitch": 69, "duration": 6, "velocity": 107}, {"time": 906, "pitch": 70, "duration": 5, "velocity": 110}, {"time": 912, "pitch": 74, "duration": 5, "velocity": 114}, {"time": 918, "pitch": 77, "duration": 12, "velocity": 120}, {"time": 930, "pitch": 75, "duration": 6, "velocity": 108}, {"time": 936, "pitch": 74, "duration": 5, "velocity": 113}, {"time": 942, "pitch": 70, "duration": 4, "velocity": 114}, {"time": 996, "pitch": 77, "duration": 5, "velocity": 113}, {"time": 1002, "pitch": 79, "duration": 5, "velocity": 110}, {"time": 1008, "pitch": 81, "duration": 3, "velocity": 107}, {"time": 1011, "pitch": 82, "duration": 2, "velocity": 110}, {"time": 1014, "pitch": 84, "duration": 8, "velocity": 117}, {"time": 1044, "pitch": 77, "duration": 6, "velocity": 116}, {"time": 1050, "pitch": 79, "duration": 6, "velocity": 114}, {"time": 1056, "pitch": 81, "duration": 6, "velocity": 116}, {"time": 1062, "pitch": 82, "duration": 8, "velocity": 117}, {"time": 1092, "pitch": 70, "duration": 6, "velocity": 114}, {"time": 1098, "pitch": 72, "duration": 6, "velocity": 113}, {"time": 1104, "pitch": 74, "duration": 5, "velocity": 117}, {"time": 1110, "pitch": 77, "duration": 13, "velocity": 117}, {"time": 1122, "pitch": 75, "duration": 6, "velocity": 110}, {"time": 1128, "pitch": 74, "duration": 5, "velocity": 116}, {"time": 1134, "pitch": 75, "duration": 9, "velocity": 107}, {"time": 1185, "pitch": 77, "duration": 3, "velocity": 89}, {"time": 1188, "pitch": 79, "duration": 3, "velocity": 107}, {"time": 1191, "pitch": 81, "duration": 2, "velocity": 107}, {"time": 1194, "pitch": 82, "duration": 3, "velocity": 107}, {"time": 1197, "pitch": 84, "duration": 3, "velocity": 114}, {"time": 1200, "pitch": 86, "duration": 2, "velocity": 116}, {"time": 1203, "pitch": 87, "duration": 2, "velocity": 117}, {"time": 1206, "pitch": 89, "duration": 8, "velocity": 119}, {"time": 1266, "pitch": 87, "duration": 5, "velocity": 117}, {"time": 1272, "pitch": 86, "duration": 5, "velocity": 116}, {"time": 1278, "pitch": 82, "duration": 5, "velocity": 117}, {"time": 1290, "pitch": 77, "duration": 6, "velocity": 113}, {"time": 1296, "pitch": 79, "duration": 5, "velocity": 113}, {"time": 1302, "pitch": 82, "duration": 7, "velocity": 117}, {"time": 1374, "pitch": 77, "duration": 8, "velocity": 100}, {"time": 1383, "pitch": 77, "duration": 2, "velocity": 94}, {"time": 1386, "pitch": 79, "duration": 3, "velocity": 108}, {"time": 1389, "pitch": 81, "duration": 2, "velocity": 96}, {"time": 1392, "pitch": 82, "duration": 2, "velocity": 100}, {"time": 1395, "pitch": 84, "duration": 3, "velocity": 100}, {"time": 1398, "pitch": 89, "duration": 9, "velocity": 114}, {"time": 1434, "pitch": 81, "duration": 9, "velocity": 114}, {"time": 1446, "pitch": 82, "duration": 6, "velocity": 114}, {"time": 1542, "pitch": 62, "duration": 36, "velocity": 98}, {"time": 1578, "pitch": 65, "duration": 8, "velocity": 87}, {"time": 1587, "pitch": 67, "duration": 3, "velocity": 87}, {"time": 1590, "pitch": 62, "duration": 24, "velocity": 87}, {"time": 1614, "pitch": 60, "duration": 10, "velocity": 86}, {"time": 1626, "pitch": 70, "duration": 8, "velocity": 98}, {"time": 1635, "pitch": 72, "duration": 3, "velocity": 102}, {"time": 1638, "pitch": 74, "duration": 2, "velocity": 110}, {"time": 1674, "pitch": 70, "duration": 9, "velocity": 91}, {"time": 1683, "pitch": 72, "duration": 3, "velocity": 98}, {"time": 1686, "pitch": 74, "duration": 18, "velocity": 100}, {"time": 1704, "pitch": 75, "duration": 28, "velocity": 88}, {"time": 2195, "pitch": 69, "duration": 6, "velocity": 107}, {"time": 2201, "pitch": 70, "duration": 6, "velocity": 110}, {"time": 2207, "pitch": 74, "duration": 6, "velocity": 114}, {"time": 2213, "pitch": 77, "duration": 12, "velocity": 120}, {"time": 2225, "pitch": 75, "duration": 7, "velocity": 108}, {"time": 2231, "pitch": 74, "duration": 6, "velocity": 113}, {"time": 2237, "pitch": 70, "duration": 5, "velocity": 114}, {"time": 2291, "pitch": 77, "duration": 6, "velocity": 113}, {"time": 2297, "pitch": 79, "duration": 6, "velocity": 110}, {"time": 2303, "pitch": 81, "duration": 3, "velocity": 107}, {"time": 2306, "pitch": 82, "duration": 3, "velocity": 110}, {"time": 2309, "pitch": 84, "duration": 9, "velocity": 117}, {"time": 2339, "pitch": 77, "duration": 7, "velocity": 116}, {"time": 2345, "pitch": 79, "duration": 6, "velocity": 114}, {"time": 2351, "pitch": 81, "duration": 7, "velocity": 116}, {"time": 2357, "pitch": 82, "duration": 9, "velocity": 117}, {"time": 2387, "pitch": 70, "duration": 7, "velocity": 114}, {"time": 2393, "pitch": 72, "duration": 6, "velocity": 113}, {"time": 2399, "pitch": 74, "duration": 6, "velocity": 117}, {"time": 2405, "pitch": 77, "duration": 14, "velocity": 117}, {"time": 2417, "pitch": 75, "duration": 7, "velocity": 110}, {"time": 2423, "pitch": 74, "duration": 6, "velocity": 116}, {"time": 2429, "pitch": 75, "duration": 10, "velocity": 107}, {"time": 2480, "pitch": 77, "duration": 4, "velocity": 89}, {"time": 2483, "pitch": 79, "duration": 4, "velocity": 107}, {"time": 2486, "pitch": 81, "duration": 3, "velocity": 107}, {"time": 2489, "pitch": 82, "duration": 4, "velocity": 107}, {"time": 2492, "pitch": 84, "duration": 3, "velocity": 114}, {"time": 2495, "pitch": 86, "duration": 2, "velocity": 116}, {"time": 2498, "pitch": 87, "duration": 3, "velocity": 117}, {"time": 2501, "pitch": 89, "duration": 9, "velocity": 119}, {"time": 2561, "pitch": 87, "duration": 5, "velocity": 117}, {"time": 2567, "pitch": 86, "duration": 6, "velocity": 116}, {"time": 2573, "pitch": 82, "duration": 6, "velocity": 117}, {"time": 2585, "pitch": 77, "duration": 6, "velocity": 113}, {"time": 2591, "pitch": 79, "duration": 6, "velocity": 113}, {"time": 2597, "pitch": 82, "duration": 7, "velocity": 117}, {"time": 2669, "pitch": 77, "duration": 8, "velocity": 100}, {"time": 2678, "pitch": 77, "duration": 3, "velocity": 94}, {"time": 2681, "pitch": 79, "duration": 3, "velocity": 108}, {"time": 2684, "pitch": 81, "duration": 3, "velocity": 96}, {"time": 2687, "pitch": 82, "duration": 3, "velocity": 100}, {"time": 2690, "pitch": 84, "duration": 3, "velocity": 100}, {"time": 2693, "pitch": 89, "duration": 10, "velocity": 114}, {"time": 2729, "pitch": 81, "duration": 10, "velocity": 114}, {"time": 2741, "pitch": 82, "duration": 6, "velocity": 114}, {"time": 2807, "pitch": 72, "duration": 1, "velocity": 127}, {"time": 2810, "pitch": 74, "duration": 1, "velocity": 127}, {"time": 2813, "pitch": 75, "duration": 2, "velocity": 127}, {"time": 2818, "pitch": 77, "duration": 2, "velocity": 127}, {"time": 2822, "pitch": 87, "duration": 2, "velocity": 127}, {"time": 2825, "pitch": 89, "duration": 5, "velocity": 127}, {"time": 3125, "pitch": 77, "duration": 34, "velocity": 119}, {"time": 3161, "pitch": 77, "duration": 4, "velocity": 116}, {"time": 3164, "pitch": 79, "duration": 4, "velocity": 108}, {"time": 3167, "pitch": 81, "duration": 3, "velocity": 114}, {"time": 3170, "pitch": 82, "duration": 3, "velocity": 116}, {"time": 3173, "pitch": 84, "duration": 36, "velocity": 117}, {"time": 3209, "pitch": 81, "duration": 6, "velocity": 113}, {"time": 3215, "pitch": 77, "duration": 6, "velocity": 113}, {"time": 3221, "pitch": 79, "duration": 17, "velocity": 119}]}, {"program": 0, "is_drum": false, "name": "PIANO", "notes": [{"time": 54, "pitch": 46, "duration": 22, "velocity": 76}, {"time": 54, "pitch": 62, "duration": 8, "velocity": 82}, {"time": 54, "pitch": 65, "duration": 9, "velocity": 82}, {"time": 54, "pitch": 70, "duration": 7, "velocity": 80}, {"time": 66, "pitch": 62, "duration": 9, "velocity": 74}, {"time": 66, "pitch": 65, "duration": 10, "velocity": 78}, {"time": 66, "pitch": 70, "duration": 8, "velocity": 77}, {"time": 78, "pitch": 45, "duration": 23, "velocity": 77}, {"time": 78, "pitch": 62, "duration": 9, "velocity": 71}, {"time": 78, "pitch": 65, "duration": 9, "velocity": 73}, {"time": 78, "pitch": 70, "duration": 9, "velocity": 74}, {"time": 90, "pitch": 62, "duration": 9, "velocity": 74}, {"time": 90, "pitch": 65, "duration": 9, "velocity": 78}, {"time": 90, "pitch": 70, "duration": 8, "velocity": 73}, {"time": 102, "pitch": 43, "duration": 22, "velocity": 77}, {"time": 102, "pitch": 55, "duration": 20, "velocity": 75}, {"time": 102, "pitch": 62, "duration": 10, "velocity": 74}, {"time": 102, "pitch": 67, "duration": 9, "velocity": 81}, {"time": 102, "pitch": 70, "duration": 9, "velocity": 76}, {"time": 114, "pitch": 62, "duration": 9, "velocity": 74}, {"time": 114, "pitch": 67, "duration": 10, "velocity": 77}, {"time": 114, "pitch": 70, "duration": 9, "velocity": 73}, {"time": 126, "pitch": 42, "duration": 18, "velocity": 75}, {"time": 126, "pitch": 62, "duration": 22, "velocity": 75}, {"time": 126, "pitch": 66, "duration": 19, "velocity": 80}, {"time": 126, "pitch": 69, "duration": 17, "velocity": 62}, {"time": 150, "pitch": 46, "duration": 24, "velocity": 79}, {"time": 150, "pitch": 62, "duration": 9, "velocity": 72}, {"time": 150, "pitch": 65, "duration": 9, "velocity": 77}, {"time": 150, "pitch": 70, "duration": 8, "velocity": 80}, {"time": 162, "pitch": 62, "duration": 9, "velocity": 72}, {"time": 162, "pitch": 65, "duration": 9, "velocity": 78}, {"time": 162, "pitch": 70, "duration": 8, "velocity": 76}, {"time": 174, "pitch": 45, "duration": 23, "velocity": 74}, {"time": 174, "pitch": 60, "duration": 10, "velocity": 73}, {"time": 174, "pitch": 65, "duration": 9, "velocity": 70}, {"time": 174, "pitch": 69, "duration": 9, "velocity": 78}, {"time": 186, "pitch": 60, "duration": 8, "velocity": 76}, {"time": 186, "pitch": 65, "duration": 9, "velocity": 79}, {"time": 186, "pitch": 69, "duration": 8, "velocity": 77}, {"time": 198, "pitch": 43, "duration": 12, "velocity": 74}, {"time": 198, "pitch": 55, "duration": 12, "velocity": 73}, {"time": 198, "pitch": 58, "duration": 10, "velocity": 65}, {"time": 198, "pitch": 62, "duration": 10, "velocity": 74}, {"time": 198, "pitch": 67, "duration": 9, "velocity": 77}, {"time": 210, "pitch": 58, "duration": 1, "velocity": 78}, {"time": 210, "pitch": 62, "duration": 1, "velocity": 82}, {"time": 210, "pitch": 67, "duration": 1, "velocity": 86}, {"time": 216, "pitch": 42, "duration": 16, "velocity": 74}, {"time": 216, "pitch": 54, "duration": 16, "velocity": 78}, {"time": 216, "pitch": 58, "duration": 16, "velocity": 78}, {"time": 216, "pitch": 63, "duration": 17, "velocity": 82}, {"time": 216, "pitch": 66, "duration": 17, "velocity": 82}, {"time": 246, "pitch": 46, "duration": 46, "velocity": 74}, {"time": 246, "pitch": 58, "duration": 10, "velocity": 70}, {"time": 246, "pitch": 62, "duration": 10, "velocity": 74}, {"time": 246, "pitch": 65, "duration": 9, "velocity": 73}, {"time": 258, "pitch": 58, "duration": 9, "velocity": 64}, {"time": 258, "pitch": 62, "duration": 9, "velocity": 72}, {"time": 258, "pitch": 65, "duration": 8, "velocity": 77}, {"time": 270, "pitch": 58, "duration": 9, "velocity": 62}, {"time": 270, "pitch": 62, "duration": 9, "velocity": 66}, {"time": 270, "pitch": 65, "duration": 8, "velocity": 72}, {"time": 282, "pitch": 58, "duration": 9, "velocity": 67}, {"time": 282, "pitch": 62, "duration": 10, "velocity": 71}, {"time": 282, "pitch": 65, "duration": 8, "velocity": 77}, {"time": 294, "pitch": 43, "duration": 43, "velocity": 71}, {"time": 294, "pitch": 55, "duration": 42, "velocity": 70}, {"time": 294, "pitch": 58, "duration": 9, "velocity": 74}, {"time": 294, "pitch": 62, "duration": 9, "velocity": 38}, {"time": 294, "pitch": 67, "duration": 9, "velocity": 79}, {"time": 306, "pitch": 58, "duration": 9, "velocity": 74}, {"time": 306, "pitch": 62, "duration": 9, "velocity": 75}, {"time": 306, "pitch": 67, "duration": 9, "velocity": 76}, {"time": 318, "pitch": 58, "duration": 8, "velocity": 65}, {"time": 318, "pitch": 62, "duration": 9, "velocity": 65}, {"time": 318, "pitch": 67, "duration": 9, "velocity": 64}, {"time": 330, "pitch": 58, "duration": 8, "velocity": 68}, {"time": 330, "pitch": 62, "duration": 8, "velocity": 71}, {"time": 330, "pitch": 67, "duration": 9, "velocity": 71}, {"time": 342, "pitch": 39, "duration": 42, "velocity": 71}, {"time": 342, "pitch": 51, "duration": 42, "velocity": 72}, {"time": 342, "pitch": 58, "duration": 9, "velocity": 77}, {"time": 342, "pitch": 63, "duration": 9, "velocity": 84}, {"time": 342, "pitch": 67, "duration": 9, "velocity": 78}, {"time": 354, "pitch": 58, "duration": 10, "velocity": 71}, {"time": 354, "pitch": 63, "duration": 9, "velocity": 79}, {"time": 354, "pitch": 67, "duration": 29, "velocity": 76}, {"time": 366, "pitch": 58, "duration": 9, "velocity": 40}, {"time": 366, "pitch": 63, "duration": 8, "velocity": 72}, {"time": 378, "pitch": 58, "duration": 5, "velocity": 52}, {"time": 378, "pitch": 63, "duration": 5, "velocity": 71}, {"time": 390, "pitch": 41, "duration": 43, "velocity": 74}, {"time": 390, "pitch": 53, "duration": 45, "velocity": 76}, {"time": 390, "pitch": 57, "duration": 9, "velocity": 78}, {"time": 390, "pitch": 60, "duration": 8, "velocity": 81}, {"time": 390, "pitch": 65, "duration": 8, "velocity": 79}, {"time": 402, "pitch": 57, "duration": 10, "velocity": 70}, {"time": 402, "pitch": 60, "duration": 9, "velocity": 74}, {"time": 402, "pitch": 65, "duration": 9, "velocity": 70}, {"time": 414, "pitch": 57, "duration": 9, "velocity": 65}, {"time": 414, "pitch": 60, "duration": 8, "velocity": 75}, {"time": 414, "pitch": 65, "duration": 8, "velocity": 70}, {"time": 426, "pitch": 57, "duration": 8, "velocity": 64}, {"time": 426, "pitch": 60, "duration": 10, "velocity": 72}, {"time": 426, "pitch": 65, "duration": 8, "velocity": 71}, {"time": 438, "pitch": 46, "duration": 47, "velocity": 78}, {"time": 438, "pitch": 58, "duration": 10, "velocity": 75}, {"time": 438, "pitch": 62, "duration": 8, "velocity": 74}, {"time": 438, "pitch": 65, "duration": 9, "velocity": 75}, {"time": 450, "pitch": 58, "duration": 9, "velocity": 74}, {"time": 450, "pitch": 62, "duration": 9, "velocity": 79}, {"time": 450, "pitch": 65, "duration": 9, "velocity": 75}, {"time": 462, "pitch": 58, "duration": 9, "velocity": 68}, {"time": 462, "pitch": 62, "duration": 8, "velocity": 76}, {"time": 462, "pitch": 65, "duration": 8, "velocity": 76}, {"time": 474, "pitch": 58, "duration": 9, "velocity": 75}, {"time": 474, "pitch": 62, "duration": 10, "velocity": 81}, {"time": 474, "pitch": 65, "duration": 7, "velocity": 81}, {"time": 486, "pitch": 43, "duration": 40, "velocity": 71}, {"time": 486, "pitch": 55, "duration": 38, "velocity": 67}, {"time": 486, "pitch": 58, "duration": 9, "velocity": 77}, {"time": 486, "pitch": 62, "duration": 9, "velocity": 64}, {"time": 486, "pitch": 67, "duration": 10, "velocity": 83}, {"time": 498, "pitch": 58, "duration": 9, "velocity": 78}, {"time": 498, "pitch": 62, "duration": 9, "velocity": 81}, {"time": 498, "pitch": 67, "duration": 10, "velocity": 78}, {"time": 510, "pitch": 58, "duration": 8, "velocity": 72}, {"time": 510, "pitch": 62, "duration": 8, "velocity": 72}, {"time": 510, "pitch": 67, "duration": 9, "velocity": 66}, {"time": 522, "pitch": 58, "duration": 9, "velocity": 81}, {"time": 522, "pitch": 62, "duration": 9, "velocity": 84}, {"time": 522, "pitch": 67, "duration": 9, "velocity": 81}, {"time": 528, "pitch": 41, "duration": 6, "velocity": 76}, {"time": 528, "pitch": 53, "duration": 3, "velocity": 77}, {"time": 534, "pitch": 39, "duration": 43, "velocity": 89}, {"time": 534, "pitch": 51, "duration": 43, "velocity": 78}, {"time": 534, "pitch": 58, "duration": 9, "velocity": 82}, {"time": 534, "pitch": 63, "duration": 9, "velocity": 87}, {"time": 534, "pitch": 67, "duration": 9, "velocity": 81}, {"time": 546, "pitch": 58, "duration": 10, "velocity": 84}, {"time": 546, "pitch": 63, "duration": 10, "velocity": 85}, {"time": 546, "pitch": 67, "duration": 9, "velocity": 86}, {"time": 558, "pitch": 58, "duration": 9, "velocity": 80}, {"time": 558, "pitch": 63, "duration": 9, "velocity": 84}, {"time": 558, "pitch": 67, "duration": 9, "velocity": 84}, {"time": 570, "pitch": 58, "duration": 8, "velocity": 81}, {"time": 570, "pitch": 63, "duration": 8, "velocity": 82}, {"time": 570, "pitch": 67, "duration": 8, "velocity": 82}, {"time": 582, "pitch": 41, "duration": 21, "velocity": 81}, {"time": 582, "pitch": 53, "duration": 21, "velocity": 81}, {"time": 582, "pitch": 57, "duration": 9, "velocity": 82}, {"time": 582, "pitch": 60, "duration": 8, "velocity": 84}, {"time": 582, "pitch": 65, "duration": 9, "velocity": 85}, {"time": 594, "pitch": 57, "duration": 7, "velocity": 80}, {"time": 594, "pitch": 60, "duration": 8, "velocity": 86}, {"time": 594, "pitch": 65, "duration": 7, "velocity": 86}, {"time": 606, "pitch": 41, "duration": 19, "velocity": 73}, {"time": 606, "pitch": 53, "duration": 20, "velocity": 65}, {"time": 606, "pitch": 57, "duration": 9, "velocity": 74}, {"time": 606, "pitch": 60, "duration": 9, "velocity": 77}, {"time": 606, "pitch": 65, "duration": 8, "velocity": 76}, {"time": 618, "pitch": 57, "duration": 8, "velocity": 74}, {"time": 618, "pitch": 60, "duration": 9, "velocity": 81}, {"time": 618, "pitch": 65, "duration": 8, "velocity": 81}, {"time": 630, "pitch": 50, "duration": 48, "velocity": 81}, {"time": 630, "pitch": 57, "duration": 9, "velocity": 76}, {"time": 630, "pitch": 62, "duration": 9, "velocity": 78}, {"time": 630, "pitch": 65, "duration": 9, "velocity": 77}, {"time": 642, "pitch": 57, "duration": 9, "velocity": 77}, {"time": 642, "pitch": 62, "duration": 8, "velocity": 80}, {"time": 642, "pitch": 65, "duration": 8, "velocity": 80}, {"time": 654, "pitch": 57, "duration": 9, "velocity": 82}, {"time": 654, "pitch": 62, "duration": 8, "velocity": 80}, {"time": 654, "pitch": 65, "duration": 8, "velocity": 80}, {"time": 666, "pitch": 57, "duration": 7, "velocity": 79}, {"time": 666, "pitch": 62, "duration": 10, "velocity": 83}, {"time": 666, "pitch": 65, "duration": 8, "velocity": 81}, {"time": 678, "pitch": 43, "duration": 44, "velocity": 75}, {"time": 678, "pitch": 55, "duration": 43, "velocity": 75}, {"time": 678, "pitch": 58, "duration": 9, "velocity": 83}, {"time": 678, "pitch": 62, "duration": 8, "velocity": 84}, {"time": 678, "pitch": 67, "duration": 8, "velocity": 84}, {"time": 690, "pitch": 58, "duration": 8, "velocity": 83}, {"time": 690, "pitch": 62, "duration": 8, "velocity": 83}, {"time": 690, "pitch": 67, "duration": 9, "velocity": 82}, {"time": 702, "pitch": 58, "duration": 8, "velocity": 78}, {"time": 702, "pitch": 62, "duration": 8, "velocity": 86}, {"time": 702, "pitch": 67, "duration": 8, "velocity": 80}, {"time": 714, "pitch": 58, "duration": 8, "velocity": 83}, {"time": 714, "pitch": 62, "duration": 8, "velocity": 87}, {"time": 714, "pitch": 67, "duration": 8, "velocity": 85}, {"time": 726, "pitch": 39, "duration": 21, "velocity": 82}, {"time": 726, "pitch": 51, "duration": 21, "velocity": 80}, {"time": 726, "pitch": 58, "duration": 10, "velocity": 86}, {"time": 726, "pitch": 63, "duration": 9, "velocity": 88}, {"time": 726, "pitch": 67, "duration": 9, "velocity": 85}, {"time": 738, "pitch": 58, "duration": 9, "velocity": 84}, {"time": 738, "pitch": 63, "duration": 9, "velocity": 87}, {"time": 738, "pitch": 67, "duration": 9, "velocity": 86}, {"time": 750, "pitch": 39, "duration": 16, "velocity": 88}, {"time": 750, "pitch": 51, "duration": 16, "velocity": 87}, {"time": 750, "pitch": 58, "duration": 9, "velocity": 88}, {"time": 750, "pitch": 63, "duration": 9, "velocity": 93}, {"time": 750, "pitch": 67, "duration": 8, "velocity": 90}, {"time": 762, "pitch": 58, "duration": 8, "velocity": 89}, {"time": 762, "pitch": 63, "duration": 8, "velocity": 91}, {"time": 762, "pitch": 67, "duration": 8, "velocity": 90}, {"time": 768, "pitch": 39, "duration": 2, "velocity": 86}, {"time": 768, "pitch": 51, "duration": 3, "velocity": 87}, {"time": 774, "pitch": 41, "duration": 41, "velocity": 90}, {"time": 774, "pitch": 57, "duration": 10, "velocity": 90}, {"time": 774, "pitch": 60, "duration": 10, "velocity": 100}, {"time": 774, "pitch": 65, "duration": 10, "velocity": 96}, {"time": 786, "pitch": 57, "duration": 9, "velocity": 87}, {"time": 786, "pitch": 60, "duration": 9, "velocity": 93}, {"time": 786, "pitch": 65, "duration": 8, "velocity": 90}, {"time": 798, "pitch": 57, "duration": 9, "velocity": 88}, {"time": 798, "pitch": 60, "duration": 9, "velocity": 92}, {"time": 798, "pitch": 65, "duration": 8, "velocity": 91}, {"time": 810, "pitch": 57, "duration": 7, "velocity": 88}, {"time": 810, "pitch": 60, "duration": 11, "velocity": 96}, {"time": 810, "pitch": 65, "duration": 8, "velocity": 91}, {"time": 816, "pitch": 43, "duration": 3, "velocity": 88}, {"time": 819, "pitch": 45, "duration": 3, "velocity": 87}, {"time": 822, "pitch": 46, "duration": 43, "velocity": 107}, {"time": 822, "pitch": 58, "duration": 11, "velocity": 91}, {"time": 822, "pitch": 62, "duration": 11, "velocity": 94}, {"time": 822, "pitch": 65, "duration": 10, "velocity": 92}, {"time": 834, "pitch": 58, "duration": 9, "velocity": 91}, {"time": 834, "pitch": 62, "duration": 9, "velocity": 96}, {"time": 834, "pitch": 65, "duration": 8, "velocity": 94}, {"time": 843, "pitch": 53, "duration": 7, "velocity": 77}, {"time": 846, "pitch": 58, "duration": 9, "velocity": 98}, {"time": 846, "pitch": 62, "duration": 9, "velocity": 104}, {"time": 846, "pitch": 65, "duration": 8, "velocity": 98}, {"time": 855, "pitch": 53, "duration": 10, "velocity": 81}, {"time": 858, "pitch": 58, "duration": 8, "velocity": 100}, {"time": 858, "pitch": 62, "duration": 8, "velocity": 108}, {"time": 858, "pitch": 65, "duration": 8, "velocity": 96}, {"time": 870, "pitch": 43, "duration": 20, "velocity": 91}, {"time": 870, "pitch": 58, "duration": 9, "velocity": 93}, {"time": 870, "pitch": 62, "duration": 9, "velocity": 94}, {"time": 870, "pitch": 67, "duration": 9, "velocity": 98}, {"time": 879, "pitch": 55, "duration": 11, "velocity": 80}, {"time": 882, "pitch": 58, "duration": 9, "velocity": 98}, {"time": 882, "pitch": 62, "duration": 9, "velocity": 102}, {"time": 882, "pitch": 67, "duration": 9, "velocity": 94}, {"time": 891, "pitch": 50, "duration": 3, "velocity": 83}, {"time": 894, "pitch": 43, "duration": 20, "velocity": 88}, {"time": 894, "pitch": 58, "duration": 9, "velocity": 93}, {"time": 894, "pitch": 62, "duration": 9, "velocity": 92}, {"time": 894, "pitch": 67, "duration": 9, "velocity": 91}, {"time": 900, "pitch": 50, "duration": 14, "velocity": 80}, {"time": 903, "pitch": 55, "duration": 5, "velocity": 98}, {"time": 906, "pitch": 58, "duration": 10, "velocity": 107}, {"time": 906, "pitch": 62, "duration": 10, "velocity": 108}, {"time": 906, "pitch": 67, "duration": 10, "velocity": 96}, {"time": 912, "pitch": 55, "duration": 1, "velocity": 87}, {"time": 918, "pitch": 39, "duration": 21, "velocity": 94}, {"time": 918, "pitch": 58, "duration": 9, "velocity": 98}, {"time": 918, "pitch": 63, "duration": 9, "velocity": 100}, {"time": 918, "pitch": 67, "duration": 10, "velocity": 93}, {"time": 927, "pitch": 51, "duration": 6, "velocity": 87}, {"time": 930, "pitch": 58, "duration": 10, "velocity": 107}, {"time": 930, "pitch": 63, "duration": 10, "velocity": 107}, {"time": 930, "pitch": 67, "duration": 10, "velocity": 102}, {"time": 939, "pitch": 51, "duration": 3, "velocity": 83}, {"time": 942, "pitch": 39, "duration": 20, "velocity": 92}, {"time": 942, "pitch": 58, "duration": 9, "velocity": 107}, {"time": 942, "pitch": 63, "duration": 9, "velocity": 110}, {"time": 942, "pitch": 67, "duration": 9, "velocity": 107}, {"time": 951, "pitch": 51, "duration": 4, "velocity": 89}, {"time": 954, "pitch": 58, "duration": 6, "velocity": 107}, {"time": 954, "pitch": 63, "duration": 9, "velocity": 104}, {"time": 954, "pitch": 67, "duration": 8, "velocity": 98}, {"time": 960, "pitch": 51, "duration": 5, "velocity": 85}, {"time": 966, "pitch": 41, "duration": 19, "velocity": 93}, {"time": 966, "pitch": 57, "duration": 9, "velocity": 98}, {"time": 966, "pitch": 60, "duration": 9, "velocity": 113}, {"time": 966, "pitch": 65, "duration": 8, "velocity": 102}, {"time": 972, "pitch": 48, "duration": 18, "velocity": 65}, {"time": 975, "pitch": 53, "duration": 4, "velocity": 93}, {"time": 978, "pitch": 57, "duration": 10, "velocity": 107}, {"time": 978, "pitch": 60, "duration": 10, "velocity": 114}, {"time": 978, "pitch": 65, "duration": 9, "velocity": 100}, {"time": 984, "pitch": 53, "duration": 4, "velocity": 74}, {"time": 990, "pitch": 41, "duration": 21, "velocity": 93}, {"time": 990, "pitch": 57, "duration": 7, "velocity": 92}, {"time": 990, "pitch": 60, "duration": 7, "velocity": 107}, {"time": 990, "pitch": 65, "duration": 7, "velocity": 93}, {"time": 993, "pitch": 48, "duration": 7, "velocity": 86}, {"time": 996, "pitch": 53, "duration": 4, "velocity": 114}, {"time": 999, "pitch": 57, "duration": 7, "velocity": 107}, {"time": 999, "pitch": 60, "duration": 7, "velocity": 116}, {"time": 999, "pitch": 65, "duration": 7, "velocity": 102}, {"time": 1002, "pitch": 53, "duration": 4, "velocity": 94}, {"time": 1005, "pitch": 48, "duration": 6, "velocity": 91}, {"time": 1008, "pitch": 57, "duration": 3, "velocity": 90}, {"time": 1008, "pitch": 60, "duration": 4, "velocity": 94}, {"time": 1008, "pitch": 65, "duration": 3, "velocity": 90}, {"time": 1011, "pitch": 53, "duration": 1, "velocity": 83}, {"time": 1014, "pitch": 38, "duration": 22, "velocity": 104}, {"time": 1014, "pitch": 67, "duration": 1, "velocity": 87}, {"time": 1023, "pitch": 50, "duration": 4, "velocity": 104}, {"time": 1026, "pitch": 57, "duration": 7, "velocity": 110}, {"time": 1026, "pitch": 62, "duration": 7, "velocity": 107}, {"time": 1026, "pitch": 65, "duration": 7, "velocity": 102}, {"time": 1032, "pitch": 50, "duration": 6, "velocity": 87}, {"time": 1035, "pitch": 57, "duration": 13, "velocity": 93}, {"time": 1035, "pitch": 62, "duration": 12, "velocity": 100}, {"time": 1035, "pitch": 65, "duration": 12, "velocity": 90}, {"time": 1038, "pitch": 38, "duration": 17, "velocity": 91}, {"time": 1047, "pitch": 50, "duration": 3, "velocity": 100}, {"time": 1050, "pitch": 57, "duration": 8, "velocity": 107}, {"time": 1050, "pitch": 62, "duration": 10, "velocity": 113}, {"time": 1050, "pitch": 65, "duration": 7, "velocity": 107}, {"time": 1056, "pitch": 50, "duration": 5, "velocity": 96}, {"time": 1062, "pitch": 43, "duration": 22, "velocity": 89}, {"time": 1062, "pitch": 58, "duration": 7, "velocity": 102}, {"time": 1062, "pitch": 62, "duration": 7, "velocity": 104}, {"time": 1062, "pitch": 67, "duration": 7, "velocity": 98}, {"time": 1068, "pitch": 50, "duration": 13, "velocity": 64}, {"time": 1071, "pitch": 58, "duration": 8, "velocity": 92}, {"time": 1071, "pitch": 62, "duration": 8, "velocity": 96}, {"time": 1071, "pitch": 67, "duration": 8, "velocity": 90}, {"time": 1077, "pitch": 55, "duration": 7, "velocity": 86}, {"time": 1080, "pitch": 58, "duration": 12, "velocity": 87}, {"time": 1080, "pitch": 62, "duration": 13, "velocity": 87}, {"time": 1080, "pitch": 67, "duration": 12, "velocity": 87}, {"time": 1086, "pitch": 43, "duration": 19, "velocity": 107}, {"time": 1092, "pitch": 50, "duration": 13, "velocity": 80}, {"time": 1095, "pitch": 58, "duration": 6, "velocity": 92}, {"time": 1095, "pitch": 62, "duration": 6, "velocity": 98}, {"time": 1095, "pitch": 67, "duration": 6, "velocity": 92}, {"time": 1101, "pitch": 55, "duration": 4, "velocity": 88}, {"time": 1104, "pitch": 58, "duration": 4, "velocity": 92}, {"time": 1104, "pitch": 62, "duration": 4, "velocity": 98}, {"time": 1104, "pitch": 67, "duration": 4, "velocity": 89}, {"time": 1110, "pitch": 39, "duration": 17, "velocity": 89}, {"time": 1110, "pitch": 51, "duration": 17, "velocity": 88}, {"time": 1110, "pitch": 58, "duration": 8, "velocity": 104}, {"time": 1110, "pitch": 63, "duration": 8, "velocity": 108}, {"time": 1110, "pitch": 67, "duration": 7, "velocity": 96}, {"time": 1122, "pitch": 58, "duration": 9, "velocity": 104}, {"time": 1122, "pitch": 63, "duration": 9, "velocity": 110}, {"time": 1122, "pitch": 67, "duration": 9, "velocity": 98}, {"time": 1131, "pitch": 38, "duration": 1, "velocity": 88}, {"time": 1131, "pitch": 50, "duration": 1, "velocity": 93}, {"time": 1134, "pitch": 36, "duration": 8, "velocity": 94}, {"time": 1134, "pitch": 38, "duration": 3, "velocity": 91}, {"time": 1134, "pitch": 48, "duration": 8, "velocity": 87}, {"time": 1134, "pitch": 60, "duration": 8, "velocity": 102}, {"time": 1134, "pitch": 63, "duration": 8, "velocity": 102}, {"time": 1134, "pitch": 67, "duration": 8, "velocity": 96}, {"time": 1146, "pitch": 36, "duration": 6, "velocity": 88}, {"time": 1146, "pitch": 48, "duration": 7, "velocity": 93}, {"time": 1146, "pitch": 60, "duration": 10, "velocity": 100}, {"time": 1146, "pitch": 63, "duration": 7, "velocity": 108}, {"time": 1146, "pitch": 67, "duration": 7, "velocity": 94}, {"time": 1158, "pitch": 41, "duration": 18, "velocity": 100}, {"time": 1158, "pitch": 57, "duration": 9, "velocity": 100}, {"time": 1158, "pitch": 60, "duration": 9, "velocity": 108}, {"time": 1158, "pitch": 65, "duration": 9, "velocity": 100}, {"time": 1164, "pitch": 48, "duration": 17, "velocity": 77}, {"time": 1167, "pitch": 53, "duration": 4, "velocity": 98}, {"time": 1170, "pitch": 57, "duration": 10, "velocity": 110}, {"time": 1170, "pitch": 60, "duration": 10, "velocity": 116}, {"time": 1170, "pitch": 65, "duration": 9, "velocity": 102}, {"time": 1176, "pitch": 53, "duration": 4, "velocity": 86}, {"time": 1182, "pitch": 41, "duration": 9, "velocity": 100}, {"time": 1182, "pitch": 57, "duration": 6, "velocity": 102}, {"time": 1182, "pitch": 60, "duration": 6, "velocity": 114}, {"time": 1182, "pitch": 65, "duration": 6, "velocity": 102}, {"time": 1185, "pitch": 48, "duration": 7, "velocity": 87}, {"time": 1188, "pitch": 53, "duration": 3, "velocity": 107}, {"time": 1191, "pitch": 57, "duration": 6, "velocity": 102}, {"time": 1191, "pitch": 60, "duration": 6, "velocity": 116}, {"time": 1191, "pitch": 65, "duration": 6, "velocity": 104}, {"time": 1194, "pitch": 43, "duration": 5, "velocity": 110}, {"time": 1200, "pitch": 45, "duration": 3, "velocity": 93}, {"time": 1200, "pitch": 57, "duration": 3, "velocity": 96}, {"time": 1200, "pitch": 60, "duration": 4, "velocity": 113}, {"time": 1200, "pitch": 65, "duration": 3, "velocity": 96}, {"time": 1206, "pitch": 46, "duration": 21, "velocity": 108}, {"time": 1206, "pitch": 58, "duration": 3, "velocity": 104}, {"time": 1206, "pitch": 62, "duration": 7, "velocity": 113}, {"time": 1206, "pitch": 65, "duration": 6, "velocity": 107}, {"time": 1212, "pitch": 53, "duration": 18, "velocity": 75}, {"time": 1215, "pitch": 58, "duration": 4, "velocity": 87}, {"time": 1218, "pitch": 62, "duration": 7, "velocity": 110}, {"time": 1218, "pitch": 65, "duration": 7, "velocity": 116}, {"time": 1218, "pitch": 70, "duration": 7, "velocity": 102}, {"time": 1224, "pitch": 58, "duration": 6, "velocity": 84}, {"time": 1227, "pitch": 62, "duration": 1, "velocity": 98}, {"time": 1227, "pitch": 65, "duration": 1, "velocity": 107}, {"time": 1227, "pitch": 70, "duration": 1, "velocity": 88}, {"time": 1230, "pitch": 46, "duration": 15, "velocity": 88}, {"time": 1230, "pitch": 62, "duration": 9, "velocity": 108}, {"time": 1230, "pitch": 65, "duration": 9, "velocity": 114}, {"time": 1230, "pitch": 70, "duration": 9, "velocity": 100}, {"time": 1236, "pitch": 53, "duration": 10, "velocity": 74}, {"time": 1239, "pitch": 58, "duration": 4, "velocity": 96}, {"time": 1242, "pitch": 62, "duration": 8, "velocity": 113}, {"time": 1242, "pitch": 65, "duration": 9, "velocity": 117}, {"time": 1242, "pitch": 70, "duration": 8, "velocity": 104}, {"time": 1248, "pitch": 45, "duration": 5, "velocity": 90}, {"time": 1254, "pitch": 43, "duration": 21, "velocity": 107}, {"time": 1254, "pitch": 62, "duration": 9, "velocity": 107}, {"time": 1254, "pitch": 67, "duration": 9, "velocity": 113}, {"time": 1254, "pitch": 70, "duration": 9, "velocity": 96}, {"time": 1260, "pitch": 50, "duration": 12, "velocity": 73}, {"time": 1263, "pitch": 55, "duration": 5, "velocity": 88}, {"time": 1266, "pitch": 62, "duration": 9, "velocity": 108}, {"time": 1266, "pitch": 67, "duration": 9, "velocity": 114}, {"time": 1266, "pitch": 70, "duration": 9, "velocity": 93}, {"time": 1272, "pitch": 55, "duration": 4, "velocity": 76}, {"time": 1275, "pitch": 50, "duration": 3, "velocity": 88}, {"time": 1278, "pitch": 43, "duration": 15, "velocity": 90}, {"time": 1278, "pitch": 62, "duration": 9, "velocity": 96}, {"time": 1278, "pitch": 67, "duration": 9, "velocity": 110}, {"time": 1278, "pitch": 70, "duration": 9, "velocity": 91}, {"time": 1281, "pitch": 50, "duration": 13, "velocity": 85}, {"time": 1284, "pitch": 55, "duration": 9, "velocity": 96}, {"time": 1290, "pitch": 62, "duration": 7, "velocity": 113}, {"time": 1290, "pitch": 67, "duration": 8, "velocity": 114}, {"time": 1290, "pitch": 70, "duration": 8, "velocity": 100}, {"time": 1296, "pitch": 41, "duration": 5, "velocity": 92}, {"time": 1302, "pitch": 39, "duration": 20, "velocity": 102}, {"time": 1302, "pitch": 63, "duration": 9, "velocity": 104}, {"time": 1302, "pitch": 67, "duration": 9, "velocity": 113}, {"time": 1302, "pitch": 70, "duration": 9, "velocity": 98}, {"time": 1308, "pitch": 46, "duration": 17, "velocity": 77}, {"time": 1311, "pitch": 51, "duration": 5, "velocity": 92}, {"time": 1314, "pitch": 63, "duration": 9, "velocity": 94}, {"time": 1314, "pitch": 67, "duration": 9, "velocity": 102}, {"time": 1314, "pitch": 70, "duration": 9, "velocity": 91}, {"time": 1320, "pitch": 51, "duration": 3, "velocity": 84}, {"time": 1326, "pitch": 39, "duration": 20, "velocity": 94}, {"time": 1326, "pitch": 63, "duration": 10, "velocity": 100}, {"time": 1326, "pitch": 67, "duration": 9, "velocity": 108}, {"time": 1326, "pitch": 70, "duration": 9, "velocity": 92}, {"time": 1332, "pitch": 46, "duration": 17, "velocity": 78}, {"time": 1335, "pitch": 51, "duration": 4, "velocity": 98}, {"time": 1338, "pitch": 63, "duration": 6, "velocity": 104}, {"time": 1338, "pitch": 67, "duration": 8, "velocity": 114}, {"time": 1338, "pitch": 70, "duration": 8, "velocity": 100}, {"time": 1344, "pitch": 51, "duration": 4, "velocity": 83}, {"time": 1350, "pitch": 41, "duration": 21, "velocity": 91}, {"time": 1350, "pitch": 60, "duration": 8, "velocity": 100}, {"time": 1350, "pitch": 65, "duration": 8, "velocity": 110}, {"time": 1350, "pitch": 69, "duration": 8, "velocity": 90}, {"time": 1356, "pitch": 48, "duration": 16, "velocity": 80}, {"time": 1359, "pitch": 53, "duration": 7, "velocity": 100}, {"time": 1365, "pitch": 57, "duration": 7, "velocity": 93}, {"time": 1365, "pitch": 60, "duration": 7, "velocity": 107}, {"time": 1365, "pitch": 65, "duration": 6, "velocity": 91}, {"time": 1371, "pitch": 53, "duration": 1, "velocity": 78}, {"time": 1374, "pitch": 41, "duration": 13, "velocity": 93}, {"time": 1374, "pitch": 57, "duration": 4, "velocity": 104}, {"time": 1374, "pitch": 60, "duration": 9, "velocity": 110}, {"time": 1374, "pitch": 65, "duration": 9, "velocity": 96}, {"time": 1380, "pitch": 48, "duration": 7, "velocity": 83}, {"time": 1383, "pitch": 53, "duration": 4, "velocity": 102}, {"time": 1386, "pitch": 57, "duration": 8, "velocity": 110}, {"time": 1386, "pitch": 60, "duration": 9, "velocity": 116}, {"time": 1386, "pitch": 65, "duration": 8, "velocity": 104}, {"time": 1392, "pitch": 40, "duration": 5, "velocity": 95}, {"time": 1398, "pitch": 38, "duration": 43, "velocity": 96}, {"time": 1398, "pitch": 57, "duration": 9, "velocity": 104}, {"time": 1398, "pitch": 62, "duration": 9, "velocity": 110}, {"time": 1398, "pitch": 65, "duration": 9, "velocity": 102}, {"time": 1404, "pitch": 45, "duration": 25, "velocity": 72}, {"time": 1407, "pitch": 50, "duration": 4, "velocity": 86}, {"time": 1410, "pitch": 57, "duration": 7, "velocity": 104}, {"time": 1410, "pitch": 62, "duration": 7, "velocity": 113}, {"time": 1410, "pitch": 65, "duration": 6, "velocity": 104}, {"time": 1416, "pitch": 50, "duration": 9, "velocity": 83}, {"time": 1419, "pitch": 57, "duration": 5, "velocity": 91}, {"time": 1419, "pitch": 62, "duration": 5, "velocity": 93}, {"time": 1419, "pitch": 65, "duration": 4, "velocity": 89}, {"time": 1425, "pitch": 57, "duration": 6, "velocity": 91}, {"time": 1425, "pitch": 62, "duration": 7, "velocity": 98}, {"time": 1425, "pitch": 65, "duration": 6, "velocity": 90}, {"time": 1431, "pitch": 45, "duration": 4, "velocity": 32}, {"time": 1431, "pitch": 50, "duration": 5, "velocity": 85}, {"time": 1434, "pitch": 57, "duration": 6, "velocity": 113}, {"time": 1434, "pitch": 62, "duration": 10, "velocity": 116}, {"time": 1434, "pitch": 65, "duration": 7, "velocity": 107}, {"time": 1440, "pitch": 45, "duration": 1, "velocity": 68}, {"time": 1440, "pitch": 50, "duration": 5, "velocity": 77}, {"time": 1446, "pitch": 43, "duration": 38, "velocity": 88}, {"time": 1446, "pitch": 58, "duration": 9, "velocity": 104}, {"time": 1446, "pitch": 62, "duration": 9, "velocity": 108}, {"time": 1446, "pitch": 67, "duration": 9, "velocity": 104}, {"time": 1452, "pitch": 50, "duration": 33, "velocity": 75}, {"time": 1455, "pitch": 55, "duration": 3, "velocity": 86}, {"time": 1458, "pitch": 58, "duration": 7, "velocity": 102}, {"time": 1458, "pitch": 62, "duration": 7, "velocity": 110}, {"time": 1458, "pitch": 67, "duration": 7, "velocity": 96}, {"time": 1464, "pitch": 55, "duration": 9, "velocity": 81}, {"time": 1467, "pitch": 58, "duration": 1, "velocity": 90}, {"time": 1467, "pitch": 62, "duration": 1, "velocity": 89}, {"time": 1467, "pitch": 67, "duration": 1, "velocity": 89}, {"time": 1473, "pitch": 58, "duration": 7, "velocity": 98}, {"time": 1473, "pitch": 62, "duration": 7, "velocity": 108}, {"time": 1473, "pitch": 67, "duration": 6, "velocity": 98}, {"time": 1479, "pitch": 55, "duration": 5, "velocity": 91}, {"time": 1482, "pitch": 58, "duration": 12, "velocity": 104}, {"time": 1482, "pitch": 62, "duration": 12, "velocity": 113}, {"time": 1482, "pitch": 67, "duration": 13, "velocity": 104}, {"time": 1488, "pitch": 43, "duration": 2, "velocity": 91}, {"time": 1494, "pitch": 39, "duration": 44, "velocity": 110}, {"time": 1500, "pitch": 46, "duration": 38, "velocity": 73}, {"time": 1503, "pitch": 51, "duration": 5, "velocity": 94}, {"time": 1506, "pitch": 55, "duration": 9, "velocity": 107}, {"time": 1506, "pitch": 58, "duration": 9, "velocity": 108}, {"time": 1506, "pitch": 63, "duration": 9, "velocity": 100}, {"time": 1518, "pitch": 55, "duration": 19, "velocity": 86}, {"time": 1518, "pitch": 58, "duration": 19, "velocity": 88}, {"time": 1518, "pitch": 63, "duration": 19, "velocity": 88}, {"time": 1542, "pitch": 46, "duration": 23, "velocity": 79}, {"time": 1542, "pitch": 58, "duration": 11, "velocity": 80}, {"time": 1542, "pitch": 62, "duration": 11, "velocity": 85}, {"time": 1542, "pitch": 65, "duration": 9, "velocity": 82}, {"time": 1554, "pitch": 58, "duration": 8, "velocity": 83}, {"time": 1554, "pitch": 62, "duration": 10, "velocity": 84}, {"time": 1554, "pitch": 65, "duration": 9, "velocity": 86}, {"time": 1566, "pitch": 45, "duration": 23, "velocity": 80}, {"time": 1566, "pitch": 57, "duration": 10, "velocity": 81}, {"time": 1566, "pitch": 60, "duration": 10, "velocity": 80}, {"time": 1566, "pitch": 65, "duration": 9, "velocity": 81}, {"time": 1578, "pitch": 57, "duration": 8, "velocity": 84}, {"time": 1578, "pitch": 60, "duration": 11, "velocity": 88}, {"time": 1578, "pitch": 65, "duration": 8, "velocity": 87}, {"time": 1590, "pitch": 43, "duration": 24, "velocity": 77}, {"time": 1590, "pitch": 55, "duration": 19, "velocity": 78}, {"time": 1590, "pitch": 58, "duration": 9, "velocity": 83}, {"time": 1590, "pitch": 62, "duration": 9, "velocity": 83}, {"time": 1590, "pitch": 67, "duration": 8, "velocity": 84}, {"time": 1602, "pitch": 58, "duration": 8, "velocity": 83}, {"time": 1602, "pitch": 62, "duration": 11, "velocity": 83}, {"time": 1602, "pitch": 67, "duration": 8, "velocity": 84}, {"time": 1613, "pitch": 42, "duration": 19, "velocity": 75}, {"time": 1613, "pitch": 54, "duration": 20, "velocity": 74}, {"time": 1613, "pitch": 66, "duration": 20, "velocity": 73}, {"time": 1613, "pitch": 63, "duration": 20, "velocity": 81}, {"time": 1613, "pitch": 58, "duration": 22, "velocity": 75}, {"time": 1614, "pitch": 65, "duration": 8, "velocity": 81}, {"time": 1637, "pitch": 62, "duration": 9, "velocity": 80}, {"time": 1637, "pitch": 58, "duration": 8, "velocity": 78}, {"time": 1637, "pitch": 65, "duration": 8, "velocity": 78}, {"time": 1637, "pitch": 46, "duration": 24, "velocity": 81}, {"time": 1649, "pitch": 58, "duration": 9, "velocity": 78}, {"time": 1649, "pitch": 62, "duration": 9, "velocity": 79}, {"time": 1650, "pitch": 65, "duration": 8, "velocity": 70}, {"time": 1661, "pitch": 57, "duration": 4, "velocity": 77}, {"time": 1661, "pitch": 60, "duration": 5, "velocity": 80}, {"time": 1661, "pitch": 65, "duration": 7, "velocity": 77}, {"time": 1662, "pitch": 45, "duration": 23, "velocity": 78}, {"time": 1673, "pitch": 60, "duration": 11, "velocity": 86}, {"time": 1673, "pitch": 65, "duration": 8, "velocity": 84}, {"time": 1673, "pitch": 57, "duration": 8, "velocity": 81}, {"time": 1685, "pitch": 43, "duration": 18, "velocity": 77}, {"time": 1685, "pitch": 62, "duration": 8, "velocity": 74}, {"time": 1685, "pitch": 58, "duration": 9, "velocity": 75}, {"time": 1685, "pitch": 67, "duration": 9, "velocity": 81}, {"time": 1685, "pitch": 55, "duration": 18, "velocity": 71}, {"time": 1697, "pitch": 67, "duration": 8, "velocity": 81}, {"time": 1697, "pitch": 58, "duration": 5, "velocity": 79}, {"time": 1697, "pitch": 62, "duration": 5, "velocity": 81}, {"time": 1704, "pitch": 42, "duration": 10, "velocity": 67}, {"time": 1704, "pitch": 54, "duration": 11, "velocity": 74}, {"time": 1704, "pitch": 58, "duration": 11, "velocity": 70}, {"time": 1704, "pitch": 63, "duration": 11, "velocity": 74}, {"time": 1704, "pitch": 66, "duration": 11, "velocity": 68}, {"time": 1734, "pitch": 46, "duration": 47, "velocity": 78}, {"time": 1734, "pitch": 58, "duration": 10, "velocity": 75}, {"time": 1734, "pitch": 62, "duration": 8, "velocity": 74}, {"time": 1734, "pitch": 65, "duration": 9, "velocity": 75}, {"time": 1746, "pitch": 58, "duration": 9, "velocity": 74}, {"time": 1746, "pitch": 62, "duration": 9, "velocity": 79}, {"time": 1746, "pitch": 65, "duration": 9, "velocity": 75}, {"time": 1758, "pitch": 58, "duration": 9, "velocity": 68}, {"time": 1758, "pitch": 62, "duration": 8, "velocity": 76}, {"time": 1758, "pitch": 65, "duration": 8, "velocity": 76}, {"time": 1770, "pitch": 58, "duration": 9, "velocity": 75}, {"time": 1770, "pitch": 62, "duration": 10, "velocity": 81}, {"time": 1770, "pitch": 65, "duration": 7, "velocity": 81}, {"time": 1782, "pitch": 43, "duration": 40, "velocity": 71}, {"time": 1782, "pitch": 55, "duration": 38, "velocity": 67}, {"time": 1782, "pitch": 58, "duration": 9, "velocity": 77}, {"time": 1782, "pitch": 62, "duration": 9, "velocity": 64}, {"time": 1782, "pitch": 67, "duration": 10, "velocity": 83}, {"time": 1794, "pitch": 58, "duration": 9, "velocity": 78}, {"time": 1794, "pitch": 62, "duration": 9, "velocity": 81}, {"time": 1794, "pitch": 67, "duration": 10, "velocity": 78}, {"time": 1806, "pitch": 58, "duration": 8, "velocity": 72}, {"time": 1806, "pitch": 62, "duration": 8, "velocity": 72}, {"time": 1806, "pitch": 67, "duration": 9, "velocity": 66}, {"time": 1818, "pitch": 58, "duration": 9, "velocity": 81}, {"time": 1818, "pitch": 62, "duration": 9, "velocity": 84}, {"time": 1818, "pitch": 67, "duration": 9, "velocity": 81}, {"time": 1824, "pitch": 41, "duration": 6, "velocity": 76}, {"time": 1824, "pitch": 53, "duration": 3, "velocity": 77}, {"time": 1830, "pitch": 39, "duration": 43, "velocity": 89}, {"time": 1830, "pitch": 51, "duration": 43, "velocity": 78}, {"time": 1830, "pitch": 58, "duration": 9, "velocity": 82}, {"time": 1830, "pitch": 63, "duration": 9, "velocity": 87}, {"time": 1830, "pitch": 67, "duration": 9, "velocity": 81}, {"time": 1842, "pitch": 58, "duration": 10, "velocity": 84}, {"time": 1842, "pitch": 63, "duration": 10, "velocity": 85}, {"time": 1842, "pitch": 67, "duration": 9, "velocity": 86}, {"time": 1854, "pitch": 58, "duration": 9, "velocity": 80}, {"time": 1854, "pitch": 63, "duration": 9, "velocity": 84}, {"time": 1854, "pitch": 67, "duration": 9, "velocity": 84}, {"time": 1866, "pitch": 58, "duration": 8, "velocity": 81}, {"time": 1866, "pitch": 63, "duration": 8, "velocity": 82}, {"time": 1866, "pitch": 67, "duration": 8, "velocity": 82}, {"time": 1878, "pitch": 41, "duration": 21, "velocity": 81}, {"time": 1878, "pitch": 53, "duration": 21, "velocity": 81}, {"time": 1878, "pitch": 57, "duration": 9, "velocity": 82}, {"time": 1878, "pitch": 60, "duration": 8, "velocity": 84}, {"time": 1878, "pitch": 65, "duration": 9, "velocity": 85}, {"time": 1890, "pitch": 57, "duration": 7, "velocity": 80}, {"time": 1890, "pitch": 60, "duration": 8, "velocity": 86}, {"time": 1890, "pitch": 65, "duration": 7, "velocity": 86}, {"time": 1902, "pitch": 41, "duration": 19, "velocity": 73}, {"time": 1902, "pitch": 53, "duration": 20, "velocity": 65}, {"time": 1902, "pitch": 57, "duration": 9, "velocity": 74}, {"time": 1902, "pitch": 60, "duration": 9, "velocity": 77}, {"time": 1902, "pitch": 65, "duration": 8, "velocity": 76}, {"time": 1914, "pitch": 57, "duration": 8, "velocity": 74}, {"time": 1914, "pitch": 60, "duration": 9, "velocity": 81}, {"time": 1914, "pitch": 65, "duration": 8, "velocity": 81}, {"time": 1926, "pitch": 50, "duration": 48, "velocity": 81}, {"time": 1926, "pitch": 57, "duration": 9, "velocity": 76}, {"time": 1926, "pitch": 62, "duration": 9, "velocity": 78}, {"time": 1926, "pitch": 65, "duration": 9, "velocity": 77}, {"time": 1938, "pitch": 57, "duration": 9, "velocity": 77}, {"time": 1938, "pitch": 62, "duration": 8, "velocity": 80}, {"time": 1938, "pitch": 65, "duration": 8, "velocity": 80}, {"time": 1950, "pitch": 57, "duration": 9, "velocity": 82}, {"time": 1950, "pitch": 62, "duration": 8, "velocity": 80}, {"time": 1950, "pitch": 65, "duration": 8, "velocity": 80}, {"time": 1962, "pitch": 57, "duration": 7, "velocity": 79}, {"time": 1962, "pitch": 62, "duration": 10, "velocity": 83}, {"time": 1962, "pitch": 65, "duration": 8, "velocity": 81}, {"time": 1974, "pitch": 43, "duration": 44, "velocity": 75}, {"time": 1974, "pitch": 55, "duration": 43, "velocity": 75}, {"time": 1974, "pitch": 58, "duration": 9, "velocity": 83}, {"time": 1974, "pitch": 62, "duration": 8, "velocity": 84}, {"time": 1974, "pitch": 67, "duration": 8, "velocity": 84}, {"time": 1986, "pitch": 58, "duration": 8, "velocity": 83}, {"time": 1986, "pitch": 62, "duration": 8, "velocity": 83}, {"time": 1986, "pitch": 67, "duration": 9, "velocity": 82}, {"time": 1998, "pitch": 58, "duration": 8, "velocity": 78}, {"time": 1998, "pitch": 62, "duration": 8, "velocity": 86}, {"time": 1998, "pitch": 67, "duration": 8, "velocity": 80}, {"time": 2010, "pitch": 58, "duration": 8, "velocity": 83}, {"time": 2010, "pitch": 62, "duration": 8, "velocity": 87}, {"time": 2010, "pitch": 67, "duration": 8, "velocity": 85}, {"time": 2022, "pitch": 39, "duration": 21, "velocity": 82}, {"time": 2022, "pitch": 51, "duration": 21, "velocity": 80}, {"time": 2022, "pitch": 58, "duration": 10, "velocity": 86}, {"time": 2022, "pitch": 63, "duration": 9, "velocity": 88}, {"time": 2022, "pitch": 67, "duration": 9, "velocity": 85}, {"time": 2034, "pitch": 58, "duration": 9, "velocity": 84}, {"time": 2034, "pitch": 63, "duration": 9, "velocity": 87}, {"time": 2034, "pitch": 67, "duration": 9, "velocity": 86}, {"time": 2046, "pitch": 39, "duration": 16, "velocity": 88}, {"time": 2046, "pitch": 51, "duration": 16, "velocity": 87}, {"time": 2046, "pitch": 58, "duration": 9, "velocity": 88}, {"time": 2046, "pitch": 63, "duration": 9, "velocity": 93}, {"time": 2046, "pitch": 67, "duration": 8, "velocity": 90}, {"time": 2058, "pitch": 58, "duration": 8, "velocity": 89}, {"time": 2058, "pitch": 63, "duration": 8, "velocity": 91}, {"time": 2058, "pitch": 67, "duration": 8, "velocity": 90}, {"time": 2064, "pitch": 39, "duration": 2, "velocity": 86}, {"time": 2064, "pitch": 51, "duration": 3, "velocity": 87}, {"time": 2070, "pitch": 41, "duration": 41, "velocity": 90}, {"time": 2070, "pitch": 57, "duration": 10, "velocity": 90}, {"time": 2070, "pitch": 60, "duration": 10, "velocity": 100}, {"time": 2070, "pitch": 65, "duration": 10, "velocity": 96}, {"time": 2082, "pitch": 57, "duration": 9, "velocity": 87}, {"time": 2082, "pitch": 60, "duration": 9, "velocity": 93}, {"time": 2082, "pitch": 65, "duration": 8, "velocity": 90}, {"time": 2094, "pitch": 57, "duration": 9, "velocity": 88}, {"time": 2094, "pitch": 60, "duration": 9, "velocity": 92}, {"time": 2094, "pitch": 65, "duration": 8, "velocity": 91}, {"time": 2106, "pitch": 57, "duration": 7, "velocity": 88}, {"time": 2106, "pitch": 60, "duration": 11, "velocity": 96}, {"time": 2106, "pitch": 65, "duration": 8, "velocity": 91}, {"time": 2112, "pitch": 43, "duration": 3, "velocity": 88}, {"time": 2115, "pitch": 45, "duration": 3, "velocity": 87}, {"time": 2118, "pitch": 46, "duration": 43, "velocity": 107}, {"time": 2118, "pitch": 58, "duration": 11, "velocity": 91}, {"time": 2118, "pitch": 62, "duration": 11, "velocity": 94}, {"time": 2118, "pitch": 65, "duration": 10, "velocity": 92}, {"time": 2130, "pitch": 58, "duration": 9, "velocity": 91}, {"time": 2130, "pitch": 62, "duration": 9, "velocity": 96}, {"time": 2130, "pitch": 65, "duration": 8, "velocity": 94}, {"time": 2139, "pitch": 53, "duration": 7, "velocity": 77}, {"time": 2142, "pitch": 58, "duration": 9, "velocity": 98}, {"time": 2142, "pitch": 62, "duration": 9, "velocity": 104}, {"time": 2142, "pitch": 65, "duration": 8, "velocity": 98}, {"time": 2151, "pitch": 53, "duration": 10, "velocity": 81}, {"time": 2154, "pitch": 58, "duration": 8, "velocity": 100}, {"time": 2154, "pitch": 62, "duration": 8, "velocity": 108}, {"time": 2154, "pitch": 65, "duration": 8, "velocity": 96}, {"time": 2166, "pitch": 43, "duration": 20, "velocity": 91}, {"time": 2166, "pitch": 58, "duration": 9, "velocity": 93}, {"time": 2166, "pitch": 62, "duration": 9, "velocity": 94}, {"time": 2166, "pitch": 67, "duration": 9, "velocity": 98}, {"time": 2175, "pitch": 55, "duration": 11, "velocity": 80}, {"time": 2178, "pitch": 58, "duration": 9, "velocity": 98}, {"time": 2178, "pitch": 62, "duration": 9, "velocity": 102}, {"time": 2178, "pitch": 67, "duration": 9, "velocity": 94}, {"time": 2187, "pitch": 50, "duration": 3, "velocity": 83}, {"time": 2190, "pitch": 43, "duration": 20, "velocity": 88}, {"time": 2190, "pitch": 58, "duration": 9, "velocity": 93}, {"time": 2190, "pitch": 62, "duration": 9, "velocity": 92}, {"time": 2190, "pitch": 67, "duration": 9, "velocity": 91}, {"time": 2196, "pitch": 50, "duration": 14, "velocity": 80}, {"time": 2199, "pitch": 55, "duration": 5, "velocity": 98}, {"time": 2202, "pitch": 58, "duration": 10, "velocity": 107}, {"time": 2202, "pitch": 62, "duration": 10, "velocity": 108}, {"time": 2202, "pitch": 67, "duration": 10, "velocity": 96}, {"time": 2208, "pitch": 55, "duration": 1, "velocity": 87}, {"time": 2214, "pitch": 39, "duration": 21, "velocity": 94}, {"time": 2214, "pitch": 58, "duration": 9, "velocity": 98}, {"time": 2214, "pitch": 63, "duration": 9, "velocity": 100}, {"time": 2214, "pitch": 67, "duration": 10, "velocity": 93}, {"time": 2223, "pitch": 51, "duration": 6, "velocity": 87}, {"time": 2226, "pitch": 58, "duration": 10, "velocity": 107}, {"time": 2226, "pitch": 63, "duration": 10, "velocity": 107}, {"time": 2226, "pitch": 67, "duration": 10, "velocity": 102}, {"time": 2235, "pitch": 51, "duration": 3, "velocity": 83}, {"time": 2238, "pitch": 39, "duration": 20, "velocity": 92}, {"time": 2238, "pitch": 58, "duration": 9, "velocity": 107}, {"time": 2238, "pitch": 63, "duration": 9, "velocity": 110}, {"time": 2238, "pitch": 67, "duration": 9, "velocity": 107}, {"time": 2247, "pitch": 51, "duration": 4, "velocity": 89}, {"time": 2250, "pitch": 58, "duration": 6, "velocity": 107}, {"time": 2250, "pitch": 63, "duration": 9, "velocity": 104}, {"time": 2250, "pitch": 67, "duration": 8, "velocity": 98}, {"time": 2256, "pitch": 51, "duration": 5, "velocity": 85}, {"time": 2262, "pitch": 41, "duration": 19, "velocity": 93}, {"time": 2262, "pitch": 57, "duration": 9, "velocity": 98}, {"time": 2262, "pitch": 60, "duration": 9, "velocity": 113}, {"time": 2262, "pitch": 65, "duration": 8, "velocity": 102}, {"time": 2268, "pitch": 48, "duration": 18, "velocity": 65}, {"time": 2271, "pitch": 53, "duration": 4, "velocity": 93}, {"time": 2274, "pitch": 57, "duration": 10, "velocity": 107}, {"time": 2274, "pitch": 60, "duration": 10, "velocity": 114}, {"time": 2274, "pitch": 65, "duration": 9, "velocity": 100}, {"time": 2280, "pitch": 53, "duration": 4, "velocity": 74}, {"time": 2286, "pitch": 41, "duration": 21, "velocity": 93}, {"time": 2286, "pitch": 57, "duration": 7, "velocity": 92}, {"time": 2286, "pitch": 60, "duration": 7, "velocity": 107}, {"time": 2286, "pitch": 65, "duration": 7, "velocity": 93}, {"time": 2289, "pitch": 48, "duration": 7, "velocity": 86}, {"time": 2292, "pitch": 53, "duration": 4, "velocity": 114}, {"time": 2295, "pitch": 57, "duration": 7, "velocity": 107}, {"time": 2295, "pitch": 60, "duration": 7, "velocity": 116}, {"time": 2295, "pitch": 65, "duration": 7, "velocity": 102}, {"time": 2298, "pitch": 53, "duration": 4, "velocity": 94}, {"time": 2301, "pitch": 48, "duration": 6, "velocity": 91}, {"time": 2304, "pitch": 57, "duration": 3, "velocity": 90}, {"time": 2304, "pitch": 60, "duration": 4, "velocity": 94}, {"time": 2304, "pitch": 65, "duration": 3, "velocity": 90}, {"time": 2307, "pitch": 53, "duration": 1, "velocity": 83}, {"time": 2310, "pitch": 38, "duration": 22, "velocity": 104}, {"time": 2310, "pitch": 67, "duration": 1, "velocity": 87}, {"time": 2319, "pitch": 50, "duration": 4, "velocity": 104}, {"time": 2322, "pitch": 57, "duration": 7, "velocity": 110}, {"time": 2322, "pitch": 62, "duration": 7, "velocity": 107}, {"time": 2322, "pitch": 65, "duration": 7, "velocity": 102}, {"time": 2328, "pitch": 50, "duration": 6, "velocity": 87}, {"time": 2331, "pitch": 57, "duration": 13, "velocity": 93}, {"time": 2331, "pitch": 62, "duration": 12, "velocity": 100}, {"time": 2331, "pitch": 65, "duration": 12, "velocity": 90}, {"time": 2334, "pitch": 38, "duration": 17, "velocity": 91}, {"time": 2343, "pitch": 50, "duration": 3, "velocity": 100}, {"time": 2346, "pitch": 57, "duration": 8, "velocity": 107}, {"time": 2346, "pitch": 62, "duration": 10, "velocity": 113}, {"time": 2346, "pitch": 65, "duration": 7, "velocity": 107}, {"time": 2352, "pitch": 50, "duration": 5, "velocity": 96}, {"time": 2358, "pitch": 43, "duration": 22, "velocity": 89}, {"time": 2358, "pitch": 58, "duration": 7, "velocity": 102}, {"time": 2358, "pitch": 62, "duration": 7, "velocity": 104}, {"time": 2358, "pitch": 67, "duration": 7, "velocity": 98}, {"time": 2364, "pitch": 50, "duration": 13, "velocity": 64}, {"time": 2367, "pitch": 58, "duration": 8, "velocity": 92}, {"time": 2367, "pitch": 62, "duration": 8, "velocity": 96}, {"time": 2367, "pitch": 67, "duration": 8, "velocity": 90}, {"time": 2373, "pitch": 55, "duration": 7, "velocity": 86}, {"time": 2376, "pitch": 58, "duration": 12, "velocity": 87}, {"time": 2376, "pitch": 62, "duration": 13, "velocity": 87}, {"time": 2376, "pitch": 67, "duration": 12, "velocity": 87}, {"time": 2382, "pitch": 43, "duration": 19, "velocity": 107}, {"time": 2388, "pitch": 50, "duration": 13, "velocity": 80}, {"time": 2391, "pitch": 58, "duration": 6, "velocity": 92}, {"time": 2391, "pitch": 62, "duration": 6, "velocity": 98}, {"time": 2391, "pitch": 67, "duration": 6, "velocity": 92}, {"time": 2397, "pitch": 55, "duration": 4, "velocity": 88}, {"time": 2400, "pitch": 58, "duration": 4, "velocity": 92}, {"time": 2400, "pitch": 62, "duration": 4, "velocity": 98}, {"time": 2400, "pitch": 67, "duration": 4, "velocity": 89}, {"time": 2406, "pitch": 39, "duration": 17, "velocity": 89}, {"time": 2406, "pitch": 51, "duration": 17, "velocity": 88}, {"time": 2406, "pitch": 58, "duration": 8, "velocity": 104}, {"time": 2406, "pitch": 63, "duration": 8, "velocity": 108}, {"time": 2406, "pitch": 67, "duration": 7, "velocity": 96}, {"time": 2418, "pitch": 58, "duration": 9, "velocity": 104}, {"time": 2418, "pitch": 63, "duration": 9, "velocity": 110}, {"time": 2418, "pitch": 67, "duration": 9, "velocity": 98}, {"time": 2427, "pitch": 38, "duration": 1, "velocity": 88}, {"time": 2427, "pitch": 50, "duration": 1, "velocity": 93}, {"time": 2430, "pitch": 36, "duration": 8, "velocity": 94}, {"time": 2430, "pitch": 38, "duration": 3, "velocity": 91}, {"time": 2430, "pitch": 48, "duration": 8, "velocity": 87}, {"time": 2430, "pitch": 60, "duration": 8, "velocity": 102}, {"time": 2430, "pitch": 63, "duration": 8, "velocity": 102}, {"time": 2430, "pitch": 67, "duration": 8, "velocity": 96}, {"time": 2442, "pitch": 36, "duration": 6, "velocity": 88}, {"time": 2442, "pitch": 48, "duration": 7, "velocity": 93}, {"time": 2442, "pitch": 60, "duration": 10, "velocity": 100}, {"time": 2442, "pitch": 63, "duration": 7, "velocity": 108}, {"time": 2442, "pitch": 67, "duration": 7, "velocity": 94}, {"time": 2454, "pitch": 41, "duration": 18, "velocity": 100}, {"time": 2454, "pitch": 57, "duration": 9, "velocity": 100}, {"time": 2454, "pitch": 60, "duration": 9, "velocity": 108}, {"time": 2454, "pitch": 65, "duration": 9, "velocity": 100}, {"time": 2460, "pitch": 48, "duration": 17, "velocity": 77}, {"time": 2463, "pitch": 53, "duration": 4, "velocity": 98}, {"time": 2466, "pitch": 57, "duration": 10, "velocity": 110}, {"time": 2466, "pitch": 60, "duration": 10, "velocity": 116}, {"time": 2466, "pitch": 65, "duration": 9, "velocity": 102}, {"time": 2472, "pitch": 53, "duration": 4, "velocity": 86}, {"time": 2478, "pitch": 41, "duration": 9, "velocity": 100}, {"time": 2478, "pitch": 57, "duration": 6, "velocity": 102}, {"time": 2478, "pitch": 60, "duration": 6, "velocity": 114}, {"time": 2478, "pitch": 65, "duration": 6, "velocity": 102}, {"time": 2481, "pitch": 48, "duration": 7, "velocity": 87}, {"time": 2484, "pitch": 53, "duration": 3, "velocity": 107}, {"time": 2487, "pitch": 57, "duration": 6, "velocity": 102}, {"time": 2487, "pitch": 60, "duration": 6, "velocity": 116}, {"time": 2487, "pitch": 65, "duration": 6, "velocity": 104}, {"time": 2490, "pitch": 43, "duration": 5, "velocity": 110}, {"time": 2496, "pitch": 45, "duration": 3, "velocity": 93}, {"time": 2496, "pitch": 57, "duration": 3, "velocity": 96}, {"time": 2496, "pitch": 60, "duration": 4, "velocity": 113}, {"time": 2496, "pitch": 65, "duration": 3, "velocity": 96}, {"time": 2502, "pitch": 46, "duration": 21, "velocity": 108}, {"time": 2502, "pitch": 58, "duration": 3, "velocity": 104}, {"time": 2502, "pitch": 62, "duration": 7, "velocity": 113}, {"time": 2502, "pitch": 65, "duration": 6, "velocity": 107}, {"time": 2508, "pitch": 53, "duration": 18, "velocity": 75}, {"time": 2511, "pitch": 58, "duration": 4, "velocity": 87}, {"time": 2514, "pitch": 62, "duration": 7, "velocity": 110}, {"time": 2514, "pitch": 65, "duration": 7, "velocity": 116}, {"time": 2514, "pitch": 70, "duration": 7, "velocity": 102}, {"time": 2520, "pitch": 58, "duration": 6, "velocity": 84}, {"time": 2523, "pitch": 62, "duration": 1, "velocity": 98}, {"time": 2523, "pitch": 65, "duration": 1, "velocity": 107}, {"time": 2523, "pitch": 70, "duration": 1, "velocity": 88}, {"time": 2526, "pitch": 46, "duration": 15, "velocity": 88}, {"time": 2526, "pitch": 62, "duration": 9, "velocity": 108}, {"time": 2526, "pitch": 65, "duration": 9, "velocity": 114}, {"time": 2526, "pitch": 70, "duration": 9, "velocity": 100}, {"time": 2532, "pitch": 53, "duration": 10, "velocity": 74}, {"time": 2535, "pitch": 58, "duration": 4, "velocity": 96}, {"time": 2538, "pitch": 62, "duration": 8, "velocity": 113}, {"time": 2538, "pitch": 65, "duration": 9, "velocity": 117}, {"time": 2538, "pitch": 70, "duration": 8, "velocity": 104}, {"time": 2544, "pitch": 45, "duration": 5, "velocity": 90}, {"time": 2550, "pitch": 43, "duration": 21, "velocity": 107}, {"time": 2550, "pitch": 62, "duration": 9, "velocity": 107}, {"time": 2550, "pitch": 67, "duration": 9, "velocity": 113}, {"time": 2550, "pitch": 70, "duration": 9, "velocity": 96}, {"time": 2556, "pitch": 50, "duration": 12, "velocity": 73}, {"time": 2559, "pitch": 55, "duration": 5, "velocity": 88}, {"time": 2562, "pitch": 62, "duration": 9, "velocity": 108}, {"time": 2562, "pitch": 67, "duration": 9, "velocity": 114}, {"time": 2562, "pitch": 70, "duration": 9, "velocity": 93}, {"time": 2568, "pitch": 55, "duration": 4, "velocity": 76}, {"time": 2571, "pitch": 50, "duration": 3, "velocity": 88}, {"time": 2574, "pitch": 43, "duration": 15, "velocity": 90}, {"time": 2574, "pitch": 62, "duration": 9, "velocity": 96}, {"time": 2574, "pitch": 67, "duration": 9, "velocity": 110}, {"time": 2574, "pitch": 70, "duration": 9, "velocity": 91}, {"time": 2577, "pitch": 50, "duration": 13, "velocity": 85}, {"time": 2580, "pitch": 55, "duration": 9, "velocity": 96}, {"time": 2586, "pitch": 62, "duration": 7, "velocity": 113}, {"time": 2586, "pitch": 67, "duration": 8, "velocity": 114}, {"time": 2586, "pitch": 70, "duration": 8, "velocity": 100}, {"time": 2592, "pitch": 41, "duration": 5, "velocity": 92}, {"time": 2598, "pitch": 39, "duration": 20, "velocity": 102}, {"time": 2598, "pitch": 63, "duration": 9, "velocity": 104}, {"time": 2598, "pitch": 67, "duration": 9, "velocity": 113}, {"time": 2598, "pitch": 70, "duration": 9, "velocity": 98}, {"time": 2604, "pitch": 46, "duration": 17, "velocity": 77}, {"time": 2607, "pitch": 51, "duration": 5, "velocity": 92}, {"time": 2610, "pitch": 63, "duration": 9, "velocity": 94}, {"time": 2610, "pitch": 67, "duration": 9, "velocity": 102}, {"time": 2610, "pitch": 70, "duration": 9, "velocity": 91}, {"time": 2616, "pitch": 51, "duration": 3, "velocity": 84}, {"time": 2622, "pitch": 39, "duration": 20, "velocity": 94}, {"time": 2622, "pitch": 63, "duration": 10, "velocity": 100}, {"time": 2622, "pitch": 67, "duration": 9, "velocity": 108}, {"time": 2622, "pitch": 70, "duration": 9, "velocity": 92}, {"time": 2628, "pitch": 46, "duration": 17, "velocity": 78}, {"time": 2631, "pitch": 51, "duration": 4, "velocity": 98}, {"time": 2634, "pitch": 63, "duration": 6, "velocity": 104}, {"time": 2634, "pitch": 67, "duration": 8, "velocity": 114}, {"time": 2634, "pitch": 70, "duration": 8, "velocity": 100}, {"time": 2640, "pitch": 51, "duration": 4, "velocity": 83}, {"time": 2646, "pitch": 41, "duration": 21, "velocity": 91}, {"time": 2646, "pitch": 60, "duration": 8, "velocity": 100}, {"time": 2646, "pitch": 65, "duration": 8, "velocity": 110}, {"time": 2646, "pitch": 69, "duration": 8, "velocity": 90}, {"time": 2652, "pitch": 48, "duration": 16, "velocity": 80}, {"time": 2655, "pitch": 53, "duration": 7, "velocity": 100}, {"time": 2661, "pitch": 57, "duration": 7, "velocity": 93}, {"time": 2661, "pitch": 60, "duration": 7, "velocity": 107}, {"time": 2661, "pitch": 65, "duration": 6, "velocity": 91}, {"time": 2667, "pitch": 53, "duration": 1, "velocity": 78}, {"time": 2670, "pitch": 41, "duration": 13, "velocity": 93}, {"time": 2670, "pitch": 57, "duration": 4, "velocity": 104}, {"time": 2670, "pitch": 60, "duration": 9, "velocity": 110}, {"time": 2670, "pitch": 65, "duration": 9, "velocity": 96}, {"time": 2676, "pitch": 48, "duration": 7, "velocity": 83}, {"time": 2679, "pitch": 53, "duration": 4, "velocity": 102}, {"time": 2682, "pitch": 57, "duration": 8, "velocity": 110}, {"time": 2682, "pitch": 60, "duration": 9, "velocity": 116}, {"time": 2682, "pitch": 65, "duration": 8, "velocity": 104}, {"time": 2688, "pitch": 40, "duration": 5, "velocity": 95}, {"time": 2694, "pitch": 38, "duration": 43, "velocity": 96}, {"time": 2694, "pitch": 57, "duration": 9, "velocity": 104}, {"time": 2694, "pitch": 62, "duration": 9, "velocity": 110}, {"time": 2694, "pitch": 65, "duration": 9, "velocity": 102}, {"time": 2700, "pitch": 45, "duration": 25, "velocity": 72}, {"time": 2703, "pitch": 50, "duration": 4, "velocity": 86}, {"time": 2706, "pitch": 57, "duration": 7, "velocity": 104}, {"time": 2706, "pitch": 62, "duration": 7, "velocity": 113}, {"time": 2706, "pitch": 65, "duration": 6, "velocity": 104}, {"time": 2712, "pitch": 50, "duration": 9, "velocity": 83}, {"time": 2715, "pitch": 57, "duration": 5, "velocity": 91}, {"time": 2715, "pitch": 62, "duration": 5, "velocity": 93}, {"time": 2715, "pitch": 65, "duration": 4, "velocity": 89}, {"time": 2721, "pitch": 57, "duration": 6, "velocity": 91}, {"time": 2721, "pitch": 62, "duration": 7, "velocity": 98}, {"time": 2721, "pitch": 65, "duration": 6, "velocity": 90}, {"time": 2727, "pitch": 45, "duration": 4, "velocity": 32}, {"time": 2727, "pitch": 50, "duration": 5, "velocity": 85}, {"time": 2730, "pitch": 57, "duration": 6, "velocity": 113}, {"time": 2730, "pitch": 62, "duration": 10, "velocity": 116}, {"time": 2730, "pitch": 65, "duration": 7, "velocity": 107}, {"time": 2736, "pitch": 45, "duration": 1, "velocity": 68}, {"time": 2736, "pitch": 50, "duration": 5, "velocity": 77}, {"time": 2742, "pitch": 43, "duration": 38, "velocity": 88}, {"time": 2742, "pitch": 58, "duration": 9, "velocity": 104}, {"time": 2742, "pitch": 62, "duration": 9, "velocity": 108}, {"time": 2742, "pitch": 67, "duration": 9, "velocity": 104}, {"time": 2748, "pitch": 50, "duration": 33, "velocity": 75}, {"time": 2751, "pitch": 55, "duration": 3, "velocity": 86}, {"time": 2754, "pitch": 58, "duration": 7, "velocity": 102}, {"time": 2754, "pitch": 62, "duration": 7, "velocity": 110}, {"time": 2754, "pitch": 67, "duration": 7, "velocity": 96}, {"time": 2760, "pitch": 55, "duration": 9, "velocity": 81}, {"time": 2763, "pitch": 58, "duration": 1, "velocity": 90}, {"time": 2763, "pitch": 62, "duration": 1, "velocity": 89}, {"time": 2763, "pitch": 67, "duration": 1, "velocity": 89}, {"time": 2769, "pitch": 58, "duration": 7, "velocity": 98}, {"time": 2769, "pitch": 62, "duration": 7, "velocity": 108}, {"time": 2769, "pitch": 67, "duration": 6, "velocity": 98}, {"time": 2775, "pitch": 55, "duration": 5, "velocity": 91}, {"time": 2778, "pitch": 58, "duration": 12, "velocity": 104}, {"time": 2778, "pitch": 62, "duration": 12, "velocity": 113}, {"time": 2778, "pitch": 67, "duration": 13, "velocity": 104}, {"time": 2784, "pitch": 43, "duration": 2, "velocity": 91}, {"time": 2790, "pitch": 39, "duration": 44, "velocity": 110}, {"time": 2796, "pitch": 46, "duration": 38, "velocity": 73}, {"time": 2799, "pitch": 51, "duration": 5, "velocity": 94}, {"time": 2802, "pitch": 55, "duration": 9, "velocity": 107}, {"time": 2802, "pitch": 58, "duration": 9, "velocity": 108}, {"time": 2802, "pitch": 63, "duration": 9, "velocity": 100}, {"time": 2814, "pitch": 55, "duration": 19, "velocity": 86}, {"time": 2814, "pitch": 58, "duration": 19, "velocity": 88}, {"time": 2814, "pitch": 63, "duration": 19, "velocity": 88}, {"time": 2838, "pitch": 39, "duration": 3, "velocity": 90}, {"time": 2838, "pitch": 51, "duration": 3, "velocity": 87}, {"time": 2838, "pitch": 58, "duration": 3, "velocity": 89}, {"time": 2838, "pitch": 63, "duration": 3, "velocity": 98}, {"time": 2838, "pitch": 67, "duration": 3, "velocity": 90}, {"time": 2844, "pitch": 39, "duration": 3, "velocity": 91}, {"time": 2844, "pitch": 51, "duration": 4, "velocity": 88}, {"time": 2844, "pitch": 58, "duration": 4, "velocity": 89}, {"time": 2844, "pitch": 63, "duration": 4, "velocity": 100}, {"time": 2844, "pitch": 67, "duration": 4, "velocity": 89}, {"time": 2850, "pitch": 39, "duration": 3, "velocity": 96}, {"time": 2850, "pitch": 51, "duration": 3, "velocity": 88}, {"time": 2850, "pitch": 58, "duration": 4, "velocity": 92}, {"time": 2850, "pitch": 63, "duration": 4, "velocity": 107}, {"time": 2850, "pitch": 67, "duration": 3, "velocity": 92}, {"time": 2856, "pitch": 39, "duration": 3, "velocity": 102}, {"time": 2856, "pitch": 51, "duration": 3, "velocity": 90}, {"time": 2856, "pitch": 58, "duration": 3, "velocity": 90}, {"time": 2856, "pitch": 63, "duration": 3, "velocity": 100}, {"time": 2856, "pitch": 67, "duration": 2, "velocity": 88}, {"time": 2862, "pitch": 41, "duration": 3, "velocity": 94}, {"time": 2862, "pitch": 53, "duration": 4, "velocity": 89}, {"time": 2862, "pitch": 57, "duration": 4, "velocity": 90}, {"time": 2862, "pitch": 60, "duration": 4, "velocity": 98}, {"time": 2862, "pitch": 65, "duration": 3, "velocity": 92}, {"time": 2868, "pitch": 41, "duration": 4, "velocity": 91}, {"time": 2868, "pitch": 53, "duration": 4, "velocity": 91}, {"time": 2868, "pitch": 57, "duration": 4, "velocity": 98}, {"time": 2868, "pitch": 60, "duration": 4, "velocity": 108}, {"time": 2868, "pitch": 65, "duration": 4, "velocity": 93}, {"time": 2874, "pitch": 41, "duration": 4, "velocity": 92}, {"time": 2874, "pitch": 53, "duration": 4, "velocity": 91}, {"time": 2874, "pitch": 57, "duration": 4, "velocity": 91}, {"time": 2874, "pitch": 60, "duration": 4, "velocity": 104}, {"time": 2874, "pitch": 65, "duration": 4, "velocity": 94}, {"time": 2880, "pitch": 41, "duration": 3, "velocity": 93}, {"time": 2880, "pitch": 53, "duration": 2, "velocity": 98}, {"time": 2880, "pitch": 57, "duration": 2, "velocity": 93}, {"time": 2880, "pitch": 60, "duration": 3, "velocity": 104}, {"time": 2880, "pitch": 65, "duration": 3, "velocity": 91}, {"time": 2886, "pitch": 39, "duration": 4, "velocity": 88}, {"time": 2886, "pitch": 42, "duration": 4, "velocity": 93}, {"time": 2886, "pitch": 54, "duration": 4, "velocity": 93}, {"time": 2886, "pitch": 63, "duration": 4, "velocity": 94}, {"time": 2886, "pitch": 66, "duration": 4, "velocity": 106}, {"time": 2886, "pitch": 70, "duration": 4, "velocity": 98}, {"time": 2892, "pitch": 39, "duration": 4, "velocity": 100}, {"time": 2892, "pitch": 42, "duration": 3, "velocity": 90}, {"time": 2892, "pitch": 54, "duration": 3, "velocity": 89}, {"time": 2892, "pitch": 63, "duration": 3, "velocity": 94}, {"time": 2892, "pitch": 66, "duration": 3, "velocity": 106}, {"time": 2892, "pitch": 70, "duration": 3, "velocity": 92}, {"time": 2898, "pitch": 39, "duration": 3, "velocity": 96}, {"time": 2898, "pitch": 42, "duration": 2, "velocity": 91}, {"time": 2898, "pitch": 54, "duration": 2, "velocity": 90}, {"time": 2898, "pitch": 63, "duration": 2, "velocity": 96}, {"time": 2898, "pitch": 66, "duration": 2, "velocity": 109}, {"time": 2898, "pitch": 70, "duration": 2, "velocity": 91}, {"time": 2904, "pitch": 39, "duration": 2, "velocity": 94}, {"time": 2904, "pitch": 41, "duration": 12, "velocity": 88}, {"time": 2904, "pitch": 53, "duration": 12, "velocity": 91}, {"time": 2904, "pitch": 60, "duration": 12, "velocity": 98}, {"time": 2904, "pitch": 65, "duration": 12, "velocity": 114}, {"time": 2904, "pitch": 69, "duration": 12, "velocity": 102}, {"time": 2910, "pitch": 41, "duration": 6, "velocity": 91}, {"time": 2934, "pitch": 46, "duration": 43, "velocity": 107}, {"time": 2934, "pitch": 58, "duration": 11, "velocity": 91}, {"time": 2934, "pitch": 62, "duration": 11, "velocity": 94}, {"time": 2934, "pitch": 65, "duration": 10, "velocity": 92}, {"time": 2946, "pitch": 58, "duration": 9, "velocity": 91}, {"time": 2946, "pitch": 62, "duration": 9, "velocity": 96}, {"time": 2946, "pitch": 65, "duration": 8, "velocity": 94}, {"time": 2955, "pitch": 53, "duration": 7, "velocity": 77}, {"time": 2958, "pitch": 58, "duration": 9, "velocity": 98}, {"time": 2958, "pitch": 62, "duration": 9, "velocity": 104}, {"time": 2958, "pitch": 65, "duration": 8, "velocity": 98}, {"time": 2967, "pitch": 53, "duration": 10, "velocity": 81}, {"time": 2970, "pitch": 58, "duration": 8, "velocity": 100}, {"time": 2970, "pitch": 62, "duration": 8, "velocity": 108}, {"time": 2970, "pitch": 65, "duration": 8, "velocity": 96}, {"time": 2982, "pitch": 43, "duration": 20, "velocity": 91}, {"time": 2982, "pitch": 58, "duration": 9, "velocity": 93}, {"time": 2982, "pitch": 62, "duration": 9, "velocity": 94}, {"time": 2982, "pitch": 67, "duration": 9, "velocity": 98}, {"time": 2991, "pitch": 55, "duration": 11, "velocity": 80}, {"time": 2994, "pitch": 58, "duration": 9, "velocity": 98}, {"time": 2994, "pitch": 62, "duration": 9, "velocity": 102}, {"time": 2994, "pitch": 67, "duration": 9, "velocity": 94}, {"time": 3003, "pitch": 50, "duration": 3, "velocity": 83}, {"time": 3006, "pitch": 43, "duration": 20, "velocity": 88}, {"time": 3006, "pitch": 58, "duration": 9, "velocity": 93}, {"time": 3006, "pitch": 62, "duration": 9, "velocity": 92}, {"time": 3006, "pitch": 67, "duration": 9, "velocity": 91}, {"time": 3012, "pitch": 50, "duration": 14, "velocity": 80}, {"time": 3015, "pitch": 55, "duration": 5, "velocity": 98}, {"time": 3018, "pitch": 58, "duration": 10, "velocity": 107}, {"time": 3018, "pitch": 62, "duration": 10, "velocity": 108}, {"time": 3018, "pitch": 67, "duration": 10, "velocity": 96}, {"time": 3024, "pitch": 55, "duration": 1, "velocity": 87}, {"time": 3030, "pitch": 39, "duration": 21, "velocity": 94}, {"time": 3030, "pitch": 58, "duration": 9, "velocity": 98}, {"time": 3030, "pitch": 63, "duration": 9, "velocity": 100}, {"time": 3030, "pitch": 67, "duration": 10, "velocity": 93}, {"time": 3039, "pitch": 51, "duration": 6, "velocity": 87}, {"time": 3042, "pitch": 58, "duration": 10, "velocity": 107}, {"time": 3042, "pitch": 63, "duration": 10, "velocity": 107}, {"time": 3042, "pitch": 67, "duration": 10, "velocity": 102}, {"time": 3051, "pitch": 51, "duration": 3, "velocity": 83}, {"time": 3054, "pitch": 39, "duration": 20, "velocity": 92}, {"time": 3054, "pitch": 58, "duration": 9, "velocity": 107}, {"time": 3054, "pitch": 63, "duration": 9, "velocity": 110}, {"time": 3054, "pitch": 67, "duration": 9, "velocity": 107}, {"time": 3063, "pitch": 51, "duration": 4, "velocity": 89}, {"time": 3066, "pitch": 58, "duration": 6, "velocity": 107}, {"time": 3066, "pitch": 63, "duration": 9, "velocity": 104}, {"time": 3066, "pitch": 67, "duration": 8, "velocity": 98}, {"time": 3072, "pitch": 51, "duration": 5, "velocity": 85}, {"time": 3078, "pitch": 41, "duration": 19, "velocity": 93}, {"time": 3078, "pitch": 57, "duration": 9, "velocity": 98}, {"time": 3078, "pitch": 60, "duration": 9, "velocity": 113}, {"time": 3078, "pitch": 65, "duration": 8, "velocity": 102}, {"time": 3084, "pitch": 48, "duration": 18, "velocity": 65}, {"time": 3087, "pitch": 53, "duration": 4, "velocity": 93}, {"time": 3090, "pitch": 57, "duration": 10, "velocity": 107}, {"time": 3090, "pitch": 60, "duration": 10, "velocity": 114}, {"time": 3090, "pitch": 65, "duration": 9, "velocity": 100}, {"time": 3096, "pitch": 53, "duration": 4, "velocity": 74}, {"time": 3102, "pitch": 41, "duration": 21, "velocity": 93}, {"time": 3102, "pitch": 57, "duration": 7, "velocity": 92}, {"time": 3102, "pitch": 60, "duration": 7, "velocity": 107}, {"time": 3102, "pitch": 65, "duration": 7, "velocity": 93}, {"time": 3105, "pitch": 48, "duration": 7, "velocity": 86}, {"time": 3108, "pitch": 53, "duration": 4, "velocity": 114}, {"time": 3111, "pitch": 57, "duration": 7, "velocity": 107}, {"time": 3111, "pitch": 60, "duration": 7, "velocity": 116}, {"time": 3111, "pitch": 65, "duration": 7, "velocity": 102}, {"time": 3114, "pitch": 53, "duration": 4, "velocity": 94}, {"time": 3117, "pitch": 48, "duration": 6, "velocity": 91}, {"time": 3120, "pitch": 57, "duration": 3, "velocity": 90}, {"time": 3120, "pitch": 60, "duration": 4, "velocity": 94}, {"time": 3120, "pitch": 65, "duration": 3, "velocity": 90}, {"time": 3123, "pitch": 53, "duration": 1, "velocity": 83}, {"time": 3126, "pitch": 38, "duration": 22, "velocity": 104}, {"time": 3126, "pitch": 67, "duration": 1, "velocity": 87}, {"time": 3135, "pitch": 50, "duration": 4, "velocity": 104}, {"time": 3138, "pitch": 57, "duration": 7, "velocity": 110}, {"time": 3138, "pitch": 62, "duration": 7, "velocity": 107}, {"time": 3138, "pitch": 65, "duration": 7, "velocity": 102}, {"time": 3144, "pitch": 50, "duration": 6, "velocity": 87}, {"time": 3147, "pitch": 57, "duration": 13, "velocity": 93}, {"time": 3147, "pitch": 62, "duration": 12, "velocity": 100}, {"time": 3147, "pitch": 65, "duration": 12, "velocity": 90}, {"time": 3150, "pitch": 38, "duration": 17, "velocity": 91}, {"time": 3159, "pitch": 50, "duration": 3, "velocity": 100}, {"time": 3162, "pitch": 57, "duration": 8, "velocity": 107}, {"time": 3162, "pitch": 62, "duration": 10, "velocity": 113}, {"time": 3162, "pitch": 65, "duration": 7, "velocity": 107}, {"time": 3168, "pitch": 50, "duration": 5, "velocity": 96}, {"time": 3174, "pitch": 43, "duration": 22, "velocity": 89}, {"time": 3174, "pitch": 58, "duration": 7, "velocity": 102}, {"time": 3174, "pitch": 62, "duration": 7, "velocity": 104}, {"time": 3174, "pitch": 67, "duration": 7, "velocity": 98}, {"time": 3180, "pitch": 50, "duration": 13, "velocity": 64}, {"time": 3183, "pitch": 58, "duration": 8, "velocity": 92}, {"time": 3183, "pitch": 62, "duration": 8, "velocity": 96}, {"time": 3183, "pitch": 67, "duration": 8, "velocity": 90}, {"time": 3189, "pitch": 55, "duration": 7, "velocity": 86}, {"time": 3192, "pitch": 58, "duration": 12, "velocity": 87}, {"time": 3192, "pitch": 62, "duration": 13, "velocity": 87}, {"time": 3192, "pitch": 67, "duration": 12, "velocity": 87}, {"time": 3198, "pitch": 43, "duration": 19, "velocity": 107}, {"time": 3204, "pitch": 50, "duration": 13, "velocity": 80}, {"time": 3207, "pitch": 58, "duration": 6, "velocity": 92}, {"time": 3207, "pitch": 62, "duration": 6, "velocity": 98}, {"time": 3207, "pitch": 67, "duration": 6, "velocity": 92}, {"time": 3213, "pitch": 55, "duration": 4, "velocity": 88}, {"time": 3216, "pitch": 58, "duration": 4, "velocity": 92}, {"time": 3216, "pitch": 62, "duration": 4, "velocity": 98}, {"time": 3216, "pitch": 67, "duration": 4, "velocity": 89}, {"time": 3222, "pitch": 39, "duration": 19, "velocity": 81}, {"time": 3222, "pitch": 51, "duration": 20, "velocity": 81}, {"time": 3222, "pitch": 58, "duration": 19, "velocity": 85}, {"time": 3222, "pitch": 63, "duration": 19, "velocity": 87}, {"time": 3222, "pitch": 67, "duration": 19, "velocity": 87}, {"time": 3246, "pitch": 41, "duration": 20, "velocity": 75}, {"time": 3246, "pitch": 53, "duration": 21, "velocity": 73}, {"time": 3246, "pitch": 57, "duration": 22, "velocity": 65}, {"time": 3246, "pitch": 60, "duration": 23, "velocity": 69}, {"time": 3246, "pitch": 65, "duration": 25, "velocity": 72}, {"time": 3270, "pitch": 46, "duration": 31, "velocity": 74}, {"time": 3276, "pitch": 53, "duration": 25, "velocity": 69}, {"time": 3282, "pitch": 58, "duration": 18, "velocity": 73}, {"time": 3288, "pitch": 62, "duration": 1, "velocity": 72}, {"time": 3288, "pitch": 70, "duration": 1, "velocity": 71}, {"time": 3318, "pitch": 39, "duration": 19, "velocity": 77}, {"time": 3318, "pitch": 55, "duration": 23, "velocity": 74}, {"time": 3318, "pitch": 63, "duration": 23, "velocity": 70}, {"time": 3323, "pitch": 46, "duration": 18, "velocity": 48}, {"time": 3329, "pitch": 51, "duration": 11, "velocity": 74}, {"time": 3341, "pitch": 41, "duration": 30, "velocity": 78}, {"time": 3348, "pitch": 48, "duration": 22, "velocity": 70}, {"time": 3355, "pitch": 65, "duration": 16, "velocity": 70}, {"time": 3355, "pitch": 57, "duration": 19, "velocity": 65}, {"time": 3355, "pitch": 53, "duration": 16, "velocity": 38}, {"time": 3387, "pitch": 46, "duration": 59, "velocity": 78}, {"time": 3393, "pitch": 53, "duration": 52, "velocity": 46}, {"time": 3399, "pitch": 58, "duration": 46, "velocity": 66}, {"time": 3406, "pitch": 62, "duration": 16, "velocity": 69}, {"time": 3413, "pitch": 69, "duration": 7, "velocity": 38}, {"time": 3421, "pitch": 72, "duration": 2, "velocity": 66}, {"time": 3428, "pitch": 74, "duration": 18, "velocity": 69}, {"time": 3433, "pitch": 84, "duration": 13, "velocity": 81}, {"time": 3441, "pitch": 81, "duration": 4, "velocity": 54}]}]}