{"metadata": {"schema_version": "0.2", "title": "None", "source_filename": "302.mid", "source_format": "midi"}, "resolution": 12, "tempos": [{"time": 0, "qpm": 70.00007000007}], "time_signatures": [{"time": 0, "numerator": 4, "denominator": 4}], "tracks": [{"program": 0, "is_drum": false, "name": "MELODY", "notes": [{"time": 585, "pitch": 72, "duration": 3, "velocity": 108}, {"time": 588, "pitch": 72, "duration": 3, "velocity": 102}, {"time": 591, "pitch": 72, "duration": 9, "velocity": 108}, {"time": 600, "pitch": 72, "duration": 3, "velocity": 117}, {"time": 603, "pitch": 70, "duration": 6, "velocity": 110}, {"time": 609, "pitch": 68, "duration": 3, "velocity": 104}, {"time": 612, "pitch": 72, "duration": 21, "velocity": 119}, {"time": 633, "pitch": 70, "duration": 3, "velocity": 104}, {"time": 636, "pitch": 70, "duration": 3, "velocity": 100}, {"time": 639, "pitch": 70, "duration": 9, "velocity": 107}, {"time": 648, "pitch": 72, "duration": 3, "velocity": 114}, {"time": 651, "pitch": 70, "duration": 6, "velocity": 108}, {"time": 657, "pitch": 68, "duration": 3, "velocity": 100}, {"time": 660, "pitch": 65, "duration": 21, "velocity": 100}, {"time": 681, "pitch": 63, "duration": 3, "velocity": 91}, {"time": 684, "pitch": 63, "duration": 3, "velocity": 94}, {"time": 687, "pitch": 63, "duration": 6, "velocity": 98}, {"time": 693, "pitch": 65, "duration": 3, "velocity": 96}, {"time": 696, "pitch": 67, "duration": 9, "velocity": 97}, {"time": 705, "pitch": 67, "duration": 6, "velocity": 100}, {"time": 711, "pitch": 65, "duration": 6, "velocity": 96}, {"time": 717, "pitch": 63, "duration": 3, "velocity": 88}, {"time": 720, "pitch": 65, "duration": 57, "velocity": 92}, {"time": 777, "pitch": 72, "duration": 3, "velocity": 108}, {"time": 780, "pitch": 72, "duration": 3, "velocity": 100}, {"time": 783, "pitch": 72, "duration": 9, "velocity": 107}, {"time": 792, "pitch": 72, "duration": 3, "velocity": 110}, {"time": 795, "pitch": 70, "duration": 6, "velocity": 107}, {"time": 801, "pitch": 68, "duration": 3, "velocity": 100}, {"time": 804, "pitch": 72, "duration": 21, "velocity": 113}, {"time": 825, "pitch": 70, "duration": 3, "velocity": 107}, {"time": 828, "pitch": 70, "duration": 3, "velocity": 100}, {"time": 831, "pitch": 70, "duration": 9, "velocity": 104}, {"time": 840, "pitch": 72, "duration": 3, "velocity": 96}, {"time": 843, "pitch": 70, "duration": 6, "velocity": 102}, {"time": 849, "pitch": 68, "duration": 3, "velocity": 93}, {"time": 852, "pitch": 65, "duration": 21, "velocity": 92}, {"time": 873, "pitch": 63, "duration": 3, "velocity": 100}, {"time": 876, "pitch": 63, "duration": 3, "velocity": 102}, {"time": 879, "pitch": 63, "duration": 6, "velocity": 104}, {"time": 885, "pitch": 65, "duration": 3, "velocity": 100}, {"time": 888, "pitch": 67, "duration": 9, "velocity": 113}, {"time": 897, "pitch": 67, "duration": 12, "velocity": 116}, {"time": 909, "pitch": 68, "duration": 3, "velocity": 108}, {"time": 912, "pitch": 67, "duration": 3, "velocity": 90}, {"time": 915, "pitch": 67, "duration": 9, "velocity": 106}, {"time": 924, "pitch": 67, "duration": 33, "velocity": 102}, {"time": 957, "pitch": 68, "duration": 3, "velocity": 110}, {"time": 960, "pitch": 70, "duration": 3, "velocity": 110}, {"time": 963, "pitch": 72, "duration": 6, "velocity": 114}, {"time": 969, "pitch": 75, "duration": 6, "velocity": 114}, {"time": 975, "pitch": 75, "duration": 6, "velocity": 116}, {"time": 981, "pitch": 72, "duration": 3, "velocity": 102}, {"time": 984, "pitch": 75, "duration": 18, "velocity": 116}, {"time": 1002, "pitch": 72, "duration": 3, "velocity": 116}, {"time": 1005, "pitch": 72, "duration": 3, "velocity": 110}, {"time": 1008, "pitch": 73, "duration": 3, "velocity": 113}, {"time": 1011, "pitch": 72, "duration": 6, "velocity": 113}, {"time": 1017, "pitch": 70, "duration": 3, "velocity": 110}, {"time": 1020, "pitch": 70, "duration": 33, "velocity": 110}, {"time": 1053, "pitch": 72, "duration": 6, "velocity": 116}, {"time": 1059, "pitch": 70, "duration": 6, "velocity": 110}, {"time": 1065, "pitch": 68, "duration": 3, "velocity": 116}, {"time": 1068, "pitch": 65, "duration": 33, "velocity": 108}, {"time": 1101, "pitch": 68, "duration": 3, "velocity": 107}, {"time": 1104, "pitch": 70, "duration": 3, "velocity": 108}, {"time": 1107, "pitch": 72, "duration": 6, "velocity": 110}, {"time": 1113, "pitch": 72, "duration": 6, "velocity": 113}, {"time": 1119, "pitch": 73, "duration": 6, "velocity": 113}, {"time": 1125, "pitch": 72, "duration": 3, "velocity": 104}, {"time": 1128, "pitch": 72, "duration": 9, "velocity": 110}, {"time": 1137, "pitch": 70, "duration": 12, "velocity": 104}, {"time": 1149, "pitch": 68, "duration": 3, "velocity": 107}, {"time": 1152, "pitch": 70, "duration": 3, "velocity": 100}, {"time": 1155, "pitch": 72, "duration": 6, "velocity": 114}, {"time": 1161, "pitch": 75, "duration": 6, "velocity": 114}, {"time": 1167, "pitch": 75, "duration": 6, "velocity": 114}, {"time": 1173, "pitch": 72, "duration": 3, "velocity": 100}, {"time": 1176, "pitch": 77, "duration": 6, "velocity": 117}, {"time": 1182, "pitch": 77, "duration": 3, "velocity": 117}, {"time": 1185, "pitch": 75, "duration": 9, "velocity": 114}, {"time": 1194, "pitch": 72, "duration": 3, "velocity": 98}, {"time": 1197, "pitch": 72, "duration": 3, "velocity": 107}, {"time": 1200, "pitch": 73, "duration": 3, "velocity": 104}, {"time": 1203, "pitch": 72, "duration": 6, "velocity": 114}, {"time": 1209, "pitch": 70, "duration": 3, "velocity": 113}, {"time": 1212, "pitch": 70, "duration": 33, "velocity": 114}, {"time": 1245, "pitch": 70, "duration": 3, "velocity": 113}, {"time": 1248, "pitch": 72, "duration": 3, "velocity": 91}, {"time": 1251, "pitch": 70, "duration": 6, "velocity": 114}, {"time": 1257, "pitch": 68, "duration": 3, "velocity": 114}, {"time": 1260, "pitch": 65, "duration": 21, "velocity": 110}, {"time": 1281, "pitch": 67, "duration": 3, "velocity": 119}, {"time": 1284, "pitch": 68, "duration": 4, "velocity": 91}, {"time": 1287, "pitch": 67, "duration": 6, "velocity": 116}, {"time": 1293, "pitch": 63, "duration": 3, "velocity": 110}, {"time": 1296, "pitch": 65, "duration": 5, "velocity": 113}, {"time": 1497, "pitch": 72, "duration": 3, "velocity": 108}, {"time": 1500, "pitch": 72, "duration": 3, "velocity": 102}, {"time": 1503, "pitch": 72, "duration": 9, "velocity": 108}, {"time": 1512, "pitch": 72, "duration": 3, "velocity": 117}, {"time": 1515, "pitch": 70, "duration": 6, "velocity": 110}, {"time": 1521, "pitch": 68, "duration": 3, "velocity": 104}, {"time": 1524, "pitch": 72, "duration": 21, "velocity": 119}, {"time": 1545, "pitch": 70, "duration": 3, "velocity": 104}, {"time": 1548, "pitch": 70, "duration": 3, "velocity": 100}, {"time": 1551, "pitch": 70, "duration": 9, "velocity": 107}, {"time": 1560, "pitch": 72, "duration": 3, "velocity": 114}, {"time": 1563, "pitch": 70, "duration": 6, "velocity": 108}, {"time": 1569, "pitch": 68, "duration": 3, "velocity": 100}, {"time": 1572, "pitch": 65, "duration": 21, "velocity": 100}, {"time": 1593, "pitch": 63, "duration": 3, "velocity": 91}, {"time": 1596, "pitch": 63, "duration": 3, "velocity": 94}, {"time": 1599, "pitch": 63, "duration": 6, "velocity": 98}, {"time": 1605, "pitch": 65, "duration": 3, "velocity": 96}, {"time": 1608, "pitch": 67, "duration": 9, "velocity": 97}, {"time": 1617, "pitch": 67, "duration": 6, "velocity": 100}, {"time": 1623, "pitch": 65, "duration": 6, "velocity": 96}, {"time": 1629, "pitch": 63, "duration": 3, "velocity": 88}, {"time": 1632, "pitch": 65, "duration": 57, "velocity": 92}, {"time": 1689, "pitch": 72, "duration": 3, "velocity": 108}, {"time": 1692, "pitch": 72, "duration": 3, "velocity": 100}, {"time": 1695, "pitch": 72, "duration": 9, "velocity": 107}, {"time": 1704, "pitch": 72, "duration": 3, "velocity": 110}, {"time": 1707, "pitch": 70, "duration": 6, "velocity": 107}, {"time": 1713, "pitch": 68, "duration": 3, "velocity": 100}, {"time": 1716, "pitch": 72, "duration": 21, "velocity": 113}, {"time": 1737, "pitch": 70, "duration": 3, "velocity": 107}, {"time": 1740, "pitch": 70, "duration": 3, "velocity": 100}, {"time": 1743, "pitch": 70, "duration": 9, "velocity": 104}, {"time": 1752, "pitch": 72, "duration": 3, "velocity": 96}, {"time": 1755, "pitch": 70, "duration": 6, "velocity": 102}, {"time": 1761, "pitch": 68, "duration": 3, "velocity": 93}, {"time": 1764, "pitch": 65, "duration": 21, "velocity": 92}, {"time": 1785, "pitch": 63, "duration": 3, "velocity": 100}, {"time": 1788, "pitch": 63, "duration": 3, "velocity": 102}, {"time": 1791, "pitch": 63, "duration": 6, "velocity": 104}, {"time": 1797, "pitch": 65, "duration": 3, "velocity": 100}, {"time": 1800, "pitch": 67, "duration": 9, "velocity": 113}, {"time": 1809, "pitch": 67, "duration": 12, "velocity": 116}, {"time": 1821, "pitch": 68, "duration": 3, "velocity": 108}, {"time": 1824, "pitch": 67, "duration": 3, "velocity": 90}, {"time": 1827, "pitch": 67, "duration": 9, "velocity": 106}, {"time": 1836, "pitch": 67, "duration": 33, "velocity": 102}, {"time": 1869, "pitch": 68, "duration": 3, "velocity": 110}, {"time": 1872, "pitch": 70, "duration": 3, "velocity": 110}, {"time": 1875, "pitch": 72, "duration": 6, "velocity": 114}, {"time": 1881, "pitch": 75, "duration": 6, "velocity": 114}, {"time": 1887, "pitch": 75, "duration": 6, "velocity": 116}, {"time": 1893, "pitch": 72, "duration": 3, "velocity": 102}, {"time": 1896, "pitch": 75, "duration": 18, "velocity": 116}, {"time": 1914, "pitch": 72, "duration": 3, "velocity": 116}, {"time": 1917, "pitch": 72, "duration": 3, "velocity": 110}, {"time": 1920, "pitch": 73, "duration": 3, "velocity": 113}, {"time": 1923, "pitch": 72, "duration": 6, "velocity": 113}, {"time": 1929, "pitch": 70, "duration": 3, "velocity": 110}, {"time": 1932, "pitch": 70, "duration": 33, "velocity": 110}, {"time": 1965, "pitch": 72, "duration": 6, "velocity": 116}, {"time": 1971, "pitch": 70, "duration": 6, "velocity": 110}, {"time": 1977, "pitch": 68, "duration": 3, "velocity": 116}, {"time": 1980, "pitch": 65, "duration": 33, "velocity": 108}, {"time": 2013, "pitch": 68, "duration": 3, "velocity": 107}, {"time": 2016, "pitch": 70, "duration": 3, "velocity": 108}, {"time": 2019, "pitch": 72, "duration": 6, "velocity": 110}, {"time": 2025, "pitch": 72, "duration": 6, "velocity": 113}, {"time": 2031, "pitch": 73, "duration": 6, "velocity": 113}, {"time": 2037, "pitch": 72, "duration": 3, "velocity": 104}, {"time": 2040, "pitch": 72, "duration": 9, "velocity": 110}, {"time": 2049, "pitch": 70, "duration": 12, "velocity": 104}, {"time": 2061, "pitch": 68, "duration": 3, "velocity": 107}, {"time": 2064, "pitch": 70, "duration": 3, "velocity": 100}, {"time": 2067, "pitch": 72, "duration": 6, "velocity": 114}, {"time": 2073, "pitch": 75, "duration": 6, "velocity": 114}, {"time": 2079, "pitch": 75, "duration": 6, "velocity": 114}, {"time": 2085, "pitch": 72, "duration": 3, "velocity": 100}, {"time": 2088, "pitch": 77, "duration": 6, "velocity": 117}, {"time": 2094, "pitch": 77, "duration": 3, "velocity": 117}, {"time": 2097, "pitch": 75, "duration": 9, "velocity": 114}, {"time": 2106, "pitch": 72, "duration": 3, "velocity": 98}, {"time": 2109, "pitch": 72, "duration": 3, "velocity": 107}, {"time": 2112, "pitch": 73, "duration": 3, "velocity": 104}, {"time": 2115, "pitch": 72, "duration": 6, "velocity": 114}, {"time": 2121, "pitch": 70, "duration": 3, "velocity": 113}, {"time": 2124, "pitch": 70, "duration": 33, "velocity": 114}, {"time": 2157, "pitch": 70, "duration": 3, "velocity": 113}, {"time": 2160, "pitch": 72, "duration": 3, "velocity": 91}, {"time": 2163, "pitch": 70, "duration": 6, "velocity": 114}, {"time": 2169, "pitch": 68, "duration": 3, "velocity": 114}, {"time": 2172, "pitch": 65, "duration": 21, "velocity": 110}, {"time": 2193, "pitch": 67, "duration": 3, "velocity": 119}, {"time": 2196, "pitch": 68, "duration": 4, "velocity": 91}, {"time": 2199, "pitch": 67, "duration": 6, "velocity": 116}, {"time": 2205, "pitch": 63, "duration": 3, "velocity": 110}, {"time": 2208, "pitch": 65, "duration": 5, "velocity": 113}, {"time": 2974, "pitch": 68, "duration": 4, "velocity": 110}, {"time": 2977, "pitch": 70, "duration": 3, "velocity": 110}, {"time": 2980, "pitch": 72, "duration": 6, "velocity": 114}, {"time": 2986, "pitch": 75, "duration": 6, "velocity": 114}, {"time": 2992, "pitch": 75, "duration": 6, "velocity": 116}, {"time": 2998, "pitch": 72, "duration": 3, "velocity": 102}, {"time": 3001, "pitch": 75, "duration": 18, "velocity": 116}, {"time": 3019, "pitch": 72, "duration": 3, "velocity": 116}, {"time": 3022, "pitch": 72, "duration": 3, "velocity": 110}, {"time": 3025, "pitch": 73, "duration": 3, "velocity": 113}, {"time": 3028, "pitch": 72, "duration": 6, "velocity": 113}, {"time": 3034, "pitch": 70, "duration": 3, "velocity": 110}, {"time": 3037, "pitch": 70, "duration": 33, "velocity": 110}, {"time": 3070, "pitch": 72, "duration": 6, "velocity": 116}, {"time": 3076, "pitch": 70, "duration": 6, "velocity": 110}, {"time": 3082, "pitch": 68, "duration": 3, "velocity": 116}, {"time": 3085, "pitch": 65, "duration": 33, "velocity": 108}, {"time": 3118, "pitch": 68, "duration": 4, "velocity": 107}, {"time": 3121, "pitch": 70, "duration": 3, "velocity": 108}, {"time": 3124, "pitch": 72, "duration": 6, "velocity": 110}, {"time": 3130, "pitch": 72, "duration": 6, "velocity": 113}, {"time": 3136, "pitch": 73, "duration": 6, "velocity": 113}, {"time": 3142, "pitch": 72, "duration": 3, "velocity": 104}, {"time": 3145, "pitch": 72, "duration": 9, "velocity": 110}, {"time": 3154, "pitch": 70, "duration": 12, "velocity": 104}, {"time": 3166, "pitch": 68, "duration": 3, "velocity": 107}, {"time": 3169, "pitch": 70, "duration": 3, "velocity": 100}, {"time": 3172, "pitch": 72, "duration": 6, "velocity": 114}, {"time": 3178, "pitch": 75, "duration": 6, "velocity": 114}, {"time": 3184, "pitch": 75, "duration": 6, "velocity": 114}, {"time": 3190, "pitch": 72, "duration": 3, "velocity": 100}, {"time": 3193, "pitch": 77, "duration": 6, "velocity": 117}, {"time": 3199, "pitch": 77, "duration": 3, "velocity": 117}, {"time": 3202, "pitch": 75, "duration": 9, "velocity": 114}, {"time": 3211, "pitch": 72, "duration": 3, "velocity": 98}, {"time": 3214, "pitch": 72, "duration": 3, "velocity": 107}, {"time": 3217, "pitch": 73, "duration": 3, "velocity": 104}, {"time": 3220, "pitch": 72, "duration": 6, "velocity": 114}, {"time": 3226, "pitch": 70, "duration": 3, "velocity": 113}, {"time": 3229, "pitch": 70, "duration": 33, "velocity": 114}, {"time": 3262, "pitch": 70, "duration": 3, "velocity": 113}, {"time": 3265, "pitch": 72, "duration": 3, "velocity": 91}, {"time": 3268, "pitch": 70, "duration": 6, "velocity": 114}, {"time": 3274, "pitch": 68, "duration": 3, "velocity": 114}, {"time": 3277, "pitch": 65, "duration": 21, "velocity": 110}, {"time": 3298, "pitch": 67, "duration": 3, "velocity": 119}, {"time": 3301, "pitch": 68, "duration": 4, "velocity": 91}, {"time": 3304, "pitch": 67, "duration": 6, "velocity": 116}, {"time": 3310, "pitch": 63, "duration": 3, "velocity": 110}, {"time": 3313, "pitch": 65, "duration": 50, "velocity": 113}, {"time": 3358, "pitch": 68, "duration": 4, "velocity": 110}, {"time": 3361, "pitch": 70, "duration": 3, "velocity": 110}, {"time": 3364, "pitch": 72, "duration": 6, "velocity": 114}, {"time": 3370, "pitch": 75, "duration": 6, "velocity": 114}, {"time": 3376, "pitch": 75, "duration": 6, "velocity": 116}, {"time": 3382, "pitch": 72, "duration": 3, "velocity": 102}, {"time": 3385, "pitch": 75, "duration": 18, "velocity": 116}, {"time": 3403, "pitch": 72, "duration": 3, "velocity": 116}, {"time": 3406, "pitch": 72, "duration": 3, "velocity": 110}, {"time": 3409, "pitch": 73, "duration": 3, "velocity": 113}, {"time": 3412, "pitch": 72, "duration": 6, "velocity": 113}, {"time": 3418, "pitch": 70, "duration": 3, "velocity": 110}, {"time": 3421, "pitch": 70, "duration": 33, "velocity": 110}, {"time": 3454, "pitch": 72, "duration": 6, "velocity": 116}, {"time": 3460, "pitch": 70, "duration": 6, "velocity": 110}, {"time": 3466, "pitch": 68, "duration": 3, "velocity": 116}, {"time": 3469, "pitch": 65, "duration": 33, "velocity": 108}, {"time": 3502, "pitch": 68, "duration": 4, "velocity": 107}, {"time": 3505, "pitch": 70, "duration": 3, "velocity": 108}, {"time": 3508, "pitch": 72, "duration": 6, "velocity": 110}, {"time": 3514, "pitch": 72, "duration": 6, "velocity": 113}, {"time": 3520, "pitch": 73, "duration": 6, "velocity": 113}, {"time": 3526, "pitch": 72, "duration": 3, "velocity": 104}, {"time": 3529, "pitch": 72, "duration": 9, "velocity": 110}, {"time": 3538, "pitch": 70, "duration": 12, "velocity": 104}, {"time": 3550, "pitch": 68, "duration": 3, "velocity": 107}, {"time": 3553, "pitch": 70, "duration": 3, "velocity": 100}, {"time": 3556, "pitch": 72, "duration": 6, "velocity": 114}, {"time": 3562, "pitch": 75, "duration": 6, "velocity": 114}, {"time": 3568, "pitch": 75, "duration": 6, "velocity": 114}, {"time": 3574, "pitch": 72, "duration": 3, "velocity": 100}, {"time": 3577, "pitch": 77, "duration": 6, "velocity": 117}, {"time": 3583, "pitch": 77, "duration": 3, "velocity": 117}, {"time": 3586, "pitch": 75, "duration": 9, "velocity": 114}, {"time": 3595, "pitch": 72, "duration": 3, "velocity": 98}, {"time": 3598, "pitch": 72, "duration": 3, "velocity": 107}, {"time": 3601, "pitch": 73, "duration": 3, "velocity": 104}, {"time": 3604, "pitch": 72, "duration": 6, "velocity": 114}, {"time": 3610, "pitch": 70, "duration": 3, "velocity": 113}, {"time": 3613, "pitch": 70, "duration": 33, "velocity": 114}, {"time": 3646, "pitch": 70, "duration": 3, "velocity": 113}, {"time": 3649, "pitch": 72, "duration": 3, "velocity": 91}, {"time": 3652, "pitch": 70, "duration": 6, "velocity": 114}, {"time": 3658, "pitch": 68, "duration": 3, "velocity": 114}, {"time": 3661, "pitch": 65, "duration": 21, "velocity": 110}, {"time": 3682, "pitch": 67, "duration": 3, "velocity": 119}, {"time": 3685, "pitch": 68, "duration": 4, "velocity": 91}, {"time": 3688, "pitch": 67, "duration": 6, "velocity": 116}, {"time": 3694, "pitch": 63, "duration": 3, "velocity": 110}, {"time": 3697, "pitch": 65, "duration": 14, "velocity": 113}]}, {"program": 0, "is_drum": false, "name": "BRIDGE", "notes": [{"time": 4, "pitch": 72, "duration": 3, "velocity": 108}, {"time": 7, "pitch": 70, "duration": 3, "velocity": 108}, {"time": 10, "pitch": 79, "duration": 3, "velocity": 113}, {"time": 13, "pitch": 70, "duration": 3, "velocity": 102}, {"time": 16, "pitch": 68, "duration": 3, "velocity": 104}, {"time": 19, "pitch": 77, "duration": 3, "velocity": 104}, {"time": 22, "pitch": 68, "duration": 3, "velocity": 104}, {"time": 25, "pitch": 67, "duration": 3, "velocity": 93}, {"time": 28, "pitch": 75, "duration": 3, "velocity": 102}, {"time": 31, "pitch": 65, "duration": 3, "velocity": 102}, {"time": 34, "pitch": 63, "duration": 3, "velocity": 100}, {"time": 37, "pitch": 72, "duration": 3, "velocity": 110}, {"time": 40, "pitch": 65, "duration": 3, "velocity": 110}, {"time": 43, "pitch": 63, "duration": 3, "velocity": 110}, {"time": 46, "pitch": 70, "duration": 4, "velocity": 110}, {"time": 49, "pitch": 61, "duration": 3, "velocity": 110}, {"time": 52, "pitch": 63, "duration": 3, "velocity": 86}, {"time": 55, "pitch": 68, "duration": 36, "velocity": 88}, {"time": 91, "pitch": 65, "duration": 3, "velocity": 108}, {"time": 94, "pitch": 67, "duration": 3, "velocity": 91}, {"time": 97, "pitch": 68, "duration": 15, "velocity": 116}, {"time": 112, "pitch": 70, "duration": 9, "velocity": 116}, {"time": 121, "pitch": 67, "duration": 18, "velocity": 104}, {"time": 139, "pitch": 63, "duration": 6, "velocity": 100}, {"time": 145, "pitch": 60, "duration": 45, "velocity": 113}, {"time": 190, "pitch": 77, "duration": 2, "velocity": 91}, {"time": 192, "pitch": 79, "duration": 1, "velocity": 106}, {"time": 193, "pitch": 80, "duration": 3, "velocity": 114}, {"time": 196, "pitch": 72, "duration": 3, "velocity": 108}, {"time": 199, "pitch": 70, "duration": 3, "velocity": 108}, {"time": 202, "pitch": 79, "duration": 3, "velocity": 113}, {"time": 205, "pitch": 70, "duration": 3, "velocity": 102}, {"time": 208, "pitch": 68, "duration": 3, "velocity": 104}, {"time": 211, "pitch": 77, "duration": 3, "velocity": 104}, {"time": 214, "pitch": 68, "duration": 3, "velocity": 104}, {"time": 217, "pitch": 67, "duration": 3, "velocity": 93}, {"time": 220, "pitch": 75, "duration": 3, "velocity": 102}, {"time": 223, "pitch": 65, "duration": 3, "velocity": 102}, {"time": 226, "pitch": 63, "duration": 3, "velocity": 100}, {"time": 229, "pitch": 72, "duration": 3, "velocity": 110}, {"time": 232, "pitch": 65, "duration": 3, "velocity": 110}, {"time": 235, "pitch": 63, "duration": 3, "velocity": 110}, {"time": 238, "pitch": 70, "duration": 4, "velocity": 110}, {"time": 241, "pitch": 61, "duration": 3, "velocity": 110}, {"time": 244, "pitch": 63, "duration": 3, "velocity": 86}, {"time": 247, "pitch": 68, "duration": 36, "velocity": 88}, {"time": 283, "pitch": 65, "duration": 4, "velocity": 100}, {"time": 286, "pitch": 67, "duration": 3, "velocity": 103}, {"time": 289, "pitch": 68, "duration": 15, "velocity": 116}, {"time": 304, "pitch": 72, "duration": 9, "velocity": 117}, {"time": 313, "pitch": 70, "duration": 18, "velocity": 119}, {"time": 331, "pitch": 68, "duration": 4, "velocity": 108}, {"time": 334, "pitch": 67, "duration": 3, "velocity": 95}, {"time": 337, "pitch": 65, "duration": 24, "velocity": 114}, {"time": 361, "pitch": 63, "duration": 24, "velocity": 114}, {"time": 385, "pitch": 65, "duration": 8, "velocity": 114}, {"time": 394, "pitch": 67, "duration": 6, "velocity": 109}, {"time": 400, "pitch": 68, "duration": 18, "velocity": 110}, {"time": 418, "pitch": 67, "duration": 7, "velocity": 109}, {"time": 424, "pitch": 65, "duration": 18, "velocity": 102}, {"time": 442, "pitch": 67, "duration": 6, "velocity": 97}, {"time": 448, "pitch": 68, "duration": 18, "velocity": 113}, {"time": 466, "pitch": 67, "duration": 6, "velocity": 113}, {"time": 472, "pitch": 65, "duration": 18, "velocity": 108}, {"time": 490, "pitch": 67, "duration": 6, "velocity": 97}, {"time": 496, "pitch": 68, "duration": 18, "velocity": 113}, {"time": 514, "pitch": 65, "duration": 6, "velocity": 116}, {"time": 520, "pitch": 64, "duration": 18, "velocity": 114}, {"time": 538, "pitch": 67, "duration": 6, "velocity": 106}, {"time": 544, "pitch": 68, "duration": 18, "velocity": 114}, {"time": 562, "pitch": 67, "duration": 6, "velocity": 106}, {"time": 568, "pitch": 65, "duration": 11, "velocity": 96}, {"time": 747, "pitch": 67, "duration": 4, "velocity": 116}, {"time": 753, "pitch": 68, "duration": 7, "velocity": 116}, {"time": 765, "pitch": 67, "duration": 5, "velocity": 119}, {"time": 771, "pitch": 65, "duration": 4, "velocity": 108}, {"time": 843, "pitch": 73, "duration": 8, "velocity": 114}, {"time": 852, "pitch": 72, "duration": 8, "velocity": 107}, {"time": 861, "pitch": 68, "duration": 6, "velocity": 108}, {"time": 867, "pitch": 70, "duration": 4, "velocity": 113}, {"time": 921, "pitch": 67, "duration": 4, "velocity": 113}, {"time": 927, "pitch": 68, "duration": 8, "velocity": 107}, {"time": 939, "pitch": 65, "duration": 5, "velocity": 104}, {"time": 1299, "pitch": 65, "duration": 9, "velocity": 114}, {"time": 1308, "pitch": 67, "duration": 6, "velocity": 109}, {"time": 1314, "pitch": 68, "duration": 18, "velocity": 110}, {"time": 1332, "pitch": 67, "duration": 7, "velocity": 109}, {"time": 1338, "pitch": 65, "duration": 18, "velocity": 102}, {"time": 1356, "pitch": 67, "duration": 6, "velocity": 97}, {"time": 1362, "pitch": 68, "duration": 18, "velocity": 113}, {"time": 1380, "pitch": 67, "duration": 6, "velocity": 113}, {"time": 1386, "pitch": 65, "duration": 18, "velocity": 108}, {"time": 1404, "pitch": 67, "duration": 6, "velocity": 97}, {"time": 1410, "pitch": 68, "duration": 18, "velocity": 113}, {"time": 1428, "pitch": 65, "duration": 6, "velocity": 116}, {"time": 1434, "pitch": 64, "duration": 18, "velocity": 114}, {"time": 1452, "pitch": 67, "duration": 6, "velocity": 106}, {"time": 1458, "pitch": 68, "duration": 18, "velocity": 114}, {"time": 1476, "pitch": 67, "duration": 6, "velocity": 106}, {"time": 1482, "pitch": 65, "duration": 9, "velocity": 96}, {"time": 1569, "pitch": 68, "duration": 2, "velocity": 107}, {"time": 1572, "pitch": 75, "duration": 3, "velocity": 113}, {"time": 1578, "pitch": 70, "duration": 6, "velocity": 104}, {"time": 1587, "pitch": 67, "duration": 4, "velocity": 113}, {"time": 1641, "pitch": 75, "duration": 3, "velocity": 113}, {"time": 1644, "pitch": 67, "duration": 3, "velocity": 116}, {"time": 1650, "pitch": 68, "duration": 6, "velocity": 107}, {"time": 1668, "pitch": 67, "duration": 4, "velocity": 119}, {"time": 1674, "pitch": 65, "duration": 5, "velocity": 116}, {"time": 1722, "pitch": 77, "duration": 2, "velocity": 98}, {"time": 1725, "pitch": 79, "duration": 1, "velocity": 97}, {"time": 1728, "pitch": 80, "duration": 1, "velocity": 100}, {"time": 1731, "pitch": 80, "duration": 3, "velocity": 114}, {"time": 1770, "pitch": 72, "duration": 8, "velocity": 116}, {"time": 1779, "pitch": 67, "duration": 4, "velocity": 116}, {"time": 1833, "pitch": 60, "duration": 2, "velocity": 98}, {"time": 1836, "pitch": 67, "duration": 4, "velocity": 119}, {"time": 1842, "pitch": 68, "duration": 6, "velocity": 116}, {"time": 1851, "pitch": 65, "duration": 5, "velocity": 116}, {"time": 2212, "pitch": 80, "duration": 3, "velocity": 114}, {"time": 2215, "pitch": 72, "duration": 3, "velocity": 108}, {"time": 2218, "pitch": 70, "duration": 3, "velocity": 108}, {"time": 2221, "pitch": 79, "duration": 3, "velocity": 113}, {"time": 2224, "pitch": 70, "duration": 3, "velocity": 102}, {"time": 2227, "pitch": 68, "duration": 3, "velocity": 104}, {"time": 2230, "pitch": 77, "duration": 3, "velocity": 104}, {"time": 2233, "pitch": 68, "duration": 3, "velocity": 104}, {"time": 2236, "pitch": 67, "duration": 3, "velocity": 93}, {"time": 2239, "pitch": 75, "duration": 3, "velocity": 102}, {"time": 2242, "pitch": 65, "duration": 3, "velocity": 102}, {"time": 2245, "pitch": 63, "duration": 3, "velocity": 100}, {"time": 2248, "pitch": 72, "duration": 3, "velocity": 110}, {"time": 2251, "pitch": 65, "duration": 3, "velocity": 110}, {"time": 2254, "pitch": 63, "duration": 3, "velocity": 110}, {"time": 2257, "pitch": 70, "duration": 4, "velocity": 110}, {"time": 2260, "pitch": 61, "duration": 3, "velocity": 110}, {"time": 2263, "pitch": 63, "duration": 3, "velocity": 86}, {"time": 2266, "pitch": 68, "duration": 36, "velocity": 88}, {"time": 2302, "pitch": 65, "duration": 3, "velocity": 108}, {"time": 2305, "pitch": 67, "duration": 3, "velocity": 91}, {"time": 2308, "pitch": 68, "duration": 15, "velocity": 116}, {"time": 2323, "pitch": 70, "duration": 9, "velocity": 116}, {"time": 2332, "pitch": 67, "duration": 18, "velocity": 104}, {"time": 2350, "pitch": 63, "duration": 6, "velocity": 100}, {"time": 2356, "pitch": 60, "duration": 45, "velocity": 113}, {"time": 2401, "pitch": 77, "duration": 2, "velocity": 91}, {"time": 2403, "pitch": 79, "duration": 1, "velocity": 106}, {"time": 2404, "pitch": 80, "duration": 3, "velocity": 114}, {"time": 2407, "pitch": 72, "duration": 3, "velocity": 108}, {"time": 2410, "pitch": 70, "duration": 3, "velocity": 108}, {"time": 2413, "pitch": 79, "duration": 3, "velocity": 113}, {"time": 2416, "pitch": 70, "duration": 3, "velocity": 102}, {"time": 2419, "pitch": 68, "duration": 3, "velocity": 104}, {"time": 2422, "pitch": 77, "duration": 3, "velocity": 104}, {"time": 2425, "pitch": 68, "duration": 3, "velocity": 104}, {"time": 2428, "pitch": 67, "duration": 3, "velocity": 93}, {"time": 2431, "pitch": 75, "duration": 3, "velocity": 102}, {"time": 2434, "pitch": 65, "duration": 3, "velocity": 102}, {"time": 2437, "pitch": 63, "duration": 3, "velocity": 100}, {"time": 2440, "pitch": 72, "duration": 3, "velocity": 110}, {"time": 2443, "pitch": 65, "duration": 3, "velocity": 110}, {"time": 2446, "pitch": 63, "duration": 3, "velocity": 110}, {"time": 2449, "pitch": 70, "duration": 4, "velocity": 110}, {"time": 2452, "pitch": 61, "duration": 3, "velocity": 110}, {"time": 2455, "pitch": 63, "duration": 3, "velocity": 86}, {"time": 2458, "pitch": 68, "duration": 36, "velocity": 88}, {"time": 2494, "pitch": 65, "duration": 4, "velocity": 100}, {"time": 2497, "pitch": 67, "duration": 3, "velocity": 103}, {"time": 2500, "pitch": 68, "duration": 15, "velocity": 116}, {"time": 2515, "pitch": 72, "duration": 9, "velocity": 117}, {"time": 2524, "pitch": 70, "duration": 18, "velocity": 119}, {"time": 2542, "pitch": 68, "duration": 4, "velocity": 108}, {"time": 2545, "pitch": 67, "duration": 3, "velocity": 95}, {"time": 2548, "pitch": 65, "duration": 24, "velocity": 114}, {"time": 2572, "pitch": 63, "duration": 23, "velocity": 114}, {"time": 2587, "pitch": 70, "duration": 2, "velocity": 91}, {"time": 2589, "pitch": 72, "duration": 1, "velocity": 88}, {"time": 2590, "pitch": 74, "duration": 2, "velocity": 95}, {"time": 2592, "pitch": 75, "duration": 1, "velocity": 98}, {"time": 2593, "pitch": 77, "duration": 2, "velocity": 89}, {"time": 2595, "pitch": 79, "duration": 19, "velocity": 123}, {"time": 2614, "pitch": 80, "duration": 5, "velocity": 117}, {"time": 2619, "pitch": 72, "duration": 16, "velocity": 102}, {"time": 2635, "pitch": 77, "duration": 3, "velocity": 110}, {"time": 2638, "pitch": 79, "duration": 3, "velocity": 116}, {"time": 2641, "pitch": 80, "duration": 3, "velocity": 114}, {"time": 2644, "pitch": 82, "duration": 6, "velocity": 119}, {"time": 2650, "pitch": 80, "duration": 6, "velocity": 114}, {"time": 2656, "pitch": 79, "duration": 6, "velocity": 119}, {"time": 2662, "pitch": 80, "duration": 3, "velocity": 116}, {"time": 2665, "pitch": 77, "duration": 18, "velocity": 119}, {"time": 2683, "pitch": 77, "duration": 3, "velocity": 108}, {"time": 2686, "pitch": 80, "duration": 3, "velocity": 113}, {"time": 2689, "pitch": 82, "duration": 3, "velocity": 114}, {"time": 2692, "pitch": 84, "duration": 6, "velocity": 120}, {"time": 2698, "pitch": 85, "duration": 3, "velocity": 116}, {"time": 2701, "pitch": 84, "duration": 9, "velocity": 117}, {"time": 2710, "pitch": 82, "duration": 4, "velocity": 117}, {"time": 2713, "pitch": 80, "duration": 3, "velocity": 96}, {"time": 2716, "pitch": 79, "duration": 3, "velocity": 116}, {"time": 2719, "pitch": 80, "duration": 3, "velocity": 108}, {"time": 2722, "pitch": 82, "duration": 3, "velocity": 107}, {"time": 2725, "pitch": 79, "duration": 9, "velocity": 119}, {"time": 2734, "pitch": 75, "duration": 3, "velocity": 113}, {"time": 2737, "pitch": 72, "duration": 39, "velocity": 102}, {"time": 2776, "pitch": 87, "duration": 3, "velocity": 113}, {"time": 2779, "pitch": 85, "duration": 5, "velocity": 107}, {"time": 2784, "pitch": 84, "duration": 2, "velocity": 100}, {"time": 2785, "pitch": 82, "duration": 2, "velocity": 92}, {"time": 2787, "pitch": 80, "duration": 7, "velocity": 113}, {"time": 2794, "pitch": 80, "duration": 3, "velocity": 114}, {"time": 2797, "pitch": 79, "duration": 6, "velocity": 109}, {"time": 2803, "pitch": 77, "duration": 6, "velocity": 117}, {"time": 2809, "pitch": 79, "duration": 6, "velocity": 119}, {"time": 2815, "pitch": 72, "duration": 6, "velocity": 108}, {"time": 2821, "pitch": 72, "duration": 3, "velocity": 104}, {"time": 2824, "pitch": 79, "duration": 3, "velocity": 113}, {"time": 2827, "pitch": 80, "duration": 2, "velocity": 94}, {"time": 2829, "pitch": 79, "duration": 1, "velocity": 103}, {"time": 2830, "pitch": 77, "duration": 3, "velocity": 110}, {"time": 2833, "pitch": 79, "duration": 6, "velocity": 119}, {"time": 2839, "pitch": 84, "duration": 6, "velocity": 113}, {"time": 2845, "pitch": 79, "duration": 6, "velocity": 119}, {"time": 2851, "pitch": 77, "duration": 6, "velocity": 117}, {"time": 2857, "pitch": 79, "duration": 6, "velocity": 119}, {"time": 2863, "pitch": 73, "duration": 9, "velocity": 116}, {"time": 2872, "pitch": 79, "duration": 4, "velocity": 119}, {"time": 2875, "pitch": 80, "duration": 2, "velocity": 82}, {"time": 2877, "pitch": 79, "duration": 1, "velocity": 103}, {"time": 2878, "pitch": 77, "duration": 3, "velocity": 98}, {"time": 2881, "pitch": 79, "duration": 4, "velocity": 116}, {"time": 2884, "pitch": 84, "duration": 6, "velocity": 119}, {"time": 2890, "pitch": 82, "duration": 3, "velocity": 110}, {"time": 2893, "pitch": 80, "duration": 6, "velocity": 117}, {"time": 2899, "pitch": 77, "duration": 5, "velocity": 88}, {"time": 2904, "pitch": 79, "duration": 2, "velocity": 103}, {"time": 2905, "pitch": 77, "duration": 2, "velocity": 78}, {"time": 2907, "pitch": 76, "duration": 4, "velocity": 90}, {"time": 2911, "pitch": 85, "duration": 3, "velocity": 110}, {"time": 2914, "pitch": 84, "duration": 3, "velocity": 96}, {"time": 2917, "pitch": 82, "duration": 4, "velocity": 107}, {"time": 2920, "pitch": 80, "duration": 3, "velocity": 108}, {"time": 2923, "pitch": 82, "duration": 3, "velocity": 114}, {"time": 2926, "pitch": 84, "duration": 3, "velocity": 108}, {"time": 2929, "pitch": 79, "duration": 15, "velocity": 119}, {"time": 2944, "pitch": 77, "duration": 35, "velocity": 117}, {"time": 3054, "pitch": 77, "duration": 6, "velocity": 117}, {"time": 3060, "pitch": 75, "duration": 6, "velocity": 117}, {"time": 3285, "pitch": 63, "duration": 3, "velocity": 107}, {"time": 3288, "pitch": 65, "duration": 1, "velocity": 107}, {"time": 3291, "pitch": 67, "duration": 5, "velocity": 113}, {"time": 3480, "pitch": 63, "duration": 2, "velocity": 100}, {"time": 3483, "pitch": 65, "duration": 1, "velocity": 107}, {"time": 3486, "pitch": 67, "duration": 3, "velocity": 116}, {"time": 3492, "pitch": 75, "duration": 1, "velocity": 98}, {"time": 3495, "pitch": 77, "duration": 3, "velocity": 100}, {"time": 3711, "pitch": 79, "duration": 4, "velocity": 113}, {"time": 3717, "pitch": 80, "duration": 4, "velocity": 117}, {"time": 3735, "pitch": 79, "duration": 4, "velocity": 113}, {"time": 3741, "pitch": 77, "duration": 5, "velocity": 116}, {"time": 3759, "pitch": 79, "duration": 3, "velocity": 113}, {"time": 3765, "pitch": 80, "duration": 4, "velocity": 116}, {"time": 3783, "pitch": 79, "duration": 3, "velocity": 113}, {"time": 3789, "pitch": 77, "duration": 4, "velocity": 113}, {"time": 3807, "pitch": 79, "duration": 3, "velocity": 116}, {"time": 3813, "pitch": 80, "duration": 3, "velocity": 114}, {"time": 3831, "pitch": 77, "duration": 6, "velocity": 107}, {"time": 3843, "pitch": 76, "duration": 7, "velocity": 100}, {"time": 3855, "pitch": 77, "duration": 7, "velocity": 107}]}, {"program": 0, "is_drum": false, "name": "PIANO", "notes": [{"time": 1, "pitch": 53, "duration": 48, "velocity": 88}, {"time": 1, "pitch": 65, "duration": 48, "velocity": 87}, {"time": 1, "pitch": 72, "duration": 44, "velocity": 93}, {"time": 49, "pitch": 49, "duration": 45, "velocity": 78}, {"time": 49, "pitch": 61, "duration": 47, "velocity": 80}, {"time": 49, "pitch": 68, "duration": 48, "velocity": 81}, {"time": 97, "pitch": 46, "duration": 21, "velocity": 89}, {"time": 103, "pitch": 53, "duration": 17, "velocity": 76}, {"time": 109, "pitch": 58, "duration": 9, "velocity": 78}, {"time": 121, "pitch": 48, "duration": 20, "velocity": 87}, {"time": 127, "pitch": 55, "duration": 15, "velocity": 76}, {"time": 133, "pitch": 58, "duration": 13, "velocity": 84}, {"time": 145, "pitch": 53, "duration": 44, "velocity": 85}, {"time": 151, "pitch": 60, "duration": 37, "velocity": 72}, {"time": 157, "pitch": 65, "duration": 29, "velocity": 72}, {"time": 163, "pitch": 68, "duration": 25, "velocity": 72}, {"time": 163, "pitch": 72, "duration": 24, "velocity": 75}, {"time": 193, "pitch": 53, "duration": 43, "velocity": 84}, {"time": 193, "pitch": 65, "duration": 45, "velocity": 83}, {"time": 193, "pitch": 72, "duration": 43, "velocity": 86}, {"time": 241, "pitch": 49, "duration": 41, "velocity": 78}, {"time": 241, "pitch": 61, "duration": 44, "velocity": 83}, {"time": 241, "pitch": 68, "duration": 44, "velocity": 84}, {"time": 289, "pitch": 46, "duration": 22, "velocity": 86}, {"time": 295, "pitch": 53, "duration": 18, "velocity": 67}, {"time": 301, "pitch": 58, "duration": 12, "velocity": 86}, {"time": 313, "pitch": 48, "duration": 20, "velocity": 84}, {"time": 319, "pitch": 55, "duration": 15, "velocity": 73}, {"time": 325, "pitch": 58, "duration": 13, "velocity": 80}, {"time": 337, "pitch": 53, "duration": 23, "velocity": 86}, {"time": 343, "pitch": 60, "duration": 16, "velocity": 76}, {"time": 349, "pitch": 65, "duration": 9, "velocity": 81}, {"time": 355, "pitch": 68, "duration": 3, "velocity": 78}, {"time": 361, "pitch": 51, "duration": 23, "velocity": 87}, {"time": 361, "pitch": 63, "duration": 22, "velocity": 88}, {"time": 361, "pitch": 67, "duration": 23, "velocity": 89}, {"time": 361, "pitch": 70, "duration": 22, "velocity": 88}, {"time": 385, "pitch": 53, "duration": 46, "velocity": 87}, {"time": 385, "pitch": 65, "duration": 46, "velocity": 88}, {"time": 385, "pitch": 68, "duration": 43, "velocity": 89}, {"time": 385, "pitch": 72, "duration": 41, "velocity": 88}, {"time": 433, "pitch": 49, "duration": 46, "velocity": 83}, {"time": 433, "pitch": 61, "duration": 45, "velocity": 82}, {"time": 433, "pitch": 65, "duration": 46, "velocity": 86}, {"time": 433, "pitch": 68, "duration": 46, "velocity": 83}, {"time": 481, "pitch": 46, "duration": 34, "velocity": 78}, {"time": 481, "pitch": 58, "duration": 18, "velocity": 77}, {"time": 481, "pitch": 61, "duration": 16, "velocity": 77}, {"time": 481, "pitch": 65, "duration": 18, "velocity": 83}, {"time": 481, "pitch": 70, "duration": 16, "velocity": 86}, {"time": 505, "pitch": 48, "duration": 22, "velocity": 81}, {"time": 505, "pitch": 64, "duration": 19, "velocity": 79}, {"time": 505, "pitch": 67, "duration": 23, "velocity": 78}, {"time": 505, "pitch": 72, "duration": 20, "velocity": 84}, {"time": 529, "pitch": 53, "duration": 50, "velocity": 69}, {"time": 529, "pitch": 65, "duration": 49, "velocity": 78}, {"time": 529, "pitch": 68, "duration": 49, "velocity": 81}, {"time": 529, "pitch": 72, "duration": 49, "velocity": 79}, {"time": 579, "pitch": 53, "duration": 38, "velocity": 84}, {"time": 579, "pitch": 65, "duration": 8, "velocity": 87}, {"time": 579, "pitch": 72, "duration": 7, "velocity": 88}, {"time": 585, "pitch": 60, "duration": 32, "velocity": 64}, {"time": 591, "pitch": 65, "duration": 10, "velocity": 87}, {"time": 591, "pitch": 72, "duration": 10, "velocity": 86}, {"time": 603, "pitch": 65, "duration": 9, "velocity": 81}, {"time": 603, "pitch": 72, "duration": 9, "velocity": 78}, {"time": 615, "pitch": 65, "duration": 9, "velocity": 82}, {"time": 615, "pitch": 72, "duration": 11, "velocity": 84}, {"time": 627, "pitch": 49, "duration": 43, "velocity": 71}, {"time": 627, "pitch": 61, "duration": 45, "velocity": 76}, {"time": 627, "pitch": 65, "duration": 9, "velocity": 64}, {"time": 627, "pitch": 73, "duration": 9, "velocity": 84}, {"time": 639, "pitch": 65, "duration": 9, "velocity": 81}, {"time": 639, "pitch": 73, "duration": 9, "velocity": 83}, {"time": 651, "pitch": 65, "duration": 10, "velocity": 83}, {"time": 651, "pitch": 73, "duration": 10, "velocity": 83}, {"time": 663, "pitch": 65, "duration": 4, "velocity": 87}, {"time": 663, "pitch": 73, "duration": 7, "velocity": 88}, {"time": 669, "pitch": 65, "duration": 3, "velocity": 87}, {"time": 675, "pitch": 51, "duration": 44, "velocity": 74}, {"time": 675, "pitch": 63, "duration": 9, "velocity": 81}, {"time": 675, "pitch": 67, "duration": 9, "velocity": 84}, {"time": 675, "pitch": 70, "duration": 8, "velocity": 80}, {"time": 687, "pitch": 63, "duration": 9, "velocity": 78}, {"time": 687, "pitch": 67, "duration": 9, "velocity": 85}, {"time": 687, "pitch": 70, "duration": 9, "velocity": 78}, {"time": 699, "pitch": 63, "duration": 9, "velocity": 79}, {"time": 699, "pitch": 67, "duration": 9, "velocity": 84}, {"time": 699, "pitch": 70, "duration": 9, "velocity": 79}, {"time": 711, "pitch": 63, "duration": 8, "velocity": 79}, {"time": 711, "pitch": 67, "duration": 8, "velocity": 84}, {"time": 711, "pitch": 70, "duration": 7, "velocity": 80}, {"time": 723, "pitch": 53, "duration": 15, "velocity": 79}, {"time": 723, "pitch": 65, "duration": 9, "velocity": 75}, {"time": 723, "pitch": 68, "duration": 9, "velocity": 78}, {"time": 723, "pitch": 72, "duration": 8, "velocity": 84}, {"time": 735, "pitch": 65, "duration": 10, "velocity": 75}, {"time": 735, "pitch": 68, "duration": 9, "velocity": 78}, {"time": 735, "pitch": 72, "duration": 9, "velocity": 79}, {"time": 747, "pitch": 65, "duration": 8, "velocity": 76}, {"time": 747, "pitch": 68, "duration": 8, "velocity": 76}, {"time": 747, "pitch": 72, "duration": 8, "velocity": 78}, {"time": 759, "pitch": 65, "duration": 8, "velocity": 83}, {"time": 759, "pitch": 68, "duration": 8, "velocity": 78}, {"time": 759, "pitch": 72, "duration": 8, "velocity": 83}, {"time": 771, "pitch": 53, "duration": 41, "velocity": 87}, {"time": 771, "pitch": 65, "duration": 6, "velocity": 79}, {"time": 771, "pitch": 68, "duration": 6, "velocity": 81}, {"time": 771, "pitch": 72, "duration": 6, "velocity": 81}, {"time": 777, "pitch": 60, "duration": 20, "velocity": 64}, {"time": 783, "pitch": 65, "duration": 9, "velocity": 78}, {"time": 783, "pitch": 68, "duration": 9, "velocity": 76}, {"time": 783, "pitch": 72, "duration": 9, "velocity": 80}, {"time": 795, "pitch": 65, "duration": 9, "velocity": 83}, {"time": 795, "pitch": 68, "duration": 9, "velocity": 84}, {"time": 795, "pitch": 72, "duration": 9, "velocity": 84}, {"time": 807, "pitch": 60, "duration": 4, "velocity": 64}, {"time": 807, "pitch": 65, "duration": 4, "velocity": 88}, {"time": 807, "pitch": 68, "duration": 3, "velocity": 87}, {"time": 813, "pitch": 72, "duration": 3, "velocity": 98}, {"time": 819, "pitch": 46, "duration": 41, "velocity": 81}, {"time": 819, "pitch": 58, "duration": 43, "velocity": 81}, {"time": 819, "pitch": 61, "duration": 8, "velocity": 78}, {"time": 819, "pitch": 65, "duration": 8, "velocity": 83}, {"time": 819, "pitch": 70, "duration": 7, "velocity": 83}, {"time": 831, "pitch": 61, "duration": 8, "velocity": 86}, {"time": 831, "pitch": 65, "duration": 8, "velocity": 85}, {"time": 831, "pitch": 70, "duration": 8, "velocity": 87}, {"time": 843, "pitch": 61, "duration": 8, "velocity": 81}, {"time": 843, "pitch": 65, "duration": 8, "velocity": 82}, {"time": 843, "pitch": 70, "duration": 8, "velocity": 81}, {"time": 855, "pitch": 61, "duration": 9, "velocity": 81}, {"time": 855, "pitch": 65, "duration": 10, "velocity": 86}, {"time": 855, "pitch": 70, "duration": 9, "velocity": 85}, {"time": 867, "pitch": 48, "duration": 39, "velocity": 78}, {"time": 867, "pitch": 60, "duration": 8, "velocity": 83}, {"time": 867, "pitch": 63, "duration": 8, "velocity": 87}, {"time": 867, "pitch": 67, "duration": 8, "velocity": 84}, {"time": 879, "pitch": 60, "duration": 9, "velocity": 84}, {"time": 879, "pitch": 63, "duration": 9, "velocity": 88}, {"time": 879, "pitch": 67, "duration": 9, "velocity": 78}, {"time": 891, "pitch": 60, "duration": 8, "velocity": 82}, {"time": 891, "pitch": 63, "duration": 8, "velocity": 89}, {"time": 891, "pitch": 67, "duration": 9, "velocity": 78}, {"time": 903, "pitch": 60, "duration": 8, "velocity": 85}, {"time": 903, "pitch": 63, "duration": 9, "velocity": 90}, {"time": 903, "pitch": 67, "duration": 8, "velocity": 79}, {"time": 915, "pitch": 53, "duration": 45, "velocity": 83}, {"time": 915, "pitch": 60, "duration": 10, "velocity": 81}, {"time": 915, "pitch": 65, "duration": 10, "velocity": 79}, {"time": 915, "pitch": 68, "duration": 9, "velocity": 87}, {"time": 927, "pitch": 60, "duration": 9, "velocity": 81}, {"time": 927, "pitch": 65, "duration": 9, "velocity": 82}, {"time": 927, "pitch": 68, "duration": 9, "velocity": 82}, {"time": 939, "pitch": 60, "duration": 9, "velocity": 82}, {"time": 939, "pitch": 65, "duration": 9, "velocity": 84}, {"time": 939, "pitch": 68, "duration": 9, "velocity": 82}, {"time": 951, "pitch": 60, "duration": 7, "velocity": 84}, {"time": 951, "pitch": 65, "duration": 8, "velocity": 84}, {"time": 951, "pitch": 68, "duration": 8, "velocity": 84}, {"time": 963, "pitch": 44, "duration": 41, "velocity": 85}, {"time": 963, "pitch": 56, "duration": 42, "velocity": 84}, {"time": 963, "pitch": 63, "duration": 9, "velocity": 87}, {"time": 963, "pitch": 68, "duration": 8, "velocity": 88}, {"time": 963, "pitch": 72, "duration": 7, "velocity": 88}, {"time": 975, "pitch": 63, "duration": 11, "velocity": 88}, {"time": 975, "pitch": 68, "duration": 11, "velocity": 88}, {"time": 975, "pitch": 72, "duration": 11, "velocity": 89}, {"time": 987, "pitch": 63, "duration": 9, "velocity": 88}, {"time": 987, "pitch": 68, "duration": 9, "velocity": 90}, {"time": 987, "pitch": 72, "duration": 9, "velocity": 87}, {"time": 999, "pitch": 63, "duration": 9, "velocity": 88}, {"time": 999, "pitch": 68, "duration": 10, "velocity": 90}, {"time": 999, "pitch": 72, "duration": 8, "velocity": 88}, {"time": 1011, "pitch": 51, "duration": 39, "velocity": 87}, {"time": 1011, "pitch": 63, "duration": 10, "velocity": 90}, {"time": 1011, "pitch": 67, "duration": 11, "velocity": 97}, {"time": 1011, "pitch": 70, "duration": 10, "velocity": 91}, {"time": 1023, "pitch": 63, "duration": 8, "velocity": 91}, {"time": 1023, "pitch": 67, "duration": 7, "velocity": 106}, {"time": 1023, "pitch": 70, "duration": 7, "velocity": 98}, {"time": 1032, "pitch": 63, "duration": 1, "velocity": 88}, {"time": 1032, "pitch": 67, "duration": 1, "velocity": 90}, {"time": 1032, "pitch": 70, "duration": 1, "velocity": 90}, {"time": 1038, "pitch": 63, "duration": 7, "velocity": 86}, {"time": 1038, "pitch": 67, "duration": 7, "velocity": 87}, {"time": 1038, "pitch": 70, "duration": 7, "velocity": 88}, {"time": 1047, "pitch": 63, "duration": 7, "velocity": 93}, {"time": 1047, "pitch": 67, "duration": 9, "velocity": 106}, {"time": 1047, "pitch": 70, "duration": 8, "velocity": 100}, {"time": 1053, "pitch": 51, "duration": 3, "velocity": 87}, {"time": 1059, "pitch": 49, "duration": 43, "velocity": 88}, {"time": 1059, "pitch": 61, "duration": 9, "velocity": 88}, {"time": 1059, "pitch": 65, "duration": 9, "velocity": 92}, {"time": 1059, "pitch": 68, "duration": 8, "velocity": 91}, {"time": 1071, "pitch": 61, "duration": 9, "velocity": 89}, {"time": 1071, "pitch": 65, "duration": 10, "velocity": 88}, {"time": 1071, "pitch": 68, "duration": 8, "velocity": 88}, {"time": 1083, "pitch": 61, "duration": 9, "velocity": 90}, {"time": 1083, "pitch": 65, "duration": 9, "velocity": 92}, {"time": 1083, "pitch": 68, "duration": 8, "velocity": 90}, {"time": 1095, "pitch": 61, "duration": 8, "velocity": 90}, {"time": 1095, "pitch": 65, "duration": 9, "velocity": 92}, {"time": 1095, "pitch": 68, "duration": 10, "velocity": 92}, {"time": 1107, "pitch": 44, "duration": 15, "velocity": 84}, {"time": 1107, "pitch": 56, "duration": 13, "velocity": 86}, {"time": 1107, "pitch": 60, "duration": 7, "velocity": 89}, {"time": 1107, "pitch": 63, "duration": 7, "velocity": 91}, {"time": 1107, "pitch": 68, "duration": 6, "velocity": 89}, {"time": 1119, "pitch": 60, "duration": 8, "velocity": 94}, {"time": 1119, "pitch": 63, "duration": 10, "velocity": 107}, {"time": 1119, "pitch": 68, "duration": 8, "velocity": 89}, {"time": 1131, "pitch": 39, "duration": 14, "velocity": 87}, {"time": 1131, "pitch": 51, "duration": 15, "velocity": 87}, {"time": 1131, "pitch": 58, "duration": 9, "velocity": 88}, {"time": 1131, "pitch": 63, "duration": 10, "velocity": 88}, {"time": 1131, "pitch": 67, "duration": 9, "velocity": 86}, {"time": 1143, "pitch": 58, "duration": 6, "velocity": 91}, {"time": 1143, "pitch": 63, "duration": 8, "velocity": 110}, {"time": 1143, "pitch": 67, "duration": 8, "velocity": 100}, {"time": 1149, "pitch": 39, "duration": 1, "velocity": 86}, {"time": 1149, "pitch": 51, "duration": 2, "velocity": 94}, {"time": 1155, "pitch": 44, "duration": 43, "velocity": 89}, {"time": 1155, "pitch": 56, "duration": 44, "velocity": 93}, {"time": 1155, "pitch": 60, "duration": 9, "velocity": 93}, {"time": 1155, "pitch": 63, "duration": 8, "velocity": 110}, {"time": 1155, "pitch": 68, "duration": 8, "velocity": 107}, {"time": 1167, "pitch": 60, "duration": 10, "velocity": 102}, {"time": 1167, "pitch": 63, "duration": 10, "velocity": 114}, {"time": 1167, "pitch": 68, "duration": 10, "velocity": 107}, {"time": 1179, "pitch": 60, "duration": 9, "velocity": 90}, {"time": 1179, "pitch": 63, "duration": 9, "velocity": 98}, {"time": 1179, "pitch": 68, "duration": 8, "velocity": 91}, {"time": 1191, "pitch": 60, "duration": 8, "velocity": 96}, {"time": 1191, "pitch": 63, "duration": 9, "velocity": 110}, {"time": 1191, "pitch": 68, "duration": 8, "velocity": 98}, {"time": 1203, "pitch": 51, "duration": 39, "velocity": 88}, {"time": 1203, "pitch": 63, "duration": 9, "velocity": 88}, {"time": 1203, "pitch": 67, "duration": 9, "velocity": 100}, {"time": 1203, "pitch": 70, "duration": 8, "velocity": 94}, {"time": 1215, "pitch": 63, "duration": 10, "velocity": 91}, {"time": 1215, "pitch": 67, "duration": 10, "velocity": 93}, {"time": 1215, "pitch": 70, "duration": 10, "velocity": 92}, {"time": 1227, "pitch": 63, "duration": 9, "velocity": 91}, {"time": 1227, "pitch": 67, "duration": 9, "velocity": 89}, {"time": 1227, "pitch": 70, "duration": 9, "velocity": 89}, {"time": 1239, "pitch": 63, "duration": 7, "velocity": 94}, {"time": 1239, "pitch": 67, "duration": 7, "velocity": 103}, {"time": 1239, "pitch": 70, "duration": 7, "velocity": 93}, {"time": 1251, "pitch": 49, "duration": 20, "velocity": 86}, {"time": 1251, "pitch": 61, "duration": 8, "velocity": 91}, {"time": 1251, "pitch": 65, "duration": 7, "velocity": 102}, {"time": 1251, "pitch": 68, "duration": 7, "velocity": 96}, {"time": 1263, "pitch": 61, "duration": 7, "velocity": 90}, {"time": 1263, "pitch": 65, "duration": 7, "velocity": 92}, {"time": 1263, "pitch": 68, "duration": 8, "velocity": 92}, {"time": 1275, "pitch": 51, "duration": 15, "velocity": 87}, {"time": 1275, "pitch": 58, "duration": 9, "velocity": 89}, {"time": 1275, "pitch": 63, "duration": 8, "velocity": 96}, {"time": 1275, "pitch": 67, "duration": 8, "velocity": 85}, {"time": 1287, "pitch": 58, "duration": 7, "velocity": 93}, {"time": 1287, "pitch": 63, "duration": 10, "velocity": 110}, {"time": 1287, "pitch": 67, "duration": 8, "velocity": 90}, {"time": 1299, "pitch": 53, "duration": 45, "velocity": 87}, {"time": 1299, "pitch": 65, "duration": 46, "velocity": 88}, {"time": 1299, "pitch": 68, "duration": 43, "velocity": 89}, {"time": 1299, "pitch": 72, "duration": 41, "velocity": 88}, {"time": 1347, "pitch": 49, "duration": 46, "velocity": 83}, {"time": 1347, "pitch": 61, "duration": 45, "velocity": 82}, {"time": 1347, "pitch": 65, "duration": 45, "velocity": 86}, {"time": 1347, "pitch": 68, "duration": 45, "velocity": 83}, {"time": 1395, "pitch": 46, "duration": 33, "velocity": 78}, {"time": 1395, "pitch": 58, "duration": 18, "velocity": 77}, {"time": 1395, "pitch": 61, "duration": 15, "velocity": 77}, {"time": 1395, "pitch": 65, "duration": 17, "velocity": 83}, {"time": 1395, "pitch": 70, "duration": 16, "velocity": 86}, {"time": 1419, "pitch": 48, "duration": 22, "velocity": 81}, {"time": 1419, "pitch": 64, "duration": 19, "velocity": 79}, {"time": 1419, "pitch": 67, "duration": 22, "velocity": 78}, {"time": 1419, "pitch": 72, "duration": 19, "velocity": 84}, {"time": 1443, "pitch": 53, "duration": 49, "velocity": 69}, {"time": 1443, "pitch": 65, "duration": 49, "velocity": 78}, {"time": 1443, "pitch": 68, "duration": 49, "velocity": 81}, {"time": 1443, "pitch": 72, "duration": 49, "velocity": 79}, {"time": 1491, "pitch": 53, "duration": 1, "velocity": 84}, {"time": 1491, "pitch": 65, "duration": 1, "velocity": 87}, {"time": 1491, "pitch": 72, "duration": 1, "velocity": 88}, {"time": 1497, "pitch": 60, "duration": 32, "velocity": 64}, {"time": 1503, "pitch": 65, "duration": 10, "velocity": 87}, {"time": 1503, "pitch": 72, "duration": 10, "velocity": 86}, {"time": 1515, "pitch": 65, "duration": 9, "velocity": 81}, {"time": 1515, "pitch": 72, "duration": 9, "velocity": 78}, {"time": 1527, "pitch": 65, "duration": 9, "velocity": 82}, {"time": 1527, "pitch": 72, "duration": 11, "velocity": 84}, {"time": 1539, "pitch": 49, "duration": 43, "velocity": 71}, {"time": 1539, "pitch": 61, "duration": 45, "velocity": 76}, {"time": 1539, "pitch": 65, "duration": 9, "velocity": 64}, {"time": 1539, "pitch": 73, "duration": 9, "velocity": 84}, {"time": 1551, "pitch": 65, "duration": 9, "velocity": 81}, {"time": 1551, "pitch": 73, "duration": 9, "velocity": 83}, {"time": 1563, "pitch": 65, "duration": 10, "velocity": 83}, {"time": 1563, "pitch": 73, "duration": 10, "velocity": 83}, {"time": 1575, "pitch": 65, "duration": 4, "velocity": 87}, {"time": 1575, "pitch": 73, "duration": 7, "velocity": 88}, {"time": 1581, "pitch": 65, "duration": 3, "velocity": 87}, {"time": 1587, "pitch": 51, "duration": 44, "velocity": 74}, {"time": 1587, "pitch": 63, "duration": 9, "velocity": 81}, {"time": 1587, "pitch": 67, "duration": 9, "velocity": 84}, {"time": 1587, "pitch": 70, "duration": 8, "velocity": 80}, {"time": 1599, "pitch": 63, "duration": 9, "velocity": 78}, {"time": 1599, "pitch": 67, "duration": 9, "velocity": 85}, {"time": 1599, "pitch": 70, "duration": 9, "velocity": 78}, {"time": 1611, "pitch": 63, "duration": 9, "velocity": 79}, {"time": 1611, "pitch": 67, "duration": 9, "velocity": 84}, {"time": 1611, "pitch": 70, "duration": 9, "velocity": 79}, {"time": 1623, "pitch": 63, "duration": 8, "velocity": 79}, {"time": 1623, "pitch": 67, "duration": 8, "velocity": 84}, {"time": 1623, "pitch": 70, "duration": 7, "velocity": 80}, {"time": 1635, "pitch": 53, "duration": 15, "velocity": 79}, {"time": 1635, "pitch": 65, "duration": 9, "velocity": 75}, {"time": 1635, "pitch": 68, "duration": 9, "velocity": 78}, {"time": 1635, "pitch": 72, "duration": 8, "velocity": 84}, {"time": 1647, "pitch": 65, "duration": 10, "velocity": 75}, {"time": 1647, "pitch": 68, "duration": 9, "velocity": 78}, {"time": 1647, "pitch": 72, "duration": 9, "velocity": 79}, {"time": 1659, "pitch": 65, "duration": 8, "velocity": 76}, {"time": 1659, "pitch": 68, "duration": 8, "velocity": 76}, {"time": 1659, "pitch": 72, "duration": 8, "velocity": 78}, {"time": 1671, "pitch": 65, "duration": 8, "velocity": 83}, {"time": 1671, "pitch": 68, "duration": 8, "velocity": 78}, {"time": 1671, "pitch": 72, "duration": 8, "velocity": 83}, {"time": 1683, "pitch": 53, "duration": 41, "velocity": 87}, {"time": 1683, "pitch": 65, "duration": 6, "velocity": 79}, {"time": 1683, "pitch": 68, "duration": 6, "velocity": 81}, {"time": 1683, "pitch": 72, "duration": 6, "velocity": 81}, {"time": 1689, "pitch": 60, "duration": 20, "velocity": 64}, {"time": 1695, "pitch": 65, "duration": 9, "velocity": 78}, {"time": 1695, "pitch": 68, "duration": 9, "velocity": 76}, {"time": 1695, "pitch": 72, "duration": 9, "velocity": 80}, {"time": 1707, "pitch": 65, "duration": 9, "velocity": 83}, {"time": 1707, "pitch": 68, "duration": 9, "velocity": 84}, {"time": 1707, "pitch": 72, "duration": 9, "velocity": 84}, {"time": 1719, "pitch": 60, "duration": 4, "velocity": 64}, {"time": 1719, "pitch": 65, "duration": 4, "velocity": 88}, {"time": 1719, "pitch": 68, "duration": 3, "velocity": 87}, {"time": 1725, "pitch": 72, "duration": 3, "velocity": 98}, {"time": 1731, "pitch": 46, "duration": 41, "velocity": 81}, {"time": 1731, "pitch": 58, "duration": 43, "velocity": 81}, {"time": 1731, "pitch": 61, "duration": 8, "velocity": 78}, {"time": 1731, "pitch": 65, "duration": 8, "velocity": 83}, {"time": 1731, "pitch": 70, "duration": 7, "velocity": 83}, {"time": 1743, "pitch": 61, "duration": 8, "velocity": 86}, {"time": 1743, "pitch": 65, "duration": 8, "velocity": 85}, {"time": 1743, "pitch": 70, "duration": 8, "velocity": 87}, {"time": 1755, "pitch": 61, "duration": 8, "velocity": 81}, {"time": 1755, "pitch": 65, "duration": 8, "velocity": 82}, {"time": 1755, "pitch": 70, "duration": 8, "velocity": 81}, {"time": 1767, "pitch": 61, "duration": 9, "velocity": 81}, {"time": 1767, "pitch": 65, "duration": 10, "velocity": 86}, {"time": 1767, "pitch": 70, "duration": 9, "velocity": 85}, {"time": 1779, "pitch": 48, "duration": 39, "velocity": 78}, {"time": 1779, "pitch": 60, "duration": 8, "velocity": 83}, {"time": 1779, "pitch": 63, "duration": 8, "velocity": 87}, {"time": 1779, "pitch": 67, "duration": 8, "velocity": 84}, {"time": 1791, "pitch": 60, "duration": 9, "velocity": 84}, {"time": 1791, "pitch": 63, "duration": 9, "velocity": 88}, {"time": 1791, "pitch": 67, "duration": 9, "velocity": 78}, {"time": 1803, "pitch": 60, "duration": 8, "velocity": 82}, {"time": 1803, "pitch": 63, "duration": 8, "velocity": 89}, {"time": 1803, "pitch": 67, "duration": 9, "velocity": 78}, {"time": 1815, "pitch": 60, "duration": 8, "velocity": 85}, {"time": 1815, "pitch": 63, "duration": 9, "velocity": 90}, {"time": 1815, "pitch": 67, "duration": 8, "velocity": 79}, {"time": 1827, "pitch": 53, "duration": 45, "velocity": 83}, {"time": 1827, "pitch": 60, "duration": 10, "velocity": 81}, {"time": 1827, "pitch": 65, "duration": 10, "velocity": 79}, {"time": 1827, "pitch": 68, "duration": 9, "velocity": 87}, {"time": 1839, "pitch": 60, "duration": 9, "velocity": 81}, {"time": 1839, "pitch": 65, "duration": 9, "velocity": 82}, {"time": 1839, "pitch": 68, "duration": 9, "velocity": 82}, {"time": 1851, "pitch": 60, "duration": 9, "velocity": 82}, {"time": 1851, "pitch": 65, "duration": 9, "velocity": 84}, {"time": 1851, "pitch": 68, "duration": 9, "velocity": 82}, {"time": 1863, "pitch": 60, "duration": 7, "velocity": 84}, {"time": 1863, "pitch": 65, "duration": 8, "velocity": 84}, {"time": 1863, "pitch": 68, "duration": 8, "velocity": 84}, {"time": 1875, "pitch": 44, "duration": 41, "velocity": 85}, {"time": 1875, "pitch": 56, "duration": 42, "velocity": 84}, {"time": 1875, "pitch": 63, "duration": 9, "velocity": 87}, {"time": 1875, "pitch": 68, "duration": 8, "velocity": 88}, {"time": 1875, "pitch": 72, "duration": 7, "velocity": 88}, {"time": 1887, "pitch": 63, "duration": 11, "velocity": 88}, {"time": 1887, "pitch": 68, "duration": 11, "velocity": 88}, {"time": 1887, "pitch": 72, "duration": 11, "velocity": 89}, {"time": 1899, "pitch": 63, "duration": 9, "velocity": 88}, {"time": 1899, "pitch": 68, "duration": 9, "velocity": 90}, {"time": 1899, "pitch": 72, "duration": 9, "velocity": 87}, {"time": 1911, "pitch": 63, "duration": 9, "velocity": 88}, {"time": 1911, "pitch": 68, "duration": 10, "velocity": 90}, {"time": 1911, "pitch": 72, "duration": 8, "velocity": 88}, {"time": 1923, "pitch": 51, "duration": 39, "velocity": 87}, {"time": 1923, "pitch": 63, "duration": 10, "velocity": 90}, {"time": 1923, "pitch": 67, "duration": 11, "velocity": 97}, {"time": 1923, "pitch": 70, "duration": 10, "velocity": 91}, {"time": 1935, "pitch": 63, "duration": 8, "velocity": 91}, {"time": 1935, "pitch": 67, "duration": 7, "velocity": 106}, {"time": 1935, "pitch": 70, "duration": 7, "velocity": 98}, {"time": 1944, "pitch": 63, "duration": 1, "velocity": 88}, {"time": 1944, "pitch": 67, "duration": 1, "velocity": 90}, {"time": 1944, "pitch": 70, "duration": 1, "velocity": 90}, {"time": 1950, "pitch": 63, "duration": 7, "velocity": 86}, {"time": 1950, "pitch": 67, "duration": 7, "velocity": 87}, {"time": 1950, "pitch": 70, "duration": 7, "velocity": 88}, {"time": 1959, "pitch": 63, "duration": 7, "velocity": 93}, {"time": 1959, "pitch": 67, "duration": 9, "velocity": 106}, {"time": 1959, "pitch": 70, "duration": 8, "velocity": 100}, {"time": 1965, "pitch": 51, "duration": 3, "velocity": 87}, {"time": 1971, "pitch": 49, "duration": 43, "velocity": 88}, {"time": 1971, "pitch": 61, "duration": 9, "velocity": 88}, {"time": 1971, "pitch": 65, "duration": 9, "velocity": 92}, {"time": 1971, "pitch": 68, "duration": 8, "velocity": 91}, {"time": 1983, "pitch": 61, "duration": 9, "velocity": 89}, {"time": 1983, "pitch": 65, "duration": 10, "velocity": 88}, {"time": 1983, "pitch": 68, "duration": 8, "velocity": 88}, {"time": 1995, "pitch": 61, "duration": 9, "velocity": 90}, {"time": 1995, "pitch": 65, "duration": 9, "velocity": 92}, {"time": 1995, "pitch": 68, "duration": 8, "velocity": 90}, {"time": 2007, "pitch": 61, "duration": 8, "velocity": 90}, {"time": 2007, "pitch": 65, "duration": 9, "velocity": 92}, {"time": 2007, "pitch": 68, "duration": 10, "velocity": 92}, {"time": 2019, "pitch": 44, "duration": 15, "velocity": 84}, {"time": 2019, "pitch": 56, "duration": 13, "velocity": 86}, {"time": 2019, "pitch": 60, "duration": 7, "velocity": 89}, {"time": 2019, "pitch": 63, "duration": 7, "velocity": 91}, {"time": 2019, "pitch": 68, "duration": 6, "velocity": 89}, {"time": 2031, "pitch": 60, "duration": 8, "velocity": 94}, {"time": 2031, "pitch": 63, "duration": 10, "velocity": 107}, {"time": 2031, "pitch": 68, "duration": 8, "velocity": 89}, {"time": 2043, "pitch": 39, "duration": 14, "velocity": 87}, {"time": 2043, "pitch": 51, "duration": 15, "velocity": 87}, {"time": 2043, "pitch": 58, "duration": 9, "velocity": 88}, {"time": 2043, "pitch": 63, "duration": 10, "velocity": 88}, {"time": 2043, "pitch": 67, "duration": 9, "velocity": 86}, {"time": 2055, "pitch": 58, "duration": 6, "velocity": 91}, {"time": 2055, "pitch": 63, "duration": 8, "velocity": 110}, {"time": 2055, "pitch": 67, "duration": 8, "velocity": 100}, {"time": 2061, "pitch": 39, "duration": 1, "velocity": 86}, {"time": 2061, "pitch": 51, "duration": 2, "velocity": 94}, {"time": 2067, "pitch": 44, "duration": 43, "velocity": 89}, {"time": 2067, "pitch": 56, "duration": 44, "velocity": 93}, {"time": 2067, "pitch": 60, "duration": 9, "velocity": 93}, {"time": 2067, "pitch": 63, "duration": 8, "velocity": 110}, {"time": 2067, "pitch": 68, "duration": 8, "velocity": 107}, {"time": 2079, "pitch": 60, "duration": 10, "velocity": 102}, {"time": 2079, "pitch": 63, "duration": 10, "velocity": 114}, {"time": 2079, "pitch": 68, "duration": 10, "velocity": 107}, {"time": 2091, "pitch": 60, "duration": 9, "velocity": 90}, {"time": 2091, "pitch": 63, "duration": 9, "velocity": 98}, {"time": 2091, "pitch": 68, "duration": 8, "velocity": 91}, {"time": 2103, "pitch": 60, "duration": 8, "velocity": 96}, {"time": 2103, "pitch": 63, "duration": 9, "velocity": 110}, {"time": 2103, "pitch": 68, "duration": 8, "velocity": 98}, {"time": 2115, "pitch": 51, "duration": 39, "velocity": 88}, {"time": 2115, "pitch": 63, "duration": 9, "velocity": 88}, {"time": 2115, "pitch": 67, "duration": 9, "velocity": 100}, {"time": 2115, "pitch": 70, "duration": 8, "velocity": 94}, {"time": 2127, "pitch": 63, "duration": 10, "velocity": 91}, {"time": 2127, "pitch": 67, "duration": 10, "velocity": 93}, {"time": 2127, "pitch": 70, "duration": 10, "velocity": 92}, {"time": 2139, "pitch": 63, "duration": 9, "velocity": 91}, {"time": 2139, "pitch": 67, "duration": 9, "velocity": 89}, {"time": 2139, "pitch": 70, "duration": 9, "velocity": 89}, {"time": 2151, "pitch": 63, "duration": 7, "velocity": 94}, {"time": 2151, "pitch": 67, "duration": 7, "velocity": 103}, {"time": 2151, "pitch": 70, "duration": 7, "velocity": 93}, {"time": 2163, "pitch": 49, "duration": 20, "velocity": 86}, {"time": 2163, "pitch": 61, "duration": 8, "velocity": 91}, {"time": 2163, "pitch": 65, "duration": 7, "velocity": 102}, {"time": 2163, "pitch": 68, "duration": 7, "velocity": 96}, {"time": 2175, "pitch": 61, "duration": 7, "velocity": 90}, {"time": 2175, "pitch": 65, "duration": 7, "velocity": 92}, {"time": 2175, "pitch": 68, "duration": 8, "velocity": 92}, {"time": 2187, "pitch": 51, "duration": 15, "velocity": 87}, {"time": 2187, "pitch": 58, "duration": 9, "velocity": 89}, {"time": 2187, "pitch": 63, "duration": 8, "velocity": 96}, {"time": 2187, "pitch": 67, "duration": 8, "velocity": 85}, {"time": 2199, "pitch": 58, "duration": 7, "velocity": 93}, {"time": 2199, "pitch": 63, "duration": 10, "velocity": 110}, {"time": 2199, "pitch": 67, "duration": 8, "velocity": 90}, {"time": 2212, "pitch": 41, "duration": 48, "velocity": 88}, {"time": 2212, "pitch": 53, "duration": 48, "velocity": 88}, {"time": 2212, "pitch": 65, "duration": 48, "velocity": 87}, {"time": 2212, "pitch": 72, "duration": 44, "velocity": 93}, {"time": 2260, "pitch": 37, "duration": 45, "velocity": 78}, {"time": 2260, "pitch": 49, "duration": 45, "velocity": 78}, {"time": 2260, "pitch": 61, "duration": 47, "velocity": 80}, {"time": 2260, "pitch": 68, "duration": 48, "velocity": 81}, {"time": 2308, "pitch": 34, "duration": 21, "velocity": 89}, {"time": 2308, "pitch": 46, "duration": 21, "velocity": 89}, {"time": 2314, "pitch": 53, "duration": 17, "velocity": 76}, {"time": 2320, "pitch": 58, "duration": 9, "velocity": 78}, {"time": 2332, "pitch": 36, "duration": 20, "velocity": 87}, {"time": 2332, "pitch": 48, "duration": 20, "velocity": 87}, {"time": 2338, "pitch": 55, "duration": 15, "velocity": 76}, {"time": 2344, "pitch": 58, "duration": 13, "velocity": 84}, {"time": 2356, "pitch": 41, "duration": 44, "velocity": 85}, {"time": 2356, "pitch": 53, "duration": 44, "velocity": 85}, {"time": 2362, "pitch": 60, "duration": 37, "velocity": 72}, {"time": 2368, "pitch": 65, "duration": 29, "velocity": 72}, {"time": 2374, "pitch": 68, "duration": 25, "velocity": 72}, {"time": 2374, "pitch": 72, "duration": 24, "velocity": 75}, {"time": 2404, "pitch": 41, "duration": 43, "velocity": 84}, {"time": 2404, "pitch": 53, "duration": 43, "velocity": 84}, {"time": 2404, "pitch": 65, "duration": 45, "velocity": 83}, {"time": 2404, "pitch": 72, "duration": 43, "velocity": 86}, {"time": 2452, "pitch": 37, "duration": 41, "velocity": 78}, {"time": 2452, "pitch": 49, "duration": 41, "velocity": 78}, {"time": 2452, "pitch": 61, "duration": 44, "velocity": 83}, {"time": 2452, "pitch": 68, "duration": 44, "velocity": 84}, {"time": 2500, "pitch": 34, "duration": 22, "velocity": 86}, {"time": 2500, "pitch": 46, "duration": 22, "velocity": 86}, {"time": 2506, "pitch": 53, "duration": 18, "velocity": 67}, {"time": 2512, "pitch": 58, "duration": 12, "velocity": 86}, {"time": 2524, "pitch": 36, "duration": 20, "velocity": 84}, {"time": 2524, "pitch": 48, "duration": 20, "velocity": 84}, {"time": 2530, "pitch": 55, "duration": 15, "velocity": 73}, {"time": 2536, "pitch": 58, "duration": 13, "velocity": 80}, {"time": 2548, "pitch": 41, "duration": 23, "velocity": 86}, {"time": 2548, "pitch": 53, "duration": 23, "velocity": 86}, {"time": 2554, "pitch": 60, "duration": 16, "velocity": 76}, {"time": 2560, "pitch": 65, "duration": 9, "velocity": 81}, {"time": 2566, "pitch": 68, "duration": 3, "velocity": 78}, {"time": 2572, "pitch": 39, "duration": 23, "velocity": 87}, {"time": 2572, "pitch": 51, "duration": 23, "velocity": 87}, {"time": 2572, "pitch": 63, "duration": 22, "velocity": 88}, {"time": 2572, "pitch": 67, "duration": 23, "velocity": 89}, {"time": 2572, "pitch": 70, "duration": 22, "velocity": 88}, {"time": 2596, "pitch": 53, "duration": 12, "velocity": 88}, {"time": 2596, "pitch": 65, "duration": 11, "velocity": 88}, {"time": 2596, "pitch": 68, "duration": 11, "velocity": 98}, {"time": 2596, "pitch": 72, "duration": 10, "velocity": 94}, {"time": 2608, "pitch": 65, "duration": 11, "velocity": 88}, {"time": 2608, "pitch": 68, "duration": 11, "velocity": 92}, {"time": 2608, "pitch": 72, "duration": 11, "velocity": 89}, {"time": 2614, "pitch": 53, "duration": 2, "velocity": 97}, {"time": 2617, "pitch": 53, "duration": 12, "velocity": 97}, {"time": 2623, "pitch": 65, "duration": 8, "velocity": 88}, {"time": 2623, "pitch": 68, "duration": 8, "velocity": 89}, {"time": 2623, "pitch": 72, "duration": 6, "velocity": 90}, {"time": 2629, "pitch": 53, "duration": 9, "velocity": 97}, {"time": 2632, "pitch": 65, "duration": 9, "velocity": 89}, {"time": 2632, "pitch": 68, "duration": 10, "velocity": 93}, {"time": 2632, "pitch": 72, "duration": 9, "velocity": 92}, {"time": 2644, "pitch": 49, "duration": 18, "velocity": 86}, {"time": 2644, "pitch": 61, "duration": 43, "velocity": 84}, {"time": 2644, "pitch": 65, "duration": 10, "velocity": 88}, {"time": 2644, "pitch": 68, "duration": 9, "velocity": 91}, {"time": 2644, "pitch": 73, "duration": 10, "velocity": 94}, {"time": 2656, "pitch": 65, "duration": 10, "velocity": 88}, {"time": 2656, "pitch": 68, "duration": 10, "velocity": 90}, {"time": 2656, "pitch": 73, "duration": 11, "velocity": 88}, {"time": 2662, "pitch": 49, "duration": 2, "velocity": 97}, {"time": 2665, "pitch": 49, "duration": 9, "velocity": 97}, {"time": 2671, "pitch": 65, "duration": 7, "velocity": 92}, {"time": 2671, "pitch": 68, "duration": 7, "velocity": 92}, {"time": 2671, "pitch": 73, "duration": 7, "velocity": 86}, {"time": 2677, "pitch": 49, "duration": 9, "velocity": 97}, {"time": 2680, "pitch": 65, "duration": 7, "velocity": 88}, {"time": 2680, "pitch": 68, "duration": 8, "velocity": 88}, {"time": 2680, "pitch": 73, "duration": 6, "velocity": 85}, {"time": 2689, "pitch": 48, "duration": 3, "velocity": 97}, {"time": 2692, "pitch": 46, "duration": 18, "velocity": 91}, {"time": 2692, "pitch": 61, "duration": 9, "velocity": 93}, {"time": 2692, "pitch": 65, "duration": 9, "velocity": 102}, {"time": 2692, "pitch": 70, "duration": 9, "velocity": 98}, {"time": 2704, "pitch": 61, "duration": 8, "velocity": 91}, {"time": 2704, "pitch": 65, "duration": 9, "velocity": 102}, {"time": 2704, "pitch": 70, "duration": 8, "velocity": 92}, {"time": 2710, "pitch": 46, "duration": 3, "velocity": 97}, {"time": 2713, "pitch": 34, "duration": 3, "velocity": 97}, {"time": 2716, "pitch": 48, "duration": 24, "velocity": 84}, {"time": 2716, "pitch": 60, "duration": 22, "velocity": 88}, {"time": 2716, "pitch": 64, "duration": 10, "velocity": 90}, {"time": 2716, "pitch": 67, "duration": 9, "velocity": 90}, {"time": 2716, "pitch": 72, "duration": 9, "velocity": 91}, {"time": 2728, "pitch": 64, "duration": 8, "velocity": 95}, {"time": 2728, "pitch": 67, "duration": 9, "velocity": 95}, {"time": 2728, "pitch": 72, "duration": 9, "velocity": 100}, {"time": 2740, "pitch": 53, "duration": 9, "velocity": 87}, {"time": 2740, "pitch": 65, "duration": 6, "velocity": 88}, {"time": 2740, "pitch": 68, "duration": 6, "velocity": 94}, {"time": 2740, "pitch": 72, "duration": 6, "velocity": 89}, {"time": 2740, "pitch": 41, "duration": 9, "velocity": 97}, {"time": 2749, "pitch": 43, "duration": 9, "velocity": 97}, {"time": 2749, "pitch": 55, "duration": 9, "velocity": 97}, {"time": 2749, "pitch": 63, "duration": 10, "velocity": 89}, {"time": 2749, "pitch": 67, "duration": 10, "velocity": 92}, {"time": 2749, "pitch": 70, "duration": 9, "velocity": 91}, {"time": 2758, "pitch": 68, "duration": 16, "velocity": 88}, {"time": 2758, "pitch": 44, "duration": 18, "velocity": 97}, {"time": 2758, "pitch": 56, "duration": 18, "velocity": 97}, {"time": 2758, "pitch": 63, "duration": 1, "velocity": 89}, {"time": 2758, "pitch": 72, "duration": 15, "velocity": 88}, {"time": 2776, "pitch": 65, "duration": 9, "velocity": 98}, {"time": 2776, "pitch": 68, "duration": 10, "velocity": 98}, {"time": 2776, "pitch": 72, "duration": 9, "velocity": 94}, {"time": 2788, "pitch": 53, "duration": 18, "velocity": 92}, {"time": 2788, "pitch": 65, "duration": 10, "velocity": 96}, {"time": 2788, "pitch": 68, "duration": 10, "velocity": 110}, {"time": 2788, "pitch": 72, "duration": 9, "velocity": 102}, {"time": 2800, "pitch": 65, "duration": 10, "velocity": 98}, {"time": 2800, "pitch": 68, "duration": 10, "velocity": 100}, {"time": 2800, "pitch": 72, "duration": 9, "velocity": 93}, {"time": 2806, "pitch": 53, "duration": 3, "velocity": 97}, {"time": 2809, "pitch": 53, "duration": 9, "velocity": 97}, {"time": 2815, "pitch": 65, "duration": 6, "velocity": 92}, {"time": 2815, "pitch": 68, "duration": 6, "velocity": 88}, {"time": 2815, "pitch": 72, "duration": 5, "velocity": 90}, {"time": 2821, "pitch": 53, "duration": 6, "velocity": 97}, {"time": 2824, "pitch": 65, "duration": 10, "velocity": 104}, {"time": 2824, "pitch": 68, "duration": 11, "velocity": 98}, {"time": 2824, "pitch": 72, "duration": 8, "velocity": 96}, {"time": 2836, "pitch": 49, "duration": 18, "velocity": 87}, {"time": 2836, "pitch": 61, "duration": 44, "velocity": 88}, {"time": 2836, "pitch": 65, "duration": 9, "velocity": 93}, {"time": 2836, "pitch": 68, "duration": 9, "velocity": 93}, {"time": 2836, "pitch": 73, "duration": 8, "velocity": 93}, {"time": 2848, "pitch": 65, "duration": 9, "velocity": 94}, {"time": 2848, "pitch": 68, "duration": 9, "velocity": 90}, {"time": 2848, "pitch": 73, "duration": 10, "velocity": 89}, {"time": 2854, "pitch": 49, "duration": 3, "velocity": 97}, {"time": 2857, "pitch": 49, "duration": 12, "velocity": 97}, {"time": 2863, "pitch": 65, "duration": 6, "velocity": 89}, {"time": 2863, "pitch": 68, "duration": 6, "velocity": 90}, {"time": 2863, "pitch": 73, "duration": 7, "velocity": 87}, {"time": 2869, "pitch": 49, "duration": 12, "velocity": 97}, {"time": 2872, "pitch": 65, "duration": 9, "velocity": 93}, {"time": 2872, "pitch": 68, "duration": 10, "velocity": 94}, {"time": 2872, "pitch": 73, "duration": 9, "velocity": 89}, {"time": 2884, "pitch": 43, "duration": 20, "velocity": 93}, {"time": 2884, "pitch": 55, "duration": 18, "velocity": 93}, {"time": 2884, "pitch": 67, "duration": 10, "velocity": 103}, {"time": 2884, "pitch": 70, "duration": 10, "velocity": 116}, {"time": 2884, "pitch": 73, "duration": 8, "velocity": 100}, {"time": 2896, "pitch": 67, "duration": 7, "velocity": 100}, {"time": 2896, "pitch": 70, "duration": 7, "velocity": 114}, {"time": 2896, "pitch": 73, "duration": 7, "velocity": 104}, {"time": 2905, "pitch": 55, "duration": 3, "velocity": 97}, {"time": 2908, "pitch": 48, "duration": 22, "velocity": 88}, {"time": 2908, "pitch": 64, "duration": 10, "velocity": 89}, {"time": 2908, "pitch": 67, "duration": 10, "velocity": 91}, {"time": 2908, "pitch": 72, "duration": 9, "velocity": 100}, {"time": 2920, "pitch": 64, "duration": 7, "velocity": 95}, {"time": 2920, "pitch": 67, "duration": 7, "velocity": 97}, {"time": 2920, "pitch": 72, "duration": 7, "velocity": 108}, {"time": 2932, "pitch": 49, "duration": 18, "velocity": 91}, {"time": 2932, "pitch": 61, "duration": 11, "velocity": 94}, {"time": 2932, "pitch": 65, "duration": 11, "velocity": 100}, {"time": 2932, "pitch": 68, "duration": 10, "velocity": 94}, {"time": 2944, "pitch": 61, "duration": 11, "velocity": 90}, {"time": 2944, "pitch": 65, "duration": 11, "velocity": 98}, {"time": 2944, "pitch": 68, "duration": 11, "velocity": 91}, {"time": 2950, "pitch": 49, "duration": 3, "velocity": 97}, {"time": 2953, "pitch": 49, "duration": 12, "velocity": 97}, {"time": 2956, "pitch": 61, "duration": 10, "velocity": 87}, {"time": 2956, "pitch": 65, "duration": 10, "velocity": 94}, {"time": 2956, "pitch": 68, "duration": 8, "velocity": 89}, {"time": 2965, "pitch": 49, "duration": 15, "velocity": 97}, {"time": 2968, "pitch": 61, "duration": 10, "velocity": 88}, {"time": 2968, "pitch": 65, "duration": 11, "velocity": 92}, {"time": 2968, "pitch": 68, "duration": 11, "velocity": 91}, {"time": 2980, "pitch": 44, "duration": 41, "velocity": 85}, {"time": 2980, "pitch": 56, "duration": 43, "velocity": 84}, {"time": 2980, "pitch": 63, "duration": 9, "velocity": 87}, {"time": 2980, "pitch": 68, "duration": 8, "velocity": 88}, {"time": 2980, "pitch": 72, "duration": 8, "velocity": 88}, {"time": 2992, "pitch": 63, "duration": 12, "velocity": 88}, {"time": 2992, "pitch": 68, "duration": 12, "velocity": 88}, {"time": 2992, "pitch": 72, "duration": 11, "velocity": 89}, {"time": 3004, "pitch": 63, "duration": 9, "velocity": 88}, {"time": 3004, "pitch": 68, "duration": 9, "velocity": 90}, {"time": 3004, "pitch": 72, "duration": 9, "velocity": 87}, {"time": 3016, "pitch": 63, "duration": 9, "velocity": 88}, {"time": 3016, "pitch": 68, "duration": 10, "velocity": 90}, {"time": 3016, "pitch": 72, "duration": 9, "velocity": 88}, {"time": 3028, "pitch": 51, "duration": 40, "velocity": 87}, {"time": 3028, "pitch": 63, "duration": 11, "velocity": 90}, {"time": 3028, "pitch": 67, "duration": 11, "velocity": 97}, {"time": 3028, "pitch": 70, "duration": 10, "velocity": 91}, {"time": 3040, "pitch": 63, "duration": 8, "velocity": 91}, {"time": 3040, "pitch": 67, "duration": 8, "velocity": 106}, {"time": 3040, "pitch": 70, "duration": 8, "velocity": 98}, {"time": 3049, "pitch": 63, "duration": 2, "velocity": 88}, {"time": 3049, "pitch": 67, "duration": 1, "velocity": 90}, {"time": 3049, "pitch": 70, "duration": 1, "velocity": 90}, {"time": 3055, "pitch": 63, "duration": 7, "velocity": 86}, {"time": 3055, "pitch": 67, "duration": 7, "velocity": 87}, {"time": 3055, "pitch": 70, "duration": 7, "velocity": 88}, {"time": 3064, "pitch": 63, "duration": 8, "velocity": 93}, {"time": 3064, "pitch": 67, "duration": 9, "velocity": 106}, {"time": 3064, "pitch": 70, "duration": 8, "velocity": 100}, {"time": 3070, "pitch": 51, "duration": 3, "velocity": 87}, {"time": 3076, "pitch": 49, "duration": 44, "velocity": 88}, {"time": 3076, "pitch": 61, "duration": 9, "velocity": 88}, {"time": 3076, "pitch": 65, "duration": 10, "velocity": 92}, {"time": 3076, "pitch": 68, "duration": 8, "velocity": 91}, {"time": 3088, "pitch": 61, "duration": 10, "velocity": 89}, {"time": 3088, "pitch": 65, "duration": 10, "velocity": 88}, {"time": 3088, "pitch": 68, "duration": 9, "velocity": 88}, {"time": 3100, "pitch": 61, "duration": 9, "velocity": 90}, {"time": 3100, "pitch": 65, "duration": 10, "velocity": 92}, {"time": 3100, "pitch": 68, "duration": 8, "velocity": 90}, {"time": 3112, "pitch": 61, "duration": 8, "velocity": 90}, {"time": 3112, "pitch": 65, "duration": 10, "velocity": 92}, {"time": 3112, "pitch": 68, "duration": 10, "velocity": 92}, {"time": 3124, "pitch": 44, "duration": 15, "velocity": 84}, {"time": 3124, "pitch": 56, "duration": 14, "velocity": 86}, {"time": 3124, "pitch": 60, "duration": 7, "velocity": 89}, {"time": 3124, "pitch": 63, "duration": 8, "velocity": 91}, {"time": 3124, "pitch": 68, "duration": 7, "velocity": 89}, {"time": 3136, "pitch": 60, "duration": 8, "velocity": 94}, {"time": 3136, "pitch": 63, "duration": 11, "velocity": 107}, {"time": 3136, "pitch": 68, "duration": 8, "velocity": 89}, {"time": 3148, "pitch": 39, "duration": 15, "velocity": 87}, {"time": 3148, "pitch": 51, "duration": 15, "velocity": 87}, {"time": 3148, "pitch": 58, "duration": 10, "velocity": 88}, {"time": 3148, "pitch": 63, "duration": 10, "velocity": 88}, {"time": 3148, "pitch": 67, "duration": 9, "velocity": 86}, {"time": 3160, "pitch": 58, "duration": 7, "velocity": 91}, {"time": 3160, "pitch": 63, "duration": 9, "velocity": 110}, {"time": 3160, "pitch": 67, "duration": 9, "velocity": 100}, {"time": 3166, "pitch": 39, "duration": 2, "velocity": 86}, {"time": 3166, "pitch": 51, "duration": 2, "velocity": 94}, {"time": 3172, "pitch": 44, "duration": 43, "velocity": 89}, {"time": 3172, "pitch": 56, "duration": 45, "velocity": 93}, {"time": 3172, "pitch": 60, "duration": 9, "velocity": 93}, {"time": 3172, "pitch": 63, "duration": 9, "velocity": 110}, {"time": 3172, "pitch": 68, "duration": 9, "velocity": 107}, {"time": 3184, "pitch": 60, "duration": 11, "velocity": 102}, {"time": 3184, "pitch": 63, "duration": 11, "velocity": 114}, {"time": 3184, "pitch": 68, "duration": 10, "velocity": 107}, {"time": 3196, "pitch": 60, "duration": 9, "velocity": 90}, {"time": 3196, "pitch": 63, "duration": 9, "velocity": 98}, {"time": 3196, "pitch": 68, "duration": 9, "velocity": 91}, {"time": 3208, "pitch": 60, "duration": 8, "velocity": 96}, {"time": 3208, "pitch": 63, "duration": 9, "velocity": 110}, {"time": 3208, "pitch": 68, "duration": 8, "velocity": 98}, {"time": 3220, "pitch": 51, "duration": 40, "velocity": 88}, {"time": 3220, "pitch": 63, "duration": 9, "velocity": 88}, {"time": 3220, "pitch": 67, "duration": 9, "velocity": 100}, {"time": 3220, "pitch": 70, "duration": 8, "velocity": 94}, {"time": 3232, "pitch": 63, "duration": 10, "velocity": 91}, {"time": 3232, "pitch": 67, "duration": 11, "velocity": 93}, {"time": 3232, "pitch": 70, "duration": 10, "velocity": 92}, {"time": 3244, "pitch": 63, "duration": 9, "velocity": 91}, {"time": 3244, "pitch": 67, "duration": 9, "velocity": 89}, {"time": 3244, "pitch": 70, "duration": 9, "velocity": 89}, {"time": 3256, "pitch": 63, "duration": 8, "velocity": 94}, {"time": 3256, "pitch": 67, "duration": 8, "velocity": 103}, {"time": 3256, "pitch": 70, "duration": 8, "velocity": 93}, {"time": 3268, "pitch": 49, "duration": 20, "velocity": 86}, {"time": 3268, "pitch": 61, "duration": 8, "velocity": 91}, {"time": 3268, "pitch": 65, "duration": 8, "velocity": 102}, {"time": 3268, "pitch": 68, "duration": 7, "velocity": 96}, {"time": 3280, "pitch": 61, "duration": 7, "velocity": 90}, {"time": 3280, "pitch": 65, "duration": 7, "velocity": 92}, {"time": 3280, "pitch": 68, "duration": 9, "velocity": 92}, {"time": 3292, "pitch": 51, "duration": 15, "velocity": 87}, {"time": 3292, "pitch": 58, "duration": 9, "velocity": 89}, {"time": 3292, "pitch": 63, "duration": 9, "velocity": 96}, {"time": 3292, "pitch": 67, "duration": 9, "velocity": 85}, {"time": 3304, "pitch": 58, "duration": 8, "velocity": 93}, {"time": 3304, "pitch": 63, "duration": 10, "velocity": 110}, {"time": 3304, "pitch": 67, "duration": 9, "velocity": 90}, {"time": 3364, "pitch": 44, "duration": 41, "velocity": 85}, {"time": 3364, "pitch": 56, "duration": 43, "velocity": 84}, {"time": 3364, "pitch": 63, "duration": 9, "velocity": 87}, {"time": 3364, "pitch": 68, "duration": 8, "velocity": 88}, {"time": 3364, "pitch": 72, "duration": 8, "velocity": 88}, {"time": 3376, "pitch": 63, "duration": 12, "velocity": 88}, {"time": 3376, "pitch": 68, "duration": 12, "velocity": 88}, {"time": 3376, "pitch": 72, "duration": 11, "velocity": 89}, {"time": 3388, "pitch": 63, "duration": 9, "velocity": 88}, {"time": 3388, "pitch": 68, "duration": 9, "velocity": 90}, {"time": 3388, "pitch": 72, "duration": 9, "velocity": 87}, {"time": 3400, "pitch": 63, "duration": 9, "velocity": 88}, {"time": 3400, "pitch": 68, "duration": 10, "velocity": 90}, {"time": 3400, "pitch": 72, "duration": 9, "velocity": 88}, {"time": 3412, "pitch": 51, "duration": 40, "velocity": 87}, {"time": 3412, "pitch": 63, "duration": 11, "velocity": 90}, {"time": 3412, "pitch": 67, "duration": 11, "velocity": 97}, {"time": 3412, "pitch": 70, "duration": 10, "velocity": 91}, {"time": 3424, "pitch": 63, "duration": 8, "velocity": 91}, {"time": 3424, "pitch": 67, "duration": 8, "velocity": 106}, {"time": 3424, "pitch": 70, "duration": 8, "velocity": 98}, {"time": 3433, "pitch": 63, "duration": 2, "velocity": 88}, {"time": 3433, "pitch": 67, "duration": 1, "velocity": 90}, {"time": 3433, "pitch": 70, "duration": 1, "velocity": 90}, {"time": 3439, "pitch": 63, "duration": 7, "velocity": 86}, {"time": 3439, "pitch": 67, "duration": 7, "velocity": 87}, {"time": 3439, "pitch": 70, "duration": 7, "velocity": 88}, {"time": 3448, "pitch": 63, "duration": 8, "velocity": 93}, {"time": 3448, "pitch": 67, "duration": 9, "velocity": 106}, {"time": 3448, "pitch": 70, "duration": 8, "velocity": 100}, {"time": 3454, "pitch": 51, "duration": 3, "velocity": 87}, {"time": 3460, "pitch": 49, "duration": 44, "velocity": 88}, {"time": 3460, "pitch": 61, "duration": 9, "velocity": 88}, {"time": 3460, "pitch": 65, "duration": 10, "velocity": 92}, {"time": 3460, "pitch": 68, "duration": 8, "velocity": 91}, {"time": 3472, "pitch": 61, "duration": 10, "velocity": 89}, {"time": 3472, "pitch": 65, "duration": 10, "velocity": 88}, {"time": 3472, "pitch": 68, "duration": 9, "velocity": 88}, {"time": 3484, "pitch": 61, "duration": 9, "velocity": 90}, {"time": 3484, "pitch": 65, "duration": 10, "velocity": 92}, {"time": 3484, "pitch": 68, "duration": 8, "velocity": 90}, {"time": 3496, "pitch": 61, "duration": 8, "velocity": 90}, {"time": 3496, "pitch": 65, "duration": 10, "velocity": 92}, {"time": 3496, "pitch": 68, "duration": 10, "velocity": 92}, {"time": 3508, "pitch": 44, "duration": 15, "velocity": 84}, {"time": 3508, "pitch": 56, "duration": 14, "velocity": 86}, {"time": 3508, "pitch": 60, "duration": 7, "velocity": 89}, {"time": 3508, "pitch": 63, "duration": 8, "velocity": 91}, {"time": 3508, "pitch": 68, "duration": 7, "velocity": 89}, {"time": 3520, "pitch": 60, "duration": 8, "velocity": 94}, {"time": 3520, "pitch": 63, "duration": 11, "velocity": 107}, {"time": 3520, "pitch": 68, "duration": 8, "velocity": 89}, {"time": 3532, "pitch": 39, "duration": 15, "velocity": 87}, {"time": 3532, "pitch": 51, "duration": 15, "velocity": 87}, {"time": 3532, "pitch": 58, "duration": 10, "velocity": 88}, {"time": 3532, "pitch": 63, "duration": 10, "velocity": 88}, {"time": 3532, "pitch": 67, "duration": 9, "velocity": 86}, {"time": 3544, "pitch": 58, "duration": 7, "velocity": 91}, {"time": 3544, "pitch": 63, "duration": 9, "velocity": 110}, {"time": 3544, "pitch": 67, "duration": 9, "velocity": 100}, {"time": 3550, "pitch": 39, "duration": 2, "velocity": 86}, {"time": 3550, "pitch": 51, "duration": 2, "velocity": 94}, {"time": 3556, "pitch": 44, "duration": 43, "velocity": 89}, {"time": 3556, "pitch": 56, "duration": 45, "velocity": 93}, {"time": 3556, "pitch": 60, "duration": 9, "velocity": 93}, {"time": 3556, "pitch": 63, "duration": 9, "velocity": 110}, {"time": 3556, "pitch": 68, "duration": 9, "velocity": 107}, {"time": 3568, "pitch": 60, "duration": 11, "velocity": 102}, {"time": 3568, "pitch": 63, "duration": 11, "velocity": 114}, {"time": 3568, "pitch": 68, "duration": 10, "velocity": 107}, {"time": 3580, "pitch": 60, "duration": 9, "velocity": 90}, {"time": 3580, "pitch": 63, "duration": 9, "velocity": 98}, {"time": 3580, "pitch": 68, "duration": 9, "velocity": 91}, {"time": 3592, "pitch": 60, "duration": 8, "velocity": 96}, {"time": 3592, "pitch": 63, "duration": 9, "velocity": 110}, {"time": 3592, "pitch": 68, "duration": 8, "velocity": 98}, {"time": 3604, "pitch": 51, "duration": 40, "velocity": 88}, {"time": 3604, "pitch": 63, "duration": 9, "velocity": 88}, {"time": 3604, "pitch": 67, "duration": 9, "velocity": 100}, {"time": 3604, "pitch": 70, "duration": 8, "velocity": 94}, {"time": 3616, "pitch": 63, "duration": 10, "velocity": 91}, {"time": 3616, "pitch": 67, "duration": 11, "velocity": 93}, {"time": 3616, "pitch": 70, "duration": 10, "velocity": 92}, {"time": 3628, "pitch": 63, "duration": 9, "velocity": 91}, {"time": 3628, "pitch": 67, "duration": 9, "velocity": 89}, {"time": 3628, "pitch": 70, "duration": 9, "velocity": 89}, {"time": 3640, "pitch": 63, "duration": 8, "velocity": 94}, {"time": 3640, "pitch": 67, "duration": 8, "velocity": 103}, {"time": 3640, "pitch": 70, "duration": 8, "velocity": 93}, {"time": 3652, "pitch": 49, "duration": 20, "velocity": 86}, {"time": 3652, "pitch": 61, "duration": 8, "velocity": 91}, {"time": 3652, "pitch": 65, "duration": 8, "velocity": 102}, {"time": 3652, "pitch": 68, "duration": 7, "velocity": 96}, {"time": 3664, "pitch": 61, "duration": 7, "velocity": 90}, {"time": 3664, "pitch": 65, "duration": 7, "velocity": 92}, {"time": 3664, "pitch": 68, "duration": 9, "velocity": 92}, {"time": 3676, "pitch": 51, "duration": 15, "velocity": 87}, {"time": 3676, "pitch": 58, "duration": 9, "velocity": 89}, {"time": 3676, "pitch": 63, "duration": 9, "velocity": 96}, {"time": 3676, "pitch": 67, "duration": 9, "velocity": 85}, {"time": 3688, "pitch": 58, "duration": 8, "velocity": 93}, {"time": 3688, "pitch": 63, "duration": 10, "velocity": 110}, {"time": 3688, "pitch": 67, "duration": 9, "velocity": 90}, {"time": 3702, "pitch": 53, "duration": 46, "velocity": 89}, {"time": 3702, "pitch": 65, "duration": 10, "velocity": 88}, {"time": 3702, "pitch": 68, "duration": 10, "velocity": 93}, {"time": 3702, "pitch": 72, "duration": 10, "velocity": 89}, {"time": 3714, "pitch": 65, "duration": 9, "velocity": 86}, {"time": 3714, "pitch": 68, "duration": 10, "velocity": 91}, {"time": 3714, "pitch": 72, "duration": 10, "velocity": 87}, {"time": 3726, "pitch": 65, "duration": 10, "velocity": 87}, {"time": 3726, "pitch": 68, "duration": 11, "velocity": 87}, {"time": 3726, "pitch": 72, "duration": 10, "velocity": 86}, {"time": 3738, "pitch": 65, "duration": 10, "velocity": 88}, {"time": 3738, "pitch": 68, "duration": 10, "velocity": 88}, {"time": 3738, "pitch": 72, "duration": 6, "velocity": 87}, {"time": 3750, "pitch": 49, "duration": 42, "velocity": 80}, {"time": 3750, "pitch": 61, "duration": 41, "velocity": 73}, {"time": 3750, "pitch": 65, "duration": 10, "velocity": 87}, {"time": 3750, "pitch": 68, "duration": 10, "velocity": 85}, {"time": 3750, "pitch": 73, "duration": 9, "velocity": 86}, {"time": 3762, "pitch": 65, "duration": 10, "velocity": 84}, {"time": 3762, "pitch": 68, "duration": 10, "velocity": 83}, {"time": 3762, "pitch": 73, "duration": 10, "velocity": 84}, {"time": 3774, "pitch": 65, "duration": 11, "velocity": 81}, {"time": 3774, "pitch": 68, "duration": 11, "velocity": 85}, {"time": 3774, "pitch": 73, "duration": 10, "velocity": 81}, {"time": 3786, "pitch": 65, "duration": 9, "velocity": 86}, {"time": 3786, "pitch": 68, "duration": 10, "velocity": 86}, {"time": 3786, "pitch": 73, "duration": 10, "velocity": 83}, {"time": 3798, "pitch": 46, "duration": 34, "velocity": 81}, {"time": 3798, "pitch": 58, "duration": 34, "velocity": 83}, {"time": 3798, "pitch": 65, "duration": 10, "velocity": 87}, {"time": 3798, "pitch": 70, "duration": 10, "velocity": 88}, {"time": 3798, "pitch": 73, "duration": 10, "velocity": 83}, {"time": 3810, "pitch": 65, "duration": 10, "velocity": 84}, {"time": 3810, "pitch": 70, "duration": 10, "velocity": 84}, {"time": 3810, "pitch": 73, "duration": 10, "velocity": 81}, {"time": 3822, "pitch": 65, "duration": 8, "velocity": 79}, {"time": 3822, "pitch": 70, "duration": 8, "velocity": 86}, {"time": 3822, "pitch": 73, "duration": 7, "velocity": 79}, {"time": 3837, "pitch": 48, "duration": 15, "velocity": 76}, {"time": 3837, "pitch": 60, "duration": 14, "velocity": 80}, {"time": 3837, "pitch": 64, "duration": 12, "velocity": 81}, {"time": 3837, "pitch": 67, "duration": 17, "velocity": 83}, {"time": 3837, "pitch": 72, "duration": 12, "velocity": 87}, {"time": 3855, "pitch": 53, "duration": 31, "velocity": 84}, {"time": 3855, "pitch": 65, "duration": 30, "velocity": 80}, {"time": 3855, "pitch": 68, "duration": 31, "velocity": 86}, {"time": 3855, "pitch": 72, "duration": 31, "velocity": 82}], "annotations": [{"time": 579, "annotation": {"number": 64, "value": 127}, "group": "control_change"}, {"time": 819, "annotation": {"number": 64, "value": 127}, "group": "control_change"}, {"time": 867, "annotation": {"number": 64, "value": 38}, "group": "control_change"}, {"time": 867, "annotation": {"number": 64, "value": 127}, "group": "control_change"}, {"time": 887, "annotation": {"number": 64, "value": 38}, "group": "control_change"}, {"time": 887, "annotation": {"number": 64, "value": 0}, "group": "control_change"}, {"time": 925, "annotation": {"number": 64, "value": 0}, "group": "control_change"}, {"time": 962, "annotation": {"number": 64, "value": 38}, "group": "control_change"}, {"time": 962, "annotation": {"number": 64, "value": 0}, "group": "control_change"}, {"time": 963, "annotation": {"number": 64, "value": 127}, "group": "control_change"}, {"time": 973, "annotation": {"number": 64, "value": 38}, "group": "control_change"}, {"time": 973, "annotation": {"number": 64, "value": 0}, "group": "control_change"}, {"time": 1010, "annotation": {"number": 64, "value": 0}, "group": "control_change"}, {"time": 1011, "annotation": {"number": 64, "value": 127}, "group": "control_change"}, {"time": 1059, "annotation": {"number": 64, "value": 127}, "group": "control_change"}, {"time": 1108, "annotation": {"number": 64, "value": 127}, "group": "control_change"}, {"time": 1126, "annotation": {"number": 64, "value": 38}, "group": "control_change"}, {"time": 1126, "annotation": {"number": 64, "value": 0}, "group": "control_change"}, {"time": 1130, "annotation": {"number": 64, "value": 38}, "group": "control_change"}, {"time": 1130, "annotation": {"number": 64, "value": 0}, "group": "control_change"}, {"time": 1131, "annotation": {"number": 64, "value": 127}, "group": "control_change"}, {"time": 1153, "annotation": {"number": 64, "value": 0}, "group": "control_change"}, {"time": 1155, "annotation": {"number": 64, "value": 127}, "group": "control_change"}, {"time": 1202, "annotation": {"number": 64, "value": 0}, "group": "control_change"}, {"time": 1203, "annotation": {"number": 64, "value": 127}, "group": "control_change"}, {"time": 1211, "annotation": {"number": 64, "value": 74}, "group": "control_change"}, {"time": 1211, "annotation": {"number": 64, "value": 0}, "group": "control_change"}, {"time": 1251, "annotation": {"number": 64, "value": 127}, "group": "control_change"}, {"time": 1731, "annotation": {"number": 64, "value": 127}, "group": "control_change"}, {"time": 1779, "annotation": {"number": 64, "value": 38}, "group": "control_change"}, {"time": 1779, "annotation": {"number": 64, "value": 127}, "group": "control_change"}, {"time": 1799, "annotation": {"number": 64, "value": 38}, "group": "control_change"}, {"time": 1799, "annotation": {"number": 64, "value": 0}, "group": "control_change"}, {"time": 1837, "annotation": {"number": 64, "value": 0}, "group": "control_change"}, {"time": 1874, "annotation": {"number": 64, "value": 38}, "group": "control_change"}, {"time": 1874, "annotation": {"number": 64, "value": 0}, "group": "control_change"}, {"time": 1875, "annotation": {"number": 64, "value": 127}, "group": "control_change"}, {"time": 1885, "annotation": {"number": 64, "value": 38}, "group": "control_change"}, {"time": 1885, "annotation": {"number": 64, "value": 0}, "group": "control_change"}, {"time": 1922, "annotation": {"number": 64, "value": 0}, "group": "control_change"}, {"time": 1923, "annotation": {"number": 64, "value": 127}, "group": "control_change"}, {"time": 1971, "annotation": {"number": 64, "value": 127}, "group": "control_change"}, {"time": 2020, "annotation": {"number": 64, "value": 127}, "group": "control_change"}, {"time": 2038, "annotation": {"number": 64, "value": 38}, "group": "control_change"}, {"time": 2038, "annotation": {"number": 64, "value": 0}, "group": "control_change"}, {"time": 2042, "annotation": {"number": 64, "value": 38}, "group": "control_change"}, {"time": 2042, "annotation": {"number": 64, "value": 0}, "group": "control_change"}, {"time": 2043, "annotation": {"number": 64, "value": 127}, "group": "control_change"}, {"time": 2065, "annotation": {"number": 64, "value": 0}, "group": "control_change"}, {"time": 2067, "annotation": {"number": 64, "value": 127}, "group": "control_change"}, {"time": 2114, "annotation": {"number": 64, "value": 0}, "group": "control_change"}, {"time": 2115, "annotation": {"number": 64, "value": 127}, "group": "control_change"}, {"time": 2123, "annotation": {"number": 64, "value": 74}, "group": "control_change"}, {"time": 2123, "annotation": {"number": 64, "value": 0}, "group": "control_change"}, {"time": 2163, "annotation": {"number": 64, "value": 127}, "group": "control_change"}, {"time": 2980, "annotation": {"number": 64, "value": 127}, "group": "control_change"}, {"time": 2981, "annotation": {"number": 64, "value": 127}, "group": "control_change"}, {"time": 2991, "annotation": {"number": 64, "value": 38}, "group": "control_change"}, {"time": 2991, "annotation": {"number": 64, "value": 0}, "group": "control_change"}, {"time": 3027, "annotation": {"number": 64, "value": 0}, "group": "control_change"}, {"time": 3028, "annotation": {"number": 64, "value": 127}, "group": "control_change"}, {"time": 3077, "annotation": {"number": 64, "value": 127}, "group": "control_change"}, {"time": 3125, "annotation": {"number": 64, "value": 127}, "group": "control_change"}, {"time": 3143, "annotation": {"number": 64, "value": 38}, "group": "control_change"}, {"time": 3143, "annotation": {"number": 64, "value": 0}, "group": "control_change"}, {"time": 3147, "annotation": {"number": 64, "value": 38}, "group": "control_change"}, {"time": 3147, "annotation": {"number": 64, "value": 0}, "group": "control_change"}, {"time": 3149, "annotation": {"number": 64, "value": 127}, "group": "control_change"}, {"time": 3170, "annotation": {"number": 64, "value": 0}, "group": "control_change"}, {"time": 3173, "annotation": {"number": 64, "value": 127}, "group": "control_change"}, {"time": 3219, "annotation": {"number": 64, "value": 0}, "group": "control_change"}, {"time": 3220, "annotation": {"number": 64, "value": 127}, "group": "control_change"}, {"time": 3229, "annotation": {"number": 64, "value": 74}, "group": "control_change"}, {"time": 3229, "annotation": {"number": 64, "value": 0}, "group": "control_change"}, {"time": 3268, "annotation": {"number": 64, "value": 127}, "group": "control_change"}, {"time": 3364, "annotation": {"number": 64, "value": 127}, "group": "control_change"}, {"time": 3365, "annotation": {"number": 64, "value": 127}, "group": "control_change"}, {"time": 3375, "annotation": {"number": 64, "value": 38}, "group": "control_change"}, {"time": 3375, "annotation": {"number": 64, "value": 0}, "group": "control_change"}, {"time": 3411, "annotation": {"number": 64, "value": 0}, "group": "control_change"}, {"time": 3412, "annotation": {"number": 64, "value": 127}, "group": "control_change"}, {"time": 3461, "annotation": {"number": 64, "value": 127}, "group": "control_change"}, {"time": 3509, "annotation": {"number": 64, "value": 127}, "group": "control_change"}, {"time": 3527, "annotation": {"number": 64, "value": 38}, "group": "control_change"}, {"time": 3527, "annotation": {"number": 64, "value": 0}, "group": "control_change"}, {"time": 3531, "annotation": {"number": 64, "value": 38}, "group": "control_change"}, {"time": 3531, "annotation": {"number": 64, "value": 0}, "group": "control_change"}, {"time": 3533, "annotation": {"number": 64, "value": 127}, "group": "control_change"}, {"time": 3554, "annotation": {"number": 64, "value": 0}, "group": "control_change"}, {"time": 3557, "annotation": {"number": 64, "value": 127}, "group": "control_change"}, {"time": 3603, "annotation": {"number": 64, "value": 0}, "group": "control_change"}, {"time": 3604, "annotation": {"number": 64, "value": 127}, "group": "control_change"}, {"time": 3613, "annotation": {"number": 64, "value": 74}, "group": "control_change"}, {"time": 3613, "annotation": {"number": 64, "value": 0}, "group": "control_change"}, {"time": 3652, "annotation": {"number": 64, "value": 127}, "group": "control_change"}]}]}