{"metadata": {"schema_version": "0.2", "title": "None", "source_filename": "303.mid", "source_format": "midi"}, "resolution": 12, "tempos": [{"time": 0, "qpm": 76.00006586672374}], "time_signatures": [{"time": 0, "numerator": 4, "denominator": 4}], "tracks": [{"program": 0, "is_drum": false, "name": "MELODY", "notes": [{"time": 202, "pitch": 77, "duration": 6, "velocity": 104}, {"time": 208, "pitch": 80, "duration": 6, "velocity": 94}, {"time": 214, "pitch": 80, "duration": 18, "velocity": 102}, {"time": 232, "pitch": 77, "duration": 6, "velocity": 113}, {"time": 238, "pitch": 78, "duration": 6, "velocity": 104}, {"time": 244, "pitch": 77, "duration": 6, "velocity": 102}, {"time": 250, "pitch": 75, "duration": 6, "velocity": 91}, {"time": 256, "pitch": 77, "duration": 6, "velocity": 89}, {"time": 262, "pitch": 73, "duration": 30, "velocity": 89}, {"time": 292, "pitch": 73, "duration": 6, "velocity": 88}, {"time": 298, "pitch": 77, "duration": 6, "velocity": 102}, {"time": 304, "pitch": 80, "duration": 6, "velocity": 104}, {"time": 310, "pitch": 82, "duration": 12, "velocity": 89}, {"time": 322, "pitch": 82, "duration": 6, "velocity": 108}, {"time": 328, "pitch": 80, "duration": 6, "velocity": 96}, {"time": 334, "pitch": 80, "duration": 6, "velocity": 96}, {"time": 340, "pitch": 73, "duration": 6, "velocity": 91}, {"time": 346, "pitch": 73, "duration": 6, "velocity": 98}, {"time": 352, "pitch": 77, "duration": 6, "velocity": 96}, {"time": 358, "pitch": 77, "duration": 7, "velocity": 100}, {"time": 364, "pitch": 75, "duration": 30, "velocity": 94}, {"time": 394, "pitch": 77, "duration": 6, "velocity": 89}, {"time": 400, "pitch": 78, "duration": 6, "velocity": 93}, {"time": 406, "pitch": 80, "duration": 18, "velocity": 102}, {"time": 424, "pitch": 80, "duration": 6, "velocity": 113}, {"time": 430, "pitch": 81, "duration": 6, "velocity": 116}, {"time": 436, "pitch": 77, "duration": 6, "velocity": 113}, {"time": 442, "pitch": 84, "duration": 12, "velocity": 114}, {"time": 454, "pitch": 75, "duration": 6, "velocity": 114}, {"time": 460, "pitch": 73, "duration": 36, "velocity": 113}, {"time": 496, "pitch": 73, "duration": 3, "velocity": 110}, {"time": 499, "pitch": 72, "duration": 3, "velocity": 93}, {"time": 502, "pitch": 70, "duration": 6, "velocity": 108}, {"time": 508, "pitch": 82, "duration": 6, "velocity": 113}, {"time": 514, "pitch": 82, "duration": 6, "velocity": 114}, {"time": 520, "pitch": 80, "duration": 6, "velocity": 113}, {"time": 526, "pitch": 75, "duration": 6, "velocity": 110}, {"time": 532, "pitch": 77, "duration": 3, "velocity": 100}, {"time": 535, "pitch": 75, "duration": 9, "velocity": 104}, {"time": 544, "pitch": 70, "duration": 6, "velocity": 104}, {"time": 550, "pitch": 73, "duration": 36, "velocity": 108}, {"time": 586, "pitch": 77, "duration": 6, "velocity": 104}, {"time": 592, "pitch": 80, "duration": 6, "velocity": 94}, {"time": 598, "pitch": 80, "duration": 18, "velocity": 102}, {"time": 616, "pitch": 77, "duration": 6, "velocity": 113}, {"time": 622, "pitch": 78, "duration": 6, "velocity": 104}, {"time": 628, "pitch": 77, "duration": 6, "velocity": 102}, {"time": 634, "pitch": 75, "duration": 6, "velocity": 91}, {"time": 640, "pitch": 77, "duration": 6, "velocity": 89}, {"time": 646, "pitch": 73, "duration": 30, "velocity": 89}, {"time": 676, "pitch": 73, "duration": 6, "velocity": 88}, {"time": 682, "pitch": 77, "duration": 6, "velocity": 102}, {"time": 688, "pitch": 80, "duration": 6, "velocity": 104}, {"time": 694, "pitch": 82, "duration": 12, "velocity": 89}, {"time": 706, "pitch": 82, "duration": 6, "velocity": 108}, {"time": 712, "pitch": 80, "duration": 6, "velocity": 96}, {"time": 718, "pitch": 80, "duration": 6, "velocity": 96}, {"time": 724, "pitch": 73, "duration": 6, "velocity": 91}, {"time": 730, "pitch": 73, "duration": 6, "velocity": 98}, {"time": 736, "pitch": 77, "duration": 6, "velocity": 96}, {"time": 742, "pitch": 77, "duration": 7, "velocity": 100}, {"time": 748, "pitch": 75, "duration": 30, "velocity": 94}, {"time": 778, "pitch": 77, "duration": 6, "velocity": 89}, {"time": 784, "pitch": 78, "duration": 6, "velocity": 93}, {"time": 790, "pitch": 80, "duration": 18, "velocity": 102}, {"time": 808, "pitch": 80, "duration": 6, "velocity": 113}, {"time": 814, "pitch": 81, "duration": 6, "velocity": 116}, {"time": 820, "pitch": 77, "duration": 6, "velocity": 113}, {"time": 826, "pitch": 75, "duration": 6, "velocity": 114}, {"time": 832, "pitch": 77, "duration": 6, "velocity": 102}, {"time": 838, "pitch": 75, "duration": 6, "velocity": 102}, {"time": 844, "pitch": 73, "duration": 3, "velocity": 100}, {"time": 847, "pitch": 73, "duration": 9, "velocity": 104}, {"time": 856, "pitch": 70, "duration": 6, "velocity": 104}, {"time": 862, "pitch": 75, "duration": 3, "velocity": 110}, {"time": 865, "pitch": 73, "duration": 18, "velocity": 110}, {"time": 883, "pitch": 70, "duration": 3, "velocity": 114}, {"time": 886, "pitch": 82, "duration": 6, "velocity": 114}, {"time": 892, "pitch": 82, "duration": 6, "velocity": 113}, {"time": 898, "pitch": 82, "duration": 6, "velocity": 114}, {"time": 904, "pitch": 80, "duration": 6, "velocity": 113}, {"time": 910, "pitch": 75, "duration": 6, "velocity": 110}, {"time": 916, "pitch": 77, "duration": 3, "velocity": 100}, {"time": 919, "pitch": 75, "duration": 9, "velocity": 104}, {"time": 928, "pitch": 70, "duration": 6, "velocity": 104}, {"time": 934, "pitch": 73, "duration": 48, "velocity": 108}, {"time": 982, "pitch": 85, "duration": 6, "velocity": 119}, {"time": 988, "pitch": 82, "duration": 6, "velocity": 114}, {"time": 994, "pitch": 82, "duration": 12, "velocity": 114}, {"time": 1006, "pitch": 84, "duration": 6, "velocity": 117}, {"time": 1012, "pitch": 80, "duration": 6, "velocity": 116}, {"time": 1018, "pitch": 80, "duration": 12, "velocity": 119}, {"time": 1030, "pitch": 80, "duration": 6, "velocity": 114}, {"time": 1036, "pitch": 77, "duration": 6, "velocity": 116}, {"time": 1042, "pitch": 77, "duration": 12, "velocity": 114}, {"time": 1054, "pitch": 77, "duration": 6, "velocity": 114}, {"time": 1060, "pitch": 73, "duration": 6, "velocity": 110}, {"time": 1066, "pitch": 73, "duration": 12, "velocity": 113}, {"time": 1078, "pitch": 75, "duration": 6, "velocity": 116}, {"time": 1084, "pitch": 77, "duration": 6, "velocity": 110}, {"time": 1090, "pitch": 75, "duration": 6, "velocity": 114}, {"time": 1096, "pitch": 77, "duration": 6, "velocity": 110}, {"time": 1102, "pitch": 80, "duration": 6, "velocity": 114}, {"time": 1108, "pitch": 82, "duration": 6, "velocity": 102}, {"time": 1114, "pitch": 80, "duration": 6, "velocity": 98}, {"time": 1120, "pitch": 75, "duration": 6, "velocity": 114}, {"time": 1126, "pitch": 77, "duration": 48, "velocity": 108}, {"time": 1174, "pitch": 85, "duration": 6, "velocity": 116}, {"time": 1180, "pitch": 82, "duration": 6, "velocity": 114}, {"time": 1186, "pitch": 82, "duration": 12, "velocity": 117}, {"time": 1198, "pitch": 84, "duration": 6, "velocity": 117}, {"time": 1204, "pitch": 80, "duration": 6, "velocity": 117}, {"time": 1210, "pitch": 80, "duration": 12, "velocity": 117}, {"time": 1222, "pitch": 80, "duration": 6, "velocity": 116}, {"time": 1228, "pitch": 77, "duration": 6, "velocity": 113}, {"time": 1234, "pitch": 77, "duration": 12, "velocity": 114}, {"time": 1246, "pitch": 77, "duration": 6, "velocity": 117}, {"time": 1252, "pitch": 74, "duration": 9, "velocity": 113}, {"time": 1261, "pitch": 74, "duration": 33, "velocity": 116}, {"time": 1294, "pitch": 75, "duration": 6, "velocity": 114}, {"time": 1300, "pitch": 77, "duration": 6, "velocity": 107}, {"time": 1306, "pitch": 75, "duration": 6, "velocity": 108}, {"time": 1312, "pitch": 77, "duration": 6, "velocity": 114}, {"time": 1318, "pitch": 80, "duration": 6, "velocity": 116}, {"time": 1324, "pitch": 82, "duration": 6, "velocity": 114}, {"time": 1330, "pitch": 80, "duration": 6, "velocity": 114}, {"time": 1336, "pitch": 82, "duration": 6, "velocity": 107}, {"time": 1342, "pitch": 82, "duration": 6, "velocity": 113}, {"time": 1348, "pitch": 80, "duration": 42, "velocity": 114}, {"time": 1390, "pitch": 80, "duration": 12, "velocity": 123}, {"time": 1402, "pitch": 77, "duration": 6, "velocity": 119}, {"time": 1408, "pitch": 80, "duration": 6, "velocity": 117}, {"time": 1414, "pitch": 82, "duration": 6, "velocity": 119}, {"time": 1420, "pitch": 80, "duration": 6, "velocity": 117}, {"time": 1426, "pitch": 77, "duration": 6, "velocity": 117}, {"time": 1432, "pitch": 75, "duration": 6, "velocity": 116}, {"time": 1438, "pitch": 73, "duration": 12, "velocity": 117}, {"time": 1450, "pitch": 70, "duration": 6, "velocity": 113}, {"time": 1456, "pitch": 73, "duration": 6, "velocity": 114}, {"time": 1462, "pitch": 68, "duration": 24, "velocity": 116}, {"time": 1486, "pitch": 70, "duration": 6, "velocity": 116}, {"time": 1492, "pitch": 73, "duration": 6, "velocity": 114}, {"time": 1498, "pitch": 75, "duration": 6, "velocity": 114}, {"time": 1504, "pitch": 77, "duration": 6, "velocity": 116}, {"time": 1510, "pitch": 80, "duration": 12, "velocity": 119}, {"time": 1522, "pitch": 77, "duration": 12, "velocity": 117}, {"time": 1534, "pitch": 75, "duration": 6, "velocity": 117}, {"time": 1540, "pitch": 73, "duration": 6, "velocity": 113}, {"time": 1546, "pitch": 70, "duration": 6, "velocity": 117}, {"time": 1552, "pitch": 77, "duration": 6, "velocity": 119}, {"time": 1558, "pitch": 75, "duration": 24, "velocity": 119}, {"time": 1582, "pitch": 80, "duration": 12, "velocity": 120}, {"time": 1594, "pitch": 77, "duration": 6, "velocity": 117}, {"time": 1600, "pitch": 80, "duration": 6, "velocity": 116}, {"time": 1606, "pitch": 82, "duration": 6, "velocity": 114}, {"time": 1612, "pitch": 80, "duration": 6, "velocity": 114}, {"time": 1618, "pitch": 77, "duration": 6, "velocity": 116}, {"time": 1624, "pitch": 75, "duration": 6, "velocity": 110}, {"time": 1630, "pitch": 73, "duration": 9, "velocity": 114}, {"time": 1636, "pitch": 73, "duration": 3, "velocity": 114}, {"time": 1642, "pitch": 70, "duration": 6, "velocity": 114}, {"time": 1648, "pitch": 73, "duration": 6, "velocity": 114}, {"time": 1654, "pitch": 68, "duration": 18, "velocity": 113}, {"time": 1672, "pitch": 68, "duration": 6, "velocity": 116}, {"time": 1678, "pitch": 70, "duration": 6, "velocity": 114}, {"time": 1684, "pitch": 73, "duration": 6, "velocity": 110}, {"time": 1690, "pitch": 75, "duration": 6, "velocity": 114}, {"time": 1696, "pitch": 77, "duration": 6, "velocity": 114}, {"time": 1702, "pitch": 80, "duration": 12, "velocity": 114}, {"time": 1714, "pitch": 77, "duration": 9, "velocity": 114}, {"time": 1723, "pitch": 77, "duration": 4, "velocity": 107}, {"time": 1726, "pitch": 75, "duration": 6, "velocity": 107}, {"time": 1732, "pitch": 73, "duration": 6, "velocity": 113}, {"time": 1738, "pitch": 70, "duration": 6, "velocity": 114}, {"time": 1744, "pitch": 75, "duration": 6, "velocity": 116}, {"time": 1750, "pitch": 73, "duration": 9, "velocity": 116}, {"time": 2170, "pitch": 77, "duration": 6, "velocity": 104}, {"time": 2176, "pitch": 80, "duration": 6, "velocity": 94}, {"time": 2182, "pitch": 80, "duration": 18, "velocity": 102}, {"time": 2200, "pitch": 77, "duration": 6, "velocity": 113}, {"time": 2206, "pitch": 78, "duration": 6, "velocity": 104}, {"time": 2212, "pitch": 77, "duration": 6, "velocity": 102}, {"time": 2218, "pitch": 75, "duration": 6, "velocity": 91}, {"time": 2224, "pitch": 77, "duration": 6, "velocity": 89}, {"time": 2230, "pitch": 73, "duration": 30, "velocity": 89}, {"time": 2260, "pitch": 73, "duration": 6, "velocity": 88}, {"time": 2266, "pitch": 77, "duration": 6, "velocity": 102}, {"time": 2272, "pitch": 80, "duration": 6, "velocity": 104}, {"time": 2278, "pitch": 82, "duration": 12, "velocity": 89}, {"time": 2290, "pitch": 82, "duration": 6, "velocity": 108}, {"time": 2296, "pitch": 80, "duration": 6, "velocity": 96}, {"time": 2302, "pitch": 80, "duration": 6, "velocity": 96}, {"time": 2308, "pitch": 73, "duration": 6, "velocity": 91}, {"time": 2314, "pitch": 73, "duration": 6, "velocity": 98}, {"time": 2320, "pitch": 77, "duration": 6, "velocity": 96}, {"time": 2326, "pitch": 77, "duration": 7, "velocity": 100}, {"time": 2332, "pitch": 75, "duration": 30, "velocity": 94}, {"time": 2362, "pitch": 77, "duration": 6, "velocity": 89}, {"time": 2368, "pitch": 78, "duration": 6, "velocity": 93}, {"time": 2374, "pitch": 80, "duration": 18, "velocity": 102}, {"time": 2392, "pitch": 80, "duration": 6, "velocity": 113}, {"time": 2398, "pitch": 81, "duration": 6, "velocity": 116}, {"time": 2404, "pitch": 77, "duration": 6, "velocity": 113}, {"time": 2410, "pitch": 75, "duration": 6, "velocity": 114}, {"time": 2416, "pitch": 77, "duration": 6, "velocity": 102}, {"time": 2422, "pitch": 75, "duration": 6, "velocity": 102}, {"time": 2428, "pitch": 73, "duration": 3, "velocity": 100}, {"time": 2431, "pitch": 73, "duration": 9, "velocity": 104}, {"time": 2440, "pitch": 70, "duration": 6, "velocity": 104}, {"time": 2446, "pitch": 75, "duration": 3, "velocity": 110}, {"time": 2449, "pitch": 73, "duration": 18, "velocity": 110}, {"time": 2467, "pitch": 70, "duration": 3, "velocity": 114}, {"time": 2470, "pitch": 82, "duration": 6, "velocity": 114}, {"time": 2476, "pitch": 82, "duration": 6, "velocity": 113}, {"time": 2482, "pitch": 82, "duration": 6, "velocity": 114}, {"time": 2488, "pitch": 80, "duration": 6, "velocity": 113}, {"time": 2494, "pitch": 75, "duration": 6, "velocity": 110}, {"time": 2500, "pitch": 77, "duration": 3, "velocity": 100}, {"time": 2503, "pitch": 75, "duration": 9, "velocity": 104}, {"time": 2512, "pitch": 70, "duration": 6, "velocity": 104}, {"time": 2518, "pitch": 73, "duration": 48, "velocity": 108}, {"time": 2566, "pitch": 85, "duration": 6, "velocity": 119}, {"time": 2572, "pitch": 82, "duration": 6, "velocity": 114}, {"time": 2578, "pitch": 82, "duration": 12, "velocity": 114}, {"time": 2590, "pitch": 84, "duration": 6, "velocity": 117}, {"time": 2596, "pitch": 80, "duration": 6, "velocity": 116}, {"time": 2602, "pitch": 80, "duration": 12, "velocity": 119}, {"time": 2614, "pitch": 80, "duration": 6, "velocity": 114}, {"time": 2620, "pitch": 77, "duration": 6, "velocity": 116}, {"time": 2626, "pitch": 77, "duration": 12, "velocity": 114}, {"time": 2638, "pitch": 77, "duration": 6, "velocity": 114}, {"time": 2644, "pitch": 73, "duration": 6, "velocity": 110}, {"time": 2650, "pitch": 73, "duration": 12, "velocity": 113}, {"time": 2662, "pitch": 75, "duration": 6, "velocity": 116}, {"time": 2668, "pitch": 77, "duration": 6, "velocity": 110}, {"time": 2674, "pitch": 75, "duration": 6, "velocity": 114}, {"time": 2680, "pitch": 77, "duration": 6, "velocity": 110}, {"time": 2686, "pitch": 80, "duration": 6, "velocity": 114}, {"time": 2692, "pitch": 82, "duration": 6, "velocity": 102}, {"time": 2698, "pitch": 80, "duration": 6, "velocity": 98}, {"time": 2704, "pitch": 75, "duration": 6, "velocity": 114}, {"time": 2710, "pitch": 77, "duration": 48, "velocity": 108}, {"time": 2758, "pitch": 85, "duration": 6, "velocity": 116}, {"time": 2764, "pitch": 82, "duration": 6, "velocity": 114}, {"time": 2770, "pitch": 82, "duration": 12, "velocity": 117}, {"time": 2782, "pitch": 84, "duration": 6, "velocity": 117}, {"time": 2788, "pitch": 80, "duration": 6, "velocity": 117}, {"time": 2794, "pitch": 80, "duration": 12, "velocity": 117}, {"time": 2806, "pitch": 80, "duration": 6, "velocity": 116}, {"time": 2812, "pitch": 77, "duration": 6, "velocity": 113}, {"time": 2818, "pitch": 77, "duration": 12, "velocity": 114}, {"time": 2830, "pitch": 77, "duration": 6, "velocity": 117}, {"time": 2836, "pitch": 74, "duration": 6, "velocity": 113}, {"time": 2842, "pitch": 74, "duration": 12, "velocity": 116}, {"time": 2854, "pitch": 75, "duration": 6, "velocity": 114}, {"time": 2860, "pitch": 77, "duration": 6, "velocity": 107}, {"time": 2866, "pitch": 75, "duration": 6, "velocity": 108}, {"time": 2872, "pitch": 77, "duration": 6, "velocity": 114}, {"time": 2878, "pitch": 80, "duration": 6, "velocity": 116}, {"time": 2884, "pitch": 82, "duration": 6, "velocity": 114}, {"time": 2890, "pitch": 80, "duration": 6, "velocity": 114}, {"time": 2896, "pitch": 82, "duration": 6, "velocity": 107}, {"time": 2902, "pitch": 82, "duration": 6, "velocity": 113}, {"time": 2908, "pitch": 80, "duration": 42, "velocity": 114}, {"time": 2950, "pitch": 80, "duration": 12, "velocity": 123}, {"time": 2962, "pitch": 77, "duration": 6, "velocity": 119}, {"time": 2968, "pitch": 80, "duration": 6, "velocity": 117}, {"time": 2974, "pitch": 82, "duration": 6, "velocity": 119}, {"time": 2980, "pitch": 80, "duration": 6, "velocity": 117}, {"time": 2986, "pitch": 77, "duration": 6, "velocity": 117}, {"time": 2992, "pitch": 75, "duration": 6, "velocity": 116}, {"time": 2998, "pitch": 73, "duration": 12, "velocity": 117}, {"time": 3010, "pitch": 70, "duration": 6, "velocity": 113}, {"time": 3016, "pitch": 73, "duration": 6, "velocity": 114}, {"time": 3022, "pitch": 68, "duration": 24, "velocity": 116}, {"time": 3046, "pitch": 70, "duration": 6, "velocity": 116}, {"time": 3052, "pitch": 73, "duration": 6, "velocity": 114}, {"time": 3058, "pitch": 75, "duration": 6, "velocity": 114}, {"time": 3064, "pitch": 77, "duration": 6, "velocity": 116}, {"time": 3070, "pitch": 80, "duration": 12, "velocity": 119}, {"time": 3082, "pitch": 77, "duration": 12, "velocity": 117}, {"time": 3094, "pitch": 75, "duration": 6, "velocity": 117}, {"time": 3100, "pitch": 73, "duration": 6, "velocity": 113}, {"time": 3106, "pitch": 70, "duration": 6, "velocity": 117}, {"time": 3112, "pitch": 77, "duration": 6, "velocity": 119}, {"time": 3118, "pitch": 75, "duration": 24, "velocity": 119}, {"time": 3142, "pitch": 80, "duration": 12, "velocity": 120}, {"time": 3154, "pitch": 77, "duration": 6, "velocity": 117}, {"time": 3160, "pitch": 80, "duration": 6, "velocity": 116}, {"time": 3166, "pitch": 82, "duration": 6, "velocity": 114}, {"time": 3172, "pitch": 80, "duration": 6, "velocity": 114}, {"time": 3178, "pitch": 77, "duration": 6, "velocity": 116}, {"time": 3184, "pitch": 75, "duration": 6, "velocity": 110}, {"time": 3190, "pitch": 73, "duration": 9, "velocity": 114}, {"time": 3196, "pitch": 73, "duration": 3, "velocity": 114}, {"time": 3202, "pitch": 70, "duration": 6, "velocity": 114}, {"time": 3208, "pitch": 73, "duration": 6, "velocity": 114}, {"time": 3214, "pitch": 68, "duration": 18, "velocity": 113}, {"time": 3232, "pitch": 68, "duration": 6, "velocity": 116}, {"time": 3238, "pitch": 70, "duration": 6, "velocity": 114}, {"time": 3244, "pitch": 73, "duration": 6, "velocity": 110}, {"time": 3250, "pitch": 75, "duration": 6, "velocity": 114}, {"time": 3256, "pitch": 77, "duration": 6, "velocity": 114}, {"time": 3262, "pitch": 80, "duration": 12, "velocity": 114}, {"time": 3274, "pitch": 77, "duration": 9, "velocity": 114}, {"time": 3283, "pitch": 77, "duration": 4, "velocity": 107}, {"time": 3286, "pitch": 75, "duration": 6, "velocity": 107}, {"time": 3292, "pitch": 73, "duration": 6, "velocity": 113}, {"time": 3298, "pitch": 70, "duration": 6, "velocity": 114}, {"time": 3304, "pitch": 75, "duration": 6, "velocity": 116}, {"time": 3310, "pitch": 73, "duration": 24, "velocity": 116}, {"time": 3334, "pitch": 80, "duration": 12, "velocity": 123}, {"time": 3346, "pitch": 77, "duration": 6, "velocity": 119}, {"time": 3352, "pitch": 80, "duration": 6, "velocity": 117}, {"time": 3358, "pitch": 82, "duration": 6, "velocity": 119}, {"time": 3364, "pitch": 80, "duration": 6, "velocity": 117}, {"time": 3370, "pitch": 77, "duration": 6, "velocity": 117}, {"time": 3376, "pitch": 75, "duration": 6, "velocity": 116}, {"time": 3382, "pitch": 73, "duration": 12, "velocity": 117}, {"time": 3394, "pitch": 70, "duration": 6, "velocity": 113}, {"time": 3400, "pitch": 73, "duration": 6, "velocity": 114}, {"time": 3406, "pitch": 68, "duration": 24, "velocity": 116}, {"time": 3430, "pitch": 70, "duration": 6, "velocity": 116}, {"time": 3436, "pitch": 73, "duration": 6, "velocity": 114}, {"time": 3442, "pitch": 75, "duration": 6, "velocity": 114}, {"time": 3448, "pitch": 77, "duration": 6, "velocity": 116}, {"time": 3454, "pitch": 80, "duration": 12, "velocity": 119}, {"time": 3466, "pitch": 77, "duration": 12, "velocity": 117}, {"time": 3478, "pitch": 75, "duration": 6, "velocity": 117}, {"time": 3484, "pitch": 73, "duration": 6, "velocity": 113}, {"time": 3490, "pitch": 70, "duration": 6, "velocity": 117}, {"time": 3496, "pitch": 77, "duration": 6, "velocity": 119}, {"time": 3502, "pitch": 75, "duration": 24, "velocity": 119}, {"time": 3526, "pitch": 80, "duration": 12, "velocity": 120}, {"time": 3538, "pitch": 77, "duration": 6, "velocity": 117}, {"time": 3544, "pitch": 80, "duration": 6, "velocity": 116}, {"time": 3550, "pitch": 82, "duration": 6, "velocity": 114}, {"time": 3556, "pitch": 80, "duration": 6, "velocity": 114}, {"time": 3562, "pitch": 77, "duration": 6, "velocity": 116}, {"time": 3568, "pitch": 75, "duration": 6, "velocity": 110}, {"time": 3574, "pitch": 73, "duration": 9, "velocity": 114}, {"time": 3580, "pitch": 73, "duration": 3, "velocity": 114}, {"time": 3586, "pitch": 70, "duration": 6, "velocity": 114}, {"time": 3592, "pitch": 73, "duration": 6, "velocity": 114}, {"time": 3598, "pitch": 68, "duration": 18, "velocity": 113}, {"time": 3616, "pitch": 68, "duration": 6, "velocity": 116}, {"time": 3622, "pitch": 70, "duration": 6, "velocity": 114}, {"time": 3628, "pitch": 73, "duration": 6, "velocity": 110}, {"time": 3634, "pitch": 75, "duration": 6, "velocity": 114}, {"time": 3640, "pitch": 77, "duration": 6, "velocity": 114}, {"time": 3646, "pitch": 80, "duration": 12, "velocity": 114}, {"time": 3658, "pitch": 77, "duration": 9, "velocity": 114}, {"time": 3667, "pitch": 77, "duration": 4, "velocity": 107}, {"time": 3670, "pitch": 75, "duration": 6, "velocity": 107}, {"time": 3676, "pitch": 73, "duration": 6, "velocity": 113}, {"time": 3682, "pitch": 70, "duration": 6, "velocity": 114}, {"time": 3688, "pitch": 75, "duration": 6, "velocity": 116}, {"time": 3694, "pitch": 73, "duration": 24, "velocity": 116}, {"time": 4102, "pitch": 80, "duration": 12, "velocity": 123}, {"time": 4114, "pitch": 77, "duration": 6, "velocity": 119}, {"time": 4120, "pitch": 80, "duration": 6, "velocity": 117}, {"time": 4126, "pitch": 82, "duration": 6, "velocity": 119}, {"time": 4132, "pitch": 80, "duration": 6, "velocity": 117}, {"time": 4138, "pitch": 77, "duration": 6, "velocity": 117}, {"time": 4144, "pitch": 75, "duration": 6, "velocity": 116}, {"time": 4150, "pitch": 73, "duration": 12, "velocity": 117}, {"time": 4162, "pitch": 70, "duration": 6, "velocity": 113}, {"time": 4168, "pitch": 73, "duration": 6, "velocity": 114}, {"time": 4174, "pitch": 77, "duration": 6, "velocity": 116}, {"time": 4180, "pitch": 77, "duration": 18, "velocity": 116}, {"time": 4198, "pitch": 70, "duration": 6, "velocity": 116}, {"time": 4204, "pitch": 73, "duration": 6, "velocity": 114}, {"time": 4210, "pitch": 75, "duration": 6, "velocity": 114}, {"time": 4216, "pitch": 77, "duration": 6, "velocity": 116}, {"time": 4222, "pitch": 80, "duration": 12, "velocity": 119}, {"time": 4234, "pitch": 77, "duration": 12, "velocity": 117}, {"time": 4246, "pitch": 82, "duration": 3, "velocity": 117}, {"time": 4249, "pitch": 80, "duration": 9, "velocity": 113}, {"time": 4258, "pitch": 73, "duration": 6, "velocity": 117}, {"time": 4264, "pitch": 77, "duration": 6, "velocity": 119}, {"time": 4270, "pitch": 75, "duration": 24, "velocity": 119}, {"time": 4294, "pitch": 80, "duration": 12, "velocity": 120}, {"time": 4306, "pitch": 77, "duration": 6, "velocity": 117}, {"time": 4312, "pitch": 80, "duration": 6, "velocity": 116}, {"time": 4318, "pitch": 82, "duration": 6, "velocity": 114}, {"time": 4324, "pitch": 80, "duration": 6, "velocity": 114}, {"time": 4330, "pitch": 77, "duration": 6, "velocity": 116}, {"time": 4336, "pitch": 75, "duration": 6, "velocity": 110}, {"time": 4342, "pitch": 73, "duration": 9, "velocity": 114}, {"time": 4348, "pitch": 73, "duration": 3, "velocity": 114}, {"time": 4354, "pitch": 70, "duration": 6, "velocity": 114}, {"time": 4360, "pitch": 73, "duration": 6, "velocity": 114}, {"time": 4366, "pitch": 77, "duration": 6, "velocity": 113}, {"time": 4372, "pitch": 77, "duration": 12, "velocity": 113}, {"time": 4384, "pitch": 68, "duration": 6, "velocity": 116}, {"time": 4390, "pitch": 70, "duration": 6, "velocity": 114}, {"time": 4396, "pitch": 73, "duration": 6, "velocity": 110}, {"time": 4402, "pitch": 75, "duration": 6, "velocity": 114}, {"time": 4408, "pitch": 77, "duration": 6, "velocity": 114}, {"time": 4414, "pitch": 80, "duration": 12, "velocity": 114}, {"time": 4426, "pitch": 77, "duration": 9, "velocity": 114}, {"time": 4435, "pitch": 77, "duration": 4, "velocity": 107}, {"time": 4438, "pitch": 75, "duration": 6, "velocity": 107}, {"time": 4444, "pitch": 73, "duration": 6, "velocity": 113}, {"time": 4450, "pitch": 70, "duration": 6, "velocity": 114}, {"time": 4456, "pitch": 75, "duration": 6, "velocity": 116}, {"time": 4462, "pitch": 73, "duration": 24, "velocity": 116}]}, {"program": 0, "is_drum": false, "name": "BRIDGE", "notes": [{"time": 22, "pitch": 80, "duration": 24, "velocity": 114}, {"time": 46, "pitch": 78, "duration": 6, "velocity": 83}, {"time": 52, "pitch": 80, "duration": 6, "velocity": 94}, {"time": 58, "pitch": 82, "duration": 6, "velocity": 104}, {"time": 64, "pitch": 82, "duration": 6, "velocity": 107}, {"time": 70, "pitch": 83, "duration": 3, "velocity": 119}, {"time": 73, "pitch": 82, "duration": 3, "velocity": 94}, {"time": 76, "pitch": 80, "duration": 12, "velocity": 96}, {"time": 88, "pitch": 77, "duration": 3, "velocity": 108}, {"time": 91, "pitch": 75, "duration": 3, "velocity": 93}, {"time": 94, "pitch": 73, "duration": 12, "velocity": 102}, {"time": 106, "pitch": 70, "duration": 6, "velocity": 113}, {"time": 112, "pitch": 68, "duration": 6, "velocity": 113}, {"time": 118, "pitch": 68, "duration": 30, "velocity": 113}, {"time": 148, "pitch": 65, "duration": 4, "velocity": 86}, {"time": 151, "pitch": 66, "duration": 4, "velocity": 87}, {"time": 154, "pitch": 68, "duration": 4, "velocity": 92}, {"time": 157, "pitch": 73, "duration": 4, "velocity": 89}, {"time": 160, "pitch": 75, "duration": 3, "velocity": 87}, {"time": 163, "pitch": 77, "duration": 3, "velocity": 91}, {"time": 166, "pitch": 77, "duration": 3, "velocity": 100}, {"time": 169, "pitch": 75, "duration": 3, "velocity": 87}, {"time": 172, "pitch": 73, "duration": 27, "velocity": 90}, {"time": 562, "pitch": 73, "duration": 3, "velocity": 107}, {"time": 565, "pitch": 72, "duration": 3, "velocity": 96}, {"time": 568, "pitch": 73, "duration": 3, "velocity": 94}, {"time": 571, "pitch": 75, "duration": 3, "velocity": 100}, {"time": 574, "pitch": 77, "duration": 90, "velocity": 113}, {"time": 664, "pitch": 80, "duration": 6, "velocity": 85}, {"time": 670, "pitch": 78, "duration": 3, "velocity": 88}, {"time": 673, "pitch": 70, "duration": 3, "velocity": 90}, {"time": 676, "pitch": 77, "duration": 3, "velocity": 87}, {"time": 679, "pitch": 70, "duration": 3, "velocity": 89}, {"time": 682, "pitch": 75, "duration": 3, "velocity": 79}, {"time": 685, "pitch": 70, "duration": 3, "velocity": 85}, {"time": 688, "pitch": 73, "duration": 3, "velocity": 72}, {"time": 691, "pitch": 70, "duration": 4, "velocity": 78}, {"time": 694, "pitch": 73, "duration": 8, "velocity": 87}, {"time": 1342, "pitch": 68, "duration": 4, "velocity": 93}, {"time": 1345, "pitch": 70, "duration": 3, "velocity": 87}, {"time": 1348, "pitch": 68, "duration": 4, "velocity": 87}, {"time": 1351, "pitch": 70, "duration": 3, "velocity": 89}, {"time": 1354, "pitch": 68, "duration": 4, "velocity": 91}, {"time": 1357, "pitch": 70, "duration": 3, "velocity": 89}, {"time": 1360, "pitch": 73, "duration": 3, "velocity": 88}, {"time": 1363, "pitch": 75, "duration": 3, "velocity": 89}, {"time": 1366, "pitch": 80, "duration": 10, "velocity": 92}, {"time": 1618, "pitch": 77, "duration": 5, "velocity": 117}, {"time": 1624, "pitch": 75, "duration": 5, "velocity": 104}, {"time": 1630, "pitch": 73, "duration": 10, "velocity": 116}, {"time": 1660, "pitch": 75, "duration": 2, "velocity": 108}, {"time": 1663, "pitch": 77, "duration": 2, "velocity": 96}, {"time": 1666, "pitch": 73, "duration": 4, "velocity": 114}, {"time": 1774, "pitch": 75, "duration": 5, "velocity": 93}, {"time": 1779, "pitch": 77, "duration": 2, "velocity": 87}, {"time": 1780, "pitch": 75, "duration": 2, "velocity": 85}, {"time": 1782, "pitch": 73, "duration": 3, "velocity": 91}, {"time": 1785, "pitch": 75, "duration": 1, "velocity": 89}, {"time": 1786, "pitch": 70, "duration": 3, "velocity": 96}, {"time": 1789, "pitch": 73, "duration": 2, "velocity": 88}, {"time": 1791, "pitch": 70, "duration": 2, "velocity": 89}, {"time": 1792, "pitch": 68, "duration": 3, "velocity": 94}, {"time": 1795, "pitch": 70, "duration": 3, "velocity": 89}, {"time": 1798, "pitch": 65, "duration": 3, "velocity": 104}, {"time": 1801, "pitch": 68, "duration": 2, "velocity": 76}, {"time": 1803, "pitch": 65, "duration": 1, "velocity": 90}, {"time": 1804, "pitch": 63, "duration": 3, "velocity": 92}, {"time": 1807, "pitch": 65, "duration": 3, "velocity": 104}, {"time": 1810, "pitch": 63, "duration": 3, "velocity": 104}, {"time": 1812, "pitch": 61, "duration": 7, "velocity": 93}, {"time": 1819, "pitch": 58, "duration": 3, "velocity": 91}, {"time": 1822, "pitch": 56, "duration": 3, "velocity": 104}, {"time": 1825, "pitch": 58, "duration": 3, "velocity": 100}, {"time": 1828, "pitch": 61, "duration": 3, "velocity": 102}, {"time": 1831, "pitch": 58, "duration": 3, "velocity": 88}, {"time": 1834, "pitch": 61, "duration": 3, "velocity": 113}, {"time": 1837, "pitch": 63, "duration": 3, "velocity": 114}, {"time": 1840, "pitch": 61, "duration": 3, "velocity": 107}, {"time": 1843, "pitch": 63, "duration": 3, "velocity": 113}, {"time": 1846, "pitch": 65, "duration": 30, "velocity": 116}, {"time": 1876, "pitch": 56, "duration": 3, "velocity": 98}, {"time": 1879, "pitch": 58, "duration": 3, "velocity": 98}, {"time": 1882, "pitch": 61, "duration": 3, "velocity": 110}, {"time": 1885, "pitch": 58, "duration": 3, "velocity": 100}, {"time": 1888, "pitch": 61, "duration": 3, "velocity": 100}, {"time": 1891, "pitch": 63, "duration": 3, "velocity": 102}, {"time": 1894, "pitch": 65, "duration": 4, "velocity": 116}, {"time": 1897, "pitch": 65, "duration": 1, "velocity": 110}, {"time": 1900, "pitch": 63, "duration": 3, "velocity": 107}, {"time": 1903, "pitch": 61, "duration": 3, "velocity": 94}, {"time": 1906, "pitch": 61, "duration": 18, "velocity": 113}, {"time": 1924, "pitch": 63, "duration": 3, "velocity": 113}, {"time": 1927, "pitch": 65, "duration": 3, "velocity": 107}, {"time": 1930, "pitch": 68, "duration": 3, "velocity": 108}, {"time": 1933, "pitch": 70, "duration": 3, "velocity": 107}, {"time": 1936, "pitch": 68, "duration": 3, "velocity": 96}, {"time": 1939, "pitch": 70, "duration": 3, "velocity": 102}, {"time": 1942, "pitch": 72, "duration": 5, "velocity": 110}, {"time": 1947, "pitch": 70, "duration": 1, "velocity": 86}, {"time": 1948, "pitch": 68, "duration": 6, "velocity": 87}, {"time": 1954, "pitch": 68, "duration": 18, "velocity": 87}, {"time": 1972, "pitch": 63, "duration": 3, "velocity": 107}, {"time": 1975, "pitch": 65, "duration": 3, "velocity": 102}, {"time": 1978, "pitch": 68, "duration": 18, "velocity": 114}, {"time": 1996, "pitch": 73, "duration": 3, "velocity": 107}, {"time": 1999, "pitch": 75, "duration": 3, "velocity": 108}, {"time": 2002, "pitch": 77, "duration": 24, "velocity": 119}, {"time": 2026, "pitch": 75, "duration": 12, "velocity": 113}, {"time": 2038, "pitch": 73, "duration": 3, "velocity": 113}, {"time": 2041, "pitch": 68, "duration": 42, "velocity": 104}, {"time": 2083, "pitch": 58, "duration": 3, "velocity": 100}, {"time": 2086, "pitch": 56, "duration": 3, "velocity": 107}, {"time": 2089, "pitch": 58, "duration": 3, "velocity": 93}, {"time": 2092, "pitch": 61, "duration": 3, "velocity": 100}, {"time": 2095, "pitch": 58, "duration": 3, "velocity": 93}, {"time": 2098, "pitch": 61, "duration": 3, "velocity": 116}, {"time": 2101, "pitch": 63, "duration": 6, "velocity": 102}, {"time": 2107, "pitch": 61, "duration": 3, "velocity": 108}, {"time": 2110, "pitch": 63, "duration": 9, "velocity": 117}, {"time": 2119, "pitch": 61, "duration": 3, "velocity": 107}, {"time": 2122, "pitch": 61, "duration": 6, "velocity": 114}, {"time": 2128, "pitch": 63, "duration": 6, "velocity": 100}, {"time": 2134, "pitch": 61, "duration": 36, "velocity": 107}, {"time": 2236, "pitch": 80, "duration": 1, "velocity": 113}, {"time": 2241, "pitch": 80, "duration": 2, "velocity": 110}, {"time": 2248, "pitch": 73, "duration": 2, "velocity": 94}, {"time": 2251, "pitch": 80, "duration": 3, "velocity": 108}, {"time": 2356, "pitch": 73, "duration": 3, "velocity": 102}, {"time": 2359, "pitch": 75, "duration": 3, "velocity": 91}, {"time": 2362, "pitch": 77, "duration": 3, "velocity": 92}, {"time": 2365, "pitch": 78, "duration": 3, "velocity": 92}, {"time": 2368, "pitch": 77, "duration": 3, "velocity": 94}, {"time": 2371, "pitch": 75, "duration": 4, "velocity": 98}, {"time": 2374, "pitch": 77, "duration": 12, "velocity": 107}, {"time": 2524, "pitch": 68, "duration": 6, "velocity": 107}, {"time": 2530, "pitch": 73, "duration": 6, "velocity": 104}, {"time": 2536, "pitch": 75, "duration": 6, "velocity": 108}, {"time": 2542, "pitch": 77, "duration": 11, "velocity": 108}, {"time": 2710, "pitch": 68, "duration": 4, "velocity": 110}, {"time": 2713, "pitch": 70, "duration": 2, "velocity": 102}, {"time": 2716, "pitch": 73, "duration": 4, "velocity": 92}, {"time": 2719, "pitch": 75, "duration": 2, "velocity": 91}, {"time": 2722, "pitch": 77, "duration": 2, "velocity": 107}, {"time": 2725, "pitch": 80, "duration": 3, "velocity": 88}, {"time": 2728, "pitch": 82, "duration": 4, "velocity": 107}, {"time": 2734, "pitch": 80, "duration": 4, "velocity": 119}, {"time": 2908, "pitch": 73, "duration": 3, "velocity": 113}, {"time": 2911, "pitch": 70, "duration": 3, "velocity": 104}, {"time": 2914, "pitch": 73, "duration": 2, "velocity": 96}, {"time": 2917, "pitch": 70, "duration": 3, "velocity": 102}, {"time": 2920, "pitch": 73, "duration": 2, "velocity": 100}, {"time": 2923, "pitch": 77, "duration": 4, "velocity": 113}, {"time": 2926, "pitch": 75, "duration": 6, "velocity": 114}, {"time": 3025, "pitch": 77, "duration": 1, "velocity": 104}, {"time": 3028, "pitch": 77, "duration": 2, "velocity": 104}, {"time": 3031, "pitch": 75, "duration": 3, "velocity": 100}, {"time": 3034, "pitch": 73, "duration": 3, "velocity": 110}, {"time": 3166, "pitch": 80, "duration": 13, "velocity": 110}, {"time": 3178, "pitch": 77, "duration": 5, "velocity": 114}, {"time": 3184, "pitch": 75, "duration": 6, "velocity": 113}, {"time": 3190, "pitch": 73, "duration": 6, "velocity": 114}, {"time": 3418, "pitch": 70, "duration": 2, "velocity": 110}, {"time": 3421, "pitch": 73, "duration": 2, "velocity": 104}, {"time": 3424, "pitch": 75, "duration": 2, "velocity": 98}, {"time": 3427, "pitch": 77, "duration": 2, "velocity": 98}, {"time": 3430, "pitch": 80, "duration": 3, "velocity": 113}, {"time": 3514, "pitch": 70, "duration": 2, "velocity": 110}, {"time": 3517, "pitch": 73, "duration": 2, "velocity": 94}, {"time": 3520, "pitch": 75, "duration": 1, "velocity": 93}, {"time": 3523, "pitch": 77, "duration": 1, "velocity": 91}, {"time": 3526, "pitch": 80, "duration": 3, "velocity": 108}, {"time": 3610, "pitch": 80, "duration": 2, "velocity": 119}, {"time": 3613, "pitch": 82, "duration": 2, "velocity": 96}, {"time": 3616, "pitch": 80, "duration": 2, "velocity": 92}, {"time": 3619, "pitch": 77, "duration": 3, "velocity": 100}, {"time": 3622, "pitch": 73, "duration": 4, "velocity": 87}, {"time": 3724, "pitch": 80, "duration": 3, "velocity": 110}, {"time": 3727, "pitch": 82, "duration": 3, "velocity": 104}, {"time": 3730, "pitch": 80, "duration": 15, "velocity": 110}, {"time": 3745, "pitch": 68, "duration": 3, "velocity": 102}, {"time": 3748, "pitch": 68, "duration": 4, "velocity": 92}, {"time": 3751, "pitch": 70, "duration": 3, "velocity": 104}, {"time": 3754, "pitch": 73, "duration": 3, "velocity": 94}, {"time": 3757, "pitch": 75, "duration": 3, "velocity": 96}, {"time": 3760, "pitch": 68, "duration": 10, "velocity": 104}, {"time": 3771, "pitch": 68, "duration": 1, "velocity": 107}, {"time": 3772, "pitch": 70, "duration": 5, "velocity": 91}, {"time": 3777, "pitch": 73, "duration": 1, "velocity": 89}, {"time": 3778, "pitch": 75, "duration": 3, "velocity": 107}, {"time": 3781, "pitch": 75, "duration": 6, "velocity": 114}, {"time": 3787, "pitch": 73, "duration": 3, "velocity": 91}, {"time": 3790, "pitch": 75, "duration": 3, "velocity": 108}, {"time": 3793, "pitch": 77, "duration": 6, "velocity": 108}, {"time": 3799, "pitch": 77, "duration": 21, "velocity": 117}, {"time": 3820, "pitch": 75, "duration": 4, "velocity": 110}, {"time": 3823, "pitch": 77, "duration": 3, "velocity": 96}, {"time": 3826, "pitch": 80, "duration": 3, "velocity": 110}, {"time": 3829, "pitch": 82, "duration": 3, "velocity": 110}, {"time": 3832, "pitch": 80, "duration": 12, "velocity": 110}, {"time": 3844, "pitch": 80, "duration": 3, "velocity": 108}, {"time": 3847, "pitch": 82, "duration": 3, "velocity": 88}, {"time": 3850, "pitch": 77, "duration": 9, "velocity": 107}, {"time": 3859, "pitch": 73, "duration": 3, "velocity": 94}, {"time": 3862, "pitch": 70, "duration": 8, "velocity": 114}, {"time": 3870, "pitch": 75, "duration": 4, "velocity": 108}, {"time": 3874, "pitch": 75, "duration": 6, "velocity": 108}, {"time": 3880, "pitch": 77, "duration": 6, "velocity": 107}, {"time": 3886, "pitch": 75, "duration": 30, "velocity": 114}, {"time": 3916, "pitch": 80, "duration": 3, "velocity": 104}, {"time": 3919, "pitch": 82, "duration": 3, "velocity": 93}, {"time": 3922, "pitch": 80, "duration": 21, "velocity": 107}, {"time": 3943, "pitch": 87, "duration": 3, "velocity": 110}, {"time": 3946, "pitch": 89, "duration": 3, "velocity": 107}, {"time": 3949, "pitch": 87, "duration": 5, "velocity": 91}, {"time": 3954, "pitch": 85, "duration": 13, "velocity": 102}, {"time": 3967, "pitch": 87, "duration": 3, "velocity": 96}, {"time": 3970, "pitch": 89, "duration": 3, "velocity": 104}, {"time": 3973, "pitch": 87, "duration": 3, "velocity": 91}, {"time": 3976, "pitch": 85, "duration": 6, "velocity": 104}, {"time": 3982, "pitch": 89, "duration": 15, "velocity": 108}, {"time": 3997, "pitch": 80, "duration": 9, "velocity": 88}, {"time": 4006, "pitch": 85, "duration": 5, "velocity": 116}, {"time": 4011, "pitch": 82, "duration": 4, "velocity": 87}, {"time": 4015, "pitch": 85, "duration": 3, "velocity": 117}, {"time": 4018, "pitch": 82, "duration": 6, "velocity": 113}, {"time": 4024, "pitch": 85, "duration": 3, "velocity": 113}, {"time": 4027, "pitch": 82, "duration": 12, "velocity": 102}, {"time": 4039, "pitch": 80, "duration": 18, "velocity": 110}, {"time": 4057, "pitch": 75, "duration": 3, "velocity": 89}, {"time": 4060, "pitch": 77, "duration": 3, "velocity": 88}, {"time": 4063, "pitch": 80, "duration": 3, "velocity": 96}, {"time": 4066, "pitch": 77, "duration": 7, "velocity": 108}, {"time": 4072, "pitch": 75, "duration": 6, "velocity": 91}, {"time": 4078, "pitch": 73, "duration": 24, "velocity": 98}, {"time": 4480, "pitch": 82, "duration": 3, "velocity": 91}, {"time": 4483, "pitch": 77, "duration": 3, "velocity": 88}, {"time": 4486, "pitch": 80, "duration": 27, "velocity": 110}, {"time": 4513, "pitch": 77, "duration": 3, "velocity": 96}, {"time": 4516, "pitch": 75, "duration": 3, "velocity": 88}, {"time": 4519, "pitch": 80, "duration": 3, "velocity": 91}, {"time": 4522, "pitch": 77, "duration": 6, "velocity": 91}, {"time": 4528, "pitch": 75, "duration": 6, "velocity": 89}, {"time": 4534, "pitch": 73, "duration": 18, "velocity": 96}, {"time": 4552, "pitch": 70, "duration": 6, "velocity": 100}, {"time": 4558, "pitch": 68, "duration": 38, "velocity": 102}, {"time": 4596, "pitch": 68, "duration": 3, "velocity": 82}, {"time": 4599, "pitch": 70, "duration": 3, "velocity": 80}, {"time": 4602, "pitch": 73, "duration": 3, "velocity": 80}, {"time": 4605, "pitch": 70, "duration": 14, "velocity": 85}, {"time": 4619, "pitch": 68, "duration": 10, "velocity": 85}, {"time": 4629, "pitch": 68, "duration": 2, "velocity": 65}, {"time": 4630, "pitch": 63, "duration": 2, "velocity": 73}, {"time": 4632, "pitch": 65, "duration": 7, "velocity": 85}, {"time": 4639, "pitch": 63, "duration": 2, "velocity": 38}, {"time": 4641, "pitch": 61, "duration": 25, "velocity": 82}, {"time": 4666, "pitch": 82, "duration": 9, "velocity": 113}, {"time": 4678, "pitch": 80, "duration": 6, "velocity": 114}]}, {"program": 0, "is_drum": false, "name": "PIANO", "notes": [{"time": 22, "pitch": 49, "duration": 20, "velocity": 80}, {"time": 28, "pitch": 56, "duration": 19, "velocity": 65}, {"time": 34, "pitch": 61, "duration": 7, "velocity": 78}, {"time": 46, "pitch": 48, "duration": 20, "velocity": 77}, {"time": 52, "pitch": 56, "duration": 14, "velocity": 72}, {"time": 58, "pitch": 60, "duration": 7, "velocity": 78}, {"time": 64, "pitch": 63, "duration": 32, "velocity": 85}, {"time": 70, "pitch": 46, "duration": 20, "velocity": 82}, {"time": 76, "pitch": 53, "duration": 18, "velocity": 70}, {"time": 82, "pitch": 58, "duration": 6, "velocity": 76}, {"time": 94, "pitch": 44, "duration": 20, "velocity": 79}, {"time": 100, "pitch": 53, "duration": 13, "velocity": 67}, {"time": 106, "pitch": 56, "duration": 7, "velocity": 81}, {"time": 112, "pitch": 61, "duration": 29, "velocity": 73}, {"time": 118, "pitch": 42, "duration": 19, "velocity": 77}, {"time": 124, "pitch": 49, "duration": 18, "velocity": 64}, {"time": 130, "pitch": 54, "duration": 7, "velocity": 81}, {"time": 136, "pitch": 58, "duration": 7, "velocity": 76}, {"time": 142, "pitch": 44, "duration": 20, "velocity": 83}, {"time": 148, "pitch": 51, "duration": 15, "velocity": 67}, {"time": 154, "pitch": 56, "duration": 13, "velocity": 77}, {"time": 160, "pitch": 60, "duration": 8, "velocity": 79}, {"time": 166, "pitch": 49, "duration": 41, "velocity": 80}, {"time": 172, "pitch": 56, "duration": 35, "velocity": 63}, {"time": 178, "pitch": 61, "duration": 29, "velocity": 77}, {"time": 184, "pitch": 66, "duration": 7, "velocity": 78}, {"time": 190, "pitch": 65, "duration": 15, "velocity": 84}, {"time": 214, "pitch": 49, "duration": 19, "velocity": 81}, {"time": 220, "pitch": 56, "duration": 19, "velocity": 65}, {"time": 226, "pitch": 61, "duration": 7, "velocity": 80}, {"time": 232, "pitch": 65, "duration": 9, "velocity": 83}, {"time": 238, "pitch": 48, "duration": 20, "velocity": 84}, {"time": 244, "pitch": 56, "duration": 13, "velocity": 70}, {"time": 250, "pitch": 60, "duration": 6, "velocity": 83}, {"time": 256, "pitch": 65, "duration": 10, "velocity": 84}, {"time": 262, "pitch": 46, "duration": 33, "velocity": 80}, {"time": 268, "pitch": 53, "duration": 35, "velocity": 71}, {"time": 274, "pitch": 58, "duration": 21, "velocity": 81}, {"time": 280, "pitch": 60, "duration": 7, "velocity": 82}, {"time": 286, "pitch": 61, "duration": 24, "velocity": 83}, {"time": 310, "pitch": 42, "duration": 19, "velocity": 86}, {"time": 316, "pitch": 49, "duration": 18, "velocity": 73}, {"time": 322, "pitch": 54, "duration": 11, "velocity": 82}, {"time": 328, "pitch": 58, "duration": 7, "velocity": 80}, {"time": 334, "pitch": 53, "duration": 21, "velocity": 80}, {"time": 340, "pitch": 60, "duration": 15, "velocity": 73}, {"time": 346, "pitch": 65, "duration": 7, "velocity": 82}, {"time": 358, "pitch": 51, "duration": 42, "velocity": 85}, {"time": 364, "pitch": 58, "duration": 35, "velocity": 76}, {"time": 370, "pitch": 63, "duration": 28, "velocity": 80}, {"time": 376, "pitch": 65, "duration": 7, "velocity": 77}, {"time": 382, "pitch": 66, "duration": 22, "velocity": 87}, {"time": 406, "pitch": 49, "duration": 19, "velocity": 86}, {"time": 412, "pitch": 56, "duration": 19, "velocity": 78}, {"time": 418, "pitch": 61, "duration": 6, "velocity": 81}, {"time": 424, "pitch": 65, "duration": 7, "velocity": 89}, {"time": 430, "pitch": 53, "duration": 18, "velocity": 82}, {"time": 430, "pitch": 65, "duration": 1, "velocity": 86}, {"time": 430, "pitch": 69, "duration": 9, "velocity": 87}, {"time": 439, "pitch": 60, "duration": 10, "velocity": 72}, {"time": 442, "pitch": 65, "duration": 23, "velocity": 86}, {"time": 442, "pitch": 69, "duration": 7, "velocity": 86}, {"time": 454, "pitch": 46, "duration": 41, "velocity": 80}, {"time": 454, "pitch": 61, "duration": 13, "velocity": 78}, {"time": 454, "pitch": 70, "duration": 10, "velocity": 81}, {"time": 460, "pitch": 53, "duration": 34, "velocity": 66}, {"time": 466, "pitch": 58, "duration": 27, "velocity": 79}, {"time": 472, "pitch": 60, "duration": 22, "velocity": 73}, {"time": 478, "pitch": 61, "duration": 19, "velocity": 83}, {"time": 502, "pitch": 42, "duration": 19, "velocity": 86}, {"time": 502, "pitch": 58, "duration": 19, "velocity": 82}, {"time": 502, "pitch": 66, "duration": 20, "velocity": 87}, {"time": 508, "pitch": 49, "duration": 18, "velocity": 64}, {"time": 514, "pitch": 54, "duration": 10, "velocity": 79}, {"time": 526, "pitch": 44, "duration": 20, "velocity": 81}, {"time": 526, "pitch": 60, "duration": 20, "velocity": 81}, {"time": 526, "pitch": 68, "duration": 20, "velocity": 84}, {"time": 532, "pitch": 51, "duration": 14, "velocity": 65}, {"time": 538, "pitch": 56, "duration": 8, "velocity": 79}, {"time": 550, "pitch": 49, "duration": 43, "velocity": 88}, {"time": 556, "pitch": 56, "duration": 36, "velocity": 64}, {"time": 562, "pitch": 61, "duration": 29, "velocity": 81}, {"time": 568, "pitch": 63, "duration": 7, "velocity": 81}, {"time": 574, "pitch": 65, "duration": 14, "velocity": 88}, {"time": 598, "pitch": 49, "duration": 19, "velocity": 77}, {"time": 598, "pitch": 65, "duration": 19, "velocity": 81}, {"time": 598, "pitch": 68, "duration": 18, "velocity": 78}, {"time": 598, "pitch": 73, "duration": 17, "velocity": 81}, {"time": 604, "pitch": 56, "duration": 18, "velocity": 68}, {"time": 610, "pitch": 61, "duration": 7, "velocity": 79}, {"time": 622, "pitch": 48, "duration": 20, "velocity": 81}, {"time": 622, "pitch": 63, "duration": 18, "velocity": 80}, {"time": 622, "pitch": 68, "duration": 19, "velocity": 82}, {"time": 622, "pitch": 72, "duration": 19, "velocity": 84}, {"time": 628, "pitch": 56, "duration": 13, "velocity": 69}, {"time": 634, "pitch": 60, "duration": 6, "velocity": 78}, {"time": 646, "pitch": 46, "duration": 32, "velocity": 81}, {"time": 646, "pitch": 61, "duration": 12, "velocity": 84}, {"time": 646, "pitch": 65, "duration": 12, "velocity": 86}, {"time": 646, "pitch": 70, "duration": 12, "velocity": 83}, {"time": 652, "pitch": 53, "duration": 31, "velocity": 70}, {"time": 658, "pitch": 58, "duration": 20, "velocity": 81}, {"time": 664, "pitch": 60, "duration": 7, "velocity": 80}, {"time": 670, "pitch": 61, "duration": 14, "velocity": 87}, {"time": 682, "pitch": 44, "duration": 12, "velocity": 94}, {"time": 694, "pitch": 42, "duration": 19, "velocity": 86}, {"time": 694, "pitch": 58, "duration": 18, "velocity": 81}, {"time": 694, "pitch": 61, "duration": 19, "velocity": 76}, {"time": 694, "pitch": 66, "duration": 18, "velocity": 87}, {"time": 700, "pitch": 49, "duration": 13, "velocity": 64}, {"time": 706, "pitch": 54, "duration": 7, "velocity": 81}, {"time": 718, "pitch": 41, "duration": 17, "velocity": 81}, {"time": 718, "pitch": 60, "duration": 21, "velocity": 83}, {"time": 718, "pitch": 65, "duration": 24, "velocity": 78}, {"time": 718, "pitch": 68, "duration": 21, "velocity": 85}, {"time": 742, "pitch": 51, "duration": 42, "velocity": 83}, {"time": 748, "pitch": 58, "duration": 36, "velocity": 76}, {"time": 754, "pitch": 63, "duration": 29, "velocity": 83}, {"time": 766, "pitch": 68, "duration": 24, "velocity": 86}, {"time": 766, "pitch": 72, "duration": 23, "velocity": 89}, {"time": 790, "pitch": 49, "duration": 19, "velocity": 87}, {"time": 796, "pitch": 56, "duration": 19, "velocity": 72}, {"time": 802, "pitch": 61, "duration": 6, "velocity": 84}, {"time": 808, "pitch": 65, "duration": 6, "velocity": 86}, {"time": 808, "pitch": 68, "duration": 9, "velocity": 81}, {"time": 814, "pitch": 48, "duration": 24, "velocity": 85}, {"time": 814, "pitch": 65, "duration": 1, "velocity": 87}, {"time": 814, "pitch": 69, "duration": 8, "velocity": 87}, {"time": 820, "pitch": 54, "duration": 10, "velocity": 50}, {"time": 826, "pitch": 65, "duration": 12, "velocity": 87}, {"time": 826, "pitch": 69, "duration": 12, "velocity": 84}, {"time": 838, "pitch": 46, "duration": 34, "velocity": 81}, {"time": 838, "pitch": 61, "duration": 14, "velocity": 86}, {"time": 838, "pitch": 70, "duration": 13, "velocity": 87}, {"time": 844, "pitch": 53, "duration": 28, "velocity": 63}, {"time": 850, "pitch": 58, "duration": 22, "velocity": 77}, {"time": 856, "pitch": 60, "duration": 15, "velocity": 82}, {"time": 856, "pitch": 65, "duration": 15, "velocity": 78}, {"time": 886, "pitch": 42, "duration": 20, "velocity": 85}, {"time": 886, "pitch": 58, "duration": 20, "velocity": 83}, {"time": 886, "pitch": 61, "duration": 23, "velocity": 82}, {"time": 886, "pitch": 66, "duration": 20, "velocity": 87}, {"time": 892, "pitch": 49, "duration": 18, "velocity": 67}, {"time": 898, "pitch": 54, "duration": 12, "velocity": 81}, {"time": 910, "pitch": 44, "duration": 19, "velocity": 85}, {"time": 910, "pitch": 60, "duration": 10, "velocity": 80}, {"time": 910, "pitch": 63, "duration": 21, "velocity": 72}, {"time": 910, "pitch": 68, "duration": 9, "velocity": 86}, {"time": 916, "pitch": 51, "duration": 14, "velocity": 70}, {"time": 922, "pitch": 56, "duration": 13, "velocity": 79}, {"time": 922, "pitch": 60, "duration": 8, "velocity": 79}, {"time": 922, "pitch": 68, "duration": 8, "velocity": 79}, {"time": 934, "pitch": 49, "duration": 43, "velocity": 82}, {"time": 934, "pitch": 61, "duration": 7, "velocity": 83}, {"time": 934, "pitch": 65, "duration": 9, "velocity": 81}, {"time": 934, "pitch": 68, "duration": 14, "velocity": 82}, {"time": 940, "pitch": 56, "duration": 36, "velocity": 67}, {"time": 946, "pitch": 61, "duration": 15, "velocity": 82}, {"time": 952, "pitch": 63, "duration": 24, "velocity": 81}, {"time": 958, "pitch": 65, "duration": 19, "velocity": 88}, {"time": 958, "pitch": 68, "duration": 18, "velocity": 87}, {"time": 982, "pitch": 49, "duration": 18, "velocity": 88}, {"time": 982, "pitch": 61, "duration": 10, "velocity": 86}, {"time": 982, "pitch": 65, "duration": 10, "velocity": 89}, {"time": 982, "pitch": 68, "duration": 9, "velocity": 87}, {"time": 994, "pitch": 61, "duration": 7, "velocity": 85}, {"time": 994, "pitch": 65, "duration": 8, "velocity": 86}, {"time": 994, "pitch": 68, "duration": 7, "velocity": 88}, {"time": 1006, "pitch": 44, "duration": 20, "velocity": 84}, {"time": 1006, "pitch": 56, "duration": 19, "velocity": 86}, {"time": 1006, "pitch": 60, "duration": 8, "velocity": 87}, {"time": 1006, "pitch": 63, "duration": 8, "velocity": 88}, {"time": 1006, "pitch": 68, "duration": 8, "velocity": 87}, {"time": 1018, "pitch": 60, "duration": 7, "velocity": 87}, {"time": 1018, "pitch": 63, "duration": 8, "velocity": 92}, {"time": 1018, "pitch": 68, "duration": 7, "velocity": 88}, {"time": 1030, "pitch": 41, "duration": 19, "velocity": 87}, {"time": 1030, "pitch": 60, "duration": 7, "velocity": 88}, {"time": 1030, "pitch": 65, "duration": 7, "velocity": 90}, {"time": 1030, "pitch": 68, "duration": 7, "velocity": 88}, {"time": 1036, "pitch": 53, "duration": 9, "velocity": 71}, {"time": 1042, "pitch": 60, "duration": 7, "velocity": 96}, {"time": 1042, "pitch": 65, "duration": 7, "velocity": 94}, {"time": 1042, "pitch": 68, "duration": 7, "velocity": 93}, {"time": 1048, "pitch": 53, "duration": 6, "velocity": 73}, {"time": 1054, "pitch": 46, "duration": 18, "velocity": 83}, {"time": 1054, "pitch": 61, "duration": 7, "velocity": 86}, {"time": 1054, "pitch": 65, "duration": 7, "velocity": 88}, {"time": 1054, "pitch": 70, "duration": 7, "velocity": 89}, {"time": 1060, "pitch": 53, "duration": 12, "velocity": 73}, {"time": 1066, "pitch": 58, "duration": 5, "velocity": 81}, {"time": 1066, "pitch": 61, "duration": 6, "velocity": 91}, {"time": 1066, "pitch": 65, "duration": 6, "velocity": 96}, {"time": 1066, "pitch": 70, "duration": 7, "velocity": 91}, {"time": 1078, "pitch": 51, "duration": 19, "velocity": 88}, {"time": 1078, "pitch": 63, "duration": 8, "velocity": 86}, {"time": 1078, "pitch": 66, "duration": 8, "velocity": 89}, {"time": 1078, "pitch": 70, "duration": 7, "velocity": 88}, {"time": 1084, "pitch": 58, "duration": 13, "velocity": 65}, {"time": 1090, "pitch": 63, "duration": 8, "velocity": 88}, {"time": 1090, "pitch": 66, "duration": 7, "velocity": 92}, {"time": 1090, "pitch": 70, "duration": 7, "velocity": 86}, {"time": 1102, "pitch": 44, "duration": 19, "velocity": 87}, {"time": 1102, "pitch": 60, "duration": 8, "velocity": 90}, {"time": 1102, "pitch": 63, "duration": 8, "velocity": 91}, {"time": 1102, "pitch": 68, "duration": 7, "velocity": 89}, {"time": 1108, "pitch": 51, "duration": 14, "velocity": 71}, {"time": 1114, "pitch": 56, "duration": 9, "velocity": 78}, {"time": 1114, "pitch": 60, "duration": 7, "velocity": 91}, {"time": 1114, "pitch": 63, "duration": 8, "velocity": 102}, {"time": 1114, "pitch": 68, "duration": 7, "velocity": 93}, {"time": 1126, "pitch": 49, "duration": 41, "velocity": 83}, {"time": 1126, "pitch": 61, "duration": 9, "velocity": 88}, {"time": 1126, "pitch": 65, "duration": 13, "velocity": 92}, {"time": 1126, "pitch": 68, "duration": 13, "velocity": 91}, {"time": 1132, "pitch": 56, "duration": 33, "velocity": 71}, {"time": 1138, "pitch": 61, "duration": 15, "velocity": 85}, {"time": 1144, "pitch": 66, "duration": 5, "velocity": 92}, {"time": 1150, "pitch": 65, "duration": 10, "velocity": 100}, {"time": 1150, "pitch": 68, "duration": 10, "velocity": 91}, {"time": 1162, "pitch": 65, "duration": 6, "velocity": 40}, {"time": 1162, "pitch": 68, "duration": 6, "velocity": 62}, {"time": 1174, "pitch": 42, "duration": 19, "velocity": 87}, {"time": 1174, "pitch": 61, "duration": 7, "velocity": 87}, {"time": 1174, "pitch": 66, "duration": 7, "velocity": 88}, {"time": 1174, "pitch": 70, "duration": 6, "velocity": 87}, {"time": 1180, "pitch": 54, "duration": 13, "velocity": 80}, {"time": 1186, "pitch": 61, "duration": 7, "velocity": 93}, {"time": 1186, "pitch": 66, "duration": 6, "velocity": 100}, {"time": 1186, "pitch": 70, "duration": 6, "velocity": 92}, {"time": 1198, "pitch": 44, "duration": 19, "velocity": 84}, {"time": 1198, "pitch": 60, "duration": 8, "velocity": 85}, {"time": 1198, "pitch": 63, "duration": 8, "velocity": 92}, {"time": 1198, "pitch": 68, "duration": 7, "velocity": 87}, {"time": 1204, "pitch": 51, "duration": 12, "velocity": 67}, {"time": 1210, "pitch": 56, "duration": 6, "velocity": 79}, {"time": 1210, "pitch": 60, "duration": 8, "velocity": 87}, {"time": 1210, "pitch": 63, "duration": 8, "velocity": 93}, {"time": 1210, "pitch": 68, "duration": 8, "velocity": 89}, {"time": 1222, "pitch": 41, "duration": 18, "velocity": 88}, {"time": 1222, "pitch": 60, "duration": 7, "velocity": 88}, {"time": 1222, "pitch": 65, "duration": 7, "velocity": 90}, {"time": 1222, "pitch": 68, "duration": 7, "velocity": 87}, {"time": 1228, "pitch": 53, "duration": 11, "velocity": 80}, {"time": 1234, "pitch": 60, "duration": 7, "velocity": 91}, {"time": 1234, "pitch": 65, "duration": 10, "velocity": 94}, {"time": 1234, "pitch": 68, "duration": 8, "velocity": 91}, {"time": 1240, "pitch": 53, "duration": 7, "velocity": 84}, {"time": 1246, "pitch": 46, "duration": 45, "velocity": 83}, {"time": 1246, "pitch": 58, "duration": 44, "velocity": 78}, {"time": 1246, "pitch": 62, "duration": 44, "velocity": 87}, {"time": 1246, "pitch": 65, "duration": 44, "velocity": 90}, {"time": 1246, "pitch": 70, "duration": 44, "velocity": 90}, {"time": 1294, "pitch": 51, "duration": 24, "velocity": 89}, {"time": 1294, "pitch": 63, "duration": 11, "velocity": 88}, {"time": 1294, "pitch": 66, "duration": 10, "velocity": 90}, {"time": 1294, "pitch": 70, "duration": 10, "velocity": 91}, {"time": 1306, "pitch": 63, "duration": 9, "velocity": 89}, {"time": 1306, "pitch": 66, "duration": 7, "velocity": 98}, {"time": 1306, "pitch": 70, "duration": 7, "velocity": 90}, {"time": 1318, "pitch": 44, "duration": 20, "velocity": 80}, {"time": 1318, "pitch": 56, "duration": 22, "velocity": 80}, {"time": 1318, "pitch": 60, "duration": 9, "velocity": 87}, {"time": 1318, "pitch": 63, "duration": 8, "velocity": 96}, {"time": 1318, "pitch": 68, "duration": 8, "velocity": 93}, {"time": 1330, "pitch": 60, "duration": 9, "velocity": 89}, {"time": 1330, "pitch": 63, "duration": 9, "velocity": 102}, {"time": 1330, "pitch": 68, "duration": 8, "velocity": 91}, {"time": 1342, "pitch": 44, "duration": 20, "velocity": 88}, {"time": 1342, "pitch": 60, "duration": 9, "velocity": 88}, {"time": 1342, "pitch": 63, "duration": 9, "velocity": 91}, {"time": 1342, "pitch": 68, "duration": 8, "velocity": 89}, {"time": 1348, "pitch": 51, "duration": 19, "velocity": 70}, {"time": 1354, "pitch": 60, "duration": 10, "velocity": 90}, {"time": 1354, "pitch": 63, "duration": 11, "velocity": 96}, {"time": 1354, "pitch": 68, "duration": 9, "velocity": 91}, {"time": 1360, "pitch": 56, "duration": 7, "velocity": 81}, {"time": 1366, "pitch": 44, "duration": 18, "velocity": 84}, {"time": 1366, "pitch": 60, "duration": 9, "velocity": 88}, {"time": 1366, "pitch": 63, "duration": 10, "velocity": 89}, {"time": 1366, "pitch": 68, "duration": 9, "velocity": 89}, {"time": 1372, "pitch": 51, "duration": 13, "velocity": 73}, {"time": 1375, "pitch": 56, "duration": 6, "velocity": 92}, {"time": 1378, "pitch": 60, "duration": 7, "velocity": 104}, {"time": 1378, "pitch": 63, "duration": 10, "velocity": 113}, {"time": 1378, "pitch": 68, "duration": 8, "velocity": 98}, {"time": 1384, "pitch": 56, "duration": 5, "velocity": 84}, {"time": 1390, "pitch": 49, "duration": 18, "velocity": 86}, {"time": 1390, "pitch": 61, "duration": 7, "velocity": 94}, {"time": 1390, "pitch": 65, "duration": 8, "velocity": 104}, {"time": 1390, "pitch": 68, "duration": 7, "velocity": 91}, {"time": 1396, "pitch": 56, "duration": 7, "velocity": 77}, {"time": 1402, "pitch": 61, "duration": 8, "velocity": 94}, {"time": 1402, "pitch": 65, "duration": 7, "velocity": 93}, {"time": 1402, "pitch": 68, "duration": 7, "velocity": 91}, {"time": 1408, "pitch": 56, "duration": 6, "velocity": 85}, {"time": 1414, "pitch": 48, "duration": 14, "velocity": 84}, {"time": 1414, "pitch": 60, "duration": 7, "velocity": 89}, {"time": 1414, "pitch": 63, "duration": 7, "velocity": 93}, {"time": 1414, "pitch": 68, "duration": 7, "velocity": 87}, {"time": 1420, "pitch": 56, "duration": 8, "velocity": 81}, {"time": 1426, "pitch": 60, "duration": 6, "velocity": 96}, {"time": 1426, "pitch": 63, "duration": 10, "velocity": 110}, {"time": 1426, "pitch": 68, "duration": 7, "velocity": 100}, {"time": 1432, "pitch": 48, "duration": 6, "velocity": 81}, {"time": 1438, "pitch": 46, "duration": 19, "velocity": 86}, {"time": 1438, "pitch": 61, "duration": 8, "velocity": 89}, {"time": 1438, "pitch": 65, "duration": 8, "velocity": 91}, {"time": 1438, "pitch": 70, "duration": 8, "velocity": 100}, {"time": 1444, "pitch": 53, "duration": 6, "velocity": 71}, {"time": 1450, "pitch": 58, "duration": 6, "velocity": 80}, {"time": 1450, "pitch": 61, "duration": 7, "velocity": 93}, {"time": 1450, "pitch": 65, "duration": 9, "velocity": 94}, {"time": 1450, "pitch": 70, "duration": 7, "velocity": 92}, {"time": 1456, "pitch": 53, "duration": 7, "velocity": 81}, {"time": 1462, "pitch": 44, "duration": 15, "velocity": 86}, {"time": 1462, "pitch": 60, "duration": 8, "velocity": 88}, {"time": 1462, "pitch": 63, "duration": 8, "velocity": 100}, {"time": 1462, "pitch": 68, "duration": 6, "velocity": 91}, {"time": 1468, "pitch": 53, "duration": 8, "velocity": 74}, {"time": 1474, "pitch": 60, "duration": 7, "velocity": 93}, {"time": 1474, "pitch": 63, "duration": 9, "velocity": 108}, {"time": 1474, "pitch": 68, "duration": 9, "velocity": 100}, {"time": 1480, "pitch": 44, "duration": 6, "velocity": 84}, {"time": 1486, "pitch": 42, "duration": 19, "velocity": 89}, {"time": 1486, "pitch": 61, "duration": 8, "velocity": 100}, {"time": 1486, "pitch": 66, "duration": 8, "velocity": 107}, {"time": 1486, "pitch": 70, "duration": 7, "velocity": 94}, {"time": 1492, "pitch": 49, "duration": 6, "velocity": 72}, {"time": 1498, "pitch": 54, "duration": 6, "velocity": 83}, {"time": 1498, "pitch": 61, "duration": 7, "velocity": 100}, {"time": 1498, "pitch": 66, "duration": 6, "velocity": 107}, {"time": 1498, "pitch": 70, "duration": 6, "velocity": 96}, {"time": 1504, "pitch": 49, "duration": 5, "velocity": 85}, {"time": 1510, "pitch": 41, "duration": 18, "velocity": 87}, {"time": 1510, "pitch": 60, "duration": 7, "velocity": 94}, {"time": 1510, "pitch": 65, "duration": 7, "velocity": 94}, {"time": 1510, "pitch": 68, "duration": 7, "velocity": 91}, {"time": 1516, "pitch": 48, "duration": 13, "velocity": 71}, {"time": 1522, "pitch": 60, "duration": 6, "velocity": 96}, {"time": 1522, "pitch": 65, "duration": 7, "velocity": 107}, {"time": 1522, "pitch": 68, "duration": 7, "velocity": 102}, {"time": 1528, "pitch": 53, "duration": 5, "velocity": 87}, {"time": 1534, "pitch": 51, "duration": 14, "velocity": 88}, {"time": 1534, "pitch": 63, "duration": 8, "velocity": 100}, {"time": 1534, "pitch": 66, "duration": 8, "velocity": 104}, {"time": 1534, "pitch": 70, "duration": 7, "velocity": 100}, {"time": 1540, "pitch": 58, "duration": 9, "velocity": 78}, {"time": 1546, "pitch": 63, "duration": 10, "velocity": 100}, {"time": 1546, "pitch": 66, "duration": 7, "velocity": 108}, {"time": 1546, "pitch": 70, "duration": 7, "velocity": 94}, {"time": 1552, "pitch": 51, "duration": 2, "velocity": 88}, {"time": 1558, "pitch": 44, "duration": 18, "velocity": 96}, {"time": 1558, "pitch": 60, "duration": 10, "velocity": 100}, {"time": 1558, "pitch": 63, "duration": 10, "velocity": 110}, {"time": 1558, "pitch": 68, "duration": 9, "velocity": 102}, {"time": 1564, "pitch": 51, "duration": 13, "velocity": 79}, {"time": 1567, "pitch": 56, "duration": 14, "velocity": 104}, {"time": 1570, "pitch": 58, "duration": 3, "velocity": 102}, {"time": 1573, "pitch": 60, "duration": 2, "velocity": 96}, {"time": 1576, "pitch": 61, "duration": 2, "velocity": 96}, {"time": 1579, "pitch": 63, "duration": 2, "velocity": 94}, {"time": 1582, "pitch": 49, "duration": 19, "velocity": 98}, {"time": 1582, "pitch": 61, "duration": 5, "velocity": 107}, {"time": 1582, "pitch": 65, "duration": 5, "velocity": 107}, {"time": 1588, "pitch": 56, "duration": 7, "velocity": 77}, {"time": 1594, "pitch": 61, "duration": 6, "velocity": 86}, {"time": 1594, "pitch": 65, "duration": 6, "velocity": 98}, {"time": 1594, "pitch": 68, "duration": 6, "velocity": 110}, {"time": 1594, "pitch": 73, "duration": 6, "velocity": 94}, {"time": 1600, "pitch": 56, "duration": 7, "velocity": 77}, {"time": 1606, "pitch": 48, "duration": 22, "velocity": 85}, {"time": 1606, "pitch": 63, "duration": 8, "velocity": 104}, {"time": 1606, "pitch": 68, "duration": 8, "velocity": 113}, {"time": 1606, "pitch": 72, "duration": 7, "velocity": 100}, {"time": 1612, "pitch": 56, "duration": 7, "velocity": 80}, {"time": 1618, "pitch": 60, "duration": 6, "velocity": 86}, {"time": 1618, "pitch": 63, "duration": 7, "velocity": 107}, {"time": 1618, "pitch": 68, "duration": 9, "velocity": 108}, {"time": 1618, "pitch": 72, "duration": 8, "velocity": 94}, {"time": 1630, "pitch": 46, "duration": 19, "velocity": 88}, {"time": 1630, "pitch": 61, "duration": 8, "velocity": 98}, {"time": 1630, "pitch": 65, "duration": 9, "velocity": 108}, {"time": 1630, "pitch": 70, "duration": 7, "velocity": 100}, {"time": 1636, "pitch": 53, "duration": 6, "velocity": 81}, {"time": 1642, "pitch": 58, "duration": 6, "velocity": 83}, {"time": 1642, "pitch": 61, "duration": 6, "velocity": 98}, {"time": 1642, "pitch": 65, "duration": 7, "velocity": 108}, {"time": 1642, "pitch": 70, "duration": 7, "velocity": 104}, {"time": 1648, "pitch": 53, "duration": 6, "velocity": 87}, {"time": 1654, "pitch": 44, "duration": 20, "velocity": 86}, {"time": 1654, "pitch": 60, "duration": 8, "velocity": 91}, {"time": 1654, "pitch": 63, "duration": 8, "velocity": 104}, {"time": 1654, "pitch": 68, "duration": 7, "velocity": 96}, {"time": 1660, "pitch": 53, "duration": 6, "velocity": 84}, {"time": 1666, "pitch": 56, "duration": 7, "velocity": 86}, {"time": 1666, "pitch": 60, "duration": 6, "velocity": 100}, {"time": 1666, "pitch": 63, "duration": 8, "velocity": 113}, {"time": 1666, "pitch": 68, "duration": 8, "velocity": 100}, {"time": 1672, "pitch": 53, "duration": 1, "velocity": 88}, {"time": 1678, "pitch": 42, "duration": 19, "velocity": 93}, {"time": 1678, "pitch": 61, "duration": 8, "velocity": 91}, {"time": 1678, "pitch": 66, "duration": 8, "velocity": 102}, {"time": 1678, "pitch": 70, "duration": 7, "velocity": 94}, {"time": 1684, "pitch": 49, "duration": 6, "velocity": 81}, {"time": 1690, "pitch": 54, "duration": 8, "velocity": 85}, {"time": 1690, "pitch": 61, "duration": 8, "velocity": 100}, {"time": 1690, "pitch": 66, "duration": 8, "velocity": 104}, {"time": 1690, "pitch": 70, "duration": 8, "velocity": 93}, {"time": 1696, "pitch": 49, "duration": 3, "velocity": 85}, {"time": 1702, "pitch": 44, "duration": 19, "velocity": 94}, {"time": 1702, "pitch": 60, "duration": 8, "velocity": 96}, {"time": 1702, "pitch": 63, "duration": 7, "velocity": 113}, {"time": 1702, "pitch": 68, "duration": 7, "velocity": 98}, {"time": 1708, "pitch": 51, "duration": 6, "velocity": 85}, {"time": 1714, "pitch": 56, "duration": 10, "velocity": 87}, {"time": 1714, "pitch": 60, "duration": 7, "velocity": 102}, {"time": 1714, "pitch": 63, "duration": 9, "velocity": 110}, {"time": 1714, "pitch": 68, "duration": 7, "velocity": 102}, {"time": 1720, "pitch": 51, "duration": 2, "velocity": 82}, {"time": 1726, "pitch": 51, "duration": 12, "velocity": 88}, {"time": 1726, "pitch": 63, "duration": 10, "velocity": 100}, {"time": 1726, "pitch": 66, "duration": 9, "velocity": 108}, {"time": 1726, "pitch": 70, "duration": 8, "velocity": 100}, {"time": 1738, "pitch": 44, "duration": 8, "velocity": 86}, {"time": 1738, "pitch": 56, "duration": 10, "velocity": 87}, {"time": 1738, "pitch": 60, "duration": 8, "velocity": 100}, {"time": 1738, "pitch": 63, "duration": 10, "velocity": 104}, {"time": 1738, "pitch": 68, "duration": 8, "velocity": 102}, {"time": 1750, "pitch": 49, "duration": 19, "velocity": 80}, {"time": 1750, "pitch": 61, "duration": 8, "velocity": 88}, {"time": 1750, "pitch": 65, "duration": 8, "velocity": 98}, {"time": 1750, "pitch": 68, "duration": 7, "velocity": 91}, {"time": 1756, "pitch": 56, "duration": 8, "velocity": 77}, {"time": 1762, "pitch": 61, "duration": 9, "velocity": 89}, {"time": 1762, "pitch": 65, "duration": 9, "velocity": 91}, {"time": 1762, "pitch": 68, "duration": 7, "velocity": 89}, {"time": 1768, "pitch": 56, "duration": 7, "velocity": 78}, {"time": 1774, "pitch": 49, "duration": 18, "velocity": 86}, {"time": 1774, "pitch": 61, "duration": 7, "velocity": 94}, {"time": 1774, "pitch": 65, "duration": 8, "velocity": 104}, {"time": 1774, "pitch": 68, "duration": 7, "velocity": 91}, {"time": 1780, "pitch": 56, "duration": 7, "velocity": 77}, {"time": 1786, "pitch": 61, "duration": 8, "velocity": 94}, {"time": 1786, "pitch": 65, "duration": 7, "velocity": 93}, {"time": 1786, "pitch": 68, "duration": 7, "velocity": 91}, {"time": 1792, "pitch": 56, "duration": 6, "velocity": 85}, {"time": 1798, "pitch": 48, "duration": 14, "velocity": 84}, {"time": 1798, "pitch": 60, "duration": 7, "velocity": 89}, {"time": 1798, "pitch": 63, "duration": 7, "velocity": 93}, {"time": 1798, "pitch": 68, "duration": 7, "velocity": 87}, {"time": 1804, "pitch": 56, "duration": 8, "velocity": 81}, {"time": 1810, "pitch": 60, "duration": 6, "velocity": 96}, {"time": 1810, "pitch": 63, "duration": 10, "velocity": 110}, {"time": 1810, "pitch": 68, "duration": 7, "velocity": 100}, {"time": 1816, "pitch": 48, "duration": 6, "velocity": 81}, {"time": 1822, "pitch": 46, "duration": 19, "velocity": 86}, {"time": 1822, "pitch": 61, "duration": 8, "velocity": 89}, {"time": 1822, "pitch": 65, "duration": 8, "velocity": 91}, {"time": 1822, "pitch": 70, "duration": 8, "velocity": 100}, {"time": 1828, "pitch": 53, "duration": 6, "velocity": 71}, {"time": 1834, "pitch": 58, "duration": 6, "velocity": 80}, {"time": 1834, "pitch": 61, "duration": 7, "velocity": 93}, {"time": 1834, "pitch": 65, "duration": 9, "velocity": 94}, {"time": 1834, "pitch": 70, "duration": 7, "velocity": 92}, {"time": 1840, "pitch": 53, "duration": 7, "velocity": 81}, {"time": 1846, "pitch": 44, "duration": 15, "velocity": 86}, {"time": 1846, "pitch": 60, "duration": 8, "velocity": 88}, {"time": 1846, "pitch": 63, "duration": 8, "velocity": 100}, {"time": 1846, "pitch": 68, "duration": 6, "velocity": 91}, {"time": 1852, "pitch": 53, "duration": 8, "velocity": 74}, {"time": 1858, "pitch": 60, "duration": 7, "velocity": 93}, {"time": 1858, "pitch": 63, "duration": 9, "velocity": 108}, {"time": 1858, "pitch": 68, "duration": 9, "velocity": 100}, {"time": 1864, "pitch": 44, "duration": 6, "velocity": 84}, {"time": 1870, "pitch": 42, "duration": 19, "velocity": 89}, {"time": 1870, "pitch": 61, "duration": 8, "velocity": 100}, {"time": 1870, "pitch": 66, "duration": 8, "velocity": 107}, {"time": 1870, "pitch": 70, "duration": 7, "velocity": 94}, {"time": 1876, "pitch": 49, "duration": 6, "velocity": 72}, {"time": 1882, "pitch": 54, "duration": 6, "velocity": 83}, {"time": 1882, "pitch": 61, "duration": 7, "velocity": 100}, {"time": 1882, "pitch": 66, "duration": 6, "velocity": 107}, {"time": 1882, "pitch": 70, "duration": 6, "velocity": 96}, {"time": 1888, "pitch": 49, "duration": 5, "velocity": 85}, {"time": 1894, "pitch": 41, "duration": 18, "velocity": 87}, {"time": 1894, "pitch": 60, "duration": 7, "velocity": 94}, {"time": 1894, "pitch": 65, "duration": 7, "velocity": 94}, {"time": 1894, "pitch": 68, "duration": 7, "velocity": 91}, {"time": 1900, "pitch": 48, "duration": 13, "velocity": 71}, {"time": 1906, "pitch": 60, "duration": 6, "velocity": 96}, {"time": 1906, "pitch": 65, "duration": 7, "velocity": 107}, {"time": 1906, "pitch": 68, "duration": 7, "velocity": 102}, {"time": 1912, "pitch": 53, "duration": 5, "velocity": 87}, {"time": 1918, "pitch": 51, "duration": 14, "velocity": 88}, {"time": 1918, "pitch": 63, "duration": 8, "velocity": 100}, {"time": 1918, "pitch": 66, "duration": 8, "velocity": 104}, {"time": 1918, "pitch": 70, "duration": 7, "velocity": 100}, {"time": 1924, "pitch": 58, "duration": 9, "velocity": 78}, {"time": 1930, "pitch": 63, "duration": 10, "velocity": 100}, {"time": 1930, "pitch": 66, "duration": 7, "velocity": 108}, {"time": 1930, "pitch": 70, "duration": 7, "velocity": 94}, {"time": 1936, "pitch": 51, "duration": 2, "velocity": 88}, {"time": 1942, "pitch": 44, "duration": 18, "velocity": 96}, {"time": 1942, "pitch": 60, "duration": 10, "velocity": 100}, {"time": 1942, "pitch": 63, "duration": 10, "velocity": 110}, {"time": 1942, "pitch": 68, "duration": 9, "velocity": 102}, {"time": 1948, "pitch": 51, "duration": 13, "velocity": 79}, {"time": 1951, "pitch": 56, "duration": 14, "velocity": 104}, {"time": 1954, "pitch": 58, "duration": 3, "velocity": 102}, {"time": 1957, "pitch": 60, "duration": 2, "velocity": 96}, {"time": 1960, "pitch": 61, "duration": 2, "velocity": 96}, {"time": 1963, "pitch": 63, "duration": 2, "velocity": 94}, {"time": 1966, "pitch": 49, "duration": 19, "velocity": 98}, {"time": 1966, "pitch": 61, "duration": 5, "velocity": 107}, {"time": 1966, "pitch": 65, "duration": 5, "velocity": 107}, {"time": 1972, "pitch": 56, "duration": 7, "velocity": 77}, {"time": 1978, "pitch": 61, "duration": 6, "velocity": 86}, {"time": 1978, "pitch": 65, "duration": 6, "velocity": 98}, {"time": 1978, "pitch": 68, "duration": 6, "velocity": 110}, {"time": 1978, "pitch": 73, "duration": 6, "velocity": 94}, {"time": 1984, "pitch": 56, "duration": 7, "velocity": 77}, {"time": 1990, "pitch": 48, "duration": 22, "velocity": 85}, {"time": 1990, "pitch": 63, "duration": 8, "velocity": 104}, {"time": 1990, "pitch": 68, "duration": 8, "velocity": 113}, {"time": 1990, "pitch": 72, "duration": 7, "velocity": 100}, {"time": 1996, "pitch": 56, "duration": 7, "velocity": 80}, {"time": 2002, "pitch": 60, "duration": 6, "velocity": 86}, {"time": 2002, "pitch": 63, "duration": 7, "velocity": 107}, {"time": 2002, "pitch": 68, "duration": 9, "velocity": 108}, {"time": 2002, "pitch": 72, "duration": 8, "velocity": 94}, {"time": 2014, "pitch": 46, "duration": 19, "velocity": 88}, {"time": 2014, "pitch": 61, "duration": 8, "velocity": 98}, {"time": 2014, "pitch": 65, "duration": 9, "velocity": 108}, {"time": 2014, "pitch": 70, "duration": 7, "velocity": 100}, {"time": 2020, "pitch": 53, "duration": 6, "velocity": 81}, {"time": 2026, "pitch": 58, "duration": 6, "velocity": 83}, {"time": 2026, "pitch": 61, "duration": 6, "velocity": 98}, {"time": 2026, "pitch": 65, "duration": 7, "velocity": 108}, {"time": 2026, "pitch": 70, "duration": 7, "velocity": 104}, {"time": 2032, "pitch": 53, "duration": 6, "velocity": 87}, {"time": 2038, "pitch": 44, "duration": 20, "velocity": 86}, {"time": 2038, "pitch": 60, "duration": 8, "velocity": 91}, {"time": 2038, "pitch": 63, "duration": 8, "velocity": 104}, {"time": 2038, "pitch": 68, "duration": 7, "velocity": 96}, {"time": 2044, "pitch": 53, "duration": 6, "velocity": 84}, {"time": 2050, "pitch": 56, "duration": 7, "velocity": 86}, {"time": 2050, "pitch": 60, "duration": 6, "velocity": 100}, {"time": 2050, "pitch": 63, "duration": 8, "velocity": 113}, {"time": 2050, "pitch": 68, "duration": 8, "velocity": 100}, {"time": 2056, "pitch": 53, "duration": 1, "velocity": 88}, {"time": 2062, "pitch": 42, "duration": 19, "velocity": 93}, {"time": 2062, "pitch": 61, "duration": 8, "velocity": 91}, {"time": 2062, "pitch": 66, "duration": 8, "velocity": 102}, {"time": 2062, "pitch": 70, "duration": 7, "velocity": 94}, {"time": 2068, "pitch": 49, "duration": 6, "velocity": 81}, {"time": 2074, "pitch": 54, "duration": 8, "velocity": 85}, {"time": 2074, "pitch": 61, "duration": 8, "velocity": 100}, {"time": 2074, "pitch": 66, "duration": 8, "velocity": 104}, {"time": 2074, "pitch": 70, "duration": 8, "velocity": 93}, {"time": 2080, "pitch": 49, "duration": 3, "velocity": 85}, {"time": 2086, "pitch": 44, "duration": 19, "velocity": 94}, {"time": 2086, "pitch": 60, "duration": 8, "velocity": 96}, {"time": 2086, "pitch": 63, "duration": 7, "velocity": 113}, {"time": 2086, "pitch": 68, "duration": 7, "velocity": 98}, {"time": 2092, "pitch": 51, "duration": 6, "velocity": 85}, {"time": 2098, "pitch": 56, "duration": 10, "velocity": 87}, {"time": 2098, "pitch": 60, "duration": 7, "velocity": 102}, {"time": 2098, "pitch": 63, "duration": 9, "velocity": 110}, {"time": 2098, "pitch": 68, "duration": 7, "velocity": 102}, {"time": 2104, "pitch": 51, "duration": 2, "velocity": 82}, {"time": 2110, "pitch": 51, "duration": 12, "velocity": 88}, {"time": 2110, "pitch": 63, "duration": 10, "velocity": 100}, {"time": 2110, "pitch": 66, "duration": 9, "velocity": 108}, {"time": 2110, "pitch": 70, "duration": 8, "velocity": 100}, {"time": 2122, "pitch": 44, "duration": 8, "velocity": 86}, {"time": 2122, "pitch": 56, "duration": 10, "velocity": 87}, {"time": 2122, "pitch": 60, "duration": 8, "velocity": 100}, {"time": 2122, "pitch": 63, "duration": 10, "velocity": 104}, {"time": 2122, "pitch": 68, "duration": 8, "velocity": 102}, {"time": 2134, "pitch": 49, "duration": 19, "velocity": 80}, {"time": 2134, "pitch": 61, "duration": 8, "velocity": 88}, {"time": 2134, "pitch": 65, "duration": 8, "velocity": 98}, {"time": 2134, "pitch": 68, "duration": 7, "velocity": 91}, {"time": 2140, "pitch": 56, "duration": 8, "velocity": 77}, {"time": 2146, "pitch": 61, "duration": 9, "velocity": 89}, {"time": 2146, "pitch": 65, "duration": 9, "velocity": 91}, {"time": 2146, "pitch": 68, "duration": 7, "velocity": 89}, {"time": 2152, "pitch": 56, "duration": 7, "velocity": 78}, {"time": 2158, "pitch": 49, "duration": 7, "velocity": 87}, {"time": 2158, "pitch": 61, "duration": 6, "velocity": 87}, {"time": 2158, "pitch": 65, "duration": 6, "velocity": 87}, {"time": 2158, "pitch": 68, "duration": 6, "velocity": 86}, {"time": 2182, "pitch": 49, "duration": 19, "velocity": 77}, {"time": 2182, "pitch": 65, "duration": 19, "velocity": 81}, {"time": 2182, "pitch": 68, "duration": 18, "velocity": 78}, {"time": 2182, "pitch": 73, "duration": 17, "velocity": 81}, {"time": 2188, "pitch": 56, "duration": 18, "velocity": 68}, {"time": 2194, "pitch": 61, "duration": 7, "velocity": 79}, {"time": 2206, "pitch": 48, "duration": 20, "velocity": 81}, {"time": 2206, "pitch": 63, "duration": 18, "velocity": 80}, {"time": 2206, "pitch": 68, "duration": 19, "velocity": 82}, {"time": 2206, "pitch": 72, "duration": 19, "velocity": 84}, {"time": 2212, "pitch": 56, "duration": 13, "velocity": 69}, {"time": 2218, "pitch": 60, "duration": 6, "velocity": 78}, {"time": 2230, "pitch": 46, "duration": 32, "velocity": 81}, {"time": 2230, "pitch": 61, "duration": 12, "velocity": 84}, {"time": 2230, "pitch": 65, "duration": 12, "velocity": 86}, {"time": 2230, "pitch": 70, "duration": 12, "velocity": 83}, {"time": 2236, "pitch": 53, "duration": 31, "velocity": 70}, {"time": 2242, "pitch": 58, "duration": 20, "velocity": 81}, {"time": 2248, "pitch": 60, "duration": 7, "velocity": 80}, {"time": 2254, "pitch": 61, "duration": 14, "velocity": 87}, {"time": 2266, "pitch": 44, "duration": 12, "velocity": 94}, {"time": 2278, "pitch": 42, "duration": 19, "velocity": 86}, {"time": 2278, "pitch": 58, "duration": 18, "velocity": 81}, {"time": 2278, "pitch": 61, "duration": 19, "velocity": 76}, {"time": 2278, "pitch": 66, "duration": 18, "velocity": 87}, {"time": 2284, "pitch": 49, "duration": 13, "velocity": 64}, {"time": 2290, "pitch": 54, "duration": 7, "velocity": 81}, {"time": 2302, "pitch": 41, "duration": 17, "velocity": 81}, {"time": 2302, "pitch": 60, "duration": 21, "velocity": 83}, {"time": 2302, "pitch": 65, "duration": 24, "velocity": 78}, {"time": 2302, "pitch": 68, "duration": 21, "velocity": 85}, {"time": 2326, "pitch": 51, "duration": 42, "velocity": 83}, {"time": 2332, "pitch": 58, "duration": 36, "velocity": 76}, {"time": 2338, "pitch": 63, "duration": 29, "velocity": 83}, {"time": 2350, "pitch": 68, "duration": 24, "velocity": 86}, {"time": 2350, "pitch": 72, "duration": 23, "velocity": 89}, {"time": 2374, "pitch": 49, "duration": 19, "velocity": 87}, {"time": 2380, "pitch": 56, "duration": 19, "velocity": 72}, {"time": 2386, "pitch": 61, "duration": 6, "velocity": 84}, {"time": 2392, "pitch": 65, "duration": 6, "velocity": 86}, {"time": 2392, "pitch": 68, "duration": 9, "velocity": 81}, {"time": 2398, "pitch": 48, "duration": 24, "velocity": 85}, {"time": 2398, "pitch": 65, "duration": 1, "velocity": 87}, {"time": 2398, "pitch": 69, "duration": 8, "velocity": 87}, {"time": 2404, "pitch": 54, "duration": 10, "velocity": 50}, {"time": 2410, "pitch": 65, "duration": 12, "velocity": 87}, {"time": 2410, "pitch": 69, "duration": 12, "velocity": 84}, {"time": 2422, "pitch": 46, "duration": 34, "velocity": 81}, {"time": 2422, "pitch": 61, "duration": 14, "velocity": 86}, {"time": 2422, "pitch": 70, "duration": 13, "velocity": 87}, {"time": 2428, "pitch": 53, "duration": 28, "velocity": 63}, {"time": 2434, "pitch": 58, "duration": 22, "velocity": 77}, {"time": 2440, "pitch": 60, "duration": 15, "velocity": 82}, {"time": 2440, "pitch": 65, "duration": 15, "velocity": 78}, {"time": 2470, "pitch": 42, "duration": 20, "velocity": 85}, {"time": 2470, "pitch": 58, "duration": 20, "velocity": 83}, {"time": 2470, "pitch": 61, "duration": 23, "velocity": 82}, {"time": 2470, "pitch": 66, "duration": 20, "velocity": 87}, {"time": 2476, "pitch": 49, "duration": 18, "velocity": 67}, {"time": 2482, "pitch": 54, "duration": 12, "velocity": 81}, {"time": 2494, "pitch": 44, "duration": 19, "velocity": 85}, {"time": 2494, "pitch": 60, "duration": 10, "velocity": 80}, {"time": 2494, "pitch": 63, "duration": 21, "velocity": 72}, {"time": 2494, "pitch": 68, "duration": 9, "velocity": 86}, {"time": 2500, "pitch": 51, "duration": 14, "velocity": 70}, {"time": 2506, "pitch": 56, "duration": 13, "velocity": 79}, {"time": 2506, "pitch": 60, "duration": 8, "velocity": 79}, {"time": 2506, "pitch": 68, "duration": 8, "velocity": 79}, {"time": 2518, "pitch": 49, "duration": 43, "velocity": 82}, {"time": 2518, "pitch": 61, "duration": 7, "velocity": 83}, {"time": 2518, "pitch": 65, "duration": 9, "velocity": 81}, {"time": 2518, "pitch": 68, "duration": 14, "velocity": 82}, {"time": 2524, "pitch": 56, "duration": 36, "velocity": 67}, {"time": 2530, "pitch": 61, "duration": 15, "velocity": 82}, {"time": 2536, "pitch": 63, "duration": 24, "velocity": 81}, {"time": 2542, "pitch": 65, "duration": 19, "velocity": 88}, {"time": 2542, "pitch": 68, "duration": 18, "velocity": 87}, {"time": 2566, "pitch": 49, "duration": 18, "velocity": 88}, {"time": 2566, "pitch": 61, "duration": 10, "velocity": 86}, {"time": 2566, "pitch": 65, "duration": 10, "velocity": 89}, {"time": 2566, "pitch": 68, "duration": 9, "velocity": 87}, {"time": 2578, "pitch": 61, "duration": 7, "velocity": 85}, {"time": 2578, "pitch": 65, "duration": 8, "velocity": 86}, {"time": 2578, "pitch": 68, "duration": 7, "velocity": 88}, {"time": 2590, "pitch": 44, "duration": 20, "velocity": 84}, {"time": 2590, "pitch": 56, "duration": 19, "velocity": 86}, {"time": 2590, "pitch": 60, "duration": 8, "velocity": 87}, {"time": 2590, "pitch": 63, "duration": 8, "velocity": 88}, {"time": 2590, "pitch": 68, "duration": 8, "velocity": 87}, {"time": 2602, "pitch": 60, "duration": 7, "velocity": 87}, {"time": 2602, "pitch": 63, "duration": 8, "velocity": 92}, {"time": 2602, "pitch": 68, "duration": 7, "velocity": 88}, {"time": 2614, "pitch": 41, "duration": 19, "velocity": 87}, {"time": 2614, "pitch": 60, "duration": 7, "velocity": 88}, {"time": 2614, "pitch": 65, "duration": 7, "velocity": 90}, {"time": 2614, "pitch": 68, "duration": 7, "velocity": 88}, {"time": 2620, "pitch": 53, "duration": 9, "velocity": 71}, {"time": 2626, "pitch": 60, "duration": 7, "velocity": 96}, {"time": 2626, "pitch": 65, "duration": 7, "velocity": 94}, {"time": 2626, "pitch": 68, "duration": 7, "velocity": 93}, {"time": 2632, "pitch": 53, "duration": 6, "velocity": 73}, {"time": 2638, "pitch": 46, "duration": 18, "velocity": 83}, {"time": 2638, "pitch": 61, "duration": 7, "velocity": 86}, {"time": 2638, "pitch": 65, "duration": 7, "velocity": 88}, {"time": 2638, "pitch": 70, "duration": 7, "velocity": 89}, {"time": 2644, "pitch": 53, "duration": 12, "velocity": 73}, {"time": 2650, "pitch": 58, "duration": 5, "velocity": 81}, {"time": 2650, "pitch": 61, "duration": 6, "velocity": 91}, {"time": 2650, "pitch": 65, "duration": 6, "velocity": 96}, {"time": 2650, "pitch": 70, "duration": 7, "velocity": 91}, {"time": 2662, "pitch": 51, "duration": 19, "velocity": 88}, {"time": 2662, "pitch": 63, "duration": 8, "velocity": 86}, {"time": 2662, "pitch": 66, "duration": 8, "velocity": 89}, {"time": 2662, "pitch": 70, "duration": 7, "velocity": 88}, {"time": 2668, "pitch": 58, "duration": 13, "velocity": 65}, {"time": 2674, "pitch": 63, "duration": 8, "velocity": 88}, {"time": 2674, "pitch": 66, "duration": 7, "velocity": 92}, {"time": 2674, "pitch": 70, "duration": 7, "velocity": 86}, {"time": 2686, "pitch": 44, "duration": 19, "velocity": 87}, {"time": 2686, "pitch": 60, "duration": 8, "velocity": 90}, {"time": 2686, "pitch": 63, "duration": 8, "velocity": 91}, {"time": 2686, "pitch": 68, "duration": 7, "velocity": 89}, {"time": 2692, "pitch": 51, "duration": 14, "velocity": 71}, {"time": 2698, "pitch": 56, "duration": 9, "velocity": 78}, {"time": 2698, "pitch": 60, "duration": 7, "velocity": 91}, {"time": 2698, "pitch": 63, "duration": 8, "velocity": 102}, {"time": 2698, "pitch": 68, "duration": 7, "velocity": 93}, {"time": 2710, "pitch": 49, "duration": 41, "velocity": 83}, {"time": 2710, "pitch": 61, "duration": 9, "velocity": 88}, {"time": 2710, "pitch": 65, "duration": 13, "velocity": 92}, {"time": 2710, "pitch": 68, "duration": 13, "velocity": 91}, {"time": 2716, "pitch": 56, "duration": 33, "velocity": 71}, {"time": 2722, "pitch": 61, "duration": 15, "velocity": 85}, {"time": 2728, "pitch": 66, "duration": 5, "velocity": 92}, {"time": 2734, "pitch": 65, "duration": 10, "velocity": 100}, {"time": 2734, "pitch": 68, "duration": 10, "velocity": 91}, {"time": 2746, "pitch": 65, "duration": 6, "velocity": 40}, {"time": 2746, "pitch": 68, "duration": 6, "velocity": 62}, {"time": 2758, "pitch": 42, "duration": 19, "velocity": 87}, {"time": 2758, "pitch": 61, "duration": 7, "velocity": 87}, {"time": 2758, "pitch": 66, "duration": 7, "velocity": 88}, {"time": 2758, "pitch": 70, "duration": 6, "velocity": 87}, {"time": 2764, "pitch": 54, "duration": 13, "velocity": 80}, {"time": 2770, "pitch": 61, "duration": 7, "velocity": 93}, {"time": 2770, "pitch": 66, "duration": 6, "velocity": 100}, {"time": 2770, "pitch": 70, "duration": 6, "velocity": 92}, {"time": 2782, "pitch": 44, "duration": 19, "velocity": 84}, {"time": 2782, "pitch": 60, "duration": 8, "velocity": 85}, {"time": 2782, "pitch": 63, "duration": 8, "velocity": 92}, {"time": 2782, "pitch": 68, "duration": 7, "velocity": 87}, {"time": 2788, "pitch": 51, "duration": 12, "velocity": 67}, {"time": 2794, "pitch": 56, "duration": 6, "velocity": 79}, {"time": 2794, "pitch": 60, "duration": 8, "velocity": 87}, {"time": 2794, "pitch": 63, "duration": 8, "velocity": 93}, {"time": 2794, "pitch": 68, "duration": 8, "velocity": 89}, {"time": 2806, "pitch": 41, "duration": 18, "velocity": 88}, {"time": 2806, "pitch": 60, "duration": 7, "velocity": 88}, {"time": 2806, "pitch": 65, "duration": 7, "velocity": 90}, {"time": 2806, "pitch": 68, "duration": 7, "velocity": 87}, {"time": 2812, "pitch": 53, "duration": 11, "velocity": 80}, {"time": 2818, "pitch": 60, "duration": 7, "velocity": 91}, {"time": 2818, "pitch": 65, "duration": 10, "velocity": 94}, {"time": 2818, "pitch": 68, "duration": 8, "velocity": 91}, {"time": 2824, "pitch": 53, "duration": 7, "velocity": 84}, {"time": 2830, "pitch": 46, "duration": 45, "velocity": 83}, {"time": 2830, "pitch": 58, "duration": 44, "velocity": 78}, {"time": 2830, "pitch": 62, "duration": 44, "velocity": 87}, {"time": 2830, "pitch": 65, "duration": 44, "velocity": 90}, {"time": 2830, "pitch": 70, "duration": 34, "velocity": 90}, {"time": 2854, "pitch": 51, "duration": 24, "velocity": 89}, {"time": 2854, "pitch": 63, "duration": 11, "velocity": 88}, {"time": 2854, "pitch": 66, "duration": 10, "velocity": 90}, {"time": 2854, "pitch": 70, "duration": 10, "velocity": 91}, {"time": 2866, "pitch": 63, "duration": 9, "velocity": 89}, {"time": 2866, "pitch": 66, "duration": 7, "velocity": 98}, {"time": 2866, "pitch": 70, "duration": 7, "velocity": 90}, {"time": 2878, "pitch": 44, "duration": 20, "velocity": 80}, {"time": 2878, "pitch": 56, "duration": 22, "velocity": 80}, {"time": 2878, "pitch": 60, "duration": 9, "velocity": 87}, {"time": 2878, "pitch": 63, "duration": 8, "velocity": 96}, {"time": 2878, "pitch": 68, "duration": 8, "velocity": 93}, {"time": 2890, "pitch": 60, "duration": 9, "velocity": 89}, {"time": 2890, "pitch": 63, "duration": 9, "velocity": 102}, {"time": 2890, "pitch": 68, "duration": 8, "velocity": 91}, {"time": 2902, "pitch": 44, "duration": 20, "velocity": 88}, {"time": 2902, "pitch": 60, "duration": 9, "velocity": 88}, {"time": 2902, "pitch": 63, "duration": 9, "velocity": 91}, {"time": 2902, "pitch": 68, "duration": 8, "velocity": 89}, {"time": 2908, "pitch": 51, "duration": 19, "velocity": 70}, {"time": 2914, "pitch": 60, "duration": 10, "velocity": 90}, {"time": 2914, "pitch": 63, "duration": 11, "velocity": 96}, {"time": 2914, "pitch": 68, "duration": 9, "velocity": 91}, {"time": 2920, "pitch": 56, "duration": 7, "velocity": 81}, {"time": 2926, "pitch": 44, "duration": 18, "velocity": 84}, {"time": 2926, "pitch": 60, "duration": 9, "velocity": 88}, {"time": 2926, "pitch": 63, "duration": 10, "velocity": 89}, {"time": 2926, "pitch": 68, "duration": 9, "velocity": 89}, {"time": 2932, "pitch": 51, "duration": 13, "velocity": 73}, {"time": 2935, "pitch": 56, "duration": 6, "velocity": 92}, {"time": 2938, "pitch": 60, "duration": 7, "velocity": 104}, {"time": 2938, "pitch": 63, "duration": 10, "velocity": 113}, {"time": 2938, "pitch": 68, "duration": 8, "velocity": 98}, {"time": 2944, "pitch": 56, "duration": 5, "velocity": 84}, {"time": 2950, "pitch": 49, "duration": 18, "velocity": 86}, {"time": 2950, "pitch": 61, "duration": 7, "velocity": 94}, {"time": 2950, "pitch": 65, "duration": 8, "velocity": 104}, {"time": 2950, "pitch": 68, "duration": 7, "velocity": 91}, {"time": 2956, "pitch": 56, "duration": 7, "velocity": 77}, {"time": 2962, "pitch": 61, "duration": 8, "velocity": 94}, {"time": 2962, "pitch": 65, "duration": 7, "velocity": 93}, {"time": 2962, "pitch": 68, "duration": 7, "velocity": 91}, {"time": 2968, "pitch": 56, "duration": 6, "velocity": 85}, {"time": 2974, "pitch": 48, "duration": 14, "velocity": 84}, {"time": 2974, "pitch": 60, "duration": 7, "velocity": 89}, {"time": 2974, "pitch": 63, "duration": 7, "velocity": 93}, {"time": 2974, "pitch": 68, "duration": 7, "velocity": 87}, {"time": 2980, "pitch": 56, "duration": 8, "velocity": 81}, {"time": 2986, "pitch": 60, "duration": 6, "velocity": 96}, {"time": 2986, "pitch": 63, "duration": 10, "velocity": 110}, {"time": 2986, "pitch": 68, "duration": 7, "velocity": 100}, {"time": 2992, "pitch": 48, "duration": 6, "velocity": 81}, {"time": 2998, "pitch": 46, "duration": 19, "velocity": 86}, {"time": 2998, "pitch": 61, "duration": 8, "velocity": 89}, {"time": 2998, "pitch": 65, "duration": 8, "velocity": 91}, {"time": 2998, "pitch": 70, "duration": 8, "velocity": 100}, {"time": 3004, "pitch": 53, "duration": 6, "velocity": 71}, {"time": 3010, "pitch": 58, "duration": 6, "velocity": 80}, {"time": 3010, "pitch": 61, "duration": 7, "velocity": 93}, {"time": 3010, "pitch": 65, "duration": 9, "velocity": 94}, {"time": 3010, "pitch": 70, "duration": 7, "velocity": 92}, {"time": 3016, "pitch": 53, "duration": 7, "velocity": 81}, {"time": 3022, "pitch": 44, "duration": 15, "velocity": 86}, {"time": 3022, "pitch": 60, "duration": 8, "velocity": 88}, {"time": 3022, "pitch": 63, "duration": 8, "velocity": 100}, {"time": 3022, "pitch": 68, "duration": 6, "velocity": 91}, {"time": 3028, "pitch": 53, "duration": 8, "velocity": 74}, {"time": 3034, "pitch": 60, "duration": 7, "velocity": 93}, {"time": 3034, "pitch": 63, "duration": 9, "velocity": 108}, {"time": 3034, "pitch": 68, "duration": 9, "velocity": 100}, {"time": 3040, "pitch": 44, "duration": 6, "velocity": 84}, {"time": 3046, "pitch": 42, "duration": 19, "velocity": 89}, {"time": 3046, "pitch": 61, "duration": 8, "velocity": 100}, {"time": 3046, "pitch": 66, "duration": 8, "velocity": 107}, {"time": 3046, "pitch": 70, "duration": 7, "velocity": 94}, {"time": 3052, "pitch": 49, "duration": 6, "velocity": 72}, {"time": 3058, "pitch": 54, "duration": 6, "velocity": 83}, {"time": 3058, "pitch": 61, "duration": 7, "velocity": 100}, {"time": 3058, "pitch": 66, "duration": 6, "velocity": 107}, {"time": 3058, "pitch": 70, "duration": 6, "velocity": 96}, {"time": 3064, "pitch": 49, "duration": 5, "velocity": 85}, {"time": 3070, "pitch": 41, "duration": 18, "velocity": 87}, {"time": 3070, "pitch": 60, "duration": 7, "velocity": 94}, {"time": 3070, "pitch": 65, "duration": 7, "velocity": 94}, {"time": 3070, "pitch": 68, "duration": 7, "velocity": 91}, {"time": 3076, "pitch": 48, "duration": 13, "velocity": 71}, {"time": 3082, "pitch": 60, "duration": 6, "velocity": 96}, {"time": 3082, "pitch": 65, "duration": 7, "velocity": 107}, {"time": 3082, "pitch": 68, "duration": 7, "velocity": 102}, {"time": 3088, "pitch": 53, "duration": 5, "velocity": 87}, {"time": 3094, "pitch": 51, "duration": 14, "velocity": 88}, {"time": 3094, "pitch": 63, "duration": 8, "velocity": 100}, {"time": 3094, "pitch": 66, "duration": 8, "velocity": 104}, {"time": 3094, "pitch": 70, "duration": 7, "velocity": 100}, {"time": 3100, "pitch": 58, "duration": 9, "velocity": 78}, {"time": 3106, "pitch": 63, "duration": 10, "velocity": 100}, {"time": 3106, "pitch": 66, "duration": 7, "velocity": 108}, {"time": 3106, "pitch": 70, "duration": 7, "velocity": 94}, {"time": 3112, "pitch": 51, "duration": 2, "velocity": 88}, {"time": 3118, "pitch": 44, "duration": 18, "velocity": 96}, {"time": 3118, "pitch": 60, "duration": 10, "velocity": 100}, {"time": 3118, "pitch": 63, "duration": 10, "velocity": 110}, {"time": 3118, "pitch": 68, "duration": 9, "velocity": 102}, {"time": 3124, "pitch": 51, "duration": 13, "velocity": 79}, {"time": 3127, "pitch": 56, "duration": 14, "velocity": 104}, {"time": 3130, "pitch": 58, "duration": 3, "velocity": 102}, {"time": 3133, "pitch": 60, "duration": 2, "velocity": 96}, {"time": 3136, "pitch": 61, "duration": 2, "velocity": 96}, {"time": 3139, "pitch": 63, "duration": 2, "velocity": 94}, {"time": 3142, "pitch": 49, "duration": 19, "velocity": 98}, {"time": 3142, "pitch": 61, "duration": 5, "velocity": 107}, {"time": 3142, "pitch": 65, "duration": 5, "velocity": 107}, {"time": 3148, "pitch": 56, "duration": 7, "velocity": 77}, {"time": 3154, "pitch": 61, "duration": 6, "velocity": 86}, {"time": 3154, "pitch": 65, "duration": 6, "velocity": 98}, {"time": 3154, "pitch": 68, "duration": 6, "velocity": 110}, {"time": 3154, "pitch": 73, "duration": 6, "velocity": 94}, {"time": 3160, "pitch": 56, "duration": 7, "velocity": 77}, {"time": 3166, "pitch": 48, "duration": 22, "velocity": 85}, {"time": 3166, "pitch": 63, "duration": 8, "velocity": 104}, {"time": 3166, "pitch": 68, "duration": 8, "velocity": 113}, {"time": 3166, "pitch": 72, "duration": 7, "velocity": 100}, {"time": 3172, "pitch": 56, "duration": 7, "velocity": 80}, {"time": 3178, "pitch": 60, "duration": 6, "velocity": 86}, {"time": 3178, "pitch": 63, "duration": 7, "velocity": 107}, {"time": 3178, "pitch": 68, "duration": 9, "velocity": 108}, {"time": 3178, "pitch": 72, "duration": 8, "velocity": 94}, {"time": 3190, "pitch": 46, "duration": 19, "velocity": 88}, {"time": 3190, "pitch": 61, "duration": 8, "velocity": 98}, {"time": 3190, "pitch": 65, "duration": 9, "velocity": 108}, {"time": 3190, "pitch": 70, "duration": 7, "velocity": 100}, {"time": 3196, "pitch": 53, "duration": 6, "velocity": 81}, {"time": 3202, "pitch": 58, "duration": 6, "velocity": 83}, {"time": 3202, "pitch": 61, "duration": 6, "velocity": 98}, {"time": 3202, "pitch": 65, "duration": 7, "velocity": 108}, {"time": 3202, "pitch": 70, "duration": 7, "velocity": 104}, {"time": 3208, "pitch": 53, "duration": 6, "velocity": 87}, {"time": 3214, "pitch": 44, "duration": 20, "velocity": 86}, {"time": 3214, "pitch": 60, "duration": 8, "velocity": 91}, {"time": 3214, "pitch": 63, "duration": 8, "velocity": 104}, {"time": 3214, "pitch": 68, "duration": 7, "velocity": 96}, {"time": 3220, "pitch": 53, "duration": 6, "velocity": 84}, {"time": 3226, "pitch": 56, "duration": 7, "velocity": 86}, {"time": 3226, "pitch": 60, "duration": 6, "velocity": 100}, {"time": 3226, "pitch": 63, "duration": 8, "velocity": 113}, {"time": 3226, "pitch": 68, "duration": 8, "velocity": 100}, {"time": 3232, "pitch": 53, "duration": 1, "velocity": 88}, {"time": 3238, "pitch": 42, "duration": 19, "velocity": 93}, {"time": 3238, "pitch": 61, "duration": 8, "velocity": 91}, {"time": 3238, "pitch": 66, "duration": 8, "velocity": 102}, {"time": 3238, "pitch": 70, "duration": 7, "velocity": 94}, {"time": 3244, "pitch": 49, "duration": 6, "velocity": 81}, {"time": 3250, "pitch": 54, "duration": 8, "velocity": 85}, {"time": 3250, "pitch": 61, "duration": 8, "velocity": 100}, {"time": 3250, "pitch": 66, "duration": 8, "velocity": 104}, {"time": 3250, "pitch": 70, "duration": 8, "velocity": 93}, {"time": 3256, "pitch": 49, "duration": 3, "velocity": 85}, {"time": 3262, "pitch": 44, "duration": 19, "velocity": 94}, {"time": 3262, "pitch": 60, "duration": 8, "velocity": 96}, {"time": 3262, "pitch": 63, "duration": 7, "velocity": 113}, {"time": 3262, "pitch": 68, "duration": 7, "velocity": 98}, {"time": 3268, "pitch": 51, "duration": 6, "velocity": 85}, {"time": 3274, "pitch": 56, "duration": 10, "velocity": 87}, {"time": 3274, "pitch": 60, "duration": 7, "velocity": 102}, {"time": 3274, "pitch": 63, "duration": 9, "velocity": 110}, {"time": 3274, "pitch": 68, "duration": 7, "velocity": 102}, {"time": 3280, "pitch": 51, "duration": 2, "velocity": 82}, {"time": 3286, "pitch": 51, "duration": 12, "velocity": 88}, {"time": 3286, "pitch": 63, "duration": 10, "velocity": 100}, {"time": 3286, "pitch": 66, "duration": 9, "velocity": 108}, {"time": 3286, "pitch": 70, "duration": 8, "velocity": 100}, {"time": 3298, "pitch": 44, "duration": 8, "velocity": 86}, {"time": 3298, "pitch": 56, "duration": 10, "velocity": 87}, {"time": 3298, "pitch": 60, "duration": 8, "velocity": 100}, {"time": 3298, "pitch": 63, "duration": 10, "velocity": 104}, {"time": 3298, "pitch": 68, "duration": 8, "velocity": 102}, {"time": 3310, "pitch": 49, "duration": 19, "velocity": 80}, {"time": 3310, "pitch": 61, "duration": 8, "velocity": 88}, {"time": 3310, "pitch": 65, "duration": 8, "velocity": 98}, {"time": 3310, "pitch": 68, "duration": 7, "velocity": 91}, {"time": 3316, "pitch": 56, "duration": 8, "velocity": 77}, {"time": 3322, "pitch": 61, "duration": 9, "velocity": 89}, {"time": 3322, "pitch": 65, "duration": 9, "velocity": 91}, {"time": 3322, "pitch": 68, "duration": 7, "velocity": 89}, {"time": 3328, "pitch": 56, "duration": 7, "velocity": 78}, {"time": 3334, "pitch": 49, "duration": 18, "velocity": 86}, {"time": 3334, "pitch": 61, "duration": 7, "velocity": 94}, {"time": 3334, "pitch": 65, "duration": 8, "velocity": 104}, {"time": 3334, "pitch": 68, "duration": 7, "velocity": 91}, {"time": 3340, "pitch": 56, "duration": 7, "velocity": 77}, {"time": 3346, "pitch": 61, "duration": 8, "velocity": 94}, {"time": 3346, "pitch": 65, "duration": 7, "velocity": 93}, {"time": 3346, "pitch": 68, "duration": 7, "velocity": 91}, {"time": 3352, "pitch": 56, "duration": 6, "velocity": 85}, {"time": 3358, "pitch": 48, "duration": 14, "velocity": 84}, {"time": 3358, "pitch": 60, "duration": 7, "velocity": 89}, {"time": 3358, "pitch": 63, "duration": 7, "velocity": 93}, {"time": 3358, "pitch": 68, "duration": 7, "velocity": 87}, {"time": 3364, "pitch": 56, "duration": 8, "velocity": 81}, {"time": 3370, "pitch": 60, "duration": 6, "velocity": 96}, {"time": 3370, "pitch": 63, "duration": 10, "velocity": 110}, {"time": 3370, "pitch": 68, "duration": 7, "velocity": 100}, {"time": 3376, "pitch": 48, "duration": 6, "velocity": 81}, {"time": 3382, "pitch": 46, "duration": 19, "velocity": 86}, {"time": 3382, "pitch": 61, "duration": 8, "velocity": 89}, {"time": 3382, "pitch": 65, "duration": 8, "velocity": 91}, {"time": 3382, "pitch": 70, "duration": 8, "velocity": 100}, {"time": 3388, "pitch": 53, "duration": 6, "velocity": 71}, {"time": 3394, "pitch": 58, "duration": 6, "velocity": 80}, {"time": 3394, "pitch": 61, "duration": 7, "velocity": 93}, {"time": 3394, "pitch": 65, "duration": 9, "velocity": 94}, {"time": 3394, "pitch": 70, "duration": 7, "velocity": 92}, {"time": 3400, "pitch": 53, "duration": 7, "velocity": 81}, {"time": 3406, "pitch": 44, "duration": 15, "velocity": 86}, {"time": 3406, "pitch": 60, "duration": 8, "velocity": 88}, {"time": 3406, "pitch": 63, "duration": 8, "velocity": 100}, {"time": 3406, "pitch": 68, "duration": 6, "velocity": 91}, {"time": 3412, "pitch": 53, "duration": 8, "velocity": 74}, {"time": 3418, "pitch": 60, "duration": 7, "velocity": 93}, {"time": 3418, "pitch": 63, "duration": 9, "velocity": 108}, {"time": 3418, "pitch": 68, "duration": 9, "velocity": 100}, {"time": 3424, "pitch": 44, "duration": 6, "velocity": 84}, {"time": 3430, "pitch": 42, "duration": 19, "velocity": 89}, {"time": 3430, "pitch": 61, "duration": 8, "velocity": 100}, {"time": 3430, "pitch": 66, "duration": 8, "velocity": 107}, {"time": 3430, "pitch": 70, "duration": 7, "velocity": 94}, {"time": 3436, "pitch": 49, "duration": 6, "velocity": 72}, {"time": 3442, "pitch": 54, "duration": 6, "velocity": 83}, {"time": 3442, "pitch": 61, "duration": 7, "velocity": 100}, {"time": 3442, "pitch": 66, "duration": 6, "velocity": 107}, {"time": 3442, "pitch": 70, "duration": 6, "velocity": 96}, {"time": 3448, "pitch": 49, "duration": 5, "velocity": 85}, {"time": 3454, "pitch": 41, "duration": 18, "velocity": 87}, {"time": 3454, "pitch": 60, "duration": 7, "velocity": 94}, {"time": 3454, "pitch": 65, "duration": 7, "velocity": 94}, {"time": 3454, "pitch": 68, "duration": 7, "velocity": 91}, {"time": 3460, "pitch": 48, "duration": 13, "velocity": 71}, {"time": 3466, "pitch": 60, "duration": 6, "velocity": 96}, {"time": 3466, "pitch": 65, "duration": 7, "velocity": 107}, {"time": 3466, "pitch": 68, "duration": 7, "velocity": 102}, {"time": 3472, "pitch": 53, "duration": 5, "velocity": 87}, {"time": 3478, "pitch": 51, "duration": 14, "velocity": 88}, {"time": 3478, "pitch": 63, "duration": 8, "velocity": 100}, {"time": 3478, "pitch": 66, "duration": 8, "velocity": 104}, {"time": 3478, "pitch": 70, "duration": 7, "velocity": 100}, {"time": 3484, "pitch": 58, "duration": 9, "velocity": 78}, {"time": 3490, "pitch": 63, "duration": 10, "velocity": 100}, {"time": 3490, "pitch": 66, "duration": 7, "velocity": 108}, {"time": 3490, "pitch": 70, "duration": 7, "velocity": 94}, {"time": 3496, "pitch": 51, "duration": 2, "velocity": 88}, {"time": 3502, "pitch": 44, "duration": 18, "velocity": 96}, {"time": 3502, "pitch": 60, "duration": 10, "velocity": 100}, {"time": 3502, "pitch": 63, "duration": 10, "velocity": 110}, {"time": 3502, "pitch": 68, "duration": 9, "velocity": 102}, {"time": 3508, "pitch": 51, "duration": 13, "velocity": 79}, {"time": 3511, "pitch": 56, "duration": 14, "velocity": 104}, {"time": 3514, "pitch": 58, "duration": 3, "velocity": 102}, {"time": 3517, "pitch": 60, "duration": 2, "velocity": 96}, {"time": 3520, "pitch": 61, "duration": 2, "velocity": 96}, {"time": 3523, "pitch": 63, "duration": 2, "velocity": 94}, {"time": 3526, "pitch": 49, "duration": 19, "velocity": 98}, {"time": 3526, "pitch": 61, "duration": 5, "velocity": 107}, {"time": 3526, "pitch": 65, "duration": 5, "velocity": 107}, {"time": 3532, "pitch": 56, "duration": 7, "velocity": 77}, {"time": 3538, "pitch": 61, "duration": 6, "velocity": 86}, {"time": 3538, "pitch": 65, "duration": 6, "velocity": 98}, {"time": 3538, "pitch": 68, "duration": 6, "velocity": 110}, {"time": 3538, "pitch": 73, "duration": 6, "velocity": 94}, {"time": 3544, "pitch": 56, "duration": 7, "velocity": 77}, {"time": 3550, "pitch": 48, "duration": 22, "velocity": 85}, {"time": 3550, "pitch": 63, "duration": 8, "velocity": 104}, {"time": 3550, "pitch": 68, "duration": 8, "velocity": 113}, {"time": 3550, "pitch": 72, "duration": 7, "velocity": 100}, {"time": 3556, "pitch": 56, "duration": 7, "velocity": 80}, {"time": 3562, "pitch": 60, "duration": 6, "velocity": 86}, {"time": 3562, "pitch": 63, "duration": 7, "velocity": 107}, {"time": 3562, "pitch": 68, "duration": 9, "velocity": 108}, {"time": 3562, "pitch": 72, "duration": 8, "velocity": 94}, {"time": 3574, "pitch": 46, "duration": 19, "velocity": 88}, {"time": 3574, "pitch": 61, "duration": 8, "velocity": 98}, {"time": 3574, "pitch": 65, "duration": 9, "velocity": 108}, {"time": 3574, "pitch": 70, "duration": 7, "velocity": 100}, {"time": 3580, "pitch": 53, "duration": 6, "velocity": 81}, {"time": 3586, "pitch": 58, "duration": 6, "velocity": 83}, {"time": 3586, "pitch": 61, "duration": 6, "velocity": 98}, {"time": 3586, "pitch": 65, "duration": 7, "velocity": 108}, {"time": 3586, "pitch": 70, "duration": 7, "velocity": 104}, {"time": 3592, "pitch": 53, "duration": 6, "velocity": 87}, {"time": 3598, "pitch": 44, "duration": 20, "velocity": 86}, {"time": 3598, "pitch": 60, "duration": 8, "velocity": 91}, {"time": 3598, "pitch": 63, "duration": 8, "velocity": 104}, {"time": 3598, "pitch": 68, "duration": 7, "velocity": 96}, {"time": 3604, "pitch": 53, "duration": 6, "velocity": 84}, {"time": 3610, "pitch": 56, "duration": 7, "velocity": 86}, {"time": 3610, "pitch": 60, "duration": 6, "velocity": 100}, {"time": 3610, "pitch": 63, "duration": 8, "velocity": 113}, {"time": 3610, "pitch": 68, "duration": 8, "velocity": 100}, {"time": 3616, "pitch": 53, "duration": 1, "velocity": 88}, {"time": 3622, "pitch": 42, "duration": 19, "velocity": 93}, {"time": 3622, "pitch": 61, "duration": 8, "velocity": 91}, {"time": 3622, "pitch": 66, "duration": 8, "velocity": 102}, {"time": 3622, "pitch": 70, "duration": 7, "velocity": 94}, {"time": 3628, "pitch": 49, "duration": 6, "velocity": 81}, {"time": 3634, "pitch": 54, "duration": 8, "velocity": 85}, {"time": 3634, "pitch": 61, "duration": 8, "velocity": 100}, {"time": 3634, "pitch": 66, "duration": 8, "velocity": 104}, {"time": 3634, "pitch": 70, "duration": 8, "velocity": 93}, {"time": 3640, "pitch": 49, "duration": 3, "velocity": 85}, {"time": 3646, "pitch": 44, "duration": 19, "velocity": 94}, {"time": 3646, "pitch": 60, "duration": 8, "velocity": 96}, {"time": 3646, "pitch": 63, "duration": 7, "velocity": 113}, {"time": 3646, "pitch": 68, "duration": 7, "velocity": 98}, {"time": 3652, "pitch": 51, "duration": 6, "velocity": 85}, {"time": 3658, "pitch": 56, "duration": 10, "velocity": 87}, {"time": 3658, "pitch": 60, "duration": 7, "velocity": 102}, {"time": 3658, "pitch": 63, "duration": 9, "velocity": 110}, {"time": 3658, "pitch": 68, "duration": 7, "velocity": 102}, {"time": 3664, "pitch": 51, "duration": 2, "velocity": 82}, {"time": 3670, "pitch": 51, "duration": 12, "velocity": 88}, {"time": 3670, "pitch": 63, "duration": 10, "velocity": 100}, {"time": 3670, "pitch": 66, "duration": 9, "velocity": 108}, {"time": 3670, "pitch": 70, "duration": 8, "velocity": 100}, {"time": 3682, "pitch": 44, "duration": 8, "velocity": 86}, {"time": 3682, "pitch": 56, "duration": 10, "velocity": 87}, {"time": 3682, "pitch": 60, "duration": 8, "velocity": 100}, {"time": 3682, "pitch": 63, "duration": 10, "velocity": 104}, {"time": 3682, "pitch": 68, "duration": 8, "velocity": 102}, {"time": 3694, "pitch": 49, "duration": 19, "velocity": 80}, {"time": 3694, "pitch": 61, "duration": 8, "velocity": 88}, {"time": 3694, "pitch": 65, "duration": 8, "velocity": 98}, {"time": 3694, "pitch": 68, "duration": 7, "velocity": 91}, {"time": 3700, "pitch": 56, "duration": 8, "velocity": 77}, {"time": 3706, "pitch": 61, "duration": 9, "velocity": 89}, {"time": 3706, "pitch": 65, "duration": 9, "velocity": 91}, {"time": 3706, "pitch": 68, "duration": 7, "velocity": 89}, {"time": 3712, "pitch": 56, "duration": 7, "velocity": 78}, {"time": 3718, "pitch": 49, "duration": 18, "velocity": 86}, {"time": 3718, "pitch": 61, "duration": 7, "velocity": 94}, {"time": 3718, "pitch": 65, "duration": 8, "velocity": 104}, {"time": 3718, "pitch": 68, "duration": 7, "velocity": 91}, {"time": 3724, "pitch": 56, "duration": 7, "velocity": 77}, {"time": 3730, "pitch": 61, "duration": 8, "velocity": 94}, {"time": 3730, "pitch": 65, "duration": 7, "velocity": 93}, {"time": 3730, "pitch": 68, "duration": 7, "velocity": 91}, {"time": 3736, "pitch": 56, "duration": 6, "velocity": 85}, {"time": 3742, "pitch": 48, "duration": 14, "velocity": 84}, {"time": 3742, "pitch": 60, "duration": 7, "velocity": 89}, {"time": 3742, "pitch": 63, "duration": 7, "velocity": 93}, {"time": 3742, "pitch": 68, "duration": 7, "velocity": 87}, {"time": 3748, "pitch": 56, "duration": 8, "velocity": 81}, {"time": 3754, "pitch": 60, "duration": 6, "velocity": 96}, {"time": 3754, "pitch": 63, "duration": 10, "velocity": 110}, {"time": 3754, "pitch": 68, "duration": 7, "velocity": 100}, {"time": 3760, "pitch": 48, "duration": 6, "velocity": 81}, {"time": 3766, "pitch": 46, "duration": 19, "velocity": 86}, {"time": 3766, "pitch": 61, "duration": 8, "velocity": 89}, {"time": 3766, "pitch": 65, "duration": 8, "velocity": 91}, {"time": 3766, "pitch": 70, "duration": 8, "velocity": 100}, {"time": 3772, "pitch": 53, "duration": 6, "velocity": 71}, {"time": 3778, "pitch": 58, "duration": 6, "velocity": 80}, {"time": 3778, "pitch": 61, "duration": 7, "velocity": 93}, {"time": 3778, "pitch": 65, "duration": 9, "velocity": 94}, {"time": 3778, "pitch": 70, "duration": 7, "velocity": 92}, {"time": 3784, "pitch": 53, "duration": 7, "velocity": 81}, {"time": 3790, "pitch": 44, "duration": 15, "velocity": 86}, {"time": 3790, "pitch": 60, "duration": 8, "velocity": 88}, {"time": 3790, "pitch": 63, "duration": 8, "velocity": 100}, {"time": 3790, "pitch": 68, "duration": 6, "velocity": 91}, {"time": 3796, "pitch": 53, "duration": 8, "velocity": 74}, {"time": 3802, "pitch": 60, "duration": 7, "velocity": 93}, {"time": 3802, "pitch": 63, "duration": 9, "velocity": 108}, {"time": 3802, "pitch": 68, "duration": 9, "velocity": 100}, {"time": 3808, "pitch": 44, "duration": 6, "velocity": 84}, {"time": 3814, "pitch": 42, "duration": 19, "velocity": 89}, {"time": 3814, "pitch": 61, "duration": 8, "velocity": 100}, {"time": 3814, "pitch": 66, "duration": 8, "velocity": 107}, {"time": 3814, "pitch": 70, "duration": 7, "velocity": 94}, {"time": 3820, "pitch": 49, "duration": 6, "velocity": 72}, {"time": 3826, "pitch": 54, "duration": 6, "velocity": 83}, {"time": 3826, "pitch": 61, "duration": 7, "velocity": 100}, {"time": 3826, "pitch": 66, "duration": 6, "velocity": 107}, {"time": 3826, "pitch": 70, "duration": 6, "velocity": 96}, {"time": 3832, "pitch": 49, "duration": 5, "velocity": 85}, {"time": 3838, "pitch": 41, "duration": 18, "velocity": 87}, {"time": 3838, "pitch": 60, "duration": 7, "velocity": 94}, {"time": 3838, "pitch": 65, "duration": 7, "velocity": 94}, {"time": 3838, "pitch": 68, "duration": 7, "velocity": 91}, {"time": 3844, "pitch": 48, "duration": 13, "velocity": 71}, {"time": 3850, "pitch": 60, "duration": 6, "velocity": 96}, {"time": 3850, "pitch": 65, "duration": 7, "velocity": 107}, {"time": 3850, "pitch": 68, "duration": 7, "velocity": 102}, {"time": 3856, "pitch": 53, "duration": 5, "velocity": 87}, {"time": 3862, "pitch": 51, "duration": 14, "velocity": 88}, {"time": 3862, "pitch": 63, "duration": 8, "velocity": 100}, {"time": 3862, "pitch": 66, "duration": 8, "velocity": 104}, {"time": 3862, "pitch": 70, "duration": 7, "velocity": 100}, {"time": 3868, "pitch": 58, "duration": 9, "velocity": 78}, {"time": 3874, "pitch": 63, "duration": 10, "velocity": 100}, {"time": 3874, "pitch": 66, "duration": 7, "velocity": 108}, {"time": 3874, "pitch": 70, "duration": 7, "velocity": 94}, {"time": 3880, "pitch": 51, "duration": 2, "velocity": 88}, {"time": 3886, "pitch": 44, "duration": 18, "velocity": 96}, {"time": 3886, "pitch": 60, "duration": 10, "velocity": 100}, {"time": 3886, "pitch": 63, "duration": 10, "velocity": 110}, {"time": 3886, "pitch": 68, "duration": 9, "velocity": 102}, {"time": 3892, "pitch": 51, "duration": 13, "velocity": 79}, {"time": 3895, "pitch": 56, "duration": 14, "velocity": 104}, {"time": 3898, "pitch": 58, "duration": 3, "velocity": 102}, {"time": 3901, "pitch": 60, "duration": 2, "velocity": 96}, {"time": 3904, "pitch": 61, "duration": 2, "velocity": 96}, {"time": 3907, "pitch": 63, "duration": 2, "velocity": 94}, {"time": 3910, "pitch": 49, "duration": 19, "velocity": 98}, {"time": 3910, "pitch": 61, "duration": 5, "velocity": 107}, {"time": 3910, "pitch": 65, "duration": 5, "velocity": 107}, {"time": 3916, "pitch": 56, "duration": 7, "velocity": 77}, {"time": 3922, "pitch": 61, "duration": 6, "velocity": 86}, {"time": 3922, "pitch": 65, "duration": 6, "velocity": 98}, {"time": 3922, "pitch": 68, "duration": 6, "velocity": 110}, {"time": 3922, "pitch": 73, "duration": 6, "velocity": 94}, {"time": 3928, "pitch": 56, "duration": 7, "velocity": 77}, {"time": 3934, "pitch": 48, "duration": 22, "velocity": 85}, {"time": 3934, "pitch": 63, "duration": 8, "velocity": 104}, {"time": 3934, "pitch": 68, "duration": 8, "velocity": 113}, {"time": 3934, "pitch": 72, "duration": 7, "velocity": 100}, {"time": 3940, "pitch": 56, "duration": 7, "velocity": 80}, {"time": 3946, "pitch": 60, "duration": 6, "velocity": 86}, {"time": 3946, "pitch": 63, "duration": 7, "velocity": 107}, {"time": 3946, "pitch": 68, "duration": 9, "velocity": 108}, {"time": 3946, "pitch": 72, "duration": 8, "velocity": 94}, {"time": 3958, "pitch": 46, "duration": 19, "velocity": 88}, {"time": 3958, "pitch": 61, "duration": 8, "velocity": 98}, {"time": 3958, "pitch": 65, "duration": 9, "velocity": 108}, {"time": 3958, "pitch": 70, "duration": 7, "velocity": 100}, {"time": 3964, "pitch": 53, "duration": 6, "velocity": 81}, {"time": 3970, "pitch": 58, "duration": 6, "velocity": 83}, {"time": 3970, "pitch": 61, "duration": 6, "velocity": 98}, {"time": 3970, "pitch": 65, "duration": 7, "velocity": 108}, {"time": 3970, "pitch": 70, "duration": 7, "velocity": 104}, {"time": 3976, "pitch": 53, "duration": 6, "velocity": 87}, {"time": 3982, "pitch": 44, "duration": 20, "velocity": 86}, {"time": 3982, "pitch": 60, "duration": 8, "velocity": 91}, {"time": 3982, "pitch": 63, "duration": 8, "velocity": 104}, {"time": 3982, "pitch": 68, "duration": 7, "velocity": 96}, {"time": 3988, "pitch": 53, "duration": 6, "velocity": 84}, {"time": 3994, "pitch": 56, "duration": 7, "velocity": 86}, {"time": 3994, "pitch": 60, "duration": 6, "velocity": 100}, {"time": 3994, "pitch": 63, "duration": 8, "velocity": 113}, {"time": 3994, "pitch": 68, "duration": 8, "velocity": 100}, {"time": 4000, "pitch": 53, "duration": 1, "velocity": 88}, {"time": 4006, "pitch": 42, "duration": 19, "velocity": 93}, {"time": 4006, "pitch": 61, "duration": 8, "velocity": 91}, {"time": 4006, "pitch": 66, "duration": 8, "velocity": 102}, {"time": 4006, "pitch": 70, "duration": 7, "velocity": 94}, {"time": 4012, "pitch": 49, "duration": 6, "velocity": 81}, {"time": 4018, "pitch": 54, "duration": 8, "velocity": 85}, {"time": 4018, "pitch": 61, "duration": 8, "velocity": 100}, {"time": 4018, "pitch": 66, "duration": 8, "velocity": 104}, {"time": 4018, "pitch": 70, "duration": 8, "velocity": 93}, {"time": 4024, "pitch": 49, "duration": 3, "velocity": 85}, {"time": 4030, "pitch": 44, "duration": 19, "velocity": 94}, {"time": 4030, "pitch": 60, "duration": 8, "velocity": 96}, {"time": 4030, "pitch": 63, "duration": 7, "velocity": 113}, {"time": 4030, "pitch": 68, "duration": 7, "velocity": 98}, {"time": 4036, "pitch": 51, "duration": 6, "velocity": 85}, {"time": 4042, "pitch": 56, "duration": 10, "velocity": 87}, {"time": 4042, "pitch": 60, "duration": 7, "velocity": 102}, {"time": 4042, "pitch": 63, "duration": 9, "velocity": 110}, {"time": 4042, "pitch": 68, "duration": 7, "velocity": 102}, {"time": 4048, "pitch": 51, "duration": 2, "velocity": 82}, {"time": 4054, "pitch": 51, "duration": 12, "velocity": 88}, {"time": 4054, "pitch": 63, "duration": 10, "velocity": 100}, {"time": 4054, "pitch": 66, "duration": 9, "velocity": 108}, {"time": 4054, "pitch": 70, "duration": 8, "velocity": 100}, {"time": 4066, "pitch": 44, "duration": 8, "velocity": 86}, {"time": 4066, "pitch": 56, "duration": 10, "velocity": 87}, {"time": 4066, "pitch": 60, "duration": 8, "velocity": 100}, {"time": 4066, "pitch": 63, "duration": 10, "velocity": 104}, {"time": 4066, "pitch": 68, "duration": 8, "velocity": 102}, {"time": 4078, "pitch": 49, "duration": 19, "velocity": 80}, {"time": 4078, "pitch": 61, "duration": 8, "velocity": 88}, {"time": 4078, "pitch": 65, "duration": 8, "velocity": 98}, {"time": 4078, "pitch": 68, "duration": 7, "velocity": 91}, {"time": 4084, "pitch": 56, "duration": 8, "velocity": 77}, {"time": 4090, "pitch": 61, "duration": 9, "velocity": 89}, {"time": 4090, "pitch": 65, "duration": 9, "velocity": 91}, {"time": 4090, "pitch": 68, "duration": 7, "velocity": 89}, {"time": 4096, "pitch": 56, "duration": 7, "velocity": 78}, {"time": 4102, "pitch": 49, "duration": 18, "velocity": 86}, {"time": 4102, "pitch": 61, "duration": 7, "velocity": 94}, {"time": 4102, "pitch": 65, "duration": 8, "velocity": 104}, {"time": 4102, "pitch": 68, "duration": 7, "velocity": 91}, {"time": 4108, "pitch": 56, "duration": 7, "velocity": 77}, {"time": 4114, "pitch": 61, "duration": 8, "velocity": 94}, {"time": 4114, "pitch": 65, "duration": 7, "velocity": 93}, {"time": 4114, "pitch": 68, "duration": 7, "velocity": 91}, {"time": 4120, "pitch": 56, "duration": 6, "velocity": 85}, {"time": 4126, "pitch": 48, "duration": 14, "velocity": 84}, {"time": 4126, "pitch": 60, "duration": 7, "velocity": 89}, {"time": 4126, "pitch": 63, "duration": 7, "velocity": 93}, {"time": 4126, "pitch": 68, "duration": 7, "velocity": 87}, {"time": 4132, "pitch": 56, "duration": 8, "velocity": 81}, {"time": 4138, "pitch": 60, "duration": 6, "velocity": 96}, {"time": 4138, "pitch": 63, "duration": 10, "velocity": 110}, {"time": 4138, "pitch": 68, "duration": 7, "velocity": 100}, {"time": 4144, "pitch": 48, "duration": 6, "velocity": 81}, {"time": 4150, "pitch": 46, "duration": 19, "velocity": 86}, {"time": 4150, "pitch": 61, "duration": 8, "velocity": 89}, {"time": 4150, "pitch": 65, "duration": 8, "velocity": 91}, {"time": 4150, "pitch": 70, "duration": 8, "velocity": 100}, {"time": 4156, "pitch": 53, "duration": 6, "velocity": 71}, {"time": 4162, "pitch": 58, "duration": 6, "velocity": 80}, {"time": 4162, "pitch": 61, "duration": 7, "velocity": 93}, {"time": 4162, "pitch": 65, "duration": 9, "velocity": 94}, {"time": 4162, "pitch": 70, "duration": 7, "velocity": 92}, {"time": 4168, "pitch": 53, "duration": 7, "velocity": 81}, {"time": 4174, "pitch": 44, "duration": 15, "velocity": 86}, {"time": 4174, "pitch": 60, "duration": 8, "velocity": 88}, {"time": 4174, "pitch": 63, "duration": 8, "velocity": 100}, {"time": 4174, "pitch": 68, "duration": 6, "velocity": 91}, {"time": 4180, "pitch": 53, "duration": 8, "velocity": 74}, {"time": 4186, "pitch": 60, "duration": 7, "velocity": 93}, {"time": 4186, "pitch": 63, "duration": 9, "velocity": 108}, {"time": 4186, "pitch": 68, "duration": 9, "velocity": 100}, {"time": 4192, "pitch": 44, "duration": 6, "velocity": 84}, {"time": 4198, "pitch": 42, "duration": 19, "velocity": 89}, {"time": 4198, "pitch": 61, "duration": 8, "velocity": 100}, {"time": 4198, "pitch": 66, "duration": 8, "velocity": 107}, {"time": 4198, "pitch": 70, "duration": 7, "velocity": 94}, {"time": 4204, "pitch": 49, "duration": 6, "velocity": 72}, {"time": 4210, "pitch": 54, "duration": 6, "velocity": 83}, {"time": 4210, "pitch": 61, "duration": 7, "velocity": 100}, {"time": 4210, "pitch": 66, "duration": 6, "velocity": 107}, {"time": 4210, "pitch": 70, "duration": 6, "velocity": 96}, {"time": 4216, "pitch": 49, "duration": 5, "velocity": 85}, {"time": 4222, "pitch": 41, "duration": 18, "velocity": 87}, {"time": 4222, "pitch": 60, "duration": 7, "velocity": 94}, {"time": 4222, "pitch": 65, "duration": 7, "velocity": 94}, {"time": 4222, "pitch": 68, "duration": 7, "velocity": 91}, {"time": 4228, "pitch": 48, "duration": 13, "velocity": 71}, {"time": 4234, "pitch": 60, "duration": 6, "velocity": 96}, {"time": 4234, "pitch": 65, "duration": 7, "velocity": 107}, {"time": 4234, "pitch": 68, "duration": 7, "velocity": 102}, {"time": 4240, "pitch": 53, "duration": 5, "velocity": 87}, {"time": 4246, "pitch": 51, "duration": 14, "velocity": 88}, {"time": 4246, "pitch": 63, "duration": 8, "velocity": 100}, {"time": 4246, "pitch": 66, "duration": 8, "velocity": 104}, {"time": 4246, "pitch": 70, "duration": 7, "velocity": 100}, {"time": 4252, "pitch": 58, "duration": 9, "velocity": 78}, {"time": 4258, "pitch": 63, "duration": 10, "velocity": 100}, {"time": 4258, "pitch": 66, "duration": 7, "velocity": 108}, {"time": 4258, "pitch": 70, "duration": 7, "velocity": 94}, {"time": 4264, "pitch": 51, "duration": 2, "velocity": 88}, {"time": 4270, "pitch": 44, "duration": 18, "velocity": 96}, {"time": 4270, "pitch": 60, "duration": 10, "velocity": 100}, {"time": 4270, "pitch": 63, "duration": 10, "velocity": 110}, {"time": 4270, "pitch": 68, "duration": 9, "velocity": 102}, {"time": 4276, "pitch": 51, "duration": 13, "velocity": 79}, {"time": 4279, "pitch": 56, "duration": 14, "velocity": 104}, {"time": 4282, "pitch": 58, "duration": 3, "velocity": 102}, {"time": 4285, "pitch": 60, "duration": 2, "velocity": 96}, {"time": 4288, "pitch": 61, "duration": 2, "velocity": 96}, {"time": 4291, "pitch": 63, "duration": 2, "velocity": 94}, {"time": 4294, "pitch": 49, "duration": 19, "velocity": 98}, {"time": 4294, "pitch": 61, "duration": 5, "velocity": 107}, {"time": 4294, "pitch": 65, "duration": 5, "velocity": 107}, {"time": 4300, "pitch": 56, "duration": 7, "velocity": 77}, {"time": 4306, "pitch": 61, "duration": 6, "velocity": 86}, {"time": 4306, "pitch": 65, "duration": 6, "velocity": 98}, {"time": 4306, "pitch": 68, "duration": 6, "velocity": 110}, {"time": 4306, "pitch": 73, "duration": 6, "velocity": 94}, {"time": 4312, "pitch": 56, "duration": 7, "velocity": 77}, {"time": 4318, "pitch": 48, "duration": 22, "velocity": 85}, {"time": 4318, "pitch": 63, "duration": 8, "velocity": 104}, {"time": 4318, "pitch": 68, "duration": 8, "velocity": 113}, {"time": 4318, "pitch": 72, "duration": 7, "velocity": 100}, {"time": 4324, "pitch": 56, "duration": 7, "velocity": 80}, {"time": 4330, "pitch": 60, "duration": 6, "velocity": 86}, {"time": 4330, "pitch": 63, "duration": 7, "velocity": 107}, {"time": 4330, "pitch": 68, "duration": 9, "velocity": 108}, {"time": 4330, "pitch": 72, "duration": 8, "velocity": 94}, {"time": 4342, "pitch": 46, "duration": 19, "velocity": 88}, {"time": 4342, "pitch": 61, "duration": 8, "velocity": 98}, {"time": 4342, "pitch": 65, "duration": 9, "velocity": 108}, {"time": 4342, "pitch": 70, "duration": 7, "velocity": 100}, {"time": 4348, "pitch": 53, "duration": 6, "velocity": 81}, {"time": 4354, "pitch": 58, "duration": 6, "velocity": 83}, {"time": 4354, "pitch": 61, "duration": 6, "velocity": 98}, {"time": 4354, "pitch": 65, "duration": 7, "velocity": 108}, {"time": 4354, "pitch": 70, "duration": 7, "velocity": 104}, {"time": 4360, "pitch": 53, "duration": 6, "velocity": 87}, {"time": 4366, "pitch": 44, "duration": 20, "velocity": 86}, {"time": 4366, "pitch": 60, "duration": 8, "velocity": 91}, {"time": 4366, "pitch": 63, "duration": 8, "velocity": 104}, {"time": 4366, "pitch": 68, "duration": 7, "velocity": 96}, {"time": 4372, "pitch": 53, "duration": 6, "velocity": 84}, {"time": 4378, "pitch": 56, "duration": 7, "velocity": 86}, {"time": 4378, "pitch": 60, "duration": 6, "velocity": 100}, {"time": 4378, "pitch": 63, "duration": 8, "velocity": 113}, {"time": 4378, "pitch": 68, "duration": 8, "velocity": 100}, {"time": 4384, "pitch": 53, "duration": 1, "velocity": 88}, {"time": 4390, "pitch": 42, "duration": 19, "velocity": 93}, {"time": 4390, "pitch": 61, "duration": 8, "velocity": 91}, {"time": 4390, "pitch": 66, "duration": 8, "velocity": 102}, {"time": 4390, "pitch": 70, "duration": 7, "velocity": 94}, {"time": 4396, "pitch": 49, "duration": 6, "velocity": 81}, {"time": 4402, "pitch": 54, "duration": 8, "velocity": 85}, {"time": 4402, "pitch": 61, "duration": 8, "velocity": 100}, {"time": 4402, "pitch": 66, "duration": 8, "velocity": 104}, {"time": 4402, "pitch": 70, "duration": 8, "velocity": 93}, {"time": 4408, "pitch": 49, "duration": 3, "velocity": 85}, {"time": 4414, "pitch": 44, "duration": 19, "velocity": 94}, {"time": 4414, "pitch": 60, "duration": 8, "velocity": 96}, {"time": 4414, "pitch": 63, "duration": 7, "velocity": 113}, {"time": 4414, "pitch": 68, "duration": 7, "velocity": 98}, {"time": 4420, "pitch": 51, "duration": 6, "velocity": 85}, {"time": 4426, "pitch": 56, "duration": 10, "velocity": 87}, {"time": 4426, "pitch": 60, "duration": 7, "velocity": 102}, {"time": 4426, "pitch": 63, "duration": 9, "velocity": 110}, {"time": 4426, "pitch": 68, "duration": 7, "velocity": 102}, {"time": 4432, "pitch": 51, "duration": 2, "velocity": 82}, {"time": 4438, "pitch": 51, "duration": 12, "velocity": 88}, {"time": 4438, "pitch": 63, "duration": 10, "velocity": 100}, {"time": 4438, "pitch": 66, "duration": 9, "velocity": 108}, {"time": 4438, "pitch": 70, "duration": 8, "velocity": 100}, {"time": 4450, "pitch": 44, "duration": 8, "velocity": 86}, {"time": 4450, "pitch": 56, "duration": 10, "velocity": 87}, {"time": 4450, "pitch": 60, "duration": 8, "velocity": 100}, {"time": 4450, "pitch": 63, "duration": 10, "velocity": 104}, {"time": 4450, "pitch": 68, "duration": 8, "velocity": 102}, {"time": 4462, "pitch": 49, "duration": 19, "velocity": 80}, {"time": 4462, "pitch": 61, "duration": 8, "velocity": 88}, {"time": 4462, "pitch": 65, "duration": 8, "velocity": 98}, {"time": 4462, "pitch": 68, "duration": 7, "velocity": 91}, {"time": 4468, "pitch": 56, "duration": 8, "velocity": 77}, {"time": 4474, "pitch": 61, "duration": 9, "velocity": 89}, {"time": 4474, "pitch": 65, "duration": 9, "velocity": 91}, {"time": 4474, "pitch": 68, "duration": 7, "velocity": 89}, {"time": 4480, "pitch": 56, "duration": 7, "velocity": 78}, {"time": 4486, "pitch": 49, "duration": 21, "velocity": 82}, {"time": 4486, "pitch": 61, "duration": 18, "velocity": 83}, {"time": 4486, "pitch": 65, "duration": 20, "velocity": 86}, {"time": 4486, "pitch": 68, "duration": 19, "velocity": 82}, {"time": 4510, "pitch": 48, "duration": 22, "velocity": 78}, {"time": 4510, "pitch": 60, "duration": 18, "velocity": 74}, {"time": 4510, "pitch": 63, "duration": 22, "velocity": 74}, {"time": 4510, "pitch": 68, "duration": 18, "velocity": 75}, {"time": 4534, "pitch": 46, "duration": 21, "velocity": 76}, {"time": 4534, "pitch": 61, "duration": 19, "velocity": 72}, {"time": 4534, "pitch": 65, "duration": 21, "velocity": 75}, {"time": 4534, "pitch": 70, "duration": 18, "velocity": 78}, {"time": 4558, "pitch": 44, "duration": 19, "velocity": 68}, {"time": 4558, "pitch": 56, "duration": 18, "velocity": 67}, {"time": 4558, "pitch": 60, "duration": 19, "velocity": 71}, {"time": 4558, "pitch": 63, "duration": 20, "velocity": 78}, {"time": 4558, "pitch": 68, "duration": 20, "velocity": 75}, {"time": 4582, "pitch": 42, "duration": 20, "velocity": 70}, {"time": 4582, "pitch": 54, "duration": 19, "velocity": 69}, {"time": 4582, "pitch": 61, "duration": 20, "velocity": 70}, {"time": 4582, "pitch": 66, "duration": 20, "velocity": 75}, {"time": 4582, "pitch": 70, "duration": 20, "velocity": 78}, {"time": 4612, "pitch": 44, "duration": 27, "velocity": 36}, {"time": 4612, "pitch": 56, "duration": 26, "velocity": 46}, {"time": 4612, "pitch": 60, "duration": 26, "velocity": 36}, {"time": 4612, "pitch": 63, "duration": 26, "velocity": 74}, {"time": 4612, "pitch": 68, "duration": 27, "velocity": 38}, {"time": 4648, "pitch": 49, "duration": 40, "velocity": 38}, {"time": 4648, "pitch": 61, "duration": 40, "velocity": 38}, {"time": 4648, "pitch": 65, "duration": 40, "velocity": 46}, {"time": 4648, "pitch": 68, "duration": 41, "velocity": 30}]}]}