{"metadata": {"schema_version": "0.2", "title": "None", "source_filename": "304.mid", "source_format": "midi"}, "resolution": 12, "tempos": [{"time": 0, "qpm": 55.99997760000896}], "key_signatures": [{"time": 0, "root": 0, "mode": "major"}], "time_signatures": [{"time": 0, "numerator": 4, "denominator": 4}], "tracks": [{"program": 4, "is_drum": false, "name": "MELODY", "notes": [{"time": 351, "pitch": 73, "duration": 1, "velocity": 113}, {"time": 354, "pitch": 73, "duration": 1, "velocity": 107}, {"time": 357, "pitch": 73, "duration": 3, "velocity": 107}, {"time": 363, "pitch": 75, "duration": 3, "velocity": 102}, {"time": 366, "pitch": 72, "duration": 3, "velocity": 107}, {"time": 384, "pitch": 73, "duration": 3, "velocity": 108}, {"time": 387, "pitch": 72, "duration": 3, "velocity": 98}, {"time": 390, "pitch": 68, "duration": 3, "velocity": 98}, {"time": 396, "pitch": 68, "duration": 3, "velocity": 88}, {"time": 402, "pitch": 68, "duration": 4, "velocity": 89}, {"time": 444, "pitch": 73, "duration": 1, "velocity": 90}, {"time": 447, "pitch": 73, "duration": 1, "velocity": 104}, {"time": 450, "pitch": 73, "duration": 1, "velocity": 100}, {"time": 453, "pitch": 73, "duration": 2, "velocity": 107}, {"time": 456, "pitch": 73, "duration": 2, "velocity": 90}, {"time": 459, "pitch": 77, "duration": 3, "velocity": 107}, {"time": 465, "pitch": 72, "duration": 3, "velocity": 108}, {"time": 468, "pitch": 72, "duration": 1, "velocity": 91}, {"time": 471, "pitch": 72, "duration": 1, "velocity": 91}, {"time": 474, "pitch": 72, "duration": 1, "velocity": 92}, {"time": 477, "pitch": 73, "duration": 3, "velocity": 104}, {"time": 480, "pitch": 72, "duration": 3, "velocity": 93}, {"time": 486, "pitch": 68, "duration": 4, "velocity": 100}, {"time": 489, "pitch": 68, "duration": 1, "velocity": 100}, {"time": 495, "pitch": 70, "duration": 3, "velocity": 102}, {"time": 525, "pitch": 70, "duration": 4, "velocity": 102}, {"time": 528, "pitch": 73, "duration": 3, "velocity": 91}, {"time": 531, "pitch": 77, "duration": 3, "velocity": 98}, {"time": 534, "pitch": 75, "duration": 4, "velocity": 107}, {"time": 555, "pitch": 72, "duration": 2, "velocity": 104}, {"time": 558, "pitch": 73, "duration": 2, "velocity": 102}, {"time": 561, "pitch": 75, "duration": 4, "velocity": 110}, {"time": 579, "pitch": 73, "duration": 4, "velocity": 108}, {"time": 585, "pitch": 70, "duration": 6, "velocity": 108}, {"time": 639, "pitch": 73, "duration": 1, "velocity": 110}, {"time": 642, "pitch": 73, "duration": 1, "velocity": 107}, {"time": 645, "pitch": 73, "duration": 2, "velocity": 104}, {"time": 648, "pitch": 75, "duration": 3, "velocity": 110}, {"time": 651, "pitch": 77, "duration": 3, "velocity": 93}, {"time": 657, "pitch": 72, "duration": 4, "velocity": 108}, {"time": 672, "pitch": 73, "duration": 6, "velocity": 104}, {"time": 678, "pitch": 72, "duration": 5, "velocity": 98}, {"time": 684, "pitch": 68, "duration": 4, "velocity": 92}, {"time": 690, "pitch": 70, "duration": 4, "velocity": 104}, {"time": 732, "pitch": 73, "duration": 1, "velocity": 93}, {"time": 735, "pitch": 73, "duration": 1, "velocity": 91}, {"time": 738, "pitch": 73, "duration": 1, "velocity": 91}, {"time": 741, "pitch": 73, "duration": 1, "velocity": 93}, {"time": 744, "pitch": 73, "duration": 2, "velocity": 91}, {"time": 747, "pitch": 77, "duration": 4, "velocity": 104}, {"time": 753, "pitch": 72, "duration": 2, "velocity": 108}, {"time": 756, "pitch": 72, "duration": 1, "velocity": 100}, {"time": 759, "pitch": 72, "duration": 1, "velocity": 91}, {"time": 762, "pitch": 72, "duration": 2, "velocity": 96}, {"time": 765, "pitch": 73, "duration": 3, "velocity": 93}, {"time": 768, "pitch": 72, "duration": 3, "velocity": 96}, {"time": 774, "pitch": 68, "duration": 1, "velocity": 93}, {"time": 777, "pitch": 68, "duration": 3, "velocity": 102}, {"time": 780, "pitch": 70, "duration": 4, "velocity": 102}, {"time": 813, "pitch": 70, "duration": 4, "velocity": 108}, {"time": 816, "pitch": 73, "duration": 3, "velocity": 96}, {"time": 819, "pitch": 77, "duration": 2, "velocity": 100}, {"time": 822, "pitch": 75, "duration": 4, "velocity": 102}, {"time": 843, "pitch": 72, "duration": 3, "velocity": 110}, {"time": 846, "pitch": 73, "duration": 2, "velocity": 100}, {"time": 849, "pitch": 75, "duration": 4, "velocity": 113}, {"time": 867, "pitch": 72, "duration": 4, "velocity": 113}, {"time": 873, "pitch": 70, "duration": 5, "velocity": 107}, {"time": 900, "pitch": 77, "duration": 1, "velocity": 113}, {"time": 903, "pitch": 77, "duration": 1, "velocity": 110}, {"time": 906, "pitch": 77, "duration": 1, "velocity": 107}, {"time": 909, "pitch": 77, "duration": 2, "velocity": 108}, {"time": 912, "pitch": 80, "duration": 1, "velocity": 113}, {"time": 915, "pitch": 80, "duration": 2, "velocity": 116}, {"time": 918, "pitch": 78, "duration": 2, "velocity": 116}, {"time": 921, "pitch": 82, "duration": 4, "velocity": 117}, {"time": 927, "pitch": 82, "duration": 2, "velocity": 117}, {"time": 930, "pitch": 80, "duration": 1, "velocity": 113}, {"time": 933, "pitch": 82, "duration": 2, "velocity": 116}, {"time": 939, "pitch": 82, "duration": 3, "velocity": 110}, {"time": 942, "pitch": 80, "duration": 2, "velocity": 104}, {"time": 945, "pitch": 84, "duration": 3, "velocity": 110}, {"time": 954, "pitch": 84, "duration": 1, "velocity": 116}, {"time": 957, "pitch": 84, "duration": 2, "velocity": 113}, {"time": 960, "pitch": 82, "duration": 3, "velocity": 113}, {"time": 963, "pitch": 80, "duration": 3, "velocity": 110}, {"time": 966, "pitch": 75, "duration": 2, "velocity": 107}, {"time": 969, "pitch": 77, "duration": 3, "velocity": 116}, {"time": 981, "pitch": 77, "duration": 1, "velocity": 113}, {"time": 984, "pitch": 77, "duration": 2, "velocity": 107}, {"time": 987, "pitch": 75, "duration": 2, "velocity": 110}, {"time": 990, "pitch": 77, "duration": 3, "velocity": 114}, {"time": 1005, "pitch": 77, "duration": 2, "velocity": 114}, {"time": 1008, "pitch": 80, "duration": 3, "velocity": 89}, {"time": 1011, "pitch": 78, "duration": 3, "velocity": 100}, {"time": 1014, "pitch": 77, "duration": 3, "velocity": 102}, {"time": 1017, "pitch": 75, "duration": 3, "velocity": 113}, {"time": 1023, "pitch": 73, "duration": 3, "velocity": 104}, {"time": 1026, "pitch": 75, "duration": 3, "velocity": 113}, {"time": 1035, "pitch": 75, "duration": 3, "velocity": 113}, {"time": 1038, "pitch": 73, "duration": 2, "velocity": 102}, {"time": 1041, "pitch": 75, "duration": 3, "velocity": 116}, {"time": 1047, "pitch": 73, "duration": 3, "velocity": 110}, {"time": 1050, "pitch": 75, "duration": 3, "velocity": 117}, {"time": 1059, "pitch": 73, "duration": 3, "velocity": 102}, {"time": 1062, "pitch": 75, "duration": 3, "velocity": 107}, {"time": 1065, "pitch": 77, "duration": 2, "velocity": 104}, {"time": 1068, "pitch": 77, "duration": 2, "velocity": 100}, {"time": 1071, "pitch": 77, "duration": 1, "velocity": 102}, {"time": 1074, "pitch": 77, "duration": 1, "velocity": 98}, {"time": 1077, "pitch": 77, "duration": 3, "velocity": 113}, {"time": 1080, "pitch": 77, "duration": 2, "velocity": 92}, {"time": 1083, "pitch": 75, "duration": 2, "velocity": 107}, {"time": 1086, "pitch": 77, "duration": 3, "velocity": 114}, {"time": 1092, "pitch": 77, "duration": 1, "velocity": 113}, {"time": 1095, "pitch": 77, "duration": 1, "velocity": 110}, {"time": 1098, "pitch": 77, "duration": 1, "velocity": 107}, {"time": 1101, "pitch": 77, "duration": 2, "velocity": 108}, {"time": 1104, "pitch": 80, "duration": 1, "velocity": 113}, {"time": 1107, "pitch": 80, "duration": 2, "velocity": 116}, {"time": 1110, "pitch": 78, "duration": 2, "velocity": 116}, {"time": 1113, "pitch": 82, "duration": 4, "velocity": 117}, {"time": 1119, "pitch": 82, "duration": 2, "velocity": 117}, {"time": 1122, "pitch": 80, "duration": 1, "velocity": 113}, {"time": 1125, "pitch": 82, "duration": 2, "velocity": 116}, {"time": 1131, "pitch": 82, "duration": 3, "velocity": 110}, {"time": 1134, "pitch": 80, "duration": 2, "velocity": 104}, {"time": 1137, "pitch": 84, "duration": 3, "velocity": 110}, {"time": 1146, "pitch": 84, "duration": 1, "velocity": 116}, {"time": 1149, "pitch": 84, "duration": 2, "velocity": 113}, {"time": 1152, "pitch": 82, "duration": 3, "velocity": 113}, {"time": 1155, "pitch": 80, "duration": 3, "velocity": 110}, {"time": 1158, "pitch": 75, "duration": 2, "velocity": 107}, {"time": 1161, "pitch": 77, "duration": 3, "velocity": 116}, {"time": 1173, "pitch": 77, "duration": 1, "velocity": 113}, {"time": 1176, "pitch": 77, "duration": 2, "velocity": 107}, {"time": 1179, "pitch": 75, "duration": 2, "velocity": 110}, {"time": 1182, "pitch": 77, "duration": 3, "velocity": 114}, {"time": 1197, "pitch": 77, "duration": 2, "velocity": 114}, {"time": 1200, "pitch": 80, "duration": 3, "velocity": 89}, {"time": 1203, "pitch": 78, "duration": 3, "velocity": 100}, {"time": 1206, "pitch": 77, "duration": 3, "velocity": 102}, {"time": 1209, "pitch": 75, "duration": 3, "velocity": 113}, {"time": 1215, "pitch": 73, "duration": 3, "velocity": 104}, {"time": 1218, "pitch": 75, "duration": 3, "velocity": 113}, {"time": 1227, "pitch": 75, "duration": 3, "velocity": 113}, {"time": 1230, "pitch": 73, "duration": 2, "velocity": 102}, {"time": 1233, "pitch": 75, "duration": 3, "velocity": 116}, {"time": 1239, "pitch": 73, "duration": 3, "velocity": 110}, {"time": 1242, "pitch": 75, "duration": 3, "velocity": 117}, {"time": 1251, "pitch": 73, "duration": 3, "velocity": 102}, {"time": 1254, "pitch": 75, "duration": 3, "velocity": 107}, {"time": 1257, "pitch": 77, "duration": 2, "velocity": 104}, {"time": 1260, "pitch": 77, "duration": 2, "velocity": 100}, {"time": 1263, "pitch": 77, "duration": 1, "velocity": 102}, {"time": 1266, "pitch": 77, "duration": 1, "velocity": 98}, {"time": 1269, "pitch": 77, "duration": 3, "velocity": 113}, {"time": 1272, "pitch": 77, "duration": 2, "velocity": 92}, {"time": 1275, "pitch": 75, "duration": 2, "velocity": 107}, {"time": 1278, "pitch": 77, "duration": 3, "velocity": 114}, {"time": 1503, "pitch": 73, "duration": 1, "velocity": 110}, {"time": 1506, "pitch": 73, "duration": 1, "velocity": 107}, {"time": 1509, "pitch": 73, "duration": 2, "velocity": 104}, {"time": 1512, "pitch": 75, "duration": 3, "velocity": 110}, {"time": 1515, "pitch": 77, "duration": 3, "velocity": 93}, {"time": 1521, "pitch": 72, "duration": 4, "velocity": 108}, {"time": 1536, "pitch": 73, "duration": 6, "velocity": 104}, {"time": 1542, "pitch": 72, "duration": 5, "velocity": 98}, {"time": 1548, "pitch": 68, "duration": 4, "velocity": 92}, {"time": 1554, "pitch": 70, "duration": 4, "velocity": 104}, {"time": 1596, "pitch": 73, "duration": 1, "velocity": 93}, {"time": 1599, "pitch": 73, "duration": 1, "velocity": 91}, {"time": 1602, "pitch": 73, "duration": 1, "velocity": 91}, {"time": 1605, "pitch": 73, "duration": 1, "velocity": 93}, {"time": 1608, "pitch": 73, "duration": 2, "velocity": 91}, {"time": 1611, "pitch": 77, "duration": 4, "velocity": 104}, {"time": 1617, "pitch": 72, "duration": 2, "velocity": 108}, {"time": 1620, "pitch": 72, "duration": 1, "velocity": 100}, {"time": 1623, "pitch": 72, "duration": 1, "velocity": 91}, {"time": 1626, "pitch": 72, "duration": 2, "velocity": 96}, {"time": 1629, "pitch": 73, "duration": 3, "velocity": 93}, {"time": 1632, "pitch": 72, "duration": 3, "velocity": 96}, {"time": 1638, "pitch": 68, "duration": 1, "velocity": 93}, {"time": 1641, "pitch": 68, "duration": 3, "velocity": 102}, {"time": 1644, "pitch": 70, "duration": 4, "velocity": 102}, {"time": 1677, "pitch": 70, "duration": 4, "velocity": 108}, {"time": 1680, "pitch": 73, "duration": 3, "velocity": 96}, {"time": 1683, "pitch": 77, "duration": 2, "velocity": 100}, {"time": 1686, "pitch": 75, "duration": 4, "velocity": 102}, {"time": 1707, "pitch": 72, "duration": 3, "velocity": 110}, {"time": 1710, "pitch": 73, "duration": 2, "velocity": 100}, {"time": 1713, "pitch": 75, "duration": 4, "velocity": 113}, {"time": 1731, "pitch": 72, "duration": 4, "velocity": 113}, {"time": 1737, "pitch": 70, "duration": 5, "velocity": 107}, {"time": 1764, "pitch": 77, "duration": 1, "velocity": 113}, {"time": 1767, "pitch": 77, "duration": 1, "velocity": 110}, {"time": 1770, "pitch": 77, "duration": 1, "velocity": 107}, {"time": 1773, "pitch": 77, "duration": 2, "velocity": 108}, {"time": 1776, "pitch": 80, "duration": 1, "velocity": 113}, {"time": 1779, "pitch": 80, "duration": 2, "velocity": 116}, {"time": 1782, "pitch": 78, "duration": 2, "velocity": 116}, {"time": 1785, "pitch": 82, "duration": 4, "velocity": 117}, {"time": 1791, "pitch": 82, "duration": 2, "velocity": 117}, {"time": 1794, "pitch": 80, "duration": 1, "velocity": 113}, {"time": 1797, "pitch": 82, "duration": 2, "velocity": 116}, {"time": 1803, "pitch": 82, "duration": 3, "velocity": 110}, {"time": 1806, "pitch": 80, "duration": 2, "velocity": 104}, {"time": 1809, "pitch": 84, "duration": 3, "velocity": 110}, {"time": 1818, "pitch": 84, "duration": 1, "velocity": 116}, {"time": 1821, "pitch": 84, "duration": 2, "velocity": 113}, {"time": 1824, "pitch": 82, "duration": 3, "velocity": 113}, {"time": 1827, "pitch": 80, "duration": 3, "velocity": 110}, {"time": 1830, "pitch": 75, "duration": 2, "velocity": 107}, {"time": 1833, "pitch": 77, "duration": 3, "velocity": 116}, {"time": 1845, "pitch": 77, "duration": 1, "velocity": 113}, {"time": 1848, "pitch": 77, "duration": 2, "velocity": 107}, {"time": 1851, "pitch": 75, "duration": 2, "velocity": 110}, {"time": 1854, "pitch": 77, "duration": 3, "velocity": 114}, {"time": 1869, "pitch": 77, "duration": 2, "velocity": 114}, {"time": 1872, "pitch": 80, "duration": 3, "velocity": 89}, {"time": 1875, "pitch": 78, "duration": 3, "velocity": 100}, {"time": 1878, "pitch": 77, "duration": 3, "velocity": 102}, {"time": 1881, "pitch": 75, "duration": 3, "velocity": 113}, {"time": 1887, "pitch": 73, "duration": 3, "velocity": 104}, {"time": 1890, "pitch": 75, "duration": 3, "velocity": 113}, {"time": 1899, "pitch": 75, "duration": 3, "velocity": 113}, {"time": 1902, "pitch": 73, "duration": 2, "velocity": 102}, {"time": 1905, "pitch": 75, "duration": 3, "velocity": 116}, {"time": 1911, "pitch": 73, "duration": 3, "velocity": 110}, {"time": 1914, "pitch": 75, "duration": 3, "velocity": 117}, {"time": 1923, "pitch": 73, "duration": 3, "velocity": 102}, {"time": 1926, "pitch": 75, "duration": 3, "velocity": 107}, {"time": 1929, "pitch": 77, "duration": 2, "velocity": 104}, {"time": 1932, "pitch": 77, "duration": 2, "velocity": 100}, {"time": 1935, "pitch": 77, "duration": 1, "velocity": 102}, {"time": 1938, "pitch": 77, "duration": 1, "velocity": 98}, {"time": 1941, "pitch": 77, "duration": 3, "velocity": 113}, {"time": 1944, "pitch": 77, "duration": 2, "velocity": 92}, {"time": 1947, "pitch": 75, "duration": 2, "velocity": 107}, {"time": 1950, "pitch": 77, "duration": 3, "velocity": 114}, {"time": 1956, "pitch": 77, "duration": 1, "velocity": 113}, {"time": 1959, "pitch": 76, "duration": 1, "velocity": 110}, {"time": 1962, "pitch": 77, "duration": 1, "velocity": 107}, {"time": 1965, "pitch": 77, "duration": 2, "velocity": 108}, {"time": 1968, "pitch": 80, "duration": 1, "velocity": 113}, {"time": 1971, "pitch": 80, "duration": 2, "velocity": 116}, {"time": 1974, "pitch": 78, "duration": 2, "velocity": 116}, {"time": 1977, "pitch": 82, "duration": 4, "velocity": 117}, {"time": 1983, "pitch": 82, "duration": 2, "velocity": 117}, {"time": 1986, "pitch": 80, "duration": 1, "velocity": 113}, {"time": 1989, "pitch": 82, "duration": 2, "velocity": 116}, {"time": 1995, "pitch": 82, "duration": 3, "velocity": 110}, {"time": 1998, "pitch": 80, "duration": 2, "velocity": 104}, {"time": 2001, "pitch": 84, "duration": 3, "velocity": 110}, {"time": 2010, "pitch": 84, "duration": 1, "velocity": 116}, {"time": 2013, "pitch": 84, "duration": 2, "velocity": 113}, {"time": 2016, "pitch": 82, "duration": 3, "velocity": 113}, {"time": 2019, "pitch": 80, "duration": 3, "velocity": 110}, {"time": 2022, "pitch": 75, "duration": 2, "velocity": 107}, {"time": 2025, "pitch": 77, "duration": 3, "velocity": 116}, {"time": 2037, "pitch": 77, "duration": 1, "velocity": 113}, {"time": 2040, "pitch": 77, "duration": 2, "velocity": 107}, {"time": 2043, "pitch": 75, "duration": 2, "velocity": 110}, {"time": 2046, "pitch": 77, "duration": 3, "velocity": 114}, {"time": 2061, "pitch": 77, "duration": 2, "velocity": 114}, {"time": 2064, "pitch": 80, "duration": 3, "velocity": 89}, {"time": 2067, "pitch": 78, "duration": 3, "velocity": 100}, {"time": 2070, "pitch": 77, "duration": 3, "velocity": 102}, {"time": 2073, "pitch": 75, "duration": 3, "velocity": 113}, {"time": 2079, "pitch": 73, "duration": 3, "velocity": 104}, {"time": 2082, "pitch": 75, "duration": 3, "velocity": 113}, {"time": 2091, "pitch": 75, "duration": 3, "velocity": 113}, {"time": 2094, "pitch": 73, "duration": 2, "velocity": 102}, {"time": 2097, "pitch": 75, "duration": 3, "velocity": 116}, {"time": 2103, "pitch": 73, "duration": 3, "velocity": 110}, {"time": 2106, "pitch": 75, "duration": 3, "velocity": 117}, {"time": 2115, "pitch": 73, "duration": 3, "velocity": 102}, {"time": 2118, "pitch": 75, "duration": 3, "velocity": 107}, {"time": 2121, "pitch": 77, "duration": 8, "velocity": 104}, {"time": 2130, "pitch": 77, "duration": 1, "velocity": 98}, {"time": 2133, "pitch": 77, "duration": 3, "velocity": 113}, {"time": 2136, "pitch": 77, "duration": 2, "velocity": 92}, {"time": 2139, "pitch": 75, "duration": 2, "velocity": 107}, {"time": 2142, "pitch": 77, "duration": 26, "velocity": 114}, {"time": 2193, "pitch": 82, "duration": 20, "velocity": 120}, {"time": 2217, "pitch": 80, "duration": 12, "velocity": 119}, {"time": 2253, "pitch": 77, "duration": 4, "velocity": 117}, {"time": 2259, "pitch": 78, "duration": 3, "velocity": 116}, {"time": 2262, "pitch": 77, "duration": 4, "velocity": 113}, {"time": 2268, "pitch": 75, "duration": 5, "velocity": 114}, {"time": 2292, "pitch": 73, "duration": 2, "velocity": 102}, {"time": 2295, "pitch": 72, "duration": 3, "velocity": 93}, {"time": 2310, "pitch": 70, "duration": 2, "velocity": 88}, {"time": 2312, "pitch": 72, "duration": 2, "velocity": 89}, {"time": 2313, "pitch": 73, "duration": 9, "velocity": 89}]}, {"program": 0, "is_drum": false, "name": "PIANO", "notes": [{"time": 62, "pitch": 46, "duration": 24, "velocity": 61}, {"time": 62, "pitch": 53, "duration": 22, "velocity": 61}, {"time": 62, "pitch": 58, "duration": 23, "velocity": 61}, {"time": 62, "pitch": 61, "duration": 21, "velocity": 61}, {"time": 86, "pitch": 44, "duration": 23, "velocity": 53}, {"time": 86, "pitch": 53, "duration": 21, "velocity": 53}, {"time": 86, "pitch": 56, "duration": 24, "velocity": 53}, {"time": 86, "pitch": 60, "duration": 22, "velocity": 53}, {"time": 110, "pitch": 42, "duration": 42, "velocity": 55}, {"time": 110, "pitch": 54, "duration": 42, "velocity": 55}, {"time": 110, "pitch": 58, "duration": 42, "velocity": 55}, {"time": 110, "pitch": 61, "duration": 42, "velocity": 55}, {"time": 153, "pitch": 46, "duration": 20, "velocity": 97}, {"time": 156, "pitch": 53, "duration": 16, "velocity": 68}, {"time": 159, "pitch": 60, "duration": 4, "velocity": 63}, {"time": 162, "pitch": 61, "duration": 6, "velocity": 92}, {"time": 168, "pitch": 60, "duration": 3, "velocity": 71}, {"time": 171, "pitch": 58, "duration": 6, "velocity": 91}, {"time": 171, "pitch": 61, "duration": 7, "velocity": 90}, {"time": 177, "pitch": 44, "duration": 20, "velocity": 95}, {"time": 180, "pitch": 53, "duration": 9, "velocity": 65}, {"time": 183, "pitch": 55, "duration": 4, "velocity": 63}, {"time": 186, "pitch": 56, "duration": 7, "velocity": 102}, {"time": 192, "pitch": 53, "duration": 6, "velocity": 51}, {"time": 195, "pitch": 55, "duration": 4, "velocity": 90}, {"time": 198, "pitch": 56, "duration": 4, "velocity": 88}, {"time": 198, "pitch": 60, "duration": 4, "velocity": 92}, {"time": 201, "pitch": 42, "duration": 20, "velocity": 87}, {"time": 204, "pitch": 49, "duration": 11, "velocity": 67}, {"time": 207, "pitch": 54, "duration": 11, "velocity": 55}, {"time": 210, "pitch": 58, "duration": 7, "velocity": 83}, {"time": 210, "pitch": 61, "duration": 7, "velocity": 87}, {"time": 216, "pitch": 49, "duration": 6, "velocity": 53}, {"time": 222, "pitch": 54, "duration": 5, "velocity": 75}, {"time": 222, "pitch": 58, "duration": 7, "velocity": 83}, {"time": 222, "pitch": 61, "duration": 7, "velocity": 81}, {"time": 225, "pitch": 42, "duration": 17, "velocity": 87}, {"time": 228, "pitch": 49, "duration": 6, "velocity": 62}, {"time": 231, "pitch": 54, "duration": 2, "velocity": 56}, {"time": 234, "pitch": 58, "duration": 5, "velocity": 102}, {"time": 234, "pitch": 61, "duration": 6, "velocity": 97}, {"time": 237, "pitch": 49, "duration": 6, "velocity": 67}, {"time": 240, "pitch": 54, "duration": 1, "velocity": 72}, {"time": 243, "pitch": 60, "duration": 2, "velocity": 94}, {"time": 246, "pitch": 61, "duration": 3, "velocity": 91}, {"time": 249, "pitch": 46, "duration": 19, "velocity": 92}, {"time": 252, "pitch": 53, "duration": 10, "velocity": 51}, {"time": 255, "pitch": 60, "duration": 4, "velocity": 71}, {"time": 258, "pitch": 61, "duration": 6, "velocity": 99}, {"time": 264, "pitch": 60, "duration": 4, "velocity": 79}, {"time": 267, "pitch": 58, "duration": 6, "velocity": 84}, {"time": 267, "pitch": 61, "duration": 7, "velocity": 92}, {"time": 273, "pitch": 44, "duration": 19, "velocity": 87}, {"time": 276, "pitch": 53, "duration": 9, "velocity": 61}, {"time": 279, "pitch": 56, "duration": 7, "velocity": 56}, {"time": 282, "pitch": 60, "duration": 6, "velocity": 92}, {"time": 288, "pitch": 55, "duration": 2, "velocity": 59}, {"time": 291, "pitch": 56, "duration": 6, "velocity": 95}, {"time": 291, "pitch": 60, "duration": 6, "velocity": 95}, {"time": 297, "pitch": 42, "duration": 19, "velocity": 92}, {"time": 300, "pitch": 49, "duration": 9, "velocity": 55}, {"time": 303, "pitch": 54, "duration": 11, "velocity": 58}, {"time": 306, "pitch": 58, "duration": 9, "velocity": 88}, {"time": 306, "pitch": 61, "duration": 10, "velocity": 97}, {"time": 318, "pitch": 54, "duration": 7, "velocity": 87}, {"time": 321, "pitch": 42, "duration": 10, "velocity": 94}, {"time": 324, "pitch": 49, "duration": 6, "velocity": 68}, {"time": 327, "pitch": 54, "duration": 4, "velocity": 85}, {"time": 330, "pitch": 58, "duration": 5, "velocity": 100}, {"time": 330, "pitch": 61, "duration": 9, "velocity": 106}, {"time": 333, "pitch": 49, "duration": 4, "velocity": 65}, {"time": 336, "pitch": 54, "duration": 6, "velocity": 87}, {"time": 339, "pitch": 42, "duration": 1, "velocity": 84}, {"time": 345, "pitch": 46, "duration": 14, "velocity": 63}, {"time": 345, "pitch": 58, "duration": 5, "velocity": 62}, {"time": 348, "pitch": 60, "duration": 4, "velocity": 76}, {"time": 351, "pitch": 61, "duration": 4, "velocity": 69}, {"time": 354, "pitch": 58, "duration": 4, "velocity": 51}, {"time": 354, "pitch": 68, "duration": 9, "velocity": 99}, {"time": 357, "pitch": 65, "duration": 7, "velocity": 82}, {"time": 357, "pitch": 70, "duration": 7, "velocity": 80}, {"time": 357, "pitch": 73, "duration": 7, "velocity": 95}, {"time": 360, "pitch": 58, "duration": 3, "velocity": 51}, {"time": 363, "pitch": 46, "duration": 1, "velocity": 65}, {"time": 369, "pitch": 44, "duration": 15, "velocity": 63}, {"time": 369, "pitch": 56, "duration": 6, "velocity": 62}, {"time": 372, "pitch": 58, "duration": 4, "velocity": 59}, {"time": 375, "pitch": 60, "duration": 4, "velocity": 72}, {"time": 378, "pitch": 56, "duration": 4, "velocity": 72}, {"time": 378, "pitch": 68, "duration": 9, "velocity": 95}, {"time": 381, "pitch": 65, "duration": 7, "velocity": 96}, {"time": 381, "pitch": 68, "duration": 6, "velocity": 92}, {"time": 381, "pitch": 72, "duration": 7, "velocity": 100}, {"time": 384, "pitch": 56, "duration": 3, "velocity": 71}, {"time": 387, "pitch": 44, "duration": 3, "velocity": 72}, {"time": 390, "pitch": 56, "duration": 1, "velocity": 76}, {"time": 393, "pitch": 42, "duration": 15, "velocity": 63}, {"time": 393, "pitch": 54, "duration": 7, "velocity": 63}, {"time": 396, "pitch": 56, "duration": 3, "velocity": 59}, {"time": 399, "pitch": 58, "duration": 4, "velocity": 67}, {"time": 402, "pitch": 54, "duration": 4, "velocity": 56}, {"time": 402, "pitch": 65, "duration": 6, "velocity": 95}, {"time": 405, "pitch": 66, "duration": 19, "velocity": 94}, {"time": 405, "pitch": 70, "duration": 18, "velocity": 91}, {"time": 405, "pitch": 73, "duration": 18, "velocity": 92}, {"time": 408, "pitch": 54, "duration": 1, "velocity": 47}, {"time": 411, "pitch": 42, "duration": 1, "velocity": 49}, {"time": 420, "pitch": 42, "duration": 10, "velocity": 79}, {"time": 423, "pitch": 54, "duration": 7, "velocity": 84}, {"time": 426, "pitch": 66, "duration": 1, "velocity": 87}, {"time": 429, "pitch": 66, "duration": 8, "velocity": 105}, {"time": 429, "pitch": 70, "duration": 9, "velocity": 101}, {"time": 429, "pitch": 73, "duration": 9, "velocity": 105}, {"time": 432, "pitch": 54, "duration": 4, "velocity": 80}, {"time": 435, "pitch": 42, "duration": 3, "velocity": 79}, {"time": 441, "pitch": 46, "duration": 14, "velocity": 63}, {"time": 441, "pitch": 58, "duration": 5, "velocity": 62}, {"time": 444, "pitch": 60, "duration": 4, "velocity": 76}, {"time": 447, "pitch": 61, "duration": 4, "velocity": 69}, {"time": 450, "pitch": 58, "duration": 4, "velocity": 51}, {"time": 450, "pitch": 68, "duration": 9, "velocity": 99}, {"time": 453, "pitch": 65, "duration": 7, "velocity": 82}, {"time": 453, "pitch": 70, "duration": 7, "velocity": 80}, {"time": 453, "pitch": 73, "duration": 7, "velocity": 95}, {"time": 456, "pitch": 58, "duration": 3, "velocity": 51}, {"time": 459, "pitch": 46, "duration": 1, "velocity": 65}, {"time": 465, "pitch": 44, "duration": 15, "velocity": 63}, {"time": 465, "pitch": 56, "duration": 6, "velocity": 62}, {"time": 468, "pitch": 58, "duration": 4, "velocity": 59}, {"time": 471, "pitch": 60, "duration": 4, "velocity": 72}, {"time": 474, "pitch": 56, "duration": 4, "velocity": 72}, {"time": 474, "pitch": 68, "duration": 9, "velocity": 95}, {"time": 477, "pitch": 65, "duration": 7, "velocity": 96}, {"time": 477, "pitch": 68, "duration": 6, "velocity": 92}, {"time": 477, "pitch": 72, "duration": 7, "velocity": 100}, {"time": 480, "pitch": 56, "duration": 3, "velocity": 71}, {"time": 483, "pitch": 44, "duration": 3, "velocity": 72}, {"time": 486, "pitch": 56, "duration": 1, "velocity": 76}, {"time": 489, "pitch": 42, "duration": 15, "velocity": 63}, {"time": 489, "pitch": 54, "duration": 7, "velocity": 63}, {"time": 492, "pitch": 56, "duration": 3, "velocity": 59}, {"time": 495, "pitch": 58, "duration": 4, "velocity": 67}, {"time": 498, "pitch": 54, "duration": 4, "velocity": 56}, {"time": 498, "pitch": 65, "duration": 6, "velocity": 95}, {"time": 501, "pitch": 66, "duration": 19, "velocity": 94}, {"time": 501, "pitch": 70, "duration": 18, "velocity": 91}, {"time": 501, "pitch": 73, "duration": 18, "velocity": 92}, {"time": 504, "pitch": 54, "duration": 1, "velocity": 47}, {"time": 507, "pitch": 42, "duration": 1, "velocity": 49}, {"time": 516, "pitch": 42, "duration": 10, "velocity": 79}, {"time": 519, "pitch": 54, "duration": 7, "velocity": 84}, {"time": 522, "pitch": 66, "duration": 1, "velocity": 87}, {"time": 525, "pitch": 66, "duration": 8, "velocity": 105}, {"time": 525, "pitch": 70, "duration": 9, "velocity": 101}, {"time": 525, "pitch": 73, "duration": 9, "velocity": 105}, {"time": 528, "pitch": 54, "duration": 4, "velocity": 80}, {"time": 531, "pitch": 42, "duration": 3, "velocity": 79}, {"time": 534, "pitch": 54, "duration": 1, "velocity": 67}, {"time": 537, "pitch": 39, "duration": 14, "velocity": 53}, {"time": 537, "pitch": 51, "duration": 6, "velocity": 55}, {"time": 537, "pitch": 63, "duration": 8, "velocity": 68}, {"time": 537, "pitch": 66, "duration": 8, "velocity": 70}, {"time": 537, "pitch": 70, "duration": 8, "velocity": 70}, {"time": 546, "pitch": 51, "duration": 4, "velocity": 51}, {"time": 549, "pitch": 63, "duration": 6, "velocity": 74}, {"time": 549, "pitch": 66, "duration": 6, "velocity": 71}, {"time": 549, "pitch": 70, "duration": 7, "velocity": 74}, {"time": 552, "pitch": 51, "duration": 4, "velocity": 63}, {"time": 555, "pitch": 39, "duration": 1, "velocity": 64}, {"time": 561, "pitch": 44, "duration": 15, "velocity": 50}, {"time": 561, "pitch": 56, "duration": 7, "velocity": 51}, {"time": 561, "pitch": 60, "duration": 9, "velocity": 63}, {"time": 561, "pitch": 63, "duration": 9, "velocity": 63}, {"time": 561, "pitch": 68, "duration": 9, "velocity": 68}, {"time": 570, "pitch": 56, "duration": 4, "velocity": 76}, {"time": 573, "pitch": 60, "duration": 7, "velocity": 87}, {"time": 573, "pitch": 63, "duration": 7, "velocity": 52}, {"time": 573, "pitch": 68, "duration": 7, "velocity": 83}, {"time": 576, "pitch": 56, "duration": 4, "velocity": 84}, {"time": 579, "pitch": 44, "duration": 1, "velocity": 72}, {"time": 585, "pitch": 46, "duration": 31, "velocity": 72}, {"time": 585, "pitch": 61, "duration": 4, "velocity": 63}, {"time": 585, "pitch": 65, "duration": 7, "velocity": 62}, {"time": 585, "pitch": 70, "duration": 6, "velocity": 71}, {"time": 588, "pitch": 58, "duration": 10, "velocity": 67}, {"time": 591, "pitch": 60, "duration": 3, "velocity": 53}, {"time": 594, "pitch": 61, "duration": 8, "velocity": 80}, {"time": 597, "pitch": 65, "duration": 4, "velocity": 74}, {"time": 597, "pitch": 70, "duration": 4, "velocity": 76}, {"time": 600, "pitch": 58, "duration": 10, "velocity": 47}, {"time": 603, "pitch": 60, "duration": 3, "velocity": 59}, {"time": 606, "pitch": 61, "duration": 6, "velocity": 54}, {"time": 612, "pitch": 58, "duration": 2, "velocity": 83}, {"time": 615, "pitch": 58, "duration": 2, "velocity": 64}, {"time": 618, "pitch": 60, "duration": 4, "velocity": 74}, {"time": 621, "pitch": 46, "duration": 5, "velocity": 84}, {"time": 621, "pitch": 61, "duration": 3, "velocity": 68}, {"time": 621, "pitch": 65, "duration": 4, "velocity": 83}, {"time": 621, "pitch": 70, "duration": 4, "velocity": 86}, {"time": 624, "pitch": 60, "duration": 3, "velocity": 76}, {"time": 627, "pitch": 58, "duration": 3, "velocity": 63}, {"time": 630, "pitch": 56, "duration": 4, "velocity": 65}, {"time": 633, "pitch": 46, "duration": 14, "velocity": 63}, {"time": 633, "pitch": 58, "duration": 5, "velocity": 62}, {"time": 636, "pitch": 60, "duration": 4, "velocity": 76}, {"time": 639, "pitch": 61, "duration": 4, "velocity": 69}, {"time": 642, "pitch": 58, "duration": 4, "velocity": 51}, {"time": 642, "pitch": 68, "duration": 9, "velocity": 99}, {"time": 645, "pitch": 65, "duration": 7, "velocity": 82}, {"time": 645, "pitch": 70, "duration": 7, "velocity": 80}, {"time": 645, "pitch": 73, "duration": 7, "velocity": 95}, {"time": 648, "pitch": 58, "duration": 3, "velocity": 51}, {"time": 651, "pitch": 46, "duration": 1, "velocity": 65}, {"time": 657, "pitch": 44, "duration": 15, "velocity": 63}, {"time": 657, "pitch": 56, "duration": 6, "velocity": 62}, {"time": 660, "pitch": 58, "duration": 4, "velocity": 59}, {"time": 663, "pitch": 60, "duration": 4, "velocity": 72}, {"time": 666, "pitch": 56, "duration": 4, "velocity": 72}, {"time": 666, "pitch": 68, "duration": 9, "velocity": 95}, {"time": 669, "pitch": 65, "duration": 7, "velocity": 96}, {"time": 669, "pitch": 68, "duration": 6, "velocity": 92}, {"time": 669, "pitch": 72, "duration": 7, "velocity": 100}, {"time": 672, "pitch": 56, "duration": 3, "velocity": 71}, {"time": 675, "pitch": 44, "duration": 3, "velocity": 72}, {"time": 678, "pitch": 56, "duration": 1, "velocity": 76}, {"time": 681, "pitch": 42, "duration": 15, "velocity": 63}, {"time": 681, "pitch": 54, "duration": 7, "velocity": 63}, {"time": 684, "pitch": 56, "duration": 3, "velocity": 59}, {"time": 687, "pitch": 58, "duration": 4, "velocity": 67}, {"time": 690, "pitch": 54, "duration": 4, "velocity": 56}, {"time": 690, "pitch": 65, "duration": 6, "velocity": 95}, {"time": 693, "pitch": 66, "duration": 19, "velocity": 94}, {"time": 693, "pitch": 70, "duration": 18, "velocity": 91}, {"time": 693, "pitch": 73, "duration": 18, "velocity": 92}, {"time": 696, "pitch": 54, "duration": 1, "velocity": 47}, {"time": 699, "pitch": 42, "duration": 1, "velocity": 49}, {"time": 708, "pitch": 42, "duration": 10, "velocity": 79}, {"time": 711, "pitch": 54, "duration": 7, "velocity": 84}, {"time": 714, "pitch": 66, "duration": 1, "velocity": 87}, {"time": 717, "pitch": 66, "duration": 8, "velocity": 105}, {"time": 717, "pitch": 70, "duration": 9, "velocity": 101}, {"time": 717, "pitch": 73, "duration": 9, "velocity": 105}, {"time": 720, "pitch": 54, "duration": 4, "velocity": 80}, {"time": 723, "pitch": 42, "duration": 3, "velocity": 79}, {"time": 729, "pitch": 46, "duration": 14, "velocity": 63}, {"time": 729, "pitch": 58, "duration": 5, "velocity": 62}, {"time": 732, "pitch": 60, "duration": 4, "velocity": 76}, {"time": 735, "pitch": 61, "duration": 4, "velocity": 69}, {"time": 738, "pitch": 58, "duration": 4, "velocity": 51}, {"time": 738, "pitch": 68, "duration": 9, "velocity": 99}, {"time": 741, "pitch": 65, "duration": 7, "velocity": 82}, {"time": 741, "pitch": 70, "duration": 7, "velocity": 80}, {"time": 741, "pitch": 73, "duration": 7, "velocity": 95}, {"time": 744, "pitch": 58, "duration": 3, "velocity": 51}, {"time": 747, "pitch": 46, "duration": 1, "velocity": 65}, {"time": 753, "pitch": 44, "duration": 15, "velocity": 63}, {"time": 753, "pitch": 56, "duration": 6, "velocity": 62}, {"time": 756, "pitch": 58, "duration": 4, "velocity": 59}, {"time": 759, "pitch": 60, "duration": 4, "velocity": 72}, {"time": 762, "pitch": 56, "duration": 4, "velocity": 72}, {"time": 762, "pitch": 68, "duration": 9, "velocity": 95}, {"time": 765, "pitch": 65, "duration": 7, "velocity": 96}, {"time": 765, "pitch": 68, "duration": 6, "velocity": 92}, {"time": 765, "pitch": 72, "duration": 7, "velocity": 100}, {"time": 768, "pitch": 56, "duration": 3, "velocity": 71}, {"time": 771, "pitch": 44, "duration": 3, "velocity": 72}, {"time": 774, "pitch": 56, "duration": 1, "velocity": 76}, {"time": 777, "pitch": 42, "duration": 15, "velocity": 63}, {"time": 777, "pitch": 54, "duration": 7, "velocity": 63}, {"time": 780, "pitch": 56, "duration": 3, "velocity": 59}, {"time": 783, "pitch": 58, "duration": 4, "velocity": 67}, {"time": 786, "pitch": 54, "duration": 4, "velocity": 56}, {"time": 786, "pitch": 65, "duration": 6, "velocity": 95}, {"time": 789, "pitch": 66, "duration": 19, "velocity": 94}, {"time": 789, "pitch": 70, "duration": 18, "velocity": 91}, {"time": 789, "pitch": 73, "duration": 18, "velocity": 92}, {"time": 792, "pitch": 54, "duration": 1, "velocity": 47}, {"time": 795, "pitch": 42, "duration": 1, "velocity": 49}, {"time": 804, "pitch": 42, "duration": 10, "velocity": 79}, {"time": 807, "pitch": 54, "duration": 7, "velocity": 84}, {"time": 810, "pitch": 66, "duration": 1, "velocity": 87}, {"time": 813, "pitch": 66, "duration": 8, "velocity": 105}, {"time": 813, "pitch": 70, "duration": 9, "velocity": 101}, {"time": 813, "pitch": 73, "duration": 9, "velocity": 105}, {"time": 816, "pitch": 54, "duration": 4, "velocity": 80}, {"time": 819, "pitch": 42, "duration": 3, "velocity": 79}, {"time": 822, "pitch": 54, "duration": 1, "velocity": 67}, {"time": 825, "pitch": 39, "duration": 18, "velocity": 61}, {"time": 825, "pitch": 58, "duration": 3, "velocity": 72}, {"time": 825, "pitch": 63, "duration": 5, "velocity": 69}, {"time": 825, "pitch": 66, "duration": 6, "velocity": 68}, {"time": 825, "pitch": 70, "duration": 6, "velocity": 79}, {"time": 828, "pitch": 51, "duration": 8, "velocity": 58}, {"time": 831, "pitch": 58, "duration": 9, "velocity": 62}, {"time": 834, "pitch": 63, "duration": 8, "velocity": 80}, {"time": 834, "pitch": 66, "duration": 13, "velocity": 82}, {"time": 834, "pitch": 70, "duration": 13, "velocity": 97}, {"time": 840, "pitch": 51, "duration": 3, "velocity": 61}, {"time": 843, "pitch": 58, "duration": 2, "velocity": 61}, {"time": 846, "pitch": 63, "duration": 1, "velocity": 53}, {"time": 849, "pitch": 44, "duration": 20, "velocity": 68}, {"time": 849, "pitch": 60, "duration": 4, "velocity": 67}, {"time": 849, "pitch": 63, "duration": 6, "velocity": 50}, {"time": 849, "pitch": 68, "duration": 5, "velocity": 74}, {"time": 852, "pitch": 56, "duration": 8, "velocity": 72}, {"time": 855, "pitch": 60, "duration": 4, "velocity": 85}, {"time": 858, "pitch": 63, "duration": 7, "velocity": 97}, {"time": 858, "pitch": 68, "duration": 7, "velocity": 107}, {"time": 864, "pitch": 56, "duration": 6, "velocity": 75}, {"time": 867, "pitch": 60, "duration": 3, "velocity": 67}, {"time": 870, "pitch": 63, "duration": 3, "velocity": 63}, {"time": 870, "pitch": 68, "duration": 3, "velocity": 79}, {"time": 873, "pitch": 46, "duration": 20, "velocity": 68}, {"time": 873, "pitch": 61, "duration": 3, "velocity": 63}, {"time": 873, "pitch": 65, "duration": 5, "velocity": 56}, {"time": 873, "pitch": 70, "duration": 5, "velocity": 71}, {"time": 876, "pitch": 58, "duration": 8, "velocity": 76}, {"time": 879, "pitch": 61, "duration": 2, "velocity": 77}, {"time": 882, "pitch": 61, "duration": 6, "velocity": 72}, {"time": 882, "pitch": 65, "duration": 7, "velocity": 86}, {"time": 882, "pitch": 70, "duration": 7, "velocity": 101}, {"time": 888, "pitch": 58, "duration": 6, "velocity": 61}, {"time": 891, "pitch": 61, "duration": 2, "velocity": 52}, {"time": 894, "pitch": 61, "duration": 5, "velocity": 80}, {"time": 894, "pitch": 65, "duration": 6, "velocity": 83}, {"time": 894, "pitch": 70, "duration": 7, "velocity": 99}, {"time": 897, "pitch": 46, "duration": 18, "velocity": 88}, {"time": 900, "pitch": 58, "duration": 7, "velocity": 81}, {"time": 903, "pitch": 61, "duration": 1, "velocity": 63}, {"time": 906, "pitch": 61, "duration": 1, "velocity": 72}, {"time": 906, "pitch": 65, "duration": 2, "velocity": 67}, {"time": 906, "pitch": 70, "duration": 2, "velocity": 89}, {"time": 909, "pitch": 61, "duration": 3, "velocity": 90}, {"time": 909, "pitch": 65, "duration": 3, "velocity": 55}, {"time": 909, "pitch": 72, "duration": 3, "velocity": 93}, {"time": 912, "pitch": 58, "duration": 6, "velocity": 65}, {"time": 915, "pitch": 61, "duration": 3, "velocity": 91}, {"time": 915, "pitch": 65, "duration": 3, "velocity": 76}, {"time": 915, "pitch": 70, "duration": 4, "velocity": 89}, {"time": 918, "pitch": 46, "duration": 1, "velocity": 80}, {"time": 921, "pitch": 42, "duration": 19, "velocity": 58}, {"time": 921, "pitch": 61, "duration": 3, "velocity": 72}, {"time": 921, "pitch": 66, "duration": 6, "velocity": 76}, {"time": 921, "pitch": 70, "duration": 6, "velocity": 83}, {"time": 924, "pitch": 54, "duration": 7, "velocity": 51}, {"time": 927, "pitch": 61, "duration": 1, "velocity": 47}, {"time": 930, "pitch": 61, "duration": 5, "velocity": 94}, {"time": 930, "pitch": 66, "duration": 6, "velocity": 89}, {"time": 930, "pitch": 70, "duration": 6, "velocity": 97}, {"time": 936, "pitch": 54, "duration": 4, "velocity": 67}, {"time": 939, "pitch": 61, "duration": 2, "velocity": 87}, {"time": 939, "pitch": 66, "duration": 3, "velocity": 78}, {"time": 939, "pitch": 70, "duration": 3, "velocity": 94}, {"time": 942, "pitch": 54, "duration": 1, "velocity": 63}, {"time": 945, "pitch": 44, "duration": 19, "velocity": 67}, {"time": 945, "pitch": 60, "duration": 4, "velocity": 83}, {"time": 945, "pitch": 63, "duration": 5, "velocity": 81}, {"time": 945, "pitch": 68, "duration": 5, "velocity": 84}, {"time": 948, "pitch": 56, "duration": 9, "velocity": 63}, {"time": 951, "pitch": 60, "duration": 1, "velocity": 71}, {"time": 954, "pitch": 60, "duration": 6, "velocity": 100}, {"time": 954, "pitch": 63, "duration": 7, "velocity": 92}, {"time": 954, "pitch": 68, "duration": 7, "velocity": 99}, {"time": 960, "pitch": 56, "duration": 3, "velocity": 75}, {"time": 963, "pitch": 60, "duration": 3, "velocity": 94}, {"time": 963, "pitch": 63, "duration": 3, "velocity": 87}, {"time": 963, "pitch": 68, "duration": 2, "velocity": 91}, {"time": 966, "pitch": 56, "duration": 1, "velocity": 83}, {"time": 969, "pitch": 41, "duration": 20, "velocity": 72}, {"time": 969, "pitch": 56, "duration": 6, "velocity": 80}, {"time": 969, "pitch": 60, "duration": 5, "velocity": 72}, {"time": 969, "pitch": 65, "duration": 6, "velocity": 83}, {"time": 975, "pitch": 53, "duration": 5, "velocity": 56}, {"time": 978, "pitch": 56, "duration": 4, "velocity": 102}, {"time": 978, "pitch": 60, "duration": 4, "velocity": 84}, {"time": 978, "pitch": 65, "duration": 4, "velocity": 89}, {"time": 987, "pitch": 53, "duration": 2, "velocity": 85}, {"time": 993, "pitch": 46, "duration": 18, "velocity": 74}, {"time": 993, "pitch": 61, "duration": 3, "velocity": 75}, {"time": 993, "pitch": 65, "duration": 4, "velocity": 58}, {"time": 993, "pitch": 70, "duration": 4, "velocity": 82}, {"time": 996, "pitch": 58, "duration": 8, "velocity": 64}, {"time": 999, "pitch": 61, "duration": 1, "velocity": 63}, {"time": 1002, "pitch": 61, "duration": 5, "velocity": 94}, {"time": 1002, "pitch": 65, "duration": 5, "velocity": 83}, {"time": 1002, "pitch": 70, "duration": 6, "velocity": 95}, {"time": 1008, "pitch": 58, "duration": 6, "velocity": 84}, {"time": 1011, "pitch": 61, "duration": 2, "velocity": 85}, {"time": 1011, "pitch": 65, "duration": 3, "velocity": 78}, {"time": 1011, "pitch": 70, "duration": 3, "velocity": 86}, {"time": 1014, "pitch": 46, "duration": 1, "velocity": 77}, {"time": 1017, "pitch": 39, "duration": 18, "velocity": 81}, {"time": 1017, "pitch": 51, "duration": 2, "velocity": 67}, {"time": 1017, "pitch": 63, "duration": 5, "velocity": 87}, {"time": 1017, "pitch": 66, "duration": 5, "velocity": 84}, {"time": 1017, "pitch": 70, "duration": 5, "velocity": 86}, {"time": 1020, "pitch": 51, "duration": 9, "velocity": 87}, {"time": 1023, "pitch": 63, "duration": 1, "velocity": 80}, {"time": 1026, "pitch": 63, "duration": 5, "velocity": 100}, {"time": 1026, "pitch": 66, "duration": 7, "velocity": 97}, {"time": 1026, "pitch": 70, "duration": 11, "velocity": 95}, {"time": 1032, "pitch": 51, "duration": 6, "velocity": 88}, {"time": 1035, "pitch": 63, "duration": 2, "velocity": 75}, {"time": 1035, "pitch": 66, "duration": 1, "velocity": 19}, {"time": 1038, "pitch": 39, "duration": 1, "velocity": 75}, {"time": 1041, "pitch": 44, "duration": 16, "velocity": 72}, {"time": 1041, "pitch": 56, "duration": 5, "velocity": 71}, {"time": 1041, "pitch": 60, "duration": 9, "velocity": 88}, {"time": 1041, "pitch": 63, "duration": 8, "velocity": 83}, {"time": 1041, "pitch": 68, "duration": 8, "velocity": 87}, {"time": 1050, "pitch": 56, "duration": 4, "velocity": 92}, {"time": 1053, "pitch": 60, "duration": 6, "velocity": 104}, {"time": 1053, "pitch": 63, "duration": 7, "velocity": 97}, {"time": 1053, "pitch": 68, "duration": 7, "velocity": 105}, {"time": 1056, "pitch": 56, "duration": 7, "velocity": 83}, {"time": 1059, "pitch": 44, "duration": 2, "velocity": 81}, {"time": 1062, "pitch": 44, "duration": 1, "velocity": 35}, {"time": 1065, "pitch": 46, "duration": 21, "velocity": 90}, {"time": 1065, "pitch": 61, "duration": 6, "velocity": 92}, {"time": 1065, "pitch": 63, "duration": 5, "velocity": 71}, {"time": 1065, "pitch": 68, "duration": 5, "velocity": 91}, {"time": 1071, "pitch": 58, "duration": 6, "velocity": 59}, {"time": 1074, "pitch": 61, "duration": 6, "velocity": 92}, {"time": 1074, "pitch": 63, "duration": 6, "velocity": 90}, {"time": 1074, "pitch": 68, "duration": 6, "velocity": 105}, {"time": 1080, "pitch": 58, "duration": 6, "velocity": 90}, {"time": 1083, "pitch": 61, "duration": 2, "velocity": 80}, {"time": 1083, "pitch": 68, "duration": 2, "velocity": 83}, {"time": 1089, "pitch": 46, "duration": 13, "velocity": 92}, {"time": 1089, "pitch": 58, "duration": 6, "velocity": 92}, {"time": 1089, "pitch": 62, "duration": 5, "velocity": 71}, {"time": 1089, "pitch": 65, "duration": 5, "velocity": 91}, {"time": 1092, "pitch": 62, "duration": 2, "velocity": 85}, {"time": 1092, "pitch": 65, "duration": 2, "velocity": 78}, {"time": 1092, "pitch": 70, "duration": 4, "velocity": 91}, {"time": 1095, "pitch": 58, "duration": 7, "velocity": 92}, {"time": 1098, "pitch": 62, "duration": 1, "velocity": 88}, {"time": 1101, "pitch": 62, "duration": 3, "velocity": 110}, {"time": 1101, "pitch": 65, "duration": 3, "velocity": 95}, {"time": 1101, "pitch": 70, "duration": 3, "velocity": 109}, {"time": 1104, "pitch": 58, "duration": 4, "velocity": 92}, {"time": 1107, "pitch": 46, "duration": 2, "velocity": 81}, {"time": 1107, "pitch": 62, "duration": 3, "velocity": 92}, {"time": 1107, "pitch": 65, "duration": 3, "velocity": 71}, {"time": 1107, "pitch": 70, "duration": 3, "velocity": 103}, {"time": 1110, "pitch": 58, "duration": 1, "velocity": 80}, {"time": 1113, "pitch": 42, "duration": 15, "velocity": 85}, {"time": 1113, "pitch": 54, "duration": 5, "velocity": 88}, {"time": 1113, "pitch": 61, "duration": 7, "velocity": 94}, {"time": 1113, "pitch": 66, "duration": 7, "velocity": 91}, {"time": 1113, "pitch": 70, "duration": 7, "velocity": 94}, {"time": 1122, "pitch": 54, "duration": 4, "velocity": 95}, {"time": 1125, "pitch": 61, "duration": 4, "velocity": 99}, {"time": 1125, "pitch": 66, "duration": 7, "velocity": 97}, {"time": 1125, "pitch": 70, "duration": 7, "velocity": 105}, {"time": 1128, "pitch": 54, "duration": 4, "velocity": 83}, {"time": 1131, "pitch": 42, "duration": 1, "velocity": 75}, {"time": 1134, "pitch": 61, "duration": 1, "velocity": 68}, {"time": 1134, "pitch": 70, "duration": 1, "velocity": 38}, {"time": 1137, "pitch": 44, "duration": 18, "velocity": 68}, {"time": 1137, "pitch": 56, "duration": 3, "velocity": 71}, {"time": 1137, "pitch": 60, "duration": 4, "velocity": 84}, {"time": 1137, "pitch": 63, "duration": 5, "velocity": 81}, {"time": 1137, "pitch": 68, "duration": 5, "velocity": 83}, {"time": 1140, "pitch": 56, "duration": 10, "velocity": 92}, {"time": 1143, "pitch": 60, "duration": 2, "velocity": 90}, {"time": 1146, "pitch": 60, "duration": 6, "velocity": 106}, {"time": 1146, "pitch": 63, "duration": 6, "velocity": 102}, {"time": 1146, "pitch": 68, "duration": 6, "velocity": 109}, {"time": 1152, "pitch": 56, "duration": 6, "velocity": 90}, {"time": 1155, "pitch": 60, "duration": 2, "velocity": 95}, {"time": 1155, "pitch": 63, "duration": 2, "velocity": 90}, {"time": 1155, "pitch": 68, "duration": 2, "velocity": 95}, {"time": 1158, "pitch": 44, "duration": 1, "velocity": 68}, {"time": 1161, "pitch": 41, "duration": 17, "velocity": 63}, {"time": 1161, "pitch": 56, "duration": 4, "velocity": 77}, {"time": 1161, "pitch": 60, "duration": 5, "velocity": 76}, {"time": 1161, "pitch": 65, "duration": 5, "velocity": 79}, {"time": 1164, "pitch": 53, "duration": 10, "velocity": 65}, {"time": 1167, "pitch": 56, "duration": 1, "velocity": 59}, {"time": 1170, "pitch": 56, "duration": 6, "velocity": 102}, {"time": 1170, "pitch": 60, "duration": 7, "velocity": 88}, {"time": 1170, "pitch": 65, "duration": 11, "velocity": 93}, {"time": 1176, "pitch": 53, "duration": 3, "velocity": 56}, {"time": 1179, "pitch": 56, "duration": 2, "velocity": 59}, {"time": 1182, "pitch": 60, "duration": 1, "velocity": 35}, {"time": 1185, "pitch": 46, "duration": 15, "velocity": 69}, {"time": 1185, "pitch": 61, "duration": 3, "velocity": 85}, {"time": 1185, "pitch": 65, "duration": 6, "velocity": 58}, {"time": 1185, "pitch": 70, "duration": 6, "velocity": 97}, {"time": 1188, "pitch": 58, "duration": 7, "velocity": 71}, {"time": 1191, "pitch": 61, "duration": 1, "velocity": 72}, {"time": 1194, "pitch": 61, "duration": 4, "velocity": 100}, {"time": 1194, "pitch": 65, "duration": 7, "velocity": 90}, {"time": 1194, "pitch": 70, "duration": 8, "velocity": 105}, {"time": 1197, "pitch": 58, "duration": 8, "velocity": 85}, {"time": 1200, "pitch": 61, "duration": 4, "velocity": 79}, {"time": 1203, "pitch": 68, "duration": 2, "velocity": 87}, {"time": 1206, "pitch": 46, "duration": 1, "velocity": 62}, {"time": 1209, "pitch": 39, "duration": 18, "velocity": 76}, {"time": 1209, "pitch": 58, "duration": 3, "velocity": 80}, {"time": 1209, "pitch": 63, "duration": 5, "velocity": 75}, {"time": 1209, "pitch": 66, "duration": 5, "velocity": 84}, {"time": 1212, "pitch": 51, "duration": 10, "velocity": 72}, {"time": 1215, "pitch": 58, "duration": 1, "velocity": 72}, {"time": 1218, "pitch": 58, "duration": 6, "velocity": 106}, {"time": 1218, "pitch": 63, "duration": 9, "velocity": 94}, {"time": 1218, "pitch": 66, "duration": 12, "velocity": 111}, {"time": 1224, "pitch": 51, "duration": 6, "velocity": 83}, {"time": 1227, "pitch": 58, "duration": 2, "velocity": 59}, {"time": 1230, "pitch": 39, "duration": 1, "velocity": 62}, {"time": 1230, "pitch": 63, "duration": 1, "velocity": 49}, {"time": 1233, "pitch": 44, "duration": 21, "velocity": 84}, {"time": 1233, "pitch": 60, "duration": 4, "velocity": 85}, {"time": 1233, "pitch": 63, "duration": 6, "velocity": 76}, {"time": 1233, "pitch": 68, "duration": 6, "velocity": 92}, {"time": 1236, "pitch": 56, "duration": 10, "velocity": 84}, {"time": 1239, "pitch": 60, "duration": 1, "velocity": 69}, {"time": 1242, "pitch": 60, "duration": 8, "velocity": 110}, {"time": 1242, "pitch": 63, "duration": 5, "velocity": 99}, {"time": 1242, "pitch": 68, "duration": 8, "velocity": 111}, {"time": 1248, "pitch": 56, "duration": 4, "velocity": 88}, {"time": 1251, "pitch": 60, "duration": 1, "velocity": 35}, {"time": 1251, "pitch": 63, "duration": 4, "velocity": 108}, {"time": 1251, "pitch": 68, "duration": 1, "velocity": 47}, {"time": 1254, "pitch": 56, "duration": 1, "velocity": 79}, {"time": 1254, "pitch": 68, "duration": 1, "velocity": 18}, {"time": 1257, "pitch": 46, "duration": 22, "velocity": 99}, {"time": 1260, "pitch": 63, "duration": 4, "velocity": 97}, {"time": 1260, "pitch": 68, "duration": 4, "velocity": 101}, {"time": 1263, "pitch": 58, "duration": 7, "velocity": 90}, {"time": 1266, "pitch": 63, "duration": 7, "velocity": 106}, {"time": 1266, "pitch": 68, "duration": 8, "velocity": 105}, {"time": 1272, "pitch": 58, "duration": 4, "velocity": 87}, {"time": 1275, "pitch": 63, "duration": 4, "velocity": 110}, {"time": 1275, "pitch": 68, "duration": 1, "velocity": 44}, {"time": 1278, "pitch": 58, "duration": 1, "velocity": 74}, {"time": 1281, "pitch": 34, "duration": 5, "velocity": 59}, {"time": 1281, "pitch": 46, "duration": 7, "velocity": 76}, {"time": 1281, "pitch": 58, "duration": 2, "velocity": 94}, {"time": 1281, "pitch": 62, "duration": 2, "velocity": 84}, {"time": 1281, "pitch": 65, "duration": 4, "velocity": 89}, {"time": 1284, "pitch": 58, "duration": 1, "velocity": 72}, {"time": 1287, "pitch": 58, "duration": 3, "velocity": 77}, {"time": 1287, "pitch": 62, "duration": 3, "velocity": 56}, {"time": 1287, "pitch": 65, "duration": 3, "velocity": 63}, {"time": 1290, "pitch": 34, "duration": 9, "velocity": 106}, {"time": 1293, "pitch": 46, "duration": 1, "velocity": 102}, {"time": 1293, "pitch": 58, "duration": 3, "velocity": 111}, {"time": 1293, "pitch": 62, "duration": 3, "velocity": 91}, {"time": 1293, "pitch": 65, "duration": 3, "velocity": 93}, {"time": 1293, "pitch": 70, "duration": 3, "velocity": 107}, {"time": 1296, "pitch": 46, "duration": 6, "velocity": 116}, {"time": 1299, "pitch": 56, "duration": 2, "velocity": 111}, {"time": 1299, "pitch": 68, "duration": 3, "velocity": 97}, {"time": 1302, "pitch": 34, "duration": 1, "velocity": 94}, {"time": 1305, "pitch": 46, "duration": 15, "velocity": 62}, {"time": 1305, "pitch": 53, "duration": 6, "velocity": 56}, {"time": 1305, "pitch": 61, "duration": 9, "velocity": 80}, {"time": 1305, "pitch": 65, "duration": 9, "velocity": 70}, {"time": 1305, "pitch": 70, "duration": 9, "velocity": 86}, {"time": 1314, "pitch": 53, "duration": 3, "velocity": 45}, {"time": 1317, "pitch": 61, "duration": 4, "velocity": 95}, {"time": 1317, "pitch": 65, "duration": 10, "velocity": 89}, {"time": 1317, "pitch": 70, "duration": 10, "velocity": 103}, {"time": 1320, "pitch": 53, "duration": 3, "velocity": 67}, {"time": 1323, "pitch": 46, "duration": 1, "velocity": 62}, {"time": 1326, "pitch": 61, "duration": 1, "velocity": 67}, {"time": 1329, "pitch": 44, "duration": 15, "velocity": 62}, {"time": 1329, "pitch": 56, "duration": 7, "velocity": 63}, {"time": 1329, "pitch": 60, "duration": 9, "velocity": 74}, {"time": 1329, "pitch": 63, "duration": 9, "velocity": 64}, {"time": 1329, "pitch": 68, "duration": 9, "velocity": 74}, {"time": 1338, "pitch": 56, "duration": 4, "velocity": 79}, {"time": 1341, "pitch": 60, "duration": 6, "velocity": 102}, {"time": 1341, "pitch": 63, "duration": 7, "velocity": 92}, {"time": 1341, "pitch": 68, "duration": 8, "velocity": 107}, {"time": 1344, "pitch": 56, "duration": 3, "velocity": 81}, {"time": 1347, "pitch": 44, "duration": 1, "velocity": 77}, {"time": 1350, "pitch": 60, "duration": 1, "velocity": 43}, {"time": 1353, "pitch": 41, "duration": 15, "velocity": 67}, {"time": 1353, "pitch": 53, "duration": 7, "velocity": 63}, {"time": 1353, "pitch": 56, "duration": 8, "velocity": 79}, {"time": 1353, "pitch": 60, "duration": 8, "velocity": 67}, {"time": 1353, "pitch": 65, "duration": 8, "velocity": 53}, {"time": 1362, "pitch": 53, "duration": 4, "velocity": 63}, {"time": 1365, "pitch": 56, "duration": 4, "velocity": 100}, {"time": 1365, "pitch": 60, "duration": 5, "velocity": 81}, {"time": 1365, "pitch": 63, "duration": 7, "velocity": 83}, {"time": 1365, "pitch": 65, "duration": 8, "velocity": 92}, {"time": 1368, "pitch": 53, "duration": 6, "velocity": 77}, {"time": 1371, "pitch": 41, "duration": 3, "velocity": 62}, {"time": 1374, "pitch": 56, "duration": 1, "velocity": 79}, {"time": 1377, "pitch": 46, "duration": 16, "velocity": 63}, {"time": 1377, "pitch": 53, "duration": 5, "velocity": 50}, {"time": 1377, "pitch": 58, "duration": 7, "velocity": 72}, {"time": 1377, "pitch": 61, "duration": 6, "velocity": 67}, {"time": 1377, "pitch": 65, "duration": 7, "velocity": 73}, {"time": 1386, "pitch": 53, "duration": 4, "velocity": 67}, {"time": 1389, "pitch": 58, "duration": 7, "velocity": 90}, {"time": 1389, "pitch": 61, "duration": 7, "velocity": 84}, {"time": 1389, "pitch": 65, "duration": 4, "velocity": 86}, {"time": 1392, "pitch": 53, "duration": 4, "velocity": 84}, {"time": 1392, "pitch": 68, "duration": 4, "velocity": 94}, {"time": 1395, "pitch": 46, "duration": 1, "velocity": 77}, {"time": 1401, "pitch": 39, "duration": 16, "velocity": 69}, {"time": 1401, "pitch": 51, "duration": 6, "velocity": 65}, {"time": 1401, "pitch": 58, "duration": 5, "velocity": 75}, {"time": 1401, "pitch": 63, "duration": 7, "velocity": 67}, {"time": 1401, "pitch": 66, "duration": 8, "velocity": 84}, {"time": 1410, "pitch": 51, "duration": 4, "velocity": 83}, {"time": 1413, "pitch": 58, "duration": 7, "velocity": 108}, {"time": 1413, "pitch": 63, "duration": 7, "velocity": 95}, {"time": 1413, "pitch": 66, "duration": 8, "velocity": 99}, {"time": 1416, "pitch": 51, "duration": 4, "velocity": 88}, {"time": 1419, "pitch": 39, "duration": 1, "velocity": 67}, {"time": 1425, "pitch": 41, "duration": 16, "velocity": 59}, {"time": 1425, "pitch": 60, "duration": 8, "velocity": 63}, {"time": 1425, "pitch": 63, "duration": 9, "velocity": 67}, {"time": 1425, "pitch": 65, "duration": 8, "velocity": 63}, {"time": 1425, "pitch": 68, "duration": 8, "velocity": 71}, {"time": 1434, "pitch": 51, "duration": 4, "velocity": 52}, {"time": 1437, "pitch": 56, "duration": 5, "velocity": 88}, {"time": 1437, "pitch": 60, "duration": 6, "velocity": 72}, {"time": 1437, "pitch": 63, "duration": 7, "velocity": 84}, {"time": 1437, "pitch": 65, "duration": 6, "velocity": 86}, {"time": 1440, "pitch": 51, "duration": 4, "velocity": 84}, {"time": 1443, "pitch": 41, "duration": 1, "velocity": 63}, {"time": 1449, "pitch": 46, "duration": 39, "velocity": 52}, {"time": 1449, "pitch": 53, "duration": 7, "velocity": 52}, {"time": 1449, "pitch": 58, "duration": 7, "velocity": 67}, {"time": 1449, "pitch": 61, "duration": 7, "velocity": 62}, {"time": 1449, "pitch": 65, "duration": 7, "velocity": 64}, {"time": 1458, "pitch": 58, "duration": 4, "velocity": 77}, {"time": 1458, "pitch": 61, "duration": 1, "velocity": 39}, {"time": 1458, "pitch": 65, "duration": 4, "velocity": 30}, {"time": 1458, "pitch": 70, "duration": 4, "velocity": 95}, {"time": 1464, "pitch": 53, "duration": 6, "velocity": 69}, {"time": 1467, "pitch": 58, "duration": 6, "velocity": 99}, {"time": 1467, "pitch": 61, "duration": 6, "velocity": 76}, {"time": 1467, "pitch": 65, "duration": 7, "velocity": 75}, {"time": 1467, "pitch": 68, "duration": 6, "velocity": 99}, {"time": 1476, "pitch": 58, "duration": 6, "velocity": 84}, {"time": 1476, "pitch": 61, "duration": 6, "velocity": 56}, {"time": 1476, "pitch": 65, "duration": 6, "velocity": 39}, {"time": 1476, "pitch": 70, "duration": 6, "velocity": 87}, {"time": 1482, "pitch": 53, "duration": 4, "velocity": 69}, {"time": 1485, "pitch": 58, "duration": 6, "velocity": 99}, {"time": 1485, "pitch": 61, "duration": 7, "velocity": 59}, {"time": 1485, "pitch": 65, "duration": 7, "velocity": 71}, {"time": 1485, "pitch": 70, "duration": 7, "velocity": 94}, {"time": 1497, "pitch": 46, "duration": 14, "velocity": 63}, {"time": 1497, "pitch": 58, "duration": 5, "velocity": 62}, {"time": 1500, "pitch": 60, "duration": 4, "velocity": 76}, {"time": 1503, "pitch": 61, "duration": 4, "velocity": 69}, {"time": 1506, "pitch": 58, "duration": 4, "velocity": 51}, {"time": 1506, "pitch": 68, "duration": 9, "velocity": 99}, {"time": 1509, "pitch": 65, "duration": 7, "velocity": 82}, {"time": 1509, "pitch": 70, "duration": 7, "velocity": 80}, {"time": 1509, "pitch": 73, "duration": 7, "velocity": 95}, {"time": 1512, "pitch": 58, "duration": 3, "velocity": 51}, {"time": 1515, "pitch": 46, "duration": 1, "velocity": 65}, {"time": 1521, "pitch": 44, "duration": 15, "velocity": 63}, {"time": 1521, "pitch": 56, "duration": 6, "velocity": 62}, {"time": 1524, "pitch": 58, "duration": 4, "velocity": 59}, {"time": 1527, "pitch": 60, "duration": 4, "velocity": 72}, {"time": 1530, "pitch": 56, "duration": 4, "velocity": 72}, {"time": 1530, "pitch": 68, "duration": 9, "velocity": 95}, {"time": 1533, "pitch": 65, "duration": 7, "velocity": 96}, {"time": 1533, "pitch": 68, "duration": 6, "velocity": 92}, {"time": 1533, "pitch": 72, "duration": 7, "velocity": 100}, {"time": 1536, "pitch": 56, "duration": 3, "velocity": 71}, {"time": 1539, "pitch": 44, "duration": 3, "velocity": 72}, {"time": 1542, "pitch": 56, "duration": 1, "velocity": 76}, {"time": 1545, "pitch": 42, "duration": 15, "velocity": 63}, {"time": 1545, "pitch": 54, "duration": 7, "velocity": 63}, {"time": 1548, "pitch": 56, "duration": 3, "velocity": 59}, {"time": 1551, "pitch": 58, "duration": 4, "velocity": 67}, {"time": 1554, "pitch": 54, "duration": 4, "velocity": 56}, {"time": 1554, "pitch": 65, "duration": 6, "velocity": 95}, {"time": 1557, "pitch": 66, "duration": 19, "velocity": 94}, {"time": 1557, "pitch": 70, "duration": 18, "velocity": 91}, {"time": 1557, "pitch": 73, "duration": 18, "velocity": 92}, {"time": 1560, "pitch": 54, "duration": 1, "velocity": 47}, {"time": 1563, "pitch": 42, "duration": 1, "velocity": 49}, {"time": 1572, "pitch": 42, "duration": 10, "velocity": 79}, {"time": 1575, "pitch": 54, "duration": 7, "velocity": 84}, {"time": 1578, "pitch": 66, "duration": 1, "velocity": 87}, {"time": 1581, "pitch": 66, "duration": 8, "velocity": 105}, {"time": 1581, "pitch": 70, "duration": 9, "velocity": 101}, {"time": 1581, "pitch": 73, "duration": 9, "velocity": 105}, {"time": 1584, "pitch": 54, "duration": 4, "velocity": 80}, {"time": 1587, "pitch": 42, "duration": 3, "velocity": 79}, {"time": 1593, "pitch": 46, "duration": 14, "velocity": 63}, {"time": 1593, "pitch": 58, "duration": 5, "velocity": 62}, {"time": 1596, "pitch": 60, "duration": 4, "velocity": 76}, {"time": 1599, "pitch": 61, "duration": 4, "velocity": 69}, {"time": 1602, "pitch": 58, "duration": 4, "velocity": 51}, {"time": 1602, "pitch": 68, "duration": 9, "velocity": 99}, {"time": 1605, "pitch": 65, "duration": 7, "velocity": 82}, {"time": 1605, "pitch": 70, "duration": 7, "velocity": 80}, {"time": 1605, "pitch": 73, "duration": 7, "velocity": 95}, {"time": 1608, "pitch": 58, "duration": 3, "velocity": 51}, {"time": 1611, "pitch": 46, "duration": 1, "velocity": 65}, {"time": 1617, "pitch": 44, "duration": 15, "velocity": 63}, {"time": 1617, "pitch": 56, "duration": 6, "velocity": 62}, {"time": 1620, "pitch": 58, "duration": 4, "velocity": 59}, {"time": 1623, "pitch": 60, "duration": 4, "velocity": 72}, {"time": 1626, "pitch": 56, "duration": 4, "velocity": 72}, {"time": 1626, "pitch": 68, "duration": 9, "velocity": 95}, {"time": 1629, "pitch": 65, "duration": 7, "velocity": 96}, {"time": 1629, "pitch": 68, "duration": 6, "velocity": 92}, {"time": 1629, "pitch": 72, "duration": 7, "velocity": 100}, {"time": 1632, "pitch": 56, "duration": 3, "velocity": 71}, {"time": 1635, "pitch": 44, "duration": 3, "velocity": 72}, {"time": 1638, "pitch": 56, "duration": 1, "velocity": 76}, {"time": 1641, "pitch": 42, "duration": 15, "velocity": 63}, {"time": 1641, "pitch": 54, "duration": 7, "velocity": 63}, {"time": 1644, "pitch": 56, "duration": 3, "velocity": 59}, {"time": 1647, "pitch": 58, "duration": 4, "velocity": 67}, {"time": 1650, "pitch": 54, "duration": 4, "velocity": 56}, {"time": 1650, "pitch": 65, "duration": 6, "velocity": 95}, {"time": 1653, "pitch": 66, "duration": 19, "velocity": 94}, {"time": 1653, "pitch": 70, "duration": 18, "velocity": 91}, {"time": 1653, "pitch": 73, "duration": 18, "velocity": 92}, {"time": 1656, "pitch": 54, "duration": 1, "velocity": 47}, {"time": 1659, "pitch": 42, "duration": 1, "velocity": 49}, {"time": 1668, "pitch": 42, "duration": 10, "velocity": 79}, {"time": 1671, "pitch": 54, "duration": 7, "velocity": 84}, {"time": 1674, "pitch": 66, "duration": 1, "velocity": 87}, {"time": 1677, "pitch": 66, "duration": 8, "velocity": 105}, {"time": 1677, "pitch": 70, "duration": 9, "velocity": 101}, {"time": 1677, "pitch": 73, "duration": 9, "velocity": 105}, {"time": 1680, "pitch": 54, "duration": 4, "velocity": 80}, {"time": 1683, "pitch": 42, "duration": 3, "velocity": 79}, {"time": 1686, "pitch": 54, "duration": 1, "velocity": 67}, {"time": 1689, "pitch": 39, "duration": 18, "velocity": 61}, {"time": 1689, "pitch": 58, "duration": 3, "velocity": 72}, {"time": 1689, "pitch": 63, "duration": 5, "velocity": 69}, {"time": 1689, "pitch": 66, "duration": 6, "velocity": 68}, {"time": 1689, "pitch": 70, "duration": 6, "velocity": 79}, {"time": 1692, "pitch": 51, "duration": 8, "velocity": 58}, {"time": 1695, "pitch": 58, "duration": 9, "velocity": 62}, {"time": 1698, "pitch": 63, "duration": 8, "velocity": 80}, {"time": 1698, "pitch": 66, "duration": 13, "velocity": 82}, {"time": 1698, "pitch": 70, "duration": 13, "velocity": 97}, {"time": 1704, "pitch": 51, "duration": 3, "velocity": 61}, {"time": 1707, "pitch": 58, "duration": 2, "velocity": 61}, {"time": 1710, "pitch": 63, "duration": 1, "velocity": 53}, {"time": 1713, "pitch": 44, "duration": 20, "velocity": 68}, {"time": 1713, "pitch": 60, "duration": 4, "velocity": 67}, {"time": 1713, "pitch": 63, "duration": 6, "velocity": 50}, {"time": 1713, "pitch": 68, "duration": 5, "velocity": 74}, {"time": 1716, "pitch": 56, "duration": 8, "velocity": 72}, {"time": 1719, "pitch": 60, "duration": 4, "velocity": 85}, {"time": 1722, "pitch": 63, "duration": 7, "velocity": 97}, {"time": 1722, "pitch": 68, "duration": 7, "velocity": 107}, {"time": 1728, "pitch": 56, "duration": 6, "velocity": 75}, {"time": 1731, "pitch": 60, "duration": 3, "velocity": 67}, {"time": 1734, "pitch": 63, "duration": 3, "velocity": 63}, {"time": 1734, "pitch": 68, "duration": 3, "velocity": 79}, {"time": 1737, "pitch": 46, "duration": 20, "velocity": 68}, {"time": 1737, "pitch": 61, "duration": 3, "velocity": 63}, {"time": 1737, "pitch": 65, "duration": 5, "velocity": 56}, {"time": 1737, "pitch": 70, "duration": 5, "velocity": 71}, {"time": 1740, "pitch": 58, "duration": 8, "velocity": 76}, {"time": 1743, "pitch": 61, "duration": 2, "velocity": 77}, {"time": 1746, "pitch": 61, "duration": 6, "velocity": 72}, {"time": 1746, "pitch": 65, "duration": 7, "velocity": 86}, {"time": 1746, "pitch": 70, "duration": 7, "velocity": 101}, {"time": 1752, "pitch": 58, "duration": 6, "velocity": 61}, {"time": 1755, "pitch": 61, "duration": 2, "velocity": 52}, {"time": 1758, "pitch": 61, "duration": 5, "velocity": 80}, {"time": 1758, "pitch": 65, "duration": 6, "velocity": 83}, {"time": 1758, "pitch": 70, "duration": 7, "velocity": 99}, {"time": 1761, "pitch": 46, "duration": 18, "velocity": 88}, {"time": 1764, "pitch": 58, "duration": 7, "velocity": 81}, {"time": 1767, "pitch": 61, "duration": 1, "velocity": 63}, {"time": 1770, "pitch": 61, "duration": 1, "velocity": 72}, {"time": 1770, "pitch": 65, "duration": 2, "velocity": 67}, {"time": 1770, "pitch": 70, "duration": 2, "velocity": 89}, {"time": 1773, "pitch": 61, "duration": 3, "velocity": 90}, {"time": 1773, "pitch": 65, "duration": 3, "velocity": 55}, {"time": 1773, "pitch": 72, "duration": 3, "velocity": 93}, {"time": 1776, "pitch": 58, "duration": 6, "velocity": 65}, {"time": 1779, "pitch": 61, "duration": 3, "velocity": 91}, {"time": 1779, "pitch": 65, "duration": 3, "velocity": 76}, {"time": 1779, "pitch": 70, "duration": 4, "velocity": 89}, {"time": 1782, "pitch": 46, "duration": 1, "velocity": 80}, {"time": 1785, "pitch": 42, "duration": 19, "velocity": 58}, {"time": 1785, "pitch": 61, "duration": 3, "velocity": 72}, {"time": 1785, "pitch": 66, "duration": 6, "velocity": 76}, {"time": 1785, "pitch": 70, "duration": 6, "velocity": 83}, {"time": 1788, "pitch": 54, "duration": 7, "velocity": 51}, {"time": 1791, "pitch": 61, "duration": 1, "velocity": 47}, {"time": 1794, "pitch": 61, "duration": 5, "velocity": 94}, {"time": 1794, "pitch": 66, "duration": 6, "velocity": 89}, {"time": 1794, "pitch": 70, "duration": 6, "velocity": 97}, {"time": 1800, "pitch": 54, "duration": 4, "velocity": 67}, {"time": 1803, "pitch": 61, "duration": 2, "velocity": 87}, {"time": 1803, "pitch": 66, "duration": 3, "velocity": 78}, {"time": 1803, "pitch": 70, "duration": 3, "velocity": 94}, {"time": 1806, "pitch": 54, "duration": 1, "velocity": 63}, {"time": 1809, "pitch": 44, "duration": 19, "velocity": 67}, {"time": 1809, "pitch": 60, "duration": 4, "velocity": 83}, {"time": 1809, "pitch": 63, "duration": 5, "velocity": 81}, {"time": 1809, "pitch": 68, "duration": 5, "velocity": 84}, {"time": 1812, "pitch": 56, "duration": 9, "velocity": 63}, {"time": 1815, "pitch": 60, "duration": 1, "velocity": 71}, {"time": 1818, "pitch": 60, "duration": 6, "velocity": 100}, {"time": 1818, "pitch": 63, "duration": 7, "velocity": 92}, {"time": 1818, "pitch": 68, "duration": 7, "velocity": 99}, {"time": 1824, "pitch": 56, "duration": 3, "velocity": 75}, {"time": 1827, "pitch": 60, "duration": 3, "velocity": 94}, {"time": 1827, "pitch": 63, "duration": 3, "velocity": 87}, {"time": 1827, "pitch": 68, "duration": 2, "velocity": 91}, {"time": 1830, "pitch": 56, "duration": 1, "velocity": 83}, {"time": 1833, "pitch": 41, "duration": 20, "velocity": 72}, {"time": 1833, "pitch": 56, "duration": 6, "velocity": 80}, {"time": 1833, "pitch": 60, "duration": 5, "velocity": 72}, {"time": 1833, "pitch": 65, "duration": 6, "velocity": 83}, {"time": 1839, "pitch": 53, "duration": 5, "velocity": 56}, {"time": 1842, "pitch": 56, "duration": 4, "velocity": 102}, {"time": 1842, "pitch": 60, "duration": 4, "velocity": 84}, {"time": 1842, "pitch": 65, "duration": 4, "velocity": 89}, {"time": 1851, "pitch": 53, "duration": 2, "velocity": 85}, {"time": 1857, "pitch": 46, "duration": 18, "velocity": 74}, {"time": 1857, "pitch": 61, "duration": 3, "velocity": 75}, {"time": 1857, "pitch": 65, "duration": 4, "velocity": 58}, {"time": 1857, "pitch": 70, "duration": 4, "velocity": 82}, {"time": 1860, "pitch": 58, "duration": 8, "velocity": 64}, {"time": 1863, "pitch": 61, "duration": 1, "velocity": 63}, {"time": 1866, "pitch": 61, "duration": 5, "velocity": 94}, {"time": 1866, "pitch": 65, "duration": 5, "velocity": 83}, {"time": 1866, "pitch": 70, "duration": 6, "velocity": 95}, {"time": 1872, "pitch": 58, "duration": 6, "velocity": 84}, {"time": 1875, "pitch": 61, "duration": 2, "velocity": 85}, {"time": 1875, "pitch": 65, "duration": 3, "velocity": 78}, {"time": 1875, "pitch": 70, "duration": 3, "velocity": 86}, {"time": 1878, "pitch": 46, "duration": 1, "velocity": 77}, {"time": 1881, "pitch": 39, "duration": 18, "velocity": 81}, {"time": 1881, "pitch": 51, "duration": 2, "velocity": 67}, {"time": 1881, "pitch": 63, "duration": 5, "velocity": 87}, {"time": 1881, "pitch": 66, "duration": 5, "velocity": 84}, {"time": 1881, "pitch": 70, "duration": 5, "velocity": 86}, {"time": 1884, "pitch": 51, "duration": 9, "velocity": 87}, {"time": 1887, "pitch": 63, "duration": 1, "velocity": 80}, {"time": 1890, "pitch": 63, "duration": 5, "velocity": 100}, {"time": 1890, "pitch": 66, "duration": 7, "velocity": 97}, {"time": 1890, "pitch": 70, "duration": 11, "velocity": 95}, {"time": 1896, "pitch": 51, "duration": 6, "velocity": 88}, {"time": 1899, "pitch": 63, "duration": 2, "velocity": 75}, {"time": 1899, "pitch": 66, "duration": 1, "velocity": 19}, {"time": 1902, "pitch": 39, "duration": 1, "velocity": 75}, {"time": 1905, "pitch": 44, "duration": 16, "velocity": 72}, {"time": 1905, "pitch": 56, "duration": 5, "velocity": 71}, {"time": 1905, "pitch": 60, "duration": 9, "velocity": 88}, {"time": 1905, "pitch": 63, "duration": 8, "velocity": 83}, {"time": 1905, "pitch": 68, "duration": 8, "velocity": 87}, {"time": 1914, "pitch": 56, "duration": 4, "velocity": 92}, {"time": 1917, "pitch": 60, "duration": 6, "velocity": 104}, {"time": 1917, "pitch": 63, "duration": 7, "velocity": 97}, {"time": 1917, "pitch": 68, "duration": 7, "velocity": 105}, {"time": 1920, "pitch": 56, "duration": 7, "velocity": 83}, {"time": 1923, "pitch": 44, "duration": 2, "velocity": 81}, {"time": 1926, "pitch": 44, "duration": 1, "velocity": 35}, {"time": 1929, "pitch": 46, "duration": 21, "velocity": 90}, {"time": 1929, "pitch": 61, "duration": 6, "velocity": 92}, {"time": 1929, "pitch": 63, "duration": 5, "velocity": 71}, {"time": 1929, "pitch": 68, "duration": 5, "velocity": 91}, {"time": 1935, "pitch": 58, "duration": 6, "velocity": 59}, {"time": 1938, "pitch": 61, "duration": 6, "velocity": 92}, {"time": 1938, "pitch": 63, "duration": 6, "velocity": 90}, {"time": 1938, "pitch": 68, "duration": 6, "velocity": 105}, {"time": 1944, "pitch": 58, "duration": 6, "velocity": 90}, {"time": 1947, "pitch": 61, "duration": 2, "velocity": 80}, {"time": 1947, "pitch": 68, "duration": 2, "velocity": 83}, {"time": 1953, "pitch": 46, "duration": 13, "velocity": 92}, {"time": 1953, "pitch": 58, "duration": 6, "velocity": 92}, {"time": 1953, "pitch": 62, "duration": 5, "velocity": 71}, {"time": 1953, "pitch": 65, "duration": 5, "velocity": 91}, {"time": 1956, "pitch": 62, "duration": 2, "velocity": 85}, {"time": 1956, "pitch": 65, "duration": 2, "velocity": 78}, {"time": 1956, "pitch": 70, "duration": 4, "velocity": 91}, {"time": 1959, "pitch": 58, "duration": 7, "velocity": 92}, {"time": 1962, "pitch": 62, "duration": 1, "velocity": 88}, {"time": 1965, "pitch": 62, "duration": 3, "velocity": 110}, {"time": 1965, "pitch": 65, "duration": 3, "velocity": 95}, {"time": 1965, "pitch": 70, "duration": 3, "velocity": 109}, {"time": 1968, "pitch": 58, "duration": 4, "velocity": 92}, {"time": 1971, "pitch": 46, "duration": 2, "velocity": 81}, {"time": 1971, "pitch": 62, "duration": 3, "velocity": 92}, {"time": 1971, "pitch": 65, "duration": 3, "velocity": 71}, {"time": 1971, "pitch": 70, "duration": 3, "velocity": 103}, {"time": 1974, "pitch": 58, "duration": 1, "velocity": 80}, {"time": 1977, "pitch": 42, "duration": 15, "velocity": 85}, {"time": 1977, "pitch": 54, "duration": 5, "velocity": 88}, {"time": 1977, "pitch": 61, "duration": 7, "velocity": 94}, {"time": 1977, "pitch": 66, "duration": 7, "velocity": 91}, {"time": 1977, "pitch": 70, "duration": 7, "velocity": 94}, {"time": 1986, "pitch": 54, "duration": 4, "velocity": 95}, {"time": 1989, "pitch": 61, "duration": 4, "velocity": 99}, {"time": 1989, "pitch": 66, "duration": 7, "velocity": 97}, {"time": 1989, "pitch": 70, "duration": 7, "velocity": 105}, {"time": 1992, "pitch": 54, "duration": 4, "velocity": 83}, {"time": 1995, "pitch": 42, "duration": 1, "velocity": 75}, {"time": 1998, "pitch": 61, "duration": 1, "velocity": 68}, {"time": 1998, "pitch": 70, "duration": 1, "velocity": 38}, {"time": 2001, "pitch": 44, "duration": 18, "velocity": 68}, {"time": 2001, "pitch": 56, "duration": 3, "velocity": 71}, {"time": 2001, "pitch": 60, "duration": 4, "velocity": 84}, {"time": 2001, "pitch": 63, "duration": 5, "velocity": 81}, {"time": 2001, "pitch": 68, "duration": 5, "velocity": 83}, {"time": 2004, "pitch": 56, "duration": 10, "velocity": 92}, {"time": 2007, "pitch": 60, "duration": 2, "velocity": 90}, {"time": 2010, "pitch": 60, "duration": 6, "velocity": 106}, {"time": 2010, "pitch": 63, "duration": 6, "velocity": 102}, {"time": 2010, "pitch": 68, "duration": 6, "velocity": 109}, {"time": 2016, "pitch": 56, "duration": 6, "velocity": 90}, {"time": 2019, "pitch": 60, "duration": 2, "velocity": 95}, {"time": 2019, "pitch": 63, "duration": 2, "velocity": 90}, {"time": 2019, "pitch": 68, "duration": 2, "velocity": 95}, {"time": 2022, "pitch": 44, "duration": 1, "velocity": 68}, {"time": 2025, "pitch": 41, "duration": 17, "velocity": 63}, {"time": 2025, "pitch": 56, "duration": 4, "velocity": 77}, {"time": 2025, "pitch": 60, "duration": 5, "velocity": 76}, {"time": 2025, "pitch": 65, "duration": 5, "velocity": 79}, {"time": 2028, "pitch": 53, "duration": 10, "velocity": 65}, {"time": 2031, "pitch": 56, "duration": 1, "velocity": 59}, {"time": 2034, "pitch": 56, "duration": 6, "velocity": 102}, {"time": 2034, "pitch": 60, "duration": 7, "velocity": 88}, {"time": 2034, "pitch": 65, "duration": 11, "velocity": 93}, {"time": 2040, "pitch": 53, "duration": 3, "velocity": 56}, {"time": 2043, "pitch": 56, "duration": 2, "velocity": 59}, {"time": 2046, "pitch": 60, "duration": 1, "velocity": 35}, {"time": 2049, "pitch": 46, "duration": 15, "velocity": 69}, {"time": 2049, "pitch": 61, "duration": 3, "velocity": 85}, {"time": 2049, "pitch": 65, "duration": 6, "velocity": 58}, {"time": 2049, "pitch": 70, "duration": 6, "velocity": 97}, {"time": 2052, "pitch": 58, "duration": 7, "velocity": 71}, {"time": 2055, "pitch": 61, "duration": 1, "velocity": 72}, {"time": 2058, "pitch": 61, "duration": 4, "velocity": 100}, {"time": 2058, "pitch": 65, "duration": 7, "velocity": 90}, {"time": 2058, "pitch": 70, "duration": 8, "velocity": 105}, {"time": 2061, "pitch": 58, "duration": 8, "velocity": 85}, {"time": 2064, "pitch": 61, "duration": 4, "velocity": 79}, {"time": 2067, "pitch": 68, "duration": 2, "velocity": 87}, {"time": 2070, "pitch": 46, "duration": 1, "velocity": 62}, {"time": 2073, "pitch": 39, "duration": 18, "velocity": 76}, {"time": 2073, "pitch": 58, "duration": 3, "velocity": 80}, {"time": 2073, "pitch": 63, "duration": 5, "velocity": 75}, {"time": 2073, "pitch": 66, "duration": 5, "velocity": 84}, {"time": 2076, "pitch": 51, "duration": 10, "velocity": 72}, {"time": 2079, "pitch": 58, "duration": 1, "velocity": 72}, {"time": 2082, "pitch": 58, "duration": 6, "velocity": 106}, {"time": 2082, "pitch": 63, "duration": 9, "velocity": 94}, {"time": 2082, "pitch": 66, "duration": 12, "velocity": 111}, {"time": 2088, "pitch": 51, "duration": 6, "velocity": 83}, {"time": 2091, "pitch": 58, "duration": 2, "velocity": 59}, {"time": 2094, "pitch": 39, "duration": 1, "velocity": 62}, {"time": 2094, "pitch": 63, "duration": 1, "velocity": 49}, {"time": 2097, "pitch": 44, "duration": 21, "velocity": 84}, {"time": 2097, "pitch": 60, "duration": 4, "velocity": 85}, {"time": 2097, "pitch": 63, "duration": 6, "velocity": 76}, {"time": 2097, "pitch": 68, "duration": 6, "velocity": 92}, {"time": 2100, "pitch": 56, "duration": 10, "velocity": 84}, {"time": 2103, "pitch": 60, "duration": 1, "velocity": 69}, {"time": 2106, "pitch": 60, "duration": 8, "velocity": 110}, {"time": 2106, "pitch": 63, "duration": 5, "velocity": 99}, {"time": 2106, "pitch": 68, "duration": 8, "velocity": 111}, {"time": 2112, "pitch": 56, "duration": 4, "velocity": 88}, {"time": 2115, "pitch": 60, "duration": 1, "velocity": 35}, {"time": 2115, "pitch": 63, "duration": 4, "velocity": 108}, {"time": 2115, "pitch": 68, "duration": 1, "velocity": 47}, {"time": 2118, "pitch": 56, "duration": 1, "velocity": 79}, {"time": 2118, "pitch": 68, "duration": 1, "velocity": 18}, {"time": 2121, "pitch": 46, "duration": 22, "velocity": 99}, {"time": 2124, "pitch": 63, "duration": 4, "velocity": 97}, {"time": 2124, "pitch": 68, "duration": 4, "velocity": 101}, {"time": 2127, "pitch": 58, "duration": 7, "velocity": 90}, {"time": 2130, "pitch": 63, "duration": 7, "velocity": 106}, {"time": 2130, "pitch": 68, "duration": 8, "velocity": 105}, {"time": 2136, "pitch": 58, "duration": 4, "velocity": 87}, {"time": 2139, "pitch": 63, "duration": 4, "velocity": 110}, {"time": 2139, "pitch": 68, "duration": 1, "velocity": 44}, {"time": 2142, "pitch": 58, "duration": 1, "velocity": 74}, {"time": 2145, "pitch": 34, "duration": 5, "velocity": 59}, {"time": 2145, "pitch": 46, "duration": 7, "velocity": 76}, {"time": 2145, "pitch": 58, "duration": 2, "velocity": 94}, {"time": 2145, "pitch": 62, "duration": 2, "velocity": 84}, {"time": 2145, "pitch": 65, "duration": 4, "velocity": 89}, {"time": 2148, "pitch": 58, "duration": 1, "velocity": 72}, {"time": 2151, "pitch": 58, "duration": 3, "velocity": 77}, {"time": 2151, "pitch": 62, "duration": 3, "velocity": 56}, {"time": 2151, "pitch": 65, "duration": 3, "velocity": 63}, {"time": 2154, "pitch": 34, "duration": 9, "velocity": 106}, {"time": 2157, "pitch": 46, "duration": 1, "velocity": 102}, {"time": 2157, "pitch": 58, "duration": 3, "velocity": 111}, {"time": 2157, "pitch": 62, "duration": 3, "velocity": 91}, {"time": 2157, "pitch": 65, "duration": 3, "velocity": 93}, {"time": 2157, "pitch": 70, "duration": 3, "velocity": 107}, {"time": 2160, "pitch": 46, "duration": 6, "velocity": 116}, {"time": 2163, "pitch": 56, "duration": 2, "velocity": 111}, {"time": 2163, "pitch": 68, "duration": 3, "velocity": 97}, {"time": 2166, "pitch": 34, "duration": 1, "velocity": 94}, {"time": 2169, "pitch": 39, "duration": 17, "velocity": 55}, {"time": 2169, "pitch": 51, "duration": 3, "velocity": 45}, {"time": 2169, "pitch": 61, "duration": 4, "velocity": 79}, {"time": 2169, "pitch": 63, "duration": 6, "velocity": 76}, {"time": 2169, "pitch": 66, "duration": 7, "velocity": 75}, {"time": 2169, "pitch": 70, "duration": 7, "velocity": 91}, {"time": 2172, "pitch": 51, "duration": 11, "velocity": 90}, {"time": 2175, "pitch": 61, "duration": 9, "velocity": 71}, {"time": 2178, "pitch": 63, "duration": 9, "velocity": 84}, {"time": 2178, "pitch": 66, "duration": 10, "velocity": 80}, {"time": 2178, "pitch": 70, "duration": 14, "velocity": 99}, {"time": 2184, "pitch": 51, "duration": 3, "velocity": 47}, {"time": 2187, "pitch": 61, "duration": 3, "velocity": 51}, {"time": 2190, "pitch": 63, "duration": 1, "velocity": 54}, {"time": 2190, "pitch": 66, "duration": 3, "velocity": 29}, {"time": 2193, "pitch": 44, "duration": 17, "velocity": 39}, {"time": 2193, "pitch": 51, "duration": 15, "velocity": 41}, {"time": 2193, "pitch": 56, "duration": 6, "velocity": 43}, {"time": 2193, "pitch": 60, "duration": 9, "velocity": 64}, {"time": 2193, "pitch": 63, "duration": 8, "velocity": 55}, {"time": 2193, "pitch": 68, "duration": 9, "velocity": 71}, {"time": 2202, "pitch": 56, "duration": 4, "velocity": 79}, {"time": 2205, "pitch": 60, "duration": 7, "velocity": 100}, {"time": 2205, "pitch": 63, "duration": 6, "velocity": 90}, {"time": 2205, "pitch": 68, "duration": 6, "velocity": 103}, {"time": 2208, "pitch": 56, "duration": 3, "velocity": 68}, {"time": 2211, "pitch": 51, "duration": 3, "velocity": 56}, {"time": 2214, "pitch": 44, "duration": 1, "velocity": 53}, {"time": 2217, "pitch": 37, "duration": 16, "velocity": 67}, {"time": 2217, "pitch": 60, "duration": 3, "velocity": 56}, {"time": 2217, "pitch": 61, "duration": 7, "velocity": 62}, {"time": 2217, "pitch": 65, "duration": 6, "velocity": 63}, {"time": 2217, "pitch": 68, "duration": 6, "velocity": 74}, {"time": 2220, "pitch": 49, "duration": 9, "velocity": 69}, {"time": 2223, "pitch": 60, "duration": 4, "velocity": 87}, {"time": 2226, "pitch": 61, "duration": 9, "velocity": 83}, {"time": 2226, "pitch": 65, "duration": 10, "velocity": 84}, {"time": 2226, "pitch": 68, "duration": 11, "velocity": 95}, {"time": 2232, "pitch": 49, "duration": 2, "velocity": 53}, {"time": 2235, "pitch": 60, "duration": 2, "velocity": 59}, {"time": 2238, "pitch": 61, "duration": 1, "velocity": 43}, {"time": 2241, "pitch": 42, "duration": 15, "velocity": 47}, {"time": 2241, "pitch": 58, "duration": 8, "velocity": 63}, {"time": 2241, "pitch": 61, "duration": 7, "velocity": 39}, {"time": 2241, "pitch": 66, "duration": 7, "velocity": 70}, {"time": 2250, "pitch": 54, "duration": 4, "velocity": 75}, {"time": 2253, "pitch": 58, "duration": 7, "velocity": 94}, {"time": 2253, "pitch": 61, "duration": 6, "velocity": 79}, {"time": 2253, "pitch": 66, "duration": 6, "velocity": 86}, {"time": 2256, "pitch": 54, "duration": 4, "velocity": 72}, {"time": 2259, "pitch": 42, "duration": 1, "velocity": 59}, {"time": 2262, "pitch": 42, "duration": 1, "velocity": 53}, {"time": 2265, "pitch": 39, "duration": 16, "velocity": 61}, {"time": 2265, "pitch": 51, "duration": 6, "velocity": 43}, {"time": 2265, "pitch": 54, "duration": 9, "velocity": 77}, {"time": 2265, "pitch": 58, "duration": 9, "velocity": 67}, {"time": 2265, "pitch": 61, "duration": 11, "velocity": 57}, {"time": 2265, "pitch": 65, "duration": 9, "velocity": 68}, {"time": 2274, "pitch": 51, "duration": 4, "velocity": 63}, {"time": 2277, "pitch": 54, "duration": 6, "velocity": 87}, {"time": 2277, "pitch": 58, "duration": 7, "velocity": 72}, {"time": 2277, "pitch": 61, "duration": 1, "velocity": 32}, {"time": 2277, "pitch": 63, "duration": 10, "velocity": 92}, {"time": 2280, "pitch": 51, "duration": 4, "velocity": 63}, {"time": 2283, "pitch": 39, "duration": 1, "velocity": 63}, {"time": 2286, "pitch": 54, "duration": 1, "velocity": 49}, {"time": 2289, "pitch": 41, "duration": 15, "velocity": 56}, {"time": 2289, "pitch": 53, "duration": 8, "velocity": 46}, {"time": 2289, "pitch": 57, "duration": 10, "velocity": 75}, {"time": 2289, "pitch": 60, "duration": 9, "velocity": 63}, {"time": 2289, "pitch": 63, "duration": 9, "velocity": 63}, {"time": 2289, "pitch": 65, "duration": 10, "velocity": 73}, {"time": 2298, "pitch": 53, "duration": 4, "velocity": 90}, {"time": 2301, "pitch": 57, "duration": 6, "velocity": 97}, {"time": 2301, "pitch": 60, "duration": 7, "velocity": 85}, {"time": 2301, "pitch": 63, "duration": 7, "velocity": 95}, {"time": 2301, "pitch": 65, "duration": 7, "velocity": 86}, {"time": 2304, "pitch": 53, "duration": 4, "velocity": 57}, {"time": 2307, "pitch": 41, "duration": 1, "velocity": 56}, {"time": 2313, "pitch": 46, "duration": 16, "velocity": 61}, {"time": 2313, "pitch": 53, "duration": 10, "velocity": 58}, {"time": 2313, "pitch": 58, "duration": 7, "velocity": 85}, {"time": 2313, "pitch": 61, "duration": 7, "velocity": 80}, {"time": 2313, "pitch": 65, "duration": 9, "velocity": 84}, {"time": 2319, "pitch": 60, "duration": 3, "velocity": 57}, {"time": 2322, "pitch": 61, "duration": 7, "velocity": 88}, {"time": 2322, "pitch": 65, "duration": 1, "velocity": 28}, {"time": 2325, "pitch": 53, "duration": 6, "velocity": 85}, {"time": 2328, "pitch": 60, "duration": 4, "velocity": 85}, {"time": 2331, "pitch": 46, "duration": 1, "velocity": 69}, {"time": 2337, "pitch": 61, "duration": 1, "velocity": 72}, {"time": 2337, "pitch": 70, "duration": 1, "velocity": 75}, {"time": 2337, "pitch": 65, "duration": 1, "velocity": 64}, {"time": 2337, "pitch": 34, "duration": 14, "velocity": 90}, {"time": 2337, "pitch": 46, "duration": 7, "velocity": 69}, {"time": 2341, "pitch": 61, "duration": 1, "velocity": 71}, {"time": 2341, "pitch": 70, "duration": 1, "velocity": 80}, {"time": 2341, "pitch": 65, "duration": 1, "velocity": 71}, {"time": 2346, "pitch": 46, "duration": 4, "velocity": 75}, {"time": 2346, "pitch": 61, "duration": 9, "velocity": 92}, {"time": 2346, "pitch": 65, "duration": 9, "velocity": 84}, {"time": 2346, "pitch": 70, "duration": 9, "velocity": 95}, {"time": 2352, "pitch": 46, "duration": 2, "velocity": 95}, {"time": 2355, "pitch": 34, "duration": 1, "velocity": 102}], "annotations": [{"time": 155, "annotation": {"number": 64, "value": 71}, "group": "control_change"}, {"time": 156, "annotation": {"number": 64, "value": 127}, "group": "control_change"}, {"time": 177, "annotation": {"number": 64, "value": 71}, "group": "control_change"}, {"time": 178, "annotation": {"number": 64, "value": 0}, "group": "control_change"}, {"time": 189, "annotation": {"number": 64, "value": 71}, "group": "control_change"}, {"time": 189, "annotation": {"number": 64, "value": 127}, "group": "control_change"}, {"time": 201, "annotation": {"number": 64, "value": 71}, "group": "control_change"}, {"time": 202, "annotation": {"number": 64, "value": 0}, "group": "control_change"}, {"time": 213, "annotation": {"number": 64, "value": 71}, "group": "control_change"}, {"time": 213, "annotation": {"number": 64, "value": 127}, "group": "control_change"}, {"time": 225, "annotation": {"number": 64, "value": 71}, "group": "control_change"}, {"time": 225, "annotation": {"number": 64, "value": 0}, "group": "control_change"}, {"time": 230, "annotation": {"number": 64, "value": 71}, "group": "control_change"}, {"time": 231, "annotation": {"number": 64, "value": 127}, "group": "control_change"}, {"time": 249, "annotation": {"number": 64, "value": 71}, "group": "control_change"}, {"time": 249, "annotation": {"number": 64, "value": 0}, "group": "control_change"}, {"time": 260, "annotation": {"number": 64, "value": 71}, "group": "control_change"}, {"time": 261, "annotation": {"number": 64, "value": 127}, "group": "control_change"}, {"time": 273, "annotation": {"number": 64, "value": 71}, "group": "control_change"}, {"time": 273, "annotation": {"number": 64, "value": 0}, "group": "control_change"}, {"time": 280, "annotation": {"number": 64, "value": 71}, "group": "control_change"}, {"time": 282, "annotation": {"number": 64, "value": 127}, "group": "control_change"}, {"time": 297, "annotation": {"number": 64, "value": 71}, "group": "control_change"}, {"time": 297, "annotation": {"number": 64, "value": 0}, "group": "control_change"}, {"time": 304, "annotation": {"number": 64, "value": 71}, "group": "control_change"}, {"time": 305, "annotation": {"number": 64, "value": 127}, "group": "control_change"}, {"time": 321, "annotation": {"number": 64, "value": 71}, "group": "control_change"}, {"time": 321, "annotation": {"number": 64, "value": 0}, "group": "control_change"}, {"time": 326, "annotation": {"number": 64, "value": 71}, "group": "control_change"}, {"time": 327, "annotation": {"number": 64, "value": 127}, "group": "control_change"}, {"time": 345, "annotation": {"number": 64, "value": 71}, "group": "control_change"}, {"time": 345, "annotation": {"number": 64, "value": 0}, "group": "control_change"}, {"time": 347, "annotation": {"number": 64, "value": 71}, "group": "control_change"}, {"time": 347, "annotation": {"number": 64, "value": 127}, "group": "control_change"}, {"time": 370, "annotation": {"number": 64, "value": 71}, "group": "control_change"}, {"time": 370, "annotation": {"number": 64, "value": 0}, "group": "control_change"}, {"time": 374, "annotation": {"number": 64, "value": 71}, "group": "control_change"}, {"time": 374, "annotation": {"number": 64, "value": 127}, "group": "control_change"}, {"time": 394, "annotation": {"number": 64, "value": 71}, "group": "control_change"}, {"time": 394, "annotation": {"number": 64, "value": 0}, "group": "control_change"}, {"time": 398, "annotation": {"number": 64, "value": 71}, "group": "control_change"}, {"time": 399, "annotation": {"number": 64, "value": 127}, "group": "control_change"}, {"time": 419, "annotation": {"number": 64, "value": 71}, "group": "control_change"}, {"time": 420, "annotation": {"number": 64, "value": 127}, "group": "control_change"}, {"time": 438, "annotation": {"number": 64, "value": 0}, "group": "control_change"}, {"time": 443, "annotation": {"number": 64, "value": 71}, "group": "control_change"}, {"time": 443, "annotation": {"number": 64, "value": 127}, "group": "control_change"}, {"time": 466, "annotation": {"number": 64, "value": 71}, "group": "control_change"}, {"time": 466, "annotation": {"number": 64, "value": 0}, "group": "control_change"}, {"time": 470, "annotation": {"number": 64, "value": 71}, "group": "control_change"}, {"time": 470, "annotation": {"number": 64, "value": 127}, "group": "control_change"}, {"time": 490, "annotation": {"number": 64, "value": 71}, "group": "control_change"}, {"time": 490, "annotation": {"number": 64, "value": 0}, "group": "control_change"}, {"time": 494, "annotation": {"number": 64, "value": 71}, "group": "control_change"}, {"time": 495, "annotation": {"number": 64, "value": 127}, "group": "control_change"}, {"time": 515, "annotation": {"number": 64, "value": 71}, "group": "control_change"}, {"time": 516, "annotation": {"number": 64, "value": 127}, "group": "control_change"}, {"time": 538, "annotation": {"number": 64, "value": 71}, "group": "control_change"}, {"time": 539, "annotation": {"number": 64, "value": 0}, "group": "control_change"}, {"time": 539, "annotation": {"number": 64, "value": 71}, "group": "control_change"}, {"time": 539, "annotation": {"number": 64, "value": 127}, "group": "control_change"}, {"time": 543, "annotation": {"number": 64, "value": 71}, "group": "control_change"}, {"time": 546, "annotation": {"number": 64, "value": 0}, "group": "control_change"}, {"time": 561, "annotation": {"number": 64, "value": 71}, "group": "control_change"}, {"time": 561, "annotation": {"number": 64, "value": 0}, "group": "control_change"}, {"time": 565, "annotation": {"number": 64, "value": 71}, "group": "control_change"}, {"time": 566, "annotation": {"number": 64, "value": 127}, "group": "control_change"}, {"time": 585, "annotation": {"number": 64, "value": 71}, "group": "control_change"}, {"time": 585, "annotation": {"number": 64, "value": 0}, "group": "control_change"}, {"time": 588, "annotation": {"number": 64, "value": 71}, "group": "control_change"}, {"time": 588, "annotation": {"number": 64, "value": 127}, "group": "control_change"}, {"time": 621, "annotation": {"number": 64, "value": 71}, "group": "control_change"}, {"time": 622, "annotation": {"number": 64, "value": 0}, "group": "control_change"}, {"time": 624, "annotation": {"number": 64, "value": 71}, "group": "control_change"}, {"time": 624, "annotation": {"number": 64, "value": 127}, "group": "control_change"}, {"time": 633, "annotation": {"number": 64, "value": 71}, "group": "control_change"}, {"time": 633, "annotation": {"number": 64, "value": 0}, "group": "control_change"}, {"time": 635, "annotation": {"number": 64, "value": 71}, "group": "control_change"}, {"time": 635, "annotation": {"number": 64, "value": 127}, "group": "control_change"}, {"time": 658, "annotation": {"number": 64, "value": 71}, "group": "control_change"}, {"time": 658, "annotation": {"number": 64, "value": 0}, "group": "control_change"}, {"time": 662, "annotation": {"number": 64, "value": 71}, "group": "control_change"}, {"time": 662, "annotation": {"number": 64, "value": 127}, "group": "control_change"}, {"time": 682, "annotation": {"number": 64, "value": 71}, "group": "control_change"}, {"time": 682, "annotation": {"number": 64, "value": 0}, "group": "control_change"}, {"time": 686, "annotation": {"number": 64, "value": 71}, "group": "control_change"}, {"time": 687, "annotation": {"number": 64, "value": 127}, "group": "control_change"}, {"time": 707, "annotation": {"number": 64, "value": 71}, "group": "control_change"}, {"time": 708, "annotation": {"number": 64, "value": 127}, "group": "control_change"}, {"time": 726, "annotation": {"number": 64, "value": 0}, "group": "control_change"}, {"time": 731, "annotation": {"number": 64, "value": 71}, "group": "control_change"}, {"time": 731, "annotation": {"number": 64, "value": 127}, "group": "control_change"}, {"time": 754, "annotation": {"number": 64, "value": 71}, "group": "control_change"}, {"time": 754, "annotation": {"number": 64, "value": 0}, "group": "control_change"}, {"time": 758, "annotation": {"number": 64, "value": 71}, "group": "control_change"}, {"time": 758, "annotation": {"number": 64, "value": 127}, "group": "control_change"}, {"time": 778, "annotation": {"number": 64, "value": 71}, "group": "control_change"}, {"time": 778, "annotation": {"number": 64, "value": 0}, "group": "control_change"}, {"time": 782, "annotation": {"number": 64, "value": 71}, "group": "control_change"}, {"time": 783, "annotation": {"number": 64, "value": 127}, "group": "control_change"}, {"time": 803, "annotation": {"number": 64, "value": 71}, "group": "control_change"}, {"time": 804, "annotation": {"number": 64, "value": 127}, "group": "control_change"}, {"time": 826, "annotation": {"number": 64, "value": 71}, "group": "control_change"}, {"time": 827, "annotation": {"number": 64, "value": 127}, "group": "control_change"}, {"time": 827, "annotation": {"number": 64, "value": 0}, "group": "control_change"}, {"time": 831, "annotation": {"number": 64, "value": 71}, "group": "control_change"}, {"time": 834, "annotation": {"number": 64, "value": 0}, "group": "control_change"}, {"time": 850, "annotation": {"number": 64, "value": 71}, "group": "control_change"}, {"time": 850, "annotation": {"number": 64, "value": 0}, "group": "control_change"}, {"time": 852, "annotation": {"number": 64, "value": 71}, "group": "control_change"}, {"time": 853, "annotation": {"number": 64, "value": 127}, "group": "control_change"}, {"time": 873, "annotation": {"number": 64, "value": 71}, "group": "control_change"}, {"time": 874, "annotation": {"number": 64, "value": 0}, "group": "control_change"}, {"time": 877, "annotation": {"number": 64, "value": 71}, "group": "control_change"}, {"time": 878, "annotation": {"number": 64, "value": 127}, "group": "control_change"}, {"time": 897, "annotation": {"number": 64, "value": 71}, "group": "control_change"}, {"time": 897, "annotation": {"number": 64, "value": 0}, "group": "control_change"}, {"time": 900, "annotation": {"number": 64, "value": 71}, "group": "control_change"}, {"time": 900, "annotation": {"number": 64, "value": 127}, "group": "control_change"}, {"time": 921, "annotation": {"number": 64, "value": 71}, "group": "control_change"}, {"time": 921, "annotation": {"number": 64, "value": 0}, "group": "control_change"}, {"time": 922, "annotation": {"number": 64, "value": 71}, "group": "control_change"}, {"time": 922, "annotation": {"number": 64, "value": 127}, "group": "control_change"}, {"time": 945, "annotation": {"number": 64, "value": 71}, "group": "control_change"}, {"time": 946, "annotation": {"number": 64, "value": 0}, "group": "control_change"}, {"time": 948, "annotation": {"number": 64, "value": 71}, "group": "control_change"}, {"time": 949, "annotation": {"number": 64, "value": 127}, "group": "control_change"}, {"time": 969, "annotation": {"number": 64, "value": 71}, "group": "control_change"}, {"time": 970, "annotation": {"number": 64, "value": 0}, "group": "control_change"}, {"time": 972, "annotation": {"number": 64, "value": 71}, "group": "control_change"}, {"time": 973, "annotation": {"number": 64, "value": 127}, "group": "control_change"}, {"time": 993, "annotation": {"number": 64, "value": 71}, "group": "control_change"}, {"time": 993, "annotation": {"number": 64, "value": 0}, "group": "control_change"}, {"time": 996, "annotation": {"number": 64, "value": 71}, "group": "control_change"}, {"time": 997, "annotation": {"number": 64, "value": 127}, "group": "control_change"}, {"time": 1017, "annotation": {"number": 64, "value": 71}, "group": "control_change"}, {"time": 1017, "annotation": {"number": 64, "value": 0}, "group": "control_change"}, {"time": 1020, "annotation": {"number": 64, "value": 71}, "group": "control_change"}, {"time": 1020, "annotation": {"number": 64, "value": 127}, "group": "control_change"}, {"time": 1029, "annotation": {"number": 64, "value": 71}, "group": "control_change"}, {"time": 1029, "annotation": {"number": 64, "value": 127}, "group": "control_change"}, {"time": 1042, "annotation": {"number": 64, "value": 71}, "group": "control_change"}, {"time": 1042, "annotation": {"number": 64, "value": 0}, "group": "control_change"}, {"time": 1044, "annotation": {"number": 64, "value": 71}, "group": "control_change"}, {"time": 1044, "annotation": {"number": 64, "value": 127}, "group": "control_change"}, {"time": 1066, "annotation": {"number": 64, "value": 71}, "group": "control_change"}, {"time": 1066, "annotation": {"number": 64, "value": 0}, "group": "control_change"}, {"time": 1069, "annotation": {"number": 64, "value": 71}, "group": "control_change"}, {"time": 1069, "annotation": {"number": 64, "value": 127}, "group": "control_change"}, {"time": 1090, "annotation": {"number": 64, "value": 71}, "group": "control_change"}, {"time": 1090, "annotation": {"number": 64, "value": 0}, "group": "control_change"}, {"time": 1093, "annotation": {"number": 64, "value": 71}, "group": "control_change"}, {"time": 1094, "annotation": {"number": 64, "value": 127}, "group": "control_change"}, {"time": 1114, "annotation": {"number": 64, "value": 71}, "group": "control_change"}, {"time": 1114, "annotation": {"number": 64, "value": 0}, "group": "control_change"}, {"time": 1117, "annotation": {"number": 64, "value": 71}, "group": "control_change"}, {"time": 1117, "annotation": {"number": 64, "value": 127}, "group": "control_change"}, {"time": 1137, "annotation": {"number": 64, "value": 71}, "group": "control_change"}, {"time": 1137, "annotation": {"number": 64, "value": 0}, "group": "control_change"}, {"time": 1139, "annotation": {"number": 64, "value": 71}, "group": "control_change"}, {"time": 1140, "annotation": {"number": 64, "value": 127}, "group": "control_change"}, {"time": 1161, "annotation": {"number": 64, "value": 71}, "group": "control_change"}, {"time": 1162, "annotation": {"number": 64, "value": 0}, "group": "control_change"}, {"time": 1165, "annotation": {"number": 64, "value": 71}, "group": "control_change"}, {"time": 1165, "annotation": {"number": 64, "value": 127}, "group": "control_change"}, {"time": 1186, "annotation": {"number": 64, "value": 71}, "group": "control_change"}, {"time": 1187, "annotation": {"number": 64, "value": 0}, "group": "control_change"}, {"time": 1190, "annotation": {"number": 64, "value": 71}, "group": "control_change"}, {"time": 1191, "annotation": {"number": 64, "value": 127}, "group": "control_change"}, {"time": 1210, "annotation": {"number": 64, "value": 71}, "group": "control_change"}, {"time": 1210, "annotation": {"number": 64, "value": 0}, "group": "control_change"}, {"time": 1212, "annotation": {"number": 64, "value": 71}, "group": "control_change"}, {"time": 1213, "annotation": {"number": 64, "value": 127}, "group": "control_change"}, {"time": 1234, "annotation": {"number": 64, "value": 71}, "group": "control_change"}, {"time": 1234, "annotation": {"number": 64, "value": 0}, "group": "control_change"}, {"time": 1237, "annotation": {"number": 64, "value": 71}, "group": "control_change"}, {"time": 1237, "annotation": {"number": 64, "value": 127}, "group": "control_change"}, {"time": 1258, "annotation": {"number": 64, "value": 71}, "group": "control_change"}, {"time": 1259, "annotation": {"number": 64, "value": 0}, "group": "control_change"}, {"time": 1261, "annotation": {"number": 64, "value": 71}, "group": "control_change"}, {"time": 1261, "annotation": {"number": 64, "value": 127}, "group": "control_change"}, {"time": 1282, "annotation": {"number": 64, "value": 71}, "group": "control_change"}, {"time": 1282, "annotation": {"number": 64, "value": 0}, "group": "control_change"}, {"time": 1283, "annotation": {"number": 64, "value": 71}, "group": "control_change"}, {"time": 1284, "annotation": {"number": 64, "value": 127}, "group": "control_change"}, {"time": 1305, "annotation": {"number": 64, "value": 71}, "group": "control_change"}, {"time": 1306, "annotation": {"number": 64, "value": 0}, "group": "control_change"}, {"time": 1307, "annotation": {"number": 64, "value": 71}, "group": "control_change"}, {"time": 1308, "annotation": {"number": 64, "value": 127}, "group": "control_change"}, {"time": 1329, "annotation": {"number": 64, "value": 71}, "group": "control_change"}, {"time": 1329, "annotation": {"number": 64, "value": 0}, "group": "control_change"}, {"time": 1334, "annotation": {"number": 64, "value": 71}, "group": "control_change"}, {"time": 1334, "annotation": {"number": 64, "value": 127}, "group": "control_change"}, {"time": 1354, "annotation": {"number": 64, "value": 71}, "group": "control_change"}, {"time": 1354, "annotation": {"number": 64, "value": 0}, "group": "control_change"}, {"time": 1358, "annotation": {"number": 64, "value": 71}, "group": "control_change"}, {"time": 1358, "annotation": {"number": 64, "value": 127}, "group": "control_change"}, {"time": 1377, "annotation": {"number": 64, "value": 71}, "group": "control_change"}, {"time": 1378, "annotation": {"number": 64, "value": 0}, "group": "control_change"}, {"time": 1381, "annotation": {"number": 64, "value": 71}, "group": "control_change"}, {"time": 1381, "annotation": {"number": 64, "value": 127}, "group": "control_change"}, {"time": 1401, "annotation": {"number": 64, "value": 71}, "group": "control_change"}, {"time": 1402, "annotation": {"number": 64, "value": 0}, "group": "control_change"}, {"time": 1406, "annotation": {"number": 64, "value": 71}, "group": "control_change"}, {"time": 1406, "annotation": {"number": 64, "value": 127}, "group": "control_change"}, {"time": 1425, "annotation": {"number": 64, "value": 71}, "group": "control_change"}, {"time": 1426, "annotation": {"number": 64, "value": 0}, "group": "control_change"}, {"time": 1429, "annotation": {"number": 64, "value": 71}, "group": "control_change"}, {"time": 1430, "annotation": {"number": 64, "value": 127}, "group": "control_change"}, {"time": 1449, "annotation": {"number": 64, "value": 71}, "group": "control_change"}, {"time": 1450, "annotation": {"number": 64, "value": 0}, "group": "control_change"}, {"time": 1454, "annotation": {"number": 64, "value": 71}, "group": "control_change"}, {"time": 1455, "annotation": {"number": 64, "value": 127}, "group": "control_change"}, {"time": 1497, "annotation": {"number": 64, "value": 71}, "group": "control_change"}, {"time": 1497, "annotation": {"number": 64, "value": 0}, "group": "control_change"}, {"time": 1499, "annotation": {"number": 64, "value": 71}, "group": "control_change"}, {"time": 1499, "annotation": {"number": 64, "value": 127}, "group": "control_change"}, {"time": 1522, "annotation": {"number": 64, "value": 71}, "group": "control_change"}, {"time": 1522, "annotation": {"number": 64, "value": 0}, "group": "control_change"}, {"time": 1526, "annotation": {"number": 64, "value": 71}, "group": "control_change"}, {"time": 1526, "annotation": {"number": 64, "value": 127}, "group": "control_change"}, {"time": 1546, "annotation": {"number": 64, "value": 71}, "group": "control_change"}, {"time": 1546, "annotation": {"number": 64, "value": 0}, "group": "control_change"}, {"time": 1550, "annotation": {"number": 64, "value": 71}, "group": "control_change"}, {"time": 1551, "annotation": {"number": 64, "value": 127}, "group": "control_change"}, {"time": 1571, "annotation": {"number": 64, "value": 71}, "group": "control_change"}, {"time": 1572, "annotation": {"number": 64, "value": 127}, "group": "control_change"}, {"time": 1590, "annotation": {"number": 64, "value": 0}, "group": "control_change"}, {"time": 1595, "annotation": {"number": 64, "value": 71}, "group": "control_change"}, {"time": 1595, "annotation": {"number": 64, "value": 127}, "group": "control_change"}, {"time": 1618, "annotation": {"number": 64, "value": 71}, "group": "control_change"}, {"time": 1618, "annotation": {"number": 64, "value": 0}, "group": "control_change"}, {"time": 1622, "annotation": {"number": 64, "value": 71}, "group": "control_change"}, {"time": 1622, "annotation": {"number": 64, "value": 127}, "group": "control_change"}, {"time": 1642, "annotation": {"number": 64, "value": 71}, "group": "control_change"}, {"time": 1642, "annotation": {"number": 64, "value": 0}, "group": "control_change"}, {"time": 1646, "annotation": {"number": 64, "value": 71}, "group": "control_change"}, {"time": 1647, "annotation": {"number": 64, "value": 127}, "group": "control_change"}, {"time": 1667, "annotation": {"number": 64, "value": 71}, "group": "control_change"}, {"time": 1668, "annotation": {"number": 64, "value": 127}, "group": "control_change"}, {"time": 1690, "annotation": {"number": 64, "value": 71}, "group": "control_change"}, {"time": 1691, "annotation": {"number": 64, "value": 127}, "group": "control_change"}, {"time": 1691, "annotation": {"number": 64, "value": 0}, "group": "control_change"}, {"time": 1695, "annotation": {"number": 64, "value": 71}, "group": "control_change"}, {"time": 1698, "annotation": {"number": 64, "value": 0}, "group": "control_change"}, {"time": 1714, "annotation": {"number": 64, "value": 71}, "group": "control_change"}, {"time": 1714, "annotation": {"number": 64, "value": 0}, "group": "control_change"}, {"time": 1716, "annotation": {"number": 64, "value": 71}, "group": "control_change"}, {"time": 1717, "annotation": {"number": 64, "value": 127}, "group": "control_change"}, {"time": 1737, "annotation": {"number": 64, "value": 71}, "group": "control_change"}, {"time": 1738, "annotation": {"number": 64, "value": 0}, "group": "control_change"}, {"time": 1741, "annotation": {"number": 64, "value": 71}, "group": "control_change"}, {"time": 1742, "annotation": {"number": 64, "value": 127}, "group": "control_change"}, {"time": 1761, "annotation": {"number": 64, "value": 71}, "group": "control_change"}, {"time": 1761, "annotation": {"number": 64, "value": 0}, "group": "control_change"}, {"time": 1764, "annotation": {"number": 64, "value": 71}, "group": "control_change"}, {"time": 1764, "annotation": {"number": 64, "value": 127}, "group": "control_change"}, {"time": 1785, "annotation": {"number": 64, "value": 71}, "group": "control_change"}, {"time": 1785, "annotation": {"number": 64, "value": 0}, "group": "control_change"}, {"time": 1786, "annotation": {"number": 64, "value": 71}, "group": "control_change"}, {"time": 1786, "annotation": {"number": 64, "value": 127}, "group": "control_change"}, {"time": 1809, "annotation": {"number": 64, "value": 71}, "group": "control_change"}, {"time": 1810, "annotation": {"number": 64, "value": 0}, "group": "control_change"}, {"time": 1812, "annotation": {"number": 64, "value": 71}, "group": "control_change"}, {"time": 1813, "annotation": {"number": 64, "value": 127}, "group": "control_change"}, {"time": 1833, "annotation": {"number": 64, "value": 71}, "group": "control_change"}, {"time": 1834, "annotation": {"number": 64, "value": 0}, "group": "control_change"}, {"time": 1836, "annotation": {"number": 64, "value": 71}, "group": "control_change"}, {"time": 1837, "annotation": {"number": 64, "value": 127}, "group": "control_change"}, {"time": 1857, "annotation": {"number": 64, "value": 71}, "group": "control_change"}, {"time": 1857, "annotation": {"number": 64, "value": 0}, "group": "control_change"}, {"time": 1860, "annotation": {"number": 64, "value": 71}, "group": "control_change"}, {"time": 1861, "annotation": {"number": 64, "value": 127}, "group": "control_change"}, {"time": 1881, "annotation": {"number": 64, "value": 71}, "group": "control_change"}, {"time": 1881, "annotation": {"number": 64, "value": 0}, "group": "control_change"}, {"time": 1884, "annotation": {"number": 64, "value": 71}, "group": "control_change"}, {"time": 1884, "annotation": {"number": 64, "value": 127}, "group": "control_change"}, {"time": 1893, "annotation": {"number": 64, "value": 71}, "group": "control_change"}, {"time": 1893, "annotation": {"number": 64, "value": 127}, "group": "control_change"}, {"time": 1906, "annotation": {"number": 64, "value": 71}, "group": "control_change"}, {"time": 1906, "annotation": {"number": 64, "value": 0}, "group": "control_change"}, {"time": 1908, "annotation": {"number": 64, "value": 71}, "group": "control_change"}, {"time": 1908, "annotation": {"number": 64, "value": 127}, "group": "control_change"}, {"time": 1930, "annotation": {"number": 64, "value": 71}, "group": "control_change"}, {"time": 1930, "annotation": {"number": 64, "value": 0}, "group": "control_change"}, {"time": 1933, "annotation": {"number": 64, "value": 71}, "group": "control_change"}, {"time": 1933, "annotation": {"number": 64, "value": 127}, "group": "control_change"}, {"time": 1954, "annotation": {"number": 64, "value": 71}, "group": "control_change"}, {"time": 1954, "annotation": {"number": 64, "value": 0}, "group": "control_change"}, {"time": 1957, "annotation": {"number": 64, "value": 71}, "group": "control_change"}, {"time": 1958, "annotation": {"number": 64, "value": 127}, "group": "control_change"}, {"time": 1978, "annotation": {"number": 64, "value": 71}, "group": "control_change"}, {"time": 1978, "annotation": {"number": 64, "value": 0}, "group": "control_change"}, {"time": 1981, "annotation": {"number": 64, "value": 71}, "group": "control_change"}, {"time": 1981, "annotation": {"number": 64, "value": 127}, "group": "control_change"}, {"time": 2001, "annotation": {"number": 64, "value": 71}, "group": "control_change"}, {"time": 2001, "annotation": {"number": 64, "value": 0}, "group": "control_change"}, {"time": 2003, "annotation": {"number": 64, "value": 71}, "group": "control_change"}, {"time": 2004, "annotation": {"number": 64, "value": 127}, "group": "control_change"}, {"time": 2025, "annotation": {"number": 64, "value": 71}, "group": "control_change"}, {"time": 2026, "annotation": {"number": 64, "value": 0}, "group": "control_change"}, {"time": 2029, "annotation": {"number": 64, "value": 71}, "group": "control_change"}, {"time": 2029, "annotation": {"number": 64, "value": 127}, "group": "control_change"}, {"time": 2050, "annotation": {"number": 64, "value": 71}, "group": "control_change"}, {"time": 2051, "annotation": {"number": 64, "value": 0}, "group": "control_change"}, {"time": 2054, "annotation": {"number": 64, "value": 71}, "group": "control_change"}, {"time": 2055, "annotation": {"number": 64, "value": 127}, "group": "control_change"}, {"time": 2074, "annotation": {"number": 64, "value": 71}, "group": "control_change"}, {"time": 2074, "annotation": {"number": 64, "value": 0}, "group": "control_change"}, {"time": 2076, "annotation": {"number": 64, "value": 71}, "group": "control_change"}, {"time": 2077, "annotation": {"number": 64, "value": 127}, "group": "control_change"}, {"time": 2098, "annotation": {"number": 64, "value": 71}, "group": "control_change"}, {"time": 2098, "annotation": {"number": 64, "value": 0}, "group": "control_change"}, {"time": 2101, "annotation": {"number": 64, "value": 71}, "group": "control_change"}, {"time": 2101, "annotation": {"number": 64, "value": 127}, "group": "control_change"}, {"time": 2122, "annotation": {"number": 64, "value": 71}, "group": "control_change"}, {"time": 2123, "annotation": {"number": 64, "value": 0}, "group": "control_change"}, {"time": 2125, "annotation": {"number": 64, "value": 71}, "group": "control_change"}, {"time": 2125, "annotation": {"number": 64, "value": 127}, "group": "control_change"}, {"time": 2146, "annotation": {"number": 64, "value": 71}, "group": "control_change"}, {"time": 2146, "annotation": {"number": 64, "value": 0}, "group": "control_change"}, {"time": 2147, "annotation": {"number": 64, "value": 71}, "group": "control_change"}, {"time": 2148, "annotation": {"number": 64, "value": 127}, "group": "control_change"}, {"time": 2169, "annotation": {"number": 64, "value": 71}, "group": "control_change"}, {"time": 2170, "annotation": {"number": 64, "value": 0}, "group": "control_change"}, {"time": 2170, "annotation": {"number": 64, "value": 71}, "group": "control_change"}, {"time": 2170, "annotation": {"number": 64, "value": 127}, "group": "control_change"}, {"time": 2193, "annotation": {"number": 64, "value": 71}, "group": "control_change"}, {"time": 2194, "annotation": {"number": 64, "value": 0}, "group": "control_change"}, {"time": 2198, "annotation": {"number": 64, "value": 71}, "group": "control_change"}, {"time": 2198, "annotation": {"number": 64, "value": 127}, "group": "control_change"}, {"time": 2216, "annotation": {"number": 64, "value": 71}, "group": "control_change"}, {"time": 2217, "annotation": {"number": 64, "value": 0}, "group": "control_change"}, {"time": 2219, "annotation": {"number": 64, "value": 71}, "group": "control_change"}, {"time": 2220, "annotation": {"number": 64, "value": 127}, "group": "control_change"}, {"time": 2241, "annotation": {"number": 64, "value": 71}, "group": "control_change"}, {"time": 2241, "annotation": {"number": 64, "value": 0}, "group": "control_change"}, {"time": 2245, "annotation": {"number": 64, "value": 71}, "group": "control_change"}, {"time": 2246, "annotation": {"number": 64, "value": 127}, "group": "control_change"}, {"time": 2265, "annotation": {"number": 64, "value": 71}, "group": "control_change"}, {"time": 2266, "annotation": {"number": 64, "value": 0}, "group": "control_change"}, {"time": 2270, "annotation": {"number": 64, "value": 71}, "group": "control_change"}, {"time": 2271, "annotation": {"number": 64, "value": 127}, "group": "control_change"}, {"time": 2290, "annotation": {"number": 64, "value": 71}, "group": "control_change"}, {"time": 2291, "annotation": {"number": 64, "value": 0}, "group": "control_change"}, {"time": 2295, "annotation": {"number": 64, "value": 71}, "group": "control_change"}, {"time": 2296, "annotation": {"number": 64, "value": 127}, "group": "control_change"}, {"time": 2313, "annotation": {"number": 64, "value": 71}, "group": "control_change"}, {"time": 2314, "annotation": {"number": 64, "value": 0}, "group": "control_change"}, {"time": 2316, "annotation": {"number": 64, "value": 71}, "group": "control_change"}, {"time": 2317, "annotation": {"number": 64, "value": 127}, "group": "control_change"}, {"time": 2337, "annotation": {"number": 64, "value": 71}, "group": "control_change"}, {"time": 2338, "annotation": {"number": 64, "value": 0}, "group": "control_change"}, {"time": 2342, "annotation": {"number": 64, "value": 71}, "group": "control_change"}, {"time": 2342, "annotation": {"number": 64, "value": 127}, "group": "control_change"}, {"time": 2361, "annotation": {"number": 64, "value": 71}, "group": "control_change"}, {"time": 2362, "annotation": {"number": 64, "value": 0}, "group": "control_change"}]}]}