{"metadata": {"schema_version": "0.2", "title": "None", "source_filename": "305.mid", "source_format": "midi"}, "resolution": 12, "tempos": [{"time": 0, "qpm": 76.00006586672374}], "time_signatures": [{"time": 0, "numerator": 4, "denominator": 4}], "tracks": [{"program": 0, "is_drum": false, "name": "MELODY", "notes": [{"time": 252, "pitch": 63, "duration": 5, "velocity": 92}, {"time": 258, "pitch": 63, "duration": 5, "velocity": 92}, {"time": 264, "pitch": 65, "duration": 5, "velocity": 100}, {"time": 270, "pitch": 68, "duration": 3, "velocity": 107}, {"time": 276, "pitch": 72, "duration": 7, "velocity": 110}, {"time": 318, "pitch": 70, "duration": 1, "velocity": 93}, {"time": 321, "pitch": 68, "duration": 2, "velocity": 88}, {"time": 324, "pitch": 72, "duration": 4, "velocity": 108}, {"time": 336, "pitch": 70, "duration": 5, "velocity": 108}, {"time": 348, "pitch": 63, "duration": 3, "velocity": 107}, {"time": 354, "pitch": 63, "duration": 4, "velocity": 113}, {"time": 360, "pitch": 65, "duration": 4, "velocity": 113}, {"time": 366, "pitch": 68, "duration": 3, "velocity": 114}, {"time": 372, "pitch": 72, "duration": 6, "velocity": 120}, {"time": 414, "pitch": 70, "duration": 2, "velocity": 104}, {"time": 417, "pitch": 68, "duration": 1, "velocity": 98}, {"time": 420, "pitch": 72, "duration": 3, "velocity": 113}, {"time": 432, "pitch": 70, "duration": 6, "velocity": 116}, {"time": 444, "pitch": 75, "duration": 3, "velocity": 100}, {"time": 450, "pitch": 75, "duration": 2, "velocity": 107}, {"time": 456, "pitch": 75, "duration": 2, "velocity": 104}, {"time": 462, "pitch": 75, "duration": 3, "velocity": 113}, {"time": 468, "pitch": 77, "duration": 6, "velocity": 116}, {"time": 510, "pitch": 72, "duration": 2, "velocity": 107}, {"time": 516, "pitch": 75, "duration": 2, "velocity": 98}, {"time": 522, "pitch": 77, "duration": 3, "velocity": 113}, {"time": 528, "pitch": 75, "duration": 1, "velocity": 110}, {"time": 531, "pitch": 75, "duration": 3, "velocity": 113}, {"time": 537, "pitch": 72, "duration": 1, "velocity": 98}, {"time": 540, "pitch": 72, "duration": 4, "velocity": 108}, {"time": 558, "pitch": 68, "duration": 2, "velocity": 98}, {"time": 561, "pitch": 72, "duration": 4, "velocity": 108}, {"time": 570, "pitch": 70, "duration": 2, "velocity": 113}, {"time": 573, "pitch": 68, "duration": 2, "velocity": 104}, {"time": 576, "pitch": 65, "duration": 5, "velocity": 94}, {"time": 588, "pitch": 70, "duration": 3, "velocity": 108}, {"time": 594, "pitch": 70, "duration": 3, "velocity": 107}, {"time": 600, "pitch": 68, "duration": 3, "velocity": 100}, {"time": 606, "pitch": 72, "duration": 4, "velocity": 113}, {"time": 612, "pitch": 70, "duration": 4, "velocity": 114}, {"time": 636, "pitch": 63, "duration": 5, "velocity": 92}, {"time": 642, "pitch": 63, "duration": 5, "velocity": 92}, {"time": 648, "pitch": 65, "duration": 5, "velocity": 100}, {"time": 654, "pitch": 68, "duration": 3, "velocity": 107}, {"time": 660, "pitch": 72, "duration": 7, "velocity": 110}, {"time": 696, "pitch": 72, "duration": 1, "velocity": 93}, {"time": 702, "pitch": 70, "duration": 1, "velocity": 93}, {"time": 705, "pitch": 68, "duration": 2, "velocity": 88}, {"time": 708, "pitch": 72, "duration": 4, "velocity": 108}, {"time": 720, "pitch": 70, "duration": 5, "velocity": 108}, {"time": 732, "pitch": 75, "duration": 1, "velocity": 110}, {"time": 735, "pitch": 75, "duration": 1, "velocity": 100}, {"time": 738, "pitch": 77, "duration": 3, "velocity": 116}, {"time": 744, "pitch": 75, "duration": 2, "velocity": 108}, {"time": 747, "pitch": 75, "duration": 3, "velocity": 102}, {"time": 753, "pitch": 72, "duration": 1, "velocity": 100}, {"time": 756, "pitch": 72, "duration": 2, "velocity": 110}, {"time": 792, "pitch": 70, "duration": 2, "velocity": 104}, {"time": 798, "pitch": 70, "duration": 2, "velocity": 104}, {"time": 801, "pitch": 68, "duration": 1, "velocity": 98}, {"time": 804, "pitch": 72, "duration": 3, "velocity": 113}, {"time": 816, "pitch": 75, "duration": 6, "velocity": 116}, {"time": 828, "pitch": 75, "duration": 3, "velocity": 100}, {"time": 834, "pitch": 75, "duration": 2, "velocity": 107}, {"time": 840, "pitch": 75, "duration": 2, "velocity": 104}, {"time": 846, "pitch": 75, "duration": 3, "velocity": 113}, {"time": 852, "pitch": 77, "duration": 6, "velocity": 116}, {"time": 882, "pitch": 77, "duration": 3, "velocity": 108}, {"time": 888, "pitch": 77, "duration": 3, "velocity": 104}, {"time": 894, "pitch": 80, "duration": 3, "velocity": 113}, {"time": 900, "pitch": 79, "duration": 4, "velocity": 119}, {"time": 912, "pitch": 75, "duration": 5, "velocity": 104}, {"time": 924, "pitch": 75, "duration": 8, "velocity": 110}, {"time": 936, "pitch": 79, "duration": 7, "velocity": 119}, {"time": 948, "pitch": 80, "duration": 6, "velocity": 117}, {"time": 978, "pitch": 77, "duration": 3, "velocity": 116}, {"time": 984, "pitch": 80, "duration": 4, "velocity": 116}, {"time": 996, "pitch": 82, "duration": 5, "velocity": 117}, {"time": 1020, "pitch": 75, "duration": 3, "velocity": 100}, {"time": 1026, "pitch": 75, "duration": 4, "velocity": 108}, {"time": 1032, "pitch": 75, "duration": 4, "velocity": 108}, {"time": 1038, "pitch": 77, "duration": 4, "velocity": 114}, {"time": 1044, "pitch": 75, "duration": 3, "velocity": 117}, {"time": 1050, "pitch": 84, "duration": 5, "velocity": 116}, {"time": 1062, "pitch": 75, "duration": 5, "velocity": 117}, {"time": 1074, "pitch": 75, "duration": 2, "velocity": 116}, {"time": 1080, "pitch": 75, "duration": 4, "velocity": 114}, {"time": 1086, "pitch": 77, "duration": 4, "velocity": 114}, {"time": 1092, "pitch": 75, "duration": 3, "velocity": 116}, {"time": 1098, "pitch": 82, "duration": 6, "velocity": 120}, {"time": 1110, "pitch": 75, "duration": 5, "velocity": 100}, {"time": 1122, "pitch": 75, "duration": 3, "velocity": 114}, {"time": 1128, "pitch": 75, "duration": 3, "velocity": 108}, {"time": 1134, "pitch": 77, "duration": 4, "velocity": 113}, {"time": 1140, "pitch": 75, "duration": 3, "velocity": 114}, {"time": 1146, "pitch": 80, "duration": 8, "velocity": 117}, {"time": 1158, "pitch": 72, "duration": 5, "velocity": 116}, {"time": 1170, "pitch": 80, "duration": 5, "velocity": 117}, {"time": 1176, "pitch": 79, "duration": 5, "velocity": 113}, {"time": 1182, "pitch": 77, "duration": 3, "velocity": 116}, {"time": 1188, "pitch": 77, "duration": 5, "velocity": 119}, {"time": 1200, "pitch": 75, "duration": 5, "velocity": 116}, {"time": 1212, "pitch": 75, "duration": 3, "velocity": 108}, {"time": 1218, "pitch": 75, "duration": 3, "velocity": 108}, {"time": 1224, "pitch": 75, "duration": 2, "velocity": 108}, {"time": 1230, "pitch": 75, "duration": 2, "velocity": 107}, {"time": 1236, "pitch": 75, "duration": 2, "velocity": 104}, {"time": 1242, "pitch": 77, "duration": 4, "velocity": 114}, {"time": 1251, "pitch": 68, "duration": 4, "velocity": 114}, {"time": 1260, "pitch": 68, "duration": 4, "velocity": 104}, {"time": 1266, "pitch": 68, "duration": 4, "velocity": 104}, {"time": 1272, "pitch": 68, "duration": 3, "velocity": 110}, {"time": 1278, "pitch": 68, "duration": 4, "velocity": 113}, {"time": 1284, "pitch": 68, "duration": 4, "velocity": 92}, {"time": 1290, "pitch": 75, "duration": 4, "velocity": 110}, {"time": 1299, "pitch": 72, "duration": 4, "velocity": 102}, {"time": 1308, "pitch": 75, "duration": 3, "velocity": 104}, {"time": 1314, "pitch": 75, "duration": 3, "velocity": 110}, {"time": 1320, "pitch": 75, "duration": 3, "velocity": 108}, {"time": 1326, "pitch": 75, "duration": 2, "velocity": 108}, {"time": 1332, "pitch": 77, "duration": 3, "velocity": 110}, {"time": 1344, "pitch": 80, "duration": 4, "velocity": 114}, {"time": 1356, "pitch": 80, "duration": 3, "velocity": 114}, {"time": 1362, "pitch": 80, "duration": 5, "velocity": 114}, {"time": 1368, "pitch": 77, "duration": 4, "velocity": 116}, {"time": 1374, "pitch": 80, "duration": 3, "velocity": 114}, {"time": 1380, "pitch": 82, "duration": 5, "velocity": 117}, {"time": 1404, "pitch": 75, "duration": 3, "velocity": 100}, {"time": 1410, "pitch": 75, "duration": 4, "velocity": 108}, {"time": 1416, "pitch": 75, "duration": 4, "velocity": 108}, {"time": 1422, "pitch": 77, "duration": 4, "velocity": 114}, {"time": 1428, "pitch": 75, "duration": 3, "velocity": 117}, {"time": 1434, "pitch": 84, "duration": 5, "velocity": 116}, {"time": 1446, "pitch": 75, "duration": 5, "velocity": 117}, {"time": 1458, "pitch": 75, "duration": 2, "velocity": 116}, {"time": 1464, "pitch": 75, "duration": 4, "velocity": 114}, {"time": 1470, "pitch": 77, "duration": 4, "velocity": 114}, {"time": 1476, "pitch": 75, "duration": 3, "velocity": 116}, {"time": 1482, "pitch": 82, "duration": 6, "velocity": 120}, {"time": 1494, "pitch": 75, "duration": 5, "velocity": 100}, {"time": 1506, "pitch": 75, "duration": 3, "velocity": 114}, {"time": 1512, "pitch": 75, "duration": 3, "velocity": 108}, {"time": 1518, "pitch": 77, "duration": 4, "velocity": 113}, {"time": 1524, "pitch": 75, "duration": 3, "velocity": 114}, {"time": 1530, "pitch": 80, "duration": 8, "velocity": 117}, {"time": 1542, "pitch": 72, "duration": 5, "velocity": 116}, {"time": 1554, "pitch": 80, "duration": 5, "velocity": 117}, {"time": 1560, "pitch": 79, "duration": 5, "velocity": 113}, {"time": 1566, "pitch": 77, "duration": 3, "velocity": 116}, {"time": 1572, "pitch": 77, "duration": 5, "velocity": 119}, {"time": 1584, "pitch": 75, "duration": 5, "velocity": 116}, {"time": 1596, "pitch": 75, "duration": 3, "velocity": 108}, {"time": 1602, "pitch": 75, "duration": 3, "velocity": 108}, {"time": 1608, "pitch": 75, "duration": 2, "velocity": 108}, {"time": 1614, "pitch": 75, "duration": 2, "velocity": 107}, {"time": 1620, "pitch": 75, "duration": 2, "velocity": 104}, {"time": 1626, "pitch": 77, "duration": 4, "velocity": 114}, {"time": 1632, "pitch": 80, "duration": 5, "velocity": 110}, {"time": 1644, "pitch": 75, "duration": 2, "velocity": 110}, {"time": 1650, "pitch": 75, "duration": 2, "velocity": 110}, {"time": 1656, "pitch": 75, "duration": 3, "velocity": 110}, {"time": 1662, "pitch": 75, "duration": 3, "velocity": 108}, {"time": 1668, "pitch": 75, "duration": 3, "velocity": 110}, {"time": 1674, "pitch": 77, "duration": 5, "velocity": 110}, {"time": 1683, "pitch": 80, "duration": 3, "velocity": 116}, {"time": 1692, "pitch": 75, "duration": 3, "velocity": 113}, {"time": 1698, "pitch": 75, "duration": 2, "velocity": 107}, {"time": 1704, "pitch": 75, "duration": 2, "velocity": 108}, {"time": 1710, "pitch": 84, "duration": 4, "velocity": 113}, {"time": 1716, "pitch": 82, "duration": 8, "velocity": 119}, {"time": 1728, "pitch": 80, "duration": 4, "velocity": 119}, {"time": 1740, "pitch": 80, "duration": 3, "velocity": 117}, {"time": 1746, "pitch": 80, "duration": 4, "velocity": 114}, {"time": 1752, "pitch": 77, "duration": 4, "velocity": 116}, {"time": 1758, "pitch": 80, "duration": 3, "velocity": 114}, {"time": 1764, "pitch": 82, "duration": 4, "velocity": 117}, {"time": 1788, "pitch": 75, "duration": 8, "velocity": 114}, {"time": 1800, "pitch": 82, "duration": 9, "velocity": 116}, {"time": 1812, "pitch": 80, "duration": 5, "velocity": 119}, {"time": 1884, "pitch": 63, "duration": 5, "velocity": 92}, {"time": 1890, "pitch": 63, "duration": 5, "velocity": 92}, {"time": 1896, "pitch": 65, "duration": 5, "velocity": 100}, {"time": 1902, "pitch": 68, "duration": 3, "velocity": 107}, {"time": 1908, "pitch": 72, "duration": 7, "velocity": 110}, {"time": 1950, "pitch": 70, "duration": 1, "velocity": 93}, {"time": 1953, "pitch": 68, "duration": 2, "velocity": 88}, {"time": 1956, "pitch": 72, "duration": 4, "velocity": 108}, {"time": 1968, "pitch": 70, "duration": 5, "velocity": 108}, {"time": 1980, "pitch": 63, "duration": 3, "velocity": 107}, {"time": 1986, "pitch": 63, "duration": 4, "velocity": 113}, {"time": 1992, "pitch": 65, "duration": 4, "velocity": 113}, {"time": 1998, "pitch": 68, "duration": 3, "velocity": 114}, {"time": 2004, "pitch": 72, "duration": 6, "velocity": 120}, {"time": 2046, "pitch": 70, "duration": 2, "velocity": 104}, {"time": 2049, "pitch": 68, "duration": 1, "velocity": 98}, {"time": 2052, "pitch": 72, "duration": 3, "velocity": 113}, {"time": 2064, "pitch": 70, "duration": 6, "velocity": 116}, {"time": 2076, "pitch": 75, "duration": 3, "velocity": 100}, {"time": 2082, "pitch": 75, "duration": 2, "velocity": 107}, {"time": 2088, "pitch": 75, "duration": 2, "velocity": 104}, {"time": 2094, "pitch": 75, "duration": 3, "velocity": 113}, {"time": 2100, "pitch": 77, "duration": 6, "velocity": 116}, {"time": 2142, "pitch": 72, "duration": 2, "velocity": 107}, {"time": 2148, "pitch": 75, "duration": 2, "velocity": 98}, {"time": 2154, "pitch": 77, "duration": 3, "velocity": 113}, {"time": 2160, "pitch": 75, "duration": 1, "velocity": 110}, {"time": 2163, "pitch": 75, "duration": 3, "velocity": 113}, {"time": 2169, "pitch": 72, "duration": 1, "velocity": 98}, {"time": 2172, "pitch": 72, "duration": 4, "velocity": 108}, {"time": 2190, "pitch": 68, "duration": 2, "velocity": 98}, {"time": 2193, "pitch": 72, "duration": 4, "velocity": 108}, {"time": 2202, "pitch": 70, "duration": 2, "velocity": 113}, {"time": 2205, "pitch": 68, "duration": 2, "velocity": 104}, {"time": 2208, "pitch": 65, "duration": 5, "velocity": 94}, {"time": 2220, "pitch": 70, "duration": 3, "velocity": 108}, {"time": 2226, "pitch": 70, "duration": 3, "velocity": 107}, {"time": 2232, "pitch": 68, "duration": 3, "velocity": 100}, {"time": 2238, "pitch": 72, "duration": 4, "velocity": 113}, {"time": 2244, "pitch": 70, "duration": 4, "velocity": 114}, {"time": 2268, "pitch": 63, "duration": 5, "velocity": 92}, {"time": 2274, "pitch": 63, "duration": 5, "velocity": 92}, {"time": 2280, "pitch": 65, "duration": 5, "velocity": 100}, {"time": 2286, "pitch": 68, "duration": 3, "velocity": 107}, {"time": 2292, "pitch": 72, "duration": 7, "velocity": 110}, {"time": 2328, "pitch": 72, "duration": 1, "velocity": 93}, {"time": 2334, "pitch": 70, "duration": 1, "velocity": 93}, {"time": 2337, "pitch": 68, "duration": 2, "velocity": 88}, {"time": 2340, "pitch": 72, "duration": 4, "velocity": 108}, {"time": 2352, "pitch": 70, "duration": 5, "velocity": 108}, {"time": 2364, "pitch": 75, "duration": 1, "velocity": 110}, {"time": 2367, "pitch": 75, "duration": 1, "velocity": 100}, {"time": 2370, "pitch": 77, "duration": 3, "velocity": 116}, {"time": 2376, "pitch": 75, "duration": 2, "velocity": 108}, {"time": 2379, "pitch": 75, "duration": 3, "velocity": 102}, {"time": 2385, "pitch": 72, "duration": 1, "velocity": 100}, {"time": 2388, "pitch": 72, "duration": 2, "velocity": 110}, {"time": 2424, "pitch": 70, "duration": 2, "velocity": 104}, {"time": 2430, "pitch": 70, "duration": 2, "velocity": 104}, {"time": 2433, "pitch": 68, "duration": 1, "velocity": 98}, {"time": 2436, "pitch": 72, "duration": 3, "velocity": 113}, {"time": 2448, "pitch": 75, "duration": 6, "velocity": 116}, {"time": 2460, "pitch": 75, "duration": 3, "velocity": 100}, {"time": 2466, "pitch": 75, "duration": 2, "velocity": 107}, {"time": 2472, "pitch": 75, "duration": 2, "velocity": 104}, {"time": 2478, "pitch": 75, "duration": 3, "velocity": 113}, {"time": 2484, "pitch": 77, "duration": 6, "velocity": 116}, {"time": 2514, "pitch": 77, "duration": 3, "velocity": 108}, {"time": 2520, "pitch": 77, "duration": 3, "velocity": 104}, {"time": 2526, "pitch": 80, "duration": 3, "velocity": 113}, {"time": 2532, "pitch": 79, "duration": 4, "velocity": 119}, {"time": 2544, "pitch": 75, "duration": 5, "velocity": 104}, {"time": 2556, "pitch": 75, "duration": 8, "velocity": 110}, {"time": 2568, "pitch": 79, "duration": 7, "velocity": 119}, {"time": 2580, "pitch": 80, "duration": 6, "velocity": 117}, {"time": 2610, "pitch": 77, "duration": 3, "velocity": 116}, {"time": 2616, "pitch": 80, "duration": 4, "velocity": 116}, {"time": 2628, "pitch": 82, "duration": 5, "velocity": 117}, {"time": 2652, "pitch": 75, "duration": 3, "velocity": 100}, {"time": 2658, "pitch": 75, "duration": 4, "velocity": 108}, {"time": 2664, "pitch": 75, "duration": 4, "velocity": 108}, {"time": 2670, "pitch": 77, "duration": 4, "velocity": 114}, {"time": 2676, "pitch": 75, "duration": 3, "velocity": 117}, {"time": 2682, "pitch": 84, "duration": 5, "velocity": 116}, {"time": 2694, "pitch": 75, "duration": 5, "velocity": 117}, {"time": 2706, "pitch": 75, "duration": 2, "velocity": 116}, {"time": 2712, "pitch": 75, "duration": 4, "velocity": 114}, {"time": 2718, "pitch": 77, "duration": 4, "velocity": 114}, {"time": 2724, "pitch": 75, "duration": 3, "velocity": 116}, {"time": 2730, "pitch": 82, "duration": 6, "velocity": 120}, {"time": 2742, "pitch": 75, "duration": 5, "velocity": 100}, {"time": 2754, "pitch": 75, "duration": 3, "velocity": 114}, {"time": 2760, "pitch": 75, "duration": 3, "velocity": 108}, {"time": 2766, "pitch": 77, "duration": 4, "velocity": 113}, {"time": 2772, "pitch": 75, "duration": 3, "velocity": 114}, {"time": 2778, "pitch": 80, "duration": 8, "velocity": 117}, {"time": 2790, "pitch": 72, "duration": 5, "velocity": 116}, {"time": 2802, "pitch": 80, "duration": 5, "velocity": 117}, {"time": 2808, "pitch": 79, "duration": 5, "velocity": 113}, {"time": 2814, "pitch": 77, "duration": 3, "velocity": 116}, {"time": 2820, "pitch": 77, "duration": 5, "velocity": 119}, {"time": 2832, "pitch": 75, "duration": 5, "velocity": 116}, {"time": 2844, "pitch": 75, "duration": 3, "velocity": 108}, {"time": 2850, "pitch": 75, "duration": 3, "velocity": 108}, {"time": 2856, "pitch": 75, "duration": 2, "velocity": 108}, {"time": 2862, "pitch": 75, "duration": 2, "velocity": 107}, {"time": 2868, "pitch": 75, "duration": 2, "velocity": 104}, {"time": 2874, "pitch": 77, "duration": 4, "velocity": 114}, {"time": 2883, "pitch": 68, "duration": 4, "velocity": 114}, {"time": 2892, "pitch": 68, "duration": 4, "velocity": 104}, {"time": 2898, "pitch": 68, "duration": 4, "velocity": 104}, {"time": 2904, "pitch": 68, "duration": 3, "velocity": 110}, {"time": 2910, "pitch": 68, "duration": 4, "velocity": 113}, {"time": 2916, "pitch": 68, "duration": 4, "velocity": 92}, {"time": 2922, "pitch": 75, "duration": 4, "velocity": 110}, {"time": 2931, "pitch": 72, "duration": 4, "velocity": 102}, {"time": 2940, "pitch": 75, "duration": 3, "velocity": 104}, {"time": 2946, "pitch": 75, "duration": 3, "velocity": 110}, {"time": 2952, "pitch": 75, "duration": 3, "velocity": 108}, {"time": 2958, "pitch": 75, "duration": 2, "velocity": 108}, {"time": 2964, "pitch": 77, "duration": 3, "velocity": 110}, {"time": 2976, "pitch": 80, "duration": 4, "velocity": 114}, {"time": 2988, "pitch": 80, "duration": 3, "velocity": 114}, {"time": 2994, "pitch": 80, "duration": 5, "velocity": 114}, {"time": 3000, "pitch": 77, "duration": 4, "velocity": 116}, {"time": 3006, "pitch": 80, "duration": 3, "velocity": 114}, {"time": 3012, "pitch": 82, "duration": 5, "velocity": 117}, {"time": 3036, "pitch": 75, "duration": 3, "velocity": 100}, {"time": 3042, "pitch": 75, "duration": 4, "velocity": 108}, {"time": 3048, "pitch": 75, "duration": 4, "velocity": 108}, {"time": 3054, "pitch": 77, "duration": 4, "velocity": 114}, {"time": 3060, "pitch": 75, "duration": 3, "velocity": 117}, {"time": 3066, "pitch": 84, "duration": 5, "velocity": 116}, {"time": 3078, "pitch": 75, "duration": 5, "velocity": 117}, {"time": 3090, "pitch": 75, "duration": 2, "velocity": 116}, {"time": 3096, "pitch": 75, "duration": 4, "velocity": 114}, {"time": 3102, "pitch": 77, "duration": 4, "velocity": 114}, {"time": 3108, "pitch": 75, "duration": 3, "velocity": 116}, {"time": 3114, "pitch": 82, "duration": 6, "velocity": 120}, {"time": 3126, "pitch": 75, "duration": 5, "velocity": 100}, {"time": 3138, "pitch": 75, "duration": 3, "velocity": 114}, {"time": 3144, "pitch": 75, "duration": 3, "velocity": 108}, {"time": 3150, "pitch": 77, "duration": 4, "velocity": 113}, {"time": 3156, "pitch": 75, "duration": 3, "velocity": 114}, {"time": 3162, "pitch": 80, "duration": 8, "velocity": 117}, {"time": 3174, "pitch": 72, "duration": 5, "velocity": 116}, {"time": 3186, "pitch": 80, "duration": 5, "velocity": 117}, {"time": 3192, "pitch": 79, "duration": 5, "velocity": 113}, {"time": 3198, "pitch": 77, "duration": 3, "velocity": 116}, {"time": 3204, "pitch": 77, "duration": 5, "velocity": 119}, {"time": 3216, "pitch": 75, "duration": 5, "velocity": 116}, {"time": 3228, "pitch": 75, "duration": 3, "velocity": 108}, {"time": 3234, "pitch": 75, "duration": 3, "velocity": 108}, {"time": 3240, "pitch": 75, "duration": 2, "velocity": 108}, {"time": 3246, "pitch": 75, "duration": 2, "velocity": 107}, {"time": 3252, "pitch": 75, "duration": 2, "velocity": 104}, {"time": 3258, "pitch": 77, "duration": 4, "velocity": 114}, {"time": 3264, "pitch": 80, "duration": 5, "velocity": 110}, {"time": 3276, "pitch": 75, "duration": 2, "velocity": 110}, {"time": 3282, "pitch": 75, "duration": 2, "velocity": 110}, {"time": 3288, "pitch": 75, "duration": 3, "velocity": 110}, {"time": 3294, "pitch": 75, "duration": 3, "velocity": 108}, {"time": 3300, "pitch": 75, "duration": 3, "velocity": 110}, {"time": 3306, "pitch": 77, "duration": 5, "velocity": 110}, {"time": 3315, "pitch": 80, "duration": 3, "velocity": 116}, {"time": 3324, "pitch": 75, "duration": 3, "velocity": 113}, {"time": 3330, "pitch": 75, "duration": 2, "velocity": 107}, {"time": 3336, "pitch": 75, "duration": 2, "velocity": 108}, {"time": 3342, "pitch": 84, "duration": 4, "velocity": 113}, {"time": 3348, "pitch": 82, "duration": 8, "velocity": 119}, {"time": 3360, "pitch": 80, "duration": 4, "velocity": 119}, {"time": 3372, "pitch": 80, "duration": 3, "velocity": 117}, {"time": 3378, "pitch": 80, "duration": 4, "velocity": 114}, {"time": 3384, "pitch": 77, "duration": 4, "velocity": 116}, {"time": 3390, "pitch": 80, "duration": 3, "velocity": 114}, {"time": 3396, "pitch": 82, "duration": 4, "velocity": 117}, {"time": 3420, "pitch": 75, "duration": 8, "velocity": 114}, {"time": 3432, "pitch": 80, "duration": 4, "velocity": 117}, {"time": 3438, "pitch": 79, "duration": 3, "velocity": 106}, {"time": 3444, "pitch": 82, "duration": 44, "velocity": 117}, {"time": 3636, "pitch": 75, "duration": 3, "velocity": 100}, {"time": 3642, "pitch": 75, "duration": 4, "velocity": 108}, {"time": 3648, "pitch": 75, "duration": 4, "velocity": 108}, {"time": 3654, "pitch": 77, "duration": 4, "velocity": 114}, {"time": 3660, "pitch": 75, "duration": 3, "velocity": 117}, {"time": 3666, "pitch": 84, "duration": 5, "velocity": 116}, {"time": 3678, "pitch": 75, "duration": 5, "velocity": 117}, {"time": 3690, "pitch": 75, "duration": 2, "velocity": 116}, {"time": 3696, "pitch": 75, "duration": 4, "velocity": 114}, {"time": 3702, "pitch": 77, "duration": 4, "velocity": 114}, {"time": 3708, "pitch": 75, "duration": 3, "velocity": 116}, {"time": 3714, "pitch": 82, "duration": 6, "velocity": 120}, {"time": 3726, "pitch": 75, "duration": 5, "velocity": 100}, {"time": 3738, "pitch": 75, "duration": 3, "velocity": 114}, {"time": 3744, "pitch": 75, "duration": 3, "velocity": 108}, {"time": 3750, "pitch": 77, "duration": 4, "velocity": 113}, {"time": 3756, "pitch": 75, "duration": 3, "velocity": 114}, {"time": 3762, "pitch": 80, "duration": 8, "velocity": 117}, {"time": 3774, "pitch": 72, "duration": 5, "velocity": 116}, {"time": 3786, "pitch": 80, "duration": 5, "velocity": 117}, {"time": 3792, "pitch": 79, "duration": 5, "velocity": 113}, {"time": 3798, "pitch": 77, "duration": 3, "velocity": 116}, {"time": 3804, "pitch": 77, "duration": 5, "velocity": 119}, {"time": 3816, "pitch": 75, "duration": 5, "velocity": 116}, {"time": 3828, "pitch": 75, "duration": 3, "velocity": 108}, {"time": 3834, "pitch": 75, "duration": 3, "velocity": 108}, {"time": 3840, "pitch": 75, "duration": 2, "velocity": 108}, {"time": 3846, "pitch": 75, "duration": 2, "velocity": 107}, {"time": 3852, "pitch": 75, "duration": 2, "velocity": 104}, {"time": 3858, "pitch": 77, "duration": 4, "velocity": 114}, {"time": 3864, "pitch": 80, "duration": 5, "velocity": 110}, {"time": 3876, "pitch": 75, "duration": 2, "velocity": 110}, {"time": 3882, "pitch": 75, "duration": 2, "velocity": 110}, {"time": 3888, "pitch": 75, "duration": 3, "velocity": 110}, {"time": 3894, "pitch": 75, "duration": 3, "velocity": 108}, {"time": 3900, "pitch": 75, "duration": 3, "velocity": 110}, {"time": 3906, "pitch": 77, "duration": 5, "velocity": 110}, {"time": 3915, "pitch": 80, "duration": 3, "velocity": 116}, {"time": 3924, "pitch": 75, "duration": 3, "velocity": 113}, {"time": 3930, "pitch": 75, "duration": 2, "velocity": 107}, {"time": 3936, "pitch": 75, "duration": 2, "velocity": 108}, {"time": 3942, "pitch": 84, "duration": 4, "velocity": 113}, {"time": 3948, "pitch": 82, "duration": 8, "velocity": 119}, {"time": 3960, "pitch": 80, "duration": 4, "velocity": 119}, {"time": 3972, "pitch": 80, "duration": 3, "velocity": 117}, {"time": 3978, "pitch": 80, "duration": 4, "velocity": 114}, {"time": 3984, "pitch": 77, "duration": 4, "velocity": 116}, {"time": 3990, "pitch": 80, "duration": 3, "velocity": 114}, {"time": 3996, "pitch": 82, "duration": 4, "velocity": 117}, {"time": 4020, "pitch": 75, "duration": 8, "velocity": 114}, {"time": 4032, "pitch": 80, "duration": 4, "velocity": 117}, {"time": 4038, "pitch": 79, "duration": 3, "velocity": 106}, {"time": 4044, "pitch": 82, "duration": 44, "velocity": 117}]}, {"program": 0, "is_drum": false, "name": "PIANO", "notes": [{"time": 90, "pitch": 44, "duration": 45, "velocity": 87}, {"time": 90, "pitch": 56, "duration": 47, "velocity": 89}, {"time": 96, "pitch": 63, "duration": 20, "velocity": 89}, {"time": 102, "pitch": 72, "duration": 7, "velocity": 88}, {"time": 120, "pitch": 72, "duration": 5, "velocity": 100}, {"time": 120, "pitch": 63, "duration": 8, "velocity": 100}, {"time": 138, "pitch": 44, "duration": 50, "velocity": 87}, {"time": 138, "pitch": 56, "duration": 49, "velocity": 89}, {"time": 144, "pitch": 63, "duration": 20, "velocity": 89}, {"time": 150, "pitch": 70, "duration": 7, "velocity": 88}, {"time": 167, "pitch": 70, "duration": 6, "velocity": 100}, {"time": 168, "pitch": 63, "duration": 8, "velocity": 100}, {"time": 186, "pitch": 41, "duration": 38, "velocity": 84}, {"time": 186, "pitch": 53, "duration": 38, "velocity": 87}, {"time": 192, "pitch": 68, "duration": 14, "velocity": 91}, {"time": 198, "pitch": 73, "duration": 9, "velocity": 88}, {"time": 216, "pitch": 68, "duration": 9, "velocity": 86}, {"time": 216, "pitch": 73, "duration": 8, "velocity": 86}, {"time": 234, "pitch": 61, "duration": 2, "velocity": 80}, {"time": 234, "pitch": 66, "duration": 2, "velocity": 86}, {"time": 234, "pitch": 69, "duration": 2, "velocity": 81}, {"time": 240, "pitch": 61, "duration": 7, "velocity": 75}, {"time": 240, "pitch": 66, "duration": 7, "velocity": 81}, {"time": 240, "pitch": 69, "duration": 7, "velocity": 78}, {"time": 282, "pitch": 44, "duration": 41, "velocity": 82}, {"time": 288, "pitch": 51, "duration": 35, "velocity": 76}, {"time": 294, "pitch": 56, "duration": 30, "velocity": 76}, {"time": 300, "pitch": 60, "duration": 26, "velocity": 82}, {"time": 300, "pitch": 68, "duration": 26, "velocity": 82}, {"time": 330, "pitch": 55, "duration": 44, "velocity": 81}, {"time": 336, "pitch": 63, "duration": 37, "velocity": 75}, {"time": 342, "pitch": 67, "duration": 7, "velocity": 73}, {"time": 348, "pitch": 70, "duration": 26, "velocity": 84}, {"time": 378, "pitch": 53, "duration": 39, "velocity": 88}, {"time": 384, "pitch": 60, "duration": 32, "velocity": 76}, {"time": 390, "pitch": 65, "duration": 36, "velocity": 87}, {"time": 396, "pitch": 72, "duration": 14, "velocity": 88}, {"time": 414, "pitch": 68, "duration": 12, "velocity": 83}, {"time": 426, "pitch": 51, "duration": 42, "velocity": 89}, {"time": 432, "pitch": 58, "duration": 35, "velocity": 79}, {"time": 438, "pitch": 63, "duration": 28, "velocity": 84}, {"time": 444, "pitch": 67, "duration": 27, "velocity": 88}, {"time": 444, "pitch": 70, "duration": 26, "velocity": 87}, {"time": 474, "pitch": 49, "duration": 42, "velocity": 88}, {"time": 480, "pitch": 56, "duration": 35, "velocity": 79}, {"time": 486, "pitch": 61, "duration": 28, "velocity": 85}, {"time": 492, "pitch": 65, "duration": 30, "velocity": 89}, {"time": 492, "pitch": 68, "duration": 30, "velocity": 91}, {"time": 522, "pitch": 48, "duration": 42, "velocity": 87}, {"time": 528, "pitch": 55, "duration": 36, "velocity": 74}, {"time": 534, "pitch": 60, "duration": 30, "velocity": 77}, {"time": 540, "pitch": 63, "duration": 26, "velocity": 82}, {"time": 540, "pitch": 67, "duration": 26, "velocity": 83}, {"time": 540, "pitch": 70, "duration": 26, "velocity": 81}, {"time": 570, "pitch": 53, "duration": 41, "velocity": 84}, {"time": 576, "pitch": 60, "duration": 36, "velocity": 80}, {"time": 582, "pitch": 65, "duration": 34, "velocity": 84}, {"time": 582, "pitch": 72, "duration": 7, "velocity": 79}, {"time": 588, "pitch": 68, "duration": 28, "velocity": 83}, {"time": 618, "pitch": 51, "duration": 2, "velocity": 92}, {"time": 618, "pitch": 63, "duration": 1, "velocity": 87}, {"time": 618, "pitch": 67, "duration": 1, "velocity": 86}, {"time": 618, "pitch": 70, "duration": 1, "velocity": 86}, {"time": 624, "pitch": 51, "duration": 3, "velocity": 90}, {"time": 624, "pitch": 63, "duration": 3, "velocity": 89}, {"time": 624, "pitch": 67, "duration": 3, "velocity": 89}, {"time": 624, "pitch": 70, "duration": 3, "velocity": 91}, {"time": 666, "pitch": 44, "duration": 41, "velocity": 94}, {"time": 672, "pitch": 51, "duration": 35, "velocity": 78}, {"time": 678, "pitch": 56, "duration": 29, "velocity": 79}, {"time": 684, "pitch": 60, "duration": 25, "velocity": 86}, {"time": 684, "pitch": 68, "duration": 26, "velocity": 87}, {"time": 714, "pitch": 43, "duration": 45, "velocity": 80}, {"time": 720, "pitch": 51, "duration": 38, "velocity": 71}, {"time": 726, "pitch": 55, "duration": 32, "velocity": 73}, {"time": 732, "pitch": 67, "duration": 27, "velocity": 84}, {"time": 744, "pitch": 63, "duration": 15, "velocity": 72}, {"time": 762, "pitch": 53, "duration": 39, "velocity": 87}, {"time": 768, "pitch": 60, "duration": 33, "velocity": 78}, {"time": 774, "pitch": 63, "duration": 7, "velocity": 87}, {"time": 774, "pitch": 68, "duration": 31, "velocity": 88}, {"time": 780, "pitch": 65, "duration": 25, "velocity": 86}, {"time": 810, "pitch": 51, "duration": 42, "velocity": 88}, {"time": 816, "pitch": 58, "duration": 35, "velocity": 77}, {"time": 822, "pitch": 63, "duration": 26, "velocity": 76}, {"time": 828, "pitch": 70, "duration": 20, "velocity": 84}, {"time": 852, "pitch": 63, "duration": 4, "velocity": 83}, {"time": 852, "pitch": 70, "duration": 5, "velocity": 85}, {"time": 858, "pitch": 49, "duration": 42, "velocity": 84}, {"time": 858, "pitch": 61, "duration": 44, "velocity": 81}, {"time": 858, "pitch": 68, "duration": 14, "velocity": 84}, {"time": 870, "pitch": 56, "duration": 31, "velocity": 70}, {"time": 876, "pitch": 65, "duration": 26, "velocity": 74}, {"time": 876, "pitch": 68, "duration": 25, "velocity": 80}, {"time": 906, "pitch": 48, "duration": 41, "velocity": 82}, {"time": 912, "pitch": 55, "duration": 36, "velocity": 75}, {"time": 918, "pitch": 58, "duration": 16, "velocity": 70}, {"time": 924, "pitch": 63, "duration": 14, "velocity": 86}, {"time": 924, "pitch": 70, "duration": 13, "velocity": 86}, {"time": 936, "pitch": 58, "duration": 15, "velocity": 76}, {"time": 942, "pitch": 63, "duration": 12, "velocity": 88}, {"time": 942, "pitch": 70, "duration": 12, "velocity": 89}, {"time": 951, "pitch": 49, "duration": 43, "velocity": 90}, {"time": 960, "pitch": 56, "duration": 37, "velocity": 72}, {"time": 966, "pitch": 61, "duration": 13, "velocity": 82}, {"time": 972, "pitch": 63, "duration": 12, "velocity": 89}, {"time": 972, "pitch": 68, "duration": 13, "velocity": 92}, {"time": 984, "pitch": 61, "duration": 12, "velocity": 80}, {"time": 990, "pitch": 65, "duration": 6, "velocity": 89}, {"time": 990, "pitch": 73, "duration": 8, "velocity": 88}, {"time": 1002, "pitch": 51, "duration": 42, "velocity": 87}, {"time": 1002, "pitch": 63, "duration": 7, "velocity": 88}, {"time": 1002, "pitch": 67, "duration": 7, "velocity": 93}, {"time": 1002, "pitch": 70, "duration": 7, "velocity": 91}, {"time": 1008, "pitch": 58, "duration": 8, "velocity": 81}, {"time": 1014, "pitch": 63, "duration": 6, "velocity": 90}, {"time": 1014, "pitch": 67, "duration": 6, "velocity": 95}, {"time": 1014, "pitch": 70, "duration": 6, "velocity": 91}, {"time": 1020, "pitch": 58, "duration": 10, "velocity": 70}, {"time": 1026, "pitch": 63, "duration": 7, "velocity": 93}, {"time": 1026, "pitch": 67, "duration": 7, "velocity": 103}, {"time": 1026, "pitch": 70, "duration": 7, "velocity": 102}, {"time": 1038, "pitch": 58, "duration": 5, "velocity": 80}, {"time": 1038, "pitch": 63, "duration": 8, "velocity": 102}, {"time": 1038, "pitch": 67, "duration": 8, "velocity": 116}, {"time": 1038, "pitch": 70, "duration": 8, "velocity": 108}, {"time": 1050, "pitch": 44, "duration": 42, "velocity": 89}, {"time": 1050, "pitch": 63, "duration": 9, "velocity": 88}, {"time": 1050, "pitch": 68, "duration": 5, "velocity": 102}, {"time": 1050, "pitch": 72, "duration": 5, "velocity": 98}, {"time": 1056, "pitch": 51, "duration": 37, "velocity": 73}, {"time": 1062, "pitch": 56, "duration": 14, "velocity": 84}, {"time": 1062, "pitch": 60, "duration": 9, "velocity": 90}, {"time": 1062, "pitch": 63, "duration": 8, "velocity": 94}, {"time": 1062, "pitch": 68, "duration": 8, "velocity": 91}, {"time": 1074, "pitch": 60, "duration": 7, "velocity": 91}, {"time": 1074, "pitch": 63, "duration": 7, "velocity": 96}, {"time": 1074, "pitch": 68, "duration": 7, "velocity": 91}, {"time": 1080, "pitch": 56, "duration": 6, "velocity": 82}, {"time": 1086, "pitch": 60, "duration": 4, "velocity": 98}, {"time": 1086, "pitch": 63, "duration": 5, "velocity": 113}, {"time": 1086, "pitch": 68, "duration": 6, "velocity": 96}, {"time": 1092, "pitch": 56, "duration": 5, "velocity": 83}, {"time": 1098, "pitch": 43, "duration": 44, "velocity": 87}, {"time": 1098, "pitch": 63, "duration": 8, "velocity": 89}, {"time": 1098, "pitch": 67, "duration": 8, "velocity": 103}, {"time": 1098, "pitch": 70, "duration": 7, "velocity": 93}, {"time": 1104, "pitch": 55, "duration": 20, "velocity": 77}, {"time": 1110, "pitch": 63, "duration": 9, "velocity": 91}, {"time": 1110, "pitch": 67, "duration": 9, "velocity": 103}, {"time": 1110, "pitch": 70, "duration": 9, "velocity": 96}, {"time": 1122, "pitch": 63, "duration": 7, "velocity": 91}, {"time": 1122, "pitch": 67, "duration": 7, "velocity": 103}, {"time": 1122, "pitch": 70, "duration": 7, "velocity": 90}, {"time": 1128, "pitch": 55, "duration": 6, "velocity": 81}, {"time": 1134, "pitch": 63, "duration": 6, "velocity": 102}, {"time": 1134, "pitch": 67, "duration": 5, "velocity": 113}, {"time": 1134, "pitch": 70, "duration": 5, "velocity": 98}, {"time": 1140, "pitch": 55, "duration": 4, "velocity": 83}, {"time": 1146, "pitch": 53, "duration": 46, "velocity": 88}, {"time": 1146, "pitch": 60, "duration": 9, "velocity": 93}, {"time": 1146, "pitch": 63, "duration": 9, "velocity": 98}, {"time": 1146, "pitch": 65, "duration": 8, "velocity": 102}, {"time": 1146, "pitch": 68, "duration": 8, "velocity": 91}, {"time": 1158, "pitch": 60, "duration": 9, "velocity": 84}, {"time": 1158, "pitch": 63, "duration": 8, "velocity": 87}, {"time": 1158, "pitch": 65, "duration": 8, "velocity": 86}, {"time": 1158, "pitch": 68, "duration": 8, "velocity": 87}, {"time": 1170, "pitch": 60, "duration": 8, "velocity": 87}, {"time": 1170, "pitch": 63, "duration": 8, "velocity": 88}, {"time": 1170, "pitch": 65, "duration": 8, "velocity": 86}, {"time": 1170, "pitch": 68, "duration": 8, "velocity": 87}, {"time": 1182, "pitch": 60, "duration": 6, "velocity": 88}, {"time": 1182, "pitch": 63, "duration": 7, "velocity": 88}, {"time": 1182, "pitch": 65, "duration": 7, "velocity": 88}, {"time": 1182, "pitch": 68, "duration": 8, "velocity": 88}, {"time": 1194, "pitch": 51, "duration": 44, "velocity": 88}, {"time": 1194, "pitch": 63, "duration": 7, "velocity": 87}, {"time": 1194, "pitch": 67, "duration": 7, "velocity": 87}, {"time": 1194, "pitch": 70, "duration": 6, "velocity": 90}, {"time": 1200, "pitch": 58, "duration": 9, "velocity": 71}, {"time": 1206, "pitch": 63, "duration": 8, "velocity": 87}, {"time": 1206, "pitch": 67, "duration": 7, "velocity": 86}, {"time": 1206, "pitch": 70, "duration": 7, "velocity": 89}, {"time": 1212, "pitch": 58, "duration": 8, "velocity": 78}, {"time": 1218, "pitch": 63, "duration": 7, "velocity": 88}, {"time": 1218, "pitch": 67, "duration": 7, "velocity": 100}, {"time": 1218, "pitch": 70, "duration": 6, "velocity": 89}, {"time": 1224, "pitch": 58, "duration": 7, "velocity": 80}, {"time": 1230, "pitch": 63, "duration": 7, "velocity": 98}, {"time": 1230, "pitch": 67, "duration": 10, "velocity": 113}, {"time": 1230, "pitch": 70, "duration": 7, "velocity": 100}, {"time": 1236, "pitch": 58, "duration": 2, "velocity": 86}, {"time": 1242, "pitch": 49, "duration": 43, "velocity": 90}, {"time": 1242, "pitch": 61, "duration": 8, "velocity": 88}, {"time": 1242, "pitch": 65, "duration": 8, "velocity": 96}, {"time": 1242, "pitch": 68, "duration": 8, "velocity": 91}, {"time": 1248, "pitch": 56, "duration": 7, "velocity": 73}, {"time": 1254, "pitch": 61, "duration": 8, "velocity": 87}, {"time": 1254, "pitch": 65, "duration": 8, "velocity": 91}, {"time": 1254, "pitch": 68, "duration": 7, "velocity": 88}, {"time": 1260, "pitch": 56, "duration": 8, "velocity": 80}, {"time": 1266, "pitch": 61, "duration": 7, "velocity": 89}, {"time": 1266, "pitch": 65, "duration": 7, "velocity": 93}, {"time": 1266, "pitch": 68, "duration": 6, "velocity": 90}, {"time": 1272, "pitch": 56, "duration": 7, "velocity": 82}, {"time": 1278, "pitch": 61, "duration": 7, "velocity": 96}, {"time": 1278, "pitch": 65, "duration": 10, "velocity": 110}, {"time": 1278, "pitch": 68, "duration": 8, "velocity": 98}, {"time": 1284, "pitch": 56, "duration": 2, "velocity": 81}, {"time": 1290, "pitch": 48, "duration": 43, "velocity": 88}, {"time": 1290, "pitch": 63, "duration": 8, "velocity": 88}, {"time": 1290, "pitch": 67, "duration": 8, "velocity": 88}, {"time": 1290, "pitch": 70, "duration": 7, "velocity": 91}, {"time": 1296, "pitch": 55, "duration": 38, "velocity": 78}, {"time": 1302, "pitch": 63, "duration": 8, "velocity": 89}, {"time": 1302, "pitch": 67, "duration": 8, "velocity": 97}, {"time": 1302, "pitch": 70, "duration": 7, "velocity": 90}, {"time": 1308, "pitch": 60, "duration": 7, "velocity": 80}, {"time": 1314, "pitch": 63, "duration": 7, "velocity": 89}, {"time": 1314, "pitch": 67, "duration": 7, "velocity": 91}, {"time": 1314, "pitch": 70, "duration": 6, "velocity": 89}, {"time": 1320, "pitch": 60, "duration": 6, "velocity": 83}, {"time": 1326, "pitch": 63, "duration": 7, "velocity": 91}, {"time": 1326, "pitch": 67, "duration": 6, "velocity": 106}, {"time": 1326, "pitch": 70, "duration": 6, "velocity": 91}, {"time": 1332, "pitch": 60, "duration": 4, "velocity": 79}, {"time": 1338, "pitch": 53, "duration": 41, "velocity": 84}, {"time": 1338, "pitch": 65, "duration": 10, "velocity": 87}, {"time": 1338, "pitch": 68, "duration": 10, "velocity": 93}, {"time": 1338, "pitch": 72, "duration": 8, "velocity": 90}, {"time": 1350, "pitch": 65, "duration": 9, "velocity": 87}, {"time": 1350, "pitch": 68, "duration": 9, "velocity": 91}, {"time": 1350, "pitch": 72, "duration": 7, "velocity": 89}, {"time": 1362, "pitch": 65, "duration": 8, "velocity": 91}, {"time": 1362, "pitch": 68, "duration": 8, "velocity": 100}, {"time": 1362, "pitch": 72, "duration": 7, "velocity": 92}, {"time": 1374, "pitch": 65, "duration": 6, "velocity": 92}, {"time": 1374, "pitch": 68, "duration": 9, "velocity": 102}, {"time": 1374, "pitch": 72, "duration": 7, "velocity": 92}, {"time": 1386, "pitch": 51, "duration": 43, "velocity": 90}, {"time": 1386, "pitch": 63, "duration": 12, "velocity": 92}, {"time": 1386, "pitch": 67, "duration": 12, "velocity": 100}, {"time": 1386, "pitch": 70, "duration": 12, "velocity": 98}, {"time": 1398, "pitch": 58, "duration": 9, "velocity": 88}, {"time": 1404, "pitch": 63, "duration": 13, "velocity": 102}, {"time": 1404, "pitch": 67, "duration": 13, "velocity": 113}, {"time": 1404, "pitch": 70, "duration": 13, "velocity": 110}, {"time": 1416, "pitch": 58, "duration": 7, "velocity": 107}, {"time": 1422, "pitch": 63, "duration": 9, "velocity": 100}, {"time": 1422, "pitch": 67, "duration": 8, "velocity": 113}, {"time": 1422, "pitch": 70, "duration": 8, "velocity": 113}, {"time": 1428, "pitch": 58, "duration": 1, "velocity": 85}, {"time": 1434, "pitch": 44, "duration": 41, "velocity": 87}, {"time": 1434, "pitch": 63, "duration": 13, "velocity": 96}, {"time": 1434, "pitch": 68, "duration": 10, "velocity": 108}, {"time": 1434, "pitch": 72, "duration": 8, "velocity": 102}, {"time": 1440, "pitch": 51, "duration": 36, "velocity": 79}, {"time": 1443, "pitch": 65, "duration": 1, "velocity": 70}, {"time": 1446, "pitch": 56, "duration": 11, "velocity": 87}, {"time": 1452, "pitch": 60, "duration": 13, "velocity": 93}, {"time": 1452, "pitch": 63, "duration": 14, "velocity": 110}, {"time": 1452, "pitch": 68, "duration": 13, "velocity": 100}, {"time": 1464, "pitch": 56, "duration": 6, "velocity": 88}, {"time": 1470, "pitch": 60, "duration": 4, "velocity": 100}, {"time": 1470, "pitch": 63, "duration": 5, "velocity": 110}, {"time": 1470, "pitch": 68, "duration": 5, "velocity": 98}, {"time": 1476, "pitch": 56, "duration": 5, "velocity": 86}, {"time": 1482, "pitch": 43, "duration": 42, "velocity": 88}, {"time": 1482, "pitch": 63, "duration": 15, "velocity": 93}, {"time": 1482, "pitch": 67, "duration": 15, "velocity": 106}, {"time": 1482, "pitch": 70, "duration": 14, "velocity": 100}, {"time": 1488, "pitch": 55, "duration": 38, "velocity": 79}, {"time": 1494, "pitch": 60, "duration": 9, "velocity": 84}, {"time": 1500, "pitch": 63, "duration": 13, "velocity": 91}, {"time": 1500, "pitch": 67, "duration": 13, "velocity": 109}, {"time": 1500, "pitch": 70, "duration": 13, "velocity": 89}, {"time": 1512, "pitch": 60, "duration": 6, "velocity": 92}, {"time": 1518, "pitch": 63, "duration": 7, "velocity": 100}, {"time": 1518, "pitch": 67, "duration": 6, "velocity": 119}, {"time": 1518, "pitch": 70, "duration": 7, "velocity": 102}, {"time": 1524, "pitch": 60, "duration": 6, "velocity": 91}, {"time": 1530, "pitch": 53, "duration": 44, "velocity": 88}, {"time": 1530, "pitch": 65, "duration": 16, "velocity": 96}, {"time": 1530, "pitch": 68, "duration": 14, "velocity": 102}, {"time": 1530, "pitch": 70, "duration": 2, "velocity": 91}, {"time": 1530, "pitch": 72, "duration": 14, "velocity": 91}, {"time": 1542, "pitch": 60, "duration": 13, "velocity": 83}, {"time": 1548, "pitch": 65, "duration": 13, "velocity": 93}, {"time": 1548, "pitch": 68, "duration": 12, "velocity": 110}, {"time": 1548, "pitch": 72, "duration": 13, "velocity": 108}, {"time": 1560, "pitch": 60, "duration": 8, "velocity": 88}, {"time": 1566, "pitch": 65, "duration": 10, "velocity": 108}, {"time": 1566, "pitch": 68, "duration": 8, "velocity": 108}, {"time": 1566, "pitch": 72, "duration": 7, "velocity": 107}, {"time": 1572, "pitch": 60, "duration": 3, "velocity": 81}, {"time": 1578, "pitch": 51, "duration": 38, "velocity": 92}, {"time": 1578, "pitch": 63, "duration": 15, "velocity": 93}, {"time": 1578, "pitch": 67, "duration": 15, "velocity": 106}, {"time": 1578, "pitch": 70, "duration": 14, "velocity": 104}, {"time": 1584, "pitch": 58, "duration": 20, "velocity": 81}, {"time": 1596, "pitch": 63, "duration": 13, "velocity": 107}, {"time": 1596, "pitch": 67, "duration": 13, "velocity": 116}, {"time": 1596, "pitch": 68, "duration": 2, "velocity": 88}, {"time": 1596, "pitch": 70, "duration": 13, "velocity": 93}, {"time": 1608, "pitch": 58, "duration": 8, "velocity": 91}, {"time": 1614, "pitch": 63, "duration": 8, "velocity": 100}, {"time": 1614, "pitch": 67, "duration": 9, "velocity": 113}, {"time": 1614, "pitch": 70, "duration": 8, "velocity": 104}, {"time": 1620, "pitch": 51, "duration": 3, "velocity": 88}, {"time": 1626, "pitch": 49, "duration": 39, "velocity": 98}, {"time": 1626, "pitch": 61, "duration": 8, "velocity": 93}, {"time": 1626, "pitch": 65, "duration": 8, "velocity": 104}, {"time": 1626, "pitch": 68, "duration": 7, "velocity": 100}, {"time": 1632, "pitch": 56, "duration": 10, "velocity": 70}, {"time": 1638, "pitch": 61, "duration": 9, "velocity": 92}, {"time": 1638, "pitch": 65, "duration": 9, "velocity": 98}, {"time": 1638, "pitch": 68, "duration": 9, "velocity": 102}, {"time": 1644, "pitch": 56, "duration": 8, "velocity": 81}, {"time": 1650, "pitch": 61, "duration": 9, "velocity": 92}, {"time": 1650, "pitch": 65, "duration": 9, "velocity": 107}, {"time": 1650, "pitch": 68, "duration": 9, "velocity": 92}, {"time": 1659, "pitch": 56, "duration": 5, "velocity": 92}, {"time": 1662, "pitch": 61, "duration": 7, "velocity": 107}, {"time": 1662, "pitch": 65, "duration": 9, "velocity": 114}, {"time": 1662, "pitch": 68, "duration": 7, "velocity": 113}, {"time": 1668, "pitch": 49, "duration": 3, "velocity": 91}, {"time": 1674, "pitch": 48, "duration": 42, "velocity": 94}, {"time": 1674, "pitch": 63, "duration": 14, "velocity": 91}, {"time": 1674, "pitch": 67, "duration": 14, "velocity": 95}, {"time": 1674, "pitch": 70, "duration": 13, "velocity": 96}, {"time": 1680, "pitch": 55, "duration": 38, "velocity": 79}, {"time": 1686, "pitch": 60, "duration": 10, "velocity": 83}, {"time": 1692, "pitch": 63, "duration": 15, "velocity": 96}, {"time": 1692, "pitch": 67, "duration": 14, "velocity": 116}, {"time": 1692, "pitch": 70, "duration": 14, "velocity": 107}, {"time": 1704, "pitch": 60, "duration": 5, "velocity": 84}, {"time": 1710, "pitch": 63, "duration": 6, "velocity": 98}, {"time": 1710, "pitch": 67, "duration": 6, "velocity": 109}, {"time": 1710, "pitch": 70, "duration": 6, "velocity": 102}, {"time": 1716, "pitch": 60, "duration": 3, "velocity": 81}, {"time": 1722, "pitch": 53, "duration": 40, "velocity": 89}, {"time": 1728, "pitch": 60, "duration": 10, "velocity": 87}, {"time": 1734, "pitch": 65, "duration": 10, "velocity": 102}, {"time": 1734, "pitch": 68, "duration": 9, "velocity": 114}, {"time": 1734, "pitch": 72, "duration": 9, "velocity": 107}, {"time": 1740, "pitch": 60, "duration": 8, "velocity": 87}, {"time": 1746, "pitch": 65, "duration": 8, "velocity": 96}, {"time": 1746, "pitch": 68, "duration": 8, "velocity": 108}, {"time": 1746, "pitch": 72, "duration": 7, "velocity": 100}, {"time": 1752, "pitch": 60, "duration": 7, "velocity": 87}, {"time": 1758, "pitch": 65, "duration": 7, "velocity": 102}, {"time": 1758, "pitch": 68, "duration": 10, "velocity": 113}, {"time": 1758, "pitch": 72, "duration": 8, "velocity": 107}, {"time": 1764, "pitch": 53, "duration": 2, "velocity": 88}, {"time": 1770, "pitch": 51, "duration": 38, "velocity": 96}, {"time": 1770, "pitch": 63, "duration": 14, "velocity": 92}, {"time": 1770, "pitch": 67, "duration": 11, "velocity": 103}, {"time": 1770, "pitch": 70, "duration": 13, "velocity": 98}, {"time": 1776, "pitch": 58, "duration": 18, "velocity": 84}, {"time": 1788, "pitch": 63, "duration": 14, "velocity": 93}, {"time": 1788, "pitch": 67, "duration": 13, "velocity": 113}, {"time": 1788, "pitch": 70, "duration": 13, "velocity": 104}, {"time": 1800, "pitch": 58, "duration": 8, "velocity": 89}, {"time": 1806, "pitch": 63, "duration": 10, "velocity": 92}, {"time": 1806, "pitch": 67, "duration": 7, "velocity": 109}, {"time": 1806, "pitch": 70, "duration": 7, "velocity": 96}, {"time": 1812, "pitch": 51, "duration": 2, "velocity": 88}, {"time": 1818, "pitch": 44, "duration": 25, "velocity": 92}, {"time": 1818, "pitch": 60, "duration": 12, "velocity": 92}, {"time": 1818, "pitch": 63, "duration": 12, "velocity": 104}, {"time": 1818, "pitch": 68, "duration": 12, "velocity": 91}, {"time": 1824, "pitch": 51, "duration": 20, "velocity": 76}, {"time": 1830, "pitch": 56, "duration": 13, "velocity": 84}, {"time": 1836, "pitch": 60, "duration": 8, "velocity": 87}, {"time": 1836, "pitch": 63, "duration": 8, "velocity": 88}, {"time": 1914, "pitch": 44, "duration": 41, "velocity": 82}, {"time": 1920, "pitch": 51, "duration": 35, "velocity": 76}, {"time": 1926, "pitch": 56, "duration": 30, "velocity": 76}, {"time": 1932, "pitch": 60, "duration": 26, "velocity": 82}, {"time": 1932, "pitch": 68, "duration": 26, "velocity": 82}, {"time": 1962, "pitch": 43, "duration": 43, "velocity": 78}, {"time": 1968, "pitch": 51, "duration": 36, "velocity": 65}, {"time": 1974, "pitch": 55, "duration": 30, "velocity": 67}, {"time": 1980, "pitch": 63, "duration": 16, "velocity": 78}, {"time": 1998, "pitch": 58, "duration": 11, "velocity": 72}, {"time": 2010, "pitch": 53, "duration": 39, "velocity": 88}, {"time": 2016, "pitch": 60, "duration": 32, "velocity": 76}, {"time": 2022, "pitch": 65, "duration": 36, "velocity": 87}, {"time": 2028, "pitch": 72, "duration": 14, "velocity": 88}, {"time": 2046, "pitch": 68, "duration": 12, "velocity": 83}, {"time": 2058, "pitch": 51, "duration": 42, "velocity": 89}, {"time": 2064, "pitch": 58, "duration": 35, "velocity": 79}, {"time": 2070, "pitch": 63, "duration": 28, "velocity": 84}, {"time": 2076, "pitch": 67, "duration": 27, "velocity": 88}, {"time": 2076, "pitch": 70, "duration": 26, "velocity": 87}, {"time": 2106, "pitch": 49, "duration": 42, "velocity": 88}, {"time": 2112, "pitch": 56, "duration": 35, "velocity": 79}, {"time": 2118, "pitch": 61, "duration": 28, "velocity": 85}, {"time": 2124, "pitch": 65, "duration": 30, "velocity": 89}, {"time": 2124, "pitch": 68, "duration": 30, "velocity": 91}, {"time": 2154, "pitch": 48, "duration": 42, "velocity": 87}, {"time": 2160, "pitch": 55, "duration": 36, "velocity": 74}, {"time": 2166, "pitch": 60, "duration": 30, "velocity": 77}, {"time": 2172, "pitch": 63, "duration": 26, "velocity": 82}, {"time": 2172, "pitch": 67, "duration": 26, "velocity": 83}, {"time": 2172, "pitch": 70, "duration": 26, "velocity": 81}, {"time": 2202, "pitch": 53, "duration": 41, "velocity": 84}, {"time": 2208, "pitch": 60, "duration": 36, "velocity": 80}, {"time": 2214, "pitch": 65, "duration": 34, "velocity": 84}, {"time": 2214, "pitch": 72, "duration": 7, "velocity": 79}, {"time": 2220, "pitch": 68, "duration": 28, "velocity": 83}, {"time": 2250, "pitch": 51, "duration": 2, "velocity": 92}, {"time": 2250, "pitch": 63, "duration": 1, "velocity": 87}, {"time": 2250, "pitch": 67, "duration": 1, "velocity": 86}, {"time": 2250, "pitch": 70, "duration": 1, "velocity": 86}, {"time": 2256, "pitch": 51, "duration": 3, "velocity": 90}, {"time": 2256, "pitch": 63, "duration": 3, "velocity": 89}, {"time": 2256, "pitch": 67, "duration": 3, "velocity": 89}, {"time": 2256, "pitch": 70, "duration": 3, "velocity": 91}, {"time": 2298, "pitch": 44, "duration": 41, "velocity": 94}, {"time": 2304, "pitch": 51, "duration": 35, "velocity": 78}, {"time": 2310, "pitch": 56, "duration": 29, "velocity": 79}, {"time": 2316, "pitch": 60, "duration": 25, "velocity": 86}, {"time": 2316, "pitch": 68, "duration": 26, "velocity": 87}, {"time": 2346, "pitch": 43, "duration": 42, "velocity": 77}, {"time": 2352, "pitch": 51, "duration": 35, "velocity": 64}, {"time": 2358, "pitch": 55, "duration": 29, "velocity": 73}, {"time": 2364, "pitch": 63, "duration": 18, "velocity": 86}, {"time": 2382, "pitch": 58, "duration": 9, "velocity": 71}, {"time": 2394, "pitch": 53, "duration": 39, "velocity": 87}, {"time": 2400, "pitch": 60, "duration": 33, "velocity": 78}, {"time": 2406, "pitch": 63, "duration": 7, "velocity": 87}, {"time": 2406, "pitch": 68, "duration": 31, "velocity": 88}, {"time": 2412, "pitch": 65, "duration": 25, "velocity": 86}, {"time": 2442, "pitch": 51, "duration": 42, "velocity": 88}, {"time": 2448, "pitch": 58, "duration": 35, "velocity": 77}, {"time": 2454, "pitch": 63, "duration": 26, "velocity": 76}, {"time": 2460, "pitch": 70, "duration": 20, "velocity": 84}, {"time": 2484, "pitch": 63, "duration": 4, "velocity": 83}, {"time": 2484, "pitch": 70, "duration": 5, "velocity": 85}, {"time": 2490, "pitch": 49, "duration": 42, "velocity": 84}, {"time": 2490, "pitch": 61, "duration": 44, "velocity": 81}, {"time": 2490, "pitch": 68, "duration": 14, "velocity": 84}, {"time": 2502, "pitch": 56, "duration": 31, "velocity": 70}, {"time": 2508, "pitch": 65, "duration": 26, "velocity": 74}, {"time": 2508, "pitch": 68, "duration": 25, "velocity": 80}, {"time": 2538, "pitch": 48, "duration": 41, "velocity": 82}, {"time": 2544, "pitch": 55, "duration": 36, "velocity": 75}, {"time": 2550, "pitch": 58, "duration": 16, "velocity": 70}, {"time": 2556, "pitch": 63, "duration": 14, "velocity": 86}, {"time": 2556, "pitch": 70, "duration": 13, "velocity": 86}, {"time": 2568, "pitch": 58, "duration": 15, "velocity": 76}, {"time": 2574, "pitch": 63, "duration": 12, "velocity": 88}, {"time": 2574, "pitch": 70, "duration": 12, "velocity": 89}, {"time": 2583, "pitch": 49, "duration": 43, "velocity": 90}, {"time": 2592, "pitch": 56, "duration": 37, "velocity": 72}, {"time": 2598, "pitch": 61, "duration": 13, "velocity": 82}, {"time": 2604, "pitch": 63, "duration": 12, "velocity": 89}, {"time": 2604, "pitch": 68, "duration": 13, "velocity": 92}, {"time": 2616, "pitch": 61, "duration": 12, "velocity": 80}, {"time": 2622, "pitch": 65, "duration": 6, "velocity": 89}, {"time": 2622, "pitch": 73, "duration": 8, "velocity": 88}, {"time": 2634, "pitch": 51, "duration": 42, "velocity": 87}, {"time": 2634, "pitch": 63, "duration": 7, "velocity": 88}, {"time": 2634, "pitch": 67, "duration": 7, "velocity": 93}, {"time": 2634, "pitch": 70, "duration": 7, "velocity": 91}, {"time": 2640, "pitch": 58, "duration": 8, "velocity": 81}, {"time": 2646, "pitch": 63, "duration": 6, "velocity": 90}, {"time": 2646, "pitch": 67, "duration": 6, "velocity": 95}, {"time": 2646, "pitch": 70, "duration": 6, "velocity": 91}, {"time": 2652, "pitch": 58, "duration": 10, "velocity": 70}, {"time": 2658, "pitch": 63, "duration": 7, "velocity": 93}, {"time": 2658, "pitch": 67, "duration": 7, "velocity": 103}, {"time": 2658, "pitch": 70, "duration": 7, "velocity": 102}, {"time": 2670, "pitch": 58, "duration": 5, "velocity": 80}, {"time": 2670, "pitch": 63, "duration": 8, "velocity": 102}, {"time": 2670, "pitch": 67, "duration": 8, "velocity": 116}, {"time": 2670, "pitch": 70, "duration": 8, "velocity": 108}, {"time": 2682, "pitch": 44, "duration": 42, "velocity": 89}, {"time": 2682, "pitch": 63, "duration": 9, "velocity": 88}, {"time": 2682, "pitch": 68, "duration": 5, "velocity": 102}, {"time": 2682, "pitch": 72, "duration": 5, "velocity": 98}, {"time": 2688, "pitch": 51, "duration": 37, "velocity": 73}, {"time": 2694, "pitch": 56, "duration": 14, "velocity": 84}, {"time": 2694, "pitch": 60, "duration": 9, "velocity": 90}, {"time": 2694, "pitch": 63, "duration": 8, "velocity": 94}, {"time": 2694, "pitch": 68, "duration": 8, "velocity": 91}, {"time": 2706, "pitch": 60, "duration": 7, "velocity": 91}, {"time": 2706, "pitch": 63, "duration": 7, "velocity": 96}, {"time": 2706, "pitch": 68, "duration": 7, "velocity": 91}, {"time": 2712, "pitch": 56, "duration": 6, "velocity": 82}, {"time": 2718, "pitch": 60, "duration": 4, "velocity": 98}, {"time": 2718, "pitch": 63, "duration": 5, "velocity": 113}, {"time": 2718, "pitch": 68, "duration": 6, "velocity": 96}, {"time": 2724, "pitch": 56, "duration": 5, "velocity": 83}, {"time": 2730, "pitch": 43, "duration": 44, "velocity": 87}, {"time": 2730, "pitch": 63, "duration": 8, "velocity": 89}, {"time": 2730, "pitch": 67, "duration": 8, "velocity": 103}, {"time": 2730, "pitch": 70, "duration": 7, "velocity": 93}, {"time": 2736, "pitch": 55, "duration": 20, "velocity": 77}, {"time": 2742, "pitch": 63, "duration": 9, "velocity": 91}, {"time": 2742, "pitch": 67, "duration": 9, "velocity": 103}, {"time": 2742, "pitch": 70, "duration": 9, "velocity": 96}, {"time": 2754, "pitch": 63, "duration": 7, "velocity": 91}, {"time": 2754, "pitch": 67, "duration": 7, "velocity": 103}, {"time": 2754, "pitch": 70, "duration": 7, "velocity": 90}, {"time": 2760, "pitch": 55, "duration": 6, "velocity": 81}, {"time": 2766, "pitch": 63, "duration": 6, "velocity": 102}, {"time": 2766, "pitch": 67, "duration": 5, "velocity": 113}, {"time": 2766, "pitch": 70, "duration": 5, "velocity": 98}, {"time": 2772, "pitch": 55, "duration": 4, "velocity": 83}, {"time": 2778, "pitch": 53, "duration": 46, "velocity": 88}, {"time": 2778, "pitch": 60, "duration": 9, "velocity": 93}, {"time": 2778, "pitch": 63, "duration": 9, "velocity": 98}, {"time": 2778, "pitch": 65, "duration": 8, "velocity": 102}, {"time": 2778, "pitch": 68, "duration": 8, "velocity": 91}, {"time": 2790, "pitch": 60, "duration": 9, "velocity": 84}, {"time": 2790, "pitch": 63, "duration": 8, "velocity": 87}, {"time": 2790, "pitch": 65, "duration": 8, "velocity": 86}, {"time": 2790, "pitch": 68, "duration": 8, "velocity": 87}, {"time": 2802, "pitch": 60, "duration": 8, "velocity": 87}, {"time": 2802, "pitch": 63, "duration": 8, "velocity": 88}, {"time": 2802, "pitch": 65, "duration": 8, "velocity": 86}, {"time": 2802, "pitch": 68, "duration": 8, "velocity": 87}, {"time": 2814, "pitch": 60, "duration": 6, "velocity": 88}, {"time": 2814, "pitch": 63, "duration": 7, "velocity": 88}, {"time": 2814, "pitch": 65, "duration": 7, "velocity": 88}, {"time": 2814, "pitch": 68, "duration": 8, "velocity": 88}, {"time": 2826, "pitch": 51, "duration": 44, "velocity": 88}, {"time": 2826, "pitch": 63, "duration": 7, "velocity": 87}, {"time": 2826, "pitch": 67, "duration": 7, "velocity": 87}, {"time": 2826, "pitch": 70, "duration": 6, "velocity": 90}, {"time": 2832, "pitch": 58, "duration": 9, "velocity": 71}, {"time": 2838, "pitch": 63, "duration": 8, "velocity": 87}, {"time": 2838, "pitch": 67, "duration": 7, "velocity": 86}, {"time": 2838, "pitch": 70, "duration": 7, "velocity": 89}, {"time": 2844, "pitch": 58, "duration": 8, "velocity": 78}, {"time": 2850, "pitch": 63, "duration": 7, "velocity": 88}, {"time": 2850, "pitch": 67, "duration": 7, "velocity": 100}, {"time": 2850, "pitch": 70, "duration": 6, "velocity": 89}, {"time": 2856, "pitch": 58, "duration": 7, "velocity": 80}, {"time": 2862, "pitch": 63, "duration": 7, "velocity": 98}, {"time": 2862, "pitch": 67, "duration": 10, "velocity": 113}, {"time": 2862, "pitch": 70, "duration": 7, "velocity": 100}, {"time": 2868, "pitch": 58, "duration": 2, "velocity": 86}, {"time": 2874, "pitch": 49, "duration": 43, "velocity": 90}, {"time": 2874, "pitch": 61, "duration": 8, "velocity": 88}, {"time": 2874, "pitch": 65, "duration": 8, "velocity": 96}, {"time": 2874, "pitch": 68, "duration": 8, "velocity": 91}, {"time": 2880, "pitch": 56, "duration": 7, "velocity": 73}, {"time": 2886, "pitch": 61, "duration": 8, "velocity": 87}, {"time": 2886, "pitch": 65, "duration": 8, "velocity": 91}, {"time": 2886, "pitch": 68, "duration": 7, "velocity": 88}, {"time": 2892, "pitch": 56, "duration": 8, "velocity": 80}, {"time": 2898, "pitch": 61, "duration": 7, "velocity": 89}, {"time": 2898, "pitch": 65, "duration": 7, "velocity": 93}, {"time": 2898, "pitch": 68, "duration": 6, "velocity": 90}, {"time": 2904, "pitch": 56, "duration": 7, "velocity": 82}, {"time": 2910, "pitch": 61, "duration": 7, "velocity": 96}, {"time": 2910, "pitch": 65, "duration": 10, "velocity": 110}, {"time": 2910, "pitch": 68, "duration": 8, "velocity": 98}, {"time": 2916, "pitch": 56, "duration": 2, "velocity": 81}, {"time": 2922, "pitch": 48, "duration": 43, "velocity": 88}, {"time": 2922, "pitch": 63, "duration": 8, "velocity": 88}, {"time": 2922, "pitch": 67, "duration": 8, "velocity": 88}, {"time": 2922, "pitch": 70, "duration": 7, "velocity": 91}, {"time": 2928, "pitch": 55, "duration": 38, "velocity": 78}, {"time": 2934, "pitch": 63, "duration": 8, "velocity": 89}, {"time": 2934, "pitch": 67, "duration": 8, "velocity": 97}, {"time": 2934, "pitch": 70, "duration": 7, "velocity": 90}, {"time": 2940, "pitch": 60, "duration": 7, "velocity": 80}, {"time": 2946, "pitch": 63, "duration": 7, "velocity": 89}, {"time": 2946, "pitch": 67, "duration": 7, "velocity": 91}, {"time": 2946, "pitch": 70, "duration": 6, "velocity": 89}, {"time": 2952, "pitch": 60, "duration": 6, "velocity": 83}, {"time": 2958, "pitch": 63, "duration": 7, "velocity": 91}, {"time": 2958, "pitch": 67, "duration": 6, "velocity": 106}, {"time": 2958, "pitch": 70, "duration": 6, "velocity": 91}, {"time": 2964, "pitch": 60, "duration": 4, "velocity": 79}, {"time": 2970, "pitch": 53, "duration": 41, "velocity": 84}, {"time": 2970, "pitch": 65, "duration": 10, "velocity": 87}, {"time": 2970, "pitch": 68, "duration": 10, "velocity": 93}, {"time": 2970, "pitch": 72, "duration": 8, "velocity": 90}, {"time": 2982, "pitch": 65, "duration": 9, "velocity": 87}, {"time": 2982, "pitch": 68, "duration": 9, "velocity": 91}, {"time": 2982, "pitch": 72, "duration": 7, "velocity": 89}, {"time": 2994, "pitch": 65, "duration": 8, "velocity": 91}, {"time": 2994, "pitch": 68, "duration": 8, "velocity": 100}, {"time": 2994, "pitch": 72, "duration": 7, "velocity": 92}, {"time": 3006, "pitch": 65, "duration": 6, "velocity": 92}, {"time": 3006, "pitch": 68, "duration": 9, "velocity": 102}, {"time": 3006, "pitch": 72, "duration": 7, "velocity": 92}, {"time": 3018, "pitch": 51, "duration": 43, "velocity": 90}, {"time": 3018, "pitch": 63, "duration": 12, "velocity": 92}, {"time": 3018, "pitch": 67, "duration": 12, "velocity": 100}, {"time": 3018, "pitch": 70, "duration": 12, "velocity": 98}, {"time": 3030, "pitch": 58, "duration": 9, "velocity": 88}, {"time": 3036, "pitch": 63, "duration": 13, "velocity": 102}, {"time": 3036, "pitch": 67, "duration": 13, "velocity": 113}, {"time": 3036, "pitch": 70, "duration": 13, "velocity": 110}, {"time": 3048, "pitch": 58, "duration": 7, "velocity": 107}, {"time": 3054, "pitch": 63, "duration": 9, "velocity": 100}, {"time": 3054, "pitch": 67, "duration": 8, "velocity": 113}, {"time": 3054, "pitch": 70, "duration": 8, "velocity": 113}, {"time": 3060, "pitch": 58, "duration": 1, "velocity": 85}, {"time": 3066, "pitch": 44, "duration": 41, "velocity": 87}, {"time": 3066, "pitch": 63, "duration": 13, "velocity": 96}, {"time": 3066, "pitch": 68, "duration": 10, "velocity": 108}, {"time": 3066, "pitch": 72, "duration": 8, "velocity": 102}, {"time": 3072, "pitch": 51, "duration": 36, "velocity": 79}, {"time": 3075, "pitch": 65, "duration": 1, "velocity": 70}, {"time": 3078, "pitch": 56, "duration": 11, "velocity": 87}, {"time": 3084, "pitch": 60, "duration": 13, "velocity": 93}, {"time": 3084, "pitch": 63, "duration": 14, "velocity": 110}, {"time": 3084, "pitch": 68, "duration": 13, "velocity": 100}, {"time": 3096, "pitch": 56, "duration": 6, "velocity": 88}, {"time": 3102, "pitch": 60, "duration": 4, "velocity": 100}, {"time": 3102, "pitch": 63, "duration": 5, "velocity": 110}, {"time": 3102, "pitch": 68, "duration": 5, "velocity": 98}, {"time": 3108, "pitch": 56, "duration": 5, "velocity": 86}, {"time": 3114, "pitch": 43, "duration": 42, "velocity": 88}, {"time": 3114, "pitch": 63, "duration": 15, "velocity": 93}, {"time": 3114, "pitch": 67, "duration": 15, "velocity": 106}, {"time": 3114, "pitch": 70, "duration": 14, "velocity": 100}, {"time": 3120, "pitch": 55, "duration": 38, "velocity": 79}, {"time": 3126, "pitch": 60, "duration": 9, "velocity": 84}, {"time": 3132, "pitch": 63, "duration": 13, "velocity": 91}, {"time": 3132, "pitch": 67, "duration": 13, "velocity": 109}, {"time": 3132, "pitch": 70, "duration": 13, "velocity": 89}, {"time": 3144, "pitch": 60, "duration": 6, "velocity": 92}, {"time": 3150, "pitch": 63, "duration": 7, "velocity": 100}, {"time": 3150, "pitch": 67, "duration": 6, "velocity": 119}, {"time": 3150, "pitch": 70, "duration": 7, "velocity": 102}, {"time": 3156, "pitch": 60, "duration": 6, "velocity": 91}, {"time": 3162, "pitch": 53, "duration": 44, "velocity": 88}, {"time": 3162, "pitch": 65, "duration": 16, "velocity": 96}, {"time": 3162, "pitch": 68, "duration": 14, "velocity": 102}, {"time": 3162, "pitch": 70, "duration": 2, "velocity": 91}, {"time": 3162, "pitch": 72, "duration": 14, "velocity": 91}, {"time": 3174, "pitch": 60, "duration": 13, "velocity": 83}, {"time": 3180, "pitch": 65, "duration": 13, "velocity": 93}, {"time": 3180, "pitch": 68, "duration": 12, "velocity": 110}, {"time": 3180, "pitch": 72, "duration": 13, "velocity": 108}, {"time": 3192, "pitch": 60, "duration": 8, "velocity": 88}, {"time": 3198, "pitch": 65, "duration": 10, "velocity": 108}, {"time": 3198, "pitch": 68, "duration": 8, "velocity": 108}, {"time": 3198, "pitch": 72, "duration": 7, "velocity": 107}, {"time": 3204, "pitch": 60, "duration": 3, "velocity": 81}, {"time": 3210, "pitch": 51, "duration": 38, "velocity": 92}, {"time": 3210, "pitch": 63, "duration": 15, "velocity": 93}, {"time": 3210, "pitch": 67, "duration": 15, "velocity": 106}, {"time": 3210, "pitch": 70, "duration": 14, "velocity": 104}, {"time": 3216, "pitch": 58, "duration": 20, "velocity": 81}, {"time": 3228, "pitch": 63, "duration": 13, "velocity": 107}, {"time": 3228, "pitch": 67, "duration": 13, "velocity": 116}, {"time": 3228, "pitch": 68, "duration": 2, "velocity": 88}, {"time": 3228, "pitch": 70, "duration": 13, "velocity": 93}, {"time": 3240, "pitch": 58, "duration": 8, "velocity": 91}, {"time": 3246, "pitch": 63, "duration": 8, "velocity": 100}, {"time": 3246, "pitch": 67, "duration": 9, "velocity": 113}, {"time": 3246, "pitch": 70, "duration": 8, "velocity": 104}, {"time": 3252, "pitch": 51, "duration": 3, "velocity": 88}, {"time": 3258, "pitch": 49, "duration": 39, "velocity": 98}, {"time": 3258, "pitch": 61, "duration": 8, "velocity": 93}, {"time": 3258, "pitch": 65, "duration": 8, "velocity": 104}, {"time": 3258, "pitch": 68, "duration": 7, "velocity": 100}, {"time": 3264, "pitch": 56, "duration": 10, "velocity": 70}, {"time": 3270, "pitch": 61, "duration": 9, "velocity": 92}, {"time": 3270, "pitch": 65, "duration": 9, "velocity": 98}, {"time": 3270, "pitch": 68, "duration": 9, "velocity": 102}, {"time": 3276, "pitch": 56, "duration": 8, "velocity": 81}, {"time": 3282, "pitch": 61, "duration": 9, "velocity": 92}, {"time": 3282, "pitch": 65, "duration": 9, "velocity": 107}, {"time": 3282, "pitch": 68, "duration": 9, "velocity": 92}, {"time": 3291, "pitch": 56, "duration": 5, "velocity": 92}, {"time": 3294, "pitch": 61, "duration": 7, "velocity": 107}, {"time": 3294, "pitch": 65, "duration": 9, "velocity": 114}, {"time": 3294, "pitch": 68, "duration": 7, "velocity": 113}, {"time": 3300, "pitch": 49, "duration": 3, "velocity": 91}, {"time": 3306, "pitch": 48, "duration": 42, "velocity": 94}, {"time": 3306, "pitch": 63, "duration": 14, "velocity": 91}, {"time": 3306, "pitch": 67, "duration": 14, "velocity": 95}, {"time": 3306, "pitch": 70, "duration": 13, "velocity": 96}, {"time": 3312, "pitch": 55, "duration": 38, "velocity": 79}, {"time": 3318, "pitch": 60, "duration": 10, "velocity": 83}, {"time": 3324, "pitch": 63, "duration": 15, "velocity": 96}, {"time": 3324, "pitch": 67, "duration": 14, "velocity": 116}, {"time": 3324, "pitch": 70, "duration": 14, "velocity": 107}, {"time": 3336, "pitch": 60, "duration": 5, "velocity": 84}, {"time": 3342, "pitch": 63, "duration": 6, "velocity": 98}, {"time": 3342, "pitch": 67, "duration": 6, "velocity": 109}, {"time": 3342, "pitch": 70, "duration": 6, "velocity": 102}, {"time": 3348, "pitch": 60, "duration": 3, "velocity": 81}, {"time": 3354, "pitch": 53, "duration": 40, "velocity": 89}, {"time": 3360, "pitch": 60, "duration": 10, "velocity": 87}, {"time": 3366, "pitch": 65, "duration": 10, "velocity": 102}, {"time": 3366, "pitch": 68, "duration": 9, "velocity": 114}, {"time": 3366, "pitch": 72, "duration": 9, "velocity": 107}, {"time": 3372, "pitch": 60, "duration": 8, "velocity": 87}, {"time": 3378, "pitch": 65, "duration": 8, "velocity": 96}, {"time": 3378, "pitch": 68, "duration": 8, "velocity": 108}, {"time": 3378, "pitch": 72, "duration": 7, "velocity": 100}, {"time": 3384, "pitch": 60, "duration": 7, "velocity": 87}, {"time": 3390, "pitch": 65, "duration": 7, "velocity": 102}, {"time": 3390, "pitch": 68, "duration": 10, "velocity": 113}, {"time": 3390, "pitch": 72, "duration": 8, "velocity": 107}, {"time": 3396, "pitch": 53, "duration": 2, "velocity": 88}, {"time": 3402, "pitch": 51, "duration": 38, "velocity": 96}, {"time": 3402, "pitch": 63, "duration": 14, "velocity": 92}, {"time": 3402, "pitch": 67, "duration": 11, "velocity": 103}, {"time": 3402, "pitch": 70, "duration": 13, "velocity": 98}, {"time": 3408, "pitch": 58, "duration": 18, "velocity": 84}, {"time": 3420, "pitch": 63, "duration": 14, "velocity": 93}, {"time": 3420, "pitch": 67, "duration": 13, "velocity": 113}, {"time": 3420, "pitch": 70, "duration": 13, "velocity": 104}, {"time": 3432, "pitch": 58, "duration": 8, "velocity": 89}, {"time": 3438, "pitch": 63, "duration": 10, "velocity": 92}, {"time": 3438, "pitch": 67, "duration": 7, "velocity": 109}, {"time": 3438, "pitch": 70, "duration": 7, "velocity": 96}, {"time": 3444, "pitch": 51, "duration": 2, "velocity": 88}, {"time": 3450, "pitch": 44, "duration": 66, "velocity": 84}, {"time": 3450, "pitch": 63, "duration": 15, "velocity": 90}, {"time": 3450, "pitch": 68, "duration": 14, "velocity": 93}, {"time": 3450, "pitch": 72, "duration": 13, "velocity": 91}, {"time": 3456, "pitch": 51, "duration": 60, "velocity": 72}, {"time": 3462, "pitch": 56, "duration": 9, "velocity": 77}, {"time": 3468, "pitch": 63, "duration": 13, "velocity": 88}, {"time": 3468, "pitch": 68, "duration": 13, "velocity": 89}, {"time": 3468, "pitch": 72, "duration": 13, "velocity": 88}, {"time": 3480, "pitch": 56, "duration": 7, "velocity": 78}, {"time": 3486, "pitch": 63, "duration": 8, "velocity": 84}, {"time": 3486, "pitch": 68, "duration": 8, "velocity": 87}, {"time": 3486, "pitch": 72, "duration": 7, "velocity": 87}, {"time": 3492, "pitch": 56, "duration": 7, "velocity": 70}, {"time": 3498, "pitch": 63, "duration": 8, "velocity": 81}, {"time": 3498, "pitch": 68, "duration": 8, "velocity": 81}, {"time": 3498, "pitch": 72, "duration": 7, "velocity": 85}, {"time": 3504, "pitch": 56, "duration": 6, "velocity": 75}, {"time": 3510, "pitch": 63, "duration": 8, "velocity": 89}, {"time": 3510, "pitch": 68, "duration": 10, "velocity": 94}, {"time": 3510, "pitch": 72, "duration": 8, "velocity": 90}, {"time": 3516, "pitch": 56, "duration": 6, "velocity": 80}, {"time": 3522, "pitch": 51, "duration": 43, "velocity": 82}, {"time": 3522, "pitch": 63, "duration": 16, "velocity": 88}, {"time": 3522, "pitch": 67, "duration": 13, "velocity": 93}, {"time": 3522, "pitch": 70, "duration": 15, "velocity": 89}, {"time": 3534, "pitch": 58, "duration": 11, "velocity": 77}, {"time": 3540, "pitch": 63, "duration": 15, "velocity": 89}, {"time": 3540, "pitch": 67, "duration": 14, "velocity": 90}, {"time": 3540, "pitch": 70, "duration": 13, "velocity": 89}, {"time": 3552, "pitch": 58, "duration": 7, "velocity": 76}, {"time": 3558, "pitch": 63, "duration": 9, "velocity": 90}, {"time": 3558, "pitch": 67, "duration": 10, "velocity": 91}, {"time": 3558, "pitch": 70, "duration": 10, "velocity": 91}, {"time": 3564, "pitch": 58, "duration": 7, "velocity": 78}, {"time": 3570, "pitch": 53, "duration": 44, "velocity": 79}, {"time": 3570, "pitch": 65, "duration": 15, "velocity": 89}, {"time": 3570, "pitch": 68, "duration": 16, "velocity": 90}, {"time": 3570, "pitch": 72, "duration": 12, "velocity": 88}, {"time": 3579, "pitch": 60, "duration": 13, "velocity": 67}, {"time": 3588, "pitch": 65, "duration": 15, "velocity": 90}, {"time": 3588, "pitch": 68, "duration": 16, "velocity": 96}, {"time": 3588, "pitch": 72, "duration": 13, "velocity": 91}, {"time": 3600, "pitch": 60, "duration": 13, "velocity": 83}, {"time": 3606, "pitch": 65, "duration": 8, "velocity": 92}, {"time": 3606, "pitch": 68, "duration": 10, "velocity": 100}, {"time": 3606, "pitch": 72, "duration": 8, "velocity": 91}, {"time": 3618, "pitch": 51, "duration": 43, "velocity": 77}, {"time": 3618, "pitch": 63, "duration": 42, "velocity": 90}, {"time": 3618, "pitch": 67, "duration": 42, "velocity": 93}, {"time": 3618, "pitch": 70, "duration": 42, "velocity": 91}, {"time": 3666, "pitch": 44, "duration": 41, "velocity": 87}, {"time": 3666, "pitch": 63, "duration": 13, "velocity": 96}, {"time": 3666, "pitch": 68, "duration": 10, "velocity": 108}, {"time": 3666, "pitch": 72, "duration": 8, "velocity": 102}, {"time": 3672, "pitch": 51, "duration": 36, "velocity": 79}, {"time": 3675, "pitch": 65, "duration": 1, "velocity": 70}, {"time": 3678, "pitch": 56, "duration": 11, "velocity": 87}, {"time": 3684, "pitch": 60, "duration": 13, "velocity": 93}, {"time": 3684, "pitch": 63, "duration": 14, "velocity": 110}, {"time": 3684, "pitch": 68, "duration": 13, "velocity": 100}, {"time": 3696, "pitch": 56, "duration": 6, "velocity": 88}, {"time": 3702, "pitch": 60, "duration": 4, "velocity": 100}, {"time": 3702, "pitch": 63, "duration": 5, "velocity": 110}, {"time": 3702, "pitch": 68, "duration": 5, "velocity": 98}, {"time": 3708, "pitch": 56, "duration": 5, "velocity": 86}, {"time": 3714, "pitch": 43, "duration": 42, "velocity": 88}, {"time": 3714, "pitch": 63, "duration": 15, "velocity": 93}, {"time": 3714, "pitch": 67, "duration": 15, "velocity": 106}, {"time": 3714, "pitch": 70, "duration": 14, "velocity": 100}, {"time": 3720, "pitch": 55, "duration": 38, "velocity": 79}, {"time": 3726, "pitch": 60, "duration": 9, "velocity": 84}, {"time": 3732, "pitch": 63, "duration": 13, "velocity": 91}, {"time": 3732, "pitch": 67, "duration": 13, "velocity": 109}, {"time": 3732, "pitch": 70, "duration": 13, "velocity": 89}, {"time": 3744, "pitch": 60, "duration": 6, "velocity": 92}, {"time": 3750, "pitch": 63, "duration": 7, "velocity": 100}, {"time": 3750, "pitch": 67, "duration": 6, "velocity": 119}, {"time": 3750, "pitch": 70, "duration": 7, "velocity": 102}, {"time": 3756, "pitch": 60, "duration": 6, "velocity": 91}, {"time": 3762, "pitch": 53, "duration": 44, "velocity": 88}, {"time": 3762, "pitch": 65, "duration": 16, "velocity": 96}, {"time": 3762, "pitch": 68, "duration": 14, "velocity": 102}, {"time": 3762, "pitch": 70, "duration": 2, "velocity": 91}, {"time": 3762, "pitch": 72, "duration": 14, "velocity": 91}, {"time": 3774, "pitch": 60, "duration": 13, "velocity": 83}, {"time": 3780, "pitch": 65, "duration": 13, "velocity": 93}, {"time": 3780, "pitch": 68, "duration": 12, "velocity": 110}, {"time": 3780, "pitch": 72, "duration": 13, "velocity": 108}, {"time": 3792, "pitch": 60, "duration": 8, "velocity": 88}, {"time": 3798, "pitch": 65, "duration": 10, "velocity": 108}, {"time": 3798, "pitch": 68, "duration": 8, "velocity": 108}, {"time": 3798, "pitch": 72, "duration": 7, "velocity": 107}, {"time": 3804, "pitch": 60, "duration": 3, "velocity": 81}, {"time": 3810, "pitch": 51, "duration": 38, "velocity": 92}, {"time": 3810, "pitch": 63, "duration": 15, "velocity": 93}, {"time": 3810, "pitch": 67, "duration": 15, "velocity": 106}, {"time": 3810, "pitch": 70, "duration": 14, "velocity": 104}, {"time": 3816, "pitch": 58, "duration": 20, "velocity": 81}, {"time": 3828, "pitch": 63, "duration": 13, "velocity": 107}, {"time": 3828, "pitch": 67, "duration": 13, "velocity": 116}, {"time": 3828, "pitch": 68, "duration": 2, "velocity": 88}, {"time": 3828, "pitch": 70, "duration": 13, "velocity": 93}, {"time": 3840, "pitch": 58, "duration": 8, "velocity": 91}, {"time": 3846, "pitch": 63, "duration": 8, "velocity": 100}, {"time": 3846, "pitch": 67, "duration": 9, "velocity": 113}, {"time": 3846, "pitch": 70, "duration": 8, "velocity": 104}, {"time": 3852, "pitch": 51, "duration": 3, "velocity": 88}, {"time": 3858, "pitch": 49, "duration": 39, "velocity": 98}, {"time": 3858, "pitch": 61, "duration": 8, "velocity": 93}, {"time": 3858, "pitch": 65, "duration": 8, "velocity": 104}, {"time": 3858, "pitch": 68, "duration": 7, "velocity": 100}, {"time": 3864, "pitch": 56, "duration": 10, "velocity": 70}, {"time": 3870, "pitch": 61, "duration": 9, "velocity": 92}, {"time": 3870, "pitch": 65, "duration": 9, "velocity": 98}, {"time": 3870, "pitch": 68, "duration": 9, "velocity": 102}, {"time": 3876, "pitch": 56, "duration": 8, "velocity": 81}, {"time": 3882, "pitch": 61, "duration": 9, "velocity": 92}, {"time": 3882, "pitch": 65, "duration": 9, "velocity": 107}, {"time": 3882, "pitch": 68, "duration": 9, "velocity": 92}, {"time": 3891, "pitch": 56, "duration": 5, "velocity": 92}, {"time": 3894, "pitch": 61, "duration": 7, "velocity": 107}, {"time": 3894, "pitch": 65, "duration": 9, "velocity": 114}, {"time": 3894, "pitch": 68, "duration": 7, "velocity": 113}, {"time": 3900, "pitch": 49, "duration": 3, "velocity": 91}, {"time": 3906, "pitch": 48, "duration": 42, "velocity": 94}, {"time": 3906, "pitch": 63, "duration": 14, "velocity": 91}, {"time": 3906, "pitch": 67, "duration": 14, "velocity": 95}, {"time": 3906, "pitch": 70, "duration": 13, "velocity": 96}, {"time": 3912, "pitch": 55, "duration": 38, "velocity": 79}, {"time": 3918, "pitch": 60, "duration": 10, "velocity": 83}, {"time": 3924, "pitch": 63, "duration": 15, "velocity": 96}, {"time": 3924, "pitch": 67, "duration": 14, "velocity": 116}, {"time": 3924, "pitch": 70, "duration": 14, "velocity": 107}, {"time": 3936, "pitch": 60, "duration": 5, "velocity": 84}, {"time": 3942, "pitch": 63, "duration": 6, "velocity": 98}, {"time": 3942, "pitch": 67, "duration": 6, "velocity": 109}, {"time": 3942, "pitch": 70, "duration": 6, "velocity": 102}, {"time": 3948, "pitch": 60, "duration": 3, "velocity": 81}, {"time": 3954, "pitch": 53, "duration": 40, "velocity": 89}, {"time": 3960, "pitch": 60, "duration": 10, "velocity": 87}, {"time": 3966, "pitch": 65, "duration": 10, "velocity": 102}, {"time": 3966, "pitch": 68, "duration": 9, "velocity": 114}, {"time": 3966, "pitch": 72, "duration": 9, "velocity": 107}, {"time": 3972, "pitch": 60, "duration": 8, "velocity": 87}, {"time": 3978, "pitch": 65, "duration": 8, "velocity": 96}, {"time": 3978, "pitch": 68, "duration": 8, "velocity": 108}, {"time": 3978, "pitch": 72, "duration": 7, "velocity": 100}, {"time": 3984, "pitch": 60, "duration": 7, "velocity": 87}, {"time": 3990, "pitch": 65, "duration": 7, "velocity": 102}, {"time": 3990, "pitch": 68, "duration": 10, "velocity": 113}, {"time": 3990, "pitch": 72, "duration": 8, "velocity": 107}, {"time": 3996, "pitch": 53, "duration": 2, "velocity": 88}, {"time": 4002, "pitch": 51, "duration": 38, "velocity": 96}, {"time": 4002, "pitch": 63, "duration": 14, "velocity": 92}, {"time": 4002, "pitch": 67, "duration": 11, "velocity": 103}, {"time": 4002, "pitch": 70, "duration": 13, "velocity": 98}, {"time": 4008, "pitch": 58, "duration": 18, "velocity": 84}, {"time": 4020, "pitch": 63, "duration": 14, "velocity": 93}, {"time": 4020, "pitch": 67, "duration": 13, "velocity": 113}, {"time": 4020, "pitch": 70, "duration": 13, "velocity": 104}, {"time": 4032, "pitch": 58, "duration": 8, "velocity": 89}, {"time": 4038, "pitch": 63, "duration": 10, "velocity": 92}, {"time": 4038, "pitch": 67, "duration": 7, "velocity": 109}, {"time": 4038, "pitch": 70, "duration": 7, "velocity": 96}, {"time": 4044, "pitch": 51, "duration": 2, "velocity": 88}, {"time": 4050, "pitch": 44, "duration": 42, "velocity": 80}, {"time": 4056, "pitch": 51, "duration": 36, "velocity": 73}, {"time": 4062, "pitch": 56, "duration": 30, "velocity": 70}, {"time": 4068, "pitch": 60, "duration": 28, "velocity": 78}, {"time": 4068, "pitch": 68, "duration": 28, "velocity": 78}, {"time": 4098, "pitch": 51, "duration": 41, "velocity": 79}, {"time": 4104, "pitch": 58, "duration": 35, "velocity": 70}, {"time": 4110, "pitch": 63, "duration": 36, "velocity": 71}, {"time": 4116, "pitch": 70, "duration": 29, "velocity": 80}, {"time": 4146, "pitch": 53, "duration": 32, "velocity": 75}, {"time": 4152, "pitch": 60, "duration": 25, "velocity": 73}, {"time": 4158, "pitch": 65, "duration": 37, "velocity": 71}, {"time": 4164, "pitch": 68, "duration": 30, "velocity": 73}, {"time": 4194, "pitch": 44, "duration": 70, "velocity": 70}, {"time": 4200, "pitch": 51, "duration": 64, "velocity": 48}, {"time": 4206, "pitch": 56, "duration": 58, "velocity": 64}, {"time": 4212, "pitch": 60, "duration": 51, "velocity": 70}, {"time": 4221, "pitch": 68, "duration": 44, "velocity": 64}, {"time": 4242, "pitch": 63, "duration": 22, "velocity": 58}], "annotations": [{"time": 330, "annotation": {"number": 64, "value": 127}, "group": "control_change"}, {"time": 375, "annotation": {"number": 64, "value": 38}, "group": "control_change"}, {"time": 375, "annotation": {"number": 64, "value": 0}, "group": "control_change"}, {"time": 377, "annotation": {"number": 64, "value": 127}, "group": "control_change"}, {"time": 426, "annotation": {"number": 64, "value": 127}, "group": "control_change"}, {"time": 429, "annotation": {"number": 64, "value": 38}, "group": "control_change"}, {"time": 429, "annotation": {"number": 64, "value": 127}, "group": "control_change"}, {"time": 429, "annotation": {"number": 64, "value": 74}, "group": "control_change"}, {"time": 430, "annotation": {"number": 64, "value": 127}, "group": "control_change"}, {"time": 430, "annotation": {"number": 64, "value": 74}, "group": "control_change"}, {"time": 443, "annotation": {"number": 64, "value": 38}, "group": "control_change"}, {"time": 443, "annotation": {"number": 64, "value": 0}, "group": "control_change"}, {"time": 471, "annotation": {"number": 64, "value": 0}, "group": "control_change"}, {"time": 474, "annotation": {"number": 64, "value": 127}, "group": "control_change"}, {"time": 519, "annotation": {"number": 64, "value": 74}, "group": "control_change"}, {"time": 519, "annotation": {"number": 64, "value": 0}, "group": "control_change"}, {"time": 521, "annotation": {"number": 64, "value": 127}, "group": "control_change"}, {"time": 522, "annotation": {"number": 64, "value": 74}, "group": "control_change"}, {"time": 522, "annotation": {"number": 64, "value": 127}, "group": "control_change"}, {"time": 534, "annotation": {"number": 64, "value": 74}, "group": "control_change"}, {"time": 534, "annotation": {"number": 64, "value": 0}, "group": "control_change"}, {"time": 566, "annotation": {"number": 64, "value": 74}, "group": "control_change"}, {"time": 566, "annotation": {"number": 64, "value": 0}, "group": "control_change"}, {"time": 571, "annotation": {"number": 64, "value": 127}, "group": "control_change"}, {"time": 614, "annotation": {"number": 64, "value": 74}, "group": "control_change"}, {"time": 614, "annotation": {"number": 64, "value": 0}, "group": "control_change"}, {"time": 618, "annotation": {"number": 64, "value": 127}, "group": "control_change"}, {"time": 649, "annotation": {"number": 64, "value": 38}, "group": "control_change"}, {"time": 649, "annotation": {"number": 64, "value": 74}, "group": "control_change"}, {"time": 649, "annotation": {"number": 64, "value": 0}, "group": "control_change"}, {"time": 649, "annotation": {"number": 64, "value": 127}, "group": "control_change"}, {"time": 650, "annotation": {"number": 64, "value": 0}, "group": "control_change"}, {"time": 668, "annotation": {"number": 64, "value": 127}, "group": "control_change"}, {"time": 709, "annotation": {"number": 64, "value": 74}, "group": "control_change"}, {"time": 709, "annotation": {"number": 64, "value": 38}, "group": "control_change"}, {"time": 709, "annotation": {"number": 64, "value": 0}, "group": "control_change"}, {"time": 715, "annotation": {"number": 64, "value": 127}, "group": "control_change"}, {"time": 746, "annotation": {"number": 64, "value": 74}, "group": "control_change"}, {"time": 746, "annotation": {"number": 64, "value": 38}, "group": "control_change"}, {"time": 746, "annotation": {"number": 64, "value": 0}, "group": "control_change"}, {"time": 750, "annotation": {"number": 64, "value": 127}, "group": "control_change"}, {"time": 806, "annotation": {"number": 64, "value": 74}, "group": "control_change"}, {"time": 806, "annotation": {"number": 64, "value": 0}, "group": "control_change"}, {"time": 814, "annotation": {"number": 64, "value": 127}, "group": "control_change"}, {"time": 855, "annotation": {"number": 64, "value": 74}, "group": "control_change"}, {"time": 855, "annotation": {"number": 64, "value": 0}, "group": "control_change"}, {"time": 858, "annotation": {"number": 64, "value": 127}, "group": "control_change"}, {"time": 902, "annotation": {"number": 64, "value": 38}, "group": "control_change"}, {"time": 902, "annotation": {"number": 64, "value": 0}, "group": "control_change"}, {"time": 955, "annotation": {"number": 64, "value": 127}, "group": "control_change"}, {"time": 1201, "annotation": {"number": 64, "value": 0}, "group": "control_change"}, {"time": 1341, "annotation": {"number": 64, "value": 127}, "group": "control_change"}, {"time": 1349, "annotation": {"number": 64, "value": 74}, "group": "control_change"}, {"time": 1349, "annotation": {"number": 64, "value": 38}, "group": "control_change"}, {"time": 1349, "annotation": {"number": 64, "value": 0}, "group": "control_change"}, {"time": 1352, "annotation": {"number": 64, "value": 127}, "group": "control_change"}, {"time": 1414, "annotation": {"number": 64, "value": 74}, "group": "control_change"}, {"time": 1414, "annotation": {"number": 64, "value": 127}, "group": "control_change"}, {"time": 1415, "annotation": {"number": 64, "value": 38}, "group": "control_change"}, {"time": 1415, "annotation": {"number": 64, "value": 74}, "group": "control_change"}, {"time": 1415, "annotation": {"number": 64, "value": 0}, "group": "control_change"}, {"time": 1962, "annotation": {"number": 64, "value": 127}, "group": "control_change"}, {"time": 2007, "annotation": {"number": 64, "value": 38}, "group": "control_change"}, {"time": 2007, "annotation": {"number": 64, "value": 0}, "group": "control_change"}, {"time": 2009, "annotation": {"number": 64, "value": 127}, "group": "control_change"}, {"time": 2058, "annotation": {"number": 64, "value": 127}, "group": "control_change"}, {"time": 2061, "annotation": {"number": 64, "value": 38}, "group": "control_change"}, {"time": 2061, "annotation": {"number": 64, "value": 127}, "group": "control_change"}, {"time": 2061, "annotation": {"number": 64, "value": 74}, "group": "control_change"}, {"time": 2062, "annotation": {"number": 64, "value": 127}, "group": "control_change"}, {"time": 2062, "annotation": {"number": 64, "value": 74}, "group": "control_change"}, {"time": 2075, "annotation": {"number": 64, "value": 38}, "group": "control_change"}, {"time": 2075, "annotation": {"number": 64, "value": 0}, "group": "control_change"}, {"time": 2103, "annotation": {"number": 64, "value": 0}, "group": "control_change"}, {"time": 2106, "annotation": {"number": 64, "value": 127}, "group": "control_change"}, {"time": 2151, "annotation": {"number": 64, "value": 74}, "group": "control_change"}, {"time": 2151, "annotation": {"number": 64, "value": 0}, "group": "control_change"}, {"time": 2153, "annotation": {"number": 64, "value": 127}, "group": "control_change"}, {"time": 2154, "annotation": {"number": 64, "value": 74}, "group": "control_change"}, {"time": 2154, "annotation": {"number": 64, "value": 127}, "group": "control_change"}, {"time": 2166, "annotation": {"number": 64, "value": 74}, "group": "control_change"}, {"time": 2166, "annotation": {"number": 64, "value": 0}, "group": "control_change"}, {"time": 2198, "annotation": {"number": 64, "value": 74}, "group": "control_change"}, {"time": 2198, "annotation": {"number": 64, "value": 0}, "group": "control_change"}, {"time": 2203, "annotation": {"number": 64, "value": 127}, "group": "control_change"}, {"time": 2246, "annotation": {"number": 64, "value": 74}, "group": "control_change"}, {"time": 2246, "annotation": {"number": 64, "value": 0}, "group": "control_change"}, {"time": 2250, "annotation": {"number": 64, "value": 127}, "group": "control_change"}, {"time": 2281, "annotation": {"number": 64, "value": 38}, "group": "control_change"}, {"time": 2281, "annotation": {"number": 64, "value": 74}, "group": "control_change"}, {"time": 2281, "annotation": {"number": 64, "value": 0}, "group": "control_change"}, {"time": 2281, "annotation": {"number": 64, "value": 127}, "group": "control_change"}, {"time": 2282, "annotation": {"number": 64, "value": 0}, "group": "control_change"}, {"time": 2300, "annotation": {"number": 64, "value": 127}, "group": "control_change"}, {"time": 2341, "annotation": {"number": 64, "value": 74}, "group": "control_change"}, {"time": 2341, "annotation": {"number": 64, "value": 38}, "group": "control_change"}, {"time": 2341, "annotation": {"number": 64, "value": 0}, "group": "control_change"}, {"time": 2347, "annotation": {"number": 64, "value": 127}, "group": "control_change"}, {"time": 2378, "annotation": {"number": 64, "value": 74}, "group": "control_change"}, {"time": 2378, "annotation": {"number": 64, "value": 38}, "group": "control_change"}, {"time": 2378, "annotation": {"number": 64, "value": 0}, "group": "control_change"}, {"time": 2382, "annotation": {"number": 64, "value": 127}, "group": "control_change"}, {"time": 2438, "annotation": {"number": 64, "value": 74}, "group": "control_change"}, {"time": 2438, "annotation": {"number": 64, "value": 0}, "group": "control_change"}, {"time": 2446, "annotation": {"number": 64, "value": 127}, "group": "control_change"}, {"time": 2487, "annotation": {"number": 64, "value": 74}, "group": "control_change"}, {"time": 2487, "annotation": {"number": 64, "value": 0}, "group": "control_change"}, {"time": 2490, "annotation": {"number": 64, "value": 127}, "group": "control_change"}, {"time": 2534, "annotation": {"number": 64, "value": 38}, "group": "control_change"}, {"time": 2534, "annotation": {"number": 64, "value": 0}, "group": "control_change"}, {"time": 2587, "annotation": {"number": 64, "value": 127}, "group": "control_change"}, {"time": 2833, "annotation": {"number": 64, "value": 0}, "group": "control_change"}, {"time": 2973, "annotation": {"number": 64, "value": 127}, "group": "control_change"}, {"time": 2981, "annotation": {"number": 64, "value": 74}, "group": "control_change"}, {"time": 2981, "annotation": {"number": 64, "value": 38}, "group": "control_change"}, {"time": 2981, "annotation": {"number": 64, "value": 0}, "group": "control_change"}, {"time": 2984, "annotation": {"number": 64, "value": 127}, "group": "control_change"}, {"time": 3046, "annotation": {"number": 64, "value": 74}, "group": "control_change"}, {"time": 3046, "annotation": {"number": 64, "value": 127}, "group": "control_change"}, {"time": 3047, "annotation": {"number": 64, "value": 38}, "group": "control_change"}, {"time": 3047, "annotation": {"number": 64, "value": 74}, "group": "control_change"}, {"time": 3047, "annotation": {"number": 64, "value": 0}, "group": "control_change"}, {"time": 4049, "annotation": {"number": 64, "value": 127}, "group": "control_change"}, {"time": 4095, "annotation": {"number": 64, "value": 74}, "group": "control_change"}, {"time": 4095, "annotation": {"number": 64, "value": 127}, "group": "control_change"}, {"time": 4095, "annotation": {"number": 64, "value": 0}, "group": "control_change"}, {"time": 4097, "annotation": {"number": 64, "value": 127}, "group": "control_change"}, {"time": 4143, "annotation": {"number": 64, "value": 74}, "group": "control_change"}, {"time": 4143, "annotation": {"number": 64, "value": 38}, "group": "control_change"}, {"time": 4143, "annotation": {"number": 64, "value": 0}, "group": "control_change"}, {"time": 4145, "annotation": {"number": 64, "value": 127}, "group": "control_change"}, {"time": 4268, "annotation": {"number": 64, "value": 74}, "group": "control_change"}, {"time": 4268, "annotation": {"number": 64, "value": 0}, "group": "control_change"}]}]}