{"metadata": {"schema_version": "0.2", "title": "None", "source_filename": "306.mid", "source_format": "midi"}, "resolution": 12, "tempos": [{"time": 0, "qpm": 118.00036580113398}], "time_signatures": [{"time": 0, "numerator": 4, "denominator": 4}], "tracks": [{"program": 0, "is_drum": false, "name": "MELODY", "notes": [{"time": 498, "pitch": 66, "duration": 6, "velocity": 116}, {"time": 504, "pitch": 64, "duration": 6, "velocity": 90}, {"time": 510, "pitch": 64, "duration": 6, "velocity": 98}, {"time": 516, "pitch": 62, "duration": 6, "velocity": 94}, {"time": 522, "pitch": 62, "duration": 6, "velocity": 96}, {"time": 528, "pitch": 61, "duration": 12, "velocity": 108}, {"time": 540, "pitch": 59, "duration": 30, "velocity": 108}, {"time": 570, "pitch": 59, "duration": 6, "velocity": 107}, {"time": 576, "pitch": 61, "duration": 6, "velocity": 91}, {"time": 582, "pitch": 62, "duration": 6, "velocity": 96}, {"time": 588, "pitch": 57, "duration": 6, "velocity": 92}, {"time": 594, "pitch": 55, "duration": 90, "velocity": 94}, {"time": 684, "pitch": 43, "duration": 6, "velocity": 93}, {"time": 690, "pitch": 42, "duration": 13, "velocity": 108}, {"time": 702, "pitch": 46, "duration": 6, "velocity": 113}, {"time": 708, "pitch": 49, "duration": 7, "velocity": 102}, {"time": 714, "pitch": 54, "duration": 12, "velocity": 107}, {"time": 726, "pitch": 50, "duration": 6, "velocity": 100}, {"time": 732, "pitch": 49, "duration": 30, "velocity": 113}, {"time": 762, "pitch": 49, "duration": 6, "velocity": 108}, {"time": 768, "pitch": 50, "duration": 12, "velocity": 104}, {"time": 780, "pitch": 52, "duration": 6, "velocity": 110}, {"time": 786, "pitch": 54, "duration": 96, "velocity": 108}, {"time": 882, "pitch": 71, "duration": 6, "velocity": 117}, {"time": 888, "pitch": 69, "duration": 6, "velocity": 110}, {"time": 894, "pitch": 69, "duration": 6, "velocity": 113}, {"time": 900, "pitch": 67, "duration": 6, "velocity": 108}, {"time": 906, "pitch": 67, "duration": 6, "velocity": 117}, {"time": 912, "pitch": 66, "duration": 12, "velocity": 110}, {"time": 924, "pitch": 61, "duration": 30, "velocity": 102}, {"time": 954, "pitch": 61, "duration": 9, "velocity": 113}, {"time": 963, "pitch": 62, "duration": 9, "velocity": 102}, {"time": 972, "pitch": 64, "duration": 6, "velocity": 104}, {"time": 978, "pitch": 67, "duration": 18, "velocity": 114}, {"time": 996, "pitch": 66, "duration": 24, "velocity": 108}, {"time": 1020, "pitch": 54, "duration": 6, "velocity": 91}, {"time": 1026, "pitch": 64, "duration": 18, "velocity": 108}, {"time": 1044, "pitch": 62, "duration": 18, "velocity": 104}, {"time": 1062, "pitch": 61, "duration": 6, "velocity": 108}, {"time": 1068, "pitch": 59, "duration": 6, "velocity": 91}, {"time": 1074, "pitch": 62, "duration": 18, "velocity": 107}, {"time": 1092, "pitch": 55, "duration": 54, "velocity": 102}, {"time": 1146, "pitch": 54, "duration": 6, "velocity": 88}, {"time": 1152, "pitch": 58, "duration": 6, "velocity": 85}, {"time": 1158, "pitch": 61, "duration": 6, "velocity": 86}, {"time": 1164, "pitch": 58, "duration": 6, "velocity": 87}, {"time": 1170, "pitch": 59, "duration": 72, "velocity": 88}, {"time": 1242, "pitch": 66, "duration": 12, "velocity": 113}, {"time": 1254, "pitch": 69, "duration": 12, "velocity": 116}, {"time": 1266, "pitch": 71, "duration": 12, "velocity": 113}, {"time": 1278, "pitch": 71, "duration": 12, "velocity": 113}, {"time": 1290, "pitch": 71, "duration": 6, "velocity": 113}, {"time": 1296, "pitch": 74, "duration": 12, "velocity": 116}, {"time": 1308, "pitch": 74, "duration": 30, "velocity": 116}, {"time": 1338, "pitch": 74, "duration": 12, "velocity": 116}, {"time": 1350, "pitch": 71, "duration": 12, "velocity": 110}, {"time": 1362, "pitch": 73, "duration": 12, "velocity": 116}, {"time": 1374, "pitch": 74, "duration": 12, "velocity": 113}, {"time": 1386, "pitch": 73, "duration": 6, "velocity": 110}, {"time": 1392, "pitch": 69, "duration": 12, "velocity": 108}, {"time": 1404, "pitch": 66, "duration": 30, "velocity": 116}, {"time": 1434, "pitch": 71, "duration": 12, "velocity": 117}, {"time": 1446, "pitch": 69, "duration": 12, "velocity": 114}, {"time": 1458, "pitch": 71, "duration": 6, "velocity": 116}, {"time": 1464, "pitch": 69, "duration": 6, "velocity": 114}, {"time": 1470, "pitch": 69, "duration": 6, "velocity": 114}, {"time": 1476, "pitch": 62, "duration": 24, "velocity": 113}, {"time": 1500, "pitch": 62, "duration": 6, "velocity": 93}, {"time": 1506, "pitch": 67, "duration": 12, "velocity": 113}, {"time": 1518, "pitch": 66, "duration": 6, "velocity": 108}, {"time": 1524, "pitch": 64, "duration": 12, "velocity": 114}, {"time": 1536, "pitch": 62, "duration": 6, "velocity": 94}, {"time": 1542, "pitch": 64, "duration": 6, "velocity": 104}, {"time": 1548, "pitch": 66, "duration": 78, "velocity": 110}, {"time": 1626, "pitch": 66, "duration": 12, "velocity": 113}, {"time": 1638, "pitch": 69, "duration": 12, "velocity": 116}, {"time": 1650, "pitch": 71, "duration": 12, "velocity": 113}, {"time": 1662, "pitch": 71, "duration": 12, "velocity": 113}, {"time": 1674, "pitch": 71, "duration": 6, "velocity": 113}, {"time": 1680, "pitch": 74, "duration": 12, "velocity": 116}, {"time": 1692, "pitch": 74, "duration": 30, "velocity": 116}, {"time": 1722, "pitch": 74, "duration": 12, "velocity": 116}, {"time": 1734, "pitch": 71, "duration": 12, "velocity": 110}, {"time": 1746, "pitch": 73, "duration": 12, "velocity": 116}, {"time": 1758, "pitch": 74, "duration": 12, "velocity": 113}, {"time": 1770, "pitch": 73, "duration": 6, "velocity": 110}, {"time": 1776, "pitch": 69, "duration": 12, "velocity": 108}, {"time": 1788, "pitch": 66, "duration": 30, "velocity": 116}, {"time": 1818, "pitch": 71, "duration": 12, "velocity": 117}, {"time": 1830, "pitch": 69, "duration": 12, "velocity": 114}, {"time": 1842, "pitch": 71, "duration": 6, "velocity": 116}, {"time": 1848, "pitch": 69, "duration": 6, "velocity": 114}, {"time": 1854, "pitch": 69, "duration": 6, "velocity": 114}, {"time": 1860, "pitch": 62, "duration": 24, "velocity": 113}, {"time": 1884, "pitch": 62, "duration": 6, "velocity": 93}, {"time": 1890, "pitch": 67, "duration": 12, "velocity": 113}, {"time": 1902, "pitch": 66, "duration": 6, "velocity": 108}, {"time": 1908, "pitch": 64, "duration": 12, "velocity": 114}, {"time": 1920, "pitch": 62, "duration": 6, "velocity": 94}, {"time": 1926, "pitch": 64, "duration": 6, "velocity": 104}, {"time": 1932, "pitch": 66, "duration": 7, "velocity": 110}, {"time": 2034, "pitch": 66, "duration": 6, "velocity": 116}, {"time": 2040, "pitch": 64, "duration": 6, "velocity": 90}, {"time": 2046, "pitch": 64, "duration": 6, "velocity": 98}, {"time": 2052, "pitch": 62, "duration": 6, "velocity": 94}, {"time": 2058, "pitch": 62, "duration": 6, "velocity": 96}, {"time": 2064, "pitch": 61, "duration": 12, "velocity": 108}, {"time": 2076, "pitch": 59, "duration": 30, "velocity": 108}, {"time": 2106, "pitch": 59, "duration": 6, "velocity": 107}, {"time": 2112, "pitch": 61, "duration": 6, "velocity": 91}, {"time": 2118, "pitch": 62, "duration": 6, "velocity": 96}, {"time": 2124, "pitch": 57, "duration": 6, "velocity": 92}, {"time": 2130, "pitch": 55, "duration": 90, "velocity": 94}, {"time": 2220, "pitch": 43, "duration": 6, "velocity": 93}, {"time": 2226, "pitch": 42, "duration": 13, "velocity": 108}, {"time": 2238, "pitch": 46, "duration": 6, "velocity": 113}, {"time": 2244, "pitch": 49, "duration": 7, "velocity": 102}, {"time": 2250, "pitch": 54, "duration": 12, "velocity": 107}, {"time": 2262, "pitch": 50, "duration": 6, "velocity": 100}, {"time": 2268, "pitch": 49, "duration": 30, "velocity": 113}, {"time": 2298, "pitch": 49, "duration": 6, "velocity": 108}, {"time": 2304, "pitch": 50, "duration": 12, "velocity": 104}, {"time": 2316, "pitch": 52, "duration": 6, "velocity": 110}, {"time": 2322, "pitch": 54, "duration": 96, "velocity": 108}, {"time": 2418, "pitch": 71, "duration": 6, "velocity": 117}, {"time": 2424, "pitch": 69, "duration": 6, "velocity": 110}, {"time": 2430, "pitch": 69, "duration": 6, "velocity": 113}, {"time": 2436, "pitch": 67, "duration": 6, "velocity": 108}, {"time": 2442, "pitch": 67, "duration": 6, "velocity": 117}, {"time": 2448, "pitch": 66, "duration": 12, "velocity": 110}, {"time": 2460, "pitch": 61, "duration": 30, "velocity": 102}, {"time": 2490, "pitch": 61, "duration": 9, "velocity": 113}, {"time": 2499, "pitch": 62, "duration": 9, "velocity": 102}, {"time": 2508, "pitch": 64, "duration": 6, "velocity": 104}, {"time": 2514, "pitch": 67, "duration": 18, "velocity": 114}, {"time": 2532, "pitch": 66, "duration": 24, "velocity": 108}, {"time": 2556, "pitch": 54, "duration": 6, "velocity": 91}, {"time": 2562, "pitch": 64, "duration": 18, "velocity": 108}, {"time": 2580, "pitch": 62, "duration": 18, "velocity": 104}, {"time": 2598, "pitch": 61, "duration": 6, "velocity": 108}, {"time": 2604, "pitch": 59, "duration": 6, "velocity": 91}, {"time": 2610, "pitch": 62, "duration": 18, "velocity": 107}, {"time": 2628, "pitch": 55, "duration": 54, "velocity": 102}, {"time": 2682, "pitch": 54, "duration": 6, "velocity": 88}, {"time": 2688, "pitch": 58, "duration": 6, "velocity": 85}, {"time": 2694, "pitch": 61, "duration": 6, "velocity": 86}, {"time": 2700, "pitch": 58, "duration": 6, "velocity": 87}, {"time": 2706, "pitch": 59, "duration": 48, "velocity": 88}, {"time": 3186, "pitch": 71, "duration": 12, "velocity": 114}, {"time": 3198, "pitch": 71, "duration": 6, "velocity": 108}, {"time": 3204, "pitch": 71, "duration": 12, "velocity": 113}, {"time": 3216, "pitch": 74, "duration": 18, "velocity": 119}, {"time": 3234, "pitch": 74, "duration": 12, "velocity": 117}, {"time": 3246, "pitch": 73, "duration": 12, "velocity": 116}, {"time": 3258, "pitch": 69, "duration": 6, "velocity": 107}, {"time": 3264, "pitch": 64, "duration": 18, "velocity": 113}, {"time": 3282, "pitch": 69, "duration": 12, "velocity": 119}, {"time": 3294, "pitch": 69, "duration": 6, "velocity": 113}, {"time": 3300, "pitch": 69, "duration": 12, "velocity": 114}, {"time": 3312, "pitch": 73, "duration": 18, "velocity": 120}, {"time": 3330, "pitch": 73, "duration": 12, "velocity": 119}, {"time": 3342, "pitch": 76, "duration": 12, "velocity": 113}, {"time": 3354, "pitch": 74, "duration": 6, "velocity": 116}, {"time": 3360, "pitch": 74, "duration": 18, "velocity": 117}, {"time": 3378, "pitch": 71, "duration": 12, "velocity": 113}, {"time": 3390, "pitch": 67, "duration": 6, "velocity": 104}, {"time": 3396, "pitch": 71, "duration": 12, "velocity": 117}, {"time": 3408, "pitch": 74, "duration": 6, "velocity": 113}, {"time": 3414, "pitch": 74, "duration": 6, "velocity": 110}, {"time": 3420, "pitch": 74, "duration": 30, "velocity": 116}, {"time": 3450, "pitch": 74, "duration": 6, "velocity": 114}, {"time": 3456, "pitch": 73, "duration": 12, "velocity": 113}, {"time": 3468, "pitch": 71, "duration": 6, "velocity": 113}, {"time": 3474, "pitch": 73, "duration": 54, "velocity": 119}, {"time": 3546, "pitch": 66, "duration": 12, "velocity": 113}, {"time": 3558, "pitch": 69, "duration": 12, "velocity": 116}, {"time": 3570, "pitch": 71, "duration": 12, "velocity": 113}, {"time": 3582, "pitch": 71, "duration": 12, "velocity": 113}, {"time": 3594, "pitch": 71, "duration": 6, "velocity": 113}, {"time": 3600, "pitch": 74, "duration": 12, "velocity": 116}, {"time": 3612, "pitch": 74, "duration": 30, "velocity": 116}, {"time": 3642, "pitch": 74, "duration": 12, "velocity": 116}, {"time": 3654, "pitch": 71, "duration": 12, "velocity": 110}, {"time": 3666, "pitch": 73, "duration": 12, "velocity": 116}, {"time": 3678, "pitch": 74, "duration": 12, "velocity": 113}, {"time": 3690, "pitch": 73, "duration": 6, "velocity": 110}, {"time": 3696, "pitch": 69, "duration": 12, "velocity": 108}, {"time": 3708, "pitch": 66, "duration": 30, "velocity": 116}, {"time": 3738, "pitch": 71, "duration": 12, "velocity": 117}, {"time": 3750, "pitch": 69, "duration": 12, "velocity": 114}, {"time": 3762, "pitch": 71, "duration": 6, "velocity": 116}, {"time": 3768, "pitch": 69, "duration": 6, "velocity": 114}, {"time": 3774, "pitch": 69, "duration": 6, "velocity": 114}, {"time": 3780, "pitch": 62, "duration": 24, "velocity": 113}, {"time": 3804, "pitch": 62, "duration": 6, "velocity": 93}, {"time": 3810, "pitch": 67, "duration": 12, "velocity": 113}, {"time": 3822, "pitch": 66, "duration": 6, "velocity": 108}, {"time": 3828, "pitch": 64, "duration": 12, "velocity": 114}, {"time": 3840, "pitch": 62, "duration": 6, "velocity": 94}, {"time": 3846, "pitch": 64, "duration": 6, "velocity": 104}, {"time": 3852, "pitch": 66, "duration": 78, "velocity": 110}, {"time": 3930, "pitch": 66, "duration": 12, "velocity": 113}, {"time": 3942, "pitch": 69, "duration": 12, "velocity": 116}, {"time": 3954, "pitch": 71, "duration": 12, "velocity": 113}, {"time": 3966, "pitch": 71, "duration": 12, "velocity": 113}, {"time": 3978, "pitch": 71, "duration": 6, "velocity": 113}, {"time": 3984, "pitch": 74, "duration": 12, "velocity": 116}, {"time": 3996, "pitch": 74, "duration": 30, "velocity": 116}, {"time": 4026, "pitch": 74, "duration": 12, "velocity": 116}, {"time": 4038, "pitch": 71, "duration": 12, "velocity": 110}, {"time": 4050, "pitch": 73, "duration": 12, "velocity": 116}, {"time": 4062, "pitch": 74, "duration": 12, "velocity": 113}, {"time": 4074, "pitch": 73, "duration": 6, "velocity": 110}, {"time": 4080, "pitch": 69, "duration": 12, "velocity": 108}, {"time": 4092, "pitch": 66, "duration": 30, "velocity": 116}, {"time": 4122, "pitch": 71, "duration": 12, "velocity": 117}, {"time": 4134, "pitch": 69, "duration": 12, "velocity": 114}, {"time": 4146, "pitch": 71, "duration": 6, "velocity": 116}, {"time": 4152, "pitch": 69, "duration": 6, "velocity": 114}, {"time": 4158, "pitch": 69, "duration": 6, "velocity": 114}, {"time": 4164, "pitch": 62, "duration": 24, "velocity": 113}, {"time": 4188, "pitch": 62, "duration": 6, "velocity": 93}, {"time": 4194, "pitch": 67, "duration": 12, "velocity": 113}, {"time": 4206, "pitch": 66, "duration": 6, "velocity": 108}, {"time": 4212, "pitch": 64, "duration": 12, "velocity": 114}, {"time": 4224, "pitch": 62, "duration": 6, "velocity": 94}, {"time": 4230, "pitch": 64, "duration": 6, "velocity": 104}, {"time": 4236, "pitch": 66, "duration": 42, "velocity": 110}]}, {"program": 0, "is_drum": false, "name": "BRIDGE", "notes": [{"time": 117, "pitch": 47, "duration": 40, "velocity": 98}, {"time": 123, "pitch": 54, "duration": 14, "velocity": 83}, {"time": 129, "pitch": 59, "duration": 21, "velocity": 73}, {"time": 132, "pitch": 66, "duration": 15, "velocity": 108}, {"time": 144, "pitch": 54, "duration": 19, "velocity": 87}, {"time": 153, "pitch": 59, "duration": 2, "velocity": 46}, {"time": 156, "pitch": 64, "duration": 13, "velocity": 110}, {"time": 162, "pitch": 47, "duration": 36, "velocity": 86}, {"time": 168, "pitch": 54, "duration": 16, "velocity": 86}, {"time": 174, "pitch": 59, "duration": 5, "velocity": 82}, {"time": 180, "pitch": 61, "duration": 17, "velocity": 108}, {"time": 192, "pitch": 54, "duration": 8, "velocity": 83}, {"time": 198, "pitch": 59, "duration": 14, "velocity": 86}, {"time": 210, "pitch": 42, "duration": 44, "velocity": 91}, {"time": 216, "pitch": 49, "duration": 18, "velocity": 81}, {"time": 222, "pitch": 58, "duration": 8, "velocity": 83}, {"time": 228, "pitch": 64, "duration": 14, "velocity": 94}, {"time": 240, "pitch": 49, "duration": 20, "velocity": 81}, {"time": 246, "pitch": 58, "duration": 8, "velocity": 83}, {"time": 252, "pitch": 61, "duration": 17, "velocity": 104}, {"time": 258, "pitch": 42, "duration": 36, "velocity": 87}, {"time": 264, "pitch": 49, "duration": 14, "velocity": 82}, {"time": 270, "pitch": 58, "duration": 7, "velocity": 80}, {"time": 276, "pitch": 64, "duration": 17, "velocity": 102}, {"time": 288, "pitch": 49, "duration": 10, "velocity": 77}, {"time": 294, "pitch": 58, "duration": 13, "velocity": 87}, {"time": 300, "pitch": 61, "duration": 12, "velocity": 88}, {"time": 306, "pitch": 47, "duration": 44, "velocity": 88}, {"time": 312, "pitch": 54, "duration": 18, "velocity": 84}, {"time": 318, "pitch": 59, "duration": 7, "velocity": 82}, {"time": 324, "pitch": 62, "duration": 18, "velocity": 114}, {"time": 336, "pitch": 54, "duration": 15, "velocity": 83}, {"time": 342, "pitch": 61, "duration": 4, "velocity": 78}, {"time": 348, "pitch": 59, "duration": 18, "velocity": 89}, {"time": 351, "pitch": 62, "duration": 1, "velocity": 86}, {"time": 354, "pitch": 47, "duration": 37, "velocity": 89}, {"time": 360, "pitch": 54, "duration": 15, "velocity": 83}, {"time": 366, "pitch": 61, "duration": 4, "velocity": 87}, {"time": 372, "pitch": 62, "duration": 16, "velocity": 116}, {"time": 384, "pitch": 54, "duration": 7, "velocity": 86}, {"time": 390, "pitch": 59, "duration": 7, "velocity": 83}, {"time": 396, "pitch": 62, "duration": 8, "velocity": 100}, {"time": 402, "pitch": 42, "duration": 75, "velocity": 91}, {"time": 408, "pitch": 49, "duration": 18, "velocity": 82}, {"time": 414, "pitch": 58, "duration": 7, "velocity": 83}, {"time": 420, "pitch": 62, "duration": 17, "velocity": 102}, {"time": 432, "pitch": 49, "duration": 45, "velocity": 82}, {"time": 438, "pitch": 58, "duration": 7, "velocity": 82}, {"time": 444, "pitch": 61, "duration": 30, "velocity": 108}, {"time": 2754, "pitch": 71, "duration": 36, "velocity": 92}, {"time": 2790, "pitch": 71, "duration": 7, "velocity": 110}, {"time": 2796, "pitch": 73, "duration": 6, "velocity": 108}, {"time": 2802, "pitch": 78, "duration": 96, "velocity": 117}, {"time": 2898, "pitch": 66, "duration": 96, "velocity": 117}, {"time": 2994, "pitch": 77, "duration": 48, "velocity": 119}, {"time": 3042, "pitch": 76, "duration": 36, "velocity": 116}, {"time": 3078, "pitch": 74, "duration": 12, "velocity": 114}, {"time": 3090, "pitch": 78, "duration": 39, "velocity": 117}, {"time": 4320, "pitch": 71, "duration": 18, "velocity": 113}, {"time": 4338, "pitch": 78, "duration": 84, "velocity": 119}, {"time": 4422, "pitch": 78, "duration": 13, "velocity": 117}, {"time": 4434, "pitch": 77, "duration": 96, "velocity": 119}, {"time": 4530, "pitch": 85, "duration": 67, "velocity": 119}, {"time": 4596, "pitch": 83, "duration": 6, "velocity": 113}, {"time": 4602, "pitch": 83, "duration": 12, "velocity": 114}, {"time": 4614, "pitch": 85, "duration": 12, "velocity": 104}, {"time": 4626, "pitch": 78, "duration": 48, "velocity": 117}, {"time": 4674, "pitch": 77, "duration": 48, "velocity": 119}, {"time": 4722, "pitch": 66, "duration": 35, "velocity": 116}]}, {"program": 0, "is_drum": false, "name": "PIANO", "notes": [{"time": 114, "pitch": 47, "duration": 83, "velocity": 82}, {"time": 114, "pitch": 59, "duration": 82, "velocity": 84}, {"time": 114, "pitch": 62, "duration": 84, "velocity": 87}, {"time": 114, "pitch": 66, "duration": 86, "velocity": 93}, {"time": 114, "pitch": 71, "duration": 85, "velocity": 89}, {"time": 210, "pitch": 42, "duration": 85, "velocity": 81}, {"time": 210, "pitch": 54, "duration": 86, "velocity": 83}, {"time": 210, "pitch": 61, "duration": 88, "velocity": 87}, {"time": 210, "pitch": 66, "duration": 91, "velocity": 87}, {"time": 210, "pitch": 70, "duration": 92, "velocity": 86}, {"time": 306, "pitch": 47, "duration": 57, "velocity": 77}, {"time": 306, "pitch": 59, "duration": 57, "velocity": 77}, {"time": 306, "pitch": 62, "duration": 85, "velocity": 86}, {"time": 306, "pitch": 66, "duration": 86, "velocity": 88}, {"time": 306, "pitch": 71, "duration": 90, "velocity": 89}, {"time": 402, "pitch": 42, "duration": 29, "velocity": 86}, {"time": 402, "pitch": 54, "duration": 29, "velocity": 87}, {"time": 402, "pitch": 61, "duration": 47, "velocity": 86}, {"time": 402, "pitch": 66, "duration": 48, "velocity": 88}, {"time": 402, "pitch": 70, "duration": 48, "velocity": 85}, {"time": 498, "pitch": 47, "duration": 16, "velocity": 80}, {"time": 498, "pitch": 59, "duration": 26, "velocity": 80}, {"time": 498, "pitch": 62, "duration": 15, "velocity": 80}, {"time": 498, "pitch": 66, "duration": 16, "velocity": 80}, {"time": 498, "pitch": 71, "duration": 16, "velocity": 80}, {"time": 516, "pitch": 47, "duration": 1, "velocity": 80}, {"time": 516, "pitch": 62, "duration": 14, "velocity": 80}, {"time": 516, "pitch": 66, "duration": 15, "velocity": 80}, {"time": 516, "pitch": 71, "duration": 14, "velocity": 80}, {"time": 522, "pitch": 47, "duration": 19, "velocity": 80}, {"time": 528, "pitch": 59, "duration": 15, "velocity": 80}, {"time": 534, "pitch": 62, "duration": 9, "velocity": 80}, {"time": 534, "pitch": 66, "duration": 10, "velocity": 80}, {"time": 534, "pitch": 71, "duration": 9, "velocity": 80}, {"time": 546, "pitch": 47, "duration": 14, "velocity": 80}, {"time": 546, "pitch": 59, "duration": 26, "velocity": 80}, {"time": 546, "pitch": 62, "duration": 15, "velocity": 80}, {"time": 546, "pitch": 66, "duration": 16, "velocity": 80}, {"time": 546, "pitch": 71, "duration": 16, "velocity": 80}, {"time": 564, "pitch": 47, "duration": 1, "velocity": 80}, {"time": 564, "pitch": 62, "duration": 13, "velocity": 80}, {"time": 564, "pitch": 66, "duration": 14, "velocity": 80}, {"time": 564, "pitch": 71, "duration": 13, "velocity": 80}, {"time": 570, "pitch": 47, "duration": 20, "velocity": 80}, {"time": 573, "pitch": 59, "duration": 8, "velocity": 80}, {"time": 582, "pitch": 62, "duration": 3, "velocity": 80}, {"time": 582, "pitch": 66, "duration": 8, "velocity": 80}, {"time": 582, "pitch": 71, "duration": 7, "velocity": 80}, {"time": 594, "pitch": 43, "duration": 14, "velocity": 80}, {"time": 594, "pitch": 55, "duration": 34, "velocity": 80}, {"time": 594, "pitch": 62, "duration": 16, "velocity": 80}, {"time": 594, "pitch": 67, "duration": 16, "velocity": 80}, {"time": 594, "pitch": 71, "duration": 16, "velocity": 80}, {"time": 612, "pitch": 43, "duration": 1, "velocity": 80}, {"time": 612, "pitch": 62, "duration": 21, "velocity": 80}, {"time": 612, "pitch": 67, "duration": 22, "velocity": 80}, {"time": 612, "pitch": 71, "duration": 21, "velocity": 80}, {"time": 618, "pitch": 43, "duration": 20, "velocity": 80}, {"time": 630, "pitch": 55, "duration": 9, "velocity": 80}, {"time": 636, "pitch": 62, "duration": 3, "velocity": 80}, {"time": 636, "pitch": 67, "duration": 4, "velocity": 80}, {"time": 636, "pitch": 71, "duration": 4, "velocity": 80}, {"time": 642, "pitch": 43, "duration": 14, "velocity": 80}, {"time": 642, "pitch": 55, "duration": 25, "velocity": 80}, {"time": 642, "pitch": 62, "duration": 16, "velocity": 80}, {"time": 642, "pitch": 67, "duration": 16, "velocity": 80}, {"time": 642, "pitch": 71, "duration": 16, "velocity": 80}, {"time": 660, "pitch": 43, "duration": 1, "velocity": 80}, {"time": 660, "pitch": 62, "duration": 15, "velocity": 80}, {"time": 660, "pitch": 67, "duration": 16, "velocity": 80}, {"time": 660, "pitch": 71, "duration": 14, "velocity": 80}, {"time": 666, "pitch": 43, "duration": 21, "velocity": 80}, {"time": 672, "pitch": 55, "duration": 9, "velocity": 80}, {"time": 678, "pitch": 62, "duration": 8, "velocity": 80}, {"time": 678, "pitch": 67, "duration": 9, "velocity": 80}, {"time": 678, "pitch": 71, "duration": 7, "velocity": 80}, {"time": 690, "pitch": 42, "duration": 14, "velocity": 80}, {"time": 690, "pitch": 54, "duration": 15, "velocity": 80}, {"time": 690, "pitch": 61, "duration": 16, "velocity": 80}, {"time": 690, "pitch": 66, "duration": 16, "velocity": 80}, {"time": 690, "pitch": 70, "duration": 16, "velocity": 80}, {"time": 708, "pitch": 42, "duration": 1, "velocity": 80}, {"time": 708, "pitch": 54, "duration": 8, "velocity": 80}, {"time": 708, "pitch": 61, "duration": 15, "velocity": 80}, {"time": 708, "pitch": 66, "duration": 15, "velocity": 80}, {"time": 708, "pitch": 70, "duration": 14, "velocity": 80}, {"time": 714, "pitch": 42, "duration": 20, "velocity": 80}, {"time": 720, "pitch": 54, "duration": 7, "velocity": 80}, {"time": 726, "pitch": 61, "duration": 9, "velocity": 80}, {"time": 726, "pitch": 66, "duration": 9, "velocity": 80}, {"time": 726, "pitch": 70, "duration": 8, "velocity": 80}, {"time": 732, "pitch": 54, "duration": 3, "velocity": 80}, {"time": 738, "pitch": 42, "duration": 14, "velocity": 80}, {"time": 738, "pitch": 54, "duration": 20, "velocity": 80}, {"time": 738, "pitch": 61, "duration": 14, "velocity": 80}, {"time": 738, "pitch": 66, "duration": 14, "velocity": 80}, {"time": 738, "pitch": 70, "duration": 13, "velocity": 80}, {"time": 756, "pitch": 42, "duration": 1, "velocity": 80}, {"time": 756, "pitch": 61, "duration": 14, "velocity": 80}, {"time": 756, "pitch": 66, "duration": 14, "velocity": 80}, {"time": 756, "pitch": 70, "duration": 13, "velocity": 80}, {"time": 762, "pitch": 42, "duration": 19, "velocity": 80}, {"time": 768, "pitch": 54, "duration": 7, "velocity": 80}, {"time": 774, "pitch": 61, "duration": 5, "velocity": 80}, {"time": 774, "pitch": 66, "duration": 9, "velocity": 80}, {"time": 774, "pitch": 70, "duration": 7, "velocity": 80}, {"time": 780, "pitch": 54, "duration": 3, "velocity": 80}, {"time": 786, "pitch": 47, "duration": 14, "velocity": 80}, {"time": 786, "pitch": 62, "duration": 15, "velocity": 80}, {"time": 786, "pitch": 66, "duration": 15, "velocity": 80}, {"time": 786, "pitch": 71, "duration": 14, "velocity": 80}, {"time": 798, "pitch": 59, "duration": 9, "velocity": 80}, {"time": 804, "pitch": 47, "duration": 1, "velocity": 80}, {"time": 804, "pitch": 62, "duration": 14, "velocity": 80}, {"time": 804, "pitch": 66, "duration": 14, "velocity": 80}, {"time": 804, "pitch": 71, "duration": 13, "velocity": 80}, {"time": 810, "pitch": 47, "duration": 20, "velocity": 80}, {"time": 816, "pitch": 59, "duration": 7, "velocity": 80}, {"time": 822, "pitch": 62, "duration": 10, "velocity": 80}, {"time": 822, "pitch": 66, "duration": 10, "velocity": 80}, {"time": 822, "pitch": 71, "duration": 8, "velocity": 80}, {"time": 828, "pitch": 59, "duration": 7, "velocity": 80}, {"time": 834, "pitch": 47, "duration": 13, "velocity": 80}, {"time": 834, "pitch": 62, "duration": 14, "velocity": 80}, {"time": 834, "pitch": 66, "duration": 14, "velocity": 80}, {"time": 834, "pitch": 71, "duration": 13, "velocity": 80}, {"time": 846, "pitch": 59, "duration": 11, "velocity": 80}, {"time": 852, "pitch": 47, "duration": 1, "velocity": 80}, {"time": 852, "pitch": 62, "duration": 13, "velocity": 80}, {"time": 852, "pitch": 66, "duration": 13, "velocity": 80}, {"time": 852, "pitch": 71, "duration": 12, "velocity": 80}, {"time": 858, "pitch": 47, "duration": 18, "velocity": 80}, {"time": 864, "pitch": 59, "duration": 7, "velocity": 80}, {"time": 870, "pitch": 62, "duration": 9, "velocity": 80}, {"time": 870, "pitch": 66, "duration": 9, "velocity": 80}, {"time": 870, "pitch": 71, "duration": 7, "velocity": 80}, {"time": 882, "pitch": 47, "duration": 13, "velocity": 80}, {"time": 882, "pitch": 59, "duration": 25, "velocity": 80}, {"time": 882, "pitch": 62, "duration": 14, "velocity": 80}, {"time": 882, "pitch": 66, "duration": 15, "velocity": 80}, {"time": 882, "pitch": 71, "duration": 13, "velocity": 80}, {"time": 900, "pitch": 47, "duration": 1, "velocity": 80}, {"time": 900, "pitch": 62, "duration": 13, "velocity": 80}, {"time": 900, "pitch": 66, "duration": 14, "velocity": 80}, {"time": 900, "pitch": 71, "duration": 12, "velocity": 80}, {"time": 906, "pitch": 47, "duration": 21, "velocity": 80}, {"time": 912, "pitch": 59, "duration": 14, "velocity": 80}, {"time": 918, "pitch": 62, "duration": 6, "velocity": 80}, {"time": 918, "pitch": 66, "duration": 9, "velocity": 80}, {"time": 918, "pitch": 71, "duration": 6, "velocity": 80}, {"time": 930, "pitch": 49, "duration": 13, "velocity": 80}, {"time": 930, "pitch": 61, "duration": 15, "velocity": 80}, {"time": 930, "pitch": 65, "duration": 16, "velocity": 80}, {"time": 930, "pitch": 68, "duration": 15, "velocity": 80}, {"time": 948, "pitch": 49, "duration": 1, "velocity": 80}, {"time": 948, "pitch": 61, "duration": 14, "velocity": 80}, {"time": 948, "pitch": 65, "duration": 16, "velocity": 80}, {"time": 948, "pitch": 68, "duration": 14, "velocity": 80}, {"time": 954, "pitch": 49, "duration": 18, "velocity": 80}, {"time": 966, "pitch": 61, "duration": 6, "velocity": 80}, {"time": 966, "pitch": 65, "duration": 6, "velocity": 80}, {"time": 966, "pitch": 68, "duration": 5, "velocity": 80}, {"time": 978, "pitch": 47, "duration": 14, "velocity": 80}, {"time": 978, "pitch": 59, "duration": 15, "velocity": 80}, {"time": 978, "pitch": 62, "duration": 15, "velocity": 80}, {"time": 978, "pitch": 66, "duration": 9, "velocity": 80}, {"time": 990, "pitch": 54, "duration": 9, "velocity": 82}, {"time": 996, "pitch": 47, "duration": 1, "velocity": 82}, {"time": 996, "pitch": 59, "duration": 20, "velocity": 82}, {"time": 996, "pitch": 62, "duration": 20, "velocity": 82}, {"time": 996, "pitch": 66, "duration": 18, "velocity": 82}, {"time": 1002, "pitch": 47, "duration": 10, "velocity": 82}, {"time": 1014, "pitch": 54, "duration": 12, "velocity": 84}, {"time": 1020, "pitch": 59, "duration": 3, "velocity": 84}, {"time": 1020, "pitch": 62, "duration": 2, "velocity": 84}, {"time": 1020, "pitch": 66, "duration": 2, "velocity": 84}, {"time": 1026, "pitch": 52, "duration": 12, "velocity": 84}, {"time": 1026, "pitch": 59, "duration": 15, "velocity": 84}, {"time": 1026, "pitch": 62, "duration": 14, "velocity": 84}, {"time": 1026, "pitch": 64, "duration": 15, "velocity": 84}, {"time": 1026, "pitch": 67, "duration": 14, "velocity": 84}, {"time": 1044, "pitch": 52, "duration": 1, "velocity": 88}, {"time": 1044, "pitch": 59, "duration": 13, "velocity": 88}, {"time": 1044, "pitch": 62, "duration": 13, "velocity": 88}, {"time": 1044, "pitch": 64, "duration": 13, "velocity": 88}, {"time": 1044, "pitch": 67, "duration": 12, "velocity": 88}, {"time": 1050, "pitch": 52, "duration": 21, "velocity": 88}, {"time": 1062, "pitch": 59, "duration": 8, "velocity": 88}, {"time": 1062, "pitch": 62, "duration": 8, "velocity": 88}, {"time": 1062, "pitch": 64, "duration": 7, "velocity": 88}, {"time": 1062, "pitch": 67, "duration": 7, "velocity": 88}, {"time": 1074, "pitch": 43, "duration": 13, "velocity": 88}, {"time": 1074, "pitch": 55, "duration": 39, "velocity": 88}, {"time": 1074, "pitch": 59, "duration": 14, "velocity": 88}, {"time": 1074, "pitch": 62, "duration": 14, "velocity": 88}, {"time": 1074, "pitch": 67, "duration": 13, "velocity": 88}, {"time": 1091, "pitch": 59, "duration": 24, "velocity": 88}, {"time": 1091, "pitch": 62, "duration": 24, "velocity": 88}, {"time": 1091, "pitch": 67, "duration": 24, "velocity": 88}, {"time": 1092, "pitch": 43, "duration": 1, "velocity": 88}, {"time": 1098, "pitch": 43, "duration": 20, "velocity": 88}, {"time": 1122, "pitch": 42, "duration": 14, "velocity": 88}, {"time": 1122, "pitch": 54, "duration": 45, "velocity": 88}, {"time": 1122, "pitch": 58, "duration": 15, "velocity": 88}, {"time": 1122, "pitch": 61, "duration": 15, "velocity": 88}, {"time": 1122, "pitch": 66, "duration": 14, "velocity": 88}, {"time": 1140, "pitch": 42, "duration": 1, "velocity": 88}, {"time": 1140, "pitch": 58, "duration": 16, "velocity": 88}, {"time": 1140, "pitch": 61, "duration": 16, "velocity": 88}, {"time": 1140, "pitch": 66, "duration": 15, "velocity": 88}, {"time": 1146, "pitch": 42, "duration": 20, "velocity": 88}, {"time": 1158, "pitch": 58, "duration": 4, "velocity": 88}, {"time": 1158, "pitch": 61, "duration": 8, "velocity": 88}, {"time": 1158, "pitch": 66, "duration": 5, "velocity": 88}, {"time": 1170, "pitch": 47, "duration": 12, "velocity": 88}, {"time": 1170, "pitch": 59, "duration": 15, "velocity": 88}, {"time": 1170, "pitch": 62, "duration": 16, "velocity": 88}, {"time": 1170, "pitch": 66, "duration": 14, "velocity": 88}, {"time": 1188, "pitch": 47, "duration": 1, "velocity": 88}, {"time": 1188, "pitch": 59, "duration": 14, "velocity": 88}, {"time": 1188, "pitch": 62, "duration": 14, "velocity": 88}, {"time": 1188, "pitch": 66, "duration": 13, "velocity": 88}, {"time": 1194, "pitch": 47, "duration": 20, "velocity": 88}, {"time": 1200, "pitch": 54, "duration": 8, "velocity": 88}, {"time": 1206, "pitch": 59, "duration": 8, "velocity": 88}, {"time": 1206, "pitch": 62, "duration": 9, "velocity": 88}, {"time": 1206, "pitch": 66, "duration": 6, "velocity": 88}, {"time": 1218, "pitch": 47, "duration": 13, "velocity": 88}, {"time": 1218, "pitch": 59, "duration": 14, "velocity": 88}, {"time": 1218, "pitch": 62, "duration": 14, "velocity": 88}, {"time": 1218, "pitch": 66, "duration": 13, "velocity": 88}, {"time": 1230, "pitch": 54, "duration": 10, "velocity": 88}, {"time": 1236, "pitch": 47, "duration": 1, "velocity": 88}, {"time": 1236, "pitch": 59, "duration": 14, "velocity": 88}, {"time": 1236, "pitch": 62, "duration": 14, "velocity": 88}, {"time": 1236, "pitch": 66, "duration": 13, "velocity": 88}, {"time": 1242, "pitch": 47, "duration": 18, "velocity": 86}, {"time": 1248, "pitch": 54, "duration": 7, "velocity": 84}, {"time": 1254, "pitch": 59, "duration": 4, "velocity": 74}, {"time": 1254, "pitch": 62, "duration": 4, "velocity": 74}, {"time": 1254, "pitch": 66, "duration": 4, "velocity": 74}, {"time": 1266, "pitch": 43, "duration": 6, "velocity": 91}, {"time": 1266, "pitch": 55, "duration": 11, "velocity": 85}, {"time": 1266, "pitch": 59, "duration": 15, "velocity": 85}, {"time": 1266, "pitch": 62, "duration": 14, "velocity": 85}, {"time": 1266, "pitch": 67, "duration": 14, "velocity": 85}, {"time": 1272, "pitch": 55, "duration": 5, "velocity": 85}, {"time": 1278, "pitch": 43, "duration": 6, "velocity": 85}, {"time": 1278, "pitch": 55, "duration": 11, "velocity": 85}, {"time": 1284, "pitch": 55, "duration": 5, "velocity": 85}, {"time": 1284, "pitch": 59, "duration": 14, "velocity": 85}, {"time": 1284, "pitch": 62, "duration": 14, "velocity": 85}, {"time": 1284, "pitch": 67, "duration": 13, "velocity": 85}, {"time": 1290, "pitch": 43, "duration": 7, "velocity": 85}, {"time": 1296, "pitch": 55, "duration": 6, "velocity": 85}, {"time": 1302, "pitch": 43, "duration": 5, "velocity": 85}, {"time": 1302, "pitch": 59, "duration": 6, "velocity": 85}, {"time": 1302, "pitch": 62, "duration": 9, "velocity": 85}, {"time": 1302, "pitch": 67, "duration": 6, "velocity": 85}, {"time": 1308, "pitch": 55, "duration": 5, "velocity": 85}, {"time": 1314, "pitch": 45, "duration": 7, "velocity": 85}, {"time": 1314, "pitch": 57, "duration": 10, "velocity": 85}, {"time": 1314, "pitch": 61, "duration": 13, "velocity": 85}, {"time": 1314, "pitch": 64, "duration": 14, "velocity": 85}, {"time": 1314, "pitch": 69, "duration": 13, "velocity": 85}, {"time": 1320, "pitch": 57, "duration": 4, "velocity": 85}, {"time": 1326, "pitch": 45, "duration": 6, "velocity": 85}, {"time": 1326, "pitch": 57, "duration": 10, "velocity": 85}, {"time": 1332, "pitch": 57, "duration": 4, "velocity": 85}, {"time": 1332, "pitch": 61, "duration": 13, "velocity": 85}, {"time": 1332, "pitch": 64, "duration": 13, "velocity": 85}, {"time": 1332, "pitch": 69, "duration": 12, "velocity": 85}, {"time": 1338, "pitch": 45, "duration": 7, "velocity": 85}, {"time": 1344, "pitch": 57, "duration": 5, "velocity": 85}, {"time": 1350, "pitch": 45, "duration": 6, "velocity": 91}, {"time": 1350, "pitch": 61, "duration": 6, "velocity": 91}, {"time": 1350, "pitch": 64, "duration": 9, "velocity": 91}, {"time": 1350, "pitch": 69, "duration": 7, "velocity": 91}, {"time": 1356, "pitch": 57, "duration": 2, "velocity": 91}, {"time": 1362, "pitch": 38, "duration": 6, "velocity": 91}, {"time": 1362, "pitch": 62, "duration": 15, "velocity": 89}, {"time": 1362, "pitch": 66, "duration": 15, "velocity": 89}, {"time": 1362, "pitch": 69, "duration": 14, "velocity": 89}, {"time": 1368, "pitch": 50, "duration": 6, "velocity": 99}, {"time": 1374, "pitch": 38, "duration": 6, "velocity": 95}, {"time": 1380, "pitch": 50, "duration": 5, "velocity": 95}, {"time": 1380, "pitch": 62, "duration": 24, "velocity": 95}, {"time": 1380, "pitch": 66, "duration": 24, "velocity": 95}, {"time": 1380, "pitch": 69, "duration": 24, "velocity": 95}, {"time": 1386, "pitch": 38, "duration": 7, "velocity": 95}, {"time": 1392, "pitch": 50, "duration": 6, "velocity": 95}, {"time": 1398, "pitch": 38, "duration": 6, "velocity": 95}, {"time": 1398, "pitch": 57, "duration": 4, "velocity": 95}, {"time": 1404, "pitch": 50, "duration": 6, "velocity": 95}, {"time": 1410, "pitch": 38, "duration": 7, "velocity": 95}, {"time": 1410, "pitch": 62, "duration": 14, "velocity": 95}, {"time": 1410, "pitch": 66, "duration": 15, "velocity": 95}, {"time": 1410, "pitch": 69, "duration": 14, "velocity": 95}, {"time": 1416, "pitch": 50, "duration": 5, "velocity": 95}, {"time": 1422, "pitch": 38, "duration": 7, "velocity": 95}, {"time": 1428, "pitch": 50, "duration": 6, "velocity": 95}, {"time": 1428, "pitch": 62, "duration": 14, "velocity": 95}, {"time": 1428, "pitch": 66, "duration": 14, "velocity": 95}, {"time": 1428, "pitch": 69, "duration": 13, "velocity": 95}, {"time": 1434, "pitch": 38, "duration": 6, "velocity": 95}, {"time": 1440, "pitch": 50, "duration": 5, "velocity": 95}, {"time": 1446, "pitch": 38, "duration": 6, "velocity": 95}, {"time": 1446, "pitch": 62, "duration": 8, "velocity": 95}, {"time": 1446, "pitch": 66, "duration": 9, "velocity": 95}, {"time": 1446, "pitch": 69, "duration": 6, "velocity": 95}, {"time": 1452, "pitch": 50, "duration": 4, "velocity": 95}, {"time": 1458, "pitch": 43, "duration": 5, "velocity": 95}, {"time": 1458, "pitch": 62, "duration": 16, "velocity": 95}, {"time": 1458, "pitch": 67, "duration": 16, "velocity": 95}, {"time": 1458, "pitch": 71, "duration": 15, "velocity": 95}, {"time": 1464, "pitch": 55, "duration": 5, "velocity": 95}, {"time": 1470, "pitch": 43, "duration": 6, "velocity": 95}, {"time": 1476, "pitch": 55, "duration": 5, "velocity": 95}, {"time": 1476, "pitch": 62, "duration": 14, "velocity": 95}, {"time": 1476, "pitch": 67, "duration": 15, "velocity": 95}, {"time": 1476, "pitch": 71, "duration": 14, "velocity": 95}, {"time": 1482, "pitch": 43, "duration": 6, "velocity": 95}, {"time": 1488, "pitch": 55, "duration": 7, "velocity": 95}, {"time": 1494, "pitch": 43, "duration": 6, "velocity": 95}, {"time": 1494, "pitch": 62, "duration": 7, "velocity": 95}, {"time": 1494, "pitch": 67, "duration": 6, "velocity": 95}, {"time": 1494, "pitch": 71, "duration": 7, "velocity": 95}, {"time": 1500, "pitch": 55, "duration": 5, "velocity": 95}, {"time": 1506, "pitch": 45, "duration": 6, "velocity": 95}, {"time": 1506, "pitch": 61, "duration": 15, "velocity": 95}, {"time": 1506, "pitch": 64, "duration": 15, "velocity": 95}, {"time": 1506, "pitch": 69, "duration": 14, "velocity": 95}, {"time": 1512, "pitch": 57, "duration": 6, "velocity": 95}, {"time": 1518, "pitch": 45, "duration": 7, "velocity": 95}, {"time": 1524, "pitch": 57, "duration": 6, "velocity": 95}, {"time": 1524, "pitch": 61, "duration": 13, "velocity": 95}, {"time": 1524, "pitch": 64, "duration": 13, "velocity": 95}, {"time": 1524, "pitch": 69, "duration": 13, "velocity": 95}, {"time": 1530, "pitch": 45, "duration": 7, "velocity": 95}, {"time": 1536, "pitch": 57, "duration": 6, "velocity": 95}, {"time": 1542, "pitch": 45, "duration": 7, "velocity": 95}, {"time": 1542, "pitch": 61, "duration": 7, "velocity": 95}, {"time": 1542, "pitch": 64, "duration": 10, "velocity": 95}, {"time": 1542, "pitch": 69, "duration": 7, "velocity": 95}, {"time": 1548, "pitch": 57, "duration": 2, "velocity": 95}, {"time": 1554, "pitch": 38, "duration": 7, "velocity": 95}, {"time": 1554, "pitch": 62, "duration": 14, "velocity": 95}, {"time": 1554, "pitch": 66, "duration": 14, "velocity": 95}, {"time": 1554, "pitch": 69, "duration": 13, "velocity": 95}, {"time": 1560, "pitch": 50, "duration": 4, "velocity": 95}, {"time": 1566, "pitch": 38, "duration": 6, "velocity": 95}, {"time": 1572, "pitch": 50, "duration": 6, "velocity": 95}, {"time": 1572, "pitch": 62, "duration": 13, "velocity": 87}, {"time": 1572, "pitch": 66, "duration": 13, "velocity": 87}, {"time": 1572, "pitch": 69, "duration": 13, "velocity": 87}, {"time": 1578, "pitch": 38, "duration": 6, "velocity": 89}, {"time": 1584, "pitch": 50, "duration": 6, "velocity": 89}, {"time": 1590, "pitch": 38, "duration": 7, "velocity": 89}, {"time": 1590, "pitch": 62, "duration": 6, "velocity": 89}, {"time": 1590, "pitch": 66, "duration": 4, "velocity": 89}, {"time": 1590, "pitch": 69, "duration": 4, "velocity": 89}, {"time": 1596, "pitch": 50, "duration": 4, "velocity": 91}, {"time": 1601, "pitch": 42, "duration": 6, "velocity": 91}, {"time": 1602, "pitch": 58, "duration": 13, "velocity": 91}, {"time": 1602, "pitch": 61, "duration": 13, "velocity": 91}, {"time": 1602, "pitch": 66, "duration": 13, "velocity": 91}, {"time": 1607, "pitch": 54, "duration": 6, "velocity": 91}, {"time": 1613, "pitch": 42, "duration": 7, "velocity": 93}, {"time": 1619, "pitch": 54, "duration": 6, "velocity": 93}, {"time": 1620, "pitch": 58, "duration": 11, "velocity": 93}, {"time": 1620, "pitch": 61, "duration": 11, "velocity": 93}, {"time": 1620, "pitch": 66, "duration": 11, "velocity": 93}, {"time": 1625, "pitch": 42, "duration": 7, "velocity": 95}, {"time": 1631, "pitch": 54, "duration": 6, "velocity": 95}, {"time": 1637, "pitch": 42, "duration": 6, "velocity": 97}, {"time": 1638, "pitch": 58, "duration": 4, "velocity": 97}, {"time": 1638, "pitch": 61, "duration": 5, "velocity": 97}, {"time": 1638, "pitch": 66, "duration": 4, "velocity": 97}, {"time": 1643, "pitch": 54, "duration": 5, "velocity": 97}, {"time": 1648, "pitch": 43, "duration": 7, "velocity": 97}, {"time": 1654, "pitch": 55, "duration": 6, "velocity": 97}, {"time": 1660, "pitch": 43, "duration": 8, "velocity": 99}, {"time": 1667, "pitch": 55, "duration": 6, "velocity": 99}, {"time": 1668, "pitch": 59, "duration": 12, "velocity": 99}, {"time": 1668, "pitch": 62, "duration": 12, "velocity": 99}, {"time": 1668, "pitch": 67, "duration": 12, "velocity": 99}, {"time": 1673, "pitch": 43, "duration": 6, "velocity": 99}, {"time": 1678, "pitch": 55, "duration": 7, "velocity": 99}, {"time": 1684, "pitch": 43, "duration": 7, "velocity": 99}, {"time": 1686, "pitch": 59, "duration": 6, "velocity": 99}, {"time": 1686, "pitch": 62, "duration": 8, "velocity": 99}, {"time": 1686, "pitch": 67, "duration": 7, "velocity": 99}, {"time": 1690, "pitch": 55, "duration": 5, "velocity": 99}, {"time": 1696, "pitch": 45, "duration": 7, "velocity": 99}, {"time": 1698, "pitch": 61, "duration": 15, "velocity": 99}, {"time": 1698, "pitch": 64, "duration": 14, "velocity": 99}, {"time": 1698, "pitch": 69, "duration": 14, "velocity": 99}, {"time": 1702, "pitch": 57, "duration": 7, "velocity": 99}, {"time": 1710, "pitch": 45, "duration": 7, "velocity": 99}, {"time": 1715, "pitch": 57, "duration": 6, "velocity": 99}, {"time": 1716, "pitch": 61, "duration": 12, "velocity": 99}, {"time": 1716, "pitch": 64, "duration": 12, "velocity": 99}, {"time": 1716, "pitch": 69, "duration": 12, "velocity": 99}, {"time": 1722, "pitch": 45, "duration": 7, "velocity": 99}, {"time": 1727, "pitch": 57, "duration": 6, "velocity": 99}, {"time": 1734, "pitch": 45, "duration": 7, "velocity": 99}, {"time": 1734, "pitch": 61, "duration": 7, "velocity": 99}, {"time": 1734, "pitch": 64, "duration": 9, "velocity": 99}, {"time": 1734, "pitch": 69, "duration": 8, "velocity": 99}, {"time": 1739, "pitch": 57, "duration": 5, "velocity": 89}, {"time": 1746, "pitch": 38, "duration": 6, "velocity": 89}, {"time": 1746, "pitch": 62, "duration": 14, "velocity": 89}, {"time": 1746, "pitch": 66, "duration": 13, "velocity": 89}, {"time": 1746, "pitch": 69, "duration": 12, "velocity": 89}, {"time": 1752, "pitch": 50, "duration": 5, "velocity": 89}, {"time": 1758, "pitch": 38, "duration": 6, "velocity": 89}, {"time": 1764, "pitch": 50, "duration": 6, "velocity": 89}, {"time": 1764, "pitch": 62, "duration": 13, "velocity": 89}, {"time": 1764, "pitch": 66, "duration": 13, "velocity": 89}, {"time": 1764, "pitch": 69, "duration": 12, "velocity": 89}, {"time": 1770, "pitch": 38, "duration": 7, "velocity": 89}, {"time": 1776, "pitch": 50, "duration": 5, "velocity": 89}, {"time": 1782, "pitch": 38, "duration": 6, "velocity": 89}, {"time": 1782, "pitch": 62, "duration": 8, "velocity": 89}, {"time": 1782, "pitch": 66, "duration": 8, "velocity": 89}, {"time": 1782, "pitch": 69, "duration": 7, "velocity": 89}, {"time": 1788, "pitch": 50, "duration": 4, "velocity": 89}, {"time": 1794, "pitch": 38, "duration": 6, "velocity": 89}, {"time": 1794, "pitch": 62, "duration": 14, "velocity": 89}, {"time": 1794, "pitch": 66, "duration": 14, "velocity": 89}, {"time": 1794, "pitch": 69, "duration": 13, "velocity": 89}, {"time": 1800, "pitch": 50, "duration": 6, "velocity": 89}, {"time": 1806, "pitch": 38, "duration": 6, "velocity": 89}, {"time": 1812, "pitch": 50, "duration": 6, "velocity": 89}, {"time": 1812, "pitch": 62, "duration": 13, "velocity": 89}, {"time": 1812, "pitch": 66, "duration": 13, "velocity": 89}, {"time": 1812, "pitch": 69, "duration": 12, "velocity": 89}, {"time": 1818, "pitch": 38, "duration": 7, "velocity": 89}, {"time": 1824, "pitch": 50, "duration": 6, "velocity": 89}, {"time": 1830, "pitch": 38, "duration": 6, "velocity": 89}, {"time": 1830, "pitch": 62, "duration": 7, "velocity": 89}, {"time": 1830, "pitch": 66, "duration": 6, "velocity": 89}, {"time": 1830, "pitch": 69, "duration": 6, "velocity": 89}, {"time": 1836, "pitch": 50, "duration": 4, "velocity": 89}, {"time": 1842, "pitch": 43, "duration": 7, "velocity": 89}, {"time": 1842, "pitch": 62, "duration": 14, "velocity": 89}, {"time": 1842, "pitch": 67, "duration": 14, "velocity": 89}, {"time": 1842, "pitch": 71, "duration": 14, "velocity": 89}, {"time": 1848, "pitch": 55, "duration": 4, "velocity": 89}, {"time": 1854, "pitch": 43, "duration": 6, "velocity": 89}, {"time": 1860, "pitch": 55, "duration": 5, "velocity": 89}, {"time": 1860, "pitch": 62, "duration": 12, "velocity": 89}, {"time": 1860, "pitch": 67, "duration": 12, "velocity": 89}, {"time": 1860, "pitch": 71, "duration": 12, "velocity": 89}, {"time": 1866, "pitch": 43, "duration": 6, "velocity": 89}, {"time": 1872, "pitch": 55, "duration": 5, "velocity": 89}, {"time": 1878, "pitch": 43, "duration": 6, "velocity": 89}, {"time": 1878, "pitch": 62, "duration": 7, "velocity": 89}, {"time": 1878, "pitch": 67, "duration": 7, "velocity": 89}, {"time": 1878, "pitch": 71, "duration": 6, "velocity": 89}, {"time": 1884, "pitch": 55, "duration": 5, "velocity": 89}, {"time": 1890, "pitch": 45, "duration": 7, "velocity": 89}, {"time": 1890, "pitch": 61, "duration": 13, "velocity": 89}, {"time": 1890, "pitch": 64, "duration": 13, "velocity": 89}, {"time": 1890, "pitch": 69, "duration": 12, "velocity": 89}, {"time": 1894, "pitch": 57, "duration": 6, "velocity": 89}, {"time": 1902, "pitch": 45, "duration": 7, "velocity": 89}, {"time": 1905, "pitch": 61, "duration": 15, "velocity": 89}, {"time": 1905, "pitch": 64, "duration": 15, "velocity": 89}, {"time": 1905, "pitch": 69, "duration": 15, "velocity": 89}, {"time": 1907, "pitch": 57, "duration": 5, "velocity": 89}, {"time": 1914, "pitch": 45, "duration": 7, "velocity": 89}, {"time": 1918, "pitch": 57, "duration": 6, "velocity": 89}, {"time": 1926, "pitch": 45, "duration": 7, "velocity": 89}, {"time": 1926, "pitch": 61, "duration": 3, "velocity": 89}, {"time": 1926, "pitch": 64, "duration": 2, "velocity": 89}, {"time": 1926, "pitch": 69, "duration": 2, "velocity": 89}, {"time": 1930, "pitch": 57, "duration": 6, "velocity": 89}, {"time": 1938, "pitch": 42, "duration": 7, "velocity": 89}, {"time": 1938, "pitch": 58, "duration": 15, "velocity": 89}, {"time": 1938, "pitch": 61, "duration": 15, "velocity": 89}, {"time": 1938, "pitch": 66, "duration": 15, "velocity": 89}, {"time": 1944, "pitch": 54, "duration": 5, "velocity": 89}, {"time": 1950, "pitch": 42, "duration": 7, "velocity": 89}, {"time": 1956, "pitch": 54, "duration": 6, "velocity": 89}, {"time": 1956, "pitch": 58, "duration": 12, "velocity": 89}, {"time": 1956, "pitch": 61, "duration": 11, "velocity": 89}, {"time": 1956, "pitch": 66, "duration": 11, "velocity": 89}, {"time": 1962, "pitch": 42, "duration": 7, "velocity": 89}, {"time": 1968, "pitch": 54, "duration": 6, "velocity": 89}, {"time": 1974, "pitch": 42, "duration": 7, "velocity": 89}, {"time": 1974, "pitch": 58, "duration": 6, "velocity": 89}, {"time": 1974, "pitch": 61, "duration": 7, "velocity": 89}, {"time": 1974, "pitch": 66, "duration": 5, "velocity": 89}, {"time": 1980, "pitch": 54, "duration": 5, "velocity": 89}, {"time": 1986, "pitch": 42, "duration": 7, "velocity": 89}, {"time": 1986, "pitch": 58, "duration": 15, "velocity": 89}, {"time": 1986, "pitch": 61, "duration": 15, "velocity": 89}, {"time": 1986, "pitch": 66, "duration": 15, "velocity": 89}, {"time": 1992, "pitch": 54, "duration": 6, "velocity": 89}, {"time": 1998, "pitch": 42, "duration": 7, "velocity": 89}, {"time": 2004, "pitch": 54, "duration": 6, "velocity": 89}, {"time": 2010, "pitch": 42, "duration": 7, "velocity": 89}, {"time": 2010, "pitch": 58, "duration": 13, "velocity": 89}, {"time": 2010, "pitch": 61, "duration": 13, "velocity": 89}, {"time": 2010, "pitch": 66, "duration": 11, "velocity": 89}, {"time": 2016, "pitch": 54, "duration": 6, "velocity": 89}, {"time": 2022, "pitch": 42, "duration": 6, "velocity": 89}, {"time": 2022, "pitch": 58, "duration": 1, "velocity": 89}, {"time": 2022, "pitch": 61, "duration": 1, "velocity": 89}, {"time": 2022, "pitch": 66, "duration": 5, "velocity": 89}, {"time": 2028, "pitch": 54, "duration": 3, "velocity": 89}, {"time": 2034, "pitch": 47, "duration": 16, "velocity": 89}, {"time": 2034, "pitch": 62, "duration": 15, "velocity": 89}, {"time": 2034, "pitch": 66, "duration": 16, "velocity": 89}, {"time": 2034, "pitch": 71, "duration": 16, "velocity": 89}, {"time": 2052, "pitch": 47, "duration": 1, "velocity": 89}, {"time": 2052, "pitch": 62, "duration": 14, "velocity": 89}, {"time": 2052, "pitch": 66, "duration": 15, "velocity": 89}, {"time": 2052, "pitch": 71, "duration": 14, "velocity": 89}, {"time": 2058, "pitch": 47, "duration": 20, "velocity": 89}, {"time": 2070, "pitch": 62, "duration": 9, "velocity": 89}, {"time": 2070, "pitch": 66, "duration": 10, "velocity": 89}, {"time": 2070, "pitch": 71, "duration": 9, "velocity": 89}, {"time": 2082, "pitch": 47, "duration": 14, "velocity": 89}, {"time": 2082, "pitch": 62, "duration": 15, "velocity": 89}, {"time": 2082, "pitch": 66, "duration": 16, "velocity": 89}, {"time": 2082, "pitch": 71, "duration": 16, "velocity": 89}, {"time": 2100, "pitch": 47, "duration": 2, "velocity": 89}, {"time": 2100, "pitch": 62, "duration": 13, "velocity": 89}, {"time": 2100, "pitch": 66, "duration": 14, "velocity": 89}, {"time": 2100, "pitch": 71, "duration": 13, "velocity": 89}, {"time": 2106, "pitch": 47, "duration": 20, "velocity": 89}, {"time": 2118, "pitch": 62, "duration": 3, "velocity": 89}, {"time": 2118, "pitch": 66, "duration": 8, "velocity": 89}, {"time": 2118, "pitch": 71, "duration": 7, "velocity": 89}, {"time": 2130, "pitch": 43, "duration": 14, "velocity": 89}, {"time": 2130, "pitch": 62, "duration": 16, "velocity": 89}, {"time": 2130, "pitch": 67, "duration": 16, "velocity": 89}, {"time": 2130, "pitch": 71, "duration": 16, "velocity": 89}, {"time": 2148, "pitch": 43, "duration": 1, "velocity": 89}, {"time": 2148, "pitch": 62, "duration": 21, "velocity": 89}, {"time": 2148, "pitch": 67, "duration": 22, "velocity": 89}, {"time": 2148, "pitch": 71, "duration": 21, "velocity": 89}, {"time": 2154, "pitch": 43, "duration": 19, "velocity": 89}, {"time": 2172, "pitch": 62, "duration": 3, "velocity": 89}, {"time": 2172, "pitch": 67, "duration": 4, "velocity": 89}, {"time": 2172, "pitch": 71, "duration": 4, "velocity": 89}, {"time": 2178, "pitch": 43, "duration": 15, "velocity": 89}, {"time": 2178, "pitch": 62, "duration": 16, "velocity": 89}, {"time": 2178, "pitch": 67, "duration": 16, "velocity": 89}, {"time": 2178, "pitch": 71, "duration": 16, "velocity": 89}, {"time": 2196, "pitch": 43, "duration": 1, "velocity": 89}, {"time": 2196, "pitch": 62, "duration": 15, "velocity": 89}, {"time": 2196, "pitch": 67, "duration": 16, "velocity": 89}, {"time": 2196, "pitch": 71, "duration": 14, "velocity": 89}, {"time": 2202, "pitch": 43, "duration": 21, "velocity": 89}, {"time": 2214, "pitch": 62, "duration": 8, "velocity": 89}, {"time": 2214, "pitch": 67, "duration": 9, "velocity": 89}, {"time": 2214, "pitch": 71, "duration": 7, "velocity": 89}, {"time": 2226, "pitch": 42, "duration": 14, "velocity": 89}, {"time": 2226, "pitch": 61, "duration": 16, "velocity": 89}, {"time": 2226, "pitch": 66, "duration": 16, "velocity": 89}, {"time": 2226, "pitch": 70, "duration": 16, "velocity": 89}, {"time": 2244, "pitch": 42, "duration": 1, "velocity": 89}, {"time": 2244, "pitch": 61, "duration": 15, "velocity": 89}, {"time": 2244, "pitch": 66, "duration": 15, "velocity": 89}, {"time": 2244, "pitch": 70, "duration": 14, "velocity": 89}, {"time": 2250, "pitch": 42, "duration": 20, "velocity": 89}, {"time": 2262, "pitch": 61, "duration": 9, "velocity": 89}, {"time": 2262, "pitch": 66, "duration": 9, "velocity": 89}, {"time": 2262, "pitch": 70, "duration": 8, "velocity": 89}, {"time": 2274, "pitch": 42, "duration": 12, "velocity": 89}, {"time": 2274, "pitch": 61, "duration": 14, "velocity": 89}, {"time": 2274, "pitch": 66, "duration": 14, "velocity": 89}, {"time": 2274, "pitch": 70, "duration": 13, "velocity": 89}, {"time": 2292, "pitch": 42, "duration": 1, "velocity": 89}, {"time": 2292, "pitch": 61, "duration": 14, "velocity": 89}, {"time": 2292, "pitch": 66, "duration": 14, "velocity": 89}, {"time": 2292, "pitch": 70, "duration": 13, "velocity": 89}, {"time": 2298, "pitch": 42, "duration": 20, "velocity": 89}, {"time": 2310, "pitch": 61, "duration": 5, "velocity": 89}, {"time": 2310, "pitch": 66, "duration": 9, "velocity": 89}, {"time": 2310, "pitch": 70, "duration": 7, "velocity": 89}, {"time": 2322, "pitch": 47, "duration": 13, "velocity": 91}, {"time": 2322, "pitch": 62, "duration": 15, "velocity": 91}, {"time": 2322, "pitch": 66, "duration": 15, "velocity": 91}, {"time": 2322, "pitch": 71, "duration": 14, "velocity": 91}, {"time": 2334, "pitch": 59, "duration": 9, "velocity": 91}, {"time": 2340, "pitch": 47, "duration": 1, "velocity": 91}, {"time": 2340, "pitch": 62, "duration": 14, "velocity": 91}, {"time": 2340, "pitch": 66, "duration": 14, "velocity": 91}, {"time": 2340, "pitch": 71, "duration": 13, "velocity": 91}, {"time": 2346, "pitch": 47, "duration": 19, "velocity": 91}, {"time": 2352, "pitch": 59, "duration": 7, "velocity": 91}, {"time": 2358, "pitch": 62, "duration": 10, "velocity": 91}, {"time": 2358, "pitch": 66, "duration": 10, "velocity": 91}, {"time": 2358, "pitch": 71, "duration": 8, "velocity": 91}, {"time": 2364, "pitch": 59, "duration": 7, "velocity": 91}, {"time": 2370, "pitch": 47, "duration": 14, "velocity": 91}, {"time": 2370, "pitch": 62, "duration": 14, "velocity": 91}, {"time": 2370, "pitch": 66, "duration": 14, "velocity": 91}, {"time": 2370, "pitch": 71, "duration": 13, "velocity": 91}, {"time": 2382, "pitch": 59, "duration": 11, "velocity": 91}, {"time": 2388, "pitch": 47, "duration": 1, "velocity": 91}, {"time": 2388, "pitch": 62, "duration": 13, "velocity": 91}, {"time": 2388, "pitch": 66, "duration": 13, "velocity": 91}, {"time": 2388, "pitch": 71, "duration": 12, "velocity": 91}, {"time": 2394, "pitch": 47, "duration": 16, "velocity": 91}, {"time": 2400, "pitch": 59, "duration": 7, "velocity": 91}, {"time": 2406, "pitch": 62, "duration": 9, "velocity": 91}, {"time": 2406, "pitch": 66, "duration": 9, "velocity": 91}, {"time": 2406, "pitch": 71, "duration": 7, "velocity": 91}, {"time": 2418, "pitch": 47, "duration": 13, "velocity": 91}, {"time": 2418, "pitch": 59, "duration": 25, "velocity": 91}, {"time": 2418, "pitch": 62, "duration": 14, "velocity": 91}, {"time": 2418, "pitch": 66, "duration": 15, "velocity": 91}, {"time": 2418, "pitch": 71, "duration": 13, "velocity": 91}, {"time": 2436, "pitch": 47, "duration": 1, "velocity": 91}, {"time": 2436, "pitch": 62, "duration": 13, "velocity": 91}, {"time": 2436, "pitch": 66, "duration": 14, "velocity": 91}, {"time": 2436, "pitch": 71, "duration": 12, "velocity": 91}, {"time": 2442, "pitch": 47, "duration": 21, "velocity": 91}, {"time": 2448, "pitch": 59, "duration": 14, "velocity": 91}, {"time": 2454, "pitch": 62, "duration": 6, "velocity": 91}, {"time": 2454, "pitch": 66, "duration": 9, "velocity": 91}, {"time": 2454, "pitch": 71, "duration": 6, "velocity": 91}, {"time": 2466, "pitch": 49, "duration": 13, "velocity": 91}, {"time": 2466, "pitch": 61, "duration": 15, "velocity": 91}, {"time": 2466, "pitch": 65, "duration": 16, "velocity": 91}, {"time": 2466, "pitch": 68, "duration": 15, "velocity": 91}, {"time": 2484, "pitch": 49, "duration": 1, "velocity": 91}, {"time": 2484, "pitch": 61, "duration": 14, "velocity": 91}, {"time": 2484, "pitch": 65, "duration": 16, "velocity": 91}, {"time": 2484, "pitch": 68, "duration": 14, "velocity": 91}, {"time": 2490, "pitch": 49, "duration": 19, "velocity": 91}, {"time": 2502, "pitch": 61, "duration": 6, "velocity": 91}, {"time": 2502, "pitch": 65, "duration": 6, "velocity": 91}, {"time": 2502, "pitch": 68, "duration": 5, "velocity": 91}, {"time": 2514, "pitch": 47, "duration": 14, "velocity": 91}, {"time": 2514, "pitch": 59, "duration": 15, "velocity": 91}, {"time": 2514, "pitch": 62, "duration": 15, "velocity": 91}, {"time": 2514, "pitch": 66, "duration": 9, "velocity": 91}, {"time": 2526, "pitch": 54, "duration": 9, "velocity": 91}, {"time": 2532, "pitch": 47, "duration": 1, "velocity": 91}, {"time": 2532, "pitch": 59, "duration": 20, "velocity": 91}, {"time": 2532, "pitch": 62, "duration": 20, "velocity": 91}, {"time": 2532, "pitch": 66, "duration": 18, "velocity": 91}, {"time": 2538, "pitch": 47, "duration": 19, "velocity": 91}, {"time": 2550, "pitch": 54, "duration": 12, "velocity": 91}, {"time": 2556, "pitch": 59, "duration": 3, "velocity": 91}, {"time": 2556, "pitch": 62, "duration": 2, "velocity": 91}, {"time": 2556, "pitch": 66, "duration": 2, "velocity": 91}, {"time": 2562, "pitch": 40, "duration": 13, "velocity": 91}, {"time": 2562, "pitch": 52, "duration": 10, "velocity": 91}, {"time": 2562, "pitch": 59, "duration": 15, "velocity": 91}, {"time": 2562, "pitch": 62, "duration": 14, "velocity": 91}, {"time": 2562, "pitch": 64, "duration": 15, "velocity": 91}, {"time": 2562, "pitch": 67, "duration": 14, "velocity": 91}, {"time": 2574, "pitch": 40, "duration": 1, "velocity": 91}, {"time": 2574, "pitch": 52, "duration": 10, "velocity": 91}, {"time": 2580, "pitch": 40, "duration": 1, "velocity": 91}, {"time": 2580, "pitch": 59, "duration": 13, "velocity": 91}, {"time": 2580, "pitch": 62, "duration": 13, "velocity": 91}, {"time": 2580, "pitch": 64, "duration": 13, "velocity": 91}, {"time": 2580, "pitch": 67, "duration": 12, "velocity": 91}, {"time": 2586, "pitch": 40, "duration": 19, "velocity": 91}, {"time": 2592, "pitch": 52, "duration": 9, "velocity": 91}, {"time": 2598, "pitch": 59, "duration": 8, "velocity": 91}, {"time": 2598, "pitch": 62, "duration": 8, "velocity": 91}, {"time": 2598, "pitch": 64, "duration": 7, "velocity": 91}, {"time": 2598, "pitch": 67, "duration": 7, "velocity": 91}, {"time": 2604, "pitch": 40, "duration": 1, "velocity": 91}, {"time": 2610, "pitch": 43, "duration": 14, "velocity": 91}, {"time": 2610, "pitch": 55, "duration": 39, "velocity": 91}, {"time": 2610, "pitch": 59, "duration": 14, "velocity": 91}, {"time": 2610, "pitch": 62, "duration": 14, "velocity": 91}, {"time": 2610, "pitch": 67, "duration": 13, "velocity": 91}, {"time": 2628, "pitch": 43, "duration": 1, "velocity": 91}, {"time": 2628, "pitch": 59, "duration": 21, "velocity": 91}, {"time": 2628, "pitch": 62, "duration": 21, "velocity": 91}, {"time": 2628, "pitch": 67, "duration": 21, "velocity": 91}, {"time": 2634, "pitch": 43, "duration": 20, "velocity": 91}, {"time": 2658, "pitch": 42, "duration": 14, "velocity": 91}, {"time": 2658, "pitch": 54, "duration": 45, "velocity": 91}, {"time": 2658, "pitch": 58, "duration": 15, "velocity": 91}, {"time": 2658, "pitch": 61, "duration": 15, "velocity": 91}, {"time": 2658, "pitch": 66, "duration": 14, "velocity": 91}, {"time": 2676, "pitch": 42, "duration": 1, "velocity": 91}, {"time": 2676, "pitch": 58, "duration": 16, "velocity": 91}, {"time": 2676, "pitch": 61, "duration": 16, "velocity": 91}, {"time": 2676, "pitch": 66, "duration": 15, "velocity": 91}, {"time": 2682, "pitch": 42, "duration": 20, "velocity": 91}, {"time": 2694, "pitch": 58, "duration": 4, "velocity": 91}, {"time": 2694, "pitch": 61, "duration": 8, "velocity": 91}, {"time": 2694, "pitch": 66, "duration": 5, "velocity": 91}, {"time": 2706, "pitch": 47, "duration": 12, "velocity": 91}, {"time": 2706, "pitch": 59, "duration": 11, "velocity": 91}, {"time": 2706, "pitch": 66, "duration": 15, "velocity": 91}, {"time": 2706, "pitch": 71, "duration": 15, "velocity": 91}, {"time": 2706, "pitch": 74, "duration": 15, "velocity": 91}, {"time": 2718, "pitch": 59, "duration": 33, "velocity": 91}, {"time": 2724, "pitch": 47, "duration": 2, "velocity": 91}, {"time": 2724, "pitch": 66, "duration": 14, "velocity": 91}, {"time": 2724, "pitch": 71, "duration": 15, "velocity": 91}, {"time": 2724, "pitch": 74, "duration": 14, "velocity": 91}, {"time": 2730, "pitch": 47, "duration": 18, "velocity": 91}, {"time": 2742, "pitch": 66, "duration": 9, "velocity": 91}, {"time": 2742, "pitch": 71, "duration": 10, "velocity": 91}, {"time": 2742, "pitch": 74, "duration": 9, "velocity": 91}, {"time": 2754, "pitch": 47, "duration": 14, "velocity": 91}, {"time": 2754, "pitch": 59, "duration": 9, "velocity": 91}, {"time": 2754, "pitch": 66, "duration": 15, "velocity": 91}, {"time": 2754, "pitch": 71, "duration": 16, "velocity": 91}, {"time": 2754, "pitch": 74, "duration": 15, "velocity": 91}, {"time": 2766, "pitch": 59, "duration": 13, "velocity": 91}, {"time": 2772, "pitch": 47, "duration": 1, "velocity": 91}, {"time": 2772, "pitch": 66, "duration": 13, "velocity": 91}, {"time": 2772, "pitch": 71, "duration": 14, "velocity": 91}, {"time": 2772, "pitch": 74, "duration": 13, "velocity": 91}, {"time": 2778, "pitch": 47, "duration": 17, "velocity": 91}, {"time": 2784, "pitch": 59, "duration": 15, "velocity": 91}, {"time": 2790, "pitch": 66, "duration": 8, "velocity": 91}, {"time": 2790, "pitch": 71, "duration": 9, "velocity": 91}, {"time": 2790, "pitch": 74, "duration": 8, "velocity": 91}, {"time": 2802, "pitch": 43, "duration": 6, "velocity": 95}, {"time": 2802, "pitch": 67, "duration": 16, "velocity": 93}, {"time": 2802, "pitch": 71, "duration": 16, "velocity": 93}, {"time": 2802, "pitch": 74, "duration": 16, "velocity": 93}, {"time": 2808, "pitch": 55, "duration": 7, "velocity": 93}, {"time": 2814, "pitch": 43, "duration": 7, "velocity": 93}, {"time": 2820, "pitch": 55, "duration": 6, "velocity": 93}, {"time": 2820, "pitch": 67, "duration": 15, "velocity": 93}, {"time": 2820, "pitch": 71, "duration": 15, "velocity": 93}, {"time": 2820, "pitch": 74, "duration": 14, "velocity": 93}, {"time": 2826, "pitch": 43, "duration": 6, "velocity": 93}, {"time": 2832, "pitch": 55, "duration": 7, "velocity": 93}, {"time": 2838, "pitch": 43, "duration": 6, "velocity": 93}, {"time": 2838, "pitch": 67, "duration": 9, "velocity": 93}, {"time": 2838, "pitch": 71, "duration": 10, "velocity": 93}, {"time": 2838, "pitch": 74, "duration": 8, "velocity": 93}, {"time": 2844, "pitch": 55, "duration": 8, "velocity": 93}, {"time": 2850, "pitch": 43, "duration": 6, "velocity": 93}, {"time": 2850, "pitch": 67, "duration": 16, "velocity": 93}, {"time": 2850, "pitch": 71, "duration": 16, "velocity": 93}, {"time": 2850, "pitch": 74, "duration": 16, "velocity": 93}, {"time": 2856, "pitch": 55, "duration": 7, "velocity": 93}, {"time": 2862, "pitch": 43, "duration": 6, "velocity": 93}, {"time": 2868, "pitch": 55, "duration": 7, "velocity": 93}, {"time": 2868, "pitch": 71, "duration": 13, "velocity": 93}, {"time": 2868, "pitch": 74, "duration": 13, "velocity": 93}, {"time": 2871, "pitch": 67, "duration": 12, "velocity": 93}, {"time": 2874, "pitch": 43, "duration": 7, "velocity": 93}, {"time": 2880, "pitch": 55, "duration": 7, "velocity": 93}, {"time": 2886, "pitch": 43, "duration": 5, "velocity": 93}, {"time": 2886, "pitch": 67, "duration": 7, "velocity": 93}, {"time": 2886, "pitch": 71, "duration": 10, "velocity": 93}, {"time": 2886, "pitch": 74, "duration": 9, "velocity": 93}, {"time": 2892, "pitch": 55, "duration": 5, "velocity": 93}, {"time": 2898, "pitch": 42, "duration": 6, "velocity": 93}, {"time": 2898, "pitch": 61, "duration": 15, "velocity": 93}, {"time": 2898, "pitch": 66, "duration": 15, "velocity": 93}, {"time": 2898, "pitch": 70, "duration": 15, "velocity": 93}, {"time": 2904, "pitch": 54, "duration": 7, "velocity": 93}, {"time": 2910, "pitch": 42, "duration": 7, "velocity": 93}, {"time": 2916, "pitch": 54, "duration": 6, "velocity": 93}, {"time": 2916, "pitch": 61, "duration": 14, "velocity": 93}, {"time": 2916, "pitch": 66, "duration": 14, "velocity": 93}, {"time": 2916, "pitch": 70, "duration": 12, "velocity": 93}, {"time": 2922, "pitch": 42, "duration": 6, "velocity": 93}, {"time": 2928, "pitch": 54, "duration": 6, "velocity": 93}, {"time": 2934, "pitch": 42, "duration": 6, "velocity": 93}, {"time": 2934, "pitch": 61, "duration": 8, "velocity": 93}, {"time": 2934, "pitch": 66, "duration": 9, "velocity": 93}, {"time": 2934, "pitch": 70, "duration": 8, "velocity": 93}, {"time": 2940, "pitch": 54, "duration": 6, "velocity": 93}, {"time": 2946, "pitch": 42, "duration": 6, "velocity": 93}, {"time": 2946, "pitch": 61, "duration": 14, "velocity": 93}, {"time": 2946, "pitch": 66, "duration": 14, "velocity": 93}, {"time": 2946, "pitch": 70, "duration": 14, "velocity": 93}, {"time": 2952, "pitch": 54, "duration": 7, "velocity": 93}, {"time": 2958, "pitch": 42, "duration": 7, "velocity": 93}, {"time": 2964, "pitch": 54, "duration": 6, "velocity": 93}, {"time": 2964, "pitch": 61, "duration": 14, "velocity": 93}, {"time": 2964, "pitch": 66, "duration": 14, "velocity": 93}, {"time": 2964, "pitch": 70, "duration": 13, "velocity": 93}, {"time": 2970, "pitch": 42, "duration": 6, "velocity": 93}, {"time": 2976, "pitch": 54, "duration": 7, "velocity": 93}, {"time": 2982, "pitch": 42, "duration": 7, "velocity": 93}, {"time": 2982, "pitch": 61, "duration": 4, "velocity": 93}, {"time": 2982, "pitch": 66, "duration": 9, "velocity": 93}, {"time": 2982, "pitch": 70, "duration": 6, "velocity": 93}, {"time": 2988, "pitch": 54, "duration": 4, "velocity": 93}, {"time": 2994, "pitch": 47, "duration": 6, "velocity": 93}, {"time": 2994, "pitch": 62, "duration": 15, "velocity": 93}, {"time": 2994, "pitch": 66, "duration": 15, "velocity": 93}, {"time": 2994, "pitch": 71, "duration": 14, "velocity": 93}, {"time": 3000, "pitch": 59, "duration": 6, "velocity": 93}, {"time": 3006, "pitch": 47, "duration": 7, "velocity": 93}, {"time": 3012, "pitch": 59, "duration": 6, "velocity": 93}, {"time": 3012, "pitch": 62, "duration": 15, "velocity": 93}, {"time": 3012, "pitch": 66, "duration": 16, "velocity": 93}, {"time": 3012, "pitch": 71, "duration": 15, "velocity": 93}, {"time": 3018, "pitch": 47, "duration": 6, "velocity": 93}, {"time": 3024, "pitch": 59, "duration": 6, "velocity": 93}, {"time": 3030, "pitch": 47, "duration": 6, "velocity": 93}, {"time": 3030, "pitch": 62, "duration": 6, "velocity": 93}, {"time": 3030, "pitch": 66, "duration": 4, "velocity": 93}, {"time": 3030, "pitch": 71, "duration": 4, "velocity": 93}, {"time": 3036, "pitch": 59, "duration": 5, "velocity": 93}, {"time": 3042, "pitch": 45, "duration": 7, "velocity": 93}, {"time": 3042, "pitch": 61, "duration": 15, "velocity": 93}, {"time": 3042, "pitch": 64, "duration": 15, "velocity": 93}, {"time": 3042, "pitch": 69, "duration": 14, "velocity": 93}, {"time": 3048, "pitch": 57, "duration": 5, "velocity": 93}, {"time": 3054, "pitch": 45, "duration": 7, "velocity": 93}, {"time": 3060, "pitch": 57, "duration": 6, "velocity": 93}, {"time": 3060, "pitch": 61, "duration": 15, "velocity": 93}, {"time": 3060, "pitch": 64, "duration": 15, "velocity": 93}, {"time": 3060, "pitch": 69, "duration": 14, "velocity": 93}, {"time": 3066, "pitch": 45, "duration": 6, "velocity": 93}, {"time": 3072, "pitch": 57, "duration": 6, "velocity": 93}, {"time": 3078, "pitch": 45, "duration": 7, "velocity": 93}, {"time": 3078, "pitch": 61, "duration": 7, "velocity": 93}, {"time": 3078, "pitch": 64, "duration": 10, "velocity": 93}, {"time": 3078, "pitch": 69, "duration": 8, "velocity": 93}, {"time": 3084, "pitch": 57, "duration": 2, "velocity": 93}, {"time": 3090, "pitch": 38, "duration": 6, "velocity": 93}, {"time": 3090, "pitch": 62, "duration": 16, "velocity": 93}, {"time": 3090, "pitch": 66, "duration": 15, "velocity": 93}, {"time": 3090, "pitch": 69, "duration": 16, "velocity": 93}, {"time": 3096, "pitch": 50, "duration": 5, "velocity": 93}, {"time": 3102, "pitch": 38, "duration": 7, "velocity": 93}, {"time": 3108, "pitch": 50, "duration": 6, "velocity": 93}, {"time": 3108, "pitch": 62, "duration": 13, "velocity": 93}, {"time": 3108, "pitch": 66, "duration": 14, "velocity": 93}, {"time": 3108, "pitch": 69, "duration": 13, "velocity": 93}, {"time": 3114, "pitch": 38, "duration": 6, "velocity": 93}, {"time": 3120, "pitch": 50, "duration": 6, "velocity": 93}, {"time": 3126, "pitch": 38, "duration": 7, "velocity": 93}, {"time": 3126, "pitch": 50, "duration": 1, "velocity": 93}, {"time": 3126, "pitch": 62, "duration": 10, "velocity": 93}, {"time": 3126, "pitch": 66, "duration": 10, "velocity": 93}, {"time": 3126, "pitch": 69, "duration": 10, "velocity": 93}, {"time": 3132, "pitch": 50, "duration": 5, "velocity": 93}, {"time": 3138, "pitch": 38, "duration": 6, "velocity": 93}, {"time": 3138, "pitch": 50, "duration": 1, "velocity": 93}, {"time": 3138, "pitch": 62, "duration": 14, "velocity": 93}, {"time": 3138, "pitch": 66, "duration": 15, "velocity": 93}, {"time": 3138, "pitch": 69, "duration": 14, "velocity": 93}, {"time": 3144, "pitch": 50, "duration": 5, "velocity": 93}, {"time": 3150, "pitch": 38, "duration": 7, "velocity": 93}, {"time": 3156, "pitch": 50, "duration": 6, "velocity": 93}, {"time": 3156, "pitch": 62, "duration": 13, "velocity": 93}, {"time": 3156, "pitch": 66, "duration": 14, "velocity": 93}, {"time": 3156, "pitch": 69, "duration": 13, "velocity": 93}, {"time": 3162, "pitch": 38, "duration": 6, "velocity": 93}, {"time": 3168, "pitch": 50, "duration": 5, "velocity": 93}, {"time": 3174, "pitch": 38, "duration": 6, "velocity": 93}, {"time": 3174, "pitch": 62, "duration": 10, "velocity": 93}, {"time": 3174, "pitch": 66, "duration": 11, "velocity": 93}, {"time": 3174, "pitch": 69, "duration": 10, "velocity": 93}, {"time": 3180, "pitch": 50, "duration": 3, "velocity": 93}, {"time": 3186, "pitch": 43, "duration": 43, "velocity": 93}, {"time": 3186, "pitch": 55, "duration": 10, "velocity": 93}, {"time": 3186, "pitch": 62, "duration": 14, "velocity": 93}, {"time": 3186, "pitch": 67, "duration": 15, "velocity": 93}, {"time": 3186, "pitch": 71, "duration": 14, "velocity": 93}, {"time": 3198, "pitch": 55, "duration": 12, "velocity": 93}, {"time": 3204, "pitch": 62, "duration": 14, "velocity": 93}, {"time": 3204, "pitch": 67, "duration": 14, "velocity": 93}, {"time": 3204, "pitch": 71, "duration": 13, "velocity": 93}, {"time": 3216, "pitch": 55, "duration": 9, "velocity": 91}, {"time": 3222, "pitch": 62, "duration": 7, "velocity": 91}, {"time": 3222, "pitch": 67, "duration": 8, "velocity": 91}, {"time": 3222, "pitch": 71, "duration": 7, "velocity": 91}, {"time": 3228, "pitch": 55, "duration": 5, "velocity": 91}, {"time": 3234, "pitch": 45, "duration": 42, "velocity": 91}, {"time": 3234, "pitch": 61, "duration": 14, "velocity": 91}, {"time": 3234, "pitch": 64, "duration": 14, "velocity": 91}, {"time": 3234, "pitch": 69, "duration": 13, "velocity": 91}, {"time": 3246, "pitch": 57, "duration": 11, "velocity": 91}, {"time": 3252, "pitch": 61, "duration": 14, "velocity": 91}, {"time": 3252, "pitch": 64, "duration": 14, "velocity": 91}, {"time": 3252, "pitch": 69, "duration": 14, "velocity": 91}, {"time": 3264, "pitch": 57, "duration": 14, "velocity": 91}, {"time": 3270, "pitch": 61, "duration": 7, "velocity": 91}, {"time": 3270, "pitch": 64, "duration": 8, "velocity": 91}, {"time": 3270, "pitch": 69, "duration": 7, "velocity": 91}, {"time": 3282, "pitch": 50, "duration": 42, "velocity": 91}, {"time": 3282, "pitch": 62, "duration": 14, "velocity": 91}, {"time": 3282, "pitch": 66, "duration": 14, "velocity": 91}, {"time": 3282, "pitch": 69, "duration": 13, "velocity": 91}, {"time": 3294, "pitch": 57, "duration": 10, "velocity": 91}, {"time": 3300, "pitch": 62, "duration": 14, "velocity": 91}, {"time": 3300, "pitch": 66, "duration": 14, "velocity": 91}, {"time": 3300, "pitch": 69, "duration": 14, "velocity": 91}, {"time": 3312, "pitch": 57, "duration": 12, "velocity": 91}, {"time": 3318, "pitch": 62, "duration": 8, "velocity": 91}, {"time": 3318, "pitch": 66, "duration": 8, "velocity": 91}, {"time": 3318, "pitch": 69, "duration": 8, "velocity": 91}, {"time": 3330, "pitch": 47, "duration": 39, "velocity": 91}, {"time": 3330, "pitch": 62, "duration": 14, "velocity": 91}, {"time": 3330, "pitch": 66, "duration": 14, "velocity": 91}, {"time": 3330, "pitch": 71, "duration": 13, "velocity": 91}, {"time": 3336, "pitch": 54, "duration": 32, "velocity": 91}, {"time": 3342, "pitch": 59, "duration": 10, "velocity": 91}, {"time": 3348, "pitch": 62, "duration": 12, "velocity": 91}, {"time": 3348, "pitch": 66, "duration": 12, "velocity": 91}, {"time": 3348, "pitch": 71, "duration": 12, "velocity": 91}, {"time": 3360, "pitch": 59, "duration": 7, "velocity": 91}, {"time": 3366, "pitch": 62, "duration": 7, "velocity": 91}, {"time": 3366, "pitch": 66, "duration": 8, "velocity": 91}, {"time": 3366, "pitch": 71, "duration": 7, "velocity": 91}, {"time": 3378, "pitch": 43, "duration": 43, "velocity": 91}, {"time": 3378, "pitch": 55, "duration": 10, "velocity": 91}, {"time": 3378, "pitch": 62, "duration": 14, "velocity": 91}, {"time": 3378, "pitch": 67, "duration": 14, "velocity": 91}, {"time": 3378, "pitch": 71, "duration": 14, "velocity": 91}, {"time": 3390, "pitch": 55, "duration": 9, "velocity": 91}, {"time": 3396, "pitch": 62, "duration": 13, "velocity": 91}, {"time": 3396, "pitch": 67, "duration": 12, "velocity": 91}, {"time": 3396, "pitch": 71, "duration": 12, "velocity": 91}, {"time": 3408, "pitch": 55, "duration": 14, "velocity": 91}, {"time": 3414, "pitch": 62, "duration": 7, "velocity": 91}, {"time": 3414, "pitch": 67, "duration": 7, "velocity": 91}, {"time": 3414, "pitch": 71, "duration": 6, "velocity": 91}, {"time": 3426, "pitch": 43, "duration": 38, "velocity": 91}, {"time": 3426, "pitch": 55, "duration": 24, "velocity": 91}, {"time": 3426, "pitch": 62, "duration": 13, "velocity": 91}, {"time": 3426, "pitch": 67, "duration": 13, "velocity": 91}, {"time": 3426, "pitch": 71, "duration": 13, "velocity": 91}, {"time": 3444, "pitch": 62, "duration": 14, "velocity": 91}, {"time": 3444, "pitch": 67, "duration": 15, "velocity": 91}, {"time": 3444, "pitch": 71, "duration": 14, "velocity": 91}, {"time": 3456, "pitch": 55, "duration": 8, "velocity": 91}, {"time": 3462, "pitch": 62, "duration": 3, "velocity": 91}, {"time": 3462, "pitch": 67, "duration": 3, "velocity": 91}, {"time": 3462, "pitch": 71, "duration": 3, "velocity": 91}, {"time": 3474, "pitch": 42, "duration": 43, "velocity": 91}, {"time": 3474, "pitch": 54, "duration": 9, "velocity": 91}, {"time": 3474, "pitch": 61, "duration": 14, "velocity": 91}, {"time": 3474, "pitch": 66, "duration": 14, "velocity": 91}, {"time": 3474, "pitch": 70, "duration": 14, "velocity": 91}, {"time": 3486, "pitch": 54, "duration": 10, "velocity": 91}, {"time": 3492, "pitch": 61, "duration": 14, "velocity": 91}, {"time": 3492, "pitch": 66, "duration": 13, "velocity": 91}, {"time": 3492, "pitch": 70, "duration": 12, "velocity": 91}, {"time": 3504, "pitch": 54, "duration": 13, "velocity": 91}, {"time": 3510, "pitch": 61, "duration": 7, "velocity": 91}, {"time": 3510, "pitch": 66, "duration": 7, "velocity": 91}, {"time": 3510, "pitch": 70, "duration": 6, "velocity": 91}, {"time": 3522, "pitch": 42, "duration": 7, "velocity": 91}, {"time": 3522, "pitch": 54, "duration": 7, "velocity": 91}, {"time": 3522, "pitch": 61, "duration": 7, "velocity": 91}, {"time": 3522, "pitch": 66, "duration": 7, "velocity": 91}, {"time": 3522, "pitch": 70, "duration": 7, "velocity": 91}, {"time": 3534, "pitch": 42, "duration": 7, "velocity": 89}, {"time": 3534, "pitch": 54, "duration": 7, "velocity": 89}, {"time": 3534, "pitch": 61, "duration": 7, "velocity": 89}, {"time": 3534, "pitch": 66, "duration": 7, "velocity": 89}, {"time": 3534, "pitch": 70, "duration": 6, "velocity": 91}, {"time": 3546, "pitch": 42, "duration": 7, "velocity": 89}, {"time": 3546, "pitch": 54, "duration": 7, "velocity": 89}, {"time": 3546, "pitch": 61, "duration": 7, "velocity": 89}, {"time": 3546, "pitch": 66, "duration": 7, "velocity": 89}, {"time": 3546, "pitch": 70, "duration": 6, "velocity": 89}, {"time": 3558, "pitch": 42, "duration": 9, "velocity": 89}, {"time": 3558, "pitch": 54, "duration": 9, "velocity": 89}, {"time": 3558, "pitch": 61, "duration": 8, "velocity": 89}, {"time": 3558, "pitch": 66, "duration": 8, "velocity": 91}, {"time": 3558, "pitch": 70, "duration": 8, "velocity": 91}, {"time": 3570, "pitch": 43, "duration": 7, "velocity": 87}, {"time": 3570, "pitch": 59, "duration": 15, "velocity": 87}, {"time": 3570, "pitch": 62, "duration": 14, "velocity": 87}, {"time": 3570, "pitch": 67, "duration": 14, "velocity": 87}, {"time": 3576, "pitch": 55, "duration": 5, "velocity": 87}, {"time": 3582, "pitch": 43, "duration": 6, "velocity": 87}, {"time": 3588, "pitch": 55, "duration": 5, "velocity": 87}, {"time": 3588, "pitch": 59, "duration": 14, "velocity": 87}, {"time": 3588, "pitch": 62, "duration": 14, "velocity": 87}, {"time": 3588, "pitch": 67, "duration": 13, "velocity": 87}, {"time": 3594, "pitch": 43, "duration": 6, "velocity": 87}, {"time": 3600, "pitch": 55, "duration": 6, "velocity": 87}, {"time": 3606, "pitch": 43, "duration": 6, "velocity": 95}, {"time": 3606, "pitch": 59, "duration": 6, "velocity": 95}, {"time": 3606, "pitch": 62, "duration": 9, "velocity": 95}, {"time": 3606, "pitch": 67, "duration": 6, "velocity": 95}, {"time": 3612, "pitch": 55, "duration": 5, "velocity": 95}, {"time": 3618, "pitch": 45, "duration": 7, "velocity": 95}, {"time": 3618, "pitch": 61, "duration": 13, "velocity": 95}, {"time": 3618, "pitch": 64, "duration": 14, "velocity": 95}, {"time": 3618, "pitch": 69, "duration": 13, "velocity": 95}, {"time": 3624, "pitch": 57, "duration": 7, "velocity": 95}, {"time": 3630, "pitch": 45, "duration": 7, "velocity": 95}, {"time": 3636, "pitch": 57, "duration": 6, "velocity": 95}, {"time": 3636, "pitch": 61, "duration": 13, "velocity": 95}, {"time": 3636, "pitch": 64, "duration": 13, "velocity": 95}, {"time": 3636, "pitch": 69, "duration": 12, "velocity": 95}, {"time": 3642, "pitch": 45, "duration": 7, "velocity": 95}, {"time": 3648, "pitch": 57, "duration": 7, "velocity": 95}, {"time": 3654, "pitch": 45, "duration": 7, "velocity": 95}, {"time": 3654, "pitch": 61, "duration": 6, "velocity": 95}, {"time": 3654, "pitch": 64, "duration": 9, "velocity": 95}, {"time": 3654, "pitch": 69, "duration": 7, "velocity": 95}, {"time": 3660, "pitch": 57, "duration": 2, "velocity": 95}, {"time": 3666, "pitch": 38, "duration": 6, "velocity": 95}, {"time": 3666, "pitch": 62, "duration": 15, "velocity": 95}, {"time": 3666, "pitch": 66, "duration": 15, "velocity": 95}, {"time": 3666, "pitch": 69, "duration": 14, "velocity": 95}, {"time": 3672, "pitch": 50, "duration": 6, "velocity": 95}, {"time": 3678, "pitch": 38, "duration": 7, "velocity": 95}, {"time": 3684, "pitch": 50, "duration": 6, "velocity": 95}, {"time": 3684, "pitch": 62, "duration": 24, "velocity": 95}, {"time": 3684, "pitch": 66, "duration": 24, "velocity": 95}, {"time": 3684, "pitch": 69, "duration": 24, "velocity": 95}, {"time": 3690, "pitch": 38, "duration": 6, "velocity": 95}, {"time": 3696, "pitch": 50, "duration": 6, "velocity": 95}, {"time": 3702, "pitch": 38, "duration": 6, "velocity": 95}, {"time": 3708, "pitch": 50, "duration": 5, "velocity": 95}, {"time": 3714, "pitch": 38, "duration": 6, "velocity": 95}, {"time": 3714, "pitch": 62, "duration": 14, "velocity": 95}, {"time": 3714, "pitch": 66, "duration": 15, "velocity": 95}, {"time": 3714, "pitch": 69, "duration": 14, "velocity": 95}, {"time": 3720, "pitch": 50, "duration": 5, "velocity": 95}, {"time": 3726, "pitch": 38, "duration": 7, "velocity": 95}, {"time": 3732, "pitch": 50, "duration": 6, "velocity": 95}, {"time": 3732, "pitch": 62, "duration": 14, "velocity": 95}, {"time": 3732, "pitch": 66, "duration": 14, "velocity": 95}, {"time": 3732, "pitch": 69, "duration": 13, "velocity": 95}, {"time": 3738, "pitch": 38, "duration": 7, "velocity": 95}, {"time": 3744, "pitch": 50, "duration": 5, "velocity": 95}, {"time": 3750, "pitch": 38, "duration": 6, "velocity": 95}, {"time": 3750, "pitch": 62, "duration": 8, "velocity": 95}, {"time": 3750, "pitch": 66, "duration": 9, "velocity": 95}, {"time": 3750, "pitch": 69, "duration": 6, "velocity": 95}, {"time": 3756, "pitch": 50, "duration": 4, "velocity": 95}, {"time": 3762, "pitch": 43, "duration": 7, "velocity": 95}, {"time": 3762, "pitch": 62, "duration": 16, "velocity": 95}, {"time": 3762, "pitch": 67, "duration": 16, "velocity": 95}, {"time": 3762, "pitch": 71, "duration": 15, "velocity": 95}, {"time": 3768, "pitch": 55, "duration": 5, "velocity": 95}, {"time": 3774, "pitch": 43, "duration": 6, "velocity": 95}, {"time": 3780, "pitch": 55, "duration": 5, "velocity": 95}, {"time": 3780, "pitch": 62, "duration": 14, "velocity": 95}, {"time": 3780, "pitch": 67, "duration": 15, "velocity": 95}, {"time": 3780, "pitch": 71, "duration": 14, "velocity": 95}, {"time": 3786, "pitch": 43, "duration": 6, "velocity": 95}, {"time": 3792, "pitch": 55, "duration": 6, "velocity": 95}, {"time": 3798, "pitch": 43, "duration": 6, "velocity": 95}, {"time": 3798, "pitch": 62, "duration": 7, "velocity": 95}, {"time": 3798, "pitch": 67, "duration": 6, "velocity": 95}, {"time": 3798, "pitch": 71, "duration": 7, "velocity": 95}, {"time": 3804, "pitch": 55, "duration": 5, "velocity": 95}, {"time": 3810, "pitch": 45, "duration": 7, "velocity": 95}, {"time": 3810, "pitch": 61, "duration": 15, "velocity": 95}, {"time": 3810, "pitch": 64, "duration": 15, "velocity": 95}, {"time": 3810, "pitch": 69, "duration": 14, "velocity": 95}, {"time": 3816, "pitch": 57, "duration": 7, "velocity": 95}, {"time": 3822, "pitch": 45, "duration": 7, "velocity": 95}, {"time": 3828, "pitch": 57, "duration": 6, "velocity": 95}, {"time": 3828, "pitch": 61, "duration": 13, "velocity": 95}, {"time": 3828, "pitch": 64, "duration": 13, "velocity": 95}, {"time": 3828, "pitch": 69, "duration": 13, "velocity": 95}, {"time": 3834, "pitch": 45, "duration": 7, "velocity": 95}, {"time": 3840, "pitch": 57, "duration": 7, "velocity": 95}, {"time": 3846, "pitch": 45, "duration": 7, "velocity": 95}, {"time": 3846, "pitch": 61, "duration": 7, "velocity": 95}, {"time": 3846, "pitch": 64, "duration": 10, "velocity": 95}, {"time": 3846, "pitch": 69, "duration": 7, "velocity": 95}, {"time": 3852, "pitch": 57, "duration": 2, "velocity": 95}, {"time": 3858, "pitch": 38, "duration": 6, "velocity": 95}, {"time": 3858, "pitch": 62, "duration": 14, "velocity": 95}, {"time": 3858, "pitch": 66, "duration": 14, "velocity": 95}, {"time": 3858, "pitch": 69, "duration": 13, "velocity": 95}, {"time": 3864, "pitch": 50, "duration": 6, "velocity": 95}, {"time": 3870, "pitch": 38, "duration": 7, "velocity": 95}, {"time": 3876, "pitch": 50, "duration": 6, "velocity": 95}, {"time": 3876, "pitch": 62, "duration": 13, "velocity": 95}, {"time": 3876, "pitch": 66, "duration": 13, "velocity": 95}, {"time": 3876, "pitch": 69, "duration": 13, "velocity": 95}, {"time": 3882, "pitch": 38, "duration": 6, "velocity": 95}, {"time": 3888, "pitch": 50, "duration": 6, "velocity": 95}, {"time": 3894, "pitch": 38, "duration": 6, "velocity": 95}, {"time": 3894, "pitch": 62, "duration": 6, "velocity": 95}, {"time": 3894, "pitch": 66, "duration": 4, "velocity": 95}, {"time": 3894, "pitch": 69, "duration": 4, "velocity": 95}, {"time": 3900, "pitch": 50, "duration": 5, "velocity": 95}, {"time": 3906, "pitch": 42, "duration": 6, "velocity": 95}, {"time": 3906, "pitch": 58, "duration": 13, "velocity": 95}, {"time": 3906, "pitch": 61, "duration": 13, "velocity": 95}, {"time": 3906, "pitch": 66, "duration": 13, "velocity": 95}, {"time": 3912, "pitch": 54, "duration": 6, "velocity": 95}, {"time": 3918, "pitch": 42, "duration": 6, "velocity": 95}, {"time": 3924, "pitch": 54, "duration": 6, "velocity": 95}, {"time": 3924, "pitch": 58, "duration": 11, "velocity": 95}, {"time": 3924, "pitch": 61, "duration": 11, "velocity": 95}, {"time": 3924, "pitch": 66, "duration": 11, "velocity": 95}, {"time": 3930, "pitch": 42, "duration": 7, "velocity": 95}, {"time": 3936, "pitch": 54, "duration": 6, "velocity": 95}, {"time": 3942, "pitch": 42, "duration": 6, "velocity": 95}, {"time": 3942, "pitch": 58, "duration": 4, "velocity": 95}, {"time": 3942, "pitch": 61, "duration": 5, "velocity": 95}, {"time": 3942, "pitch": 66, "duration": 4, "velocity": 95}, {"time": 3948, "pitch": 54, "duration": 4, "velocity": 95}, {"time": 3954, "pitch": 43, "duration": 6, "velocity": 95}, {"time": 3960, "pitch": 55, "duration": 6, "velocity": 95}, {"time": 3966, "pitch": 43, "duration": 6, "velocity": 95}, {"time": 3972, "pitch": 55, "duration": 6, "velocity": 95}, {"time": 3972, "pitch": 59, "duration": 12, "velocity": 95}, {"time": 3972, "pitch": 62, "duration": 12, "velocity": 95}, {"time": 3972, "pitch": 67, "duration": 12, "velocity": 95}, {"time": 3978, "pitch": 43, "duration": 6, "velocity": 95}, {"time": 3984, "pitch": 55, "duration": 6, "velocity": 95}, {"time": 3990, "pitch": 43, "duration": 6, "velocity": 95}, {"time": 3990, "pitch": 59, "duration": 6, "velocity": 95}, {"time": 3990, "pitch": 62, "duration": 8, "velocity": 95}, {"time": 3990, "pitch": 67, "duration": 7, "velocity": 95}, {"time": 3996, "pitch": 55, "duration": 5, "velocity": 95}, {"time": 4002, "pitch": 45, "duration": 7, "velocity": 95}, {"time": 4002, "pitch": 61, "duration": 15, "velocity": 95}, {"time": 4002, "pitch": 64, "duration": 14, "velocity": 95}, {"time": 4002, "pitch": 69, "duration": 14, "velocity": 95}, {"time": 4008, "pitch": 57, "duration": 5, "velocity": 95}, {"time": 4014, "pitch": 45, "duration": 7, "velocity": 95}, {"time": 4020, "pitch": 57, "duration": 6, "velocity": 95}, {"time": 4020, "pitch": 61, "duration": 12, "velocity": 95}, {"time": 4020, "pitch": 64, "duration": 12, "velocity": 95}, {"time": 4020, "pitch": 69, "duration": 12, "velocity": 95}, {"time": 4026, "pitch": 45, "duration": 6, "velocity": 95}, {"time": 4032, "pitch": 57, "duration": 6, "velocity": 95}, {"time": 4038, "pitch": 45, "duration": 7, "velocity": 95}, {"time": 4038, "pitch": 61, "duration": 7, "velocity": 95}, {"time": 4038, "pitch": 64, "duration": 9, "velocity": 95}, {"time": 4038, "pitch": 69, "duration": 8, "velocity": 95}, {"time": 4044, "pitch": 57, "duration": 4, "velocity": 95}, {"time": 4050, "pitch": 38, "duration": 6, "velocity": 95}, {"time": 4050, "pitch": 62, "duration": 14, "velocity": 95}, {"time": 4050, "pitch": 66, "duration": 13, "velocity": 95}, {"time": 4050, "pitch": 69, "duration": 12, "velocity": 95}, {"time": 4056, "pitch": 50, "duration": 5, "velocity": 95}, {"time": 4062, "pitch": 38, "duration": 7, "velocity": 95}, {"time": 4068, "pitch": 50, "duration": 5, "velocity": 95}, {"time": 4068, "pitch": 62, "duration": 13, "velocity": 95}, {"time": 4068, "pitch": 66, "duration": 13, "velocity": 95}, {"time": 4068, "pitch": 69, "duration": 12, "velocity": 95}, {"time": 4074, "pitch": 38, "duration": 7, "velocity": 95}, {"time": 4080, "pitch": 50, "duration": 6, "velocity": 97}, {"time": 4086, "pitch": 38, "duration": 6, "velocity": 95}, {"time": 4086, "pitch": 62, "duration": 8, "velocity": 95}, {"time": 4086, "pitch": 66, "duration": 8, "velocity": 95}, {"time": 4086, "pitch": 69, "duration": 7, "velocity": 95}, {"time": 4092, "pitch": 50, "duration": 5, "velocity": 93}, {"time": 4098, "pitch": 38, "duration": 6, "velocity": 93}, {"time": 4098, "pitch": 62, "duration": 14, "velocity": 91}, {"time": 4098, "pitch": 66, "duration": 14, "velocity": 91}, {"time": 4098, "pitch": 69, "duration": 13, "velocity": 91}, {"time": 4104, "pitch": 50, "duration": 6, "velocity": 91}, {"time": 4110, "pitch": 38, "duration": 6, "velocity": 91}, {"time": 4116, "pitch": 50, "duration": 5, "velocity": 91}, {"time": 4116, "pitch": 62, "duration": 13, "velocity": 91}, {"time": 4116, "pitch": 66, "duration": 13, "velocity": 91}, {"time": 4116, "pitch": 69, "duration": 12, "velocity": 91}, {"time": 4122, "pitch": 38, "duration": 7, "velocity": 91}, {"time": 4128, "pitch": 50, "duration": 6, "velocity": 91}, {"time": 4134, "pitch": 38, "duration": 6, "velocity": 91}, {"time": 4134, "pitch": 62, "duration": 7, "velocity": 91}, {"time": 4134, "pitch": 66, "duration": 6, "velocity": 91}, {"time": 4134, "pitch": 69, "duration": 6, "velocity": 91}, {"time": 4140, "pitch": 50, "duration": 4, "velocity": 91}, {"time": 4146, "pitch": 43, "duration": 13, "velocity": 91}, {"time": 4146, "pitch": 62, "duration": 14, "velocity": 91}, {"time": 4146, "pitch": 67, "duration": 14, "velocity": 91}, {"time": 4146, "pitch": 71, "duration": 14, "velocity": 91}, {"time": 4164, "pitch": 43, "duration": 1, "velocity": 91}, {"time": 4164, "pitch": 62, "duration": 12, "velocity": 91}, {"time": 4164, "pitch": 67, "duration": 12, "velocity": 91}, {"time": 4164, "pitch": 71, "duration": 12, "velocity": 91}, {"time": 4170, "pitch": 43, "duration": 22, "velocity": 91}, {"time": 4182, "pitch": 62, "duration": 7, "velocity": 91}, {"time": 4182, "pitch": 67, "duration": 7, "velocity": 91}, {"time": 4182, "pitch": 71, "duration": 6, "velocity": 91}, {"time": 4194, "pitch": 45, "duration": 13, "velocity": 91}, {"time": 4194, "pitch": 61, "duration": 13, "velocity": 91}, {"time": 4194, "pitch": 64, "duration": 13, "velocity": 91}, {"time": 4194, "pitch": 69, "duration": 12, "velocity": 91}, {"time": 4212, "pitch": 45, "duration": 1, "velocity": 91}, {"time": 4212, "pitch": 61, "duration": 12, "velocity": 91}, {"time": 4212, "pitch": 64, "duration": 12, "velocity": 91}, {"time": 4212, "pitch": 69, "duration": 12, "velocity": 91}, {"time": 4218, "pitch": 45, "duration": 22, "velocity": 91}, {"time": 4230, "pitch": 61, "duration": 3, "velocity": 91}, {"time": 4230, "pitch": 64, "duration": 2, "velocity": 91}, {"time": 4230, "pitch": 69, "duration": 2, "velocity": 91}, {"time": 4242, "pitch": 42, "duration": 13, "velocity": 91}, {"time": 4242, "pitch": 58, "duration": 15, "velocity": 91}, {"time": 4242, "pitch": 61, "duration": 15, "velocity": 91}, {"time": 4242, "pitch": 66, "duration": 15, "velocity": 91}, {"time": 4260, "pitch": 42, "duration": 1, "velocity": 91}, {"time": 4260, "pitch": 58, "duration": 12, "velocity": 91}, {"time": 4260, "pitch": 61, "duration": 11, "velocity": 91}, {"time": 4260, "pitch": 66, "duration": 11, "velocity": 91}, {"time": 4266, "pitch": 42, "duration": 10, "velocity": 84}, {"time": 4278, "pitch": 42, "duration": 4, "velocity": 97}, {"time": 4284, "pitch": 42, "duration": 38, "velocity": 93}, {"time": 4284, "pitch": 58, "duration": 15, "velocity": 97}, {"time": 4284, "pitch": 61, "duration": 15, "velocity": 97}, {"time": 4284, "pitch": 66, "duration": 15, "velocity": 97}, {"time": 4338, "pitch": 47, "duration": 77, "velocity": 97}, {"time": 4338, "pitch": 59, "duration": 85, "velocity": 99}, {"time": 4338, "pitch": 62, "duration": 24, "velocity": 99}, {"time": 4338, "pitch": 66, "duration": 24, "velocity": 99}, {"time": 4338, "pitch": 71, "duration": 46, "velocity": 99}, {"time": 4362, "pitch": 62, "duration": 1, "velocity": 89}, {"time": 4362, "pitch": 66, "duration": 1, "velocity": 100}, {"time": 4386, "pitch": 62, "duration": 41, "velocity": 90}, {"time": 4386, "pitch": 66, "duration": 37, "velocity": 100}, {"time": 4386, "pitch": 71, "duration": 41, "velocity": 90}, {"time": 4434, "pitch": 49, "duration": 84, "velocity": 110}, {"time": 4434, "pitch": 61, "duration": 22, "velocity": 92}, {"time": 4434, "pitch": 65, "duration": 22, "velocity": 100}, {"time": 4434, "pitch": 68, "duration": 21, "velocity": 88}, {"time": 4458, "pitch": 61, "duration": 21, "velocity": 90}, {"time": 4458, "pitch": 65, "duration": 21, "velocity": 90}, {"time": 4458, "pitch": 68, "duration": 20, "velocity": 88}, {"time": 4482, "pitch": 61, "duration": 21, "velocity": 86}, {"time": 4482, "pitch": 65, "duration": 21, "velocity": 89}, {"time": 4482, "pitch": 68, "duration": 22, "velocity": 86}, {"time": 4506, "pitch": 61, "duration": 13, "velocity": 86}, {"time": 4506, "pitch": 65, "duration": 14, "velocity": 90}, {"time": 4506, "pitch": 68, "duration": 14, "velocity": 82}, {"time": 4530, "pitch": 50, "duration": 85, "velocity": 88}, {"time": 4530, "pitch": 62, "duration": 83, "velocity": 91}, {"time": 4530, "pitch": 66, "duration": 83, "velocity": 107}, {"time": 4530, "pitch": 69, "duration": 82, "velocity": 100}, {"time": 4530, "pitch": 73, "duration": 85, "velocity": 100}, {"time": 4626, "pitch": 49, "duration": 87, "velocity": 91}, {"time": 4626, "pitch": 61, "duration": 87, "velocity": 90}, {"time": 4626, "pitch": 65, "duration": 89, "velocity": 93}, {"time": 4626, "pitch": 68, "duration": 86, "velocity": 87}, {"time": 4719, "pitch": 47, "duration": 16, "velocity": 85}, {"time": 4722, "pitch": 62, "duration": 15, "velocity": 83}, {"time": 4722, "pitch": 66, "duration": 16, "velocity": 87}, {"time": 4722, "pitch": 71, "duration": 16, "velocity": 88}]}]}