{"metadata": {"schema_version": "0.2", "title": "None", "source_filename": "308.mid", "source_format": "midi"}, "resolution": 12, "tempos": [{"time": 0, "qpm": 62.00005993339127}], "time_signatures": [{"time": 0, "numerator": 4, "denominator": 4}], "tracks": [{"program": 0, "is_drum": false, "name": "MELODY", "notes": [{"time": 195, "pitch": 73, "duration": 2, "velocity": 104}, {"time": 201, "pitch": 73, "duration": 3, "velocity": 108}, {"time": 204, "pitch": 75, "duration": 3, "velocity": 114}, {"time": 207, "pitch": 77, "duration": 4, "velocity": 117}, {"time": 213, "pitch": 77, "duration": 3, "velocity": 114}, {"time": 216, "pitch": 75, "duration": 3, "velocity": 113}, {"time": 219, "pitch": 73, "duration": 6, "velocity": 114}, {"time": 225, "pitch": 70, "duration": 6, "velocity": 117}, {"time": 231, "pitch": 68, "duration": 5, "velocity": 116}, {"time": 243, "pitch": 73, "duration": 7, "velocity": 113}, {"time": 252, "pitch": 75, "duration": 2, "velocity": 110}, {"time": 255, "pitch": 77, "duration": 5, "velocity": 116}, {"time": 261, "pitch": 75, "duration": 3, "velocity": 113}, {"time": 264, "pitch": 73, "duration": 3, "velocity": 114}, {"time": 267, "pitch": 75, "duration": 5, "velocity": 120}, {"time": 291, "pitch": 73, "duration": 4, "velocity": 110}, {"time": 297, "pitch": 73, "duration": 3, "velocity": 110}, {"time": 300, "pitch": 75, "duration": 2, "velocity": 114}, {"time": 303, "pitch": 77, "duration": 4, "velocity": 114}, {"time": 309, "pitch": 77, "duration": 3, "velocity": 116}, {"time": 312, "pitch": 75, "duration": 3, "velocity": 113}, {"time": 315, "pitch": 77, "duration": 4, "velocity": 114}, {"time": 321, "pitch": 75, "duration": 3, "velocity": 114}, {"time": 324, "pitch": 73, "duration": 3, "velocity": 102}, {"time": 327, "pitch": 70, "duration": 5, "velocity": 116}, {"time": 336, "pitch": 70, "duration": 2, "velocity": 114}, {"time": 339, "pitch": 75, "duration": 4, "velocity": 119}, {"time": 348, "pitch": 73, "duration": 3, "velocity": 114}, {"time": 351, "pitch": 70, "duration": 4, "velocity": 117}, {"time": 354, "pitch": 73, "duration": 3, "velocity": 86}, {"time": 357, "pitch": 70, "duration": 6, "velocity": 113}, {"time": 363, "pitch": 68, "duration": 6, "velocity": 117}, {"time": 387, "pitch": 68, "duration": 4, "velocity": 116}, {"time": 393, "pitch": 68, "duration": 3, "velocity": 110}, {"time": 396, "pitch": 70, "duration": 2, "velocity": 107}, {"time": 399, "pitch": 73, "duration": 4, "velocity": 117}, {"time": 405, "pitch": 73, "duration": 5, "velocity": 113}, {"time": 411, "pitch": 75, "duration": 4, "velocity": 116}, {"time": 417, "pitch": 75, "duration": 4, "velocity": 113}, {"time": 420, "pitch": 73, "duration": 3, "velocity": 100}, {"time": 423, "pitch": 70, "duration": 5, "velocity": 116}, {"time": 435, "pitch": 73, "duration": 9, "velocity": 116}, {"time": 444, "pitch": 77, "duration": 3, "velocity": 117}, {"time": 447, "pitch": 75, "duration": 4, "velocity": 117}, {"time": 456, "pitch": 73, "duration": 2, "velocity": 113}, {"time": 459, "pitch": 75, "duration": 5, "velocity": 117}, {"time": 465, "pitch": 70, "duration": 3, "velocity": 98}, {"time": 468, "pitch": 68, "duration": 4, "velocity": 102}, {"time": 471, "pitch": 70, "duration": 4, "velocity": 119}, {"time": 483, "pitch": 68, "duration": 6, "velocity": 117}, {"time": 492, "pitch": 70, "duration": 2, "velocity": 113}, {"time": 495, "pitch": 73, "duration": 4, "velocity": 119}, {"time": 501, "pitch": 75, "duration": 3, "velocity": 114}, {"time": 504, "pitch": 77, "duration": 2, "velocity": 114}, {"time": 507, "pitch": 80, "duration": 3, "velocity": 117}, {"time": 513, "pitch": 77, "duration": 5, "velocity": 113}, {"time": 519, "pitch": 73, "duration": 3, "velocity": 114}, {"time": 522, "pitch": 75, "duration": 2, "velocity": 92}, {"time": 524, "pitch": 73, "duration": 1, "velocity": 104}, {"time": 525, "pitch": 70, "duration": 4, "velocity": 117}, {"time": 531, "pitch": 70, "duration": 7, "velocity": 107}, {"time": 540, "pitch": 75, "duration": 2, "velocity": 108}, {"time": 543, "pitch": 75, "duration": 3, "velocity": 117}, {"time": 549, "pitch": 73, "duration": 3, "velocity": 116}, {"time": 552, "pitch": 70, "duration": 3, "velocity": 113}, {"time": 555, "pitch": 68, "duration": 6, "velocity": 117}, {"time": 579, "pitch": 80, "duration": 2, "velocity": 120}, {"time": 582, "pitch": 80, "duration": 4, "velocity": 120}, {"time": 588, "pitch": 80, "duration": 2, "velocity": 120}, {"time": 591, "pitch": 80, "duration": 3, "velocity": 120}, {"time": 597, "pitch": 77, "duration": 3, "velocity": 119}, {"time": 600, "pitch": 80, "duration": 2, "velocity": 117}, {"time": 603, "pitch": 82, "duration": 3, "velocity": 120}, {"time": 612, "pitch": 82, "duration": 2, "velocity": 116}, {"time": 615, "pitch": 82, "duration": 3, "velocity": 117}, {"time": 618, "pitch": 80, "duration": 3, "velocity": 116}, {"time": 621, "pitch": 77, "duration": 4, "velocity": 117}, {"time": 627, "pitch": 82, "duration": 2, "velocity": 119}, {"time": 630, "pitch": 82, "duration": 2, "velocity": 117}, {"time": 633, "pitch": 82, "duration": 2, "velocity": 116}, {"time": 636, "pitch": 82, "duration": 2, "velocity": 116}, {"time": 639, "pitch": 82, "duration": 3, "velocity": 120}, {"time": 645, "pitch": 80, "duration": 3, "velocity": 114}, {"time": 648, "pitch": 77, "duration": 2, "velocity": 98}, {"time": 651, "pitch": 77, "duration": 6, "velocity": 107}, {"time": 657, "pitch": 75, "duration": 6, "velocity": 108}, {"time": 675, "pitch": 82, "duration": 4, "velocity": 119}, {"time": 681, "pitch": 80, "duration": 2, "velocity": 116}, {"time": 684, "pitch": 82, "duration": 3, "velocity": 116}, {"time": 687, "pitch": 80, "duration": 4, "velocity": 120}, {"time": 693, "pitch": 77, "duration": 6, "velocity": 116}, {"time": 699, "pitch": 75, "duration": 4, "velocity": 119}, {"time": 705, "pitch": 75, "duration": 4, "velocity": 113}, {"time": 708, "pitch": 73, "duration": 3, "velocity": 104}, {"time": 711, "pitch": 70, "duration": 3, "velocity": 116}, {"time": 714, "pitch": 73, "duration": 3, "velocity": 114}, {"time": 717, "pitch": 70, "duration": 4, "velocity": 116}, {"time": 723, "pitch": 75, "duration": 2, "velocity": 117}, {"time": 726, "pitch": 75, "duration": 2, "velocity": 110}, {"time": 729, "pitch": 75, "duration": 2, "velocity": 113}, {"time": 732, "pitch": 77, "duration": 3, "velocity": 116}, {"time": 735, "pitch": 75, "duration": 3, "velocity": 117}, {"time": 741, "pitch": 73, "duration": 3, "velocity": 116}, {"time": 744, "pitch": 70, "duration": 4, "velocity": 108}, {"time": 747, "pitch": 68, "duration": 6, "velocity": 110}, {"time": 964, "pitch": 73, "duration": 2, "velocity": 104}, {"time": 970, "pitch": 73, "duration": 2, "velocity": 108}, {"time": 973, "pitch": 75, "duration": 3, "velocity": 114}, {"time": 976, "pitch": 77, "duration": 4, "velocity": 117}, {"time": 982, "pitch": 77, "duration": 3, "velocity": 114}, {"time": 985, "pitch": 75, "duration": 3, "velocity": 113}, {"time": 988, "pitch": 73, "duration": 6, "velocity": 114}, {"time": 994, "pitch": 70, "duration": 6, "velocity": 117}, {"time": 1000, "pitch": 68, "duration": 5, "velocity": 116}, {"time": 1012, "pitch": 73, "duration": 7, "velocity": 113}, {"time": 1021, "pitch": 75, "duration": 2, "velocity": 110}, {"time": 1024, "pitch": 77, "duration": 5, "velocity": 116}, {"time": 1030, "pitch": 75, "duration": 3, "velocity": 113}, {"time": 1033, "pitch": 73, "duration": 2, "velocity": 114}, {"time": 1036, "pitch": 75, "duration": 5, "velocity": 120}, {"time": 1060, "pitch": 73, "duration": 4, "velocity": 110}, {"time": 1066, "pitch": 73, "duration": 3, "velocity": 110}, {"time": 1069, "pitch": 75, "duration": 2, "velocity": 114}, {"time": 1072, "pitch": 77, "duration": 4, "velocity": 114}, {"time": 1078, "pitch": 77, "duration": 3, "velocity": 116}, {"time": 1081, "pitch": 75, "duration": 3, "velocity": 113}, {"time": 1084, "pitch": 77, "duration": 4, "velocity": 114}, {"time": 1090, "pitch": 75, "duration": 3, "velocity": 114}, {"time": 1093, "pitch": 73, "duration": 3, "velocity": 102}, {"time": 1096, "pitch": 70, "duration": 4, "velocity": 116}, {"time": 1105, "pitch": 70, "duration": 2, "velocity": 114}, {"time": 1108, "pitch": 75, "duration": 4, "velocity": 119}, {"time": 1117, "pitch": 73, "duration": 3, "velocity": 114}, {"time": 1120, "pitch": 70, "duration": 4, "velocity": 117}, {"time": 1123, "pitch": 73, "duration": 3, "velocity": 86}, {"time": 1126, "pitch": 70, "duration": 6, "velocity": 113}, {"time": 1132, "pitch": 68, "duration": 6, "velocity": 117}, {"time": 1156, "pitch": 68, "duration": 4, "velocity": 116}, {"time": 1162, "pitch": 68, "duration": 3, "velocity": 110}, {"time": 1165, "pitch": 70, "duration": 2, "velocity": 107}, {"time": 1168, "pitch": 73, "duration": 4, "velocity": 117}, {"time": 1174, "pitch": 73, "duration": 4, "velocity": 113}, {"time": 1180, "pitch": 75, "duration": 4, "velocity": 116}, {"time": 1186, "pitch": 75, "duration": 4, "velocity": 113}, {"time": 1189, "pitch": 73, "duration": 3, "velocity": 100}, {"time": 1192, "pitch": 70, "duration": 5, "velocity": 116}, {"time": 1204, "pitch": 73, "duration": 8, "velocity": 116}, {"time": 1213, "pitch": 77, "duration": 3, "velocity": 117}, {"time": 1216, "pitch": 75, "duration": 4, "velocity": 117}, {"time": 1225, "pitch": 73, "duration": 2, "velocity": 113}, {"time": 1228, "pitch": 75, "duration": 5, "velocity": 117}, {"time": 1234, "pitch": 70, "duration": 3, "velocity": 98}, {"time": 1237, "pitch": 68, "duration": 4, "velocity": 102}, {"time": 1240, "pitch": 70, "duration": 4, "velocity": 119}, {"time": 1252, "pitch": 68, "duration": 6, "velocity": 117}, {"time": 1261, "pitch": 70, "duration": 2, "velocity": 113}, {"time": 1264, "pitch": 73, "duration": 3, "velocity": 119}, {"time": 1270, "pitch": 75, "duration": 3, "velocity": 114}, {"time": 1273, "pitch": 77, "duration": 2, "velocity": 114}, {"time": 1276, "pitch": 80, "duration": 3, "velocity": 117}, {"time": 1282, "pitch": 77, "duration": 4, "velocity": 113}, {"time": 1288, "pitch": 73, "duration": 3, "velocity": 114}, {"time": 1291, "pitch": 75, "duration": 2, "velocity": 92}, {"time": 1294, "pitch": 70, "duration": 4, "velocity": 117}, {"time": 1294, "pitch": 73, "duration": 1, "velocity": 104}, {"time": 1300, "pitch": 70, "duration": 7, "velocity": 107}, {"time": 1309, "pitch": 75, "duration": 2, "velocity": 108}, {"time": 1312, "pitch": 75, "duration": 3, "velocity": 117}, {"time": 1318, "pitch": 73, "duration": 3, "velocity": 116}, {"time": 1321, "pitch": 70, "duration": 3, "velocity": 113}, {"time": 1324, "pitch": 68, "duration": 6, "velocity": 117}, {"time": 1348, "pitch": 80, "duration": 2, "velocity": 120}, {"time": 1351, "pitch": 80, "duration": 3, "velocity": 120}, {"time": 1357, "pitch": 80, "duration": 1, "velocity": 120}, {"time": 1360, "pitch": 80, "duration": 3, "velocity": 120}, {"time": 1366, "pitch": 77, "duration": 2, "velocity": 119}, {"time": 1369, "pitch": 80, "duration": 2, "velocity": 117}, {"time": 1372, "pitch": 82, "duration": 3, "velocity": 120}, {"time": 1381, "pitch": 82, "duration": 1, "velocity": 116}, {"time": 1384, "pitch": 82, "duration": 3, "velocity": 117}, {"time": 1387, "pitch": 80, "duration": 3, "velocity": 116}, {"time": 1390, "pitch": 77, "duration": 4, "velocity": 117}, {"time": 1396, "pitch": 82, "duration": 2, "velocity": 119}, {"time": 1399, "pitch": 82, "duration": 2, "velocity": 117}, {"time": 1402, "pitch": 82, "duration": 1, "velocity": 116}, {"time": 1405, "pitch": 82, "duration": 1, "velocity": 116}, {"time": 1408, "pitch": 82, "duration": 3, "velocity": 120}, {"time": 1414, "pitch": 80, "duration": 3, "velocity": 114}, {"time": 1417, "pitch": 77, "duration": 2, "velocity": 98}, {"time": 1420, "pitch": 77, "duration": 6, "velocity": 107}, {"time": 1426, "pitch": 75, "duration": 5, "velocity": 108}, {"time": 1444, "pitch": 82, "duration": 4, "velocity": 119}, {"time": 1450, "pitch": 80, "duration": 2, "velocity": 116}, {"time": 1453, "pitch": 82, "duration": 3, "velocity": 116}, {"time": 1456, "pitch": 80, "duration": 4, "velocity": 120}, {"time": 1462, "pitch": 77, "duration": 6, "velocity": 116}, {"time": 1468, "pitch": 75, "duration": 4, "velocity": 119}, {"time": 1474, "pitch": 75, "duration": 3, "velocity": 113}, {"time": 1477, "pitch": 73, "duration": 3, "velocity": 104}, {"time": 1480, "pitch": 70, "duration": 3, "velocity": 116}, {"time": 1483, "pitch": 73, "duration": 3, "velocity": 114}, {"time": 1486, "pitch": 70, "duration": 3, "velocity": 116}, {"time": 1492, "pitch": 75, "duration": 1, "velocity": 117}, {"time": 1495, "pitch": 75, "duration": 1, "velocity": 110}, {"time": 1498, "pitch": 75, "duration": 2, "velocity": 113}, {"time": 1501, "pitch": 77, "duration": 3, "velocity": 116}, {"time": 1504, "pitch": 75, "duration": 3, "velocity": 117}, {"time": 1510, "pitch": 73, "duration": 3, "velocity": 116}, {"time": 1513, "pitch": 70, "duration": 3, "velocity": 108}, {"time": 1516, "pitch": 68, "duration": 6, "velocity": 110}, {"time": 1540, "pitch": 82, "duration": 4, "velocity": 117}, {"time": 1546, "pitch": 80, "duration": 2, "velocity": 117}, {"time": 1549, "pitch": 82, "duration": 2, "velocity": 116}, {"time": 1552, "pitch": 80, "duration": 3, "velocity": 119}, {"time": 1558, "pitch": 77, "duration": 4, "velocity": 116}, {"time": 1564, "pitch": 75, "duration": 3, "velocity": 119}, {"time": 1570, "pitch": 75, "duration": 3, "velocity": 116}, {"time": 1573, "pitch": 73, "duration": 2, "velocity": 110}, {"time": 1576, "pitch": 73, "duration": 4, "velocity": 119}, {"time": 1582, "pitch": 70, "duration": 4, "velocity": 119}, {"time": 1588, "pitch": 75, "duration": 4, "velocity": 117}, {"time": 1594, "pitch": 75, "duration": 1, "velocity": 119}, {"time": 1597, "pitch": 75, "duration": 1, "velocity": 117}, {"time": 1600, "pitch": 75, "duration": 3, "velocity": 120}, {"time": 1606, "pitch": 73, "duration": 5, "velocity": 119}, {"time": 1612, "pitch": 70, "duration": 11, "velocity": 117}, {"time": 1636, "pitch": 80, "duration": 11, "velocity": 123}]}, {"program": 0, "is_drum": false, "name": "BRIDGE", "notes": [{"time": 3, "pitch": 80, "duration": 12, "velocity": 117}, {"time": 15, "pitch": 80, "duration": 6, "velocity": 114}, {"time": 21, "pitch": 77, "duration": 3, "velocity": 117}, {"time": 24, "pitch": 80, "duration": 2, "velocity": 114}, {"time": 27, "pitch": 82, "duration": 12, "velocity": 119}, {"time": 39, "pitch": 80, "duration": 3, "velocity": 116}, {"time": 42, "pitch": 77, "duration": 4, "velocity": 107}, {"time": 45, "pitch": 75, "duration": 3, "velocity": 108}, {"time": 48, "pitch": 73, "duration": 4, "velocity": 108}, {"time": 51, "pitch": 70, "duration": 4, "velocity": 110}, {"time": 51, "pitch": 82, "duration": 3, "velocity": 120}, {"time": 57, "pitch": 82, "duration": 2, "velocity": 116}, {"time": 63, "pitch": 82, "duration": 6, "velocity": 119}, {"time": 69, "pitch": 80, "duration": 3, "velocity": 114}, {"time": 72, "pitch": 77, "duration": 3, "velocity": 107}, {"time": 75, "pitch": 75, "duration": 6, "velocity": 107}, {"time": 87, "pitch": 68, "duration": 4, "velocity": 116}, {"time": 90, "pitch": 70, "duration": 3, "velocity": 104}, {"time": 93, "pitch": 73, "duration": 4, "velocity": 102}, {"time": 96, "pitch": 75, "duration": 3, "velocity": 107}, {"time": 99, "pitch": 82, "duration": 4, "velocity": 119}, {"time": 105, "pitch": 80, "duration": 3, "velocity": 116}, {"time": 108, "pitch": 82, "duration": 3, "velocity": 117}, {"time": 111, "pitch": 80, "duration": 4, "velocity": 119}, {"time": 120, "pitch": 77, "duration": 4, "velocity": 114}, {"time": 123, "pitch": 75, "duration": 3, "velocity": 113}, {"time": 126, "pitch": 77, "duration": 4, "velocity": 108}, {"time": 129, "pitch": 75, "duration": 3, "velocity": 110}, {"time": 132, "pitch": 73, "duration": 3, "velocity": 114}, {"time": 135, "pitch": 70, "duration": 5, "velocity": 114}, {"time": 147, "pitch": 75, "duration": 4, "velocity": 119}, {"time": 153, "pitch": 75, "duration": 2, "velocity": 117}, {"time": 156, "pitch": 75, "duration": 2, "velocity": 116}, {"time": 159, "pitch": 75, "duration": 4, "velocity": 119}, {"time": 162, "pitch": 73, "duration": 3, "velocity": 108}, {"time": 165, "pitch": 70, "duration": 6, "velocity": 113}, {"time": 171, "pitch": 68, "duration": 8, "velocity": 117}, {"time": 183, "pitch": 68, "duration": 4, "velocity": 108}, {"time": 186, "pitch": 70, "duration": 3, "velocity": 107}, {"time": 189, "pitch": 73, "duration": 3, "velocity": 108}, {"time": 192, "pitch": 75, "duration": 4, "velocity": 113}, {"time": 195, "pitch": 73, "duration": 7, "velocity": 108}, {"time": 273, "pitch": 68, "duration": 4, "velocity": 108}, {"time": 276, "pitch": 70, "duration": 3, "velocity": 108}, {"time": 279, "pitch": 73, "duration": 6, "velocity": 116}, {"time": 285, "pitch": 75, "duration": 7, "velocity": 113}, {"time": 291, "pitch": 77, "duration": 9, "velocity": 116}, {"time": 315, "pitch": 77, "duration": 12, "velocity": 108}, {"time": 327, "pitch": 70, "duration": 7, "velocity": 119}, {"time": 339, "pitch": 75, "duration": 8, "velocity": 116}, {"time": 348, "pitch": 73, "duration": 3, "velocity": 110}, {"time": 351, "pitch": 70, "duration": 3, "velocity": 104}, {"time": 354, "pitch": 73, "duration": 3, "velocity": 108}, {"time": 357, "pitch": 70, "duration": 6, "velocity": 104}, {"time": 363, "pitch": 68, "duration": 8, "velocity": 116}, {"time": 369, "pitch": 68, "duration": 2, "velocity": 108}, {"time": 372, "pitch": 70, "duration": 3, "velocity": 104}, {"time": 375, "pitch": 68, "duration": 4, "velocity": 107}, {"time": 378, "pitch": 70, "duration": 3, "velocity": 108}, {"time": 381, "pitch": 73, "duration": 4, "velocity": 104}, {"time": 384, "pitch": 75, "duration": 4, "velocity": 108}, {"time": 387, "pitch": 77, "duration": 5, "velocity": 110}, {"time": 465, "pitch": 82, "duration": 6, "velocity": 89}, {"time": 471, "pitch": 80, "duration": 3, "velocity": 110}, {"time": 474, "pitch": 77, "duration": 3, "velocity": 104}, {"time": 477, "pitch": 75, "duration": 3, "velocity": 108}, {"time": 480, "pitch": 73, "duration": 3, "velocity": 114}, {"time": 483, "pitch": 68, "duration": 6, "velocity": 113}, {"time": 561, "pitch": 68, "duration": 4, "velocity": 113}, {"time": 564, "pitch": 70, "duration": 3, "velocity": 107}, {"time": 567, "pitch": 68, "duration": 4, "velocity": 107}, {"time": 570, "pitch": 70, "duration": 3, "velocity": 110}, {"time": 573, "pitch": 73, "duration": 4, "velocity": 102}, {"time": 576, "pitch": 75, "duration": 4, "velocity": 110}, {"time": 579, "pitch": 77, "duration": 10, "velocity": 114}, {"time": 663, "pitch": 73, "duration": 4, "velocity": 113}, {"time": 666, "pitch": 75, "duration": 4, "velocity": 110}, {"time": 669, "pitch": 77, "duration": 3, "velocity": 108}, {"time": 672, "pitch": 80, "duration": 3, "velocity": 100}, {"time": 675, "pitch": 82, "duration": 6, "velocity": 110}, {"time": 687, "pitch": 80, "duration": 12, "velocity": 114}, {"time": 699, "pitch": 77, "duration": 6, "velocity": 113}, {"time": 705, "pitch": 75, "duration": 3, "velocity": 114}, {"time": 708, "pitch": 73, "duration": 3, "velocity": 110}, {"time": 711, "pitch": 70, "duration": 6, "velocity": 113}, {"time": 723, "pitch": 67, "duration": 10, "velocity": 119}, {"time": 735, "pitch": 70, "duration": 12, "velocity": 120}, {"time": 747, "pitch": 68, "duration": 3, "velocity": 119}, {"time": 753, "pitch": 68, "duration": 3, "velocity": 117}, {"time": 756, "pitch": 70, "duration": 3, "velocity": 113}, {"time": 759, "pitch": 68, "duration": 4, "velocity": 113}, {"time": 762, "pitch": 70, "duration": 3, "velocity": 116}, {"time": 765, "pitch": 73, "duration": 3, "velocity": 116}, {"time": 768, "pitch": 75, "duration": 3, "velocity": 104}, {"time": 772, "pitch": 80, "duration": 11, "velocity": 117}, {"time": 784, "pitch": 80, "duration": 5, "velocity": 114}, {"time": 790, "pitch": 77, "duration": 3, "velocity": 117}, {"time": 793, "pitch": 80, "duration": 2, "velocity": 114}, {"time": 796, "pitch": 82, "duration": 12, "velocity": 119}, {"time": 808, "pitch": 80, "duration": 3, "velocity": 116}, {"time": 811, "pitch": 77, "duration": 4, "velocity": 107}, {"time": 814, "pitch": 75, "duration": 3, "velocity": 108}, {"time": 817, "pitch": 73, "duration": 3, "velocity": 108}, {"time": 820, "pitch": 70, "duration": 4, "velocity": 110}, {"time": 820, "pitch": 82, "duration": 3, "velocity": 120}, {"time": 826, "pitch": 82, "duration": 2, "velocity": 116}, {"time": 832, "pitch": 82, "duration": 6, "velocity": 119}, {"time": 838, "pitch": 80, "duration": 3, "velocity": 114}, {"time": 841, "pitch": 77, "duration": 2, "velocity": 107}, {"time": 844, "pitch": 75, "duration": 5, "velocity": 107}, {"time": 856, "pitch": 68, "duration": 3, "velocity": 116}, {"time": 859, "pitch": 70, "duration": 2, "velocity": 104}, {"time": 862, "pitch": 73, "duration": 4, "velocity": 102}, {"time": 865, "pitch": 75, "duration": 3, "velocity": 107}, {"time": 868, "pitch": 82, "duration": 4, "velocity": 119}, {"time": 874, "pitch": 80, "duration": 2, "velocity": 116}, {"time": 877, "pitch": 82, "duration": 3, "velocity": 117}, {"time": 880, "pitch": 80, "duration": 3, "velocity": 119}, {"time": 889, "pitch": 77, "duration": 3, "velocity": 114}, {"time": 892, "pitch": 75, "duration": 3, "velocity": 113}, {"time": 895, "pitch": 77, "duration": 4, "velocity": 108}, {"time": 898, "pitch": 75, "duration": 3, "velocity": 110}, {"time": 901, "pitch": 73, "duration": 3, "velocity": 114}, {"time": 904, "pitch": 70, "duration": 5, "velocity": 114}, {"time": 916, "pitch": 75, "duration": 4, "velocity": 119}, {"time": 922, "pitch": 75, "duration": 2, "velocity": 117}, {"time": 925, "pitch": 75, "duration": 2, "velocity": 116}, {"time": 928, "pitch": 75, "duration": 4, "velocity": 119}, {"time": 931, "pitch": 73, "duration": 3, "velocity": 108}, {"time": 934, "pitch": 70, "duration": 6, "velocity": 113}, {"time": 940, "pitch": 68, "duration": 8, "velocity": 117}, {"time": 952, "pitch": 68, "duration": 4, "velocity": 108}, {"time": 955, "pitch": 70, "duration": 3, "velocity": 107}, {"time": 958, "pitch": 73, "duration": 3, "velocity": 108}, {"time": 961, "pitch": 75, "duration": 3, "velocity": 113}, {"time": 964, "pitch": 73, "duration": 7, "velocity": 108}, {"time": 1042, "pitch": 68, "duration": 4, "velocity": 108}, {"time": 1045, "pitch": 70, "duration": 3, "velocity": 108}, {"time": 1048, "pitch": 73, "duration": 6, "velocity": 116}, {"time": 1054, "pitch": 75, "duration": 7, "velocity": 113}, {"time": 1060, "pitch": 77, "duration": 9, "velocity": 116}, {"time": 1084, "pitch": 77, "duration": 12, "velocity": 108}, {"time": 1096, "pitch": 70, "duration": 7, "velocity": 119}, {"time": 1108, "pitch": 75, "duration": 8, "velocity": 116}, {"time": 1117, "pitch": 73, "duration": 3, "velocity": 110}, {"time": 1120, "pitch": 70, "duration": 3, "velocity": 104}, {"time": 1123, "pitch": 73, "duration": 3, "velocity": 108}, {"time": 1126, "pitch": 70, "duration": 6, "velocity": 104}, {"time": 1132, "pitch": 68, "duration": 8, "velocity": 116}, {"time": 1138, "pitch": 68, "duration": 2, "velocity": 108}, {"time": 1141, "pitch": 70, "duration": 3, "velocity": 104}, {"time": 1144, "pitch": 68, "duration": 3, "velocity": 107}, {"time": 1147, "pitch": 70, "duration": 2, "velocity": 108}, {"time": 1150, "pitch": 73, "duration": 4, "velocity": 104}, {"time": 1153, "pitch": 75, "duration": 4, "velocity": 108}, {"time": 1156, "pitch": 77, "duration": 5, "velocity": 110}, {"time": 1234, "pitch": 82, "duration": 6, "velocity": 89}, {"time": 1240, "pitch": 80, "duration": 3, "velocity": 110}, {"time": 1243, "pitch": 77, "duration": 3, "velocity": 104}, {"time": 1246, "pitch": 75, "duration": 3, "velocity": 108}, {"time": 1249, "pitch": 73, "duration": 3, "velocity": 114}, {"time": 1252, "pitch": 68, "duration": 6, "velocity": 113}, {"time": 1330, "pitch": 68, "duration": 4, "velocity": 113}, {"time": 1333, "pitch": 70, "duration": 3, "velocity": 107}, {"time": 1336, "pitch": 68, "duration": 4, "velocity": 107}, {"time": 1339, "pitch": 70, "duration": 3, "velocity": 110}, {"time": 1342, "pitch": 73, "duration": 4, "velocity": 102}, {"time": 1345, "pitch": 75, "duration": 4, "velocity": 110}, {"time": 1348, "pitch": 77, "duration": 9, "velocity": 114}, {"time": 1432, "pitch": 73, "duration": 4, "velocity": 113}, {"time": 1435, "pitch": 75, "duration": 4, "velocity": 110}, {"time": 1438, "pitch": 77, "duration": 2, "velocity": 108}, {"time": 1441, "pitch": 80, "duration": 3, "velocity": 100}, {"time": 1444, "pitch": 82, "duration": 6, "velocity": 110}, {"time": 1456, "pitch": 80, "duration": 12, "velocity": 114}, {"time": 1468, "pitch": 77, "duration": 6, "velocity": 113}, {"time": 1474, "pitch": 75, "duration": 3, "velocity": 114}, {"time": 1477, "pitch": 73, "duration": 3, "velocity": 110}, {"time": 1480, "pitch": 70, "duration": 6, "velocity": 113}, {"time": 1492, "pitch": 67, "duration": 10, "velocity": 119}, {"time": 1504, "pitch": 70, "duration": 12, "velocity": 120}, {"time": 1516, "pitch": 68, "duration": 3, "velocity": 119}, {"time": 1522, "pitch": 68, "duration": 3, "velocity": 117}, {"time": 1525, "pitch": 70, "duration": 3, "velocity": 113}, {"time": 1528, "pitch": 68, "duration": 4, "velocity": 113}, {"time": 1531, "pitch": 70, "duration": 3, "velocity": 116}, {"time": 1534, "pitch": 73, "duration": 3, "velocity": 116}, {"time": 1537, "pitch": 75, "duration": 3, "velocity": 104}, {"time": 1540, "pitch": 82, "duration": 13, "velocity": 120}, {"time": 1552, "pitch": 80, "duration": 12, "velocity": 117}, {"time": 1564, "pitch": 77, "duration": 6, "velocity": 114}, {"time": 1570, "pitch": 75, "duration": 3, "velocity": 114}, {"time": 1573, "pitch": 73, "duration": 3, "velocity": 113}, {"time": 1576, "pitch": 70, "duration": 9, "velocity": 117}, {"time": 1588, "pitch": 75, "duration": 18, "velocity": 119}, {"time": 1612, "pitch": 70, "duration": 17, "velocity": 119}, {"time": 1643, "pitch": 68, "duration": 3, "velocity": 116}, {"time": 1646, "pitch": 70, "duration": 3, "velocity": 113}, {"time": 1649, "pitch": 68, "duration": 3, "velocity": 116}, {"time": 1652, "pitch": 70, "duration": 2, "velocity": 113}, {"time": 1655, "pitch": 73, "duration": 3, "velocity": 113}, {"time": 1658, "pitch": 75, "duration": 3, "velocity": 116}, {"time": 1661, "pitch": 80, "duration": 11, "velocity": 117}, {"time": 1673, "pitch": 80, "duration": 5, "velocity": 114}, {"time": 1679, "pitch": 77, "duration": 2, "velocity": 117}, {"time": 1682, "pitch": 80, "duration": 2, "velocity": 114}, {"time": 1685, "pitch": 82, "duration": 12, "velocity": 119}, {"time": 1697, "pitch": 80, "duration": 2, "velocity": 116}, {"time": 1700, "pitch": 77, "duration": 3, "velocity": 107}, {"time": 1703, "pitch": 75, "duration": 3, "velocity": 108}, {"time": 1706, "pitch": 73, "duration": 3, "velocity": 108}, {"time": 1709, "pitch": 70, "duration": 4, "velocity": 110}, {"time": 1709, "pitch": 82, "duration": 3, "velocity": 120}, {"time": 1715, "pitch": 82, "duration": 2, "velocity": 116}, {"time": 1721, "pitch": 82, "duration": 6, "velocity": 119}, {"time": 1727, "pitch": 80, "duration": 3, "velocity": 114}, {"time": 1730, "pitch": 77, "duration": 2, "velocity": 107}, {"time": 1733, "pitch": 75, "duration": 5, "velocity": 107}, {"time": 1745, "pitch": 68, "duration": 3, "velocity": 116}, {"time": 1748, "pitch": 70, "duration": 2, "velocity": 104}, {"time": 1751, "pitch": 73, "duration": 3, "velocity": 102}, {"time": 1754, "pitch": 75, "duration": 3, "velocity": 107}, {"time": 1757, "pitch": 82, "duration": 4, "velocity": 119}, {"time": 1763, "pitch": 80, "duration": 2, "velocity": 116}, {"time": 1766, "pitch": 82, "duration": 2, "velocity": 117}, {"time": 1769, "pitch": 80, "duration": 3, "velocity": 119}, {"time": 1778, "pitch": 77, "duration": 3, "velocity": 114}, {"time": 1781, "pitch": 75, "duration": 2, "velocity": 113}, {"time": 1784, "pitch": 77, "duration": 3, "velocity": 108}, {"time": 1787, "pitch": 75, "duration": 2, "velocity": 110}, {"time": 1790, "pitch": 73, "duration": 3, "velocity": 114}, {"time": 1793, "pitch": 70, "duration": 5, "velocity": 114}, {"time": 1805, "pitch": 75, "duration": 4, "velocity": 119}, {"time": 1811, "pitch": 75, "duration": 1, "velocity": 117}, {"time": 1814, "pitch": 75, "duration": 1, "velocity": 116}, {"time": 1817, "pitch": 75, "duration": 3, "velocity": 119}, {"time": 1820, "pitch": 73, "duration": 2, "velocity": 108}, {"time": 1823, "pitch": 70, "duration": 5, "velocity": 113}, {"time": 1829, "pitch": 68, "duration": 8, "velocity": 117}, {"time": 1841, "pitch": 68, "duration": 3, "velocity": 108}, {"time": 1844, "pitch": 70, "duration": 2, "velocity": 107}, {"time": 1847, "pitch": 73, "duration": 3, "velocity": 108}, {"time": 1850, "pitch": 75, "duration": 3, "velocity": 113}, {"time": 1853, "pitch": 80, "duration": 7, "velocity": 108}]}, {"program": 0, "is_drum": false, "name": "PIANO", "notes": [{"time": 3, "pitch": 49, "duration": 19, "velocity": 83}, {"time": 3, "pitch": 65, "duration": 11, "velocity": 74}, {"time": 3, "pitch": 73, "duration": 5, "velocity": 87}, {"time": 9, "pitch": 56, "duration": 13, "velocity": 42}, {"time": 12, "pitch": 61, "duration": 9, "velocity": 81}, {"time": 15, "pitch": 63, "duration": 5, "velocity": 87}, {"time": 18, "pitch": 65, "duration": 4, "velocity": 77}, {"time": 21, "pitch": 68, "duration": 7, "velocity": 96}, {"time": 27, "pitch": 46, "duration": 19, "velocity": 81}, {"time": 27, "pitch": 61, "duration": 12, "velocity": 86}, {"time": 27, "pitch": 70, "duration": 4, "velocity": 91}, {"time": 33, "pitch": 53, "duration": 12, "velocity": 40}, {"time": 36, "pitch": 58, "duration": 10, "velocity": 76}, {"time": 39, "pitch": 60, "duration": 8, "velocity": 91}, {"time": 45, "pitch": 61, "duration": 4, "velocity": 83}, {"time": 48, "pitch": 58, "duration": 10, "velocity": 81}, {"time": 51, "pitch": 42, "duration": 12, "velocity": 81}, {"time": 51, "pitch": 61, "duration": 7, "velocity": 81}, {"time": 51, "pitch": 66, "duration": 9, "velocity": 96}, {"time": 63, "pitch": 41, "duration": 6, "velocity": 82}, {"time": 63, "pitch": 58, "duration": 13, "velocity": 76}, {"time": 63, "pitch": 62, "duration": 15, "velocity": 78}, {"time": 63, "pitch": 68, "duration": 9, "velocity": 92}, {"time": 75, "pitch": 51, "duration": 19, "velocity": 82}, {"time": 75, "pitch": 58, "duration": 1, "velocity": 65}, {"time": 75, "pitch": 63, "duration": 7, "velocity": 85}, {"time": 75, "pitch": 66, "duration": 8, "velocity": 86}, {"time": 81, "pitch": 58, "duration": 12, "velocity": 38}, {"time": 84, "pitch": 65, "duration": 4, "velocity": 84}, {"time": 87, "pitch": 66, "duration": 5, "velocity": 89}, {"time": 99, "pitch": 49, "duration": 24, "velocity": 81}, {"time": 99, "pitch": 63, "duration": 8, "velocity": 84}, {"time": 99, "pitch": 68, "duration": 8, "velocity": 86}, {"time": 105, "pitch": 56, "duration": 10, "velocity": 65}, {"time": 111, "pitch": 61, "duration": 4, "velocity": 81}, {"time": 114, "pitch": 63, "duration": 6, "velocity": 84}, {"time": 117, "pitch": 65, "duration": 3, "velocity": 87}, {"time": 120, "pitch": 68, "duration": 15, "velocity": 88}, {"time": 123, "pitch": 46, "duration": 25, "velocity": 74}, {"time": 123, "pitch": 58, "duration": 11, "velocity": 79}, {"time": 123, "pitch": 61, "duration": 11, "velocity": 78}, {"time": 135, "pitch": 58, "duration": 6, "velocity": 82}, {"time": 135, "pitch": 61, "duration": 7, "velocity": 82}, {"time": 135, "pitch": 68, "duration": 8, "velocity": 86}, {"time": 141, "pitch": 60, "duration": 4, "velocity": 86}, {"time": 147, "pitch": 39, "duration": 23, "velocity": 90}, {"time": 147, "pitch": 51, "duration": 19, "velocity": 81}, {"time": 147, "pitch": 63, "duration": 12, "velocity": 66}, {"time": 147, "pitch": 66, "duration": 2, "velocity": 74}, {"time": 147, "pitch": 70, "duration": 15, "velocity": 88}, {"time": 156, "pitch": 58, "duration": 9, "velocity": 81}, {"time": 162, "pitch": 65, "duration": 5, "velocity": 83}, {"time": 165, "pitch": 66, "duration": 3, "velocity": 82}, {"time": 168, "pitch": 70, "duration": 22, "velocity": 87}, {"time": 171, "pitch": 44, "duration": 22, "velocity": 79}, {"time": 171, "pitch": 60, "duration": 13, "velocity": 81}, {"time": 171, "pitch": 63, "duration": 15, "velocity": 84}, {"time": 183, "pitch": 56, "duration": 11, "velocity": 69}, {"time": 186, "pitch": 61, "duration": 5, "velocity": 80}, {"time": 189, "pitch": 63, "duration": 3, "velocity": 80}, {"time": 192, "pitch": 70, "duration": 3, "velocity": 86}, {"time": 195, "pitch": 49, "duration": 41, "velocity": 84}, {"time": 195, "pitch": 61, "duration": 40, "velocity": 84}, {"time": 195, "pitch": 65, "duration": 9, "velocity": 91}, {"time": 195, "pitch": 68, "duration": 8, "velocity": 98}, {"time": 195, "pitch": 73, "duration": 7, "velocity": 89}, {"time": 207, "pitch": 65, "duration": 10, "velocity": 88}, {"time": 207, "pitch": 68, "duration": 10, "velocity": 96}, {"time": 207, "pitch": 73, "duration": 9, "velocity": 89}, {"time": 219, "pitch": 65, "duration": 9, "velocity": 86}, {"time": 219, "pitch": 68, "duration": 9, "velocity": 90}, {"time": 219, "pitch": 73, "duration": 9, "velocity": 84}, {"time": 231, "pitch": 65, "duration": 9, "velocity": 91}, {"time": 231, "pitch": 68, "duration": 10, "velocity": 100}, {"time": 231, "pitch": 73, "duration": 9, "velocity": 88}, {"time": 243, "pitch": 46, "duration": 23, "velocity": 82}, {"time": 243, "pitch": 58, "duration": 19, "velocity": 84}, {"time": 243, "pitch": 65, "duration": 9, "velocity": 86}, {"time": 243, "pitch": 70, "duration": 9, "velocity": 89}, {"time": 243, "pitch": 73, "duration": 9, "velocity": 85}, {"time": 255, "pitch": 65, "duration": 8, "velocity": 89}, {"time": 255, "pitch": 70, "duration": 10, "velocity": 90}, {"time": 255, "pitch": 73, "duration": 9, "velocity": 86}, {"time": 267, "pitch": 44, "duration": 9, "velocity": 88}, {"time": 267, "pitch": 56, "duration": 6, "velocity": 86}, {"time": 267, "pitch": 63, "duration": 11, "velocity": 85}, {"time": 267, "pitch": 68, "duration": 10, "velocity": 88}, {"time": 267, "pitch": 72, "duration": 10, "velocity": 87}, {"time": 276, "pitch": 44, "duration": 5, "velocity": 80}, {"time": 276, "pitch": 56, "duration": 5, "velocity": 85}, {"time": 279, "pitch": 63, "duration": 7, "velocity": 107}, {"time": 279, "pitch": 68, "duration": 9, "velocity": 116}, {"time": 279, "pitch": 72, "duration": 8, "velocity": 110}, {"time": 285, "pitch": 44, "duration": 4, "velocity": 82}, {"time": 285, "pitch": 56, "duration": 5, "velocity": 80}, {"time": 291, "pitch": 49, "duration": 16, "velocity": 91}, {"time": 291, "pitch": 65, "duration": 11, "velocity": 89}, {"time": 291, "pitch": 68, "duration": 10, "velocity": 91}, {"time": 291, "pitch": 73, "duration": 10, "velocity": 88}, {"time": 303, "pitch": 65, "duration": 10, "velocity": 104}, {"time": 303, "pitch": 68, "duration": 11, "velocity": 104}, {"time": 303, "pitch": 73, "duration": 10, "velocity": 96}, {"time": 309, "pitch": 49, "duration": 3, "velocity": 86}, {"time": 312, "pitch": 48, "duration": 4, "velocity": 81}, {"time": 315, "pitch": 46, "duration": 23, "velocity": 86}, {"time": 315, "pitch": 65, "duration": 9, "velocity": 90}, {"time": 315, "pitch": 70, "duration": 9, "velocity": 93}, {"time": 315, "pitch": 73, "duration": 9, "velocity": 88}, {"time": 327, "pitch": 65, "duration": 9, "velocity": 94}, {"time": 327, "pitch": 70, "duration": 10, "velocity": 91}, {"time": 327, "pitch": 73, "duration": 9, "velocity": 88}, {"time": 339, "pitch": 39, "duration": 19, "velocity": 88}, {"time": 339, "pitch": 51, "duration": 23, "velocity": 91}, {"time": 339, "pitch": 63, "duration": 10, "velocity": 91}, {"time": 339, "pitch": 66, "duration": 10, "velocity": 98}, {"time": 339, "pitch": 70, "duration": 9, "velocity": 91}, {"time": 339, "pitch": 72, "duration": 8, "velocity": 88}, {"time": 351, "pitch": 63, "duration": 11, "velocity": 94}, {"time": 351, "pitch": 66, "duration": 8, "velocity": 104}, {"time": 351, "pitch": 70, "duration": 8, "velocity": 89}, {"time": 363, "pitch": 44, "duration": 18, "velocity": 85}, {"time": 363, "pitch": 60, "duration": 10, "velocity": 86}, {"time": 363, "pitch": 63, "duration": 9, "velocity": 90}, {"time": 363, "pitch": 68, "duration": 10, "velocity": 89}, {"time": 369, "pitch": 51, "duration": 12, "velocity": 77}, {"time": 375, "pitch": 56, "duration": 6, "velocity": 92}, {"time": 378, "pitch": 58, "duration": 3, "velocity": 94}, {"time": 381, "pitch": 60, "duration": 3, "velocity": 96}, {"time": 384, "pitch": 63, "duration": 3, "velocity": 96}, {"time": 387, "pitch": 49, "duration": 21, "velocity": 83}, {"time": 387, "pitch": 63, "duration": 10, "velocity": 91}, {"time": 387, "pitch": 68, "duration": 10, "velocity": 88}, {"time": 393, "pitch": 56, "duration": 12, "velocity": 75}, {"time": 396, "pitch": 61, "duration": 8, "velocity": 86}, {"time": 399, "pitch": 65, "duration": 4, "velocity": 89}, {"time": 402, "pitch": 68, "duration": 4, "velocity": 86}, {"time": 405, "pitch": 65, "duration": 3, "velocity": 87}, {"time": 408, "pitch": 63, "duration": 3, "velocity": 87}, {"time": 411, "pitch": 46, "duration": 19, "velocity": 80}, {"time": 411, "pitch": 61, "duration": 9, "velocity": 86}, {"time": 417, "pitch": 53, "duration": 13, "velocity": 65}, {"time": 420, "pitch": 58, "duration": 16, "velocity": 85}, {"time": 423, "pitch": 61, "duration": 6, "velocity": 84}, {"time": 426, "pitch": 65, "duration": 6, "velocity": 78}, {"time": 429, "pitch": 68, "duration": 3, "velocity": 84}, {"time": 432, "pitch": 70, "duration": 4, "velocity": 86}, {"time": 435, "pitch": 51, "duration": 20, "velocity": 78}, {"time": 435, "pitch": 66, "duration": 9, "velocity": 84}, {"time": 441, "pitch": 58, "duration": 12, "velocity": 78}, {"time": 444, "pitch": 63, "duration": 9, "velocity": 87}, {"time": 447, "pitch": 66, "duration": 5, "velocity": 82}, {"time": 450, "pitch": 75, "duration": 6, "velocity": 90}, {"time": 453, "pitch": 73, "duration": 4, "velocity": 86}, {"time": 456, "pitch": 70, "duration": 4, "velocity": 85}, {"time": 459, "pitch": 49, "duration": 46, "velocity": 83}, {"time": 465, "pitch": 56, "duration": 20, "velocity": 68}, {"time": 468, "pitch": 61, "duration": 21, "velocity": 82}, {"time": 471, "pitch": 63, "duration": 4, "velocity": 87}, {"time": 471, "pitch": 68, "duration": 3, "velocity": 79}, {"time": 474, "pitch": 65, "duration": 2, "velocity": 85}, {"time": 477, "pitch": 65, "duration": 4, "velocity": 81}, {"time": 480, "pitch": 68, "duration": 4, "velocity": 81}, {"time": 483, "pitch": 65, "duration": 11, "velocity": 84}, {"time": 483, "pitch": 73, "duration": 7, "velocity": 89}, {"time": 489, "pitch": 56, "duration": 15, "velocity": 68}, {"time": 492, "pitch": 61, "duration": 9, "velocity": 81}, {"time": 495, "pitch": 63, "duration": 7, "velocity": 94}, {"time": 495, "pitch": 68, "duration": 5, "velocity": 98}, {"time": 501, "pitch": 65, "duration": 4, "velocity": 88}, {"time": 504, "pitch": 68, "duration": 6, "velocity": 90}, {"time": 507, "pitch": 49, "duration": 21, "velocity": 83}, {"time": 510, "pitch": 56, "duration": 10, "velocity": 76}, {"time": 513, "pitch": 61, "duration": 8, "velocity": 85}, {"time": 516, "pitch": 63, "duration": 4, "velocity": 87}, {"time": 519, "pitch": 68, "duration": 6, "velocity": 94}, {"time": 522, "pitch": 56, "duration": 6, "velocity": 86}, {"time": 525, "pitch": 63, "duration": 4, "velocity": 88}, {"time": 528, "pitch": 65, "duration": 2, "velocity": 91}, {"time": 531, "pitch": 42, "duration": 6, "velocity": 104}, {"time": 531, "pitch": 61, "duration": 9, "velocity": 104}, {"time": 531, "pitch": 66, "duration": 8, "velocity": 116}, {"time": 531, "pitch": 70, "duration": 11, "velocity": 107}, {"time": 543, "pitch": 43, "duration": 7, "velocity": 86}, {"time": 543, "pitch": 55, "duration": 7, "velocity": 87}, {"time": 543, "pitch": 63, "duration": 10, "velocity": 102}, {"time": 543, "pitch": 67, "duration": 8, "velocity": 113}, {"time": 543, "pitch": 70, "duration": 8, "velocity": 107}, {"time": 552, "pitch": 60, "duration": 9, "velocity": 76}, {"time": 555, "pitch": 44, "duration": 19, "velocity": 92}, {"time": 555, "pitch": 63, "duration": 8, "velocity": 85}, {"time": 555, "pitch": 68, "duration": 7, "velocity": 107}, {"time": 558, "pitch": 51, "duration": 16, "velocity": 88}, {"time": 561, "pitch": 56, "duration": 7, "velocity": 108}, {"time": 564, "pitch": 58, "duration": 4, "velocity": 107}, {"time": 567, "pitch": 60, "duration": 5, "velocity": 108}, {"time": 570, "pitch": 56, "duration": 8, "velocity": 113}, {"time": 573, "pitch": 63, "duration": 4, "velocity": 110}, {"time": 576, "pitch": 68, "duration": 11, "velocity": 96}, {"time": 579, "pitch": 49, "duration": 21, "velocity": 88}, {"time": 579, "pitch": 61, "duration": 5, "velocity": 102}, {"time": 579, "pitch": 65, "duration": 7, "velocity": 107}, {"time": 585, "pitch": 56, "duration": 15, "velocity": 78}, {"time": 588, "pitch": 61, "duration": 5, "velocity": 100}, {"time": 591, "pitch": 65, "duration": 9, "velocity": 110}, {"time": 591, "pitch": 68, "duration": 10, "velocity": 117}, {"time": 591, "pitch": 73, "duration": 9, "velocity": 100}, {"time": 597, "pitch": 61, "duration": 2, "velocity": 100}, {"time": 603, "pitch": 46, "duration": 16, "velocity": 98}, {"time": 603, "pitch": 65, "duration": 10, "velocity": 104}, {"time": 603, "pitch": 70, "duration": 7, "velocity": 116}, {"time": 603, "pitch": 73, "duration": 7, "velocity": 98}, {"time": 609, "pitch": 53, "duration": 9, "velocity": 78}, {"time": 612, "pitch": 58, "duration": 6, "velocity": 102}, {"time": 615, "pitch": 61, "duration": 7, "velocity": 107}, {"time": 615, "pitch": 65, "duration": 9, "velocity": 110}, {"time": 615, "pitch": 70, "duration": 7, "velocity": 89}, {"time": 621, "pitch": 46, "duration": 5, "velocity": 88}, {"time": 627, "pitch": 46, "duration": 12, "velocity": 88}, {"time": 627, "pitch": 62, "duration": 9, "velocity": 103}, {"time": 627, "pitch": 65, "duration": 9, "velocity": 116}, {"time": 627, "pitch": 70, "duration": 9, "velocity": 114}, {"time": 639, "pitch": 50, "duration": 10, "velocity": 100}, {"time": 639, "pitch": 62, "duration": 9, "velocity": 106}, {"time": 639, "pitch": 65, "duration": 12, "velocity": 117}, {"time": 639, "pitch": 70, "duration": 9, "velocity": 113}, {"time": 651, "pitch": 39, "duration": 19, "velocity": 96}, {"time": 651, "pitch": 63, "duration": 11, "velocity": 94}, {"time": 651, "pitch": 66, "duration": 6, "velocity": 110}, {"time": 651, "pitch": 70, "duration": 7, "velocity": 92}, {"time": 657, "pitch": 46, "duration": 13, "velocity": 77}, {"time": 660, "pitch": 51, "duration": 6, "velocity": 104}, {"time": 663, "pitch": 58, "duration": 7, "velocity": 107}, {"time": 663, "pitch": 63, "duration": 7, "velocity": 110}, {"time": 663, "pitch": 66, "duration": 7, "velocity": 88}, {"time": 669, "pitch": 51, "duration": 4, "velocity": 87}, {"time": 675, "pitch": 42, "duration": 20, "velocity": 102}, {"time": 678, "pitch": 49, "duration": 17, "velocity": 84}, {"time": 681, "pitch": 54, "duration": 9, "velocity": 87}, {"time": 684, "pitch": 61, "duration": 3, "velocity": 77}, {"time": 687, "pitch": 61, "duration": 9, "velocity": 91}, {"time": 687, "pitch": 66, "duration": 8, "velocity": 107}, {"time": 687, "pitch": 70, "duration": 8, "velocity": 100}, {"time": 699, "pitch": 44, "duration": 10, "velocity": 87}, {"time": 699, "pitch": 60, "duration": 9, "velocity": 89}, {"time": 699, "pitch": 63, "duration": 10, "velocity": 100}, {"time": 699, "pitch": 68, "duration": 8, "velocity": 93}, {"time": 711, "pitch": 46, "duration": 9, "velocity": 89}, {"time": 711, "pitch": 61, "duration": 9, "velocity": 87}, {"time": 711, "pitch": 65, "duration": 10, "velocity": 88}, {"time": 711, "pitch": 70, "duration": 9, "velocity": 88}, {"time": 717, "pitch": 53, "duration": 4, "velocity": 75}, {"time": 720, "pitch": 58, "duration": 4, "velocity": 84}, {"time": 723, "pitch": 51, "duration": 14, "velocity": 93}, {"time": 723, "pitch": 63, "duration": 10, "velocity": 98}, {"time": 723, "pitch": 67, "duration": 10, "velocity": 109}, {"time": 723, "pitch": 70, "duration": 9, "velocity": 104}, {"time": 732, "pitch": 58, "duration": 6, "velocity": 87}, {"time": 735, "pitch": 63, "duration": 11, "velocity": 104}, {"time": 735, "pitch": 67, "duration": 11, "velocity": 113}, {"time": 735, "pitch": 70, "duration": 8, "velocity": 104}, {"time": 741, "pitch": 51, "duration": 7, "velocity": 86}, {"time": 747, "pitch": 44, "duration": 19, "velocity": 88}, {"time": 747, "pitch": 60, "duration": 11, "velocity": 96}, {"time": 747, "pitch": 63, "duration": 11, "velocity": 104}, {"time": 747, "pitch": 68, "duration": 10, "velocity": 107}, {"time": 753, "pitch": 51, "duration": 13, "velocity": 80}, {"time": 756, "pitch": 56, "duration": 13, "velocity": 96}, {"time": 759, "pitch": 60, "duration": 5, "velocity": 114}, {"time": 762, "pitch": 63, "duration": 8, "velocity": 108}, {"time": 765, "pitch": 60, "duration": 3, "velocity": 80}, {"time": 765, "pitch": 68, "duration": 4, "velocity": 108}, {"time": 772, "pitch": 49, "duration": 19, "velocity": 83}, {"time": 772, "pitch": 65, "duration": 11, "velocity": 74}, {"time": 772, "pitch": 73, "duration": 5, "velocity": 87}, {"time": 778, "pitch": 56, "duration": 13, "velocity": 42}, {"time": 781, "pitch": 61, "duration": 9, "velocity": 81}, {"time": 784, "pitch": 63, "duration": 4, "velocity": 87}, {"time": 787, "pitch": 65, "duration": 4, "velocity": 77}, {"time": 790, "pitch": 68, "duration": 6, "velocity": 96}, {"time": 796, "pitch": 46, "duration": 19, "velocity": 81}, {"time": 796, "pitch": 61, "duration": 11, "velocity": 86}, {"time": 796, "pitch": 70, "duration": 4, "velocity": 91}, {"time": 802, "pitch": 53, "duration": 12, "velocity": 40}, {"time": 805, "pitch": 58, "duration": 9, "velocity": 76}, {"time": 808, "pitch": 60, "duration": 7, "velocity": 91}, {"time": 814, "pitch": 61, "duration": 4, "velocity": 83}, {"time": 817, "pitch": 58, "duration": 9, "velocity": 81}, {"time": 820, "pitch": 42, "duration": 12, "velocity": 81}, {"time": 820, "pitch": 61, "duration": 7, "velocity": 81}, {"time": 820, "pitch": 66, "duration": 8, "velocity": 96}, {"time": 832, "pitch": 41, "duration": 6, "velocity": 82}, {"time": 832, "pitch": 58, "duration": 13, "velocity": 76}, {"time": 832, "pitch": 62, "duration": 14, "velocity": 78}, {"time": 832, "pitch": 68, "duration": 9, "velocity": 92}, {"time": 844, "pitch": 51, "duration": 19, "velocity": 82}, {"time": 844, "pitch": 58, "duration": 1, "velocity": 65}, {"time": 844, "pitch": 63, "duration": 6, "velocity": 85}, {"time": 844, "pitch": 66, "duration": 8, "velocity": 86}, {"time": 850, "pitch": 58, "duration": 12, "velocity": 38}, {"time": 853, "pitch": 65, "duration": 4, "velocity": 84}, {"time": 856, "pitch": 66, "duration": 5, "velocity": 89}, {"time": 868, "pitch": 49, "duration": 24, "velocity": 81}, {"time": 868, "pitch": 63, "duration": 8, "velocity": 84}, {"time": 868, "pitch": 68, "duration": 7, "velocity": 86}, {"time": 874, "pitch": 56, "duration": 10, "velocity": 65}, {"time": 880, "pitch": 61, "duration": 4, "velocity": 81}, {"time": 883, "pitch": 63, "duration": 5, "velocity": 84}, {"time": 886, "pitch": 65, "duration": 3, "velocity": 87}, {"time": 889, "pitch": 68, "duration": 14, "velocity": 88}, {"time": 892, "pitch": 46, "duration": 24, "velocity": 74}, {"time": 892, "pitch": 58, "duration": 10, "velocity": 79}, {"time": 892, "pitch": 61, "duration": 11, "velocity": 78}, {"time": 904, "pitch": 58, "duration": 5, "velocity": 82}, {"time": 904, "pitch": 61, "duration": 7, "velocity": 82}, {"time": 904, "pitch": 68, "duration": 8, "velocity": 86}, {"time": 910, "pitch": 60, "duration": 4, "velocity": 86}, {"time": 916, "pitch": 39, "duration": 22, "velocity": 90}, {"time": 916, "pitch": 51, "duration": 18, "velocity": 81}, {"time": 916, "pitch": 63, "duration": 12, "velocity": 66}, {"time": 916, "pitch": 66, "duration": 2, "velocity": 74}, {"time": 916, "pitch": 70, "duration": 14, "velocity": 88}, {"time": 925, "pitch": 58, "duration": 9, "velocity": 81}, {"time": 931, "pitch": 65, "duration": 4, "velocity": 83}, {"time": 934, "pitch": 66, "duration": 3, "velocity": 82}, {"time": 937, "pitch": 70, "duration": 22, "velocity": 87}, {"time": 940, "pitch": 44, "duration": 22, "velocity": 79}, {"time": 940, "pitch": 60, "duration": 12, "velocity": 81}, {"time": 940, "pitch": 63, "duration": 15, "velocity": 84}, {"time": 952, "pitch": 56, "duration": 10, "velocity": 69}, {"time": 955, "pitch": 61, "duration": 4, "velocity": 80}, {"time": 958, "pitch": 63, "duration": 3, "velocity": 80}, {"time": 961, "pitch": 70, "duration": 3, "velocity": 86}, {"time": 964, "pitch": 49, "duration": 41, "velocity": 84}, {"time": 964, "pitch": 61, "duration": 40, "velocity": 84}, {"time": 964, "pitch": 65, "duration": 8, "velocity": 91}, {"time": 964, "pitch": 68, "duration": 8, "velocity": 98}, {"time": 964, "pitch": 73, "duration": 7, "velocity": 89}, {"time": 976, "pitch": 65, "duration": 9, "velocity": 88}, {"time": 976, "pitch": 68, "duration": 10, "velocity": 96}, {"time": 976, "pitch": 73, "duration": 9, "velocity": 89}, {"time": 988, "pitch": 65, "duration": 9, "velocity": 86}, {"time": 988, "pitch": 68, "duration": 8, "velocity": 90}, {"time": 988, "pitch": 73, "duration": 8, "velocity": 84}, {"time": 1000, "pitch": 65, "duration": 9, "velocity": 91}, {"time": 1000, "pitch": 68, "duration": 10, "velocity": 100}, {"time": 1000, "pitch": 73, "duration": 9, "velocity": 88}, {"time": 1012, "pitch": 46, "duration": 23, "velocity": 82}, {"time": 1012, "pitch": 58, "duration": 19, "velocity": 84}, {"time": 1012, "pitch": 65, "duration": 9, "velocity": 86}, {"time": 1012, "pitch": 70, "duration": 9, "velocity": 89}, {"time": 1012, "pitch": 73, "duration": 9, "velocity": 85}, {"time": 1024, "pitch": 65, "duration": 8, "velocity": 89}, {"time": 1024, "pitch": 70, "duration": 9, "velocity": 90}, {"time": 1024, "pitch": 73, "duration": 9, "velocity": 86}, {"time": 1036, "pitch": 44, "duration": 8, "velocity": 88}, {"time": 1036, "pitch": 56, "duration": 6, "velocity": 86}, {"time": 1036, "pitch": 63, "duration": 10, "velocity": 85}, {"time": 1036, "pitch": 68, "duration": 10, "velocity": 88}, {"time": 1036, "pitch": 72, "duration": 10, "velocity": 87}, {"time": 1045, "pitch": 44, "duration": 5, "velocity": 80}, {"time": 1045, "pitch": 56, "duration": 4, "velocity": 85}, {"time": 1048, "pitch": 63, "duration": 7, "velocity": 107}, {"time": 1048, "pitch": 68, "duration": 9, "velocity": 116}, {"time": 1048, "pitch": 72, "duration": 7, "velocity": 110}, {"time": 1054, "pitch": 44, "duration": 4, "velocity": 82}, {"time": 1054, "pitch": 56, "duration": 5, "velocity": 80}, {"time": 1060, "pitch": 49, "duration": 16, "velocity": 91}, {"time": 1060, "pitch": 65, "duration": 10, "velocity": 89}, {"time": 1060, "pitch": 68, "duration": 10, "velocity": 91}, {"time": 1060, "pitch": 73, "duration": 9, "velocity": 88}, {"time": 1072, "pitch": 65, "duration": 10, "velocity": 104}, {"time": 1072, "pitch": 68, "duration": 10, "velocity": 104}, {"time": 1072, "pitch": 73, "duration": 10, "velocity": 96}, {"time": 1078, "pitch": 49, "duration": 3, "velocity": 86}, {"time": 1081, "pitch": 48, "duration": 3, "velocity": 81}, {"time": 1084, "pitch": 46, "duration": 23, "velocity": 86}, {"time": 1084, "pitch": 65, "duration": 9, "velocity": 90}, {"time": 1084, "pitch": 70, "duration": 9, "velocity": 93}, {"time": 1084, "pitch": 73, "duration": 9, "velocity": 88}, {"time": 1096, "pitch": 65, "duration": 9, "velocity": 94}, {"time": 1096, "pitch": 70, "duration": 9, "velocity": 91}, {"time": 1096, "pitch": 73, "duration": 9, "velocity": 88}, {"time": 1108, "pitch": 39, "duration": 18, "velocity": 88}, {"time": 1108, "pitch": 51, "duration": 23, "velocity": 91}, {"time": 1108, "pitch": 63, "duration": 10, "velocity": 91}, {"time": 1108, "pitch": 66, "duration": 10, "velocity": 98}, {"time": 1108, "pitch": 70, "duration": 9, "velocity": 91}, {"time": 1108, "pitch": 72, "duration": 8, "velocity": 88}, {"time": 1120, "pitch": 63, "duration": 11, "velocity": 94}, {"time": 1120, "pitch": 66, "duration": 8, "velocity": 104}, {"time": 1120, "pitch": 70, "duration": 7, "velocity": 89}, {"time": 1132, "pitch": 44, "duration": 18, "velocity": 85}, {"time": 1132, "pitch": 60, "duration": 10, "velocity": 86}, {"time": 1132, "pitch": 63, "duration": 9, "velocity": 90}, {"time": 1132, "pitch": 68, "duration": 9, "velocity": 89}, {"time": 1138, "pitch": 51, "duration": 12, "velocity": 77}, {"time": 1144, "pitch": 56, "duration": 6, "velocity": 92}, {"time": 1147, "pitch": 58, "duration": 3, "velocity": 94}, {"time": 1150, "pitch": 60, "duration": 3, "velocity": 96}, {"time": 1153, "pitch": 63, "duration": 3, "velocity": 96}, {"time": 1156, "pitch": 49, "duration": 21, "velocity": 89}, {"time": 1156, "pitch": 65, "duration": 9, "velocity": 91}, {"time": 1156, "pitch": 68, "duration": 9, "velocity": 100}, {"time": 1156, "pitch": 73, "duration": 9, "velocity": 88}, {"time": 1162, "pitch": 56, "duration": 13, "velocity": 76}, {"time": 1165, "pitch": 61, "duration": 9, "velocity": 89}, {"time": 1168, "pitch": 63, "duration": 7, "velocity": 104}, {"time": 1174, "pitch": 65, "duration": 15, "velocity": 92}, {"time": 1180, "pitch": 46, "duration": 15, "velocity": 81}, {"time": 1180, "pitch": 61, "duration": 9, "velocity": 88}, {"time": 1180, "pitch": 70, "duration": 9, "velocity": 89}, {"time": 1186, "pitch": 53, "duration": 9, "velocity": 64}, {"time": 1189, "pitch": 58, "duration": 6, "velocity": 86}, {"time": 1192, "pitch": 61, "duration": 7, "velocity": 100}, {"time": 1192, "pitch": 65, "duration": 10, "velocity": 108}, {"time": 1192, "pitch": 70, "duration": 8, "velocity": 98}, {"time": 1198, "pitch": 46, "duration": 6, "velocity": 76}, {"time": 1204, "pitch": 51, "duration": 22, "velocity": 89}, {"time": 1204, "pitch": 63, "duration": 10, "velocity": 88}, {"time": 1204, "pitch": 66, "duration": 10, "velocity": 92}, {"time": 1204, "pitch": 70, "duration": 9, "velocity": 91}, {"time": 1213, "pitch": 58, "duration": 5, "velocity": 81}, {"time": 1216, "pitch": 63, "duration": 8, "velocity": 92}, {"time": 1216, "pitch": 66, "duration": 9, "velocity": 98}, {"time": 1216, "pitch": 70, "duration": 7, "velocity": 91}, {"time": 1222, "pitch": 58, "duration": 4, "velocity": 77}, {"time": 1228, "pitch": 49, "duration": 19, "velocity": 87}, {"time": 1228, "pitch": 61, "duration": 7, "velocity": 87}, {"time": 1228, "pitch": 65, "duration": 10, "velocity": 89}, {"time": 1228, "pitch": 68, "duration": 9, "velocity": 88}, {"time": 1234, "pitch": 56, "duration": 13, "velocity": 67}, {"time": 1237, "pitch": 61, "duration": 9, "velocity": 91}, {"time": 1240, "pitch": 63, "duration": 7, "velocity": 104}, {"time": 1240, "pitch": 68, "duration": 7, "velocity": 110}, {"time": 1246, "pitch": 65, "duration": 5, "velocity": 90}, {"time": 1252, "pitch": 49, "duration": 39, "velocity": 96}, {"time": 1252, "pitch": 61, "duration": 9, "velocity": 100}, {"time": 1252, "pitch": 65, "duration": 9, "velocity": 110}, {"time": 1252, "pitch": 68, "duration": 8, "velocity": 102}, {"time": 1261, "pitch": 56, "duration": 5, "velocity": 82}, {"time": 1264, "pitch": 61, "duration": 9, "velocity": 107}, {"time": 1264, "pitch": 65, "duration": 9, "velocity": 114}, {"time": 1264, "pitch": 68, "duration": 8, "velocity": 102}, {"time": 1270, "pitch": 56, "duration": 12, "velocity": 83}, {"time": 1276, "pitch": 61, "duration": 10, "velocity": 104}, {"time": 1276, "pitch": 65, "duration": 10, "velocity": 114}, {"time": 1276, "pitch": 68, "duration": 10, "velocity": 107}, {"time": 1285, "pitch": 56, "duration": 6, "velocity": 89}, {"time": 1288, "pitch": 61, "duration": 6, "velocity": 102}, {"time": 1288, "pitch": 65, "duration": 7, "velocity": 110}, {"time": 1288, "pitch": 68, "duration": 7, "velocity": 104}, {"time": 1294, "pitch": 49, "duration": 2, "velocity": 87}, {"time": 1300, "pitch": 42, "duration": 6, "velocity": 104}, {"time": 1300, "pitch": 61, "duration": 8, "velocity": 104}, {"time": 1300, "pitch": 66, "duration": 8, "velocity": 116}, {"time": 1300, "pitch": 70, "duration": 10, "velocity": 107}, {"time": 1312, "pitch": 43, "duration": 7, "velocity": 86}, {"time": 1312, "pitch": 55, "duration": 7, "velocity": 87}, {"time": 1312, "pitch": 63, "duration": 9, "velocity": 102}, {"time": 1312, "pitch": 67, "duration": 8, "velocity": 113}, {"time": 1312, "pitch": 70, "duration": 8, "velocity": 107}, {"time": 1321, "pitch": 60, "duration": 8, "velocity": 76}, {"time": 1324, "pitch": 44, "duration": 19, "velocity": 92}, {"time": 1324, "pitch": 63, "duration": 8, "velocity": 85}, {"time": 1324, "pitch": 68, "duration": 6, "velocity": 107}, {"time": 1327, "pitch": 51, "duration": 16, "velocity": 88}, {"time": 1330, "pitch": 56, "duration": 7, "velocity": 108}, {"time": 1333, "pitch": 58, "duration": 3, "velocity": 107}, {"time": 1336, "pitch": 60, "duration": 5, "velocity": 108}, {"time": 1339, "pitch": 56, "duration": 8, "velocity": 113}, {"time": 1342, "pitch": 63, "duration": 3, "velocity": 110}, {"time": 1345, "pitch": 68, "duration": 11, "velocity": 96}, {"time": 1348, "pitch": 49, "duration": 21, "velocity": 88}, {"time": 1348, "pitch": 61, "duration": 5, "velocity": 102}, {"time": 1348, "pitch": 65, "duration": 7, "velocity": 107}, {"time": 1354, "pitch": 56, "duration": 14, "velocity": 78}, {"time": 1357, "pitch": 61, "duration": 5, "velocity": 100}, {"time": 1360, "pitch": 65, "duration": 9, "velocity": 110}, {"time": 1360, "pitch": 68, "duration": 9, "velocity": 117}, {"time": 1360, "pitch": 73, "duration": 9, "velocity": 100}, {"time": 1366, "pitch": 61, "duration": 2, "velocity": 100}, {"time": 1372, "pitch": 46, "duration": 15, "velocity": 98}, {"time": 1372, "pitch": 65, "duration": 10, "velocity": 104}, {"time": 1372, "pitch": 70, "duration": 6, "velocity": 116}, {"time": 1372, "pitch": 73, "duration": 7, "velocity": 98}, {"time": 1378, "pitch": 53, "duration": 9, "velocity": 78}, {"time": 1381, "pitch": 58, "duration": 5, "velocity": 102}, {"time": 1384, "pitch": 61, "duration": 7, "velocity": 107}, {"time": 1384, "pitch": 65, "duration": 9, "velocity": 110}, {"time": 1384, "pitch": 70, "duration": 7, "velocity": 89}, {"time": 1390, "pitch": 46, "duration": 4, "velocity": 88}, {"time": 1396, "pitch": 46, "duration": 12, "velocity": 88}, {"time": 1396, "pitch": 62, "duration": 9, "velocity": 103}, {"time": 1396, "pitch": 65, "duration": 9, "velocity": 116}, {"time": 1396, "pitch": 70, "duration": 9, "velocity": 114}, {"time": 1408, "pitch": 50, "duration": 10, "velocity": 100}, {"time": 1408, "pitch": 62, "duration": 8, "velocity": 106}, {"time": 1408, "pitch": 65, "duration": 12, "velocity": 117}, {"time": 1408, "pitch": 70, "duration": 8, "velocity": 113}, {"time": 1420, "pitch": 39, "duration": 18, "velocity": 96}, {"time": 1420, "pitch": 63, "duration": 11, "velocity": 94}, {"time": 1420, "pitch": 66, "duration": 6, "velocity": 110}, {"time": 1420, "pitch": 70, "duration": 6, "velocity": 92}, {"time": 1426, "pitch": 46, "duration": 13, "velocity": 77}, {"time": 1429, "pitch": 51, "duration": 5, "velocity": 104}, {"time": 1432, "pitch": 58, "duration": 6, "velocity": 107}, {"time": 1432, "pitch": 63, "duration": 7, "velocity": 110}, {"time": 1432, "pitch": 66, "duration": 6, "velocity": 88}, {"time": 1438, "pitch": 51, "duration": 4, "velocity": 87}, {"time": 1444, "pitch": 42, "duration": 20, "velocity": 102}, {"time": 1447, "pitch": 49, "duration": 17, "velocity": 84}, {"time": 1450, "pitch": 54, "duration": 9, "velocity": 87}, {"time": 1453, "pitch": 61, "duration": 2, "velocity": 77}, {"time": 1456, "pitch": 61, "duration": 8, "velocity": 91}, {"time": 1456, "pitch": 66, "duration": 8, "velocity": 107}, {"time": 1456, "pitch": 70, "duration": 8, "velocity": 100}, {"time": 1468, "pitch": 44, "duration": 10, "velocity": 87}, {"time": 1468, "pitch": 60, "duration": 8, "velocity": 89}, {"time": 1468, "pitch": 63, "duration": 10, "velocity": 100}, {"time": 1468, "pitch": 68, "duration": 8, "velocity": 93}, {"time": 1480, "pitch": 46, "duration": 8, "velocity": 89}, {"time": 1480, "pitch": 61, "duration": 9, "velocity": 87}, {"time": 1480, "pitch": 65, "duration": 10, "velocity": 88}, {"time": 1480, "pitch": 70, "duration": 9, "velocity": 88}, {"time": 1486, "pitch": 53, "duration": 3, "velocity": 75}, {"time": 1489, "pitch": 58, "duration": 3, "velocity": 84}, {"time": 1492, "pitch": 51, "duration": 14, "velocity": 93}, {"time": 1492, "pitch": 63, "duration": 10, "velocity": 98}, {"time": 1492, "pitch": 67, "duration": 10, "velocity": 109}, {"time": 1492, "pitch": 70, "duration": 9, "velocity": 104}, {"time": 1501, "pitch": 58, "duration": 5, "velocity": 87}, {"time": 1504, "pitch": 63, "duration": 11, "velocity": 104}, {"time": 1504, "pitch": 67, "duration": 10, "velocity": 113}, {"time": 1504, "pitch": 70, "duration": 8, "velocity": 104}, {"time": 1510, "pitch": 51, "duration": 6, "velocity": 86}, {"time": 1516, "pitch": 44, "duration": 19, "velocity": 88}, {"time": 1516, "pitch": 60, "duration": 10, "velocity": 96}, {"time": 1516, "pitch": 63, "duration": 11, "velocity": 104}, {"time": 1516, "pitch": 68, "duration": 10, "velocity": 107}, {"time": 1522, "pitch": 51, "duration": 13, "velocity": 80}, {"time": 1525, "pitch": 56, "duration": 13, "velocity": 96}, {"time": 1528, "pitch": 60, "duration": 4, "velocity": 114}, {"time": 1531, "pitch": 63, "duration": 8, "velocity": 108}, {"time": 1534, "pitch": 60, "duration": 3, "velocity": 80}, {"time": 1534, "pitch": 68, "duration": 4, "velocity": 108}, {"time": 1540, "pitch": 42, "duration": 8, "velocity": 89}, {"time": 1540, "pitch": 54, "duration": 8, "velocity": 91}, {"time": 1540, "pitch": 61, "duration": 8, "velocity": 91}, {"time": 1540, "pitch": 66, "duration": 10, "velocity": 94}, {"time": 1540, "pitch": 70, "duration": 9, "velocity": 100}, {"time": 1552, "pitch": 44, "duration": 11, "velocity": 87}, {"time": 1552, "pitch": 56, "duration": 6, "velocity": 91}, {"time": 1552, "pitch": 60, "duration": 10, "velocity": 100}, {"time": 1552, "pitch": 63, "duration": 11, "velocity": 113}, {"time": 1552, "pitch": 68, "duration": 8, "velocity": 93}, {"time": 1564, "pitch": 41, "duration": 8, "velocity": 86}, {"time": 1564, "pitch": 53, "duration": 11, "velocity": 93}, {"time": 1564, "pitch": 60, "duration": 9, "velocity": 94}, {"time": 1564, "pitch": 65, "duration": 11, "velocity": 108}, {"time": 1564, "pitch": 68, "duration": 8, "velocity": 100}, {"time": 1576, "pitch": 46, "duration": 8, "velocity": 88}, {"time": 1576, "pitch": 61, "duration": 9, "velocity": 89}, {"time": 1576, "pitch": 65, "duration": 9, "velocity": 93}, {"time": 1576, "pitch": 70, "duration": 9, "velocity": 91}, {"time": 1579, "pitch": 53, "duration": 5, "velocity": 83}, {"time": 1582, "pitch": 58, "duration": 2, "velocity": 90}, {"time": 1588, "pitch": 43, "duration": 18, "velocity": 88}, {"time": 1588, "pitch": 63, "duration": 18, "velocity": 88}, {"time": 1588, "pitch": 67, "duration": 18, "velocity": 91}, {"time": 1588, "pitch": 70, "duration": 18, "velocity": 91}, {"time": 1612, "pitch": 42, "duration": 26, "velocity": 83}, {"time": 1612, "pitch": 58, "duration": 9, "velocity": 68}, {"time": 1612, "pitch": 61, "duration": 8, "velocity": 76}, {"time": 1612, "pitch": 66, "duration": 7, "velocity": 87}, {"time": 1618, "pitch": 49, "duration": 23, "velocity": 70}, {"time": 1621, "pitch": 54, "duration": 21, "velocity": 83}, {"time": 1624, "pitch": 58, "duration": 17, "velocity": 81}, {"time": 1627, "pitch": 61, "duration": 15, "velocity": 86}, {"time": 1630, "pitch": 66, "duration": 9, "velocity": 90}, {"time": 1642, "pitch": 44, "duration": 18, "velocity": 84}, {"time": 1645, "pitch": 51, "duration": 15, "velocity": 87}, {"time": 1648, "pitch": 56, "duration": 12, "velocity": 92}, {"time": 1651, "pitch": 60, "duration": 9, "velocity": 84}, {"time": 1651, "pitch": 63, "duration": 7, "velocity": 88}, {"time": 1654, "pitch": 68, "duration": 5, "velocity": 91}, {"time": 1661, "pitch": 49, "duration": 23, "velocity": 87}, {"time": 1661, "pitch": 61, "duration": 10, "velocity": 85}, {"time": 1661, "pitch": 65, "duration": 9, "velocity": 87}, {"time": 1661, "pitch": 68, "duration": 9, "velocity": 86}, {"time": 1673, "pitch": 61, "duration": 10, "velocity": 93}, {"time": 1673, "pitch": 65, "duration": 11, "velocity": 108}, {"time": 1673, "pitch": 68, "duration": 9, "velocity": 100}, {"time": 1685, "pitch": 46, "duration": 19, "velocity": 87}, {"time": 1685, "pitch": 58, "duration": 18, "velocity": 86}, {"time": 1685, "pitch": 61, "duration": 9, "velocity": 93}, {"time": 1685, "pitch": 65, "duration": 10, "velocity": 102}, {"time": 1685, "pitch": 70, "duration": 8, "velocity": 92}, {"time": 1697, "pitch": 61, "duration": 10, "velocity": 98}, {"time": 1697, "pitch": 65, "duration": 11, "velocity": 107}, {"time": 1697, "pitch": 70, "duration": 9, "velocity": 96}, {"time": 1709, "pitch": 42, "duration": 11, "velocity": 89}, {"time": 1709, "pitch": 54, "duration": 7, "velocity": 92}, {"time": 1709, "pitch": 61, "duration": 7, "velocity": 102}, {"time": 1709, "pitch": 66, "duration": 8, "velocity": 116}, {"time": 1709, "pitch": 70, "duration": 8, "velocity": 94}, {"time": 1721, "pitch": 41, "duration": 11, "velocity": 87}, {"time": 1721, "pitch": 53, "duration": 8, "velocity": 93}, {"time": 1721, "pitch": 62, "duration": 8, "velocity": 93}, {"time": 1721, "pitch": 65, "duration": 11, "velocity": 108}, {"time": 1721, "pitch": 70, "duration": 9, "velocity": 104}, {"time": 1733, "pitch": 39, "duration": 18, "velocity": 92}, {"time": 1733, "pitch": 51, "duration": 19, "velocity": 88}, {"time": 1733, "pitch": 63, "duration": 10, "velocity": 94}, {"time": 1733, "pitch": 66, "duration": 10, "velocity": 104}, {"time": 1733, "pitch": 70, "duration": 10, "velocity": 96}, {"time": 1745, "pitch": 63, "duration": 7, "velocity": 93}, {"time": 1745, "pitch": 66, "duration": 7, "velocity": 104}, {"time": 1745, "pitch": 70, "duration": 7, "velocity": 92}, {"time": 1757, "pitch": 49, "duration": 23, "velocity": 91}, {"time": 1757, "pitch": 65, "duration": 9, "velocity": 100}, {"time": 1757, "pitch": 68, "duration": 9, "velocity": 110}, {"time": 1757, "pitch": 73, "duration": 8, "velocity": 94}, {"time": 1769, "pitch": 65, "duration": 9, "velocity": 104}, {"time": 1769, "pitch": 68, "duration": 9, "velocity": 114}, {"time": 1769, "pitch": 73, "duration": 8, "velocity": 96}, {"time": 1781, "pitch": 46, "duration": 19, "velocity": 84}, {"time": 1781, "pitch": 58, "duration": 18, "velocity": 84}, {"time": 1781, "pitch": 65, "duration": 9, "velocity": 98}, {"time": 1781, "pitch": 70, "duration": 9, "velocity": 113}, {"time": 1781, "pitch": 73, "duration": 8, "velocity": 94}, {"time": 1793, "pitch": 65, "duration": 8, "velocity": 104}, {"time": 1793, "pitch": 70, "duration": 9, "velocity": 113}, {"time": 1793, "pitch": 73, "duration": 8, "velocity": 96}, {"time": 1805, "pitch": 39, "duration": 22, "velocity": 90}, {"time": 1805, "pitch": 51, "duration": 22, "velocity": 89}, {"time": 1805, "pitch": 63, "duration": 10, "velocity": 100}, {"time": 1805, "pitch": 66, "duration": 10, "velocity": 113}, {"time": 1805, "pitch": 70, "duration": 10, "velocity": 107}, {"time": 1817, "pitch": 63, "duration": 9, "velocity": 96}, {"time": 1817, "pitch": 66, "duration": 8, "velocity": 108}, {"time": 1817, "pitch": 70, "duration": 7, "velocity": 96}, {"time": 1829, "pitch": 44, "duration": 25, "velocity": 91}, {"time": 1829, "pitch": 60, "duration": 25, "velocity": 100}, {"time": 1829, "pitch": 63, "duration": 25, "velocity": 113}, {"time": 1829, "pitch": 68, "duration": 25, "velocity": 104}]}]}