{"metadata": {"schema_version": "0.2", "title": "None", "source_filename": "309.mid", "source_format": "midi"}, "resolution": 12, "tempos": [{"time": 0, "qpm": 119.00016065021688}, {"time": 785, "qpm": 118.500026662506}, {"time": 876, "qpm": 119.00016065021688}, {"time": 1622, "qpm": 118.500026662506}, {"time": 1692, "qpm": 119.00016065021688}], "time_signatures": [{"time": 0, "numerator": 1, "denominator": 4}], "tracks": [{"program": 0, "is_drum": false, "name": "MELODY", "notes": [{"time": 864, "pitch": 77, "duration": 4, "velocity": 74}, {"time": 870, "pitch": 77, "duration": 3, "velocity": 78}, {"time": 876, "pitch": 77, "duration": 4, "velocity": 77}, {"time": 882, "pitch": 77, "duration": 4, "velocity": 79}, {"time": 888, "pitch": 77, "duration": 4, "velocity": 79}, {"time": 894, "pitch": 72, "duration": 4, "velocity": 78}, {"time": 900, "pitch": 72, "duration": 4, "velocity": 78}, {"time": 906, "pitch": 77, "duration": 4, "velocity": 79}, {"time": 912, "pitch": 75, "duration": 3, "velocity": 82}, {"time": 918, "pitch": 75, "duration": 3, "velocity": 79}, {"time": 924, "pitch": 75, "duration": 4, "velocity": 78}, {"time": 930, "pitch": 75, "duration": 4, "velocity": 80}, {"time": 936, "pitch": 75, "duration": 3, "velocity": 80}, {"time": 942, "pitch": 75, "duration": 3, "velocity": 74}, {"time": 948, "pitch": 72, "duration": 4, "velocity": 73}, {"time": 954, "pitch": 68, "duration": 5, "velocity": 71}, {"time": 960, "pitch": 70, "duration": 6, "velocity": 76}, {"time": 965, "pitch": 70, "duration": 1, "velocity": 70}, {"time": 972, "pitch": 70, "duration": 3, "velocity": 78}, {"time": 978, "pitch": 70, "duration": 3, "velocity": 76}, {"time": 984, "pitch": 70, "duration": 4, "velocity": 80}, {"time": 990, "pitch": 70, "duration": 10, "velocity": 80}, {"time": 1002, "pitch": 68, "duration": 4, "velocity": 74}, {"time": 1008, "pitch": 70, "duration": 4, "velocity": 79}, {"time": 1013, "pitch": 72, "duration": 4, "velocity": 78}, {"time": 1020, "pitch": 75, "duration": 12, "velocity": 78}, {"time": 1032, "pitch": 72, "duration": 20, "velocity": 78}, {"time": 1056, "pitch": 77, "duration": 3, "velocity": 73}, {"time": 1062, "pitch": 77, "duration": 4, "velocity": 78}, {"time": 1068, "pitch": 77, "duration": 4, "velocity": 78}, {"time": 1074, "pitch": 77, "duration": 4, "velocity": 78}, {"time": 1080, "pitch": 77, "duration": 5, "velocity": 79}, {"time": 1086, "pitch": 72, "duration": 4, "velocity": 80}, {"time": 1092, "pitch": 72, "duration": 5, "velocity": 78}, {"time": 1098, "pitch": 77, "duration": 5, "velocity": 78}, {"time": 1104, "pitch": 75, "duration": 4, "velocity": 79}, {"time": 1110, "pitch": 77, "duration": 10, "velocity": 78}, {"time": 1122, "pitch": 75, "duration": 6, "velocity": 82}, {"time": 1128, "pitch": 75, "duration": 6, "velocity": 82}, {"time": 1134, "pitch": 72, "duration": 6, "velocity": 79}, {"time": 1140, "pitch": 75, "duration": 8, "velocity": 79}, {"time": 1152, "pitch": 70, "duration": 4, "velocity": 75}, {"time": 1158, "pitch": 70, "duration": 4, "velocity": 73}, {"time": 1164, "pitch": 70, "duration": 3, "velocity": 78}, {"time": 1170, "pitch": 70, "duration": 4, "velocity": 76}, {"time": 1176, "pitch": 70, "duration": 10, "velocity": 79}, {"time": 1188, "pitch": 70, "duration": 5, "velocity": 78}, {"time": 1194, "pitch": 68, "duration": 4, "velocity": 76}, {"time": 1200, "pitch": 70, "duration": 12, "velocity": 78}, {"time": 1212, "pitch": 72, "duration": 10, "velocity": 73}, {"time": 1224, "pitch": 72, "duration": 21, "velocity": 77}, {"time": 1248, "pitch": 65, "duration": 6, "velocity": 81}, {"time": 1254, "pitch": 72, "duration": 4, "velocity": 79}, {"time": 1260, "pitch": 72, "duration": 3, "velocity": 78}, {"time": 1266, "pitch": 72, "duration": 4, "velocity": 79}, {"time": 1272, "pitch": 72, "duration": 4, "velocity": 79}, {"time": 1278, "pitch": 70, "duration": 5, "velocity": 77}, {"time": 1284, "pitch": 65, "duration": 5, "velocity": 80}, {"time": 1290, "pitch": 72, "duration": 5, "velocity": 72}, {"time": 1296, "pitch": 70, "duration": 10, "velocity": 74}, {"time": 1308, "pitch": 72, "duration": 12, "velocity": 76}, {"time": 1320, "pitch": 70, "duration": 13, "velocity": 73}, {"time": 1338, "pitch": 72, "duration": 6, "velocity": 79}, {"time": 1344, "pitch": 77, "duration": 9, "velocity": 79}, {"time": 1356, "pitch": 77, "duration": 4, "velocity": 80}, {"time": 1362, "pitch": 77, "duration": 4, "velocity": 79}, {"time": 1368, "pitch": 77, "duration": 4, "velocity": 79}, {"time": 1374, "pitch": 75, "duration": 4, "velocity": 85}, {"time": 1380, "pitch": 72, "duration": 4, "velocity": 82}, {"time": 1386, "pitch": 77, "duration": 5, "velocity": 80}, {"time": 1392, "pitch": 75, "duration": 10, "velocity": 81}, {"time": 1404, "pitch": 72, "duration": 10, "velocity": 78}, {"time": 1416, "pitch": 75, "duration": 54, "velocity": 80}, {"time": 1488, "pitch": 77, "duration": 4, "velocity": 74}, {"time": 1494, "pitch": 77, "duration": 3, "velocity": 78}, {"time": 1500, "pitch": 77, "duration": 4, "velocity": 77}, {"time": 1506, "pitch": 77, "duration": 4, "velocity": 79}, {"time": 1512, "pitch": 77, "duration": 4, "velocity": 79}, {"time": 1518, "pitch": 72, "duration": 4, "velocity": 78}, {"time": 1524, "pitch": 72, "duration": 4, "velocity": 78}, {"time": 1530, "pitch": 77, "duration": 4, "velocity": 79}, {"time": 1536, "pitch": 75, "duration": 3, "velocity": 82}, {"time": 1542, "pitch": 75, "duration": 6, "velocity": 79}, {"time": 1554, "pitch": 75, "duration": 4, "velocity": 80}, {"time": 1560, "pitch": 75, "duration": 3, "velocity": 80}, {"time": 1566, "pitch": 75, "duration": 3, "velocity": 74}, {"time": 1572, "pitch": 72, "duration": 4, "velocity": 73}, {"time": 1584, "pitch": 70, "duration": 6, "velocity": 76}, {"time": 1589, "pitch": 70, "duration": 1, "velocity": 70}, {"time": 1596, "pitch": 70, "duration": 3, "velocity": 78}, {"time": 1602, "pitch": 70, "duration": 3, "velocity": 76}, {"time": 1608, "pitch": 70, "duration": 12, "velocity": 80}, {"time": 1620, "pitch": 70, "duration": 6, "velocity": 79}, {"time": 1626, "pitch": 68, "duration": 4, "velocity": 74}, {"time": 1632, "pitch": 70, "duration": 4, "velocity": 79}, {"time": 1637, "pitch": 72, "duration": 4, "velocity": 78}, {"time": 1644, "pitch": 75, "duration": 6, "velocity": 78}, {"time": 1650, "pitch": 75, "duration": 6, "velocity": 78}, {"time": 1656, "pitch": 72, "duration": 20, "velocity": 78}, {"time": 1680, "pitch": 77, "duration": 3, "velocity": 73}, {"time": 1686, "pitch": 77, "duration": 4, "velocity": 78}, {"time": 1692, "pitch": 77, "duration": 4, "velocity": 78}, {"time": 1698, "pitch": 77, "duration": 4, "velocity": 78}, {"time": 1704, "pitch": 77, "duration": 5, "velocity": 79}, {"time": 1710, "pitch": 72, "duration": 6, "velocity": 80}, {"time": 1722, "pitch": 77, "duration": 5, "velocity": 78}, {"time": 1728, "pitch": 75, "duration": 4, "velocity": 79}, {"time": 1734, "pitch": 77, "duration": 10, "velocity": 78}, {"time": 1746, "pitch": 75, "duration": 6, "velocity": 82}, {"time": 1752, "pitch": 75, "duration": 6, "velocity": 82}, {"time": 1758, "pitch": 72, "duration": 6, "velocity": 79}, {"time": 1764, "pitch": 75, "duration": 8, "velocity": 79}, {"time": 1776, "pitch": 70, "duration": 4, "velocity": 75}, {"time": 1782, "pitch": 70, "duration": 4, "velocity": 73}, {"time": 1788, "pitch": 70, "duration": 3, "velocity": 78}, {"time": 1794, "pitch": 70, "duration": 4, "velocity": 76}, {"time": 1800, "pitch": 70, "duration": 10, "velocity": 79}, {"time": 1812, "pitch": 70, "duration": 5, "velocity": 78}, {"time": 1818, "pitch": 68, "duration": 4, "velocity": 76}, {"time": 1824, "pitch": 70, "duration": 12, "velocity": 78}, {"time": 1836, "pitch": 72, "duration": 10, "velocity": 73}, {"time": 1848, "pitch": 72, "duration": 21, "velocity": 77}, {"time": 1872, "pitch": 65, "duration": 6, "velocity": 81}, {"time": 1878, "pitch": 72, "duration": 4, "velocity": 79}, {"time": 1884, "pitch": 72, "duration": 3, "velocity": 78}, {"time": 1890, "pitch": 72, "duration": 4, "velocity": 79}, {"time": 1896, "pitch": 72, "duration": 4, "velocity": 79}, {"time": 1902, "pitch": 70, "duration": 5, "velocity": 77}, {"time": 1908, "pitch": 65, "duration": 5, "velocity": 80}, {"time": 1914, "pitch": 72, "duration": 5, "velocity": 72}, {"time": 1920, "pitch": 70, "duration": 10, "velocity": 74}, {"time": 1932, "pitch": 72, "duration": 12, "velocity": 76}, {"time": 1944, "pitch": 70, "duration": 13, "velocity": 73}, {"time": 1962, "pitch": 72, "duration": 6, "velocity": 79}, {"time": 1968, "pitch": 77, "duration": 9, "velocity": 79}, {"time": 1980, "pitch": 77, "duration": 4, "velocity": 80}, {"time": 1986, "pitch": 77, "duration": 4, "velocity": 79}, {"time": 1992, "pitch": 77, "duration": 4, "velocity": 79}, {"time": 1998, "pitch": 75, "duration": 4, "velocity": 85}, {"time": 2004, "pitch": 72, "duration": 4, "velocity": 82}, {"time": 2010, "pitch": 77, "duration": 5, "velocity": 80}, {"time": 2016, "pitch": 75, "duration": 10, "velocity": 81}, {"time": 2028, "pitch": 77, "duration": 6, "velocity": 78}, {"time": 2034, "pitch": 75, "duration": 54, "velocity": 80}, {"time": 2112, "pitch": 77, "duration": 11, "velocity": 82}, {"time": 2124, "pitch": 72, "duration": 5, "velocity": 82}, {"time": 2130, "pitch": 80, "duration": 15, "velocity": 79}, {"time": 2148, "pitch": 77, "duration": 11, "velocity": 80}, {"time": 2160, "pitch": 70, "duration": 11, "velocity": 80}, {"time": 2172, "pitch": 72, "duration": 12, "velocity": 79}, {"time": 2184, "pitch": 70, "duration": 12, "velocity": 78}, {"time": 2196, "pitch": 68, "duration": 12, "velocity": 78}, {"time": 2208, "pitch": 70, "duration": 9, "velocity": 81}, {"time": 2220, "pitch": 72, "duration": 5, "velocity": 77}, {"time": 2226, "pitch": 75, "duration": 16, "velocity": 82}, {"time": 2244, "pitch": 77, "duration": 12, "velocity": 82}, {"time": 2256, "pitch": 72, "duration": 36, "velocity": 81}, {"time": 2304, "pitch": 72, "duration": 10, "velocity": 79}, {"time": 2316, "pitch": 70, "duration": 4, "velocity": 74}, {"time": 2322, "pitch": 72, "duration": 16, "velocity": 79}, {"time": 2340, "pitch": 68, "duration": 12, "velocity": 78}, {"time": 2352, "pitch": 70, "duration": 13, "velocity": 79}, {"time": 2364, "pitch": 68, "duration": 13, "velocity": 78}, {"time": 2376, "pitch": 67, "duration": 12, "velocity": 79}, {"time": 2388, "pitch": 68, "duration": 12, "velocity": 79}, {"time": 2400, "pitch": 68, "duration": 9, "velocity": 78}, {"time": 2412, "pitch": 67, "duration": 11, "velocity": 87}, {"time": 2424, "pitch": 68, "duration": 11, "velocity": 74}, {"time": 2436, "pitch": 70, "duration": 13, "velocity": 73}, {"time": 2448, "pitch": 72, "duration": 46, "velocity": 79}, {"time": 2496, "pitch": 77, "duration": 13, "velocity": 80}, {"time": 2508, "pitch": 72, "duration": 6, "velocity": 80}, {"time": 2514, "pitch": 80, "duration": 18, "velocity": 78}, {"time": 2532, "pitch": 77, "duration": 12, "velocity": 79}, {"time": 2544, "pitch": 70, "duration": 13, "velocity": 79}, {"time": 2556, "pitch": 72, "duration": 6, "velocity": 79}, {"time": 2562, "pitch": 70, "duration": 13, "velocity": 79}, {"time": 2580, "pitch": 68, "duration": 11, "velocity": 78}, {"time": 2592, "pitch": 77, "duration": 9, "velocity": 80}, {"time": 2604, "pitch": 75, "duration": 11, "velocity": 83}, {"time": 2616, "pitch": 72, "duration": 11, "velocity": 84}, {"time": 2628, "pitch": 70, "duration": 12, "velocity": 76}, {"time": 2640, "pitch": 72, "duration": 43, "velocity": 78}, {"time": 2688, "pitch": 72, "duration": 11, "velocity": 79}, {"time": 2700, "pitch": 70, "duration": 6, "velocity": 77}, {"time": 2706, "pitch": 72, "duration": 18, "velocity": 74}, {"time": 2724, "pitch": 68, "duration": 12, "velocity": 78}, {"time": 2736, "pitch": 70, "duration": 12, "velocity": 79}, {"time": 2748, "pitch": 68, "duration": 13, "velocity": 78}, {"time": 2760, "pitch": 67, "duration": 6, "velocity": 78}, {"time": 2766, "pitch": 68, "duration": 18, "velocity": 79}, {"time": 2784, "pitch": 67, "duration": 8, "velocity": 70}, {"time": 2796, "pitch": 68, "duration": 5, "velocity": 78}, {"time": 2802, "pitch": 67, "duration": 15, "velocity": 84}, {"time": 2820, "pitch": 63, "duration": 12, "velocity": 81}, {"time": 2832, "pitch": 65, "duration": 48, "velocity": 82}, {"time": 3264, "pitch": 77, "duration": 4, "velocity": 74}, {"time": 3270, "pitch": 77, "duration": 3, "velocity": 78}, {"time": 3276, "pitch": 77, "duration": 4, "velocity": 77}, {"time": 3282, "pitch": 77, "duration": 4, "velocity": 79}, {"time": 3288, "pitch": 77, "duration": 4, "velocity": 79}, {"time": 3294, "pitch": 72, "duration": 4, "velocity": 78}, {"time": 3300, "pitch": 72, "duration": 4, "velocity": 78}, {"time": 3306, "pitch": 77, "duration": 4, "velocity": 79}, {"time": 3312, "pitch": 75, "duration": 3, "velocity": 82}, {"time": 3318, "pitch": 75, "duration": 6, "velocity": 79}, {"time": 3330, "pitch": 75, "duration": 4, "velocity": 80}, {"time": 3336, "pitch": 75, "duration": 3, "velocity": 80}, {"time": 3342, "pitch": 75, "duration": 3, "velocity": 74}, {"time": 3348, "pitch": 72, "duration": 4, "velocity": 73}, {"time": 3360, "pitch": 70, "duration": 6, "velocity": 76}, {"time": 3365, "pitch": 70, "duration": 1, "velocity": 70}, {"time": 3372, "pitch": 70, "duration": 3, "velocity": 78}, {"time": 3378, "pitch": 70, "duration": 3, "velocity": 76}, {"time": 3384, "pitch": 70, "duration": 12, "velocity": 80}, {"time": 3396, "pitch": 70, "duration": 6, "velocity": 79}, {"time": 3402, "pitch": 68, "duration": 4, "velocity": 74}, {"time": 3408, "pitch": 70, "duration": 4, "velocity": 79}, {"time": 3413, "pitch": 72, "duration": 4, "velocity": 78}, {"time": 3420, "pitch": 75, "duration": 6, "velocity": 78}, {"time": 3426, "pitch": 75, "duration": 6, "velocity": 78}, {"time": 3432, "pitch": 72, "duration": 20, "velocity": 78}, {"time": 3456, "pitch": 77, "duration": 3, "velocity": 73}, {"time": 3462, "pitch": 77, "duration": 4, "velocity": 78}, {"time": 3468, "pitch": 77, "duration": 4, "velocity": 78}, {"time": 3474, "pitch": 77, "duration": 4, "velocity": 78}, {"time": 3480, "pitch": 77, "duration": 5, "velocity": 79}, {"time": 3486, "pitch": 72, "duration": 6, "velocity": 80}, {"time": 3498, "pitch": 77, "duration": 5, "velocity": 78}, {"time": 3504, "pitch": 75, "duration": 4, "velocity": 79}, {"time": 3510, "pitch": 77, "duration": 10, "velocity": 78}, {"time": 3522, "pitch": 75, "duration": 6, "velocity": 82}, {"time": 3528, "pitch": 75, "duration": 6, "velocity": 82}, {"time": 3534, "pitch": 72, "duration": 6, "velocity": 79}, {"time": 3540, "pitch": 75, "duration": 8, "velocity": 79}, {"time": 3552, "pitch": 70, "duration": 4, "velocity": 75}, {"time": 3558, "pitch": 70, "duration": 4, "velocity": 73}, {"time": 3564, "pitch": 70, "duration": 3, "velocity": 78}, {"time": 3570, "pitch": 70, "duration": 4, "velocity": 76}, {"time": 3576, "pitch": 70, "duration": 10, "velocity": 79}, {"time": 3588, "pitch": 70, "duration": 5, "velocity": 78}, {"time": 3594, "pitch": 68, "duration": 4, "velocity": 76}, {"time": 3600, "pitch": 70, "duration": 12, "velocity": 78}, {"time": 3612, "pitch": 72, "duration": 10, "velocity": 73}, {"time": 3624, "pitch": 72, "duration": 21, "velocity": 77}, {"time": 3648, "pitch": 65, "duration": 6, "velocity": 81}, {"time": 3654, "pitch": 72, "duration": 4, "velocity": 79}, {"time": 3660, "pitch": 72, "duration": 3, "velocity": 78}, {"time": 3666, "pitch": 72, "duration": 4, "velocity": 79}, {"time": 3672, "pitch": 72, "duration": 4, "velocity": 79}, {"time": 3678, "pitch": 70, "duration": 5, "velocity": 77}, {"time": 3684, "pitch": 65, "duration": 5, "velocity": 80}, {"time": 3690, "pitch": 72, "duration": 5, "velocity": 72}, {"time": 3696, "pitch": 70, "duration": 10, "velocity": 74}, {"time": 3708, "pitch": 72, "duration": 12, "velocity": 76}, {"time": 3720, "pitch": 70, "duration": 13, "velocity": 73}, {"time": 3738, "pitch": 72, "duration": 6, "velocity": 79}, {"time": 3744, "pitch": 77, "duration": 9, "velocity": 79}, {"time": 3756, "pitch": 77, "duration": 4, "velocity": 80}, {"time": 3762, "pitch": 77, "duration": 4, "velocity": 79}, {"time": 3768, "pitch": 77, "duration": 4, "velocity": 79}, {"time": 3774, "pitch": 75, "duration": 4, "velocity": 85}, {"time": 3780, "pitch": 72, "duration": 4, "velocity": 82}, {"time": 3786, "pitch": 77, "duration": 5, "velocity": 80}, {"time": 3792, "pitch": 75, "duration": 10, "velocity": 81}, {"time": 3804, "pitch": 77, "duration": 6, "velocity": 78}, {"time": 3810, "pitch": 75, "duration": 54, "velocity": 80}, {"time": 3888, "pitch": 77, "duration": 11, "velocity": 82}, {"time": 3900, "pitch": 72, "duration": 5, "velocity": 82}, {"time": 3906, "pitch": 80, "duration": 15, "velocity": 79}, {"time": 3924, "pitch": 77, "duration": 11, "velocity": 80}, {"time": 3936, "pitch": 70, "duration": 11, "velocity": 80}, {"time": 3948, "pitch": 72, "duration": 12, "velocity": 79}, {"time": 3960, "pitch": 70, "duration": 12, "velocity": 78}, {"time": 3972, "pitch": 68, "duration": 12, "velocity": 78}, {"time": 3984, "pitch": 70, "duration": 9, "velocity": 81}, {"time": 3996, "pitch": 72, "duration": 5, "velocity": 77}, {"time": 4002, "pitch": 75, "duration": 16, "velocity": 82}, {"time": 4020, "pitch": 77, "duration": 12, "velocity": 82}, {"time": 4032, "pitch": 72, "duration": 36, "velocity": 81}, {"time": 4080, "pitch": 72, "duration": 10, "velocity": 79}, {"time": 4092, "pitch": 70, "duration": 4, "velocity": 74}, {"time": 4098, "pitch": 72, "duration": 16, "velocity": 79}, {"time": 4116, "pitch": 68, "duration": 12, "velocity": 78}, {"time": 4128, "pitch": 70, "duration": 13, "velocity": 79}, {"time": 4140, "pitch": 68, "duration": 13, "velocity": 78}, {"time": 4152, "pitch": 67, "duration": 12, "velocity": 79}, {"time": 4164, "pitch": 68, "duration": 12, "velocity": 79}, {"time": 4176, "pitch": 68, "duration": 9, "velocity": 78}, {"time": 4188, "pitch": 67, "duration": 11, "velocity": 87}, {"time": 4200, "pitch": 68, "duration": 11, "velocity": 74}, {"time": 4212, "pitch": 70, "duration": 13, "velocity": 73}, {"time": 4224, "pitch": 72, "duration": 46, "velocity": 79}, {"time": 4272, "pitch": 77, "duration": 13, "velocity": 80}, {"time": 4284, "pitch": 72, "duration": 6, "velocity": 80}, {"time": 4290, "pitch": 80, "duration": 18, "velocity": 78}, {"time": 4308, "pitch": 77, "duration": 12, "velocity": 79}, {"time": 4320, "pitch": 70, "duration": 13, "velocity": 79}, {"time": 4332, "pitch": 72, "duration": 6, "velocity": 79}, {"time": 4338, "pitch": 70, "duration": 13, "velocity": 79}, {"time": 4356, "pitch": 68, "duration": 11, "velocity": 78}, {"time": 4368, "pitch": 77, "duration": 9, "velocity": 80}, {"time": 4380, "pitch": 75, "duration": 11, "velocity": 83}, {"time": 4392, "pitch": 72, "duration": 11, "velocity": 84}, {"time": 4404, "pitch": 70, "duration": 12, "velocity": 76}, {"time": 4416, "pitch": 72, "duration": 43, "velocity": 78}, {"time": 4464, "pitch": 72, "duration": 11, "velocity": 79}, {"time": 4476, "pitch": 70, "duration": 6, "velocity": 77}, {"time": 4482, "pitch": 72, "duration": 18, "velocity": 74}, {"time": 4500, "pitch": 68, "duration": 12, "velocity": 78}, {"time": 4512, "pitch": 70, "duration": 12, "velocity": 79}, {"time": 4524, "pitch": 68, "duration": 13, "velocity": 78}, {"time": 4536, "pitch": 67, "duration": 6, "velocity": 78}, {"time": 4542, "pitch": 68, "duration": 18, "velocity": 79}, {"time": 4560, "pitch": 67, "duration": 8, "velocity": 70}, {"time": 4572, "pitch": 68, "duration": 5, "velocity": 78}, {"time": 4578, "pitch": 67, "duration": 15, "velocity": 84}, {"time": 4596, "pitch": 63, "duration": 12, "velocity": 81}, {"time": 4608, "pitch": 65, "duration": 48, "velocity": 82}, {"time": 4656, "pitch": 77, "duration": 11, "velocity": 82}, {"time": 4668, "pitch": 72, "duration": 5, "velocity": 82}, {"time": 4674, "pitch": 80, "duration": 15, "velocity": 79}, {"time": 4692, "pitch": 77, "duration": 11, "velocity": 80}, {"time": 4704, "pitch": 70, "duration": 11, "velocity": 80}, {"time": 4716, "pitch": 72, "duration": 12, "velocity": 79}, {"time": 4728, "pitch": 70, "duration": 12, "velocity": 78}, {"time": 4740, "pitch": 68, "duration": 12, "velocity": 78}, {"time": 4752, "pitch": 70, "duration": 9, "velocity": 81}, {"time": 4764, "pitch": 72, "duration": 5, "velocity": 77}, {"time": 4770, "pitch": 75, "duration": 16, "velocity": 82}, {"time": 4788, "pitch": 77, "duration": 12, "velocity": 82}, {"time": 4800, "pitch": 72, "duration": 36, "velocity": 81}, {"time": 4848, "pitch": 72, "duration": 10, "velocity": 79}, {"time": 4860, "pitch": 70, "duration": 4, "velocity": 74}, {"time": 4866, "pitch": 72, "duration": 16, "velocity": 79}, {"time": 4884, "pitch": 68, "duration": 12, "velocity": 78}, {"time": 4896, "pitch": 70, "duration": 13, "velocity": 79}, {"time": 4908, "pitch": 68, "duration": 13, "velocity": 78}, {"time": 4920, "pitch": 67, "duration": 12, "velocity": 79}, {"time": 4932, "pitch": 68, "duration": 12, "velocity": 79}, {"time": 4944, "pitch": 68, "duration": 9, "velocity": 78}, {"time": 4956, "pitch": 67, "duration": 11, "velocity": 87}, {"time": 4968, "pitch": 68, "duration": 11, "velocity": 74}, {"time": 4980, "pitch": 70, "duration": 13, "velocity": 73}, {"time": 4992, "pitch": 72, "duration": 46, "velocity": 79}, {"time": 5040, "pitch": 77, "duration": 13, "velocity": 80}, {"time": 5052, "pitch": 72, "duration": 6, "velocity": 80}, {"time": 5058, "pitch": 80, "duration": 18, "velocity": 78}, {"time": 5076, "pitch": 77, "duration": 12, "velocity": 79}, {"time": 5088, "pitch": 70, "duration": 13, "velocity": 79}, {"time": 5100, "pitch": 72, "duration": 6, "velocity": 79}, {"time": 5106, "pitch": 70, "duration": 13, "velocity": 79}, {"time": 5124, "pitch": 68, "duration": 11, "velocity": 78}, {"time": 5136, "pitch": 77, "duration": 9, "velocity": 80}, {"time": 5148, "pitch": 75, "duration": 11, "velocity": 83}, {"time": 5160, "pitch": 72, "duration": 11, "velocity": 84}, {"time": 5172, "pitch": 70, "duration": 12, "velocity": 76}, {"time": 5184, "pitch": 72, "duration": 43, "velocity": 78}, {"time": 5232, "pitch": 72, "duration": 11, "velocity": 79}, {"time": 5244, "pitch": 70, "duration": 6, "velocity": 77}, {"time": 5250, "pitch": 72, "duration": 18, "velocity": 74}, {"time": 5268, "pitch": 68, "duration": 12, "velocity": 78}, {"time": 5280, "pitch": 70, "duration": 12, "velocity": 79}, {"time": 5292, "pitch": 68, "duration": 13, "velocity": 78}, {"time": 5304, "pitch": 67, "duration": 6, "velocity": 78}, {"time": 5310, "pitch": 68, "duration": 18, "velocity": 79}, {"time": 5328, "pitch": 67, "duration": 8, "velocity": 70}, {"time": 5340, "pitch": 68, "duration": 5, "velocity": 78}, {"time": 5346, "pitch": 67, "duration": 15, "velocity": 84}, {"time": 5364, "pitch": 63, "duration": 12, "velocity": 81}, {"time": 5376, "pitch": 65, "duration": 48, "velocity": 82}, {"time": 5423, "pitch": 72, "duration": 13, "velocity": 81}, {"time": 5436, "pitch": 65, "duration": 13, "velocity": 80}, {"time": 5449, "pitch": 68, "duration": 5, "velocity": 75}, {"time": 5455, "pitch": 72, "duration": 14, "velocity": 74}, {"time": 5471, "pitch": 70, "duration": 14, "velocity": 74}, {"time": 5484, "pitch": 68, "duration": 9, "velocity": 71}, {"time": 5496, "pitch": 67, "duration": 8, "velocity": 78}, {"time": 5504, "pitch": 68, "duration": 23, "velocity": 72}, {"time": 5528, "pitch": 67, "duration": 13, "velocity": 72}, {"time": 5541, "pitch": 68, "duration": 8, "velocity": 73}, {"time": 5550, "pitch": 67, "duration": 40, "velocity": 79}, {"time": 5602, "pitch": 63, "duration": 14, "velocity": 70}, {"time": 5613, "pitch": 65, "duration": 67, "velocity": 77}]}, {"program": 0, "is_drum": false, "name": "PIANO", "notes": [{"time": 96, "pitch": 41, "duration": 42, "velocity": 79}, {"time": 108, "pitch": 48, "duration": 22, "velocity": 64}, {"time": 114, "pitch": 53, "duration": 10, "velocity": 74}, {"time": 126, "pitch": 56, "duration": 10, "velocity": 73}, {"time": 138, "pitch": 60, "duration": 9, "velocity": 71}, {"time": 144, "pitch": 41, "duration": 43, "velocity": 80}, {"time": 150, "pitch": 48, "duration": 32, "velocity": 55}, {"time": 156, "pitch": 53, "duration": 6, "velocity": 73}, {"time": 162, "pitch": 56, "duration": 6, "velocity": 72}, {"time": 174, "pitch": 60, "duration": 15, "velocity": 73}, {"time": 180, "pitch": 53, "duration": 9, "velocity": 69}, {"time": 192, "pitch": 41, "duration": 44, "velocity": 80}, {"time": 204, "pitch": 48, "duration": 32, "velocity": 55}, {"time": 210, "pitch": 53, "duration": 12, "velocity": 74}, {"time": 222, "pitch": 60, "duration": 7, "velocity": 74}, {"time": 234, "pitch": 53, "duration": 11, "velocity": 77}, {"time": 240, "pitch": 41, "duration": 45, "velocity": 79}, {"time": 246, "pitch": 48, "duration": 27, "velocity": 61}, {"time": 252, "pitch": 53, "duration": 8, "velocity": 73}, {"time": 258, "pitch": 60, "duration": 11, "velocity": 75}, {"time": 270, "pitch": 53, "duration": 9, "velocity": 78}, {"time": 282, "pitch": 53, "duration": 6, "velocity": 77}, {"time": 288, "pitch": 46, "duration": 44, "velocity": 78}, {"time": 294, "pitch": 53, "duration": 8, "velocity": 73}, {"time": 300, "pitch": 58, "duration": 7, "velocity": 67}, {"time": 306, "pitch": 61, "duration": 7, "velocity": 73}, {"time": 318, "pitch": 58, "duration": 5, "velocity": 68}, {"time": 330, "pitch": 53, "duration": 8, "velocity": 71}, {"time": 336, "pitch": 46, "duration": 41, "velocity": 77}, {"time": 342, "pitch": 53, "duration": 8, "velocity": 74}, {"time": 348, "pitch": 58, "duration": 6, "velocity": 70}, {"time": 354, "pitch": 61, "duration": 8, "velocity": 72}, {"time": 366, "pitch": 58, "duration": 5, "velocity": 69}, {"time": 378, "pitch": 53, "duration": 8, "velocity": 72}, {"time": 384, "pitch": 46, "duration": 43, "velocity": 79}, {"time": 390, "pitch": 53, "duration": 18, "velocity": 73}, {"time": 396, "pitch": 58, "duration": 6, "velocity": 70}, {"time": 402, "pitch": 61, "duration": 10, "velocity": 78}, {"time": 414, "pitch": 58, "duration": 6, "velocity": 75}, {"time": 420, "pitch": 53, "duration": 8, "velocity": 78}, {"time": 426, "pitch": 58, "duration": 11, "velocity": 73}, {"time": 432, "pitch": 46, "duration": 38, "velocity": 82}, {"time": 438, "pitch": 53, "duration": 9, "velocity": 72}, {"time": 444, "pitch": 58, "duration": 7, "velocity": 67}, {"time": 450, "pitch": 61, "duration": 13, "velocity": 72}, {"time": 462, "pitch": 58, "duration": 7, "velocity": 75}, {"time": 468, "pitch": 53, "duration": 2, "velocity": 74}, {"time": 480, "pitch": 37, "duration": 38, "velocity": 76}, {"time": 480, "pitch": 61, "duration": 14, "velocity": 72}, {"time": 486, "pitch": 44, "duration": 30, "velocity": 60}, {"time": 492, "pitch": 56, "duration": 8, "velocity": 73}, {"time": 498, "pitch": 61, "duration": 8, "velocity": 79}, {"time": 510, "pitch": 61, "duration": 6, "velocity": 79}, {"time": 516, "pitch": 56, "duration": 8, "velocity": 72}, {"time": 522, "pitch": 61, "duration": 4, "velocity": 64}, {"time": 528, "pitch": 39, "duration": 38, "velocity": 80}, {"time": 528, "pitch": 61, "duration": 2, "velocity": 58}, {"time": 528, "pitch": 63, "duration": 9, "velocity": 56}, {"time": 534, "pitch": 46, "duration": 31, "velocity": 64}, {"time": 540, "pitch": 58, "duration": 6, "velocity": 48}, {"time": 546, "pitch": 63, "duration": 11, "velocity": 77}, {"time": 558, "pitch": 58, "duration": 7, "velocity": 71}, {"time": 564, "pitch": 63, "duration": 4, "velocity": 78}, {"time": 576, "pitch": 48, "duration": 32, "velocity": 78}, {"time": 576, "pitch": 63, "duration": 14, "velocity": 72}, {"time": 588, "pitch": 55, "duration": 17, "velocity": 66}, {"time": 594, "pitch": 60, "duration": 12, "velocity": 74}, {"time": 606, "pitch": 63, "duration": 7, "velocity": 75}, {"time": 612, "pitch": 60, "duration": 10, "velocity": 69}, {"time": 624, "pitch": 41, "duration": 44, "velocity": 78}, {"time": 624, "pitch": 65, "duration": 11, "velocity": 73}, {"time": 630, "pitch": 48, "duration": 37, "velocity": 62}, {"time": 636, "pitch": 60, "duration": 4, "velocity": 69}, {"time": 642, "pitch": 65, "duration": 5, "velocity": 79}, {"time": 654, "pitch": 60, "duration": 15, "velocity": 74}, {"time": 672, "pitch": 46, "duration": 45, "velocity": 78}, {"time": 672, "pitch": 65, "duration": 11, "velocity": 75}, {"time": 678, "pitch": 53, "duration": 39, "velocity": 70}, {"time": 684, "pitch": 58, "duration": 6, "velocity": 75}, {"time": 690, "pitch": 65, "duration": 10, "velocity": 79}, {"time": 702, "pitch": 61, "duration": 10, "velocity": 74}, {"time": 720, "pitch": 46, "duration": 36, "velocity": 78}, {"time": 720, "pitch": 61, "duration": 12, "velocity": 72}, {"time": 726, "pitch": 53, "duration": 30, "velocity": 67}, {"time": 732, "pitch": 58, "duration": 7, "velocity": 72}, {"time": 738, "pitch": 65, "duration": 12, "velocity": 75}, {"time": 750, "pitch": 61, "duration": 4, "velocity": 78}, {"time": 768, "pitch": 48, "duration": 43, "velocity": 78}, {"time": 768, "pitch": 65, "duration": 11, "velocity": 79}, {"time": 774, "pitch": 55, "duration": 27, "velocity": 61}, {"time": 780, "pitch": 60, "duration": 5, "velocity": 75}, {"time": 786, "pitch": 67, "duration": 3, "velocity": 79}, {"time": 804, "pitch": 55, "duration": 8, "velocity": 63}, {"time": 810, "pitch": 60, "duration": 12, "velocity": 76}, {"time": 816, "pitch": 48, "duration": 41, "velocity": 82}, {"time": 822, "pitch": 55, "duration": 33, "velocity": 58}, {"time": 828, "pitch": 60, "duration": 33, "velocity": 59}, {"time": 864, "pitch": 41, "duration": 42, "velocity": 80}, {"time": 870, "pitch": 48, "duration": 36, "velocity": 67}, {"time": 876, "pitch": 53, "duration": 17, "velocity": 74}, {"time": 882, "pitch": 60, "duration": 13, "velocity": 76}, {"time": 894, "pitch": 65, "duration": 14, "velocity": 80}, {"time": 900, "pitch": 53, "duration": 9, "velocity": 77}, {"time": 906, "pitch": 60, "duration": 6, "velocity": 71}, {"time": 912, "pitch": 39, "duration": 44, "velocity": 72}, {"time": 918, "pitch": 46, "duration": 37, "velocity": 72}, {"time": 924, "pitch": 58, "duration": 16, "velocity": 70}, {"time": 930, "pitch": 67, "duration": 10, "velocity": 79}, {"time": 942, "pitch": 63, "duration": 5, "velocity": 79}, {"time": 948, "pitch": 58, "duration": 9, "velocity": 76}, {"time": 960, "pitch": 39, "duration": 32, "velocity": 81}, {"time": 960, "pitch": 63, "duration": 13, "velocity": 78}, {"time": 966, "pitch": 46, "duration": 26, "velocity": 58}, {"time": 972, "pitch": 58, "duration": 4, "velocity": 72}, {"time": 978, "pitch": 58, "duration": 8, "velocity": 74}, {"time": 978, "pitch": 67, "duration": 12, "velocity": 78}, {"time": 990, "pitch": 63, "duration": 6, "velocity": 82}, {"time": 996, "pitch": 58, "duration": 6, "velocity": 76}, {"time": 1008, "pitch": 44, "duration": 37, "velocity": 75}, {"time": 1008, "pitch": 63, "duration": 14, "velocity": 74}, {"time": 1014, "pitch": 51, "duration": 29, "velocity": 60}, {"time": 1020, "pitch": 56, "duration": 7, "velocity": 74}, {"time": 1026, "pitch": 60, "duration": 12, "velocity": 81}, {"time": 1038, "pitch": 56, "duration": 6, "velocity": 75}, {"time": 1044, "pitch": 63, "duration": 3, "velocity": 78}, {"time": 1056, "pitch": 41, "duration": 34, "velocity": 78}, {"time": 1056, "pitch": 65, "duration": 13, "velocity": 74}, {"time": 1062, "pitch": 48, "duration": 26, "velocity": 67}, {"time": 1068, "pitch": 60, "duration": 8, "velocity": 77}, {"time": 1074, "pitch": 68, "duration": 12, "velocity": 78}, {"time": 1086, "pitch": 65, "duration": 7, "velocity": 79}, {"time": 1092, "pitch": 60, "duration": 4, "velocity": 77}, {"time": 1104, "pitch": 51, "duration": 39, "velocity": 75}, {"time": 1104, "pitch": 63, "duration": 9, "velocity": 63}, {"time": 1104, "pitch": 67, "duration": 5, "velocity": 70}, {"time": 1110, "pitch": 58, "duration": 8, "velocity": 61}, {"time": 1116, "pitch": 63, "duration": 6, "velocity": 74}, {"time": 1122, "pitch": 67, "duration": 9, "velocity": 80}, {"time": 1134, "pitch": 63, "duration": 6, "velocity": 79}, {"time": 1140, "pitch": 58, "duration": 5, "velocity": 76}, {"time": 1152, "pitch": 51, "duration": 35, "velocity": 79}, {"time": 1152, "pitch": 63, "duration": 6, "velocity": 77}, {"time": 1158, "pitch": 58, "duration": 8, "velocity": 75}, {"time": 1164, "pitch": 63, "duration": 4, "velocity": 74}, {"time": 1170, "pitch": 67, "duration": 11, "velocity": 83}, {"time": 1182, "pitch": 63, "duration": 6, "velocity": 77}, {"time": 1188, "pitch": 58, "duration": 3, "velocity": 75}, {"time": 1200, "pitch": 48, "duration": 41, "velocity": 80}, {"time": 1206, "pitch": 55, "duration": 16, "velocity": 51}, {"time": 1212, "pitch": 60, "duration": 8, "velocity": 81}, {"time": 1218, "pitch": 67, "duration": 13, "velocity": 79}, {"time": 1230, "pitch": 64, "duration": 9, "velocity": 79}, {"time": 1236, "pitch": 55, "duration": 4, "velocity": 66}, {"time": 1242, "pitch": 60, "duration": 8, "velocity": 80}, {"time": 1248, "pitch": 41, "duration": 37, "velocity": 80}, {"time": 1248, "pitch": 65, "duration": 12, "velocity": 79}, {"time": 1254, "pitch": 48, "duration": 30, "velocity": 64}, {"time": 1260, "pitch": 60, "duration": 8, "velocity": 79}, {"time": 1266, "pitch": 68, "duration": 13, "velocity": 81}, {"time": 1278, "pitch": 65, "duration": 7, "velocity": 79}, {"time": 1284, "pitch": 60, "duration": 4, "velocity": 81}, {"time": 1296, "pitch": 51, "duration": 33, "velocity": 79}, {"time": 1296, "pitch": 63, "duration": 7, "velocity": 71}, {"time": 1302, "pitch": 58, "duration": 8, "velocity": 76}, {"time": 1308, "pitch": 63, "duration": 5, "velocity": 73}, {"time": 1314, "pitch": 67, "duration": 11, "velocity": 79}, {"time": 1326, "pitch": 63, "duration": 6, "velocity": 80}, {"time": 1332, "pitch": 58, "duration": 3, "velocity": 79}, {"time": 1344, "pitch": 49, "duration": 44, "velocity": 79}, {"time": 1344, "pitch": 56, "duration": 4, "velocity": 73}, {"time": 1344, "pitch": 61, "duration": 7, "velocity": 74}, {"time": 1350, "pitch": 56, "duration": 8, "velocity": 74}, {"time": 1356, "pitch": 61, "duration": 3, "velocity": 70}, {"time": 1362, "pitch": 56, "duration": 7, "velocity": 78}, {"time": 1362, "pitch": 65, "duration": 9, "velocity": 79}, {"time": 1374, "pitch": 56, "duration": 3, "velocity": 76}, {"time": 1374, "pitch": 61, "duration": 14, "velocity": 75}, {"time": 1386, "pitch": 56, "duration": 3, "velocity": 69}, {"time": 1392, "pitch": 51, "duration": 22, "velocity": 80}, {"time": 1392, "pitch": 63, "duration": 6, "velocity": 74}, {"time": 1398, "pitch": 58, "duration": 8, "velocity": 70}, {"time": 1404, "pitch": 63, "duration": 6, "velocity": 73}, {"time": 1410, "pitch": 67, "duration": 13, "velocity": 80}, {"time": 1422, "pitch": 63, "duration": 6, "velocity": 82}, {"time": 1426, "pitch": 58, "duration": 3, "velocity": 78}, {"time": 1436, "pitch": 58, "duration": 48, "velocity": 67}, {"time": 1438, "pitch": 39, "duration": 47, "velocity": 81}, {"time": 1438, "pitch": 63, "duration": 46, "velocity": 76}, {"time": 1440, "pitch": 67, "duration": 44, "velocity": 72}, {"time": 1488, "pitch": 41, "duration": 42, "velocity": 80}, {"time": 1494, "pitch": 48, "duration": 36, "velocity": 67}, {"time": 1500, "pitch": 53, "duration": 17, "velocity": 74}, {"time": 1506, "pitch": 60, "duration": 13, "velocity": 76}, {"time": 1518, "pitch": 65, "duration": 14, "velocity": 80}, {"time": 1524, "pitch": 53, "duration": 9, "velocity": 77}, {"time": 1530, "pitch": 60, "duration": 6, "velocity": 71}, {"time": 1536, "pitch": 39, "duration": 44, "velocity": 72}, {"time": 1542, "pitch": 46, "duration": 37, "velocity": 72}, {"time": 1548, "pitch": 58, "duration": 16, "velocity": 70}, {"time": 1554, "pitch": 67, "duration": 10, "velocity": 79}, {"time": 1566, "pitch": 63, "duration": 5, "velocity": 79}, {"time": 1572, "pitch": 58, "duration": 9, "velocity": 76}, {"time": 1584, "pitch": 39, "duration": 32, "velocity": 81}, {"time": 1584, "pitch": 63, "duration": 13, "velocity": 78}, {"time": 1590, "pitch": 46, "duration": 26, "velocity": 58}, {"time": 1596, "pitch": 58, "duration": 4, "velocity": 72}, {"time": 1602, "pitch": 58, "duration": 8, "velocity": 74}, {"time": 1602, "pitch": 67, "duration": 12, "velocity": 78}, {"time": 1614, "pitch": 63, "duration": 6, "velocity": 82}, {"time": 1620, "pitch": 58, "duration": 6, "velocity": 76}, {"time": 1632, "pitch": 44, "duration": 37, "velocity": 75}, {"time": 1632, "pitch": 63, "duration": 14, "velocity": 74}, {"time": 1638, "pitch": 51, "duration": 29, "velocity": 60}, {"time": 1644, "pitch": 56, "duration": 7, "velocity": 74}, {"time": 1650, "pitch": 60, "duration": 12, "velocity": 81}, {"time": 1662, "pitch": 56, "duration": 6, "velocity": 75}, {"time": 1668, "pitch": 63, "duration": 3, "velocity": 78}, {"time": 1680, "pitch": 41, "duration": 34, "velocity": 78}, {"time": 1680, "pitch": 65, "duration": 13, "velocity": 74}, {"time": 1686, "pitch": 48, "duration": 26, "velocity": 67}, {"time": 1692, "pitch": 60, "duration": 8, "velocity": 77}, {"time": 1698, "pitch": 68, "duration": 12, "velocity": 78}, {"time": 1710, "pitch": 65, "duration": 7, "velocity": 79}, {"time": 1716, "pitch": 60, "duration": 4, "velocity": 77}, {"time": 1728, "pitch": 51, "duration": 39, "velocity": 75}, {"time": 1728, "pitch": 63, "duration": 9, "velocity": 63}, {"time": 1728, "pitch": 67, "duration": 5, "velocity": 70}, {"time": 1734, "pitch": 58, "duration": 8, "velocity": 61}, {"time": 1740, "pitch": 63, "duration": 6, "velocity": 74}, {"time": 1746, "pitch": 67, "duration": 9, "velocity": 80}, {"time": 1758, "pitch": 63, "duration": 6, "velocity": 79}, {"time": 1764, "pitch": 58, "duration": 5, "velocity": 76}, {"time": 1776, "pitch": 51, "duration": 35, "velocity": 79}, {"time": 1776, "pitch": 63, "duration": 6, "velocity": 77}, {"time": 1782, "pitch": 58, "duration": 8, "velocity": 75}, {"time": 1788, "pitch": 63, "duration": 4, "velocity": 74}, {"time": 1794, "pitch": 67, "duration": 11, "velocity": 83}, {"time": 1806, "pitch": 63, "duration": 6, "velocity": 77}, {"time": 1812, "pitch": 58, "duration": 3, "velocity": 75}, {"time": 1824, "pitch": 48, "duration": 41, "velocity": 80}, {"time": 1830, "pitch": 55, "duration": 16, "velocity": 51}, {"time": 1836, "pitch": 60, "duration": 8, "velocity": 81}, {"time": 1842, "pitch": 67, "duration": 13, "velocity": 79}, {"time": 1854, "pitch": 64, "duration": 9, "velocity": 79}, {"time": 1860, "pitch": 55, "duration": 4, "velocity": 66}, {"time": 1866, "pitch": 60, "duration": 8, "velocity": 80}, {"time": 1872, "pitch": 41, "duration": 37, "velocity": 80}, {"time": 1872, "pitch": 65, "duration": 12, "velocity": 79}, {"time": 1878, "pitch": 48, "duration": 30, "velocity": 64}, {"time": 1884, "pitch": 60, "duration": 8, "velocity": 79}, {"time": 1890, "pitch": 68, "duration": 13, "velocity": 81}, {"time": 1902, "pitch": 65, "duration": 7, "velocity": 79}, {"time": 1908, "pitch": 60, "duration": 4, "velocity": 81}, {"time": 1920, "pitch": 51, "duration": 33, "velocity": 79}, {"time": 1920, "pitch": 63, "duration": 7, "velocity": 71}, {"time": 1926, "pitch": 58, "duration": 8, "velocity": 76}, {"time": 1932, "pitch": 63, "duration": 5, "velocity": 73}, {"time": 1938, "pitch": 67, "duration": 11, "velocity": 79}, {"time": 1950, "pitch": 63, "duration": 6, "velocity": 80}, {"time": 1956, "pitch": 58, "duration": 3, "velocity": 79}, {"time": 1968, "pitch": 49, "duration": 44, "velocity": 79}, {"time": 1968, "pitch": 56, "duration": 4, "velocity": 73}, {"time": 1968, "pitch": 61, "duration": 7, "velocity": 74}, {"time": 1974, "pitch": 56, "duration": 8, "velocity": 74}, {"time": 1980, "pitch": 61, "duration": 3, "velocity": 70}, {"time": 1986, "pitch": 56, "duration": 7, "velocity": 78}, {"time": 1986, "pitch": 65, "duration": 9, "velocity": 79}, {"time": 1998, "pitch": 56, "duration": 3, "velocity": 76}, {"time": 1998, "pitch": 61, "duration": 14, "velocity": 75}, {"time": 2010, "pitch": 56, "duration": 3, "velocity": 69}, {"time": 2016, "pitch": 51, "duration": 42, "velocity": 80}, {"time": 2016, "pitch": 63, "duration": 6, "velocity": 74}, {"time": 2022, "pitch": 58, "duration": 8, "velocity": 70}, {"time": 2028, "pitch": 63, "duration": 6, "velocity": 73}, {"time": 2034, "pitch": 67, "duration": 13, "velocity": 80}, {"time": 2046, "pitch": 63, "duration": 6, "velocity": 82}, {"time": 2052, "pitch": 58, "duration": 6, "velocity": 78}, {"time": 2060, "pitch": 58, "duration": 48, "velocity": 67}, {"time": 2062, "pitch": 39, "duration": 47, "velocity": 81}, {"time": 2062, "pitch": 63, "duration": 46, "velocity": 76}, {"time": 2064, "pitch": 67, "duration": 44, "velocity": 72}, {"time": 2112, "pitch": 53, "duration": 39, "velocity": 83}, {"time": 2112, "pitch": 60, "duration": 6, "velocity": 74}, {"time": 2112, "pitch": 65, "duration": 11, "velocity": 78}, {"time": 2130, "pitch": 60, "duration": 3, "velocity": 80}, {"time": 2130, "pitch": 65, "duration": 2, "velocity": 80}, {"time": 2136, "pitch": 60, "duration": 2, "velocity": 75}, {"time": 2136, "pitch": 65, "duration": 2, "velocity": 75}, {"time": 2136, "pitch": 68, "duration": 2, "velocity": 75}, {"time": 2142, "pitch": 60, "duration": 4, "velocity": 79}, {"time": 2142, "pitch": 65, "duration": 5, "velocity": 82}, {"time": 2154, "pitch": 53, "duration": 6, "velocity": 97}, {"time": 2160, "pitch": 46, "duration": 39, "velocity": 79}, {"time": 2166, "pitch": 58, "duration": 7, "velocity": 73}, {"time": 2166, "pitch": 65, "duration": 8, "velocity": 79}, {"time": 2166, "pitch": 53, "duration": 26, "velocity": 65}, {"time": 2172, "pitch": 58, "duration": 1, "velocity": 64}, {"time": 2178, "pitch": 62, "duration": 4, "velocity": 79}, {"time": 2178, "pitch": 58, "duration": 4, "velocity": 75}, {"time": 2184, "pitch": 58, "duration": 5, "velocity": 73}, {"time": 2184, "pitch": 65, "duration": 7, "velocity": 79}, {"time": 2196, "pitch": 53, "duration": 6, "velocity": 75}, {"time": 2202, "pitch": 58, "duration": 6, "velocity": 65}, {"time": 2208, "pitch": 49, "duration": 45, "velocity": 82}, {"time": 2208, "pitch": 56, "duration": 6, "velocity": 82}, {"time": 2208, "pitch": 61, "duration": 11, "velocity": 82}, {"time": 2208, "pitch": 65, "duration": 3, "velocity": 85}, {"time": 2220, "pitch": 56, "duration": 2, "velocity": 65}, {"time": 2226, "pitch": 56, "duration": 4, "velocity": 78}, {"time": 2226, "pitch": 61, "duration": 6, "velocity": 78}, {"time": 2232, "pitch": 56, "duration": 3, "velocity": 76}, {"time": 2232, "pitch": 61, "duration": 3, "velocity": 76}, {"time": 2232, "pitch": 65, "duration": 3, "velocity": 76}, {"time": 2238, "pitch": 56, "duration": 3, "velocity": 76}, {"time": 2238, "pitch": 61, "duration": 6, "velocity": 76}, {"time": 2244, "pitch": 56, "duration": 4, "velocity": 76}, {"time": 2244, "pitch": 61, "duration": 3, "velocity": 76}, {"time": 2250, "pitch": 61, "duration": 3, "velocity": 70}, {"time": 2250, "pitch": 65, "duration": 3, "velocity": 72}, {"time": 2256, "pitch": 44, "duration": 35, "velocity": 76}, {"time": 2256, "pitch": 56, "duration": 10, "velocity": 74}, {"time": 2256, "pitch": 60, "duration": 11, "velocity": 77}, {"time": 2268, "pitch": 51, "duration": 14, "velocity": 53}, {"time": 2274, "pitch": 56, "duration": 3, "velocity": 73}, {"time": 2280, "pitch": 56, "duration": 5, "velocity": 78}, {"time": 2280, "pitch": 60, "duration": 6, "velocity": 80}, {"time": 2280, "pitch": 63, "duration": 6, "velocity": 79}, {"time": 2286, "pitch": 51, "duration": 5, "velocity": 75}, {"time": 2292, "pitch": 56, "duration": 2, "velocity": 78}, {"time": 2298, "pitch": 51, "duration": 3, "velocity": 75}, {"time": 2298, "pitch": 56, "duration": 3, "velocity": 75}, {"time": 2304, "pitch": 68, "duration": 9, "velocity": 80}, {"time": 2304, "pitch": 53, "duration": 45, "velocity": 80}, {"time": 2304, "pitch": 60, "duration": 5, "velocity": 80}, {"time": 2304, "pitch": 65, "duration": 11, "velocity": 80}, {"time": 2322, "pitch": 65, "duration": 4, "velocity": 72}, {"time": 2322, "pitch": 60, "duration": 3, "velocity": 80}, {"time": 2328, "pitch": 60, "duration": 3, "velocity": 80}, {"time": 2328, "pitch": 68, "duration": 4, "velocity": 72}, {"time": 2334, "pitch": 60, "duration": 3, "velocity": 80}, {"time": 2334, "pitch": 65, "duration": 5, "velocity": 84}, {"time": 2340, "pitch": 60, "duration": 3, "velocity": 75}, {"time": 2346, "pitch": 68, "duration": 3, "velocity": 76}, {"time": 2346, "pitch": 65, "duration": 2, "velocity": 73}, {"time": 2352, "pitch": 51, "duration": 42, "velocity": 79}, {"time": 2352, "pitch": 58, "duration": 6, "velocity": 71}, {"time": 2352, "pitch": 63, "duration": 6, "velocity": 75}, {"time": 2358, "pitch": 58, "duration": 3, "velocity": 69}, {"time": 2358, "pitch": 67, "duration": 3, "velocity": 69}, {"time": 2370, "pitch": 63, "duration": 3, "velocity": 97}, {"time": 2370, "pitch": 58, "duration": 4, "velocity": 78}, {"time": 2376, "pitch": 58, "duration": 2, "velocity": 65}, {"time": 2376, "pitch": 67, "duration": 4, "velocity": 75}, {"time": 2382, "pitch": 58, "duration": 3, "velocity": 78}, {"time": 2382, "pitch": 63, "duration": 4, "velocity": 79}, {"time": 2388, "pitch": 58, "duration": 2, "velocity": 76}, {"time": 2394, "pitch": 51, "duration": 3, "velocity": 70}, {"time": 2400, "pitch": 49, "duration": 45, "velocity": 78}, {"time": 2400, "pitch": 56, "duration": 4, "velocity": 77}, {"time": 2400, "pitch": 61, "duration": 12, "velocity": 77}, {"time": 2418, "pitch": 61, "duration": 6, "velocity": 80}, {"time": 2418, "pitch": 56, "duration": 4, "velocity": 79}, {"time": 2424, "pitch": 56, "duration": 2, "velocity": 69}, {"time": 2424, "pitch": 65, "duration": 5, "velocity": 80}, {"time": 2430, "pitch": 56, "duration": 2, "velocity": 79}, {"time": 2430, "pitch": 61, "duration": 7, "velocity": 79}, {"time": 2436, "pitch": 56, "duration": 3, "velocity": 76}, {"time": 2442, "pitch": 56, "duration": 3, "velocity": 77}, {"time": 2448, "pitch": 48, "duration": 20, "velocity": 77}, {"time": 2448, "pitch": 60, "duration": 3, "velocity": 77}, {"time": 2448, "pitch": 64, "duration": 6, "velocity": 77}, {"time": 2454, "pitch": 60, "duration": 3, "velocity": 77}, {"time": 2454, "pitch": 67, "duration": 3, "velocity": 77}, {"time": 2460, "pitch": 60, "duration": 2, "velocity": 67}, {"time": 2466, "pitch": 64, "duration": 6, "velocity": 78}, {"time": 2466, "pitch": 60, "duration": 6, "velocity": 80}, {"time": 2472, "pitch": 48, "duration": 12, "velocity": 77}, {"time": 2472, "pitch": 60, "duration": 1, "velocity": 77}, {"time": 2472, "pitch": 64, "duration": 3, "velocity": 77}, {"time": 2472, "pitch": 55, "duration": 9, "velocity": 77}, {"time": 2478, "pitch": 60, "duration": 6, "velocity": 77}, {"time": 2478, "pitch": 64, "duration": 9, "velocity": 77}, {"time": 2478, "pitch": 67, "duration": 9, "velocity": 77}, {"time": 2484, "pitch": 52, "duration": 9, "velocity": 77}, {"time": 2490, "pitch": 67, "duration": 6, "velocity": 77}, {"time": 2490, "pitch": 60, "duration": 6, "velocity": 77}, {"time": 2496, "pitch": 53, "duration": 39, "velocity": 73}, {"time": 2496, "pitch": 60, "duration": 6, "velocity": 73}, {"time": 2496, "pitch": 65, "duration": 11, "velocity": 73}, {"time": 2514, "pitch": 65, "duration": 3, "velocity": 74}, {"time": 2514, "pitch": 60, "duration": 3, "velocity": 78}, {"time": 2520, "pitch": 60, "duration": 2, "velocity": 68}, {"time": 2520, "pitch": 68, "duration": 3, "velocity": 97}, {"time": 2526, "pitch": 60, "duration": 4, "velocity": 79}, {"time": 2526, "pitch": 65, "duration": 5, "velocity": 82}, {"time": 2538, "pitch": 53, "duration": 3, "velocity": 97}, {"time": 2538, "pitch": 60, "duration": 3, "velocity": 72}, {"time": 2544, "pitch": 62, "duration": 6, "velocity": 82}, {"time": 2544, "pitch": 46, "duration": 39, "velocity": 72}, {"time": 2544, "pitch": 58, "duration": 6, "velocity": 72}, {"time": 2550, "pitch": 58, "duration": 1, "velocity": 70}, {"time": 2550, "pitch": 65, "duration": 8, "velocity": 70}, {"time": 2550, "pitch": 53, "duration": 26, "velocity": 72}, {"time": 2556, "pitch": 58, "duration": 2, "velocity": 64}, {"time": 2562, "pitch": 62, "duration": 4, "velocity": 79}, {"time": 2562, "pitch": 58, "duration": 4, "velocity": 75}, {"time": 2568, "pitch": 58, "duration": 5, "velocity": 73}, {"time": 2568, "pitch": 65, "duration": 7, "velocity": 79}, {"time": 2580, "pitch": 58, "duration": 3, "velocity": 70}, {"time": 2580, "pitch": 62, "duration": 3, "velocity": 70}, {"time": 2580, "pitch": 53, "duration": 3, "velocity": 73}, {"time": 2586, "pitch": 46, "duration": 3, "velocity": 63}, {"time": 2586, "pitch": 58, "duration": 2, "velocity": 62}, {"time": 2592, "pitch": 65, "duration": 6, "velocity": 76}, {"time": 2592, "pitch": 49, "duration": 42, "velocity": 76}, {"time": 2592, "pitch": 56, "duration": 6, "velocity": 76}, {"time": 2592, "pitch": 61, "duration": 11, "velocity": 76}, {"time": 2610, "pitch": 61, "duration": 6, "velocity": 78}, {"time": 2610, "pitch": 56, "duration": 4, "velocity": 78}, {"time": 2616, "pitch": 56, "duration": 2, "velocity": 62}, {"time": 2616, "pitch": 65, "duration": 3, "velocity": 97}, {"time": 2622, "pitch": 56, "duration": 3, "velocity": 74}, {"time": 2622, "pitch": 61, "duration": 7, "velocity": 75}, {"time": 2628, "pitch": 56, "duration": 4, "velocity": 69}, {"time": 2634, "pitch": 49, "duration": 1, "velocity": 79}, {"time": 2634, "pitch": 61, "duration": 3, "velocity": 80}, {"time": 2640, "pitch": 44, "duration": 39, "velocity": 76}, {"time": 2640, "pitch": 56, "duration": 6, "velocity": 76}, {"time": 2640, "pitch": 60, "duration": 6, "velocity": 76}, {"time": 2646, "pitch": 56, "duration": 1, "velocity": 97}, {"time": 2646, "pitch": 63, "duration": 6, "velocity": 77}, {"time": 2652, "pitch": 51, "duration": 14, "velocity": 53}, {"time": 2658, "pitch": 60, "duration": 3, "velocity": 97}, {"time": 2658, "pitch": 56, "duration": 3, "velocity": 73}, {"time": 2664, "pitch": 56, "duration": 5, "velocity": 78}, {"time": 2664, "pitch": 60, "duration": 6, "velocity": 80}, {"time": 2664, "pitch": 63, "duration": 6, "velocity": 79}, {"time": 2670, "pitch": 51, "duration": 5, "velocity": 75}, {"time": 2676, "pitch": 56, "duration": 2, "velocity": 78}, {"time": 2682, "pitch": 44, "duration": 6, "velocity": 73}, {"time": 2688, "pitch": 53, "duration": 42, "velocity": 79}, {"time": 2688, "pitch": 60, "duration": 5, "velocity": 78}, {"time": 2688, "pitch": 65, "duration": 11, "velocity": 78}, {"time": 2706, "pitch": 65, "duration": 4, "velocity": 72}, {"time": 2706, "pitch": 60, "duration": 3, "velocity": 80}, {"time": 2712, "pitch": 60, "duration": 3, "velocity": 65}, {"time": 2712, "pitch": 68, "duration": 6, "velocity": 97}, {"time": 2718, "pitch": 60, "duration": 3, "velocity": 80}, {"time": 2718, "pitch": 65, "duration": 5, "velocity": 84}, {"time": 2724, "pitch": 60, "duration": 3, "velocity": 75}, {"time": 2730, "pitch": 53, "duration": 1, "velocity": 67}, {"time": 2730, "pitch": 60, "duration": 3, "velocity": 97}, {"time": 2730, "pitch": 65, "duration": 2, "velocity": 66}, {"time": 2736, "pitch": 51, "duration": 37, "velocity": 79}, {"time": 2736, "pitch": 58, "duration": 6, "velocity": 71}, {"time": 2736, "pitch": 63, "duration": 6, "velocity": 75}, {"time": 2742, "pitch": 58, "duration": 3, "velocity": 97}, {"time": 2742, "pitch": 67, "duration": 6, "velocity": 97}, {"time": 2748, "pitch": 58, "duration": 2, "velocity": 65}, {"time": 2760, "pitch": 58, "duration": 4, "velocity": 78}, {"time": 2760, "pitch": 67, "duration": 4, "velocity": 75}, {"time": 2772, "pitch": 58, "duration": 2, "velocity": 78}, {"time": 2772, "pitch": 63, "duration": 4, "velocity": 79}, {"time": 2778, "pitch": 58, "duration": 2, "velocity": 76}, {"time": 2784, "pitch": 49, "duration": 15, "velocity": 82}, {"time": 2784, "pitch": 56, "duration": 7, "velocity": 74}, {"time": 2785, "pitch": 61, "duration": 11, "velocity": 76}, {"time": 2796, "pitch": 56, "duration": 8, "velocity": 79}, {"time": 2802, "pitch": 61, "duration": 5, "velocity": 79}, {"time": 2808, "pitch": 39, "duration": 17, "velocity": 62}, {"time": 2808, "pitch": 58, "duration": 7, "velocity": 62}, {"time": 2809, "pitch": 63, "duration": 12, "velocity": 70}, {"time": 2814, "pitch": 46, "duration": 10, "velocity": 62}, {"time": 2820, "pitch": 58, "duration": 9, "velocity": 76}, {"time": 2826, "pitch": 63, "duration": 4, "velocity": 76}, {"time": 2832, "pitch": 41, "duration": 47, "velocity": 72}, {"time": 2832, "pitch": 48, "duration": 9, "velocity": 73}, {"time": 2832, "pitch": 60, "duration": 6, "velocity": 73}, {"time": 2833, "pitch": 65, "duration": 11, "velocity": 75}, {"time": 2844, "pitch": 48, "duration": 36, "velocity": 57}, {"time": 2850, "pitch": 60, "duration": 8, "velocity": 72}, {"time": 2850, "pitch": 68, "duration": 7, "velocity": 73}, {"time": 2862, "pitch": 60, "duration": 4, "velocity": 74}, {"time": 2862, "pitch": 65, "duration": 19, "velocity": 78}, {"time": 2868, "pitch": 60, "duration": 12, "velocity": 73}, {"time": 2880, "pitch": 49, "duration": 27, "velocity": 84}, {"time": 2880, "pitch": 56, "duration": 8, "velocity": 79}, {"time": 2880, "pitch": 61, "duration": 14, "velocity": 79}, {"time": 2892, "pitch": 56, "duration": 7, "velocity": 74}, {"time": 2904, "pitch": 56, "duration": 3, "velocity": 79}, {"time": 2904, "pitch": 61, "duration": 4, "velocity": 83}, {"time": 2904, "pitch": 65, "duration": 4, "velocity": 80}, {"time": 2910, "pitch": 49, "duration": 2, "velocity": 78}, {"time": 2916, "pitch": 56, "duration": 4, "velocity": 77}, {"time": 2922, "pitch": 61, "duration": 4, "velocity": 74}, {"time": 2928, "pitch": 51, "duration": 21, "velocity": 74}, {"time": 2928, "pitch": 58, "duration": 5, "velocity": 69}, {"time": 2928, "pitch": 63, "duration": 5, "velocity": 74}, {"time": 2934, "pitch": 58, "duration": 2, "velocity": 72}, {"time": 2934, "pitch": 67, "duration": 3, "velocity": 72}, {"time": 2940, "pitch": 58, "duration": 2, "velocity": 69}, {"time": 2952, "pitch": 58, "duration": 3, "velocity": 73}, {"time": 2952, "pitch": 67, "duration": 4, "velocity": 73}, {"time": 2952, "pitch": 51, "duration": 7, "velocity": 66}, {"time": 2964, "pitch": 58, "duration": 3, "velocity": 74}, {"time": 2964, "pitch": 63, "duration": 8, "velocity": 78}, {"time": 2970, "pitch": 58, "duration": 4, "velocity": 68}, {"time": 2976, "pitch": 48, "duration": 20, "velocity": 80}, {"time": 2976, "pitch": 60, "duration": 6, "velocity": 73}, {"time": 2976, "pitch": 63, "duration": 8, "velocity": 75}, {"time": 2988, "pitch": 60, "duration": 2, "velocity": 71}, {"time": 2994, "pitch": 60, "duration": 3, "velocity": 65}, {"time": 2994, "pitch": 63, "duration": 2, "velocity": 64}, {"time": 3000, "pitch": 60, "duration": 8, "velocity": 80}, {"time": 3000, "pitch": 63, "duration": 8, "velocity": 80}, {"time": 3000, "pitch": 67, "duration": 8, "velocity": 84}, {"time": 3006, "pitch": 55, "duration": 5, "velocity": 65}, {"time": 3012, "pitch": 60, "duration": 3, "velocity": 73}, {"time": 3018, "pitch": 60, "duration": 3, "velocity": 77}, {"time": 3018, "pitch": 63, "duration": 4, "velocity": 76}, {"time": 3024, "pitch": 41, "duration": 33, "velocity": 80}, {"time": 3024, "pitch": 60, "duration": 5, "velocity": 74}, {"time": 3024, "pitch": 65, "duration": 6, "velocity": 76}, {"time": 3030, "pitch": 60, "duration": 3, "velocity": 97}, {"time": 3030, "pitch": 68, "duration": 3, "velocity": 97}, {"time": 3030, "pitch": 48, "duration": 26, "velocity": 62}, {"time": 3036, "pitch": 60, "duration": 2, "velocity": 69}, {"time": 3048, "pitch": 60, "duration": 3, "velocity": 79}, {"time": 3048, "pitch": 68, "duration": 4, "velocity": 78}, {"time": 3060, "pitch": 60, "duration": 2, "velocity": 79}, {"time": 3060, "pitch": 65, "duration": 5, "velocity": 80}, {"time": 3066, "pitch": 60, "duration": 2, "velocity": 74}, {"time": 3072, "pitch": 46, "duration": 43, "velocity": 79}, {"time": 3072, "pitch": 58, "duration": 6, "velocity": 70}, {"time": 3072, "pitch": 61, "duration": 8, "velocity": 73}, {"time": 3078, "pitch": 53, "duration": 20, "velocity": 64}, {"time": 3084, "pitch": 58, "duration": 3, "velocity": 48}, {"time": 3096, "pitch": 58, "duration": 4, "velocity": 76}, {"time": 3096, "pitch": 61, "duration": 4, "velocity": 80}, {"time": 3096, "pitch": 65, "duration": 4, "velocity": 80}, {"time": 3102, "pitch": 53, "duration": 13, "velocity": 72}, {"time": 3108, "pitch": 58, "duration": 2, "velocity": 68}, {"time": 3114, "pitch": 58, "duration": 12, "velocity": 79}, {"time": 3114, "pitch": 61, "duration": 9, "velocity": 82}, {"time": 3120, "pitch": 46, "duration": 12, "velocity": 78}, {"time": 3126, "pitch": 58, "duration": 1, "velocity": 70}, {"time": 3126, "pitch": 61, "duration": 3, "velocity": 97}, {"time": 3126, "pitch": 53, "duration": 16, "velocity": 70}, {"time": 3132, "pitch": 46, "duration": 1, "velocity": 97}, {"time": 3132, "pitch": 58, "duration": 2, "velocity": 71}, {"time": 3144, "pitch": 58, "duration": 10, "velocity": 78}, {"time": 3144, "pitch": 61, "duration": 10, "velocity": 79}, {"time": 3144, "pitch": 53, "duration": 8, "velocity": 75}, {"time": 3156, "pitch": 53, "duration": 6, "velocity": 70}, {"time": 3156, "pitch": 58, "duration": 5, "velocity": 70}, {"time": 3156, "pitch": 61, "duration": 5, "velocity": 70}, {"time": 3162, "pitch": 46, "duration": 6, "velocity": 59}, {"time": 3168, "pitch": 48, "duration": 43, "velocity": 79}, {"time": 3168, "pitch": 60, "duration": 13, "velocity": 79}, {"time": 3168, "pitch": 65, "duration": 14, "velocity": 80}, {"time": 3180, "pitch": 55, "duration": 14, "velocity": 64}, {"time": 3186, "pitch": 60, "duration": 3, "velocity": 77}, {"time": 3198, "pitch": 60, "duration": 6, "velocity": 84}, {"time": 3198, "pitch": 65, "duration": 6, "velocity": 89}, {"time": 3198, "pitch": 55, "duration": 13, "velocity": 70}, {"time": 3204, "pitch": 60, "duration": 7, "velocity": 77}, {"time": 3210, "pitch": 65, "duration": 3, "velocity": 74}, {"time": 3216, "pitch": 48, "duration": 29, "velocity": 79}, {"time": 3216, "pitch": 60, "duration": 29, "velocity": 78}, {"time": 3216, "pitch": 64, "duration": 29, "velocity": 76}, {"time": 3264, "pitch": 41, "duration": 42, "velocity": 80}, {"time": 3270, "pitch": 48, "duration": 36, "velocity": 67}, {"time": 3276, "pitch": 53, "duration": 17, "velocity": 74}, {"time": 3282, "pitch": 60, "duration": 13, "velocity": 76}, {"time": 3294, "pitch": 65, "duration": 14, "velocity": 80}, {"time": 3300, "pitch": 53, "duration": 9, "velocity": 77}, {"time": 3306, "pitch": 60, "duration": 6, "velocity": 71}, {"time": 3312, "pitch": 39, "duration": 44, "velocity": 72}, {"time": 3318, "pitch": 46, "duration": 37, "velocity": 72}, {"time": 3324, "pitch": 58, "duration": 16, "velocity": 70}, {"time": 3330, "pitch": 67, "duration": 10, "velocity": 79}, {"time": 3342, "pitch": 63, "duration": 5, "velocity": 79}, {"time": 3348, "pitch": 58, "duration": 9, "velocity": 76}, {"time": 3360, "pitch": 39, "duration": 32, "velocity": 81}, {"time": 3360, "pitch": 63, "duration": 13, "velocity": 78}, {"time": 3366, "pitch": 46, "duration": 26, "velocity": 58}, {"time": 3372, "pitch": 58, "duration": 4, "velocity": 72}, {"time": 3378, "pitch": 58, "duration": 8, "velocity": 74}, {"time": 3378, "pitch": 67, "duration": 12, "velocity": 78}, {"time": 3390, "pitch": 63, "duration": 6, "velocity": 82}, {"time": 3396, "pitch": 58, "duration": 6, "velocity": 76}, {"time": 3408, "pitch": 44, "duration": 37, "velocity": 75}, {"time": 3408, "pitch": 63, "duration": 14, "velocity": 74}, {"time": 3414, "pitch": 51, "duration": 29, "velocity": 60}, {"time": 3420, "pitch": 56, "duration": 7, "velocity": 74}, {"time": 3426, "pitch": 60, "duration": 12, "velocity": 81}, {"time": 3438, "pitch": 56, "duration": 6, "velocity": 75}, {"time": 3444, "pitch": 63, "duration": 3, "velocity": 78}, {"time": 3456, "pitch": 41, "duration": 34, "velocity": 78}, {"time": 3456, "pitch": 65, "duration": 13, "velocity": 74}, {"time": 3462, "pitch": 48, "duration": 26, "velocity": 67}, {"time": 3468, "pitch": 60, "duration": 8, "velocity": 77}, {"time": 3474, "pitch": 68, "duration": 12, "velocity": 78}, {"time": 3486, "pitch": 65, "duration": 7, "velocity": 79}, {"time": 3492, "pitch": 60, "duration": 4, "velocity": 77}, {"time": 3504, "pitch": 51, "duration": 39, "velocity": 75}, {"time": 3504, "pitch": 63, "duration": 9, "velocity": 63}, {"time": 3504, "pitch": 67, "duration": 5, "velocity": 70}, {"time": 3510, "pitch": 58, "duration": 8, "velocity": 61}, {"time": 3516, "pitch": 63, "duration": 6, "velocity": 74}, {"time": 3522, "pitch": 67, "duration": 9, "velocity": 80}, {"time": 3534, "pitch": 63, "duration": 6, "velocity": 79}, {"time": 3540, "pitch": 58, "duration": 5, "velocity": 76}, {"time": 3552, "pitch": 51, "duration": 35, "velocity": 79}, {"time": 3552, "pitch": 63, "duration": 6, "velocity": 77}, {"time": 3558, "pitch": 58, "duration": 8, "velocity": 75}, {"time": 3564, "pitch": 63, "duration": 4, "velocity": 74}, {"time": 3570, "pitch": 67, "duration": 11, "velocity": 83}, {"time": 3582, "pitch": 63, "duration": 6, "velocity": 77}, {"time": 3588, "pitch": 58, "duration": 3, "velocity": 75}, {"time": 3600, "pitch": 48, "duration": 41, "velocity": 80}, {"time": 3606, "pitch": 55, "duration": 16, "velocity": 51}, {"time": 3612, "pitch": 60, "duration": 8, "velocity": 81}, {"time": 3618, "pitch": 67, "duration": 13, "velocity": 79}, {"time": 3630, "pitch": 64, "duration": 9, "velocity": 79}, {"time": 3636, "pitch": 55, "duration": 4, "velocity": 66}, {"time": 3642, "pitch": 60, "duration": 8, "velocity": 80}, {"time": 3648, "pitch": 41, "duration": 37, "velocity": 80}, {"time": 3648, "pitch": 65, "duration": 12, "velocity": 79}, {"time": 3654, "pitch": 48, "duration": 30, "velocity": 64}, {"time": 3660, "pitch": 60, "duration": 8, "velocity": 79}, {"time": 3666, "pitch": 68, "duration": 13, "velocity": 81}, {"time": 3678, "pitch": 65, "duration": 7, "velocity": 79}, {"time": 3684, "pitch": 60, "duration": 4, "velocity": 81}, {"time": 3696, "pitch": 51, "duration": 33, "velocity": 79}, {"time": 3696, "pitch": 63, "duration": 7, "velocity": 71}, {"time": 3702, "pitch": 58, "duration": 8, "velocity": 76}, {"time": 3708, "pitch": 63, "duration": 5, "velocity": 73}, {"time": 3714, "pitch": 67, "duration": 11, "velocity": 79}, {"time": 3726, "pitch": 63, "duration": 6, "velocity": 80}, {"time": 3732, "pitch": 58, "duration": 3, "velocity": 79}, {"time": 3744, "pitch": 49, "duration": 44, "velocity": 79}, {"time": 3744, "pitch": 56, "duration": 4, "velocity": 73}, {"time": 3744, "pitch": 61, "duration": 7, "velocity": 74}, {"time": 3750, "pitch": 56, "duration": 8, "velocity": 74}, {"time": 3756, "pitch": 61, "duration": 3, "velocity": 70}, {"time": 3762, "pitch": 56, "duration": 7, "velocity": 78}, {"time": 3762, "pitch": 65, "duration": 9, "velocity": 79}, {"time": 3774, "pitch": 56, "duration": 3, "velocity": 76}, {"time": 3774, "pitch": 61, "duration": 14, "velocity": 75}, {"time": 3786, "pitch": 56, "duration": 3, "velocity": 69}, {"time": 3792, "pitch": 51, "duration": 22, "velocity": 80}, {"time": 3792, "pitch": 63, "duration": 6, "velocity": 74}, {"time": 3798, "pitch": 58, "duration": 8, "velocity": 70}, {"time": 3804, "pitch": 63, "duration": 6, "velocity": 73}, {"time": 3810, "pitch": 67, "duration": 13, "velocity": 80}, {"time": 3822, "pitch": 63, "duration": 6, "velocity": 82}, {"time": 3826, "pitch": 58, "duration": 3, "velocity": 78}, {"time": 3836, "pitch": 58, "duration": 48, "velocity": 67}, {"time": 3838, "pitch": 39, "duration": 47, "velocity": 81}, {"time": 3838, "pitch": 63, "duration": 46, "velocity": 76}, {"time": 3840, "pitch": 67, "duration": 44, "velocity": 72}, {"time": 3888, "pitch": 53, "duration": 39, "velocity": 83}, {"time": 3888, "pitch": 60, "duration": 6, "velocity": 74}, {"time": 3888, "pitch": 65, "duration": 11, "velocity": 78}, {"time": 3906, "pitch": 60, "duration": 3, "velocity": 80}, {"time": 3906, "pitch": 65, "duration": 2, "velocity": 80}, {"time": 3912, "pitch": 60, "duration": 2, "velocity": 75}, {"time": 3912, "pitch": 65, "duration": 2, "velocity": 75}, {"time": 3912, "pitch": 68, "duration": 2, "velocity": 75}, {"time": 3918, "pitch": 60, "duration": 4, "velocity": 79}, {"time": 3918, "pitch": 65, "duration": 5, "velocity": 82}, {"time": 3930, "pitch": 53, "duration": 6, "velocity": 97}, {"time": 3936, "pitch": 46, "duration": 39, "velocity": 79}, {"time": 3942, "pitch": 58, "duration": 7, "velocity": 73}, {"time": 3942, "pitch": 65, "duration": 8, "velocity": 79}, {"time": 3942, "pitch": 53, "duration": 26, "velocity": 65}, {"time": 3948, "pitch": 58, "duration": 1, "velocity": 64}, {"time": 3954, "pitch": 62, "duration": 4, "velocity": 79}, {"time": 3954, "pitch": 58, "duration": 4, "velocity": 75}, {"time": 3960, "pitch": 58, "duration": 5, "velocity": 73}, {"time": 3960, "pitch": 65, "duration": 7, "velocity": 79}, {"time": 3972, "pitch": 53, "duration": 6, "velocity": 75}, {"time": 3978, "pitch": 58, "duration": 6, "velocity": 65}, {"time": 3984, "pitch": 49, "duration": 45, "velocity": 82}, {"time": 3984, "pitch": 56, "duration": 6, "velocity": 82}, {"time": 3984, "pitch": 61, "duration": 11, "velocity": 82}, {"time": 3984, "pitch": 65, "duration": 3, "velocity": 85}, {"time": 3996, "pitch": 56, "duration": 2, "velocity": 65}, {"time": 4002, "pitch": 56, "duration": 4, "velocity": 78}, {"time": 4002, "pitch": 61, "duration": 6, "velocity": 78}, {"time": 4008, "pitch": 56, "duration": 3, "velocity": 76}, {"time": 4008, "pitch": 61, "duration": 3, "velocity": 76}, {"time": 4008, "pitch": 65, "duration": 3, "velocity": 76}, {"time": 4014, "pitch": 56, "duration": 3, "velocity": 76}, {"time": 4014, "pitch": 61, "duration": 6, "velocity": 76}, {"time": 4020, "pitch": 56, "duration": 4, "velocity": 76}, {"time": 4020, "pitch": 61, "duration": 3, "velocity": 76}, {"time": 4026, "pitch": 61, "duration": 3, "velocity": 70}, {"time": 4026, "pitch": 65, "duration": 3, "velocity": 72}, {"time": 4032, "pitch": 44, "duration": 35, "velocity": 76}, {"time": 4032, "pitch": 56, "duration": 10, "velocity": 74}, {"time": 4032, "pitch": 60, "duration": 11, "velocity": 77}, {"time": 4044, "pitch": 51, "duration": 14, "velocity": 53}, {"time": 4050, "pitch": 56, "duration": 3, "velocity": 73}, {"time": 4056, "pitch": 56, "duration": 5, "velocity": 78}, {"time": 4056, "pitch": 60, "duration": 6, "velocity": 80}, {"time": 4056, "pitch": 63, "duration": 6, "velocity": 79}, {"time": 4062, "pitch": 51, "duration": 5, "velocity": 75}, {"time": 4068, "pitch": 56, "duration": 2, "velocity": 78}, {"time": 4074, "pitch": 51, "duration": 3, "velocity": 75}, {"time": 4074, "pitch": 56, "duration": 3, "velocity": 75}, {"time": 4080, "pitch": 68, "duration": 9, "velocity": 80}, {"time": 4080, "pitch": 53, "duration": 45, "velocity": 80}, {"time": 4080, "pitch": 60, "duration": 5, "velocity": 80}, {"time": 4080, "pitch": 65, "duration": 11, "velocity": 80}, {"time": 4098, "pitch": 65, "duration": 4, "velocity": 72}, {"time": 4098, "pitch": 60, "duration": 3, "velocity": 80}, {"time": 4104, "pitch": 60, "duration": 3, "velocity": 80}, {"time": 4104, "pitch": 68, "duration": 4, "velocity": 72}, {"time": 4110, "pitch": 60, "duration": 3, "velocity": 80}, {"time": 4110, "pitch": 65, "duration": 5, "velocity": 84}, {"time": 4116, "pitch": 60, "duration": 3, "velocity": 75}, {"time": 4122, "pitch": 68, "duration": 3, "velocity": 76}, {"time": 4122, "pitch": 65, "duration": 2, "velocity": 73}, {"time": 4128, "pitch": 51, "duration": 42, "velocity": 79}, {"time": 4128, "pitch": 58, "duration": 6, "velocity": 71}, {"time": 4128, "pitch": 63, "duration": 6, "velocity": 75}, {"time": 4134, "pitch": 58, "duration": 3, "velocity": 69}, {"time": 4134, "pitch": 67, "duration": 3, "velocity": 69}, {"time": 4146, "pitch": 63, "duration": 3, "velocity": 97}, {"time": 4146, "pitch": 58, "duration": 4, "velocity": 78}, {"time": 4152, "pitch": 58, "duration": 2, "velocity": 65}, {"time": 4152, "pitch": 67, "duration": 4, "velocity": 75}, {"time": 4158, "pitch": 58, "duration": 3, "velocity": 78}, {"time": 4158, "pitch": 63, "duration": 4, "velocity": 79}, {"time": 4164, "pitch": 58, "duration": 2, "velocity": 76}, {"time": 4170, "pitch": 51, "duration": 3, "velocity": 70}, {"time": 4176, "pitch": 49, "duration": 45, "velocity": 78}, {"time": 4176, "pitch": 56, "duration": 4, "velocity": 77}, {"time": 4176, "pitch": 61, "duration": 12, "velocity": 77}, {"time": 4194, "pitch": 61, "duration": 6, "velocity": 80}, {"time": 4194, "pitch": 56, "duration": 4, "velocity": 79}, {"time": 4200, "pitch": 56, "duration": 2, "velocity": 69}, {"time": 4200, "pitch": 65, "duration": 5, "velocity": 80}, {"time": 4206, "pitch": 56, "duration": 2, "velocity": 79}, {"time": 4206, "pitch": 61, "duration": 7, "velocity": 79}, {"time": 4212, "pitch": 56, "duration": 3, "velocity": 76}, {"time": 4218, "pitch": 56, "duration": 3, "velocity": 77}, {"time": 4224, "pitch": 48, "duration": 20, "velocity": 77}, {"time": 4224, "pitch": 60, "duration": 3, "velocity": 77}, {"time": 4224, "pitch": 64, "duration": 6, "velocity": 77}, {"time": 4230, "pitch": 60, "duration": 3, "velocity": 77}, {"time": 4230, "pitch": 67, "duration": 3, "velocity": 77}, {"time": 4236, "pitch": 60, "duration": 2, "velocity": 67}, {"time": 4242, "pitch": 64, "duration": 6, "velocity": 78}, {"time": 4242, "pitch": 60, "duration": 6, "velocity": 80}, {"time": 4248, "pitch": 48, "duration": 12, "velocity": 77}, {"time": 4248, "pitch": 60, "duration": 1, "velocity": 77}, {"time": 4248, "pitch": 64, "duration": 3, "velocity": 77}, {"time": 4248, "pitch": 55, "duration": 9, "velocity": 77}, {"time": 4254, "pitch": 60, "duration": 6, "velocity": 77}, {"time": 4254, "pitch": 64, "duration": 9, "velocity": 77}, {"time": 4254, "pitch": 67, "duration": 9, "velocity": 77}, {"time": 4260, "pitch": 52, "duration": 9, "velocity": 77}, {"time": 4266, "pitch": 67, "duration": 6, "velocity": 77}, {"time": 4266, "pitch": 60, "duration": 6, "velocity": 77}, {"time": 4272, "pitch": 53, "duration": 39, "velocity": 73}, {"time": 4272, "pitch": 60, "duration": 6, "velocity": 73}, {"time": 4272, "pitch": 65, "duration": 11, "velocity": 73}, {"time": 4290, "pitch": 65, "duration": 3, "velocity": 74}, {"time": 4290, "pitch": 60, "duration": 3, "velocity": 78}, {"time": 4296, "pitch": 60, "duration": 2, "velocity": 68}, {"time": 4296, "pitch": 68, "duration": 3, "velocity": 97}, {"time": 4302, "pitch": 60, "duration": 4, "velocity": 79}, {"time": 4302, "pitch": 65, "duration": 5, "velocity": 82}, {"time": 4314, "pitch": 53, "duration": 3, "velocity": 97}, {"time": 4314, "pitch": 60, "duration": 3, "velocity": 72}, {"time": 4320, "pitch": 62, "duration": 6, "velocity": 82}, {"time": 4320, "pitch": 46, "duration": 39, "velocity": 72}, {"time": 4320, "pitch": 58, "duration": 6, "velocity": 72}, {"time": 4326, "pitch": 58, "duration": 1, "velocity": 70}, {"time": 4326, "pitch": 65, "duration": 8, "velocity": 70}, {"time": 4326, "pitch": 53, "duration": 26, "velocity": 72}, {"time": 4332, "pitch": 58, "duration": 2, "velocity": 64}, {"time": 4338, "pitch": 62, "duration": 4, "velocity": 79}, {"time": 4338, "pitch": 58, "duration": 4, "velocity": 75}, {"time": 4344, "pitch": 58, "duration": 5, "velocity": 73}, {"time": 4344, "pitch": 65, "duration": 7, "velocity": 79}, {"time": 4356, "pitch": 58, "duration": 3, "velocity": 70}, {"time": 4356, "pitch": 62, "duration": 3, "velocity": 70}, {"time": 4356, "pitch": 53, "duration": 3, "velocity": 73}, {"time": 4362, "pitch": 46, "duration": 3, "velocity": 63}, {"time": 4362, "pitch": 58, "duration": 2, "velocity": 62}, {"time": 4368, "pitch": 65, "duration": 6, "velocity": 76}, {"time": 4368, "pitch": 49, "duration": 42, "velocity": 76}, {"time": 4368, "pitch": 56, "duration": 6, "velocity": 76}, {"time": 4368, "pitch": 61, "duration": 11, "velocity": 76}, {"time": 4386, "pitch": 61, "duration": 6, "velocity": 78}, {"time": 4386, "pitch": 56, "duration": 4, "velocity": 78}, {"time": 4392, "pitch": 56, "duration": 2, "velocity": 62}, {"time": 4392, "pitch": 65, "duration": 3, "velocity": 97}, {"time": 4398, "pitch": 56, "duration": 3, "velocity": 74}, {"time": 4398, "pitch": 61, "duration": 7, "velocity": 75}, {"time": 4404, "pitch": 56, "duration": 4, "velocity": 69}, {"time": 4410, "pitch": 49, "duration": 1, "velocity": 79}, {"time": 4410, "pitch": 61, "duration": 3, "velocity": 80}, {"time": 4416, "pitch": 44, "duration": 39, "velocity": 76}, {"time": 4416, "pitch": 56, "duration": 6, "velocity": 76}, {"time": 4416, "pitch": 60, "duration": 6, "velocity": 76}, {"time": 4422, "pitch": 56, "duration": 1, "velocity": 97}, {"time": 4422, "pitch": 63, "duration": 6, "velocity": 77}, {"time": 4428, "pitch": 51, "duration": 14, "velocity": 53}, {"time": 4434, "pitch": 60, "duration": 3, "velocity": 97}, {"time": 4434, "pitch": 56, "duration": 3, "velocity": 73}, {"time": 4440, "pitch": 56, "duration": 5, "velocity": 78}, {"time": 4440, "pitch": 60, "duration": 6, "velocity": 80}, {"time": 4440, "pitch": 63, "duration": 6, "velocity": 79}, {"time": 4446, "pitch": 51, "duration": 5, "velocity": 75}, {"time": 4452, "pitch": 56, "duration": 2, "velocity": 78}, {"time": 4458, "pitch": 44, "duration": 6, "velocity": 73}, {"time": 4464, "pitch": 53, "duration": 42, "velocity": 79}, {"time": 4464, "pitch": 60, "duration": 5, "velocity": 78}, {"time": 4464, "pitch": 65, "duration": 11, "velocity": 78}, {"time": 4482, "pitch": 65, "duration": 4, "velocity": 72}, {"time": 4482, "pitch": 60, "duration": 3, "velocity": 80}, {"time": 4488, "pitch": 60, "duration": 3, "velocity": 65}, {"time": 4488, "pitch": 68, "duration": 6, "velocity": 97}, {"time": 4494, "pitch": 60, "duration": 3, "velocity": 80}, {"time": 4494, "pitch": 65, "duration": 5, "velocity": 84}, {"time": 4500, "pitch": 60, "duration": 3, "velocity": 75}, {"time": 4506, "pitch": 53, "duration": 1, "velocity": 67}, {"time": 4506, "pitch": 60, "duration": 3, "velocity": 97}, {"time": 4506, "pitch": 65, "duration": 2, "velocity": 66}, {"time": 4512, "pitch": 51, "duration": 37, "velocity": 79}, {"time": 4512, "pitch": 58, "duration": 6, "velocity": 71}, {"time": 4512, "pitch": 63, "duration": 6, "velocity": 75}, {"time": 4518, "pitch": 58, "duration": 3, "velocity": 97}, {"time": 4518, "pitch": 67, "duration": 6, "velocity": 97}, {"time": 4524, "pitch": 58, "duration": 2, "velocity": 65}, {"time": 4536, "pitch": 58, "duration": 4, "velocity": 78}, {"time": 4536, "pitch": 67, "duration": 4, "velocity": 75}, {"time": 4548, "pitch": 58, "duration": 2, "velocity": 78}, {"time": 4548, "pitch": 63, "duration": 4, "velocity": 79}, {"time": 4554, "pitch": 58, "duration": 2, "velocity": 76}, {"time": 4560, "pitch": 49, "duration": 15, "velocity": 82}, {"time": 4560, "pitch": 56, "duration": 7, "velocity": 74}, {"time": 4561, "pitch": 61, "duration": 11, "velocity": 76}, {"time": 4572, "pitch": 56, "duration": 8, "velocity": 79}, {"time": 4578, "pitch": 61, "duration": 5, "velocity": 79}, {"time": 4584, "pitch": 39, "duration": 17, "velocity": 62}, {"time": 4584, "pitch": 58, "duration": 7, "velocity": 62}, {"time": 4585, "pitch": 63, "duration": 12, "velocity": 70}, {"time": 4590, "pitch": 46, "duration": 10, "velocity": 62}, {"time": 4596, "pitch": 58, "duration": 9, "velocity": 76}, {"time": 4602, "pitch": 63, "duration": 4, "velocity": 76}, {"time": 4608, "pitch": 41, "duration": 47, "velocity": 72}, {"time": 4608, "pitch": 48, "duration": 9, "velocity": 73}, {"time": 4608, "pitch": 60, "duration": 6, "velocity": 73}, {"time": 4609, "pitch": 65, "duration": 11, "velocity": 75}, {"time": 4620, "pitch": 48, "duration": 36, "velocity": 57}, {"time": 4626, "pitch": 60, "duration": 8, "velocity": 72}, {"time": 4626, "pitch": 68, "duration": 7, "velocity": 73}, {"time": 4638, "pitch": 60, "duration": 4, "velocity": 74}, {"time": 4638, "pitch": 65, "duration": 19, "velocity": 78}, {"time": 4644, "pitch": 60, "duration": 12, "velocity": 73}, {"time": 4656, "pitch": 53, "duration": 39, "velocity": 83}, {"time": 4656, "pitch": 60, "duration": 1, "velocity": 74}, {"time": 4656, "pitch": 65, "duration": 1, "velocity": 78}, {"time": 4674, "pitch": 60, "duration": 3, "velocity": 80}, {"time": 4674, "pitch": 65, "duration": 2, "velocity": 80}, {"time": 4680, "pitch": 60, "duration": 2, "velocity": 75}, {"time": 4680, "pitch": 65, "duration": 2, "velocity": 75}, {"time": 4680, "pitch": 68, "duration": 2, "velocity": 75}, {"time": 4686, "pitch": 60, "duration": 4, "velocity": 79}, {"time": 4686, "pitch": 65, "duration": 5, "velocity": 82}, {"time": 4698, "pitch": 53, "duration": 6, "velocity": 97}, {"time": 4704, "pitch": 46, "duration": 39, "velocity": 79}, {"time": 4710, "pitch": 58, "duration": 7, "velocity": 73}, {"time": 4710, "pitch": 65, "duration": 8, "velocity": 79}, {"time": 4710, "pitch": 53, "duration": 26, "velocity": 65}, {"time": 4716, "pitch": 58, "duration": 1, "velocity": 64}, {"time": 4722, "pitch": 62, "duration": 4, "velocity": 79}, {"time": 4722, "pitch": 58, "duration": 4, "velocity": 75}, {"time": 4728, "pitch": 58, "duration": 5, "velocity": 73}, {"time": 4728, "pitch": 65, "duration": 7, "velocity": 79}, {"time": 4740, "pitch": 53, "duration": 6, "velocity": 75}, {"time": 4746, "pitch": 58, "duration": 6, "velocity": 65}, {"time": 4752, "pitch": 49, "duration": 45, "velocity": 82}, {"time": 4752, "pitch": 56, "duration": 6, "velocity": 82}, {"time": 4752, "pitch": 61, "duration": 11, "velocity": 82}, {"time": 4752, "pitch": 65, "duration": 3, "velocity": 85}, {"time": 4764, "pitch": 56, "duration": 2, "velocity": 65}, {"time": 4770, "pitch": 56, "duration": 4, "velocity": 78}, {"time": 4770, "pitch": 61, "duration": 6, "velocity": 78}, {"time": 4776, "pitch": 56, "duration": 3, "velocity": 76}, {"time": 4776, "pitch": 61, "duration": 3, "velocity": 76}, {"time": 4776, "pitch": 65, "duration": 3, "velocity": 76}, {"time": 4782, "pitch": 56, "duration": 3, "velocity": 76}, {"time": 4782, "pitch": 61, "duration": 6, "velocity": 76}, {"time": 4788, "pitch": 56, "duration": 4, "velocity": 76}, {"time": 4788, "pitch": 61, "duration": 3, "velocity": 76}, {"time": 4794, "pitch": 61, "duration": 3, "velocity": 70}, {"time": 4794, "pitch": 65, "duration": 3, "velocity": 72}, {"time": 4800, "pitch": 44, "duration": 35, "velocity": 76}, {"time": 4800, "pitch": 56, "duration": 10, "velocity": 74}, {"time": 4800, "pitch": 60, "duration": 11, "velocity": 77}, {"time": 4812, "pitch": 51, "duration": 14, "velocity": 53}, {"time": 4818, "pitch": 56, "duration": 3, "velocity": 73}, {"time": 4824, "pitch": 56, "duration": 5, "velocity": 78}, {"time": 4824, "pitch": 60, "duration": 6, "velocity": 80}, {"time": 4824, "pitch": 63, "duration": 6, "velocity": 79}, {"time": 4830, "pitch": 51, "duration": 5, "velocity": 75}, {"time": 4836, "pitch": 56, "duration": 2, "velocity": 78}, {"time": 4842, "pitch": 51, "duration": 3, "velocity": 75}, {"time": 4842, "pitch": 56, "duration": 3, "velocity": 75}, {"time": 4848, "pitch": 68, "duration": 9, "velocity": 80}, {"time": 4848, "pitch": 53, "duration": 45, "velocity": 80}, {"time": 4848, "pitch": 60, "duration": 5, "velocity": 80}, {"time": 4848, "pitch": 65, "duration": 11, "velocity": 80}, {"time": 4866, "pitch": 65, "duration": 4, "velocity": 72}, {"time": 4866, "pitch": 60, "duration": 3, "velocity": 80}, {"time": 4872, "pitch": 60, "duration": 3, "velocity": 80}, {"time": 4872, "pitch": 68, "duration": 4, "velocity": 72}, {"time": 4878, "pitch": 60, "duration": 3, "velocity": 80}, {"time": 4878, "pitch": 65, "duration": 5, "velocity": 84}, {"time": 4884, "pitch": 60, "duration": 3, "velocity": 75}, {"time": 4890, "pitch": 68, "duration": 3, "velocity": 76}, {"time": 4890, "pitch": 65, "duration": 2, "velocity": 73}, {"time": 4896, "pitch": 51, "duration": 42, "velocity": 79}, {"time": 4896, "pitch": 58, "duration": 6, "velocity": 71}, {"time": 4896, "pitch": 63, "duration": 6, "velocity": 75}, {"time": 4902, "pitch": 58, "duration": 3, "velocity": 69}, {"time": 4902, "pitch": 67, "duration": 3, "velocity": 69}, {"time": 4914, "pitch": 63, "duration": 3, "velocity": 97}, {"time": 4914, "pitch": 58, "duration": 4, "velocity": 78}, {"time": 4920, "pitch": 58, "duration": 2, "velocity": 65}, {"time": 4920, "pitch": 67, "duration": 4, "velocity": 75}, {"time": 4926, "pitch": 58, "duration": 3, "velocity": 78}, {"time": 4926, "pitch": 63, "duration": 4, "velocity": 79}, {"time": 4932, "pitch": 58, "duration": 2, "velocity": 76}, {"time": 4938, "pitch": 51, "duration": 3, "velocity": 70}, {"time": 4944, "pitch": 49, "duration": 45, "velocity": 78}, {"time": 4944, "pitch": 56, "duration": 4, "velocity": 77}, {"time": 4944, "pitch": 61, "duration": 12, "velocity": 77}, {"time": 4962, "pitch": 61, "duration": 6, "velocity": 80}, {"time": 4962, "pitch": 56, "duration": 4, "velocity": 79}, {"time": 4968, "pitch": 56, "duration": 2, "velocity": 69}, {"time": 4968, "pitch": 65, "duration": 5, "velocity": 80}, {"time": 4974, "pitch": 56, "duration": 2, "velocity": 79}, {"time": 4974, "pitch": 61, "duration": 7, "velocity": 79}, {"time": 4980, "pitch": 56, "duration": 3, "velocity": 76}, {"time": 4986, "pitch": 56, "duration": 3, "velocity": 77}, {"time": 4992, "pitch": 48, "duration": 20, "velocity": 77}, {"time": 4992, "pitch": 60, "duration": 3, "velocity": 77}, {"time": 4992, "pitch": 64, "duration": 6, "velocity": 77}, {"time": 4998, "pitch": 60, "duration": 3, "velocity": 77}, {"time": 4998, "pitch": 67, "duration": 3, "velocity": 77}, {"time": 5004, "pitch": 60, "duration": 2, "velocity": 67}, {"time": 5010, "pitch": 64, "duration": 6, "velocity": 78}, {"time": 5010, "pitch": 60, "duration": 6, "velocity": 80}, {"time": 5016, "pitch": 48, "duration": 12, "velocity": 77}, {"time": 5016, "pitch": 60, "duration": 1, "velocity": 77}, {"time": 5016, "pitch": 64, "duration": 3, "velocity": 77}, {"time": 5016, "pitch": 55, "duration": 9, "velocity": 77}, {"time": 5022, "pitch": 60, "duration": 6, "velocity": 77}, {"time": 5022, "pitch": 64, "duration": 9, "velocity": 77}, {"time": 5022, "pitch": 67, "duration": 9, "velocity": 77}, {"time": 5028, "pitch": 52, "duration": 9, "velocity": 77}, {"time": 5034, "pitch": 67, "duration": 6, "velocity": 77}, {"time": 5034, "pitch": 60, "duration": 6, "velocity": 77}, {"time": 5040, "pitch": 53, "duration": 39, "velocity": 73}, {"time": 5040, "pitch": 60, "duration": 6, "velocity": 73}, {"time": 5040, "pitch": 65, "duration": 11, "velocity": 73}, {"time": 5058, "pitch": 65, "duration": 3, "velocity": 74}, {"time": 5058, "pitch": 60, "duration": 3, "velocity": 78}, {"time": 5064, "pitch": 60, "duration": 2, "velocity": 68}, {"time": 5064, "pitch": 68, "duration": 3, "velocity": 97}, {"time": 5070, "pitch": 60, "duration": 4, "velocity": 79}, {"time": 5070, "pitch": 65, "duration": 5, "velocity": 82}, {"time": 5082, "pitch": 53, "duration": 3, "velocity": 97}, {"time": 5082, "pitch": 60, "duration": 3, "velocity": 72}, {"time": 5088, "pitch": 62, "duration": 6, "velocity": 82}, {"time": 5088, "pitch": 46, "duration": 39, "velocity": 72}, {"time": 5088, "pitch": 58, "duration": 6, "velocity": 72}, {"time": 5094, "pitch": 58, "duration": 1, "velocity": 70}, {"time": 5094, "pitch": 65, "duration": 8, "velocity": 70}, {"time": 5094, "pitch": 53, "duration": 26, "velocity": 72}, {"time": 5100, "pitch": 58, "duration": 2, "velocity": 64}, {"time": 5106, "pitch": 62, "duration": 4, "velocity": 79}, {"time": 5106, "pitch": 58, "duration": 4, "velocity": 75}, {"time": 5112, "pitch": 58, "duration": 5, "velocity": 73}, {"time": 5112, "pitch": 65, "duration": 7, "velocity": 79}, {"time": 5124, "pitch": 58, "duration": 3, "velocity": 70}, {"time": 5124, "pitch": 62, "duration": 3, "velocity": 70}, {"time": 5124, "pitch": 53, "duration": 3, "velocity": 73}, {"time": 5130, "pitch": 46, "duration": 3, "velocity": 63}, {"time": 5130, "pitch": 58, "duration": 2, "velocity": 62}, {"time": 5136, "pitch": 65, "duration": 6, "velocity": 76}, {"time": 5136, "pitch": 49, "duration": 42, "velocity": 76}, {"time": 5136, "pitch": 56, "duration": 6, "velocity": 76}, {"time": 5136, "pitch": 61, "duration": 11, "velocity": 76}, {"time": 5154, "pitch": 61, "duration": 6, "velocity": 78}, {"time": 5154, "pitch": 56, "duration": 4, "velocity": 78}, {"time": 5160, "pitch": 56, "duration": 2, "velocity": 62}, {"time": 5160, "pitch": 65, "duration": 3, "velocity": 97}, {"time": 5166, "pitch": 56, "duration": 3, "velocity": 74}, {"time": 5166, "pitch": 61, "duration": 7, "velocity": 75}, {"time": 5172, "pitch": 56, "duration": 4, "velocity": 69}, {"time": 5178, "pitch": 49, "duration": 1, "velocity": 79}, {"time": 5178, "pitch": 61, "duration": 3, "velocity": 80}, {"time": 5184, "pitch": 44, "duration": 39, "velocity": 76}, {"time": 5184, "pitch": 56, "duration": 6, "velocity": 76}, {"time": 5184, "pitch": 60, "duration": 6, "velocity": 76}, {"time": 5190, "pitch": 56, "duration": 1, "velocity": 97}, {"time": 5190, "pitch": 63, "duration": 6, "velocity": 77}, {"time": 5196, "pitch": 51, "duration": 14, "velocity": 53}, {"time": 5202, "pitch": 60, "duration": 3, "velocity": 97}, {"time": 5202, "pitch": 56, "duration": 3, "velocity": 73}, {"time": 5208, "pitch": 56, "duration": 5, "velocity": 78}, {"time": 5208, "pitch": 60, "duration": 6, "velocity": 80}, {"time": 5208, "pitch": 63, "duration": 6, "velocity": 79}, {"time": 5214, "pitch": 51, "duration": 5, "velocity": 75}, {"time": 5220, "pitch": 56, "duration": 2, "velocity": 78}, {"time": 5226, "pitch": 44, "duration": 6, "velocity": 73}, {"time": 5232, "pitch": 53, "duration": 42, "velocity": 79}, {"time": 5232, "pitch": 60, "duration": 5, "velocity": 78}, {"time": 5232, "pitch": 65, "duration": 11, "velocity": 78}, {"time": 5250, "pitch": 65, "duration": 4, "velocity": 72}, {"time": 5250, "pitch": 60, "duration": 3, "velocity": 80}, {"time": 5256, "pitch": 60, "duration": 3, "velocity": 65}, {"time": 5256, "pitch": 68, "duration": 6, "velocity": 97}, {"time": 5262, "pitch": 60, "duration": 3, "velocity": 80}, {"time": 5262, "pitch": 65, "duration": 5, "velocity": 84}, {"time": 5268, "pitch": 60, "duration": 3, "velocity": 75}, {"time": 5274, "pitch": 53, "duration": 1, "velocity": 67}, {"time": 5274, "pitch": 60, "duration": 3, "velocity": 97}, {"time": 5274, "pitch": 65, "duration": 2, "velocity": 66}, {"time": 5280, "pitch": 51, "duration": 37, "velocity": 79}, {"time": 5280, "pitch": 58, "duration": 6, "velocity": 71}, {"time": 5280, "pitch": 63, "duration": 6, "velocity": 75}, {"time": 5286, "pitch": 58, "duration": 3, "velocity": 97}, {"time": 5286, "pitch": 67, "duration": 6, "velocity": 97}, {"time": 5292, "pitch": 58, "duration": 2, "velocity": 65}, {"time": 5304, "pitch": 58, "duration": 4, "velocity": 78}, {"time": 5304, "pitch": 67, "duration": 4, "velocity": 75}, {"time": 5316, "pitch": 58, "duration": 2, "velocity": 78}, {"time": 5316, "pitch": 63, "duration": 4, "velocity": 79}, {"time": 5322, "pitch": 58, "duration": 2, "velocity": 76}, {"time": 5328, "pitch": 49, "duration": 21, "velocity": 82}, {"time": 5328, "pitch": 56, "duration": 13, "velocity": 74}, {"time": 5329, "pitch": 61, "duration": 18, "velocity": 76}, {"time": 5352, "pitch": 39, "duration": 21, "velocity": 62}, {"time": 5352, "pitch": 58, "duration": 22, "velocity": 62}, {"time": 5353, "pitch": 63, "duration": 21, "velocity": 70}, {"time": 5358, "pitch": 46, "duration": 14, "velocity": 62}, {"time": 5364, "pitch": 51, "duration": 13, "velocity": 73}, {"time": 5376, "pitch": 41, "duration": 47, "velocity": 72}, {"time": 5376, "pitch": 48, "duration": 9, "velocity": 73}, {"time": 5376, "pitch": 60, "duration": 6, "velocity": 73}, {"time": 5377, "pitch": 65, "duration": 11, "velocity": 75}, {"time": 5388, "pitch": 48, "duration": 36, "velocity": 57}, {"time": 5394, "pitch": 60, "duration": 8, "velocity": 72}, {"time": 5394, "pitch": 68, "duration": 7, "velocity": 73}, {"time": 5406, "pitch": 65, "duration": 19, "velocity": 78}, {"time": 5412, "pitch": 60, "duration": 12, "velocity": 73}, {"time": 5423, "pitch": 41, "duration": 1, "velocity": 73}, {"time": 5429, "pitch": 48, "duration": 27, "velocity": 66}, {"time": 5435, "pitch": 60, "duration": 20, "velocity": 75}, {"time": 5442, "pitch": 65, "duration": 16, "velocity": 76}, {"time": 5469, "pitch": 58, "duration": 5, "velocity": 60}, {"time": 5471, "pitch": 63, "duration": 11, "velocity": 60}, {"time": 5471, "pitch": 39, "duration": 36, "velocity": 80}, {"time": 5472, "pitch": 67, "duration": 12, "velocity": 65}, {"time": 5477, "pitch": 46, "duration": 28, "velocity": 57}, {"time": 5483, "pitch": 58, "duration": 10, "velocity": 59}, {"time": 5490, "pitch": 63, "duration": 13, "velocity": 73}, {"time": 5501, "pitch": 67, "duration": 19, "velocity": 80}, {"time": 5508, "pitch": 58, "duration": 8, "velocity": 55}, {"time": 5522, "pitch": 49, "duration": 25, "velocity": 80}, {"time": 5530, "pitch": 56, "duration": 14, "velocity": 66}, {"time": 5539, "pitch": 61, "duration": 11, "velocity": 78}, {"time": 5548, "pitch": 65, "duration": 3, "velocity": 78}, {"time": 5559, "pitch": 51, "duration": 31, "velocity": 70}, {"time": 5560, "pitch": 58, "duration": 36, "velocity": 61}, {"time": 5563, "pitch": 63, "duration": 33, "velocity": 74}, {"time": 5566, "pitch": 67, "duration": 30, "velocity": 68}, {"time": 5610, "pitch": 41, "duration": 110, "velocity": 80}, {"time": 5618, "pitch": 48, "duration": 100, "velocity": 53}, {"time": 5625, "pitch": 55, "duration": 4, "velocity": 65}, {"time": 5630, "pitch": 56, "duration": 7, "velocity": 72}, {"time": 5636, "pitch": 60, "duration": 5, "velocity": 76}, {"time": 5641, "pitch": 65, "duration": 3, "velocity": 78}, {"time": 5649, "pitch": 68, "duration": 4, "velocity": 70}, {"time": 5657, "pitch": 72, "duration": 4, "velocity": 78}, {"time": 5669, "pitch": 72, "duration": 4, "velocity": 45}, {"time": 5672, "pitch": 77, "duration": 4, "velocity": 73}, {"time": 5692, "pitch": 72, "duration": 4, "velocity": 68}, {"time": 5696, "pitch": 79, "duration": 2, "velocity": 71}], "annotations": [{"time": 104, "annotation": {"number": 64, "value": 127}, "group": "control_change"}, {"time": 105, "annotation": {"number": 64, "value": 0}, "group": "control_change"}, {"time": 106, "annotation": {"number": 64, "value": 127}, "group": "control_change"}, {"time": 141, "annotation": {"number": 64, "value": 0}, "group": "control_change"}, {"time": 150, "annotation": {"number": 64, "value": 127}, "group": "control_change"}, {"time": 188, "annotation": {"number": 64, "value": 0}, "group": "control_change"}, {"time": 199, "annotation": {"number": 64, "value": 127}, "group": "control_change"}, {"time": 199, "annotation": {"number": 64, "value": 0}, "group": "control_change"}, {"time": 238, "annotation": {"number": 64, "value": 0}, "group": "control_change"}, {"time": 244, "annotation": {"number": 64, "value": 127}, "group": "control_change"}, {"time": 285, "annotation": {"number": 64, "value": 0}, "group": "control_change"}, {"time": 291, "annotation": {"number": 64, "value": 127}, "group": "control_change"}, {"time": 333, "annotation": {"number": 64, "value": 0}, "group": "control_change"}, {"time": 337, "annotation": {"number": 64, "value": 127}, "group": "control_change"}, {"time": 381, "annotation": {"number": 64, "value": 0}, "group": "control_change"}, {"time": 385, "annotation": {"number": 64, "value": 127}, "group": "control_change"}, {"time": 429, "annotation": {"number": 64, "value": 0}, "group": "control_change"}, {"time": 434, "annotation": {"number": 64, "value": 127}, "group": "control_change"}, {"time": 435, "annotation": {"number": 64, "value": 0}, "group": "control_change"}, {"time": 435, "annotation": {"number": 64, "value": 127}, "group": "control_change"}, {"time": 478, "annotation": {"number": 64, "value": 0}, "group": "control_change"}, {"time": 483, "annotation": {"number": 64, "value": 127}, "group": "control_change"}, {"time": 526, "annotation": {"number": 64, "value": 0}, "group": "control_change"}, {"time": 532, "annotation": {"number": 64, "value": 127}, "group": "control_change"}, {"time": 574, "annotation": {"number": 64, "value": 0}, "group": "control_change"}, {"time": 578, "annotation": {"number": 64, "value": 127}, "group": "control_change"}, {"time": 621, "annotation": {"number": 64, "value": 0}, "group": "control_change"}, {"time": 627, "annotation": {"number": 64, "value": 127}, "group": "control_change"}, {"time": 669, "annotation": {"number": 64, "value": 0}, "group": "control_change"}, {"time": 676, "annotation": {"number": 64, "value": 127}, "group": "control_change"}, {"time": 720, "annotation": {"number": 64, "value": 0}, "group": "control_change"}, {"time": 724, "annotation": {"number": 64, "value": 127}, "group": "control_change"}, {"time": 764, "annotation": {"number": 64, "value": 0}, "group": "control_change"}, {"time": 770, "annotation": {"number": 64, "value": 127}, "group": "control_change"}, {"time": 813, "annotation": {"number": 64, "value": 0}, "group": "control_change"}, {"time": 818, "annotation": {"number": 64, "value": 127}, "group": "control_change"}, {"time": 818, "annotation": {"number": 64, "value": 0}, "group": "control_change"}, {"time": 856, "annotation": {"number": 64, "value": 0}, "group": "control_change"}, {"time": 868, "annotation": {"number": 64, "value": 127}, "group": "control_change"}, {"time": 868, "annotation": {"number": 64, "value": 0}, "group": "control_change"}, {"time": 908, "annotation": {"number": 64, "value": 0}, "group": "control_change"}, {"time": 914, "annotation": {"number": 64, "value": 127}, "group": "control_change"}, {"time": 958, "annotation": {"number": 64, "value": 0}, "group": "control_change"}, {"time": 962, "annotation": {"number": 64, "value": 127}, "group": "control_change"}, {"time": 1006, "annotation": {"number": 64, "value": 0}, "group": "control_change"}, {"time": 1017, "annotation": {"number": 64, "value": 127}, "group": "control_change"}, {"time": 1054, "annotation": {"number": 64, "value": 0}, "group": "control_change"}, {"time": 1062, "annotation": {"number": 64, "value": 127}, "group": "control_change"}, {"time": 1101, "annotation": {"number": 64, "value": 0}, "group": "control_change"}, {"time": 1110, "annotation": {"number": 64, "value": 127}, "group": "control_change"}, {"time": 1151, "annotation": {"number": 64, "value": 0}, "group": "control_change"}, {"time": 1155, "annotation": {"number": 64, "value": 127}, "group": "control_change"}, {"time": 1195, "annotation": {"number": 64, "value": 0}, "group": "control_change"}, {"time": 1200, "annotation": {"number": 64, "value": 127}, "group": "control_change"}, {"time": 1246, "annotation": {"number": 64, "value": 0}, "group": "control_change"}, {"time": 1251, "annotation": {"number": 64, "value": 127}, "group": "control_change"}, {"time": 1251, "annotation": {"number": 64, "value": 0}, "group": "control_change"}, {"time": 1294, "annotation": {"number": 64, "value": 0}, "group": "control_change"}, {"time": 1301, "annotation": {"number": 64, "value": 127}, "group": "control_change"}, {"time": 1342, "annotation": {"number": 64, "value": 0}, "group": "control_change"}, {"time": 1347, "annotation": {"number": 64, "value": 127}, "group": "control_change"}, {"time": 1390, "annotation": {"number": 64, "value": 0}, "group": "control_change"}, {"time": 1394, "annotation": {"number": 64, "value": 127}, "group": "control_change"}, {"time": 1435, "annotation": {"number": 64, "value": 0}, "group": "control_change"}, {"time": 1492, "annotation": {"number": 64, "value": 127}, "group": "control_change"}, {"time": 1492, "annotation": {"number": 64, "value": 0}, "group": "control_change"}, {"time": 1532, "annotation": {"number": 64, "value": 0}, "group": "control_change"}, {"time": 1538, "annotation": {"number": 64, "value": 127}, "group": "control_change"}, {"time": 1582, "annotation": {"number": 64, "value": 0}, "group": "control_change"}, {"time": 1586, "annotation": {"number": 64, "value": 127}, "group": "control_change"}, {"time": 1630, "annotation": {"number": 64, "value": 0}, "group": "control_change"}, {"time": 1641, "annotation": {"number": 64, "value": 127}, "group": "control_change"}, {"time": 1678, "annotation": {"number": 64, "value": 0}, "group": "control_change"}, {"time": 1686, "annotation": {"number": 64, "value": 127}, "group": "control_change"}, {"time": 1725, "annotation": {"number": 64, "value": 0}, "group": "control_change"}, {"time": 1734, "annotation": {"number": 64, "value": 127}, "group": "control_change"}, {"time": 1775, "annotation": {"number": 64, "value": 0}, "group": "control_change"}, {"time": 1779, "annotation": {"number": 64, "value": 127}, "group": "control_change"}, {"time": 1819, "annotation": {"number": 64, "value": 0}, "group": "control_change"}, {"time": 1824, "annotation": {"number": 64, "value": 127}, "group": "control_change"}, {"time": 1870, "annotation": {"number": 64, "value": 0}, "group": "control_change"}, {"time": 1875, "annotation": {"number": 64, "value": 127}, "group": "control_change"}, {"time": 1875, "annotation": {"number": 64, "value": 0}, "group": "control_change"}, {"time": 1918, "annotation": {"number": 64, "value": 0}, "group": "control_change"}, {"time": 1925, "annotation": {"number": 64, "value": 127}, "group": "control_change"}, {"time": 1966, "annotation": {"number": 64, "value": 0}, "group": "control_change"}, {"time": 1971, "annotation": {"number": 64, "value": 127}, "group": "control_change"}, {"time": 2014, "annotation": {"number": 64, "value": 0}, "group": "control_change"}, {"time": 2018, "annotation": {"number": 64, "value": 127}, "group": "control_change"}, {"time": 2059, "annotation": {"number": 64, "value": 0}, "group": "control_change"}, {"time": 2113, "annotation": {"number": 64, "value": 127}, "group": "control_change"}, {"time": 2157, "annotation": {"number": 64, "value": 0}, "group": "control_change"}, {"time": 2162, "annotation": {"number": 64, "value": 127}, "group": "control_change"}, {"time": 2203, "annotation": {"number": 64, "value": 0}, "group": "control_change"}, {"time": 2208, "annotation": {"number": 64, "value": 127}, "group": "control_change"}, {"time": 2253, "annotation": {"number": 64, "value": 0}, "group": "control_change"}, {"time": 2257, "annotation": {"number": 64, "value": 127}, "group": "control_change"}, {"time": 2301, "annotation": {"number": 64, "value": 0}, "group": "control_change"}, {"time": 2304, "annotation": {"number": 64, "value": 127}, "group": "control_change"}, {"time": 2349, "annotation": {"number": 64, "value": 0}, "group": "control_change"}, {"time": 2352, "annotation": {"number": 64, "value": 127}, "group": "control_change"}, {"time": 2395, "annotation": {"number": 64, "value": 0}, "group": "control_change"}, {"time": 2400, "annotation": {"number": 64, "value": 127}, "group": "control_change"}, {"time": 2443, "annotation": {"number": 64, "value": 0}, "group": "control_change"}, {"time": 2448, "annotation": {"number": 64, "value": 127}, "group": "control_change"}, {"time": 2490, "annotation": {"number": 64, "value": 0}, "group": "control_change"}, {"time": 2497, "annotation": {"number": 64, "value": 127}, "group": "control_change"}, {"time": 2541, "annotation": {"number": 64, "value": 0}, "group": "control_change"}, {"time": 2546, "annotation": {"number": 64, "value": 127}, "group": "control_change"}, {"time": 2587, "annotation": {"number": 64, "value": 0}, "group": "control_change"}, {"time": 2592, "annotation": {"number": 64, "value": 127}, "group": "control_change"}, {"time": 2637, "annotation": {"number": 64, "value": 0}, "group": "control_change"}, {"time": 2641, "annotation": {"number": 64, "value": 127}, "group": "control_change"}, {"time": 2685, "annotation": {"number": 64, "value": 0}, "group": "control_change"}, {"time": 2688, "annotation": {"number": 64, "value": 127}, "group": "control_change"}, {"time": 2733, "annotation": {"number": 64, "value": 0}, "group": "control_change"}, {"time": 2736, "annotation": {"number": 64, "value": 127}, "group": "control_change"}, {"time": 2779, "annotation": {"number": 64, "value": 0}, "group": "control_change"}, {"time": 2783, "annotation": {"number": 64, "value": 127}, "group": "control_change"}, {"time": 2783, "annotation": {"number": 64, "value": 0}, "group": "control_change"}, {"time": 2784, "annotation": {"number": 64, "value": 127}, "group": "control_change"}, {"time": 2804, "annotation": {"number": 64, "value": 0}, "group": "control_change"}, {"time": 2807, "annotation": {"number": 64, "value": 127}, "group": "control_change"}, {"time": 2830, "annotation": {"number": 64, "value": 0}, "group": "control_change"}, {"time": 2834, "annotation": {"number": 64, "value": 127}, "group": "control_change"}, {"time": 2874, "annotation": {"number": 64, "value": 0}, "group": "control_change"}, {"time": 2887, "annotation": {"number": 64, "value": 127}, "group": "control_change"}, {"time": 2924, "annotation": {"number": 64, "value": 0}, "group": "control_change"}, {"time": 2927, "annotation": {"number": 64, "value": 127}, "group": "control_change"}, {"time": 2973, "annotation": {"number": 64, "value": 0}, "group": "control_change"}, {"time": 2976, "annotation": {"number": 64, "value": 127}, "group": "control_change"}, {"time": 3022, "annotation": {"number": 64, "value": 0}, "group": "control_change"}, {"time": 3025, "annotation": {"number": 64, "value": 127}, "group": "control_change"}, {"time": 3068, "annotation": {"number": 64, "value": 0}, "group": "control_change"}, {"time": 3074, "annotation": {"number": 64, "value": 127}, "group": "control_change"}, {"time": 3119, "annotation": {"number": 64, "value": 0}, "group": "control_change"}, {"time": 3122, "annotation": {"number": 64, "value": 127}, "group": "control_change"}, {"time": 3166, "annotation": {"number": 64, "value": 0}, "group": "control_change"}, {"time": 3169, "annotation": {"number": 64, "value": 127}, "group": "control_change"}, {"time": 3212, "annotation": {"number": 64, "value": 0}, "group": "control_change"}, {"time": 3215, "annotation": {"number": 64, "value": 127}, "group": "control_change"}, {"time": 3260, "annotation": {"number": 64, "value": 0}, "group": "control_change"}, {"time": 3268, "annotation": {"number": 64, "value": 127}, "group": "control_change"}, {"time": 3268, "annotation": {"number": 64, "value": 0}, "group": "control_change"}, {"time": 3308, "annotation": {"number": 64, "value": 0}, "group": "control_change"}, {"time": 3314, "annotation": {"number": 64, "value": 127}, "group": "control_change"}, {"time": 3358, "annotation": {"number": 64, "value": 0}, "group": "control_change"}, {"time": 3362, "annotation": {"number": 64, "value": 127}, "group": "control_change"}, {"time": 3406, "annotation": {"number": 64, "value": 0}, "group": "control_change"}, {"time": 3417, "annotation": {"number": 64, "value": 127}, "group": "control_change"}, {"time": 3454, "annotation": {"number": 64, "value": 0}, "group": "control_change"}, {"time": 3462, "annotation": {"number": 64, "value": 127}, "group": "control_change"}, {"time": 3501, "annotation": {"number": 64, "value": 0}, "group": "control_change"}, {"time": 3510, "annotation": {"number": 64, "value": 127}, "group": "control_change"}, {"time": 3551, "annotation": {"number": 64, "value": 0}, "group": "control_change"}, {"time": 3555, "annotation": {"number": 64, "value": 127}, "group": "control_change"}, {"time": 3595, "annotation": {"number": 64, "value": 0}, "group": "control_change"}, {"time": 3600, "annotation": {"number": 64, "value": 127}, "group": "control_change"}, {"time": 3646, "annotation": {"number": 64, "value": 0}, "group": "control_change"}, {"time": 3651, "annotation": {"number": 64, "value": 127}, "group": "control_change"}, {"time": 3651, "annotation": {"number": 64, "value": 0}, "group": "control_change"}, {"time": 3694, "annotation": {"number": 64, "value": 0}, "group": "control_change"}, {"time": 3701, "annotation": {"number": 64, "value": 127}, "group": "control_change"}, {"time": 3742, "annotation": {"number": 64, "value": 0}, "group": "control_change"}, {"time": 3747, "annotation": {"number": 64, "value": 127}, "group": "control_change"}, {"time": 3790, "annotation": {"number": 64, "value": 0}, "group": "control_change"}, {"time": 3794, "annotation": {"number": 64, "value": 127}, "group": "control_change"}, {"time": 3835, "annotation": {"number": 64, "value": 0}, "group": "control_change"}, {"time": 3889, "annotation": {"number": 64, "value": 127}, "group": "control_change"}, {"time": 3933, "annotation": {"number": 64, "value": 0}, "group": "control_change"}, {"time": 3938, "annotation": {"number": 64, "value": 127}, "group": "control_change"}, {"time": 3979, "annotation": {"number": 64, "value": 0}, "group": "control_change"}, {"time": 3984, "annotation": {"number": 64, "value": 127}, "group": "control_change"}, {"time": 4029, "annotation": {"number": 64, "value": 0}, "group": "control_change"}, {"time": 4033, "annotation": {"number": 64, "value": 127}, "group": "control_change"}, {"time": 4077, "annotation": {"number": 64, "value": 0}, "group": "control_change"}, {"time": 4080, "annotation": {"number": 64, "value": 127}, "group": "control_change"}, {"time": 4125, "annotation": {"number": 64, "value": 0}, "group": "control_change"}, {"time": 4128, "annotation": {"number": 64, "value": 127}, "group": "control_change"}, {"time": 4171, "annotation": {"number": 64, "value": 0}, "group": "control_change"}, {"time": 4176, "annotation": {"number": 64, "value": 127}, "group": "control_change"}, {"time": 4219, "annotation": {"number": 64, "value": 0}, "group": "control_change"}, {"time": 4224, "annotation": {"number": 64, "value": 127}, "group": "control_change"}, {"time": 4266, "annotation": {"number": 64, "value": 0}, "group": "control_change"}, {"time": 4273, "annotation": {"number": 64, "value": 127}, "group": "control_change"}, {"time": 4317, "annotation": {"number": 64, "value": 0}, "group": "control_change"}, {"time": 4322, "annotation": {"number": 64, "value": 127}, "group": "control_change"}, {"time": 4363, "annotation": {"number": 64, "value": 0}, "group": "control_change"}, {"time": 4368, "annotation": {"number": 64, "value": 127}, "group": "control_change"}, {"time": 4413, "annotation": {"number": 64, "value": 0}, "group": "control_change"}, {"time": 4417, "annotation": {"number": 64, "value": 127}, "group": "control_change"}, {"time": 4461, "annotation": {"number": 64, "value": 0}, "group": "control_change"}, {"time": 4464, "annotation": {"number": 64, "value": 127}, "group": "control_change"}, {"time": 4509, "annotation": {"number": 64, "value": 0}, "group": "control_change"}, {"time": 4512, "annotation": {"number": 64, "value": 127}, "group": "control_change"}, {"time": 4555, "annotation": {"number": 64, "value": 0}, "group": "control_change"}, {"time": 4559, "annotation": {"number": 64, "value": 127}, "group": "control_change"}, {"time": 4559, "annotation": {"number": 64, "value": 0}, "group": "control_change"}, {"time": 4560, "annotation": {"number": 64, "value": 127}, "group": "control_change"}, {"time": 4580, "annotation": {"number": 64, "value": 0}, "group": "control_change"}, {"time": 4583, "annotation": {"number": 64, "value": 127}, "group": "control_change"}, {"time": 4606, "annotation": {"number": 64, "value": 0}, "group": "control_change"}, {"time": 4610, "annotation": {"number": 64, "value": 127}, "group": "control_change"}, {"time": 4650, "annotation": {"number": 64, "value": 0}, "group": "control_change"}, {"time": 4657, "annotation": {"number": 64, "value": 127}, "group": "control_change"}, {"time": 4701, "annotation": {"number": 64, "value": 0}, "group": "control_change"}, {"time": 4706, "annotation": {"number": 64, "value": 127}, "group": "control_change"}, {"time": 4747, "annotation": {"number": 64, "value": 0}, "group": "control_change"}, {"time": 4752, "annotation": {"number": 64, "value": 127}, "group": "control_change"}, {"time": 4797, "annotation": {"number": 64, "value": 0}, "group": "control_change"}, {"time": 4801, "annotation": {"number": 64, "value": 127}, "group": "control_change"}, {"time": 4845, "annotation": {"number": 64, "value": 0}, "group": "control_change"}, {"time": 4848, "annotation": {"number": 64, "value": 127}, "group": "control_change"}, {"time": 4893, "annotation": {"number": 64, "value": 0}, "group": "control_change"}, {"time": 4896, "annotation": {"number": 64, "value": 127}, "group": "control_change"}, {"time": 4939, "annotation": {"number": 64, "value": 0}, "group": "control_change"}, {"time": 4944, "annotation": {"number": 64, "value": 127}, "group": "control_change"}, {"time": 4987, "annotation": {"number": 64, "value": 0}, "group": "control_change"}, {"time": 4992, "annotation": {"number": 64, "value": 127}, "group": "control_change"}, {"time": 5034, "annotation": {"number": 64, "value": 0}, "group": "control_change"}, {"time": 5041, "annotation": {"number": 64, "value": 127}, "group": "control_change"}, {"time": 5085, "annotation": {"number": 64, "value": 0}, "group": "control_change"}, {"time": 5090, "annotation": {"number": 64, "value": 127}, "group": "control_change"}, {"time": 5131, "annotation": {"number": 64, "value": 0}, "group": "control_change"}, {"time": 5136, "annotation": {"number": 64, "value": 127}, "group": "control_change"}, {"time": 5181, "annotation": {"number": 64, "value": 0}, "group": "control_change"}, {"time": 5185, "annotation": {"number": 64, "value": 127}, "group": "control_change"}, {"time": 5229, "annotation": {"number": 64, "value": 0}, "group": "control_change"}, {"time": 5232, "annotation": {"number": 64, "value": 127}, "group": "control_change"}, {"time": 5277, "annotation": {"number": 64, "value": 0}, "group": "control_change"}, {"time": 5280, "annotation": {"number": 64, "value": 127}, "group": "control_change"}, {"time": 5323, "annotation": {"number": 64, "value": 0}, "group": "control_change"}, {"time": 5327, "annotation": {"number": 64, "value": 127}, "group": "control_change"}, {"time": 5327, "annotation": {"number": 64, "value": 0}, "group": "control_change"}, {"time": 5328, "annotation": {"number": 64, "value": 127}, "group": "control_change"}, {"time": 5348, "annotation": {"number": 64, "value": 0}, "group": "control_change"}, {"time": 5351, "annotation": {"number": 64, "value": 127}, "group": "control_change"}, {"time": 5374, "annotation": {"number": 64, "value": 0}, "group": "control_change"}, {"time": 5378, "annotation": {"number": 64, "value": 127}, "group": "control_change"}, {"time": 5418, "annotation": {"number": 64, "value": 0}, "group": "control_change"}, {"time": 5426, "annotation": {"number": 64, "value": 127}, "group": "control_change"}, {"time": 5468, "annotation": {"number": 64, "value": 0}, "group": "control_change"}, {"time": 5473, "annotation": {"number": 64, "value": 127}, "group": "control_change"}, {"time": 5520, "annotation": {"number": 64, "value": 0}, "group": "control_change"}, {"time": 5526, "annotation": {"number": 64, "value": 127}, "group": "control_change"}, {"time": 5559, "annotation": {"number": 64, "value": 0}, "group": "control_change"}, {"time": 5564, "annotation": {"number": 64, "value": 127}, "group": "control_change"}, {"time": 5611, "annotation": {"number": 64, "value": 0}, "group": "control_change"}, {"time": 5622, "annotation": {"number": 64, "value": 127}, "group": "control_change"}]}]}