{"metadata": {"schema_version": "0.2", "title": "None", "source_filename": "310.mid", "source_format": "midi"}, "resolution": 12, "tempos": [{"time": 0, "qpm": 120.0}], "time_signatures": [{"time": 0, "numerator": 4, "denominator": 4}], "tracks": [{"program": 0, "is_drum": false, "name": "MELODY", "notes": [{"time": 345, "pitch": 82, "duration": 6, "velocity": 119}, {"time": 351, "pitch": 81, "duration": 6, "velocity": 116}, {"time": 357, "pitch": 82, "duration": 7, "velocity": 113}, {"time": 363, "pitch": 81, "duration": 6, "velocity": 113}, {"time": 369, "pitch": 79, "duration": 6, "velocity": 114}, {"time": 375, "pitch": 77, "duration": 6, "velocity": 113}, {"time": 381, "pitch": 79, "duration": 60, "velocity": 116}, {"time": 441, "pitch": 74, "duration": 6, "velocity": 113}, {"time": 447, "pitch": 77, "duration": 6, "velocity": 114}, {"time": 453, "pitch": 79, "duration": 8, "velocity": 110}, {"time": 459, "pitch": 77, "duration": 6, "velocity": 110}, {"time": 465, "pitch": 74, "duration": 6, "velocity": 108}, {"time": 471, "pitch": 72, "duration": 6, "velocity": 104}, {"time": 477, "pitch": 77, "duration": 8, "velocity": 114}, {"time": 483, "pitch": 74, "duration": 54, "velocity": 100}, {"time": 537, "pitch": 77, "duration": 6, "velocity": 110}, {"time": 543, "pitch": 74, "duration": 6, "velocity": 110}, {"time": 549, "pitch": 77, "duration": 6, "velocity": 102}, {"time": 555, "pitch": 74, "duration": 6, "velocity": 108}, {"time": 561, "pitch": 72, "duration": 6, "velocity": 107}, {"time": 567, "pitch": 70, "duration": 7, "velocity": 96}, {"time": 573, "pitch": 74, "duration": 6, "velocity": 104}, {"time": 579, "pitch": 72, "duration": 54, "velocity": 91}, {"time": 633, "pitch": 70, "duration": 6, "velocity": 107}, {"time": 639, "pitch": 74, "duration": 7, "velocity": 113}, {"time": 645, "pitch": 72, "duration": 6, "velocity": 108}, {"time": 651, "pitch": 74, "duration": 6, "velocity": 100}, {"time": 657, "pitch": 70, "duration": 6, "velocity": 110}, {"time": 663, "pitch": 72, "duration": 6, "velocity": 93}, {"time": 669, "pitch": 74, "duration": 54, "velocity": 110}, {"time": 723, "pitch": 70, "duration": 6, "velocity": 108}, {"time": 729, "pitch": 82, "duration": 6, "velocity": 110}, {"time": 735, "pitch": 81, "duration": 6, "velocity": 110}, {"time": 741, "pitch": 82, "duration": 6, "velocity": 104}, {"time": 747, "pitch": 81, "duration": 6, "velocity": 96}, {"time": 753, "pitch": 79, "duration": 6, "velocity": 114}, {"time": 759, "pitch": 77, "duration": 7, "velocity": 107}, {"time": 765, "pitch": 79, "duration": 60, "velocity": 114}, {"time": 825, "pitch": 79, "duration": 7, "velocity": 110}, {"time": 831, "pitch": 77, "duration": 6, "velocity": 107}, {"time": 837, "pitch": 79, "duration": 7, "velocity": 100}, {"time": 843, "pitch": 77, "duration": 6, "velocity": 98}, {"time": 849, "pitch": 74, "duration": 6, "velocity": 113}, {"time": 855, "pitch": 72, "duration": 6, "velocity": 107}, {"time": 861, "pitch": 77, "duration": 6, "velocity": 116}, {"time": 867, "pitch": 74, "duration": 54, "velocity": 104}, {"time": 921, "pitch": 77, "duration": 6, "velocity": 113}, {"time": 927, "pitch": 74, "duration": 6, "velocity": 107}, {"time": 933, "pitch": 77, "duration": 6, "velocity": 104}, {"time": 939, "pitch": 74, "duration": 6, "velocity": 107}, {"time": 945, "pitch": 72, "duration": 6, "velocity": 107}, {"time": 951, "pitch": 70, "duration": 6, "velocity": 98}, {"time": 957, "pitch": 72, "duration": 60, "velocity": 108}, {"time": 1017, "pitch": 70, "duration": 6, "velocity": 102}, {"time": 1023, "pitch": 74, "duration": 8, "velocity": 107}, {"time": 1029, "pitch": 72, "duration": 7, "velocity": 110}, {"time": 1035, "pitch": 70, "duration": 6, "velocity": 104}, {"time": 1041, "pitch": 67, "duration": 7, "velocity": 107}, {"time": 1047, "pitch": 65, "duration": 6, "velocity": 98}, {"time": 1053, "pitch": 67, "duration": 60, "velocity": 102}, {"time": 1113, "pitch": 77, "duration": 6, "velocity": 90}, {"time": 1119, "pitch": 77, "duration": 6, "velocity": 104}, {"time": 1125, "pitch": 82, "duration": 6, "velocity": 104}, {"time": 1131, "pitch": 81, "duration": 6, "velocity": 94}, {"time": 1137, "pitch": 79, "duration": 6, "velocity": 102}, {"time": 1143, "pitch": 77, "duration": 6, "velocity": 110}, {"time": 1149, "pitch": 77, "duration": 12, "velocity": 110}, {"time": 1161, "pitch": 77, "duration": 6, "velocity": 116}, {"time": 1167, "pitch": 74, "duration": 6, "velocity": 104}, {"time": 1173, "pitch": 79, "duration": 12, "velocity": 116}, {"time": 1185, "pitch": 79, "duration": 6, "velocity": 114}, {"time": 1191, "pitch": 77, "duration": 6, "velocity": 108}, {"time": 1197, "pitch": 79, "duration": 12, "velocity": 114}, {"time": 1209, "pitch": 79, "duration": 6, "velocity": 116}, {"time": 1215, "pitch": 77, "duration": 6, "velocity": 96}, {"time": 1221, "pitch": 82, "duration": 6, "velocity": 113}, {"time": 1227, "pitch": 82, "duration": 6, "velocity": 113}, {"time": 1233, "pitch": 81, "duration": 6, "velocity": 110}, {"time": 1239, "pitch": 79, "duration": 6, "velocity": 110}, {"time": 1245, "pitch": 77, "duration": 12, "velocity": 114}, {"time": 1257, "pitch": 77, "duration": 6, "velocity": 117}, {"time": 1263, "pitch": 74, "duration": 6, "velocity": 113}, {"time": 1269, "pitch": 79, "duration": 12, "velocity": 120}, {"time": 1281, "pitch": 79, "duration": 6, "velocity": 116}, {"time": 1287, "pitch": 77, "duration": 6, "velocity": 102}, {"time": 1293, "pitch": 79, "duration": 12, "velocity": 117}, {"time": 1305, "pitch": 79, "duration": 6, "velocity": 114}, {"time": 1311, "pitch": 77, "duration": 6, "velocity": 110}, {"time": 1317, "pitch": 82, "duration": 6, "velocity": 116}, {"time": 1323, "pitch": 82, "duration": 6, "velocity": 113}, {"time": 1329, "pitch": 81, "duration": 6, "velocity": 114}, {"time": 1335, "pitch": 79, "duration": 6, "velocity": 98}, {"time": 1341, "pitch": 77, "duration": 12, "velocity": 114}, {"time": 1353, "pitch": 82, "duration": 12, "velocity": 107}, {"time": 1365, "pitch": 74, "duration": 6, "velocity": 117}, {"time": 1371, "pitch": 75, "duration": 6, "velocity": 114}, {"time": 1377, "pitch": 77, "duration": 12, "velocity": 117}, {"time": 1389, "pitch": 75, "duration": 12, "velocity": 113}, {"time": 1401, "pitch": 77, "duration": 6, "velocity": 113}, {"time": 1407, "pitch": 79, "duration": 6, "velocity": 114}, {"time": 1413, "pitch": 69, "duration": 6, "velocity": 113}, {"time": 1419, "pitch": 70, "duration": 6, "velocity": 108}, {"time": 1425, "pitch": 72, "duration": 6, "velocity": 110}, {"time": 1431, "pitch": 74, "duration": 6, "velocity": 110}, {"time": 1437, "pitch": 72, "duration": 6, "velocity": 113}, {"time": 1443, "pitch": 70, "duration": 54, "velocity": 102}, {"time": 1497, "pitch": 77, "duration": 6, "velocity": 90}, {"time": 1503, "pitch": 77, "duration": 6, "velocity": 104}, {"time": 1509, "pitch": 82, "duration": 6, "velocity": 104}, {"time": 1515, "pitch": 81, "duration": 6, "velocity": 94}, {"time": 1521, "pitch": 79, "duration": 6, "velocity": 102}, {"time": 1527, "pitch": 77, "duration": 6, "velocity": 110}, {"time": 1533, "pitch": 77, "duration": 12, "velocity": 110}, {"time": 1545, "pitch": 77, "duration": 6, "velocity": 116}, {"time": 1551, "pitch": 74, "duration": 6, "velocity": 104}, {"time": 1557, "pitch": 79, "duration": 12, "velocity": 116}, {"time": 1569, "pitch": 79, "duration": 6, "velocity": 114}, {"time": 1575, "pitch": 77, "duration": 6, "velocity": 108}, {"time": 1581, "pitch": 79, "duration": 12, "velocity": 114}, {"time": 1593, "pitch": 79, "duration": 6, "velocity": 116}, {"time": 1599, "pitch": 77, "duration": 6, "velocity": 96}, {"time": 1605, "pitch": 82, "duration": 6, "velocity": 113}, {"time": 1611, "pitch": 82, "duration": 6, "velocity": 113}, {"time": 1617, "pitch": 81, "duration": 6, "velocity": 110}, {"time": 1623, "pitch": 79, "duration": 6, "velocity": 110}, {"time": 1629, "pitch": 77, "duration": 12, "velocity": 114}, {"time": 1641, "pitch": 77, "duration": 6, "velocity": 117}, {"time": 1647, "pitch": 74, "duration": 6, "velocity": 113}, {"time": 1653, "pitch": 79, "duration": 12, "velocity": 120}, {"time": 1665, "pitch": 79, "duration": 6, "velocity": 116}, {"time": 1671, "pitch": 77, "duration": 6, "velocity": 102}, {"time": 1677, "pitch": 79, "duration": 12, "velocity": 117}, {"time": 1689, "pitch": 79, "duration": 6, "velocity": 114}, {"time": 1695, "pitch": 77, "duration": 6, "velocity": 110}, {"time": 1701, "pitch": 82, "duration": 6, "velocity": 116}, {"time": 1707, "pitch": 82, "duration": 6, "velocity": 113}, {"time": 1713, "pitch": 81, "duration": 6, "velocity": 114}, {"time": 1719, "pitch": 79, "duration": 6, "velocity": 98}, {"time": 1725, "pitch": 77, "duration": 12, "velocity": 114}, {"time": 1737, "pitch": 82, "duration": 12, "velocity": 107}, {"time": 1749, "pitch": 74, "duration": 6, "velocity": 117}, {"time": 1755, "pitch": 75, "duration": 6, "velocity": 114}, {"time": 1761, "pitch": 77, "duration": 12, "velocity": 117}, {"time": 1773, "pitch": 75, "duration": 12, "velocity": 113}, {"time": 1785, "pitch": 77, "duration": 6, "velocity": 113}, {"time": 1791, "pitch": 79, "duration": 6, "velocity": 114}, {"time": 1797, "pitch": 69, "duration": 6, "velocity": 113}, {"time": 1803, "pitch": 70, "duration": 6, "velocity": 108}, {"time": 1809, "pitch": 72, "duration": 6, "velocity": 110}, {"time": 1815, "pitch": 74, "duration": 6, "velocity": 110}, {"time": 1821, "pitch": 72, "duration": 6, "velocity": 113}, {"time": 1827, "pitch": 70, "duration": 18, "velocity": 102}, {"time": 2073, "pitch": 82, "duration": 8, "velocity": 119}, {"time": 2079, "pitch": 81, "duration": 6, "velocity": 116}, {"time": 2085, "pitch": 82, "duration": 7, "velocity": 113}, {"time": 2091, "pitch": 81, "duration": 6, "velocity": 113}, {"time": 2097, "pitch": 79, "duration": 6, "velocity": 114}, {"time": 2103, "pitch": 77, "duration": 6, "velocity": 113}, {"time": 2109, "pitch": 79, "duration": 60, "velocity": 116}, {"time": 2169, "pitch": 74, "duration": 6, "velocity": 113}, {"time": 2175, "pitch": 77, "duration": 6, "velocity": 114}, {"time": 2181, "pitch": 79, "duration": 8, "velocity": 110}, {"time": 2187, "pitch": 77, "duration": 6, "velocity": 110}, {"time": 2193, "pitch": 74, "duration": 6, "velocity": 108}, {"time": 2199, "pitch": 72, "duration": 6, "velocity": 104}, {"time": 2205, "pitch": 77, "duration": 8, "velocity": 114}, {"time": 2211, "pitch": 74, "duration": 54, "velocity": 100}, {"time": 2265, "pitch": 77, "duration": 6, "velocity": 110}, {"time": 2271, "pitch": 74, "duration": 6, "velocity": 110}, {"time": 2277, "pitch": 77, "duration": 7, "velocity": 102}, {"time": 2283, "pitch": 74, "duration": 6, "velocity": 108}, {"time": 2289, "pitch": 72, "duration": 6, "velocity": 107}, {"time": 2295, "pitch": 70, "duration": 7, "velocity": 96}, {"time": 2301, "pitch": 74, "duration": 6, "velocity": 104}, {"time": 2307, "pitch": 72, "duration": 54, "velocity": 91}, {"time": 2361, "pitch": 70, "duration": 6, "velocity": 107}, {"time": 2367, "pitch": 74, "duration": 7, "velocity": 113}, {"time": 2373, "pitch": 72, "duration": 6, "velocity": 108}, {"time": 2379, "pitch": 74, "duration": 6, "velocity": 100}, {"time": 2385, "pitch": 70, "duration": 6, "velocity": 110}, {"time": 2391, "pitch": 72, "duration": 6, "velocity": 93}, {"time": 2397, "pitch": 74, "duration": 54, "velocity": 110}, {"time": 2451, "pitch": 70, "duration": 6, "velocity": 108}, {"time": 2457, "pitch": 82, "duration": 6, "velocity": 110}, {"time": 2463, "pitch": 81, "duration": 6, "velocity": 110}, {"time": 2469, "pitch": 82, "duration": 6, "velocity": 104}, {"time": 2475, "pitch": 81, "duration": 6, "velocity": 96}, {"time": 2481, "pitch": 79, "duration": 6, "velocity": 114}, {"time": 2487, "pitch": 77, "duration": 7, "velocity": 107}, {"time": 2493, "pitch": 79, "duration": 60, "velocity": 114}, {"time": 2553, "pitch": 79, "duration": 7, "velocity": 110}, {"time": 2559, "pitch": 77, "duration": 6, "velocity": 107}, {"time": 2565, "pitch": 79, "duration": 8, "velocity": 100}, {"time": 2571, "pitch": 77, "duration": 6, "velocity": 98}, {"time": 2577, "pitch": 74, "duration": 6, "velocity": 113}, {"time": 2583, "pitch": 72, "duration": 6, "velocity": 107}, {"time": 2589, "pitch": 77, "duration": 6, "velocity": 116}, {"time": 2595, "pitch": 74, "duration": 54, "velocity": 104}, {"time": 2649, "pitch": 77, "duration": 6, "velocity": 113}, {"time": 2655, "pitch": 74, "duration": 6, "velocity": 107}, {"time": 2661, "pitch": 77, "duration": 6, "velocity": 104}, {"time": 2667, "pitch": 74, "duration": 6, "velocity": 107}, {"time": 2673, "pitch": 72, "duration": 6, "velocity": 107}, {"time": 2679, "pitch": 70, "duration": 6, "velocity": 98}, {"time": 2685, "pitch": 72, "duration": 60, "velocity": 108}, {"time": 2745, "pitch": 70, "duration": 6, "velocity": 102}, {"time": 2751, "pitch": 74, "duration": 8, "velocity": 107}, {"time": 2757, "pitch": 72, "duration": 7, "velocity": 110}, {"time": 2763, "pitch": 70, "duration": 6, "velocity": 104}, {"time": 2769, "pitch": 67, "duration": 7, "velocity": 107}, {"time": 2775, "pitch": 65, "duration": 6, "velocity": 98}, {"time": 2781, "pitch": 67, "duration": 60, "velocity": 102}, {"time": 2841, "pitch": 77, "duration": 6, "velocity": 90}, {"time": 2847, "pitch": 77, "duration": 6, "velocity": 104}, {"time": 2853, "pitch": 82, "duration": 6, "velocity": 104}, {"time": 2859, "pitch": 81, "duration": 6, "velocity": 94}, {"time": 2865, "pitch": 79, "duration": 6, "velocity": 102}, {"time": 2871, "pitch": 77, "duration": 6, "velocity": 110}, {"time": 2877, "pitch": 77, "duration": 12, "velocity": 110}, {"time": 2889, "pitch": 77, "duration": 6, "velocity": 116}, {"time": 2895, "pitch": 74, "duration": 6, "velocity": 104}, {"time": 2901, "pitch": 79, "duration": 12, "velocity": 116}, {"time": 2913, "pitch": 79, "duration": 6, "velocity": 114}, {"time": 2919, "pitch": 77, "duration": 6, "velocity": 108}, {"time": 2925, "pitch": 79, "duration": 12, "velocity": 114}, {"time": 2937, "pitch": 79, "duration": 6, "velocity": 116}, {"time": 2943, "pitch": 77, "duration": 6, "velocity": 96}, {"time": 2949, "pitch": 82, "duration": 6, "velocity": 113}, {"time": 2955, "pitch": 82, "duration": 6, "velocity": 113}, {"time": 2961, "pitch": 81, "duration": 6, "velocity": 110}, {"time": 2967, "pitch": 79, "duration": 6, "velocity": 110}, {"time": 2973, "pitch": 77, "duration": 12, "velocity": 114}, {"time": 2985, "pitch": 77, "duration": 6, "velocity": 117}, {"time": 2991, "pitch": 74, "duration": 6, "velocity": 113}, {"time": 2997, "pitch": 79, "duration": 12, "velocity": 120}, {"time": 3009, "pitch": 79, "duration": 6, "velocity": 116}, {"time": 3015, "pitch": 77, "duration": 6, "velocity": 102}, {"time": 3021, "pitch": 79, "duration": 12, "velocity": 117}, {"time": 3033, "pitch": 79, "duration": 6, "velocity": 114}, {"time": 3039, "pitch": 77, "duration": 6, "velocity": 110}, {"time": 3045, "pitch": 82, "duration": 6, "velocity": 116}, {"time": 3051, "pitch": 82, "duration": 6, "velocity": 113}, {"time": 3057, "pitch": 81, "duration": 6, "velocity": 114}, {"time": 3063, "pitch": 79, "duration": 6, "velocity": 98}, {"time": 3069, "pitch": 77, "duration": 12, "velocity": 114}, {"time": 3081, "pitch": 82, "duration": 12, "velocity": 107}, {"time": 3093, "pitch": 74, "duration": 6, "velocity": 117}, {"time": 3099, "pitch": 75, "duration": 6, "velocity": 114}, {"time": 3105, "pitch": 77, "duration": 12, "velocity": 117}, {"time": 3117, "pitch": 75, "duration": 12, "velocity": 113}, {"time": 3129, "pitch": 77, "duration": 6, "velocity": 113}, {"time": 3135, "pitch": 79, "duration": 6, "velocity": 114}, {"time": 3141, "pitch": 69, "duration": 6, "velocity": 113}, {"time": 3147, "pitch": 70, "duration": 6, "velocity": 108}, {"time": 3153, "pitch": 72, "duration": 6, "velocity": 110}, {"time": 3159, "pitch": 74, "duration": 6, "velocity": 110}, {"time": 3165, "pitch": 72, "duration": 6, "velocity": 113}, {"time": 3171, "pitch": 70, "duration": 54, "velocity": 102}, {"time": 3225, "pitch": 77, "duration": 6, "velocity": 90}, {"time": 3231, "pitch": 77, "duration": 6, "velocity": 104}, {"time": 3237, "pitch": 82, "duration": 6, "velocity": 104}, {"time": 3243, "pitch": 81, "duration": 6, "velocity": 94}, {"time": 3249, "pitch": 79, "duration": 6, "velocity": 102}, {"time": 3255, "pitch": 77, "duration": 6, "velocity": 110}, {"time": 3261, "pitch": 77, "duration": 12, "velocity": 110}, {"time": 3273, "pitch": 77, "duration": 6, "velocity": 116}, {"time": 3279, "pitch": 74, "duration": 6, "velocity": 104}, {"time": 3285, "pitch": 79, "duration": 12, "velocity": 116}, {"time": 3297, "pitch": 79, "duration": 6, "velocity": 114}, {"time": 3303, "pitch": 77, "duration": 6, "velocity": 108}, {"time": 3309, "pitch": 79, "duration": 12, "velocity": 114}, {"time": 3321, "pitch": 79, "duration": 6, "velocity": 116}, {"time": 3327, "pitch": 77, "duration": 6, "velocity": 96}, {"time": 3333, "pitch": 82, "duration": 6, "velocity": 113}, {"time": 3339, "pitch": 82, "duration": 6, "velocity": 113}, {"time": 3345, "pitch": 81, "duration": 6, "velocity": 110}, {"time": 3351, "pitch": 79, "duration": 6, "velocity": 110}, {"time": 3357, "pitch": 77, "duration": 12, "velocity": 114}, {"time": 3369, "pitch": 77, "duration": 6, "velocity": 117}, {"time": 3375, "pitch": 74, "duration": 6, "velocity": 113}, {"time": 3381, "pitch": 79, "duration": 12, "velocity": 120}, {"time": 3393, "pitch": 79, "duration": 6, "velocity": 116}, {"time": 3399, "pitch": 77, "duration": 6, "velocity": 102}, {"time": 3405, "pitch": 79, "duration": 12, "velocity": 117}, {"time": 3417, "pitch": 79, "duration": 6, "velocity": 114}, {"time": 3423, "pitch": 77, "duration": 6, "velocity": 110}, {"time": 3429, "pitch": 82, "duration": 6, "velocity": 116}, {"time": 3435, "pitch": 82, "duration": 6, "velocity": 113}, {"time": 3441, "pitch": 81, "duration": 6, "velocity": 114}, {"time": 3447, "pitch": 79, "duration": 6, "velocity": 98}, {"time": 3453, "pitch": 77, "duration": 12, "velocity": 114}, {"time": 3465, "pitch": 82, "duration": 12, "velocity": 107}, {"time": 3477, "pitch": 74, "duration": 6, "velocity": 117}, {"time": 3483, "pitch": 75, "duration": 6, "velocity": 114}, {"time": 3489, "pitch": 77, "duration": 12, "velocity": 117}, {"time": 3501, "pitch": 75, "duration": 12, "velocity": 113}, {"time": 3513, "pitch": 77, "duration": 6, "velocity": 113}, {"time": 3519, "pitch": 79, "duration": 6, "velocity": 114}, {"time": 3525, "pitch": 69, "duration": 6, "velocity": 113}, {"time": 3531, "pitch": 70, "duration": 6, "velocity": 108}, {"time": 3537, "pitch": 72, "duration": 6, "velocity": 110}, {"time": 3543, "pitch": 74, "duration": 6, "velocity": 110}, {"time": 3549, "pitch": 72, "duration": 6, "velocity": 113}, {"time": 3555, "pitch": 70, "duration": 18, "velocity": 102}, {"time": 4338, "pitch": 82, "duration": 6, "velocity": 90}, {"time": 4344, "pitch": 82, "duration": 6, "velocity": 104}, {"time": 4350, "pitch": 82, "duration": 6, "velocity": 104}, {"time": 4356, "pitch": 81, "duration": 6, "velocity": 94}, {"time": 4362, "pitch": 79, "duration": 6, "velocity": 102}, {"time": 4368, "pitch": 77, "duration": 6, "velocity": 110}, {"time": 4374, "pitch": 77, "duration": 12, "velocity": 110}, {"time": 4386, "pitch": 77, "duration": 6, "velocity": 116}, {"time": 4392, "pitch": 74, "duration": 6, "velocity": 104}, {"time": 4398, "pitch": 79, "duration": 12, "velocity": 116}, {"time": 4410, "pitch": 79, "duration": 6, "velocity": 114}, {"time": 4416, "pitch": 77, "duration": 6, "velocity": 108}, {"time": 4422, "pitch": 79, "duration": 12, "velocity": 114}, {"time": 4434, "pitch": 79, "duration": 6, "velocity": 116}, {"time": 4440, "pitch": 77, "duration": 6, "velocity": 96}, {"time": 4446, "pitch": 82, "duration": 6, "velocity": 113}, {"time": 4452, "pitch": 82, "duration": 6, "velocity": 113}, {"time": 4458, "pitch": 81, "duration": 6, "velocity": 110}, {"time": 4464, "pitch": 79, "duration": 6, "velocity": 110}, {"time": 4470, "pitch": 77, "duration": 12, "velocity": 114}, {"time": 4482, "pitch": 77, "duration": 6, "velocity": 117}, {"time": 4488, "pitch": 74, "duration": 6, "velocity": 113}, {"time": 4494, "pitch": 79, "duration": 12, "velocity": 120}, {"time": 4506, "pitch": 79, "duration": 6, "velocity": 116}, {"time": 4512, "pitch": 77, "duration": 6, "velocity": 102}, {"time": 4518, "pitch": 79, "duration": 12, "velocity": 117}, {"time": 4530, "pitch": 79, "duration": 6, "velocity": 114}, {"time": 4536, "pitch": 77, "duration": 6, "velocity": 110}, {"time": 4542, "pitch": 82, "duration": 6, "velocity": 116}, {"time": 4548, "pitch": 82, "duration": 6, "velocity": 113}, {"time": 4554, "pitch": 81, "duration": 6, "velocity": 114}, {"time": 4560, "pitch": 79, "duration": 6, "velocity": 98}, {"time": 4566, "pitch": 77, "duration": 12, "velocity": 114}, {"time": 4578, "pitch": 82, "duration": 12, "velocity": 107}, {"time": 4590, "pitch": 74, "duration": 6, "velocity": 117}, {"time": 4596, "pitch": 75, "duration": 6, "velocity": 114}, {"time": 4602, "pitch": 77, "duration": 12, "velocity": 117}, {"time": 4614, "pitch": 75, "duration": 12, "velocity": 113}, {"time": 4626, "pitch": 77, "duration": 6, "velocity": 113}, {"time": 4632, "pitch": 79, "duration": 6, "velocity": 114}, {"time": 4638, "pitch": 69, "duration": 6, "velocity": 113}, {"time": 4644, "pitch": 70, "duration": 6, "velocity": 108}, {"time": 4650, "pitch": 72, "duration": 6, "velocity": 110}, {"time": 4656, "pitch": 74, "duration": 6, "velocity": 110}, {"time": 4662, "pitch": 72, "duration": 6, "velocity": 113}, {"time": 4668, "pitch": 70, "duration": 54, "velocity": 102}, {"time": 4722, "pitch": 82, "duration": 6, "velocity": 90}, {"time": 4728, "pitch": 82, "duration": 6, "velocity": 104}, {"time": 4734, "pitch": 82, "duration": 6, "velocity": 104}, {"time": 4740, "pitch": 81, "duration": 6, "velocity": 94}, {"time": 4746, "pitch": 79, "duration": 6, "velocity": 102}, {"time": 4752, "pitch": 77, "duration": 6, "velocity": 110}, {"time": 4758, "pitch": 77, "duration": 12, "velocity": 110}, {"time": 4770, "pitch": 77, "duration": 6, "velocity": 116}, {"time": 4776, "pitch": 74, "duration": 6, "velocity": 104}, {"time": 4782, "pitch": 79, "duration": 12, "velocity": 116}, {"time": 4794, "pitch": 79, "duration": 6, "velocity": 114}, {"time": 4800, "pitch": 77, "duration": 6, "velocity": 108}, {"time": 4806, "pitch": 79, "duration": 12, "velocity": 114}, {"time": 4818, "pitch": 79, "duration": 6, "velocity": 116}, {"time": 4824, "pitch": 77, "duration": 6, "velocity": 96}, {"time": 4830, "pitch": 82, "duration": 6, "velocity": 113}, {"time": 4836, "pitch": 82, "duration": 6, "velocity": 113}, {"time": 4842, "pitch": 81, "duration": 6, "velocity": 110}, {"time": 4848, "pitch": 79, "duration": 6, "velocity": 110}, {"time": 4854, "pitch": 77, "duration": 12, "velocity": 114}, {"time": 4866, "pitch": 77, "duration": 6, "velocity": 117}, {"time": 4872, "pitch": 74, "duration": 6, "velocity": 113}, {"time": 4878, "pitch": 79, "duration": 12, "velocity": 120}, {"time": 4890, "pitch": 79, "duration": 6, "velocity": 116}, {"time": 4896, "pitch": 77, "duration": 6, "velocity": 102}, {"time": 4902, "pitch": 79, "duration": 12, "velocity": 117}, {"time": 4914, "pitch": 79, "duration": 6, "velocity": 114}, {"time": 4920, "pitch": 77, "duration": 6, "velocity": 110}, {"time": 4926, "pitch": 82, "duration": 6, "velocity": 116}, {"time": 4932, "pitch": 82, "duration": 6, "velocity": 113}, {"time": 4938, "pitch": 81, "duration": 6, "velocity": 114}, {"time": 4944, "pitch": 79, "duration": 6, "velocity": 98}, {"time": 4950, "pitch": 77, "duration": 12, "velocity": 114}, {"time": 4962, "pitch": 82, "duration": 12, "velocity": 107}, {"time": 4974, "pitch": 74, "duration": 6, "velocity": 117}, {"time": 4980, "pitch": 75, "duration": 6, "velocity": 114}, {"time": 4986, "pitch": 77, "duration": 12, "velocity": 117}, {"time": 4998, "pitch": 75, "duration": 12, "velocity": 113}, {"time": 5010, "pitch": 77, "duration": 6, "velocity": 113}, {"time": 5016, "pitch": 79, "duration": 6, "velocity": 114}, {"time": 5022, "pitch": 69, "duration": 6, "velocity": 113}, {"time": 5028, "pitch": 70, "duration": 6, "velocity": 108}, {"time": 5034, "pitch": 72, "duration": 6, "velocity": 110}, {"time": 5040, "pitch": 74, "duration": 6, "velocity": 110}, {"time": 5046, "pitch": 72, "duration": 6, "velocity": 113}, {"time": 5052, "pitch": 70, "duration": 90, "velocity": 102}, {"time": 5142, "pitch": 77, "duration": 12, "velocity": 107}, {"time": 5154, "pitch": 82, "duration": 12, "velocity": 107}, {"time": 5166, "pitch": 74, "duration": 6, "velocity": 117}, {"time": 5172, "pitch": 75, "duration": 6, "velocity": 114}, {"time": 5178, "pitch": 77, "duration": 12, "velocity": 117}, {"time": 5190, "pitch": 75, "duration": 12, "velocity": 113}, {"time": 5202, "pitch": 77, "duration": 6, "velocity": 113}, {"time": 5208, "pitch": 79, "duration": 6, "velocity": 114}, {"time": 5214, "pitch": 69, "duration": 6, "velocity": 113}, {"time": 5220, "pitch": 70, "duration": 6, "velocity": 108}, {"time": 5226, "pitch": 72, "duration": 6, "velocity": 110}, {"time": 5232, "pitch": 74, "duration": 6, "velocity": 110}, {"time": 5238, "pitch": 72, "duration": 6, "velocity": 113}, {"time": 5244, "pitch": 70, "duration": 90, "velocity": 102}, {"time": 5334, "pitch": 77, "duration": 12, "velocity": 107}, {"time": 5346, "pitch": 82, "duration": 12, "velocity": 107}, {"time": 5358, "pitch": 74, "duration": 6, "velocity": 117}, {"time": 5364, "pitch": 75, "duration": 6, "velocity": 114}, {"time": 5370, "pitch": 77, "duration": 12, "velocity": 117}, {"time": 5382, "pitch": 75, "duration": 12, "velocity": 113}, {"time": 5394, "pitch": 77, "duration": 6, "velocity": 113}, {"time": 5400, "pitch": 79, "duration": 6, "velocity": 114}, {"time": 5406, "pitch": 69, "duration": 6, "velocity": 113}, {"time": 5412, "pitch": 70, "duration": 6, "velocity": 108}, {"time": 5418, "pitch": 72, "duration": 6, "velocity": 110}, {"time": 5424, "pitch": 74, "duration": 6, "velocity": 110}, {"time": 5430, "pitch": 72, "duration": 6, "velocity": 113}, {"time": 5436, "pitch": 70, "duration": 42, "velocity": 102}, {"time": 5478, "pitch": 75, "duration": 12, "velocity": 113}, {"time": 5490, "pitch": 77, "duration": 6, "velocity": 113}, {"time": 5496, "pitch": 79, "duration": 6, "velocity": 114}, {"time": 5502, "pitch": 69, "duration": 6, "velocity": 113}, {"time": 5508, "pitch": 70, "duration": 6, "velocity": 108}, {"time": 5514, "pitch": 72, "duration": 6, "velocity": 110}, {"time": 5520, "pitch": 74, "duration": 54, "velocity": 110}, {"time": 5574, "pitch": 72, "duration": 9, "velocity": 110}, {"time": 5583, "pitch": 70, "duration": 161, "velocity": 110}]}, {"program": 0, "is_drum": false, "name": "PIANO", "notes": [{"time": 381, "pitch": 43, "duration": 14, "velocity": 98}, {"time": 393, "pitch": 62, "duration": 2, "velocity": 90}, {"time": 393, "pitch": 67, "duration": 2, "velocity": 100}, {"time": 393, "pitch": 70, "duration": 2, "velocity": 90}, {"time": 399, "pitch": 43, "duration": 3, "velocity": 93}, {"time": 399, "pitch": 62, "duration": 3, "velocity": 100}, {"time": 399, "pitch": 67, "duration": 3, "velocity": 113}, {"time": 399, "pitch": 70, "duration": 3, "velocity": 93}, {"time": 405, "pitch": 41, "duration": 11, "velocity": 96}, {"time": 417, "pitch": 42, "duration": 9, "velocity": 100}, {"time": 417, "pitch": 62, "duration": 4, "velocity": 104}, {"time": 417, "pitch": 67, "duration": 3, "velocity": 110}, {"time": 417, "pitch": 70, "duration": 4, "velocity": 98}, {"time": 429, "pitch": 43, "duration": 16, "velocity": 93}, {"time": 441, "pitch": 62, "duration": 2, "velocity": 107}, {"time": 441, "pitch": 67, "duration": 2, "velocity": 113}, {"time": 441, "pitch": 70, "duration": 2, "velocity": 98}, {"time": 447, "pitch": 62, "duration": 4, "velocity": 107}, {"time": 447, "pitch": 67, "duration": 4, "velocity": 116}, {"time": 447, "pitch": 70, "duration": 4, "velocity": 100}, {"time": 453, "pitch": 48, "duration": 12, "velocity": 102}, {"time": 465, "pitch": 49, "duration": 12, "velocity": 106}, {"time": 465, "pitch": 62, "duration": 4, "velocity": 110}, {"time": 465, "pitch": 67, "duration": 4, "velocity": 116}, {"time": 465, "pitch": 70, "duration": 4, "velocity": 102}, {"time": 477, "pitch": 50, "duration": 16, "velocity": 104}, {"time": 489, "pitch": 62, "duration": 2, "velocity": 89}, {"time": 489, "pitch": 65, "duration": 2, "velocity": 93}, {"time": 489, "pitch": 69, "duration": 2, "velocity": 88}, {"time": 495, "pitch": 50, "duration": 6, "velocity": 104}, {"time": 495, "pitch": 62, "duration": 4, "velocity": 94}, {"time": 495, "pitch": 65, "duration": 4, "velocity": 104}, {"time": 495, "pitch": 69, "duration": 5, "velocity": 102}, {"time": 501, "pitch": 48, "duration": 8, "velocity": 92}, {"time": 513, "pitch": 49, "duration": 9, "velocity": 100}, {"time": 513, "pitch": 62, "duration": 5, "velocity": 100}, {"time": 513, "pitch": 65, "duration": 5, "velocity": 108}, {"time": 513, "pitch": 69, "duration": 5, "velocity": 104}, {"time": 525, "pitch": 50, "duration": 13, "velocity": 100}, {"time": 537, "pitch": 62, "duration": 2, "velocity": 92}, {"time": 537, "pitch": 65, "duration": 2, "velocity": 100}, {"time": 537, "pitch": 69, "duration": 2, "velocity": 94}, {"time": 543, "pitch": 62, "duration": 4, "velocity": 90}, {"time": 543, "pitch": 65, "duration": 4, "velocity": 100}, {"time": 543, "pitch": 69, "duration": 4, "velocity": 98}, {"time": 549, "pitch": 50, "duration": 12, "velocity": 86}, {"time": 561, "pitch": 46, "duration": 7, "velocity": 86}, {"time": 561, "pitch": 62, "duration": 4, "velocity": 96}, {"time": 561, "pitch": 65, "duration": 4, "velocity": 108}, {"time": 561, "pitch": 69, "duration": 4, "velocity": 94}, {"time": 567, "pitch": 47, "duration": 6, "velocity": 84}, {"time": 573, "pitch": 48, "duration": 11, "velocity": 90}, {"time": 585, "pitch": 60, "duration": 2, "velocity": 92}, {"time": 585, "pitch": 63, "duration": 2, "velocity": 98}, {"time": 585, "pitch": 67, "duration": 2, "velocity": 92}, {"time": 591, "pitch": 60, "duration": 4, "velocity": 96}, {"time": 591, "pitch": 63, "duration": 4, "velocity": 104}, {"time": 591, "pitch": 67, "duration": 4, "velocity": 102}, {"time": 597, "pitch": 51, "duration": 12, "velocity": 93}, {"time": 609, "pitch": 52, "duration": 13, "velocity": 93}, {"time": 609, "pitch": 60, "duration": 4, "velocity": 102}, {"time": 609, "pitch": 63, "duration": 5, "velocity": 108}, {"time": 609, "pitch": 67, "duration": 5, "velocity": 98}, {"time": 621, "pitch": 53, "duration": 15, "velocity": 92}, {"time": 633, "pitch": 60, "duration": 2, "velocity": 91}, {"time": 633, "pitch": 65, "duration": 2, "velocity": 96}, {"time": 633, "pitch": 69, "duration": 2, "velocity": 90}, {"time": 639, "pitch": 60, "duration": 2, "velocity": 96}, {"time": 639, "pitch": 65, "duration": 2, "velocity": 102}, {"time": 639, "pitch": 69, "duration": 3, "velocity": 93}, {"time": 645, "pitch": 53, "duration": 12, "velocity": 87}, {"time": 657, "pitch": 60, "duration": 3, "velocity": 104}, {"time": 657, "pitch": 65, "duration": 4, "velocity": 113}, {"time": 657, "pitch": 69, "duration": 4, "velocity": 96}, {"time": 669, "pitch": 55, "duration": 13, "velocity": 88}, {"time": 681, "pitch": 62, "duration": 2, "velocity": 91}, {"time": 681, "pitch": 67, "duration": 2, "velocity": 98}, {"time": 681, "pitch": 70, "duration": 2, "velocity": 90}, {"time": 687, "pitch": 55, "duration": 6, "velocity": 94}, {"time": 687, "pitch": 62, "duration": 2, "velocity": 98}, {"time": 687, "pitch": 67, "duration": 3, "velocity": 108}, {"time": 687, "pitch": 70, "duration": 3, "velocity": 91}, {"time": 693, "pitch": 53, "duration": 13, "velocity": 96}, {"time": 705, "pitch": 54, "duration": 12, "velocity": 95}, {"time": 705, "pitch": 62, "duration": 5, "velocity": 108}, {"time": 705, "pitch": 67, "duration": 5, "velocity": 113}, {"time": 705, "pitch": 70, "duration": 5, "velocity": 98}, {"time": 717, "pitch": 55, "duration": 8, "velocity": 98}, {"time": 765, "pitch": 43, "duration": 14, "velocity": 98}, {"time": 777, "pitch": 62, "duration": 2, "velocity": 90}, {"time": 777, "pitch": 67, "duration": 2, "velocity": 100}, {"time": 777, "pitch": 70, "duration": 2, "velocity": 90}, {"time": 783, "pitch": 43, "duration": 3, "velocity": 93}, {"time": 783, "pitch": 62, "duration": 3, "velocity": 100}, {"time": 783, "pitch": 67, "duration": 3, "velocity": 113}, {"time": 783, "pitch": 70, "duration": 3, "velocity": 93}, {"time": 789, "pitch": 41, "duration": 11, "velocity": 96}, {"time": 801, "pitch": 42, "duration": 9, "velocity": 100}, {"time": 801, "pitch": 62, "duration": 4, "velocity": 104}, {"time": 801, "pitch": 67, "duration": 3, "velocity": 110}, {"time": 801, "pitch": 70, "duration": 4, "velocity": 98}, {"time": 813, "pitch": 43, "duration": 16, "velocity": 93}, {"time": 825, "pitch": 62, "duration": 2, "velocity": 107}, {"time": 825, "pitch": 67, "duration": 2, "velocity": 113}, {"time": 825, "pitch": 70, "duration": 2, "velocity": 98}, {"time": 831, "pitch": 62, "duration": 4, "velocity": 107}, {"time": 831, "pitch": 67, "duration": 4, "velocity": 116}, {"time": 831, "pitch": 70, "duration": 4, "velocity": 100}, {"time": 837, "pitch": 48, "duration": 12, "velocity": 102}, {"time": 849, "pitch": 49, "duration": 12, "velocity": 106}, {"time": 849, "pitch": 62, "duration": 4, "velocity": 110}, {"time": 849, "pitch": 67, "duration": 4, "velocity": 116}, {"time": 849, "pitch": 70, "duration": 4, "velocity": 102}, {"time": 861, "pitch": 50, "duration": 16, "velocity": 104}, {"time": 873, "pitch": 62, "duration": 2, "velocity": 89}, {"time": 873, "pitch": 65, "duration": 2, "velocity": 93}, {"time": 873, "pitch": 69, "duration": 2, "velocity": 88}, {"time": 879, "pitch": 50, "duration": 6, "velocity": 104}, {"time": 879, "pitch": 62, "duration": 4, "velocity": 94}, {"time": 879, "pitch": 65, "duration": 4, "velocity": 104}, {"time": 879, "pitch": 69, "duration": 5, "velocity": 102}, {"time": 885, "pitch": 48, "duration": 8, "velocity": 92}, {"time": 897, "pitch": 49, "duration": 9, "velocity": 100}, {"time": 897, "pitch": 62, "duration": 5, "velocity": 100}, {"time": 897, "pitch": 65, "duration": 5, "velocity": 108}, {"time": 897, "pitch": 69, "duration": 5, "velocity": 104}, {"time": 909, "pitch": 50, "duration": 13, "velocity": 100}, {"time": 921, "pitch": 62, "duration": 2, "velocity": 92}, {"time": 921, "pitch": 65, "duration": 2, "velocity": 100}, {"time": 921, "pitch": 69, "duration": 2, "velocity": 94}, {"time": 927, "pitch": 62, "duration": 4, "velocity": 90}, {"time": 927, "pitch": 65, "duration": 4, "velocity": 100}, {"time": 927, "pitch": 69, "duration": 4, "velocity": 98}, {"time": 933, "pitch": 50, "duration": 12, "velocity": 86}, {"time": 945, "pitch": 46, "duration": 7, "velocity": 86}, {"time": 945, "pitch": 62, "duration": 4, "velocity": 96}, {"time": 945, "pitch": 65, "duration": 4, "velocity": 108}, {"time": 945, "pitch": 69, "duration": 4, "velocity": 94}, {"time": 951, "pitch": 47, "duration": 6, "velocity": 84}, {"time": 957, "pitch": 48, "duration": 11, "velocity": 90}, {"time": 969, "pitch": 60, "duration": 2, "velocity": 92}, {"time": 969, "pitch": 63, "duration": 2, "velocity": 98}, {"time": 969, "pitch": 67, "duration": 2, "velocity": 92}, {"time": 975, "pitch": 60, "duration": 4, "velocity": 96}, {"time": 975, "pitch": 63, "duration": 4, "velocity": 104}, {"time": 975, "pitch": 67, "duration": 4, "velocity": 102}, {"time": 981, "pitch": 51, "duration": 12, "velocity": 93}, {"time": 993, "pitch": 52, "duration": 13, "velocity": 93}, {"time": 993, "pitch": 60, "duration": 4, "velocity": 102}, {"time": 993, "pitch": 63, "duration": 5, "velocity": 108}, {"time": 993, "pitch": 67, "duration": 5, "velocity": 98}, {"time": 1005, "pitch": 53, "duration": 15, "velocity": 92}, {"time": 1017, "pitch": 60, "duration": 2, "velocity": 91}, {"time": 1017, "pitch": 65, "duration": 2, "velocity": 96}, {"time": 1017, "pitch": 69, "duration": 2, "velocity": 90}, {"time": 1023, "pitch": 60, "duration": 2, "velocity": 96}, {"time": 1023, "pitch": 65, "duration": 2, "velocity": 102}, {"time": 1023, "pitch": 69, "duration": 3, "velocity": 93}, {"time": 1029, "pitch": 53, "duration": 12, "velocity": 87}, {"time": 1041, "pitch": 60, "duration": 3, "velocity": 104}, {"time": 1041, "pitch": 65, "duration": 4, "velocity": 113}, {"time": 1041, "pitch": 69, "duration": 4, "velocity": 96}, {"time": 1053, "pitch": 55, "duration": 13, "velocity": 88}, {"time": 1065, "pitch": 62, "duration": 2, "velocity": 91}, {"time": 1065, "pitch": 67, "duration": 2, "velocity": 98}, {"time": 1065, "pitch": 70, "duration": 2, "velocity": 90}, {"time": 1071, "pitch": 55, "duration": 6, "velocity": 94}, {"time": 1071, "pitch": 62, "duration": 2, "velocity": 98}, {"time": 1071, "pitch": 67, "duration": 3, "velocity": 108}, {"time": 1071, "pitch": 70, "duration": 3, "velocity": 91}, {"time": 1077, "pitch": 53, "duration": 13, "velocity": 96}, {"time": 1089, "pitch": 54, "duration": 12, "velocity": 95}, {"time": 1089, "pitch": 62, "duration": 5, "velocity": 108}, {"time": 1089, "pitch": 67, "duration": 5, "velocity": 113}, {"time": 1089, "pitch": 70, "duration": 5, "velocity": 98}, {"time": 1101, "pitch": 55, "duration": 8, "velocity": 98}, {"time": 1149, "pitch": 46, "duration": 12, "velocity": 102}, {"time": 1161, "pitch": 62, "duration": 12, "velocity": 104}, {"time": 1161, "pitch": 65, "duration": 13, "velocity": 108}, {"time": 1161, "pitch": 70, "duration": 12, "velocity": 93}, {"time": 1167, "pitch": 46, "duration": 4, "velocity": 104}, {"time": 1173, "pitch": 55, "duration": 12, "velocity": 114}, {"time": 1185, "pitch": 62, "duration": 13, "velocity": 107}, {"time": 1185, "pitch": 67, "duration": 13, "velocity": 114}, {"time": 1185, "pitch": 70, "duration": 13, "velocity": 100}, {"time": 1191, "pitch": 55, "duration": 4, "velocity": 113}, {"time": 1197, "pitch": 51, "duration": 12, "velocity": 117}, {"time": 1209, "pitch": 63, "duration": 13, "velocity": 104}, {"time": 1209, "pitch": 67, "duration": 14, "velocity": 108}, {"time": 1209, "pitch": 70, "duration": 13, "velocity": 96}, {"time": 1215, "pitch": 51, "duration": 3, "velocity": 116}, {"time": 1221, "pitch": 53, "duration": 12, "velocity": 114}, {"time": 1233, "pitch": 60, "duration": 10, "velocity": 108}, {"time": 1233, "pitch": 65, "duration": 12, "velocity": 114}, {"time": 1233, "pitch": 69, "duration": 11, "velocity": 107}, {"time": 1239, "pitch": 53, "duration": 4, "velocity": 114}, {"time": 1245, "pitch": 46, "duration": 12, "velocity": 104}, {"time": 1257, "pitch": 62, "duration": 13, "velocity": 107}, {"time": 1257, "pitch": 65, "duration": 13, "velocity": 108}, {"time": 1257, "pitch": 70, "duration": 13, "velocity": 94}, {"time": 1260, "pitch": 46, "duration": 4, "velocity": 100}, {"time": 1269, "pitch": 55, "duration": 12, "velocity": 116}, {"time": 1281, "pitch": 62, "duration": 14, "velocity": 113}, {"time": 1281, "pitch": 67, "duration": 14, "velocity": 114}, {"time": 1281, "pitch": 70, "duration": 14, "velocity": 98}, {"time": 1287, "pitch": 55, "duration": 5, "velocity": 116}, {"time": 1293, "pitch": 51, "duration": 12, "velocity": 117}, {"time": 1305, "pitch": 63, "duration": 13, "velocity": 107}, {"time": 1305, "pitch": 67, "duration": 13, "velocity": 113}, {"time": 1305, "pitch": 70, "duration": 12, "velocity": 98}, {"time": 1311, "pitch": 51, "duration": 6, "velocity": 116}, {"time": 1317, "pitch": 53, "duration": 13, "velocity": 117}, {"time": 1329, "pitch": 60, "duration": 11, "velocity": 108}, {"time": 1329, "pitch": 65, "duration": 12, "velocity": 114}, {"time": 1329, "pitch": 69, "duration": 12, "velocity": 102}, {"time": 1335, "pitch": 53, "duration": 3, "velocity": 113}, {"time": 1341, "pitch": 50, "duration": 12, "velocity": 107}, {"time": 1353, "pitch": 62, "duration": 8, "velocity": 88}, {"time": 1353, "pitch": 65, "duration": 8, "velocity": 92}, {"time": 1353, "pitch": 69, "duration": 7, "velocity": 90}, {"time": 1359, "pitch": 50, "duration": 7, "velocity": 98}, {"time": 1365, "pitch": 55, "duration": 13, "velocity": 108}, {"time": 1377, "pitch": 58, "duration": 9, "velocity": 92}, {"time": 1377, "pitch": 62, "duration": 14, "velocity": 102}, {"time": 1377, "pitch": 67, "duration": 11, "velocity": 92}, {"time": 1383, "pitch": 55, "duration": 6, "velocity": 110}, {"time": 1389, "pitch": 48, "duration": 12, "velocity": 102}, {"time": 1401, "pitch": 60, "duration": 14, "velocity": 91}, {"time": 1401, "pitch": 63, "duration": 14, "velocity": 107}, {"time": 1401, "pitch": 67, "duration": 13, "velocity": 93}, {"time": 1407, "pitch": 48, "duration": 6, "velocity": 96}, {"time": 1413, "pitch": 53, "duration": 14, "velocity": 98}, {"time": 1425, "pitch": 60, "duration": 12, "velocity": 94}, {"time": 1425, "pitch": 65, "duration": 12, "velocity": 110}, {"time": 1425, "pitch": 69, "duration": 12, "velocity": 98}, {"time": 1431, "pitch": 53, "duration": 7, "velocity": 110}, {"time": 1449, "pitch": 62, "duration": 14, "velocity": 107}, {"time": 1449, "pitch": 65, "duration": 14, "velocity": 113}, {"time": 1449, "pitch": 70, "duration": 14, "velocity": 98}, {"time": 1455, "pitch": 46, "duration": 3, "velocity": 108}, {"time": 1461, "pitch": 53, "duration": 12, "velocity": 116}, {"time": 1473, "pitch": 62, "duration": 14, "velocity": 107}, {"time": 1473, "pitch": 65, "duration": 14, "velocity": 114}, {"time": 1473, "pitch": 70, "duration": 14, "velocity": 96}, {"time": 1479, "pitch": 53, "duration": 5, "velocity": 113}, {"time": 1485, "pitch": 41, "duration": 7, "velocity": 107}, {"time": 1485, "pitch": 53, "duration": 7, "velocity": 104}, {"time": 1485, "pitch": 57, "duration": 6, "velocity": 107}, {"time": 1485, "pitch": 60, "duration": 6, "velocity": 114}, {"time": 1485, "pitch": 65, "duration": 2, "velocity": 110}, {"time": 1497, "pitch": 41, "duration": 8, "velocity": 107}, {"time": 1497, "pitch": 53, "duration": 8, "velocity": 110}, {"time": 1497, "pitch": 57, "duration": 7, "velocity": 104}, {"time": 1497, "pitch": 60, "duration": 9, "velocity": 114}, {"time": 1497, "pitch": 65, "duration": 8, "velocity": 108}, {"time": 1533, "pitch": 46, "duration": 11, "velocity": 90}, {"time": 1533, "pitch": 58, "duration": 11, "velocity": 94}, {"time": 1545, "pitch": 62, "duration": 13, "velocity": 107}, {"time": 1545, "pitch": 65, "duration": 13, "velocity": 108}, {"time": 1545, "pitch": 70, "duration": 13, "velocity": 96}, {"time": 1551, "pitch": 46, "duration": 3, "velocity": 107}, {"time": 1557, "pitch": 55, "duration": 13, "velocity": 100}, {"time": 1569, "pitch": 62, "duration": 13, "velocity": 107}, {"time": 1569, "pitch": 67, "duration": 13, "velocity": 110}, {"time": 1569, "pitch": 70, "duration": 14, "velocity": 100}, {"time": 1575, "pitch": 55, "duration": 6, "velocity": 110}, {"time": 1581, "pitch": 51, "duration": 12, "velocity": 113}, {"time": 1593, "pitch": 63, "duration": 12, "velocity": 96}, {"time": 1593, "pitch": 67, "duration": 13, "velocity": 114}, {"time": 1593, "pitch": 70, "duration": 13, "velocity": 100}, {"time": 1599, "pitch": 51, "duration": 6, "velocity": 114}, {"time": 1605, "pitch": 53, "duration": 12, "velocity": 117}, {"time": 1617, "pitch": 60, "duration": 10, "velocity": 107}, {"time": 1617, "pitch": 65, "duration": 12, "velocity": 110}, {"time": 1617, "pitch": 69, "duration": 12, "velocity": 92}, {"time": 1623, "pitch": 53, "duration": 5, "velocity": 110}, {"time": 1629, "pitch": 46, "duration": 12, "velocity": 100}, {"time": 1641, "pitch": 62, "duration": 15, "velocity": 102}, {"time": 1641, "pitch": 65, "duration": 19, "velocity": 104}, {"time": 1641, "pitch": 70, "duration": 15, "velocity": 98}, {"time": 1644, "pitch": 46, "duration": 5, "velocity": 104}, {"time": 1653, "pitch": 55, "duration": 13, "velocity": 117}, {"time": 1665, "pitch": 62, "duration": 13, "velocity": 110}, {"time": 1665, "pitch": 67, "duration": 13, "velocity": 114}, {"time": 1665, "pitch": 70, "duration": 13, "velocity": 104}, {"time": 1671, "pitch": 55, "duration": 6, "velocity": 114}, {"time": 1677, "pitch": 51, "duration": 12, "velocity": 114}, {"time": 1689, "pitch": 63, "duration": 14, "velocity": 108}, {"time": 1689, "pitch": 67, "duration": 14, "velocity": 116}, {"time": 1689, "pitch": 70, "duration": 13, "velocity": 100}, {"time": 1695, "pitch": 51, "duration": 6, "velocity": 113}, {"time": 1701, "pitch": 53, "duration": 12, "velocity": 117}, {"time": 1713, "pitch": 60, "duration": 6, "velocity": 108}, {"time": 1713, "pitch": 65, "duration": 8, "velocity": 113}, {"time": 1713, "pitch": 69, "duration": 7, "velocity": 96}, {"time": 1719, "pitch": 53, "duration": 3, "velocity": 114}, {"time": 1725, "pitch": 50, "duration": 12, "velocity": 107}, {"time": 1737, "pitch": 62, "duration": 15, "velocity": 93}, {"time": 1737, "pitch": 65, "duration": 15, "velocity": 107}, {"time": 1737, "pitch": 69, "duration": 14, "velocity": 91}, {"time": 1743, "pitch": 50, "duration": 6, "velocity": 102}, {"time": 1749, "pitch": 55, "duration": 14, "velocity": 110}, {"time": 1761, "pitch": 58, "duration": 12, "velocity": 91}, {"time": 1761, "pitch": 62, "duration": 14, "velocity": 96}, {"time": 1761, "pitch": 67, "duration": 13, "velocity": 92}, {"time": 1767, "pitch": 55, "duration": 6, "velocity": 104}, {"time": 1773, "pitch": 48, "duration": 12, "velocity": 100}, {"time": 1785, "pitch": 60, "duration": 14, "velocity": 96}, {"time": 1785, "pitch": 63, "duration": 14, "velocity": 108}, {"time": 1785, "pitch": 67, "duration": 13, "velocity": 100}, {"time": 1791, "pitch": 48, "duration": 6, "velocity": 93}, {"time": 1797, "pitch": 53, "duration": 13, "velocity": 107}, {"time": 1809, "pitch": 60, "duration": 12, "velocity": 102}, {"time": 1809, "pitch": 65, "duration": 13, "velocity": 110}, {"time": 1809, "pitch": 69, "duration": 13, "velocity": 104}, {"time": 1815, "pitch": 53, "duration": 6, "velocity": 108}, {"time": 1821, "pitch": 46, "duration": 13, "velocity": 100}, {"time": 1833, "pitch": 62, "duration": 19, "velocity": 98}, {"time": 1833, "pitch": 65, "duration": 19, "velocity": 104}, {"time": 1833, "pitch": 70, "duration": 18, "velocity": 92}, {"time": 1839, "pitch": 46, "duration": 5, "velocity": 98}, {"time": 1845, "pitch": 53, "duration": 12, "velocity": 110}, {"time": 1845, "pitch": 75, "duration": 12, "velocity": 110}, {"time": 1857, "pitch": 62, "duration": 10, "velocity": 92}, {"time": 1857, "pitch": 65, "duration": 10, "velocity": 102}, {"time": 1857, "pitch": 70, "duration": 11, "velocity": 91}, {"time": 1857, "pitch": 74, "duration": 12, "velocity": 98}, {"time": 1863, "pitch": 53, "duration": 6, "velocity": 110}, {"time": 1869, "pitch": 46, "duration": 7, "velocity": 88}, {"time": 1869, "pitch": 58, "duration": 7, "velocity": 86}, {"time": 1869, "pitch": 62, "duration": 7, "velocity": 91}, {"time": 1869, "pitch": 65, "duration": 7, "velocity": 96}, {"time": 1869, "pitch": 70, "duration": 7, "velocity": 90}, {"time": 1869, "pitch": 70, "duration": 7, "velocity": 104}, {"time": 1881, "pitch": 46, "duration": 3, "velocity": 91}, {"time": 1881, "pitch": 58, "duration": 3, "velocity": 93}, {"time": 1881, "pitch": 62, "duration": 3, "velocity": 94}, {"time": 1881, "pitch": 65, "duration": 3, "velocity": 104}, {"time": 1881, "pitch": 70, "duration": 3, "velocity": 93}, {"time": 1887, "pitch": 46, "duration": 3, "velocity": 94}, {"time": 1887, "pitch": 58, "duration": 3, "velocity": 94}, {"time": 1887, "pitch": 62, "duration": 3, "velocity": 98}, {"time": 1887, "pitch": 65, "duration": 2, "velocity": 110}, {"time": 1887, "pitch": 70, "duration": 2, "velocity": 100}, {"time": 1893, "pitch": 46, "duration": 7, "velocity": 107}, {"time": 1893, "pitch": 58, "duration": 2, "velocity": 108}, {"time": 1893, "pitch": 62, "duration": 6, "velocity": 107}, {"time": 1893, "pitch": 65, "duration": 7, "velocity": 114}, {"time": 1893, "pitch": 70, "duration": 7, "velocity": 102}, {"time": 1917, "pitch": 55, "duration": 144, "velocity": 107}, {"time": 1917, "pitch": 67, "duration": 8, "velocity": 117}, {"time": 1917, "pitch": 67, "duration": 8, "velocity": 119}, {"time": 1923, "pitch": 65, "duration": 5, "velocity": 108}, {"time": 1929, "pitch": 62, "duration": 6, "velocity": 94}, {"time": 1935, "pitch": 65, "duration": 5, "velocity": 113}, {"time": 1941, "pitch": 67, "duration": 6, "velocity": 107}, {"time": 1947, "pitch": 65, "duration": 6, "velocity": 114}, {"time": 1947, "pitch": 70, "duration": 6, "velocity": 117}, {"time": 1953, "pitch": 62, "duration": 7, "velocity": 108}, {"time": 1953, "pitch": 72, "duration": 6, "velocity": 116}, {"time": 1959, "pitch": 65, "duration": 5, "velocity": 110}, {"time": 1959, "pitch": 70, "duration": 6, "velocity": 114}, {"time": 1965, "pitch": 67, "duration": 7, "velocity": 113}, {"time": 1965, "pitch": 67, "duration": 7, "velocity": 116}, {"time": 1971, "pitch": 65, "duration": 6, "velocity": 113}, {"time": 1977, "pitch": 62, "duration": 7, "velocity": 108}, {"time": 1983, "pitch": 65, "duration": 6, "velocity": 113}, {"time": 1989, "pitch": 67, "duration": 6, "velocity": 104}, {"time": 1995, "pitch": 65, "duration": 6, "velocity": 114}, {"time": 2001, "pitch": 62, "duration": 7, "velocity": 108}, {"time": 2001, "pitch": 62, "duration": 7, "velocity": 110}, {"time": 2007, "pitch": 65, "duration": 6, "velocity": 107}, {"time": 2007, "pitch": 65, "duration": 6, "velocity": 110}, {"time": 2013, "pitch": 67, "duration": 7, "velocity": 100}, {"time": 2013, "pitch": 67, "duration": 7, "velocity": 117}, {"time": 2019, "pitch": 65, "duration": 6, "velocity": 110}, {"time": 2025, "pitch": 62, "duration": 8, "velocity": 102}, {"time": 2031, "pitch": 65, "duration": 6, "velocity": 113}, {"time": 2037, "pitch": 67, "duration": 6, "velocity": 102}, {"time": 2043, "pitch": 65, "duration": 6, "velocity": 108}, {"time": 2043, "pitch": 70, "duration": 7, "velocity": 96}, {"time": 2049, "pitch": 62, "duration": 7, "velocity": 94}, {"time": 2049, "pitch": 72, "duration": 6, "velocity": 114}, {"time": 2055, "pitch": 65, "duration": 6, "velocity": 110}, {"time": 2055, "pitch": 70, "duration": 6, "velocity": 108}, {"time": 2061, "pitch": 67, "duration": 7, "velocity": 100}, {"time": 2061, "pitch": 67, "duration": 7, "velocity": 114}, {"time": 2109, "pitch": 43, "duration": 14, "velocity": 98}, {"time": 2121, "pitch": 62, "duration": 2, "velocity": 90}, {"time": 2121, "pitch": 67, "duration": 2, "velocity": 100}, {"time": 2121, "pitch": 70, "duration": 2, "velocity": 90}, {"time": 2127, "pitch": 43, "duration": 3, "velocity": 93}, {"time": 2127, "pitch": 62, "duration": 3, "velocity": 100}, {"time": 2127, "pitch": 67, "duration": 3, "velocity": 113}, {"time": 2127, "pitch": 70, "duration": 3, "velocity": 93}, {"time": 2133, "pitch": 41, "duration": 11, "velocity": 96}, {"time": 2145, "pitch": 42, "duration": 9, "velocity": 100}, {"time": 2145, "pitch": 62, "duration": 4, "velocity": 104}, {"time": 2145, "pitch": 67, "duration": 3, "velocity": 110}, {"time": 2145, "pitch": 70, "duration": 4, "velocity": 98}, {"time": 2157, "pitch": 43, "duration": 16, "velocity": 93}, {"time": 2169, "pitch": 62, "duration": 2, "velocity": 107}, {"time": 2169, "pitch": 67, "duration": 2, "velocity": 113}, {"time": 2169, "pitch": 70, "duration": 2, "velocity": 98}, {"time": 2175, "pitch": 62, "duration": 4, "velocity": 107}, {"time": 2175, "pitch": 67, "duration": 4, "velocity": 116}, {"time": 2175, "pitch": 70, "duration": 4, "velocity": 100}, {"time": 2181, "pitch": 48, "duration": 12, "velocity": 102}, {"time": 2193, "pitch": 49, "duration": 12, "velocity": 106}, {"time": 2193, "pitch": 62, "duration": 4, "velocity": 110}, {"time": 2193, "pitch": 67, "duration": 4, "velocity": 116}, {"time": 2193, "pitch": 70, "duration": 4, "velocity": 102}, {"time": 2205, "pitch": 50, "duration": 16, "velocity": 104}, {"time": 2217, "pitch": 62, "duration": 2, "velocity": 89}, {"time": 2217, "pitch": 65, "duration": 2, "velocity": 93}, {"time": 2217, "pitch": 69, "duration": 2, "velocity": 88}, {"time": 2223, "pitch": 50, "duration": 6, "velocity": 104}, {"time": 2223, "pitch": 62, "duration": 4, "velocity": 94}, {"time": 2223, "pitch": 65, "duration": 4, "velocity": 104}, {"time": 2223, "pitch": 69, "duration": 5, "velocity": 102}, {"time": 2229, "pitch": 48, "duration": 8, "velocity": 92}, {"time": 2241, "pitch": 49, "duration": 9, "velocity": 100}, {"time": 2241, "pitch": 62, "duration": 5, "velocity": 100}, {"time": 2241, "pitch": 65, "duration": 5, "velocity": 108}, {"time": 2241, "pitch": 69, "duration": 5, "velocity": 104}, {"time": 2253, "pitch": 50, "duration": 13, "velocity": 100}, {"time": 2265, "pitch": 62, "duration": 2, "velocity": 92}, {"time": 2265, "pitch": 65, "duration": 2, "velocity": 100}, {"time": 2265, "pitch": 69, "duration": 2, "velocity": 94}, {"time": 2271, "pitch": 62, "duration": 4, "velocity": 90}, {"time": 2271, "pitch": 65, "duration": 4, "velocity": 100}, {"time": 2271, "pitch": 69, "duration": 4, "velocity": 98}, {"time": 2277, "pitch": 50, "duration": 12, "velocity": 86}, {"time": 2289, "pitch": 46, "duration": 7, "velocity": 86}, {"time": 2289, "pitch": 62, "duration": 4, "velocity": 96}, {"time": 2289, "pitch": 65, "duration": 4, "velocity": 108}, {"time": 2289, "pitch": 69, "duration": 4, "velocity": 94}, {"time": 2295, "pitch": 47, "duration": 6, "velocity": 84}, {"time": 2301, "pitch": 48, "duration": 11, "velocity": 90}, {"time": 2313, "pitch": 60, "duration": 2, "velocity": 92}, {"time": 2313, "pitch": 63, "duration": 2, "velocity": 98}, {"time": 2313, "pitch": 67, "duration": 2, "velocity": 92}, {"time": 2319, "pitch": 60, "duration": 4, "velocity": 96}, {"time": 2319, "pitch": 63, "duration": 4, "velocity": 104}, {"time": 2319, "pitch": 67, "duration": 4, "velocity": 102}, {"time": 2325, "pitch": 51, "duration": 12, "velocity": 93}, {"time": 2337, "pitch": 52, "duration": 13, "velocity": 93}, {"time": 2337, "pitch": 60, "duration": 4, "velocity": 102}, {"time": 2337, "pitch": 63, "duration": 5, "velocity": 108}, {"time": 2337, "pitch": 67, "duration": 5, "velocity": 98}, {"time": 2349, "pitch": 53, "duration": 15, "velocity": 92}, {"time": 2361, "pitch": 60, "duration": 2, "velocity": 91}, {"time": 2361, "pitch": 65, "duration": 2, "velocity": 96}, {"time": 2361, "pitch": 69, "duration": 2, "velocity": 90}, {"time": 2367, "pitch": 60, "duration": 2, "velocity": 96}, {"time": 2367, "pitch": 65, "duration": 2, "velocity": 102}, {"time": 2367, "pitch": 69, "duration": 3, "velocity": 93}, {"time": 2373, "pitch": 53, "duration": 12, "velocity": 87}, {"time": 2385, "pitch": 60, "duration": 3, "velocity": 104}, {"time": 2385, "pitch": 65, "duration": 4, "velocity": 113}, {"time": 2385, "pitch": 69, "duration": 4, "velocity": 96}, {"time": 2397, "pitch": 55, "duration": 13, "velocity": 88}, {"time": 2409, "pitch": 62, "duration": 2, "velocity": 91}, {"time": 2409, "pitch": 67, "duration": 2, "velocity": 98}, {"time": 2409, "pitch": 70, "duration": 2, "velocity": 90}, {"time": 2415, "pitch": 55, "duration": 6, "velocity": 94}, {"time": 2415, "pitch": 62, "duration": 2, "velocity": 98}, {"time": 2415, "pitch": 67, "duration": 3, "velocity": 108}, {"time": 2415, "pitch": 70, "duration": 3, "velocity": 91}, {"time": 2421, "pitch": 53, "duration": 13, "velocity": 96}, {"time": 2433, "pitch": 54, "duration": 12, "velocity": 95}, {"time": 2433, "pitch": 62, "duration": 5, "velocity": 108}, {"time": 2433, "pitch": 67, "duration": 5, "velocity": 113}, {"time": 2433, "pitch": 70, "duration": 5, "velocity": 98}, {"time": 2445, "pitch": 55, "duration": 8, "velocity": 98}, {"time": 2493, "pitch": 43, "duration": 14, "velocity": 98}, {"time": 2505, "pitch": 62, "duration": 2, "velocity": 90}, {"time": 2505, "pitch": 67, "duration": 2, "velocity": 100}, {"time": 2505, "pitch": 70, "duration": 2, "velocity": 90}, {"time": 2511, "pitch": 43, "duration": 3, "velocity": 93}, {"time": 2511, "pitch": 62, "duration": 3, "velocity": 100}, {"time": 2511, "pitch": 67, "duration": 3, "velocity": 113}, {"time": 2511, "pitch": 70, "duration": 3, "velocity": 93}, {"time": 2517, "pitch": 41, "duration": 11, "velocity": 96}, {"time": 2529, "pitch": 42, "duration": 9, "velocity": 100}, {"time": 2529, "pitch": 62, "duration": 4, "velocity": 104}, {"time": 2529, "pitch": 67, "duration": 3, "velocity": 110}, {"time": 2529, "pitch": 70, "duration": 4, "velocity": 98}, {"time": 2541, "pitch": 43, "duration": 16, "velocity": 93}, {"time": 2553, "pitch": 62, "duration": 2, "velocity": 107}, {"time": 2553, "pitch": 67, "duration": 2, "velocity": 113}, {"time": 2553, "pitch": 70, "duration": 2, "velocity": 98}, {"time": 2559, "pitch": 62, "duration": 4, "velocity": 107}, {"time": 2559, "pitch": 67, "duration": 4, "velocity": 116}, {"time": 2559, "pitch": 70, "duration": 4, "velocity": 100}, {"time": 2565, "pitch": 48, "duration": 12, "velocity": 102}, {"time": 2577, "pitch": 49, "duration": 12, "velocity": 106}, {"time": 2577, "pitch": 62, "duration": 4, "velocity": 110}, {"time": 2577, "pitch": 67, "duration": 4, "velocity": 116}, {"time": 2577, "pitch": 70, "duration": 4, "velocity": 102}, {"time": 2589, "pitch": 50, "duration": 16, "velocity": 104}, {"time": 2601, "pitch": 62, "duration": 2, "velocity": 89}, {"time": 2601, "pitch": 65, "duration": 2, "velocity": 93}, {"time": 2601, "pitch": 69, "duration": 2, "velocity": 88}, {"time": 2607, "pitch": 50, "duration": 6, "velocity": 104}, {"time": 2607, "pitch": 62, "duration": 4, "velocity": 94}, {"time": 2607, "pitch": 65, "duration": 4, "velocity": 104}, {"time": 2607, "pitch": 69, "duration": 5, "velocity": 102}, {"time": 2613, "pitch": 48, "duration": 8, "velocity": 92}, {"time": 2625, "pitch": 49, "duration": 9, "velocity": 100}, {"time": 2625, "pitch": 62, "duration": 5, "velocity": 100}, {"time": 2625, "pitch": 65, "duration": 5, "velocity": 108}, {"time": 2625, "pitch": 69, "duration": 5, "velocity": 104}, {"time": 2637, "pitch": 50, "duration": 13, "velocity": 100}, {"time": 2649, "pitch": 62, "duration": 2, "velocity": 92}, {"time": 2649, "pitch": 65, "duration": 2, "velocity": 100}, {"time": 2649, "pitch": 69, "duration": 2, "velocity": 94}, {"time": 2655, "pitch": 62, "duration": 4, "velocity": 90}, {"time": 2655, "pitch": 65, "duration": 4, "velocity": 100}, {"time": 2655, "pitch": 69, "duration": 4, "velocity": 98}, {"time": 2661, "pitch": 50, "duration": 12, "velocity": 86}, {"time": 2673, "pitch": 46, "duration": 7, "velocity": 86}, {"time": 2673, "pitch": 62, "duration": 4, "velocity": 96}, {"time": 2673, "pitch": 65, "duration": 4, "velocity": 108}, {"time": 2673, "pitch": 69, "duration": 4, "velocity": 94}, {"time": 2679, "pitch": 47, "duration": 6, "velocity": 84}, {"time": 2685, "pitch": 48, "duration": 11, "velocity": 90}, {"time": 2697, "pitch": 60, "duration": 2, "velocity": 92}, {"time": 2697, "pitch": 63, "duration": 2, "velocity": 98}, {"time": 2697, "pitch": 67, "duration": 2, "velocity": 92}, {"time": 2703, "pitch": 60, "duration": 4, "velocity": 96}, {"time": 2703, "pitch": 63, "duration": 4, "velocity": 104}, {"time": 2703, "pitch": 67, "duration": 4, "velocity": 102}, {"time": 2709, "pitch": 51, "duration": 12, "velocity": 93}, {"time": 2721, "pitch": 52, "duration": 13, "velocity": 93}, {"time": 2721, "pitch": 60, "duration": 4, "velocity": 102}, {"time": 2721, "pitch": 63, "duration": 5, "velocity": 108}, {"time": 2721, "pitch": 67, "duration": 5, "velocity": 98}, {"time": 2733, "pitch": 53, "duration": 15, "velocity": 92}, {"time": 2745, "pitch": 60, "duration": 2, "velocity": 91}, {"time": 2745, "pitch": 65, "duration": 2, "velocity": 96}, {"time": 2745, "pitch": 69, "duration": 2, "velocity": 90}, {"time": 2751, "pitch": 60, "duration": 2, "velocity": 96}, {"time": 2751, "pitch": 65, "duration": 2, "velocity": 102}, {"time": 2751, "pitch": 69, "duration": 3, "velocity": 93}, {"time": 2757, "pitch": 53, "duration": 12, "velocity": 87}, {"time": 2769, "pitch": 60, "duration": 3, "velocity": 104}, {"time": 2769, "pitch": 65, "duration": 4, "velocity": 113}, {"time": 2769, "pitch": 69, "duration": 4, "velocity": 96}, {"time": 2781, "pitch": 55, "duration": 13, "velocity": 88}, {"time": 2793, "pitch": 62, "duration": 2, "velocity": 91}, {"time": 2793, "pitch": 67, "duration": 2, "velocity": 98}, {"time": 2793, "pitch": 70, "duration": 2, "velocity": 90}, {"time": 2799, "pitch": 55, "duration": 6, "velocity": 94}, {"time": 2799, "pitch": 62, "duration": 2, "velocity": 98}, {"time": 2799, "pitch": 67, "duration": 3, "velocity": 108}, {"time": 2799, "pitch": 70, "duration": 3, "velocity": 91}, {"time": 2805, "pitch": 53, "duration": 13, "velocity": 96}, {"time": 2817, "pitch": 54, "duration": 12, "velocity": 95}, {"time": 2817, "pitch": 62, "duration": 5, "velocity": 108}, {"time": 2817, "pitch": 67, "duration": 5, "velocity": 113}, {"time": 2817, "pitch": 70, "duration": 5, "velocity": 98}, {"time": 2829, "pitch": 55, "duration": 8, "velocity": 98}, {"time": 2877, "pitch": 46, "duration": 12, "velocity": 102}, {"time": 2889, "pitch": 62, "duration": 12, "velocity": 104}, {"time": 2889, "pitch": 65, "duration": 13, "velocity": 108}, {"time": 2889, "pitch": 70, "duration": 12, "velocity": 93}, {"time": 2895, "pitch": 46, "duration": 4, "velocity": 104}, {"time": 2901, "pitch": 55, "duration": 12, "velocity": 114}, {"time": 2913, "pitch": 62, "duration": 13, "velocity": 107}, {"time": 2913, "pitch": 67, "duration": 13, "velocity": 114}, {"time": 2913, "pitch": 70, "duration": 13, "velocity": 100}, {"time": 2919, "pitch": 55, "duration": 4, "velocity": 113}, {"time": 2925, "pitch": 51, "duration": 12, "velocity": 117}, {"time": 2937, "pitch": 63, "duration": 13, "velocity": 104}, {"time": 2937, "pitch": 67, "duration": 14, "velocity": 108}, {"time": 2937, "pitch": 70, "duration": 13, "velocity": 96}, {"time": 2943, "pitch": 51, "duration": 3, "velocity": 116}, {"time": 2949, "pitch": 53, "duration": 12, "velocity": 114}, {"time": 2961, "pitch": 60, "duration": 10, "velocity": 108}, {"time": 2961, "pitch": 65, "duration": 12, "velocity": 114}, {"time": 2961, "pitch": 69, "duration": 11, "velocity": 107}, {"time": 2967, "pitch": 53, "duration": 4, "velocity": 114}, {"time": 2973, "pitch": 46, "duration": 12, "velocity": 104}, {"time": 2985, "pitch": 62, "duration": 13, "velocity": 107}, {"time": 2985, "pitch": 65, "duration": 13, "velocity": 108}, {"time": 2985, "pitch": 70, "duration": 13, "velocity": 94}, {"time": 2991, "pitch": 46, "duration": 4, "velocity": 100}, {"time": 2997, "pitch": 55, "duration": 12, "velocity": 116}, {"time": 3009, "pitch": 62, "duration": 14, "velocity": 113}, {"time": 3009, "pitch": 67, "duration": 14, "velocity": 114}, {"time": 3009, "pitch": 70, "duration": 14, "velocity": 98}, {"time": 3015, "pitch": 55, "duration": 5, "velocity": 116}, {"time": 3021, "pitch": 51, "duration": 12, "velocity": 117}, {"time": 3033, "pitch": 63, "duration": 13, "velocity": 107}, {"time": 3033, "pitch": 67, "duration": 13, "velocity": 113}, {"time": 3033, "pitch": 70, "duration": 12, "velocity": 98}, {"time": 3039, "pitch": 51, "duration": 6, "velocity": 116}, {"time": 3045, "pitch": 53, "duration": 13, "velocity": 117}, {"time": 3057, "pitch": 60, "duration": 11, "velocity": 108}, {"time": 3057, "pitch": 65, "duration": 12, "velocity": 114}, {"time": 3057, "pitch": 69, "duration": 12, "velocity": 102}, {"time": 3063, "pitch": 53, "duration": 3, "velocity": 113}, {"time": 3069, "pitch": 50, "duration": 12, "velocity": 107}, {"time": 3081, "pitch": 62, "duration": 8, "velocity": 88}, {"time": 3081, "pitch": 65, "duration": 8, "velocity": 92}, {"time": 3081, "pitch": 69, "duration": 7, "velocity": 90}, {"time": 3087, "pitch": 50, "duration": 7, "velocity": 98}, {"time": 3093, "pitch": 55, "duration": 13, "velocity": 108}, {"time": 3105, "pitch": 58, "duration": 9, "velocity": 92}, {"time": 3105, "pitch": 62, "duration": 14, "velocity": 102}, {"time": 3105, "pitch": 67, "duration": 11, "velocity": 92}, {"time": 3111, "pitch": 55, "duration": 6, "velocity": 110}, {"time": 3117, "pitch": 48, "duration": 12, "velocity": 102}, {"time": 3129, "pitch": 60, "duration": 14, "velocity": 91}, {"time": 3129, "pitch": 63, "duration": 14, "velocity": 107}, {"time": 3129, "pitch": 67, "duration": 13, "velocity": 93}, {"time": 3135, "pitch": 48, "duration": 6, "velocity": 96}, {"time": 3141, "pitch": 53, "duration": 14, "velocity": 98}, {"time": 3153, "pitch": 60, "duration": 12, "velocity": 94}, {"time": 3153, "pitch": 65, "duration": 12, "velocity": 110}, {"time": 3153, "pitch": 69, "duration": 12, "velocity": 98}, {"time": 3159, "pitch": 53, "duration": 7, "velocity": 110}, {"time": 3177, "pitch": 62, "duration": 14, "velocity": 107}, {"time": 3177, "pitch": 65, "duration": 14, "velocity": 113}, {"time": 3177, "pitch": 70, "duration": 14, "velocity": 98}, {"time": 3183, "pitch": 46, "duration": 3, "velocity": 108}, {"time": 3189, "pitch": 53, "duration": 12, "velocity": 116}, {"time": 3201, "pitch": 62, "duration": 14, "velocity": 107}, {"time": 3201, "pitch": 65, "duration": 14, "velocity": 114}, {"time": 3201, "pitch": 70, "duration": 14, "velocity": 96}, {"time": 3207, "pitch": 53, "duration": 5, "velocity": 113}, {"time": 3213, "pitch": 41, "duration": 7, "velocity": 107}, {"time": 3213, "pitch": 53, "duration": 7, "velocity": 104}, {"time": 3213, "pitch": 57, "duration": 6, "velocity": 107}, {"time": 3213, "pitch": 60, "duration": 6, "velocity": 114}, {"time": 3213, "pitch": 65, "duration": 2, "velocity": 110}, {"time": 3225, "pitch": 41, "duration": 8, "velocity": 107}, {"time": 3225, "pitch": 53, "duration": 8, "velocity": 110}, {"time": 3225, "pitch": 57, "duration": 7, "velocity": 104}, {"time": 3225, "pitch": 60, "duration": 9, "velocity": 114}, {"time": 3225, "pitch": 65, "duration": 8, "velocity": 108}, {"time": 3261, "pitch": 46, "duration": 11, "velocity": 90}, {"time": 3261, "pitch": 58, "duration": 11, "velocity": 94}, {"time": 3273, "pitch": 62, "duration": 13, "velocity": 107}, {"time": 3273, "pitch": 65, "duration": 13, "velocity": 108}, {"time": 3273, "pitch": 70, "duration": 13, "velocity": 96}, {"time": 3279, "pitch": 46, "duration": 3, "velocity": 107}, {"time": 3285, "pitch": 55, "duration": 13, "velocity": 100}, {"time": 3297, "pitch": 62, "duration": 13, "velocity": 107}, {"time": 3297, "pitch": 67, "duration": 13, "velocity": 110}, {"time": 3297, "pitch": 70, "duration": 14, "velocity": 100}, {"time": 3303, "pitch": 55, "duration": 6, "velocity": 110}, {"time": 3309, "pitch": 51, "duration": 12, "velocity": 113}, {"time": 3321, "pitch": 63, "duration": 12, "velocity": 96}, {"time": 3321, "pitch": 67, "duration": 13, "velocity": 114}, {"time": 3321, "pitch": 70, "duration": 13, "velocity": 100}, {"time": 3327, "pitch": 51, "duration": 6, "velocity": 114}, {"time": 3333, "pitch": 53, "duration": 12, "velocity": 117}, {"time": 3345, "pitch": 60, "duration": 10, "velocity": 107}, {"time": 3345, "pitch": 65, "duration": 12, "velocity": 110}, {"time": 3345, "pitch": 69, "duration": 12, "velocity": 92}, {"time": 3351, "pitch": 53, "duration": 5, "velocity": 110}, {"time": 3357, "pitch": 46, "duration": 12, "velocity": 100}, {"time": 3369, "pitch": 62, "duration": 15, "velocity": 102}, {"time": 3369, "pitch": 65, "duration": 19, "velocity": 104}, {"time": 3369, "pitch": 70, "duration": 15, "velocity": 98}, {"time": 3372, "pitch": 46, "duration": 5, "velocity": 104}, {"time": 3381, "pitch": 55, "duration": 13, "velocity": 117}, {"time": 3393, "pitch": 62, "duration": 13, "velocity": 110}, {"time": 3393, "pitch": 67, "duration": 13, "velocity": 114}, {"time": 3393, "pitch": 70, "duration": 13, "velocity": 104}, {"time": 3399, "pitch": 55, "duration": 6, "velocity": 114}, {"time": 3405, "pitch": 51, "duration": 12, "velocity": 114}, {"time": 3417, "pitch": 63, "duration": 14, "velocity": 108}, {"time": 3417, "pitch": 67, "duration": 14, "velocity": 116}, {"time": 3417, "pitch": 70, "duration": 13, "velocity": 100}, {"time": 3423, "pitch": 51, "duration": 6, "velocity": 113}, {"time": 3429, "pitch": 53, "duration": 12, "velocity": 117}, {"time": 3441, "pitch": 60, "duration": 6, "velocity": 108}, {"time": 3441, "pitch": 65, "duration": 8, "velocity": 113}, {"time": 3441, "pitch": 69, "duration": 7, "velocity": 96}, {"time": 3447, "pitch": 53, "duration": 3, "velocity": 114}, {"time": 3453, "pitch": 50, "duration": 12, "velocity": 107}, {"time": 3465, "pitch": 62, "duration": 15, "velocity": 93}, {"time": 3465, "pitch": 65, "duration": 15, "velocity": 107}, {"time": 3465, "pitch": 69, "duration": 14, "velocity": 91}, {"time": 3471, "pitch": 50, "duration": 6, "velocity": 102}, {"time": 3477, "pitch": 55, "duration": 14, "velocity": 110}, {"time": 3489, "pitch": 58, "duration": 12, "velocity": 91}, {"time": 3489, "pitch": 62, "duration": 14, "velocity": 96}, {"time": 3489, "pitch": 67, "duration": 13, "velocity": 92}, {"time": 3495, "pitch": 55, "duration": 6, "velocity": 104}, {"time": 3501, "pitch": 48, "duration": 12, "velocity": 100}, {"time": 3513, "pitch": 60, "duration": 14, "velocity": 96}, {"time": 3513, "pitch": 63, "duration": 14, "velocity": 108}, {"time": 3513, "pitch": 67, "duration": 13, "velocity": 100}, {"time": 3519, "pitch": 48, "duration": 6, "velocity": 93}, {"time": 3525, "pitch": 53, "duration": 13, "velocity": 107}, {"time": 3537, "pitch": 60, "duration": 12, "velocity": 102}, {"time": 3537, "pitch": 65, "duration": 13, "velocity": 110}, {"time": 3537, "pitch": 69, "duration": 13, "velocity": 104}, {"time": 3543, "pitch": 53, "duration": 6, "velocity": 108}, {"time": 3549, "pitch": 46, "duration": 13, "velocity": 100}, {"time": 3561, "pitch": 62, "duration": 19, "velocity": 98}, {"time": 3561, "pitch": 65, "duration": 19, "velocity": 104}, {"time": 3561, "pitch": 70, "duration": 18, "velocity": 92}, {"time": 3567, "pitch": 46, "duration": 5, "velocity": 98}, {"time": 3573, "pitch": 53, "duration": 12, "velocity": 110}, {"time": 3585, "pitch": 62, "duration": 10, "velocity": 92}, {"time": 3585, "pitch": 65, "duration": 10, "velocity": 102}, {"time": 3585, "pitch": 70, "duration": 11, "velocity": 91}, {"time": 3591, "pitch": 53, "duration": 6, "velocity": 110}, {"time": 3597, "pitch": 46, "duration": 7, "velocity": 88}, {"time": 3597, "pitch": 58, "duration": 7, "velocity": 86}, {"time": 3597, "pitch": 62, "duration": 7, "velocity": 91}, {"time": 3597, "pitch": 65, "duration": 7, "velocity": 96}, {"time": 3597, "pitch": 70, "duration": 7, "velocity": 90}, {"time": 3609, "pitch": 46, "duration": 3, "velocity": 91}, {"time": 3609, "pitch": 58, "duration": 3, "velocity": 93}, {"time": 3609, "pitch": 62, "duration": 3, "velocity": 94}, {"time": 3609, "pitch": 65, "duration": 3, "velocity": 104}, {"time": 3609, "pitch": 70, "duration": 3, "velocity": 93}, {"time": 3615, "pitch": 46, "duration": 3, "velocity": 94}, {"time": 3615, "pitch": 58, "duration": 3, "velocity": 94}, {"time": 3615, "pitch": 62, "duration": 3, "velocity": 98}, {"time": 3615, "pitch": 65, "duration": 2, "velocity": 110}, {"time": 3615, "pitch": 70, "duration": 2, "velocity": 100}, {"time": 3621, "pitch": 46, "duration": 7, "velocity": 107}, {"time": 3621, "pitch": 58, "duration": 2, "velocity": 108}, {"time": 3621, "pitch": 62, "duration": 6, "velocity": 107}, {"time": 3621, "pitch": 65, "duration": 7, "velocity": 114}, {"time": 3621, "pitch": 70, "duration": 7, "velocity": 102}, {"time": 3837, "pitch": 43, "duration": 12, "velocity": 94}, {"time": 3849, "pitch": 62, "duration": 15, "velocity": 89}, {"time": 3849, "pitch": 67, "duration": 15, "velocity": 93}, {"time": 3849, "pitch": 70, "duration": 14, "velocity": 88}, {"time": 3855, "pitch": 50, "duration": 6, "velocity": 88}, {"time": 3861, "pitch": 50, "duration": 7, "velocity": 100}, {"time": 3867, "pitch": 62, "duration": 7, "velocity": 96}, {"time": 3867, "pitch": 67, "duration": 7, "velocity": 107}, {"time": 3867, "pitch": 70, "duration": 7, "velocity": 92}, {"time": 3873, "pitch": 50, "duration": 8, "velocity": 93}, {"time": 3879, "pitch": 62, "duration": 9, "velocity": 91}, {"time": 3879, "pitch": 67, "duration": 9, "velocity": 98}, {"time": 3879, "pitch": 70, "duration": 9, "velocity": 89}, {"time": 3885, "pitch": 43, "duration": 12, "velocity": 94}, {"time": 3897, "pitch": 62, "duration": 15, "velocity": 96}, {"time": 3897, "pitch": 67, "duration": 15, "velocity": 104}, {"time": 3897, "pitch": 70, "duration": 14, "velocity": 91}, {"time": 3903, "pitch": 50, "duration": 6, "velocity": 89}, {"time": 3909, "pitch": 50, "duration": 7, "velocity": 98}, {"time": 3915, "pitch": 62, "duration": 7, "velocity": 96}, {"time": 3915, "pitch": 67, "duration": 7, "velocity": 104}, {"time": 3915, "pitch": 70, "duration": 6, "velocity": 91}, {"time": 3921, "pitch": 43, "duration": 6, "velocity": 91}, {"time": 3927, "pitch": 62, "duration": 9, "velocity": 92}, {"time": 3927, "pitch": 67, "duration": 9, "velocity": 102}, {"time": 3927, "pitch": 70, "duration": 8, "velocity": 90}, {"time": 3930, "pitch": 38, "duration": 15, "velocity": 104}, {"time": 3945, "pitch": 62, "duration": 14, "velocity": 100}, {"time": 3945, "pitch": 65, "duration": 14, "velocity": 94}, {"time": 3945, "pitch": 69, "duration": 14, "velocity": 100}, {"time": 3951, "pitch": 45, "duration": 6, "velocity": 100}, {"time": 3957, "pitch": 45, "duration": 7, "velocity": 104}, {"time": 3963, "pitch": 62, "duration": 7, "velocity": 94}, {"time": 3963, "pitch": 65, "duration": 8, "velocity": 108}, {"time": 3963, "pitch": 69, "duration": 7, "velocity": 100}, {"time": 3969, "pitch": 45, "duration": 6, "velocity": 107}, {"time": 3975, "pitch": 62, "duration": 8, "velocity": 90}, {"time": 3975, "pitch": 65, "duration": 8, "velocity": 102}, {"time": 3975, "pitch": 69, "duration": 8, "velocity": 91}, {"time": 3981, "pitch": 38, "duration": 12, "velocity": 100}, {"time": 3993, "pitch": 62, "duration": 14, "velocity": 96}, {"time": 3993, "pitch": 65, "duration": 14, "velocity": 104}, {"time": 3993, "pitch": 69, "duration": 14, "velocity": 92}, {"time": 3999, "pitch": 45, "duration": 6, "velocity": 89}, {"time": 4005, "pitch": 38, "duration": 12, "velocity": 100}, {"time": 4017, "pitch": 62, "duration": 12, "velocity": 100}, {"time": 4017, "pitch": 65, "duration": 13, "velocity": 104}, {"time": 4017, "pitch": 69, "duration": 12, "velocity": 98}, {"time": 4023, "pitch": 38, "duration": 6, "velocity": 89}, {"time": 4029, "pitch": 48, "duration": 12, "velocity": 104}, {"time": 4041, "pitch": 60, "duration": 13, "velocity": 96}, {"time": 4041, "pitch": 63, "duration": 13, "velocity": 107}, {"time": 4041, "pitch": 67, "duration": 12, "velocity": 91}, {"time": 4047, "pitch": 55, "duration": 6, "velocity": 100}, {"time": 4053, "pitch": 55, "duration": 6, "velocity": 104}, {"time": 4059, "pitch": 60, "duration": 7, "velocity": 104}, {"time": 4059, "pitch": 63, "duration": 7, "velocity": 110}, {"time": 4059, "pitch": 67, "duration": 6, "velocity": 102}, {"time": 4065, "pitch": 55, "duration": 7, "velocity": 93}, {"time": 4071, "pitch": 60, "duration": 7, "velocity": 90}, {"time": 4071, "pitch": 63, "duration": 7, "velocity": 100}, {"time": 4071, "pitch": 67, "duration": 7, "velocity": 89}, {"time": 4077, "pitch": 48, "duration": 12, "velocity": 104}, {"time": 4089, "pitch": 60, "duration": 14, "velocity": 100}, {"time": 4089, "pitch": 63, "duration": 15, "velocity": 107}, {"time": 4089, "pitch": 67, "duration": 14, "velocity": 88}, {"time": 4095, "pitch": 55, "duration": 6, "velocity": 92}, {"time": 4101, "pitch": 55, "duration": 7, "velocity": 107}, {"time": 4107, "pitch": 60, "duration": 7, "velocity": 108}, {"time": 4107, "pitch": 63, "duration": 7, "velocity": 114}, {"time": 4107, "pitch": 67, "duration": 7, "velocity": 102}, {"time": 4113, "pitch": 55, "duration": 8, "velocity": 107}, {"time": 4119, "pitch": 60, "duration": 7, "velocity": 102}, {"time": 4119, "pitch": 63, "duration": 7, "velocity": 107}, {"time": 4119, "pitch": 67, "duration": 6, "velocity": 96}, {"time": 4125, "pitch": 55, "duration": 12, "velocity": 98}, {"time": 4137, "pitch": 62, "duration": 14, "velocity": 88}, {"time": 4137, "pitch": 67, "duration": 15, "velocity": 94}, {"time": 4137, "pitch": 70, "duration": 14, "velocity": 88}, {"time": 4143, "pitch": 50, "duration": 6, "velocity": 87}, {"time": 4149, "pitch": 50, "duration": 6, "velocity": 96}, {"time": 4155, "pitch": 62, "duration": 9, "velocity": 92}, {"time": 4155, "pitch": 67, "duration": 9, "velocity": 98}, {"time": 4155, "pitch": 70, "duration": 9, "velocity": 89}, {"time": 4164, "pitch": 55, "duration": 9, "velocity": 102}, {"time": 4173, "pitch": 62, "duration": 11, "velocity": 93}, {"time": 4173, "pitch": 67, "duration": 12, "velocity": 107}, {"time": 4173, "pitch": 70, "duration": 12, "velocity": 91}, {"time": 4183, "pitch": 43, "duration": 88, "velocity": 107}, {"time": 4193, "pitch": 50, "duration": 78, "velocity": 81}, {"time": 4201, "pitch": 55, "duration": 70, "velocity": 93}, {"time": 4206, "pitch": 58, "duration": 4, "velocity": 87}, {"time": 4212, "pitch": 62, "duration": 1, "velocity": 98}, {"time": 4217, "pitch": 67, "duration": 3, "velocity": 91}, {"time": 4222, "pitch": 70, "duration": 3, "velocity": 88}, {"time": 4228, "pitch": 74, "duration": 2, "velocity": 85}, {"time": 4234, "pitch": 79, "duration": 5, "velocity": 91}, {"time": 4241, "pitch": 82, "duration": 5, "velocity": 87}, {"time": 4249, "pitch": 86, "duration": 4, "velocity": 92}, {"time": 4258, "pitch": 79, "duration": 7, "velocity": 65}, {"time": 4260, "pitch": 82, "duration": 7, "velocity": 77}, {"time": 4264, "pitch": 91, "duration": 6, "velocity": 84}, {"time": 4374, "pitch": 46, "duration": 12, "velocity": 102}, {"time": 4386, "pitch": 62, "duration": 12, "velocity": 104}, {"time": 4386, "pitch": 65, "duration": 13, "velocity": 108}, {"time": 4386, "pitch": 70, "duration": 12, "velocity": 93}, {"time": 4392, "pitch": 46, "duration": 4, "velocity": 104}, {"time": 4398, "pitch": 55, "duration": 12, "velocity": 114}, {"time": 4410, "pitch": 62, "duration": 13, "velocity": 107}, {"time": 4410, "pitch": 67, "duration": 13, "velocity": 114}, {"time": 4410, "pitch": 70, "duration": 13, "velocity": 100}, {"time": 4416, "pitch": 55, "duration": 4, "velocity": 113}, {"time": 4422, "pitch": 51, "duration": 12, "velocity": 117}, {"time": 4434, "pitch": 63, "duration": 13, "velocity": 104}, {"time": 4434, "pitch": 67, "duration": 14, "velocity": 108}, {"time": 4434, "pitch": 70, "duration": 13, "velocity": 96}, {"time": 4440, "pitch": 51, "duration": 3, "velocity": 116}, {"time": 4446, "pitch": 53, "duration": 12, "velocity": 114}, {"time": 4458, "pitch": 60, "duration": 10, "velocity": 108}, {"time": 4458, "pitch": 65, "duration": 12, "velocity": 114}, {"time": 4458, "pitch": 69, "duration": 11, "velocity": 107}, {"time": 4464, "pitch": 53, "duration": 4, "velocity": 114}, {"time": 4470, "pitch": 46, "duration": 12, "velocity": 104}, {"time": 4482, "pitch": 62, "duration": 13, "velocity": 107}, {"time": 4482, "pitch": 65, "duration": 13, "velocity": 108}, {"time": 4482, "pitch": 70, "duration": 13, "velocity": 94}, {"time": 4488, "pitch": 46, "duration": 4, "velocity": 100}, {"time": 4494, "pitch": 55, "duration": 12, "velocity": 116}, {"time": 4506, "pitch": 62, "duration": 14, "velocity": 113}, {"time": 4506, "pitch": 67, "duration": 14, "velocity": 114}, {"time": 4506, "pitch": 70, "duration": 14, "velocity": 98}, {"time": 4512, "pitch": 55, "duration": 5, "velocity": 116}, {"time": 4518, "pitch": 51, "duration": 12, "velocity": 117}, {"time": 4530, "pitch": 63, "duration": 13, "velocity": 107}, {"time": 4530, "pitch": 67, "duration": 13, "velocity": 113}, {"time": 4530, "pitch": 70, "duration": 12, "velocity": 98}, {"time": 4536, "pitch": 51, "duration": 6, "velocity": 116}, {"time": 4542, "pitch": 53, "duration": 12, "velocity": 117}, {"time": 4554, "pitch": 60, "duration": 11, "velocity": 108}, {"time": 4554, "pitch": 65, "duration": 12, "velocity": 114}, {"time": 4554, "pitch": 69, "duration": 12, "velocity": 102}, {"time": 4560, "pitch": 53, "duration": 3, "velocity": 113}, {"time": 4566, "pitch": 50, "duration": 12, "velocity": 107}, {"time": 4578, "pitch": 62, "duration": 8, "velocity": 88}, {"time": 4578, "pitch": 65, "duration": 8, "velocity": 92}, {"time": 4578, "pitch": 69, "duration": 7, "velocity": 90}, {"time": 4584, "pitch": 50, "duration": 7, "velocity": 98}, {"time": 4590, "pitch": 55, "duration": 13, "velocity": 108}, {"time": 4602, "pitch": 58, "duration": 9, "velocity": 92}, {"time": 4602, "pitch": 62, "duration": 14, "velocity": 102}, {"time": 4602, "pitch": 67, "duration": 11, "velocity": 92}, {"time": 4608, "pitch": 55, "duration": 6, "velocity": 110}, {"time": 4614, "pitch": 48, "duration": 12, "velocity": 102}, {"time": 4626, "pitch": 60, "duration": 14, "velocity": 91}, {"time": 4626, "pitch": 63, "duration": 14, "velocity": 107}, {"time": 4626, "pitch": 67, "duration": 13, "velocity": 93}, {"time": 4632, "pitch": 48, "duration": 6, "velocity": 96}, {"time": 4638, "pitch": 53, "duration": 14, "velocity": 98}, {"time": 4650, "pitch": 60, "duration": 12, "velocity": 94}, {"time": 4650, "pitch": 65, "duration": 12, "velocity": 110}, {"time": 4650, "pitch": 69, "duration": 12, "velocity": 98}, {"time": 4656, "pitch": 53, "duration": 7, "velocity": 110}, {"time": 4674, "pitch": 62, "duration": 14, "velocity": 107}, {"time": 4674, "pitch": 65, "duration": 14, "velocity": 113}, {"time": 4674, "pitch": 70, "duration": 14, "velocity": 98}, {"time": 4680, "pitch": 46, "duration": 3, "velocity": 108}, {"time": 4686, "pitch": 53, "duration": 12, "velocity": 116}, {"time": 4698, "pitch": 62, "duration": 14, "velocity": 107}, {"time": 4698, "pitch": 65, "duration": 14, "velocity": 114}, {"time": 4698, "pitch": 70, "duration": 14, "velocity": 96}, {"time": 4704, "pitch": 53, "duration": 5, "velocity": 113}, {"time": 4710, "pitch": 41, "duration": 7, "velocity": 107}, {"time": 4710, "pitch": 53, "duration": 7, "velocity": 104}, {"time": 4710, "pitch": 57, "duration": 6, "velocity": 107}, {"time": 4710, "pitch": 60, "duration": 6, "velocity": 114}, {"time": 4710, "pitch": 65, "duration": 2, "velocity": 110}, {"time": 4722, "pitch": 41, "duration": 8, "velocity": 107}, {"time": 4722, "pitch": 53, "duration": 8, "velocity": 110}, {"time": 4722, "pitch": 57, "duration": 7, "velocity": 104}, {"time": 4722, "pitch": 60, "duration": 9, "velocity": 114}, {"time": 4722, "pitch": 65, "duration": 8, "velocity": 108}, {"time": 4758, "pitch": 46, "duration": 7, "velocity": 92}, {"time": 4758, "pitch": 58, "duration": 7, "velocity": 94}, {"time": 4758, "pitch": 62, "duration": 7, "velocity": 110}, {"time": 4758, "pitch": 65, "duration": 7, "velocity": 114}, {"time": 4758, "pitch": 70, "duration": 7, "velocity": 108}, {"time": 4782, "pitch": 43, "duration": 3, "velocity": 92}, {"time": 4782, "pitch": 55, "duration": 3, "velocity": 91}, {"time": 4782, "pitch": 62, "duration": 3, "velocity": 100}, {"time": 4782, "pitch": 67, "duration": 2, "velocity": 107}, {"time": 4782, "pitch": 70, "duration": 3, "velocity": 98}, {"time": 4788, "pitch": 43, "duration": 5, "velocity": 98}, {"time": 4788, "pitch": 55, "duration": 4, "velocity": 102}, {"time": 4788, "pitch": 62, "duration": 5, "velocity": 102}, {"time": 4788, "pitch": 67, "duration": 4, "velocity": 113}, {"time": 4788, "pitch": 70, "duration": 4, "velocity": 104}, {"time": 4806, "pitch": 39, "duration": 6, "velocity": 89}, {"time": 4806, "pitch": 51, "duration": 6, "velocity": 96}, {"time": 4806, "pitch": 63, "duration": 7, "velocity": 104}, {"time": 4806, "pitch": 67, "duration": 6, "velocity": 116}, {"time": 4806, "pitch": 70, "duration": 6, "velocity": 108}, {"time": 4830, "pitch": 41, "duration": 6, "velocity": 98}, {"time": 4830, "pitch": 53, "duration": 6, "velocity": 108}, {"time": 4830, "pitch": 60, "duration": 6, "velocity": 110}, {"time": 4830, "pitch": 65, "duration": 6, "velocity": 114}, {"time": 4830, "pitch": 69, "duration": 6, "velocity": 102}, {"time": 4866, "pitch": 62, "duration": 15, "velocity": 102}, {"time": 4866, "pitch": 65, "duration": 19, "velocity": 104}, {"time": 4866, "pitch": 70, "duration": 15, "velocity": 98}, {"time": 4869, "pitch": 46, "duration": 5, "velocity": 104}, {"time": 4878, "pitch": 55, "duration": 14, "velocity": 117}, {"time": 4890, "pitch": 62, "duration": 13, "velocity": 110}, {"time": 4890, "pitch": 67, "duration": 13, "velocity": 114}, {"time": 4890, "pitch": 70, "duration": 13, "velocity": 104}, {"time": 4896, "pitch": 55, "duration": 6, "velocity": 114}, {"time": 4902, "pitch": 51, "duration": 12, "velocity": 114}, {"time": 4914, "pitch": 63, "duration": 14, "velocity": 108}, {"time": 4914, "pitch": 67, "duration": 14, "velocity": 116}, {"time": 4914, "pitch": 70, "duration": 13, "velocity": 100}, {"time": 4920, "pitch": 51, "duration": 6, "velocity": 113}, {"time": 4926, "pitch": 53, "duration": 12, "velocity": 117}, {"time": 4938, "pitch": 60, "duration": 6, "velocity": 108}, {"time": 4938, "pitch": 65, "duration": 8, "velocity": 113}, {"time": 4938, "pitch": 69, "duration": 7, "velocity": 96}, {"time": 4944, "pitch": 53, "duration": 4, "velocity": 114}, {"time": 4950, "pitch": 50, "duration": 12, "velocity": 107}, {"time": 4962, "pitch": 62, "duration": 15, "velocity": 93}, {"time": 4962, "pitch": 65, "duration": 15, "velocity": 107}, {"time": 4962, "pitch": 69, "duration": 14, "velocity": 91}, {"time": 4968, "pitch": 50, "duration": 6, "velocity": 102}, {"time": 4974, "pitch": 55, "duration": 14, "velocity": 110}, {"time": 4986, "pitch": 58, "duration": 12, "velocity": 91}, {"time": 4986, "pitch": 62, "duration": 14, "velocity": 96}, {"time": 4986, "pitch": 67, "duration": 13, "velocity": 92}, {"time": 4992, "pitch": 55, "duration": 6, "velocity": 104}, {"time": 4998, "pitch": 48, "duration": 12, "velocity": 100}, {"time": 5010, "pitch": 60, "duration": 14, "velocity": 96}, {"time": 5010, "pitch": 63, "duration": 14, "velocity": 108}, {"time": 5010, "pitch": 67, "duration": 13, "velocity": 100}, {"time": 5016, "pitch": 48, "duration": 6, "velocity": 93}, {"time": 5022, "pitch": 53, "duration": 13, "velocity": 107}, {"time": 5034, "pitch": 60, "duration": 12, "velocity": 102}, {"time": 5034, "pitch": 65, "duration": 13, "velocity": 110}, {"time": 5034, "pitch": 69, "duration": 13, "velocity": 104}, {"time": 5040, "pitch": 53, "duration": 6, "velocity": 108}, {"time": 5058, "pitch": 50, "duration": 12, "velocity": 107}, {"time": 5070, "pitch": 62, "duration": 15, "velocity": 93}, {"time": 5070, "pitch": 65, "duration": 15, "velocity": 107}, {"time": 5070, "pitch": 69, "duration": 14, "velocity": 91}, {"time": 5076, "pitch": 50, "duration": 6, "velocity": 102}, {"time": 5082, "pitch": 55, "duration": 14, "velocity": 110}, {"time": 5094, "pitch": 58, "duration": 12, "velocity": 91}, {"time": 5094, "pitch": 62, "duration": 14, "velocity": 96}, {"time": 5094, "pitch": 67, "duration": 13, "velocity": 92}, {"time": 5100, "pitch": 55, "duration": 6, "velocity": 104}, {"time": 5106, "pitch": 48, "duration": 12, "velocity": 100}, {"time": 5118, "pitch": 60, "duration": 14, "velocity": 96}, {"time": 5118, "pitch": 63, "duration": 14, "velocity": 108}, {"time": 5118, "pitch": 67, "duration": 13, "velocity": 100}, {"time": 5124, "pitch": 48, "duration": 6, "velocity": 93}, {"time": 5130, "pitch": 53, "duration": 13, "velocity": 107}, {"time": 5142, "pitch": 60, "duration": 12, "velocity": 102}, {"time": 5142, "pitch": 65, "duration": 13, "velocity": 110}, {"time": 5142, "pitch": 69, "duration": 13, "velocity": 104}, {"time": 5148, "pitch": 53, "duration": 6, "velocity": 108}, {"time": 5166, "pitch": 50, "duration": 12, "velocity": 107}, {"time": 5178, "pitch": 62, "duration": 15, "velocity": 93}, {"time": 5178, "pitch": 65, "duration": 15, "velocity": 107}, {"time": 5178, "pitch": 69, "duration": 14, "velocity": 91}, {"time": 5184, "pitch": 50, "duration": 6, "velocity": 102}, {"time": 5190, "pitch": 55, "duration": 14, "velocity": 110}, {"time": 5202, "pitch": 58, "duration": 12, "velocity": 91}, {"time": 5202, "pitch": 62, "duration": 14, "velocity": 96}, {"time": 5202, "pitch": 67, "duration": 13, "velocity": 92}, {"time": 5208, "pitch": 55, "duration": 6, "velocity": 104}, {"time": 5214, "pitch": 48, "duration": 12, "velocity": 100}, {"time": 5226, "pitch": 60, "duration": 14, "velocity": 96}, {"time": 5226, "pitch": 63, "duration": 14, "velocity": 108}, {"time": 5226, "pitch": 67, "duration": 13, "velocity": 100}, {"time": 5232, "pitch": 48, "duration": 6, "velocity": 93}, {"time": 5238, "pitch": 53, "duration": 13, "velocity": 107}, {"time": 5250, "pitch": 60, "duration": 12, "velocity": 102}, {"time": 5250, "pitch": 65, "duration": 13, "velocity": 110}, {"time": 5250, "pitch": 69, "duration": 13, "velocity": 104}, {"time": 5256, "pitch": 53, "duration": 6, "velocity": 108}, {"time": 5262, "pitch": 50, "duration": 12, "velocity": 107}, {"time": 5274, "pitch": 62, "duration": 15, "velocity": 93}, {"time": 5274, "pitch": 65, "duration": 15, "velocity": 107}, {"time": 5274, "pitch": 69, "duration": 14, "velocity": 91}, {"time": 5280, "pitch": 50, "duration": 6, "velocity": 102}, {"time": 5286, "pitch": 55, "duration": 14, "velocity": 110}, {"time": 5298, "pitch": 58, "duration": 12, "velocity": 91}, {"time": 5298, "pitch": 62, "duration": 14, "velocity": 96}, {"time": 5298, "pitch": 67, "duration": 13, "velocity": 92}, {"time": 5304, "pitch": 55, "duration": 6, "velocity": 104}, {"time": 5310, "pitch": 48, "duration": 12, "velocity": 100}, {"time": 5322, "pitch": 60, "duration": 14, "velocity": 96}, {"time": 5322, "pitch": 63, "duration": 14, "velocity": 108}, {"time": 5322, "pitch": 67, "duration": 13, "velocity": 100}, {"time": 5328, "pitch": 48, "duration": 6, "velocity": 93}, {"time": 5334, "pitch": 53, "duration": 13, "velocity": 107}, {"time": 5346, "pitch": 60, "duration": 12, "velocity": 102}, {"time": 5346, "pitch": 65, "duration": 13, "velocity": 110}, {"time": 5346, "pitch": 69, "duration": 13, "velocity": 104}, {"time": 5352, "pitch": 53, "duration": 6, "velocity": 108}, {"time": 5358, "pitch": 50, "duration": 12, "velocity": 107}, {"time": 5370, "pitch": 62, "duration": 15, "velocity": 93}, {"time": 5370, "pitch": 65, "duration": 15, "velocity": 107}, {"time": 5370, "pitch": 69, "duration": 14, "velocity": 91}, {"time": 5376, "pitch": 50, "duration": 6, "velocity": 102}, {"time": 5382, "pitch": 55, "duration": 14, "velocity": 110}, {"time": 5394, "pitch": 58, "duration": 12, "velocity": 91}, {"time": 5394, "pitch": 62, "duration": 14, "velocity": 96}, {"time": 5394, "pitch": 67, "duration": 13, "velocity": 92}, {"time": 5400, "pitch": 55, "duration": 6, "velocity": 104}, {"time": 5406, "pitch": 48, "duration": 12, "velocity": 100}, {"time": 5418, "pitch": 60, "duration": 14, "velocity": 96}, {"time": 5418, "pitch": 63, "duration": 14, "velocity": 108}, {"time": 5418, "pitch": 67, "duration": 13, "velocity": 100}, {"time": 5424, "pitch": 48, "duration": 6, "velocity": 93}, {"time": 5430, "pitch": 53, "duration": 13, "velocity": 107}, {"time": 5442, "pitch": 60, "duration": 12, "velocity": 102}, {"time": 5442, "pitch": 65, "duration": 13, "velocity": 110}, {"time": 5442, "pitch": 69, "duration": 13, "velocity": 104}, {"time": 5448, "pitch": 53, "duration": 6, "velocity": 108}, {"time": 5454, "pitch": 50, "duration": 12, "velocity": 107}, {"time": 5466, "pitch": 62, "duration": 15, "velocity": 93}, {"time": 5466, "pitch": 65, "duration": 15, "velocity": 107}, {"time": 5466, "pitch": 69, "duration": 14, "velocity": 91}, {"time": 5472, "pitch": 50, "duration": 6, "velocity": 102}, {"time": 5478, "pitch": 55, "duration": 14, "velocity": 110}, {"time": 5490, "pitch": 58, "duration": 12, "velocity": 91}, {"time": 5490, "pitch": 62, "duration": 14, "velocity": 96}, {"time": 5490, "pitch": 67, "duration": 13, "velocity": 92}, {"time": 5496, "pitch": 55, "duration": 6, "velocity": 104}, {"time": 5502, "pitch": 48, "duration": 12, "velocity": 100}, {"time": 5514, "pitch": 60, "duration": 14, "velocity": 96}, {"time": 5514, "pitch": 63, "duration": 14, "velocity": 108}, {"time": 5514, "pitch": 67, "duration": 13, "velocity": 100}, {"time": 5520, "pitch": 48, "duration": 6, "velocity": 93}, {"time": 5595, "pitch": 62, "duration": 2, "velocity": 89}, {"time": 5595, "pitch": 65, "duration": 2, "velocity": 91}, {"time": 5595, "pitch": 70, "duration": 2, "velocity": 86}, {"time": 5598, "pitch": 62, "duration": 2, "velocity": 91}, {"time": 5598, "pitch": 65, "duration": 2, "velocity": 104}, {"time": 5598, "pitch": 70, "duration": 2, "velocity": 93}, {"time": 5601, "pitch": 62, "duration": 79, "velocity": 110}, {"time": 5601, "pitch": 65, "duration": 79, "velocity": 116}, {"time": 5601, "pitch": 70, "duration": 80, "velocity": 107}]}]}