{"metadata": {"schema_version": "0.2", "title": "None", "source_filename": "311.mid", "source_format": "midi"}, "resolution": 12, "tempos": [{"time": 0, "qpm": 64.0}], "time_signatures": [{"time": 0, "numerator": 4, "denominator": 4}], "tracks": [{"program": 0, "is_drum": false, "name": "MELODY", "notes": [{"time": 278, "pitch": 71, "duration": 4, "velocity": 116}, {"time": 282, "pitch": 73, "duration": 44, "velocity": 114}, {"time": 326, "pitch": 71, "duration": 4, "velocity": 116}, {"time": 330, "pitch": 73, "duration": 4, "velocity": 96}, {"time": 334, "pitch": 73, "duration": 4, "velocity": 104}, {"time": 338, "pitch": 78, "duration": 4, "velocity": 114}, {"time": 342, "pitch": 78, "duration": 4, "velocity": 113}, {"time": 346, "pitch": 73, "duration": 4, "velocity": 107}, {"time": 350, "pitch": 73, "duration": 24, "velocity": 113}, {"time": 374, "pitch": 71, "duration": 4, "velocity": 114}, {"time": 378, "pitch": 71, "duration": 4, "velocity": 108}, {"time": 382, "pitch": 69, "duration": 4, "velocity": 107}, {"time": 386, "pitch": 71, "duration": 12, "velocity": 116}, {"time": 398, "pitch": 75, "duration": 4, "velocity": 119}, {"time": 402, "pitch": 75, "duration": 4, "velocity": 113}, {"time": 406, "pitch": 73, "duration": 4, "velocity": 113}, {"time": 410, "pitch": 71, "duration": 8, "velocity": 116}, {"time": 418, "pitch": 75, "duration": 4, "velocity": 119}, {"time": 422, "pitch": 73, "duration": 44, "velocity": 116}, {"time": 466, "pitch": 71, "duration": 4, "velocity": 107}, {"time": 470, "pitch": 73, "duration": 4, "velocity": 114}, {"time": 474, "pitch": 73, "duration": 32, "velocity": 113}, {"time": 506, "pitch": 71, "duration": 4, "velocity": 104}, {"time": 510, "pitch": 73, "duration": 4, "velocity": 107}, {"time": 514, "pitch": 78, "duration": 8, "velocity": 113}, {"time": 522, "pitch": 71, "duration": 4, "velocity": 98}, {"time": 526, "pitch": 71, "duration": 36, "velocity": 110}, {"time": 562, "pitch": 71, "duration": 4, "velocity": 107}, {"time": 566, "pitch": 73, "duration": 12, "velocity": 113}, {"time": 578, "pitch": 73, "duration": 12, "velocity": 116}, {"time": 590, "pitch": 77, "duration": 12, "velocity": 119}, {"time": 602, "pitch": 77, "duration": 4, "velocity": 119}, {"time": 606, "pitch": 77, "duration": 4, "velocity": 116}, {"time": 610, "pitch": 77, "duration": 4, "velocity": 113}, {"time": 614, "pitch": 78, "duration": 48, "velocity": 119}, {"time": 662, "pitch": 81, "duration": 4, "velocity": 116}, {"time": 666, "pitch": 80, "duration": 4, "velocity": 113}, {"time": 670, "pitch": 78, "duration": 4, "velocity": 114}, {"time": 674, "pitch": 78, "duration": 8, "velocity": 119}, {"time": 682, "pitch": 81, "duration": 16, "velocity": 119}, {"time": 698, "pitch": 81, "duration": 4, "velocity": 117}, {"time": 702, "pitch": 80, "duration": 4, "velocity": 113}, {"time": 706, "pitch": 78, "duration": 4, "velocity": 114}, {"time": 710, "pitch": 78, "duration": 4, "velocity": 114}, {"time": 714, "pitch": 73, "duration": 40, "velocity": 117}, {"time": 754, "pitch": 73, "duration": 4, "velocity": 114}, {"time": 758, "pitch": 81, "duration": 4, "velocity": 116}, {"time": 762, "pitch": 80, "duration": 4, "velocity": 110}, {"time": 766, "pitch": 78, "duration": 4, "velocity": 113}, {"time": 770, "pitch": 81, "duration": 24, "velocity": 117}, {"time": 794, "pitch": 81, "duration": 4, "velocity": 116}, {"time": 798, "pitch": 80, "duration": 4, "velocity": 113}, {"time": 802, "pitch": 78, "duration": 4, "velocity": 113}, {"time": 806, "pitch": 80, "duration": 4, "velocity": 116}, {"time": 810, "pitch": 73, "duration": 4, "velocity": 110}, {"time": 814, "pitch": 73, "duration": 36, "velocity": 117}, {"time": 850, "pitch": 66, "duration": 4, "velocity": 114}, {"time": 854, "pitch": 75, "duration": 12, "velocity": 119}, {"time": 866, "pitch": 75, "duration": 8, "velocity": 119}, {"time": 874, "pitch": 71, "duration": 4, "velocity": 110}, {"time": 878, "pitch": 75, "duration": 12, "velocity": 116}, {"time": 890, "pitch": 75, "duration": 4, "velocity": 123}, {"time": 894, "pitch": 75, "duration": 4, "velocity": 116}, {"time": 898, "pitch": 76, "duration": 4, "velocity": 102}, {"time": 902, "pitch": 75, "duration": 4, "velocity": 116}, {"time": 906, "pitch": 73, "duration": 40, "velocity": 114}, {"time": 946, "pitch": 66, "duration": 4, "velocity": 108}, {"time": 950, "pitch": 75, "duration": 12, "velocity": 119}, {"time": 962, "pitch": 75, "duration": 8, "velocity": 116}, {"time": 970, "pitch": 71, "duration": 4, "velocity": 110}, {"time": 974, "pitch": 75, "duration": 12, "velocity": 119}, {"time": 986, "pitch": 75, "duration": 4, "velocity": 123}, {"time": 990, "pitch": 75, "duration": 4, "velocity": 104}, {"time": 994, "pitch": 76, "duration": 4, "velocity": 113}, {"time": 998, "pitch": 78, "duration": 4, "velocity": 116}, {"time": 1002, "pitch": 78, "duration": 5, "velocity": 117}, {"time": 1006, "pitch": 76, "duration": 4, "velocity": 113}, {"time": 1010, "pitch": 73, "duration": 32, "velocity": 114}, {"time": 1042, "pitch": 78, "duration": 4, "velocity": 117}, {"time": 1046, "pitch": 83, "duration": 12, "velocity": 119}, {"time": 1058, "pitch": 83, "duration": 8, "velocity": 119}, {"time": 1066, "pitch": 78, "duration": 4, "velocity": 117}, {"time": 1070, "pitch": 83, "duration": 4, "velocity": 120}, {"time": 1074, "pitch": 83, "duration": 4, "velocity": 113}, {"time": 1078, "pitch": 85, "duration": 4, "velocity": 116}, {"time": 1082, "pitch": 85, "duration": 8, "velocity": 120}, {"time": 1090, "pitch": 83, "duration": 4, "velocity": 117}, {"time": 1094, "pitch": 85, "duration": 24, "velocity": 117}, {"time": 1118, "pitch": 80, "duration": 4, "velocity": 120}, {"time": 1122, "pitch": 80, "duration": 4, "velocity": 110}, {"time": 1126, "pitch": 80, "duration": 4, "velocity": 114}, {"time": 1130, "pitch": 80, "duration": 8, "velocity": 119}, {"time": 1138, "pitch": 76, "duration": 4, "velocity": 117}, {"time": 1142, "pitch": 78, "duration": 24, "velocity": 116}, {"time": 1166, "pitch": 76, "duration": 4, "velocity": 116}, {"time": 1170, "pitch": 76, "duration": 4, "velocity": 114}, {"time": 1174, "pitch": 76, "duration": 4, "velocity": 113}, {"time": 1178, "pitch": 76, "duration": 12, "velocity": 117}, {"time": 1190, "pitch": 83, "duration": 4, "velocity": 120}, {"time": 1194, "pitch": 83, "duration": 4, "velocity": 120}, {"time": 1198, "pitch": 83, "duration": 4, "velocity": 119}, {"time": 1202, "pitch": 83, "duration": 8, "velocity": 123}, {"time": 1210, "pitch": 80, "duration": 4, "velocity": 114}, {"time": 1214, "pitch": 78, "duration": 48, "velocity": 119}, {"time": 1262, "pitch": 81, "duration": 4, "velocity": 120}, {"time": 1266, "pitch": 81, "duration": 4, "velocity": 119}, {"time": 1270, "pitch": 81, "duration": 4, "velocity": 116}, {"time": 1274, "pitch": 81, "duration": 8, "velocity": 117}, {"time": 1282, "pitch": 81, "duration": 4, "velocity": 117}, {"time": 1286, "pitch": 81, "duration": 4, "velocity": 119}, {"time": 1290, "pitch": 80, "duration": 4, "velocity": 116}, {"time": 1294, "pitch": 78, "duration": 4, "velocity": 117}, {"time": 1298, "pitch": 81, "duration": 12, "velocity": 119}, {"time": 1310, "pitch": 83, "duration": 4, "velocity": 119}, {"time": 1314, "pitch": 83, "duration": 4, "velocity": 117}, {"time": 1318, "pitch": 78, "duration": 4, "velocity": 116}, {"time": 1322, "pitch": 83, "duration": 4, "velocity": 119}, {"time": 1326, "pitch": 83, "duration": 4, "velocity": 120}, {"time": 1330, "pitch": 78, "duration": 4, "velocity": 116}, {"time": 1334, "pitch": 83, "duration": 4, "velocity": 119}, {"time": 1338, "pitch": 83, "duration": 4, "velocity": 116}, {"time": 1342, "pitch": 85, "duration": 4, "velocity": 108}, {"time": 1346, "pitch": 83, "duration": 12, "velocity": 114}, {"time": 1358, "pitch": 80, "duration": 4, "velocity": 117}, {"time": 1362, "pitch": 80, "duration": 4, "velocity": 116}, {"time": 1366, "pitch": 78, "duration": 4, "velocity": 114}, {"time": 1370, "pitch": 80, "duration": 8, "velocity": 117}, {"time": 1378, "pitch": 80, "duration": 4, "velocity": 116}, {"time": 1382, "pitch": 76, "duration": 4, "velocity": 116}, {"time": 1386, "pitch": 78, "duration": 4, "velocity": 114}, {"time": 1390, "pitch": 80, "duration": 4, "velocity": 114}, {"time": 1394, "pitch": 73, "duration": 12, "velocity": 117}, {"time": 1406, "pitch": 76, "duration": 4, "velocity": 119}, {"time": 1410, "pitch": 76, "duration": 4, "velocity": 116}, {"time": 1414, "pitch": 78, "duration": 4, "velocity": 116}, {"time": 1418, "pitch": 80, "duration": 4, "velocity": 120}, {"time": 1422, "pitch": 80, "duration": 4, "velocity": 117}, {"time": 1426, "pitch": 81, "duration": 4, "velocity": 114}, {"time": 1430, "pitch": 80, "duration": 24, "velocity": 119}, {"time": 1454, "pitch": 81, "duration": 4, "velocity": 117}, {"time": 1458, "pitch": 81, "duration": 4, "velocity": 113}, {"time": 1462, "pitch": 81, "duration": 4, "velocity": 113}, {"time": 1466, "pitch": 81, "duration": 4, "velocity": 117}, {"time": 1470, "pitch": 80, "duration": 4, "velocity": 113}, {"time": 1474, "pitch": 78, "duration": 4, "velocity": 113}, {"time": 1478, "pitch": 81, "duration": 8, "velocity": 117}, {"time": 1486, "pitch": 78, "duration": 4, "velocity": 110}, {"time": 1490, "pitch": 81, "duration": 12, "velocity": 110}, {"time": 1502, "pitch": 83, "duration": 4, "velocity": 119}, {"time": 1506, "pitch": 83, "duration": 4, "velocity": 117}, {"time": 1510, "pitch": 78, "duration": 4, "velocity": 116}, {"time": 1514, "pitch": 83, "duration": 4, "velocity": 119}, {"time": 1518, "pitch": 83, "duration": 4, "velocity": 120}, {"time": 1522, "pitch": 78, "duration": 4, "velocity": 116}, {"time": 1526, "pitch": 83, "duration": 4, "velocity": 119}, {"time": 1530, "pitch": 83, "duration": 4, "velocity": 116}, {"time": 1534, "pitch": 85, "duration": 4, "velocity": 108}, {"time": 1538, "pitch": 83, "duration": 12, "velocity": 114}, {"time": 1550, "pitch": 80, "duration": 4, "velocity": 117}, {"time": 1554, "pitch": 80, "duration": 4, "velocity": 116}, {"time": 1558, "pitch": 78, "duration": 4, "velocity": 114}, {"time": 1562, "pitch": 80, "duration": 8, "velocity": 117}, {"time": 1570, "pitch": 80, "duration": 4, "velocity": 116}, {"time": 1574, "pitch": 76, "duration": 4, "velocity": 116}, {"time": 1578, "pitch": 78, "duration": 4, "velocity": 114}, {"time": 1582, "pitch": 80, "duration": 4, "velocity": 114}, {"time": 1586, "pitch": 73, "duration": 12, "velocity": 117}, {"time": 1598, "pitch": 76, "duration": 4, "velocity": 119}, {"time": 1602, "pitch": 76, "duration": 4, "velocity": 116}, {"time": 1606, "pitch": 78, "duration": 4, "velocity": 116}, {"time": 1610, "pitch": 80, "duration": 4, "velocity": 120}, {"time": 1614, "pitch": 81, "duration": 8, "velocity": 117}, {"time": 1622, "pitch": 80, "duration": 8, "velocity": 119}, {"time": 1910, "pitch": 81, "duration": 4, "velocity": 116}, {"time": 1914, "pitch": 80, "duration": 4, "velocity": 113}, {"time": 1918, "pitch": 78, "duration": 4, "velocity": 114}, {"time": 1922, "pitch": 78, "duration": 8, "velocity": 119}, {"time": 1930, "pitch": 81, "duration": 16, "velocity": 119}, {"time": 1946, "pitch": 81, "duration": 4, "velocity": 117}, {"time": 1950, "pitch": 80, "duration": 4, "velocity": 113}, {"time": 1954, "pitch": 78, "duration": 4, "velocity": 114}, {"time": 1958, "pitch": 78, "duration": 4, "velocity": 114}, {"time": 1962, "pitch": 73, "duration": 40, "velocity": 117}, {"time": 2002, "pitch": 73, "duration": 4, "velocity": 114}, {"time": 2006, "pitch": 81, "duration": 4, "velocity": 116}, {"time": 2010, "pitch": 80, "duration": 4, "velocity": 110}, {"time": 2014, "pitch": 78, "duration": 4, "velocity": 113}, {"time": 2018, "pitch": 81, "duration": 24, "velocity": 117}, {"time": 2042, "pitch": 81, "duration": 4, "velocity": 116}, {"time": 2046, "pitch": 80, "duration": 4, "velocity": 113}, {"time": 2050, "pitch": 78, "duration": 4, "velocity": 113}, {"time": 2054, "pitch": 80, "duration": 4, "velocity": 116}, {"time": 2058, "pitch": 73, "duration": 4, "velocity": 110}, {"time": 2062, "pitch": 73, "duration": 36, "velocity": 117}, {"time": 2098, "pitch": 66, "duration": 4, "velocity": 114}, {"time": 2102, "pitch": 75, "duration": 12, "velocity": 119}, {"time": 2114, "pitch": 75, "duration": 8, "velocity": 119}, {"time": 2122, "pitch": 71, "duration": 4, "velocity": 110}, {"time": 2126, "pitch": 75, "duration": 12, "velocity": 116}, {"time": 2138, "pitch": 75, "duration": 4, "velocity": 123}, {"time": 2142, "pitch": 75, "duration": 4, "velocity": 116}, {"time": 2146, "pitch": 76, "duration": 4, "velocity": 102}, {"time": 2150, "pitch": 75, "duration": 4, "velocity": 116}, {"time": 2154, "pitch": 73, "duration": 40, "velocity": 114}, {"time": 2194, "pitch": 66, "duration": 4, "velocity": 108}, {"time": 2198, "pitch": 75, "duration": 12, "velocity": 119}, {"time": 2210, "pitch": 75, "duration": 8, "velocity": 116}, {"time": 2218, "pitch": 71, "duration": 4, "velocity": 110}, {"time": 2222, "pitch": 75, "duration": 12, "velocity": 119}, {"time": 2234, "pitch": 75, "duration": 4, "velocity": 123}, {"time": 2238, "pitch": 75, "duration": 4, "velocity": 104}, {"time": 2242, "pitch": 76, "duration": 4, "velocity": 113}, {"time": 2246, "pitch": 78, "duration": 4, "velocity": 116}, {"time": 2250, "pitch": 78, "duration": 5, "velocity": 117}, {"time": 2254, "pitch": 76, "duration": 4, "velocity": 113}, {"time": 2258, "pitch": 73, "duration": 32, "velocity": 114}, {"time": 2290, "pitch": 78, "duration": 4, "velocity": 117}, {"time": 2294, "pitch": 83, "duration": 12, "velocity": 119}, {"time": 2306, "pitch": 83, "duration": 8, "velocity": 119}, {"time": 2314, "pitch": 78, "duration": 4, "velocity": 117}, {"time": 2318, "pitch": 83, "duration": 4, "velocity": 120}, {"time": 2322, "pitch": 83, "duration": 4, "velocity": 113}, {"time": 2326, "pitch": 85, "duration": 4, "velocity": 116}, {"time": 2330, "pitch": 85, "duration": 8, "velocity": 120}, {"time": 2338, "pitch": 83, "duration": 4, "velocity": 117}, {"time": 2342, "pitch": 85, "duration": 24, "velocity": 117}, {"time": 2366, "pitch": 80, "duration": 4, "velocity": 120}, {"time": 2370, "pitch": 80, "duration": 4, "velocity": 110}, {"time": 2374, "pitch": 80, "duration": 4, "velocity": 114}, {"time": 2378, "pitch": 80, "duration": 8, "velocity": 119}, {"time": 2386, "pitch": 76, "duration": 4, "velocity": 117}, {"time": 2390, "pitch": 78, "duration": 24, "velocity": 116}, {"time": 2414, "pitch": 76, "duration": 4, "velocity": 116}, {"time": 2418, "pitch": 76, "duration": 4, "velocity": 114}, {"time": 2422, "pitch": 76, "duration": 4, "velocity": 113}, {"time": 2426, "pitch": 76, "duration": 12, "velocity": 117}, {"time": 2438, "pitch": 83, "duration": 4, "velocity": 120}, {"time": 2442, "pitch": 83, "duration": 4, "velocity": 120}, {"time": 2446, "pitch": 83, "duration": 4, "velocity": 119}, {"time": 2450, "pitch": 83, "duration": 8, "velocity": 123}, {"time": 2458, "pitch": 80, "duration": 4, "velocity": 114}, {"time": 2462, "pitch": 78, "duration": 48, "velocity": 119}, {"time": 2510, "pitch": 81, "duration": 4, "velocity": 120}, {"time": 2514, "pitch": 81, "duration": 4, "velocity": 119}, {"time": 2518, "pitch": 81, "duration": 4, "velocity": 116}, {"time": 2522, "pitch": 81, "duration": 8, "velocity": 117}, {"time": 2530, "pitch": 81, "duration": 4, "velocity": 117}, {"time": 2534, "pitch": 81, "duration": 4, "velocity": 119}, {"time": 2538, "pitch": 80, "duration": 4, "velocity": 116}, {"time": 2542, "pitch": 78, "duration": 4, "velocity": 117}, {"time": 2546, "pitch": 81, "duration": 12, "velocity": 119}, {"time": 2558, "pitch": 83, "duration": 4, "velocity": 119}, {"time": 2562, "pitch": 83, "duration": 4, "velocity": 117}, {"time": 2566, "pitch": 78, "duration": 4, "velocity": 116}, {"time": 2570, "pitch": 83, "duration": 4, "velocity": 119}, {"time": 2574, "pitch": 83, "duration": 4, "velocity": 120}, {"time": 2578, "pitch": 78, "duration": 4, "velocity": 116}, {"time": 2582, "pitch": 83, "duration": 4, "velocity": 119}, {"time": 2586, "pitch": 83, "duration": 4, "velocity": 116}, {"time": 2590, "pitch": 85, "duration": 4, "velocity": 108}, {"time": 2594, "pitch": 83, "duration": 12, "velocity": 114}, {"time": 2606, "pitch": 80, "duration": 4, "velocity": 117}, {"time": 2610, "pitch": 80, "duration": 4, "velocity": 116}, {"time": 2614, "pitch": 78, "duration": 4, "velocity": 114}, {"time": 2618, "pitch": 80, "duration": 8, "velocity": 117}, {"time": 2626, "pitch": 80, "duration": 4, "velocity": 116}, {"time": 2630, "pitch": 76, "duration": 4, "velocity": 116}, {"time": 2634, "pitch": 78, "duration": 4, "velocity": 114}, {"time": 2638, "pitch": 80, "duration": 4, "velocity": 114}, {"time": 2642, "pitch": 73, "duration": 12, "velocity": 117}, {"time": 2654, "pitch": 76, "duration": 4, "velocity": 119}, {"time": 2658, "pitch": 76, "duration": 4, "velocity": 116}, {"time": 2662, "pitch": 78, "duration": 4, "velocity": 116}, {"time": 2666, "pitch": 80, "duration": 4, "velocity": 120}, {"time": 2670, "pitch": 80, "duration": 4, "velocity": 117}, {"time": 2674, "pitch": 81, "duration": 4, "velocity": 114}, {"time": 2678, "pitch": 80, "duration": 24, "velocity": 119}, {"time": 2702, "pitch": 81, "duration": 4, "velocity": 117}, {"time": 2706, "pitch": 81, "duration": 4, "velocity": 113}, {"time": 2710, "pitch": 81, "duration": 4, "velocity": 113}, {"time": 2714, "pitch": 81, "duration": 4, "velocity": 117}, {"time": 2718, "pitch": 80, "duration": 4, "velocity": 113}, {"time": 2722, "pitch": 78, "duration": 4, "velocity": 113}, {"time": 2726, "pitch": 81, "duration": 8, "velocity": 117}, {"time": 2734, "pitch": 78, "duration": 4, "velocity": 110}, {"time": 2738, "pitch": 81, "duration": 12, "velocity": 110}, {"time": 2750, "pitch": 83, "duration": 4, "velocity": 119}, {"time": 2754, "pitch": 83, "duration": 4, "velocity": 117}, {"time": 2758, "pitch": 78, "duration": 4, "velocity": 116}, {"time": 2762, "pitch": 83, "duration": 4, "velocity": 119}, {"time": 2766, "pitch": 83, "duration": 4, "velocity": 120}, {"time": 2770, "pitch": 78, "duration": 4, "velocity": 116}, {"time": 2774, "pitch": 83, "duration": 4, "velocity": 119}, {"time": 2778, "pitch": 83, "duration": 4, "velocity": 116}, {"time": 2782, "pitch": 85, "duration": 4, "velocity": 108}, {"time": 2786, "pitch": 83, "duration": 12, "velocity": 114}, {"time": 2798, "pitch": 80, "duration": 4, "velocity": 117}, {"time": 2802, "pitch": 80, "duration": 4, "velocity": 116}, {"time": 2806, "pitch": 78, "duration": 4, "velocity": 114}, {"time": 2810, "pitch": 80, "duration": 8, "velocity": 117}, {"time": 2818, "pitch": 80, "duration": 4, "velocity": 116}, {"time": 2822, "pitch": 76, "duration": 4, "velocity": 116}, {"time": 2826, "pitch": 78, "duration": 4, "velocity": 114}, {"time": 2830, "pitch": 80, "duration": 4, "velocity": 114}, {"time": 2834, "pitch": 73, "duration": 12, "velocity": 117}, {"time": 2846, "pitch": 76, "duration": 4, "velocity": 119}, {"time": 2850, "pitch": 76, "duration": 4, "velocity": 116}, {"time": 2854, "pitch": 78, "duration": 4, "velocity": 116}, {"time": 2858, "pitch": 80, "duration": 4, "velocity": 120}, {"time": 2862, "pitch": 81, "duration": 8, "velocity": 117}, {"time": 2870, "pitch": 80, "duration": 9, "velocity": 119}, {"time": 2894, "pitch": 81, "duration": 4, "velocity": 120}, {"time": 2898, "pitch": 81, "duration": 4, "velocity": 119}, {"time": 2902, "pitch": 81, "duration": 4, "velocity": 116}, {"time": 2906, "pitch": 81, "duration": 8, "velocity": 117}, {"time": 2914, "pitch": 81, "duration": 4, "velocity": 117}, {"time": 2918, "pitch": 81, "duration": 4, "velocity": 119}, {"time": 2922, "pitch": 80, "duration": 4, "velocity": 116}, {"time": 2926, "pitch": 78, "duration": 4, "velocity": 117}, {"time": 2930, "pitch": 81, "duration": 12, "velocity": 119}, {"time": 2942, "pitch": 83, "duration": 4, "velocity": 119}, {"time": 2946, "pitch": 83, "duration": 4, "velocity": 117}, {"time": 2950, "pitch": 78, "duration": 4, "velocity": 116}, {"time": 2954, "pitch": 83, "duration": 4, "velocity": 119}, {"time": 2958, "pitch": 83, "duration": 4, "velocity": 120}, {"time": 2962, "pitch": 78, "duration": 4, "velocity": 116}, {"time": 2966, "pitch": 83, "duration": 4, "velocity": 119}, {"time": 2970, "pitch": 83, "duration": 4, "velocity": 116}, {"time": 2974, "pitch": 85, "duration": 4, "velocity": 108}, {"time": 2978, "pitch": 83, "duration": 12, "velocity": 114}, {"time": 2990, "pitch": 80, "duration": 4, "velocity": 117}, {"time": 2994, "pitch": 80, "duration": 4, "velocity": 116}, {"time": 2998, "pitch": 78, "duration": 4, "velocity": 114}, {"time": 3002, "pitch": 80, "duration": 8, "velocity": 117}, {"time": 3010, "pitch": 80, "duration": 4, "velocity": 116}, {"time": 3014, "pitch": 76, "duration": 4, "velocity": 116}, {"time": 3018, "pitch": 78, "duration": 4, "velocity": 114}, {"time": 3022, "pitch": 80, "duration": 4, "velocity": 114}, {"time": 3026, "pitch": 73, "duration": 12, "velocity": 117}, {"time": 3038, "pitch": 76, "duration": 4, "velocity": 119}, {"time": 3042, "pitch": 76, "duration": 4, "velocity": 116}, {"time": 3046, "pitch": 78, "duration": 4, "velocity": 116}, {"time": 3050, "pitch": 80, "duration": 4, "velocity": 120}, {"time": 3054, "pitch": 80, "duration": 4, "velocity": 117}, {"time": 3058, "pitch": 81, "duration": 4, "velocity": 114}, {"time": 3062, "pitch": 80, "duration": 24, "velocity": 119}, {"time": 3086, "pitch": 81, "duration": 4, "velocity": 117}, {"time": 3090, "pitch": 81, "duration": 4, "velocity": 113}, {"time": 3094, "pitch": 81, "duration": 4, "velocity": 113}, {"time": 3098, "pitch": 81, "duration": 4, "velocity": 117}, {"time": 3102, "pitch": 80, "duration": 4, "velocity": 113}, {"time": 3106, "pitch": 78, "duration": 4, "velocity": 113}, {"time": 3110, "pitch": 81, "duration": 8, "velocity": 117}, {"time": 3118, "pitch": 78, "duration": 4, "velocity": 110}, {"time": 3122, "pitch": 81, "duration": 12, "velocity": 110}, {"time": 3134, "pitch": 83, "duration": 4, "velocity": 119}, {"time": 3138, "pitch": 83, "duration": 4, "velocity": 117}, {"time": 3142, "pitch": 78, "duration": 4, "velocity": 116}, {"time": 3146, "pitch": 83, "duration": 4, "velocity": 119}, {"time": 3150, "pitch": 83, "duration": 4, "velocity": 120}, {"time": 3154, "pitch": 78, "duration": 4, "velocity": 116}, {"time": 3158, "pitch": 83, "duration": 4, "velocity": 119}, {"time": 3162, "pitch": 83, "duration": 4, "velocity": 116}, {"time": 3166, "pitch": 85, "duration": 4, "velocity": 108}, {"time": 3170, "pitch": 83, "duration": 12, "velocity": 114}, {"time": 3182, "pitch": 80, "duration": 4, "velocity": 117}, {"time": 3186, "pitch": 80, "duration": 4, "velocity": 116}, {"time": 3190, "pitch": 78, "duration": 4, "velocity": 114}, {"time": 3194, "pitch": 80, "duration": 8, "velocity": 117}, {"time": 3202, "pitch": 80, "duration": 4, "velocity": 116}, {"time": 3206, "pitch": 76, "duration": 4, "velocity": 116}, {"time": 3210, "pitch": 78, "duration": 4, "velocity": 114}, {"time": 3214, "pitch": 80, "duration": 4, "velocity": 114}, {"time": 3218, "pitch": 73, "duration": 12, "velocity": 117}, {"time": 3230, "pitch": 76, "duration": 4, "velocity": 119}, {"time": 3234, "pitch": 76, "duration": 4, "velocity": 116}, {"time": 3238, "pitch": 78, "duration": 4, "velocity": 116}, {"time": 3242, "pitch": 80, "duration": 4, "velocity": 120}, {"time": 3246, "pitch": 81, "duration": 8, "velocity": 117}, {"time": 3254, "pitch": 80, "duration": 9, "velocity": 119}, {"time": 3278, "pitch": 81, "duration": 4, "velocity": 117}, {"time": 3282, "pitch": 81, "duration": 4, "velocity": 113}, {"time": 3286, "pitch": 81, "duration": 4, "velocity": 113}, {"time": 3290, "pitch": 81, "duration": 8, "velocity": 117}, {"time": 3298, "pitch": 78, "duration": 4, "velocity": 113}, {"time": 3302, "pitch": 81, "duration": 4, "velocity": 117}, {"time": 3306, "pitch": 80, "duration": 4, "velocity": 117}, {"time": 3310, "pitch": 78, "duration": 4, "velocity": 110}, {"time": 3314, "pitch": 81, "duration": 12, "velocity": 110}, {"time": 3326, "pitch": 83, "duration": 4, "velocity": 119}, {"time": 3330, "pitch": 83, "duration": 4, "velocity": 117}, {"time": 3334, "pitch": 78, "duration": 4, "velocity": 116}, {"time": 3338, "pitch": 83, "duration": 4, "velocity": 119}, {"time": 3342, "pitch": 83, "duration": 4, "velocity": 120}, {"time": 3346, "pitch": 78, "duration": 4, "velocity": 116}, {"time": 3350, "pitch": 83, "duration": 4, "velocity": 119}, {"time": 3354, "pitch": 83, "duration": 4, "velocity": 116}, {"time": 3358, "pitch": 85, "duration": 4, "velocity": 108}, {"time": 3362, "pitch": 83, "duration": 12, "velocity": 114}, {"time": 3374, "pitch": 80, "duration": 4, "velocity": 117}, {"time": 3378, "pitch": 80, "duration": 4, "velocity": 116}, {"time": 3382, "pitch": 78, "duration": 4, "velocity": 114}, {"time": 3386, "pitch": 80, "duration": 8, "velocity": 117}, {"time": 3394, "pitch": 80, "duration": 4, "velocity": 116}, {"time": 3398, "pitch": 76, "duration": 4, "velocity": 116}, {"time": 3402, "pitch": 78, "duration": 4, "velocity": 114}, {"time": 3406, "pitch": 80, "duration": 4, "velocity": 114}, {"time": 3410, "pitch": 73, "duration": 12, "velocity": 117}, {"time": 3422, "pitch": 76, "duration": 4, "velocity": 119}, {"time": 3426, "pitch": 76, "duration": 4, "velocity": 116}, {"time": 3430, "pitch": 78, "duration": 4, "velocity": 116}, {"time": 3434, "pitch": 80, "duration": 4, "velocity": 120}, {"time": 3438, "pitch": 85, "duration": 44, "velocity": 117}, {"time": 3482, "pitch": 83, "duration": 4, "velocity": 108}, {"time": 3486, "pitch": 81, "duration": 4, "velocity": 107}, {"time": 3490, "pitch": 78, "duration": 12, "velocity": 107}]}, {"program": 0, "is_drum": false, "name": "BRIDGE", "notes": [{"time": 38, "pitch": 42, "duration": 16, "velocity": 91}, {"time": 42, "pitch": 66, "duration": 4, "velocity": 88}, {"time": 46, "pitch": 69, "duration": 4, "velocity": 92}, {"time": 50, "pitch": 73, "duration": 4, "velocity": 102}, {"time": 54, "pitch": 69, "duration": 4, "velocity": 93}, {"time": 58, "pitch": 66, "duration": 4, "velocity": 88}, {"time": 62, "pitch": 73, "duration": 24, "velocity": 107}, {"time": 86, "pitch": 41, "duration": 28, "velocity": 103}, {"time": 90, "pitch": 65, "duration": 4, "velocity": 97}, {"time": 94, "pitch": 68, "duration": 4, "velocity": 89}, {"time": 98, "pitch": 73, "duration": 4, "velocity": 88}, {"time": 102, "pitch": 68, "duration": 4, "velocity": 87}, {"time": 106, "pitch": 65, "duration": 4, "velocity": 86}, {"time": 110, "pitch": 73, "duration": 24, "velocity": 88}, {"time": 134, "pitch": 40, "duration": 26, "velocity": 93}, {"time": 138, "pitch": 64, "duration": 4, "velocity": 89}, {"time": 142, "pitch": 67, "duration": 4, "velocity": 106}, {"time": 146, "pitch": 73, "duration": 4, "velocity": 107}, {"time": 150, "pitch": 67, "duration": 4, "velocity": 113}, {"time": 154, "pitch": 64, "duration": 4, "velocity": 100}, {"time": 158, "pitch": 73, "duration": 24, "velocity": 110}, {"time": 182, "pitch": 39, "duration": 30, "velocity": 103}, {"time": 186, "pitch": 63, "duration": 4, "velocity": 97}, {"time": 190, "pitch": 66, "duration": 4, "velocity": 91}, {"time": 194, "pitch": 71, "duration": 4, "velocity": 90}, {"time": 198, "pitch": 66, "duration": 4, "velocity": 89}, {"time": 202, "pitch": 63, "duration": 4, "velocity": 88}, {"time": 206, "pitch": 71, "duration": 21, "velocity": 89}, {"time": 227, "pitch": 61, "duration": 26, "velocity": 71}, {"time": 228, "pitch": 65, "duration": 26, "velocity": 86}, {"time": 230, "pitch": 71, "duration": 24, "velocity": 94}, {"time": 230, "pitch": 37, "duration": 25, "velocity": 91}, {"time": 642, "pitch": 61, "duration": 3, "velocity": 84}, {"time": 646, "pitch": 66, "duration": 4, "velocity": 107}, {"time": 650, "pitch": 61, "duration": 3, "velocity": 100}, {"time": 654, "pitch": 66, "duration": 3, "velocity": 107}, {"time": 658, "pitch": 68, "duration": 3, "velocity": 107}, {"time": 662, "pitch": 69, "duration": 4, "velocity": 100}, {"time": 726, "pitch": 69, "duration": 4, "velocity": 107}, {"time": 728, "pitch": 68, "duration": 2, "velocity": 90}, {"time": 734, "pitch": 69, "duration": 3, "velocity": 88}, {"time": 738, "pitch": 66, "duration": 3, "velocity": 84}, {"time": 742, "pitch": 64, "duration": 3, "velocity": 98}, {"time": 746, "pitch": 66, "duration": 3, "velocity": 107}, {"time": 748, "pitch": 61, "duration": 4, "velocity": 88}, {"time": 754, "pitch": 59, "duration": 4, "velocity": 87}, {"time": 758, "pitch": 62, "duration": 4, "velocity": 92}, {"time": 830, "pitch": 68, "duration": 4, "velocity": 83}, {"time": 834, "pitch": 66, "duration": 4, "velocity": 84}, {"time": 838, "pitch": 64, "duration": 4, "velocity": 83}, {"time": 842, "pitch": 66, "duration": 4, "velocity": 88}, {"time": 846, "pitch": 63, "duration": 3, "velocity": 86}, {"time": 848, "pitch": 61, "duration": 4, "velocity": 88}, {"time": 854, "pitch": 63, "duration": 7, "velocity": 95}, {"time": 930, "pitch": 66, "duration": 4, "velocity": 107}, {"time": 934, "pitch": 68, "duration": 6, "velocity": 96}, {"time": 942, "pitch": 68, "duration": 3, "velocity": 102}, {"time": 946, "pitch": 69, "duration": 4, "velocity": 110}, {"time": 950, "pitch": 66, "duration": 6, "velocity": 108}, {"time": 1014, "pitch": 66, "duration": 3, "velocity": 107}, {"time": 1018, "pitch": 68, "duration": 4, "velocity": 110}, {"time": 1022, "pitch": 69, "duration": 5, "velocity": 98}, {"time": 1026, "pitch": 68, "duration": 4, "velocity": 104}, {"time": 1030, "pitch": 66, "duration": 4, "velocity": 110}, {"time": 1034, "pitch": 61, "duration": 5, "velocity": 93}, {"time": 1146, "pitch": 78, "duration": 4, "velocity": 88}, {"time": 1150, "pitch": 80, "duration": 3, "velocity": 96}, {"time": 1152, "pitch": 81, "duration": 5, "velocity": 107}, {"time": 1158, "pitch": 80, "duration": 4, "velocity": 104}, {"time": 1162, "pitch": 78, "duration": 4, "velocity": 100}, {"time": 1166, "pitch": 76, "duration": 5, "velocity": 104}, {"time": 1190, "pitch": 68, "duration": 16, "velocity": 107}, {"time": 1204, "pitch": 69, "duration": 4, "velocity": 110}, {"time": 1208, "pitch": 68, "duration": 4, "velocity": 107}, {"time": 1214, "pitch": 66, "duration": 6, "velocity": 113}, {"time": 1226, "pitch": 61, "duration": 3, "velocity": 113}, {"time": 1230, "pitch": 57, "duration": 4, "velocity": 92}, {"time": 1234, "pitch": 59, "duration": 4, "velocity": 102}, {"time": 1238, "pitch": 61, "duration": 2, "velocity": 107}, {"time": 1242, "pitch": 69, "duration": 3, "velocity": 108}, {"time": 1246, "pitch": 61, "duration": 4, "velocity": 107}, {"time": 1250, "pitch": 66, "duration": 4, "velocity": 113}, {"time": 1260, "pitch": 74, "duration": 17, "velocity": 113}, {"time": 1302, "pitch": 73, "duration": 4, "velocity": 110}, {"time": 1306, "pitch": 71, "duration": 3, "velocity": 102}, {"time": 1310, "pitch": 71, "duration": 6, "velocity": 107}, {"time": 1346, "pitch": 66, "duration": 4, "velocity": 96}, {"time": 1350, "pitch": 68, "duration": 4, "velocity": 102}, {"time": 1354, "pitch": 69, "duration": 4, "velocity": 104}, {"time": 1358, "pitch": 68, "duration": 7, "velocity": 107}, {"time": 1392, "pitch": 64, "duration": 33, "velocity": 116}, {"time": 1426, "pitch": 66, "duration": 4, "velocity": 110}, {"time": 1430, "pitch": 68, "duration": 7, "velocity": 116}, {"time": 1434, "pitch": 64, "duration": 4, "velocity": 116}, {"time": 1438, "pitch": 66, "duration": 3, "velocity": 98}, {"time": 1442, "pitch": 68, "duration": 4, "velocity": 113}, {"time": 1446, "pitch": 80, "duration": 3, "velocity": 117}, {"time": 1450, "pitch": 81, "duration": 4, "velocity": 114}, {"time": 1454, "pitch": 73, "duration": 39, "velocity": 116}, {"time": 1454, "pitch": 78, "duration": 5, "velocity": 113}, {"time": 1494, "pitch": 69, "duration": 4, "velocity": 93}, {"time": 1498, "pitch": 73, "duration": 4, "velocity": 110}, {"time": 1502, "pitch": 71, "duration": 13, "velocity": 108}, {"time": 1538, "pitch": 66, "duration": 5, "velocity": 110}, {"time": 1542, "pitch": 68, "duration": 4, "velocity": 113}, {"time": 1546, "pitch": 69, "duration": 4, "velocity": 113}, {"time": 1550, "pitch": 68, "duration": 4, "velocity": 113}, {"time": 1574, "pitch": 64, "duration": 21, "velocity": 110}, {"time": 1598, "pitch": 64, "duration": 24, "velocity": 113}, {"time": 1622, "pitch": 66, "duration": 15, "velocity": 104}, {"time": 1666, "pitch": 61, "duration": 2, "velocity": 110}, {"time": 1668, "pitch": 64, "duration": 2, "velocity": 113}, {"time": 1670, "pitch": 66, "duration": 32, "velocity": 117}, {"time": 1670, "pitch": 78, "duration": 46, "velocity": 127}, {"time": 1702, "pitch": 69, "duration": 2, "velocity": 116}, {"time": 1704, "pitch": 66, "duration": 2, "velocity": 100}, {"time": 1706, "pitch": 73, "duration": 4, "velocity": 120}, {"time": 1710, "pitch": 71, "duration": 4, "velocity": 116}, {"time": 1714, "pitch": 73, "duration": 2, "velocity": 110}, {"time": 1716, "pitch": 66, "duration": 2, "velocity": 96}, {"time": 1718, "pitch": 69, "duration": 28, "velocity": 113}, {"time": 1718, "pitch": 77, "duration": 46, "velocity": 127}, {"time": 1746, "pitch": 61, "duration": 4, "velocity": 117}, {"time": 1750, "pitch": 64, "duration": 4, "velocity": 116}, {"time": 1754, "pitch": 66, "duration": 4, "velocity": 120}, {"time": 1758, "pitch": 61, "duration": 4, "velocity": 119}, {"time": 1762, "pitch": 64, "duration": 4, "velocity": 116}, {"time": 1766, "pitch": 71, "duration": 2, "velocity": 108}, {"time": 1766, "pitch": 76, "duration": 47, "velocity": 120}, {"time": 1768, "pitch": 66, "duration": 2, "velocity": 94}, {"time": 1770, "pitch": 69, "duration": 2, "velocity": 110}, {"time": 1772, "pitch": 71, "duration": 2, "velocity": 117}, {"time": 1774, "pitch": 67, "duration": 4, "velocity": 104}, {"time": 1778, "pitch": 73, "duration": 4, "velocity": 114}, {"time": 1782, "pitch": 66, "duration": 4, "velocity": 114}, {"time": 1786, "pitch": 64, "duration": 12, "velocity": 116}, {"time": 1798, "pitch": 66, "duration": 2, "velocity": 114}, {"time": 1800, "pitch": 71, "duration": 2, "velocity": 114}, {"time": 1802, "pitch": 73, "duration": 4, "velocity": 117}, {"time": 1806, "pitch": 71, "duration": 2, "velocity": 116}, {"time": 1808, "pitch": 73, "duration": 2, "velocity": 107}, {"time": 1810, "pitch": 69, "duration": 2, "velocity": 110}, {"time": 1812, "pitch": 64, "duration": 2, "velocity": 117}, {"time": 1814, "pitch": 63, "duration": 33, "velocity": 113}, {"time": 1814, "pitch": 75, "duration": 47, "velocity": 127}, {"time": 1847, "pitch": 61, "duration": 1, "velocity": 110}, {"time": 1848, "pitch": 62, "duration": 2, "velocity": 107}, {"time": 1850, "pitch": 63, "duration": 1, "velocity": 93}, {"time": 1851, "pitch": 64, "duration": 3, "velocity": 98}, {"time": 1854, "pitch": 65, "duration": 2, "velocity": 91}, {"time": 1856, "pitch": 66, "duration": 1, "velocity": 100}, {"time": 1857, "pitch": 68, "duration": 2, "velocity": 96}, {"time": 1859, "pitch": 69, "duration": 1, "velocity": 96}, {"time": 1860, "pitch": 71, "duration": 2, "velocity": 92}, {"time": 1862, "pitch": 73, "duration": 39, "velocity": 114}, {"time": 1974, "pitch": 69, "duration": 4, "velocity": 107}, {"time": 1978, "pitch": 68, "duration": 2, "velocity": 90}, {"time": 1982, "pitch": 69, "duration": 3, "velocity": 88}, {"time": 1986, "pitch": 66, "duration": 3, "velocity": 84}, {"time": 1990, "pitch": 64, "duration": 3, "velocity": 98}, {"time": 1994, "pitch": 66, "duration": 3, "velocity": 107}, {"time": 1998, "pitch": 61, "duration": 4, "velocity": 88}, {"time": 2002, "pitch": 59, "duration": 4, "velocity": 87}, {"time": 2006, "pitch": 62, "duration": 4, "velocity": 92}, {"time": 2070, "pitch": 68, "duration": 4, "velocity": 83}, {"time": 2074, "pitch": 66, "duration": 4, "velocity": 83}, {"time": 2078, "pitch": 68, "duration": 4, "velocity": 83}, {"time": 2082, "pitch": 66, "duration": 4, "velocity": 84}, {"time": 2086, "pitch": 64, "duration": 4, "velocity": 83}, {"time": 2090, "pitch": 66, "duration": 4, "velocity": 88}, {"time": 2094, "pitch": 63, "duration": 3, "velocity": 86}, {"time": 2098, "pitch": 61, "duration": 4, "velocity": 88}, {"time": 2102, "pitch": 63, "duration": 7, "velocity": 95}, {"time": 2178, "pitch": 66, "duration": 4, "velocity": 107}, {"time": 2182, "pitch": 68, "duration": 6, "velocity": 96}, {"time": 2190, "pitch": 68, "duration": 3, "velocity": 102}, {"time": 2194, "pitch": 69, "duration": 4, "velocity": 110}, {"time": 2198, "pitch": 66, "duration": 6, "velocity": 108}, {"time": 2262, "pitch": 66, "duration": 3, "velocity": 107}, {"time": 2266, "pitch": 68, "duration": 4, "velocity": 110}, {"time": 2270, "pitch": 69, "duration": 5, "velocity": 98}, {"time": 2274, "pitch": 68, "duration": 4, "velocity": 104}, {"time": 2278, "pitch": 66, "duration": 4, "velocity": 110}, {"time": 2282, "pitch": 61, "duration": 5, "velocity": 93}, {"time": 2394, "pitch": 78, "duration": 4, "velocity": 88}, {"time": 2398, "pitch": 80, "duration": 3, "velocity": 96}, {"time": 2398, "pitch": 81, "duration": 5, "velocity": 107}, {"time": 2406, "pitch": 80, "duration": 4, "velocity": 104}, {"time": 2410, "pitch": 78, "duration": 4, "velocity": 100}, {"time": 2414, "pitch": 76, "duration": 5, "velocity": 104}, {"time": 2438, "pitch": 68, "duration": 16, "velocity": 107}, {"time": 2450, "pitch": 69, "duration": 4, "velocity": 110}, {"time": 2454, "pitch": 68, "duration": 4, "velocity": 107}, {"time": 2462, "pitch": 66, "duration": 6, "velocity": 113}, {"time": 2474, "pitch": 61, "duration": 3, "velocity": 113}, {"time": 2478, "pitch": 57, "duration": 4, "velocity": 92}, {"time": 2482, "pitch": 59, "duration": 4, "velocity": 102}, {"time": 2486, "pitch": 61, "duration": 2, "velocity": 107}, {"time": 2490, "pitch": 69, "duration": 3, "velocity": 108}, {"time": 2494, "pitch": 61, "duration": 4, "velocity": 107}, {"time": 2498, "pitch": 66, "duration": 4, "velocity": 113}, {"time": 2510, "pitch": 74, "duration": 17, "velocity": 113}, {"time": 2550, "pitch": 73, "duration": 4, "velocity": 110}, {"time": 2554, "pitch": 71, "duration": 3, "velocity": 102}, {"time": 2558, "pitch": 71, "duration": 6, "velocity": 107}, {"time": 2594, "pitch": 66, "duration": 4, "velocity": 96}, {"time": 2598, "pitch": 68, "duration": 4, "velocity": 102}, {"time": 2602, "pitch": 69, "duration": 4, "velocity": 104}, {"time": 2606, "pitch": 68, "duration": 7, "velocity": 107}, {"time": 2638, "pitch": 64, "duration": 33, "velocity": 116}, {"time": 2674, "pitch": 66, "duration": 4, "velocity": 110}, {"time": 2678, "pitch": 68, "duration": 7, "velocity": 116}, {"time": 2682, "pitch": 64, "duration": 4, "velocity": 116}, {"time": 2686, "pitch": 66, "duration": 3, "velocity": 98}, {"time": 2690, "pitch": 68, "duration": 4, "velocity": 113}, {"time": 2694, "pitch": 80, "duration": 3, "velocity": 117}, {"time": 2698, "pitch": 81, "duration": 4, "velocity": 114}, {"time": 2702, "pitch": 73, "duration": 39, "velocity": 116}, {"time": 2702, "pitch": 78, "duration": 5, "velocity": 113}, {"time": 2742, "pitch": 69, "duration": 4, "velocity": 93}, {"time": 2746, "pitch": 73, "duration": 4, "velocity": 110}, {"time": 2750, "pitch": 71, "duration": 13, "velocity": 108}, {"time": 2786, "pitch": 66, "duration": 5, "velocity": 110}, {"time": 2790, "pitch": 68, "duration": 4, "velocity": 113}, {"time": 2794, "pitch": 69, "duration": 4, "velocity": 113}, {"time": 2798, "pitch": 68, "duration": 4, "velocity": 113}, {"time": 2822, "pitch": 64, "duration": 21, "velocity": 110}, {"time": 2846, "pitch": 64, "duration": 24, "velocity": 113}, {"time": 2870, "pitch": 66, "duration": 7, "velocity": 104}, {"time": 2878, "pitch": 64, "duration": 4, "velocity": 110}, {"time": 2882, "pitch": 66, "duration": 3, "velocity": 116}, {"time": 2886, "pitch": 68, "duration": 4, "velocity": 108}, {"time": 2890, "pitch": 69, "duration": 4, "velocity": 113}, {"time": 2894, "pitch": 74, "duration": 18, "velocity": 113}, {"time": 2934, "pitch": 73, "duration": 4, "velocity": 110}, {"time": 2938, "pitch": 71, "duration": 3, "velocity": 102}, {"time": 2942, "pitch": 71, "duration": 6, "velocity": 107}, {"time": 2978, "pitch": 66, "duration": 4, "velocity": 96}, {"time": 2982, "pitch": 68, "duration": 4, "velocity": 102}, {"time": 2986, "pitch": 69, "duration": 4, "velocity": 104}, {"time": 2990, "pitch": 68, "duration": 7, "velocity": 107}, {"time": 3022, "pitch": 64, "duration": 33, "velocity": 116}, {"time": 3058, "pitch": 66, "duration": 4, "velocity": 110}, {"time": 3062, "pitch": 68, "duration": 7, "velocity": 116}, {"time": 3066, "pitch": 64, "duration": 4, "velocity": 116}, {"time": 3070, "pitch": 66, "duration": 3, "velocity": 98}, {"time": 3074, "pitch": 68, "duration": 4, "velocity": 113}, {"time": 3078, "pitch": 80, "duration": 3, "velocity": 117}, {"time": 3082, "pitch": 81, "duration": 4, "velocity": 114}, {"time": 3086, "pitch": 73, "duration": 39, "velocity": 116}, {"time": 3086, "pitch": 78, "duration": 5, "velocity": 113}, {"time": 3126, "pitch": 69, "duration": 4, "velocity": 93}, {"time": 3130, "pitch": 73, "duration": 4, "velocity": 110}, {"time": 3134, "pitch": 71, "duration": 13, "velocity": 108}, {"time": 3170, "pitch": 66, "duration": 5, "velocity": 110}, {"time": 3174, "pitch": 68, "duration": 4, "velocity": 113}, {"time": 3178, "pitch": 69, "duration": 4, "velocity": 113}, {"time": 3182, "pitch": 68, "duration": 4, "velocity": 113}, {"time": 3206, "pitch": 64, "duration": 21, "velocity": 110}, {"time": 3230, "pitch": 64, "duration": 24, "velocity": 113}, {"time": 3254, "pitch": 66, "duration": 15, "velocity": 104}, {"time": 3270, "pitch": 80, "duration": 3, "velocity": 117}, {"time": 3274, "pitch": 81, "duration": 4, "velocity": 114}, {"time": 3278, "pitch": 73, "duration": 39, "velocity": 116}, {"time": 3278, "pitch": 78, "duration": 5, "velocity": 113}, {"time": 3318, "pitch": 69, "duration": 4, "velocity": 93}, {"time": 3322, "pitch": 73, "duration": 4, "velocity": 110}, {"time": 3326, "pitch": 71, "duration": 13, "velocity": 108}, {"time": 3362, "pitch": 66, "duration": 5, "velocity": 110}, {"time": 3366, "pitch": 68, "duration": 4, "velocity": 113}, {"time": 3370, "pitch": 69, "duration": 4, "velocity": 113}, {"time": 3374, "pitch": 68, "duration": 4, "velocity": 113}, {"time": 3398, "pitch": 64, "duration": 21, "velocity": 110}, {"time": 3422, "pitch": 64, "duration": 24, "velocity": 113}, {"time": 3446, "pitch": 66, "duration": 15, "velocity": 104}]}, {"program": 0, "is_drum": false, "name": "PIANO", "notes": [{"time": 278, "pitch": 42, "duration": 41, "velocity": 87}, {"time": 282, "pitch": 49, "duration": 36, "velocity": 77}, {"time": 286, "pitch": 54, "duration": 6, "velocity": 79}, {"time": 290, "pitch": 73, "duration": 12, "velocity": 102}, {"time": 294, "pitch": 54, "duration": 24, "velocity": 80}, {"time": 298, "pitch": 69, "duration": 6, "velocity": 75}, {"time": 302, "pitch": 66, "duration": 28, "velocity": 84}, {"time": 318, "pitch": 61, "duration": 9, "velocity": 68}, {"time": 322, "pitch": 37, "duration": 4, "velocity": 85}, {"time": 326, "pitch": 42, "duration": 42, "velocity": 83}, {"time": 334, "pitch": 49, "duration": 35, "velocity": 75}, {"time": 338, "pitch": 73, "duration": 13, "velocity": 98}, {"time": 342, "pitch": 54, "duration": 15, "velocity": 78}, {"time": 346, "pitch": 69, "duration": 13, "velocity": 81}, {"time": 350, "pitch": 66, "duration": 13, "velocity": 84}, {"time": 362, "pitch": 54, "duration": 8, "velocity": 80}, {"time": 366, "pitch": 61, "duration": 9, "velocity": 83}, {"time": 370, "pitch": 69, "duration": 9, "velocity": 69}, {"time": 370, "pitch": 73, "duration": 9, "velocity": 86}, {"time": 374, "pitch": 47, "duration": 43, "velocity": 78}, {"time": 378, "pitch": 54, "duration": 40, "velocity": 74}, {"time": 382, "pitch": 59, "duration": 22, "velocity": 82}, {"time": 386, "pitch": 61, "duration": 6, "velocity": 88}, {"time": 390, "pitch": 62, "duration": 7, "velocity": 86}, {"time": 394, "pitch": 66, "duration": 4, "velocity": 83}, {"time": 398, "pitch": 71, "duration": 18, "velocity": 88}, {"time": 410, "pitch": 59, "duration": 4, "velocity": 75}, {"time": 414, "pitch": 61, "duration": 4, "velocity": 71}, {"time": 418, "pitch": 71, "duration": 15, "velocity": 78}, {"time": 422, "pitch": 49, "duration": 43, "velocity": 86}, {"time": 426, "pitch": 56, "duration": 35, "velocity": 75}, {"time": 430, "pitch": 61, "duration": 4, "velocity": 79}, {"time": 434, "pitch": 66, "duration": 8, "velocity": 87}, {"time": 434, "pitch": 68, "duration": 3, "velocity": 88}, {"time": 438, "pitch": 61, "duration": 3, "velocity": 77}, {"time": 442, "pitch": 68, "duration": 5, "velocity": 83}, {"time": 446, "pitch": 64, "duration": 23, "velocity": 85}, {"time": 470, "pitch": 42, "duration": 42, "velocity": 88}, {"time": 474, "pitch": 49, "duration": 29, "velocity": 81}, {"time": 478, "pitch": 54, "duration": 4, "velocity": 82}, {"time": 482, "pitch": 61, "duration": 8, "velocity": 116}, {"time": 486, "pitch": 54, "duration": 16, "velocity": 81}, {"time": 494, "pitch": 57, "duration": 8, "velocity": 98}, {"time": 502, "pitch": 56, "duration": 5, "velocity": 86}, {"time": 506, "pitch": 49, "duration": 4, "velocity": 87}, {"time": 510, "pitch": 56, "duration": 6, "velocity": 83}, {"time": 514, "pitch": 37, "duration": 4, "velocity": 88}, {"time": 518, "pitch": 47, "duration": 44, "velocity": 91}, {"time": 522, "pitch": 54, "duration": 39, "velocity": 76}, {"time": 526, "pitch": 59, "duration": 5, "velocity": 86}, {"time": 530, "pitch": 71, "duration": 6, "velocity": 88}, {"time": 534, "pitch": 59, "duration": 11, "velocity": 79}, {"time": 538, "pitch": 66, "duration": 16, "velocity": 86}, {"time": 542, "pitch": 63, "duration": 14, "velocity": 87}, {"time": 554, "pitch": 59, "duration": 6, "velocity": 78}, {"time": 558, "pitch": 63, "duration": 5, "velocity": 81}, {"time": 566, "pitch": 49, "duration": 44, "velocity": 88}, {"time": 570, "pitch": 56, "duration": 28, "velocity": 77}, {"time": 574, "pitch": 61, "duration": 5, "velocity": 82}, {"time": 578, "pitch": 66, "duration": 8, "velocity": 107}, {"time": 582, "pitch": 61, "duration": 3, "velocity": 82}, {"time": 586, "pitch": 68, "duration": 15, "velocity": 83}, {"time": 590, "pitch": 65, "duration": 14, "velocity": 85}, {"time": 598, "pitch": 61, "duration": 16, "velocity": 73}, {"time": 602, "pitch": 56, "duration": 8, "velocity": 80}, {"time": 606, "pitch": 65, "duration": 8, "velocity": 86}, {"time": 610, "pitch": 68, "duration": 4, "velocity": 84}, {"time": 614, "pitch": 42, "duration": 44, "velocity": 86}, {"time": 618, "pitch": 49, "duration": 40, "velocity": 76}, {"time": 622, "pitch": 54, "duration": 5, "velocity": 81}, {"time": 626, "pitch": 61, "duration": 10, "velocity": 107}, {"time": 630, "pitch": 54, "duration": 9, "velocity": 81}, {"time": 634, "pitch": 56, "duration": 4, "velocity": 83}, {"time": 638, "pitch": 57, "duration": 5, "velocity": 86}, {"time": 642, "pitch": 54, "duration": 9, "velocity": 77}, {"time": 646, "pitch": 61, "duration": 5, "velocity": 79}, {"time": 650, "pitch": 68, "duration": 9, "velocity": 107}, {"time": 654, "pitch": 54, "duration": 5, "velocity": 81}, {"time": 658, "pitch": 66, "duration": 6, "velocity": 84}, {"time": 662, "pitch": 38, "duration": 43, "velocity": 94}, {"time": 666, "pitch": 45, "duration": 28, "velocity": 88}, {"time": 670, "pitch": 50, "duration": 5, "velocity": 85}, {"time": 674, "pitch": 62, "duration": 9, "velocity": 114}, {"time": 678, "pitch": 50, "duration": 17, "velocity": 85}, {"time": 682, "pitch": 57, "duration": 5, "velocity": 77}, {"time": 686, "pitch": 54, "duration": 17, "velocity": 86}, {"time": 694, "pitch": 62, "duration": 17, "velocity": 88}, {"time": 698, "pitch": 45, "duration": 8, "velocity": 86}, {"time": 702, "pitch": 50, "duration": 6, "velocity": 86}, {"time": 706, "pitch": 54, "duration": 5, "velocity": 81}, {"time": 710, "pitch": 42, "duration": 43, "velocity": 89}, {"time": 714, "pitch": 49, "duration": 39, "velocity": 80}, {"time": 718, "pitch": 54, "duration": 5, "velocity": 84}, {"time": 722, "pitch": 56, "duration": 8, "velocity": 102}, {"time": 722, "pitch": 61, "duration": 10, "velocity": 108}, {"time": 726, "pitch": 54, "duration": 8, "velocity": 81}, {"time": 730, "pitch": 57, "duration": 2, "velocity": 85}, {"time": 734, "pitch": 57, "duration": 6, "velocity": 88}, {"time": 734, "pitch": 66, "duration": 11, "velocity": 114}, {"time": 742, "pitch": 54, "duration": 5, "velocity": 81}, {"time": 746, "pitch": 61, "duration": 8, "velocity": 113}, {"time": 750, "pitch": 54, "duration": 6, "velocity": 86}, {"time": 754, "pitch": 66, "duration": 7, "velocity": 88}, {"time": 758, "pitch": 38, "duration": 44, "velocity": 96}, {"time": 762, "pitch": 45, "duration": 41, "velocity": 82}, {"time": 766, "pitch": 50, "duration": 5, "velocity": 84}, {"time": 770, "pitch": 62, "duration": 9, "velocity": 113}, {"time": 774, "pitch": 50, "duration": 9, "velocity": 83}, {"time": 778, "pitch": 57, "duration": 4, "velocity": 81}, {"time": 782, "pitch": 54, "duration": 17, "velocity": 91}, {"time": 786, "pitch": 50, "duration": 8, "velocity": 82}, {"time": 790, "pitch": 57, "duration": 17, "velocity": 78}, {"time": 794, "pitch": 62, "duration": 5, "velocity": 94}, {"time": 798, "pitch": 50, "duration": 6, "velocity": 81}, {"time": 802, "pitch": 54, "duration": 4, "velocity": 84}, {"time": 806, "pitch": 49, "duration": 43, "velocity": 92}, {"time": 810, "pitch": 56, "duration": 20, "velocity": 78}, {"time": 814, "pitch": 61, "duration": 4, "velocity": 86}, {"time": 818, "pitch": 66, "duration": 8, "velocity": 113}, {"time": 822, "pitch": 61, "duration": 3, "velocity": 84}, {"time": 826, "pitch": 68, "duration": 10, "velocity": 82}, {"time": 830, "pitch": 64, "duration": 7, "velocity": 93}, {"time": 834, "pitch": 56, "duration": 8, "velocity": 74}, {"time": 838, "pitch": 59, "duration": 14, "velocity": 86}, {"time": 842, "pitch": 64, "duration": 13, "velocity": 116}, {"time": 846, "pitch": 56, "duration": 3, "velocity": 84}, {"time": 850, "pitch": 61, "duration": 4, "velocity": 85}, {"time": 854, "pitch": 47, "duration": 43, "velocity": 96}, {"time": 858, "pitch": 54, "duration": 37, "velocity": 81}, {"time": 862, "pitch": 59, "duration": 6, "velocity": 88}, {"time": 866, "pitch": 66, "duration": 8, "velocity": 110}, {"time": 870, "pitch": 59, "duration": 8, "velocity": 86}, {"time": 874, "pitch": 63, "duration": 13, "velocity": 86}, {"time": 878, "pitch": 71, "duration": 9, "velocity": 110}, {"time": 886, "pitch": 66, "duration": 4, "velocity": 90}, {"time": 890, "pitch": 59, "duration": 3, "velocity": 96}, {"time": 894, "pitch": 61, "duration": 4, "velocity": 83}, {"time": 898, "pitch": 63, "duration": 6, "velocity": 95}, {"time": 902, "pitch": 37, "duration": 43, "velocity": 91}, {"time": 906, "pitch": 49, "duration": 9, "velocity": 79}, {"time": 910, "pitch": 56, "duration": 12, "velocity": 77}, {"time": 914, "pitch": 64, "duration": 8, "velocity": 88}, {"time": 918, "pitch": 49, "duration": 16, "velocity": 82}, {"time": 922, "pitch": 61, "duration": 12, "velocity": 87}, {"time": 926, "pitch": 56, "duration": 8, "velocity": 89}, {"time": 926, "pitch": 64, "duration": 7, "velocity": 79}, {"time": 934, "pitch": 56, "duration": 5, "velocity": 83}, {"time": 934, "pitch": 61, "duration": 5, "velocity": 84}, {"time": 934, "pitch": 64, "duration": 5, "velocity": 81}, {"time": 938, "pitch": 49, "duration": 11, "velocity": 104}, {"time": 942, "pitch": 56, "duration": 4, "velocity": 91}, {"time": 946, "pitch": 64, "duration": 6, "velocity": 96}, {"time": 950, "pitch": 35, "duration": 41, "velocity": 90}, {"time": 954, "pitch": 47, "duration": 10, "velocity": 85}, {"time": 958, "pitch": 54, "duration": 13, "velocity": 76}, {"time": 962, "pitch": 63, "duration": 8, "velocity": 113}, {"time": 966, "pitch": 47, "duration": 16, "velocity": 77}, {"time": 970, "pitch": 59, "duration": 4, "velocity": 85}, {"time": 974, "pitch": 54, "duration": 14, "velocity": 88}, {"time": 974, "pitch": 63, "duration": 14, "velocity": 86}, {"time": 982, "pitch": 59, "duration": 6, "velocity": 78}, {"time": 986, "pitch": 47, "duration": 7, "velocity": 91}, {"time": 990, "pitch": 54, "duration": 8, "velocity": 88}, {"time": 994, "pitch": 63, "duration": 9, "velocity": 90}, {"time": 998, "pitch": 42, "duration": 44, "velocity": 96}, {"time": 1002, "pitch": 49, "duration": 39, "velocity": 77}, {"time": 1006, "pitch": 54, "duration": 4, "velocity": 81}, {"time": 1010, "pitch": 57, "duration": 8, "velocity": 87}, {"time": 1010, "pitch": 61, "duration": 8, "velocity": 94}, {"time": 1010, "pitch": 66, "duration": 8, "velocity": 93}, {"time": 1018, "pitch": 54, "duration": 5, "velocity": 74}, {"time": 1022, "pitch": 57, "duration": 9, "velocity": 88}, {"time": 1022, "pitch": 61, "duration": 9, "velocity": 89}, {"time": 1022, "pitch": 66, "duration": 8, "velocity": 88}, {"time": 1030, "pitch": 54, "duration": 4, "velocity": 84}, {"time": 1034, "pitch": 57, "duration": 7, "velocity": 100}, {"time": 1034, "pitch": 66, "duration": 7, "velocity": 107}, {"time": 1038, "pitch": 54, "duration": 2, "velocity": 86}, {"time": 1042, "pitch": 57, "duration": 5, "velocity": 85}, {"time": 1042, "pitch": 61, "duration": 5, "velocity": 100}, {"time": 1042, "pitch": 66, "duration": 5, "velocity": 83}, {"time": 1046, "pitch": 47, "duration": 44, "velocity": 96}, {"time": 1050, "pitch": 54, "duration": 40, "velocity": 78}, {"time": 1054, "pitch": 59, "duration": 5, "velocity": 84}, {"time": 1058, "pitch": 66, "duration": 8, "velocity": 110}, {"time": 1058, "pitch": 71, "duration": 7, "velocity": 107}, {"time": 1062, "pitch": 59, "duration": 8, "velocity": 82}, {"time": 1066, "pitch": 62, "duration": 3, "velocity": 82}, {"time": 1070, "pitch": 66, "duration": 9, "velocity": 113}, {"time": 1070, "pitch": 71, "duration": 9, "velocity": 108}, {"time": 1078, "pitch": 59, "duration": 4, "velocity": 82}, {"time": 1082, "pitch": 62, "duration": 13, "velocity": 104}, {"time": 1082, "pitch": 71, "duration": 13, "velocity": 100}, {"time": 1086, "pitch": 59, "duration": 1, "velocity": 91}, {"time": 1090, "pitch": 66, "duration": 5, "velocity": 107}, {"time": 1094, "pitch": 42, "duration": 22, "velocity": 92}, {"time": 1098, "pitch": 49, "duration": 17, "velocity": 80}, {"time": 1102, "pitch": 54, "duration": 5, "velocity": 87}, {"time": 1106, "pitch": 57, "duration": 7, "velocity": 104}, {"time": 1106, "pitch": 66, "duration": 7, "velocity": 108}, {"time": 1110, "pitch": 54, "duration": 4, "velocity": 86}, {"time": 1114, "pitch": 57, "duration": 5, "velocity": 81}, {"time": 1114, "pitch": 61, "duration": 4, "velocity": 91}, {"time": 1114, "pitch": 66, "duration": 5, "velocity": 86}, {"time": 1118, "pitch": 49, "duration": 19, "velocity": 88}, {"time": 1122, "pitch": 56, "duration": 9, "velocity": 83}, {"time": 1126, "pitch": 61, "duration": 3, "velocity": 82}, {"time": 1130, "pitch": 64, "duration": 7, "velocity": 114}, {"time": 1130, "pitch": 68, "duration": 12, "velocity": 107}, {"time": 1134, "pitch": 56, "duration": 3, "velocity": 80}, {"time": 1138, "pitch": 61, "duration": 7, "velocity": 87}, {"time": 1142, "pitch": 42, "duration": 20, "velocity": 89}, {"time": 1146, "pitch": 49, "duration": 16, "velocity": 82}, {"time": 1150, "pitch": 54, "duration": 13, "velocity": 91}, {"time": 1154, "pitch": 57, "duration": 5, "velocity": 100}, {"time": 1158, "pitch": 61, "duration": 9, "velocity": 88}, {"time": 1162, "pitch": 66, "duration": 6, "velocity": 91}, {"time": 1166, "pitch": 40, "duration": 44, "velocity": 102}, {"time": 1170, "pitch": 47, "duration": 44, "velocity": 84}, {"time": 1174, "pitch": 52, "duration": 5, "velocity": 86}, {"time": 1178, "pitch": 59, "duration": 8, "velocity": 108}, {"time": 1178, "pitch": 64, "duration": 7, "velocity": 96}, {"time": 1182, "pitch": 52, "duration": 9, "velocity": 79}, {"time": 1186, "pitch": 56, "duration": 4, "velocity": 81}, {"time": 1190, "pitch": 59, "duration": 8, "velocity": 113}, {"time": 1190, "pitch": 64, "duration": 8, "velocity": 100}, {"time": 1198, "pitch": 52, "duration": 4, "velocity": 81}, {"time": 1202, "pitch": 56, "duration": 7, "velocity": 100}, {"time": 1202, "pitch": 64, "duration": 12, "velocity": 104}, {"time": 1206, "pitch": 52, "duration": 6, "velocity": 86}, {"time": 1210, "pitch": 56, "duration": 4, "velocity": 80}, {"time": 1210, "pitch": 59, "duration": 5, "velocity": 92}, {"time": 1214, "pitch": 42, "duration": 21, "velocity": 89}, {"time": 1218, "pitch": 49, "duration": 20, "velocity": 87}, {"time": 1222, "pitch": 54, "duration": 5, "velocity": 94}, {"time": 1226, "pitch": 61, "duration": 6, "velocity": 116}, {"time": 1226, "pitch": 66, "duration": 6, "velocity": 113}, {"time": 1230, "pitch": 54, "duration": 6, "velocity": 91}, {"time": 1234, "pitch": 57, "duration": 5, "velocity": 86}, {"time": 1238, "pitch": 42, "duration": 20, "velocity": 98}, {"time": 1238, "pitch": 61, "duration": 2, "velocity": 32}, {"time": 1238, "pitch": 66, "duration": 24, "velocity": 108}, {"time": 1242, "pitch": 49, "duration": 15, "velocity": 86}, {"time": 1246, "pitch": 54, "duration": 5, "velocity": 96}, {"time": 1250, "pitch": 56, "duration": 7, "velocity": 107}, {"time": 1254, "pitch": 54, "duration": 3, "velocity": 92}, {"time": 1258, "pitch": 57, "duration": 4, "velocity": 107}, {"time": 1262, "pitch": 38, "duration": 21, "velocity": 94}, {"time": 1266, "pitch": 45, "duration": 20, "velocity": 81}, {"time": 1270, "pitch": 50, "duration": 5, "velocity": 87}, {"time": 1274, "pitch": 57, "duration": 8, "velocity": 100}, {"time": 1274, "pitch": 62, "duration": 6, "velocity": 107}, {"time": 1278, "pitch": 50, "duration": 8, "velocity": 84}, {"time": 1282, "pitch": 54, "duration": 5, "velocity": 90}, {"time": 1286, "pitch": 38, "duration": 20, "velocity": 87}, {"time": 1286, "pitch": 57, "duration": 9, "velocity": 116}, {"time": 1286, "pitch": 62, "duration": 8, "velocity": 104}, {"time": 1290, "pitch": 45, "duration": 17, "velocity": 81}, {"time": 1294, "pitch": 50, "duration": 5, "velocity": 87}, {"time": 1298, "pitch": 57, "duration": 6, "velocity": 116}, {"time": 1298, "pitch": 62, "duration": 5, "velocity": 107}, {"time": 1302, "pitch": 50, "duration": 5, "velocity": 86}, {"time": 1306, "pitch": 54, "duration": 4, "velocity": 93}, {"time": 1306, "pitch": 57, "duration": 5, "velocity": 91}, {"time": 1306, "pitch": 62, "duration": 5, "velocity": 91}, {"time": 1310, "pitch": 47, "duration": 21, "velocity": 96}, {"time": 1314, "pitch": 54, "duration": 10, "velocity": 83}, {"time": 1318, "pitch": 59, "duration": 5, "velocity": 81}, {"time": 1322, "pitch": 62, "duration": 8, "velocity": 114}, {"time": 1322, "pitch": 66, "duration": 7, "velocity": 102}, {"time": 1326, "pitch": 54, "duration": 8, "velocity": 86}, {"time": 1330, "pitch": 59, "duration": 10, "velocity": 86}, {"time": 1334, "pitch": 47, "duration": 20, "velocity": 91}, {"time": 1338, "pitch": 54, "duration": 9, "velocity": 87}, {"time": 1342, "pitch": 59, "duration": 4, "velocity": 91}, {"time": 1346, "pitch": 62, "duration": 6, "velocity": 116}, {"time": 1346, "pitch": 66, "duration": 6, "velocity": 110}, {"time": 1350, "pitch": 54, "duration": 3, "velocity": 87}, {"time": 1354, "pitch": 59, "duration": 5, "velocity": 93}, {"time": 1354, "pitch": 62, "duration": 5, "velocity": 91}, {"time": 1354, "pitch": 66, "duration": 5, "velocity": 87}, {"time": 1358, "pitch": 40, "duration": 17, "velocity": 93}, {"time": 1362, "pitch": 47, "duration": 13, "velocity": 86}, {"time": 1366, "pitch": 52, "duration": 9, "velocity": 85}, {"time": 1370, "pitch": 56, "duration": 10, "velocity": 89}, {"time": 1374, "pitch": 59, "duration": 8, "velocity": 96}, {"time": 1378, "pitch": 64, "duration": 5, "velocity": 94}, {"time": 1382, "pitch": 49, "duration": 19, "velocity": 93}, {"time": 1386, "pitch": 56, "duration": 9, "velocity": 82}, {"time": 1390, "pitch": 61, "duration": 5, "velocity": 88}, {"time": 1394, "pitch": 68, "duration": 12, "velocity": 113}, {"time": 1398, "pitch": 56, "duration": 3, "velocity": 83}, {"time": 1402, "pitch": 64, "duration": 5, "velocity": 102}, {"time": 1406, "pitch": 40, "duration": 16, "velocity": 93}, {"time": 1410, "pitch": 47, "duration": 13, "velocity": 83}, {"time": 1414, "pitch": 52, "duration": 10, "velocity": 86}, {"time": 1418, "pitch": 56, "duration": 8, "velocity": 98}, {"time": 1422, "pitch": 59, "duration": 6, "velocity": 96}, {"time": 1426, "pitch": 64, "duration": 12, "velocity": 91}, {"time": 1430, "pitch": 49, "duration": 18, "velocity": 89}, {"time": 1430, "pitch": 61, "duration": 6, "velocity": 102}, {"time": 1438, "pitch": 56, "duration": 9, "velocity": 85}, {"time": 1442, "pitch": 61, "duration": 7, "velocity": 108}, {"time": 1446, "pitch": 64, "duration": 7, "velocity": 96}, {"time": 1450, "pitch": 69, "duration": 4, "velocity": 86}, {"time": 1454, "pitch": 42, "duration": 21, "velocity": 83}, {"time": 1454, "pitch": 61, "duration": 11, "velocity": 87}, {"time": 1454, "pitch": 66, "duration": 7, "velocity": 102}, {"time": 1458, "pitch": 49, "duration": 21, "velocity": 81}, {"time": 1462, "pitch": 54, "duration": 6, "velocity": 83}, {"time": 1466, "pitch": 57, "duration": 10, "velocity": 96}, {"time": 1466, "pitch": 66, "duration": 7, "velocity": 100}, {"time": 1470, "pitch": 54, "duration": 4, "velocity": 80}, {"time": 1474, "pitch": 61, "duration": 3, "velocity": 87}, {"time": 1474, "pitch": 66, "duration": 1, "velocity": 75}, {"time": 1478, "pitch": 42, "duration": 20, "velocity": 86}, {"time": 1478, "pitch": 57, "duration": 9, "velocity": 96}, {"time": 1478, "pitch": 66, "duration": 9, "velocity": 107}, {"time": 1482, "pitch": 49, "duration": 16, "velocity": 83}, {"time": 1486, "pitch": 54, "duration": 4, "velocity": 83}, {"time": 1490, "pitch": 57, "duration": 9, "velocity": 116}, {"time": 1490, "pitch": 66, "duration": 10, "velocity": 104}, {"time": 1494, "pitch": 54, "duration": 8, "velocity": 88}, {"time": 1498, "pitch": 61, "duration": 3, "velocity": 98}, {"time": 1502, "pitch": 47, "duration": 22, "velocity": 89}, {"time": 1502, "pitch": 59, "duration": 4, "velocity": 89}, {"time": 1502, "pitch": 62, "duration": 1, "velocity": 88}, {"time": 1502, "pitch": 66, "duration": 8, "velocity": 93}, {"time": 1506, "pitch": 54, "duration": 20, "velocity": 78}, {"time": 1510, "pitch": 59, "duration": 4, "velocity": 88}, {"time": 1514, "pitch": 62, "duration": 11, "velocity": 108}, {"time": 1514, "pitch": 71, "duration": 4, "velocity": 113}, {"time": 1518, "pitch": 59, "duration": 2, "velocity": 86}, {"time": 1522, "pitch": 59, "duration": 2, "velocity": 84}, {"time": 1526, "pitch": 47, "duration": 20, "velocity": 88}, {"time": 1526, "pitch": 59, "duration": 9, "velocity": 107}, {"time": 1526, "pitch": 66, "duration": 8, "velocity": 108}, {"time": 1530, "pitch": 54, "duration": 1, "velocity": 82}, {"time": 1534, "pitch": 54, "duration": 5, "velocity": 87}, {"time": 1538, "pitch": 59, "duration": 7, "velocity": 116}, {"time": 1538, "pitch": 66, "duration": 7, "velocity": 113}, {"time": 1542, "pitch": 54, "duration": 5, "velocity": 86}, {"time": 1546, "pitch": 59, "duration": 2, "velocity": 81}, {"time": 1546, "pitch": 62, "duration": 5, "velocity": 98}, {"time": 1546, "pitch": 66, "duration": 4, "velocity": 87}, {"time": 1550, "pitch": 40, "duration": 15, "velocity": 102}, {"time": 1554, "pitch": 47, "duration": 12, "velocity": 84}, {"time": 1558, "pitch": 52, "duration": 8, "velocity": 87}, {"time": 1562, "pitch": 56, "duration": 6, "velocity": 107}, {"time": 1566, "pitch": 59, "duration": 7, "velocity": 110}, {"time": 1570, "pitch": 64, "duration": 12, "velocity": 93}, {"time": 1574, "pitch": 37, "duration": 19, "velocity": 89}, {"time": 1574, "pitch": 56, "duration": 8, "velocity": 98}, {"time": 1574, "pitch": 61, "duration": 9, "velocity": 94}, {"time": 1582, "pitch": 49, "duration": 5, "velocity": 87}, {"time": 1586, "pitch": 56, "duration": 1, "velocity": 116}, {"time": 1586, "pitch": 64, "duration": 9, "velocity": 107}, {"time": 1590, "pitch": 49, "duration": 8, "velocity": 88}, {"time": 1594, "pitch": 61, "duration": 4, "velocity": 100}, {"time": 1598, "pitch": 40, "duration": 20, "velocity": 87}, {"time": 1598, "pitch": 56, "duration": 9, "velocity": 88}, {"time": 1598, "pitch": 59, "duration": 9, "velocity": 94}, {"time": 1598, "pitch": 64, "duration": 8, "velocity": 91}, {"time": 1602, "pitch": 47, "duration": 17, "velocity": 81}, {"time": 1606, "pitch": 52, "duration": 4, "velocity": 85}, {"time": 1610, "pitch": 56, "duration": 7, "velocity": 110}, {"time": 1610, "pitch": 64, "duration": 12, "velocity": 108}, {"time": 1614, "pitch": 52, "duration": 4, "velocity": 89}, {"time": 1618, "pitch": 59, "duration": 6, "velocity": 91}, {"time": 1622, "pitch": 42, "duration": 38, "velocity": 88}, {"time": 1626, "pitch": 49, "duration": 34, "velocity": 80}, {"time": 1630, "pitch": 54, "duration": 5, "velocity": 88}, {"time": 1634, "pitch": 56, "duration": 4, "velocity": 107}, {"time": 1638, "pitch": 54, "duration": 11, "velocity": 89}, {"time": 1638, "pitch": 57, "duration": 1, "velocity": 87}, {"time": 1642, "pitch": 61, "duration": 3, "velocity": 86}, {"time": 1646, "pitch": 61, "duration": 15, "velocity": 96}, {"time": 1646, "pitch": 69, "duration": 15, "velocity": 100}, {"time": 1670, "pitch": 42, "duration": 42, "velocity": 87}, {"time": 1674, "pitch": 54, "duration": 24, "velocity": 71}, {"time": 1678, "pitch": 57, "duration": 5, "velocity": 82}, {"time": 1682, "pitch": 61, "duration": 11, "velocity": 98}, {"time": 1686, "pitch": 57, "duration": 12, "velocity": 85}, {"time": 1690, "pitch": 54, "duration": 8, "velocity": 77}, {"time": 1694, "pitch": 61, "duration": 13, "velocity": 83}, {"time": 1702, "pitch": 54, "duration": 8, "velocity": 75}, {"time": 1718, "pitch": 41, "duration": 42, "velocity": 84}, {"time": 1726, "pitch": 57, "duration": 5, "velocity": 83}, {"time": 1730, "pitch": 61, "duration": 9, "velocity": 113}, {"time": 1734, "pitch": 57, "duration": 15, "velocity": 73}, {"time": 1738, "pitch": 53, "duration": 4, "velocity": 84}, {"time": 1742, "pitch": 61, "duration": 13, "velocity": 91}, {"time": 1766, "pitch": 40, "duration": 41, "velocity": 87}, {"time": 1766, "pitch": 64, "duration": 12, "velocity": 92}, {"time": 1770, "pitch": 47, "duration": 44, "velocity": 66}, {"time": 1774, "pitch": 52, "duration": 5, "velocity": 78}, {"time": 1778, "pitch": 61, "duration": 8, "velocity": 90}, {"time": 1782, "pitch": 57, "duration": 4, "velocity": 73}, {"time": 1786, "pitch": 54, "duration": 8, "velocity": 76}, {"time": 1790, "pitch": 52, "duration": 20, "velocity": 100}, {"time": 1814, "pitch": 39, "duration": 41, "velocity": 84}, {"time": 1814, "pitch": 63, "duration": 10, "velocity": 103}, {"time": 1818, "pitch": 47, "duration": 36, "velocity": 73}, {"time": 1822, "pitch": 54, "duration": 5, "velocity": 76}, {"time": 1826, "pitch": 59, "duration": 8, "velocity": 106}, {"time": 1830, "pitch": 57, "duration": 9, "velocity": 78}, {"time": 1834, "pitch": 54, "duration": 4, "velocity": 90}, {"time": 1838, "pitch": 59, "duration": 12, "velocity": 88}, {"time": 1862, "pitch": 37, "duration": 39, "velocity": 88}, {"time": 1866, "pitch": 44, "duration": 35, "velocity": 75}, {"time": 1870, "pitch": 49, "duration": 5, "velocity": 78}, {"time": 1874, "pitch": 54, "duration": 8, "velocity": 87}, {"time": 1878, "pitch": 49, "duration": 22, "velocity": 75}, {"time": 1882, "pitch": 56, "duration": 4, "velocity": 72}, {"time": 1886, "pitch": 53, "duration": 20, "velocity": 84}, {"time": 1886, "pitch": 61, "duration": 21, "velocity": 88}, {"time": 1910, "pitch": 38, "duration": 43, "velocity": 94}, {"time": 1914, "pitch": 45, "duration": 28, "velocity": 88}, {"time": 1918, "pitch": 50, "duration": 5, "velocity": 85}, {"time": 1922, "pitch": 62, "duration": 9, "velocity": 114}, {"time": 1926, "pitch": 50, "duration": 17, "velocity": 85}, {"time": 1930, "pitch": 57, "duration": 5, "velocity": 77}, {"time": 1934, "pitch": 54, "duration": 17, "velocity": 86}, {"time": 1942, "pitch": 62, "duration": 17, "velocity": 88}, {"time": 1946, "pitch": 45, "duration": 8, "velocity": 86}, {"time": 1950, "pitch": 50, "duration": 6, "velocity": 86}, {"time": 1954, "pitch": 54, "duration": 5, "velocity": 81}, {"time": 1958, "pitch": 42, "duration": 43, "velocity": 89}, {"time": 1962, "pitch": 49, "duration": 39, "velocity": 80}, {"time": 1966, "pitch": 54, "duration": 5, "velocity": 84}, {"time": 1970, "pitch": 56, "duration": 8, "velocity": 102}, {"time": 1970, "pitch": 61, "duration": 10, "velocity": 108}, {"time": 1974, "pitch": 54, "duration": 8, "velocity": 81}, {"time": 1978, "pitch": 57, "duration": 2, "velocity": 85}, {"time": 1982, "pitch": 57, "duration": 6, "velocity": 88}, {"time": 1982, "pitch": 66, "duration": 11, "velocity": 114}, {"time": 1990, "pitch": 54, "duration": 5, "velocity": 81}, {"time": 1994, "pitch": 61, "duration": 8, "velocity": 113}, {"time": 1998, "pitch": 54, "duration": 6, "velocity": 86}, {"time": 2002, "pitch": 66, "duration": 7, "velocity": 88}, {"time": 2006, "pitch": 38, "duration": 44, "velocity": 96}, {"time": 2010, "pitch": 45, "duration": 41, "velocity": 82}, {"time": 2014, "pitch": 50, "duration": 5, "velocity": 84}, {"time": 2018, "pitch": 62, "duration": 9, "velocity": 113}, {"time": 2022, "pitch": 50, "duration": 9, "velocity": 83}, {"time": 2026, "pitch": 57, "duration": 4, "velocity": 81}, {"time": 2030, "pitch": 54, "duration": 17, "velocity": 91}, {"time": 2034, "pitch": 50, "duration": 8, "velocity": 82}, {"time": 2038, "pitch": 57, "duration": 17, "velocity": 78}, {"time": 2042, "pitch": 62, "duration": 5, "velocity": 94}, {"time": 2046, "pitch": 50, "duration": 6, "velocity": 81}, {"time": 2050, "pitch": 54, "duration": 4, "velocity": 84}, {"time": 2054, "pitch": 49, "duration": 43, "velocity": 92}, {"time": 2058, "pitch": 56, "duration": 20, "velocity": 78}, {"time": 2062, "pitch": 61, "duration": 4, "velocity": 86}, {"time": 2066, "pitch": 66, "duration": 8, "velocity": 113}, {"time": 2070, "pitch": 61, "duration": 3, "velocity": 84}, {"time": 2074, "pitch": 68, "duration": 10, "velocity": 82}, {"time": 2078, "pitch": 64, "duration": 7, "velocity": 93}, {"time": 2082, "pitch": 56, "duration": 8, "velocity": 74}, {"time": 2086, "pitch": 59, "duration": 14, "velocity": 86}, {"time": 2090, "pitch": 64, "duration": 13, "velocity": 116}, {"time": 2094, "pitch": 56, "duration": 3, "velocity": 84}, {"time": 2098, "pitch": 61, "duration": 4, "velocity": 85}, {"time": 2102, "pitch": 47, "duration": 43, "velocity": 96}, {"time": 2106, "pitch": 54, "duration": 37, "velocity": 81}, {"time": 2110, "pitch": 59, "duration": 6, "velocity": 88}, {"time": 2114, "pitch": 66, "duration": 8, "velocity": 110}, {"time": 2118, "pitch": 59, "duration": 8, "velocity": 86}, {"time": 2122, "pitch": 63, "duration": 13, "velocity": 86}, {"time": 2126, "pitch": 71, "duration": 9, "velocity": 110}, {"time": 2134, "pitch": 66, "duration": 4, "velocity": 90}, {"time": 2138, "pitch": 59, "duration": 3, "velocity": 96}, {"time": 2142, "pitch": 61, "duration": 4, "velocity": 83}, {"time": 2146, "pitch": 63, "duration": 6, "velocity": 95}, {"time": 2150, "pitch": 37, "duration": 43, "velocity": 91}, {"time": 2154, "pitch": 49, "duration": 9, "velocity": 79}, {"time": 2158, "pitch": 56, "duration": 12, "velocity": 77}, {"time": 2162, "pitch": 64, "duration": 8, "velocity": 88}, {"time": 2166, "pitch": 49, "duration": 16, "velocity": 82}, {"time": 2170, "pitch": 61, "duration": 12, "velocity": 87}, {"time": 2174, "pitch": 56, "duration": 8, "velocity": 89}, {"time": 2174, "pitch": 64, "duration": 7, "velocity": 79}, {"time": 2182, "pitch": 56, "duration": 5, "velocity": 83}, {"time": 2182, "pitch": 61, "duration": 5, "velocity": 84}, {"time": 2182, "pitch": 64, "duration": 5, "velocity": 81}, {"time": 2186, "pitch": 49, "duration": 11, "velocity": 104}, {"time": 2190, "pitch": 56, "duration": 4, "velocity": 91}, {"time": 2194, "pitch": 64, "duration": 6, "velocity": 96}, {"time": 2198, "pitch": 35, "duration": 41, "velocity": 90}, {"time": 2202, "pitch": 47, "duration": 10, "velocity": 85}, {"time": 2206, "pitch": 54, "duration": 13, "velocity": 76}, {"time": 2210, "pitch": 63, "duration": 8, "velocity": 113}, {"time": 2214, "pitch": 47, "duration": 16, "velocity": 77}, {"time": 2218, "pitch": 59, "duration": 4, "velocity": 85}, {"time": 2222, "pitch": 54, "duration": 14, "velocity": 88}, {"time": 2222, "pitch": 63, "duration": 14, "velocity": 86}, {"time": 2230, "pitch": 59, "duration": 6, "velocity": 78}, {"time": 2234, "pitch": 47, "duration": 7, "velocity": 91}, {"time": 2238, "pitch": 54, "duration": 8, "velocity": 88}, {"time": 2242, "pitch": 63, "duration": 9, "velocity": 90}, {"time": 2246, "pitch": 42, "duration": 44, "velocity": 96}, {"time": 2250, "pitch": 49, "duration": 39, "velocity": 77}, {"time": 2254, "pitch": 54, "duration": 4, "velocity": 81}, {"time": 2258, "pitch": 57, "duration": 8, "velocity": 87}, {"time": 2258, "pitch": 61, "duration": 8, "velocity": 94}, {"time": 2258, "pitch": 66, "duration": 8, "velocity": 93}, {"time": 2266, "pitch": 54, "duration": 5, "velocity": 74}, {"time": 2270, "pitch": 57, "duration": 9, "velocity": 88}, {"time": 2270, "pitch": 61, "duration": 9, "velocity": 89}, {"time": 2270, "pitch": 66, "duration": 8, "velocity": 88}, {"time": 2278, "pitch": 54, "duration": 4, "velocity": 84}, {"time": 2282, "pitch": 57, "duration": 7, "velocity": 100}, {"time": 2282, "pitch": 66, "duration": 7, "velocity": 107}, {"time": 2286, "pitch": 54, "duration": 2, "velocity": 86}, {"time": 2290, "pitch": 57, "duration": 5, "velocity": 85}, {"time": 2290, "pitch": 61, "duration": 5, "velocity": 100}, {"time": 2290, "pitch": 66, "duration": 5, "velocity": 83}, {"time": 2294, "pitch": 47, "duration": 44, "velocity": 96}, {"time": 2298, "pitch": 54, "duration": 40, "velocity": 78}, {"time": 2302, "pitch": 59, "duration": 5, "velocity": 84}, {"time": 2306, "pitch": 66, "duration": 8, "velocity": 110}, {"time": 2306, "pitch": 71, "duration": 7, "velocity": 107}, {"time": 2310, "pitch": 59, "duration": 8, "velocity": 82}, {"time": 2314, "pitch": 62, "duration": 3, "velocity": 82}, {"time": 2318, "pitch": 66, "duration": 9, "velocity": 113}, {"time": 2318, "pitch": 71, "duration": 9, "velocity": 108}, {"time": 2326, "pitch": 59, "duration": 4, "velocity": 82}, {"time": 2330, "pitch": 62, "duration": 13, "velocity": 104}, {"time": 2330, "pitch": 71, "duration": 13, "velocity": 100}, {"time": 2334, "pitch": 59, "duration": 1, "velocity": 91}, {"time": 2338, "pitch": 66, "duration": 5, "velocity": 107}, {"time": 2342, "pitch": 42, "duration": 22, "velocity": 92}, {"time": 2346, "pitch": 49, "duration": 17, "velocity": 80}, {"time": 2350, "pitch": 54, "duration": 5, "velocity": 87}, {"time": 2354, "pitch": 57, "duration": 7, "velocity": 104}, {"time": 2354, "pitch": 66, "duration": 7, "velocity": 108}, {"time": 2358, "pitch": 54, "duration": 4, "velocity": 86}, {"time": 2362, "pitch": 57, "duration": 5, "velocity": 81}, {"time": 2362, "pitch": 61, "duration": 4, "velocity": 91}, {"time": 2362, "pitch": 66, "duration": 5, "velocity": 86}, {"time": 2366, "pitch": 49, "duration": 19, "velocity": 88}, {"time": 2370, "pitch": 56, "duration": 9, "velocity": 83}, {"time": 2374, "pitch": 61, "duration": 3, "velocity": 82}, {"time": 2378, "pitch": 64, "duration": 7, "velocity": 114}, {"time": 2378, "pitch": 68, "duration": 12, "velocity": 107}, {"time": 2382, "pitch": 56, "duration": 3, "velocity": 80}, {"time": 2386, "pitch": 61, "duration": 7, "velocity": 87}, {"time": 2390, "pitch": 42, "duration": 20, "velocity": 89}, {"time": 2394, "pitch": 49, "duration": 16, "velocity": 82}, {"time": 2398, "pitch": 54, "duration": 13, "velocity": 91}, {"time": 2402, "pitch": 57, "duration": 5, "velocity": 100}, {"time": 2406, "pitch": 61, "duration": 9, "velocity": 88}, {"time": 2410, "pitch": 66, "duration": 6, "velocity": 91}, {"time": 2414, "pitch": 40, "duration": 44, "velocity": 102}, {"time": 2418, "pitch": 47, "duration": 44, "velocity": 84}, {"time": 2422, "pitch": 52, "duration": 5, "velocity": 86}, {"time": 2426, "pitch": 59, "duration": 8, "velocity": 108}, {"time": 2426, "pitch": 64, "duration": 7, "velocity": 96}, {"time": 2430, "pitch": 52, "duration": 9, "velocity": 79}, {"time": 2434, "pitch": 56, "duration": 4, "velocity": 81}, {"time": 2438, "pitch": 59, "duration": 8, "velocity": 113}, {"time": 2438, "pitch": 64, "duration": 8, "velocity": 100}, {"time": 2446, "pitch": 52, "duration": 4, "velocity": 81}, {"time": 2450, "pitch": 56, "duration": 7, "velocity": 100}, {"time": 2450, "pitch": 64, "duration": 12, "velocity": 104}, {"time": 2454, "pitch": 52, "duration": 6, "velocity": 86}, {"time": 2458, "pitch": 56, "duration": 4, "velocity": 80}, {"time": 2458, "pitch": 59, "duration": 5, "velocity": 92}, {"time": 2462, "pitch": 42, "duration": 21, "velocity": 89}, {"time": 2466, "pitch": 49, "duration": 20, "velocity": 87}, {"time": 2470, "pitch": 54, "duration": 5, "velocity": 94}, {"time": 2474, "pitch": 61, "duration": 6, "velocity": 116}, {"time": 2474, "pitch": 66, "duration": 6, "velocity": 113}, {"time": 2478, "pitch": 54, "duration": 6, "velocity": 91}, {"time": 2482, "pitch": 57, "duration": 5, "velocity": 86}, {"time": 2486, "pitch": 42, "duration": 20, "velocity": 98}, {"time": 2486, "pitch": 61, "duration": 2, "velocity": 32}, {"time": 2486, "pitch": 66, "duration": 24, "velocity": 108}, {"time": 2490, "pitch": 49, "duration": 15, "velocity": 86}, {"time": 2494, "pitch": 54, "duration": 5, "velocity": 96}, {"time": 2498, "pitch": 56, "duration": 7, "velocity": 107}, {"time": 2502, "pitch": 54, "duration": 3, "velocity": 92}, {"time": 2506, "pitch": 57, "duration": 4, "velocity": 107}, {"time": 2510, "pitch": 38, "duration": 21, "velocity": 94}, {"time": 2514, "pitch": 45, "duration": 20, "velocity": 81}, {"time": 2518, "pitch": 50, "duration": 5, "velocity": 87}, {"time": 2522, "pitch": 57, "duration": 8, "velocity": 100}, {"time": 2522, "pitch": 62, "duration": 6, "velocity": 107}, {"time": 2526, "pitch": 50, "duration": 8, "velocity": 84}, {"time": 2530, "pitch": 54, "duration": 5, "velocity": 90}, {"time": 2534, "pitch": 38, "duration": 20, "velocity": 87}, {"time": 2534, "pitch": 57, "duration": 9, "velocity": 116}, {"time": 2534, "pitch": 62, "duration": 8, "velocity": 104}, {"time": 2538, "pitch": 45, "duration": 17, "velocity": 81}, {"time": 2542, "pitch": 50, "duration": 5, "velocity": 87}, {"time": 2546, "pitch": 57, "duration": 6, "velocity": 116}, {"time": 2546, "pitch": 62, "duration": 5, "velocity": 107}, {"time": 2550, "pitch": 50, "duration": 5, "velocity": 86}, {"time": 2554, "pitch": 54, "duration": 4, "velocity": 93}, {"time": 2554, "pitch": 57, "duration": 5, "velocity": 91}, {"time": 2554, "pitch": 62, "duration": 5, "velocity": 91}, {"time": 2558, "pitch": 47, "duration": 21, "velocity": 96}, {"time": 2562, "pitch": 54, "duration": 10, "velocity": 83}, {"time": 2566, "pitch": 59, "duration": 5, "velocity": 81}, {"time": 2570, "pitch": 62, "duration": 8, "velocity": 114}, {"time": 2570, "pitch": 66, "duration": 7, "velocity": 102}, {"time": 2574, "pitch": 54, "duration": 8, "velocity": 86}, {"time": 2578, "pitch": 59, "duration": 10, "velocity": 86}, {"time": 2582, "pitch": 47, "duration": 20, "velocity": 91}, {"time": 2586, "pitch": 54, "duration": 9, "velocity": 87}, {"time": 2590, "pitch": 59, "duration": 4, "velocity": 91}, {"time": 2594, "pitch": 62, "duration": 6, "velocity": 116}, {"time": 2594, "pitch": 66, "duration": 6, "velocity": 110}, {"time": 2598, "pitch": 54, "duration": 3, "velocity": 87}, {"time": 2602, "pitch": 59, "duration": 5, "velocity": 93}, {"time": 2602, "pitch": 62, "duration": 5, "velocity": 91}, {"time": 2602, "pitch": 66, "duration": 5, "velocity": 87}, {"time": 2606, "pitch": 40, "duration": 17, "velocity": 93}, {"time": 2610, "pitch": 47, "duration": 13, "velocity": 86}, {"time": 2614, "pitch": 52, "duration": 9, "velocity": 85}, {"time": 2618, "pitch": 56, "duration": 10, "velocity": 89}, {"time": 2622, "pitch": 59, "duration": 8, "velocity": 96}, {"time": 2626, "pitch": 64, "duration": 5, "velocity": 94}, {"time": 2630, "pitch": 49, "duration": 19, "velocity": 93}, {"time": 2634, "pitch": 56, "duration": 9, "velocity": 82}, {"time": 2638, "pitch": 61, "duration": 5, "velocity": 88}, {"time": 2642, "pitch": 68, "duration": 12, "velocity": 113}, {"time": 2646, "pitch": 56, "duration": 3, "velocity": 83}, {"time": 2650, "pitch": 64, "duration": 5, "velocity": 102}, {"time": 2654, "pitch": 40, "duration": 16, "velocity": 93}, {"time": 2658, "pitch": 47, "duration": 13, "velocity": 83}, {"time": 2662, "pitch": 52, "duration": 10, "velocity": 86}, {"time": 2666, "pitch": 56, "duration": 8, "velocity": 98}, {"time": 2670, "pitch": 59, "duration": 6, "velocity": 96}, {"time": 2674, "pitch": 64, "duration": 12, "velocity": 91}, {"time": 2678, "pitch": 49, "duration": 18, "velocity": 89}, {"time": 2678, "pitch": 61, "duration": 6, "velocity": 102}, {"time": 2686, "pitch": 56, "duration": 9, "velocity": 85}, {"time": 2690, "pitch": 61, "duration": 7, "velocity": 108}, {"time": 2694, "pitch": 64, "duration": 7, "velocity": 96}, {"time": 2698, "pitch": 69, "duration": 4, "velocity": 86}, {"time": 2702, "pitch": 42, "duration": 21, "velocity": 83}, {"time": 2702, "pitch": 61, "duration": 11, "velocity": 87}, {"time": 2702, "pitch": 66, "duration": 7, "velocity": 102}, {"time": 2706, "pitch": 49, "duration": 21, "velocity": 81}, {"time": 2710, "pitch": 54, "duration": 6, "velocity": 83}, {"time": 2714, "pitch": 57, "duration": 10, "velocity": 96}, {"time": 2714, "pitch": 66, "duration": 7, "velocity": 100}, {"time": 2718, "pitch": 54, "duration": 4, "velocity": 80}, {"time": 2722, "pitch": 61, "duration": 3, "velocity": 87}, {"time": 2722, "pitch": 66, "duration": 1, "velocity": 75}, {"time": 2726, "pitch": 42, "duration": 20, "velocity": 86}, {"time": 2726, "pitch": 57, "duration": 9, "velocity": 96}, {"time": 2726, "pitch": 66, "duration": 9, "velocity": 107}, {"time": 2730, "pitch": 49, "duration": 16, "velocity": 83}, {"time": 2734, "pitch": 54, "duration": 4, "velocity": 83}, {"time": 2738, "pitch": 57, "duration": 9, "velocity": 116}, {"time": 2738, "pitch": 66, "duration": 10, "velocity": 104}, {"time": 2742, "pitch": 54, "duration": 8, "velocity": 88}, {"time": 2746, "pitch": 61, "duration": 3, "velocity": 98}, {"time": 2750, "pitch": 47, "duration": 22, "velocity": 89}, {"time": 2750, "pitch": 59, "duration": 4, "velocity": 89}, {"time": 2750, "pitch": 62, "duration": 1, "velocity": 88}, {"time": 2750, "pitch": 66, "duration": 8, "velocity": 93}, {"time": 2754, "pitch": 54, "duration": 20, "velocity": 78}, {"time": 2758, "pitch": 59, "duration": 4, "velocity": 88}, {"time": 2762, "pitch": 62, "duration": 11, "velocity": 108}, {"time": 2762, "pitch": 71, "duration": 4, "velocity": 113}, {"time": 2766, "pitch": 59, "duration": 2, "velocity": 86}, {"time": 2770, "pitch": 59, "duration": 2, "velocity": 84}, {"time": 2774, "pitch": 47, "duration": 20, "velocity": 88}, {"time": 2774, "pitch": 59, "duration": 9, "velocity": 107}, {"time": 2774, "pitch": 66, "duration": 8, "velocity": 108}, {"time": 2778, "pitch": 54, "duration": 1, "velocity": 82}, {"time": 2782, "pitch": 54, "duration": 5, "velocity": 87}, {"time": 2786, "pitch": 59, "duration": 7, "velocity": 116}, {"time": 2786, "pitch": 66, "duration": 7, "velocity": 113}, {"time": 2790, "pitch": 54, "duration": 5, "velocity": 86}, {"time": 2794, "pitch": 59, "duration": 2, "velocity": 81}, {"time": 2794, "pitch": 62, "duration": 5, "velocity": 98}, {"time": 2794, "pitch": 66, "duration": 4, "velocity": 87}, {"time": 2798, "pitch": 40, "duration": 15, "velocity": 102}, {"time": 2802, "pitch": 47, "duration": 12, "velocity": 84}, {"time": 2806, "pitch": 52, "duration": 8, "velocity": 87}, {"time": 2810, "pitch": 56, "duration": 6, "velocity": 107}, {"time": 2814, "pitch": 59, "duration": 7, "velocity": 110}, {"time": 2818, "pitch": 64, "duration": 12, "velocity": 93}, {"time": 2822, "pitch": 37, "duration": 19, "velocity": 89}, {"time": 2822, "pitch": 56, "duration": 8, "velocity": 98}, {"time": 2822, "pitch": 61, "duration": 9, "velocity": 94}, {"time": 2830, "pitch": 49, "duration": 5, "velocity": 87}, {"time": 2834, "pitch": 56, "duration": 1, "velocity": 116}, {"time": 2834, "pitch": 64, "duration": 9, "velocity": 107}, {"time": 2838, "pitch": 49, "duration": 8, "velocity": 88}, {"time": 2842, "pitch": 61, "duration": 4, "velocity": 100}, {"time": 2846, "pitch": 40, "duration": 20, "velocity": 87}, {"time": 2846, "pitch": 56, "duration": 9, "velocity": 88}, {"time": 2846, "pitch": 59, "duration": 9, "velocity": 94}, {"time": 2846, "pitch": 64, "duration": 8, "velocity": 91}, {"time": 2850, "pitch": 47, "duration": 17, "velocity": 81}, {"time": 2854, "pitch": 52, "duration": 4, "velocity": 85}, {"time": 2858, "pitch": 56, "duration": 7, "velocity": 110}, {"time": 2858, "pitch": 64, "duration": 12, "velocity": 108}, {"time": 2862, "pitch": 52, "duration": 4, "velocity": 89}, {"time": 2866, "pitch": 59, "duration": 6, "velocity": 91}, {"time": 2870, "pitch": 42, "duration": 21, "velocity": 88}, {"time": 2874, "pitch": 49, "duration": 17, "velocity": 80}, {"time": 2878, "pitch": 54, "duration": 5, "velocity": 88}, {"time": 2882, "pitch": 56, "duration": 4, "velocity": 107}, {"time": 2886, "pitch": 54, "duration": 11, "velocity": 89}, {"time": 2886, "pitch": 57, "duration": 1, "velocity": 87}, {"time": 2890, "pitch": 61, "duration": 3, "velocity": 86}, {"time": 2894, "pitch": 38, "duration": 21, "velocity": 94}, {"time": 2898, "pitch": 45, "duration": 20, "velocity": 81}, {"time": 2902, "pitch": 50, "duration": 5, "velocity": 87}, {"time": 2906, "pitch": 57, "duration": 8, "velocity": 100}, {"time": 2906, "pitch": 62, "duration": 6, "velocity": 107}, {"time": 2910, "pitch": 50, "duration": 8, "velocity": 84}, {"time": 2914, "pitch": 54, "duration": 5, "velocity": 90}, {"time": 2918, "pitch": 38, "duration": 20, "velocity": 87}, {"time": 2918, "pitch": 57, "duration": 9, "velocity": 116}, {"time": 2918, "pitch": 62, "duration": 8, "velocity": 104}, {"time": 2922, "pitch": 45, "duration": 17, "velocity": 81}, {"time": 2926, "pitch": 50, "duration": 5, "velocity": 87}, {"time": 2930, "pitch": 57, "duration": 6, "velocity": 116}, {"time": 2930, "pitch": 62, "duration": 5, "velocity": 107}, {"time": 2934, "pitch": 50, "duration": 5, "velocity": 86}, {"time": 2938, "pitch": 54, "duration": 4, "velocity": 93}, {"time": 2938, "pitch": 57, "duration": 5, "velocity": 91}, {"time": 2938, "pitch": 62, "duration": 5, "velocity": 91}, {"time": 2942, "pitch": 47, "duration": 21, "velocity": 96}, {"time": 2946, "pitch": 54, "duration": 10, "velocity": 83}, {"time": 2950, "pitch": 59, "duration": 5, "velocity": 81}, {"time": 2954, "pitch": 62, "duration": 8, "velocity": 114}, {"time": 2954, "pitch": 66, "duration": 7, "velocity": 102}, {"time": 2958, "pitch": 54, "duration": 8, "velocity": 86}, {"time": 2962, "pitch": 59, "duration": 10, "velocity": 86}, {"time": 2966, "pitch": 47, "duration": 20, "velocity": 91}, {"time": 2970, "pitch": 54, "duration": 9, "velocity": 87}, {"time": 2974, "pitch": 59, "duration": 4, "velocity": 91}, {"time": 2978, "pitch": 62, "duration": 6, "velocity": 116}, {"time": 2978, "pitch": 66, "duration": 6, "velocity": 110}, {"time": 2982, "pitch": 54, "duration": 3, "velocity": 87}, {"time": 2986, "pitch": 59, "duration": 5, "velocity": 93}, {"time": 2986, "pitch": 62, "duration": 5, "velocity": 91}, {"time": 2986, "pitch": 66, "duration": 5, "velocity": 87}, {"time": 2990, "pitch": 40, "duration": 17, "velocity": 93}, {"time": 2994, "pitch": 47, "duration": 13, "velocity": 86}, {"time": 2998, "pitch": 52, "duration": 9, "velocity": 85}, {"time": 3002, "pitch": 56, "duration": 10, "velocity": 89}, {"time": 3006, "pitch": 59, "duration": 8, "velocity": 96}, {"time": 3010, "pitch": 64, "duration": 5, "velocity": 94}, {"time": 3014, "pitch": 49, "duration": 19, "velocity": 93}, {"time": 3018, "pitch": 56, "duration": 9, "velocity": 82}, {"time": 3022, "pitch": 61, "duration": 5, "velocity": 88}, {"time": 3026, "pitch": 68, "duration": 12, "velocity": 113}, {"time": 3030, "pitch": 56, "duration": 3, "velocity": 83}, {"time": 3034, "pitch": 64, "duration": 5, "velocity": 102}, {"time": 3038, "pitch": 40, "duration": 16, "velocity": 93}, {"time": 3042, "pitch": 47, "duration": 13, "velocity": 83}, {"time": 3046, "pitch": 52, "duration": 10, "velocity": 86}, {"time": 3050, "pitch": 56, "duration": 8, "velocity": 98}, {"time": 3054, "pitch": 59, "duration": 6, "velocity": 96}, {"time": 3058, "pitch": 64, "duration": 12, "velocity": 91}, {"time": 3062, "pitch": 49, "duration": 18, "velocity": 89}, {"time": 3062, "pitch": 61, "duration": 6, "velocity": 102}, {"time": 3070, "pitch": 56, "duration": 9, "velocity": 85}, {"time": 3074, "pitch": 61, "duration": 7, "velocity": 108}, {"time": 3078, "pitch": 64, "duration": 7, "velocity": 96}, {"time": 3082, "pitch": 69, "duration": 4, "velocity": 86}, {"time": 3086, "pitch": 42, "duration": 21, "velocity": 83}, {"time": 3086, "pitch": 61, "duration": 11, "velocity": 87}, {"time": 3086, "pitch": 66, "duration": 7, "velocity": 102}, {"time": 3090, "pitch": 49, "duration": 21, "velocity": 81}, {"time": 3094, "pitch": 54, "duration": 6, "velocity": 83}, {"time": 3098, "pitch": 57, "duration": 10, "velocity": 96}, {"time": 3098, "pitch": 66, "duration": 7, "velocity": 100}, {"time": 3102, "pitch": 54, "duration": 4, "velocity": 80}, {"time": 3106, "pitch": 61, "duration": 3, "velocity": 87}, {"time": 3106, "pitch": 66, "duration": 1, "velocity": 75}, {"time": 3110, "pitch": 42, "duration": 20, "velocity": 86}, {"time": 3110, "pitch": 57, "duration": 9, "velocity": 96}, {"time": 3110, "pitch": 66, "duration": 9, "velocity": 107}, {"time": 3114, "pitch": 49, "duration": 16, "velocity": 83}, {"time": 3118, "pitch": 54, "duration": 4, "velocity": 83}, {"time": 3122, "pitch": 57, "duration": 9, "velocity": 116}, {"time": 3122, "pitch": 66, "duration": 10, "velocity": 104}, {"time": 3126, "pitch": 54, "duration": 8, "velocity": 88}, {"time": 3130, "pitch": 61, "duration": 3, "velocity": 98}, {"time": 3134, "pitch": 47, "duration": 22, "velocity": 89}, {"time": 3134, "pitch": 59, "duration": 4, "velocity": 89}, {"time": 3134, "pitch": 62, "duration": 1, "velocity": 88}, {"time": 3134, "pitch": 66, "duration": 8, "velocity": 93}, {"time": 3138, "pitch": 54, "duration": 20, "velocity": 78}, {"time": 3142, "pitch": 59, "duration": 4, "velocity": 88}, {"time": 3146, "pitch": 62, "duration": 11, "velocity": 108}, {"time": 3146, "pitch": 71, "duration": 4, "velocity": 113}, {"time": 3150, "pitch": 59, "duration": 2, "velocity": 86}, {"time": 3154, "pitch": 59, "duration": 2, "velocity": 84}, {"time": 3158, "pitch": 47, "duration": 20, "velocity": 88}, {"time": 3158, "pitch": 59, "duration": 9, "velocity": 107}, {"time": 3158, "pitch": 66, "duration": 8, "velocity": 108}, {"time": 3162, "pitch": 54, "duration": 1, "velocity": 82}, {"time": 3166, "pitch": 54, "duration": 5, "velocity": 87}, {"time": 3170, "pitch": 59, "duration": 7, "velocity": 116}, {"time": 3170, "pitch": 66, "duration": 7, "velocity": 113}, {"time": 3174, "pitch": 54, "duration": 5, "velocity": 86}, {"time": 3178, "pitch": 59, "duration": 2, "velocity": 81}, {"time": 3178, "pitch": 62, "duration": 5, "velocity": 98}, {"time": 3178, "pitch": 66, "duration": 4, "velocity": 87}, {"time": 3182, "pitch": 40, "duration": 15, "velocity": 102}, {"time": 3186, "pitch": 47, "duration": 12, "velocity": 84}, {"time": 3190, "pitch": 52, "duration": 8, "velocity": 87}, {"time": 3194, "pitch": 56, "duration": 6, "velocity": 107}, {"time": 3198, "pitch": 59, "duration": 7, "velocity": 110}, {"time": 3202, "pitch": 64, "duration": 12, "velocity": 93}, {"time": 3206, "pitch": 37, "duration": 19, "velocity": 89}, {"time": 3206, "pitch": 56, "duration": 8, "velocity": 98}, {"time": 3206, "pitch": 61, "duration": 9, "velocity": 94}, {"time": 3214, "pitch": 49, "duration": 5, "velocity": 87}, {"time": 3218, "pitch": 56, "duration": 1, "velocity": 116}, {"time": 3218, "pitch": 64, "duration": 9, "velocity": 107}, {"time": 3222, "pitch": 49, "duration": 8, "velocity": 88}, {"time": 3226, "pitch": 61, "duration": 4, "velocity": 100}, {"time": 3230, "pitch": 40, "duration": 20, "velocity": 87}, {"time": 3230, "pitch": 56, "duration": 9, "velocity": 88}, {"time": 3230, "pitch": 59, "duration": 9, "velocity": 94}, {"time": 3230, "pitch": 64, "duration": 8, "velocity": 91}, {"time": 3234, "pitch": 47, "duration": 17, "velocity": 81}, {"time": 3238, "pitch": 52, "duration": 4, "velocity": 85}, {"time": 3242, "pitch": 56, "duration": 7, "velocity": 110}, {"time": 3242, "pitch": 64, "duration": 12, "velocity": 108}, {"time": 3246, "pitch": 52, "duration": 4, "velocity": 89}, {"time": 3250, "pitch": 59, "duration": 6, "velocity": 91}, {"time": 3254, "pitch": 42, "duration": 38, "velocity": 88}, {"time": 3258, "pitch": 49, "duration": 34, "velocity": 80}, {"time": 3262, "pitch": 54, "duration": 5, "velocity": 88}, {"time": 3266, "pitch": 56, "duration": 4, "velocity": 107}, {"time": 3270, "pitch": 54, "duration": 11, "velocity": 89}, {"time": 3270, "pitch": 57, "duration": 1, "velocity": 87}, {"time": 3274, "pitch": 61, "duration": 3, "velocity": 86}, {"time": 3278, "pitch": 42, "duration": 14, "velocity": 83}, {"time": 3278, "pitch": 61, "duration": 11, "velocity": 87}, {"time": 3278, "pitch": 66, "duration": 7, "velocity": 102}, {"time": 3282, "pitch": 49, "duration": 10, "velocity": 81}, {"time": 3286, "pitch": 54, "duration": 6, "velocity": 83}, {"time": 3290, "pitch": 57, "duration": 10, "velocity": 96}, {"time": 3290, "pitch": 66, "duration": 7, "velocity": 100}, {"time": 3294, "pitch": 54, "duration": 4, "velocity": 80}, {"time": 3298, "pitch": 61, "duration": 3, "velocity": 87}, {"time": 3298, "pitch": 66, "duration": 1, "velocity": 75}, {"time": 3302, "pitch": 42, "duration": 20, "velocity": 86}, {"time": 3302, "pitch": 57, "duration": 9, "velocity": 96}, {"time": 3302, "pitch": 66, "duration": 9, "velocity": 107}, {"time": 3306, "pitch": 49, "duration": 16, "velocity": 83}, {"time": 3310, "pitch": 54, "duration": 4, "velocity": 83}, {"time": 3314, "pitch": 57, "duration": 9, "velocity": 116}, {"time": 3314, "pitch": 66, "duration": 10, "velocity": 104}, {"time": 3318, "pitch": 54, "duration": 8, "velocity": 88}, {"time": 3322, "pitch": 61, "duration": 3, "velocity": 98}, {"time": 3326, "pitch": 47, "duration": 22, "velocity": 89}, {"time": 3326, "pitch": 59, "duration": 4, "velocity": 89}, {"time": 3326, "pitch": 62, "duration": 1, "velocity": 88}, {"time": 3326, "pitch": 66, "duration": 8, "velocity": 93}, {"time": 3330, "pitch": 54, "duration": 20, "velocity": 78}, {"time": 3334, "pitch": 59, "duration": 4, "velocity": 88}, {"time": 3338, "pitch": 62, "duration": 11, "velocity": 108}, {"time": 3338, "pitch": 71, "duration": 4, "velocity": 113}, {"time": 3342, "pitch": 59, "duration": 2, "velocity": 86}, {"time": 3346, "pitch": 59, "duration": 2, "velocity": 84}, {"time": 3350, "pitch": 47, "duration": 20, "velocity": 88}, {"time": 3350, "pitch": 59, "duration": 9, "velocity": 107}, {"time": 3350, "pitch": 66, "duration": 8, "velocity": 108}, {"time": 3354, "pitch": 54, "duration": 1, "velocity": 82}, {"time": 3358, "pitch": 54, "duration": 5, "velocity": 87}, {"time": 3362, "pitch": 59, "duration": 7, "velocity": 116}, {"time": 3362, "pitch": 66, "duration": 7, "velocity": 113}, {"time": 3366, "pitch": 54, "duration": 5, "velocity": 86}, {"time": 3370, "pitch": 59, "duration": 2, "velocity": 81}, {"time": 3370, "pitch": 62, "duration": 5, "velocity": 98}, {"time": 3370, "pitch": 66, "duration": 4, "velocity": 87}, {"time": 3374, "pitch": 40, "duration": 15, "velocity": 102}, {"time": 3378, "pitch": 47, "duration": 12, "velocity": 84}, {"time": 3382, "pitch": 52, "duration": 8, "velocity": 87}, {"time": 3386, "pitch": 56, "duration": 6, "velocity": 107}, {"time": 3390, "pitch": 59, "duration": 7, "velocity": 110}, {"time": 3394, "pitch": 64, "duration": 12, "velocity": 93}, {"time": 3398, "pitch": 37, "duration": 19, "velocity": 89}, {"time": 3398, "pitch": 56, "duration": 8, "velocity": 98}, {"time": 3398, "pitch": 61, "duration": 9, "velocity": 94}, {"time": 3406, "pitch": 49, "duration": 5, "velocity": 87}, {"time": 3410, "pitch": 56, "duration": 1, "velocity": 116}, {"time": 3410, "pitch": 64, "duration": 9, "velocity": 107}, {"time": 3414, "pitch": 49, "duration": 8, "velocity": 88}, {"time": 3418, "pitch": 61, "duration": 4, "velocity": 100}, {"time": 3422, "pitch": 40, "duration": 20, "velocity": 87}, {"time": 3422, "pitch": 56, "duration": 9, "velocity": 88}, {"time": 3422, "pitch": 59, "duration": 9, "velocity": 94}, {"time": 3422, "pitch": 64, "duration": 8, "velocity": 91}, {"time": 3426, "pitch": 47, "duration": 17, "velocity": 81}, {"time": 3430, "pitch": 52, "duration": 4, "velocity": 85}, {"time": 3434, "pitch": 56, "duration": 7, "velocity": 110}, {"time": 3434, "pitch": 64, "duration": 12, "velocity": 108}, {"time": 3438, "pitch": 52, "duration": 4, "velocity": 89}, {"time": 3480, "pitch": 42, "duration": 66, "velocity": 88}, {"time": 3484, "pitch": 49, "duration": 63, "velocity": 70}, {"time": 3488, "pitch": 54, "duration": 58, "velocity": 81}, {"time": 3492, "pitch": 56, "duration": 5, "velocity": 82}, {"time": 3496, "pitch": 57, "duration": 4, "velocity": 78}, {"time": 3499, "pitch": 61, "duration": 1, "velocity": 80}, {"time": 3503, "pitch": 66, "duration": 4, "velocity": 86}, {"time": 3507, "pitch": 68, "duration": 2, "velocity": 86}, {"time": 3511, "pitch": 69, "duration": 5, "velocity": 78}, {"time": 3516, "pitch": 73, "duration": 4, "velocity": 71}, {"time": 3520, "pitch": 78, "duration": 4, "velocity": 71}, {"time": 3524, "pitch": 81, "duration": 2, "velocity": 73}, {"time": 3530, "pitch": 85, "duration": 1, "velocity": 83}, {"time": 3539, "pitch": 78, "duration": 3, "velocity": 76}, {"time": 3541, "pitch": 81, "duration": 2, "velocity": 78}, {"time": 3542, "pitch": 90, "duration": 3, "velocity": 104}]}]}