{"metadata": {"schema_version": "0.2", "title": "None", "source_filename": "312.mid", "source_format": "midi"}, "resolution": 12, "tempos": [{"time": 0, "qpm": 98.00030380094178}], "time_signatures": [{"time": 0, "numerator": 4, "denominator": 4}], "tracks": [{"program": 0, "is_drum": false, "name": "MELODY", "notes": [{"time": 334, "pitch": 64, "duration": 6, "velocity": 107}, {"time": 340, "pitch": 64, "duration": 6, "velocity": 110}, {"time": 346, "pitch": 64, "duration": 6, "velocity": 104}, {"time": 352, "pitch": 64, "duration": 6, "velocity": 114}, {"time": 358, "pitch": 65, "duration": 6, "velocity": 110}, {"time": 364, "pitch": 67, "duration": 6, "velocity": 117}, {"time": 370, "pitch": 67, "duration": 18, "velocity": 117}, {"time": 388, "pitch": 69, "duration": 6, "velocity": 108}, {"time": 394, "pitch": 60, "duration": 12, "velocity": 107}, {"time": 406, "pitch": 62, "duration": 30, "velocity": 110}, {"time": 436, "pitch": 64, "duration": 6, "velocity": 114}, {"time": 442, "pitch": 64, "duration": 6, "velocity": 108}, {"time": 448, "pitch": 64, "duration": 6, "velocity": 107}, {"time": 454, "pitch": 65, "duration": 6, "velocity": 114}, {"time": 460, "pitch": 67, "duration": 12, "velocity": 110}, {"time": 472, "pitch": 67, "duration": 12, "velocity": 114}, {"time": 484, "pitch": 72, "duration": 6, "velocity": 114}, {"time": 490, "pitch": 71, "duration": 12, "velocity": 116}, {"time": 502, "pitch": 67, "duration": 18, "velocity": 116}, {"time": 520, "pitch": 69, "duration": 24, "velocity": 113}, {"time": 544, "pitch": 65, "duration": 6, "velocity": 113}, {"time": 550, "pitch": 64, "duration": 6, "velocity": 93}, {"time": 556, "pitch": 62, "duration": 6, "velocity": 98}, {"time": 562, "pitch": 69, "duration": 6, "velocity": 114}, {"time": 568, "pitch": 67, "duration": 18, "velocity": 114}, {"time": 586, "pitch": 67, "duration": 6, "velocity": 114}, {"time": 592, "pitch": 60, "duration": 18, "velocity": 114}, {"time": 610, "pitch": 67, "duration": 6, "velocity": 113}, {"time": 616, "pitch": 67, "duration": 6, "velocity": 110}, {"time": 622, "pitch": 65, "duration": 6, "velocity": 107}, {"time": 628, "pitch": 65, "duration": 6, "velocity": 113}, {"time": 634, "pitch": 64, "duration": 6, "velocity": 110}, {"time": 640, "pitch": 65, "duration": 6, "velocity": 116}, {"time": 646, "pitch": 72, "duration": 6, "velocity": 108}, {"time": 652, "pitch": 72, "duration": 12, "velocity": 88}, {"time": 664, "pitch": 64, "duration": 6, "velocity": 104}, {"time": 670, "pitch": 62, "duration": 48, "velocity": 98}, {"time": 718, "pitch": 64, "duration": 6, "velocity": 107}, {"time": 724, "pitch": 64, "duration": 6, "velocity": 110}, {"time": 730, "pitch": 64, "duration": 6, "velocity": 104}, {"time": 736, "pitch": 64, "duration": 6, "velocity": 114}, {"time": 742, "pitch": 65, "duration": 6, "velocity": 110}, {"time": 748, "pitch": 67, "duration": 6, "velocity": 117}, {"time": 754, "pitch": 67, "duration": 18, "velocity": 117}, {"time": 772, "pitch": 69, "duration": 6, "velocity": 108}, {"time": 778, "pitch": 60, "duration": 12, "velocity": 107}, {"time": 790, "pitch": 62, "duration": 30, "velocity": 110}, {"time": 820, "pitch": 64, "duration": 6, "velocity": 114}, {"time": 826, "pitch": 64, "duration": 6, "velocity": 108}, {"time": 832, "pitch": 64, "duration": 6, "velocity": 107}, {"time": 838, "pitch": 65, "duration": 6, "velocity": 114}, {"time": 844, "pitch": 67, "duration": 12, "velocity": 110}, {"time": 856, "pitch": 67, "duration": 12, "velocity": 114}, {"time": 868, "pitch": 72, "duration": 6, "velocity": 114}, {"time": 874, "pitch": 71, "duration": 12, "velocity": 116}, {"time": 886, "pitch": 67, "duration": 18, "velocity": 116}, {"time": 904, "pitch": 69, "duration": 24, "velocity": 113}, {"time": 928, "pitch": 65, "duration": 6, "velocity": 113}, {"time": 934, "pitch": 64, "duration": 6, "velocity": 93}, {"time": 940, "pitch": 62, "duration": 6, "velocity": 98}, {"time": 946, "pitch": 69, "duration": 6, "velocity": 114}, {"time": 952, "pitch": 67, "duration": 12, "velocity": 114}, {"time": 964, "pitch": 67, "duration": 6, "velocity": 116}, {"time": 970, "pitch": 74, "duration": 12, "velocity": 119}, {"time": 982, "pitch": 72, "duration": 12, "velocity": 120}, {"time": 994, "pitch": 64, "duration": 6, "velocity": 110}, {"time": 1000, "pitch": 67, "duration": 6, "velocity": 114}, {"time": 1006, "pitch": 65, "duration": 6, "velocity": 110}, {"time": 1012, "pitch": 65, "duration": 6, "velocity": 114}, {"time": 1018, "pitch": 64, "duration": 6, "velocity": 113}, {"time": 1024, "pitch": 65, "duration": 6, "velocity": 114}, {"time": 1030, "pitch": 67, "duration": 6, "velocity": 108}, {"time": 1036, "pitch": 67, "duration": 6, "velocity": 113}, {"time": 1042, "pitch": 69, "duration": 6, "velocity": 119}, {"time": 1048, "pitch": 69, "duration": 6, "velocity": 119}, {"time": 1054, "pitch": 67, "duration": 6, "velocity": 100}, {"time": 1060, "pitch": 67, "duration": 6, "velocity": 117}, {"time": 1066, "pitch": 74, "duration": 6, "velocity": 114}, {"time": 1072, "pitch": 74, "duration": 12, "velocity": 116}, {"time": 1084, "pitch": 72, "duration": 6, "velocity": 114}, {"time": 1090, "pitch": 74, "duration": 6, "velocity": 116}, {"time": 1096, "pitch": 76, "duration": 6, "velocity": 117}, {"time": 1102, "pitch": 67, "duration": 6, "velocity": 113}, {"time": 1108, "pitch": 72, "duration": 6, "velocity": 113}, {"time": 1114, "pitch": 76, "duration": 6, "velocity": 116}, {"time": 1120, "pitch": 74, "duration": 6, "velocity": 116}, {"time": 1126, "pitch": 67, "duration": 6, "velocity": 113}, {"time": 1132, "pitch": 71, "duration": 6, "velocity": 113}, {"time": 1138, "pitch": 74, "duration": 6, "velocity": 114}, {"time": 1144, "pitch": 72, "duration": 9, "velocity": 116}, {"time": 1153, "pitch": 72, "duration": 9, "velocity": 114}, {"time": 1162, "pitch": 72, "duration": 6, "velocity": 108}, {"time": 1168, "pitch": 72, "duration": 12, "velocity": 114}, {"time": 1180, "pitch": 72, "duration": 6, "velocity": 114}, {"time": 1186, "pitch": 67, "duration": 6, "velocity": 114}, {"time": 1192, "pitch": 69, "duration": 6, "velocity": 114}, {"time": 1198, "pitch": 72, "duration": 6, "velocity": 108}, {"time": 1204, "pitch": 72, "duration": 6, "velocity": 108}, {"time": 1210, "pitch": 69, "duration": 6, "velocity": 102}, {"time": 1216, "pitch": 67, "duration": 6, "velocity": 116}, {"time": 1222, "pitch": 67, "duration": 6, "velocity": 114}, {"time": 1228, "pitch": 72, "duration": 6, "velocity": 110}, {"time": 1234, "pitch": 76, "duration": 6, "velocity": 116}, {"time": 1240, "pitch": 77, "duration": 6, "velocity": 114}, {"time": 1246, "pitch": 76, "duration": 7, "velocity": 110}, {"time": 1252, "pitch": 74, "duration": 6, "velocity": 116}, {"time": 1258, "pitch": 72, "duration": 6, "velocity": 108}, {"time": 1264, "pitch": 74, "duration": 12, "velocity": 119}, {"time": 1276, "pitch": 72, "duration": 6, "velocity": 110}, {"time": 1282, "pitch": 74, "duration": 6, "velocity": 104}, {"time": 1288, "pitch": 76, "duration": 6, "velocity": 116}, {"time": 1294, "pitch": 76, "duration": 6, "velocity": 110}, {"time": 1300, "pitch": 76, "duration": 6, "velocity": 116}, {"time": 1306, "pitch": 68, "duration": 6, "velocity": 119}, {"time": 1312, "pitch": 68, "duration": 6, "velocity": 116}, {"time": 1318, "pitch": 68, "duration": 6, "velocity": 116}, {"time": 1324, "pitch": 69, "duration": 6, "velocity": 108}, {"time": 1330, "pitch": 71, "duration": 6, "velocity": 107}, {"time": 1336, "pitch": 74, "duration": 9, "velocity": 117}, {"time": 1345, "pitch": 76, "duration": 9, "velocity": 116}, {"time": 1354, "pitch": 74, "duration": 6, "velocity": 113}, {"time": 1360, "pitch": 72, "duration": 12, "velocity": 114}, {"time": 1372, "pitch": 72, "duration": 6, "velocity": 114}, {"time": 1378, "pitch": 79, "duration": 6, "velocity": 116}, {"time": 1384, "pitch": 79, "duration": 9, "velocity": 119}, {"time": 1393, "pitch": 77, "duration": 9, "velocity": 116}, {"time": 1402, "pitch": 76, "duration": 6, "velocity": 114}, {"time": 1408, "pitch": 72, "duration": 12, "velocity": 116}, {"time": 1420, "pitch": 69, "duration": 6, "velocity": 114}, {"time": 1426, "pitch": 76, "duration": 6, "velocity": 116}, {"time": 1432, "pitch": 77, "duration": 6, "velocity": 117}, {"time": 1438, "pitch": 76, "duration": 6, "velocity": 117}, {"time": 1444, "pitch": 74, "duration": 6, "velocity": 113}, {"time": 1450, "pitch": 72, "duration": 6, "velocity": 114}, {"time": 1456, "pitch": 74, "duration": 12, "velocity": 116}, {"time": 1468, "pitch": 72, "duration": 6, "velocity": 114}, {"time": 1474, "pitch": 74, "duration": 6, "velocity": 116}, {"time": 1480, "pitch": 76, "duration": 6, "velocity": 117}, {"time": 1486, "pitch": 67, "duration": 6, "velocity": 113}, {"time": 1492, "pitch": 72, "duration": 6, "velocity": 113}, {"time": 1498, "pitch": 76, "duration": 6, "velocity": 116}, {"time": 1504, "pitch": 74, "duration": 6, "velocity": 116}, {"time": 1510, "pitch": 67, "duration": 6, "velocity": 113}, {"time": 1516, "pitch": 71, "duration": 6, "velocity": 113}, {"time": 1522, "pitch": 74, "duration": 6, "velocity": 114}, {"time": 1528, "pitch": 72, "duration": 9, "velocity": 116}, {"time": 1537, "pitch": 72, "duration": 9, "velocity": 114}, {"time": 1546, "pitch": 72, "duration": 6, "velocity": 108}, {"time": 1552, "pitch": 72, "duration": 12, "velocity": 114}, {"time": 1564, "pitch": 72, "duration": 6, "velocity": 114}, {"time": 1570, "pitch": 67, "duration": 6, "velocity": 114}, {"time": 1576, "pitch": 69, "duration": 6, "velocity": 114}, {"time": 1582, "pitch": 72, "duration": 6, "velocity": 108}, {"time": 1588, "pitch": 72, "duration": 6, "velocity": 108}, {"time": 1594, "pitch": 69, "duration": 6, "velocity": 102}, {"time": 1600, "pitch": 67, "duration": 6, "velocity": 116}, {"time": 1606, "pitch": 67, "duration": 6, "velocity": 114}, {"time": 1612, "pitch": 72, "duration": 6, "velocity": 110}, {"time": 1618, "pitch": 76, "duration": 6, "velocity": 116}, {"time": 1624, "pitch": 77, "duration": 6, "velocity": 114}, {"time": 1630, "pitch": 76, "duration": 7, "velocity": 110}, {"time": 1636, "pitch": 74, "duration": 6, "velocity": 116}, {"time": 1642, "pitch": 72, "duration": 6, "velocity": 108}, {"time": 1648, "pitch": 74, "duration": 12, "velocity": 119}, {"time": 1660, "pitch": 72, "duration": 6, "velocity": 110}, {"time": 1666, "pitch": 74, "duration": 6, "velocity": 104}, {"time": 1672, "pitch": 76, "duration": 6, "velocity": 116}, {"time": 1678, "pitch": 76, "duration": 6, "velocity": 110}, {"time": 1684, "pitch": 76, "duration": 6, "velocity": 116}, {"time": 1690, "pitch": 68, "duration": 6, "velocity": 119}, {"time": 1696, "pitch": 68, "duration": 6, "velocity": 116}, {"time": 1702, "pitch": 68, "duration": 6, "velocity": 116}, {"time": 1708, "pitch": 69, "duration": 6, "velocity": 108}, {"time": 1714, "pitch": 71, "duration": 6, "velocity": 107}, {"time": 1720, "pitch": 74, "duration": 9, "velocity": 117}, {"time": 1729, "pitch": 76, "duration": 9, "velocity": 116}, {"time": 1738, "pitch": 74, "duration": 6, "velocity": 113}, {"time": 1744, "pitch": 72, "duration": 12, "velocity": 114}, {"time": 1756, "pitch": 72, "duration": 6, "velocity": 114}, {"time": 1762, "pitch": 79, "duration": 6, "velocity": 116}, {"time": 1768, "pitch": 79, "duration": 9, "velocity": 119}, {"time": 1777, "pitch": 77, "duration": 9, "velocity": 116}, {"time": 1786, "pitch": 76, "duration": 6, "velocity": 114}, {"time": 1792, "pitch": 72, "duration": 18, "velocity": 116}, {"time": 1810, "pitch": 67, "duration": 6, "velocity": 110}, {"time": 1816, "pitch": 79, "duration": 6, "velocity": 114}, {"time": 1822, "pitch": 77, "duration": 6, "velocity": 114}, {"time": 1828, "pitch": 77, "duration": 6, "velocity": 110}, {"time": 1834, "pitch": 76, "duration": 6, "velocity": 116}, {"time": 1840, "pitch": 72, "duration": 9, "velocity": 117}, {"time": 1849, "pitch": 67, "duration": 9, "velocity": 117}, {"time": 1858, "pitch": 74, "duration": 12, "velocity": 116}, {"time": 1870, "pitch": 72, "duration": 10, "velocity": 117}, {"time": 2062, "pitch": 64, "duration": 6, "velocity": 107}, {"time": 2068, "pitch": 64, "duration": 6, "velocity": 110}, {"time": 2074, "pitch": 64, "duration": 6, "velocity": 104}, {"time": 2080, "pitch": 64, "duration": 6, "velocity": 114}, {"time": 2086, "pitch": 65, "duration": 6, "velocity": 110}, {"time": 2092, "pitch": 67, "duration": 6, "velocity": 117}, {"time": 2098, "pitch": 67, "duration": 18, "velocity": 117}, {"time": 2116, "pitch": 69, "duration": 6, "velocity": 108}, {"time": 2122, "pitch": 60, "duration": 12, "velocity": 107}, {"time": 2134, "pitch": 62, "duration": 30, "velocity": 110}, {"time": 2164, "pitch": 64, "duration": 6, "velocity": 114}, {"time": 2170, "pitch": 64, "duration": 6, "velocity": 108}, {"time": 2176, "pitch": 64, "duration": 6, "velocity": 107}, {"time": 2182, "pitch": 65, "duration": 6, "velocity": 114}, {"time": 2188, "pitch": 67, "duration": 12, "velocity": 110}, {"time": 2200, "pitch": 67, "duration": 12, "velocity": 114}, {"time": 2212, "pitch": 72, "duration": 6, "velocity": 114}, {"time": 2218, "pitch": 71, "duration": 12, "velocity": 116}, {"time": 2230, "pitch": 67, "duration": 18, "velocity": 116}, {"time": 2248, "pitch": 69, "duration": 24, "velocity": 113}, {"time": 2272, "pitch": 65, "duration": 6, "velocity": 113}, {"time": 2278, "pitch": 64, "duration": 6, "velocity": 93}, {"time": 2284, "pitch": 62, "duration": 6, "velocity": 98}, {"time": 2290, "pitch": 69, "duration": 6, "velocity": 114}, {"time": 2296, "pitch": 67, "duration": 12, "velocity": 114}, {"time": 2308, "pitch": 67, "duration": 6, "velocity": 116}, {"time": 2314, "pitch": 74, "duration": 12, "velocity": 119}, {"time": 2326, "pitch": 72, "duration": 12, "velocity": 120}, {"time": 2338, "pitch": 64, "duration": 6, "velocity": 110}, {"time": 2344, "pitch": 67, "duration": 6, "velocity": 114}, {"time": 2350, "pitch": 65, "duration": 6, "velocity": 110}, {"time": 2356, "pitch": 65, "duration": 6, "velocity": 114}, {"time": 2362, "pitch": 64, "duration": 6, "velocity": 113}, {"time": 2368, "pitch": 65, "duration": 6, "velocity": 114}, {"time": 2374, "pitch": 67, "duration": 6, "velocity": 108}, {"time": 2380, "pitch": 67, "duration": 6, "velocity": 113}, {"time": 2386, "pitch": 69, "duration": 6, "velocity": 119}, {"time": 2392, "pitch": 69, "duration": 6, "velocity": 119}, {"time": 2398, "pitch": 67, "duration": 6, "velocity": 100}, {"time": 2404, "pitch": 67, "duration": 6, "velocity": 117}, {"time": 2410, "pitch": 74, "duration": 6, "velocity": 114}, {"time": 2416, "pitch": 74, "duration": 12, "velocity": 116}, {"time": 2428, "pitch": 72, "duration": 6, "velocity": 114}, {"time": 2434, "pitch": 74, "duration": 6, "velocity": 116}, {"time": 2440, "pitch": 76, "duration": 6, "velocity": 117}, {"time": 2446, "pitch": 67, "duration": 6, "velocity": 113}, {"time": 2452, "pitch": 72, "duration": 6, "velocity": 113}, {"time": 2458, "pitch": 76, "duration": 6, "velocity": 116}, {"time": 2464, "pitch": 74, "duration": 6, "velocity": 116}, {"time": 2470, "pitch": 67, "duration": 6, "velocity": 113}, {"time": 2476, "pitch": 71, "duration": 6, "velocity": 113}, {"time": 2482, "pitch": 74, "duration": 6, "velocity": 114}, {"time": 2488, "pitch": 72, "duration": 9, "velocity": 116}, {"time": 2497, "pitch": 72, "duration": 9, "velocity": 114}, {"time": 2506, "pitch": 72, "duration": 6, "velocity": 108}, {"time": 2512, "pitch": 72, "duration": 12, "velocity": 114}, {"time": 2524, "pitch": 72, "duration": 6, "velocity": 114}, {"time": 2530, "pitch": 67, "duration": 6, "velocity": 114}, {"time": 2536, "pitch": 69, "duration": 6, "velocity": 114}, {"time": 2542, "pitch": 72, "duration": 6, "velocity": 108}, {"time": 2548, "pitch": 72, "duration": 6, "velocity": 108}, {"time": 2554, "pitch": 69, "duration": 6, "velocity": 102}, {"time": 2560, "pitch": 67, "duration": 6, "velocity": 116}, {"time": 2566, "pitch": 67, "duration": 6, "velocity": 114}, {"time": 2572, "pitch": 72, "duration": 6, "velocity": 110}, {"time": 2578, "pitch": 76, "duration": 6, "velocity": 116}, {"time": 2584, "pitch": 77, "duration": 6, "velocity": 114}, {"time": 2590, "pitch": 76, "duration": 7, "velocity": 110}, {"time": 2596, "pitch": 74, "duration": 6, "velocity": 116}, {"time": 2602, "pitch": 72, "duration": 6, "velocity": 108}, {"time": 2608, "pitch": 74, "duration": 12, "velocity": 119}, {"time": 2620, "pitch": 72, "duration": 6, "velocity": 110}, {"time": 2626, "pitch": 74, "duration": 6, "velocity": 104}, {"time": 2632, "pitch": 76, "duration": 6, "velocity": 116}, {"time": 2638, "pitch": 76, "duration": 6, "velocity": 110}, {"time": 2644, "pitch": 76, "duration": 6, "velocity": 116}, {"time": 2650, "pitch": 68, "duration": 6, "velocity": 119}, {"time": 2656, "pitch": 68, "duration": 6, "velocity": 116}, {"time": 2662, "pitch": 68, "duration": 6, "velocity": 116}, {"time": 2668, "pitch": 69, "duration": 6, "velocity": 108}, {"time": 2674, "pitch": 71, "duration": 6, "velocity": 107}, {"time": 2680, "pitch": 74, "duration": 9, "velocity": 117}, {"time": 2689, "pitch": 76, "duration": 9, "velocity": 116}, {"time": 2698, "pitch": 74, "duration": 6, "velocity": 113}, {"time": 2704, "pitch": 72, "duration": 12, "velocity": 114}, {"time": 2716, "pitch": 72, "duration": 6, "velocity": 114}, {"time": 2722, "pitch": 79, "duration": 6, "velocity": 116}, {"time": 2728, "pitch": 79, "duration": 9, "velocity": 119}, {"time": 2737, "pitch": 77, "duration": 9, "velocity": 116}, {"time": 2746, "pitch": 76, "duration": 6, "velocity": 114}, {"time": 2752, "pitch": 72, "duration": 12, "velocity": 116}, {"time": 2764, "pitch": 69, "duration": 6, "velocity": 114}, {"time": 2770, "pitch": 76, "duration": 6, "velocity": 116}, {"time": 2776, "pitch": 77, "duration": 6, "velocity": 117}, {"time": 2782, "pitch": 76, "duration": 6, "velocity": 117}, {"time": 2788, "pitch": 74, "duration": 6, "velocity": 113}, {"time": 2794, "pitch": 72, "duration": 6, "velocity": 114}, {"time": 2800, "pitch": 74, "duration": 12, "velocity": 116}, {"time": 2812, "pitch": 72, "duration": 6, "velocity": 114}, {"time": 2818, "pitch": 74, "duration": 6, "velocity": 116}, {"time": 2824, "pitch": 76, "duration": 6, "velocity": 117}, {"time": 2830, "pitch": 67, "duration": 6, "velocity": 113}, {"time": 2836, "pitch": 72, "duration": 6, "velocity": 113}, {"time": 2842, "pitch": 76, "duration": 6, "velocity": 116}, {"time": 2848, "pitch": 74, "duration": 6, "velocity": 116}, {"time": 2854, "pitch": 67, "duration": 6, "velocity": 113}, {"time": 2860, "pitch": 71, "duration": 6, "velocity": 113}, {"time": 2866, "pitch": 74, "duration": 6, "velocity": 114}, {"time": 2872, "pitch": 72, "duration": 9, "velocity": 116}, {"time": 2881, "pitch": 72, "duration": 9, "velocity": 114}, {"time": 2890, "pitch": 72, "duration": 6, "velocity": 108}, {"time": 2896, "pitch": 72, "duration": 12, "velocity": 114}, {"time": 2908, "pitch": 72, "duration": 6, "velocity": 114}, {"time": 2914, "pitch": 67, "duration": 6, "velocity": 114}, {"time": 2920, "pitch": 69, "duration": 6, "velocity": 114}, {"time": 2926, "pitch": 72, "duration": 6, "velocity": 108}, {"time": 2932, "pitch": 72, "duration": 6, "velocity": 108}, {"time": 2938, "pitch": 69, "duration": 6, "velocity": 102}, {"time": 2944, "pitch": 67, "duration": 6, "velocity": 116}, {"time": 2950, "pitch": 67, "duration": 6, "velocity": 114}, {"time": 2956, "pitch": 72, "duration": 6, "velocity": 110}, {"time": 2962, "pitch": 76, "duration": 6, "velocity": 116}, {"time": 2968, "pitch": 77, "duration": 6, "velocity": 114}, {"time": 2974, "pitch": 76, "duration": 7, "velocity": 110}, {"time": 2980, "pitch": 74, "duration": 6, "velocity": 116}, {"time": 2986, "pitch": 72, "duration": 6, "velocity": 108}, {"time": 2992, "pitch": 74, "duration": 12, "velocity": 119}, {"time": 3004, "pitch": 72, "duration": 6, "velocity": 110}, {"time": 3010, "pitch": 74, "duration": 6, "velocity": 104}, {"time": 3016, "pitch": 76, "duration": 6, "velocity": 116}, {"time": 3022, "pitch": 76, "duration": 6, "velocity": 110}, {"time": 3028, "pitch": 76, "duration": 6, "velocity": 116}, {"time": 3034, "pitch": 68, "duration": 6, "velocity": 119}, {"time": 3040, "pitch": 68, "duration": 6, "velocity": 116}, {"time": 3046, "pitch": 68, "duration": 6, "velocity": 116}, {"time": 3052, "pitch": 69, "duration": 6, "velocity": 108}, {"time": 3058, "pitch": 71, "duration": 6, "velocity": 107}, {"time": 3064, "pitch": 74, "duration": 9, "velocity": 117}, {"time": 3073, "pitch": 76, "duration": 9, "velocity": 116}, {"time": 3082, "pitch": 74, "duration": 6, "velocity": 113}, {"time": 3088, "pitch": 72, "duration": 12, "velocity": 114}, {"time": 3100, "pitch": 72, "duration": 6, "velocity": 114}, {"time": 3106, "pitch": 79, "duration": 6, "velocity": 116}, {"time": 3112, "pitch": 79, "duration": 9, "velocity": 119}, {"time": 3121, "pitch": 77, "duration": 9, "velocity": 116}, {"time": 3130, "pitch": 76, "duration": 6, "velocity": 114}, {"time": 3136, "pitch": 72, "duration": 18, "velocity": 116}, {"time": 3154, "pitch": 67, "duration": 6, "velocity": 110}, {"time": 3160, "pitch": 79, "duration": 6, "velocity": 114}, {"time": 3166, "pitch": 77, "duration": 6, "velocity": 114}, {"time": 3172, "pitch": 77, "duration": 6, "velocity": 110}, {"time": 3178, "pitch": 76, "duration": 6, "velocity": 116}, {"time": 3184, "pitch": 72, "duration": 9, "velocity": 117}, {"time": 3193, "pitch": 67, "duration": 9, "velocity": 117}, {"time": 3202, "pitch": 74, "duration": 12, "velocity": 116}, {"time": 3214, "pitch": 72, "duration": 10, "velocity": 117}, {"time": 3484, "pitch": 72, "duration": 6, "velocity": 114}, {"time": 3490, "pitch": 74, "duration": 6, "velocity": 116}, {"time": 3496, "pitch": 76, "duration": 6, "velocity": 117}, {"time": 3502, "pitch": 67, "duration": 6, "velocity": 113}, {"time": 3508, "pitch": 72, "duration": 6, "velocity": 113}, {"time": 3514, "pitch": 76, "duration": 6, "velocity": 116}, {"time": 3520, "pitch": 74, "duration": 6, "velocity": 116}, {"time": 3526, "pitch": 67, "duration": 6, "velocity": 113}, {"time": 3532, "pitch": 71, "duration": 6, "velocity": 113}, {"time": 3538, "pitch": 74, "duration": 6, "velocity": 114}, {"time": 3544, "pitch": 72, "duration": 9, "velocity": 116}, {"time": 3553, "pitch": 72, "duration": 9, "velocity": 114}, {"time": 3562, "pitch": 72, "duration": 6, "velocity": 108}, {"time": 3568, "pitch": 72, "duration": 12, "velocity": 114}, {"time": 3580, "pitch": 72, "duration": 6, "velocity": 114}, {"time": 3586, "pitch": 67, "duration": 6, "velocity": 114}, {"time": 3592, "pitch": 69, "duration": 6, "velocity": 114}, {"time": 3598, "pitch": 72, "duration": 6, "velocity": 108}, {"time": 3604, "pitch": 72, "duration": 6, "velocity": 108}, {"time": 3610, "pitch": 69, "duration": 6, "velocity": 102}, {"time": 3616, "pitch": 67, "duration": 6, "velocity": 116}, {"time": 3622, "pitch": 67, "duration": 6, "velocity": 114}, {"time": 3628, "pitch": 72, "duration": 6, "velocity": 110}, {"time": 3634, "pitch": 76, "duration": 6, "velocity": 116}, {"time": 3640, "pitch": 77, "duration": 6, "velocity": 114}, {"time": 3646, "pitch": 77, "duration": 6, "velocity": 110}, {"time": 3652, "pitch": 79, "duration": 6, "velocity": 116}, {"time": 3658, "pitch": 76, "duration": 6, "velocity": 108}, {"time": 3664, "pitch": 74, "duration": 12, "velocity": 119}, {"time": 3676, "pitch": 72, "duration": 6, "velocity": 110}, {"time": 3682, "pitch": 74, "duration": 6, "velocity": 104}, {"time": 3688, "pitch": 76, "duration": 6, "velocity": 116}, {"time": 3694, "pitch": 76, "duration": 6, "velocity": 110}, {"time": 3700, "pitch": 76, "duration": 6, "velocity": 116}, {"time": 3706, "pitch": 68, "duration": 6, "velocity": 119}, {"time": 3712, "pitch": 68, "duration": 6, "velocity": 116}, {"time": 3718, "pitch": 68, "duration": 6, "velocity": 116}, {"time": 3724, "pitch": 69, "duration": 6, "velocity": 108}, {"time": 3730, "pitch": 71, "duration": 6, "velocity": 107}, {"time": 3736, "pitch": 74, "duration": 9, "velocity": 117}, {"time": 3745, "pitch": 76, "duration": 9, "velocity": 116}, {"time": 3754, "pitch": 74, "duration": 6, "velocity": 113}, {"time": 3760, "pitch": 72, "duration": 12, "velocity": 114}, {"time": 3772, "pitch": 72, "duration": 6, "velocity": 114}, {"time": 3778, "pitch": 79, "duration": 6, "velocity": 116}, {"time": 3784, "pitch": 79, "duration": 9, "velocity": 119}, {"time": 3793, "pitch": 77, "duration": 9, "velocity": 116}, {"time": 3802, "pitch": 76, "duration": 6, "velocity": 114}, {"time": 3808, "pitch": 72, "duration": 12, "velocity": 116}, {"time": 3820, "pitch": 69, "duration": 6, "velocity": 114}, {"time": 3826, "pitch": 76, "duration": 6, "velocity": 116}, {"time": 3832, "pitch": 77, "duration": 6, "velocity": 117}, {"time": 3838, "pitch": 76, "duration": 6, "velocity": 117}, {"time": 3844, "pitch": 74, "duration": 6, "velocity": 113}, {"time": 3850, "pitch": 72, "duration": 6, "velocity": 114}, {"time": 3856, "pitch": 74, "duration": 12, "velocity": 116}, {"time": 3868, "pitch": 72, "duration": 6, "velocity": 114}, {"time": 3874, "pitch": 74, "duration": 6, "velocity": 116}, {"time": 3880, "pitch": 76, "duration": 6, "velocity": 117}, {"time": 3886, "pitch": 67, "duration": 6, "velocity": 113}, {"time": 3892, "pitch": 72, "duration": 6, "velocity": 113}, {"time": 3898, "pitch": 76, "duration": 6, "velocity": 116}, {"time": 3904, "pitch": 74, "duration": 6, "velocity": 116}, {"time": 3910, "pitch": 67, "duration": 6, "velocity": 113}, {"time": 3916, "pitch": 71, "duration": 6, "velocity": 113}, {"time": 3922, "pitch": 74, "duration": 6, "velocity": 114}, {"time": 3928, "pitch": 72, "duration": 9, "velocity": 116}, {"time": 3937, "pitch": 72, "duration": 9, "velocity": 114}, {"time": 3946, "pitch": 72, "duration": 6, "velocity": 108}, {"time": 3952, "pitch": 72, "duration": 12, "velocity": 114}, {"time": 3964, "pitch": 72, "duration": 6, "velocity": 114}, {"time": 3970, "pitch": 67, "duration": 6, "velocity": 114}, {"time": 3976, "pitch": 69, "duration": 6, "velocity": 114}, {"time": 3982, "pitch": 72, "duration": 6, "velocity": 108}, {"time": 3988, "pitch": 72, "duration": 6, "velocity": 108}, {"time": 3994, "pitch": 69, "duration": 6, "velocity": 102}, {"time": 4000, "pitch": 67, "duration": 6, "velocity": 116}, {"time": 4006, "pitch": 67, "duration": 6, "velocity": 114}, {"time": 4012, "pitch": 72, "duration": 6, "velocity": 110}, {"time": 4018, "pitch": 76, "duration": 6, "velocity": 116}, {"time": 4024, "pitch": 77, "duration": 6, "velocity": 114}, {"time": 4030, "pitch": 76, "duration": 7, "velocity": 110}, {"time": 4036, "pitch": 74, "duration": 6, "velocity": 116}, {"time": 4042, "pitch": 72, "duration": 6, "velocity": 108}, {"time": 4048, "pitch": 74, "duration": 12, "velocity": 119}, {"time": 4060, "pitch": 72, "duration": 6, "velocity": 110}, {"time": 4066, "pitch": 74, "duration": 6, "velocity": 104}, {"time": 4072, "pitch": 76, "duration": 6, "velocity": 116}, {"time": 4078, "pitch": 76, "duration": 6, "velocity": 110}, {"time": 4084, "pitch": 76, "duration": 6, "velocity": 116}, {"time": 4090, "pitch": 68, "duration": 6, "velocity": 119}, {"time": 4096, "pitch": 68, "duration": 6, "velocity": 116}, {"time": 4102, "pitch": 68, "duration": 6, "velocity": 116}, {"time": 4108, "pitch": 69, "duration": 6, "velocity": 108}, {"time": 4114, "pitch": 71, "duration": 6, "velocity": 107}, {"time": 4120, "pitch": 74, "duration": 9, "velocity": 117}, {"time": 4129, "pitch": 76, "duration": 9, "velocity": 116}, {"time": 4138, "pitch": 74, "duration": 6, "velocity": 113}, {"time": 4144, "pitch": 72, "duration": 12, "velocity": 114}, {"time": 4156, "pitch": 72, "duration": 6, "velocity": 114}, {"time": 4162, "pitch": 79, "duration": 6, "velocity": 116}, {"time": 4168, "pitch": 79, "duration": 9, "velocity": 119}, {"time": 4177, "pitch": 77, "duration": 9, "velocity": 116}, {"time": 4186, "pitch": 76, "duration": 6, "velocity": 114}, {"time": 4192, "pitch": 72, "duration": 18, "velocity": 116}, {"time": 4210, "pitch": 67, "duration": 6, "velocity": 110}, {"time": 4216, "pitch": 79, "duration": 6, "velocity": 114}, {"time": 4222, "pitch": 77, "duration": 6, "velocity": 114}, {"time": 4228, "pitch": 77, "duration": 6, "velocity": 110}, {"time": 4234, "pitch": 76, "duration": 6, "velocity": 116}, {"time": 4240, "pitch": 72, "duration": 9, "velocity": 117}, {"time": 4249, "pitch": 67, "duration": 9, "velocity": 117}, {"time": 4258, "pitch": 74, "duration": 12, "velocity": 116}, {"time": 4270, "pitch": 72, "duration": 10, "velocity": 117}]}, {"program": 0, "is_drum": false, "name": "BRIDGE", "notes": [{"time": 16, "pitch": 67, "duration": 19, "velocity": 116}, {"time": 34, "pitch": 72, "duration": 6, "velocity": 100}, {"time": 40, "pitch": 65, "duration": 18, "velocity": 104}, {"time": 58, "pitch": 64, "duration": 4, "velocity": 88}, {"time": 61, "pitch": 65, "duration": 3, "velocity": 98}, {"time": 64, "pitch": 67, "duration": 6, "velocity": 113}, {"time": 70, "pitch": 72, "duration": 6, "velocity": 110}, {"time": 76, "pitch": 76, "duration": 6, "velocity": 110}, {"time": 82, "pitch": 77, "duration": 6, "velocity": 116}, {"time": 88, "pitch": 79, "duration": 12, "velocity": 117}, {"time": 100, "pitch": 77, "duration": 12, "velocity": 114}, {"time": 112, "pitch": 76, "duration": 24, "velocity": 108}, {"time": 136, "pitch": 74, "duration": 9, "velocity": 113}, {"time": 145, "pitch": 72, "duration": 9, "velocity": 113}, {"time": 154, "pitch": 71, "duration": 7, "velocity": 110}, {"time": 160, "pitch": 72, "duration": 48, "velocity": 110}, {"time": 208, "pitch": 79, "duration": 18, "velocity": 114}, {"time": 226, "pitch": 84, "duration": 7, "velocity": 104}, {"time": 232, "pitch": 78, "duration": 18, "velocity": 119}, {"time": 250, "pitch": 84, "duration": 6, "velocity": 104}, {"time": 256, "pitch": 77, "duration": 24, "velocity": 117}, {"time": 280, "pitch": 69, "duration": 3, "velocity": 87}, {"time": 283, "pitch": 68, "duration": 3, "velocity": 90}, {"time": 286, "pitch": 67, "duration": 23, "velocity": 92}, {"time": 661, "pitch": 77, "duration": 10, "velocity": 87}, {"time": 662, "pitch": 79, "duration": 10, "velocity": 87}, {"time": 664, "pitch": 86, "duration": 9, "velocity": 107}, {"time": 712, "pitch": 64, "duration": 22, "velocity": 91}, {"time": 736, "pitch": 67, "duration": 11, "velocity": 86}, {"time": 760, "pitch": 65, "duration": 19, "velocity": 91}, {"time": 784, "pitch": 64, "duration": 12, "velocity": 108}, {"time": 796, "pitch": 62, "duration": 13, "velocity": 102}, {"time": 808, "pitch": 64, "duration": 23, "velocity": 110}, {"time": 868, "pitch": 72, "duration": 9, "velocity": 90}, {"time": 880, "pitch": 74, "duration": 8, "velocity": 110}, {"time": 904, "pitch": 69, "duration": 15, "velocity": 114}, {"time": 928, "pitch": 71, "duration": 14, "velocity": 113}, {"time": 946, "pitch": 69, "duration": 6, "velocity": 110}, {"time": 952, "pitch": 79, "duration": 7, "velocity": 110}, {"time": 976, "pitch": 72, "duration": 13, "velocity": 110}, {"time": 1096, "pitch": 76, "duration": 24, "velocity": 110}, {"time": 1120, "pitch": 74, "duration": 23, "velocity": 116}, {"time": 1144, "pitch": 72, "duration": 34, "velocity": 110}, {"time": 1240, "pitch": 72, "duration": 12, "velocity": 108}, {"time": 1252, "pitch": 71, "duration": 7, "velocity": 113}, {"time": 1258, "pitch": 72, "duration": 6, "velocity": 108}, {"time": 1264, "pitch": 74, "duration": 7, "velocity": 116}, {"time": 1288, "pitch": 76, "duration": 22, "velocity": 116}, {"time": 1312, "pitch": 74, "duration": 24, "velocity": 116}, {"time": 1336, "pitch": 71, "duration": 15, "velocity": 113}, {"time": 1360, "pitch": 70, "duration": 25, "velocity": 114}, {"time": 1462, "pitch": 71, "duration": 6, "velocity": 116}, {"time": 1468, "pitch": 72, "duration": 5, "velocity": 116}, {"time": 1474, "pitch": 74, "duration": 5, "velocity": 114}, {"time": 1480, "pitch": 76, "duration": 23, "velocity": 117}, {"time": 1504, "pitch": 74, "duration": 25, "velocity": 116}, {"time": 1528, "pitch": 72, "duration": 33, "velocity": 114}, {"time": 1564, "pitch": 71, "duration": 7, "velocity": 108}, {"time": 1576, "pitch": 69, "duration": 6, "velocity": 98}, {"time": 1600, "pitch": 67, "duration": 19, "velocity": 113}, {"time": 1624, "pitch": 76, "duration": 11, "velocity": 113}, {"time": 1636, "pitch": 71, "duration": 7, "velocity": 117}, {"time": 1642, "pitch": 72, "duration": 6, "velocity": 110}, {"time": 1648, "pitch": 74, "duration": 7, "velocity": 116}, {"time": 1672, "pitch": 76, "duration": 24, "velocity": 113}, {"time": 1696, "pitch": 74, "duration": 23, "velocity": 114}, {"time": 1720, "pitch": 71, "duration": 24, "velocity": 116}, {"time": 1744, "pitch": 70, "duration": 23, "velocity": 119}, {"time": 1864, "pitch": 72, "duration": 18, "velocity": 107}, {"time": 1882, "pitch": 64, "duration": 7, "velocity": 113}, {"time": 1888, "pitch": 65, "duration": 18, "velocity": 114}, {"time": 1906, "pitch": 64, "duration": 3, "velocity": 100}, {"time": 1909, "pitch": 65, "duration": 3, "velocity": 102}, {"time": 1912, "pitch": 67, "duration": 8, "velocity": 117}, {"time": 1918, "pitch": 72, "duration": 6, "velocity": 113}, {"time": 1924, "pitch": 74, "duration": 7, "velocity": 108}, {"time": 1930, "pitch": 77, "duration": 6, "velocity": 110}, {"time": 1936, "pitch": 79, "duration": 12, "velocity": 102}, {"time": 1948, "pitch": 77, "duration": 24, "velocity": 108}, {"time": 1972, "pitch": 79, "duration": 6, "velocity": 117}, {"time": 1978, "pitch": 84, "duration": 6, "velocity": 114}, {"time": 1984, "pitch": 83, "duration": 6, "velocity": 114}, {"time": 1990, "pitch": 84, "duration": 6, "velocity": 110}, {"time": 1996, "pitch": 86, "duration": 12, "velocity": 116}, {"time": 2008, "pitch": 84, "duration": 30, "velocity": 114}, {"time": 2038, "pitch": 81, "duration": 6, "velocity": 108}, {"time": 2044, "pitch": 79, "duration": 6, "velocity": 107}, {"time": 2050, "pitch": 77, "duration": 6, "velocity": 110}, {"time": 2056, "pitch": 76, "duration": 22, "velocity": 110}, {"time": 2140, "pitch": 76, "duration": 5, "velocity": 102}, {"time": 2146, "pitch": 79, "duration": 5, "velocity": 104}, {"time": 2152, "pitch": 79, "duration": 9, "velocity": 114}, {"time": 2230, "pitch": 76, "duration": 6, "velocity": 100}, {"time": 2236, "pitch": 77, "duration": 5, "velocity": 104}, {"time": 2242, "pitch": 79, "duration": 5, "velocity": 104}, {"time": 2248, "pitch": 81, "duration": 7, "velocity": 96}, {"time": 2272, "pitch": 74, "duration": 20, "velocity": 114}, {"time": 2296, "pitch": 76, "duration": 10, "velocity": 114}, {"time": 2320, "pitch": 76, "duration": 12, "velocity": 114}, {"time": 2344, "pitch": 79, "duration": 21, "velocity": 116}, {"time": 2440, "pitch": 76, "duration": 24, "velocity": 110}, {"time": 2464, "pitch": 74, "duration": 23, "velocity": 116}, {"time": 2488, "pitch": 72, "duration": 34, "velocity": 110}, {"time": 2584, "pitch": 72, "duration": 12, "velocity": 108}, {"time": 2596, "pitch": 71, "duration": 7, "velocity": 113}, {"time": 2602, "pitch": 72, "duration": 6, "velocity": 108}, {"time": 2608, "pitch": 74, "duration": 7, "velocity": 116}, {"time": 2632, "pitch": 76, "duration": 22, "velocity": 116}, {"time": 2656, "pitch": 74, "duration": 24, "velocity": 116}, {"time": 2680, "pitch": 71, "duration": 15, "velocity": 113}, {"time": 2704, "pitch": 70, "duration": 25, "velocity": 114}, {"time": 2806, "pitch": 71, "duration": 6, "velocity": 116}, {"time": 2812, "pitch": 72, "duration": 5, "velocity": 116}, {"time": 2818, "pitch": 74, "duration": 5, "velocity": 114}, {"time": 2824, "pitch": 76, "duration": 23, "velocity": 117}, {"time": 2848, "pitch": 74, "duration": 25, "velocity": 116}, {"time": 2872, "pitch": 72, "duration": 33, "velocity": 114}, {"time": 2908, "pitch": 71, "duration": 7, "velocity": 108}, {"time": 2920, "pitch": 69, "duration": 6, "velocity": 98}, {"time": 2944, "pitch": 67, "duration": 19, "velocity": 113}, {"time": 2968, "pitch": 76, "duration": 11, "velocity": 113}, {"time": 2980, "pitch": 71, "duration": 7, "velocity": 117}, {"time": 2986, "pitch": 72, "duration": 6, "velocity": 110}, {"time": 2992, "pitch": 74, "duration": 7, "velocity": 116}, {"time": 3016, "pitch": 76, "duration": 24, "velocity": 113}, {"time": 3040, "pitch": 74, "duration": 23, "velocity": 114}, {"time": 3064, "pitch": 71, "duration": 24, "velocity": 116}, {"time": 3088, "pitch": 70, "duration": 23, "velocity": 119}, {"time": 3118, "pitch": 79, "duration": 9, "velocity": 110}, {"time": 3124, "pitch": 77, "duration": 8, "velocity": 91}, {"time": 3130, "pitch": 76, "duration": 4, "velocity": 110}, {"time": 3136, "pitch": 68, "duration": 15, "velocity": 109}, {"time": 3166, "pitch": 67, "duration": 7, "velocity": 107}, {"time": 3172, "pitch": 68, "duration": 5, "velocity": 109}, {"time": 3178, "pitch": 72, "duration": 4, "velocity": 104}, {"time": 3184, "pitch": 74, "duration": 8, "velocity": 93}, {"time": 3208, "pitch": 72, "duration": 10, "velocity": 113}, {"time": 3226, "pitch": 76, "duration": 5, "velocity": 110}, {"time": 3232, "pitch": 74, "duration": 6, "velocity": 114}, {"time": 3256, "pitch": 74, "duration": 5, "velocity": 100}, {"time": 3274, "pitch": 77, "duration": 3, "velocity": 100}, {"time": 3277, "pitch": 76, "duration": 2, "velocity": 87}, {"time": 3280, "pitch": 72, "duration": 6, "velocity": 88}, {"time": 3304, "pitch": 77, "duration": 14, "velocity": 114}, {"time": 3322, "pitch": 76, "duration": 2, "velocity": 98}, {"time": 3325, "pitch": 74, "duration": 2, "velocity": 89}, {"time": 3328, "pitch": 79, "duration": 6, "velocity": 117}, {"time": 3352, "pitch": 92, "duration": 1, "velocity": 119}, {"time": 3355, "pitch": 89, "duration": 2, "velocity": 102}, {"time": 3358, "pitch": 86, "duration": 2, "velocity": 110}, {"time": 3361, "pitch": 84, "duration": 1, "velocity": 114}, {"time": 3364, "pitch": 80, "duration": 1, "velocity": 119}, {"time": 3367, "pitch": 77, "duration": 3, "velocity": 94}, {"time": 3370, "pitch": 74, "duration": 1, "velocity": 113}, {"time": 3373, "pitch": 72, "duration": 2, "velocity": 107}, {"time": 3379, "pitch": 68, "duration": 1, "velocity": 116}, {"time": 3382, "pitch": 65, "duration": 2, "velocity": 102}, {"time": 3385, "pitch": 62, "duration": 2, "velocity": 110}, {"time": 3391, "pitch": 60, "duration": 1, "velocity": 108}, {"time": 3406, "pitch": 67, "duration": 4, "velocity": 88}, {"time": 3409, "pitch": 69, "duration": 2, "velocity": 98}, {"time": 3412, "pitch": 71, "duration": 2, "velocity": 100}, {"time": 3415, "pitch": 72, "duration": 4, "velocity": 102}, {"time": 3418, "pitch": 74, "duration": 2, "velocity": 110}, {"time": 3421, "pitch": 76, "duration": 2, "velocity": 104}, {"time": 3424, "pitch": 77, "duration": 4, "velocity": 102}, {"time": 3427, "pitch": 79, "duration": 4, "velocity": 110}, {"time": 3430, "pitch": 81, "duration": 2, "velocity": 104}, {"time": 3433, "pitch": 83, "duration": 2, "velocity": 110}, {"time": 3436, "pitch": 84, "duration": 3, "velocity": 107}, {"time": 3439, "pitch": 86, "duration": 2, "velocity": 108}, {"time": 3442, "pitch": 88, "duration": 2, "velocity": 104}, {"time": 3445, "pitch": 89, "duration": 2, "velocity": 113}, {"time": 3448, "pitch": 91, "duration": 4, "velocity": 123}, {"time": 3607, "pitch": 81, "duration": 2, "velocity": 92}, {"time": 3610, "pitch": 79, "duration": 2, "velocity": 91}, {"time": 3613, "pitch": 81, "duration": 2, "velocity": 98}, {"time": 3616, "pitch": 79, "duration": 4, "velocity": 114}, {"time": 3640, "pitch": 72, "duration": 12, "velocity": 113}, {"time": 3652, "pitch": 71, "duration": 6, "velocity": 116}, {"time": 3658, "pitch": 72, "duration": 5, "velocity": 114}, {"time": 3664, "pitch": 74, "duration": 8, "velocity": 119}, {"time": 3688, "pitch": 79, "duration": 25, "velocity": 117}, {"time": 3712, "pitch": 80, "duration": 10, "velocity": 119}, {"time": 3730, "pitch": 79, "duration": 5, "velocity": 110}, {"time": 3736, "pitch": 86, "duration": 24, "velocity": 117}, {"time": 3760, "pitch": 84, "duration": 9, "velocity": 114}, {"time": 3868, "pitch": 72, "duration": 6, "velocity": 113}, {"time": 3874, "pitch": 74, "duration": 5, "velocity": 107}, {"time": 3880, "pitch": 76, "duration": 13, "velocity": 113}, {"time": 3904, "pitch": 83, "duration": 21, "velocity": 114}, {"time": 3928, "pitch": 84, "duration": 19, "velocity": 119}, {"time": 4060, "pitch": 84, "duration": 5, "velocity": 116}, {"time": 4066, "pitch": 86, "duration": 6, "velocity": 107}, {"time": 4072, "pitch": 88, "duration": 24, "velocity": 117}, {"time": 4096, "pitch": 80, "duration": 22, "velocity": 116}, {"time": 4120, "pitch": 71, "duration": 23, "velocity": 119}, {"time": 4144, "pitch": 70, "duration": 17, "velocity": 119}, {"time": 4168, "pitch": 79, "duration": 7, "velocity": 114}, {"time": 4174, "pitch": 77, "duration": 10, "velocity": 114}, {"time": 4186, "pitch": 76, "duration": 6, "velocity": 116}, {"time": 4192, "pitch": 68, "duration": 8, "velocity": 113}, {"time": 4222, "pitch": 67, "duration": 6, "velocity": 116}, {"time": 4228, "pitch": 68, "duration": 6, "velocity": 116}, {"time": 4234, "pitch": 72, "duration": 5, "velocity": 110}, {"time": 4240, "pitch": 74, "duration": 24, "velocity": 117}, {"time": 4264, "pitch": 72, "duration": 19, "velocity": 116}, {"time": 4282, "pitch": 64, "duration": 7, "velocity": 113}, {"time": 4288, "pitch": 65, "duration": 16, "velocity": 114}, {"time": 4306, "pitch": 64, "duration": 3, "velocity": 100}, {"time": 4309, "pitch": 65, "duration": 2, "velocity": 102}, {"time": 4312, "pitch": 67, "duration": 8, "velocity": 117}, {"time": 4318, "pitch": 72, "duration": 6, "velocity": 113}, {"time": 4324, "pitch": 74, "duration": 7, "velocity": 108}, {"time": 4330, "pitch": 77, "duration": 4, "velocity": 110}, {"time": 4336, "pitch": 79, "duration": 9, "velocity": 102}, {"time": 4348, "pitch": 77, "duration": 9, "velocity": 108}, {"time": 4372, "pitch": 79, "duration": 5, "velocity": 117}, {"time": 4378, "pitch": 84, "duration": 5, "velocity": 114}, {"time": 4384, "pitch": 83, "duration": 6, "velocity": 114}, {"time": 4390, "pitch": 84, "duration": 5, "velocity": 110}, {"time": 4396, "pitch": 86, "duration": 7, "velocity": 116}, {"time": 4408, "pitch": 84, "duration": 13, "velocity": 114}, {"time": 4456, "pitch": 79, "duration": 17, "velocity": 116}, {"time": 4474, "pitch": 84, "duration": 2, "velocity": 102}, {"time": 4477, "pitch": 79, "duration": 4, "velocity": 89}, {"time": 4480, "pitch": 78, "duration": 10, "velocity": 109}, {"time": 4492, "pitch": 84, "duration": 11, "velocity": 110}, {"time": 4504, "pitch": 77, "duration": 8, "velocity": 116}, {"time": 4528, "pitch": 71, "duration": 15, "velocity": 110}, {"time": 4544, "pitch": 72, "duration": 4, "velocity": 73}, {"time": 4548, "pitch": 71, "duration": 4, "velocity": 82}, {"time": 4551, "pitch": 72, "duration": 3, "velocity": 83}, {"time": 4554, "pitch": 71, "duration": 3, "velocity": 84}, {"time": 4556, "pitch": 72, "duration": 3, "velocity": 83}, {"time": 4558, "pitch": 71, "duration": 3, "velocity": 84}, {"time": 4560, "pitch": 72, "duration": 3, "velocity": 84}, {"time": 4562, "pitch": 71, "duration": 2, "velocity": 87}, {"time": 4564, "pitch": 72, "duration": 2, "velocity": 78}, {"time": 4565, "pitch": 71, "duration": 2, "velocity": 85}, {"time": 4567, "pitch": 72, "duration": 2, "velocity": 83}, {"time": 4569, "pitch": 71, "duration": 2, "velocity": 84}, {"time": 4570, "pitch": 72, "duration": 2, "velocity": 83}, {"time": 4572, "pitch": 71, "duration": 2, "velocity": 79}, {"time": 4573, "pitch": 72, "duration": 2, "velocity": 83}, {"time": 4575, "pitch": 71, "duration": 2, "velocity": 78}, {"time": 4576, "pitch": 72, "duration": 2, "velocity": 83}, {"time": 4578, "pitch": 71, "duration": 12, "velocity": 80}, {"time": 4580, "pitch": 72, "duration": 1, "velocity": 73}, {"time": 4588, "pitch": 74, "duration": 14, "velocity": 104}, {"time": 4603, "pitch": 76, "duration": 2, "velocity": 81}, {"time": 4605, "pitch": 74, "duration": 2, "velocity": 87}, {"time": 4607, "pitch": 72, "duration": 15, "velocity": 84}]}, {"program": 0, "is_drum": false, "name": "PIANO", "notes": [{"time": 16, "pitch": 48, "duration": 16, "velocity": 38}, {"time": 22, "pitch": 55, "duration": 16, "velocity": 78}, {"time": 28, "pitch": 60, "duration": 10, "velocity": 90}, {"time": 34, "pitch": 64, "duration": 6, "velocity": 86}, {"time": 40, "pitch": 50, "duration": 18, "velocity": 87}, {"time": 46, "pitch": 57, "duration": 18, "velocity": 81}, {"time": 52, "pitch": 62, "duration": 12, "velocity": 89}, {"time": 58, "pitch": 65, "duration": 7, "velocity": 86}, {"time": 64, "pitch": 52, "duration": 19, "velocity": 84}, {"time": 70, "pitch": 59, "duration": 18, "velocity": 81}, {"time": 76, "pitch": 64, "duration": 7, "velocity": 88}, {"time": 82, "pitch": 67, "duration": 6, "velocity": 89}, {"time": 88, "pitch": 53, "duration": 20, "velocity": 89}, {"time": 94, "pitch": 60, "duration": 18, "velocity": 71}, {"time": 100, "pitch": 65, "duration": 7, "velocity": 84}, {"time": 106, "pitch": 69, "duration": 6, "velocity": 85}, {"time": 112, "pitch": 55, "duration": 42, "velocity": 86}, {"time": 118, "pitch": 62, "duration": 35, "velocity": 76}, {"time": 124, "pitch": 67, "duration": 6, "velocity": 91}, {"time": 130, "pitch": 69, "duration": 6, "velocity": 87}, {"time": 136, "pitch": 71, "duration": 10, "velocity": 87}, {"time": 160, "pitch": 53, "duration": 42, "velocity": 88}, {"time": 166, "pitch": 60, "duration": 36, "velocity": 78}, {"time": 172, "pitch": 65, "duration": 29, "velocity": 86}, {"time": 178, "pitch": 77, "duration": 26, "velocity": 90}, {"time": 190, "pitch": 72, "duration": 13, "velocity": 86}, {"time": 208, "pitch": 48, "duration": 17, "velocity": 100}, {"time": 214, "pitch": 55, "duration": 12, "velocity": 87}, {"time": 220, "pitch": 60, "duration": 8, "velocity": 94}, {"time": 226, "pitch": 64, "duration": 6, "velocity": 104}, {"time": 232, "pitch": 42, "duration": 18, "velocity": 86}, {"time": 238, "pitch": 54, "duration": 17, "velocity": 86}, {"time": 244, "pitch": 57, "duration": 6, "velocity": 87}, {"time": 250, "pitch": 60, "duration": 4, "velocity": 91}, {"time": 256, "pitch": 41, "duration": 17, "velocity": 91}, {"time": 262, "pitch": 48, "duration": 16, "velocity": 83}, {"time": 268, "pitch": 53, "duration": 9, "velocity": 87}, {"time": 274, "pitch": 57, "duration": 5, "velocity": 86}, {"time": 280, "pitch": 43, "duration": 39, "velocity": 88}, {"time": 286, "pitch": 50, "duration": 33, "velocity": 82}, {"time": 292, "pitch": 55, "duration": 26, "velocity": 83}, {"time": 298, "pitch": 59, "duration": 20, "velocity": 71}, {"time": 304, "pitch": 67, "duration": 14, "velocity": 83}, {"time": 328, "pitch": 48, "duration": 39, "velocity": 86}, {"time": 334, "pitch": 55, "duration": 33, "velocity": 79}, {"time": 340, "pitch": 64, "duration": 37, "velocity": 83}, {"time": 346, "pitch": 60, "duration": 30, "velocity": 72}, {"time": 349, "pitch": 67, "duration": 28, "velocity": 65}, {"time": 376, "pitch": 41, "duration": 18, "velocity": 77}, {"time": 382, "pitch": 48, "duration": 18, "velocity": 64}, {"time": 388, "pitch": 53, "duration": 12, "velocity": 78}, {"time": 391, "pitch": 57, "duration": 7, "velocity": 75}, {"time": 394, "pitch": 67, "duration": 8, "velocity": 71}, {"time": 400, "pitch": 43, "duration": 19, "velocity": 82}, {"time": 406, "pitch": 50, "duration": 13, "velocity": 79}, {"time": 412, "pitch": 55, "duration": 10, "velocity": 76}, {"time": 418, "pitch": 59, "duration": 6, "velocity": 78}, {"time": 424, "pitch": 48, "duration": 41, "velocity": 73}, {"time": 430, "pitch": 55, "duration": 33, "velocity": 70}, {"time": 436, "pitch": 60, "duration": 26, "velocity": 75}, {"time": 442, "pitch": 62, "duration": 30, "velocity": 77}, {"time": 442, "pitch": 67, "duration": 29, "velocity": 81}, {"time": 472, "pitch": 41, "duration": 19, "velocity": 82}, {"time": 478, "pitch": 48, "duration": 19, "velocity": 77}, {"time": 484, "pitch": 53, "duration": 12, "velocity": 84}, {"time": 490, "pitch": 57, "duration": 8, "velocity": 81}, {"time": 490, "pitch": 67, "duration": 8, "velocity": 78}, {"time": 496, "pitch": 43, "duration": 18, "velocity": 79}, {"time": 502, "pitch": 50, "duration": 13, "velocity": 78}, {"time": 508, "pitch": 55, "duration": 8, "velocity": 83}, {"time": 514, "pitch": 59, "duration": 4, "velocity": 82}, {"time": 514, "pitch": 67, "duration": 4, "velocity": 81}, {"time": 520, "pitch": 41, "duration": 18, "velocity": 81}, {"time": 526, "pitch": 48, "duration": 18, "velocity": 72}, {"time": 532, "pitch": 53, "duration": 12, "velocity": 81}, {"time": 538, "pitch": 57, "duration": 7, "velocity": 86}, {"time": 544, "pitch": 43, "duration": 16, "velocity": 83}, {"time": 550, "pitch": 50, "duration": 11, "velocity": 75}, {"time": 556, "pitch": 55, "duration": 7, "velocity": 79}, {"time": 559, "pitch": 59, "duration": 6, "velocity": 83}, {"time": 568, "pitch": 52, "duration": 19, "velocity": 85}, {"time": 574, "pitch": 59, "duration": 12, "velocity": 77}, {"time": 580, "pitch": 64, "duration": 5, "velocity": 86}, {"time": 586, "pitch": 67, "duration": 6, "velocity": 84}, {"time": 592, "pitch": 45, "duration": 18, "velocity": 86}, {"time": 598, "pitch": 52, "duration": 12, "velocity": 83}, {"time": 604, "pitch": 57, "duration": 12, "velocity": 84}, {"time": 610, "pitch": 60, "duration": 9, "velocity": 83}, {"time": 610, "pitch": 69, "duration": 10, "velocity": 83}, {"time": 616, "pitch": 50, "duration": 41, "velocity": 83}, {"time": 622, "pitch": 57, "duration": 33, "velocity": 74}, {"time": 628, "pitch": 62, "duration": 14, "velocity": 83}, {"time": 634, "pitch": 69, "duration": 16, "velocity": 88}, {"time": 640, "pitch": 65, "duration": 24, "velocity": 86}, {"time": 664, "pitch": 43, "duration": 36, "velocity": 78}, {"time": 664, "pitch": 59, "duration": 38, "velocity": 78}, {"time": 664, "pitch": 67, "duration": 37, "velocity": 84}, {"time": 712, "pitch": 48, "duration": 20, "velocity": 84}, {"time": 718, "pitch": 55, "duration": 15, "velocity": 78}, {"time": 724, "pitch": 60, "duration": 6, "velocity": 82}, {"time": 730, "pitch": 64, "duration": 4, "velocity": 82}, {"time": 730, "pitch": 72, "duration": 5, "velocity": 83}, {"time": 760, "pitch": 41, "duration": 19, "velocity": 83}, {"time": 766, "pitch": 48, "duration": 18, "velocity": 74}, {"time": 772, "pitch": 53, "duration": 12, "velocity": 86}, {"time": 778, "pitch": 57, "duration": 7, "velocity": 85}, {"time": 784, "pitch": 43, "duration": 18, "velocity": 83}, {"time": 790, "pitch": 50, "duration": 12, "velocity": 81}, {"time": 796, "pitch": 55, "duration": 12, "velocity": 85}, {"time": 802, "pitch": 59, "duration": 8, "velocity": 83}, {"time": 808, "pitch": 48, "duration": 38, "velocity": 84}, {"time": 814, "pitch": 55, "duration": 31, "velocity": 76}, {"time": 820, "pitch": 60, "duration": 24, "velocity": 83}, {"time": 826, "pitch": 64, "duration": 28, "velocity": 77}, {"time": 856, "pitch": 41, "duration": 20, "velocity": 86}, {"time": 862, "pitch": 48, "duration": 19, "velocity": 77}, {"time": 868, "pitch": 53, "duration": 12, "velocity": 85}, {"time": 874, "pitch": 57, "duration": 8, "velocity": 89}, {"time": 880, "pitch": 43, "duration": 18, "velocity": 84}, {"time": 886, "pitch": 50, "duration": 14, "velocity": 81}, {"time": 892, "pitch": 55, "duration": 7, "velocity": 85}, {"time": 898, "pitch": 59, "duration": 6, "velocity": 87}, {"time": 904, "pitch": 41, "duration": 19, "velocity": 87}, {"time": 910, "pitch": 48, "duration": 19, "velocity": 79}, {"time": 916, "pitch": 53, "duration": 12, "velocity": 83}, {"time": 922, "pitch": 57, "duration": 7, "velocity": 88}, {"time": 928, "pitch": 43, "duration": 18, "velocity": 83}, {"time": 934, "pitch": 50, "duration": 11, "velocity": 86}, {"time": 940, "pitch": 55, "duration": 5, "velocity": 87}, {"time": 946, "pitch": 59, "duration": 19, "velocity": 91}, {"time": 952, "pitch": 40, "duration": 17, "velocity": 88}, {"time": 958, "pitch": 47, "duration": 11, "velocity": 74}, {"time": 964, "pitch": 52, "duration": 12, "velocity": 88}, {"time": 970, "pitch": 67, "duration": 7, "velocity": 91}, {"time": 976, "pitch": 45, "duration": 18, "velocity": 80}, {"time": 976, "pitch": 64, "duration": 18, "velocity": 92}, {"time": 982, "pitch": 52, "duration": 12, "velocity": 80}, {"time": 988, "pitch": 57, "duration": 7, "velocity": 86}, {"time": 1000, "pitch": 46, "duration": 43, "velocity": 103}, {"time": 1006, "pitch": 53, "duration": 36, "velocity": 85}, {"time": 1012, "pitch": 58, "duration": 14, "velocity": 93}, {"time": 1018, "pitch": 62, "duration": 14, "velocity": 88}, {"time": 1018, "pitch": 70, "duration": 14, "velocity": 89}, {"time": 1024, "pitch": 65, "duration": 8, "velocity": 92}, {"time": 1030, "pitch": 58, "duration": 7, "velocity": 90}, {"time": 1036, "pitch": 62, "duration": 7, "velocity": 108}, {"time": 1036, "pitch": 70, "duration": 9, "velocity": 113}, {"time": 1042, "pitch": 58, "duration": 3, "velocity": 93}, {"time": 1048, "pitch": 48, "duration": 41, "velocity": 84}, {"time": 1048, "pitch": 64, "duration": 14, "velocity": 93}, {"time": 1048, "pitch": 67, "duration": 14, "velocity": 107}, {"time": 1048, "pitch": 72, "duration": 14, "velocity": 90}, {"time": 1054, "pitch": 55, "duration": 34, "velocity": 78}, {"time": 1060, "pitch": 60, "duration": 8, "velocity": 87}, {"time": 1066, "pitch": 64, "duration": 14, "velocity": 104}, {"time": 1066, "pitch": 67, "duration": 13, "velocity": 110}, {"time": 1066, "pitch": 72, "duration": 14, "velocity": 92}, {"time": 1078, "pitch": 60, "duration": 8, "velocity": 88}, {"time": 1084, "pitch": 64, "duration": 7, "velocity": 107}, {"time": 1084, "pitch": 67, "duration": 7, "velocity": 110}, {"time": 1084, "pitch": 72, "duration": 8, "velocity": 94}, {"time": 1096, "pitch": 48, "duration": 18, "velocity": 96}, {"time": 1102, "pitch": 55, "duration": 18, "velocity": 83}, {"time": 1108, "pitch": 60, "duration": 6, "velocity": 94}, {"time": 1108, "pitch": 64, "duration": 5, "velocity": 80}, {"time": 1114, "pitch": 72, "duration": 7, "velocity": 92}, {"time": 1120, "pitch": 47, "duration": 21, "velocity": 88}, {"time": 1120, "pitch": 62, "duration": 15, "velocity": 91}, {"time": 1120, "pitch": 71, "duration": 13, "velocity": 88}, {"time": 1126, "pitch": 55, "duration": 12, "velocity": 81}, {"time": 1132, "pitch": 59, "duration": 5, "velocity": 87}, {"time": 1138, "pitch": 71, "duration": 6, "velocity": 87}, {"time": 1144, "pitch": 45, "duration": 18, "velocity": 84}, {"time": 1144, "pitch": 62, "duration": 10, "velocity": 86}, {"time": 1144, "pitch": 69, "duration": 13, "velocity": 87}, {"time": 1150, "pitch": 52, "duration": 18, "velocity": 80}, {"time": 1156, "pitch": 57, "duration": 5, "velocity": 86}, {"time": 1162, "pitch": 60, "duration": 7, "velocity": 86}, {"time": 1162, "pitch": 69, "duration": 7, "velocity": 87}, {"time": 1168, "pitch": 43, "duration": 24, "velocity": 87}, {"time": 1174, "pitch": 52, "duration": 11, "velocity": 81}, {"time": 1180, "pitch": 55, "duration": 4, "velocity": 89}, {"time": 1186, "pitch": 67, "duration": 9, "velocity": 88}, {"time": 1192, "pitch": 41, "duration": 20, "velocity": 88}, {"time": 1192, "pitch": 57, "duration": 14, "velocity": 83}, {"time": 1192, "pitch": 60, "duration": 14, "velocity": 80}, {"time": 1192, "pitch": 65, "duration": 14, "velocity": 71}, {"time": 1198, "pitch": 48, "duration": 13, "velocity": 81}, {"time": 1204, "pitch": 53, "duration": 6, "velocity": 87}, {"time": 1210, "pitch": 57, "duration": 3, "velocity": 84}, {"time": 1210, "pitch": 60, "duration": 5, "velocity": 86}, {"time": 1210, "pitch": 65, "duration": 5, "velocity": 87}, {"time": 1216, "pitch": 40, "duration": 17, "velocity": 89}, {"time": 1222, "pitch": 47, "duration": 12, "velocity": 83}, {"time": 1228, "pitch": 52, "duration": 7, "velocity": 102}, {"time": 1234, "pitch": 59, "duration": 4, "velocity": 88}, {"time": 1234, "pitch": 64, "duration": 7, "velocity": 90}, {"time": 1234, "pitch": 67, "duration": 7, "velocity": 88}, {"time": 1240, "pitch": 50, "duration": 18, "velocity": 91}, {"time": 1246, "pitch": 57, "duration": 11, "velocity": 80}, {"time": 1252, "pitch": 62, "duration": 5, "velocity": 104}, {"time": 1258, "pitch": 65, "duration": 5, "velocity": 113}, {"time": 1258, "pitch": 74, "duration": 10, "velocity": 100}, {"time": 1264, "pitch": 43, "duration": 18, "velocity": 85}, {"time": 1264, "pitch": 67, "duration": 6, "velocity": 92}, {"time": 1264, "pitch": 71, "duration": 6, "velocity": 86}, {"time": 1270, "pitch": 50, "duration": 12, "velocity": 85}, {"time": 1276, "pitch": 55, "duration": 10, "velocity": 100}, {"time": 1276, "pitch": 59, "duration": 3, "velocity": 92}, {"time": 1276, "pitch": 67, "duration": 5, "velocity": 94}, {"time": 1282, "pitch": 62, "duration": 5, "velocity": 91}, {"time": 1288, "pitch": 48, "duration": 18, "velocity": 86}, {"time": 1288, "pitch": 60, "duration": 5, "velocity": 90}, {"time": 1288, "pitch": 64, "duration": 13, "velocity": 98}, {"time": 1288, "pitch": 67, "duration": 13, "velocity": 91}, {"time": 1294, "pitch": 55, "duration": 18, "velocity": 76}, {"time": 1300, "pitch": 60, "duration": 5, "velocity": 93}, {"time": 1306, "pitch": 64, "duration": 20, "velocity": 96}, {"time": 1306, "pitch": 67, "duration": 5, "velocity": 98}, {"time": 1312, "pitch": 47, "duration": 20, "velocity": 87}, {"time": 1312, "pitch": 67, "duration": 13, "velocity": 83}, {"time": 1312, "pitch": 71, "duration": 13, "velocity": 91}, {"time": 1318, "pitch": 55, "duration": 12, "velocity": 78}, {"time": 1324, "pitch": 59, "duration": 5, "velocity": 88}, {"time": 1330, "pitch": 64, "duration": 21, "velocity": 93}, {"time": 1330, "pitch": 71, "duration": 3, "velocity": 91}, {"time": 1336, "pitch": 45, "duration": 19, "velocity": 86}, {"time": 1336, "pitch": 60, "duration": 13, "velocity": 89}, {"time": 1336, "pitch": 69, "duration": 13, "velocity": 90}, {"time": 1342, "pitch": 52, "duration": 18, "velocity": 78}, {"time": 1348, "pitch": 57, "duration": 6, "velocity": 88}, {"time": 1354, "pitch": 60, "duration": 8, "velocity": 86}, {"time": 1354, "pitch": 64, "duration": 8, "velocity": 89}, {"time": 1354, "pitch": 69, "duration": 7, "velocity": 88}, {"time": 1360, "pitch": 43, "duration": 24, "velocity": 91}, {"time": 1366, "pitch": 52, "duration": 10, "velocity": 84}, {"time": 1372, "pitch": 55, "duration": 5, "velocity": 102}, {"time": 1378, "pitch": 67, "duration": 18, "velocity": 100}, {"time": 1384, "pitch": 41, "duration": 19, "velocity": 88}, {"time": 1384, "pitch": 57, "duration": 14, "velocity": 83}, {"time": 1384, "pitch": 60, "duration": 14, "velocity": 79}, {"time": 1384, "pitch": 65, "duration": 14, "velocity": 74}, {"time": 1390, "pitch": 48, "duration": 21, "velocity": 81}, {"time": 1396, "pitch": 53, "duration": 13, "velocity": 87}, {"time": 1402, "pitch": 57, "duration": 4, "velocity": 86}, {"time": 1402, "pitch": 60, "duration": 14, "velocity": 94}, {"time": 1402, "pitch": 65, "duration": 10, "velocity": 93}, {"time": 1408, "pitch": 52, "duration": 17, "velocity": 91}, {"time": 1414, "pitch": 59, "duration": 12, "velocity": 86}, {"time": 1420, "pitch": 62, "duration": 22, "velocity": 89}, {"time": 1426, "pitch": 71, "duration": 6, "velocity": 102}, {"time": 1432, "pitch": 50, "duration": 18, "velocity": 87}, {"time": 1432, "pitch": 65, "duration": 13, "velocity": 88}, {"time": 1432, "pitch": 69, "duration": 13, "velocity": 87}, {"time": 1438, "pitch": 57, "duration": 11, "velocity": 54}, {"time": 1444, "pitch": 62, "duration": 4, "velocity": 91}, {"time": 1450, "pitch": 65, "duration": 6, "velocity": 92}, {"time": 1450, "pitch": 69, "duration": 6, "velocity": 87}, {"time": 1456, "pitch": 43, "duration": 18, "velocity": 89}, {"time": 1462, "pitch": 50, "duration": 12, "velocity": 86}, {"time": 1468, "pitch": 55, "duration": 12, "velocity": 93}, {"time": 1474, "pitch": 59, "duration": 3, "velocity": 89}, {"time": 1480, "pitch": 48, "duration": 17, "velocity": 83}, {"time": 1480, "pitch": 60, "duration": 7, "velocity": 88}, {"time": 1480, "pitch": 64, "duration": 13, "velocity": 98}, {"time": 1480, "pitch": 67, "duration": 14, "velocity": 100}, {"time": 1486, "pitch": 55, "duration": 18, "velocity": 78}, {"time": 1492, "pitch": 60, "duration": 4, "velocity": 88}, {"time": 1498, "pitch": 64, "duration": 6, "velocity": 96}, {"time": 1498, "pitch": 67, "duration": 4, "velocity": 91}, {"time": 1504, "pitch": 47, "duration": 18, "velocity": 85}, {"time": 1504, "pitch": 62, "duration": 15, "velocity": 100}, {"time": 1504, "pitch": 71, "duration": 13, "velocity": 88}, {"time": 1510, "pitch": 55, "duration": 11, "velocity": 77}, {"time": 1516, "pitch": 59, "duration": 4, "velocity": 84}, {"time": 1522, "pitch": 71, "duration": 3, "velocity": 100}, {"time": 1528, "pitch": 45, "duration": 18, "velocity": 84}, {"time": 1528, "pitch": 60, "duration": 18, "velocity": 96}, {"time": 1528, "pitch": 69, "duration": 14, "velocity": 100}, {"time": 1534, "pitch": 52, "duration": 18, "velocity": 84}, {"time": 1540, "pitch": 57, "duration": 5, "velocity": 87}, {"time": 1546, "pitch": 69, "duration": 5, "velocity": 98}, {"time": 1552, "pitch": 43, "duration": 21, "velocity": 86}, {"time": 1552, "pitch": 67, "duration": 23, "velocity": 104}, {"time": 1558, "pitch": 52, "duration": 10, "velocity": 82}, {"time": 1564, "pitch": 55, "duration": 4, "velocity": 84}, {"time": 1564, "pitch": 62, "duration": 6, "velocity": 96}, {"time": 1576, "pitch": 41, "duration": 19, "velocity": 87}, {"time": 1576, "pitch": 57, "duration": 14, "velocity": 84}, {"time": 1576, "pitch": 60, "duration": 16, "velocity": 91}, {"time": 1576, "pitch": 65, "duration": 13, "velocity": 92}, {"time": 1582, "pitch": 48, "duration": 13, "velocity": 81}, {"time": 1588, "pitch": 53, "duration": 5, "velocity": 90}, {"time": 1594, "pitch": 57, "duration": 3, "velocity": 86}, {"time": 1594, "pitch": 60, "duration": 5, "velocity": 76}, {"time": 1594, "pitch": 65, "duration": 4, "velocity": 87}, {"time": 1600, "pitch": 40, "duration": 16, "velocity": 85}, {"time": 1600, "pitch": 64, "duration": 7, "velocity": 88}, {"time": 1606, "pitch": 52, "duration": 13, "velocity": 88}, {"time": 1612, "pitch": 60, "duration": 6, "velocity": 102}, {"time": 1618, "pitch": 69, "duration": 12, "velocity": 92}, {"time": 1624, "pitch": 50, "duration": 20, "velocity": 86}, {"time": 1624, "pitch": 62, "duration": 8, "velocity": 90}, {"time": 1624, "pitch": 65, "duration": 9, "velocity": 90}, {"time": 1630, "pitch": 57, "duration": 7, "velocity": 84}, {"time": 1636, "pitch": 62, "duration": 22, "velocity": 113}, {"time": 1636, "pitch": 69, "duration": 8, "velocity": 113}, {"time": 1642, "pitch": 57, "duration": 1, "velocity": 86}, {"time": 1648, "pitch": 43, "duration": 18, "velocity": 91}, {"time": 1648, "pitch": 59, "duration": 9, "velocity": 93}, {"time": 1648, "pitch": 67, "duration": 9, "velocity": 93}, {"time": 1654, "pitch": 50, "duration": 13, "velocity": 87}, {"time": 1657, "pitch": 55, "duration": 14, "velocity": 100}, {"time": 1660, "pitch": 59, "duration": 4, "velocity": 107}, {"time": 1663, "pitch": 62, "duration": 3, "velocity": 113}, {"time": 1666, "pitch": 67, "duration": 4, "velocity": 110}, {"time": 1672, "pitch": 48, "duration": 19, "velocity": 87}, {"time": 1672, "pitch": 60, "duration": 4, "velocity": 96}, {"time": 1672, "pitch": 64, "duration": 6, "velocity": 108}, {"time": 1672, "pitch": 67, "duration": 6, "velocity": 91}, {"time": 1678, "pitch": 55, "duration": 7, "velocity": 81}, {"time": 1684, "pitch": 60, "duration": 6, "velocity": 87}, {"time": 1684, "pitch": 64, "duration": 6, "velocity": 92}, {"time": 1684, "pitch": 72, "duration": 10, "velocity": 104}, {"time": 1690, "pitch": 55, "duration": 6, "velocity": 81}, {"time": 1696, "pitch": 47, "duration": 20, "velocity": 85}, {"time": 1696, "pitch": 62, "duration": 9, "velocity": 94}, {"time": 1696, "pitch": 71, "duration": 10, "velocity": 93}, {"time": 1702, "pitch": 55, "duration": 7, "velocity": 80}, {"time": 1708, "pitch": 59, "duration": 6, "velocity": 86}, {"time": 1708, "pitch": 62, "duration": 6, "velocity": 102}, {"time": 1708, "pitch": 71, "duration": 6, "velocity": 100}, {"time": 1720, "pitch": 45, "duration": 19, "velocity": 87}, {"time": 1720, "pitch": 60, "duration": 14, "velocity": 92}, {"time": 1720, "pitch": 64, "duration": 15, "velocity": 102}, {"time": 1720, "pitch": 69, "duration": 14, "velocity": 102}, {"time": 1726, "pitch": 52, "duration": 10, "velocity": 78}, {"time": 1732, "pitch": 57, "duration": 6, "velocity": 86}, {"time": 1738, "pitch": 69, "duration": 5, "velocity": 110}, {"time": 1744, "pitch": 43, "duration": 21, "velocity": 88}, {"time": 1744, "pitch": 67, "duration": 11, "velocity": 102}, {"time": 1750, "pitch": 52, "duration": 8, "velocity": 78}, {"time": 1756, "pitch": 55, "duration": 1, "velocity": 68}, {"time": 1756, "pitch": 62, "duration": 7, "velocity": 91}, {"time": 1756, "pitch": 67, "duration": 7, "velocity": 83}, {"time": 1762, "pitch": 55, "duration": 2, "velocity": 88}, {"time": 1768, "pitch": 41, "duration": 29, "velocity": 89}, {"time": 1768, "pitch": 57, "duration": 12, "velocity": 88}, {"time": 1768, "pitch": 60, "duration": 17, "velocity": 89}, {"time": 1768, "pitch": 65, "duration": 14, "velocity": 92}, {"time": 1774, "pitch": 48, "duration": 22, "velocity": 79}, {"time": 1780, "pitch": 53, "duration": 16, "velocity": 85}, {"time": 1786, "pitch": 57, "duration": 3, "velocity": 86}, {"time": 1786, "pitch": 60, "duration": 5, "velocity": 80}, {"time": 1786, "pitch": 65, "duration": 5, "velocity": 86}, {"time": 1792, "pitch": 41, "duration": 5, "velocity": 81}, {"time": 1792, "pitch": 53, "duration": 4, "velocity": 81}, {"time": 1792, "pitch": 60, "duration": 22, "velocity": 80}, {"time": 1792, "pitch": 65, "duration": 22, "velocity": 88}, {"time": 1792, "pitch": 68, "duration": 22, "velocity": 84}, {"time": 1816, "pitch": 43, "duration": 38, "velocity": 84}, {"time": 1822, "pitch": 50, "duration": 34, "velocity": 84}, {"time": 1828, "pitch": 55, "duration": 36, "velocity": 86}, {"time": 1834, "pitch": 59, "duration": 17, "velocity": 84}, {"time": 1840, "pitch": 67, "duration": 13, "velocity": 100}, {"time": 1852, "pitch": 62, "duration": 12, "velocity": 88}, {"time": 1858, "pitch": 67, "duration": 18, "velocity": 83}, {"time": 1864, "pitch": 48, "duration": 23, "velocity": 78}, {"time": 1864, "pitch": 60, "duration": 4, "velocity": 78}, {"time": 1864, "pitch": 64, "duration": 9, "velocity": 83}, {"time": 1870, "pitch": 55, "duration": 17, "velocity": 76}, {"time": 1876, "pitch": 60, "duration": 10, "velocity": 80}, {"time": 1882, "pitch": 64, "duration": 4, "velocity": 83}, {"time": 1882, "pitch": 72, "duration": 12, "velocity": 86}, {"time": 1888, "pitch": 50, "duration": 18, "velocity": 90}, {"time": 1894, "pitch": 57, "duration": 17, "velocity": 83}, {"time": 1900, "pitch": 62, "duration": 10, "velocity": 93}, {"time": 1906, "pitch": 74, "duration": 6, "velocity": 90}, {"time": 1909, "pitch": 71, "duration": 19, "velocity": 88}, {"time": 1912, "pitch": 52, "duration": 19, "velocity": 75}, {"time": 1918, "pitch": 59, "duration": 18, "velocity": 77}, {"time": 1924, "pitch": 64, "duration": 7, "velocity": 86}, {"time": 1930, "pitch": 74, "duration": 6, "velocity": 87}, {"time": 1936, "pitch": 53, "duration": 20, "velocity": 82}, {"time": 1936, "pitch": 65, "duration": 16, "velocity": 82}, {"time": 1936, "pitch": 72, "duration": 20, "velocity": 86}, {"time": 1960, "pitch": 48, "duration": 19, "velocity": 93}, {"time": 1966, "pitch": 55, "duration": 15, "velocity": 81}, {"time": 1972, "pitch": 60, "duration": 8, "velocity": 87}, {"time": 1978, "pitch": 72, "duration": 5, "velocity": 87}, {"time": 1984, "pitch": 43, "duration": 19, "velocity": 88}, {"time": 1990, "pitch": 50, "duration": 17, "velocity": 84}, {"time": 1996, "pitch": 55, "duration": 12, "velocity": 88}, {"time": 2002, "pitch": 59, "duration": 6, "velocity": 84}, {"time": 2002, "pitch": 67, "duration": 6, "velocity": 86}, {"time": 2008, "pitch": 41, "duration": 39, "velocity": 76}, {"time": 2008, "pitch": 53, "duration": 40, "velocity": 76}, {"time": 2008, "pitch": 57, "duration": 39, "velocity": 79}, {"time": 2008, "pitch": 65, "duration": 40, "velocity": 79}, {"time": 2056, "pitch": 48, "duration": 20, "velocity": 84}, {"time": 2062, "pitch": 55, "duration": 15, "velocity": 78}, {"time": 2068, "pitch": 60, "duration": 6, "velocity": 82}, {"time": 2074, "pitch": 64, "duration": 4, "velocity": 82}, {"time": 2074, "pitch": 72, "duration": 5, "velocity": 83}, {"time": 2104, "pitch": 41, "duration": 19, "velocity": 83}, {"time": 2110, "pitch": 48, "duration": 18, "velocity": 74}, {"time": 2116, "pitch": 53, "duration": 12, "velocity": 86}, {"time": 2122, "pitch": 57, "duration": 7, "velocity": 85}, {"time": 2128, "pitch": 43, "duration": 18, "velocity": 83}, {"time": 2134, "pitch": 50, "duration": 12, "velocity": 81}, {"time": 2140, "pitch": 55, "duration": 12, "velocity": 85}, {"time": 2146, "pitch": 59, "duration": 8, "velocity": 83}, {"time": 2152, "pitch": 48, "duration": 38, "velocity": 84}, {"time": 2158, "pitch": 55, "duration": 31, "velocity": 76}, {"time": 2164, "pitch": 60, "duration": 24, "velocity": 83}, {"time": 2170, "pitch": 64, "duration": 28, "velocity": 77}, {"time": 2200, "pitch": 41, "duration": 20, "velocity": 86}, {"time": 2206, "pitch": 48, "duration": 19, "velocity": 77}, {"time": 2212, "pitch": 53, "duration": 12, "velocity": 85}, {"time": 2218, "pitch": 57, "duration": 8, "velocity": 89}, {"time": 2224, "pitch": 43, "duration": 18, "velocity": 84}, {"time": 2230, "pitch": 50, "duration": 14, "velocity": 81}, {"time": 2236, "pitch": 55, "duration": 7, "velocity": 85}, {"time": 2242, "pitch": 59, "duration": 6, "velocity": 87}, {"time": 2248, "pitch": 41, "duration": 19, "velocity": 87}, {"time": 2254, "pitch": 48, "duration": 19, "velocity": 79}, {"time": 2260, "pitch": 53, "duration": 12, "velocity": 83}, {"time": 2266, "pitch": 57, "duration": 7, "velocity": 88}, {"time": 2272, "pitch": 43, "duration": 18, "velocity": 83}, {"time": 2278, "pitch": 50, "duration": 11, "velocity": 86}, {"time": 2284, "pitch": 55, "duration": 5, "velocity": 87}, {"time": 2290, "pitch": 59, "duration": 19, "velocity": 91}, {"time": 2296, "pitch": 40, "duration": 17, "velocity": 88}, {"time": 2302, "pitch": 47, "duration": 11, "velocity": 74}, {"time": 2308, "pitch": 52, "duration": 12, "velocity": 88}, {"time": 2314, "pitch": 67, "duration": 7, "velocity": 91}, {"time": 2320, "pitch": 45, "duration": 18, "velocity": 80}, {"time": 2320, "pitch": 64, "duration": 18, "velocity": 92}, {"time": 2326, "pitch": 52, "duration": 12, "velocity": 80}, {"time": 2332, "pitch": 57, "duration": 7, "velocity": 86}, {"time": 2344, "pitch": 46, "duration": 43, "velocity": 103}, {"time": 2350, "pitch": 53, "duration": 36, "velocity": 85}, {"time": 2356, "pitch": 58, "duration": 14, "velocity": 93}, {"time": 2362, "pitch": 62, "duration": 14, "velocity": 88}, {"time": 2362, "pitch": 70, "duration": 14, "velocity": 89}, {"time": 2368, "pitch": 65, "duration": 8, "velocity": 92}, {"time": 2374, "pitch": 58, "duration": 7, "velocity": 90}, {"time": 2380, "pitch": 62, "duration": 7, "velocity": 108}, {"time": 2380, "pitch": 70, "duration": 9, "velocity": 113}, {"time": 2386, "pitch": 58, "duration": 3, "velocity": 93}, {"time": 2392, "pitch": 48, "duration": 41, "velocity": 84}, {"time": 2392, "pitch": 64, "duration": 14, "velocity": 93}, {"time": 2392, "pitch": 67, "duration": 14, "velocity": 107}, {"time": 2392, "pitch": 72, "duration": 14, "velocity": 90}, {"time": 2398, "pitch": 55, "duration": 34, "velocity": 78}, {"time": 2404, "pitch": 60, "duration": 8, "velocity": 87}, {"time": 2410, "pitch": 64, "duration": 14, "velocity": 104}, {"time": 2410, "pitch": 67, "duration": 13, "velocity": 110}, {"time": 2410, "pitch": 72, "duration": 14, "velocity": 92}, {"time": 2422, "pitch": 60, "duration": 8, "velocity": 88}, {"time": 2428, "pitch": 64, "duration": 7, "velocity": 107}, {"time": 2428, "pitch": 67, "duration": 7, "velocity": 110}, {"time": 2428, "pitch": 72, "duration": 8, "velocity": 94}, {"time": 2440, "pitch": 48, "duration": 18, "velocity": 96}, {"time": 2446, "pitch": 55, "duration": 18, "velocity": 83}, {"time": 2452, "pitch": 60, "duration": 6, "velocity": 94}, {"time": 2452, "pitch": 64, "duration": 5, "velocity": 80}, {"time": 2458, "pitch": 72, "duration": 7, "velocity": 92}, {"time": 2464, "pitch": 47, "duration": 21, "velocity": 88}, {"time": 2464, "pitch": 62, "duration": 15, "velocity": 91}, {"time": 2464, "pitch": 71, "duration": 13, "velocity": 88}, {"time": 2470, "pitch": 55, "duration": 12, "velocity": 81}, {"time": 2476, "pitch": 59, "duration": 5, "velocity": 87}, {"time": 2482, "pitch": 71, "duration": 6, "velocity": 87}, {"time": 2488, "pitch": 45, "duration": 18, "velocity": 84}, {"time": 2488, "pitch": 62, "duration": 10, "velocity": 86}, {"time": 2488, "pitch": 69, "duration": 13, "velocity": 87}, {"time": 2494, "pitch": 52, "duration": 18, "velocity": 80}, {"time": 2500, "pitch": 57, "duration": 5, "velocity": 86}, {"time": 2506, "pitch": 60, "duration": 7, "velocity": 86}, {"time": 2506, "pitch": 69, "duration": 7, "velocity": 87}, {"time": 2512, "pitch": 43, "duration": 24, "velocity": 87}, {"time": 2518, "pitch": 52, "duration": 11, "velocity": 81}, {"time": 2524, "pitch": 55, "duration": 4, "velocity": 89}, {"time": 2530, "pitch": 67, "duration": 9, "velocity": 88}, {"time": 2536, "pitch": 41, "duration": 20, "velocity": 88}, {"time": 2536, "pitch": 57, "duration": 14, "velocity": 83}, {"time": 2536, "pitch": 60, "duration": 14, "velocity": 80}, {"time": 2536, "pitch": 65, "duration": 14, "velocity": 71}, {"time": 2542, "pitch": 48, "duration": 13, "velocity": 81}, {"time": 2548, "pitch": 53, "duration": 6, "velocity": 87}, {"time": 2554, "pitch": 57, "duration": 3, "velocity": 84}, {"time": 2554, "pitch": 60, "duration": 5, "velocity": 86}, {"time": 2554, "pitch": 65, "duration": 5, "velocity": 87}, {"time": 2560, "pitch": 40, "duration": 17, "velocity": 89}, {"time": 2566, "pitch": 47, "duration": 12, "velocity": 83}, {"time": 2572, "pitch": 52, "duration": 7, "velocity": 102}, {"time": 2578, "pitch": 59, "duration": 4, "velocity": 88}, {"time": 2578, "pitch": 64, "duration": 7, "velocity": 90}, {"time": 2578, "pitch": 67, "duration": 7, "velocity": 88}, {"time": 2584, "pitch": 50, "duration": 18, "velocity": 91}, {"time": 2590, "pitch": 57, "duration": 11, "velocity": 80}, {"time": 2596, "pitch": 62, "duration": 5, "velocity": 104}, {"time": 2602, "pitch": 65, "duration": 5, "velocity": 113}, {"time": 2602, "pitch": 74, "duration": 10, "velocity": 100}, {"time": 2608, "pitch": 43, "duration": 18, "velocity": 85}, {"time": 2608, "pitch": 67, "duration": 6, "velocity": 92}, {"time": 2608, "pitch": 71, "duration": 6, "velocity": 86}, {"time": 2614, "pitch": 50, "duration": 12, "velocity": 85}, {"time": 2620, "pitch": 55, "duration": 10, "velocity": 100}, {"time": 2620, "pitch": 59, "duration": 3, "velocity": 92}, {"time": 2620, "pitch": 67, "duration": 5, "velocity": 94}, {"time": 2626, "pitch": 62, "duration": 5, "velocity": 91}, {"time": 2632, "pitch": 48, "duration": 18, "velocity": 86}, {"time": 2632, "pitch": 60, "duration": 5, "velocity": 90}, {"time": 2632, "pitch": 64, "duration": 13, "velocity": 98}, {"time": 2632, "pitch": 67, "duration": 13, "velocity": 91}, {"time": 2638, "pitch": 55, "duration": 18, "velocity": 76}, {"time": 2644, "pitch": 60, "duration": 5, "velocity": 93}, {"time": 2650, "pitch": 64, "duration": 20, "velocity": 96}, {"time": 2650, "pitch": 67, "duration": 5, "velocity": 98}, {"time": 2656, "pitch": 47, "duration": 20, "velocity": 87}, {"time": 2656, "pitch": 67, "duration": 13, "velocity": 83}, {"time": 2656, "pitch": 71, "duration": 13, "velocity": 91}, {"time": 2662, "pitch": 55, "duration": 12, "velocity": 78}, {"time": 2668, "pitch": 59, "duration": 5, "velocity": 88}, {"time": 2674, "pitch": 64, "duration": 21, "velocity": 93}, {"time": 2674, "pitch": 71, "duration": 3, "velocity": 91}, {"time": 2680, "pitch": 45, "duration": 19, "velocity": 86}, {"time": 2680, "pitch": 60, "duration": 13, "velocity": 89}, {"time": 2680, "pitch": 69, "duration": 13, "velocity": 90}, {"time": 2686, "pitch": 52, "duration": 18, "velocity": 78}, {"time": 2692, "pitch": 57, "duration": 6, "velocity": 88}, {"time": 2698, "pitch": 60, "duration": 8, "velocity": 86}, {"time": 2698, "pitch": 64, "duration": 8, "velocity": 89}, {"time": 2698, "pitch": 69, "duration": 7, "velocity": 88}, {"time": 2704, "pitch": 43, "duration": 24, "velocity": 91}, {"time": 2710, "pitch": 52, "duration": 10, "velocity": 84}, {"time": 2716, "pitch": 55, "duration": 5, "velocity": 102}, {"time": 2722, "pitch": 67, "duration": 18, "velocity": 100}, {"time": 2728, "pitch": 41, "duration": 19, "velocity": 88}, {"time": 2728, "pitch": 57, "duration": 14, "velocity": 83}, {"time": 2728, "pitch": 60, "duration": 14, "velocity": 79}, {"time": 2728, "pitch": 65, "duration": 14, "velocity": 74}, {"time": 2734, "pitch": 48, "duration": 21, "velocity": 81}, {"time": 2740, "pitch": 53, "duration": 13, "velocity": 87}, {"time": 2746, "pitch": 57, "duration": 4, "velocity": 86}, {"time": 2746, "pitch": 60, "duration": 14, "velocity": 94}, {"time": 2746, "pitch": 65, "duration": 10, "velocity": 93}, {"time": 2752, "pitch": 52, "duration": 17, "velocity": 91}, {"time": 2758, "pitch": 59, "duration": 12, "velocity": 86}, {"time": 2764, "pitch": 62, "duration": 22, "velocity": 89}, {"time": 2770, "pitch": 71, "duration": 6, "velocity": 102}, {"time": 2776, "pitch": 50, "duration": 18, "velocity": 87}, {"time": 2776, "pitch": 65, "duration": 13, "velocity": 88}, {"time": 2776, "pitch": 69, "duration": 13, "velocity": 87}, {"time": 2782, "pitch": 57, "duration": 11, "velocity": 54}, {"time": 2788, "pitch": 62, "duration": 4, "velocity": 91}, {"time": 2794, "pitch": 65, "duration": 6, "velocity": 92}, {"time": 2794, "pitch": 69, "duration": 6, "velocity": 87}, {"time": 2800, "pitch": 43, "duration": 18, "velocity": 89}, {"time": 2806, "pitch": 50, "duration": 12, "velocity": 86}, {"time": 2812, "pitch": 55, "duration": 12, "velocity": 93}, {"time": 2818, "pitch": 59, "duration": 3, "velocity": 89}, {"time": 2824, "pitch": 48, "duration": 17, "velocity": 83}, {"time": 2824, "pitch": 60, "duration": 7, "velocity": 88}, {"time": 2824, "pitch": 64, "duration": 13, "velocity": 98}, {"time": 2824, "pitch": 67, "duration": 14, "velocity": 100}, {"time": 2830, "pitch": 55, "duration": 18, "velocity": 78}, {"time": 2836, "pitch": 60, "duration": 4, "velocity": 88}, {"time": 2842, "pitch": 64, "duration": 6, "velocity": 96}, {"time": 2842, "pitch": 67, "duration": 4, "velocity": 91}, {"time": 2848, "pitch": 47, "duration": 18, "velocity": 85}, {"time": 2848, "pitch": 62, "duration": 15, "velocity": 100}, {"time": 2848, "pitch": 71, "duration": 13, "velocity": 88}, {"time": 2854, "pitch": 55, "duration": 11, "velocity": 77}, {"time": 2860, "pitch": 59, "duration": 4, "velocity": 84}, {"time": 2866, "pitch": 71, "duration": 3, "velocity": 100}, {"time": 2872, "pitch": 45, "duration": 18, "velocity": 84}, {"time": 2872, "pitch": 60, "duration": 18, "velocity": 96}, {"time": 2872, "pitch": 69, "duration": 14, "velocity": 100}, {"time": 2878, "pitch": 52, "duration": 18, "velocity": 84}, {"time": 2884, "pitch": 57, "duration": 5, "velocity": 87}, {"time": 2890, "pitch": 69, "duration": 5, "velocity": 98}, {"time": 2896, "pitch": 43, "duration": 21, "velocity": 86}, {"time": 2896, "pitch": 67, "duration": 23, "velocity": 104}, {"time": 2902, "pitch": 52, "duration": 10, "velocity": 82}, {"time": 2908, "pitch": 55, "duration": 4, "velocity": 84}, {"time": 2908, "pitch": 62, "duration": 6, "velocity": 96}, {"time": 2920, "pitch": 41, "duration": 19, "velocity": 87}, {"time": 2920, "pitch": 57, "duration": 14, "velocity": 84}, {"time": 2920, "pitch": 60, "duration": 16, "velocity": 91}, {"time": 2920, "pitch": 65, "duration": 13, "velocity": 92}, {"time": 2926, "pitch": 48, "duration": 13, "velocity": 81}, {"time": 2932, "pitch": 53, "duration": 5, "velocity": 90}, {"time": 2938, "pitch": 57, "duration": 3, "velocity": 86}, {"time": 2938, "pitch": 60, "duration": 5, "velocity": 76}, {"time": 2938, "pitch": 65, "duration": 4, "velocity": 87}, {"time": 2944, "pitch": 40, "duration": 16, "velocity": 85}, {"time": 2944, "pitch": 64, "duration": 7, "velocity": 88}, {"time": 2950, "pitch": 52, "duration": 13, "velocity": 88}, {"time": 2956, "pitch": 60, "duration": 6, "velocity": 102}, {"time": 2962, "pitch": 69, "duration": 12, "velocity": 92}, {"time": 2968, "pitch": 50, "duration": 20, "velocity": 86}, {"time": 2968, "pitch": 62, "duration": 8, "velocity": 90}, {"time": 2968, "pitch": 65, "duration": 9, "velocity": 90}, {"time": 2974, "pitch": 57, "duration": 7, "velocity": 84}, {"time": 2980, "pitch": 62, "duration": 22, "velocity": 113}, {"time": 2980, "pitch": 69, "duration": 8, "velocity": 113}, {"time": 2986, "pitch": 57, "duration": 1, "velocity": 86}, {"time": 2992, "pitch": 43, "duration": 18, "velocity": 91}, {"time": 2992, "pitch": 59, "duration": 9, "velocity": 93}, {"time": 2992, "pitch": 67, "duration": 9, "velocity": 93}, {"time": 2998, "pitch": 50, "duration": 13, "velocity": 87}, {"time": 3001, "pitch": 55, "duration": 14, "velocity": 100}, {"time": 3004, "pitch": 59, "duration": 4, "velocity": 107}, {"time": 3007, "pitch": 62, "duration": 3, "velocity": 113}, {"time": 3010, "pitch": 67, "duration": 4, "velocity": 110}, {"time": 3016, "pitch": 48, "duration": 19, "velocity": 87}, {"time": 3016, "pitch": 60, "duration": 4, "velocity": 96}, {"time": 3016, "pitch": 64, "duration": 6, "velocity": 108}, {"time": 3016, "pitch": 67, "duration": 6, "velocity": 91}, {"time": 3022, "pitch": 55, "duration": 7, "velocity": 81}, {"time": 3028, "pitch": 60, "duration": 6, "velocity": 87}, {"time": 3028, "pitch": 64, "duration": 6, "velocity": 92}, {"time": 3028, "pitch": 72, "duration": 10, "velocity": 104}, {"time": 3034, "pitch": 55, "duration": 6, "velocity": 81}, {"time": 3040, "pitch": 47, "duration": 20, "velocity": 85}, {"time": 3040, "pitch": 62, "duration": 9, "velocity": 94}, {"time": 3040, "pitch": 71, "duration": 10, "velocity": 93}, {"time": 3046, "pitch": 55, "duration": 7, "velocity": 80}, {"time": 3052, "pitch": 59, "duration": 6, "velocity": 86}, {"time": 3052, "pitch": 62, "duration": 6, "velocity": 102}, {"time": 3052, "pitch": 71, "duration": 6, "velocity": 100}, {"time": 3064, "pitch": 45, "duration": 19, "velocity": 87}, {"time": 3064, "pitch": 60, "duration": 14, "velocity": 92}, {"time": 3064, "pitch": 64, "duration": 15, "velocity": 102}, {"time": 3064, "pitch": 69, "duration": 14, "velocity": 102}, {"time": 3070, "pitch": 52, "duration": 10, "velocity": 78}, {"time": 3076, "pitch": 57, "duration": 6, "velocity": 86}, {"time": 3082, "pitch": 69, "duration": 5, "velocity": 110}, {"time": 3088, "pitch": 43, "duration": 21, "velocity": 88}, {"time": 3088, "pitch": 67, "duration": 11, "velocity": 102}, {"time": 3094, "pitch": 52, "duration": 8, "velocity": 78}, {"time": 3100, "pitch": 55, "duration": 1, "velocity": 68}, {"time": 3100, "pitch": 62, "duration": 7, "velocity": 91}, {"time": 3100, "pitch": 67, "duration": 7, "velocity": 83}, {"time": 3106, "pitch": 55, "duration": 2, "velocity": 88}, {"time": 3112, "pitch": 41, "duration": 29, "velocity": 89}, {"time": 3112, "pitch": 57, "duration": 12, "velocity": 88}, {"time": 3112, "pitch": 60, "duration": 17, "velocity": 89}, {"time": 3112, "pitch": 65, "duration": 14, "velocity": 92}, {"time": 3118, "pitch": 48, "duration": 22, "velocity": 79}, {"time": 3124, "pitch": 53, "duration": 16, "velocity": 85}, {"time": 3130, "pitch": 57, "duration": 3, "velocity": 86}, {"time": 3130, "pitch": 60, "duration": 5, "velocity": 80}, {"time": 3130, "pitch": 65, "duration": 5, "velocity": 86}, {"time": 3136, "pitch": 41, "duration": 5, "velocity": 81}, {"time": 3136, "pitch": 53, "duration": 4, "velocity": 81}, {"time": 3136, "pitch": 60, "duration": 22, "velocity": 80}, {"time": 3136, "pitch": 65, "duration": 22, "velocity": 88}, {"time": 3136, "pitch": 68, "duration": 22, "velocity": 84}, {"time": 3160, "pitch": 43, "duration": 38, "velocity": 84}, {"time": 3166, "pitch": 50, "duration": 34, "velocity": 84}, {"time": 3172, "pitch": 55, "duration": 36, "velocity": 86}, {"time": 3178, "pitch": 59, "duration": 17, "velocity": 84}, {"time": 3184, "pitch": 67, "duration": 13, "velocity": 100}, {"time": 3196, "pitch": 62, "duration": 12, "velocity": 88}, {"time": 3202, "pitch": 67, "duration": 18, "velocity": 83}, {"time": 3208, "pitch": 48, "duration": 18, "velocity": 89}, {"time": 3214, "pitch": 55, "duration": 18, "velocity": 80}, {"time": 3220, "pitch": 60, "duration": 5, "velocity": 90}, {"time": 3226, "pitch": 71, "duration": 19, "velocity": 88}, {"time": 3232, "pitch": 47, "duration": 20, "velocity": 87}, {"time": 3238, "pitch": 55, "duration": 10, "velocity": 84}, {"time": 3244, "pitch": 59, "duration": 4, "velocity": 88}, {"time": 3250, "pitch": 71, "duration": 6, "velocity": 88}, {"time": 3256, "pitch": 45, "duration": 18, "velocity": 84}, {"time": 3256, "pitch": 69, "duration": 16, "velocity": 89}, {"time": 3262, "pitch": 52, "duration": 18, "velocity": 81}, {"time": 3268, "pitch": 57, "duration": 5, "velocity": 85}, {"time": 3274, "pitch": 69, "duration": 6, "velocity": 88}, {"time": 3280, "pitch": 43, "duration": 17, "velocity": 85}, {"time": 3280, "pitch": 67, "duration": 16, "velocity": 87}, {"time": 3286, "pitch": 52, "duration": 10, "velocity": 81}, {"time": 3292, "pitch": 55, "duration": 3, "velocity": 86}, {"time": 3298, "pitch": 67, "duration": 5, "velocity": 89}, {"time": 3304, "pitch": 41, "duration": 19, "velocity": 85}, {"time": 3304, "pitch": 57, "duration": 14, "velocity": 81}, {"time": 3304, "pitch": 60, "duration": 15, "velocity": 82}, {"time": 3304, "pitch": 65, "duration": 13, "velocity": 94}, {"time": 3310, "pitch": 48, "duration": 12, "velocity": 83}, {"time": 3316, "pitch": 53, "duration": 6, "velocity": 85}, {"time": 3322, "pitch": 60, "duration": 4, "velocity": 74}, {"time": 3328, "pitch": 40, "duration": 15, "velocity": 84}, {"time": 3328, "pitch": 64, "duration": 7, "velocity": 86}, {"time": 3334, "pitch": 52, "duration": 12, "velocity": 84}, {"time": 3340, "pitch": 60, "duration": 7, "velocity": 96}, {"time": 3346, "pitch": 67, "duration": 5, "velocity": 88}, {"time": 3352, "pitch": 50, "duration": 41, "velocity": 76}, {"time": 3352, "pitch": 62, "duration": 6, "velocity": 86}, {"time": 3352, "pitch": 65, "duration": 8, "velocity": 91}, {"time": 3358, "pitch": 57, "duration": 34, "velocity": 81}, {"time": 3364, "pitch": 62, "duration": 27, "velocity": 84}, {"time": 3370, "pitch": 65, "duration": 29, "velocity": 84}, {"time": 3376, "pitch": 74, "duration": 23, "velocity": 87}, {"time": 3496, "pitch": 48, "duration": 18, "velocity": 96}, {"time": 3502, "pitch": 55, "duration": 18, "velocity": 83}, {"time": 3508, "pitch": 60, "duration": 6, "velocity": 94}, {"time": 3508, "pitch": 64, "duration": 5, "velocity": 80}, {"time": 3514, "pitch": 72, "duration": 7, "velocity": 92}, {"time": 3520, "pitch": 47, "duration": 21, "velocity": 88}, {"time": 3520, "pitch": 62, "duration": 15, "velocity": 91}, {"time": 3520, "pitch": 71, "duration": 13, "velocity": 88}, {"time": 3526, "pitch": 55, "duration": 12, "velocity": 81}, {"time": 3532, "pitch": 59, "duration": 5, "velocity": 87}, {"time": 3538, "pitch": 71, "duration": 6, "velocity": 87}, {"time": 3544, "pitch": 45, "duration": 18, "velocity": 84}, {"time": 3544, "pitch": 62, "duration": 10, "velocity": 86}, {"time": 3544, "pitch": 69, "duration": 13, "velocity": 87}, {"time": 3550, "pitch": 52, "duration": 18, "velocity": 80}, {"time": 3556, "pitch": 57, "duration": 5, "velocity": 86}, {"time": 3562, "pitch": 60, "duration": 7, "velocity": 86}, {"time": 3562, "pitch": 69, "duration": 7, "velocity": 87}, {"time": 3568, "pitch": 43, "duration": 24, "velocity": 87}, {"time": 3574, "pitch": 52, "duration": 11, "velocity": 81}, {"time": 3580, "pitch": 55, "duration": 4, "velocity": 89}, {"time": 3586, "pitch": 67, "duration": 9, "velocity": 88}, {"time": 3592, "pitch": 41, "duration": 20, "velocity": 88}, {"time": 3592, "pitch": 57, "duration": 14, "velocity": 83}, {"time": 3592, "pitch": 60, "duration": 14, "velocity": 80}, {"time": 3592, "pitch": 65, "duration": 14, "velocity": 71}, {"time": 3598, "pitch": 48, "duration": 13, "velocity": 81}, {"time": 3604, "pitch": 53, "duration": 6, "velocity": 87}, {"time": 3610, "pitch": 57, "duration": 3, "velocity": 84}, {"time": 3610, "pitch": 60, "duration": 5, "velocity": 86}, {"time": 3610, "pitch": 65, "duration": 5, "velocity": 87}, {"time": 3616, "pitch": 40, "duration": 17, "velocity": 89}, {"time": 3622, "pitch": 47, "duration": 12, "velocity": 83}, {"time": 3628, "pitch": 52, "duration": 7, "velocity": 102}, {"time": 3634, "pitch": 59, "duration": 4, "velocity": 88}, {"time": 3634, "pitch": 64, "duration": 7, "velocity": 90}, {"time": 3634, "pitch": 67, "duration": 7, "velocity": 88}, {"time": 3640, "pitch": 50, "duration": 18, "velocity": 91}, {"time": 3646, "pitch": 57, "duration": 11, "velocity": 80}, {"time": 3652, "pitch": 62, "duration": 5, "velocity": 104}, {"time": 3658, "pitch": 65, "duration": 5, "velocity": 113}, {"time": 3658, "pitch": 74, "duration": 10, "velocity": 100}, {"time": 3664, "pitch": 43, "duration": 18, "velocity": 85}, {"time": 3664, "pitch": 67, "duration": 6, "velocity": 92}, {"time": 3664, "pitch": 71, "duration": 6, "velocity": 86}, {"time": 3670, "pitch": 50, "duration": 12, "velocity": 85}, {"time": 3676, "pitch": 55, "duration": 10, "velocity": 100}, {"time": 3676, "pitch": 59, "duration": 3, "velocity": 92}, {"time": 3676, "pitch": 67, "duration": 5, "velocity": 94}, {"time": 3682, "pitch": 62, "duration": 5, "velocity": 91}, {"time": 3688, "pitch": 48, "duration": 18, "velocity": 86}, {"time": 3688, "pitch": 60, "duration": 5, "velocity": 90}, {"time": 3688, "pitch": 64, "duration": 13, "velocity": 98}, {"time": 3688, "pitch": 67, "duration": 13, "velocity": 91}, {"time": 3694, "pitch": 55, "duration": 18, "velocity": 76}, {"time": 3700, "pitch": 60, "duration": 5, "velocity": 93}, {"time": 3706, "pitch": 64, "duration": 20, "velocity": 96}, {"time": 3706, "pitch": 67, "duration": 5, "velocity": 98}, {"time": 3712, "pitch": 47, "duration": 20, "velocity": 87}, {"time": 3712, "pitch": 67, "duration": 13, "velocity": 83}, {"time": 3712, "pitch": 71, "duration": 13, "velocity": 91}, {"time": 3718, "pitch": 55, "duration": 12, "velocity": 78}, {"time": 3724, "pitch": 59, "duration": 5, "velocity": 88}, {"time": 3730, "pitch": 64, "duration": 21, "velocity": 93}, {"time": 3730, "pitch": 71, "duration": 3, "velocity": 91}, {"time": 3736, "pitch": 45, "duration": 19, "velocity": 86}, {"time": 3736, "pitch": 60, "duration": 13, "velocity": 89}, {"time": 3736, "pitch": 69, "duration": 13, "velocity": 90}, {"time": 3742, "pitch": 52, "duration": 18, "velocity": 78}, {"time": 3748, "pitch": 57, "duration": 6, "velocity": 88}, {"time": 3754, "pitch": 60, "duration": 8, "velocity": 86}, {"time": 3754, "pitch": 64, "duration": 8, "velocity": 89}, {"time": 3754, "pitch": 69, "duration": 7, "velocity": 88}, {"time": 3760, "pitch": 43, "duration": 24, "velocity": 91}, {"time": 3766, "pitch": 52, "duration": 10, "velocity": 84}, {"time": 3772, "pitch": 55, "duration": 5, "velocity": 102}, {"time": 3778, "pitch": 67, "duration": 18, "velocity": 100}, {"time": 3784, "pitch": 41, "duration": 19, "velocity": 88}, {"time": 3784, "pitch": 57, "duration": 14, "velocity": 83}, {"time": 3784, "pitch": 60, "duration": 14, "velocity": 79}, {"time": 3784, "pitch": 65, "duration": 14, "velocity": 74}, {"time": 3790, "pitch": 48, "duration": 21, "velocity": 81}, {"time": 3796, "pitch": 53, "duration": 13, "velocity": 87}, {"time": 3802, "pitch": 57, "duration": 4, "velocity": 86}, {"time": 3802, "pitch": 60, "duration": 14, "velocity": 94}, {"time": 3802, "pitch": 65, "duration": 10, "velocity": 93}, {"time": 3808, "pitch": 52, "duration": 17, "velocity": 91}, {"time": 3814, "pitch": 59, "duration": 12, "velocity": 86}, {"time": 3820, "pitch": 62, "duration": 22, "velocity": 89}, {"time": 3826, "pitch": 71, "duration": 6, "velocity": 102}, {"time": 3832, "pitch": 50, "duration": 18, "velocity": 87}, {"time": 3832, "pitch": 65, "duration": 13, "velocity": 88}, {"time": 3832, "pitch": 69, "duration": 13, "velocity": 87}, {"time": 3838, "pitch": 57, "duration": 11, "velocity": 54}, {"time": 3844, "pitch": 62, "duration": 4, "velocity": 91}, {"time": 3850, "pitch": 65, "duration": 6, "velocity": 92}, {"time": 3850, "pitch": 69, "duration": 6, "velocity": 87}, {"time": 3856, "pitch": 43, "duration": 18, "velocity": 89}, {"time": 3862, "pitch": 50, "duration": 12, "velocity": 86}, {"time": 3868, "pitch": 55, "duration": 12, "velocity": 93}, {"time": 3874, "pitch": 59, "duration": 3, "velocity": 89}, {"time": 3880, "pitch": 48, "duration": 17, "velocity": 83}, {"time": 3880, "pitch": 60, "duration": 7, "velocity": 88}, {"time": 3880, "pitch": 64, "duration": 13, "velocity": 98}, {"time": 3880, "pitch": 67, "duration": 14, "velocity": 100}, {"time": 3886, "pitch": 55, "duration": 18, "velocity": 78}, {"time": 3892, "pitch": 60, "duration": 4, "velocity": 88}, {"time": 3898, "pitch": 64, "duration": 6, "velocity": 96}, {"time": 3898, "pitch": 67, "duration": 4, "velocity": 91}, {"time": 3904, "pitch": 47, "duration": 18, "velocity": 85}, {"time": 3904, "pitch": 62, "duration": 15, "velocity": 100}, {"time": 3904, "pitch": 71, "duration": 13, "velocity": 88}, {"time": 3910, "pitch": 55, "duration": 11, "velocity": 77}, {"time": 3916, "pitch": 59, "duration": 4, "velocity": 84}, {"time": 3922, "pitch": 71, "duration": 3, "velocity": 100}, {"time": 3928, "pitch": 45, "duration": 18, "velocity": 84}, {"time": 3928, "pitch": 60, "duration": 18, "velocity": 96}, {"time": 3928, "pitch": 69, "duration": 14, "velocity": 100}, {"time": 3934, "pitch": 52, "duration": 18, "velocity": 84}, {"time": 3940, "pitch": 57, "duration": 5, "velocity": 87}, {"time": 3946, "pitch": 69, "duration": 5, "velocity": 98}, {"time": 3952, "pitch": 43, "duration": 21, "velocity": 86}, {"time": 3952, "pitch": 67, "duration": 23, "velocity": 104}, {"time": 3958, "pitch": 52, "duration": 10, "velocity": 82}, {"time": 3964, "pitch": 55, "duration": 4, "velocity": 84}, {"time": 3964, "pitch": 62, "duration": 6, "velocity": 96}, {"time": 3976, "pitch": 41, "duration": 19, "velocity": 87}, {"time": 3976, "pitch": 57, "duration": 14, "velocity": 84}, {"time": 3976, "pitch": 60, "duration": 16, "velocity": 91}, {"time": 3976, "pitch": 65, "duration": 13, "velocity": 92}, {"time": 3982, "pitch": 48, "duration": 13, "velocity": 81}, {"time": 3988, "pitch": 53, "duration": 5, "velocity": 90}, {"time": 3994, "pitch": 57, "duration": 3, "velocity": 86}, {"time": 3994, "pitch": 60, "duration": 5, "velocity": 76}, {"time": 3994, "pitch": 65, "duration": 4, "velocity": 87}, {"time": 4000, "pitch": 40, "duration": 16, "velocity": 85}, {"time": 4000, "pitch": 64, "duration": 7, "velocity": 88}, {"time": 4006, "pitch": 52, "duration": 13, "velocity": 88}, {"time": 4012, "pitch": 60, "duration": 6, "velocity": 102}, {"time": 4018, "pitch": 69, "duration": 12, "velocity": 92}, {"time": 4024, "pitch": 50, "duration": 20, "velocity": 86}, {"time": 4024, "pitch": 62, "duration": 8, "velocity": 90}, {"time": 4024, "pitch": 65, "duration": 9, "velocity": 90}, {"time": 4030, "pitch": 57, "duration": 7, "velocity": 84}, {"time": 4036, "pitch": 62, "duration": 22, "velocity": 113}, {"time": 4036, "pitch": 69, "duration": 8, "velocity": 113}, {"time": 4042, "pitch": 57, "duration": 1, "velocity": 86}, {"time": 4048, "pitch": 43, "duration": 18, "velocity": 91}, {"time": 4048, "pitch": 59, "duration": 9, "velocity": 93}, {"time": 4048, "pitch": 67, "duration": 9, "velocity": 93}, {"time": 4054, "pitch": 50, "duration": 13, "velocity": 87}, {"time": 4057, "pitch": 55, "duration": 14, "velocity": 100}, {"time": 4060, "pitch": 59, "duration": 4, "velocity": 107}, {"time": 4063, "pitch": 62, "duration": 3, "velocity": 113}, {"time": 4066, "pitch": 67, "duration": 4, "velocity": 110}, {"time": 4072, "pitch": 48, "duration": 19, "velocity": 87}, {"time": 4072, "pitch": 60, "duration": 4, "velocity": 96}, {"time": 4072, "pitch": 64, "duration": 6, "velocity": 108}, {"time": 4072, "pitch": 67, "duration": 6, "velocity": 91}, {"time": 4078, "pitch": 55, "duration": 7, "velocity": 81}, {"time": 4084, "pitch": 60, "duration": 6, "velocity": 87}, {"time": 4084, "pitch": 64, "duration": 6, "velocity": 92}, {"time": 4084, "pitch": 72, "duration": 10, "velocity": 104}, {"time": 4090, "pitch": 55, "duration": 6, "velocity": 81}, {"time": 4096, "pitch": 47, "duration": 20, "velocity": 85}, {"time": 4096, "pitch": 62, "duration": 9, "velocity": 94}, {"time": 4096, "pitch": 71, "duration": 10, "velocity": 93}, {"time": 4102, "pitch": 55, "duration": 7, "velocity": 80}, {"time": 4108, "pitch": 59, "duration": 6, "velocity": 86}, {"time": 4108, "pitch": 62, "duration": 6, "velocity": 102}, {"time": 4108, "pitch": 71, "duration": 6, "velocity": 100}, {"time": 4120, "pitch": 45, "duration": 19, "velocity": 87}, {"time": 4120, "pitch": 60, "duration": 14, "velocity": 92}, {"time": 4120, "pitch": 64, "duration": 15, "velocity": 102}, {"time": 4120, "pitch": 69, "duration": 14, "velocity": 102}, {"time": 4126, "pitch": 52, "duration": 10, "velocity": 78}, {"time": 4132, "pitch": 57, "duration": 6, "velocity": 86}, {"time": 4138, "pitch": 69, "duration": 5, "velocity": 110}, {"time": 4144, "pitch": 43, "duration": 21, "velocity": 88}, {"time": 4144, "pitch": 67, "duration": 11, "velocity": 102}, {"time": 4150, "pitch": 52, "duration": 8, "velocity": 78}, {"time": 4156, "pitch": 55, "duration": 1, "velocity": 68}, {"time": 4156, "pitch": 62, "duration": 7, "velocity": 91}, {"time": 4156, "pitch": 67, "duration": 7, "velocity": 83}, {"time": 4162, "pitch": 55, "duration": 2, "velocity": 88}, {"time": 4168, "pitch": 41, "duration": 29, "velocity": 89}, {"time": 4168, "pitch": 57, "duration": 12, "velocity": 88}, {"time": 4168, "pitch": 60, "duration": 17, "velocity": 89}, {"time": 4168, "pitch": 65, "duration": 14, "velocity": 92}, {"time": 4174, "pitch": 48, "duration": 22, "velocity": 79}, {"time": 4180, "pitch": 53, "duration": 16, "velocity": 85}, {"time": 4186, "pitch": 57, "duration": 3, "velocity": 86}, {"time": 4186, "pitch": 60, "duration": 5, "velocity": 80}, {"time": 4186, "pitch": 65, "duration": 5, "velocity": 86}, {"time": 4192, "pitch": 41, "duration": 5, "velocity": 81}, {"time": 4192, "pitch": 53, "duration": 4, "velocity": 81}, {"time": 4192, "pitch": 60, "duration": 22, "velocity": 80}, {"time": 4192, "pitch": 65, "duration": 22, "velocity": 88}, {"time": 4192, "pitch": 68, "duration": 22, "velocity": 84}, {"time": 4216, "pitch": 43, "duration": 38, "velocity": 84}, {"time": 4222, "pitch": 50, "duration": 34, "velocity": 84}, {"time": 4228, "pitch": 55, "duration": 36, "velocity": 86}, {"time": 4234, "pitch": 59, "duration": 17, "velocity": 84}, {"time": 4240, "pitch": 67, "duration": 13, "velocity": 100}, {"time": 4252, "pitch": 62, "duration": 12, "velocity": 88}, {"time": 4258, "pitch": 67, "duration": 18, "velocity": 83}, {"time": 4264, "pitch": 48, "duration": 16, "velocity": 38}, {"time": 4270, "pitch": 55, "duration": 16, "velocity": 78}, {"time": 4276, "pitch": 60, "duration": 10, "velocity": 90}, {"time": 4282, "pitch": 64, "duration": 6, "velocity": 86}, {"time": 4288, "pitch": 50, "duration": 18, "velocity": 87}, {"time": 4294, "pitch": 57, "duration": 18, "velocity": 81}, {"time": 4300, "pitch": 62, "duration": 12, "velocity": 89}, {"time": 4306, "pitch": 65, "duration": 7, "velocity": 86}, {"time": 4312, "pitch": 52, "duration": 19, "velocity": 84}, {"time": 4318, "pitch": 59, "duration": 18, "velocity": 81}, {"time": 4324, "pitch": 64, "duration": 7, "velocity": 88}, {"time": 4330, "pitch": 67, "duration": 6, "velocity": 89}, {"time": 4336, "pitch": 53, "duration": 20, "velocity": 89}, {"time": 4342, "pitch": 60, "duration": 18, "velocity": 71}, {"time": 4348, "pitch": 65, "duration": 7, "velocity": 84}, {"time": 4354, "pitch": 69, "duration": 6, "velocity": 85}, {"time": 4360, "pitch": 55, "duration": 42, "velocity": 86}, {"time": 4366, "pitch": 62, "duration": 35, "velocity": 76}, {"time": 4372, "pitch": 67, "duration": 6, "velocity": 91}, {"time": 4378, "pitch": 69, "duration": 6, "velocity": 87}, {"time": 4384, "pitch": 71, "duration": 10, "velocity": 87}, {"time": 4408, "pitch": 53, "duration": 42, "velocity": 88}, {"time": 4414, "pitch": 60, "duration": 36, "velocity": 78}, {"time": 4420, "pitch": 65, "duration": 29, "velocity": 86}, {"time": 4426, "pitch": 77, "duration": 26, "velocity": 90}, {"time": 4438, "pitch": 72, "duration": 13, "velocity": 86}, {"time": 4456, "pitch": 48, "duration": 17, "velocity": 100}, {"time": 4462, "pitch": 55, "duration": 12, "velocity": 87}, {"time": 4468, "pitch": 60, "duration": 8, "velocity": 94}, {"time": 4474, "pitch": 64, "duration": 6, "velocity": 104}, {"time": 4480, "pitch": 42, "duration": 18, "velocity": 86}, {"time": 4486, "pitch": 54, "duration": 17, "velocity": 86}, {"time": 4492, "pitch": 57, "duration": 6, "velocity": 87}, {"time": 4498, "pitch": 60, "duration": 4, "velocity": 91}, {"time": 4504, "pitch": 41, "duration": 17, "velocity": 91}, {"time": 4510, "pitch": 48, "duration": 16, "velocity": 83}, {"time": 4516, "pitch": 53, "duration": 9, "velocity": 87}, {"time": 4522, "pitch": 57, "duration": 5, "velocity": 86}, {"time": 4528, "pitch": 43, "duration": 39, "velocity": 88}, {"time": 4534, "pitch": 50, "duration": 33, "velocity": 82}, {"time": 4540, "pitch": 55, "duration": 26, "velocity": 83}, {"time": 4546, "pitch": 59, "duration": 20, "velocity": 71}, {"time": 4555, "pitch": 67, "duration": 14, "velocity": 83}, {"time": 4604, "pitch": 48, "duration": 73, "velocity": 78}, {"time": 4612, "pitch": 55, "duration": 65, "velocity": 38}, {"time": 4618, "pitch": 60, "duration": 58, "velocity": 72}, {"time": 4622, "pitch": 62, "duration": 4, "velocity": 80}, {"time": 4627, "pitch": 64, "duration": 1, "velocity": 83}, {"time": 4631, "pitch": 67, "duration": 3, "velocity": 78}, {"time": 4635, "pitch": 72, "duration": 2, "velocity": 79}, {"time": 4639, "pitch": 76, "duration": 2, "velocity": 76}, {"time": 4644, "pitch": 79, "duration": 4, "velocity": 84}, {"time": 4651, "pitch": 84, "duration": 7, "velocity": 80}, {"time": 4658, "pitch": 88, "duration": 16, "velocity": 86}]}]}