{"metadata": {"schema_version": "0.2", "title": "None", "source_filename": "314.mid", "source_format": "midi"}, "resolution": 12, "tempos": [{"time": 0, "qpm": 66.000066000066}], "time_signatures": [{"time": 0, "numerator": 4, "denominator": 4}], "tracks": [{"program": 4, "is_drum": false, "name": "MELODY", "notes": [{"time": 378, "pitch": 67, "duration": 6, "velocity": 114}, {"time": 384, "pitch": 67, "duration": 3, "velocity": 102}, {"time": 387, "pitch": 67, "duration": 12, "velocity": 116}, {"time": 399, "pitch": 58, "duration": 3, "velocity": 96}, {"time": 402, "pitch": 67, "duration": 6, "velocity": 113}, {"time": 408, "pitch": 65, "duration": 3, "velocity": 98}, {"time": 411, "pitch": 65, "duration": 9, "velocity": 117}, {"time": 420, "pitch": 65, "duration": 3, "velocity": 113}, {"time": 423, "pitch": 67, "duration": 3, "velocity": 110}, {"time": 426, "pitch": 65, "duration": 4, "velocity": 113}, {"time": 429, "pitch": 63, "duration": 45, "velocity": 107}, {"time": 474, "pitch": 72, "duration": 6, "velocity": 113}, {"time": 480, "pitch": 72, "duration": 3, "velocity": 110}, {"time": 483, "pitch": 72, "duration": 12, "velocity": 114}, {"time": 495, "pitch": 63, "duration": 3, "velocity": 107}, {"time": 498, "pitch": 72, "duration": 6, "velocity": 113}, {"time": 504, "pitch": 70, "duration": 3, "velocity": 113}, {"time": 507, "pitch": 70, "duration": 9, "velocity": 117}, {"time": 516, "pitch": 72, "duration": 6, "velocity": 113}, {"time": 522, "pitch": 70, "duration": 3, "velocity": 107}, {"time": 525, "pitch": 67, "duration": 36, "velocity": 110}, {"time": 561, "pitch": 63, "duration": 3, "velocity": 91}, {"time": 564, "pitch": 65, "duration": 3, "velocity": 91}, {"time": 567, "pitch": 63, "duration": 3, "velocity": 93}, {"time": 570, "pitch": 72, "duration": 6, "velocity": 104}, {"time": 576, "pitch": 72, "duration": 3, "velocity": 108}, {"time": 579, "pitch": 72, "duration": 6, "velocity": 116}, {"time": 585, "pitch": 70, "duration": 3, "velocity": 108}, {"time": 588, "pitch": 72, "duration": 3, "velocity": 104}, {"time": 591, "pitch": 70, "duration": 3, "velocity": 107}, {"time": 594, "pitch": 75, "duration": 6, "velocity": 117}, {"time": 600, "pitch": 77, "duration": 3, "velocity": 108}, {"time": 603, "pitch": 74, "duration": 6, "velocity": 116}, {"time": 609, "pitch": 72, "duration": 9, "velocity": 113}, {"time": 618, "pitch": 70, "duration": 6, "velocity": 114}, {"time": 624, "pitch": 72, "duration": 3, "velocity": 96}, {"time": 627, "pitch": 67, "duration": 9, "velocity": 110}, {"time": 636, "pitch": 65, "duration": 8, "velocity": 114}, {"time": 642, "pitch": 63, "duration": 9, "velocity": 113}, {"time": 651, "pitch": 58, "duration": 3, "velocity": 90}, {"time": 654, "pitch": 67, "duration": 6, "velocity": 107}, {"time": 660, "pitch": 65, "duration": 3, "velocity": 96}, {"time": 663, "pitch": 63, "duration": 3, "velocity": 93}, {"time": 666, "pitch": 65, "duration": 6, "velocity": 93}, {"time": 672, "pitch": 65, "duration": 27, "velocity": 92}, {"time": 699, "pitch": 67, "duration": 3, "velocity": 91}, {"time": 702, "pitch": 65, "duration": 4, "velocity": 88}, {"time": 705, "pitch": 63, "duration": 3, "velocity": 88}, {"time": 708, "pitch": 60, "duration": 3, "velocity": 89}, {"time": 711, "pitch": 58, "duration": 3, "velocity": 74}, {"time": 714, "pitch": 65, "duration": 9, "velocity": 98}, {"time": 723, "pitch": 63, "duration": 39, "velocity": 90}, {"time": 762, "pitch": 67, "duration": 6, "velocity": 114}, {"time": 768, "pitch": 67, "duration": 3, "velocity": 102}, {"time": 771, "pitch": 67, "duration": 12, "velocity": 116}, {"time": 783, "pitch": 58, "duration": 3, "velocity": 96}, {"time": 786, "pitch": 67, "duration": 6, "velocity": 113}, {"time": 792, "pitch": 65, "duration": 3, "velocity": 98}, {"time": 795, "pitch": 65, "duration": 9, "velocity": 117}, {"time": 804, "pitch": 65, "duration": 3, "velocity": 113}, {"time": 807, "pitch": 67, "duration": 3, "velocity": 110}, {"time": 810, "pitch": 65, "duration": 4, "velocity": 113}, {"time": 813, "pitch": 63, "duration": 45, "velocity": 107}, {"time": 858, "pitch": 72, "duration": 6, "velocity": 113}, {"time": 864, "pitch": 72, "duration": 3, "velocity": 110}, {"time": 867, "pitch": 72, "duration": 12, "velocity": 114}, {"time": 879, "pitch": 63, "duration": 3, "velocity": 107}, {"time": 882, "pitch": 72, "duration": 6, "velocity": 113}, {"time": 888, "pitch": 70, "duration": 3, "velocity": 113}, {"time": 891, "pitch": 70, "duration": 9, "velocity": 117}, {"time": 900, "pitch": 72, "duration": 6, "velocity": 113}, {"time": 906, "pitch": 70, "duration": 3, "velocity": 107}, {"time": 909, "pitch": 67, "duration": 36, "velocity": 110}, {"time": 945, "pitch": 63, "duration": 3, "velocity": 91}, {"time": 948, "pitch": 65, "duration": 3, "velocity": 91}, {"time": 951, "pitch": 63, "duration": 3, "velocity": 93}, {"time": 954, "pitch": 72, "duration": 6, "velocity": 104}, {"time": 960, "pitch": 72, "duration": 3, "velocity": 108}, {"time": 963, "pitch": 72, "duration": 6, "velocity": 116}, {"time": 969, "pitch": 70, "duration": 3, "velocity": 108}, {"time": 972, "pitch": 72, "duration": 3, "velocity": 104}, {"time": 975, "pitch": 70, "duration": 3, "velocity": 107}, {"time": 978, "pitch": 75, "duration": 6, "velocity": 117}, {"time": 984, "pitch": 77, "duration": 3, "velocity": 108}, {"time": 987, "pitch": 74, "duration": 6, "velocity": 116}, {"time": 993, "pitch": 72, "duration": 9, "velocity": 113}, {"time": 1002, "pitch": 70, "duration": 6, "velocity": 114}, {"time": 1008, "pitch": 72, "duration": 3, "velocity": 96}, {"time": 1011, "pitch": 67, "duration": 9, "velocity": 110}, {"time": 1020, "pitch": 65, "duration": 8, "velocity": 114}, {"time": 1026, "pitch": 63, "duration": 9, "velocity": 113}, {"time": 1035, "pitch": 58, "duration": 3, "velocity": 90}, {"time": 1038, "pitch": 67, "duration": 6, "velocity": 107}, {"time": 1044, "pitch": 65, "duration": 3, "velocity": 96}, {"time": 1047, "pitch": 63, "duration": 3, "velocity": 93}, {"time": 1050, "pitch": 65, "duration": 6, "velocity": 93}, {"time": 1056, "pitch": 65, "duration": 27, "velocity": 92}, {"time": 1083, "pitch": 67, "duration": 3, "velocity": 91}, {"time": 1086, "pitch": 65, "duration": 4, "velocity": 88}, {"time": 1089, "pitch": 63, "duration": 3, "velocity": 88}, {"time": 1092, "pitch": 60, "duration": 3, "velocity": 89}, {"time": 1095, "pitch": 58, "duration": 3, "velocity": 74}, {"time": 1098, "pitch": 65, "duration": 9, "velocity": 98}, {"time": 1107, "pitch": 63, "duration": 39, "velocity": 90}, {"time": 1146, "pitch": 75, "duration": 3, "velocity": 117}, {"time": 1149, "pitch": 75, "duration": 3, "velocity": 107}, {"time": 1152, "pitch": 75, "duration": 3, "velocity": 108}, {"time": 1155, "pitch": 75, "duration": 3, "velocity": 110}, {"time": 1158, "pitch": 75, "duration": 3, "velocity": 110}, {"time": 1161, "pitch": 75, "duration": 6, "velocity": 117}, {"time": 1167, "pitch": 70, "duration": 3, "velocity": 108}, {"time": 1170, "pitch": 77, "duration": 3, "velocity": 114}, {"time": 1173, "pitch": 77, "duration": 3, "velocity": 98}, {"time": 1176, "pitch": 77, "duration": 3, "velocity": 110}, {"time": 1179, "pitch": 74, "duration": 3, "velocity": 110}, {"time": 1182, "pitch": 72, "duration": 3, "velocity": 107}, {"time": 1185, "pitch": 70, "duration": 9, "velocity": 108}, {"time": 1194, "pitch": 72, "duration": 3, "velocity": 116}, {"time": 1197, "pitch": 75, "duration": 3, "velocity": 116}, {"time": 1200, "pitch": 75, "duration": 3, "velocity": 108}, {"time": 1203, "pitch": 75, "duration": 3, "velocity": 114}, {"time": 1206, "pitch": 75, "duration": 6, "velocity": 119}, {"time": 1212, "pitch": 75, "duration": 3, "velocity": 108}, {"time": 1215, "pitch": 67, "duration": 6, "velocity": 114}, {"time": 1221, "pitch": 70, "duration": 12, "velocity": 113}, {"time": 1233, "pitch": 70, "duration": 3, "velocity": 114}, {"time": 1236, "pitch": 70, "duration": 3, "velocity": 102}, {"time": 1239, "pitch": 70, "duration": 3, "velocity": 108}, {"time": 1242, "pitch": 72, "duration": 3, "velocity": 114}, {"time": 1245, "pitch": 75, "duration": 6, "velocity": 113}, {"time": 1251, "pitch": 75, "duration": 4, "velocity": 116}, {"time": 1254, "pitch": 75, "duration": 1, "velocity": 114}, {"time": 1260, "pitch": 72, "duration": 6, "velocity": 116}, {"time": 1266, "pitch": 70, "duration": 15, "velocity": 117}, {"time": 1281, "pitch": 70, "duration": 3, "velocity": 114}, {"time": 1284, "pitch": 72, "duration": 3, "velocity": 110}, {"time": 1287, "pitch": 70, "duration": 3, "velocity": 113}, {"time": 1290, "pitch": 72, "duration": 3, "velocity": 113}, {"time": 1293, "pitch": 75, "duration": 6, "velocity": 116}, {"time": 1299, "pitch": 75, "duration": 3, "velocity": 116}, {"time": 1302, "pitch": 75, "duration": 6, "velocity": 113}, {"time": 1308, "pitch": 79, "duration": 6, "velocity": 119}, {"time": 1314, "pitch": 77, "duration": 24, "velocity": 117}, {"time": 1338, "pitch": 75, "duration": 3, "velocity": 117}, {"time": 1341, "pitch": 75, "duration": 3, "velocity": 107}, {"time": 1344, "pitch": 75, "duration": 3, "velocity": 108}, {"time": 1347, "pitch": 75, "duration": 3, "velocity": 110}, {"time": 1350, "pitch": 75, "duration": 3, "velocity": 110}, {"time": 1353, "pitch": 75, "duration": 6, "velocity": 117}, {"time": 1359, "pitch": 70, "duration": 3, "velocity": 108}, {"time": 1362, "pitch": 77, "duration": 3, "velocity": 114}, {"time": 1365, "pitch": 77, "duration": 3, "velocity": 98}, {"time": 1368, "pitch": 77, "duration": 3, "velocity": 110}, {"time": 1371, "pitch": 74, "duration": 3, "velocity": 110}, {"time": 1374, "pitch": 72, "duration": 3, "velocity": 107}, {"time": 1377, "pitch": 70, "duration": 9, "velocity": 108}, {"time": 1386, "pitch": 72, "duration": 3, "velocity": 116}, {"time": 1389, "pitch": 75, "duration": 3, "velocity": 116}, {"time": 1392, "pitch": 75, "duration": 3, "velocity": 108}, {"time": 1395, "pitch": 75, "duration": 3, "velocity": 114}, {"time": 1398, "pitch": 75, "duration": 6, "velocity": 119}, {"time": 1404, "pitch": 75, "duration": 3, "velocity": 108}, {"time": 1407, "pitch": 67, "duration": 6, "velocity": 114}, {"time": 1413, "pitch": 70, "duration": 12, "velocity": 113}, {"time": 1425, "pitch": 70, "duration": 3, "velocity": 114}, {"time": 1428, "pitch": 70, "duration": 3, "velocity": 102}, {"time": 1431, "pitch": 70, "duration": 3, "velocity": 108}, {"time": 1434, "pitch": 72, "duration": 3, "velocity": 114}, {"time": 1437, "pitch": 75, "duration": 6, "velocity": 113}, {"time": 1443, "pitch": 75, "duration": 4, "velocity": 116}, {"time": 1446, "pitch": 75, "duration": 1, "velocity": 114}, {"time": 1452, "pitch": 72, "duration": 6, "velocity": 116}, {"time": 1458, "pitch": 70, "duration": 15, "velocity": 117}, {"time": 1473, "pitch": 70, "duration": 3, "velocity": 114}, {"time": 1476, "pitch": 72, "duration": 3, "velocity": 110}, {"time": 1479, "pitch": 70, "duration": 3, "velocity": 113}, {"time": 1482, "pitch": 72, "duration": 3, "velocity": 113}, {"time": 1485, "pitch": 75, "duration": 6, "velocity": 116}, {"time": 1491, "pitch": 75, "duration": 3, "velocity": 116}, {"time": 1494, "pitch": 79, "duration": 6, "velocity": 117}, {"time": 1500, "pitch": 77, "duration": 6, "velocity": 113}, {"time": 1506, "pitch": 75, "duration": 6, "velocity": 114}, {"time": 1746, "pitch": 67, "duration": 6, "velocity": 114}, {"time": 1752, "pitch": 67, "duration": 3, "velocity": 102}, {"time": 1755, "pitch": 67, "duration": 12, "velocity": 116}, {"time": 1767, "pitch": 58, "duration": 3, "velocity": 96}, {"time": 1770, "pitch": 67, "duration": 6, "velocity": 113}, {"time": 1776, "pitch": 65, "duration": 3, "velocity": 98}, {"time": 1779, "pitch": 65, "duration": 9, "velocity": 117}, {"time": 1788, "pitch": 65, "duration": 3, "velocity": 113}, {"time": 1791, "pitch": 67, "duration": 3, "velocity": 110}, {"time": 1794, "pitch": 65, "duration": 4, "velocity": 113}, {"time": 1797, "pitch": 63, "duration": 45, "velocity": 107}, {"time": 1842, "pitch": 72, "duration": 6, "velocity": 113}, {"time": 1848, "pitch": 72, "duration": 3, "velocity": 110}, {"time": 1851, "pitch": 72, "duration": 12, "velocity": 114}, {"time": 1863, "pitch": 63, "duration": 3, "velocity": 107}, {"time": 1866, "pitch": 72, "duration": 6, "velocity": 113}, {"time": 1872, "pitch": 70, "duration": 3, "velocity": 113}, {"time": 1875, "pitch": 70, "duration": 9, "velocity": 117}, {"time": 1884, "pitch": 72, "duration": 6, "velocity": 113}, {"time": 1890, "pitch": 70, "duration": 3, "velocity": 107}, {"time": 1893, "pitch": 67, "duration": 36, "velocity": 110}, {"time": 1929, "pitch": 63, "duration": 3, "velocity": 91}, {"time": 1932, "pitch": 65, "duration": 3, "velocity": 91}, {"time": 1935, "pitch": 63, "duration": 3, "velocity": 93}, {"time": 1938, "pitch": 72, "duration": 6, "velocity": 104}, {"time": 1944, "pitch": 72, "duration": 3, "velocity": 108}, {"time": 1947, "pitch": 72, "duration": 6, "velocity": 116}, {"time": 1953, "pitch": 70, "duration": 3, "velocity": 108}, {"time": 1956, "pitch": 72, "duration": 3, "velocity": 104}, {"time": 1959, "pitch": 70, "duration": 3, "velocity": 107}, {"time": 1962, "pitch": 75, "duration": 6, "velocity": 117}, {"time": 1968, "pitch": 77, "duration": 3, "velocity": 108}, {"time": 1971, "pitch": 74, "duration": 6, "velocity": 116}, {"time": 1977, "pitch": 72, "duration": 9, "velocity": 113}, {"time": 1986, "pitch": 70, "duration": 6, "velocity": 114}, {"time": 1992, "pitch": 72, "duration": 3, "velocity": 96}, {"time": 1995, "pitch": 67, "duration": 9, "velocity": 110}, {"time": 2004, "pitch": 65, "duration": 8, "velocity": 114}, {"time": 2010, "pitch": 63, "duration": 9, "velocity": 113}, {"time": 2019, "pitch": 58, "duration": 3, "velocity": 90}, {"time": 2022, "pitch": 67, "duration": 6, "velocity": 107}, {"time": 2028, "pitch": 65, "duration": 3, "velocity": 96}, {"time": 2031, "pitch": 63, "duration": 3, "velocity": 93}, {"time": 2034, "pitch": 65, "duration": 6, "velocity": 93}, {"time": 2040, "pitch": 65, "duration": 27, "velocity": 92}, {"time": 2067, "pitch": 67, "duration": 3, "velocity": 91}, {"time": 2070, "pitch": 65, "duration": 4, "velocity": 88}, {"time": 2073, "pitch": 63, "duration": 3, "velocity": 88}, {"time": 2076, "pitch": 60, "duration": 3, "velocity": 89}, {"time": 2079, "pitch": 58, "duration": 3, "velocity": 74}, {"time": 2082, "pitch": 65, "duration": 9, "velocity": 98}, {"time": 2091, "pitch": 63, "duration": 15, "velocity": 90}, {"time": 2130, "pitch": 75, "duration": 3, "velocity": 117}, {"time": 2133, "pitch": 75, "duration": 3, "velocity": 107}, {"time": 2136, "pitch": 75, "duration": 3, "velocity": 108}, {"time": 2139, "pitch": 75, "duration": 3, "velocity": 110}, {"time": 2142, "pitch": 75, "duration": 3, "velocity": 110}, {"time": 2145, "pitch": 75, "duration": 6, "velocity": 117}, {"time": 2151, "pitch": 70, "duration": 3, "velocity": 108}, {"time": 2154, "pitch": 77, "duration": 3, "velocity": 114}, {"time": 2157, "pitch": 77, "duration": 3, "velocity": 98}, {"time": 2160, "pitch": 77, "duration": 3, "velocity": 110}, {"time": 2163, "pitch": 74, "duration": 3, "velocity": 110}, {"time": 2166, "pitch": 72, "duration": 3, "velocity": 107}, {"time": 2169, "pitch": 70, "duration": 9, "velocity": 108}, {"time": 2178, "pitch": 72, "duration": 3, "velocity": 116}, {"time": 2181, "pitch": 75, "duration": 3, "velocity": 116}, {"time": 2184, "pitch": 75, "duration": 3, "velocity": 108}, {"time": 2187, "pitch": 75, "duration": 3, "velocity": 114}, {"time": 2190, "pitch": 75, "duration": 6, "velocity": 119}, {"time": 2196, "pitch": 75, "duration": 3, "velocity": 108}, {"time": 2199, "pitch": 67, "duration": 6, "velocity": 114}, {"time": 2205, "pitch": 70, "duration": 12, "velocity": 113}, {"time": 2217, "pitch": 70, "duration": 3, "velocity": 114}, {"time": 2220, "pitch": 70, "duration": 3, "velocity": 102}, {"time": 2223, "pitch": 70, "duration": 3, "velocity": 108}, {"time": 2226, "pitch": 72, "duration": 3, "velocity": 114}, {"time": 2229, "pitch": 75, "duration": 6, "velocity": 113}, {"time": 2235, "pitch": 75, "duration": 4, "velocity": 116}, {"time": 2238, "pitch": 75, "duration": 1, "velocity": 114}, {"time": 2244, "pitch": 72, "duration": 6, "velocity": 116}, {"time": 2250, "pitch": 70, "duration": 15, "velocity": 117}, {"time": 2265, "pitch": 70, "duration": 3, "velocity": 114}, {"time": 2268, "pitch": 72, "duration": 3, "velocity": 110}, {"time": 2271, "pitch": 70, "duration": 3, "velocity": 113}, {"time": 2274, "pitch": 72, "duration": 3, "velocity": 113}, {"time": 2277, "pitch": 75, "duration": 6, "velocity": 116}, {"time": 2283, "pitch": 75, "duration": 3, "velocity": 116}, {"time": 2286, "pitch": 75, "duration": 6, "velocity": 113}, {"time": 2292, "pitch": 79, "duration": 6, "velocity": 119}, {"time": 2298, "pitch": 77, "duration": 24, "velocity": 117}, {"time": 2322, "pitch": 75, "duration": 3, "velocity": 117}, {"time": 2325, "pitch": 75, "duration": 3, "velocity": 107}, {"time": 2328, "pitch": 75, "duration": 3, "velocity": 108}, {"time": 2331, "pitch": 75, "duration": 3, "velocity": 110}, {"time": 2334, "pitch": 75, "duration": 3, "velocity": 110}, {"time": 2337, "pitch": 75, "duration": 6, "velocity": 117}, {"time": 2343, "pitch": 70, "duration": 3, "velocity": 108}, {"time": 2346, "pitch": 77, "duration": 3, "velocity": 114}, {"time": 2349, "pitch": 77, "duration": 3, "velocity": 98}, {"time": 2352, "pitch": 77, "duration": 3, "velocity": 110}, {"time": 2355, "pitch": 74, "duration": 3, "velocity": 110}, {"time": 2358, "pitch": 72, "duration": 3, "velocity": 107}, {"time": 2361, "pitch": 70, "duration": 9, "velocity": 108}, {"time": 2370, "pitch": 72, "duration": 3, "velocity": 116}, {"time": 2373, "pitch": 75, "duration": 3, "velocity": 116}, {"time": 2376, "pitch": 75, "duration": 3, "velocity": 108}, {"time": 2379, "pitch": 75, "duration": 3, "velocity": 114}, {"time": 2382, "pitch": 75, "duration": 6, "velocity": 119}, {"time": 2388, "pitch": 75, "duration": 3, "velocity": 108}, {"time": 2391, "pitch": 67, "duration": 6, "velocity": 114}, {"time": 2397, "pitch": 70, "duration": 12, "velocity": 113}, {"time": 2409, "pitch": 70, "duration": 3, "velocity": 114}, {"time": 2412, "pitch": 70, "duration": 3, "velocity": 102}, {"time": 2415, "pitch": 70, "duration": 3, "velocity": 108}, {"time": 2418, "pitch": 72, "duration": 3, "velocity": 114}, {"time": 2421, "pitch": 75, "duration": 6, "velocity": 113}, {"time": 2427, "pitch": 75, "duration": 4, "velocity": 116}, {"time": 2430, "pitch": 75, "duration": 1, "velocity": 114}, {"time": 2436, "pitch": 72, "duration": 6, "velocity": 116}, {"time": 2442, "pitch": 70, "duration": 15, "velocity": 117}, {"time": 2457, "pitch": 70, "duration": 3, "velocity": 114}, {"time": 2460, "pitch": 72, "duration": 3, "velocity": 110}, {"time": 2463, "pitch": 70, "duration": 3, "velocity": 113}, {"time": 2466, "pitch": 72, "duration": 3, "velocity": 113}, {"time": 2469, "pitch": 75, "duration": 6, "velocity": 116}, {"time": 2475, "pitch": 75, "duration": 3, "velocity": 116}, {"time": 2478, "pitch": 79, "duration": 6, "velocity": 117}, {"time": 2484, "pitch": 77, "duration": 6, "velocity": 113}, {"time": 2490, "pitch": 75, "duration": 6, "velocity": 114}, {"time": 2610, "pitch": 76, "duration": 3, "velocity": 117}, {"time": 2613, "pitch": 76, "duration": 3, "velocity": 107}, {"time": 2616, "pitch": 76, "duration": 3, "velocity": 108}, {"time": 2619, "pitch": 76, "duration": 3, "velocity": 110}, {"time": 2622, "pitch": 76, "duration": 3, "velocity": 110}, {"time": 2625, "pitch": 76, "duration": 6, "velocity": 117}, {"time": 2631, "pitch": 71, "duration": 3, "velocity": 108}, {"time": 2634, "pitch": 78, "duration": 3, "velocity": 114}, {"time": 2637, "pitch": 78, "duration": 3, "velocity": 98}, {"time": 2640, "pitch": 78, "duration": 3, "velocity": 110}, {"time": 2643, "pitch": 75, "duration": 3, "velocity": 110}, {"time": 2646, "pitch": 73, "duration": 3, "velocity": 107}, {"time": 2649, "pitch": 71, "duration": 9, "velocity": 108}, {"time": 2658, "pitch": 73, "duration": 3, "velocity": 116}, {"time": 2661, "pitch": 76, "duration": 3, "velocity": 116}, {"time": 2664, "pitch": 76, "duration": 3, "velocity": 108}, {"time": 2667, "pitch": 76, "duration": 3, "velocity": 114}, {"time": 2670, "pitch": 76, "duration": 6, "velocity": 119}, {"time": 2676, "pitch": 76, "duration": 3, "velocity": 108}, {"time": 2679, "pitch": 68, "duration": 6, "velocity": 114}, {"time": 2685, "pitch": 71, "duration": 12, "velocity": 113}, {"time": 2697, "pitch": 71, "duration": 3, "velocity": 114}, {"time": 2700, "pitch": 71, "duration": 3, "velocity": 102}, {"time": 2703, "pitch": 71, "duration": 3, "velocity": 108}, {"time": 2706, "pitch": 73, "duration": 3, "velocity": 114}, {"time": 2709, "pitch": 76, "duration": 6, "velocity": 113}, {"time": 2715, "pitch": 76, "duration": 4, "velocity": 116}, {"time": 2718, "pitch": 76, "duration": 1, "velocity": 114}, {"time": 2724, "pitch": 73, "duration": 6, "velocity": 116}, {"time": 2730, "pitch": 71, "duration": 15, "velocity": 117}, {"time": 2745, "pitch": 71, "duration": 3, "velocity": 114}, {"time": 2748, "pitch": 73, "duration": 3, "velocity": 110}, {"time": 2751, "pitch": 71, "duration": 3, "velocity": 113}, {"time": 2754, "pitch": 73, "duration": 3, "velocity": 113}, {"time": 2757, "pitch": 76, "duration": 6, "velocity": 116}, {"time": 2763, "pitch": 76, "duration": 3, "velocity": 116}, {"time": 2766, "pitch": 76, "duration": 6, "velocity": 113}, {"time": 2772, "pitch": 80, "duration": 6, "velocity": 119}, {"time": 2778, "pitch": 78, "duration": 24, "velocity": 117}, {"time": 2802, "pitch": 76, "duration": 3, "velocity": 117}, {"time": 2805, "pitch": 76, "duration": 3, "velocity": 107}, {"time": 2808, "pitch": 76, "duration": 3, "velocity": 108}, {"time": 2811, "pitch": 76, "duration": 3, "velocity": 110}, {"time": 2814, "pitch": 76, "duration": 3, "velocity": 110}, {"time": 2817, "pitch": 76, "duration": 6, "velocity": 117}, {"time": 2823, "pitch": 71, "duration": 3, "velocity": 108}, {"time": 2826, "pitch": 78, "duration": 3, "velocity": 114}, {"time": 2829, "pitch": 78, "duration": 3, "velocity": 98}, {"time": 2832, "pitch": 78, "duration": 3, "velocity": 110}, {"time": 2835, "pitch": 75, "duration": 3, "velocity": 110}, {"time": 2838, "pitch": 73, "duration": 3, "velocity": 107}, {"time": 2841, "pitch": 71, "duration": 9, "velocity": 108}, {"time": 2850, "pitch": 73, "duration": 3, "velocity": 116}, {"time": 2853, "pitch": 76, "duration": 3, "velocity": 116}, {"time": 2856, "pitch": 76, "duration": 3, "velocity": 108}, {"time": 2859, "pitch": 76, "duration": 3, "velocity": 114}, {"time": 2862, "pitch": 76, "duration": 6, "velocity": 119}, {"time": 2868, "pitch": 76, "duration": 3, "velocity": 108}, {"time": 2871, "pitch": 68, "duration": 6, "velocity": 114}, {"time": 2877, "pitch": 71, "duration": 12, "velocity": 113}, {"time": 2889, "pitch": 71, "duration": 3, "velocity": 114}, {"time": 2892, "pitch": 71, "duration": 3, "velocity": 102}, {"time": 2895, "pitch": 71, "duration": 3, "velocity": 108}, {"time": 2898, "pitch": 73, "duration": 3, "velocity": 114}, {"time": 2901, "pitch": 76, "duration": 6, "velocity": 113}, {"time": 2907, "pitch": 76, "duration": 4, "velocity": 116}, {"time": 2910, "pitch": 76, "duration": 1, "velocity": 114}, {"time": 2916, "pitch": 73, "duration": 6, "velocity": 116}, {"time": 2922, "pitch": 71, "duration": 15, "velocity": 117}, {"time": 2937, "pitch": 71, "duration": 3, "velocity": 114}, {"time": 2940, "pitch": 73, "duration": 3, "velocity": 110}, {"time": 2943, "pitch": 71, "duration": 3, "velocity": 113}, {"time": 2946, "pitch": 73, "duration": 3, "velocity": 113}, {"time": 2949, "pitch": 76, "duration": 6, "velocity": 116}, {"time": 2955, "pitch": 76, "duration": 3, "velocity": 116}, {"time": 2958, "pitch": 80, "duration": 6, "velocity": 117}, {"time": 2964, "pitch": 78, "duration": 6, "velocity": 113}, {"time": 2970, "pitch": 76, "duration": 6, "velocity": 114}]}, {"program": 0, "is_drum": false, "name": "PIANO", "notes": [{"time": 18, "pitch": 47, "duration": 41, "velocity": 100}, {"time": 18, "pitch": 63, "duration": 40, "velocity": 107}, {"time": 18, "pitch": 66, "duration": 40, "velocity": 113}, {"time": 18, "pitch": 71, "duration": 40, "velocity": 102}, {"time": 66, "pitch": 49, "duration": 33, "velocity": 98}, {"time": 66, "pitch": 61, "duration": 30, "velocity": 107}, {"time": 66, "pitch": 65, "duration": 30, "velocity": 113}, {"time": 66, "pitch": 68, "duration": 30, "velocity": 96}, {"time": 162, "pitch": 47, "duration": 40, "velocity": 98}, {"time": 162, "pitch": 63, "duration": 38, "velocity": 102}, {"time": 162, "pitch": 66, "duration": 37, "velocity": 110}, {"time": 162, "pitch": 71, "duration": 39, "velocity": 102}, {"time": 210, "pitch": 49, "duration": 46, "velocity": 98}, {"time": 210, "pitch": 61, "duration": 45, "velocity": 104}, {"time": 210, "pitch": 65, "duration": 46, "velocity": 109}, {"time": 210, "pitch": 68, "duration": 46, "velocity": 110}, {"time": 306, "pitch": 39, "duration": 60, "velocity": 88}, {"time": 306, "pitch": 51, "duration": 60, "velocity": 92}, {"time": 306, "pitch": 63, "duration": 59, "velocity": 107}, {"time": 306, "pitch": 67, "duration": 60, "velocity": 113}, {"time": 306, "pitch": 70, "duration": 60, "velocity": 107}, {"time": 378, "pitch": 51, "duration": 20, "velocity": 93}, {"time": 384, "pitch": 58, "duration": 18, "velocity": 68}, {"time": 387, "pitch": 63, "duration": 8, "velocity": 88}, {"time": 393, "pitch": 65, "duration": 4, "velocity": 83}, {"time": 396, "pitch": 67, "duration": 4, "velocity": 87}, {"time": 399, "pitch": 72, "duration": 3, "velocity": 90}, {"time": 402, "pitch": 50, "duration": 19, "velocity": 80}, {"time": 402, "pitch": 70, "duration": 15, "velocity": 88}, {"time": 408, "pitch": 58, "duration": 7, "velocity": 71}, {"time": 411, "pitch": 62, "duration": 10, "velocity": 84}, {"time": 417, "pitch": 58, "duration": 4, "velocity": 66}, {"time": 420, "pitch": 65, "duration": 3, "velocity": 83}, {"time": 423, "pitch": 70, "duration": 18, "velocity": 83}, {"time": 426, "pitch": 48, "duration": 22, "velocity": 83}, {"time": 426, "pitch": 67, "duration": 16, "velocity": 88}, {"time": 432, "pitch": 55, "duration": 18, "velocity": 46}, {"time": 435, "pitch": 60, "duration": 12, "velocity": 87}, {"time": 441, "pitch": 62, "duration": 7, "velocity": 75}, {"time": 447, "pitch": 63, "duration": 8, "velocity": 89}, {"time": 450, "pitch": 48, "duration": 17, "velocity": 87}, {"time": 453, "pitch": 55, "duration": 6, "velocity": 85}, {"time": 456, "pitch": 62, "duration": 3, "velocity": 87}, {"time": 459, "pitch": 70, "duration": 7, "velocity": 114}, {"time": 462, "pitch": 55, "duration": 4, "velocity": 89}, {"time": 465, "pitch": 62, "duration": 4, "velocity": 96}, {"time": 468, "pitch": 63, "duration": 6, "velocity": 104}, {"time": 471, "pitch": 70, "duration": 3, "velocity": 96}, {"time": 474, "pitch": 44, "duration": 20, "velocity": 84}, {"time": 474, "pitch": 60, "duration": 11, "velocity": 92}, {"time": 474, "pitch": 68, "duration": 14, "velocity": 84}, {"time": 480, "pitch": 51, "duration": 13, "velocity": 73}, {"time": 483, "pitch": 56, "duration": 10, "velocity": 85}, {"time": 486, "pitch": 60, "duration": 4, "velocity": 88}, {"time": 489, "pitch": 63, "duration": 3, "velocity": 98}, {"time": 492, "pitch": 68, "duration": 6, "velocity": 119}, {"time": 498, "pitch": 46, "duration": 20, "velocity": 85}, {"time": 498, "pitch": 62, "duration": 14, "velocity": 91}, {"time": 498, "pitch": 70, "duration": 6, "velocity": 91}, {"time": 504, "pitch": 53, "duration": 14, "velocity": 71}, {"time": 507, "pitch": 58, "duration": 7, "velocity": 87}, {"time": 513, "pitch": 60, "duration": 8, "velocity": 90}, {"time": 513, "pitch": 65, "duration": 15, "velocity": 82}, {"time": 516, "pitch": 58, "duration": 1, "velocity": 88}, {"time": 522, "pitch": 39, "duration": 41, "velocity": 87}, {"time": 525, "pitch": 46, "duration": 38, "velocity": 77}, {"time": 528, "pitch": 51, "duration": 6, "velocity": 79}, {"time": 531, "pitch": 53, "duration": 4, "velocity": 80}, {"time": 534, "pitch": 55, "duration": 4, "velocity": 88}, {"time": 537, "pitch": 51, "duration": 8, "velocity": 88}, {"time": 540, "pitch": 58, "duration": 2, "velocity": 85}, {"time": 543, "pitch": 55, "duration": 4, "velocity": 94}, {"time": 543, "pitch": 58, "duration": 6, "velocity": 78}, {"time": 543, "pitch": 63, "duration": 6, "velocity": 102}, {"time": 549, "pitch": 51, "duration": 6, "velocity": 79}, {"time": 555, "pitch": 58, "duration": 4, "velocity": 87}, {"time": 555, "pitch": 67, "duration": 5, "velocity": 94}, {"time": 558, "pitch": 51, "duration": 6, "velocity": 98}, {"time": 561, "pitch": 58, "duration": 3, "velocity": 94}, {"time": 564, "pitch": 63, "duration": 3, "velocity": 108}, {"time": 567, "pitch": 67, "duration": 10, "velocity": 96}, {"time": 570, "pitch": 44, "duration": 19, "velocity": 84}, {"time": 570, "pitch": 60, "duration": 10, "velocity": 88}, {"time": 570, "pitch": 63, "duration": 15, "velocity": 91}, {"time": 576, "pitch": 51, "duration": 13, "velocity": 70}, {"time": 582, "pitch": 56, "duration": 7, "velocity": 86}, {"time": 585, "pitch": 60, "duration": 4, "velocity": 86}, {"time": 588, "pitch": 63, "duration": 5, "velocity": 107}, {"time": 591, "pitch": 70, "duration": 13, "velocity": 89}, {"time": 594, "pitch": 46, "duration": 20, "velocity": 89}, {"time": 594, "pitch": 62, "duration": 9, "velocity": 92}, {"time": 594, "pitch": 65, "duration": 11, "velocity": 98}, {"time": 600, "pitch": 53, "duration": 13, "velocity": 77}, {"time": 603, "pitch": 58, "duration": 9, "velocity": 96}, {"time": 606, "pitch": 60, "duration": 4, "velocity": 88}, {"time": 609, "pitch": 62, "duration": 2, "velocity": 108}, {"time": 612, "pitch": 65, "duration": 2, "velocity": 119}, {"time": 615, "pitch": 70, "duration": 3, "velocity": 89}, {"time": 618, "pitch": 43, "duration": 18, "velocity": 86}, {"time": 621, "pitch": 50, "duration": 16, "velocity": 73}, {"time": 624, "pitch": 55, "duration": 6, "velocity": 86}, {"time": 627, "pitch": 58, "duration": 9, "velocity": 83}, {"time": 630, "pitch": 67, "duration": 6, "velocity": 92}, {"time": 633, "pitch": 55, "duration": 9, "velocity": 86}, {"time": 636, "pitch": 62, "duration": 6, "velocity": 85}, {"time": 639, "pitch": 67, "duration": 4, "velocity": 83}, {"time": 642, "pitch": 48, "duration": 12, "velocity": 83}, {"time": 645, "pitch": 60, "duration": 3, "velocity": 72}, {"time": 648, "pitch": 63, "duration": 6, "velocity": 79}, {"time": 651, "pitch": 67, "duration": 4, "velocity": 82}, {"time": 654, "pitch": 51, "duration": 13, "velocity": 88}, {"time": 657, "pitch": 60, "duration": 9, "velocity": 80}, {"time": 660, "pitch": 67, "duration": 3, "velocity": 88}, {"time": 666, "pitch": 41, "duration": 17, "velocity": 83}, {"time": 666, "pitch": 56, "duration": 10, "velocity": 86}, {"time": 666, "pitch": 65, "duration": 9, "velocity": 91}, {"time": 672, "pitch": 48, "duration": 12, "velocity": 48}, {"time": 675, "pitch": 53, "duration": 7, "velocity": 81}, {"time": 678, "pitch": 56, "duration": 7, "velocity": 91}, {"time": 684, "pitch": 43, "duration": 6, "velocity": 84}, {"time": 690, "pitch": 44, "duration": 12, "velocity": 78}, {"time": 690, "pitch": 60, "duration": 13, "velocity": 89}, {"time": 690, "pitch": 63, "duration": 12, "velocity": 86}, {"time": 702, "pitch": 46, "duration": 12, "velocity": 74}, {"time": 702, "pitch": 58, "duration": 12, "velocity": 76}, {"time": 702, "pitch": 62, "duration": 12, "velocity": 81}, {"time": 702, "pitch": 65, "duration": 8, "velocity": 82}, {"time": 714, "pitch": 39, "duration": 40, "velocity": 75}, {"time": 714, "pitch": 55, "duration": 9, "velocity": 81}, {"time": 714, "pitch": 63, "duration": 9, "velocity": 86}, {"time": 720, "pitch": 46, "duration": 36, "velocity": 42}, {"time": 723, "pitch": 51, "duration": 5, "velocity": 79}, {"time": 726, "pitch": 53, "duration": 8, "velocity": 83}, {"time": 732, "pitch": 51, "duration": 5, "velocity": 74}, {"time": 735, "pitch": 55, "duration": 4, "velocity": 85}, {"time": 741, "pitch": 58, "duration": 8, "velocity": 88}, {"time": 747, "pitch": 63, "duration": 5, "velocity": 84}, {"time": 750, "pitch": 51, "duration": 7, "velocity": 88}, {"time": 753, "pitch": 65, "duration": 3, "velocity": 89}, {"time": 756, "pitch": 67, "duration": 5, "velocity": 92}, {"time": 762, "pitch": 51, "duration": 20, "velocity": 87}, {"time": 768, "pitch": 58, "duration": 18, "velocity": 71}, {"time": 771, "pitch": 63, "duration": 9, "velocity": 88}, {"time": 774, "pitch": 65, "duration": 4, "velocity": 88}, {"time": 777, "pitch": 67, "duration": 3, "velocity": 100}, {"time": 780, "pitch": 72, "duration": 6, "velocity": 104}, {"time": 786, "pitch": 50, "duration": 19, "velocity": 81}, {"time": 786, "pitch": 65, "duration": 7, "velocity": 88}, {"time": 786, "pitch": 70, "duration": 7, "velocity": 88}, {"time": 792, "pitch": 58, "duration": 4, "velocity": 75}, {"time": 795, "pitch": 65, "duration": 9, "velocity": 102}, {"time": 795, "pitch": 70, "duration": 7, "velocity": 96}, {"time": 801, "pitch": 58, "duration": 4, "velocity": 77}, {"time": 804, "pitch": 63, "duration": 3, "velocity": 88}, {"time": 807, "pitch": 70, "duration": 13, "velocity": 85}, {"time": 810, "pitch": 48, "duration": 40, "velocity": 85}, {"time": 810, "pitch": 60, "duration": 10, "velocity": 94}, {"time": 810, "pitch": 67, "duration": 10, "velocity": 87}, {"time": 819, "pitch": 55, "duration": 5, "velocity": 81}, {"time": 822, "pitch": 60, "duration": 7, "velocity": 94}, {"time": 822, "pitch": 67, "duration": 2, "velocity": 82}, {"time": 825, "pitch": 55, "duration": 6, "velocity": 83}, {"time": 828, "pitch": 62, "duration": 2, "velocity": 88}, {"time": 831, "pitch": 62, "duration": 1, "velocity": 87}, {"time": 831, "pitch": 63, "duration": 4, "velocity": 117}, {"time": 834, "pitch": 55, "duration": 10, "velocity": 87}, {"time": 837, "pitch": 63, "duration": 5, "velocity": 89}, {"time": 840, "pitch": 72, "duration": 7, "velocity": 100}, {"time": 843, "pitch": 63, "duration": 3, "velocity": 78}, {"time": 843, "pitch": 67, "duration": 6, "velocity": 114}, {"time": 846, "pitch": 55, "duration": 3, "velocity": 88}, {"time": 849, "pitch": 63, "duration": 4, "velocity": 94}, {"time": 852, "pitch": 67, "duration": 3, "velocity": 107}, {"time": 855, "pitch": 72, "duration": 5, "velocity": 100}, {"time": 858, "pitch": 44, "duration": 20, "velocity": 86}, {"time": 858, "pitch": 63, "duration": 12, "velocity": 96}, {"time": 858, "pitch": 68, "duration": 7, "velocity": 116}, {"time": 864, "pitch": 51, "duration": 13, "velocity": 68}, {"time": 867, "pitch": 56, "duration": 10, "velocity": 84}, {"time": 870, "pitch": 60, "duration": 5, "velocity": 89}, {"time": 873, "pitch": 63, "duration": 3, "velocity": 104}, {"time": 876, "pitch": 68, "duration": 6, "velocity": 116}, {"time": 882, "pitch": 46, "duration": 19, "velocity": 87}, {"time": 882, "pitch": 62, "duration": 10, "velocity": 92}, {"time": 882, "pitch": 70, "duration": 5, "velocity": 100}, {"time": 888, "pitch": 53, "duration": 8, "velocity": 69}, {"time": 891, "pitch": 58, "duration": 6, "velocity": 87}, {"time": 894, "pitch": 60, "duration": 7, "velocity": 108}, {"time": 894, "pitch": 65, "duration": 12, "velocity": 114}, {"time": 900, "pitch": 53, "duration": 1, "velocity": 80}, {"time": 900, "pitch": 62, "duration": 3, "velocity": 70}, {"time": 906, "pitch": 39, "duration": 39, "velocity": 88}, {"time": 906, "pitch": 55, "duration": 9, "velocity": 79}, {"time": 906, "pitch": 58, "duration": 21, "velocity": 86}, {"time": 906, "pitch": 63, "duration": 11, "velocity": 83}, {"time": 912, "pitch": 46, "duration": 34, "velocity": 71}, {"time": 915, "pitch": 51, "duration": 4, "velocity": 85}, {"time": 918, "pitch": 53, "duration": 7, "velocity": 102}, {"time": 918, "pitch": 63, "duration": 2, "velocity": 86}, {"time": 924, "pitch": 51, "duration": 4, "velocity": 80}, {"time": 927, "pitch": 55, "duration": 5, "velocity": 93}, {"time": 927, "pitch": 58, "duration": 5, "velocity": 84}, {"time": 927, "pitch": 63, "duration": 5, "velocity": 88}, {"time": 930, "pitch": 51, "duration": 8, "velocity": 81}, {"time": 933, "pitch": 55, "duration": 5, "velocity": 83}, {"time": 936, "pitch": 58, "duration": 2, "velocity": 85}, {"time": 939, "pitch": 63, "duration": 5, "velocity": 107}, {"time": 942, "pitch": 51, "duration": 6, "velocity": 107}, {"time": 945, "pitch": 58, "duration": 4, "velocity": 94}, {"time": 948, "pitch": 63, "duration": 3, "velocity": 102}, {"time": 951, "pitch": 67, "duration": 11, "velocity": 98}, {"time": 954, "pitch": 44, "duration": 19, "velocity": 86}, {"time": 954, "pitch": 60, "duration": 9, "velocity": 94}, {"time": 954, "pitch": 63, "duration": 8, "velocity": 100}, {"time": 960, "pitch": 51, "duration": 13, "velocity": 63}, {"time": 966, "pitch": 60, "duration": 9, "velocity": 93}, {"time": 966, "pitch": 63, "duration": 11, "velocity": 108}, {"time": 966, "pitch": 67, "duration": 11, "velocity": 102}, {"time": 972, "pitch": 56, "duration": 4, "velocity": 80}, {"time": 978, "pitch": 46, "duration": 19, "velocity": 89}, {"time": 978, "pitch": 62, "duration": 9, "velocity": 94}, {"time": 978, "pitch": 65, "duration": 10, "velocity": 107}, {"time": 978, "pitch": 70, "duration": 9, "velocity": 89}, {"time": 984, "pitch": 53, "duration": 13, "velocity": 71}, {"time": 987, "pitch": 58, "duration": 8, "velocity": 89}, {"time": 990, "pitch": 60, "duration": 4, "velocity": 110}, {"time": 993, "pitch": 62, "duration": 4, "velocity": 100}, {"time": 996, "pitch": 65, "duration": 3, "velocity": 108}, {"time": 999, "pitch": 67, "duration": 2, "velocity": 113}, {"time": 1002, "pitch": 51, "duration": 12, "velocity": 84}, {"time": 1002, "pitch": 58, "duration": 12, "velocity": 86}, {"time": 1002, "pitch": 63, "duration": 11, "velocity": 94}, {"time": 1002, "pitch": 67, "duration": 10, "velocity": 89}, {"time": 1014, "pitch": 50, "duration": 12, "velocity": 83}, {"time": 1014, "pitch": 62, "duration": 12, "velocity": 92}, {"time": 1014, "pitch": 65, "duration": 11, "velocity": 84}, {"time": 1026, "pitch": 48, "duration": 18, "velocity": 85}, {"time": 1026, "pitch": 60, "duration": 4, "velocity": 78}, {"time": 1026, "pitch": 63, "duration": 11, "velocity": 81}, {"time": 1026, "pitch": 67, "duration": 9, "velocity": 81}, {"time": 1032, "pitch": 55, "duration": 10, "velocity": 71}, {"time": 1035, "pitch": 60, "duration": 6, "velocity": 85}, {"time": 1038, "pitch": 62, "duration": 4, "velocity": 94}, {"time": 1041, "pitch": 63, "duration": 4, "velocity": 88}, {"time": 1044, "pitch": 67, "duration": 4, "velocity": 100}, {"time": 1050, "pitch": 41, "duration": 43, "velocity": 82}, {"time": 1050, "pitch": 56, "duration": 9, "velocity": 85}, {"time": 1050, "pitch": 60, "duration": 8, "velocity": 36}, {"time": 1050, "pitch": 65, "duration": 9, "velocity": 88}, {"time": 1062, "pitch": 56, "duration": 12, "velocity": 86}, {"time": 1062, "pitch": 60, "duration": 14, "velocity": 91}, {"time": 1062, "pitch": 65, "duration": 15, "velocity": 88}, {"time": 1074, "pitch": 48, "duration": 19, "velocity": 72}, {"time": 1077, "pitch": 53, "duration": 6, "velocity": 80}, {"time": 1080, "pitch": 56, "duration": 11, "velocity": 81}, {"time": 1083, "pitch": 65, "duration": 6, "velocity": 100}, {"time": 1086, "pitch": 53, "duration": 8, "velocity": 87}, {"time": 1089, "pitch": 60, "duration": 3, "velocity": 76}, {"time": 1092, "pitch": 65, "duration": 4, "velocity": 86}, {"time": 1098, "pitch": 39, "duration": 41, "velocity": 91}, {"time": 1104, "pitch": 51, "duration": 8, "velocity": 74}, {"time": 1110, "pitch": 55, "duration": 10, "velocity": 91}, {"time": 1110, "pitch": 63, "duration": 7, "velocity": 93}, {"time": 1116, "pitch": 51, "duration": 8, "velocity": 70}, {"time": 1119, "pitch": 58, "duration": 15, "velocity": 86}, {"time": 1122, "pitch": 55, "duration": 11, "velocity": 87}, {"time": 1122, "pitch": 63, "duration": 12, "velocity": 100}, {"time": 1134, "pitch": 51, "duration": 5, "velocity": 84}, {"time": 1146, "pitch": 39, "duration": 19, "velocity": 94}, {"time": 1146, "pitch": 55, "duration": 9, "velocity": 96}, {"time": 1146, "pitch": 58, "duration": 9, "velocity": 107}, {"time": 1146, "pitch": 63, "duration": 8, "velocity": 102}, {"time": 1155, "pitch": 51, "duration": 5, "velocity": 84}, {"time": 1158, "pitch": 55, "duration": 6, "velocity": 107}, {"time": 1158, "pitch": 58, "duration": 10, "velocity": 113}, {"time": 1158, "pitch": 63, "duration": 9, "velocity": 110}, {"time": 1164, "pitch": 51, "duration": 4, "velocity": 75}, {"time": 1170, "pitch": 46, "duration": 20, "velocity": 88}, {"time": 1170, "pitch": 58, "duration": 5, "velocity": 98}, {"time": 1170, "pitch": 62, "duration": 10, "velocity": 104}, {"time": 1170, "pitch": 65, "duration": 9, "velocity": 102}, {"time": 1176, "pitch": 53, "duration": 14, "velocity": 80}, {"time": 1179, "pitch": 58, "duration": 4, "velocity": 88}, {"time": 1182, "pitch": 60, "duration": 7, "velocity": 114}, {"time": 1182, "pitch": 65, "duration": 8, "velocity": 113}, {"time": 1185, "pitch": 58, "duration": 3, "velocity": 86}, {"time": 1194, "pitch": 48, "duration": 20, "velocity": 90}, {"time": 1194, "pitch": 60, "duration": 9, "velocity": 100}, {"time": 1194, "pitch": 63, "duration": 8, "velocity": 102}, {"time": 1194, "pitch": 67, "duration": 9, "velocity": 100}, {"time": 1203, "pitch": 55, "duration": 5, "velocity": 81}, {"time": 1206, "pitch": 60, "duration": 11, "velocity": 110}, {"time": 1206, "pitch": 63, "duration": 10, "velocity": 113}, {"time": 1206, "pitch": 67, "duration": 11, "velocity": 110}, {"time": 1212, "pitch": 55, "duration": 2, "velocity": 86}, {"time": 1218, "pitch": 43, "duration": 18, "velocity": 88}, {"time": 1218, "pitch": 58, "duration": 9, "velocity": 92}, {"time": 1218, "pitch": 62, "duration": 9, "velocity": 108}, {"time": 1218, "pitch": 67, "duration": 9, "velocity": 92}, {"time": 1224, "pitch": 50, "duration": 13, "velocity": 78}, {"time": 1227, "pitch": 55, "duration": 4, "velocity": 91}, {"time": 1230, "pitch": 58, "duration": 7, "velocity": 114}, {"time": 1230, "pitch": 67, "duration": 4, "velocity": 91}, {"time": 1233, "pitch": 55, "duration": 3, "velocity": 102}, {"time": 1236, "pitch": 62, "duration": 3, "velocity": 107}, {"time": 1239, "pitch": 67, "duration": 2, "velocity": 89}, {"time": 1242, "pitch": 44, "duration": 20, "velocity": 88}, {"time": 1242, "pitch": 60, "duration": 10, "velocity": 107}, {"time": 1242, "pitch": 63, "duration": 9, "velocity": 108}, {"time": 1242, "pitch": 67, "duration": 9, "velocity": 94}, {"time": 1248, "pitch": 51, "duration": 13, "velocity": 67}, {"time": 1251, "pitch": 56, "duration": 4, "velocity": 86}, {"time": 1254, "pitch": 60, "duration": 11, "velocity": 113}, {"time": 1254, "pitch": 63, "duration": 7, "velocity": 113}, {"time": 1254, "pitch": 67, "duration": 7, "velocity": 107}, {"time": 1260, "pitch": 56, "duration": 2, "velocity": 85}, {"time": 1266, "pitch": 39, "duration": 18, "velocity": 93}, {"time": 1266, "pitch": 55, "duration": 8, "velocity": 93}, {"time": 1266, "pitch": 58, "duration": 9, "velocity": 94}, {"time": 1266, "pitch": 63, "duration": 9, "velocity": 87}, {"time": 1275, "pitch": 51, "duration": 5, "velocity": 85}, {"time": 1278, "pitch": 58, "duration": 6, "velocity": 110}, {"time": 1278, "pitch": 63, "duration": 7, "velocity": 114}, {"time": 1278, "pitch": 67, "duration": 7, "velocity": 107}, {"time": 1284, "pitch": 51, "duration": 4, "velocity": 88}, {"time": 1290, "pitch": 44, "duration": 19, "velocity": 89}, {"time": 1290, "pitch": 60, "duration": 9, "velocity": 94}, {"time": 1290, "pitch": 63, "duration": 9, "velocity": 113}, {"time": 1290, "pitch": 68, "duration": 9, "velocity": 97}, {"time": 1296, "pitch": 51, "duration": 13, "velocity": 75}, {"time": 1299, "pitch": 56, "duration": 4, "velocity": 91}, {"time": 1302, "pitch": 60, "duration": 5, "velocity": 108}, {"time": 1302, "pitch": 63, "duration": 10, "velocity": 116}, {"time": 1302, "pitch": 68, "duration": 8, "velocity": 119}, {"time": 1308, "pitch": 56, "duration": 3, "velocity": 90}, {"time": 1311, "pitch": 62, "duration": 4, "velocity": 86}, {"time": 1311, "pitch": 65, "duration": 3, "velocity": 83}, {"time": 1314, "pitch": 46, "duration": 18, "velocity": 88}, {"time": 1314, "pitch": 70, "duration": 7, "velocity": 104}, {"time": 1317, "pitch": 53, "duration": 14, "velocity": 85}, {"time": 1320, "pitch": 58, "duration": 6, "velocity": 104}, {"time": 1323, "pitch": 60, "duration": 2, "velocity": 114}, {"time": 1326, "pitch": 62, "duration": 4, "velocity": 116}, {"time": 1326, "pitch": 65, "duration": 1, "velocity": 98}, {"time": 1329, "pitch": 58, "duration": 2, "velocity": 114}, {"time": 1332, "pitch": 65, "duration": 2, "velocity": 117}, {"time": 1335, "pitch": 58, "duration": 2, "velocity": 82}, {"time": 1338, "pitch": 39, "duration": 18, "velocity": 100}, {"time": 1338, "pitch": 58, "duration": 9, "velocity": 91}, {"time": 1338, "pitch": 63, "duration": 3, "velocity": 100}, {"time": 1338, "pitch": 67, "duration": 3, "velocity": 104}, {"time": 1341, "pitch": 46, "duration": 16, "velocity": 86}, {"time": 1344, "pitch": 51, "duration": 7, "velocity": 89}, {"time": 1347, "pitch": 55, "duration": 3, "velocity": 88}, {"time": 1350, "pitch": 58, "duration": 7, "velocity": 116}, {"time": 1350, "pitch": 63, "duration": 10, "velocity": 114}, {"time": 1356, "pitch": 51, "duration": 6, "velocity": 83}, {"time": 1362, "pitch": 46, "duration": 20, "velocity": 89}, {"time": 1362, "pitch": 58, "duration": 2, "velocity": 89}, {"time": 1362, "pitch": 62, "duration": 6, "velocity": 107}, {"time": 1362, "pitch": 65, "duration": 6, "velocity": 102}, {"time": 1365, "pitch": 53, "duration": 18, "velocity": 80}, {"time": 1368, "pitch": 58, "duration": 6, "velocity": 90}, {"time": 1371, "pitch": 60, "duration": 2, "velocity": 91}, {"time": 1374, "pitch": 62, "duration": 4, "velocity": 108}, {"time": 1374, "pitch": 65, "duration": 4, "velocity": 117}, {"time": 1377, "pitch": 58, "duration": 3, "velocity": 102}, {"time": 1380, "pitch": 62, "duration": 5, "velocity": 88}, {"time": 1380, "pitch": 65, "duration": 2, "velocity": 91}, {"time": 1383, "pitch": 67, "duration": 2, "velocity": 82}, {"time": 1386, "pitch": 48, "duration": 16, "velocity": 90}, {"time": 1386, "pitch": 60, "duration": 10, "velocity": 107}, {"time": 1386, "pitch": 63, "duration": 10, "velocity": 108}, {"time": 1386, "pitch": 67, "duration": 9, "velocity": 100}, {"time": 1395, "pitch": 55, "duration": 7, "velocity": 85}, {"time": 1398, "pitch": 60, "duration": 7, "velocity": 113}, {"time": 1398, "pitch": 63, "duration": 11, "velocity": 114}, {"time": 1398, "pitch": 67, "duration": 8, "velocity": 108}, {"time": 1404, "pitch": 48, "duration": 1, "velocity": 88}, {"time": 1410, "pitch": 43, "duration": 18, "velocity": 89}, {"time": 1410, "pitch": 58, "duration": 7, "velocity": 91}, {"time": 1410, "pitch": 62, "duration": 8, "velocity": 98}, {"time": 1410, "pitch": 67, "duration": 6, "velocity": 90}, {"time": 1413, "pitch": 50, "duration": 15, "velocity": 74}, {"time": 1416, "pitch": 55, "duration": 6, "velocity": 86}, {"time": 1419, "pitch": 58, "duration": 2, "velocity": 85}, {"time": 1422, "pitch": 58, "duration": 5, "velocity": 88}, {"time": 1422, "pitch": 67, "duration": 5, "velocity": 116}, {"time": 1425, "pitch": 55, "duration": 3, "velocity": 108}, {"time": 1428, "pitch": 62, "duration": 4, "velocity": 98}, {"time": 1431, "pitch": 67, "duration": 11, "velocity": 104}, {"time": 1434, "pitch": 44, "duration": 20, "velocity": 89}, {"time": 1434, "pitch": 60, "duration": 9, "velocity": 104}, {"time": 1434, "pitch": 63, "duration": 9, "velocity": 113}, {"time": 1440, "pitch": 51, "duration": 13, "velocity": 68}, {"time": 1443, "pitch": 56, "duration": 4, "velocity": 85}, {"time": 1446, "pitch": 60, "duration": 9, "velocity": 114}, {"time": 1446, "pitch": 63, "duration": 10, "velocity": 117}, {"time": 1446, "pitch": 67, "duration": 9, "velocity": 113}, {"time": 1452, "pitch": 56, "duration": 1, "velocity": 86}, {"time": 1458, "pitch": 39, "duration": 17, "velocity": 96}, {"time": 1458, "pitch": 58, "duration": 10, "velocity": 93}, {"time": 1458, "pitch": 63, "duration": 6, "velocity": 113}, {"time": 1458, "pitch": 67, "duration": 6, "velocity": 94}, {"time": 1464, "pitch": 46, "duration": 12, "velocity": 80}, {"time": 1467, "pitch": 51, "duration": 10, "velocity": 98}, {"time": 1470, "pitch": 55, "duration": 4, "velocity": 113}, {"time": 1470, "pitch": 63, "duration": 3, "velocity": 107}, {"time": 1473, "pitch": 58, "duration": 5, "velocity": 108}, {"time": 1476, "pitch": 63, "duration": 4, "velocity": 96}, {"time": 1482, "pitch": 44, "duration": 12, "velocity": 88}, {"time": 1482, "pitch": 60, "duration": 10, "velocity": 92}, {"time": 1482, "pitch": 63, "duration": 11, "velocity": 102}, {"time": 1482, "pitch": 67, "duration": 10, "velocity": 93}, {"time": 1494, "pitch": 46, "duration": 12, "velocity": 85}, {"time": 1494, "pitch": 58, "duration": 10, "velocity": 91}, {"time": 1494, "pitch": 62, "duration": 12, "velocity": 98}, {"time": 1494, "pitch": 65, "duration": 10, "velocity": 91}, {"time": 1506, "pitch": 39, "duration": 28, "velocity": 88}, {"time": 1506, "pitch": 58, "duration": 9, "velocity": 82}, {"time": 1506, "pitch": 63, "duration": 2, "velocity": 81}, {"time": 1506, "pitch": 67, "duration": 3, "velocity": 84}, {"time": 1509, "pitch": 46, "duration": 25, "velocity": 80}, {"time": 1512, "pitch": 51, "duration": 7, "velocity": 86}, {"time": 1515, "pitch": 55, "duration": 4, "velocity": 73}, {"time": 1518, "pitch": 58, "duration": 7, "velocity": 88}, {"time": 1518, "pitch": 63, "duration": 7, "velocity": 107}, {"time": 1524, "pitch": 51, "duration": 10, "velocity": 77}, {"time": 1527, "pitch": 55, "duration": 11, "velocity": 71}, {"time": 1530, "pitch": 58, "duration": 10, "velocity": 74}, {"time": 1530, "pitch": 63, "duration": 9, "velocity": 87}, {"time": 1554, "pitch": 49, "duration": 87, "velocity": 93}, {"time": 1554, "pitch": 61, "duration": 86, "velocity": 86}, {"time": 1554, "pitch": 65, "duration": 87, "velocity": 107}, {"time": 1554, "pitch": 68, "duration": 87, "velocity": 106}, {"time": 1650, "pitch": 51, "duration": 79, "velocity": 102}, {"time": 1650, "pitch": 63, "duration": 77, "velocity": 107}, {"time": 1650, "pitch": 67, "duration": 78, "velocity": 116}, {"time": 1650, "pitch": 70, "duration": 78, "velocity": 100}, {"time": 1746, "pitch": 51, "duration": 20, "velocity": 87}, {"time": 1752, "pitch": 58, "duration": 18, "velocity": 71}, {"time": 1755, "pitch": 63, "duration": 9, "velocity": 88}, {"time": 1758, "pitch": 65, "duration": 4, "velocity": 88}, {"time": 1761, "pitch": 67, "duration": 3, "velocity": 100}, {"time": 1764, "pitch": 72, "duration": 6, "velocity": 104}, {"time": 1770, "pitch": 50, "duration": 19, "velocity": 81}, {"time": 1770, "pitch": 65, "duration": 7, "velocity": 88}, {"time": 1770, "pitch": 70, "duration": 7, "velocity": 88}, {"time": 1776, "pitch": 58, "duration": 4, "velocity": 75}, {"time": 1779, "pitch": 65, "duration": 9, "velocity": 102}, {"time": 1779, "pitch": 70, "duration": 7, "velocity": 96}, {"time": 1785, "pitch": 58, "duration": 4, "velocity": 77}, {"time": 1788, "pitch": 63, "duration": 3, "velocity": 88}, {"time": 1791, "pitch": 70, "duration": 13, "velocity": 85}, {"time": 1794, "pitch": 48, "duration": 40, "velocity": 85}, {"time": 1794, "pitch": 60, "duration": 10, "velocity": 94}, {"time": 1794, "pitch": 67, "duration": 10, "velocity": 87}, {"time": 1803, "pitch": 55, "duration": 5, "velocity": 81}, {"time": 1806, "pitch": 60, "duration": 7, "velocity": 94}, {"time": 1806, "pitch": 67, "duration": 2, "velocity": 82}, {"time": 1809, "pitch": 55, "duration": 6, "velocity": 83}, {"time": 1812, "pitch": 62, "duration": 2, "velocity": 88}, {"time": 1815, "pitch": 62, "duration": 1, "velocity": 87}, {"time": 1815, "pitch": 63, "duration": 4, "velocity": 117}, {"time": 1818, "pitch": 55, "duration": 10, "velocity": 87}, {"time": 1821, "pitch": 63, "duration": 5, "velocity": 89}, {"time": 1824, "pitch": 72, "duration": 7, "velocity": 100}, {"time": 1827, "pitch": 63, "duration": 3, "velocity": 78}, {"time": 1827, "pitch": 67, "duration": 6, "velocity": 114}, {"time": 1830, "pitch": 55, "duration": 3, "velocity": 88}, {"time": 1833, "pitch": 63, "duration": 4, "velocity": 94}, {"time": 1836, "pitch": 67, "duration": 3, "velocity": 107}, {"time": 1839, "pitch": 72, "duration": 5, "velocity": 100}, {"time": 1842, "pitch": 44, "duration": 20, "velocity": 86}, {"time": 1842, "pitch": 63, "duration": 12, "velocity": 96}, {"time": 1842, "pitch": 68, "duration": 7, "velocity": 116}, {"time": 1848, "pitch": 51, "duration": 13, "velocity": 68}, {"time": 1851, "pitch": 56, "duration": 10, "velocity": 84}, {"time": 1854, "pitch": 60, "duration": 5, "velocity": 89}, {"time": 1857, "pitch": 63, "duration": 3, "velocity": 104}, {"time": 1860, "pitch": 68, "duration": 6, "velocity": 116}, {"time": 1866, "pitch": 46, "duration": 19, "velocity": 87}, {"time": 1866, "pitch": 62, "duration": 10, "velocity": 92}, {"time": 1866, "pitch": 70, "duration": 5, "velocity": 100}, {"time": 1872, "pitch": 53, "duration": 8, "velocity": 69}, {"time": 1875, "pitch": 58, "duration": 6, "velocity": 87}, {"time": 1878, "pitch": 60, "duration": 7, "velocity": 108}, {"time": 1878, "pitch": 65, "duration": 12, "velocity": 114}, {"time": 1884, "pitch": 53, "duration": 1, "velocity": 80}, {"time": 1884, "pitch": 62, "duration": 3, "velocity": 70}, {"time": 1890, "pitch": 39, "duration": 39, "velocity": 88}, {"time": 1890, "pitch": 55, "duration": 9, "velocity": 79}, {"time": 1890, "pitch": 58, "duration": 21, "velocity": 86}, {"time": 1890, "pitch": 63, "duration": 11, "velocity": 83}, {"time": 1896, "pitch": 46, "duration": 34, "velocity": 71}, {"time": 1899, "pitch": 51, "duration": 4, "velocity": 85}, {"time": 1902, "pitch": 53, "duration": 7, "velocity": 102}, {"time": 1902, "pitch": 63, "duration": 2, "velocity": 86}, {"time": 1908, "pitch": 51, "duration": 4, "velocity": 80}, {"time": 1911, "pitch": 55, "duration": 5, "velocity": 93}, {"time": 1911, "pitch": 58, "duration": 5, "velocity": 84}, {"time": 1911, "pitch": 63, "duration": 5, "velocity": 88}, {"time": 1914, "pitch": 51, "duration": 8, "velocity": 81}, {"time": 1917, "pitch": 55, "duration": 5, "velocity": 83}, {"time": 1920, "pitch": 58, "duration": 2, "velocity": 85}, {"time": 1923, "pitch": 63, "duration": 5, "velocity": 107}, {"time": 1926, "pitch": 51, "duration": 6, "velocity": 107}, {"time": 1929, "pitch": 58, "duration": 4, "velocity": 94}, {"time": 1932, "pitch": 63, "duration": 3, "velocity": 102}, {"time": 1935, "pitch": 67, "duration": 11, "velocity": 98}, {"time": 1938, "pitch": 44, "duration": 19, "velocity": 86}, {"time": 1938, "pitch": 60, "duration": 9, "velocity": 94}, {"time": 1938, "pitch": 63, "duration": 8, "velocity": 100}, {"time": 1944, "pitch": 51, "duration": 13, "velocity": 63}, {"time": 1950, "pitch": 60, "duration": 9, "velocity": 93}, {"time": 1950, "pitch": 63, "duration": 11, "velocity": 108}, {"time": 1950, "pitch": 67, "duration": 11, "velocity": 102}, {"time": 1956, "pitch": 56, "duration": 4, "velocity": 80}, {"time": 1962, "pitch": 46, "duration": 19, "velocity": 89}, {"time": 1962, "pitch": 62, "duration": 9, "velocity": 94}, {"time": 1962, "pitch": 65, "duration": 10, "velocity": 107}, {"time": 1962, "pitch": 70, "duration": 9, "velocity": 89}, {"time": 1968, "pitch": 53, "duration": 13, "velocity": 71}, {"time": 1971, "pitch": 58, "duration": 8, "velocity": 89}, {"time": 1974, "pitch": 60, "duration": 4, "velocity": 110}, {"time": 1977, "pitch": 62, "duration": 4, "velocity": 100}, {"time": 1980, "pitch": 65, "duration": 3, "velocity": 108}, {"time": 1983, "pitch": 67, "duration": 2, "velocity": 113}, {"time": 1986, "pitch": 51, "duration": 12, "velocity": 84}, {"time": 1986, "pitch": 58, "duration": 12, "velocity": 86}, {"time": 1986, "pitch": 63, "duration": 11, "velocity": 94}, {"time": 1986, "pitch": 67, "duration": 10, "velocity": 89}, {"time": 1998, "pitch": 50, "duration": 12, "velocity": 83}, {"time": 1998, "pitch": 62, "duration": 12, "velocity": 92}, {"time": 1998, "pitch": 65, "duration": 11, "velocity": 84}, {"time": 2010, "pitch": 48, "duration": 18, "velocity": 85}, {"time": 2010, "pitch": 60, "duration": 4, "velocity": 78}, {"time": 2010, "pitch": 63, "duration": 11, "velocity": 81}, {"time": 2010, "pitch": 67, "duration": 9, "velocity": 81}, {"time": 2016, "pitch": 55, "duration": 10, "velocity": 71}, {"time": 2019, "pitch": 60, "duration": 6, "velocity": 85}, {"time": 2022, "pitch": 62, "duration": 4, "velocity": 94}, {"time": 2025, "pitch": 63, "duration": 4, "velocity": 88}, {"time": 2028, "pitch": 67, "duration": 4, "velocity": 100}, {"time": 2034, "pitch": 41, "duration": 43, "velocity": 82}, {"time": 2034, "pitch": 56, "duration": 9, "velocity": 85}, {"time": 2034, "pitch": 60, "duration": 8, "velocity": 36}, {"time": 2034, "pitch": 65, "duration": 9, "velocity": 88}, {"time": 2046, "pitch": 56, "duration": 12, "velocity": 86}, {"time": 2046, "pitch": 60, "duration": 14, "velocity": 91}, {"time": 2046, "pitch": 65, "duration": 15, "velocity": 88}, {"time": 2058, "pitch": 48, "duration": 19, "velocity": 72}, {"time": 2061, "pitch": 53, "duration": 6, "velocity": 80}, {"time": 2064, "pitch": 56, "duration": 11, "velocity": 81}, {"time": 2067, "pitch": 65, "duration": 6, "velocity": 100}, {"time": 2070, "pitch": 53, "duration": 8, "velocity": 87}, {"time": 2073, "pitch": 60, "duration": 3, "velocity": 76}, {"time": 2076, "pitch": 65, "duration": 4, "velocity": 86}, {"time": 2082, "pitch": 39, "duration": 41, "velocity": 91}, {"time": 2088, "pitch": 51, "duration": 8, "velocity": 74}, {"time": 2094, "pitch": 55, "duration": 10, "velocity": 91}, {"time": 2094, "pitch": 63, "duration": 7, "velocity": 93}, {"time": 2100, "pitch": 51, "duration": 8, "velocity": 70}, {"time": 2103, "pitch": 58, "duration": 15, "velocity": 86}, {"time": 2106, "pitch": 55, "duration": 11, "velocity": 87}, {"time": 2106, "pitch": 63, "duration": 12, "velocity": 100}, {"time": 2118, "pitch": 51, "duration": 5, "velocity": 84}, {"time": 2130, "pitch": 39, "duration": 19, "velocity": 94}, {"time": 2130, "pitch": 55, "duration": 9, "velocity": 96}, {"time": 2130, "pitch": 58, "duration": 9, "velocity": 107}, {"time": 2130, "pitch": 63, "duration": 8, "velocity": 102}, {"time": 2139, "pitch": 51, "duration": 5, "velocity": 84}, {"time": 2142, "pitch": 55, "duration": 6, "velocity": 107}, {"time": 2142, "pitch": 58, "duration": 10, "velocity": 113}, {"time": 2142, "pitch": 63, "duration": 9, "velocity": 110}, {"time": 2148, "pitch": 51, "duration": 4, "velocity": 75}, {"time": 2154, "pitch": 46, "duration": 20, "velocity": 88}, {"time": 2154, "pitch": 58, "duration": 5, "velocity": 98}, {"time": 2154, "pitch": 62, "duration": 10, "velocity": 104}, {"time": 2154, "pitch": 65, "duration": 9, "velocity": 102}, {"time": 2160, "pitch": 53, "duration": 14, "velocity": 80}, {"time": 2163, "pitch": 58, "duration": 4, "velocity": 88}, {"time": 2166, "pitch": 60, "duration": 7, "velocity": 114}, {"time": 2166, "pitch": 65, "duration": 8, "velocity": 113}, {"time": 2169, "pitch": 58, "duration": 3, "velocity": 86}, {"time": 2178, "pitch": 48, "duration": 20, "velocity": 90}, {"time": 2178, "pitch": 60, "duration": 9, "velocity": 100}, {"time": 2178, "pitch": 63, "duration": 8, "velocity": 102}, {"time": 2178, "pitch": 67, "duration": 9, "velocity": 100}, {"time": 2187, "pitch": 55, "duration": 5, "velocity": 81}, {"time": 2190, "pitch": 60, "duration": 11, "velocity": 110}, {"time": 2190, "pitch": 63, "duration": 10, "velocity": 113}, {"time": 2190, "pitch": 67, "duration": 11, "velocity": 110}, {"time": 2196, "pitch": 55, "duration": 2, "velocity": 86}, {"time": 2202, "pitch": 43, "duration": 18, "velocity": 88}, {"time": 2202, "pitch": 58, "duration": 9, "velocity": 92}, {"time": 2202, "pitch": 62, "duration": 9, "velocity": 108}, {"time": 2202, "pitch": 67, "duration": 9, "velocity": 92}, {"time": 2208, "pitch": 50, "duration": 13, "velocity": 78}, {"time": 2211, "pitch": 55, "duration": 4, "velocity": 91}, {"time": 2214, "pitch": 58, "duration": 7, "velocity": 114}, {"time": 2214, "pitch": 67, "duration": 4, "velocity": 91}, {"time": 2217, "pitch": 55, "duration": 3, "velocity": 102}, {"time": 2220, "pitch": 62, "duration": 3, "velocity": 107}, {"time": 2223, "pitch": 67, "duration": 2, "velocity": 89}, {"time": 2226, "pitch": 44, "duration": 20, "velocity": 88}, {"time": 2226, "pitch": 60, "duration": 10, "velocity": 107}, {"time": 2226, "pitch": 63, "duration": 9, "velocity": 108}, {"time": 2226, "pitch": 67, "duration": 9, "velocity": 94}, {"time": 2232, "pitch": 51, "duration": 13, "velocity": 67}, {"time": 2235, "pitch": 56, "duration": 4, "velocity": 86}, {"time": 2238, "pitch": 60, "duration": 11, "velocity": 113}, {"time": 2238, "pitch": 63, "duration": 7, "velocity": 113}, {"time": 2238, "pitch": 67, "duration": 7, "velocity": 107}, {"time": 2244, "pitch": 56, "duration": 2, "velocity": 85}, {"time": 2250, "pitch": 39, "duration": 18, "velocity": 93}, {"time": 2250, "pitch": 55, "duration": 8, "velocity": 93}, {"time": 2250, "pitch": 58, "duration": 9, "velocity": 94}, {"time": 2250, "pitch": 63, "duration": 9, "velocity": 87}, {"time": 2259, "pitch": 51, "duration": 5, "velocity": 85}, {"time": 2262, "pitch": 58, "duration": 6, "velocity": 110}, {"time": 2262, "pitch": 63, "duration": 7, "velocity": 114}, {"time": 2262, "pitch": 67, "duration": 7, "velocity": 107}, {"time": 2268, "pitch": 51, "duration": 4, "velocity": 88}, {"time": 2274, "pitch": 44, "duration": 19, "velocity": 89}, {"time": 2274, "pitch": 60, "duration": 9, "velocity": 94}, {"time": 2274, "pitch": 63, "duration": 9, "velocity": 113}, {"time": 2274, "pitch": 68, "duration": 9, "velocity": 97}, {"time": 2280, "pitch": 51, "duration": 13, "velocity": 75}, {"time": 2283, "pitch": 56, "duration": 4, "velocity": 91}, {"time": 2286, "pitch": 60, "duration": 5, "velocity": 108}, {"time": 2286, "pitch": 63, "duration": 10, "velocity": 116}, {"time": 2286, "pitch": 68, "duration": 8, "velocity": 119}, {"time": 2292, "pitch": 56, "duration": 3, "velocity": 90}, {"time": 2295, "pitch": 62, "duration": 4, "velocity": 86}, {"time": 2295, "pitch": 65, "duration": 3, "velocity": 83}, {"time": 2298, "pitch": 46, "duration": 18, "velocity": 88}, {"time": 2298, "pitch": 70, "duration": 7, "velocity": 104}, {"time": 2301, "pitch": 53, "duration": 14, "velocity": 85}, {"time": 2304, "pitch": 58, "duration": 6, "velocity": 104}, {"time": 2307, "pitch": 60, "duration": 2, "velocity": 114}, {"time": 2310, "pitch": 62, "duration": 4, "velocity": 116}, {"time": 2310, "pitch": 65, "duration": 1, "velocity": 98}, {"time": 2313, "pitch": 58, "duration": 2, "velocity": 114}, {"time": 2316, "pitch": 65, "duration": 2, "velocity": 117}, {"time": 2319, "pitch": 58, "duration": 2, "velocity": 82}, {"time": 2322, "pitch": 39, "duration": 18, "velocity": 100}, {"time": 2322, "pitch": 58, "duration": 9, "velocity": 91}, {"time": 2322, "pitch": 63, "duration": 3, "velocity": 100}, {"time": 2322, "pitch": 67, "duration": 3, "velocity": 104}, {"time": 2325, "pitch": 46, "duration": 16, "velocity": 86}, {"time": 2328, "pitch": 51, "duration": 7, "velocity": 89}, {"time": 2331, "pitch": 55, "duration": 3, "velocity": 88}, {"time": 2334, "pitch": 58, "duration": 7, "velocity": 116}, {"time": 2334, "pitch": 63, "duration": 10, "velocity": 114}, {"time": 2340, "pitch": 51, "duration": 6, "velocity": 83}, {"time": 2346, "pitch": 46, "duration": 20, "velocity": 89}, {"time": 2346, "pitch": 58, "duration": 2, "velocity": 89}, {"time": 2346, "pitch": 62, "duration": 6, "velocity": 107}, {"time": 2346, "pitch": 65, "duration": 6, "velocity": 102}, {"time": 2349, "pitch": 53, "duration": 18, "velocity": 80}, {"time": 2352, "pitch": 58, "duration": 6, "velocity": 90}, {"time": 2355, "pitch": 60, "duration": 2, "velocity": 91}, {"time": 2358, "pitch": 62, "duration": 4, "velocity": 108}, {"time": 2358, "pitch": 65, "duration": 4, "velocity": 117}, {"time": 2361, "pitch": 58, "duration": 3, "velocity": 102}, {"time": 2364, "pitch": 62, "duration": 5, "velocity": 88}, {"time": 2364, "pitch": 65, "duration": 2, "velocity": 91}, {"time": 2367, "pitch": 67, "duration": 2, "velocity": 82}, {"time": 2370, "pitch": 48, "duration": 16, "velocity": 90}, {"time": 2370, "pitch": 60, "duration": 10, "velocity": 107}, {"time": 2370, "pitch": 63, "duration": 10, "velocity": 108}, {"time": 2370, "pitch": 67, "duration": 9, "velocity": 100}, {"time": 2379, "pitch": 55, "duration": 7, "velocity": 85}, {"time": 2382, "pitch": 60, "duration": 7, "velocity": 113}, {"time": 2382, "pitch": 63, "duration": 11, "velocity": 114}, {"time": 2382, "pitch": 67, "duration": 8, "velocity": 108}, {"time": 2388, "pitch": 48, "duration": 1, "velocity": 88}, {"time": 2394, "pitch": 43, "duration": 18, "velocity": 89}, {"time": 2394, "pitch": 58, "duration": 7, "velocity": 91}, {"time": 2394, "pitch": 62, "duration": 8, "velocity": 98}, {"time": 2394, "pitch": 67, "duration": 6, "velocity": 90}, {"time": 2397, "pitch": 50, "duration": 15, "velocity": 74}, {"time": 2400, "pitch": 55, "duration": 6, "velocity": 86}, {"time": 2403, "pitch": 58, "duration": 2, "velocity": 85}, {"time": 2406, "pitch": 58, "duration": 5, "velocity": 88}, {"time": 2406, "pitch": 67, "duration": 5, "velocity": 116}, {"time": 2409, "pitch": 55, "duration": 3, "velocity": 108}, {"time": 2412, "pitch": 62, "duration": 4, "velocity": 98}, {"time": 2415, "pitch": 67, "duration": 11, "velocity": 104}, {"time": 2418, "pitch": 44, "duration": 20, "velocity": 89}, {"time": 2418, "pitch": 60, "duration": 9, "velocity": 104}, {"time": 2418, "pitch": 63, "duration": 9, "velocity": 113}, {"time": 2424, "pitch": 51, "duration": 13, "velocity": 68}, {"time": 2427, "pitch": 56, "duration": 4, "velocity": 85}, {"time": 2430, "pitch": 60, "duration": 9, "velocity": 114}, {"time": 2430, "pitch": 63, "duration": 10, "velocity": 117}, {"time": 2430, "pitch": 67, "duration": 9, "velocity": 113}, {"time": 2436, "pitch": 56, "duration": 1, "velocity": 86}, {"time": 2442, "pitch": 39, "duration": 17, "velocity": 96}, {"time": 2442, "pitch": 58, "duration": 10, "velocity": 93}, {"time": 2442, "pitch": 63, "duration": 6, "velocity": 113}, {"time": 2442, "pitch": 67, "duration": 6, "velocity": 94}, {"time": 2448, "pitch": 46, "duration": 12, "velocity": 80}, {"time": 2451, "pitch": 51, "duration": 10, "velocity": 98}, {"time": 2454, "pitch": 55, "duration": 4, "velocity": 113}, {"time": 2454, "pitch": 63, "duration": 3, "velocity": 107}, {"time": 2457, "pitch": 58, "duration": 5, "velocity": 108}, {"time": 2460, "pitch": 63, "duration": 4, "velocity": 96}, {"time": 2466, "pitch": 44, "duration": 12, "velocity": 88}, {"time": 2466, "pitch": 60, "duration": 10, "velocity": 92}, {"time": 2466, "pitch": 63, "duration": 11, "velocity": 102}, {"time": 2466, "pitch": 67, "duration": 10, "velocity": 93}, {"time": 2478, "pitch": 46, "duration": 12, "velocity": 85}, {"time": 2478, "pitch": 58, "duration": 10, "velocity": 91}, {"time": 2478, "pitch": 62, "duration": 12, "velocity": 98}, {"time": 2478, "pitch": 65, "duration": 10, "velocity": 91}, {"time": 2490, "pitch": 39, "duration": 24, "velocity": 88}, {"time": 2490, "pitch": 58, "duration": 9, "velocity": 82}, {"time": 2490, "pitch": 63, "duration": 2, "velocity": 81}, {"time": 2490, "pitch": 67, "duration": 3, "velocity": 84}, {"time": 2493, "pitch": 46, "duration": 20, "velocity": 80}, {"time": 2496, "pitch": 51, "duration": 7, "velocity": 86}, {"time": 2499, "pitch": 55, "duration": 4, "velocity": 73}, {"time": 2502, "pitch": 58, "duration": 7, "velocity": 88}, {"time": 2502, "pitch": 63, "duration": 7, "velocity": 107}, {"time": 2508, "pitch": 51, "duration": 5, "velocity": 77}, {"time": 2514, "pitch": 40, "duration": 43, "velocity": 86}, {"time": 2514, "pitch": 52, "duration": 43, "velocity": 86}, {"time": 2514, "pitch": 59, "duration": 12, "velocity": 88}, {"time": 2514, "pitch": 64, "duration": 35, "velocity": 96}, {"time": 2514, "pitch": 68, "duration": 12, "velocity": 90}, {"time": 2526, "pitch": 59, "duration": 22, "velocity": 86}, {"time": 2526, "pitch": 68, "duration": 22, "velocity": 83}, {"time": 2550, "pitch": 59, "duration": 8, "velocity": 82}, {"time": 2550, "pitch": 64, "duration": 9, "velocity": 86}, {"time": 2550, "pitch": 68, "duration": 8, "velocity": 84}, {"time": 2562, "pitch": 35, "duration": 18, "velocity": 89}, {"time": 2562, "pitch": 47, "duration": 19, "velocity": 88}, {"time": 2562, "pitch": 59, "duration": 10, "velocity": 87}, {"time": 2562, "pitch": 63, "duration": 11, "velocity": 91}, {"time": 2562, "pitch": 66, "duration": 11, "velocity": 88}, {"time": 2574, "pitch": 59, "duration": 8, "velocity": 87}, {"time": 2574, "pitch": 63, "duration": 11, "velocity": 91}, {"time": 2574, "pitch": 66, "duration": 10, "velocity": 86}, {"time": 2586, "pitch": 47, "duration": 24, "velocity": 91}, {"time": 2586, "pitch": 63, "duration": 24, "velocity": 91}, {"time": 2586, "pitch": 66, "duration": 24, "velocity": 96}, {"time": 2586, "pitch": 71, "duration": 24, "velocity": 90}, {"time": 2610, "pitch": 40, "duration": 19, "velocity": 94}, {"time": 2610, "pitch": 56, "duration": 9, "velocity": 96}, {"time": 2610, "pitch": 59, "duration": 9, "velocity": 107}, {"time": 2610, "pitch": 64, "duration": 8, "velocity": 102}, {"time": 2619, "pitch": 52, "duration": 5, "velocity": 84}, {"time": 2622, "pitch": 56, "duration": 6, "velocity": 107}, {"time": 2622, "pitch": 59, "duration": 10, "velocity": 113}, {"time": 2622, "pitch": 64, "duration": 9, "velocity": 110}, {"time": 2628, "pitch": 52, "duration": 4, "velocity": 75}, {"time": 2634, "pitch": 47, "duration": 20, "velocity": 88}, {"time": 2634, "pitch": 59, "duration": 5, "velocity": 98}, {"time": 2634, "pitch": 63, "duration": 10, "velocity": 104}, {"time": 2634, "pitch": 66, "duration": 9, "velocity": 102}, {"time": 2640, "pitch": 54, "duration": 14, "velocity": 80}, {"time": 2643, "pitch": 59, "duration": 4, "velocity": 88}, {"time": 2646, "pitch": 61, "duration": 7, "velocity": 114}, {"time": 2646, "pitch": 66, "duration": 8, "velocity": 113}, {"time": 2649, "pitch": 59, "duration": 3, "velocity": 86}, {"time": 2658, "pitch": 49, "duration": 20, "velocity": 90}, {"time": 2658, "pitch": 61, "duration": 9, "velocity": 100}, {"time": 2658, "pitch": 64, "duration": 8, "velocity": 102}, {"time": 2658, "pitch": 68, "duration": 9, "velocity": 100}, {"time": 2667, "pitch": 56, "duration": 5, "velocity": 81}, {"time": 2670, "pitch": 61, "duration": 11, "velocity": 110}, {"time": 2670, "pitch": 64, "duration": 10, "velocity": 113}, {"time": 2670, "pitch": 68, "duration": 11, "velocity": 110}, {"time": 2676, "pitch": 56, "duration": 2, "velocity": 86}, {"time": 2682, "pitch": 44, "duration": 18, "velocity": 88}, {"time": 2682, "pitch": 59, "duration": 9, "velocity": 92}, {"time": 2682, "pitch": 63, "duration": 9, "velocity": 108}, {"time": 2682, "pitch": 68, "duration": 9, "velocity": 92}, {"time": 2688, "pitch": 51, "duration": 13, "velocity": 78}, {"time": 2691, "pitch": 56, "duration": 4, "velocity": 91}, {"time": 2694, "pitch": 59, "duration": 7, "velocity": 114}, {"time": 2694, "pitch": 68, "duration": 4, "velocity": 91}, {"time": 2697, "pitch": 56, "duration": 3, "velocity": 102}, {"time": 2700, "pitch": 63, "duration": 3, "velocity": 107}, {"time": 2703, "pitch": 68, "duration": 2, "velocity": 89}, {"time": 2706, "pitch": 45, "duration": 20, "velocity": 88}, {"time": 2706, "pitch": 61, "duration": 10, "velocity": 107}, {"time": 2706, "pitch": 64, "duration": 9, "velocity": 108}, {"time": 2706, "pitch": 68, "duration": 9, "velocity": 94}, {"time": 2712, "pitch": 52, "duration": 13, "velocity": 67}, {"time": 2715, "pitch": 57, "duration": 4, "velocity": 86}, {"time": 2718, "pitch": 61, "duration": 11, "velocity": 113}, {"time": 2718, "pitch": 64, "duration": 7, "velocity": 113}, {"time": 2718, "pitch": 68, "duration": 7, "velocity": 107}, {"time": 2724, "pitch": 57, "duration": 2, "velocity": 85}, {"time": 2730, "pitch": 40, "duration": 18, "velocity": 93}, {"time": 2730, "pitch": 56, "duration": 8, "velocity": 93}, {"time": 2730, "pitch": 59, "duration": 9, "velocity": 94}, {"time": 2730, "pitch": 64, "duration": 9, "velocity": 87}, {"time": 2739, "pitch": 52, "duration": 5, "velocity": 85}, {"time": 2742, "pitch": 59, "duration": 6, "velocity": 110}, {"time": 2742, "pitch": 64, "duration": 7, "velocity": 114}, {"time": 2742, "pitch": 68, "duration": 7, "velocity": 107}, {"time": 2748, "pitch": 52, "duration": 4, "velocity": 88}, {"time": 2754, "pitch": 45, "duration": 19, "velocity": 89}, {"time": 2754, "pitch": 61, "duration": 9, "velocity": 94}, {"time": 2754, "pitch": 64, "duration": 9, "velocity": 113}, {"time": 2754, "pitch": 69, "duration": 9, "velocity": 97}, {"time": 2760, "pitch": 52, "duration": 13, "velocity": 75}, {"time": 2763, "pitch": 57, "duration": 4, "velocity": 91}, {"time": 2766, "pitch": 61, "duration": 5, "velocity": 108}, {"time": 2766, "pitch": 64, "duration": 10, "velocity": 116}, {"time": 2766, "pitch": 69, "duration": 8, "velocity": 119}, {"time": 2772, "pitch": 57, "duration": 3, "velocity": 90}, {"time": 2775, "pitch": 63, "duration": 4, "velocity": 86}, {"time": 2775, "pitch": 66, "duration": 3, "velocity": 83}, {"time": 2778, "pitch": 47, "duration": 18, "velocity": 88}, {"time": 2778, "pitch": 71, "duration": 7, "velocity": 104}, {"time": 2781, "pitch": 54, "duration": 14, "velocity": 85}, {"time": 2784, "pitch": 59, "duration": 6, "velocity": 104}, {"time": 2787, "pitch": 61, "duration": 2, "velocity": 114}, {"time": 2790, "pitch": 63, "duration": 4, "velocity": 116}, {"time": 2790, "pitch": 66, "duration": 1, "velocity": 98}, {"time": 2793, "pitch": 59, "duration": 2, "velocity": 114}, {"time": 2796, "pitch": 66, "duration": 2, "velocity": 117}, {"time": 2799, "pitch": 59, "duration": 2, "velocity": 82}, {"time": 2802, "pitch": 40, "duration": 18, "velocity": 100}, {"time": 2802, "pitch": 59, "duration": 9, "velocity": 91}, {"time": 2802, "pitch": 64, "duration": 3, "velocity": 100}, {"time": 2802, "pitch": 68, "duration": 3, "velocity": 104}, {"time": 2805, "pitch": 47, "duration": 16, "velocity": 86}, {"time": 2808, "pitch": 52, "duration": 7, "velocity": 89}, {"time": 2811, "pitch": 56, "duration": 3, "velocity": 88}, {"time": 2814, "pitch": 59, "duration": 7, "velocity": 116}, {"time": 2814, "pitch": 64, "duration": 10, "velocity": 114}, {"time": 2820, "pitch": 52, "duration": 6, "velocity": 83}, {"time": 2826, "pitch": 47, "duration": 20, "velocity": 89}, {"time": 2826, "pitch": 59, "duration": 2, "velocity": 89}, {"time": 2826, "pitch": 63, "duration": 6, "velocity": 107}, {"time": 2826, "pitch": 66, "duration": 6, "velocity": 102}, {"time": 2829, "pitch": 54, "duration": 18, "velocity": 80}, {"time": 2832, "pitch": 59, "duration": 6, "velocity": 90}, {"time": 2835, "pitch": 61, "duration": 2, "velocity": 91}, {"time": 2838, "pitch": 63, "duration": 4, "velocity": 108}, {"time": 2838, "pitch": 66, "duration": 4, "velocity": 117}, {"time": 2841, "pitch": 59, "duration": 3, "velocity": 102}, {"time": 2844, "pitch": 63, "duration": 5, "velocity": 88}, {"time": 2844, "pitch": 66, "duration": 2, "velocity": 91}, {"time": 2847, "pitch": 68, "duration": 2, "velocity": 82}, {"time": 2850, "pitch": 49, "duration": 16, "velocity": 90}, {"time": 2850, "pitch": 61, "duration": 10, "velocity": 107}, {"time": 2850, "pitch": 64, "duration": 10, "velocity": 108}, {"time": 2850, "pitch": 68, "duration": 9, "velocity": 100}, {"time": 2859, "pitch": 56, "duration": 7, "velocity": 85}, {"time": 2862, "pitch": 61, "duration": 7, "velocity": 113}, {"time": 2862, "pitch": 64, "duration": 11, "velocity": 114}, {"time": 2862, "pitch": 68, "duration": 8, "velocity": 108}, {"time": 2868, "pitch": 49, "duration": 1, "velocity": 88}, {"time": 2874, "pitch": 44, "duration": 18, "velocity": 89}, {"time": 2874, "pitch": 59, "duration": 7, "velocity": 91}, {"time": 2874, "pitch": 63, "duration": 8, "velocity": 98}, {"time": 2874, "pitch": 68, "duration": 6, "velocity": 90}, {"time": 2877, "pitch": 51, "duration": 15, "velocity": 74}, {"time": 2880, "pitch": 56, "duration": 6, "velocity": 86}, {"time": 2883, "pitch": 59, "duration": 2, "velocity": 85}, {"time": 2886, "pitch": 59, "duration": 5, "velocity": 88}, {"time": 2886, "pitch": 68, "duration": 5, "velocity": 116}, {"time": 2889, "pitch": 56, "duration": 3, "velocity": 108}, {"time": 2892, "pitch": 63, "duration": 4, "velocity": 98}, {"time": 2895, "pitch": 68, "duration": 11, "velocity": 104}, {"time": 2898, "pitch": 45, "duration": 20, "velocity": 89}, {"time": 2898, "pitch": 61, "duration": 9, "velocity": 104}, {"time": 2898, "pitch": 64, "duration": 9, "velocity": 113}, {"time": 2904, "pitch": 52, "duration": 13, "velocity": 68}, {"time": 2907, "pitch": 57, "duration": 4, "velocity": 85}, {"time": 2910, "pitch": 61, "duration": 9, "velocity": 114}, {"time": 2910, "pitch": 64, "duration": 10, "velocity": 117}, {"time": 2910, "pitch": 68, "duration": 9, "velocity": 113}, {"time": 2916, "pitch": 57, "duration": 1, "velocity": 86}, {"time": 2922, "pitch": 40, "duration": 17, "velocity": 96}, {"time": 2922, "pitch": 59, "duration": 10, "velocity": 93}, {"time": 2922, "pitch": 64, "duration": 6, "velocity": 113}, {"time": 2922, "pitch": 68, "duration": 6, "velocity": 94}, {"time": 2928, "pitch": 47, "duration": 12, "velocity": 80}, {"time": 2931, "pitch": 52, "duration": 10, "velocity": 98}, {"time": 2934, "pitch": 56, "duration": 4, "velocity": 113}, {"time": 2934, "pitch": 64, "duration": 3, "velocity": 107}, {"time": 2937, "pitch": 59, "duration": 5, "velocity": 108}, {"time": 2940, "pitch": 64, "duration": 4, "velocity": 96}, {"time": 2946, "pitch": 45, "duration": 12, "velocity": 88}, {"time": 2946, "pitch": 61, "duration": 10, "velocity": 92}, {"time": 2946, "pitch": 64, "duration": 11, "velocity": 102}, {"time": 2946, "pitch": 68, "duration": 10, "velocity": 93}, {"time": 2958, "pitch": 47, "duration": 12, "velocity": 85}, {"time": 2958, "pitch": 59, "duration": 10, "velocity": 91}, {"time": 2958, "pitch": 63, "duration": 12, "velocity": 98}, {"time": 2958, "pitch": 66, "duration": 10, "velocity": 91}, {"time": 2970, "pitch": 40, "duration": 28, "velocity": 88}, {"time": 2970, "pitch": 59, "duration": 9, "velocity": 82}, {"time": 2970, "pitch": 64, "duration": 2, "velocity": 81}, {"time": 2970, "pitch": 68, "duration": 3, "velocity": 84}, {"time": 2973, "pitch": 47, "duration": 25, "velocity": 80}, {"time": 2976, "pitch": 52, "duration": 7, "velocity": 86}, {"time": 2979, "pitch": 56, "duration": 4, "velocity": 73}, {"time": 2982, "pitch": 59, "duration": 7, "velocity": 88}, {"time": 2982, "pitch": 64, "duration": 7, "velocity": 107}, {"time": 2988, "pitch": 52, "duration": 10, "velocity": 77}, {"time": 2991, "pitch": 56, "duration": 11, "velocity": 71}, {"time": 2994, "pitch": 59, "duration": 10, "velocity": 74}, {"time": 2994, "pitch": 64, "duration": 9, "velocity": 87}, {"time": 3006, "pitch": 45, "duration": 55, "velocity": 78}, {"time": 3006, "pitch": 57, "duration": 53, "velocity": 73}, {"time": 3006, "pitch": 61, "duration": 55, "velocity": 76}, {"time": 3006, "pitch": 64, "duration": 55, "velocity": 78}, {"time": 3006, "pitch": 69, "duration": 54, "velocity": 70}, {"time": 3066, "pitch": 40, "duration": 41, "velocity": 38}, {"time": 3066, "pitch": 52, "duration": 42, "velocity": 66}, {"time": 3066, "pitch": 59, "duration": 42, "velocity": 67}, {"time": 3066, "pitch": 64, "duration": 42, "velocity": 73}, {"time": 3066, "pitch": 68, "duration": 41, "velocity": 77}, {"time": 3114, "pitch": 45, "duration": 42, "velocity": 65}, {"time": 3114, "pitch": 61, "duration": 42, "velocity": 36}, {"time": 3114, "pitch": 64, "duration": 61, "velocity": 36}, {"time": 3114, "pitch": 69, "duration": 40, "velocity": 75}, {"time": 3162, "pitch": 40, "duration": 13, "velocity": 38}, {"time": 3162, "pitch": 52, "duration": 13, "velocity": 54}, {"time": 3162, "pitch": 59, "duration": 13, "velocity": 38}, {"time": 3162, "pitch": 68, "duration": 13, "velocity": 56}]}]}