{"metadata": {"schema_version": "0.2", "title": "None", "source_filename": "315.mid", "source_format": "midi"}, "resolution": 12, "tempos": [{"time": 0, "qpm": 62.00005993339127}], "time_signatures": [{"time": 0, "numerator": 4, "denominator": 4}], "tracks": [{"program": 0, "is_drum": false, "name": "MELODY", "notes": [{"time": 208, "pitch": 68, "duration": 3, "velocity": 108}, {"time": 211, "pitch": 70, "duration": 3, "velocity": 93}, {"time": 214, "pitch": 70, "duration": 3, "velocity": 98}, {"time": 217, "pitch": 68, "duration": 3, "velocity": 98}, {"time": 220, "pitch": 70, "duration": 6, "velocity": 107}, {"time": 226, "pitch": 70, "duration": 3, "velocity": 94}, {"time": 229, "pitch": 68, "duration": 3, "velocity": 102}, {"time": 232, "pitch": 68, "duration": 3, "velocity": 87}, {"time": 235, "pitch": 70, "duration": 3, "velocity": 89}, {"time": 238, "pitch": 70, "duration": 3, "velocity": 100}, {"time": 241, "pitch": 68, "duration": 6, "velocity": 98}, {"time": 247, "pitch": 70, "duration": 57, "velocity": 110}, {"time": 304, "pitch": 68, "duration": 3, "velocity": 93}, {"time": 307, "pitch": 70, "duration": 3, "velocity": 89}, {"time": 310, "pitch": 70, "duration": 3, "velocity": 91}, {"time": 313, "pitch": 68, "duration": 3, "velocity": 85}, {"time": 316, "pitch": 68, "duration": 3, "velocity": 89}, {"time": 319, "pitch": 70, "duration": 3, "velocity": 89}, {"time": 322, "pitch": 70, "duration": 3, "velocity": 92}, {"time": 325, "pitch": 68, "duration": 3, "velocity": 88}, {"time": 328, "pitch": 68, "duration": 3, "velocity": 100}, {"time": 331, "pitch": 70, "duration": 3, "velocity": 93}, {"time": 334, "pitch": 70, "duration": 3, "velocity": 91}, {"time": 337, "pitch": 68, "duration": 6, "velocity": 91}, {"time": 343, "pitch": 70, "duration": 42, "velocity": 96}, {"time": 385, "pitch": 66, "duration": 3, "velocity": 92}, {"time": 388, "pitch": 73, "duration": 6, "velocity": 110}, {"time": 394, "pitch": 73, "duration": 3, "velocity": 108}, {"time": 397, "pitch": 73, "duration": 9, "velocity": 110}, {"time": 406, "pitch": 66, "duration": 3, "velocity": 107}, {"time": 409, "pitch": 70, "duration": 9, "velocity": 113}, {"time": 418, "pitch": 68, "duration": 3, "velocity": 104}, {"time": 421, "pitch": 70, "duration": 6, "velocity": 113}, {"time": 427, "pitch": 71, "duration": 9, "velocity": 116}, {"time": 436, "pitch": 73, "duration": 6, "velocity": 116}, {"time": 442, "pitch": 73, "duration": 3, "velocity": 110}, {"time": 445, "pitch": 73, "duration": 9, "velocity": 116}, {"time": 454, "pitch": 70, "duration": 3, "velocity": 110}, {"time": 457, "pitch": 70, "duration": 9, "velocity": 110}, {"time": 466, "pitch": 68, "duration": 3, "velocity": 104}, {"time": 469, "pitch": 70, "duration": 6, "velocity": 113}, {"time": 475, "pitch": 73, "duration": 9, "velocity": 114}, {"time": 484, "pitch": 75, "duration": 6, "velocity": 117}, {"time": 490, "pitch": 75, "duration": 3, "velocity": 114}, {"time": 493, "pitch": 75, "duration": 9, "velocity": 119}, {"time": 502, "pitch": 71, "duration": 3, "velocity": 116}, {"time": 505, "pitch": 70, "duration": 9, "velocity": 113}, {"time": 514, "pitch": 68, "duration": 3, "velocity": 110}, {"time": 517, "pitch": 70, "duration": 6, "velocity": 114}, {"time": 523, "pitch": 71, "duration": 9, "velocity": 123}, {"time": 532, "pitch": 75, "duration": 6, "velocity": 117}, {"time": 538, "pitch": 75, "duration": 3, "velocity": 113}, {"time": 541, "pitch": 75, "duration": 9, "velocity": 113}, {"time": 550, "pitch": 73, "duration": 3, "velocity": 110}, {"time": 553, "pitch": 73, "duration": 51, "velocity": 116}, {"time": 604, "pitch": 70, "duration": 6, "velocity": 114}, {"time": 610, "pitch": 73, "duration": 6, "velocity": 113}, {"time": 616, "pitch": 70, "duration": 6, "velocity": 119}, {"time": 622, "pitch": 73, "duration": 6, "velocity": 114}, {"time": 628, "pitch": 80, "duration": 24, "velocity": 117}, {"time": 652, "pitch": 77, "duration": 6, "velocity": 117}, {"time": 658, "pitch": 78, "duration": 6, "velocity": 114}, {"time": 664, "pitch": 77, "duration": 6, "velocity": 119}, {"time": 670, "pitch": 78, "duration": 6, "velocity": 116}, {"time": 676, "pitch": 73, "duration": 24, "velocity": 117}, {"time": 700, "pitch": 73, "duration": 3, "velocity": 114}, {"time": 703, "pitch": 71, "duration": 3, "velocity": 106}, {"time": 706, "pitch": 71, "duration": 3, "velocity": 116}, {"time": 709, "pitch": 70, "duration": 3, "velocity": 108}, {"time": 712, "pitch": 71, "duration": 3, "velocity": 119}, {"time": 715, "pitch": 73, "duration": 6, "velocity": 114}, {"time": 721, "pitch": 73, "duration": 6, "velocity": 116}, {"time": 727, "pitch": 71, "duration": 3, "velocity": 113}, {"time": 730, "pitch": 71, "duration": 3, "velocity": 113}, {"time": 733, "pitch": 70, "duration": 3, "velocity": 113}, {"time": 736, "pitch": 71, "duration": 3, "velocity": 119}, {"time": 739, "pitch": 73, "duration": 21, "velocity": 113}, {"time": 760, "pitch": 75, "duration": 4, "velocity": 116}, {"time": 763, "pitch": 73, "duration": 6, "velocity": 114}, {"time": 769, "pitch": 66, "duration": 6, "velocity": 114}, {"time": 775, "pitch": 68, "duration": 21, "velocity": 116}, {"time": 796, "pitch": 70, "duration": 6, "velocity": 114}, {"time": 802, "pitch": 73, "duration": 6, "velocity": 113}, {"time": 808, "pitch": 70, "duration": 6, "velocity": 119}, {"time": 814, "pitch": 73, "duration": 6, "velocity": 114}, {"time": 820, "pitch": 80, "duration": 24, "velocity": 117}, {"time": 844, "pitch": 77, "duration": 6, "velocity": 117}, {"time": 850, "pitch": 78, "duration": 6, "velocity": 114}, {"time": 856, "pitch": 77, "duration": 6, "velocity": 119}, {"time": 862, "pitch": 78, "duration": 6, "velocity": 116}, {"time": 868, "pitch": 80, "duration": 12, "velocity": 117}, {"time": 880, "pitch": 78, "duration": 12, "velocity": 117}, {"time": 892, "pitch": 82, "duration": 24, "velocity": 120}, {"time": 916, "pitch": 78, "duration": 6, "velocity": 119}, {"time": 922, "pitch": 75, "duration": 3, "velocity": 113}, {"time": 925, "pitch": 73, "duration": 9, "velocity": 117}, {"time": 934, "pitch": 70, "duration": 6, "velocity": 110}, {"time": 940, "pitch": 68, "duration": 24, "velocity": 114}, {"time": 964, "pitch": 70, "duration": 6, "velocity": 116}, {"time": 970, "pitch": 68, "duration": 6, "velocity": 114}, {"time": 976, "pitch": 66, "duration": 12, "velocity": 114}, {"time": 988, "pitch": 65, "duration": 6, "velocity": 113}, {"time": 994, "pitch": 66, "duration": 126, "velocity": 114}, {"time": 1120, "pitch": 68, "duration": 3, "velocity": 108}, {"time": 1123, "pitch": 70, "duration": 3, "velocity": 93}, {"time": 1126, "pitch": 70, "duration": 3, "velocity": 98}, {"time": 1129, "pitch": 68, "duration": 3, "velocity": 98}, {"time": 1132, "pitch": 68, "duration": 3, "velocity": 107}, {"time": 1135, "pitch": 70, "duration": 3, "velocity": 107}, {"time": 1138, "pitch": 70, "duration": 1, "velocity": 94}, {"time": 1141, "pitch": 68, "duration": 3, "velocity": 102}, {"time": 1144, "pitch": 68, "duration": 3, "velocity": 87}, {"time": 1147, "pitch": 70, "duration": 3, "velocity": 89}, {"time": 1150, "pitch": 70, "duration": 3, "velocity": 100}, {"time": 1153, "pitch": 68, "duration": 3, "velocity": 98}, {"time": 1156, "pitch": 70, "duration": 60, "velocity": 110}, {"time": 1216, "pitch": 68, "duration": 3, "velocity": 93}, {"time": 1219, "pitch": 70, "duration": 3, "velocity": 89}, {"time": 1222, "pitch": 70, "duration": 3, "velocity": 91}, {"time": 1225, "pitch": 68, "duration": 3, "velocity": 85}, {"time": 1228, "pitch": 68, "duration": 3, "velocity": 89}, {"time": 1231, "pitch": 70, "duration": 3, "velocity": 89}, {"time": 1234, "pitch": 70, "duration": 3, "velocity": 92}, {"time": 1237, "pitch": 73, "duration": 3, "velocity": 88}, {"time": 1240, "pitch": 78, "duration": 3, "velocity": 100}, {"time": 1243, "pitch": 77, "duration": 3, "velocity": 93}, {"time": 1246, "pitch": 75, "duration": 3, "velocity": 91}, {"time": 1249, "pitch": 73, "duration": 3, "velocity": 91}, {"time": 1252, "pitch": 75, "duration": 45, "velocity": 96}, {"time": 1297, "pitch": 66, "duration": 3, "velocity": 92}, {"time": 1300, "pitch": 73, "duration": 6, "velocity": 110}, {"time": 1306, "pitch": 73, "duration": 3, "velocity": 108}, {"time": 1309, "pitch": 73, "duration": 9, "velocity": 110}, {"time": 1318, "pitch": 66, "duration": 3, "velocity": 107}, {"time": 1321, "pitch": 70, "duration": 9, "velocity": 113}, {"time": 1330, "pitch": 68, "duration": 3, "velocity": 104}, {"time": 1333, "pitch": 70, "duration": 6, "velocity": 113}, {"time": 1339, "pitch": 71, "duration": 9, "velocity": 116}, {"time": 1348, "pitch": 73, "duration": 6, "velocity": 116}, {"time": 1354, "pitch": 73, "duration": 3, "velocity": 110}, {"time": 1357, "pitch": 73, "duration": 9, "velocity": 116}, {"time": 1366, "pitch": 70, "duration": 3, "velocity": 110}, {"time": 1369, "pitch": 70, "duration": 9, "velocity": 110}, {"time": 1378, "pitch": 68, "duration": 3, "velocity": 104}, {"time": 1381, "pitch": 70, "duration": 6, "velocity": 113}, {"time": 1387, "pitch": 73, "duration": 9, "velocity": 114}, {"time": 1396, "pitch": 75, "duration": 6, "velocity": 117}, {"time": 1402, "pitch": 75, "duration": 3, "velocity": 114}, {"time": 1405, "pitch": 75, "duration": 9, "velocity": 119}, {"time": 1414, "pitch": 71, "duration": 3, "velocity": 116}, {"time": 1417, "pitch": 70, "duration": 9, "velocity": 113}, {"time": 1426, "pitch": 68, "duration": 3, "velocity": 110}, {"time": 1429, "pitch": 70, "duration": 6, "velocity": 114}, {"time": 1435, "pitch": 71, "duration": 9, "velocity": 123}, {"time": 1444, "pitch": 78, "duration": 6, "velocity": 117}, {"time": 1450, "pitch": 78, "duration": 3, "velocity": 113}, {"time": 1453, "pitch": 80, "duration": 6, "velocity": 113}, {"time": 1459, "pitch": 77, "duration": 3, "velocity": 102}, {"time": 1462, "pitch": 75, "duration": 6, "velocity": 100}, {"time": 1468, "pitch": 73, "duration": 24, "velocity": 113}, {"time": 1492, "pitch": 70, "duration": 6, "velocity": 114}, {"time": 1498, "pitch": 73, "duration": 6, "velocity": 113}, {"time": 1504, "pitch": 70, "duration": 6, "velocity": 119}, {"time": 1510, "pitch": 73, "duration": 6, "velocity": 114}, {"time": 1516, "pitch": 80, "duration": 24, "velocity": 117}, {"time": 1540, "pitch": 77, "duration": 6, "velocity": 117}, {"time": 1546, "pitch": 78, "duration": 6, "velocity": 114}, {"time": 1552, "pitch": 77, "duration": 6, "velocity": 119}, {"time": 1558, "pitch": 78, "duration": 6, "velocity": 116}, {"time": 1564, "pitch": 73, "duration": 24, "velocity": 117}, {"time": 1588, "pitch": 73, "duration": 3, "velocity": 114}, {"time": 1591, "pitch": 71, "duration": 3, "velocity": 106}, {"time": 1594, "pitch": 71, "duration": 3, "velocity": 116}, {"time": 1597, "pitch": 70, "duration": 3, "velocity": 108}, {"time": 1600, "pitch": 71, "duration": 3, "velocity": 119}, {"time": 1603, "pitch": 73, "duration": 6, "velocity": 114}, {"time": 1609, "pitch": 73, "duration": 6, "velocity": 116}, {"time": 1615, "pitch": 71, "duration": 3, "velocity": 113}, {"time": 1618, "pitch": 71, "duration": 3, "velocity": 113}, {"time": 1621, "pitch": 70, "duration": 3, "velocity": 113}, {"time": 1624, "pitch": 71, "duration": 3, "velocity": 119}, {"time": 1627, "pitch": 73, "duration": 21, "velocity": 113}, {"time": 1648, "pitch": 75, "duration": 4, "velocity": 116}, {"time": 1651, "pitch": 73, "duration": 6, "velocity": 114}, {"time": 1657, "pitch": 66, "duration": 6, "velocity": 114}, {"time": 1663, "pitch": 68, "duration": 21, "velocity": 116}, {"time": 1684, "pitch": 70, "duration": 6, "velocity": 114}, {"time": 1690, "pitch": 73, "duration": 6, "velocity": 113}, {"time": 1696, "pitch": 70, "duration": 6, "velocity": 119}, {"time": 1702, "pitch": 73, "duration": 6, "velocity": 114}, {"time": 1708, "pitch": 80, "duration": 24, "velocity": 117}, {"time": 1732, "pitch": 77, "duration": 6, "velocity": 117}, {"time": 1738, "pitch": 78, "duration": 6, "velocity": 114}, {"time": 1744, "pitch": 77, "duration": 6, "velocity": 119}, {"time": 1750, "pitch": 78, "duration": 6, "velocity": 116}, {"time": 1756, "pitch": 80, "duration": 18, "velocity": 117}, {"time": 1774, "pitch": 80, "duration": 6, "velocity": 114}, {"time": 1780, "pitch": 78, "duration": 12, "velocity": 116}, {"time": 1792, "pitch": 85, "duration": 12, "velocity": 116}, {"time": 1804, "pitch": 78, "duration": 24, "velocity": 117}, {"time": 1828, "pitch": 82, "duration": 6, "velocity": 116}, {"time": 1834, "pitch": 80, "duration": 3, "velocity": 108}, {"time": 1837, "pitch": 80, "duration": 9, "velocity": 114}, {"time": 1846, "pitch": 78, "duration": 3, "velocity": 113}, {"time": 1849, "pitch": 75, "duration": 9, "velocity": 113}, {"time": 1858, "pitch": 73, "duration": 24, "velocity": 104}, {"time": 1882, "pitch": 73, "duration": 6, "velocity": 107}, {"time": 1888, "pitch": 78, "duration": 42, "velocity": 117}, {"time": 1930, "pitch": 75, "duration": 3, "velocity": 114}, {"time": 1933, "pitch": 77, "duration": 6, "velocity": 116}, {"time": 1939, "pitch": 78, "duration": 6, "velocity": 116}, {"time": 1945, "pitch": 78, "duration": 9, "velocity": 114}, {"time": 1954, "pitch": 77, "duration": 3, "velocity": 114}, {"time": 1957, "pitch": 78, "duration": 6, "velocity": 114}, {"time": 1963, "pitch": 80, "duration": 15, "velocity": 117}, {"time": 1978, "pitch": 70, "duration": 3, "velocity": 96}, {"time": 1981, "pitch": 73, "duration": 6, "velocity": 110}, {"time": 1987, "pitch": 73, "duration": 6, "velocity": 107}, {"time": 1993, "pitch": 77, "duration": 9, "velocity": 117}, {"time": 2002, "pitch": 78, "duration": 3, "velocity": 120}, {"time": 2005, "pitch": 77, "duration": 6, "velocity": 108}, {"time": 2011, "pitch": 73, "duration": 15, "velocity": 114}, {"time": 2026, "pitch": 75, "duration": 3, "velocity": 113}, {"time": 2029, "pitch": 77, "duration": 6, "velocity": 114}, {"time": 2035, "pitch": 78, "duration": 15, "velocity": 117}, {"time": 2050, "pitch": 75, "duration": 3, "velocity": 108}, {"time": 2053, "pitch": 77, "duration": 6, "velocity": 113}, {"time": 2059, "pitch": 78, "duration": 6, "velocity": 114}, {"time": 2065, "pitch": 73, "duration": 3, "velocity": 94}, {"time": 2068, "pitch": 82, "duration": 15, "velocity": 116}, {"time": 2083, "pitch": 83, "duration": 3, "velocity": 116}, {"time": 2086, "pitch": 82, "duration": 6, "velocity": 110}, {"time": 2092, "pitch": 80, "duration": 84, "velocity": 116}, {"time": 2176, "pitch": 72, "duration": 6, "velocity": 114}, {"time": 2182, "pitch": 75, "duration": 6, "velocity": 113}, {"time": 2188, "pitch": 72, "duration": 6, "velocity": 119}, {"time": 2194, "pitch": 75, "duration": 6, "velocity": 114}, {"time": 2200, "pitch": 82, "duration": 24, "velocity": 117}, {"time": 2224, "pitch": 79, "duration": 6, "velocity": 117}, {"time": 2230, "pitch": 80, "duration": 6, "velocity": 114}, {"time": 2236, "pitch": 79, "duration": 6, "velocity": 119}, {"time": 2242, "pitch": 80, "duration": 6, "velocity": 116}, {"time": 2248, "pitch": 75, "duration": 24, "velocity": 117}, {"time": 2272, "pitch": 75, "duration": 3, "velocity": 114}, {"time": 2275, "pitch": 73, "duration": 3, "velocity": 106}, {"time": 2278, "pitch": 73, "duration": 3, "velocity": 116}, {"time": 2281, "pitch": 72, "duration": 3, "velocity": 108}, {"time": 2284, "pitch": 73, "duration": 3, "velocity": 119}, {"time": 2287, "pitch": 75, "duration": 6, "velocity": 114}, {"time": 2293, "pitch": 75, "duration": 6, "velocity": 116}, {"time": 2299, "pitch": 73, "duration": 3, "velocity": 113}, {"time": 2302, "pitch": 73, "duration": 3, "velocity": 113}, {"time": 2305, "pitch": 72, "duration": 3, "velocity": 113}, {"time": 2308, "pitch": 73, "duration": 3, "velocity": 119}, {"time": 2311, "pitch": 75, "duration": 21, "velocity": 113}, {"time": 2332, "pitch": 77, "duration": 4, "velocity": 116}, {"time": 2335, "pitch": 75, "duration": 6, "velocity": 114}, {"time": 2341, "pitch": 68, "duration": 6, "velocity": 114}, {"time": 2347, "pitch": 70, "duration": 21, "velocity": 116}, {"time": 2368, "pitch": 72, "duration": 6, "velocity": 114}, {"time": 2374, "pitch": 75, "duration": 6, "velocity": 113}, {"time": 2380, "pitch": 72, "duration": 6, "velocity": 119}, {"time": 2386, "pitch": 75, "duration": 6, "velocity": 114}, {"time": 2392, "pitch": 82, "duration": 24, "velocity": 117}, {"time": 2416, "pitch": 79, "duration": 6, "velocity": 117}, {"time": 2422, "pitch": 80, "duration": 6, "velocity": 114}, {"time": 2428, "pitch": 79, "duration": 6, "velocity": 119}, {"time": 2434, "pitch": 80, "duration": 6, "velocity": 116}, {"time": 2440, "pitch": 82, "duration": 18, "velocity": 117}, {"time": 2458, "pitch": 82, "duration": 6, "velocity": 114}, {"time": 2464, "pitch": 80, "duration": 12, "velocity": 116}, {"time": 2476, "pitch": 87, "duration": 12, "velocity": 116}, {"time": 2488, "pitch": 80, "duration": 24, "velocity": 117}, {"time": 2512, "pitch": 84, "duration": 6, "velocity": 116}, {"time": 2518, "pitch": 82, "duration": 3, "velocity": 108}, {"time": 2521, "pitch": 82, "duration": 9, "velocity": 114}, {"time": 2530, "pitch": 80, "duration": 3, "velocity": 113}, {"time": 2533, "pitch": 77, "duration": 9, "velocity": 113}, {"time": 2542, "pitch": 75, "duration": 66, "velocity": 104}, {"time": 2608, "pitch": 84, "duration": 6, "velocity": 114}, {"time": 2614, "pitch": 87, "duration": 3, "velocity": 110}, {"time": 2617, "pitch": 87, "duration": 3, "velocity": 85}, {"time": 2620, "pitch": 87, "duration": 3, "velocity": 110}, {"time": 2623, "pitch": 85, "duration": 3, "velocity": 102}, {"time": 2626, "pitch": 84, "duration": 14, "velocity": 93}]}, {"program": 0, "is_drum": false, "name": "PIANO", "notes": [{"time": 4, "pitch": 47, "duration": 17, "velocity": 85}, {"time": 10, "pitch": 54, "duration": 17, "velocity": 71}, {"time": 16, "pitch": 59, "duration": 7, "velocity": 76}, {"time": 22, "pitch": 63, "duration": 6, "velocity": 74}, {"time": 28, "pitch": 49, "duration": 20, "velocity": 83}, {"time": 34, "pitch": 56, "duration": 18, "velocity": 73}, {"time": 40, "pitch": 61, "duration": 9, "velocity": 82}, {"time": 46, "pitch": 65, "duration": 6, "velocity": 72}, {"time": 52, "pitch": 51, "duration": 41, "velocity": 87}, {"time": 58, "pitch": 58, "duration": 34, "velocity": 78}, {"time": 64, "pitch": 63, "duration": 26, "velocity": 80}, {"time": 70, "pitch": 66, "duration": 25, "velocity": 80}, {"time": 100, "pitch": 47, "duration": 18, "velocity": 80}, {"time": 106, "pitch": 54, "duration": 14, "velocity": 70}, {"time": 112, "pitch": 59, "duration": 7, "velocity": 76}, {"time": 118, "pitch": 63, "duration": 7, "velocity": 71}, {"time": 124, "pitch": 49, "duration": 20, "velocity": 76}, {"time": 130, "pitch": 56, "duration": 18, "velocity": 64}, {"time": 136, "pitch": 61, "duration": 8, "velocity": 80}, {"time": 142, "pitch": 65, "duration": 6, "velocity": 79}, {"time": 148, "pitch": 51, "duration": 40, "velocity": 81}, {"time": 154, "pitch": 58, "duration": 34, "velocity": 71}, {"time": 160, "pitch": 63, "duration": 27, "velocity": 72}, {"time": 166, "pitch": 70, "duration": 5, "velocity": 74}, {"time": 172, "pitch": 66, "duration": 16, "velocity": 78}, {"time": 196, "pitch": 47, "duration": 21, "velocity": 85}, {"time": 199, "pitch": 54, "duration": 21, "velocity": 76}, {"time": 202, "pitch": 59, "duration": 6, "velocity": 83}, {"time": 205, "pitch": 63, "duration": 4, "velocity": 83}, {"time": 208, "pitch": 71, "duration": 8, "velocity": 90}, {"time": 211, "pitch": 59, "duration": 5, "velocity": 82}, {"time": 214, "pitch": 63, "duration": 3, "velocity": 79}, {"time": 217, "pitch": 66, "duration": 11, "velocity": 88}, {"time": 220, "pitch": 49, "duration": 20, "velocity": 84}, {"time": 223, "pitch": 56, "duration": 22, "velocity": 76}, {"time": 226, "pitch": 61, "duration": 6, "velocity": 79}, {"time": 229, "pitch": 68, "duration": 11, "velocity": 92}, {"time": 235, "pitch": 61, "duration": 4, "velocity": 77}, {"time": 238, "pitch": 65, "duration": 6, "velocity": 86}, {"time": 244, "pitch": 51, "duration": 22, "velocity": 84}, {"time": 247, "pitch": 58, "duration": 21, "velocity": 50}, {"time": 250, "pitch": 63, "duration": 5, "velocity": 83}, {"time": 253, "pitch": 70, "duration": 9, "velocity": 93}, {"time": 259, "pitch": 63, "duration": 5, "velocity": 79}, {"time": 262, "pitch": 68, "duration": 2, "velocity": 86}, {"time": 265, "pitch": 66, "duration": 9, "velocity": 87}, {"time": 268, "pitch": 51, "duration": 19, "velocity": 84}, {"time": 271, "pitch": 58, "duration": 10, "velocity": 78}, {"time": 274, "pitch": 63, "duration": 2, "velocity": 81}, {"time": 277, "pitch": 70, "duration": 2, "velocity": 107}, {"time": 280, "pitch": 68, "duration": 6, "velocity": 93}, {"time": 283, "pitch": 58, "duration": 3, "velocity": 87}, {"time": 286, "pitch": 66, "duration": 6, "velocity": 88}, {"time": 289, "pitch": 63, "duration": 3, "velocity": 72}, {"time": 292, "pitch": 47, "duration": 20, "velocity": 87}, {"time": 295, "pitch": 54, "duration": 20, "velocity": 81}, {"time": 298, "pitch": 59, "duration": 7, "velocity": 83}, {"time": 301, "pitch": 63, "duration": 2, "velocity": 80}, {"time": 304, "pitch": 70, "duration": 8, "velocity": 104}, {"time": 310, "pitch": 59, "duration": 3, "velocity": 77}, {"time": 313, "pitch": 66, "duration": 6, "velocity": 84}, {"time": 316, "pitch": 49, "duration": 20, "velocity": 87}, {"time": 319, "pitch": 56, "duration": 7, "velocity": 81}, {"time": 322, "pitch": 61, "duration": 4, "velocity": 73}, {"time": 325, "pitch": 68, "duration": 12, "velocity": 113}, {"time": 331, "pitch": 56, "duration": 9, "velocity": 80}, {"time": 334, "pitch": 61, "duration": 3, "velocity": 80}, {"time": 337, "pitch": 65, "duration": 4, "velocity": 86}, {"time": 340, "pitch": 51, "duration": 21, "velocity": 86}, {"time": 343, "pitch": 58, "duration": 8, "velocity": 81}, {"time": 346, "pitch": 63, "duration": 2, "velocity": 75}, {"time": 349, "pitch": 66, "duration": 9, "velocity": 114}, {"time": 355, "pitch": 58, "duration": 9, "velocity": 82}, {"time": 358, "pitch": 65, "duration": 2, "velocity": 86}, {"time": 361, "pitch": 66, "duration": 8, "velocity": 108}, {"time": 364, "pitch": 51, "duration": 18, "velocity": 88}, {"time": 367, "pitch": 58, "duration": 7, "velocity": 85}, {"time": 370, "pitch": 63, "duration": 2, "velocity": 87}, {"time": 373, "pitch": 65, "duration": 4, "velocity": 116}, {"time": 376, "pitch": 58, "duration": 5, "velocity": 94}, {"time": 379, "pitch": 66, "duration": 3, "velocity": 116}, {"time": 382, "pitch": 65, "duration": 2, "velocity": 109}, {"time": 385, "pitch": 66, "duration": 3, "velocity": 93}, {"time": 388, "pitch": 47, "duration": 20, "velocity": 88}, {"time": 391, "pitch": 54, "duration": 21, "velocity": 79}, {"time": 394, "pitch": 59, "duration": 6, "velocity": 88}, {"time": 397, "pitch": 63, "duration": 3, "velocity": 100}, {"time": 400, "pitch": 71, "duration": 11, "velocity": 107}, {"time": 403, "pitch": 59, "duration": 5, "velocity": 86}, {"time": 406, "pitch": 63, "duration": 4, "velocity": 85}, {"time": 409, "pitch": 66, "duration": 3, "velocity": 88}, {"time": 412, "pitch": 49, "duration": 20, "velocity": 87}, {"time": 415, "pitch": 56, "duration": 8, "velocity": 85}, {"time": 418, "pitch": 61, "duration": 2, "velocity": 83}, {"time": 421, "pitch": 61, "duration": 1, "velocity": 86}, {"time": 421, "pitch": 68, "duration": 12, "velocity": 116}, {"time": 427, "pitch": 56, "duration": 4, "velocity": 81}, {"time": 430, "pitch": 61, "duration": 6, "velocity": 88}, {"time": 433, "pitch": 65, "duration": 10, "velocity": 103}, {"time": 436, "pitch": 46, "duration": 18, "velocity": 94}, {"time": 439, "pitch": 53, "duration": 16, "velocity": 81}, {"time": 442, "pitch": 58, "duration": 5, "velocity": 87}, {"time": 445, "pitch": 68, "duration": 9, "velocity": 110}, {"time": 451, "pitch": 58, "duration": 8, "velocity": 87}, {"time": 454, "pitch": 63, "duration": 2, "velocity": 89}, {"time": 457, "pitch": 66, "duration": 3, "velocity": 107}, {"time": 460, "pitch": 51, "duration": 20, "velocity": 88}, {"time": 460, "pitch": 65, "duration": 4, "velocity": 91}, {"time": 463, "pitch": 58, "duration": 10, "velocity": 83}, {"time": 466, "pitch": 63, "duration": 6, "velocity": 89}, {"time": 469, "pitch": 66, "duration": 10, "velocity": 116}, {"time": 475, "pitch": 58, "duration": 4, "velocity": 87}, {"time": 478, "pitch": 63, "duration": 3, "velocity": 91}, {"time": 481, "pitch": 66, "duration": 3, "velocity": 90}, {"time": 484, "pitch": 51, "duration": 18, "velocity": 91}, {"time": 487, "pitch": 58, "duration": 7, "velocity": 84}, {"time": 490, "pitch": 63, "duration": 2, "velocity": 80}, {"time": 493, "pitch": 70, "duration": 11, "velocity": 93}, {"time": 499, "pitch": 58, "duration": 3, "velocity": 76}, {"time": 502, "pitch": 66, "duration": 6, "velocity": 83}, {"time": 505, "pitch": 63, "duration": 6, "velocity": 76}, {"time": 508, "pitch": 44, "duration": 19, "velocity": 86}, {"time": 511, "pitch": 51, "duration": 17, "velocity": 80}, {"time": 514, "pitch": 56, "duration": 15, "velocity": 83}, {"time": 517, "pitch": 59, "duration": 7, "velocity": 83}, {"time": 523, "pitch": 63, "duration": 9, "velocity": 86}, {"time": 529, "pitch": 68, "duration": 1, "velocity": 75}, {"time": 532, "pitch": 49, "duration": 22, "velocity": 91}, {"time": 535, "pitch": 56, "duration": 7, "velocity": 83}, {"time": 538, "pitch": 61, "duration": 2, "velocity": 79}, {"time": 541, "pitch": 68, "duration": 8, "velocity": 108}, {"time": 547, "pitch": 56, "duration": 7, "velocity": 84}, {"time": 550, "pitch": 66, "duration": 3, "velocity": 94}, {"time": 553, "pitch": 68, "duration": 26, "velocity": 92}, {"time": 556, "pitch": 49, "duration": 23, "velocity": 88}, {"time": 556, "pitch": 56, "duration": 7, "velocity": 87}, {"time": 556, "pitch": 61, "duration": 22, "velocity": 87}, {"time": 556, "pitch": 65, "duration": 22, "velocity": 91}, {"time": 604, "pitch": 42, "duration": 19, "velocity": 86}, {"time": 607, "pitch": 49, "duration": 21, "velocity": 84}, {"time": 610, "pitch": 54, "duration": 7, "velocity": 87}, {"time": 613, "pitch": 58, "duration": 6, "velocity": 82}, {"time": 616, "pitch": 66, "duration": 9, "velocity": 100}, {"time": 619, "pitch": 54, "duration": 3, "velocity": 86}, {"time": 622, "pitch": 58, "duration": 3, "velocity": 84}, {"time": 625, "pitch": 65, "duration": 14, "velocity": 82}, {"time": 628, "pitch": 41, "duration": 18, "velocity": 81}, {"time": 628, "pitch": 56, "duration": 10, "velocity": 91}, {"time": 634, "pitch": 49, "duration": 11, "velocity": 73}, {"time": 637, "pitch": 53, "duration": 4, "velocity": 85}, {"time": 640, "pitch": 65, "duration": 8, "velocity": 119}, {"time": 643, "pitch": 53, "duration": 2, "velocity": 95}, {"time": 646, "pitch": 56, "duration": 3, "velocity": 88}, {"time": 649, "pitch": 66, "duration": 12, "velocity": 93}, {"time": 652, "pitch": 39, "duration": 18, "velocity": 88}, {"time": 652, "pitch": 56, "duration": 8, "velocity": 85}, {"time": 652, "pitch": 63, "duration": 9, "velocity": 96}, {"time": 658, "pitch": 46, "duration": 12, "velocity": 70}, {"time": 661, "pitch": 51, "duration": 3, "velocity": 85}, {"time": 664, "pitch": 63, "duration": 11, "velocity": 108}, {"time": 664, "pitch": 66, "duration": 11, "velocity": 100}, {"time": 670, "pitch": 51, "duration": 3, "velocity": 87}, {"time": 676, "pitch": 49, "duration": 19, "velocity": 84}, {"time": 676, "pitch": 61, "duration": 6, "velocity": 87}, {"time": 676, "pitch": 65, "duration": 9, "velocity": 86}, {"time": 682, "pitch": 56, "duration": 18, "velocity": 81}, {"time": 685, "pitch": 61, "duration": 3, "velocity": 91}, {"time": 688, "pitch": 65, "duration": 4, "velocity": 119}, {"time": 691, "pitch": 61, "duration": 2, "velocity": 92}, {"time": 694, "pitch": 66, "duration": 3, "velocity": 100}, {"time": 697, "pitch": 68, "duration": 3, "velocity": 94}, {"time": 700, "pitch": 47, "duration": 19, "velocity": 84}, {"time": 700, "pitch": 66, "duration": 10, "velocity": 91}, {"time": 709, "pitch": 54, "duration": 3, "velocity": 73}, {"time": 712, "pitch": 63, "duration": 3, "velocity": 81}, {"time": 712, "pitch": 66, "duration": 9, "velocity": 104}, {"time": 718, "pitch": 63, "duration": 5, "velocity": 82}, {"time": 721, "pitch": 68, "duration": 1, "velocity": 76}, {"time": 724, "pitch": 46, "duration": 19, "velocity": 85}, {"time": 724, "pitch": 61, "duration": 7, "velocity": 89}, {"time": 724, "pitch": 68, "duration": 6, "velocity": 92}, {"time": 727, "pitch": 53, "duration": 15, "velocity": 79}, {"time": 730, "pitch": 58, "duration": 6, "velocity": 89}, {"time": 733, "pitch": 68, "duration": 10, "velocity": 104}, {"time": 739, "pitch": 58, "duration": 2, "velocity": 86}, {"time": 742, "pitch": 65, "duration": 12, "velocity": 90}, {"time": 745, "pitch": 61, "duration": 5, "velocity": 91}, {"time": 748, "pitch": 44, "duration": 18, "velocity": 87}, {"time": 751, "pitch": 51, "duration": 15, "velocity": 74}, {"time": 754, "pitch": 56, "duration": 6, "velocity": 87}, {"time": 757, "pitch": 59, "duration": 4, "velocity": 83}, {"time": 760, "pitch": 68, "duration": 6, "velocity": 108}, {"time": 763, "pitch": 56, "duration": 5, "velocity": 88}, {"time": 766, "pitch": 63, "duration": 5, "velocity": 89}, {"time": 769, "pitch": 68, "duration": 3, "velocity": 92}, {"time": 772, "pitch": 49, "duration": 19, "velocity": 84}, {"time": 775, "pitch": 56, "duration": 15, "velocity": 79}, {"time": 778, "pitch": 61, "duration": 6, "velocity": 87}, {"time": 781, "pitch": 64, "duration": 2, "velocity": 83}, {"time": 784, "pitch": 73, "duration": 6, "velocity": 110}, {"time": 787, "pitch": 61, "duration": 2, "velocity": 91}, {"time": 790, "pitch": 71, "duration": 6, "velocity": 107}, {"time": 796, "pitch": 42, "duration": 18, "velocity": 88}, {"time": 796, "pitch": 61, "duration": 9, "velocity": 90}, {"time": 796, "pitch": 70, "duration": 5, "velocity": 100}, {"time": 799, "pitch": 49, "duration": 19, "velocity": 80}, {"time": 802, "pitch": 54, "duration": 5, "velocity": 87}, {"time": 805, "pitch": 58, "duration": 8, "velocity": 91}, {"time": 805, "pitch": 66, "duration": 6, "velocity": 100}, {"time": 811, "pitch": 54, "duration": 2, "velocity": 82}, {"time": 814, "pitch": 61, "duration": 3, "velocity": 87}, {"time": 817, "pitch": 66, "duration": 4, "velocity": 89}, {"time": 820, "pitch": 41, "duration": 19, "velocity": 80}, {"time": 820, "pitch": 56, "duration": 8, "velocity": 88}, {"time": 820, "pitch": 65, "duration": 7, "velocity": 89}, {"time": 823, "pitch": 49, "duration": 14, "velocity": 69}, {"time": 826, "pitch": 53, "duration": 3, "velocity": 80}, {"time": 829, "pitch": 56, "duration": 2, "velocity": 91}, {"time": 829, "pitch": 65, "duration": 10, "velocity": 116}, {"time": 835, "pitch": 53, "duration": 3, "velocity": 84}, {"time": 838, "pitch": 56, "duration": 5, "velocity": 94}, {"time": 841, "pitch": 66, "duration": 12, "velocity": 100}, {"time": 844, "pitch": 39, "duration": 17, "velocity": 87}, {"time": 844, "pitch": 56, "duration": 4, "velocity": 85}, {"time": 844, "pitch": 63, "duration": 9, "velocity": 107}, {"time": 850, "pitch": 46, "duration": 12, "velocity": 73}, {"time": 853, "pitch": 51, "duration": 3, "velocity": 87}, {"time": 856, "pitch": 63, "duration": 11, "velocity": 114}, {"time": 856, "pitch": 66, "duration": 10, "velocity": 113}, {"time": 862, "pitch": 51, "duration": 3, "velocity": 88}, {"time": 868, "pitch": 49, "duration": 18, "velocity": 85}, {"time": 868, "pitch": 61, "duration": 3, "velocity": 75}, {"time": 868, "pitch": 65, "duration": 4, "velocity": 83}, {"time": 868, "pitch": 68, "duration": 5, "velocity": 91}, {"time": 871, "pitch": 56, "duration": 15, "velocity": 78}, {"time": 874, "pitch": 61, "duration": 4, "velocity": 93}, {"time": 877, "pitch": 65, "duration": 6, "velocity": 106}, {"time": 880, "pitch": 61, "duration": 4, "velocity": 98}, {"time": 883, "pitch": 68, "duration": 6, "velocity": 85}, {"time": 886, "pitch": 73, "duration": 6, "velocity": 91}, {"time": 889, "pitch": 65, "duration": 4, "velocity": 89}, {"time": 892, "pitch": 47, "duration": 21, "velocity": 90}, {"time": 895, "pitch": 54, "duration": 17, "velocity": 81}, {"time": 898, "pitch": 59, "duration": 6, "velocity": 88}, {"time": 901, "pitch": 63, "duration": 3, "velocity": 80}, {"time": 904, "pitch": 71, "duration": 12, "velocity": 107}, {"time": 907, "pitch": 59, "duration": 3, "velocity": 86}, {"time": 910, "pitch": 63, "duration": 6, "velocity": 87}, {"time": 913, "pitch": 66, "duration": 3, "velocity": 83}, {"time": 916, "pitch": 46, "duration": 19, "velocity": 87}, {"time": 919, "pitch": 53, "duration": 16, "velocity": 79}, {"time": 922, "pitch": 58, "duration": 6, "velocity": 87}, {"time": 925, "pitch": 61, "duration": 3, "velocity": 93}, {"time": 928, "pitch": 68, "duration": 6, "velocity": 113}, {"time": 931, "pitch": 58, "duration": 3, "velocity": 96}, {"time": 934, "pitch": 65, "duration": 10, "velocity": 109}, {"time": 937, "pitch": 61, "duration": 5, "velocity": 88}, {"time": 940, "pitch": 44, "duration": 19, "velocity": 86}, {"time": 943, "pitch": 51, "duration": 16, "velocity": 77}, {"time": 946, "pitch": 56, "duration": 6, "velocity": 84}, {"time": 949, "pitch": 59, "duration": 2, "velocity": 87}, {"time": 952, "pitch": 66, "duration": 6, "velocity": 114}, {"time": 955, "pitch": 56, "duration": 9, "velocity": 88}, {"time": 958, "pitch": 63, "duration": 3, "velocity": 90}, {"time": 961, "pitch": 66, "duration": 3, "velocity": 87}, {"time": 964, "pitch": 49, "duration": 20, "velocity": 85}, {"time": 964, "pitch": 65, "duration": 6, "velocity": 90}, {"time": 970, "pitch": 56, "duration": 12, "velocity": 78}, {"time": 976, "pitch": 61, "duration": 5, "velocity": 86}, {"time": 976, "pitch": 65, "duration": 7, "velocity": 87}, {"time": 976, "pitch": 73, "duration": 9, "velocity": 89}, {"time": 982, "pitch": 68, "duration": 4, "velocity": 83}, {"time": 988, "pitch": 47, "duration": 20, "velocity": 79}, {"time": 988, "pitch": 59, "duration": 18, "velocity": 71}, {"time": 988, "pitch": 63, "duration": 18, "velocity": 77}, {"time": 988, "pitch": 66, "duration": 18, "velocity": 76}, {"time": 1012, "pitch": 49, "duration": 17, "velocity": 78}, {"time": 1012, "pitch": 61, "duration": 16, "velocity": 75}, {"time": 1012, "pitch": 65, "duration": 18, "velocity": 78}, {"time": 1012, "pitch": 68, "duration": 17, "velocity": 76}, {"time": 1036, "pitch": 51, "duration": 17, "velocity": 73}, {"time": 1036, "pitch": 63, "duration": 18, "velocity": 71}, {"time": 1036, "pitch": 66, "duration": 18, "velocity": 67}, {"time": 1036, "pitch": 70, "duration": 17, "velocity": 78}, {"time": 1060, "pitch": 49, "duration": 25, "velocity": 84}, {"time": 1060, "pitch": 61, "duration": 24, "velocity": 78}, {"time": 1060, "pitch": 65, "duration": 25, "velocity": 78}, {"time": 1060, "pitch": 68, "duration": 24, "velocity": 79}, {"time": 1108, "pitch": 47, "duration": 21, "velocity": 85}, {"time": 1111, "pitch": 54, "duration": 21, "velocity": 76}, {"time": 1114, "pitch": 59, "duration": 6, "velocity": 83}, {"time": 1117, "pitch": 63, "duration": 4, "velocity": 83}, {"time": 1120, "pitch": 71, "duration": 8, "velocity": 90}, {"time": 1123, "pitch": 59, "duration": 5, "velocity": 82}, {"time": 1126, "pitch": 63, "duration": 3, "velocity": 79}, {"time": 1129, "pitch": 66, "duration": 11, "velocity": 88}, {"time": 1132, "pitch": 49, "duration": 20, "velocity": 84}, {"time": 1135, "pitch": 56, "duration": 22, "velocity": 76}, {"time": 1138, "pitch": 61, "duration": 6, "velocity": 79}, {"time": 1141, "pitch": 68, "duration": 11, "velocity": 92}, {"time": 1147, "pitch": 61, "duration": 4, "velocity": 77}, {"time": 1150, "pitch": 65, "duration": 6, "velocity": 86}, {"time": 1156, "pitch": 51, "duration": 22, "velocity": 84}, {"time": 1159, "pitch": 58, "duration": 21, "velocity": 50}, {"time": 1162, "pitch": 63, "duration": 5, "velocity": 83}, {"time": 1165, "pitch": 70, "duration": 9, "velocity": 93}, {"time": 1171, "pitch": 63, "duration": 5, "velocity": 79}, {"time": 1174, "pitch": 68, "duration": 2, "velocity": 86}, {"time": 1177, "pitch": 66, "duration": 9, "velocity": 87}, {"time": 1180, "pitch": 51, "duration": 19, "velocity": 84}, {"time": 1183, "pitch": 58, "duration": 10, "velocity": 78}, {"time": 1186, "pitch": 63, "duration": 2, "velocity": 81}, {"time": 1189, "pitch": 70, "duration": 2, "velocity": 107}, {"time": 1192, "pitch": 68, "duration": 6, "velocity": 93}, {"time": 1195, "pitch": 58, "duration": 3, "velocity": 87}, {"time": 1198, "pitch": 66, "duration": 6, "velocity": 88}, {"time": 1201, "pitch": 63, "duration": 3, "velocity": 72}, {"time": 1204, "pitch": 47, "duration": 20, "velocity": 87}, {"time": 1207, "pitch": 54, "duration": 20, "velocity": 81}, {"time": 1210, "pitch": 59, "duration": 7, "velocity": 83}, {"time": 1213, "pitch": 63, "duration": 2, "velocity": 80}, {"time": 1216, "pitch": 70, "duration": 8, "velocity": 104}, {"time": 1222, "pitch": 59, "duration": 3, "velocity": 77}, {"time": 1225, "pitch": 66, "duration": 6, "velocity": 84}, {"time": 1228, "pitch": 49, "duration": 20, "velocity": 87}, {"time": 1231, "pitch": 56, "duration": 7, "velocity": 81}, {"time": 1234, "pitch": 61, "duration": 4, "velocity": 73}, {"time": 1237, "pitch": 68, "duration": 12, "velocity": 113}, {"time": 1243, "pitch": 56, "duration": 9, "velocity": 80}, {"time": 1246, "pitch": 61, "duration": 3, "velocity": 80}, {"time": 1249, "pitch": 65, "duration": 4, "velocity": 86}, {"time": 1252, "pitch": 51, "duration": 21, "velocity": 86}, {"time": 1255, "pitch": 58, "duration": 8, "velocity": 81}, {"time": 1258, "pitch": 63, "duration": 2, "velocity": 75}, {"time": 1261, "pitch": 66, "duration": 9, "velocity": 114}, {"time": 1267, "pitch": 58, "duration": 9, "velocity": 82}, {"time": 1270, "pitch": 65, "duration": 2, "velocity": 86}, {"time": 1273, "pitch": 66, "duration": 8, "velocity": 108}, {"time": 1276, "pitch": 51, "duration": 18, "velocity": 88}, {"time": 1279, "pitch": 58, "duration": 7, "velocity": 85}, {"time": 1282, "pitch": 63, "duration": 2, "velocity": 87}, {"time": 1285, "pitch": 65, "duration": 4, "velocity": 116}, {"time": 1288, "pitch": 58, "duration": 5, "velocity": 94}, {"time": 1291, "pitch": 66, "duration": 3, "velocity": 116}, {"time": 1294, "pitch": 65, "duration": 2, "velocity": 109}, {"time": 1297, "pitch": 66, "duration": 3, "velocity": 93}, {"time": 1300, "pitch": 47, "duration": 20, "velocity": 88}, {"time": 1303, "pitch": 54, "duration": 21, "velocity": 79}, {"time": 1306, "pitch": 59, "duration": 6, "velocity": 88}, {"time": 1309, "pitch": 63, "duration": 3, "velocity": 100}, {"time": 1312, "pitch": 71, "duration": 11, "velocity": 107}, {"time": 1315, "pitch": 59, "duration": 5, "velocity": 86}, {"time": 1318, "pitch": 63, "duration": 4, "velocity": 85}, {"time": 1321, "pitch": 66, "duration": 3, "velocity": 88}, {"time": 1324, "pitch": 49, "duration": 20, "velocity": 87}, {"time": 1327, "pitch": 56, "duration": 8, "velocity": 85}, {"time": 1330, "pitch": 61, "duration": 2, "velocity": 83}, {"time": 1333, "pitch": 61, "duration": 1, "velocity": 86}, {"time": 1333, "pitch": 68, "duration": 12, "velocity": 116}, {"time": 1339, "pitch": 56, "duration": 4, "velocity": 81}, {"time": 1342, "pitch": 61, "duration": 6, "velocity": 88}, {"time": 1345, "pitch": 65, "duration": 10, "velocity": 103}, {"time": 1348, "pitch": 46, "duration": 18, "velocity": 94}, {"time": 1351, "pitch": 53, "duration": 16, "velocity": 81}, {"time": 1354, "pitch": 58, "duration": 5, "velocity": 87}, {"time": 1357, "pitch": 68, "duration": 9, "velocity": 110}, {"time": 1363, "pitch": 58, "duration": 8, "velocity": 87}, {"time": 1366, "pitch": 63, "duration": 2, "velocity": 89}, {"time": 1369, "pitch": 66, "duration": 3, "velocity": 107}, {"time": 1372, "pitch": 51, "duration": 20, "velocity": 88}, {"time": 1372, "pitch": 65, "duration": 4, "velocity": 91}, {"time": 1375, "pitch": 58, "duration": 10, "velocity": 83}, {"time": 1378, "pitch": 63, "duration": 6, "velocity": 89}, {"time": 1381, "pitch": 66, "duration": 10, "velocity": 116}, {"time": 1387, "pitch": 58, "duration": 4, "velocity": 87}, {"time": 1390, "pitch": 63, "duration": 3, "velocity": 91}, {"time": 1393, "pitch": 66, "duration": 3, "velocity": 90}, {"time": 1396, "pitch": 51, "duration": 18, "velocity": 91}, {"time": 1399, "pitch": 58, "duration": 7, "velocity": 84}, {"time": 1402, "pitch": 63, "duration": 2, "velocity": 80}, {"time": 1405, "pitch": 70, "duration": 11, "velocity": 93}, {"time": 1411, "pitch": 58, "duration": 3, "velocity": 76}, {"time": 1414, "pitch": 66, "duration": 6, "velocity": 83}, {"time": 1417, "pitch": 63, "duration": 6, "velocity": 76}, {"time": 1420, "pitch": 44, "duration": 19, "velocity": 86}, {"time": 1423, "pitch": 51, "duration": 17, "velocity": 80}, {"time": 1426, "pitch": 56, "duration": 15, "velocity": 83}, {"time": 1429, "pitch": 59, "duration": 7, "velocity": 83}, {"time": 1435, "pitch": 63, "duration": 9, "velocity": 86}, {"time": 1441, "pitch": 68, "duration": 1, "velocity": 75}, {"time": 1444, "pitch": 49, "duration": 22, "velocity": 91}, {"time": 1447, "pitch": 56, "duration": 7, "velocity": 83}, {"time": 1450, "pitch": 61, "duration": 2, "velocity": 79}, {"time": 1453, "pitch": 68, "duration": 8, "velocity": 108}, {"time": 1459, "pitch": 56, "duration": 7, "velocity": 84}, {"time": 1462, "pitch": 66, "duration": 3, "velocity": 94}, {"time": 1465, "pitch": 68, "duration": 26, "velocity": 92}, {"time": 1468, "pitch": 49, "duration": 23, "velocity": 88}, {"time": 1468, "pitch": 56, "duration": 7, "velocity": 87}, {"time": 1468, "pitch": 61, "duration": 22, "velocity": 87}, {"time": 1468, "pitch": 65, "duration": 22, "velocity": 91}, {"time": 1492, "pitch": 42, "duration": 19, "velocity": 86}, {"time": 1495, "pitch": 49, "duration": 21, "velocity": 84}, {"time": 1498, "pitch": 54, "duration": 7, "velocity": 87}, {"time": 1501, "pitch": 58, "duration": 6, "velocity": 82}, {"time": 1504, "pitch": 66, "duration": 9, "velocity": 100}, {"time": 1507, "pitch": 54, "duration": 3, "velocity": 86}, {"time": 1510, "pitch": 58, "duration": 3, "velocity": 84}, {"time": 1513, "pitch": 65, "duration": 14, "velocity": 82}, {"time": 1516, "pitch": 41, "duration": 18, "velocity": 81}, {"time": 1516, "pitch": 56, "duration": 10, "velocity": 91}, {"time": 1522, "pitch": 49, "duration": 11, "velocity": 73}, {"time": 1525, "pitch": 53, "duration": 4, "velocity": 85}, {"time": 1528, "pitch": 65, "duration": 8, "velocity": 119}, {"time": 1531, "pitch": 53, "duration": 2, "velocity": 95}, {"time": 1534, "pitch": 56, "duration": 3, "velocity": 88}, {"time": 1537, "pitch": 66, "duration": 12, "velocity": 93}, {"time": 1540, "pitch": 39, "duration": 18, "velocity": 88}, {"time": 1540, "pitch": 56, "duration": 8, "velocity": 85}, {"time": 1540, "pitch": 63, "duration": 9, "velocity": 96}, {"time": 1546, "pitch": 46, "duration": 12, "velocity": 70}, {"time": 1549, "pitch": 51, "duration": 3, "velocity": 85}, {"time": 1552, "pitch": 63, "duration": 11, "velocity": 108}, {"time": 1552, "pitch": 66, "duration": 11, "velocity": 100}, {"time": 1558, "pitch": 51, "duration": 3, "velocity": 87}, {"time": 1564, "pitch": 49, "duration": 19, "velocity": 84}, {"time": 1564, "pitch": 61, "duration": 6, "velocity": 87}, {"time": 1564, "pitch": 65, "duration": 9, "velocity": 86}, {"time": 1570, "pitch": 56, "duration": 18, "velocity": 81}, {"time": 1573, "pitch": 61, "duration": 3, "velocity": 91}, {"time": 1576, "pitch": 65, "duration": 4, "velocity": 119}, {"time": 1579, "pitch": 61, "duration": 2, "velocity": 92}, {"time": 1582, "pitch": 66, "duration": 3, "velocity": 100}, {"time": 1585, "pitch": 68, "duration": 3, "velocity": 94}, {"time": 1588, "pitch": 47, "duration": 19, "velocity": 84}, {"time": 1588, "pitch": 66, "duration": 10, "velocity": 91}, {"time": 1597, "pitch": 54, "duration": 3, "velocity": 73}, {"time": 1600, "pitch": 63, "duration": 3, "velocity": 81}, {"time": 1600, "pitch": 66, "duration": 9, "velocity": 104}, {"time": 1606, "pitch": 63, "duration": 5, "velocity": 82}, {"time": 1609, "pitch": 68, "duration": 1, "velocity": 76}, {"time": 1612, "pitch": 46, "duration": 19, "velocity": 85}, {"time": 1612, "pitch": 61, "duration": 7, "velocity": 89}, {"time": 1612, "pitch": 68, "duration": 6, "velocity": 92}, {"time": 1615, "pitch": 53, "duration": 15, "velocity": 79}, {"time": 1618, "pitch": 58, "duration": 6, "velocity": 89}, {"time": 1621, "pitch": 68, "duration": 10, "velocity": 104}, {"time": 1627, "pitch": 58, "duration": 2, "velocity": 86}, {"time": 1630, "pitch": 65, "duration": 12, "velocity": 90}, {"time": 1633, "pitch": 61, "duration": 5, "velocity": 91}, {"time": 1636, "pitch": 44, "duration": 18, "velocity": 87}, {"time": 1639, "pitch": 51, "duration": 15, "velocity": 74}, {"time": 1642, "pitch": 56, "duration": 6, "velocity": 87}, {"time": 1645, "pitch": 59, "duration": 4, "velocity": 83}, {"time": 1648, "pitch": 68, "duration": 6, "velocity": 108}, {"time": 1651, "pitch": 56, "duration": 5, "velocity": 88}, {"time": 1654, "pitch": 63, "duration": 5, "velocity": 89}, {"time": 1657, "pitch": 68, "duration": 3, "velocity": 92}, {"time": 1660, "pitch": 49, "duration": 19, "velocity": 84}, {"time": 1663, "pitch": 56, "duration": 15, "velocity": 79}, {"time": 1666, "pitch": 61, "duration": 6, "velocity": 87}, {"time": 1669, "pitch": 64, "duration": 2, "velocity": 83}, {"time": 1672, "pitch": 73, "duration": 6, "velocity": 110}, {"time": 1675, "pitch": 61, "duration": 2, "velocity": 91}, {"time": 1678, "pitch": 71, "duration": 6, "velocity": 107}, {"time": 1684, "pitch": 42, "duration": 18, "velocity": 88}, {"time": 1684, "pitch": 61, "duration": 9, "velocity": 90}, {"time": 1684, "pitch": 70, "duration": 5, "velocity": 100}, {"time": 1687, "pitch": 49, "duration": 19, "velocity": 80}, {"time": 1690, "pitch": 54, "duration": 5, "velocity": 87}, {"time": 1693, "pitch": 58, "duration": 8, "velocity": 91}, {"time": 1693, "pitch": 66, "duration": 6, "velocity": 100}, {"time": 1699, "pitch": 54, "duration": 2, "velocity": 82}, {"time": 1702, "pitch": 61, "duration": 3, "velocity": 87}, {"time": 1705, "pitch": 66, "duration": 4, "velocity": 89}, {"time": 1708, "pitch": 41, "duration": 19, "velocity": 80}, {"time": 1708, "pitch": 56, "duration": 8, "velocity": 88}, {"time": 1708, "pitch": 65, "duration": 7, "velocity": 89}, {"time": 1711, "pitch": 49, "duration": 14, "velocity": 69}, {"time": 1714, "pitch": 53, "duration": 3, "velocity": 80}, {"time": 1717, "pitch": 56, "duration": 2, "velocity": 91}, {"time": 1717, "pitch": 65, "duration": 10, "velocity": 116}, {"time": 1723, "pitch": 53, "duration": 3, "velocity": 84}, {"time": 1726, "pitch": 56, "duration": 5, "velocity": 94}, {"time": 1729, "pitch": 66, "duration": 12, "velocity": 100}, {"time": 1732, "pitch": 39, "duration": 17, "velocity": 87}, {"time": 1732, "pitch": 56, "duration": 4, "velocity": 85}, {"time": 1732, "pitch": 63, "duration": 9, "velocity": 107}, {"time": 1738, "pitch": 46, "duration": 12, "velocity": 73}, {"time": 1741, "pitch": 51, "duration": 3, "velocity": 87}, {"time": 1744, "pitch": 63, "duration": 11, "velocity": 114}, {"time": 1744, "pitch": 66, "duration": 10, "velocity": 113}, {"time": 1750, "pitch": 51, "duration": 3, "velocity": 88}, {"time": 1756, "pitch": 49, "duration": 18, "velocity": 85}, {"time": 1756, "pitch": 61, "duration": 3, "velocity": 75}, {"time": 1756, "pitch": 65, "duration": 4, "velocity": 83}, {"time": 1756, "pitch": 68, "duration": 5, "velocity": 91}, {"time": 1759, "pitch": 56, "duration": 15, "velocity": 78}, {"time": 1762, "pitch": 61, "duration": 4, "velocity": 93}, {"time": 1765, "pitch": 65, "duration": 6, "velocity": 106}, {"time": 1768, "pitch": 61, "duration": 4, "velocity": 98}, {"time": 1771, "pitch": 68, "duration": 6, "velocity": 85}, {"time": 1774, "pitch": 73, "duration": 6, "velocity": 91}, {"time": 1777, "pitch": 65, "duration": 4, "velocity": 89}, {"time": 1780, "pitch": 47, "duration": 21, "velocity": 90}, {"time": 1783, "pitch": 54, "duration": 17, "velocity": 81}, {"time": 1786, "pitch": 59, "duration": 6, "velocity": 88}, {"time": 1789, "pitch": 63, "duration": 3, "velocity": 80}, {"time": 1792, "pitch": 71, "duration": 12, "velocity": 107}, {"time": 1795, "pitch": 59, "duration": 3, "velocity": 86}, {"time": 1798, "pitch": 63, "duration": 6, "velocity": 87}, {"time": 1801, "pitch": 66, "duration": 3, "velocity": 83}, {"time": 1804, "pitch": 46, "duration": 19, "velocity": 87}, {"time": 1807, "pitch": 53, "duration": 16, "velocity": 79}, {"time": 1810, "pitch": 58, "duration": 6, "velocity": 87}, {"time": 1813, "pitch": 61, "duration": 3, "velocity": 93}, {"time": 1816, "pitch": 68, "duration": 6, "velocity": 113}, {"time": 1819, "pitch": 58, "duration": 3, "velocity": 96}, {"time": 1822, "pitch": 65, "duration": 10, "velocity": 109}, {"time": 1825, "pitch": 61, "duration": 5, "velocity": 88}, {"time": 1828, "pitch": 44, "duration": 19, "velocity": 86}, {"time": 1831, "pitch": 51, "duration": 16, "velocity": 77}, {"time": 1834, "pitch": 56, "duration": 6, "velocity": 84}, {"time": 1837, "pitch": 59, "duration": 2, "velocity": 87}, {"time": 1840, "pitch": 66, "duration": 6, "velocity": 114}, {"time": 1843, "pitch": 56, "duration": 9, "velocity": 88}, {"time": 1846, "pitch": 63, "duration": 3, "velocity": 90}, {"time": 1849, "pitch": 66, "duration": 3, "velocity": 87}, {"time": 1852, "pitch": 49, "duration": 20, "velocity": 85}, {"time": 1852, "pitch": 65, "duration": 6, "velocity": 90}, {"time": 1858, "pitch": 56, "duration": 12, "velocity": 78}, {"time": 1864, "pitch": 61, "duration": 5, "velocity": 86}, {"time": 1864, "pitch": 65, "duration": 7, "velocity": 87}, {"time": 1864, "pitch": 73, "duration": 9, "velocity": 89}, {"time": 1870, "pitch": 68, "duration": 4, "velocity": 83}, {"time": 1876, "pitch": 42, "duration": 10, "velocity": 86}, {"time": 1876, "pitch": 54, "duration": 10, "velocity": 84}, {"time": 1876, "pitch": 61, "duration": 10, "velocity": 86}, {"time": 1876, "pitch": 66, "duration": 10, "velocity": 88}, {"time": 1876, "pitch": 70, "duration": 9, "velocity": 87}, {"time": 1888, "pitch": 42, "duration": 4, "velocity": 87}, {"time": 1888, "pitch": 54, "duration": 4, "velocity": 92}, {"time": 1888, "pitch": 61, "duration": 4, "velocity": 86}, {"time": 1888, "pitch": 66, "duration": 4, "velocity": 88}, {"time": 1888, "pitch": 70, "duration": 4, "velocity": 88}, {"time": 1894, "pitch": 42, "duration": 4, "velocity": 91}, {"time": 1894, "pitch": 54, "duration": 4, "velocity": 90}, {"time": 1894, "pitch": 61, "duration": 4, "velocity": 87}, {"time": 1894, "pitch": 66, "duration": 5, "velocity": 88}, {"time": 1894, "pitch": 70, "duration": 4, "velocity": 88}, {"time": 1900, "pitch": 42, "duration": 3, "velocity": 92}, {"time": 1900, "pitch": 54, "duration": 4, "velocity": 96}, {"time": 1900, "pitch": 61, "duration": 4, "velocity": 87}, {"time": 1900, "pitch": 66, "duration": 4, "velocity": 89}, {"time": 1900, "pitch": 70, "duration": 3, "velocity": 87}, {"time": 1906, "pitch": 42, "duration": 4, "velocity": 94}, {"time": 1906, "pitch": 54, "duration": 4, "velocity": 91}, {"time": 1906, "pitch": 61, "duration": 4, "velocity": 87}, {"time": 1906, "pitch": 66, "duration": 4, "velocity": 89}, {"time": 1906, "pitch": 70, "duration": 4, "velocity": 87}, {"time": 1912, "pitch": 42, "duration": 7, "velocity": 102}, {"time": 1912, "pitch": 54, "duration": 4, "velocity": 108}, {"time": 1912, "pitch": 61, "duration": 7, "velocity": 98}, {"time": 1912, "pitch": 66, "duration": 7, "velocity": 108}, {"time": 1912, "pitch": 70, "duration": 7, "velocity": 96}, {"time": 1918, "pitch": 54, "duration": 2, "velocity": 89}, {"time": 1921, "pitch": 54, "duration": 1, "velocity": 68}, {"time": 1924, "pitch": 47, "duration": 21, "velocity": 100}, {"time": 1924, "pitch": 59, "duration": 3, "velocity": 93}, {"time": 1924, "pitch": 63, "duration": 8, "velocity": 107}, {"time": 1924, "pitch": 66, "duration": 8, "velocity": 102}, {"time": 1930, "pitch": 54, "duration": 17, "velocity": 78}, {"time": 1933, "pitch": 59, "duration": 4, "velocity": 88}, {"time": 1936, "pitch": 63, "duration": 11, "velocity": 108}, {"time": 1936, "pitch": 66, "duration": 10, "velocity": 116}, {"time": 1942, "pitch": 59, "duration": 3, "velocity": 88}, {"time": 1948, "pitch": 49, "duration": 8, "velocity": 102}, {"time": 1948, "pitch": 61, "duration": 10, "velocity": 91}, {"time": 1948, "pitch": 65, "duration": 11, "velocity": 109}, {"time": 1948, "pitch": 68, "duration": 10, "velocity": 107}, {"time": 1957, "pitch": 49, "duration": 6, "velocity": 98}, {"time": 1960, "pitch": 61, "duration": 8, "velocity": 104}, {"time": 1960, "pitch": 65, "duration": 10, "velocity": 113}, {"time": 1960, "pitch": 68, "duration": 10, "velocity": 102}, {"time": 1966, "pitch": 49, "duration": 4, "velocity": 91}, {"time": 1972, "pitch": 46, "duration": 21, "velocity": 90}, {"time": 1972, "pitch": 61, "duration": 7, "velocity": 90}, {"time": 1972, "pitch": 65, "duration": 7, "velocity": 91}, {"time": 1972, "pitch": 68, "duration": 7, "velocity": 92}, {"time": 1975, "pitch": 53, "duration": 19, "velocity": 83}, {"time": 1978, "pitch": 58, "duration": 6, "velocity": 89}, {"time": 1981, "pitch": 61, "duration": 7, "velocity": 100}, {"time": 1981, "pitch": 65, "duration": 7, "velocity": 109}, {"time": 1981, "pitch": 68, "duration": 6, "velocity": 108}, {"time": 1987, "pitch": 58, "duration": 3, "velocity": 88}, {"time": 1990, "pitch": 61, "duration": 4, "velocity": 107}, {"time": 1990, "pitch": 65, "duration": 5, "velocity": 113}, {"time": 1990, "pitch": 68, "duration": 4, "velocity": 110}, {"time": 1993, "pitch": 58, "duration": 3, "velocity": 91}, {"time": 1996, "pitch": 51, "duration": 21, "velocity": 96}, {"time": 1996, "pitch": 63, "duration": 7, "velocity": 104}, {"time": 1996, "pitch": 66, "duration": 7, "velocity": 114}, {"time": 1996, "pitch": 70, "duration": 6, "velocity": 110}, {"time": 2002, "pitch": 58, "duration": 5, "velocity": 88}, {"time": 2005, "pitch": 63, "duration": 6, "velocity": 108}, {"time": 2005, "pitch": 66, "duration": 6, "velocity": 117}, {"time": 2005, "pitch": 70, "duration": 6, "velocity": 110}, {"time": 2011, "pitch": 58, "duration": 3, "velocity": 88}, {"time": 2014, "pitch": 63, "duration": 3, "velocity": 102}, {"time": 2014, "pitch": 66, "duration": 3, "velocity": 108}, {"time": 2014, "pitch": 70, "duration": 2, "velocity": 100}, {"time": 2020, "pitch": 47, "duration": 21, "velocity": 100}, {"time": 2020, "pitch": 59, "duration": 3, "velocity": 104}, {"time": 2020, "pitch": 63, "duration": 5, "velocity": 114}, {"time": 2020, "pitch": 66, "duration": 5, "velocity": 114}, {"time": 2023, "pitch": 54, "duration": 18, "velocity": 81}, {"time": 2026, "pitch": 59, "duration": 5, "velocity": 87}, {"time": 2032, "pitch": 63, "duration": 7, "velocity": 116}, {"time": 2032, "pitch": 66, "duration": 8, "velocity": 119}, {"time": 2032, "pitch": 71, "duration": 8, "velocity": 113}, {"time": 2038, "pitch": 59, "duration": 3, "velocity": 78}, {"time": 2044, "pitch": 49, "duration": 19, "velocity": 96}, {"time": 2044, "pitch": 61, "duration": 9, "velocity": 110}, {"time": 2044, "pitch": 65, "duration": 9, "velocity": 119}, {"time": 2044, "pitch": 68, "duration": 10, "velocity": 114}, {"time": 2053, "pitch": 56, "duration": 4, "velocity": 87}, {"time": 2056, "pitch": 61, "duration": 8, "velocity": 107}, {"time": 2056, "pitch": 65, "duration": 9, "velocity": 119}, {"time": 2056, "pitch": 68, "duration": 10, "velocity": 117}, {"time": 2062, "pitch": 56, "duration": 1, "velocity": 88}, {"time": 2068, "pitch": 49, "duration": 26, "velocity": 113}, {"time": 2068, "pitch": 61, "duration": 7, "velocity": 113}, {"time": 2068, "pitch": 65, "duration": 7, "velocity": 123}, {"time": 2068, "pitch": 68, "duration": 6, "velocity": 113}, {"time": 2077, "pitch": 56, "duration": 4, "velocity": 96}, {"time": 2080, "pitch": 61, "duration": 7, "velocity": 113}, {"time": 2080, "pitch": 65, "duration": 7, "velocity": 123}, {"time": 2080, "pitch": 68, "duration": 6, "velocity": 113}, {"time": 2086, "pitch": 56, "duration": 9, "velocity": 86}, {"time": 2089, "pitch": 61, "duration": 1, "velocity": 104}, {"time": 2089, "pitch": 65, "duration": 1, "velocity": 113}, {"time": 2089, "pitch": 68, "duration": 1, "velocity": 104}, {"time": 2095, "pitch": 61, "duration": 10, "velocity": 110}, {"time": 2095, "pitch": 65, "duration": 10, "velocity": 119}, {"time": 2095, "pitch": 68, "duration": 10, "velocity": 113}, {"time": 2101, "pitch": 49, "duration": 13, "velocity": 96}, {"time": 2104, "pitch": 56, "duration": 8, "velocity": 116}, {"time": 2107, "pitch": 61, "duration": 2, "velocity": 102}, {"time": 2110, "pitch": 61, "duration": 1, "velocity": 76}, {"time": 2110, "pitch": 65, "duration": 2, "velocity": 116}, {"time": 2113, "pitch": 61, "duration": 1, "velocity": 89}, {"time": 2113, "pitch": 68, "duration": 1, "velocity": 79}, {"time": 2116, "pitch": 49, "duration": 25, "velocity": 104}, {"time": 2116, "pitch": 56, "duration": 26, "velocity": 104}, {"time": 2116, "pitch": 61, "duration": 25, "velocity": 113}, {"time": 2116, "pitch": 65, "duration": 25, "velocity": 119}, {"time": 2116, "pitch": 68, "duration": 25, "velocity": 114}, {"time": 2176, "pitch": 44, "duration": 18, "velocity": 108}, {"time": 2176, "pitch": 60, "duration": 8, "velocity": 108}, {"time": 2176, "pitch": 63, "duration": 8, "velocity": 116}, {"time": 2176, "pitch": 68, "duration": 7, "velocity": 108}, {"time": 2182, "pitch": 51, "duration": 16, "velocity": 81}, {"time": 2185, "pitch": 56, "duration": 4, "velocity": 107}, {"time": 2188, "pitch": 60, "duration": 8, "velocity": 113}, {"time": 2188, "pitch": 63, "duration": 10, "velocity": 117}, {"time": 2188, "pitch": 68, "duration": 9, "velocity": 110}, {"time": 2194, "pitch": 56, "duration": 2, "velocity": 88}, {"time": 2200, "pitch": 43, "duration": 18, "velocity": 100}, {"time": 2200, "pitch": 58, "duration": 3, "velocity": 113}, {"time": 2200, "pitch": 63, "duration": 5, "velocity": 117}, {"time": 2200, "pitch": 67, "duration": 6, "velocity": 113}, {"time": 2203, "pitch": 51, "duration": 14, "velocity": 68}, {"time": 2206, "pitch": 55, "duration": 3, "velocity": 90}, {"time": 2209, "pitch": 63, "duration": 6, "velocity": 107}, {"time": 2209, "pitch": 67, "duration": 6, "velocity": 119}, {"time": 2209, "pitch": 70, "duration": 6, "velocity": 113}, {"time": 2215, "pitch": 55, "duration": 3, "velocity": 95}, {"time": 2218, "pitch": 63, "duration": 3, "velocity": 104}, {"time": 2218, "pitch": 67, "duration": 4, "velocity": 116}, {"time": 2218, "pitch": 70, "duration": 4, "velocity": 114}, {"time": 2221, "pitch": 43, "duration": 1, "velocity": 97}, {"time": 2224, "pitch": 41, "duration": 1, "velocity": 110}, {"time": 2224, "pitch": 65, "duration": 9, "velocity": 98}, {"time": 2224, "pitch": 68, "duration": 9, "velocity": 113}, {"time": 2224, "pitch": 72, "duration": 9, "velocity": 100}, {"time": 2230, "pitch": 53, "duration": 14, "velocity": 91}, {"time": 2233, "pitch": 60, "duration": 5, "velocity": 85}, {"time": 2236, "pitch": 65, "duration": 8, "velocity": 116}, {"time": 2236, "pitch": 68, "duration": 9, "velocity": 120}, {"time": 2236, "pitch": 72, "duration": 9, "velocity": 104}, {"time": 2242, "pitch": 60, "duration": 1, "velocity": 87}, {"time": 2248, "pitch": 51, "duration": 16, "velocity": 102}, {"time": 2248, "pitch": 63, "duration": 3, "velocity": 100}, {"time": 2248, "pitch": 67, "duration": 5, "velocity": 113}, {"time": 2248, "pitch": 70, "duration": 6, "velocity": 110}, {"time": 2251, "pitch": 58, "duration": 13, "velocity": 84}, {"time": 2254, "pitch": 63, "duration": 4, "velocity": 98}, {"time": 2257, "pitch": 67, "duration": 5, "velocity": 119}, {"time": 2257, "pitch": 75, "duration": 5, "velocity": 116}, {"time": 2260, "pitch": 63, "duration": 3, "velocity": 114}, {"time": 2263, "pitch": 67, "duration": 1, "velocity": 81}, {"time": 2263, "pitch": 70, "duration": 3, "velocity": 119}, {"time": 2266, "pitch": 51, "duration": 5, "velocity": 98}, {"time": 2266, "pitch": 75, "duration": 4, "velocity": 108}, {"time": 2272, "pitch": 49, "duration": 14, "velocity": 91}, {"time": 2272, "pitch": 65, "duration": 9, "velocity": 100}, {"time": 2272, "pitch": 68, "duration": 9, "velocity": 116}, {"time": 2272, "pitch": 73, "duration": 8, "velocity": 108}, {"time": 2278, "pitch": 56, "duration": 9, "velocity": 79}, {"time": 2281, "pitch": 61, "duration": 4, "velocity": 107}, {"time": 2284, "pitch": 65, "duration": 6, "velocity": 114}, {"time": 2284, "pitch": 68, "duration": 10, "velocity": 117}, {"time": 2284, "pitch": 73, "duration": 6, "velocity": 110}, {"time": 2290, "pitch": 49, "duration": 5, "velocity": 98}, {"time": 2296, "pitch": 48, "duration": 13, "velocity": 94}, {"time": 2296, "pitch": 63, "duration": 9, "velocity": 98}, {"time": 2296, "pitch": 67, "duration": 9, "velocity": 113}, {"time": 2296, "pitch": 70, "duration": 9, "velocity": 113}, {"time": 2302, "pitch": 55, "duration": 7, "velocity": 81}, {"time": 2305, "pitch": 60, "duration": 4, "velocity": 110}, {"time": 2308, "pitch": 63, "duration": 3, "velocity": 117}, {"time": 2308, "pitch": 67, "duration": 3, "velocity": 116}, {"time": 2308, "pitch": 70, "duration": 3, "velocity": 120}, {"time": 2311, "pitch": 48, "duration": 2, "velocity": 110}, {"time": 2314, "pitch": 63, "duration": 2, "velocity": 96}, {"time": 2314, "pitch": 67, "duration": 1, "velocity": 116}, {"time": 2314, "pitch": 70, "duration": 2, "velocity": 108}, {"time": 2320, "pitch": 49, "duration": 19, "velocity": 107}, {"time": 2320, "pitch": 61, "duration": 10, "velocity": 104}, {"time": 2320, "pitch": 65, "duration": 10, "velocity": 116}, {"time": 2320, "pitch": 68, "duration": 9, "velocity": 108}, {"time": 2329, "pitch": 56, "duration": 5, "velocity": 85}, {"time": 2332, "pitch": 61, "duration": 8, "velocity": 107}, {"time": 2332, "pitch": 65, "duration": 10, "velocity": 116}, {"time": 2332, "pitch": 68, "duration": 9, "velocity": 108}, {"time": 2338, "pitch": 56, "duration": 4, "velocity": 82}, {"time": 2344, "pitch": 51, "duration": 13, "velocity": 104}, {"time": 2344, "pitch": 63, "duration": 5, "velocity": 104}, {"time": 2344, "pitch": 67, "duration": 6, "velocity": 116}, {"time": 2344, "pitch": 70, "duration": 6, "velocity": 110}, {"time": 2350, "pitch": 58, "duration": 7, "velocity": 87}, {"time": 2353, "pitch": 63, "duration": 3, "velocity": 113}, {"time": 2356, "pitch": 67, "duration": 4, "velocity": 109}, {"time": 2356, "pitch": 70, "duration": 4, "velocity": 116}, {"time": 2356, "pitch": 75, "duration": 3, "velocity": 107}, {"time": 2359, "pitch": 51, "duration": 3, "velocity": 110}, {"time": 2362, "pitch": 67, "duration": 2, "velocity": 116}, {"time": 2362, "pitch": 70, "duration": 4, "velocity": 119}, {"time": 2362, "pitch": 75, "duration": 3, "velocity": 113}, {"time": 2368, "pitch": 44, "duration": 14, "velocity": 116}, {"time": 2374, "pitch": 51, "duration": 8, "velocity": 84}, {"time": 2377, "pitch": 56, "duration": 4, "velocity": 110}, {"time": 2380, "pitch": 63, "duration": 10, "velocity": 119}, {"time": 2380, "pitch": 68, "duration": 10, "velocity": 120}, {"time": 2380, "pitch": 71, "duration": 1, "velocity": 106}, {"time": 2380, "pitch": 72, "duration": 9, "velocity": 116}, {"time": 2386, "pitch": 44, "duration": 1, "velocity": 96}, {"time": 2392, "pitch": 43, "duration": 12, "velocity": 100}, {"time": 2392, "pitch": 63, "duration": 9, "velocity": 104}, {"time": 2392, "pitch": 67, "duration": 9, "velocity": 116}, {"time": 2392, "pitch": 70, "duration": 9, "velocity": 113}, {"time": 2401, "pitch": 55, "duration": 3, "velocity": 109}, {"time": 2404, "pitch": 63, "duration": 3, "velocity": 114}, {"time": 2404, "pitch": 67, "duration": 3, "velocity": 123}, {"time": 2404, "pitch": 70, "duration": 3, "velocity": 114}, {"time": 2407, "pitch": 43, "duration": 2, "velocity": 113}, {"time": 2410, "pitch": 63, "duration": 4, "velocity": 104}, {"time": 2410, "pitch": 67, "duration": 3, "velocity": 116}, {"time": 2410, "pitch": 70, "duration": 4, "velocity": 107}, {"time": 2416, "pitch": 41, "duration": 18, "velocity": 108}, {"time": 2416, "pitch": 65, "duration": 9, "velocity": 108}, {"time": 2416, "pitch": 68, "duration": 9, "velocity": 114}, {"time": 2416, "pitch": 72, "duration": 9, "velocity": 110}, {"time": 2425, "pitch": 53, "duration": 4, "velocity": 114}, {"time": 2428, "pitch": 65, "duration": 6, "velocity": 108}, {"time": 2428, "pitch": 68, "duration": 9, "velocity": 116}, {"time": 2428, "pitch": 72, "duration": 9, "velocity": 108}, {"time": 2434, "pitch": 53, "duration": 1, "velocity": 91}, {"time": 2440, "pitch": 51, "duration": 12, "velocity": 93}, {"time": 2440, "pitch": 63, "duration": 3, "velocity": 94}, {"time": 2440, "pitch": 67, "duration": 5, "velocity": 109}, {"time": 2440, "pitch": 70, "duration": 6, "velocity": 107}, {"time": 2446, "pitch": 58, "duration": 6, "velocity": 82}, {"time": 2449, "pitch": 63, "duration": 3, "velocity": 102}, {"time": 2452, "pitch": 67, "duration": 6, "velocity": 116}, {"time": 2452, "pitch": 75, "duration": 3, "velocity": 108}, {"time": 2458, "pitch": 70, "duration": 2, "velocity": 110}, {"time": 2464, "pitch": 49, "duration": 14, "velocity": 100}, {"time": 2464, "pitch": 65, "duration": 9, "velocity": 104}, {"time": 2464, "pitch": 68, "duration": 9, "velocity": 113}, {"time": 2464, "pitch": 73, "duration": 9, "velocity": 100}, {"time": 2470, "pitch": 56, "duration": 8, "velocity": 75}, {"time": 2473, "pitch": 61, "duration": 4, "velocity": 87}, {"time": 2476, "pitch": 65, "duration": 6, "velocity": 108}, {"time": 2476, "pitch": 68, "duration": 10, "velocity": 116}, {"time": 2476, "pitch": 73, "duration": 7, "velocity": 107}, {"time": 2482, "pitch": 49, "duration": 5, "velocity": 87}, {"time": 2488, "pitch": 48, "duration": 14, "velocity": 87}, {"time": 2488, "pitch": 63, "duration": 9, "velocity": 94}, {"time": 2488, "pitch": 67, "duration": 9, "velocity": 106}, {"time": 2488, "pitch": 70, "duration": 9, "velocity": 107}, {"time": 2494, "pitch": 55, "duration": 8, "velocity": 75}, {"time": 2497, "pitch": 60, "duration": 4, "velocity": 94}, {"time": 2500, "pitch": 63, "duration": 7, "velocity": 107}, {"time": 2500, "pitch": 67, "duration": 6, "velocity": 116}, {"time": 2500, "pitch": 70, "duration": 7, "velocity": 113}, {"time": 2506, "pitch": 48, "duration": 5, "velocity": 87}, {"time": 2512, "pitch": 46, "duration": 18, "velocity": 93}, {"time": 2512, "pitch": 61, "duration": 9, "velocity": 90}, {"time": 2512, "pitch": 65, "duration": 9, "velocity": 94}, {"time": 2512, "pitch": 70, "duration": 8, "velocity": 91}, {"time": 2518, "pitch": 53, "duration": 12, "velocity": 78}, {"time": 2521, "pitch": 58, "duration": 4, "velocity": 91}, {"time": 2524, "pitch": 61, "duration": 7, "velocity": 102}, {"time": 2524, "pitch": 65, "duration": 10, "velocity": 114}, {"time": 2524, "pitch": 70, "duration": 7, "velocity": 100}, {"time": 2530, "pitch": 58, "duration": 5, "velocity": 91}, {"time": 2536, "pitch": 51, "duration": 36, "velocity": 86}, {"time": 2536, "pitch": 63, "duration": 5, "velocity": 90}, {"time": 2536, "pitch": 67, "duration": 7, "velocity": 100}, {"time": 2536, "pitch": 70, "duration": 6, "velocity": 100}, {"time": 2542, "pitch": 58, "duration": 30, "velocity": 81}, {"time": 2545, "pitch": 63, "duration": 26, "velocity": 94}, {"time": 2548, "pitch": 67, "duration": 1, "velocity": 90}, {"time": 2551, "pitch": 70, "duration": 8, "velocity": 87}, {"time": 2554, "pitch": 75, "duration": 18, "velocity": 84}, {"time": 2557, "pitch": 79, "duration": 14, "velocity": 71}, {"time": 2560, "pitch": 70, "duration": 12, "velocity": 72}, {"time": 2560, "pitch": 82, "duration": 10, "velocity": 90}, {"time": 2560, "pitch": 94, "duration": 10, "velocity": 97}, {"time": 2596, "pitch": 65, "duration": 19, "velocity": 65}, {"time": 2596, "pitch": 68, "duration": 20, "velocity": 65}, {"time": 2596, "pitch": 72, "duration": 20, "velocity": 65}, {"time": 2596, "pitch": 84, "duration": 3, "velocity": 65}, {"time": 2599, "pitch": 80, "duration": 3, "velocity": 65}, {"time": 2602, "pitch": 77, "duration": 3, "velocity": 65}, {"time": 2605, "pitch": 84, "duration": 3, "velocity": 65}, {"time": 2608, "pitch": 80, "duration": 3, "velocity": 65}, {"time": 2611, "pitch": 77, "duration": 3, "velocity": 65}, {"time": 2614, "pitch": 84, "duration": 3, "velocity": 65}, {"time": 2617, "pitch": 80, "duration": 3, "velocity": 65}, {"time": 2620, "pitch": 63, "duration": 16, "velocity": 65}, {"time": 2620, "pitch": 67, "duration": 18, "velocity": 65}, {"time": 2620, "pitch": 70, "duration": 19, "velocity": 65}, {"time": 2620, "pitch": 84, "duration": 3, "velocity": 65}, {"time": 2623, "pitch": 80, "duration": 3, "velocity": 65}, {"time": 2626, "pitch": 79, "duration": 3, "velocity": 65}, {"time": 2629, "pitch": 63, "duration": 7, "velocity": 65}, {"time": 2635, "pitch": 80, "duration": 3, "velocity": 65}, {"time": 2638, "pitch": 79, "duration": 4, "velocity": 65}, {"time": 2641, "pitch": 75, "duration": 3, "velocity": 65}, {"time": 2644, "pitch": 60, "duration": 15, "velocity": 65}, {"time": 2644, "pitch": 63, "duration": 9, "velocity": 65}, {"time": 2644, "pitch": 67, "duration": 7, "velocity": 65}, {"time": 2644, "pitch": 68, "duration": 3, "velocity": 65}, {"time": 2647, "pitch": 67, "duration": 4, "velocity": 63}, {"time": 2650, "pitch": 63, "duration": 3, "velocity": 63}, {"time": 2653, "pitch": 60, "duration": 6, "velocity": 63}, {"time": 2659, "pitch": 63, "duration": 4, "velocity": 63}, {"time": 2662, "pitch": 65, "duration": 5, "velocity": 63}, {"time": 2665, "pitch": 68, "duration": 4, "velocity": 63}, {"time": 2668, "pitch": 70, "duration": 14, "velocity": 63}, {"time": 2668, "pitch": 51, "duration": 41, "velocity": 63}, {"time": 2671, "pitch": 58, "duration": 36, "velocity": 63}, {"time": 2674, "pitch": 63, "duration": 29, "velocity": 63}, {"time": 2677, "pitch": 67, "duration": 6, "velocity": 63}, {"time": 2683, "pitch": 70, "duration": 3, "velocity": 63}, {"time": 2685, "pitch": 75, "duration": 3, "velocity": 61}, {"time": 2688, "pitch": 79, "duration": 5, "velocity": 65}, {"time": 2693, "pitch": 82, "duration": 9, "velocity": 73}, {"time": 2697, "pitch": 87, "duration": 7, "velocity": 74}, {"time": 2704, "pitch": 87, "duration": 8, "velocity": 69}, {"time": 2706, "pitch": 94, "duration": 14, "velocity": 73}, {"time": 2720, "pitch": 99, "duration": 24, "velocity": 57}, {"time": 2721, "pitch": 103, "duration": 24, "velocity": 55}, {"time": 2722, "pitch": 106, "duration": 23, "velocity": 39}]}]}