{"metadata": {"schema_version": "0.2", "title": "None", "source_filename": "316.mid", "source_format": "midi"}, "resolution": 12, "tempos": [{"time": 0, "qpm": 83.0000650167176}, {"time": 2631, "qpm": 81.02480169179786}, {"time": 2643, "qpm": 77.10506464617129}, {"time": 2655, "qpm": 72.55051329488155}, {"time": 2671, "qpm": 70.00007000007}, {"time": 2679, "qpm": 83.0000650167176}], "time_signatures": [{"time": 0, "numerator": 4, "denominator": 4}], "tracks": [{"program": 0, "is_drum": false, "name": "MELODY", "notes": [{"time": 99, "pitch": 80, "duration": 6, "velocity": 127}, {"time": 105, "pitch": 78, "duration": 6, "velocity": 119}, {"time": 111, "pitch": 77, "duration": 41, "velocity": 114}, {"time": 153, "pitch": 80, "duration": 6, "velocity": 127}, {"time": 159, "pitch": 78, "duration": 33, "velocity": 127}, {"time": 195, "pitch": 80, "duration": 8, "velocity": 109}, {"time": 243, "pitch": 80, "duration": 5, "velocity": 99}, {"time": 249, "pitch": 78, "duration": 29, "velocity": 127}, {"time": 291, "pitch": 78, "duration": 6, "velocity": 121}, {"time": 297, "pitch": 80, "duration": 5, "velocity": 108}, {"time": 303, "pitch": 77, "duration": 18, "velocity": 104}, {"time": 339, "pitch": 80, "duration": 6, "velocity": 127}, {"time": 345, "pitch": 78, "duration": 24, "velocity": 123}, {"time": 399, "pitch": 77, "duration": 12, "velocity": 116}, {"time": 411, "pitch": 68, "duration": 12, "velocity": 116}, {"time": 423, "pitch": 70, "duration": 6, "velocity": 114}, {"time": 429, "pitch": 73, "duration": 6, "velocity": 108}, {"time": 435, "pitch": 73, "duration": 12, "velocity": 110}, {"time": 447, "pitch": 77, "duration": 6, "velocity": 116}, {"time": 453, "pitch": 77, "duration": 6, "velocity": 113}, {"time": 459, "pitch": 77, "duration": 6, "velocity": 116}, {"time": 465, "pitch": 77, "duration": 6, "velocity": 113}, {"time": 471, "pitch": 75, "duration": 6, "velocity": 96}, {"time": 477, "pitch": 73, "duration": 6, "velocity": 107}, {"time": 483, "pitch": 73, "duration": 12, "velocity": 110}, {"time": 495, "pitch": 68, "duration": 12, "velocity": 98}, {"time": 507, "pitch": 65, "duration": 6, "velocity": 113}, {"time": 513, "pitch": 68, "duration": 6, "velocity": 108}, {"time": 519, "pitch": 70, "duration": 6, "velocity": 107}, {"time": 525, "pitch": 73, "duration": 6, "velocity": 108}, {"time": 531, "pitch": 73, "duration": 12, "velocity": 110}, {"time": 543, "pitch": 70, "duration": 3, "velocity": 114}, {"time": 546, "pitch": 70, "duration": 6, "velocity": 110}, {"time": 552, "pitch": 73, "duration": 3, "velocity": 114}, {"time": 555, "pitch": 70, "duration": 6, "velocity": 114}, {"time": 561, "pitch": 68, "duration": 6, "velocity": 108}, {"time": 567, "pitch": 80, "duration": 30, "velocity": 110}, {"time": 597, "pitch": 77, "duration": 6, "velocity": 113}, {"time": 603, "pitch": 77, "duration": 6, "velocity": 114}, {"time": 609, "pitch": 75, "duration": 6, "velocity": 108}, {"time": 615, "pitch": 73, "duration": 6, "velocity": 114}, {"time": 621, "pitch": 75, "duration": 6, "velocity": 108}, {"time": 627, "pitch": 77, "duration": 6, "velocity": 114}, {"time": 633, "pitch": 70, "duration": 6, "velocity": 110}, {"time": 639, "pitch": 68, "duration": 15, "velocity": 114}, {"time": 654, "pitch": 68, "duration": 3, "velocity": 88}, {"time": 657, "pitch": 70, "duration": 3, "velocity": 91}, {"time": 660, "pitch": 68, "duration": 3, "velocity": 87}, {"time": 663, "pitch": 70, "duration": 6, "velocity": 104}, {"time": 669, "pitch": 73, "duration": 6, "velocity": 108}, {"time": 675, "pitch": 73, "duration": 6, "velocity": 114}, {"time": 681, "pitch": 70, "duration": 6, "velocity": 113}, {"time": 687, "pitch": 75, "duration": 24, "velocity": 114}, {"time": 711, "pitch": 68, "duration": 6, "velocity": 116}, {"time": 717, "pitch": 70, "duration": 6, "velocity": 113}, {"time": 723, "pitch": 73, "duration": 6, "velocity": 114}, {"time": 729, "pitch": 75, "duration": 6, "velocity": 110}, {"time": 735, "pitch": 77, "duration": 6, "velocity": 116}, {"time": 741, "pitch": 80, "duration": 6, "velocity": 108}, {"time": 747, "pitch": 80, "duration": 6, "velocity": 108}, {"time": 753, "pitch": 82, "duration": 6, "velocity": 96}, {"time": 759, "pitch": 77, "duration": 6, "velocity": 104}, {"time": 765, "pitch": 75, "duration": 30, "velocity": 107}, {"time": 795, "pitch": 75, "duration": 6, "velocity": 117}, {"time": 801, "pitch": 70, "duration": 6, "velocity": 113}, {"time": 807, "pitch": 73, "duration": 168, "velocity": 116}, {"time": 999, "pitch": 77, "duration": 12, "velocity": 116}, {"time": 1011, "pitch": 68, "duration": 12, "velocity": 116}, {"time": 1023, "pitch": 70, "duration": 6, "velocity": 114}, {"time": 1029, "pitch": 73, "duration": 6, "velocity": 108}, {"time": 1035, "pitch": 73, "duration": 12, "velocity": 110}, {"time": 1047, "pitch": 77, "duration": 6, "velocity": 116}, {"time": 1053, "pitch": 77, "duration": 6, "velocity": 113}, {"time": 1059, "pitch": 77, "duration": 6, "velocity": 116}, {"time": 1065, "pitch": 77, "duration": 6, "velocity": 113}, {"time": 1071, "pitch": 75, "duration": 6, "velocity": 96}, {"time": 1077, "pitch": 73, "duration": 6, "velocity": 107}, {"time": 1083, "pitch": 73, "duration": 12, "velocity": 110}, {"time": 1095, "pitch": 68, "duration": 12, "velocity": 98}, {"time": 1107, "pitch": 65, "duration": 6, "velocity": 113}, {"time": 1113, "pitch": 68, "duration": 6, "velocity": 108}, {"time": 1119, "pitch": 70, "duration": 6, "velocity": 107}, {"time": 1125, "pitch": 73, "duration": 6, "velocity": 108}, {"time": 1131, "pitch": 73, "duration": 12, "velocity": 110}, {"time": 1143, "pitch": 70, "duration": 3, "velocity": 114}, {"time": 1146, "pitch": 70, "duration": 6, "velocity": 110}, {"time": 1152, "pitch": 73, "duration": 3, "velocity": 114}, {"time": 1155, "pitch": 70, "duration": 6, "velocity": 114}, {"time": 1161, "pitch": 68, "duration": 6, "velocity": 108}, {"time": 1167, "pitch": 80, "duration": 30, "velocity": 110}, {"time": 1197, "pitch": 77, "duration": 6, "velocity": 113}, {"time": 1203, "pitch": 77, "duration": 6, "velocity": 114}, {"time": 1209, "pitch": 75, "duration": 6, "velocity": 108}, {"time": 1215, "pitch": 73, "duration": 6, "velocity": 114}, {"time": 1221, "pitch": 75, "duration": 6, "velocity": 108}, {"time": 1227, "pitch": 77, "duration": 6, "velocity": 114}, {"time": 1233, "pitch": 70, "duration": 6, "velocity": 110}, {"time": 1239, "pitch": 68, "duration": 15, "velocity": 114}, {"time": 1254, "pitch": 68, "duration": 3, "velocity": 88}, {"time": 1257, "pitch": 70, "duration": 3, "velocity": 91}, {"time": 1260, "pitch": 68, "duration": 3, "velocity": 87}, {"time": 1263, "pitch": 70, "duration": 6, "velocity": 104}, {"time": 1269, "pitch": 73, "duration": 6, "velocity": 108}, {"time": 1275, "pitch": 73, "duration": 6, "velocity": 114}, {"time": 1281, "pitch": 70, "duration": 6, "velocity": 113}, {"time": 1287, "pitch": 75, "duration": 24, "velocity": 114}, {"time": 1311, "pitch": 68, "duration": 6, "velocity": 116}, {"time": 1317, "pitch": 70, "duration": 6, "velocity": 113}, {"time": 1323, "pitch": 73, "duration": 6, "velocity": 114}, {"time": 1329, "pitch": 75, "duration": 6, "velocity": 110}, {"time": 1335, "pitch": 77, "duration": 6, "velocity": 116}, {"time": 1341, "pitch": 80, "duration": 6, "velocity": 108}, {"time": 1347, "pitch": 80, "duration": 6, "velocity": 108}, {"time": 1353, "pitch": 82, "duration": 6, "velocity": 96}, {"time": 1359, "pitch": 77, "duration": 6, "velocity": 104}, {"time": 1365, "pitch": 75, "duration": 30, "velocity": 107}, {"time": 1395, "pitch": 75, "duration": 6, "velocity": 117}, {"time": 1401, "pitch": 70, "duration": 6, "velocity": 113}, {"time": 1407, "pitch": 73, "duration": 48, "velocity": 116}, {"time": 1503, "pitch": 77, "duration": 12, "velocity": 113}, {"time": 1515, "pitch": 68, "duration": 6, "velocity": 113}, {"time": 1521, "pitch": 68, "duration": 6, "velocity": 110}, {"time": 1527, "pitch": 75, "duration": 12, "velocity": 116}, {"time": 1539, "pitch": 68, "duration": 12, "velocity": 114}, {"time": 1551, "pitch": 73, "duration": 12, "velocity": 108}, {"time": 1563, "pitch": 73, "duration": 6, "velocity": 108}, {"time": 1569, "pitch": 75, "duration": 6, "velocity": 107}, {"time": 1575, "pitch": 77, "duration": 12, "velocity": 113}, {"time": 1587, "pitch": 68, "duration": 12, "velocity": 104}, {"time": 1599, "pitch": 66, "duration": 6, "velocity": 108}, {"time": 1605, "pitch": 68, "duration": 6, "velocity": 94}, {"time": 1611, "pitch": 70, "duration": 6, "velocity": 110}, {"time": 1617, "pitch": 72, "duration": 6, "velocity": 108}, {"time": 1623, "pitch": 73, "duration": 24, "velocity": 113}, {"time": 1647, "pitch": 70, "duration": 6, "velocity": 110}, {"time": 1653, "pitch": 72, "duration": 6, "velocity": 102}, {"time": 1659, "pitch": 73, "duration": 6, "velocity": 108}, {"time": 1665, "pitch": 75, "duration": 6, "velocity": 110}, {"time": 1671, "pitch": 75, "duration": 24, "velocity": 113}, {"time": 1695, "pitch": 77, "duration": 12, "velocity": 110}, {"time": 1707, "pitch": 68, "duration": 6, "velocity": 114}, {"time": 1713, "pitch": 68, "duration": 6, "velocity": 108}, {"time": 1719, "pitch": 75, "duration": 12, "velocity": 116}, {"time": 1731, "pitch": 68, "duration": 12, "velocity": 107}, {"time": 1743, "pitch": 73, "duration": 12, "velocity": 102}, {"time": 1755, "pitch": 73, "duration": 6, "velocity": 114}, {"time": 1761, "pitch": 75, "duration": 6, "velocity": 107}, {"time": 1767, "pitch": 77, "duration": 12, "velocity": 113}, {"time": 1779, "pitch": 68, "duration": 36, "velocity": 113}, {"time": 1815, "pitch": 66, "duration": 6, "velocity": 104}, {"time": 1821, "pitch": 68, "duration": 6, "velocity": 94}, {"time": 1827, "pitch": 70, "duration": 7, "velocity": 107}, {"time": 1833, "pitch": 72, "duration": 6, "velocity": 107}, {"time": 1839, "pitch": 73, "duration": 24, "velocity": 113}, {"time": 1863, "pitch": 70, "duration": 12, "velocity": 114}, {"time": 1875, "pitch": 72, "duration": 12, "velocity": 116}, {"time": 1887, "pitch": 73, "duration": 12, "velocity": 116}, {"time": 1899, "pitch": 75, "duration": 12, "velocity": 117}, {"time": 1911, "pitch": 73, "duration": 16, "velocity": 117}, {"time": 2007, "pitch": 80, "duration": 12, "velocity": 116}, {"time": 2019, "pitch": 71, "duration": 12, "velocity": 116}, {"time": 2031, "pitch": 73, "duration": 6, "velocity": 114}, {"time": 2037, "pitch": 76, "duration": 6, "velocity": 108}, {"time": 2043, "pitch": 76, "duration": 12, "velocity": 110}, {"time": 2055, "pitch": 80, "duration": 6, "velocity": 116}, {"time": 2061, "pitch": 80, "duration": 6, "velocity": 113}, {"time": 2067, "pitch": 80, "duration": 6, "velocity": 116}, {"time": 2073, "pitch": 80, "duration": 6, "velocity": 113}, {"time": 2079, "pitch": 78, "duration": 6, "velocity": 96}, {"time": 2085, "pitch": 76, "duration": 6, "velocity": 107}, {"time": 2091, "pitch": 76, "duration": 12, "velocity": 110}, {"time": 2103, "pitch": 71, "duration": 12, "velocity": 98}, {"time": 2115, "pitch": 68, "duration": 6, "velocity": 113}, {"time": 2121, "pitch": 71, "duration": 6, "velocity": 108}, {"time": 2127, "pitch": 73, "duration": 6, "velocity": 107}, {"time": 2133, "pitch": 76, "duration": 6, "velocity": 108}, {"time": 2139, "pitch": 76, "duration": 12, "velocity": 110}, {"time": 2151, "pitch": 73, "duration": 3, "velocity": 114}, {"time": 2154, "pitch": 73, "duration": 6, "velocity": 110}, {"time": 2160, "pitch": 76, "duration": 3, "velocity": 114}, {"time": 2163, "pitch": 73, "duration": 6, "velocity": 114}, {"time": 2169, "pitch": 71, "duration": 6, "velocity": 108}, {"time": 2175, "pitch": 83, "duration": 30, "velocity": 110}, {"time": 2205, "pitch": 80, "duration": 6, "velocity": 113}, {"time": 2211, "pitch": 80, "duration": 6, "velocity": 114}, {"time": 2217, "pitch": 78, "duration": 6, "velocity": 108}, {"time": 2223, "pitch": 76, "duration": 6, "velocity": 114}, {"time": 2229, "pitch": 78, "duration": 6, "velocity": 108}, {"time": 2235, "pitch": 80, "duration": 6, "velocity": 114}, {"time": 2241, "pitch": 73, "duration": 6, "velocity": 110}, {"time": 2247, "pitch": 71, "duration": 15, "velocity": 114}, {"time": 2262, "pitch": 71, "duration": 3, "velocity": 88}, {"time": 2265, "pitch": 73, "duration": 3, "velocity": 91}, {"time": 2268, "pitch": 71, "duration": 3, "velocity": 87}, {"time": 2271, "pitch": 73, "duration": 6, "velocity": 104}, {"time": 2277, "pitch": 76, "duration": 6, "velocity": 108}, {"time": 2283, "pitch": 76, "duration": 6, "velocity": 114}, {"time": 2289, "pitch": 73, "duration": 6, "velocity": 113}, {"time": 2295, "pitch": 78, "duration": 24, "velocity": 114}, {"time": 2319, "pitch": 71, "duration": 6, "velocity": 116}, {"time": 2325, "pitch": 73, "duration": 6, "velocity": 113}, {"time": 2331, "pitch": 76, "duration": 6, "velocity": 114}, {"time": 2337, "pitch": 78, "duration": 6, "velocity": 110}, {"time": 2343, "pitch": 80, "duration": 6, "velocity": 116}, {"time": 2349, "pitch": 83, "duration": 6, "velocity": 108}, {"time": 2355, "pitch": 83, "duration": 6, "velocity": 108}, {"time": 2361, "pitch": 85, "duration": 6, "velocity": 96}, {"time": 2367, "pitch": 80, "duration": 6, "velocity": 104}, {"time": 2373, "pitch": 78, "duration": 30, "velocity": 107}, {"time": 2403, "pitch": 78, "duration": 6, "velocity": 117}, {"time": 2409, "pitch": 73, "duration": 6, "velocity": 113}, {"time": 2415, "pitch": 76, "duration": 54, "velocity": 116}, {"time": 2469, "pitch": 71, "duration": 6, "velocity": 119}, {"time": 2475, "pitch": 73, "duration": 6, "velocity": 113}, {"time": 2481, "pitch": 75, "duration": 5, "velocity": 114}, {"time": 2487, "pitch": 76, "duration": 6, "velocity": 113}, {"time": 2493, "pitch": 78, "duration": 6, "velocity": 113}, {"time": 2499, "pitch": 80, "duration": 6, "velocity": 113}, {"time": 2505, "pitch": 81, "duration": 6, "velocity": 116}, {"time": 2511, "pitch": 83, "duration": 54, "velocity": 116}, {"time": 2565, "pitch": 71, "duration": 6, "velocity": 119}, {"time": 2571, "pitch": 73, "duration": 7, "velocity": 113}, {"time": 2577, "pitch": 75, "duration": 6, "velocity": 108}, {"time": 2583, "pitch": 76, "duration": 6, "velocity": 106}, {"time": 2589, "pitch": 78, "duration": 7, "velocity": 114}, {"time": 2595, "pitch": 80, "duration": 6, "velocity": 116}, {"time": 2601, "pitch": 81, "duration": 6, "velocity": 113}, {"time": 2607, "pitch": 83, "duration": 30, "velocity": 119}, {"time": 2637, "pitch": 81, "duration": 6, "velocity": 119}, {"time": 2643, "pitch": 80, "duration": 6, "velocity": 116}, {"time": 2649, "pitch": 78, "duration": 6, "velocity": 117}, {"time": 2655, "pitch": 80, "duration": 12, "velocity": 113}, {"time": 2667, "pitch": 71, "duration": 6, "velocity": 113}, {"time": 2673, "pitch": 71, "duration": 6, "velocity": 110}, {"time": 2679, "pitch": 78, "duration": 12, "velocity": 116}, {"time": 2691, "pitch": 71, "duration": 12, "velocity": 114}, {"time": 2703, "pitch": 76, "duration": 12, "velocity": 108}, {"time": 2715, "pitch": 76, "duration": 6, "velocity": 108}, {"time": 2721, "pitch": 78, "duration": 6, "velocity": 107}, {"time": 2727, "pitch": 80, "duration": 12, "velocity": 113}, {"time": 2739, "pitch": 71, "duration": 12, "velocity": 104}, {"time": 2751, "pitch": 69, "duration": 6, "velocity": 108}, {"time": 2757, "pitch": 71, "duration": 6, "velocity": 94}, {"time": 2763, "pitch": 73, "duration": 6, "velocity": 110}, {"time": 2769, "pitch": 75, "duration": 6, "velocity": 108}, {"time": 2775, "pitch": 76, "duration": 24, "velocity": 113}, {"time": 2799, "pitch": 73, "duration": 6, "velocity": 110}, {"time": 2805, "pitch": 75, "duration": 6, "velocity": 102}, {"time": 2811, "pitch": 76, "duration": 6, "velocity": 108}, {"time": 2817, "pitch": 78, "duration": 6, "velocity": 110}, {"time": 2823, "pitch": 78, "duration": 24, "velocity": 113}, {"time": 2847, "pitch": 80, "duration": 12, "velocity": 110}, {"time": 2859, "pitch": 71, "duration": 6, "velocity": 114}, {"time": 2865, "pitch": 71, "duration": 6, "velocity": 108}, {"time": 2871, "pitch": 78, "duration": 12, "velocity": 116}, {"time": 2883, "pitch": 71, "duration": 12, "velocity": 107}, {"time": 2895, "pitch": 76, "duration": 12, "velocity": 102}, {"time": 2907, "pitch": 76, "duration": 6, "velocity": 114}, {"time": 2913, "pitch": 78, "duration": 6, "velocity": 107}, {"time": 2919, "pitch": 80, "duration": 12, "velocity": 113}, {"time": 2931, "pitch": 71, "duration": 155, "velocity": 113}, {"time": 3086, "pitch": 69, "duration": 6, "velocity": 104}, {"time": 3092, "pitch": 71, "duration": 6, "velocity": 94}, {"time": 3098, "pitch": 73, "duration": 7, "velocity": 107}, {"time": 3104, "pitch": 75, "duration": 6, "velocity": 107}, {"time": 3110, "pitch": 76, "duration": 24, "velocity": 113}, {"time": 3134, "pitch": 73, "duration": 13, "velocity": 114}, {"time": 3147, "pitch": 75, "duration": 13, "velocity": 116}, {"time": 3160, "pitch": 76, "duration": 13, "velocity": 116}, {"time": 3173, "pitch": 78, "duration": 19, "velocity": 117}, {"time": 3192, "pitch": 76, "duration": 24, "velocity": 117}]}, {"program": 0, "is_drum": false, "name": "BRIDGE", "notes": [{"time": 9, "pitch": 73, "duration": 3, "velocity": 98}, {"time": 12, "pitch": 75, "duration": 3, "velocity": 91}, {"time": 15, "pitch": 77, "duration": 36, "velocity": 108}, {"time": 51, "pitch": 75, "duration": 6, "velocity": 88}, {"time": 57, "pitch": 73, "duration": 6, "velocity": 88}, {"time": 63, "pitch": 78, "duration": 36, "velocity": 80}, {"time": 99, "pitch": 80, "duration": 6, "velocity": 96}, {"time": 105, "pitch": 78, "duration": 6, "velocity": 100}, {"time": 111, "pitch": 77, "duration": 36, "velocity": 91}, {"time": 147, "pitch": 75, "duration": 6, "velocity": 98}, {"time": 153, "pitch": 73, "duration": 6, "velocity": 88}, {"time": 159, "pitch": 78, "duration": 24, "velocity": 102}, {"time": 183, "pitch": 80, "duration": 12, "velocity": 100}, {"time": 195, "pitch": 70, "duration": 6, "velocity": 93}, {"time": 195, "pitch": 78, "duration": 13, "velocity": 98}, {"time": 201, "pitch": 72, "duration": 6, "velocity": 94}, {"time": 207, "pitch": 73, "duration": 12, "velocity": 90}, {"time": 207, "pitch": 77, "duration": 12, "velocity": 94}, {"time": 219, "pitch": 73, "duration": 12, "velocity": 88}, {"time": 231, "pitch": 73, "duration": 12, "velocity": 89}, {"time": 243, "pitch": 73, "duration": 6, "velocity": 94}, {"time": 249, "pitch": 73, "duration": 6, "velocity": 89}, {"time": 255, "pitch": 73, "duration": 12, "velocity": 92}, {"time": 267, "pitch": 73, "duration": 12, "velocity": 91}, {"time": 279, "pitch": 73, "duration": 12, "velocity": 92}, {"time": 291, "pitch": 70, "duration": 6, "velocity": 94}, {"time": 297, "pitch": 72, "duration": 6, "velocity": 93}, {"time": 303, "pitch": 73, "duration": 12, "velocity": 100}, {"time": 315, "pitch": 73, "duration": 12, "velocity": 94}, {"time": 327, "pitch": 73, "duration": 12, "velocity": 92}, {"time": 339, "pitch": 73, "duration": 6, "velocity": 92}, {"time": 345, "pitch": 73, "duration": 6, "velocity": 90}, {"time": 351, "pitch": 66, "duration": 6, "velocity": 104}, {"time": 351, "pitch": 73, "duration": 6, "velocity": 93}, {"time": 357, "pitch": 68, "duration": 6, "velocity": 110}, {"time": 363, "pitch": 70, "duration": 6, "velocity": 108}, {"time": 369, "pitch": 72, "duration": 6, "velocity": 107}, {"time": 375, "pitch": 73, "duration": 7, "velocity": 108}, {"time": 381, "pitch": 75, "duration": 6, "velocity": 104}, {"time": 387, "pitch": 77, "duration": 6, "velocity": 107}, {"time": 393, "pitch": 78, "duration": 6, "velocity": 91}, {"time": 399, "pitch": 77, "duration": 12, "velocity": 102}, {"time": 615, "pitch": 70, "duration": 6, "velocity": 98}, {"time": 621, "pitch": 72, "duration": 6, "velocity": 96}, {"time": 627, "pitch": 73, "duration": 6, "velocity": 91}, {"time": 633, "pitch": 75, "duration": 6, "velocity": 93}, {"time": 639, "pitch": 77, "duration": 13, "velocity": 94}, {"time": 663, "pitch": 68, "duration": 5, "velocity": 94}, {"time": 669, "pitch": 70, "duration": 6, "velocity": 91}, {"time": 675, "pitch": 72, "duration": 6, "velocity": 88}, {"time": 681, "pitch": 73, "duration": 7, "velocity": 87}, {"time": 687, "pitch": 75, "duration": 10, "velocity": 98}, {"time": 807, "pitch": 73, "duration": 12, "velocity": 98}, {"time": 819, "pitch": 73, "duration": 12, "velocity": 90}, {"time": 831, "pitch": 73, "duration": 12, "velocity": 87}, {"time": 843, "pitch": 73, "duration": 6, "velocity": 88}, {"time": 849, "pitch": 73, "duration": 6, "velocity": 87}, {"time": 855, "pitch": 73, "duration": 12, "velocity": 88}, {"time": 867, "pitch": 73, "duration": 12, "velocity": 89}, {"time": 879, "pitch": 73, "duration": 6, "velocity": 88}, {"time": 885, "pitch": 73, "duration": 6, "velocity": 88}, {"time": 891, "pitch": 73, "duration": 6, "velocity": 88}, {"time": 897, "pitch": 73, "duration": 6, "velocity": 87}, {"time": 903, "pitch": 73, "duration": 12, "velocity": 88}, {"time": 915, "pitch": 73, "duration": 12, "velocity": 87}, {"time": 927, "pitch": 73, "duration": 12, "velocity": 86}, {"time": 939, "pitch": 73, "duration": 12, "velocity": 86}, {"time": 951, "pitch": 66, "duration": 3, "velocity": 88}, {"time": 954, "pitch": 68, "duration": 3, "velocity": 87}, {"time": 957, "pitch": 70, "duration": 3, "velocity": 81}, {"time": 960, "pitch": 72, "duration": 4, "velocity": 88}, {"time": 963, "pitch": 73, "duration": 3, "velocity": 86}, {"time": 966, "pitch": 75, "duration": 3, "velocity": 86}, {"time": 969, "pitch": 77, "duration": 4, "velocity": 76}, {"time": 972, "pitch": 78, "duration": 3, "velocity": 88}, {"time": 975, "pitch": 68, "duration": 3, "velocity": 93}, {"time": 978, "pitch": 70, "duration": 4, "velocity": 88}, {"time": 981, "pitch": 72, "duration": 3, "velocity": 84}, {"time": 984, "pitch": 73, "duration": 3, "velocity": 86}, {"time": 987, "pitch": 75, "duration": 3, "velocity": 86}, {"time": 990, "pitch": 77, "duration": 3, "velocity": 83}, {"time": 993, "pitch": 78, "duration": 3, "velocity": 78}, {"time": 996, "pitch": 80, "duration": 3, "velocity": 77}, {"time": 999, "pitch": 77, "duration": 24, "velocity": 75}, {"time": 1599, "pitch": 85, "duration": 5, "velocity": 110}, {"time": 1605, "pitch": 84, "duration": 5, "velocity": 104}, {"time": 1611, "pitch": 82, "duration": 5, "velocity": 110}, {"time": 1617, "pitch": 80, "duration": 6, "velocity": 92}, {"time": 1623, "pitch": 78, "duration": 5, "velocity": 108}, {"time": 1629, "pitch": 77, "duration": 5, "velocity": 110}, {"time": 1635, "pitch": 75, "duration": 5, "velocity": 110}, {"time": 1641, "pitch": 73, "duration": 5, "velocity": 107}, {"time": 1647, "pitch": 70, "duration": 6, "velocity": 113}, {"time": 1653, "pitch": 72, "duration": 7, "velocity": 110}, {"time": 1659, "pitch": 73, "duration": 5, "velocity": 107}, {"time": 1665, "pitch": 75, "duration": 5, "velocity": 107}, {"time": 1671, "pitch": 75, "duration": 7, "velocity": 108}, {"time": 1910, "pitch": 78, "duration": 6, "velocity": 116}, {"time": 1916, "pitch": 75, "duration": 3, "velocity": 110}, {"time": 1919, "pitch": 76, "duration": 3, "velocity": 103}, {"time": 1922, "pitch": 78, "duration": 6, "velocity": 117}, {"time": 1928, "pitch": 76, "duration": 6, "velocity": 113}, {"time": 1934, "pitch": 75, "duration": 6, "velocity": 114}, {"time": 1940, "pitch": 75, "duration": 6, "velocity": 113}, {"time": 1946, "pitch": 73, "duration": 12, "velocity": 114}, {"time": 1958, "pitch": 71, "duration": 6, "velocity": 119}, {"time": 1964, "pitch": 76, "duration": 6, "velocity": 123}, {"time": 1970, "pitch": 76, "duration": 6, "velocity": 123}, {"time": 1976, "pitch": 76, "duration": 3, "velocity": 95}, {"time": 1979, "pitch": 76, "duration": 3, "velocity": 103}, {"time": 1982, "pitch": 78, "duration": 6, "velocity": 116}, {"time": 1988, "pitch": 80, "duration": 4, "velocity": 113}, {"time": 1991, "pitch": 81, "duration": 3, "velocity": 106}, {"time": 1994, "pitch": 83, "duration": 6, "velocity": 119}, {"time": 2000, "pitch": 85, "duration": 3, "velocity": 116}, {"time": 2003, "pitch": 87, "duration": 3, "velocity": 102}, {"time": 2006, "pitch": 88, "duration": 25, "velocity": 123}, {"time": 2426, "pitch": 80, "duration": 4, "velocity": 114}, {"time": 2429, "pitch": 81, "duration": 2, "velocity": 103}, {"time": 2432, "pitch": 83, "duration": 7, "velocity": 116}, {"time": 2967, "pitch": 80, "duration": 12, "velocity": 116}, {"time": 2979, "pitch": 71, "duration": 12, "velocity": 107}, {"time": 2991, "pitch": 78, "duration": 12, "velocity": 117}, {"time": 3003, "pitch": 71, "duration": 12, "velocity": 110}, {"time": 3015, "pitch": 76, "duration": 11, "velocity": 110}, {"time": 3027, "pitch": 76, "duration": 6, "velocity": 113}, {"time": 3033, "pitch": 78, "duration": 6, "velocity": 107}, {"time": 3039, "pitch": 80, "duration": 12, "velocity": 113}, {"time": 3051, "pitch": 71, "duration": 30, "velocity": 87}]}, {"program": 0, "is_drum": false, "name": "PIANO", "notes": [{"time": 15, "pitch": 49, "duration": 6, "velocity": 90}, {"time": 21, "pitch": 56, "duration": 6, "velocity": 88}, {"time": 27, "pitch": 53, "duration": 7, "velocity": 89}, {"time": 33, "pitch": 56, "duration": 6, "velocity": 86}, {"time": 39, "pitch": 49, "duration": 6, "velocity": 81}, {"time": 45, "pitch": 56, "duration": 6, "velocity": 87}, {"time": 51, "pitch": 53, "duration": 6, "velocity": 83}, {"time": 57, "pitch": 56, "duration": 6, "velocity": 86}, {"time": 63, "pitch": 49, "duration": 6, "velocity": 84}, {"time": 69, "pitch": 56, "duration": 6, "velocity": 86}, {"time": 75, "pitch": 54, "duration": 6, "velocity": 86}, {"time": 81, "pitch": 56, "duration": 6, "velocity": 87}, {"time": 87, "pitch": 49, "duration": 6, "velocity": 81}, {"time": 93, "pitch": 56, "duration": 6, "velocity": 88}, {"time": 99, "pitch": 54, "duration": 6, "velocity": 84}, {"time": 105, "pitch": 56, "duration": 6, "velocity": 84}, {"time": 111, "pitch": 49, "duration": 6, "velocity": 83}, {"time": 117, "pitch": 56, "duration": 6, "velocity": 85}, {"time": 123, "pitch": 53, "duration": 6, "velocity": 86}, {"time": 129, "pitch": 56, "duration": 6, "velocity": 85}, {"time": 135, "pitch": 49, "duration": 6, "velocity": 87}, {"time": 141, "pitch": 56, "duration": 6, "velocity": 86}, {"time": 147, "pitch": 53, "duration": 6, "velocity": 83}, {"time": 153, "pitch": 56, "duration": 7, "velocity": 84}, {"time": 159, "pitch": 49, "duration": 6, "velocity": 81}, {"time": 165, "pitch": 56, "duration": 6, "velocity": 84}, {"time": 171, "pitch": 54, "duration": 6, "velocity": 83}, {"time": 177, "pitch": 56, "duration": 6, "velocity": 87}, {"time": 183, "pitch": 49, "duration": 6, "velocity": 83}, {"time": 189, "pitch": 56, "duration": 6, "velocity": 82}, {"time": 195, "pitch": 54, "duration": 6, "velocity": 82}, {"time": 201, "pitch": 56, "duration": 6, "velocity": 87}, {"time": 207, "pitch": 49, "duration": 6, "velocity": 84}, {"time": 213, "pitch": 56, "duration": 6, "velocity": 85}, {"time": 219, "pitch": 53, "duration": 6, "velocity": 81}, {"time": 225, "pitch": 56, "duration": 6, "velocity": 84}, {"time": 231, "pitch": 49, "duration": 6, "velocity": 82}, {"time": 237, "pitch": 56, "duration": 6, "velocity": 82}, {"time": 243, "pitch": 53, "duration": 6, "velocity": 83}, {"time": 249, "pitch": 56, "duration": 6, "velocity": 85}, {"time": 255, "pitch": 49, "duration": 6, "velocity": 85}, {"time": 261, "pitch": 56, "duration": 6, "velocity": 86}, {"time": 267, "pitch": 54, "duration": 6, "velocity": 85}, {"time": 273, "pitch": 56, "duration": 6, "velocity": 86}, {"time": 279, "pitch": 49, "duration": 6, "velocity": 82}, {"time": 285, "pitch": 56, "duration": 6, "velocity": 86}, {"time": 291, "pitch": 54, "duration": 6, "velocity": 83}, {"time": 297, "pitch": 56, "duration": 6, "velocity": 87}, {"time": 303, "pitch": 49, "duration": 6, "velocity": 83}, {"time": 309, "pitch": 56, "duration": 6, "velocity": 83}, {"time": 315, "pitch": 53, "duration": 6, "velocity": 80}, {"time": 321, "pitch": 56, "duration": 6, "velocity": 83}, {"time": 327, "pitch": 49, "duration": 6, "velocity": 81}, {"time": 333, "pitch": 56, "duration": 6, "velocity": 86}, {"time": 339, "pitch": 53, "duration": 6, "velocity": 82}, {"time": 345, "pitch": 56, "duration": 6, "velocity": 82}, {"time": 351, "pitch": 49, "duration": 6, "velocity": 86}, {"time": 357, "pitch": 56, "duration": 6, "velocity": 84}, {"time": 363, "pitch": 54, "duration": 6, "velocity": 81}, {"time": 369, "pitch": 56, "duration": 6, "velocity": 85}, {"time": 375, "pitch": 49, "duration": 6, "velocity": 86}, {"time": 381, "pitch": 56, "duration": 6, "velocity": 86}, {"time": 387, "pitch": 54, "duration": 6, "velocity": 83}, {"time": 393, "pitch": 56, "duration": 17, "velocity": 85}, {"time": 399, "pitch": 49, "duration": 18, "velocity": 89}, {"time": 405, "pitch": 56, "duration": 5, "velocity": 79}, {"time": 411, "pitch": 65, "duration": 12, "velocity": 87}, {"time": 411, "pitch": 68, "duration": 11, "velocity": 86}, {"time": 423, "pitch": 54, "duration": 24, "velocity": 86}, {"time": 429, "pitch": 61, "duration": 19, "velocity": 82}, {"time": 435, "pitch": 66, "duration": 12, "velocity": 85}, {"time": 435, "pitch": 70, "duration": 12, "velocity": 86}, {"time": 447, "pitch": 49, "duration": 18, "velocity": 82}, {"time": 453, "pitch": 56, "duration": 12, "velocity": 75}, {"time": 459, "pitch": 61, "duration": 11, "velocity": 78}, {"time": 459, "pitch": 65, "duration": 13, "velocity": 81}, {"time": 459, "pitch": 68, "duration": 13, "velocity": 86}, {"time": 471, "pitch": 54, "duration": 16, "velocity": 87}, {"time": 477, "pitch": 61, "duration": 15, "velocity": 84}, {"time": 483, "pitch": 66, "duration": 9, "velocity": 85}, {"time": 483, "pitch": 70, "duration": 9, "velocity": 87}, {"time": 495, "pitch": 53, "duration": 24, "velocity": 87}, {"time": 501, "pitch": 60, "duration": 17, "velocity": 70}, {"time": 507, "pitch": 65, "duration": 11, "velocity": 82}, {"time": 507, "pitch": 68, "duration": 11, "velocity": 86}, {"time": 519, "pitch": 46, "duration": 19, "velocity": 81}, {"time": 525, "pitch": 61, "duration": 16, "velocity": 81}, {"time": 531, "pitch": 65, "duration": 10, "velocity": 86}, {"time": 531, "pitch": 70, "duration": 10, "velocity": 86}, {"time": 543, "pitch": 42, "duration": 18, "velocity": 86}, {"time": 549, "pitch": 58, "duration": 15, "velocity": 77}, {"time": 555, "pitch": 61, "duration": 11, "velocity": 85}, {"time": 555, "pitch": 66, "duration": 11, "velocity": 86}, {"time": 567, "pitch": 44, "duration": 16, "velocity": 87}, {"time": 573, "pitch": 51, "duration": 15, "velocity": 81}, {"time": 579, "pitch": 63, "duration": 21, "velocity": 88}, {"time": 579, "pitch": 68, "duration": 19, "velocity": 90}, {"time": 591, "pitch": 44, "duration": 15, "velocity": 87}, {"time": 615, "pitch": 46, "duration": 17, "velocity": 89}, {"time": 621, "pitch": 53, "duration": 11, "velocity": 76}, {"time": 627, "pitch": 68, "duration": 11, "velocity": 91}, {"time": 639, "pitch": 53, "duration": 21, "velocity": 84}, {"time": 645, "pitch": 60, "duration": 17, "velocity": 74}, {"time": 651, "pitch": 65, "duration": 10, "velocity": 78}, {"time": 651, "pitch": 68, "duration": 10, "velocity": 78}, {"time": 663, "pitch": 54, "duration": 23, "velocity": 94}, {"time": 669, "pitch": 58, "duration": 10, "velocity": 84}, {"time": 675, "pitch": 61, "duration": 12, "velocity": 87}, {"time": 675, "pitch": 66, "duration": 11, "velocity": 88}, {"time": 681, "pitch": 58, "duration": 5, "velocity": 85}, {"time": 687, "pitch": 68, "duration": 14, "velocity": 91}, {"time": 687, "pitch": 72, "duration": 14, "velocity": 93}, {"time": 687, "pitch": 75, "duration": 14, "velocity": 91}, {"time": 687, "pitch": 56, "duration": 14, "velocity": 88}, {"time": 708, "pitch": 68, "duration": 8, "velocity": 69}, {"time": 711, "pitch": 44, "duration": 43, "velocity": 86}, {"time": 711, "pitch": 72, "duration": 4, "velocity": 44}, {"time": 711, "pitch": 75, "duration": 4, "velocity": 88}, {"time": 717, "pitch": 51, "duration": 36, "velocity": 44}, {"time": 723, "pitch": 56, "duration": 13, "velocity": 84}, {"time": 729, "pitch": 60, "duration": 16, "velocity": 77}, {"time": 735, "pitch": 68, "duration": 8, "velocity": 89}, {"time": 741, "pitch": 56, "duration": 12, "velocity": 83}, {"time": 747, "pitch": 63, "duration": 17, "velocity": 91}, {"time": 753, "pitch": 68, "duration": 12, "velocity": 86}, {"time": 759, "pitch": 44, "duration": 37, "velocity": 92}, {"time": 765, "pitch": 51, "duration": 32, "velocity": 84}, {"time": 771, "pitch": 56, "duration": 13, "velocity": 83}, {"time": 777, "pitch": 58, "duration": 7, "velocity": 82}, {"time": 783, "pitch": 63, "duration": 7, "velocity": 96}, {"time": 789, "pitch": 56, "duration": 13, "velocity": 84}, {"time": 795, "pitch": 60, "duration": 6, "velocity": 87}, {"time": 801, "pitch": 68, "duration": 4, "velocity": 84}, {"time": 807, "pitch": 49, "duration": 6, "velocity": 89}, {"time": 813, "pitch": 56, "duration": 6, "velocity": 85}, {"time": 819, "pitch": 53, "duration": 6, "velocity": 84}, {"time": 825, "pitch": 56, "duration": 6, "velocity": 87}, {"time": 831, "pitch": 49, "duration": 6, "velocity": 84}, {"time": 837, "pitch": 56, "duration": 5, "velocity": 84}, {"time": 843, "pitch": 53, "duration": 4, "velocity": 87}, {"time": 849, "pitch": 56, "duration": 3, "velocity": 84}, {"time": 855, "pitch": 49, "duration": 6, "velocity": 83}, {"time": 861, "pitch": 56, "duration": 6, "velocity": 85}, {"time": 867, "pitch": 54, "duration": 7, "velocity": 83}, {"time": 873, "pitch": 56, "duration": 6, "velocity": 85}, {"time": 879, "pitch": 49, "duration": 6, "velocity": 83}, {"time": 885, "pitch": 56, "duration": 5, "velocity": 85}, {"time": 891, "pitch": 54, "duration": 7, "velocity": 82}, {"time": 897, "pitch": 56, "duration": 5, "velocity": 85}, {"time": 903, "pitch": 49, "duration": 6, "velocity": 86}, {"time": 909, "pitch": 56, "duration": 5, "velocity": 84}, {"time": 915, "pitch": 53, "duration": 6, "velocity": 85}, {"time": 921, "pitch": 56, "duration": 5, "velocity": 81}, {"time": 927, "pitch": 49, "duration": 6, "velocity": 78}, {"time": 933, "pitch": 56, "duration": 6, "velocity": 82}, {"time": 939, "pitch": 53, "duration": 5, "velocity": 74}, {"time": 945, "pitch": 56, "duration": 3, "velocity": 78}, {"time": 951, "pitch": 49, "duration": 6, "velocity": 79}, {"time": 957, "pitch": 56, "duration": 6, "velocity": 80}, {"time": 963, "pitch": 54, "duration": 3, "velocity": 76}, {"time": 969, "pitch": 56, "duration": 6, "velocity": 83}, {"time": 975, "pitch": 49, "duration": 5, "velocity": 74}, {"time": 981, "pitch": 56, "duration": 5, "velocity": 82}, {"time": 987, "pitch": 54, "duration": 5, "velocity": 73}, {"time": 993, "pitch": 56, "duration": 6, "velocity": 83}, {"time": 999, "pitch": 49, "duration": 19, "velocity": 88}, {"time": 1005, "pitch": 56, "duration": 13, "velocity": 81}, {"time": 1011, "pitch": 63, "duration": 8, "velocity": 89}, {"time": 1011, "pitch": 68, "duration": 12, "velocity": 86}, {"time": 1017, "pitch": 65, "duration": 7, "velocity": 83}, {"time": 1023, "pitch": 54, "duration": 24, "velocity": 86}, {"time": 1029, "pitch": 61, "duration": 8, "velocity": 82}, {"time": 1035, "pitch": 66, "duration": 16, "velocity": 92}, {"time": 1035, "pitch": 70, "duration": 13, "velocity": 91}, {"time": 1041, "pitch": 61, "duration": 8, "velocity": 84}, {"time": 1047, "pitch": 49, "duration": 18, "velocity": 87}, {"time": 1053, "pitch": 56, "duration": 13, "velocity": 86}, {"time": 1059, "pitch": 65, "duration": 15, "velocity": 91}, {"time": 1059, "pitch": 68, "duration": 5, "velocity": 96}, {"time": 1065, "pitch": 61, "duration": 8, "velocity": 86}, {"time": 1071, "pitch": 54, "duration": 19, "velocity": 86}, {"time": 1077, "pitch": 61, "duration": 6, "velocity": 84}, {"time": 1083, "pitch": 66, "duration": 10, "velocity": 91}, {"time": 1083, "pitch": 70, "duration": 8, "velocity": 90}, {"time": 1089, "pitch": 61, "duration": 4, "velocity": 87}, {"time": 1095, "pitch": 53, "duration": 23, "velocity": 88}, {"time": 1101, "pitch": 60, "duration": 6, "velocity": 89}, {"time": 1107, "pitch": 65, "duration": 12, "velocity": 98}, {"time": 1107, "pitch": 68, "duration": 6, "velocity": 93}, {"time": 1113, "pitch": 60, "duration": 6, "velocity": 88}, {"time": 1119, "pitch": 46, "duration": 18, "velocity": 89}, {"time": 1125, "pitch": 53, "duration": 12, "velocity": 81}, {"time": 1131, "pitch": 58, "duration": 7, "velocity": 89}, {"time": 1137, "pitch": 61, "duration": 6, "velocity": 91}, {"time": 1143, "pitch": 54, "duration": 17, "velocity": 86}, {"time": 1149, "pitch": 61, "duration": 11, "velocity": 84}, {"time": 1155, "pitch": 66, "duration": 11, "velocity": 102}, {"time": 1167, "pitch": 44, "duration": 41, "velocity": 90}, {"time": 1173, "pitch": 51, "duration": 36, "velocity": 70}, {"time": 1179, "pitch": 56, "duration": 14, "velocity": 87}, {"time": 1185, "pitch": 60, "duration": 8, "velocity": 82}, {"time": 1191, "pitch": 68, "duration": 11, "velocity": 88}, {"time": 1197, "pitch": 56, "duration": 14, "velocity": 81}, {"time": 1203, "pitch": 60, "duration": 9, "velocity": 84}, {"time": 1209, "pitch": 63, "duration": 5, "velocity": 87}, {"time": 1215, "pitch": 49, "duration": 18, "velocity": 87}, {"time": 1221, "pitch": 56, "duration": 12, "velocity": 71}, {"time": 1227, "pitch": 61, "duration": 5, "velocity": 86}, {"time": 1233, "pitch": 65, "duration": 7, "velocity": 87}, {"time": 1239, "pitch": 44, "duration": 17, "velocity": 85}, {"time": 1245, "pitch": 51, "duration": 17, "velocity": 76}, {"time": 1251, "pitch": 56, "duration": 12, "velocity": 84}, {"time": 1257, "pitch": 60, "duration": 7, "velocity": 81}, {"time": 1263, "pitch": 42, "duration": 16, "velocity": 89}, {"time": 1263, "pitch": 58, "duration": 13, "velocity": 88}, {"time": 1263, "pitch": 66, "duration": 6, "velocity": 91}, {"time": 1269, "pitch": 54, "duration": 10, "velocity": 80}, {"time": 1275, "pitch": 61, "duration": 6, "velocity": 104}, {"time": 1281, "pitch": 58, "duration": 5, "velocity": 94}, {"time": 1287, "pitch": 43, "duration": 13, "velocity": 87}, {"time": 1287, "pitch": 55, "duration": 13, "velocity": 89}, {"time": 1287, "pitch": 58, "duration": 13, "velocity": 88}, {"time": 1287, "pitch": 63, "duration": 14, "velocity": 98}, {"time": 1287, "pitch": 67, "duration": 14, "velocity": 87}, {"time": 1311, "pitch": 44, "duration": 42, "velocity": 92}, {"time": 1311, "pitch": 60, "duration": 14, "velocity": 92}, {"time": 1311, "pitch": 68, "duration": 11, "velocity": 91}, {"time": 1317, "pitch": 51, "duration": 31, "velocity": 81}, {"time": 1323, "pitch": 56, "duration": 14, "velocity": 88}, {"time": 1329, "pitch": 58, "duration": 7, "velocity": 86}, {"time": 1329, "pitch": 63, "duration": 11, "velocity": 82}, {"time": 1335, "pitch": 60, "duration": 5, "velocity": 88}, {"time": 1341, "pitch": 56, "duration": 13, "velocity": 87}, {"time": 1347, "pitch": 60, "duration": 7, "velocity": 87}, {"time": 1347, "pitch": 68, "duration": 6, "velocity": 89}, {"time": 1353, "pitch": 51, "duration": 3, "velocity": 83}, {"time": 1359, "pitch": 44, "duration": 41, "velocity": 93}, {"time": 1359, "pitch": 60, "duration": 15, "velocity": 94}, {"time": 1359, "pitch": 63, "duration": 5, "velocity": 102}, {"time": 1359, "pitch": 68, "duration": 7, "velocity": 93}, {"time": 1365, "pitch": 51, "duration": 21, "velocity": 73}, {"time": 1371, "pitch": 56, "duration": 13, "velocity": 83}, {"time": 1377, "pitch": 58, "duration": 5, "velocity": 90}, {"time": 1377, "pitch": 63, "duration": 4, "velocity": 96}, {"time": 1383, "pitch": 60, "duration": 5, "velocity": 104}, {"time": 1383, "pitch": 63, "duration": 6, "velocity": 94}, {"time": 1389, "pitch": 51, "duration": 12, "velocity": 66}, {"time": 1389, "pitch": 56, "duration": 7, "velocity": 100}, {"time": 1395, "pitch": 60, "duration": 5, "velocity": 108}, {"time": 1395, "pitch": 63, "duration": 10, "velocity": 107}, {"time": 1395, "pitch": 68, "duration": 6, "velocity": 100}, {"time": 1401, "pitch": 56, "duration": 5, "velocity": 81}, {"time": 1407, "pitch": 49, "duration": 15, "velocity": 91}, {"time": 1407, "pitch": 61, "duration": 16, "velocity": 107}, {"time": 1407, "pitch": 65, "duration": 16, "velocity": 104}, {"time": 1425, "pitch": 49, "duration": 25, "velocity": 89}, {"time": 1425, "pitch": 61, "duration": 29, "velocity": 100}, {"time": 1425, "pitch": 66, "duration": 19, "velocity": 102}, {"time": 1443, "pitch": 56, "duration": 7, "velocity": 76}, {"time": 1455, "pitch": 49, "duration": 41, "velocity": 86}, {"time": 1455, "pitch": 61, "duration": 17, "velocity": 91}, {"time": 1455, "pitch": 68, "duration": 14, "velocity": 94}, {"time": 1473, "pitch": 61, "duration": 13, "velocity": 94}, {"time": 1473, "pitch": 66, "duration": 12, "velocity": 94}, {"time": 1485, "pitch": 56, "duration": 7, "velocity": 81}, {"time": 1491, "pitch": 61, "duration": 10, "velocity": 104}, {"time": 1491, "pitch": 65, "duration": 11, "velocity": 107}, {"time": 1503, "pitch": 49, "duration": 19, "velocity": 87}, {"time": 1509, "pitch": 56, "duration": 12, "velocity": 72}, {"time": 1515, "pitch": 61, "duration": 6, "velocity": 83}, {"time": 1521, "pitch": 65, "duration": 6, "velocity": 82}, {"time": 1527, "pitch": 44, "duration": 19, "velocity": 87}, {"time": 1533, "pitch": 51, "duration": 17, "velocity": 68}, {"time": 1539, "pitch": 56, "duration": 11, "velocity": 80}, {"time": 1545, "pitch": 60, "duration": 8, "velocity": 85}, {"time": 1551, "pitch": 46, "duration": 18, "velocity": 84}, {"time": 1557, "pitch": 53, "duration": 12, "velocity": 82}, {"time": 1563, "pitch": 58, "duration": 10, "velocity": 84}, {"time": 1569, "pitch": 61, "duration": 6, "velocity": 86}, {"time": 1575, "pitch": 53, "duration": 16, "velocity": 83}, {"time": 1581, "pitch": 60, "duration": 9, "velocity": 81}, {"time": 1587, "pitch": 65, "duration": 12, "velocity": 86}, {"time": 1593, "pitch": 68, "duration": 5, "velocity": 87}, {"time": 1599, "pitch": 42, "duration": 18, "velocity": 87}, {"time": 1605, "pitch": 54, "duration": 13, "velocity": 80}, {"time": 1611, "pitch": 58, "duration": 7, "velocity": 84}, {"time": 1617, "pitch": 61, "duration": 6, "velocity": 86}, {"time": 1623, "pitch": 49, "duration": 19, "velocity": 88}, {"time": 1629, "pitch": 56, "duration": 12, "velocity": 69}, {"time": 1635, "pitch": 61, "duration": 5, "velocity": 84}, {"time": 1641, "pitch": 63, "duration": 13, "velocity": 88}, {"time": 1647, "pitch": 42, "duration": 18, "velocity": 86}, {"time": 1653, "pitch": 49, "duration": 11, "velocity": 80}, {"time": 1659, "pitch": 54, "duration": 6, "velocity": 87}, {"time": 1665, "pitch": 58, "duration": 9, "velocity": 86}, {"time": 1671, "pitch": 43, "duration": 18, "velocity": 86}, {"time": 1677, "pitch": 55, "duration": 13, "velocity": 86}, {"time": 1680, "pitch": 58, "duration": 3, "velocity": 87}, {"time": 1683, "pitch": 63, "duration": 6, "velocity": 113}, {"time": 1689, "pitch": 67, "duration": 5, "velocity": 113}, {"time": 1695, "pitch": 49, "duration": 20, "velocity": 91}, {"time": 1701, "pitch": 56, "duration": 7, "velocity": 83}, {"time": 1704, "pitch": 61, "duration": 14, "velocity": 92}, {"time": 1704, "pitch": 68, "duration": 13, "velocity": 94}, {"time": 1713, "pitch": 56, "duration": 1, "velocity": 87}, {"time": 1719, "pitch": 44, "duration": 18, "velocity": 88}, {"time": 1719, "pitch": 60, "duration": 7, "velocity": 87}, {"time": 1719, "pitch": 63, "duration": 7, "velocity": 92}, {"time": 1719, "pitch": 68, "duration": 7, "velocity": 89}, {"time": 1725, "pitch": 56, "duration": 7, "velocity": 81}, {"time": 1731, "pitch": 60, "duration": 6, "velocity": 89}, {"time": 1731, "pitch": 63, "duration": 10, "velocity": 100}, {"time": 1731, "pitch": 68, "duration": 6, "velocity": 91}, {"time": 1737, "pitch": 56, "duration": 5, "velocity": 84}, {"time": 1743, "pitch": 46, "duration": 19, "velocity": 86}, {"time": 1743, "pitch": 61, "duration": 9, "velocity": 88}, {"time": 1743, "pitch": 65, "duration": 9, "velocity": 94}, {"time": 1743, "pitch": 70, "duration": 9, "velocity": 91}, {"time": 1749, "pitch": 58, "duration": 6, "velocity": 81}, {"time": 1755, "pitch": 61, "duration": 7, "velocity": 88}, {"time": 1755, "pitch": 65, "duration": 7, "velocity": 89}, {"time": 1755, "pitch": 70, "duration": 6, "velocity": 89}, {"time": 1761, "pitch": 58, "duration": 1, "velocity": 84}, {"time": 1767, "pitch": 44, "duration": 49, "velocity": 87}, {"time": 1773, "pitch": 51, "duration": 42, "velocity": 74}, {"time": 1779, "pitch": 56, "duration": 36, "velocity": 76}, {"time": 1785, "pitch": 60, "duration": 30, "velocity": 77}, {"time": 1791, "pitch": 68, "duration": 24, "velocity": 80}, {"time": 1815, "pitch": 42, "duration": 16, "velocity": 92}, {"time": 1821, "pitch": 54, "duration": 12, "velocity": 84}, {"time": 1827, "pitch": 58, "duration": 8, "velocity": 92}, {"time": 1833, "pitch": 61, "duration": 7, "velocity": 92}, {"time": 1839, "pitch": 41, "duration": 14, "velocity": 87}, {"time": 1845, "pitch": 53, "duration": 10, "velocity": 80}, {"time": 1851, "pitch": 60, "duration": 7, "velocity": 86}, {"time": 1857, "pitch": 65, "duration": 7, "velocity": 87}, {"time": 1863, "pitch": 51, "duration": 17, "velocity": 87}, {"time": 1869, "pitch": 58, "duration": 11, "velocity": 78}, {"time": 1875, "pitch": 63, "duration": 26, "velocity": 84}, {"time": 1881, "pitch": 70, "duration": 13, "velocity": 88}, {"time": 1887, "pitch": 44, "duration": 17, "velocity": 87}, {"time": 1893, "pitch": 51, "duration": 11, "velocity": 85}, {"time": 1899, "pitch": 56, "duration": 11, "velocity": 88}, {"time": 1905, "pitch": 60, "duration": 3, "velocity": 87}, {"time": 1911, "pitch": 47, "duration": 42, "velocity": 93}, {"time": 1911, "pitch": 59, "duration": 12, "velocity": 98}, {"time": 1911, "pitch": 63, "duration": 13, "velocity": 100}, {"time": 1911, "pitch": 66, "duration": 11, "velocity": 100}, {"time": 1923, "pitch": 54, "duration": 8, "velocity": 78}, {"time": 1929, "pitch": 59, "duration": 16, "velocity": 91}, {"time": 1929, "pitch": 63, "duration": 16, "velocity": 95}, {"time": 1929, "pitch": 66, "duration": 12, "velocity": 96}, {"time": 1941, "pitch": 54, "duration": 11, "velocity": 80}, {"time": 1947, "pitch": 59, "duration": 5, "velocity": 88}, {"time": 1947, "pitch": 63, "duration": 5, "velocity": 89}, {"time": 1947, "pitch": 66, "duration": 5, "velocity": 92}, {"time": 1959, "pitch": 49, "duration": 26, "velocity": 86}, {"time": 1959, "pitch": 61, "duration": 17, "velocity": 90}, {"time": 1959, "pitch": 64, "duration": 17, "velocity": 107}, {"time": 1959, "pitch": 68, "duration": 17, "velocity": 93}, {"time": 1977, "pitch": 61, "duration": 14, "velocity": 93}, {"time": 1977, "pitch": 64, "duration": 14, "velocity": 110}, {"time": 1977, "pitch": 68, "duration": 13, "velocity": 90}, {"time": 1989, "pitch": 49, "duration": 8, "velocity": 89}, {"time": 1995, "pitch": 61, "duration": 6, "velocity": 100}, {"time": 1995, "pitch": 64, "duration": 6, "velocity": 110}, {"time": 1995, "pitch": 68, "duration": 6, "velocity": 100}, {"time": 2007, "pitch": 40, "duration": 10, "velocity": 93}, {"time": 2007, "pitch": 52, "duration": 10, "velocity": 98}, {"time": 2007, "pitch": 59, "duration": 15, "velocity": 98}, {"time": 2007, "pitch": 64, "duration": 15, "velocity": 114}, {"time": 2007, "pitch": 68, "duration": 14, "velocity": 103}, {"time": 2019, "pitch": 40, "duration": 7, "velocity": 87}, {"time": 2019, "pitch": 52, "duration": 7, "velocity": 93}, {"time": 2025, "pitch": 59, "duration": 6, "velocity": 96}, {"time": 2025, "pitch": 64, "duration": 6, "velocity": 110}, {"time": 2025, "pitch": 68, "duration": 7, "velocity": 100}, {"time": 2031, "pitch": 45, "duration": 18, "velocity": 102}, {"time": 2037, "pitch": 52, "duration": 12, "velocity": 86}, {"time": 2043, "pitch": 61, "duration": 6, "velocity": 108}, {"time": 2043, "pitch": 64, "duration": 6, "velocity": 116}, {"time": 2043, "pitch": 69, "duration": 6, "velocity": 104}, {"time": 2049, "pitch": 57, "duration": 1, "velocity": 93}, {"time": 2055, "pitch": 52, "duration": 13, "velocity": 94}, {"time": 2055, "pitch": 59, "duration": 9, "velocity": 98}, {"time": 2055, "pitch": 64, "duration": 9, "velocity": 116}, {"time": 2055, "pitch": 68, "duration": 8, "velocity": 113}, {"time": 2067, "pitch": 59, "duration": 7, "velocity": 107}, {"time": 2067, "pitch": 64, "duration": 9, "velocity": 116}, {"time": 2067, "pitch": 68, "duration": 9, "velocity": 113}, {"time": 2073, "pitch": 52, "duration": 5, "velocity": 94}, {"time": 2079, "pitch": 45, "duration": 14, "velocity": 87}, {"time": 2079, "pitch": 57, "duration": 14, "velocity": 87}, {"time": 2079, "pitch": 61, "duration": 8, "velocity": 102}, {"time": 2079, "pitch": 64, "duration": 8, "velocity": 117}, {"time": 2079, "pitch": 69, "duration": 7, "velocity": 110}, {"time": 2091, "pitch": 61, "duration": 6, "velocity": 104}, {"time": 2091, "pitch": 64, "duration": 6, "velocity": 116}, {"time": 2091, "pitch": 69, "duration": 6, "velocity": 107}, {"time": 2097, "pitch": 45, "duration": 1, "velocity": 83}, {"time": 2097, "pitch": 57, "duration": 3, "velocity": 91}, {"time": 2103, "pitch": 47, "duration": 13, "velocity": 92}, {"time": 2103, "pitch": 59, "duration": 8, "velocity": 100}, {"time": 2103, "pitch": 63, "duration": 8, "velocity": 106}, {"time": 2103, "pitch": 66, "duration": 8, "velocity": 94}, {"time": 2115, "pitch": 59, "duration": 6, "velocity": 108}, {"time": 2115, "pitch": 63, "duration": 9, "velocity": 116}, {"time": 2115, "pitch": 66, "duration": 6, "velocity": 110}, {"time": 2121, "pitch": 47, "duration": 3, "velocity": 91}, {"time": 2127, "pitch": 49, "duration": 14, "velocity": 91}, {"time": 2127, "pitch": 61, "duration": 10, "velocity": 98}, {"time": 2127, "pitch": 64, "duration": 9, "velocity": 114}, {"time": 2127, "pitch": 68, "duration": 9, "velocity": 106}, {"time": 2139, "pitch": 61, "duration": 6, "velocity": 107}, {"time": 2139, "pitch": 64, "duration": 6, "velocity": 117}, {"time": 2139, "pitch": 68, "duration": 6, "velocity": 100}, {"time": 2145, "pitch": 49, "duration": 5, "velocity": 87}, {"time": 2151, "pitch": 45, "duration": 14, "velocity": 89}, {"time": 2151, "pitch": 57, "duration": 14, "velocity": 89}, {"time": 2151, "pitch": 61, "duration": 8, "velocity": 108}, {"time": 2151, "pitch": 64, "duration": 8, "velocity": 116}, {"time": 2151, "pitch": 69, "duration": 7, "velocity": 107}, {"time": 2163, "pitch": 61, "duration": 6, "velocity": 108}, {"time": 2163, "pitch": 64, "duration": 5, "velocity": 117}, {"time": 2163, "pitch": 69, "duration": 9, "velocity": 102}, {"time": 2169, "pitch": 45, "duration": 2, "velocity": 92}, {"time": 2175, "pitch": 47, "duration": 21, "velocity": 92}, {"time": 2175, "pitch": 59, "duration": 9, "velocity": 102}, {"time": 2175, "pitch": 63, "duration": 10, "velocity": 106}, {"time": 2175, "pitch": 66, "duration": 9, "velocity": 102}, {"time": 2175, "pitch": 69, "duration": 9, "velocity": 94}, {"time": 2181, "pitch": 54, "duration": 12, "velocity": 89}, {"time": 2187, "pitch": 59, "duration": 4, "velocity": 114}, {"time": 2187, "pitch": 63, "duration": 5, "velocity": 113}, {"time": 2193, "pitch": 66, "duration": 9, "velocity": 100}, {"time": 2193, "pitch": 69, "duration": 7, "velocity": 98}, {"time": 2199, "pitch": 47, "duration": 18, "velocity": 107}, {"time": 2199, "pitch": 54, "duration": 9, "velocity": 98}, {"time": 2205, "pitch": 59, "duration": 3, "velocity": 107}, {"time": 2205, "pitch": 63, "duration": 1, "velocity": 100}, {"time": 2211, "pitch": 54, "duration": 4, "velocity": 110}, {"time": 2211, "pitch": 69, "duration": 7, "velocity": 116}, {"time": 2217, "pitch": 59, "duration": 3, "velocity": 108}, {"time": 2217, "pitch": 63, "duration": 2, "velocity": 93}, {"time": 2223, "pitch": 49, "duration": 13, "velocity": 91}, {"time": 2223, "pitch": 61, "duration": 9, "velocity": 98}, {"time": 2223, "pitch": 64, "duration": 8, "velocity": 110}, {"time": 2223, "pitch": 68, "duration": 9, "velocity": 97}, {"time": 2235, "pitch": 61, "duration": 4, "velocity": 96}, {"time": 2235, "pitch": 64, "duration": 4, "velocity": 110}, {"time": 2235, "pitch": 68, "duration": 6, "velocity": 95}, {"time": 2241, "pitch": 49, "duration": 6, "velocity": 88}, {"time": 2247, "pitch": 47, "duration": 13, "velocity": 86}, {"time": 2247, "pitch": 63, "duration": 9, "velocity": 86}, {"time": 2247, "pitch": 66, "duration": 9, "velocity": 96}, {"time": 2247, "pitch": 71, "duration": 8, "velocity": 92}, {"time": 2259, "pitch": 63, "duration": 5, "velocity": 95}, {"time": 2259, "pitch": 66, "duration": 5, "velocity": 104}, {"time": 2259, "pitch": 71, "duration": 5, "velocity": 96}, {"time": 2265, "pitch": 47, "duration": 6, "velocity": 75}, {"time": 2271, "pitch": 45, "duration": 13, "velocity": 87}, {"time": 2271, "pitch": 61, "duration": 9, "velocity": 100}, {"time": 2271, "pitch": 64, "duration": 9, "velocity": 110}, {"time": 2271, "pitch": 69, "duration": 8, "velocity": 96}, {"time": 2283, "pitch": 61, "duration": 6, "velocity": 100}, {"time": 2283, "pitch": 64, "duration": 6, "velocity": 110}, {"time": 2283, "pitch": 69, "duration": 6, "velocity": 91}, {"time": 2289, "pitch": 45, "duration": 4, "velocity": 91}, {"time": 2295, "pitch": 46, "duration": 23, "velocity": 86}, {"time": 2295, "pitch": 58, "duration": 23, "velocity": 89}, {"time": 2295, "pitch": 64, "duration": 23, "velocity": 107}, {"time": 2295, "pitch": 70, "duration": 23, "velocity": 109}, {"time": 2319, "pitch": 47, "duration": 42, "velocity": 94}, {"time": 2319, "pitch": 59, "duration": 7, "velocity": 91}, {"time": 2319, "pitch": 63, "duration": 7, "velocity": 97}, {"time": 2319, "pitch": 66, "duration": 7, "velocity": 93}, {"time": 2325, "pitch": 54, "duration": 8, "velocity": 76}, {"time": 2331, "pitch": 59, "duration": 5, "velocity": 91}, {"time": 2331, "pitch": 63, "duration": 5, "velocity": 103}, {"time": 2331, "pitch": 66, "duration": 5, "velocity": 100}, {"time": 2337, "pitch": 54, "duration": 24, "velocity": 72}, {"time": 2343, "pitch": 63, "duration": 6, "velocity": 88}, {"time": 2343, "pitch": 66, "duration": 7, "velocity": 98}, {"time": 2343, "pitch": 71, "duration": 6, "velocity": 100}, {"time": 2349, "pitch": 59, "duration": 7, "velocity": 77}, {"time": 2355, "pitch": 63, "duration": 7, "velocity": 88}, {"time": 2355, "pitch": 66, "duration": 7, "velocity": 98}, {"time": 2355, "pitch": 71, "duration": 6, "velocity": 96}, {"time": 2361, "pitch": 59, "duration": 6, "velocity": 82}, {"time": 2367, "pitch": 47, "duration": 27, "velocity": 88}, {"time": 2367, "pitch": 63, "duration": 6, "velocity": 90}, {"time": 2367, "pitch": 66, "duration": 5, "velocity": 94}, {"time": 2367, "pitch": 71, "duration": 5, "velocity": 94}, {"time": 2373, "pitch": 54, "duration": 24, "velocity": 81}, {"time": 2379, "pitch": 59, "duration": 18, "velocity": 87}, {"time": 2385, "pitch": 63, "duration": 21, "velocity": 106}, {"time": 2385, "pitch": 66, "duration": 22, "velocity": 108}, {"time": 2397, "pitch": 47, "duration": 12, "velocity": 84}, {"time": 2397, "pitch": 54, "duration": 9, "velocity": 86}, {"time": 2403, "pitch": 59, "duration": 8, "velocity": 98}, {"time": 2409, "pitch": 63, "duration": 1, "velocity": 95}, {"time": 2415, "pitch": 52, "duration": 44, "velocity": 88}, {"time": 2415, "pitch": 64, "duration": 6, "velocity": 89}, {"time": 2415, "pitch": 68, "duration": 6, "velocity": 103}, {"time": 2415, "pitch": 71, "duration": 6, "velocity": 89}, {"time": 2421, "pitch": 59, "duration": 7, "velocity": 76}, {"time": 2427, "pitch": 64, "duration": 4, "velocity": 91}, {"time": 2427, "pitch": 68, "duration": 5, "velocity": 103}, {"time": 2427, "pitch": 71, "duration": 5, "velocity": 93}, {"time": 2433, "pitch": 59, "duration": 29, "velocity": 84}, {"time": 2439, "pitch": 64, "duration": 18, "velocity": 88}, {"time": 2445, "pitch": 68, "duration": 4, "velocity": 85}, {"time": 2451, "pitch": 68, "duration": 15, "velocity": 76}, {"time": 2451, "pitch": 76, "duration": 15, "velocity": 96}, {"time": 2463, "pitch": 52, "duration": 42, "velocity": 84}, {"time": 2469, "pitch": 59, "duration": 35, "velocity": 68}, {"time": 2475, "pitch": 64, "duration": 13, "velocity": 82}, {"time": 2481, "pitch": 68, "duration": 15, "velocity": 97}, {"time": 2493, "pitch": 64, "duration": 10, "velocity": 79}, {"time": 2499, "pitch": 68, "duration": 5, "velocity": 88}, {"time": 2499, "pitch": 71, "duration": 5, "velocity": 93}, {"time": 2499, "pitch": 76, "duration": 5, "velocity": 89}, {"time": 2511, "pitch": 47, "duration": 6, "velocity": 100}, {"time": 2517, "pitch": 47, "duration": 6, "velocity": 100}, {"time": 2517, "pitch": 54, "duration": 30, "velocity": 82}, {"time": 2523, "pitch": 47, "duration": 6, "velocity": 100}, {"time": 2523, "pitch": 63, "duration": 7, "velocity": 95}, {"time": 2523, "pitch": 66, "duration": 8, "velocity": 102}, {"time": 2523, "pitch": 71, "duration": 6, "velocity": 102}, {"time": 2529, "pitch": 47, "duration": 6, "velocity": 100}, {"time": 2529, "pitch": 59, "duration": 7, "velocity": 86}, {"time": 2535, "pitch": 47, "duration": 6, "velocity": 100}, {"time": 2535, "pitch": 63, "duration": 6, "velocity": 97}, {"time": 2535, "pitch": 66, "duration": 6, "velocity": 104}, {"time": 2535, "pitch": 71, "duration": 6, "velocity": 104}, {"time": 2541, "pitch": 47, "duration": 6, "velocity": 100}, {"time": 2541, "pitch": 59, "duration": 12, "velocity": 87}, {"time": 2547, "pitch": 47, "duration": 6, "velocity": 100}, {"time": 2547, "pitch": 63, "duration": 7, "velocity": 100}, {"time": 2547, "pitch": 66, "duration": 7, "velocity": 107}, {"time": 2547, "pitch": 71, "duration": 6, "velocity": 107}, {"time": 2553, "pitch": 47, "duration": 6, "velocity": 100}, {"time": 2553, "pitch": 54, "duration": 5, "velocity": 81}, {"time": 2559, "pitch": 47, "duration": 6, "velocity": 100}, {"time": 2559, "pitch": 59, "duration": 16, "velocity": 98}, {"time": 2559, "pitch": 63, "duration": 8, "velocity": 97}, {"time": 2559, "pitch": 66, "duration": 8, "velocity": 114}, {"time": 2559, "pitch": 71, "duration": 7, "velocity": 116}, {"time": 2565, "pitch": 47, "duration": 6, "velocity": 100}, {"time": 2571, "pitch": 47, "duration": 6, "velocity": 100}, {"time": 2571, "pitch": 63, "duration": 8, "velocity": 90}, {"time": 2571, "pitch": 66, "duration": 8, "velocity": 107}, {"time": 2571, "pitch": 71, "duration": 7, "velocity": 108}, {"time": 2577, "pitch": 47, "duration": 6, "velocity": 100}, {"time": 2577, "pitch": 59, "duration": 13, "velocity": 88}, {"time": 2583, "pitch": 47, "duration": 6, "velocity": 100}, {"time": 2583, "pitch": 63, "duration": 7, "velocity": 103}, {"time": 2583, "pitch": 66, "duration": 7, "velocity": 116}, {"time": 2583, "pitch": 71, "duration": 6, "velocity": 114}, {"time": 2589, "pitch": 47, "duration": 6, "velocity": 100}, {"time": 2589, "pitch": 54, "duration": 7, "velocity": 84}, {"time": 2595, "pitch": 47, "duration": 6, "velocity": 100}, {"time": 2595, "pitch": 63, "duration": 6, "velocity": 100}, {"time": 2595, "pitch": 66, "duration": 6, "velocity": 114}, {"time": 2595, "pitch": 71, "duration": 6, "velocity": 110}, {"time": 2601, "pitch": 47, "duration": 6, "velocity": 100}, {"time": 2601, "pitch": 54, "duration": 5, "velocity": 87}, {"time": 2607, "pitch": 47, "duration": 27, "velocity": 100}, {"time": 2607, "pitch": 59, "duration": 25, "velocity": 100}, {"time": 2607, "pitch": 63, "duration": 17, "velocity": 100}, {"time": 2607, "pitch": 66, "duration": 17, "velocity": 117}, {"time": 2607, "pitch": 71, "duration": 16, "velocity": 113}, {"time": 2631, "pitch": 63, "duration": 9, "velocity": 95}, {"time": 2631, "pitch": 66, "duration": 9, "velocity": 110}, {"time": 2631, "pitch": 71, "duration": 7, "velocity": 114}, {"time": 2637, "pitch": 59, "duration": 19, "velocity": 87}, {"time": 2643, "pitch": 63, "duration": 8, "velocity": 103}, {"time": 2643, "pitch": 66, "duration": 9, "velocity": 117}, {"time": 2643, "pitch": 71, "duration": 8, "velocity": 114}, {"time": 2655, "pitch": 52, "duration": 14, "velocity": 94}, {"time": 2655, "pitch": 64, "duration": 9, "velocity": 102}, {"time": 2655, "pitch": 68, "duration": 8, "velocity": 113}, {"time": 2655, "pitch": 71, "duration": 7, "velocity": 108}, {"time": 2661, "pitch": 59, "duration": 7, "velocity": 81}, {"time": 2667, "pitch": 64, "duration": 9, "velocity": 104}, {"time": 2667, "pitch": 68, "duration": 7, "velocity": 119}, {"time": 2667, "pitch": 71, "duration": 6, "velocity": 110}, {"time": 2673, "pitch": 52, "duration": 1, "velocity": 91}, {"time": 2679, "pitch": 47, "duration": 14, "velocity": 86}, {"time": 2679, "pitch": 63, "duration": 7, "velocity": 91}, {"time": 2679, "pitch": 66, "duration": 8, "velocity": 108}, {"time": 2679, "pitch": 71, "duration": 7, "velocity": 104}, {"time": 2685, "pitch": 59, "duration": 6, "velocity": 82}, {"time": 2691, "pitch": 63, "duration": 5, "velocity": 97}, {"time": 2691, "pitch": 66, "duration": 5, "velocity": 108}, {"time": 2691, "pitch": 71, "duration": 5, "velocity": 102}, {"time": 2697, "pitch": 47, "duration": 3, "velocity": 82}, {"time": 2703, "pitch": 49, "duration": 13, "velocity": 83}, {"time": 2703, "pitch": 61, "duration": 8, "velocity": 92}, {"time": 2703, "pitch": 64, "duration": 9, "velocity": 107}, {"time": 2703, "pitch": 68, "duration": 8, "velocity": 88}, {"time": 2703, "pitch": 71, "duration": 8, "velocity": 91}, {"time": 2715, "pitch": 61, "duration": 6, "velocity": 100}, {"time": 2715, "pitch": 64, "duration": 8, "velocity": 102}, {"time": 2715, "pitch": 68, "duration": 6, "velocity": 91}, {"time": 2715, "pitch": 71, "duration": 6, "velocity": 100}, {"time": 2721, "pitch": 49, "duration": 3, "velocity": 86}, {"time": 2727, "pitch": 52, "duration": 13, "velocity": 100}, {"time": 2727, "pitch": 59, "duration": 6, "velocity": 91}, {"time": 2727, "pitch": 64, "duration": 6, "velocity": 108}, {"time": 2727, "pitch": 68, "duration": 6, "velocity": 95}, {"time": 2739, "pitch": 59, "duration": 6, "velocity": 91}, {"time": 2739, "pitch": 64, "duration": 6, "velocity": 108}, {"time": 2739, "pitch": 68, "duration": 6, "velocity": 95}, {"time": 2745, "pitch": 52, "duration": 5, "velocity": 87}, {"time": 2751, "pitch": 45, "duration": 13, "velocity": 84}, {"time": 2751, "pitch": 57, "duration": 13, "velocity": 90}, {"time": 2751, "pitch": 61, "duration": 8, "velocity": 92}, {"time": 2751, "pitch": 64, "duration": 8, "velocity": 93}, {"time": 2751, "pitch": 69, "duration": 8, "velocity": 93}, {"time": 2763, "pitch": 61, "duration": 6, "velocity": 102}, {"time": 2763, "pitch": 64, "duration": 6, "velocity": 108}, {"time": 2763, "pitch": 69, "duration": 7, "velocity": 94}, {"time": 2769, "pitch": 45, "duration": 3, "velocity": 81}, {"time": 2769, "pitch": 57, "duration": 3, "velocity": 88}, {"time": 2775, "pitch": 47, "duration": 21, "velocity": 88}, {"time": 2775, "pitch": 63, "duration": 8, "velocity": 88}, {"time": 2775, "pitch": 66, "duration": 7, "velocity": 102}, {"time": 2775, "pitch": 71, "duration": 6, "velocity": 102}, {"time": 2787, "pitch": 63, "duration": 5, "velocity": 90}, {"time": 2787, "pitch": 66, "duration": 5, "velocity": 98}, {"time": 2787, "pitch": 71, "duration": 5, "velocity": 94}, {"time": 2799, "pitch": 45, "duration": 13, "velocity": 92}, {"time": 2799, "pitch": 61, "duration": 9, "velocity": 100}, {"time": 2799, "pitch": 64, "duration": 9, "velocity": 108}, {"time": 2799, "pitch": 69, "duration": 8, "velocity": 98}, {"time": 2811, "pitch": 61, "duration": 6, "velocity": 100}, {"time": 2811, "pitch": 64, "duration": 6, "velocity": 104}, {"time": 2811, "pitch": 69, "duration": 6, "velocity": 92}, {"time": 2817, "pitch": 45, "duration": 3, "velocity": 89}, {"time": 2823, "pitch": 47, "duration": 15, "velocity": 92}, {"time": 2823, "pitch": 63, "duration": 7, "velocity": 91}, {"time": 2823, "pitch": 66, "duration": 9, "velocity": 104}, {"time": 2823, "pitch": 71, "duration": 7, "velocity": 107}, {"time": 2835, "pitch": 63, "duration": 5, "velocity": 100}, {"time": 2835, "pitch": 66, "duration": 9, "velocity": 107}, {"time": 2835, "pitch": 71, "duration": 6, "velocity": 102}, {"time": 2841, "pitch": 47, "duration": 5, "velocity": 89}, {"time": 2847, "pitch": 52, "duration": 13, "velocity": 91}, {"time": 2847, "pitch": 64, "duration": 9, "velocity": 93}, {"time": 2847, "pitch": 68, "duration": 9, "velocity": 113}, {"time": 2847, "pitch": 71, "duration": 8, "velocity": 102}, {"time": 2859, "pitch": 64, "duration": 9, "velocity": 107}, {"time": 2859, "pitch": 68, "duration": 7, "velocity": 109}, {"time": 2859, "pitch": 71, "duration": 7, "velocity": 104}, {"time": 2865, "pitch": 52, "duration": 4, "velocity": 89}, {"time": 2871, "pitch": 47, "duration": 13, "velocity": 86}, {"time": 2871, "pitch": 63, "duration": 10, "velocity": 96}, {"time": 2871, "pitch": 59, "duration": 13, "velocity": 89}, {"time": 2871, "pitch": 66, "duration": 10, "velocity": 110}, {"time": 2871, "pitch": 71, "duration": 8, "velocity": 102}, {"time": 2883, "pitch": 66, "duration": 6, "velocity": 107}, {"time": 2883, "pitch": 63, "duration": 7, "velocity": 92}, {"time": 2889, "pitch": 47, "duration": 3, "velocity": 83}, {"time": 2895, "pitch": 49, "duration": 14, "velocity": 85}, {"time": 2895, "pitch": 61, "duration": 8, "velocity": 98}, {"time": 2895, "pitch": 64, "duration": 8, "velocity": 113}, {"time": 2895, "pitch": 68, "duration": 9, "velocity": 106}, {"time": 2907, "pitch": 61, "duration": 8, "velocity": 107}, {"time": 2907, "pitch": 64, "duration": 8, "velocity": 116}, {"time": 2907, "pitch": 68, "duration": 9, "velocity": 106}, {"time": 2913, "pitch": 49, "duration": 6, "velocity": 84}, {"time": 2919, "pitch": 45, "duration": 21, "velocity": 76}, {"time": 2919, "pitch": 57, "duration": 21, "velocity": 85}, {"time": 2919, "pitch": 61, "duration": 17, "velocity": 100}, {"time": 2919, "pitch": 64, "duration": 20, "velocity": 114}, {"time": 2919, "pitch": 68, "duration": 20, "velocity": 104}, {"time": 2967, "pitch": 52, "duration": 19, "velocity": 88}, {"time": 2973, "pitch": 59, "duration": 12, "velocity": 77}, {"time": 2979, "pitch": 64, "duration": 5, "velocity": 80}, {"time": 2985, "pitch": 68, "duration": 7, "velocity": 86}, {"time": 2991, "pitch": 47, "duration": 18, "velocity": 82}, {"time": 2997, "pitch": 54, "duration": 13, "velocity": 78}, {"time": 3003, "pitch": 59, "duration": 7, "velocity": 81}, {"time": 3009, "pitch": 63, "duration": 10, "velocity": 85}, {"time": 3015, "pitch": 49, "duration": 19, "velocity": 82}, {"time": 3021, "pitch": 56, "duration": 12, "velocity": 74}, {"time": 3027, "pitch": 61, "duration": 5, "velocity": 81}, {"time": 3033, "pitch": 64, "duration": 7, "velocity": 84}, {"time": 3039, "pitch": 47, "duration": 39, "velocity": 81}, {"time": 3045, "pitch": 54, "duration": 34, "velocity": 70}, {"time": 3051, "pitch": 59, "duration": 28, "velocity": 80}, {"time": 3057, "pitch": 63, "duration": 22, "velocity": 75}, {"time": 3087, "pitch": 45, "duration": 17, "velocity": 88}, {"time": 3093, "pitch": 57, "duration": 15, "velocity": 83}, {"time": 3099, "pitch": 61, "duration": 9, "velocity": 85}, {"time": 3105, "pitch": 64, "duration": 6, "velocity": 88}, {"time": 3111, "pitch": 47, "duration": 18, "velocity": 83}, {"time": 3117, "pitch": 59, "duration": 11, "velocity": 76}, {"time": 3123, "pitch": 63, "duration": 7, "velocity": 85}, {"time": 3129, "pitch": 66, "duration": 5, "velocity": 84}, {"time": 3135, "pitch": 45, "duration": 18, "velocity": 86}, {"time": 3141, "pitch": 57, "duration": 14, "velocity": 81}, {"time": 3147, "pitch": 61, "duration": 8, "velocity": 87}, {"time": 3153, "pitch": 64, "duration": 6, "velocity": 90}, {"time": 3159, "pitch": 47, "duration": 21, "velocity": 86}, {"time": 3165, "pitch": 59, "duration": 16, "velocity": 82}, {"time": 3174, "pitch": 63, "duration": 8, "velocity": 103}, {"time": 3180, "pitch": 66, "duration": 14, "velocity": 83}, {"time": 3192, "pitch": 52, "duration": 73, "velocity": 86}, {"time": 3198, "pitch": 59, "duration": 65, "velocity": 73}, {"time": 3207, "pitch": 64, "duration": 57, "velocity": 81}, {"time": 3213, "pitch": 68, "duration": 3, "velocity": 85}, {"time": 3222, "pitch": 71, "duration": 7, "velocity": 84}, {"time": 3228, "pitch": 80, "duration": 7, "velocity": 81}, {"time": 3234, "pitch": 76, "duration": 8, "velocity": 83}, {"time": 3243, "pitch": 83, "duration": 19, "velocity": 84}], "annotations": [{"time": 16, "annotation": {"number": 64, "value": 127}, "group": "control_change"}, {"time": 62, "annotation": {"number": 64, "value": 0}, "group": "control_change"}, {"time": 66, "annotation": {"number": 64, "value": 127}, "group": "control_change"}, {"time": 112, "annotation": {"number": 64, "value": 0}, "group": "control_change"}, {"time": 116, "annotation": {"number": 64, "value": 127}, "group": "control_change"}, {"time": 158, "annotation": {"number": 64, "value": 0}, "group": "control_change"}, {"time": 162, "annotation": {"number": 64, "value": 127}, "group": "control_change"}, {"time": 207, "annotation": {"number": 64, "value": 0}, "group": "control_change"}, {"time": 211, "annotation": {"number": 64, "value": 127}, "group": "control_change"}, {"time": 254, "annotation": {"number": 64, "value": 0}, "group": "control_change"}, {"time": 257, "annotation": {"number": 64, "value": 127}, "group": "control_change"}, {"time": 303, "annotation": {"number": 64, "value": 0}, "group": "control_change"}, {"time": 307, "annotation": {"number": 64, "value": 127}, "group": "control_change"}, {"time": 350, "annotation": {"number": 64, "value": 0}, "group": "control_change"}, {"time": 355, "annotation": {"number": 64, "value": 127}, "group": "control_change"}, {"time": 399, "annotation": {"number": 64, "value": 0}, "group": "control_change"}, {"time": 399, "annotation": {"number": 64, "value": 38}, "group": "control_change"}, {"time": 399, "annotation": {"number": 64, "value": 127}, "group": "control_change"}, {"time": 419, "annotation": {"number": 64, "value": 74}, "group": "control_change"}, {"time": 419, "annotation": {"number": 64, "value": 127}, "group": "control_change"}, {"time": 420, "annotation": {"number": 64, "value": 0}, "group": "control_change"}, {"time": 425, "annotation": {"number": 64, "value": 127}, "group": "control_change"}, {"time": 445, "annotation": {"number": 64, "value": 0}, "group": "control_change"}, {"time": 449, "annotation": {"number": 64, "value": 74}, "group": "control_change"}, {"time": 449, "annotation": {"number": 64, "value": 127}, "group": "control_change"}, {"time": 467, "annotation": {"number": 64, "value": 74}, "group": "control_change"}, {"time": 468, "annotation": {"number": 64, "value": 127}, "group": "control_change"}, {"time": 468, "annotation": {"number": 64, "value": 0}, "group": "control_change"}, {"time": 472, "annotation": {"number": 64, "value": 127}, "group": "control_change"}, {"time": 490, "annotation": {"number": 64, "value": 74}, "group": "control_change"}, {"time": 490, "annotation": {"number": 64, "value": 127}, "group": "control_change"}, {"time": 491, "annotation": {"number": 64, "value": 0}, "group": "control_change"}, {"time": 496, "annotation": {"number": 64, "value": 127}, "group": "control_change"}, {"time": 499, "annotation": {"number": 64, "value": 74}, "group": "control_change"}, {"time": 499, "annotation": {"number": 64, "value": 127}, "group": "control_change"}, {"time": 501, "annotation": {"number": 64, "value": 74}, "group": "control_change"}, {"time": 502, "annotation": {"number": 64, "value": 127}, "group": "control_change"}, {"time": 502, "annotation": {"number": 64, "value": 38}, "group": "control_change"}, {"time": 502, "annotation": {"number": 64, "value": 0}, "group": "control_change"}, {"time": 507, "annotation": {"number": 64, "value": 74}, "group": "control_change"}, {"time": 507, "annotation": {"number": 64, "value": 127}, "group": "control_change"}, {"time": 515, "annotation": {"number": 64, "value": 125}, "group": "control_change"}, {"time": 519, "annotation": {"number": 64, "value": 0}, "group": "control_change"}, {"time": 521, "annotation": {"number": 64, "value": 124}, "group": "control_change"}, {"time": 543, "annotation": {"number": 64, "value": 3}, "group": "control_change"}, {"time": 545, "annotation": {"number": 64, "value": 124}, "group": "control_change"}, {"time": 567, "annotation": {"number": 64, "value": 0}, "group": "control_change"}, {"time": 569, "annotation": {"number": 64, "value": 121}, "group": "control_change"}, {"time": 592, "annotation": {"number": 64, "value": 0}, "group": "control_change"}, {"time": 594, "annotation": {"number": 64, "value": 121}, "group": "control_change"}, {"time": 615, "annotation": {"number": 64, "value": 0}, "group": "control_change"}, {"time": 617, "annotation": {"number": 64, "value": 118}, "group": "control_change"}, {"time": 639, "annotation": {"number": 64, "value": 0}, "group": "control_change"}, {"time": 642, "annotation": {"number": 64, "value": 120}, "group": "control_change"}, {"time": 663, "annotation": {"number": 64, "value": 0}, "group": "control_change"}, {"time": 665, "annotation": {"number": 64, "value": 118}, "group": "control_change"}, {"time": 688, "annotation": {"number": 64, "value": 0}, "group": "control_change"}, {"time": 689, "annotation": {"number": 64, "value": 115}, "group": "control_change"}, {"time": 711, "annotation": {"number": 64, "value": 0}, "group": "control_change"}, {"time": 713, "annotation": {"number": 64, "value": 111}, "group": "control_change"}, {"time": 759, "annotation": {"number": 64, "value": 0}, "group": "control_change"}, {"time": 761, "annotation": {"number": 64, "value": 125}, "group": "control_change"}, {"time": 807, "annotation": {"number": 64, "value": 127}, "group": "control_change"}, {"time": 807, "annotation": {"number": 64, "value": 0}, "group": "control_change"}, {"time": 810, "annotation": {"number": 64, "value": 127}, "group": "control_change"}, {"time": 856, "annotation": {"number": 64, "value": 0}, "group": "control_change"}, {"time": 859, "annotation": {"number": 64, "value": 125}, "group": "control_change"}, {"time": 879, "annotation": {"number": 64, "value": 0}, "group": "control_change"}, {"time": 881, "annotation": {"number": 64, "value": 127}, "group": "control_change"}, {"time": 902, "annotation": {"number": 64, "value": 0}, "group": "control_change"}, {"time": 905, "annotation": {"number": 64, "value": 127}, "group": "control_change"}, {"time": 927, "annotation": {"number": 64, "value": 0}, "group": "control_change"}, {"time": 929, "annotation": {"number": 64, "value": 127}, "group": "control_change"}, {"time": 951, "annotation": {"number": 64, "value": 0}, "group": "control_change"}, {"time": 953, "annotation": {"number": 64, "value": 125}, "group": "control_change"}, {"time": 975, "annotation": {"number": 64, "value": 0}, "group": "control_change"}, {"time": 979, "annotation": {"number": 64, "value": 127}, "group": "control_change"}, {"time": 1024, "annotation": {"number": 64, "value": 0}, "group": "control_change"}, {"time": 1025, "annotation": {"number": 64, "value": 127}, "group": "control_change"}, {"time": 1047, "annotation": {"number": 64, "value": 0}, "group": "control_change"}, {"time": 1049, "annotation": {"number": 64, "value": 127}, "group": "control_change"}, {"time": 1071, "annotation": {"number": 64, "value": 0}, "group": "control_change"}, {"time": 1073, "annotation": {"number": 64, "value": 127}, "group": "control_change"}, {"time": 1095, "annotation": {"number": 64, "value": 0}, "group": "control_change"}, {"time": 1097, "annotation": {"number": 64, "value": 127}, "group": "control_change"}, {"time": 1119, "annotation": {"number": 64, "value": 0}, "group": "control_change"}, {"time": 1121, "annotation": {"number": 64, "value": 124}, "group": "control_change"}, {"time": 1143, "annotation": {"number": 64, "value": 0}, "group": "control_change"}, {"time": 1145, "annotation": {"number": 64, "value": 124}, "group": "control_change"}, {"time": 1167, "annotation": {"number": 64, "value": 0}, "group": "control_change"}, {"time": 1170, "annotation": {"number": 64, "value": 124}, "group": "control_change"}, {"time": 1215, "annotation": {"number": 64, "value": 0}, "group": "control_change"}, {"time": 1218, "annotation": {"number": 64, "value": 122}, "group": "control_change"}, {"time": 1238, "annotation": {"number": 64, "value": 0}, "group": "control_change"}, {"time": 1241, "annotation": {"number": 64, "value": 119}, "group": "control_change"}, {"time": 1264, "annotation": {"number": 64, "value": 0}, "group": "control_change"}, {"time": 1266, "annotation": {"number": 64, "value": 127}, "group": "control_change"}, {"time": 1287, "annotation": {"number": 64, "value": 0}, "group": "control_change"}, {"time": 1289, "annotation": {"number": 64, "value": 127}, "group": "control_change"}, {"time": 1311, "annotation": {"number": 64, "value": 0}, "group": "control_change"}, {"time": 1313, "annotation": {"number": 64, "value": 126}, "group": "control_change"}, {"time": 1360, "annotation": {"number": 64, "value": 0}, "group": "control_change"}, {"time": 1361, "annotation": {"number": 64, "value": 124}, "group": "control_change"}, {"time": 1407, "annotation": {"number": 64, "value": 0}, "group": "control_change"}, {"time": 1409, "annotation": {"number": 64, "value": 121}, "group": "control_change"}, {"time": 1455, "annotation": {"number": 64, "value": 0}, "group": "control_change"}, {"time": 1458, "annotation": {"number": 64, "value": 123}, "group": "control_change"}, {"time": 1503, "annotation": {"number": 64, "value": 0}, "group": "control_change"}, {"time": 1506, "annotation": {"number": 64, "value": 124}, "group": "control_change"}, {"time": 1527, "annotation": {"number": 64, "value": 0}, "group": "control_change"}, {"time": 1528, "annotation": {"number": 64, "value": 127}, "group": "control_change"}, {"time": 1550, "annotation": {"number": 64, "value": 0}, "group": "control_change"}, {"time": 1553, "annotation": {"number": 64, "value": 126}, "group": "control_change"}, {"time": 1576, "annotation": {"number": 64, "value": 0}, "group": "control_change"}, {"time": 1578, "annotation": {"number": 64, "value": 125}, "group": "control_change"}, {"time": 1599, "annotation": {"number": 64, "value": 0}, "group": "control_change"}, {"time": 1601, "annotation": {"number": 64, "value": 126}, "group": "control_change"}, {"time": 1623, "annotation": {"number": 64, "value": 0}, "group": "control_change"}, {"time": 1626, "annotation": {"number": 64, "value": 127}, "group": "control_change"}, {"time": 1647, "annotation": {"number": 64, "value": 0}, "group": "control_change"}, {"time": 1650, "annotation": {"number": 64, "value": 127}, "group": "control_change"}, {"time": 1671, "annotation": {"number": 64, "value": 0}, "group": "control_change"}, {"time": 1674, "annotation": {"number": 64, "value": 125}, "group": "control_change"}, {"time": 1695, "annotation": {"number": 64, "value": 0}, "group": "control_change"}, {"time": 1697, "annotation": {"number": 64, "value": 126}, "group": "control_change"}, {"time": 1719, "annotation": {"number": 64, "value": 0}, "group": "control_change"}, {"time": 1722, "annotation": {"number": 64, "value": 127}, "group": "control_change"}, {"time": 1743, "annotation": {"number": 64, "value": 0}, "group": "control_change"}, {"time": 1746, "annotation": {"number": 64, "value": 127}, "group": "control_change"}, {"time": 1767, "annotation": {"number": 64, "value": 0}, "group": "control_change"}, {"time": 1769, "annotation": {"number": 64, "value": 126}, "group": "control_change"}, {"time": 1814, "annotation": {"number": 64, "value": 0}, "group": "control_change"}, {"time": 1817, "annotation": {"number": 64, "value": 127}, "group": "control_change"}, {"time": 1839, "annotation": {"number": 64, "value": 0}, "group": "control_change"}, {"time": 1842, "annotation": {"number": 64, "value": 127}, "group": "control_change"}, {"time": 1887, "annotation": {"number": 64, "value": 0}, "group": "control_change"}, {"time": 1889, "annotation": {"number": 64, "value": 127}, "group": "control_change"}, {"time": 1910, "annotation": {"number": 64, "value": 127}, "group": "control_change"}, {"time": 1957, "annotation": {"number": 64, "value": 0}, "group": "control_change"}, {"time": 1962, "annotation": {"number": 64, "value": 127}, "group": "control_change"}, {"time": 2009, "annotation": {"number": 64, "value": 0}, "group": "control_change"}, {"time": 2011, "annotation": {"number": 64, "value": 127}, "group": "control_change"}, {"time": 2033, "annotation": {"number": 64, "value": 0}, "group": "control_change"}, {"time": 2035, "annotation": {"number": 64, "value": 127}, "group": "control_change"}, {"time": 2067, "annotation": {"number": 64, "value": 0}, "group": "control_change"}, {"time": 2072, "annotation": {"number": 64, "value": 127}, "group": "control_change"}, {"time": 2103, "annotation": {"number": 64, "value": 0}, "group": "control_change"}, {"time": 2114, "annotation": {"number": 64, "value": 127}, "group": "control_change"}, {"time": 2152, "annotation": {"number": 64, "value": 0}, "group": "control_change"}, {"time": 2154, "annotation": {"number": 64, "value": 127}, "group": "control_change"}, {"time": 2176, "annotation": {"number": 64, "value": 0}, "group": "control_change"}, {"time": 2179, "annotation": {"number": 64, "value": 127}, "group": "control_change"}, {"time": 2223, "annotation": {"number": 64, "value": 0}, "group": "control_change"}, {"time": 2226, "annotation": {"number": 64, "value": 127}, "group": "control_change"}, {"time": 2250, "annotation": {"number": 64, "value": 0}, "group": "control_change"}, {"time": 2255, "annotation": {"number": 64, "value": 127}, "group": "control_change"}, {"time": 2273, "annotation": {"number": 64, "value": 0}, "group": "control_change"}, {"time": 2276, "annotation": {"number": 64, "value": 127}, "group": "control_change"}, {"time": 2296, "annotation": {"number": 64, "value": 0}, "group": "control_change"}, {"time": 2300, "annotation": {"number": 64, "value": 127}, "group": "control_change"}, {"time": 2319, "annotation": {"number": 64, "value": 0}, "group": "control_change"}, {"time": 2323, "annotation": {"number": 64, "value": 127}, "group": "control_change"}, {"time": 2364, "annotation": {"number": 64, "value": 0}, "group": "control_change"}, {"time": 2369, "annotation": {"number": 64, "value": 127}, "group": "control_change"}, {"time": 2379, "annotation": {"number": 64, "value": 0}, "group": "control_change"}, {"time": 2385, "annotation": {"number": 64, "value": 127}, "group": "control_change"}, {"time": 2463, "annotation": {"number": 64, "value": 0}, "group": "control_change"}, {"time": 2469, "annotation": {"number": 64, "value": 127}, "group": "control_change"}, {"time": 2511, "annotation": {"number": 64, "value": 0}, "group": "control_change"}, {"time": 2517, "annotation": {"number": 64, "value": 127}, "group": "control_change"}, {"time": 2655, "annotation": {"number": 64, "value": 0}, "group": "control_change"}, {"time": 2661, "annotation": {"number": 64, "value": 125}, "group": "control_change"}, {"time": 2679, "annotation": {"number": 64, "value": 0}, "group": "control_change"}, {"time": 2685, "annotation": {"number": 64, "value": 125}, "group": "control_change"}, {"time": 2703, "annotation": {"number": 64, "value": 0}, "group": "control_change"}, {"time": 2709, "annotation": {"number": 64, "value": 127}, "group": "control_change"}, {"time": 2727, "annotation": {"number": 64, "value": 0}, "group": "control_change"}, {"time": 2733, "annotation": {"number": 64, "value": 127}, "group": "control_change"}, {"time": 2751, "annotation": {"number": 64, "value": 0}, "group": "control_change"}, {"time": 2757, "annotation": {"number": 64, "value": 127}, "group": "control_change"}, {"time": 2775, "annotation": {"number": 64, "value": 0}, "group": "control_change"}, {"time": 2781, "annotation": {"number": 64, "value": 124}, "group": "control_change"}, {"time": 2799, "annotation": {"number": 64, "value": 0}, "group": "control_change"}, {"time": 2805, "annotation": {"number": 64, "value": 127}, "group": "control_change"}, {"time": 2823, "annotation": {"number": 64, "value": 0}, "group": "control_change"}, {"time": 2829, "annotation": {"number": 64, "value": 125}, "group": "control_change"}, {"time": 2847, "annotation": {"number": 64, "value": 0}, "group": "control_change"}, {"time": 2853, "annotation": {"number": 64, "value": 127}, "group": "control_change"}, {"time": 2871, "annotation": {"number": 64, "value": 0}, "group": "control_change"}, {"time": 2877, "annotation": {"number": 64, "value": 125}, "group": "control_change"}, {"time": 2895, "annotation": {"number": 64, "value": 0}, "group": "control_change"}, {"time": 2901, "annotation": {"number": 64, "value": 125}, "group": "control_change"}, {"time": 2919, "annotation": {"number": 64, "value": 0}, "group": "control_change"}, {"time": 2925, "annotation": {"number": 64, "value": 124}, "group": "control_change"}, {"time": 2973, "annotation": {"number": 64, "value": 1}, "group": "control_change"}, {"time": 2979, "annotation": {"number": 64, "value": 125}, "group": "control_change"}, {"time": 2985, "annotation": {"number": 64, "value": 127}, "group": "control_change"}, {"time": 2991, "annotation": {"number": 64, "value": 2}, "group": "control_change"}, {"time": 2997, "annotation": {"number": 64, "value": 127}, "group": "control_change"}, {"time": 3015, "annotation": {"number": 64, "value": 2}, "group": "control_change"}, {"time": 3018, "annotation": {"number": 64, "value": 127}, "group": "control_change"}, {"time": 3039, "annotation": {"number": 64, "value": 0}, "group": "control_change"}, {"time": 3042, "annotation": {"number": 64, "value": 127}, "group": "control_change"}, {"time": 3087, "annotation": {"number": 64, "value": 12}, "group": "control_change"}, {"time": 3090, "annotation": {"number": 64, "value": 124}, "group": "control_change"}, {"time": 3114, "annotation": {"number": 64, "value": 0}, "group": "control_change"}, {"time": 3117, "annotation": {"number": 64, "value": 125}, "group": "control_change"}, {"time": 3138, "annotation": {"number": 64, "value": 0}, "group": "control_change"}, {"time": 3141, "annotation": {"number": 64, "value": 123}, "group": "control_change"}]}]}