{"metadata": {"schema_version": "0.2", "title": "None", "source_filename": "317.mid", "source_format": "midi"}, "resolution": 12, "tempos": [{"time": 0, "qpm": 65.00013541694878}], "time_signatures": [{"time": 0, "numerator": 4, "denominator": 4}], "tracks": [{"program": 0, "is_drum": false, "name": "MELODY", "notes": [{"time": 500, "pitch": 71, "duration": 3, "velocity": 107}, {"time": 503, "pitch": 69, "duration": 3, "velocity": 92}, {"time": 506, "pitch": 71, "duration": 3, "velocity": 102}, {"time": 509, "pitch": 71, "duration": 3, "velocity": 104}, {"time": 512, "pitch": 69, "duration": 3, "velocity": 104}, {"time": 515, "pitch": 71, "duration": 3, "velocity": 107}, {"time": 518, "pitch": 69, "duration": 12, "velocity": 107}, {"time": 530, "pitch": 71, "duration": 6, "velocity": 119}, {"time": 536, "pitch": 69, "duration": 6, "velocity": 113}, {"time": 542, "pitch": 67, "duration": 3, "velocity": 119}, {"time": 545, "pitch": 64, "duration": 39, "velocity": 114}, {"time": 584, "pitch": 74, "duration": 3, "velocity": 110}, {"time": 587, "pitch": 74, "duration": 3, "velocity": 102}, {"time": 590, "pitch": 76, "duration": 6, "velocity": 113}, {"time": 596, "pitch": 74, "duration": 3, "velocity": 104}, {"time": 599, "pitch": 76, "duration": 6, "velocity": 110}, {"time": 605, "pitch": 74, "duration": 15, "velocity": 108}, {"time": 620, "pitch": 69, "duration": 6, "velocity": 102}, {"time": 626, "pitch": 69, "duration": 6, "velocity": 102}, {"time": 632, "pitch": 74, "duration": 12, "velocity": 96}, {"time": 644, "pitch": 74, "duration": 3, "velocity": 102}, {"time": 647, "pitch": 71, "duration": 45, "velocity": 100}, {"time": 692, "pitch": 71, "duration": 3, "velocity": 100}, {"time": 695, "pitch": 69, "duration": 3, "velocity": 87}, {"time": 698, "pitch": 71, "duration": 3, "velocity": 88}, {"time": 701, "pitch": 69, "duration": 3, "velocity": 92}, {"time": 704, "pitch": 69, "duration": 3, "velocity": 88}, {"time": 707, "pitch": 71, "duration": 6, "velocity": 107}, {"time": 713, "pitch": 69, "duration": 9, "velocity": 98}, {"time": 722, "pitch": 71, "duration": 6, "velocity": 104}, {"time": 728, "pitch": 69, "duration": 3, "velocity": 102}, {"time": 731, "pitch": 67, "duration": 6, "velocity": 94}, {"time": 737, "pitch": 64, "duration": 39, "velocity": 102}, {"time": 776, "pitch": 69, "duration": 3, "velocity": 96}, {"time": 779, "pitch": 69, "duration": 3, "velocity": 94}, {"time": 782, "pitch": 71, "duration": 6, "velocity": 107}, {"time": 788, "pitch": 69, "duration": 3, "velocity": 108}, {"time": 791, "pitch": 67, "duration": 3, "velocity": 91}, {"time": 794, "pitch": 69, "duration": 3, "velocity": 107}, {"time": 797, "pitch": 67, "duration": 18, "velocity": 104}, {"time": 815, "pitch": 64, "duration": 3, "velocity": 88}, {"time": 818, "pitch": 69, "duration": 6, "velocity": 102}, {"time": 824, "pitch": 67, "duration": 3, "velocity": 102}, {"time": 827, "pitch": 67, "duration": 3, "velocity": 85}, {"time": 830, "pitch": 64, "duration": 3, "velocity": 96}, {"time": 833, "pitch": 67, "duration": 33, "velocity": 104}, {"time": 872, "pitch": 62, "duration": 3, "velocity": 102}, {"time": 875, "pitch": 62, "duration": 3, "velocity": 96}, {"time": 878, "pitch": 67, "duration": 18, "velocity": 113}, {"time": 896, "pitch": 67, "duration": 3, "velocity": 113}, {"time": 899, "pitch": 67, "duration": 3, "velocity": 102}, {"time": 902, "pitch": 69, "duration": 6, "velocity": 119}, {"time": 908, "pitch": 64, "duration": 12, "velocity": 117}, {"time": 920, "pitch": 64, "duration": 3, "velocity": 113}, {"time": 923, "pitch": 64, "duration": 3, "velocity": 107}, {"time": 926, "pitch": 71, "duration": 6, "velocity": 120}, {"time": 932, "pitch": 66, "duration": 6, "velocity": 119}, {"time": 938, "pitch": 66, "duration": 6, "velocity": 119}, {"time": 944, "pitch": 64, "duration": 3, "velocity": 94}, {"time": 944, "pitch": 64, "duration": 3, "velocity": 117}, {"time": 947, "pitch": 64, "duration": 6, "velocity": 117}, {"time": 953, "pitch": 62, "duration": 3, "velocity": 100}, {"time": 956, "pitch": 64, "duration": 12, "velocity": 113}, {"time": 968, "pitch": 64, "duration": 3, "velocity": 113}, {"time": 971, "pitch": 62, "duration": 3, "velocity": 107}, {"time": 974, "pitch": 64, "duration": 6, "velocity": 116}, {"time": 980, "pitch": 62, "duration": 3, "velocity": 107}, {"time": 983, "pitch": 67, "duration": 12, "velocity": 117}, {"time": 995, "pitch": 62, "duration": 3, "velocity": 108}, {"time": 998, "pitch": 67, "duration": 3, "velocity": 117}, {"time": 1001, "pitch": 69, "duration": 6, "velocity": 114}, {"time": 1007, "pitch": 69, "duration": 3, "velocity": 117}, {"time": 1010, "pitch": 69, "duration": 6, "velocity": 119}, {"time": 1016, "pitch": 71, "duration": 12, "velocity": 119}, {"time": 1028, "pitch": 62, "duration": 3, "velocity": 113}, {"time": 1031, "pitch": 59, "duration": 33, "velocity": 107}, {"time": 1064, "pitch": 62, "duration": 3, "velocity": 91}, {"time": 1067, "pitch": 62, "duration": 3, "velocity": 110}, {"time": 1070, "pitch": 67, "duration": 12, "velocity": 120}, {"time": 1082, "pitch": 67, "duration": 3, "velocity": 119}, {"time": 1085, "pitch": 64, "duration": 6, "velocity": 114}, {"time": 1091, "pitch": 64, "duration": 3, "velocity": 114}, {"time": 1094, "pitch": 69, "duration": 3, "velocity": 120}, {"time": 1097, "pitch": 69, "duration": 6, "velocity": 110}, {"time": 1103, "pitch": 64, "duration": 3, "velocity": 113}, {"time": 1106, "pitch": 64, "duration": 6, "velocity": 117}, {"time": 1112, "pitch": 64, "duration": 6, "velocity": 113}, {"time": 1118, "pitch": 71, "duration": 6, "velocity": 108}, {"time": 1124, "pitch": 66, "duration": 6, "velocity": 123}, {"time": 1130, "pitch": 66, "duration": 6, "velocity": 123}, {"time": 1136, "pitch": 64, "duration": 3, "velocity": 119}, {"time": 1139, "pitch": 62, "duration": 6, "velocity": 100}, {"time": 1145, "pitch": 64, "duration": 15, "velocity": 116}, {"time": 1160, "pitch": 64, "duration": 3, "velocity": 114}, {"time": 1163, "pitch": 62, "duration": 3, "velocity": 110}, {"time": 1166, "pitch": 64, "duration": 6, "velocity": 117}, {"time": 1172, "pitch": 62, "duration": 3, "velocity": 107}, {"time": 1175, "pitch": 67, "duration": 6, "velocity": 116}, {"time": 1181, "pitch": 64, "duration": 6, "velocity": 110}, {"time": 1187, "pitch": 64, "duration": 15, "velocity": 108}, {"time": 1202, "pitch": 57, "duration": 6, "velocity": 113}, {"time": 1208, "pitch": 57, "duration": 3, "velocity": 108}, {"time": 1211, "pitch": 55, "duration": 57, "velocity": 104}, {"time": 1268, "pitch": 71, "duration": 3, "velocity": 113}, {"time": 1271, "pitch": 69, "duration": 3, "velocity": 94}, {"time": 1274, "pitch": 71, "duration": 6, "velocity": 117}, {"time": 1280, "pitch": 71, "duration": 3, "velocity": 108}, {"time": 1283, "pitch": 71, "duration": 6, "velocity": 117}, {"time": 1289, "pitch": 69, "duration": 9, "velocity": 117}, {"time": 1298, "pitch": 71, "duration": 6, "velocity": 116}, {"time": 1304, "pitch": 69, "duration": 6, "velocity": 114}, {"time": 1310, "pitch": 67, "duration": 6, "velocity": 119}, {"time": 1316, "pitch": 64, "duration": 36, "velocity": 114}, {"time": 1352, "pitch": 74, "duration": 3, "velocity": 94}, {"time": 1355, "pitch": 76, "duration": 6, "velocity": 113}, {"time": 1361, "pitch": 74, "duration": 6, "velocity": 110}, {"time": 1367, "pitch": 76, "duration": 6, "velocity": 116}, {"time": 1373, "pitch": 76, "duration": 6, "velocity": 110}, {"time": 1379, "pitch": 74, "duration": 15, "velocity": 113}, {"time": 1394, "pitch": 74, "duration": 6, "velocity": 117}, {"time": 1400, "pitch": 74, "duration": 6, "velocity": 114}, {"time": 1406, "pitch": 76, "duration": 6, "velocity": 117}, {"time": 1412, "pitch": 71, "duration": 48, "velocity": 119}, {"time": 1460, "pitch": 71, "duration": 3, "velocity": 108}, {"time": 1463, "pitch": 69, "duration": 3, "velocity": 92}, {"time": 1466, "pitch": 71, "duration": 6, "velocity": 113}, {"time": 1472, "pitch": 71, "duration": 3, "velocity": 107}, {"time": 1475, "pitch": 71, "duration": 6, "velocity": 107}, {"time": 1481, "pitch": 69, "duration": 9, "velocity": 104}, {"time": 1490, "pitch": 71, "duration": 6, "velocity": 107}, {"time": 1496, "pitch": 69, "duration": 3, "velocity": 104}, {"time": 1499, "pitch": 67, "duration": 3, "velocity": 98}, {"time": 1502, "pitch": 67, "duration": 6, "velocity": 107}, {"time": 1508, "pitch": 67, "duration": 33, "velocity": 104}, {"time": 1541, "pitch": 67, "duration": 3, "velocity": 87}, {"time": 1544, "pitch": 67, "duration": 6, "velocity": 102}, {"time": 1550, "pitch": 69, "duration": 3, "velocity": 113}, {"time": 1553, "pitch": 67, "duration": 27, "velocity": 108}, {"time": 1580, "pitch": 64, "duration": 3, "velocity": 93}, {"time": 1583, "pitch": 62, "duration": 3, "velocity": 86}, {"time": 1586, "pitch": 69, "duration": 6, "velocity": 107}, {"time": 1592, "pitch": 64, "duration": 3, "velocity": 93}, {"time": 1595, "pitch": 67, "duration": 5, "velocity": 110}, {"time": 2024, "pitch": 62, "duration": 3, "velocity": 102}, {"time": 2027, "pitch": 62, "duration": 3, "velocity": 96}, {"time": 2030, "pitch": 67, "duration": 18, "velocity": 113}, {"time": 2048, "pitch": 67, "duration": 3, "velocity": 113}, {"time": 2051, "pitch": 67, "duration": 3, "velocity": 102}, {"time": 2054, "pitch": 69, "duration": 6, "velocity": 119}, {"time": 2060, "pitch": 64, "duration": 12, "velocity": 117}, {"time": 2072, "pitch": 64, "duration": 3, "velocity": 113}, {"time": 2075, "pitch": 64, "duration": 3, "velocity": 107}, {"time": 2078, "pitch": 71, "duration": 6, "velocity": 120}, {"time": 2084, "pitch": 66, "duration": 6, "velocity": 119}, {"time": 2090, "pitch": 66, "duration": 6, "velocity": 119}, {"time": 2096, "pitch": 64, "duration": 3, "velocity": 94}, {"time": 2096, "pitch": 64, "duration": 3, "velocity": 117}, {"time": 2099, "pitch": 64, "duration": 6, "velocity": 117}, {"time": 2105, "pitch": 62, "duration": 3, "velocity": 100}, {"time": 2108, "pitch": 64, "duration": 12, "velocity": 113}, {"time": 2120, "pitch": 64, "duration": 3, "velocity": 113}, {"time": 2123, "pitch": 62, "duration": 3, "velocity": 107}, {"time": 2126, "pitch": 64, "duration": 6, "velocity": 116}, {"time": 2132, "pitch": 62, "duration": 3, "velocity": 107}, {"time": 2135, "pitch": 67, "duration": 12, "velocity": 117}, {"time": 2147, "pitch": 62, "duration": 3, "velocity": 108}, {"time": 2150, "pitch": 67, "duration": 3, "velocity": 117}, {"time": 2153, "pitch": 69, "duration": 6, "velocity": 114}, {"time": 2159, "pitch": 69, "duration": 3, "velocity": 117}, {"time": 2162, "pitch": 69, "duration": 6, "velocity": 119}, {"time": 2168, "pitch": 71, "duration": 12, "velocity": 119}, {"time": 2180, "pitch": 62, "duration": 3, "velocity": 113}, {"time": 2183, "pitch": 59, "duration": 33, "velocity": 107}, {"time": 2216, "pitch": 62, "duration": 3, "velocity": 91}, {"time": 2219, "pitch": 62, "duration": 3, "velocity": 110}, {"time": 2222, "pitch": 67, "duration": 12, "velocity": 120}, {"time": 2234, "pitch": 67, "duration": 3, "velocity": 119}, {"time": 2237, "pitch": 64, "duration": 6, "velocity": 114}, {"time": 2243, "pitch": 64, "duration": 3, "velocity": 114}, {"time": 2246, "pitch": 69, "duration": 3, "velocity": 120}, {"time": 2249, "pitch": 69, "duration": 6, "velocity": 110}, {"time": 2255, "pitch": 64, "duration": 3, "velocity": 113}, {"time": 2258, "pitch": 64, "duration": 6, "velocity": 117}, {"time": 2264, "pitch": 64, "duration": 6, "velocity": 113}, {"time": 2270, "pitch": 71, "duration": 6, "velocity": 108}, {"time": 2276, "pitch": 66, "duration": 6, "velocity": 123}, {"time": 2282, "pitch": 66, "duration": 6, "velocity": 123}, {"time": 2288, "pitch": 64, "duration": 3, "velocity": 119}, {"time": 2291, "pitch": 62, "duration": 6, "velocity": 100}, {"time": 2297, "pitch": 64, "duration": 15, "velocity": 116}, {"time": 2312, "pitch": 64, "duration": 3, "velocity": 114}, {"time": 2315, "pitch": 62, "duration": 3, "velocity": 110}, {"time": 2318, "pitch": 64, "duration": 6, "velocity": 117}, {"time": 2324, "pitch": 62, "duration": 3, "velocity": 107}, {"time": 2327, "pitch": 67, "duration": 6, "velocity": 116}, {"time": 2333, "pitch": 64, "duration": 6, "velocity": 110}, {"time": 2339, "pitch": 64, "duration": 15, "velocity": 108}, {"time": 2354, "pitch": 57, "duration": 6, "velocity": 113}, {"time": 2360, "pitch": 57, "duration": 3, "velocity": 108}, {"time": 2363, "pitch": 55, "duration": 15, "velocity": 104}, {"time": 2408, "pitch": 62, "duration": 3, "velocity": 102}, {"time": 2411, "pitch": 62, "duration": 3, "velocity": 96}, {"time": 2414, "pitch": 67, "duration": 18, "velocity": 113}, {"time": 2432, "pitch": 67, "duration": 3, "velocity": 113}, {"time": 2435, "pitch": 67, "duration": 3, "velocity": 102}, {"time": 2438, "pitch": 69, "duration": 6, "velocity": 119}, {"time": 2444, "pitch": 64, "duration": 12, "velocity": 117}, {"time": 2456, "pitch": 64, "duration": 3, "velocity": 113}, {"time": 2459, "pitch": 64, "duration": 3, "velocity": 107}, {"time": 2462, "pitch": 71, "duration": 6, "velocity": 120}, {"time": 2468, "pitch": 66, "duration": 6, "velocity": 119}, {"time": 2474, "pitch": 66, "duration": 6, "velocity": 119}, {"time": 2480, "pitch": 64, "duration": 3, "velocity": 117}, {"time": 2483, "pitch": 64, "duration": 6, "velocity": 117}, {"time": 2489, "pitch": 62, "duration": 3, "velocity": 100}, {"time": 2492, "pitch": 64, "duration": 12, "velocity": 113}, {"time": 2504, "pitch": 64, "duration": 3, "velocity": 113}, {"time": 2507, "pitch": 62, "duration": 3, "velocity": 107}, {"time": 2510, "pitch": 64, "duration": 6, "velocity": 116}, {"time": 2516, "pitch": 62, "duration": 6, "velocity": 107}, {"time": 2522, "pitch": 64, "duration": 6, "velocity": 117}, {"time": 2528, "pitch": 64, "duration": 3, "velocity": 94}, {"time": 2531, "pitch": 67, "duration": 15, "velocity": 114}, {"time": 2546, "pitch": 67, "duration": 6, "velocity": 119}, {"time": 2552, "pitch": 69, "duration": 12, "velocity": 119}, {"time": 2564, "pitch": 62, "duration": 3, "velocity": 113}, {"time": 2567, "pitch": 59, "duration": 33, "velocity": 107}, {"time": 2600, "pitch": 62, "duration": 3, "velocity": 91}, {"time": 2603, "pitch": 62, "duration": 3, "velocity": 110}, {"time": 2606, "pitch": 67, "duration": 18, "velocity": 120}, {"time": 2624, "pitch": 67, "duration": 3, "velocity": 108}, {"time": 2627, "pitch": 67, "duration": 3, "velocity": 107}, {"time": 2630, "pitch": 69, "duration": 6, "velocity": 119}, {"time": 2636, "pitch": 64, "duration": 12, "velocity": 110}, {"time": 2648, "pitch": 64, "duration": 3, "velocity": 114}, {"time": 2651, "pitch": 64, "duration": 3, "velocity": 114}, {"time": 2654, "pitch": 71, "duration": 6, "velocity": 108}, {"time": 2660, "pitch": 66, "duration": 6, "velocity": 123}, {"time": 2666, "pitch": 66, "duration": 6, "velocity": 123}, {"time": 2672, "pitch": 64, "duration": 3, "velocity": 119}, {"time": 2675, "pitch": 62, "duration": 6, "velocity": 100}, {"time": 2681, "pitch": 64, "duration": 15, "velocity": 116}, {"time": 2696, "pitch": 64, "duration": 3, "velocity": 114}, {"time": 2699, "pitch": 62, "duration": 3, "velocity": 110}, {"time": 2702, "pitch": 64, "duration": 6, "velocity": 117}, {"time": 2708, "pitch": 62, "duration": 30, "velocity": 107}, {"time": 2738, "pitch": 57, "duration": 6, "velocity": 113}, {"time": 2744, "pitch": 55, "duration": 6, "velocity": 113}, {"time": 2750, "pitch": 52, "duration": 48, "velocity": 104}]}, {"program": 0, "is_drum": false, "name": "BRIDGE", "notes": [{"time": 548, "pitch": 64, "duration": 6, "velocity": 92}, {"time": 554, "pitch": 66, "duration": 6, "velocity": 86}, {"time": 560, "pitch": 67, "duration": 6, "velocity": 86}, {"time": 566, "pitch": 66, "duration": 6, "velocity": 86}, {"time": 572, "pitch": 64, "duration": 6, "velocity": 85}, {"time": 578, "pitch": 62, "duration": 4, "velocity": 83}, {"time": 740, "pitch": 64, "duration": 6, "velocity": 84}, {"time": 746, "pitch": 66, "duration": 6, "velocity": 86}, {"time": 752, "pitch": 67, "duration": 6, "velocity": 86}, {"time": 758, "pitch": 66, "duration": 6, "velocity": 83}, {"time": 764, "pitch": 64, "duration": 5, "velocity": 91}, {"time": 770, "pitch": 62, "duration": 4, "velocity": 86}, {"time": 836, "pitch": 64, "duration": 6, "velocity": 88}, {"time": 842, "pitch": 67, "duration": 5, "velocity": 86}, {"time": 848, "pitch": 64, "duration": 3, "velocity": 79}, {"time": 851, "pitch": 67, "duration": 3, "velocity": 88}, {"time": 1316, "pitch": 64, "duration": 6, "velocity": 94}, {"time": 1322, "pitch": 66, "duration": 6, "velocity": 90}, {"time": 1328, "pitch": 67, "duration": 7, "velocity": 88}, {"time": 1334, "pitch": 66, "duration": 5, "velocity": 86}, {"time": 1340, "pitch": 64, "duration": 6, "velocity": 87}, {"time": 1346, "pitch": 62, "duration": 8, "velocity": 89}, {"time": 1508, "pitch": 64, "duration": 6, "velocity": 88}, {"time": 1514, "pitch": 66, "duration": 6, "velocity": 86}, {"time": 1520, "pitch": 67, "duration": 6, "velocity": 83}, {"time": 1526, "pitch": 66, "duration": 5, "velocity": 84}, {"time": 1532, "pitch": 64, "duration": 6, "velocity": 83}, {"time": 1538, "pitch": 62, "duration": 8, "velocity": 88}, {"time": 1628, "pitch": 71, "duration": 3, "velocity": 104}, {"time": 1631, "pitch": 71, "duration": 3, "velocity": 102}, {"time": 1634, "pitch": 76, "duration": 6, "velocity": 110}, {"time": 1640, "pitch": 74, "duration": 6, "velocity": 110}, {"time": 1646, "pitch": 64, "duration": 18, "velocity": 114}, {"time": 1664, "pitch": 67, "duration": 3, "velocity": 96}, {"time": 1667, "pitch": 69, "duration": 3, "velocity": 107}, {"time": 1670, "pitch": 69, "duration": 12, "velocity": 113}, {"time": 1682, "pitch": 71, "duration": 3, "velocity": 113}, {"time": 1685, "pitch": 74, "duration": 9, "velocity": 113}, {"time": 1694, "pitch": 71, "duration": 30, "velocity": 107}, {"time": 1724, "pitch": 69, "duration": 3, "velocity": 94}, {"time": 1727, "pitch": 71, "duration": 3, "velocity": 98}, {"time": 1730, "pitch": 76, "duration": 9, "velocity": 110}, {"time": 1739, "pitch": 74, "duration": 3, "velocity": 100}, {"time": 1742, "pitch": 64, "duration": 18, "velocity": 104}, {"time": 1760, "pitch": 67, "duration": 3, "velocity": 100}, {"time": 1763, "pitch": 69, "duration": 3, "velocity": 110}, {"time": 1766, "pitch": 69, "duration": 12, "velocity": 114}, {"time": 1778, "pitch": 71, "duration": 3, "velocity": 114}, {"time": 1781, "pitch": 74, "duration": 9, "velocity": 104}, {"time": 1790, "pitch": 71, "duration": 36, "velocity": 113}, {"time": 1826, "pitch": 83, "duration": 6, "velocity": 114}, {"time": 1832, "pitch": 81, "duration": 6, "velocity": 113}, {"time": 1838, "pitch": 81, "duration": 6, "velocity": 116}, {"time": 1844, "pitch": 79, "duration": 18, "velocity": 116}, {"time": 1862, "pitch": 81, "duration": 12, "velocity": 117}, {"time": 1874, "pitch": 81, "duration": 3, "velocity": 114}, {"time": 1877, "pitch": 83, "duration": 6, "velocity": 108}, {"time": 1883, "pitch": 86, "duration": 3, "velocity": 107}, {"time": 1886, "pitch": 86, "duration": 6, "velocity": 113}, {"time": 1892, "pitch": 83, "duration": 24, "velocity": 102}, {"time": 1916, "pitch": 88, "duration": 6, "velocity": 113}, {"time": 1922, "pitch": 88, "duration": 6, "velocity": 116}, {"time": 1928, "pitch": 86, "duration": 6, "velocity": 117}, {"time": 1934, "pitch": 81, "duration": 18, "velocity": 119}, {"time": 1952, "pitch": 79, "duration": 6, "velocity": 107}, {"time": 1958, "pitch": 81, "duration": 6, "velocity": 113}, {"time": 1964, "pitch": 79, "duration": 6, "velocity": 108}, {"time": 1970, "pitch": 81, "duration": 6, "velocity": 114}, {"time": 1976, "pitch": 83, "duration": 6, "velocity": 110}, {"time": 1982, "pitch": 83, "duration": 6, "velocity": 107}, {"time": 1988, "pitch": 76, "duration": 8, "velocity": 116}, {"time": 2111, "pitch": 86, "duration": 1, "velocity": 94}, {"time": 2114, "pitch": 86, "duration": 2, "velocity": 117}, {"time": 2120, "pitch": 83, "duration": 2, "velocity": 107}, {"time": 2123, "pitch": 81, "duration": 2, "velocity": 96}, {"time": 2126, "pitch": 83, "duration": 4, "velocity": 114}, {"time": 2204, "pitch": 74, "duration": 4, "velocity": 116}, {"time": 2210, "pitch": 83, "duration": 3, "velocity": 114}, {"time": 2216, "pitch": 81, "duration": 4, "velocity": 117}, {"time": 2222, "pitch": 83, "duration": 3, "velocity": 117}, {"time": 2297, "pitch": 86, "duration": 1, "velocity": 108}, {"time": 2303, "pitch": 86, "duration": 1, "velocity": 108}, {"time": 2306, "pitch": 86, "duration": 2, "velocity": 116}, {"time": 2309, "pitch": 83, "duration": 2, "velocity": 110}, {"time": 2315, "pitch": 81, "duration": 2, "velocity": 110}, {"time": 2318, "pitch": 83, "duration": 3, "velocity": 113}, {"time": 2393, "pitch": 67, "duration": 6, "velocity": 104}, {"time": 2399, "pitch": 69, "duration": 3, "velocity": 108}, {"time": 2402, "pitch": 71, "duration": 3, "velocity": 116}, {"time": 2405, "pitch": 74, "duration": 6, "velocity": 116}, {"time": 2411, "pitch": 71, "duration": 3, "velocity": 110}, {"time": 2414, "pitch": 67, "duration": 36, "velocity": 114}, {"time": 2414, "pitch": 71, "duration": 36, "velocity": 117}, {"time": 2450, "pitch": 69, "duration": 12, "velocity": 92}, {"time": 2462, "pitch": 71, "duration": 39, "velocity": 91}, {"time": 2501, "pitch": 74, "duration": 6, "velocity": 113}, {"time": 2507, "pitch": 69, "duration": 3, "velocity": 100}, {"time": 2510, "pitch": 71, "duration": 75, "velocity": 116}, {"time": 2585, "pitch": 71, "duration": 3, "velocity": 108}, {"time": 2588, "pitch": 69, "duration": 3, "velocity": 102}, {"time": 2591, "pitch": 71, "duration": 3, "velocity": 104}, {"time": 2594, "pitch": 74, "duration": 3, "velocity": 117}, {"time": 2597, "pitch": 71, "duration": 6, "velocity": 113}, {"time": 2603, "pitch": 69, "duration": 3, "velocity": 96}, {"time": 2606, "pitch": 71, "duration": 78, "velocity": 110}, {"time": 2684, "pitch": 69, "duration": 6, "velocity": 114}, {"time": 2690, "pitch": 69, "duration": 3, "velocity": 114}, {"time": 2693, "pitch": 67, "duration": 6, "velocity": 113}, {"time": 2699, "pitch": 62, "duration": 3, "velocity": 102}, {"time": 2702, "pitch": 64, "duration": 8, "velocity": 110}]}, {"program": 0, "is_drum": false, "name": "PIANO", "notes": [{"time": 110, "pitch": 52, "duration": 41, "velocity": 84}, {"time": 110, "pitch": 59, "duration": 40, "velocity": 83}, {"time": 110, "pitch": 64, "duration": 37, "velocity": 88}, {"time": 110, "pitch": 67, "duration": 42, "velocity": 85}, {"time": 158, "pitch": 50, "duration": 43, "velocity": 79}, {"time": 158, "pitch": 57, "duration": 43, "velocity": 75}, {"time": 158, "pitch": 62, "duration": 45, "velocity": 85}, {"time": 158, "pitch": 66, "duration": 43, "velocity": 80}, {"time": 206, "pitch": 52, "duration": 41, "velocity": 77}, {"time": 206, "pitch": 59, "duration": 42, "velocity": 71}, {"time": 206, "pitch": 64, "duration": 42, "velocity": 71}, {"time": 206, "pitch": 67, "duration": 43, "velocity": 75}, {"time": 254, "pitch": 50, "duration": 43, "velocity": 78}, {"time": 254, "pitch": 57, "duration": 42, "velocity": 78}, {"time": 254, "pitch": 62, "duration": 44, "velocity": 85}, {"time": 254, "pitch": 66, "duration": 43, "velocity": 79}, {"time": 299, "pitch": 67, "duration": 40, "velocity": 79}, {"time": 302, "pitch": 48, "duration": 38, "velocity": 82}, {"time": 302, "pitch": 64, "duration": 37, "velocity": 83}, {"time": 302, "pitch": 74, "duration": 37, "velocity": 86}, {"time": 350, "pitch": 50, "duration": 38, "velocity": 84}, {"time": 350, "pitch": 62, "duration": 38, "velocity": 80}, {"time": 350, "pitch": 66, "duration": 38, "velocity": 83}, {"time": 350, "pitch": 71, "duration": 37, "velocity": 83}, {"time": 398, "pitch": 52, "duration": 42, "velocity": 80}, {"time": 398, "pitch": 59, "duration": 42, "velocity": 76}, {"time": 398, "pitch": 64, "duration": 42, "velocity": 78}, {"time": 398, "pitch": 67, "duration": 42, "velocity": 79}, {"time": 446, "pitch": 50, "duration": 37, "velocity": 82}, {"time": 446, "pitch": 57, "duration": 36, "velocity": 79}, {"time": 446, "pitch": 62, "duration": 37, "velocity": 83}, {"time": 446, "pitch": 66, "duration": 37, "velocity": 78}, {"time": 494, "pitch": 55, "duration": 24, "velocity": 86}, {"time": 500, "pitch": 59, "duration": 17, "velocity": 79}, {"time": 506, "pitch": 67, "duration": 11, "velocity": 87}, {"time": 512, "pitch": 62, "duration": 6, "velocity": 85}, {"time": 518, "pitch": 54, "duration": 24, "velocity": 81}, {"time": 524, "pitch": 57, "duration": 18, "velocity": 73}, {"time": 530, "pitch": 66, "duration": 12, "velocity": 86}, {"time": 536, "pitch": 62, "duration": 6, "velocity": 80}, {"time": 542, "pitch": 52, "duration": 47, "velocity": 82}, {"time": 548, "pitch": 55, "duration": 32, "velocity": 82}, {"time": 554, "pitch": 64, "duration": 28, "velocity": 83}, {"time": 560, "pitch": 59, "duration": 27, "velocity": 77}, {"time": 590, "pitch": 48, "duration": 23, "velocity": 90}, {"time": 596, "pitch": 55, "duration": 6, "velocity": 79}, {"time": 602, "pitch": 60, "duration": 11, "velocity": 78}, {"time": 608, "pitch": 55, "duration": 4, "velocity": 30}, {"time": 608, "pitch": 64, "duration": 6, "velocity": 81}, {"time": 614, "pitch": 50, "duration": 24, "velocity": 87}, {"time": 620, "pitch": 57, "duration": 17, "velocity": 75}, {"time": 626, "pitch": 66, "duration": 11, "velocity": 85}, {"time": 638, "pitch": 43, "duration": 40, "velocity": 88}, {"time": 644, "pitch": 50, "duration": 37, "velocity": 73}, {"time": 650, "pitch": 57, "duration": 6, "velocity": 77}, {"time": 656, "pitch": 59, "duration": 18, "velocity": 85}, {"time": 674, "pitch": 57, "duration": 15, "velocity": 67}, {"time": 686, "pitch": 43, "duration": 16, "velocity": 87}, {"time": 692, "pitch": 50, "duration": 11, "velocity": 81}, {"time": 698, "pitch": 57, "duration": 8, "velocity": 81}, {"time": 704, "pitch": 59, "duration": 11, "velocity": 85}, {"time": 710, "pitch": 42, "duration": 17, "velocity": 84}, {"time": 716, "pitch": 54, "duration": 11, "velocity": 73}, {"time": 722, "pitch": 57, "duration": 14, "velocity": 74}, {"time": 728, "pitch": 62, "duration": 6, "velocity": 70}, {"time": 734, "pitch": 52, "duration": 41, "velocity": 84}, {"time": 740, "pitch": 59, "duration": 24, "velocity": 67}, {"time": 746, "pitch": 62, "duration": 18, "velocity": 71}, {"time": 752, "pitch": 67, "duration": 11, "velocity": 44}, {"time": 764, "pitch": 64, "duration": 12, "velocity": 87}, {"time": 770, "pitch": 59, "duration": 5, "velocity": 74}, {"time": 776, "pitch": 62, "duration": 5, "velocity": 77}, {"time": 782, "pitch": 48, "duration": 19, "velocity": 87}, {"time": 788, "pitch": 55, "duration": 13, "velocity": 71}, {"time": 791, "pitch": 60, "duration": 4, "velocity": 40}, {"time": 794, "pitch": 67, "duration": 10, "velocity": 83}, {"time": 800, "pitch": 60, "duration": 6, "velocity": 72}, {"time": 806, "pitch": 50, "duration": 19, "velocity": 84}, {"time": 812, "pitch": 57, "duration": 13, "velocity": 68}, {"time": 818, "pitch": 62, "duration": 11, "velocity": 79}, {"time": 824, "pitch": 66, "duration": 6, "velocity": 78}, {"time": 830, "pitch": 52, "duration": 40, "velocity": 86}, {"time": 836, "pitch": 59, "duration": 33, "velocity": 76}, {"time": 842, "pitch": 64, "duration": 24, "velocity": 78}, {"time": 848, "pitch": 67, "duration": 17, "velocity": 77}, {"time": 866, "pitch": 66, "duration": 6, "velocity": 85}, {"time": 872, "pitch": 64, "duration": 4, "velocity": 83}, {"time": 878, "pitch": 48, "duration": 19, "velocity": 100}, {"time": 884, "pitch": 55, "duration": 18, "velocity": 84}, {"time": 887, "pitch": 60, "duration": 3, "velocity": 74}, {"time": 890, "pitch": 64, "duration": 11, "velocity": 96}, {"time": 890, "pitch": 67, "duration": 11, "velocity": 100}, {"time": 896, "pitch": 60, "duration": 6, "velocity": 82}, {"time": 902, "pitch": 50, "duration": 19, "velocity": 88}, {"time": 908, "pitch": 57, "duration": 8, "velocity": 82}, {"time": 914, "pitch": 62, "duration": 10, "velocity": 89}, {"time": 914, "pitch": 69, "duration": 10, "velocity": 100}, {"time": 920, "pitch": 57, "duration": 6, "velocity": 79}, {"time": 920, "pitch": 66, "duration": 5, "velocity": 83}, {"time": 926, "pitch": 52, "duration": 19, "velocity": 85}, {"time": 926, "pitch": 64, "duration": 9, "velocity": 94}, {"time": 926, "pitch": 67, "duration": 7, "velocity": 91}, {"time": 932, "pitch": 59, "duration": 7, "velocity": 73}, {"time": 938, "pitch": 62, "duration": 10, "velocity": 91}, {"time": 938, "pitch": 67, "duration": 11, "velocity": 100}, {"time": 944, "pitch": 59, "duration": 6, "velocity": 78}, {"time": 950, "pitch": 50, "duration": 15, "velocity": 85}, {"time": 950, "pitch": 62, "duration": 9, "velocity": 90}, {"time": 950, "pitch": 66, "duration": 6, "velocity": 93}, {"time": 956, "pitch": 59, "duration": 8, "velocity": 78}, {"time": 962, "pitch": 62, "duration": 11, "velocity": 107}, {"time": 962, "pitch": 66, "duration": 8, "velocity": 113}, {"time": 968, "pitch": 50, "duration": 6, "velocity": 86}, {"time": 974, "pitch": 48, "duration": 19, "velocity": 87}, {"time": 974, "pitch": 60, "duration": 7, "velocity": 88}, {"time": 974, "pitch": 67, "duration": 6, "velocity": 91}, {"time": 980, "pitch": 55, "duration": 7, "velocity": 74}, {"time": 986, "pitch": 60, "duration": 7, "velocity": 94}, {"time": 986, "pitch": 67, "duration": 11, "velocity": 102}, {"time": 992, "pitch": 55, "duration": 6, "velocity": 83}, {"time": 998, "pitch": 50, "duration": 15, "velocity": 88}, {"time": 998, "pitch": 62, "duration": 9, "velocity": 93}, {"time": 998, "pitch": 69, "duration": 7, "velocity": 91}, {"time": 1004, "pitch": 57, "duration": 8, "velocity": 78}, {"time": 1010, "pitch": 62, "duration": 12, "velocity": 98}, {"time": 1010, "pitch": 69, "duration": 9, "velocity": 102}, {"time": 1016, "pitch": 50, "duration": 6, "velocity": 90}, {"time": 1022, "pitch": 43, "duration": 42, "velocity": 81}, {"time": 1022, "pitch": 59, "duration": 16, "velocity": 90}, {"time": 1022, "pitch": 67, "duration": 8, "velocity": 90}, {"time": 1028, "pitch": 50, "duration": 36, "velocity": 78}, {"time": 1034, "pitch": 55, "duration": 9, "velocity": 83}, {"time": 1040, "pitch": 57, "duration": 6, "velocity": 88}, {"time": 1046, "pitch": 59, "duration": 6, "velocity": 89}, {"time": 1052, "pitch": 55, "duration": 18, "velocity": 86}, {"time": 1058, "pitch": 62, "duration": 6, "velocity": 107}, {"time": 1064, "pitch": 67, "duration": 13, "velocity": 104}, {"time": 1067, "pitch": 62, "duration": 1, "velocity": 38}, {"time": 1070, "pitch": 48, "duration": 18, "velocity": 88}, {"time": 1070, "pitch": 60, "duration": 6, "velocity": 86}, {"time": 1070, "pitch": 64, "duration": 6, "velocity": 91}, {"time": 1076, "pitch": 55, "duration": 7, "velocity": 77}, {"time": 1082, "pitch": 62, "duration": 8, "velocity": 94}, {"time": 1082, "pitch": 67, "duration": 10, "velocity": 104}, {"time": 1088, "pitch": 55, "duration": 6, "velocity": 73}, {"time": 1094, "pitch": 50, "duration": 19, "velocity": 88}, {"time": 1094, "pitch": 62, "duration": 7, "velocity": 94}, {"time": 1094, "pitch": 69, "duration": 7, "velocity": 91}, {"time": 1100, "pitch": 57, "duration": 7, "velocity": 78}, {"time": 1106, "pitch": 62, "duration": 7, "velocity": 107}, {"time": 1106, "pitch": 69, "duration": 10, "velocity": 107}, {"time": 1112, "pitch": 57, "duration": 6, "velocity": 81}, {"time": 1118, "pitch": 52, "duration": 19, "velocity": 86}, {"time": 1118, "pitch": 64, "duration": 9, "velocity": 100}, {"time": 1118, "pitch": 67, "duration": 7, "velocity": 107}, {"time": 1124, "pitch": 59, "duration": 19, "velocity": 78}, {"time": 1130, "pitch": 62, "duration": 6, "velocity": 100}, {"time": 1130, "pitch": 67, "duration": 6, "velocity": 100}, {"time": 1136, "pitch": 64, "duration": 12, "velocity": 91}, {"time": 1142, "pitch": 50, "duration": 24, "velocity": 89}, {"time": 1148, "pitch": 57, "duration": 11, "velocity": 82}, {"time": 1154, "pitch": 67, "duration": 6, "velocity": 116}, {"time": 1160, "pitch": 66, "duration": 6, "velocity": 93}, {"time": 1166, "pitch": 48, "duration": 19, "velocity": 88}, {"time": 1166, "pitch": 60, "duration": 8, "velocity": 88}, {"time": 1166, "pitch": 67, "duration": 6, "velocity": 89}, {"time": 1172, "pitch": 55, "duration": 7, "velocity": 73}, {"time": 1178, "pitch": 60, "duration": 10, "velocity": 100}, {"time": 1178, "pitch": 67, "duration": 10, "velocity": 100}, {"time": 1184, "pitch": 55, "duration": 6, "velocity": 79}, {"time": 1190, "pitch": 50, "duration": 19, "velocity": 86}, {"time": 1190, "pitch": 67, "duration": 11, "velocity": 98}, {"time": 1196, "pitch": 57, "duration": 12, "velocity": 82}, {"time": 1202, "pitch": 62, "duration": 6, "velocity": 88}, {"time": 1208, "pitch": 64, "duration": 7, "velocity": 87}, {"time": 1214, "pitch": 52, "duration": 32, "velocity": 88}, {"time": 1220, "pitch": 59, "duration": 30, "velocity": 68}, {"time": 1226, "pitch": 67, "duration": 6, "velocity": 83}, {"time": 1232, "pitch": 64, "duration": 8, "velocity": 81}, {"time": 1244, "pitch": 62, "duration": 11, "velocity": 80}, {"time": 1250, "pitch": 52, "duration": 6, "velocity": 85}, {"time": 1256, "pitch": 59, "duration": 3, "velocity": 77}, {"time": 1262, "pitch": 43, "duration": 19, "velocity": 87}, {"time": 1268, "pitch": 50, "duration": 12, "velocity": 70}, {"time": 1274, "pitch": 55, "duration": 9, "velocity": 80}, {"time": 1280, "pitch": 59, "duration": 7, "velocity": 78}, {"time": 1286, "pitch": 50, "duration": 23, "velocity": 87}, {"time": 1292, "pitch": 57, "duration": 1, "velocity": 76}, {"time": 1298, "pitch": 66, "duration": 13, "velocity": 89}, {"time": 1304, "pitch": 57, "duration": 4, "velocity": 83}, {"time": 1310, "pitch": 52, "duration": 42, "velocity": 88}, {"time": 1316, "pitch": 59, "duration": 8, "velocity": 69}, {"time": 1322, "pitch": 67, "duration": 6, "velocity": 88}, {"time": 1328, "pitch": 62, "duration": 12, "velocity": 80}, {"time": 1340, "pitch": 64, "duration": 12, "velocity": 86}, {"time": 1346, "pitch": 57, "duration": 6, "velocity": 76}, {"time": 1352, "pitch": 62, "duration": 7, "velocity": 86}, {"time": 1358, "pitch": 48, "duration": 18, "velocity": 88}, {"time": 1364, "pitch": 55, "duration": 18, "velocity": 74}, {"time": 1370, "pitch": 60, "duration": 6, "velocity": 84}, {"time": 1376, "pitch": 64, "duration": 8, "velocity": 91}, {"time": 1382, "pitch": 50, "duration": 18, "velocity": 88}, {"time": 1388, "pitch": 57, "duration": 13, "velocity": 86}, {"time": 1394, "pitch": 62, "duration": 6, "velocity": 87}, {"time": 1400, "pitch": 66, "duration": 6, "velocity": 83}, {"time": 1406, "pitch": 43, "duration": 42, "velocity": 93}, {"time": 1412, "pitch": 50, "duration": 37, "velocity": 77}, {"time": 1418, "pitch": 59, "duration": 18, "velocity": 80}, {"time": 1424, "pitch": 55, "duration": 14, "velocity": 77}, {"time": 1436, "pitch": 57, "duration": 12, "velocity": 83}, {"time": 1442, "pitch": 55, "duration": 6, "velocity": 88}, {"time": 1448, "pitch": 59, "duration": 7, "velocity": 82}, {"time": 1454, "pitch": 43, "duration": 18, "velocity": 89}, {"time": 1460, "pitch": 50, "duration": 18, "velocity": 80}, {"time": 1466, "pitch": 59, "duration": 6, "velocity": 86}, {"time": 1472, "pitch": 62, "duration": 6, "velocity": 88}, {"time": 1478, "pitch": 42, "duration": 18, "velocity": 79}, {"time": 1478, "pitch": 57, "duration": 8, "velocity": 84}, {"time": 1478, "pitch": 66, "duration": 12, "velocity": 84}, {"time": 1484, "pitch": 50, "duration": 12, "velocity": 70}, {"time": 1490, "pitch": 54, "duration": 6, "velocity": 81}, {"time": 1490, "pitch": 62, "duration": 6, "velocity": 88}, {"time": 1496, "pitch": 66, "duration": 7, "velocity": 83}, {"time": 1499, "pitch": 62, "duration": 1, "velocity": 36}, {"time": 1502, "pitch": 52, "duration": 42, "velocity": 85}, {"time": 1502, "pitch": 64, "duration": 12, "velocity": 84}, {"time": 1508, "pitch": 59, "duration": 24, "velocity": 75}, {"time": 1514, "pitch": 62, "duration": 6, "velocity": 83}, {"time": 1520, "pitch": 64, "duration": 12, "velocity": 86}, {"time": 1532, "pitch": 67, "duration": 11, "velocity": 86}, {"time": 1538, "pitch": 59, "duration": 6, "velocity": 81}, {"time": 1544, "pitch": 62, "duration": 6, "velocity": 82}, {"time": 1550, "pitch": 48, "duration": 18, "velocity": 83}, {"time": 1550, "pitch": 60, "duration": 9, "velocity": 84}, {"time": 1556, "pitch": 55, "duration": 7, "velocity": 81}, {"time": 1562, "pitch": 60, "duration": 12, "velocity": 89}, {"time": 1568, "pitch": 55, "duration": 6, "velocity": 74}, {"time": 1574, "pitch": 50, "duration": 19, "velocity": 81}, {"time": 1574, "pitch": 62, "duration": 6, "velocity": 89}, {"time": 1580, "pitch": 57, "duration": 9, "velocity": 76}, {"time": 1586, "pitch": 62, "duration": 12, "velocity": 96}, {"time": 1592, "pitch": 57, "duration": 1, "velocity": 81}, {"time": 1598, "pitch": 52, "duration": 42, "velocity": 85}, {"time": 1604, "pitch": 59, "duration": 25, "velocity": 73}, {"time": 1610, "pitch": 62, "duration": 6, "velocity": 87}, {"time": 1616, "pitch": 67, "duration": 7, "velocity": 87}, {"time": 1622, "pitch": 64, "duration": 17, "velocity": 84}, {"time": 1634, "pitch": 59, "duration": 5, "velocity": 87}, {"time": 1640, "pitch": 62, "duration": 2, "velocity": 84}, {"time": 1646, "pitch": 48, "duration": 19, "velocity": 96}, {"time": 1646, "pitch": 60, "duration": 6, "velocity": 90}, {"time": 1652, "pitch": 55, "duration": 7, "velocity": 73}, {"time": 1658, "pitch": 60, "duration": 13, "velocity": 108}, {"time": 1664, "pitch": 55, "duration": 6, "velocity": 74}, {"time": 1664, "pitch": 64, "duration": 12, "velocity": 96}, {"time": 1670, "pitch": 50, "duration": 22, "velocity": 89}, {"time": 1676, "pitch": 57, "duration": 7, "velocity": 86}, {"time": 1679, "pitch": 62, "duration": 2, "velocity": 88}, {"time": 1682, "pitch": 66, "duration": 5, "velocity": 123}, {"time": 1688, "pitch": 57, "duration": 3, "velocity": 38}, {"time": 1688, "pitch": 62, "duration": 5, "velocity": 88}, {"time": 1694, "pitch": 52, "duration": 7, "velocity": 86}, {"time": 1694, "pitch": 59, "duration": 10, "velocity": 89}, {"time": 1694, "pitch": 67, "duration": 10, "velocity": 87}, {"time": 1703, "pitch": 52, "duration": 24, "velocity": 88}, {"time": 1706, "pitch": 62, "duration": 6, "velocity": 96}, {"time": 1712, "pitch": 64, "duration": 3, "velocity": 83}, {"time": 1715, "pitch": 59, "duration": 6, "velocity": 89}, {"time": 1715, "pitch": 67, "duration": 6, "velocity": 100}, {"time": 1721, "pitch": 62, "duration": 4, "velocity": 84}, {"time": 1724, "pitch": 64, "duration": 10, "velocity": 61}, {"time": 1730, "pitch": 52, "duration": 10, "velocity": 100}, {"time": 1736, "pitch": 62, "duration": 4, "velocity": 89}, {"time": 1739, "pitch": 67, "duration": 2, "velocity": 86}, {"time": 1742, "pitch": 48, "duration": 19, "velocity": 86}, {"time": 1742, "pitch": 60, "duration": 9, "velocity": 96}, {"time": 1742, "pitch": 64, "duration": 3, "velocity": 100}, {"time": 1742, "pitch": 67, "duration": 9, "velocity": 84}, {"time": 1751, "pitch": 55, "duration": 4, "velocity": 73}, {"time": 1754, "pitch": 60, "duration": 6, "velocity": 102}, {"time": 1754, "pitch": 67, "duration": 6, "velocity": 104}, {"time": 1760, "pitch": 55, "duration": 6, "velocity": 74}, {"time": 1760, "pitch": 62, "duration": 5, "velocity": 86}, {"time": 1766, "pitch": 50, "duration": 19, "velocity": 88}, {"time": 1766, "pitch": 62, "duration": 8, "velocity": 88}, {"time": 1766, "pitch": 67, "duration": 9, "velocity": 96}, {"time": 1772, "pitch": 57, "duration": 6, "velocity": 78}, {"time": 1778, "pitch": 62, "duration": 11, "velocity": 94}, {"time": 1778, "pitch": 69, "duration": 6, "velocity": 96}, {"time": 1784, "pitch": 57, "duration": 5, "velocity": 81}, {"time": 1790, "pitch": 52, "duration": 22, "velocity": 84}, {"time": 1790, "pitch": 59, "duration": 9, "velocity": 89}, {"time": 1790, "pitch": 67, "duration": 8, "velocity": 90}, {"time": 1802, "pitch": 59, "duration": 7, "velocity": 93}, {"time": 1802, "pitch": 67, "duration": 7, "velocity": 93}, {"time": 1808, "pitch": 62, "duration": 4, "velocity": 86}, {"time": 1814, "pitch": 52, "duration": 11, "velocity": 88}, {"time": 1814, "pitch": 59, "duration": 6, "velocity": 100}, {"time": 1814, "pitch": 67, "duration": 7, "velocity": 93}, {"time": 1820, "pitch": 62, "duration": 5, "velocity": 88}, {"time": 1826, "pitch": 50, "duration": 11, "velocity": 87}, {"time": 1826, "pitch": 60, "duration": 6, "velocity": 88}, {"time": 1826, "pitch": 67, "duration": 5, "velocity": 94}, {"time": 1832, "pitch": 64, "duration": 5, "velocity": 86}, {"time": 1838, "pitch": 48, "duration": 18, "velocity": 88}, {"time": 1838, "pitch": 60, "duration": 8, "velocity": 90}, {"time": 1838, "pitch": 64, "duration": 8, "velocity": 88}, {"time": 1838, "pitch": 67, "duration": 7, "velocity": 93}, {"time": 1847, "pitch": 55, "duration": 4, "velocity": 64}, {"time": 1850, "pitch": 60, "duration": 7, "velocity": 90}, {"time": 1850, "pitch": 64, "duration": 11, "velocity": 96}, {"time": 1850, "pitch": 67, "duration": 11, "velocity": 90}, {"time": 1856, "pitch": 55, "duration": 6, "velocity": 79}, {"time": 1862, "pitch": 50, "duration": 14, "velocity": 85}, {"time": 1862, "pitch": 62, "duration": 9, "velocity": 88}, {"time": 1862, "pitch": 66, "duration": 8, "velocity": 89}, {"time": 1862, "pitch": 69, "duration": 8, "velocity": 88}, {"time": 1868, "pitch": 57, "duration": 6, "velocity": 71}, {"time": 1874, "pitch": 62, "duration": 11, "velocity": 91}, {"time": 1874, "pitch": 66, "duration": 6, "velocity": 100}, {"time": 1874, "pitch": 69, "duration": 7, "velocity": 92}, {"time": 1880, "pitch": 52, "duration": 1, "velocity": 85}, {"time": 1886, "pitch": 52, "duration": 43, "velocity": 86}, {"time": 1886, "pitch": 59, "duration": 5, "velocity": 93}, {"time": 1886, "pitch": 64, "duration": 9, "velocity": 93}, {"time": 1886, "pitch": 67, "duration": 10, "velocity": 91}, {"time": 1895, "pitch": 59, "duration": 20, "velocity": 78}, {"time": 1898, "pitch": 62, "duration": 3, "velocity": 94}, {"time": 1901, "pitch": 64, "duration": 2, "velocity": 88}, {"time": 1904, "pitch": 67, "duration": 5, "velocity": 88}, {"time": 1910, "pitch": 64, "duration": 9, "velocity": 98}, {"time": 1910, "pitch": 71, "duration": 5, "velocity": 100}, {"time": 1916, "pitch": 67, "duration": 3, "velocity": 86}, {"time": 1919, "pitch": 59, "duration": 4, "velocity": 84}, {"time": 1922, "pitch": 62, "duration": 6, "velocity": 104}, {"time": 1922, "pitch": 67, "duration": 6, "velocity": 108}, {"time": 1928, "pitch": 59, "duration": 1, "velocity": 85}, {"time": 1928, "pitch": 64, "duration": 5, "velocity": 87}, {"time": 1934, "pitch": 48, "duration": 18, "velocity": 90}, {"time": 1934, "pitch": 60, "duration": 8, "velocity": 91}, {"time": 1934, "pitch": 64, "duration": 9, "velocity": 96}, {"time": 1934, "pitch": 67, "duration": 7, "velocity": 102}, {"time": 1943, "pitch": 55, "duration": 4, "velocity": 77}, {"time": 1946, "pitch": 60, "duration": 6, "velocity": 100}, {"time": 1946, "pitch": 64, "duration": 10, "velocity": 96}, {"time": 1946, "pitch": 67, "duration": 8, "velocity": 107}, {"time": 1952, "pitch": 55, "duration": 6, "velocity": 80}, {"time": 1958, "pitch": 50, "duration": 19, "velocity": 85}, {"time": 1958, "pitch": 62, "duration": 9, "velocity": 90}, {"time": 1958, "pitch": 66, "duration": 8, "velocity": 103}, {"time": 1964, "pitch": 57, "duration": 7, "velocity": 78}, {"time": 1970, "pitch": 62, "duration": 8, "velocity": 94}, {"time": 1970, "pitch": 66, "duration": 4, "velocity": 100}, {"time": 1970, "pitch": 69, "duration": 6, "velocity": 94}, {"time": 1976, "pitch": 57, "duration": 5, "velocity": 79}, {"time": 1982, "pitch": 52, "duration": 41, "velocity": 86}, {"time": 1982, "pitch": 59, "duration": 9, "velocity": 88}, {"time": 1982, "pitch": 64, "duration": 9, "velocity": 91}, {"time": 1982, "pitch": 67, "duration": 8, "velocity": 88}, {"time": 1994, "pitch": 59, "duration": 10, "velocity": 90}, {"time": 1994, "pitch": 64, "duration": 10, "velocity": 102}, {"time": 1994, "pitch": 67, "duration": 9, "velocity": 93}, {"time": 2006, "pitch": 59, "duration": 9, "velocity": 96}, {"time": 2006, "pitch": 64, "duration": 9, "velocity": 100}, {"time": 2006, "pitch": 67, "duration": 8, "velocity": 90}, {"time": 2018, "pitch": 59, "duration": 4, "velocity": 98}, {"time": 2018, "pitch": 64, "duration": 5, "velocity": 104}, {"time": 2018, "pitch": 67, "duration": 5, "velocity": 91}, {"time": 2030, "pitch": 48, "duration": 18, "velocity": 104}, {"time": 2030, "pitch": 60, "duration": 6, "velocity": 100}, {"time": 2030, "pitch": 64, "duration": 8, "velocity": 107}, {"time": 2030, "pitch": 67, "duration": 7, "velocity": 108}, {"time": 2039, "pitch": 55, "duration": 5, "velocity": 67}, {"time": 2042, "pitch": 60, "duration": 6, "velocity": 110}, {"time": 2042, "pitch": 67, "duration": 8, "velocity": 114}, {"time": 2048, "pitch": 55, "duration": 6, "velocity": 81}, {"time": 2048, "pitch": 64, "duration": 4, "velocity": 77}, {"time": 2054, "pitch": 50, "duration": 20, "velocity": 87}, {"time": 2054, "pitch": 62, "duration": 9, "velocity": 92}, {"time": 2054, "pitch": 66, "duration": 9, "velocity": 109}, {"time": 2054, "pitch": 69, "duration": 8, "velocity": 104}, {"time": 2063, "pitch": 57, "duration": 14, "velocity": 84}, {"time": 2066, "pitch": 62, "duration": 4, "velocity": 108}, {"time": 2069, "pitch": 66, "duration": 2, "velocity": 100}, {"time": 2072, "pitch": 69, "duration": 4, "velocity": 108}, {"time": 2078, "pitch": 52, "duration": 15, "velocity": 86}, {"time": 2078, "pitch": 59, "duration": 7, "velocity": 91}, {"time": 2078, "pitch": 64, "duration": 7, "velocity": 104}, {"time": 2078, "pitch": 67, "duration": 8, "velocity": 102}, {"time": 2090, "pitch": 59, "duration": 5, "velocity": 104}, {"time": 2090, "pitch": 64, "duration": 10, "velocity": 113}, {"time": 2090, "pitch": 67, "duration": 11, "velocity": 107}, {"time": 2096, "pitch": 52, "duration": 5, "velocity": 88}, {"time": 2102, "pitch": 50, "duration": 23, "velocity": 91}, {"time": 2102, "pitch": 62, "duration": 9, "velocity": 91}, {"time": 2102, "pitch": 66, "duration": 9, "velocity": 100}, {"time": 2102, "pitch": 69, "duration": 9, "velocity": 98}, {"time": 2111, "pitch": 57, "duration": 5, "velocity": 84}, {"time": 2114, "pitch": 62, "duration": 9, "velocity": 110}, {"time": 2114, "pitch": 69, "duration": 6, "velocity": 104}, {"time": 2120, "pitch": 67, "duration": 4, "velocity": 77}, {"time": 2126, "pitch": 48, "duration": 19, "velocity": 89}, {"time": 2126, "pitch": 60, "duration": 8, "velocity": 93}, {"time": 2126, "pitch": 64, "duration": 8, "velocity": 108}, {"time": 2126, "pitch": 67, "duration": 8, "velocity": 98}, {"time": 2132, "pitch": 55, "duration": 5, "velocity": 74}, {"time": 2138, "pitch": 60, "duration": 7, "velocity": 107}, {"time": 2138, "pitch": 64, "duration": 11, "velocity": 116}, {"time": 2138, "pitch": 67, "duration": 10, "velocity": 108}, {"time": 2144, "pitch": 55, "duration": 6, "velocity": 83}, {"time": 2150, "pitch": 50, "duration": 16, "velocity": 88}, {"time": 2150, "pitch": 62, "duration": 10, "velocity": 88}, {"time": 2150, "pitch": 66, "duration": 1, "velocity": 87}, {"time": 2150, "pitch": 69, "duration": 9, "velocity": 98}, {"time": 2156, "pitch": 57, "duration": 9, "velocity": 80}, {"time": 2162, "pitch": 62, "duration": 11, "velocity": 100}, {"time": 2162, "pitch": 66, "duration": 5, "velocity": 106}, {"time": 2162, "pitch": 69, "duration": 7, "velocity": 100}, {"time": 2168, "pitch": 50, "duration": 1, "velocity": 93}, {"time": 2174, "pitch": 43, "duration": 41, "velocity": 88}, {"time": 2174, "pitch": 59, "duration": 10, "velocity": 89}, {"time": 2174, "pitch": 67, "duration": 5, "velocity": 92}, {"time": 2180, "pitch": 55, "duration": 7, "velocity": 75}, {"time": 2186, "pitch": 57, "duration": 5, "velocity": 92}, {"time": 2186, "pitch": 62, "duration": 6, "velocity": 98}, {"time": 2192, "pitch": 55, "duration": 7, "velocity": 81}, {"time": 2198, "pitch": 59, "duration": 10, "velocity": 100}, {"time": 2198, "pitch": 67, "duration": 9, "velocity": 100}, {"time": 2207, "pitch": 55, "duration": 14, "velocity": 84}, {"time": 2210, "pitch": 62, "duration": 7, "velocity": 110}, {"time": 2210, "pitch": 67, "duration": 5, "velocity": 91}, {"time": 2216, "pitch": 64, "duration": 4, "velocity": 83}, {"time": 2222, "pitch": 48, "duration": 20, "velocity": 88}, {"time": 2222, "pitch": 60, "duration": 8, "velocity": 91}, {"time": 2222, "pitch": 64, "duration": 8, "velocity": 89}, {"time": 2222, "pitch": 67, "duration": 7, "velocity": 94}, {"time": 2228, "pitch": 55, "duration": 6, "velocity": 70}, {"time": 2234, "pitch": 60, "duration": 7, "velocity": 108}, {"time": 2234, "pitch": 67, "duration": 11, "velocity": 110}, {"time": 2240, "pitch": 55, "duration": 5, "velocity": 78}, {"time": 2240, "pitch": 64, "duration": 4, "velocity": 79}, {"time": 2246, "pitch": 50, "duration": 15, "velocity": 89}, {"time": 2246, "pitch": 57, "duration": 9, "velocity": 93}, {"time": 2246, "pitch": 62, "duration": 10, "velocity": 108}, {"time": 2246, "pitch": 66, "duration": 9, "velocity": 91}, {"time": 2258, "pitch": 57, "duration": 1, "velocity": 94}, {"time": 2258, "pitch": 62, "duration": 11, "velocity": 108}, {"time": 2258, "pitch": 66, "duration": 7, "velocity": 100}, {"time": 2264, "pitch": 50, "duration": 5, "velocity": 88}, {"time": 2270, "pitch": 52, "duration": 15, "velocity": 88}, {"time": 2270, "pitch": 59, "duration": 10, "velocity": 100}, {"time": 2270, "pitch": 67, "duration": 9, "velocity": 104}, {"time": 2282, "pitch": 59, "duration": 6, "velocity": 92}, {"time": 2282, "pitch": 64, "duration": 10, "velocity": 102}, {"time": 2282, "pitch": 67, "duration": 10, "velocity": 94}, {"time": 2288, "pitch": 52, "duration": 6, "velocity": 84}, {"time": 2294, "pitch": 50, "duration": 23, "velocity": 86}, {"time": 2294, "pitch": 57, "duration": 2, "velocity": 96}, {"time": 2294, "pitch": 66, "duration": 10, "velocity": 88}, {"time": 2300, "pitch": 57, "duration": 1, "velocity": 63}, {"time": 2303, "pitch": 57, "duration": 7, "velocity": 88}, {"time": 2306, "pitch": 62, "duration": 6, "velocity": 113}, {"time": 2306, "pitch": 66, "duration": 4, "velocity": 116}, {"time": 2312, "pitch": 66, "duration": 4, "velocity": 87}, {"time": 2318, "pitch": 48, "duration": 18, "velocity": 94}, {"time": 2318, "pitch": 60, "duration": 10, "velocity": 93}, {"time": 2318, "pitch": 67, "duration": 9, "velocity": 96}, {"time": 2327, "pitch": 55, "duration": 4, "velocity": 85}, {"time": 2330, "pitch": 60, "duration": 1, "velocity": 96}, {"time": 2330, "pitch": 67, "duration": 10, "velocity": 104}, {"time": 2336, "pitch": 55, "duration": 6, "velocity": 81}, {"time": 2342, "pitch": 50, "duration": 21, "velocity": 88}, {"time": 2342, "pitch": 62, "duration": 16, "velocity": 108}, {"time": 2342, "pitch": 66, "duration": 5, "velocity": 97}, {"time": 2348, "pitch": 57, "duration": 7, "velocity": 86}, {"time": 2354, "pitch": 69, "duration": 8, "velocity": 114}, {"time": 2357, "pitch": 57, "duration": 6, "velocity": 86}, {"time": 2360, "pitch": 62, "duration": 3, "velocity": 88}, {"time": 2363, "pitch": 66, "duration": 2, "velocity": 78}, {"time": 2366, "pitch": 52, "duration": 29, "velocity": 86}, {"time": 2366, "pitch": 59, "duration": 9, "velocity": 87}, {"time": 2366, "pitch": 67, "duration": 8, "velocity": 93}, {"time": 2378, "pitch": 59, "duration": 10, "velocity": 100}, {"time": 2378, "pitch": 67, "duration": 9, "velocity": 91}, {"time": 2384, "pitch": 62, "duration": 4, "velocity": 87}, {"time": 2390, "pitch": 59, "duration": 9, "velocity": 88}, {"time": 2390, "pitch": 64, "duration": 9, "velocity": 110}, {"time": 2399, "pitch": 52, "duration": 8, "velocity": 90}, {"time": 2402, "pitch": 62, "duration": 6, "velocity": 113}, {"time": 2408, "pitch": 50, "duration": 6, "velocity": 86}, {"time": 2408, "pitch": 64, "duration": 5, "velocity": 104}, {"time": 2414, "pitch": 48, "duration": 19, "velocity": 88}, {"time": 2414, "pitch": 60, "duration": 8, "velocity": 91}, {"time": 2414, "pitch": 64, "duration": 8, "velocity": 98}, {"time": 2414, "pitch": 67, "duration": 7, "velocity": 98}, {"time": 2423, "pitch": 55, "duration": 4, "velocity": 71}, {"time": 2426, "pitch": 60, "duration": 6, "velocity": 93}, {"time": 2426, "pitch": 64, "duration": 10, "velocity": 104}, {"time": 2426, "pitch": 67, "duration": 9, "velocity": 98}, {"time": 2432, "pitch": 55, "duration": 6, "velocity": 84}, {"time": 2438, "pitch": 50, "duration": 15, "velocity": 88}, {"time": 2438, "pitch": 62, "duration": 9, "velocity": 110}, {"time": 2438, "pitch": 66, "duration": 10, "velocity": 90}, {"time": 2447, "pitch": 57, "duration": 5, "velocity": 82}, {"time": 2450, "pitch": 62, "duration": 11, "velocity": 113}, {"time": 2450, "pitch": 66, "duration": 9, "velocity": 116}, {"time": 2456, "pitch": 50, "duration": 5, "velocity": 89}, {"time": 2462, "pitch": 52, "duration": 18, "velocity": 87}, {"time": 2462, "pitch": 64, "duration": 9, "velocity": 107}, {"time": 2462, "pitch": 67, "duration": 8, "velocity": 100}, {"time": 2471, "pitch": 59, "duration": 16, "velocity": 77}, {"time": 2474, "pitch": 62, "duration": 4, "velocity": 107}, {"time": 2477, "pitch": 64, "duration": 2, "velocity": 83}, {"time": 2480, "pitch": 67, "duration": 6, "velocity": 108}, {"time": 2486, "pitch": 50, "duration": 24, "velocity": 89}, {"time": 2486, "pitch": 66, "duration": 10, "velocity": 103}, {"time": 2492, "pitch": 59, "duration": 10, "velocity": 84}, {"time": 2498, "pitch": 66, "duration": 5, "velocity": 113}, {"time": 2504, "pitch": 67, "duration": 3, "velocity": 92}, {"time": 2507, "pitch": 66, "duration": 3, "velocity": 88}, {"time": 2510, "pitch": 48, "duration": 20, "velocity": 89}, {"time": 2510, "pitch": 60, "duration": 9, "velocity": 89}, {"time": 2510, "pitch": 64, "duration": 9, "velocity": 93}, {"time": 2519, "pitch": 55, "duration": 5, "velocity": 83}, {"time": 2522, "pitch": 60, "duration": 7, "velocity": 96}, {"time": 2522, "pitch": 64, "duration": 11, "velocity": 113}, {"time": 2528, "pitch": 55, "duration": 6, "velocity": 80}, {"time": 2534, "pitch": 50, "duration": 18, "velocity": 89}, {"time": 2534, "pitch": 62, "duration": 8, "velocity": 90}, {"time": 2534, "pitch": 69, "duration": 6, "velocity": 107}, {"time": 2540, "pitch": 57, "duration": 11, "velocity": 80}, {"time": 2546, "pitch": 62, "duration": 6, "velocity": 104}, {"time": 2546, "pitch": 69, "duration": 6, "velocity": 100}, {"time": 2552, "pitch": 66, "duration": 5, "velocity": 100}, {"time": 2558, "pitch": 43, "duration": 41, "velocity": 84}, {"time": 2558, "pitch": 59, "duration": 8, "velocity": 88}, {"time": 2558, "pitch": 67, "duration": 9, "velocity": 91}, {"time": 2564, "pitch": 50, "duration": 9, "velocity": 69}, {"time": 2570, "pitch": 59, "duration": 10, "velocity": 91}, {"time": 2570, "pitch": 62, "duration": 9, "velocity": 104}, {"time": 2576, "pitch": 50, "duration": 12, "velocity": 77}, {"time": 2582, "pitch": 57, "duration": 6, "velocity": 96}, {"time": 2582, "pitch": 62, "duration": 9, "velocity": 93}, {"time": 2588, "pitch": 59, "duration": 3, "velocity": 85}, {"time": 2591, "pitch": 50, "duration": 9, "velocity": 86}, {"time": 2594, "pitch": 59, "duration": 4, "velocity": 107}, {"time": 2597, "pitch": 62, "duration": 4, "velocity": 88}, {"time": 2600, "pitch": 67, "duration": 5, "velocity": 100}, {"time": 2603, "pitch": 62, "duration": 1, "velocity": 40}, {"time": 2606, "pitch": 48, "duration": 19, "velocity": 87}, {"time": 2606, "pitch": 60, "duration": 7, "velocity": 91}, {"time": 2606, "pitch": 64, "duration": 7, "velocity": 107}, {"time": 2606, "pitch": 67, "duration": 8, "velocity": 89}, {"time": 2612, "pitch": 55, "duration": 7, "velocity": 76}, {"time": 2618, "pitch": 60, "duration": 6, "velocity": 93}, {"time": 2618, "pitch": 67, "duration": 6, "velocity": 108}, {"time": 2624, "pitch": 55, "duration": 6, "velocity": 85}, {"time": 2624, "pitch": 64, "duration": 4, "velocity": 92}, {"time": 2630, "pitch": 50, "duration": 20, "velocity": 87}, {"time": 2630, "pitch": 62, "duration": 10, "velocity": 98}, {"time": 2630, "pitch": 69, "duration": 9, "velocity": 96}, {"time": 2639, "pitch": 57, "duration": 5, "velocity": 86}, {"time": 2642, "pitch": 62, "duration": 7, "velocity": 114}, {"time": 2642, "pitch": 69, "duration": 6, "velocity": 107}, {"time": 2648, "pitch": 57, "duration": 6, "velocity": 79}, {"time": 2648, "pitch": 66, "duration": 2, "velocity": 116}, {"time": 2654, "pitch": 52, "duration": 14, "velocity": 87}, {"time": 2654, "pitch": 59, "duration": 3, "velocity": 100}, {"time": 2654, "pitch": 64, "duration": 6, "velocity": 110}, {"time": 2654, "pitch": 67, "duration": 9, "velocity": 98}, {"time": 2660, "pitch": 59, "duration": 8, "velocity": 76}, {"time": 2666, "pitch": 64, "duration": 10, "velocity": 113}, {"time": 2666, "pitch": 67, "duration": 9, "velocity": 110}, {"time": 2672, "pitch": 52, "duration": 5, "velocity": 79}, {"time": 2678, "pitch": 50, "duration": 19, "velocity": 89}, {"time": 2678, "pitch": 62, "duration": 9, "velocity": 94}, {"time": 2678, "pitch": 66, "duration": 5, "velocity": 109}, {"time": 2687, "pitch": 57, "duration": 4, "velocity": 84}, {"time": 2690, "pitch": 62, "duration": 11, "velocity": 110}, {"time": 2690, "pitch": 66, "duration": 10, "velocity": 116}, {"time": 2696, "pitch": 57, "duration": 6, "velocity": 83}, {"time": 2702, "pitch": 48, "duration": 19, "velocity": 88}, {"time": 2702, "pitch": 60, "duration": 8, "velocity": 98}, {"time": 2702, "pitch": 64, "duration": 8, "velocity": 113}, {"time": 2702, "pitch": 67, "duration": 8, "velocity": 108}, {"time": 2711, "pitch": 55, "duration": 4, "velocity": 75}, {"time": 2714, "pitch": 60, "duration": 6, "velocity": 110}, {"time": 2714, "pitch": 64, "duration": 3, "velocity": 114}, {"time": 2714, "pitch": 67, "duration": 10, "velocity": 110}, {"time": 2717, "pitch": 64, "duration": 1, "velocity": 58}, {"time": 2720, "pitch": 55, "duration": 5, "velocity": 79}, {"time": 2726, "pitch": 50, "duration": 18, "velocity": 87}, {"time": 2726, "pitch": 62, "duration": 8, "velocity": 113}, {"time": 2726, "pitch": 69, "duration": 8, "velocity": 110}, {"time": 2732, "pitch": 57, "duration": 7, "velocity": 80}, {"time": 2738, "pitch": 62, "duration": 6, "velocity": 104}, {"time": 2738, "pitch": 69, "duration": 10, "velocity": 98}, {"time": 2744, "pitch": 57, "duration": 5, "velocity": 81}, {"time": 2750, "pitch": 52, "duration": 40, "velocity": 87}, {"time": 2750, "pitch": 64, "duration": 11, "velocity": 94}, {"time": 2750, "pitch": 67, "duration": 8, "velocity": 107}, {"time": 2756, "pitch": 59, "duration": 13, "velocity": 73}, {"time": 2762, "pitch": 62, "duration": 7, "velocity": 89}, {"time": 2762, "pitch": 67, "duration": 11, "velocity": 91}, {"time": 2768, "pitch": 64, "duration": 5, "velocity": 78}, {"time": 2774, "pitch": 64, "duration": 9, "velocity": 93}, {"time": 2774, "pitch": 67, "duration": 8, "velocity": 91}, {"time": 2783, "pitch": 59, "duration": 7, "velocity": 84}, {"time": 2786, "pitch": 62, "duration": 3, "velocity": 91}, {"time": 2786, "pitch": 67, "duration": 3, "velocity": 89}, {"time": 2798, "pitch": 48, "duration": 43, "velocity": 80}, {"time": 2798, "pitch": 62, "duration": 42, "velocity": 77}, {"time": 2798, "pitch": 67, "duration": 43, "velocity": 78}, {"time": 2798, "pitch": 71, "duration": 41, "velocity": 93}, {"time": 2846, "pitch": 50, "duration": 43, "velocity": 78}, {"time": 2846, "pitch": 62, "duration": 44, "velocity": 52}, {"time": 2846, "pitch": 66, "duration": 44, "velocity": 80}, {"time": 2846, "pitch": 71, "duration": 42, "velocity": 83}, {"time": 2894, "pitch": 52, "duration": 42, "velocity": 88}, {"time": 2894, "pitch": 59, "duration": 39, "velocity": 86}, {"time": 2894, "pitch": 62, "duration": 42, "velocity": 90}, {"time": 2894, "pitch": 67, "duration": 40, "velocity": 91}, {"time": 2942, "pitch": 50, "duration": 47, "velocity": 86}, {"time": 2942, "pitch": 57, "duration": 40, "velocity": 86}, {"time": 2942, "pitch": 62, "duration": 46, "velocity": 91}, {"time": 2942, "pitch": 66, "duration": 43, "velocity": 84}, {"time": 2990, "pitch": 52, "duration": 43, "velocity": 81}, {"time": 2990, "pitch": 59, "duration": 42, "velocity": 78}, {"time": 2990, "pitch": 64, "duration": 42, "velocity": 80}, {"time": 2990, "pitch": 67, "duration": 43, "velocity": 81}, {"time": 3038, "pitch": 50, "duration": 45, "velocity": 80}, {"time": 3038, "pitch": 57, "duration": 43, "velocity": 78}, {"time": 3038, "pitch": 62, "duration": 46, "velocity": 84}, {"time": 3038, "pitch": 66, "duration": 44, "velocity": 79}, {"time": 3086, "pitch": 52, "duration": 44, "velocity": 87}, {"time": 3086, "pitch": 59, "duration": 42, "velocity": 83}, {"time": 3086, "pitch": 64, "duration": 44, "velocity": 86}, {"time": 3086, "pitch": 67, "duration": 44, "velocity": 84}, {"time": 3134, "pitch": 50, "duration": 44, "velocity": 82}, {"time": 3134, "pitch": 57, "duration": 42, "velocity": 78}, {"time": 3134, "pitch": 62, "duration": 47, "velocity": 82}, {"time": 3134, "pitch": 66, "duration": 44, "velocity": 77}], "annotations": [{"time": 494, "annotation": {"number": 64, "value": 51}, "group": "control_change"}, {"time": 548, "annotation": {"number": 64, "value": 48}, "group": "control_change"}]}]}