{"metadata": {"schema_version": "0.2", "title": "None", "source_filename": "318.mid", "source_format": "midi"}, "resolution": 12, "tempos": [{"time": 0, "qpm": 66.00021120067584}], "time_signatures": [{"time": 0, "numerator": 4, "denominator": 4}], "tracks": [{"program": 0, "is_drum": false, "name": "MELODY", "notes": [{"time": 191, "pitch": 57, "duration": 3, "velocity": 85}, {"time": 194, "pitch": 66, "duration": 6, "velocity": 119}, {"time": 200, "pitch": 66, "duration": 18, "velocity": 119}, {"time": 218, "pitch": 64, "duration": 6, "velocity": 113}, {"time": 224, "pitch": 62, "duration": 6, "velocity": 107}, {"time": 230, "pitch": 61, "duration": 9, "velocity": 106}, {"time": 239, "pitch": 62, "duration": 3, "velocity": 108}, {"time": 242, "pitch": 57, "duration": 45, "velocity": 104}, {"time": 287, "pitch": 67, "duration": 3, "velocity": 110}, {"time": 290, "pitch": 67, "duration": 6, "velocity": 116}, {"time": 296, "pitch": 66, "duration": 18, "velocity": 119}, {"time": 314, "pitch": 64, "duration": 6, "velocity": 110}, {"time": 320, "pitch": 62, "duration": 6, "velocity": 107}, {"time": 326, "pitch": 61, "duration": 6, "velocity": 116}, {"time": 332, "pitch": 62, "duration": 6, "velocity": 110}, {"time": 338, "pitch": 69, "duration": 42, "velocity": 116}, {"time": 380, "pitch": 66, "duration": 3, "velocity": 106}, {"time": 383, "pitch": 69, "duration": 3, "velocity": 107}, {"time": 386, "pitch": 69, "duration": 6, "velocity": 113}, {"time": 392, "pitch": 67, "duration": 3, "velocity": 110}, {"time": 395, "pitch": 67, "duration": 9, "velocity": 104}, {"time": 404, "pitch": 66, "duration": 3, "velocity": 113}, {"time": 407, "pitch": 64, "duration": 27, "velocity": 114}, {"time": 434, "pitch": 69, "duration": 6, "velocity": 114}, {"time": 440, "pitch": 67, "duration": 3, "velocity": 102}, {"time": 443, "pitch": 67, "duration": 9, "velocity": 113}, {"time": 452, "pitch": 57, "duration": 3, "velocity": 96}, {"time": 455, "pitch": 66, "duration": 24, "velocity": 113}, {"time": 479, "pitch": 67, "duration": 3, "velocity": 108}, {"time": 482, "pitch": 66, "duration": 6, "velocity": 116}, {"time": 488, "pitch": 59, "duration": 18, "velocity": 113}, {"time": 506, "pitch": 67, "duration": 6, "velocity": 108}, {"time": 512, "pitch": 67, "duration": 3, "velocity": 104}, {"time": 515, "pitch": 66, "duration": 12, "velocity": 106}, {"time": 527, "pitch": 67, "duration": 3, "velocity": 107}, {"time": 530, "pitch": 65, "duration": 30, "velocity": 108}, {"time": 560, "pitch": 57, "duration": 6, "velocity": 114}, {"time": 566, "pitch": 57, "duration": 6, "velocity": 116}, {"time": 572, "pitch": 57, "duration": 3, "velocity": 108}, {"time": 575, "pitch": 67, "duration": 6, "velocity": 116}, {"time": 581, "pitch": 66, "duration": 21, "velocity": 116}, {"time": 602, "pitch": 64, "duration": 6, "velocity": 110}, {"time": 608, "pitch": 62, "duration": 3, "velocity": 100}, {"time": 611, "pitch": 61, "duration": 6, "velocity": 106}, {"time": 617, "pitch": 62, "duration": 9, "velocity": 116}, {"time": 626, "pitch": 57, "duration": 36, "velocity": 108}, {"time": 662, "pitch": 57, "duration": 3, "velocity": 108}, {"time": 665, "pitch": 57, "duration": 6, "velocity": 108}, {"time": 671, "pitch": 57, "duration": 3, "velocity": 102}, {"time": 674, "pitch": 67, "duration": 6, "velocity": 114}, {"time": 680, "pitch": 66, "duration": 15, "velocity": 119}, {"time": 695, "pitch": 66, "duration": 3, "velocity": 116}, {"time": 698, "pitch": 64, "duration": 6, "velocity": 102}, {"time": 704, "pitch": 62, "duration": 3, "velocity": 102}, {"time": 707, "pitch": 61, "duration": 6, "velocity": 103}, {"time": 713, "pitch": 62, "duration": 6, "velocity": 110}, {"time": 719, "pitch": 69, "duration": 39, "velocity": 114}, {"time": 758, "pitch": 66, "duration": 6, "velocity": 116}, {"time": 764, "pitch": 69, "duration": 6, "velocity": 119}, {"time": 770, "pitch": 69, "duration": 6, "velocity": 117}, {"time": 776, "pitch": 71, "duration": 6, "velocity": 107}, {"time": 782, "pitch": 67, "duration": 6, "velocity": 110}, {"time": 788, "pitch": 69, "duration": 6, "velocity": 114}, {"time": 794, "pitch": 64, "duration": 21, "velocity": 113}, {"time": 815, "pitch": 69, "duration": 3, "velocity": 100}, {"time": 818, "pitch": 69, "duration": 6, "velocity": 113}, {"time": 824, "pitch": 67, "duration": 3, "velocity": 110}, {"time": 827, "pitch": 67, "duration": 9, "velocity": 113}, {"time": 836, "pitch": 69, "duration": 3, "velocity": 107}, {"time": 839, "pitch": 66, "duration": 15, "velocity": 116}, {"time": 854, "pitch": 66, "duration": 6, "velocity": 116}, {"time": 860, "pitch": 67, "duration": 6, "velocity": 113}, {"time": 866, "pitch": 69, "duration": 6, "velocity": 116}, {"time": 872, "pitch": 59, "duration": 6, "velocity": 114}, {"time": 878, "pitch": 59, "duration": 6, "velocity": 110}, {"time": 884, "pitch": 61, "duration": 6, "velocity": 106}, {"time": 890, "pitch": 62, "duration": 6, "velocity": 113}, {"time": 896, "pitch": 64, "duration": 3, "velocity": 100}, {"time": 899, "pitch": 66, "duration": 15, "velocity": 119}, {"time": 914, "pitch": 61, "duration": 6, "velocity": 116}, {"time": 920, "pitch": 62, "duration": 42, "velocity": 117}, {"time": 962, "pitch": 69, "duration": 6, "velocity": 119}, {"time": 968, "pitch": 74, "duration": 6, "velocity": 117}, {"time": 974, "pitch": 73, "duration": 6, "velocity": 123}, {"time": 980, "pitch": 74, "duration": 6, "velocity": 117}, {"time": 986, "pitch": 73, "duration": 6, "velocity": 119}, {"time": 992, "pitch": 69, "duration": 6, "velocity": 117}, {"time": 998, "pitch": 66, "duration": 12, "velocity": 119}, {"time": 1010, "pitch": 69, "duration": 4, "velocity": 119}, {"time": 1013, "pitch": 66, "duration": 45, "velocity": 116}, {"time": 1058, "pitch": 69, "duration": 6, "velocity": 119}, {"time": 1064, "pitch": 74, "duration": 6, "velocity": 116}, {"time": 1070, "pitch": 73, "duration": 6, "velocity": 119}, {"time": 1076, "pitch": 74, "duration": 6, "velocity": 117}, {"time": 1082, "pitch": 73, "duration": 6, "velocity": 116}, {"time": 1088, "pitch": 69, "duration": 6, "velocity": 114}, {"time": 1094, "pitch": 66, "duration": 6, "velocity": 119}, {"time": 1100, "pitch": 69, "duration": 6, "velocity": 116}, {"time": 1106, "pitch": 69, "duration": 36, "velocity": 119}, {"time": 1142, "pitch": 71, "duration": 6, "velocity": 117}, {"time": 1148, "pitch": 73, "duration": 6, "velocity": 116}, {"time": 1154, "pitch": 74, "duration": 9, "velocity": 119}, {"time": 1163, "pitch": 71, "duration": 3, "velocity": 113}, {"time": 1166, "pitch": 69, "duration": 3, "velocity": 117}, {"time": 1169, "pitch": 71, "duration": 9, "velocity": 117}, {"time": 1178, "pitch": 69, "duration": 18, "velocity": 119}, {"time": 1196, "pitch": 69, "duration": 3, "velocity": 116}, {"time": 1199, "pitch": 67, "duration": 3, "velocity": 114}, {"time": 1202, "pitch": 66, "duration": 3, "velocity": 116}, {"time": 1205, "pitch": 69, "duration": 6, "velocity": 114}, {"time": 1211, "pitch": 73, "duration": 9, "velocity": 116}, {"time": 1220, "pitch": 71, "duration": 6, "velocity": 114}, {"time": 1226, "pitch": 74, "duration": 12, "velocity": 116}, {"time": 1238, "pitch": 66, "duration": 6, "velocity": 116}, {"time": 1244, "pitch": 67, "duration": 3, "velocity": 114}, {"time": 1247, "pitch": 69, "duration": 9, "velocity": 117}, {"time": 1256, "pitch": 67, "duration": 6, "velocity": 114}, {"time": 1262, "pitch": 66, "duration": 6, "velocity": 123}, {"time": 1268, "pitch": 67, "duration": 3, "velocity": 117}, {"time": 1271, "pitch": 69, "duration": 9, "velocity": 119}, {"time": 1280, "pitch": 69, "duration": 6, "velocity": 116}, {"time": 1286, "pitch": 69, "duration": 12, "velocity": 116}, {"time": 1298, "pitch": 62, "duration": 6, "velocity": 119}, {"time": 1304, "pitch": 64, "duration": 22, "velocity": 117}, {"time": 1346, "pitch": 69, "duration": 6, "velocity": 119}, {"time": 1352, "pitch": 74, "duration": 6, "velocity": 117}, {"time": 1358, "pitch": 73, "duration": 6, "velocity": 123}, {"time": 1364, "pitch": 74, "duration": 6, "velocity": 117}, {"time": 1370, "pitch": 73, "duration": 6, "velocity": 119}, {"time": 1376, "pitch": 69, "duration": 6, "velocity": 117}, {"time": 1382, "pitch": 66, "duration": 12, "velocity": 119}, {"time": 1394, "pitch": 69, "duration": 4, "velocity": 119}, {"time": 1397, "pitch": 66, "duration": 45, "velocity": 116}, {"time": 1442, "pitch": 69, "duration": 6, "velocity": 119}, {"time": 1448, "pitch": 74, "duration": 6, "velocity": 116}, {"time": 1454, "pitch": 73, "duration": 6, "velocity": 119}, {"time": 1460, "pitch": 74, "duration": 6, "velocity": 117}, {"time": 1466, "pitch": 73, "duration": 6, "velocity": 116}, {"time": 1472, "pitch": 69, "duration": 6, "velocity": 114}, {"time": 1478, "pitch": 66, "duration": 6, "velocity": 119}, {"time": 1484, "pitch": 69, "duration": 6, "velocity": 116}, {"time": 1490, "pitch": 69, "duration": 36, "velocity": 119}, {"time": 1526, "pitch": 71, "duration": 6, "velocity": 117}, {"time": 1532, "pitch": 73, "duration": 6, "velocity": 116}, {"time": 1538, "pitch": 74, "duration": 9, "velocity": 119}, {"time": 1547, "pitch": 71, "duration": 3, "velocity": 113}, {"time": 1550, "pitch": 69, "duration": 3, "velocity": 117}, {"time": 1553, "pitch": 71, "duration": 9, "velocity": 117}, {"time": 1562, "pitch": 69, "duration": 18, "velocity": 119}, {"time": 1580, "pitch": 69, "duration": 3, "velocity": 116}, {"time": 1583, "pitch": 67, "duration": 3, "velocity": 114}, {"time": 1586, "pitch": 66, "duration": 3, "velocity": 116}, {"time": 1589, "pitch": 69, "duration": 6, "velocity": 114}, {"time": 1595, "pitch": 73, "duration": 9, "velocity": 116}, {"time": 1604, "pitch": 71, "duration": 6, "velocity": 114}, {"time": 1610, "pitch": 74, "duration": 18, "velocity": 116}, {"time": 1628, "pitch": 66, "duration": 3, "velocity": 113}, {"time": 1631, "pitch": 67, "duration": 3, "velocity": 110}, {"time": 1634, "pitch": 69, "duration": 6, "velocity": 116}, {"time": 1640, "pitch": 69, "duration": 3, "velocity": 107}, {"time": 1643, "pitch": 69, "duration": 9, "velocity": 114}, {"time": 1652, "pitch": 67, "duration": 6, "velocity": 117}, {"time": 1658, "pitch": 66, "duration": 6, "velocity": 116}, {"time": 1664, "pitch": 64, "duration": 3, "velocity": 107}, {"time": 1667, "pitch": 62, "duration": 12, "velocity": 93}, {"time": 1679, "pitch": 62, "duration": 3, "velocity": 113}, {"time": 1682, "pitch": 64, "duration": 6, "velocity": 116}, {"time": 1688, "pitch": 62, "duration": 15, "velocity": 108}, {"time": 1730, "pitch": 70, "duration": 6, "velocity": 119}, {"time": 1736, "pitch": 75, "duration": 6, "velocity": 117}, {"time": 1742, "pitch": 74, "duration": 6, "velocity": 123}, {"time": 1748, "pitch": 75, "duration": 6, "velocity": 117}, {"time": 1754, "pitch": 74, "duration": 6, "velocity": 119}, {"time": 1760, "pitch": 70, "duration": 6, "velocity": 117}, {"time": 1766, "pitch": 67, "duration": 12, "velocity": 119}, {"time": 1778, "pitch": 70, "duration": 4, "velocity": 119}, {"time": 1781, "pitch": 67, "duration": 45, "velocity": 116}, {"time": 1826, "pitch": 70, "duration": 6, "velocity": 119}, {"time": 1832, "pitch": 75, "duration": 6, "velocity": 116}, {"time": 1838, "pitch": 74, "duration": 6, "velocity": 119}, {"time": 1844, "pitch": 75, "duration": 6, "velocity": 117}, {"time": 1850, "pitch": 77, "duration": 6, "velocity": 116}, {"time": 1856, "pitch": 75, "duration": 6, "velocity": 114}, {"time": 1862, "pitch": 74, "duration": 6, "velocity": 119}, {"time": 1868, "pitch": 67, "duration": 6, "velocity": 119}, {"time": 1874, "pitch": 72, "duration": 3, "velocity": 117}, {"time": 1877, "pitch": 70, "duration": 33, "velocity": 119}, {"time": 1910, "pitch": 72, "duration": 6, "velocity": 117}, {"time": 1916, "pitch": 74, "duration": 6, "velocity": 116}, {"time": 1922, "pitch": 75, "duration": 6, "velocity": 119}, {"time": 1928, "pitch": 74, "duration": 3, "velocity": 116}, {"time": 1931, "pitch": 75, "duration": 6, "velocity": 117}, {"time": 1937, "pitch": 77, "duration": 6, "velocity": 117}, {"time": 1943, "pitch": 75, "duration": 21, "velocity": 120}, {"time": 1964, "pitch": 70, "duration": 3, "velocity": 116}, {"time": 1967, "pitch": 68, "duration": 3, "velocity": 114}, {"time": 1970, "pitch": 67, "duration": 3, "velocity": 116}, {"time": 1973, "pitch": 70, "duration": 6, "velocity": 114}, {"time": 1979, "pitch": 74, "duration": 9, "velocity": 116}, {"time": 1988, "pitch": 72, "duration": 6, "velocity": 114}, {"time": 1994, "pitch": 77, "duration": 6, "velocity": 116}, {"time": 2000, "pitch": 75, "duration": 88, "velocity": 116}, {"time": 2087, "pitch": 67, "duration": 6, "velocity": 109}, {"time": 2093, "pitch": 68, "duration": 6, "velocity": 113}, {"time": 2099, "pitch": 70, "duration": 4, "velocity": 114}, {"time": 2102, "pitch": 70, "duration": 1, "velocity": 116}, {"time": 2108, "pitch": 70, "duration": 6, "velocity": 108}, {"time": 2114, "pitch": 68, "duration": 15, "velocity": 114}, {"time": 2129, "pitch": 67, "duration": 6, "velocity": 116}, {"time": 2135, "pitch": 65, "duration": 6, "velocity": 104}, {"time": 2141, "pitch": 63, "duration": 24, "velocity": 92}, {"time": 2165, "pitch": 62, "duration": 9, "velocity": 106}, {"time": 2174, "pitch": 65, "duration": 3, "velocity": 100}, {"time": 2177, "pitch": 63, "duration": 9, "velocity": 98}, {"time": 2237, "pitch": 67, "duration": 3, "velocity": 109}, {"time": 2240, "pitch": 68, "duration": 3, "velocity": 100}, {"time": 2243, "pitch": 67, "duration": 9, "velocity": 109}, {"time": 2252, "pitch": 68, "duration": 6, "velocity": 110}, {"time": 2258, "pitch": 67, "duration": 6, "velocity": 116}, {"time": 2264, "pitch": 68, "duration": 7, "velocity": 102}, {"time": 2271, "pitch": 67, "duration": 7, "velocity": 106}, {"time": 2278, "pitch": 65, "duration": 4, "velocity": 92}, {"time": 2282, "pitch": 63, "duration": 39, "velocity": 90}, {"time": 2321, "pitch": 62, "duration": 5, "velocity": 95}, {"time": 2326, "pitch": 63, "duration": 22, "velocity": 98}]}, {"program": 0, "is_drum": false, "name": "BRIDGE", "notes": [{"time": 2191, "pitch": 79, "duration": 22, "velocity": 106}, {"time": 2216, "pitch": 76, "duration": 21, "velocity": 127}, {"time": 2234, "pitch": 72, "duration": 29, "velocity": 127}]}, {"program": 0, "is_drum": false, "name": "PIANO", "notes": [{"time": 26, "pitch": 50, "duration": 11, "velocity": 84}, {"time": 26, "pitch": 69, "duration": 5, "velocity": 90}, {"time": 32, "pitch": 57, "duration": 5, "velocity": 74}, {"time": 32, "pitch": 74, "duration": 6, "velocity": 93}, {"time": 38, "pitch": 62, "duration": 6, "velocity": 79}, {"time": 38, "pitch": 73, "duration": 5, "velocity": 95}, {"time": 44, "pitch": 64, "duration": 6, "velocity": 76}, {"time": 44, "pitch": 74, "duration": 6, "velocity": 92}, {"time": 50, "pitch": 66, "duration": 9, "velocity": 76}, {"time": 50, "pitch": 73, "duration": 6, "velocity": 86}, {"time": 56, "pitch": 69, "duration": 12, "velocity": 86}, {"time": 68, "pitch": 66, "duration": 2, "velocity": 84}, {"time": 71, "pitch": 67, "duration": 3, "velocity": 81}, {"time": 74, "pitch": 42, "duration": 34, "velocity": 81}, {"time": 74, "pitch": 69, "duration": 6, "velocity": 90}, {"time": 80, "pitch": 49, "duration": 28, "velocity": 70}, {"time": 86, "pitch": 54, "duration": 21, "velocity": 74}, {"time": 92, "pitch": 57, "duration": 14, "velocity": 72}, {"time": 110, "pitch": 57, "duration": 3, "velocity": 108}, {"time": 113, "pitch": 61, "duration": 1, "velocity": 106}, {"time": 116, "pitch": 62, "duration": 1, "velocity": 102}, {"time": 119, "pitch": 64, "duration": 1, "velocity": 92}, {"time": 122, "pitch": 47, "duration": 6, "velocity": 87}, {"time": 122, "pitch": 66, "duration": 4, "velocity": 100}, {"time": 128, "pitch": 67, "duration": 5, "velocity": 102}, {"time": 134, "pitch": 46, "duration": 6, "velocity": 81}, {"time": 134, "pitch": 69, "duration": 6, "velocity": 102}, {"time": 140, "pitch": 62, "duration": 1, "velocity": 110}, {"time": 146, "pitch": 41, "duration": 26, "velocity": 78}, {"time": 146, "pitch": 53, "duration": 25, "velocity": 81}, {"time": 146, "pitch": 56, "duration": 25, "velocity": 72}, {"time": 146, "pitch": 62, "duration": 24, "velocity": 86}, {"time": 179, "pitch": 57, "duration": 2, "velocity": 85}, {"time": 180, "pitch": 59, "duration": 2, "velocity": 88}, {"time": 182, "pitch": 45, "duration": 12, "velocity": 88}, {"time": 182, "pitch": 62, "duration": 3, "velocity": 110}, {"time": 185, "pitch": 59, "duration": 2, "velocity": 98}, {"time": 188, "pitch": 57, "duration": 5, "velocity": 102}, {"time": 194, "pitch": 50, "duration": 37, "velocity": 79}, {"time": 194, "pitch": 57, "duration": 8, "velocity": 80}, {"time": 194, "pitch": 62, "duration": 8, "velocity": 85}, {"time": 194, "pitch": 66, "duration": 6, "velocity": 77}, {"time": 206, "pitch": 57, "duration": 8, "velocity": 76}, {"time": 206, "pitch": 62, "duration": 9, "velocity": 81}, {"time": 206, "pitch": 66, "duration": 7, "velocity": 73}, {"time": 218, "pitch": 57, "duration": 7, "velocity": 76}, {"time": 218, "pitch": 62, "duration": 8, "velocity": 81}, {"time": 218, "pitch": 66, "duration": 6, "velocity": 71}, {"time": 230, "pitch": 57, "duration": 6, "velocity": 86}, {"time": 230, "pitch": 62, "duration": 5, "velocity": 88}, {"time": 230, "pitch": 66, "duration": 3, "velocity": 77}, {"time": 236, "pitch": 66, "duration": 14, "velocity": 86}, {"time": 242, "pitch": 42, "duration": 40, "velocity": 73}, {"time": 242, "pitch": 54, "duration": 26, "velocity": 78}, {"time": 242, "pitch": 57, "duration": 8, "velocity": 78}, {"time": 242, "pitch": 61, "duration": 9, "velocity": 83}, {"time": 254, "pitch": 61, "duration": 6, "velocity": 76}, {"time": 254, "pitch": 66, "duration": 5, "velocity": 67}, {"time": 260, "pitch": 57, "duration": 3, "velocity": 46}, {"time": 263, "pitch": 61, "duration": 1, "velocity": 86}, {"time": 266, "pitch": 66, "duration": 18, "velocity": 119}, {"time": 269, "pitch": 54, "duration": 15, "velocity": 70}, {"time": 272, "pitch": 61, "duration": 2, "velocity": 80}, {"time": 275, "pitch": 57, "duration": 5, "velocity": 87}, {"time": 275, "pitch": 61, "duration": 5, "velocity": 74}, {"time": 281, "pitch": 57, "duration": 3, "velocity": 83}, {"time": 290, "pitch": 47, "duration": 37, "velocity": 81}, {"time": 290, "pitch": 59, "duration": 7, "velocity": 80}, {"time": 290, "pitch": 62, "duration": 7, "velocity": 87}, {"time": 290, "pitch": 66, "duration": 7, "velocity": 81}, {"time": 302, "pitch": 59, "duration": 10, "velocity": 81}, {"time": 302, "pitch": 62, "duration": 10, "velocity": 88}, {"time": 302, "pitch": 66, "duration": 9, "velocity": 78}, {"time": 314, "pitch": 59, "duration": 8, "velocity": 81}, {"time": 314, "pitch": 62, "duration": 9, "velocity": 86}, {"time": 314, "pitch": 66, "duration": 9, "velocity": 78}, {"time": 326, "pitch": 59, "duration": 11, "velocity": 82}, {"time": 326, "pitch": 62, "duration": 12, "velocity": 85}, {"time": 326, "pitch": 66, "duration": 11, "velocity": 76}, {"time": 338, "pitch": 42, "duration": 37, "velocity": 76}, {"time": 338, "pitch": 57, "duration": 8, "velocity": 78}, {"time": 338, "pitch": 66, "duration": 8, "velocity": 83}, {"time": 344, "pitch": 54, "duration": 5, "velocity": 61}, {"time": 350, "pitch": 55, "duration": 6, "velocity": 80}, {"time": 356, "pitch": 57, "duration": 1, "velocity": 81}, {"time": 374, "pitch": 57, "duration": 5, "velocity": 82}, {"time": 374, "pitch": 66, "duration": 6, "velocity": 80}, {"time": 386, "pitch": 43, "duration": 20, "velocity": 84}, {"time": 386, "pitch": 59, "duration": 6, "velocity": 84}, {"time": 386, "pitch": 67, "duration": 5, "velocity": 87}, {"time": 392, "pitch": 50, "duration": 13, "velocity": 63}, {"time": 398, "pitch": 55, "duration": 7, "velocity": 64}, {"time": 398, "pitch": 59, "duration": 6, "velocity": 77}, {"time": 398, "pitch": 67, "duration": 5, "velocity": 77}, {"time": 410, "pitch": 43, "duration": 15, "velocity": 82}, {"time": 410, "pitch": 57, "duration": 17, "velocity": 79}, {"time": 410, "pitch": 64, "duration": 17, "velocity": 80}, {"time": 434, "pitch": 42, "duration": 17, "velocity": 81}, {"time": 434, "pitch": 57, "duration": 6, "velocity": 79}, {"time": 434, "pitch": 61, "duration": 5, "velocity": 85}, {"time": 434, "pitch": 66, "duration": 5, "velocity": 85}, {"time": 440, "pitch": 54, "duration": 6, "velocity": 75}, {"time": 446, "pitch": 57, "duration": 5, "velocity": 88}, {"time": 446, "pitch": 61, "duration": 7, "velocity": 95}, {"time": 446, "pitch": 66, "duration": 6, "velocity": 88}, {"time": 452, "pitch": 54, "duration": 2, "velocity": 82}, {"time": 458, "pitch": 47, "duration": 17, "velocity": 80}, {"time": 458, "pitch": 59, "duration": 8, "velocity": 87}, {"time": 458, "pitch": 63, "duration": 8, "velocity": 89}, {"time": 458, "pitch": 66, "duration": 8, "velocity": 85}, {"time": 470, "pitch": 59, "duration": 6, "velocity": 85}, {"time": 470, "pitch": 63, "duration": 7, "velocity": 86}, {"time": 470, "pitch": 66, "duration": 7, "velocity": 85}, {"time": 482, "pitch": 40, "duration": 36, "velocity": 83}, {"time": 482, "pitch": 52, "duration": 37, "velocity": 80}, {"time": 482, "pitch": 55, "duration": 6, "velocity": 83}, {"time": 482, "pitch": 59, "duration": 8, "velocity": 84}, {"time": 482, "pitch": 64, "duration": 5, "velocity": 83}, {"time": 494, "pitch": 55, "duration": 8, "velocity": 78}, {"time": 494, "pitch": 59, "duration": 8, "velocity": 79}, {"time": 494, "pitch": 64, "duration": 6, "velocity": 77}, {"time": 506, "pitch": 59, "duration": 8, "velocity": 84}, {"time": 506, "pitch": 64, "duration": 7, "velocity": 81}, {"time": 518, "pitch": 59, "duration": 10, "velocity": 91}, {"time": 518, "pitch": 64, "duration": 8, "velocity": 89}, {"time": 530, "pitch": 46, "duration": 19, "velocity": 93}, {"time": 530, "pitch": 58, "duration": 19, "velocity": 106}, {"time": 530, "pitch": 62, "duration": 19, "velocity": 93}, {"time": 530, "pitch": 65, "duration": 19, "velocity": 102}, {"time": 554, "pitch": 45, "duration": 21, "velocity": 89}, {"time": 554, "pitch": 57, "duration": 9, "velocity": 91}, {"time": 554, "pitch": 61, "duration": 8, "velocity": 100}, {"time": 554, "pitch": 64, "duration": 8, "velocity": 98}, {"time": 566, "pitch": 57, "duration": 10, "velocity": 98}, {"time": 566, "pitch": 61, "duration": 7, "velocity": 109}, {"time": 566, "pitch": 64, "duration": 6, "velocity": 104}, {"time": 578, "pitch": 50, "duration": 41, "velocity": 88}, {"time": 578, "pitch": 57, "duration": 9, "velocity": 87}, {"time": 578, "pitch": 62, "duration": 9, "velocity": 90}, {"time": 578, "pitch": 66, "duration": 9, "velocity": 88}, {"time": 590, "pitch": 57, "duration": 10, "velocity": 88}, {"time": 590, "pitch": 62, "duration": 10, "velocity": 93}, {"time": 590, "pitch": 66, "duration": 10, "velocity": 90}, {"time": 602, "pitch": 57, "duration": 9, "velocity": 87}, {"time": 602, "pitch": 62, "duration": 9, "velocity": 92}, {"time": 602, "pitch": 66, "duration": 9, "velocity": 86}, {"time": 614, "pitch": 57, "duration": 9, "velocity": 89}, {"time": 614, "pitch": 62, "duration": 9, "velocity": 100}, {"time": 614, "pitch": 66, "duration": 8, "velocity": 90}, {"time": 626, "pitch": 42, "duration": 41, "velocity": 81}, {"time": 626, "pitch": 54, "duration": 16, "velocity": 84}, {"time": 626, "pitch": 57, "duration": 8, "velocity": 87}, {"time": 626, "pitch": 61, "duration": 9, "velocity": 87}, {"time": 626, "pitch": 66, "duration": 8, "velocity": 87}, {"time": 638, "pitch": 57, "duration": 9, "velocity": 86}, {"time": 638, "pitch": 61, "duration": 11, "velocity": 87}, {"time": 638, "pitch": 66, "duration": 9, "velocity": 89}, {"time": 650, "pitch": 54, "duration": 10, "velocity": 81}, {"time": 650, "pitch": 61, "duration": 1, "velocity": 84}, {"time": 650, "pitch": 66, "duration": 9, "velocity": 109}, {"time": 656, "pitch": 61, "duration": 5, "velocity": 80}, {"time": 662, "pitch": 54, "duration": 8, "velocity": 84}, {"time": 662, "pitch": 57, "duration": 3, "velocity": 86}, {"time": 662, "pitch": 61, "duration": 5, "velocity": 83}, {"time": 662, "pitch": 66, "duration": 4, "velocity": 84}, {"time": 674, "pitch": 47, "duration": 42, "velocity": 78}, {"time": 674, "pitch": 59, "duration": 9, "velocity": 88}, {"time": 674, "pitch": 62, "duration": 9, "velocity": 98}, {"time": 674, "pitch": 66, "duration": 9, "velocity": 86}, {"time": 686, "pitch": 59, "duration": 10, "velocity": 87}, {"time": 686, "pitch": 62, "duration": 10, "velocity": 94}, {"time": 686, "pitch": 66, "duration": 9, "velocity": 87}, {"time": 698, "pitch": 59, "duration": 9, "velocity": 88}, {"time": 698, "pitch": 62, "duration": 9, "velocity": 96}, {"time": 698, "pitch": 66, "duration": 8, "velocity": 88}, {"time": 710, "pitch": 59, "duration": 8, "velocity": 93}, {"time": 710, "pitch": 62, "duration": 7, "velocity": 102}, {"time": 710, "pitch": 66, "duration": 9, "velocity": 89}, {"time": 722, "pitch": 45, "duration": 23, "velocity": 82}, {"time": 722, "pitch": 57, "duration": 12, "velocity": 67}, {"time": 722, "pitch": 61, "duration": 14, "velocity": 78}, {"time": 722, "pitch": 67, "duration": 9, "velocity": 96}, {"time": 734, "pitch": 67, "duration": 10, "velocity": 102}, {"time": 740, "pitch": 61, "duration": 4, "velocity": 86}, {"time": 746, "pitch": 50, "duration": 15, "velocity": 87}, {"time": 746, "pitch": 57, "duration": 9, "velocity": 88}, {"time": 746, "pitch": 62, "duration": 9, "velocity": 107}, {"time": 746, "pitch": 66, "duration": 9, "velocity": 90}, {"time": 758, "pitch": 57, "duration": 6, "velocity": 89}, {"time": 758, "pitch": 62, "duration": 6, "velocity": 108}, {"time": 758, "pitch": 66, "duration": 6, "velocity": 91}, {"time": 764, "pitch": 50, "duration": 6, "velocity": 85}, {"time": 770, "pitch": 43, "duration": 19, "velocity": 88}, {"time": 770, "pitch": 59, "duration": 8, "velocity": 93}, {"time": 770, "pitch": 62, "duration": 8, "velocity": 96}, {"time": 776, "pitch": 50, "duration": 12, "velocity": 64}, {"time": 782, "pitch": 59, "duration": 6, "velocity": 102}, {"time": 782, "pitch": 62, "duration": 6, "velocity": 104}, {"time": 794, "pitch": 43, "duration": 20, "velocity": 81}, {"time": 794, "pitch": 57, "duration": 9, "velocity": 79}, {"time": 794, "pitch": 61, "duration": 9, "velocity": 80}, {"time": 794, "pitch": 64, "duration": 8, "velocity": 86}, {"time": 806, "pitch": 57, "duration": 7, "velocity": 81}, {"time": 806, "pitch": 61, "duration": 8, "velocity": 83}, {"time": 806, "pitch": 64, "duration": 7, "velocity": 86}, {"time": 818, "pitch": 42, "duration": 16, "velocity": 79}, {"time": 818, "pitch": 54, "duration": 18, "velocity": 81}, {"time": 818, "pitch": 57, "duration": 8, "velocity": 86}, {"time": 818, "pitch": 61, "duration": 7, "velocity": 86}, {"time": 818, "pitch": 66, "duration": 6, "velocity": 84}, {"time": 830, "pitch": 57, "duration": 6, "velocity": 86}, {"time": 830, "pitch": 61, "duration": 9, "velocity": 88}, {"time": 830, "pitch": 66, "duration": 6, "velocity": 85}, {"time": 842, "pitch": 47, "duration": 17, "velocity": 83}, {"time": 842, "pitch": 59, "duration": 8, "velocity": 85}, {"time": 842, "pitch": 63, "duration": 9, "velocity": 86}, {"time": 842, "pitch": 66, "duration": 9, "velocity": 80}, {"time": 854, "pitch": 59, "duration": 9, "velocity": 87}, {"time": 854, "pitch": 63, "duration": 9, "velocity": 91}, {"time": 854, "pitch": 66, "duration": 9, "velocity": 85}, {"time": 866, "pitch": 40, "duration": 18, "velocity": 81}, {"time": 866, "pitch": 52, "duration": 21, "velocity": 80}, {"time": 866, "pitch": 59, "duration": 7, "velocity": 83}, {"time": 866, "pitch": 64, "duration": 7, "velocity": 84}, {"time": 866, "pitch": 67, "duration": 7, "velocity": 86}, {"time": 878, "pitch": 59, "duration": 7, "velocity": 90}, {"time": 878, "pitch": 64, "duration": 7, "velocity": 94}, {"time": 878, "pitch": 67, "duration": 7, "velocity": 89}, {"time": 890, "pitch": 45, "duration": 20, "velocity": 83}, {"time": 890, "pitch": 57, "duration": 8, "velocity": 83}, {"time": 890, "pitch": 61, "duration": 8, "velocity": 84}, {"time": 890, "pitch": 64, "duration": 7, "velocity": 83}, {"time": 890, "pitch": 67, "duration": 8, "velocity": 80}, {"time": 902, "pitch": 57, "duration": 7, "velocity": 81}, {"time": 902, "pitch": 61, "duration": 8, "velocity": 86}, {"time": 902, "pitch": 64, "duration": 6, "velocity": 85}, {"time": 902, "pitch": 67, "duration": 6, "velocity": 86}, {"time": 914, "pitch": 50, "duration": 32, "velocity": 82}, {"time": 914, "pitch": 57, "duration": 8, "velocity": 83}, {"time": 914, "pitch": 62, "duration": 8, "velocity": 86}, {"time": 914, "pitch": 66, "duration": 8, "velocity": 86}, {"time": 926, "pitch": 57, "duration": 9, "velocity": 86}, {"time": 926, "pitch": 62, "duration": 9, "velocity": 93}, {"time": 926, "pitch": 66, "duration": 8, "velocity": 86}, {"time": 938, "pitch": 38, "duration": 21, "velocity": 85}, {"time": 938, "pitch": 57, "duration": 10, "velocity": 87}, {"time": 938, "pitch": 62, "duration": 10, "velocity": 96}, {"time": 938, "pitch": 66, "duration": 10, "velocity": 90}, {"time": 947, "pitch": 50, "duration": 6, "velocity": 85}, {"time": 950, "pitch": 57, "duration": 6, "velocity": 88}, {"time": 950, "pitch": 62, "duration": 7, "velocity": 102}, {"time": 950, "pitch": 66, "duration": 7, "velocity": 91}, {"time": 956, "pitch": 50, "duration": 4, "velocity": 89}, {"time": 962, "pitch": 50, "duration": 40, "velocity": 87}, {"time": 962, "pitch": 57, "duration": 8, "velocity": 87}, {"time": 962, "pitch": 62, "duration": 9, "velocity": 94}, {"time": 962, "pitch": 66, "duration": 9, "velocity": 89}, {"time": 974, "pitch": 57, "duration": 10, "velocity": 89}, {"time": 974, "pitch": 62, "duration": 10, "velocity": 100}, {"time": 974, "pitch": 66, "duration": 10, "velocity": 89}, {"time": 986, "pitch": 57, "duration": 8, "velocity": 88}, {"time": 986, "pitch": 62, "duration": 8, "velocity": 100}, {"time": 986, "pitch": 66, "duration": 8, "velocity": 89}, {"time": 998, "pitch": 57, "duration": 9, "velocity": 89}, {"time": 998, "pitch": 62, "duration": 10, "velocity": 100}, {"time": 998, "pitch": 66, "duration": 8, "velocity": 90}, {"time": 1010, "pitch": 42, "duration": 41, "velocity": 84}, {"time": 1010, "pitch": 57, "duration": 7, "velocity": 87}, {"time": 1010, "pitch": 61, "duration": 9, "velocity": 87}, {"time": 1010, "pitch": 66, "duration": 7, "velocity": 87}, {"time": 1016, "pitch": 49, "duration": 34, "velocity": 95}, {"time": 1022, "pitch": 57, "duration": 8, "velocity": 91}, {"time": 1022, "pitch": 61, "duration": 11, "velocity": 95}, {"time": 1022, "pitch": 66, "duration": 9, "velocity": 93}, {"time": 1031, "pitch": 54, "duration": 5, "velocity": 74}, {"time": 1034, "pitch": 66, "duration": 18, "velocity": 106}, {"time": 1040, "pitch": 54, "duration": 7, "velocity": 70}, {"time": 1046, "pitch": 61, "duration": 11, "velocity": 109}, {"time": 1049, "pitch": 54, "duration": 3, "velocity": 84}, {"time": 1052, "pitch": 57, "duration": 3, "velocity": 93}, {"time": 1058, "pitch": 47, "duration": 47, "velocity": 85}, {"time": 1058, "pitch": 59, "duration": 10, "velocity": 88}, {"time": 1058, "pitch": 62, "duration": 9, "velocity": 93}, {"time": 1058, "pitch": 66, "duration": 9, "velocity": 88}, {"time": 1070, "pitch": 59, "duration": 10, "velocity": 88}, {"time": 1070, "pitch": 62, "duration": 9, "velocity": 96}, {"time": 1070, "pitch": 66, "duration": 9, "velocity": 87}, {"time": 1082, "pitch": 59, "duration": 9, "velocity": 89}, {"time": 1082, "pitch": 62, "duration": 9, "velocity": 93}, {"time": 1082, "pitch": 66, "duration": 9, "velocity": 87}, {"time": 1094, "pitch": 59, "duration": 10, "velocity": 88}, {"time": 1094, "pitch": 62, "duration": 7, "velocity": 93}, {"time": 1094, "pitch": 66, "duration": 6, "velocity": 83}, {"time": 1106, "pitch": 42, "duration": 38, "velocity": 87}, {"time": 1106, "pitch": 57, "duration": 7, "velocity": 83}, {"time": 1106, "pitch": 61, "duration": 8, "velocity": 88}, {"time": 1106, "pitch": 66, "duration": 7, "velocity": 86}, {"time": 1112, "pitch": 54, "duration": 7, "velocity": 67}, {"time": 1118, "pitch": 57, "duration": 9, "velocity": 87}, {"time": 1118, "pitch": 61, "duration": 10, "velocity": 87}, {"time": 1118, "pitch": 66, "duration": 9, "velocity": 87}, {"time": 1127, "pitch": 54, "duration": 6, "velocity": 74}, {"time": 1130, "pitch": 57, "duration": 9, "velocity": 87}, {"time": 1130, "pitch": 61, "duration": 10, "velocity": 87}, {"time": 1130, "pitch": 66, "duration": 9, "velocity": 90}, {"time": 1139, "pitch": 54, "duration": 4, "velocity": 73}, {"time": 1142, "pitch": 57, "duration": 6, "velocity": 88}, {"time": 1142, "pitch": 61, "duration": 9, "velocity": 91}, {"time": 1142, "pitch": 66, "duration": 6, "velocity": 90}, {"time": 1148, "pitch": 42, "duration": 1, "velocity": 97}, {"time": 1154, "pitch": 43, "duration": 21, "velocity": 89}, {"time": 1154, "pitch": 59, "duration": 8, "velocity": 88}, {"time": 1154, "pitch": 62, "duration": 9, "velocity": 102}, {"time": 1154, "pitch": 67, "duration": 8, "velocity": 89}, {"time": 1163, "pitch": 55, "duration": 5, "velocity": 70}, {"time": 1166, "pitch": 59, "duration": 6, "velocity": 91}, {"time": 1166, "pitch": 62, "duration": 8, "velocity": 94}, {"time": 1166, "pitch": 67, "duration": 7, "velocity": 93}, {"time": 1172, "pitch": 55, "duration": 3, "velocity": 74}, {"time": 1178, "pitch": 43, "duration": 15, "velocity": 87}, {"time": 1178, "pitch": 57, "duration": 10, "velocity": 87}, {"time": 1178, "pitch": 61, "duration": 10, "velocity": 88}, {"time": 1178, "pitch": 64, "duration": 9, "velocity": 91}, {"time": 1190, "pitch": 57, "duration": 7, "velocity": 90}, {"time": 1190, "pitch": 61, "duration": 7, "velocity": 100}, {"time": 1190, "pitch": 64, "duration": 7, "velocity": 98}, {"time": 1196, "pitch": 43, "duration": 1, "velocity": 84}, {"time": 1202, "pitch": 42, "duration": 11, "velocity": 87}, {"time": 1202, "pitch": 57, "duration": 8, "velocity": 94}, {"time": 1202, "pitch": 61, "duration": 8, "velocity": 100}, {"time": 1202, "pitch": 66, "duration": 8, "velocity": 97}, {"time": 1214, "pitch": 46, "duration": 11, "velocity": 87}, {"time": 1214, "pitch": 58, "duration": 7, "velocity": 87}, {"time": 1214, "pitch": 61, "duration": 10, "velocity": 103}, {"time": 1214, "pitch": 66, "duration": 7, "velocity": 86}, {"time": 1226, "pitch": 47, "duration": 20, "velocity": 92}, {"time": 1226, "pitch": 59, "duration": 10, "velocity": 91}, {"time": 1226, "pitch": 62, "duration": 10, "velocity": 110}, {"time": 1226, "pitch": 66, "duration": 9, "velocity": 95}, {"time": 1238, "pitch": 59, "duration": 7, "velocity": 96}, {"time": 1238, "pitch": 62, "duration": 7, "velocity": 113}, {"time": 1238, "pitch": 66, "duration": 6, "velocity": 100}, {"time": 1250, "pitch": 40, "duration": 6, "velocity": 88}, {"time": 1250, "pitch": 52, "duration": 6, "velocity": 88}, {"time": 1250, "pitch": 59, "duration": 8, "velocity": 91}, {"time": 1250, "pitch": 64, "duration": 10, "velocity": 98}, {"time": 1250, "pitch": 67, "duration": 9, "velocity": 96}, {"time": 1262, "pitch": 42, "duration": 6, "velocity": 83}, {"time": 1262, "pitch": 54, "duration": 6, "velocity": 89}, {"time": 1262, "pitch": 57, "duration": 7, "velocity": 88}, {"time": 1262, "pitch": 62, "duration": 9, "velocity": 93}, {"time": 1262, "pitch": 66, "duration": 9, "velocity": 90}, {"time": 1274, "pitch": 43, "duration": 20, "velocity": 87}, {"time": 1274, "pitch": 55, "duration": 20, "velocity": 86}, {"time": 1274, "pitch": 59, "duration": 9, "velocity": 90}, {"time": 1274, "pitch": 62, "duration": 9, "velocity": 104}, {"time": 1274, "pitch": 67, "duration": 9, "velocity": 96}, {"time": 1286, "pitch": 59, "duration": 6, "velocity": 94}, {"time": 1286, "pitch": 62, "duration": 5, "velocity": 104}, {"time": 1286, "pitch": 67, "duration": 9, "velocity": 93}, {"time": 1298, "pitch": 46, "duration": 22, "velocity": 97}, {"time": 1298, "pitch": 58, "duration": 9, "velocity": 113}, {"time": 1298, "pitch": 62, "duration": 8, "velocity": 110}, {"time": 1298, "pitch": 65, "duration": 9, "velocity": 108}, {"time": 1310, "pitch": 58, "duration": 8, "velocity": 116}, {"time": 1310, "pitch": 62, "duration": 8, "velocity": 113}, {"time": 1310, "pitch": 65, "duration": 8, "velocity": 107}, {"time": 1322, "pitch": 45, "duration": 14, "velocity": 98}, {"time": 1322, "pitch": 57, "duration": 9, "velocity": 102}, {"time": 1322, "pitch": 61, "duration": 9, "velocity": 113}, {"time": 1322, "pitch": 64, "duration": 9, "velocity": 107}, {"time": 1334, "pitch": 57, "duration": 6, "velocity": 110}, {"time": 1334, "pitch": 61, "duration": 6, "velocity": 116}, {"time": 1334, "pitch": 64, "duration": 5, "velocity": 108}, {"time": 1340, "pitch": 45, "duration": 4, "velocity": 100}, {"time": 1346, "pitch": 50, "duration": 39, "velocity": 89}, {"time": 1346, "pitch": 57, "duration": 4, "velocity": 94}, {"time": 1346, "pitch": 62, "duration": 10, "velocity": 108}, {"time": 1346, "pitch": 66, "duration": 9, "velocity": 89}, {"time": 1358, "pitch": 62, "duration": 11, "velocity": 90}, {"time": 1358, "pitch": 66, "duration": 11, "velocity": 89}, {"time": 1358, "pitch": 69, "duration": 11, "velocity": 91}, {"time": 1364, "pitch": 57, "duration": 7, "velocity": 36}, {"time": 1370, "pitch": 62, "duration": 7, "velocity": 82}, {"time": 1370, "pitch": 66, "duration": 6, "velocity": 80}, {"time": 1370, "pitch": 69, "duration": 7, "velocity": 81}, {"time": 1376, "pitch": 57, "duration": 8, "velocity": 42}, {"time": 1382, "pitch": 62, "duration": 4, "velocity": 114}, {"time": 1382, "pitch": 66, "duration": 8, "velocity": 113}, {"time": 1382, "pitch": 69, "duration": 9, "velocity": 104}, {"time": 1394, "pitch": 42, "duration": 38, "velocity": 82}, {"time": 1394, "pitch": 54, "duration": 15, "velocity": 83}, {"time": 1394, "pitch": 57, "duration": 9, "velocity": 89}, {"time": 1394, "pitch": 61, "duration": 10, "velocity": 91}, {"time": 1394, "pitch": 66, "duration": 10, "velocity": 86}, {"time": 1406, "pitch": 57, "duration": 11, "velocity": 84}, {"time": 1406, "pitch": 61, "duration": 12, "velocity": 85}, {"time": 1406, "pitch": 66, "duration": 12, "velocity": 82}, {"time": 1415, "pitch": 54, "duration": 7, "velocity": 68}, {"time": 1418, "pitch": 57, "duration": 6, "velocity": 86}, {"time": 1418, "pitch": 61, "duration": 1, "velocity": 84}, {"time": 1418, "pitch": 66, "duration": 7, "velocity": 83}, {"time": 1424, "pitch": 54, "duration": 6, "velocity": 80}, {"time": 1430, "pitch": 57, "duration": 5, "velocity": 102}, {"time": 1430, "pitch": 61, "duration": 9, "velocity": 113}, {"time": 1430, "pitch": 66, "duration": 9, "velocity": 103}, {"time": 1436, "pitch": 42, "duration": 5, "velocity": 86}, {"time": 1442, "pitch": 47, "duration": 38, "velocity": 90}, {"time": 1442, "pitch": 59, "duration": 10, "velocity": 92}, {"time": 1442, "pitch": 62, "duration": 9, "velocity": 107}, {"time": 1442, "pitch": 66, "duration": 9, "velocity": 95}, {"time": 1454, "pitch": 59, "duration": 10, "velocity": 91}, {"time": 1454, "pitch": 62, "duration": 10, "velocity": 102}, {"time": 1454, "pitch": 66, "duration": 11, "velocity": 87}, {"time": 1466, "pitch": 59, "duration": 8, "velocity": 91}, {"time": 1466, "pitch": 62, "duration": 8, "velocity": 100}, {"time": 1466, "pitch": 66, "duration": 9, "velocity": 87}, {"time": 1475, "pitch": 54, "duration": 5, "velocity": 71}, {"time": 1478, "pitch": 59, "duration": 6, "velocity": 94}, {"time": 1478, "pitch": 62, "duration": 7, "velocity": 102}, {"time": 1478, "pitch": 66, "duration": 6, "velocity": 93}, {"time": 1490, "pitch": 42, "duration": 20, "velocity": 80}, {"time": 1490, "pitch": 57, "duration": 8, "velocity": 88}, {"time": 1490, "pitch": 61, "duration": 8, "velocity": 88}, {"time": 1490, "pitch": 66, "duration": 7, "velocity": 87}, {"time": 1496, "pitch": 54, "duration": 7, "velocity": 68}, {"time": 1502, "pitch": 57, "duration": 9, "velocity": 91}, {"time": 1502, "pitch": 61, "duration": 9, "velocity": 106}, {"time": 1502, "pitch": 66, "duration": 9, "velocity": 95}, {"time": 1508, "pitch": 54, "duration": 3, "velocity": 81}, {"time": 1514, "pitch": 45, "duration": 10, "velocity": 86}, {"time": 1514, "pitch": 57, "duration": 10, "velocity": 89}, {"time": 1514, "pitch": 61, "duration": 9, "velocity": 90}, {"time": 1514, "pitch": 67, "duration": 9, "velocity": 93}, {"time": 1526, "pitch": 50, "duration": 12, "velocity": 88}, {"time": 1526, "pitch": 57, "duration": 8, "velocity": 89}, {"time": 1526, "pitch": 62, "duration": 11, "velocity": 102}, {"time": 1526, "pitch": 66, "duration": 11, "velocity": 86}, {"time": 1538, "pitch": 43, "duration": 19, "velocity": 88}, {"time": 1538, "pitch": 59, "duration": 9, "velocity": 89}, {"time": 1538, "pitch": 62, "duration": 7, "velocity": 93}, {"time": 1538, "pitch": 67, "duration": 8, "velocity": 93}, {"time": 1544, "pitch": 50, "duration": 7, "velocity": 40}, {"time": 1550, "pitch": 59, "duration": 6, "velocity": 88}, {"time": 1550, "pitch": 62, "duration": 10, "velocity": 90}, {"time": 1550, "pitch": 67, "duration": 7, "velocity": 89}, {"time": 1556, "pitch": 50, "duration": 5, "velocity": 70}, {"time": 1562, "pitch": 45, "duration": 18, "velocity": 84}, {"time": 1562, "pitch": 57, "duration": 8, "velocity": 87}, {"time": 1562, "pitch": 61, "duration": 9, "velocity": 88}, {"time": 1562, "pitch": 64, "duration": 8, "velocity": 89}, {"time": 1574, "pitch": 57, "duration": 7, "velocity": 91}, {"time": 1574, "pitch": 61, "duration": 9, "velocity": 95}, {"time": 1574, "pitch": 64, "duration": 8, "velocity": 96}, {"time": 1586, "pitch": 42, "duration": 12, "velocity": 86}, {"time": 1586, "pitch": 57, "duration": 7, "velocity": 88}, {"time": 1586, "pitch": 61, "duration": 8, "velocity": 87}, {"time": 1586, "pitch": 66, "duration": 8, "velocity": 86}, {"time": 1598, "pitch": 46, "duration": 10, "velocity": 85}, {"time": 1598, "pitch": 58, "duration": 7, "velocity": 87}, {"time": 1598, "pitch": 61, "duration": 11, "velocity": 91}, {"time": 1598, "pitch": 66, "duration": 10, "velocity": 87}, {"time": 1610, "pitch": 47, "duration": 18, "velocity": 87}, {"time": 1610, "pitch": 59, "duration": 10, "velocity": 88}, {"time": 1610, "pitch": 62, "duration": 9, "velocity": 100}, {"time": 1610, "pitch": 66, "duration": 9, "velocity": 86}, {"time": 1622, "pitch": 59, "duration": 8, "velocity": 91}, {"time": 1622, "pitch": 62, "duration": 8, "velocity": 100}, {"time": 1622, "pitch": 66, "duration": 8, "velocity": 88}, {"time": 1634, "pitch": 40, "duration": 20, "velocity": 86}, {"time": 1634, "pitch": 52, "duration": 20, "velocity": 85}, {"time": 1634, "pitch": 59, "duration": 7, "velocity": 87}, {"time": 1634, "pitch": 64, "duration": 8, "velocity": 89}, {"time": 1634, "pitch": 67, "duration": 7, "velocity": 87}, {"time": 1646, "pitch": 59, "duration": 6, "velocity": 89}, {"time": 1646, "pitch": 64, "duration": 5, "velocity": 92}, {"time": 1646, "pitch": 67, "duration": 7, "velocity": 88}, {"time": 1658, "pitch": 45, "duration": 20, "velocity": 83}, {"time": 1658, "pitch": 57, "duration": 8, "velocity": 84}, {"time": 1658, "pitch": 61, "duration": 9, "velocity": 86}, {"time": 1658, "pitch": 64, "duration": 8, "velocity": 86}, {"time": 1658, "pitch": 67, "duration": 8, "velocity": 87}, {"time": 1670, "pitch": 57, "duration": 10, "velocity": 86}, {"time": 1670, "pitch": 61, "duration": 7, "velocity": 87}, {"time": 1670, "pitch": 64, "duration": 6, "velocity": 87}, {"time": 1670, "pitch": 67, "duration": 6, "velocity": 88}, {"time": 1682, "pitch": 46, "duration": 22, "velocity": 96}, {"time": 1682, "pitch": 58, "duration": 9, "velocity": 102}, {"time": 1682, "pitch": 62, "duration": 9, "velocity": 109}, {"time": 1682, "pitch": 65, "duration": 8, "velocity": 108}, {"time": 1694, "pitch": 58, "duration": 10, "velocity": 107}, {"time": 1694, "pitch": 62, "duration": 10, "velocity": 116}, {"time": 1694, "pitch": 65, "duration": 10, "velocity": 113}, {"time": 1706, "pitch": 46, "duration": 6, "velocity": 98}, {"time": 1706, "pitch": 58, "duration": 4, "velocity": 110}, {"time": 1706, "pitch": 62, "duration": 4, "velocity": 116}, {"time": 1706, "pitch": 65, "duration": 4, "velocity": 113}, {"time": 1712, "pitch": 58, "duration": 4, "velocity": 110}, {"time": 1712, "pitch": 62, "duration": 4, "velocity": 116}, {"time": 1712, "pitch": 65, "duration": 4, "velocity": 113}, {"time": 1715, "pitch": 46, "duration": 5, "velocity": 110}, {"time": 1718, "pitch": 58, "duration": 4, "velocity": 113}, {"time": 1718, "pitch": 62, "duration": 4, "velocity": 123}, {"time": 1718, "pitch": 65, "duration": 3, "velocity": 119}, {"time": 1724, "pitch": 46, "duration": 1, "velocity": 113}, {"time": 1724, "pitch": 58, "duration": 4, "velocity": 113}, {"time": 1724, "pitch": 62, "duration": 4, "velocity": 123}, {"time": 1724, "pitch": 65, "duration": 3, "velocity": 119}, {"time": 1730, "pitch": 51, "duration": 39, "velocity": 104}, {"time": 1730, "pitch": 58, "duration": 1, "velocity": 90}, {"time": 1730, "pitch": 63, "duration": 2, "velocity": 114}, {"time": 1730, "pitch": 67, "duration": 3, "velocity": 109}, {"time": 1736, "pitch": 58, "duration": 15, "velocity": 85}, {"time": 1739, "pitch": 63, "duration": 4, "velocity": 113}, {"time": 1742, "pitch": 67, "duration": 6, "velocity": 116}, {"time": 1742, "pitch": 70, "duration": 5, "velocity": 117}, {"time": 1742, "pitch": 75, "duration": 5, "velocity": 113}, {"time": 1748, "pitch": 63, "duration": 1, "velocity": 84}, {"time": 1751, "pitch": 63, "duration": 4, "velocity": 100}, {"time": 1751, "pitch": 67, "duration": 4, "velocity": 113}, {"time": 1751, "pitch": 70, "duration": 5, "velocity": 114}, {"time": 1757, "pitch": 63, "duration": 6, "velocity": 89}, {"time": 1757, "pitch": 67, "duration": 6, "velocity": 93}, {"time": 1757, "pitch": 70, "duration": 7, "velocity": 89}, {"time": 1763, "pitch": 58, "duration": 5, "velocity": 92}, {"time": 1766, "pitch": 63, "duration": 6, "velocity": 113}, {"time": 1766, "pitch": 67, "duration": 7, "velocity": 123}, {"time": 1766, "pitch": 70, "duration": 7, "velocity": 114}, {"time": 1772, "pitch": 51, "duration": 1, "velocity": 91}, {"time": 1775, "pitch": 58, "duration": 1, "velocity": 67}, {"time": 1778, "pitch": 43, "duration": 31, "velocity": 113}, {"time": 1781, "pitch": 50, "duration": 27, "velocity": 75}, {"time": 1784, "pitch": 55, "duration": 7, "velocity": 97}, {"time": 1787, "pitch": 58, "duration": 3, "velocity": 86}, {"time": 1790, "pitch": 62, "duration": 8, "velocity": 109}, {"time": 1790, "pitch": 67, "duration": 8, "velocity": 123}, {"time": 1796, "pitch": 55, "duration": 13, "velocity": 81}, {"time": 1799, "pitch": 58, "duration": 2, "velocity": 68}, {"time": 1799, "pitch": 67, "duration": 2, "velocity": 100}, {"time": 1805, "pitch": 58, "duration": 10, "velocity": 93}, {"time": 1805, "pitch": 67, "duration": 13, "velocity": 93}, {"time": 1808, "pitch": 62, "duration": 8, "velocity": 116}, {"time": 1811, "pitch": 43, "duration": 7, "velocity": 95}, {"time": 1814, "pitch": 55, "duration": 5, "velocity": 119}, {"time": 1817, "pitch": 58, "duration": 5, "velocity": 107}, {"time": 1820, "pitch": 62, "duration": 3, "velocity": 113}, {"time": 1823, "pitch": 67, "duration": 2, "velocity": 89}, {"time": 1826, "pitch": 48, "duration": 20, "velocity": 94}, {"time": 1826, "pitch": 63, "duration": 9, "velocity": 117}, {"time": 1826, "pitch": 67, "duration": 10, "velocity": 86}, {"time": 1832, "pitch": 55, "duration": 18, "velocity": 81}, {"time": 1835, "pitch": 60, "duration": 5, "velocity": 96}, {"time": 1838, "pitch": 63, "duration": 7, "velocity": 92}, {"time": 1838, "pitch": 67, "duration": 7, "velocity": 100}, {"time": 1838, "pitch": 70, "duration": 10, "velocity": 102}, {"time": 1844, "pitch": 60, "duration": 4, "velocity": 87}, {"time": 1850, "pitch": 48, "duration": 15, "velocity": 89}, {"time": 1850, "pitch": 63, "duration": 7, "velocity": 91}, {"time": 1850, "pitch": 67, "duration": 9, "velocity": 100}, {"time": 1850, "pitch": 70, "duration": 5, "velocity": 89}, {"time": 1856, "pitch": 55, "duration": 10, "velocity": 80}, {"time": 1859, "pitch": 60, "duration": 6, "velocity": 102}, {"time": 1862, "pitch": 63, "duration": 4, "velocity": 113}, {"time": 1865, "pitch": 65, "duration": 2, "velocity": 114}, {"time": 1868, "pitch": 67, "duration": 2, "velocity": 113}, {"time": 1868, "pitch": 70, "duration": 3, "velocity": 91}, {"time": 1874, "pitch": 43, "duration": 19, "velocity": 93}, {"time": 1874, "pitch": 58, "duration": 9, "velocity": 89}, {"time": 1874, "pitch": 62, "duration": 10, "velocity": 97}, {"time": 1874, "pitch": 67, "duration": 10, "velocity": 85}, {"time": 1880, "pitch": 50, "duration": 13, "velocity": 73}, {"time": 1883, "pitch": 55, "duration": 4, "velocity": 84}, {"time": 1886, "pitch": 58, "duration": 7, "velocity": 108}, {"time": 1886, "pitch": 62, "duration": 7, "velocity": 116}, {"time": 1886, "pitch": 67, "duration": 7, "velocity": 116}, {"time": 1892, "pitch": 55, "duration": 3, "velocity": 95}, {"time": 1898, "pitch": 46, "duration": 11, "velocity": 91}, {"time": 1898, "pitch": 58, "duration": 10, "velocity": 102}, {"time": 1898, "pitch": 62, "duration": 9, "velocity": 113}, {"time": 1898, "pitch": 68, "duration": 6, "velocity": 108}, {"time": 1907, "pitch": 68, "duration": 2, "velocity": 107}, {"time": 1910, "pitch": 51, "duration": 12, "velocity": 91}, {"time": 1910, "pitch": 58, "duration": 6, "velocity": 100}, {"time": 1910, "pitch": 63, "duration": 7, "velocity": 117}, {"time": 1910, "pitch": 67, "duration": 5, "velocity": 113}, {"time": 1916, "pitch": 68, "duration": 5, "velocity": 110}, {"time": 1922, "pitch": 44, "duration": 22, "velocity": 91}, {"time": 1922, "pitch": 60, "duration": 10, "velocity": 102}, {"time": 1922, "pitch": 63, "duration": 10, "velocity": 114}, {"time": 1922, "pitch": 68, "duration": 10, "velocity": 100}, {"time": 1928, "pitch": 51, "duration": 15, "velocity": 77}, {"time": 1931, "pitch": 56, "duration": 11, "velocity": 92}, {"time": 1934, "pitch": 60, "duration": 4, "velocity": 107}, {"time": 1937, "pitch": 63, "duration": 7, "velocity": 110}, {"time": 1940, "pitch": 68, "duration": 4, "velocity": 113}, {"time": 1943, "pitch": 49, "duration": 1, "velocity": 81}, {"time": 1946, "pitch": 44, "duration": 18, "velocity": 94}, {"time": 1946, "pitch": 58, "duration": 10, "velocity": 91}, {"time": 1946, "pitch": 62, "duration": 10, "velocity": 103}, {"time": 1946, "pitch": 65, "duration": 10, "velocity": 98}, {"time": 1955, "pitch": 51, "duration": 4, "velocity": 84}, {"time": 1958, "pitch": 58, "duration": 7, "velocity": 107}, {"time": 1958, "pitch": 62, "duration": 7, "velocity": 113}, {"time": 1958, "pitch": 65, "duration": 7, "velocity": 113}, {"time": 1964, "pitch": 51, "duration": 1, "velocity": 89}, {"time": 1970, "pitch": 43, "duration": 10, "velocity": 86}, {"time": 1970, "pitch": 58, "duration": 7, "velocity": 91}, {"time": 1970, "pitch": 62, "duration": 7, "velocity": 103}, {"time": 1970, "pitch": 67, "duration": 7, "velocity": 93}, {"time": 1982, "pitch": 47, "duration": 7, "velocity": 87}, {"time": 1982, "pitch": 59, "duration": 6, "velocity": 90}, {"time": 1982, "pitch": 62, "duration": 10, "velocity": 100}, {"time": 1982, "pitch": 67, "duration": 9, "velocity": 89}, {"time": 1994, "pitch": 48, "duration": 51, "velocity": 92}, {"time": 1994, "pitch": 60, "duration": 4, "velocity": 93}, {"time": 1994, "pitch": 63, "duration": 5, "velocity": 107}, {"time": 1994, "pitch": 67, "duration": 7, "velocity": 93}, {"time": 2000, "pitch": 55, "duration": 45, "velocity": 78}, {"time": 2003, "pitch": 60, "duration": 41, "velocity": 89}, {"time": 2006, "pitch": 63, "duration": 7, "velocity": 107}, {"time": 2012, "pitch": 67, "duration": 32, "velocity": 106}, {"time": 2018, "pitch": 63, "duration": 26, "velocity": 36}, {"time": 2018, "pitch": 70, "duration": 26, "velocity": 88}, {"time": 2096, "pitch": 60, "duration": 23, "velocity": 64}, {"time": 2097, "pitch": 63, "duration": 22, "velocity": 78}, {"time": 2099, "pitch": 44, "duration": 23, "velocity": 69}, {"time": 2099, "pitch": 68, "duration": 21, "velocity": 83}, {"time": 2129, "pitch": 58, "duration": 27, "velocity": 38}, {"time": 2130, "pitch": 46, "duration": 30, "velocity": 70}, {"time": 2130, "pitch": 62, "duration": 28, "velocity": 77}, {"time": 2132, "pitch": 65, "duration": 26, "velocity": 78}, {"time": 2190, "pitch": 58, "duration": 6, "velocity": 78}, {"time": 2192, "pitch": 39, "duration": 14, "velocity": 81}, {"time": 2192, "pitch": 51, "duration": 14, "velocity": 81}, {"time": 2192, "pitch": 63, "duration": 1, "velocity": 88}, {"time": 2192, "pitch": 67, "duration": 11, "velocity": 86}, {"time": 2207, "pitch": 58, "duration": 3, "velocity": 87}, {"time": 2210, "pitch": 63, "duration": 3, "velocity": 86}, {"time": 2213, "pitch": 67, "duration": 2, "velocity": 76}, {"time": 2216, "pitch": 36, "duration": 9, "velocity": 86}, {"time": 2216, "pitch": 48, "duration": 9, "velocity": 86}, {"time": 2216, "pitch": 65, "duration": 10, "velocity": 103}, {"time": 2231, "pitch": 36, "duration": 10, "velocity": 86}, {"time": 2231, "pitch": 48, "duration": 10, "velocity": 86}, {"time": 2231, "pitch": 60, "duration": 9, "velocity": 88}, {"time": 2231, "pitch": 64, "duration": 10, "velocity": 90}, {"time": 2231, "pitch": 67, "duration": 10, "velocity": 90}, {"time": 2244, "pitch": 41, "duration": 13, "velocity": 86}, {"time": 2244, "pitch": 53, "duration": 13, "velocity": 86}, {"time": 2244, "pitch": 60, "duration": 8, "velocity": 88}, {"time": 2244, "pitch": 65, "duration": 10, "velocity": 91}, {"time": 2244, "pitch": 68, "duration": 12, "velocity": 88}, {"time": 2258, "pitch": 43, "duration": 14, "velocity": 85}, {"time": 2258, "pitch": 55, "duration": 14, "velocity": 85}, {"time": 2258, "pitch": 63, "duration": 11, "velocity": 87}, {"time": 2258, "pitch": 67, "duration": 13, "velocity": 87}, {"time": 2258, "pitch": 70, "duration": 11, "velocity": 88}, {"time": 2273, "pitch": 44, "duration": 11, "velocity": 80}, {"time": 2273, "pitch": 56, "duration": 11, "velocity": 80}, {"time": 2273, "pitch": 60, "duration": 11, "velocity": 86}, {"time": 2273, "pitch": 63, "duration": 11, "velocity": 89}, {"time": 2273, "pitch": 68, "duration": 11, "velocity": 88}, {"time": 2291, "pitch": 62, "duration": 10, "velocity": 54}, {"time": 2291, "pitch": 70, "duration": 6, "velocity": 54}, {"time": 2291, "pitch": 46, "duration": 52, "velocity": 54}, {"time": 2291, "pitch": 65, "duration": 7, "velocity": 59}, {"time": 2295, "pitch": 53, "duration": 47, "velocity": 61}, {"time": 2299, "pitch": 58, "duration": 44, "velocity": 67}, {"time": 2302, "pitch": 62, "duration": 3, "velocity": 71}, {"time": 2305, "pitch": 63, "duration": 4, "velocity": 75}, {"time": 2308, "pitch": 65, "duration": 4, "velocity": 79}, {"time": 2312, "pitch": 70, "duration": 3, "velocity": 85}, {"time": 2315, "pitch": 74, "duration": 4, "velocity": 93}, {"time": 2319, "pitch": 75, "duration": 4, "velocity": 95}, {"time": 2322, "pitch": 77, "duration": 27, "velocity": 99}, {"time": 2327, "pitch": 82, "duration": 21, "velocity": 106}, {"time": 2390, "pitch": 51, "duration": 86, "velocity": 81}, {"time": 2395, "pitch": 58, "duration": 80, "velocity": 65}, {"time": 2399, "pitch": 63, "duration": 76, "velocity": 81}, {"time": 2403, "pitch": 67, "duration": 4, "velocity": 74}, {"time": 2407, "pitch": 70, "duration": 6, "velocity": 79}, {"time": 2413, "pitch": 79, "duration": 5, "velocity": 76}, {"time": 2418, "pitch": 75, "duration": 6, "velocity": 70}, {"time": 2424, "pitch": 82, "duration": 5, "velocity": 81}, {"time": 2429, "pitch": 79, "duration": 5, "velocity": 77}, {"time": 2434, "pitch": 87, "duration": 8, "velocity": 83}, {"time": 2442, "pitch": 91, "duration": 12, "velocity": 76}, {"time": 2454, "pitch": 92, "duration": 11, "velocity": 87}, {"time": 2465, "pitch": 94, "duration": 10, "velocity": 88}, {"time": 2475, "pitch": 82, "duration": 12, "velocity": 60}, {"time": 2477, "pitch": 87, "duration": 5, "velocity": 78}], "annotations": [{"time": 26, "annotation": {"number": 64, "value": 127}, "group": "control_change"}, {"time": 28, "annotation": {"number": 64, "value": 74}, "group": "control_change"}, {"time": 28, "annotation": {"number": 64, "value": 127}, "group": "control_change"}, {"time": 71, "annotation": {"number": 64, "value": 74}, "group": "control_change"}, {"time": 71, "annotation": {"number": 64, "value": 127}, "group": "control_change"}, {"time": 71, "annotation": {"number": 64, "value": 38}, "group": "control_change"}, {"time": 72, "annotation": {"number": 64, "value": 0}, "group": "control_change"}, {"time": 74, "annotation": {"number": 64, "value": 127}, "group": "control_change"}, {"time": 111, "annotation": {"number": 64, "value": 0}, "group": "control_change"}, {"time": 122, "annotation": {"number": 64, "value": 127}, "group": "control_change"}, {"time": 142, "annotation": {"number": 64, "value": 74}, "group": "control_change"}, {"time": 143, "annotation": {"number": 64, "value": 0}, "group": "control_change"}, {"time": 148, "annotation": {"number": 64, "value": 127}, "group": "control_change"}, {"time": 180, "annotation": {"number": 64, "value": 38}, "group": "control_change"}, {"time": 180, "annotation": {"number": 64, "value": 0}, "group": "control_change"}, {"time": 183, "annotation": {"number": 64, "value": 127}, "group": "control_change"}, {"time": 194, "annotation": {"number": 64, "value": 127}, "group": "control_change"}, {"time": 197, "annotation": {"number": 64, "value": 74}, "group": "control_change"}, {"time": 197, "annotation": {"number": 64, "value": 127}, "group": "control_change"}, {"time": 197, "annotation": {"number": 64, "value": 38}, "group": "control_change"}, {"time": 198, "annotation": {"number": 64, "value": 0}, "group": "control_change"}, {"time": 240, "annotation": {"number": 64, "value": 74}, "group": "control_change"}, {"time": 240, "annotation": {"number": 64, "value": 0}, "group": "control_change"}, {"time": 242, "annotation": {"number": 64, "value": 74}, "group": "control_change"}, {"time": 242, "annotation": {"number": 64, "value": 127}, "group": "control_change"}, {"time": 288, "annotation": {"number": 64, "value": 74}, "group": "control_change"}, {"time": 288, "annotation": {"number": 64, "value": 127}, "group": "control_change"}, {"time": 288, "annotation": {"number": 64, "value": 0}, "group": "control_change"}, {"time": 290, "annotation": {"number": 64, "value": 127}, "group": "control_change"}, {"time": 335, "annotation": {"number": 64, "value": 74}, "group": "control_change"}, {"time": 335, "annotation": {"number": 64, "value": 127}, "group": "control_change"}, {"time": 336, "annotation": {"number": 64, "value": 74}, "group": "control_change"}, {"time": 336, "annotation": {"number": 64, "value": 127}, "group": "control_change"}, {"time": 336, "annotation": {"number": 64, "value": 38}, "group": "control_change"}, {"time": 336, "annotation": {"number": 64, "value": 0}, "group": "control_change"}, {"time": 337, "annotation": {"number": 64, "value": 127}, "group": "control_change"}, {"time": 338, "annotation": {"number": 64, "value": 127}, "group": "control_change"}, {"time": 347, "annotation": {"number": 64, "value": 74}, "group": "control_change"}, {"time": 347, "annotation": {"number": 64, "value": 0}, "group": "control_change"}, {"time": 383, "annotation": {"number": 64, "value": 38}, "group": "control_change"}, {"time": 383, "annotation": {"number": 64, "value": 0}, "group": "control_change"}, {"time": 386, "annotation": {"number": 64, "value": 38}, "group": "control_change"}, {"time": 386, "annotation": {"number": 64, "value": 127}, "group": "control_change"}, {"time": 431, "annotation": {"number": 64, "value": 74}, "group": "control_change"}, {"time": 431, "annotation": {"number": 64, "value": 127}, "group": "control_change"}, {"time": 432, "annotation": {"number": 64, "value": 0}, "group": "control_change"}, {"time": 434, "annotation": {"number": 64, "value": 127}, "group": "control_change"}, {"time": 456, "annotation": {"number": 64, "value": 38}, "group": "control_change"}, {"time": 456, "annotation": {"number": 64, "value": 0}, "group": "control_change"}, {"time": 458, "annotation": {"number": 64, "value": 127}, "group": "control_change"}, {"time": 479, "annotation": {"number": 64, "value": 38}, "group": "control_change"}, {"time": 479, "annotation": {"number": 64, "value": 0}, "group": "control_change"}, {"time": 482, "annotation": {"number": 64, "value": 127}, "group": "control_change"}, {"time": 527, "annotation": {"number": 64, "value": 74}, "group": "control_change"}, {"time": 527, "annotation": {"number": 64, "value": 12}, "group": "control_change"}, {"time": 529, "annotation": {"number": 64, "value": 127}, "group": "control_change"}, {"time": 542, "annotation": {"number": 64, "value": 0}, "group": "control_change"}, {"time": 548, "annotation": {"number": 64, "value": 63}, "group": "control_change"}]}]}