{"metadata": {"schema_version": "0.2", "title": "None", "source_filename": "319.mid", "source_format": "midi"}, "resolution": 12, "tempos": [{"time": 0, "qpm": 67.00002903334591}], "time_signatures": [{"time": 0, "numerator": 4, "denominator": 4}], "tracks": [{"program": 0, "is_drum": false, "name": "MELODY", "notes": [{"time": 205, "pitch": 76, "duration": 6, "velocity": 116}, {"time": 211, "pitch": 76, "duration": 6, "velocity": 117}, {"time": 217, "pitch": 76, "duration": 6, "velocity": 116}, {"time": 223, "pitch": 76, "duration": 6, "velocity": 117}, {"time": 229, "pitch": 74, "duration": 6, "velocity": 116}, {"time": 235, "pitch": 72, "duration": 6, "velocity": 117}, {"time": 241, "pitch": 71, "duration": 6, "velocity": 117}, {"time": 247, "pitch": 74, "duration": 6, "velocity": 116}, {"time": 253, "pitch": 74, "duration": 6, "velocity": 116}, {"time": 259, "pitch": 74, "duration": 6, "velocity": 108}, {"time": 265, "pitch": 72, "duration": 18, "velocity": 113}, {"time": 283, "pitch": 76, "duration": 4, "velocity": 108}, {"time": 286, "pitch": 74, "duration": 3, "velocity": 98}, {"time": 289, "pitch": 72, "duration": 6, "velocity": 114}, {"time": 295, "pitch": 72, "duration": 6, "velocity": 113}, {"time": 301, "pitch": 72, "duration": 3, "velocity": 108}, {"time": 304, "pitch": 69, "duration": 3, "velocity": 107}, {"time": 307, "pitch": 72, "duration": 3, "velocity": 108}, {"time": 310, "pitch": 69, "duration": 3, "velocity": 104}, {"time": 313, "pitch": 72, "duration": 6, "velocity": 116}, {"time": 319, "pitch": 69, "duration": 12, "velocity": 113}, {"time": 331, "pitch": 76, "duration": 3, "velocity": 116}, {"time": 334, "pitch": 74, "duration": 3, "velocity": 102}, {"time": 337, "pitch": 72, "duration": 6, "velocity": 113}, {"time": 343, "pitch": 72, "duration": 6, "velocity": 114}, {"time": 349, "pitch": 72, "duration": 3, "velocity": 113}, {"time": 352, "pitch": 67, "duration": 3, "velocity": 98}, {"time": 355, "pitch": 72, "duration": 3, "velocity": 110}, {"time": 358, "pitch": 69, "duration": 3, "velocity": 104}, {"time": 361, "pitch": 72, "duration": 6, "velocity": 110}, {"time": 367, "pitch": 74, "duration": 30, "velocity": 117}, {"time": 397, "pitch": 76, "duration": 6, "velocity": 104}, {"time": 403, "pitch": 76, "duration": 6, "velocity": 108}, {"time": 409, "pitch": 76, "duration": 6, "velocity": 110}, {"time": 415, "pitch": 76, "duration": 7, "velocity": 110}, {"time": 421, "pitch": 74, "duration": 6, "velocity": 108}, {"time": 427, "pitch": 72, "duration": 6, "velocity": 113}, {"time": 433, "pitch": 74, "duration": 7, "velocity": 114}, {"time": 439, "pitch": 76, "duration": 6, "velocity": 114}, {"time": 445, "pitch": 76, "duration": 6, "velocity": 116}, {"time": 451, "pitch": 77, "duration": 9, "velocity": 114}, {"time": 460, "pitch": 76, "duration": 15, "velocity": 114}, {"time": 475, "pitch": 74, "duration": 6, "velocity": 116}, {"time": 481, "pitch": 76, "duration": 6, "velocity": 116}, {"time": 487, "pitch": 77, "duration": 6, "velocity": 114}, {"time": 493, "pitch": 76, "duration": 6, "velocity": 113}, {"time": 499, "pitch": 76, "duration": 6, "velocity": 113}, {"time": 505, "pitch": 74, "duration": 18, "velocity": 114}, {"time": 523, "pitch": 74, "duration": 6, "velocity": 114}, {"time": 529, "pitch": 76, "duration": 6, "velocity": 113}, {"time": 535, "pitch": 77, "duration": 6, "velocity": 113}, {"time": 541, "pitch": 79, "duration": 6, "velocity": 114}, {"time": 547, "pitch": 76, "duration": 6, "velocity": 108}, {"time": 553, "pitch": 74, "duration": 30, "velocity": 116}, {"time": 583, "pitch": 74, "duration": 3, "velocity": 113}, {"time": 586, "pitch": 74, "duration": 3, "velocity": 108}, {"time": 589, "pitch": 72, "duration": 6, "velocity": 114}, {"time": 595, "pitch": 74, "duration": 3, "velocity": 117}, {"time": 598, "pitch": 74, "duration": 3, "velocity": 114}, {"time": 601, "pitch": 72, "duration": 6, "velocity": 114}, {"time": 607, "pitch": 74, "duration": 3, "velocity": 113}, {"time": 610, "pitch": 74, "duration": 3, "velocity": 110}, {"time": 613, "pitch": 72, "duration": 6, "velocity": 100}, {"time": 619, "pitch": 74, "duration": 3, "velocity": 117}, {"time": 622, "pitch": 74, "duration": 3, "velocity": 110}, {"time": 625, "pitch": 72, "duration": 6, "velocity": 113}, {"time": 631, "pitch": 74, "duration": 3, "velocity": 113}, {"time": 634, "pitch": 74, "duration": 3, "velocity": 108}, {"time": 637, "pitch": 72, "duration": 6, "velocity": 108}, {"time": 643, "pitch": 74, "duration": 3, "velocity": 117}, {"time": 646, "pitch": 74, "duration": 3, "velocity": 110}, {"time": 649, "pitch": 72, "duration": 3, "velocity": 114}, {"time": 652, "pitch": 76, "duration": 6, "velocity": 116}, {"time": 658, "pitch": 74, "duration": 3, "velocity": 116}, {"time": 661, "pitch": 72, "duration": 3, "velocity": 108}, {"time": 664, "pitch": 76, "duration": 3, "velocity": 113}, {"time": 667, "pitch": 74, "duration": 6, "velocity": 114}, {"time": 673, "pitch": 72, "duration": 12, "velocity": 117}, {"time": 685, "pitch": 77, "duration": 6, "velocity": 119}, {"time": 691, "pitch": 77, "duration": 6, "velocity": 119}, {"time": 697, "pitch": 79, "duration": 6, "velocity": 117}, {"time": 703, "pitch": 76, "duration": 6, "velocity": 120}, {"time": 709, "pitch": 72, "duration": 3, "velocity": 114}, {"time": 712, "pitch": 74, "duration": 6, "velocity": 114}, {"time": 718, "pitch": 76, "duration": 9, "velocity": 116}, {"time": 727, "pitch": 77, "duration": 6, "velocity": 117}, {"time": 733, "pitch": 77, "duration": 3, "velocity": 117}, {"time": 736, "pitch": 77, "duration": 6, "velocity": 119}, {"time": 742, "pitch": 79, "duration": 9, "velocity": 116}, {"time": 751, "pitch": 76, "duration": 6, "velocity": 116}, {"time": 757, "pitch": 72, "duration": 3, "velocity": 96}, {"time": 760, "pitch": 69, "duration": 6, "velocity": 113}, {"time": 766, "pitch": 72, "duration": 21, "velocity": 116}, {"time": 787, "pitch": 76, "duration": 6, "velocity": 104}, {"time": 793, "pitch": 77, "duration": 6, "velocity": 110}, {"time": 799, "pitch": 79, "duration": 6, "velocity": 116}, {"time": 805, "pitch": 77, "duration": 6, "velocity": 110}, {"time": 811, "pitch": 76, "duration": 6, "velocity": 108}, {"time": 817, "pitch": 79, "duration": 12, "velocity": 117}, {"time": 829, "pitch": 79, "duration": 6, "velocity": 119}, {"time": 835, "pitch": 79, "duration": 6, "velocity": 117}, {"time": 841, "pitch": 79, "duration": 6, "velocity": 117}, {"time": 847, "pitch": 79, "duration": 6, "velocity": 119}, {"time": 853, "pitch": 81, "duration": 6, "velocity": 117}, {"time": 859, "pitch": 83, "duration": 6, "velocity": 116}, {"time": 865, "pitch": 84, "duration": 12, "velocity": 119}, {"time": 877, "pitch": 84, "duration": 6, "velocity": 117}, {"time": 883, "pitch": 84, "duration": 6, "velocity": 116}, {"time": 889, "pitch": 83, "duration": 3, "velocity": 117}, {"time": 892, "pitch": 83, "duration": 6, "velocity": 116}, {"time": 898, "pitch": 81, "duration": 9, "velocity": 120}, {"time": 907, "pitch": 81, "duration": 6, "velocity": 114}, {"time": 913, "pitch": 83, "duration": 6, "velocity": 116}, {"time": 919, "pitch": 81, "duration": 6, "velocity": 114}, {"time": 925, "pitch": 79, "duration": 3, "velocity": 116}, {"time": 928, "pitch": 76, "duration": 6, "velocity": 116}, {"time": 934, "pitch": 81, "duration": 9, "velocity": 116}, {"time": 943, "pitch": 79, "duration": 30, "velocity": 120}, {"time": 973, "pitch": 81, "duration": 6, "velocity": 119}, {"time": 979, "pitch": 81, "duration": 6, "velocity": 113}, {"time": 985, "pitch": 77, "duration": 3, "velocity": 114}, {"time": 988, "pitch": 76, "duration": 9, "velocity": 114}, {"time": 997, "pitch": 74, "duration": 3, "velocity": 116}, {"time": 1000, "pitch": 76, "duration": 6, "velocity": 114}, {"time": 1006, "pitch": 77, "duration": 15, "velocity": 116}, {"time": 1021, "pitch": 79, "duration": 6, "velocity": 113}, {"time": 1027, "pitch": 79, "duration": 6, "velocity": 114}, {"time": 1033, "pitch": 76, "duration": 3, "velocity": 114}, {"time": 1036, "pitch": 74, "duration": 9, "velocity": 113}, {"time": 1045, "pitch": 72, "duration": 3, "velocity": 107}, {"time": 1048, "pitch": 74, "duration": 6, "velocity": 110}, {"time": 1054, "pitch": 76, "duration": 9, "velocity": 116}, {"time": 1063, "pitch": 77, "duration": 6, "velocity": 114}, {"time": 1069, "pitch": 76, "duration": 3, "velocity": 110}, {"time": 1072, "pitch": 77, "duration": 6, "velocity": 117}, {"time": 1078, "pitch": 79, "duration": 9, "velocity": 116}, {"time": 1087, "pitch": 76, "duration": 6, "velocity": 117}, {"time": 1093, "pitch": 72, "duration": 3, "velocity": 107}, {"time": 1096, "pitch": 69, "duration": 6, "velocity": 107}, {"time": 1102, "pitch": 72, "duration": 9, "velocity": 114}, {"time": 1111, "pitch": 81, "duration": 6, "velocity": 113}, {"time": 1117, "pitch": 81, "duration": 3, "velocity": 108}, {"time": 1120, "pitch": 81, "duration": 6, "velocity": 110}, {"time": 1126, "pitch": 79, "duration": 6, "velocity": 116}, {"time": 1132, "pitch": 79, "duration": 6, "velocity": 114}, {"time": 1138, "pitch": 76, "duration": 6, "velocity": 114}, {"time": 1144, "pitch": 74, "duration": 6, "velocity": 119}, {"time": 1150, "pitch": 72, "duration": 15, "velocity": 117}, {"time": 1165, "pitch": 72, "duration": 6, "velocity": 114}, {"time": 1171, "pitch": 76, "duration": 7, "velocity": 116}, {"time": 1177, "pitch": 77, "duration": 6, "velocity": 117}, {"time": 1183, "pitch": 79, "duration": 6, "velocity": 119}, {"time": 1189, "pitch": 77, "duration": 6, "velocity": 114}, {"time": 1195, "pitch": 76, "duration": 6, "velocity": 114}, {"time": 1201, "pitch": 79, "duration": 12, "velocity": 117}, {"time": 1213, "pitch": 79, "duration": 6, "velocity": 117}, {"time": 1219, "pitch": 79, "duration": 6, "velocity": 119}, {"time": 1225, "pitch": 79, "duration": 6, "velocity": 117}, {"time": 1231, "pitch": 79, "duration": 6, "velocity": 119}, {"time": 1237, "pitch": 81, "duration": 3, "velocity": 113}, {"time": 1240, "pitch": 83, "duration": 6, "velocity": 116}, {"time": 1246, "pitch": 84, "duration": 15, "velocity": 119}, {"time": 1261, "pitch": 84, "duration": 6, "velocity": 116}, {"time": 1267, "pitch": 84, "duration": 6, "velocity": 114}, {"time": 1273, "pitch": 83, "duration": 3, "velocity": 117}, {"time": 1276, "pitch": 83, "duration": 6, "velocity": 120}, {"time": 1282, "pitch": 81, "duration": 9, "velocity": 120}, {"time": 1291, "pitch": 81, "duration": 6, "velocity": 119}, {"time": 1297, "pitch": 83, "duration": 6, "velocity": 119}, {"time": 1303, "pitch": 81, "duration": 6, "velocity": 116}, {"time": 1309, "pitch": 79, "duration": 4, "velocity": 119}, {"time": 1312, "pitch": 76, "duration": 6, "velocity": 114}, {"time": 1318, "pitch": 81, "duration": 9, "velocity": 116}, {"time": 1327, "pitch": 79, "duration": 30, "velocity": 120}, {"time": 1357, "pitch": 81, "duration": 6, "velocity": 113}, {"time": 1363, "pitch": 81, "duration": 6, "velocity": 114}, {"time": 1369, "pitch": 77, "duration": 3, "velocity": 113}, {"time": 1372, "pitch": 76, "duration": 9, "velocity": 117}, {"time": 1381, "pitch": 74, "duration": 4, "velocity": 117}, {"time": 1384, "pitch": 76, "duration": 6, "velocity": 110}, {"time": 1390, "pitch": 77, "duration": 9, "velocity": 117}, {"time": 1399, "pitch": 79, "duration": 6, "velocity": 119}, {"time": 1405, "pitch": 79, "duration": 6, "velocity": 117}, {"time": 1411, "pitch": 79, "duration": 6, "velocity": 120}, {"time": 1417, "pitch": 79, "duration": 3, "velocity": 117}, {"time": 1420, "pitch": 86, "duration": 6, "velocity": 119}, {"time": 1426, "pitch": 84, "duration": 21, "velocity": 120}, {"time": 1447, "pitch": 77, "duration": 6, "velocity": 116}, {"time": 1453, "pitch": 77, "duration": 3, "velocity": 114}, {"time": 1456, "pitch": 77, "duration": 6, "velocity": 113}, {"time": 1462, "pitch": 79, "duration": 9, "velocity": 119}, {"time": 1471, "pitch": 76, "duration": 6, "velocity": 116}, {"time": 1477, "pitch": 72, "duration": 6, "velocity": 117}, {"time": 1483, "pitch": 69, "duration": 4, "velocity": 117}, {"time": 1486, "pitch": 72, "duration": 15, "velocity": 116}, {"time": 1501, "pitch": 77, "duration": 6, "velocity": 117}, {"time": 1507, "pitch": 76, "duration": 6, "velocity": 116}, {"time": 1513, "pitch": 74, "duration": 6, "velocity": 119}, {"time": 1519, "pitch": 72, "duration": 6, "velocity": 119}, {"time": 1525, "pitch": 69, "duration": 6, "velocity": 116}, {"time": 1531, "pitch": 71, "duration": 6, "velocity": 113}, {"time": 1537, "pitch": 72, "duration": 7, "velocity": 117}, {"time": 1933, "pitch": 76, "duration": 6, "velocity": 116}, {"time": 1939, "pitch": 76, "duration": 6, "velocity": 117}, {"time": 1945, "pitch": 76, "duration": 6, "velocity": 116}, {"time": 1951, "pitch": 76, "duration": 6, "velocity": 117}, {"time": 1957, "pitch": 74, "duration": 6, "velocity": 116}, {"time": 1963, "pitch": 72, "duration": 6, "velocity": 117}, {"time": 1969, "pitch": 71, "duration": 6, "velocity": 117}, {"time": 1975, "pitch": 74, "duration": 6, "velocity": 116}, {"time": 1981, "pitch": 74, "duration": 6, "velocity": 116}, {"time": 1987, "pitch": 74, "duration": 6, "velocity": 108}, {"time": 1993, "pitch": 72, "duration": 18, "velocity": 113}, {"time": 2011, "pitch": 76, "duration": 4, "velocity": 108}, {"time": 2014, "pitch": 74, "duration": 3, "velocity": 98}, {"time": 2017, "pitch": 72, "duration": 6, "velocity": 114}, {"time": 2023, "pitch": 72, "duration": 6, "velocity": 113}, {"time": 2029, "pitch": 72, "duration": 3, "velocity": 108}, {"time": 2032, "pitch": 69, "duration": 3, "velocity": 107}, {"time": 2035, "pitch": 72, "duration": 3, "velocity": 108}, {"time": 2038, "pitch": 69, "duration": 3, "velocity": 104}, {"time": 2041, "pitch": 72, "duration": 6, "velocity": 116}, {"time": 2047, "pitch": 69, "duration": 12, "velocity": 113}, {"time": 2059, "pitch": 76, "duration": 3, "velocity": 116}, {"time": 2062, "pitch": 74, "duration": 3, "velocity": 102}, {"time": 2065, "pitch": 72, "duration": 6, "velocity": 113}, {"time": 2071, "pitch": 72, "duration": 6, "velocity": 114}, {"time": 2077, "pitch": 72, "duration": 3, "velocity": 113}, {"time": 2080, "pitch": 67, "duration": 3, "velocity": 98}, {"time": 2083, "pitch": 72, "duration": 3, "velocity": 110}, {"time": 2086, "pitch": 69, "duration": 3, "velocity": 104}, {"time": 2089, "pitch": 72, "duration": 6, "velocity": 110}, {"time": 2095, "pitch": 74, "duration": 30, "velocity": 117}, {"time": 2125, "pitch": 76, "duration": 6, "velocity": 104}, {"time": 2131, "pitch": 76, "duration": 6, "velocity": 108}, {"time": 2137, "pitch": 76, "duration": 6, "velocity": 110}, {"time": 2143, "pitch": 76, "duration": 7, "velocity": 110}, {"time": 2149, "pitch": 74, "duration": 6, "velocity": 108}, {"time": 2155, "pitch": 72, "duration": 6, "velocity": 113}, {"time": 2161, "pitch": 74, "duration": 7, "velocity": 114}, {"time": 2167, "pitch": 76, "duration": 6, "velocity": 114}, {"time": 2173, "pitch": 76, "duration": 6, "velocity": 116}, {"time": 2179, "pitch": 77, "duration": 9, "velocity": 114}, {"time": 2188, "pitch": 76, "duration": 15, "velocity": 114}, {"time": 2203, "pitch": 74, "duration": 6, "velocity": 116}, {"time": 2209, "pitch": 76, "duration": 6, "velocity": 116}, {"time": 2215, "pitch": 77, "duration": 6, "velocity": 114}, {"time": 2221, "pitch": 76, "duration": 6, "velocity": 113}, {"time": 2227, "pitch": 76, "duration": 6, "velocity": 113}, {"time": 2233, "pitch": 74, "duration": 18, "velocity": 114}, {"time": 2251, "pitch": 74, "duration": 6, "velocity": 114}, {"time": 2257, "pitch": 76, "duration": 6, "velocity": 113}, {"time": 2263, "pitch": 77, "duration": 6, "velocity": 113}, {"time": 2269, "pitch": 79, "duration": 6, "velocity": 114}, {"time": 2275, "pitch": 76, "duration": 6, "velocity": 108}, {"time": 2281, "pitch": 74, "duration": 30, "velocity": 116}, {"time": 2311, "pitch": 74, "duration": 3, "velocity": 113}, {"time": 2314, "pitch": 74, "duration": 3, "velocity": 108}, {"time": 2317, "pitch": 72, "duration": 6, "velocity": 114}, {"time": 2323, "pitch": 74, "duration": 3, "velocity": 117}, {"time": 2326, "pitch": 74, "duration": 3, "velocity": 114}, {"time": 2329, "pitch": 72, "duration": 6, "velocity": 114}, {"time": 2335, "pitch": 74, "duration": 3, "velocity": 113}, {"time": 2338, "pitch": 74, "duration": 3, "velocity": 110}, {"time": 2341, "pitch": 72, "duration": 6, "velocity": 100}, {"time": 2347, "pitch": 74, "duration": 3, "velocity": 117}, {"time": 2350, "pitch": 74, "duration": 3, "velocity": 110}, {"time": 2353, "pitch": 72, "duration": 6, "velocity": 113}, {"time": 2359, "pitch": 74, "duration": 3, "velocity": 113}, {"time": 2362, "pitch": 74, "duration": 3, "velocity": 108}, {"time": 2365, "pitch": 72, "duration": 6, "velocity": 108}, {"time": 2371, "pitch": 74, "duration": 3, "velocity": 117}, {"time": 2374, "pitch": 74, "duration": 3, "velocity": 110}, {"time": 2377, "pitch": 72, "duration": 3, "velocity": 114}, {"time": 2380, "pitch": 76, "duration": 6, "velocity": 116}, {"time": 2386, "pitch": 74, "duration": 3, "velocity": 116}, {"time": 2389, "pitch": 72, "duration": 3, "velocity": 108}, {"time": 2392, "pitch": 76, "duration": 3, "velocity": 113}, {"time": 2395, "pitch": 74, "duration": 6, "velocity": 114}, {"time": 2401, "pitch": 72, "duration": 12, "velocity": 117}, {"time": 2413, "pitch": 77, "duration": 6, "velocity": 119}, {"time": 2419, "pitch": 77, "duration": 6, "velocity": 119}, {"time": 2425, "pitch": 79, "duration": 6, "velocity": 117}, {"time": 2431, "pitch": 76, "duration": 6, "velocity": 120}, {"time": 2437, "pitch": 72, "duration": 3, "velocity": 114}, {"time": 2440, "pitch": 74, "duration": 6, "velocity": 114}, {"time": 2446, "pitch": 76, "duration": 9, "velocity": 116}, {"time": 2455, "pitch": 77, "duration": 6, "velocity": 117}, {"time": 2461, "pitch": 77, "duration": 3, "velocity": 117}, {"time": 2464, "pitch": 77, "duration": 6, "velocity": 119}, {"time": 2470, "pitch": 79, "duration": 9, "velocity": 116}, {"time": 2479, "pitch": 76, "duration": 6, "velocity": 116}, {"time": 2485, "pitch": 72, "duration": 3, "velocity": 96}, {"time": 2488, "pitch": 69, "duration": 6, "velocity": 113}, {"time": 2494, "pitch": 72, "duration": 21, "velocity": 116}, {"time": 2515, "pitch": 76, "duration": 6, "velocity": 104}, {"time": 2521, "pitch": 77, "duration": 6, "velocity": 110}, {"time": 2527, "pitch": 79, "duration": 6, "velocity": 116}, {"time": 2533, "pitch": 77, "duration": 6, "velocity": 110}, {"time": 2539, "pitch": 76, "duration": 6, "velocity": 108}, {"time": 2545, "pitch": 79, "duration": 12, "velocity": 117}, {"time": 2557, "pitch": 79, "duration": 6, "velocity": 119}, {"time": 2563, "pitch": 79, "duration": 6, "velocity": 117}, {"time": 2569, "pitch": 79, "duration": 6, "velocity": 117}, {"time": 2575, "pitch": 79, "duration": 6, "velocity": 119}, {"time": 2581, "pitch": 81, "duration": 6, "velocity": 117}, {"time": 2587, "pitch": 83, "duration": 6, "velocity": 116}, {"time": 2593, "pitch": 84, "duration": 12, "velocity": 119}, {"time": 2605, "pitch": 84, "duration": 6, "velocity": 117}, {"time": 2611, "pitch": 84, "duration": 6, "velocity": 116}, {"time": 2617, "pitch": 83, "duration": 3, "velocity": 117}, {"time": 2620, "pitch": 83, "duration": 6, "velocity": 116}, {"time": 2626, "pitch": 81, "duration": 9, "velocity": 120}, {"time": 2635, "pitch": 81, "duration": 6, "velocity": 114}, {"time": 2641, "pitch": 83, "duration": 6, "velocity": 116}, {"time": 2647, "pitch": 81, "duration": 6, "velocity": 114}, {"time": 2653, "pitch": 79, "duration": 3, "velocity": 116}, {"time": 2656, "pitch": 76, "duration": 6, "velocity": 116}, {"time": 2662, "pitch": 81, "duration": 9, "velocity": 116}, {"time": 2671, "pitch": 79, "duration": 30, "velocity": 120}, {"time": 2701, "pitch": 81, "duration": 6, "velocity": 119}, {"time": 2707, "pitch": 81, "duration": 6, "velocity": 113}, {"time": 2713, "pitch": 77, "duration": 3, "velocity": 114}, {"time": 2716, "pitch": 76, "duration": 9, "velocity": 114}, {"time": 2725, "pitch": 74, "duration": 3, "velocity": 116}, {"time": 2728, "pitch": 76, "duration": 6, "velocity": 114}, {"time": 2734, "pitch": 77, "duration": 15, "velocity": 116}, {"time": 2749, "pitch": 79, "duration": 6, "velocity": 113}, {"time": 2755, "pitch": 79, "duration": 6, "velocity": 114}, {"time": 2761, "pitch": 76, "duration": 3, "velocity": 114}, {"time": 2764, "pitch": 74, "duration": 9, "velocity": 113}, {"time": 2773, "pitch": 72, "duration": 3, "velocity": 107}, {"time": 2776, "pitch": 74, "duration": 6, "velocity": 110}, {"time": 2782, "pitch": 76, "duration": 9, "velocity": 116}, {"time": 2791, "pitch": 77, "duration": 6, "velocity": 114}, {"time": 2797, "pitch": 76, "duration": 3, "velocity": 110}, {"time": 2800, "pitch": 77, "duration": 6, "velocity": 117}, {"time": 2806, "pitch": 79, "duration": 9, "velocity": 116}, {"time": 2815, "pitch": 76, "duration": 6, "velocity": 117}, {"time": 2821, "pitch": 72, "duration": 3, "velocity": 107}, {"time": 2824, "pitch": 69, "duration": 6, "velocity": 107}, {"time": 2830, "pitch": 72, "duration": 9, "velocity": 114}, {"time": 2839, "pitch": 81, "duration": 6, "velocity": 113}, {"time": 2845, "pitch": 81, "duration": 3, "velocity": 108}, {"time": 2848, "pitch": 81, "duration": 6, "velocity": 110}, {"time": 2854, "pitch": 79, "duration": 6, "velocity": 116}, {"time": 2860, "pitch": 79, "duration": 6, "velocity": 114}, {"time": 2866, "pitch": 76, "duration": 6, "velocity": 114}, {"time": 2872, "pitch": 74, "duration": 6, "velocity": 119}, {"time": 2878, "pitch": 72, "duration": 15, "velocity": 117}, {"time": 2893, "pitch": 72, "duration": 6, "velocity": 114}, {"time": 2899, "pitch": 76, "duration": 7, "velocity": 116}, {"time": 2905, "pitch": 77, "duration": 6, "velocity": 117}, {"time": 2911, "pitch": 79, "duration": 6, "velocity": 119}, {"time": 2917, "pitch": 77, "duration": 6, "velocity": 114}, {"time": 2923, "pitch": 76, "duration": 6, "velocity": 114}, {"time": 2929, "pitch": 79, "duration": 12, "velocity": 117}, {"time": 2941, "pitch": 79, "duration": 6, "velocity": 117}, {"time": 2947, "pitch": 79, "duration": 6, "velocity": 119}, {"time": 2953, "pitch": 79, "duration": 6, "velocity": 117}, {"time": 2959, "pitch": 79, "duration": 6, "velocity": 119}, {"time": 2965, "pitch": 81, "duration": 3, "velocity": 113}, {"time": 2968, "pitch": 83, "duration": 6, "velocity": 116}, {"time": 2974, "pitch": 84, "duration": 15, "velocity": 119}, {"time": 2989, "pitch": 84, "duration": 6, "velocity": 116}, {"time": 2995, "pitch": 84, "duration": 6, "velocity": 114}, {"time": 3001, "pitch": 83, "duration": 3, "velocity": 117}, {"time": 3004, "pitch": 83, "duration": 6, "velocity": 120}, {"time": 3010, "pitch": 81, "duration": 9, "velocity": 120}, {"time": 3019, "pitch": 81, "duration": 6, "velocity": 119}, {"time": 3025, "pitch": 83, "duration": 6, "velocity": 119}, {"time": 3031, "pitch": 81, "duration": 6, "velocity": 116}, {"time": 3037, "pitch": 79, "duration": 4, "velocity": 119}, {"time": 3040, "pitch": 76, "duration": 6, "velocity": 114}, {"time": 3046, "pitch": 81, "duration": 9, "velocity": 116}, {"time": 3055, "pitch": 79, "duration": 30, "velocity": 120}, {"time": 3085, "pitch": 81, "duration": 6, "velocity": 113}, {"time": 3091, "pitch": 81, "duration": 6, "velocity": 114}, {"time": 3097, "pitch": 77, "duration": 3, "velocity": 113}, {"time": 3100, "pitch": 76, "duration": 9, "velocity": 117}, {"time": 3109, "pitch": 74, "duration": 4, "velocity": 117}, {"time": 3112, "pitch": 76, "duration": 6, "velocity": 110}, {"time": 3118, "pitch": 77, "duration": 9, "velocity": 117}, {"time": 3127, "pitch": 79, "duration": 6, "velocity": 119}, {"time": 3133, "pitch": 79, "duration": 6, "velocity": 117}, {"time": 3139, "pitch": 79, "duration": 6, "velocity": 120}, {"time": 3145, "pitch": 79, "duration": 3, "velocity": 117}, {"time": 3148, "pitch": 86, "duration": 6, "velocity": 119}, {"time": 3154, "pitch": 84, "duration": 21, "velocity": 120}, {"time": 3175, "pitch": 77, "duration": 6, "velocity": 116}, {"time": 3181, "pitch": 77, "duration": 3, "velocity": 114}, {"time": 3184, "pitch": 77, "duration": 6, "velocity": 113}, {"time": 3190, "pitch": 79, "duration": 9, "velocity": 119}, {"time": 3199, "pitch": 76, "duration": 6, "velocity": 116}, {"time": 3205, "pitch": 72, "duration": 6, "velocity": 117}, {"time": 3211, "pitch": 69, "duration": 4, "velocity": 117}, {"time": 3214, "pitch": 72, "duration": 15, "velocity": 116}, {"time": 3229, "pitch": 77, "duration": 6, "velocity": 117}, {"time": 3235, "pitch": 76, "duration": 6, "velocity": 116}, {"time": 3241, "pitch": 74, "duration": 6, "velocity": 119}, {"time": 3247, "pitch": 72, "duration": 6, "velocity": 119}, {"time": 3253, "pitch": 69, "duration": 6, "velocity": 116}, {"time": 3259, "pitch": 71, "duration": 6, "velocity": 113}, {"time": 3265, "pitch": 72, "duration": 7, "velocity": 117}]}, {"program": 0, "is_drum": false, "name": "BRIDGE", "notes": [{"time": 7, "pitch": 72, "duration": 8, "velocity": 114}, {"time": 19, "pitch": 72, "duration": 6, "velocity": 110}, {"time": 25, "pitch": 71, "duration": 7, "velocity": 107}, {"time": 31, "pitch": 72, "duration": 5, "velocity": 107}, {"time": 37, "pitch": 74, "duration": 6, "velocity": 96}, {"time": 43, "pitch": 72, "duration": 5, "velocity": 98}, {"time": 49, "pitch": 67, "duration": 4, "velocity": 100}, {"time": 55, "pitch": 72, "duration": 6, "velocity": 107}, {"time": 67, "pitch": 72, "duration": 6, "velocity": 104}, {"time": 73, "pitch": 71, "duration": 5, "velocity": 96}, {"time": 79, "pitch": 72, "duration": 5, "velocity": 100}, {"time": 85, "pitch": 74, "duration": 6, "velocity": 102}, {"time": 91, "pitch": 72, "duration": 5, "velocity": 104}, {"time": 97, "pitch": 67, "duration": 4, "velocity": 110}, {"time": 103, "pitch": 72, "duration": 7, "velocity": 110}, {"time": 115, "pitch": 72, "duration": 6, "velocity": 110}, {"time": 121, "pitch": 71, "duration": 5, "velocity": 102}, {"time": 127, "pitch": 72, "duration": 6, "velocity": 102}, {"time": 133, "pitch": 74, "duration": 6, "velocity": 104}, {"time": 139, "pitch": 72, "duration": 6, "velocity": 104}, {"time": 145, "pitch": 67, "duration": 4, "velocity": 107}, {"time": 151, "pitch": 76, "duration": 5, "velocity": 108}, {"time": 1159, "pitch": 79, "duration": 84, "velocity": 116}, {"time": 1243, "pitch": 81, "duration": 7, "velocity": 113}, {"time": 1249, "pitch": 83, "duration": 6, "velocity": 108}, {"time": 1255, "pitch": 84, "duration": 48, "velocity": 113}, {"time": 1303, "pitch": 83, "duration": 36, "velocity": 114}, {"time": 1339, "pitch": 79, "duration": 6, "velocity": 87}, {"time": 1345, "pitch": 83, "duration": 6, "velocity": 91}, {"time": 1351, "pitch": 81, "duration": 24, "velocity": 110}, {"time": 1375, "pitch": 79, "duration": 168, "velocity": 114}, {"time": 1543, "pitch": 72, "duration": 6, "velocity": 110}, {"time": 1549, "pitch": 72, "duration": 6, "velocity": 107}, {"time": 1555, "pitch": 72, "duration": 6, "velocity": 110}, {"time": 1561, "pitch": 71, "duration": 6, "velocity": 116}, {"time": 1567, "pitch": 72, "duration": 6, "velocity": 110}, {"time": 1573, "pitch": 74, "duration": 6, "velocity": 114}, {"time": 1579, "pitch": 72, "duration": 6, "velocity": 116}, {"time": 1585, "pitch": 67, "duration": 6, "velocity": 113}, {"time": 1591, "pitch": 72, "duration": 6, "velocity": 116}, {"time": 1597, "pitch": 72, "duration": 6, "velocity": 113}, {"time": 1603, "pitch": 72, "duration": 6, "velocity": 113}, {"time": 1609, "pitch": 71, "duration": 6, "velocity": 116}, {"time": 1615, "pitch": 72, "duration": 6, "velocity": 113}, {"time": 1621, "pitch": 74, "duration": 6, "velocity": 116}, {"time": 1627, "pitch": 72, "duration": 6, "velocity": 117}, {"time": 1633, "pitch": 67, "duration": 6, "velocity": 113}, {"time": 1639, "pitch": 72, "duration": 6, "velocity": 116}, {"time": 1645, "pitch": 72, "duration": 6, "velocity": 113}, {"time": 1651, "pitch": 72, "duration": 6, "velocity": 114}, {"time": 1657, "pitch": 71, "duration": 6, "velocity": 114}, {"time": 1663, "pitch": 72, "duration": 6, "velocity": 113}, {"time": 1669, "pitch": 74, "duration": 6, "velocity": 116}, {"time": 1675, "pitch": 72, "duration": 6, "velocity": 114}, {"time": 1681, "pitch": 67, "duration": 6, "velocity": 110}, {"time": 1687, "pitch": 72, "duration": 6, "velocity": 108}, {"time": 1693, "pitch": 72, "duration": 6, "velocity": 102}, {"time": 1699, "pitch": 72, "duration": 6, "velocity": 102}, {"time": 1705, "pitch": 71, "duration": 6, "velocity": 102}, {"time": 1711, "pitch": 72, "duration": 6, "velocity": 104}, {"time": 1717, "pitch": 74, "duration": 6, "velocity": 113}, {"time": 1723, "pitch": 72, "duration": 6, "velocity": 114}, {"time": 1729, "pitch": 67, "duration": 6, "velocity": 107}, {"time": 1735, "pitch": 72, "duration": 6, "velocity": 113}, {"time": 1741, "pitch": 72, "duration": 6, "velocity": 110}, {"time": 1747, "pitch": 72, "duration": 6, "velocity": 108}, {"time": 1753, "pitch": 71, "duration": 6, "velocity": 110}, {"time": 1759, "pitch": 72, "duration": 6, "velocity": 110}, {"time": 1765, "pitch": 74, "duration": 6, "velocity": 116}, {"time": 1771, "pitch": 72, "duration": 6, "velocity": 116}, {"time": 1777, "pitch": 67, "duration": 6, "velocity": 114}, {"time": 1783, "pitch": 72, "duration": 6, "velocity": 113}, {"time": 1789, "pitch": 72, "duration": 6, "velocity": 110}, {"time": 1795, "pitch": 72, "duration": 6, "velocity": 113}, {"time": 1801, "pitch": 71, "duration": 6, "velocity": 113}, {"time": 1807, "pitch": 72, "duration": 6, "velocity": 113}, {"time": 1813, "pitch": 74, "duration": 6, "velocity": 114}, {"time": 1819, "pitch": 72, "duration": 6, "velocity": 113}, {"time": 1825, "pitch": 67, "duration": 6, "velocity": 110}, {"time": 1831, "pitch": 72, "duration": 6, "velocity": 113}, {"time": 1837, "pitch": 72, "duration": 6, "velocity": 113}, {"time": 1843, "pitch": 72, "duration": 6, "velocity": 114}, {"time": 1849, "pitch": 71, "duration": 6, "velocity": 114}, {"time": 1855, "pitch": 72, "duration": 6, "velocity": 113}, {"time": 1861, "pitch": 74, "duration": 6, "velocity": 114}, {"time": 1867, "pitch": 72, "duration": 6, "velocity": 114}, {"time": 1873, "pitch": 67, "duration": 6, "velocity": 113}, {"time": 1879, "pitch": 72, "duration": 6, "velocity": 114}, {"time": 1885, "pitch": 72, "duration": 6, "velocity": 114}, {"time": 1891, "pitch": 72, "duration": 6, "velocity": 110}, {"time": 1897, "pitch": 72, "duration": 30, "velocity": 110}, {"time": 2887, "pitch": 79, "duration": 84, "velocity": 116}, {"time": 2971, "pitch": 81, "duration": 7, "velocity": 113}, {"time": 2977, "pitch": 83, "duration": 6, "velocity": 108}, {"time": 2983, "pitch": 84, "duration": 48, "velocity": 113}, {"time": 3031, "pitch": 83, "duration": 36, "velocity": 114}, {"time": 3067, "pitch": 79, "duration": 6, "velocity": 87}, {"time": 3073, "pitch": 83, "duration": 6, "velocity": 91}, {"time": 3079, "pitch": 81, "duration": 24, "velocity": 110}, {"time": 3103, "pitch": 79, "duration": 168, "velocity": 114}, {"time": 3289, "pitch": 65, "duration": 12, "velocity": 102}, {"time": 3301, "pitch": 64, "duration": 6, "velocity": 110}, {"time": 3307, "pitch": 62, "duration": 6, "velocity": 108}, {"time": 3313, "pitch": 60, "duration": 6, "velocity": 108}, {"time": 3319, "pitch": 64, "duration": 48, "velocity": 110}, {"time": 3367, "pitch": 71, "duration": 12, "velocity": 107}, {"time": 3379, "pitch": 71, "duration": 6, "velocity": 104}, {"time": 3385, "pitch": 67, "duration": 6, "velocity": 96}, {"time": 3391, "pitch": 72, "duration": 6, "velocity": 104}, {"time": 3397, "pitch": 71, "duration": 6, "velocity": 93}, {"time": 3403, "pitch": 72, "duration": 12, "velocity": 100}, {"time": 3415, "pitch": 65, "duration": 12, "velocity": 110}, {"time": 3427, "pitch": 67, "duration": 6, "velocity": 113}, {"time": 3433, "pitch": 60, "duration": 12, "velocity": 107}, {"time": 3445, "pitch": 64, "duration": 6, "velocity": 110}, {"time": 3451, "pitch": 60, "duration": 6, "velocity": 100}, {"time": 3457, "pitch": 57, "duration": 6, "velocity": 91}, {"time": 3463, "pitch": 65, "duration": 18, "velocity": 93}, {"time": 3481, "pitch": 69, "duration": 8, "velocity": 110}]}, {"program": 0, "is_drum": false, "name": "PIANO", "notes": [{"time": 7, "pitch": 48, "duration": 43, "velocity": 90}, {"time": 13, "pitch": 55, "duration": 37, "velocity": 77}, {"time": 19, "pitch": 60, "duration": 12, "velocity": 76}, {"time": 31, "pitch": 62, "duration": 8, "velocity": 79}, {"time": 31, "pitch": 67, "duration": 7, "velocity": 81}, {"time": 37, "pitch": 60, "duration": 10, "velocity": 42}, {"time": 43, "pitch": 62, "duration": 13, "velocity": 86}, {"time": 43, "pitch": 67, "duration": 12, "velocity": 83}, {"time": 55, "pitch": 41, "duration": 42, "velocity": 87}, {"time": 61, "pitch": 53, "duration": 10, "velocity": 78}, {"time": 67, "pitch": 57, "duration": 7, "velocity": 83}, {"time": 67, "pitch": 60, "duration": 7, "velocity": 85}, {"time": 73, "pitch": 53, "duration": 8, "velocity": 56}, {"time": 79, "pitch": 57, "duration": 9, "velocity": 83}, {"time": 79, "pitch": 65, "duration": 6, "velocity": 85}, {"time": 85, "pitch": 53, "duration": 8, "velocity": 48}, {"time": 91, "pitch": 57, "duration": 7, "velocity": 84}, {"time": 91, "pitch": 60, "duration": 9, "velocity": 91}, {"time": 97, "pitch": 53, "duration": 6, "velocity": 79}, {"time": 103, "pitch": 48, "duration": 39, "velocity": 73}, {"time": 103, "pitch": 60, "duration": 5, "velocity": 76}, {"time": 103, "pitch": 64, "duration": 6, "velocity": 83}, {"time": 109, "pitch": 55, "duration": 33, "velocity": 63}, {"time": 115, "pitch": 62, "duration": 4, "velocity": 81}, {"time": 115, "pitch": 67, "duration": 4, "velocity": 85}, {"time": 127, "pitch": 62, "duration": 7, "velocity": 82}, {"time": 127, "pitch": 67, "duration": 6, "velocity": 80}, {"time": 133, "pitch": 60, "duration": 7, "velocity": 68}, {"time": 139, "pitch": 62, "duration": 13, "velocity": 91}, {"time": 139, "pitch": 67, "duration": 12, "velocity": 88}, {"time": 151, "pitch": 41, "duration": 39, "velocity": 84}, {"time": 157, "pitch": 53, "duration": 35, "velocity": 68}, {"time": 163, "pitch": 57, "duration": 16, "velocity": 80}, {"time": 169, "pitch": 60, "duration": 19, "velocity": 82}, {"time": 187, "pitch": 67, "duration": 7, "velocity": 86}, {"time": 199, "pitch": 48, "duration": 42, "velocity": 79}, {"time": 199, "pitch": 60, "duration": 8, "velocity": 80}, {"time": 199, "pitch": 64, "duration": 8, "velocity": 78}, {"time": 199, "pitch": 67, "duration": 6, "velocity": 65}, {"time": 211, "pitch": 60, "duration": 11, "velocity": 80}, {"time": 211, "pitch": 64, "duration": 11, "velocity": 81}, {"time": 211, "pitch": 67, "duration": 10, "velocity": 84}, {"time": 223, "pitch": 60, "duration": 10, "velocity": 82}, {"time": 223, "pitch": 64, "duration": 10, "velocity": 86}, {"time": 223, "pitch": 67, "duration": 9, "velocity": 84}, {"time": 235, "pitch": 60, "duration": 8, "velocity": 87}, {"time": 235, "pitch": 64, "duration": 8, "velocity": 88}, {"time": 235, "pitch": 67, "duration": 8, "velocity": 87}, {"time": 247, "pitch": 45, "duration": 43, "velocity": 84}, {"time": 247, "pitch": 57, "duration": 10, "velocity": 82}, {"time": 247, "pitch": 60, "duration": 7, "velocity": 81}, {"time": 247, "pitch": 64, "duration": 6, "velocity": 84}, {"time": 259, "pitch": 57, "duration": 10, "velocity": 83}, {"time": 259, "pitch": 60, "duration": 10, "velocity": 84}, {"time": 259, "pitch": 64, "duration": 10, "velocity": 83}, {"time": 271, "pitch": 57, "duration": 10, "velocity": 85}, {"time": 271, "pitch": 60, "duration": 10, "velocity": 87}, {"time": 271, "pitch": 64, "duration": 9, "velocity": 86}, {"time": 283, "pitch": 57, "duration": 6, "velocity": 84}, {"time": 283, "pitch": 60, "duration": 7, "velocity": 88}, {"time": 283, "pitch": 64, "duration": 6, "velocity": 88}, {"time": 295, "pitch": 41, "duration": 44, "velocity": 83}, {"time": 295, "pitch": 53, "duration": 44, "velocity": 80}, {"time": 295, "pitch": 57, "duration": 10, "velocity": 87}, {"time": 295, "pitch": 60, "duration": 10, "velocity": 87}, {"time": 295, "pitch": 65, "duration": 9, "velocity": 88}, {"time": 307, "pitch": 57, "duration": 10, "velocity": 88}, {"time": 307, "pitch": 60, "duration": 11, "velocity": 87}, {"time": 307, "pitch": 65, "duration": 9, "velocity": 90}, {"time": 319, "pitch": 57, "duration": 10, "velocity": 87}, {"time": 319, "pitch": 60, "duration": 10, "velocity": 84}, {"time": 319, "pitch": 65, "duration": 9, "velocity": 89}, {"time": 331, "pitch": 57, "duration": 8, "velocity": 88}, {"time": 331, "pitch": 60, "duration": 8, "velocity": 88}, {"time": 331, "pitch": 65, "duration": 8, "velocity": 88}, {"time": 343, "pitch": 41, "duration": 19, "velocity": 84}, {"time": 343, "pitch": 53, "duration": 19, "velocity": 81}, {"time": 343, "pitch": 56, "duration": 9, "velocity": 85}, {"time": 343, "pitch": 60, "duration": 8, "velocity": 96}, {"time": 343, "pitch": 65, "duration": 7, "velocity": 104}, {"time": 355, "pitch": 56, "duration": 7, "velocity": 85}, {"time": 355, "pitch": 60, "duration": 6, "velocity": 90}, {"time": 355, "pitch": 65, "duration": 6, "velocity": 96}, {"time": 367, "pitch": 43, "duration": 23, "velocity": 76}, {"time": 367, "pitch": 55, "duration": 11, "velocity": 78}, {"time": 367, "pitch": 59, "duration": 11, "velocity": 81}, {"time": 367, "pitch": 62, "duration": 10, "velocity": 81}, {"time": 379, "pitch": 55, "duration": 9, "velocity": 82}, {"time": 379, "pitch": 59, "duration": 8, "velocity": 84}, {"time": 379, "pitch": 62, "duration": 7, "velocity": 87}, {"time": 391, "pitch": 48, "duration": 42, "velocity": 79}, {"time": 391, "pitch": 55, "duration": 6, "velocity": 76}, {"time": 391, "pitch": 60, "duration": 10, "velocity": 82}, {"time": 391, "pitch": 64, "duration": 9, "velocity": 85}, {"time": 403, "pitch": 55, "duration": 9, "velocity": 87}, {"time": 403, "pitch": 60, "duration": 10, "velocity": 87}, {"time": 403, "pitch": 64, "duration": 9, "velocity": 86}, {"time": 415, "pitch": 55, "duration": 9, "velocity": 87}, {"time": 415, "pitch": 60, "duration": 9, "velocity": 87}, {"time": 415, "pitch": 64, "duration": 9, "velocity": 87}, {"time": 427, "pitch": 55, "duration": 6, "velocity": 90}, {"time": 427, "pitch": 60, "duration": 7, "velocity": 91}, {"time": 427, "pitch": 64, "duration": 7, "velocity": 88}, {"time": 439, "pitch": 46, "duration": 15, "velocity": 84}, {"time": 439, "pitch": 58, "duration": 10, "velocity": 95}, {"time": 439, "pitch": 62, "duration": 9, "velocity": 94}, {"time": 439, "pitch": 65, "duration": 9, "velocity": 93}, {"time": 451, "pitch": 58, "duration": 11, "velocity": 106}, {"time": 451, "pitch": 62, "duration": 11, "velocity": 100}, {"time": 451, "pitch": 65, "duration": 8, "velocity": 96}, {"time": 457, "pitch": 46, "duration": 6, "velocity": 95}, {"time": 463, "pitch": 45, "duration": 15, "velocity": 86}, {"time": 463, "pitch": 57, "duration": 11, "velocity": 90}, {"time": 463, "pitch": 61, "duration": 11, "velocity": 100}, {"time": 463, "pitch": 64, "duration": 10, "velocity": 91}, {"time": 475, "pitch": 57, "duration": 11, "velocity": 91}, {"time": 475, "pitch": 61, "duration": 6, "velocity": 97}, {"time": 475, "pitch": 64, "duration": 6, "velocity": 94}, {"time": 481, "pitch": 45, "duration": 6, "velocity": 90}, {"time": 487, "pitch": 50, "duration": 16, "velocity": 93}, {"time": 487, "pitch": 57, "duration": 11, "velocity": 90}, {"time": 487, "pitch": 60, "duration": 10, "velocity": 93}, {"time": 487, "pitch": 62, "duration": 11, "velocity": 98}, {"time": 487, "pitch": 65, "duration": 10, "velocity": 93}, {"time": 499, "pitch": 57, "duration": 7, "velocity": 90}, {"time": 499, "pitch": 60, "duration": 10, "velocity": 94}, {"time": 499, "pitch": 62, "duration": 10, "velocity": 94}, {"time": 499, "pitch": 65, "duration": 7, "velocity": 92}, {"time": 505, "pitch": 50, "duration": 5, "velocity": 87}, {"time": 511, "pitch": 57, "duration": 10, "velocity": 80}, {"time": 511, "pitch": 60, "duration": 9, "velocity": 84}, {"time": 511, "pitch": 62, "duration": 9, "velocity": 83}, {"time": 511, "pitch": 65, "duration": 9, "velocity": 85}, {"time": 523, "pitch": 57, "duration": 5, "velocity": 84}, {"time": 523, "pitch": 60, "duration": 5, "velocity": 88}, {"time": 523, "pitch": 62, "duration": 5, "velocity": 87}, {"time": 523, "pitch": 65, "duration": 5, "velocity": 87}, {"time": 535, "pitch": 41, "duration": 20, "velocity": 84}, {"time": 535, "pitch": 53, "duration": 19, "velocity": 83}, {"time": 535, "pitch": 56, "duration": 10, "velocity": 86}, {"time": 535, "pitch": 62, "duration": 9, "velocity": 93}, {"time": 535, "pitch": 65, "duration": 9, "velocity": 93}, {"time": 547, "pitch": 56, "duration": 7, "velocity": 85}, {"time": 547, "pitch": 62, "duration": 7, "velocity": 91}, {"time": 547, "pitch": 65, "duration": 7, "velocity": 91}, {"time": 559, "pitch": 40, "duration": 14, "velocity": 79}, {"time": 559, "pitch": 52, "duration": 13, "velocity": 72}, {"time": 559, "pitch": 56, "duration": 9, "velocity": 80}, {"time": 559, "pitch": 59, "duration": 9, "velocity": 84}, {"time": 559, "pitch": 64, "duration": 8, "velocity": 87}, {"time": 571, "pitch": 44, "duration": 9, "velocity": 86}, {"time": 571, "pitch": 56, "duration": 7, "velocity": 85}, {"time": 571, "pitch": 59, "duration": 11, "velocity": 92}, {"time": 571, "pitch": 64, "duration": 9, "velocity": 91}, {"time": 583, "pitch": 45, "duration": 25, "velocity": 87}, {"time": 583, "pitch": 57, "duration": 10, "velocity": 88}, {"time": 583, "pitch": 60, "duration": 10, "velocity": 100}, {"time": 583, "pitch": 64, "duration": 9, "velocity": 94}, {"time": 595, "pitch": 57, "duration": 11, "velocity": 91}, {"time": 595, "pitch": 60, "duration": 11, "velocity": 91}, {"time": 595, "pitch": 64, "duration": 9, "velocity": 93}, {"time": 607, "pitch": 43, "duration": 21, "velocity": 88}, {"time": 607, "pitch": 55, "duration": 9, "velocity": 85}, {"time": 607, "pitch": 59, "duration": 10, "velocity": 88}, {"time": 607, "pitch": 64, "duration": 9, "velocity": 89}, {"time": 619, "pitch": 55, "duration": 8, "velocity": 87}, {"time": 619, "pitch": 59, "duration": 10, "velocity": 90}, {"time": 619, "pitch": 64, "duration": 8, "velocity": 88}, {"time": 631, "pitch": 45, "duration": 23, "velocity": 83}, {"time": 631, "pitch": 57, "duration": 10, "velocity": 85}, {"time": 631, "pitch": 60, "duration": 9, "velocity": 88}, {"time": 631, "pitch": 64, "duration": 9, "velocity": 86}, {"time": 643, "pitch": 57, "duration": 9, "velocity": 91}, {"time": 643, "pitch": 60, "duration": 9, "velocity": 96}, {"time": 643, "pitch": 64, "duration": 9, "velocity": 91}, {"time": 655, "pitch": 43, "duration": 15, "velocity": 86}, {"time": 655, "pitch": 55, "duration": 9, "velocity": 87}, {"time": 655, "pitch": 59, "duration": 10, "velocity": 91}, {"time": 655, "pitch": 64, "duration": 7, "velocity": 91}, {"time": 667, "pitch": 55, "duration": 7, "velocity": 89}, {"time": 667, "pitch": 59, "duration": 9, "velocity": 91}, {"time": 667, "pitch": 64, "duration": 7, "velocity": 89}, {"time": 673, "pitch": 43, "duration": 6, "velocity": 83}, {"time": 679, "pitch": 50, "duration": 15, "velocity": 84}, {"time": 679, "pitch": 57, "duration": 10, "velocity": 86}, {"time": 679, "pitch": 62, "duration": 9, "velocity": 87}, {"time": 679, "pitch": 65, "duration": 9, "velocity": 88}, {"time": 691, "pitch": 57, "duration": 7, "velocity": 92}, {"time": 691, "pitch": 60, "duration": 7, "velocity": 92}, {"time": 691, "pitch": 62, "duration": 7, "velocity": 93}, {"time": 691, "pitch": 65, "duration": 7, "velocity": 91}, {"time": 697, "pitch": 50, "duration": 3, "velocity": 81}, {"time": 703, "pitch": 50, "duration": 19, "velocity": 85}, {"time": 703, "pitch": 57, "duration": 9, "velocity": 85}, {"time": 703, "pitch": 60, "duration": 9, "velocity": 84}, {"time": 703, "pitch": 62, "duration": 8, "velocity": 84}, {"time": 703, "pitch": 65, "duration": 8, "velocity": 87}, {"time": 715, "pitch": 57, "duration": 8, "velocity": 88}, {"time": 715, "pitch": 60, "duration": 8, "velocity": 89}, {"time": 715, "pitch": 62, "duration": 8, "velocity": 88}, {"time": 715, "pitch": 65, "duration": 7, "velocity": 89}, {"time": 727, "pitch": 41, "duration": 20, "velocity": 84}, {"time": 727, "pitch": 53, "duration": 21, "velocity": 86}, {"time": 727, "pitch": 57, "duration": 9, "velocity": 88}, {"time": 727, "pitch": 60, "duration": 9, "velocity": 92}, {"time": 727, "pitch": 65, "duration": 9, "velocity": 89}, {"time": 739, "pitch": 57, "duration": 8, "velocity": 91}, {"time": 739, "pitch": 60, "duration": 11, "velocity": 94}, {"time": 739, "pitch": 65, "duration": 8, "velocity": 93}, {"time": 751, "pitch": 43, "duration": 19, "velocity": 87}, {"time": 751, "pitch": 59, "duration": 10, "velocity": 92}, {"time": 751, "pitch": 62, "duration": 10, "velocity": 107}, {"time": 751, "pitch": 67, "duration": 10, "velocity": 92}, {"time": 757, "pitch": 50, "duration": 14, "velocity": 71}, {"time": 760, "pitch": 55, "duration": 5, "velocity": 90}, {"time": 763, "pitch": 59, "duration": 8, "velocity": 104}, {"time": 763, "pitch": 62, "duration": 11, "velocity": 114}, {"time": 763, "pitch": 67, "duration": 9, "velocity": 104}, {"time": 769, "pitch": 55, "duration": 5, "velocity": 84}, {"time": 775, "pitch": 48, "duration": 40, "velocity": 94}, {"time": 778, "pitch": 55, "duration": 24, "velocity": 80}, {"time": 781, "pitch": 60, "duration": 8, "velocity": 88}, {"time": 784, "pitch": 62, "duration": 1, "velocity": 83}, {"time": 787, "pitch": 62, "duration": 8, "velocity": 98}, {"time": 787, "pitch": 67, "duration": 8, "velocity": 108}, {"time": 793, "pitch": 60, "duration": 3, "velocity": 80}, {"time": 796, "pitch": 62, "duration": 13, "velocity": 102}, {"time": 796, "pitch": 67, "duration": 13, "velocity": 100}, {"time": 808, "pitch": 55, "duration": 7, "velocity": 87}, {"time": 811, "pitch": 62, "duration": 7, "velocity": 114}, {"time": 811, "pitch": 67, "duration": 11, "velocity": 110}, {"time": 817, "pitch": 64, "duration": 5, "velocity": 88}, {"time": 823, "pitch": 40, "duration": 42, "velocity": 88}, {"time": 823, "pitch": 59, "duration": 10, "velocity": 104}, {"time": 823, "pitch": 64, "duration": 7, "velocity": 107}, {"time": 823, "pitch": 67, "duration": 10, "velocity": 91}, {"time": 832, "pitch": 52, "duration": 5, "velocity": 88}, {"time": 835, "pitch": 59, "duration": 9, "velocity": 108}, {"time": 835, "pitch": 67, "duration": 9, "velocity": 108}, {"time": 844, "pitch": 52, "duration": 9, "velocity": 80}, {"time": 847, "pitch": 59, "duration": 10, "velocity": 108}, {"time": 847, "pitch": 67, "duration": 10, "velocity": 107}, {"time": 856, "pitch": 52, "duration": 4, "velocity": 89}, {"time": 859, "pitch": 59, "duration": 7, "velocity": 116}, {"time": 859, "pitch": 67, "duration": 11, "velocity": 113}, {"time": 865, "pitch": 52, "duration": 5, "velocity": 87}, {"time": 871, "pitch": 45, "duration": 44, "velocity": 88}, {"time": 871, "pitch": 57, "duration": 5, "velocity": 91}, {"time": 871, "pitch": 60, "duration": 10, "velocity": 102}, {"time": 871, "pitch": 64, "duration": 8, "velocity": 93}, {"time": 871, "pitch": 67, "duration": 10, "velocity": 89}, {"time": 877, "pitch": 52, "duration": 35, "velocity": 84}, {"time": 880, "pitch": 57, "duration": 5, "velocity": 90}, {"time": 883, "pitch": 59, "duration": 10, "velocity": 96}, {"time": 883, "pitch": 64, "duration": 11, "velocity": 93}, {"time": 883, "pitch": 67, "duration": 11, "velocity": 91}, {"time": 889, "pitch": 57, "duration": 8, "velocity": 84}, {"time": 889, "pitch": 60, "duration": 3, "velocity": 38}, {"time": 895, "pitch": 59, "duration": 2, "velocity": 93}, {"time": 895, "pitch": 64, "duration": 10, "velocity": 91}, {"time": 895, "pitch": 67, "duration": 10, "velocity": 100}, {"time": 898, "pitch": 60, "duration": 5, "velocity": 44}, {"time": 904, "pitch": 57, "duration": 5, "velocity": 87}, {"time": 907, "pitch": 60, "duration": 8, "velocity": 113}, {"time": 907, "pitch": 64, "duration": 8, "velocity": 116}, {"time": 907, "pitch": 67, "duration": 11, "velocity": 108}, {"time": 913, "pitch": 52, "duration": 2, "velocity": 86}, {"time": 919, "pitch": 40, "duration": 43, "velocity": 92}, {"time": 919, "pitch": 59, "duration": 9, "velocity": 96}, {"time": 919, "pitch": 64, "duration": 10, "velocity": 107}, {"time": 919, "pitch": 67, "duration": 10, "velocity": 92}, {"time": 925, "pitch": 47, "duration": 20, "velocity": 72}, {"time": 928, "pitch": 52, "duration": 5, "velocity": 100}, {"time": 931, "pitch": 59, "duration": 7, "velocity": 110}, {"time": 931, "pitch": 64, "duration": 7, "velocity": 110}, {"time": 931, "pitch": 67, "duration": 6, "velocity": 107}, {"time": 937, "pitch": 52, "duration": 8, "velocity": 84}, {"time": 943, "pitch": 55, "duration": 6, "velocity": 102}, {"time": 943, "pitch": 62, "duration": 9, "velocity": 89}, {"time": 949, "pitch": 47, "duration": 13, "velocity": 75}, {"time": 952, "pitch": 52, "duration": 4, "velocity": 110}, {"time": 955, "pitch": 55, "duration": 4, "velocity": 117}, {"time": 955, "pitch": 62, "duration": 4, "velocity": 119}, {"time": 958, "pitch": 52, "duration": 5, "velocity": 104}, {"time": 961, "pitch": 59, "duration": 4, "velocity": 110}, {"time": 961, "pitch": 62, "duration": 3, "velocity": 107}, {"time": 967, "pitch": 41, "duration": 21, "velocity": 90}, {"time": 967, "pitch": 57, "duration": 7, "velocity": 110}, {"time": 967, "pitch": 60, "duration": 10, "velocity": 108}, {"time": 967, "pitch": 64, "duration": 10, "velocity": 108}, {"time": 973, "pitch": 48, "duration": 17, "velocity": 76}, {"time": 979, "pitch": 57, "duration": 8, "velocity": 113}, {"time": 979, "pitch": 60, "duration": 11, "velocity": 116}, {"time": 979, "pitch": 64, "duration": 8, "velocity": 110}, {"time": 985, "pitch": 53, "duration": 5, "velocity": 73}, {"time": 991, "pitch": 43, "duration": 17, "velocity": 91}, {"time": 991, "pitch": 59, "duration": 9, "velocity": 100}, {"time": 991, "pitch": 62, "duration": 10, "velocity": 114}, {"time": 991, "pitch": 67, "duration": 9, "velocity": 107}, {"time": 997, "pitch": 50, "duration": 10, "velocity": 84}, {"time": 1000, "pitch": 55, "duration": 6, "velocity": 92}, {"time": 1003, "pitch": 59, "duration": 4, "velocity": 110}, {"time": 1003, "pitch": 67, "duration": 4, "velocity": 107}, {"time": 1006, "pitch": 62, "duration": 3, "velocity": 94}, {"time": 1009, "pitch": 62, "duration": 1, "velocity": 83}, {"time": 1009, "pitch": 64, "duration": 4, "velocity": 92}, {"time": 1012, "pitch": 67, "duration": 2, "velocity": 79}, {"time": 1015, "pitch": 40, "duration": 19, "velocity": 94}, {"time": 1015, "pitch": 59, "duration": 10, "velocity": 104}, {"time": 1015, "pitch": 64, "duration": 9, "velocity": 110}, {"time": 1015, "pitch": 67, "duration": 9, "velocity": 102}, {"time": 1024, "pitch": 52, "duration": 5, "velocity": 90}, {"time": 1027, "pitch": 59, "duration": 8, "velocity": 110}, {"time": 1027, "pitch": 64, "duration": 5, "velocity": 117}, {"time": 1027, "pitch": 67, "duration": 11, "velocity": 107}, {"time": 1033, "pitch": 52, "duration": 5, "velocity": 87}, {"time": 1039, "pitch": 45, "duration": 17, "velocity": 88}, {"time": 1039, "pitch": 57, "duration": 5, "velocity": 94}, {"time": 1039, "pitch": 60, "duration": 9, "velocity": 100}, {"time": 1039, "pitch": 64, "duration": 9, "velocity": 91}, {"time": 1039, "pitch": 67, "duration": 10, "velocity": 89}, {"time": 1045, "pitch": 52, "duration": 11, "velocity": 69}, {"time": 1048, "pitch": 57, "duration": 7, "velocity": 94}, {"time": 1051, "pitch": 59, "duration": 5, "velocity": 108}, {"time": 1051, "pitch": 64, "duration": 1, "velocity": 86}, {"time": 1051, "pitch": 67, "duration": 4, "velocity": 66}, {"time": 1054, "pitch": 60, "duration": 3, "velocity": 107}, {"time": 1057, "pitch": 64, "duration": 5, "velocity": 108}, {"time": 1063, "pitch": 38, "duration": 42, "velocity": 92}, {"time": 1063, "pitch": 57, "duration": 8, "velocity": 93}, {"time": 1063, "pitch": 60, "duration": 10, "velocity": 98}, {"time": 1063, "pitch": 62, "duration": 10, "velocity": 104}, {"time": 1063, "pitch": 65, "duration": 10, "velocity": 96}, {"time": 1072, "pitch": 50, "duration": 5, "velocity": 77}, {"time": 1075, "pitch": 57, "duration": 10, "velocity": 107}, {"time": 1075, "pitch": 60, "duration": 10, "velocity": 113}, {"time": 1075, "pitch": 62, "duration": 10, "velocity": 114}, {"time": 1075, "pitch": 65, "duration": 10, "velocity": 104}, {"time": 1084, "pitch": 50, "duration": 6, "velocity": 83}, {"time": 1087, "pitch": 57, "duration": 9, "velocity": 96}, {"time": 1087, "pitch": 60, "duration": 10, "velocity": 110}, {"time": 1087, "pitch": 62, "duration": 9, "velocity": 110}, {"time": 1087, "pitch": 65, "duration": 9, "velocity": 100}, {"time": 1096, "pitch": 50, "duration": 5, "velocity": 100}, {"time": 1099, "pitch": 57, "duration": 9, "velocity": 110}, {"time": 1099, "pitch": 60, "duration": 10, "velocity": 117}, {"time": 1099, "pitch": 62, "duration": 9, "velocity": 117}, {"time": 1099, "pitch": 65, "duration": 8, "velocity": 110}, {"time": 1105, "pitch": 40, "duration": 3, "velocity": 100}, {"time": 1111, "pitch": 41, "duration": 15, "velocity": 100}, {"time": 1111, "pitch": 57, "duration": 10, "velocity": 110}, {"time": 1111, "pitch": 60, "duration": 10, "velocity": 116}, {"time": 1111, "pitch": 65, "duration": 10, "velocity": 108}, {"time": 1120, "pitch": 53, "duration": 5, "velocity": 110}, {"time": 1123, "pitch": 57, "duration": 10, "velocity": 110}, {"time": 1123, "pitch": 60, "duration": 10, "velocity": 117}, {"time": 1123, "pitch": 65, "duration": 10, "velocity": 107}, {"time": 1129, "pitch": 41, "duration": 4, "velocity": 102}, {"time": 1132, "pitch": 42, "duration": 1, "velocity": 86}, {"time": 1135, "pitch": 43, "duration": 13, "velocity": 110}, {"time": 1135, "pitch": 59, "duration": 9, "velocity": 104}, {"time": 1135, "pitch": 62, "duration": 9, "velocity": 114}, {"time": 1135, "pitch": 67, "duration": 9, "velocity": 114}, {"time": 1138, "pitch": 50, "duration": 8, "velocity": 89}, {"time": 1141, "pitch": 55, "duration": 4, "velocity": 110}, {"time": 1144, "pitch": 59, "duration": 10, "velocity": 113}, {"time": 1144, "pitch": 67, "duration": 10, "velocity": 114}, {"time": 1147, "pitch": 62, "duration": 8, "velocity": 117}, {"time": 1150, "pitch": 43, "duration": 5, "velocity": 98}, {"time": 1159, "pitch": 48, "duration": 42, "velocity": 89}, {"time": 1159, "pitch": 60, "duration": 6, "velocity": 108}, {"time": 1159, "pitch": 64, "duration": 10, "velocity": 117}, {"time": 1159, "pitch": 67, "duration": 10, "velocity": 108}, {"time": 1168, "pitch": 55, "duration": 5, "velocity": 87}, {"time": 1171, "pitch": 60, "duration": 7, "velocity": 108}, {"time": 1171, "pitch": 64, "duration": 6, "velocity": 114}, {"time": 1171, "pitch": 67, "duration": 8, "velocity": 110}, {"time": 1177, "pitch": 55, "duration": 22, "velocity": 81}, {"time": 1183, "pitch": 62, "duration": 6, "velocity": 100}, {"time": 1183, "pitch": 67, "duration": 10, "velocity": 113}, {"time": 1186, "pitch": 64, "duration": 4, "velocity": 76}, {"time": 1192, "pitch": 60, "duration": 6, "velocity": 102}, {"time": 1195, "pitch": 64, "duration": 5, "velocity": 114}, {"time": 1195, "pitch": 72, "duration": 4, "velocity": 114}, {"time": 1198, "pitch": 67, "duration": 5, "velocity": 86}, {"time": 1201, "pitch": 72, "duration": 5, "velocity": 82}, {"time": 1207, "pitch": 47, "duration": 41, "velocity": 107}, {"time": 1213, "pitch": 55, "duration": 20, "velocity": 80}, {"time": 1216, "pitch": 59, "duration": 6, "velocity": 92}, {"time": 1219, "pitch": 62, "duration": 10, "velocity": 114}, {"time": 1219, "pitch": 67, "duration": 10, "velocity": 108}, {"time": 1228, "pitch": 59, "duration": 5, "velocity": 86}, {"time": 1231, "pitch": 62, "duration": 10, "velocity": 110}, {"time": 1231, "pitch": 67, "duration": 10, "velocity": 108}, {"time": 1240, "pitch": 55, "duration": 6, "velocity": 88}, {"time": 1243, "pitch": 62, "duration": 7, "velocity": 116}, {"time": 1243, "pitch": 67, "duration": 7, "velocity": 110}, {"time": 1255, "pitch": 45, "duration": 21, "velocity": 89}, {"time": 1255, "pitch": 60, "duration": 10, "velocity": 89}, {"time": 1255, "pitch": 64, "duration": 8, "velocity": 104}, {"time": 1255, "pitch": 69, "duration": 7, "velocity": 107}, {"time": 1261, "pitch": 52, "duration": 19, "velocity": 77}, {"time": 1264, "pitch": 57, "duration": 5, "velocity": 92}, {"time": 1267, "pitch": 59, "duration": 8, "velocity": 110}, {"time": 1267, "pitch": 64, "duration": 10, "velocity": 114}, {"time": 1273, "pitch": 57, "duration": 2, "velocity": 83}, {"time": 1279, "pitch": 43, "duration": 15, "velocity": 86}, {"time": 1279, "pitch": 59, "duration": 9, "velocity": 90}, {"time": 1279, "pitch": 62, "duration": 9, "velocity": 104}, {"time": 1279, "pitch": 67, "duration": 9, "velocity": 93}, {"time": 1285, "pitch": 52, "duration": 8, "velocity": 81}, {"time": 1288, "pitch": 55, "duration": 4, "velocity": 79}, {"time": 1291, "pitch": 59, "duration": 7, "velocity": 113}, {"time": 1291, "pitch": 62, "duration": 10, "velocity": 117}, {"time": 1291, "pitch": 67, "duration": 7, "velocity": 113}, {"time": 1297, "pitch": 43, "duration": 2, "velocity": 86}, {"time": 1303, "pitch": 40, "duration": 43, "velocity": 104}, {"time": 1309, "pitch": 52, "duration": 7, "velocity": 87}, {"time": 1315, "pitch": 55, "duration": 2, "velocity": 114}, {"time": 1315, "pitch": 64, "duration": 6, "velocity": 116}, {"time": 1321, "pitch": 52, "duration": 9, "velocity": 87}, {"time": 1327, "pitch": 59, "duration": 6, "velocity": 110}, {"time": 1327, "pitch": 64, "duration": 9, "velocity": 114}, {"time": 1327, "pitch": 67, "duration": 9, "velocity": 110}, {"time": 1336, "pitch": 52, "duration": 4, "velocity": 96}, {"time": 1339, "pitch": 59, "duration": 4, "velocity": 119}, {"time": 1342, "pitch": 52, "duration": 7, "velocity": 110}, {"time": 1345, "pitch": 64, "duration": 3, "velocity": 119}, {"time": 1348, "pitch": 67, "duration": 13, "velocity": 91}, {"time": 1351, "pitch": 41, "duration": 20, "velocity": 91}, {"time": 1351, "pitch": 57, "duration": 10, "velocity": 100}, {"time": 1351, "pitch": 60, "duration": 10, "velocity": 104}, {"time": 1360, "pitch": 53, "duration": 4, "velocity": 86}, {"time": 1363, "pitch": 57, "duration": 8, "velocity": 114}, {"time": 1363, "pitch": 60, "duration": 11, "velocity": 116}, {"time": 1363, "pitch": 67, "duration": 10, "velocity": 102}, {"time": 1369, "pitch": 53, "duration": 6, "velocity": 87}, {"time": 1375, "pitch": 41, "duration": 24, "velocity": 89}, {"time": 1375, "pitch": 59, "duration": 10, "velocity": 102}, {"time": 1375, "pitch": 62, "duration": 10, "velocity": 116}, {"time": 1375, "pitch": 67, "duration": 10, "velocity": 102}, {"time": 1384, "pitch": 53, "duration": 6, "velocity": 100}, {"time": 1387, "pitch": 59, "duration": 6, "velocity": 110}, {"time": 1390, "pitch": 62, "duration": 4, "velocity": 107}, {"time": 1393, "pitch": 67, "duration": 5, "velocity": 102}, {"time": 1399, "pitch": 40, "duration": 18, "velocity": 88}, {"time": 1399, "pitch": 59, "duration": 10, "velocity": 96}, {"time": 1399, "pitch": 64, "duration": 10, "velocity": 113}, {"time": 1399, "pitch": 67, "duration": 10, "velocity": 93}, {"time": 1408, "pitch": 52, "duration": 5, "velocity": 100}, {"time": 1411, "pitch": 59, "duration": 8, "velocity": 110}, {"time": 1411, "pitch": 62, "duration": 8, "velocity": 117}, {"time": 1411, "pitch": 64, "duration": 11, "velocity": 113}, {"time": 1411, "pitch": 67, "duration": 11, "velocity": 100}, {"time": 1417, "pitch": 52, "duration": 5, "velocity": 84}, {"time": 1423, "pitch": 45, "duration": 17, "velocity": 87}, {"time": 1423, "pitch": 57, "duration": 8, "velocity": 96}, {"time": 1423, "pitch": 60, "duration": 14, "velocity": 110}, {"time": 1423, "pitch": 64, "duration": 14, "velocity": 94}, {"time": 1423, "pitch": 67, "duration": 19, "velocity": 89}, {"time": 1429, "pitch": 52, "duration": 10, "velocity": 74}, {"time": 1435, "pitch": 57, "duration": 3, "velocity": 100}, {"time": 1438, "pitch": 59, "duration": 5, "velocity": 114}, {"time": 1441, "pitch": 60, "duration": 6, "velocity": 104}, {"time": 1447, "pitch": 38, "duration": 19, "velocity": 87}, {"time": 1447, "pitch": 57, "duration": 9, "velocity": 88}, {"time": 1447, "pitch": 60, "duration": 10, "velocity": 85}, {"time": 1447, "pitch": 62, "duration": 9, "velocity": 98}, {"time": 1447, "pitch": 65, "duration": 9, "velocity": 93}, {"time": 1453, "pitch": 50, "duration": 7, "velocity": 84}, {"time": 1459, "pitch": 57, "duration": 7, "velocity": 96}, {"time": 1459, "pitch": 60, "duration": 11, "velocity": 94}, {"time": 1459, "pitch": 62, "duration": 11, "velocity": 98}, {"time": 1459, "pitch": 65, "duration": 7, "velocity": 93}, {"time": 1465, "pitch": 50, "duration": 6, "velocity": 83}, {"time": 1471, "pitch": 50, "duration": 14, "velocity": 83}, {"time": 1471, "pitch": 57, "duration": 9, "velocity": 86}, {"time": 1471, "pitch": 60, "duration": 9, "velocity": 87}, {"time": 1471, "pitch": 62, "duration": 9, "velocity": 89}, {"time": 1471, "pitch": 65, "duration": 8, "velocity": 87}, {"time": 1483, "pitch": 57, "duration": 8, "velocity": 94}, {"time": 1483, "pitch": 60, "duration": 12, "velocity": 98}, {"time": 1483, "pitch": 62, "duration": 11, "velocity": 104}, {"time": 1483, "pitch": 65, "duration": 8, "velocity": 98}, {"time": 1489, "pitch": 50, "duration": 7, "velocity": 86}, {"time": 1495, "pitch": 43, "duration": 42, "velocity": 86}, {"time": 1495, "pitch": 59, "duration": 8, "velocity": 91}, {"time": 1495, "pitch": 62, "duration": 8, "velocity": 100}, {"time": 1495, "pitch": 67, "duration": 8, "velocity": 93}, {"time": 1501, "pitch": 50, "duration": 37, "velocity": 66}, {"time": 1507, "pitch": 59, "duration": 7, "velocity": 91}, {"time": 1507, "pitch": 62, "duration": 7, "velocity": 94}, {"time": 1507, "pitch": 67, "duration": 8, "velocity": 91}, {"time": 1513, "pitch": 55, "duration": 12, "velocity": 70}, {"time": 1519, "pitch": 57, "duration": 10, "velocity": 89}, {"time": 1519, "pitch": 62, "duration": 11, "velocity": 89}, {"time": 1519, "pitch": 67, "duration": 11, "velocity": 86}, {"time": 1528, "pitch": 55, "duration": 5, "velocity": 81}, {"time": 1531, "pitch": 59, "duration": 11, "velocity": 93}, {"time": 1531, "pitch": 67, "duration": 10, "velocity": 88}, {"time": 1534, "pitch": 55, "duration": 4, "velocity": 80}, {"time": 1537, "pitch": 62, "duration": 5, "velocity": 83}, {"time": 1543, "pitch": 48, "duration": 41, "velocity": 83}, {"time": 1543, "pitch": 60, "duration": 7, "velocity": 88}, {"time": 1543, "pitch": 64, "duration": 9, "velocity": 87}, {"time": 1552, "pitch": 55, "duration": 7, "velocity": 65}, {"time": 1555, "pitch": 60, "duration": 5, "velocity": 107}, {"time": 1555, "pitch": 64, "duration": 6, "velocity": 107}, {"time": 1561, "pitch": 55, "duration": 22, "velocity": 77}, {"time": 1564, "pitch": 60, "duration": 8, "velocity": 82}, {"time": 1567, "pitch": 62, "duration": 8, "velocity": 102}, {"time": 1567, "pitch": 67, "duration": 10, "velocity": 107}, {"time": 1573, "pitch": 64, "duration": 4, "velocity": 83}, {"time": 1576, "pitch": 60, "duration": 6, "velocity": 84}, {"time": 1579, "pitch": 62, "duration": 7, "velocity": 108}, {"time": 1579, "pitch": 67, "duration": 5, "velocity": 110}, {"time": 1585, "pitch": 64, "duration": 6, "velocity": 94}, {"time": 1585, "pitch": 67, "duration": 6, "velocity": 87}, {"time": 1591, "pitch": 41, "duration": 44, "velocity": 94}, {"time": 1597, "pitch": 53, "duration": 9, "velocity": 83}, {"time": 1603, "pitch": 57, "duration": 3, "velocity": 104}, {"time": 1603, "pitch": 60, "duration": 6, "velocity": 113}, {"time": 1603, "pitch": 65, "duration": 8, "velocity": 104}, {"time": 1609, "pitch": 53, "duration": 7, "velocity": 79}, {"time": 1615, "pitch": 60, "duration": 9, "velocity": 100}, {"time": 1615, "pitch": 65, "duration": 5, "velocity": 108}, {"time": 1615, "pitch": 69, "duration": 3, "velocity": 108}, {"time": 1621, "pitch": 53, "duration": 9, "velocity": 82}, {"time": 1624, "pitch": 57, "duration": 7, "velocity": 94}, {"time": 1624, "pitch": 65, "duration": 8, "velocity": 92}, {"time": 1630, "pitch": 60, "duration": 5, "velocity": 87}, {"time": 1633, "pitch": 53, "duration": 6, "velocity": 96}, {"time": 1639, "pitch": 48, "duration": 41, "velocity": 90}, {"time": 1639, "pitch": 60, "duration": 5, "velocity": 94}, {"time": 1639, "pitch": 64, "duration": 6, "velocity": 91}, {"time": 1645, "pitch": 55, "duration": 33, "velocity": 74}, {"time": 1648, "pitch": 60, "duration": 6, "velocity": 86}, {"time": 1651, "pitch": 62, "duration": 9, "velocity": 113}, {"time": 1651, "pitch": 67, "duration": 8, "velocity": 114}, {"time": 1657, "pitch": 60, "duration": 13, "velocity": 82}, {"time": 1660, "pitch": 64, "duration": 2, "velocity": 93}, {"time": 1660, "pitch": 67, "duration": 2, "velocity": 89}, {"time": 1666, "pitch": 62, "duration": 8, "velocity": 102}, {"time": 1666, "pitch": 67, "duration": 8, "velocity": 93}, {"time": 1672, "pitch": 60, "duration": 5, "velocity": 90}, {"time": 1675, "pitch": 62, "duration": 6, "velocity": 116}, {"time": 1675, "pitch": 67, "duration": 5, "velocity": 113}, {"time": 1681, "pitch": 64, "duration": 2, "velocity": 104}, {"time": 1681, "pitch": 67, "duration": 6, "velocity": 84}, {"time": 1687, "pitch": 41, "duration": 20, "velocity": 90}, {"time": 1687, "pitch": 57, "duration": 10, "velocity": 93}, {"time": 1687, "pitch": 60, "duration": 10, "velocity": 107}, {"time": 1687, "pitch": 67, "duration": 10, "velocity": 86}, {"time": 1696, "pitch": 53, "duration": 5, "velocity": 73}, {"time": 1699, "pitch": 57, "duration": 9, "velocity": 108}, {"time": 1699, "pitch": 60, "duration": 11, "velocity": 113}, {"time": 1699, "pitch": 67, "duration": 10, "velocity": 107}, {"time": 1705, "pitch": 53, "duration": 6, "velocity": 83}, {"time": 1711, "pitch": 43, "duration": 18, "velocity": 88}, {"time": 1711, "pitch": 59, "duration": 8, "velocity": 93}, {"time": 1711, "pitch": 62, "duration": 9, "velocity": 113}, {"time": 1711, "pitch": 67, "duration": 10, "velocity": 92}, {"time": 1717, "pitch": 50, "duration": 12, "velocity": 85}, {"time": 1720, "pitch": 55, "duration": 15, "velocity": 100}, {"time": 1723, "pitch": 59, "duration": 5, "velocity": 117}, {"time": 1726, "pitch": 62, "duration": 3, "velocity": 114}, {"time": 1729, "pitch": 62, "duration": 1, "velocity": 76}, {"time": 1729, "pitch": 67, "duration": 5, "velocity": 110}, {"time": 1735, "pitch": 48, "duration": 42, "velocity": 86}, {"time": 1735, "pitch": 60, "duration": 10, "velocity": 91}, {"time": 1735, "pitch": 64, "duration": 10, "velocity": 110}, {"time": 1735, "pitch": 67, "duration": 9, "velocity": 91}, {"time": 1744, "pitch": 55, "duration": 5, "velocity": 79}, {"time": 1747, "pitch": 60, "duration": 10, "velocity": 110}, {"time": 1747, "pitch": 64, "duration": 10, "velocity": 114}, {"time": 1747, "pitch": 67, "duration": 10, "velocity": 100}, {"time": 1756, "pitch": 55, "duration": 4, "velocity": 87}, {"time": 1759, "pitch": 60, "duration": 10, "velocity": 100}, {"time": 1759, "pitch": 64, "duration": 10, "velocity": 104}, {"time": 1759, "pitch": 67, "duration": 10, "velocity": 93}, {"time": 1768, "pitch": 55, "duration": 7, "velocity": 88}, {"time": 1771, "pitch": 62, "duration": 6, "velocity": 116}, {"time": 1771, "pitch": 67, "duration": 5, "velocity": 102}, {"time": 1777, "pitch": 64, "duration": 5, "velocity": 104}, {"time": 1777, "pitch": 67, "duration": 5, "velocity": 84}, {"time": 1783, "pitch": 41, "duration": 43, "velocity": 89}, {"time": 1783, "pitch": 57, "duration": 10, "velocity": 102}, {"time": 1783, "pitch": 60, "duration": 10, "velocity": 113}, {"time": 1783, "pitch": 67, "duration": 10, "velocity": 88}, {"time": 1792, "pitch": 53, "duration": 5, "velocity": 80}, {"time": 1795, "pitch": 57, "duration": 8, "velocity": 110}, {"time": 1795, "pitch": 60, "duration": 8, "velocity": 114}, {"time": 1795, "pitch": 67, "duration": 9, "velocity": 102}, {"time": 1801, "pitch": 53, "duration": 10, "velocity": 77}, {"time": 1804, "pitch": 57, "duration": 1, "velocity": 90}, {"time": 1804, "pitch": 60, "duration": 1, "velocity": 98}, {"time": 1804, "pitch": 67, "duration": 1, "velocity": 89}, {"time": 1810, "pitch": 57, "duration": 7, "velocity": 107}, {"time": 1810, "pitch": 60, "duration": 7, "velocity": 110}, {"time": 1810, "pitch": 67, "duration": 7, "velocity": 102}, {"time": 1816, "pitch": 53, "duration": 4, "velocity": 108}, {"time": 1819, "pitch": 57, "duration": 5, "velocity": 116}, {"time": 1819, "pitch": 60, "duration": 11, "velocity": 117}, {"time": 1819, "pitch": 67, "duration": 11, "velocity": 108}, {"time": 1825, "pitch": 53, "duration": 5, "velocity": 93}, {"time": 1831, "pitch": 48, "duration": 40, "velocity": 89}, {"time": 1831, "pitch": 60, "duration": 11, "velocity": 107}, {"time": 1831, "pitch": 64, "duration": 10, "velocity": 108}, {"time": 1831, "pitch": 67, "duration": 10, "velocity": 100}, {"time": 1840, "pitch": 55, "duration": 5, "velocity": 81}, {"time": 1843, "pitch": 60, "duration": 8, "velocity": 110}, {"time": 1843, "pitch": 64, "duration": 8, "velocity": 110}, {"time": 1843, "pitch": 67, "duration": 8, "velocity": 108}, {"time": 1849, "pitch": 55, "duration": 10, "velocity": 83}, {"time": 1852, "pitch": 60, "duration": 1, "velocity": 91}, {"time": 1852, "pitch": 64, "duration": 1, "velocity": 91}, {"time": 1852, "pitch": 67, "duration": 1, "velocity": 87}, {"time": 1858, "pitch": 60, "duration": 7, "velocity": 110}, {"time": 1858, "pitch": 64, "duration": 7, "velocity": 114}, {"time": 1858, "pitch": 67, "duration": 7, "velocity": 107}, {"time": 1864, "pitch": 55, "duration": 4, "velocity": 87}, {"time": 1867, "pitch": 60, "duration": 8, "velocity": 117}, {"time": 1867, "pitch": 64, "duration": 11, "velocity": 119}, {"time": 1867, "pitch": 67, "duration": 11, "velocity": 108}, {"time": 1873, "pitch": 48, "duration": 1, "velocity": 89}, {"time": 1879, "pitch": 41, "duration": 22, "velocity": 96}, {"time": 1879, "pitch": 57, "duration": 10, "velocity": 108}, {"time": 1879, "pitch": 60, "duration": 10, "velocity": 116}, {"time": 1879, "pitch": 64, "duration": 10, "velocity": 104}, {"time": 1879, "pitch": 67, "duration": 10, "velocity": 93}, {"time": 1888, "pitch": 53, "duration": 5, "velocity": 91}, {"time": 1891, "pitch": 57, "duration": 11, "velocity": 110}, {"time": 1891, "pitch": 60, "duration": 12, "velocity": 116}, {"time": 1891, "pitch": 64, "duration": 11, "velocity": 108}, {"time": 1891, "pitch": 67, "duration": 11, "velocity": 96}, {"time": 1897, "pitch": 53, "duration": 7, "velocity": 84}, {"time": 1903, "pitch": 41, "duration": 23, "velocity": 93}, {"time": 1903, "pitch": 57, "duration": 14, "velocity": 100}, {"time": 1903, "pitch": 60, "duration": 15, "velocity": 107}, {"time": 1903, "pitch": 64, "duration": 15, "velocity": 102}, {"time": 1903, "pitch": 67, "duration": 17, "velocity": 96}, {"time": 1915, "pitch": 53, "duration": 9, "velocity": 86}, {"time": 1918, "pitch": 57, "duration": 4, "velocity": 91}, {"time": 1921, "pitch": 60, "duration": 4, "velocity": 104}, {"time": 1924, "pitch": 67, "duration": 3, "velocity": 96}, {"time": 1927, "pitch": 48, "duration": 42, "velocity": 79}, {"time": 1927, "pitch": 60, "duration": 8, "velocity": 80}, {"time": 1927, "pitch": 64, "duration": 8, "velocity": 78}, {"time": 1927, "pitch": 67, "duration": 6, "velocity": 65}, {"time": 1939, "pitch": 60, "duration": 11, "velocity": 80}, {"time": 1939, "pitch": 64, "duration": 11, "velocity": 81}, {"time": 1939, "pitch": 67, "duration": 10, "velocity": 84}, {"time": 1951, "pitch": 60, "duration": 10, "velocity": 82}, {"time": 1951, "pitch": 64, "duration": 10, "velocity": 86}, {"time": 1951, "pitch": 67, "duration": 9, "velocity": 84}, {"time": 1963, "pitch": 60, "duration": 8, "velocity": 87}, {"time": 1963, "pitch": 64, "duration": 8, "velocity": 88}, {"time": 1963, "pitch": 67, "duration": 8, "velocity": 87}, {"time": 1975, "pitch": 45, "duration": 43, "velocity": 84}, {"time": 1975, "pitch": 57, "duration": 10, "velocity": 82}, {"time": 1975, "pitch": 60, "duration": 7, "velocity": 81}, {"time": 1975, "pitch": 64, "duration": 6, "velocity": 84}, {"time": 1987, "pitch": 57, "duration": 10, "velocity": 83}, {"time": 1987, "pitch": 60, "duration": 10, "velocity": 84}, {"time": 1987, "pitch": 64, "duration": 10, "velocity": 83}, {"time": 1999, "pitch": 57, "duration": 10, "velocity": 85}, {"time": 1999, "pitch": 60, "duration": 10, "velocity": 87}, {"time": 1999, "pitch": 64, "duration": 9, "velocity": 86}, {"time": 2011, "pitch": 57, "duration": 6, "velocity": 84}, {"time": 2011, "pitch": 60, "duration": 7, "velocity": 88}, {"time": 2011, "pitch": 64, "duration": 6, "velocity": 88}, {"time": 2023, "pitch": 41, "duration": 44, "velocity": 83}, {"time": 2023, "pitch": 53, "duration": 44, "velocity": 80}, {"time": 2023, "pitch": 57, "duration": 10, "velocity": 87}, {"time": 2023, "pitch": 60, "duration": 10, "velocity": 87}, {"time": 2023, "pitch": 65, "duration": 9, "velocity": 88}, {"time": 2035, "pitch": 57, "duration": 10, "velocity": 88}, {"time": 2035, "pitch": 60, "duration": 11, "velocity": 87}, {"time": 2035, "pitch": 65, "duration": 9, "velocity": 90}, {"time": 2047, "pitch": 57, "duration": 10, "velocity": 87}, {"time": 2047, "pitch": 60, "duration": 10, "velocity": 84}, {"time": 2047, "pitch": 65, "duration": 9, "velocity": 89}, {"time": 2059, "pitch": 57, "duration": 8, "velocity": 88}, {"time": 2059, "pitch": 60, "duration": 8, "velocity": 88}, {"time": 2059, "pitch": 65, "duration": 8, "velocity": 88}, {"time": 2071, "pitch": 41, "duration": 19, "velocity": 84}, {"time": 2071, "pitch": 53, "duration": 19, "velocity": 81}, {"time": 2071, "pitch": 56, "duration": 9, "velocity": 85}, {"time": 2071, "pitch": 60, "duration": 8, "velocity": 96}, {"time": 2071, "pitch": 65, "duration": 7, "velocity": 104}, {"time": 2083, "pitch": 56, "duration": 7, "velocity": 85}, {"time": 2083, "pitch": 60, "duration": 6, "velocity": 90}, {"time": 2083, "pitch": 65, "duration": 6, "velocity": 96}, {"time": 2095, "pitch": 43, "duration": 23, "velocity": 76}, {"time": 2095, "pitch": 55, "duration": 11, "velocity": 78}, {"time": 2095, "pitch": 59, "duration": 11, "velocity": 81}, {"time": 2095, "pitch": 62, "duration": 10, "velocity": 81}, {"time": 2107, "pitch": 55, "duration": 9, "velocity": 82}, {"time": 2107, "pitch": 59, "duration": 8, "velocity": 84}, {"time": 2107, "pitch": 62, "duration": 7, "velocity": 87}, {"time": 2119, "pitch": 48, "duration": 42, "velocity": 79}, {"time": 2119, "pitch": 55, "duration": 6, "velocity": 76}, {"time": 2119, "pitch": 60, "duration": 10, "velocity": 82}, {"time": 2119, "pitch": 64, "duration": 9, "velocity": 85}, {"time": 2131, "pitch": 55, "duration": 9, "velocity": 87}, {"time": 2131, "pitch": 60, "duration": 10, "velocity": 87}, {"time": 2131, "pitch": 64, "duration": 9, "velocity": 86}, {"time": 2143, "pitch": 55, "duration": 9, "velocity": 87}, {"time": 2143, "pitch": 60, "duration": 9, "velocity": 87}, {"time": 2143, "pitch": 64, "duration": 9, "velocity": 87}, {"time": 2155, "pitch": 55, "duration": 6, "velocity": 90}, {"time": 2155, "pitch": 60, "duration": 7, "velocity": 91}, {"time": 2155, "pitch": 64, "duration": 7, "velocity": 88}, {"time": 2167, "pitch": 46, "duration": 15, "velocity": 84}, {"time": 2167, "pitch": 58, "duration": 10, "velocity": 95}, {"time": 2167, "pitch": 62, "duration": 9, "velocity": 94}, {"time": 2167, "pitch": 65, "duration": 9, "velocity": 93}, {"time": 2179, "pitch": 58, "duration": 11, "velocity": 106}, {"time": 2179, "pitch": 62, "duration": 11, "velocity": 100}, {"time": 2179, "pitch": 65, "duration": 8, "velocity": 96}, {"time": 2185, "pitch": 46, "duration": 6, "velocity": 95}, {"time": 2191, "pitch": 45, "duration": 15, "velocity": 86}, {"time": 2191, "pitch": 57, "duration": 11, "velocity": 90}, {"time": 2191, "pitch": 61, "duration": 11, "velocity": 100}, {"time": 2191, "pitch": 64, "duration": 10, "velocity": 91}, {"time": 2203, "pitch": 57, "duration": 11, "velocity": 91}, {"time": 2203, "pitch": 61, "duration": 6, "velocity": 97}, {"time": 2203, "pitch": 64, "duration": 6, "velocity": 94}, {"time": 2209, "pitch": 45, "duration": 6, "velocity": 90}, {"time": 2215, "pitch": 50, "duration": 16, "velocity": 93}, {"time": 2215, "pitch": 57, "duration": 11, "velocity": 90}, {"time": 2215, "pitch": 60, "duration": 10, "velocity": 93}, {"time": 2215, "pitch": 62, "duration": 11, "velocity": 98}, {"time": 2215, "pitch": 65, "duration": 10, "velocity": 93}, {"time": 2227, "pitch": 57, "duration": 7, "velocity": 90}, {"time": 2227, "pitch": 60, "duration": 10, "velocity": 94}, {"time": 2227, "pitch": 62, "duration": 10, "velocity": 94}, {"time": 2227, "pitch": 65, "duration": 7, "velocity": 92}, {"time": 2233, "pitch": 50, "duration": 5, "velocity": 87}, {"time": 2239, "pitch": 57, "duration": 10, "velocity": 80}, {"time": 2239, "pitch": 60, "duration": 9, "velocity": 84}, {"time": 2239, "pitch": 62, "duration": 9, "velocity": 83}, {"time": 2239, "pitch": 65, "duration": 9, "velocity": 85}, {"time": 2251, "pitch": 57, "duration": 5, "velocity": 84}, {"time": 2251, "pitch": 60, "duration": 5, "velocity": 88}, {"time": 2251, "pitch": 62, "duration": 5, "velocity": 87}, {"time": 2251, "pitch": 65, "duration": 5, "velocity": 87}, {"time": 2263, "pitch": 41, "duration": 20, "velocity": 84}, {"time": 2263, "pitch": 53, "duration": 19, "velocity": 83}, {"time": 2263, "pitch": 56, "duration": 10, "velocity": 86}, {"time": 2263, "pitch": 62, "duration": 9, "velocity": 93}, {"time": 2263, "pitch": 65, "duration": 9, "velocity": 93}, {"time": 2275, "pitch": 56, "duration": 7, "velocity": 85}, {"time": 2275, "pitch": 62, "duration": 7, "velocity": 91}, {"time": 2275, "pitch": 65, "duration": 7, "velocity": 91}, {"time": 2287, "pitch": 40, "duration": 14, "velocity": 79}, {"time": 2287, "pitch": 52, "duration": 13, "velocity": 72}, {"time": 2287, "pitch": 56, "duration": 9, "velocity": 80}, {"time": 2287, "pitch": 59, "duration": 9, "velocity": 84}, {"time": 2287, "pitch": 64, "duration": 8, "velocity": 87}, {"time": 2299, "pitch": 44, "duration": 9, "velocity": 86}, {"time": 2299, "pitch": 56, "duration": 7, "velocity": 85}, {"time": 2299, "pitch": 59, "duration": 11, "velocity": 92}, {"time": 2299, "pitch": 64, "duration": 9, "velocity": 91}, {"time": 2311, "pitch": 45, "duration": 25, "velocity": 87}, {"time": 2311, "pitch": 57, "duration": 10, "velocity": 88}, {"time": 2311, "pitch": 60, "duration": 10, "velocity": 100}, {"time": 2311, "pitch": 64, "duration": 9, "velocity": 94}, {"time": 2323, "pitch": 57, "duration": 11, "velocity": 91}, {"time": 2323, "pitch": 60, "duration": 11, "velocity": 91}, {"time": 2323, "pitch": 64, "duration": 9, "velocity": 93}, {"time": 2335, "pitch": 43, "duration": 21, "velocity": 88}, {"time": 2335, "pitch": 55, "duration": 9, "velocity": 85}, {"time": 2335, "pitch": 59, "duration": 10, "velocity": 88}, {"time": 2335, "pitch": 64, "duration": 9, "velocity": 89}, {"time": 2347, "pitch": 55, "duration": 8, "velocity": 87}, {"time": 2347, "pitch": 59, "duration": 10, "velocity": 90}, {"time": 2347, "pitch": 64, "duration": 8, "velocity": 88}, {"time": 2359, "pitch": 45, "duration": 23, "velocity": 83}, {"time": 2359, "pitch": 57, "duration": 10, "velocity": 85}, {"time": 2359, "pitch": 60, "duration": 9, "velocity": 88}, {"time": 2359, "pitch": 64, "duration": 9, "velocity": 86}, {"time": 2371, "pitch": 57, "duration": 9, "velocity": 91}, {"time": 2371, "pitch": 60, "duration": 9, "velocity": 96}, {"time": 2371, "pitch": 64, "duration": 9, "velocity": 91}, {"time": 2383, "pitch": 43, "duration": 15, "velocity": 86}, {"time": 2383, "pitch": 55, "duration": 9, "velocity": 87}, {"time": 2383, "pitch": 59, "duration": 10, "velocity": 91}, {"time": 2383, "pitch": 64, "duration": 7, "velocity": 91}, {"time": 2395, "pitch": 55, "duration": 7, "velocity": 89}, {"time": 2395, "pitch": 59, "duration": 9, "velocity": 91}, {"time": 2395, "pitch": 64, "duration": 7, "velocity": 89}, {"time": 2401, "pitch": 43, "duration": 6, "velocity": 83}, {"time": 2407, "pitch": 50, "duration": 15, "velocity": 84}, {"time": 2407, "pitch": 57, "duration": 10, "velocity": 86}, {"time": 2407, "pitch": 62, "duration": 9, "velocity": 87}, {"time": 2407, "pitch": 65, "duration": 9, "velocity": 88}, {"time": 2419, "pitch": 57, "duration": 7, "velocity": 92}, {"time": 2419, "pitch": 60, "duration": 7, "velocity": 92}, {"time": 2419, "pitch": 62, "duration": 7, "velocity": 93}, {"time": 2419, "pitch": 65, "duration": 7, "velocity": 91}, {"time": 2425, "pitch": 50, "duration": 3, "velocity": 81}, {"time": 2431, "pitch": 50, "duration": 19, "velocity": 85}, {"time": 2431, "pitch": 57, "duration": 9, "velocity": 85}, {"time": 2431, "pitch": 60, "duration": 9, "velocity": 84}, {"time": 2431, "pitch": 62, "duration": 8, "velocity": 84}, {"time": 2431, "pitch": 65, "duration": 8, "velocity": 87}, {"time": 2443, "pitch": 57, "duration": 8, "velocity": 88}, {"time": 2443, "pitch": 60, "duration": 8, "velocity": 89}, {"time": 2443, "pitch": 62, "duration": 8, "velocity": 88}, {"time": 2443, "pitch": 65, "duration": 7, "velocity": 89}, {"time": 2455, "pitch": 41, "duration": 20, "velocity": 84}, {"time": 2455, "pitch": 53, "duration": 21, "velocity": 86}, {"time": 2455, "pitch": 57, "duration": 9, "velocity": 88}, {"time": 2455, "pitch": 60, "duration": 9, "velocity": 92}, {"time": 2455, "pitch": 65, "duration": 9, "velocity": 89}, {"time": 2467, "pitch": 57, "duration": 8, "velocity": 91}, {"time": 2467, "pitch": 60, "duration": 11, "velocity": 94}, {"time": 2467, "pitch": 65, "duration": 8, "velocity": 93}, {"time": 2479, "pitch": 43, "duration": 19, "velocity": 87}, {"time": 2479, "pitch": 59, "duration": 10, "velocity": 92}, {"time": 2479, "pitch": 62, "duration": 10, "velocity": 107}, {"time": 2479, "pitch": 67, "duration": 10, "velocity": 92}, {"time": 2485, "pitch": 50, "duration": 14, "velocity": 71}, {"time": 2488, "pitch": 55, "duration": 5, "velocity": 90}, {"time": 2491, "pitch": 59, "duration": 8, "velocity": 104}, {"time": 2491, "pitch": 62, "duration": 11, "velocity": 114}, {"time": 2491, "pitch": 67, "duration": 9, "velocity": 104}, {"time": 2497, "pitch": 55, "duration": 5, "velocity": 84}, {"time": 2503, "pitch": 48, "duration": 40, "velocity": 94}, {"time": 2506, "pitch": 55, "duration": 24, "velocity": 80}, {"time": 2509, "pitch": 60, "duration": 8, "velocity": 88}, {"time": 2512, "pitch": 62, "duration": 1, "velocity": 83}, {"time": 2515, "pitch": 62, "duration": 8, "velocity": 98}, {"time": 2515, "pitch": 67, "duration": 8, "velocity": 108}, {"time": 2521, "pitch": 60, "duration": 3, "velocity": 80}, {"time": 2524, "pitch": 62, "duration": 13, "velocity": 102}, {"time": 2524, "pitch": 67, "duration": 13, "velocity": 100}, {"time": 2536, "pitch": 55, "duration": 7, "velocity": 87}, {"time": 2539, "pitch": 62, "duration": 7, "velocity": 114}, {"time": 2539, "pitch": 67, "duration": 11, "velocity": 110}, {"time": 2545, "pitch": 64, "duration": 5, "velocity": 88}, {"time": 2551, "pitch": 40, "duration": 42, "velocity": 88}, {"time": 2551, "pitch": 59, "duration": 10, "velocity": 104}, {"time": 2551, "pitch": 64, "duration": 7, "velocity": 107}, {"time": 2551, "pitch": 67, "duration": 10, "velocity": 91}, {"time": 2560, "pitch": 52, "duration": 5, "velocity": 88}, {"time": 2563, "pitch": 59, "duration": 9, "velocity": 108}, {"time": 2563, "pitch": 67, "duration": 9, "velocity": 108}, {"time": 2572, "pitch": 52, "duration": 9, "velocity": 80}, {"time": 2575, "pitch": 59, "duration": 10, "velocity": 108}, {"time": 2575, "pitch": 67, "duration": 10, "velocity": 107}, {"time": 2584, "pitch": 52, "duration": 4, "velocity": 89}, {"time": 2587, "pitch": 59, "duration": 7, "velocity": 116}, {"time": 2587, "pitch": 67, "duration": 11, "velocity": 113}, {"time": 2593, "pitch": 52, "duration": 5, "velocity": 87}, {"time": 2599, "pitch": 45, "duration": 44, "velocity": 88}, {"time": 2599, "pitch": 57, "duration": 5, "velocity": 91}, {"time": 2599, "pitch": 60, "duration": 10, "velocity": 102}, {"time": 2599, "pitch": 64, "duration": 8, "velocity": 93}, {"time": 2599, "pitch": 67, "duration": 10, "velocity": 89}, {"time": 2605, "pitch": 52, "duration": 35, "velocity": 84}, {"time": 2608, "pitch": 57, "duration": 5, "velocity": 90}, {"time": 2611, "pitch": 59, "duration": 10, "velocity": 96}, {"time": 2611, "pitch": 64, "duration": 11, "velocity": 93}, {"time": 2611, "pitch": 67, "duration": 11, "velocity": 91}, {"time": 2617, "pitch": 57, "duration": 8, "velocity": 84}, {"time": 2617, "pitch": 60, "duration": 3, "velocity": 38}, {"time": 2623, "pitch": 59, "duration": 2, "velocity": 93}, {"time": 2623, "pitch": 64, "duration": 10, "velocity": 91}, {"time": 2623, "pitch": 67, "duration": 10, "velocity": 100}, {"time": 2626, "pitch": 60, "duration": 5, "velocity": 44}, {"time": 2632, "pitch": 57, "duration": 5, "velocity": 87}, {"time": 2635, "pitch": 60, "duration": 8, "velocity": 113}, {"time": 2635, "pitch": 64, "duration": 8, "velocity": 116}, {"time": 2635, "pitch": 67, "duration": 11, "velocity": 108}, {"time": 2641, "pitch": 52, "duration": 2, "velocity": 86}, {"time": 2647, "pitch": 40, "duration": 43, "velocity": 92}, {"time": 2647, "pitch": 59, "duration": 9, "velocity": 96}, {"time": 2647, "pitch": 64, "duration": 10, "velocity": 107}, {"time": 2647, "pitch": 67, "duration": 10, "velocity": 92}, {"time": 2653, "pitch": 47, "duration": 20, "velocity": 72}, {"time": 2656, "pitch": 52, "duration": 5, "velocity": 100}, {"time": 2659, "pitch": 59, "duration": 7, "velocity": 110}, {"time": 2659, "pitch": 64, "duration": 7, "velocity": 110}, {"time": 2659, "pitch": 67, "duration": 6, "velocity": 107}, {"time": 2665, "pitch": 52, "duration": 8, "velocity": 84}, {"time": 2671, "pitch": 55, "duration": 6, "velocity": 102}, {"time": 2671, "pitch": 62, "duration": 9, "velocity": 89}, {"time": 2677, "pitch": 47, "duration": 13, "velocity": 75}, {"time": 2680, "pitch": 52, "duration": 4, "velocity": 110}, {"time": 2683, "pitch": 55, "duration": 4, "velocity": 117}, {"time": 2683, "pitch": 62, "duration": 4, "velocity": 119}, {"time": 2686, "pitch": 52, "duration": 5, "velocity": 104}, {"time": 2689, "pitch": 59, "duration": 4, "velocity": 110}, {"time": 2689, "pitch": 62, "duration": 3, "velocity": 107}, {"time": 2695, "pitch": 41, "duration": 21, "velocity": 90}, {"time": 2695, "pitch": 57, "duration": 7, "velocity": 110}, {"time": 2695, "pitch": 60, "duration": 10, "velocity": 108}, {"time": 2695, "pitch": 64, "duration": 10, "velocity": 108}, {"time": 2701, "pitch": 48, "duration": 17, "velocity": 76}, {"time": 2707, "pitch": 57, "duration": 8, "velocity": 113}, {"time": 2707, "pitch": 60, "duration": 11, "velocity": 116}, {"time": 2707, "pitch": 64, "duration": 8, "velocity": 110}, {"time": 2713, "pitch": 53, "duration": 5, "velocity": 73}, {"time": 2719, "pitch": 43, "duration": 17, "velocity": 91}, {"time": 2719, "pitch": 59, "duration": 9, "velocity": 100}, {"time": 2719, "pitch": 62, "duration": 10, "velocity": 114}, {"time": 2719, "pitch": 67, "duration": 9, "velocity": 107}, {"time": 2725, "pitch": 50, "duration": 10, "velocity": 84}, {"time": 2728, "pitch": 55, "duration": 6, "velocity": 92}, {"time": 2731, "pitch": 59, "duration": 4, "velocity": 110}, {"time": 2731, "pitch": 67, "duration": 4, "velocity": 107}, {"time": 2734, "pitch": 62, "duration": 3, "velocity": 94}, {"time": 2737, "pitch": 62, "duration": 1, "velocity": 83}, {"time": 2737, "pitch": 64, "duration": 4, "velocity": 92}, {"time": 2740, "pitch": 67, "duration": 2, "velocity": 79}, {"time": 2743, "pitch": 40, "duration": 19, "velocity": 94}, {"time": 2743, "pitch": 59, "duration": 10, "velocity": 104}, {"time": 2743, "pitch": 64, "duration": 9, "velocity": 110}, {"time": 2743, "pitch": 67, "duration": 9, "velocity": 102}, {"time": 2752, "pitch": 52, "duration": 5, "velocity": 90}, {"time": 2755, "pitch": 59, "duration": 8, "velocity": 110}, {"time": 2755, "pitch": 64, "duration": 5, "velocity": 117}, {"time": 2755, "pitch": 67, "duration": 11, "velocity": 107}, {"time": 2761, "pitch": 52, "duration": 5, "velocity": 87}, {"time": 2767, "pitch": 45, "duration": 17, "velocity": 88}, {"time": 2767, "pitch": 57, "duration": 5, "velocity": 94}, {"time": 2767, "pitch": 60, "duration": 9, "velocity": 100}, {"time": 2767, "pitch": 64, "duration": 9, "velocity": 91}, {"time": 2767, "pitch": 67, "duration": 10, "velocity": 89}, {"time": 2773, "pitch": 52, "duration": 11, "velocity": 69}, {"time": 2776, "pitch": 57, "duration": 7, "velocity": 94}, {"time": 2779, "pitch": 59, "duration": 5, "velocity": 108}, {"time": 2779, "pitch": 64, "duration": 1, "velocity": 86}, {"time": 2779, "pitch": 67, "duration": 4, "velocity": 66}, {"time": 2782, "pitch": 60, "duration": 3, "velocity": 107}, {"time": 2785, "pitch": 64, "duration": 5, "velocity": 108}, {"time": 2791, "pitch": 38, "duration": 42, "velocity": 92}, {"time": 2791, "pitch": 57, "duration": 8, "velocity": 93}, {"time": 2791, "pitch": 60, "duration": 10, "velocity": 98}, {"time": 2791, "pitch": 62, "duration": 10, "velocity": 104}, {"time": 2791, "pitch": 65, "duration": 10, "velocity": 96}, {"time": 2800, "pitch": 50, "duration": 5, "velocity": 77}, {"time": 2803, "pitch": 57, "duration": 10, "velocity": 107}, {"time": 2803, "pitch": 60, "duration": 10, "velocity": 113}, {"time": 2803, "pitch": 62, "duration": 10, "velocity": 114}, {"time": 2803, "pitch": 65, "duration": 10, "velocity": 104}, {"time": 2812, "pitch": 50, "duration": 6, "velocity": 83}, {"time": 2815, "pitch": 57, "duration": 9, "velocity": 96}, {"time": 2815, "pitch": 60, "duration": 10, "velocity": 110}, {"time": 2815, "pitch": 62, "duration": 9, "velocity": 110}, {"time": 2815, "pitch": 65, "duration": 9, "velocity": 100}, {"time": 2824, "pitch": 50, "duration": 5, "velocity": 100}, {"time": 2827, "pitch": 57, "duration": 9, "velocity": 110}, {"time": 2827, "pitch": 60, "duration": 10, "velocity": 117}, {"time": 2827, "pitch": 62, "duration": 9, "velocity": 117}, {"time": 2827, "pitch": 65, "duration": 8, "velocity": 110}, {"time": 2833, "pitch": 40, "duration": 3, "velocity": 100}, {"time": 2839, "pitch": 41, "duration": 15, "velocity": 100}, {"time": 2839, "pitch": 57, "duration": 10, "velocity": 110}, {"time": 2839, "pitch": 60, "duration": 10, "velocity": 116}, {"time": 2839, "pitch": 65, "duration": 10, "velocity": 108}, {"time": 2848, "pitch": 53, "duration": 5, "velocity": 110}, {"time": 2851, "pitch": 57, "duration": 10, "velocity": 110}, {"time": 2851, "pitch": 60, "duration": 10, "velocity": 117}, {"time": 2851, "pitch": 65, "duration": 10, "velocity": 107}, {"time": 2857, "pitch": 41, "duration": 4, "velocity": 102}, {"time": 2860, "pitch": 42, "duration": 1, "velocity": 86}, {"time": 2863, "pitch": 43, "duration": 13, "velocity": 110}, {"time": 2863, "pitch": 59, "duration": 9, "velocity": 104}, {"time": 2863, "pitch": 62, "duration": 9, "velocity": 114}, {"time": 2863, "pitch": 67, "duration": 9, "velocity": 114}, {"time": 2866, "pitch": 50, "duration": 8, "velocity": 89}, {"time": 2869, "pitch": 55, "duration": 4, "velocity": 110}, {"time": 2872, "pitch": 59, "duration": 10, "velocity": 113}, {"time": 2872, "pitch": 67, "duration": 10, "velocity": 114}, {"time": 2875, "pitch": 62, "duration": 8, "velocity": 117}, {"time": 2878, "pitch": 43, "duration": 5, "velocity": 98}, {"time": 2887, "pitch": 48, "duration": 42, "velocity": 89}, {"time": 2887, "pitch": 60, "duration": 6, "velocity": 108}, {"time": 2887, "pitch": 64, "duration": 10, "velocity": 117}, {"time": 2887, "pitch": 67, "duration": 10, "velocity": 108}, {"time": 2896, "pitch": 55, "duration": 5, "velocity": 87}, {"time": 2899, "pitch": 60, "duration": 7, "velocity": 108}, {"time": 2899, "pitch": 64, "duration": 6, "velocity": 114}, {"time": 2899, "pitch": 67, "duration": 8, "velocity": 110}, {"time": 2905, "pitch": 55, "duration": 22, "velocity": 81}, {"time": 2911, "pitch": 62, "duration": 6, "velocity": 100}, {"time": 2911, "pitch": 67, "duration": 10, "velocity": 113}, {"time": 2914, "pitch": 64, "duration": 4, "velocity": 76}, {"time": 2920, "pitch": 60, "duration": 6, "velocity": 102}, {"time": 2923, "pitch": 64, "duration": 5, "velocity": 114}, {"time": 2923, "pitch": 72, "duration": 4, "velocity": 114}, {"time": 2926, "pitch": 67, "duration": 5, "velocity": 86}, {"time": 2929, "pitch": 72, "duration": 5, "velocity": 82}, {"time": 2935, "pitch": 47, "duration": 41, "velocity": 107}, {"time": 2941, "pitch": 55, "duration": 20, "velocity": 80}, {"time": 2944, "pitch": 59, "duration": 6, "velocity": 92}, {"time": 2947, "pitch": 62, "duration": 10, "velocity": 114}, {"time": 2947, "pitch": 67, "duration": 10, "velocity": 108}, {"time": 2956, "pitch": 59, "duration": 5, "velocity": 86}, {"time": 2959, "pitch": 62, "duration": 10, "velocity": 110}, {"time": 2959, "pitch": 67, "duration": 10, "velocity": 108}, {"time": 2968, "pitch": 55, "duration": 6, "velocity": 88}, {"time": 2971, "pitch": 62, "duration": 7, "velocity": 116}, {"time": 2971, "pitch": 67, "duration": 7, "velocity": 110}, {"time": 2983, "pitch": 45, "duration": 21, "velocity": 89}, {"time": 2983, "pitch": 60, "duration": 10, "velocity": 89}, {"time": 2983, "pitch": 64, "duration": 8, "velocity": 104}, {"time": 2983, "pitch": 69, "duration": 7, "velocity": 107}, {"time": 2989, "pitch": 52, "duration": 19, "velocity": 77}, {"time": 2992, "pitch": 57, "duration": 5, "velocity": 92}, {"time": 2995, "pitch": 59, "duration": 8, "velocity": 110}, {"time": 2995, "pitch": 64, "duration": 10, "velocity": 114}, {"time": 3001, "pitch": 57, "duration": 2, "velocity": 83}, {"time": 3007, "pitch": 43, "duration": 15, "velocity": 86}, {"time": 3007, "pitch": 59, "duration": 9, "velocity": 90}, {"time": 3007, "pitch": 62, "duration": 9, "velocity": 104}, {"time": 3007, "pitch": 67, "duration": 9, "velocity": 93}, {"time": 3013, "pitch": 52, "duration": 8, "velocity": 81}, {"time": 3016, "pitch": 55, "duration": 4, "velocity": 79}, {"time": 3019, "pitch": 59, "duration": 7, "velocity": 113}, {"time": 3019, "pitch": 62, "duration": 10, "velocity": 117}, {"time": 3019, "pitch": 67, "duration": 7, "velocity": 113}, {"time": 3025, "pitch": 43, "duration": 2, "velocity": 86}, {"time": 3031, "pitch": 40, "duration": 43, "velocity": 104}, {"time": 3037, "pitch": 52, "duration": 7, "velocity": 87}, {"time": 3043, "pitch": 55, "duration": 2, "velocity": 114}, {"time": 3043, "pitch": 64, "duration": 6, "velocity": 116}, {"time": 3049, "pitch": 52, "duration": 9, "velocity": 87}, {"time": 3055, "pitch": 59, "duration": 6, "velocity": 110}, {"time": 3055, "pitch": 64, "duration": 9, "velocity": 114}, {"time": 3055, "pitch": 67, "duration": 9, "velocity": 110}, {"time": 3064, "pitch": 52, "duration": 4, "velocity": 96}, {"time": 3067, "pitch": 59, "duration": 4, "velocity": 119}, {"time": 3070, "pitch": 52, "duration": 7, "velocity": 110}, {"time": 3073, "pitch": 64, "duration": 3, "velocity": 119}, {"time": 3076, "pitch": 67, "duration": 13, "velocity": 91}, {"time": 3079, "pitch": 41, "duration": 20, "velocity": 91}, {"time": 3079, "pitch": 57, "duration": 10, "velocity": 100}, {"time": 3079, "pitch": 60, "duration": 10, "velocity": 104}, {"time": 3088, "pitch": 53, "duration": 4, "velocity": 86}, {"time": 3091, "pitch": 57, "duration": 8, "velocity": 114}, {"time": 3091, "pitch": 60, "duration": 11, "velocity": 116}, {"time": 3091, "pitch": 67, "duration": 10, "velocity": 102}, {"time": 3097, "pitch": 53, "duration": 6, "velocity": 87}, {"time": 3103, "pitch": 41, "duration": 24, "velocity": 89}, {"time": 3103, "pitch": 59, "duration": 10, "velocity": 102}, {"time": 3103, "pitch": 62, "duration": 10, "velocity": 116}, {"time": 3103, "pitch": 67, "duration": 10, "velocity": 102}, {"time": 3112, "pitch": 53, "duration": 6, "velocity": 100}, {"time": 3115, "pitch": 59, "duration": 6, "velocity": 110}, {"time": 3118, "pitch": 62, "duration": 4, "velocity": 107}, {"time": 3121, "pitch": 67, "duration": 5, "velocity": 102}, {"time": 3127, "pitch": 40, "duration": 18, "velocity": 88}, {"time": 3127, "pitch": 59, "duration": 10, "velocity": 96}, {"time": 3127, "pitch": 64, "duration": 10, "velocity": 113}, {"time": 3127, "pitch": 67, "duration": 10, "velocity": 93}, {"time": 3136, "pitch": 52, "duration": 5, "velocity": 100}, {"time": 3139, "pitch": 59, "duration": 8, "velocity": 110}, {"time": 3139, "pitch": 62, "duration": 8, "velocity": 117}, {"time": 3139, "pitch": 64, "duration": 11, "velocity": 113}, {"time": 3139, "pitch": 67, "duration": 11, "velocity": 100}, {"time": 3145, "pitch": 52, "duration": 5, "velocity": 84}, {"time": 3151, "pitch": 45, "duration": 17, "velocity": 87}, {"time": 3151, "pitch": 57, "duration": 8, "velocity": 96}, {"time": 3151, "pitch": 60, "duration": 14, "velocity": 110}, {"time": 3151, "pitch": 64, "duration": 14, "velocity": 94}, {"time": 3151, "pitch": 67, "duration": 19, "velocity": 89}, {"time": 3157, "pitch": 52, "duration": 10, "velocity": 74}, {"time": 3163, "pitch": 57, "duration": 3, "velocity": 100}, {"time": 3166, "pitch": 59, "duration": 5, "velocity": 114}, {"time": 3169, "pitch": 60, "duration": 6, "velocity": 104}, {"time": 3175, "pitch": 38, "duration": 19, "velocity": 87}, {"time": 3175, "pitch": 57, "duration": 9, "velocity": 88}, {"time": 3175, "pitch": 60, "duration": 10, "velocity": 85}, {"time": 3175, "pitch": 62, "duration": 9, "velocity": 98}, {"time": 3175, "pitch": 65, "duration": 9, "velocity": 93}, {"time": 3181, "pitch": 50, "duration": 7, "velocity": 84}, {"time": 3187, "pitch": 57, "duration": 7, "velocity": 96}, {"time": 3187, "pitch": 60, "duration": 11, "velocity": 94}, {"time": 3187, "pitch": 62, "duration": 11, "velocity": 98}, {"time": 3187, "pitch": 65, "duration": 7, "velocity": 93}, {"time": 3193, "pitch": 50, "duration": 6, "velocity": 83}, {"time": 3199, "pitch": 50, "duration": 14, "velocity": 83}, {"time": 3199, "pitch": 57, "duration": 9, "velocity": 86}, {"time": 3199, "pitch": 60, "duration": 9, "velocity": 87}, {"time": 3199, "pitch": 62, "duration": 9, "velocity": 89}, {"time": 3199, "pitch": 65, "duration": 8, "velocity": 87}, {"time": 3211, "pitch": 57, "duration": 8, "velocity": 94}, {"time": 3211, "pitch": 60, "duration": 12, "velocity": 98}, {"time": 3211, "pitch": 62, "duration": 11, "velocity": 104}, {"time": 3211, "pitch": 65, "duration": 8, "velocity": 98}, {"time": 3217, "pitch": 50, "duration": 7, "velocity": 86}, {"time": 3223, "pitch": 43, "duration": 42, "velocity": 86}, {"time": 3223, "pitch": 59, "duration": 8, "velocity": 91}, {"time": 3223, "pitch": 62, "duration": 8, "velocity": 100}, {"time": 3223, "pitch": 67, "duration": 8, "velocity": 93}, {"time": 3229, "pitch": 50, "duration": 37, "velocity": 66}, {"time": 3235, "pitch": 59, "duration": 7, "velocity": 91}, {"time": 3235, "pitch": 62, "duration": 7, "velocity": 94}, {"time": 3235, "pitch": 67, "duration": 8, "velocity": 91}, {"time": 3241, "pitch": 55, "duration": 12, "velocity": 70}, {"time": 3247, "pitch": 57, "duration": 10, "velocity": 89}, {"time": 3247, "pitch": 62, "duration": 11, "velocity": 89}, {"time": 3247, "pitch": 67, "duration": 11, "velocity": 86}, {"time": 3256, "pitch": 55, "duration": 5, "velocity": 81}, {"time": 3259, "pitch": 59, "duration": 11, "velocity": 93}, {"time": 3259, "pitch": 67, "duration": 10, "velocity": 88}, {"time": 3262, "pitch": 55, "duration": 4, "velocity": 80}, {"time": 3265, "pitch": 62, "duration": 5, "velocity": 83}, {"time": 3271, "pitch": 48, "duration": 40, "velocity": 80}, {"time": 3271, "pitch": 62, "duration": 19, "velocity": 84}, {"time": 3271, "pitch": 67, "duration": 18, "velocity": 86}, {"time": 3283, "pitch": 55, "duration": 26, "velocity": 61}, {"time": 3289, "pitch": 60, "duration": 12, "velocity": 80}, {"time": 3289, "pitch": 67, "duration": 15, "velocity": 80}, {"time": 3301, "pitch": 62, "duration": 3, "velocity": 70}, {"time": 3307, "pitch": 62, "duration": 6, "velocity": 94}, {"time": 3307, "pitch": 67, "duration": 11, "velocity": 88}, {"time": 3319, "pitch": 41, "duration": 42, "velocity": 77}, {"time": 3319, "pitch": 53, "duration": 44, "velocity": 73}, {"time": 3319, "pitch": 57, "duration": 10, "velocity": 82}, {"time": 3319, "pitch": 60, "duration": 10, "velocity": 86}, {"time": 3319, "pitch": 67, "duration": 11, "velocity": 82}, {"time": 3331, "pitch": 57, "duration": 10, "velocity": 78}, {"time": 3331, "pitch": 60, "duration": 11, "velocity": 83}, {"time": 3331, "pitch": 67, "duration": 11, "velocity": 75}, {"time": 3343, "pitch": 57, "duration": 9, "velocity": 82}, {"time": 3343, "pitch": 60, "duration": 9, "velocity": 79}, {"time": 3343, "pitch": 67, "duration": 10, "velocity": 77}, {"time": 3355, "pitch": 57, "duration": 6, "velocity": 79}, {"time": 3355, "pitch": 60, "duration": 9, "velocity": 83}, {"time": 3355, "pitch": 67, "duration": 10, "velocity": 82}, {"time": 3367, "pitch": 40, "duration": 18, "velocity": 85}, {"time": 3373, "pitch": 52, "duration": 18, "velocity": 74}, {"time": 3379, "pitch": 55, "duration": 12, "velocity": 83}, {"time": 3385, "pitch": 59, "duration": 8, "velocity": 83}, {"time": 3391, "pitch": 45, "duration": 19, "velocity": 86}, {"time": 3397, "pitch": 52, "duration": 14, "velocity": 81}, {"time": 3403, "pitch": 55, "duration": 13, "velocity": 83}, {"time": 3409, "pitch": 59, "duration": 6, "velocity": 86}, {"time": 3415, "pitch": 50, "duration": 19, "velocity": 87}, {"time": 3421, "pitch": 57, "duration": 13, "velocity": 75}, {"time": 3427, "pitch": 60, "duration": 7, "velocity": 80}, {"time": 3433, "pitch": 62, "duration": 25, "velocity": 84}, {"time": 3439, "pitch": 43, "duration": 64, "velocity": 86}, {"time": 3445, "pitch": 50, "duration": 58, "velocity": 79}, {"time": 3451, "pitch": 55, "duration": 53, "velocity": 82}, {"time": 3457, "pitch": 60, "duration": 6, "velocity": 84}, {"time": 3463, "pitch": 59, "duration": 43, "velocity": 85}, {"time": 3511, "pitch": 48, "duration": 44, "velocity": 86}, {"time": 3516, "pitch": 55, "duration": 38, "velocity": 74}, {"time": 3520, "pitch": 60, "duration": 33, "velocity": 78}, {"time": 3523, "pitch": 62, "duration": 3, "velocity": 81}, {"time": 3526, "pitch": 64, "duration": 1, "velocity": 87}, {"time": 3529, "pitch": 67, "duration": 2, "velocity": 86}, {"time": 3532, "pitch": 72, "duration": 2, "velocity": 81}, {"time": 3535, "pitch": 74, "duration": 3, "velocity": 83}, {"time": 3538, "pitch": 76, "duration": 1, "velocity": 82}, {"time": 3542, "pitch": 79, "duration": 5, "velocity": 87}, {"time": 3546, "pitch": 84, "duration": 6, "velocity": 84}, {"time": 3551, "pitch": 91, "duration": 2, "velocity": 83}]}]}