{"metadata": {"schema_version": "0.2", "title": "None", "source_filename": "320.mid", "source_format": "midi"}, "resolution": 12, "tempos": [{"time": 0, "qpm": 120.30002827050664}, {"time": 3008, "qpm": 121.50003948751284}, {"time": 3081, "qpm": 120.75009961883218}, {"time": 3093, "qpm": 120.0}, {"time": 3101, "qpm": 119.25039203566382}, {"time": 3112, "qpm": 118.500026662506}, {"time": 3192, "qpm": 119.00016065021688}, {"time": 3204, "qpm": 119.75020108054598}, {"time": 3216, "qpm": 120.75009961883218}], "key_signatures": [{"time": 0, "root": 0, "mode": "major"}], "time_signatures": [{"time": 0, "numerator": 4, "denominator": 4}, {"time": 0, "numerator": 1, "denominator": 4}], "tracks": [{"program": 0, "is_drum": false, "name": "MELODY", "notes": [{"time": 375, "pitch": 67, "duration": 3, "velocity": 76}, {"time": 381, "pitch": 69, "duration": 4, "velocity": 81}, {"time": 387, "pitch": 74, "duration": 9, "velocity": 85}, {"time": 399, "pitch": 72, "duration": 6, "velocity": 74}, {"time": 411, "pitch": 74, "duration": 10, "velocity": 82}, {"time": 423, "pitch": 72, "duration": 8, "velocity": 76}, {"time": 435, "pitch": 74, "duration": 2, "velocity": 85}, {"time": 441, "pitch": 79, "duration": 3, "velocity": 82}, {"time": 447, "pitch": 74, "duration": 6, "velocity": 74}, {"time": 453, "pitch": 72, "duration": 3, "velocity": 81}, {"time": 459, "pitch": 74, "duration": 10, "velocity": 80}, {"time": 471, "pitch": 67, "duration": 10, "velocity": 78}, {"time": 483, "pitch": 76, "duration": 9, "velocity": 81}, {"time": 495, "pitch": 69, "duration": 9, "velocity": 76}, {"time": 507, "pitch": 69, "duration": 10, "velocity": 81}, {"time": 519, "pitch": 76, "duration": 9, "velocity": 81}, {"time": 531, "pitch": 74, "duration": 12, "velocity": 81}, {"time": 543, "pitch": 67, "duration": 10, "velocity": 77}, {"time": 555, "pitch": 74, "duration": 12, "velocity": 83}, {"time": 567, "pitch": 67, "duration": 3, "velocity": 77}, {"time": 573, "pitch": 69, "duration": 4, "velocity": 79}, {"time": 579, "pitch": 74, "duration": 10, "velocity": 84}, {"time": 591, "pitch": 67, "duration": 5, "velocity": 74}, {"time": 603, "pitch": 74, "duration": 9, "velocity": 81}, {"time": 615, "pitch": 67, "duration": 9, "velocity": 75}, {"time": 627, "pitch": 74, "duration": 3, "velocity": 80}, {"time": 633, "pitch": 79, "duration": 4, "velocity": 80}, {"time": 639, "pitch": 74, "duration": 3, "velocity": 76}, {"time": 645, "pitch": 72, "duration": 4, "velocity": 79}, {"time": 651, "pitch": 74, "duration": 9, "velocity": 81}, {"time": 663, "pitch": 67, "duration": 6, "velocity": 74}, {"time": 675, "pitch": 76, "duration": 9, "velocity": 77}, {"time": 687, "pitch": 69, "duration": 9, "velocity": 81}, {"time": 699, "pitch": 69, "duration": 10, "velocity": 80}, {"time": 711, "pitch": 76, "duration": 9, "velocity": 81}, {"time": 723, "pitch": 74, "duration": 7, "velocity": 80}, {"time": 735, "pitch": 79, "duration": 9, "velocity": 74}, {"time": 747, "pitch": 74, "duration": 13, "velocity": 82}, {"time": 759, "pitch": 72, "duration": 5, "velocity": 81}, {"time": 765, "pitch": 74, "duration": 4, "velocity": 81}, {"time": 771, "pitch": 79, "duration": 9, "velocity": 81}, {"time": 783, "pitch": 76, "duration": 9, "velocity": 82}, {"time": 795, "pitch": 74, "duration": 9, "velocity": 82}, {"time": 807, "pitch": 76, "duration": 10, "velocity": 80}, {"time": 819, "pitch": 74, "duration": 5, "velocity": 82}, {"time": 825, "pitch": 72, "duration": 5, "velocity": 73}, {"time": 831, "pitch": 69, "duration": 13, "velocity": 75}, {"time": 843, "pitch": 72, "duration": 10, "velocity": 81}, {"time": 855, "pitch": 67, "duration": 3, "velocity": 81}, {"time": 861, "pitch": 69, "duration": 4, "velocity": 79}, {"time": 867, "pitch": 76, "duration": 10, "velocity": 82}, {"time": 879, "pitch": 74, "duration": 9, "velocity": 86}, {"time": 891, "pitch": 79, "duration": 12, "velocity": 81}, {"time": 903, "pitch": 81, "duration": 4, "velocity": 76}, {"time": 909, "pitch": 76, "duration": 24, "velocity": 74}, {"time": 933, "pitch": 74, "duration": 15, "velocity": 81}, {"time": 951, "pitch": 72, "duration": 3, "velocity": 80}, {"time": 957, "pitch": 74, "duration": 5, "velocity": 82}, {"time": 963, "pitch": 79, "duration": 9, "velocity": 82}, {"time": 975, "pitch": 76, "duration": 11, "velocity": 78}, {"time": 987, "pitch": 74, "duration": 10, "velocity": 81}, {"time": 999, "pitch": 76, "duration": 11, "velocity": 79}, {"time": 1011, "pitch": 74, "duration": 4, "velocity": 80}, {"time": 1017, "pitch": 72, "duration": 5, "velocity": 80}, {"time": 1023, "pitch": 69, "duration": 10, "velocity": 80}, {"time": 1035, "pitch": 72, "duration": 10, "velocity": 78}, {"time": 1047, "pitch": 67, "duration": 4, "velocity": 79}, {"time": 1053, "pitch": 69, "duration": 5, "velocity": 80}, {"time": 1059, "pitch": 76, "duration": 10, "velocity": 74}, {"time": 1071, "pitch": 72, "duration": 12, "velocity": 75}, {"time": 1083, "pitch": 69, "duration": 12, "velocity": 76}, {"time": 1095, "pitch": 76, "duration": 12, "velocity": 81}, {"time": 1107, "pitch": 72, "duration": 37, "velocity": 76}, {"time": 1191, "pitch": 67, "duration": 3, "velocity": 76}, {"time": 1197, "pitch": 69, "duration": 4, "velocity": 81}, {"time": 1203, "pitch": 74, "duration": 9, "velocity": 85}, {"time": 1215, "pitch": 72, "duration": 6, "velocity": 74}, {"time": 1227, "pitch": 74, "duration": 10, "velocity": 82}, {"time": 1239, "pitch": 72, "duration": 8, "velocity": 76}, {"time": 1251, "pitch": 74, "duration": 2, "velocity": 85}, {"time": 1257, "pitch": 79, "duration": 3, "velocity": 82}, {"time": 1263, "pitch": 74, "duration": 6, "velocity": 74}, {"time": 1269, "pitch": 72, "duration": 3, "velocity": 81}, {"time": 1275, "pitch": 74, "duration": 10, "velocity": 80}, {"time": 1287, "pitch": 67, "duration": 10, "velocity": 78}, {"time": 1299, "pitch": 76, "duration": 9, "velocity": 81}, {"time": 1311, "pitch": 69, "duration": 9, "velocity": 76}, {"time": 1323, "pitch": 69, "duration": 10, "velocity": 81}, {"time": 1335, "pitch": 76, "duration": 9, "velocity": 81}, {"time": 1347, "pitch": 74, "duration": 12, "velocity": 81}, {"time": 1359, "pitch": 67, "duration": 10, "velocity": 77}, {"time": 1371, "pitch": 74, "duration": 12, "velocity": 83}, {"time": 1383, "pitch": 67, "duration": 3, "velocity": 77}, {"time": 1389, "pitch": 69, "duration": 4, "velocity": 79}, {"time": 1395, "pitch": 74, "duration": 10, "velocity": 84}, {"time": 1407, "pitch": 67, "duration": 5, "velocity": 74}, {"time": 1419, "pitch": 74, "duration": 9, "velocity": 81}, {"time": 1431, "pitch": 67, "duration": 9, "velocity": 75}, {"time": 1443, "pitch": 74, "duration": 3, "velocity": 80}, {"time": 1449, "pitch": 79, "duration": 4, "velocity": 80}, {"time": 1455, "pitch": 74, "duration": 3, "velocity": 76}, {"time": 1461, "pitch": 72, "duration": 4, "velocity": 79}, {"time": 1467, "pitch": 74, "duration": 9, "velocity": 81}, {"time": 1479, "pitch": 67, "duration": 6, "velocity": 74}, {"time": 1491, "pitch": 76, "duration": 9, "velocity": 77}, {"time": 1503, "pitch": 69, "duration": 9, "velocity": 81}, {"time": 1515, "pitch": 69, "duration": 10, "velocity": 80}, {"time": 1527, "pitch": 76, "duration": 9, "velocity": 81}, {"time": 1539, "pitch": 74, "duration": 6, "velocity": 80}, {"time": 1545, "pitch": 79, "duration": 9, "velocity": 74}, {"time": 1557, "pitch": 79, "duration": 13, "velocity": 82}, {"time": 1569, "pitch": 74, "duration": 6, "velocity": 81}, {"time": 1575, "pitch": 72, "duration": 5, "velocity": 81}, {"time": 1581, "pitch": 74, "duration": 4, "velocity": 81}, {"time": 1587, "pitch": 79, "duration": 9, "velocity": 81}, {"time": 1599, "pitch": 76, "duration": 9, "velocity": 82}, {"time": 1611, "pitch": 74, "duration": 9, "velocity": 82}, {"time": 1623, "pitch": 76, "duration": 10, "velocity": 80}, {"time": 1635, "pitch": 74, "duration": 5, "velocity": 82}, {"time": 1641, "pitch": 72, "duration": 5, "velocity": 73}, {"time": 1647, "pitch": 69, "duration": 13, "velocity": 75}, {"time": 1659, "pitch": 72, "duration": 10, "velocity": 81}, {"time": 1671, "pitch": 67, "duration": 3, "velocity": 81}, {"time": 1677, "pitch": 69, "duration": 4, "velocity": 79}, {"time": 1683, "pitch": 76, "duration": 10, "velocity": 82}, {"time": 1695, "pitch": 74, "duration": 9, "velocity": 86}, {"time": 1707, "pitch": 79, "duration": 12, "velocity": 81}, {"time": 1719, "pitch": 81, "duration": 4, "velocity": 76}, {"time": 1725, "pitch": 76, "duration": 24, "velocity": 74}, {"time": 1749, "pitch": 74, "duration": 15, "velocity": 81}, {"time": 1767, "pitch": 72, "duration": 3, "velocity": 80}, {"time": 1773, "pitch": 74, "duration": 5, "velocity": 82}, {"time": 1779, "pitch": 79, "duration": 9, "velocity": 82}, {"time": 1791, "pitch": 76, "duration": 11, "velocity": 78}, {"time": 1803, "pitch": 74, "duration": 10, "velocity": 81}, {"time": 1815, "pitch": 76, "duration": 11, "velocity": 79}, {"time": 1827, "pitch": 74, "duration": 4, "velocity": 80}, {"time": 1833, "pitch": 72, "duration": 5, "velocity": 80}, {"time": 1839, "pitch": 69, "duration": 10, "velocity": 80}, {"time": 1851, "pitch": 72, "duration": 10, "velocity": 78}, {"time": 1863, "pitch": 67, "duration": 4, "velocity": 79}, {"time": 1869, "pitch": 69, "duration": 5, "velocity": 80}, {"time": 1875, "pitch": 76, "duration": 10, "velocity": 74}, {"time": 1887, "pitch": 72, "duration": 12, "velocity": 75}, {"time": 1899, "pitch": 69, "duration": 12, "velocity": 76}, {"time": 1911, "pitch": 76, "duration": 12, "velocity": 81}, {"time": 1923, "pitch": 72, "duration": 37, "velocity": 76}, {"time": 2007, "pitch": 72, "duration": 5, "velocity": 81}, {"time": 2013, "pitch": 74, "duration": 4, "velocity": 81}, {"time": 2019, "pitch": 79, "duration": 9, "velocity": 81}, {"time": 2031, "pitch": 76, "duration": 9, "velocity": 82}, {"time": 2043, "pitch": 74, "duration": 9, "velocity": 82}, {"time": 2055, "pitch": 76, "duration": 10, "velocity": 80}, {"time": 2067, "pitch": 74, "duration": 5, "velocity": 82}, {"time": 2073, "pitch": 72, "duration": 5, "velocity": 73}, {"time": 2079, "pitch": 69, "duration": 13, "velocity": 75}, {"time": 2091, "pitch": 72, "duration": 10, "velocity": 81}, {"time": 2103, "pitch": 67, "duration": 3, "velocity": 81}, {"time": 2109, "pitch": 69, "duration": 4, "velocity": 79}, {"time": 2115, "pitch": 76, "duration": 10, "velocity": 82}, {"time": 2127, "pitch": 74, "duration": 9, "velocity": 86}, {"time": 2139, "pitch": 79, "duration": 12, "velocity": 81}, {"time": 2151, "pitch": 81, "duration": 4, "velocity": 76}, {"time": 2157, "pitch": 76, "duration": 18, "velocity": 74}, {"time": 2175, "pitch": 69, "duration": 6, "velocity": 81}, {"time": 2181, "pitch": 74, "duration": 15, "velocity": 81}, {"time": 2199, "pitch": 72, "duration": 3, "velocity": 80}, {"time": 2205, "pitch": 74, "duration": 5, "velocity": 82}, {"time": 2211, "pitch": 79, "duration": 9, "velocity": 82}, {"time": 2223, "pitch": 76, "duration": 11, "velocity": 78}, {"time": 2235, "pitch": 74, "duration": 10, "velocity": 81}, {"time": 2247, "pitch": 76, "duration": 11, "velocity": 79}, {"time": 2259, "pitch": 77, "duration": 4, "velocity": 80}, {"time": 2265, "pitch": 76, "duration": 5, "velocity": 80}, {"time": 2271, "pitch": 74, "duration": 10, "velocity": 80}, {"time": 2283, "pitch": 72, "duration": 10, "velocity": 78}, {"time": 2295, "pitch": 67, "duration": 4, "velocity": 79}, {"time": 2301, "pitch": 69, "duration": 5, "velocity": 80}, {"time": 2307, "pitch": 76, "duration": 10, "velocity": 74}, {"time": 2319, "pitch": 72, "duration": 12, "velocity": 75}, {"time": 2331, "pitch": 69, "duration": 12, "velocity": 76}, {"time": 2343, "pitch": 76, "duration": 12, "velocity": 81}, {"time": 2355, "pitch": 72, "duration": 37, "velocity": 76}, {"time": 2439, "pitch": 72, "duration": 4, "velocity": 79}, {"time": 2445, "pitch": 74, "duration": 6, "velocity": 81}, {"time": 2451, "pitch": 76, "duration": 18, "velocity": 82}, {"time": 2469, "pitch": 79, "duration": 19, "velocity": 80}, {"time": 2487, "pitch": 81, "duration": 12, "velocity": 79}, {"time": 2499, "pitch": 74, "duration": 20, "velocity": 82}, {"time": 2517, "pitch": 76, "duration": 19, "velocity": 79}, {"time": 2535, "pitch": 77, "duration": 6, "velocity": 82}, {"time": 2541, "pitch": 76, "duration": 12, "velocity": 81}, {"time": 2553, "pitch": 72, "duration": 37, "velocity": 75}, {"time": 2595, "pitch": 76, "duration": 13, "velocity": 81}, {"time": 2607, "pitch": 79, "duration": 7, "velocity": 80}, {"time": 2613, "pitch": 76, "duration": 18, "velocity": 82}, {"time": 2631, "pitch": 74, "duration": 13, "velocity": 81}, {"time": 2643, "pitch": 76, "duration": 46, "velocity": 79}, {"time": 2721, "pitch": 76, "duration": 8, "velocity": 76}, {"time": 2727, "pitch": 69, "duration": 6, "velocity": 75}, {"time": 2733, "pitch": 72, "duration": 28, "velocity": 73}, {"time": 2823, "pitch": 72, "duration": 5, "velocity": 81}, {"time": 2829, "pitch": 74, "duration": 4, "velocity": 81}, {"time": 2835, "pitch": 79, "duration": 9, "velocity": 81}, {"time": 2847, "pitch": 76, "duration": 9, "velocity": 82}, {"time": 2859, "pitch": 74, "duration": 9, "velocity": 82}, {"time": 2871, "pitch": 76, "duration": 10, "velocity": 80}, {"time": 2883, "pitch": 74, "duration": 5, "velocity": 82}, {"time": 2889, "pitch": 72, "duration": 5, "velocity": 73}, {"time": 2895, "pitch": 69, "duration": 13, "velocity": 75}, {"time": 2907, "pitch": 72, "duration": 10, "velocity": 81}, {"time": 2919, "pitch": 67, "duration": 3, "velocity": 81}, {"time": 2925, "pitch": 69, "duration": 4, "velocity": 79}, {"time": 2931, "pitch": 76, "duration": 10, "velocity": 82}, {"time": 2943, "pitch": 74, "duration": 9, "velocity": 86}, {"time": 2955, "pitch": 79, "duration": 12, "velocity": 81}, {"time": 2967, "pitch": 81, "duration": 4, "velocity": 76}, {"time": 2973, "pitch": 76, "duration": 18, "velocity": 74}, {"time": 2991, "pitch": 69, "duration": 6, "velocity": 81}, {"time": 2997, "pitch": 74, "duration": 15, "velocity": 81}, {"time": 3015, "pitch": 72, "duration": 3, "velocity": 80}, {"time": 3021, "pitch": 74, "duration": 5, "velocity": 82}, {"time": 3027, "pitch": 79, "duration": 9, "velocity": 82}, {"time": 3039, "pitch": 76, "duration": 11, "velocity": 78}, {"time": 3051, "pitch": 74, "duration": 10, "velocity": 81}, {"time": 3063, "pitch": 76, "duration": 11, "velocity": 79}, {"time": 3075, "pitch": 77, "duration": 4, "velocity": 80}, {"time": 3081, "pitch": 76, "duration": 5, "velocity": 80}, {"time": 3087, "pitch": 74, "duration": 10, "velocity": 80}, {"time": 3099, "pitch": 72, "duration": 10, "velocity": 78}, {"time": 3111, "pitch": 67, "duration": 4, "velocity": 79}, {"time": 3117, "pitch": 69, "duration": 5, "velocity": 80}, {"time": 3123, "pitch": 76, "duration": 10, "velocity": 74}, {"time": 3135, "pitch": 72, "duration": 12, "velocity": 75}, {"time": 3147, "pitch": 69, "duration": 12, "velocity": 76}, {"time": 3159, "pitch": 76, "duration": 12, "velocity": 81}, {"time": 3171, "pitch": 72, "duration": 37, "velocity": 76}, {"time": 3255, "pitch": 67, "duration": 8, "velocity": 80}, {"time": 3261, "pitch": 69, "duration": 7, "velocity": 81}, {"time": 3269, "pitch": 76, "duration": 12, "velocity": 81}, {"time": 3282, "pitch": 72, "duration": 13, "velocity": 74}, {"time": 3294, "pitch": 77, "duration": 16, "velocity": 80}, {"time": 3309, "pitch": 76, "duration": 15, "velocity": 80}, {"time": 3324, "pitch": 72, "duration": 36, "velocity": 74}]}, {"program": 0, "is_drum": false, "name": "PIANO", "notes": [{"time": 3, "pitch": 48, "duration": 39, "velocity": 77}, {"time": 15, "pitch": 55, "duration": 8, "velocity": 53}, {"time": 15, "pitch": 64, "duration": 14, "velocity": 72}, {"time": 15, "pitch": 67, "duration": 9, "velocity": 71}, {"time": 21, "pitch": 60, "duration": 6, "velocity": 50}, {"time": 33, "pitch": 55, "duration": 9, "velocity": 55}, {"time": 39, "pitch": 64, "duration": 7, "velocity": 72}, {"time": 39, "pitch": 67, "duration": 5, "velocity": 75}, {"time": 51, "pitch": 47, "duration": 39, "velocity": 83}, {"time": 63, "pitch": 55, "duration": 6, "velocity": 57}, {"time": 63, "pitch": 62, "duration": 7, "velocity": 79}, {"time": 63, "pitch": 64, "duration": 7, "velocity": 79}, {"time": 63, "pitch": 67, "duration": 7, "velocity": 76}, {"time": 69, "pitch": 59, "duration": 2, "velocity": 57}, {"time": 81, "pitch": 55, "duration": 8, "velocity": 52}, {"time": 87, "pitch": 62, "duration": 8, "velocity": 71}, {"time": 87, "pitch": 64, "duration": 8, "velocity": 71}, {"time": 87, "pitch": 67, "duration": 7, "velocity": 76}, {"time": 93, "pitch": 59, "duration": 2, "velocity": 51}, {"time": 99, "pitch": 41, "duration": 27, "velocity": 77}, {"time": 111, "pitch": 48, "duration": 13, "velocity": 47}, {"time": 111, "pitch": 57, "duration": 19, "velocity": 63}, {"time": 111, "pitch": 60, "duration": 19, "velocity": 62}, {"time": 111, "pitch": 64, "duration": 19, "velocity": 68}, {"time": 117, "pitch": 53, "duration": 13, "velocity": 50}, {"time": 129, "pitch": 41, "duration": 15, "velocity": 79}, {"time": 135, "pitch": 57, "duration": 11, "velocity": 68}, {"time": 135, "pitch": 60, "duration": 11, "velocity": 64}, {"time": 135, "pitch": 64, "duration": 12, "velocity": 74}, {"time": 141, "pitch": 53, "duration": 6, "velocity": 57}, {"time": 147, "pitch": 43, "duration": 40, "velocity": 79}, {"time": 159, "pitch": 50, "duration": 10, "velocity": 54}, {"time": 159, "pitch": 62, "duration": 13, "velocity": 72}, {"time": 159, "pitch": 67, "duration": 13, "velocity": 71}, {"time": 165, "pitch": 59, "duration": 7, "velocity": 63}, {"time": 177, "pitch": 50, "duration": 10, "velocity": 56}, {"time": 183, "pitch": 62, "duration": 8, "velocity": 87}, {"time": 183, "pitch": 67, "duration": 7, "velocity": 83}, {"time": 189, "pitch": 59, "duration": 2, "velocity": 61}, {"time": 195, "pitch": 48, "duration": 39, "velocity": 77}, {"time": 207, "pitch": 55, "duration": 8, "velocity": 53}, {"time": 207, "pitch": 64, "duration": 14, "velocity": 72}, {"time": 207, "pitch": 67, "duration": 9, "velocity": 71}, {"time": 213, "pitch": 60, "duration": 6, "velocity": 50}, {"time": 225, "pitch": 55, "duration": 9, "velocity": 55}, {"time": 231, "pitch": 64, "duration": 7, "velocity": 72}, {"time": 231, "pitch": 67, "duration": 5, "velocity": 75}, {"time": 243, "pitch": 47, "duration": 39, "velocity": 83}, {"time": 255, "pitch": 55, "duration": 6, "velocity": 57}, {"time": 255, "pitch": 62, "duration": 7, "velocity": 79}, {"time": 255, "pitch": 64, "duration": 7, "velocity": 79}, {"time": 255, "pitch": 67, "duration": 7, "velocity": 76}, {"time": 261, "pitch": 59, "duration": 2, "velocity": 57}, {"time": 273, "pitch": 55, "duration": 8, "velocity": 52}, {"time": 279, "pitch": 62, "duration": 8, "velocity": 71}, {"time": 279, "pitch": 64, "duration": 8, "velocity": 71}, {"time": 279, "pitch": 67, "duration": 7, "velocity": 76}, {"time": 285, "pitch": 59, "duration": 2, "velocity": 51}, {"time": 291, "pitch": 41, "duration": 27, "velocity": 77}, {"time": 303, "pitch": 48, "duration": 13, "velocity": 47}, {"time": 303, "pitch": 57, "duration": 19, "velocity": 63}, {"time": 303, "pitch": 60, "duration": 19, "velocity": 62}, {"time": 303, "pitch": 64, "duration": 19, "velocity": 68}, {"time": 309, "pitch": 53, "duration": 13, "velocity": 50}, {"time": 321, "pitch": 41, "duration": 15, "velocity": 79}, {"time": 327, "pitch": 57, "duration": 11, "velocity": 68}, {"time": 327, "pitch": 60, "duration": 11, "velocity": 64}, {"time": 327, "pitch": 64, "duration": 12, "velocity": 74}, {"time": 333, "pitch": 53, "duration": 6, "velocity": 57}, {"time": 339, "pitch": 43, "duration": 40, "velocity": 79}, {"time": 351, "pitch": 50, "duration": 10, "velocity": 54}, {"time": 351, "pitch": 62, "duration": 13, "velocity": 72}, {"time": 351, "pitch": 67, "duration": 13, "velocity": 71}, {"time": 357, "pitch": 59, "duration": 7, "velocity": 63}, {"time": 369, "pitch": 50, "duration": 10, "velocity": 56}, {"time": 375, "pitch": 62, "duration": 8, "velocity": 87}, {"time": 375, "pitch": 67, "duration": 7, "velocity": 83}, {"time": 381, "pitch": 59, "duration": 2, "velocity": 61}, {"time": 387, "pitch": 48, "duration": 39, "velocity": 77}, {"time": 399, "pitch": 55, "duration": 8, "velocity": 53}, {"time": 399, "pitch": 64, "duration": 14, "velocity": 72}, {"time": 399, "pitch": 67, "duration": 9, "velocity": 71}, {"time": 405, "pitch": 60, "duration": 6, "velocity": 50}, {"time": 417, "pitch": 55, "duration": 9, "velocity": 55}, {"time": 423, "pitch": 64, "duration": 7, "velocity": 72}, {"time": 423, "pitch": 67, "duration": 5, "velocity": 75}, {"time": 435, "pitch": 47, "duration": 39, "velocity": 83}, {"time": 447, "pitch": 55, "duration": 6, "velocity": 57}, {"time": 447, "pitch": 62, "duration": 7, "velocity": 79}, {"time": 447, "pitch": 64, "duration": 7, "velocity": 79}, {"time": 447, "pitch": 67, "duration": 7, "velocity": 76}, {"time": 453, "pitch": 59, "duration": 2, "velocity": 57}, {"time": 465, "pitch": 55, "duration": 8, "velocity": 52}, {"time": 471, "pitch": 62, "duration": 8, "velocity": 71}, {"time": 471, "pitch": 64, "duration": 8, "velocity": 71}, {"time": 471, "pitch": 67, "duration": 7, "velocity": 76}, {"time": 477, "pitch": 59, "duration": 2, "velocity": 51}, {"time": 483, "pitch": 41, "duration": 27, "velocity": 77}, {"time": 495, "pitch": 48, "duration": 13, "velocity": 47}, {"time": 495, "pitch": 57, "duration": 19, "velocity": 63}, {"time": 495, "pitch": 60, "duration": 19, "velocity": 62}, {"time": 495, "pitch": 64, "duration": 19, "velocity": 68}, {"time": 501, "pitch": 53, "duration": 13, "velocity": 50}, {"time": 513, "pitch": 41, "duration": 15, "velocity": 79}, {"time": 519, "pitch": 57, "duration": 11, "velocity": 68}, {"time": 519, "pitch": 60, "duration": 11, "velocity": 64}, {"time": 519, "pitch": 64, "duration": 12, "velocity": 74}, {"time": 525, "pitch": 53, "duration": 6, "velocity": 57}, {"time": 531, "pitch": 43, "duration": 40, "velocity": 79}, {"time": 543, "pitch": 50, "duration": 10, "velocity": 54}, {"time": 543, "pitch": 62, "duration": 13, "velocity": 72}, {"time": 543, "pitch": 67, "duration": 13, "velocity": 71}, {"time": 549, "pitch": 59, "duration": 7, "velocity": 63}, {"time": 561, "pitch": 50, "duration": 10, "velocity": 56}, {"time": 567, "pitch": 62, "duration": 8, "velocity": 87}, {"time": 567, "pitch": 67, "duration": 7, "velocity": 83}, {"time": 573, "pitch": 59, "duration": 2, "velocity": 61}, {"time": 579, "pitch": 48, "duration": 39, "velocity": 77}, {"time": 591, "pitch": 55, "duration": 8, "velocity": 53}, {"time": 591, "pitch": 64, "duration": 14, "velocity": 72}, {"time": 591, "pitch": 67, "duration": 9, "velocity": 71}, {"time": 597, "pitch": 60, "duration": 6, "velocity": 50}, {"time": 609, "pitch": 55, "duration": 9, "velocity": 55}, {"time": 615, "pitch": 64, "duration": 7, "velocity": 72}, {"time": 615, "pitch": 67, "duration": 5, "velocity": 75}, {"time": 627, "pitch": 47, "duration": 39, "velocity": 83}, {"time": 639, "pitch": 55, "duration": 6, "velocity": 57}, {"time": 639, "pitch": 62, "duration": 7, "velocity": 79}, {"time": 639, "pitch": 64, "duration": 7, "velocity": 79}, {"time": 639, "pitch": 67, "duration": 7, "velocity": 76}, {"time": 645, "pitch": 59, "duration": 2, "velocity": 57}, {"time": 657, "pitch": 55, "duration": 8, "velocity": 52}, {"time": 663, "pitch": 62, "duration": 8, "velocity": 71}, {"time": 663, "pitch": 64, "duration": 8, "velocity": 71}, {"time": 663, "pitch": 67, "duration": 7, "velocity": 76}, {"time": 669, "pitch": 59, "duration": 2, "velocity": 51}, {"time": 675, "pitch": 41, "duration": 27, "velocity": 77}, {"time": 687, "pitch": 48, "duration": 13, "velocity": 47}, {"time": 687, "pitch": 57, "duration": 19, "velocity": 63}, {"time": 687, "pitch": 60, "duration": 19, "velocity": 62}, {"time": 687, "pitch": 64, "duration": 19, "velocity": 68}, {"time": 693, "pitch": 53, "duration": 13, "velocity": 50}, {"time": 705, "pitch": 41, "duration": 15, "velocity": 79}, {"time": 711, "pitch": 57, "duration": 11, "velocity": 68}, {"time": 711, "pitch": 60, "duration": 11, "velocity": 64}, {"time": 711, "pitch": 64, "duration": 12, "velocity": 74}, {"time": 717, "pitch": 53, "duration": 6, "velocity": 57}, {"time": 723, "pitch": 43, "duration": 40, "velocity": 79}, {"time": 735, "pitch": 50, "duration": 10, "velocity": 54}, {"time": 735, "pitch": 62, "duration": 13, "velocity": 72}, {"time": 735, "pitch": 67, "duration": 13, "velocity": 71}, {"time": 741, "pitch": 59, "duration": 7, "velocity": 63}, {"time": 753, "pitch": 50, "duration": 10, "velocity": 56}, {"time": 759, "pitch": 62, "duration": 8, "velocity": 87}, {"time": 759, "pitch": 67, "duration": 7, "velocity": 83}, {"time": 765, "pitch": 59, "duration": 2, "velocity": 61}, {"time": 771, "pitch": 48, "duration": 39, "velocity": 77}, {"time": 783, "pitch": 55, "duration": 8, "velocity": 53}, {"time": 783, "pitch": 64, "duration": 14, "velocity": 72}, {"time": 783, "pitch": 67, "duration": 9, "velocity": 71}, {"time": 789, "pitch": 60, "duration": 6, "velocity": 50}, {"time": 801, "pitch": 55, "duration": 9, "velocity": 55}, {"time": 807, "pitch": 64, "duration": 7, "velocity": 72}, {"time": 807, "pitch": 67, "duration": 5, "velocity": 75}, {"time": 819, "pitch": 45, "duration": 39, "velocity": 83}, {"time": 831, "pitch": 60, "duration": 7, "velocity": 79}, {"time": 831, "pitch": 64, "duration": 7, "velocity": 79}, {"time": 831, "pitch": 67, "duration": 7, "velocity": 76}, {"time": 837, "pitch": 57, "duration": 2, "velocity": 57}, {"time": 849, "pitch": 55, "duration": 8, "velocity": 52}, {"time": 855, "pitch": 60, "duration": 8, "velocity": 71}, {"time": 855, "pitch": 64, "duration": 8, "velocity": 71}, {"time": 855, "pitch": 67, "duration": 7, "velocity": 76}, {"time": 861, "pitch": 57, "duration": 2, "velocity": 51}, {"time": 867, "pitch": 41, "duration": 27, "velocity": 77}, {"time": 879, "pitch": 48, "duration": 13, "velocity": 47}, {"time": 879, "pitch": 57, "duration": 19, "velocity": 63}, {"time": 879, "pitch": 60, "duration": 19, "velocity": 62}, {"time": 879, "pitch": 64, "duration": 19, "velocity": 68}, {"time": 885, "pitch": 53, "duration": 13, "velocity": 50}, {"time": 897, "pitch": 41, "duration": 15, "velocity": 79}, {"time": 903, "pitch": 57, "duration": 11, "velocity": 68}, {"time": 903, "pitch": 60, "duration": 11, "velocity": 64}, {"time": 903, "pitch": 64, "duration": 12, "velocity": 74}, {"time": 909, "pitch": 53, "duration": 6, "velocity": 57}, {"time": 915, "pitch": 43, "duration": 40, "velocity": 79}, {"time": 927, "pitch": 50, "duration": 10, "velocity": 54}, {"time": 927, "pitch": 62, "duration": 13, "velocity": 72}, {"time": 927, "pitch": 67, "duration": 13, "velocity": 71}, {"time": 933, "pitch": 59, "duration": 7, "velocity": 63}, {"time": 945, "pitch": 50, "duration": 10, "velocity": 56}, {"time": 951, "pitch": 62, "duration": 8, "velocity": 87}, {"time": 951, "pitch": 67, "duration": 7, "velocity": 83}, {"time": 957, "pitch": 59, "duration": 2, "velocity": 61}, {"time": 963, "pitch": 48, "duration": 40, "velocity": 71}, {"time": 975, "pitch": 55, "duration": 8, "velocity": 53}, {"time": 975, "pitch": 64, "duration": 19, "velocity": 61}, {"time": 975, "pitch": 67, "duration": 17, "velocity": 66}, {"time": 981, "pitch": 60, "duration": 13, "velocity": 56}, {"time": 993, "pitch": 55, "duration": 9, "velocity": 58}, {"time": 999, "pitch": 64, "duration": 10, "velocity": 72}, {"time": 999, "pitch": 67, "duration": 8, "velocity": 60}, {"time": 1005, "pitch": 60, "duration": 2, "velocity": 50}, {"time": 1011, "pitch": 45, "duration": 39, "velocity": 74}, {"time": 1023, "pitch": 52, "duration": 11, "velocity": 52}, {"time": 1023, "pitch": 60, "duration": 17, "velocity": 65}, {"time": 1023, "pitch": 64, "duration": 16, "velocity": 71}, {"time": 1029, "pitch": 57, "duration": 10, "velocity": 48}, {"time": 1041, "pitch": 52, "duration": 8, "velocity": 63}, {"time": 1047, "pitch": 60, "duration": 9, "velocity": 75}, {"time": 1047, "pitch": 64, "duration": 7, "velocity": 74}, {"time": 1053, "pitch": 57, "duration": 2, "velocity": 54}, {"time": 1059, "pitch": 41, "duration": 24, "velocity": 74}, {"time": 1071, "pitch": 48, "duration": 7, "velocity": 47}, {"time": 1071, "pitch": 57, "duration": 9, "velocity": 55}, {"time": 1071, "pitch": 60, "duration": 10, "velocity": 57}, {"time": 1071, "pitch": 64, "duration": 11, "velocity": 62}, {"time": 1077, "pitch": 53, "duration": 4, "velocity": 56}, {"time": 1083, "pitch": 43, "duration": 16, "velocity": 65}, {"time": 1095, "pitch": 50, "duration": 5, "velocity": 47}, {"time": 1095, "pitch": 59, "duration": 8, "velocity": 63}, {"time": 1095, "pitch": 62, "duration": 8, "velocity": 63}, {"time": 1095, "pitch": 67, "duration": 8, "velocity": 66}, {"time": 1101, "pitch": 55, "duration": 1, "velocity": 58}, {"time": 1107, "pitch": 48, "duration": 39, "velocity": 57}, {"time": 1119, "pitch": 55, "duration": 8, "velocity": 50}, {"time": 1119, "pitch": 64, "duration": 16, "velocity": 62}, {"time": 1119, "pitch": 67, "duration": 13, "velocity": 67}, {"time": 1125, "pitch": 60, "duration": 9, "velocity": 54}, {"time": 1137, "pitch": 55, "duration": 8, "velocity": 53}, {"time": 1143, "pitch": 64, "duration": 10, "velocity": 67}, {"time": 1143, "pitch": 67, "duration": 7, "velocity": 60}, {"time": 1149, "pitch": 60, "duration": 3, "velocity": 44}, {"time": 1155, "pitch": 48, "duration": 43, "velocity": 57}, {"time": 1167, "pitch": 55, "duration": 11, "velocity": 50}, {"time": 1167, "pitch": 64, "duration": 18, "velocity": 59}, {"time": 1167, "pitch": 67, "duration": 17, "velocity": 62}, {"time": 1173, "pitch": 60, "duration": 11, "velocity": 61}, {"time": 1185, "pitch": 55, "duration": 13, "velocity": 43}, {"time": 1191, "pitch": 64, "duration": 11, "velocity": 63}, {"time": 1191, "pitch": 67, "duration": 10, "velocity": 64}, {"time": 1197, "pitch": 60, "duration": 5, "velocity": 48}, {"time": 1203, "pitch": 48, "duration": 39, "velocity": 77}, {"time": 1215, "pitch": 55, "duration": 8, "velocity": 53}, {"time": 1215, "pitch": 64, "duration": 14, "velocity": 72}, {"time": 1215, "pitch": 67, "duration": 9, "velocity": 71}, {"time": 1221, "pitch": 60, "duration": 6, "velocity": 50}, {"time": 1233, "pitch": 55, "duration": 9, "velocity": 55}, {"time": 1239, "pitch": 64, "duration": 7, "velocity": 72}, {"time": 1239, "pitch": 67, "duration": 5, "velocity": 75}, {"time": 1251, "pitch": 47, "duration": 39, "velocity": 83}, {"time": 1263, "pitch": 55, "duration": 6, "velocity": 57}, {"time": 1263, "pitch": 62, "duration": 7, "velocity": 79}, {"time": 1263, "pitch": 64, "duration": 7, "velocity": 79}, {"time": 1263, "pitch": 67, "duration": 7, "velocity": 76}, {"time": 1269, "pitch": 59, "duration": 2, "velocity": 57}, {"time": 1281, "pitch": 55, "duration": 8, "velocity": 52}, {"time": 1287, "pitch": 62, "duration": 8, "velocity": 71}, {"time": 1287, "pitch": 64, "duration": 8, "velocity": 71}, {"time": 1287, "pitch": 67, "duration": 7, "velocity": 76}, {"time": 1293, "pitch": 59, "duration": 2, "velocity": 51}, {"time": 1299, "pitch": 41, "duration": 27, "velocity": 77}, {"time": 1311, "pitch": 48, "duration": 13, "velocity": 47}, {"time": 1311, "pitch": 57, "duration": 19, "velocity": 63}, {"time": 1311, "pitch": 60, "duration": 19, "velocity": 62}, {"time": 1311, "pitch": 64, "duration": 19, "velocity": 68}, {"time": 1317, "pitch": 53, "duration": 13, "velocity": 50}, {"time": 1329, "pitch": 41, "duration": 15, "velocity": 79}, {"time": 1335, "pitch": 57, "duration": 11, "velocity": 68}, {"time": 1335, "pitch": 60, "duration": 11, "velocity": 64}, {"time": 1335, "pitch": 64, "duration": 12, "velocity": 74}, {"time": 1341, "pitch": 53, "duration": 6, "velocity": 57}, {"time": 1347, "pitch": 43, "duration": 40, "velocity": 79}, {"time": 1359, "pitch": 50, "duration": 10, "velocity": 54}, {"time": 1359, "pitch": 62, "duration": 13, "velocity": 72}, {"time": 1359, "pitch": 67, "duration": 13, "velocity": 71}, {"time": 1365, "pitch": 59, "duration": 7, "velocity": 63}, {"time": 1377, "pitch": 50, "duration": 10, "velocity": 56}, {"time": 1383, "pitch": 62, "duration": 8, "velocity": 87}, {"time": 1383, "pitch": 67, "duration": 7, "velocity": 83}, {"time": 1389, "pitch": 59, "duration": 2, "velocity": 61}, {"time": 1395, "pitch": 48, "duration": 39, "velocity": 77}, {"time": 1407, "pitch": 55, "duration": 8, "velocity": 53}, {"time": 1407, "pitch": 64, "duration": 14, "velocity": 72}, {"time": 1407, "pitch": 67, "duration": 9, "velocity": 71}, {"time": 1413, "pitch": 60, "duration": 6, "velocity": 50}, {"time": 1425, "pitch": 55, "duration": 9, "velocity": 55}, {"time": 1431, "pitch": 64, "duration": 7, "velocity": 72}, {"time": 1431, "pitch": 67, "duration": 5, "velocity": 75}, {"time": 1443, "pitch": 47, "duration": 39, "velocity": 83}, {"time": 1455, "pitch": 55, "duration": 6, "velocity": 57}, {"time": 1455, "pitch": 62, "duration": 7, "velocity": 79}, {"time": 1455, "pitch": 64, "duration": 7, "velocity": 79}, {"time": 1455, "pitch": 67, "duration": 7, "velocity": 76}, {"time": 1461, "pitch": 59, "duration": 2, "velocity": 57}, {"time": 1473, "pitch": 55, "duration": 8, "velocity": 52}, {"time": 1479, "pitch": 62, "duration": 8, "velocity": 71}, {"time": 1479, "pitch": 64, "duration": 8, "velocity": 71}, {"time": 1479, "pitch": 67, "duration": 7, "velocity": 76}, {"time": 1485, "pitch": 59, "duration": 2, "velocity": 51}, {"time": 1491, "pitch": 41, "duration": 27, "velocity": 77}, {"time": 1503, "pitch": 48, "duration": 13, "velocity": 47}, {"time": 1503, "pitch": 57, "duration": 19, "velocity": 63}, {"time": 1503, "pitch": 60, "duration": 19, "velocity": 62}, {"time": 1503, "pitch": 64, "duration": 19, "velocity": 68}, {"time": 1509, "pitch": 53, "duration": 13, "velocity": 50}, {"time": 1521, "pitch": 41, "duration": 15, "velocity": 79}, {"time": 1527, "pitch": 57, "duration": 11, "velocity": 68}, {"time": 1527, "pitch": 60, "duration": 11, "velocity": 64}, {"time": 1527, "pitch": 64, "duration": 12, "velocity": 74}, {"time": 1533, "pitch": 53, "duration": 6, "velocity": 57}, {"time": 1539, "pitch": 43, "duration": 40, "velocity": 79}, {"time": 1551, "pitch": 50, "duration": 10, "velocity": 54}, {"time": 1551, "pitch": 62, "duration": 13, "velocity": 72}, {"time": 1551, "pitch": 67, "duration": 13, "velocity": 71}, {"time": 1557, "pitch": 59, "duration": 7, "velocity": 63}, {"time": 1569, "pitch": 50, "duration": 10, "velocity": 56}, {"time": 1575, "pitch": 62, "duration": 8, "velocity": 87}, {"time": 1575, "pitch": 67, "duration": 7, "velocity": 83}, {"time": 1581, "pitch": 59, "duration": 2, "velocity": 61}, {"time": 1587, "pitch": 48, "duration": 39, "velocity": 77}, {"time": 1599, "pitch": 55, "duration": 8, "velocity": 53}, {"time": 1599, "pitch": 64, "duration": 14, "velocity": 72}, {"time": 1599, "pitch": 67, "duration": 9, "velocity": 71}, {"time": 1605, "pitch": 60, "duration": 6, "velocity": 50}, {"time": 1617, "pitch": 55, "duration": 9, "velocity": 55}, {"time": 1623, "pitch": 64, "duration": 7, "velocity": 72}, {"time": 1623, "pitch": 67, "duration": 5, "velocity": 75}, {"time": 1635, "pitch": 45, "duration": 39, "velocity": 83}, {"time": 1647, "pitch": 60, "duration": 7, "velocity": 79}, {"time": 1647, "pitch": 64, "duration": 7, "velocity": 79}, {"time": 1647, "pitch": 67, "duration": 7, "velocity": 76}, {"time": 1653, "pitch": 57, "duration": 2, "velocity": 57}, {"time": 1665, "pitch": 55, "duration": 8, "velocity": 52}, {"time": 1671, "pitch": 60, "duration": 8, "velocity": 71}, {"time": 1671, "pitch": 64, "duration": 8, "velocity": 71}, {"time": 1671, "pitch": 67, "duration": 7, "velocity": 76}, {"time": 1677, "pitch": 57, "duration": 2, "velocity": 51}, {"time": 1683, "pitch": 41, "duration": 27, "velocity": 77}, {"time": 1695, "pitch": 48, "duration": 13, "velocity": 47}, {"time": 1695, "pitch": 57, "duration": 19, "velocity": 63}, {"time": 1695, "pitch": 60, "duration": 19, "velocity": 62}, {"time": 1695, "pitch": 64, "duration": 19, "velocity": 68}, {"time": 1701, "pitch": 53, "duration": 13, "velocity": 50}, {"time": 1713, "pitch": 41, "duration": 15, "velocity": 79}, {"time": 1719, "pitch": 57, "duration": 11, "velocity": 68}, {"time": 1719, "pitch": 60, "duration": 11, "velocity": 64}, {"time": 1719, "pitch": 64, "duration": 12, "velocity": 74}, {"time": 1725, "pitch": 53, "duration": 6, "velocity": 57}, {"time": 1731, "pitch": 43, "duration": 40, "velocity": 79}, {"time": 1743, "pitch": 50, "duration": 10, "velocity": 54}, {"time": 1743, "pitch": 62, "duration": 13, "velocity": 72}, {"time": 1743, "pitch": 67, "duration": 13, "velocity": 71}, {"time": 1749, "pitch": 59, "duration": 7, "velocity": 63}, {"time": 1761, "pitch": 50, "duration": 10, "velocity": 56}, {"time": 1767, "pitch": 62, "duration": 8, "velocity": 87}, {"time": 1767, "pitch": 67, "duration": 7, "velocity": 83}, {"time": 1773, "pitch": 59, "duration": 2, "velocity": 61}, {"time": 1779, "pitch": 48, "duration": 40, "velocity": 71}, {"time": 1791, "pitch": 55, "duration": 8, "velocity": 53}, {"time": 1791, "pitch": 64, "duration": 19, "velocity": 61}, {"time": 1791, "pitch": 67, "duration": 17, "velocity": 66}, {"time": 1797, "pitch": 60, "duration": 13, "velocity": 56}, {"time": 1809, "pitch": 55, "duration": 9, "velocity": 58}, {"time": 1815, "pitch": 64, "duration": 10, "velocity": 72}, {"time": 1815, "pitch": 67, "duration": 8, "velocity": 60}, {"time": 1821, "pitch": 60, "duration": 2, "velocity": 50}, {"time": 1827, "pitch": 45, "duration": 39, "velocity": 74}, {"time": 1839, "pitch": 52, "duration": 11, "velocity": 52}, {"time": 1839, "pitch": 60, "duration": 17, "velocity": 65}, {"time": 1839, "pitch": 64, "duration": 16, "velocity": 71}, {"time": 1845, "pitch": 57, "duration": 10, "velocity": 48}, {"time": 1857, "pitch": 52, "duration": 8, "velocity": 63}, {"time": 1863, "pitch": 60, "duration": 9, "velocity": 75}, {"time": 1863, "pitch": 64, "duration": 7, "velocity": 74}, {"time": 1869, "pitch": 57, "duration": 2, "velocity": 54}, {"time": 1875, "pitch": 41, "duration": 24, "velocity": 74}, {"time": 1887, "pitch": 48, "duration": 14, "velocity": 47}, {"time": 1887, "pitch": 57, "duration": 16, "velocity": 55}, {"time": 1887, "pitch": 60, "duration": 17, "velocity": 57}, {"time": 1887, "pitch": 64, "duration": 17, "velocity": 62}, {"time": 1893, "pitch": 53, "duration": 11, "velocity": 56}, {"time": 1899, "pitch": 43, "duration": 16, "velocity": 65}, {"time": 1911, "pitch": 50, "duration": 5, "velocity": 47}, {"time": 1911, "pitch": 59, "duration": 8, "velocity": 63}, {"time": 1911, "pitch": 62, "duration": 8, "velocity": 63}, {"time": 1911, "pitch": 67, "duration": 8, "velocity": 66}, {"time": 1917, "pitch": 55, "duration": 1, "velocity": 58}, {"time": 1923, "pitch": 48, "duration": 39, "velocity": 57}, {"time": 1935, "pitch": 55, "duration": 8, "velocity": 50}, {"time": 1935, "pitch": 64, "duration": 16, "velocity": 62}, {"time": 1935, "pitch": 67, "duration": 13, "velocity": 67}, {"time": 1941, "pitch": 60, "duration": 9, "velocity": 54}, {"time": 1953, "pitch": 55, "duration": 8, "velocity": 53}, {"time": 1959, "pitch": 64, "duration": 10, "velocity": 67}, {"time": 1959, "pitch": 67, "duration": 7, "velocity": 60}, {"time": 1965, "pitch": 60, "duration": 3, "velocity": 44}, {"time": 1971, "pitch": 48, "duration": 43, "velocity": 57}, {"time": 1983, "pitch": 55, "duration": 11, "velocity": 50}, {"time": 1983, "pitch": 64, "duration": 18, "velocity": 59}, {"time": 1983, "pitch": 67, "duration": 17, "velocity": 62}, {"time": 1989, "pitch": 60, "duration": 11, "velocity": 61}, {"time": 2001, "pitch": 55, "duration": 13, "velocity": 43}, {"time": 2007, "pitch": 64, "duration": 11, "velocity": 63}, {"time": 2007, "pitch": 67, "duration": 10, "velocity": 64}, {"time": 2013, "pitch": 60, "duration": 5, "velocity": 48}, {"time": 2019, "pitch": 48, "duration": 39, "velocity": 77}, {"time": 2031, "pitch": 55, "duration": 8, "velocity": 53}, {"time": 2031, "pitch": 64, "duration": 14, "velocity": 72}, {"time": 2031, "pitch": 67, "duration": 9, "velocity": 71}, {"time": 2037, "pitch": 60, "duration": 6, "velocity": 50}, {"time": 2049, "pitch": 55, "duration": 9, "velocity": 55}, {"time": 2055, "pitch": 64, "duration": 7, "velocity": 72}, {"time": 2055, "pitch": 67, "duration": 5, "velocity": 75}, {"time": 2067, "pitch": 45, "duration": 39, "velocity": 83}, {"time": 2079, "pitch": 60, "duration": 7, "velocity": 79}, {"time": 2079, "pitch": 64, "duration": 7, "velocity": 79}, {"time": 2079, "pitch": 67, "duration": 7, "velocity": 76}, {"time": 2085, "pitch": 57, "duration": 2, "velocity": 57}, {"time": 2097, "pitch": 55, "duration": 8, "velocity": 52}, {"time": 2103, "pitch": 60, "duration": 8, "velocity": 71}, {"time": 2103, "pitch": 64, "duration": 8, "velocity": 71}, {"time": 2103, "pitch": 67, "duration": 7, "velocity": 76}, {"time": 2109, "pitch": 57, "duration": 2, "velocity": 51}, {"time": 2115, "pitch": 41, "duration": 27, "velocity": 77}, {"time": 2127, "pitch": 48, "duration": 13, "velocity": 47}, {"time": 2127, "pitch": 57, "duration": 19, "velocity": 63}, {"time": 2127, "pitch": 60, "duration": 19, "velocity": 62}, {"time": 2127, "pitch": 64, "duration": 19, "velocity": 68}, {"time": 2133, "pitch": 53, "duration": 13, "velocity": 50}, {"time": 2145, "pitch": 41, "duration": 15, "velocity": 79}, {"time": 2151, "pitch": 57, "duration": 11, "velocity": 68}, {"time": 2151, "pitch": 60, "duration": 11, "velocity": 64}, {"time": 2151, "pitch": 64, "duration": 12, "velocity": 74}, {"time": 2157, "pitch": 53, "duration": 6, "velocity": 57}, {"time": 2163, "pitch": 43, "duration": 40, "velocity": 79}, {"time": 2175, "pitch": 50, "duration": 10, "velocity": 54}, {"time": 2175, "pitch": 62, "duration": 13, "velocity": 72}, {"time": 2175, "pitch": 67, "duration": 13, "velocity": 71}, {"time": 2181, "pitch": 59, "duration": 7, "velocity": 63}, {"time": 2193, "pitch": 50, "duration": 10, "velocity": 56}, {"time": 2199, "pitch": 62, "duration": 8, "velocity": 87}, {"time": 2199, "pitch": 67, "duration": 7, "velocity": 83}, {"time": 2205, "pitch": 59, "duration": 2, "velocity": 61}, {"time": 2211, "pitch": 48, "duration": 40, "velocity": 71}, {"time": 2223, "pitch": 55, "duration": 8, "velocity": 53}, {"time": 2223, "pitch": 64, "duration": 19, "velocity": 61}, {"time": 2223, "pitch": 67, "duration": 17, "velocity": 66}, {"time": 2229, "pitch": 60, "duration": 13, "velocity": 56}, {"time": 2241, "pitch": 55, "duration": 9, "velocity": 58}, {"time": 2247, "pitch": 64, "duration": 10, "velocity": 72}, {"time": 2247, "pitch": 67, "duration": 8, "velocity": 60}, {"time": 2253, "pitch": 60, "duration": 2, "velocity": 50}, {"time": 2259, "pitch": 45, "duration": 39, "velocity": 74}, {"time": 2271, "pitch": 52, "duration": 11, "velocity": 52}, {"time": 2271, "pitch": 60, "duration": 17, "velocity": 65}, {"time": 2271, "pitch": 64, "duration": 16, "velocity": 71}, {"time": 2277, "pitch": 57, "duration": 10, "velocity": 48}, {"time": 2289, "pitch": 52, "duration": 8, "velocity": 63}, {"time": 2295, "pitch": 60, "duration": 9, "velocity": 75}, {"time": 2295, "pitch": 64, "duration": 7, "velocity": 74}, {"time": 2301, "pitch": 57, "duration": 2, "velocity": 54}, {"time": 2307, "pitch": 41, "duration": 24, "velocity": 74}, {"time": 2319, "pitch": 48, "duration": 14, "velocity": 47}, {"time": 2319, "pitch": 57, "duration": 16, "velocity": 55}, {"time": 2319, "pitch": 60, "duration": 17, "velocity": 57}, {"time": 2319, "pitch": 64, "duration": 17, "velocity": 62}, {"time": 2325, "pitch": 53, "duration": 11, "velocity": 56}, {"time": 2331, "pitch": 43, "duration": 16, "velocity": 65}, {"time": 2343, "pitch": 50, "duration": 5, "velocity": 47}, {"time": 2343, "pitch": 59, "duration": 8, "velocity": 63}, {"time": 2343, "pitch": 62, "duration": 8, "velocity": 63}, {"time": 2343, "pitch": 67, "duration": 8, "velocity": 66}, {"time": 2349, "pitch": 55, "duration": 1, "velocity": 58}, {"time": 2355, "pitch": 48, "duration": 39, "velocity": 57}, {"time": 2367, "pitch": 55, "duration": 8, "velocity": 50}, {"time": 2367, "pitch": 64, "duration": 16, "velocity": 62}, {"time": 2367, "pitch": 67, "duration": 13, "velocity": 67}, {"time": 2373, "pitch": 60, "duration": 9, "velocity": 54}, {"time": 2385, "pitch": 55, "duration": 8, "velocity": 53}, {"time": 2391, "pitch": 64, "duration": 10, "velocity": 67}, {"time": 2391, "pitch": 67, "duration": 7, "velocity": 60}, {"time": 2397, "pitch": 60, "duration": 3, "velocity": 44}, {"time": 2403, "pitch": 48, "duration": 43, "velocity": 57}, {"time": 2415, "pitch": 55, "duration": 11, "velocity": 50}, {"time": 2415, "pitch": 64, "duration": 18, "velocity": 59}, {"time": 2415, "pitch": 67, "duration": 17, "velocity": 62}, {"time": 2421, "pitch": 60, "duration": 11, "velocity": 61}, {"time": 2433, "pitch": 55, "duration": 13, "velocity": 43}, {"time": 2439, "pitch": 64, "duration": 11, "velocity": 63}, {"time": 2439, "pitch": 67, "duration": 10, "velocity": 64}, {"time": 2445, "pitch": 60, "duration": 5, "velocity": 48}, {"time": 2451, "pitch": 48, "duration": 39, "velocity": 77}, {"time": 2463, "pitch": 55, "duration": 8, "velocity": 53}, {"time": 2463, "pitch": 64, "duration": 14, "velocity": 72}, {"time": 2463, "pitch": 67, "duration": 9, "velocity": 71}, {"time": 2469, "pitch": 60, "duration": 6, "velocity": 50}, {"time": 2481, "pitch": 55, "duration": 9, "velocity": 55}, {"time": 2487, "pitch": 64, "duration": 7, "velocity": 72}, {"time": 2487, "pitch": 67, "duration": 5, "velocity": 75}, {"time": 2499, "pitch": 47, "duration": 39, "velocity": 83}, {"time": 2511, "pitch": 55, "duration": 6, "velocity": 57}, {"time": 2511, "pitch": 62, "duration": 7, "velocity": 79}, {"time": 2511, "pitch": 64, "duration": 7, "velocity": 79}, {"time": 2511, "pitch": 67, "duration": 7, "velocity": 76}, {"time": 2517, "pitch": 59, "duration": 2, "velocity": 57}, {"time": 2529, "pitch": 55, "duration": 8, "velocity": 52}, {"time": 2535, "pitch": 62, "duration": 8, "velocity": 71}, {"time": 2535, "pitch": 64, "duration": 8, "velocity": 71}, {"time": 2535, "pitch": 67, "duration": 7, "velocity": 76}, {"time": 2541, "pitch": 59, "duration": 2, "velocity": 51}, {"time": 2547, "pitch": 41, "duration": 27, "velocity": 77}, {"time": 2559, "pitch": 48, "duration": 13, "velocity": 47}, {"time": 2559, "pitch": 57, "duration": 19, "velocity": 63}, {"time": 2559, "pitch": 60, "duration": 19, "velocity": 62}, {"time": 2559, "pitch": 64, "duration": 19, "velocity": 68}, {"time": 2565, "pitch": 53, "duration": 13, "velocity": 50}, {"time": 2577, "pitch": 41, "duration": 15, "velocity": 79}, {"time": 2583, "pitch": 57, "duration": 11, "velocity": 68}, {"time": 2583, "pitch": 60, "duration": 11, "velocity": 64}, {"time": 2583, "pitch": 64, "duration": 12, "velocity": 74}, {"time": 2589, "pitch": 53, "duration": 6, "velocity": 57}, {"time": 2595, "pitch": 43, "duration": 40, "velocity": 79}, {"time": 2607, "pitch": 50, "duration": 10, "velocity": 54}, {"time": 2607, "pitch": 62, "duration": 13, "velocity": 72}, {"time": 2607, "pitch": 67, "duration": 13, "velocity": 71}, {"time": 2613, "pitch": 59, "duration": 7, "velocity": 63}, {"time": 2625, "pitch": 50, "duration": 10, "velocity": 56}, {"time": 2631, "pitch": 62, "duration": 8, "velocity": 87}, {"time": 2631, "pitch": 67, "duration": 7, "velocity": 83}, {"time": 2637, "pitch": 59, "duration": 2, "velocity": 61}, {"time": 2643, "pitch": 48, "duration": 39, "velocity": 77}, {"time": 2655, "pitch": 55, "duration": 8, "velocity": 53}, {"time": 2655, "pitch": 64, "duration": 14, "velocity": 72}, {"time": 2655, "pitch": 67, "duration": 9, "velocity": 71}, {"time": 2661, "pitch": 60, "duration": 6, "velocity": 50}, {"time": 2673, "pitch": 55, "duration": 9, "velocity": 55}, {"time": 2679, "pitch": 64, "duration": 7, "velocity": 72}, {"time": 2679, "pitch": 67, "duration": 5, "velocity": 75}, {"time": 2691, "pitch": 45, "duration": 39, "velocity": 83}, {"time": 2703, "pitch": 60, "duration": 7, "velocity": 79}, {"time": 2703, "pitch": 64, "duration": 7, "velocity": 79}, {"time": 2703, "pitch": 67, "duration": 7, "velocity": 76}, {"time": 2709, "pitch": 57, "duration": 2, "velocity": 57}, {"time": 2721, "pitch": 55, "duration": 8, "velocity": 52}, {"time": 2727, "pitch": 60, "duration": 8, "velocity": 71}, {"time": 2727, "pitch": 64, "duration": 8, "velocity": 71}, {"time": 2727, "pitch": 67, "duration": 7, "velocity": 76}, {"time": 2733, "pitch": 57, "duration": 2, "velocity": 51}, {"time": 2739, "pitch": 41, "duration": 27, "velocity": 77}, {"time": 2751, "pitch": 48, "duration": 13, "velocity": 47}, {"time": 2751, "pitch": 57, "duration": 19, "velocity": 63}, {"time": 2751, "pitch": 60, "duration": 19, "velocity": 62}, {"time": 2751, "pitch": 64, "duration": 19, "velocity": 68}, {"time": 2757, "pitch": 53, "duration": 13, "velocity": 50}, {"time": 2769, "pitch": 41, "duration": 15, "velocity": 79}, {"time": 2775, "pitch": 57, "duration": 11, "velocity": 68}, {"time": 2775, "pitch": 60, "duration": 11, "velocity": 64}, {"time": 2775, "pitch": 64, "duration": 12, "velocity": 74}, {"time": 2781, "pitch": 53, "duration": 6, "velocity": 57}, {"time": 2787, "pitch": 43, "duration": 40, "velocity": 79}, {"time": 2799, "pitch": 50, "duration": 10, "velocity": 54}, {"time": 2799, "pitch": 62, "duration": 13, "velocity": 72}, {"time": 2799, "pitch": 67, "duration": 13, "velocity": 71}, {"time": 2805, "pitch": 59, "duration": 7, "velocity": 63}, {"time": 2817, "pitch": 50, "duration": 10, "velocity": 56}, {"time": 2823, "pitch": 62, "duration": 8, "velocity": 87}, {"time": 2823, "pitch": 67, "duration": 7, "velocity": 83}, {"time": 2829, "pitch": 59, "duration": 2, "velocity": 61}, {"time": 2835, "pitch": 48, "duration": 39, "velocity": 77}, {"time": 2847, "pitch": 55, "duration": 8, "velocity": 53}, {"time": 2847, "pitch": 64, "duration": 14, "velocity": 72}, {"time": 2847, "pitch": 67, "duration": 9, "velocity": 71}, {"time": 2853, "pitch": 60, "duration": 6, "velocity": 50}, {"time": 2865, "pitch": 55, "duration": 9, "velocity": 55}, {"time": 2871, "pitch": 64, "duration": 7, "velocity": 72}, {"time": 2871, "pitch": 67, "duration": 5, "velocity": 75}, {"time": 2883, "pitch": 45, "duration": 39, "velocity": 83}, {"time": 2895, "pitch": 60, "duration": 7, "velocity": 79}, {"time": 2895, "pitch": 64, "duration": 7, "velocity": 79}, {"time": 2895, "pitch": 67, "duration": 7, "velocity": 76}, {"time": 2901, "pitch": 57, "duration": 2, "velocity": 57}, {"time": 2913, "pitch": 55, "duration": 8, "velocity": 52}, {"time": 2919, "pitch": 60, "duration": 8, "velocity": 71}, {"time": 2919, "pitch": 64, "duration": 8, "velocity": 71}, {"time": 2919, "pitch": 67, "duration": 7, "velocity": 76}, {"time": 2925, "pitch": 57, "duration": 2, "velocity": 51}, {"time": 2931, "pitch": 41, "duration": 27, "velocity": 77}, {"time": 2943, "pitch": 48, "duration": 13, "velocity": 47}, {"time": 2943, "pitch": 57, "duration": 19, "velocity": 63}, {"time": 2943, "pitch": 60, "duration": 19, "velocity": 62}, {"time": 2943, "pitch": 64, "duration": 19, "velocity": 68}, {"time": 2949, "pitch": 53, "duration": 13, "velocity": 50}, {"time": 2961, "pitch": 41, "duration": 15, "velocity": 79}, {"time": 2967, "pitch": 57, "duration": 11, "velocity": 68}, {"time": 2967, "pitch": 60, "duration": 11, "velocity": 64}, {"time": 2967, "pitch": 64, "duration": 12, "velocity": 74}, {"time": 2973, "pitch": 53, "duration": 6, "velocity": 57}, {"time": 2979, "pitch": 43, "duration": 40, "velocity": 79}, {"time": 2991, "pitch": 50, "duration": 10, "velocity": 54}, {"time": 2991, "pitch": 62, "duration": 13, "velocity": 72}, {"time": 2991, "pitch": 67, "duration": 13, "velocity": 71}, {"time": 2997, "pitch": 59, "duration": 7, "velocity": 63}, {"time": 3009, "pitch": 50, "duration": 10, "velocity": 56}, {"time": 3015, "pitch": 62, "duration": 8, "velocity": 87}, {"time": 3015, "pitch": 67, "duration": 7, "velocity": 83}, {"time": 3021, "pitch": 59, "duration": 2, "velocity": 61}, {"time": 3027, "pitch": 48, "duration": 40, "velocity": 71}, {"time": 3039, "pitch": 55, "duration": 8, "velocity": 53}, {"time": 3039, "pitch": 64, "duration": 19, "velocity": 61}, {"time": 3039, "pitch": 67, "duration": 17, "velocity": 66}, {"time": 3045, "pitch": 60, "duration": 13, "velocity": 56}, {"time": 3057, "pitch": 55, "duration": 9, "velocity": 58}, {"time": 3063, "pitch": 64, "duration": 10, "velocity": 72}, {"time": 3063, "pitch": 67, "duration": 8, "velocity": 60}, {"time": 3069, "pitch": 60, "duration": 2, "velocity": 50}, {"time": 3075, "pitch": 45, "duration": 39, "velocity": 74}, {"time": 3087, "pitch": 52, "duration": 11, "velocity": 52}, {"time": 3087, "pitch": 60, "duration": 17, "velocity": 65}, {"time": 3087, "pitch": 64, "duration": 16, "velocity": 71}, {"time": 3093, "pitch": 57, "duration": 10, "velocity": 48}, {"time": 3105, "pitch": 52, "duration": 8, "velocity": 63}, {"time": 3111, "pitch": 60, "duration": 9, "velocity": 75}, {"time": 3111, "pitch": 64, "duration": 7, "velocity": 74}, {"time": 3117, "pitch": 57, "duration": 2, "velocity": 54}, {"time": 3123, "pitch": 41, "duration": 24, "velocity": 74}, {"time": 3135, "pitch": 48, "duration": 14, "velocity": 47}, {"time": 3135, "pitch": 57, "duration": 16, "velocity": 55}, {"time": 3135, "pitch": 60, "duration": 17, "velocity": 57}, {"time": 3135, "pitch": 64, "duration": 17, "velocity": 62}, {"time": 3141, "pitch": 53, "duration": 11, "velocity": 56}, {"time": 3147, "pitch": 43, "duration": 16, "velocity": 65}, {"time": 3159, "pitch": 50, "duration": 5, "velocity": 47}, {"time": 3159, "pitch": 59, "duration": 8, "velocity": 63}, {"time": 3159, "pitch": 62, "duration": 8, "velocity": 63}, {"time": 3159, "pitch": 67, "duration": 8, "velocity": 66}, {"time": 3165, "pitch": 55, "duration": 1, "velocity": 58}, {"time": 3171, "pitch": 48, "duration": 39, "velocity": 57}, {"time": 3183, "pitch": 55, "duration": 8, "velocity": 50}, {"time": 3183, "pitch": 64, "duration": 16, "velocity": 62}, {"time": 3183, "pitch": 67, "duration": 13, "velocity": 67}, {"time": 3189, "pitch": 60, "duration": 9, "velocity": 54}, {"time": 3201, "pitch": 55, "duration": 8, "velocity": 53}, {"time": 3207, "pitch": 64, "duration": 10, "velocity": 67}, {"time": 3207, "pitch": 67, "duration": 7, "velocity": 60}, {"time": 3213, "pitch": 60, "duration": 3, "velocity": 44}, {"time": 3219, "pitch": 48, "duration": 43, "velocity": 57}, {"time": 3231, "pitch": 55, "duration": 11, "velocity": 50}, {"time": 3231, "pitch": 64, "duration": 18, "velocity": 59}, {"time": 3231, "pitch": 67, "duration": 17, "velocity": 62}, {"time": 3237, "pitch": 60, "duration": 11, "velocity": 61}, {"time": 3249, "pitch": 55, "duration": 13, "velocity": 43}, {"time": 3255, "pitch": 64, "duration": 11, "velocity": 63}, {"time": 3255, "pitch": 67, "duration": 10, "velocity": 64}, {"time": 3261, "pitch": 60, "duration": 5, "velocity": 48}, {"time": 3269, "pitch": 41, "duration": 15, "velocity": 53}, {"time": 3282, "pitch": 48, "duration": 2, "velocity": 44}, {"time": 3282, "pitch": 53, "duration": 3, "velocity": 41}, {"time": 3282, "pitch": 57, "duration": 4, "velocity": 47}, {"time": 3282, "pitch": 60, "duration": 5, "velocity": 54}, {"time": 3295, "pitch": 43, "duration": 17, "velocity": 45}, {"time": 3303, "pitch": 50, "duration": 8, "velocity": 47}, {"time": 3309, "pitch": 55, "duration": 4, "velocity": 37}, {"time": 3309, "pitch": 59, "duration": 5, "velocity": 43}, {"time": 3309, "pitch": 62, "duration": 5, "velocity": 45}, {"time": 3326, "pitch": 36, "duration": 47, "velocity": 47}, {"time": 3342, "pitch": 55, "duration": 12, "velocity": 34}, {"time": 3342, "pitch": 48, "duration": 29, "velocity": 33}, {"time": 3342, "pitch": 60, "duration": 14, "velocity": 43}, {"time": 3342, "pitch": 52, "duration": 11, "velocity": 33}], "annotations": [{"time": 17, "annotation": {"number": 64, "value": 71}, "group": "control_change"}, {"time": 20, "annotation": {"number": 64, "value": 127}, "group": "control_change"}, {"time": 52, "annotation": {"number": 64, "value": 71}, "group": "control_change"}, {"time": 53, "annotation": {"number": 64, "value": 0}, "group": "control_change"}, {"time": 66, "annotation": {"number": 64, "value": 71}, "group": "control_change"}, {"time": 68, "annotation": {"number": 64, "value": 127}, "group": "control_change"}, {"time": 99, "annotation": {"number": 64, "value": 71}, "group": "control_change"}, {"time": 100, "annotation": {"number": 64, "value": 0}, "group": "control_change"}, {"time": 113, "annotation": {"number": 64, "value": 71}, "group": "control_change"}, {"time": 116, "annotation": {"number": 64, "value": 127}, "group": "control_change"}, {"time": 123, "annotation": {"number": 64, "value": 71}, "group": "control_change"}, {"time": 124, "annotation": {"number": 64, "value": 71}, "group": "control_change"}, {"time": 124, "annotation": {"number": 64, "value": 127}, "group": "control_change"}, {"time": 125, "annotation": {"number": 64, "value": 127}, "group": "control_change"}, {"time": 134, "annotation": {"number": 64, "value": 71}, "group": "control_change"}, {"time": 135, "annotation": {"number": 64, "value": 0}, "group": "control_change"}, {"time": 146, "annotation": {"number": 64, "value": 71}, "group": "control_change"}, {"time": 147, "annotation": {"number": 64, "value": 0}, "group": "control_change"}, {"time": 162, "annotation": {"number": 64, "value": 71}, "group": "control_change"}, {"time": 166, "annotation": {"number": 64, "value": 127}, "group": "control_change"}, {"time": 192, "annotation": {"number": 64, "value": 0}, "group": "control_change"}, {"time": 209, "annotation": {"number": 64, "value": 71}, "group": "control_change"}, {"time": 212, "annotation": {"number": 64, "value": 127}, "group": "control_change"}, {"time": 244, "annotation": {"number": 64, "value": 71}, "group": "control_change"}, {"time": 245, "annotation": {"number": 64, "value": 0}, "group": "control_change"}, {"time": 258, "annotation": {"number": 64, "value": 71}, "group": "control_change"}, {"time": 260, "annotation": {"number": 64, "value": 127}, "group": "control_change"}, {"time": 291, "annotation": {"number": 64, "value": 71}, "group": "control_change"}, {"time": 292, "annotation": {"number": 64, "value": 0}, "group": "control_change"}, {"time": 305, "annotation": {"number": 64, "value": 71}, "group": "control_change"}, {"time": 308, "annotation": {"number": 64, "value": 127}, "group": "control_change"}, {"time": 315, "annotation": {"number": 64, "value": 71}, "group": "control_change"}, {"time": 316, "annotation": {"number": 64, "value": 71}, "group": "control_change"}, {"time": 316, "annotation": {"number": 64, "value": 127}, "group": "control_change"}, {"time": 317, "annotation": {"number": 64, "value": 127}, "group": "control_change"}, {"time": 326, "annotation": {"number": 64, "value": 71}, "group": "control_change"}, {"time": 327, "annotation": {"number": 64, "value": 0}, "group": "control_change"}, {"time": 338, "annotation": {"number": 64, "value": 71}, "group": "control_change"}, {"time": 339, "annotation": {"number": 64, "value": 0}, "group": "control_change"}, {"time": 354, "annotation": {"number": 64, "value": 71}, "group": "control_change"}, {"time": 358, "annotation": {"number": 64, "value": 127}, "group": "control_change"}, {"time": 384, "annotation": {"number": 64, "value": 0}, "group": "control_change"}, {"time": 386, "annotation": {"number": 64, "value": 71}, "group": "control_change"}, {"time": 401, "annotation": {"number": 64, "value": 71}, "group": "control_change"}, {"time": 404, "annotation": {"number": 64, "value": 127}, "group": "control_change"}, {"time": 436, "annotation": {"number": 64, "value": 71}, "group": "control_change"}, {"time": 437, "annotation": {"number": 64, "value": 0}, "group": "control_change"}, {"time": 450, "annotation": {"number": 64, "value": 71}, "group": "control_change"}, {"time": 452, "annotation": {"number": 64, "value": 127}, "group": "control_change"}, {"time": 483, "annotation": {"number": 64, "value": 71}, "group": "control_change"}, {"time": 484, "annotation": {"number": 64, "value": 0}, "group": "control_change"}, {"time": 497, "annotation": {"number": 64, "value": 71}, "group": "control_change"}, {"time": 500, "annotation": {"number": 64, "value": 127}, "group": "control_change"}, {"time": 507, "annotation": {"number": 64, "value": 71}, "group": "control_change"}, {"time": 508, "annotation": {"number": 64, "value": 71}, "group": "control_change"}, {"time": 508, "annotation": {"number": 64, "value": 127}, "group": "control_change"}, {"time": 509, "annotation": {"number": 64, "value": 127}, "group": "control_change"}, {"time": 518, "annotation": {"number": 64, "value": 71}, "group": "control_change"}, {"time": 519, "annotation": {"number": 64, "value": 0}, "group": "control_change"}, {"time": 530, "annotation": {"number": 64, "value": 71}, "group": "control_change"}, {"time": 531, "annotation": {"number": 64, "value": 0}, "group": "control_change"}, {"time": 546, "annotation": {"number": 64, "value": 71}, "group": "control_change"}, {"time": 550, "annotation": {"number": 64, "value": 127}, "group": "control_change"}, {"time": 576, "annotation": {"number": 64, "value": 0}, "group": "control_change"}, {"time": 593, "annotation": {"number": 64, "value": 71}, "group": "control_change"}, {"time": 596, "annotation": {"number": 64, "value": 127}, "group": "control_change"}, {"time": 628, "annotation": {"number": 64, "value": 71}, "group": "control_change"}, {"time": 629, "annotation": {"number": 64, "value": 0}, "group": "control_change"}, {"time": 642, "annotation": {"number": 64, "value": 71}, "group": "control_change"}, {"time": 644, "annotation": {"number": 64, "value": 127}, "group": "control_change"}, {"time": 675, "annotation": {"number": 64, "value": 71}, "group": "control_change"}, {"time": 676, "annotation": {"number": 64, "value": 0}, "group": "control_change"}, {"time": 689, "annotation": {"number": 64, "value": 71}, "group": "control_change"}, {"time": 692, "annotation": {"number": 64, "value": 127}, "group": "control_change"}, {"time": 699, "annotation": {"number": 64, "value": 71}, "group": "control_change"}, {"time": 700, "annotation": {"number": 64, "value": 71}, "group": "control_change"}, {"time": 700, "annotation": {"number": 64, "value": 127}, "group": "control_change"}, {"time": 701, "annotation": {"number": 64, "value": 127}, "group": "control_change"}, {"time": 710, "annotation": {"number": 64, "value": 71}, "group": "control_change"}, {"time": 711, "annotation": {"number": 64, "value": 0}, "group": "control_change"}, {"time": 722, "annotation": {"number": 64, "value": 71}, "group": "control_change"}, {"time": 723, "annotation": {"number": 64, "value": 0}, "group": "control_change"}, {"time": 738, "annotation": {"number": 64, "value": 71}, "group": "control_change"}, {"time": 742, "annotation": {"number": 64, "value": 127}, "group": "control_change"}, {"time": 768, "annotation": {"number": 64, "value": 0}, "group": "control_change"}, {"time": 785, "annotation": {"number": 64, "value": 71}, "group": "control_change"}, {"time": 788, "annotation": {"number": 64, "value": 127}, "group": "control_change"}, {"time": 820, "annotation": {"number": 64, "value": 71}, "group": "control_change"}, {"time": 821, "annotation": {"number": 64, "value": 0}, "group": "control_change"}, {"time": 834, "annotation": {"number": 64, "value": 71}, "group": "control_change"}, {"time": 836, "annotation": {"number": 64, "value": 127}, "group": "control_change"}, {"time": 867, "annotation": {"number": 64, "value": 71}, "group": "control_change"}, {"time": 868, "annotation": {"number": 64, "value": 0}, "group": "control_change"}, {"time": 881, "annotation": {"number": 64, "value": 71}, "group": "control_change"}, {"time": 884, "annotation": {"number": 64, "value": 127}, "group": "control_change"}, {"time": 891, "annotation": {"number": 64, "value": 71}, "group": "control_change"}, {"time": 892, "annotation": {"number": 64, "value": 71}, "group": "control_change"}, {"time": 892, "annotation": {"number": 64, "value": 127}, "group": "control_change"}, {"time": 893, "annotation": {"number": 64, "value": 127}, "group": "control_change"}, {"time": 902, "annotation": {"number": 64, "value": 71}, "group": "control_change"}, {"time": 903, "annotation": {"number": 64, "value": 0}, "group": "control_change"}, {"time": 914, "annotation": {"number": 64, "value": 71}, "group": "control_change"}, {"time": 915, "annotation": {"number": 64, "value": 0}, "group": "control_change"}, {"time": 930, "annotation": {"number": 64, "value": 71}, "group": "control_change"}, {"time": 934, "annotation": {"number": 64, "value": 127}, "group": "control_change"}, {"time": 960, "annotation": {"number": 64, "value": 0}, "group": "control_change"}, {"time": 976, "annotation": {"number": 64, "value": 71}, "group": "control_change"}, {"time": 979, "annotation": {"number": 64, "value": 127}, "group": "control_change"}, {"time": 1010, "annotation": {"number": 64, "value": 71}, "group": "control_change"}, {"time": 1011, "annotation": {"number": 64, "value": 0}, "group": "control_change"}, {"time": 1030, "annotation": {"number": 64, "value": 71}, "group": "control_change"}, {"time": 1032, "annotation": {"number": 64, "value": 127}, "group": "control_change"}, {"time": 1058, "annotation": {"number": 64, "value": 71}, "group": "control_change"}, {"time": 1058, "annotation": {"number": 64, "value": 0}, "group": "control_change"}, {"time": 1063, "annotation": {"number": 64, "value": 124}, "group": "control_change"}, {"time": 1083, "annotation": {"number": 64, "value": 0}, "group": "control_change"}, {"time": 1086, "annotation": {"number": 64, "value": 127}, "group": "control_change"}, {"time": 1097, "annotation": {"number": 64, "value": 71}, "group": "control_change"}, {"time": 1098, "annotation": {"number": 64, "value": 127}, "group": "control_change"}, {"time": 1105, "annotation": {"number": 64, "value": 71}, "group": "control_change"}, {"time": 1106, "annotation": {"number": 64, "value": 0}, "group": "control_change"}, {"time": 1106, "annotation": {"number": 64, "value": 71}, "group": "control_change"}, {"time": 1107, "annotation": {"number": 64, "value": 0}, "group": "control_change"}, {"time": 1121, "annotation": {"number": 64, "value": 71}, "group": "control_change"}, {"time": 1122, "annotation": {"number": 64, "value": 127}, "group": "control_change"}, {"time": 1155, "annotation": {"number": 64, "value": 71}, "group": "control_change"}, {"time": 1156, "annotation": {"number": 64, "value": 0}, "group": "control_change"}, {"time": 1176, "annotation": {"number": 64, "value": 71}, "group": "control_change"}, {"time": 1178, "annotation": {"number": 64, "value": 127}, "group": "control_change"}, {"time": 1191, "annotation": {"number": 64, "value": 71}, "group": "control_change"}, {"time": 1192, "annotation": {"number": 64, "value": 0}, "group": "control_change"}, {"time": 1217, "annotation": {"number": 64, "value": 71}, "group": "control_change"}, {"time": 1220, "annotation": {"number": 64, "value": 127}, "group": "control_change"}, {"time": 1252, "annotation": {"number": 64, "value": 71}, "group": "control_change"}, {"time": 1253, "annotation": {"number": 64, "value": 0}, "group": "control_change"}, {"time": 1266, "annotation": {"number": 64, "value": 71}, "group": "control_change"}, {"time": 1268, "annotation": {"number": 64, "value": 127}, "group": "control_change"}, {"time": 1299, "annotation": {"number": 64, "value": 71}, "group": "control_change"}, {"time": 1300, "annotation": {"number": 64, "value": 0}, "group": "control_change"}, {"time": 1313, "annotation": {"number": 64, "value": 71}, "group": "control_change"}, {"time": 1316, "annotation": {"number": 64, "value": 127}, "group": "control_change"}, {"time": 1323, "annotation": {"number": 64, "value": 71}, "group": "control_change"}, {"time": 1324, "annotation": {"number": 64, "value": 71}, "group": "control_change"}, {"time": 1324, "annotation": {"number": 64, "value": 127}, "group": "control_change"}, {"time": 1325, "annotation": {"number": 64, "value": 127}, "group": "control_change"}, {"time": 1334, "annotation": {"number": 64, "value": 71}, "group": "control_change"}, {"time": 1335, "annotation": {"number": 64, "value": 0}, "group": "control_change"}, {"time": 1346, "annotation": {"number": 64, "value": 71}, "group": "control_change"}, {"time": 1347, "annotation": {"number": 64, "value": 0}, "group": "control_change"}, {"time": 1362, "annotation": {"number": 64, "value": 71}, "group": "control_change"}, {"time": 1366, "annotation": {"number": 64, "value": 127}, "group": "control_change"}, {"time": 1392, "annotation": {"number": 64, "value": 0}, "group": "control_change"}, {"time": 1409, "annotation": {"number": 64, "value": 71}, "group": "control_change"}, {"time": 1412, "annotation": {"number": 64, "value": 127}, "group": "control_change"}, {"time": 1444, "annotation": {"number": 64, "value": 71}, "group": "control_change"}, {"time": 1445, "annotation": {"number": 64, "value": 0}, "group": "control_change"}, {"time": 1458, "annotation": {"number": 64, "value": 71}, "group": "control_change"}, {"time": 1460, "annotation": {"number": 64, "value": 127}, "group": "control_change"}, {"time": 1491, "annotation": {"number": 64, "value": 71}, "group": "control_change"}, {"time": 1492, "annotation": {"number": 64, "value": 0}, "group": "control_change"}, {"time": 1505, "annotation": {"number": 64, "value": 71}, "group": "control_change"}, {"time": 1508, "annotation": {"number": 64, "value": 127}, "group": "control_change"}, {"time": 1515, "annotation": {"number": 64, "value": 71}, "group": "control_change"}, {"time": 1516, "annotation": {"number": 64, "value": 71}, "group": "control_change"}, {"time": 1516, "annotation": {"number": 64, "value": 127}, "group": "control_change"}, {"time": 1517, "annotation": {"number": 64, "value": 127}, "group": "control_change"}, {"time": 1526, "annotation": {"number": 64, "value": 71}, "group": "control_change"}, {"time": 1527, "annotation": {"number": 64, "value": 0}, "group": "control_change"}, {"time": 1538, "annotation": {"number": 64, "value": 71}, "group": "control_change"}, {"time": 1539, "annotation": {"number": 64, "value": 0}, "group": "control_change"}, {"time": 1554, "annotation": {"number": 64, "value": 71}, "group": "control_change"}, {"time": 1558, "annotation": {"number": 64, "value": 127}, "group": "control_change"}, {"time": 1584, "annotation": {"number": 64, "value": 0}, "group": "control_change"}, {"time": 1601, "annotation": {"number": 64, "value": 71}, "group": "control_change"}, {"time": 1604, "annotation": {"number": 64, "value": 127}, "group": "control_change"}, {"time": 1636, "annotation": {"number": 64, "value": 71}, "group": "control_change"}, {"time": 1637, "annotation": {"number": 64, "value": 0}, "group": "control_change"}, {"time": 1650, "annotation": {"number": 64, "value": 71}, "group": "control_change"}, {"time": 1652, "annotation": {"number": 64, "value": 127}, "group": "control_change"}, {"time": 1683, "annotation": {"number": 64, "value": 71}, "group": "control_change"}, {"time": 1684, "annotation": {"number": 64, "value": 0}, "group": "control_change"}, {"time": 1697, "annotation": {"number": 64, "value": 71}, "group": "control_change"}, {"time": 1700, "annotation": {"number": 64, "value": 127}, "group": "control_change"}, {"time": 1707, "annotation": {"number": 64, "value": 71}, "group": "control_change"}, {"time": 1708, "annotation": {"number": 64, "value": 71}, "group": "control_change"}, {"time": 1708, "annotation": {"number": 64, "value": 127}, "group": "control_change"}, {"time": 1709, "annotation": {"number": 64, "value": 127}, "group": "control_change"}, {"time": 1718, "annotation": {"number": 64, "value": 71}, "group": "control_change"}, {"time": 1719, "annotation": {"number": 64, "value": 0}, "group": "control_change"}, {"time": 1730, "annotation": {"number": 64, "value": 71}, "group": "control_change"}, {"time": 1731, "annotation": {"number": 64, "value": 0}, "group": "control_change"}, {"time": 1746, "annotation": {"number": 64, "value": 71}, "group": "control_change"}, {"time": 1750, "annotation": {"number": 64, "value": 127}, "group": "control_change"}, {"time": 1776, "annotation": {"number": 64, "value": 0}, "group": "control_change"}, {"time": 1792, "annotation": {"number": 64, "value": 71}, "group": "control_change"}, {"time": 1795, "annotation": {"number": 64, "value": 127}, "group": "control_change"}, {"time": 1826, "annotation": {"number": 64, "value": 71}, "group": "control_change"}, {"time": 1827, "annotation": {"number": 64, "value": 0}, "group": "control_change"}, {"time": 1846, "annotation": {"number": 64, "value": 71}, "group": "control_change"}, {"time": 1848, "annotation": {"number": 64, "value": 127}, "group": "control_change"}, {"time": 1874, "annotation": {"number": 64, "value": 71}, "group": "control_change"}, {"time": 1874, "annotation": {"number": 64, "value": 0}, "group": "control_change"}, {"time": 1897, "annotation": {"number": 64, "value": 71}, "group": "control_change"}, {"time": 1899, "annotation": {"number": 64, "value": 127}, "group": "control_change"}, {"time": 1913, "annotation": {"number": 64, "value": 71}, "group": "control_change"}, {"time": 1914, "annotation": {"number": 64, "value": 127}, "group": "control_change"}, {"time": 1921, "annotation": {"number": 64, "value": 71}, "group": "control_change"}, {"time": 1922, "annotation": {"number": 64, "value": 0}, "group": "control_change"}, {"time": 1922, "annotation": {"number": 64, "value": 71}, "group": "control_change"}, {"time": 1923, "annotation": {"number": 64, "value": 0}, "group": "control_change"}, {"time": 1937, "annotation": {"number": 64, "value": 71}, "group": "control_change"}, {"time": 1938, "annotation": {"number": 64, "value": 127}, "group": "control_change"}, {"time": 1971, "annotation": {"number": 64, "value": 71}, "group": "control_change"}, {"time": 1972, "annotation": {"number": 64, "value": 0}, "group": "control_change"}, {"time": 1992, "annotation": {"number": 64, "value": 71}, "group": "control_change"}, {"time": 1994, "annotation": {"number": 64, "value": 127}, "group": "control_change"}, {"time": 2007, "annotation": {"number": 64, "value": 71}, "group": "control_change"}, {"time": 2008, "annotation": {"number": 64, "value": 0}, "group": "control_change"}, {"time": 2016, "annotation": {"number": 64, "value": 0}, "group": "control_change"}, {"time": 2033, "annotation": {"number": 64, "value": 71}, "group": "control_change"}, {"time": 2036, "annotation": {"number": 64, "value": 127}, "group": "control_change"}, {"time": 2068, "annotation": {"number": 64, "value": 71}, "group": "control_change"}, {"time": 2069, "annotation": {"number": 64, "value": 0}, "group": "control_change"}, {"time": 2082, "annotation": {"number": 64, "value": 71}, "group": "control_change"}, {"time": 2084, "annotation": {"number": 64, "value": 127}, "group": "control_change"}, {"time": 2115, "annotation": {"number": 64, "value": 71}, "group": "control_change"}, {"time": 2116, "annotation": {"number": 64, "value": 0}, "group": "control_change"}, {"time": 2129, "annotation": {"number": 64, "value": 71}, "group": "control_change"}, {"time": 2132, "annotation": {"number": 64, "value": 127}, "group": "control_change"}, {"time": 2139, "annotation": {"number": 64, "value": 71}, "group": "control_change"}, {"time": 2140, "annotation": {"number": 64, "value": 71}, "group": "control_change"}, {"time": 2140, "annotation": {"number": 64, "value": 127}, "group": "control_change"}, {"time": 2141, "annotation": {"number": 64, "value": 127}, "group": "control_change"}, {"time": 2150, "annotation": {"number": 64, "value": 71}, "group": "control_change"}, {"time": 2151, "annotation": {"number": 64, "value": 0}, "group": "control_change"}, {"time": 2162, "annotation": {"number": 64, "value": 71}, "group": "control_change"}, {"time": 2163, "annotation": {"number": 64, "value": 0}, "group": "control_change"}, {"time": 2178, "annotation": {"number": 64, "value": 71}, "group": "control_change"}, {"time": 2182, "annotation": {"number": 64, "value": 127}, "group": "control_change"}, {"time": 2208, "annotation": {"number": 64, "value": 0}, "group": "control_change"}, {"time": 2224, "annotation": {"number": 64, "value": 71}, "group": "control_change"}, {"time": 2227, "annotation": {"number": 64, "value": 127}, "group": "control_change"}, {"time": 2258, "annotation": {"number": 64, "value": 71}, "group": "control_change"}, {"time": 2259, "annotation": {"number": 64, "value": 0}, "group": "control_change"}, {"time": 2278, "annotation": {"number": 64, "value": 71}, "group": "control_change"}, {"time": 2280, "annotation": {"number": 64, "value": 127}, "group": "control_change"}, {"time": 2306, "annotation": {"number": 64, "value": 71}, "group": "control_change"}, {"time": 2306, "annotation": {"number": 64, "value": 0}, "group": "control_change"}, {"time": 2329, "annotation": {"number": 64, "value": 71}, "group": "control_change"}, {"time": 2331, "annotation": {"number": 64, "value": 127}, "group": "control_change"}, {"time": 2345, "annotation": {"number": 64, "value": 71}, "group": "control_change"}, {"time": 2346, "annotation": {"number": 64, "value": 127}, "group": "control_change"}, {"time": 2353, "annotation": {"number": 64, "value": 71}, "group": "control_change"}, {"time": 2354, "annotation": {"number": 64, "value": 0}, "group": "control_change"}, {"time": 2354, "annotation": {"number": 64, "value": 71}, "group": "control_change"}, {"time": 2355, "annotation": {"number": 64, "value": 0}, "group": "control_change"}, {"time": 2369, "annotation": {"number": 64, "value": 71}, "group": "control_change"}, {"time": 2370, "annotation": {"number": 64, "value": 127}, "group": "control_change"}, {"time": 2403, "annotation": {"number": 64, "value": 71}, "group": "control_change"}, {"time": 2404, "annotation": {"number": 64, "value": 0}, "group": "control_change"}, {"time": 2424, "annotation": {"number": 64, "value": 71}, "group": "control_change"}, {"time": 2426, "annotation": {"number": 64, "value": 127}, "group": "control_change"}, {"time": 2439, "annotation": {"number": 64, "value": 71}, "group": "control_change"}, {"time": 2440, "annotation": {"number": 64, "value": 0}, "group": "control_change"}, {"time": 2465, "annotation": {"number": 64, "value": 71}, "group": "control_change"}, {"time": 2468, "annotation": {"number": 64, "value": 127}, "group": "control_change"}, {"time": 2500, "annotation": {"number": 64, "value": 71}, "group": "control_change"}, {"time": 2501, "annotation": {"number": 64, "value": 0}, "group": "control_change"}, {"time": 2514, "annotation": {"number": 64, "value": 71}, "group": "control_change"}, {"time": 2516, "annotation": {"number": 64, "value": 127}, "group": "control_change"}, {"time": 2547, "annotation": {"number": 64, "value": 71}, "group": "control_change"}, {"time": 2548, "annotation": {"number": 64, "value": 0}, "group": "control_change"}, {"time": 2561, "annotation": {"number": 64, "value": 71}, "group": "control_change"}, {"time": 2564, "annotation": {"number": 64, "value": 127}, "group": "control_change"}, {"time": 2571, "annotation": {"number": 64, "value": 71}, "group": "control_change"}, {"time": 2572, "annotation": {"number": 64, "value": 71}, "group": "control_change"}, {"time": 2572, "annotation": {"number": 64, "value": 127}, "group": "control_change"}, {"time": 2573, "annotation": {"number": 64, "value": 127}, "group": "control_change"}, {"time": 2582, "annotation": {"number": 64, "value": 71}, "group": "control_change"}, {"time": 2583, "annotation": {"number": 64, "value": 0}, "group": "control_change"}, {"time": 2594, "annotation": {"number": 64, "value": 71}, "group": "control_change"}, {"time": 2595, "annotation": {"number": 64, "value": 0}, "group": "control_change"}, {"time": 2610, "annotation": {"number": 64, "value": 71}, "group": "control_change"}, {"time": 2614, "annotation": {"number": 64, "value": 127}, "group": "control_change"}, {"time": 2640, "annotation": {"number": 64, "value": 0}, "group": "control_change"}, {"time": 2657, "annotation": {"number": 64, "value": 71}, "group": "control_change"}, {"time": 2660, "annotation": {"number": 64, "value": 127}, "group": "control_change"}, {"time": 2692, "annotation": {"number": 64, "value": 71}, "group": "control_change"}, {"time": 2693, "annotation": {"number": 64, "value": 0}, "group": "control_change"}, {"time": 2706, "annotation": {"number": 64, "value": 71}, "group": "control_change"}, {"time": 2708, "annotation": {"number": 64, "value": 127}, "group": "control_change"}, {"time": 2739, "annotation": {"number": 64, "value": 71}, "group": "control_change"}, {"time": 2740, "annotation": {"number": 64, "value": 0}, "group": "control_change"}, {"time": 2753, "annotation": {"number": 64, "value": 71}, "group": "control_change"}, {"time": 2756, "annotation": {"number": 64, "value": 127}, "group": "control_change"}, {"time": 2763, "annotation": {"number": 64, "value": 71}, "group": "control_change"}, {"time": 2764, "annotation": {"number": 64, "value": 71}, "group": "control_change"}, {"time": 2764, "annotation": {"number": 64, "value": 127}, "group": "control_change"}, {"time": 2765, "annotation": {"number": 64, "value": 127}, "group": "control_change"}, {"time": 2774, "annotation": {"number": 64, "value": 71}, "group": "control_change"}, {"time": 2775, "annotation": {"number": 64, "value": 0}, "group": "control_change"}, {"time": 2786, "annotation": {"number": 64, "value": 71}, "group": "control_change"}, {"time": 2787, "annotation": {"number": 64, "value": 0}, "group": "control_change"}, {"time": 2802, "annotation": {"number": 64, "value": 71}, "group": "control_change"}, {"time": 2806, "annotation": {"number": 64, "value": 127}, "group": "control_change"}, {"time": 2832, "annotation": {"number": 64, "value": 0}, "group": "control_change"}, {"time": 2849, "annotation": {"number": 64, "value": 71}, "group": "control_change"}, {"time": 2852, "annotation": {"number": 64, "value": 127}, "group": "control_change"}, {"time": 2884, "annotation": {"number": 64, "value": 71}, "group": "control_change"}, {"time": 2885, "annotation": {"number": 64, "value": 0}, "group": "control_change"}, {"time": 2898, "annotation": {"number": 64, "value": 71}, "group": "control_change"}, {"time": 2900, "annotation": {"number": 64, "value": 127}, "group": "control_change"}, {"time": 2931, "annotation": {"number": 64, "value": 71}, "group": "control_change"}, {"time": 2932, "annotation": {"number": 64, "value": 0}, "group": "control_change"}, {"time": 2945, "annotation": {"number": 64, "value": 71}, "group": "control_change"}, {"time": 2948, "annotation": {"number": 64, "value": 127}, "group": "control_change"}, {"time": 2955, "annotation": {"number": 64, "value": 71}, "group": "control_change"}, {"time": 2956, "annotation": {"number": 64, "value": 71}, "group": "control_change"}, {"time": 2956, "annotation": {"number": 64, "value": 127}, "group": "control_change"}, {"time": 2957, "annotation": {"number": 64, "value": 127}, "group": "control_change"}, {"time": 2966, "annotation": {"number": 64, "value": 71}, "group": "control_change"}, {"time": 2967, "annotation": {"number": 64, "value": 0}, "group": "control_change"}, {"time": 2978, "annotation": {"number": 64, "value": 71}, "group": "control_change"}, {"time": 2979, "annotation": {"number": 64, "value": 0}, "group": "control_change"}, {"time": 2994, "annotation": {"number": 64, "value": 71}, "group": "control_change"}, {"time": 2998, "annotation": {"number": 64, "value": 127}, "group": "control_change"}, {"time": 3024, "annotation": {"number": 64, "value": 0}, "group": "control_change"}, {"time": 3040, "annotation": {"number": 64, "value": 71}, "group": "control_change"}, {"time": 3043, "annotation": {"number": 64, "value": 127}, "group": "control_change"}, {"time": 3074, "annotation": {"number": 64, "value": 71}, "group": "control_change"}, {"time": 3075, "annotation": {"number": 64, "value": 0}, "group": "control_change"}, {"time": 3094, "annotation": {"number": 64, "value": 71}, "group": "control_change"}, {"time": 3096, "annotation": {"number": 64, "value": 127}, "group": "control_change"}, {"time": 3122, "annotation": {"number": 64, "value": 71}, "group": "control_change"}, {"time": 3122, "annotation": {"number": 64, "value": 0}, "group": "control_change"}, {"time": 3145, "annotation": {"number": 64, "value": 71}, "group": "control_change"}, {"time": 3147, "annotation": {"number": 64, "value": 127}, "group": "control_change"}, {"time": 3161, "annotation": {"number": 64, "value": 71}, "group": "control_change"}, {"time": 3162, "annotation": {"number": 64, "value": 127}, "group": "control_change"}, {"time": 3169, "annotation": {"number": 64, "value": 71}, "group": "control_change"}, {"time": 3170, "annotation": {"number": 64, "value": 0}, "group": "control_change"}, {"time": 3170, "annotation": {"number": 64, "value": 71}, "group": "control_change"}, {"time": 3171, "annotation": {"number": 64, "value": 0}, "group": "control_change"}, {"time": 3185, "annotation": {"number": 64, "value": 71}, "group": "control_change"}, {"time": 3186, "annotation": {"number": 64, "value": 127}, "group": "control_change"}, {"time": 3219, "annotation": {"number": 64, "value": 71}, "group": "control_change"}, {"time": 3220, "annotation": {"number": 64, "value": 0}, "group": "control_change"}, {"time": 3240, "annotation": {"number": 64, "value": 71}, "group": "control_change"}, {"time": 3242, "annotation": {"number": 64, "value": 127}, "group": "control_change"}, {"time": 3255, "annotation": {"number": 64, "value": 71}, "group": "control_change"}, {"time": 3256, "annotation": {"number": 64, "value": 0}, "group": "control_change"}, {"time": 3282, "annotation": {"number": 64, "value": 71}, "group": "control_change"}, {"time": 3283, "annotation": {"number": 64, "value": 127}, "group": "control_change"}, {"time": 3294, "annotation": {"number": 64, "value": 71}, "group": "control_change"}, {"time": 3294, "annotation": {"number": 64, "value": 0}, "group": "control_change"}, {"time": 3312, "annotation": {"number": 64, "value": 71}, "group": "control_change"}, {"time": 3312, "annotation": {"number": 64, "value": 127}, "group": "control_change"}, {"time": 3325, "annotation": {"number": 64, "value": 71}, "group": "control_change"}, {"time": 3327, "annotation": {"number": 64, "value": 0}, "group": "control_change"}, {"time": 3350, "annotation": {"number": 64, "value": 71}, "group": "control_change"}, {"time": 3351, "annotation": {"number": 64, "value": 127}, "group": "control_change"}, {"time": 3399, "annotation": {"number": 64, "value": 71}, "group": "control_change"}, {"time": 3399, "annotation": {"number": 64, "value": 0}, "group": "control_change"}]}]}