{"metadata": {"schema_version": "0.2", "title": "None", "source_filename": "321.mid", "source_format": "midi"}, "resolution": 12, "tempos": [{"time": 0, "qpm": 66.000066000066}], "time_signatures": [{"time": 0, "numerator": 4, "denominator": 4}], "tracks": [{"program": 0, "is_drum": false, "name": "MELODY", "notes": [{"time": 237, "pitch": 67, "duration": 6, "velocity": 116}, {"time": 243, "pitch": 69, "duration": 6, "velocity": 114}, {"time": 249, "pitch": 72, "duration": 6, "velocity": 117}, {"time": 255, "pitch": 72, "duration": 6, "velocity": 116}, {"time": 261, "pitch": 72, "duration": 6, "velocity": 117}, {"time": 267, "pitch": 74, "duration": 6, "velocity": 114}, {"time": 273, "pitch": 76, "duration": 18, "velocity": 117}, {"time": 291, "pitch": 76, "duration": 3, "velocity": 108}, {"time": 294, "pitch": 79, "duration": 3, "velocity": 104}, {"time": 297, "pitch": 81, "duration": 6, "velocity": 116}, {"time": 303, "pitch": 81, "duration": 6, "velocity": 114}, {"time": 309, "pitch": 84, "duration": 6, "velocity": 110}, {"time": 315, "pitch": 81, "duration": 6, "velocity": 104}, {"time": 321, "pitch": 79, "duration": 6, "velocity": 114}, {"time": 327, "pitch": 76, "duration": 12, "velocity": 116}, {"time": 339, "pitch": 76, "duration": 6, "velocity": 108}, {"time": 345, "pitch": 74, "duration": 12, "velocity": 113}, {"time": 357, "pitch": 74, "duration": 3, "velocity": 110}, {"time": 360, "pitch": 72, "duration": 3, "velocity": 96}, {"time": 363, "pitch": 69, "duration": 3, "velocity": 110}, {"time": 366, "pitch": 67, "duration": 6, "velocity": 107}, {"time": 372, "pitch": 69, "duration": 15, "velocity": 110}, {"time": 387, "pitch": 67, "duration": 6, "velocity": 110}, {"time": 393, "pitch": 72, "duration": 6, "velocity": 114}, {"time": 399, "pitch": 72, "duration": 6, "velocity": 110}, {"time": 405, "pitch": 72, "duration": 6, "velocity": 107}, {"time": 411, "pitch": 72, "duration": 6, "velocity": 108}, {"time": 417, "pitch": 74, "duration": 18, "velocity": 113}, {"time": 435, "pitch": 67, "duration": 3, "velocity": 107}, {"time": 438, "pitch": 69, "duration": 3, "velocity": 102}, {"time": 441, "pitch": 72, "duration": 6, "velocity": 116}, {"time": 447, "pitch": 72, "duration": 6, "velocity": 110}, {"time": 453, "pitch": 72, "duration": 6, "velocity": 110}, {"time": 459, "pitch": 74, "duration": 6, "velocity": 110}, {"time": 465, "pitch": 76, "duration": 18, "velocity": 114}, {"time": 483, "pitch": 76, "duration": 3, "velocity": 110}, {"time": 486, "pitch": 79, "duration": 3, "velocity": 108}, {"time": 489, "pitch": 81, "duration": 6, "velocity": 116}, {"time": 495, "pitch": 81, "duration": 6, "velocity": 114}, {"time": 501, "pitch": 83, "duration": 6, "velocity": 108}, {"time": 507, "pitch": 81, "duration": 6, "velocity": 114}, {"time": 513, "pitch": 79, "duration": 6, "velocity": 117}, {"time": 519, "pitch": 76, "duration": 12, "velocity": 116}, {"time": 531, "pitch": 76, "duration": 6, "velocity": 113}, {"time": 537, "pitch": 74, "duration": 12, "velocity": 114}, {"time": 549, "pitch": 74, "duration": 3, "velocity": 114}, {"time": 552, "pitch": 72, "duration": 3, "velocity": 108}, {"time": 555, "pitch": 69, "duration": 3, "velocity": 110}, {"time": 558, "pitch": 67, "duration": 6, "velocity": 107}, {"time": 564, "pitch": 69, "duration": 15, "velocity": 110}, {"time": 579, "pitch": 72, "duration": 6, "velocity": 108}, {"time": 585, "pitch": 71, "duration": 12, "velocity": 114}, {"time": 597, "pitch": 69, "duration": 6, "velocity": 114}, {"time": 603, "pitch": 67, "duration": 6, "velocity": 108}, {"time": 609, "pitch": 69, "duration": 12, "velocity": 114}, {"time": 621, "pitch": 72, "duration": 6, "velocity": 116}, {"time": 627, "pitch": 74, "duration": 6, "velocity": 117}, {"time": 633, "pitch": 76, "duration": 6, "velocity": 117}, {"time": 639, "pitch": 79, "duration": 6, "velocity": 113}, {"time": 645, "pitch": 76, "duration": 3, "velocity": 113}, {"time": 648, "pitch": 74, "duration": 3, "velocity": 100}, {"time": 651, "pitch": 72, "duration": 3, "velocity": 107}, {"time": 654, "pitch": 74, "duration": 3, "velocity": 104}, {"time": 657, "pitch": 76, "duration": 6, "velocity": 116}, {"time": 663, "pitch": 81, "duration": 6, "velocity": 110}, {"time": 669, "pitch": 76, "duration": 3, "velocity": 113}, {"time": 672, "pitch": 74, "duration": 3, "velocity": 93}, {"time": 675, "pitch": 72, "duration": 3, "velocity": 93}, {"time": 678, "pitch": 74, "duration": 3, "velocity": 107}, {"time": 681, "pitch": 76, "duration": 6, "velocity": 114}, {"time": 687, "pitch": 83, "duration": 6, "velocity": 113}, {"time": 693, "pitch": 83, "duration": 6, "velocity": 113}, {"time": 699, "pitch": 79, "duration": 6, "velocity": 116}, {"time": 705, "pitch": 81, "duration": 12, "velocity": 117}, {"time": 717, "pitch": 81, "duration": 6, "velocity": 114}, {"time": 723, "pitch": 79, "duration": 6, "velocity": 116}, {"time": 729, "pitch": 81, "duration": 6, "velocity": 116}, {"time": 735, "pitch": 79, "duration": 6, "velocity": 117}, {"time": 741, "pitch": 81, "duration": 3, "velocity": 113}, {"time": 744, "pitch": 79, "duration": 3, "velocity": 104}, {"time": 747, "pitch": 76, "duration": 3, "velocity": 110}, {"time": 750, "pitch": 74, "duration": 3, "velocity": 108}, {"time": 753, "pitch": 76, "duration": 6, "velocity": 113}, {"time": 759, "pitch": 79, "duration": 6, "velocity": 107}, {"time": 765, "pitch": 76, "duration": 6, "velocity": 110}, {"time": 771, "pitch": 76, "duration": 6, "velocity": 108}, {"time": 777, "pitch": 74, "duration": 12, "velocity": 110}, {"time": 789, "pitch": 72, "duration": 6, "velocity": 110}, {"time": 795, "pitch": 74, "duration": 6, "velocity": 113}, {"time": 801, "pitch": 76, "duration": 12, "velocity": 114}, {"time": 813, "pitch": 72, "duration": 6, "velocity": 110}, {"time": 819, "pitch": 74, "duration": 6, "velocity": 110}, {"time": 825, "pitch": 76, "duration": 6, "velocity": 116}, {"time": 831, "pitch": 79, "duration": 6, "velocity": 114}, {"time": 837, "pitch": 76, "duration": 3, "velocity": 114}, {"time": 840, "pitch": 74, "duration": 3, "velocity": 102}, {"time": 843, "pitch": 72, "duration": 3, "velocity": 108}, {"time": 846, "pitch": 74, "duration": 3, "velocity": 104}, {"time": 849, "pitch": 76, "duration": 6, "velocity": 114}, {"time": 855, "pitch": 81, "duration": 6, "velocity": 116}, {"time": 861, "pitch": 76, "duration": 3, "velocity": 113}, {"time": 864, "pitch": 74, "duration": 3, "velocity": 87}, {"time": 867, "pitch": 72, "duration": 3, "velocity": 107}, {"time": 870, "pitch": 74, "duration": 3, "velocity": 96}, {"time": 873, "pitch": 76, "duration": 6, "velocity": 107}, {"time": 879, "pitch": 83, "duration": 6, "velocity": 114}, {"time": 885, "pitch": 83, "duration": 6, "velocity": 110}, {"time": 891, "pitch": 79, "duration": 6, "velocity": 116}, {"time": 897, "pitch": 81, "duration": 12, "velocity": 119}, {"time": 909, "pitch": 81, "duration": 6, "velocity": 116}, {"time": 915, "pitch": 79, "duration": 6, "velocity": 117}, {"time": 921, "pitch": 81, "duration": 18, "velocity": 119}, {"time": 939, "pitch": 79, "duration": 6, "velocity": 116}, {"time": 945, "pitch": 81, "duration": 6, "velocity": 116}, {"time": 951, "pitch": 84, "duration": 12, "velocity": 114}, {"time": 963, "pitch": 81, "duration": 6, "velocity": 110}, {"time": 969, "pitch": 76, "duration": 9, "velocity": 117}, {"time": 978, "pitch": 79, "duration": 33, "velocity": 117}, {"time": 1011, "pitch": 67, "duration": 3, "velocity": 104}, {"time": 1014, "pitch": 69, "duration": 3, "velocity": 107}, {"time": 1017, "pitch": 72, "duration": 6, "velocity": 113}, {"time": 1023, "pitch": 72, "duration": 6, "velocity": 107}, {"time": 1029, "pitch": 72, "duration": 6, "velocity": 110}, {"time": 1035, "pitch": 74, "duration": 6, "velocity": 113}, {"time": 1041, "pitch": 76, "duration": 18, "velocity": 114}, {"time": 1059, "pitch": 76, "duration": 3, "velocity": 114}, {"time": 1062, "pitch": 79, "duration": 3, "velocity": 102}, {"time": 1065, "pitch": 81, "duration": 6, "velocity": 114}, {"time": 1071, "pitch": 81, "duration": 6, "velocity": 116}, {"time": 1077, "pitch": 83, "duration": 6, "velocity": 114}, {"time": 1083, "pitch": 81, "duration": 6, "velocity": 114}, {"time": 1089, "pitch": 79, "duration": 6, "velocity": 117}, {"time": 1095, "pitch": 76, "duration": 12, "velocity": 116}, {"time": 1107, "pitch": 76, "duration": 6, "velocity": 116}, {"time": 1113, "pitch": 74, "duration": 12, "velocity": 116}, {"time": 1125, "pitch": 74, "duration": 4, "velocity": 114}, {"time": 1128, "pitch": 72, "duration": 3, "velocity": 108}, {"time": 1131, "pitch": 69, "duration": 3, "velocity": 114}, {"time": 1134, "pitch": 67, "duration": 6, "velocity": 108}, {"time": 1140, "pitch": 69, "duration": 15, "velocity": 116}, {"time": 1155, "pitch": 72, "duration": 6, "velocity": 116}, {"time": 1161, "pitch": 71, "duration": 12, "velocity": 116}, {"time": 1173, "pitch": 69, "duration": 6, "velocity": 114}, {"time": 1179, "pitch": 67, "duration": 6, "velocity": 108}, {"time": 1185, "pitch": 69, "duration": 8, "velocity": 116}, {"time": 1581, "pitch": 67, "duration": 6, "velocity": 116}, {"time": 1587, "pitch": 69, "duration": 6, "velocity": 114}, {"time": 1593, "pitch": 72, "duration": 6, "velocity": 117}, {"time": 1599, "pitch": 72, "duration": 6, "velocity": 116}, {"time": 1605, "pitch": 72, "duration": 6, "velocity": 117}, {"time": 1611, "pitch": 74, "duration": 6, "velocity": 114}, {"time": 1617, "pitch": 76, "duration": 18, "velocity": 117}, {"time": 1635, "pitch": 76, "duration": 3, "velocity": 108}, {"time": 1638, "pitch": 79, "duration": 3, "velocity": 104}, {"time": 1641, "pitch": 81, "duration": 6, "velocity": 116}, {"time": 1647, "pitch": 81, "duration": 6, "velocity": 114}, {"time": 1653, "pitch": 84, "duration": 6, "velocity": 110}, {"time": 1659, "pitch": 81, "duration": 6, "velocity": 104}, {"time": 1665, "pitch": 79, "duration": 6, "velocity": 114}, {"time": 1671, "pitch": 76, "duration": 12, "velocity": 116}, {"time": 1683, "pitch": 76, "duration": 6, "velocity": 108}, {"time": 1689, "pitch": 74, "duration": 12, "velocity": 113}, {"time": 1701, "pitch": 74, "duration": 3, "velocity": 110}, {"time": 1704, "pitch": 72, "duration": 3, "velocity": 96}, {"time": 1707, "pitch": 69, "duration": 3, "velocity": 110}, {"time": 1710, "pitch": 67, "duration": 6, "velocity": 107}, {"time": 1716, "pitch": 69, "duration": 15, "velocity": 110}, {"time": 1731, "pitch": 67, "duration": 6, "velocity": 110}, {"time": 1737, "pitch": 72, "duration": 6, "velocity": 114}, {"time": 1743, "pitch": 72, "duration": 6, "velocity": 110}, {"time": 1749, "pitch": 72, "duration": 6, "velocity": 107}, {"time": 1755, "pitch": 72, "duration": 6, "velocity": 108}, {"time": 1761, "pitch": 74, "duration": 18, "velocity": 113}, {"time": 1779, "pitch": 67, "duration": 3, "velocity": 107}, {"time": 1782, "pitch": 69, "duration": 3, "velocity": 102}, {"time": 1785, "pitch": 72, "duration": 6, "velocity": 116}, {"time": 1791, "pitch": 72, "duration": 6, "velocity": 110}, {"time": 1797, "pitch": 72, "duration": 6, "velocity": 110}, {"time": 1803, "pitch": 74, "duration": 6, "velocity": 110}, {"time": 1809, "pitch": 76, "duration": 18, "velocity": 114}, {"time": 1827, "pitch": 76, "duration": 3, "velocity": 110}, {"time": 1830, "pitch": 79, "duration": 3, "velocity": 108}, {"time": 1833, "pitch": 81, "duration": 6, "velocity": 116}, {"time": 1839, "pitch": 81, "duration": 6, "velocity": 114}, {"time": 1845, "pitch": 83, "duration": 6, "velocity": 108}, {"time": 1851, "pitch": 81, "duration": 6, "velocity": 114}, {"time": 1857, "pitch": 79, "duration": 6, "velocity": 117}, {"time": 1863, "pitch": 76, "duration": 12, "velocity": 116}, {"time": 1875, "pitch": 76, "duration": 6, "velocity": 113}, {"time": 1881, "pitch": 74, "duration": 12, "velocity": 114}, {"time": 1893, "pitch": 74, "duration": 3, "velocity": 114}, {"time": 1896, "pitch": 72, "duration": 3, "velocity": 108}, {"time": 1899, "pitch": 69, "duration": 3, "velocity": 110}, {"time": 1902, "pitch": 67, "duration": 6, "velocity": 107}, {"time": 1908, "pitch": 69, "duration": 15, "velocity": 110}, {"time": 1923, "pitch": 72, "duration": 6, "velocity": 108}, {"time": 1929, "pitch": 71, "duration": 12, "velocity": 114}, {"time": 1941, "pitch": 69, "duration": 6, "velocity": 114}, {"time": 1947, "pitch": 67, "duration": 6, "velocity": 108}, {"time": 1953, "pitch": 69, "duration": 12, "velocity": 114}, {"time": 1965, "pitch": 72, "duration": 6, "velocity": 116}, {"time": 1971, "pitch": 74, "duration": 6, "velocity": 117}, {"time": 1977, "pitch": 76, "duration": 6, "velocity": 117}, {"time": 1983, "pitch": 79, "duration": 6, "velocity": 113}, {"time": 1989, "pitch": 76, "duration": 3, "velocity": 113}, {"time": 1992, "pitch": 74, "duration": 3, "velocity": 100}, {"time": 1995, "pitch": 72, "duration": 3, "velocity": 107}, {"time": 1998, "pitch": 74, "duration": 3, "velocity": 104}, {"time": 2001, "pitch": 76, "duration": 6, "velocity": 116}, {"time": 2007, "pitch": 81, "duration": 6, "velocity": 110}, {"time": 2013, "pitch": 76, "duration": 3, "velocity": 113}, {"time": 2016, "pitch": 74, "duration": 3, "velocity": 93}, {"time": 2019, "pitch": 72, "duration": 3, "velocity": 93}, {"time": 2022, "pitch": 74, "duration": 3, "velocity": 107}, {"time": 2025, "pitch": 76, "duration": 6, "velocity": 114}, {"time": 2031, "pitch": 83, "duration": 6, "velocity": 113}, {"time": 2037, "pitch": 83, "duration": 6, "velocity": 113}, {"time": 2043, "pitch": 79, "duration": 6, "velocity": 116}, {"time": 2049, "pitch": 81, "duration": 12, "velocity": 117}, {"time": 2061, "pitch": 81, "duration": 6, "velocity": 114}, {"time": 2067, "pitch": 79, "duration": 6, "velocity": 116}, {"time": 2073, "pitch": 81, "duration": 6, "velocity": 116}, {"time": 2079, "pitch": 79, "duration": 6, "velocity": 117}, {"time": 2085, "pitch": 81, "duration": 3, "velocity": 113}, {"time": 2088, "pitch": 79, "duration": 3, "velocity": 104}, {"time": 2091, "pitch": 76, "duration": 3, "velocity": 110}, {"time": 2094, "pitch": 74, "duration": 3, "velocity": 108}, {"time": 2097, "pitch": 76, "duration": 6, "velocity": 113}, {"time": 2103, "pitch": 79, "duration": 6, "velocity": 107}, {"time": 2109, "pitch": 76, "duration": 6, "velocity": 110}, {"time": 2115, "pitch": 76, "duration": 6, "velocity": 108}, {"time": 2121, "pitch": 74, "duration": 12, "velocity": 110}, {"time": 2133, "pitch": 72, "duration": 6, "velocity": 110}, {"time": 2139, "pitch": 74, "duration": 6, "velocity": 113}, {"time": 2145, "pitch": 76, "duration": 12, "velocity": 114}, {"time": 2157, "pitch": 72, "duration": 6, "velocity": 110}, {"time": 2163, "pitch": 74, "duration": 6, "velocity": 110}, {"time": 2169, "pitch": 76, "duration": 6, "velocity": 116}, {"time": 2175, "pitch": 79, "duration": 6, "velocity": 114}, {"time": 2181, "pitch": 76, "duration": 3, "velocity": 114}, {"time": 2184, "pitch": 74, "duration": 3, "velocity": 102}, {"time": 2187, "pitch": 72, "duration": 3, "velocity": 108}, {"time": 2190, "pitch": 74, "duration": 3, "velocity": 104}, {"time": 2193, "pitch": 76, "duration": 6, "velocity": 114}, {"time": 2199, "pitch": 81, "duration": 6, "velocity": 116}, {"time": 2205, "pitch": 76, "duration": 3, "velocity": 113}, {"time": 2208, "pitch": 74, "duration": 3, "velocity": 87}, {"time": 2211, "pitch": 72, "duration": 3, "velocity": 107}, {"time": 2214, "pitch": 74, "duration": 3, "velocity": 96}, {"time": 2217, "pitch": 76, "duration": 6, "velocity": 107}, {"time": 2223, "pitch": 83, "duration": 6, "velocity": 114}, {"time": 2229, "pitch": 83, "duration": 6, "velocity": 110}, {"time": 2235, "pitch": 79, "duration": 6, "velocity": 116}, {"time": 2241, "pitch": 81, "duration": 12, "velocity": 119}, {"time": 2253, "pitch": 81, "duration": 6, "velocity": 116}, {"time": 2259, "pitch": 79, "duration": 6, "velocity": 117}, {"time": 2265, "pitch": 81, "duration": 18, "velocity": 119}, {"time": 2283, "pitch": 79, "duration": 6, "velocity": 116}, {"time": 2289, "pitch": 81, "duration": 6, "velocity": 116}, {"time": 2295, "pitch": 84, "duration": 12, "velocity": 114}, {"time": 2307, "pitch": 81, "duration": 6, "velocity": 110}, {"time": 2313, "pitch": 76, "duration": 9, "velocity": 117}, {"time": 2322, "pitch": 79, "duration": 33, "velocity": 117}, {"time": 2355, "pitch": 67, "duration": 3, "velocity": 104}, {"time": 2358, "pitch": 69, "duration": 3, "velocity": 107}, {"time": 2361, "pitch": 72, "duration": 6, "velocity": 113}, {"time": 2367, "pitch": 72, "duration": 6, "velocity": 107}, {"time": 2373, "pitch": 72, "duration": 6, "velocity": 110}, {"time": 2379, "pitch": 74, "duration": 6, "velocity": 113}, {"time": 2385, "pitch": 76, "duration": 18, "velocity": 114}, {"time": 2403, "pitch": 76, "duration": 3, "velocity": 114}, {"time": 2406, "pitch": 79, "duration": 3, "velocity": 102}, {"time": 2409, "pitch": 81, "duration": 6, "velocity": 114}, {"time": 2415, "pitch": 81, "duration": 6, "velocity": 116}, {"time": 2421, "pitch": 83, "duration": 6, "velocity": 114}, {"time": 2427, "pitch": 81, "duration": 6, "velocity": 114}, {"time": 2433, "pitch": 79, "duration": 6, "velocity": 117}, {"time": 2439, "pitch": 76, "duration": 12, "velocity": 116}, {"time": 2451, "pitch": 76, "duration": 6, "velocity": 116}, {"time": 2457, "pitch": 74, "duration": 12, "velocity": 116}, {"time": 2469, "pitch": 74, "duration": 4, "velocity": 114}, {"time": 2472, "pitch": 72, "duration": 3, "velocity": 108}, {"time": 2475, "pitch": 69, "duration": 3, "velocity": 114}, {"time": 2478, "pitch": 67, "duration": 6, "velocity": 108}, {"time": 2484, "pitch": 69, "duration": 15, "velocity": 116}, {"time": 2499, "pitch": 72, "duration": 6, "velocity": 116}, {"time": 2505, "pitch": 71, "duration": 12, "velocity": 116}, {"time": 2517, "pitch": 69, "duration": 6, "velocity": 114}, {"time": 2523, "pitch": 67, "duration": 6, "velocity": 108}, {"time": 2529, "pitch": 69, "duration": 8, "velocity": 116}, {"time": 2541, "pitch": 72, "duration": 6, "velocity": 116}, {"time": 2547, "pitch": 74, "duration": 6, "velocity": 117}, {"time": 2553, "pitch": 76, "duration": 6, "velocity": 117}, {"time": 2559, "pitch": 79, "duration": 6, "velocity": 113}, {"time": 2565, "pitch": 76, "duration": 3, "velocity": 113}, {"time": 2568, "pitch": 74, "duration": 3, "velocity": 100}, {"time": 2571, "pitch": 72, "duration": 3, "velocity": 107}, {"time": 2574, "pitch": 74, "duration": 3, "velocity": 104}, {"time": 2577, "pitch": 76, "duration": 6, "velocity": 116}, {"time": 2583, "pitch": 81, "duration": 6, "velocity": 110}, {"time": 2589, "pitch": 76, "duration": 3, "velocity": 113}, {"time": 2592, "pitch": 74, "duration": 3, "velocity": 93}, {"time": 2595, "pitch": 72, "duration": 3, "velocity": 93}, {"time": 2598, "pitch": 74, "duration": 3, "velocity": 107}, {"time": 2601, "pitch": 76, "duration": 6, "velocity": 114}, {"time": 2607, "pitch": 83, "duration": 6, "velocity": 113}, {"time": 2613, "pitch": 83, "duration": 6, "velocity": 113}, {"time": 2619, "pitch": 79, "duration": 6, "velocity": 116}, {"time": 2625, "pitch": 81, "duration": 12, "velocity": 117}, {"time": 2637, "pitch": 81, "duration": 6, "velocity": 114}, {"time": 2643, "pitch": 79, "duration": 6, "velocity": 116}, {"time": 2649, "pitch": 81, "duration": 6, "velocity": 116}, {"time": 2655, "pitch": 79, "duration": 6, "velocity": 117}, {"time": 2661, "pitch": 81, "duration": 3, "velocity": 113}, {"time": 2664, "pitch": 79, "duration": 3, "velocity": 104}, {"time": 2667, "pitch": 76, "duration": 3, "velocity": 110}, {"time": 2670, "pitch": 74, "duration": 3, "velocity": 108}, {"time": 2673, "pitch": 76, "duration": 6, "velocity": 113}, {"time": 2679, "pitch": 79, "duration": 6, "velocity": 107}, {"time": 2685, "pitch": 76, "duration": 6, "velocity": 110}, {"time": 2691, "pitch": 76, "duration": 6, "velocity": 108}, {"time": 2697, "pitch": 74, "duration": 12, "velocity": 110}, {"time": 2709, "pitch": 72, "duration": 6, "velocity": 110}, {"time": 2715, "pitch": 74, "duration": 6, "velocity": 113}, {"time": 2721, "pitch": 76, "duration": 12, "velocity": 114}, {"time": 2733, "pitch": 72, "duration": 6, "velocity": 110}, {"time": 2739, "pitch": 74, "duration": 6, "velocity": 110}, {"time": 2745, "pitch": 76, "duration": 6, "velocity": 116}, {"time": 2751, "pitch": 79, "duration": 6, "velocity": 114}, {"time": 2757, "pitch": 76, "duration": 3, "velocity": 114}, {"time": 2760, "pitch": 74, "duration": 3, "velocity": 102}, {"time": 2763, "pitch": 72, "duration": 3, "velocity": 108}, {"time": 2766, "pitch": 74, "duration": 3, "velocity": 104}, {"time": 2769, "pitch": 76, "duration": 6, "velocity": 114}, {"time": 2775, "pitch": 81, "duration": 6, "velocity": 116}, {"time": 2781, "pitch": 76, "duration": 3, "velocity": 113}, {"time": 2784, "pitch": 74, "duration": 3, "velocity": 87}, {"time": 2787, "pitch": 72, "duration": 3, "velocity": 107}, {"time": 2790, "pitch": 74, "duration": 3, "velocity": 96}, {"time": 2793, "pitch": 76, "duration": 6, "velocity": 107}, {"time": 2799, "pitch": 83, "duration": 6, "velocity": 114}, {"time": 2805, "pitch": 83, "duration": 6, "velocity": 110}, {"time": 2811, "pitch": 79, "duration": 6, "velocity": 116}, {"time": 2817, "pitch": 81, "duration": 12, "velocity": 119}, {"time": 2829, "pitch": 81, "duration": 6, "velocity": 116}, {"time": 2835, "pitch": 79, "duration": 6, "velocity": 117}, {"time": 2841, "pitch": 81, "duration": 18, "velocity": 119}, {"time": 2859, "pitch": 84, "duration": 6, "velocity": 116}, {"time": 2865, "pitch": 84, "duration": 6, "velocity": 116}, {"time": 2871, "pitch": 84, "duration": 12, "velocity": 114}, {"time": 2883, "pitch": 81, "duration": 6, "velocity": 110}, {"time": 2889, "pitch": 76, "duration": 9, "velocity": 117}, {"time": 2898, "pitch": 79, "duration": 33, "velocity": 117}, {"time": 2931, "pitch": 67, "duration": 3, "velocity": 104}, {"time": 2934, "pitch": 69, "duration": 3, "velocity": 107}, {"time": 2937, "pitch": 72, "duration": 6, "velocity": 113}, {"time": 2943, "pitch": 72, "duration": 6, "velocity": 107}, {"time": 2949, "pitch": 72, "duration": 6, "velocity": 110}, {"time": 2955, "pitch": 74, "duration": 6, "velocity": 113}, {"time": 2961, "pitch": 76, "duration": 18, "velocity": 114}, {"time": 2979, "pitch": 76, "duration": 3, "velocity": 114}, {"time": 2982, "pitch": 79, "duration": 3, "velocity": 102}, {"time": 2985, "pitch": 81, "duration": 6, "velocity": 114}, {"time": 2991, "pitch": 81, "duration": 6, "velocity": 116}, {"time": 2997, "pitch": 83, "duration": 6, "velocity": 114}, {"time": 3003, "pitch": 81, "duration": 6, "velocity": 114}, {"time": 3009, "pitch": 79, "duration": 6, "velocity": 117}, {"time": 3015, "pitch": 76, "duration": 12, "velocity": 116}, {"time": 3027, "pitch": 76, "duration": 6, "velocity": 116}, {"time": 3033, "pitch": 74, "duration": 12, "velocity": 116}, {"time": 3045, "pitch": 74, "duration": 4, "velocity": 114}, {"time": 3048, "pitch": 72, "duration": 3, "velocity": 108}, {"time": 3051, "pitch": 69, "duration": 3, "velocity": 114}, {"time": 3054, "pitch": 67, "duration": 6, "velocity": 108}, {"time": 3060, "pitch": 69, "duration": 15, "velocity": 116}, {"time": 3075, "pitch": 72, "duration": 6, "velocity": 116}, {"time": 3081, "pitch": 71, "duration": 12, "velocity": 116}, {"time": 3093, "pitch": 69, "duration": 6, "velocity": 114}, {"time": 3099, "pitch": 67, "duration": 6, "velocity": 108}, {"time": 3105, "pitch": 69, "duration": 8, "velocity": 116}]}, {"program": 0, "is_drum": false, "name": "BRIDGE", "notes": [{"time": 9, "pitch": 71, "duration": 6, "velocity": 114}, {"time": 15, "pitch": 72, "duration": 6, "velocity": 116}, {"time": 21, "pitch": 74, "duration": 6, "velocity": 116}, {"time": 27, "pitch": 79, "duration": 6, "velocity": 117}, {"time": 33, "pitch": 77, "duration": 6, "velocity": 119}, {"time": 39, "pitch": 69, "duration": 6, "velocity": 116}, {"time": 45, "pitch": 67, "duration": 6, "velocity": 116}, {"time": 51, "pitch": 76, "duration": 6, "velocity": 104}, {"time": 57, "pitch": 74, "duration": 6, "velocity": 96}, {"time": 63, "pitch": 65, "duration": 6, "velocity": 104}, {"time": 69, "pitch": 64, "duration": 6, "velocity": 104}, {"time": 75, "pitch": 72, "duration": 6, "velocity": 110}, {"time": 81, "pitch": 71, "duration": 6, "velocity": 100}, {"time": 87, "pitch": 62, "duration": 6, "velocity": 100}, {"time": 93, "pitch": 67, "duration": 6, "velocity": 114}, {"time": 99, "pitch": 74, "duration": 6, "velocity": 113}, {"time": 105, "pitch": 79, "duration": 45, "velocity": 114}, {"time": 150, "pitch": 64, "duration": 2, "velocity": 72}, {"time": 151, "pitch": 67, "duration": 2, "velocity": 83}, {"time": 153, "pitch": 72, "duration": 18, "velocity": 98}, {"time": 171, "pitch": 72, "duration": 6, "velocity": 114}, {"time": 177, "pitch": 72, "duration": 24, "velocity": 113}, {"time": 201, "pitch": 72, "duration": 18, "velocity": 108}, {"time": 219, "pitch": 72, "duration": 6, "velocity": 93}, {"time": 225, "pitch": 72, "duration": 12, "velocity": 110}, {"time": 1113, "pitch": 74, "duration": 12, "velocity": 114}, {"time": 1125, "pitch": 74, "duration": 3, "velocity": 116}, {"time": 1128, "pitch": 72, "duration": 3, "velocity": 98}, {"time": 1131, "pitch": 69, "duration": 3, "velocity": 90}, {"time": 1134, "pitch": 67, "duration": 3, "velocity": 96}, {"time": 1137, "pitch": 69, "duration": 18, "velocity": 113}, {"time": 1155, "pitch": 72, "duration": 6, "velocity": 114}, {"time": 1161, "pitch": 71, "duration": 12, "velocity": 116}, {"time": 1173, "pitch": 69, "duration": 6, "velocity": 114}, {"time": 1179, "pitch": 67, "duration": 6, "velocity": 113}, {"time": 1185, "pitch": 69, "duration": 24, "velocity": 114}, {"time": 1209, "pitch": 74, "duration": 12, "velocity": 114}, {"time": 1221, "pitch": 74, "duration": 4, "velocity": 116}, {"time": 1224, "pitch": 72, "duration": 3, "velocity": 107}, {"time": 1227, "pitch": 69, "duration": 3, "velocity": 116}, {"time": 1230, "pitch": 67, "duration": 3, "velocity": 108}, {"time": 1233, "pitch": 69, "duration": 3, "velocity": 110}, {"time": 1236, "pitch": 72, "duration": 3, "velocity": 108}, {"time": 1239, "pitch": 69, "duration": 18, "velocity": 114}, {"time": 1257, "pitch": 67, "duration": 12, "velocity": 119}, {"time": 1269, "pitch": 69, "duration": 5, "velocity": 119}, {"time": 1272, "pitch": 67, "duration": 3, "velocity": 108}, {"time": 1275, "pitch": 64, "duration": 3, "velocity": 117}, {"time": 1278, "pitch": 62, "duration": 3, "velocity": 104}, {"time": 1281, "pitch": 64, "duration": 3, "velocity": 114}, {"time": 1284, "pitch": 67, "duration": 3, "velocity": 93}, {"time": 1287, "pitch": 64, "duration": 18, "velocity": 108}, {"time": 1305, "pitch": 74, "duration": 12, "velocity": 119}, {"time": 1317, "pitch": 74, "duration": 3, "velocity": 113}, {"time": 1320, "pitch": 72, "duration": 3, "velocity": 114}, {"time": 1323, "pitch": 69, "duration": 3, "velocity": 107}, {"time": 1326, "pitch": 67, "duration": 3, "velocity": 108}, {"time": 1329, "pitch": 69, "duration": 3, "velocity": 108}, {"time": 1332, "pitch": 72, "duration": 3, "velocity": 100}, {"time": 1335, "pitch": 69, "duration": 18, "velocity": 116}, {"time": 1353, "pitch": 67, "duration": 2, "velocity": 93}, {"time": 1354, "pitch": 69, "duration": 3, "velocity": 92}, {"time": 1356, "pitch": 71, "duration": 2, "velocity": 88}, {"time": 1357, "pitch": 72, "duration": 2, "velocity": 87}, {"time": 1359, "pitch": 69, "duration": 2, "velocity": 88}, {"time": 1360, "pitch": 71, "duration": 3, "velocity": 91}, {"time": 1362, "pitch": 72, "duration": 2, "velocity": 87}, {"time": 1363, "pitch": 74, "duration": 2, "velocity": 85}, {"time": 1365, "pitch": 71, "duration": 2, "velocity": 91}, {"time": 1366, "pitch": 72, "duration": 3, "velocity": 88}, {"time": 1368, "pitch": 74, "duration": 2, "velocity": 84}, {"time": 1369, "pitch": 76, "duration": 2, "velocity": 84}, {"time": 1371, "pitch": 72, "duration": 3, "velocity": 91}, {"time": 1372, "pitch": 74, "duration": 4, "velocity": 89}, {"time": 1374, "pitch": 76, "duration": 2, "velocity": 85}, {"time": 1375, "pitch": 77, "duration": 3, "velocity": 83}, {"time": 1377, "pitch": 74, "duration": 2, "velocity": 92}, {"time": 1378, "pitch": 76, "duration": 3, "velocity": 85}, {"time": 1380, "pitch": 77, "duration": 2, "velocity": 83}, {"time": 1381, "pitch": 79, "duration": 2, "velocity": 88}, {"time": 1383, "pitch": 76, "duration": 2, "velocity": 89}, {"time": 1384, "pitch": 77, "duration": 3, "velocity": 88}, {"time": 1386, "pitch": 79, "duration": 2, "velocity": 86}, {"time": 1387, "pitch": 81, "duration": 2, "velocity": 87}, {"time": 1389, "pitch": 77, "duration": 3, "velocity": 110}, {"time": 1390, "pitch": 79, "duration": 3, "velocity": 102}, {"time": 1392, "pitch": 81, "duration": 2, "velocity": 94}, {"time": 1393, "pitch": 83, "duration": 2, "velocity": 88}, {"time": 1395, "pitch": 79, "duration": 2, "velocity": 100}, {"time": 1396, "pitch": 81, "duration": 3, "velocity": 107}, {"time": 1398, "pitch": 83, "duration": 3, "velocity": 89}, {"time": 1401, "pitch": 84, "duration": 6, "velocity": 120}, {"time": 1407, "pitch": 86, "duration": 6, "velocity": 117}, {"time": 1413, "pitch": 88, "duration": 6, "velocity": 117}, {"time": 1419, "pitch": 91, "duration": 30, "velocity": 119}, {"time": 1449, "pitch": 84, "duration": 6, "velocity": 117}, {"time": 1455, "pitch": 86, "duration": 6, "velocity": 116}, {"time": 1461, "pitch": 88, "duration": 6, "velocity": 119}, {"time": 1467, "pitch": 89, "duration": 30, "velocity": 119}, {"time": 1497, "pitch": 84, "duration": 6, "velocity": 117}, {"time": 1503, "pitch": 86, "duration": 6, "velocity": 114}, {"time": 1509, "pitch": 88, "duration": 6, "velocity": 116}, {"time": 1515, "pitch": 91, "duration": 30, "velocity": 120}, {"time": 1545, "pitch": 84, "duration": 6, "velocity": 114}, {"time": 1551, "pitch": 86, "duration": 6, "velocity": 110}, {"time": 1557, "pitch": 88, "duration": 6, "velocity": 116}, {"time": 1563, "pitch": 89, "duration": 30, "velocity": 117}, {"time": 1767, "pitch": 72, "duration": 6, "velocity": 102}, {"time": 1773, "pitch": 74, "duration": 5, "velocity": 104}, {"time": 1779, "pitch": 77, "duration": 6, "velocity": 114}, {"time": 1785, "pitch": 76, "duration": 11, "velocity": 116}, {"time": 1956, "pitch": 69, "duration": 4, "velocity": 88}, {"time": 1959, "pitch": 71, "duration": 3, "velocity": 104}, {"time": 1962, "pitch": 72, "duration": 27, "velocity": 110}, {"time": 2532, "pitch": 67, "duration": 3, "velocity": 104}, {"time": 2535, "pitch": 69, "duration": 3, "velocity": 102}, {"time": 2538, "pitch": 71, "duration": 3, "velocity": 102}, {"time": 2541, "pitch": 72, "duration": 3, "velocity": 104}, {"time": 2544, "pitch": 71, "duration": 3, "velocity": 107}, {"time": 2547, "pitch": 72, "duration": 3, "velocity": 108}, {"time": 2550, "pitch": 74, "duration": 3, "velocity": 110}, {"time": 2553, "pitch": 76, "duration": 84, "velocity": 113}, {"time": 2637, "pitch": 79, "duration": 6, "velocity": 108}, {"time": 2643, "pitch": 81, "duration": 6, "velocity": 107}, {"time": 2649, "pitch": 79, "duration": 8, "velocity": 113}, {"time": 3129, "pitch": 74, "duration": 12, "velocity": 114}, {"time": 3141, "pitch": 74, "duration": 3, "velocity": 113}, {"time": 3144, "pitch": 72, "duration": 3, "velocity": 110}, {"time": 3147, "pitch": 69, "duration": 3, "velocity": 114}, {"time": 3150, "pitch": 67, "duration": 3, "velocity": 107}, {"time": 3153, "pitch": 69, "duration": 12, "velocity": 114}, {"time": 3165, "pitch": 72, "duration": 12, "velocity": 114}, {"time": 3177, "pitch": 71, "duration": 12, "velocity": 117}, {"time": 3189, "pitch": 69, "duration": 6, "velocity": 113}, {"time": 3195, "pitch": 67, "duration": 6, "velocity": 113}, {"time": 3201, "pitch": 69, "duration": 24, "velocity": 116}, {"time": 3225, "pitch": 74, "duration": 12, "velocity": 114}, {"time": 3237, "pitch": 74, "duration": 4, "velocity": 114}, {"time": 3240, "pitch": 72, "duration": 3, "velocity": 104}, {"time": 3243, "pitch": 69, "duration": 3, "velocity": 113}, {"time": 3246, "pitch": 67, "duration": 3, "velocity": 100}, {"time": 3249, "pitch": 69, "duration": 18, "velocity": 108}, {"time": 3267, "pitch": 72, "duration": 6, "velocity": 96}, {"time": 3273, "pitch": 71, "duration": 15, "velocity": 110}, {"time": 3288, "pitch": 69, "duration": 6, "velocity": 114}, {"time": 3294, "pitch": 67, "duration": 12, "velocity": 110}, {"time": 3306, "pitch": 69, "duration": 63, "velocity": 114}]}, {"program": 0, "is_drum": false, "name": "PIANO", "notes": [{"time": 153, "pitch": 48, "duration": 43, "velocity": 87}, {"time": 159, "pitch": 55, "duration": 6, "velocity": 74}, {"time": 165, "pitch": 60, "duration": 7, "velocity": 87}, {"time": 171, "pitch": 55, "duration": 17, "velocity": 73}, {"time": 177, "pitch": 67, "duration": 7, "velocity": 87}, {"time": 183, "pitch": 60, "duration": 13, "velocity": 72}, {"time": 189, "pitch": 64, "duration": 13, "velocity": 81}, {"time": 195, "pitch": 55, "duration": 6, "velocity": 76}, {"time": 201, "pitch": 48, "duration": 42, "velocity": 78}, {"time": 207, "pitch": 55, "duration": 31, "velocity": 74}, {"time": 213, "pitch": 60, "duration": 14, "velocity": 78}, {"time": 219, "pitch": 64, "duration": 6, "velocity": 79}, {"time": 225, "pitch": 67, "duration": 7, "velocity": 84}, {"time": 231, "pitch": 60, "duration": 12, "velocity": 73}, {"time": 237, "pitch": 64, "duration": 7, "velocity": 88}, {"time": 243, "pitch": 67, "duration": 7, "velocity": 81}, {"time": 249, "pitch": 48, "duration": 19, "velocity": 87}, {"time": 255, "pitch": 55, "duration": 6, "velocity": 68}, {"time": 261, "pitch": 60, "duration": 5, "velocity": 77}, {"time": 261, "pitch": 64, "duration": 12, "velocity": 87}, {"time": 261, "pitch": 67, "duration": 11, "velocity": 87}, {"time": 267, "pitch": 55, "duration": 4, "velocity": 46}, {"time": 273, "pitch": 52, "duration": 17, "velocity": 84}, {"time": 273, "pitch": 64, "duration": 7, "velocity": 86}, {"time": 273, "pitch": 71, "duration": 7, "velocity": 87}, {"time": 279, "pitch": 59, "duration": 10, "velocity": 64}, {"time": 285, "pitch": 64, "duration": 7, "velocity": 96}, {"time": 285, "pitch": 71, "duration": 6, "velocity": 93}, {"time": 291, "pitch": 67, "duration": 5, "velocity": 87}, {"time": 297, "pitch": 45, "duration": 19, "velocity": 82}, {"time": 297, "pitch": 60, "duration": 7, "velocity": 83}, {"time": 297, "pitch": 64, "duration": 8, "velocity": 89}, {"time": 297, "pitch": 69, "duration": 7, "velocity": 88}, {"time": 303, "pitch": 52, "duration": 13, "velocity": 72}, {"time": 309, "pitch": 57, "duration": 7, "velocity": 76}, {"time": 309, "pitch": 60, "duration": 8, "velocity": 84}, {"time": 309, "pitch": 64, "duration": 7, "velocity": 84}, {"time": 309, "pitch": 69, "duration": 7, "velocity": 85}, {"time": 321, "pitch": 40, "duration": 19, "velocity": 85}, {"time": 321, "pitch": 59, "duration": 6, "velocity": 84}, {"time": 321, "pitch": 64, "duration": 6, "velocity": 79}, {"time": 321, "pitch": 67, "duration": 6, "velocity": 84}, {"time": 327, "pitch": 52, "duration": 8, "velocity": 73}, {"time": 333, "pitch": 59, "duration": 6, "velocity": 88}, {"time": 333, "pitch": 64, "duration": 6, "velocity": 90}, {"time": 333, "pitch": 67, "duration": 7, "velocity": 93}, {"time": 339, "pitch": 52, "duration": 1, "velocity": 79}, {"time": 345, "pitch": 38, "duration": 18, "velocity": 86}, {"time": 345, "pitch": 60, "duration": 4, "velocity": 84}, {"time": 345, "pitch": 62, "duration": 10, "velocity": 89}, {"time": 345, "pitch": 65, "duration": 8, "velocity": 86}, {"time": 351, "pitch": 50, "duration": 7, "velocity": 80}, {"time": 357, "pitch": 57, "duration": 6, "velocity": 85}, {"time": 357, "pitch": 62, "duration": 10, "velocity": 87}, {"time": 357, "pitch": 65, "duration": 7, "velocity": 87}, {"time": 363, "pitch": 50, "duration": 4, "velocity": 83}, {"time": 369, "pitch": 48, "duration": 21, "velocity": 84}, {"time": 369, "pitch": 60, "duration": 9, "velocity": 79}, {"time": 369, "pitch": 64, "duration": 9, "velocity": 84}, {"time": 369, "pitch": 67, "duration": 8, "velocity": 83}, {"time": 381, "pitch": 60, "duration": 11, "velocity": 85}, {"time": 381, "pitch": 64, "duration": 8, "velocity": 91}, {"time": 381, "pitch": 67, "duration": 7, "velocity": 87}, {"time": 393, "pitch": 41, "duration": 19, "velocity": 82}, {"time": 393, "pitch": 53, "duration": 20, "velocity": 76}, {"time": 393, "pitch": 57, "duration": 8, "velocity": 83}, {"time": 393, "pitch": 60, "duration": 9, "velocity": 86}, {"time": 393, "pitch": 65, "duration": 7, "velocity": 86}, {"time": 405, "pitch": 57, "duration": 6, "velocity": 84}, {"time": 405, "pitch": 60, "duration": 9, "velocity": 85}, {"time": 405, "pitch": 65, "duration": 6, "velocity": 88}, {"time": 414, "pitch": 59, "duration": 11, "velocity": 78}, {"time": 414, "pitch": 62, "duration": 10, "velocity": 76}, {"time": 417, "pitch": 43, "duration": 19, "velocity": 83}, {"time": 417, "pitch": 67, "duration": 9, "velocity": 85}, {"time": 423, "pitch": 50, "duration": 13, "velocity": 67}, {"time": 426, "pitch": 55, "duration": 14, "velocity": 84}, {"time": 429, "pitch": 59, "duration": 4, "velocity": 93}, {"time": 432, "pitch": 62, "duration": 8, "velocity": 93}, {"time": 435, "pitch": 67, "duration": 12, "velocity": 87}, {"time": 441, "pitch": 48, "duration": 13, "velocity": 85}, {"time": 441, "pitch": 60, "duration": 3, "velocity": 87}, {"time": 441, "pitch": 64, "duration": 5, "velocity": 89}, {"time": 447, "pitch": 55, "duration": 10, "velocity": 70}, {"time": 453, "pitch": 60, "duration": 4, "velocity": 81}, {"time": 453, "pitch": 62, "duration": 9, "velocity": 89}, {"time": 453, "pitch": 67, "duration": 11, "velocity": 89}, {"time": 465, "pitch": 52, "duration": 18, "velocity": 82}, {"time": 465, "pitch": 64, "duration": 3, "velocity": 90}, {"time": 465, "pitch": 71, "duration": 6, "velocity": 91}, {"time": 471, "pitch": 59, "duration": 11, "velocity": 72}, {"time": 477, "pitch": 67, "duration": 7, "velocity": 96}, {"time": 477, "pitch": 74, "duration": 5, "velocity": 102}, {"time": 483, "pitch": 71, "duration": 6, "velocity": 89}, {"time": 489, "pitch": 45, "duration": 18, "velocity": 79}, {"time": 489, "pitch": 64, "duration": 12, "velocity": 87}, {"time": 489, "pitch": 72, "duration": 3, "velocity": 91}, {"time": 495, "pitch": 52, "duration": 12, "velocity": 67}, {"time": 501, "pitch": 57, "duration": 5, "velocity": 81}, {"time": 501, "pitch": 60, "duration": 8, "velocity": 86}, {"time": 501, "pitch": 69, "duration": 6, "velocity": 88}, {"time": 513, "pitch": 40, "duration": 18, "velocity": 82}, {"time": 513, "pitch": 59, "duration": 8, "velocity": 86}, {"time": 513, "pitch": 64, "duration": 1, "velocity": 85}, {"time": 513, "pitch": 67, "duration": 6, "velocity": 88}, {"time": 519, "pitch": 52, "duration": 7, "velocity": 75}, {"time": 525, "pitch": 59, "duration": 7, "velocity": 94}, {"time": 525, "pitch": 67, "duration": 7, "velocity": 96}, {"time": 531, "pitch": 52, "duration": 1, "velocity": 82}, {"time": 537, "pitch": 38, "duration": 17, "velocity": 84}, {"time": 537, "pitch": 57, "duration": 5, "velocity": 85}, {"time": 537, "pitch": 60, "duration": 7, "velocity": 86}, {"time": 537, "pitch": 65, "duration": 5, "velocity": 87}, {"time": 543, "pitch": 50, "duration": 8, "velocity": 77}, {"time": 549, "pitch": 57, "duration": 5, "velocity": 90}, {"time": 549, "pitch": 60, "duration": 9, "velocity": 90}, {"time": 549, "pitch": 65, "duration": 7, "velocity": 89}, {"time": 555, "pitch": 50, "duration": 2, "velocity": 79}, {"time": 561, "pitch": 48, "duration": 17, "velocity": 86}, {"time": 561, "pitch": 60, "duration": 7, "velocity": 81}, {"time": 561, "pitch": 67, "duration": 6, "velocity": 84}, {"time": 567, "pitch": 55, "duration": 11, "velocity": 68}, {"time": 573, "pitch": 60, "duration": 9, "velocity": 87}, {"time": 573, "pitch": 67, "duration": 9, "velocity": 88}, {"time": 585, "pitch": 43, "duration": 19, "velocity": 76}, {"time": 585, "pitch": 59, "duration": 9, "velocity": 81}, {"time": 585, "pitch": 62, "duration": 8, "velocity": 86}, {"time": 585, "pitch": 67, "duration": 8, "velocity": 86}, {"time": 591, "pitch": 50, "duration": 13, "velocity": 65}, {"time": 597, "pitch": 55, "duration": 10, "velocity": 76}, {"time": 597, "pitch": 59, "duration": 8, "velocity": 86}, {"time": 597, "pitch": 62, "duration": 11, "velocity": 88}, {"time": 597, "pitch": 67, "duration": 8, "velocity": 87}, {"time": 609, "pitch": 45, "duration": 24, "velocity": 88}, {"time": 615, "pitch": 52, "duration": 17, "velocity": 65}, {"time": 618, "pitch": 57, "duration": 13, "velocity": 88}, {"time": 621, "pitch": 59, "duration": 4, "velocity": 88}, {"time": 624, "pitch": 60, "duration": 2, "velocity": 91}, {"time": 627, "pitch": 64, "duration": 5, "velocity": 110}, {"time": 633, "pitch": 48, "duration": 14, "velocity": 87}, {"time": 633, "pitch": 60, "duration": 5, "velocity": 87}, {"time": 633, "pitch": 64, "duration": 6, "velocity": 88}, {"time": 633, "pitch": 67, "duration": 5, "velocity": 88}, {"time": 642, "pitch": 55, "duration": 6, "velocity": 78}, {"time": 645, "pitch": 60, "duration": 7, "velocity": 89}, {"time": 645, "pitch": 64, "duration": 8, "velocity": 104}, {"time": 645, "pitch": 67, "duration": 7, "velocity": 100}, {"time": 651, "pitch": 48, "duration": 2, "velocity": 84}, {"time": 657, "pitch": 45, "duration": 20, "velocity": 86}, {"time": 657, "pitch": 60, "duration": 7, "velocity": 89}, {"time": 657, "pitch": 64, "duration": 7, "velocity": 96}, {"time": 657, "pitch": 69, "duration": 7, "velocity": 91}, {"time": 663, "pitch": 57, "duration": 7, "velocity": 74}, {"time": 669, "pitch": 60, "duration": 8, "velocity": 88}, {"time": 669, "pitch": 64, "duration": 9, "velocity": 100}, {"time": 669, "pitch": 69, "duration": 8, "velocity": 94}, {"time": 675, "pitch": 57, "duration": 2, "velocity": 86}, {"time": 681, "pitch": 40, "duration": 17, "velocity": 87}, {"time": 681, "pitch": 59, "duration": 6, "velocity": 87}, {"time": 681, "pitch": 64, "duration": 6, "velocity": 102}, {"time": 681, "pitch": 67, "duration": 6, "velocity": 91}, {"time": 687, "pitch": 52, "duration": 7, "velocity": 80}, {"time": 693, "pitch": 59, "duration": 7, "velocity": 107}, {"time": 693, "pitch": 64, "duration": 7, "velocity": 110}, {"time": 693, "pitch": 67, "duration": 7, "velocity": 104}, {"time": 699, "pitch": 52, "duration": 5, "velocity": 87}, {"time": 705, "pitch": 45, "duration": 19, "velocity": 86}, {"time": 705, "pitch": 60, "duration": 9, "velocity": 91}, {"time": 705, "pitch": 64, "duration": 9, "velocity": 107}, {"time": 705, "pitch": 69, "duration": 6, "velocity": 102}, {"time": 711, "pitch": 52, "duration": 13, "velocity": 80}, {"time": 717, "pitch": 60, "duration": 10, "velocity": 102}, {"time": 717, "pitch": 64, "duration": 6, "velocity": 113}, {"time": 717, "pitch": 69, "duration": 5, "velocity": 110}, {"time": 723, "pitch": 57, "duration": 1, "velocity": 86}, {"time": 729, "pitch": 41, "duration": 18, "velocity": 87}, {"time": 729, "pitch": 57, "duration": 8, "velocity": 92}, {"time": 729, "pitch": 60, "duration": 8, "velocity": 94}, {"time": 729, "pitch": 65, "duration": 7, "velocity": 98}, {"time": 735, "pitch": 53, "duration": 7, "velocity": 81}, {"time": 741, "pitch": 57, "duration": 6, "velocity": 102}, {"time": 741, "pitch": 60, "duration": 10, "velocity": 98}, {"time": 741, "pitch": 65, "duration": 6, "velocity": 92}, {"time": 747, "pitch": 53, "duration": 6, "velocity": 84}, {"time": 753, "pitch": 48, "duration": 19, "velocity": 87}, {"time": 753, "pitch": 60, "duration": 7, "velocity": 89}, {"time": 753, "pitch": 64, "duration": 6, "velocity": 98}, {"time": 753, "pitch": 67, "duration": 6, "velocity": 100}, {"time": 759, "pitch": 55, "duration": 7, "velocity": 76}, {"time": 765, "pitch": 60, "duration": 8, "velocity": 96}, {"time": 765, "pitch": 64, "duration": 6, "velocity": 108}, {"time": 765, "pitch": 67, "duration": 8, "velocity": 98}, {"time": 771, "pitch": 55, "duration": 1, "velocity": 86}, {"time": 777, "pitch": 50, "duration": 21, "velocity": 85}, {"time": 777, "pitch": 57, "duration": 8, "velocity": 90}, {"time": 777, "pitch": 62, "duration": 8, "velocity": 98}, {"time": 777, "pitch": 65, "duration": 8, "velocity": 93}, {"time": 789, "pitch": 57, "duration": 6, "velocity": 91}, {"time": 789, "pitch": 62, "duration": 8, "velocity": 100}, {"time": 789, "pitch": 65, "duration": 8, "velocity": 94}, {"time": 801, "pitch": 43, "duration": 17, "velocity": 81}, {"time": 801, "pitch": 59, "duration": 6, "velocity": 89}, {"time": 801, "pitch": 62, "duration": 8, "velocity": 102}, {"time": 801, "pitch": 67, "duration": 7, "velocity": 100}, {"time": 813, "pitch": 59, "duration": 7, "velocity": 98}, {"time": 813, "pitch": 62, "duration": 9, "velocity": 113}, {"time": 813, "pitch": 67, "duration": 8, "velocity": 102}, {"time": 819, "pitch": 55, "duration": 6, "velocity": 87}, {"time": 825, "pitch": 48, "duration": 19, "velocity": 84}, {"time": 825, "pitch": 60, "duration": 6, "velocity": 91}, {"time": 825, "pitch": 64, "duration": 6, "velocity": 104}, {"time": 825, "pitch": 67, "duration": 7, "velocity": 94}, {"time": 831, "pitch": 55, "duration": 7, "velocity": 78}, {"time": 837, "pitch": 60, "duration": 9, "velocity": 102}, {"time": 837, "pitch": 64, "duration": 9, "velocity": 113}, {"time": 837, "pitch": 67, "duration": 9, "velocity": 110}, {"time": 843, "pitch": 55, "duration": 2, "velocity": 82}, {"time": 849, "pitch": 45, "duration": 14, "velocity": 85}, {"time": 849, "pitch": 60, "duration": 8, "velocity": 94}, {"time": 849, "pitch": 64, "duration": 8, "velocity": 110}, {"time": 849, "pitch": 69, "duration": 8, "velocity": 102}, {"time": 855, "pitch": 52, "duration": 7, "velocity": 74}, {"time": 861, "pitch": 60, "duration": 11, "velocity": 100}, {"time": 861, "pitch": 64, "duration": 7, "velocity": 108}, {"time": 861, "pitch": 69, "duration": 6, "velocity": 102}, {"time": 867, "pitch": 45, "duration": 5, "velocity": 81}, {"time": 873, "pitch": 40, "duration": 17, "velocity": 90}, {"time": 873, "pitch": 59, "duration": 8, "velocity": 91}, {"time": 873, "pitch": 64, "duration": 8, "velocity": 91}, {"time": 873, "pitch": 67, "duration": 8, "velocity": 88}, {"time": 879, "pitch": 47, "duration": 12, "velocity": 69}, {"time": 882, "pitch": 52, "duration": 4, "velocity": 83}, {"time": 885, "pitch": 59, "duration": 6, "velocity": 102}, {"time": 885, "pitch": 64, "duration": 9, "velocity": 108}, {"time": 885, "pitch": 67, "duration": 6, "velocity": 102}, {"time": 891, "pitch": 52, "duration": 5, "velocity": 78}, {"time": 897, "pitch": 45, "duration": 20, "velocity": 84}, {"time": 897, "pitch": 60, "duration": 7, "velocity": 88}, {"time": 897, "pitch": 64, "duration": 7, "velocity": 91}, {"time": 897, "pitch": 69, "duration": 6, "velocity": 92}, {"time": 900, "pitch": 52, "duration": 16, "velocity": 75}, {"time": 903, "pitch": 57, "duration": 7, "velocity": 87}, {"time": 906, "pitch": 59, "duration": 2, "velocity": 89}, {"time": 909, "pitch": 60, "duration": 10, "velocity": 110}, {"time": 909, "pitch": 64, "duration": 10, "velocity": 114}, {"time": 915, "pitch": 57, "duration": 1, "velocity": 83}, {"time": 921, "pitch": 42, "duration": 43, "velocity": 87}, {"time": 921, "pitch": 57, "duration": 8, "velocity": 93}, {"time": 921, "pitch": 62, "duration": 8, "velocity": 113}, {"time": 921, "pitch": 66, "duration": 9, "velocity": 95}, {"time": 933, "pitch": 57, "duration": 10, "velocity": 100}, {"time": 933, "pitch": 62, "duration": 9, "velocity": 114}, {"time": 933, "pitch": 66, "duration": 10, "velocity": 100}, {"time": 939, "pitch": 54, "duration": 9, "velocity": 81}, {"time": 945, "pitch": 57, "duration": 9, "velocity": 93}, {"time": 945, "pitch": 62, "duration": 10, "velocity": 113}, {"time": 945, "pitch": 66, "duration": 9, "velocity": 109}, {"time": 954, "pitch": 54, "duration": 5, "velocity": 88}, {"time": 957, "pitch": 57, "duration": 7, "velocity": 104}, {"time": 957, "pitch": 66, "duration": 10, "velocity": 97}, {"time": 960, "pitch": 54, "duration": 3, "velocity": 86}, {"time": 963, "pitch": 62, "duration": 4, "velocity": 107}, {"time": 969, "pitch": 43, "duration": 39, "velocity": 87}, {"time": 969, "pitch": 59, "duration": 9, "velocity": 92}, {"time": 969, "pitch": 62, "duration": 14, "velocity": 102}, {"time": 969, "pitch": 67, "duration": 13, "velocity": 100}, {"time": 975, "pitch": 50, "duration": 34, "velocity": 71}, {"time": 981, "pitch": 55, "duration": 29, "velocity": 88}, {"time": 987, "pitch": 57, "duration": 4, "velocity": 91}, {"time": 993, "pitch": 59, "duration": 13, "velocity": 102}, {"time": 993, "pitch": 62, "duration": 13, "velocity": 107}, {"time": 1017, "pitch": 48, "duration": 18, "velocity": 84}, {"time": 1017, "pitch": 60, "duration": 4, "velocity": 88}, {"time": 1017, "pitch": 67, "duration": 6, "velocity": 88}, {"time": 1023, "pitch": 55, "duration": 9, "velocity": 74}, {"time": 1029, "pitch": 60, "duration": 6, "velocity": 80}, {"time": 1029, "pitch": 62, "duration": 8, "velocity": 94}, {"time": 1029, "pitch": 67, "duration": 8, "velocity": 91}, {"time": 1035, "pitch": 55, "duration": 2, "velocity": 80}, {"time": 1041, "pitch": 52, "duration": 24, "velocity": 84}, {"time": 1041, "pitch": 59, "duration": 5, "velocity": 87}, {"time": 1041, "pitch": 64, "duration": 10, "velocity": 88}, {"time": 1041, "pitch": 67, "duration": 9, "velocity": 86}, {"time": 1053, "pitch": 59, "duration": 7, "velocity": 91}, {"time": 1053, "pitch": 64, "duration": 4, "velocity": 89}, {"time": 1053, "pitch": 67, "duration": 9, "velocity": 88}, {"time": 1059, "pitch": 64, "duration": 4, "velocity": 36}, {"time": 1065, "pitch": 45, "duration": 18, "velocity": 79}, {"time": 1065, "pitch": 60, "duration": 7, "velocity": 86}, {"time": 1065, "pitch": 64, "duration": 7, "velocity": 83}, {"time": 1065, "pitch": 69, "duration": 6, "velocity": 86}, {"time": 1071, "pitch": 52, "duration": 7, "velocity": 71}, {"time": 1077, "pitch": 57, "duration": 6, "velocity": 82}, {"time": 1077, "pitch": 59, "duration": 7, "velocity": 86}, {"time": 1077, "pitch": 64, "duration": 7, "velocity": 87}, {"time": 1083, "pitch": 60, "duration": 5, "velocity": 82}, {"time": 1089, "pitch": 40, "duration": 16, "velocity": 82}, {"time": 1089, "pitch": 59, "duration": 10, "velocity": 87}, {"time": 1089, "pitch": 64, "duration": 9, "velocity": 86}, {"time": 1089, "pitch": 67, "duration": 8, "velocity": 87}, {"time": 1098, "pitch": 52, "duration": 9, "velocity": 85}, {"time": 1101, "pitch": 59, "duration": 4, "velocity": 88}, {"time": 1104, "pitch": 64, "duration": 3, "velocity": 94}, {"time": 1107, "pitch": 67, "duration": 3, "velocity": 98}, {"time": 1113, "pitch": 50, "duration": 13, "velocity": 84}, {"time": 1113, "pitch": 57, "duration": 9, "velocity": 81}, {"time": 1113, "pitch": 60, "duration": 9, "velocity": 84}, {"time": 1113, "pitch": 62, "duration": 8, "velocity": 86}, {"time": 1113, "pitch": 65, "duration": 9, "velocity": 81}, {"time": 1125, "pitch": 57, "duration": 5, "velocity": 87}, {"time": 1125, "pitch": 60, "duration": 5, "velocity": 86}, {"time": 1125, "pitch": 62, "duration": 6, "velocity": 87}, {"time": 1125, "pitch": 65, "duration": 5, "velocity": 87}, {"time": 1137, "pitch": 45, "duration": 22, "velocity": 84}, {"time": 1137, "pitch": 57, "duration": 9, "velocity": 84}, {"time": 1137, "pitch": 60, "duration": 9, "velocity": 84}, {"time": 1137, "pitch": 64, "duration": 7, "velocity": 87}, {"time": 1149, "pitch": 57, "duration": 7, "velocity": 87}, {"time": 1149, "pitch": 60, "duration": 11, "velocity": 89}, {"time": 1149, "pitch": 64, "duration": 7, "velocity": 88}, {"time": 1161, "pitch": 43, "duration": 20, "velocity": 83}, {"time": 1161, "pitch": 55, "duration": 20, "velocity": 77}, {"time": 1161, "pitch": 59, "duration": 9, "velocity": 85}, {"time": 1161, "pitch": 62, "duration": 9, "velocity": 88}, {"time": 1161, "pitch": 67, "duration": 8, "velocity": 86}, {"time": 1173, "pitch": 59, "duration": 9, "velocity": 88}, {"time": 1173, "pitch": 62, "duration": 9, "velocity": 89}, {"time": 1173, "pitch": 67, "duration": 8, "velocity": 87}, {"time": 1185, "pitch": 45, "duration": 24, "velocity": 79}, {"time": 1185, "pitch": 59, "duration": 9, "velocity": 85}, {"time": 1185, "pitch": 64, "duration": 9, "velocity": 86}, {"time": 1191, "pitch": 52, "duration": 18, "velocity": 68}, {"time": 1194, "pitch": 57, "duration": 14, "velocity": 82}, {"time": 1197, "pitch": 60, "duration": 5, "velocity": 90}, {"time": 1203, "pitch": 64, "duration": 6, "velocity": 116}, {"time": 1209, "pitch": 38, "duration": 18, "velocity": 82}, {"time": 1209, "pitch": 50, "duration": 14, "velocity": 81}, {"time": 1209, "pitch": 57, "duration": 11, "velocity": 87}, {"time": 1209, "pitch": 62, "duration": 11, "velocity": 91}, {"time": 1209, "pitch": 65, "duration": 9, "velocity": 88}, {"time": 1221, "pitch": 57, "duration": 10, "velocity": 89}, {"time": 1221, "pitch": 62, "duration": 10, "velocity": 94}, {"time": 1221, "pitch": 65, "duration": 6, "velocity": 91}, {"time": 1227, "pitch": 50, "duration": 6, "velocity": 87}, {"time": 1233, "pitch": 45, "duration": 19, "velocity": 84}, {"time": 1233, "pitch": 57, "duration": 9, "velocity": 87}, {"time": 1233, "pitch": 60, "duration": 8, "velocity": 93}, {"time": 1233, "pitch": 64, "duration": 8, "velocity": 88}, {"time": 1242, "pitch": 52, "duration": 5, "velocity": 38}, {"time": 1245, "pitch": 57, "duration": 6, "velocity": 91}, {"time": 1245, "pitch": 60, "duration": 10, "velocity": 96}, {"time": 1245, "pitch": 64, "duration": 8, "velocity": 91}, {"time": 1251, "pitch": 52, "duration": 1, "velocity": 82}, {"time": 1257, "pitch": 43, "duration": 18, "velocity": 85}, {"time": 1257, "pitch": 59, "duration": 9, "velocity": 88}, {"time": 1257, "pitch": 62, "duration": 8, "velocity": 94}, {"time": 1257, "pitch": 67, "duration": 8, "velocity": 89}, {"time": 1263, "pitch": 50, "duration": 13, "velocity": 71}, {"time": 1269, "pitch": 59, "duration": 6, "velocity": 98}, {"time": 1269, "pitch": 62, "duration": 7, "velocity": 100}, {"time": 1269, "pitch": 67, "duration": 6, "velocity": 91}, {"time": 1275, "pitch": 55, "duration": 5, "velocity": 81}, {"time": 1281, "pitch": 48, "duration": 19, "velocity": 87}, {"time": 1281, "pitch": 60, "duration": 9, "velocity": 88}, {"time": 1281, "pitch": 64, "duration": 10, "velocity": 91}, {"time": 1281, "pitch": 67, "duration": 8, "velocity": 91}, {"time": 1290, "pitch": 55, "duration": 4, "velocity": 78}, {"time": 1293, "pitch": 60, "duration": 6, "velocity": 107}, {"time": 1293, "pitch": 64, "duration": 5, "velocity": 113}, {"time": 1293, "pitch": 67, "duration": 6, "velocity": 102}, {"time": 1299, "pitch": 55, "duration": 1, "velocity": 88}, {"time": 1305, "pitch": 38, "duration": 18, "velocity": 88}, {"time": 1305, "pitch": 57, "duration": 9, "velocity": 91}, {"time": 1305, "pitch": 62, "duration": 10, "velocity": 110}, {"time": 1305, "pitch": 65, "duration": 8, "velocity": 96}, {"time": 1314, "pitch": 50, "duration": 5, "velocity": 89}, {"time": 1317, "pitch": 57, "duration": 9, "velocity": 107}, {"time": 1317, "pitch": 62, "duration": 10, "velocity": 113}, {"time": 1317, "pitch": 65, "duration": 9, "velocity": 98}, {"time": 1323, "pitch": 50, "duration": 5, "velocity": 93}, {"time": 1329, "pitch": 45, "duration": 19, "velocity": 90}, {"time": 1329, "pitch": 57, "duration": 7, "velocity": 94}, {"time": 1329, "pitch": 60, "duration": 9, "velocity": 110}, {"time": 1329, "pitch": 64, "duration": 9, "velocity": 91}, {"time": 1338, "pitch": 52, "duration": 4, "velocity": 88}, {"time": 1341, "pitch": 57, "duration": 6, "velocity": 102}, {"time": 1341, "pitch": 60, "duration": 10, "velocity": 107}, {"time": 1341, "pitch": 64, "duration": 8, "velocity": 104}, {"time": 1347, "pitch": 52, "duration": 1, "velocity": 87}, {"time": 1353, "pitch": 43, "duration": 19, "velocity": 88}, {"time": 1353, "pitch": 59, "duration": 8, "velocity": 94}, {"time": 1353, "pitch": 62, "duration": 8, "velocity": 110}, {"time": 1353, "pitch": 67, "duration": 7, "velocity": 102}, {"time": 1359, "pitch": 50, "duration": 16, "velocity": 76}, {"time": 1365, "pitch": 59, "duration": 10, "velocity": 108}, {"time": 1365, "pitch": 62, "duration": 9, "velocity": 114}, {"time": 1365, "pitch": 67, "duration": 8, "velocity": 108}, {"time": 1371, "pitch": 55, "duration": 2, "velocity": 83}, {"time": 1377, "pitch": 43, "duration": 19, "velocity": 86}, {"time": 1377, "pitch": 59, "duration": 8, "velocity": 100}, {"time": 1377, "pitch": 62, "duration": 8, "velocity": 110}, {"time": 1377, "pitch": 67, "duration": 7, "velocity": 102}, {"time": 1383, "pitch": 50, "duration": 6, "velocity": 74}, {"time": 1389, "pitch": 55, "duration": 10, "velocity": 88}, {"time": 1389, "pitch": 59, "duration": 7, "velocity": 108}, {"time": 1389, "pitch": 62, "duration": 7, "velocity": 114}, {"time": 1389, "pitch": 67, "duration": 8, "velocity": 108}, {"time": 1395, "pitch": 50, "duration": 1, "velocity": 81}, {"time": 1401, "pitch": 48, "duration": 13, "velocity": 87}, {"time": 1401, "pitch": 60, "duration": 3, "velocity": 86}, {"time": 1401, "pitch": 67, "duration": 7, "velocity": 88}, {"time": 1404, "pitch": 55, "duration": 10, "velocity": 76}, {"time": 1407, "pitch": 60, "duration": 7, "velocity": 85}, {"time": 1413, "pitch": 64, "duration": 1, "velocity": 88}, {"time": 1413, "pitch": 72, "duration": 1, "velocity": 89}, {"time": 1419, "pitch": 43, "duration": 22, "velocity": 86}, {"time": 1419, "pitch": 62, "duration": 12, "velocity": 88}, {"time": 1419, "pitch": 71, "duration": 13, "velocity": 87}, {"time": 1431, "pitch": 55, "duration": 12, "velocity": 86}, {"time": 1437, "pitch": 62, "duration": 6, "velocity": 100}, {"time": 1443, "pitch": 71, "duration": 4, "velocity": 96}, {"time": 1449, "pitch": 48, "duration": 12, "velocity": 87}, {"time": 1449, "pitch": 60, "duration": 9, "velocity": 89}, {"time": 1449, "pitch": 64, "duration": 9, "velocity": 100}, {"time": 1449, "pitch": 67, "duration": 10, "velocity": 92}, {"time": 1455, "pitch": 55, "duration": 6, "velocity": 68}, {"time": 1461, "pitch": 60, "duration": 1, "velocity": 88}, {"time": 1461, "pitch": 64, "duration": 1, "velocity": 90}, {"time": 1461, "pitch": 67, "duration": 1, "velocity": 88}, {"time": 1467, "pitch": 53, "duration": 14, "velocity": 88}, {"time": 1467, "pitch": 60, "duration": 19, "velocity": 87}, {"time": 1467, "pitch": 65, "duration": 20, "velocity": 90}, {"time": 1467, "pitch": 69, "duration": 19, "velocity": 90}, {"time": 1485, "pitch": 53, "duration": 10, "velocity": 91}, {"time": 1488, "pitch": 60, "duration": 4, "velocity": 83}, {"time": 1491, "pitch": 65, "duration": 5, "velocity": 87}, {"time": 1494, "pitch": 69, "duration": 2, "velocity": 87}, {"time": 1497, "pitch": 48, "duration": 12, "velocity": 87}, {"time": 1497, "pitch": 60, "duration": 10, "velocity": 89}, {"time": 1497, "pitch": 64, "duration": 10, "velocity": 100}, {"time": 1497, "pitch": 67, "duration": 10, "velocity": 90}, {"time": 1509, "pitch": 60, "duration": 1, "velocity": 86}, {"time": 1509, "pitch": 64, "duration": 1, "velocity": 91}, {"time": 1509, "pitch": 67, "duration": 1, "velocity": 92}, {"time": 1515, "pitch": 43, "duration": 24, "velocity": 81}, {"time": 1515, "pitch": 55, "duration": 25, "velocity": 88}, {"time": 1515, "pitch": 62, "duration": 25, "velocity": 90}, {"time": 1515, "pitch": 65, "duration": 26, "velocity": 93}, {"time": 1515, "pitch": 69, "duration": 24, "velocity": 91}, {"time": 1545, "pitch": 48, "duration": 12, "velocity": 86}, {"time": 1545, "pitch": 60, "duration": 9, "velocity": 88}, {"time": 1545, "pitch": 64, "duration": 9, "velocity": 94}, {"time": 1545, "pitch": 67, "duration": 9, "velocity": 89}, {"time": 1551, "pitch": 55, "duration": 5, "velocity": 65}, {"time": 1557, "pitch": 60, "duration": 1, "velocity": 88}, {"time": 1557, "pitch": 64, "duration": 1, "velocity": 93}, {"time": 1557, "pitch": 67, "duration": 1, "velocity": 89}, {"time": 1563, "pitch": 41, "duration": 25, "velocity": 86}, {"time": 1563, "pitch": 53, "duration": 26, "velocity": 85}, {"time": 1563, "pitch": 60, "duration": 25, "velocity": 88}, {"time": 1563, "pitch": 65, "duration": 26, "velocity": 96}, {"time": 1563, "pitch": 69, "duration": 26, "velocity": 94}, {"time": 1593, "pitch": 48, "duration": 19, "velocity": 87}, {"time": 1599, "pitch": 55, "duration": 6, "velocity": 68}, {"time": 1605, "pitch": 60, "duration": 5, "velocity": 77}, {"time": 1605, "pitch": 64, "duration": 12, "velocity": 87}, {"time": 1605, "pitch": 67, "duration": 11, "velocity": 87}, {"time": 1611, "pitch": 55, "duration": 4, "velocity": 46}, {"time": 1617, "pitch": 52, "duration": 17, "velocity": 84}, {"time": 1617, "pitch": 64, "duration": 7, "velocity": 86}, {"time": 1617, "pitch": 71, "duration": 7, "velocity": 87}, {"time": 1623, "pitch": 59, "duration": 10, "velocity": 64}, {"time": 1629, "pitch": 64, "duration": 7, "velocity": 96}, {"time": 1629, "pitch": 71, "duration": 6, "velocity": 93}, {"time": 1635, "pitch": 67, "duration": 5, "velocity": 87}, {"time": 1641, "pitch": 45, "duration": 19, "velocity": 82}, {"time": 1641, "pitch": 60, "duration": 7, "velocity": 83}, {"time": 1641, "pitch": 64, "duration": 8, "velocity": 89}, {"time": 1641, "pitch": 69, "duration": 7, "velocity": 88}, {"time": 1647, "pitch": 52, "duration": 13, "velocity": 72}, {"time": 1653, "pitch": 57, "duration": 7, "velocity": 76}, {"time": 1653, "pitch": 60, "duration": 8, "velocity": 84}, {"time": 1653, "pitch": 64, "duration": 7, "velocity": 84}, {"time": 1653, "pitch": 69, "duration": 7, "velocity": 85}, {"time": 1665, "pitch": 40, "duration": 19, "velocity": 85}, {"time": 1665, "pitch": 59, "duration": 6, "velocity": 84}, {"time": 1665, "pitch": 64, "duration": 6, "velocity": 79}, {"time": 1665, "pitch": 67, "duration": 6, "velocity": 84}, {"time": 1671, "pitch": 52, "duration": 8, "velocity": 73}, {"time": 1677, "pitch": 59, "duration": 6, "velocity": 88}, {"time": 1677, "pitch": 64, "duration": 6, "velocity": 90}, {"time": 1677, "pitch": 67, "duration": 7, "velocity": 93}, {"time": 1683, "pitch": 52, "duration": 1, "velocity": 79}, {"time": 1689, "pitch": 38, "duration": 18, "velocity": 86}, {"time": 1689, "pitch": 60, "duration": 4, "velocity": 84}, {"time": 1689, "pitch": 62, "duration": 10, "velocity": 89}, {"time": 1689, "pitch": 65, "duration": 8, "velocity": 86}, {"time": 1695, "pitch": 50, "duration": 7, "velocity": 80}, {"time": 1701, "pitch": 57, "duration": 6, "velocity": 85}, {"time": 1701, "pitch": 62, "duration": 10, "velocity": 87}, {"time": 1701, "pitch": 65, "duration": 7, "velocity": 87}, {"time": 1707, "pitch": 50, "duration": 4, "velocity": 83}, {"time": 1713, "pitch": 48, "duration": 21, "velocity": 84}, {"time": 1713, "pitch": 60, "duration": 9, "velocity": 79}, {"time": 1713, "pitch": 64, "duration": 9, "velocity": 84}, {"time": 1713, "pitch": 67, "duration": 8, "velocity": 83}, {"time": 1725, "pitch": 60, "duration": 11, "velocity": 85}, {"time": 1725, "pitch": 64, "duration": 8, "velocity": 91}, {"time": 1725, "pitch": 67, "duration": 7, "velocity": 87}, {"time": 1737, "pitch": 41, "duration": 19, "velocity": 82}, {"time": 1737, "pitch": 53, "duration": 20, "velocity": 76}, {"time": 1737, "pitch": 57, "duration": 8, "velocity": 83}, {"time": 1737, "pitch": 60, "duration": 9, "velocity": 86}, {"time": 1737, "pitch": 65, "duration": 7, "velocity": 86}, {"time": 1749, "pitch": 57, "duration": 6, "velocity": 84}, {"time": 1749, "pitch": 60, "duration": 9, "velocity": 85}, {"time": 1749, "pitch": 65, "duration": 6, "velocity": 88}, {"time": 1758, "pitch": 59, "duration": 11, "velocity": 78}, {"time": 1758, "pitch": 62, "duration": 10, "velocity": 76}, {"time": 1761, "pitch": 43, "duration": 19, "velocity": 83}, {"time": 1761, "pitch": 67, "duration": 9, "velocity": 85}, {"time": 1767, "pitch": 50, "duration": 13, "velocity": 67}, {"time": 1770, "pitch": 55, "duration": 14, "velocity": 84}, {"time": 1773, "pitch": 59, "duration": 4, "velocity": 93}, {"time": 1776, "pitch": 62, "duration": 8, "velocity": 93}, {"time": 1779, "pitch": 67, "duration": 12, "velocity": 87}, {"time": 1785, "pitch": 48, "duration": 13, "velocity": 85}, {"time": 1785, "pitch": 60, "duration": 3, "velocity": 87}, {"time": 1785, "pitch": 64, "duration": 5, "velocity": 89}, {"time": 1791, "pitch": 55, "duration": 10, "velocity": 70}, {"time": 1797, "pitch": 60, "duration": 4, "velocity": 81}, {"time": 1797, "pitch": 62, "duration": 9, "velocity": 89}, {"time": 1797, "pitch": 67, "duration": 11, "velocity": 89}, {"time": 1809, "pitch": 52, "duration": 18, "velocity": 82}, {"time": 1809, "pitch": 64, "duration": 3, "velocity": 90}, {"time": 1809, "pitch": 71, "duration": 6, "velocity": 91}, {"time": 1815, "pitch": 59, "duration": 11, "velocity": 72}, {"time": 1821, "pitch": 67, "duration": 7, "velocity": 96}, {"time": 1821, "pitch": 74, "duration": 5, "velocity": 102}, {"time": 1827, "pitch": 71, "duration": 6, "velocity": 89}, {"time": 1833, "pitch": 45, "duration": 18, "velocity": 79}, {"time": 1833, "pitch": 64, "duration": 12, "velocity": 87}, {"time": 1833, "pitch": 72, "duration": 3, "velocity": 91}, {"time": 1839, "pitch": 52, "duration": 12, "velocity": 67}, {"time": 1845, "pitch": 57, "duration": 5, "velocity": 81}, {"time": 1845, "pitch": 60, "duration": 8, "velocity": 86}, {"time": 1845, "pitch": 69, "duration": 6, "velocity": 88}, {"time": 1857, "pitch": 40, "duration": 18, "velocity": 82}, {"time": 1857, "pitch": 59, "duration": 8, "velocity": 86}, {"time": 1857, "pitch": 64, "duration": 1, "velocity": 85}, {"time": 1857, "pitch": 67, "duration": 6, "velocity": 88}, {"time": 1863, "pitch": 52, "duration": 7, "velocity": 75}, {"time": 1869, "pitch": 59, "duration": 7, "velocity": 94}, {"time": 1869, "pitch": 67, "duration": 7, "velocity": 96}, {"time": 1875, "pitch": 52, "duration": 1, "velocity": 82}, {"time": 1881, "pitch": 38, "duration": 17, "velocity": 84}, {"time": 1881, "pitch": 57, "duration": 5, "velocity": 85}, {"time": 1881, "pitch": 60, "duration": 7, "velocity": 86}, {"time": 1881, "pitch": 65, "duration": 5, "velocity": 87}, {"time": 1887, "pitch": 50, "duration": 8, "velocity": 77}, {"time": 1893, "pitch": 57, "duration": 5, "velocity": 90}, {"time": 1893, "pitch": 60, "duration": 9, "velocity": 90}, {"time": 1893, "pitch": 65, "duration": 7, "velocity": 89}, {"time": 1899, "pitch": 50, "duration": 2, "velocity": 79}, {"time": 1905, "pitch": 48, "duration": 17, "velocity": 86}, {"time": 1905, "pitch": 60, "duration": 7, "velocity": 81}, {"time": 1905, "pitch": 67, "duration": 6, "velocity": 84}, {"time": 1911, "pitch": 55, "duration": 11, "velocity": 68}, {"time": 1917, "pitch": 60, "duration": 9, "velocity": 87}, {"time": 1917, "pitch": 67, "duration": 9, "velocity": 88}, {"time": 1929, "pitch": 43, "duration": 19, "velocity": 76}, {"time": 1929, "pitch": 59, "duration": 9, "velocity": 81}, {"time": 1929, "pitch": 62, "duration": 8, "velocity": 86}, {"time": 1929, "pitch": 67, "duration": 8, "velocity": 86}, {"time": 1935, "pitch": 50, "duration": 13, "velocity": 65}, {"time": 1941, "pitch": 55, "duration": 10, "velocity": 76}, {"time": 1941, "pitch": 59, "duration": 8, "velocity": 86}, {"time": 1941, "pitch": 62, "duration": 11, "velocity": 88}, {"time": 1941, "pitch": 67, "duration": 8, "velocity": 87}, {"time": 1953, "pitch": 45, "duration": 19, "velocity": 77}, {"time": 1959, "pitch": 52, "duration": 9, "velocity": 70}, {"time": 1965, "pitch": 59, "duration": 7, "velocity": 87}, {"time": 1965, "pitch": 64, "duration": 13, "velocity": 88}, {"time": 1971, "pitch": 60, "duration": 7, "velocity": 88}, {"time": 1977, "pitch": 48, "duration": 14, "velocity": 87}, {"time": 1977, "pitch": 60, "duration": 1, "velocity": 87}, {"time": 1977, "pitch": 64, "duration": 1, "velocity": 88}, {"time": 1977, "pitch": 67, "duration": 5, "velocity": 88}, {"time": 1986, "pitch": 55, "duration": 6, "velocity": 78}, {"time": 1989, "pitch": 60, "duration": 7, "velocity": 89}, {"time": 1989, "pitch": 64, "duration": 8, "velocity": 104}, {"time": 1989, "pitch": 67, "duration": 7, "velocity": 100}, {"time": 1995, "pitch": 48, "duration": 2, "velocity": 84}, {"time": 2001, "pitch": 45, "duration": 20, "velocity": 86}, {"time": 2001, "pitch": 60, "duration": 7, "velocity": 89}, {"time": 2001, "pitch": 64, "duration": 7, "velocity": 96}, {"time": 2001, "pitch": 69, "duration": 7, "velocity": 91}, {"time": 2007, "pitch": 57, "duration": 7, "velocity": 74}, {"time": 2013, "pitch": 60, "duration": 8, "velocity": 88}, {"time": 2013, "pitch": 64, "duration": 9, "velocity": 100}, {"time": 2013, "pitch": 69, "duration": 8, "velocity": 94}, {"time": 2019, "pitch": 57, "duration": 2, "velocity": 86}, {"time": 2025, "pitch": 40, "duration": 17, "velocity": 87}, {"time": 2025, "pitch": 59, "duration": 6, "velocity": 87}, {"time": 2025, "pitch": 64, "duration": 6, "velocity": 102}, {"time": 2025, "pitch": 67, "duration": 6, "velocity": 91}, {"time": 2031, "pitch": 52, "duration": 7, "velocity": 80}, {"time": 2037, "pitch": 59, "duration": 7, "velocity": 107}, {"time": 2037, "pitch": 64, "duration": 7, "velocity": 110}, {"time": 2037, "pitch": 67, "duration": 7, "velocity": 104}, {"time": 2043, "pitch": 52, "duration": 5, "velocity": 87}, {"time": 2049, "pitch": 45, "duration": 19, "velocity": 86}, {"time": 2049, "pitch": 60, "duration": 9, "velocity": 91}, {"time": 2049, "pitch": 64, "duration": 9, "velocity": 107}, {"time": 2049, "pitch": 69, "duration": 6, "velocity": 102}, {"time": 2055, "pitch": 52, "duration": 13, "velocity": 80}, {"time": 2061, "pitch": 60, "duration": 10, "velocity": 102}, {"time": 2061, "pitch": 64, "duration": 6, "velocity": 113}, {"time": 2061, "pitch": 69, "duration": 5, "velocity": 110}, {"time": 2067, "pitch": 57, "duration": 1, "velocity": 86}, {"time": 2073, "pitch": 41, "duration": 18, "velocity": 87}, {"time": 2073, "pitch": 57, "duration": 8, "velocity": 92}, {"time": 2073, "pitch": 60, "duration": 8, "velocity": 94}, {"time": 2073, "pitch": 65, "duration": 7, "velocity": 98}, {"time": 2079, "pitch": 53, "duration": 7, "velocity": 81}, {"time": 2085, "pitch": 57, "duration": 6, "velocity": 102}, {"time": 2085, "pitch": 60, "duration": 10, "velocity": 98}, {"time": 2085, "pitch": 65, "duration": 6, "velocity": 92}, {"time": 2091, "pitch": 53, "duration": 6, "velocity": 84}, {"time": 2097, "pitch": 48, "duration": 19, "velocity": 87}, {"time": 2097, "pitch": 60, "duration": 7, "velocity": 89}, {"time": 2097, "pitch": 64, "duration": 6, "velocity": 98}, {"time": 2097, "pitch": 67, "duration": 6, "velocity": 100}, {"time": 2103, "pitch": 55, "duration": 7, "velocity": 76}, {"time": 2109, "pitch": 60, "duration": 8, "velocity": 96}, {"time": 2109, "pitch": 64, "duration": 6, "velocity": 108}, {"time": 2109, "pitch": 67, "duration": 8, "velocity": 98}, {"time": 2115, "pitch": 55, "duration": 1, "velocity": 86}, {"time": 2121, "pitch": 50, "duration": 21, "velocity": 85}, {"time": 2121, "pitch": 57, "duration": 8, "velocity": 90}, {"time": 2121, "pitch": 62, "duration": 8, "velocity": 98}, {"time": 2121, "pitch": 65, "duration": 8, "velocity": 93}, {"time": 2133, "pitch": 57, "duration": 6, "velocity": 91}, {"time": 2133, "pitch": 62, "duration": 8, "velocity": 100}, {"time": 2133, "pitch": 65, "duration": 8, "velocity": 94}, {"time": 2145, "pitch": 43, "duration": 17, "velocity": 81}, {"time": 2145, "pitch": 59, "duration": 6, "velocity": 89}, {"time": 2145, "pitch": 62, "duration": 8, "velocity": 102}, {"time": 2145, "pitch": 67, "duration": 7, "velocity": 100}, {"time": 2157, "pitch": 59, "duration": 7, "velocity": 98}, {"time": 2157, "pitch": 62, "duration": 9, "velocity": 113}, {"time": 2157, "pitch": 67, "duration": 8, "velocity": 102}, {"time": 2163, "pitch": 55, "duration": 6, "velocity": 87}, {"time": 2169, "pitch": 48, "duration": 19, "velocity": 84}, {"time": 2169, "pitch": 60, "duration": 6, "velocity": 91}, {"time": 2169, "pitch": 64, "duration": 6, "velocity": 104}, {"time": 2169, "pitch": 67, "duration": 7, "velocity": 94}, {"time": 2175, "pitch": 55, "duration": 7, "velocity": 78}, {"time": 2181, "pitch": 60, "duration": 9, "velocity": 102}, {"time": 2181, "pitch": 64, "duration": 9, "velocity": 113}, {"time": 2181, "pitch": 67, "duration": 9, "velocity": 110}, {"time": 2187, "pitch": 55, "duration": 2, "velocity": 82}, {"time": 2193, "pitch": 45, "duration": 14, "velocity": 85}, {"time": 2193, "pitch": 60, "duration": 8, "velocity": 94}, {"time": 2193, "pitch": 64, "duration": 8, "velocity": 110}, {"time": 2193, "pitch": 69, "duration": 8, "velocity": 102}, {"time": 2199, "pitch": 52, "duration": 7, "velocity": 74}, {"time": 2205, "pitch": 60, "duration": 11, "velocity": 100}, {"time": 2205, "pitch": 64, "duration": 7, "velocity": 108}, {"time": 2205, "pitch": 69, "duration": 6, "velocity": 102}, {"time": 2211, "pitch": 45, "duration": 5, "velocity": 81}, {"time": 2217, "pitch": 40, "duration": 17, "velocity": 90}, {"time": 2217, "pitch": 59, "duration": 8, "velocity": 91}, {"time": 2217, "pitch": 64, "duration": 8, "velocity": 91}, {"time": 2217, "pitch": 67, "duration": 8, "velocity": 88}, {"time": 2223, "pitch": 47, "duration": 12, "velocity": 69}, {"time": 2226, "pitch": 52, "duration": 4, "velocity": 83}, {"time": 2229, "pitch": 59, "duration": 6, "velocity": 102}, {"time": 2229, "pitch": 64, "duration": 9, "velocity": 108}, {"time": 2229, "pitch": 67, "duration": 6, "velocity": 102}, {"time": 2235, "pitch": 52, "duration": 5, "velocity": 78}, {"time": 2241, "pitch": 45, "duration": 20, "velocity": 84}, {"time": 2241, "pitch": 60, "duration": 7, "velocity": 88}, {"time": 2241, "pitch": 64, "duration": 7, "velocity": 91}, {"time": 2241, "pitch": 69, "duration": 6, "velocity": 92}, {"time": 2244, "pitch": 52, "duration": 16, "velocity": 75}, {"time": 2247, "pitch": 57, "duration": 7, "velocity": 87}, {"time": 2250, "pitch": 59, "duration": 2, "velocity": 89}, {"time": 2253, "pitch": 60, "duration": 10, "velocity": 110}, {"time": 2253, "pitch": 64, "duration": 10, "velocity": 114}, {"time": 2259, "pitch": 57, "duration": 1, "velocity": 83}, {"time": 2265, "pitch": 42, "duration": 43, "velocity": 87}, {"time": 2265, "pitch": 57, "duration": 8, "velocity": 93}, {"time": 2265, "pitch": 62, "duration": 8, "velocity": 113}, {"time": 2265, "pitch": 66, "duration": 9, "velocity": 95}, {"time": 2277, "pitch": 57, "duration": 10, "velocity": 100}, {"time": 2277, "pitch": 62, "duration": 9, "velocity": 114}, {"time": 2277, "pitch": 66, "duration": 10, "velocity": 100}, {"time": 2283, "pitch": 54, "duration": 9, "velocity": 81}, {"time": 2289, "pitch": 57, "duration": 9, "velocity": 93}, {"time": 2289, "pitch": 62, "duration": 10, "velocity": 113}, {"time": 2289, "pitch": 66, "duration": 9, "velocity": 109}, {"time": 2298, "pitch": 54, "duration": 5, "velocity": 88}, {"time": 2301, "pitch": 57, "duration": 7, "velocity": 104}, {"time": 2301, "pitch": 66, "duration": 10, "velocity": 97}, {"time": 2304, "pitch": 54, "duration": 3, "velocity": 86}, {"time": 2307, "pitch": 62, "duration": 4, "velocity": 107}, {"time": 2313, "pitch": 43, "duration": 39, "velocity": 87}, {"time": 2313, "pitch": 59, "duration": 9, "velocity": 92}, {"time": 2313, "pitch": 62, "duration": 14, "velocity": 102}, {"time": 2313, "pitch": 67, "duration": 13, "velocity": 100}, {"time": 2319, "pitch": 50, "duration": 34, "velocity": 71}, {"time": 2325, "pitch": 55, "duration": 29, "velocity": 88}, {"time": 2331, "pitch": 57, "duration": 4, "velocity": 91}, {"time": 2337, "pitch": 59, "duration": 13, "velocity": 102}, {"time": 2337, "pitch": 62, "duration": 13, "velocity": 107}, {"time": 2361, "pitch": 48, "duration": 18, "velocity": 84}, {"time": 2361, "pitch": 60, "duration": 4, "velocity": 88}, {"time": 2361, "pitch": 67, "duration": 6, "velocity": 88}, {"time": 2367, "pitch": 55, "duration": 9, "velocity": 74}, {"time": 2373, "pitch": 60, "duration": 6, "velocity": 80}, {"time": 2373, "pitch": 62, "duration": 8, "velocity": 94}, {"time": 2373, "pitch": 67, "duration": 8, "velocity": 91}, {"time": 2379, "pitch": 55, "duration": 2, "velocity": 80}, {"time": 2385, "pitch": 52, "duration": 24, "velocity": 84}, {"time": 2385, "pitch": 59, "duration": 5, "velocity": 87}, {"time": 2385, "pitch": 64, "duration": 10, "velocity": 88}, {"time": 2385, "pitch": 67, "duration": 9, "velocity": 86}, {"time": 2397, "pitch": 59, "duration": 7, "velocity": 91}, {"time": 2397, "pitch": 64, "duration": 4, "velocity": 89}, {"time": 2397, "pitch": 67, "duration": 9, "velocity": 88}, {"time": 2403, "pitch": 64, "duration": 4, "velocity": 36}, {"time": 2409, "pitch": 45, "duration": 18, "velocity": 79}, {"time": 2409, "pitch": 60, "duration": 7, "velocity": 86}, {"time": 2409, "pitch": 64, "duration": 7, "velocity": 83}, {"time": 2409, "pitch": 69, "duration": 6, "velocity": 86}, {"time": 2415, "pitch": 52, "duration": 7, "velocity": 71}, {"time": 2421, "pitch": 57, "duration": 6, "velocity": 82}, {"time": 2421, "pitch": 59, "duration": 7, "velocity": 86}, {"time": 2421, "pitch": 64, "duration": 7, "velocity": 87}, {"time": 2427, "pitch": 60, "duration": 5, "velocity": 82}, {"time": 2433, "pitch": 40, "duration": 16, "velocity": 82}, {"time": 2433, "pitch": 59, "duration": 10, "velocity": 87}, {"time": 2433, "pitch": 64, "duration": 9, "velocity": 86}, {"time": 2433, "pitch": 67, "duration": 8, "velocity": 87}, {"time": 2442, "pitch": 52, "duration": 9, "velocity": 85}, {"time": 2445, "pitch": 59, "duration": 4, "velocity": 88}, {"time": 2448, "pitch": 64, "duration": 3, "velocity": 94}, {"time": 2451, "pitch": 67, "duration": 3, "velocity": 98}, {"time": 2457, "pitch": 50, "duration": 13, "velocity": 84}, {"time": 2457, "pitch": 57, "duration": 9, "velocity": 81}, {"time": 2457, "pitch": 60, "duration": 9, "velocity": 84}, {"time": 2457, "pitch": 62, "duration": 8, "velocity": 86}, {"time": 2457, "pitch": 65, "duration": 9, "velocity": 81}, {"time": 2469, "pitch": 57, "duration": 5, "velocity": 87}, {"time": 2469, "pitch": 60, "duration": 5, "velocity": 86}, {"time": 2469, "pitch": 62, "duration": 6, "velocity": 87}, {"time": 2469, "pitch": 65, "duration": 5, "velocity": 87}, {"time": 2481, "pitch": 45, "duration": 22, "velocity": 84}, {"time": 2481, "pitch": 57, "duration": 9, "velocity": 84}, {"time": 2481, "pitch": 60, "duration": 9, "velocity": 84}, {"time": 2481, "pitch": 64, "duration": 7, "velocity": 87}, {"time": 2493, "pitch": 57, "duration": 7, "velocity": 87}, {"time": 2493, "pitch": 60, "duration": 11, "velocity": 89}, {"time": 2493, "pitch": 64, "duration": 7, "velocity": 88}, {"time": 2505, "pitch": 43, "duration": 20, "velocity": 83}, {"time": 2505, "pitch": 55, "duration": 20, "velocity": 77}, {"time": 2505, "pitch": 59, "duration": 9, "velocity": 85}, {"time": 2505, "pitch": 62, "duration": 9, "velocity": 88}, {"time": 2505, "pitch": 67, "duration": 8, "velocity": 86}, {"time": 2517, "pitch": 59, "duration": 9, "velocity": 88}, {"time": 2517, "pitch": 62, "duration": 9, "velocity": 89}, {"time": 2517, "pitch": 67, "duration": 8, "velocity": 87}, {"time": 2529, "pitch": 45, "duration": 25, "velocity": 77}, {"time": 2529, "pitch": 60, "duration": 7, "velocity": 81}, {"time": 2529, "pitch": 64, "duration": 7, "velocity": 81}, {"time": 2535, "pitch": 52, "duration": 19, "velocity": 69}, {"time": 2541, "pitch": 60, "duration": 7, "velocity": 87}, {"time": 2541, "pitch": 64, "duration": 6, "velocity": 84}, {"time": 2547, "pitch": 57, "duration": 7, "velocity": 74}, {"time": 2553, "pitch": 48, "duration": 14, "velocity": 87}, {"time": 2553, "pitch": 60, "duration": 5, "velocity": 87}, {"time": 2553, "pitch": 64, "duration": 6, "velocity": 88}, {"time": 2553, "pitch": 67, "duration": 5, "velocity": 88}, {"time": 2562, "pitch": 55, "duration": 6, "velocity": 78}, {"time": 2565, "pitch": 60, "duration": 7, "velocity": 89}, {"time": 2565, "pitch": 64, "duration": 8, "velocity": 104}, {"time": 2565, "pitch": 67, "duration": 7, "velocity": 100}, {"time": 2571, "pitch": 48, "duration": 2, "velocity": 84}, {"time": 2577, "pitch": 45, "duration": 20, "velocity": 86}, {"time": 2577, "pitch": 60, "duration": 7, "velocity": 89}, {"time": 2577, "pitch": 64, "duration": 7, "velocity": 96}, {"time": 2577, "pitch": 69, "duration": 7, "velocity": 91}, {"time": 2583, "pitch": 57, "duration": 7, "velocity": 74}, {"time": 2589, "pitch": 60, "duration": 8, "velocity": 88}, {"time": 2589, "pitch": 64, "duration": 9, "velocity": 100}, {"time": 2589, "pitch": 69, "duration": 8, "velocity": 94}, {"time": 2595, "pitch": 57, "duration": 2, "velocity": 86}, {"time": 2601, "pitch": 40, "duration": 17, "velocity": 87}, {"time": 2601, "pitch": 59, "duration": 6, "velocity": 87}, {"time": 2601, "pitch": 64, "duration": 6, "velocity": 102}, {"time": 2601, "pitch": 67, "duration": 6, "velocity": 91}, {"time": 2607, "pitch": 52, "duration": 7, "velocity": 80}, {"time": 2613, "pitch": 59, "duration": 7, "velocity": 107}, {"time": 2613, "pitch": 64, "duration": 7, "velocity": 110}, {"time": 2613, "pitch": 67, "duration": 7, "velocity": 104}, {"time": 2619, "pitch": 52, "duration": 5, "velocity": 87}, {"time": 2625, "pitch": 45, "duration": 19, "velocity": 86}, {"time": 2625, "pitch": 60, "duration": 9, "velocity": 91}, {"time": 2625, "pitch": 64, "duration": 9, "velocity": 107}, {"time": 2625, "pitch": 69, "duration": 6, "velocity": 102}, {"time": 2631, "pitch": 52, "duration": 13, "velocity": 80}, {"time": 2637, "pitch": 60, "duration": 10, "velocity": 102}, {"time": 2637, "pitch": 64, "duration": 6, "velocity": 113}, {"time": 2637, "pitch": 69, "duration": 5, "velocity": 110}, {"time": 2643, "pitch": 57, "duration": 1, "velocity": 86}, {"time": 2649, "pitch": 41, "duration": 18, "velocity": 87}, {"time": 2649, "pitch": 57, "duration": 8, "velocity": 92}, {"time": 2649, "pitch": 60, "duration": 8, "velocity": 94}, {"time": 2649, "pitch": 65, "duration": 7, "velocity": 98}, {"time": 2655, "pitch": 53, "duration": 7, "velocity": 81}, {"time": 2661, "pitch": 57, "duration": 6, "velocity": 102}, {"time": 2661, "pitch": 60, "duration": 10, "velocity": 98}, {"time": 2661, "pitch": 65, "duration": 6, "velocity": 92}, {"time": 2667, "pitch": 53, "duration": 6, "velocity": 84}, {"time": 2673, "pitch": 48, "duration": 19, "velocity": 87}, {"time": 2673, "pitch": 60, "duration": 7, "velocity": 89}, {"time": 2673, "pitch": 64, "duration": 6, "velocity": 98}, {"time": 2673, "pitch": 67, "duration": 6, "velocity": 100}, {"time": 2679, "pitch": 55, "duration": 7, "velocity": 76}, {"time": 2685, "pitch": 60, "duration": 8, "velocity": 96}, {"time": 2685, "pitch": 64, "duration": 6, "velocity": 108}, {"time": 2685, "pitch": 67, "duration": 8, "velocity": 98}, {"time": 2691, "pitch": 55, "duration": 1, "velocity": 86}, {"time": 2697, "pitch": 50, "duration": 21, "velocity": 85}, {"time": 2697, "pitch": 57, "duration": 8, "velocity": 90}, {"time": 2697, "pitch": 62, "duration": 8, "velocity": 98}, {"time": 2697, "pitch": 65, "duration": 8, "velocity": 93}, {"time": 2709, "pitch": 57, "duration": 6, "velocity": 91}, {"time": 2709, "pitch": 62, "duration": 8, "velocity": 100}, {"time": 2709, "pitch": 65, "duration": 8, "velocity": 94}, {"time": 2721, "pitch": 43, "duration": 17, "velocity": 81}, {"time": 2721, "pitch": 59, "duration": 6, "velocity": 89}, {"time": 2721, "pitch": 62, "duration": 8, "velocity": 102}, {"time": 2721, "pitch": 67, "duration": 7, "velocity": 100}, {"time": 2733, "pitch": 59, "duration": 7, "velocity": 98}, {"time": 2733, "pitch": 62, "duration": 9, "velocity": 113}, {"time": 2733, "pitch": 67, "duration": 8, "velocity": 102}, {"time": 2739, "pitch": 55, "duration": 6, "velocity": 87}, {"time": 2745, "pitch": 48, "duration": 19, "velocity": 84}, {"time": 2745, "pitch": 60, "duration": 6, "velocity": 91}, {"time": 2745, "pitch": 64, "duration": 6, "velocity": 104}, {"time": 2745, "pitch": 67, "duration": 7, "velocity": 94}, {"time": 2751, "pitch": 55, "duration": 7, "velocity": 78}, {"time": 2757, "pitch": 60, "duration": 9, "velocity": 102}, {"time": 2757, "pitch": 64, "duration": 9, "velocity": 113}, {"time": 2757, "pitch": 67, "duration": 9, "velocity": 110}, {"time": 2763, "pitch": 55, "duration": 2, "velocity": 82}, {"time": 2769, "pitch": 45, "duration": 14, "velocity": 85}, {"time": 2769, "pitch": 60, "duration": 8, "velocity": 94}, {"time": 2769, "pitch": 64, "duration": 8, "velocity": 110}, {"time": 2769, "pitch": 69, "duration": 8, "velocity": 102}, {"time": 2775, "pitch": 52, "duration": 7, "velocity": 74}, {"time": 2781, "pitch": 60, "duration": 11, "velocity": 100}, {"time": 2781, "pitch": 64, "duration": 7, "velocity": 108}, {"time": 2781, "pitch": 69, "duration": 6, "velocity": 102}, {"time": 2787, "pitch": 45, "duration": 5, "velocity": 81}, {"time": 2793, "pitch": 40, "duration": 17, "velocity": 90}, {"time": 2793, "pitch": 59, "duration": 8, "velocity": 91}, {"time": 2793, "pitch": 64, "duration": 8, "velocity": 91}, {"time": 2793, "pitch": 67, "duration": 8, "velocity": 88}, {"time": 2799, "pitch": 47, "duration": 12, "velocity": 69}, {"time": 2802, "pitch": 52, "duration": 4, "velocity": 83}, {"time": 2805, "pitch": 59, "duration": 6, "velocity": 102}, {"time": 2805, "pitch": 64, "duration": 9, "velocity": 108}, {"time": 2805, "pitch": 67, "duration": 6, "velocity": 102}, {"time": 2811, "pitch": 52, "duration": 5, "velocity": 78}, {"time": 2817, "pitch": 45, "duration": 20, "velocity": 84}, {"time": 2817, "pitch": 60, "duration": 7, "velocity": 88}, {"time": 2817, "pitch": 64, "duration": 7, "velocity": 91}, {"time": 2817, "pitch": 69, "duration": 6, "velocity": 92}, {"time": 2820, "pitch": 52, "duration": 16, "velocity": 75}, {"time": 2823, "pitch": 57, "duration": 7, "velocity": 87}, {"time": 2826, "pitch": 59, "duration": 2, "velocity": 89}, {"time": 2829, "pitch": 60, "duration": 10, "velocity": 110}, {"time": 2829, "pitch": 64, "duration": 10, "velocity": 114}, {"time": 2835, "pitch": 57, "duration": 1, "velocity": 83}, {"time": 2841, "pitch": 42, "duration": 43, "velocity": 87}, {"time": 2841, "pitch": 57, "duration": 8, "velocity": 93}, {"time": 2841, "pitch": 62, "duration": 8, "velocity": 113}, {"time": 2841, "pitch": 66, "duration": 9, "velocity": 95}, {"time": 2853, "pitch": 57, "duration": 10, "velocity": 100}, {"time": 2853, "pitch": 62, "duration": 9, "velocity": 114}, {"time": 2853, "pitch": 66, "duration": 10, "velocity": 100}, {"time": 2859, "pitch": 54, "duration": 9, "velocity": 81}, {"time": 2865, "pitch": 57, "duration": 9, "velocity": 93}, {"time": 2865, "pitch": 62, "duration": 10, "velocity": 113}, {"time": 2865, "pitch": 66, "duration": 9, "velocity": 109}, {"time": 2874, "pitch": 54, "duration": 5, "velocity": 88}, {"time": 2877, "pitch": 57, "duration": 7, "velocity": 104}, {"time": 2877, "pitch": 66, "duration": 10, "velocity": 97}, {"time": 2880, "pitch": 54, "duration": 3, "velocity": 86}, {"time": 2883, "pitch": 62, "duration": 4, "velocity": 107}, {"time": 2889, "pitch": 43, "duration": 39, "velocity": 87}, {"time": 2889, "pitch": 59, "duration": 9, "velocity": 92}, {"time": 2889, "pitch": 62, "duration": 14, "velocity": 102}, {"time": 2889, "pitch": 67, "duration": 13, "velocity": 100}, {"time": 2895, "pitch": 50, "duration": 34, "velocity": 71}, {"time": 2901, "pitch": 55, "duration": 29, "velocity": 88}, {"time": 2907, "pitch": 57, "duration": 4, "velocity": 91}, {"time": 2913, "pitch": 59, "duration": 13, "velocity": 102}, {"time": 2913, "pitch": 62, "duration": 13, "velocity": 107}, {"time": 2937, "pitch": 48, "duration": 18, "velocity": 84}, {"time": 2937, "pitch": 60, "duration": 4, "velocity": 88}, {"time": 2937, "pitch": 67, "duration": 6, "velocity": 88}, {"time": 2943, "pitch": 55, "duration": 9, "velocity": 74}, {"time": 2949, "pitch": 60, "duration": 6, "velocity": 80}, {"time": 2949, "pitch": 62, "duration": 8, "velocity": 94}, {"time": 2949, "pitch": 67, "duration": 8, "velocity": 91}, {"time": 2955, "pitch": 55, "duration": 2, "velocity": 80}, {"time": 2961, "pitch": 52, "duration": 24, "velocity": 84}, {"time": 2961, "pitch": 59, "duration": 5, "velocity": 87}, {"time": 2961, "pitch": 64, "duration": 10, "velocity": 88}, {"time": 2961, "pitch": 67, "duration": 9, "velocity": 86}, {"time": 2973, "pitch": 59, "duration": 7, "velocity": 91}, {"time": 2973, "pitch": 64, "duration": 4, "velocity": 89}, {"time": 2973, "pitch": 67, "duration": 9, "velocity": 88}, {"time": 2979, "pitch": 64, "duration": 4, "velocity": 36}, {"time": 2985, "pitch": 45, "duration": 18, "velocity": 79}, {"time": 2985, "pitch": 60, "duration": 7, "velocity": 86}, {"time": 2985, "pitch": 64, "duration": 7, "velocity": 83}, {"time": 2985, "pitch": 69, "duration": 6, "velocity": 86}, {"time": 2991, "pitch": 52, "duration": 7, "velocity": 71}, {"time": 2997, "pitch": 57, "duration": 6, "velocity": 82}, {"time": 2997, "pitch": 59, "duration": 7, "velocity": 86}, {"time": 2997, "pitch": 64, "duration": 7, "velocity": 87}, {"time": 3003, "pitch": 60, "duration": 5, "velocity": 82}, {"time": 3009, "pitch": 40, "duration": 16, "velocity": 82}, {"time": 3009, "pitch": 59, "duration": 10, "velocity": 87}, {"time": 3009, "pitch": 64, "duration": 9, "velocity": 86}, {"time": 3009, "pitch": 67, "duration": 8, "velocity": 87}, {"time": 3018, "pitch": 52, "duration": 9, "velocity": 85}, {"time": 3021, "pitch": 59, "duration": 4, "velocity": 88}, {"time": 3024, "pitch": 64, "duration": 3, "velocity": 94}, {"time": 3027, "pitch": 67, "duration": 3, "velocity": 98}, {"time": 3033, "pitch": 50, "duration": 13, "velocity": 84}, {"time": 3033, "pitch": 57, "duration": 9, "velocity": 81}, {"time": 3033, "pitch": 60, "duration": 9, "velocity": 84}, {"time": 3033, "pitch": 62, "duration": 8, "velocity": 86}, {"time": 3033, "pitch": 65, "duration": 9, "velocity": 81}, {"time": 3045, "pitch": 57, "duration": 5, "velocity": 87}, {"time": 3045, "pitch": 60, "duration": 5, "velocity": 86}, {"time": 3045, "pitch": 62, "duration": 6, "velocity": 87}, {"time": 3045, "pitch": 65, "duration": 5, "velocity": 87}, {"time": 3057, "pitch": 45, "duration": 22, "velocity": 84}, {"time": 3057, "pitch": 57, "duration": 9, "velocity": 84}, {"time": 3057, "pitch": 60, "duration": 9, "velocity": 84}, {"time": 3057, "pitch": 64, "duration": 7, "velocity": 87}, {"time": 3069, "pitch": 57, "duration": 7, "velocity": 87}, {"time": 3069, "pitch": 60, "duration": 11, "velocity": 89}, {"time": 3069, "pitch": 64, "duration": 7, "velocity": 88}, {"time": 3081, "pitch": 43, "duration": 20, "velocity": 83}, {"time": 3081, "pitch": 55, "duration": 20, "velocity": 77}, {"time": 3081, "pitch": 59, "duration": 9, "velocity": 85}, {"time": 3081, "pitch": 62, "duration": 9, "velocity": 88}, {"time": 3081, "pitch": 67, "duration": 8, "velocity": 86}, {"time": 3093, "pitch": 59, "duration": 9, "velocity": 88}, {"time": 3093, "pitch": 62, "duration": 9, "velocity": 89}, {"time": 3093, "pitch": 67, "duration": 8, "velocity": 87}, {"time": 3105, "pitch": 45, "duration": 19, "velocity": 78}, {"time": 3105, "pitch": 60, "duration": 7, "velocity": 80}, {"time": 3105, "pitch": 64, "duration": 6, "velocity": 83}, {"time": 3105, "pitch": 69, "duration": 6, "velocity": 83}, {"time": 3111, "pitch": 52, "duration": 7, "velocity": 46}, {"time": 3117, "pitch": 57, "duration": 13, "velocity": 78}, {"time": 3117, "pitch": 60, "duration": 7, "velocity": 82}, {"time": 3117, "pitch": 64, "duration": 11, "velocity": 85}, {"time": 3117, "pitch": 69, "duration": 7, "velocity": 86}, {"time": 3123, "pitch": 52, "duration": 1, "velocity": 65}, {"time": 3129, "pitch": 50, "duration": 18, "velocity": 78}, {"time": 3129, "pitch": 62, "duration": 7, "velocity": 81}, {"time": 3129, "pitch": 65, "duration": 7, "velocity": 86}, {"time": 3129, "pitch": 69, "duration": 6, "velocity": 84}, {"time": 3135, "pitch": 57, "duration": 7, "velocity": 76}, {"time": 3141, "pitch": 62, "duration": 10, "velocity": 90}, {"time": 3141, "pitch": 65, "duration": 6, "velocity": 94}, {"time": 3141, "pitch": 69, "duration": 7, "velocity": 91}, {"time": 3147, "pitch": 57, "duration": 1, "velocity": 86}, {"time": 3153, "pitch": 41, "duration": 18, "velocity": 84}, {"time": 3153, "pitch": 57, "duration": 8, "velocity": 85}, {"time": 3153, "pitch": 60, "duration": 10, "velocity": 87}, {"time": 3153, "pitch": 65, "duration": 9, "velocity": 87}, {"time": 3162, "pitch": 53, "duration": 15, "velocity": 84}, {"time": 3165, "pitch": 57, "duration": 4, "velocity": 84}, {"time": 3168, "pitch": 60, "duration": 8, "velocity": 87}, {"time": 3171, "pitch": 65, "duration": 4, "velocity": 89}, {"time": 3177, "pitch": 43, "duration": 18, "velocity": 80}, {"time": 3177, "pitch": 59, "duration": 7, "velocity": 83}, {"time": 3177, "pitch": 62, "duration": 7, "velocity": 82}, {"time": 3177, "pitch": 67, "duration": 7, "velocity": 88}, {"time": 3183, "pitch": 55, "duration": 7, "velocity": 73}, {"time": 3189, "pitch": 59, "duration": 7, "velocity": 87}, {"time": 3189, "pitch": 62, "duration": 9, "velocity": 87}, {"time": 3189, "pitch": 67, "duration": 8, "velocity": 86}, {"time": 3195, "pitch": 55, "duration": 6, "velocity": 80}, {"time": 3200, "pitch": 45, "duration": 21, "velocity": 87}, {"time": 3207, "pitch": 52, "duration": 14, "velocity": 75}, {"time": 3213, "pitch": 59, "duration": 10, "velocity": 81}, {"time": 3213, "pitch": 64, "duration": 11, "velocity": 78}, {"time": 3219, "pitch": 60, "duration": 7, "velocity": 74}, {"time": 3225, "pitch": 65, "duration": 6, "velocity": 78}, {"time": 3225, "pitch": 62, "duration": 6, "velocity": 80}, {"time": 3225, "pitch": 50, "duration": 16, "velocity": 76}, {"time": 3231, "pitch": 57, "duration": 9, "velocity": 63}, {"time": 3237, "pitch": 69, "duration": 6, "velocity": 88}, {"time": 3237, "pitch": 62, "duration": 8, "velocity": 86}, {"time": 3248, "pitch": 57, "duration": 8, "velocity": 80}, {"time": 3248, "pitch": 65, "duration": 6, "velocity": 82}, {"time": 3249, "pitch": 41, "duration": 18, "velocity": 73}, {"time": 3255, "pitch": 53, "duration": 18, "velocity": 70}, {"time": 3261, "pitch": 57, "duration": 7, "velocity": 82}, {"time": 3261, "pitch": 65, "duration": 7, "velocity": 80}, {"time": 3273, "pitch": 59, "duration": 7, "velocity": 79}, {"time": 3273, "pitch": 67, "duration": 7, "velocity": 81}, {"time": 3273, "pitch": 43, "duration": 24, "velocity": 75}, {"time": 3280, "pitch": 55, "duration": 21, "velocity": 75}, {"time": 3286, "pitch": 59, "duration": 22, "velocity": 86}, {"time": 3286, "pitch": 67, "duration": 22, "velocity": 85}, {"time": 3301, "pitch": 45, "duration": 44, "velocity": 81}, {"time": 3308, "pitch": 52, "duration": 37, "velocity": 42}, {"time": 3313, "pitch": 57, "duration": 32, "velocity": 81}, {"time": 3316, "pitch": 59, "duration": 8, "velocity": 74}, {"time": 3320, "pitch": 60, "duration": 4, "velocity": 78}, {"time": 3324, "pitch": 67, "duration": 1, "velocity": 80}, {"time": 3328, "pitch": 69, "duration": 17, "velocity": 87}, {"time": 3333, "pitch": 71, "duration": 12, "velocity": 69}, {"time": 3339, "pitch": 79, "duration": 6, "velocity": 81}]}]}