{"metadata": {"schema_version": "0.2", "title": "None", "source_filename": "322.mid", "source_format": "midi"}, "resolution": 12, "tempos": [{"time": 0, "qpm": 60.0}], "time_signatures": [{"time": 0, "numerator": 4, "denominator": 4}], "tracks": [{"program": 0, "is_drum": false, "name": "MELODY", "notes": [{"time": 358, "pitch": 67, "duration": 6, "velocity": 114}, {"time": 364, "pitch": 67, "duration": 6, "velocity": 108}, {"time": 370, "pitch": 69, "duration": 6, "velocity": 117}, {"time": 376, "pitch": 71, "duration": 6, "velocity": 114}, {"time": 382, "pitch": 71, "duration": 3, "velocity": 116}, {"time": 385, "pitch": 69, "duration": 6, "velocity": 114}, {"time": 391, "pitch": 69, "duration": 9, "velocity": 119}, {"time": 400, "pitch": 69, "duration": 3, "velocity": 117}, {"time": 403, "pitch": 71, "duration": 3, "velocity": 110}, {"time": 406, "pitch": 74, "duration": 3, "velocity": 117}, {"time": 409, "pitch": 74, "duration": 6, "velocity": 114}, {"time": 415, "pitch": 71, "duration": 3, "velocity": 114}, {"time": 418, "pitch": 74, "duration": 6, "velocity": 116}, {"time": 424, "pitch": 76, "duration": 3, "velocity": 117}, {"time": 427, "pitch": 67, "duration": 27, "velocity": 116}, {"time": 454, "pitch": 74, "duration": 3, "velocity": 116}, {"time": 457, "pitch": 74, "duration": 6, "velocity": 117}, {"time": 463, "pitch": 71, "duration": 3, "velocity": 117}, {"time": 466, "pitch": 74, "duration": 6, "velocity": 116}, {"time": 472, "pitch": 76, "duration": 3, "velocity": 116}, {"time": 475, "pitch": 67, "duration": 9, "velocity": 113}, {"time": 484, "pitch": 64, "duration": 3, "velocity": 108}, {"time": 487, "pitch": 67, "duration": 6, "velocity": 117}, {"time": 493, "pitch": 71, "duration": 6, "velocity": 110}, {"time": 499, "pitch": 69, "duration": 51, "velocity": 116}, {"time": 550, "pitch": 71, "duration": 3, "velocity": 110}, {"time": 553, "pitch": 71, "duration": 6, "velocity": 116}, {"time": 559, "pitch": 71, "duration": 3, "velocity": 114}, {"time": 562, "pitch": 71, "duration": 6, "velocity": 113}, {"time": 568, "pitch": 69, "duration": 3, "velocity": 108}, {"time": 571, "pitch": 71, "duration": 3, "velocity": 114}, {"time": 574, "pitch": 74, "duration": 3, "velocity": 116}, {"time": 577, "pitch": 74, "duration": 6, "velocity": 114}, {"time": 583, "pitch": 74, "duration": 3, "velocity": 116}, {"time": 586, "pitch": 74, "duration": 6, "velocity": 114}, {"time": 592, "pitch": 74, "duration": 3, "velocity": 113}, {"time": 595, "pitch": 74, "duration": 3, "velocity": 114}, {"time": 598, "pitch": 71, "duration": 3, "velocity": 110}, {"time": 601, "pitch": 71, "duration": 1, "velocity": 110}, {"time": 607, "pitch": 71, "duration": 3, "velocity": 113}, {"time": 610, "pitch": 71, "duration": 6, "velocity": 113}, {"time": 616, "pitch": 78, "duration": 3, "velocity": 116}, {"time": 619, "pitch": 79, "duration": 6, "velocity": 116}, {"time": 625, "pitch": 76, "duration": 15, "velocity": 113}, {"time": 640, "pitch": 76, "duration": 3, "velocity": 110}, {"time": 643, "pitch": 78, "duration": 3, "velocity": 109}, {"time": 646, "pitch": 79, "duration": 3, "velocity": 116}, {"time": 649, "pitch": 78, "duration": 6, "velocity": 116}, {"time": 655, "pitch": 76, "duration": 3, "velocity": 107}, {"time": 658, "pitch": 76, "duration": 3, "velocity": 116}, {"time": 661, "pitch": 74, "duration": 6, "velocity": 110}, {"time": 667, "pitch": 71, "duration": 3, "velocity": 113}, {"time": 670, "pitch": 69, "duration": 4, "velocity": 107}, {"time": 673, "pitch": 71, "duration": 6, "velocity": 114}, {"time": 679, "pitch": 74, "duration": 15, "velocity": 114}, {"time": 694, "pitch": 69, "duration": 6, "velocity": 114}, {"time": 700, "pitch": 67, "duration": 6, "velocity": 102}, {"time": 706, "pitch": 67, "duration": 6, "velocity": 114}, {"time": 712, "pitch": 67, "duration": 4, "velocity": 110}, {"time": 715, "pitch": 64, "duration": 6, "velocity": 102}, {"time": 721, "pitch": 67, "duration": 63, "velocity": 113}, {"time": 784, "pitch": 71, "duration": 6, "velocity": 116}, {"time": 790, "pitch": 76, "duration": 3, "velocity": 114}, {"time": 793, "pitch": 74, "duration": 3, "velocity": 104}, {"time": 796, "pitch": 74, "duration": 3, "velocity": 110}, {"time": 799, "pitch": 71, "duration": 3, "velocity": 108}, {"time": 802, "pitch": 71, "duration": 3, "velocity": 114}, {"time": 805, "pitch": 69, "duration": 3, "velocity": 107}, {"time": 808, "pitch": 71, "duration": 3, "velocity": 108}, {"time": 811, "pitch": 74, "duration": 3, "velocity": 113}, {"time": 814, "pitch": 76, "duration": 3, "velocity": 116}, {"time": 817, "pitch": 74, "duration": 3, "velocity": 108}, {"time": 820, "pitch": 71, "duration": 3, "velocity": 102}, {"time": 823, "pitch": 74, "duration": 9, "velocity": 110}, {"time": 832, "pitch": 71, "duration": 6, "velocity": 116}, {"time": 838, "pitch": 79, "duration": 3, "velocity": 114}, {"time": 841, "pitch": 79, "duration": 3, "velocity": 110}, {"time": 844, "pitch": 79, "duration": 3, "velocity": 110}, {"time": 847, "pitch": 79, "duration": 3, "velocity": 113}, {"time": 850, "pitch": 76, "duration": 6, "velocity": 116}, {"time": 856, "pitch": 74, "duration": 3, "velocity": 110}, {"time": 859, "pitch": 71, "duration": 24, "velocity": 114}, {"time": 883, "pitch": 71, "duration": 3, "velocity": 104}, {"time": 886, "pitch": 79, "duration": 3, "velocity": 116}, {"time": 889, "pitch": 79, "duration": 3, "velocity": 113}, {"time": 892, "pitch": 79, "duration": 3, "velocity": 108}, {"time": 895, "pitch": 76, "duration": 3, "velocity": 114}, {"time": 898, "pitch": 81, "duration": 3, "velocity": 119}, {"time": 901, "pitch": 79, "duration": 6, "velocity": 114}, {"time": 907, "pitch": 74, "duration": 6, "velocity": 98}, {"time": 913, "pitch": 74, "duration": 3, "velocity": 107}, {"time": 916, "pitch": 74, "duration": 3, "velocity": 108}, {"time": 919, "pitch": 71, "duration": 3, "velocity": 116}, {"time": 922, "pitch": 76, "duration": 3, "velocity": 116}, {"time": 925, "pitch": 74, "duration": 9, "velocity": 116}, {"time": 934, "pitch": 69, "duration": 3, "velocity": 117}, {"time": 937, "pitch": 67, "duration": 3, "velocity": 110}, {"time": 940, "pitch": 69, "duration": 3, "velocity": 107}, {"time": 943, "pitch": 67, "duration": 3, "velocity": 108}, {"time": 946, "pitch": 69, "duration": 6, "velocity": 110}, {"time": 952, "pitch": 67, "duration": 3, "velocity": 117}, {"time": 955, "pitch": 69, "duration": 21, "velocity": 116}, {"time": 976, "pitch": 71, "duration": 6, "velocity": 116}, {"time": 982, "pitch": 76, "duration": 3, "velocity": 114}, {"time": 985, "pitch": 74, "duration": 3, "velocity": 104}, {"time": 988, "pitch": 74, "duration": 3, "velocity": 110}, {"time": 991, "pitch": 71, "duration": 3, "velocity": 108}, {"time": 994, "pitch": 71, "duration": 3, "velocity": 114}, {"time": 997, "pitch": 69, "duration": 3, "velocity": 107}, {"time": 1000, "pitch": 71, "duration": 3, "velocity": 108}, {"time": 1003, "pitch": 74, "duration": 3, "velocity": 113}, {"time": 1006, "pitch": 76, "duration": 3, "velocity": 116}, {"time": 1009, "pitch": 74, "duration": 3, "velocity": 108}, {"time": 1012, "pitch": 71, "duration": 3, "velocity": 102}, {"time": 1015, "pitch": 74, "duration": 9, "velocity": 110}, {"time": 1024, "pitch": 71, "duration": 3, "velocity": 116}, {"time": 1027, "pitch": 71, "duration": 3, "velocity": 116}, {"time": 1030, "pitch": 79, "duration": 3, "velocity": 114}, {"time": 1033, "pitch": 79, "duration": 3, "velocity": 110}, {"time": 1036, "pitch": 79, "duration": 3, "velocity": 110}, {"time": 1039, "pitch": 79, "duration": 3, "velocity": 113}, {"time": 1042, "pitch": 81, "duration": 3, "velocity": 110}, {"time": 1045, "pitch": 79, "duration": 3, "velocity": 98}, {"time": 1048, "pitch": 76, "duration": 3, "velocity": 108}, {"time": 1051, "pitch": 71, "duration": 3, "velocity": 89}, {"time": 1054, "pitch": 74, "duration": 21, "velocity": 104}, {"time": 1075, "pitch": 71, "duration": 3, "velocity": 104}, {"time": 1078, "pitch": 79, "duration": 3, "velocity": 116}, {"time": 1081, "pitch": 79, "duration": 3, "velocity": 113}, {"time": 1084, "pitch": 79, "duration": 3, "velocity": 108}, {"time": 1087, "pitch": 76, "duration": 3, "velocity": 114}, {"time": 1090, "pitch": 81, "duration": 3, "velocity": 119}, {"time": 1093, "pitch": 79, "duration": 3, "velocity": 114}, {"time": 1096, "pitch": 76, "duration": 3, "velocity": 108}, {"time": 1099, "pitch": 79, "duration": 3, "velocity": 110}, {"time": 1102, "pitch": 76, "duration": 3, "velocity": 110}, {"time": 1105, "pitch": 74, "duration": 3, "velocity": 107}, {"time": 1108, "pitch": 71, "duration": 3, "velocity": 113}, {"time": 1111, "pitch": 74, "duration": 3, "velocity": 108}, {"time": 1114, "pitch": 71, "duration": 12, "velocity": 116}, {"time": 1126, "pitch": 69, "duration": 3, "velocity": 113}, {"time": 1129, "pitch": 71, "duration": 3, "velocity": 114}, {"time": 1132, "pitch": 74, "duration": 3, "velocity": 113}, {"time": 1135, "pitch": 71, "duration": 3, "velocity": 114}, {"time": 1138, "pitch": 69, "duration": 3, "velocity": 117}, {"time": 1141, "pitch": 67, "duration": 3, "velocity": 113}, {"time": 1144, "pitch": 64, "duration": 3, "velocity": 100}, {"time": 1147, "pitch": 67, "duration": 3, "velocity": 116}, {"time": 1150, "pitch": 67, "duration": 120, "velocity": 116}, {"time": 1270, "pitch": 67, "duration": 6, "velocity": 114}, {"time": 1276, "pitch": 67, "duration": 6, "velocity": 108}, {"time": 1282, "pitch": 69, "duration": 6, "velocity": 117}, {"time": 1288, "pitch": 71, "duration": 6, "velocity": 114}, {"time": 1294, "pitch": 71, "duration": 3, "velocity": 116}, {"time": 1297, "pitch": 69, "duration": 6, "velocity": 114}, {"time": 1303, "pitch": 69, "duration": 9, "velocity": 119}, {"time": 1312, "pitch": 69, "duration": 3, "velocity": 117}, {"time": 1315, "pitch": 71, "duration": 3, "velocity": 110}, {"time": 1318, "pitch": 74, "duration": 3, "velocity": 117}, {"time": 1321, "pitch": 74, "duration": 6, "velocity": 114}, {"time": 1327, "pitch": 71, "duration": 3, "velocity": 114}, {"time": 1330, "pitch": 74, "duration": 6, "velocity": 116}, {"time": 1336, "pitch": 76, "duration": 3, "velocity": 117}, {"time": 1339, "pitch": 67, "duration": 27, "velocity": 116}, {"time": 1366, "pitch": 74, "duration": 3, "velocity": 116}, {"time": 1369, "pitch": 74, "duration": 6, "velocity": 117}, {"time": 1375, "pitch": 71, "duration": 3, "velocity": 117}, {"time": 1378, "pitch": 74, "duration": 6, "velocity": 116}, {"time": 1384, "pitch": 76, "duration": 3, "velocity": 116}, {"time": 1387, "pitch": 67, "duration": 9, "velocity": 113}, {"time": 1396, "pitch": 64, "duration": 3, "velocity": 108}, {"time": 1399, "pitch": 67, "duration": 6, "velocity": 117}, {"time": 1405, "pitch": 71, "duration": 6, "velocity": 110}, {"time": 1411, "pitch": 69, "duration": 51, "velocity": 116}, {"time": 1462, "pitch": 71, "duration": 3, "velocity": 110}, {"time": 1465, "pitch": 71, "duration": 6, "velocity": 116}, {"time": 1471, "pitch": 71, "duration": 3, "velocity": 114}, {"time": 1474, "pitch": 71, "duration": 6, "velocity": 113}, {"time": 1480, "pitch": 69, "duration": 3, "velocity": 108}, {"time": 1483, "pitch": 71, "duration": 3, "velocity": 114}, {"time": 1486, "pitch": 74, "duration": 3, "velocity": 116}, {"time": 1489, "pitch": 74, "duration": 6, "velocity": 114}, {"time": 1495, "pitch": 74, "duration": 3, "velocity": 116}, {"time": 1498, "pitch": 74, "duration": 6, "velocity": 114}, {"time": 1504, "pitch": 74, "duration": 3, "velocity": 113}, {"time": 1507, "pitch": 74, "duration": 3, "velocity": 114}, {"time": 1510, "pitch": 71, "duration": 3, "velocity": 110}, {"time": 1513, "pitch": 71, "duration": 1, "velocity": 110}, {"time": 1519, "pitch": 71, "duration": 3, "velocity": 113}, {"time": 1522, "pitch": 71, "duration": 6, "velocity": 113}, {"time": 1528, "pitch": 78, "duration": 3, "velocity": 116}, {"time": 1531, "pitch": 79, "duration": 6, "velocity": 116}, {"time": 1537, "pitch": 76, "duration": 15, "velocity": 113}, {"time": 1552, "pitch": 76, "duration": 3, "velocity": 110}, {"time": 1555, "pitch": 78, "duration": 3, "velocity": 109}, {"time": 1558, "pitch": 79, "duration": 3, "velocity": 116}, {"time": 1561, "pitch": 78, "duration": 6, "velocity": 116}, {"time": 1567, "pitch": 76, "duration": 3, "velocity": 107}, {"time": 1570, "pitch": 76, "duration": 3, "velocity": 116}, {"time": 1573, "pitch": 74, "duration": 6, "velocity": 110}, {"time": 1579, "pitch": 71, "duration": 3, "velocity": 113}, {"time": 1582, "pitch": 69, "duration": 4, "velocity": 107}, {"time": 1585, "pitch": 71, "duration": 6, "velocity": 114}, {"time": 1591, "pitch": 74, "duration": 15, "velocity": 114}, {"time": 1606, "pitch": 69, "duration": 6, "velocity": 114}, {"time": 1612, "pitch": 67, "duration": 6, "velocity": 102}, {"time": 1618, "pitch": 67, "duration": 6, "velocity": 114}, {"time": 1624, "pitch": 67, "duration": 4, "velocity": 110}, {"time": 1627, "pitch": 64, "duration": 6, "velocity": 102}, {"time": 1633, "pitch": 67, "duration": 63, "velocity": 113}, {"time": 1696, "pitch": 71, "duration": 6, "velocity": 116}, {"time": 1702, "pitch": 76, "duration": 3, "velocity": 114}, {"time": 1705, "pitch": 74, "duration": 3, "velocity": 104}, {"time": 1708, "pitch": 74, "duration": 3, "velocity": 110}, {"time": 1711, "pitch": 71, "duration": 3, "velocity": 108}, {"time": 1714, "pitch": 71, "duration": 3, "velocity": 114}, {"time": 1717, "pitch": 69, "duration": 3, "velocity": 107}, {"time": 1720, "pitch": 71, "duration": 3, "velocity": 108}, {"time": 1723, "pitch": 74, "duration": 3, "velocity": 113}, {"time": 1726, "pitch": 76, "duration": 3, "velocity": 116}, {"time": 1729, "pitch": 74, "duration": 3, "velocity": 108}, {"time": 1732, "pitch": 71, "duration": 3, "velocity": 102}, {"time": 1735, "pitch": 74, "duration": 9, "velocity": 110}, {"time": 1744, "pitch": 71, "duration": 6, "velocity": 116}, {"time": 1750, "pitch": 79, "duration": 3, "velocity": 114}, {"time": 1753, "pitch": 79, "duration": 3, "velocity": 110}, {"time": 1756, "pitch": 79, "duration": 3, "velocity": 110}, {"time": 1759, "pitch": 79, "duration": 3, "velocity": 113}, {"time": 1762, "pitch": 76, "duration": 6, "velocity": 116}, {"time": 1768, "pitch": 74, "duration": 3, "velocity": 110}, {"time": 1771, "pitch": 71, "duration": 24, "velocity": 114}, {"time": 1795, "pitch": 71, "duration": 3, "velocity": 104}, {"time": 1798, "pitch": 79, "duration": 3, "velocity": 116}, {"time": 1801, "pitch": 79, "duration": 3, "velocity": 113}, {"time": 1804, "pitch": 79, "duration": 3, "velocity": 108}, {"time": 1807, "pitch": 76, "duration": 3, "velocity": 114}, {"time": 1810, "pitch": 81, "duration": 3, "velocity": 119}, {"time": 1813, "pitch": 79, "duration": 6, "velocity": 114}, {"time": 1819, "pitch": 74, "duration": 6, "velocity": 98}, {"time": 1825, "pitch": 74, "duration": 3, "velocity": 107}, {"time": 1828, "pitch": 74, "duration": 3, "velocity": 108}, {"time": 1831, "pitch": 71, "duration": 3, "velocity": 116}, {"time": 1834, "pitch": 76, "duration": 3, "velocity": 116}, {"time": 1837, "pitch": 74, "duration": 9, "velocity": 116}, {"time": 1846, "pitch": 69, "duration": 3, "velocity": 117}, {"time": 1849, "pitch": 67, "duration": 3, "velocity": 110}, {"time": 1852, "pitch": 69, "duration": 3, "velocity": 107}, {"time": 1855, "pitch": 67, "duration": 3, "velocity": 108}, {"time": 1858, "pitch": 69, "duration": 6, "velocity": 110}, {"time": 1864, "pitch": 67, "duration": 3, "velocity": 117}, {"time": 1867, "pitch": 69, "duration": 21, "velocity": 116}, {"time": 1888, "pitch": 71, "duration": 6, "velocity": 116}, {"time": 1894, "pitch": 76, "duration": 3, "velocity": 114}, {"time": 1897, "pitch": 74, "duration": 3, "velocity": 104}, {"time": 1900, "pitch": 74, "duration": 3, "velocity": 110}, {"time": 1903, "pitch": 71, "duration": 3, "velocity": 108}, {"time": 1906, "pitch": 71, "duration": 3, "velocity": 114}, {"time": 1909, "pitch": 69, "duration": 3, "velocity": 107}, {"time": 1912, "pitch": 71, "duration": 3, "velocity": 108}, {"time": 1915, "pitch": 74, "duration": 3, "velocity": 113}, {"time": 1918, "pitch": 76, "duration": 3, "velocity": 116}, {"time": 1921, "pitch": 74, "duration": 3, "velocity": 108}, {"time": 1924, "pitch": 71, "duration": 3, "velocity": 102}, {"time": 1927, "pitch": 74, "duration": 9, "velocity": 110}, {"time": 1936, "pitch": 71, "duration": 3, "velocity": 116}, {"time": 1939, "pitch": 71, "duration": 3, "velocity": 116}, {"time": 1942, "pitch": 79, "duration": 3, "velocity": 114}, {"time": 1945, "pitch": 79, "duration": 3, "velocity": 110}, {"time": 1948, "pitch": 79, "duration": 3, "velocity": 110}, {"time": 1951, "pitch": 79, "duration": 3, "velocity": 113}, {"time": 1954, "pitch": 81, "duration": 3, "velocity": 110}, {"time": 1957, "pitch": 79, "duration": 3, "velocity": 98}, {"time": 1960, "pitch": 76, "duration": 3, "velocity": 108}, {"time": 1963, "pitch": 71, "duration": 3, "velocity": 89}, {"time": 1966, "pitch": 74, "duration": 21, "velocity": 104}, {"time": 1987, "pitch": 71, "duration": 3, "velocity": 104}, {"time": 1990, "pitch": 79, "duration": 3, "velocity": 116}, {"time": 1993, "pitch": 79, "duration": 3, "velocity": 113}, {"time": 1996, "pitch": 79, "duration": 3, "velocity": 108}, {"time": 1999, "pitch": 76, "duration": 3, "velocity": 114}, {"time": 2002, "pitch": 81, "duration": 3, "velocity": 119}, {"time": 2005, "pitch": 79, "duration": 3, "velocity": 114}, {"time": 2008, "pitch": 76, "duration": 3, "velocity": 108}, {"time": 2011, "pitch": 79, "duration": 3, "velocity": 110}, {"time": 2014, "pitch": 76, "duration": 3, "velocity": 110}, {"time": 2017, "pitch": 74, "duration": 3, "velocity": 107}, {"time": 2020, "pitch": 71, "duration": 3, "velocity": 113}, {"time": 2023, "pitch": 74, "duration": 3, "velocity": 108}, {"time": 2026, "pitch": 71, "duration": 12, "velocity": 116}, {"time": 2038, "pitch": 69, "duration": 3, "velocity": 113}, {"time": 2041, "pitch": 71, "duration": 3, "velocity": 114}, {"time": 2044, "pitch": 74, "duration": 3, "velocity": 113}, {"time": 2047, "pitch": 71, "duration": 3, "velocity": 114}, {"time": 2050, "pitch": 69, "duration": 3, "velocity": 117}, {"time": 2053, "pitch": 67, "duration": 3, "velocity": 113}, {"time": 2056, "pitch": 64, "duration": 3, "velocity": 100}, {"time": 2059, "pitch": 67, "duration": 3, "velocity": 116}, {"time": 2062, "pitch": 67, "duration": 354, "velocity": 116}, {"time": 2416, "pitch": 71, "duration": 6, "velocity": 116}, {"time": 2422, "pitch": 76, "duration": 3, "velocity": 114}, {"time": 2425, "pitch": 74, "duration": 3, "velocity": 104}, {"time": 2428, "pitch": 74, "duration": 3, "velocity": 110}, {"time": 2431, "pitch": 71, "duration": 3, "velocity": 108}, {"time": 2434, "pitch": 71, "duration": 3, "velocity": 114}, {"time": 2437, "pitch": 69, "duration": 3, "velocity": 107}, {"time": 2440, "pitch": 71, "duration": 3, "velocity": 108}, {"time": 2443, "pitch": 74, "duration": 3, "velocity": 113}, {"time": 2446, "pitch": 76, "duration": 3, "velocity": 116}, {"time": 2449, "pitch": 74, "duration": 3, "velocity": 108}, {"time": 2452, "pitch": 71, "duration": 3, "velocity": 102}, {"time": 2455, "pitch": 74, "duration": 9, "velocity": 110}, {"time": 2464, "pitch": 71, "duration": 6, "velocity": 116}, {"time": 2470, "pitch": 79, "duration": 3, "velocity": 114}, {"time": 2473, "pitch": 79, "duration": 3, "velocity": 110}, {"time": 2476, "pitch": 79, "duration": 3, "velocity": 110}, {"time": 2479, "pitch": 79, "duration": 3, "velocity": 113}, {"time": 2482, "pitch": 76, "duration": 6, "velocity": 116}, {"time": 2488, "pitch": 74, "duration": 3, "velocity": 110}, {"time": 2491, "pitch": 71, "duration": 24, "velocity": 114}, {"time": 2515, "pitch": 71, "duration": 3, "velocity": 104}, {"time": 2518, "pitch": 79, "duration": 3, "velocity": 116}, {"time": 2521, "pitch": 79, "duration": 3, "velocity": 113}, {"time": 2524, "pitch": 79, "duration": 3, "velocity": 108}, {"time": 2527, "pitch": 76, "duration": 3, "velocity": 114}, {"time": 2530, "pitch": 81, "duration": 3, "velocity": 119}, {"time": 2533, "pitch": 79, "duration": 6, "velocity": 114}, {"time": 2539, "pitch": 74, "duration": 6, "velocity": 98}, {"time": 2545, "pitch": 74, "duration": 3, "velocity": 107}, {"time": 2548, "pitch": 74, "duration": 3, "velocity": 108}, {"time": 2551, "pitch": 71, "duration": 3, "velocity": 116}, {"time": 2554, "pitch": 76, "duration": 3, "velocity": 116}, {"time": 2557, "pitch": 74, "duration": 9, "velocity": 116}, {"time": 2566, "pitch": 69, "duration": 3, "velocity": 117}, {"time": 2569, "pitch": 67, "duration": 3, "velocity": 110}, {"time": 2572, "pitch": 69, "duration": 3, "velocity": 107}, {"time": 2575, "pitch": 67, "duration": 3, "velocity": 108}, {"time": 2578, "pitch": 69, "duration": 6, "velocity": 110}, {"time": 2584, "pitch": 67, "duration": 3, "velocity": 117}, {"time": 2587, "pitch": 69, "duration": 21, "velocity": 116}, {"time": 2608, "pitch": 71, "duration": 6, "velocity": 116}, {"time": 2614, "pitch": 76, "duration": 3, "velocity": 114}, {"time": 2617, "pitch": 74, "duration": 3, "velocity": 104}, {"time": 2620, "pitch": 74, "duration": 3, "velocity": 110}, {"time": 2623, "pitch": 71, "duration": 3, "velocity": 108}, {"time": 2626, "pitch": 71, "duration": 3, "velocity": 114}, {"time": 2629, "pitch": 69, "duration": 3, "velocity": 107}, {"time": 2632, "pitch": 71, "duration": 3, "velocity": 108}, {"time": 2635, "pitch": 74, "duration": 3, "velocity": 113}, {"time": 2638, "pitch": 76, "duration": 3, "velocity": 116}, {"time": 2641, "pitch": 74, "duration": 3, "velocity": 108}, {"time": 2644, "pitch": 71, "duration": 3, "velocity": 102}, {"time": 2647, "pitch": 74, "duration": 9, "velocity": 110}, {"time": 2656, "pitch": 71, "duration": 3, "velocity": 116}, {"time": 2659, "pitch": 71, "duration": 3, "velocity": 116}, {"time": 2662, "pitch": 79, "duration": 3, "velocity": 114}, {"time": 2665, "pitch": 79, "duration": 3, "velocity": 110}, {"time": 2668, "pitch": 79, "duration": 3, "velocity": 110}, {"time": 2671, "pitch": 79, "duration": 3, "velocity": 113}, {"time": 2674, "pitch": 81, "duration": 3, "velocity": 110}, {"time": 2677, "pitch": 79, "duration": 3, "velocity": 98}, {"time": 2680, "pitch": 76, "duration": 3, "velocity": 108}, {"time": 2683, "pitch": 71, "duration": 3, "velocity": 89}, {"time": 2686, "pitch": 74, "duration": 21, "velocity": 104}, {"time": 2707, "pitch": 71, "duration": 3, "velocity": 104}, {"time": 2710, "pitch": 79, "duration": 3, "velocity": 116}, {"time": 2713, "pitch": 79, "duration": 3, "velocity": 113}, {"time": 2716, "pitch": 79, "duration": 3, "velocity": 108}, {"time": 2719, "pitch": 76, "duration": 3, "velocity": 114}, {"time": 2722, "pitch": 81, "duration": 3, "velocity": 119}, {"time": 2725, "pitch": 79, "duration": 3, "velocity": 114}, {"time": 2728, "pitch": 76, "duration": 3, "velocity": 108}, {"time": 2731, "pitch": 79, "duration": 3, "velocity": 110}, {"time": 2734, "pitch": 76, "duration": 3, "velocity": 110}, {"time": 2737, "pitch": 74, "duration": 3, "velocity": 107}, {"time": 2740, "pitch": 71, "duration": 3, "velocity": 113}, {"time": 2743, "pitch": 74, "duration": 3, "velocity": 108}, {"time": 2746, "pitch": 71, "duration": 12, "velocity": 116}, {"time": 2758, "pitch": 69, "duration": 3, "velocity": 113}, {"time": 2761, "pitch": 71, "duration": 3, "velocity": 114}, {"time": 2764, "pitch": 74, "duration": 3, "velocity": 113}, {"time": 2767, "pitch": 71, "duration": 3, "velocity": 114}, {"time": 2770, "pitch": 69, "duration": 3, "velocity": 117}, {"time": 2773, "pitch": 67, "duration": 3, "velocity": 113}, {"time": 2776, "pitch": 64, "duration": 3, "velocity": 100}, {"time": 2779, "pitch": 67, "duration": 3, "velocity": 116}, {"time": 2782, "pitch": 67, "duration": 21, "velocity": 116}, {"time": 2803, "pitch": 71, "duration": 3, "velocity": 104}, {"time": 2806, "pitch": 79, "duration": 3, "velocity": 116}, {"time": 2809, "pitch": 79, "duration": 3, "velocity": 113}, {"time": 2812, "pitch": 79, "duration": 3, "velocity": 108}, {"time": 2815, "pitch": 76, "duration": 3, "velocity": 114}, {"time": 2818, "pitch": 81, "duration": 3, "velocity": 119}, {"time": 2821, "pitch": 79, "duration": 3, "velocity": 114}, {"time": 2824, "pitch": 76, "duration": 3, "velocity": 108}, {"time": 2827, "pitch": 79, "duration": 3, "velocity": 110}, {"time": 2830, "pitch": 76, "duration": 3, "velocity": 110}, {"time": 2833, "pitch": 74, "duration": 3, "velocity": 107}, {"time": 2836, "pitch": 71, "duration": 3, "velocity": 113}, {"time": 2839, "pitch": 74, "duration": 3, "velocity": 108}, {"time": 2842, "pitch": 71, "duration": 12, "velocity": 116}, {"time": 2854, "pitch": 69, "duration": 3, "velocity": 113}, {"time": 2857, "pitch": 71, "duration": 3, "velocity": 114}, {"time": 2860, "pitch": 74, "duration": 3, "velocity": 113}, {"time": 2863, "pitch": 71, "duration": 3, "velocity": 114}, {"time": 2866, "pitch": 69, "duration": 3, "velocity": 117}, {"time": 2869, "pitch": 67, "duration": 3, "velocity": 113}, {"time": 2872, "pitch": 64, "duration": 3, "velocity": 100}, {"time": 2875, "pitch": 67, "duration": 3, "velocity": 116}, {"time": 2878, "pitch": 67, "duration": 54, "velocity": 116}]}, {"program": 0, "is_drum": false, "name": "BRIDGE", "notes": [{"time": 6, "pitch": 79, "duration": 3, "velocity": 87}, {"time": 9, "pitch": 79, "duration": 3, "velocity": 87}, {"time": 12, "pitch": 79, "duration": 5, "velocity": 88}, {"time": 17, "pitch": 79, "duration": 4, "velocity": 90}, {"time": 21, "pitch": 81, "duration": 3, "velocity": 91}, {"time": 24, "pitch": 79, "duration": 4, "velocity": 91}, {"time": 28, "pitch": 76, "duration": 5, "velocity": 91}, {"time": 33, "pitch": 79, "duration": 6, "velocity": 91}, {"time": 39, "pitch": 76, "duration": 7, "velocity": 86}, {"time": 45, "pitch": 74, "duration": 6, "velocity": 85}, {"time": 51, "pitch": 72, "duration": 36, "velocity": 79}, {"time": 87, "pitch": 69, "duration": 6, "velocity": 88}, {"time": 93, "pitch": 71, "duration": 4, "velocity": 92}, {"time": 97, "pitch": 74, "duration": 5, "velocity": 98}, {"time": 102, "pitch": 71, "duration": 5, "velocity": 92}, {"time": 107, "pitch": 69, "duration": 6, "velocity": 83}, {"time": 113, "pitch": 67, "duration": 6, "velocity": 89}, {"time": 119, "pitch": 64, "duration": 7, "velocity": 86}, {"time": 126, "pitch": 67, "duration": 7, "velocity": 76}, {"time": 133, "pitch": 67, "duration": 19, "velocity": 76}, {"time": 934, "pitch": 69, "duration": 10, "velocity": 116}, {"time": 946, "pitch": 69, "duration": 6, "velocity": 116}, {"time": 952, "pitch": 67, "duration": 4, "velocity": 114}, {"time": 958, "pitch": 69, "duration": 5, "velocity": 116}, {"time": 1018, "pitch": 71, "duration": 6, "velocity": 116}, {"time": 1024, "pitch": 74, "duration": 6, "velocity": 113}, {"time": 1030, "pitch": 76, "duration": 10, "velocity": 114}, {"time": 1042, "pitch": 79, "duration": 11, "velocity": 117}, {"time": 1054, "pitch": 78, "duration": 6, "velocity": 119}, {"time": 1114, "pitch": 69, "duration": 6, "velocity": 113}, {"time": 1120, "pitch": 74, "duration": 6, "velocity": 98}, {"time": 1126, "pitch": 69, "duration": 9, "velocity": 104}, {"time": 1186, "pitch": 69, "duration": 6, "velocity": 116}, {"time": 1192, "pitch": 64, "duration": 6, "velocity": 117}, {"time": 1198, "pitch": 62, "duration": 24, "velocity": 114}, {"time": 1222, "pitch": 67, "duration": 6, "velocity": 113}, {"time": 1228, "pitch": 67, "duration": 3, "velocity": 107}, {"time": 1231, "pitch": 67, "duration": 3, "velocity": 108}, {"time": 1234, "pitch": 69, "duration": 6, "velocity": 117}, {"time": 1240, "pitch": 69, "duration": 6, "velocity": 116}, {"time": 1246, "pitch": 67, "duration": 24, "velocity": 110}, {"time": 1420, "pitch": 67, "duration": 1, "velocity": 96}, {"time": 1423, "pitch": 67, "duration": 2, "velocity": 110}, {"time": 1429, "pitch": 64, "duration": 1, "velocity": 108}, {"time": 1435, "pitch": 69, "duration": 12, "velocity": 116}, {"time": 1450, "pitch": 62, "duration": 3, "velocity": 84}, {"time": 1453, "pitch": 64, "duration": 3, "velocity": 86}, {"time": 1456, "pitch": 67, "duration": 3, "velocity": 83}, {"time": 1459, "pitch": 69, "duration": 4, "velocity": 83}, {"time": 1462, "pitch": 71, "duration": 6, "velocity": 81}, {"time": 1594, "pitch": 64, "duration": 5, "velocity": 104}, {"time": 1600, "pitch": 71, "duration": 6, "velocity": 104}, {"time": 1606, "pitch": 69, "duration": 5, "velocity": 98}, {"time": 1612, "pitch": 67, "duration": 3, "velocity": 91}, {"time": 1618, "pitch": 67, "duration": 6, "velocity": 94}, {"time": 1624, "pitch": 64, "duration": 6, "velocity": 98}, {"time": 1630, "pitch": 67, "duration": 6, "velocity": 92}, {"time": 1846, "pitch": 69, "duration": 3, "velocity": 113}, {"time": 1849, "pitch": 67, "duration": 3, "velocity": 96}, {"time": 1852, "pitch": 69, "duration": 3, "velocity": 104}, {"time": 1855, "pitch": 67, "duration": 3, "velocity": 94}, {"time": 1858, "pitch": 69, "duration": 6, "velocity": 110}, {"time": 1864, "pitch": 67, "duration": 4, "velocity": 98}, {"time": 1867, "pitch": 69, "duration": 6, "velocity": 93}, {"time": 2080, "pitch": 71, "duration": 6, "velocity": 120}, {"time": 2086, "pitch": 79, "duration": 6, "velocity": 114}, {"time": 2092, "pitch": 71, "duration": 6, "velocity": 116}, {"time": 2098, "pitch": 76, "duration": 6, "velocity": 104}, {"time": 2104, "pitch": 79, "duration": 6, "velocity": 113}, {"time": 2110, "pitch": 78, "duration": 12, "velocity": 116}, {"time": 2122, "pitch": 74, "duration": 9, "velocity": 114}, {"time": 2131, "pitch": 71, "duration": 3, "velocity": 108}, {"time": 2134, "pitch": 76, "duration": 12, "velocity": 116}, {"time": 2146, "pitch": 74, "duration": 6, "velocity": 113}, {"time": 2152, "pitch": 76, "duration": 3, "velocity": 100}, {"time": 2155, "pitch": 71, "duration": 21, "velocity": 114}, {"time": 2176, "pitch": 71, "duration": 6, "velocity": 113}, {"time": 2182, "pitch": 79, "duration": 12, "velocity": 110}, {"time": 2194, "pitch": 79, "duration": 3, "velocity": 116}, {"time": 2197, "pitch": 81, "duration": 6, "velocity": 113}, {"time": 2203, "pitch": 79, "duration": 3, "velocity": 98}, {"time": 2206, "pitch": 78, "duration": 6, "velocity": 116}, {"time": 2212, "pitch": 76, "duration": 3, "velocity": 113}, {"time": 2215, "pitch": 74, "duration": 12, "velocity": 108}, {"time": 2227, "pitch": 79, "duration": 3, "velocity": 108}, {"time": 2230, "pitch": 79, "duration": 12, "velocity": 116}, {"time": 2242, "pitch": 81, "duration": 9, "velocity": 116}, {"time": 2251, "pitch": 83, "duration": 6, "velocity": 114}, {"time": 2257, "pitch": 83, "duration": 12, "velocity": 114}, {"time": 2269, "pitch": 76, "duration": 3, "velocity": 102}, {"time": 2272, "pitch": 78, "duration": 3, "velocity": 106}, {"time": 2275, "pitch": 79, "duration": 3, "velocity": 104}, {"time": 2278, "pitch": 79, "duration": 9, "velocity": 107}, {"time": 2287, "pitch": 78, "duration": 3, "velocity": 113}, {"time": 2290, "pitch": 74, "duration": 6, "velocity": 104}, {"time": 2296, "pitch": 71, "duration": 3, "velocity": 108}, {"time": 2299, "pitch": 74, "duration": 3, "velocity": 96}, {"time": 2302, "pitch": 76, "duration": 24, "velocity": 108}, {"time": 2326, "pitch": 79, "duration": 12, "velocity": 114}, {"time": 2338, "pitch": 81, "duration": 6, "velocity": 114}, {"time": 2344, "pitch": 76, "duration": 3, "velocity": 114}, {"time": 2347, "pitch": 79, "duration": 15, "velocity": 116}, {"time": 2362, "pitch": 76, "duration": 3, "velocity": 114}, {"time": 2365, "pitch": 74, "duration": 3, "velocity": 98}, {"time": 2368, "pitch": 74, "duration": 3, "velocity": 100}, {"time": 2371, "pitch": 74, "duration": 3, "velocity": 108}, {"time": 2374, "pitch": 74, "duration": 6, "velocity": 114}, {"time": 2380, "pitch": 71, "duration": 6, "velocity": 110}, {"time": 2386, "pitch": 69, "duration": 9, "velocity": 117}, {"time": 2395, "pitch": 71, "duration": 9, "velocity": 117}, {"time": 2404, "pitch": 74, "duration": 3, "velocity": 113}, {"time": 2407, "pitch": 74, "duration": 1, "velocity": 107}, {"time": 2413, "pitch": 71, "duration": 3, "velocity": 107}, {"time": 2416, "pitch": 76, "duration": 3, "velocity": 116}, {"time": 2419, "pitch": 74, "duration": 4, "velocity": 114}, {"time": 2446, "pitch": 74, "duration": 4, "velocity": 116}, {"time": 2452, "pitch": 71, "duration": 3, "velocity": 102}, {"time": 2455, "pitch": 74, "duration": 7, "velocity": 117}, {"time": 2464, "pitch": 76, "duration": 2, "velocity": 113}, {"time": 2467, "pitch": 78, "duration": 2, "velocity": 109}, {"time": 2470, "pitch": 79, "duration": 4, "velocity": 117}, {"time": 2500, "pitch": 74, "duration": 4, "velocity": 114}, {"time": 2506, "pitch": 74, "duration": 5, "velocity": 116}, {"time": 2512, "pitch": 71, "duration": 4, "velocity": 119}, {"time": 2518, "pitch": 76, "duration": 7, "velocity": 117}, {"time": 2593, "pitch": 74, "duration": 1, "velocity": 114}, {"time": 2596, "pitch": 74, "duration": 3, "velocity": 114}, {"time": 2599, "pitch": 71, "duration": 3, "velocity": 113}, {"time": 2602, "pitch": 69, "duration": 4, "velocity": 116}, {"time": 2698, "pitch": 71, "duration": 6, "velocity": 107}, {"time": 2704, "pitch": 74, "duration": 6, "velocity": 117}, {"time": 2710, "pitch": 71, "duration": 6, "velocity": 113}, {"time": 2794, "pitch": 71, "duration": 3, "velocity": 117}, {"time": 2797, "pitch": 74, "duration": 6, "velocity": 114}, {"time": 2803, "pitch": 74, "duration": 3, "velocity": 113}, {"time": 2806, "pitch": 76, "duration": 48, "velocity": 116}, {"time": 2854, "pitch": 69, "duration": 3, "velocity": 116}, {"time": 2857, "pitch": 71, "duration": 3, "velocity": 113}, {"time": 2860, "pitch": 74, "duration": 3, "velocity": 110}, {"time": 2863, "pitch": 71, "duration": 3, "velocity": 113}, {"time": 2866, "pitch": 69, "duration": 9, "velocity": 116}, {"time": 2875, "pitch": 67, "duration": 3, "velocity": 104}, {"time": 2878, "pitch": 67, "duration": 24, "velocity": 117}, {"time": 2902, "pitch": 79, "duration": 4, "velocity": 116}, {"time": 2905, "pitch": 76, "duration": 3, "velocity": 108}, {"time": 2908, "pitch": 74, "duration": 3, "velocity": 102}, {"time": 2911, "pitch": 71, "duration": 3, "velocity": 110}, {"time": 2914, "pitch": 69, "duration": 3, "velocity": 110}, {"time": 2917, "pitch": 71, "duration": 3, "velocity": 100}, {"time": 2920, "pitch": 76, "duration": 3, "velocity": 113}, {"time": 2923, "pitch": 74, "duration": 21, "velocity": 116}, {"time": 2944, "pitch": 76, "duration": 3, "velocity": 113}, {"time": 2947, "pitch": 79, "duration": 3, "velocity": 110}, {"time": 2950, "pitch": 79, "duration": 6, "velocity": 116}, {"time": 2956, "pitch": 76, "duration": 3, "velocity": 88}, {"time": 2959, "pitch": 79, "duration": 3, "velocity": 104}, {"time": 2962, "pitch": 81, "duration": 6, "velocity": 116}, {"time": 2968, "pitch": 79, "duration": 3, "velocity": 108}, {"time": 2971, "pitch": 83, "duration": 27, "velocity": 116}, {"time": 2998, "pitch": 76, "duration": 3, "velocity": 114}, {"time": 3001, "pitch": 76, "duration": 3, "velocity": 110}, {"time": 3004, "pitch": 74, "duration": 3, "velocity": 104}, {"time": 3007, "pitch": 71, "duration": 3, "velocity": 102}, {"time": 3010, "pitch": 69, "duration": 3, "velocity": 102}, {"time": 3013, "pitch": 71, "duration": 3, "velocity": 91}, {"time": 3016, "pitch": 76, "duration": 3, "velocity": 114}, {"time": 3019, "pitch": 74, "duration": 21, "velocity": 114}, {"time": 3040, "pitch": 76, "duration": 3, "velocity": 102}, {"time": 3043, "pitch": 79, "duration": 3, "velocity": 114}, {"time": 3046, "pitch": 79, "duration": 6, "velocity": 116}, {"time": 3052, "pitch": 76, "duration": 6, "velocity": 116}, {"time": 3058, "pitch": 81, "duration": 6, "velocity": 116}, {"time": 3064, "pitch": 81, "duration": 3, "velocity": 110}, {"time": 3067, "pitch": 79, "duration": 3, "velocity": 88}, {"time": 3070, "pitch": 76, "duration": 18, "velocity": 110}, {"time": 3088, "pitch": 76, "duration": 3, "velocity": 116}, {"time": 3091, "pitch": 78, "duration": 3, "velocity": 113}, {"time": 3094, "pitch": 79, "duration": 12, "velocity": 116}, {"time": 3106, "pitch": 81, "duration": 6, "velocity": 117}, {"time": 3112, "pitch": 74, "duration": 3, "velocity": 110}, {"time": 3115, "pitch": 83, "duration": 6, "velocity": 119}, {"time": 3121, "pitch": 76, "duration": 15, "velocity": 113}, {"time": 3136, "pitch": 76, "duration": 3, "velocity": 117}, {"time": 3139, "pitch": 79, "duration": 3, "velocity": 116}, {"time": 3142, "pitch": 79, "duration": 6, "velocity": 119}, {"time": 3148, "pitch": 76, "duration": 6, "velocity": 110}, {"time": 3154, "pitch": 81, "duration": 6, "velocity": 117}, {"time": 3160, "pitch": 79, "duration": 3, "velocity": 108}, {"time": 3163, "pitch": 83, "duration": 27, "velocity": 116}, {"time": 3190, "pitch": 76, "duration": 12, "velocity": 113}, {"time": 3202, "pitch": 76, "duration": 9, "velocity": 108}, {"time": 3211, "pitch": 71, "duration": 9, "velocity": 104}, {"time": 3220, "pitch": 69, "duration": 6, "velocity": 110}, {"time": 3226, "pitch": 76, "duration": 7, "velocity": 107}, {"time": 3232, "pitch": 68, "duration": 18, "velocity": 116}]}, {"program": 0, "is_drum": false, "name": "PIANO", "notes": [{"time": 358, "pitch": 43, "duration": 19, "velocity": 96}, {"time": 361, "pitch": 50, "duration": 17, "velocity": 74}, {"time": 364, "pitch": 55, "duration": 12, "velocity": 84}, {"time": 367, "pitch": 59, "duration": 16, "velocity": 76}, {"time": 370, "pitch": 62, "duration": 13, "velocity": 87}, {"time": 376, "pitch": 67, "duration": 7, "velocity": 87}, {"time": 382, "pitch": 42, "duration": 19, "velocity": 83}, {"time": 385, "pitch": 50, "duration": 15, "velocity": 75}, {"time": 388, "pitch": 54, "duration": 6, "velocity": 83}, {"time": 391, "pitch": 57, "duration": 14, "velocity": 94}, {"time": 391, "pitch": 66, "duration": 9, "velocity": 95}, {"time": 397, "pitch": 54, "duration": 3, "velocity": 86}, {"time": 400, "pitch": 62, "duration": 6, "velocity": 87}, {"time": 403, "pitch": 66, "duration": 4, "velocity": 86}, {"time": 406, "pitch": 47, "duration": 19, "velocity": 84}, {"time": 409, "pitch": 54, "duration": 16, "velocity": 79}, {"time": 412, "pitch": 59, "duration": 7, "velocity": 84}, {"time": 415, "pitch": 62, "duration": 2, "velocity": 84}, {"time": 418, "pitch": 62, "duration": 10, "velocity": 87}, {"time": 418, "pitch": 66, "duration": 7, "velocity": 113}, {"time": 424, "pitch": 59, "duration": 2, "velocity": 81}, {"time": 430, "pitch": 52, "duration": 7, "velocity": 83}, {"time": 430, "pitch": 59, "duration": 10, "velocity": 81}, {"time": 430, "pitch": 62, "duration": 11, "velocity": 89}, {"time": 430, "pitch": 67, "duration": 10, "velocity": 89}, {"time": 439, "pitch": 52, "duration": 5, "velocity": 87}, {"time": 442, "pitch": 59, "duration": 6, "velocity": 102}, {"time": 445, "pitch": 62, "duration": 8, "velocity": 87}, {"time": 448, "pitch": 64, "duration": 5, "velocity": 80}, {"time": 454, "pitch": 47, "duration": 16, "velocity": 84}, {"time": 454, "pitch": 62, "duration": 9, "velocity": 88}, {"time": 454, "pitch": 66, "duration": 10, "velocity": 88}, {"time": 454, "pitch": 69, "duration": 9, "velocity": 88}, {"time": 463, "pitch": 54, "duration": 5, "velocity": 66}, {"time": 466, "pitch": 62, "duration": 9, "velocity": 91}, {"time": 466, "pitch": 66, "duration": 6, "velocity": 100}, {"time": 466, "pitch": 69, "duration": 6, "velocity": 91}, {"time": 472, "pitch": 47, "duration": 4, "velocity": 86}, {"time": 478, "pitch": 52, "duration": 8, "velocity": 83}, {"time": 478, "pitch": 59, "duration": 11, "velocity": 84}, {"time": 478, "pitch": 62, "duration": 10, "velocity": 86}, {"time": 478, "pitch": 64, "duration": 11, "velocity": 86}, {"time": 478, "pitch": 67, "duration": 10, "velocity": 84}, {"time": 487, "pitch": 52, "duration": 9, "velocity": 86}, {"time": 490, "pitch": 59, "duration": 6, "velocity": 91}, {"time": 493, "pitch": 62, "duration": 3, "velocity": 87}, {"time": 496, "pitch": 67, "duration": 4, "velocity": 87}, {"time": 502, "pitch": 45, "duration": 18, "velocity": 85}, {"time": 502, "pitch": 57, "duration": 14, "velocity": 82}, {"time": 502, "pitch": 60, "duration": 14, "velocity": 88}, {"time": 502, "pitch": 64, "duration": 14, "velocity": 86}, {"time": 514, "pitch": 52, "duration": 4, "velocity": 80}, {"time": 517, "pitch": 57, "duration": 4, "velocity": 88}, {"time": 520, "pitch": 60, "duration": 5, "velocity": 89}, {"time": 523, "pitch": 64, "duration": 2, "velocity": 52}, {"time": 526, "pitch": 38, "duration": 17, "velocity": 83}, {"time": 526, "pitch": 50, "duration": 8, "velocity": 80}, {"time": 526, "pitch": 57, "duration": 13, "velocity": 77}, {"time": 526, "pitch": 62, "duration": 14, "velocity": 84}, {"time": 526, "pitch": 66, "duration": 14, "velocity": 90}, {"time": 538, "pitch": 50, "duration": 6, "velocity": 87}, {"time": 541, "pitch": 57, "duration": 4, "velocity": 90}, {"time": 544, "pitch": 66, "duration": 5, "velocity": 91}, {"time": 550, "pitch": 43, "duration": 18, "velocity": 77}, {"time": 550, "pitch": 59, "duration": 10, "velocity": 79}, {"time": 550, "pitch": 62, "duration": 9, "velocity": 75}, {"time": 550, "pitch": 67, "duration": 5, "velocity": 87}, {"time": 556, "pitch": 50, "duration": 14, "velocity": 70}, {"time": 559, "pitch": 55, "duration": 9, "velocity": 86}, {"time": 565, "pitch": 57, "duration": 6, "velocity": 78}, {"time": 568, "pitch": 59, "duration": 7, "velocity": 87}, {"time": 571, "pitch": 62, "duration": 4, "velocity": 87}, {"time": 574, "pitch": 42, "duration": 18, "velocity": 84}, {"time": 577, "pitch": 50, "duration": 13, "velocity": 67}, {"time": 583, "pitch": 54, "duration": 4, "velocity": 80}, {"time": 586, "pitch": 57, "duration": 5, "velocity": 100}, {"time": 586, "pitch": 66, "duration": 6, "velocity": 97}, {"time": 589, "pitch": 54, "duration": 5, "velocity": 86}, {"time": 592, "pitch": 57, "duration": 2, "velocity": 76}, {"time": 592, "pitch": 62, "duration": 4, "velocity": 81}, {"time": 598, "pitch": 47, "duration": 15, "velocity": 84}, {"time": 598, "pitch": 62, "duration": 6, "velocity": 91}, {"time": 598, "pitch": 66, "duration": 7, "velocity": 87}, {"time": 610, "pitch": 62, "duration": 8, "velocity": 88}, {"time": 610, "pitch": 66, "duration": 6, "velocity": 95}, {"time": 610, "pitch": 69, "duration": 6, "velocity": 93}, {"time": 616, "pitch": 47, "duration": 4, "velocity": 86}, {"time": 622, "pitch": 52, "duration": 16, "velocity": 86}, {"time": 622, "pitch": 59, "duration": 11, "velocity": 86}, {"time": 622, "pitch": 64, "duration": 11, "velocity": 86}, {"time": 622, "pitch": 67, "duration": 10, "velocity": 85}, {"time": 634, "pitch": 59, "duration": 7, "velocity": 104}, {"time": 634, "pitch": 64, "duration": 7, "velocity": 113}, {"time": 634, "pitch": 67, "duration": 7, "velocity": 102}, {"time": 640, "pitch": 52, "duration": 4, "velocity": 87}, {"time": 646, "pitch": 48, "duration": 14, "velocity": 92}, {"time": 646, "pitch": 60, "duration": 8, "velocity": 86}, {"time": 646, "pitch": 64, "duration": 8, "velocity": 89}, {"time": 646, "pitch": 67, "duration": 8, "velocity": 88}, {"time": 658, "pitch": 60, "duration": 8, "velocity": 89}, {"time": 658, "pitch": 64, "duration": 10, "velocity": 93}, {"time": 658, "pitch": 67, "duration": 9, "velocity": 89}, {"time": 670, "pitch": 43, "duration": 19, "velocity": 87}, {"time": 670, "pitch": 59, "duration": 9, "velocity": 86}, {"time": 670, "pitch": 62, "duration": 9, "velocity": 88}, {"time": 670, "pitch": 67, "duration": 9, "velocity": 87}, {"time": 679, "pitch": 55, "duration": 6, "velocity": 82}, {"time": 682, "pitch": 59, "duration": 6, "velocity": 89}, {"time": 682, "pitch": 62, "duration": 6, "velocity": 100}, {"time": 682, "pitch": 67, "duration": 9, "velocity": 89}, {"time": 688, "pitch": 55, "duration": 4, "velocity": 78}, {"time": 694, "pitch": 45, "duration": 12, "velocity": 87}, {"time": 700, "pitch": 57, "duration": 4, "velocity": 82}, {"time": 706, "pitch": 38, "duration": 3, "velocity": 87}, {"time": 706, "pitch": 50, "duration": 12, "velocity": 82}, {"time": 706, "pitch": 57, "duration": 9, "velocity": 84}, {"time": 706, "pitch": 62, "duration": 11, "velocity": 88}, {"time": 706, "pitch": 66, "duration": 8, "velocity": 83}, {"time": 718, "pitch": 43, "duration": 20, "velocity": 83}, {"time": 718, "pitch": 59, "duration": 9, "velocity": 80}, {"time": 718, "pitch": 62, "duration": 8, "velocity": 75}, {"time": 718, "pitch": 67, "duration": 6, "velocity": 83}, {"time": 724, "pitch": 50, "duration": 18, "velocity": 71}, {"time": 727, "pitch": 55, "duration": 12, "velocity": 85}, {"time": 730, "pitch": 60, "duration": 10, "velocity": 87}, {"time": 742, "pitch": 38, "duration": 42, "velocity": 86}, {"time": 742, "pitch": 57, "duration": 11, "velocity": 81}, {"time": 742, "pitch": 62, "duration": 11, "velocity": 79}, {"time": 742, "pitch": 66, "duration": 12, "velocity": 77}, {"time": 754, "pitch": 50, "duration": 21, "velocity": 84}, {"time": 760, "pitch": 71, "duration": 6, "velocity": 96}, {"time": 766, "pitch": 62, "duration": 13, "velocity": 87}, {"time": 766, "pitch": 66, "duration": 14, "velocity": 91}, {"time": 766, "pitch": 69, "duration": 15, "velocity": 88}, {"time": 778, "pitch": 50, "duration": 7, "velocity": 87}, {"time": 781, "pitch": 62, "duration": 4, "velocity": 91}, {"time": 784, "pitch": 66, "duration": 2, "velocity": 116}, {"time": 790, "pitch": 43, "duration": 20, "velocity": 90}, {"time": 790, "pitch": 59, "duration": 9, "velocity": 87}, {"time": 790, "pitch": 62, "duration": 6, "velocity": 104}, {"time": 790, "pitch": 67, "duration": 8, "velocity": 92}, {"time": 796, "pitch": 50, "duration": 17, "velocity": 68}, {"time": 799, "pitch": 55, "duration": 4, "velocity": 86}, {"time": 802, "pitch": 59, "duration": 8, "velocity": 102}, {"time": 802, "pitch": 62, "duration": 11, "velocity": 113}, {"time": 802, "pitch": 67, "duration": 8, "velocity": 107}, {"time": 808, "pitch": 55, "duration": 2, "velocity": 78}, {"time": 814, "pitch": 42, "duration": 18, "velocity": 85}, {"time": 814, "pitch": 57, "duration": 9, "velocity": 98}, {"time": 814, "pitch": 62, "duration": 9, "velocity": 102}, {"time": 814, "pitch": 66, "duration": 9, "velocity": 97}, {"time": 820, "pitch": 50, "duration": 12, "velocity": 76}, {"time": 823, "pitch": 54, "duration": 4, "velocity": 87}, {"time": 826, "pitch": 57, "duration": 6, "velocity": 98}, {"time": 826, "pitch": 62, "duration": 6, "velocity": 113}, {"time": 826, "pitch": 66, "duration": 8, "velocity": 106}, {"time": 832, "pitch": 54, "duration": 4, "velocity": 86}, {"time": 838, "pitch": 40, "duration": 18, "velocity": 91}, {"time": 838, "pitch": 59, "duration": 9, "velocity": 96}, {"time": 838, "pitch": 64, "duration": 9, "velocity": 100}, {"time": 838, "pitch": 67, "duration": 9, "velocity": 94}, {"time": 847, "pitch": 52, "duration": 5, "velocity": 87}, {"time": 850, "pitch": 59, "duration": 8, "velocity": 104}, {"time": 850, "pitch": 64, "duration": 9, "velocity": 108}, {"time": 850, "pitch": 67, "duration": 9, "velocity": 100}, {"time": 856, "pitch": 52, "duration": 4, "velocity": 87}, {"time": 862, "pitch": 47, "duration": 19, "velocity": 91}, {"time": 862, "pitch": 62, "duration": 9, "velocity": 86}, {"time": 862, "pitch": 66, "duration": 9, "velocity": 91}, {"time": 862, "pitch": 69, "duration": 8, "velocity": 89}, {"time": 868, "pitch": 54, "duration": 14, "velocity": 70}, {"time": 871, "pitch": 59, "duration": 4, "velocity": 87}, {"time": 874, "pitch": 62, "duration": 5, "velocity": 113}, {"time": 874, "pitch": 69, "duration": 5, "velocity": 108}, {"time": 877, "pitch": 59, "duration": 4, "velocity": 87}, {"time": 880, "pitch": 62, "duration": 1, "velocity": 83}, {"time": 880, "pitch": 66, "duration": 2, "velocity": 116}, {"time": 886, "pitch": 48, "duration": 19, "velocity": 100}, {"time": 892, "pitch": 55, "duration": 7, "velocity": 85}, {"time": 895, "pitch": 60, "duration": 2, "velocity": 83}, {"time": 898, "pitch": 60, "duration": 4, "velocity": 94}, {"time": 898, "pitch": 67, "duration": 5, "velocity": 113}, {"time": 901, "pitch": 55, "duration": 4, "velocity": 86}, {"time": 904, "pitch": 64, "duration": 9, "velocity": 86}, {"time": 904, "pitch": 67, "duration": 1, "velocity": 71}, {"time": 907, "pitch": 60, "duration": 4, "velocity": 84}, {"time": 910, "pitch": 43, "duration": 20, "velocity": 86}, {"time": 913, "pitch": 50, "duration": 20, "velocity": 84}, {"time": 916, "pitch": 55, "duration": 7, "velocity": 89}, {"time": 919, "pitch": 59, "duration": 1, "velocity": 72}, {"time": 922, "pitch": 59, "duration": 8, "velocity": 98}, {"time": 922, "pitch": 67, "duration": 8, "velocity": 108}, {"time": 928, "pitch": 55, "duration": 3, "velocity": 81}, {"time": 931, "pitch": 57, "duration": 2, "velocity": 82}, {"time": 934, "pitch": 45, "duration": 20, "velocity": 89}, {"time": 937, "pitch": 52, "duration": 16, "velocity": 84}, {"time": 940, "pitch": 57, "duration": 7, "velocity": 91}, {"time": 943, "pitch": 59, "duration": 2, "velocity": 87}, {"time": 946, "pitch": 60, "duration": 5, "velocity": 108}, {"time": 946, "pitch": 64, "duration": 4, "velocity": 113}, {"time": 949, "pitch": 57, "duration": 3, "velocity": 104}, {"time": 952, "pitch": 60, "duration": 5, "velocity": 93}, {"time": 952, "pitch": 64, "duration": 3, "velocity": 100}, {"time": 958, "pitch": 38, "duration": 18, "velocity": 96}, {"time": 958, "pitch": 57, "duration": 6, "velocity": 94}, {"time": 958, "pitch": 62, "duration": 4, "velocity": 110}, {"time": 958, "pitch": 66, "duration": 4, "velocity": 97}, {"time": 961, "pitch": 45, "duration": 8, "velocity": 84}, {"time": 964, "pitch": 50, "duration": 4, "velocity": 104}, {"time": 967, "pitch": 54, "duration": 7, "velocity": 106}, {"time": 967, "pitch": 62, "duration": 3, "velocity": 67}, {"time": 970, "pitch": 45, "duration": 6, "velocity": 87}, {"time": 970, "pitch": 50, "duration": 7, "velocity": 117}, {"time": 973, "pitch": 57, "duration": 8, "velocity": 110}, {"time": 976, "pitch": 62, "duration": 4, "velocity": 108}, {"time": 979, "pitch": 50, "duration": 1, "velocity": 78}, {"time": 982, "pitch": 43, "duration": 20, "velocity": 91}, {"time": 982, "pitch": 55, "duration": 1, "velocity": 89}, {"time": 982, "pitch": 59, "duration": 3, "velocity": 102}, {"time": 982, "pitch": 62, "duration": 3, "velocity": 98}, {"time": 985, "pitch": 50, "duration": 16, "velocity": 74}, {"time": 988, "pitch": 55, "duration": 6, "velocity": 87}, {"time": 991, "pitch": 59, "duration": 1, "velocity": 86}, {"time": 994, "pitch": 59, "duration": 4, "velocity": 113}, {"time": 994, "pitch": 62, "duration": 4, "velocity": 116}, {"time": 994, "pitch": 67, "duration": 4, "velocity": 114}, {"time": 997, "pitch": 55, "duration": 4, "velocity": 93}, {"time": 1000, "pitch": 59, "duration": 4, "velocity": 94}, {"time": 1003, "pitch": 62, "duration": 4, "velocity": 96}, {"time": 1006, "pitch": 42, "duration": 18, "velocity": 100}, {"time": 1009, "pitch": 54, "duration": 8, "velocity": 87}, {"time": 1012, "pitch": 57, "duration": 1, "velocity": 88}, {"time": 1015, "pitch": 57, "duration": 4, "velocity": 108}, {"time": 1015, "pitch": 66, "duration": 7, "velocity": 119}, {"time": 1021, "pitch": 54, "duration": 4, "velocity": 113}, {"time": 1024, "pitch": 57, "duration": 3, "velocity": 113}, {"time": 1027, "pitch": 62, "duration": 2, "velocity": 88}, {"time": 1027, "pitch": 66, "duration": 1, "velocity": 70}, {"time": 1030, "pitch": 52, "duration": 19, "velocity": 88}, {"time": 1030, "pitch": 64, "duration": 6, "velocity": 110}, {"time": 1030, "pitch": 67, "duration": 6, "velocity": 93}, {"time": 1036, "pitch": 59, "duration": 7, "velocity": 79}, {"time": 1039, "pitch": 62, "duration": 1, "velocity": 84}, {"time": 1042, "pitch": 62, "duration": 5, "velocity": 116}, {"time": 1042, "pitch": 67, "duration": 4, "velocity": 114}, {"time": 1045, "pitch": 59, "duration": 4, "velocity": 91}, {"time": 1048, "pitch": 64, "duration": 5, "velocity": 94}, {"time": 1051, "pitch": 67, "duration": 2, "velocity": 85}, {"time": 1054, "pitch": 47, "duration": 20, "velocity": 89}, {"time": 1057, "pitch": 54, "duration": 17, "velocity": 76}, {"time": 1060, "pitch": 59, "duration": 6, "velocity": 82}, {"time": 1063, "pitch": 62, "duration": 7, "velocity": 91}, {"time": 1063, "pitch": 69, "duration": 11, "velocity": 108}, {"time": 1069, "pitch": 59, "duration": 5, "velocity": 88}, {"time": 1072, "pitch": 66, "duration": 3, "velocity": 109}, {"time": 1075, "pitch": 62, "duration": 2, "velocity": 96}, {"time": 1078, "pitch": 48, "duration": 20, "velocity": 89}, {"time": 1078, "pitch": 60, "duration": 5, "velocity": 107}, {"time": 1078, "pitch": 64, "duration": 9, "velocity": 104}, {"time": 1078, "pitch": 67, "duration": 8, "velocity": 104}, {"time": 1087, "pitch": 55, "duration": 4, "velocity": 88}, {"time": 1090, "pitch": 60, "duration": 8, "velocity": 107}, {"time": 1090, "pitch": 64, "duration": 9, "velocity": 114}, {"time": 1090, "pitch": 67, "duration": 8, "velocity": 91}, {"time": 1096, "pitch": 55, "duration": 2, "velocity": 81}, {"time": 1099, "pitch": 67, "duration": 12, "velocity": 94}, {"time": 1102, "pitch": 43, "duration": 20, "velocity": 86}, {"time": 1102, "pitch": 59, "duration": 9, "velocity": 88}, {"time": 1102, "pitch": 62, "duration": 10, "velocity": 93}, {"time": 1108, "pitch": 50, "duration": 14, "velocity": 78}, {"time": 1111, "pitch": 55, "duration": 5, "velocity": 87}, {"time": 1114, "pitch": 59, "duration": 5, "velocity": 104}, {"time": 1114, "pitch": 67, "duration": 5, "velocity": 96}, {"time": 1117, "pitch": 55, "duration": 5, "velocity": 93}, {"time": 1120, "pitch": 62, "duration": 4, "velocity": 104}, {"time": 1126, "pitch": 45, "duration": 8, "velocity": 98}, {"time": 1129, "pitch": 52, "duration": 6, "velocity": 86}, {"time": 1132, "pitch": 60, "duration": 4, "velocity": 88}, {"time": 1135, "pitch": 64, "duration": 5, "velocity": 88}, {"time": 1138, "pitch": 50, "duration": 8, "velocity": 88}, {"time": 1141, "pitch": 57, "duration": 4, "velocity": 87}, {"time": 1144, "pitch": 62, "duration": 10, "velocity": 91}, {"time": 1147, "pitch": 66, "duration": 8, "velocity": 97}, {"time": 1150, "pitch": 38, "duration": 2, "velocity": 83}, {"time": 1150, "pitch": 43, "duration": 21, "velocity": 84}, {"time": 1153, "pitch": 50, "duration": 21, "velocity": 81}, {"time": 1156, "pitch": 55, "duration": 8, "velocity": 84}, {"time": 1159, "pitch": 59, "duration": 3, "velocity": 82}, {"time": 1162, "pitch": 62, "duration": 4, "velocity": 87}, {"time": 1162, "pitch": 67, "duration": 4, "velocity": 88}, {"time": 1165, "pitch": 55, "duration": 6, "velocity": 89}, {"time": 1168, "pitch": 59, "duration": 1, "velocity": 86}, {"time": 1174, "pitch": 48, "duration": 13, "velocity": 96}, {"time": 1174, "pitch": 60, "duration": 5, "velocity": 91}, {"time": 1174, "pitch": 64, "duration": 9, "velocity": 102}, {"time": 1174, "pitch": 67, "duration": 7, "velocity": 93}, {"time": 1183, "pitch": 55, "duration": 4, "velocity": 87}, {"time": 1186, "pitch": 60, "duration": 9, "velocity": 102}, {"time": 1186, "pitch": 64, "duration": 12, "velocity": 113}, {"time": 1186, "pitch": 67, "duration": 8, "velocity": 91}, {"time": 1192, "pitch": 48, "duration": 7, "velocity": 84}, {"time": 1198, "pitch": 43, "duration": 13, "velocity": 75}, {"time": 1198, "pitch": 59, "duration": 9, "velocity": 88}, {"time": 1198, "pitch": 62, "duration": 9, "velocity": 91}, {"time": 1198, "pitch": 67, "duration": 9, "velocity": 88}, {"time": 1204, "pitch": 50, "duration": 7, "velocity": 84}, {"time": 1207, "pitch": 55, "duration": 4, "velocity": 87}, {"time": 1210, "pitch": 59, "duration": 5, "velocity": 91}, {"time": 1210, "pitch": 62, "duration": 6, "velocity": 94}, {"time": 1210, "pitch": 67, "duration": 6, "velocity": 89}, {"time": 1222, "pitch": 67, "duration": 10, "velocity": 89}, {"time": 1222, "pitch": 64, "duration": 6, "velocity": 91}, {"time": 1222, "pitch": 48, "duration": 10, "velocity": 87}, {"time": 1222, "pitch": 60, "duration": 6, "velocity": 86}, {"time": 1227, "pitch": 55, "duration": 7, "velocity": 80}, {"time": 1233, "pitch": 66, "duration": 12, "velocity": 88}, {"time": 1233, "pitch": 62, "duration": 11, "velocity": 93}, {"time": 1234, "pitch": 57, "duration": 8, "velocity": 89}, {"time": 1234, "pitch": 50, "duration": 12, "velocity": 85}, {"time": 1246, "pitch": 62, "duration": 6, "velocity": 91}, {"time": 1246, "pitch": 59, "duration": 6, "velocity": 89}, {"time": 1246, "pitch": 67, "duration": 6, "velocity": 87}, {"time": 1246, "pitch": 43, "duration": 21, "velocity": 85}, {"time": 1248, "pitch": 50, "duration": 19, "velocity": 81}, {"time": 1252, "pitch": 55, "duration": 6, "velocity": 84}, {"time": 1255, "pitch": 57, "duration": 2, "velocity": 86}, {"time": 1257, "pitch": 62, "duration": 7, "velocity": 94}, {"time": 1258, "pitch": 59, "duration": 6, "velocity": 90}, {"time": 1264, "pitch": 55, "duration": 3, "velocity": 83}, {"time": 1270, "pitch": 43, "duration": 19, "velocity": 96}, {"time": 1273, "pitch": 50, "duration": 17, "velocity": 74}, {"time": 1276, "pitch": 55, "duration": 12, "velocity": 84}, {"time": 1279, "pitch": 59, "duration": 16, "velocity": 76}, {"time": 1282, "pitch": 62, "duration": 13, "velocity": 87}, {"time": 1288, "pitch": 67, "duration": 7, "velocity": 87}, {"time": 1294, "pitch": 42, "duration": 19, "velocity": 83}, {"time": 1297, "pitch": 50, "duration": 15, "velocity": 75}, {"time": 1300, "pitch": 54, "duration": 6, "velocity": 83}, {"time": 1303, "pitch": 57, "duration": 14, "velocity": 94}, {"time": 1303, "pitch": 66, "duration": 9, "velocity": 95}, {"time": 1309, "pitch": 54, "duration": 3, "velocity": 86}, {"time": 1312, "pitch": 62, "duration": 6, "velocity": 87}, {"time": 1315, "pitch": 66, "duration": 4, "velocity": 86}, {"time": 1318, "pitch": 47, "duration": 19, "velocity": 84}, {"time": 1321, "pitch": 54, "duration": 16, "velocity": 79}, {"time": 1324, "pitch": 59, "duration": 7, "velocity": 84}, {"time": 1327, "pitch": 62, "duration": 2, "velocity": 84}, {"time": 1330, "pitch": 62, "duration": 10, "velocity": 87}, {"time": 1330, "pitch": 66, "duration": 7, "velocity": 113}, {"time": 1336, "pitch": 59, "duration": 2, "velocity": 81}, {"time": 1342, "pitch": 52, "duration": 7, "velocity": 83}, {"time": 1342, "pitch": 59, "duration": 10, "velocity": 81}, {"time": 1342, "pitch": 62, "duration": 11, "velocity": 89}, {"time": 1342, "pitch": 67, "duration": 10, "velocity": 89}, {"time": 1351, "pitch": 52, "duration": 5, "velocity": 87}, {"time": 1354, "pitch": 59, "duration": 6, "velocity": 102}, {"time": 1357, "pitch": 62, "duration": 8, "velocity": 87}, {"time": 1360, "pitch": 64, "duration": 5, "velocity": 80}, {"time": 1366, "pitch": 47, "duration": 16, "velocity": 84}, {"time": 1366, "pitch": 62, "duration": 9, "velocity": 88}, {"time": 1366, "pitch": 66, "duration": 10, "velocity": 88}, {"time": 1366, "pitch": 69, "duration": 9, "velocity": 88}, {"time": 1375, "pitch": 54, "duration": 5, "velocity": 66}, {"time": 1378, "pitch": 62, "duration": 9, "velocity": 91}, {"time": 1378, "pitch": 66, "duration": 6, "velocity": 100}, {"time": 1378, "pitch": 69, "duration": 6, "velocity": 91}, {"time": 1384, "pitch": 47, "duration": 4, "velocity": 86}, {"time": 1390, "pitch": 52, "duration": 8, "velocity": 83}, {"time": 1390, "pitch": 59, "duration": 11, "velocity": 84}, {"time": 1390, "pitch": 62, "duration": 10, "velocity": 86}, {"time": 1390, "pitch": 64, "duration": 11, "velocity": 86}, {"time": 1390, "pitch": 67, "duration": 10, "velocity": 84}, {"time": 1399, "pitch": 52, "duration": 9, "velocity": 86}, {"time": 1402, "pitch": 59, "duration": 6, "velocity": 91}, {"time": 1405, "pitch": 62, "duration": 3, "velocity": 87}, {"time": 1408, "pitch": 67, "duration": 4, "velocity": 87}, {"time": 1414, "pitch": 45, "duration": 18, "velocity": 85}, {"time": 1414, "pitch": 57, "duration": 14, "velocity": 82}, {"time": 1414, "pitch": 60, "duration": 14, "velocity": 88}, {"time": 1414, "pitch": 64, "duration": 14, "velocity": 86}, {"time": 1426, "pitch": 52, "duration": 4, "velocity": 80}, {"time": 1429, "pitch": 57, "duration": 4, "velocity": 88}, {"time": 1432, "pitch": 60, "duration": 5, "velocity": 89}, {"time": 1435, "pitch": 64, "duration": 2, "velocity": 52}, {"time": 1438, "pitch": 38, "duration": 17, "velocity": 83}, {"time": 1438, "pitch": 50, "duration": 8, "velocity": 80}, {"time": 1438, "pitch": 57, "duration": 13, "velocity": 77}, {"time": 1438, "pitch": 62, "duration": 14, "velocity": 84}, {"time": 1438, "pitch": 66, "duration": 14, "velocity": 90}, {"time": 1450, "pitch": 50, "duration": 6, "velocity": 87}, {"time": 1453, "pitch": 57, "duration": 4, "velocity": 90}, {"time": 1456, "pitch": 66, "duration": 5, "velocity": 91}, {"time": 1462, "pitch": 43, "duration": 18, "velocity": 77}, {"time": 1462, "pitch": 59, "duration": 10, "velocity": 79}, {"time": 1462, "pitch": 62, "duration": 9, "velocity": 75}, {"time": 1462, "pitch": 67, "duration": 5, "velocity": 87}, {"time": 1468, "pitch": 50, "duration": 14, "velocity": 70}, {"time": 1471, "pitch": 55, "duration": 9, "velocity": 86}, {"time": 1477, "pitch": 57, "duration": 6, "velocity": 78}, {"time": 1480, "pitch": 59, "duration": 7, "velocity": 87}, {"time": 1483, "pitch": 62, "duration": 4, "velocity": 87}, {"time": 1486, "pitch": 42, "duration": 18, "velocity": 84}, {"time": 1489, "pitch": 50, "duration": 13, "velocity": 67}, {"time": 1495, "pitch": 54, "duration": 4, "velocity": 80}, {"time": 1498, "pitch": 57, "duration": 5, "velocity": 100}, {"time": 1498, "pitch": 66, "duration": 6, "velocity": 97}, {"time": 1501, "pitch": 54, "duration": 5, "velocity": 86}, {"time": 1504, "pitch": 57, "duration": 2, "velocity": 76}, {"time": 1504, "pitch": 62, "duration": 4, "velocity": 81}, {"time": 1510, "pitch": 47, "duration": 15, "velocity": 84}, {"time": 1510, "pitch": 62, "duration": 6, "velocity": 91}, {"time": 1510, "pitch": 66, "duration": 7, "velocity": 87}, {"time": 1522, "pitch": 62, "duration": 8, "velocity": 88}, {"time": 1522, "pitch": 66, "duration": 6, "velocity": 95}, {"time": 1522, "pitch": 69, "duration": 6, "velocity": 93}, {"time": 1528, "pitch": 47, "duration": 4, "velocity": 86}, {"time": 1534, "pitch": 52, "duration": 16, "velocity": 86}, {"time": 1534, "pitch": 59, "duration": 11, "velocity": 86}, {"time": 1534, "pitch": 64, "duration": 11, "velocity": 86}, {"time": 1534, "pitch": 67, "duration": 10, "velocity": 85}, {"time": 1546, "pitch": 59, "duration": 7, "velocity": 104}, {"time": 1546, "pitch": 64, "duration": 7, "velocity": 113}, {"time": 1546, "pitch": 67, "duration": 7, "velocity": 102}, {"time": 1552, "pitch": 52, "duration": 4, "velocity": 87}, {"time": 1558, "pitch": 48, "duration": 14, "velocity": 92}, {"time": 1558, "pitch": 60, "duration": 8, "velocity": 86}, {"time": 1558, "pitch": 64, "duration": 8, "velocity": 89}, {"time": 1558, "pitch": 67, "duration": 8, "velocity": 88}, {"time": 1570, "pitch": 60, "duration": 8, "velocity": 89}, {"time": 1570, "pitch": 64, "duration": 10, "velocity": 93}, {"time": 1570, "pitch": 67, "duration": 9, "velocity": 89}, {"time": 1582, "pitch": 43, "duration": 19, "velocity": 87}, {"time": 1582, "pitch": 59, "duration": 9, "velocity": 86}, {"time": 1582, "pitch": 62, "duration": 9, "velocity": 88}, {"time": 1582, "pitch": 67, "duration": 9, "velocity": 87}, {"time": 1591, "pitch": 55, "duration": 6, "velocity": 82}, {"time": 1594, "pitch": 59, "duration": 6, "velocity": 89}, {"time": 1594, "pitch": 62, "duration": 6, "velocity": 100}, {"time": 1594, "pitch": 67, "duration": 9, "velocity": 89}, {"time": 1600, "pitch": 55, "duration": 4, "velocity": 78}, {"time": 1606, "pitch": 45, "duration": 12, "velocity": 87}, {"time": 1612, "pitch": 57, "duration": 4, "velocity": 82}, {"time": 1618, "pitch": 38, "duration": 3, "velocity": 87}, {"time": 1618, "pitch": 50, "duration": 12, "velocity": 82}, {"time": 1618, "pitch": 57, "duration": 9, "velocity": 84}, {"time": 1618, "pitch": 62, "duration": 11, "velocity": 88}, {"time": 1618, "pitch": 66, "duration": 8, "velocity": 83}, {"time": 1630, "pitch": 43, "duration": 20, "velocity": 83}, {"time": 1630, "pitch": 59, "duration": 9, "velocity": 80}, {"time": 1630, "pitch": 62, "duration": 8, "velocity": 75}, {"time": 1630, "pitch": 67, "duration": 6, "velocity": 83}, {"time": 1636, "pitch": 50, "duration": 18, "velocity": 71}, {"time": 1639, "pitch": 55, "duration": 12, "velocity": 85}, {"time": 1642, "pitch": 60, "duration": 10, "velocity": 87}, {"time": 1654, "pitch": 38, "duration": 42, "velocity": 86}, {"time": 1654, "pitch": 57, "duration": 11, "velocity": 81}, {"time": 1654, "pitch": 62, "duration": 11, "velocity": 79}, {"time": 1654, "pitch": 66, "duration": 12, "velocity": 77}, {"time": 1666, "pitch": 50, "duration": 21, "velocity": 84}, {"time": 1672, "pitch": 71, "duration": 6, "velocity": 96}, {"time": 1678, "pitch": 62, "duration": 13, "velocity": 87}, {"time": 1678, "pitch": 66, "duration": 14, "velocity": 91}, {"time": 1678, "pitch": 69, "duration": 15, "velocity": 88}, {"time": 1690, "pitch": 50, "duration": 7, "velocity": 87}, {"time": 1693, "pitch": 62, "duration": 4, "velocity": 91}, {"time": 1696, "pitch": 66, "duration": 2, "velocity": 116}, {"time": 1702, "pitch": 43, "duration": 20, "velocity": 90}, {"time": 1702, "pitch": 59, "duration": 9, "velocity": 87}, {"time": 1702, "pitch": 62, "duration": 6, "velocity": 104}, {"time": 1702, "pitch": 67, "duration": 8, "velocity": 92}, {"time": 1708, "pitch": 50, "duration": 17, "velocity": 68}, {"time": 1711, "pitch": 55, "duration": 4, "velocity": 86}, {"time": 1714, "pitch": 59, "duration": 8, "velocity": 102}, {"time": 1714, "pitch": 62, "duration": 11, "velocity": 113}, {"time": 1714, "pitch": 67, "duration": 8, "velocity": 107}, {"time": 1720, "pitch": 55, "duration": 2, "velocity": 78}, {"time": 1726, "pitch": 42, "duration": 18, "velocity": 85}, {"time": 1726, "pitch": 57, "duration": 9, "velocity": 98}, {"time": 1726, "pitch": 62, "duration": 9, "velocity": 102}, {"time": 1726, "pitch": 66, "duration": 9, "velocity": 97}, {"time": 1732, "pitch": 50, "duration": 12, "velocity": 76}, {"time": 1735, "pitch": 54, "duration": 4, "velocity": 87}, {"time": 1738, "pitch": 57, "duration": 6, "velocity": 98}, {"time": 1738, "pitch": 62, "duration": 6, "velocity": 113}, {"time": 1738, "pitch": 66, "duration": 8, "velocity": 106}, {"time": 1744, "pitch": 54, "duration": 4, "velocity": 86}, {"time": 1750, "pitch": 40, "duration": 18, "velocity": 91}, {"time": 1750, "pitch": 59, "duration": 9, "velocity": 96}, {"time": 1750, "pitch": 64, "duration": 9, "velocity": 100}, {"time": 1750, "pitch": 67, "duration": 9, "velocity": 94}, {"time": 1759, "pitch": 52, "duration": 5, "velocity": 87}, {"time": 1762, "pitch": 59, "duration": 8, "velocity": 104}, {"time": 1762, "pitch": 64, "duration": 9, "velocity": 108}, {"time": 1762, "pitch": 67, "duration": 9, "velocity": 100}, {"time": 1768, "pitch": 52, "duration": 4, "velocity": 87}, {"time": 1774, "pitch": 47, "duration": 19, "velocity": 91}, {"time": 1774, "pitch": 62, "duration": 9, "velocity": 86}, {"time": 1774, "pitch": 66, "duration": 9, "velocity": 91}, {"time": 1774, "pitch": 69, "duration": 8, "velocity": 89}, {"time": 1780, "pitch": 54, "duration": 14, "velocity": 70}, {"time": 1783, "pitch": 59, "duration": 4, "velocity": 87}, {"time": 1786, "pitch": 62, "duration": 5, "velocity": 113}, {"time": 1786, "pitch": 69, "duration": 5, "velocity": 108}, {"time": 1789, "pitch": 59, "duration": 4, "velocity": 87}, {"time": 1792, "pitch": 62, "duration": 1, "velocity": 83}, {"time": 1792, "pitch": 66, "duration": 2, "velocity": 116}, {"time": 1798, "pitch": 48, "duration": 19, "velocity": 100}, {"time": 1804, "pitch": 55, "duration": 7, "velocity": 85}, {"time": 1807, "pitch": 60, "duration": 2, "velocity": 83}, {"time": 1810, "pitch": 60, "duration": 4, "velocity": 94}, {"time": 1810, "pitch": 67, "duration": 5, "velocity": 113}, {"time": 1813, "pitch": 55, "duration": 4, "velocity": 86}, {"time": 1816, "pitch": 64, "duration": 9, "velocity": 86}, {"time": 1816, "pitch": 67, "duration": 1, "velocity": 71}, {"time": 1819, "pitch": 60, "duration": 4, "velocity": 84}, {"time": 1822, "pitch": 43, "duration": 20, "velocity": 86}, {"time": 1825, "pitch": 50, "duration": 20, "velocity": 84}, {"time": 1828, "pitch": 55, "duration": 7, "velocity": 89}, {"time": 1831, "pitch": 59, "duration": 1, "velocity": 72}, {"time": 1834, "pitch": 59, "duration": 8, "velocity": 98}, {"time": 1834, "pitch": 67, "duration": 8, "velocity": 108}, {"time": 1840, "pitch": 55, "duration": 3, "velocity": 81}, {"time": 1843, "pitch": 57, "duration": 2, "velocity": 82}, {"time": 1846, "pitch": 45, "duration": 20, "velocity": 89}, {"time": 1849, "pitch": 52, "duration": 16, "velocity": 84}, {"time": 1852, "pitch": 57, "duration": 7, "velocity": 91}, {"time": 1855, "pitch": 59, "duration": 2, "velocity": 87}, {"time": 1858, "pitch": 60, "duration": 5, "velocity": 108}, {"time": 1858, "pitch": 64, "duration": 4, "velocity": 113}, {"time": 1861, "pitch": 57, "duration": 3, "velocity": 104}, {"time": 1864, "pitch": 60, "duration": 5, "velocity": 93}, {"time": 1864, "pitch": 64, "duration": 3, "velocity": 100}, {"time": 1870, "pitch": 38, "duration": 18, "velocity": 96}, {"time": 1870, "pitch": 57, "duration": 6, "velocity": 94}, {"time": 1870, "pitch": 62, "duration": 4, "velocity": 110}, {"time": 1870, "pitch": 66, "duration": 4, "velocity": 97}, {"time": 1873, "pitch": 45, "duration": 8, "velocity": 84}, {"time": 1876, "pitch": 50, "duration": 4, "velocity": 104}, {"time": 1879, "pitch": 54, "duration": 7, "velocity": 106}, {"time": 1879, "pitch": 62, "duration": 3, "velocity": 67}, {"time": 1882, "pitch": 45, "duration": 6, "velocity": 87}, {"time": 1882, "pitch": 50, "duration": 7, "velocity": 117}, {"time": 1885, "pitch": 57, "duration": 8, "velocity": 110}, {"time": 1888, "pitch": 62, "duration": 4, "velocity": 108}, {"time": 1891, "pitch": 50, "duration": 1, "velocity": 78}, {"time": 1894, "pitch": 43, "duration": 20, "velocity": 91}, {"time": 1894, "pitch": 55, "duration": 1, "velocity": 89}, {"time": 1894, "pitch": 59, "duration": 3, "velocity": 102}, {"time": 1894, "pitch": 62, "duration": 3, "velocity": 98}, {"time": 1897, "pitch": 50, "duration": 16, "velocity": 74}, {"time": 1900, "pitch": 55, "duration": 6, "velocity": 87}, {"time": 1903, "pitch": 59, "duration": 1, "velocity": 86}, {"time": 1906, "pitch": 59, "duration": 4, "velocity": 113}, {"time": 1906, "pitch": 62, "duration": 4, "velocity": 116}, {"time": 1906, "pitch": 67, "duration": 4, "velocity": 114}, {"time": 1909, "pitch": 55, "duration": 4, "velocity": 93}, {"time": 1912, "pitch": 59, "duration": 4, "velocity": 94}, {"time": 1915, "pitch": 62, "duration": 4, "velocity": 96}, {"time": 1918, "pitch": 42, "duration": 18, "velocity": 100}, {"time": 1921, "pitch": 54, "duration": 8, "velocity": 87}, {"time": 1924, "pitch": 57, "duration": 1, "velocity": 88}, {"time": 1927, "pitch": 57, "duration": 4, "velocity": 108}, {"time": 1927, "pitch": 66, "duration": 7, "velocity": 119}, {"time": 1933, "pitch": 54, "duration": 4, "velocity": 113}, {"time": 1936, "pitch": 57, "duration": 3, "velocity": 113}, {"time": 1939, "pitch": 62, "duration": 2, "velocity": 88}, {"time": 1939, "pitch": 66, "duration": 1, "velocity": 70}, {"time": 1942, "pitch": 52, "duration": 19, "velocity": 88}, {"time": 1942, "pitch": 64, "duration": 6, "velocity": 110}, {"time": 1942, "pitch": 67, "duration": 6, "velocity": 93}, {"time": 1948, "pitch": 59, "duration": 7, "velocity": 79}, {"time": 1951, "pitch": 62, "duration": 1, "velocity": 84}, {"time": 1954, "pitch": 62, "duration": 5, "velocity": 116}, {"time": 1954, "pitch": 67, "duration": 4, "velocity": 114}, {"time": 1957, "pitch": 59, "duration": 4, "velocity": 91}, {"time": 1960, "pitch": 64, "duration": 5, "velocity": 94}, {"time": 1963, "pitch": 67, "duration": 2, "velocity": 85}, {"time": 1966, "pitch": 47, "duration": 20, "velocity": 89}, {"time": 1969, "pitch": 54, "duration": 17, "velocity": 76}, {"time": 1972, "pitch": 59, "duration": 6, "velocity": 82}, {"time": 1975, "pitch": 62, "duration": 7, "velocity": 91}, {"time": 1975, "pitch": 69, "duration": 11, "velocity": 108}, {"time": 1981, "pitch": 59, "duration": 5, "velocity": 88}, {"time": 1984, "pitch": 66, "duration": 3, "velocity": 109}, {"time": 1987, "pitch": 62, "duration": 2, "velocity": 96}, {"time": 1990, "pitch": 48, "duration": 20, "velocity": 89}, {"time": 1990, "pitch": 60, "duration": 5, "velocity": 107}, {"time": 1990, "pitch": 64, "duration": 9, "velocity": 104}, {"time": 1990, "pitch": 67, "duration": 8, "velocity": 104}, {"time": 1999, "pitch": 55, "duration": 4, "velocity": 88}, {"time": 2002, "pitch": 60, "duration": 8, "velocity": 107}, {"time": 2002, "pitch": 64, "duration": 9, "velocity": 114}, {"time": 2002, "pitch": 67, "duration": 8, "velocity": 91}, {"time": 2008, "pitch": 55, "duration": 2, "velocity": 81}, {"time": 2011, "pitch": 67, "duration": 12, "velocity": 94}, {"time": 2014, "pitch": 43, "duration": 20, "velocity": 86}, {"time": 2014, "pitch": 59, "duration": 9, "velocity": 88}, {"time": 2014, "pitch": 62, "duration": 10, "velocity": 93}, {"time": 2020, "pitch": 50, "duration": 14, "velocity": 78}, {"time": 2023, "pitch": 55, "duration": 5, "velocity": 87}, {"time": 2026, "pitch": 59, "duration": 5, "velocity": 104}, {"time": 2026, "pitch": 67, "duration": 5, "velocity": 96}, {"time": 2029, "pitch": 55, "duration": 5, "velocity": 93}, {"time": 2032, "pitch": 62, "duration": 4, "velocity": 104}, {"time": 2038, "pitch": 45, "duration": 8, "velocity": 98}, {"time": 2041, "pitch": 52, "duration": 6, "velocity": 86}, {"time": 2044, "pitch": 60, "duration": 4, "velocity": 88}, {"time": 2047, "pitch": 64, "duration": 5, "velocity": 88}, {"time": 2050, "pitch": 50, "duration": 8, "velocity": 88}, {"time": 2053, "pitch": 57, "duration": 4, "velocity": 87}, {"time": 2056, "pitch": 62, "duration": 10, "velocity": 91}, {"time": 2059, "pitch": 66, "duration": 8, "velocity": 97}, {"time": 2062, "pitch": 43, "duration": 21, "velocity": 84}, {"time": 2065, "pitch": 50, "duration": 21, "velocity": 81}, {"time": 2068, "pitch": 55, "duration": 8, "velocity": 84}, {"time": 2071, "pitch": 59, "duration": 3, "velocity": 82}, {"time": 2074, "pitch": 62, "duration": 4, "velocity": 87}, {"time": 2074, "pitch": 67, "duration": 4, "velocity": 88}, {"time": 2077, "pitch": 55, "duration": 6, "velocity": 89}, {"time": 2080, "pitch": 59, "duration": 1, "velocity": 86}, {"time": 2086, "pitch": 52, "duration": 18, "velocity": 102}, {"time": 2086, "pitch": 59, "duration": 3, "velocity": 93}, {"time": 2086, "pitch": 64, "duration": 5, "velocity": 94}, {"time": 2086, "pitch": 67, "duration": 7, "velocity": 91}, {"time": 2092, "pitch": 59, "duration": 2, "velocity": 82}, {"time": 2095, "pitch": 59, "duration": 5, "velocity": 82}, {"time": 2098, "pitch": 64, "duration": 11, "velocity": 110}, {"time": 2098, "pitch": 67, "duration": 11, "velocity": 113}, {"time": 2104, "pitch": 59, "duration": 1, "velocity": 88}, {"time": 2110, "pitch": 47, "duration": 20, "velocity": 88}, {"time": 2110, "pitch": 62, "duration": 10, "velocity": 89}, {"time": 2110, "pitch": 66, "duration": 10, "velocity": 93}, {"time": 2110, "pitch": 69, "duration": 10, "velocity": 91}, {"time": 2116, "pitch": 54, "duration": 17, "velocity": 73}, {"time": 2119, "pitch": 59, "duration": 4, "velocity": 89}, {"time": 2122, "pitch": 62, "duration": 7, "velocity": 113}, {"time": 2122, "pitch": 69, "duration": 11, "velocity": 108}, {"time": 2128, "pitch": 59, "duration": 4, "velocity": 84}, {"time": 2134, "pitch": 48, "duration": 20, "velocity": 88}, {"time": 2134, "pitch": 60, "duration": 9, "velocity": 88}, {"time": 2134, "pitch": 64, "duration": 10, "velocity": 102}, {"time": 2134, "pitch": 67, "duration": 9, "velocity": 100}, {"time": 2143, "pitch": 55, "duration": 4, "velocity": 88}, {"time": 2146, "pitch": 60, "duration": 7, "velocity": 104}, {"time": 2146, "pitch": 64, "duration": 10, "velocity": 110}, {"time": 2146, "pitch": 67, "duration": 10, "velocity": 104}, {"time": 2152, "pitch": 55, "duration": 2, "velocity": 86}, {"time": 2158, "pitch": 40, "duration": 18, "velocity": 93}, {"time": 2158, "pitch": 59, "duration": 9, "velocity": 94}, {"time": 2158, "pitch": 64, "duration": 9, "velocity": 102}, {"time": 2158, "pitch": 67, "duration": 9, "velocity": 92}, {"time": 2167, "pitch": 52, "duration": 4, "velocity": 88}, {"time": 2170, "pitch": 59, "duration": 9, "velocity": 104}, {"time": 2170, "pitch": 64, "duration": 10, "velocity": 108}, {"time": 2170, "pitch": 67, "duration": 9, "velocity": 102}, {"time": 2176, "pitch": 52, "duration": 4, "velocity": 87}, {"time": 2182, "pitch": 52, "duration": 20, "velocity": 91}, {"time": 2185, "pitch": 59, "duration": 11, "velocity": 84}, {"time": 2188, "pitch": 64, "duration": 4, "velocity": 78}, {"time": 2191, "pitch": 67, "duration": 2, "velocity": 82}, {"time": 2194, "pitch": 64, "duration": 8, "velocity": 94}, {"time": 2194, "pitch": 67, "duration": 11, "velocity": 107}, {"time": 2194, "pitch": 71, "duration": 10, "velocity": 100}, {"time": 2200, "pitch": 59, "duration": 2, "velocity": 85}, {"time": 2206, "pitch": 47, "duration": 20, "velocity": 86}, {"time": 2206, "pitch": 62, "duration": 9, "velocity": 89}, {"time": 2206, "pitch": 66, "duration": 10, "velocity": 93}, {"time": 2206, "pitch": 69, "duration": 10, "velocity": 90}, {"time": 2212, "pitch": 54, "duration": 18, "velocity": 73}, {"time": 2215, "pitch": 59, "duration": 4, "velocity": 83}, {"time": 2218, "pitch": 62, "duration": 6, "velocity": 90}, {"time": 2218, "pitch": 66, "duration": 7, "velocity": 109}, {"time": 2218, "pitch": 69, "duration": 7, "velocity": 100}, {"time": 2224, "pitch": 59, "duration": 6, "velocity": 83}, {"time": 2227, "pitch": 62, "duration": 2, "velocity": 89}, {"time": 2230, "pitch": 48, "duration": 20, "velocity": 88}, {"time": 2230, "pitch": 60, "duration": 10, "velocity": 92}, {"time": 2230, "pitch": 64, "duration": 10, "velocity": 92}, {"time": 2230, "pitch": 67, "duration": 10, "velocity": 88}, {"time": 2239, "pitch": 55, "duration": 4, "velocity": 81}, {"time": 2242, "pitch": 60, "duration": 8, "velocity": 100}, {"time": 2242, "pitch": 64, "duration": 10, "velocity": 110}, {"time": 2242, "pitch": 67, "duration": 9, "velocity": 108}, {"time": 2248, "pitch": 55, "duration": 1, "velocity": 86}, {"time": 2254, "pitch": 40, "duration": 19, "velocity": 91}, {"time": 2254, "pitch": 59, "duration": 11, "velocity": 89}, {"time": 2254, "pitch": 64, "duration": 6, "velocity": 91}, {"time": 2254, "pitch": 67, "duration": 5, "velocity": 98}, {"time": 2260, "pitch": 52, "duration": 8, "velocity": 81}, {"time": 2266, "pitch": 55, "duration": 8, "velocity": 93}, {"time": 2266, "pitch": 59, "duration": 10, "velocity": 104}, {"time": 2266, "pitch": 64, "duration": 9, "velocity": 93}, {"time": 2272, "pitch": 52, "duration": 4, "velocity": 84}, {"time": 2278, "pitch": 48, "duration": 11, "velocity": 94}, {"time": 2278, "pitch": 60, "duration": 7, "velocity": 88}, {"time": 2278, "pitch": 64, "duration": 10, "velocity": 96}, {"time": 2278, "pitch": 67, "duration": 10, "velocity": 91}, {"time": 2290, "pitch": 50, "duration": 9, "velocity": 89}, {"time": 2290, "pitch": 57, "duration": 9, "velocity": 91}, {"time": 2290, "pitch": 62, "duration": 11, "velocity": 92}, {"time": 2290, "pitch": 66, "duration": 11, "velocity": 89}, {"time": 2302, "pitch": 52, "duration": 19, "velocity": 91}, {"time": 2302, "pitch": 59, "duration": 3, "velocity": 86}, {"time": 2302, "pitch": 64, "duration": 7, "velocity": 88}, {"time": 2302, "pitch": 67, "duration": 10, "velocity": 89}, {"time": 2311, "pitch": 59, "duration": 10, "velocity": 85}, {"time": 2314, "pitch": 62, "duration": 4, "velocity": 102}, {"time": 2317, "pitch": 64, "duration": 4, "velocity": 82}, {"time": 2320, "pitch": 67, "duration": 5, "velocity": 84}, {"time": 2326, "pitch": 48, "duration": 11, "velocity": 90}, {"time": 2326, "pitch": 60, "duration": 7, "velocity": 89}, {"time": 2326, "pitch": 64, "duration": 10, "velocity": 92}, {"time": 2326, "pitch": 67, "duration": 10, "velocity": 89}, {"time": 2338, "pitch": 50, "duration": 10, "velocity": 86}, {"time": 2338, "pitch": 57, "duration": 8, "velocity": 86}, {"time": 2338, "pitch": 62, "duration": 10, "velocity": 89}, {"time": 2338, "pitch": 66, "duration": 9, "velocity": 85}, {"time": 2350, "pitch": 52, "duration": 18, "velocity": 86}, {"time": 2350, "pitch": 59, "duration": 9, "velocity": 85}, {"time": 2350, "pitch": 64, "duration": 9, "velocity": 83}, {"time": 2350, "pitch": 67, "duration": 9, "velocity": 82}, {"time": 2362, "pitch": 59, "duration": 6, "velocity": 83}, {"time": 2362, "pitch": 64, "duration": 6, "velocity": 86}, {"time": 2362, "pitch": 67, "duration": 7, "velocity": 84}, {"time": 2374, "pitch": 50, "duration": 31, "velocity": 83}, {"time": 2374, "pitch": 57, "duration": 10, "velocity": 82}, {"time": 2374, "pitch": 62, "duration": 10, "velocity": 88}, {"time": 2374, "pitch": 66, "duration": 9, "velocity": 82}, {"time": 2386, "pitch": 57, "duration": 10, "velocity": 90}, {"time": 2386, "pitch": 62, "duration": 10, "velocity": 104}, {"time": 2386, "pitch": 66, "duration": 9, "velocity": 87}, {"time": 2398, "pitch": 57, "duration": 10, "velocity": 84}, {"time": 2398, "pitch": 62, "duration": 10, "velocity": 92}, {"time": 2398, "pitch": 66, "duration": 10, "velocity": 84}, {"time": 2407, "pitch": 50, "duration": 5, "velocity": 89}, {"time": 2410, "pitch": 57, "duration": 7, "velocity": 89}, {"time": 2410, "pitch": 62, "duration": 10, "velocity": 114}, {"time": 2410, "pitch": 66, "duration": 9, "velocity": 109}, {"time": 2416, "pitch": 50, "duration": 1, "velocity": 102}, {"time": 2422, "pitch": 40, "duration": 6, "velocity": 89}, {"time": 2422, "pitch": 43, "duration": 19, "velocity": 91}, {"time": 2422, "pitch": 59, "duration": 9, "velocity": 89}, {"time": 2422, "pitch": 62, "duration": 9, "velocity": 98}, {"time": 2422, "pitch": 67, "duration": 9, "velocity": 92}, {"time": 2428, "pitch": 50, "duration": 14, "velocity": 78}, {"time": 2431, "pitch": 55, "duration": 4, "velocity": 94}, {"time": 2434, "pitch": 59, "duration": 6, "velocity": 102}, {"time": 2434, "pitch": 62, "duration": 7, "velocity": 110}, {"time": 2434, "pitch": 67, "duration": 7, "velocity": 104}, {"time": 2440, "pitch": 55, "duration": 1, "velocity": 84}, {"time": 2446, "pitch": 42, "duration": 18, "velocity": 85}, {"time": 2446, "pitch": 57, "duration": 5, "velocity": 91}, {"time": 2446, "pitch": 62, "duration": 7, "velocity": 107}, {"time": 2446, "pitch": 66, "duration": 7, "velocity": 90}, {"time": 2449, "pitch": 50, "duration": 11, "velocity": 76}, {"time": 2452, "pitch": 54, "duration": 4, "velocity": 83}, {"time": 2455, "pitch": 57, "duration": 6, "velocity": 113}, {"time": 2455, "pitch": 66, "duration": 7, "velocity": 116}, {"time": 2461, "pitch": 50, "duration": 3, "velocity": 69}, {"time": 2461, "pitch": 54, "duration": 4, "velocity": 103}, {"time": 2464, "pitch": 57, "duration": 4, "velocity": 108}, {"time": 2464, "pitch": 66, "duration": 4, "velocity": 106}, {"time": 2467, "pitch": 62, "duration": 2, "velocity": 84}, {"time": 2470, "pitch": 40, "duration": 17, "velocity": 88}, {"time": 2470, "pitch": 59, "duration": 9, "velocity": 92}, {"time": 2470, "pitch": 64, "duration": 9, "velocity": 100}, {"time": 2470, "pitch": 67, "duration": 9, "velocity": 91}, {"time": 2479, "pitch": 52, "duration": 4, "velocity": 88}, {"time": 2482, "pitch": 59, "duration": 10, "velocity": 104}, {"time": 2482, "pitch": 64, "duration": 11, "velocity": 110}, {"time": 2482, "pitch": 67, "duration": 9, "velocity": 100}, {"time": 2488, "pitch": 52, "duration": 6, "velocity": 85}, {"time": 2494, "pitch": 47, "duration": 21, "velocity": 85}, {"time": 2494, "pitch": 59, "duration": 3, "velocity": 87}, {"time": 2494, "pitch": 62, "duration": 9, "velocity": 92}, {"time": 2494, "pitch": 66, "duration": 9, "velocity": 86}, {"time": 2500, "pitch": 54, "duration": 17, "velocity": 72}, {"time": 2503, "pitch": 59, "duration": 3, "velocity": 87}, {"time": 2506, "pitch": 62, "duration": 4, "velocity": 113}, {"time": 2506, "pitch": 66, "duration": 4, "velocity": 113}, {"time": 2509, "pitch": 59, "duration": 6, "velocity": 89}, {"time": 2512, "pitch": 62, "duration": 6, "velocity": 90}, {"time": 2512, "pitch": 66, "duration": 5, "velocity": 106}, {"time": 2518, "pitch": 48, "duration": 20, "velocity": 87}, {"time": 2518, "pitch": 60, "duration": 5, "velocity": 91}, {"time": 2518, "pitch": 64, "duration": 9, "velocity": 107}, {"time": 2518, "pitch": 67, "duration": 8, "velocity": 96}, {"time": 2527, "pitch": 55, "duration": 5, "velocity": 81}, {"time": 2530, "pitch": 60, "duration": 7, "velocity": 102}, {"time": 2530, "pitch": 64, "duration": 10, "velocity": 114}, {"time": 2530, "pitch": 67, "duration": 10, "velocity": 102}, {"time": 2536, "pitch": 55, "duration": 2, "velocity": 86}, {"time": 2542, "pitch": 43, "duration": 19, "velocity": 88}, {"time": 2542, "pitch": 59, "duration": 6, "velocity": 87}, {"time": 2542, "pitch": 62, "duration": 10, "velocity": 96}, {"time": 2542, "pitch": 67, "duration": 9, "velocity": 89}, {"time": 2551, "pitch": 55, "duration": 5, "velocity": 93}, {"time": 2554, "pitch": 59, "duration": 8, "velocity": 98}, {"time": 2554, "pitch": 62, "duration": 9, "velocity": 113}, {"time": 2554, "pitch": 67, "duration": 9, "velocity": 98}, {"time": 2560, "pitch": 55, "duration": 4, "velocity": 87}, {"time": 2566, "pitch": 48, "duration": 21, "velocity": 89}, {"time": 2569, "pitch": 55, "duration": 19, "velocity": 76}, {"time": 2572, "pitch": 60, "duration": 6, "velocity": 89}, {"time": 2575, "pitch": 62, "duration": 2, "velocity": 83}, {"time": 2578, "pitch": 67, "duration": 6, "velocity": 108}, {"time": 2581, "pitch": 60, "duration": 5, "velocity": 89}, {"time": 2584, "pitch": 64, "duration": 5, "velocity": 91}, {"time": 2587, "pitch": 69, "duration": 12, "velocity": 93}, {"time": 2590, "pitch": 50, "duration": 19, "velocity": 90}, {"time": 2590, "pitch": 62, "duration": 6, "velocity": 88}, {"time": 2590, "pitch": 66, "duration": 10, "velocity": 93}, {"time": 2599, "pitch": 57, "duration": 4, "velocity": 93}, {"time": 2602, "pitch": 62, "duration": 5, "velocity": 113}, {"time": 2602, "pitch": 69, "duration": 4, "velocity": 114}, {"time": 2605, "pitch": 57, "duration": 4, "velocity": 108}, {"time": 2608, "pitch": 64, "duration": 3, "velocity": 116}, {"time": 2608, "pitch": 66, "duration": 1, "velocity": 100}, {"time": 2611, "pitch": 69, "duration": 1, "velocity": 93}, {"time": 2614, "pitch": 43, "duration": 19, "velocity": 94}, {"time": 2614, "pitch": 59, "duration": 6, "velocity": 98}, {"time": 2614, "pitch": 62, "duration": 9, "velocity": 113}, {"time": 2614, "pitch": 67, "duration": 9, "velocity": 108}, {"time": 2620, "pitch": 50, "duration": 14, "velocity": 75}, {"time": 2623, "pitch": 55, "duration": 4, "velocity": 90}, {"time": 2626, "pitch": 59, "duration": 6, "velocity": 113}, {"time": 2626, "pitch": 67, "duration": 5, "velocity": 108}, {"time": 2629, "pitch": 62, "duration": 5, "velocity": 81}, {"time": 2632, "pitch": 55, "duration": 2, "velocity": 87}, {"time": 2632, "pitch": 67, "duration": 3, "velocity": 38}, {"time": 2638, "pitch": 42, "duration": 19, "velocity": 89}, {"time": 2638, "pitch": 57, "duration": 6, "velocity": 104}, {"time": 2638, "pitch": 62, "duration": 9, "velocity": 114}, {"time": 2638, "pitch": 66, "duration": 9, "velocity": 106}, {"time": 2647, "pitch": 54, "duration": 4, "velocity": 88}, {"time": 2650, "pitch": 57, "duration": 7, "velocity": 107}, {"time": 2650, "pitch": 62, "duration": 10, "velocity": 116}, {"time": 2650, "pitch": 66, "duration": 8, "velocity": 113}, {"time": 2656, "pitch": 54, "duration": 1, "velocity": 93}, {"time": 2662, "pitch": 40, "duration": 18, "velocity": 92}, {"time": 2662, "pitch": 59, "duration": 9, "velocity": 107}, {"time": 2662, "pitch": 64, "duration": 9, "velocity": 116}, {"time": 2662, "pitch": 67, "duration": 9, "velocity": 102}, {"time": 2671, "pitch": 52, "duration": 4, "velocity": 104}, {"time": 2674, "pitch": 59, "duration": 7, "velocity": 110}, {"time": 2674, "pitch": 64, "duration": 10, "velocity": 114}, {"time": 2674, "pitch": 67, "duration": 10, "velocity": 107}, {"time": 2680, "pitch": 52, "duration": 5, "velocity": 89}, {"time": 2686, "pitch": 47, "duration": 21, "velocity": 87}, {"time": 2686, "pitch": 59, "duration": 3, "velocity": 98}, {"time": 2686, "pitch": 62, "duration": 9, "velocity": 113}, {"time": 2686, "pitch": 66, "duration": 9, "velocity": 103}, {"time": 2692, "pitch": 54, "duration": 15, "velocity": 80}, {"time": 2695, "pitch": 59, "duration": 4, "velocity": 93}, {"time": 2698, "pitch": 62, "duration": 4, "velocity": 116}, {"time": 2698, "pitch": 66, "duration": 4, "velocity": 119}, {"time": 2701, "pitch": 59, "duration": 4, "velocity": 110}, {"time": 2704, "pitch": 62, "duration": 6, "velocity": 110}, {"time": 2704, "pitch": 66, "duration": 5, "velocity": 119}, {"time": 2710, "pitch": 48, "duration": 19, "velocity": 87}, {"time": 2710, "pitch": 60, "duration": 3, "velocity": 92}, {"time": 2710, "pitch": 64, "duration": 7, "velocity": 113}, {"time": 2710, "pitch": 67, "duration": 8, "velocity": 104}, {"time": 2716, "pitch": 55, "duration": 13, "velocity": 80}, {"time": 2719, "pitch": 60, "duration": 1, "velocity": 100}, {"time": 2722, "pitch": 64, "duration": 5, "velocity": 114}, {"time": 2722, "pitch": 72, "duration": 8, "velocity": 113}, {"time": 2725, "pitch": 60, "duration": 3, "velocity": 92}, {"time": 2728, "pitch": 64, "duration": 1, "velocity": 77}, {"time": 2728, "pitch": 67, "duration": 6, "velocity": 108}, {"time": 2731, "pitch": 64, "duration": 4, "velocity": 88}, {"time": 2734, "pitch": 43, "duration": 19, "velocity": 96}, {"time": 2737, "pitch": 50, "duration": 16, "velocity": 85}, {"time": 2740, "pitch": 55, "duration": 7, "velocity": 98}, {"time": 2743, "pitch": 59, "duration": 2, "velocity": 90}, {"time": 2746, "pitch": 62, "duration": 5, "velocity": 116}, {"time": 2746, "pitch": 67, "duration": 4, "velocity": 110}, {"time": 2749, "pitch": 55, "duration": 5, "velocity": 100}, {"time": 2752, "pitch": 59, "duration": 4, "velocity": 94}, {"time": 2755, "pitch": 62, "duration": 1, "velocity": 84}, {"time": 2758, "pitch": 48, "duration": 12, "velocity": 91}, {"time": 2761, "pitch": 55, "duration": 10, "velocity": 78}, {"time": 2764, "pitch": 60, "duration": 6, "velocity": 91}, {"time": 2767, "pitch": 62, "duration": 2, "velocity": 98}, {"time": 2770, "pitch": 50, "duration": 6, "velocity": 91}, {"time": 2770, "pitch": 67, "duration": 4, "velocity": 116}, {"time": 2773, "pitch": 57, "duration": 2, "velocity": 83}, {"time": 2776, "pitch": 62, "duration": 4, "velocity": 89}, {"time": 2779, "pitch": 66, "duration": 3, "velocity": 109}, {"time": 2782, "pitch": 43, "duration": 19, "velocity": 93}, {"time": 2785, "pitch": 50, "duration": 16, "velocity": 84}, {"time": 2788, "pitch": 55, "duration": 7, "velocity": 88}, {"time": 2791, "pitch": 57, "duration": 4, "velocity": 83}, {"time": 2794, "pitch": 59, "duration": 6, "velocity": 88}, {"time": 2797, "pitch": 55, "duration": 5, "velocity": 87}, {"time": 2800, "pitch": 62, "duration": 3, "velocity": 90}, {"time": 2806, "pitch": 48, "duration": 18, "velocity": 94}, {"time": 2809, "pitch": 55, "duration": 16, "velocity": 81}, {"time": 2812, "pitch": 60, "duration": 6, "velocity": 102}, {"time": 2815, "pitch": 62, "duration": 2, "velocity": 94}, {"time": 2818, "pitch": 67, "duration": 6, "velocity": 117}, {"time": 2821, "pitch": 60, "duration": 3, "velocity": 96}, {"time": 2824, "pitch": 62, "duration": 4, "velocity": 98}, {"time": 2827, "pitch": 64, "duration": 3, "velocity": 88}, {"time": 2830, "pitch": 47, "duration": 18, "velocity": 91}, {"time": 2836, "pitch": 54, "duration": 13, "velocity": 80}, {"time": 2839, "pitch": 59, "duration": 4, "velocity": 90}, {"time": 2842, "pitch": 62, "duration": 6, "velocity": 93}, {"time": 2842, "pitch": 66, "duration": 6, "velocity": 103}, {"time": 2842, "pitch": 69, "duration": 6, "velocity": 100}, {"time": 2848, "pitch": 59, "duration": 1, "velocity": 87}, {"time": 2854, "pitch": 48, "duration": 10, "velocity": 93}, {"time": 2854, "pitch": 60, "duration": 7, "velocity": 88}, {"time": 2854, "pitch": 64, "duration": 8, "velocity": 93}, {"time": 2854, "pitch": 67, "duration": 10, "velocity": 90}, {"time": 2866, "pitch": 50, "duration": 12, "velocity": 87}, {"time": 2866, "pitch": 57, "duration": 8, "velocity": 88}, {"time": 2866, "pitch": 62, "duration": 10, "velocity": 96}, {"time": 2866, "pitch": 66, "duration": 11, "velocity": 86}, {"time": 2878, "pitch": 43, "duration": 18, "velocity": 81}, {"time": 2878, "pitch": 59, "duration": 10, "velocity": 86}, {"time": 2878, "pitch": 62, "duration": 8, "velocity": 85}, {"time": 2878, "pitch": 67, "duration": 7, "velocity": 87}, {"time": 2884, "pitch": 50, "duration": 12, "velocity": 73}, {"time": 2887, "pitch": 55, "duration": 10, "velocity": 81}, {"time": 2890, "pitch": 57, "duration": 7, "velocity": 80}, {"time": 2890, "pitch": 62, "duration": 10, "velocity": 78}, {"time": 2896, "pitch": 59, "duration": 5, "velocity": 84}, {"time": 2902, "pitch": 48, "duration": 20, "velocity": 89}, {"time": 2905, "pitch": 55, "duration": 16, "velocity": 81}, {"time": 2908, "pitch": 60, "duration": 6, "velocity": 87}, {"time": 2911, "pitch": 62, "duration": 1, "velocity": 80}, {"time": 2914, "pitch": 67, "duration": 6, "velocity": 104}, {"time": 2917, "pitch": 60, "duration": 3, "velocity": 88}, {"time": 2920, "pitch": 64, "duration": 6, "velocity": 87}, {"time": 2923, "pitch": 69, "duration": 12, "velocity": 87}, {"time": 2926, "pitch": 47, "duration": 18, "velocity": 80}, {"time": 2926, "pitch": 62, "duration": 9, "velocity": 82}, {"time": 2926, "pitch": 66, "duration": 9, "velocity": 83}, {"time": 2932, "pitch": 54, "duration": 13, "velocity": 73}, {"time": 2935, "pitch": 59, "duration": 4, "velocity": 82}, {"time": 2938, "pitch": 62, "duration": 8, "velocity": 98}, {"time": 2938, "pitch": 69, "duration": 6, "velocity": 96}, {"time": 2944, "pitch": 59, "duration": 4, "velocity": 84}, {"time": 2950, "pitch": 48, "duration": 9, "velocity": 93}, {"time": 2950, "pitch": 60, "duration": 5, "velocity": 94}, {"time": 2950, "pitch": 67, "duration": 7, "velocity": 93}, {"time": 2953, "pitch": 55, "duration": 9, "velocity": 81}, {"time": 2956, "pitch": 60, "duration": 4, "velocity": 91}, {"time": 2959, "pitch": 67, "duration": 3, "velocity": 88}, {"time": 2962, "pitch": 50, "duration": 8, "velocity": 87}, {"time": 2962, "pitch": 62, "duration": 4, "velocity": 88}, {"time": 2962, "pitch": 66, "duration": 4, "velocity": 86}, {"time": 2965, "pitch": 57, "duration": 5, "velocity": 85}, {"time": 2968, "pitch": 62, "duration": 3, "velocity": 91}, {"time": 2968, "pitch": 66, "duration": 3, "velocity": 100}, {"time": 2974, "pitch": 59, "duration": 9, "velocity": 90}, {"time": 2974, "pitch": 64, "duration": 9, "velocity": 89}, {"time": 2974, "pitch": 67, "duration": 9, "velocity": 89}, {"time": 2983, "pitch": 52, "duration": 4, "velocity": 87}, {"time": 2986, "pitch": 59, "duration": 4, "velocity": 113}, {"time": 2986, "pitch": 67, "duration": 2, "velocity": 90}, {"time": 2989, "pitch": 52, "duration": 3, "velocity": 107}, {"time": 2992, "pitch": 64, "duration": 3, "velocity": 116}, {"time": 2995, "pitch": 67, "duration": 3, "velocity": 85}, {"time": 2998, "pitch": 52, "duration": 7, "velocity": 88}, {"time": 2998, "pitch": 59, "duration": 10, "velocity": 89}, {"time": 2998, "pitch": 64, "duration": 9, "velocity": 96}, {"time": 2998, "pitch": 67, "duration": 1, "velocity": 91}, {"time": 3007, "pitch": 52, "duration": 6, "velocity": 84}, {"time": 3010, "pitch": 59, "duration": 9, "velocity": 102}, {"time": 3010, "pitch": 64, "duration": 14, "velocity": 108}, {"time": 3010, "pitch": 67, "duration": 9, "velocity": 100}, {"time": 3016, "pitch": 52, "duration": 4, "velocity": 89}, {"time": 3022, "pitch": 47, "duration": 20, "velocity": 94}, {"time": 3025, "pitch": 54, "duration": 21, "velocity": 79}, {"time": 3028, "pitch": 59, "duration": 7, "velocity": 88}, {"time": 3034, "pitch": 62, "duration": 8, "velocity": 100}, {"time": 3034, "pitch": 66, "duration": 9, "velocity": 119}, {"time": 3040, "pitch": 59, "duration": 4, "velocity": 85}, {"time": 3043, "pitch": 60, "duration": 9, "velocity": 74}, {"time": 3043, "pitch": 62, "duration": 1, "velocity": 38}, {"time": 3046, "pitch": 48, "duration": 11, "velocity": 90}, {"time": 3046, "pitch": 64, "duration": 8, "velocity": 78}, {"time": 3046, "pitch": 67, "duration": 7, "velocity": 102}, {"time": 3055, "pitch": 62, "duration": 10, "velocity": 77}, {"time": 3058, "pitch": 50, "duration": 8, "velocity": 88}, {"time": 3058, "pitch": 66, "duration": 8, "velocity": 89}, {"time": 3058, "pitch": 69, "duration": 7, "velocity": 100}, {"time": 3070, "pitch": 52, "duration": 18, "velocity": 87}, {"time": 3070, "pitch": 59, "duration": 12, "velocity": 86}, {"time": 3070, "pitch": 64, "duration": 12, "velocity": 87}, {"time": 3070, "pitch": 67, "duration": 11, "velocity": 86}, {"time": 3094, "pitch": 48, "duration": 9, "velocity": 96}, {"time": 3097, "pitch": 55, "duration": 9, "velocity": 75}, {"time": 3100, "pitch": 60, "duration": 6, "velocity": 91}, {"time": 3103, "pitch": 62, "duration": 6, "velocity": 86}, {"time": 3103, "pitch": 67, "duration": 7, "velocity": 84}, {"time": 3106, "pitch": 50, "duration": 9, "velocity": 87}, {"time": 3109, "pitch": 57, "duration": 7, "velocity": 87}, {"time": 3112, "pitch": 62, "duration": 6, "velocity": 87}, {"time": 3115, "pitch": 66, "duration": 4, "velocity": 97}, {"time": 3118, "pitch": 52, "duration": 19, "velocity": 88}, {"time": 3121, "pitch": 59, "duration": 9, "velocity": 84}, {"time": 3124, "pitch": 64, "duration": 2, "velocity": 83}, {"time": 3127, "pitch": 71, "duration": 8, "velocity": 114}, {"time": 3130, "pitch": 67, "duration": 6, "velocity": 90}, {"time": 3133, "pitch": 59, "duration": 4, "velocity": 88}, {"time": 3136, "pitch": 64, "duration": 6, "velocity": 88}, {"time": 3139, "pitch": 67, "duration": 3, "velocity": 87}, {"time": 3142, "pitch": 48, "duration": 9, "velocity": 102}, {"time": 3145, "pitch": 55, "duration": 10, "velocity": 81}, {"time": 3148, "pitch": 60, "duration": 4, "velocity": 88}, {"time": 3151, "pitch": 64, "duration": 7, "velocity": 91}, {"time": 3151, "pitch": 67, "duration": 4, "velocity": 82}, {"time": 3154, "pitch": 50, "duration": 8, "velocity": 91}, {"time": 3157, "pitch": 57, "duration": 6, "velocity": 86}, {"time": 3160, "pitch": 62, "duration": 6, "velocity": 90}, {"time": 3163, "pitch": 66, "duration": 4, "velocity": 91}, {"time": 3166, "pitch": 52, "duration": 17, "velocity": 88}, {"time": 3169, "pitch": 59, "duration": 7, "velocity": 83}, {"time": 3172, "pitch": 64, "duration": 2, "velocity": 78}, {"time": 3175, "pitch": 67, "duration": 6, "velocity": 117}, {"time": 3178, "pitch": 59, "duration": 5, "velocity": 98}, {"time": 3181, "pitch": 62, "duration": 4, "velocity": 86}, {"time": 3184, "pitch": 64, "duration": 3, "velocity": 87}, {"time": 3189, "pitch": 64, "duration": 20, "velocity": 65}, {"time": 3189, "pitch": 68, "duration": 20, "velocity": 79}, {"time": 3190, "pitch": 52, "duration": 60, "velocity": 86}, {"time": 3190, "pitch": 71, "duration": 19, "velocity": 84}, {"time": 3211, "pitch": 59, "duration": 39, "velocity": 70}, {"time": 3214, "pitch": 76, "duration": 8, "velocity": 66}, {"time": 3218, "pitch": 83, "duration": 3, "velocity": 75}, {"time": 3222, "pitch": 80, "duration": 11, "velocity": 82}, {"time": 3226, "pitch": 88, "duration": 4, "velocity": 86}, {"time": 3232, "pitch": 86, "duration": 18, "velocity": 86}, {"time": 3237, "pitch": 83, "duration": 13, "velocity": 78}, {"time": 3243, "pitch": 80, "duration": 7, "velocity": 75}]}]}