{"metadata": {"schema_version": "0.2", "title": "None", "source_filename": "324.mid", "source_format": "midi"}, "resolution": 12, "tempos": [{"time": 0, "qpm": 78.00017940041262}], "time_signatures": [{"time": 0, "numerator": 4, "denominator": 4}], "tracks": [{"program": 0, "is_drum": false, "name": "MELODY", "notes": [{"time": 205, "pitch": 65, "duration": 6, "velocity": 117}, {"time": 211, "pitch": 68, "duration": 6, "velocity": 116}, {"time": 217, "pitch": 70, "duration": 12, "velocity": 119}, {"time": 229, "pitch": 70, "duration": 6, "velocity": 110}, {"time": 235, "pitch": 70, "duration": 6, "velocity": 110}, {"time": 241, "pitch": 68, "duration": 12, "velocity": 117}, {"time": 253, "pitch": 68, "duration": 6, "velocity": 114}, {"time": 259, "pitch": 65, "duration": 42, "velocity": 113}, {"time": 301, "pitch": 65, "duration": 6, "velocity": 114}, {"time": 307, "pitch": 65, "duration": 6, "velocity": 114}, {"time": 313, "pitch": 63, "duration": 12, "velocity": 116}, {"time": 325, "pitch": 61, "duration": 6, "velocity": 100}, {"time": 331, "pitch": 61, "duration": 18, "velocity": 108}, {"time": 349, "pitch": 63, "duration": 6, "velocity": 108}, {"time": 355, "pitch": 65, "duration": 42, "velocity": 113}, {"time": 397, "pitch": 65, "duration": 6, "velocity": 110}, {"time": 403, "pitch": 68, "duration": 6, "velocity": 110}, {"time": 409, "pitch": 70, "duration": 12, "velocity": 116}, {"time": 421, "pitch": 70, "duration": 6, "velocity": 116}, {"time": 427, "pitch": 70, "duration": 6, "velocity": 114}, {"time": 433, "pitch": 68, "duration": 6, "velocity": 116}, {"time": 439, "pitch": 68, "duration": 6, "velocity": 114}, {"time": 445, "pitch": 72, "duration": 6, "velocity": 116}, {"time": 451, "pitch": 73, "duration": 18, "velocity": 116}, {"time": 469, "pitch": 72, "duration": 6, "velocity": 113}, {"time": 475, "pitch": 70, "duration": 18, "velocity": 114}, {"time": 493, "pitch": 70, "duration": 6, "velocity": 114}, {"time": 499, "pitch": 70, "duration": 6, "velocity": 113}, {"time": 505, "pitch": 68, "duration": 12, "velocity": 119}, {"time": 517, "pitch": 72, "duration": 6, "velocity": 116}, {"time": 523, "pitch": 73, "duration": 66, "velocity": 116}, {"time": 589, "pitch": 73, "duration": 6, "velocity": 116}, {"time": 595, "pitch": 72, "duration": 3, "velocity": 113}, {"time": 598, "pitch": 73, "duration": 15, "velocity": 110}, {"time": 613, "pitch": 73, "duration": 6, "velocity": 117}, {"time": 619, "pitch": 75, "duration": 6, "velocity": 116}, {"time": 625, "pitch": 72, "duration": 12, "velocity": 119}, {"time": 637, "pitch": 70, "duration": 6, "velocity": 117}, {"time": 643, "pitch": 68, "duration": 24, "velocity": 116}, {"time": 667, "pitch": 65, "duration": 3, "velocity": 107}, {"time": 670, "pitch": 68, "duration": 3, "velocity": 100}, {"time": 673, "pitch": 70, "duration": 12, "velocity": 116}, {"time": 685, "pitch": 68, "duration": 6, "velocity": 113}, {"time": 691, "pitch": 68, "duration": 12, "velocity": 113}, {"time": 703, "pitch": 66, "duration": 6, "velocity": 116}, {"time": 709, "pitch": 65, "duration": 6, "velocity": 113}, {"time": 715, "pitch": 65, "duration": 12, "velocity": 113}, {"time": 727, "pitch": 63, "duration": 30, "velocity": 113}, {"time": 757, "pitch": 65, "duration": 6, "velocity": 104}, {"time": 763, "pitch": 63, "duration": 6, "velocity": 108}, {"time": 769, "pitch": 61, "duration": 12, "velocity": 113}, {"time": 781, "pitch": 73, "duration": 6, "velocity": 119}, {"time": 787, "pitch": 72, "duration": 3, "velocity": 113}, {"time": 790, "pitch": 73, "duration": 15, "velocity": 114}, {"time": 805, "pitch": 77, "duration": 6, "velocity": 117}, {"time": 811, "pitch": 75, "duration": 3, "velocity": 110}, {"time": 814, "pitch": 73, "duration": 3, "velocity": 104}, {"time": 817, "pitch": 72, "duration": 12, "velocity": 114}, {"time": 829, "pitch": 70, "duration": 6, "velocity": 116}, {"time": 835, "pitch": 68, "duration": 24, "velocity": 116}, {"time": 859, "pitch": 66, "duration": 3, "velocity": 110}, {"time": 862, "pitch": 68, "duration": 3, "velocity": 108}, {"time": 865, "pitch": 70, "duration": 6, "velocity": 116}, {"time": 871, "pitch": 72, "duration": 6, "velocity": 116}, {"time": 877, "pitch": 73, "duration": 6, "velocity": 117}, {"time": 883, "pitch": 68, "duration": 12, "velocity": 117}, {"time": 895, "pitch": 66, "duration": 6, "velocity": 117}, {"time": 901, "pitch": 65, "duration": 6, "velocity": 117}, {"time": 907, "pitch": 65, "duration": 6, "velocity": 114}, {"time": 913, "pitch": 63, "duration": 90, "velocity": 108}, {"time": 1003, "pitch": 68, "duration": 6, "velocity": 117}, {"time": 1009, "pitch": 73, "duration": 6, "velocity": 117}, {"time": 1015, "pitch": 75, "duration": 6, "velocity": 117}, {"time": 1021, "pitch": 77, "duration": 6, "velocity": 120}, {"time": 1027, "pitch": 75, "duration": 12, "velocity": 119}, {"time": 1039, "pitch": 73, "duration": 6, "velocity": 114}, {"time": 1045, "pitch": 72, "duration": 6, "velocity": 117}, {"time": 1051, "pitch": 73, "duration": 48, "velocity": 114}, {"time": 1099, "pitch": 68, "duration": 6, "velocity": 114}, {"time": 1105, "pitch": 70, "duration": 6, "velocity": 119}, {"time": 1111, "pitch": 72, "duration": 6, "velocity": 116}, {"time": 1117, "pitch": 73, "duration": 6, "velocity": 117}, {"time": 1123, "pitch": 68, "duration": 12, "velocity": 114}, {"time": 1135, "pitch": 73, "duration": 12, "velocity": 119}, {"time": 1147, "pitch": 66, "duration": 18, "velocity": 117}, {"time": 1165, "pitch": 70, "duration": 6, "velocity": 119}, {"time": 1171, "pitch": 68, "duration": 24, "velocity": 114}, {"time": 1195, "pitch": 68, "duration": 6, "velocity": 117}, {"time": 1201, "pitch": 73, "duration": 6, "velocity": 116}, {"time": 1207, "pitch": 75, "duration": 6, "velocity": 114}, {"time": 1213, "pitch": 77, "duration": 6, "velocity": 119}, {"time": 1219, "pitch": 80, "duration": 12, "velocity": 120}, {"time": 1231, "pitch": 75, "duration": 6, "velocity": 113}, {"time": 1237, "pitch": 77, "duration": 6, "velocity": 114}, {"time": 1243, "pitch": 75, "duration": 6, "velocity": 116}, {"time": 1249, "pitch": 73, "duration": 42, "velocity": 110}, {"time": 1291, "pitch": 68, "duration": 3, "velocity": 100}, {"time": 1294, "pitch": 68, "duration": 3, "velocity": 104}, {"time": 1297, "pitch": 70, "duration": 6, "velocity": 114}, {"time": 1303, "pitch": 72, "duration": 6, "velocity": 114}, {"time": 1309, "pitch": 73, "duration": 6, "velocity": 114}, {"time": 1315, "pitch": 68, "duration": 12, "velocity": 117}, {"time": 1327, "pitch": 73, "duration": 6, "velocity": 100}, {"time": 1333, "pitch": 73, "duration": 6, "velocity": 116}, {"time": 1339, "pitch": 73, "duration": 6, "velocity": 117}, {"time": 1405, "pitch": 65, "duration": 6, "velocity": 117}, {"time": 1411, "pitch": 68, "duration": 6, "velocity": 116}, {"time": 1417, "pitch": 70, "duration": 12, "velocity": 119}, {"time": 1429, "pitch": 70, "duration": 6, "velocity": 110}, {"time": 1435, "pitch": 70, "duration": 6, "velocity": 110}, {"time": 1441, "pitch": 68, "duration": 12, "velocity": 117}, {"time": 1453, "pitch": 68, "duration": 6, "velocity": 114}, {"time": 1459, "pitch": 65, "duration": 42, "velocity": 113}, {"time": 1501, "pitch": 65, "duration": 6, "velocity": 114}, {"time": 1507, "pitch": 65, "duration": 6, "velocity": 114}, {"time": 1513, "pitch": 63, "duration": 12, "velocity": 116}, {"time": 1525, "pitch": 61, "duration": 6, "velocity": 100}, {"time": 1531, "pitch": 61, "duration": 18, "velocity": 108}, {"time": 1549, "pitch": 63, "duration": 6, "velocity": 108}, {"time": 1555, "pitch": 65, "duration": 42, "velocity": 113}, {"time": 1597, "pitch": 65, "duration": 6, "velocity": 110}, {"time": 1603, "pitch": 68, "duration": 6, "velocity": 110}, {"time": 1609, "pitch": 70, "duration": 12, "velocity": 116}, {"time": 1621, "pitch": 70, "duration": 6, "velocity": 116}, {"time": 1627, "pitch": 70, "duration": 6, "velocity": 114}, {"time": 1633, "pitch": 68, "duration": 6, "velocity": 116}, {"time": 1639, "pitch": 68, "duration": 6, "velocity": 114}, {"time": 1645, "pitch": 72, "duration": 6, "velocity": 116}, {"time": 1651, "pitch": 73, "duration": 18, "velocity": 116}, {"time": 1669, "pitch": 72, "duration": 6, "velocity": 113}, {"time": 1675, "pitch": 70, "duration": 18, "velocity": 114}, {"time": 1693, "pitch": 70, "duration": 6, "velocity": 114}, {"time": 1699, "pitch": 70, "duration": 6, "velocity": 113}, {"time": 1705, "pitch": 68, "duration": 12, "velocity": 119}, {"time": 1717, "pitch": 72, "duration": 6, "velocity": 116}, {"time": 1723, "pitch": 73, "duration": 66, "velocity": 116}, {"time": 1789, "pitch": 73, "duration": 6, "velocity": 116}, {"time": 1795, "pitch": 72, "duration": 3, "velocity": 113}, {"time": 1798, "pitch": 73, "duration": 15, "velocity": 110}, {"time": 1813, "pitch": 73, "duration": 6, "velocity": 117}, {"time": 1819, "pitch": 75, "duration": 6, "velocity": 116}, {"time": 1825, "pitch": 72, "duration": 12, "velocity": 119}, {"time": 1837, "pitch": 70, "duration": 6, "velocity": 117}, {"time": 1843, "pitch": 68, "duration": 24, "velocity": 116}, {"time": 1867, "pitch": 65, "duration": 3, "velocity": 107}, {"time": 1870, "pitch": 68, "duration": 3, "velocity": 100}, {"time": 1873, "pitch": 70, "duration": 12, "velocity": 116}, {"time": 1885, "pitch": 68, "duration": 6, "velocity": 113}, {"time": 1891, "pitch": 68, "duration": 12, "velocity": 113}, {"time": 1903, "pitch": 66, "duration": 6, "velocity": 116}, {"time": 1909, "pitch": 65, "duration": 6, "velocity": 113}, {"time": 1915, "pitch": 65, "duration": 12, "velocity": 113}, {"time": 1927, "pitch": 63, "duration": 30, "velocity": 113}, {"time": 1957, "pitch": 65, "duration": 6, "velocity": 104}, {"time": 1963, "pitch": 63, "duration": 6, "velocity": 108}, {"time": 1969, "pitch": 61, "duration": 12, "velocity": 113}, {"time": 1981, "pitch": 73, "duration": 6, "velocity": 119}, {"time": 1987, "pitch": 72, "duration": 3, "velocity": 113}, {"time": 1990, "pitch": 73, "duration": 15, "velocity": 114}, {"time": 2005, "pitch": 77, "duration": 6, "velocity": 117}, {"time": 2011, "pitch": 75, "duration": 3, "velocity": 110}, {"time": 2014, "pitch": 73, "duration": 3, "velocity": 104}, {"time": 2017, "pitch": 72, "duration": 12, "velocity": 114}, {"time": 2029, "pitch": 70, "duration": 6, "velocity": 116}, {"time": 2035, "pitch": 68, "duration": 24, "velocity": 116}, {"time": 2059, "pitch": 66, "duration": 3, "velocity": 110}, {"time": 2062, "pitch": 68, "duration": 3, "velocity": 108}, {"time": 2065, "pitch": 70, "duration": 6, "velocity": 116}, {"time": 2071, "pitch": 72, "duration": 6, "velocity": 116}, {"time": 2077, "pitch": 73, "duration": 6, "velocity": 117}, {"time": 2083, "pitch": 68, "duration": 12, "velocity": 117}, {"time": 2095, "pitch": 66, "duration": 6, "velocity": 117}, {"time": 2101, "pitch": 65, "duration": 6, "velocity": 117}, {"time": 2107, "pitch": 65, "duration": 6, "velocity": 114}, {"time": 2113, "pitch": 63, "duration": 42, "velocity": 108}, {"time": 2155, "pitch": 68, "duration": 6, "velocity": 117}, {"time": 2161, "pitch": 73, "duration": 6, "velocity": 117}, {"time": 2167, "pitch": 75, "duration": 6, "velocity": 117}, {"time": 2173, "pitch": 77, "duration": 6, "velocity": 120}, {"time": 2179, "pitch": 75, "duration": 12, "velocity": 119}, {"time": 2191, "pitch": 73, "duration": 6, "velocity": 114}, {"time": 2197, "pitch": 72, "duration": 6, "velocity": 117}, {"time": 2203, "pitch": 73, "duration": 48, "velocity": 114}, {"time": 2251, "pitch": 68, "duration": 6, "velocity": 114}, {"time": 2257, "pitch": 70, "duration": 6, "velocity": 119}, {"time": 2263, "pitch": 72, "duration": 6, "velocity": 116}, {"time": 2269, "pitch": 73, "duration": 6, "velocity": 117}, {"time": 2275, "pitch": 68, "duration": 12, "velocity": 114}, {"time": 2287, "pitch": 73, "duration": 12, "velocity": 119}, {"time": 2299, "pitch": 66, "duration": 18, "velocity": 117}, {"time": 2317, "pitch": 70, "duration": 6, "velocity": 119}, {"time": 2323, "pitch": 68, "duration": 24, "velocity": 114}, {"time": 2347, "pitch": 68, "duration": 6, "velocity": 117}, {"time": 2353, "pitch": 73, "duration": 6, "velocity": 116}, {"time": 2359, "pitch": 75, "duration": 6, "velocity": 114}, {"time": 2365, "pitch": 77, "duration": 6, "velocity": 119}, {"time": 2371, "pitch": 80, "duration": 12, "velocity": 120}, {"time": 2383, "pitch": 75, "duration": 6, "velocity": 113}, {"time": 2389, "pitch": 77, "duration": 6, "velocity": 114}, {"time": 2395, "pitch": 75, "duration": 6, "velocity": 116}, {"time": 2401, "pitch": 73, "duration": 42, "velocity": 110}, {"time": 2443, "pitch": 68, "duration": 3, "velocity": 100}, {"time": 2446, "pitch": 68, "duration": 3, "velocity": 104}, {"time": 2449, "pitch": 70, "duration": 6, "velocity": 114}, {"time": 2455, "pitch": 72, "duration": 6, "velocity": 114}, {"time": 2461, "pitch": 73, "duration": 6, "velocity": 114}, {"time": 2467, "pitch": 68, "duration": 12, "velocity": 117}, {"time": 2479, "pitch": 73, "duration": 6, "velocity": 100}, {"time": 2485, "pitch": 73, "duration": 6, "velocity": 116}, {"time": 2491, "pitch": 73, "duration": 55, "velocity": 117}, {"time": 2557, "pitch": 65, "duration": 6, "velocity": 117}, {"time": 2563, "pitch": 68, "duration": 6, "velocity": 116}, {"time": 2569, "pitch": 70, "duration": 12, "velocity": 119}, {"time": 2581, "pitch": 70, "duration": 6, "velocity": 110}, {"time": 2587, "pitch": 70, "duration": 6, "velocity": 110}, {"time": 2593, "pitch": 68, "duration": 12, "velocity": 117}, {"time": 2605, "pitch": 68, "duration": 6, "velocity": 114}, {"time": 2611, "pitch": 65, "duration": 42, "velocity": 113}, {"time": 2653, "pitch": 65, "duration": 6, "velocity": 114}, {"time": 2659, "pitch": 65, "duration": 6, "velocity": 114}, {"time": 2665, "pitch": 63, "duration": 12, "velocity": 116}, {"time": 2677, "pitch": 61, "duration": 6, "velocity": 100}, {"time": 2683, "pitch": 61, "duration": 18, "velocity": 108}, {"time": 2701, "pitch": 63, "duration": 6, "velocity": 108}, {"time": 2707, "pitch": 65, "duration": 42, "velocity": 113}, {"time": 2749, "pitch": 65, "duration": 6, "velocity": 110}, {"time": 2755, "pitch": 68, "duration": 6, "velocity": 110}, {"time": 2761, "pitch": 70, "duration": 12, "velocity": 116}, {"time": 2773, "pitch": 70, "duration": 6, "velocity": 116}, {"time": 2779, "pitch": 70, "duration": 6, "velocity": 114}, {"time": 2785, "pitch": 68, "duration": 6, "velocity": 116}, {"time": 2791, "pitch": 68, "duration": 6, "velocity": 114}, {"time": 2797, "pitch": 72, "duration": 6, "velocity": 116}, {"time": 2803, "pitch": 73, "duration": 24, "velocity": 116}, {"time": 2827, "pitch": 68, "duration": 3, "velocity": 104}, {"time": 2830, "pitch": 68, "duration": 3, "velocity": 100}, {"time": 2833, "pitch": 70, "duration": 6, "velocity": 116}, {"time": 2839, "pitch": 72, "duration": 6, "velocity": 88}, {"time": 2845, "pitch": 73, "duration": 6, "velocity": 108}, {"time": 2851, "pitch": 68, "duration": 12, "velocity": 114}, {"time": 2863, "pitch": 73, "duration": 6, "velocity": 113}, {"time": 2869, "pitch": 73, "duration": 6, "velocity": 116}, {"time": 2875, "pitch": 73, "duration": 48, "velocity": 117}, {"time": 2923, "pitch": 68, "duration": 3, "velocity": 104}, {"time": 2926, "pitch": 68, "duration": 3, "velocity": 102}, {"time": 2929, "pitch": 70, "duration": 6, "velocity": 114}, {"time": 2935, "pitch": 72, "duration": 6, "velocity": 110}, {"time": 2941, "pitch": 73, "duration": 6, "velocity": 108}, {"time": 2947, "pitch": 68, "duration": 12, "velocity": 113}, {"time": 2959, "pitch": 73, "duration": 6, "velocity": 104}, {"time": 2965, "pitch": 73, "duration": 6, "velocity": 98}, {"time": 2971, "pitch": 73, "duration": 54, "velocity": 107}, {"time": 3025, "pitch": 68, "duration": 6, "velocity": 107}, {"time": 3031, "pitch": 70, "duration": 9, "velocity": 113}, {"time": 3040, "pitch": 72, "duration": 9, "velocity": 108}, {"time": 3049, "pitch": 73, "duration": 9, "velocity": 108}, {"time": 3058, "pitch": 68, "duration": 51, "velocity": 113}, {"time": 3109, "pitch": 65, "duration": 5, "velocity": 96}, {"time": 3112, "pitch": 63, "duration": 3, "velocity": 86}, {"time": 3115, "pitch": 61, "duration": 27, "velocity": 88}]}, {"program": 0, "is_drum": false, "name": "BRIDGE", "notes": [{"time": 4, "pitch": 61, "duration": 5, "velocity": 114}, {"time": 9, "pitch": 65, "duration": 3, "velocity": 100}, {"time": 12, "pitch": 66, "duration": 3, "velocity": 107}, {"time": 15, "pitch": 68, "duration": 22, "velocity": 116}, {"time": 37, "pitch": 73, "duration": 5, "velocity": 91}, {"time": 42, "pitch": 70, "duration": 4, "velocity": 92}, {"time": 46, "pitch": 68, "duration": 5, "velocity": 91}, {"time": 51, "pitch": 68, "duration": 3, "velocity": 91}, {"time": 54, "pitch": 65, "duration": 3, "velocity": 86}, {"time": 57, "pitch": 66, "duration": 3, "velocity": 88}, {"time": 60, "pitch": 68, "duration": 7, "velocity": 94}, {"time": 67, "pitch": 68, "duration": 21, "velocity": 90}, {"time": 88, "pitch": 68, "duration": 3, "velocity": 108}, {"time": 91, "pitch": 70, "duration": 3, "velocity": 113}, {"time": 94, "pitch": 72, "duration": 3, "velocity": 114}, {"time": 97, "pitch": 73, "duration": 9, "velocity": 114}, {"time": 106, "pitch": 82, "duration": 9, "velocity": 114}, {"time": 115, "pitch": 80, "duration": 12, "velocity": 98}, {"time": 127, "pitch": 77, "duration": 6, "velocity": 92}, {"time": 133, "pitch": 77, "duration": 3, "velocity": 94}, {"time": 136, "pitch": 75, "duration": 9, "velocity": 91}, {"time": 1769, "pitch": 58, "duration": 6, "velocity": 93}, {"time": 1774, "pitch": 60, "duration": 3, "velocity": 93}, {"time": 1777, "pitch": 61, "duration": 22, "velocity": 93}, {"time": 1803, "pitch": 63, "duration": 23, "velocity": 93}, {"time": 1849, "pitch": 60, "duration": 14, "velocity": 93}, {"time": 1862, "pitch": 58, "duration": 11, "velocity": 93}, {"time": 1873, "pitch": 56, "duration": 21, "velocity": 93}, {"time": 1970, "pitch": 70, "duration": 46, "velocity": 76}, {"time": 2017, "pitch": 72, "duration": 16, "velocity": 76}, {"time": 2035, "pitch": 70, "duration": 6, "velocity": 76}, {"time": 2041, "pitch": 72, "duration": 21, "velocity": 78}, {"time": 2060, "pitch": 70, "duration": 3, "velocity": 78}, {"time": 2062, "pitch": 68, "duration": 5, "velocity": 77}, {"time": 2114, "pitch": 65, "duration": 26, "velocity": 85}, {"time": 2192, "pitch": 70, "duration": 6, "velocity": 85}, {"time": 2198, "pitch": 72, "duration": 6, "velocity": 85}, {"time": 2204, "pitch": 73, "duration": 13, "velocity": 85}, {"time": 2227, "pitch": 75, "duration": 3, "velocity": 85}, {"time": 2230, "pitch": 73, "duration": 3, "velocity": 85}, {"time": 2233, "pitch": 72, "duration": 3, "velocity": 85}, {"time": 2239, "pitch": 70, "duration": 5, "velocity": 85}, {"time": 2245, "pitch": 72, "duration": 10, "velocity": 85}, {"time": 2257, "pitch": 70, "duration": 25, "velocity": 85}, {"time": 2281, "pitch": 68, "duration": 21, "velocity": 85}, {"time": 2302, "pitch": 70, "duration": 4, "velocity": 85}, {"time": 2306, "pitch": 68, "duration": 22, "velocity": 85}, {"time": 2407, "pitch": 68, "duration": 6, "velocity": 85}, {"time": 2413, "pitch": 66, "duration": 11, "velocity": 85}, {"time": 2423, "pitch": 68, "duration": 24, "velocity": 85}]}, {"program": 0, "is_drum": false, "name": "PIANO", "notes": [{"time": 145, "pitch": 49, "duration": 7, "velocity": 92}, {"time": 151, "pitch": 51, "duration": 4, "velocity": 89}, {"time": 154, "pitch": 53, "duration": 3, "velocity": 94}, {"time": 157, "pitch": 56, "duration": 6, "velocity": 98}, {"time": 163, "pitch": 61, "duration": 6, "velocity": 107}, {"time": 193, "pitch": 49, "duration": 18, "velocity": 92}, {"time": 199, "pitch": 56, "duration": 14, "velocity": 87}, {"time": 205, "pitch": 63, "duration": 7, "velocity": 91}, {"time": 211, "pitch": 65, "duration": 7, "velocity": 91}, {"time": 217, "pitch": 54, "duration": 20, "velocity": 90}, {"time": 223, "pitch": 61, "duration": 14, "velocity": 87}, {"time": 229, "pitch": 66, "duration": 7, "velocity": 89}, {"time": 235, "pitch": 70, "duration": 6, "velocity": 98}, {"time": 241, "pitch": 56, "duration": 17, "velocity": 92}, {"time": 247, "pitch": 63, "duration": 10, "velocity": 89}, {"time": 253, "pitch": 68, "duration": 17, "velocity": 114}, {"time": 265, "pitch": 49, "duration": 16, "velocity": 91}, {"time": 271, "pitch": 56, "duration": 9, "velocity": 83}, {"time": 277, "pitch": 63, "duration": 13, "velocity": 87}, {"time": 289, "pitch": 46, "duration": 18, "velocity": 89}, {"time": 295, "pitch": 53, "duration": 12, "velocity": 81}, {"time": 301, "pitch": 58, "duration": 12, "velocity": 88}, {"time": 307, "pitch": 61, "duration": 9, "velocity": 94}, {"time": 313, "pitch": 51, "duration": 19, "velocity": 88}, {"time": 319, "pitch": 58, "duration": 12, "velocity": 86}, {"time": 325, "pitch": 63, "duration": 13, "velocity": 98}, {"time": 331, "pitch": 66, "duration": 7, "velocity": 93}, {"time": 337, "pitch": 44, "duration": 19, "velocity": 89}, {"time": 343, "pitch": 51, "duration": 13, "velocity": 84}, {"time": 349, "pitch": 56, "duration": 9, "velocity": 88}, {"time": 355, "pitch": 60, "duration": 6, "velocity": 84}, {"time": 361, "pitch": 49, "duration": 43, "velocity": 92}, {"time": 367, "pitch": 56, "duration": 36, "velocity": 86}, {"time": 373, "pitch": 61, "duration": 18, "velocity": 86}, {"time": 379, "pitch": 63, "duration": 7, "velocity": 86}, {"time": 379, "pitch": 68, "duration": 18, "velocity": 84}, {"time": 385, "pitch": 65, "duration": 15, "velocity": 90}, {"time": 397, "pitch": 61, "duration": 4, "velocity": 87}, {"time": 403, "pitch": 63, "duration": 5, "velocity": 84}, {"time": 403, "pitch": 68, "duration": 5, "velocity": 74}, {"time": 409, "pitch": 42, "duration": 20, "velocity": 98}, {"time": 415, "pitch": 54, "duration": 18, "velocity": 86}, {"time": 421, "pitch": 58, "duration": 13, "velocity": 90}, {"time": 427, "pitch": 61, "duration": 11, "velocity": 88}, {"time": 433, "pitch": 44, "duration": 18, "velocity": 88}, {"time": 439, "pitch": 56, "duration": 11, "velocity": 87}, {"time": 445, "pitch": 60, "duration": 10, "velocity": 94}, {"time": 451, "pitch": 63, "duration": 6, "velocity": 88}, {"time": 457, "pitch": 46, "duration": 16, "velocity": 89}, {"time": 463, "pitch": 53, "duration": 8, "velocity": 76}, {"time": 469, "pitch": 61, "duration": 15, "velocity": 88}, {"time": 469, "pitch": 70, "duration": 13, "velocity": 87}, {"time": 475, "pitch": 44, "duration": 6, "velocity": 86}, {"time": 481, "pitch": 42, "duration": 19, "velocity": 92}, {"time": 487, "pitch": 54, "duration": 17, "velocity": 81}, {"time": 493, "pitch": 58, "duration": 8, "velocity": 84}, {"time": 499, "pitch": 61, "duration": 8, "velocity": 88}, {"time": 505, "pitch": 44, "duration": 19, "velocity": 88}, {"time": 511, "pitch": 51, "duration": 14, "velocity": 86}, {"time": 517, "pitch": 56, "duration": 12, "velocity": 80}, {"time": 523, "pitch": 60, "duration": 7, "velocity": 89}, {"time": 529, "pitch": 49, "duration": 19, "velocity": 85}, {"time": 535, "pitch": 56, "duration": 13, "velocity": 80}, {"time": 535, "pitch": 63, "duration": 4, "velocity": 85}, {"time": 538, "pitch": 65, "duration": 2, "velocity": 86}, {"time": 541, "pitch": 68, "duration": 7, "velocity": 98}, {"time": 553, "pitch": 49, "duration": 15, "velocity": 80}, {"time": 559, "pitch": 56, "duration": 8, "velocity": 79}, {"time": 565, "pitch": 63, "duration": 16, "velocity": 86}, {"time": 571, "pitch": 48, "duration": 6, "velocity": 88}, {"time": 577, "pitch": 46, "duration": 20, "velocity": 91}, {"time": 583, "pitch": 53, "duration": 12, "velocity": 81}, {"time": 589, "pitch": 58, "duration": 6, "velocity": 100}, {"time": 595, "pitch": 61, "duration": 9, "velocity": 98}, {"time": 601, "pitch": 42, "duration": 19, "velocity": 94}, {"time": 607, "pitch": 54, "duration": 16, "velocity": 84}, {"time": 613, "pitch": 58, "duration": 7, "velocity": 88}, {"time": 619, "pitch": 61, "duration": 10, "velocity": 88}, {"time": 625, "pitch": 44, "duration": 18, "velocity": 90}, {"time": 631, "pitch": 56, "duration": 15, "velocity": 88}, {"time": 637, "pitch": 60, "duration": 11, "velocity": 87}, {"time": 643, "pitch": 63, "duration": 8, "velocity": 89}, {"time": 649, "pitch": 49, "duration": 17, "velocity": 89}, {"time": 655, "pitch": 56, "duration": 9, "velocity": 87}, {"time": 661, "pitch": 63, "duration": 7, "velocity": 94}, {"time": 661, "pitch": 68, "duration": 12, "velocity": 100}, {"time": 667, "pitch": 65, "duration": 7, "velocity": 90}, {"time": 673, "pitch": 42, "duration": 21, "velocity": 93}, {"time": 679, "pitch": 49, "duration": 18, "velocity": 84}, {"time": 685, "pitch": 54, "duration": 12, "velocity": 89}, {"time": 691, "pitch": 58, "duration": 7, "velocity": 87}, {"time": 697, "pitch": 42, "duration": 19, "velocity": 42}, {"time": 703, "pitch": 54, "duration": 18, "velocity": 87}, {"time": 709, "pitch": 58, "duration": 2, "velocity": 89}, {"time": 715, "pitch": 61, "duration": 7, "velocity": 93}, {"time": 721, "pitch": 44, "duration": 30, "velocity": 100}, {"time": 727, "pitch": 51, "duration": 23, "velocity": 88}, {"time": 733, "pitch": 56, "duration": 17, "velocity": 83}, {"time": 739, "pitch": 60, "duration": 7, "velocity": 84}, {"time": 745, "pitch": 63, "duration": 13, "velocity": 86}, {"time": 751, "pitch": 60, "duration": 3, "velocity": 81}, {"time": 757, "pitch": 41, "duration": 7, "velocity": 94}, {"time": 757, "pitch": 60, "duration": 13, "velocity": 91}, {"time": 757, "pitch": 69, "duration": 14, "velocity": 91}, {"time": 763, "pitch": 63, "duration": 8, "velocity": 90}, {"time": 769, "pitch": 46, "duration": 20, "velocity": 91}, {"time": 775, "pitch": 53, "duration": 19, "velocity": 86}, {"time": 781, "pitch": 58, "duration": 7, "velocity": 87}, {"time": 781, "pitch": 60, "duration": 8, "velocity": 86}, {"time": 781, "pitch": 65, "duration": 7, "velocity": 84}, {"time": 787, "pitch": 61, "duration": 8, "velocity": 87}, {"time": 793, "pitch": 46, "duration": 19, "velocity": 94}, {"time": 799, "pitch": 53, "duration": 18, "velocity": 87}, {"time": 805, "pitch": 61, "duration": 8, "velocity": 87}, {"time": 805, "pitch": 70, "duration": 12, "velocity": 87}, {"time": 811, "pitch": 65, "duration": 6, "velocity": 88}, {"time": 817, "pitch": 44, "duration": 42, "velocity": 87}, {"time": 823, "pitch": 53, "duration": 36, "velocity": 86}, {"time": 829, "pitch": 68, "duration": 6, "velocity": 98}, {"time": 835, "pitch": 65, "duration": 9, "velocity": 98}, {"time": 841, "pitch": 56, "duration": 8, "velocity": 84}, {"time": 847, "pitch": 61, "duration": 13, "velocity": 90}, {"time": 853, "pitch": 56, "duration": 5, "velocity": 87}, {"time": 865, "pitch": 42, "duration": 18, "velocity": 92}, {"time": 865, "pitch": 58, "duration": 7, "velocity": 87}, {"time": 865, "pitch": 61, "duration": 9, "velocity": 96}, {"time": 865, "pitch": 66, "duration": 6, "velocity": 89}, {"time": 871, "pitch": 54, "duration": 7, "velocity": 83}, {"time": 877, "pitch": 58, "duration": 8, "velocity": 100}, {"time": 877, "pitch": 66, "duration": 9, "velocity": 98}, {"time": 883, "pitch": 54, "duration": 6, "velocity": 81}, {"time": 889, "pitch": 44, "duration": 19, "velocity": 87}, {"time": 889, "pitch": 60, "duration": 7, "velocity": 87}, {"time": 889, "pitch": 63, "duration": 7, "velocity": 102}, {"time": 889, "pitch": 68, "duration": 7, "velocity": 100}, {"time": 895, "pitch": 51, "duration": 14, "velocity": 80}, {"time": 901, "pitch": 56, "duration": 13, "velocity": 85}, {"time": 901, "pitch": 60, "duration": 8, "velocity": 93}, {"time": 901, "pitch": 68, "duration": 7, "velocity": 91}, {"time": 907, "pitch": 63, "duration": 7, "velocity": 88}, {"time": 913, "pitch": 44, "duration": 45, "velocity": 98}, {"time": 919, "pitch": 51, "duration": 21, "velocity": 85}, {"time": 925, "pitch": 56, "duration": 15, "velocity": 88}, {"time": 931, "pitch": 61, "duration": 13, "velocity": 89}, {"time": 943, "pitch": 51, "duration": 40, "velocity": 83}, {"time": 949, "pitch": 56, "duration": 11, "velocity": 98}, {"time": 955, "pitch": 61, "duration": 5, "velocity": 88}, {"time": 960, "pitch": 44, "duration": 23, "velocity": 97}, {"time": 960, "pitch": 56, "duration": 22, "velocity": 81}, {"time": 961, "pitch": 60, "duration": 21, "velocity": 89}, {"time": 1009, "pitch": 49, "duration": 20, "velocity": 102}, {"time": 1015, "pitch": 56, "duration": 13, "velocity": 83}, {"time": 1021, "pitch": 63, "duration": 12, "velocity": 98}, {"time": 1021, "pitch": 68, "duration": 13, "velocity": 96}, {"time": 1027, "pitch": 65, "duration": 7, "velocity": 93}, {"time": 1033, "pitch": 44, "duration": 21, "velocity": 96}, {"time": 1039, "pitch": 56, "duration": 16, "velocity": 87}, {"time": 1045, "pitch": 60, "duration": 6, "velocity": 104}, {"time": 1045, "pitch": 68, "duration": 5, "velocity": 85}, {"time": 1051, "pitch": 60, "duration": 3, "velocity": 69}, {"time": 1051, "pitch": 63, "duration": 8, "velocity": 90}, {"time": 1051, "pitch": 68, "duration": 7, "velocity": 82}, {"time": 1057, "pitch": 46, "duration": 16, "velocity": 100}, {"time": 1063, "pitch": 53, "duration": 16, "velocity": 86}, {"time": 1069, "pitch": 58, "duration": 13, "velocity": 98}, {"time": 1075, "pitch": 60, "duration": 2, "velocity": 94}, {"time": 1075, "pitch": 65, "duration": 5, "velocity": 98}, {"time": 1081, "pitch": 44, "duration": 20, "velocity": 94}, {"time": 1087, "pitch": 53, "duration": 13, "velocity": 87}, {"time": 1093, "pitch": 60, "duration": 7, "velocity": 93}, {"time": 1099, "pitch": 63, "duration": 6, "velocity": 108}, {"time": 1105, "pitch": 42, "duration": 19, "velocity": 102}, {"time": 1105, "pitch": 58, "duration": 6, "velocity": 98}, {"time": 1105, "pitch": 61, "duration": 6, "velocity": 96}, {"time": 1105, "pitch": 66, "duration": 6, "velocity": 100}, {"time": 1111, "pitch": 54, "duration": 8, "velocity": 87}, {"time": 1117, "pitch": 58, "duration": 7, "velocity": 108}, {"time": 1117, "pitch": 66, "duration": 7, "velocity": 89}, {"time": 1123, "pitch": 54, "duration": 6, "velocity": 84}, {"time": 1123, "pitch": 61, "duration": 6, "velocity": 89}, {"time": 1129, "pitch": 44, "duration": 20, "velocity": 89}, {"time": 1129, "pitch": 60, "duration": 6, "velocity": 87}, {"time": 1129, "pitch": 63, "duration": 6, "velocity": 102}, {"time": 1129, "pitch": 68, "duration": 7, "velocity": 89}, {"time": 1135, "pitch": 51, "duration": 14, "velocity": 83}, {"time": 1141, "pitch": 56, "duration": 10, "velocity": 87}, {"time": 1141, "pitch": 60, "duration": 8, "velocity": 102}, {"time": 1141, "pitch": 68, "duration": 9, "velocity": 92}, {"time": 1147, "pitch": 63, "duration": 6, "velocity": 84}, {"time": 1153, "pitch": 51, "duration": 17, "velocity": 90}, {"time": 1159, "pitch": 58, "duration": 9, "velocity": 88}, {"time": 1165, "pitch": 63, "duration": 13, "velocity": 113}, {"time": 1165, "pitch": 70, "duration": 8, "velocity": 108}, {"time": 1171, "pitch": 66, "duration": 6, "velocity": 104}, {"time": 1177, "pitch": 44, "duration": 18, "velocity": 98}, {"time": 1183, "pitch": 56, "duration": 16, "velocity": 113}, {"time": 1189, "pitch": 60, "duration": 8, "velocity": 107}, {"time": 1189, "pitch": 68, "duration": 12, "velocity": 108}, {"time": 1195, "pitch": 63, "duration": 7, "velocity": 96}, {"time": 1201, "pitch": 49, "duration": 19, "velocity": 102}, {"time": 1207, "pitch": 56, "duration": 9, "velocity": 86}, {"time": 1213, "pitch": 63, "duration": 7, "velocity": 98}, {"time": 1213, "pitch": 68, "duration": 13, "velocity": 102}, {"time": 1219, "pitch": 65, "duration": 7, "velocity": 98}, {"time": 1225, "pitch": 44, "duration": 20, "velocity": 94}, {"time": 1231, "pitch": 56, "duration": 14, "velocity": 88}, {"time": 1237, "pitch": 60, "duration": 8, "velocity": 98}, {"time": 1237, "pitch": 68, "duration": 12, "velocity": 89}, {"time": 1243, "pitch": 63, "duration": 10, "velocity": 94}, {"time": 1249, "pitch": 46, "duration": 19, "velocity": 93}, {"time": 1255, "pitch": 53, "duration": 18, "velocity": 87}, {"time": 1261, "pitch": 61, "duration": 6, "velocity": 96}, {"time": 1267, "pitch": 65, "duration": 7, "velocity": 108}, {"time": 1273, "pitch": 44, "duration": 24, "velocity": 93}, {"time": 1279, "pitch": 53, "duration": 9, "velocity": 88}, {"time": 1285, "pitch": 60, "duration": 7, "velocity": 110}, {"time": 1291, "pitch": 63, "duration": 7, "velocity": 113}, {"time": 1297, "pitch": 42, "duration": 20, "velocity": 107}, {"time": 1303, "pitch": 54, "duration": 17, "velocity": 86}, {"time": 1309, "pitch": 58, "duration": 13, "velocity": 110}, {"time": 1309, "pitch": 66, "duration": 13, "velocity": 91}, {"time": 1315, "pitch": 61, "duration": 10, "velocity": 98}, {"time": 1321, "pitch": 44, "duration": 19, "velocity": 94}, {"time": 1327, "pitch": 51, "duration": 13, "velocity": 87}, {"time": 1333, "pitch": 60, "duration": 6, "velocity": 102}, {"time": 1333, "pitch": 68, "duration": 5, "velocity": 98}, {"time": 1339, "pitch": 60, "duration": 6, "velocity": 73}, {"time": 1339, "pitch": 63, "duration": 6, "velocity": 102}, {"time": 1339, "pitch": 68, "duration": 7, "velocity": 82}, {"time": 1345, "pitch": 49, "duration": 45, "velocity": 94}, {"time": 1351, "pitch": 56, "duration": 37, "velocity": 86}, {"time": 1357, "pitch": 66, "duration": 5, "velocity": 113}, {"time": 1363, "pitch": 61, "duration": 9, "velocity": 83}, {"time": 1369, "pitch": 65, "duration": 7, "velocity": 91}, {"time": 1369, "pitch": 73, "duration": 7, "velocity": 89}, {"time": 1375, "pitch": 61, "duration": 12, "velocity": 84}, {"time": 1381, "pitch": 65, "duration": 6, "velocity": 91}, {"time": 1381, "pitch": 68, "duration": 7, "velocity": 104}, {"time": 1393, "pitch": 49, "duration": 18, "velocity": 92}, {"time": 1399, "pitch": 56, "duration": 14, "velocity": 87}, {"time": 1405, "pitch": 63, "duration": 7, "velocity": 91}, {"time": 1411, "pitch": 65, "duration": 7, "velocity": 91}, {"time": 1417, "pitch": 54, "duration": 20, "velocity": 90}, {"time": 1423, "pitch": 61, "duration": 14, "velocity": 87}, {"time": 1429, "pitch": 66, "duration": 7, "velocity": 89}, {"time": 1435, "pitch": 70, "duration": 6, "velocity": 98}, {"time": 1441, "pitch": 56, "duration": 17, "velocity": 92}, {"time": 1447, "pitch": 63, "duration": 10, "velocity": 89}, {"time": 1453, "pitch": 68, "duration": 17, "velocity": 114}, {"time": 1465, "pitch": 49, "duration": 16, "velocity": 91}, {"time": 1471, "pitch": 56, "duration": 9, "velocity": 83}, {"time": 1477, "pitch": 63, "duration": 13, "velocity": 87}, {"time": 1489, "pitch": 46, "duration": 18, "velocity": 89}, {"time": 1495, "pitch": 53, "duration": 12, "velocity": 81}, {"time": 1501, "pitch": 58, "duration": 12, "velocity": 88}, {"time": 1507, "pitch": 61, "duration": 9, "velocity": 94}, {"time": 1513, "pitch": 51, "duration": 19, "velocity": 88}, {"time": 1519, "pitch": 58, "duration": 12, "velocity": 86}, {"time": 1525, "pitch": 63, "duration": 13, "velocity": 98}, {"time": 1531, "pitch": 66, "duration": 7, "velocity": 93}, {"time": 1537, "pitch": 44, "duration": 19, "velocity": 89}, {"time": 1543, "pitch": 51, "duration": 13, "velocity": 84}, {"time": 1549, "pitch": 56, "duration": 9, "velocity": 88}, {"time": 1555, "pitch": 60, "duration": 6, "velocity": 84}, {"time": 1561, "pitch": 49, "duration": 43, "velocity": 92}, {"time": 1567, "pitch": 56, "duration": 36, "velocity": 86}, {"time": 1573, "pitch": 61, "duration": 18, "velocity": 86}, {"time": 1579, "pitch": 63, "duration": 7, "velocity": 86}, {"time": 1579, "pitch": 68, "duration": 18, "velocity": 84}, {"time": 1585, "pitch": 65, "duration": 15, "velocity": 90}, {"time": 1597, "pitch": 61, "duration": 4, "velocity": 87}, {"time": 1603, "pitch": 63, "duration": 5, "velocity": 84}, {"time": 1603, "pitch": 68, "duration": 5, "velocity": 74}, {"time": 1609, "pitch": 42, "duration": 20, "velocity": 98}, {"time": 1615, "pitch": 54, "duration": 18, "velocity": 86}, {"time": 1621, "pitch": 58, "duration": 13, "velocity": 90}, {"time": 1627, "pitch": 61, "duration": 11, "velocity": 88}, {"time": 1633, "pitch": 44, "duration": 18, "velocity": 88}, {"time": 1639, "pitch": 56, "duration": 11, "velocity": 87}, {"time": 1645, "pitch": 60, "duration": 10, "velocity": 94}, {"time": 1651, "pitch": 63, "duration": 6, "velocity": 88}, {"time": 1657, "pitch": 46, "duration": 16, "velocity": 89}, {"time": 1663, "pitch": 53, "duration": 8, "velocity": 76}, {"time": 1669, "pitch": 61, "duration": 15, "velocity": 88}, {"time": 1669, "pitch": 70, "duration": 13, "velocity": 87}, {"time": 1675, "pitch": 44, "duration": 6, "velocity": 86}, {"time": 1681, "pitch": 42, "duration": 19, "velocity": 92}, {"time": 1687, "pitch": 54, "duration": 17, "velocity": 81}, {"time": 1693, "pitch": 58, "duration": 8, "velocity": 84}, {"time": 1699, "pitch": 61, "duration": 8, "velocity": 88}, {"time": 1705, "pitch": 44, "duration": 19, "velocity": 88}, {"time": 1711, "pitch": 51, "duration": 14, "velocity": 86}, {"time": 1717, "pitch": 56, "duration": 12, "velocity": 80}, {"time": 1723, "pitch": 60, "duration": 7, "velocity": 89}, {"time": 1729, "pitch": 49, "duration": 19, "velocity": 85}, {"time": 1735, "pitch": 56, "duration": 13, "velocity": 80}, {"time": 1735, "pitch": 63, "duration": 4, "velocity": 85}, {"time": 1738, "pitch": 65, "duration": 2, "velocity": 86}, {"time": 1741, "pitch": 68, "duration": 7, "velocity": 98}, {"time": 1753, "pitch": 49, "duration": 15, "velocity": 80}, {"time": 1759, "pitch": 56, "duration": 8, "velocity": 79}, {"time": 1765, "pitch": 63, "duration": 16, "velocity": 86}, {"time": 1771, "pitch": 48, "duration": 6, "velocity": 88}, {"time": 1777, "pitch": 46, "duration": 20, "velocity": 91}, {"time": 1783, "pitch": 53, "duration": 12, "velocity": 81}, {"time": 1789, "pitch": 58, "duration": 6, "velocity": 100}, {"time": 1795, "pitch": 61, "duration": 9, "velocity": 98}, {"time": 1801, "pitch": 42, "duration": 19, "velocity": 94}, {"time": 1807, "pitch": 54, "duration": 16, "velocity": 84}, {"time": 1813, "pitch": 58, "duration": 7, "velocity": 88}, {"time": 1819, "pitch": 61, "duration": 10, "velocity": 88}, {"time": 1825, "pitch": 44, "duration": 18, "velocity": 90}, {"time": 1831, "pitch": 56, "duration": 15, "velocity": 88}, {"time": 1837, "pitch": 60, "duration": 11, "velocity": 87}, {"time": 1843, "pitch": 63, "duration": 8, "velocity": 89}, {"time": 1849, "pitch": 49, "duration": 17, "velocity": 89}, {"time": 1855, "pitch": 56, "duration": 9, "velocity": 87}, {"time": 1861, "pitch": 63, "duration": 7, "velocity": 94}, {"time": 1861, "pitch": 68, "duration": 12, "velocity": 100}, {"time": 1867, "pitch": 65, "duration": 7, "velocity": 90}, {"time": 1873, "pitch": 42, "duration": 21, "velocity": 93}, {"time": 1879, "pitch": 49, "duration": 18, "velocity": 84}, {"time": 1885, "pitch": 54, "duration": 12, "velocity": 89}, {"time": 1891, "pitch": 58, "duration": 7, "velocity": 87}, {"time": 1897, "pitch": 42, "duration": 19, "velocity": 42}, {"time": 1903, "pitch": 54, "duration": 18, "velocity": 87}, {"time": 1909, "pitch": 58, "duration": 2, "velocity": 89}, {"time": 1915, "pitch": 61, "duration": 7, "velocity": 93}, {"time": 1921, "pitch": 44, "duration": 30, "velocity": 100}, {"time": 1927, "pitch": 51, "duration": 23, "velocity": 88}, {"time": 1933, "pitch": 56, "duration": 17, "velocity": 83}, {"time": 1939, "pitch": 60, "duration": 7, "velocity": 84}, {"time": 1945, "pitch": 63, "duration": 13, "velocity": 86}, {"time": 1951, "pitch": 60, "duration": 3, "velocity": 81}, {"time": 1957, "pitch": 41, "duration": 7, "velocity": 94}, {"time": 1957, "pitch": 60, "duration": 13, "velocity": 91}, {"time": 1957, "pitch": 69, "duration": 14, "velocity": 91}, {"time": 1963, "pitch": 63, "duration": 8, "velocity": 90}, {"time": 1969, "pitch": 46, "duration": 20, "velocity": 91}, {"time": 1975, "pitch": 53, "duration": 19, "velocity": 86}, {"time": 1981, "pitch": 58, "duration": 7, "velocity": 87}, {"time": 1981, "pitch": 60, "duration": 8, "velocity": 86}, {"time": 1981, "pitch": 65, "duration": 7, "velocity": 84}, {"time": 1987, "pitch": 61, "duration": 8, "velocity": 87}, {"time": 1993, "pitch": 46, "duration": 19, "velocity": 94}, {"time": 1999, "pitch": 53, "duration": 18, "velocity": 87}, {"time": 2005, "pitch": 61, "duration": 8, "velocity": 87}, {"time": 2005, "pitch": 70, "duration": 12, "velocity": 87}, {"time": 2011, "pitch": 65, "duration": 6, "velocity": 88}, {"time": 2017, "pitch": 44, "duration": 42, "velocity": 87}, {"time": 2023, "pitch": 53, "duration": 36, "velocity": 86}, {"time": 2029, "pitch": 68, "duration": 6, "velocity": 98}, {"time": 2035, "pitch": 65, "duration": 9, "velocity": 98}, {"time": 2041, "pitch": 56, "duration": 8, "velocity": 84}, {"time": 2047, "pitch": 61, "duration": 13, "velocity": 90}, {"time": 2053, "pitch": 56, "duration": 5, "velocity": 87}, {"time": 2065, "pitch": 42, "duration": 18, "velocity": 92}, {"time": 2065, "pitch": 58, "duration": 7, "velocity": 87}, {"time": 2065, "pitch": 61, "duration": 9, "velocity": 96}, {"time": 2065, "pitch": 66, "duration": 6, "velocity": 89}, {"time": 2071, "pitch": 54, "duration": 7, "velocity": 83}, {"time": 2077, "pitch": 58, "duration": 8, "velocity": 100}, {"time": 2077, "pitch": 66, "duration": 9, "velocity": 98}, {"time": 2083, "pitch": 54, "duration": 6, "velocity": 81}, {"time": 2089, "pitch": 44, "duration": 19, "velocity": 87}, {"time": 2089, "pitch": 60, "duration": 7, "velocity": 87}, {"time": 2089, "pitch": 63, "duration": 7, "velocity": 102}, {"time": 2089, "pitch": 68, "duration": 7, "velocity": 100}, {"time": 2095, "pitch": 51, "duration": 14, "velocity": 80}, {"time": 2101, "pitch": 56, "duration": 13, "velocity": 85}, {"time": 2101, "pitch": 60, "duration": 8, "velocity": 93}, {"time": 2101, "pitch": 68, "duration": 7, "velocity": 91}, {"time": 2107, "pitch": 63, "duration": 7, "velocity": 88}, {"time": 2113, "pitch": 44, "duration": 43, "velocity": 98}, {"time": 2119, "pitch": 51, "duration": 37, "velocity": 85}, {"time": 2125, "pitch": 56, "duration": 15, "velocity": 88}, {"time": 2131, "pitch": 60, "duration": 8, "velocity": 87}, {"time": 2131, "pitch": 68, "duration": 13, "velocity": 89}, {"time": 2137, "pitch": 63, "duration": 8, "velocity": 87}, {"time": 2143, "pitch": 56, "duration": 15, "velocity": 83}, {"time": 2149, "pitch": 60, "duration": 7, "velocity": 98}, {"time": 2149, "pitch": 68, "duration": 11, "velocity": 88}, {"time": 2155, "pitch": 63, "duration": 5, "velocity": 88}, {"time": 2161, "pitch": 49, "duration": 20, "velocity": 102}, {"time": 2167, "pitch": 56, "duration": 13, "velocity": 83}, {"time": 2173, "pitch": 63, "duration": 12, "velocity": 98}, {"time": 2173, "pitch": 68, "duration": 13, "velocity": 96}, {"time": 2179, "pitch": 65, "duration": 7, "velocity": 93}, {"time": 2185, "pitch": 44, "duration": 21, "velocity": 96}, {"time": 2191, "pitch": 56, "duration": 16, "velocity": 87}, {"time": 2197, "pitch": 60, "duration": 6, "velocity": 104}, {"time": 2197, "pitch": 68, "duration": 5, "velocity": 85}, {"time": 2203, "pitch": 60, "duration": 3, "velocity": 69}, {"time": 2203, "pitch": 63, "duration": 8, "velocity": 90}, {"time": 2203, "pitch": 68, "duration": 7, "velocity": 82}, {"time": 2209, "pitch": 46, "duration": 16, "velocity": 100}, {"time": 2215, "pitch": 53, "duration": 16, "velocity": 86}, {"time": 2221, "pitch": 58, "duration": 13, "velocity": 98}, {"time": 2227, "pitch": 60, "duration": 2, "velocity": 94}, {"time": 2227, "pitch": 65, "duration": 5, "velocity": 98}, {"time": 2233, "pitch": 44, "duration": 20, "velocity": 94}, {"time": 2239, "pitch": 53, "duration": 13, "velocity": 87}, {"time": 2245, "pitch": 60, "duration": 7, "velocity": 93}, {"time": 2251, "pitch": 63, "duration": 6, "velocity": 108}, {"time": 2257, "pitch": 42, "duration": 19, "velocity": 102}, {"time": 2257, "pitch": 58, "duration": 6, "velocity": 98}, {"time": 2257, "pitch": 61, "duration": 6, "velocity": 96}, {"time": 2257, "pitch": 66, "duration": 6, "velocity": 100}, {"time": 2263, "pitch": 54, "duration": 8, "velocity": 87}, {"time": 2269, "pitch": 58, "duration": 7, "velocity": 108}, {"time": 2269, "pitch": 66, "duration": 7, "velocity": 89}, {"time": 2275, "pitch": 54, "duration": 6, "velocity": 84}, {"time": 2275, "pitch": 61, "duration": 6, "velocity": 89}, {"time": 2281, "pitch": 44, "duration": 20, "velocity": 89}, {"time": 2281, "pitch": 60, "duration": 6, "velocity": 87}, {"time": 2281, "pitch": 63, "duration": 6, "velocity": 102}, {"time": 2281, "pitch": 68, "duration": 7, "velocity": 89}, {"time": 2287, "pitch": 51, "duration": 14, "velocity": 83}, {"time": 2293, "pitch": 56, "duration": 10, "velocity": 87}, {"time": 2293, "pitch": 60, "duration": 8, "velocity": 102}, {"time": 2293, "pitch": 68, "duration": 9, "velocity": 92}, {"time": 2299, "pitch": 63, "duration": 6, "velocity": 84}, {"time": 2305, "pitch": 51, "duration": 17, "velocity": 90}, {"time": 2311, "pitch": 58, "duration": 9, "velocity": 88}, {"time": 2317, "pitch": 63, "duration": 13, "velocity": 113}, {"time": 2317, "pitch": 70, "duration": 8, "velocity": 108}, {"time": 2323, "pitch": 66, "duration": 6, "velocity": 104}, {"time": 2329, "pitch": 44, "duration": 18, "velocity": 98}, {"time": 2335, "pitch": 56, "duration": 16, "velocity": 113}, {"time": 2341, "pitch": 60, "duration": 8, "velocity": 107}, {"time": 2341, "pitch": 68, "duration": 12, "velocity": 108}, {"time": 2347, "pitch": 63, "duration": 7, "velocity": 96}, {"time": 2353, "pitch": 49, "duration": 19, "velocity": 102}, {"time": 2359, "pitch": 56, "duration": 9, "velocity": 86}, {"time": 2365, "pitch": 63, "duration": 7, "velocity": 98}, {"time": 2365, "pitch": 68, "duration": 13, "velocity": 102}, {"time": 2371, "pitch": 65, "duration": 7, "velocity": 98}, {"time": 2377, "pitch": 44, "duration": 20, "velocity": 94}, {"time": 2383, "pitch": 56, "duration": 14, "velocity": 88}, {"time": 2389, "pitch": 60, "duration": 8, "velocity": 98}, {"time": 2389, "pitch": 68, "duration": 12, "velocity": 89}, {"time": 2395, "pitch": 63, "duration": 10, "velocity": 94}, {"time": 2401, "pitch": 46, "duration": 19, "velocity": 93}, {"time": 2407, "pitch": 53, "duration": 18, "velocity": 87}, {"time": 2413, "pitch": 61, "duration": 6, "velocity": 96}, {"time": 2419, "pitch": 65, "duration": 7, "velocity": 108}, {"time": 2425, "pitch": 44, "duration": 24, "velocity": 93}, {"time": 2431, "pitch": 53, "duration": 9, "velocity": 88}, {"time": 2437, "pitch": 60, "duration": 7, "velocity": 110}, {"time": 2443, "pitch": 63, "duration": 7, "velocity": 113}, {"time": 2449, "pitch": 42, "duration": 20, "velocity": 107}, {"time": 2455, "pitch": 54, "duration": 17, "velocity": 86}, {"time": 2461, "pitch": 58, "duration": 13, "velocity": 110}, {"time": 2461, "pitch": 66, "duration": 13, "velocity": 91}, {"time": 2467, "pitch": 61, "duration": 10, "velocity": 98}, {"time": 2473, "pitch": 44, "duration": 19, "velocity": 94}, {"time": 2479, "pitch": 51, "duration": 13, "velocity": 87}, {"time": 2485, "pitch": 60, "duration": 6, "velocity": 102}, {"time": 2485, "pitch": 68, "duration": 5, "velocity": 98}, {"time": 2491, "pitch": 60, "duration": 6, "velocity": 73}, {"time": 2491, "pitch": 63, "duration": 6, "velocity": 102}, {"time": 2491, "pitch": 68, "duration": 7, "velocity": 82}, {"time": 2497, "pitch": 49, "duration": 45, "velocity": 94}, {"time": 2503, "pitch": 56, "duration": 37, "velocity": 86}, {"time": 2509, "pitch": 66, "duration": 5, "velocity": 113}, {"time": 2515, "pitch": 61, "duration": 9, "velocity": 83}, {"time": 2521, "pitch": 65, "duration": 7, "velocity": 91}, {"time": 2521, "pitch": 73, "duration": 7, "velocity": 89}, {"time": 2527, "pitch": 61, "duration": 12, "velocity": 84}, {"time": 2533, "pitch": 65, "duration": 6, "velocity": 91}, {"time": 2533, "pitch": 68, "duration": 7, "velocity": 104}, {"time": 2545, "pitch": 49, "duration": 18, "velocity": 92}, {"time": 2551, "pitch": 56, "duration": 14, "velocity": 87}, {"time": 2557, "pitch": 63, "duration": 7, "velocity": 91}, {"time": 2563, "pitch": 65, "duration": 7, "velocity": 91}, {"time": 2569, "pitch": 54, "duration": 20, "velocity": 90}, {"time": 2575, "pitch": 61, "duration": 14, "velocity": 87}, {"time": 2581, "pitch": 66, "duration": 7, "velocity": 89}, {"time": 2587, "pitch": 70, "duration": 6, "velocity": 98}, {"time": 2593, "pitch": 56, "duration": 17, "velocity": 92}, {"time": 2599, "pitch": 63, "duration": 10, "velocity": 89}, {"time": 2605, "pitch": 68, "duration": 17, "velocity": 114}, {"time": 2617, "pitch": 49, "duration": 16, "velocity": 91}, {"time": 2623, "pitch": 56, "duration": 9, "velocity": 83}, {"time": 2629, "pitch": 63, "duration": 13, "velocity": 87}, {"time": 2641, "pitch": 46, "duration": 18, "velocity": 89}, {"time": 2647, "pitch": 53, "duration": 12, "velocity": 81}, {"time": 2653, "pitch": 58, "duration": 12, "velocity": 88}, {"time": 2659, "pitch": 61, "duration": 9, "velocity": 94}, {"time": 2665, "pitch": 51, "duration": 19, "velocity": 88}, {"time": 2671, "pitch": 58, "duration": 12, "velocity": 86}, {"time": 2677, "pitch": 63, "duration": 13, "velocity": 98}, {"time": 2683, "pitch": 66, "duration": 7, "velocity": 93}, {"time": 2689, "pitch": 44, "duration": 19, "velocity": 89}, {"time": 2695, "pitch": 51, "duration": 13, "velocity": 84}, {"time": 2701, "pitch": 56, "duration": 9, "velocity": 88}, {"time": 2707, "pitch": 60, "duration": 6, "velocity": 84}, {"time": 2713, "pitch": 49, "duration": 43, "velocity": 92}, {"time": 2719, "pitch": 56, "duration": 36, "velocity": 86}, {"time": 2725, "pitch": 61, "duration": 18, "velocity": 86}, {"time": 2731, "pitch": 63, "duration": 7, "velocity": 86}, {"time": 2731, "pitch": 68, "duration": 18, "velocity": 84}, {"time": 2737, "pitch": 65, "duration": 15, "velocity": 90}, {"time": 2749, "pitch": 61, "duration": 4, "velocity": 87}, {"time": 2755, "pitch": 63, "duration": 5, "velocity": 84}, {"time": 2755, "pitch": 68, "duration": 5, "velocity": 74}, {"time": 2761, "pitch": 42, "duration": 20, "velocity": 98}, {"time": 2767, "pitch": 54, "duration": 18, "velocity": 86}, {"time": 2773, "pitch": 58, "duration": 13, "velocity": 90}, {"time": 2779, "pitch": 61, "duration": 11, "velocity": 88}, {"time": 2785, "pitch": 44, "duration": 18, "velocity": 88}, {"time": 2791, "pitch": 56, "duration": 11, "velocity": 87}, {"time": 2797, "pitch": 60, "duration": 10, "velocity": 94}, {"time": 2803, "pitch": 63, "duration": 6, "velocity": 88}, {"time": 2809, "pitch": 46, "duration": 16, "velocity": 89}, {"time": 2815, "pitch": 53, "duration": 8, "velocity": 76}, {"time": 2821, "pitch": 61, "duration": 15, "velocity": 88}, {"time": 2821, "pitch": 70, "duration": 13, "velocity": 87}, {"time": 2827, "pitch": 44, "duration": 6, "velocity": 86}, {"time": 2833, "pitch": 42, "duration": 19, "velocity": 92}, {"time": 2839, "pitch": 54, "duration": 17, "velocity": 81}, {"time": 2845, "pitch": 58, "duration": 8, "velocity": 84}, {"time": 2851, "pitch": 61, "duration": 8, "velocity": 88}, {"time": 2857, "pitch": 44, "duration": 19, "velocity": 88}, {"time": 2863, "pitch": 51, "duration": 14, "velocity": 86}, {"time": 2869, "pitch": 56, "duration": 12, "velocity": 80}, {"time": 2875, "pitch": 60, "duration": 7, "velocity": 89}, {"time": 2881, "pitch": 49, "duration": 19, "velocity": 85}, {"time": 2887, "pitch": 56, "duration": 13, "velocity": 80}, {"time": 2887, "pitch": 63, "duration": 4, "velocity": 85}, {"time": 2890, "pitch": 65, "duration": 2, "velocity": 86}, {"time": 2893, "pitch": 68, "duration": 7, "velocity": 98}, {"time": 2899, "pitch": 48, "duration": 6, "velocity": 102}, {"time": 2905, "pitch": 46, "duration": 19, "velocity": 88}, {"time": 2911, "pitch": 53, "duration": 13, "velocity": 87}, {"time": 2917, "pitch": 58, "duration": 7, "velocity": 113}, {"time": 2923, "pitch": 61, "duration": 11, "velocity": 104}, {"time": 2929, "pitch": 42, "duration": 18, "velocity": 104}, {"time": 2935, "pitch": 54, "duration": 18, "velocity": 92}, {"time": 2941, "pitch": 58, "duration": 8, "velocity": 113}, {"time": 2947, "pitch": 66, "duration": 9, "velocity": 89}, {"time": 2953, "pitch": 44, "duration": 19, "velocity": 91}, {"time": 2959, "pitch": 51, "duration": 13, "velocity": 84}, {"time": 2965, "pitch": 56, "duration": 11, "velocity": 87}, {"time": 2965, "pitch": 60, "duration": 7, "velocity": 96}, {"time": 2965, "pitch": 68, "duration": 11, "velocity": 89}, {"time": 2971, "pitch": 63, "duration": 8, "velocity": 96}, {"time": 2977, "pitch": 49, "duration": 16, "velocity": 96}, {"time": 2983, "pitch": 56, "duration": 9, "velocity": 82}, {"time": 2989, "pitch": 61, "duration": 8, "velocity": 98}, {"time": 2989, "pitch": 68, "duration": 9, "velocity": 94}, {"time": 3001, "pitch": 49, "duration": 19, "velocity": 77}, {"time": 3001, "pitch": 61, "duration": 21, "velocity": 73}, {"time": 3001, "pitch": 65, "duration": 19, "velocity": 75}, {"time": 3001, "pitch": 68, "duration": 19, "velocity": 81}, {"time": 3031, "pitch": 42, "duration": 29, "velocity": 81}, {"time": 3032, "pitch": 58, "duration": 28, "velocity": 54}, {"time": 3033, "pitch": 61, "duration": 31, "velocity": 79}, {"time": 3035, "pitch": 66, "duration": 27, "velocity": 86}, {"time": 3070, "pitch": 44, "duration": 47, "velocity": 71}, {"time": 3070, "pitch": 60, "duration": 50, "velocity": 73}, {"time": 3072, "pitch": 63, "duration": 47, "velocity": 81}, {"time": 3073, "pitch": 68, "duration": 48, "velocity": 84}, {"time": 3120, "pitch": 49, "duration": 107, "velocity": 68}, {"time": 3126, "pitch": 56, "duration": 102, "velocity": 66}, {"time": 3132, "pitch": 61, "duration": 20, "velocity": 56}, {"time": 3132, "pitch": 73, "duration": 7, "velocity": 58}, {"time": 3138, "pitch": 68, "duration": 7, "velocity": 67}, {"time": 3138, "pitch": 72, "duration": 13, "velocity": 70}, {"time": 3144, "pitch": 65, "duration": 8, "velocity": 78}, {"time": 3153, "pitch": 61, "duration": 20, "velocity": 77}, {"time": 3162, "pitch": 68, "duration": 5, "velocity": 68}, {"time": 3162, "pitch": 77, "duration": 9, "velocity": 68}, {"time": 3165, "pitch": 70, "duration": 4, "velocity": 68}, {"time": 3168, "pitch": 68, "duration": 33, "velocity": 70}, {"time": 3174, "pitch": 73, "duration": 29, "velocity": 72}, {"time": 3186, "pitch": 63, "duration": 5, "velocity": 73}, {"time": 3189, "pitch": 65, "duration": 37, "velocity": 73}]}]}