{"metadata": {"schema_version": "0.2", "title": "None", "source_filename": "327.mid", "source_format": "midi"}, "resolution": 12, "tempos": [{"time": 0, "qpm": 130.00041166797027}], "time_signatures": [{"time": 0, "numerator": 4, "denominator": 4}], "tracks": [{"program": 4, "is_drum": false, "name": "MELODY", "notes": [{"time": 482, "pitch": 71, "duration": 7, "velocity": 117}, {"time": 494, "pitch": 78, "duration": 2, "velocity": 119}, {"time": 500, "pitch": 78, "duration": 2, "velocity": 116}, {"time": 506, "pitch": 78, "duration": 6, "velocity": 117}, {"time": 518, "pitch": 71, "duration": 7, "velocity": 117}, {"time": 530, "pitch": 69, "duration": 7, "velocity": 117}, {"time": 542, "pitch": 76, "duration": 2, "velocity": 117}, {"time": 548, "pitch": 76, "duration": 9, "velocity": 119}, {"time": 578, "pitch": 71, "duration": 8, "velocity": 116}, {"time": 590, "pitch": 74, "duration": 7, "velocity": 114}, {"time": 602, "pitch": 74, "duration": 7, "velocity": 116}, {"time": 614, "pitch": 71, "duration": 6, "velocity": 107}, {"time": 626, "pitch": 73, "duration": 10, "velocity": 116}, {"time": 674, "pitch": 71, "duration": 6, "velocity": 113}, {"time": 686, "pitch": 78, "duration": 2, "velocity": 116}, {"time": 692, "pitch": 78, "duration": 2, "velocity": 114}, {"time": 698, "pitch": 78, "duration": 7, "velocity": 116}, {"time": 710, "pitch": 83, "duration": 8, "velocity": 116}, {"time": 722, "pitch": 81, "duration": 7, "velocity": 114}, {"time": 734, "pitch": 78, "duration": 3, "velocity": 108}, {"time": 740, "pitch": 78, "duration": 7, "velocity": 113}, {"time": 770, "pitch": 71, "duration": 7, "velocity": 117}, {"time": 782, "pitch": 74, "duration": 6, "velocity": 116}, {"time": 794, "pitch": 74, "duration": 6, "velocity": 114}, {"time": 806, "pitch": 76, "duration": 7, "velocity": 116}, {"time": 818, "pitch": 73, "duration": 10, "velocity": 119}, {"time": 866, "pitch": 71, "duration": 7, "velocity": 117}, {"time": 878, "pitch": 78, "duration": 2, "velocity": 119}, {"time": 884, "pitch": 78, "duration": 2, "velocity": 116}, {"time": 890, "pitch": 78, "duration": 6, "velocity": 117}, {"time": 902, "pitch": 71, "duration": 7, "velocity": 117}, {"time": 914, "pitch": 69, "duration": 7, "velocity": 117}, {"time": 926, "pitch": 76, "duration": 2, "velocity": 117}, {"time": 932, "pitch": 76, "duration": 9, "velocity": 119}, {"time": 962, "pitch": 71, "duration": 8, "velocity": 116}, {"time": 974, "pitch": 74, "duration": 4, "velocity": 114}, {"time": 980, "pitch": 74, "duration": 4, "velocity": 114}, {"time": 986, "pitch": 74, "duration": 7, "velocity": 116}, {"time": 998, "pitch": 78, "duration": 6, "velocity": 107}, {"time": 1010, "pitch": 73, "duration": 10, "velocity": 116}, {"time": 1058, "pitch": 71, "duration": 6, "velocity": 113}, {"time": 1070, "pitch": 78, "duration": 2, "velocity": 116}, {"time": 1076, "pitch": 78, "duration": 2, "velocity": 114}, {"time": 1082, "pitch": 78, "duration": 7, "velocity": 116}, {"time": 1094, "pitch": 83, "duration": 8, "velocity": 116}, {"time": 1106, "pitch": 81, "duration": 7, "velocity": 114}, {"time": 1118, "pitch": 78, "duration": 3, "velocity": 108}, {"time": 1124, "pitch": 78, "duration": 7, "velocity": 113}, {"time": 1154, "pitch": 71, "duration": 7, "velocity": 117}, {"time": 1166, "pitch": 74, "duration": 22, "velocity": 116}, {"time": 1202, "pitch": 73, "duration": 10, "velocity": 119}, {"time": 1226, "pitch": 71, "duration": 10, "velocity": 104}, {"time": 1238, "pitch": 69, "duration": 8, "velocity": 110}, {"time": 1250, "pitch": 71, "duration": 7, "velocity": 117}, {"time": 1262, "pitch": 78, "duration": 2, "velocity": 119}, {"time": 1268, "pitch": 78, "duration": 2, "velocity": 116}, {"time": 1274, "pitch": 78, "duration": 6, "velocity": 117}, {"time": 1286, "pitch": 71, "duration": 7, "velocity": 117}, {"time": 1298, "pitch": 69, "duration": 7, "velocity": 117}, {"time": 1310, "pitch": 76, "duration": 2, "velocity": 117}, {"time": 1316, "pitch": 76, "duration": 9, "velocity": 119}, {"time": 1346, "pitch": 71, "duration": 8, "velocity": 116}, {"time": 1358, "pitch": 74, "duration": 4, "velocity": 114}, {"time": 1370, "pitch": 74, "duration": 7, "velocity": 116}, {"time": 1382, "pitch": 71, "duration": 6, "velocity": 107}, {"time": 1394, "pitch": 73, "duration": 10, "velocity": 116}, {"time": 1442, "pitch": 71, "duration": 6, "velocity": 116}, {"time": 1454, "pitch": 78, "duration": 2, "velocity": 110}, {"time": 1460, "pitch": 78, "duration": 3, "velocity": 107}, {"time": 1466, "pitch": 78, "duration": 6, "velocity": 110}, {"time": 1478, "pitch": 83, "duration": 8, "velocity": 119}, {"time": 1490, "pitch": 81, "duration": 8, "velocity": 110}, {"time": 1502, "pitch": 78, "duration": 2, "velocity": 107}, {"time": 1508, "pitch": 78, "duration": 22, "velocity": 113}, {"time": 1538, "pitch": 71, "duration": 7, "velocity": 113}, {"time": 1550, "pitch": 74, "duration": 36, "velocity": 117}, {"time": 1586, "pitch": 73, "duration": 17, "velocity": 120}, {"time": 1610, "pitch": 69, "duration": 7, "velocity": 113}, {"time": 1634, "pitch": 71, "duration": 6, "velocity": 119}, {"time": 2066, "pitch": 71, "duration": 7, "velocity": 117}, {"time": 2078, "pitch": 78, "duration": 2, "velocity": 119}, {"time": 2084, "pitch": 78, "duration": 2, "velocity": 116}, {"time": 2090, "pitch": 78, "duration": 6, "velocity": 117}, {"time": 2102, "pitch": 71, "duration": 7, "velocity": 117}, {"time": 2114, "pitch": 69, "duration": 7, "velocity": 117}, {"time": 2126, "pitch": 76, "duration": 2, "velocity": 117}, {"time": 2132, "pitch": 76, "duration": 9, "velocity": 119}, {"time": 2162, "pitch": 71, "duration": 8, "velocity": 116}, {"time": 2174, "pitch": 74, "duration": 7, "velocity": 114}, {"time": 2186, "pitch": 74, "duration": 7, "velocity": 116}, {"time": 2198, "pitch": 71, "duration": 6, "velocity": 107}, {"time": 2210, "pitch": 73, "duration": 10, "velocity": 116}, {"time": 2258, "pitch": 71, "duration": 6, "velocity": 113}, {"time": 2270, "pitch": 78, "duration": 2, "velocity": 116}, {"time": 2276, "pitch": 78, "duration": 2, "velocity": 114}, {"time": 2282, "pitch": 78, "duration": 7, "velocity": 116}, {"time": 2294, "pitch": 83, "duration": 8, "velocity": 116}, {"time": 2306, "pitch": 81, "duration": 7, "velocity": 114}, {"time": 2318, "pitch": 78, "duration": 3, "velocity": 108}, {"time": 2324, "pitch": 78, "duration": 7, "velocity": 113}, {"time": 2354, "pitch": 71, "duration": 7, "velocity": 117}, {"time": 2366, "pitch": 74, "duration": 6, "velocity": 116}, {"time": 2378, "pitch": 74, "duration": 6, "velocity": 114}, {"time": 2390, "pitch": 76, "duration": 7, "velocity": 116}, {"time": 2402, "pitch": 73, "duration": 10, "velocity": 119}, {"time": 2450, "pitch": 71, "duration": 7, "velocity": 117}, {"time": 2462, "pitch": 78, "duration": 2, "velocity": 119}, {"time": 2468, "pitch": 78, "duration": 2, "velocity": 116}, {"time": 2474, "pitch": 78, "duration": 6, "velocity": 117}, {"time": 2486, "pitch": 71, "duration": 7, "velocity": 117}, {"time": 2498, "pitch": 69, "duration": 7, "velocity": 117}, {"time": 2510, "pitch": 76, "duration": 2, "velocity": 117}, {"time": 2516, "pitch": 76, "duration": 9, "velocity": 119}, {"time": 2546, "pitch": 71, "duration": 8, "velocity": 116}, {"time": 2558, "pitch": 74, "duration": 4, "velocity": 114}, {"time": 2564, "pitch": 74, "duration": 4, "velocity": 114}, {"time": 2570, "pitch": 74, "duration": 7, "velocity": 116}, {"time": 2582, "pitch": 78, "duration": 6, "velocity": 107}, {"time": 2594, "pitch": 73, "duration": 10, "velocity": 116}, {"time": 2642, "pitch": 71, "duration": 6, "velocity": 113}, {"time": 2654, "pitch": 78, "duration": 2, "velocity": 116}, {"time": 2660, "pitch": 78, "duration": 2, "velocity": 114}, {"time": 2666, "pitch": 78, "duration": 7, "velocity": 116}, {"time": 2678, "pitch": 83, "duration": 8, "velocity": 116}, {"time": 2690, "pitch": 81, "duration": 7, "velocity": 114}, {"time": 2702, "pitch": 78, "duration": 3, "velocity": 108}, {"time": 2708, "pitch": 78, "duration": 7, "velocity": 113}, {"time": 2738, "pitch": 71, "duration": 7, "velocity": 117}, {"time": 2750, "pitch": 74, "duration": 22, "velocity": 116}, {"time": 2786, "pitch": 73, "duration": 10, "velocity": 119}, {"time": 2810, "pitch": 71, "duration": 10, "velocity": 104}, {"time": 2822, "pitch": 69, "duration": 8, "velocity": 110}, {"time": 2834, "pitch": 71, "duration": 7, "velocity": 117}, {"time": 2846, "pitch": 78, "duration": 2, "velocity": 119}, {"time": 2852, "pitch": 78, "duration": 2, "velocity": 116}, {"time": 2858, "pitch": 78, "duration": 6, "velocity": 117}, {"time": 2870, "pitch": 71, "duration": 7, "velocity": 117}, {"time": 2882, "pitch": 69, "duration": 7, "velocity": 117}, {"time": 2894, "pitch": 76, "duration": 2, "velocity": 117}, {"time": 2900, "pitch": 76, "duration": 9, "velocity": 119}, {"time": 2930, "pitch": 71, "duration": 8, "velocity": 116}, {"time": 2942, "pitch": 74, "duration": 4, "velocity": 114}, {"time": 2954, "pitch": 74, "duration": 7, "velocity": 116}, {"time": 2966, "pitch": 71, "duration": 6, "velocity": 107}, {"time": 2978, "pitch": 73, "duration": 10, "velocity": 116}, {"time": 3026, "pitch": 71, "duration": 6, "velocity": 116}, {"time": 3038, "pitch": 78, "duration": 2, "velocity": 110}, {"time": 3044, "pitch": 78, "duration": 3, "velocity": 107}, {"time": 3050, "pitch": 78, "duration": 6, "velocity": 110}, {"time": 3062, "pitch": 83, "duration": 8, "velocity": 119}, {"time": 3074, "pitch": 81, "duration": 8, "velocity": 110}, {"time": 3086, "pitch": 78, "duration": 2, "velocity": 107}, {"time": 3092, "pitch": 78, "duration": 22, "velocity": 113}, {"time": 3122, "pitch": 71, "duration": 7, "velocity": 113}, {"time": 3134, "pitch": 74, "duration": 36, "velocity": 117}, {"time": 3170, "pitch": 73, "duration": 17, "velocity": 120}, {"time": 3194, "pitch": 69, "duration": 7, "velocity": 113}, {"time": 3218, "pitch": 71, "duration": 6, "velocity": 119}, {"time": 3986, "pitch": 71, "duration": 8, "velocity": 114}, {"time": 3998, "pitch": 78, "duration": 2, "velocity": 113}, {"time": 4004, "pitch": 78, "duration": 2, "velocity": 108}, {"time": 4010, "pitch": 78, "duration": 8, "velocity": 114}, {"time": 4022, "pitch": 71, "duration": 8, "velocity": 110}, {"time": 4034, "pitch": 69, "duration": 7, "velocity": 100}, {"time": 4046, "pitch": 76, "duration": 2, "velocity": 108}, {"time": 4052, "pitch": 76, "duration": 13, "velocity": 110}, {"time": 4082, "pitch": 71, "duration": 8, "velocity": 113}, {"time": 4094, "pitch": 74, "duration": 7, "velocity": 107}, {"time": 4106, "pitch": 74, "duration": 7, "velocity": 108}, {"time": 4118, "pitch": 71, "duration": 6, "velocity": 114}, {"time": 4130, "pitch": 73, "duration": 19, "velocity": 116}, {"time": 4178, "pitch": 71, "duration": 7, "velocity": 114}, {"time": 4190, "pitch": 78, "duration": 2, "velocity": 110}, {"time": 4196, "pitch": 78, "duration": 2, "velocity": 108}, {"time": 4202, "pitch": 78, "duration": 7, "velocity": 116}, {"time": 4214, "pitch": 83, "duration": 7, "velocity": 114}, {"time": 4226, "pitch": 81, "duration": 7, "velocity": 108}, {"time": 4238, "pitch": 78, "duration": 2, "velocity": 107}, {"time": 4244, "pitch": 78, "duration": 10, "velocity": 108}, {"time": 4274, "pitch": 71, "duration": 7, "velocity": 104}, {"time": 4286, "pitch": 74, "duration": 32, "velocity": 108}, {"time": 4322, "pitch": 73, "duration": 17, "velocity": 116}, {"time": 4346, "pitch": 69, "duration": 15, "velocity": 108}, {"time": 4370, "pitch": 71, "duration": 11, "velocity": 113}]}, {"program": 0, "is_drum": false, "name": "PIANO", "notes": [{"time": 98, "pitch": 47, "duration": 13, "velocity": 94}, {"time": 110, "pitch": 62, "duration": 18, "velocity": 90}, {"time": 110, "pitch": 66, "duration": 19, "velocity": 102}, {"time": 110, "pitch": 71, "duration": 18, "velocity": 93}, {"time": 116, "pitch": 47, "duration": 5, "velocity": 91}, {"time": 122, "pitch": 54, "duration": 13, "velocity": 96}, {"time": 134, "pitch": 47, "duration": 9, "velocity": 88}, {"time": 134, "pitch": 62, "duration": 12, "velocity": 92}, {"time": 134, "pitch": 66, "duration": 12, "velocity": 100}, {"time": 134, "pitch": 71, "duration": 12, "velocity": 92}, {"time": 146, "pitch": 42, "duration": 12, "velocity": 107}, {"time": 158, "pitch": 61, "duration": 18, "velocity": 100}, {"time": 158, "pitch": 66, "duration": 18, "velocity": 98}, {"time": 158, "pitch": 69, "duration": 16, "velocity": 88}, {"time": 164, "pitch": 42, "duration": 5, "velocity": 100}, {"time": 170, "pitch": 49, "duration": 11, "velocity": 100}, {"time": 182, "pitch": 42, "duration": 9, "velocity": 91}, {"time": 188, "pitch": 61, "duration": 4, "velocity": 91}, {"time": 188, "pitch": 66, "duration": 6, "velocity": 98}, {"time": 188, "pitch": 69, "duration": 6, "velocity": 91}, {"time": 194, "pitch": 43, "duration": 11, "velocity": 104}, {"time": 206, "pitch": 59, "duration": 17, "velocity": 89}, {"time": 206, "pitch": 62, "duration": 18, "velocity": 91}, {"time": 206, "pitch": 67, "duration": 14, "velocity": 89}, {"time": 212, "pitch": 43, "duration": 5, "velocity": 92}, {"time": 218, "pitch": 50, "duration": 12, "velocity": 113}, {"time": 230, "pitch": 43, "duration": 10, "velocity": 94}, {"time": 230, "pitch": 59, "duration": 6, "velocity": 94}, {"time": 230, "pitch": 62, "duration": 11, "velocity": 107}, {"time": 230, "pitch": 67, "duration": 9, "velocity": 91}, {"time": 242, "pitch": 45, "duration": 12, "velocity": 94}, {"time": 254, "pitch": 61, "duration": 25, "velocity": 91}, {"time": 254, "pitch": 64, "duration": 25, "velocity": 107}, {"time": 254, "pitch": 69, "duration": 25, "velocity": 91}, {"time": 260, "pitch": 45, "duration": 6, "velocity": 96}, {"time": 266, "pitch": 52, "duration": 10, "velocity": 107}, {"time": 278, "pitch": 45, "duration": 10, "velocity": 100}, {"time": 284, "pitch": 61, "duration": 4, "velocity": 89}, {"time": 284, "pitch": 64, "duration": 8, "velocity": 98}, {"time": 284, "pitch": 69, "duration": 5, "velocity": 89}, {"time": 290, "pitch": 47, "duration": 14, "velocity": 91}, {"time": 302, "pitch": 62, "duration": 18, "velocity": 89}, {"time": 302, "pitch": 66, "duration": 19, "velocity": 96}, {"time": 302, "pitch": 71, "duration": 18, "velocity": 94}, {"time": 308, "pitch": 54, "duration": 5, "velocity": 110}, {"time": 314, "pitch": 47, "duration": 22, "velocity": 96}, {"time": 326, "pitch": 62, "duration": 10, "velocity": 89}, {"time": 326, "pitch": 66, "duration": 11, "velocity": 98}, {"time": 326, "pitch": 71, "duration": 9, "velocity": 92}, {"time": 338, "pitch": 42, "duration": 12, "velocity": 91}, {"time": 350, "pitch": 61, "duration": 26, "velocity": 91}, {"time": 350, "pitch": 66, "duration": 26, "velocity": 100}, {"time": 350, "pitch": 69, "duration": 26, "velocity": 90}, {"time": 356, "pitch": 42, "duration": 6, "velocity": 98}, {"time": 362, "pitch": 49, "duration": 11, "velocity": 107}, {"time": 374, "pitch": 42, "duration": 10, "velocity": 100}, {"time": 386, "pitch": 43, "duration": 12, "velocity": 96}, {"time": 398, "pitch": 59, "duration": 16, "velocity": 93}, {"time": 398, "pitch": 62, "duration": 18, "velocity": 98}, {"time": 398, "pitch": 67, "duration": 12, "velocity": 90}, {"time": 404, "pitch": 43, "duration": 5, "velocity": 98}, {"time": 410, "pitch": 50, "duration": 17, "velocity": 110}, {"time": 422, "pitch": 59, "duration": 11, "velocity": 94}, {"time": 422, "pitch": 62, "duration": 12, "velocity": 104}, {"time": 422, "pitch": 67, "duration": 12, "velocity": 100}, {"time": 428, "pitch": 43, "duration": 6, "velocity": 96}, {"time": 434, "pitch": 45, "duration": 13, "velocity": 108}, {"time": 446, "pitch": 61, "duration": 31, "velocity": 93}, {"time": 446, "pitch": 64, "duration": 33, "velocity": 104}, {"time": 446, "pitch": 69, "duration": 31, "velocity": 93}, {"time": 452, "pitch": 45, "duration": 5, "velocity": 107}, {"time": 458, "pitch": 52, "duration": 11, "velocity": 114}, {"time": 470, "pitch": 45, "duration": 10, "velocity": 107}, {"time": 482, "pitch": 47, "duration": 12, "velocity": 102}, {"time": 494, "pitch": 62, "duration": 16, "velocity": 89}, {"time": 494, "pitch": 66, "duration": 19, "velocity": 96}, {"time": 494, "pitch": 71, "duration": 18, "velocity": 93}, {"time": 500, "pitch": 47, "duration": 5, "velocity": 96}, {"time": 506, "pitch": 54, "duration": 12, "velocity": 104}, {"time": 518, "pitch": 47, "duration": 2, "velocity": 82}, {"time": 518, "pitch": 62, "duration": 11, "velocity": 102}, {"time": 518, "pitch": 66, "duration": 12, "velocity": 110}, {"time": 518, "pitch": 71, "duration": 12, "velocity": 98}, {"time": 524, "pitch": 47, "duration": 3, "velocity": 81}, {"time": 530, "pitch": 42, "duration": 12, "velocity": 100}, {"time": 542, "pitch": 61, "duration": 19, "velocity": 98}, {"time": 542, "pitch": 66, "duration": 19, "velocity": 88}, {"time": 542, "pitch": 69, "duration": 18, "velocity": 87}, {"time": 548, "pitch": 42, "duration": 5, "velocity": 102}, {"time": 554, "pitch": 49, "duration": 18, "velocity": 107}, {"time": 566, "pitch": 61, "duration": 13, "velocity": 104}, {"time": 566, "pitch": 66, "duration": 12, "velocity": 108}, {"time": 566, "pitch": 69, "duration": 12, "velocity": 107}, {"time": 572, "pitch": 42, "duration": 5, "velocity": 102}, {"time": 578, "pitch": 43, "duration": 12, "velocity": 113}, {"time": 590, "pitch": 59, "duration": 12, "velocity": 91}, {"time": 590, "pitch": 62, "duration": 13, "velocity": 107}, {"time": 590, "pitch": 67, "duration": 13, "velocity": 93}, {"time": 596, "pitch": 43, "duration": 6, "velocity": 108}, {"time": 602, "pitch": 50, "duration": 18, "velocity": 113}, {"time": 614, "pitch": 59, "duration": 8, "velocity": 93}, {"time": 614, "pitch": 62, "duration": 11, "velocity": 104}, {"time": 614, "pitch": 67, "duration": 11, "velocity": 93}, {"time": 620, "pitch": 43, "duration": 5, "velocity": 93}, {"time": 626, "pitch": 45, "duration": 12, "velocity": 102}, {"time": 638, "pitch": 61, "duration": 19, "velocity": 93}, {"time": 638, "pitch": 64, "duration": 18, "velocity": 108}, {"time": 638, "pitch": 69, "duration": 17, "velocity": 93}, {"time": 644, "pitch": 45, "duration": 5, "velocity": 100}, {"time": 650, "pitch": 52, "duration": 17, "velocity": 113}, {"time": 662, "pitch": 61, "duration": 12, "velocity": 92}, {"time": 662, "pitch": 64, "duration": 13, "velocity": 110}, {"time": 662, "pitch": 69, "duration": 12, "velocity": 92}, {"time": 668, "pitch": 45, "duration": 6, "velocity": 102}, {"time": 674, "pitch": 47, "duration": 17, "velocity": 107}, {"time": 686, "pitch": 62, "duration": 18, "velocity": 92}, {"time": 686, "pitch": 66, "duration": 18, "velocity": 104}, {"time": 686, "pitch": 71, "duration": 17, "velocity": 100}, {"time": 692, "pitch": 54, "duration": 6, "velocity": 104}, {"time": 698, "pitch": 47, "duration": 13, "velocity": 110}, {"time": 710, "pitch": 62, "duration": 12, "velocity": 98}, {"time": 710, "pitch": 66, "duration": 12, "velocity": 108}, {"time": 710, "pitch": 71, "duration": 12, "velocity": 96}, {"time": 716, "pitch": 47, "duration": 3, "velocity": 102}, {"time": 722, "pitch": 42, "duration": 13, "velocity": 104}, {"time": 734, "pitch": 61, "duration": 18, "velocity": 94}, {"time": 734, "pitch": 66, "duration": 17, "velocity": 93}, {"time": 734, "pitch": 69, "duration": 16, "velocity": 91}, {"time": 740, "pitch": 42, "duration": 5, "velocity": 96}, {"time": 746, "pitch": 49, "duration": 17, "velocity": 108}, {"time": 758, "pitch": 61, "duration": 14, "velocity": 102}, {"time": 758, "pitch": 66, "duration": 13, "velocity": 96}, {"time": 758, "pitch": 69, "duration": 13, "velocity": 96}, {"time": 764, "pitch": 42, "duration": 5, "velocity": 100}, {"time": 770, "pitch": 43, "duration": 13, "velocity": 96}, {"time": 782, "pitch": 59, "duration": 18, "velocity": 93}, {"time": 782, "pitch": 62, "duration": 18, "velocity": 100}, {"time": 782, "pitch": 67, "duration": 17, "velocity": 92}, {"time": 788, "pitch": 43, "duration": 6, "velocity": 96}, {"time": 794, "pitch": 50, "duration": 17, "velocity": 110}, {"time": 806, "pitch": 59, "duration": 12, "velocity": 94}, {"time": 806, "pitch": 62, "duration": 12, "velocity": 100}, {"time": 806, "pitch": 67, "duration": 12, "velocity": 89}, {"time": 812, "pitch": 43, "duration": 5, "velocity": 96}, {"time": 818, "pitch": 45, "duration": 12, "velocity": 110}, {"time": 830, "pitch": 61, "duration": 24, "velocity": 93}, {"time": 830, "pitch": 64, "duration": 25, "velocity": 102}, {"time": 830, "pitch": 69, "duration": 24, "velocity": 89}, {"time": 836, "pitch": 45, "duration": 6, "velocity": 104}, {"time": 842, "pitch": 52, "duration": 10, "velocity": 114}, {"time": 854, "pitch": 45, "duration": 10, "velocity": 102}, {"time": 860, "pitch": 61, "duration": 5, "velocity": 92}, {"time": 860, "pitch": 64, "duration": 7, "velocity": 110}, {"time": 860, "pitch": 69, "duration": 6, "velocity": 92}, {"time": 866, "pitch": 47, "duration": 12, "velocity": 108}, {"time": 878, "pitch": 62, "duration": 19, "velocity": 89}, {"time": 878, "pitch": 66, "duration": 19, "velocity": 94}, {"time": 878, "pitch": 71, "duration": 17, "velocity": 94}, {"time": 884, "pitch": 47, "duration": 6, "velocity": 100}, {"time": 890, "pitch": 54, "duration": 18, "velocity": 108}, {"time": 902, "pitch": 62, "duration": 14, "velocity": 94}, {"time": 902, "pitch": 66, "duration": 14, "velocity": 102}, {"time": 902, "pitch": 71, "duration": 13, "velocity": 92}, {"time": 908, "pitch": 47, "duration": 5, "velocity": 91}, {"time": 914, "pitch": 42, "duration": 13, "velocity": 96}, {"time": 926, "pitch": 61, "duration": 26, "velocity": 94}, {"time": 926, "pitch": 66, "duration": 26, "velocity": 102}, {"time": 926, "pitch": 69, "duration": 26, "velocity": 89}, {"time": 932, "pitch": 42, "duration": 6, "velocity": 100}, {"time": 938, "pitch": 49, "duration": 10, "velocity": 108}, {"time": 950, "pitch": 42, "duration": 11, "velocity": 107}, {"time": 956, "pitch": 61, "duration": 7, "velocity": 100}, {"time": 956, "pitch": 66, "duration": 7, "velocity": 107}, {"time": 956, "pitch": 69, "duration": 7, "velocity": 92}, {"time": 962, "pitch": 43, "duration": 13, "velocity": 96}, {"time": 974, "pitch": 59, "duration": 14, "velocity": 91}, {"time": 974, "pitch": 62, "duration": 15, "velocity": 102}, {"time": 974, "pitch": 67, "duration": 13, "velocity": 94}, {"time": 980, "pitch": 43, "duration": 5, "velocity": 108}, {"time": 986, "pitch": 50, "duration": 16, "velocity": 104}, {"time": 992, "pitch": 59, "duration": 18, "velocity": 107}, {"time": 992, "pitch": 62, "duration": 18, "velocity": 108}, {"time": 992, "pitch": 67, "duration": 18, "velocity": 96}, {"time": 1001, "pitch": 43, "duration": 5, "velocity": 86}, {"time": 1010, "pitch": 45, "duration": 11, "velocity": 104}, {"time": 1022, "pitch": 61, "duration": 17, "velocity": 92}, {"time": 1022, "pitch": 64, "duration": 14, "velocity": 108}, {"time": 1022, "pitch": 69, "duration": 14, "velocity": 96}, {"time": 1028, "pitch": 45, "duration": 5, "velocity": 96}, {"time": 1034, "pitch": 52, "duration": 16, "velocity": 113}, {"time": 1046, "pitch": 61, "duration": 8, "velocity": 104}, {"time": 1046, "pitch": 64, "duration": 13, "velocity": 108}, {"time": 1046, "pitch": 69, "duration": 12, "velocity": 91}, {"time": 1052, "pitch": 45, "duration": 6, "velocity": 96}, {"time": 1058, "pitch": 47, "duration": 12, "velocity": 110}, {"time": 1070, "pitch": 62, "duration": 18, "velocity": 92}, {"time": 1070, "pitch": 66, "duration": 18, "velocity": 108}, {"time": 1070, "pitch": 71, "duration": 17, "velocity": 102}, {"time": 1076, "pitch": 47, "duration": 5, "velocity": 107}, {"time": 1082, "pitch": 54, "duration": 18, "velocity": 89}, {"time": 1094, "pitch": 62, "duration": 13, "velocity": 96}, {"time": 1094, "pitch": 66, "duration": 13, "velocity": 107}, {"time": 1094, "pitch": 71, "duration": 13, "velocity": 98}, {"time": 1100, "pitch": 47, "duration": 3, "velocity": 90}, {"time": 1106, "pitch": 42, "duration": 12, "velocity": 110}, {"time": 1118, "pitch": 61, "duration": 26, "velocity": 96}, {"time": 1118, "pitch": 66, "duration": 25, "velocity": 100}, {"time": 1118, "pitch": 69, "duration": 25, "velocity": 92}, {"time": 1124, "pitch": 42, "duration": 6, "velocity": 104}, {"time": 1130, "pitch": 49, "duration": 11, "velocity": 108}, {"time": 1142, "pitch": 42, "duration": 10, "velocity": 107}, {"time": 1148, "pitch": 61, "duration": 6, "velocity": 91}, {"time": 1148, "pitch": 66, "duration": 6, "velocity": 98}, {"time": 1148, "pitch": 69, "duration": 7, "velocity": 91}, {"time": 1154, "pitch": 43, "duration": 12, "velocity": 93}, {"time": 1166, "pitch": 59, "duration": 18, "velocity": 91}, {"time": 1166, "pitch": 62, "duration": 18, "velocity": 98}, {"time": 1166, "pitch": 67, "duration": 16, "velocity": 91}, {"time": 1172, "pitch": 43, "duration": 5, "velocity": 96}, {"time": 1178, "pitch": 50, "duration": 18, "velocity": 110}, {"time": 1190, "pitch": 59, "duration": 9, "velocity": 100}, {"time": 1190, "pitch": 62, "duration": 11, "velocity": 108}, {"time": 1190, "pitch": 67, "duration": 11, "velocity": 94}, {"time": 1196, "pitch": 43, "duration": 5, "velocity": 96}, {"time": 1202, "pitch": 45, "duration": 12, "velocity": 108}, {"time": 1214, "pitch": 61, "duration": 15, "velocity": 91}, {"time": 1214, "pitch": 64, "duration": 18, "velocity": 102}, {"time": 1214, "pitch": 69, "duration": 15, "velocity": 89}, {"time": 1220, "pitch": 45, "duration": 6, "velocity": 110}, {"time": 1226, "pitch": 52, "duration": 18, "velocity": 100}, {"time": 1238, "pitch": 61, "duration": 8, "velocity": 102}, {"time": 1238, "pitch": 64, "duration": 12, "velocity": 113}, {"time": 1238, "pitch": 69, "duration": 11, "velocity": 93}, {"time": 1244, "pitch": 45, "duration": 5, "velocity": 104}, {"time": 1250, "pitch": 47, "duration": 14, "velocity": 113}, {"time": 1262, "pitch": 62, "duration": 16, "velocity": 93}, {"time": 1262, "pitch": 66, "duration": 16, "velocity": 104}, {"time": 1262, "pitch": 71, "duration": 16, "velocity": 100}, {"time": 1268, "pitch": 47, "duration": 5, "velocity": 104}, {"time": 1274, "pitch": 54, "duration": 17, "velocity": 108}, {"time": 1286, "pitch": 62, "duration": 12, "velocity": 100}, {"time": 1286, "pitch": 66, "duration": 13, "velocity": 108}, {"time": 1286, "pitch": 71, "duration": 12, "velocity": 100}, {"time": 1292, "pitch": 47, "duration": 3, "velocity": 90}, {"time": 1298, "pitch": 42, "duration": 12, "velocity": 107}, {"time": 1310, "pitch": 61, "duration": 20, "velocity": 96}, {"time": 1310, "pitch": 66, "duration": 20, "velocity": 91}, {"time": 1310, "pitch": 69, "duration": 20, "velocity": 82}, {"time": 1316, "pitch": 42, "duration": 6, "velocity": 107}, {"time": 1322, "pitch": 49, "duration": 7, "velocity": 89}, {"time": 1328, "pitch": 42, "duration": 7, "velocity": 108}, {"time": 1334, "pitch": 61, "duration": 12, "velocity": 100}, {"time": 1334, "pitch": 66, "duration": 13, "velocity": 100}, {"time": 1334, "pitch": 69, "duration": 12, "velocity": 91}, {"time": 1340, "pitch": 42, "duration": 3, "velocity": 94}, {"time": 1346, "pitch": 43, "duration": 13, "velocity": 108}, {"time": 1358, "pitch": 62, "duration": 13, "velocity": 92}, {"time": 1358, "pitch": 66, "duration": 12, "velocity": 107}, {"time": 1358, "pitch": 71, "duration": 12, "velocity": 91}, {"time": 1364, "pitch": 43, "duration": 4, "velocity": 110}, {"time": 1370, "pitch": 50, "duration": 17, "velocity": 108}, {"time": 1382, "pitch": 62, "duration": 11, "velocity": 93}, {"time": 1382, "pitch": 66, "duration": 12, "velocity": 107}, {"time": 1382, "pitch": 71, "duration": 10, "velocity": 94}, {"time": 1388, "pitch": 43, "duration": 5, "velocity": 107}, {"time": 1394, "pitch": 45, "duration": 12, "velocity": 114}, {"time": 1406, "pitch": 61, "duration": 14, "velocity": 91}, {"time": 1406, "pitch": 64, "duration": 14, "velocity": 108}, {"time": 1406, "pitch": 69, "duration": 13, "velocity": 91}, {"time": 1412, "pitch": 45, "duration": 6, "velocity": 107}, {"time": 1418, "pitch": 52, "duration": 17, "velocity": 114}, {"time": 1424, "pitch": 61, "duration": 18, "velocity": 102}, {"time": 1424, "pitch": 64, "duration": 18, "velocity": 116}, {"time": 1424, "pitch": 69, "duration": 18, "velocity": 100}, {"time": 1436, "pitch": 45, "duration": 4, "velocity": 108}, {"time": 1442, "pitch": 47, "duration": 11, "velocity": 114}, {"time": 1454, "pitch": 62, "duration": 18, "velocity": 94}, {"time": 1454, "pitch": 66, "duration": 18, "velocity": 107}, {"time": 1454, "pitch": 71, "duration": 17, "velocity": 100}, {"time": 1460, "pitch": 47, "duration": 6, "velocity": 107}, {"time": 1466, "pitch": 54, "duration": 18, "velocity": 104}, {"time": 1478, "pitch": 62, "duration": 13, "velocity": 94}, {"time": 1478, "pitch": 66, "duration": 13, "velocity": 107}, {"time": 1478, "pitch": 71, "duration": 12, "velocity": 96}, {"time": 1484, "pitch": 47, "duration": 5, "velocity": 107}, {"time": 1490, "pitch": 42, "duration": 13, "velocity": 107}, {"time": 1502, "pitch": 61, "duration": 13, "velocity": 96}, {"time": 1502, "pitch": 66, "duration": 13, "velocity": 100}, {"time": 1502, "pitch": 69, "duration": 13, "velocity": 91}, {"time": 1508, "pitch": 42, "duration": 6, "velocity": 104}, {"time": 1514, "pitch": 49, "duration": 16, "velocity": 107}, {"time": 1520, "pitch": 61, "duration": 18, "velocity": 104}, {"time": 1520, "pitch": 66, "duration": 18, "velocity": 108}, {"time": 1520, "pitch": 69, "duration": 18, "velocity": 96}, {"time": 1532, "pitch": 42, "duration": 5, "velocity": 100}, {"time": 1538, "pitch": 43, "duration": 12, "velocity": 116}, {"time": 1550, "pitch": 62, "duration": 14, "velocity": 98}, {"time": 1550, "pitch": 67, "duration": 14, "velocity": 110}, {"time": 1550, "pitch": 71, "duration": 13, "velocity": 94}, {"time": 1553, "pitch": 43, "duration": 6, "velocity": 108}, {"time": 1562, "pitch": 50, "duration": 18, "velocity": 116}, {"time": 1568, "pitch": 62, "duration": 19, "velocity": 107}, {"time": 1568, "pitch": 67, "duration": 19, "velocity": 114}, {"time": 1568, "pitch": 71, "duration": 18, "velocity": 104}, {"time": 1580, "pitch": 43, "duration": 4, "velocity": 87}, {"time": 1586, "pitch": 45, "duration": 11, "velocity": 110}, {"time": 1598, "pitch": 61, "duration": 21, "velocity": 89}, {"time": 1598, "pitch": 64, "duration": 20, "velocity": 100}, {"time": 1598, "pitch": 69, "duration": 19, "velocity": 91}, {"time": 1604, "pitch": 45, "duration": 9, "velocity": 114}, {"time": 1616, "pitch": 45, "duration": 6, "velocity": 113}, {"time": 1622, "pitch": 52, "duration": 10, "velocity": 113}, {"time": 1628, "pitch": 61, "duration": 5, "velocity": 92}, {"time": 1628, "pitch": 64, "duration": 6, "velocity": 110}, {"time": 1628, "pitch": 69, "duration": 6, "velocity": 98}, {"time": 1634, "pitch": 47, "duration": 9, "velocity": 102}, {"time": 1634, "pitch": 62, "duration": 8, "velocity": 89}, {"time": 1634, "pitch": 66, "duration": 8, "velocity": 96}, {"time": 1634, "pitch": 71, "duration": 8, "velocity": 94}, {"time": 1682, "pitch": 47, "duration": 13, "velocity": 94}, {"time": 1694, "pitch": 62, "duration": 18, "velocity": 90}, {"time": 1694, "pitch": 66, "duration": 19, "velocity": 102}, {"time": 1694, "pitch": 71, "duration": 18, "velocity": 93}, {"time": 1700, "pitch": 47, "duration": 5, "velocity": 91}, {"time": 1706, "pitch": 54, "duration": 13, "velocity": 96}, {"time": 1718, "pitch": 47, "duration": 9, "velocity": 88}, {"time": 1718, "pitch": 62, "duration": 12, "velocity": 92}, {"time": 1718, "pitch": 66, "duration": 12, "velocity": 100}, {"time": 1718, "pitch": 71, "duration": 12, "velocity": 92}, {"time": 1730, "pitch": 42, "duration": 12, "velocity": 107}, {"time": 1742, "pitch": 61, "duration": 18, "velocity": 100}, {"time": 1742, "pitch": 66, "duration": 18, "velocity": 98}, {"time": 1742, "pitch": 69, "duration": 16, "velocity": 88}, {"time": 1748, "pitch": 42, "duration": 5, "velocity": 100}, {"time": 1754, "pitch": 49, "duration": 11, "velocity": 100}, {"time": 1766, "pitch": 42, "duration": 9, "velocity": 91}, {"time": 1772, "pitch": 61, "duration": 4, "velocity": 91}, {"time": 1772, "pitch": 66, "duration": 6, "velocity": 98}, {"time": 1772, "pitch": 69, "duration": 6, "velocity": 91}, {"time": 1778, "pitch": 43, "duration": 11, "velocity": 104}, {"time": 1790, "pitch": 59, "duration": 17, "velocity": 89}, {"time": 1790, "pitch": 62, "duration": 18, "velocity": 91}, {"time": 1790, "pitch": 67, "duration": 14, "velocity": 89}, {"time": 1796, "pitch": 43, "duration": 5, "velocity": 92}, {"time": 1802, "pitch": 50, "duration": 12, "velocity": 113}, {"time": 1814, "pitch": 43, "duration": 10, "velocity": 94}, {"time": 1814, "pitch": 59, "duration": 6, "velocity": 94}, {"time": 1814, "pitch": 62, "duration": 11, "velocity": 107}, {"time": 1814, "pitch": 67, "duration": 9, "velocity": 91}, {"time": 1826, "pitch": 45, "duration": 12, "velocity": 94}, {"time": 1838, "pitch": 61, "duration": 25, "velocity": 91}, {"time": 1838, "pitch": 64, "duration": 25, "velocity": 107}, {"time": 1838, "pitch": 69, "duration": 25, "velocity": 91}, {"time": 1844, "pitch": 45, "duration": 6, "velocity": 96}, {"time": 1850, "pitch": 52, "duration": 10, "velocity": 107}, {"time": 1862, "pitch": 45, "duration": 10, "velocity": 100}, {"time": 1868, "pitch": 61, "duration": 4, "velocity": 89}, {"time": 1868, "pitch": 64, "duration": 8, "velocity": 98}, {"time": 1868, "pitch": 69, "duration": 5, "velocity": 89}, {"time": 1874, "pitch": 47, "duration": 14, "velocity": 91}, {"time": 1886, "pitch": 62, "duration": 18, "velocity": 89}, {"time": 1886, "pitch": 66, "duration": 19, "velocity": 96}, {"time": 1886, "pitch": 71, "duration": 18, "velocity": 94}, {"time": 1892, "pitch": 54, "duration": 5, "velocity": 110}, {"time": 1898, "pitch": 47, "duration": 22, "velocity": 96}, {"time": 1910, "pitch": 62, "duration": 10, "velocity": 89}, {"time": 1910, "pitch": 66, "duration": 11, "velocity": 98}, {"time": 1910, "pitch": 71, "duration": 9, "velocity": 92}, {"time": 1922, "pitch": 42, "duration": 12, "velocity": 91}, {"time": 1934, "pitch": 61, "duration": 26, "velocity": 91}, {"time": 1934, "pitch": 66, "duration": 26, "velocity": 100}, {"time": 1934, "pitch": 69, "duration": 26, "velocity": 90}, {"time": 1940, "pitch": 42, "duration": 6, "velocity": 98}, {"time": 1946, "pitch": 49, "duration": 11, "velocity": 107}, {"time": 1958, "pitch": 42, "duration": 10, "velocity": 100}, {"time": 1970, "pitch": 43, "duration": 12, "velocity": 96}, {"time": 1982, "pitch": 59, "duration": 16, "velocity": 93}, {"time": 1982, "pitch": 62, "duration": 18, "velocity": 98}, {"time": 1982, "pitch": 67, "duration": 12, "velocity": 90}, {"time": 1988, "pitch": 43, "duration": 5, "velocity": 98}, {"time": 1994, "pitch": 50, "duration": 17, "velocity": 110}, {"time": 2006, "pitch": 59, "duration": 11, "velocity": 94}, {"time": 2006, "pitch": 62, "duration": 12, "velocity": 104}, {"time": 2006, "pitch": 67, "duration": 12, "velocity": 100}, {"time": 2012, "pitch": 43, "duration": 6, "velocity": 96}, {"time": 2018, "pitch": 45, "duration": 13, "velocity": 108}, {"time": 2030, "pitch": 61, "duration": 31, "velocity": 93}, {"time": 2030, "pitch": 64, "duration": 33, "velocity": 104}, {"time": 2030, "pitch": 69, "duration": 31, "velocity": 93}, {"time": 2036, "pitch": 45, "duration": 5, "velocity": 107}, {"time": 2042, "pitch": 52, "duration": 11, "velocity": 114}, {"time": 2054, "pitch": 45, "duration": 10, "velocity": 107}, {"time": 2066, "pitch": 47, "duration": 12, "velocity": 102}, {"time": 2078, "pitch": 62, "duration": 16, "velocity": 89}, {"time": 2078, "pitch": 66, "duration": 19, "velocity": 96}, {"time": 2078, "pitch": 71, "duration": 18, "velocity": 93}, {"time": 2084, "pitch": 47, "duration": 5, "velocity": 96}, {"time": 2090, "pitch": 54, "duration": 12, "velocity": 104}, {"time": 2102, "pitch": 47, "duration": 2, "velocity": 82}, {"time": 2102, "pitch": 62, "duration": 11, "velocity": 102}, {"time": 2102, "pitch": 66, "duration": 12, "velocity": 110}, {"time": 2102, "pitch": 71, "duration": 12, "velocity": 98}, {"time": 2108, "pitch": 47, "duration": 3, "velocity": 81}, {"time": 2114, "pitch": 42, "duration": 12, "velocity": 100}, {"time": 2126, "pitch": 61, "duration": 19, "velocity": 98}, {"time": 2126, "pitch": 66, "duration": 19, "velocity": 88}, {"time": 2126, "pitch": 69, "duration": 18, "velocity": 87}, {"time": 2132, "pitch": 42, "duration": 5, "velocity": 102}, {"time": 2138, "pitch": 49, "duration": 18, "velocity": 107}, {"time": 2150, "pitch": 61, "duration": 13, "velocity": 104}, {"time": 2150, "pitch": 66, "duration": 12, "velocity": 108}, {"time": 2150, "pitch": 69, "duration": 12, "velocity": 107}, {"time": 2156, "pitch": 42, "duration": 5, "velocity": 102}, {"time": 2162, "pitch": 43, "duration": 12, "velocity": 113}, {"time": 2174, "pitch": 59, "duration": 12, "velocity": 91}, {"time": 2174, "pitch": 62, "duration": 13, "velocity": 107}, {"time": 2174, "pitch": 67, "duration": 13, "velocity": 93}, {"time": 2180, "pitch": 43, "duration": 6, "velocity": 108}, {"time": 2186, "pitch": 50, "duration": 18, "velocity": 113}, {"time": 2198, "pitch": 59, "duration": 8, "velocity": 93}, {"time": 2198, "pitch": 62, "duration": 11, "velocity": 104}, {"time": 2198, "pitch": 67, "duration": 11, "velocity": 93}, {"time": 2204, "pitch": 43, "duration": 5, "velocity": 93}, {"time": 2210, "pitch": 45, "duration": 12, "velocity": 102}, {"time": 2222, "pitch": 61, "duration": 19, "velocity": 93}, {"time": 2222, "pitch": 64, "duration": 18, "velocity": 108}, {"time": 2222, "pitch": 69, "duration": 17, "velocity": 93}, {"time": 2228, "pitch": 45, "duration": 5, "velocity": 100}, {"time": 2234, "pitch": 52, "duration": 17, "velocity": 113}, {"time": 2246, "pitch": 61, "duration": 12, "velocity": 92}, {"time": 2246, "pitch": 64, "duration": 13, "velocity": 110}, {"time": 2246, "pitch": 69, "duration": 12, "velocity": 92}, {"time": 2252, "pitch": 45, "duration": 6, "velocity": 102}, {"time": 2258, "pitch": 47, "duration": 17, "velocity": 107}, {"time": 2270, "pitch": 62, "duration": 18, "velocity": 92}, {"time": 2270, "pitch": 66, "duration": 18, "velocity": 104}, {"time": 2270, "pitch": 71, "duration": 17, "velocity": 100}, {"time": 2276, "pitch": 54, "duration": 6, "velocity": 104}, {"time": 2282, "pitch": 47, "duration": 13, "velocity": 110}, {"time": 2294, "pitch": 62, "duration": 12, "velocity": 98}, {"time": 2294, "pitch": 66, "duration": 12, "velocity": 108}, {"time": 2294, "pitch": 71, "duration": 12, "velocity": 96}, {"time": 2300, "pitch": 47, "duration": 3, "velocity": 102}, {"time": 2306, "pitch": 42, "duration": 13, "velocity": 104}, {"time": 2318, "pitch": 61, "duration": 18, "velocity": 94}, {"time": 2318, "pitch": 66, "duration": 17, "velocity": 93}, {"time": 2318, "pitch": 69, "duration": 16, "velocity": 91}, {"time": 2324, "pitch": 42, "duration": 5, "velocity": 96}, {"time": 2330, "pitch": 49, "duration": 17, "velocity": 108}, {"time": 2342, "pitch": 61, "duration": 14, "velocity": 102}, {"time": 2342, "pitch": 66, "duration": 13, "velocity": 96}, {"time": 2342, "pitch": 69, "duration": 13, "velocity": 96}, {"time": 2348, "pitch": 42, "duration": 5, "velocity": 100}, {"time": 2354, "pitch": 43, "duration": 13, "velocity": 96}, {"time": 2366, "pitch": 59, "duration": 18, "velocity": 93}, {"time": 2366, "pitch": 62, "duration": 18, "velocity": 100}, {"time": 2366, "pitch": 67, "duration": 17, "velocity": 92}, {"time": 2372, "pitch": 43, "duration": 6, "velocity": 96}, {"time": 2378, "pitch": 50, "duration": 17, "velocity": 110}, {"time": 2390, "pitch": 59, "duration": 12, "velocity": 94}, {"time": 2390, "pitch": 62, "duration": 12, "velocity": 100}, {"time": 2390, "pitch": 67, "duration": 12, "velocity": 89}, {"time": 2396, "pitch": 43, "duration": 5, "velocity": 96}, {"time": 2402, "pitch": 45, "duration": 12, "velocity": 110}, {"time": 2414, "pitch": 61, "duration": 24, "velocity": 93}, {"time": 2414, "pitch": 64, "duration": 25, "velocity": 102}, {"time": 2414, "pitch": 69, "duration": 24, "velocity": 89}, {"time": 2420, "pitch": 45, "duration": 6, "velocity": 104}, {"time": 2426, "pitch": 52, "duration": 10, "velocity": 114}, {"time": 2438, "pitch": 45, "duration": 10, "velocity": 102}, {"time": 2444, "pitch": 61, "duration": 5, "velocity": 92}, {"time": 2444, "pitch": 64, "duration": 7, "velocity": 110}, {"time": 2444, "pitch": 69, "duration": 6, "velocity": 92}, {"time": 2450, "pitch": 47, "duration": 12, "velocity": 108}, {"time": 2462, "pitch": 62, "duration": 19, "velocity": 89}, {"time": 2462, "pitch": 66, "duration": 19, "velocity": 94}, {"time": 2462, "pitch": 71, "duration": 17, "velocity": 94}, {"time": 2468, "pitch": 47, "duration": 6, "velocity": 100}, {"time": 2474, "pitch": 54, "duration": 18, "velocity": 108}, {"time": 2486, "pitch": 62, "duration": 14, "velocity": 94}, {"time": 2486, "pitch": 66, "duration": 14, "velocity": 102}, {"time": 2486, "pitch": 71, "duration": 13, "velocity": 92}, {"time": 2492, "pitch": 47, "duration": 5, "velocity": 91}, {"time": 2498, "pitch": 42, "duration": 13, "velocity": 96}, {"time": 2510, "pitch": 61, "duration": 26, "velocity": 94}, {"time": 2510, "pitch": 66, "duration": 26, "velocity": 102}, {"time": 2510, "pitch": 69, "duration": 26, "velocity": 89}, {"time": 2516, "pitch": 42, "duration": 6, "velocity": 100}, {"time": 2522, "pitch": 49, "duration": 10, "velocity": 108}, {"time": 2534, "pitch": 42, "duration": 11, "velocity": 107}, {"time": 2540, "pitch": 61, "duration": 7, "velocity": 100}, {"time": 2540, "pitch": 66, "duration": 7, "velocity": 107}, {"time": 2540, "pitch": 69, "duration": 7, "velocity": 92}, {"time": 2546, "pitch": 43, "duration": 13, "velocity": 96}, {"time": 2558, "pitch": 59, "duration": 14, "velocity": 91}, {"time": 2558, "pitch": 62, "duration": 15, "velocity": 102}, {"time": 2558, "pitch": 67, "duration": 13, "velocity": 94}, {"time": 2564, "pitch": 43, "duration": 5, "velocity": 108}, {"time": 2570, "pitch": 50, "duration": 16, "velocity": 104}, {"time": 2576, "pitch": 59, "duration": 18, "velocity": 107}, {"time": 2576, "pitch": 62, "duration": 18, "velocity": 108}, {"time": 2576, "pitch": 67, "duration": 18, "velocity": 96}, {"time": 2585, "pitch": 43, "duration": 5, "velocity": 86}, {"time": 2594, "pitch": 45, "duration": 11, "velocity": 104}, {"time": 2606, "pitch": 61, "duration": 17, "velocity": 92}, {"time": 2606, "pitch": 64, "duration": 14, "velocity": 108}, {"time": 2606, "pitch": 69, "duration": 14, "velocity": 96}, {"time": 2612, "pitch": 45, "duration": 5, "velocity": 96}, {"time": 2618, "pitch": 52, "duration": 16, "velocity": 113}, {"time": 2630, "pitch": 61, "duration": 8, "velocity": 104}, {"time": 2630, "pitch": 64, "duration": 13, "velocity": 108}, {"time": 2630, "pitch": 69, "duration": 12, "velocity": 91}, {"time": 2636, "pitch": 45, "duration": 6, "velocity": 96}, {"time": 2642, "pitch": 47, "duration": 12, "velocity": 110}, {"time": 2654, "pitch": 62, "duration": 18, "velocity": 92}, {"time": 2654, "pitch": 66, "duration": 18, "velocity": 108}, {"time": 2654, "pitch": 71, "duration": 17, "velocity": 102}, {"time": 2660, "pitch": 47, "duration": 5, "velocity": 107}, {"time": 2666, "pitch": 54, "duration": 18, "velocity": 89}, {"time": 2678, "pitch": 62, "duration": 13, "velocity": 96}, {"time": 2678, "pitch": 66, "duration": 13, "velocity": 107}, {"time": 2678, "pitch": 71, "duration": 13, "velocity": 98}, {"time": 2684, "pitch": 47, "duration": 3, "velocity": 90}, {"time": 2690, "pitch": 42, "duration": 12, "velocity": 110}, {"time": 2702, "pitch": 61, "duration": 26, "velocity": 96}, {"time": 2702, "pitch": 66, "duration": 25, "velocity": 100}, {"time": 2702, "pitch": 69, "duration": 25, "velocity": 92}, {"time": 2708, "pitch": 42, "duration": 6, "velocity": 104}, {"time": 2714, "pitch": 49, "duration": 11, "velocity": 108}, {"time": 2726, "pitch": 42, "duration": 10, "velocity": 107}, {"time": 2732, "pitch": 61, "duration": 6, "velocity": 91}, {"time": 2732, "pitch": 66, "duration": 6, "velocity": 98}, {"time": 2732, "pitch": 69, "duration": 7, "velocity": 91}, {"time": 2738, "pitch": 43, "duration": 12, "velocity": 93}, {"time": 2750, "pitch": 59, "duration": 18, "velocity": 91}, {"time": 2750, "pitch": 62, "duration": 18, "velocity": 98}, {"time": 2750, "pitch": 67, "duration": 16, "velocity": 91}, {"time": 2756, "pitch": 43, "duration": 5, "velocity": 96}, {"time": 2762, "pitch": 50, "duration": 18, "velocity": 110}, {"time": 2774, "pitch": 59, "duration": 9, "velocity": 100}, {"time": 2774, "pitch": 62, "duration": 11, "velocity": 108}, {"time": 2774, "pitch": 67, "duration": 11, "velocity": 94}, {"time": 2780, "pitch": 43, "duration": 5, "velocity": 96}, {"time": 2786, "pitch": 45, "duration": 12, "velocity": 108}, {"time": 2798, "pitch": 61, "duration": 15, "velocity": 91}, {"time": 2798, "pitch": 64, "duration": 18, "velocity": 102}, {"time": 2798, "pitch": 69, "duration": 15, "velocity": 89}, {"time": 2804, "pitch": 45, "duration": 6, "velocity": 110}, {"time": 2810, "pitch": 52, "duration": 18, "velocity": 100}, {"time": 2822, "pitch": 61, "duration": 8, "velocity": 102}, {"time": 2822, "pitch": 64, "duration": 12, "velocity": 113}, {"time": 2822, "pitch": 69, "duration": 11, "velocity": 93}, {"time": 2828, "pitch": 45, "duration": 5, "velocity": 104}, {"time": 2834, "pitch": 47, "duration": 14, "velocity": 113}, {"time": 2846, "pitch": 62, "duration": 16, "velocity": 93}, {"time": 2846, "pitch": 66, "duration": 16, "velocity": 104}, {"time": 2846, "pitch": 71, "duration": 16, "velocity": 100}, {"time": 2852, "pitch": 47, "duration": 5, "velocity": 104}, {"time": 2858, "pitch": 54, "duration": 17, "velocity": 108}, {"time": 2870, "pitch": 62, "duration": 12, "velocity": 100}, {"time": 2870, "pitch": 66, "duration": 13, "velocity": 108}, {"time": 2870, "pitch": 71, "duration": 12, "velocity": 100}, {"time": 2876, "pitch": 47, "duration": 3, "velocity": 90}, {"time": 2882, "pitch": 42, "duration": 12, "velocity": 107}, {"time": 2894, "pitch": 61, "duration": 20, "velocity": 96}, {"time": 2894, "pitch": 66, "duration": 20, "velocity": 91}, {"time": 2894, "pitch": 69, "duration": 20, "velocity": 82}, {"time": 2900, "pitch": 42, "duration": 6, "velocity": 107}, {"time": 2906, "pitch": 49, "duration": 7, "velocity": 89}, {"time": 2912, "pitch": 42, "duration": 7, "velocity": 108}, {"time": 2918, "pitch": 61, "duration": 12, "velocity": 100}, {"time": 2918, "pitch": 66, "duration": 13, "velocity": 100}, {"time": 2918, "pitch": 69, "duration": 12, "velocity": 91}, {"time": 2924, "pitch": 42, "duration": 3, "velocity": 94}, {"time": 2930, "pitch": 43, "duration": 13, "velocity": 108}, {"time": 2942, "pitch": 62, "duration": 13, "velocity": 92}, {"time": 2942, "pitch": 66, "duration": 12, "velocity": 107}, {"time": 2942, "pitch": 71, "duration": 12, "velocity": 91}, {"time": 2948, "pitch": 43, "duration": 4, "velocity": 110}, {"time": 2954, "pitch": 50, "duration": 17, "velocity": 108}, {"time": 2966, "pitch": 62, "duration": 11, "velocity": 93}, {"time": 2966, "pitch": 66, "duration": 12, "velocity": 107}, {"time": 2966, "pitch": 71, "duration": 10, "velocity": 94}, {"time": 2972, "pitch": 43, "duration": 5, "velocity": 107}, {"time": 2978, "pitch": 45, "duration": 12, "velocity": 114}, {"time": 2990, "pitch": 61, "duration": 14, "velocity": 91}, {"time": 2990, "pitch": 64, "duration": 14, "velocity": 108}, {"time": 2990, "pitch": 69, "duration": 13, "velocity": 91}, {"time": 2996, "pitch": 45, "duration": 6, "velocity": 107}, {"time": 3002, "pitch": 52, "duration": 17, "velocity": 114}, {"time": 3008, "pitch": 61, "duration": 18, "velocity": 102}, {"time": 3008, "pitch": 64, "duration": 18, "velocity": 116}, {"time": 3008, "pitch": 69, "duration": 18, "velocity": 100}, {"time": 3020, "pitch": 45, "duration": 4, "velocity": 108}, {"time": 3026, "pitch": 47, "duration": 11, "velocity": 114}, {"time": 3038, "pitch": 62, "duration": 18, "velocity": 94}, {"time": 3038, "pitch": 66, "duration": 18, "velocity": 107}, {"time": 3038, "pitch": 71, "duration": 17, "velocity": 100}, {"time": 3044, "pitch": 47, "duration": 6, "velocity": 107}, {"time": 3050, "pitch": 54, "duration": 18, "velocity": 104}, {"time": 3062, "pitch": 62, "duration": 13, "velocity": 94}, {"time": 3062, "pitch": 66, "duration": 13, "velocity": 107}, {"time": 3062, "pitch": 71, "duration": 12, "velocity": 96}, {"time": 3068, "pitch": 47, "duration": 5, "velocity": 107}, {"time": 3074, "pitch": 42, "duration": 13, "velocity": 107}, {"time": 3086, "pitch": 61, "duration": 13, "velocity": 96}, {"time": 3086, "pitch": 66, "duration": 13, "velocity": 100}, {"time": 3086, "pitch": 69, "duration": 13, "velocity": 91}, {"time": 3092, "pitch": 42, "duration": 6, "velocity": 104}, {"time": 3098, "pitch": 49, "duration": 16, "velocity": 107}, {"time": 3104, "pitch": 61, "duration": 18, "velocity": 104}, {"time": 3104, "pitch": 66, "duration": 18, "velocity": 108}, {"time": 3104, "pitch": 69, "duration": 18, "velocity": 96}, {"time": 3116, "pitch": 42, "duration": 5, "velocity": 100}, {"time": 3122, "pitch": 43, "duration": 12, "velocity": 116}, {"time": 3134, "pitch": 62, "duration": 14, "velocity": 98}, {"time": 3134, "pitch": 67, "duration": 14, "velocity": 110}, {"time": 3134, "pitch": 71, "duration": 13, "velocity": 94}, {"time": 3137, "pitch": 43, "duration": 6, "velocity": 108}, {"time": 3146, "pitch": 50, "duration": 18, "velocity": 116}, {"time": 3152, "pitch": 62, "duration": 19, "velocity": 107}, {"time": 3152, "pitch": 67, "duration": 19, "velocity": 114}, {"time": 3152, "pitch": 71, "duration": 18, "velocity": 104}, {"time": 3164, "pitch": 43, "duration": 4, "velocity": 87}, {"time": 3170, "pitch": 45, "duration": 11, "velocity": 110}, {"time": 3182, "pitch": 61, "duration": 21, "velocity": 89}, {"time": 3182, "pitch": 64, "duration": 20, "velocity": 100}, {"time": 3182, "pitch": 69, "duration": 19, "velocity": 91}, {"time": 3188, "pitch": 45, "duration": 9, "velocity": 114}, {"time": 3200, "pitch": 45, "duration": 6, "velocity": 113}, {"time": 3206, "pitch": 52, "duration": 10, "velocity": 113}, {"time": 3212, "pitch": 61, "duration": 5, "velocity": 92}, {"time": 3212, "pitch": 64, "duration": 6, "velocity": 110}, {"time": 3212, "pitch": 69, "duration": 6, "velocity": 98}, {"time": 3218, "pitch": 47, "duration": 11, "velocity": 100}, {"time": 3230, "pitch": 62, "duration": 19, "velocity": 88}, {"time": 3230, "pitch": 66, "duration": 19, "velocity": 92}, {"time": 3230, "pitch": 71, "duration": 17, "velocity": 88}, {"time": 3236, "pitch": 47, "duration": 6, "velocity": 98}, {"time": 3242, "pitch": 54, "duration": 18, "velocity": 102}, {"time": 3254, "pitch": 62, "duration": 13, "velocity": 92}, {"time": 3254, "pitch": 66, "duration": 14, "velocity": 98}, {"time": 3254, "pitch": 71, "duration": 12, "velocity": 91}, {"time": 3260, "pitch": 47, "duration": 5, "velocity": 79}, {"time": 3266, "pitch": 42, "duration": 12, "velocity": 98}, {"time": 3278, "pitch": 61, "duration": 19, "velocity": 94}, {"time": 3278, "pitch": 66, "duration": 19, "velocity": 98}, {"time": 3278, "pitch": 69, "duration": 18, "velocity": 90}, {"time": 3284, "pitch": 42, "duration": 6, "velocity": 93}, {"time": 3290, "pitch": 49, "duration": 14, "velocity": 107}, {"time": 3302, "pitch": 61, "duration": 13, "velocity": 90}, {"time": 3302, "pitch": 66, "duration": 13, "velocity": 96}, {"time": 3302, "pitch": 69, "duration": 12, "velocity": 91}, {"time": 3308, "pitch": 42, "duration": 5, "velocity": 94}, {"time": 3314, "pitch": 43, "duration": 14, "velocity": 94}, {"time": 3326, "pitch": 62, "duration": 26, "velocity": 88}, {"time": 3326, "pitch": 67, "duration": 26, "velocity": 87}, {"time": 3326, "pitch": 71, "duration": 25, "velocity": 88}, {"time": 3332, "pitch": 43, "duration": 5, "velocity": 93}, {"time": 3338, "pitch": 50, "duration": 11, "velocity": 104}, {"time": 3350, "pitch": 43, "duration": 11, "velocity": 98}, {"time": 3356, "pitch": 62, "duration": 7, "velocity": 96}, {"time": 3356, "pitch": 67, "duration": 7, "velocity": 90}, {"time": 3356, "pitch": 71, "duration": 6, "velocity": 92}, {"time": 3362, "pitch": 45, "duration": 12, "velocity": 96}, {"time": 3374, "pitch": 61, "duration": 19, "velocity": 88}, {"time": 3374, "pitch": 64, "duration": 25, "velocity": 89}, {"time": 3374, "pitch": 69, "duration": 25, "velocity": 88}, {"time": 3380, "pitch": 45, "duration": 6, "velocity": 90}, {"time": 3386, "pitch": 52, "duration": 11, "velocity": 102}, {"time": 3398, "pitch": 45, "duration": 11, "velocity": 100}, {"time": 3404, "pitch": 61, "duration": 3, "velocity": 89}, {"time": 3404, "pitch": 64, "duration": 9, "velocity": 96}, {"time": 3404, "pitch": 69, "duration": 7, "velocity": 88}, {"time": 3410, "pitch": 47, "duration": 13, "velocity": 88}, {"time": 3422, "pitch": 62, "duration": 19, "velocity": 88}, {"time": 3422, "pitch": 66, "duration": 19, "velocity": 90}, {"time": 3422, "pitch": 71, "duration": 18, "velocity": 90}, {"time": 3428, "pitch": 47, "duration": 5, "velocity": 91}, {"time": 3434, "pitch": 54, "duration": 16, "velocity": 107}, {"time": 3446, "pitch": 62, "duration": 13, "velocity": 92}, {"time": 3446, "pitch": 66, "duration": 13, "velocity": 100}, {"time": 3446, "pitch": 71, "duration": 13, "velocity": 92}, {"time": 3452, "pitch": 47, "duration": 6, "velocity": 100}, {"time": 3458, "pitch": 42, "duration": 12, "velocity": 100}, {"time": 3470, "pitch": 61, "duration": 26, "velocity": 96}, {"time": 3470, "pitch": 66, "duration": 27, "velocity": 107}, {"time": 3470, "pitch": 69, "duration": 26, "velocity": 91}, {"time": 3476, "pitch": 42, "duration": 6, "velocity": 98}, {"time": 3482, "pitch": 49, "duration": 11, "velocity": 98}, {"time": 3494, "pitch": 42, "duration": 11, "velocity": 96}, {"time": 3500, "pitch": 61, "duration": 5, "velocity": 94}, {"time": 3500, "pitch": 66, "duration": 8, "velocity": 98}, {"time": 3500, "pitch": 69, "duration": 7, "velocity": 91}, {"time": 3506, "pitch": 43, "duration": 12, "velocity": 104}, {"time": 3518, "pitch": 59, "duration": 25, "velocity": 89}, {"time": 3518, "pitch": 62, "duration": 26, "velocity": 91}, {"time": 3518, "pitch": 67, "duration": 25, "velocity": 88}, {"time": 3524, "pitch": 43, "duration": 6, "velocity": 91}, {"time": 3530, "pitch": 50, "duration": 11, "velocity": 107}, {"time": 3542, "pitch": 43, "duration": 10, "velocity": 93}, {"time": 3548, "pitch": 59, "duration": 2, "velocity": 90}, {"time": 3548, "pitch": 62, "duration": 8, "velocity": 94}, {"time": 3548, "pitch": 67, "duration": 7, "velocity": 88}, {"time": 3554, "pitch": 45, "duration": 12, "velocity": 98}, {"time": 3566, "pitch": 61, "duration": 12, "velocity": 87}, {"time": 3566, "pitch": 64, "duration": 13, "velocity": 89}, {"time": 3566, "pitch": 69, "duration": 12, "velocity": 89}, {"time": 3572, "pitch": 45, "duration": 6, "velocity": 92}, {"time": 3578, "pitch": 52, "duration": 11, "velocity": 104}, {"time": 3584, "pitch": 61, "duration": 7, "velocity": 102}, {"time": 3584, "pitch": 64, "duration": 8, "velocity": 107}, {"time": 3584, "pitch": 69, "duration": 7, "velocity": 96}, {"time": 3590, "pitch": 45, "duration": 10, "velocity": 98}, {"time": 3596, "pitch": 61, "duration": 5, "velocity": 98}, {"time": 3596, "pitch": 64, "duration": 6, "velocity": 104}, {"time": 3596, "pitch": 69, "duration": 6, "velocity": 92}, {"time": 3602, "pitch": 47, "duration": 12, "velocity": 93}, {"time": 3614, "pitch": 62, "duration": 16, "velocity": 92}, {"time": 3614, "pitch": 66, "duration": 16, "velocity": 100}, {"time": 3614, "pitch": 71, "duration": 15, "velocity": 93}, {"time": 3620, "pitch": 47, "duration": 5, "velocity": 87}, {"time": 3626, "pitch": 54, "duration": 18, "velocity": 100}, {"time": 3638, "pitch": 62, "duration": 13, "velocity": 94}, {"time": 3638, "pitch": 66, "duration": 13, "velocity": 104}, {"time": 3638, "pitch": 71, "duration": 13, "velocity": 92}, {"time": 3644, "pitch": 47, "duration": 5, "velocity": 98}, {"time": 3650, "pitch": 42, "duration": 12, "velocity": 102}, {"time": 3662, "pitch": 61, "duration": 12, "velocity": 100}, {"time": 3662, "pitch": 66, "duration": 12, "velocity": 102}, {"time": 3662, "pitch": 69, "duration": 12, "velocity": 93}, {"time": 3668, "pitch": 42, "duration": 6, "velocity": 102}, {"time": 3674, "pitch": 49, "duration": 9, "velocity": 108}, {"time": 3680, "pitch": 61, "duration": 8, "velocity": 102}, {"time": 3680, "pitch": 66, "duration": 8, "velocity": 107}, {"time": 3680, "pitch": 69, "duration": 7, "velocity": 94}, {"time": 3686, "pitch": 42, "duration": 10, "velocity": 102}, {"time": 3692, "pitch": 61, "duration": 6, "velocity": 96}, {"time": 3692, "pitch": 66, "duration": 6, "velocity": 107}, {"time": 3692, "pitch": 69, "duration": 6, "velocity": 96}, {"time": 3698, "pitch": 43, "duration": 12, "velocity": 108}, {"time": 3710, "pitch": 59, "duration": 15, "velocity": 92}, {"time": 3710, "pitch": 62, "duration": 16, "velocity": 98}, {"time": 3710, "pitch": 67, "duration": 15, "velocity": 92}, {"time": 3716, "pitch": 43, "duration": 6, "velocity": 102}, {"time": 3722, "pitch": 50, "duration": 16, "velocity": 107}, {"time": 3728, "pitch": 59, "duration": 2, "velocity": 85}, {"time": 3728, "pitch": 62, "duration": 2, "velocity": 89}, {"time": 3728, "pitch": 67, "duration": 2, "velocity": 88}, {"time": 3734, "pitch": 59, "duration": 6, "velocity": 91}, {"time": 3734, "pitch": 62, "duration": 11, "velocity": 100}, {"time": 3734, "pitch": 67, "duration": 9, "velocity": 90}, {"time": 3737, "pitch": 43, "duration": 5, "velocity": 96}, {"time": 3746, "pitch": 45, "duration": 12, "velocity": 114}, {"time": 3758, "pitch": 61, "duration": 13, "velocity": 91}, {"time": 3758, "pitch": 64, "duration": 14, "velocity": 102}, {"time": 3758, "pitch": 69, "duration": 13, "velocity": 91}, {"time": 3764, "pitch": 45, "duration": 6, "velocity": 110}, {"time": 3770, "pitch": 50, "duration": 12, "velocity": 89}, {"time": 3776, "pitch": 61, "duration": 10, "velocity": 107}, {"time": 3776, "pitch": 64, "duration": 16, "velocity": 114}, {"time": 3776, "pitch": 69, "duration": 13, "velocity": 100}, {"time": 3782, "pitch": 45, "duration": 11, "velocity": 98}, {"time": 3794, "pitch": 47, "duration": 11, "velocity": 104}, {"time": 3806, "pitch": 62, "duration": 16, "velocity": 90}, {"time": 3806, "pitch": 66, "duration": 16, "velocity": 87}, {"time": 3806, "pitch": 71, "duration": 14, "velocity": 86}, {"time": 3812, "pitch": 47, "duration": 5, "velocity": 98}, {"time": 3818, "pitch": 54, "duration": 19, "velocity": 87}, {"time": 3830, "pitch": 62, "duration": 12, "velocity": 96}, {"time": 3830, "pitch": 66, "duration": 12, "velocity": 107}, {"time": 3830, "pitch": 71, "duration": 12, "velocity": 91}, {"time": 3836, "pitch": 47, "duration": 5, "velocity": 88}, {"time": 3842, "pitch": 42, "duration": 12, "velocity": 102}, {"time": 3854, "pitch": 61, "duration": 15, "velocity": 96}, {"time": 3854, "pitch": 66, "duration": 14, "velocity": 102}, {"time": 3854, "pitch": 69, "duration": 13, "velocity": 92}, {"time": 3860, "pitch": 42, "duration": 6, "velocity": 96}, {"time": 3866, "pitch": 49, "duration": 10, "velocity": 107}, {"time": 3872, "pitch": 61, "duration": 8, "velocity": 92}, {"time": 3872, "pitch": 66, "duration": 7, "velocity": 91}, {"time": 3872, "pitch": 69, "duration": 7, "velocity": 88}, {"time": 3878, "pitch": 42, "duration": 11, "velocity": 104}, {"time": 3884, "pitch": 61, "duration": 6, "velocity": 96}, {"time": 3884, "pitch": 66, "duration": 6, "velocity": 92}, {"time": 3884, "pitch": 69, "duration": 7, "velocity": 94}, {"time": 3890, "pitch": 43, "duration": 13, "velocity": 94}, {"time": 3902, "pitch": 59, "duration": 10, "velocity": 87}, {"time": 3902, "pitch": 62, "duration": 13, "velocity": 96}, {"time": 3902, "pitch": 67, "duration": 13, "velocity": 89}, {"time": 3908, "pitch": 43, "duration": 5, "velocity": 94}, {"time": 3914, "pitch": 50, "duration": 11, "velocity": 100}, {"time": 3920, "pitch": 59, "duration": 7, "velocity": 102}, {"time": 3920, "pitch": 62, "duration": 8, "velocity": 110}, {"time": 3920, "pitch": 67, "duration": 8, "velocity": 93}, {"time": 3926, "pitch": 43, "duration": 11, "velocity": 107}, {"time": 3932, "pitch": 59, "duration": 4, "velocity": 93}, {"time": 3932, "pitch": 62, "duration": 7, "velocity": 102}, {"time": 3932, "pitch": 67, "duration": 6, "velocity": 89}, {"time": 3938, "pitch": 45, "duration": 13, "velocity": 108}, {"time": 3950, "pitch": 61, "duration": 13, "velocity": 89}, {"time": 3950, "pitch": 64, "duration": 14, "velocity": 91}, {"time": 3950, "pitch": 69, "duration": 13, "velocity": 91}, {"time": 3956, "pitch": 45, "duration": 5, "velocity": 88}, {"time": 3962, "pitch": 52, "duration": 10, "velocity": 107}, {"time": 3968, "pitch": 61, "duration": 8, "velocity": 102}, {"time": 3968, "pitch": 64, "duration": 8, "velocity": 110}, {"time": 3968, "pitch": 69, "duration": 7, "velocity": 100}, {"time": 3974, "pitch": 45, "duration": 10, "velocity": 113}, {"time": 3980, "pitch": 61, "duration": 5, "velocity": 94}, {"time": 3980, "pitch": 64, "duration": 6, "velocity": 107}, {"time": 3980, "pitch": 69, "duration": 5, "velocity": 92}, {"time": 3986, "pitch": 47, "duration": 38, "velocity": 90}, {"time": 3986, "pitch": 62, "duration": 38, "velocity": 84}, {"time": 3986, "pitch": 66, "duration": 37, "velocity": 87}, {"time": 3986, "pitch": 71, "duration": 35, "velocity": 86}, {"time": 4031, "pitch": 61, "duration": 40, "velocity": 75}, {"time": 4032, "pitch": 66, "duration": 38, "velocity": 76}, {"time": 4034, "pitch": 42, "duration": 37, "velocity": 92}, {"time": 4034, "pitch": 69, "duration": 36, "velocity": 89}, {"time": 4079, "pitch": 59, "duration": 40, "velocity": 76}, {"time": 4080, "pitch": 62, "duration": 39, "velocity": 75}, {"time": 4082, "pitch": 43, "duration": 37, "velocity": 88}, {"time": 4082, "pitch": 67, "duration": 37, "velocity": 96}, {"time": 4127, "pitch": 61, "duration": 32, "velocity": 77}, {"time": 4128, "pitch": 64, "duration": 30, "velocity": 70}, {"time": 4130, "pitch": 45, "duration": 41, "velocity": 88}, {"time": 4130, "pitch": 69, "duration": 28, "velocity": 91}, {"time": 4160, "pitch": 61, "duration": 9, "velocity": 91}, {"time": 4166, "pitch": 64, "duration": 4, "velocity": 102}, {"time": 4178, "pitch": 47, "duration": 46, "velocity": 88}, {"time": 4178, "pitch": 62, "duration": 36, "velocity": 85}, {"time": 4178, "pitch": 66, "duration": 35, "velocity": 92}, {"time": 4178, "pitch": 71, "duration": 30, "velocity": 89}, {"time": 4214, "pitch": 66, "duration": 1, "velocity": 81}, {"time": 4214, "pitch": 71, "duration": 2, "velocity": 98}, {"time": 4226, "pitch": 42, "duration": 21, "velocity": 86}, {"time": 4226, "pitch": 54, "duration": 31, "velocity": 87}, {"time": 4226, "pitch": 61, "duration": 33, "velocity": 86}, {"time": 4226, "pitch": 66, "duration": 34, "velocity": 90}, {"time": 4226, "pitch": 69, "duration": 31, "velocity": 85}, {"time": 4256, "pitch": 42, "duration": 16, "velocity": 94}, {"time": 4262, "pitch": 69, "duration": 9, "velocity": 94}, {"time": 4274, "pitch": 43, "duration": 46, "velocity": 88}, {"time": 4274, "pitch": 59, "duration": 38, "velocity": 87}, {"time": 4274, "pitch": 62, "duration": 39, "velocity": 91}, {"time": 4274, "pitch": 67, "duration": 39, "velocity": 89}, {"time": 4322, "pitch": 45, "duration": 32, "velocity": 88}, {"time": 4322, "pitch": 61, "duration": 30, "velocity": 88}, {"time": 4322, "pitch": 64, "duration": 30, "velocity": 93}, {"time": 4322, "pitch": 69, "duration": 30, "velocity": 90}, {"time": 4418, "pitch": 47, "duration": 13, "velocity": 94}, {"time": 4430, "pitch": 62, "duration": 18, "velocity": 90}, {"time": 4430, "pitch": 66, "duration": 19, "velocity": 102}, {"time": 4430, "pitch": 71, "duration": 18, "velocity": 93}, {"time": 4436, "pitch": 47, "duration": 5, "velocity": 91}, {"time": 4442, "pitch": 54, "duration": 13, "velocity": 96}, {"time": 4454, "pitch": 47, "duration": 9, "velocity": 88}, {"time": 4454, "pitch": 62, "duration": 12, "velocity": 92}, {"time": 4454, "pitch": 66, "duration": 12, "velocity": 100}, {"time": 4454, "pitch": 71, "duration": 12, "velocity": 92}, {"time": 4466, "pitch": 42, "duration": 12, "velocity": 107}, {"time": 4478, "pitch": 61, "duration": 18, "velocity": 100}, {"time": 4478, "pitch": 66, "duration": 18, "velocity": 98}, {"time": 4478, "pitch": 69, "duration": 16, "velocity": 88}, {"time": 4484, "pitch": 42, "duration": 5, "velocity": 100}, {"time": 4490, "pitch": 49, "duration": 11, "velocity": 100}, {"time": 4502, "pitch": 42, "duration": 9, "velocity": 91}, {"time": 4508, "pitch": 61, "duration": 4, "velocity": 91}, {"time": 4508, "pitch": 66, "duration": 6, "velocity": 98}, {"time": 4508, "pitch": 69, "duration": 6, "velocity": 91}, {"time": 4514, "pitch": 43, "duration": 11, "velocity": 104}, {"time": 4526, "pitch": 59, "duration": 17, "velocity": 89}, {"time": 4526, "pitch": 62, "duration": 18, "velocity": 91}, {"time": 4526, "pitch": 67, "duration": 14, "velocity": 89}, {"time": 4532, "pitch": 43, "duration": 5, "velocity": 92}, {"time": 4538, "pitch": 50, "duration": 12, "velocity": 113}, {"time": 4550, "pitch": 43, "duration": 10, "velocity": 94}, {"time": 4550, "pitch": 59, "duration": 6, "velocity": 94}, {"time": 4550, "pitch": 62, "duration": 11, "velocity": 107}, {"time": 4550, "pitch": 67, "duration": 9, "velocity": 91}, {"time": 4562, "pitch": 45, "duration": 12, "velocity": 94}, {"time": 4574, "pitch": 61, "duration": 25, "velocity": 91}, {"time": 4574, "pitch": 64, "duration": 25, "velocity": 107}, {"time": 4574, "pitch": 69, "duration": 25, "velocity": 91}, {"time": 4580, "pitch": 45, "duration": 6, "velocity": 96}, {"time": 4586, "pitch": 52, "duration": 10, "velocity": 107}, {"time": 4598, "pitch": 45, "duration": 10, "velocity": 100}, {"time": 4604, "pitch": 61, "duration": 4, "velocity": 89}, {"time": 4604, "pitch": 64, "duration": 8, "velocity": 98}, {"time": 4604, "pitch": 69, "duration": 5, "velocity": 89}, {"time": 4610, "pitch": 47, "duration": 14, "velocity": 91}, {"time": 4622, "pitch": 62, "duration": 18, "velocity": 89}, {"time": 4622, "pitch": 66, "duration": 19, "velocity": 96}, {"time": 4622, "pitch": 71, "duration": 18, "velocity": 94}, {"time": 4628, "pitch": 54, "duration": 5, "velocity": 110}, {"time": 4634, "pitch": 47, "duration": 22, "velocity": 96}, {"time": 4646, "pitch": 62, "duration": 10, "velocity": 89}, {"time": 4646, "pitch": 66, "duration": 11, "velocity": 98}, {"time": 4646, "pitch": 71, "duration": 9, "velocity": 92}, {"time": 4658, "pitch": 42, "duration": 12, "velocity": 91}, {"time": 4670, "pitch": 61, "duration": 26, "velocity": 91}, {"time": 4670, "pitch": 66, "duration": 26, "velocity": 100}, {"time": 4670, "pitch": 69, "duration": 26, "velocity": 90}, {"time": 4676, "pitch": 42, "duration": 6, "velocity": 98}, {"time": 4682, "pitch": 49, "duration": 11, "velocity": 107}, {"time": 4694, "pitch": 42, "duration": 10, "velocity": 100}, {"time": 4706, "pitch": 43, "duration": 12, "velocity": 96}, {"time": 4718, "pitch": 59, "duration": 16, "velocity": 93}, {"time": 4718, "pitch": 62, "duration": 18, "velocity": 98}, {"time": 4718, "pitch": 67, "duration": 12, "velocity": 90}, {"time": 4724, "pitch": 43, "duration": 5, "velocity": 98}, {"time": 4730, "pitch": 50, "duration": 17, "velocity": 110}, {"time": 4742, "pitch": 59, "duration": 11, "velocity": 94}, {"time": 4742, "pitch": 62, "duration": 12, "velocity": 104}, {"time": 4742, "pitch": 67, "duration": 12, "velocity": 100}, {"time": 4748, "pitch": 43, "duration": 6, "velocity": 96}, {"time": 4754, "pitch": 45, "duration": 13, "velocity": 108}, {"time": 4766, "pitch": 61, "duration": 31, "velocity": 93}, {"time": 4766, "pitch": 64, "duration": 33, "velocity": 104}, {"time": 4766, "pitch": 69, "duration": 31, "velocity": 93}, {"time": 4772, "pitch": 45, "duration": 5, "velocity": 107}, {"time": 4778, "pitch": 52, "duration": 11, "velocity": 114}, {"time": 4790, "pitch": 45, "duration": 10, "velocity": 107}, {"time": 4802, "pitch": 52, "duration": 7, "velocity": 104}, {"time": 4802, "pitch": 67, "duration": 6, "velocity": 100}, {"time": 4802, "pitch": 71, "duration": 6, "velocity": 113}, {"time": 4802, "pitch": 76, "duration": 5, "velocity": 108}, {"time": 4814, "pitch": 50, "duration": 7, "velocity": 102}, {"time": 4814, "pitch": 66, "duration": 5, "velocity": 100}, {"time": 4814, "pitch": 69, "duration": 6, "velocity": 110}, {"time": 4814, "pitch": 74, "duration": 5, "velocity": 102}, {"time": 4826, "pitch": 47, "duration": 7, "velocity": 91}, {"time": 4826, "pitch": 66, "duration": 5, "velocity": 104}, {"time": 4826, "pitch": 71, "duration": 6, "velocity": 114}, {"time": 4826, "pitch": 74, "duration": 5, "velocity": 98}, {"time": 4838, "pitch": 45, "duration": 3, "velocity": 100}, {"time": 4838, "pitch": 64, "duration": 2, "velocity": 104}, {"time": 4838, "pitch": 69, "duration": 3, "velocity": 116}, {"time": 4838, "pitch": 73, "duration": 3, "velocity": 108}, {"time": 4844, "pitch": 47, "duration": 8, "velocity": 108}, {"time": 4844, "pitch": 66, "duration": 7, "velocity": 110}, {"time": 4844, "pitch": 71, "duration": 8, "velocity": 117}, {"time": 4844, "pitch": 74, "duration": 8, "velocity": 113}]}]}