{"metadata": {"schema_version": "0.2", "title": "None", "source_filename": "328.mid", "source_format": "midi"}, "resolution": 12, "tempos": [{"time": 0, "qpm": 90.00009000009}], "time_signatures": [{"time": 0, "numerator": 4, "denominator": 4}], "tracks": [{"program": 0, "is_drum": false, "name": "MELODY", "notes": [{"time": 301, "pitch": 75, "duration": 6, "velocity": 114}, {"time": 307, "pitch": 77, "duration": 6, "velocity": 116}, {"time": 313, "pitch": 75, "duration": 6, "velocity": 114}, {"time": 319, "pitch": 74, "duration": 6, "velocity": 114}, {"time": 325, "pitch": 72, "duration": 6, "velocity": 116}, {"time": 331, "pitch": 72, "duration": 6, "velocity": 108}, {"time": 337, "pitch": 74, "duration": 6, "velocity": 107}, {"time": 343, "pitch": 70, "duration": 30, "velocity": 102}, {"time": 373, "pitch": 72, "duration": 6, "velocity": 113}, {"time": 379, "pitch": 72, "duration": 6, "velocity": 107}, {"time": 385, "pitch": 74, "duration": 6, "velocity": 113}, {"time": 391, "pitch": 75, "duration": 6, "velocity": 114}, {"time": 397, "pitch": 77, "duration": 6, "velocity": 104}, {"time": 403, "pitch": 77, "duration": 6, "velocity": 113}, {"time": 409, "pitch": 79, "duration": 6, "velocity": 116}, {"time": 415, "pitch": 79, "duration": 30, "velocity": 119}, {"time": 445, "pitch": 77, "duration": 6, "velocity": 113}, {"time": 451, "pitch": 77, "duration": 6, "velocity": 114}, {"time": 457, "pitch": 79, "duration": 6, "velocity": 114}, {"time": 463, "pitch": 72, "duration": 18, "velocity": 116}, {"time": 481, "pitch": 72, "duration": 6, "velocity": 116}, {"time": 487, "pitch": 72, "duration": 6, "velocity": 113}, {"time": 493, "pitch": 74, "duration": 6, "velocity": 113}, {"time": 499, "pitch": 70, "duration": 18, "velocity": 108}, {"time": 517, "pitch": 72, "duration": 6, "velocity": 104}, {"time": 523, "pitch": 72, "duration": 6, "velocity": 113}, {"time": 529, "pitch": 74, "duration": 6, "velocity": 108}, {"time": 535, "pitch": 72, "duration": 6, "velocity": 108}, {"time": 541, "pitch": 70, "duration": 6, "velocity": 107}, {"time": 547, "pitch": 67, "duration": 42, "velocity": 107}, {"time": 589, "pitch": 75, "duration": 6, "velocity": 114}, {"time": 595, "pitch": 77, "duration": 6, "velocity": 116}, {"time": 601, "pitch": 75, "duration": 6, "velocity": 114}, {"time": 607, "pitch": 74, "duration": 6, "velocity": 114}, {"time": 613, "pitch": 72, "duration": 6, "velocity": 116}, {"time": 619, "pitch": 72, "duration": 6, "velocity": 108}, {"time": 625, "pitch": 74, "duration": 6, "velocity": 107}, {"time": 631, "pitch": 70, "duration": 30, "velocity": 102}, {"time": 661, "pitch": 72, "duration": 6, "velocity": 113}, {"time": 667, "pitch": 72, "duration": 6, "velocity": 107}, {"time": 673, "pitch": 74, "duration": 6, "velocity": 113}, {"time": 679, "pitch": 75, "duration": 6, "velocity": 114}, {"time": 685, "pitch": 77, "duration": 6, "velocity": 104}, {"time": 691, "pitch": 77, "duration": 6, "velocity": 113}, {"time": 697, "pitch": 79, "duration": 6, "velocity": 116}, {"time": 703, "pitch": 79, "duration": 30, "velocity": 119}, {"time": 733, "pitch": 77, "duration": 6, "velocity": 113}, {"time": 739, "pitch": 77, "duration": 6, "velocity": 114}, {"time": 745, "pitch": 79, "duration": 6, "velocity": 114}, {"time": 751, "pitch": 72, "duration": 18, "velocity": 116}, {"time": 769, "pitch": 72, "duration": 6, "velocity": 116}, {"time": 775, "pitch": 72, "duration": 6, "velocity": 113}, {"time": 781, "pitch": 74, "duration": 6, "velocity": 113}, {"time": 787, "pitch": 70, "duration": 12, "velocity": 108}, {"time": 799, "pitch": 72, "duration": 12, "velocity": 110}, {"time": 811, "pitch": 72, "duration": 12, "velocity": 113}, {"time": 823, "pitch": 70, "duration": 12, "velocity": 114}, {"time": 835, "pitch": 72, "duration": 42, "velocity": 116}, {"time": 877, "pitch": 79, "duration": 6, "velocity": 119}, {"time": 883, "pitch": 79, "duration": 6, "velocity": 120}, {"time": 889, "pitch": 77, "duration": 6, "velocity": 114}, {"time": 895, "pitch": 77, "duration": 6, "velocity": 116}, {"time": 901, "pitch": 75, "duration": 6, "velocity": 117}, {"time": 907, "pitch": 75, "duration": 6, "velocity": 117}, {"time": 913, "pitch": 74, "duration": 6, "velocity": 113}, {"time": 919, "pitch": 74, "duration": 30, "velocity": 116}, {"time": 949, "pitch": 77, "duration": 6, "velocity": 116}, {"time": 955, "pitch": 77, "duration": 6, "velocity": 114}, {"time": 961, "pitch": 75, "duration": 6, "velocity": 114}, {"time": 967, "pitch": 75, "duration": 6, "velocity": 117}, {"time": 973, "pitch": 74, "duration": 6, "velocity": 114}, {"time": 979, "pitch": 74, "duration": 6, "velocity": 116}, {"time": 985, "pitch": 75, "duration": 6, "velocity": 113}, {"time": 991, "pitch": 79, "duration": 24, "velocity": 117}, {"time": 1015, "pitch": 77, "duration": 12, "velocity": 117}, {"time": 1027, "pitch": 72, "duration": 12, "velocity": 117}, {"time": 1039, "pitch": 77, "duration": 12, "velocity": 119}, {"time": 1051, "pitch": 79, "duration": 24, "velocity": 120}, {"time": 1075, "pitch": 77, "duration": 6, "velocity": 114}, {"time": 1081, "pitch": 79, "duration": 6, "velocity": 117}, {"time": 1087, "pitch": 80, "duration": 12, "velocity": 119}, {"time": 1099, "pitch": 79, "duration": 48, "velocity": 120}, {"time": 1147, "pitch": 72, "duration": 6, "velocity": 113}, {"time": 1153, "pitch": 74, "duration": 6, "velocity": 108}, {"time": 1159, "pitch": 75, "duration": 6, "velocity": 110}, {"time": 1165, "pitch": 77, "duration": 7, "velocity": 107}, {"time": 1171, "pitch": 79, "duration": 6, "velocity": 110}, {"time": 1177, "pitch": 82, "duration": 6, "velocity": 108}, {"time": 1183, "pitch": 84, "duration": 6, "velocity": 108}, {"time": 1189, "pitch": 86, "duration": 6, "velocity": 107}, {"time": 1195, "pitch": 84, "duration": 6, "velocity": 114}, {"time": 1201, "pitch": 82, "duration": 6, "velocity": 113}, {"time": 1207, "pitch": 79, "duration": 24, "velocity": 116}, {"time": 1231, "pitch": 84, "duration": 6, "velocity": 110}, {"time": 1237, "pitch": 86, "duration": 6, "velocity": 110}, {"time": 1243, "pitch": 84, "duration": 6, "velocity": 100}, {"time": 1249, "pitch": 82, "duration": 6, "velocity": 108}, {"time": 1255, "pitch": 79, "duration": 6, "velocity": 114}, {"time": 1261, "pitch": 77, "duration": 6, "velocity": 100}, {"time": 1267, "pitch": 79, "duration": 6, "velocity": 113}, {"time": 1273, "pitch": 82, "duration": 6, "velocity": 114}, {"time": 1279, "pitch": 79, "duration": 24, "velocity": 113}, {"time": 1303, "pitch": 77, "duration": 6, "velocity": 113}, {"time": 1309, "pitch": 79, "duration": 7, "velocity": 104}, {"time": 1315, "pitch": 77, "duration": 6, "velocity": 102}, {"time": 1321, "pitch": 75, "duration": 6, "velocity": 108}, {"time": 1327, "pitch": 72, "duration": 6, "velocity": 108}, {"time": 1333, "pitch": 75, "duration": 6, "velocity": 100}, {"time": 1339, "pitch": 77, "duration": 6, "velocity": 91}, {"time": 1345, "pitch": 79, "duration": 6, "velocity": 100}, {"time": 1351, "pitch": 82, "duration": 24, "velocity": 110}, {"time": 1375, "pitch": 77, "duration": 6, "velocity": 116}, {"time": 1381, "pitch": 79, "duration": 6, "velocity": 114}, {"time": 1387, "pitch": 77, "duration": 6, "velocity": 113}, {"time": 1393, "pitch": 75, "duration": 6, "velocity": 110}, {"time": 1399, "pitch": 72, "duration": 6, "velocity": 107}, {"time": 1405, "pitch": 75, "duration": 6, "velocity": 91}, {"time": 1411, "pitch": 74, "duration": 6, "velocity": 110}, {"time": 1417, "pitch": 72, "duration": 6, "velocity": 100}, {"time": 1423, "pitch": 74, "duration": 18, "velocity": 107}, {"time": 1441, "pitch": 74, "duration": 6, "velocity": 108}, {"time": 1447, "pitch": 75, "duration": 6, "velocity": 110}, {"time": 1453, "pitch": 77, "duration": 7, "velocity": 107}, {"time": 1459, "pitch": 79, "duration": 6, "velocity": 110}, {"time": 1465, "pitch": 82, "duration": 6, "velocity": 108}, {"time": 1471, "pitch": 84, "duration": 6, "velocity": 108}, {"time": 1477, "pitch": 86, "duration": 6, "velocity": 107}, {"time": 1483, "pitch": 84, "duration": 6, "velocity": 114}, {"time": 1489, "pitch": 82, "duration": 6, "velocity": 113}, {"time": 1495, "pitch": 79, "duration": 24, "velocity": 116}, {"time": 1519, "pitch": 84, "duration": 6, "velocity": 110}, {"time": 1525, "pitch": 86, "duration": 6, "velocity": 110}, {"time": 1531, "pitch": 84, "duration": 6, "velocity": 100}, {"time": 1537, "pitch": 82, "duration": 6, "velocity": 108}, {"time": 1543, "pitch": 79, "duration": 6, "velocity": 114}, {"time": 1549, "pitch": 77, "duration": 6, "velocity": 100}, {"time": 1555, "pitch": 79, "duration": 6, "velocity": 113}, {"time": 1561, "pitch": 82, "duration": 6, "velocity": 114}, {"time": 1567, "pitch": 79, "duration": 24, "velocity": 113}, {"time": 1591, "pitch": 77, "duration": 6, "velocity": 113}, {"time": 1597, "pitch": 79, "duration": 7, "velocity": 104}, {"time": 1603, "pitch": 77, "duration": 6, "velocity": 102}, {"time": 1609, "pitch": 75, "duration": 6, "velocity": 108}, {"time": 1615, "pitch": 72, "duration": 6, "velocity": 108}, {"time": 1621, "pitch": 75, "duration": 6, "velocity": 100}, {"time": 1627, "pitch": 77, "duration": 6, "velocity": 91}, {"time": 1633, "pitch": 79, "duration": 6, "velocity": 100}, {"time": 1639, "pitch": 82, "duration": 24, "velocity": 110}, {"time": 1663, "pitch": 77, "duration": 6, "velocity": 116}, {"time": 1669, "pitch": 79, "duration": 6, "velocity": 114}, {"time": 1675, "pitch": 77, "duration": 6, "velocity": 113}, {"time": 1681, "pitch": 75, "duration": 6, "velocity": 110}, {"time": 1687, "pitch": 72, "duration": 6, "velocity": 107}, {"time": 1693, "pitch": 70, "duration": 6, "velocity": 107}, {"time": 1699, "pitch": 72, "duration": 24, "velocity": 108}, {"time": 2425, "pitch": 75, "duration": 6, "velocity": 114}, {"time": 2431, "pitch": 77, "duration": 6, "velocity": 116}, {"time": 2437, "pitch": 75, "duration": 6, "velocity": 114}, {"time": 2443, "pitch": 74, "duration": 6, "velocity": 114}, {"time": 2449, "pitch": 72, "duration": 6, "velocity": 116}, {"time": 2455, "pitch": 72, "duration": 6, "velocity": 108}, {"time": 2461, "pitch": 74, "duration": 6, "velocity": 107}, {"time": 2467, "pitch": 70, "duration": 30, "velocity": 102}, {"time": 2497, "pitch": 72, "duration": 6, "velocity": 113}, {"time": 2503, "pitch": 72, "duration": 6, "velocity": 107}, {"time": 2509, "pitch": 74, "duration": 6, "velocity": 113}, {"time": 2515, "pitch": 75, "duration": 6, "velocity": 114}, {"time": 2521, "pitch": 77, "duration": 6, "velocity": 104}, {"time": 2527, "pitch": 77, "duration": 6, "velocity": 113}, {"time": 2533, "pitch": 79, "duration": 6, "velocity": 116}, {"time": 2539, "pitch": 79, "duration": 30, "velocity": 119}, {"time": 2569, "pitch": 77, "duration": 6, "velocity": 113}, {"time": 2575, "pitch": 77, "duration": 6, "velocity": 114}, {"time": 2581, "pitch": 79, "duration": 6, "velocity": 114}, {"time": 2587, "pitch": 72, "duration": 18, "velocity": 116}, {"time": 2605, "pitch": 72, "duration": 6, "velocity": 116}, {"time": 2611, "pitch": 72, "duration": 6, "velocity": 113}, {"time": 2617, "pitch": 74, "duration": 6, "velocity": 113}, {"time": 2623, "pitch": 70, "duration": 18, "velocity": 108}, {"time": 2641, "pitch": 72, "duration": 6, "velocity": 104}, {"time": 2647, "pitch": 72, "duration": 6, "velocity": 113}, {"time": 2653, "pitch": 74, "duration": 6, "velocity": 108}, {"time": 2659, "pitch": 72, "duration": 6, "velocity": 108}, {"time": 2665, "pitch": 70, "duration": 6, "velocity": 107}, {"time": 2671, "pitch": 67, "duration": 42, "velocity": 107}, {"time": 2713, "pitch": 75, "duration": 6, "velocity": 114}, {"time": 2719, "pitch": 77, "duration": 6, "velocity": 116}, {"time": 2725, "pitch": 75, "duration": 6, "velocity": 114}, {"time": 2731, "pitch": 74, "duration": 6, "velocity": 114}, {"time": 2737, "pitch": 72, "duration": 6, "velocity": 116}, {"time": 2743, "pitch": 72, "duration": 6, "velocity": 108}, {"time": 2749, "pitch": 74, "duration": 6, "velocity": 107}, {"time": 2755, "pitch": 70, "duration": 30, "velocity": 102}, {"time": 2785, "pitch": 72, "duration": 6, "velocity": 113}, {"time": 2791, "pitch": 72, "duration": 6, "velocity": 107}, {"time": 2797, "pitch": 74, "duration": 6, "velocity": 113}, {"time": 2803, "pitch": 75, "duration": 6, "velocity": 114}, {"time": 2809, "pitch": 77, "duration": 6, "velocity": 104}, {"time": 2815, "pitch": 77, "duration": 6, "velocity": 113}, {"time": 2821, "pitch": 79, "duration": 6, "velocity": 116}, {"time": 2827, "pitch": 79, "duration": 30, "velocity": 119}, {"time": 2857, "pitch": 77, "duration": 6, "velocity": 113}, {"time": 2863, "pitch": 77, "duration": 6, "velocity": 114}, {"time": 2869, "pitch": 79, "duration": 6, "velocity": 114}, {"time": 2875, "pitch": 72, "duration": 18, "velocity": 116}, {"time": 2893, "pitch": 72, "duration": 6, "velocity": 116}, {"time": 2899, "pitch": 72, "duration": 6, "velocity": 113}, {"time": 2905, "pitch": 74, "duration": 6, "velocity": 113}, {"time": 2911, "pitch": 70, "duration": 12, "velocity": 108}, {"time": 2923, "pitch": 72, "duration": 12, "velocity": 110}, {"time": 2935, "pitch": 72, "duration": 12, "velocity": 113}, {"time": 2947, "pitch": 70, "duration": 12, "velocity": 114}, {"time": 2959, "pitch": 72, "duration": 42, "velocity": 116}, {"time": 3001, "pitch": 79, "duration": 6, "velocity": 119}, {"time": 3007, "pitch": 79, "duration": 6, "velocity": 120}, {"time": 3013, "pitch": 77, "duration": 6, "velocity": 114}, {"time": 3019, "pitch": 77, "duration": 6, "velocity": 116}, {"time": 3025, "pitch": 75, "duration": 6, "velocity": 117}, {"time": 3031, "pitch": 75, "duration": 6, "velocity": 117}, {"time": 3037, "pitch": 74, "duration": 6, "velocity": 113}, {"time": 3043, "pitch": 74, "duration": 30, "velocity": 116}, {"time": 3073, "pitch": 77, "duration": 6, "velocity": 116}, {"time": 3079, "pitch": 77, "duration": 6, "velocity": 114}, {"time": 3085, "pitch": 75, "duration": 6, "velocity": 114}, {"time": 3091, "pitch": 75, "duration": 6, "velocity": 117}, {"time": 3097, "pitch": 74, "duration": 6, "velocity": 114}, {"time": 3103, "pitch": 74, "duration": 6, "velocity": 116}, {"time": 3109, "pitch": 75, "duration": 6, "velocity": 113}, {"time": 3115, "pitch": 79, "duration": 24, "velocity": 117}, {"time": 3139, "pitch": 77, "duration": 12, "velocity": 117}, {"time": 3151, "pitch": 72, "duration": 12, "velocity": 117}, {"time": 3163, "pitch": 77, "duration": 12, "velocity": 119}, {"time": 3175, "pitch": 79, "duration": 24, "velocity": 120}, {"time": 3199, "pitch": 77, "duration": 6, "velocity": 114}, {"time": 3205, "pitch": 79, "duration": 6, "velocity": 117}, {"time": 3211, "pitch": 80, "duration": 12, "velocity": 119}, {"time": 3223, "pitch": 79, "duration": 24, "velocity": 120}, {"time": 3271, "pitch": 72, "duration": 6, "velocity": 113}, {"time": 3277, "pitch": 74, "duration": 6, "velocity": 108}, {"time": 3283, "pitch": 75, "duration": 6, "velocity": 110}, {"time": 3289, "pitch": 77, "duration": 7, "velocity": 107}, {"time": 3295, "pitch": 79, "duration": 6, "velocity": 110}, {"time": 3301, "pitch": 82, "duration": 6, "velocity": 108}, {"time": 3307, "pitch": 84, "duration": 6, "velocity": 108}, {"time": 3313, "pitch": 86, "duration": 6, "velocity": 107}, {"time": 3319, "pitch": 84, "duration": 6, "velocity": 114}, {"time": 3325, "pitch": 82, "duration": 6, "velocity": 113}, {"time": 3331, "pitch": 79, "duration": 24, "velocity": 116}, {"time": 3355, "pitch": 84, "duration": 6, "velocity": 110}, {"time": 3361, "pitch": 86, "duration": 6, "velocity": 110}, {"time": 3367, "pitch": 84, "duration": 6, "velocity": 100}, {"time": 3373, "pitch": 82, "duration": 6, "velocity": 108}, {"time": 3379, "pitch": 79, "duration": 6, "velocity": 114}, {"time": 3385, "pitch": 77, "duration": 6, "velocity": 100}, {"time": 3391, "pitch": 79, "duration": 6, "velocity": 113}, {"time": 3397, "pitch": 82, "duration": 6, "velocity": 114}, {"time": 3403, "pitch": 79, "duration": 24, "velocity": 113}, {"time": 3427, "pitch": 77, "duration": 6, "velocity": 113}, {"time": 3433, "pitch": 79, "duration": 7, "velocity": 104}, {"time": 3439, "pitch": 77, "duration": 6, "velocity": 102}, {"time": 3445, "pitch": 75, "duration": 6, "velocity": 108}, {"time": 3451, "pitch": 72, "duration": 6, "velocity": 108}, {"time": 3457, "pitch": 75, "duration": 6, "velocity": 100}, {"time": 3463, "pitch": 77, "duration": 6, "velocity": 91}, {"time": 3469, "pitch": 79, "duration": 6, "velocity": 100}, {"time": 3475, "pitch": 82, "duration": 24, "velocity": 110}, {"time": 3499, "pitch": 77, "duration": 6, "velocity": 116}, {"time": 3505, "pitch": 79, "duration": 6, "velocity": 114}, {"time": 3511, "pitch": 77, "duration": 6, "velocity": 113}, {"time": 3517, "pitch": 75, "duration": 6, "velocity": 110}, {"time": 3523, "pitch": 72, "duration": 6, "velocity": 107}, {"time": 3529, "pitch": 75, "duration": 6, "velocity": 91}, {"time": 3535, "pitch": 74, "duration": 6, "velocity": 110}, {"time": 3541, "pitch": 72, "duration": 6, "velocity": 100}, {"time": 3547, "pitch": 74, "duration": 18, "velocity": 107}, {"time": 3565, "pitch": 74, "duration": 6, "velocity": 108}, {"time": 3571, "pitch": 75, "duration": 6, "velocity": 110}, {"time": 3577, "pitch": 77, "duration": 7, "velocity": 107}, {"time": 3583, "pitch": 79, "duration": 6, "velocity": 110}, {"time": 3589, "pitch": 82, "duration": 6, "velocity": 108}, {"time": 3595, "pitch": 84, "duration": 6, "velocity": 108}, {"time": 3601, "pitch": 86, "duration": 6, "velocity": 107}, {"time": 3607, "pitch": 84, "duration": 6, "velocity": 114}, {"time": 3613, "pitch": 82, "duration": 6, "velocity": 113}, {"time": 3619, "pitch": 79, "duration": 24, "velocity": 116}, {"time": 3643, "pitch": 84, "duration": 6, "velocity": 110}, {"time": 3649, "pitch": 86, "duration": 6, "velocity": 110}, {"time": 3655, "pitch": 84, "duration": 6, "velocity": 100}, {"time": 3661, "pitch": 82, "duration": 6, "velocity": 108}, {"time": 3667, "pitch": 79, "duration": 6, "velocity": 114}, {"time": 3673, "pitch": 77, "duration": 6, "velocity": 100}, {"time": 3679, "pitch": 79, "duration": 6, "velocity": 113}, {"time": 3685, "pitch": 82, "duration": 6, "velocity": 114}, {"time": 3691, "pitch": 79, "duration": 24, "velocity": 113}, {"time": 3715, "pitch": 77, "duration": 6, "velocity": 113}, {"time": 3721, "pitch": 79, "duration": 7, "velocity": 104}, {"time": 3727, "pitch": 77, "duration": 6, "velocity": 102}, {"time": 3733, "pitch": 75, "duration": 6, "velocity": 108}, {"time": 3739, "pitch": 72, "duration": 6, "velocity": 108}, {"time": 3745, "pitch": 75, "duration": 6, "velocity": 100}, {"time": 3751, "pitch": 77, "duration": 6, "velocity": 91}, {"time": 3757, "pitch": 79, "duration": 6, "velocity": 100}, {"time": 3763, "pitch": 82, "duration": 24, "velocity": 110}, {"time": 3787, "pitch": 77, "duration": 6, "velocity": 116}, {"time": 3793, "pitch": 79, "duration": 6, "velocity": 114}, {"time": 3799, "pitch": 77, "duration": 6, "velocity": 113}, {"time": 3805, "pitch": 75, "duration": 6, "velocity": 110}, {"time": 3811, "pitch": 72, "duration": 6, "velocity": 107}, {"time": 3817, "pitch": 70, "duration": 6, "velocity": 107}, {"time": 3823, "pitch": 72, "duration": 24, "velocity": 108}, {"time": 3919, "pitch": 73, "duration": 6, "velocity": 113}, {"time": 3925, "pitch": 75, "duration": 6, "velocity": 108}, {"time": 3931, "pitch": 76, "duration": 6, "velocity": 110}, {"time": 3937, "pitch": 78, "duration": 7, "velocity": 107}, {"time": 3943, "pitch": 80, "duration": 6, "velocity": 110}, {"time": 3949, "pitch": 83, "duration": 6, "velocity": 108}, {"time": 3955, "pitch": 85, "duration": 6, "velocity": 108}, {"time": 3961, "pitch": 87, "duration": 6, "velocity": 107}, {"time": 3967, "pitch": 85, "duration": 6, "velocity": 114}, {"time": 3973, "pitch": 83, "duration": 6, "velocity": 113}, {"time": 3979, "pitch": 80, "duration": 24, "velocity": 116}, {"time": 4003, "pitch": 85, "duration": 6, "velocity": 110}, {"time": 4009, "pitch": 87, "duration": 6, "velocity": 110}, {"time": 4015, "pitch": 85, "duration": 6, "velocity": 100}, {"time": 4021, "pitch": 83, "duration": 6, "velocity": 108}, {"time": 4027, "pitch": 80, "duration": 6, "velocity": 114}, {"time": 4033, "pitch": 78, "duration": 6, "velocity": 100}, {"time": 4039, "pitch": 80, "duration": 6, "velocity": 113}, {"time": 4045, "pitch": 83, "duration": 6, "velocity": 114}, {"time": 4051, "pitch": 80, "duration": 24, "velocity": 113}, {"time": 4075, "pitch": 78, "duration": 6, "velocity": 113}, {"time": 4081, "pitch": 80, "duration": 7, "velocity": 104}, {"time": 4087, "pitch": 78, "duration": 6, "velocity": 102}, {"time": 4093, "pitch": 76, "duration": 6, "velocity": 108}, {"time": 4099, "pitch": 73, "duration": 6, "velocity": 108}, {"time": 4105, "pitch": 76, "duration": 6, "velocity": 100}, {"time": 4111, "pitch": 78, "duration": 6, "velocity": 91}, {"time": 4117, "pitch": 80, "duration": 6, "velocity": 100}, {"time": 4123, "pitch": 83, "duration": 24, "velocity": 110}, {"time": 4147, "pitch": 78, "duration": 6, "velocity": 116}, {"time": 4153, "pitch": 80, "duration": 6, "velocity": 114}, {"time": 4159, "pitch": 78, "duration": 6, "velocity": 113}, {"time": 4165, "pitch": 76, "duration": 6, "velocity": 110}, {"time": 4171, "pitch": 73, "duration": 6, "velocity": 107}, {"time": 4177, "pitch": 76, "duration": 6, "velocity": 91}, {"time": 4183, "pitch": 75, "duration": 6, "velocity": 110}, {"time": 4189, "pitch": 73, "duration": 6, "velocity": 100}, {"time": 4195, "pitch": 75, "duration": 18, "velocity": 107}, {"time": 4213, "pitch": 75, "duration": 6, "velocity": 108}, {"time": 4219, "pitch": 76, "duration": 6, "velocity": 110}, {"time": 4225, "pitch": 78, "duration": 7, "velocity": 107}, {"time": 4231, "pitch": 80, "duration": 6, "velocity": 110}, {"time": 4237, "pitch": 83, "duration": 6, "velocity": 108}, {"time": 4243, "pitch": 85, "duration": 6, "velocity": 108}, {"time": 4249, "pitch": 87, "duration": 6, "velocity": 107}, {"time": 4255, "pitch": 85, "duration": 6, "velocity": 114}, {"time": 4261, "pitch": 83, "duration": 6, "velocity": 113}, {"time": 4267, "pitch": 80, "duration": 24, "velocity": 116}, {"time": 4291, "pitch": 85, "duration": 6, "velocity": 110}, {"time": 4297, "pitch": 87, "duration": 6, "velocity": 110}, {"time": 4303, "pitch": 85, "duration": 6, "velocity": 100}, {"time": 4309, "pitch": 83, "duration": 6, "velocity": 108}, {"time": 4315, "pitch": 80, "duration": 6, "velocity": 114}, {"time": 4321, "pitch": 78, "duration": 6, "velocity": 100}, {"time": 4327, "pitch": 80, "duration": 6, "velocity": 113}, {"time": 4333, "pitch": 83, "duration": 6, "velocity": 114}, {"time": 4339, "pitch": 80, "duration": 24, "velocity": 113}, {"time": 4363, "pitch": 78, "duration": 6, "velocity": 113}, {"time": 4369, "pitch": 80, "duration": 7, "velocity": 104}, {"time": 4375, "pitch": 78, "duration": 6, "velocity": 102}, {"time": 4381, "pitch": 76, "duration": 6, "velocity": 108}, {"time": 4387, "pitch": 73, "duration": 6, "velocity": 108}, {"time": 4393, "pitch": 76, "duration": 6, "velocity": 100}, {"time": 4399, "pitch": 78, "duration": 6, "velocity": 91}, {"time": 4405, "pitch": 80, "duration": 6, "velocity": 100}, {"time": 4411, "pitch": 83, "duration": 24, "velocity": 110}, {"time": 4435, "pitch": 78, "duration": 6, "velocity": 116}, {"time": 4441, "pitch": 80, "duration": 6, "velocity": 114}, {"time": 4447, "pitch": 78, "duration": 6, "velocity": 113}, {"time": 4453, "pitch": 76, "duration": 6, "velocity": 110}, {"time": 4459, "pitch": 73, "duration": 12, "velocity": 107}, {"time": 4471, "pitch": 71, "duration": 6, "velocity": 107}, {"time": 4477, "pitch": 73, "duration": 18, "velocity": 108}]}, {"program": 0, "is_drum": false, "name": "PIANO", "notes": [{"time": 7, "pitch": 48, "duration": 20, "velocity": 88}, {"time": 13, "pitch": 55, "duration": 31, "velocity": 75}, {"time": 19, "pitch": 60, "duration": 19, "velocity": 79}, {"time": 25, "pitch": 62, "duration": 8, "velocity": 76}, {"time": 31, "pitch": 63, "duration": 15, "velocity": 81}, {"time": 43, "pitch": 48, "duration": 31, "velocity": 78}, {"time": 49, "pitch": 55, "duration": 24, "velocity": 70}, {"time": 55, "pitch": 60, "duration": 17, "velocity": 85}, {"time": 61, "pitch": 62, "duration": 8, "velocity": 78}, {"time": 67, "pitch": 63, "duration": 14, "velocity": 88}, {"time": 79, "pitch": 44, "duration": 28, "velocity": 79}, {"time": 85, "pitch": 51, "duration": 22, "velocity": 61}, {"time": 91, "pitch": 56, "duration": 17, "velocity": 76}, {"time": 97, "pitch": 58, "duration": 6, "velocity": 64}, {"time": 103, "pitch": 60, "duration": 13, "velocity": 84}, {"time": 115, "pitch": 44, "duration": 28, "velocity": 75}, {"time": 121, "pitch": 51, "duration": 22, "velocity": 44}, {"time": 127, "pitch": 56, "duration": 18, "velocity": 78}, {"time": 133, "pitch": 60, "duration": 8, "velocity": 84}, {"time": 139, "pitch": 62, "duration": 13, "velocity": 85}, {"time": 151, "pitch": 48, "duration": 31, "velocity": 86}, {"time": 157, "pitch": 55, "duration": 21, "velocity": 80}, {"time": 163, "pitch": 60, "duration": 17, "velocity": 86}, {"time": 169, "pitch": 62, "duration": 7, "velocity": 76}, {"time": 175, "pitch": 63, "duration": 15, "velocity": 88}, {"time": 187, "pitch": 48, "duration": 28, "velocity": 77}, {"time": 193, "pitch": 55, "duration": 21, "velocity": 78}, {"time": 199, "pitch": 60, "duration": 13, "velocity": 87}, {"time": 205, "pitch": 62, "duration": 7, "velocity": 82}, {"time": 211, "pitch": 63, "duration": 15, "velocity": 92}, {"time": 223, "pitch": 44, "duration": 28, "velocity": 82}, {"time": 229, "pitch": 51, "duration": 20, "velocity": 74}, {"time": 235, "pitch": 56, "duration": 13, "velocity": 81}, {"time": 247, "pitch": 60, "duration": 13, "velocity": 69}, {"time": 259, "pitch": 44, "duration": 33, "velocity": 84}, {"time": 265, "pitch": 51, "duration": 27, "velocity": 68}, {"time": 271, "pitch": 56, "duration": 21, "velocity": 82}, {"time": 277, "pitch": 60, "duration": 16, "velocity": 76}, {"time": 283, "pitch": 67, "duration": 11, "velocity": 80}, {"time": 295, "pitch": 48, "duration": 30, "velocity": 80}, {"time": 301, "pitch": 55, "duration": 24, "velocity": 78}, {"time": 307, "pitch": 60, "duration": 14, "velocity": 82}, {"time": 313, "pitch": 62, "duration": 8, "velocity": 80}, {"time": 319, "pitch": 63, "duration": 12, "velocity": 84}, {"time": 331, "pitch": 46, "duration": 26, "velocity": 76}, {"time": 337, "pitch": 55, "duration": 20, "velocity": 73}, {"time": 343, "pitch": 58, "duration": 12, "velocity": 84}, {"time": 349, "pitch": 62, "duration": 7, "velocity": 83}, {"time": 355, "pitch": 63, "duration": 7, "velocity": 88}, {"time": 361, "pitch": 65, "duration": 9, "velocity": 85}, {"time": 367, "pitch": 44, "duration": 18, "velocity": 84}, {"time": 373, "pitch": 51, "duration": 15, "velocity": 72}, {"time": 379, "pitch": 56, "duration": 7, "velocity": 81}, {"time": 385, "pitch": 60, "duration": 5, "velocity": 81}, {"time": 391, "pitch": 46, "duration": 7, "velocity": 85}, {"time": 397, "pitch": 58, "duration": 7, "velocity": 79}, {"time": 403, "pitch": 39, "duration": 24, "velocity": 88}, {"time": 409, "pitch": 46, "duration": 19, "velocity": 83}, {"time": 415, "pitch": 51, "duration": 13, "velocity": 82}, {"time": 421, "pitch": 53, "duration": 9, "velocity": 67}, {"time": 427, "pitch": 55, "duration": 11, "velocity": 64}, {"time": 439, "pitch": 41, "duration": 24, "velocity": 86}, {"time": 445, "pitch": 48, "duration": 19, "velocity": 83}, {"time": 451, "pitch": 53, "duration": 12, "velocity": 80}, {"time": 457, "pitch": 56, "duration": 15, "velocity": 80}, {"time": 463, "pitch": 60, "duration": 12, "velocity": 84}, {"time": 469, "pitch": 65, "duration": 7, "velocity": 84}, {"time": 475, "pitch": 43, "duration": 27, "velocity": 79}, {"time": 481, "pitch": 50, "duration": 21, "velocity": 79}, {"time": 487, "pitch": 55, "duration": 14, "velocity": 84}, {"time": 493, "pitch": 58, "duration": 8, "velocity": 77}, {"time": 499, "pitch": 62, "duration": 11, "velocity": 83}, {"time": 511, "pitch": 44, "duration": 25, "velocity": 83}, {"time": 517, "pitch": 51, "duration": 18, "velocity": 73}, {"time": 523, "pitch": 56, "duration": 11, "velocity": 77}, {"time": 529, "pitch": 60, "duration": 8, "velocity": 77}, {"time": 535, "pitch": 63, "duration": 13, "velocity": 81}, {"time": 547, "pitch": 43, "duration": 25, "velocity": 79}, {"time": 553, "pitch": 50, "duration": 19, "velocity": 72}, {"time": 559, "pitch": 55, "duration": 24, "velocity": 84}, {"time": 571, "pitch": 58, "duration": 10, "velocity": 82}, {"time": 583, "pitch": 48, "duration": 27, "velocity": 77}, {"time": 589, "pitch": 55, "duration": 30, "velocity": 85}, {"time": 595, "pitch": 60, "duration": 11, "velocity": 83}, {"time": 601, "pitch": 62, "duration": 7, "velocity": 76}, {"time": 607, "pitch": 63, "duration": 7, "velocity": 83}, {"time": 613, "pitch": 67, "duration": 10, "velocity": 84}, {"time": 619, "pitch": 46, "duration": 24, "velocity": 86}, {"time": 625, "pitch": 53, "duration": 19, "velocity": 72}, {"time": 631, "pitch": 58, "duration": 12, "velocity": 81}, {"time": 637, "pitch": 60, "duration": 5, "velocity": 84}, {"time": 643, "pitch": 65, "duration": 13, "velocity": 83}, {"time": 649, "pitch": 60, "duration": 8, "velocity": 75}, {"time": 655, "pitch": 44, "duration": 20, "velocity": 84}, {"time": 661, "pitch": 51, "duration": 14, "velocity": 72}, {"time": 667, "pitch": 56, "duration": 8, "velocity": 79}, {"time": 673, "pitch": 60, "duration": 7, "velocity": 80}, {"time": 679, "pitch": 46, "duration": 6, "velocity": 83}, {"time": 685, "pitch": 60, "duration": 9, "velocity": 83}, {"time": 691, "pitch": 39, "duration": 27, "velocity": 87}, {"time": 697, "pitch": 51, "duration": 15, "velocity": 84}, {"time": 703, "pitch": 55, "duration": 8, "velocity": 80}, {"time": 709, "pitch": 63, "duration": 15, "velocity": 91}, {"time": 715, "pitch": 51, "duration": 5, "velocity": 87}, {"time": 721, "pitch": 58, "duration": 6, "velocity": 81}, {"time": 727, "pitch": 41, "duration": 25, "velocity": 84}, {"time": 733, "pitch": 53, "duration": 21, "velocity": 83}, {"time": 739, "pitch": 56, "duration": 14, "velocity": 84}, {"time": 745, "pitch": 65, "duration": 17, "velocity": 88}, {"time": 751, "pitch": 60, "duration": 10, "velocity": 78}, {"time": 757, "pitch": 56, "duration": 3, "velocity": 78}, {"time": 763, "pitch": 43, "duration": 27, "velocity": 87}, {"time": 769, "pitch": 50, "duration": 22, "velocity": 82}, {"time": 775, "pitch": 55, "duration": 15, "velocity": 84}, {"time": 781, "pitch": 58, "duration": 6, "velocity": 80}, {"time": 787, "pitch": 62, "duration": 9, "velocity": 88}, {"time": 793, "pitch": 67, "duration": 6, "velocity": 86}, {"time": 799, "pitch": 44, "duration": 17, "velocity": 86}, {"time": 805, "pitch": 51, "duration": 18, "velocity": 77}, {"time": 811, "pitch": 56, "duration": 5, "velocity": 81}, {"time": 817, "pitch": 60, "duration": 6, "velocity": 83}, {"time": 823, "pitch": 43, "duration": 6, "velocity": 82}, {"time": 829, "pitch": 58, "duration": 6, "velocity": 79}, {"time": 835, "pitch": 48, "duration": 12, "velocity": 86}, {"time": 841, "pitch": 55, "duration": 6, "velocity": 69}, {"time": 847, "pitch": 60, "duration": 7, "velocity": 82}, {"time": 853, "pitch": 63, "duration": 7, "velocity": 74}, {"time": 859, "pitch": 79, "duration": 11, "velocity": 102}, {"time": 871, "pitch": 44, "duration": 31, "velocity": 81}, {"time": 877, "pitch": 51, "duration": 25, "velocity": 71}, {"time": 883, "pitch": 56, "duration": 19, "velocity": 78}, {"time": 889, "pitch": 60, "duration": 9, "velocity": 78}, {"time": 895, "pitch": 63, "duration": 16, "velocity": 80}, {"time": 901, "pitch": 60, "duration": 10, "velocity": 80}, {"time": 907, "pitch": 44, "duration": 28, "velocity": 81}, {"time": 913, "pitch": 53, "duration": 20, "velocity": 76}, {"time": 919, "pitch": 58, "duration": 24, "velocity": 72}, {"time": 931, "pitch": 62, "duration": 13, "velocity": 86}, {"time": 943, "pitch": 43, "duration": 30, "velocity": 78}, {"time": 949, "pitch": 50, "duration": 24, "velocity": 60}, {"time": 955, "pitch": 55, "duration": 25, "velocity": 76}, {"time": 961, "pitch": 58, "duration": 10, "velocity": 74}, {"time": 967, "pitch": 62, "duration": 14, "velocity": 88}, {"time": 973, "pitch": 67, "duration": 8, "velocity": 82}, {"time": 979, "pitch": 48, "duration": 30, "velocity": 86}, {"time": 985, "pitch": 55, "duration": 24, "velocity": 80}, {"time": 991, "pitch": 60, "duration": 9, "velocity": 78}, {"time": 997, "pitch": 67, "duration": 6, "velocity": 91}, {"time": 1003, "pitch": 62, "duration": 8, "velocity": 91}, {"time": 1009, "pitch": 63, "duration": 13, "velocity": 110}, {"time": 1015, "pitch": 41, "duration": 30, "velocity": 85}, {"time": 1021, "pitch": 48, "duration": 27, "velocity": 76}, {"time": 1027, "pitch": 53, "duration": 19, "velocity": 84}, {"time": 1033, "pitch": 56, "duration": 20, "velocity": 80}, {"time": 1039, "pitch": 60, "duration": 14, "velocity": 84}, {"time": 1045, "pitch": 65, "duration": 8, "velocity": 84}, {"time": 1051, "pitch": 41, "duration": 29, "velocity": 76}, {"time": 1057, "pitch": 48, "duration": 24, "velocity": 80}, {"time": 1063, "pitch": 53, "duration": 18, "velocity": 84}, {"time": 1069, "pitch": 56, "duration": 19, "velocity": 80}, {"time": 1075, "pitch": 60, "duration": 14, "velocity": 87}, {"time": 1078, "pitch": 65, "duration": 8, "velocity": 87}, {"time": 1087, "pitch": 43, "duration": 33, "velocity": 92}, {"time": 1093, "pitch": 50, "duration": 31, "velocity": 86}, {"time": 1099, "pitch": 55, "duration": 8, "velocity": 98}, {"time": 1105, "pitch": 60, "duration": 6, "velocity": 113}, {"time": 1111, "pitch": 62, "duration": 7, "velocity": 119}, {"time": 1117, "pitch": 55, "duration": 6, "velocity": 86}, {"time": 1123, "pitch": 43, "duration": 21, "velocity": 87}, {"time": 1123, "pitch": 59, "duration": 12, "velocity": 97}, {"time": 1123, "pitch": 67, "duration": 12, "velocity": 108}, {"time": 1129, "pitch": 50, "duration": 14, "velocity": 81}, {"time": 1135, "pitch": 55, "duration": 8, "velocity": 113}, {"time": 1141, "pitch": 59, "duration": 11, "velocity": 116}, {"time": 1141, "pitch": 67, "duration": 10, "velocity": 110}, {"time": 1147, "pitch": 43, "duration": 6, "velocity": 110}, {"time": 1153, "pitch": 62, "duration": 6, "velocity": 102}, {"time": 1153, "pitch": 67, "duration": 5, "velocity": 91}, {"time": 1159, "pitch": 48, "duration": 31, "velocity": 102}, {"time": 1159, "pitch": 60, "duration": 5, "velocity": 98}, {"time": 1159, "pitch": 63, "duration": 15, "velocity": 114}, {"time": 1159, "pitch": 67, "duration": 13, "velocity": 88}, {"time": 1165, "pitch": 55, "duration": 25, "velocity": 86}, {"time": 1171, "pitch": 60, "duration": 15, "velocity": 98}, {"time": 1177, "pitch": 62, "duration": 7, "velocity": 113}, {"time": 1177, "pitch": 67, "duration": 6, "velocity": 96}, {"time": 1183, "pitch": 63, "duration": 14, "velocity": 110}, {"time": 1186, "pitch": 67, "duration": 11, "velocity": 107}, {"time": 1195, "pitch": 46, "duration": 28, "velocity": 102}, {"time": 1201, "pitch": 55, "duration": 23, "velocity": 81}, {"time": 1207, "pitch": 58, "duration": 14, "velocity": 90}, {"time": 1213, "pitch": 62, "duration": 5, "velocity": 98}, {"time": 1219, "pitch": 62, "duration": 13, "velocity": 88}, {"time": 1219, "pitch": 70, "duration": 14, "velocity": 116}, {"time": 1225, "pitch": 46, "duration": 2, "velocity": 87}, {"time": 1225, "pitch": 65, "duration": 6, "velocity": 98}, {"time": 1231, "pitch": 44, "duration": 28, "velocity": 93}, {"time": 1237, "pitch": 51, "duration": 22, "velocity": 81}, {"time": 1243, "pitch": 56, "duration": 14, "velocity": 90}, {"time": 1249, "pitch": 60, "duration": 4, "velocity": 88}, {"time": 1255, "pitch": 63, "duration": 12, "velocity": 117}, {"time": 1255, "pitch": 68, "duration": 12, "velocity": 119}, {"time": 1261, "pitch": 44, "duration": 2, "velocity": 87}, {"time": 1261, "pitch": 60, "duration": 7, "velocity": 89}, {"time": 1267, "pitch": 39, "duration": 31, "velocity": 102}, {"time": 1273, "pitch": 46, "duration": 31, "velocity": 84}, {"time": 1279, "pitch": 51, "duration": 25, "velocity": 93}, {"time": 1285, "pitch": 55, "duration": 5, "velocity": 88}, {"time": 1291, "pitch": 58, "duration": 11, "velocity": 117}, {"time": 1297, "pitch": 63, "duration": 7, "velocity": 113}, {"time": 1303, "pitch": 41, "duration": 29, "velocity": 87}, {"time": 1309, "pitch": 48, "duration": 22, "velocity": 86}, {"time": 1315, "pitch": 53, "duration": 14, "velocity": 108}, {"time": 1321, "pitch": 56, "duration": 17, "velocity": 106}, {"time": 1327, "pitch": 60, "duration": 12, "velocity": 90}, {"time": 1333, "pitch": 65, "duration": 7, "velocity": 90}, {"time": 1339, "pitch": 43, "duration": 29, "velocity": 93}, {"time": 1345, "pitch": 50, "duration": 24, "velocity": 82}, {"time": 1351, "pitch": 55, "duration": 17, "velocity": 102}, {"time": 1357, "pitch": 58, "duration": 4, "velocity": 89}, {"time": 1363, "pitch": 62, "duration": 16, "velocity": 119}, {"time": 1363, "pitch": 67, "duration": 13, "velocity": 116}, {"time": 1369, "pitch": 58, "duration": 8, "velocity": 96}, {"time": 1375, "pitch": 44, "duration": 30, "velocity": 97}, {"time": 1381, "pitch": 51, "duration": 24, "velocity": 82}, {"time": 1387, "pitch": 56, "duration": 16, "velocity": 89}, {"time": 1393, "pitch": 60, "duration": 6, "velocity": 102}, {"time": 1399, "pitch": 60, "duration": 1, "velocity": 85}, {"time": 1399, "pitch": 63, "duration": 13, "velocity": 119}, {"time": 1399, "pitch": 67, "duration": 13, "velocity": 110}, {"time": 1405, "pitch": 60, "duration": 7, "velocity": 108}, {"time": 1411, "pitch": 43, "duration": 30, "velocity": 86}, {"time": 1417, "pitch": 51, "duration": 25, "velocity": 83}, {"time": 1423, "pitch": 55, "duration": 15, "velocity": 90}, {"time": 1429, "pitch": 59, "duration": 7, "velocity": 116}, {"time": 1435, "pitch": 62, "duration": 6, "velocity": 119}, {"time": 1435, "pitch": 67, "duration": 13, "velocity": 116}, {"time": 1441, "pitch": 59, "duration": 6, "velocity": 100}, {"time": 1447, "pitch": 48, "duration": 31, "velocity": 94}, {"time": 1453, "pitch": 55, "duration": 32, "velocity": 83}, {"time": 1459, "pitch": 60, "duration": 14, "velocity": 100}, {"time": 1465, "pitch": 62, "duration": 6, "velocity": 90}, {"time": 1471, "pitch": 63, "duration": 12, "velocity": 116}, {"time": 1477, "pitch": 67, "duration": 8, "velocity": 102}, {"time": 1483, "pitch": 46, "duration": 28, "velocity": 86}, {"time": 1483, "pitch": 65, "duration": 14, "velocity": 104}, {"time": 1489, "pitch": 55, "duration": 21, "velocity": 78}, {"time": 1495, "pitch": 58, "duration": 14, "velocity": 81}, {"time": 1501, "pitch": 60, "duration": 5, "velocity": 91}, {"time": 1507, "pitch": 65, "duration": 6, "velocity": 119}, {"time": 1513, "pitch": 60, "duration": 5, "velocity": 89}, {"time": 1519, "pitch": 44, "duration": 29, "velocity": 84}, {"time": 1519, "pitch": 60, "duration": 14, "velocity": 93}, {"time": 1519, "pitch": 63, "duration": 14, "velocity": 102}, {"time": 1519, "pitch": 67, "duration": 13, "velocity": 94}, {"time": 1525, "pitch": 51, "duration": 21, "velocity": 71}, {"time": 1531, "pitch": 56, "duration": 14, "velocity": 83}, {"time": 1537, "pitch": 60, "duration": 3, "velocity": 86}, {"time": 1543, "pitch": 63, "duration": 18, "velocity": 108}, {"time": 1543, "pitch": 67, "duration": 18, "velocity": 107}, {"time": 1549, "pitch": 60, "duration": 10, "velocity": 90}, {"time": 1555, "pitch": 43, "duration": 26, "velocity": 86}, {"time": 1561, "pitch": 50, "duration": 21, "velocity": 83}, {"time": 1567, "pitch": 55, "duration": 14, "velocity": 86}, {"time": 1573, "pitch": 58, "duration": 3, "velocity": 86}, {"time": 1579, "pitch": 62, "duration": 7, "velocity": 117}, {"time": 1579, "pitch": 65, "duration": 13, "velocity": 117}, {"time": 1585, "pitch": 43, "duration": 6, "velocity": 86}, {"time": 1591, "pitch": 41, "duration": 31, "velocity": 100}, {"time": 1597, "pitch": 48, "duration": 31, "velocity": 78}, {"time": 1603, "pitch": 53, "duration": 24, "velocity": 87}, {"time": 1609, "pitch": 56, "duration": 7, "velocity": 84}, {"time": 1615, "pitch": 60, "duration": 13, "velocity": 96}, {"time": 1615, "pitch": 65, "duration": 13, "velocity": 92}, {"time": 1621, "pitch": 56, "duration": 5, "velocity": 95}, {"time": 1627, "pitch": 43, "duration": 28, "velocity": 87}, {"time": 1633, "pitch": 50, "duration": 22, "velocity": 86}, {"time": 1639, "pitch": 55, "duration": 16, "velocity": 98}, {"time": 1645, "pitch": 58, "duration": 7, "velocity": 89}, {"time": 1651, "pitch": 62, "duration": 15, "velocity": 113}, {"time": 1651, "pitch": 67, "duration": 14, "velocity": 108}, {"time": 1657, "pitch": 58, "duration": 7, "velocity": 100}, {"time": 1663, "pitch": 44, "duration": 19, "velocity": 88}, {"time": 1669, "pitch": 51, "duration": 19, "velocity": 76}, {"time": 1675, "pitch": 56, "duration": 6, "velocity": 83}, {"time": 1681, "pitch": 60, "duration": 7, "velocity": 87}, {"time": 1687, "pitch": 46, "duration": 7, "velocity": 93}, {"time": 1693, "pitch": 58, "duration": 8, "velocity": 87}, {"time": 1699, "pitch": 48, "duration": 32, "velocity": 91}, {"time": 1705, "pitch": 55, "duration": 27, "velocity": 78}, {"time": 1711, "pitch": 60, "duration": 7, "velocity": 93}, {"time": 1717, "pitch": 62, "duration": 7, "velocity": 94}, {"time": 1723, "pitch": 63, "duration": 6, "velocity": 116}, {"time": 1729, "pitch": 62, "duration": 5, "velocity": 84}, {"time": 1732, "pitch": 63, "duration": 12, "velocity": 83}, {"time": 1735, "pitch": 48, "duration": 6, "velocity": 85}, {"time": 1735, "pitch": 55, "duration": 3, "velocity": 38}, {"time": 1735, "pitch": 60, "duration": 7, "velocity": 88}, {"time": 1735, "pitch": 67, "duration": 8, "velocity": 88}, {"time": 1807, "pitch": 48, "duration": 30, "velocity": 100}, {"time": 1813, "pitch": 55, "duration": 31, "velocity": 84}, {"time": 1819, "pitch": 60, "duration": 8, "velocity": 84}, {"time": 1825, "pitch": 63, "duration": 7, "velocity": 104}, {"time": 1825, "pitch": 67, "duration": 10, "velocity": 96}, {"time": 1831, "pitch": 60, "duration": 7, "velocity": 100}, {"time": 1837, "pitch": 63, "duration": 9, "velocity": 113}, {"time": 1837, "pitch": 67, "duration": 7, "velocity": 94}, {"time": 1843, "pitch": 46, "duration": 26, "velocity": 93}, {"time": 1849, "pitch": 55, "duration": 19, "velocity": 80}, {"time": 1855, "pitch": 58, "duration": 5, "velocity": 89}, {"time": 1861, "pitch": 62, "duration": 6, "velocity": 116}, {"time": 1861, "pitch": 65, "duration": 9, "velocity": 110}, {"time": 1867, "pitch": 58, "duration": 7, "velocity": 108}, {"time": 1873, "pitch": 60, "duration": 24, "velocity": 93}, {"time": 1879, "pitch": 44, "duration": 29, "velocity": 85}, {"time": 1879, "pitch": 63, "duration": 12, "velocity": 102}, {"time": 1885, "pitch": 51, "duration": 21, "velocity": 69}, {"time": 1891, "pitch": 56, "duration": 15, "velocity": 85}, {"time": 1897, "pitch": 58, "duration": 8, "velocity": 90}, {"time": 1903, "pitch": 60, "duration": 6, "velocity": 108}, {"time": 1903, "pitch": 63, "duration": 7, "velocity": 114}, {"time": 1909, "pitch": 58, "duration": 22, "velocity": 91}, {"time": 1915, "pitch": 43, "duration": 30, "velocity": 83}, {"time": 1921, "pitch": 50, "duration": 23, "velocity": 81}, {"time": 1927, "pitch": 55, "duration": 16, "velocity": 87}, {"time": 1933, "pitch": 58, "duration": 7, "velocity": 90}, {"time": 1939, "pitch": 62, "duration": 6, "velocity": 114}, {"time": 1945, "pitch": 65, "duration": 7, "velocity": 102}, {"time": 1951, "pitch": 41, "duration": 27, "velocity": 83}, {"time": 1951, "pitch": 60, "duration": 10, "velocity": 98}, {"time": 1957, "pitch": 48, "duration": 20, "velocity": 83}, {"time": 1963, "pitch": 53, "duration": 12, "velocity": 85}, {"time": 1969, "pitch": 56, "duration": 10, "velocity": 100}, {"time": 1975, "pitch": 60, "duration": 16, "velocity": 87}, {"time": 1981, "pitch": 65, "duration": 11, "velocity": 87}, {"time": 1987, "pitch": 43, "duration": 27, "velocity": 88}, {"time": 1993, "pitch": 50, "duration": 21, "velocity": 82}, {"time": 1999, "pitch": 55, "duration": 15, "velocity": 110}, {"time": 2005, "pitch": 62, "duration": 6, "velocity": 107}, {"time": 2005, "pitch": 67, "duration": 6, "velocity": 104}, {"time": 2011, "pitch": 62, "duration": 3, "velocity": 83}, {"time": 2011, "pitch": 65, "duration": 6, "velocity": 89}, {"time": 2017, "pitch": 67, "duration": 7, "velocity": 102}, {"time": 2020, "pitch": 62, "duration": 2, "velocity": 63}, {"time": 2023, "pitch": 44, "duration": 29, "velocity": 83}, {"time": 2023, "pitch": 60, "duration": 5, "velocity": 86}, {"time": 2023, "pitch": 63, "duration": 7, "velocity": 92}, {"time": 2029, "pitch": 51, "duration": 21, "velocity": 69}, {"time": 2035, "pitch": 56, "duration": 15, "velocity": 86}, {"time": 2041, "pitch": 63, "duration": 7, "velocity": 107}, {"time": 2047, "pitch": 67, "duration": 7, "velocity": 116}, {"time": 2053, "pitch": 72, "duration": 12, "velocity": 100}, {"time": 2059, "pitch": 43, "duration": 26, "velocity": 86}, {"time": 2065, "pitch": 50, "duration": 20, "velocity": 78}, {"time": 2065, "pitch": 62, "duration": 3, "velocity": 80}, {"time": 2071, "pitch": 71, "duration": 9, "velocity": 123}, {"time": 2077, "pitch": 55, "duration": 19, "velocity": 98}, {"time": 2083, "pitch": 62, "duration": 6, "velocity": 119}, {"time": 2089, "pitch": 71, "duration": 6, "velocity": 119}, {"time": 2095, "pitch": 48, "duration": 29, "velocity": 87}, {"time": 2095, "pitch": 63, "duration": 15, "velocity": 113}, {"time": 2095, "pitch": 67, "duration": 9, "velocity": 104}, {"time": 2095, "pitch": 72, "duration": 8, "velocity": 88}, {"time": 2101, "pitch": 55, "duration": 24, "velocity": 83}, {"time": 2107, "pitch": 60, "duration": 13, "velocity": 98}, {"time": 2113, "pitch": 62, "duration": 6, "velocity": 90}, {"time": 2119, "pitch": 63, "duration": 8, "velocity": 113}, {"time": 2119, "pitch": 67, "duration": 5, "velocity": 116}, {"time": 2125, "pitch": 70, "duration": 5, "velocity": 83}, {"time": 2131, "pitch": 46, "duration": 28, "velocity": 84}, {"time": 2131, "pitch": 62, "duration": 11, "velocity": 89}, {"time": 2131, "pitch": 65, "duration": 11, "velocity": 96}, {"time": 2131, "pitch": 70, "duration": 11, "velocity": 88}, {"time": 2137, "pitch": 55, "duration": 21, "velocity": 70}, {"time": 2143, "pitch": 58, "duration": 14, "velocity": 84}, {"time": 2149, "pitch": 62, "duration": 2, "velocity": 91}, {"time": 2155, "pitch": 62, "duration": 3, "velocity": 81}, {"time": 2155, "pitch": 65, "duration": 6, "velocity": 117}, {"time": 2161, "pitch": 62, "duration": 7, "velocity": 92}, {"time": 2167, "pitch": 44, "duration": 28, "velocity": 82}, {"time": 2167, "pitch": 60, "duration": 13, "velocity": 90}, {"time": 2167, "pitch": 63, "duration": 13, "velocity": 93}, {"time": 2173, "pitch": 51, "duration": 20, "velocity": 74}, {"time": 2179, "pitch": 56, "duration": 14, "velocity": 84}, {"time": 2185, "pitch": 60, "duration": 6, "velocity": 86}, {"time": 2191, "pitch": 62, "duration": 7, "velocity": 113}, {"time": 2197, "pitch": 63, "duration": 6, "velocity": 93}, {"time": 2203, "pitch": 43, "duration": 28, "velocity": 82}, {"time": 2203, "pitch": 58, "duration": 15, "velocity": 88}, {"time": 2203, "pitch": 65, "duration": 17, "velocity": 88}, {"time": 2209, "pitch": 50, "duration": 21, "velocity": 73}, {"time": 2215, "pitch": 55, "duration": 14, "velocity": 85}, {"time": 2221, "pitch": 67, "duration": 11, "velocity": 102}, {"time": 2227, "pitch": 62, "duration": 6, "velocity": 108}, {"time": 2233, "pitch": 58, "duration": 3, "velocity": 88}, {"time": 2239, "pitch": 41, "duration": 30, "velocity": 84}, {"time": 2239, "pitch": 56, "duration": 16, "velocity": 97}, {"time": 2239, "pitch": 65, "duration": 12, "velocity": 89}, {"time": 2245, "pitch": 48, "duration": 30, "velocity": 74}, {"time": 2251, "pitch": 53, "duration": 8, "velocity": 83}, {"time": 2257, "pitch": 60, "duration": 12, "velocity": 88}, {"time": 2263, "pitch": 53, "duration": 12, "velocity": 87}, {"time": 2269, "pitch": 56, "duration": 3, "velocity": 83}, {"time": 2272, "pitch": 65, "duration": 11, "velocity": 38}, {"time": 2275, "pitch": 43, "duration": 26, "velocity": 76}, {"time": 2275, "pitch": 58, "duration": 5, "velocity": 86}, {"time": 2275, "pitch": 62, "duration": 7, "velocity": 82}, {"time": 2281, "pitch": 50, "duration": 20, "velocity": 80}, {"time": 2287, "pitch": 55, "duration": 14, "velocity": 87}, {"time": 2293, "pitch": 58, "duration": 3, "velocity": 88}, {"time": 2299, "pitch": 62, "duration": 7, "velocity": 116}, {"time": 2299, "pitch": 67, "duration": 4, "velocity": 110}, {"time": 2305, "pitch": 67, "duration": 7, "velocity": 91}, {"time": 2311, "pitch": 44, "duration": 17, "velocity": 81}, {"time": 2311, "pitch": 60, "duration": 14, "velocity": 84}, {"time": 2311, "pitch": 63, "duration": 14, "velocity": 85}, {"time": 2317, "pitch": 51, "duration": 17, "velocity": 38}, {"time": 2323, "pitch": 56, "duration": 5, "velocity": 82}, {"time": 2329, "pitch": 60, "duration": 6, "velocity": 88}, {"time": 2329, "pitch": 63, "duration": 6, "velocity": 86}, {"time": 2335, "pitch": 46, "duration": 3, "velocity": 88}, {"time": 2335, "pitch": 58, "duration": 13, "velocity": 86}, {"time": 2335, "pitch": 62, "duration": 13, "velocity": 88}, {"time": 2347, "pitch": 48, "duration": 57, "velocity": 82}, {"time": 2347, "pitch": 60, "duration": 5, "velocity": 83}, {"time": 2347, "pitch": 63, "duration": 6, "velocity": 81}, {"time": 2353, "pitch": 55, "duration": 21, "velocity": 76}, {"time": 2359, "pitch": 60, "duration": 12, "velocity": 86}, {"time": 2365, "pitch": 62, "duration": 6, "velocity": 83}, {"time": 2371, "pitch": 63, "duration": 6, "velocity": 98}, {"time": 2377, "pitch": 62, "duration": 7, "velocity": 86}, {"time": 2383, "pitch": 55, "duration": 21, "velocity": 75}, {"time": 2383, "pitch": 60, "duration": 21, "velocity": 78}, {"time": 2383, "pitch": 67, "duration": 22, "velocity": 87}, {"time": 2419, "pitch": 48, "duration": 30, "velocity": 80}, {"time": 2425, "pitch": 55, "duration": 24, "velocity": 78}, {"time": 2431, "pitch": 60, "duration": 14, "velocity": 82}, {"time": 2437, "pitch": 62, "duration": 8, "velocity": 80}, {"time": 2443, "pitch": 63, "duration": 12, "velocity": 84}, {"time": 2455, "pitch": 46, "duration": 26, "velocity": 76}, {"time": 2461, "pitch": 55, "duration": 20, "velocity": 73}, {"time": 2467, "pitch": 58, "duration": 12, "velocity": 84}, {"time": 2473, "pitch": 62, "duration": 7, "velocity": 83}, {"time": 2479, "pitch": 63, "duration": 7, "velocity": 88}, {"time": 2485, "pitch": 65, "duration": 9, "velocity": 85}, {"time": 2491, "pitch": 44, "duration": 18, "velocity": 84}, {"time": 2497, "pitch": 51, "duration": 15, "velocity": 72}, {"time": 2503, "pitch": 56, "duration": 7, "velocity": 81}, {"time": 2509, "pitch": 60, "duration": 5, "velocity": 81}, {"time": 2515, "pitch": 46, "duration": 7, "velocity": 85}, {"time": 2521, "pitch": 58, "duration": 7, "velocity": 79}, {"time": 2527, "pitch": 39, "duration": 24, "velocity": 88}, {"time": 2533, "pitch": 46, "duration": 19, "velocity": 83}, {"time": 2539, "pitch": 51, "duration": 13, "velocity": 82}, {"time": 2545, "pitch": 53, "duration": 9, "velocity": 67}, {"time": 2551, "pitch": 55, "duration": 11, "velocity": 64}, {"time": 2563, "pitch": 41, "duration": 24, "velocity": 86}, {"time": 2569, "pitch": 48, "duration": 19, "velocity": 83}, {"time": 2575, "pitch": 53, "duration": 12, "velocity": 80}, {"time": 2581, "pitch": 56, "duration": 15, "velocity": 80}, {"time": 2587, "pitch": 60, "duration": 12, "velocity": 84}, {"time": 2593, "pitch": 65, "duration": 7, "velocity": 84}, {"time": 2599, "pitch": 43, "duration": 27, "velocity": 79}, {"time": 2605, "pitch": 50, "duration": 21, "velocity": 79}, {"time": 2611, "pitch": 55, "duration": 14, "velocity": 84}, {"time": 2617, "pitch": 58, "duration": 8, "velocity": 77}, {"time": 2623, "pitch": 62, "duration": 11, "velocity": 83}, {"time": 2635, "pitch": 44, "duration": 25, "velocity": 83}, {"time": 2641, "pitch": 51, "duration": 18, "velocity": 73}, {"time": 2647, "pitch": 56, "duration": 11, "velocity": 77}, {"time": 2653, "pitch": 60, "duration": 8, "velocity": 77}, {"time": 2659, "pitch": 63, "duration": 13, "velocity": 81}, {"time": 2671, "pitch": 43, "duration": 25, "velocity": 79}, {"time": 2677, "pitch": 50, "duration": 19, "velocity": 72}, {"time": 2683, "pitch": 55, "duration": 24, "velocity": 84}, {"time": 2695, "pitch": 58, "duration": 10, "velocity": 82}, {"time": 2707, "pitch": 48, "duration": 27, "velocity": 77}, {"time": 2713, "pitch": 55, "duration": 30, "velocity": 85}, {"time": 2719, "pitch": 60, "duration": 11, "velocity": 83}, {"time": 2725, "pitch": 62, "duration": 7, "velocity": 76}, {"time": 2731, "pitch": 63, "duration": 7, "velocity": 83}, {"time": 2737, "pitch": 67, "duration": 10, "velocity": 84}, {"time": 2743, "pitch": 46, "duration": 24, "velocity": 86}, {"time": 2749, "pitch": 53, "duration": 19, "velocity": 72}, {"time": 2755, "pitch": 58, "duration": 12, "velocity": 81}, {"time": 2761, "pitch": 60, "duration": 5, "velocity": 84}, {"time": 2767, "pitch": 65, "duration": 13, "velocity": 83}, {"time": 2773, "pitch": 60, "duration": 8, "velocity": 75}, {"time": 2779, "pitch": 44, "duration": 20, "velocity": 84}, {"time": 2785, "pitch": 51, "duration": 14, "velocity": 72}, {"time": 2791, "pitch": 56, "duration": 8, "velocity": 79}, {"time": 2797, "pitch": 60, "duration": 7, "velocity": 80}, {"time": 2803, "pitch": 46, "duration": 6, "velocity": 83}, {"time": 2809, "pitch": 60, "duration": 9, "velocity": 83}, {"time": 2815, "pitch": 39, "duration": 27, "velocity": 87}, {"time": 2821, "pitch": 51, "duration": 15, "velocity": 84}, {"time": 2827, "pitch": 55, "duration": 8, "velocity": 80}, {"time": 2833, "pitch": 63, "duration": 15, "velocity": 91}, {"time": 2839, "pitch": 51, "duration": 5, "velocity": 87}, {"time": 2845, "pitch": 58, "duration": 6, "velocity": 81}, {"time": 2851, "pitch": 41, "duration": 25, "velocity": 84}, {"time": 2857, "pitch": 53, "duration": 21, "velocity": 83}, {"time": 2863, "pitch": 56, "duration": 14, "velocity": 84}, {"time": 2869, "pitch": 65, "duration": 17, "velocity": 88}, {"time": 2875, "pitch": 60, "duration": 10, "velocity": 78}, {"time": 2881, "pitch": 56, "duration": 3, "velocity": 78}, {"time": 2887, "pitch": 43, "duration": 27, "velocity": 87}, {"time": 2893, "pitch": 50, "duration": 22, "velocity": 82}, {"time": 2899, "pitch": 55, "duration": 15, "velocity": 84}, {"time": 2905, "pitch": 58, "duration": 6, "velocity": 80}, {"time": 2911, "pitch": 62, "duration": 9, "velocity": 88}, {"time": 2917, "pitch": 67, "duration": 6, "velocity": 86}, {"time": 2923, "pitch": 44, "duration": 17, "velocity": 86}, {"time": 2929, "pitch": 51, "duration": 18, "velocity": 77}, {"time": 2935, "pitch": 56, "duration": 5, "velocity": 81}, {"time": 2941, "pitch": 60, "duration": 6, "velocity": 83}, {"time": 2947, "pitch": 43, "duration": 6, "velocity": 82}, {"time": 2953, "pitch": 58, "duration": 6, "velocity": 79}, {"time": 2959, "pitch": 48, "duration": 12, "velocity": 86}, {"time": 2965, "pitch": 55, "duration": 6, "velocity": 69}, {"time": 2971, "pitch": 60, "duration": 7, "velocity": 82}, {"time": 2977, "pitch": 63, "duration": 7, "velocity": 74}, {"time": 2983, "pitch": 79, "duration": 11, "velocity": 102}, {"time": 2995, "pitch": 44, "duration": 31, "velocity": 81}, {"time": 3001, "pitch": 51, "duration": 25, "velocity": 71}, {"time": 3007, "pitch": 56, "duration": 19, "velocity": 78}, {"time": 3013, "pitch": 60, "duration": 9, "velocity": 78}, {"time": 3019, "pitch": 63, "duration": 16, "velocity": 80}, {"time": 3025, "pitch": 60, "duration": 10, "velocity": 80}, {"time": 3031, "pitch": 44, "duration": 28, "velocity": 81}, {"time": 3037, "pitch": 53, "duration": 20, "velocity": 76}, {"time": 3043, "pitch": 58, "duration": 24, "velocity": 72}, {"time": 3055, "pitch": 62, "duration": 13, "velocity": 86}, {"time": 3067, "pitch": 43, "duration": 30, "velocity": 78}, {"time": 3073, "pitch": 50, "duration": 24, "velocity": 60}, {"time": 3079, "pitch": 55, "duration": 25, "velocity": 76}, {"time": 3085, "pitch": 58, "duration": 10, "velocity": 74}, {"time": 3091, "pitch": 62, "duration": 14, "velocity": 88}, {"time": 3097, "pitch": 67, "duration": 8, "velocity": 82}, {"time": 3103, "pitch": 48, "duration": 30, "velocity": 86}, {"time": 3109, "pitch": 55, "duration": 24, "velocity": 80}, {"time": 3115, "pitch": 60, "duration": 9, "velocity": 78}, {"time": 3121, "pitch": 67, "duration": 6, "velocity": 91}, {"time": 3127, "pitch": 62, "duration": 8, "velocity": 91}, {"time": 3133, "pitch": 63, "duration": 13, "velocity": 110}, {"time": 3139, "pitch": 41, "duration": 30, "velocity": 85}, {"time": 3145, "pitch": 48, "duration": 27, "velocity": 76}, {"time": 3151, "pitch": 53, "duration": 19, "velocity": 84}, {"time": 3157, "pitch": 56, "duration": 20, "velocity": 80}, {"time": 3163, "pitch": 60, "duration": 14, "velocity": 84}, {"time": 3169, "pitch": 65, "duration": 8, "velocity": 84}, {"time": 3175, "pitch": 41, "duration": 29, "velocity": 76}, {"time": 3181, "pitch": 48, "duration": 24, "velocity": 80}, {"time": 3187, "pitch": 53, "duration": 18, "velocity": 84}, {"time": 3193, "pitch": 56, "duration": 19, "velocity": 80}, {"time": 3199, "pitch": 60, "duration": 14, "velocity": 87}, {"time": 3202, "pitch": 65, "duration": 8, "velocity": 87}, {"time": 3211, "pitch": 43, "duration": 33, "velocity": 92}, {"time": 3217, "pitch": 50, "duration": 31, "velocity": 86}, {"time": 3223, "pitch": 55, "duration": 8, "velocity": 98}, {"time": 3229, "pitch": 60, "duration": 6, "velocity": 113}, {"time": 3235, "pitch": 62, "duration": 7, "velocity": 119}, {"time": 3241, "pitch": 55, "duration": 6, "velocity": 86}, {"time": 3247, "pitch": 43, "duration": 21, "velocity": 87}, {"time": 3247, "pitch": 59, "duration": 12, "velocity": 97}, {"time": 3247, "pitch": 67, "duration": 12, "velocity": 108}, {"time": 3253, "pitch": 50, "duration": 14, "velocity": 81}, {"time": 3259, "pitch": 55, "duration": 8, "velocity": 113}, {"time": 3265, "pitch": 59, "duration": 11, "velocity": 116}, {"time": 3265, "pitch": 67, "duration": 10, "velocity": 110}, {"time": 3271, "pitch": 43, "duration": 6, "velocity": 110}, {"time": 3277, "pitch": 62, "duration": 6, "velocity": 102}, {"time": 3277, "pitch": 67, "duration": 5, "velocity": 91}, {"time": 3283, "pitch": 48, "duration": 31, "velocity": 102}, {"time": 3283, "pitch": 60, "duration": 5, "velocity": 98}, {"time": 3283, "pitch": 63, "duration": 15, "velocity": 114}, {"time": 3283, "pitch": 67, "duration": 13, "velocity": 88}, {"time": 3289, "pitch": 55, "duration": 25, "velocity": 86}, {"time": 3295, "pitch": 60, "duration": 15, "velocity": 98}, {"time": 3301, "pitch": 62, "duration": 7, "velocity": 113}, {"time": 3301, "pitch": 67, "duration": 6, "velocity": 96}, {"time": 3307, "pitch": 63, "duration": 14, "velocity": 110}, {"time": 3310, "pitch": 67, "duration": 11, "velocity": 107}, {"time": 3319, "pitch": 46, "duration": 28, "velocity": 102}, {"time": 3325, "pitch": 55, "duration": 23, "velocity": 81}, {"time": 3331, "pitch": 58, "duration": 14, "velocity": 90}, {"time": 3337, "pitch": 62, "duration": 5, "velocity": 98}, {"time": 3343, "pitch": 62, "duration": 13, "velocity": 88}, {"time": 3343, "pitch": 70, "duration": 14, "velocity": 116}, {"time": 3349, "pitch": 46, "duration": 2, "velocity": 87}, {"time": 3349, "pitch": 65, "duration": 6, "velocity": 98}, {"time": 3355, "pitch": 44, "duration": 28, "velocity": 93}, {"time": 3361, "pitch": 51, "duration": 22, "velocity": 81}, {"time": 3367, "pitch": 56, "duration": 14, "velocity": 90}, {"time": 3373, "pitch": 60, "duration": 4, "velocity": 88}, {"time": 3379, "pitch": 63, "duration": 12, "velocity": 117}, {"time": 3379, "pitch": 68, "duration": 12, "velocity": 119}, {"time": 3385, "pitch": 44, "duration": 2, "velocity": 87}, {"time": 3385, "pitch": 60, "duration": 7, "velocity": 89}, {"time": 3391, "pitch": 39, "duration": 31, "velocity": 102}, {"time": 3397, "pitch": 46, "duration": 31, "velocity": 84}, {"time": 3403, "pitch": 51, "duration": 25, "velocity": 93}, {"time": 3409, "pitch": 55, "duration": 5, "velocity": 88}, {"time": 3415, "pitch": 58, "duration": 11, "velocity": 117}, {"time": 3421, "pitch": 63, "duration": 7, "velocity": 113}, {"time": 3427, "pitch": 41, "duration": 29, "velocity": 87}, {"time": 3433, "pitch": 48, "duration": 22, "velocity": 86}, {"time": 3439, "pitch": 53, "duration": 14, "velocity": 108}, {"time": 3445, "pitch": 56, "duration": 17, "velocity": 106}, {"time": 3451, "pitch": 60, "duration": 12, "velocity": 90}, {"time": 3457, "pitch": 65, "duration": 7, "velocity": 90}, {"time": 3463, "pitch": 43, "duration": 29, "velocity": 93}, {"time": 3469, "pitch": 50, "duration": 24, "velocity": 82}, {"time": 3475, "pitch": 55, "duration": 17, "velocity": 102}, {"time": 3481, "pitch": 58, "duration": 4, "velocity": 89}, {"time": 3487, "pitch": 62, "duration": 16, "velocity": 119}, {"time": 3487, "pitch": 67, "duration": 13, "velocity": 116}, {"time": 3493, "pitch": 58, "duration": 8, "velocity": 96}, {"time": 3499, "pitch": 44, "duration": 30, "velocity": 97}, {"time": 3505, "pitch": 51, "duration": 24, "velocity": 82}, {"time": 3511, "pitch": 56, "duration": 16, "velocity": 89}, {"time": 3517, "pitch": 60, "duration": 6, "velocity": 102}, {"time": 3523, "pitch": 60, "duration": 1, "velocity": 85}, {"time": 3523, "pitch": 63, "duration": 13, "velocity": 119}, {"time": 3523, "pitch": 67, "duration": 13, "velocity": 110}, {"time": 3529, "pitch": 60, "duration": 7, "velocity": 108}, {"time": 3535, "pitch": 43, "duration": 30, "velocity": 86}, {"time": 3541, "pitch": 51, "duration": 25, "velocity": 83}, {"time": 3547, "pitch": 55, "duration": 15, "velocity": 90}, {"time": 3553, "pitch": 59, "duration": 7, "velocity": 116}, {"time": 3559, "pitch": 62, "duration": 6, "velocity": 119}, {"time": 3559, "pitch": 67, "duration": 13, "velocity": 116}, {"time": 3565, "pitch": 59, "duration": 6, "velocity": 100}, {"time": 3571, "pitch": 48, "duration": 31, "velocity": 94}, {"time": 3577, "pitch": 55, "duration": 32, "velocity": 83}, {"time": 3583, "pitch": 60, "duration": 14, "velocity": 100}, {"time": 3589, "pitch": 62, "duration": 6, "velocity": 90}, {"time": 3595, "pitch": 63, "duration": 12, "velocity": 116}, {"time": 3601, "pitch": 67, "duration": 8, "velocity": 102}, {"time": 3607, "pitch": 46, "duration": 28, "velocity": 86}, {"time": 3607, "pitch": 65, "duration": 14, "velocity": 104}, {"time": 3613, "pitch": 55, "duration": 21, "velocity": 78}, {"time": 3619, "pitch": 58, "duration": 14, "velocity": 81}, {"time": 3625, "pitch": 60, "duration": 5, "velocity": 91}, {"time": 3631, "pitch": 65, "duration": 6, "velocity": 119}, {"time": 3637, "pitch": 60, "duration": 5, "velocity": 89}, {"time": 3643, "pitch": 44, "duration": 29, "velocity": 84}, {"time": 3643, "pitch": 60, "duration": 14, "velocity": 93}, {"time": 3643, "pitch": 63, "duration": 14, "velocity": 102}, {"time": 3643, "pitch": 67, "duration": 13, "velocity": 94}, {"time": 3649, "pitch": 51, "duration": 21, "velocity": 71}, {"time": 3655, "pitch": 56, "duration": 14, "velocity": 83}, {"time": 3661, "pitch": 60, "duration": 3, "velocity": 86}, {"time": 3667, "pitch": 63, "duration": 18, "velocity": 108}, {"time": 3667, "pitch": 67, "duration": 18, "velocity": 107}, {"time": 3673, "pitch": 60, "duration": 10, "velocity": 90}, {"time": 3679, "pitch": 43, "duration": 26, "velocity": 86}, {"time": 3685, "pitch": 50, "duration": 21, "velocity": 83}, {"time": 3691, "pitch": 55, "duration": 14, "velocity": 86}, {"time": 3697, "pitch": 58, "duration": 3, "velocity": 86}, {"time": 3703, "pitch": 62, "duration": 7, "velocity": 117}, {"time": 3703, "pitch": 65, "duration": 13, "velocity": 117}, {"time": 3709, "pitch": 43, "duration": 6, "velocity": 86}, {"time": 3715, "pitch": 41, "duration": 31, "velocity": 100}, {"time": 3721, "pitch": 48, "duration": 31, "velocity": 78}, {"time": 3727, "pitch": 53, "duration": 24, "velocity": 87}, {"time": 3733, "pitch": 56, "duration": 7, "velocity": 84}, {"time": 3739, "pitch": 60, "duration": 13, "velocity": 96}, {"time": 3739, "pitch": 65, "duration": 13, "velocity": 92}, {"time": 3745, "pitch": 56, "duration": 5, "velocity": 95}, {"time": 3751, "pitch": 43, "duration": 28, "velocity": 87}, {"time": 3757, "pitch": 50, "duration": 22, "velocity": 86}, {"time": 3763, "pitch": 55, "duration": 16, "velocity": 98}, {"time": 3769, "pitch": 58, "duration": 7, "velocity": 89}, {"time": 3775, "pitch": 62, "duration": 15, "velocity": 113}, {"time": 3775, "pitch": 67, "duration": 14, "velocity": 108}, {"time": 3781, "pitch": 58, "duration": 7, "velocity": 100}, {"time": 3787, "pitch": 44, "duration": 19, "velocity": 88}, {"time": 3793, "pitch": 51, "duration": 19, "velocity": 76}, {"time": 3799, "pitch": 56, "duration": 6, "velocity": 83}, {"time": 3805, "pitch": 60, "duration": 7, "velocity": 87}, {"time": 3811, "pitch": 46, "duration": 7, "velocity": 93}, {"time": 3817, "pitch": 58, "duration": 8, "velocity": 87}, {"time": 3823, "pitch": 48, "duration": 32, "velocity": 91}, {"time": 3829, "pitch": 55, "duration": 27, "velocity": 78}, {"time": 3835, "pitch": 60, "duration": 7, "velocity": 93}, {"time": 3841, "pitch": 62, "duration": 7, "velocity": 94}, {"time": 3847, "pitch": 63, "duration": 6, "velocity": 116}, {"time": 3853, "pitch": 62, "duration": 5, "velocity": 84}, {"time": 3856, "pitch": 63, "duration": 12, "velocity": 83}, {"time": 3859, "pitch": 48, "duration": 6, "velocity": 85}, {"time": 3859, "pitch": 55, "duration": 3, "velocity": 38}, {"time": 3859, "pitch": 60, "duration": 7, "velocity": 88}, {"time": 3859, "pitch": 67, "duration": 8, "velocity": 88}, {"time": 3931, "pitch": 49, "duration": 30, "velocity": 91}, {"time": 3931, "pitch": 61, "duration": 5, "velocity": 100}, {"time": 3931, "pitch": 64, "duration": 12, "velocity": 102}, {"time": 3931, "pitch": 68, "duration": 11, "velocity": 98}, {"time": 3937, "pitch": 56, "duration": 30, "velocity": 80}, {"time": 3943, "pitch": 61, "duration": 14, "velocity": 98}, {"time": 3949, "pitch": 63, "duration": 7, "velocity": 96}, {"time": 3949, "pitch": 68, "duration": 4, "velocity": 89}, {"time": 3955, "pitch": 64, "duration": 6, "velocity": 104}, {"time": 3961, "pitch": 63, "duration": 4, "velocity": 89}, {"time": 3961, "pitch": 68, "duration": 5, "velocity": 88}, {"time": 3967, "pitch": 47, "duration": 28, "velocity": 87}, {"time": 3967, "pitch": 63, "duration": 13, "velocity": 100}, {"time": 3967, "pitch": 66, "duration": 12, "velocity": 104}, {"time": 3973, "pitch": 56, "duration": 21, "velocity": 76}, {"time": 3979, "pitch": 59, "duration": 14, "velocity": 86}, {"time": 3985, "pitch": 61, "duration": 4, "velocity": 88}, {"time": 3985, "pitch": 66, "duration": 2, "velocity": 84}, {"time": 3991, "pitch": 63, "duration": 6, "velocity": 114}, {"time": 3991, "pitch": 66, "duration": 5, "velocity": 110}, {"time": 3997, "pitch": 63, "duration": 5, "velocity": 89}, {"time": 3997, "pitch": 68, "duration": 5, "velocity": 102}, {"time": 4003, "pitch": 45, "duration": 28, "velocity": 80}, {"time": 4003, "pitch": 61, "duration": 13, "velocity": 91}, {"time": 4003, "pitch": 64, "duration": 13, "velocity": 107}, {"time": 4003, "pitch": 68, "duration": 13, "velocity": 88}, {"time": 4009, "pitch": 52, "duration": 20, "velocity": 70}, {"time": 4015, "pitch": 57, "duration": 12, "velocity": 85}, {"time": 4021, "pitch": 61, "duration": 4, "velocity": 88}, {"time": 4027, "pitch": 64, "duration": 7, "velocity": 108}, {"time": 4027, "pitch": 68, "duration": 4, "velocity": 108}, {"time": 4033, "pitch": 68, "duration": 6, "velocity": 92}, {"time": 4039, "pitch": 44, "duration": 27, "velocity": 86}, {"time": 4039, "pitch": 59, "duration": 12, "velocity": 87}, {"time": 4039, "pitch": 63, "duration": 14, "velocity": 98}, {"time": 4039, "pitch": 66, "duration": 15, "velocity": 92}, {"time": 4045, "pitch": 51, "duration": 20, "velocity": 76}, {"time": 4051, "pitch": 56, "duration": 13, "velocity": 87}, {"time": 4057, "pitch": 59, "duration": 4, "velocity": 89}, {"time": 4063, "pitch": 63, "duration": 6, "velocity": 116}, {"time": 4069, "pitch": 66, "duration": 19, "velocity": 98}, {"time": 4075, "pitch": 42, "duration": 30, "velocity": 84}, {"time": 4075, "pitch": 57, "duration": 13, "velocity": 87}, {"time": 4075, "pitch": 61, "duration": 12, "velocity": 89}, {"time": 4081, "pitch": 49, "duration": 30, "velocity": 77}, {"time": 4087, "pitch": 54, "duration": 21, "velocity": 84}, {"time": 4093, "pitch": 56, "duration": 8, "velocity": 89}, {"time": 4099, "pitch": 57, "duration": 6, "velocity": 113}, {"time": 4105, "pitch": 61, "duration": 7, "velocity": 108}, {"time": 4111, "pitch": 44, "duration": 27, "velocity": 79}, {"time": 4111, "pitch": 59, "duration": 18, "velocity": 90}, {"time": 4117, "pitch": 51, "duration": 21, "velocity": 76}, {"time": 4123, "pitch": 56, "duration": 14, "velocity": 107}, {"time": 4129, "pitch": 59, "duration": 1, "velocity": 81}, {"time": 4129, "pitch": 63, "duration": 6, "velocity": 116}, {"time": 4135, "pitch": 63, "duration": 1, "velocity": 82}, {"time": 4135, "pitch": 66, "duration": 5, "velocity": 119}, {"time": 4141, "pitch": 68, "duration": 6, "velocity": 113}, {"time": 4147, "pitch": 45, "duration": 28, "velocity": 84}, {"time": 4147, "pitch": 64, "duration": 18, "velocity": 114}, {"time": 4153, "pitch": 52, "duration": 22, "velocity": 71}, {"time": 4159, "pitch": 57, "duration": 15, "velocity": 83}, {"time": 4165, "pitch": 68, "duration": 6, "velocity": 110}, {"time": 4171, "pitch": 73, "duration": 5, "velocity": 117}, {"time": 4177, "pitch": 75, "duration": 7, "velocity": 108}, {"time": 4183, "pitch": 44, "duration": 29, "velocity": 77}, {"time": 4183, "pitch": 72, "duration": 16, "velocity": 119}, {"time": 4189, "pitch": 51, "duration": 24, "velocity": 83}, {"time": 4195, "pitch": 56, "duration": 20, "velocity": 91}, {"time": 4201, "pitch": 63, "duration": 4, "velocity": 100}, {"time": 4204, "pitch": 68, "duration": 2, "velocity": 102}, {"time": 4207, "pitch": 72, "duration": 5, "velocity": 113}, {"time": 4213, "pitch": 73, "duration": 6, "velocity": 114}, {"time": 4219, "pitch": 49, "duration": 30, "velocity": 87}, {"time": 4219, "pitch": 76, "duration": 6, "velocity": 110}, {"time": 4225, "pitch": 56, "duration": 31, "velocity": 82}, {"time": 4231, "pitch": 61, "duration": 15, "velocity": 94}, {"time": 4237, "pitch": 63, "duration": 8, "velocity": 102}, {"time": 4237, "pitch": 68, "duration": 6, "velocity": 94}, {"time": 4243, "pitch": 64, "duration": 7, "velocity": 104}, {"time": 4249, "pitch": 66, "duration": 2, "velocity": 81}, {"time": 4255, "pitch": 47, "duration": 25, "velocity": 86}, {"time": 4261, "pitch": 56, "duration": 17, "velocity": 77}, {"time": 4261, "pitch": 66, "duration": 3, "velocity": 102}, {"time": 4261, "pitch": 75, "duration": 3, "velocity": 96}, {"time": 4267, "pitch": 66, "duration": 4, "velocity": 114}, {"time": 4267, "pitch": 75, "duration": 5, "velocity": 108}, {"time": 4273, "pitch": 59, "duration": 4, "velocity": 83}, {"time": 4273, "pitch": 66, "duration": 4, "velocity": 92}, {"time": 4273, "pitch": 73, "duration": 4, "velocity": 117}, {"time": 4279, "pitch": 66, "duration": 8, "velocity": 102}, {"time": 4279, "pitch": 73, "duration": 6, "velocity": 119}, {"time": 4285, "pitch": 71, "duration": 4, "velocity": 94}, {"time": 4288, "pitch": 45, "duration": 27, "velocity": 83}, {"time": 4291, "pitch": 73, "duration": 18, "velocity": 107}, {"time": 4297, "pitch": 52, "duration": 19, "velocity": 71}, {"time": 4303, "pitch": 57, "duration": 12, "velocity": 83}, {"time": 4309, "pitch": 64, "duration": 7, "velocity": 89}, {"time": 4315, "pitch": 73, "duration": 8, "velocity": 110}, {"time": 4321, "pitch": 71, "duration": 13, "velocity": 98}, {"time": 4327, "pitch": 44, "duration": 20, "velocity": 83}, {"time": 4327, "pitch": 63, "duration": 7, "velocity": 86}, {"time": 4327, "pitch": 68, "duration": 6, "velocity": 89}, {"time": 4333, "pitch": 51, "duration": 13, "velocity": 76}, {"time": 4339, "pitch": 56, "duration": 6, "velocity": 87}, {"time": 4345, "pitch": 59, "duration": 10, "velocity": 94}, {"time": 4345, "pitch": 68, "duration": 9, "velocity": 91}, {"time": 4363, "pitch": 42, "duration": 28, "velocity": 88}, {"time": 4363, "pitch": 57, "duration": 9, "velocity": 91}, {"time": 4363, "pitch": 66, "duration": 13, "velocity": 93}, {"time": 4369, "pitch": 49, "duration": 30, "velocity": 82}, {"time": 4375, "pitch": 54, "duration": 19, "velocity": 87}, {"time": 4381, "pitch": 57, "duration": 7, "velocity": 109}, {"time": 4381, "pitch": 67, "duration": 1, "velocity": 78}, {"time": 4387, "pitch": 61, "duration": 11, "velocity": 91}, {"time": 4393, "pitch": 66, "duration": 5, "velocity": 96}, {"time": 4399, "pitch": 44, "duration": 28, "velocity": 86}, {"time": 4399, "pitch": 59, "duration": 13, "velocity": 83}, {"time": 4399, "pitch": 63, "duration": 14, "velocity": 91}, {"time": 4399, "pitch": 68, "duration": 13, "velocity": 93}, {"time": 4405, "pitch": 51, "duration": 21, "velocity": 77}, {"time": 4411, "pitch": 56, "duration": 15, "velocity": 88}, {"time": 4417, "pitch": 59, "duration": 5, "velocity": 87}, {"time": 4423, "pitch": 63, "duration": 10, "velocity": 110}, {"time": 4429, "pitch": 68, "duration": 7, "velocity": 88}, {"time": 4435, "pitch": 45, "duration": 17, "velocity": 84}, {"time": 4435, "pitch": 61, "duration": 7, "velocity": 88}, {"time": 4435, "pitch": 64, "duration": 6, "velocity": 93}, {"time": 4441, "pitch": 68, "duration": 17, "velocity": 88}, {"time": 4447, "pitch": 52, "duration": 6, "velocity": 79}, {"time": 4453, "pitch": 64, "duration": 7, "velocity": 85}, {"time": 4459, "pitch": 47, "duration": 3, "velocity": 86}, {"time": 4459, "pitch": 59, "duration": 6, "velocity": 86}, {"time": 4459, "pitch": 63, "duration": 11, "velocity": 91}, {"time": 4459, "pitch": 66, "duration": 6, "velocity": 88}, {"time": 4465, "pitch": 68, "duration": 24, "velocity": 88}, {"time": 4471, "pitch": 49, "duration": 31, "velocity": 85}, {"time": 4471, "pitch": 61, "duration": 5, "velocity": 83}, {"time": 4471, "pitch": 64, "duration": 9, "velocity": 84}, {"time": 4477, "pitch": 56, "duration": 32, "velocity": 78}, {"time": 4483, "pitch": 61, "duration": 18, "velocity": 83}, {"time": 4489, "pitch": 63, "duration": 7, "velocity": 77}, {"time": 4495, "pitch": 64, "duration": 7, "velocity": 79}, {"time": 4501, "pitch": 66, "duration": 6, "velocity": 86}, {"time": 4507, "pitch": 68, "duration": 16, "velocity": 83}, {"time": 4507, "pitch": 49, "duration": 31, "velocity": 73}, {"time": 4513, "pitch": 56, "duration": 30, "velocity": 60}, {"time": 4520, "pitch": 61, "duration": 7, "velocity": 82}, {"time": 4526, "pitch": 63, "duration": 7, "velocity": 82}, {"time": 4532, "pitch": 64, "duration": 15, "velocity": 83}, {"time": 4543, "pitch": 49, "duration": 31, "velocity": 81}, {"time": 4549, "pitch": 56, "duration": 32, "velocity": 77}, {"time": 4555, "pitch": 61, "duration": 14, "velocity": 72}, {"time": 4561, "pitch": 68, "duration": 8, "velocity": 85}, {"time": 4567, "pitch": 64, "duration": 18, "velocity": 83}, {"time": 4579, "pitch": 49, "duration": 30, "velocity": 82}, {"time": 4585, "pitch": 56, "duration": 31, "velocity": 74}, {"time": 4591, "pitch": 63, "duration": 5, "velocity": 81}, {"time": 4597, "pitch": 68, "duration": 8, "velocity": 91}, {"time": 4603, "pitch": 64, "duration": 6, "velocity": 81}, {"time": 4609, "pitch": 63, "duration": 10, "velocity": 80}, {"time": 4615, "pitch": 49, "duration": 53, "velocity": 83}, {"time": 4621, "pitch": 56, "duration": 45, "velocity": 67}, {"time": 4630, "pitch": 63, "duration": 8, "velocity": 68}, {"time": 4636, "pitch": 68, "duration": 8, "velocity": 84}, {"time": 4642, "pitch": 63, "duration": 23, "velocity": 71}, {"time": 4651, "pitch": 64, "duration": 16, "velocity": 76}], "annotations": [{"time": 296, "annotation": {"number": 64, "value": 127}, "group": "control_change"}, {"time": 364, "annotation": {"number": 64, "value": 74}, "group": "control_change"}, {"time": 364, "annotation": {"number": 64, "value": 0}, "group": "control_change"}, {"time": 366, "annotation": {"number": 64, "value": 127}, "group": "control_change"}, {"time": 368, "annotation": {"number": 64, "value": 127}, "group": "control_change"}, {"time": 401, "annotation": {"number": 64, "value": 74}, "group": "control_change"}, {"time": 401, "annotation": {"number": 64, "value": 0}, "group": "control_change"}, {"time": 401, "annotation": {"number": 64, "value": 38}, "group": "control_change"}, {"time": 401, "annotation": {"number": 64, "value": 127}, "group": "control_change"}, {"time": 403, "annotation": {"number": 64, "value": 127}, "group": "control_change"}, {"time": 415, "annotation": {"number": 64, "value": 0}, "group": "control_change"}, {"time": 438, "annotation": {"number": 64, "value": 0}, "group": "control_change"}, {"time": 440, "annotation": {"number": 64, "value": 127}, "group": "control_change"}, {"time": 472, "annotation": {"number": 64, "value": 0}, "group": "control_change"}, {"time": 474, "annotation": {"number": 64, "value": 74}, "group": "control_change"}, {"time": 474, "annotation": {"number": 64, "value": 127}, "group": "control_change"}, {"time": 476, "annotation": {"number": 64, "value": 127}, "group": "control_change"}, {"time": 488, "annotation": {"number": 64, "value": 0}, "group": "control_change"}, {"time": 509, "annotation": {"number": 64, "value": 0}, "group": "control_change"}, {"time": 511, "annotation": {"number": 64, "value": 127}, "group": "control_change"}, {"time": 545, "annotation": {"number": 64, "value": 38}, "group": "control_change"}, {"time": 545, "annotation": {"number": 64, "value": 0}, "group": "control_change"}, {"time": 546, "annotation": {"number": 64, "value": 38}, "group": "control_change"}, {"time": 546, "annotation": {"number": 64, "value": 0}, "group": "control_change"}, {"time": 547, "annotation": {"number": 64, "value": 127}, "group": "control_change"}, {"time": 547, "annotation": {"number": 64, "value": 38}, "group": "control_change"}, {"time": 547, "annotation": {"number": 64, "value": 74}, "group": "control_change"}, {"time": 559, "annotation": {"number": 64, "value": 74}, "group": "control_change"}, {"time": 559, "annotation": {"number": 64, "value": 0}, "group": "control_change"}, {"time": 579, "annotation": {"number": 64, "value": 0}, "group": "control_change"}, {"time": 583, "annotation": {"number": 64, "value": 127}, "group": "control_change"}, {"time": 616, "annotation": {"number": 64, "value": 38}, "group": "control_change"}, {"time": 616, "annotation": {"number": 64, "value": 0}, "group": "control_change"}, {"time": 618, "annotation": {"number": 64, "value": 127}, "group": "control_change"}, {"time": 619, "annotation": {"number": 64, "value": 127}, "group": "control_change"}, {"time": 630, "annotation": {"number": 64, "value": 38}, "group": "control_change"}, {"time": 630, "annotation": {"number": 64, "value": 0}, "group": "control_change"}, {"time": 652, "annotation": {"number": 64, "value": 38}, "group": "control_change"}, {"time": 653, "annotation": {"number": 64, "value": 0}, "group": "control_change"}, {"time": 655, "annotation": {"number": 64, "value": 74}, "group": "control_change"}, {"time": 655, "annotation": {"number": 64, "value": 127}, "group": "control_change"}, {"time": 689, "annotation": {"number": 64, "value": 74}, "group": "control_change"}, {"time": 690, "annotation": {"number": 64, "value": 0}, "group": "control_change"}, {"time": 691, "annotation": {"number": 64, "value": 127}, "group": "control_change"}, {"time": 724, "annotation": {"number": 64, "value": 38}, "group": "control_change"}, {"time": 725, "annotation": {"number": 64, "value": 0}, "group": "control_change"}, {"time": 727, "annotation": {"number": 64, "value": 127}, "group": "control_change"}, {"time": 760, "annotation": {"number": 64, "value": 38}, "group": "control_change"}, {"time": 760, "annotation": {"number": 64, "value": 0}, "group": "control_change"}, {"time": 762, "annotation": {"number": 64, "value": 127}, "group": "control_change"}, {"time": 797, "annotation": {"number": 64, "value": 38}, "group": "control_change"}, {"time": 797, "annotation": {"number": 64, "value": 0}, "group": "control_change"}, {"time": 799, "annotation": {"number": 64, "value": 38}, "group": "control_change"}, {"time": 799, "annotation": {"number": 64, "value": 127}, "group": "control_change"}, {"time": 836, "annotation": {"number": 64, "value": 127}, "group": "control_change"}, {"time": 872, "annotation": {"number": 64, "value": 38}, "group": "control_change"}, {"time": 872, "annotation": {"number": 64, "value": 0}, "group": "control_change"}, {"time": 885, "annotation": {"number": 64, "value": 0}, "group": "control_change"}, {"time": 1808, "annotation": {"number": 64, "value": 74}, "group": "control_change"}, {"time": 1808, "annotation": {"number": 64, "value": 127}, "group": "control_change"}, {"time": 1840, "annotation": {"number": 64, "value": 0}, "group": "control_change"}, {"time": 1844, "annotation": {"number": 64, "value": 127}, "group": "control_change"}, {"time": 1876, "annotation": {"number": 64, "value": 38}, "group": "control_change"}, {"time": 1877, "annotation": {"number": 64, "value": 0}, "group": "control_change"}, {"time": 1879, "annotation": {"number": 64, "value": 127}, "group": "control_change"}, {"time": 1912, "annotation": {"number": 64, "value": 74}, "group": "control_change"}, {"time": 1913, "annotation": {"number": 64, "value": 0}, "group": "control_change"}, {"time": 1914, "annotation": {"number": 64, "value": 38}, "group": "control_change"}, {"time": 1915, "annotation": {"number": 64, "value": 127}, "group": "control_change"}, {"time": 1985, "annotation": {"number": 64, "value": 0}, "group": "control_change"}, {"time": 1987, "annotation": {"number": 64, "value": 127}, "group": "control_change"}, {"time": 2238, "annotation": {"number": 64, "value": 74}, "group": "control_change"}, {"time": 2238, "annotation": {"number": 64, "value": 38}, "group": "control_change"}, {"time": 2238, "annotation": {"number": 64, "value": 0}, "group": "control_change"}, {"time": 2239, "annotation": {"number": 64, "value": 74}, "group": "control_change"}, {"time": 2239, "annotation": {"number": 64, "value": 127}, "group": "control_change"}, {"time": 2273, "annotation": {"number": 64, "value": 0}, "group": "control_change"}, {"time": 2275, "annotation": {"number": 64, "value": 127}, "group": "control_change"}, {"time": 2309, "annotation": {"number": 64, "value": 74}, "group": "control_change"}, {"time": 2309, "annotation": {"number": 64, "value": 0}, "group": "control_change"}, {"time": 2311, "annotation": {"number": 64, "value": 127}, "group": "control_change"}, {"time": 2420, "annotation": {"number": 64, "value": 127}, "group": "control_change"}, {"time": 2488, "annotation": {"number": 64, "value": 74}, "group": "control_change"}, {"time": 2488, "annotation": {"number": 64, "value": 0}, "group": "control_change"}, {"time": 2490, "annotation": {"number": 64, "value": 127}, "group": "control_change"}, {"time": 2492, "annotation": {"number": 64, "value": 127}, "group": "control_change"}, {"time": 2525, "annotation": {"number": 64, "value": 74}, "group": "control_change"}, {"time": 2525, "annotation": {"number": 64, "value": 0}, "group": "control_change"}, {"time": 2525, "annotation": {"number": 64, "value": 38}, "group": "control_change"}, {"time": 2525, "annotation": {"number": 64, "value": 127}, "group": "control_change"}, {"time": 2527, "annotation": {"number": 64, "value": 127}, "group": "control_change"}, {"time": 2539, "annotation": {"number": 64, "value": 0}, "group": "control_change"}, {"time": 2562, "annotation": {"number": 64, "value": 0}, "group": "control_change"}, {"time": 2564, "annotation": {"number": 64, "value": 127}, "group": "control_change"}, {"time": 2596, "annotation": {"number": 64, "value": 0}, "group": "control_change"}, {"time": 2598, "annotation": {"number": 64, "value": 74}, "group": "control_change"}, {"time": 2598, "annotation": {"number": 64, "value": 127}, "group": "control_change"}, {"time": 2600, "annotation": {"number": 64, "value": 127}, "group": "control_change"}, {"time": 2612, "annotation": {"number": 64, "value": 0}, "group": "control_change"}, {"time": 2633, "annotation": {"number": 64, "value": 0}, "group": "control_change"}, {"time": 2635, "annotation": {"number": 64, "value": 127}, "group": "control_change"}, {"time": 2669, "annotation": {"number": 64, "value": 38}, "group": "control_change"}, {"time": 2669, "annotation": {"number": 64, "value": 0}, "group": "control_change"}, {"time": 2670, "annotation": {"number": 64, "value": 38}, "group": "control_change"}, {"time": 2670, "annotation": {"number": 64, "value": 0}, "group": "control_change"}, {"time": 2671, "annotation": {"number": 64, "value": 127}, "group": "control_change"}, {"time": 2671, "annotation": {"number": 64, "value": 38}, "group": "control_change"}, {"time": 2671, "annotation": {"number": 64, "value": 74}, "group": "control_change"}, {"time": 2683, "annotation": {"number": 64, "value": 74}, "group": "control_change"}, {"time": 2683, "annotation": {"number": 64, "value": 0}, "group": "control_change"}, {"time": 2703, "annotation": {"number": 64, "value": 0}, "group": "control_change"}, {"time": 2707, "annotation": {"number": 64, "value": 127}, "group": "control_change"}, {"time": 2740, "annotation": {"number": 64, "value": 38}, "group": "control_change"}, {"time": 2740, "annotation": {"number": 64, "value": 0}, "group": "control_change"}, {"time": 2742, "annotation": {"number": 64, "value": 127}, "group": "control_change"}, {"time": 2743, "annotation": {"number": 64, "value": 127}, "group": "control_change"}, {"time": 2754, "annotation": {"number": 64, "value": 38}, "group": "control_change"}, {"time": 2754, "annotation": {"number": 64, "value": 0}, "group": "control_change"}, {"time": 2776, "annotation": {"number": 64, "value": 38}, "group": "control_change"}, {"time": 2777, "annotation": {"number": 64, "value": 0}, "group": "control_change"}, {"time": 2779, "annotation": {"number": 64, "value": 74}, "group": "control_change"}, {"time": 2779, "annotation": {"number": 64, "value": 127}, "group": "control_change"}, {"time": 2813, "annotation": {"number": 64, "value": 74}, "group": "control_change"}, {"time": 2814, "annotation": {"number": 64, "value": 0}, "group": "control_change"}, {"time": 2815, "annotation": {"number": 64, "value": 127}, "group": "control_change"}, {"time": 2848, "annotation": {"number": 64, "value": 38}, "group": "control_change"}, {"time": 2849, "annotation": {"number": 64, "value": 0}, "group": "control_change"}, {"time": 2851, "annotation": {"number": 64, "value": 127}, "group": "control_change"}, {"time": 2884, "annotation": {"number": 64, "value": 38}, "group": "control_change"}, {"time": 2884, "annotation": {"number": 64, "value": 0}, "group": "control_change"}, {"time": 2886, "annotation": {"number": 64, "value": 127}, "group": "control_change"}, {"time": 2921, "annotation": {"number": 64, "value": 38}, "group": "control_change"}, {"time": 2921, "annotation": {"number": 64, "value": 0}, "group": "control_change"}, {"time": 2923, "annotation": {"number": 64, "value": 38}, "group": "control_change"}, {"time": 2923, "annotation": {"number": 64, "value": 127}, "group": "control_change"}, {"time": 2960, "annotation": {"number": 64, "value": 127}, "group": "control_change"}, {"time": 2996, "annotation": {"number": 64, "value": 38}, "group": "control_change"}, {"time": 2996, "annotation": {"number": 64, "value": 0}, "group": "control_change"}, {"time": 3009, "annotation": {"number": 64, "value": 0}, "group": "control_change"}, {"time": 3931, "annotation": {"number": 64, "value": 127}, "group": "control_change"}]}]}