{"metadata": {"schema_version": "0.2", "title": "None", "source_filename": "329.mid", "source_format": "midi"}, "resolution": 12, "tempos": [{"time": 0, "qpm": 63.49999259166753}], "key_signatures": [{"time": 0, "root": 0, "mode": "major"}], "time_signatures": [{"time": 0, "numerator": 4, "denominator": 4}], "tracks": [{"program": 0, "is_drum": false, "name": "MELODY", "notes": [{"time": 415, "pitch": 65, "duration": 4, "velocity": 114}, {"time": 418, "pitch": 67, "duration": 3, "velocity": 108}, {"time": 421, "pitch": 69, "duration": 3, "velocity": 117}, {"time": 424, "pitch": 67, "duration": 3, "velocity": 98}, {"time": 427, "pitch": 69, "duration": 3, "velocity": 108}, {"time": 430, "pitch": 67, "duration": 3, "velocity": 96}, {"time": 433, "pitch": 69, "duration": 4, "velocity": 114}, {"time": 436, "pitch": 72, "duration": 6, "velocity": 110}, {"time": 442, "pitch": 67, "duration": 12, "velocity": 113}, {"time": 454, "pitch": 69, "duration": 3, "velocity": 114}, {"time": 457, "pitch": 67, "duration": 6, "velocity": 116}, {"time": 463, "pitch": 69, "duration": 6, "velocity": 116}, {"time": 469, "pitch": 67, "duration": 6, "velocity": 114}, {"time": 475, "pitch": 65, "duration": 18, "velocity": 110}, {"time": 511, "pitch": 69, "duration": 3, "velocity": 114}, {"time": 514, "pitch": 72, "duration": 4, "velocity": 100}, {"time": 517, "pitch": 74, "duration": 3, "velocity": 113}, {"time": 520, "pitch": 72, "duration": 3, "velocity": 98}, {"time": 523, "pitch": 74, "duration": 3, "velocity": 108}, {"time": 526, "pitch": 72, "duration": 3, "velocity": 100}, {"time": 529, "pitch": 74, "duration": 4, "velocity": 114}, {"time": 532, "pitch": 77, "duration": 6, "velocity": 104}, {"time": 538, "pitch": 74, "duration": 9, "velocity": 113}, {"time": 550, "pitch": 74, "duration": 3, "velocity": 108}, {"time": 553, "pitch": 74, "duration": 3, "velocity": 113}, {"time": 556, "pitch": 74, "duration": 6, "velocity": 114}, {"time": 562, "pitch": 69, "duration": 4, "velocity": 108}, {"time": 565, "pitch": 72, "duration": 12, "velocity": 113}, {"time": 607, "pitch": 69, "duration": 3, "velocity": 117}, {"time": 610, "pitch": 72, "duration": 3, "velocity": 102}, {"time": 613, "pitch": 74, "duration": 3, "velocity": 110}, {"time": 616, "pitch": 72, "duration": 3, "velocity": 100}, {"time": 619, "pitch": 74, "duration": 3, "velocity": 104}, {"time": 622, "pitch": 72, "duration": 3, "velocity": 102}, {"time": 625, "pitch": 74, "duration": 3, "velocity": 108}, {"time": 628, "pitch": 77, "duration": 6, "velocity": 110}, {"time": 634, "pitch": 74, "duration": 9, "velocity": 110}, {"time": 646, "pitch": 77, "duration": 3, "velocity": 102}, {"time": 649, "pitch": 77, "duration": 3, "velocity": 113}, {"time": 652, "pitch": 77, "duration": 6, "velocity": 108}, {"time": 658, "pitch": 74, "duration": 4, "velocity": 107}, {"time": 661, "pitch": 72, "duration": 9, "velocity": 102}, {"time": 670, "pitch": 69, "duration": 3, "velocity": 104}, {"time": 673, "pitch": 69, "duration": 3, "velocity": 107}, {"time": 676, "pitch": 69, "duration": 6, "velocity": 104}, {"time": 682, "pitch": 67, "duration": 6, "velocity": 108}, {"time": 688, "pitch": 65, "duration": 15, "velocity": 98}, {"time": 718, "pitch": 67, "duration": 3, "velocity": 107}, {"time": 721, "pitch": 67, "duration": 3, "velocity": 100}, {"time": 724, "pitch": 67, "duration": 9, "velocity": 91}, {"time": 733, "pitch": 67, "duration": 6, "velocity": 108}, {"time": 739, "pitch": 67, "duration": 3, "velocity": 91}, {"time": 742, "pitch": 65, "duration": 9, "velocity": 110}, {"time": 751, "pitch": 65, "duration": 3, "velocity": 104}, {"time": 754, "pitch": 67, "duration": 15, "velocity": 108}, {"time": 799, "pitch": 65, "duration": 4, "velocity": 114}, {"time": 802, "pitch": 67, "duration": 3, "velocity": 108}, {"time": 805, "pitch": 69, "duration": 3, "velocity": 117}, {"time": 808, "pitch": 67, "duration": 3, "velocity": 98}, {"time": 811, "pitch": 69, "duration": 3, "velocity": 108}, {"time": 814, "pitch": 67, "duration": 3, "velocity": 96}, {"time": 817, "pitch": 69, "duration": 4, "velocity": 114}, {"time": 820, "pitch": 72, "duration": 6, "velocity": 110}, {"time": 826, "pitch": 67, "duration": 6, "velocity": 113}, {"time": 838, "pitch": 69, "duration": 3, "velocity": 114}, {"time": 841, "pitch": 67, "duration": 6, "velocity": 116}, {"time": 847, "pitch": 69, "duration": 6, "velocity": 116}, {"time": 853, "pitch": 67, "duration": 6, "velocity": 114}, {"time": 859, "pitch": 65, "duration": 18, "velocity": 110}, {"time": 895, "pitch": 69, "duration": 3, "velocity": 114}, {"time": 898, "pitch": 72, "duration": 4, "velocity": 100}, {"time": 901, "pitch": 74, "duration": 3, "velocity": 113}, {"time": 904, "pitch": 72, "duration": 3, "velocity": 98}, {"time": 907, "pitch": 74, "duration": 3, "velocity": 108}, {"time": 910, "pitch": 72, "duration": 3, "velocity": 100}, {"time": 913, "pitch": 74, "duration": 4, "velocity": 114}, {"time": 916, "pitch": 77, "duration": 6, "velocity": 104}, {"time": 922, "pitch": 74, "duration": 9, "velocity": 113}, {"time": 934, "pitch": 74, "duration": 3, "velocity": 108}, {"time": 937, "pitch": 74, "duration": 3, "velocity": 113}, {"time": 940, "pitch": 74, "duration": 6, "velocity": 114}, {"time": 946, "pitch": 69, "duration": 4, "velocity": 108}, {"time": 949, "pitch": 72, "duration": 15, "velocity": 113}, {"time": 991, "pitch": 69, "duration": 3, "velocity": 117}, {"time": 994, "pitch": 72, "duration": 3, "velocity": 102}, {"time": 997, "pitch": 74, "duration": 3, "velocity": 110}, {"time": 1000, "pitch": 72, "duration": 3, "velocity": 100}, {"time": 1003, "pitch": 74, "duration": 3, "velocity": 104}, {"time": 1006, "pitch": 72, "duration": 3, "velocity": 102}, {"time": 1009, "pitch": 74, "duration": 3, "velocity": 108}, {"time": 1012, "pitch": 77, "duration": 6, "velocity": 110}, {"time": 1018, "pitch": 74, "duration": 12, "velocity": 110}, {"time": 1030, "pitch": 77, "duration": 3, "velocity": 102}, {"time": 1033, "pitch": 77, "duration": 3, "velocity": 113}, {"time": 1036, "pitch": 77, "duration": 6, "velocity": 108}, {"time": 1042, "pitch": 74, "duration": 4, "velocity": 107}, {"time": 1045, "pitch": 72, "duration": 9, "velocity": 102}, {"time": 1054, "pitch": 69, "duration": 3, "velocity": 104}, {"time": 1057, "pitch": 69, "duration": 3, "velocity": 107}, {"time": 1060, "pitch": 69, "duration": 6, "velocity": 104}, {"time": 1066, "pitch": 67, "duration": 6, "velocity": 108}, {"time": 1072, "pitch": 65, "duration": 12, "velocity": 98}, {"time": 1102, "pitch": 67, "duration": 3, "velocity": 107}, {"time": 1105, "pitch": 67, "duration": 3, "velocity": 100}, {"time": 1108, "pitch": 67, "duration": 9, "velocity": 91}, {"time": 1117, "pitch": 69, "duration": 6, "velocity": 102}, {"time": 1123, "pitch": 69, "duration": 3, "velocity": 102}, {"time": 1126, "pitch": 67, "duration": 9, "velocity": 108}, {"time": 1135, "pitch": 65, "duration": 3, "velocity": 100}, {"time": 1138, "pitch": 65, "duration": 12, "velocity": 104}, {"time": 1177, "pitch": 77, "duration": 6, "velocity": 119}, {"time": 1183, "pitch": 76, "duration": 6, "velocity": 113}, {"time": 1189, "pitch": 74, "duration": 9, "velocity": 113}, {"time": 1198, "pitch": 72, "duration": 4, "velocity": 100}, {"time": 1201, "pitch": 69, "duration": 6, "velocity": 96}, {"time": 1207, "pitch": 74, "duration": 6, "velocity": 110}, {"time": 1213, "pitch": 72, "duration": 12, "velocity": 110}, {"time": 1231, "pitch": 69, "duration": 3, "velocity": 102}, {"time": 1234, "pitch": 72, "duration": 3, "velocity": 102}, {"time": 1237, "pitch": 74, "duration": 3, "velocity": 104}, {"time": 1240, "pitch": 72, "duration": 4, "velocity": 91}, {"time": 1243, "pitch": 74, "duration": 3, "velocity": 102}, {"time": 1246, "pitch": 72, "duration": 4, "velocity": 86}, {"time": 1249, "pitch": 69, "duration": 4, "velocity": 94}, {"time": 1252, "pitch": 67, "duration": 6, "velocity": 93}, {"time": 1258, "pitch": 69, "duration": 15, "velocity": 102}, {"time": 1279, "pitch": 69, "duration": 3, "velocity": 110}, {"time": 1282, "pitch": 67, "duration": 4, "velocity": 93}, {"time": 1285, "pitch": 65, "duration": 12, "velocity": 104}, {"time": 1297, "pitch": 77, "duration": 9, "velocity": 113}, {"time": 1306, "pitch": 77, "duration": 3, "velocity": 108}, {"time": 1309, "pitch": 76, "duration": 6, "velocity": 114}, {"time": 1315, "pitch": 72, "duration": 6, "velocity": 110}, {"time": 1321, "pitch": 72, "duration": 6, "velocity": 110}, {"time": 1327, "pitch": 69, "duration": 3, "velocity": 110}, {"time": 1330, "pitch": 74, "duration": 12, "velocity": 116}, {"time": 1354, "pitch": 72, "duration": 3, "velocity": 110}, {"time": 1357, "pitch": 74, "duration": 6, "velocity": 117}, {"time": 1363, "pitch": 72, "duration": 6, "velocity": 114}, {"time": 1369, "pitch": 74, "duration": 6, "velocity": 119}, {"time": 1375, "pitch": 79, "duration": 21, "velocity": 117}, {"time": 1420, "pitch": 72, "duration": 4, "velocity": 108}, {"time": 1423, "pitch": 74, "duration": 3, "velocity": 110}, {"time": 1426, "pitch": 77, "duration": 3, "velocity": 107}, {"time": 1429, "pitch": 81, "duration": 6, "velocity": 110}, {"time": 1435, "pitch": 81, "duration": 3, "velocity": 114}, {"time": 1438, "pitch": 81, "duration": 3, "velocity": 113}, {"time": 1441, "pitch": 81, "duration": 6, "velocity": 119}, {"time": 1447, "pitch": 79, "duration": 3, "velocity": 108}, {"time": 1450, "pitch": 77, "duration": 3, "velocity": 102}, {"time": 1453, "pitch": 81, "duration": 6, "velocity": 117}, {"time": 1459, "pitch": 81, "duration": 3, "velocity": 113}, {"time": 1462, "pitch": 81, "duration": 3, "velocity": 110}, {"time": 1465, "pitch": 81, "duration": 6, "velocity": 116}, {"time": 1471, "pitch": 79, "duration": 3, "velocity": 113}, {"time": 1474, "pitch": 77, "duration": 3, "velocity": 110}, {"time": 1477, "pitch": 79, "duration": 6, "velocity": 119}, {"time": 1483, "pitch": 79, "duration": 3, "velocity": 110}, {"time": 1486, "pitch": 81, "duration": 3, "velocity": 108}, {"time": 1489, "pitch": 79, "duration": 6, "velocity": 110}, {"time": 1495, "pitch": 77, "duration": 4, "velocity": 113}, {"time": 1498, "pitch": 74, "duration": 6, "velocity": 114}, {"time": 1504, "pitch": 72, "duration": 12, "velocity": 113}, {"time": 1525, "pitch": 77, "duration": 3, "velocity": 110}, {"time": 1528, "pitch": 77, "duration": 6, "velocity": 113}, {"time": 1534, "pitch": 77, "duration": 3, "velocity": 104}, {"time": 1537, "pitch": 77, "duration": 6, "velocity": 114}, {"time": 1543, "pitch": 77, "duration": 3, "velocity": 116}, {"time": 1546, "pitch": 74, "duration": 3, "velocity": 110}, {"time": 1549, "pitch": 72, "duration": 3, "velocity": 100}, {"time": 1552, "pitch": 81, "duration": 6, "velocity": 117}, {"time": 1558, "pitch": 81, "duration": 6, "velocity": 114}, {"time": 1564, "pitch": 79, "duration": 6, "velocity": 117}, {"time": 1570, "pitch": 77, "duration": 3, "velocity": 116}, {"time": 1573, "pitch": 79, "duration": 4, "velocity": 116}, {"time": 1576, "pitch": 79, "duration": 1, "velocity": 104}, {"time": 1582, "pitch": 81, "duration": 3, "velocity": 108}, {"time": 1585, "pitch": 79, "duration": 4, "velocity": 113}, {"time": 1588, "pitch": 77, "duration": 6, "velocity": 98}, {"time": 1594, "pitch": 74, "duration": 3, "velocity": 114}, {"time": 1597, "pitch": 79, "duration": 12, "velocity": 117}, {"time": 1612, "pitch": 72, "duration": 4, "velocity": 108}, {"time": 1615, "pitch": 74, "duration": 3, "velocity": 110}, {"time": 1618, "pitch": 77, "duration": 3, "velocity": 107}, {"time": 1621, "pitch": 81, "duration": 6, "velocity": 110}, {"time": 1627, "pitch": 81, "duration": 3, "velocity": 114}, {"time": 1630, "pitch": 81, "duration": 3, "velocity": 113}, {"time": 1633, "pitch": 81, "duration": 6, "velocity": 119}, {"time": 1639, "pitch": 79, "duration": 3, "velocity": 108}, {"time": 1642, "pitch": 77, "duration": 3, "velocity": 102}, {"time": 1645, "pitch": 81, "duration": 6, "velocity": 117}, {"time": 1651, "pitch": 81, "duration": 3, "velocity": 113}, {"time": 1654, "pitch": 81, "duration": 3, "velocity": 110}, {"time": 1657, "pitch": 81, "duration": 6, "velocity": 116}, {"time": 1663, "pitch": 79, "duration": 3, "velocity": 113}, {"time": 1666, "pitch": 77, "duration": 3, "velocity": 110}, {"time": 1669, "pitch": 79, "duration": 6, "velocity": 119}, {"time": 1675, "pitch": 79, "duration": 3, "velocity": 110}, {"time": 1678, "pitch": 81, "duration": 3, "velocity": 108}, {"time": 1681, "pitch": 79, "duration": 6, "velocity": 110}, {"time": 1687, "pitch": 77, "duration": 4, "velocity": 113}, {"time": 1690, "pitch": 74, "duration": 6, "velocity": 114}, {"time": 1696, "pitch": 72, "duration": 12, "velocity": 113}, {"time": 1717, "pitch": 77, "duration": 3, "velocity": 110}, {"time": 1720, "pitch": 77, "duration": 6, "velocity": 113}, {"time": 1726, "pitch": 77, "duration": 3, "velocity": 104}, {"time": 1729, "pitch": 77, "duration": 6, "velocity": 114}, {"time": 1735, "pitch": 77, "duration": 3, "velocity": 116}, {"time": 1738, "pitch": 74, "duration": 3, "velocity": 110}, {"time": 1741, "pitch": 72, "duration": 3, "velocity": 100}, {"time": 1744, "pitch": 81, "duration": 6, "velocity": 117}, {"time": 1750, "pitch": 81, "duration": 3, "velocity": 114}, {"time": 1753, "pitch": 81, "duration": 3, "velocity": 114}, {"time": 1756, "pitch": 79, "duration": 6, "velocity": 117}, {"time": 1762, "pitch": 77, "duration": 3, "velocity": 116}, {"time": 1765, "pitch": 79, "duration": 3, "velocity": 116}, {"time": 1768, "pitch": 79, "duration": 3, "velocity": 104}, {"time": 1771, "pitch": 79, "duration": 3, "velocity": 104}, {"time": 1774, "pitch": 81, "duration": 3, "velocity": 108}, {"time": 1777, "pitch": 79, "duration": 4, "velocity": 113}, {"time": 1780, "pitch": 77, "duration": 6, "velocity": 98}, {"time": 1786, "pitch": 77, "duration": 21, "velocity": 108}, {"time": 1927, "pitch": 65, "duration": 4, "velocity": 114}, {"time": 1930, "pitch": 67, "duration": 3, "velocity": 108}, {"time": 1933, "pitch": 69, "duration": 3, "velocity": 117}, {"time": 1936, "pitch": 67, "duration": 3, "velocity": 98}, {"time": 1939, "pitch": 69, "duration": 3, "velocity": 108}, {"time": 1942, "pitch": 67, "duration": 3, "velocity": 96}, {"time": 1945, "pitch": 69, "duration": 4, "velocity": 114}, {"time": 1948, "pitch": 72, "duration": 6, "velocity": 110}, {"time": 1954, "pitch": 67, "duration": 12, "velocity": 113}, {"time": 1966, "pitch": 69, "duration": 3, "velocity": 114}, {"time": 1969, "pitch": 67, "duration": 6, "velocity": 116}, {"time": 1975, "pitch": 69, "duration": 6, "velocity": 116}, {"time": 1981, "pitch": 67, "duration": 6, "velocity": 114}, {"time": 1987, "pitch": 65, "duration": 15, "velocity": 110}, {"time": 2023, "pitch": 69, "duration": 3, "velocity": 114}, {"time": 2026, "pitch": 72, "duration": 4, "velocity": 100}, {"time": 2029, "pitch": 74, "duration": 3, "velocity": 113}, {"time": 2032, "pitch": 72, "duration": 3, "velocity": 98}, {"time": 2035, "pitch": 74, "duration": 3, "velocity": 108}, {"time": 2038, "pitch": 72, "duration": 3, "velocity": 100}, {"time": 2041, "pitch": 74, "duration": 4, "velocity": 114}, {"time": 2044, "pitch": 77, "duration": 6, "velocity": 104}, {"time": 2050, "pitch": 74, "duration": 9, "velocity": 113}, {"time": 2062, "pitch": 74, "duration": 3, "velocity": 108}, {"time": 2065, "pitch": 74, "duration": 3, "velocity": 113}, {"time": 2068, "pitch": 74, "duration": 6, "velocity": 114}, {"time": 2074, "pitch": 69, "duration": 4, "velocity": 108}, {"time": 2077, "pitch": 72, "duration": 15, "velocity": 113}, {"time": 2119, "pitch": 69, "duration": 3, "velocity": 117}, {"time": 2122, "pitch": 72, "duration": 3, "velocity": 102}, {"time": 2125, "pitch": 74, "duration": 3, "velocity": 110}, {"time": 2128, "pitch": 72, "duration": 3, "velocity": 100}, {"time": 2131, "pitch": 74, "duration": 3, "velocity": 104}, {"time": 2134, "pitch": 72, "duration": 3, "velocity": 102}, {"time": 2137, "pitch": 74, "duration": 3, "velocity": 108}, {"time": 2140, "pitch": 77, "duration": 6, "velocity": 110}, {"time": 2146, "pitch": 74, "duration": 12, "velocity": 110}, {"time": 2158, "pitch": 77, "duration": 3, "velocity": 102}, {"time": 2161, "pitch": 77, "duration": 3, "velocity": 113}, {"time": 2164, "pitch": 77, "duration": 6, "velocity": 108}, {"time": 2170, "pitch": 74, "duration": 4, "velocity": 107}, {"time": 2173, "pitch": 72, "duration": 9, "velocity": 102}, {"time": 2182, "pitch": 69, "duration": 3, "velocity": 104}, {"time": 2185, "pitch": 69, "duration": 3, "velocity": 107}, {"time": 2188, "pitch": 69, "duration": 6, "velocity": 104}, {"time": 2194, "pitch": 67, "duration": 6, "velocity": 108}, {"time": 2200, "pitch": 65, "duration": 15, "velocity": 98}, {"time": 2230, "pitch": 67, "duration": 3, "velocity": 107}, {"time": 2233, "pitch": 67, "duration": 3, "velocity": 100}, {"time": 2236, "pitch": 67, "duration": 9, "velocity": 91}, {"time": 2245, "pitch": 69, "duration": 6, "velocity": 102}, {"time": 2251, "pitch": 69, "duration": 3, "velocity": 102}, {"time": 2254, "pitch": 67, "duration": 9, "velocity": 108}, {"time": 2263, "pitch": 65, "duration": 3, "velocity": 100}, {"time": 2266, "pitch": 65, "duration": 15, "velocity": 104}, {"time": 2305, "pitch": 77, "duration": 6, "velocity": 119}, {"time": 2311, "pitch": 76, "duration": 6, "velocity": 113}, {"time": 2317, "pitch": 74, "duration": 9, "velocity": 113}, {"time": 2326, "pitch": 72, "duration": 4, "velocity": 100}, {"time": 2329, "pitch": 69, "duration": 6, "velocity": 96}, {"time": 2335, "pitch": 74, "duration": 6, "velocity": 110}, {"time": 2341, "pitch": 72, "duration": 12, "velocity": 110}, {"time": 2359, "pitch": 69, "duration": 3, "velocity": 102}, {"time": 2362, "pitch": 72, "duration": 3, "velocity": 102}, {"time": 2365, "pitch": 74, "duration": 3, "velocity": 104}, {"time": 2368, "pitch": 72, "duration": 4, "velocity": 91}, {"time": 2371, "pitch": 74, "duration": 3, "velocity": 102}, {"time": 2374, "pitch": 72, "duration": 4, "velocity": 86}, {"time": 2377, "pitch": 69, "duration": 4, "velocity": 94}, {"time": 2380, "pitch": 67, "duration": 6, "velocity": 93}, {"time": 2386, "pitch": 69, "duration": 18, "velocity": 102}, {"time": 2407, "pitch": 69, "duration": 3, "velocity": 110}, {"time": 2410, "pitch": 67, "duration": 4, "velocity": 93}, {"time": 2413, "pitch": 65, "duration": 12, "velocity": 104}, {"time": 2425, "pitch": 77, "duration": 9, "velocity": 113}, {"time": 2434, "pitch": 77, "duration": 3, "velocity": 108}, {"time": 2437, "pitch": 76, "duration": 6, "velocity": 114}, {"time": 2443, "pitch": 72, "duration": 6, "velocity": 110}, {"time": 2449, "pitch": 72, "duration": 6, "velocity": 110}, {"time": 2455, "pitch": 69, "duration": 3, "velocity": 110}, {"time": 2458, "pitch": 74, "duration": 12, "velocity": 116}, {"time": 2482, "pitch": 72, "duration": 3, "velocity": 110}, {"time": 2485, "pitch": 74, "duration": 6, "velocity": 117}, {"time": 2491, "pitch": 72, "duration": 6, "velocity": 114}, {"time": 2497, "pitch": 74, "duration": 6, "velocity": 119}, {"time": 2503, "pitch": 79, "duration": 12, "velocity": 117}, {"time": 2548, "pitch": 72, "duration": 4, "velocity": 108}, {"time": 2551, "pitch": 74, "duration": 3, "velocity": 110}, {"time": 2554, "pitch": 77, "duration": 3, "velocity": 107}, {"time": 2557, "pitch": 81, "duration": 6, "velocity": 110}, {"time": 2563, "pitch": 81, "duration": 3, "velocity": 114}, {"time": 2566, "pitch": 81, "duration": 3, "velocity": 113}, {"time": 2569, "pitch": 81, "duration": 6, "velocity": 119}, {"time": 2575, "pitch": 79, "duration": 3, "velocity": 108}, {"time": 2578, "pitch": 77, "duration": 3, "velocity": 102}, {"time": 2581, "pitch": 81, "duration": 6, "velocity": 117}, {"time": 2587, "pitch": 81, "duration": 3, "velocity": 113}, {"time": 2590, "pitch": 81, "duration": 3, "velocity": 110}, {"time": 2593, "pitch": 81, "duration": 6, "velocity": 116}, {"time": 2599, "pitch": 79, "duration": 3, "velocity": 113}, {"time": 2602, "pitch": 77, "duration": 3, "velocity": 110}, {"time": 2605, "pitch": 79, "duration": 6, "velocity": 119}, {"time": 2611, "pitch": 79, "duration": 3, "velocity": 110}, {"time": 2614, "pitch": 81, "duration": 3, "velocity": 108}, {"time": 2617, "pitch": 79, "duration": 6, "velocity": 110}, {"time": 2623, "pitch": 77, "duration": 4, "velocity": 113}, {"time": 2626, "pitch": 74, "duration": 6, "velocity": 114}, {"time": 2632, "pitch": 72, "duration": 12, "velocity": 113}, {"time": 2653, "pitch": 77, "duration": 3, "velocity": 110}, {"time": 2656, "pitch": 77, "duration": 6, "velocity": 113}, {"time": 2662, "pitch": 77, "duration": 3, "velocity": 104}, {"time": 2665, "pitch": 77, "duration": 6, "velocity": 114}, {"time": 2671, "pitch": 77, "duration": 3, "velocity": 116}, {"time": 2674, "pitch": 74, "duration": 3, "velocity": 110}, {"time": 2677, "pitch": 72, "duration": 3, "velocity": 100}, {"time": 2680, "pitch": 81, "duration": 6, "velocity": 117}, {"time": 2686, "pitch": 81, "duration": 6, "velocity": 114}, {"time": 2692, "pitch": 79, "duration": 6, "velocity": 117}, {"time": 2698, "pitch": 77, "duration": 3, "velocity": 116}, {"time": 2701, "pitch": 79, "duration": 4, "velocity": 116}, {"time": 2704, "pitch": 79, "duration": 1, "velocity": 104}, {"time": 2710, "pitch": 81, "duration": 3, "velocity": 108}, {"time": 2713, "pitch": 79, "duration": 4, "velocity": 113}, {"time": 2716, "pitch": 77, "duration": 6, "velocity": 98}, {"time": 2722, "pitch": 74, "duration": 3, "velocity": 114}, {"time": 2725, "pitch": 79, "duration": 12, "velocity": 117}, {"time": 2740, "pitch": 72, "duration": 4, "velocity": 108}, {"time": 2743, "pitch": 74, "duration": 3, "velocity": 110}, {"time": 2746, "pitch": 77, "duration": 3, "velocity": 107}, {"time": 2749, "pitch": 81, "duration": 6, "velocity": 110}, {"time": 2755, "pitch": 81, "duration": 3, "velocity": 114}, {"time": 2758, "pitch": 81, "duration": 3, "velocity": 113}, {"time": 2761, "pitch": 81, "duration": 6, "velocity": 119}, {"time": 2767, "pitch": 79, "duration": 3, "velocity": 108}, {"time": 2770, "pitch": 77, "duration": 3, "velocity": 102}, {"time": 2773, "pitch": 81, "duration": 6, "velocity": 117}, {"time": 2779, "pitch": 81, "duration": 3, "velocity": 113}, {"time": 2782, "pitch": 81, "duration": 3, "velocity": 110}, {"time": 2785, "pitch": 81, "duration": 6, "velocity": 116}, {"time": 2791, "pitch": 79, "duration": 3, "velocity": 113}, {"time": 2794, "pitch": 77, "duration": 3, "velocity": 110}, {"time": 2797, "pitch": 79, "duration": 6, "velocity": 119}, {"time": 2803, "pitch": 79, "duration": 3, "velocity": 110}, {"time": 2806, "pitch": 81, "duration": 3, "velocity": 108}, {"time": 2809, "pitch": 79, "duration": 6, "velocity": 110}, {"time": 2815, "pitch": 77, "duration": 4, "velocity": 113}, {"time": 2818, "pitch": 74, "duration": 6, "velocity": 114}, {"time": 2824, "pitch": 72, "duration": 21, "velocity": 113}, {"time": 2845, "pitch": 77, "duration": 3, "velocity": 110}, {"time": 2848, "pitch": 77, "duration": 6, "velocity": 113}, {"time": 2854, "pitch": 77, "duration": 3, "velocity": 104}, {"time": 2857, "pitch": 77, "duration": 6, "velocity": 114}, {"time": 2863, "pitch": 77, "duration": 3, "velocity": 116}, {"time": 2866, "pitch": 74, "duration": 3, "velocity": 110}, {"time": 2869, "pitch": 72, "duration": 3, "velocity": 100}, {"time": 2872, "pitch": 81, "duration": 6, "velocity": 117}, {"time": 2878, "pitch": 81, "duration": 3, "velocity": 114}, {"time": 2881, "pitch": 81, "duration": 3, "velocity": 114}, {"time": 2884, "pitch": 79, "duration": 6, "velocity": 117}, {"time": 2890, "pitch": 77, "duration": 3, "velocity": 116}, {"time": 2893, "pitch": 79, "duration": 3, "velocity": 116}, {"time": 2896, "pitch": 79, "duration": 3, "velocity": 104}, {"time": 2899, "pitch": 79, "duration": 3, "velocity": 104}, {"time": 2902, "pitch": 81, "duration": 3, "velocity": 108}, {"time": 2905, "pitch": 79, "duration": 4, "velocity": 113}, {"time": 2908, "pitch": 77, "duration": 6, "velocity": 98}, {"time": 2914, "pitch": 77, "duration": 18, "velocity": 108}, {"time": 2941, "pitch": 77, "duration": 3, "velocity": 114}, {"time": 2944, "pitch": 77, "duration": 6, "velocity": 110}, {"time": 2950, "pitch": 77, "duration": 3, "velocity": 110}, {"time": 2953, "pitch": 77, "duration": 3, "velocity": 113}, {"time": 2956, "pitch": 77, "duration": 6, "velocity": 114}, {"time": 2962, "pitch": 74, "duration": 3, "velocity": 104}, {"time": 2965, "pitch": 72, "duration": 3, "velocity": 108}, {"time": 2968, "pitch": 81, "duration": 6, "velocity": 114}, {"time": 2974, "pitch": 81, "duration": 3, "velocity": 114}, {"time": 2977, "pitch": 81, "duration": 3, "velocity": 117}, {"time": 2980, "pitch": 79, "duration": 6, "velocity": 110}, {"time": 2986, "pitch": 77, "duration": 3, "velocity": 110}, {"time": 2989, "pitch": 79, "duration": 3, "velocity": 114}, {"time": 2992, "pitch": 79, "duration": 3, "velocity": 94}, {"time": 2995, "pitch": 79, "duration": 3, "velocity": 108}, {"time": 2998, "pitch": 81, "duration": 3, "velocity": 107}, {"time": 3001, "pitch": 79, "duration": 6, "velocity": 116}, {"time": 3007, "pitch": 77, "duration": 12, "velocity": 100}, {"time": 3019, "pitch": 77, "duration": 24, "velocity": 107}, {"time": 3220, "pitch": 72, "duration": 4, "velocity": 108}, {"time": 3223, "pitch": 74, "duration": 3, "velocity": 110}, {"time": 3226, "pitch": 77, "duration": 3, "velocity": 107}, {"time": 3229, "pitch": 81, "duration": 6, "velocity": 110}, {"time": 3235, "pitch": 81, "duration": 3, "velocity": 114}, {"time": 3238, "pitch": 81, "duration": 3, "velocity": 113}, {"time": 3241, "pitch": 81, "duration": 6, "velocity": 119}, {"time": 3247, "pitch": 79, "duration": 3, "velocity": 108}, {"time": 3250, "pitch": 77, "duration": 3, "velocity": 102}, {"time": 3253, "pitch": 81, "duration": 6, "velocity": 117}, {"time": 3259, "pitch": 81, "duration": 3, "velocity": 113}, {"time": 3262, "pitch": 81, "duration": 3, "velocity": 110}, {"time": 3265, "pitch": 81, "duration": 6, "velocity": 116}, {"time": 3271, "pitch": 79, "duration": 3, "velocity": 113}, {"time": 3274, "pitch": 77, "duration": 3, "velocity": 110}, {"time": 3277, "pitch": 79, "duration": 6, "velocity": 119}, {"time": 3283, "pitch": 79, "duration": 3, "velocity": 110}, {"time": 3286, "pitch": 81, "duration": 3, "velocity": 108}, {"time": 3289, "pitch": 79, "duration": 6, "velocity": 110}, {"time": 3295, "pitch": 77, "duration": 4, "velocity": 113}, {"time": 3298, "pitch": 74, "duration": 6, "velocity": 114}, {"time": 3304, "pitch": 72, "duration": 9, "velocity": 113}, {"time": 3325, "pitch": 77, "duration": 3, "velocity": 110}, {"time": 3328, "pitch": 77, "duration": 6, "velocity": 113}, {"time": 3334, "pitch": 77, "duration": 3, "velocity": 104}, {"time": 3337, "pitch": 77, "duration": 6, "velocity": 114}, {"time": 3343, "pitch": 77, "duration": 3, "velocity": 116}, {"time": 3346, "pitch": 74, "duration": 3, "velocity": 110}, {"time": 3349, "pitch": 72, "duration": 3, "velocity": 100}, {"time": 3352, "pitch": 81, "duration": 6, "velocity": 117}, {"time": 3358, "pitch": 81, "duration": 6, "velocity": 114}, {"time": 3364, "pitch": 79, "duration": 6, "velocity": 117}, {"time": 3370, "pitch": 77, "duration": 3, "velocity": 116}, {"time": 3373, "pitch": 79, "duration": 3, "velocity": 116}, {"time": 3376, "pitch": 79, "duration": 3, "velocity": 104}, {"time": 3379, "pitch": 79, "duration": 3, "velocity": 104}, {"time": 3382, "pitch": 81, "duration": 3, "velocity": 108}, {"time": 3385, "pitch": 79, "duration": 4, "velocity": 113}, {"time": 3388, "pitch": 77, "duration": 6, "velocity": 98}, {"time": 3394, "pitch": 74, "duration": 3, "velocity": 114}, {"time": 3397, "pitch": 79, "duration": 15, "velocity": 117}, {"time": 3412, "pitch": 72, "duration": 4, "velocity": 108}, {"time": 3415, "pitch": 74, "duration": 3, "velocity": 110}, {"time": 3418, "pitch": 77, "duration": 3, "velocity": 107}, {"time": 3421, "pitch": 81, "duration": 6, "velocity": 110}, {"time": 3427, "pitch": 81, "duration": 3, "velocity": 114}, {"time": 3430, "pitch": 81, "duration": 3, "velocity": 113}, {"time": 3433, "pitch": 81, "duration": 6, "velocity": 119}, {"time": 3439, "pitch": 79, "duration": 3, "velocity": 108}, {"time": 3442, "pitch": 77, "duration": 3, "velocity": 102}, {"time": 3445, "pitch": 81, "duration": 6, "velocity": 117}, {"time": 3451, "pitch": 81, "duration": 3, "velocity": 113}, {"time": 3454, "pitch": 81, "duration": 3, "velocity": 110}, {"time": 3457, "pitch": 81, "duration": 6, "velocity": 116}, {"time": 3463, "pitch": 79, "duration": 3, "velocity": 113}, {"time": 3466, "pitch": 77, "duration": 3, "velocity": 110}, {"time": 3469, "pitch": 79, "duration": 3, "velocity": 119}, {"time": 3472, "pitch": 79, "duration": 3, "velocity": 119}, {"time": 3475, "pitch": 79, "duration": 3, "velocity": 110}, {"time": 3478, "pitch": 81, "duration": 3, "velocity": 108}, {"time": 3481, "pitch": 79, "duration": 6, "velocity": 110}, {"time": 3487, "pitch": 77, "duration": 4, "velocity": 113}, {"time": 3490, "pitch": 74, "duration": 6, "velocity": 114}, {"time": 3496, "pitch": 72, "duration": 9, "velocity": 113}, {"time": 3517, "pitch": 77, "duration": 3, "velocity": 110}, {"time": 3520, "pitch": 77, "duration": 6, "velocity": 113}, {"time": 3526, "pitch": 77, "duration": 3, "velocity": 104}, {"time": 3529, "pitch": 77, "duration": 6, "velocity": 114}, {"time": 3535, "pitch": 77, "duration": 3, "velocity": 116}, {"time": 3538, "pitch": 74, "duration": 3, "velocity": 110}, {"time": 3541, "pitch": 72, "duration": 3, "velocity": 100}, {"time": 3544, "pitch": 81, "duration": 6, "velocity": 117}, {"time": 3550, "pitch": 81, "duration": 3, "velocity": 114}, {"time": 3553, "pitch": 81, "duration": 3, "velocity": 114}, {"time": 3556, "pitch": 79, "duration": 6, "velocity": 117}, {"time": 3562, "pitch": 77, "duration": 3, "velocity": 116}, {"time": 3565, "pitch": 79, "duration": 3, "velocity": 116}, {"time": 3568, "pitch": 79, "duration": 3, "velocity": 104}, {"time": 3571, "pitch": 79, "duration": 3, "velocity": 104}, {"time": 3574, "pitch": 81, "duration": 3, "velocity": 108}, {"time": 3577, "pitch": 79, "duration": 4, "velocity": 113}, {"time": 3580, "pitch": 77, "duration": 6, "velocity": 98}, {"time": 3586, "pitch": 77, "duration": 12, "velocity": 108}, {"time": 3613, "pitch": 77, "duration": 3, "velocity": 114}, {"time": 3616, "pitch": 77, "duration": 6, "velocity": 110}, {"time": 3622, "pitch": 77, "duration": 3, "velocity": 110}, {"time": 3625, "pitch": 77, "duration": 3, "velocity": 113}, {"time": 3628, "pitch": 77, "duration": 6, "velocity": 114}, {"time": 3634, "pitch": 74, "duration": 3, "velocity": 104}, {"time": 3637, "pitch": 72, "duration": 3, "velocity": 108}, {"time": 3640, "pitch": 81, "duration": 6, "velocity": 114}, {"time": 3646, "pitch": 81, "duration": 3, "velocity": 114}, {"time": 3649, "pitch": 81, "duration": 3, "velocity": 117}, {"time": 3652, "pitch": 79, "duration": 6, "velocity": 110}, {"time": 3658, "pitch": 77, "duration": 3, "velocity": 110}, {"time": 3661, "pitch": 79, "duration": 3, "velocity": 114}, {"time": 3664, "pitch": 79, "duration": 3, "velocity": 94}, {"time": 3667, "pitch": 79, "duration": 3, "velocity": 108}, {"time": 3670, "pitch": 81, "duration": 3, "velocity": 107}, {"time": 3673, "pitch": 79, "duration": 6, "velocity": 116}, {"time": 3679, "pitch": 77, "duration": 12, "velocity": 100}, {"time": 3691, "pitch": 77, "duration": 5, "velocity": 107}]}, {"program": 0, "is_drum": false, "name": "BRIDGE", "notes": [{"time": 229, "pitch": 65, "duration": 18, "velocity": 116}, {"time": 247, "pitch": 64, "duration": 30, "velocity": 116}, {"time": 277, "pitch": 62, "duration": 18, "velocity": 116}, {"time": 295, "pitch": 60, "duration": 30, "velocity": 116}, {"time": 325, "pitch": 58, "duration": 27, "velocity": 113}, {"time": 481, "pitch": 77, "duration": 12, "velocity": 92}, {"time": 493, "pitch": 76, "duration": 12, "velocity": 94}, {"time": 505, "pitch": 72, "duration": 12, "velocity": 93}, {"time": 517, "pitch": 74, "duration": 39, "velocity": 91}, {"time": 769, "pitch": 77, "duration": 14, "velocity": 113}, {"time": 781, "pitch": 76, "duration": 12, "velocity": 114}, {"time": 793, "pitch": 72, "duration": 27, "velocity": 96}, {"time": 865, "pitch": 77, "duration": 13, "velocity": 114}, {"time": 877, "pitch": 76, "duration": 12, "velocity": 98}, {"time": 889, "pitch": 72, "duration": 36, "velocity": 90}, {"time": 1813, "pitch": 81, "duration": 6, "velocity": 116}, {"time": 1819, "pitch": 84, "duration": 6, "velocity": 104}, {"time": 1825, "pitch": 81, "duration": 3, "velocity": 110}, {"time": 1828, "pitch": 79, "duration": 3, "velocity": 90}, {"time": 1831, "pitch": 79, "duration": 3, "velocity": 92}, {"time": 1834, "pitch": 77, "duration": 9, "velocity": 107}, {"time": 1843, "pitch": 74, "duration": 3, "velocity": 108}, {"time": 1846, "pitch": 72, "duration": 3, "velocity": 94}, {"time": 1849, "pitch": 74, "duration": 3, "velocity": 98}, {"time": 1852, "pitch": 77, "duration": 9, "velocity": 114}, {"time": 1861, "pitch": 74, "duration": 3, "velocity": 81}, {"time": 1864, "pitch": 72, "duration": 3, "velocity": 85}, {"time": 1867, "pitch": 67, "duration": 3, "velocity": 89}, {"time": 1870, "pitch": 65, "duration": 3, "velocity": 85}, {"time": 1873, "pitch": 65, "duration": 6, "velocity": 96}, {"time": 1879, "pitch": 62, "duration": 3, "velocity": 107}, {"time": 1882, "pitch": 60, "duration": 3, "velocity": 92}, {"time": 1885, "pitch": 62, "duration": 27, "velocity": 104}, {"time": 1993, "pitch": 77, "duration": 12, "velocity": 92}, {"time": 2005, "pitch": 76, "duration": 12, "velocity": 94}, {"time": 2017, "pitch": 72, "duration": 12, "velocity": 93}, {"time": 2029, "pitch": 74, "duration": 24, "velocity": 91}, {"time": 2281, "pitch": 77, "duration": 14, "velocity": 113}, {"time": 2293, "pitch": 76, "duration": 12, "velocity": 114}, {"time": 2305, "pitch": 72, "duration": 27, "velocity": 96}, {"time": 2377, "pitch": 77, "duration": 13, "velocity": 114}, {"time": 2389, "pitch": 76, "duration": 12, "velocity": 98}, {"time": 2401, "pitch": 72, "duration": 27, "velocity": 90}, {"time": 3019, "pitch": 65, "duration": 4, "velocity": 108}, {"time": 3022, "pitch": 67, "duration": 3, "velocity": 100}, {"time": 3025, "pitch": 69, "duration": 3, "velocity": 113}, {"time": 3028, "pitch": 72, "duration": 6, "velocity": 116}, {"time": 3034, "pitch": 72, "duration": 9, "velocity": 114}, {"time": 3055, "pitch": 74, "duration": 3, "velocity": 116}, {"time": 3058, "pitch": 77, "duration": 3, "velocity": 91}, {"time": 3061, "pitch": 81, "duration": 3, "velocity": 113}, {"time": 3064, "pitch": 79, "duration": 6, "velocity": 113}, {"time": 3073, "pitch": 79, "duration": 6, "velocity": 113}, {"time": 3079, "pitch": 77, "duration": 3, "velocity": 110}, {"time": 3082, "pitch": 77, "duration": 6, "velocity": 113}, {"time": 3088, "pitch": 72, "duration": 3, "velocity": 94}, {"time": 3091, "pitch": 69, "duration": 3, "velocity": 81}, {"time": 3094, "pitch": 74, "duration": 6, "velocity": 116}, {"time": 3100, "pitch": 72, "duration": 4, "velocity": 113}, {"time": 3103, "pitch": 67, "duration": 3, "velocity": 108}, {"time": 3106, "pitch": 65, "duration": 6, "velocity": 108}, {"time": 3112, "pitch": 69, "duration": 6, "velocity": 102}, {"time": 3112, "pitch": 74, "duration": 6, "velocity": 102}, {"time": 3118, "pitch": 69, "duration": 3, "velocity": 100}, {"time": 3118, "pitch": 74, "duration": 3, "velocity": 114}, {"time": 3121, "pitch": 69, "duration": 3, "velocity": 107}, {"time": 3121, "pitch": 74, "duration": 4, "velocity": 116}, {"time": 3124, "pitch": 72, "duration": 3, "velocity": 102}, {"time": 3127, "pitch": 72, "duration": 3, "velocity": 100}, {"time": 3130, "pitch": 70, "duration": 3, "velocity": 113}, {"time": 3133, "pitch": 70, "duration": 3, "velocity": 116}, {"time": 3136, "pitch": 81, "duration": 3, "velocity": 84}, {"time": 3139, "pitch": 79, "duration": 4, "velocity": 86}, {"time": 3142, "pitch": 77, "duration": 3, "velocity": 93}, {"time": 3145, "pitch": 74, "duration": 3, "velocity": 104}, {"time": 3148, "pitch": 72, "duration": 7, "velocity": 100}, {"time": 3155, "pitch": 69, "duration": 1, "velocity": 87}, {"time": 3156, "pitch": 67, "duration": 1, "velocity": 88}, {"time": 3157, "pitch": 65, "duration": 3, "velocity": 98}, {"time": 3160, "pitch": 67, "duration": 3, "velocity": 100}, {"time": 3163, "pitch": 69, "duration": 3, "velocity": 102}, {"time": 3166, "pitch": 72, "duration": 3, "velocity": 114}, {"time": 3169, "pitch": 74, "duration": 3, "velocity": 98}, {"time": 3172, "pitch": 77, "duration": 12, "velocity": 104}, {"time": 3211, "pitch": 81, "duration": 6, "velocity": 116}, {"time": 3217, "pitch": 79, "duration": 3, "velocity": 98}, {"time": 3220, "pitch": 76, "duration": 3, "velocity": 108}, {"time": 3223, "pitch": 74, "duration": 3, "velocity": 110}, {"time": 3226, "pitch": 72, "duration": 9, "velocity": 107}]}, {"program": 0, "is_drum": false, "name": "PIANO", "notes": [{"time": 37, "pitch": 53, "duration": 11, "velocity": 87}, {"time": 37, "pitch": 60, "duration": 12, "velocity": 87}, {"time": 37, "pitch": 65, "duration": 12, "velocity": 89}, {"time": 37, "pitch": 69, "duration": 11, "velocity": 78}, {"time": 49, "pitch": 53, "duration": 11, "velocity": 84}, {"time": 49, "pitch": 60, "duration": 4, "velocity": 83}, {"time": 49, "pitch": 65, "duration": 5, "velocity": 88}, {"time": 49, "pitch": 69, "duration": 5, "velocity": 87}, {"time": 61, "pitch": 46, "duration": 22, "velocity": 83}, {"time": 61, "pitch": 84, "duration": 4, "velocity": 107}, {"time": 64, "pitch": 77, "duration": 3, "velocity": 89}, {"time": 67, "pitch": 74, "duration": 3, "velocity": 88}, {"time": 70, "pitch": 77, "duration": 7, "velocity": 107}, {"time": 76, "pitch": 72, "duration": 5, "velocity": 80}, {"time": 85, "pitch": 46, "duration": 14, "velocity": 84}, {"time": 85, "pitch": 74, "duration": 7, "velocity": 89}, {"time": 85, "pitch": 77, "duration": 7, "velocity": 87}, {"time": 85, "pitch": 81, "duration": 6, "velocity": 89}, {"time": 103, "pitch": 48, "duration": 10, "velocity": 85}, {"time": 103, "pitch": 72, "duration": 9, "velocity": 88}, {"time": 103, "pitch": 76, "duration": 9, "velocity": 93}, {"time": 103, "pitch": 79, "duration": 10, "velocity": 88}, {"time": 118, "pitch": 60, "duration": 2, "velocity": 98}, {"time": 121, "pitch": 60, "duration": 3, "velocity": 88}, {"time": 124, "pitch": 62, "duration": 2, "velocity": 104}, {"time": 127, "pitch": 65, "duration": 4, "velocity": 117}, {"time": 133, "pitch": 53, "duration": 11, "velocity": 87}, {"time": 133, "pitch": 60, "duration": 12, "velocity": 87}, {"time": 133, "pitch": 65, "duration": 12, "velocity": 89}, {"time": 133, "pitch": 69, "duration": 11, "velocity": 78}, {"time": 145, "pitch": 53, "duration": 11, "velocity": 84}, {"time": 145, "pitch": 60, "duration": 4, "velocity": 83}, {"time": 145, "pitch": 65, "duration": 5, "velocity": 88}, {"time": 145, "pitch": 69, "duration": 5, "velocity": 87}, {"time": 157, "pitch": 46, "duration": 22, "velocity": 83}, {"time": 157, "pitch": 84, "duration": 4, "velocity": 107}, {"time": 160, "pitch": 77, "duration": 3, "velocity": 89}, {"time": 163, "pitch": 74, "duration": 3, "velocity": 88}, {"time": 166, "pitch": 77, "duration": 7, "velocity": 107}, {"time": 172, "pitch": 72, "duration": 5, "velocity": 80}, {"time": 181, "pitch": 46, "duration": 14, "velocity": 84}, {"time": 181, "pitch": 74, "duration": 7, "velocity": 89}, {"time": 181, "pitch": 77, "duration": 7, "velocity": 87}, {"time": 181, "pitch": 81, "duration": 6, "velocity": 89}, {"time": 190, "pitch": 72, "duration": 4, "velocity": 104}, {"time": 196, "pitch": 84, "duration": 3, "velocity": 107}, {"time": 199, "pitch": 48, "duration": 10, "velocity": 85}, {"time": 199, "pitch": 72, "duration": 9, "velocity": 88}, {"time": 199, "pitch": 76, "duration": 9, "velocity": 93}, {"time": 199, "pitch": 79, "duration": 3, "velocity": 104}, {"time": 214, "pitch": 60, "duration": 2, "velocity": 98}, {"time": 217, "pitch": 60, "duration": 3, "velocity": 88}, {"time": 220, "pitch": 62, "duration": 2, "velocity": 104}, {"time": 223, "pitch": 65, "duration": 4, "velocity": 117}, {"time": 229, "pitch": 41, "duration": 17, "velocity": 94}, {"time": 229, "pitch": 57, "duration": 15, "velocity": 94}, {"time": 229, "pitch": 60, "duration": 17, "velocity": 102}, {"time": 229, "pitch": 65, "duration": 16, "velocity": 98}, {"time": 247, "pitch": 48, "duration": 25, "velocity": 88}, {"time": 247, "pitch": 55, "duration": 23, "velocity": 104}, {"time": 247, "pitch": 60, "duration": 25, "velocity": 104}, {"time": 247, "pitch": 64, "duration": 24, "velocity": 104}, {"time": 268, "pitch": 67, "duration": 4, "velocity": 84}, {"time": 271, "pitch": 69, "duration": 2, "velocity": 98}, {"time": 274, "pitch": 76, "duration": 3, "velocity": 108}, {"time": 277, "pitch": 50, "duration": 16, "velocity": 93}, {"time": 277, "pitch": 57, "duration": 15, "velocity": 107}, {"time": 277, "pitch": 62, "duration": 15, "velocity": 116}, {"time": 277, "pitch": 65, "duration": 15, "velocity": 108}, {"time": 277, "pitch": 74, "duration": 4, "velocity": 113}, {"time": 295, "pitch": 45, "duration": 25, "velocity": 91}, {"time": 295, "pitch": 57, "duration": 12, "velocity": 107}, {"time": 295, "pitch": 60, "duration": 12, "velocity": 113}, {"time": 295, "pitch": 64, "duration": 12, "velocity": 104}, {"time": 310, "pitch": 60, "duration": 2, "velocity": 96}, {"time": 313, "pitch": 72, "duration": 3, "velocity": 113}, {"time": 316, "pitch": 69, "duration": 4, "velocity": 96}, {"time": 319, "pitch": 67, "duration": 3, "velocity": 94}, {"time": 322, "pitch": 65, "duration": 3, "velocity": 100}, {"time": 325, "pitch": 43, "duration": 31, "velocity": 88}, {"time": 325, "pitch": 55, "duration": 35, "velocity": 90}, {"time": 325, "pitch": 58, "duration": 35, "velocity": 97}, {"time": 325, "pitch": 62, "duration": 35, "velocity": 96}, {"time": 352, "pitch": 81, "duration": 3, "velocity": 107}, {"time": 355, "pitch": 79, "duration": 3, "velocity": 107}, {"time": 358, "pitch": 43, "duration": 11, "velocity": 90}, {"time": 361, "pitch": 55, "duration": 5, "velocity": 98}, {"time": 364, "pitch": 58, "duration": 4, "velocity": 109}, {"time": 367, "pitch": 62, "duration": 4, "velocity": 113}, {"time": 373, "pitch": 48, "duration": 43, "velocity": 93}, {"time": 373, "pitch": 55, "duration": 23, "velocity": 96}, {"time": 373, "pitch": 60, "duration": 23, "velocity": 100}, {"time": 373, "pitch": 65, "duration": 22, "velocity": 100}, {"time": 388, "pitch": 72, "duration": 3, "velocity": 88}, {"time": 391, "pitch": 77, "duration": 3, "velocity": 100}, {"time": 394, "pitch": 84, "duration": 4, "velocity": 100}, {"time": 397, "pitch": 55, "duration": 21, "velocity": 90}, {"time": 397, "pitch": 60, "duration": 21, "velocity": 110}, {"time": 397, "pitch": 64, "duration": 21, "velocity": 110}, {"time": 397, "pitch": 76, "duration": 5, "velocity": 98}, {"time": 421, "pitch": 53, "duration": 40, "velocity": 89}, {"time": 427, "pitch": 60, "duration": 24, "velocity": 73}, {"time": 433, "pitch": 67, "duration": 6, "velocity": 87}, {"time": 433, "pitch": 72, "duration": 24, "velocity": 87}, {"time": 439, "pitch": 69, "duration": 15, "velocity": 87}, {"time": 454, "pitch": 60, "duration": 6, "velocity": 78}, {"time": 457, "pitch": 67, "duration": 6, "velocity": 87}, {"time": 463, "pitch": 72, "duration": 24, "velocity": 86}, {"time": 469, "pitch": 50, "duration": 33, "velocity": 65}, {"time": 469, "pitch": 65, "duration": 12, "velocity": 80}, {"time": 469, "pitch": 69, "duration": 10, "velocity": 81}, {"time": 475, "pitch": 57, "duration": 34, "velocity": 67}, {"time": 481, "pitch": 62, "duration": 19, "velocity": 84}, {"time": 487, "pitch": 64, "duration": 13, "velocity": 84}, {"time": 499, "pitch": 65, "duration": 22, "velocity": 88}, {"time": 505, "pitch": 50, "duration": 7, "velocity": 87}, {"time": 511, "pitch": 62, "duration": 5, "velocity": 78}, {"time": 517, "pitch": 46, "duration": 42, "velocity": 86}, {"time": 523, "pitch": 53, "duration": 36, "velocity": 75}, {"time": 529, "pitch": 62, "duration": 12, "velocity": 86}, {"time": 529, "pitch": 70, "duration": 9, "velocity": 86}, {"time": 535, "pitch": 58, "duration": 8, "velocity": 70}, {"time": 541, "pitch": 65, "duration": 18, "velocity": 80}, {"time": 541, "pitch": 70, "duration": 8, "velocity": 86}, {"time": 553, "pitch": 58, "duration": 6, "velocity": 78}, {"time": 559, "pitch": 62, "duration": 5, "velocity": 71}, {"time": 559, "pitch": 70, "duration": 6, "velocity": 78}, {"time": 565, "pitch": 53, "duration": 39, "velocity": 83}, {"time": 571, "pitch": 60, "duration": 32, "velocity": 64}, {"time": 577, "pitch": 67, "duration": 7, "velocity": 75}, {"time": 577, "pitch": 72, "duration": 20, "velocity": 69}, {"time": 583, "pitch": 69, "duration": 15, "velocity": 78}, {"time": 598, "pitch": 65, "duration": 4, "velocity": 73}, {"time": 601, "pitch": 67, "duration": 6, "velocity": 87}, {"time": 613, "pitch": 46, "duration": 43, "velocity": 70}, {"time": 613, "pitch": 58, "duration": 28, "velocity": 72}, {"time": 613, "pitch": 62, "duration": 8, "velocity": 73}, {"time": 613, "pitch": 65, "duration": 8, "velocity": 76}, {"time": 613, "pitch": 69, "duration": 7, "velocity": 76}, {"time": 625, "pitch": 62, "duration": 10, "velocity": 75}, {"time": 625, "pitch": 65, "duration": 22, "velocity": 70}, {"time": 625, "pitch": 69, "duration": 9, "velocity": 77}, {"time": 637, "pitch": 62, "duration": 11, "velocity": 70}, {"time": 637, "pitch": 69, "duration": 10, "velocity": 75}, {"time": 646, "pitch": 58, "duration": 10, "velocity": 77}, {"time": 649, "pitch": 62, "duration": 5, "velocity": 83}, {"time": 652, "pitch": 65, "duration": 5, "velocity": 78}, {"time": 655, "pitch": 69, "duration": 15, "velocity": 70}, {"time": 661, "pitch": 53, "duration": 12, "velocity": 81}, {"time": 661, "pitch": 60, "duration": 20, "velocity": 81}, {"time": 661, "pitch": 65, "duration": 11, "velocity": 86}, {"time": 673, "pitch": 52, "duration": 13, "velocity": 86}, {"time": 673, "pitch": 64, "duration": 13, "velocity": 86}, {"time": 673, "pitch": 67, "duration": 12, "velocity": 80}, {"time": 685, "pitch": 50, "duration": 18, "velocity": 81}, {"time": 685, "pitch": 62, "duration": 9, "velocity": 76}, {"time": 685, "pitch": 69, "duration": 9, "velocity": 84}, {"time": 694, "pitch": 57, "duration": 8, "velocity": 58}, {"time": 697, "pitch": 62, "duration": 13, "velocity": 84}, {"time": 709, "pitch": 43, "duration": 43, "velocity": 77}, {"time": 709, "pitch": 58, "duration": 11, "velocity": 82}, {"time": 709, "pitch": 67, "duration": 8, "velocity": 80}, {"time": 721, "pitch": 58, "duration": 9, "velocity": 77}, {"time": 721, "pitch": 67, "duration": 7, "velocity": 84}, {"time": 727, "pitch": 55, "duration": 9, "velocity": 36}, {"time": 733, "pitch": 58, "duration": 9, "velocity": 77}, {"time": 733, "pitch": 67, "duration": 7, "velocity": 80}, {"time": 745, "pitch": 58, "duration": 6, "velocity": 84}, {"time": 745, "pitch": 67, "duration": 7, "velocity": 88}, {"time": 751, "pitch": 55, "duration": 6, "velocity": 78}, {"time": 757, "pitch": 48, "duration": 41, "velocity": 76}, {"time": 757, "pitch": 60, "duration": 4, "velocity": 73}, {"time": 757, "pitch": 64, "duration": 7, "velocity": 80}, {"time": 757, "pitch": 67, "duration": 11, "velocity": 30}, {"time": 763, "pitch": 55, "duration": 31, "velocity": 65}, {"time": 769, "pitch": 60, "duration": 13, "velocity": 80}, {"time": 775, "pitch": 65, "duration": 4, "velocity": 87}, {"time": 778, "pitch": 67, "duration": 3, "velocity": 86}, {"time": 781, "pitch": 64, "duration": 10, "velocity": 98}, {"time": 790, "pitch": 60, "duration": 3, "velocity": 86}, {"time": 793, "pitch": 62, "duration": 12, "velocity": 107}, {"time": 805, "pitch": 41, "duration": 39, "velocity": 80}, {"time": 805, "pitch": 60, "duration": 10, "velocity": 85}, {"time": 805, "pitch": 65, "duration": 7, "velocity": 89}, {"time": 811, "pitch": 53, "duration": 10, "velocity": 65}, {"time": 817, "pitch": 60, "duration": 6, "velocity": 78}, {"time": 817, "pitch": 65, "duration": 8, "velocity": 86}, {"time": 823, "pitch": 53, "duration": 9, "velocity": 38}, {"time": 829, "pitch": 60, "duration": 9, "velocity": 81}, {"time": 829, "pitch": 69, "duration": 8, "velocity": 85}, {"time": 838, "pitch": 53, "duration": 11, "velocity": 71}, {"time": 841, "pitch": 64, "duration": 7, "velocity": 88}, {"time": 847, "pitch": 65, "duration": 12, "velocity": 87}, {"time": 853, "pitch": 50, "duration": 43, "velocity": 81}, {"time": 853, "pitch": 62, "duration": 8, "velocity": 77}, {"time": 853, "pitch": 69, "duration": 7, "velocity": 85}, {"time": 859, "pitch": 57, "duration": 36, "velocity": 40}, {"time": 865, "pitch": 64, "duration": 7, "velocity": 83}, {"time": 865, "pitch": 69, "duration": 6, "velocity": 81}, {"time": 871, "pitch": 65, "duration": 5, "velocity": 84}, {"time": 871, "pitch": 69, "duration": 6, "velocity": 74}, {"time": 877, "pitch": 62, "duration": 17, "velocity": 73}, {"time": 883, "pitch": 69, "duration": 3, "velocity": 87}, {"time": 883, "pitch": 76, "duration": 3, "velocity": 86}, {"time": 886, "pitch": 69, "duration": 8, "velocity": 79}, {"time": 886, "pitch": 77, "duration": 9, "velocity": 102}, {"time": 895, "pitch": 69, "duration": 4, "velocity": 76}, {"time": 895, "pitch": 74, "duration": 4, "velocity": 84}, {"time": 901, "pitch": 46, "duration": 44, "velocity": 84}, {"time": 907, "pitch": 58, "duration": 10, "velocity": 76}, {"time": 913, "pitch": 62, "duration": 8, "velocity": 88}, {"time": 913, "pitch": 70, "duration": 8, "velocity": 93}, {"time": 919, "pitch": 58, "duration": 10, "velocity": 65}, {"time": 925, "pitch": 62, "duration": 9, "velocity": 84}, {"time": 925, "pitch": 70, "duration": 9, "velocity": 83}, {"time": 934, "pitch": 58, "duration": 5, "velocity": 70}, {"time": 937, "pitch": 62, "duration": 7, "velocity": 88}, {"time": 937, "pitch": 70, "duration": 6, "velocity": 84}, {"time": 943, "pitch": 58, "duration": 7, "velocity": 78}, {"time": 949, "pitch": 53, "duration": 48, "velocity": 83}, {"time": 949, "pitch": 60, "duration": 10, "velocity": 87}, {"time": 949, "pitch": 69, "duration": 10, "velocity": 91}, {"time": 973, "pitch": 64, "duration": 7, "velocity": 84}, {"time": 973, "pitch": 69, "duration": 6, "velocity": 84}, {"time": 979, "pitch": 65, "duration": 6, "velocity": 88}, {"time": 985, "pitch": 64, "duration": 7, "velocity": 88}, {"time": 991, "pitch": 65, "duration": 6, "velocity": 83}, {"time": 997, "pitch": 46, "duration": 49, "velocity": 74}, {"time": 997, "pitch": 58, "duration": 29, "velocity": 78}, {"time": 997, "pitch": 62, "duration": 8, "velocity": 81}, {"time": 997, "pitch": 69, "duration": 8, "velocity": 88}, {"time": 1009, "pitch": 62, "duration": 10, "velocity": 89}, {"time": 1009, "pitch": 69, "duration": 7, "velocity": 88}, {"time": 1021, "pitch": 62, "duration": 8, "velocity": 75}, {"time": 1021, "pitch": 65, "duration": 9, "velocity": 78}, {"time": 1021, "pitch": 69, "duration": 8, "velocity": 73}, {"time": 1030, "pitch": 58, "duration": 5, "velocity": 71}, {"time": 1033, "pitch": 62, "duration": 7, "velocity": 88}, {"time": 1033, "pitch": 69, "duration": 8, "velocity": 88}, {"time": 1039, "pitch": 58, "duration": 7, "velocity": 78}, {"time": 1045, "pitch": 53, "duration": 12, "velocity": 76}, {"time": 1045, "pitch": 60, "duration": 10, "velocity": 72}, {"time": 1045, "pitch": 65, "duration": 10, "velocity": 79}, {"time": 1045, "pitch": 69, "duration": 10, "velocity": 82}, {"time": 1057, "pitch": 52, "duration": 12, "velocity": 80}, {"time": 1057, "pitch": 60, "duration": 9, "velocity": 69}, {"time": 1057, "pitch": 64, "duration": 12, "velocity": 81}, {"time": 1057, "pitch": 67, "duration": 9, "velocity": 73}, {"time": 1069, "pitch": 50, "duration": 17, "velocity": 74}, {"time": 1069, "pitch": 62, "duration": 7, "velocity": 72}, {"time": 1069, "pitch": 65, "duration": 7, "velocity": 65}, {"time": 1069, "pitch": 69, "duration": 6, "velocity": 75}, {"time": 1075, "pitch": 57, "duration": 10, "velocity": 44}, {"time": 1081, "pitch": 62, "duration": 10, "velocity": 85}, {"time": 1081, "pitch": 65, "duration": 6, "velocity": 84}, {"time": 1081, "pitch": 69, "duration": 7, "velocity": 84}, {"time": 1087, "pitch": 50, "duration": 7, "velocity": 71}, {"time": 1093, "pitch": 43, "duration": 16, "velocity": 84}, {"time": 1093, "pitch": 58, "duration": 9, "velocity": 78}, {"time": 1093, "pitch": 62, "duration": 8, "velocity": 75}, {"time": 1093, "pitch": 67, "duration": 7, "velocity": 75}, {"time": 1105, "pitch": 58, "duration": 7, "velocity": 83}, {"time": 1105, "pitch": 62, "duration": 11, "velocity": 87}, {"time": 1105, "pitch": 67, "duration": 8, "velocity": 87}, {"time": 1111, "pitch": 43, "duration": 6, "velocity": 82}, {"time": 1117, "pitch": 48, "duration": 24, "velocity": 77}, {"time": 1117, "pitch": 60, "duration": 9, "velocity": 76}, {"time": 1117, "pitch": 64, "duration": 9, "velocity": 83}, {"time": 1117, "pitch": 67, "duration": 9, "velocity": 79}, {"time": 1129, "pitch": 60, "duration": 10, "velocity": 79}, {"time": 1129, "pitch": 64, "duration": 12, "velocity": 83}, {"time": 1129, "pitch": 67, "duration": 11, "velocity": 82}, {"time": 1141, "pitch": 53, "duration": 22, "velocity": 65}, {"time": 1141, "pitch": 60, "duration": 13, "velocity": 72}, {"time": 1141, "pitch": 65, "duration": 12, "velocity": 71}, {"time": 1141, "pitch": 69, "duration": 13, "velocity": 81}, {"time": 1153, "pitch": 41, "duration": 28, "velocity": 85}, {"time": 1159, "pitch": 55, "duration": 5, "velocity": 78}, {"time": 1162, "pitch": 57, "duration": 4, "velocity": 80}, {"time": 1165, "pitch": 53, "duration": 11, "velocity": 89}, {"time": 1165, "pitch": 60, "duration": 2, "velocity": 30}, {"time": 1168, "pitch": 60, "duration": 5, "velocity": 76}, {"time": 1171, "pitch": 65, "duration": 2, "velocity": 90}, {"time": 1174, "pitch": 65, "duration": 1, "velocity": 86}, {"time": 1174, "pitch": 67, "duration": 7, "velocity": 102}, {"time": 1177, "pitch": 53, "duration": 6, "velocity": 87}, {"time": 1180, "pitch": 60, "duration": 4, "velocity": 91}, {"time": 1183, "pitch": 65, "duration": 3, "velocity": 84}, {"time": 1186, "pitch": 67, "duration": 3, "velocity": 70}, {"time": 1189, "pitch": 46, "duration": 19, "velocity": 86}, {"time": 1192, "pitch": 53, "duration": 15, "velocity": 71}, {"time": 1195, "pitch": 58, "duration": 11, "velocity": 80}, {"time": 1198, "pitch": 62, "duration": 10, "velocity": 77}, {"time": 1201, "pitch": 69, "duration": 11, "velocity": 87}, {"time": 1207, "pitch": 65, "duration": 11, "velocity": 78}, {"time": 1213, "pitch": 45, "duration": 18, "velocity": 81}, {"time": 1219, "pitch": 52, "duration": 7, "velocity": 62}, {"time": 1225, "pitch": 60, "duration": 8, "velocity": 91}, {"time": 1225, "pitch": 67, "duration": 11, "velocity": 90}, {"time": 1231, "pitch": 52, "duration": 1, "velocity": 71}, {"time": 1231, "pitch": 64, "duration": 7, "velocity": 77}, {"time": 1237, "pitch": 43, "duration": 12, "velocity": 84}, {"time": 1237, "pitch": 58, "duration": 8, "velocity": 83}, {"time": 1237, "pitch": 62, "duration": 11, "velocity": 86}, {"time": 1237, "pitch": 67, "duration": 7, "velocity": 86}, {"time": 1249, "pitch": 48, "duration": 7, "velocity": 79}, {"time": 1249, "pitch": 60, "duration": 10, "velocity": 82}, {"time": 1249, "pitch": 64, "duration": 6, "velocity": 83}, {"time": 1249, "pitch": 67, "duration": 10, "velocity": 80}, {"time": 1255, "pitch": 64, "duration": 5, "velocity": 75}, {"time": 1261, "pitch": 41, "duration": 18, "velocity": 77}, {"time": 1261, "pitch": 60, "duration": 7, "velocity": 74}, {"time": 1261, "pitch": 65, "duration": 4, "velocity": 78}, {"time": 1261, "pitch": 69, "duration": 5, "velocity": 81}, {"time": 1267, "pitch": 48, "duration": 13, "velocity": 69}, {"time": 1270, "pitch": 53, "duration": 10, "velocity": 83}, {"time": 1273, "pitch": 57, "duration": 8, "velocity": 89}, {"time": 1279, "pitch": 60, "duration": 6, "velocity": 87}, {"time": 1285, "pitch": 50, "duration": 23, "velocity": 74}, {"time": 1285, "pitch": 62, "duration": 8, "velocity": 74}, {"time": 1285, "pitch": 65, "duration": 8, "velocity": 69}, {"time": 1285, "pitch": 69, "duration": 7, "velocity": 78}, {"time": 1297, "pitch": 62, "duration": 9, "velocity": 83}, {"time": 1297, "pitch": 65, "duration": 10, "velocity": 80}, {"time": 1297, "pitch": 69, "duration": 7, "velocity": 80}, {"time": 1309, "pitch": 45, "duration": 18, "velocity": 80}, {"time": 1309, "pitch": 57, "duration": 18, "velocity": 76}, {"time": 1309, "pitch": 60, "duration": 8, "velocity": 80}, {"time": 1309, "pitch": 64, "duration": 8, "velocity": 78}, {"time": 1309, "pitch": 69, "duration": 8, "velocity": 78}, {"time": 1321, "pitch": 60, "duration": 8, "velocity": 80}, {"time": 1321, "pitch": 64, "duration": 10, "velocity": 86}, {"time": 1321, "pitch": 69, "duration": 9, "velocity": 84}, {"time": 1333, "pitch": 46, "duration": 24, "velocity": 74}, {"time": 1333, "pitch": 58, "duration": 22, "velocity": 77}, {"time": 1333, "pitch": 62, "duration": 9, "velocity": 80}, {"time": 1333, "pitch": 65, "duration": 9, "velocity": 84}, {"time": 1345, "pitch": 62, "duration": 12, "velocity": 92}, {"time": 1345, "pitch": 65, "duration": 10, "velocity": 88}, {"time": 1357, "pitch": 48, "duration": 16, "velocity": 83}, {"time": 1357, "pitch": 60, "duration": 9, "velocity": 84}, {"time": 1357, "pitch": 64, "duration": 9, "velocity": 88}, {"time": 1357, "pitch": 67, "duration": 8, "velocity": 87}, {"time": 1369, "pitch": 60, "duration": 9, "velocity": 89}, {"time": 1369, "pitch": 64, "duration": 10, "velocity": 93}, {"time": 1369, "pitch": 67, "duration": 8, "velocity": 90}, {"time": 1375, "pitch": 48, "duration": 4, "velocity": 84}, {"time": 1381, "pitch": 48, "duration": 21, "velocity": 88}, {"time": 1381, "pitch": 60, "duration": 8, "velocity": 88}, {"time": 1381, "pitch": 64, "duration": 11, "velocity": 91}, {"time": 1381, "pitch": 67, "duration": 11, "velocity": 89}, {"time": 1390, "pitch": 55, "duration": 16, "velocity": 84}, {"time": 1393, "pitch": 60, "duration": 8, "velocity": 89}, {"time": 1396, "pitch": 62, "duration": 4, "velocity": 86}, {"time": 1399, "pitch": 64, "duration": 6, "velocity": 88}, {"time": 1402, "pitch": 67, "duration": 5, "velocity": 90}, {"time": 1408, "pitch": 36, "duration": 9, "velocity": 92}, {"time": 1411, "pitch": 48, "duration": 6, "velocity": 92}, {"time": 1414, "pitch": 36, "duration": 3, "velocity": 91}, {"time": 1414, "pitch": 60, "duration": 4, "velocity": 97}, {"time": 1417, "pitch": 60, "duration": 1, "velocity": 94}, {"time": 1417, "pitch": 64, "duration": 4, "velocity": 87}, {"time": 1417, "pitch": 67, "duration": 4, "velocity": 83}, {"time": 1417, "pitch": 72, "duration": 3, "velocity": 96}, {"time": 1420, "pitch": 48, "duration": 10, "velocity": 102}, {"time": 1423, "pitch": 60, "duration": 7, "velocity": 104}, {"time": 1423, "pitch": 64, "duration": 7, "velocity": 80}, {"time": 1423, "pitch": 67, "duration": 7, "velocity": 79}, {"time": 1423, "pitch": 72, "duration": 7, "velocity": 93}, {"time": 1426, "pitch": 36, "duration": 4, "velocity": 107}, {"time": 1430, "pitch": 41, "duration": 18, "velocity": 58}, {"time": 1430, "pitch": 48, "duration": 1, "velocity": 62}, {"time": 1430, "pitch": 53, "duration": 4, "velocity": 58}, {"time": 1430, "pitch": 57, "duration": 3, "velocity": 87}, {"time": 1430, "pitch": 60, "duration": 1, "velocity": 85}, {"time": 1430, "pitch": 65, "duration": 3, "velocity": 80}, {"time": 1436, "pitch": 57, "duration": 1, "velocity": 50}, {"time": 1436, "pitch": 60, "duration": 2, "velocity": 46}, {"time": 1436, "pitch": 65, "duration": 2, "velocity": 40}, {"time": 1438, "pitch": 53, "duration": 4, "velocity": 38}, {"time": 1442, "pitch": 57, "duration": 6, "velocity": 94}, {"time": 1442, "pitch": 60, "duration": 7, "velocity": 92}, {"time": 1442, "pitch": 65, "duration": 6, "velocity": 96}, {"time": 1444, "pitch": 53, "duration": 4, "velocity": 45}, {"time": 1448, "pitch": 48, "duration": 2, "velocity": 46}, {"time": 1450, "pitch": 41, "duration": 1, "velocity": 68}, {"time": 1454, "pitch": 38, "duration": 14, "velocity": 77}, {"time": 1454, "pitch": 50, "duration": 5, "velocity": 69}, {"time": 1454, "pitch": 57, "duration": 5, "velocity": 80}, {"time": 1454, "pitch": 62, "duration": 4, "velocity": 80}, {"time": 1454, "pitch": 65, "duration": 4, "velocity": 76}, {"time": 1462, "pitch": 50, "duration": 3, "velocity": 72}, {"time": 1466, "pitch": 57, "duration": 3, "velocity": 91}, {"time": 1466, "pitch": 62, "duration": 7, "velocity": 90}, {"time": 1466, "pitch": 65, "duration": 6, "velocity": 90}, {"time": 1468, "pitch": 50, "duration": 4, "velocity": 67}, {"time": 1472, "pitch": 38, "duration": 1, "velocity": 75}, {"time": 1474, "pitch": 57, "duration": 1, "velocity": 53}, {"time": 1478, "pitch": 31, "duration": 14, "velocity": 68}, {"time": 1478, "pitch": 43, "duration": 6, "velocity": 63}, {"time": 1478, "pitch": 55, "duration": 6, "velocity": 67}, {"time": 1478, "pitch": 58, "duration": 6, "velocity": 69}, {"time": 1478, "pitch": 62, "duration": 6, "velocity": 68}, {"time": 1478, "pitch": 65, "duration": 6, "velocity": 68}, {"time": 1486, "pitch": 43, "duration": 4, "velocity": 69}, {"time": 1490, "pitch": 55, "duration": 6, "velocity": 102}, {"time": 1490, "pitch": 58, "duration": 6, "velocity": 90}, {"time": 1490, "pitch": 62, "duration": 7, "velocity": 72}, {"time": 1490, "pitch": 67, "duration": 6, "velocity": 92}, {"time": 1492, "pitch": 43, "duration": 5, "velocity": 63}, {"time": 1496, "pitch": 31, "duration": 1, "velocity": 83}, {"time": 1502, "pitch": 36, "duration": 15, "velocity": 56}, {"time": 1502, "pitch": 48, "duration": 6, "velocity": 53}, {"time": 1502, "pitch": 55, "duration": 7, "velocity": 71}, {"time": 1502, "pitch": 60, "duration": 6, "velocity": 63}, {"time": 1502, "pitch": 64, "duration": 6, "velocity": 72}, {"time": 1510, "pitch": 48, "duration": 4, "velocity": 80}, {"time": 1514, "pitch": 55, "duration": 6, "velocity": 100}, {"time": 1514, "pitch": 60, "duration": 6, "velocity": 90}, {"time": 1514, "pitch": 64, "duration": 6, "velocity": 90}, {"time": 1516, "pitch": 48, "duration": 4, "velocity": 80}, {"time": 1520, "pitch": 36, "duration": 1, "velocity": 92}, {"time": 1526, "pitch": 38, "duration": 15, "velocity": 85}, {"time": 1526, "pitch": 50, "duration": 5, "velocity": 83}, {"time": 1526, "pitch": 62, "duration": 7, "velocity": 94}, {"time": 1526, "pitch": 65, "duration": 7, "velocity": 87}, {"time": 1526, "pitch": 69, "duration": 7, "velocity": 92}, {"time": 1534, "pitch": 50, "duration": 5, "velocity": 67}, {"time": 1538, "pitch": 62, "duration": 5, "velocity": 97}, {"time": 1538, "pitch": 65, "duration": 6, "velocity": 99}, {"time": 1538, "pitch": 69, "duration": 6, "velocity": 95}, {"time": 1540, "pitch": 50, "duration": 4, "velocity": 53}, {"time": 1544, "pitch": 38, "duration": 1, "velocity": 65}, {"time": 1550, "pitch": 45, "duration": 13, "velocity": 62}, {"time": 1550, "pitch": 52, "duration": 5, "velocity": 67}, {"time": 1550, "pitch": 57, "duration": 6, "velocity": 87}, {"time": 1550, "pitch": 60, "duration": 6, "velocity": 83}, {"time": 1550, "pitch": 64, "duration": 6, "velocity": 77}, {"time": 1550, "pitch": 69, "duration": 6, "velocity": 87}, {"time": 1558, "pitch": 52, "duration": 6, "velocity": 72}, {"time": 1562, "pitch": 57, "duration": 3, "velocity": 92}, {"time": 1562, "pitch": 62, "duration": 3, "velocity": 77}, {"time": 1562, "pitch": 66, "duration": 3, "velocity": 84}, {"time": 1562, "pitch": 69, "duration": 3, "velocity": 95}, {"time": 1568, "pitch": 50, "duration": 2, "velocity": 65}, {"time": 1574, "pitch": 43, "duration": 14, "velocity": 54}, {"time": 1574, "pitch": 50, "duration": 19, "velocity": 34}, {"time": 1574, "pitch": 55, "duration": 6, "velocity": 87}, {"time": 1574, "pitch": 62, "duration": 7, "velocity": 88}, {"time": 1574, "pitch": 67, "duration": 7, "velocity": 80}, {"time": 1582, "pitch": 55, "duration": 4, "velocity": 75}, {"time": 1586, "pitch": 58, "duration": 3, "velocity": 110}, {"time": 1586, "pitch": 62, "duration": 6, "velocity": 91}, {"time": 1586, "pitch": 67, "duration": 5, "velocity": 102}, {"time": 1592, "pitch": 55, "duration": 2, "velocity": 64}, {"time": 1594, "pitch": 43, "duration": 1, "velocity": 69}, {"time": 1598, "pitch": 36, "duration": 16, "velocity": 81}, {"time": 1598, "pitch": 48, "duration": 6, "velocity": 72}, {"time": 1598, "pitch": 60, "duration": 5, "velocity": 81}, {"time": 1598, "pitch": 64, "duration": 6, "velocity": 77}, {"time": 1598, "pitch": 67, "duration": 6, "velocity": 84}, {"time": 1606, "pitch": 48, "duration": 4, "velocity": 84}, {"time": 1610, "pitch": 55, "duration": 5, "velocity": 104}, {"time": 1610, "pitch": 60, "duration": 3, "velocity": 84}, {"time": 1610, "pitch": 64, "duration": 3, "velocity": 94}, {"time": 1610, "pitch": 67, "duration": 2, "velocity": 83}, {"time": 1610, "pitch": 69, "duration": 1, "velocity": 58}, {"time": 1612, "pitch": 48, "duration": 6, "velocity": 94}, {"time": 1616, "pitch": 36, "duration": 1, "velocity": 81}, {"time": 1616, "pitch": 60, "duration": 3, "velocity": 100}, {"time": 1622, "pitch": 41, "duration": 18, "velocity": 58}, {"time": 1622, "pitch": 48, "duration": 16, "velocity": 62}, {"time": 1622, "pitch": 53, "duration": 4, "velocity": 58}, {"time": 1622, "pitch": 57, "duration": 3, "velocity": 87}, {"time": 1622, "pitch": 60, "duration": 4, "velocity": 85}, {"time": 1622, "pitch": 65, "duration": 3, "velocity": 80}, {"time": 1628, "pitch": 57, "duration": 1, "velocity": 50}, {"time": 1628, "pitch": 60, "duration": 2, "velocity": 46}, {"time": 1628, "pitch": 65, "duration": 2, "velocity": 40}, {"time": 1630, "pitch": 53, "duration": 4, "velocity": 38}, {"time": 1634, "pitch": 57, "duration": 6, "velocity": 94}, {"time": 1634, "pitch": 60, "duration": 7, "velocity": 92}, {"time": 1634, "pitch": 65, "duration": 6, "velocity": 96}, {"time": 1636, "pitch": 53, "duration": 4, "velocity": 45}, {"time": 1640, "pitch": 48, "duration": 2, "velocity": 46}, {"time": 1642, "pitch": 41, "duration": 1, "velocity": 68}, {"time": 1646, "pitch": 38, "duration": 14, "velocity": 77}, {"time": 1646, "pitch": 50, "duration": 5, "velocity": 69}, {"time": 1646, "pitch": 57, "duration": 5, "velocity": 80}, {"time": 1646, "pitch": 62, "duration": 4, "velocity": 80}, {"time": 1646, "pitch": 65, "duration": 4, "velocity": 76}, {"time": 1654, "pitch": 50, "duration": 3, "velocity": 72}, {"time": 1658, "pitch": 57, "duration": 3, "velocity": 91}, {"time": 1658, "pitch": 62, "duration": 7, "velocity": 90}, {"time": 1658, "pitch": 65, "duration": 6, "velocity": 90}, {"time": 1660, "pitch": 50, "duration": 4, "velocity": 67}, {"time": 1664, "pitch": 38, "duration": 1, "velocity": 75}, {"time": 1666, "pitch": 57, "duration": 1, "velocity": 53}, {"time": 1670, "pitch": 31, "duration": 14, "velocity": 68}, {"time": 1670, "pitch": 43, "duration": 6, "velocity": 63}, {"time": 1670, "pitch": 55, "duration": 6, "velocity": 67}, {"time": 1670, "pitch": 58, "duration": 6, "velocity": 69}, {"time": 1670, "pitch": 62, "duration": 6, "velocity": 68}, {"time": 1670, "pitch": 65, "duration": 6, "velocity": 68}, {"time": 1678, "pitch": 43, "duration": 4, "velocity": 69}, {"time": 1682, "pitch": 55, "duration": 6, "velocity": 102}, {"time": 1682, "pitch": 58, "duration": 6, "velocity": 90}, {"time": 1682, "pitch": 62, "duration": 7, "velocity": 72}, {"time": 1682, "pitch": 67, "duration": 6, "velocity": 92}, {"time": 1684, "pitch": 43, "duration": 5, "velocity": 63}, {"time": 1688, "pitch": 31, "duration": 1, "velocity": 83}, {"time": 1694, "pitch": 36, "duration": 15, "velocity": 56}, {"time": 1694, "pitch": 48, "duration": 6, "velocity": 53}, {"time": 1694, "pitch": 55, "duration": 7, "velocity": 71}, {"time": 1694, "pitch": 60, "duration": 6, "velocity": 63}, {"time": 1694, "pitch": 64, "duration": 6, "velocity": 72}, {"time": 1702, "pitch": 48, "duration": 4, "velocity": 80}, {"time": 1706, "pitch": 55, "duration": 6, "velocity": 100}, {"time": 1706, "pitch": 60, "duration": 6, "velocity": 90}, {"time": 1706, "pitch": 64, "duration": 6, "velocity": 90}, {"time": 1708, "pitch": 48, "duration": 4, "velocity": 80}, {"time": 1712, "pitch": 36, "duration": 1, "velocity": 92}, {"time": 1718, "pitch": 38, "duration": 15, "velocity": 85}, {"time": 1718, "pitch": 50, "duration": 5, "velocity": 83}, {"time": 1718, "pitch": 62, "duration": 7, "velocity": 94}, {"time": 1718, "pitch": 65, "duration": 7, "velocity": 87}, {"time": 1718, "pitch": 69, "duration": 7, "velocity": 92}, {"time": 1726, "pitch": 50, "duration": 5, "velocity": 67}, {"time": 1730, "pitch": 62, "duration": 5, "velocity": 97}, {"time": 1730, "pitch": 65, "duration": 6, "velocity": 99}, {"time": 1730, "pitch": 69, "duration": 6, "velocity": 95}, {"time": 1732, "pitch": 50, "duration": 4, "velocity": 53}, {"time": 1736, "pitch": 38, "duration": 1, "velocity": 65}, {"time": 1742, "pitch": 45, "duration": 13, "velocity": 62}, {"time": 1742, "pitch": 52, "duration": 5, "velocity": 67}, {"time": 1742, "pitch": 57, "duration": 6, "velocity": 87}, {"time": 1742, "pitch": 60, "duration": 6, "velocity": 83}, {"time": 1742, "pitch": 64, "duration": 6, "velocity": 77}, {"time": 1742, "pitch": 69, "duration": 6, "velocity": 87}, {"time": 1750, "pitch": 52, "duration": 6, "velocity": 72}, {"time": 1754, "pitch": 57, "duration": 3, "velocity": 92}, {"time": 1754, "pitch": 62, "duration": 3, "velocity": 77}, {"time": 1754, "pitch": 66, "duration": 3, "velocity": 84}, {"time": 1754, "pitch": 69, "duration": 3, "velocity": 95}, {"time": 1760, "pitch": 50, "duration": 2, "velocity": 65}, {"time": 1766, "pitch": 43, "duration": 14, "velocity": 54}, {"time": 1766, "pitch": 50, "duration": 19, "velocity": 34}, {"time": 1766, "pitch": 55, "duration": 6, "velocity": 87}, {"time": 1766, "pitch": 62, "duration": 7, "velocity": 88}, {"time": 1766, "pitch": 67, "duration": 7, "velocity": 80}, {"time": 1774, "pitch": 55, "duration": 4, "velocity": 75}, {"time": 1778, "pitch": 58, "duration": 3, "velocity": 110}, {"time": 1778, "pitch": 62, "duration": 6, "velocity": 91}, {"time": 1778, "pitch": 67, "duration": 5, "velocity": 102}, {"time": 1784, "pitch": 55, "duration": 2, "velocity": 64}, {"time": 1786, "pitch": 43, "duration": 1, "velocity": 69}, {"time": 1790, "pitch": 36, "duration": 16, "velocity": 81}, {"time": 1790, "pitch": 48, "duration": 6, "velocity": 72}, {"time": 1790, "pitch": 60, "duration": 5, "velocity": 81}, {"time": 1790, "pitch": 64, "duration": 6, "velocity": 77}, {"time": 1790, "pitch": 67, "duration": 6, "velocity": 84}, {"time": 1798, "pitch": 48, "duration": 4, "velocity": 84}, {"time": 1802, "pitch": 55, "duration": 5, "velocity": 104}, {"time": 1802, "pitch": 60, "duration": 3, "velocity": 84}, {"time": 1802, "pitch": 64, "duration": 3, "velocity": 94}, {"time": 1802, "pitch": 67, "duration": 2, "velocity": 83}, {"time": 1802, "pitch": 69, "duration": 1, "velocity": 58}, {"time": 1804, "pitch": 48, "duration": 6, "velocity": 94}, {"time": 1808, "pitch": 36, "duration": 1, "velocity": 81}, {"time": 1808, "pitch": 60, "duration": 3, "velocity": 100}, {"time": 1810, "pitch": 62, "duration": 2, "velocity": 106}, {"time": 1813, "pitch": 46, "duration": 15, "velocity": 69}, {"time": 1813, "pitch": 62, "duration": 7, "velocity": 76}, {"time": 1813, "pitch": 65, "duration": 8, "velocity": 77}, {"time": 1813, "pitch": 69, "duration": 6, "velocity": 77}, {"time": 1819, "pitch": 58, "duration": 8, "velocity": 78}, {"time": 1825, "pitch": 62, "duration": 8, "velocity": 86}, {"time": 1825, "pitch": 65, "duration": 10, "velocity": 88}, {"time": 1825, "pitch": 69, "duration": 7, "velocity": 88}, {"time": 1831, "pitch": 46, "duration": 7, "velocity": 71}, {"time": 1837, "pitch": 45, "duration": 11, "velocity": 78}, {"time": 1837, "pitch": 60, "duration": 8, "velocity": 84}, {"time": 1837, "pitch": 64, "duration": 11, "velocity": 86}, {"time": 1837, "pitch": 69, "duration": 8, "velocity": 86}, {"time": 1849, "pitch": 50, "duration": 13, "velocity": 72}, {"time": 1849, "pitch": 62, "duration": 9, "velocity": 84}, {"time": 1849, "pitch": 65, "duration": 8, "velocity": 87}, {"time": 1849, "pitch": 69, "duration": 7, "velocity": 83}, {"time": 1861, "pitch": 43, "duration": 12, "velocity": 77}, {"time": 1861, "pitch": 58, "duration": 9, "velocity": 81}, {"time": 1861, "pitch": 62, "duration": 12, "velocity": 84}, {"time": 1861, "pitch": 67, "duration": 8, "velocity": 86}, {"time": 1873, "pitch": 48, "duration": 8, "velocity": 73}, {"time": 1873, "pitch": 60, "duration": 9, "velocity": 73}, {"time": 1873, "pitch": 64, "duration": 12, "velocity": 76}, {"time": 1873, "pitch": 67, "duration": 10, "velocity": 72}, {"time": 1885, "pitch": 46, "duration": 26, "velocity": 77}, {"time": 1885, "pitch": 58, "duration": 26, "velocity": 81}, {"time": 1885, "pitch": 62, "duration": 26, "velocity": 71}, {"time": 1885, "pitch": 65, "duration": 26, "velocity": 71}, {"time": 1885, "pitch": 69, "duration": 26, "velocity": 76}, {"time": 1933, "pitch": 41, "duration": 39, "velocity": 80}, {"time": 1933, "pitch": 60, "duration": 10, "velocity": 85}, {"time": 1933, "pitch": 65, "duration": 7, "velocity": 89}, {"time": 1939, "pitch": 53, "duration": 10, "velocity": 65}, {"time": 1945, "pitch": 60, "duration": 6, "velocity": 78}, {"time": 1945, "pitch": 65, "duration": 8, "velocity": 86}, {"time": 1951, "pitch": 53, "duration": 9, "velocity": 38}, {"time": 1957, "pitch": 60, "duration": 9, "velocity": 81}, {"time": 1957, "pitch": 69, "duration": 8, "velocity": 85}, {"time": 1966, "pitch": 53, "duration": 11, "velocity": 71}, {"time": 1969, "pitch": 64, "duration": 7, "velocity": 88}, {"time": 1975, "pitch": 65, "duration": 12, "velocity": 87}, {"time": 1981, "pitch": 50, "duration": 43, "velocity": 81}, {"time": 1981, "pitch": 62, "duration": 8, "velocity": 77}, {"time": 1981, "pitch": 69, "duration": 7, "velocity": 85}, {"time": 1987, "pitch": 57, "duration": 36, "velocity": 40}, {"time": 1993, "pitch": 64, "duration": 7, "velocity": 83}, {"time": 1993, "pitch": 69, "duration": 6, "velocity": 81}, {"time": 1999, "pitch": 65, "duration": 5, "velocity": 84}, {"time": 1999, "pitch": 69, "duration": 6, "velocity": 74}, {"time": 2005, "pitch": 62, "duration": 17, "velocity": 73}, {"time": 2011, "pitch": 69, "duration": 3, "velocity": 87}, {"time": 2011, "pitch": 76, "duration": 3, "velocity": 86}, {"time": 2014, "pitch": 69, "duration": 8, "velocity": 79}, {"time": 2014, "pitch": 77, "duration": 9, "velocity": 102}, {"time": 2023, "pitch": 69, "duration": 4, "velocity": 76}, {"time": 2023, "pitch": 74, "duration": 4, "velocity": 84}, {"time": 2029, "pitch": 46, "duration": 44, "velocity": 84}, {"time": 2035, "pitch": 58, "duration": 10, "velocity": 76}, {"time": 2041, "pitch": 62, "duration": 8, "velocity": 88}, {"time": 2041, "pitch": 70, "duration": 8, "velocity": 93}, {"time": 2047, "pitch": 58, "duration": 10, "velocity": 65}, {"time": 2053, "pitch": 62, "duration": 9, "velocity": 84}, {"time": 2053, "pitch": 70, "duration": 9, "velocity": 83}, {"time": 2062, "pitch": 58, "duration": 5, "velocity": 70}, {"time": 2065, "pitch": 62, "duration": 7, "velocity": 88}, {"time": 2065, "pitch": 70, "duration": 6, "velocity": 84}, {"time": 2071, "pitch": 58, "duration": 7, "velocity": 78}, {"time": 2077, "pitch": 53, "duration": 48, "velocity": 83}, {"time": 2077, "pitch": 60, "duration": 10, "velocity": 87}, {"time": 2077, "pitch": 69, "duration": 10, "velocity": 91}, {"time": 2101, "pitch": 64, "duration": 7, "velocity": 84}, {"time": 2101, "pitch": 69, "duration": 6, "velocity": 84}, {"time": 2107, "pitch": 65, "duration": 6, "velocity": 88}, {"time": 2113, "pitch": 64, "duration": 7, "velocity": 88}, {"time": 2119, "pitch": 65, "duration": 6, "velocity": 83}, {"time": 2125, "pitch": 46, "duration": 49, "velocity": 74}, {"time": 2125, "pitch": 58, "duration": 29, "velocity": 78}, {"time": 2125, "pitch": 62, "duration": 8, "velocity": 81}, {"time": 2125, "pitch": 69, "duration": 8, "velocity": 88}, {"time": 2137, "pitch": 62, "duration": 10, "velocity": 89}, {"time": 2137, "pitch": 69, "duration": 7, "velocity": 88}, {"time": 2149, "pitch": 62, "duration": 8, "velocity": 75}, {"time": 2149, "pitch": 65, "duration": 9, "velocity": 78}, {"time": 2149, "pitch": 69, "duration": 8, "velocity": 73}, {"time": 2158, "pitch": 58, "duration": 5, "velocity": 71}, {"time": 2161, "pitch": 62, "duration": 7, "velocity": 88}, {"time": 2161, "pitch": 69, "duration": 8, "velocity": 88}, {"time": 2167, "pitch": 58, "duration": 7, "velocity": 78}, {"time": 2173, "pitch": 53, "duration": 12, "velocity": 76}, {"time": 2173, "pitch": 60, "duration": 10, "velocity": 72}, {"time": 2173, "pitch": 65, "duration": 10, "velocity": 79}, {"time": 2173, "pitch": 69, "duration": 10, "velocity": 82}, {"time": 2185, "pitch": 52, "duration": 12, "velocity": 80}, {"time": 2185, "pitch": 60, "duration": 9, "velocity": 69}, {"time": 2185, "pitch": 64, "duration": 12, "velocity": 81}, {"time": 2185, "pitch": 67, "duration": 9, "velocity": 73}, {"time": 2197, "pitch": 50, "duration": 17, "velocity": 74}, {"time": 2197, "pitch": 62, "duration": 7, "velocity": 72}, {"time": 2197, "pitch": 65, "duration": 7, "velocity": 65}, {"time": 2197, "pitch": 69, "duration": 6, "velocity": 75}, {"time": 2203, "pitch": 57, "duration": 10, "velocity": 44}, {"time": 2209, "pitch": 62, "duration": 10, "velocity": 85}, {"time": 2209, "pitch": 65, "duration": 6, "velocity": 84}, {"time": 2209, "pitch": 69, "duration": 7, "velocity": 84}, {"time": 2215, "pitch": 50, "duration": 7, "velocity": 71}, {"time": 2221, "pitch": 43, "duration": 16, "velocity": 84}, {"time": 2221, "pitch": 58, "duration": 9, "velocity": 78}, {"time": 2221, "pitch": 62, "duration": 8, "velocity": 75}, {"time": 2221, "pitch": 67, "duration": 7, "velocity": 75}, {"time": 2233, "pitch": 58, "duration": 7, "velocity": 83}, {"time": 2233, "pitch": 62, "duration": 11, "velocity": 87}, {"time": 2233, "pitch": 67, "duration": 8, "velocity": 87}, {"time": 2239, "pitch": 43, "duration": 6, "velocity": 82}, {"time": 2245, "pitch": 48, "duration": 24, "velocity": 77}, {"time": 2245, "pitch": 60, "duration": 9, "velocity": 76}, {"time": 2245, "pitch": 64, "duration": 9, "velocity": 83}, {"time": 2245, "pitch": 67, "duration": 9, "velocity": 79}, {"time": 2257, "pitch": 60, "duration": 10, "velocity": 79}, {"time": 2257, "pitch": 64, "duration": 12, "velocity": 83}, {"time": 2257, "pitch": 67, "duration": 11, "velocity": 82}, {"time": 2269, "pitch": 53, "duration": 22, "velocity": 65}, {"time": 2269, "pitch": 60, "duration": 13, "velocity": 72}, {"time": 2269, "pitch": 65, "duration": 12, "velocity": 71}, {"time": 2269, "pitch": 69, "duration": 13, "velocity": 81}, {"time": 2281, "pitch": 41, "duration": 28, "velocity": 85}, {"time": 2287, "pitch": 55, "duration": 5, "velocity": 78}, {"time": 2290, "pitch": 57, "duration": 4, "velocity": 80}, {"time": 2293, "pitch": 53, "duration": 11, "velocity": 89}, {"time": 2293, "pitch": 60, "duration": 2, "velocity": 30}, {"time": 2296, "pitch": 60, "duration": 5, "velocity": 76}, {"time": 2299, "pitch": 65, "duration": 2, "velocity": 90}, {"time": 2302, "pitch": 65, "duration": 1, "velocity": 86}, {"time": 2302, "pitch": 67, "duration": 7, "velocity": 102}, {"time": 2305, "pitch": 53, "duration": 6, "velocity": 87}, {"time": 2308, "pitch": 60, "duration": 4, "velocity": 91}, {"time": 2311, "pitch": 65, "duration": 3, "velocity": 84}, {"time": 2314, "pitch": 67, "duration": 3, "velocity": 70}, {"time": 2317, "pitch": 46, "duration": 19, "velocity": 86}, {"time": 2320, "pitch": 53, "duration": 15, "velocity": 71}, {"time": 2323, "pitch": 58, "duration": 11, "velocity": 80}, {"time": 2326, "pitch": 62, "duration": 10, "velocity": 77}, {"time": 2329, "pitch": 69, "duration": 11, "velocity": 87}, {"time": 2335, "pitch": 65, "duration": 11, "velocity": 78}, {"time": 2341, "pitch": 45, "duration": 18, "velocity": 81}, {"time": 2347, "pitch": 52, "duration": 7, "velocity": 62}, {"time": 2353, "pitch": 60, "duration": 8, "velocity": 91}, {"time": 2353, "pitch": 67, "duration": 11, "velocity": 90}, {"time": 2359, "pitch": 52, "duration": 1, "velocity": 71}, {"time": 2359, "pitch": 64, "duration": 7, "velocity": 77}, {"time": 2365, "pitch": 43, "duration": 12, "velocity": 84}, {"time": 2365, "pitch": 58, "duration": 8, "velocity": 83}, {"time": 2365, "pitch": 62, "duration": 11, "velocity": 86}, {"time": 2365, "pitch": 67, "duration": 7, "velocity": 86}, {"time": 2377, "pitch": 48, "duration": 7, "velocity": 79}, {"time": 2377, "pitch": 60, "duration": 10, "velocity": 82}, {"time": 2377, "pitch": 64, "duration": 6, "velocity": 83}, {"time": 2377, "pitch": 67, "duration": 10, "velocity": 80}, {"time": 2383, "pitch": 64, "duration": 5, "velocity": 75}, {"time": 2389, "pitch": 41, "duration": 18, "velocity": 77}, {"time": 2389, "pitch": 60, "duration": 7, "velocity": 74}, {"time": 2389, "pitch": 65, "duration": 4, "velocity": 78}, {"time": 2389, "pitch": 69, "duration": 5, "velocity": 81}, {"time": 2395, "pitch": 48, "duration": 13, "velocity": 69}, {"time": 2398, "pitch": 53, "duration": 10, "velocity": 83}, {"time": 2401, "pitch": 57, "duration": 8, "velocity": 89}, {"time": 2407, "pitch": 60, "duration": 6, "velocity": 87}, {"time": 2413, "pitch": 50, "duration": 23, "velocity": 74}, {"time": 2413, "pitch": 62, "duration": 8, "velocity": 74}, {"time": 2413, "pitch": 65, "duration": 8, "velocity": 69}, {"time": 2413, "pitch": 69, "duration": 7, "velocity": 78}, {"time": 2425, "pitch": 62, "duration": 9, "velocity": 83}, {"time": 2425, "pitch": 65, "duration": 10, "velocity": 80}, {"time": 2425, "pitch": 69, "duration": 7, "velocity": 80}, {"time": 2437, "pitch": 45, "duration": 18, "velocity": 80}, {"time": 2437, "pitch": 57, "duration": 18, "velocity": 76}, {"time": 2437, "pitch": 60, "duration": 8, "velocity": 80}, {"time": 2437, "pitch": 64, "duration": 8, "velocity": 78}, {"time": 2437, "pitch": 69, "duration": 8, "velocity": 78}, {"time": 2449, "pitch": 60, "duration": 8, "velocity": 80}, {"time": 2449, "pitch": 64, "duration": 10, "velocity": 86}, {"time": 2449, "pitch": 69, "duration": 9, "velocity": 84}, {"time": 2461, "pitch": 46, "duration": 24, "velocity": 74}, {"time": 2461, "pitch": 58, "duration": 22, "velocity": 77}, {"time": 2461, "pitch": 62, "duration": 9, "velocity": 80}, {"time": 2461, "pitch": 65, "duration": 9, "velocity": 84}, {"time": 2473, "pitch": 62, "duration": 12, "velocity": 92}, {"time": 2473, "pitch": 65, "duration": 10, "velocity": 88}, {"time": 2485, "pitch": 48, "duration": 16, "velocity": 83}, {"time": 2485, "pitch": 60, "duration": 9, "velocity": 84}, {"time": 2485, "pitch": 64, "duration": 9, "velocity": 88}, {"time": 2485, "pitch": 67, "duration": 8, "velocity": 87}, {"time": 2497, "pitch": 60, "duration": 9, "velocity": 89}, {"time": 2497, "pitch": 64, "duration": 10, "velocity": 93}, {"time": 2497, "pitch": 67, "duration": 8, "velocity": 90}, {"time": 2503, "pitch": 48, "duration": 4, "velocity": 84}, {"time": 2509, "pitch": 48, "duration": 21, "velocity": 88}, {"time": 2509, "pitch": 60, "duration": 8, "velocity": 88}, {"time": 2509, "pitch": 64, "duration": 11, "velocity": 91}, {"time": 2509, "pitch": 67, "duration": 11, "velocity": 89}, {"time": 2518, "pitch": 55, "duration": 16, "velocity": 84}, {"time": 2521, "pitch": 60, "duration": 8, "velocity": 89}, {"time": 2524, "pitch": 62, "duration": 4, "velocity": 86}, {"time": 2527, "pitch": 64, "duration": 6, "velocity": 88}, {"time": 2530, "pitch": 67, "duration": 5, "velocity": 90}, {"time": 2533, "pitch": 48, "duration": 10, "velocity": 87}, {"time": 2534, "pitch": 36, "duration": 9, "velocity": 92}, {"time": 2536, "pitch": 48, "duration": 7, "velocity": 92}, {"time": 2539, "pitch": 55, "duration": 11, "velocity": 69}, {"time": 2540, "pitch": 36, "duration": 3, "velocity": 91}, {"time": 2540, "pitch": 60, "duration": 3, "velocity": 97}, {"time": 2542, "pitch": 60, "duration": 1, "velocity": 89}, {"time": 2542, "pitch": 60, "duration": 1, "velocity": 94}, {"time": 2542, "pitch": 64, "duration": 4, "velocity": 87}, {"time": 2542, "pitch": 67, "duration": 4, "velocity": 83}, {"time": 2542, "pitch": 72, "duration": 4, "velocity": 96}, {"time": 2546, "pitch": 48, "duration": 4, "velocity": 102}, {"time": 2548, "pitch": 60, "duration": 3, "velocity": 104}, {"time": 2548, "pitch": 64, "duration": 7, "velocity": 80}, {"time": 2548, "pitch": 67, "duration": 7, "velocity": 79}, {"time": 2548, "pitch": 72, "duration": 7, "velocity": 93}, {"time": 2552, "pitch": 36, "duration": 4, "velocity": 107}, {"time": 2558, "pitch": 41, "duration": 18, "velocity": 58}, {"time": 2558, "pitch": 48, "duration": 16, "velocity": 62}, {"time": 2558, "pitch": 53, "duration": 4, "velocity": 58}, {"time": 2558, "pitch": 57, "duration": 3, "velocity": 87}, {"time": 2558, "pitch": 60, "duration": 4, "velocity": 85}, {"time": 2558, "pitch": 65, "duration": 3, "velocity": 80}, {"time": 2564, "pitch": 57, "duration": 1, "velocity": 50}, {"time": 2564, "pitch": 60, "duration": 2, "velocity": 46}, {"time": 2564, "pitch": 65, "duration": 2, "velocity": 40}, {"time": 2566, "pitch": 53, "duration": 4, "velocity": 38}, {"time": 2570, "pitch": 57, "duration": 6, "velocity": 94}, {"time": 2570, "pitch": 60, "duration": 7, "velocity": 92}, {"time": 2570, "pitch": 65, "duration": 6, "velocity": 96}, {"time": 2572, "pitch": 53, "duration": 4, "velocity": 45}, {"time": 2576, "pitch": 48, "duration": 2, "velocity": 46}, {"time": 2578, "pitch": 41, "duration": 1, "velocity": 68}, {"time": 2582, "pitch": 38, "duration": 14, "velocity": 77}, {"time": 2582, "pitch": 50, "duration": 5, "velocity": 69}, {"time": 2582, "pitch": 57, "duration": 5, "velocity": 80}, {"time": 2582, "pitch": 62, "duration": 4, "velocity": 80}, {"time": 2582, "pitch": 65, "duration": 4, "velocity": 76}, {"time": 2590, "pitch": 50, "duration": 3, "velocity": 72}, {"time": 2594, "pitch": 57, "duration": 3, "velocity": 91}, {"time": 2594, "pitch": 62, "duration": 7, "velocity": 90}, {"time": 2594, "pitch": 65, "duration": 6, "velocity": 90}, {"time": 2596, "pitch": 50, "duration": 4, "velocity": 67}, {"time": 2600, "pitch": 38, "duration": 1, "velocity": 75}, {"time": 2602, "pitch": 57, "duration": 1, "velocity": 53}, {"time": 2606, "pitch": 31, "duration": 14, "velocity": 68}, {"time": 2606, "pitch": 43, "duration": 6, "velocity": 63}, {"time": 2606, "pitch": 55, "duration": 6, "velocity": 67}, {"time": 2606, "pitch": 58, "duration": 6, "velocity": 69}, {"time": 2606, "pitch": 62, "duration": 6, "velocity": 68}, {"time": 2606, "pitch": 65, "duration": 6, "velocity": 68}, {"time": 2614, "pitch": 43, "duration": 4, "velocity": 69}, {"time": 2618, "pitch": 55, "duration": 6, "velocity": 102}, {"time": 2618, "pitch": 58, "duration": 6, "velocity": 90}, {"time": 2618, "pitch": 62, "duration": 7, "velocity": 72}, {"time": 2618, "pitch": 67, "duration": 6, "velocity": 92}, {"time": 2620, "pitch": 43, "duration": 5, "velocity": 63}, {"time": 2624, "pitch": 31, "duration": 1, "velocity": 83}, {"time": 2630, "pitch": 36, "duration": 15, "velocity": 56}, {"time": 2630, "pitch": 48, "duration": 6, "velocity": 53}, {"time": 2630, "pitch": 55, "duration": 7, "velocity": 71}, {"time": 2630, "pitch": 60, "duration": 6, "velocity": 63}, {"time": 2630, "pitch": 64, "duration": 6, "velocity": 72}, {"time": 2638, "pitch": 48, "duration": 4, "velocity": 80}, {"time": 2642, "pitch": 55, "duration": 6, "velocity": 100}, {"time": 2642, "pitch": 60, "duration": 6, "velocity": 90}, {"time": 2642, "pitch": 64, "duration": 6, "velocity": 90}, {"time": 2644, "pitch": 48, "duration": 4, "velocity": 80}, {"time": 2648, "pitch": 36, "duration": 1, "velocity": 92}, {"time": 2654, "pitch": 38, "duration": 15, "velocity": 85}, {"time": 2654, "pitch": 50, "duration": 5, "velocity": 83}, {"time": 2654, "pitch": 62, "duration": 7, "velocity": 94}, {"time": 2654, "pitch": 65, "duration": 7, "velocity": 87}, {"time": 2654, "pitch": 69, "duration": 7, "velocity": 92}, {"time": 2662, "pitch": 50, "duration": 5, "velocity": 67}, {"time": 2666, "pitch": 62, "duration": 5, "velocity": 97}, {"time": 2666, "pitch": 65, "duration": 6, "velocity": 99}, {"time": 2666, "pitch": 69, "duration": 6, "velocity": 95}, {"time": 2668, "pitch": 50, "duration": 4, "velocity": 53}, {"time": 2672, "pitch": 38, "duration": 1, "velocity": 65}, {"time": 2678, "pitch": 45, "duration": 13, "velocity": 62}, {"time": 2678, "pitch": 52, "duration": 5, "velocity": 67}, {"time": 2678, "pitch": 57, "duration": 6, "velocity": 87}, {"time": 2678, "pitch": 60, "duration": 6, "velocity": 83}, {"time": 2678, "pitch": 64, "duration": 6, "velocity": 77}, {"time": 2678, "pitch": 69, "duration": 6, "velocity": 87}, {"time": 2686, "pitch": 52, "duration": 6, "velocity": 72}, {"time": 2690, "pitch": 57, "duration": 3, "velocity": 92}, {"time": 2690, "pitch": 62, "duration": 3, "velocity": 77}, {"time": 2690, "pitch": 66, "duration": 3, "velocity": 84}, {"time": 2690, "pitch": 69, "duration": 3, "velocity": 95}, {"time": 2696, "pitch": 50, "duration": 2, "velocity": 65}, {"time": 2702, "pitch": 43, "duration": 14, "velocity": 54}, {"time": 2702, "pitch": 50, "duration": 19, "velocity": 34}, {"time": 2702, "pitch": 55, "duration": 6, "velocity": 87}, {"time": 2702, "pitch": 62, "duration": 7, "velocity": 88}, {"time": 2702, "pitch": 67, "duration": 7, "velocity": 80}, {"time": 2710, "pitch": 55, "duration": 4, "velocity": 75}, {"time": 2714, "pitch": 58, "duration": 3, "velocity": 110}, {"time": 2714, "pitch": 62, "duration": 6, "velocity": 91}, {"time": 2714, "pitch": 67, "duration": 5, "velocity": 102}, {"time": 2720, "pitch": 55, "duration": 2, "velocity": 64}, {"time": 2722, "pitch": 43, "duration": 1, "velocity": 69}, {"time": 2726, "pitch": 36, "duration": 16, "velocity": 81}, {"time": 2726, "pitch": 48, "duration": 6, "velocity": 72}, {"time": 2726, "pitch": 60, "duration": 5, "velocity": 81}, {"time": 2726, "pitch": 64, "duration": 6, "velocity": 77}, {"time": 2726, "pitch": 67, "duration": 6, "velocity": 84}, {"time": 2734, "pitch": 48, "duration": 4, "velocity": 84}, {"time": 2738, "pitch": 55, "duration": 5, "velocity": 104}, {"time": 2738, "pitch": 60, "duration": 3, "velocity": 84}, {"time": 2738, "pitch": 64, "duration": 3, "velocity": 94}, {"time": 2738, "pitch": 67, "duration": 2, "velocity": 83}, {"time": 2738, "pitch": 69, "duration": 1, "velocity": 58}, {"time": 2740, "pitch": 48, "duration": 6, "velocity": 94}, {"time": 2744, "pitch": 36, "duration": 1, "velocity": 81}, {"time": 2744, "pitch": 60, "duration": 3, "velocity": 100}, {"time": 2750, "pitch": 41, "duration": 18, "velocity": 58}, {"time": 2750, "pitch": 48, "duration": 16, "velocity": 62}, {"time": 2750, "pitch": 53, "duration": 4, "velocity": 58}, {"time": 2750, "pitch": 57, "duration": 3, "velocity": 87}, {"time": 2750, "pitch": 60, "duration": 4, "velocity": 85}, {"time": 2750, "pitch": 65, "duration": 3, "velocity": 80}, {"time": 2756, "pitch": 57, "duration": 1, "velocity": 50}, {"time": 2756, "pitch": 60, "duration": 2, "velocity": 46}, {"time": 2756, "pitch": 65, "duration": 2, "velocity": 40}, {"time": 2758, "pitch": 53, "duration": 4, "velocity": 38}, {"time": 2762, "pitch": 57, "duration": 6, "velocity": 94}, {"time": 2762, "pitch": 60, "duration": 7, "velocity": 92}, {"time": 2762, "pitch": 65, "duration": 6, "velocity": 96}, {"time": 2764, "pitch": 53, "duration": 4, "velocity": 45}, {"time": 2768, "pitch": 48, "duration": 2, "velocity": 46}, {"time": 2770, "pitch": 41, "duration": 1, "velocity": 68}, {"time": 2774, "pitch": 38, "duration": 14, "velocity": 77}, {"time": 2774, "pitch": 50, "duration": 5, "velocity": 69}, {"time": 2774, "pitch": 57, "duration": 5, "velocity": 80}, {"time": 2774, "pitch": 62, "duration": 4, "velocity": 80}, {"time": 2774, "pitch": 65, "duration": 4, "velocity": 76}, {"time": 2782, "pitch": 50, "duration": 3, "velocity": 72}, {"time": 2786, "pitch": 57, "duration": 3, "velocity": 91}, {"time": 2786, "pitch": 62, "duration": 7, "velocity": 90}, {"time": 2786, "pitch": 65, "duration": 6, "velocity": 90}, {"time": 2788, "pitch": 50, "duration": 4, "velocity": 67}, {"time": 2792, "pitch": 38, "duration": 1, "velocity": 75}, {"time": 2794, "pitch": 57, "duration": 1, "velocity": 53}, {"time": 2798, "pitch": 31, "duration": 14, "velocity": 68}, {"time": 2798, "pitch": 43, "duration": 6, "velocity": 63}, {"time": 2798, "pitch": 55, "duration": 6, "velocity": 67}, {"time": 2798, "pitch": 58, "duration": 6, "velocity": 69}, {"time": 2798, "pitch": 62, "duration": 6, "velocity": 68}, {"time": 2798, "pitch": 65, "duration": 6, "velocity": 68}, {"time": 2806, "pitch": 43, "duration": 4, "velocity": 69}, {"time": 2810, "pitch": 55, "duration": 6, "velocity": 102}, {"time": 2810, "pitch": 58, "duration": 6, "velocity": 90}, {"time": 2810, "pitch": 62, "duration": 7, "velocity": 72}, {"time": 2810, "pitch": 67, "duration": 6, "velocity": 92}, {"time": 2812, "pitch": 43, "duration": 5, "velocity": 63}, {"time": 2816, "pitch": 31, "duration": 1, "velocity": 83}, {"time": 2822, "pitch": 36, "duration": 15, "velocity": 56}, {"time": 2822, "pitch": 48, "duration": 6, "velocity": 53}, {"time": 2822, "pitch": 55, "duration": 7, "velocity": 71}, {"time": 2822, "pitch": 60, "duration": 6, "velocity": 63}, {"time": 2822, "pitch": 64, "duration": 6, "velocity": 72}, {"time": 2830, "pitch": 48, "duration": 4, "velocity": 80}, {"time": 2834, "pitch": 55, "duration": 6, "velocity": 100}, {"time": 2834, "pitch": 60, "duration": 6, "velocity": 90}, {"time": 2834, "pitch": 64, "duration": 6, "velocity": 90}, {"time": 2836, "pitch": 48, "duration": 4, "velocity": 80}, {"time": 2840, "pitch": 36, "duration": 1, "velocity": 92}, {"time": 2846, "pitch": 38, "duration": 15, "velocity": 85}, {"time": 2846, "pitch": 50, "duration": 5, "velocity": 83}, {"time": 2846, "pitch": 62, "duration": 7, "velocity": 94}, {"time": 2846, "pitch": 65, "duration": 7, "velocity": 87}, {"time": 2846, "pitch": 69, "duration": 7, "velocity": 92}, {"time": 2854, "pitch": 50, "duration": 5, "velocity": 67}, {"time": 2858, "pitch": 62, "duration": 5, "velocity": 97}, {"time": 2858, "pitch": 65, "duration": 6, "velocity": 99}, {"time": 2858, "pitch": 69, "duration": 6, "velocity": 95}, {"time": 2860, "pitch": 50, "duration": 4, "velocity": 53}, {"time": 2864, "pitch": 38, "duration": 1, "velocity": 65}, {"time": 2870, "pitch": 45, "duration": 13, "velocity": 62}, {"time": 2870, "pitch": 52, "duration": 5, "velocity": 67}, {"time": 2870, "pitch": 57, "duration": 6, "velocity": 87}, {"time": 2870, "pitch": 60, "duration": 6, "velocity": 83}, {"time": 2870, "pitch": 64, "duration": 6, "velocity": 77}, {"time": 2870, "pitch": 69, "duration": 6, "velocity": 87}, {"time": 2878, "pitch": 52, "duration": 6, "velocity": 72}, {"time": 2882, "pitch": 57, "duration": 3, "velocity": 92}, {"time": 2882, "pitch": 62, "duration": 3, "velocity": 77}, {"time": 2882, "pitch": 66, "duration": 3, "velocity": 84}, {"time": 2882, "pitch": 69, "duration": 3, "velocity": 95}, {"time": 2888, "pitch": 50, "duration": 2, "velocity": 65}, {"time": 2894, "pitch": 43, "duration": 14, "velocity": 54}, {"time": 2894, "pitch": 50, "duration": 19, "velocity": 34}, {"time": 2894, "pitch": 55, "duration": 6, "velocity": 87}, {"time": 2894, "pitch": 62, "duration": 7, "velocity": 88}, {"time": 2894, "pitch": 67, "duration": 7, "velocity": 80}, {"time": 2902, "pitch": 55, "duration": 4, "velocity": 75}, {"time": 2906, "pitch": 58, "duration": 3, "velocity": 110}, {"time": 2906, "pitch": 62, "duration": 6, "velocity": 91}, {"time": 2906, "pitch": 67, "duration": 5, "velocity": 102}, {"time": 2912, "pitch": 55, "duration": 2, "velocity": 64}, {"time": 2914, "pitch": 43, "duration": 1, "velocity": 69}, {"time": 2918, "pitch": 36, "duration": 16, "velocity": 81}, {"time": 2918, "pitch": 48, "duration": 6, "velocity": 72}, {"time": 2918, "pitch": 60, "duration": 5, "velocity": 81}, {"time": 2918, "pitch": 64, "duration": 6, "velocity": 77}, {"time": 2918, "pitch": 67, "duration": 6, "velocity": 84}, {"time": 2926, "pitch": 48, "duration": 4, "velocity": 84}, {"time": 2930, "pitch": 55, "duration": 5, "velocity": 104}, {"time": 2930, "pitch": 60, "duration": 3, "velocity": 84}, {"time": 2930, "pitch": 64, "duration": 3, "velocity": 94}, {"time": 2930, "pitch": 67, "duration": 2, "velocity": 83}, {"time": 2930, "pitch": 69, "duration": 1, "velocity": 58}, {"time": 2932, "pitch": 48, "duration": 6, "velocity": 94}, {"time": 2936, "pitch": 36, "duration": 1, "velocity": 81}, {"time": 2936, "pitch": 60, "duration": 3, "velocity": 100}, {"time": 2941, "pitch": 46, "duration": 15, "velocity": 69}, {"time": 2941, "pitch": 62, "duration": 7, "velocity": 76}, {"time": 2941, "pitch": 65, "duration": 8, "velocity": 77}, {"time": 2941, "pitch": 69, "duration": 6, "velocity": 77}, {"time": 2947, "pitch": 58, "duration": 8, "velocity": 78}, {"time": 2953, "pitch": 62, "duration": 8, "velocity": 86}, {"time": 2953, "pitch": 65, "duration": 10, "velocity": 88}, {"time": 2953, "pitch": 69, "duration": 7, "velocity": 88}, {"time": 2959, "pitch": 46, "duration": 7, "velocity": 71}, {"time": 2965, "pitch": 45, "duration": 11, "velocity": 78}, {"time": 2965, "pitch": 60, "duration": 8, "velocity": 84}, {"time": 2965, "pitch": 64, "duration": 11, "velocity": 86}, {"time": 2965, "pitch": 69, "duration": 8, "velocity": 86}, {"time": 2977, "pitch": 50, "duration": 13, "velocity": 72}, {"time": 2977, "pitch": 62, "duration": 9, "velocity": 84}, {"time": 2977, "pitch": 65, "duration": 8, "velocity": 87}, {"time": 2977, "pitch": 69, "duration": 7, "velocity": 83}, {"time": 2989, "pitch": 43, "duration": 12, "velocity": 77}, {"time": 2989, "pitch": 58, "duration": 9, "velocity": 81}, {"time": 2989, "pitch": 62, "duration": 12, "velocity": 84}, {"time": 2989, "pitch": 67, "duration": 8, "velocity": 86}, {"time": 3001, "pitch": 48, "duration": 8, "velocity": 73}, {"time": 3001, "pitch": 60, "duration": 9, "velocity": 73}, {"time": 3001, "pitch": 64, "duration": 12, "velocity": 76}, {"time": 3001, "pitch": 67, "duration": 10, "velocity": 72}, {"time": 3013, "pitch": 46, "duration": 47, "velocity": 80}, {"time": 3013, "pitch": 62, "duration": 10, "velocity": 82}, {"time": 3013, "pitch": 69, "duration": 8, "velocity": 88}, {"time": 3019, "pitch": 53, "duration": 14, "velocity": 65}, {"time": 3025, "pitch": 62, "duration": 13, "velocity": 88}, {"time": 3025, "pitch": 69, "duration": 9, "velocity": 88}, {"time": 3034, "pitch": 58, "duration": 8, "velocity": 78}, {"time": 3037, "pitch": 65, "duration": 11, "velocity": 73}, {"time": 3046, "pitch": 58, "duration": 6, "velocity": 82}, {"time": 3049, "pitch": 62, "duration": 5, "velocity": 88}, {"time": 3052, "pitch": 65, "duration": 4, "velocity": 83}, {"time": 3055, "pitch": 69, "duration": 4, "velocity": 71}, {"time": 3061, "pitch": 45, "duration": 23, "velocity": 76}, {"time": 3061, "pitch": 60, "duration": 10, "velocity": 78}, {"time": 3061, "pitch": 67, "duration": 9, "velocity": 78}, {"time": 3070, "pitch": 52, "duration": 5, "velocity": 38}, {"time": 3073, "pitch": 60, "duration": 12, "velocity": 85}, {"time": 3073, "pitch": 67, "duration": 8, "velocity": 88}, {"time": 3085, "pitch": 50, "duration": 8, "velocity": 79}, {"time": 3085, "pitch": 57, "duration": 10, "velocity": 83}, {"time": 3085, "pitch": 65, "duration": 10, "velocity": 87}, {"time": 3094, "pitch": 50, "duration": 15, "velocity": 88}, {"time": 3097, "pitch": 57, "duration": 4, "velocity": 102}, {"time": 3097, "pitch": 65, "duration": 4, "velocity": 87}, {"time": 3100, "pitch": 60, "duration": 4, "velocity": 87}, {"time": 3103, "pitch": 62, "duration": 3, "velocity": 89}, {"time": 3106, "pitch": 65, "duration": 13, "velocity": 78}, {"time": 3109, "pitch": 43, "duration": 19, "velocity": 72}, {"time": 3109, "pitch": 55, "duration": 14, "velocity": 74}, {"time": 3109, "pitch": 58, "duration": 11, "velocity": 86}, {"time": 3121, "pitch": 58, "duration": 6, "velocity": 86}, {"time": 3121, "pitch": 65, "duration": 7, "velocity": 88}, {"time": 3127, "pitch": 55, "duration": 7, "velocity": 81}, {"time": 3133, "pitch": 48, "duration": 8, "velocity": 78}, {"time": 3133, "pitch": 60, "duration": 11, "velocity": 83}, {"time": 3133, "pitch": 64, "duration": 10, "velocity": 76}, {"time": 3133, "pitch": 67, "duration": 9, "velocity": 79}, {"time": 3142, "pitch": 48, "duration": 6, "velocity": 87}, {"time": 3145, "pitch": 60, "duration": 7, "velocity": 98}, {"time": 3145, "pitch": 67, "duration": 7, "velocity": 94}, {"time": 3151, "pitch": 64, "duration": 6, "velocity": 83}, {"time": 3157, "pitch": 48, "duration": 39, "velocity": 74}, {"time": 3157, "pitch": 60, "duration": 7, "velocity": 36}, {"time": 3157, "pitch": 67, "duration": 6, "velocity": 64}, {"time": 3169, "pitch": 60, "duration": 9, "velocity": 77}, {"time": 3169, "pitch": 64, "duration": 10, "velocity": 79}, {"time": 3169, "pitch": 67, "duration": 8, "velocity": 80}, {"time": 3178, "pitch": 55, "duration": 18, "velocity": 38}, {"time": 3181, "pitch": 60, "duration": 19, "velocity": 83}, {"time": 3181, "pitch": 67, "duration": 19, "velocity": 87}, {"time": 3203, "pitch": 34, "duration": 7, "velocity": 100}, {"time": 3206, "pitch": 46, "duration": 4, "velocity": 95}, {"time": 3208, "pitch": 58, "duration": 3, "velocity": 92}, {"time": 3212, "pitch": 58, "duration": 1, "velocity": 85}, {"time": 3212, "pitch": 62, "duration": 2, "velocity": 83}, {"time": 3212, "pitch": 65, "duration": 2, "velocity": 84}, {"time": 3212, "pitch": 70, "duration": 3, "velocity": 101}, {"time": 3218, "pitch": 36, "duration": 13, "velocity": 109}, {"time": 3220, "pitch": 48, "duration": 11, "velocity": 110}, {"time": 3223, "pitch": 60, "duration": 7, "velocity": 100}, {"time": 3225, "pitch": 64, "duration": 4, "velocity": 99}, {"time": 3225, "pitch": 67, "duration": 4, "velocity": 102}, {"time": 3226, "pitch": 72, "duration": 5, "velocity": 113}, {"time": 3230, "pitch": 41, "duration": 18, "velocity": 58}, {"time": 3230, "pitch": 48, "duration": 1, "velocity": 62}, {"time": 3230, "pitch": 53, "duration": 4, "velocity": 58}, {"time": 3230, "pitch": 57, "duration": 3, "velocity": 87}, {"time": 3230, "pitch": 60, "duration": 1, "velocity": 85}, {"time": 3230, "pitch": 65, "duration": 3, "velocity": 80}, {"time": 3236, "pitch": 57, "duration": 1, "velocity": 50}, {"time": 3236, "pitch": 60, "duration": 2, "velocity": 46}, {"time": 3236, "pitch": 65, "duration": 2, "velocity": 40}, {"time": 3238, "pitch": 53, "duration": 4, "velocity": 38}, {"time": 3242, "pitch": 57, "duration": 6, "velocity": 94}, {"time": 3242, "pitch": 60, "duration": 7, "velocity": 92}, {"time": 3242, "pitch": 65, "duration": 6, "velocity": 96}, {"time": 3244, "pitch": 53, "duration": 4, "velocity": 45}, {"time": 3248, "pitch": 48, "duration": 2, "velocity": 46}, {"time": 3250, "pitch": 41, "duration": 1, "velocity": 68}, {"time": 3254, "pitch": 38, "duration": 14, "velocity": 77}, {"time": 3254, "pitch": 50, "duration": 5, "velocity": 69}, {"time": 3254, "pitch": 57, "duration": 5, "velocity": 80}, {"time": 3254, "pitch": 62, "duration": 4, "velocity": 80}, {"time": 3254, "pitch": 65, "duration": 4, "velocity": 76}, {"time": 3262, "pitch": 50, "duration": 3, "velocity": 72}, {"time": 3266, "pitch": 57, "duration": 3, "velocity": 91}, {"time": 3266, "pitch": 62, "duration": 7, "velocity": 90}, {"time": 3266, "pitch": 65, "duration": 6, "velocity": 90}, {"time": 3268, "pitch": 50, "duration": 4, "velocity": 67}, {"time": 3272, "pitch": 38, "duration": 1, "velocity": 75}, {"time": 3274, "pitch": 57, "duration": 1, "velocity": 53}, {"time": 3278, "pitch": 31, "duration": 14, "velocity": 68}, {"time": 3278, "pitch": 43, "duration": 6, "velocity": 63}, {"time": 3278, "pitch": 55, "duration": 6, "velocity": 67}, {"time": 3278, "pitch": 58, "duration": 6, "velocity": 69}, {"time": 3278, "pitch": 62, "duration": 6, "velocity": 68}, {"time": 3278, "pitch": 65, "duration": 6, "velocity": 68}, {"time": 3286, "pitch": 43, "duration": 4, "velocity": 69}, {"time": 3290, "pitch": 55, "duration": 6, "velocity": 102}, {"time": 3290, "pitch": 58, "duration": 6, "velocity": 90}, {"time": 3290, "pitch": 62, "duration": 7, "velocity": 72}, {"time": 3290, "pitch": 67, "duration": 6, "velocity": 92}, {"time": 3292, "pitch": 43, "duration": 5, "velocity": 63}, {"time": 3296, "pitch": 31, "duration": 1, "velocity": 83}, {"time": 3302, "pitch": 36, "duration": 15, "velocity": 56}, {"time": 3302, "pitch": 48, "duration": 6, "velocity": 53}, {"time": 3302, "pitch": 55, "duration": 7, "velocity": 71}, {"time": 3302, "pitch": 60, "duration": 6, "velocity": 63}, {"time": 3302, "pitch": 64, "duration": 6, "velocity": 72}, {"time": 3310, "pitch": 48, "duration": 4, "velocity": 80}, {"time": 3314, "pitch": 55, "duration": 6, "velocity": 100}, {"time": 3314, "pitch": 60, "duration": 6, "velocity": 90}, {"time": 3314, "pitch": 64, "duration": 6, "velocity": 90}, {"time": 3316, "pitch": 48, "duration": 4, "velocity": 80}, {"time": 3320, "pitch": 36, "duration": 1, "velocity": 92}, {"time": 3326, "pitch": 38, "duration": 15, "velocity": 85}, {"time": 3326, "pitch": 50, "duration": 5, "velocity": 83}, {"time": 3326, "pitch": 62, "duration": 7, "velocity": 94}, {"time": 3326, "pitch": 65, "duration": 7, "velocity": 87}, {"time": 3326, "pitch": 69, "duration": 7, "velocity": 92}, {"time": 3334, "pitch": 50, "duration": 5, "velocity": 67}, {"time": 3338, "pitch": 62, "duration": 5, "velocity": 97}, {"time": 3338, "pitch": 65, "duration": 6, "velocity": 99}, {"time": 3338, "pitch": 69, "duration": 6, "velocity": 95}, {"time": 3340, "pitch": 50, "duration": 4, "velocity": 53}, {"time": 3344, "pitch": 38, "duration": 1, "velocity": 65}, {"time": 3350, "pitch": 45, "duration": 13, "velocity": 62}, {"time": 3350, "pitch": 52, "duration": 5, "velocity": 67}, {"time": 3350, "pitch": 57, "duration": 6, "velocity": 87}, {"time": 3350, "pitch": 60, "duration": 6, "velocity": 83}, {"time": 3350, "pitch": 64, "duration": 6, "velocity": 77}, {"time": 3350, "pitch": 69, "duration": 6, "velocity": 87}, {"time": 3358, "pitch": 52, "duration": 6, "velocity": 72}, {"time": 3362, "pitch": 57, "duration": 3, "velocity": 92}, {"time": 3362, "pitch": 62, "duration": 3, "velocity": 77}, {"time": 3362, "pitch": 66, "duration": 3, "velocity": 84}, {"time": 3362, "pitch": 69, "duration": 3, "velocity": 95}, {"time": 3368, "pitch": 50, "duration": 2, "velocity": 65}, {"time": 3374, "pitch": 43, "duration": 14, "velocity": 54}, {"time": 3374, "pitch": 50, "duration": 19, "velocity": 34}, {"time": 3374, "pitch": 55, "duration": 6, "velocity": 87}, {"time": 3374, "pitch": 62, "duration": 7, "velocity": 88}, {"time": 3374, "pitch": 67, "duration": 7, "velocity": 80}, {"time": 3382, "pitch": 55, "duration": 4, "velocity": 75}, {"time": 3386, "pitch": 58, "duration": 3, "velocity": 110}, {"time": 3386, "pitch": 62, "duration": 6, "velocity": 91}, {"time": 3386, "pitch": 67, "duration": 5, "velocity": 102}, {"time": 3392, "pitch": 55, "duration": 2, "velocity": 64}, {"time": 3394, "pitch": 43, "duration": 1, "velocity": 69}, {"time": 3398, "pitch": 36, "duration": 16, "velocity": 81}, {"time": 3398, "pitch": 48, "duration": 6, "velocity": 72}, {"time": 3398, "pitch": 60, "duration": 5, "velocity": 81}, {"time": 3398, "pitch": 64, "duration": 6, "velocity": 77}, {"time": 3398, "pitch": 67, "duration": 6, "velocity": 84}, {"time": 3406, "pitch": 48, "duration": 4, "velocity": 84}, {"time": 3410, "pitch": 55, "duration": 5, "velocity": 104}, {"time": 3410, "pitch": 60, "duration": 3, "velocity": 84}, {"time": 3410, "pitch": 64, "duration": 3, "velocity": 94}, {"time": 3410, "pitch": 67, "duration": 2, "velocity": 83}, {"time": 3410, "pitch": 69, "duration": 1, "velocity": 58}, {"time": 3412, "pitch": 48, "duration": 6, "velocity": 94}, {"time": 3416, "pitch": 36, "duration": 1, "velocity": 81}, {"time": 3416, "pitch": 60, "duration": 3, "velocity": 100}, {"time": 3422, "pitch": 41, "duration": 18, "velocity": 58}, {"time": 3422, "pitch": 48, "duration": 16, "velocity": 62}, {"time": 3422, "pitch": 53, "duration": 4, "velocity": 58}, {"time": 3422, "pitch": 57, "duration": 3, "velocity": 87}, {"time": 3422, "pitch": 60, "duration": 4, "velocity": 85}, {"time": 3422, "pitch": 65, "duration": 3, "velocity": 80}, {"time": 3428, "pitch": 57, "duration": 1, "velocity": 50}, {"time": 3428, "pitch": 60, "duration": 2, "velocity": 46}, {"time": 3428, "pitch": 65, "duration": 2, "velocity": 40}, {"time": 3430, "pitch": 53, "duration": 4, "velocity": 38}, {"time": 3434, "pitch": 57, "duration": 6, "velocity": 94}, {"time": 3434, "pitch": 60, "duration": 7, "velocity": 92}, {"time": 3434, "pitch": 65, "duration": 6, "velocity": 96}, {"time": 3436, "pitch": 53, "duration": 4, "velocity": 45}, {"time": 3440, "pitch": 48, "duration": 2, "velocity": 46}, {"time": 3442, "pitch": 41, "duration": 1, "velocity": 68}, {"time": 3446, "pitch": 38, "duration": 14, "velocity": 77}, {"time": 3446, "pitch": 50, "duration": 5, "velocity": 69}, {"time": 3446, "pitch": 57, "duration": 5, "velocity": 80}, {"time": 3446, "pitch": 62, "duration": 4, "velocity": 80}, {"time": 3446, "pitch": 65, "duration": 4, "velocity": 76}, {"time": 3454, "pitch": 50, "duration": 3, "velocity": 72}, {"time": 3458, "pitch": 57, "duration": 3, "velocity": 91}, {"time": 3458, "pitch": 62, "duration": 7, "velocity": 90}, {"time": 3458, "pitch": 65, "duration": 6, "velocity": 90}, {"time": 3460, "pitch": 50, "duration": 4, "velocity": 67}, {"time": 3464, "pitch": 38, "duration": 1, "velocity": 75}, {"time": 3466, "pitch": 57, "duration": 1, "velocity": 53}, {"time": 3470, "pitch": 31, "duration": 14, "velocity": 68}, {"time": 3470, "pitch": 43, "duration": 6, "velocity": 63}, {"time": 3470, "pitch": 55, "duration": 6, "velocity": 67}, {"time": 3470, "pitch": 58, "duration": 6, "velocity": 69}, {"time": 3470, "pitch": 62, "duration": 6, "velocity": 68}, {"time": 3470, "pitch": 65, "duration": 6, "velocity": 68}, {"time": 3478, "pitch": 43, "duration": 4, "velocity": 69}, {"time": 3482, "pitch": 55, "duration": 6, "velocity": 102}, {"time": 3482, "pitch": 58, "duration": 6, "velocity": 90}, {"time": 3482, "pitch": 62, "duration": 7, "velocity": 72}, {"time": 3482, "pitch": 67, "duration": 6, "velocity": 92}, {"time": 3484, "pitch": 43, "duration": 5, "velocity": 63}, {"time": 3488, "pitch": 31, "duration": 1, "velocity": 83}, {"time": 3494, "pitch": 36, "duration": 15, "velocity": 56}, {"time": 3494, "pitch": 48, "duration": 6, "velocity": 53}, {"time": 3494, "pitch": 55, "duration": 7, "velocity": 71}, {"time": 3494, "pitch": 60, "duration": 6, "velocity": 63}, {"time": 3494, "pitch": 64, "duration": 6, "velocity": 72}, {"time": 3502, "pitch": 48, "duration": 4, "velocity": 80}, {"time": 3506, "pitch": 55, "duration": 6, "velocity": 100}, {"time": 3506, "pitch": 60, "duration": 6, "velocity": 90}, {"time": 3506, "pitch": 64, "duration": 6, "velocity": 90}, {"time": 3508, "pitch": 48, "duration": 4, "velocity": 80}, {"time": 3512, "pitch": 36, "duration": 1, "velocity": 92}, {"time": 3518, "pitch": 38, "duration": 15, "velocity": 85}, {"time": 3518, "pitch": 50, "duration": 5, "velocity": 83}, {"time": 3518, "pitch": 62, "duration": 7, "velocity": 94}, {"time": 3518, "pitch": 65, "duration": 7, "velocity": 87}, {"time": 3518, "pitch": 69, "duration": 7, "velocity": 92}, {"time": 3526, "pitch": 50, "duration": 5, "velocity": 67}, {"time": 3530, "pitch": 62, "duration": 5, "velocity": 97}, {"time": 3530, "pitch": 65, "duration": 6, "velocity": 99}, {"time": 3530, "pitch": 69, "duration": 6, "velocity": 95}, {"time": 3532, "pitch": 50, "duration": 4, "velocity": 53}, {"time": 3536, "pitch": 38, "duration": 1, "velocity": 65}, {"time": 3542, "pitch": 45, "duration": 13, "velocity": 62}, {"time": 3542, "pitch": 52, "duration": 5, "velocity": 67}, {"time": 3542, "pitch": 57, "duration": 6, "velocity": 87}, {"time": 3542, "pitch": 60, "duration": 6, "velocity": 83}, {"time": 3542, "pitch": 64, "duration": 6, "velocity": 77}, {"time": 3542, "pitch": 69, "duration": 6, "velocity": 87}, {"time": 3550, "pitch": 52, "duration": 6, "velocity": 72}, {"time": 3554, "pitch": 57, "duration": 3, "velocity": 92}, {"time": 3554, "pitch": 62, "duration": 3, "velocity": 77}, {"time": 3554, "pitch": 66, "duration": 3, "velocity": 84}, {"time": 3554, "pitch": 69, "duration": 3, "velocity": 95}, {"time": 3560, "pitch": 50, "duration": 2, "velocity": 65}, {"time": 3566, "pitch": 43, "duration": 14, "velocity": 54}, {"time": 3566, "pitch": 50, "duration": 19, "velocity": 34}, {"time": 3566, "pitch": 55, "duration": 6, "velocity": 87}, {"time": 3566, "pitch": 62, "duration": 7, "velocity": 88}, {"time": 3566, "pitch": 67, "duration": 7, "velocity": 80}, {"time": 3574, "pitch": 55, "duration": 4, "velocity": 75}, {"time": 3578, "pitch": 58, "duration": 3, "velocity": 110}, {"time": 3578, "pitch": 62, "duration": 6, "velocity": 91}, {"time": 3578, "pitch": 67, "duration": 5, "velocity": 102}, {"time": 3584, "pitch": 55, "duration": 2, "velocity": 64}, {"time": 3586, "pitch": 43, "duration": 1, "velocity": 69}, {"time": 3590, "pitch": 36, "duration": 16, "velocity": 81}, {"time": 3590, "pitch": 48, "duration": 6, "velocity": 72}, {"time": 3590, "pitch": 60, "duration": 5, "velocity": 81}, {"time": 3590, "pitch": 64, "duration": 6, "velocity": 77}, {"time": 3590, "pitch": 67, "duration": 6, "velocity": 84}, {"time": 3598, "pitch": 48, "duration": 4, "velocity": 84}, {"time": 3602, "pitch": 55, "duration": 5, "velocity": 104}, {"time": 3602, "pitch": 60, "duration": 3, "velocity": 84}, {"time": 3602, "pitch": 64, "duration": 3, "velocity": 94}, {"time": 3602, "pitch": 67, "duration": 2, "velocity": 83}, {"time": 3602, "pitch": 69, "duration": 1, "velocity": 58}, {"time": 3604, "pitch": 48, "duration": 6, "velocity": 94}, {"time": 3608, "pitch": 36, "duration": 1, "velocity": 81}, {"time": 3608, "pitch": 60, "duration": 3, "velocity": 100}, {"time": 3610, "pitch": 62, "duration": 2, "velocity": 106}, {"time": 3613, "pitch": 46, "duration": 15, "velocity": 69}, {"time": 3613, "pitch": 62, "duration": 7, "velocity": 76}, {"time": 3613, "pitch": 65, "duration": 8, "velocity": 77}, {"time": 3613, "pitch": 69, "duration": 6, "velocity": 77}, {"time": 3619, "pitch": 58, "duration": 8, "velocity": 78}, {"time": 3625, "pitch": 62, "duration": 8, "velocity": 86}, {"time": 3625, "pitch": 65, "duration": 10, "velocity": 88}, {"time": 3625, "pitch": 69, "duration": 7, "velocity": 88}, {"time": 3631, "pitch": 46, "duration": 7, "velocity": 71}, {"time": 3637, "pitch": 45, "duration": 11, "velocity": 78}, {"time": 3637, "pitch": 60, "duration": 8, "velocity": 84}, {"time": 3637, "pitch": 64, "duration": 11, "velocity": 86}, {"time": 3637, "pitch": 69, "duration": 8, "velocity": 86}, {"time": 3649, "pitch": 50, "duration": 13, "velocity": 72}, {"time": 3649, "pitch": 62, "duration": 9, "velocity": 84}, {"time": 3649, "pitch": 65, "duration": 8, "velocity": 87}, {"time": 3649, "pitch": 69, "duration": 7, "velocity": 83}, {"time": 3661, "pitch": 43, "duration": 12, "velocity": 77}, {"time": 3661, "pitch": 58, "duration": 9, "velocity": 81}, {"time": 3661, "pitch": 62, "duration": 12, "velocity": 84}, {"time": 3661, "pitch": 67, "duration": 8, "velocity": 86}, {"time": 3673, "pitch": 48, "duration": 8, "velocity": 73}, {"time": 3673, "pitch": 60, "duration": 9, "velocity": 73}, {"time": 3673, "pitch": 64, "duration": 12, "velocity": 76}, {"time": 3673, "pitch": 67, "duration": 10, "velocity": 72}, {"time": 3685, "pitch": 46, "duration": 26, "velocity": 77}, {"time": 3685, "pitch": 58, "duration": 26, "velocity": 81}, {"time": 3685, "pitch": 62, "duration": 26, "velocity": 71}, {"time": 3685, "pitch": 65, "duration": 26, "velocity": 71}, {"time": 3685, "pitch": 69, "duration": 26, "velocity": 76}, {"time": 3724, "pitch": 60, "duration": 4, "velocity": 71}, {"time": 3727, "pitch": 65, "duration": 3, "velocity": 84}, {"time": 3730, "pitch": 67, "duration": 3, "velocity": 80}, {"time": 3733, "pitch": 46, "duration": 16, "velocity": 72}, {"time": 3733, "pitch": 58, "duration": 13, "velocity": 79}, {"time": 3733, "pitch": 60, "duration": 12, "velocity": 77}, {"time": 3733, "pitch": 65, "duration": 15, "velocity": 78}, {"time": 3733, "pitch": 69, "duration": 14, "velocity": 85}, {"time": 3751, "pitch": 48, "duration": 26, "velocity": 72}, {"time": 3751, "pitch": 64, "duration": 29, "velocity": 82}, {"time": 3751, "pitch": 67, "duration": 28, "velocity": 71}, {"time": 3766, "pitch": 60, "duration": 2, "velocity": 92}, {"time": 3769, "pitch": 60, "duration": 2, "velocity": 90}, {"time": 3772, "pitch": 62, "duration": 2, "velocity": 93}, {"time": 3775, "pitch": 65, "duration": 4, "velocity": 108}, {"time": 3781, "pitch": 50, "duration": 18, "velocity": 73}, {"time": 3781, "pitch": 62, "duration": 15, "velocity": 70}, {"time": 3781, "pitch": 65, "duration": 19, "velocity": 65}, {"time": 3781, "pitch": 69, "duration": 16, "velocity": 76}, {"time": 3799, "pitch": 48, "duration": 20, "velocity": 82}, {"time": 3799, "pitch": 60, "duration": 23, "velocity": 78}, {"time": 3799, "pitch": 64, "duration": 27, "velocity": 80}, {"time": 3799, "pitch": 67, "duration": 21, "velocity": 78}, {"time": 3808, "pitch": 65, "duration": 3, "velocity": 88}, {"time": 3811, "pitch": 62, "duration": 3, "velocity": 85}, {"time": 3814, "pitch": 65, "duration": 3, "velocity": 87}, {"time": 3817, "pitch": 67, "duration": 3, "velocity": 94}, {"time": 3829, "pitch": 46, "duration": 18, "velocity": 70}, {"time": 3829, "pitch": 58, "duration": 19, "velocity": 75}, {"time": 3829, "pitch": 62, "duration": 17, "velocity": 69}, {"time": 3829, "pitch": 65, "duration": 19, "velocity": 73}, {"time": 3829, "pitch": 69, "duration": 18, "velocity": 76}, {"time": 3847, "pitch": 48, "duration": 42, "velocity": 72}, {"time": 3847, "pitch": 60, "duration": 41, "velocity": 73}, {"time": 3847, "pitch": 64, "duration": 42, "velocity": 77}, {"time": 3847, "pitch": 67, "duration": 43, "velocity": 76}, {"time": 3871, "pitch": 70, "duration": 19, "velocity": 100}, {"time": 3892, "pitch": 53, "duration": 20, "velocity": 80}, {"time": 3892, "pitch": 60, "duration": 19, "velocity": 76}, {"time": 3892, "pitch": 65, "duration": 20, "velocity": 72}, {"time": 3892, "pitch": 69, "duration": 19, "velocity": 79}], "annotations": [{"time": 445, "annotation": {"number": 64, "value": 127}, "group": "control_change"}, {"time": 453, "annotation": {"number": 64, "value": 74}, "group": "control_change"}, {"time": 453, "annotation": {"number": 64, "value": 127}, "group": "control_change"}, {"time": 518, "annotation": {"number": 64, "value": 74}, "group": "control_change"}, {"time": 518, "annotation": {"number": 64, "value": 127}, "group": "control_change"}, {"time": 1142, "annotation": {"number": 64, "value": 127}, "group": "control_change"}, {"time": 1145, "annotation": {"number": 64, "value": 74}, "group": "control_change"}, {"time": 1145, "annotation": {"number": 64, "value": 127}, "group": "control_change"}, {"time": 1148, "annotation": {"number": 64, "value": 74}, "group": "control_change"}, {"time": 1148, "annotation": {"number": 64, "value": 0}, "group": "control_change"}, {"time": 1148, "annotation": {"number": 64, "value": 127}, "group": "control_change"}, {"time": 1149, "annotation": {"number": 64, "value": 127}, "group": "control_change"}, {"time": 1188, "annotation": {"number": 64, "value": 74}, "group": "control_change"}, {"time": 1188, "annotation": {"number": 64, "value": 127}, "group": "control_change"}, {"time": 1188, "annotation": {"number": 64, "value": 0}, "group": "control_change"}, {"time": 1189, "annotation": {"number": 64, "value": 127}, "group": "control_change"}, {"time": 1190, "annotation": {"number": 64, "value": 127}, "group": "control_change"}, {"time": 1212, "annotation": {"number": 64, "value": 38}, "group": "control_change"}, {"time": 1212, "annotation": {"number": 64, "value": 0}, "group": "control_change"}, {"time": 1213, "annotation": {"number": 64, "value": 74}, "group": "control_change"}, {"time": 1213, "annotation": {"number": 64, "value": 127}, "group": "control_change"}, {"time": 1237, "annotation": {"number": 64, "value": 74}, "group": "control_change"}, {"time": 1237, "annotation": {"number": 64, "value": 127}, "group": "control_change"}, {"time": 1428, "annotation": {"number": 64, "value": 0}, "group": "control_change"}, {"time": 1433, "annotation": {"number": 64, "value": 71}, "group": "control_change"}, {"time": 1433, "annotation": {"number": 64, "value": 127}, "group": "control_change"}, {"time": 1455, "annotation": {"number": 64, "value": 71}, "group": "control_change"}, {"time": 1455, "annotation": {"number": 64, "value": 0}, "group": "control_change"}, {"time": 1458, "annotation": {"number": 64, "value": 71}, "group": "control_change"}, {"time": 1459, "annotation": {"number": 64, "value": 127}, "group": "control_change"}, {"time": 1479, "annotation": {"number": 64, "value": 71}, "group": "control_change"}, {"time": 1479, "annotation": {"number": 64, "value": 0}, "group": "control_change"}, {"time": 1483, "annotation": {"number": 64, "value": 71}, "group": "control_change"}, {"time": 1484, "annotation": {"number": 64, "value": 127}, "group": "control_change"}, {"time": 1503, "annotation": {"number": 64, "value": 71}, "group": "control_change"}, {"time": 1503, "annotation": {"number": 64, "value": 0}, "group": "control_change"}, {"time": 1507, "annotation": {"number": 64, "value": 71}, "group": "control_change"}, {"time": 1508, "annotation": {"number": 64, "value": 127}, "group": "control_change"}, {"time": 1526, "annotation": {"number": 64, "value": 71}, "group": "control_change"}, {"time": 1527, "annotation": {"number": 64, "value": 0}, "group": "control_change"}, {"time": 1529, "annotation": {"number": 64, "value": 71}, "group": "control_change"}, {"time": 1529, "annotation": {"number": 64, "value": 127}, "group": "control_change"}, {"time": 1550, "annotation": {"number": 64, "value": 0}, "group": "control_change"}, {"time": 1554, "annotation": {"number": 64, "value": 71}, "group": "control_change"}, {"time": 1555, "annotation": {"number": 64, "value": 127}, "group": "control_change"}, {"time": 1562, "annotation": {"number": 64, "value": 0}, "group": "control_change"}, {"time": 1563, "annotation": {"number": 64, "value": 120}, "group": "control_change"}, {"time": 1566, "annotation": {"number": 64, "value": 71}, "group": "control_change"}, {"time": 1568, "annotation": {"number": 64, "value": 0}, "group": "control_change"}, {"time": 1570, "annotation": {"number": 64, "value": 71}, "group": "control_change"}, {"time": 1571, "annotation": {"number": 64, "value": 127}, "group": "control_change"}, {"time": 1574, "annotation": {"number": 64, "value": 71}, "group": "control_change"}, {"time": 1575, "annotation": {"number": 64, "value": 0}, "group": "control_change"}, {"time": 1581, "annotation": {"number": 64, "value": 71}, "group": "control_change"}, {"time": 1582, "annotation": {"number": 64, "value": 127}, "group": "control_change"}, {"time": 1598, "annotation": {"number": 64, "value": 71}, "group": "control_change"}, {"time": 1599, "annotation": {"number": 64, "value": 0}, "group": "control_change"}, {"time": 1603, "annotation": {"number": 64, "value": 71}, "group": "control_change"}, {"time": 1604, "annotation": {"number": 64, "value": 127}, "group": "control_change"}, {"time": 1618, "annotation": {"number": 64, "value": 0}, "group": "control_change"}, {"time": 1625, "annotation": {"number": 64, "value": 71}, "group": "control_change"}, {"time": 1625, "annotation": {"number": 64, "value": 127}, "group": "control_change"}, {"time": 1647, "annotation": {"number": 64, "value": 71}, "group": "control_change"}, {"time": 1647, "annotation": {"number": 64, "value": 0}, "group": "control_change"}, {"time": 1650, "annotation": {"number": 64, "value": 71}, "group": "control_change"}, {"time": 1651, "annotation": {"number": 64, "value": 127}, "group": "control_change"}, {"time": 1671, "annotation": {"number": 64, "value": 71}, "group": "control_change"}, {"time": 1671, "annotation": {"number": 64, "value": 0}, "group": "control_change"}, {"time": 1675, "annotation": {"number": 64, "value": 71}, "group": "control_change"}, {"time": 1676, "annotation": {"number": 64, "value": 127}, "group": "control_change"}, {"time": 1695, "annotation": {"number": 64, "value": 71}, "group": "control_change"}, {"time": 1695, "annotation": {"number": 64, "value": 0}, "group": "control_change"}, {"time": 1699, "annotation": {"number": 64, "value": 71}, "group": "control_change"}, {"time": 1700, "annotation": {"number": 64, "value": 127}, "group": "control_change"}, {"time": 1718, "annotation": {"number": 64, "value": 71}, "group": "control_change"}, {"time": 1719, "annotation": {"number": 64, "value": 0}, "group": "control_change"}, {"time": 1721, "annotation": {"number": 64, "value": 71}, "group": "control_change"}, {"time": 1721, "annotation": {"number": 64, "value": 127}, "group": "control_change"}, {"time": 1742, "annotation": {"number": 64, "value": 0}, "group": "control_change"}, {"time": 1746, "annotation": {"number": 64, "value": 71}, "group": "control_change"}, {"time": 1747, "annotation": {"number": 64, "value": 127}, "group": "control_change"}, {"time": 1754, "annotation": {"number": 64, "value": 0}, "group": "control_change"}, {"time": 1755, "annotation": {"number": 64, "value": 120}, "group": "control_change"}, {"time": 1758, "annotation": {"number": 64, "value": 71}, "group": "control_change"}, {"time": 1760, "annotation": {"number": 64, "value": 0}, "group": "control_change"}, {"time": 1762, "annotation": {"number": 64, "value": 71}, "group": "control_change"}, {"time": 1763, "annotation": {"number": 64, "value": 127}, "group": "control_change"}, {"time": 1766, "annotation": {"number": 64, "value": 71}, "group": "control_change"}, {"time": 1767, "annotation": {"number": 64, "value": 0}, "group": "control_change"}, {"time": 1773, "annotation": {"number": 64, "value": 71}, "group": "control_change"}, {"time": 1774, "annotation": {"number": 64, "value": 127}, "group": "control_change"}, {"time": 1790, "annotation": {"number": 64, "value": 71}, "group": "control_change"}, {"time": 1791, "annotation": {"number": 64, "value": 0}, "group": "control_change"}, {"time": 1795, "annotation": {"number": 64, "value": 71}, "group": "control_change"}, {"time": 1796, "annotation": {"number": 64, "value": 127}, "group": "control_change"}, {"time": 1813, "annotation": {"number": 64, "value": 0}, "group": "control_change"}, {"time": 2270, "annotation": {"number": 64, "value": 127}, "group": "control_change"}, {"time": 2273, "annotation": {"number": 64, "value": 74}, "group": "control_change"}, {"time": 2273, "annotation": {"number": 64, "value": 127}, "group": "control_change"}, {"time": 2276, "annotation": {"number": 64, "value": 74}, "group": "control_change"}, {"time": 2276, "annotation": {"number": 64, "value": 0}, "group": "control_change"}, {"time": 2276, "annotation": {"number": 64, "value": 127}, "group": "control_change"}, {"time": 2277, "annotation": {"number": 64, "value": 127}, "group": "control_change"}, {"time": 2316, "annotation": {"number": 64, "value": 74}, "group": "control_change"}, {"time": 2316, "annotation": {"number": 64, "value": 127}, "group": "control_change"}, {"time": 2316, "annotation": {"number": 64, "value": 0}, "group": "control_change"}, {"time": 2317, "annotation": {"number": 64, "value": 127}, "group": "control_change"}, {"time": 2318, "annotation": {"number": 64, "value": 127}, "group": "control_change"}, {"time": 2340, "annotation": {"number": 64, "value": 38}, "group": "control_change"}, {"time": 2340, "annotation": {"number": 64, "value": 0}, "group": "control_change"}, {"time": 2341, "annotation": {"number": 64, "value": 74}, "group": "control_change"}, {"time": 2341, "annotation": {"number": 64, "value": 127}, "group": "control_change"}, {"time": 2365, "annotation": {"number": 64, "value": 74}, "group": "control_change"}, {"time": 2365, "annotation": {"number": 64, "value": 127}, "group": "control_change"}, {"time": 2553, "annotation": {"number": 64, "value": 0}, "group": "control_change"}, {"time": 2561, "annotation": {"number": 64, "value": 71}, "group": "control_change"}, {"time": 2561, "annotation": {"number": 64, "value": 127}, "group": "control_change"}, {"time": 2583, "annotation": {"number": 64, "value": 71}, "group": "control_change"}, {"time": 2583, "annotation": {"number": 64, "value": 0}, "group": "control_change"}, {"time": 2586, "annotation": {"number": 64, "value": 71}, "group": "control_change"}, {"time": 2587, "annotation": {"number": 64, "value": 127}, "group": "control_change"}, {"time": 2607, "annotation": {"number": 64, "value": 71}, "group": "control_change"}, {"time": 2607, "annotation": {"number": 64, "value": 0}, "group": "control_change"}, {"time": 2611, "annotation": {"number": 64, "value": 71}, "group": "control_change"}, {"time": 2612, "annotation": {"number": 64, "value": 127}, "group": "control_change"}, {"time": 2631, "annotation": {"number": 64, "value": 71}, "group": "control_change"}, {"time": 2631, "annotation": {"number": 64, "value": 0}, "group": "control_change"}, {"time": 2635, "annotation": {"number": 64, "value": 71}, "group": "control_change"}, {"time": 2636, "annotation": {"number": 64, "value": 127}, "group": "control_change"}, {"time": 2654, "annotation": {"number": 64, "value": 71}, "group": "control_change"}, {"time": 2655, "annotation": {"number": 64, "value": 0}, "group": "control_change"}, {"time": 2657, "annotation": {"number": 64, "value": 71}, "group": "control_change"}, {"time": 2657, "annotation": {"number": 64, "value": 127}, "group": "control_change"}, {"time": 2678, "annotation": {"number": 64, "value": 0}, "group": "control_change"}, {"time": 2682, "annotation": {"number": 64, "value": 71}, "group": "control_change"}, {"time": 2683, "annotation": {"number": 64, "value": 127}, "group": "control_change"}, {"time": 2690, "annotation": {"number": 64, "value": 0}, "group": "control_change"}, {"time": 2691, "annotation": {"number": 64, "value": 120}, "group": "control_change"}, {"time": 2694, "annotation": {"number": 64, "value": 71}, "group": "control_change"}, {"time": 2696, "annotation": {"number": 64, "value": 0}, "group": "control_change"}, {"time": 2698, "annotation": {"number": 64, "value": 71}, "group": "control_change"}, {"time": 2699, "annotation": {"number": 64, "value": 127}, "group": "control_change"}, {"time": 2702, "annotation": {"number": 64, "value": 71}, "group": "control_change"}, {"time": 2703, "annotation": {"number": 64, "value": 0}, "group": "control_change"}, {"time": 2709, "annotation": {"number": 64, "value": 71}, "group": "control_change"}, {"time": 2710, "annotation": {"number": 64, "value": 127}, "group": "control_change"}, {"time": 2726, "annotation": {"number": 64, "value": 71}, "group": "control_change"}, {"time": 2727, "annotation": {"number": 64, "value": 0}, "group": "control_change"}, {"time": 2731, "annotation": {"number": 64, "value": 71}, "group": "control_change"}, {"time": 2732, "annotation": {"number": 64, "value": 127}, "group": "control_change"}, {"time": 2746, "annotation": {"number": 64, "value": 0}, "group": "control_change"}, {"time": 2753, "annotation": {"number": 64, "value": 71}, "group": "control_change"}, {"time": 2753, "annotation": {"number": 64, "value": 127}, "group": "control_change"}, {"time": 2775, "annotation": {"number": 64, "value": 71}, "group": "control_change"}, {"time": 2775, "annotation": {"number": 64, "value": 0}, "group": "control_change"}, {"time": 2778, "annotation": {"number": 64, "value": 71}, "group": "control_change"}, {"time": 2779, "annotation": {"number": 64, "value": 127}, "group": "control_change"}, {"time": 2799, "annotation": {"number": 64, "value": 71}, "group": "control_change"}, {"time": 2799, "annotation": {"number": 64, "value": 0}, "group": "control_change"}, {"time": 2803, "annotation": {"number": 64, "value": 71}, "group": "control_change"}, {"time": 2804, "annotation": {"number": 64, "value": 127}, "group": "control_change"}, {"time": 2823, "annotation": {"number": 64, "value": 71}, "group": "control_change"}, {"time": 2823, "annotation": {"number": 64, "value": 0}, "group": "control_change"}, {"time": 2827, "annotation": {"number": 64, "value": 71}, "group": "control_change"}, {"time": 2828, "annotation": {"number": 64, "value": 127}, "group": "control_change"}, {"time": 2846, "annotation": {"number": 64, "value": 71}, "group": "control_change"}, {"time": 2847, "annotation": {"number": 64, "value": 0}, "group": "control_change"}, {"time": 2849, "annotation": {"number": 64, "value": 71}, "group": "control_change"}, {"time": 2849, "annotation": {"number": 64, "value": 127}, "group": "control_change"}, {"time": 2870, "annotation": {"number": 64, "value": 0}, "group": "control_change"}, {"time": 2874, "annotation": {"number": 64, "value": 71}, "group": "control_change"}, {"time": 2875, "annotation": {"number": 64, "value": 127}, "group": "control_change"}, {"time": 2882, "annotation": {"number": 64, "value": 0}, "group": "control_change"}, {"time": 2883, "annotation": {"number": 64, "value": 120}, "group": "control_change"}, {"time": 2886, "annotation": {"number": 64, "value": 71}, "group": "control_change"}, {"time": 2888, "annotation": {"number": 64, "value": 0}, "group": "control_change"}, {"time": 2890, "annotation": {"number": 64, "value": 71}, "group": "control_change"}, {"time": 2891, "annotation": {"number": 64, "value": 127}, "group": "control_change"}, {"time": 2894, "annotation": {"number": 64, "value": 71}, "group": "control_change"}, {"time": 2895, "annotation": {"number": 64, "value": 0}, "group": "control_change"}, {"time": 2901, "annotation": {"number": 64, "value": 71}, "group": "control_change"}, {"time": 2902, "annotation": {"number": 64, "value": 127}, "group": "control_change"}, {"time": 2918, "annotation": {"number": 64, "value": 71}, "group": "control_change"}, {"time": 2919, "annotation": {"number": 64, "value": 0}, "group": "control_change"}, {"time": 2923, "annotation": {"number": 64, "value": 71}, "group": "control_change"}, {"time": 2924, "annotation": {"number": 64, "value": 127}, "group": "control_change"}, {"time": 2938, "annotation": {"number": 64, "value": 0}, "group": "control_change"}, {"time": 2940, "annotation": {"number": 64, "value": 127}, "group": "control_change"}, {"time": 3206, "annotation": {"number": 64, "value": 71}, "group": "control_change"}, {"time": 3206, "annotation": {"number": 64, "value": 127}, "group": "control_change"}, {"time": 3217, "annotation": {"number": 64, "value": 71}, "group": "control_change"}, {"time": 3217, "annotation": {"number": 64, "value": 0}, "group": "control_change"}, {"time": 3229, "annotation": {"number": 64, "value": 0}, "group": "control_change"}, {"time": 3233, "annotation": {"number": 64, "value": 71}, "group": "control_change"}, {"time": 3233, "annotation": {"number": 64, "value": 127}, "group": "control_change"}, {"time": 3255, "annotation": {"number": 64, "value": 71}, "group": "control_change"}, {"time": 3255, "annotation": {"number": 64, "value": 0}, "group": "control_change"}, {"time": 3258, "annotation": {"number": 64, "value": 71}, "group": "control_change"}, {"time": 3259, "annotation": {"number": 64, "value": 127}, "group": "control_change"}, {"time": 3279, "annotation": {"number": 64, "value": 71}, "group": "control_change"}, {"time": 3279, "annotation": {"number": 64, "value": 0}, "group": "control_change"}, {"time": 3283, "annotation": {"number": 64, "value": 71}, "group": "control_change"}, {"time": 3284, "annotation": {"number": 64, "value": 127}, "group": "control_change"}, {"time": 3303, "annotation": {"number": 64, "value": 71}, "group": "control_change"}, {"time": 3303, "annotation": {"number": 64, "value": 0}, "group": "control_change"}, {"time": 3307, "annotation": {"number": 64, "value": 71}, "group": "control_change"}, {"time": 3308, "annotation": {"number": 64, "value": 127}, "group": "control_change"}, {"time": 3326, "annotation": {"number": 64, "value": 71}, "group": "control_change"}, {"time": 3327, "annotation": {"number": 64, "value": 0}, "group": "control_change"}, {"time": 3329, "annotation": {"number": 64, "value": 71}, "group": "control_change"}, {"time": 3329, "annotation": {"number": 64, "value": 127}, "group": "control_change"}, {"time": 3350, "annotation": {"number": 64, "value": 0}, "group": "control_change"}, {"time": 3354, "annotation": {"number": 64, "value": 71}, "group": "control_change"}, {"time": 3355, "annotation": {"number": 64, "value": 127}, "group": "control_change"}, {"time": 3362, "annotation": {"number": 64, "value": 0}, "group": "control_change"}, {"time": 3363, "annotation": {"number": 64, "value": 120}, "group": "control_change"}, {"time": 3366, "annotation": {"number": 64, "value": 71}, "group": "control_change"}, {"time": 3368, "annotation": {"number": 64, "value": 0}, "group": "control_change"}, {"time": 3370, "annotation": {"number": 64, "value": 71}, "group": "control_change"}, {"time": 3371, "annotation": {"number": 64, "value": 127}, "group": "control_change"}, {"time": 3374, "annotation": {"number": 64, "value": 71}, "group": "control_change"}, {"time": 3375, "annotation": {"number": 64, "value": 0}, "group": "control_change"}, {"time": 3381, "annotation": {"number": 64, "value": 71}, "group": "control_change"}, {"time": 3382, "annotation": {"number": 64, "value": 127}, "group": "control_change"}, {"time": 3398, "annotation": {"number": 64, "value": 71}, "group": "control_change"}, {"time": 3399, "annotation": {"number": 64, "value": 0}, "group": "control_change"}, {"time": 3403, "annotation": {"number": 64, "value": 71}, "group": "control_change"}, {"time": 3404, "annotation": {"number": 64, "value": 127}, "group": "control_change"}, {"time": 3418, "annotation": {"number": 64, "value": 0}, "group": "control_change"}, {"time": 3425, "annotation": {"number": 64, "value": 71}, "group": "control_change"}, {"time": 3425, "annotation": {"number": 64, "value": 127}, "group": "control_change"}, {"time": 3447, "annotation": {"number": 64, "value": 71}, "group": "control_change"}, {"time": 3447, "annotation": {"number": 64, "value": 0}, "group": "control_change"}, {"time": 3450, "annotation": {"number": 64, "value": 71}, "group": "control_change"}, {"time": 3451, "annotation": {"number": 64, "value": 127}, "group": "control_change"}, {"time": 3471, "annotation": {"number": 64, "value": 71}, "group": "control_change"}, {"time": 3471, "annotation": {"number": 64, "value": 0}, "group": "control_change"}, {"time": 3475, "annotation": {"number": 64, "value": 71}, "group": "control_change"}, {"time": 3476, "annotation": {"number": 64, "value": 127}, "group": "control_change"}, {"time": 3495, "annotation": {"number": 64, "value": 71}, "group": "control_change"}, {"time": 3495, "annotation": {"number": 64, "value": 0}, "group": "control_change"}, {"time": 3499, "annotation": {"number": 64, "value": 71}, "group": "control_change"}, {"time": 3500, "annotation": {"number": 64, "value": 127}, "group": "control_change"}, {"time": 3518, "annotation": {"number": 64, "value": 71}, "group": "control_change"}, {"time": 3519, "annotation": {"number": 64, "value": 0}, "group": "control_change"}, {"time": 3521, "annotation": {"number": 64, "value": 71}, "group": "control_change"}, {"time": 3521, "annotation": {"number": 64, "value": 127}, "group": "control_change"}, {"time": 3542, "annotation": {"number": 64, "value": 0}, "group": "control_change"}, {"time": 3546, "annotation": {"number": 64, "value": 71}, "group": "control_change"}, {"time": 3547, "annotation": {"number": 64, "value": 127}, "group": "control_change"}, {"time": 3554, "annotation": {"number": 64, "value": 0}, "group": "control_change"}, {"time": 3555, "annotation": {"number": 64, "value": 120}, "group": "control_change"}, {"time": 3558, "annotation": {"number": 64, "value": 71}, "group": "control_change"}, {"time": 3560, "annotation": {"number": 64, "value": 0}, "group": "control_change"}, {"time": 3562, "annotation": {"number": 64, "value": 71}, "group": "control_change"}, {"time": 3563, "annotation": {"number": 64, "value": 127}, "group": "control_change"}, {"time": 3566, "annotation": {"number": 64, "value": 71}, "group": "control_change"}, {"time": 3567, "annotation": {"number": 64, "value": 0}, "group": "control_change"}, {"time": 3573, "annotation": {"number": 64, "value": 71}, "group": "control_change"}, {"time": 3574, "annotation": {"number": 64, "value": 127}, "group": "control_change"}, {"time": 3590, "annotation": {"number": 64, "value": 71}, "group": "control_change"}, {"time": 3591, "annotation": {"number": 64, "value": 0}, "group": "control_change"}, {"time": 3595, "annotation": {"number": 64, "value": 71}, "group": "control_change"}, {"time": 3596, "annotation": {"number": 64, "value": 127}, "group": "control_change"}, {"time": 3613, "annotation": {"number": 64, "value": 0}, "group": "control_change"}, {"time": 3613, "annotation": {"number": 64, "value": 127}, "group": "control_change"}, {"time": 3936, "annotation": {"number": 64, "value": 0}, "group": "control_change"}]}]}