{"metadata": {"schema_version": "0.2", "title": "None", "source_filename": "330.mid", "source_format": "midi"}, "resolution": 12, "tempos": [{"time": 0, "qpm": 79.00006978339498}], "time_signatures": [{"time": 0, "numerator": 4, "denominator": 4}], "tracks": [{"program": 0, "is_drum": false, "name": "MELODY", "notes": [{"time": 249, "pitch": 57, "duration": 3, "velocity": 98}, {"time": 255, "pitch": 57, "duration": 5, "velocity": 98}, {"time": 261, "pitch": 60, "duration": 4, "velocity": 102}, {"time": 267, "pitch": 60, "duration": 3, "velocity": 100}, {"time": 273, "pitch": 65, "duration": 4, "velocity": 107}, {"time": 279, "pitch": 65, "duration": 6, "velocity": 102}, {"time": 285, "pitch": 64, "duration": 4, "velocity": 98}, {"time": 291, "pitch": 64, "duration": 5, "velocity": 107}, {"time": 297, "pitch": 62, "duration": 4, "velocity": 100}, {"time": 303, "pitch": 57, "duration": 4, "velocity": 89}, {"time": 309, "pitch": 62, "duration": 7, "velocity": 100}, {"time": 345, "pitch": 62, "duration": 4, "velocity": 96}, {"time": 351, "pitch": 62, "duration": 5, "velocity": 100}, {"time": 357, "pitch": 64, "duration": 5, "velocity": 104}, {"time": 363, "pitch": 64, "duration": 4, "velocity": 102}, {"time": 369, "pitch": 69, "duration": 4, "velocity": 113}, {"time": 375, "pitch": 69, "duration": 4, "velocity": 113}, {"time": 381, "pitch": 64, "duration": 4, "velocity": 110}, {"time": 387, "pitch": 64, "duration": 4, "velocity": 107}, {"time": 393, "pitch": 60, "duration": 5, "velocity": 100}, {"time": 399, "pitch": 57, "duration": 5, "velocity": 100}, {"time": 405, "pitch": 60, "duration": 6, "velocity": 104}, {"time": 441, "pitch": 57, "duration": 4, "velocity": 96}, {"time": 447, "pitch": 57, "duration": 4, "velocity": 104}, {"time": 453, "pitch": 60, "duration": 4, "velocity": 98}, {"time": 459, "pitch": 60, "duration": 3, "velocity": 98}, {"time": 465, "pitch": 65, "duration": 4, "velocity": 104}, {"time": 471, "pitch": 65, "duration": 4, "velocity": 107}, {"time": 477, "pitch": 64, "duration": 4, "velocity": 100}, {"time": 483, "pitch": 64, "duration": 5, "velocity": 107}, {"time": 489, "pitch": 62, "duration": 4, "velocity": 108}, {"time": 495, "pitch": 57, "duration": 4, "velocity": 94}, {"time": 501, "pitch": 62, "duration": 6, "velocity": 108}, {"time": 519, "pitch": 62, "duration": 4, "velocity": 93}, {"time": 525, "pitch": 64, "duration": 5, "velocity": 107}, {"time": 537, "pitch": 63, "duration": 5, "velocity": 109}, {"time": 543, "pitch": 64, "duration": 5, "velocity": 107}, {"time": 549, "pitch": 69, "duration": 7, "velocity": 110}, {"time": 561, "pitch": 67, "duration": 9, "velocity": 113}, {"time": 573, "pitch": 65, "duration": 8, "velocity": 110}, {"time": 633, "pitch": 57, "duration": 3, "velocity": 98}, {"time": 639, "pitch": 57, "duration": 5, "velocity": 98}, {"time": 645, "pitch": 60, "duration": 4, "velocity": 102}, {"time": 651, "pitch": 60, "duration": 3, "velocity": 100}, {"time": 657, "pitch": 65, "duration": 4, "velocity": 107}, {"time": 663, "pitch": 65, "duration": 6, "velocity": 102}, {"time": 669, "pitch": 64, "duration": 4, "velocity": 98}, {"time": 675, "pitch": 64, "duration": 5, "velocity": 107}, {"time": 681, "pitch": 62, "duration": 4, "velocity": 100}, {"time": 687, "pitch": 57, "duration": 4, "velocity": 89}, {"time": 693, "pitch": 62, "duration": 7, "velocity": 100}, {"time": 729, "pitch": 62, "duration": 4, "velocity": 96}, {"time": 735, "pitch": 62, "duration": 5, "velocity": 100}, {"time": 741, "pitch": 64, "duration": 5, "velocity": 104}, {"time": 747, "pitch": 64, "duration": 4, "velocity": 102}, {"time": 753, "pitch": 69, "duration": 4, "velocity": 113}, {"time": 759, "pitch": 69, "duration": 4, "velocity": 113}, {"time": 765, "pitch": 64, "duration": 4, "velocity": 110}, {"time": 771, "pitch": 64, "duration": 4, "velocity": 107}, {"time": 783, "pitch": 57, "duration": 5, "velocity": 100}, {"time": 789, "pitch": 60, "duration": 6, "velocity": 104}, {"time": 825, "pitch": 57, "duration": 4, "velocity": 96}, {"time": 831, "pitch": 57, "duration": 4, "velocity": 104}, {"time": 837, "pitch": 60, "duration": 4, "velocity": 98}, {"time": 843, "pitch": 60, "duration": 3, "velocity": 98}, {"time": 849, "pitch": 65, "duration": 4, "velocity": 104}, {"time": 855, "pitch": 65, "duration": 4, "velocity": 107}, {"time": 861, "pitch": 64, "duration": 4, "velocity": 100}, {"time": 867, "pitch": 64, "duration": 5, "velocity": 107}, {"time": 873, "pitch": 65, "duration": 4, "velocity": 108}, {"time": 879, "pitch": 57, "duration": 4, "velocity": 94}, {"time": 885, "pitch": 62, "duration": 6, "velocity": 108}, {"time": 897, "pitch": 62, "duration": 4, "velocity": 93}, {"time": 903, "pitch": 65, "duration": 5, "velocity": 107}, {"time": 909, "pitch": 64, "duration": 5, "velocity": 107}, {"time": 921, "pitch": 63, "duration": 5, "velocity": 109}, {"time": 927, "pitch": 64, "duration": 5, "velocity": 107}, {"time": 933, "pitch": 69, "duration": 7, "velocity": 110}, {"time": 945, "pitch": 67, "duration": 9, "velocity": 113}, {"time": 957, "pitch": 65, "duration": 8, "velocity": 110}, {"time": 987, "pitch": 69, "duration": 5, "velocity": 114}, {"time": 993, "pitch": 67, "duration": 4, "velocity": 96}, {"time": 996, "pitch": 65, "duration": 6, "velocity": 98}, {"time": 1005, "pitch": 64, "duration": 5, "velocity": 108}, {"time": 1011, "pitch": 62, "duration": 3, "velocity": 102}, {"time": 1017, "pitch": 62, "duration": 4, "velocity": 96}, {"time": 1023, "pitch": 62, "duration": 4, "velocity": 96}, {"time": 1029, "pitch": 62, "duration": 4, "velocity": 102}, {"time": 1035, "pitch": 62, "duration": 5, "velocity": 96}, {"time": 1041, "pitch": 69, "duration": 8, "velocity": 110}, {"time": 1053, "pitch": 67, "duration": 6, "velocity": 114}, {"time": 1083, "pitch": 67, "duration": 6, "velocity": 114}, {"time": 1089, "pitch": 64, "duration": 2, "velocity": 102}, {"time": 1092, "pitch": 64, "duration": 5, "velocity": 104}, {"time": 1101, "pitch": 62, "duration": 7, "velocity": 102}, {"time": 1107, "pitch": 60, "duration": 5, "velocity": 98}, {"time": 1113, "pitch": 60, "duration": 3, "velocity": 110}, {"time": 1119, "pitch": 60, "duration": 5, "velocity": 108}, {"time": 1125, "pitch": 57, "duration": 4, "velocity": 98}, {"time": 1131, "pitch": 60, "duration": 4, "velocity": 110}, {"time": 1137, "pitch": 67, "duration": 7, "velocity": 113}, {"time": 1149, "pitch": 65, "duration": 5, "velocity": 113}, {"time": 1173, "pitch": 65, "duration": 4, "velocity": 100}, {"time": 1179, "pitch": 65, "duration": 6, "velocity": 108}, {"time": 1185, "pitch": 60, "duration": 5, "velocity": 100}, {"time": 1191, "pitch": 60, "duration": 5, "velocity": 104}, {"time": 1197, "pitch": 53, "duration": 4, "velocity": 104}, {"time": 1203, "pitch": 57, "duration": 3, "velocity": 102}, {"time": 1209, "pitch": 55, "duration": 5, "velocity": 91}, {"time": 1215, "pitch": 55, "duration": 4, "velocity": 102}, {"time": 1221, "pitch": 62, "duration": 7, "velocity": 108}, {"time": 1245, "pitch": 62, "duration": 9, "velocity": 108}, {"time": 1257, "pitch": 62, "duration": 3, "velocity": 108}, {"time": 1263, "pitch": 62, "duration": 3, "velocity": 110}, {"time": 1269, "pitch": 62, "duration": 3, "velocity": 110}, {"time": 1275, "pitch": 65, "duration": 3, "velocity": 116}, {"time": 1281, "pitch": 62, "duration": 4, "velocity": 113}, {"time": 1287, "pitch": 65, "duration": 5, "velocity": 116}, {"time": 1293, "pitch": 62, "duration": 4, "velocity": 113}, {"time": 1299, "pitch": 65, "duration": 3, "velocity": 113}, {"time": 1305, "pitch": 65, "duration": 3, "velocity": 114}, {"time": 1311, "pitch": 65, "duration": 4, "velocity": 117}, {"time": 1317, "pitch": 65, "duration": 4, "velocity": 107}, {"time": 1323, "pitch": 69, "duration": 5, "velocity": 114}, {"time": 1329, "pitch": 67, "duration": 7, "velocity": 91}, {"time": 1341, "pitch": 67, "duration": 6, "velocity": 114}, {"time": 1365, "pitch": 60, "duration": 4, "velocity": 108}, {"time": 1371, "pitch": 69, "duration": 4, "velocity": 114}, {"time": 1377, "pitch": 67, "duration": 4, "velocity": 116}, {"time": 1383, "pitch": 65, "duration": 3, "velocity": 107}, {"time": 1389, "pitch": 67, "duration": 4, "velocity": 116}, {"time": 1395, "pitch": 69, "duration": 5, "velocity": 117}, {"time": 1401, "pitch": 60, "duration": 5, "velocity": 107}, {"time": 1407, "pitch": 67, "duration": 5, "velocity": 113}, {"time": 1413, "pitch": 69, "duration": 5, "velocity": 116}, {"time": 1425, "pitch": 60, "duration": 5, "velocity": 107}, {"time": 1431, "pitch": 67, "duration": 4, "velocity": 116}, {"time": 1437, "pitch": 69, "duration": 5, "velocity": 119}, {"time": 1449, "pitch": 67, "duration": 3, "velocity": 113}, {"time": 1455, "pitch": 67, "duration": 3, "velocity": 113}, {"time": 1461, "pitch": 69, "duration": 2, "velocity": 110}, {"time": 1464, "pitch": 70, "duration": 4, "velocity": 116}, {"time": 1473, "pitch": 69, "duration": 6, "velocity": 117}, {"time": 1479, "pitch": 67, "duration": 6, "velocity": 114}, {"time": 1485, "pitch": 64, "duration": 4, "velocity": 114}, {"time": 1491, "pitch": 65, "duration": 4, "velocity": 114}, {"time": 1497, "pitch": 57, "duration": 4, "velocity": 107}, {"time": 1503, "pitch": 62, "duration": 4, "velocity": 110}, {"time": 1509, "pitch": 65, "duration": 4, "velocity": 113}, {"time": 1521, "pitch": 57, "duration": 4, "velocity": 110}, {"time": 1527, "pitch": 62, "duration": 4, "velocity": 114}, {"time": 1533, "pitch": 64, "duration": 5, "velocity": 119}, {"time": 1545, "pitch": 64, "duration": 4, "velocity": 114}, {"time": 1551, "pitch": 64, "duration": 3, "velocity": 110}, {"time": 1557, "pitch": 69, "duration": 2, "velocity": 113}, {"time": 1560, "pitch": 72, "duration": 5, "velocity": 116}, {"time": 1569, "pitch": 69, "duration": 5, "velocity": 114}, {"time": 1575, "pitch": 65, "duration": 6, "velocity": 114}, {"time": 1581, "pitch": 64, "duration": 6, "velocity": 108}, {"time": 1587, "pitch": 62, "duration": 5, "velocity": 117}, {"time": 1593, "pitch": 70, "duration": 2, "velocity": 116}, {"time": 1596, "pitch": 70, "duration": 5, "velocity": 119}, {"time": 1617, "pitch": 72, "duration": 7, "velocity": 114}, {"time": 1623, "pitch": 70, "duration": 5, "velocity": 119}, {"time": 1629, "pitch": 69, "duration": 3, "velocity": 116}, {"time": 1635, "pitch": 60, "duration": 4, "velocity": 116}, {"time": 1641, "pitch": 69, "duration": 2, "velocity": 114}, {"time": 1644, "pitch": 69, "duration": 5, "velocity": 117}, {"time": 1665, "pitch": 70, "duration": 5, "velocity": 119}, {"time": 1671, "pitch": 69, "duration": 5, "velocity": 114}, {"time": 1677, "pitch": 65, "duration": 4, "velocity": 113}, {"time": 1683, "pitch": 59, "duration": 3, "velocity": 110}, {"time": 1689, "pitch": 67, "duration": 2, "velocity": 114}, {"time": 1692, "pitch": 67, "duration": 4, "velocity": 114}, {"time": 1713, "pitch": 67, "duration": 6, "velocity": 119}, {"time": 1719, "pitch": 65, "duration": 4, "velocity": 114}, {"time": 1725, "pitch": 69, "duration": 4, "velocity": 119}, {"time": 1737, "pitch": 67, "duration": 4, "velocity": 113}, {"time": 1743, "pitch": 65, "duration": 4, "velocity": 114}, {"time": 1749, "pitch": 69, "duration": 5, "velocity": 117}, {"time": 1761, "pitch": 67, "duration": 7, "velocity": 116}, {"time": 1773, "pitch": 65, "duration": 7, "velocity": 116}, {"time": 1785, "pitch": 60, "duration": 4, "velocity": 114}, {"time": 1791, "pitch": 67, "duration": 5, "velocity": 113}, {"time": 1797, "pitch": 69, "duration": 5, "velocity": 116}, {"time": 1809, "pitch": 60, "duration": 4, "velocity": 114}, {"time": 1815, "pitch": 67, "duration": 4, "velocity": 116}, {"time": 1821, "pitch": 69, "duration": 5, "velocity": 114}, {"time": 1833, "pitch": 67, "duration": 3, "velocity": 113}, {"time": 1839, "pitch": 67, "duration": 4, "velocity": 116}, {"time": 1845, "pitch": 69, "duration": 3, "velocity": 114}, {"time": 1851, "pitch": 70, "duration": 4, "velocity": 119}, {"time": 1857, "pitch": 72, "duration": 5, "velocity": 116}, {"time": 1863, "pitch": 67, "duration": 5, "velocity": 107}, {"time": 1869, "pitch": 65, "duration": 4, "velocity": 114}, {"time": 1875, "pitch": 65, "duration": 4, "velocity": 114}, {"time": 1881, "pitch": 57, "duration": 6, "velocity": 102}, {"time": 1887, "pitch": 62, "duration": 4, "velocity": 108}, {"time": 1893, "pitch": 65, "duration": 5, "velocity": 117}, {"time": 1905, "pitch": 57, "duration": 4, "velocity": 110}, {"time": 1911, "pitch": 62, "duration": 4, "velocity": 116}, {"time": 1917, "pitch": 65, "duration": 4, "velocity": 116}, {"time": 1929, "pitch": 64, "duration": 4, "velocity": 114}, {"time": 1935, "pitch": 64, "duration": 4, "velocity": 117}, {"time": 1941, "pitch": 69, "duration": 3, "velocity": 114}, {"time": 1944, "pitch": 72, "duration": 3, "velocity": 113}, {"time": 1953, "pitch": 69, "duration": 6, "velocity": 114}, {"time": 1959, "pitch": 65, "duration": 7, "velocity": 116}, {"time": 1965, "pitch": 64, "duration": 6, "velocity": 113}, {"time": 1971, "pitch": 62, "duration": 4, "velocity": 116}, {"time": 1977, "pitch": 70, "duration": 2, "velocity": 116}, {"time": 1980, "pitch": 70, "duration": 6, "velocity": 113}, {"time": 2001, "pitch": 72, "duration": 6, "velocity": 110}, {"time": 2007, "pitch": 70, "duration": 5, "velocity": 119}, {"time": 2013, "pitch": 69, "duration": 4, "velocity": 113}, {"time": 2019, "pitch": 60, "duration": 4, "velocity": 110}, {"time": 2025, "pitch": 69, "duration": 2, "velocity": 110}, {"time": 2028, "pitch": 69, "duration": 4, "velocity": 114}, {"time": 2049, "pitch": 70, "duration": 6, "velocity": 113}, {"time": 2055, "pitch": 69, "duration": 7, "velocity": 114}, {"time": 2061, "pitch": 65, "duration": 4, "velocity": 116}, {"time": 2067, "pitch": 59, "duration": 4, "velocity": 113}, {"time": 2073, "pitch": 67, "duration": 4, "velocity": 116}, {"time": 2076, "pitch": 67, "duration": 1, "velocity": 116}, {"time": 2121, "pitch": 69, "duration": 6, "velocity": 113}, {"time": 2127, "pitch": 65, "duration": 4, "velocity": 114}, {"time": 2133, "pitch": 65, "duration": 4, "velocity": 114}, {"time": 2139, "pitch": 69, "duration": 8, "velocity": 117}, {"time": 2151, "pitch": 67, "duration": 8, "velocity": 116}, {"time": 2163, "pitch": 65, "duration": 6, "velocity": 119}, {"time": 2361, "pitch": 57, "duration": 3, "velocity": 98}, {"time": 2367, "pitch": 57, "duration": 5, "velocity": 98}, {"time": 2373, "pitch": 60, "duration": 3, "velocity": 102}, {"time": 2376, "pitch": 60, "duration": 3, "velocity": 100}, {"time": 2385, "pitch": 65, "duration": 4, "velocity": 107}, {"time": 2391, "pitch": 65, "duration": 6, "velocity": 102}, {"time": 2397, "pitch": 64, "duration": 4, "velocity": 98}, {"time": 2403, "pitch": 64, "duration": 5, "velocity": 107}, {"time": 2409, "pitch": 62, "duration": 4, "velocity": 100}, {"time": 2415, "pitch": 57, "duration": 4, "velocity": 89}, {"time": 2421, "pitch": 62, "duration": 7, "velocity": 100}, {"time": 2457, "pitch": 62, "duration": 4, "velocity": 96}, {"time": 2463, "pitch": 62, "duration": 5, "velocity": 100}, {"time": 2469, "pitch": 64, "duration": 5, "velocity": 104}, {"time": 2475, "pitch": 64, "duration": 4, "velocity": 102}, {"time": 2481, "pitch": 69, "duration": 4, "velocity": 113}, {"time": 2487, "pitch": 69, "duration": 4, "velocity": 113}, {"time": 2493, "pitch": 64, "duration": 4, "velocity": 110}, {"time": 2499, "pitch": 64, "duration": 4, "velocity": 107}, {"time": 2505, "pitch": 60, "duration": 5, "velocity": 100}, {"time": 2511, "pitch": 57, "duration": 5, "velocity": 100}, {"time": 2517, "pitch": 60, "duration": 6, "velocity": 104}, {"time": 2553, "pitch": 57, "duration": 4, "velocity": 96}, {"time": 2559, "pitch": 57, "duration": 4, "velocity": 104}, {"time": 2565, "pitch": 60, "duration": 3, "velocity": 98}, {"time": 2568, "pitch": 60, "duration": 3, "velocity": 98}, {"time": 2577, "pitch": 65, "duration": 4, "velocity": 104}, {"time": 2583, "pitch": 65, "duration": 4, "velocity": 107}, {"time": 2589, "pitch": 67, "duration": 4, "velocity": 100}, {"time": 2595, "pitch": 64, "duration": 5, "velocity": 107}, {"time": 2601, "pitch": 65, "duration": 4, "velocity": 108}, {"time": 2607, "pitch": 57, "duration": 4, "velocity": 94}, {"time": 2613, "pitch": 62, "duration": 6, "velocity": 108}, {"time": 2625, "pitch": 62, "duration": 4, "velocity": 93}, {"time": 2631, "pitch": 65, "duration": 4, "velocity": 93}, {"time": 2637, "pitch": 64, "duration": 5, "velocity": 107}, {"time": 2649, "pitch": 63, "duration": 5, "velocity": 109}, {"time": 2655, "pitch": 64, "duration": 5, "velocity": 107}, {"time": 2661, "pitch": 69, "duration": 7, "velocity": 110}, {"time": 2673, "pitch": 67, "duration": 9, "velocity": 113}, {"time": 2685, "pitch": 65, "duration": 8, "velocity": 110}, {"time": 2715, "pitch": 69, "duration": 5, "velocity": 114}, {"time": 2721, "pitch": 67, "duration": 4, "velocity": 96}, {"time": 2724, "pitch": 65, "duration": 5, "velocity": 98}, {"time": 2733, "pitch": 64, "duration": 5, "velocity": 108}, {"time": 2739, "pitch": 62, "duration": 3, "velocity": 102}, {"time": 2745, "pitch": 62, "duration": 4, "velocity": 96}, {"time": 2751, "pitch": 62, "duration": 4, "velocity": 96}, {"time": 2757, "pitch": 62, "duration": 4, "velocity": 102}, {"time": 2763, "pitch": 62, "duration": 5, "velocity": 96}, {"time": 2769, "pitch": 69, "duration": 8, "velocity": 110}, {"time": 2781, "pitch": 67, "duration": 6, "velocity": 114}, {"time": 2811, "pitch": 67, "duration": 6, "velocity": 114}, {"time": 2817, "pitch": 64, "duration": 2, "velocity": 102}, {"time": 2820, "pitch": 64, "duration": 5, "velocity": 104}, {"time": 2829, "pitch": 62, "duration": 7, "velocity": 102}, {"time": 2835, "pitch": 60, "duration": 5, "velocity": 98}, {"time": 2841, "pitch": 60, "duration": 3, "velocity": 110}, {"time": 2847, "pitch": 60, "duration": 5, "velocity": 108}, {"time": 2853, "pitch": 57, "duration": 4, "velocity": 98}, {"time": 2859, "pitch": 60, "duration": 4, "velocity": 110}, {"time": 2865, "pitch": 67, "duration": 7, "velocity": 113}, {"time": 2877, "pitch": 65, "duration": 5, "velocity": 113}, {"time": 2901, "pitch": 65, "duration": 4, "velocity": 100}, {"time": 2907, "pitch": 65, "duration": 6, "velocity": 108}, {"time": 2913, "pitch": 60, "duration": 5, "velocity": 100}, {"time": 2919, "pitch": 60, "duration": 5, "velocity": 104}, {"time": 2925, "pitch": 53, "duration": 4, "velocity": 104}, {"time": 2931, "pitch": 57, "duration": 3, "velocity": 102}, {"time": 2937, "pitch": 55, "duration": 5, "velocity": 91}, {"time": 2943, "pitch": 55, "duration": 4, "velocity": 102}, {"time": 2949, "pitch": 62, "duration": 7, "velocity": 108}, {"time": 2973, "pitch": 62, "duration": 9, "velocity": 108}, {"time": 2985, "pitch": 62, "duration": 3, "velocity": 108}, {"time": 2991, "pitch": 62, "duration": 3, "velocity": 110}, {"time": 2997, "pitch": 62, "duration": 3, "velocity": 110}, {"time": 3003, "pitch": 65, "duration": 3, "velocity": 116}, {"time": 3009, "pitch": 62, "duration": 4, "velocity": 113}, {"time": 3015, "pitch": 65, "duration": 5, "velocity": 116}, {"time": 3021, "pitch": 62, "duration": 4, "velocity": 113}, {"time": 3027, "pitch": 65, "duration": 3, "velocity": 113}, {"time": 3033, "pitch": 65, "duration": 3, "velocity": 114}, {"time": 3039, "pitch": 65, "duration": 4, "velocity": 117}, {"time": 3045, "pitch": 65, "duration": 4, "velocity": 107}, {"time": 3051, "pitch": 69, "duration": 5, "velocity": 114}, {"time": 3057, "pitch": 67, "duration": 7, "velocity": 91}, {"time": 3069, "pitch": 67, "duration": 6, "velocity": 114}, {"time": 3093, "pitch": 60, "duration": 4, "velocity": 108}, {"time": 3099, "pitch": 69, "duration": 4, "velocity": 114}, {"time": 3105, "pitch": 67, "duration": 4, "velocity": 116}, {"time": 3111, "pitch": 65, "duration": 3, "velocity": 107}, {"time": 3117, "pitch": 67, "duration": 4, "velocity": 116}, {"time": 3123, "pitch": 69, "duration": 5, "velocity": 117}, {"time": 3129, "pitch": 60, "duration": 5, "velocity": 107}, {"time": 3135, "pitch": 67, "duration": 5, "velocity": 113}, {"time": 3141, "pitch": 69, "duration": 5, "velocity": 116}, {"time": 3153, "pitch": 60, "duration": 5, "velocity": 107}, {"time": 3159, "pitch": 67, "duration": 4, "velocity": 116}, {"time": 3165, "pitch": 69, "duration": 5, "velocity": 119}, {"time": 3177, "pitch": 67, "duration": 3, "velocity": 113}, {"time": 3183, "pitch": 67, "duration": 3, "velocity": 113}, {"time": 3189, "pitch": 69, "duration": 2, "velocity": 110}, {"time": 3192, "pitch": 70, "duration": 4, "velocity": 116}, {"time": 3201, "pitch": 69, "duration": 6, "velocity": 117}, {"time": 3207, "pitch": 67, "duration": 6, "velocity": 114}, {"time": 3213, "pitch": 64, "duration": 4, "velocity": 114}, {"time": 3219, "pitch": 65, "duration": 4, "velocity": 114}, {"time": 3225, "pitch": 57, "duration": 4, "velocity": 107}, {"time": 3231, "pitch": 62, "duration": 4, "velocity": 110}, {"time": 3237, "pitch": 65, "duration": 4, "velocity": 113}, {"time": 3249, "pitch": 57, "duration": 4, "velocity": 110}, {"time": 3255, "pitch": 62, "duration": 4, "velocity": 114}, {"time": 3261, "pitch": 64, "duration": 5, "velocity": 119}, {"time": 3273, "pitch": 64, "duration": 4, "velocity": 114}, {"time": 3279, "pitch": 64, "duration": 3, "velocity": 110}, {"time": 3285, "pitch": 69, "duration": 2, "velocity": 113}, {"time": 3288, "pitch": 72, "duration": 5, "velocity": 116}, {"time": 3297, "pitch": 69, "duration": 5, "velocity": 114}, {"time": 3303, "pitch": 65, "duration": 6, "velocity": 114}, {"time": 3309, "pitch": 64, "duration": 6, "velocity": 108}, {"time": 3315, "pitch": 62, "duration": 5, "velocity": 117}, {"time": 3321, "pitch": 70, "duration": 2, "velocity": 116}, {"time": 3324, "pitch": 70, "duration": 5, "velocity": 119}, {"time": 3345, "pitch": 72, "duration": 7, "velocity": 114}, {"time": 3351, "pitch": 70, "duration": 5, "velocity": 119}, {"time": 3357, "pitch": 69, "duration": 3, "velocity": 116}, {"time": 3363, "pitch": 60, "duration": 4, "velocity": 116}, {"time": 3369, "pitch": 69, "duration": 2, "velocity": 114}, {"time": 3372, "pitch": 69, "duration": 5, "velocity": 117}, {"time": 3393, "pitch": 70, "duration": 5, "velocity": 119}, {"time": 3399, "pitch": 69, "duration": 5, "velocity": 114}, {"time": 3405, "pitch": 65, "duration": 4, "velocity": 113}, {"time": 3411, "pitch": 59, "duration": 3, "velocity": 110}, {"time": 3417, "pitch": 67, "duration": 2, "velocity": 114}, {"time": 3420, "pitch": 67, "duration": 4, "velocity": 114}, {"time": 3441, "pitch": 67, "duration": 6, "velocity": 119}, {"time": 3447, "pitch": 65, "duration": 4, "velocity": 114}, {"time": 3453, "pitch": 69, "duration": 4, "velocity": 119}, {"time": 3465, "pitch": 67, "duration": 4, "velocity": 113}, {"time": 3471, "pitch": 65, "duration": 4, "velocity": 114}, {"time": 3477, "pitch": 69, "duration": 5, "velocity": 117}, {"time": 3489, "pitch": 67, "duration": 7, "velocity": 116}, {"time": 3501, "pitch": 65, "duration": 7, "velocity": 116}, {"time": 3507, "pitch": 69, "duration": 7, "velocity": 116}, {"time": 3513, "pitch": 60, "duration": 4, "velocity": 114}, {"time": 3519, "pitch": 67, "duration": 5, "velocity": 113}, {"time": 3525, "pitch": 69, "duration": 5, "velocity": 116}, {"time": 3537, "pitch": 60, "duration": 4, "velocity": 114}, {"time": 3543, "pitch": 67, "duration": 4, "velocity": 116}, {"time": 3549, "pitch": 69, "duration": 5, "velocity": 114}, {"time": 3561, "pitch": 67, "duration": 3, "velocity": 113}, {"time": 3567, "pitch": 67, "duration": 4, "velocity": 116}, {"time": 3573, "pitch": 69, "duration": 3, "velocity": 114}, {"time": 3579, "pitch": 70, "duration": 4, "velocity": 119}, {"time": 3585, "pitch": 72, "duration": 5, "velocity": 116}, {"time": 3591, "pitch": 67, "duration": 5, "velocity": 107}, {"time": 3597, "pitch": 65, "duration": 4, "velocity": 114}, {"time": 3603, "pitch": 65, "duration": 4, "velocity": 114}, {"time": 3609, "pitch": 57, "duration": 6, "velocity": 102}, {"time": 3615, "pitch": 62, "duration": 4, "velocity": 108}, {"time": 3621, "pitch": 65, "duration": 5, "velocity": 117}, {"time": 3633, "pitch": 57, "duration": 4, "velocity": 110}, {"time": 3639, "pitch": 65, "duration": 4, "velocity": 116}, {"time": 3645, "pitch": 64, "duration": 4, "velocity": 116}, {"time": 3657, "pitch": 64, "duration": 4, "velocity": 114}, {"time": 3663, "pitch": 64, "duration": 4, "velocity": 117}, {"time": 3669, "pitch": 69, "duration": 3, "velocity": 114}, {"time": 3672, "pitch": 72, "duration": 3, "velocity": 113}, {"time": 3681, "pitch": 69, "duration": 6, "velocity": 114}, {"time": 3687, "pitch": 65, "duration": 7, "velocity": 116}, {"time": 3690, "pitch": 64, "duration": 6, "velocity": 113}, {"time": 3699, "pitch": 62, "duration": 4, "velocity": 116}, {"time": 3705, "pitch": 70, "duration": 2, "velocity": 116}, {"time": 3708, "pitch": 70, "duration": 6, "velocity": 113}, {"time": 3729, "pitch": 72, "duration": 6, "velocity": 110}, {"time": 3735, "pitch": 70, "duration": 5, "velocity": 119}, {"time": 3741, "pitch": 69, "duration": 4, "velocity": 113}, {"time": 3747, "pitch": 60, "duration": 4, "velocity": 110}, {"time": 3753, "pitch": 69, "duration": 2, "velocity": 110}, {"time": 3756, "pitch": 69, "duration": 4, "velocity": 114}, {"time": 3777, "pitch": 70, "duration": 6, "velocity": 113}, {"time": 3783, "pitch": 69, "duration": 7, "velocity": 114}, {"time": 3789, "pitch": 65, "duration": 4, "velocity": 116}, {"time": 3795, "pitch": 59, "duration": 4, "velocity": 113}, {"time": 3801, "pitch": 67, "duration": 2, "velocity": 116}, {"time": 3804, "pitch": 67, "duration": 4, "velocity": 116}, {"time": 3831, "pitch": 69, "duration": 6, "velocity": 113}, {"time": 3837, "pitch": 65, "duration": 6, "velocity": 113}, {"time": 3897, "pitch": 69, "duration": 4, "velocity": 108}, {"time": 3903, "pitch": 65, "duration": 4, "velocity": 104}, {"time": 3909, "pitch": 65, "duration": 5, "velocity": 104}, {"time": 3915, "pitch": 69, "duration": 6, "velocity": 116}, {"time": 3927, "pitch": 67, "duration": 8, "velocity": 113}, {"time": 3939, "pitch": 65, "duration": 8, "velocity": 104}]}, {"program": 0, "is_drum": false, "name": "BRIDGE", "notes": [{"time": 1395, "pitch": 60, "duration": 36, "velocity": 100}, {"time": 1431, "pitch": 67, "duration": 6, "velocity": 113}, {"time": 1437, "pitch": 69, "duration": 7, "velocity": 91}, {"time": 1443, "pitch": 67, "duration": 42, "velocity": 107}, {"time": 1485, "pitch": 70, "duration": 8, "velocity": 97}, {"time": 1491, "pitch": 69, "duration": 10, "velocity": 98}, {"time": 1521, "pitch": 57, "duration": 6, "velocity": 92}, {"time": 1527, "pitch": 65, "duration": 6, "velocity": 93}, {"time": 1533, "pitch": 64, "duration": 8, "velocity": 104}, {"time": 1563, "pitch": 65, "duration": 13, "velocity": 90}, {"time": 1575, "pitch": 64, "duration": 12, "velocity": 92}, {"time": 1587, "pitch": 62, "duration": 19, "velocity": 100}, {"time": 1755, "pitch": 65, "duration": 13, "velocity": 107}, {"time": 1767, "pitch": 67, "duration": 13, "velocity": 108}, {"time": 1779, "pitch": 69, "duration": 24, "velocity": 107}, {"time": 1827, "pitch": 67, "duration": 9, "velocity": 94}, {"time": 1833, "pitch": 60, "duration": 7, "velocity": 98}, {"time": 1839, "pitch": 64, "duration": 6, "velocity": 90}, {"time": 1845, "pitch": 67, "duration": 17, "velocity": 88}, {"time": 1863, "pitch": 70, "duration": 13, "velocity": 109}, {"time": 1875, "pitch": 69, "duration": 9, "velocity": 110}, {"time": 1911, "pitch": 65, "duration": 10, "velocity": 89}, {"time": 1923, "pitch": 64, "duration": 11, "velocity": 89}, {"time": 2163, "pitch": 72, "duration": 25, "velocity": 116}, {"time": 2187, "pitch": 69, "duration": 5, "velocity": 102}, {"time": 2193, "pitch": 60, "duration": 5, "velocity": 102}, {"time": 2199, "pitch": 65, "duration": 5, "velocity": 113}, {"time": 2205, "pitch": 69, "duration": 6, "velocity": 114}, {"time": 2211, "pitch": 67, "duration": 7, "velocity": 116}, {"time": 2223, "pitch": 69, "duration": 5, "velocity": 100}, {"time": 2229, "pitch": 62, "duration": 9, "velocity": 113}, {"time": 2253, "pitch": 64, "duration": 3, "velocity": 87}, {"time": 2256, "pitch": 65, "duration": 2, "velocity": 86}, {"time": 2259, "pitch": 67, "duration": 3, "velocity": 110}, {"time": 2265, "pitch": 60, "duration": 5, "velocity": 102}, {"time": 2271, "pitch": 67, "duration": 5, "velocity": 100}, {"time": 2277, "pitch": 67, "duration": 3, "velocity": 104}, {"time": 2280, "pitch": 66, "duration": 3, "velocity": 96}, {"time": 2283, "pitch": 67, "duration": 4, "velocity": 114}, {"time": 2289, "pitch": 70, "duration": 3, "velocity": 119}, {"time": 2292, "pitch": 69, "duration": 3, "velocity": 107}, {"time": 2295, "pitch": 70, "duration": 3, "velocity": 113}, {"time": 2298, "pitch": 72, "duration": 4, "velocity": 102}, {"time": 2301, "pitch": 70, "duration": 3, "velocity": 100}, {"time": 2304, "pitch": 72, "duration": 2, "velocity": 110}, {"time": 2307, "pitch": 74, "duration": 3, "velocity": 116}, {"time": 2310, "pitch": 70, "duration": 2, "velocity": 106}, {"time": 2313, "pitch": 72, "duration": 4, "velocity": 93}, {"time": 2316, "pitch": 74, "duration": 2, "velocity": 100}, {"time": 2319, "pitch": 76, "duration": 3, "velocity": 117}, {"time": 2322, "pitch": 74, "duration": 4, "velocity": 110}, {"time": 2325, "pitch": 76, "duration": 2, "velocity": 102}, {"time": 2328, "pitch": 77, "duration": 2, "velocity": 107}, {"time": 2331, "pitch": 79, "duration": 4, "velocity": 117}, {"time": 2334, "pitch": 77, "duration": 4, "velocity": 96}, {"time": 2337, "pitch": 76, "duration": 3, "velocity": 100}, {"time": 2340, "pitch": 74, "duration": 3, "velocity": 107}, {"time": 2343, "pitch": 72, "duration": 4, "velocity": 107}, {"time": 2529, "pitch": 67, "duration": 7, "velocity": 110}, {"time": 2535, "pitch": 65, "duration": 6, "velocity": 108}, {"time": 2541, "pitch": 64, "duration": 6, "velocity": 104}, {"time": 2547, "pitch": 65, "duration": 10, "velocity": 110}, {"time": 2925, "pitch": 67, "duration": 4, "velocity": 92}, {"time": 2928, "pitch": 69, "duration": 3, "velocity": 94}, {"time": 2931, "pitch": 70, "duration": 6, "velocity": 109}, {"time": 2937, "pitch": 67, "duration": 5, "velocity": 98}, {"time": 2943, "pitch": 67, "duration": 5, "velocity": 102}, {"time": 2949, "pitch": 62, "duration": 6, "velocity": 104}, {"time": 3123, "pitch": 60, "duration": 36, "velocity": 100}, {"time": 3159, "pitch": 67, "duration": 6, "velocity": 113}, {"time": 3165, "pitch": 69, "duration": 7, "velocity": 91}, {"time": 3171, "pitch": 67, "duration": 42, "velocity": 107}, {"time": 3213, "pitch": 70, "duration": 8, "velocity": 97}, {"time": 3219, "pitch": 69, "duration": 10, "velocity": 98}, {"time": 3249, "pitch": 57, "duration": 6, "velocity": 92}, {"time": 3255, "pitch": 65, "duration": 6, "velocity": 93}, {"time": 3261, "pitch": 64, "duration": 8, "velocity": 104}, {"time": 3291, "pitch": 65, "duration": 13, "velocity": 90}, {"time": 3303, "pitch": 64, "duration": 12, "velocity": 92}, {"time": 3315, "pitch": 62, "duration": 19, "velocity": 100}, {"time": 3483, "pitch": 65, "duration": 13, "velocity": 107}, {"time": 3495, "pitch": 67, "duration": 13, "velocity": 108}, {"time": 3507, "pitch": 69, "duration": 24, "velocity": 107}, {"time": 3555, "pitch": 67, "duration": 9, "velocity": 94}, {"time": 3561, "pitch": 60, "duration": 7, "velocity": 98}, {"time": 3567, "pitch": 64, "duration": 6, "velocity": 90}, {"time": 3573, "pitch": 67, "duration": 17, "velocity": 88}, {"time": 3591, "pitch": 70, "duration": 13, "velocity": 109}, {"time": 3603, "pitch": 69, "duration": 9, "velocity": 110}, {"time": 3639, "pitch": 77, "duration": 7, "velocity": 114}, {"time": 3645, "pitch": 76, "duration": 5, "velocity": 113}, {"time": 3651, "pitch": 69, "duration": 12, "velocity": 110}, {"time": 3693, "pitch": 72, "duration": 5, "velocity": 113}, {"time": 3696, "pitch": 71, "duration": 3, "velocity": 108}, {"time": 3699, "pitch": 70, "duration": 7, "velocity": 113}, {"time": 3717, "pitch": 72, "duration": 7, "velocity": 114}, {"time": 3723, "pitch": 70, "duration": 7, "velocity": 113}, {"time": 3729, "pitch": 74, "duration": 5, "velocity": 110}, {"time": 3735, "pitch": 79, "duration": 4, "velocity": 107}, {"time": 3741, "pitch": 77, "duration": 5, "velocity": 114}, {"time": 3747, "pitch": 72, "duration": 11, "velocity": 108}]}, {"program": 0, "is_drum": false, "name": "PIANO", "notes": [{"time": 51, "pitch": 53, "duration": 46, "velocity": 88}, {"time": 57, "pitch": 60, "duration": 15, "velocity": 81}, {"time": 63, "pitch": 69, "duration": 7, "velocity": 83}, {"time": 69, "pitch": 64, "duration": 12, "velocity": 67}, {"time": 75, "pitch": 60, "duration": 16, "velocity": 58}, {"time": 99, "pitch": 55, "duration": 10, "velocity": 87}, {"time": 105, "pitch": 62, "duration": 11, "velocity": 79}, {"time": 111, "pitch": 65, "duration": 13, "velocity": 80}, {"time": 117, "pitch": 55, "duration": 6, "velocity": 74}, {"time": 123, "pitch": 59, "duration": 8, "velocity": 72}, {"time": 147, "pitch": 48, "duration": 14, "velocity": 87}, {"time": 153, "pitch": 55, "duration": 8, "velocity": 79}, {"time": 159, "pitch": 58, "duration": 7, "velocity": 84}, {"time": 165, "pitch": 48, "duration": 8, "velocity": 86}, {"time": 171, "pitch": 52, "duration": 7, "velocity": 85}, {"time": 195, "pitch": 53, "duration": 37, "velocity": 85}, {"time": 201, "pitch": 55, "duration": 3, "velocity": 84}, {"time": 204, "pitch": 57, "duration": 3, "velocity": 77}, {"time": 207, "pitch": 60, "duration": 6, "velocity": 87}, {"time": 213, "pitch": 55, "duration": 7, "velocity": 79}, {"time": 219, "pitch": 57, "duration": 14, "velocity": 76}, {"time": 243, "pitch": 53, "duration": 46, "velocity": 88}, {"time": 249, "pitch": 60, "duration": 15, "velocity": 81}, {"time": 255, "pitch": 69, "duration": 7, "velocity": 83}, {"time": 261, "pitch": 64, "duration": 12, "velocity": 67}, {"time": 267, "pitch": 60, "duration": 16, "velocity": 58}, {"time": 291, "pitch": 55, "duration": 10, "velocity": 87}, {"time": 297, "pitch": 62, "duration": 11, "velocity": 79}, {"time": 303, "pitch": 65, "duration": 13, "velocity": 80}, {"time": 309, "pitch": 55, "duration": 6, "velocity": 74}, {"time": 315, "pitch": 59, "duration": 8, "velocity": 72}, {"time": 339, "pitch": 48, "duration": 14, "velocity": 87}, {"time": 345, "pitch": 55, "duration": 8, "velocity": 79}, {"time": 351, "pitch": 58, "duration": 7, "velocity": 84}, {"time": 357, "pitch": 48, "duration": 8, "velocity": 86}, {"time": 363, "pitch": 52, "duration": 7, "velocity": 85}, {"time": 387, "pitch": 53, "duration": 37, "velocity": 85}, {"time": 393, "pitch": 55, "duration": 3, "velocity": 84}, {"time": 396, "pitch": 57, "duration": 3, "velocity": 77}, {"time": 399, "pitch": 60, "duration": 6, "velocity": 87}, {"time": 405, "pitch": 55, "duration": 7, "velocity": 79}, {"time": 411, "pitch": 57, "duration": 14, "velocity": 76}, {"time": 423, "pitch": 52, "duration": 12, "velocity": 88}, {"time": 435, "pitch": 50, "duration": 40, "velocity": 82}, {"time": 441, "pitch": 57, "duration": 22, "velocity": 42}, {"time": 447, "pitch": 62, "duration": 25, "velocity": 76}, {"time": 453, "pitch": 69, "duration": 19, "velocity": 80}, {"time": 465, "pitch": 57, "duration": 10, "velocity": 68}, {"time": 471, "pitch": 65, "duration": 7, "velocity": 73}, {"time": 483, "pitch": 43, "duration": 39, "velocity": 68}, {"time": 489, "pitch": 50, "duration": 33, "velocity": 58}, {"time": 495, "pitch": 55, "duration": 28, "velocity": 66}, {"time": 531, "pitch": 48, "duration": 40, "velocity": 77}, {"time": 537, "pitch": 55, "duration": 34, "velocity": 42}, {"time": 543, "pitch": 60, "duration": 31, "velocity": 68}, {"time": 549, "pitch": 67, "duration": 25, "velocity": 81}, {"time": 561, "pitch": 64, "duration": 16, "velocity": 81}, {"time": 579, "pitch": 53, "duration": 39, "velocity": 81}, {"time": 585, "pitch": 60, "duration": 31, "velocity": 63}, {"time": 591, "pitch": 65, "duration": 7, "velocity": 68}, {"time": 597, "pitch": 69, "duration": 18, "velocity": 86}, {"time": 603, "pitch": 72, "duration": 3, "velocity": 71}, {"time": 615, "pitch": 60, "duration": 1, "velocity": 73}, {"time": 615, "pitch": 70, "duration": 12, "velocity": 73}, {"time": 618, "pitch": 65, "duration": 11, "velocity": 73}, {"time": 627, "pitch": 53, "duration": 40, "velocity": 77}, {"time": 633, "pitch": 60, "duration": 21, "velocity": 67}, {"time": 639, "pitch": 65, "duration": 7, "velocity": 66}, {"time": 645, "pitch": 69, "duration": 19, "velocity": 84}, {"time": 657, "pitch": 60, "duration": 9, "velocity": 56}, {"time": 663, "pitch": 65, "duration": 7, "velocity": 84}, {"time": 669, "pitch": 69, "duration": 6, "velocity": 86}, {"time": 675, "pitch": 55, "duration": 39, "velocity": 83}, {"time": 687, "pitch": 62, "duration": 27, "velocity": 72}, {"time": 693, "pitch": 67, "duration": 29, "velocity": 86}, {"time": 723, "pitch": 48, "duration": 39, "velocity": 86}, {"time": 729, "pitch": 55, "duration": 22, "velocity": 74}, {"time": 735, "pitch": 60, "duration": 25, "velocity": 68}, {"time": 741, "pitch": 67, "duration": 19, "velocity": 91}, {"time": 753, "pitch": 55, "duration": 9, "velocity": 77}, {"time": 759, "pitch": 64, "duration": 12, "velocity": 89}, {"time": 765, "pitch": 60, "duration": 6, "velocity": 81}, {"time": 771, "pitch": 53, "duration": 33, "velocity": 83}, {"time": 777, "pitch": 60, "duration": 27, "velocity": 73}, {"time": 783, "pitch": 65, "duration": 25, "velocity": 67}, {"time": 789, "pitch": 69, "duration": 19, "velocity": 87}, {"time": 807, "pitch": 52, "duration": 13, "velocity": 77}, {"time": 807, "pitch": 64, "duration": 13, "velocity": 84}, {"time": 819, "pitch": 50, "duration": 39, "velocity": 78}, {"time": 819, "pitch": 62, "duration": 8, "velocity": 81}, {"time": 819, "pitch": 65, "duration": 9, "velocity": 87}, {"time": 825, "pitch": 57, "duration": 22, "velocity": 74}, {"time": 831, "pitch": 64, "duration": 6, "velocity": 81}, {"time": 837, "pitch": 62, "duration": 15, "velocity": 83}, {"time": 837, "pitch": 65, "duration": 15, "velocity": 87}, {"time": 849, "pitch": 57, "duration": 11, "velocity": 72}, {"time": 855, "pitch": 62, "duration": 13, "velocity": 87}, {"time": 861, "pitch": 65, "duration": 7, "velocity": 88}, {"time": 867, "pitch": 55, "duration": 40, "velocity": 83}, {"time": 873, "pitch": 62, "duration": 21, "velocity": 73}, {"time": 885, "pitch": 67, "duration": 14, "velocity": 84}, {"time": 897, "pitch": 62, "duration": 8, "velocity": 73}, {"time": 903, "pitch": 67, "duration": 18, "velocity": 93}, {"time": 915, "pitch": 48, "duration": 40, "velocity": 82}, {"time": 921, "pitch": 55, "duration": 20, "velocity": 68}, {"time": 927, "pitch": 60, "duration": 17, "velocity": 73}, {"time": 933, "pitch": 67, "duration": 8, "velocity": 83}, {"time": 939, "pitch": 64, "duration": 10, "velocity": 81}, {"time": 945, "pitch": 55, "duration": 8, "velocity": 82}, {"time": 951, "pitch": 60, "duration": 9, "velocity": 90}, {"time": 951, "pitch": 67, "duration": 14, "velocity": 87}, {"time": 957, "pitch": 64, "duration": 9, "velocity": 84}, {"time": 963, "pitch": 53, "duration": 37, "velocity": 84}, {"time": 969, "pitch": 60, "duration": 22, "velocity": 72}, {"time": 975, "pitch": 64, "duration": 6, "velocity": 80}, {"time": 981, "pitch": 65, "duration": 7, "velocity": 84}, {"time": 987, "pitch": 69, "duration": 9, "velocity": 91}, {"time": 993, "pitch": 67, "duration": 6, "velocity": 84}, {"time": 999, "pitch": 52, "duration": 7, "velocity": 83}, {"time": 999, "pitch": 64, "duration": 13, "velocity": 91}, {"time": 999, "pitch": 67, "duration": 12, "velocity": 88}, {"time": 1011, "pitch": 46, "duration": 42, "velocity": 78}, {"time": 1011, "pitch": 62, "duration": 17, "velocity": 83}, {"time": 1011, "pitch": 65, "duration": 11, "velocity": 87}, {"time": 1017, "pitch": 53, "duration": 37, "velocity": 67}, {"time": 1023, "pitch": 58, "duration": 13, "velocity": 70}, {"time": 1029, "pitch": 60, "duration": 7, "velocity": 74}, {"time": 1029, "pitch": 65, "duration": 14, "velocity": 81}, {"time": 1035, "pitch": 62, "duration": 9, "velocity": 86}, {"time": 1041, "pitch": 58, "duration": 7, "velocity": 78}, {"time": 1047, "pitch": 65, "duration": 12, "velocity": 110}, {"time": 1053, "pitch": 58, "duration": 3, "velocity": 83}, {"time": 1059, "pitch": 48, "duration": 49, "velocity": 77}, {"time": 1059, "pitch": 60, "duration": 7, "velocity": 76}, {"time": 1059, "pitch": 64, "duration": 10, "velocity": 77}, {"time": 1059, "pitch": 67, "duration": 9, "velocity": 78}, {"time": 1065, "pitch": 55, "duration": 19, "velocity": 63}, {"time": 1071, "pitch": 62, "duration": 7, "velocity": 87}, {"time": 1077, "pitch": 67, "duration": 19, "velocity": 98}, {"time": 1089, "pitch": 55, "duration": 9, "velocity": 67}, {"time": 1095, "pitch": 64, "duration": 13, "velocity": 87}, {"time": 1101, "pitch": 67, "duration": 16, "velocity": 87}, {"time": 1107, "pitch": 45, "duration": 41, "velocity": 83}, {"time": 1113, "pitch": 52, "duration": 36, "velocity": 66}, {"time": 1119, "pitch": 57, "duration": 16, "velocity": 76}, {"time": 1125, "pitch": 67, "duration": 19, "velocity": 87}, {"time": 1137, "pitch": 57, "duration": 18, "velocity": 78}, {"time": 1143, "pitch": 64, "duration": 7, "velocity": 93}, {"time": 1149, "pitch": 67, "duration": 7, "velocity": 89}, {"time": 1155, "pitch": 50, "duration": 43, "velocity": 81}, {"time": 1161, "pitch": 57, "duration": 22, "velocity": 79}, {"time": 1167, "pitch": 62, "duration": 13, "velocity": 80}, {"time": 1173, "pitch": 64, "duration": 6, "velocity": 90}, {"time": 1179, "pitch": 65, "duration": 10, "velocity": 108}, {"time": 1185, "pitch": 57, "duration": 12, "velocity": 83}, {"time": 1191, "pitch": 64, "duration": 7, "velocity": 100}, {"time": 1197, "pitch": 65, "duration": 4, "velocity": 86}, {"time": 1203, "pitch": 43, "duration": 43, "velocity": 80}, {"time": 1209, "pitch": 50, "duration": 43, "velocity": 62}, {"time": 1215, "pitch": 55, "duration": 15, "velocity": 72}, {"time": 1221, "pitch": 58, "duration": 18, "velocity": 80}, {"time": 1233, "pitch": 55, "duration": 13, "velocity": 73}, {"time": 1239, "pitch": 62, "duration": 7, "velocity": 56}, {"time": 1245, "pitch": 67, "duration": 23, "velocity": 80}, {"time": 1251, "pitch": 43, "duration": 41, "velocity": 81}, {"time": 1251, "pitch": 59, "duration": 17, "velocity": 83}, {"time": 1257, "pitch": 50, "duration": 35, "velocity": 68}, {"time": 1263, "pitch": 55, "duration": 12, "velocity": 83}, {"time": 1269, "pitch": 62, "duration": 13, "velocity": 86}, {"time": 1269, "pitch": 67, "duration": 3, "velocity": 54}, {"time": 1275, "pitch": 59, "duration": 11, "velocity": 91}, {"time": 1275, "pitch": 67, "duration": 5, "velocity": 84}, {"time": 1281, "pitch": 55, "duration": 14, "velocity": 88}, {"time": 1287, "pitch": 62, "duration": 12, "velocity": 94}, {"time": 1293, "pitch": 67, "duration": 19, "velocity": 84}, {"time": 1299, "pitch": 48, "duration": 43, "velocity": 82}, {"time": 1299, "pitch": 60, "duration": 5, "velocity": 76}, {"time": 1299, "pitch": 64, "duration": 10, "velocity": 79}, {"time": 1305, "pitch": 55, "duration": 43, "velocity": 68}, {"time": 1311, "pitch": 60, "duration": 12, "velocity": 82}, {"time": 1317, "pitch": 62, "duration": 11, "velocity": 89}, {"time": 1317, "pitch": 67, "duration": 13, "velocity": 89}, {"time": 1329, "pitch": 60, "duration": 7, "velocity": 80}, {"time": 1335, "pitch": 64, "duration": 11, "velocity": 92}, {"time": 1335, "pitch": 67, "duration": 11, "velocity": 104}, {"time": 1341, "pitch": 60, "duration": 3, "velocity": 71}, {"time": 1347, "pitch": 48, "duration": 39, "velocity": 87}, {"time": 1347, "pitch": 64, "duration": 17, "velocity": 91}, {"time": 1347, "pitch": 67, "duration": 13, "velocity": 93}, {"time": 1353, "pitch": 55, "duration": 33, "velocity": 71}, {"time": 1359, "pitch": 60, "duration": 15, "velocity": 81}, {"time": 1365, "pitch": 62, "duration": 7, "velocity": 79}, {"time": 1371, "pitch": 64, "duration": 11, "velocity": 89}, {"time": 1377, "pitch": 60, "duration": 7, "velocity": 81}, {"time": 1383, "pitch": 67, "duration": 8, "velocity": 104}, {"time": 1392, "pitch": 60, "duration": 7, "velocity": 38}, {"time": 1392, "pitch": 65, "duration": 7, "velocity": 64}, {"time": 1395, "pitch": 53, "duration": 43, "velocity": 75}, {"time": 1395, "pitch": 69, "duration": 6, "velocity": 83}, {"time": 1401, "pitch": 60, "duration": 8, "velocity": 71}, {"time": 1407, "pitch": 65, "duration": 5, "velocity": 87}, {"time": 1407, "pitch": 69, "duration": 6, "velocity": 88}, {"time": 1413, "pitch": 60, "duration": 9, "velocity": 66}, {"time": 1419, "pitch": 65, "duration": 10, "velocity": 88}, {"time": 1419, "pitch": 72, "duration": 8, "velocity": 91}, {"time": 1425, "pitch": 60, "duration": 12, "velocity": 74}, {"time": 1431, "pitch": 65, "duration": 18, "velocity": 89}, {"time": 1431, "pitch": 72, "duration": 14, "velocity": 88}, {"time": 1437, "pitch": 69, "duration": 8, "velocity": 85}, {"time": 1443, "pitch": 48, "duration": 43, "velocity": 86}, {"time": 1449, "pitch": 55, "duration": 37, "velocity": 70}, {"time": 1455, "pitch": 64, "duration": 7, "velocity": 90}, {"time": 1455, "pitch": 67, "duration": 7, "velocity": 94}, {"time": 1461, "pitch": 60, "duration": 9, "velocity": 77}, {"time": 1467, "pitch": 62, "duration": 8, "velocity": 92}, {"time": 1467, "pitch": 67, "duration": 8, "velocity": 96}, {"time": 1473, "pitch": 60, "duration": 12, "velocity": 85}, {"time": 1479, "pitch": 64, "duration": 7, "velocity": 104}, {"time": 1479, "pitch": 67, "duration": 6, "velocity": 110}, {"time": 1485, "pitch": 69, "duration": 8, "velocity": 88}, {"time": 1488, "pitch": 64, "duration": 2, "velocity": 38}, {"time": 1491, "pitch": 50, "duration": 42, "velocity": 86}, {"time": 1491, "pitch": 62, "duration": 7, "velocity": 82}, {"time": 1491, "pitch": 65, "duration": 16, "velocity": 87}, {"time": 1497, "pitch": 57, "duration": 20, "velocity": 71}, {"time": 1503, "pitch": 62, "duration": 13, "velocity": 83}, {"time": 1509, "pitch": 64, "duration": 8, "velocity": 98}, {"time": 1509, "pitch": 69, "duration": 13, "velocity": 93}, {"time": 1515, "pitch": 65, "duration": 10, "velocity": 83}, {"time": 1521, "pitch": 57, "duration": 10, "velocity": 77}, {"time": 1527, "pitch": 64, "duration": 7, "velocity": 91}, {"time": 1533, "pitch": 69, "duration": 6, "velocity": 87}, {"time": 1539, "pitch": 45, "duration": 38, "velocity": 83}, {"time": 1539, "pitch": 60, "duration": 12, "velocity": 81}, {"time": 1539, "pitch": 67, "duration": 13, "velocity": 84}, {"time": 1545, "pitch": 52, "duration": 32, "velocity": 70}, {"time": 1551, "pitch": 57, "duration": 13, "velocity": 84}, {"time": 1557, "pitch": 60, "duration": 14, "velocity": 86}, {"time": 1557, "pitch": 64, "duration": 6, "velocity": 83}, {"time": 1563, "pitch": 67, "duration": 9, "velocity": 88}, {"time": 1569, "pitch": 57, "duration": 8, "velocity": 90}, {"time": 1575, "pitch": 60, "duration": 7, "velocity": 98}, {"time": 1575, "pitch": 67, "duration": 7, "velocity": 93}, {"time": 1581, "pitch": 64, "duration": 5, "velocity": 82}, {"time": 1587, "pitch": 46, "duration": 44, "velocity": 82}, {"time": 1587, "pitch": 62, "duration": 15, "velocity": 91}, {"time": 1587, "pitch": 65, "duration": 15, "velocity": 90}, {"time": 1593, "pitch": 53, "duration": 37, "velocity": 67}, {"time": 1599, "pitch": 58, "duration": 8, "velocity": 83}, {"time": 1605, "pitch": 62, "duration": 14, "velocity": 89}, {"time": 1605, "pitch": 65, "duration": 13, "velocity": 88}, {"time": 1617, "pitch": 58, "duration": 8, "velocity": 79}, {"time": 1623, "pitch": 62, "duration": 11, "velocity": 110}, {"time": 1623, "pitch": 65, "duration": 8, "velocity": 107}, {"time": 1635, "pitch": 41, "duration": 42, "velocity": 88}, {"time": 1641, "pitch": 48, "duration": 37, "velocity": 69}, {"time": 1647, "pitch": 53, "duration": 14, "velocity": 78}, {"time": 1653, "pitch": 57, "duration": 8, "velocity": 77}, {"time": 1659, "pitch": 60, "duration": 8, "velocity": 92}, {"time": 1665, "pitch": 53, "duration": 13, "velocity": 83}, {"time": 1671, "pitch": 57, "duration": 6, "velocity": 92}, {"time": 1677, "pitch": 60, "duration": 6, "velocity": 88}, {"time": 1683, "pitch": 43, "duration": 10, "velocity": 84}, {"time": 1689, "pitch": 50, "duration": 4, "velocity": 78}, {"time": 1695, "pitch": 55, "duration": 36, "velocity": 87}, {"time": 1701, "pitch": 59, "duration": 8, "velocity": 78}, {"time": 1707, "pitch": 67, "duration": 12, "velocity": 89}, {"time": 1710, "pitch": 43, "duration": 10, "velocity": 85}, {"time": 1719, "pitch": 62, "duration": 7, "velocity": 91}, {"time": 1725, "pitch": 67, "duration": 9, "velocity": 100}, {"time": 1731, "pitch": 48, "duration": 41, "velocity": 87}, {"time": 1731, "pitch": 60, "duration": 6, "velocity": 87}, {"time": 1731, "pitch": 64, "duration": 10, "velocity": 88}, {"time": 1737, "pitch": 55, "duration": 21, "velocity": 77}, {"time": 1743, "pitch": 60, "duration": 13, "velocity": 88}, {"time": 1749, "pitch": 62, "duration": 6, "velocity": 87}, {"time": 1749, "pitch": 67, "duration": 5, "velocity": 88}, {"time": 1755, "pitch": 64, "duration": 8, "velocity": 91}, {"time": 1755, "pitch": 67, "duration": 7, "velocity": 88}, {"time": 1761, "pitch": 55, "duration": 9, "velocity": 91}, {"time": 1767, "pitch": 64, "duration": 7, "velocity": 100}, {"time": 1773, "pitch": 67, "duration": 18, "velocity": 89}, {"time": 1779, "pitch": 41, "duration": 40, "velocity": 86}, {"time": 1779, "pitch": 57, "duration": 9, "velocity": 77}, {"time": 1779, "pitch": 60, "duration": 12, "velocity": 73}, {"time": 1785, "pitch": 48, "duration": 35, "velocity": 69}, {"time": 1791, "pitch": 53, "duration": 12, "velocity": 84}, {"time": 1797, "pitch": 57, "duration": 10, "velocity": 87}, {"time": 1797, "pitch": 60, "duration": 11, "velocity": 91}, {"time": 1809, "pitch": 53, "duration": 12, "velocity": 83}, {"time": 1815, "pitch": 57, "duration": 8, "velocity": 91}, {"time": 1821, "pitch": 65, "duration": 7, "velocity": 88}, {"time": 1827, "pitch": 48, "duration": 43, "velocity": 91}, {"time": 1833, "pitch": 55, "duration": 38, "velocity": 79}, {"time": 1839, "pitch": 62, "duration": 6, "velocity": 93}, {"time": 1839, "pitch": 67, "duration": 12, "velocity": 102}, {"time": 1845, "pitch": 64, "duration": 10, "velocity": 96}, {"time": 1851, "pitch": 60, "duration": 13, "velocity": 84}, {"time": 1857, "pitch": 64, "duration": 12, "velocity": 96}, {"time": 1857, "pitch": 72, "duration": 17, "velocity": 100}, {"time": 1863, "pitch": 67, "duration": 7, "velocity": 89}, {"time": 1869, "pitch": 60, "duration": 5, "velocity": 78}, {"time": 1875, "pitch": 50, "duration": 40, "velocity": 87}, {"time": 1875, "pitch": 62, "duration": 10, "velocity": 87}, {"time": 1875, "pitch": 65, "duration": 5, "velocity": 91}, {"time": 1875, "pitch": 69, "duration": 8, "velocity": 92}, {"time": 1881, "pitch": 57, "duration": 20, "velocity": 70}, {"time": 1887, "pitch": 64, "duration": 6, "velocity": 87}, {"time": 1893, "pitch": 62, "duration": 14, "velocity": 92}, {"time": 1893, "pitch": 65, "duration": 15, "velocity": 100}, {"time": 1905, "pitch": 57, "duration": 8, "velocity": 82}, {"time": 1911, "pitch": 64, "duration": 7, "velocity": 100}, {"time": 1917, "pitch": 69, "duration": 7, "velocity": 88}, {"time": 1923, "pitch": 45, "duration": 40, "velocity": 85}, {"time": 1929, "pitch": 52, "duration": 34, "velocity": 78}, {"time": 1935, "pitch": 57, "duration": 14, "velocity": 86}, {"time": 1941, "pitch": 62, "duration": 13, "velocity": 88}, {"time": 1941, "pitch": 67, "duration": 13, "velocity": 90}, {"time": 1953, "pitch": 57, "duration": 9, "velocity": 88}, {"time": 1959, "pitch": 64, "duration": 12, "velocity": 108}, {"time": 1959, "pitch": 69, "duration": 6, "velocity": 108}, {"time": 1965, "pitch": 69, "duration": 6, "velocity": 89}, {"time": 1971, "pitch": 46, "duration": 49, "velocity": 83}, {"time": 1971, "pitch": 62, "duration": 16, "velocity": 88}, {"time": 1971, "pitch": 65, "duration": 16, "velocity": 92}, {"time": 1977, "pitch": 53, "duration": 33, "velocity": 65}, {"time": 1983, "pitch": 58, "duration": 15, "velocity": 81}, {"time": 1989, "pitch": 62, "duration": 14, "velocity": 88}, {"time": 1989, "pitch": 65, "duration": 12, "velocity": 88}, {"time": 2001, "pitch": 58, "duration": 8, "velocity": 82}, {"time": 2007, "pitch": 60, "duration": 6, "velocity": 93}, {"time": 2007, "pitch": 65, "duration": 7, "velocity": 100}, {"time": 2013, "pitch": 62, "duration": 7, "velocity": 79}, {"time": 2019, "pitch": 41, "duration": 42, "velocity": 78}, {"time": 2019, "pitch": 57, "duration": 18, "velocity": 80}, {"time": 2019, "pitch": 65, "duration": 10, "velocity": 89}, {"time": 2025, "pitch": 48, "duration": 37, "velocity": 62}, {"time": 2031, "pitch": 53, "duration": 14, "velocity": 77}, {"time": 2037, "pitch": 55, "duration": 7, "velocity": 83}, {"time": 2037, "pitch": 60, "duration": 12, "velocity": 82}, {"time": 2043, "pitch": 57, "duration": 6, "velocity": 90}, {"time": 2049, "pitch": 53, "duration": 15, "velocity": 83}, {"time": 2055, "pitch": 57, "duration": 8, "velocity": 88}, {"time": 2055, "pitch": 65, "duration": 9, "velocity": 91}, {"time": 2067, "pitch": 43, "duration": 41, "velocity": 82}, {"time": 2067, "pitch": 59, "duration": 16, "velocity": 84}, {"time": 2067, "pitch": 67, "duration": 17, "velocity": 88}, {"time": 2073, "pitch": 50, "duration": 36, "velocity": 68}, {"time": 2079, "pitch": 55, "duration": 17, "velocity": 78}, {"time": 2085, "pitch": 62, "duration": 7, "velocity": 87}, {"time": 2091, "pitch": 59, "duration": 16, "velocity": 87}, {"time": 2091, "pitch": 67, "duration": 13, "velocity": 88}, {"time": 2097, "pitch": 55, "duration": 18, "velocity": 80}, {"time": 2103, "pitch": 62, "duration": 7, "velocity": 82}, {"time": 2109, "pitch": 67, "duration": 45, "velocity": 86}, {"time": 2115, "pitch": 48, "duration": 40, "velocity": 71}, {"time": 2115, "pitch": 60, "duration": 41, "velocity": 78}, {"time": 2115, "pitch": 64, "duration": 40, "velocity": 86}, {"time": 2163, "pitch": 41, "duration": 43, "velocity": 74}, {"time": 2163, "pitch": 57, "duration": 10, "velocity": 38}, {"time": 2163, "pitch": 60, "duration": 2, "velocity": 76}, {"time": 2163, "pitch": 65, "duration": 8, "velocity": 86}, {"time": 2169, "pitch": 48, "duration": 37, "velocity": 70}, {"time": 2175, "pitch": 57, "duration": 6, "velocity": 82}, {"time": 2175, "pitch": 60, "duration": 6, "velocity": 80}, {"time": 2175, "pitch": 65, "duration": 6, "velocity": 87}, {"time": 2181, "pitch": 53, "duration": 8, "velocity": 74}, {"time": 2187, "pitch": 55, "duration": 6, "velocity": 86}, {"time": 2187, "pitch": 60, "duration": 6, "velocity": 87}, {"time": 2193, "pitch": 53, "duration": 8, "velocity": 74}, {"time": 2199, "pitch": 57, "duration": 7, "velocity": 88}, {"time": 2199, "pitch": 65, "duration": 10, "velocity": 92}, {"time": 2205, "pitch": 53, "duration": 6, "velocity": 80}, {"time": 2211, "pitch": 43, "duration": 42, "velocity": 86}, {"time": 2211, "pitch": 59, "duration": 13, "velocity": 86}, {"time": 2211, "pitch": 62, "duration": 17, "velocity": 102}, {"time": 2211, "pitch": 67, "duration": 13, "velocity": 96}, {"time": 2217, "pitch": 50, "duration": 37, "velocity": 42}, {"time": 2223, "pitch": 55, "duration": 10, "velocity": 77}, {"time": 2229, "pitch": 59, "duration": 11, "velocity": 91}, {"time": 2229, "pitch": 62, "duration": 13, "velocity": 100}, {"time": 2229, "pitch": 67, "duration": 13, "velocity": 93}, {"time": 2241, "pitch": 55, "duration": 7, "velocity": 84}, {"time": 2247, "pitch": 59, "duration": 6, "velocity": 102}, {"time": 2247, "pitch": 62, "duration": 10, "velocity": 113}, {"time": 2247, "pitch": 67, "duration": 7, "velocity": 100}, {"time": 2253, "pitch": 55, "duration": 6, "velocity": 84}, {"time": 2259, "pitch": 48, "duration": 45, "velocity": 87}, {"time": 2259, "pitch": 60, "duration": 8, "velocity": 89}, {"time": 2259, "pitch": 64, "duration": 9, "velocity": 100}, {"time": 2259, "pitch": 67, "duration": 7, "velocity": 91}, {"time": 2271, "pitch": 60, "duration": 8, "velocity": 91}, {"time": 2271, "pitch": 64, "duration": 9, "velocity": 102}, {"time": 2271, "pitch": 67, "duration": 11, "velocity": 94}, {"time": 2277, "pitch": 55, "duration": 9, "velocity": 69}, {"time": 2283, "pitch": 60, "duration": 8, "velocity": 85}, {"time": 2283, "pitch": 64, "duration": 10, "velocity": 88}, {"time": 2283, "pitch": 67, "duration": 10, "velocity": 92}, {"time": 2292, "pitch": 55, "duration": 6, "velocity": 88}, {"time": 2295, "pitch": 60, "duration": 8, "velocity": 108}, {"time": 2295, "pitch": 64, "duration": 10, "velocity": 114}, {"time": 2295, "pitch": 67, "duration": 10, "velocity": 104}, {"time": 2301, "pitch": 55, "duration": 7, "velocity": 81}, {"time": 2307, "pitch": 48, "duration": 44, "velocity": 87}, {"time": 2307, "pitch": 60, "duration": 8, "velocity": 88}, {"time": 2307, "pitch": 64, "duration": 9, "velocity": 93}, {"time": 2307, "pitch": 67, "duration": 9, "velocity": 94}, {"time": 2316, "pitch": 55, "duration": 5, "velocity": 84}, {"time": 2319, "pitch": 60, "duration": 5, "velocity": 94}, {"time": 2319, "pitch": 67, "duration": 7, "velocity": 107}, {"time": 2325, "pitch": 55, "duration": 7, "velocity": 84}, {"time": 2331, "pitch": 64, "duration": 7, "velocity": 102}, {"time": 2331, "pitch": 72, "duration": 5, "velocity": 102}, {"time": 2334, "pitch": 55, "duration": 7, "velocity": 86}, {"time": 2340, "pitch": 64, "duration": 4, "velocity": 102}, {"time": 2340, "pitch": 67, "duration": 5, "velocity": 104}, {"time": 2340, "pitch": 72, "duration": 5, "velocity": 98}, {"time": 2343, "pitch": 55, "duration": 8, "velocity": 104}, {"time": 2346, "pitch": 64, "duration": 3, "velocity": 96}, {"time": 2349, "pitch": 67, "duration": 2, "velocity": 96}, {"time": 2355, "pitch": 53, "duration": 39, "velocity": 88}, {"time": 2355, "pitch": 65, "duration": 9, "velocity": 96}, {"time": 2355, "pitch": 72, "duration": 8, "velocity": 102}, {"time": 2361, "pitch": 60, "duration": 7, "velocity": 72}, {"time": 2367, "pitch": 65, "duration": 7, "velocity": 90}, {"time": 2367, "pitch": 69, "duration": 7, "velocity": 94}, {"time": 2373, "pitch": 60, "duration": 9, "velocity": 78}, {"time": 2379, "pitch": 65, "duration": 9, "velocity": 89}, {"time": 2379, "pitch": 72, "duration": 7, "velocity": 86}, {"time": 2385, "pitch": 60, "duration": 9, "velocity": 86}, {"time": 2391, "pitch": 65, "duration": 7, "velocity": 107}, {"time": 2391, "pitch": 72, "duration": 6, "velocity": 110}, {"time": 2397, "pitch": 67, "duration": 5, "velocity": 78}, {"time": 2403, "pitch": 55, "duration": 43, "velocity": 83}, {"time": 2403, "pitch": 62, "duration": 20, "velocity": 89}, {"time": 2403, "pitch": 71, "duration": 11, "velocity": 92}, {"time": 2415, "pitch": 67, "duration": 5, "velocity": 86}, {"time": 2421, "pitch": 67, "duration": 12, "velocity": 88}, {"time": 2421, "pitch": 74, "duration": 7, "velocity": 110}, {"time": 2427, "pitch": 62, "duration": 12, "velocity": 83}, {"time": 2433, "pitch": 71, "duration": 12, "velocity": 102}, {"time": 2433, "pitch": 74, "duration": 18, "velocity": 88}, {"time": 2439, "pitch": 62, "duration": 5, "velocity": 91}, {"time": 2445, "pitch": 67, "duration": 7, "velocity": 93}, {"time": 2451, "pitch": 48, "duration": 40, "velocity": 89}, {"time": 2457, "pitch": 55, "duration": 34, "velocity": 78}, {"time": 2463, "pitch": 62, "duration": 6, "velocity": 91}, {"time": 2463, "pitch": 67, "duration": 7, "velocity": 104}, {"time": 2469, "pitch": 60, "duration": 12, "velocity": 79}, {"time": 2475, "pitch": 64, "duration": 10, "velocity": 91}, {"time": 2475, "pitch": 72, "duration": 9, "velocity": 96}, {"time": 2484, "pitch": 60, "duration": 5, "velocity": 86}, {"time": 2487, "pitch": 64, "duration": 7, "velocity": 110}, {"time": 2487, "pitch": 72, "duration": 6, "velocity": 100}, {"time": 2493, "pitch": 67, "duration": 6, "velocity": 88}, {"time": 2499, "pitch": 41, "duration": 42, "velocity": 87}, {"time": 2499, "pitch": 60, "duration": 13, "velocity": 87}, {"time": 2499, "pitch": 69, "duration": 6, "velocity": 89}, {"time": 2505, "pitch": 48, "duration": 36, "velocity": 65}, {"time": 2511, "pitch": 53, "duration": 15, "velocity": 83}, {"time": 2517, "pitch": 55, "duration": 6, "velocity": 82}, {"time": 2517, "pitch": 60, "duration": 5, "velocity": 84}, {"time": 2523, "pitch": 57, "duration": 6, "velocity": 87}, {"time": 2523, "pitch": 60, "duration": 7, "velocity": 80}, {"time": 2529, "pitch": 53, "duration": 14, "velocity": 86}, {"time": 2535, "pitch": 64, "duration": 6, "velocity": 107}, {"time": 2541, "pitch": 65, "duration": 11, "velocity": 91}, {"time": 2547, "pitch": 53, "duration": 41, "velocity": 86}, {"time": 2547, "pitch": 60, "duration": 4, "velocity": 87}, {"time": 2547, "pitch": 69, "duration": 6, "velocity": 87}, {"time": 2553, "pitch": 60, "duration": 8, "velocity": 80}, {"time": 2559, "pitch": 65, "duration": 7, "velocity": 88}, {"time": 2559, "pitch": 69, "duration": 6, "velocity": 98}, {"time": 2565, "pitch": 60, "duration": 12, "velocity": 73}, {"time": 2571, "pitch": 65, "duration": 8, "velocity": 89}, {"time": 2571, "pitch": 72, "duration": 7, "velocity": 84}, {"time": 2577, "pitch": 60, "duration": 7, "velocity": 78}, {"time": 2583, "pitch": 65, "duration": 7, "velocity": 113}, {"time": 2583, "pitch": 72, "duration": 8, "velocity": 104}, {"time": 2589, "pitch": 69, "duration": 6, "velocity": 89}, {"time": 2595, "pitch": 55, "duration": 32, "velocity": 84}, {"time": 2595, "pitch": 62, "duration": 8, "velocity": 91}, {"time": 2595, "pitch": 71, "duration": 8, "velocity": 91}, {"time": 2607, "pitch": 62, "duration": 8, "velocity": 89}, {"time": 2607, "pitch": 71, "duration": 9, "velocity": 89}, {"time": 2613, "pitch": 67, "duration": 16, "velocity": 84}, {"time": 2625, "pitch": 62, "duration": 4, "velocity": 86}, {"time": 2628, "pitch": 55, "duration": 6, "velocity": 90}, {"time": 2631, "pitch": 62, "duration": 8, "velocity": 110}, {"time": 2631, "pitch": 71, "duration": 8, "velocity": 96}, {"time": 2637, "pitch": 67, "duration": 6, "velocity": 89}, {"time": 2643, "pitch": 48, "duration": 40, "velocity": 89}, {"time": 2649, "pitch": 55, "duration": 33, "velocity": 84}, {"time": 2655, "pitch": 64, "duration": 12, "velocity": 94}, {"time": 2655, "pitch": 72, "duration": 5, "velocity": 104}, {"time": 2661, "pitch": 60, "duration": 9, "velocity": 75}, {"time": 2667, "pitch": 62, "duration": 6, "velocity": 88}, {"time": 2667, "pitch": 67, "duration": 7, "velocity": 102}, {"time": 2673, "pitch": 60, "duration": 7, "velocity": 87}, {"time": 2679, "pitch": 64, "duration": 11, "velocity": 110}, {"time": 2679, "pitch": 67, "duration": 11, "velocity": 114}, {"time": 2691, "pitch": 41, "duration": 40, "velocity": 88}, {"time": 2691, "pitch": 60, "duration": 10, "velocity": 90}, {"time": 2691, "pitch": 65, "duration": 4, "velocity": 92}, {"time": 2691, "pitch": 69, "duration": 5, "velocity": 91}, {"time": 2697, "pitch": 48, "duration": 35, "velocity": 78}, {"time": 2700, "pitch": 53, "duration": 8, "velocity": 88}, {"time": 2703, "pitch": 55, "duration": 4, "velocity": 110}, {"time": 2706, "pitch": 57, "duration": 4, "velocity": 89}, {"time": 2709, "pitch": 53, "duration": 12, "velocity": 91}, {"time": 2709, "pitch": 60, "duration": 2, "velocity": 96}, {"time": 2715, "pitch": 65, "duration": 4, "velocity": 107}, {"time": 2718, "pitch": 67, "duration": 2, "velocity": 100}, {"time": 2721, "pitch": 69, "duration": 4, "velocity": 113}, {"time": 2724, "pitch": 53, "duration": 10, "velocity": 104}, {"time": 2727, "pitch": 72, "duration": 7, "velocity": 114}, {"time": 2730, "pitch": 67, "duration": 4, "velocity": 91}, {"time": 2733, "pitch": 69, "duration": 2, "velocity": 85}, {"time": 2739, "pitch": 46, "duration": 28, "velocity": 87}, {"time": 2739, "pitch": 62, "duration": 6, "velocity": 93}, {"time": 2739, "pitch": 65, "duration": 7, "velocity": 98}, {"time": 2739, "pitch": 69, "duration": 7, "velocity": 96}, {"time": 2751, "pitch": 62, "duration": 10, "velocity": 98}, {"time": 2751, "pitch": 65, "duration": 11, "velocity": 110}, {"time": 2751, "pitch": 69, "duration": 10, "velocity": 108}, {"time": 2763, "pitch": 62, "duration": 10, "velocity": 98}, {"time": 2763, "pitch": 65, "duration": 11, "velocity": 108}, {"time": 2763, "pitch": 69, "duration": 10, "velocity": 108}, {"time": 2772, "pitch": 46, "duration": 6, "velocity": 97}, {"time": 2775, "pitch": 62, "duration": 6, "velocity": 107}, {"time": 2775, "pitch": 65, "duration": 11, "velocity": 113}, {"time": 2775, "pitch": 69, "duration": 8, "velocity": 113}, {"time": 2781, "pitch": 46, "duration": 2, "velocity": 85}, {"time": 2787, "pitch": 48, "duration": 41, "velocity": 88}, {"time": 2787, "pitch": 64, "duration": 7, "velocity": 91}, {"time": 2787, "pitch": 67, "duration": 6, "velocity": 108}, {"time": 2787, "pitch": 72, "duration": 5, "velocity": 92}, {"time": 2793, "pitch": 55, "duration": 8, "velocity": 78}, {"time": 2799, "pitch": 60, "duration": 9, "velocity": 93}, {"time": 2799, "pitch": 64, "duration": 10, "velocity": 104}, {"time": 2799, "pitch": 67, "duration": 9, "velocity": 102}, {"time": 2808, "pitch": 55, "duration": 6, "velocity": 85}, {"time": 2811, "pitch": 60, "duration": 2, "velocity": 93}, {"time": 2811, "pitch": 64, "duration": 10, "velocity": 108}, {"time": 2811, "pitch": 67, "duration": 9, "velocity": 98}, {"time": 2820, "pitch": 55, "duration": 7, "velocity": 88}, {"time": 2823, "pitch": 60, "duration": 4, "velocity": 108}, {"time": 2823, "pitch": 67, "duration": 4, "velocity": 88}, {"time": 2826, "pitch": 62, "duration": 5, "velocity": 94}, {"time": 2829, "pitch": 64, "duration": 5, "velocity": 86}, {"time": 2835, "pitch": 45, "duration": 41, "velocity": 85}, {"time": 2835, "pitch": 60, "duration": 9, "velocity": 90}, {"time": 2835, "pitch": 64, "duration": 10, "velocity": 88}, {"time": 2835, "pitch": 69, "duration": 8, "velocity": 92}, {"time": 2844, "pitch": 52, "duration": 5, "velocity": 64}, {"time": 2847, "pitch": 60, "duration": 10, "velocity": 96}, {"time": 2847, "pitch": 64, "duration": 7, "velocity": 102}, {"time": 2847, "pitch": 69, "duration": 7, "velocity": 98}, {"time": 2853, "pitch": 52, "duration": 24, "velocity": 68}, {"time": 2856, "pitch": 57, "duration": 10, "velocity": 87}, {"time": 2859, "pitch": 59, "duration": 4, "velocity": 89}, {"time": 2859, "pitch": 60, "duration": 2, "velocity": 87}, {"time": 2865, "pitch": 64, "duration": 5, "velocity": 107}, {"time": 2868, "pitch": 57, "duration": 10, "velocity": 88}, {"time": 2871, "pitch": 60, "duration": 7, "velocity": 94}, {"time": 2871, "pitch": 64, "duration": 2, "velocity": 91}, {"time": 2871, "pitch": 69, "duration": 8, "velocity": 102}, {"time": 2877, "pitch": 64, "duration": 6, "velocity": 86}, {"time": 2883, "pitch": 50, "duration": 43, "velocity": 87}, {"time": 2883, "pitch": 62, "duration": 9, "velocity": 87}, {"time": 2883, "pitch": 65, "duration": 9, "velocity": 96}, {"time": 2883, "pitch": 69, "duration": 9, "velocity": 89}, {"time": 2892, "pitch": 57, "duration": 6, "velocity": 77}, {"time": 2895, "pitch": 62, "duration": 10, "velocity": 108}, {"time": 2895, "pitch": 65, "duration": 10, "velocity": 114}, {"time": 2895, "pitch": 69, "duration": 9, "velocity": 108}, {"time": 2904, "pitch": 57, "duration": 5, "velocity": 81}, {"time": 2907, "pitch": 64, "duration": 8, "velocity": 108}, {"time": 2907, "pitch": 69, "duration": 8, "velocity": 107}, {"time": 2913, "pitch": 57, "duration": 5, "velocity": 86}, {"time": 2916, "pitch": 62, "duration": 7, "velocity": 110}, {"time": 2916, "pitch": 65, "duration": 7, "velocity": 110}, {"time": 2916, "pitch": 69, "duration": 6, "velocity": 102}, {"time": 2922, "pitch": 57, "duration": 4, "velocity": 86}, {"time": 2925, "pitch": 64, "duration": 5, "velocity": 98}, {"time": 2925, "pitch": 65, "duration": 2, "velocity": 78}, {"time": 2925, "pitch": 67, "duration": 2, "velocity": 83}, {"time": 2925, "pitch": 69, "duration": 4, "velocity": 86}, {"time": 2931, "pitch": 43, "duration": 44, "velocity": 86}, {"time": 2931, "pitch": 58, "duration": 7, "velocity": 97}, {"time": 2931, "pitch": 67, "duration": 5, "velocity": 88}, {"time": 2937, "pitch": 50, "duration": 38, "velocity": 69}, {"time": 2943, "pitch": 57, "duration": 5, "velocity": 85}, {"time": 2943, "pitch": 62, "duration": 6, "velocity": 91}, {"time": 2949, "pitch": 55, "duration": 9, "velocity": 74}, {"time": 2955, "pitch": 58, "duration": 9, "velocity": 88}, {"time": 2955, "pitch": 67, "duration": 9, "velocity": 91}, {"time": 2964, "pitch": 55, "duration": 5, "velocity": 86}, {"time": 2967, "pitch": 58, "duration": 6, "velocity": 113}, {"time": 2967, "pitch": 67, "duration": 6, "velocity": 104}, {"time": 2973, "pitch": 55, "duration": 5, "velocity": 87}, {"time": 2979, "pitch": 43, "duration": 43, "velocity": 89}, {"time": 2979, "pitch": 59, "duration": 12, "velocity": 107}, {"time": 2979, "pitch": 67, "duration": 11, "velocity": 102}, {"time": 2985, "pitch": 50, "duration": 22, "velocity": 79}, {"time": 2988, "pitch": 55, "duration": 5, "velocity": 88}, {"time": 2991, "pitch": 59, "duration": 1, "velocity": 81}, {"time": 2991, "pitch": 62, "duration": 11, "velocity": 113}, {"time": 2991, "pitch": 67, "duration": 8, "velocity": 90}, {"time": 2997, "pitch": 55, "duration": 8, "velocity": 83}, {"time": 3003, "pitch": 59, "duration": 10, "velocity": 107}, {"time": 3003, "pitch": 62, "duration": 11, "velocity": 113}, {"time": 3003, "pitch": 67, "duration": 10, "velocity": 100}, {"time": 3012, "pitch": 50, "duration": 9, "velocity": 30}, {"time": 3012, "pitch": 55, "duration": 5, "velocity": 96}, {"time": 3015, "pitch": 59, "duration": 7, "velocity": 114}, {"time": 3015, "pitch": 67, "duration": 10, "velocity": 110}, {"time": 3021, "pitch": 62, "duration": 5, "velocity": 92}, {"time": 3027, "pitch": 48, "duration": 44, "velocity": 91}, {"time": 3027, "pitch": 60, "duration": 6, "velocity": 100}, {"time": 3027, "pitch": 64, "duration": 6, "velocity": 113}, {"time": 3027, "pitch": 67, "duration": 10, "velocity": 108}, {"time": 3033, "pitch": 55, "duration": 33, "velocity": 71}, {"time": 3036, "pitch": 60, "duration": 5, "velocity": 88}, {"time": 3039, "pitch": 62, "duration": 7, "velocity": 108}, {"time": 3039, "pitch": 67, "duration": 10, "velocity": 113}, {"time": 3045, "pitch": 60, "duration": 7, "velocity": 84}, {"time": 3051, "pitch": 64, "duration": 8, "velocity": 110}, {"time": 3051, "pitch": 67, "duration": 7, "velocity": 114}, {"time": 3060, "pitch": 60, "duration": 5, "velocity": 83}, {"time": 3063, "pitch": 62, "duration": 7, "velocity": 114}, {"time": 3063, "pitch": 67, "duration": 9, "velocity": 113}, {"time": 3069, "pitch": 55, "duration": 5, "velocity": 81}, {"time": 3075, "pitch": 48, "duration": 38, "velocity": 93}, {"time": 3075, "pitch": 62, "duration": 6, "velocity": 108}, {"time": 3075, "pitch": 64, "duration": 10, "velocity": 116}, {"time": 3075, "pitch": 67, "duration": 7, "velocity": 117}, {"time": 3084, "pitch": 55, "duration": 5, "velocity": 87}, {"time": 3087, "pitch": 60, "duration": 6, "velocity": 114}, {"time": 3087, "pitch": 64, "duration": 6, "velocity": 117}, {"time": 3087, "pitch": 67, "duration": 6, "velocity": 117}, {"time": 3093, "pitch": 55, "duration": 6, "velocity": 81}, {"time": 3099, "pitch": 60, "duration": 5, "velocity": 110}, {"time": 3099, "pitch": 64, "duration": 5, "velocity": 110}, {"time": 3099, "pitch": 67, "duration": 5, "velocity": 114}, {"time": 3105, "pitch": 60, "duration": 4, "velocity": 88}, {"time": 3105, "pitch": 64, "duration": 4, "velocity": 87}, {"time": 3105, "pitch": 67, "duration": 3, "velocity": 87}, {"time": 3108, "pitch": 55, "duration": 4, "velocity": 104}, {"time": 3111, "pitch": 60, "duration": 8, "velocity": 116}, {"time": 3111, "pitch": 64, "duration": 10, "velocity": 116}, {"time": 3111, "pitch": 67, "duration": 10, "velocity": 117}, {"time": 3123, "pitch": 41, "duration": 43, "velocity": 96}, {"time": 3129, "pitch": 57, "duration": 3, "velocity": 64}, {"time": 3132, "pitch": 53, "duration": 5, "velocity": 87}, {"time": 3135, "pitch": 57, "duration": 8, "velocity": 102}, {"time": 3135, "pitch": 60, "duration": 11, "velocity": 116}, {"time": 3135, "pitch": 65, "duration": 8, "velocity": 110}, {"time": 3141, "pitch": 53, "duration": 8, "velocity": 84}, {"time": 3147, "pitch": 57, "duration": 4, "velocity": 81}, {"time": 3147, "pitch": 60, "duration": 5, "velocity": 79}, {"time": 3147, "pitch": 65, "duration": 4, "velocity": 81}, {"time": 3153, "pitch": 57, "duration": 4, "velocity": 84}, {"time": 3153, "pitch": 60, "duration": 4, "velocity": 87}, {"time": 3153, "pitch": 65, "duration": 3, "velocity": 87}, {"time": 3156, "pitch": 53, "duration": 5, "velocity": 110}, {"time": 3159, "pitch": 57, "duration": 7, "velocity": 113}, {"time": 3159, "pitch": 60, "duration": 11, "velocity": 117}, {"time": 3159, "pitch": 65, "duration": 7, "velocity": 114}, {"time": 3165, "pitch": 53, "duration": 7, "velocity": 100}, {"time": 3171, "pitch": 48, "duration": 43, "velocity": 91}, {"time": 3171, "pitch": 60, "duration": 6, "velocity": 94}, {"time": 3171, "pitch": 64, "duration": 6, "velocity": 94}, {"time": 3171, "pitch": 67, "duration": 6, "velocity": 88}, {"time": 3177, "pitch": 55, "duration": 2, "velocity": 73}, {"time": 3180, "pitch": 55, "duration": 4, "velocity": 77}, {"time": 3183, "pitch": 60, "duration": 7, "velocity": 102}, {"time": 3183, "pitch": 64, "duration": 7, "velocity": 110}, {"time": 3183, "pitch": 67, "duration": 8, "velocity": 107}, {"time": 3189, "pitch": 55, "duration": 10, "velocity": 84}, {"time": 3192, "pitch": 60, "duration": 1, "velocity": 89}, {"time": 3192, "pitch": 64, "duration": 1, "velocity": 100}, {"time": 3192, "pitch": 67, "duration": 1, "velocity": 104}, {"time": 3198, "pitch": 60, "duration": 7, "velocity": 98}, {"time": 3198, "pitch": 64, "duration": 6, "velocity": 94}, {"time": 3198, "pitch": 67, "duration": 7, "velocity": 104}, {"time": 3204, "pitch": 55, "duration": 4, "velocity": 107}, {"time": 3207, "pitch": 60, "duration": 6, "velocity": 113}, {"time": 3207, "pitch": 64, "duration": 11, "velocity": 114}, {"time": 3207, "pitch": 67, "duration": 9, "velocity": 116}, {"time": 3213, "pitch": 55, "duration": 7, "velocity": 91}, {"time": 3219, "pitch": 50, "duration": 41, "velocity": 91}, {"time": 3219, "pitch": 62, "duration": 9, "velocity": 88}, {"time": 3219, "pitch": 65, "duration": 10, "velocity": 100}, {"time": 3219, "pitch": 69, "duration": 10, "velocity": 100}, {"time": 3228, "pitch": 57, "duration": 5, "velocity": 83}, {"time": 3231, "pitch": 62, "duration": 12, "velocity": 104}, {"time": 3231, "pitch": 65, "duration": 6, "velocity": 113}, {"time": 3231, "pitch": 69, "duration": 11, "velocity": 96}, {"time": 3237, "pitch": 57, "duration": 8, "velocity": 84}, {"time": 3243, "pitch": 62, "duration": 10, "velocity": 93}, {"time": 3243, "pitch": 65, "duration": 9, "velocity": 96}, {"time": 3243, "pitch": 69, "duration": 9, "velocity": 91}, {"time": 3252, "pitch": 57, "duration": 7, "velocity": 89}, {"time": 3255, "pitch": 60, "duration": 5, "velocity": 108}, {"time": 3255, "pitch": 65, "duration": 5, "velocity": 96}, {"time": 3255, "pitch": 69, "duration": 4, "velocity": 107}, {"time": 3258, "pitch": 62, "duration": 8, "velocity": 88}, {"time": 3261, "pitch": 65, "duration": 5, "velocity": 87}, {"time": 3261, "pitch": 69, "duration": 4, "velocity": 87}, {"time": 3267, "pitch": 45, "duration": 32, "velocity": 88}, {"time": 3267, "pitch": 60, "duration": 7, "velocity": 93}, {"time": 3267, "pitch": 64, "duration": 7, "velocity": 107}, {"time": 3267, "pitch": 67, "duration": 7, "velocity": 100}, {"time": 3273, "pitch": 52, "duration": 23, "velocity": 71}, {"time": 3279, "pitch": 60, "duration": 11, "velocity": 100}, {"time": 3279, "pitch": 64, "duration": 10, "velocity": 108}, {"time": 3279, "pitch": 67, "duration": 10, "velocity": 104}, {"time": 3288, "pitch": 57, "duration": 5, "velocity": 88}, {"time": 3291, "pitch": 60, "duration": 14, "velocity": 110}, {"time": 3291, "pitch": 64, "duration": 14, "velocity": 113}, {"time": 3291, "pitch": 67, "duration": 14, "velocity": 108}, {"time": 3300, "pitch": 45, "duration": 9, "velocity": 102}, {"time": 3303, "pitch": 52, "duration": 7, "velocity": 91}, {"time": 3309, "pitch": 60, "duration": 7, "velocity": 102}, {"time": 3309, "pitch": 64, "duration": 7, "velocity": 107}, {"time": 3309, "pitch": 67, "duration": 7, "velocity": 100}, {"time": 3315, "pitch": 46, "duration": 39, "velocity": 97}, {"time": 3321, "pitch": 53, "duration": 33, "velocity": 72}, {"time": 3324, "pitch": 58, "duration": 4, "velocity": 83}, {"time": 3327, "pitch": 62, "duration": 10, "velocity": 108}, {"time": 3327, "pitch": 65, "duration": 10, "velocity": 116}, {"time": 3327, "pitch": 69, "duration": 9, "velocity": 108}, {"time": 3336, "pitch": 58, "duration": 5, "velocity": 83}, {"time": 3339, "pitch": 62, "duration": 10, "velocity": 102}, {"time": 3339, "pitch": 65, "duration": 9, "velocity": 108}, {"time": 3339, "pitch": 69, "duration": 9, "velocity": 104}, {"time": 3348, "pitch": 58, "duration": 5, "velocity": 88}, {"time": 3351, "pitch": 62, "duration": 12, "velocity": 116}, {"time": 3351, "pitch": 65, "duration": 8, "velocity": 114}, {"time": 3351, "pitch": 69, "duration": 10, "velocity": 110}, {"time": 3357, "pitch": 46, "duration": 2, "velocity": 87}, {"time": 3363, "pitch": 41, "duration": 28, "velocity": 88}, {"time": 3363, "pitch": 57, "duration": 8, "velocity": 98}, {"time": 3363, "pitch": 60, "duration": 9, "velocity": 96}, {"time": 3363, "pitch": 65, "duration": 8, "velocity": 96}, {"time": 3369, "pitch": 48, "duration": 22, "velocity": 71}, {"time": 3372, "pitch": 53, "duration": 5, "velocity": 80}, {"time": 3375, "pitch": 57, "duration": 10, "velocity": 110}, {"time": 3375, "pitch": 65, "duration": 8, "velocity": 113}, {"time": 3381, "pitch": 53, "duration": 10, "velocity": 81}, {"time": 3384, "pitch": 60, "duration": 1, "velocity": 91}, {"time": 3384, "pitch": 65, "duration": 1, "velocity": 87}, {"time": 3390, "pitch": 57, "duration": 8, "velocity": 94}, {"time": 3390, "pitch": 65, "duration": 8, "velocity": 104}, {"time": 3396, "pitch": 41, "duration": 5, "velocity": 100}, {"time": 3399, "pitch": 57, "duration": 5, "velocity": 108}, {"time": 3399, "pitch": 65, "duration": 5, "velocity": 104}, {"time": 3402, "pitch": 41, "duration": 3, "velocity": 94}, {"time": 3405, "pitch": 60, "duration": 5, "velocity": 96}, {"time": 3408, "pitch": 62, "duration": 3, "velocity": 86}, {"time": 3411, "pitch": 43, "duration": 29, "velocity": 98}, {"time": 3411, "pitch": 59, "duration": 9, "velocity": 94}, {"time": 3411, "pitch": 62, "duration": 10, "velocity": 94}, {"time": 3411, "pitch": 67, "duration": 9, "velocity": 94}, {"time": 3417, "pitch": 50, "duration": 25, "velocity": 73}, {"time": 3420, "pitch": 55, "duration": 4, "velocity": 84}, {"time": 3423, "pitch": 59, "duration": 8, "velocity": 102}, {"time": 3423, "pitch": 62, "duration": 8, "velocity": 108}, {"time": 3423, "pitch": 67, "duration": 8, "velocity": 104}, {"time": 3429, "pitch": 55, "duration": 3, "velocity": 80}, {"time": 3432, "pitch": 55, "duration": 5, "velocity": 70}, {"time": 3432, "pitch": 59, "duration": 1, "velocity": 96}, {"time": 3432, "pitch": 62, "duration": 1, "velocity": 102}, {"time": 3432, "pitch": 67, "duration": 1, "velocity": 100}, {"time": 3438, "pitch": 59, "duration": 11, "velocity": 96}, {"time": 3438, "pitch": 62, "duration": 11, "velocity": 104}, {"time": 3438, "pitch": 67, "duration": 11, "velocity": 94}, {"time": 3444, "pitch": 43, "duration": 9, "velocity": 110}, {"time": 3447, "pitch": 50, "duration": 7, "velocity": 102}, {"time": 3450, "pitch": 59, "duration": 5, "velocity": 92}, {"time": 3453, "pitch": 62, "duration": 5, "velocity": 100}, {"time": 3456, "pitch": 67, "duration": 2, "velocity": 91}, {"time": 3459, "pitch": 48, "duration": 44, "velocity": 98}, {"time": 3459, "pitch": 60, "duration": 5, "velocity": 100}, {"time": 3459, "pitch": 64, "duration": 6, "velocity": 108}, {"time": 3459, "pitch": 67, "duration": 6, "velocity": 89}, {"time": 3465, "pitch": 55, "duration": 23, "velocity": 86}, {"time": 3468, "pitch": 60, "duration": 5, "velocity": 93}, {"time": 3471, "pitch": 64, "duration": 6, "velocity": 107}, {"time": 3471, "pitch": 67, "duration": 6, "velocity": 110}, {"time": 3471, "pitch": 72, "duration": 5, "velocity": 98}, {"time": 3477, "pitch": 60, "duration": 10, "velocity": 93}, {"time": 3480, "pitch": 62, "duration": 5, "velocity": 94}, {"time": 3480, "pitch": 67, "duration": 5, "velocity": 108}, {"time": 3486, "pitch": 64, "duration": 5, "velocity": 104}, {"time": 3486, "pitch": 67, "duration": 6, "velocity": 110}, {"time": 3492, "pitch": 55, "duration": 5, "velocity": 88}, {"time": 3495, "pitch": 64, "duration": 7, "velocity": 107}, {"time": 3495, "pitch": 67, "duration": 8, "velocity": 102}, {"time": 3495, "pitch": 72, "duration": 7, "velocity": 108}, {"time": 3501, "pitch": 55, "duration": 2, "velocity": 89}, {"time": 3507, "pitch": 41, "duration": 29, "velocity": 94}, {"time": 3507, "pitch": 60, "duration": 7, "velocity": 89}, {"time": 3507, "pitch": 65, "duration": 5, "velocity": 113}, {"time": 3507, "pitch": 69, "duration": 6, "velocity": 113}, {"time": 3513, "pitch": 48, "duration": 29, "velocity": 81}, {"time": 3516, "pitch": 53, "duration": 4, "velocity": 86}, {"time": 3519, "pitch": 57, "duration": 8, "velocity": 100}, {"time": 3519, "pitch": 60, "duration": 8, "velocity": 104}, {"time": 3519, "pitch": 65, "duration": 7, "velocity": 92}, {"time": 3525, "pitch": 53, "duration": 10, "velocity": 81}, {"time": 3528, "pitch": 57, "duration": 2, "velocity": 86}, {"time": 3528, "pitch": 60, "duration": 1, "velocity": 90}, {"time": 3528, "pitch": 65, "duration": 2, "velocity": 87}, {"time": 3534, "pitch": 57, "duration": 11, "velocity": 91}, {"time": 3534, "pitch": 60, "duration": 12, "velocity": 100}, {"time": 3534, "pitch": 65, "duration": 11, "velocity": 88}, {"time": 3540, "pitch": 41, "duration": 9, "velocity": 104}, {"time": 3543, "pitch": 48, "duration": 6, "velocity": 96}, {"time": 3546, "pitch": 57, "duration": 5, "velocity": 89}, {"time": 3549, "pitch": 60, "duration": 5, "velocity": 98}, {"time": 3552, "pitch": 67, "duration": 2, "velocity": 89}, {"time": 3555, "pitch": 48, "duration": 30, "velocity": 93}, {"time": 3555, "pitch": 60, "duration": 6, "velocity": 102}, {"time": 3555, "pitch": 64, "duration": 6, "velocity": 116}, {"time": 3558, "pitch": 67, "duration": 4, "velocity": 36}, {"time": 3561, "pitch": 55, "duration": 8, "velocity": 78}, {"time": 3567, "pitch": 60, "duration": 7, "velocity": 102}, {"time": 3567, "pitch": 64, "duration": 8, "velocity": 114}, {"time": 3567, "pitch": 67, "duration": 8, "velocity": 110}, {"time": 3573, "pitch": 55, "duration": 14, "velocity": 84}, {"time": 3576, "pitch": 60, "duration": 1, "velocity": 85}, {"time": 3576, "pitch": 64, "duration": 1, "velocity": 89}, {"time": 3576, "pitch": 67, "duration": 1, "velocity": 90}, {"time": 3582, "pitch": 60, "duration": 7, "velocity": 98}, {"time": 3582, "pitch": 64, "duration": 7, "velocity": 107}, {"time": 3582, "pitch": 67, "duration": 8, "velocity": 104}, {"time": 3588, "pitch": 48, "duration": 10, "velocity": 104}, {"time": 3591, "pitch": 60, "duration": 4, "velocity": 102}, {"time": 3591, "pitch": 64, "duration": 4, "velocity": 108}, {"time": 3591, "pitch": 67, "duration": 4, "velocity": 104}, {"time": 3594, "pitch": 55, "duration": 6, "velocity": 113}, {"time": 3597, "pitch": 60, "duration": 4, "velocity": 94}, {"time": 3597, "pitch": 64, "duration": 6, "velocity": 94}, {"time": 3597, "pitch": 67, "duration": 4, "velocity": 92}, {"time": 3603, "pitch": 50, "duration": 44, "velocity": 91}, {"time": 3603, "pitch": 62, "duration": 7, "velocity": 98}, {"time": 3603, "pitch": 65, "duration": 6, "velocity": 108}, {"time": 3603, "pitch": 69, "duration": 7, "velocity": 100}, {"time": 3609, "pitch": 57, "duration": 8, "velocity": 82}, {"time": 3615, "pitch": 62, "duration": 8, "velocity": 102}, {"time": 3615, "pitch": 65, "duration": 8, "velocity": 104}, {"time": 3615, "pitch": 69, "duration": 8, "velocity": 100}, {"time": 3621, "pitch": 57, "duration": 10, "velocity": 81}, {"time": 3624, "pitch": 62, "duration": 1, "velocity": 91}, {"time": 3627, "pitch": 62, "duration": 1, "velocity": 83}, {"time": 3630, "pitch": 62, "duration": 6, "velocity": 104}, {"time": 3630, "pitch": 65, "duration": 6, "velocity": 102}, {"time": 3630, "pitch": 69, "duration": 6, "velocity": 98}, {"time": 3636, "pitch": 57, "duration": 4, "velocity": 88}, {"time": 3639, "pitch": 62, "duration": 7, "velocity": 113}, {"time": 3639, "pitch": 65, "duration": 6, "velocity": 114}, {"time": 3639, "pitch": 69, "duration": 6, "velocity": 102}, {"time": 3645, "pitch": 57, "duration": 2, "velocity": 89}, {"time": 3645, "pitch": 62, "duration": 1, "velocity": 87}, {"time": 3645, "pitch": 65, "duration": 3, "velocity": 92}, {"time": 3645, "pitch": 69, "duration": 5, "velocity": 91}, {"time": 3651, "pitch": 45, "duration": 28, "velocity": 88}, {"time": 3651, "pitch": 60, "duration": 9, "velocity": 91}, {"time": 3651, "pitch": 64, "duration": 9, "velocity": 107}, {"time": 3651, "pitch": 69, "duration": 9, "velocity": 94}, {"time": 3657, "pitch": 52, "duration": 23, "velocity": 77}, {"time": 3660, "pitch": 57, "duration": 5, "velocity": 87}, {"time": 3663, "pitch": 60, "duration": 7, "velocity": 102}, {"time": 3663, "pitch": 64, "duration": 7, "velocity": 110}, {"time": 3663, "pitch": 69, "duration": 7, "velocity": 107}, {"time": 3669, "pitch": 57, "duration": 10, "velocity": 86}, {"time": 3672, "pitch": 60, "duration": 1, "velocity": 93}, {"time": 3672, "pitch": 64, "duration": 1, "velocity": 100}, {"time": 3672, "pitch": 69, "duration": 1, "velocity": 89}, {"time": 3675, "pitch": 64, "duration": 1, "velocity": 91}, {"time": 3678, "pitch": 60, "duration": 7, "velocity": 107}, {"time": 3678, "pitch": 64, "duration": 8, "velocity": 114}, {"time": 3678, "pitch": 69, "duration": 7, "velocity": 104}, {"time": 3684, "pitch": 45, "duration": 4, "velocity": 107}, {"time": 3687, "pitch": 60, "duration": 5, "velocity": 110}, {"time": 3687, "pitch": 64, "duration": 4, "velocity": 116}, {"time": 3687, "pitch": 69, "duration": 4, "velocity": 114}, {"time": 3690, "pitch": 45, "duration": 3, "velocity": 108}, {"time": 3693, "pitch": 60, "duration": 5, "velocity": 104}, {"time": 3693, "pitch": 64, "duration": 5, "velocity": 104}, {"time": 3693, "pitch": 69, "duration": 5, "velocity": 102}, {"time": 3699, "pitch": 46, "duration": 44, "velocity": 95}, {"time": 3699, "pitch": 62, "duration": 10, "velocity": 113}, {"time": 3699, "pitch": 65, "duration": 8, "velocity": 110}, {"time": 3699, "pitch": 69, "duration": 10, "velocity": 94}, {"time": 3705, "pitch": 53, "duration": 36, "velocity": 71}, {"time": 3711, "pitch": 62, "duration": 8, "velocity": 110}, {"time": 3711, "pitch": 65, "duration": 7, "velocity": 113}, {"time": 3711, "pitch": 69, "duration": 8, "velocity": 102}, {"time": 3717, "pitch": 58, "duration": 10, "velocity": 81}, {"time": 3720, "pitch": 60, "duration": 2, "velocity": 96}, {"time": 3720, "pitch": 65, "duration": 2, "velocity": 100}, {"time": 3720, "pitch": 69, "duration": 1, "velocity": 87}, {"time": 3726, "pitch": 62, "duration": 7, "velocity": 114}, {"time": 3726, "pitch": 65, "duration": 6, "velocity": 113}, {"time": 3726, "pitch": 69, "duration": 6, "velocity": 104}, {"time": 3732, "pitch": 58, "duration": 4, "velocity": 100}, {"time": 3735, "pitch": 62, "duration": 12, "velocity": 116}, {"time": 3735, "pitch": 65, "duration": 6, "velocity": 116}, {"time": 3735, "pitch": 69, "duration": 6, "velocity": 110}, {"time": 3741, "pitch": 58, "duration": 2, "velocity": 90}, {"time": 3741, "pitch": 69, "duration": 4, "velocity": 86}, {"time": 3747, "pitch": 45, "duration": 19, "velocity": 86}, {"time": 3747, "pitch": 60, "duration": 10, "velocity": 92}, {"time": 3747, "pitch": 64, "duration": 10, "velocity": 102}, {"time": 3747, "pitch": 69, "duration": 10, "velocity": 96}, {"time": 3756, "pitch": 52, "duration": 5, "velocity": 85}, {"time": 3759, "pitch": 60, "duration": 10, "velocity": 104}, {"time": 3759, "pitch": 64, "duration": 11, "velocity": 113}, {"time": 3759, "pitch": 69, "duration": 10, "velocity": 107}, {"time": 3765, "pitch": 52, "duration": 2, "velocity": 86}, {"time": 3771, "pitch": 50, "duration": 15, "velocity": 94}, {"time": 3771, "pitch": 62, "duration": 10, "velocity": 102}, {"time": 3771, "pitch": 65, "duration": 9, "velocity": 108}, {"time": 3771, "pitch": 69, "duration": 10, "velocity": 93}, {"time": 3780, "pitch": 57, "duration": 6, "velocity": 87}, {"time": 3783, "pitch": 62, "duration": 7, "velocity": 116}, {"time": 3783, "pitch": 65, "duration": 6, "velocity": 114}, {"time": 3783, "pitch": 69, "duration": 6, "velocity": 98}, {"time": 3789, "pitch": 50, "duration": 2, "velocity": 89}, {"time": 3795, "pitch": 43, "duration": 44, "velocity": 88}, {"time": 3795, "pitch": 59, "duration": 9, "velocity": 90}, {"time": 3795, "pitch": 62, "duration": 7, "velocity": 102}, {"time": 3795, "pitch": 67, "duration": 7, "velocity": 94}, {"time": 3801, "pitch": 50, "duration": 37, "velocity": 72}, {"time": 3807, "pitch": 59, "duration": 10, "velocity": 90}, {"time": 3807, "pitch": 62, "duration": 11, "velocity": 93}, {"time": 3807, "pitch": 67, "duration": 10, "velocity": 91}, {"time": 3816, "pitch": 55, "duration": 6, "velocity": 71}, {"time": 3819, "pitch": 59, "duration": 10, "velocity": 94}, {"time": 3819, "pitch": 62, "duration": 11, "velocity": 93}, {"time": 3819, "pitch": 67, "duration": 10, "velocity": 91}, {"time": 3825, "pitch": 55, "duration": 7, "velocity": 74}, {"time": 3831, "pitch": 59, "duration": 10, "velocity": 89}, {"time": 3831, "pitch": 62, "duration": 6, "velocity": 92}, {"time": 3831, "pitch": 67, "duration": 10, "velocity": 89}, {"time": 3843, "pitch": 46, "duration": 44, "velocity": 83}, {"time": 3843, "pitch": 62, "duration": 9, "velocity": 87}, {"time": 3843, "pitch": 65, "duration": 10, "velocity": 88}, {"time": 3843, "pitch": 69, "duration": 9, "velocity": 91}, {"time": 3849, "pitch": 53, "duration": 38, "velocity": 42}, {"time": 3855, "pitch": 62, "duration": 10, "velocity": 86}, {"time": 3855, "pitch": 65, "duration": 10, "velocity": 88}, {"time": 3855, "pitch": 69, "duration": 8, "velocity": 89}, {"time": 3867, "pitch": 62, "duration": 9, "velocity": 86}, {"time": 3867, "pitch": 65, "duration": 10, "velocity": 88}, {"time": 3867, "pitch": 69, "duration": 9, "velocity": 88}, {"time": 3876, "pitch": 58, "duration": 5, "velocity": 70}, {"time": 3879, "pitch": 62, "duration": 8, "velocity": 94}, {"time": 3879, "pitch": 65, "duration": 10, "velocity": 108}, {"time": 3879, "pitch": 69, "duration": 8, "velocity": 98}, {"time": 3891, "pitch": 48, "duration": 38, "velocity": 85}, {"time": 3891, "pitch": 60, "duration": 40, "velocity": 91}, {"time": 3891, "pitch": 64, "duration": 38, "velocity": 96}, {"time": 3891, "pitch": 67, "duration": 40, "velocity": 92}, {"time": 3939, "pitch": 53, "duration": 46, "velocity": 88}, {"time": 3945, "pitch": 60, "duration": 15, "velocity": 81}, {"time": 3951, "pitch": 69, "duration": 7, "velocity": 83}, {"time": 3957, "pitch": 64, "duration": 12, "velocity": 67}, {"time": 3963, "pitch": 60, "duration": 16, "velocity": 58}, {"time": 3987, "pitch": 55, "duration": 10, "velocity": 87}, {"time": 3993, "pitch": 62, "duration": 11, "velocity": 79}, {"time": 3999, "pitch": 65, "duration": 13, "velocity": 80}, {"time": 4005, "pitch": 55, "duration": 6, "velocity": 74}, {"time": 4011, "pitch": 59, "duration": 8, "velocity": 72}, {"time": 4036, "pitch": 48, "duration": 46, "velocity": 73}, {"time": 4042, "pitch": 55, "duration": 39, "velocity": 58}, {"time": 4048, "pitch": 60, "duration": 30, "velocity": 75}, {"time": 4054, "pitch": 67, "duration": 39, "velocity": 74}, {"time": 4061, "pitch": 64, "duration": 33, "velocity": 75}, {"time": 4094, "pitch": 41, "duration": 39, "velocity": 78}, {"time": 4102, "pitch": 48, "duration": 31, "velocity": 42}, {"time": 4110, "pitch": 53, "duration": 23, "velocity": 54}, {"time": 4119, "pitch": 65, "duration": 14, "velocity": 68}]}]}