{"metadata": {"schema_version": "0.2", "title": "None", "source_filename": "331.mid", "source_format": "midi"}, "resolution": 12, "tempos": [{"time": 0, "qpm": 89.9999550000225}, {"time": 2, "qpm": 90.99995298335763}, {"time": 216, "qpm": 89.9999550000225}], "key_signatures": [{"time": 0, "root": 0, "mode": "major"}], "time_signatures": [{"time": 0, "numerator": 4, "denominator": 4}], "tracks": [{"program": 4, "is_drum": false, "name": "MELODY", "notes": [{"time": 210, "pitch": 72, "duration": 8, "velocity": 114}, {"time": 222, "pitch": 72, "duration": 6, "velocity": 116}, {"time": 234, "pitch": 79, "duration": 6, "velocity": 116}, {"time": 246, "pitch": 79, "duration": 7, "velocity": 114}, {"time": 258, "pitch": 81, "duration": 6, "velocity": 116}, {"time": 270, "pitch": 81, "duration": 7, "velocity": 119}, {"time": 282, "pitch": 79, "duration": 11, "velocity": 119}, {"time": 306, "pitch": 77, "duration": 7, "velocity": 116}, {"time": 318, "pitch": 77, "duration": 7, "velocity": 114}, {"time": 330, "pitch": 76, "duration": 6, "velocity": 116}, {"time": 342, "pitch": 76, "duration": 8, "velocity": 113}, {"time": 354, "pitch": 74, "duration": 6, "velocity": 114}, {"time": 366, "pitch": 74, "duration": 8, "velocity": 116}, {"time": 378, "pitch": 72, "duration": 12, "velocity": 114}, {"time": 402, "pitch": 79, "duration": 6, "velocity": 116}, {"time": 414, "pitch": 79, "duration": 7, "velocity": 114}, {"time": 426, "pitch": 77, "duration": 6, "velocity": 114}, {"time": 438, "pitch": 77, "duration": 7, "velocity": 116}, {"time": 450, "pitch": 76, "duration": 6, "velocity": 116}, {"time": 462, "pitch": 76, "duration": 7, "velocity": 114}, {"time": 474, "pitch": 74, "duration": 13, "velocity": 116}, {"time": 498, "pitch": 79, "duration": 6, "velocity": 117}, {"time": 510, "pitch": 79, "duration": 7, "velocity": 117}, {"time": 522, "pitch": 77, "duration": 7, "velocity": 114}, {"time": 534, "pitch": 77, "duration": 7, "velocity": 114}, {"time": 546, "pitch": 76, "duration": 7, "velocity": 116}, {"time": 558, "pitch": 76, "duration": 8, "velocity": 116}, {"time": 570, "pitch": 74, "duration": 18, "velocity": 117}, {"time": 594, "pitch": 72, "duration": 7, "velocity": 102}, {"time": 606, "pitch": 72, "duration": 7, "velocity": 114}, {"time": 618, "pitch": 79, "duration": 6, "velocity": 117}, {"time": 630, "pitch": 79, "duration": 5, "velocity": 114}, {"time": 642, "pitch": 81, "duration": 7, "velocity": 117}, {"time": 654, "pitch": 81, "duration": 7, "velocity": 110}, {"time": 666, "pitch": 79, "duration": 13, "velocity": 117}, {"time": 690, "pitch": 77, "duration": 6, "velocity": 116}, {"time": 702, "pitch": 77, "duration": 7, "velocity": 114}, {"time": 714, "pitch": 76, "duration": 6, "velocity": 116}, {"time": 726, "pitch": 76, "duration": 6, "velocity": 116}, {"time": 738, "pitch": 74, "duration": 6, "velocity": 116}, {"time": 750, "pitch": 74, "duration": 7, "velocity": 114}, {"time": 762, "pitch": 72, "duration": 12, "velocity": 119}, {"time": 786, "pitch": 79, "duration": 6, "velocity": 113}, {"time": 798, "pitch": 79, "duration": 7, "velocity": 116}, {"time": 810, "pitch": 77, "duration": 7, "velocity": 116}, {"time": 822, "pitch": 77, "duration": 7, "velocity": 116}, {"time": 834, "pitch": 76, "duration": 6, "velocity": 110}, {"time": 846, "pitch": 76, "duration": 7, "velocity": 114}, {"time": 858, "pitch": 74, "duration": 11, "velocity": 116}, {"time": 882, "pitch": 79, "duration": 6, "velocity": 113}, {"time": 894, "pitch": 79, "duration": 8, "velocity": 108}, {"time": 906, "pitch": 77, "duration": 6, "velocity": 117}, {"time": 918, "pitch": 77, "duration": 6, "velocity": 116}, {"time": 930, "pitch": 76, "duration": 6, "velocity": 114}, {"time": 942, "pitch": 76, "duration": 6, "velocity": 114}, {"time": 954, "pitch": 74, "duration": 13, "velocity": 117}, {"time": 979, "pitch": 72, "duration": 6, "velocity": 116}, {"time": 991, "pitch": 72, "duration": 6, "velocity": 114}, {"time": 1003, "pitch": 79, "duration": 7, "velocity": 116}, {"time": 1015, "pitch": 79, "duration": 6, "velocity": 116}, {"time": 1027, "pitch": 81, "duration": 6, "velocity": 116}, {"time": 1039, "pitch": 81, "duration": 6, "velocity": 114}, {"time": 1051, "pitch": 79, "duration": 12, "velocity": 120}, {"time": 1075, "pitch": 77, "duration": 6, "velocity": 116}, {"time": 1087, "pitch": 77, "duration": 7, "velocity": 116}, {"time": 1099, "pitch": 76, "duration": 6, "velocity": 117}, {"time": 1111, "pitch": 76, "duration": 6, "velocity": 114}, {"time": 1123, "pitch": 74, "duration": 7, "velocity": 116}, {"time": 1135, "pitch": 74, "duration": 8, "velocity": 117}, {"time": 1147, "pitch": 72, "duration": 13, "velocity": 117}]}, {"program": 0, "is_drum": false, "name": "PIANO", "notes": [{"time": 17, "pitch": 48, "duration": 19, "velocity": 78}, {"time": 17, "pitch": 60, "duration": 17, "velocity": 82}, {"time": 17, "pitch": 64, "duration": 18, "velocity": 87}, {"time": 17, "pitch": 67, "duration": 17, "velocity": 83}, {"time": 41, "pitch": 47, "duration": 19, "velocity": 81}, {"time": 41, "pitch": 59, "duration": 18, "velocity": 84}, {"time": 41, "pitch": 62, "duration": 19, "velocity": 86}, {"time": 41, "pitch": 67, "duration": 18, "velocity": 86}, {"time": 65, "pitch": 45, "duration": 23, "velocity": 87}, {"time": 65, "pitch": 57, "duration": 18, "velocity": 83}, {"time": 65, "pitch": 60, "duration": 21, "velocity": 83}, {"time": 65, "pitch": 64, "duration": 19, "velocity": 84}, {"time": 65, "pitch": 67, "duration": 18, "velocity": 80}, {"time": 89, "pitch": 58, "duration": 9, "velocity": 84}, {"time": 89, "pitch": 62, "duration": 13, "velocity": 77}, {"time": 89, "pitch": 55, "duration": 24, "velocity": 85}, {"time": 89, "pitch": 43, "duration": 13, "velocity": 62}, {"time": 89, "pitch": 53, "duration": 14, "velocity": 54}, {"time": 101, "pitch": 64, "duration": 12, "velocity": 80}, {"time": 101, "pitch": 36, "duration": 12, "velocity": 77}, {"time": 101, "pitch": 48, "duration": 12, "velocity": 54}, {"time": 101, "pitch": 60, "duration": 12, "velocity": 72}, {"time": 113, "pitch": 41, "duration": 24, "velocity": 58}, {"time": 113, "pitch": 48, "duration": 1, "velocity": 56}, {"time": 113, "pitch": 55, "duration": 1, "velocity": 65}, {"time": 113, "pitch": 57, "duration": 24, "velocity": 74}, {"time": 113, "pitch": 60, "duration": 1, "velocity": 81}, {"time": 137, "pitch": 52, "duration": 20, "velocity": 80}, {"time": 137, "pitch": 59, "duration": 16, "velocity": 78}, {"time": 137, "pitch": 62, "duration": 16, "velocity": 83}, {"time": 137, "pitch": 64, "duration": 15, "velocity": 78}, {"time": 137, "pitch": 67, "duration": 17, "velocity": 81}, {"time": 161, "pitch": 50, "duration": 23, "velocity": 83}, {"time": 161, "pitch": 57, "duration": 19, "velocity": 83}, {"time": 161, "pitch": 62, "duration": 20, "velocity": 86}, {"time": 161, "pitch": 67, "duration": 19, "velocity": 86}, {"time": 185, "pitch": 43, "duration": 26, "velocity": 51}, {"time": 186, "pitch": 53, "duration": 25, "velocity": 32}, {"time": 187, "pitch": 50, "duration": 24, "velocity": 43}, {"time": 187, "pitch": 56, "duration": 24, "velocity": 55}, {"time": 188, "pitch": 60, "duration": 23, "velocity": 55}, {"time": 190, "pitch": 64, "duration": 22, "velocity": 62}, {"time": 210, "pitch": 48, "duration": 43, "velocity": 86}, {"time": 210, "pitch": 60, "duration": 1, "velocity": 77}, {"time": 210, "pitch": 64, "duration": 2, "velocity": 83}, {"time": 210, "pitch": 67, "duration": 41, "velocity": 84}, {"time": 258, "pitch": 48, "duration": 20, "velocity": 87}, {"time": 258, "pitch": 62, "duration": 20, "velocity": 86}, {"time": 258, "pitch": 65, "duration": 23, "velocity": 89}, {"time": 258, "pitch": 69, "duration": 21, "velocity": 87}, {"time": 282, "pitch": 48, "duration": 18, "velocity": 79}, {"time": 282, "pitch": 60, "duration": 17, "velocity": 83}, {"time": 282, "pitch": 64, "duration": 18, "velocity": 86}, {"time": 282, "pitch": 67, "duration": 17, "velocity": 85}, {"time": 306, "pitch": 48, "duration": 20, "velocity": 86}, {"time": 306, "pitch": 57, "duration": 20, "velocity": 82}, {"time": 306, "pitch": 62, "duration": 20, "velocity": 91}, {"time": 306, "pitch": 65, "duration": 19, "velocity": 88}, {"time": 330, "pitch": 48, "duration": 16, "velocity": 88}, {"time": 330, "pitch": 60, "duration": 22, "velocity": 85}, {"time": 330, "pitch": 64, "duration": 17, "velocity": 83}, {"time": 330, "pitch": 67, "duration": 17, "velocity": 84}, {"time": 354, "pitch": 43, "duration": 19, "velocity": 83}, {"time": 354, "pitch": 59, "duration": 20, "velocity": 86}, {"time": 354, "pitch": 62, "duration": 19, "velocity": 91}, {"time": 354, "pitch": 65, "duration": 18, "velocity": 88}, {"time": 378, "pitch": 48, "duration": 18, "velocity": 83}, {"time": 378, "pitch": 60, "duration": 19, "velocity": 86}, {"time": 378, "pitch": 64, "duration": 19, "velocity": 84}, {"time": 378, "pitch": 67, "duration": 20, "velocity": 86}, {"time": 402, "pitch": 48, "duration": 17, "velocity": 89}, {"time": 408, "pitch": 55, "duration": 12, "velocity": 70}, {"time": 414, "pitch": 60, "duration": 9, "velocity": 80}, {"time": 420, "pitch": 64, "duration": 11, "velocity": 84}, {"time": 420, "pitch": 67, "duration": 6, "velocity": 90}, {"time": 426, "pitch": 48, "duration": 20, "velocity": 101}, {"time": 432, "pitch": 57, "duration": 14, "velocity": 89}, {"time": 438, "pitch": 60, "duration": 13, "velocity": 92}, {"time": 444, "pitch": 65, "duration": 11, "velocity": 84}, {"time": 444, "pitch": 69, "duration": 7, "velocity": 92}, {"time": 450, "pitch": 48, "duration": 18, "velocity": 83}, {"time": 456, "pitch": 59, "duration": 12, "velocity": 82}, {"time": 462, "pitch": 60, "duration": 13, "velocity": 81}, {"time": 468, "pitch": 67, "duration": 6, "velocity": 88}, {"time": 468, "pitch": 71, "duration": 7, "velocity": 90}, {"time": 474, "pitch": 48, "duration": 17, "velocity": 86}, {"time": 480, "pitch": 57, "duration": 12, "velocity": 88}, {"time": 486, "pitch": 60, "duration": 13, "velocity": 90}, {"time": 492, "pitch": 65, "duration": 5, "velocity": 83}, {"time": 492, "pitch": 69, "duration": 5, "velocity": 86}, {"time": 498, "pitch": 48, "duration": 18, "velocity": 89}, {"time": 504, "pitch": 55, "duration": 12, "velocity": 78}, {"time": 510, "pitch": 60, "duration": 13, "velocity": 92}, {"time": 516, "pitch": 64, "duration": 5, "velocity": 90}, {"time": 516, "pitch": 67, "duration": 6, "velocity": 93}, {"time": 522, "pitch": 48, "duration": 19, "velocity": 84}, {"time": 528, "pitch": 57, "duration": 13, "velocity": 84}, {"time": 534, "pitch": 60, "duration": 14, "velocity": 87}, {"time": 540, "pitch": 65, "duration": 7, "velocity": 85}, {"time": 540, "pitch": 69, "duration": 6, "velocity": 91}, {"time": 546, "pitch": 48, "duration": 19, "velocity": 82}, {"time": 552, "pitch": 55, "duration": 13, "velocity": 80}, {"time": 558, "pitch": 60, "duration": 13, "velocity": 87}, {"time": 564, "pitch": 64, "duration": 6, "velocity": 80}, {"time": 564, "pitch": 67, "duration": 6, "velocity": 88}, {"time": 570, "pitch": 48, "duration": 25, "velocity": 76}, {"time": 576, "pitch": 55, "duration": 19, "velocity": 78}, {"time": 582, "pitch": 59, "duration": 13, "velocity": 80}, {"time": 588, "pitch": 62, "duration": 7, "velocity": 86}, {"time": 588, "pitch": 67, "duration": 8, "velocity": 93}, {"time": 594, "pitch": 48, "duration": 1, "velocity": 91}, {"time": 606, "pitch": 60, "duration": 8, "velocity": 84}, {"time": 606, "pitch": 64, "duration": 12, "velocity": 88}, {"time": 606, "pitch": 67, "duration": 9, "velocity": 88}, {"time": 612, "pitch": 48, "duration": 5, "velocity": 86}, {"time": 618, "pitch": 47, "duration": 24, "velocity": 84}, {"time": 618, "pitch": 59, "duration": 15, "velocity": 85}, {"time": 618, "pitch": 62, "duration": 17, "velocity": 89}, {"time": 618, "pitch": 67, "duration": 13, "velocity": 87}, {"time": 636, "pitch": 59, "duration": 2, "velocity": 77}, {"time": 636, "pitch": 62, "duration": 1, "velocity": 65}, {"time": 636, "pitch": 67, "duration": 2, "velocity": 84}, {"time": 642, "pitch": 45, "duration": 14, "velocity": 83}, {"time": 642, "pitch": 57, "duration": 19, "velocity": 86}, {"time": 642, "pitch": 60, "duration": 24, "velocity": 86}, {"time": 642, "pitch": 67, "duration": 21, "velocity": 84}, {"time": 660, "pitch": 45, "duration": 6, "velocity": 80}, {"time": 666, "pitch": 46, "duration": 14, "velocity": 54}, {"time": 666, "pitch": 53, "duration": 14, "velocity": 54}, {"time": 666, "pitch": 55, "duration": 24, "velocity": 85}, {"time": 666, "pitch": 58, "duration": 10, "velocity": 84}, {"time": 666, "pitch": 62, "duration": 13, "velocity": 77}, {"time": 678, "pitch": 36, "duration": 12, "velocity": 54}, {"time": 678, "pitch": 48, "duration": 12, "velocity": 54}, {"time": 678, "pitch": 60, "duration": 12, "velocity": 72}, {"time": 678, "pitch": 64, "duration": 12, "velocity": 80}, {"time": 690, "pitch": 41, "duration": 17, "velocity": 81}, {"time": 690, "pitch": 53, "duration": 15, "velocity": 78}, {"time": 690, "pitch": 57, "duration": 16, "velocity": 82}, {"time": 690, "pitch": 60, "duration": 1, "velocity": 87}, {"time": 690, "pitch": 65, "duration": 17, "velocity": 89}, {"time": 714, "pitch": 40, "duration": 13, "velocity": 82}, {"time": 714, "pitch": 52, "duration": 14, "velocity": 81}, {"time": 714, "pitch": 59, "duration": 15, "velocity": 86}, {"time": 714, "pitch": 64, "duration": 15, "velocity": 87}, {"time": 714, "pitch": 67, "duration": 14, "velocity": 87}, {"time": 738, "pitch": 50, "duration": 12, "velocity": 84}, {"time": 738, "pitch": 57, "duration": 18, "velocity": 86}, {"time": 738, "pitch": 62, "duration": 18, "velocity": 89}, {"time": 738, "pitch": 65, "duration": 18, "velocity": 88}, {"time": 750, "pitch": 43, "duration": 12, "velocity": 89}, {"time": 762, "pitch": 48, "duration": 17, "velocity": 85}, {"time": 762, "pitch": 60, "duration": 16, "velocity": 89}, {"time": 762, "pitch": 64, "duration": 15, "velocity": 86}, {"time": 762, "pitch": 67, "duration": 15, "velocity": 88}, {"time": 786, "pitch": 48, "duration": 24, "velocity": 92}, {"time": 792, "pitch": 55, "duration": 13, "velocity": 83}, {"time": 798, "pitch": 60, "duration": 7, "velocity": 82}, {"time": 804, "pitch": 67, "duration": 8, "velocity": 102}, {"time": 810, "pitch": 50, "duration": 25, "velocity": 87}, {"time": 816, "pitch": 57, "duration": 14, "velocity": 80}, {"time": 822, "pitch": 62, "duration": 12, "velocity": 92}, {"time": 828, "pitch": 65, "duration": 7, "velocity": 100}, {"time": 834, "pitch": 52, "duration": 25, "velocity": 92}, {"time": 840, "pitch": 60, "duration": 18, "velocity": 82}, {"time": 846, "pitch": 67, "duration": 12, "velocity": 102}, {"time": 852, "pitch": 64, "duration": 7, "velocity": 87}, {"time": 858, "pitch": 53, "duration": 19, "velocity": 86}, {"time": 864, "pitch": 59, "duration": 13, "velocity": 87}, {"time": 870, "pitch": 67, "duration": 7, "velocity": 87}, {"time": 882, "pitch": 45, "duration": 18, "velocity": 76}, {"time": 888, "pitch": 57, "duration": 8, "velocity": 62}, {"time": 888, "pitch": 60, "duration": 8, "velocity": 62}, {"time": 888, "pitch": 64, "duration": 8, "velocity": 71}, {"time": 900, "pitch": 57, "duration": 6, "velocity": 56}, {"time": 900, "pitch": 60, "duration": 6, "velocity": 65}, {"time": 900, "pitch": 64, "duration": 6, "velocity": 71}, {"time": 901, "pitch": 45, "duration": 6, "velocity": 88}, {"time": 906, "pitch": 43, "duration": 24, "velocity": 91}, {"time": 912, "pitch": 53, "duration": 7, "velocity": 82}, {"time": 918, "pitch": 62, "duration": 13, "velocity": 85}, {"time": 924, "pitch": 65, "duration": 7, "velocity": 88}, {"time": 930, "pitch": 41, "duration": 13, "velocity": 89}, {"time": 936, "pitch": 53, "duration": 5, "velocity": 76}, {"time": 936, "pitch": 57, "duration": 6, "velocity": 84}, {"time": 936, "pitch": 60, "duration": 6, "velocity": 89}, {"time": 942, "pitch": 42, "duration": 8, "velocity": 93}, {"time": 948, "pitch": 54, "duration": 6, "velocity": 88}, {"time": 948, "pitch": 57, "duration": 6, "velocity": 93}, {"time": 948, "pitch": 60, "duration": 6, "velocity": 92}, {"time": 954, "pitch": 43, "duration": 21, "velocity": 73}, {"time": 956, "pitch": 53, "duration": 19, "velocity": 64}, {"time": 957, "pitch": 50, "duration": 18, "velocity": 67}, {"time": 958, "pitch": 56, "duration": 17, "velocity": 85}, {"time": 960, "pitch": 60, "duration": 15, "velocity": 67}, {"time": 960, "pitch": 62, "duration": 16, "velocity": 81}, {"time": 979, "pitch": 48, "duration": 19, "velocity": 91}, {"time": 985, "pitch": 55, "duration": 15, "velocity": 81}, {"time": 991, "pitch": 60, "duration": 7, "velocity": 87}, {"time": 997, "pitch": 64, "duration": 5, "velocity": 88}, {"time": 1003, "pitch": 47, "duration": 18, "velocity": 90}, {"time": 1009, "pitch": 55, "duration": 12, "velocity": 78}, {"time": 1015, "pitch": 59, "duration": 7, "velocity": 94}, {"time": 1021, "pitch": 67, "duration": 16, "velocity": 98}, {"time": 1027, "pitch": 45, "duration": 18, "velocity": 89}, {"time": 1033, "pitch": 52, "duration": 11, "velocity": 84}, {"time": 1039, "pitch": 57, "duration": 7, "velocity": 93}, {"time": 1045, "pitch": 60, "duration": 6, "velocity": 92}, {"time": 1045, "pitch": 67, "duration": 9, "velocity": 30}, {"time": 1051, "pitch": 58, "duration": 10, "velocity": 84}, {"time": 1051, "pitch": 62, "duration": 13, "velocity": 77}, {"time": 1051, "pitch": 55, "duration": 25, "velocity": 85}, {"time": 1052, "pitch": 43, "duration": 12, "velocity": 62}, {"time": 1052, "pitch": 53, "duration": 13, "velocity": 54}, {"time": 1063, "pitch": 64, "duration": 12, "velocity": 80}, {"time": 1063, "pitch": 36, "duration": 12, "velocity": 77}, {"time": 1063, "pitch": 48, "duration": 12, "velocity": 54}, {"time": 1063, "pitch": 60, "duration": 13, "velocity": 72}, {"time": 1075, "pitch": 53, "duration": 24, "velocity": 96}, {"time": 1081, "pitch": 60, "duration": 8, "velocity": 74}, {"time": 1087, "pitch": 65, "duration": 6, "velocity": 102}, {"time": 1093, "pitch": 67, "duration": 7, "velocity": 92}, {"time": 1099, "pitch": 52, "duration": 23, "velocity": 91}, {"time": 1105, "pitch": 60, "duration": 18, "velocity": 78}, {"time": 1111, "pitch": 64, "duration": 13, "velocity": 84}, {"time": 1117, "pitch": 67, "duration": 7, "velocity": 88}, {"time": 1123, "pitch": 38, "duration": 10, "velocity": 61}, {"time": 1123, "pitch": 50, "duration": 8, "velocity": 62}, {"time": 1123, "pitch": 57, "duration": 7, "velocity": 68}, {"time": 1123, "pitch": 62, "duration": 9, "velocity": 68}, {"time": 1123, "pitch": 65, "duration": 15, "velocity": 70}, {"time": 1135, "pitch": 43, "duration": 13, "velocity": 61}, {"time": 1135, "pitch": 53, "duration": 13, "velocity": 56}, {"time": 1135, "pitch": 59, "duration": 13, "velocity": 72}, {"time": 1135, "pitch": 62, "duration": 13, "velocity": 76}, {"time": 1135, "pitch": 67, "duration": 13, "velocity": 83}, {"time": 1147, "pitch": 48, "duration": 17, "velocity": 80}, {"time": 1147, "pitch": 60, "duration": 17, "velocity": 88}, {"time": 1147, "pitch": 64, "duration": 16, "velocity": 84}, {"time": 1149, "pitch": 67, "duration": 14, "velocity": 91}, {"time": 1171, "pitch": 53, "duration": 22, "velocity": 80}, {"time": 1171, "pitch": 56, "duration": 17, "velocity": 84}, {"time": 1171, "pitch": 60, "duration": 23, "velocity": 88}, {"time": 1171, "pitch": 65, "duration": 19, "velocity": 88}, {"time": 1195, "pitch": 48, "duration": 23, "velocity": 78}, {"time": 1195, "pitch": 55, "duration": 21, "velocity": 86}, {"time": 1195, "pitch": 60, "duration": 16, "velocity": 86}, {"time": 1195, "pitch": 64, "duration": 20, "velocity": 88}, {"time": 1219, "pitch": 40, "duration": 13, "velocity": 81}, {"time": 1219, "pitch": 52, "duration": 24, "velocity": 82}, {"time": 1219, "pitch": 55, "duration": 9, "velocity": 85}, {"time": 1219, "pitch": 59, "duration": 10, "velocity": 88}, {"time": 1219, "pitch": 64, "duration": 8, "velocity": 88}, {"time": 1231, "pitch": 59, "duration": 10, "velocity": 84}, {"time": 1231, "pitch": 64, "duration": 11, "velocity": 94}, {"time": 1243, "pitch": 45, "duration": 23, "velocity": 81}, {"time": 1243, "pitch": 57, "duration": 21, "velocity": 81}, {"time": 1243, "pitch": 60, "duration": 20, "velocity": 85}, {"time": 1243, "pitch": 64, "duration": 18, "velocity": 77}, {"time": 1258, "pitch": 43, "duration": 13, "velocity": 83}, {"time": 1270, "pitch": 42, "duration": 29, "velocity": 86}, {"time": 1300, "pitch": 57, "duration": 11, "velocity": 78}, {"time": 1300, "pitch": 65, "duration": 30, "velocity": 83}, {"time": 1315, "pitch": 55, "duration": 47, "velocity": 73}, {"time": 1316, "pitch": 43, "duration": 18, "velocity": 57}, {"time": 1339, "pitch": 48, "duration": 26, "velocity": 76}, {"time": 1339, "pitch": 60, "duration": 29, "velocity": 46}, {"time": 1339, "pitch": 64, "duration": 29, "velocity": 69}], "annotations": [{"time": 88, "annotation": {"number": 64, "value": 71}, "group": "control_change"}, {"time": 92, "annotation": {"number": 64, "value": 71}, "group": "control_change"}, {"time": 93, "annotation": {"number": 64, "value": 127}, "group": "control_change"}, {"time": 101, "annotation": {"number": 64, "value": 0}, "group": "control_change"}, {"time": 113, "annotation": {"number": 64, "value": 71}, "group": "control_change"}, {"time": 114, "annotation": {"number": 64, "value": 0}, "group": "control_change"}, {"time": 407, "annotation": {"number": 64, "value": 71}, "group": "control_change"}, {"time": 409, "annotation": {"number": 64, "value": 127}, "group": "control_change"}, {"time": 427, "annotation": {"number": 64, "value": 71}, "group": "control_change"}, {"time": 428, "annotation": {"number": 64, "value": 0}, "group": "control_change"}, {"time": 440, "annotation": {"number": 64, "value": 71}, "group": "control_change"}, {"time": 442, "annotation": {"number": 64, "value": 127}, "group": "control_change"}, {"time": 451, "annotation": {"number": 64, "value": 71}, "group": "control_change"}, {"time": 452, "annotation": {"number": 64, "value": 0}, "group": "control_change"}, {"time": 463, "annotation": {"number": 64, "value": 71}, "group": "control_change"}, {"time": 465, "annotation": {"number": 64, "value": 127}, "group": "control_change"}, {"time": 474, "annotation": {"number": 64, "value": 71}, "group": "control_change"}, {"time": 476, "annotation": {"number": 64, "value": 0}, "group": "control_change"}, {"time": 487, "annotation": {"number": 64, "value": 71}, "group": "control_change"}, {"time": 489, "annotation": {"number": 64, "value": 127}, "group": "control_change"}, {"time": 498, "annotation": {"number": 64, "value": 71}, "group": "control_change"}, {"time": 500, "annotation": {"number": 64, "value": 0}, "group": "control_change"}, {"time": 511, "annotation": {"number": 64, "value": 71}, "group": "control_change"}, {"time": 513, "annotation": {"number": 64, "value": 127}, "group": "control_change"}, {"time": 522, "annotation": {"number": 64, "value": 71}, "group": "control_change"}, {"time": 523, "annotation": {"number": 64, "value": 0}, "group": "control_change"}, {"time": 537, "annotation": {"number": 64, "value": 71}, "group": "control_change"}, {"time": 539, "annotation": {"number": 64, "value": 127}, "group": "control_change"}, {"time": 547, "annotation": {"number": 64, "value": 71}, "group": "control_change"}, {"time": 547, "annotation": {"number": 64, "value": 0}, "group": "control_change"}, {"time": 560, "annotation": {"number": 64, "value": 71}, "group": "control_change"}, {"time": 562, "annotation": {"number": 64, "value": 127}, "group": "control_change"}, {"time": 570, "annotation": {"number": 64, "value": 71}, "group": "control_change"}, {"time": 571, "annotation": {"number": 64, "value": 0}, "group": "control_change"}, {"time": 1395, "annotation": {"number": 64, "value": 0}, "group": "control_change"}]}]}