{"metadata": {"schema_version": "0.2", "title": "None", "source_filename": "332.mid", "source_format": "midi"}, "resolution": 12, "tempos": [{"time": 0, "qpm": 94.00012846684224}], "time_signatures": [{"time": 0, "numerator": 4, "denominator": 4}], "tracks": [{"program": 0, "is_drum": false, "name": "MELODY", "notes": [{"time": 446, "pitch": 73, "duration": 6, "velocity": 116}, {"time": 452, "pitch": 73, "duration": 6, "velocity": 108}, {"time": 458, "pitch": 73, "duration": 6, "velocity": 114}, {"time": 464, "pitch": 77, "duration": 6, "velocity": 114}, {"time": 470, "pitch": 80, "duration": 6, "velocity": 116}, {"time": 476, "pitch": 80, "duration": 6, "velocity": 114}, {"time": 482, "pitch": 80, "duration": 6, "velocity": 117}, {"time": 488, "pitch": 80, "duration": 6, "velocity": 117}, {"time": 494, "pitch": 82, "duration": 6, "velocity": 117}, {"time": 500, "pitch": 82, "duration": 6, "velocity": 117}, {"time": 506, "pitch": 82, "duration": 6, "velocity": 117}, {"time": 512, "pitch": 85, "duration": 6, "velocity": 114}, {"time": 518, "pitch": 80, "duration": 24, "velocity": 119}, {"time": 542, "pitch": 78, "duration": 6, "velocity": 114}, {"time": 548, "pitch": 78, "duration": 6, "velocity": 113}, {"time": 554, "pitch": 78, "duration": 6, "velocity": 113}, {"time": 560, "pitch": 82, "duration": 6, "velocity": 113}, {"time": 566, "pitch": 77, "duration": 6, "velocity": 110}, {"time": 572, "pitch": 77, "duration": 6, "velocity": 114}, {"time": 578, "pitch": 77, "duration": 6, "velocity": 116}, {"time": 584, "pitch": 77, "duration": 6, "velocity": 110}, {"time": 590, "pitch": 75, "duration": 6, "velocity": 107}, {"time": 596, "pitch": 75, "duration": 6, "velocity": 108}, {"time": 602, "pitch": 75, "duration": 6, "velocity": 110}, {"time": 608, "pitch": 75, "duration": 6, "velocity": 113}, {"time": 614, "pitch": 80, "duration": 18, "velocity": 108}, {"time": 632, "pitch": 73, "duration": 6, "velocity": 108}, {"time": 638, "pitch": 73, "duration": 6, "velocity": 102}, {"time": 644, "pitch": 73, "duration": 6, "velocity": 100}, {"time": 650, "pitch": 73, "duration": 6, "velocity": 110}, {"time": 656, "pitch": 77, "duration": 6, "velocity": 114}, {"time": 662, "pitch": 80, "duration": 6, "velocity": 113}, {"time": 668, "pitch": 80, "duration": 6, "velocity": 107}, {"time": 674, "pitch": 80, "duration": 6, "velocity": 104}, {"time": 680, "pitch": 80, "duration": 6, "velocity": 102}, {"time": 686, "pitch": 82, "duration": 6, "velocity": 110}, {"time": 692, "pitch": 82, "duration": 6, "velocity": 116}, {"time": 698, "pitch": 82, "duration": 6, "velocity": 113}, {"time": 704, "pitch": 85, "duration": 6, "velocity": 113}, {"time": 710, "pitch": 80, "duration": 24, "velocity": 114}, {"time": 734, "pitch": 78, "duration": 6, "velocity": 113}, {"time": 740, "pitch": 78, "duration": 6, "velocity": 110}, {"time": 746, "pitch": 78, "duration": 6, "velocity": 102}, {"time": 752, "pitch": 82, "duration": 6, "velocity": 104}, {"time": 758, "pitch": 77, "duration": 3, "velocity": 113}, {"time": 761, "pitch": 77, "duration": 3, "velocity": 91}, {"time": 764, "pitch": 77, "duration": 3, "velocity": 94}, {"time": 767, "pitch": 77, "duration": 3, "velocity": 93}, {"time": 770, "pitch": 77, "duration": 6, "velocity": 119}, {"time": 776, "pitch": 77, "duration": 6, "velocity": 108}, {"time": 782, "pitch": 75, "duration": 6, "velocity": 113}, {"time": 788, "pitch": 75, "duration": 6, "velocity": 114}, {"time": 794, "pitch": 75, "duration": 6, "velocity": 116}, {"time": 800, "pitch": 77, "duration": 6, "velocity": 113}, {"time": 806, "pitch": 73, "duration": 11, "velocity": 117}, {"time": 1022, "pitch": 73, "duration": 6, "velocity": 116}, {"time": 1028, "pitch": 73, "duration": 6, "velocity": 108}, {"time": 1034, "pitch": 73, "duration": 6, "velocity": 114}, {"time": 1040, "pitch": 77, "duration": 6, "velocity": 114}, {"time": 1046, "pitch": 80, "duration": 6, "velocity": 116}, {"time": 1052, "pitch": 80, "duration": 6, "velocity": 114}, {"time": 1058, "pitch": 80, "duration": 6, "velocity": 117}, {"time": 1064, "pitch": 80, "duration": 6, "velocity": 117}, {"time": 1070, "pitch": 82, "duration": 6, "velocity": 117}, {"time": 1076, "pitch": 82, "duration": 6, "velocity": 117}, {"time": 1082, "pitch": 82, "duration": 6, "velocity": 117}, {"time": 1088, "pitch": 85, "duration": 6, "velocity": 114}, {"time": 1094, "pitch": 80, "duration": 24, "velocity": 119}, {"time": 1118, "pitch": 78, "duration": 6, "velocity": 114}, {"time": 1124, "pitch": 78, "duration": 6, "velocity": 113}, {"time": 1130, "pitch": 78, "duration": 6, "velocity": 113}, {"time": 1136, "pitch": 82, "duration": 6, "velocity": 113}, {"time": 1142, "pitch": 77, "duration": 6, "velocity": 110}, {"time": 1148, "pitch": 77, "duration": 6, "velocity": 114}, {"time": 1154, "pitch": 77, "duration": 6, "velocity": 116}, {"time": 1160, "pitch": 77, "duration": 6, "velocity": 110}, {"time": 1166, "pitch": 75, "duration": 6, "velocity": 107}, {"time": 1172, "pitch": 75, "duration": 6, "velocity": 108}, {"time": 1178, "pitch": 75, "duration": 6, "velocity": 110}, {"time": 1184, "pitch": 75, "duration": 6, "velocity": 113}, {"time": 1190, "pitch": 80, "duration": 18, "velocity": 108}, {"time": 1208, "pitch": 73, "duration": 6, "velocity": 108}, {"time": 1214, "pitch": 73, "duration": 6, "velocity": 102}, {"time": 1220, "pitch": 73, "duration": 6, "velocity": 100}, {"time": 1226, "pitch": 73, "duration": 6, "velocity": 110}, {"time": 1232, "pitch": 77, "duration": 6, "velocity": 114}, {"time": 1238, "pitch": 80, "duration": 6, "velocity": 113}, {"time": 1244, "pitch": 80, "duration": 6, "velocity": 107}, {"time": 1250, "pitch": 80, "duration": 6, "velocity": 104}, {"time": 1256, "pitch": 80, "duration": 6, "velocity": 102}, {"time": 1262, "pitch": 82, "duration": 6, "velocity": 110}, {"time": 1268, "pitch": 82, "duration": 6, "velocity": 116}, {"time": 1274, "pitch": 82, "duration": 6, "velocity": 113}, {"time": 1280, "pitch": 85, "duration": 6, "velocity": 113}, {"time": 1286, "pitch": 80, "duration": 24, "velocity": 114}, {"time": 1310, "pitch": 78, "duration": 6, "velocity": 113}, {"time": 1316, "pitch": 78, "duration": 6, "velocity": 110}, {"time": 1322, "pitch": 78, "duration": 6, "velocity": 102}, {"time": 1328, "pitch": 82, "duration": 6, "velocity": 104}, {"time": 1334, "pitch": 77, "duration": 3, "velocity": 113}, {"time": 1337, "pitch": 77, "duration": 3, "velocity": 91}, {"time": 1340, "pitch": 77, "duration": 3, "velocity": 94}, {"time": 1343, "pitch": 77, "duration": 3, "velocity": 93}, {"time": 1346, "pitch": 77, "duration": 6, "velocity": 119}, {"time": 1352, "pitch": 77, "duration": 6, "velocity": 108}, {"time": 1358, "pitch": 75, "duration": 6, "velocity": 113}, {"time": 1364, "pitch": 75, "duration": 6, "velocity": 114}, {"time": 1370, "pitch": 75, "duration": 6, "velocity": 116}, {"time": 1376, "pitch": 77, "duration": 6, "velocity": 113}, {"time": 1382, "pitch": 73, "duration": 11, "velocity": 117}, {"time": 1790, "pitch": 73, "duration": 6, "velocity": 116}, {"time": 1796, "pitch": 73, "duration": 6, "velocity": 108}, {"time": 1802, "pitch": 73, "duration": 6, "velocity": 114}, {"time": 1808, "pitch": 77, "duration": 6, "velocity": 114}, {"time": 1814, "pitch": 80, "duration": 6, "velocity": 116}, {"time": 1820, "pitch": 80, "duration": 6, "velocity": 114}, {"time": 1826, "pitch": 80, "duration": 6, "velocity": 117}, {"time": 1832, "pitch": 80, "duration": 6, "velocity": 117}, {"time": 1838, "pitch": 82, "duration": 6, "velocity": 117}, {"time": 1844, "pitch": 82, "duration": 6, "velocity": 117}, {"time": 1850, "pitch": 82, "duration": 6, "velocity": 117}, {"time": 1856, "pitch": 85, "duration": 6, "velocity": 114}, {"time": 1862, "pitch": 80, "duration": 24, "velocity": 119}, {"time": 1886, "pitch": 78, "duration": 6, "velocity": 114}, {"time": 1892, "pitch": 78, "duration": 6, "velocity": 113}, {"time": 1898, "pitch": 78, "duration": 6, "velocity": 113}, {"time": 1904, "pitch": 82, "duration": 6, "velocity": 113}, {"time": 1910, "pitch": 77, "duration": 6, "velocity": 110}, {"time": 1916, "pitch": 77, "duration": 6, "velocity": 114}, {"time": 1922, "pitch": 77, "duration": 6, "velocity": 116}, {"time": 1928, "pitch": 77, "duration": 6, "velocity": 110}, {"time": 1934, "pitch": 75, "duration": 6, "velocity": 107}, {"time": 1940, "pitch": 75, "duration": 6, "velocity": 108}, {"time": 1946, "pitch": 75, "duration": 6, "velocity": 110}, {"time": 1952, "pitch": 75, "duration": 6, "velocity": 113}, {"time": 1958, "pitch": 80, "duration": 18, "velocity": 108}, {"time": 1976, "pitch": 73, "duration": 6, "velocity": 108}, {"time": 1982, "pitch": 73, "duration": 6, "velocity": 102}, {"time": 1988, "pitch": 73, "duration": 6, "velocity": 100}, {"time": 1994, "pitch": 73, "duration": 6, "velocity": 110}, {"time": 2000, "pitch": 77, "duration": 6, "velocity": 114}, {"time": 2006, "pitch": 80, "duration": 6, "velocity": 113}, {"time": 2012, "pitch": 80, "duration": 6, "velocity": 107}, {"time": 2018, "pitch": 80, "duration": 6, "velocity": 104}, {"time": 2024, "pitch": 80, "duration": 6, "velocity": 102}, {"time": 2030, "pitch": 82, "duration": 6, "velocity": 110}, {"time": 2036, "pitch": 82, "duration": 6, "velocity": 116}, {"time": 2042, "pitch": 82, "duration": 6, "velocity": 113}, {"time": 2048, "pitch": 85, "duration": 6, "velocity": 113}, {"time": 2054, "pitch": 80, "duration": 24, "velocity": 114}, {"time": 2078, "pitch": 78, "duration": 6, "velocity": 113}, {"time": 2084, "pitch": 78, "duration": 6, "velocity": 110}, {"time": 2090, "pitch": 78, "duration": 6, "velocity": 102}, {"time": 2096, "pitch": 82, "duration": 6, "velocity": 104}, {"time": 2102, "pitch": 77, "duration": 3, "velocity": 113}, {"time": 2105, "pitch": 77, "duration": 3, "velocity": 91}, {"time": 2108, "pitch": 77, "duration": 3, "velocity": 94}, {"time": 2111, "pitch": 77, "duration": 3, "velocity": 93}, {"time": 2114, "pitch": 77, "duration": 6, "velocity": 119}, {"time": 2120, "pitch": 77, "duration": 6, "velocity": 108}, {"time": 2126, "pitch": 75, "duration": 6, "velocity": 113}, {"time": 2132, "pitch": 75, "duration": 6, "velocity": 114}, {"time": 2138, "pitch": 75, "duration": 6, "velocity": 116}, {"time": 2144, "pitch": 77, "duration": 6, "velocity": 113}, {"time": 2150, "pitch": 73, "duration": 11, "velocity": 117}, {"time": 2366, "pitch": 73, "duration": 6, "velocity": 116}, {"time": 2372, "pitch": 73, "duration": 6, "velocity": 108}, {"time": 2378, "pitch": 73, "duration": 6, "velocity": 114}, {"time": 2384, "pitch": 77, "duration": 6, "velocity": 114}, {"time": 2390, "pitch": 80, "duration": 6, "velocity": 116}, {"time": 2396, "pitch": 80, "duration": 6, "velocity": 114}, {"time": 2402, "pitch": 80, "duration": 6, "velocity": 117}, {"time": 2408, "pitch": 80, "duration": 6, "velocity": 117}, {"time": 2414, "pitch": 82, "duration": 6, "velocity": 117}, {"time": 2420, "pitch": 82, "duration": 6, "velocity": 117}, {"time": 2426, "pitch": 82, "duration": 6, "velocity": 117}, {"time": 2432, "pitch": 85, "duration": 6, "velocity": 114}, {"time": 2438, "pitch": 80, "duration": 24, "velocity": 119}, {"time": 2462, "pitch": 78, "duration": 6, "velocity": 114}, {"time": 2468, "pitch": 78, "duration": 6, "velocity": 113}, {"time": 2474, "pitch": 78, "duration": 6, "velocity": 113}, {"time": 2480, "pitch": 82, "duration": 6, "velocity": 113}, {"time": 2486, "pitch": 77, "duration": 6, "velocity": 110}, {"time": 2492, "pitch": 77, "duration": 6, "velocity": 114}, {"time": 2498, "pitch": 77, "duration": 6, "velocity": 116}, {"time": 2504, "pitch": 77, "duration": 6, "velocity": 110}, {"time": 2510, "pitch": 75, "duration": 6, "velocity": 107}, {"time": 2516, "pitch": 75, "duration": 6, "velocity": 108}, {"time": 2522, "pitch": 75, "duration": 6, "velocity": 110}, {"time": 2528, "pitch": 75, "duration": 6, "velocity": 113}, {"time": 2534, "pitch": 80, "duration": 18, "velocity": 108}, {"time": 2552, "pitch": 73, "duration": 6, "velocity": 108}, {"time": 2558, "pitch": 73, "duration": 6, "velocity": 102}, {"time": 2564, "pitch": 73, "duration": 6, "velocity": 100}, {"time": 2570, "pitch": 73, "duration": 6, "velocity": 110}, {"time": 2576, "pitch": 77, "duration": 6, "velocity": 114}, {"time": 2582, "pitch": 80, "duration": 6, "velocity": 113}, {"time": 2588, "pitch": 80, "duration": 6, "velocity": 107}, {"time": 2594, "pitch": 80, "duration": 6, "velocity": 104}, {"time": 2600, "pitch": 80, "duration": 6, "velocity": 102}, {"time": 2606, "pitch": 82, "duration": 6, "velocity": 110}, {"time": 2612, "pitch": 82, "duration": 6, "velocity": 116}, {"time": 2618, "pitch": 82, "duration": 6, "velocity": 113}, {"time": 2624, "pitch": 85, "duration": 6, "velocity": 113}, {"time": 2630, "pitch": 80, "duration": 24, "velocity": 114}, {"time": 2654, "pitch": 78, "duration": 6, "velocity": 113}, {"time": 2660, "pitch": 78, "duration": 6, "velocity": 110}, {"time": 2666, "pitch": 78, "duration": 6, "velocity": 102}, {"time": 2672, "pitch": 82, "duration": 6, "velocity": 104}, {"time": 2678, "pitch": 77, "duration": 3, "velocity": 113}, {"time": 2681, "pitch": 77, "duration": 3, "velocity": 91}, {"time": 2684, "pitch": 77, "duration": 3, "velocity": 94}, {"time": 2687, "pitch": 77, "duration": 3, "velocity": 93}, {"time": 2690, "pitch": 77, "duration": 6, "velocity": 119}, {"time": 2696, "pitch": 77, "duration": 6, "velocity": 108}, {"time": 2702, "pitch": 75, "duration": 6, "velocity": 113}, {"time": 2708, "pitch": 75, "duration": 6, "velocity": 114}, {"time": 2714, "pitch": 75, "duration": 6, "velocity": 116}, {"time": 2720, "pitch": 77, "duration": 6, "velocity": 113}, {"time": 2726, "pitch": 73, "duration": 11, "velocity": 117}]}, {"program": 0, "is_drum": false, "name": "BRIDGE", "notes": [{"time": 59, "pitch": 77, "duration": 3, "velocity": 83}, {"time": 60, "pitch": 80, "duration": 2, "velocity": 78}, {"time": 62, "pitch": 85, "duration": 45, "velocity": 91}, {"time": 107, "pitch": 75, "duration": 4, "velocity": 73}, {"time": 108, "pitch": 80, "duration": 2, "velocity": 75}, {"time": 110, "pitch": 84, "duration": 45, "velocity": 87}, {"time": 155, "pitch": 73, "duration": 12, "velocity": 66}, {"time": 156, "pitch": 78, "duration": 2, "velocity": 82}, {"time": 158, "pitch": 82, "duration": 45, "velocity": 88}, {"time": 203, "pitch": 77, "duration": 4, "velocity": 73}, {"time": 204, "pitch": 80, "duration": 3, "velocity": 77}, {"time": 206, "pitch": 85, "duration": 48, "velocity": 88}, {"time": 254, "pitch": 73, "duration": 6, "velocity": 113}, {"time": 260, "pitch": 73, "duration": 6, "velocity": 108}, {"time": 266, "pitch": 73, "duration": 6, "velocity": 108}, {"time": 272, "pitch": 77, "duration": 6, "velocity": 114}, {"time": 278, "pitch": 80, "duration": 6, "velocity": 117}, {"time": 284, "pitch": 77, "duration": 6, "velocity": 114}, {"time": 290, "pitch": 73, "duration": 12, "velocity": 116}, {"time": 302, "pitch": 75, "duration": 6, "velocity": 110}, {"time": 308, "pitch": 75, "duration": 6, "velocity": 113}, {"time": 314, "pitch": 75, "duration": 6, "velocity": 116}, {"time": 320, "pitch": 77, "duration": 6, "velocity": 108}, {"time": 326, "pitch": 75, "duration": 6, "velocity": 113}, {"time": 332, "pitch": 72, "duration": 6, "velocity": 108}, {"time": 338, "pitch": 68, "duration": 12, "velocity": 107}, {"time": 350, "pitch": 73, "duration": 6, "velocity": 100}, {"time": 356, "pitch": 73, "duration": 6, "velocity": 104}, {"time": 362, "pitch": 73, "duration": 6, "velocity": 108}, {"time": 368, "pitch": 77, "duration": 6, "velocity": 104}, {"time": 374, "pitch": 80, "duration": 6, "velocity": 110}, {"time": 380, "pitch": 77, "duration": 6, "velocity": 108}, {"time": 386, "pitch": 73, "duration": 12, "velocity": 110}, {"time": 398, "pitch": 77, "duration": 6, "velocity": 114}, {"time": 404, "pitch": 73, "duration": 6, "velocity": 104}, {"time": 410, "pitch": 75, "duration": 6, "velocity": 114}, {"time": 416, "pitch": 68, "duration": 6, "velocity": 113}, {"time": 422, "pitch": 73, "duration": 12, "velocity": 104}, {"time": 614, "pitch": 80, "duration": 6, "velocity": 108}, {"time": 620, "pitch": 78, "duration": 6, "velocity": 104}, {"time": 626, "pitch": 77, "duration": 6, "velocity": 102}, {"time": 632, "pitch": 75, "duration": 6, "velocity": 107}, {"time": 638, "pitch": 73, "duration": 36, "velocity": 94}, {"time": 830, "pitch": 82, "duration": 4, "velocity": 110}, {"time": 833, "pitch": 80, "duration": 4, "velocity": 93}, {"time": 836, "pitch": 78, "duration": 3, "velocity": 98}, {"time": 839, "pitch": 73, "duration": 9, "velocity": 107}, {"time": 848, "pitch": 78, "duration": 3, "velocity": 113}, {"time": 851, "pitch": 80, "duration": 3, "velocity": 107}, {"time": 854, "pitch": 82, "duration": 12, "velocity": 116}, {"time": 866, "pitch": 80, "duration": 6, "velocity": 116}, {"time": 872, "pitch": 78, "duration": 6, "velocity": 110}, {"time": 878, "pitch": 77, "duration": 6, "velocity": 104}, {"time": 884, "pitch": 75, "duration": 6, "velocity": 113}, {"time": 890, "pitch": 77, "duration": 3, "velocity": 113}, {"time": 893, "pitch": 78, "duration": 6, "velocity": 108}, {"time": 899, "pitch": 80, "duration": 18, "velocity": 117}, {"time": 917, "pitch": 73, "duration": 3, "velocity": 108}, {"time": 920, "pitch": 75, "duration": 3, "velocity": 108}, {"time": 923, "pitch": 73, "duration": 3, "velocity": 107}, {"time": 926, "pitch": 78, "duration": 6, "velocity": 117}, {"time": 932, "pitch": 77, "duration": 3, "velocity": 91}, {"time": 935, "pitch": 75, "duration": 9, "velocity": 116}, {"time": 944, "pitch": 73, "duration": 6, "velocity": 107}, {"time": 950, "pitch": 82, "duration": 6, "velocity": 117}, {"time": 956, "pitch": 80, "duration": 6, "velocity": 110}, {"time": 962, "pitch": 78, "duration": 3, "velocity": 114}, {"time": 965, "pitch": 77, "duration": 9, "velocity": 113}, {"time": 974, "pitch": 75, "duration": 6, "velocity": 108}, {"time": 980, "pitch": 78, "duration": 6, "velocity": 110}, {"time": 986, "pitch": 77, "duration": 6, "velocity": 107}, {"time": 992, "pitch": 75, "duration": 6, "velocity": 113}, {"time": 998, "pitch": 73, "duration": 12, "velocity": 116}, {"time": 1190, "pitch": 80, "duration": 6, "velocity": 108}, {"time": 1196, "pitch": 78, "duration": 6, "velocity": 104}, {"time": 1202, "pitch": 77, "duration": 6, "velocity": 102}, {"time": 1208, "pitch": 75, "duration": 6, "velocity": 107}, {"time": 1214, "pitch": 73, "duration": 36, "velocity": 94}, {"time": 1403, "pitch": 77, "duration": 3, "velocity": 83}, {"time": 1404, "pitch": 80, "duration": 2, "velocity": 78}, {"time": 1406, "pitch": 85, "duration": 45, "velocity": 91}, {"time": 1451, "pitch": 75, "duration": 4, "velocity": 73}, {"time": 1452, "pitch": 80, "duration": 2, "velocity": 75}, {"time": 1454, "pitch": 84, "duration": 45, "velocity": 87}, {"time": 1499, "pitch": 73, "duration": 12, "velocity": 66}, {"time": 1500, "pitch": 78, "duration": 2, "velocity": 82}, {"time": 1502, "pitch": 82, "duration": 45, "velocity": 88}, {"time": 1547, "pitch": 77, "duration": 4, "velocity": 73}, {"time": 1548, "pitch": 80, "duration": 3, "velocity": 77}, {"time": 1550, "pitch": 85, "duration": 48, "velocity": 88}, {"time": 1598, "pitch": 73, "duration": 6, "velocity": 113}, {"time": 1604, "pitch": 73, "duration": 6, "velocity": 108}, {"time": 1610, "pitch": 73, "duration": 6, "velocity": 108}, {"time": 1616, "pitch": 77, "duration": 6, "velocity": 114}, {"time": 1622, "pitch": 80, "duration": 6, "velocity": 117}, {"time": 1628, "pitch": 77, "duration": 6, "velocity": 114}, {"time": 1634, "pitch": 73, "duration": 12, "velocity": 116}, {"time": 1646, "pitch": 75, "duration": 6, "velocity": 110}, {"time": 1652, "pitch": 75, "duration": 6, "velocity": 113}, {"time": 1658, "pitch": 75, "duration": 6, "velocity": 116}, {"time": 1664, "pitch": 77, "duration": 6, "velocity": 108}, {"time": 1670, "pitch": 75, "duration": 6, "velocity": 113}, {"time": 1676, "pitch": 72, "duration": 6, "velocity": 108}, {"time": 1682, "pitch": 68, "duration": 12, "velocity": 107}, {"time": 1694, "pitch": 73, "duration": 6, "velocity": 100}, {"time": 1700, "pitch": 73, "duration": 6, "velocity": 104}, {"time": 1706, "pitch": 73, "duration": 6, "velocity": 108}, {"time": 1712, "pitch": 77, "duration": 6, "velocity": 104}, {"time": 1718, "pitch": 80, "duration": 6, "velocity": 110}, {"time": 1724, "pitch": 77, "duration": 6, "velocity": 108}, {"time": 1730, "pitch": 73, "duration": 12, "velocity": 110}, {"time": 1742, "pitch": 77, "duration": 6, "velocity": 114}, {"time": 1748, "pitch": 73, "duration": 6, "velocity": 104}, {"time": 1754, "pitch": 75, "duration": 6, "velocity": 114}, {"time": 1760, "pitch": 68, "duration": 6, "velocity": 113}, {"time": 1766, "pitch": 73, "duration": 12, "velocity": 104}, {"time": 1958, "pitch": 80, "duration": 6, "velocity": 108}, {"time": 1964, "pitch": 78, "duration": 6, "velocity": 104}, {"time": 1970, "pitch": 77, "duration": 6, "velocity": 102}, {"time": 1976, "pitch": 75, "duration": 6, "velocity": 107}, {"time": 1982, "pitch": 73, "duration": 36, "velocity": 94}, {"time": 2174, "pitch": 82, "duration": 4, "velocity": 110}, {"time": 2177, "pitch": 80, "duration": 4, "velocity": 93}, {"time": 2180, "pitch": 78, "duration": 3, "velocity": 98}, {"time": 2183, "pitch": 73, "duration": 9, "velocity": 107}, {"time": 2192, "pitch": 78, "duration": 3, "velocity": 113}, {"time": 2195, "pitch": 80, "duration": 3, "velocity": 107}, {"time": 2198, "pitch": 82, "duration": 12, "velocity": 116}, {"time": 2210, "pitch": 80, "duration": 6, "velocity": 116}, {"time": 2216, "pitch": 78, "duration": 6, "velocity": 110}, {"time": 2222, "pitch": 77, "duration": 6, "velocity": 104}, {"time": 2228, "pitch": 75, "duration": 6, "velocity": 113}, {"time": 2234, "pitch": 77, "duration": 3, "velocity": 113}, {"time": 2237, "pitch": 78, "duration": 6, "velocity": 108}, {"time": 2243, "pitch": 80, "duration": 18, "velocity": 117}, {"time": 2261, "pitch": 73, "duration": 3, "velocity": 108}, {"time": 2264, "pitch": 75, "duration": 3, "velocity": 108}, {"time": 2267, "pitch": 73, "duration": 3, "velocity": 107}, {"time": 2270, "pitch": 78, "duration": 6, "velocity": 117}, {"time": 2276, "pitch": 77, "duration": 3, "velocity": 91}, {"time": 2279, "pitch": 75, "duration": 9, "velocity": 116}, {"time": 2288, "pitch": 73, "duration": 6, "velocity": 107}, {"time": 2294, "pitch": 82, "duration": 6, "velocity": 117}, {"time": 2300, "pitch": 80, "duration": 6, "velocity": 110}, {"time": 2306, "pitch": 78, "duration": 3, "velocity": 114}, {"time": 2309, "pitch": 77, "duration": 9, "velocity": 113}, {"time": 2318, "pitch": 75, "duration": 6, "velocity": 108}, {"time": 2324, "pitch": 78, "duration": 6, "velocity": 110}, {"time": 2330, "pitch": 77, "duration": 6, "velocity": 107}, {"time": 2336, "pitch": 75, "duration": 6, "velocity": 113}, {"time": 2342, "pitch": 73, "duration": 12, "velocity": 116}, {"time": 2534, "pitch": 80, "duration": 6, "velocity": 108}, {"time": 2540, "pitch": 78, "duration": 6, "velocity": 104}, {"time": 2546, "pitch": 77, "duration": 6, "velocity": 102}, {"time": 2552, "pitch": 75, "duration": 6, "velocity": 107}, {"time": 2558, "pitch": 73, "duration": 36, "velocity": 94}, {"time": 2747, "pitch": 77, "duration": 3, "velocity": 83}, {"time": 2748, "pitch": 80, "duration": 2, "velocity": 78}, {"time": 2750, "pitch": 85, "duration": 9, "velocity": 91}, {"time": 2795, "pitch": 75, "duration": 4, "velocity": 73}, {"time": 2796, "pitch": 80, "duration": 2, "velocity": 75}, {"time": 2798, "pitch": 84, "duration": 8, "velocity": 87}, {"time": 2843, "pitch": 73, "duration": 12, "velocity": 66}, {"time": 2844, "pitch": 78, "duration": 2, "velocity": 82}, {"time": 2846, "pitch": 82, "duration": 10, "velocity": 88}, {"time": 2891, "pitch": 77, "duration": 4, "velocity": 73}, {"time": 2892, "pitch": 80, "duration": 3, "velocity": 77}, {"time": 2894, "pitch": 85, "duration": 3, "velocity": 88}, {"time": 2942, "pitch": 73, "duration": 2, "velocity": 113}, {"time": 2948, "pitch": 73, "duration": 2, "velocity": 108}, {"time": 2954, "pitch": 73, "duration": 3, "velocity": 108}, {"time": 2960, "pitch": 77, "duration": 2, "velocity": 114}, {"time": 2966, "pitch": 80, "duration": 3, "velocity": 117}, {"time": 2972, "pitch": 77, "duration": 3, "velocity": 114}, {"time": 2978, "pitch": 73, "duration": 4, "velocity": 116}, {"time": 2990, "pitch": 75, "duration": 2, "velocity": 110}, {"time": 2996, "pitch": 75, "duration": 2, "velocity": 113}, {"time": 3002, "pitch": 75, "duration": 4, "velocity": 116}, {"time": 3008, "pitch": 77, "duration": 3, "velocity": 108}, {"time": 3014, "pitch": 75, "duration": 3, "velocity": 113}, {"time": 3020, "pitch": 72, "duration": 4, "velocity": 108}, {"time": 3026, "pitch": 68, "duration": 5, "velocity": 107}, {"time": 3038, "pitch": 73, "duration": 2, "velocity": 100}, {"time": 3044, "pitch": 73, "duration": 2, "velocity": 104}, {"time": 3050, "pitch": 73, "duration": 3, "velocity": 108}, {"time": 3056, "pitch": 77, "duration": 2, "velocity": 104}, {"time": 3062, "pitch": 80, "duration": 3, "velocity": 110}, {"time": 3068, "pitch": 77, "duration": 3, "velocity": 108}, {"time": 3074, "pitch": 73, "duration": 4, "velocity": 110}, {"time": 3086, "pitch": 77, "duration": 5, "velocity": 114}, {"time": 3092, "pitch": 73, "duration": 4, "velocity": 104}, {"time": 3098, "pitch": 75, "duration": 5, "velocity": 114}, {"time": 3104, "pitch": 68, "duration": 5, "velocity": 113}, {"time": 3110, "pitch": 73, "duration": 6, "velocity": 104}]}, {"program": 0, "is_drum": false, "name": "PIANO", "notes": [{"time": 62, "pitch": 49, "duration": 40, "velocity": 85}, {"time": 62, "pitch": 61, "duration": 41, "velocity": 86}, {"time": 62, "pitch": 65, "duration": 40, "velocity": 91}, {"time": 62, "pitch": 68, "duration": 40, "velocity": 89}, {"time": 110, "pitch": 44, "duration": 38, "velocity": 82}, {"time": 110, "pitch": 56, "duration": 37, "velocity": 83}, {"time": 110, "pitch": 60, "duration": 37, "velocity": 85}, {"time": 110, "pitch": 63, "duration": 40, "velocity": 87}, {"time": 110, "pitch": 68, "duration": 37, "velocity": 89}, {"time": 158, "pitch": 42, "duration": 39, "velocity": 78}, {"time": 158, "pitch": 54, "duration": 39, "velocity": 75}, {"time": 158, "pitch": 58, "duration": 38, "velocity": 83}, {"time": 158, "pitch": 61, "duration": 38, "velocity": 86}, {"time": 158, "pitch": 66, "duration": 37, "velocity": 88}, {"time": 206, "pitch": 49, "duration": 37, "velocity": 84}, {"time": 206, "pitch": 61, "duration": 39, "velocity": 85}, {"time": 206, "pitch": 65, "duration": 38, "velocity": 84}, {"time": 206, "pitch": 68, "duration": 38, "velocity": 86}, {"time": 254, "pitch": 49, "duration": 20, "velocity": 87}, {"time": 260, "pitch": 56, "duration": 8, "velocity": 72}, {"time": 266, "pitch": 61, "duration": 18, "velocity": 94}, {"time": 266, "pitch": 68, "duration": 17, "velocity": 93}, {"time": 272, "pitch": 56, "duration": 6, "velocity": 75}, {"time": 278, "pitch": 49, "duration": 14, "velocity": 83}, {"time": 284, "pitch": 56, "duration": 9, "velocity": 81}, {"time": 290, "pitch": 61, "duration": 18, "velocity": 94}, {"time": 290, "pitch": 68, "duration": 15, "velocity": 93}, {"time": 296, "pitch": 49, "duration": 2, "velocity": 78}, {"time": 302, "pitch": 44, "duration": 18, "velocity": 83}, {"time": 308, "pitch": 51, "duration": 12, "velocity": 78}, {"time": 314, "pitch": 60, "duration": 17, "velocity": 91}, {"time": 314, "pitch": 68, "duration": 17, "velocity": 89}, {"time": 320, "pitch": 56, "duration": 5, "velocity": 86}, {"time": 326, "pitch": 44, "duration": 17, "velocity": 89}, {"time": 332, "pitch": 51, "duration": 12, "velocity": 83}, {"time": 338, "pitch": 56, "duration": 13, "velocity": 88}, {"time": 344, "pitch": 60, "duration": 7, "velocity": 92}, {"time": 344, "pitch": 68, "duration": 7, "velocity": 88}, {"time": 350, "pitch": 49, "duration": 20, "velocity": 81}, {"time": 356, "pitch": 56, "duration": 7, "velocity": 82}, {"time": 362, "pitch": 61, "duration": 19, "velocity": 102}, {"time": 362, "pitch": 65, "duration": 18, "velocity": 107}, {"time": 362, "pitch": 68, "duration": 18, "velocity": 98}, {"time": 368, "pitch": 56, "duration": 6, "velocity": 83}, {"time": 374, "pitch": 49, "duration": 14, "velocity": 89}, {"time": 380, "pitch": 56, "duration": 8, "velocity": 84}, {"time": 386, "pitch": 61, "duration": 14, "velocity": 104}, {"time": 386, "pitch": 65, "duration": 13, "velocity": 108}, {"time": 386, "pitch": 68, "duration": 14, "velocity": 102}, {"time": 392, "pitch": 49, "duration": 2, "velocity": 87}, {"time": 398, "pitch": 44, "duration": 17, "velocity": 92}, {"time": 404, "pitch": 51, "duration": 12, "velocity": 82}, {"time": 410, "pitch": 60, "duration": 8, "velocity": 98}, {"time": 410, "pitch": 63, "duration": 8, "velocity": 108}, {"time": 410, "pitch": 68, "duration": 8, "velocity": 96}, {"time": 416, "pitch": 56, "duration": 6, "velocity": 81}, {"time": 422, "pitch": 49, "duration": 12, "velocity": 88}, {"time": 422, "pitch": 61, "duration": 12, "velocity": 89}, {"time": 422, "pitch": 65, "duration": 12, "velocity": 90}, {"time": 422, "pitch": 68, "duration": 13, "velocity": 87}, {"time": 446, "pitch": 49, "duration": 21, "velocity": 88}, {"time": 452, "pitch": 56, "duration": 13, "velocity": 80}, {"time": 458, "pitch": 61, "duration": 12, "velocity": 98}, {"time": 464, "pitch": 65, "duration": 6, "velocity": 98}, {"time": 470, "pitch": 49, "duration": 17, "velocity": 90}, {"time": 476, "pitch": 56, "duration": 10, "velocity": 82}, {"time": 482, "pitch": 61, "duration": 7, "velocity": 102}, {"time": 488, "pitch": 65, "duration": 9, "velocity": 110}, {"time": 494, "pitch": 42, "duration": 17, "velocity": 88}, {"time": 500, "pitch": 54, "duration": 18, "velocity": 88}, {"time": 506, "pitch": 58, "duration": 7, "velocity": 100}, {"time": 512, "pitch": 61, "duration": 7, "velocity": 98}, {"time": 518, "pitch": 49, "duration": 19, "velocity": 89}, {"time": 524, "pitch": 56, "duration": 13, "velocity": 87}, {"time": 530, "pitch": 61, "duration": 10, "velocity": 100}, {"time": 536, "pitch": 65, "duration": 6, "velocity": 108}, {"time": 542, "pitch": 51, "duration": 18, "velocity": 107}, {"time": 548, "pitch": 58, "duration": 12, "velocity": 86}, {"time": 554, "pitch": 63, "duration": 12, "velocity": 104}, {"time": 560, "pitch": 66, "duration": 6, "velocity": 110}, {"time": 566, "pitch": 49, "duration": 17, "velocity": 93}, {"time": 572, "pitch": 56, "duration": 11, "velocity": 87}, {"time": 578, "pitch": 61, "duration": 7, "velocity": 102}, {"time": 584, "pitch": 65, "duration": 6, "velocity": 110}, {"time": 590, "pitch": 44, "duration": 18, "velocity": 86}, {"time": 596, "pitch": 51, "duration": 17, "velocity": 85}, {"time": 602, "pitch": 56, "duration": 10, "velocity": 87}, {"time": 608, "pitch": 60, "duration": 19, "velocity": 86}, {"time": 614, "pitch": 44, "duration": 18, "velocity": 87}, {"time": 620, "pitch": 51, "duration": 12, "velocity": 84}, {"time": 626, "pitch": 56, "duration": 12, "velocity": 92}, {"time": 632, "pitch": 60, "duration": 6, "velocity": 84}, {"time": 638, "pitch": 49, "duration": 20, "velocity": 91}, {"time": 644, "pitch": 56, "duration": 14, "velocity": 86}, {"time": 650, "pitch": 61, "duration": 7, "velocity": 88}, {"time": 656, "pitch": 65, "duration": 11, "velocity": 93}, {"time": 662, "pitch": 49, "duration": 16, "velocity": 91}, {"time": 668, "pitch": 56, "duration": 9, "velocity": 88}, {"time": 674, "pitch": 61, "duration": 5, "velocity": 104}, {"time": 680, "pitch": 68, "duration": 12, "velocity": 102}, {"time": 686, "pitch": 42, "duration": 16, "velocity": 87}, {"time": 692, "pitch": 54, "duration": 18, "velocity": 91}, {"time": 698, "pitch": 58, "duration": 6, "velocity": 87}, {"time": 704, "pitch": 61, "duration": 7, "velocity": 89}, {"time": 710, "pitch": 49, "duration": 18, "velocity": 86}, {"time": 713, "pitch": 56, "duration": 19, "velocity": 87}, {"time": 722, "pitch": 61, "duration": 7, "velocity": 91}, {"time": 728, "pitch": 68, "duration": 10, "velocity": 93}, {"time": 734, "pitch": 51, "duration": 19, "velocity": 89}, {"time": 737, "pitch": 58, "duration": 13, "velocity": 87}, {"time": 746, "pitch": 63, "duration": 7, "velocity": 94}, {"time": 752, "pitch": 66, "duration": 6, "velocity": 104}, {"time": 758, "pitch": 49, "duration": 17, "velocity": 89}, {"time": 764, "pitch": 56, "duration": 10, "velocity": 86}, {"time": 770, "pitch": 61, "duration": 13, "velocity": 88}, {"time": 776, "pitch": 65, "duration": 7, "velocity": 91}, {"time": 782, "pitch": 44, "duration": 18, "velocity": 89}, {"time": 788, "pitch": 51, "duration": 12, "velocity": 85}, {"time": 794, "pitch": 56, "duration": 12, "velocity": 92}, {"time": 800, "pitch": 60, "duration": 4, "velocity": 102}, {"time": 806, "pitch": 49, "duration": 20, "velocity": 88}, {"time": 812, "pitch": 56, "duration": 15, "velocity": 87}, {"time": 818, "pitch": 61, "duration": 8, "velocity": 98}, {"time": 830, "pitch": 54, "duration": 22, "velocity": 90}, {"time": 842, "pitch": 61, "duration": 21, "velocity": 90}, {"time": 842, "pitch": 66, "duration": 21, "velocity": 93}, {"time": 842, "pitch": 70, "duration": 20, "velocity": 89}, {"time": 854, "pitch": 54, "duration": 15, "velocity": 87}, {"time": 866, "pitch": 61, "duration": 13, "velocity": 96}, {"time": 866, "pitch": 66, "duration": 13, "velocity": 102}, {"time": 866, "pitch": 70, "duration": 12, "velocity": 98}, {"time": 872, "pitch": 54, "duration": 6, "velocity": 89}, {"time": 878, "pitch": 49, "duration": 20, "velocity": 86}, {"time": 890, "pitch": 61, "duration": 21, "velocity": 92}, {"time": 890, "pitch": 65, "duration": 22, "velocity": 104}, {"time": 890, "pitch": 68, "duration": 20, "velocity": 98}, {"time": 902, "pitch": 49, "duration": 14, "velocity": 87}, {"time": 914, "pitch": 61, "duration": 12, "velocity": 100}, {"time": 914, "pitch": 65, "duration": 12, "velocity": 102}, {"time": 914, "pitch": 68, "duration": 12, "velocity": 94}, {"time": 920, "pitch": 49, "duration": 5, "velocity": 88}, {"time": 926, "pitch": 54, "duration": 15, "velocity": 88}, {"time": 932, "pitch": 61, "duration": 2, "velocity": 77}, {"time": 938, "pitch": 61, "duration": 12, "velocity": 96}, {"time": 938, "pitch": 66, "duration": 13, "velocity": 89}, {"time": 938, "pitch": 70, "duration": 13, "velocity": 94}, {"time": 944, "pitch": 54, "duration": 3, "velocity": 81}, {"time": 950, "pitch": 54, "duration": 13, "velocity": 84}, {"time": 962, "pitch": 61, "duration": 13, "velocity": 102}, {"time": 962, "pitch": 66, "duration": 13, "velocity": 108}, {"time": 962, "pitch": 70, "duration": 12, "velocity": 94}, {"time": 968, "pitch": 54, "duration": 2, "velocity": 86}, {"time": 974, "pitch": 44, "duration": 18, "velocity": 96}, {"time": 980, "pitch": 51, "duration": 14, "velocity": 84}, {"time": 986, "pitch": 58, "duration": 5, "velocity": 89}, {"time": 986, "pitch": 61, "duration": 6, "velocity": 100}, {"time": 986, "pitch": 66, "duration": 6, "velocity": 91}, {"time": 992, "pitch": 56, "duration": 3, "velocity": 87}, {"time": 998, "pitch": 49, "duration": 19, "velocity": 87}, {"time": 998, "pitch": 61, "duration": 22, "velocity": 86}, {"time": 998, "pitch": 65, "duration": 22, "velocity": 93}, {"time": 998, "pitch": 68, "duration": 22, "velocity": 91}, {"time": 1022, "pitch": 49, "duration": 21, "velocity": 88}, {"time": 1028, "pitch": 56, "duration": 13, "velocity": 80}, {"time": 1034, "pitch": 61, "duration": 12, "velocity": 98}, {"time": 1040, "pitch": 65, "duration": 6, "velocity": 98}, {"time": 1046, "pitch": 49, "duration": 17, "velocity": 90}, {"time": 1052, "pitch": 56, "duration": 10, "velocity": 82}, {"time": 1058, "pitch": 61, "duration": 7, "velocity": 102}, {"time": 1064, "pitch": 65, "duration": 9, "velocity": 110}, {"time": 1070, "pitch": 42, "duration": 17, "velocity": 88}, {"time": 1076, "pitch": 54, "duration": 18, "velocity": 88}, {"time": 1082, "pitch": 58, "duration": 7, "velocity": 100}, {"time": 1088, "pitch": 61, "duration": 7, "velocity": 98}, {"time": 1094, "pitch": 49, "duration": 19, "velocity": 89}, {"time": 1100, "pitch": 56, "duration": 13, "velocity": 87}, {"time": 1106, "pitch": 61, "duration": 10, "velocity": 100}, {"time": 1112, "pitch": 65, "duration": 6, "velocity": 108}, {"time": 1118, "pitch": 51, "duration": 18, "velocity": 107}, {"time": 1124, "pitch": 58, "duration": 12, "velocity": 86}, {"time": 1130, "pitch": 63, "duration": 12, "velocity": 104}, {"time": 1136, "pitch": 66, "duration": 6, "velocity": 110}, {"time": 1142, "pitch": 49, "duration": 17, "velocity": 93}, {"time": 1148, "pitch": 56, "duration": 11, "velocity": 87}, {"time": 1154, "pitch": 61, "duration": 7, "velocity": 102}, {"time": 1160, "pitch": 65, "duration": 6, "velocity": 110}, {"time": 1166, "pitch": 44, "duration": 18, "velocity": 86}, {"time": 1172, "pitch": 51, "duration": 17, "velocity": 85}, {"time": 1178, "pitch": 56, "duration": 10, "velocity": 87}, {"time": 1184, "pitch": 60, "duration": 19, "velocity": 86}, {"time": 1190, "pitch": 44, "duration": 18, "velocity": 87}, {"time": 1196, "pitch": 51, "duration": 12, "velocity": 84}, {"time": 1202, "pitch": 56, "duration": 12, "velocity": 92}, {"time": 1208, "pitch": 60, "duration": 6, "velocity": 84}, {"time": 1214, "pitch": 49, "duration": 20, "velocity": 91}, {"time": 1220, "pitch": 56, "duration": 14, "velocity": 86}, {"time": 1226, "pitch": 61, "duration": 7, "velocity": 88}, {"time": 1232, "pitch": 65, "duration": 11, "velocity": 93}, {"time": 1238, "pitch": 49, "duration": 16, "velocity": 91}, {"time": 1244, "pitch": 56, "duration": 9, "velocity": 88}, {"time": 1250, "pitch": 61, "duration": 5, "velocity": 104}, {"time": 1256, "pitch": 68, "duration": 12, "velocity": 102}, {"time": 1262, "pitch": 42, "duration": 16, "velocity": 87}, {"time": 1268, "pitch": 54, "duration": 18, "velocity": 91}, {"time": 1274, "pitch": 58, "duration": 6, "velocity": 87}, {"time": 1280, "pitch": 61, "duration": 7, "velocity": 89}, {"time": 1286, "pitch": 49, "duration": 18, "velocity": 86}, {"time": 1289, "pitch": 56, "duration": 19, "velocity": 87}, {"time": 1298, "pitch": 61, "duration": 7, "velocity": 91}, {"time": 1304, "pitch": 68, "duration": 10, "velocity": 93}, {"time": 1310, "pitch": 51, "duration": 19, "velocity": 89}, {"time": 1313, "pitch": 58, "duration": 13, "velocity": 87}, {"time": 1322, "pitch": 63, "duration": 7, "velocity": 94}, {"time": 1328, "pitch": 66, "duration": 6, "velocity": 104}, {"time": 1334, "pitch": 49, "duration": 17, "velocity": 89}, {"time": 1340, "pitch": 56, "duration": 10, "velocity": 86}, {"time": 1346, "pitch": 61, "duration": 13, "velocity": 88}, {"time": 1352, "pitch": 65, "duration": 7, "velocity": 91}, {"time": 1358, "pitch": 44, "duration": 18, "velocity": 89}, {"time": 1364, "pitch": 51, "duration": 12, "velocity": 85}, {"time": 1370, "pitch": 56, "duration": 12, "velocity": 92}, {"time": 1376, "pitch": 60, "duration": 4, "velocity": 102}, {"time": 1382, "pitch": 49, "duration": 20, "velocity": 88}, {"time": 1388, "pitch": 56, "duration": 15, "velocity": 87}, {"time": 1394, "pitch": 61, "duration": 8, "velocity": 98}, {"time": 1406, "pitch": 49, "duration": 40, "velocity": 85}, {"time": 1406, "pitch": 61, "duration": 41, "velocity": 86}, {"time": 1406, "pitch": 65, "duration": 40, "velocity": 91}, {"time": 1406, "pitch": 68, "duration": 40, "velocity": 89}, {"time": 1454, "pitch": 44, "duration": 38, "velocity": 82}, {"time": 1454, "pitch": 56, "duration": 37, "velocity": 83}, {"time": 1454, "pitch": 60, "duration": 37, "velocity": 85}, {"time": 1454, "pitch": 63, "duration": 40, "velocity": 87}, {"time": 1454, "pitch": 68, "duration": 37, "velocity": 89}, {"time": 1502, "pitch": 42, "duration": 39, "velocity": 78}, {"time": 1502, "pitch": 54, "duration": 39, "velocity": 75}, {"time": 1502, "pitch": 58, "duration": 38, "velocity": 83}, {"time": 1502, "pitch": 61, "duration": 38, "velocity": 86}, {"time": 1502, "pitch": 66, "duration": 37, "velocity": 88}, {"time": 1550, "pitch": 49, "duration": 37, "velocity": 84}, {"time": 1550, "pitch": 61, "duration": 39, "velocity": 85}, {"time": 1550, "pitch": 65, "duration": 38, "velocity": 84}, {"time": 1550, "pitch": 68, "duration": 38, "velocity": 86}, {"time": 1598, "pitch": 49, "duration": 20, "velocity": 87}, {"time": 1604, "pitch": 56, "duration": 8, "velocity": 72}, {"time": 1610, "pitch": 61, "duration": 18, "velocity": 94}, {"time": 1610, "pitch": 68, "duration": 17, "velocity": 93}, {"time": 1616, "pitch": 56, "duration": 6, "velocity": 75}, {"time": 1622, "pitch": 49, "duration": 14, "velocity": 83}, {"time": 1628, "pitch": 56, "duration": 9, "velocity": 81}, {"time": 1634, "pitch": 61, "duration": 18, "velocity": 94}, {"time": 1634, "pitch": 68, "duration": 15, "velocity": 93}, {"time": 1640, "pitch": 49, "duration": 2, "velocity": 78}, {"time": 1646, "pitch": 44, "duration": 18, "velocity": 83}, {"time": 1652, "pitch": 51, "duration": 12, "velocity": 78}, {"time": 1658, "pitch": 60, "duration": 17, "velocity": 91}, {"time": 1658, "pitch": 68, "duration": 17, "velocity": 89}, {"time": 1664, "pitch": 56, "duration": 5, "velocity": 86}, {"time": 1670, "pitch": 44, "duration": 17, "velocity": 89}, {"time": 1676, "pitch": 51, "duration": 12, "velocity": 83}, {"time": 1682, "pitch": 56, "duration": 13, "velocity": 88}, {"time": 1688, "pitch": 60, "duration": 7, "velocity": 92}, {"time": 1688, "pitch": 68, "duration": 7, "velocity": 88}, {"time": 1694, "pitch": 49, "duration": 20, "velocity": 81}, {"time": 1700, "pitch": 56, "duration": 7, "velocity": 82}, {"time": 1706, "pitch": 61, "duration": 19, "velocity": 102}, {"time": 1706, "pitch": 65, "duration": 18, "velocity": 107}, {"time": 1706, "pitch": 68, "duration": 18, "velocity": 98}, {"time": 1712, "pitch": 56, "duration": 6, "velocity": 83}, {"time": 1718, "pitch": 49, "duration": 14, "velocity": 89}, {"time": 1724, "pitch": 56, "duration": 8, "velocity": 84}, {"time": 1730, "pitch": 61, "duration": 14, "velocity": 104}, {"time": 1730, "pitch": 65, "duration": 13, "velocity": 108}, {"time": 1730, "pitch": 68, "duration": 14, "velocity": 102}, {"time": 1736, "pitch": 49, "duration": 2, "velocity": 87}, {"time": 1742, "pitch": 44, "duration": 17, "velocity": 92}, {"time": 1748, "pitch": 51, "duration": 12, "velocity": 82}, {"time": 1754, "pitch": 60, "duration": 8, "velocity": 98}, {"time": 1754, "pitch": 63, "duration": 8, "velocity": 108}, {"time": 1754, "pitch": 68, "duration": 8, "velocity": 96}, {"time": 1760, "pitch": 56, "duration": 6, "velocity": 81}, {"time": 1766, "pitch": 49, "duration": 12, "velocity": 88}, {"time": 1766, "pitch": 61, "duration": 12, "velocity": 89}, {"time": 1766, "pitch": 65, "duration": 12, "velocity": 90}, {"time": 1766, "pitch": 68, "duration": 13, "velocity": 87}, {"time": 1790, "pitch": 49, "duration": 21, "velocity": 88}, {"time": 1796, "pitch": 56, "duration": 13, "velocity": 80}, {"time": 1802, "pitch": 61, "duration": 12, "velocity": 98}, {"time": 1808, "pitch": 65, "duration": 6, "velocity": 98}, {"time": 1814, "pitch": 49, "duration": 17, "velocity": 90}, {"time": 1820, "pitch": 56, "duration": 10, "velocity": 82}, {"time": 1826, "pitch": 61, "duration": 7, "velocity": 102}, {"time": 1832, "pitch": 65, "duration": 9, "velocity": 110}, {"time": 1838, "pitch": 42, "duration": 17, "velocity": 88}, {"time": 1844, "pitch": 54, "duration": 18, "velocity": 88}, {"time": 1850, "pitch": 58, "duration": 7, "velocity": 100}, {"time": 1856, "pitch": 61, "duration": 7, "velocity": 98}, {"time": 1862, "pitch": 49, "duration": 19, "velocity": 89}, {"time": 1868, "pitch": 56, "duration": 13, "velocity": 87}, {"time": 1874, "pitch": 61, "duration": 10, "velocity": 100}, {"time": 1880, "pitch": 65, "duration": 6, "velocity": 108}, {"time": 1886, "pitch": 51, "duration": 18, "velocity": 107}, {"time": 1892, "pitch": 58, "duration": 12, "velocity": 86}, {"time": 1898, "pitch": 63, "duration": 12, "velocity": 104}, {"time": 1904, "pitch": 66, "duration": 6, "velocity": 110}, {"time": 1910, "pitch": 49, "duration": 17, "velocity": 93}, {"time": 1916, "pitch": 56, "duration": 11, "velocity": 87}, {"time": 1922, "pitch": 61, "duration": 7, "velocity": 102}, {"time": 1928, "pitch": 65, "duration": 6, "velocity": 110}, {"time": 1934, "pitch": 44, "duration": 18, "velocity": 86}, {"time": 1940, "pitch": 51, "duration": 17, "velocity": 85}, {"time": 1946, "pitch": 56, "duration": 10, "velocity": 87}, {"time": 1952, "pitch": 60, "duration": 19, "velocity": 86}, {"time": 1958, "pitch": 44, "duration": 18, "velocity": 87}, {"time": 1964, "pitch": 51, "duration": 12, "velocity": 84}, {"time": 1970, "pitch": 56, "duration": 12, "velocity": 92}, {"time": 1976, "pitch": 60, "duration": 6, "velocity": 84}, {"time": 1982, "pitch": 49, "duration": 20, "velocity": 91}, {"time": 1988, "pitch": 56, "duration": 14, "velocity": 86}, {"time": 1994, "pitch": 61, "duration": 7, "velocity": 88}, {"time": 2000, "pitch": 65, "duration": 11, "velocity": 93}, {"time": 2006, "pitch": 49, "duration": 16, "velocity": 91}, {"time": 2012, "pitch": 56, "duration": 9, "velocity": 88}, {"time": 2018, "pitch": 61, "duration": 5, "velocity": 104}, {"time": 2024, "pitch": 68, "duration": 12, "velocity": 102}, {"time": 2030, "pitch": 42, "duration": 16, "velocity": 87}, {"time": 2036, "pitch": 54, "duration": 18, "velocity": 91}, {"time": 2042, "pitch": 58, "duration": 6, "velocity": 87}, {"time": 2048, "pitch": 61, "duration": 7, "velocity": 89}, {"time": 2054, "pitch": 49, "duration": 18, "velocity": 86}, {"time": 2057, "pitch": 56, "duration": 19, "velocity": 87}, {"time": 2066, "pitch": 61, "duration": 7, "velocity": 91}, {"time": 2072, "pitch": 68, "duration": 10, "velocity": 93}, {"time": 2078, "pitch": 51, "duration": 19, "velocity": 89}, {"time": 2081, "pitch": 58, "duration": 13, "velocity": 87}, {"time": 2090, "pitch": 63, "duration": 7, "velocity": 94}, {"time": 2096, "pitch": 66, "duration": 6, "velocity": 104}, {"time": 2102, "pitch": 49, "duration": 17, "velocity": 89}, {"time": 2108, "pitch": 56, "duration": 10, "velocity": 86}, {"time": 2114, "pitch": 61, "duration": 13, "velocity": 88}, {"time": 2120, "pitch": 65, "duration": 7, "velocity": 91}, {"time": 2126, "pitch": 44, "duration": 18, "velocity": 89}, {"time": 2132, "pitch": 51, "duration": 12, "velocity": 85}, {"time": 2138, "pitch": 56, "duration": 12, "velocity": 92}, {"time": 2144, "pitch": 60, "duration": 4, "velocity": 102}, {"time": 2150, "pitch": 49, "duration": 20, "velocity": 88}, {"time": 2156, "pitch": 56, "duration": 15, "velocity": 87}, {"time": 2162, "pitch": 61, "duration": 8, "velocity": 98}, {"time": 2174, "pitch": 54, "duration": 22, "velocity": 90}, {"time": 2186, "pitch": 61, "duration": 21, "velocity": 90}, {"time": 2186, "pitch": 66, "duration": 21, "velocity": 93}, {"time": 2186, "pitch": 70, "duration": 20, "velocity": 89}, {"time": 2198, "pitch": 54, "duration": 15, "velocity": 87}, {"time": 2210, "pitch": 61, "duration": 13, "velocity": 96}, {"time": 2210, "pitch": 66, "duration": 13, "velocity": 102}, {"time": 2210, "pitch": 70, "duration": 12, "velocity": 98}, {"time": 2216, "pitch": 54, "duration": 6, "velocity": 89}, {"time": 2222, "pitch": 49, "duration": 20, "velocity": 86}, {"time": 2234, "pitch": 61, "duration": 21, "velocity": 92}, {"time": 2234, "pitch": 65, "duration": 22, "velocity": 104}, {"time": 2234, "pitch": 68, "duration": 20, "velocity": 98}, {"time": 2246, "pitch": 49, "duration": 14, "velocity": 87}, {"time": 2258, "pitch": 61, "duration": 12, "velocity": 100}, {"time": 2258, "pitch": 65, "duration": 12, "velocity": 102}, {"time": 2258, "pitch": 68, "duration": 12, "velocity": 94}, {"time": 2264, "pitch": 49, "duration": 5, "velocity": 88}, {"time": 2270, "pitch": 54, "duration": 15, "velocity": 88}, {"time": 2276, "pitch": 61, "duration": 2, "velocity": 77}, {"time": 2282, "pitch": 61, "duration": 12, "velocity": 96}, {"time": 2282, "pitch": 66, "duration": 13, "velocity": 89}, {"time": 2282, "pitch": 70, "duration": 13, "velocity": 94}, {"time": 2288, "pitch": 54, "duration": 3, "velocity": 81}, {"time": 2294, "pitch": 54, "duration": 13, "velocity": 84}, {"time": 2306, "pitch": 61, "duration": 13, "velocity": 102}, {"time": 2306, "pitch": 66, "duration": 13, "velocity": 108}, {"time": 2306, "pitch": 70, "duration": 12, "velocity": 94}, {"time": 2312, "pitch": 54, "duration": 2, "velocity": 86}, {"time": 2318, "pitch": 44, "duration": 18, "velocity": 96}, {"time": 2324, "pitch": 51, "duration": 14, "velocity": 84}, {"time": 2330, "pitch": 58, "duration": 5, "velocity": 89}, {"time": 2330, "pitch": 61, "duration": 6, "velocity": 100}, {"time": 2330, "pitch": 66, "duration": 6, "velocity": 91}, {"time": 2336, "pitch": 56, "duration": 3, "velocity": 87}, {"time": 2342, "pitch": 49, "duration": 19, "velocity": 87}, {"time": 2342, "pitch": 61, "duration": 22, "velocity": 86}, {"time": 2342, "pitch": 65, "duration": 22, "velocity": 93}, {"time": 2342, "pitch": 68, "duration": 22, "velocity": 91}, {"time": 2366, "pitch": 49, "duration": 21, "velocity": 88}, {"time": 2372, "pitch": 56, "duration": 13, "velocity": 80}, {"time": 2378, "pitch": 61, "duration": 12, "velocity": 98}, {"time": 2384, "pitch": 65, "duration": 6, "velocity": 98}, {"time": 2390, "pitch": 49, "duration": 17, "velocity": 90}, {"time": 2396, "pitch": 56, "duration": 10, "velocity": 82}, {"time": 2402, "pitch": 61, "duration": 7, "velocity": 102}, {"time": 2408, "pitch": 65, "duration": 9, "velocity": 110}, {"time": 2414, "pitch": 42, "duration": 17, "velocity": 88}, {"time": 2420, "pitch": 54, "duration": 18, "velocity": 88}, {"time": 2426, "pitch": 58, "duration": 7, "velocity": 100}, {"time": 2432, "pitch": 61, "duration": 7, "velocity": 98}, {"time": 2438, "pitch": 49, "duration": 19, "velocity": 89}, {"time": 2444, "pitch": 56, "duration": 13, "velocity": 87}, {"time": 2450, "pitch": 61, "duration": 10, "velocity": 100}, {"time": 2456, "pitch": 65, "duration": 6, "velocity": 108}, {"time": 2462, "pitch": 51, "duration": 18, "velocity": 107}, {"time": 2468, "pitch": 58, "duration": 12, "velocity": 86}, {"time": 2474, "pitch": 63, "duration": 12, "velocity": 104}, {"time": 2480, "pitch": 66, "duration": 6, "velocity": 110}, {"time": 2486, "pitch": 49, "duration": 17, "velocity": 93}, {"time": 2492, "pitch": 56, "duration": 11, "velocity": 87}, {"time": 2498, "pitch": 61, "duration": 7, "velocity": 102}, {"time": 2504, "pitch": 65, "duration": 6, "velocity": 110}, {"time": 2510, "pitch": 44, "duration": 18, "velocity": 86}, {"time": 2516, "pitch": 51, "duration": 17, "velocity": 85}, {"time": 2522, "pitch": 56, "duration": 10, "velocity": 87}, {"time": 2528, "pitch": 60, "duration": 19, "velocity": 86}, {"time": 2534, "pitch": 44, "duration": 18, "velocity": 87}, {"time": 2540, "pitch": 51, "duration": 12, "velocity": 84}, {"time": 2546, "pitch": 56, "duration": 12, "velocity": 92}, {"time": 2552, "pitch": 60, "duration": 6, "velocity": 84}, {"time": 2558, "pitch": 49, "duration": 20, "velocity": 91}, {"time": 2564, "pitch": 56, "duration": 14, "velocity": 86}, {"time": 2570, "pitch": 61, "duration": 7, "velocity": 88}, {"time": 2576, "pitch": 65, "duration": 11, "velocity": 93}, {"time": 2582, "pitch": 49, "duration": 16, "velocity": 91}, {"time": 2588, "pitch": 56, "duration": 9, "velocity": 88}, {"time": 2594, "pitch": 61, "duration": 5, "velocity": 104}, {"time": 2600, "pitch": 68, "duration": 12, "velocity": 102}, {"time": 2606, "pitch": 42, "duration": 16, "velocity": 87}, {"time": 2612, "pitch": 54, "duration": 18, "velocity": 91}, {"time": 2618, "pitch": 58, "duration": 6, "velocity": 87}, {"time": 2624, "pitch": 61, "duration": 7, "velocity": 89}, {"time": 2630, "pitch": 49, "duration": 18, "velocity": 86}, {"time": 2633, "pitch": 56, "duration": 19, "velocity": 87}, {"time": 2642, "pitch": 61, "duration": 7, "velocity": 91}, {"time": 2648, "pitch": 68, "duration": 10, "velocity": 93}, {"time": 2654, "pitch": 51, "duration": 19, "velocity": 89}, {"time": 2657, "pitch": 58, "duration": 13, "velocity": 87}, {"time": 2666, "pitch": 63, "duration": 7, "velocity": 94}, {"time": 2672, "pitch": 66, "duration": 6, "velocity": 104}, {"time": 2678, "pitch": 49, "duration": 17, "velocity": 89}, {"time": 2684, "pitch": 56, "duration": 10, "velocity": 86}, {"time": 2690, "pitch": 61, "duration": 13, "velocity": 88}, {"time": 2696, "pitch": 65, "duration": 7, "velocity": 91}, {"time": 2702, "pitch": 44, "duration": 18, "velocity": 89}, {"time": 2708, "pitch": 51, "duration": 12, "velocity": 85}, {"time": 2714, "pitch": 56, "duration": 12, "velocity": 92}, {"time": 2720, "pitch": 60, "duration": 4, "velocity": 102}, {"time": 2726, "pitch": 49, "duration": 20, "velocity": 88}, {"time": 2732, "pitch": 56, "duration": 15, "velocity": 87}, {"time": 2738, "pitch": 61, "duration": 8, "velocity": 98}, {"time": 2750, "pitch": 49, "duration": 40, "velocity": 85}, {"time": 2750, "pitch": 61, "duration": 41, "velocity": 86}, {"time": 2750, "pitch": 65, "duration": 40, "velocity": 91}, {"time": 2750, "pitch": 68, "duration": 40, "velocity": 89}, {"time": 2798, "pitch": 44, "duration": 38, "velocity": 82}, {"time": 2798, "pitch": 56, "duration": 37, "velocity": 83}, {"time": 2798, "pitch": 60, "duration": 37, "velocity": 85}, {"time": 2798, "pitch": 63, "duration": 40, "velocity": 87}, {"time": 2798, "pitch": 68, "duration": 37, "velocity": 89}, {"time": 2846, "pitch": 42, "duration": 39, "velocity": 78}, {"time": 2846, "pitch": 54, "duration": 39, "velocity": 75}, {"time": 2846, "pitch": 58, "duration": 38, "velocity": 83}, {"time": 2846, "pitch": 61, "duration": 38, "velocity": 86}, {"time": 2846, "pitch": 66, "duration": 37, "velocity": 88}, {"time": 2894, "pitch": 49, "duration": 37, "velocity": 84}, {"time": 2894, "pitch": 61, "duration": 39, "velocity": 85}, {"time": 2894, "pitch": 65, "duration": 38, "velocity": 84}, {"time": 2894, "pitch": 68, "duration": 38, "velocity": 86}, {"time": 2942, "pitch": 49, "duration": 20, "velocity": 87}, {"time": 2948, "pitch": 56, "duration": 8, "velocity": 72}, {"time": 2954, "pitch": 61, "duration": 18, "velocity": 94}, {"time": 2954, "pitch": 68, "duration": 17, "velocity": 93}, {"time": 2960, "pitch": 56, "duration": 6, "velocity": 75}, {"time": 2966, "pitch": 49, "duration": 14, "velocity": 83}, {"time": 2972, "pitch": 56, "duration": 9, "velocity": 81}, {"time": 2978, "pitch": 61, "duration": 18, "velocity": 94}, {"time": 2978, "pitch": 68, "duration": 15, "velocity": 93}, {"time": 2984, "pitch": 49, "duration": 2, "velocity": 78}, {"time": 2990, "pitch": 44, "duration": 18, "velocity": 83}, {"time": 2996, "pitch": 51, "duration": 12, "velocity": 78}, {"time": 3002, "pitch": 60, "duration": 17, "velocity": 91}, {"time": 3002, "pitch": 68, "duration": 17, "velocity": 89}, {"time": 3008, "pitch": 56, "duration": 5, "velocity": 86}, {"time": 3014, "pitch": 44, "duration": 17, "velocity": 89}, {"time": 3020, "pitch": 51, "duration": 12, "velocity": 83}, {"time": 3026, "pitch": 56, "duration": 13, "velocity": 88}, {"time": 3032, "pitch": 60, "duration": 7, "velocity": 92}, {"time": 3032, "pitch": 68, "duration": 7, "velocity": 88}, {"time": 3038, "pitch": 49, "duration": 20, "velocity": 81}, {"time": 3044, "pitch": 56, "duration": 7, "velocity": 82}, {"time": 3050, "pitch": 61, "duration": 19, "velocity": 102}, {"time": 3050, "pitch": 65, "duration": 18, "velocity": 107}, {"time": 3050, "pitch": 68, "duration": 18, "velocity": 98}, {"time": 3056, "pitch": 56, "duration": 6, "velocity": 83}, {"time": 3062, "pitch": 49, "duration": 14, "velocity": 89}, {"time": 3068, "pitch": 56, "duration": 8, "velocity": 84}, {"time": 3074, "pitch": 61, "duration": 14, "velocity": 104}, {"time": 3074, "pitch": 65, "duration": 13, "velocity": 108}, {"time": 3074, "pitch": 68, "duration": 14, "velocity": 102}, {"time": 3080, "pitch": 49, "duration": 2, "velocity": 87}, {"time": 3086, "pitch": 44, "duration": 17, "velocity": 92}, {"time": 3092, "pitch": 51, "duration": 12, "velocity": 82}, {"time": 3098, "pitch": 60, "duration": 8, "velocity": 98}, {"time": 3098, "pitch": 63, "duration": 8, "velocity": 108}, {"time": 3098, "pitch": 68, "duration": 8, "velocity": 96}, {"time": 3104, "pitch": 56, "duration": 6, "velocity": 81}]}]}