{"metadata": {"schema_version": "0.2", "title": "None", "source_filename": "333.mid", "source_format": "midi"}, "resolution": 12, "tempos": [{"time": 0, "qpm": 80.50006641255479}, {"time": 193, "qpm": 80.0}, {"time": 235, "qpm": 80.25005918441865}, {"time": 803, "qpm": 80.50006641255479}, {"time": 902, "qpm": 80.25005918441865}, {"time": 1151, "qpm": 80.50006641255479}, {"time": 1426, "qpm": 80.0}, {"time": 1580, "qpm": 80.50006641255479}, {"time": 1707, "qpm": 80.25005918441865}, {"time": 1917, "qpm": 80.50006641255479}, {"time": 2122, "qpm": 80.25005918441865}, {"time": 2431, "qpm": 80.50006641255479}], "time_signatures": [{"time": 0, "numerator": 1, "denominator": 4}], "tracks": [{"program": 0, "is_drum": false, "name": "MELODY", "notes": [{"time": 185, "pitch": 62, "duration": 7, "velocity": 74}, {"time": 191, "pitch": 65, "duration": 7, "velocity": 77}, {"time": 197, "pitch": 70, "duration": 7, "velocity": 75}, {"time": 203, "pitch": 67, "duration": 7, "velocity": 75}, {"time": 209, "pitch": 65, "duration": 20, "velocity": 77}, {"time": 233, "pitch": 62, "duration": 7, "velocity": 75}, {"time": 239, "pitch": 65, "duration": 7, "velocity": 75}, {"time": 245, "pitch": 67, "duration": 7, "velocity": 75}, {"time": 251, "pitch": 70, "duration": 7, "velocity": 76}, {"time": 257, "pitch": 65, "duration": 21, "velocity": 75}, {"time": 281, "pitch": 70, "duration": 17, "velocity": 74}, {"time": 299, "pitch": 74, "duration": 5, "velocity": 75}, {"time": 305, "pitch": 72, "duration": 10, "velocity": 75}, {"time": 317, "pitch": 70, "duration": 11, "velocity": 74}, {"time": 329, "pitch": 72, "duration": 6, "velocity": 72}, {"time": 335, "pitch": 70, "duration": 6, "velocity": 75}, {"time": 341, "pitch": 67, "duration": 7, "velocity": 73}, {"time": 347, "pitch": 70, "duration": 6, "velocity": 76}, {"time": 353, "pitch": 65, "duration": 21, "velocity": 72}, {"time": 377, "pitch": 62, "duration": 16, "velocity": 76}, {"time": 395, "pitch": 65, "duration": 5, "velocity": 72}, {"time": 401, "pitch": 67, "duration": 12, "velocity": 70}, {"time": 413, "pitch": 65, "duration": 5, "velocity": 73}, {"time": 419, "pitch": 67, "duration": 5, "velocity": 74}, {"time": 425, "pitch": 70, "duration": 10, "velocity": 75}, {"time": 437, "pitch": 72, "duration": 6, "velocity": 68}, {"time": 443, "pitch": 65, "duration": 5, "velocity": 76}, {"time": 449, "pitch": 67, "duration": 19, "velocity": 69}, {"time": 473, "pitch": 62, "duration": 6, "velocity": 76}, {"time": 479, "pitch": 60, "duration": 7, "velocity": 70}, {"time": 485, "pitch": 58, "duration": 13, "velocity": 72}, {"time": 497, "pitch": 60, "duration": 21, "velocity": 70}, {"time": 521, "pitch": 60, "duration": 11, "velocity": 75}, {"time": 533, "pitch": 60, "duration": 6, "velocity": 73}, {"time": 539, "pitch": 62, "duration": 5, "velocity": 70}, {"time": 545, "pitch": 65, "duration": 11, "velocity": 74}, {"time": 557, "pitch": 65, "duration": 9, "velocity": 70}, {"time": 569, "pitch": 70, "duration": 10, "velocity": 76}, {"time": 581, "pitch": 60, "duration": 6, "velocity": 73}, {"time": 587, "pitch": 62, "duration": 5, "velocity": 69}, {"time": 593, "pitch": 65, "duration": 21, "velocity": 72}, {"time": 617, "pitch": 62, "duration": 7, "velocity": 74}, {"time": 623, "pitch": 65, "duration": 7, "velocity": 77}, {"time": 629, "pitch": 70, "duration": 7, "velocity": 75}, {"time": 635, "pitch": 67, "duration": 7, "velocity": 75}, {"time": 641, "pitch": 65, "duration": 20, "velocity": 77}, {"time": 665, "pitch": 62, "duration": 7, "velocity": 75}, {"time": 671, "pitch": 65, "duration": 7, "velocity": 75}, {"time": 677, "pitch": 67, "duration": 7, "velocity": 75}, {"time": 683, "pitch": 70, "duration": 7, "velocity": 76}, {"time": 689, "pitch": 65, "duration": 21, "velocity": 75}, {"time": 713, "pitch": 70, "duration": 17, "velocity": 74}, {"time": 731, "pitch": 74, "duration": 5, "velocity": 75}, {"time": 737, "pitch": 72, "duration": 10, "velocity": 75}, {"time": 749, "pitch": 70, "duration": 11, "velocity": 74}, {"time": 761, "pitch": 72, "duration": 6, "velocity": 72}, {"time": 767, "pitch": 70, "duration": 6, "velocity": 75}, {"time": 773, "pitch": 67, "duration": 7, "velocity": 73}, {"time": 779, "pitch": 70, "duration": 6, "velocity": 76}, {"time": 785, "pitch": 65, "duration": 21, "velocity": 72}, {"time": 809, "pitch": 62, "duration": 16, "velocity": 76}, {"time": 827, "pitch": 65, "duration": 5, "velocity": 72}, {"time": 833, "pitch": 67, "duration": 12, "velocity": 70}, {"time": 845, "pitch": 65, "duration": 5, "velocity": 73}, {"time": 851, "pitch": 67, "duration": 5, "velocity": 74}, {"time": 857, "pitch": 70, "duration": 10, "velocity": 75}, {"time": 869, "pitch": 72, "duration": 6, "velocity": 68}, {"time": 875, "pitch": 65, "duration": 5, "velocity": 76}, {"time": 881, "pitch": 67, "duration": 19, "velocity": 69}, {"time": 905, "pitch": 62, "duration": 17, "velocity": 76}, {"time": 923, "pitch": 70, "duration": 5, "velocity": 75}, {"time": 929, "pitch": 67, "duration": 10, "velocity": 74}, {"time": 941, "pitch": 65, "duration": 11, "velocity": 72}, {"time": 953, "pitch": 62, "duration": 7, "velocity": 74}, {"time": 959, "pitch": 60, "duration": 7, "velocity": 74}, {"time": 965, "pitch": 58, "duration": 7, "velocity": 68}, {"time": 971, "pitch": 62, "duration": 7, "velocity": 63}, {"time": 977, "pitch": 60, "duration": 21, "velocity": 73}, {"time": 1001, "pitch": 60, "duration": 16, "velocity": 75}, {"time": 1019, "pitch": 62, "duration": 6, "velocity": 74}, {"time": 1025, "pitch": 65, "duration": 12, "velocity": 76}, {"time": 1037, "pitch": 67, "duration": 11, "velocity": 67}, {"time": 1049, "pitch": 70, "duration": 13, "velocity": 74}, {"time": 1061, "pitch": 72, "duration": 6, "velocity": 74}, {"time": 1067, "pitch": 74, "duration": 7, "velocity": 74}, {"time": 1073, "pitch": 72, "duration": 11, "velocity": 76}, {"time": 1085, "pitch": 70, "duration": 11, "velocity": 75}, {"time": 1097, "pitch": 72, "duration": 5, "velocity": 74}, {"time": 1103, "pitch": 70, "duration": 5, "velocity": 74}, {"time": 1109, "pitch": 65, "duration": 6, "velocity": 75}, {"time": 1115, "pitch": 67, "duration": 6, "velocity": 70}, {"time": 1121, "pitch": 70, "duration": 39, "velocity": 74}, {"time": 1169, "pitch": 62, "duration": 7, "velocity": 74}, {"time": 1175, "pitch": 65, "duration": 7, "velocity": 77}, {"time": 1181, "pitch": 70, "duration": 7, "velocity": 75}, {"time": 1187, "pitch": 67, "duration": 7, "velocity": 75}, {"time": 1193, "pitch": 65, "duration": 20, "velocity": 77}, {"time": 1217, "pitch": 62, "duration": 7, "velocity": 75}, {"time": 1223, "pitch": 65, "duration": 7, "velocity": 75}, {"time": 1229, "pitch": 67, "duration": 7, "velocity": 75}, {"time": 1235, "pitch": 70, "duration": 7, "velocity": 76}, {"time": 1241, "pitch": 65, "duration": 21, "velocity": 75}, {"time": 1265, "pitch": 70, "duration": 17, "velocity": 74}, {"time": 1283, "pitch": 74, "duration": 5, "velocity": 75}, {"time": 1289, "pitch": 72, "duration": 10, "velocity": 75}, {"time": 1301, "pitch": 70, "duration": 11, "velocity": 74}, {"time": 1313, "pitch": 72, "duration": 6, "velocity": 72}, {"time": 1319, "pitch": 70, "duration": 6, "velocity": 75}, {"time": 1325, "pitch": 67, "duration": 7, "velocity": 73}, {"time": 1331, "pitch": 70, "duration": 6, "velocity": 76}, {"time": 1337, "pitch": 65, "duration": 21, "velocity": 72}, {"time": 1361, "pitch": 62, "duration": 16, "velocity": 76}, {"time": 1379, "pitch": 65, "duration": 5, "velocity": 72}, {"time": 1385, "pitch": 67, "duration": 12, "velocity": 70}, {"time": 1397, "pitch": 65, "duration": 5, "velocity": 73}, {"time": 1403, "pitch": 67, "duration": 5, "velocity": 74}, {"time": 1409, "pitch": 70, "duration": 10, "velocity": 75}, {"time": 1421, "pitch": 72, "duration": 6, "velocity": 68}, {"time": 1427, "pitch": 65, "duration": 5, "velocity": 76}, {"time": 1433, "pitch": 67, "duration": 19, "velocity": 69}, {"time": 1457, "pitch": 62, "duration": 6, "velocity": 76}, {"time": 1463, "pitch": 60, "duration": 7, "velocity": 70}, {"time": 1469, "pitch": 58, "duration": 13, "velocity": 72}, {"time": 1481, "pitch": 60, "duration": 21, "velocity": 70}, {"time": 1505, "pitch": 60, "duration": 11, "velocity": 75}, {"time": 1517, "pitch": 60, "duration": 6, "velocity": 73}, {"time": 1523, "pitch": 62, "duration": 5, "velocity": 70}, {"time": 1529, "pitch": 65, "duration": 11, "velocity": 74}, {"time": 1541, "pitch": 65, "duration": 9, "velocity": 70}, {"time": 1553, "pitch": 70, "duration": 10, "velocity": 76}, {"time": 1565, "pitch": 60, "duration": 6, "velocity": 73}, {"time": 1571, "pitch": 62, "duration": 5, "velocity": 69}, {"time": 1577, "pitch": 65, "duration": 21, "velocity": 72}, {"time": 1601, "pitch": 62, "duration": 7, "velocity": 74}, {"time": 1607, "pitch": 65, "duration": 7, "velocity": 77}, {"time": 1613, "pitch": 70, "duration": 7, "velocity": 75}, {"time": 1619, "pitch": 67, "duration": 7, "velocity": 75}, {"time": 1625, "pitch": 65, "duration": 20, "velocity": 77}, {"time": 1649, "pitch": 62, "duration": 7, "velocity": 75}, {"time": 1655, "pitch": 65, "duration": 7, "velocity": 75}, {"time": 1661, "pitch": 67, "duration": 7, "velocity": 75}, {"time": 1667, "pitch": 70, "duration": 7, "velocity": 76}, {"time": 1673, "pitch": 65, "duration": 21, "velocity": 75}, {"time": 1697, "pitch": 70, "duration": 17, "velocity": 74}, {"time": 1715, "pitch": 74, "duration": 5, "velocity": 75}, {"time": 1721, "pitch": 72, "duration": 10, "velocity": 75}, {"time": 1733, "pitch": 70, "duration": 11, "velocity": 74}, {"time": 1745, "pitch": 72, "duration": 6, "velocity": 72}, {"time": 1751, "pitch": 70, "duration": 6, "velocity": 75}, {"time": 1757, "pitch": 67, "duration": 7, "velocity": 73}, {"time": 1763, "pitch": 70, "duration": 6, "velocity": 76}, {"time": 1769, "pitch": 65, "duration": 21, "velocity": 72}, {"time": 1793, "pitch": 62, "duration": 16, "velocity": 76}, {"time": 1811, "pitch": 65, "duration": 5, "velocity": 72}, {"time": 1817, "pitch": 67, "duration": 12, "velocity": 70}, {"time": 1829, "pitch": 65, "duration": 5, "velocity": 73}, {"time": 1835, "pitch": 67, "duration": 5, "velocity": 74}, {"time": 1841, "pitch": 70, "duration": 10, "velocity": 75}, {"time": 1853, "pitch": 72, "duration": 6, "velocity": 68}, {"time": 1859, "pitch": 65, "duration": 5, "velocity": 76}, {"time": 1865, "pitch": 67, "duration": 19, "velocity": 69}, {"time": 1889, "pitch": 62, "duration": 17, "velocity": 76}, {"time": 1907, "pitch": 70, "duration": 5, "velocity": 75}, {"time": 1913, "pitch": 67, "duration": 10, "velocity": 74}, {"time": 1925, "pitch": 65, "duration": 11, "velocity": 72}, {"time": 1937, "pitch": 62, "duration": 7, "velocity": 74}, {"time": 1943, "pitch": 60, "duration": 7, "velocity": 74}, {"time": 1949, "pitch": 58, "duration": 7, "velocity": 68}, {"time": 1955, "pitch": 62, "duration": 7, "velocity": 63}, {"time": 1961, "pitch": 60, "duration": 21, "velocity": 73}, {"time": 1985, "pitch": 60, "duration": 16, "velocity": 75}, {"time": 2003, "pitch": 62, "duration": 6, "velocity": 74}, {"time": 2009, "pitch": 65, "duration": 12, "velocity": 76}, {"time": 2021, "pitch": 67, "duration": 11, "velocity": 67}, {"time": 2033, "pitch": 70, "duration": 13, "velocity": 74}, {"time": 2045, "pitch": 72, "duration": 6, "velocity": 74}, {"time": 2051, "pitch": 74, "duration": 7, "velocity": 74}, {"time": 2057, "pitch": 72, "duration": 11, "velocity": 76}, {"time": 2069, "pitch": 70, "duration": 11, "velocity": 75}, {"time": 2081, "pitch": 72, "duration": 5, "velocity": 74}, {"time": 2087, "pitch": 70, "duration": 5, "velocity": 74}, {"time": 2093, "pitch": 65, "duration": 6, "velocity": 75}, {"time": 2099, "pitch": 67, "duration": 6, "velocity": 70}, {"time": 2105, "pitch": 70, "duration": 39, "velocity": 74}, {"time": 2585, "pitch": 62, "duration": 7, "velocity": 74}, {"time": 2591, "pitch": 65, "duration": 7, "velocity": 77}, {"time": 2597, "pitch": 70, "duration": 7, "velocity": 75}, {"time": 2603, "pitch": 67, "duration": 7, "velocity": 75}, {"time": 2609, "pitch": 65, "duration": 20, "velocity": 77}, {"time": 2633, "pitch": 62, "duration": 7, "velocity": 75}, {"time": 2639, "pitch": 65, "duration": 7, "velocity": 75}, {"time": 2645, "pitch": 67, "duration": 7, "velocity": 75}, {"time": 2651, "pitch": 70, "duration": 7, "velocity": 76}, {"time": 2657, "pitch": 65, "duration": 21, "velocity": 75}, {"time": 2681, "pitch": 70, "duration": 17, "velocity": 74}, {"time": 2699, "pitch": 74, "duration": 5, "velocity": 75}, {"time": 2705, "pitch": 72, "duration": 10, "velocity": 75}, {"time": 2717, "pitch": 70, "duration": 11, "velocity": 74}, {"time": 2729, "pitch": 72, "duration": 6, "velocity": 72}, {"time": 2735, "pitch": 70, "duration": 6, "velocity": 75}, {"time": 2741, "pitch": 67, "duration": 7, "velocity": 73}, {"time": 2747, "pitch": 70, "duration": 6, "velocity": 76}, {"time": 2753, "pitch": 65, "duration": 21, "velocity": 72}, {"time": 2777, "pitch": 62, "duration": 16, "velocity": 76}, {"time": 2795, "pitch": 65, "duration": 5, "velocity": 72}, {"time": 2801, "pitch": 67, "duration": 12, "velocity": 70}, {"time": 2813, "pitch": 65, "duration": 5, "velocity": 73}, {"time": 2819, "pitch": 67, "duration": 5, "velocity": 74}, {"time": 2825, "pitch": 70, "duration": 10, "velocity": 75}, {"time": 2837, "pitch": 72, "duration": 6, "velocity": 68}, {"time": 2843, "pitch": 65, "duration": 5, "velocity": 76}, {"time": 2849, "pitch": 67, "duration": 19, "velocity": 69}, {"time": 2873, "pitch": 62, "duration": 17, "velocity": 76}, {"time": 2891, "pitch": 70, "duration": 5, "velocity": 75}, {"time": 2897, "pitch": 67, "duration": 10, "velocity": 74}, {"time": 2909, "pitch": 65, "duration": 11, "velocity": 72}, {"time": 2921, "pitch": 62, "duration": 7, "velocity": 74}, {"time": 2927, "pitch": 60, "duration": 7, "velocity": 74}, {"time": 2933, "pitch": 58, "duration": 7, "velocity": 68}, {"time": 2939, "pitch": 62, "duration": 7, "velocity": 63}, {"time": 2945, "pitch": 60, "duration": 21, "velocity": 73}, {"time": 2969, "pitch": 60, "duration": 16, "velocity": 75}, {"time": 2987, "pitch": 62, "duration": 6, "velocity": 74}, {"time": 2993, "pitch": 65, "duration": 12, "velocity": 76}, {"time": 3005, "pitch": 67, "duration": 11, "velocity": 67}, {"time": 3019, "pitch": 70, "duration": 12, "velocity": 76}, {"time": 3031, "pitch": 72, "duration": 7, "velocity": 75}, {"time": 3037, "pitch": 74, "duration": 7, "velocity": 69}, {"time": 3044, "pitch": 72, "duration": 16, "velocity": 75}, {"time": 3060, "pitch": 70, "duration": 11, "velocity": 76}, {"time": 3077, "pitch": 72, "duration": 10, "velocity": 74}, {"time": 3086, "pitch": 70, "duration": 10, "velocity": 76}, {"time": 3096, "pitch": 65, "duration": 12, "velocity": 76}, {"time": 3107, "pitch": 67, "duration": 11, "velocity": 76}, {"time": 3118, "pitch": 70, "duration": 35, "velocity": 74}]}, {"program": 0, "is_drum": false, "name": "BRIDGE", "notes": [{"time": 17, "pitch": 82, "duration": 18, "velocity": 73}, {"time": 35, "pitch": 86, "duration": 8, "velocity": 76}, {"time": 41, "pitch": 84, "duration": 6, "velocity": 55}, {"time": 47, "pitch": 86, "duration": 7, "velocity": 68}, {"time": 53, "pitch": 82, "duration": 11, "velocity": 78}, {"time": 65, "pitch": 84, "duration": 7, "velocity": 69}, {"time": 71, "pitch": 82, "duration": 7, "velocity": 75}, {"time": 77, "pitch": 77, "duration": 7, "velocity": 56}, {"time": 83, "pitch": 82, "duration": 6, "velocity": 74}, {"time": 89, "pitch": 86, "duration": 92, "velocity": 75}, {"time": 617, "pitch": 70, "duration": 44, "velocity": 72}, {"time": 659, "pitch": 67, "duration": 8, "velocity": 62}, {"time": 665, "pitch": 65, "duration": 39, "velocity": 67}, {"time": 713, "pitch": 70, "duration": 25, "velocity": 73}, {"time": 737, "pitch": 72, "duration": 34, "velocity": 68}, {"time": 773, "pitch": 70, "duration": 7, "velocity": 74}, {"time": 779, "pitch": 67, "duration": 7, "velocity": 71}, {"time": 785, "pitch": 65, "duration": 21, "velocity": 72}, {"time": 809, "pitch": 70, "duration": 22, "velocity": 62}, {"time": 809, "pitch": 74, "duration": 21, "velocity": 58}, {"time": 833, "pitch": 70, "duration": 22, "velocity": 61}, {"time": 833, "pitch": 75, "duration": 22, "velocity": 68}, {"time": 857, "pitch": 74, "duration": 15, "velocity": 68}, {"time": 869, "pitch": 72, "duration": 12, "velocity": 68}, {"time": 881, "pitch": 70, "duration": 22, "velocity": 65}, {"time": 905, "pitch": 70, "duration": 23, "velocity": 63}, {"time": 929, "pitch": 67, "duration": 23, "velocity": 63}, {"time": 953, "pitch": 67, "duration": 13, "velocity": 63}, {"time": 965, "pitch": 70, "duration": 13, "velocity": 65}, {"time": 977, "pitch": 72, "duration": 13, "velocity": 70}, {"time": 989, "pitch": 70, "duration": 7, "velocity": 70}, {"time": 995, "pitch": 67, "duration": 7, "velocity": 64}, {"time": 1001, "pitch": 65, "duration": 44, "velocity": 70}, {"time": 1049, "pitch": 70, "duration": 13, "velocity": 72}, {"time": 1061, "pitch": 72, "duration": 7, "velocity": 70}, {"time": 1067, "pitch": 74, "duration": 7, "velocity": 64}, {"time": 1073, "pitch": 72, "duration": 13, "velocity": 69}, {"time": 1085, "pitch": 70, "duration": 10, "velocity": 66}, {"time": 1097, "pitch": 72, "duration": 7, "velocity": 68}, {"time": 1103, "pitch": 70, "duration": 6, "velocity": 73}, {"time": 1109, "pitch": 65, "duration": 8, "velocity": 74}, {"time": 1115, "pitch": 67, "duration": 8, "velocity": 62}, {"time": 1121, "pitch": 70, "duration": 45, "velocity": 65}, {"time": 1205, "pitch": 74, "duration": 9, "velocity": 63}, {"time": 1211, "pitch": 72, "duration": 7, "velocity": 68}, {"time": 1217, "pitch": 70, "duration": 38, "velocity": 54}, {"time": 1253, "pitch": 72, "duration": 6, "velocity": 63}, {"time": 1259, "pitch": 70, "duration": 7, "velocity": 66}, {"time": 1265, "pitch": 67, "duration": 24, "velocity": 63}, {"time": 1301, "pitch": 70, "duration": 10, "velocity": 66}, {"time": 1313, "pitch": 72, "duration": 22, "velocity": 69}, {"time": 1337, "pitch": 65, "duration": 18, "velocity": 67}, {"time": 1361, "pitch": 70, "duration": 33, "velocity": 59}, {"time": 1361, "pitch": 74, "duration": 38, "velocity": 60}, {"time": 1409, "pitch": 70, "duration": 21, "velocity": 57}, {"time": 1409, "pitch": 74, "duration": 22, "velocity": 57}, {"time": 1433, "pitch": 70, "duration": 21, "velocity": 65}, {"time": 1457, "pitch": 70, "duration": 21, "velocity": 45}, {"time": 1481, "pitch": 72, "duration": 25, "velocity": 60}, {"time": 1505, "pitch": 69, "duration": 36, "velocity": 60}, {"time": 1529, "pitch": 77, "duration": 19, "velocity": 67}, {"time": 1535, "pitch": 65, "duration": 14, "velocity": 63}, {"time": 1541, "pitch": 72, "duration": 10, "velocity": 60}, {"time": 1553, "pitch": 70, "duration": 13, "velocity": 70}, {"time": 1565, "pitch": 72, "duration": 7, "velocity": 74}, {"time": 1571, "pitch": 74, "duration": 7, "velocity": 68}, {"time": 1577, "pitch": 77, "duration": 19, "velocity": 74}, {"time": 1601, "pitch": 70, "duration": 44, "velocity": 72}, {"time": 1643, "pitch": 67, "duration": 8, "velocity": 62}, {"time": 1649, "pitch": 65, "duration": 39, "velocity": 67}, {"time": 1697, "pitch": 70, "duration": 25, "velocity": 73}, {"time": 1721, "pitch": 72, "duration": 34, "velocity": 68}, {"time": 1757, "pitch": 70, "duration": 7, "velocity": 74}, {"time": 1763, "pitch": 67, "duration": 7, "velocity": 71}, {"time": 1769, "pitch": 65, "duration": 21, "velocity": 72}, {"time": 1793, "pitch": 70, "duration": 22, "velocity": 62}, {"time": 1793, "pitch": 74, "duration": 21, "velocity": 58}, {"time": 1817, "pitch": 70, "duration": 22, "velocity": 61}, {"time": 1817, "pitch": 75, "duration": 22, "velocity": 68}, {"time": 1841, "pitch": 74, "duration": 15, "velocity": 68}, {"time": 1853, "pitch": 72, "duration": 12, "velocity": 68}, {"time": 1865, "pitch": 70, "duration": 22, "velocity": 65}, {"time": 1889, "pitch": 70, "duration": 23, "velocity": 63}, {"time": 1913, "pitch": 67, "duration": 23, "velocity": 63}, {"time": 1937, "pitch": 67, "duration": 13, "velocity": 63}, {"time": 1949, "pitch": 70, "duration": 13, "velocity": 65}, {"time": 1961, "pitch": 72, "duration": 13, "velocity": 70}, {"time": 1973, "pitch": 70, "duration": 7, "velocity": 70}, {"time": 1979, "pitch": 67, "duration": 7, "velocity": 64}, {"time": 1985, "pitch": 65, "duration": 44, "velocity": 70}, {"time": 2033, "pitch": 70, "duration": 13, "velocity": 72}, {"time": 2045, "pitch": 72, "duration": 7, "velocity": 70}, {"time": 2051, "pitch": 74, "duration": 7, "velocity": 64}, {"time": 2057, "pitch": 72, "duration": 13, "velocity": 69}, {"time": 2069, "pitch": 70, "duration": 10, "velocity": 66}, {"time": 2081, "pitch": 72, "duration": 7, "velocity": 68}, {"time": 2087, "pitch": 70, "duration": 6, "velocity": 73}, {"time": 2093, "pitch": 65, "duration": 8, "velocity": 74}, {"time": 2099, "pitch": 67, "duration": 8, "velocity": 62}, {"time": 2105, "pitch": 70, "duration": 45, "velocity": 65}, {"time": 2153, "pitch": 74, "duration": 12, "velocity": 76}, {"time": 2165, "pitch": 77, "duration": 7, "velocity": 76}, {"time": 2171, "pitch": 82, "duration": 4, "velocity": 69}, {"time": 2174, "pitch": 79, "duration": 4, "velocity": 77}, {"time": 2177, "pitch": 77, "duration": 23, "velocity": 76}, {"time": 2201, "pitch": 74, "duration": 12, "velocity": 74}, {"time": 2213, "pitch": 77, "duration": 7, "velocity": 78}, {"time": 2219, "pitch": 79, "duration": 4, "velocity": 78}, {"time": 2222, "pitch": 82, "duration": 3, "velocity": 75}, {"time": 2225, "pitch": 77, "duration": 21, "velocity": 73}, {"time": 2249, "pitch": 82, "duration": 13, "velocity": 76}, {"time": 2261, "pitch": 84, "duration": 7, "velocity": 76}, {"time": 2267, "pitch": 86, "duration": 7, "velocity": 74}, {"time": 2273, "pitch": 84, "duration": 13, "velocity": 76}, {"time": 2285, "pitch": 82, "duration": 14, "velocity": 75}, {"time": 2297, "pitch": 84, "duration": 6, "velocity": 81}, {"time": 2303, "pitch": 82, "duration": 7, "velocity": 75}, {"time": 2309, "pitch": 79, "duration": 7, "velocity": 74}, {"time": 2315, "pitch": 82, "duration": 7, "velocity": 71}, {"time": 2321, "pitch": 77, "duration": 23, "velocity": 77}, {"time": 2345, "pitch": 77, "duration": 13, "velocity": 76}, {"time": 2357, "pitch": 74, "duration": 7, "velocity": 76}, {"time": 2363, "pitch": 77, "duration": 7, "velocity": 77}, {"time": 2369, "pitch": 79, "duration": 18, "velocity": 75}, {"time": 2387, "pitch": 77, "duration": 4, "velocity": 76}, {"time": 2390, "pitch": 79, "duration": 4, "velocity": 68}, {"time": 2393, "pitch": 82, "duration": 12, "velocity": 77}, {"time": 2405, "pitch": 84, "duration": 7, "velocity": 74}, {"time": 2411, "pitch": 82, "duration": 7, "velocity": 74}, {"time": 2417, "pitch": 79, "duration": 24, "velocity": 75}, {"time": 2441, "pitch": 74, "duration": 8, "velocity": 71}, {"time": 2447, "pitch": 72, "duration": 7, "velocity": 74}, {"time": 2453, "pitch": 70, "duration": 14, "velocity": 74}, {"time": 2465, "pitch": 72, "duration": 13, "velocity": 76}, {"time": 2477, "pitch": 70, "duration": 7, "velocity": 74}, {"time": 2483, "pitch": 67, "duration": 6, "velocity": 75}, {"time": 2489, "pitch": 65, "duration": 7, "velocity": 80}, {"time": 2495, "pitch": 67, "duration": 7, "velocity": 69}, {"time": 2501, "pitch": 72, "duration": 8, "velocity": 71}, {"time": 2507, "pitch": 74, "duration": 7, "velocity": 74}, {"time": 2513, "pitch": 77, "duration": 24, "velocity": 79}, {"time": 2537, "pitch": 82, "duration": 12, "velocity": 70}, {"time": 2549, "pitch": 72, "duration": 6, "velocity": 75}, {"time": 2555, "pitch": 74, "duration": 6, "velocity": 75}, {"time": 2561, "pitch": 77, "duration": 24, "velocity": 78}, {"time": 2585, "pitch": 70, "duration": 44, "velocity": 72}, {"time": 2627, "pitch": 67, "duration": 8, "velocity": 62}, {"time": 2633, "pitch": 65, "duration": 39, "velocity": 67}, {"time": 2681, "pitch": 70, "duration": 25, "velocity": 73}, {"time": 2705, "pitch": 72, "duration": 34, "velocity": 68}, {"time": 2741, "pitch": 70, "duration": 7, "velocity": 74}, {"time": 2747, "pitch": 67, "duration": 7, "velocity": 71}, {"time": 2753, "pitch": 65, "duration": 21, "velocity": 72}, {"time": 2777, "pitch": 70, "duration": 22, "velocity": 62}, {"time": 2777, "pitch": 74, "duration": 21, "velocity": 58}, {"time": 2801, "pitch": 70, "duration": 22, "velocity": 61}, {"time": 2801, "pitch": 75, "duration": 22, "velocity": 68}, {"time": 2825, "pitch": 74, "duration": 15, "velocity": 68}, {"time": 2837, "pitch": 72, "duration": 12, "velocity": 68}, {"time": 2849, "pitch": 70, "duration": 22, "velocity": 65}, {"time": 2873, "pitch": 70, "duration": 23, "velocity": 63}, {"time": 2897, "pitch": 67, "duration": 23, "velocity": 63}, {"time": 2921, "pitch": 67, "duration": 13, "velocity": 63}, {"time": 2933, "pitch": 70, "duration": 13, "velocity": 65}, {"time": 2945, "pitch": 72, "duration": 13, "velocity": 70}, {"time": 2957, "pitch": 70, "duration": 7, "velocity": 70}, {"time": 2963, "pitch": 67, "duration": 7, "velocity": 64}, {"time": 2969, "pitch": 65, "duration": 44, "velocity": 70}, {"time": 3019, "pitch": 70, "duration": 12, "velocity": 76}, {"time": 3031, "pitch": 72, "duration": 7, "velocity": 75}, {"time": 3037, "pitch": 74, "duration": 7, "velocity": 69}, {"time": 3044, "pitch": 72, "duration": 16, "velocity": 75}, {"time": 3060, "pitch": 70, "duration": 11, "velocity": 76}, {"time": 3077, "pitch": 72, "duration": 10, "velocity": 74}, {"time": 3086, "pitch": 70, "duration": 10, "velocity": 76}, {"time": 3096, "pitch": 65, "duration": 12, "velocity": 76}, {"time": 3107, "pitch": 67, "duration": 11, "velocity": 76}, {"time": 3118, "pitch": 70, "duration": 35, "velocity": 74}]}, {"program": 0, "is_drum": false, "name": "PIANO", "notes": [{"time": 89, "pitch": 46, "duration": 44, "velocity": 74}, {"time": 95, "pitch": 53, "duration": 9, "velocity": 66}, {"time": 101, "pitch": 62, "duration": 10, "velocity": 70}, {"time": 107, "pitch": 58, "duration": 8, "velocity": 66}, {"time": 113, "pitch": 65, "duration": 7, "velocity": 75}, {"time": 119, "pitch": 53, "duration": 11, "velocity": 41}, {"time": 125, "pitch": 62, "duration": 4, "velocity": 74}, {"time": 125, "pitch": 65, "duration": 14, "velocity": 76}, {"time": 125, "pitch": 70, "duration": 14, "velocity": 70}, {"time": 131, "pitch": 58, "duration": 11, "velocity": 72}, {"time": 131, "pitch": 62, "duration": 6, "velocity": 29}, {"time": 137, "pitch": 46, "duration": 22, "velocity": 75}, {"time": 143, "pitch": 53, "duration": 15, "velocity": 55}, {"time": 149, "pitch": 62, "duration": 7, "velocity": 57}, {"time": 149, "pitch": 65, "duration": 9, "velocity": 66}, {"time": 155, "pitch": 58, "duration": 8, "velocity": 61}, {"time": 161, "pitch": 46, "duration": 24, "velocity": 68}, {"time": 161, "pitch": 70, "duration": 8, "velocity": 71}, {"time": 167, "pitch": 53, "duration": 18, "velocity": 63}, {"time": 173, "pitch": 62, "duration": 11, "velocity": 63}, {"time": 173, "pitch": 65, "duration": 12, "velocity": 69}, {"time": 179, "pitch": 58, "duration": 6, "velocity": 60}, {"time": 185, "pitch": 46, "duration": 46, "velocity": 74}, {"time": 191, "pitch": 53, "duration": 9, "velocity": 66}, {"time": 197, "pitch": 62, "duration": 10, "velocity": 72}, {"time": 203, "pitch": 53, "duration": 9, "velocity": 61}, {"time": 209, "pitch": 65, "duration": 18, "velocity": 73}, {"time": 215, "pitch": 53, "duration": 15, "velocity": 52}, {"time": 221, "pitch": 62, "duration": 7, "velocity": 76}, {"time": 227, "pitch": 70, "duration": 13, "velocity": 72}, {"time": 233, "pitch": 46, "duration": 42, "velocity": 75}, {"time": 239, "pitch": 53, "duration": 8, "velocity": 62}, {"time": 245, "pitch": 62, "duration": 11, "velocity": 74}, {"time": 251, "pitch": 53, "duration": 9, "velocity": 56}, {"time": 257, "pitch": 65, "duration": 14, "velocity": 74}, {"time": 263, "pitch": 53, "duration": 11, "velocity": 59}, {"time": 269, "pitch": 70, "duration": 9, "velocity": 73}, {"time": 275, "pitch": 58, "duration": 12, "velocity": 75}, {"time": 281, "pitch": 43, "duration": 17, "velocity": 71}, {"time": 287, "pitch": 50, "duration": 12, "velocity": 50}, {"time": 293, "pitch": 62, "duration": 8, "velocity": 78}, {"time": 299, "pitch": 58, "duration": 7, "velocity": 75}, {"time": 305, "pitch": 48, "duration": 22, "velocity": 74}, {"time": 311, "pitch": 55, "duration": 11, "velocity": 59}, {"time": 317, "pitch": 63, "duration": 7, "velocity": 73}, {"time": 323, "pitch": 60, "duration": 8, "velocity": 75}, {"time": 329, "pitch": 52, "duration": 11, "velocity": 75}, {"time": 329, "pitch": 64, "duration": 13, "velocity": 74}, {"time": 335, "pitch": 55, "duration": 7, "velocity": 61}, {"time": 341, "pitch": 67, "duration": 7, "velocity": 77}, {"time": 347, "pitch": 60, "duration": 8, "velocity": 75}, {"time": 353, "pitch": 41, "duration": 25, "velocity": 66}, {"time": 353, "pitch": 65, "duration": 24, "velocity": 69}, {"time": 359, "pitch": 48, "duration": 18, "velocity": 62}, {"time": 365, "pitch": 57, "duration": 12, "velocity": 79}, {"time": 371, "pitch": 53, "duration": 6, "velocity": 77}, {"time": 377, "pitch": 46, "duration": 23, "velocity": 74}, {"time": 377, "pitch": 62, "duration": 13, "velocity": 71}, {"time": 383, "pitch": 53, "duration": 7, "velocity": 69}, {"time": 389, "pitch": 58, "duration": 13, "velocity": 76}, {"time": 395, "pitch": 53, "duration": 6, "velocity": 69}, {"time": 401, "pitch": 51, "duration": 18, "velocity": 75}, {"time": 401, "pitch": 63, "duration": 8, "velocity": 70}, {"time": 407, "pitch": 58, "duration": 8, "velocity": 65}, {"time": 413, "pitch": 67, "duration": 6, "velocity": 77}, {"time": 419, "pitch": 58, "duration": 7, "velocity": 75}, {"time": 425, "pitch": 46, "duration": 21, "velocity": 75}, {"time": 425, "pitch": 62, "duration": 11, "velocity": 68}, {"time": 431, "pitch": 53, "duration": 15, "velocity": 68}, {"time": 437, "pitch": 62, "duration": 8, "velocity": 60}, {"time": 437, "pitch": 65, "duration": 8, "velocity": 72}, {"time": 443, "pitch": 58, "duration": 8, "velocity": 69}, {"time": 449, "pitch": 51, "duration": 16, "velocity": 68}, {"time": 449, "pitch": 63, "duration": 10, "velocity": 69}, {"time": 455, "pitch": 58, "duration": 8, "velocity": 69}, {"time": 461, "pitch": 63, "duration": 1, "velocity": 30}, {"time": 461, "pitch": 67, "duration": 9, "velocity": 76}, {"time": 467, "pitch": 58, "duration": 8, "velocity": 74}, {"time": 473, "pitch": 43, "duration": 17, "velocity": 67}, {"time": 473, "pitch": 62, "duration": 18, "velocity": 69}, {"time": 479, "pitch": 50, "duration": 12, "velocity": 61}, {"time": 485, "pitch": 67, "duration": 13, "velocity": 75}, {"time": 491, "pitch": 58, "duration": 4, "velocity": 75}, {"time": 497, "pitch": 48, "duration": 17, "velocity": 74}, {"time": 497, "pitch": 63, "duration": 10, "velocity": 71}, {"time": 503, "pitch": 55, "duration": 8, "velocity": 58}, {"time": 509, "pitch": 60, "duration": 3, "velocity": 68}, {"time": 509, "pitch": 67, "duration": 9, "velocity": 66}, {"time": 515, "pitch": 60, "duration": 8, "velocity": 74}, {"time": 521, "pitch": 41, "duration": 39, "velocity": 75}, {"time": 521, "pitch": 65, "duration": 18, "velocity": 71}, {"time": 527, "pitch": 48, "duration": 32, "velocity": 57}, {"time": 533, "pitch": 57, "duration": 8, "velocity": 69}, {"time": 539, "pitch": 53, "duration": 9, "velocity": 78}, {"time": 545, "pitch": 60, "duration": 10, "velocity": 71}, {"time": 551, "pitch": 53, "duration": 7, "velocity": 78}, {"time": 557, "pitch": 57, "duration": 6, "velocity": 77}, {"time": 557, "pitch": 60, "duration": 7, "velocity": 72}, {"time": 563, "pitch": 53, "duration": 3, "velocity": 79}, {"time": 569, "pitch": 46, "duration": 20, "velocity": 73}, {"time": 569, "pitch": 62, "duration": 12, "velocity": 70}, {"time": 575, "pitch": 53, "duration": 8, "velocity": 70}, {"time": 581, "pitch": 58, "duration": 9, "velocity": 74}, {"time": 587, "pitch": 50, "duration": 4, "velocity": 62}, {"time": 593, "pitch": 53, "duration": 14, "velocity": 70}, {"time": 593, "pitch": 60, "duration": 3, "velocity": 65}, {"time": 593, "pitch": 65, "duration": 9, "velocity": 71}, {"time": 599, "pitch": 60, "duration": 8, "velocity": 74}, {"time": 605, "pitch": 65, "duration": 6, "velocity": 74}, {"time": 605, "pitch": 69, "duration": 6, "velocity": 77}, {"time": 611, "pitch": 60, "duration": 3, "velocity": 75}, {"time": 617, "pitch": 46, "duration": 18, "velocity": 74}, {"time": 617, "pitch": 58, "duration": 10, "velocity": 70}, {"time": 617, "pitch": 62, "duration": 8, "velocity": 67}, {"time": 623, "pitch": 53, "duration": 8, "velocity": 70}, {"time": 629, "pitch": 62, "duration": 8, "velocity": 74}, {"time": 629, "pitch": 65, "duration": 17, "velocity": 74}, {"time": 635, "pitch": 58, "duration": 15, "velocity": 77}, {"time": 641, "pitch": 46, "duration": 23, "velocity": 75}, {"time": 647, "pitch": 53, "duration": 17, "velocity": 61}, {"time": 653, "pitch": 62, "duration": 6, "velocity": 80}, {"time": 659, "pitch": 58, "duration": 8, "velocity": 78}, {"time": 665, "pitch": 46, "duration": 22, "velocity": 64}, {"time": 665, "pitch": 65, "duration": 9, "velocity": 73}, {"time": 671, "pitch": 53, "duration": 16, "velocity": 61}, {"time": 677, "pitch": 62, "duration": 5, "velocity": 59}, {"time": 677, "pitch": 65, "duration": 8, "velocity": 75}, {"time": 677, "pitch": 70, "duration": 7, "velocity": 72}, {"time": 683, "pitch": 58, "duration": 13, "velocity": 71}, {"time": 689, "pitch": 46, "duration": 17, "velocity": 68}, {"time": 695, "pitch": 53, "duration": 10, "velocity": 63}, {"time": 701, "pitch": 58, "duration": 3, "velocity": 70}, {"time": 701, "pitch": 62, "duration": 5, "velocity": 76}, {"time": 707, "pitch": 57, "duration": 4, "velocity": 76}, {"time": 713, "pitch": 43, "duration": 14, "velocity": 65}, {"time": 713, "pitch": 55, "duration": 8, "velocity": 74}, {"time": 719, "pitch": 50, "duration": 8, "velocity": 70}, {"time": 725, "pitch": 55, "duration": 2, "velocity": 76}, {"time": 725, "pitch": 58, "duration": 7, "velocity": 74}, {"time": 731, "pitch": 55, "duration": 2, "velocity": 77}, {"time": 737, "pitch": 48, "duration": 22, "velocity": 66}, {"time": 737, "pitch": 60, "duration": 10, "velocity": 64}, {"time": 737, "pitch": 63, "duration": 8, "velocity": 65}, {"time": 743, "pitch": 54, "duration": 3, "velocity": 74}, {"time": 749, "pitch": 67, "duration": 7, "velocity": 81}, {"time": 755, "pitch": 60, "duration": 5, "velocity": 76}, {"time": 761, "pitch": 48, "duration": 15, "velocity": 75}, {"time": 761, "pitch": 60, "duration": 9, "velocity": 73}, {"time": 761, "pitch": 64, "duration": 8, "velocity": 71}, {"time": 767, "pitch": 55, "duration": 6, "velocity": 60}, {"time": 773, "pitch": 64, "duration": 6, "velocity": 64}, {"time": 773, "pitch": 67, "duration": 7, "velocity": 74}, {"time": 779, "pitch": 60, "duration": 8, "velocity": 78}, {"time": 785, "pitch": 41, "duration": 17, "velocity": 75}, {"time": 785, "pitch": 65, "duration": 14, "velocity": 76}, {"time": 791, "pitch": 48, "duration": 10, "velocity": 74}, {"time": 797, "pitch": 57, "duration": 12, "velocity": 81}, {"time": 809, "pitch": 46, "duration": 23, "velocity": 73}, {"time": 809, "pitch": 58, "duration": 13, "velocity": 62}, {"time": 815, "pitch": 53, "duration": 14, "velocity": 72}, {"time": 821, "pitch": 62, "duration": 6, "velocity": 69}, {"time": 827, "pitch": 58, "duration": 8, "velocity": 76}, {"time": 833, "pitch": 51, "duration": 17, "velocity": 69}, {"time": 833, "pitch": 63, "duration": 8, "velocity": 70}, {"time": 839, "pitch": 58, "duration": 7, "velocity": 69}, {"time": 845, "pitch": 65, "duration": 6, "velocity": 75}, {"time": 851, "pitch": 63, "duration": 6, "velocity": 66}, {"time": 857, "pitch": 46, "duration": 23, "velocity": 74}, {"time": 857, "pitch": 58, "duration": 8, "velocity": 64}, {"time": 857, "pitch": 62, "duration": 8, "velocity": 58}, {"time": 863, "pitch": 53, "duration": 13, "velocity": 71}, {"time": 869, "pitch": 62, "duration": 6, "velocity": 76}, {"time": 869, "pitch": 65, "duration": 6, "velocity": 74}, {"time": 875, "pitch": 58, "duration": 7, "velocity": 74}, {"time": 881, "pitch": 51, "duration": 17, "velocity": 69}, {"time": 881, "pitch": 63, "duration": 8, "velocity": 72}, {"time": 887, "pitch": 58, "duration": 8, "velocity": 70}, {"time": 893, "pitch": 65, "duration": 7, "velocity": 76}, {"time": 899, "pitch": 63, "duration": 6, "velocity": 70}, {"time": 905, "pitch": 46, "duration": 41, "velocity": 74}, {"time": 905, "pitch": 58, "duration": 11, "velocity": 63}, {"time": 905, "pitch": 65, "duration": 11, "velocity": 71}, {"time": 911, "pitch": 53, "duration": 9, "velocity": 65}, {"time": 917, "pitch": 62, "duration": 9, "velocity": 76}, {"time": 923, "pitch": 53, "duration": 9, "velocity": 65}, {"time": 929, "pitch": 58, "duration": 9, "velocity": 66}, {"time": 929, "pitch": 65, "duration": 10, "velocity": 72}, {"time": 935, "pitch": 53, "duration": 9, "velocity": 63}, {"time": 941, "pitch": 58, "duration": 3, "velocity": 73}, {"time": 941, "pitch": 62, "duration": 7, "velocity": 75}, {"time": 947, "pitch": 58, "duration": 9, "velocity": 75}, {"time": 953, "pitch": 43, "duration": 14, "velocity": 68}, {"time": 953, "pitch": 67, "duration": 17, "velocity": 65}, {"time": 959, "pitch": 50, "duration": 8, "velocity": 55}, {"time": 965, "pitch": 62, "duration": 7, "velocity": 77}, {"time": 971, "pitch": 58, "duration": 3, "velocity": 75}, {"time": 977, "pitch": 48, "duration": 15, "velocity": 74}, {"time": 977, "pitch": 60, "duration": 9, "velocity": 67}, {"time": 977, "pitch": 63, "duration": 9, "velocity": 70}, {"time": 983, "pitch": 55, "duration": 7, "velocity": 57}, {"time": 989, "pitch": 60, "duration": 3, "velocity": 71}, {"time": 989, "pitch": 63, "duration": 8, "velocity": 73}, {"time": 989, "pitch": 67, "duration": 8, "velocity": 68}, {"time": 995, "pitch": 60, "duration": 9, "velocity": 74}, {"time": 1001, "pitch": 41, "duration": 43, "velocity": 75}, {"time": 1001, "pitch": 57, "duration": 13, "velocity": 72}, {"time": 1007, "pitch": 48, "duration": 8, "velocity": 64}, {"time": 1013, "pitch": 53, "duration": 14, "velocity": 79}, {"time": 1019, "pitch": 48, "duration": 24, "velocity": 61}, {"time": 1025, "pitch": 60, "duration": 18, "velocity": 71}, {"time": 1031, "pitch": 53, "duration": 7, "velocity": 76}, {"time": 1037, "pitch": 65, "duration": 13, "velocity": 75}, {"time": 1043, "pitch": 53, "duration": 6, "velocity": 78}, {"time": 1049, "pitch": 46, "duration": 16, "velocity": 71}, {"time": 1049, "pitch": 58, "duration": 9, "velocity": 65}, {"time": 1055, "pitch": 53, "duration": 9, "velocity": 75}, {"time": 1061, "pitch": 58, "duration": 6, "velocity": 73}, {"time": 1061, "pitch": 62, "duration": 7, "velocity": 75}, {"time": 1067, "pitch": 46, "duration": 5, "velocity": 75}, {"time": 1073, "pitch": 48, "duration": 16, "velocity": 74}, {"time": 1073, "pitch": 60, "duration": 9, "velocity": 66}, {"time": 1073, "pitch": 63, "duration": 8, "velocity": 70}, {"time": 1079, "pitch": 55, "duration": 7, "velocity": 60}, {"time": 1085, "pitch": 60, "duration": 3, "velocity": 67}, {"time": 1085, "pitch": 63, "duration": 8, "velocity": 74}, {"time": 1085, "pitch": 67, "duration": 8, "velocity": 69}, {"time": 1091, "pitch": 60, "duration": 8, "velocity": 75}, {"time": 1097, "pitch": 41, "duration": 16, "velocity": 75}, {"time": 1097, "pitch": 53, "duration": 12, "velocity": 67}, {"time": 1097, "pitch": 60, "duration": 2, "velocity": 67}, {"time": 1103, "pitch": 48, "duration": 9, "velocity": 64}, {"time": 1109, "pitch": 57, "duration": 6, "velocity": 75}, {"time": 1115, "pitch": 53, "duration": 6, "velocity": 80}, {"time": 1121, "pitch": 46, "duration": 48, "velocity": 74}, {"time": 1121, "pitch": 58, "duration": 14, "velocity": 67}, {"time": 1127, "pitch": 53, "duration": 33, "velocity": 63}, {"time": 1133, "pitch": 62, "duration": 8, "velocity": 66}, {"time": 1139, "pitch": 58, "duration": 19, "velocity": 71}, {"time": 1145, "pitch": 65, "duration": 6, "velocity": 74}, {"time": 1151, "pitch": 62, "duration": 18, "velocity": 78}, {"time": 1157, "pitch": 70, "duration": 12, "velocity": 75}, {"time": 1163, "pitch": 53, "duration": 6, "velocity": 70}, {"time": 1169, "pitch": 46, "duration": 46, "velocity": 74}, {"time": 1175, "pitch": 53, "duration": 9, "velocity": 66}, {"time": 1181, "pitch": 62, "duration": 10, "velocity": 72}, {"time": 1187, "pitch": 53, "duration": 9, "velocity": 61}, {"time": 1193, "pitch": 65, "duration": 18, "velocity": 73}, {"time": 1199, "pitch": 53, "duration": 15, "velocity": 52}, {"time": 1205, "pitch": 62, "duration": 7, "velocity": 76}, {"time": 1211, "pitch": 70, "duration": 13, "velocity": 72}, {"time": 1217, "pitch": 46, "duration": 42, "velocity": 75}, {"time": 1223, "pitch": 53, "duration": 8, "velocity": 62}, {"time": 1229, "pitch": 62, "duration": 11, "velocity": 74}, {"time": 1235, "pitch": 53, "duration": 9, "velocity": 56}, {"time": 1241, "pitch": 65, "duration": 14, "velocity": 74}, {"time": 1247, "pitch": 53, "duration": 11, "velocity": 59}, {"time": 1253, "pitch": 70, "duration": 9, "velocity": 73}, {"time": 1259, "pitch": 58, "duration": 12, "velocity": 75}, {"time": 1265, "pitch": 43, "duration": 17, "velocity": 71}, {"time": 1271, "pitch": 50, "duration": 12, "velocity": 50}, {"time": 1277, "pitch": 62, "duration": 8, "velocity": 78}, {"time": 1283, "pitch": 58, "duration": 7, "velocity": 75}, {"time": 1289, "pitch": 48, "duration": 22, "velocity": 74}, {"time": 1295, "pitch": 55, "duration": 11, "velocity": 59}, {"time": 1301, "pitch": 63, "duration": 7, "velocity": 73}, {"time": 1307, "pitch": 60, "duration": 8, "velocity": 75}, {"time": 1313, "pitch": 52, "duration": 11, "velocity": 75}, {"time": 1313, "pitch": 64, "duration": 13, "velocity": 74}, {"time": 1319, "pitch": 55, "duration": 7, "velocity": 61}, {"time": 1325, "pitch": 67, "duration": 7, "velocity": 77}, {"time": 1331, "pitch": 60, "duration": 8, "velocity": 75}, {"time": 1337, "pitch": 41, "duration": 25, "velocity": 66}, {"time": 1337, "pitch": 65, "duration": 24, "velocity": 69}, {"time": 1343, "pitch": 48, "duration": 18, "velocity": 62}, {"time": 1349, "pitch": 57, "duration": 12, "velocity": 79}, {"time": 1355, "pitch": 53, "duration": 6, "velocity": 77}, {"time": 1361, "pitch": 46, "duration": 23, "velocity": 74}, {"time": 1361, "pitch": 62, "duration": 13, "velocity": 71}, {"time": 1367, "pitch": 53, "duration": 7, "velocity": 69}, {"time": 1373, "pitch": 58, "duration": 13, "velocity": 76}, {"time": 1379, "pitch": 53, "duration": 6, "velocity": 69}, {"time": 1385, "pitch": 51, "duration": 18, "velocity": 75}, {"time": 1385, "pitch": 63, "duration": 8, "velocity": 70}, {"time": 1391, "pitch": 58, "duration": 8, "velocity": 65}, {"time": 1397, "pitch": 67, "duration": 6, "velocity": 77}, {"time": 1403, "pitch": 58, "duration": 7, "velocity": 75}, {"time": 1409, "pitch": 46, "duration": 21, "velocity": 75}, {"time": 1409, "pitch": 62, "duration": 11, "velocity": 68}, {"time": 1415, "pitch": 53, "duration": 15, "velocity": 68}, {"time": 1421, "pitch": 62, "duration": 8, "velocity": 60}, {"time": 1421, "pitch": 65, "duration": 8, "velocity": 72}, {"time": 1427, "pitch": 58, "duration": 8, "velocity": 69}, {"time": 1433, "pitch": 51, "duration": 16, "velocity": 68}, {"time": 1433, "pitch": 63, "duration": 10, "velocity": 69}, {"time": 1439, "pitch": 58, "duration": 8, "velocity": 69}, {"time": 1445, "pitch": 63, "duration": 1, "velocity": 30}, {"time": 1445, "pitch": 67, "duration": 9, "velocity": 76}, {"time": 1451, "pitch": 58, "duration": 8, "velocity": 74}, {"time": 1457, "pitch": 43, "duration": 17, "velocity": 67}, {"time": 1457, "pitch": 62, "duration": 18, "velocity": 69}, {"time": 1463, "pitch": 50, "duration": 12, "velocity": 61}, {"time": 1469, "pitch": 67, "duration": 13, "velocity": 75}, {"time": 1475, "pitch": 58, "duration": 4, "velocity": 75}, {"time": 1481, "pitch": 48, "duration": 17, "velocity": 74}, {"time": 1481, "pitch": 63, "duration": 10, "velocity": 71}, {"time": 1487, "pitch": 55, "duration": 8, "velocity": 58}, {"time": 1493, "pitch": 60, "duration": 3, "velocity": 68}, {"time": 1493, "pitch": 67, "duration": 9, "velocity": 66}, {"time": 1499, "pitch": 60, "duration": 8, "velocity": 74}, {"time": 1505, "pitch": 41, "duration": 39, "velocity": 75}, {"time": 1505, "pitch": 65, "duration": 18, "velocity": 71}, {"time": 1511, "pitch": 48, "duration": 32, "velocity": 57}, {"time": 1517, "pitch": 57, "duration": 8, "velocity": 69}, {"time": 1523, "pitch": 53, "duration": 9, "velocity": 78}, {"time": 1529, "pitch": 60, "duration": 10, "velocity": 71}, {"time": 1535, "pitch": 53, "duration": 7, "velocity": 78}, {"time": 1541, "pitch": 57, "duration": 6, "velocity": 77}, {"time": 1541, "pitch": 60, "duration": 7, "velocity": 72}, {"time": 1547, "pitch": 53, "duration": 3, "velocity": 79}, {"time": 1553, "pitch": 46, "duration": 20, "velocity": 73}, {"time": 1553, "pitch": 62, "duration": 12, "velocity": 70}, {"time": 1559, "pitch": 53, "duration": 8, "velocity": 70}, {"time": 1565, "pitch": 58, "duration": 9, "velocity": 74}, {"time": 1571, "pitch": 50, "duration": 4, "velocity": 62}, {"time": 1577, "pitch": 53, "duration": 14, "velocity": 70}, {"time": 1577, "pitch": 60, "duration": 3, "velocity": 65}, {"time": 1577, "pitch": 65, "duration": 9, "velocity": 71}, {"time": 1583, "pitch": 60, "duration": 8, "velocity": 74}, {"time": 1589, "pitch": 65, "duration": 6, "velocity": 74}, {"time": 1589, "pitch": 69, "duration": 6, "velocity": 77}, {"time": 1595, "pitch": 60, "duration": 3, "velocity": 75}, {"time": 1601, "pitch": 46, "duration": 18, "velocity": 74}, {"time": 1601, "pitch": 58, "duration": 10, "velocity": 70}, {"time": 1601, "pitch": 62, "duration": 8, "velocity": 67}, {"time": 1607, "pitch": 53, "duration": 8, "velocity": 70}, {"time": 1613, "pitch": 62, "duration": 8, "velocity": 74}, {"time": 1613, "pitch": 65, "duration": 17, "velocity": 74}, {"time": 1619, "pitch": 58, "duration": 15, "velocity": 77}, {"time": 1625, "pitch": 46, "duration": 23, "velocity": 75}, {"time": 1631, "pitch": 53, "duration": 17, "velocity": 61}, {"time": 1637, "pitch": 62, "duration": 6, "velocity": 80}, {"time": 1643, "pitch": 58, "duration": 8, "velocity": 78}, {"time": 1649, "pitch": 46, "duration": 22, "velocity": 64}, {"time": 1649, "pitch": 65, "duration": 9, "velocity": 73}, {"time": 1655, "pitch": 53, "duration": 16, "velocity": 61}, {"time": 1661, "pitch": 62, "duration": 5, "velocity": 59}, {"time": 1661, "pitch": 65, "duration": 8, "velocity": 75}, {"time": 1661, "pitch": 70, "duration": 7, "velocity": 72}, {"time": 1667, "pitch": 58, "duration": 13, "velocity": 71}, {"time": 1673, "pitch": 46, "duration": 17, "velocity": 68}, {"time": 1679, "pitch": 53, "duration": 10, "velocity": 63}, {"time": 1685, "pitch": 58, "duration": 3, "velocity": 70}, {"time": 1685, "pitch": 62, "duration": 5, "velocity": 76}, {"time": 1691, "pitch": 57, "duration": 4, "velocity": 76}, {"time": 1697, "pitch": 43, "duration": 14, "velocity": 65}, {"time": 1697, "pitch": 55, "duration": 8, "velocity": 74}, {"time": 1703, "pitch": 50, "duration": 8, "velocity": 70}, {"time": 1709, "pitch": 55, "duration": 2, "velocity": 76}, {"time": 1709, "pitch": 58, "duration": 7, "velocity": 74}, {"time": 1715, "pitch": 55, "duration": 2, "velocity": 77}, {"time": 1721, "pitch": 48, "duration": 22, "velocity": 66}, {"time": 1721, "pitch": 60, "duration": 10, "velocity": 64}, {"time": 1721, "pitch": 63, "duration": 8, "velocity": 65}, {"time": 1727, "pitch": 54, "duration": 3, "velocity": 74}, {"time": 1733, "pitch": 67, "duration": 7, "velocity": 81}, {"time": 1739, "pitch": 60, "duration": 5, "velocity": 76}, {"time": 1745, "pitch": 48, "duration": 15, "velocity": 75}, {"time": 1745, "pitch": 60, "duration": 9, "velocity": 73}, {"time": 1745, "pitch": 64, "duration": 8, "velocity": 71}, {"time": 1751, "pitch": 55, "duration": 6, "velocity": 60}, {"time": 1757, "pitch": 64, "duration": 6, "velocity": 64}, {"time": 1757, "pitch": 67, "duration": 7, "velocity": 74}, {"time": 1763, "pitch": 60, "duration": 8, "velocity": 78}, {"time": 1769, "pitch": 41, "duration": 17, "velocity": 75}, {"time": 1769, "pitch": 65, "duration": 14, "velocity": 76}, {"time": 1775, "pitch": 48, "duration": 10, "velocity": 74}, {"time": 1781, "pitch": 57, "duration": 12, "velocity": 81}, {"time": 1793, "pitch": 46, "duration": 23, "velocity": 73}, {"time": 1793, "pitch": 58, "duration": 13, "velocity": 62}, {"time": 1799, "pitch": 53, "duration": 14, "velocity": 72}, {"time": 1805, "pitch": 62, "duration": 6, "velocity": 69}, {"time": 1811, "pitch": 58, "duration": 8, "velocity": 76}, {"time": 1817, "pitch": 51, "duration": 17, "velocity": 69}, {"time": 1817, "pitch": 63, "duration": 8, "velocity": 70}, {"time": 1823, "pitch": 58, "duration": 7, "velocity": 69}, {"time": 1829, "pitch": 65, "duration": 6, "velocity": 75}, {"time": 1835, "pitch": 63, "duration": 6, "velocity": 66}, {"time": 1841, "pitch": 46, "duration": 23, "velocity": 74}, {"time": 1841, "pitch": 58, "duration": 8, "velocity": 64}, {"time": 1841, "pitch": 62, "duration": 8, "velocity": 58}, {"time": 1847, "pitch": 53, "duration": 13, "velocity": 71}, {"time": 1853, "pitch": 62, "duration": 6, "velocity": 76}, {"time": 1853, "pitch": 65, "duration": 6, "velocity": 74}, {"time": 1859, "pitch": 58, "duration": 7, "velocity": 74}, {"time": 1865, "pitch": 51, "duration": 17, "velocity": 69}, {"time": 1865, "pitch": 63, "duration": 8, "velocity": 72}, {"time": 1871, "pitch": 58, "duration": 8, "velocity": 70}, {"time": 1877, "pitch": 65, "duration": 7, "velocity": 76}, {"time": 1883, "pitch": 63, "duration": 6, "velocity": 70}, {"time": 1889, "pitch": 46, "duration": 41, "velocity": 74}, {"time": 1889, "pitch": 58, "duration": 11, "velocity": 63}, {"time": 1889, "pitch": 65, "duration": 11, "velocity": 71}, {"time": 1895, "pitch": 53, "duration": 9, "velocity": 65}, {"time": 1901, "pitch": 62, "duration": 9, "velocity": 76}, {"time": 1907, "pitch": 53, "duration": 9, "velocity": 65}, {"time": 1913, "pitch": 58, "duration": 9, "velocity": 66}, {"time": 1913, "pitch": 65, "duration": 10, "velocity": 72}, {"time": 1919, "pitch": 53, "duration": 9, "velocity": 63}, {"time": 1925, "pitch": 58, "duration": 3, "velocity": 73}, {"time": 1925, "pitch": 62, "duration": 7, "velocity": 75}, {"time": 1931, "pitch": 58, "duration": 9, "velocity": 75}, {"time": 1937, "pitch": 43, "duration": 14, "velocity": 68}, {"time": 1937, "pitch": 67, "duration": 17, "velocity": 65}, {"time": 1943, "pitch": 50, "duration": 8, "velocity": 55}, {"time": 1949, "pitch": 62, "duration": 7, "velocity": 77}, {"time": 1955, "pitch": 58, "duration": 3, "velocity": 75}, {"time": 1961, "pitch": 48, "duration": 15, "velocity": 74}, {"time": 1961, "pitch": 60, "duration": 9, "velocity": 67}, {"time": 1961, "pitch": 63, "duration": 9, "velocity": 70}, {"time": 1967, "pitch": 55, "duration": 7, "velocity": 57}, {"time": 1973, "pitch": 60, "duration": 3, "velocity": 71}, {"time": 1973, "pitch": 63, "duration": 8, "velocity": 73}, {"time": 1973, "pitch": 67, "duration": 8, "velocity": 68}, {"time": 1979, "pitch": 60, "duration": 9, "velocity": 74}, {"time": 1985, "pitch": 41, "duration": 43, "velocity": 75}, {"time": 1985, "pitch": 57, "duration": 13, "velocity": 72}, {"time": 1991, "pitch": 48, "duration": 8, "velocity": 64}, {"time": 1997, "pitch": 53, "duration": 14, "velocity": 79}, {"time": 2003, "pitch": 48, "duration": 24, "velocity": 61}, {"time": 2009, "pitch": 60, "duration": 18, "velocity": 71}, {"time": 2015, "pitch": 53, "duration": 7, "velocity": 76}, {"time": 2021, "pitch": 65, "duration": 13, "velocity": 75}, {"time": 2027, "pitch": 53, "duration": 6, "velocity": 78}, {"time": 2033, "pitch": 46, "duration": 16, "velocity": 71}, {"time": 2033, "pitch": 58, "duration": 9, "velocity": 65}, {"time": 2039, "pitch": 53, "duration": 9, "velocity": 75}, {"time": 2045, "pitch": 58, "duration": 6, "velocity": 73}, {"time": 2045, "pitch": 62, "duration": 7, "velocity": 75}, {"time": 2051, "pitch": 46, "duration": 5, "velocity": 75}, {"time": 2057, "pitch": 48, "duration": 16, "velocity": 74}, {"time": 2057, "pitch": 60, "duration": 9, "velocity": 66}, {"time": 2057, "pitch": 63, "duration": 8, "velocity": 70}, {"time": 2063, "pitch": 55, "duration": 7, "velocity": 60}, {"time": 2069, "pitch": 60, "duration": 3, "velocity": 67}, {"time": 2069, "pitch": 63, "duration": 8, "velocity": 74}, {"time": 2069, "pitch": 67, "duration": 8, "velocity": 69}, {"time": 2075, "pitch": 60, "duration": 8, "velocity": 75}, {"time": 2081, "pitch": 41, "duration": 16, "velocity": 75}, {"time": 2081, "pitch": 53, "duration": 12, "velocity": 67}, {"time": 2081, "pitch": 60, "duration": 2, "velocity": 67}, {"time": 2087, "pitch": 48, "duration": 9, "velocity": 64}, {"time": 2093, "pitch": 57, "duration": 6, "velocity": 75}, {"time": 2099, "pitch": 53, "duration": 6, "velocity": 80}, {"time": 2105, "pitch": 46, "duration": 48, "velocity": 74}, {"time": 2105, "pitch": 58, "duration": 14, "velocity": 67}, {"time": 2111, "pitch": 53, "duration": 33, "velocity": 63}, {"time": 2117, "pitch": 62, "duration": 8, "velocity": 66}, {"time": 2123, "pitch": 58, "duration": 19, "velocity": 71}, {"time": 2129, "pitch": 65, "duration": 6, "velocity": 74}, {"time": 2135, "pitch": 62, "duration": 18, "velocity": 78}, {"time": 2141, "pitch": 70, "duration": 12, "velocity": 75}, {"time": 2147, "pitch": 53, "duration": 6, "velocity": 70}, {"time": 2153, "pitch": 46, "duration": 46, "velocity": 74}, {"time": 2159, "pitch": 53, "duration": 9, "velocity": 66}, {"time": 2165, "pitch": 62, "duration": 10, "velocity": 72}, {"time": 2171, "pitch": 53, "duration": 9, "velocity": 61}, {"time": 2177, "pitch": 65, "duration": 18, "velocity": 73}, {"time": 2183, "pitch": 53, "duration": 15, "velocity": 52}, {"time": 2189, "pitch": 62, "duration": 7, "velocity": 76}, {"time": 2195, "pitch": 70, "duration": 13, "velocity": 72}, {"time": 2201, "pitch": 46, "duration": 42, "velocity": 75}, {"time": 2207, "pitch": 53, "duration": 8, "velocity": 62}, {"time": 2213, "pitch": 62, "duration": 11, "velocity": 74}, {"time": 2219, "pitch": 53, "duration": 9, "velocity": 56}, {"time": 2225, "pitch": 65, "duration": 14, "velocity": 74}, {"time": 2231, "pitch": 53, "duration": 11, "velocity": 59}, {"time": 2237, "pitch": 70, "duration": 9, "velocity": 73}, {"time": 2243, "pitch": 58, "duration": 12, "velocity": 75}, {"time": 2249, "pitch": 43, "duration": 17, "velocity": 71}, {"time": 2255, "pitch": 50, "duration": 12, "velocity": 50}, {"time": 2261, "pitch": 62, "duration": 8, "velocity": 78}, {"time": 2267, "pitch": 58, "duration": 7, "velocity": 75}, {"time": 2273, "pitch": 48, "duration": 22, "velocity": 74}, {"time": 2279, "pitch": 55, "duration": 11, "velocity": 59}, {"time": 2285, "pitch": 63, "duration": 7, "velocity": 73}, {"time": 2291, "pitch": 60, "duration": 8, "velocity": 75}, {"time": 2297, "pitch": 52, "duration": 11, "velocity": 75}, {"time": 2297, "pitch": 64, "duration": 13, "velocity": 74}, {"time": 2303, "pitch": 55, "duration": 7, "velocity": 61}, {"time": 2309, "pitch": 67, "duration": 7, "velocity": 77}, {"time": 2315, "pitch": 60, "duration": 8, "velocity": 75}, {"time": 2321, "pitch": 41, "duration": 25, "velocity": 66}, {"time": 2321, "pitch": 65, "duration": 24, "velocity": 69}, {"time": 2327, "pitch": 48, "duration": 18, "velocity": 62}, {"time": 2333, "pitch": 57, "duration": 12, "velocity": 79}, {"time": 2339, "pitch": 53, "duration": 6, "velocity": 77}, {"time": 2345, "pitch": 46, "duration": 23, "velocity": 74}, {"time": 2345, "pitch": 62, "duration": 13, "velocity": 71}, {"time": 2351, "pitch": 53, "duration": 7, "velocity": 69}, {"time": 2357, "pitch": 58, "duration": 13, "velocity": 76}, {"time": 2363, "pitch": 53, "duration": 6, "velocity": 69}, {"time": 2369, "pitch": 51, "duration": 18, "velocity": 75}, {"time": 2369, "pitch": 63, "duration": 8, "velocity": 70}, {"time": 2375, "pitch": 58, "duration": 8, "velocity": 65}, {"time": 2381, "pitch": 67, "duration": 6, "velocity": 77}, {"time": 2387, "pitch": 58, "duration": 7, "velocity": 75}, {"time": 2393, "pitch": 46, "duration": 21, "velocity": 75}, {"time": 2393, "pitch": 62, "duration": 11, "velocity": 68}, {"time": 2399, "pitch": 53, "duration": 15, "velocity": 68}, {"time": 2405, "pitch": 62, "duration": 8, "velocity": 60}, {"time": 2405, "pitch": 65, "duration": 8, "velocity": 72}, {"time": 2411, "pitch": 58, "duration": 8, "velocity": 69}, {"time": 2417, "pitch": 51, "duration": 16, "velocity": 68}, {"time": 2417, "pitch": 63, "duration": 10, "velocity": 69}, {"time": 2423, "pitch": 58, "duration": 8, "velocity": 69}, {"time": 2429, "pitch": 63, "duration": 1, "velocity": 30}, {"time": 2429, "pitch": 67, "duration": 9, "velocity": 76}, {"time": 2435, "pitch": 58, "duration": 8, "velocity": 74}, {"time": 2441, "pitch": 43, "duration": 17, "velocity": 67}, {"time": 2441, "pitch": 62, "duration": 18, "velocity": 69}, {"time": 2447, "pitch": 50, "duration": 12, "velocity": 61}, {"time": 2453, "pitch": 67, "duration": 13, "velocity": 75}, {"time": 2459, "pitch": 58, "duration": 4, "velocity": 75}, {"time": 2465, "pitch": 48, "duration": 17, "velocity": 74}, {"time": 2465, "pitch": 63, "duration": 10, "velocity": 71}, {"time": 2471, "pitch": 55, "duration": 8, "velocity": 58}, {"time": 2477, "pitch": 60, "duration": 3, "velocity": 68}, {"time": 2477, "pitch": 67, "duration": 9, "velocity": 66}, {"time": 2483, "pitch": 60, "duration": 8, "velocity": 74}, {"time": 2489, "pitch": 41, "duration": 39, "velocity": 75}, {"time": 2489, "pitch": 65, "duration": 18, "velocity": 71}, {"time": 2495, "pitch": 48, "duration": 32, "velocity": 57}, {"time": 2501, "pitch": 57, "duration": 8, "velocity": 69}, {"time": 2507, "pitch": 53, "duration": 9, "velocity": 78}, {"time": 2513, "pitch": 60, "duration": 10, "velocity": 71}, {"time": 2519, "pitch": 53, "duration": 7, "velocity": 78}, {"time": 2525, "pitch": 57, "duration": 6, "velocity": 77}, {"time": 2525, "pitch": 60, "duration": 7, "velocity": 72}, {"time": 2531, "pitch": 53, "duration": 3, "velocity": 79}, {"time": 2537, "pitch": 46, "duration": 20, "velocity": 73}, {"time": 2537, "pitch": 62, "duration": 12, "velocity": 70}, {"time": 2543, "pitch": 53, "duration": 8, "velocity": 70}, {"time": 2549, "pitch": 58, "duration": 9, "velocity": 74}, {"time": 2555, "pitch": 50, "duration": 4, "velocity": 62}, {"time": 2561, "pitch": 53, "duration": 14, "velocity": 70}, {"time": 2561, "pitch": 60, "duration": 3, "velocity": 65}, {"time": 2561, "pitch": 65, "duration": 9, "velocity": 71}, {"time": 2567, "pitch": 60, "duration": 8, "velocity": 74}, {"time": 2573, "pitch": 65, "duration": 6, "velocity": 74}, {"time": 2573, "pitch": 69, "duration": 6, "velocity": 77}, {"time": 2579, "pitch": 60, "duration": 3, "velocity": 75}, {"time": 2585, "pitch": 46, "duration": 18, "velocity": 74}, {"time": 2585, "pitch": 58, "duration": 10, "velocity": 70}, {"time": 2585, "pitch": 62, "duration": 8, "velocity": 67}, {"time": 2591, "pitch": 53, "duration": 8, "velocity": 70}, {"time": 2597, "pitch": 62, "duration": 8, "velocity": 74}, {"time": 2597, "pitch": 65, "duration": 17, "velocity": 74}, {"time": 2603, "pitch": 58, "duration": 15, "velocity": 77}, {"time": 2609, "pitch": 46, "duration": 23, "velocity": 75}, {"time": 2615, "pitch": 53, "duration": 17, "velocity": 61}, {"time": 2621, "pitch": 62, "duration": 6, "velocity": 80}, {"time": 2627, "pitch": 58, "duration": 8, "velocity": 78}, {"time": 2633, "pitch": 46, "duration": 22, "velocity": 64}, {"time": 2633, "pitch": 65, "duration": 9, "velocity": 73}, {"time": 2639, "pitch": 53, "duration": 16, "velocity": 61}, {"time": 2645, "pitch": 62, "duration": 5, "velocity": 59}, {"time": 2645, "pitch": 65, "duration": 8, "velocity": 75}, {"time": 2645, "pitch": 70, "duration": 7, "velocity": 72}, {"time": 2651, "pitch": 58, "duration": 13, "velocity": 71}, {"time": 2657, "pitch": 46, "duration": 17, "velocity": 68}, {"time": 2663, "pitch": 53, "duration": 10, "velocity": 63}, {"time": 2669, "pitch": 58, "duration": 3, "velocity": 70}, {"time": 2669, "pitch": 62, "duration": 5, "velocity": 76}, {"time": 2675, "pitch": 57, "duration": 4, "velocity": 76}, {"time": 2681, "pitch": 43, "duration": 14, "velocity": 65}, {"time": 2681, "pitch": 55, "duration": 8, "velocity": 74}, {"time": 2687, "pitch": 50, "duration": 8, "velocity": 70}, {"time": 2693, "pitch": 55, "duration": 2, "velocity": 76}, {"time": 2693, "pitch": 58, "duration": 7, "velocity": 74}, {"time": 2699, "pitch": 55, "duration": 2, "velocity": 77}, {"time": 2705, "pitch": 48, "duration": 22, "velocity": 66}, {"time": 2705, "pitch": 60, "duration": 10, "velocity": 64}, {"time": 2705, "pitch": 63, "duration": 8, "velocity": 65}, {"time": 2711, "pitch": 54, "duration": 3, "velocity": 74}, {"time": 2717, "pitch": 67, "duration": 7, "velocity": 81}, {"time": 2723, "pitch": 60, "duration": 5, "velocity": 76}, {"time": 2729, "pitch": 48, "duration": 15, "velocity": 75}, {"time": 2729, "pitch": 60, "duration": 9, "velocity": 73}, {"time": 2729, "pitch": 64, "duration": 8, "velocity": 71}, {"time": 2735, "pitch": 55, "duration": 6, "velocity": 60}, {"time": 2741, "pitch": 64, "duration": 6, "velocity": 64}, {"time": 2741, "pitch": 67, "duration": 7, "velocity": 74}, {"time": 2747, "pitch": 60, "duration": 8, "velocity": 78}, {"time": 2753, "pitch": 41, "duration": 17, "velocity": 75}, {"time": 2753, "pitch": 65, "duration": 14, "velocity": 76}, {"time": 2759, "pitch": 48, "duration": 10, "velocity": 74}, {"time": 2765, "pitch": 57, "duration": 12, "velocity": 81}, {"time": 2777, "pitch": 46, "duration": 23, "velocity": 73}, {"time": 2777, "pitch": 58, "duration": 13, "velocity": 62}, {"time": 2783, "pitch": 53, "duration": 14, "velocity": 72}, {"time": 2789, "pitch": 62, "duration": 6, "velocity": 69}, {"time": 2795, "pitch": 58, "duration": 8, "velocity": 76}, {"time": 2801, "pitch": 51, "duration": 17, "velocity": 69}, {"time": 2801, "pitch": 63, "duration": 8, "velocity": 70}, {"time": 2807, "pitch": 58, "duration": 7, "velocity": 69}, {"time": 2813, "pitch": 65, "duration": 6, "velocity": 75}, {"time": 2819, "pitch": 63, "duration": 6, "velocity": 66}, {"time": 2825, "pitch": 46, "duration": 23, "velocity": 74}, {"time": 2825, "pitch": 58, "duration": 8, "velocity": 64}, {"time": 2825, "pitch": 62, "duration": 8, "velocity": 58}, {"time": 2831, "pitch": 53, "duration": 13, "velocity": 71}, {"time": 2837, "pitch": 62, "duration": 6, "velocity": 76}, {"time": 2837, "pitch": 65, "duration": 6, "velocity": 74}, {"time": 2843, "pitch": 58, "duration": 7, "velocity": 74}, {"time": 2849, "pitch": 51, "duration": 17, "velocity": 69}, {"time": 2849, "pitch": 63, "duration": 8, "velocity": 72}, {"time": 2855, "pitch": 58, "duration": 8, "velocity": 70}, {"time": 2861, "pitch": 65, "duration": 7, "velocity": 76}, {"time": 2867, "pitch": 63, "duration": 6, "velocity": 70}, {"time": 2873, "pitch": 46, "duration": 41, "velocity": 74}, {"time": 2873, "pitch": 58, "duration": 11, "velocity": 63}, {"time": 2873, "pitch": 65, "duration": 11, "velocity": 71}, {"time": 2879, "pitch": 53, "duration": 9, "velocity": 65}, {"time": 2885, "pitch": 62, "duration": 9, "velocity": 76}, {"time": 2891, "pitch": 53, "duration": 9, "velocity": 65}, {"time": 2897, "pitch": 58, "duration": 9, "velocity": 66}, {"time": 2897, "pitch": 65, "duration": 10, "velocity": 72}, {"time": 2903, "pitch": 53, "duration": 9, "velocity": 63}, {"time": 2909, "pitch": 58, "duration": 3, "velocity": 73}, {"time": 2909, "pitch": 62, "duration": 7, "velocity": 75}, {"time": 2915, "pitch": 58, "duration": 9, "velocity": 75}, {"time": 2921, "pitch": 43, "duration": 14, "velocity": 68}, {"time": 2921, "pitch": 67, "duration": 17, "velocity": 65}, {"time": 2927, "pitch": 50, "duration": 8, "velocity": 55}, {"time": 2933, "pitch": 62, "duration": 7, "velocity": 77}, {"time": 2939, "pitch": 58, "duration": 3, "velocity": 75}, {"time": 2945, "pitch": 48, "duration": 15, "velocity": 74}, {"time": 2945, "pitch": 60, "duration": 9, "velocity": 67}, {"time": 2945, "pitch": 63, "duration": 9, "velocity": 70}, {"time": 2951, "pitch": 55, "duration": 7, "velocity": 57}, {"time": 2957, "pitch": 60, "duration": 3, "velocity": 71}, {"time": 2957, "pitch": 63, "duration": 8, "velocity": 73}, {"time": 2957, "pitch": 67, "duration": 8, "velocity": 68}, {"time": 2963, "pitch": 60, "duration": 9, "velocity": 74}, {"time": 2969, "pitch": 41, "duration": 43, "velocity": 75}, {"time": 2969, "pitch": 57, "duration": 13, "velocity": 72}, {"time": 2975, "pitch": 48, "duration": 8, "velocity": 64}, {"time": 2981, "pitch": 53, "duration": 14, "velocity": 79}, {"time": 2987, "pitch": 48, "duration": 24, "velocity": 61}, {"time": 2993, "pitch": 60, "duration": 18, "velocity": 71}, {"time": 2999, "pitch": 53, "duration": 7, "velocity": 76}, {"time": 3005, "pitch": 65, "duration": 13, "velocity": 75}, {"time": 3011, "pitch": 53, "duration": 6, "velocity": 78}, {"time": 3018, "pitch": 46, "duration": 21, "velocity": 75}, {"time": 3024, "pitch": 53, "duration": 17, "velocity": 75}, {"time": 3030, "pitch": 62, "duration": 14, "velocity": 66}, {"time": 3030, "pitch": 58, "duration": 3, "velocity": 65}, {"time": 3030, "pitch": 65, "duration": 20, "velocity": 74}, {"time": 3037, "pitch": 58, "duration": 7, "velocity": 71}, {"time": 3043, "pitch": 48, "duration": 24, "velocity": 75}, {"time": 3050, "pitch": 55, "duration": 12, "velocity": 63}, {"time": 3057, "pitch": 60, "duration": 14, "velocity": 77}, {"time": 3066, "pitch": 63, "duration": 10, "velocity": 76}, {"time": 3076, "pitch": 41, "duration": 32, "velocity": 76}, {"time": 3076, "pitch": 65, "duration": 20, "velocity": 74}, {"time": 3086, "pitch": 48, "duration": 20, "velocity": 62}, {"time": 3094, "pitch": 53, "duration": 3, "velocity": 62}, {"time": 3095, "pitch": 57, "duration": 3, "velocity": 53}, {"time": 3096, "pitch": 60, "duration": 4, "velocity": 68}, {"time": 3099, "pitch": 65, "duration": 22, "velocity": 75}, {"time": 3119, "pitch": 46, "duration": 72, "velocity": 75}, {"time": 3126, "pitch": 53, "duration": 63, "velocity": 69}, {"time": 3130, "pitch": 60, "duration": 4, "velocity": 68}, {"time": 3135, "pitch": 62, "duration": 2, "velocity": 79}, {"time": 3139, "pitch": 65, "duration": 2, "velocity": 66}, {"time": 3143, "pitch": 70, "duration": 3, "velocity": 65}, {"time": 3148, "pitch": 72, "duration": 1, "velocity": 74}, {"time": 3152, "pitch": 74, "duration": 1, "velocity": 77}, {"time": 3157, "pitch": 77, "duration": 2, "velocity": 70}, {"time": 3161, "pitch": 82, "duration": 3, "velocity": 63}, {"time": 3166, "pitch": 84, "duration": 2, "velocity": 62}, {"time": 3171, "pitch": 86, "duration": 3, "velocity": 73}, {"time": 3177, "pitch": 89, "duration": 1, "velocity": 74}, {"time": 3183, "pitch": 94, "duration": 1, "velocity": 69}], "annotations": [{"time": 92, "annotation": {"number": 64, "value": 127}, "group": "control_change"}, {"time": 135, "annotation": {"number": 64, "value": 0}, "group": "control_change"}, {"time": 140, "annotation": {"number": 64, "value": 127}, "group": "control_change"}, {"time": 180, "annotation": {"number": 64, "value": 0}, "group": "control_change"}, {"time": 188, "annotation": {"number": 64, "value": 127}, "group": "control_change"}, {"time": 232, "annotation": {"number": 64, "value": 0}, "group": "control_change"}, {"time": 237, "annotation": {"number": 64, "value": 127}, "group": "control_change"}, {"time": 278, "annotation": {"number": 64, "value": 0}, "group": "control_change"}, {"time": 285, "annotation": {"number": 64, "value": 127}, "group": "control_change"}, {"time": 304, "annotation": {"number": 64, "value": 0}, "group": "control_change"}, {"time": 308, "annotation": {"number": 64, "value": 127}, "group": "control_change"}, {"time": 327, "annotation": {"number": 64, "value": 0}, "group": "control_change"}, {"time": 329, "annotation": {"number": 64, "value": 127}, "group": "control_change"}, {"time": 350, "annotation": {"number": 64, "value": 0}, "group": "control_change"}, {"time": 353, "annotation": {"number": 64, "value": 127}, "group": "control_change"}, {"time": 373, "annotation": {"number": 64, "value": 0}, "group": "control_change"}, {"time": 380, "annotation": {"number": 64, "value": 127}, "group": "control_change"}, {"time": 381, "annotation": {"number": 64, "value": 0}, "group": "control_change"}, {"time": 381, "annotation": {"number": 64, "value": 127}, "group": "control_change"}, {"time": 398, "annotation": {"number": 64, "value": 0}, "group": "control_change"}, {"time": 401, "annotation": {"number": 64, "value": 127}, "group": "control_change"}, {"time": 423, "annotation": {"number": 64, "value": 0}, "group": "control_change"}, {"time": 426, "annotation": {"number": 64, "value": 127}, "group": "control_change"}, {"time": 446, "annotation": {"number": 64, "value": 0}, "group": "control_change"}, {"time": 449, "annotation": {"number": 64, "value": 127}, "group": "control_change"}, {"time": 470, "annotation": {"number": 64, "value": 0}, "group": "control_change"}, {"time": 473, "annotation": {"number": 64, "value": 127}, "group": "control_change"}, {"time": 495, "annotation": {"number": 64, "value": 0}, "group": "control_change"}, {"time": 498, "annotation": {"number": 64, "value": 127}, "group": "control_change"}, {"time": 520, "annotation": {"number": 64, "value": 0}, "group": "control_change"}, {"time": 522, "annotation": {"number": 64, "value": 127}, "group": "control_change"}, {"time": 544, "annotation": {"number": 64, "value": 0}, "group": "control_change"}, {"time": 545, "annotation": {"number": 64, "value": 127}, "group": "control_change"}, {"time": 568, "annotation": {"number": 64, "value": 0}, "group": "control_change"}, {"time": 572, "annotation": {"number": 64, "value": 127}, "group": "control_change"}, {"time": 592, "annotation": {"number": 64, "value": 0}, "group": "control_change"}, {"time": 593, "annotation": {"number": 64, "value": 127}, "group": "control_change"}, {"time": 615, "annotation": {"number": 64, "value": 0}, "group": "control_change"}, {"time": 639, "annotation": {"number": 64, "value": 0}, "group": "control_change"}, {"time": 641, "annotation": {"number": 64, "value": 127}, "group": "control_change"}, {"time": 665, "annotation": {"number": 64, "value": 0}, "group": "control_change"}, {"time": 668, "annotation": {"number": 64, "value": 127}, "group": "control_change"}, {"time": 687, "annotation": {"number": 64, "value": 0}, "group": "control_change"}, {"time": 691, "annotation": {"number": 64, "value": 127}, "group": "control_change"}, {"time": 712, "annotation": {"number": 64, "value": 0}, "group": "control_change"}, {"time": 715, "annotation": {"number": 64, "value": 127}, "group": "control_change"}, {"time": 738, "annotation": {"number": 64, "value": 0}, "group": "control_change"}, {"time": 743, "annotation": {"number": 64, "value": 127}, "group": "control_change"}, {"time": 759, "annotation": {"number": 64, "value": 0}, "group": "control_change"}, {"time": 762, "annotation": {"number": 64, "value": 127}, "group": "control_change"}, {"time": 763, "annotation": {"number": 64, "value": 0}, "group": "control_change"}, {"time": 763, "annotation": {"number": 64, "value": 127}, "group": "control_change"}, {"time": 783, "annotation": {"number": 64, "value": 0}, "group": "control_change"}, {"time": 786, "annotation": {"number": 64, "value": 127}, "group": "control_change"}, {"time": 807, "annotation": {"number": 64, "value": 0}, "group": "control_change"}, {"time": 809, "annotation": {"number": 64, "value": 127}, "group": "control_change"}, {"time": 831, "annotation": {"number": 64, "value": 0}, "group": "control_change"}, {"time": 834, "annotation": {"number": 64, "value": 127}, "group": "control_change"}, {"time": 855, "annotation": {"number": 64, "value": 0}, "group": "control_change"}, {"time": 858, "annotation": {"number": 64, "value": 127}, "group": "control_change"}, {"time": 878, "annotation": {"number": 64, "value": 0}, "group": "control_change"}, {"time": 881, "annotation": {"number": 64, "value": 127}, "group": "control_change"}, {"time": 903, "annotation": {"number": 64, "value": 0}, "group": "control_change"}, {"time": 909, "annotation": {"number": 64, "value": 127}, "group": "control_change"}, {"time": 951, "annotation": {"number": 64, "value": 0}, "group": "control_change"}, {"time": 958, "annotation": {"number": 64, "value": 127}, "group": "control_change"}, {"time": 976, "annotation": {"number": 64, "value": 0}, "group": "control_change"}, {"time": 979, "annotation": {"number": 64, "value": 127}, "group": "control_change"}, {"time": 1000, "annotation": {"number": 64, "value": 0}, "group": "control_change"}, {"time": 1004, "annotation": {"number": 64, "value": 127}, "group": "control_change"}, {"time": 1047, "annotation": {"number": 64, "value": 0}, "group": "control_change"}, {"time": 1050, "annotation": {"number": 64, "value": 127}, "group": "control_change"}, {"time": 1071, "annotation": {"number": 64, "value": 0}, "group": "control_change"}, {"time": 1073, "annotation": {"number": 64, "value": 127}, "group": "control_change"}, {"time": 1095, "annotation": {"number": 64, "value": 0}, "group": "control_change"}, {"time": 1097, "annotation": {"number": 64, "value": 127}, "group": "control_change"}, {"time": 1097, "annotation": {"number": 64, "value": 0}, "group": "control_change"}, {"time": 1118, "annotation": {"number": 64, "value": 0}, "group": "control_change"}, {"time": 1121, "annotation": {"number": 64, "value": 127}, "group": "control_change"}, {"time": 1155, "annotation": {"number": 64, "value": 0}, "group": "control_change"}, {"time": 1155, "annotation": {"number": 64, "value": 127}, "group": "control_change"}, {"time": 1168, "annotation": {"number": 64, "value": 0}, "group": "control_change"}, {"time": 1172, "annotation": {"number": 64, "value": 127}, "group": "control_change"}, {"time": 1216, "annotation": {"number": 64, "value": 0}, "group": "control_change"}, {"time": 1221, "annotation": {"number": 64, "value": 127}, "group": "control_change"}, {"time": 1262, "annotation": {"number": 64, "value": 0}, "group": "control_change"}, {"time": 1269, "annotation": {"number": 64, "value": 127}, "group": "control_change"}, {"time": 1288, "annotation": {"number": 64, "value": 0}, "group": "control_change"}, {"time": 1292, "annotation": {"number": 64, "value": 127}, "group": "control_change"}, {"time": 1311, "annotation": {"number": 64, "value": 0}, "group": "control_change"}, {"time": 1313, "annotation": {"number": 64, "value": 127}, "group": "control_change"}, {"time": 1334, "annotation": {"number": 64, "value": 0}, "group": "control_change"}, {"time": 1337, "annotation": {"number": 64, "value": 127}, "group": "control_change"}, {"time": 1357, "annotation": {"number": 64, "value": 0}, "group": "control_change"}, {"time": 1364, "annotation": {"number": 64, "value": 127}, "group": "control_change"}, {"time": 1365, "annotation": {"number": 64, "value": 0}, "group": "control_change"}, {"time": 1365, "annotation": {"number": 64, "value": 127}, "group": "control_change"}, {"time": 1382, "annotation": {"number": 64, "value": 0}, "group": "control_change"}, {"time": 1385, "annotation": {"number": 64, "value": 127}, "group": "control_change"}, {"time": 1407, "annotation": {"number": 64, "value": 0}, "group": "control_change"}, {"time": 1410, "annotation": {"number": 64, "value": 127}, "group": "control_change"}, {"time": 1430, "annotation": {"number": 64, "value": 0}, "group": "control_change"}, {"time": 1433, "annotation": {"number": 64, "value": 127}, "group": "control_change"}, {"time": 1454, "annotation": {"number": 64, "value": 0}, "group": "control_change"}, {"time": 1457, "annotation": {"number": 64, "value": 127}, "group": "control_change"}, {"time": 1479, "annotation": {"number": 64, "value": 0}, "group": "control_change"}, {"time": 1482, "annotation": {"number": 64, "value": 127}, "group": "control_change"}, {"time": 1504, "annotation": {"number": 64, "value": 0}, "group": "control_change"}, {"time": 1506, "annotation": {"number": 64, "value": 127}, "group": "control_change"}, {"time": 1528, "annotation": {"number": 64, "value": 0}, "group": "control_change"}, {"time": 1529, "annotation": {"number": 64, "value": 127}, "group": "control_change"}, {"time": 1552, "annotation": {"number": 64, "value": 0}, "group": "control_change"}, {"time": 1556, "annotation": {"number": 64, "value": 127}, "group": "control_change"}, {"time": 1576, "annotation": {"number": 64, "value": 0}, "group": "control_change"}, {"time": 1577, "annotation": {"number": 64, "value": 127}, "group": "control_change"}, {"time": 1599, "annotation": {"number": 64, "value": 0}, "group": "control_change"}, {"time": 1623, "annotation": {"number": 64, "value": 0}, "group": "control_change"}, {"time": 1625, "annotation": {"number": 64, "value": 127}, "group": "control_change"}, {"time": 1649, "annotation": {"number": 64, "value": 0}, "group": "control_change"}, {"time": 1652, "annotation": {"number": 64, "value": 127}, "group": "control_change"}, {"time": 1671, "annotation": {"number": 64, "value": 0}, "group": "control_change"}, {"time": 1675, "annotation": {"number": 64, "value": 127}, "group": "control_change"}, {"time": 1696, "annotation": {"number": 64, "value": 0}, "group": "control_change"}, {"time": 1699, "annotation": {"number": 64, "value": 127}, "group": "control_change"}, {"time": 1722, "annotation": {"number": 64, "value": 0}, "group": "control_change"}, {"time": 1727, "annotation": {"number": 64, "value": 127}, "group": "control_change"}, {"time": 1743, "annotation": {"number": 64, "value": 0}, "group": "control_change"}, {"time": 1746, "annotation": {"number": 64, "value": 127}, "group": "control_change"}, {"time": 1747, "annotation": {"number": 64, "value": 0}, "group": "control_change"}, {"time": 1747, "annotation": {"number": 64, "value": 127}, "group": "control_change"}, {"time": 1767, "annotation": {"number": 64, "value": 0}, "group": "control_change"}, {"time": 1770, "annotation": {"number": 64, "value": 127}, "group": "control_change"}, {"time": 1791, "annotation": {"number": 64, "value": 0}, "group": "control_change"}, {"time": 1793, "annotation": {"number": 64, "value": 127}, "group": "control_change"}, {"time": 1815, "annotation": {"number": 64, "value": 0}, "group": "control_change"}, {"time": 1818, "annotation": {"number": 64, "value": 127}, "group": "control_change"}, {"time": 1839, "annotation": {"number": 64, "value": 0}, "group": "control_change"}, {"time": 1842, "annotation": {"number": 64, "value": 127}, "group": "control_change"}, {"time": 1862, "annotation": {"number": 64, "value": 0}, "group": "control_change"}, {"time": 1865, "annotation": {"number": 64, "value": 127}, "group": "control_change"}, {"time": 1887, "annotation": {"number": 64, "value": 0}, "group": "control_change"}, {"time": 1893, "annotation": {"number": 64, "value": 127}, "group": "control_change"}, {"time": 1935, "annotation": {"number": 64, "value": 0}, "group": "control_change"}, {"time": 1942, "annotation": {"number": 64, "value": 127}, "group": "control_change"}, {"time": 1960, "annotation": {"number": 64, "value": 0}, "group": "control_change"}, {"time": 1963, "annotation": {"number": 64, "value": 127}, "group": "control_change"}, {"time": 1984, "annotation": {"number": 64, "value": 0}, "group": "control_change"}, {"time": 1988, "annotation": {"number": 64, "value": 127}, "group": "control_change"}, {"time": 2031, "annotation": {"number": 64, "value": 0}, "group": "control_change"}, {"time": 2034, "annotation": {"number": 64, "value": 127}, "group": "control_change"}, {"time": 2055, "annotation": {"number": 64, "value": 0}, "group": "control_change"}, {"time": 2057, "annotation": {"number": 64, "value": 127}, "group": "control_change"}, {"time": 2079, "annotation": {"number": 64, "value": 0}, "group": "control_change"}, {"time": 2081, "annotation": {"number": 64, "value": 127}, "group": "control_change"}, {"time": 2081, "annotation": {"number": 64, "value": 0}, "group": "control_change"}, {"time": 2102, "annotation": {"number": 64, "value": 0}, "group": "control_change"}, {"time": 2105, "annotation": {"number": 64, "value": 127}, "group": "control_change"}, {"time": 2139, "annotation": {"number": 64, "value": 0}, "group": "control_change"}, {"time": 2139, "annotation": {"number": 64, "value": 127}, "group": "control_change"}, {"time": 2152, "annotation": {"number": 64, "value": 0}, "group": "control_change"}, {"time": 2156, "annotation": {"number": 64, "value": 127}, "group": "control_change"}, {"time": 2200, "annotation": {"number": 64, "value": 0}, "group": "control_change"}, {"time": 2205, "annotation": {"number": 64, "value": 127}, "group": "control_change"}, {"time": 2246, "annotation": {"number": 64, "value": 0}, "group": "control_change"}, {"time": 2253, "annotation": {"number": 64, "value": 127}, "group": "control_change"}, {"time": 2272, "annotation": {"number": 64, "value": 0}, "group": "control_change"}, {"time": 2276, "annotation": {"number": 64, "value": 127}, "group": "control_change"}, {"time": 2295, "annotation": {"number": 64, "value": 0}, "group": "control_change"}, {"time": 2297, "annotation": {"number": 64, "value": 127}, "group": "control_change"}, {"time": 2318, "annotation": {"number": 64, "value": 0}, "group": "control_change"}, {"time": 2321, "annotation": {"number": 64, "value": 127}, "group": "control_change"}, {"time": 2341, "annotation": {"number": 64, "value": 0}, "group": "control_change"}, {"time": 2348, "annotation": {"number": 64, "value": 127}, "group": "control_change"}, {"time": 2349, "annotation": {"number": 64, "value": 0}, "group": "control_change"}, {"time": 2349, "annotation": {"number": 64, "value": 127}, "group": "control_change"}, {"time": 2366, "annotation": {"number": 64, "value": 0}, "group": "control_change"}, {"time": 2369, "annotation": {"number": 64, "value": 127}, "group": "control_change"}, {"time": 2391, "annotation": {"number": 64, "value": 0}, "group": "control_change"}, {"time": 2394, "annotation": {"number": 64, "value": 127}, "group": "control_change"}, {"time": 2414, "annotation": {"number": 64, "value": 0}, "group": "control_change"}, {"time": 2417, "annotation": {"number": 64, "value": 127}, "group": "control_change"}, {"time": 2438, "annotation": {"number": 64, "value": 0}, "group": "control_change"}, {"time": 2441, "annotation": {"number": 64, "value": 127}, "group": "control_change"}, {"time": 2463, "annotation": {"number": 64, "value": 0}, "group": "control_change"}, {"time": 2466, "annotation": {"number": 64, "value": 127}, "group": "control_change"}, {"time": 2488, "annotation": {"number": 64, "value": 0}, "group": "control_change"}, {"time": 2490, "annotation": {"number": 64, "value": 127}, "group": "control_change"}, {"time": 2512, "annotation": {"number": 64, "value": 0}, "group": "control_change"}, {"time": 2513, "annotation": {"number": 64, "value": 127}, "group": "control_change"}, {"time": 2536, "annotation": {"number": 64, "value": 0}, "group": "control_change"}, {"time": 2540, "annotation": {"number": 64, "value": 127}, "group": "control_change"}, {"time": 2560, "annotation": {"number": 64, "value": 0}, "group": "control_change"}, {"time": 2561, "annotation": {"number": 64, "value": 127}, "group": "control_change"}, {"time": 2583, "annotation": {"number": 64, "value": 0}, "group": "control_change"}, {"time": 2607, "annotation": {"number": 64, "value": 0}, "group": "control_change"}, {"time": 2609, "annotation": {"number": 64, "value": 127}, "group": "control_change"}, {"time": 2633, "annotation": {"number": 64, "value": 0}, "group": "control_change"}, {"time": 2636, "annotation": {"number": 64, "value": 127}, "group": "control_change"}, {"time": 2655, "annotation": {"number": 64, "value": 0}, "group": "control_change"}, {"time": 2659, "annotation": {"number": 64, "value": 127}, "group": "control_change"}, {"time": 2680, "annotation": {"number": 64, "value": 0}, "group": "control_change"}, {"time": 2683, "annotation": {"number": 64, "value": 127}, "group": "control_change"}, {"time": 2706, "annotation": {"number": 64, "value": 0}, "group": "control_change"}, {"time": 2711, "annotation": {"number": 64, "value": 127}, "group": "control_change"}, {"time": 2727, "annotation": {"number": 64, "value": 0}, "group": "control_change"}, {"time": 2730, "annotation": {"number": 64, "value": 127}, "group": "control_change"}, {"time": 2731, "annotation": {"number": 64, "value": 0}, "group": "control_change"}, {"time": 2731, "annotation": {"number": 64, "value": 127}, "group": "control_change"}, {"time": 2751, "annotation": {"number": 64, "value": 0}, "group": "control_change"}, {"time": 2754, "annotation": {"number": 64, "value": 127}, "group": "control_change"}, {"time": 2775, "annotation": {"number": 64, "value": 0}, "group": "control_change"}, {"time": 2777, "annotation": {"number": 64, "value": 127}, "group": "control_change"}, {"time": 2799, "annotation": {"number": 64, "value": 0}, "group": "control_change"}, {"time": 2802, "annotation": {"number": 64, "value": 127}, "group": "control_change"}, {"time": 2823, "annotation": {"number": 64, "value": 0}, "group": "control_change"}, {"time": 2826, "annotation": {"number": 64, "value": 127}, "group": "control_change"}, {"time": 2846, "annotation": {"number": 64, "value": 0}, "group": "control_change"}, {"time": 2849, "annotation": {"number": 64, "value": 127}, "group": "control_change"}, {"time": 2871, "annotation": {"number": 64, "value": 0}, "group": "control_change"}, {"time": 2877, "annotation": {"number": 64, "value": 127}, "group": "control_change"}, {"time": 2919, "annotation": {"number": 64, "value": 0}, "group": "control_change"}, {"time": 2926, "annotation": {"number": 64, "value": 127}, "group": "control_change"}, {"time": 2944, "annotation": {"number": 64, "value": 0}, "group": "control_change"}, {"time": 2947, "annotation": {"number": 64, "value": 127}, "group": "control_change"}, {"time": 2968, "annotation": {"number": 64, "value": 0}, "group": "control_change"}, {"time": 2972, "annotation": {"number": 64, "value": 127}, "group": "control_change"}, {"time": 3015, "annotation": {"number": 64, "value": 0}, "group": "control_change"}, {"time": 3021, "annotation": {"number": 64, "value": 127}, "group": "control_change"}, {"time": 3021, "annotation": {"number": 64, "value": 0}, "group": "control_change"}, {"time": 3023, "annotation": {"number": 64, "value": 127}, "group": "control_change"}, {"time": 3042, "annotation": {"number": 64, "value": 0}, "group": "control_change"}, {"time": 3045, "annotation": {"number": 64, "value": 127}, "group": "control_change"}, {"time": 3074, "annotation": {"number": 64, "value": 0}, "group": "control_change"}, {"time": 3077, "annotation": {"number": 64, "value": 127}, "group": "control_change"}, {"time": 3118, "annotation": {"number": 64, "value": 0}, "group": "control_change"}, {"time": 3121, "annotation": {"number": 64, "value": 127}, "group": "control_change"}, {"time": 3223, "annotation": {"number": 64, "value": 0}, "group": "control_change"}]}]}