{"metadata": {"schema_version": "0.2", "title": "None", "source_filename": "334.mid", "source_format": "midi"}, "resolution": 12, "tempos": [{"time": 0, "qpm": 61.000096583486254}], "time_signatures": [{"time": 0, "numerator": 4, "denominator": 4}], "tracks": [{"program": 4, "is_drum": false, "name": "MELODY", "notes": [{"time": 302, "pitch": 72, "duration": 3, "velocity": 116}, {"time": 305, "pitch": 75, "duration": 6, "velocity": 90}, {"time": 311, "pitch": 72, "duration": 3, "velocity": 100}, {"time": 314, "pitch": 70, "duration": 9, "velocity": 104}, {"time": 323, "pitch": 70, "duration": 3, "velocity": 104}, {"time": 326, "pitch": 72, "duration": 3, "velocity": 107}, {"time": 329, "pitch": 70, "duration": 3, "velocity": 92}, {"time": 332, "pitch": 67, "duration": 4, "velocity": 98}, {"time": 335, "pitch": 65, "duration": 4, "velocity": 89}, {"time": 338, "pitch": 63, "duration": 12, "velocity": 92}, {"time": 350, "pitch": 67, "duration": 9, "velocity": 100}, {"time": 359, "pitch": 70, "duration": 3, "velocity": 108}, {"time": 362, "pitch": 75, "duration": 6, "velocity": 108}, {"time": 368, "pitch": 72, "duration": 6, "velocity": 114}, {"time": 374, "pitch": 70, "duration": 24, "velocity": 114}, {"time": 398, "pitch": 75, "duration": 3, "velocity": 108}, {"time": 401, "pitch": 77, "duration": 2, "velocity": 86}, {"time": 403, "pitch": 75, "duration": 1, "velocity": 84}, {"time": 404, "pitch": 72, "duration": 3, "velocity": 102}, {"time": 407, "pitch": 70, "duration": 3, "velocity": 89}, {"time": 410, "pitch": 72, "duration": 12, "velocity": 108}, {"time": 422, "pitch": 72, "duration": 6, "velocity": 113}, {"time": 428, "pitch": 70, "duration": 4, "velocity": 91}, {"time": 431, "pitch": 72, "duration": 3, "velocity": 100}, {"time": 434, "pitch": 70, "duration": 3, "velocity": 98}, {"time": 437, "pitch": 67, "duration": 9, "velocity": 89}, {"time": 446, "pitch": 70, "duration": 6, "velocity": 108}, {"time": 452, "pitch": 70, "duration": 3, "velocity": 104}, {"time": 455, "pitch": 72, "duration": 3, "velocity": 108}, {"time": 458, "pitch": 70, "duration": 6, "velocity": 108}, {"time": 464, "pitch": 67, "duration": 3, "velocity": 102}, {"time": 467, "pitch": 65, "duration": 3, "velocity": 89}, {"time": 470, "pitch": 65, "duration": 24, "velocity": 93}, {"time": 494, "pitch": 67, "duration": 9, "velocity": 114}, {"time": 503, "pitch": 70, "duration": 3, "velocity": 88}, {"time": 506, "pitch": 72, "duration": 6, "velocity": 110}, {"time": 512, "pitch": 70, "duration": 3, "velocity": 94}, {"time": 515, "pitch": 67, "duration": 3, "velocity": 93}, {"time": 518, "pitch": 65, "duration": 6, "velocity": 102}, {"time": 524, "pitch": 63, "duration": 12, "velocity": 102}, {"time": 536, "pitch": 63, "duration": 3, "velocity": 102}, {"time": 539, "pitch": 65, "duration": 3, "velocity": 98}, {"time": 542, "pitch": 67, "duration": 9, "velocity": 104}, {"time": 551, "pitch": 70, "duration": 3, "velocity": 93}, {"time": 554, "pitch": 75, "duration": 3, "velocity": 110}, {"time": 557, "pitch": 77, "duration": 3, "velocity": 102}, {"time": 560, "pitch": 75, "duration": 3, "velocity": 96}, {"time": 563, "pitch": 70, "duration": 3, "velocity": 87}, {"time": 566, "pitch": 72, "duration": 6, "velocity": 104}, {"time": 572, "pitch": 72, "duration": 3, "velocity": 104}, {"time": 575, "pitch": 70, "duration": 3, "velocity": 102}, {"time": 578, "pitch": 67, "duration": 12, "velocity": 113}, {"time": 590, "pitch": 75, "duration": 3, "velocity": 120}, {"time": 593, "pitch": 79, "duration": 3, "velocity": 108}, {"time": 596, "pitch": 72, "duration": 3, "velocity": 90}, {"time": 599, "pitch": 70, "duration": 3, "velocity": 104}, {"time": 602, "pitch": 72, "duration": 12, "velocity": 116}, {"time": 614, "pitch": 72, "duration": 7, "velocity": 114}, {"time": 620, "pitch": 70, "duration": 3, "velocity": 102}, {"time": 623, "pitch": 67, "duration": 3, "velocity": 98}, {"time": 626, "pitch": 65, "duration": 12, "velocity": 108}, {"time": 638, "pitch": 70, "duration": 9, "velocity": 113}, {"time": 647, "pitch": 72, "duration": 4, "velocity": 113}, {"time": 650, "pitch": 70, "duration": 6, "velocity": 114}, {"time": 656, "pitch": 67, "duration": 3, "velocity": 108}, {"time": 659, "pitch": 65, "duration": 3, "velocity": 91}, {"time": 662, "pitch": 63, "duration": 24, "velocity": 104}, {"time": 686, "pitch": 79, "duration": 19, "velocity": 117}, {"time": 704, "pitch": 77, "duration": 3, "velocity": 114}, {"time": 707, "pitch": 75, "duration": 3, "velocity": 116}, {"time": 710, "pitch": 77, "duration": 18, "velocity": 117}, {"time": 728, "pitch": 77, "duration": 3, "velocity": 119}, {"time": 731, "pitch": 79, "duration": 3, "velocity": 110}, {"time": 734, "pitch": 67, "duration": 9, "velocity": 116}, {"time": 743, "pitch": 70, "duration": 3, "velocity": 107}, {"time": 746, "pitch": 75, "duration": 3, "velocity": 113}, {"time": 749, "pitch": 77, "duration": 3, "velocity": 100}, {"time": 752, "pitch": 75, "duration": 3, "velocity": 100}, {"time": 755, "pitch": 72, "duration": 3, "velocity": 108}, {"time": 758, "pitch": 70, "duration": 24, "velocity": 113}, {"time": 782, "pitch": 75, "duration": 3, "velocity": 114}, {"time": 785, "pitch": 77, "duration": 2, "velocity": 88}, {"time": 786, "pitch": 75, "duration": 2, "velocity": 86}, {"time": 788, "pitch": 72, "duration": 3, "velocity": 110}, {"time": 791, "pitch": 70, "duration": 3, "velocity": 104}, {"time": 794, "pitch": 72, "duration": 12, "velocity": 113}, {"time": 806, "pitch": 72, "duration": 6, "velocity": 113}, {"time": 812, "pitch": 70, "duration": 3, "velocity": 113}, {"time": 815, "pitch": 72, "duration": 3, "velocity": 113}, {"time": 818, "pitch": 70, "duration": 4, "velocity": 110}, {"time": 821, "pitch": 67, "duration": 9, "velocity": 114}, {"time": 830, "pitch": 70, "duration": 9, "velocity": 107}, {"time": 839, "pitch": 72, "duration": 3, "velocity": 113}, {"time": 842, "pitch": 70, "duration": 6, "velocity": 113}, {"time": 848, "pitch": 67, "duration": 4, "velocity": 108}, {"time": 851, "pitch": 65, "duration": 3, "velocity": 90}, {"time": 854, "pitch": 65, "duration": 24, "velocity": 104}, {"time": 878, "pitch": 70, "duration": 3, "velocity": 110}, {"time": 881, "pitch": 70, "duration": 6, "velocity": 108}, {"time": 887, "pitch": 72, "duration": 3, "velocity": 116}, {"time": 890, "pitch": 70, "duration": 6, "velocity": 117}, {"time": 896, "pitch": 67, "duration": 3, "velocity": 113}, {"time": 899, "pitch": 65, "duration": 3, "velocity": 102}, {"time": 902, "pitch": 63, "duration": 24, "velocity": 116}, {"time": 1119, "pitch": 72, "duration": 3, "velocity": 116}, {"time": 1122, "pitch": 75, "duration": 6, "velocity": 90}, {"time": 1128, "pitch": 72, "duration": 3, "velocity": 100}, {"time": 1131, "pitch": 70, "duration": 9, "velocity": 104}, {"time": 1140, "pitch": 70, "duration": 3, "velocity": 104}, {"time": 1143, "pitch": 72, "duration": 3, "velocity": 107}, {"time": 1146, "pitch": 70, "duration": 3, "velocity": 92}, {"time": 1149, "pitch": 67, "duration": 3, "velocity": 98}, {"time": 1152, "pitch": 65, "duration": 3, "velocity": 89}, {"time": 1155, "pitch": 63, "duration": 12, "velocity": 92}, {"time": 1167, "pitch": 67, "duration": 9, "velocity": 100}, {"time": 1176, "pitch": 70, "duration": 3, "velocity": 108}, {"time": 1179, "pitch": 75, "duration": 6, "velocity": 108}, {"time": 1185, "pitch": 72, "duration": 6, "velocity": 114}, {"time": 1191, "pitch": 70, "duration": 24, "velocity": 114}, {"time": 1215, "pitch": 75, "duration": 3, "velocity": 108}, {"time": 1218, "pitch": 77, "duration": 2, "velocity": 86}, {"time": 1220, "pitch": 75, "duration": 1, "velocity": 84}, {"time": 1221, "pitch": 72, "duration": 3, "velocity": 102}, {"time": 1224, "pitch": 70, "duration": 3, "velocity": 89}, {"time": 1227, "pitch": 72, "duration": 12, "velocity": 108}, {"time": 1239, "pitch": 72, "duration": 6, "velocity": 113}, {"time": 1245, "pitch": 70, "duration": 3, "velocity": 91}, {"time": 1248, "pitch": 72, "duration": 3, "velocity": 100}, {"time": 1251, "pitch": 70, "duration": 3, "velocity": 98}, {"time": 1254, "pitch": 67, "duration": 9, "velocity": 89}, {"time": 1263, "pitch": 70, "duration": 6, "velocity": 108}, {"time": 1269, "pitch": 70, "duration": 3, "velocity": 104}, {"time": 1272, "pitch": 72, "duration": 3, "velocity": 108}, {"time": 1275, "pitch": 70, "duration": 6, "velocity": 108}, {"time": 1281, "pitch": 67, "duration": 3, "velocity": 102}, {"time": 1284, "pitch": 65, "duration": 3, "velocity": 89}, {"time": 1287, "pitch": 65, "duration": 24, "velocity": 93}, {"time": 1311, "pitch": 67, "duration": 9, "velocity": 114}, {"time": 1320, "pitch": 70, "duration": 3, "velocity": 88}, {"time": 1323, "pitch": 72, "duration": 6, "velocity": 110}, {"time": 1329, "pitch": 70, "duration": 3, "velocity": 94}, {"time": 1332, "pitch": 67, "duration": 3, "velocity": 93}, {"time": 1335, "pitch": 65, "duration": 6, "velocity": 102}, {"time": 1341, "pitch": 63, "duration": 12, "velocity": 102}, {"time": 1353, "pitch": 63, "duration": 3, "velocity": 102}, {"time": 1356, "pitch": 65, "duration": 3, "velocity": 98}, {"time": 1359, "pitch": 67, "duration": 9, "velocity": 104}, {"time": 1368, "pitch": 70, "duration": 3, "velocity": 93}, {"time": 1371, "pitch": 75, "duration": 3, "velocity": 110}, {"time": 1374, "pitch": 77, "duration": 3, "velocity": 102}, {"time": 1377, "pitch": 75, "duration": 3, "velocity": 96}, {"time": 1380, "pitch": 70, "duration": 3, "velocity": 87}, {"time": 1383, "pitch": 72, "duration": 6, "velocity": 104}, {"time": 1389, "pitch": 72, "duration": 3, "velocity": 104}, {"time": 1392, "pitch": 70, "duration": 3, "velocity": 102}, {"time": 1395, "pitch": 67, "duration": 12, "velocity": 113}, {"time": 1407, "pitch": 75, "duration": 3, "velocity": 120}, {"time": 1410, "pitch": 79, "duration": 3, "velocity": 108}, {"time": 1413, "pitch": 72, "duration": 3, "velocity": 90}, {"time": 1416, "pitch": 70, "duration": 3, "velocity": 104}, {"time": 1419, "pitch": 72, "duration": 12, "velocity": 116}, {"time": 1431, "pitch": 72, "duration": 6, "velocity": 114}, {"time": 1437, "pitch": 70, "duration": 3, "velocity": 102}, {"time": 1440, "pitch": 67, "duration": 3, "velocity": 98}, {"time": 1443, "pitch": 65, "duration": 12, "velocity": 108}, {"time": 1455, "pitch": 70, "duration": 9, "velocity": 113}, {"time": 1464, "pitch": 72, "duration": 3, "velocity": 113}, {"time": 1467, "pitch": 70, "duration": 6, "velocity": 114}, {"time": 1473, "pitch": 67, "duration": 3, "velocity": 108}, {"time": 1476, "pitch": 65, "duration": 3, "velocity": 91}, {"time": 1479, "pitch": 63, "duration": 23, "velocity": 104}, {"time": 1503, "pitch": 79, "duration": 19, "velocity": 117}, {"time": 1521, "pitch": 77, "duration": 3, "velocity": 114}, {"time": 1524, "pitch": 75, "duration": 3, "velocity": 116}, {"time": 1527, "pitch": 77, "duration": 18, "velocity": 117}, {"time": 1545, "pitch": 77, "duration": 3, "velocity": 119}, {"time": 1548, "pitch": 79, "duration": 3, "velocity": 110}, {"time": 1551, "pitch": 67, "duration": 9, "velocity": 116}, {"time": 1560, "pitch": 70, "duration": 3, "velocity": 107}, {"time": 1563, "pitch": 75, "duration": 3, "velocity": 113}, {"time": 1566, "pitch": 77, "duration": 3, "velocity": 100}, {"time": 1569, "pitch": 75, "duration": 3, "velocity": 100}, {"time": 1572, "pitch": 72, "duration": 3, "velocity": 108}, {"time": 1575, "pitch": 70, "duration": 24, "velocity": 113}, {"time": 1599, "pitch": 75, "duration": 3, "velocity": 114}, {"time": 1602, "pitch": 77, "duration": 2, "velocity": 88}, {"time": 1604, "pitch": 75, "duration": 1, "velocity": 86}, {"time": 1605, "pitch": 72, "duration": 3, "velocity": 110}, {"time": 1608, "pitch": 70, "duration": 3, "velocity": 104}, {"time": 1611, "pitch": 72, "duration": 12, "velocity": 113}, {"time": 1623, "pitch": 72, "duration": 6, "velocity": 113}, {"time": 1629, "pitch": 70, "duration": 3, "velocity": 113}, {"time": 1632, "pitch": 72, "duration": 3, "velocity": 113}, {"time": 1635, "pitch": 70, "duration": 3, "velocity": 110}, {"time": 1638, "pitch": 67, "duration": 9, "velocity": 114}, {"time": 1647, "pitch": 70, "duration": 9, "velocity": 107}, {"time": 1656, "pitch": 72, "duration": 3, "velocity": 113}, {"time": 1659, "pitch": 70, "duration": 6, "velocity": 113}, {"time": 1665, "pitch": 67, "duration": 3, "velocity": 108}, {"time": 1668, "pitch": 65, "duration": 3, "velocity": 90}, {"time": 1671, "pitch": 65, "duration": 24, "velocity": 104}, {"time": 1695, "pitch": 70, "duration": 3, "velocity": 110}, {"time": 1698, "pitch": 70, "duration": 6, "velocity": 108}, {"time": 1704, "pitch": 72, "duration": 3, "velocity": 116}, {"time": 1707, "pitch": 70, "duration": 6, "velocity": 117}, {"time": 1713, "pitch": 67, "duration": 3, "velocity": 113}, {"time": 1716, "pitch": 65, "duration": 3, "velocity": 102}, {"time": 1719, "pitch": 63, "duration": 23, "velocity": 116}, {"time": 1743, "pitch": 79, "duration": 19, "velocity": 117}, {"time": 1761, "pitch": 77, "duration": 3, "velocity": 114}, {"time": 1764, "pitch": 75, "duration": 3, "velocity": 116}, {"time": 1767, "pitch": 77, "duration": 18, "velocity": 117}, {"time": 1785, "pitch": 77, "duration": 3, "velocity": 119}, {"time": 1788, "pitch": 79, "duration": 3, "velocity": 110}, {"time": 1791, "pitch": 67, "duration": 9, "velocity": 116}, {"time": 1800, "pitch": 70, "duration": 3, "velocity": 107}, {"time": 1803, "pitch": 75, "duration": 3, "velocity": 113}, {"time": 1806, "pitch": 77, "duration": 3, "velocity": 100}, {"time": 1809, "pitch": 75, "duration": 3, "velocity": 100}, {"time": 1812, "pitch": 72, "duration": 3, "velocity": 108}, {"time": 1815, "pitch": 70, "duration": 24, "velocity": 113}, {"time": 1839, "pitch": 75, "duration": 3, "velocity": 114}, {"time": 1842, "pitch": 77, "duration": 2, "velocity": 88}, {"time": 1844, "pitch": 75, "duration": 1, "velocity": 86}, {"time": 1845, "pitch": 72, "duration": 3, "velocity": 110}, {"time": 1848, "pitch": 70, "duration": 3, "velocity": 104}, {"time": 1851, "pitch": 72, "duration": 12, "velocity": 113}, {"time": 1863, "pitch": 72, "duration": 6, "velocity": 113}, {"time": 1869, "pitch": 70, "duration": 3, "velocity": 113}, {"time": 1872, "pitch": 72, "duration": 3, "velocity": 113}, {"time": 1875, "pitch": 70, "duration": 3, "velocity": 110}, {"time": 1878, "pitch": 67, "duration": 9, "velocity": 114}, {"time": 1887, "pitch": 70, "duration": 9, "velocity": 107}, {"time": 1896, "pitch": 72, "duration": 3, "velocity": 113}, {"time": 1899, "pitch": 70, "duration": 6, "velocity": 113}, {"time": 1905, "pitch": 67, "duration": 3, "velocity": 108}, {"time": 1908, "pitch": 65, "duration": 3, "velocity": 90}, {"time": 1911, "pitch": 65, "duration": 25, "velocity": 104}, {"time": 1936, "pitch": 77, "duration": 18, "velocity": 119}, {"time": 1954, "pitch": 79, "duration": 7, "velocity": 119}, {"time": 1961, "pitch": 70, "duration": 12, "velocity": 108}, {"time": 1973, "pitch": 72, "duration": 5, "velocity": 116}, {"time": 1978, "pitch": 75, "duration": 4, "velocity": 116}, {"time": 1982, "pitch": 77, "duration": 4, "velocity": 100}, {"time": 1986, "pitch": 72, "duration": 24, "velocity": 117}, {"time": 2010, "pitch": 75, "duration": 36, "velocity": 117}]}, {"program": 0, "is_drum": false, "name": "PIANO", "notes": [{"time": 14, "pitch": 51, "duration": 46, "velocity": 82}, {"time": 14, "pitch": 58, "duration": 43, "velocity": 71}, {"time": 14, "pitch": 63, "duration": 45, "velocity": 76}, {"time": 14, "pitch": 67, "duration": 43, "velocity": 81}, {"time": 62, "pitch": 46, "duration": 40, "velocity": 72}, {"time": 62, "pitch": 58, "duration": 41, "velocity": 70}, {"time": 62, "pitch": 62, "duration": 42, "velocity": 75}, {"time": 62, "pitch": 65, "duration": 41, "velocity": 72}, {"time": 107, "pitch": 39, "duration": 19, "velocity": 74}, {"time": 107, "pitch": 51, "duration": 20, "velocity": 71}, {"time": 107, "pitch": 58, "duration": 9, "velocity": 73}, {"time": 107, "pitch": 63, "duration": 9, "velocity": 77}, {"time": 107, "pitch": 67, "duration": 8, "velocity": 78}, {"time": 122, "pitch": 58, "duration": 6, "velocity": 82}, {"time": 122, "pitch": 63, "duration": 6, "velocity": 83}, {"time": 122, "pitch": 67, "duration": 5, "velocity": 86}, {"time": 134, "pitch": 41, "duration": 19, "velocity": 71}, {"time": 134, "pitch": 53, "duration": 20, "velocity": 76}, {"time": 134, "pitch": 56, "duration": 9, "velocity": 81}, {"time": 134, "pitch": 60, "duration": 8, "velocity": 86}, {"time": 134, "pitch": 65, "duration": 7, "velocity": 86}, {"time": 146, "pitch": 56, "duration": 7, "velocity": 85}, {"time": 146, "pitch": 60, "duration": 8, "velocity": 89}, {"time": 146, "pitch": 65, "duration": 7, "velocity": 91}, {"time": 158, "pitch": 44, "duration": 15, "velocity": 83}, {"time": 158, "pitch": 60, "duration": 10, "velocity": 87}, {"time": 158, "pitch": 63, "duration": 9, "velocity": 85}, {"time": 170, "pitch": 60, "duration": 12, "velocity": 107}, {"time": 170, "pitch": 63, "duration": 10, "velocity": 102}, {"time": 176, "pitch": 44, "duration": 4, "velocity": 86}, {"time": 182, "pitch": 46, "duration": 19, "velocity": 88}, {"time": 182, "pitch": 58, "duration": 9, "velocity": 88}, {"time": 182, "pitch": 62, "duration": 9, "velocity": 94}, {"time": 182, "pitch": 65, "duration": 8, "velocity": 94}, {"time": 191, "pitch": 53, "duration": 10, "velocity": 74}, {"time": 194, "pitch": 58, "duration": 7, "velocity": 90}, {"time": 194, "pitch": 62, "duration": 5, "velocity": 104}, {"time": 194, "pitch": 65, "duration": 7, "velocity": 100}, {"time": 206, "pitch": 48, "duration": 20, "velocity": 88}, {"time": 206, "pitch": 60, "duration": 20, "velocity": 93}, {"time": 206, "pitch": 63, "duration": 20, "velocity": 102}, {"time": 206, "pitch": 67, "duration": 20, "velocity": 98}, {"time": 230, "pitch": 41, "duration": 18, "velocity": 78}, {"time": 230, "pitch": 53, "duration": 20, "velocity": 78}, {"time": 230, "pitch": 56, "duration": 19, "velocity": 85}, {"time": 230, "pitch": 60, "duration": 22, "velocity": 90}, {"time": 230, "pitch": 65, "duration": 19, "velocity": 89}, {"time": 254, "pitch": 46, "duration": 21, "velocity": 87}, {"time": 254, "pitch": 58, "duration": 9, "velocity": 86}, {"time": 254, "pitch": 62, "duration": 8, "velocity": 91}, {"time": 254, "pitch": 65, "duration": 8, "velocity": 87}, {"time": 266, "pitch": 58, "duration": 8, "velocity": 87}, {"time": 266, "pitch": 62, "duration": 9, "velocity": 91}, {"time": 266, "pitch": 65, "duration": 9, "velocity": 89}, {"time": 278, "pitch": 51, "duration": 24, "velocity": 87}, {"time": 278, "pitch": 58, "duration": 25, "velocity": 87}, {"time": 278, "pitch": 63, "duration": 24, "velocity": 89}, {"time": 278, "pitch": 67, "duration": 25, "velocity": 91}, {"time": 302, "pitch": 51, "duration": 23, "velocity": 81}, {"time": 302, "pitch": 58, "duration": 1, "velocity": 78}, {"time": 302, "pitch": 63, "duration": 1, "velocity": 84}, {"time": 302, "pitch": 67, "duration": 1, "velocity": 83}, {"time": 326, "pitch": 48, "duration": 17, "velocity": 82}, {"time": 326, "pitch": 60, "duration": 19, "velocity": 80}, {"time": 326, "pitch": 63, "duration": 22, "velocity": 81}, {"time": 326, "pitch": 67, "duration": 18, "velocity": 82}, {"time": 350, "pitch": 44, "duration": 17, "velocity": 78}, {"time": 350, "pitch": 56, "duration": 18, "velocity": 81}, {"time": 350, "pitch": 60, "duration": 18, "velocity": 81}, {"time": 350, "pitch": 63, "duration": 20, "velocity": 86}, {"time": 350, "pitch": 67, "duration": 19, "velocity": 83}, {"time": 374, "pitch": 46, "duration": 16, "velocity": 84}, {"time": 374, "pitch": 58, "duration": 15, "velocity": 78}, {"time": 374, "pitch": 62, "duration": 15, "velocity": 84}, {"time": 374, "pitch": 65, "duration": 16, "velocity": 79}, {"time": 398, "pitch": 48, "duration": 21, "velocity": 80}, {"time": 401, "pitch": 55, "duration": 18, "velocity": 68}, {"time": 404, "pitch": 60, "duration": 13, "velocity": 86}, {"time": 407, "pitch": 63, "duration": 14, "velocity": 69}, {"time": 410, "pitch": 67, "duration": 10, "velocity": 79}, {"time": 422, "pitch": 44, "duration": 20, "velocity": 84}, {"time": 425, "pitch": 51, "duration": 17, "velocity": 64}, {"time": 428, "pitch": 56, "duration": 14, "velocity": 80}, {"time": 431, "pitch": 60, "duration": 15, "velocity": 65}, {"time": 434, "pitch": 63, "duration": 12, "velocity": 70}, {"time": 446, "pitch": 46, "duration": 20, "velocity": 86}, {"time": 449, "pitch": 53, "duration": 18, "velocity": 83}, {"time": 452, "pitch": 58, "duration": 17, "velocity": 77}, {"time": 455, "pitch": 65, "duration": 14, "velocity": 83}, {"time": 458, "pitch": 62, "duration": 12, "velocity": 82}, {"time": 470, "pitch": 46, "duration": 18, "velocity": 88}, {"time": 476, "pitch": 53, "duration": 13, "velocity": 75}, {"time": 479, "pitch": 58, "duration": 3, "velocity": 78}, {"time": 482, "pitch": 58, "duration": 3, "velocity": 74}, {"time": 482, "pitch": 65, "duration": 8, "velocity": 107}, {"time": 485, "pitch": 62, "duration": 5, "velocity": 83}, {"time": 488, "pitch": 58, "duration": 3, "velocity": 79}, {"time": 494, "pitch": 39, "duration": 18, "velocity": 86}, {"time": 497, "pitch": 51, "duration": 21, "velocity": 82}, {"time": 500, "pitch": 55, "duration": 4, "velocity": 75}, {"time": 503, "pitch": 58, "duration": 7, "velocity": 85}, {"time": 506, "pitch": 63, "duration": 12, "velocity": 88}, {"time": 512, "pitch": 55, "duration": 4, "velocity": 78}, {"time": 515, "pitch": 58, "duration": 4, "velocity": 80}, {"time": 518, "pitch": 48, "duration": 20, "velocity": 83}, {"time": 518, "pitch": 60, "duration": 2, "velocity": 79}, {"time": 524, "pitch": 55, "duration": 13, "velocity": 73}, {"time": 527, "pitch": 60, "duration": 9, "velocity": 84}, {"time": 530, "pitch": 63, "duration": 7, "velocity": 107}, {"time": 536, "pitch": 65, "duration": 6, "velocity": 87}, {"time": 542, "pitch": 43, "duration": 18, "velocity": 79}, {"time": 542, "pitch": 58, "duration": 8, "velocity": 83}, {"time": 542, "pitch": 67, "duration": 6, "velocity": 87}, {"time": 545, "pitch": 50, "duration": 15, "velocity": 70}, {"time": 548, "pitch": 55, "duration": 7, "velocity": 84}, {"time": 551, "pitch": 58, "duration": 4, "velocity": 84}, {"time": 554, "pitch": 62, "duration": 6, "velocity": 94}, {"time": 557, "pitch": 55, "duration": 10, "velocity": 89}, {"time": 560, "pitch": 58, "duration": 7, "velocity": 88}, {"time": 563, "pitch": 63, "duration": 4, "velocity": 85}, {"time": 566, "pitch": 48, "duration": 20, "velocity": 86}, {"time": 569, "pitch": 55, "duration": 16, "velocity": 83}, {"time": 572, "pitch": 60, "duration": 12, "velocity": 86}, {"time": 575, "pitch": 62, "duration": 3, "velocity": 81}, {"time": 578, "pitch": 63, "duration": 6, "velocity": 100}, {"time": 584, "pitch": 62, "duration": 5, "velocity": 84}, {"time": 590, "pitch": 44, "duration": 17, "velocity": 74}, {"time": 590, "pitch": 56, "duration": 16, "velocity": 83}, {"time": 590, "pitch": 60, "duration": 17, "velocity": 86}, {"time": 590, "pitch": 63, "duration": 16, "velocity": 87}, {"time": 590, "pitch": 67, "duration": 16, "velocity": 85}, {"time": 614, "pitch": 41, "duration": 17, "velocity": 76}, {"time": 614, "pitch": 53, "duration": 18, "velocity": 77}, {"time": 614, "pitch": 56, "duration": 17, "velocity": 82}, {"time": 614, "pitch": 60, "duration": 18, "velocity": 86}, {"time": 614, "pitch": 65, "duration": 18, "velocity": 85}, {"time": 638, "pitch": 46, "duration": 19, "velocity": 78}, {"time": 638, "pitch": 58, "duration": 3, "velocity": 77}, {"time": 638, "pitch": 62, "duration": 8, "velocity": 81}, {"time": 638, "pitch": 65, "duration": 10, "velocity": 80}, {"time": 644, "pitch": 53, "duration": 12, "velocity": 74}, {"time": 647, "pitch": 58, "duration": 8, "velocity": 87}, {"time": 650, "pitch": 60, "duration": 5, "velocity": 85}, {"time": 653, "pitch": 62, "duration": 10, "velocity": 79}, {"time": 656, "pitch": 65, "duration": 8, "velocity": 86}, {"time": 662, "pitch": 39, "duration": 17, "velocity": 88}, {"time": 665, "pitch": 46, "duration": 15, "velocity": 82}, {"time": 668, "pitch": 51, "duration": 7, "velocity": 89}, {"time": 671, "pitch": 55, "duration": 4, "velocity": 91}, {"time": 674, "pitch": 63, "duration": 6, "velocity": 104}, {"time": 677, "pitch": 51, "duration": 5, "velocity": 98}, {"time": 680, "pitch": 55, "duration": 4, "velocity": 91}, {"time": 680, "pitch": 63, "duration": 1, "velocity": 74}, {"time": 683, "pitch": 58, "duration": 8, "velocity": 87}, {"time": 686, "pitch": 39, "duration": 18, "velocity": 91}, {"time": 686, "pitch": 55, "duration": 3, "velocity": 89}, {"time": 686, "pitch": 63, "duration": 8, "velocity": 94}, {"time": 695, "pitch": 51, "duration": 6, "velocity": 86}, {"time": 698, "pitch": 58, "duration": 10, "velocity": 96}, {"time": 698, "pitch": 63, "duration": 11, "velocity": 96}, {"time": 698, "pitch": 67, "duration": 9, "velocity": 104}, {"time": 704, "pitch": 51, "duration": 6, "velocity": 86}, {"time": 710, "pitch": 41, "duration": 18, "velocity": 86}, {"time": 710, "pitch": 56, "duration": 9, "velocity": 86}, {"time": 710, "pitch": 65, "duration": 9, "velocity": 98}, {"time": 719, "pitch": 53, "duration": 5, "velocity": 80}, {"time": 722, "pitch": 56, "duration": 8, "velocity": 106}, {"time": 722, "pitch": 65, "duration": 11, "velocity": 110}, {"time": 728, "pitch": 53, "duration": 6, "velocity": 85}, {"time": 734, "pitch": 44, "duration": 19, "velocity": 84}, {"time": 734, "pitch": 60, "duration": 9, "velocity": 87}, {"time": 734, "pitch": 63, "duration": 9, "velocity": 89}, {"time": 734, "pitch": 67, "duration": 9, "velocity": 88}, {"time": 743, "pitch": 56, "duration": 5, "velocity": 78}, {"time": 746, "pitch": 60, "duration": 7, "velocity": 94}, {"time": 746, "pitch": 63, "duration": 11, "velocity": 107}, {"time": 746, "pitch": 67, "duration": 10, "velocity": 98}, {"time": 752, "pitch": 56, "duration": 4, "velocity": 86}, {"time": 758, "pitch": 46, "duration": 19, "velocity": 85}, {"time": 758, "pitch": 58, "duration": 8, "velocity": 88}, {"time": 758, "pitch": 62, "duration": 9, "velocity": 92}, {"time": 758, "pitch": 65, "duration": 9, "velocity": 89}, {"time": 767, "pitch": 53, "duration": 4, "velocity": 84}, {"time": 770, "pitch": 58, "duration": 8, "velocity": 102}, {"time": 770, "pitch": 65, "duration": 9, "velocity": 107}, {"time": 776, "pitch": 53, "duration": 5, "velocity": 81}, {"time": 782, "pitch": 48, "duration": 20, "velocity": 89}, {"time": 782, "pitch": 60, "duration": 10, "velocity": 89}, {"time": 782, "pitch": 63, "duration": 10, "velocity": 98}, {"time": 782, "pitch": 67, "duration": 9, "velocity": 100}, {"time": 791, "pitch": 55, "duration": 10, "velocity": 83}, {"time": 794, "pitch": 60, "duration": 8, "velocity": 100}, {"time": 794, "pitch": 63, "duration": 9, "velocity": 107}, {"time": 794, "pitch": 67, "duration": 8, "velocity": 98}, {"time": 806, "pitch": 48, "duration": 19, "velocity": 86}, {"time": 806, "pitch": 60, "duration": 8, "velocity": 88}, {"time": 806, "pitch": 63, "duration": 8, "velocity": 94}, {"time": 806, "pitch": 67, "duration": 8, "velocity": 93}, {"time": 815, "pitch": 55, "duration": 5, "velocity": 70}, {"time": 818, "pitch": 60, "duration": 7, "velocity": 92}, {"time": 818, "pitch": 63, "duration": 9, "velocity": 104}, {"time": 818, "pitch": 67, "duration": 8, "velocity": 93}, {"time": 830, "pitch": 46, "duration": 21, "velocity": 86}, {"time": 830, "pitch": 58, "duration": 9, "velocity": 86}, {"time": 830, "pitch": 62, "duration": 9, "velocity": 93}, {"time": 830, "pitch": 65, "duration": 9, "velocity": 91}, {"time": 839, "pitch": 53, "duration": 5, "velocity": 76}, {"time": 842, "pitch": 58, "duration": 8, "velocity": 96}, {"time": 842, "pitch": 62, "duration": 9, "velocity": 110}, {"time": 842, "pitch": 65, "duration": 9, "velocity": 108}, {"time": 848, "pitch": 53, "duration": 4, "velocity": 75}, {"time": 854, "pitch": 46, "duration": 18, "velocity": 84}, {"time": 854, "pitch": 58, "duration": 7, "velocity": 88}, {"time": 854, "pitch": 62, "duration": 9, "velocity": 93}, {"time": 854, "pitch": 65, "duration": 9, "velocity": 92}, {"time": 863, "pitch": 53, "duration": 8, "velocity": 88}, {"time": 866, "pitch": 58, "duration": 4, "velocity": 94}, {"time": 869, "pitch": 62, "duration": 2, "velocity": 100}, {"time": 872, "pitch": 65, "duration": 5, "velocity": 114}, {"time": 878, "pitch": 46, "duration": 15, "velocity": 89}, {"time": 878, "pitch": 58, "duration": 9, "velocity": 90}, {"time": 878, "pitch": 62, "duration": 9, "velocity": 93}, {"time": 878, "pitch": 65, "duration": 8, "velocity": 86}, {"time": 887, "pitch": 53, "duration": 6, "velocity": 81}, {"time": 890, "pitch": 58, "duration": 11, "velocity": 98}, {"time": 890, "pitch": 62, "duration": 5, "velocity": 110}, {"time": 890, "pitch": 65, "duration": 8, "velocity": 102}, {"time": 896, "pitch": 46, "duration": 3, "velocity": 86}, {"time": 902, "pitch": 39, "duration": 21, "velocity": 84}, {"time": 902, "pitch": 55, "duration": 10, "velocity": 89}, {"time": 902, "pitch": 58, "duration": 10, "velocity": 89}, {"time": 902, "pitch": 63, "duration": 9, "velocity": 89}, {"time": 908, "pitch": 46, "duration": 16, "velocity": 71}, {"time": 911, "pitch": 51, "duration": 5, "velocity": 93}, {"time": 914, "pitch": 53, "duration": 4, "velocity": 100}, {"time": 917, "pitch": 55, "duration": 3, "velocity": 93}, {"time": 920, "pitch": 58, "duration": 3, "velocity": 96}, {"time": 923, "pitch": 55, "duration": 2, "velocity": 88}, {"time": 926, "pitch": 39, "duration": 18, "velocity": 96}, {"time": 926, "pitch": 55, "duration": 4, "velocity": 90}, {"time": 926, "pitch": 58, "duration": 8, "velocity": 102}, {"time": 926, "pitch": 63, "duration": 10, "velocity": 104}, {"time": 935, "pitch": 51, "duration": 5, "velocity": 83}, {"time": 938, "pitch": 58, "duration": 9, "velocity": 98}, {"time": 938, "pitch": 63, "duration": 9, "velocity": 113}, {"time": 944, "pitch": 51, "duration": 4, "velocity": 83}, {"time": 950, "pitch": 41, "duration": 19, "velocity": 90}, {"time": 950, "pitch": 56, "duration": 10, "velocity": 106}, {"time": 950, "pitch": 65, "duration": 9, "velocity": 104}, {"time": 956, "pitch": 48, "duration": 14, "velocity": 76}, {"time": 959, "pitch": 53, "duration": 6, "velocity": 86}, {"time": 962, "pitch": 56, "duration": 7, "velocity": 106}, {"time": 962, "pitch": 65, "duration": 4, "velocity": 88}, {"time": 965, "pitch": 53, "duration": 7, "velocity": 87}, {"time": 968, "pitch": 60, "duration": 5, "velocity": 88}, {"time": 971, "pitch": 65, "duration": 1, "velocity": 77}, {"time": 974, "pitch": 44, "duration": 19, "velocity": 87}, {"time": 974, "pitch": 60, "duration": 10, "velocity": 92}, {"time": 974, "pitch": 63, "duration": 10, "velocity": 98}, {"time": 974, "pitch": 67, "duration": 9, "velocity": 89}, {"time": 980, "pitch": 51, "duration": 12, "velocity": 73}, {"time": 983, "pitch": 56, "duration": 4, "velocity": 86}, {"time": 986, "pitch": 60, "duration": 4, "velocity": 104}, {"time": 986, "pitch": 67, "duration": 4, "velocity": 100}, {"time": 989, "pitch": 56, "duration": 4, "velocity": 103}, {"time": 992, "pitch": 63, "duration": 4, "velocity": 107}, {"time": 995, "pitch": 67, "duration": 3, "velocity": 87}, {"time": 998, "pitch": 46, "duration": 19, "velocity": 88}, {"time": 998, "pitch": 58, "duration": 8, "velocity": 88}, {"time": 998, "pitch": 62, "duration": 9, "velocity": 93}, {"time": 998, "pitch": 65, "duration": 9, "velocity": 91}, {"time": 1007, "pitch": 53, "duration": 5, "velocity": 85}, {"time": 1010, "pitch": 58, "duration": 6, "velocity": 104}, {"time": 1010, "pitch": 62, "duration": 8, "velocity": 108}, {"time": 1010, "pitch": 65, "duration": 7, "velocity": 110}, {"time": 1016, "pitch": 53, "duration": 3, "velocity": 83}, {"time": 1022, "pitch": 48, "duration": 18, "velocity": 96}, {"time": 1022, "pitch": 60, "duration": 18, "velocity": 100}, {"time": 1022, "pitch": 63, "duration": 19, "velocity": 104}, {"time": 1022, "pitch": 67, "duration": 18, "velocity": 98}, {"time": 1046, "pitch": 41, "duration": 18, "velocity": 84}, {"time": 1046, "pitch": 53, "duration": 19, "velocity": 86}, {"time": 1046, "pitch": 56, "duration": 19, "velocity": 90}, {"time": 1046, "pitch": 60, "duration": 19, "velocity": 86}, {"time": 1046, "pitch": 65, "duration": 18, "velocity": 38}, {"time": 1070, "pitch": 46, "duration": 18, "velocity": 88}, {"time": 1070, "pitch": 58, "duration": 4, "velocity": 88}, {"time": 1070, "pitch": 62, "duration": 10, "velocity": 89}, {"time": 1070, "pitch": 65, "duration": 10, "velocity": 89}, {"time": 1076, "pitch": 53, "duration": 10, "velocity": 77}, {"time": 1079, "pitch": 58, "duration": 6, "velocity": 90}, {"time": 1082, "pitch": 60, "duration": 5, "velocity": 102}, {"time": 1082, "pitch": 65, "duration": 1, "velocity": 84}, {"time": 1085, "pitch": 62, "duration": 3, "velocity": 77}, {"time": 1088, "pitch": 65, "duration": 18, "velocity": 94}, {"time": 1094, "pitch": 39, "duration": 25, "velocity": 83}, {"time": 1094, "pitch": 55, "duration": 12, "velocity": 86}, {"time": 1094, "pitch": 58, "duration": 12, "velocity": 88}, {"time": 1103, "pitch": 46, "duration": 16, "velocity": 72}, {"time": 1106, "pitch": 51, "duration": 13, "velocity": 87}, {"time": 1109, "pitch": 53, "duration": 4, "velocity": 85}, {"time": 1112, "pitch": 55, "duration": 4, "velocity": 88}, {"time": 1115, "pitch": 58, "duration": 4, "velocity": 102}, {"time": 1119, "pitch": 51, "duration": 23, "velocity": 81}, {"time": 1119, "pitch": 58, "duration": 21, "velocity": 78}, {"time": 1119, "pitch": 63, "duration": 22, "velocity": 84}, {"time": 1119, "pitch": 67, "duration": 21, "velocity": 83}, {"time": 1143, "pitch": 48, "duration": 17, "velocity": 82}, {"time": 1143, "pitch": 60, "duration": 19, "velocity": 80}, {"time": 1143, "pitch": 63, "duration": 21, "velocity": 81}, {"time": 1143, "pitch": 67, "duration": 18, "velocity": 82}, {"time": 1167, "pitch": 44, "duration": 17, "velocity": 78}, {"time": 1167, "pitch": 56, "duration": 18, "velocity": 81}, {"time": 1167, "pitch": 60, "duration": 17, "velocity": 81}, {"time": 1167, "pitch": 63, "duration": 20, "velocity": 86}, {"time": 1167, "pitch": 67, "duration": 19, "velocity": 83}, {"time": 1191, "pitch": 46, "duration": 15, "velocity": 84}, {"time": 1191, "pitch": 58, "duration": 15, "velocity": 78}, {"time": 1191, "pitch": 62, "duration": 15, "velocity": 84}, {"time": 1191, "pitch": 65, "duration": 15, "velocity": 79}, {"time": 1215, "pitch": 48, "duration": 20, "velocity": 80}, {"time": 1218, "pitch": 55, "duration": 17, "velocity": 68}, {"time": 1221, "pitch": 60, "duration": 13, "velocity": 86}, {"time": 1224, "pitch": 63, "duration": 14, "velocity": 69}, {"time": 1227, "pitch": 67, "duration": 10, "velocity": 79}, {"time": 1239, "pitch": 44, "duration": 20, "velocity": 84}, {"time": 1242, "pitch": 51, "duration": 17, "velocity": 64}, {"time": 1245, "pitch": 56, "duration": 14, "velocity": 80}, {"time": 1248, "pitch": 60, "duration": 15, "velocity": 65}, {"time": 1251, "pitch": 63, "duration": 12, "velocity": 70}, {"time": 1263, "pitch": 46, "duration": 20, "velocity": 86}, {"time": 1266, "pitch": 53, "duration": 17, "velocity": 83}, {"time": 1269, "pitch": 58, "duration": 17, "velocity": 77}, {"time": 1272, "pitch": 65, "duration": 14, "velocity": 83}, {"time": 1275, "pitch": 62, "duration": 12, "velocity": 82}, {"time": 1287, "pitch": 46, "duration": 18, "velocity": 88}, {"time": 1293, "pitch": 53, "duration": 12, "velocity": 75}, {"time": 1296, "pitch": 58, "duration": 2, "velocity": 78}, {"time": 1299, "pitch": 58, "duration": 3, "velocity": 74}, {"time": 1299, "pitch": 65, "duration": 8, "velocity": 107}, {"time": 1302, "pitch": 62, "duration": 5, "velocity": 83}, {"time": 1305, "pitch": 58, "duration": 3, "velocity": 79}, {"time": 1311, "pitch": 39, "duration": 18, "velocity": 86}, {"time": 1314, "pitch": 51, "duration": 21, "velocity": 82}, {"time": 1317, "pitch": 55, "duration": 4, "velocity": 75}, {"time": 1320, "pitch": 58, "duration": 7, "velocity": 85}, {"time": 1323, "pitch": 63, "duration": 12, "velocity": 88}, {"time": 1329, "pitch": 55, "duration": 4, "velocity": 78}, {"time": 1332, "pitch": 58, "duration": 4, "velocity": 80}, {"time": 1335, "pitch": 48, "duration": 20, "velocity": 83}, {"time": 1335, "pitch": 60, "duration": 2, "velocity": 79}, {"time": 1341, "pitch": 55, "duration": 13, "velocity": 73}, {"time": 1344, "pitch": 60, "duration": 9, "velocity": 84}, {"time": 1347, "pitch": 63, "duration": 7, "velocity": 107}, {"time": 1353, "pitch": 65, "duration": 6, "velocity": 87}, {"time": 1359, "pitch": 43, "duration": 18, "velocity": 79}, {"time": 1359, "pitch": 58, "duration": 8, "velocity": 83}, {"time": 1359, "pitch": 67, "duration": 6, "velocity": 87}, {"time": 1362, "pitch": 50, "duration": 15, "velocity": 70}, {"time": 1365, "pitch": 55, "duration": 7, "velocity": 84}, {"time": 1368, "pitch": 58, "duration": 4, "velocity": 84}, {"time": 1371, "pitch": 62, "duration": 5, "velocity": 94}, {"time": 1374, "pitch": 55, "duration": 10, "velocity": 89}, {"time": 1377, "pitch": 58, "duration": 6, "velocity": 88}, {"time": 1380, "pitch": 63, "duration": 4, "velocity": 85}, {"time": 1383, "pitch": 48, "duration": 20, "velocity": 86}, {"time": 1386, "pitch": 55, "duration": 16, "velocity": 83}, {"time": 1389, "pitch": 60, "duration": 12, "velocity": 86}, {"time": 1392, "pitch": 62, "duration": 3, "velocity": 81}, {"time": 1395, "pitch": 63, "duration": 6, "velocity": 100}, {"time": 1401, "pitch": 62, "duration": 5, "velocity": 84}, {"time": 1407, "pitch": 44, "duration": 17, "velocity": 74}, {"time": 1407, "pitch": 56, "duration": 16, "velocity": 83}, {"time": 1407, "pitch": 60, "duration": 17, "velocity": 86}, {"time": 1407, "pitch": 63, "duration": 16, "velocity": 87}, {"time": 1407, "pitch": 67, "duration": 15, "velocity": 85}, {"time": 1431, "pitch": 41, "duration": 16, "velocity": 76}, {"time": 1431, "pitch": 53, "duration": 18, "velocity": 77}, {"time": 1431, "pitch": 56, "duration": 17, "velocity": 82}, {"time": 1431, "pitch": 60, "duration": 18, "velocity": 86}, {"time": 1431, "pitch": 65, "duration": 18, "velocity": 85}, {"time": 1455, "pitch": 46, "duration": 19, "velocity": 78}, {"time": 1455, "pitch": 58, "duration": 3, "velocity": 77}, {"time": 1455, "pitch": 62, "duration": 8, "velocity": 81}, {"time": 1455, "pitch": 65, "duration": 10, "velocity": 80}, {"time": 1461, "pitch": 53, "duration": 12, "velocity": 74}, {"time": 1464, "pitch": 58, "duration": 8, "velocity": 87}, {"time": 1467, "pitch": 60, "duration": 5, "velocity": 85}, {"time": 1470, "pitch": 62, "duration": 10, "velocity": 79}, {"time": 1473, "pitch": 65, "duration": 8, "velocity": 86}, {"time": 1479, "pitch": 39, "duration": 17, "velocity": 88}, {"time": 1482, "pitch": 46, "duration": 15, "velocity": 82}, {"time": 1485, "pitch": 51, "duration": 7, "velocity": 89}, {"time": 1488, "pitch": 55, "duration": 4, "velocity": 91}, {"time": 1491, "pitch": 63, "duration": 6, "velocity": 104}, {"time": 1494, "pitch": 51, "duration": 4, "velocity": 98}, {"time": 1497, "pitch": 55, "duration": 4, "velocity": 91}, {"time": 1497, "pitch": 63, "duration": 1, "velocity": 74}, {"time": 1500, "pitch": 58, "duration": 8, "velocity": 87}, {"time": 1503, "pitch": 39, "duration": 17, "velocity": 91}, {"time": 1503, "pitch": 55, "duration": 2, "velocity": 89}, {"time": 1503, "pitch": 63, "duration": 8, "velocity": 94}, {"time": 1512, "pitch": 51, "duration": 6, "velocity": 86}, {"time": 1515, "pitch": 58, "duration": 10, "velocity": 96}, {"time": 1515, "pitch": 63, "duration": 10, "velocity": 96}, {"time": 1515, "pitch": 67, "duration": 9, "velocity": 104}, {"time": 1521, "pitch": 51, "duration": 6, "velocity": 86}, {"time": 1527, "pitch": 41, "duration": 18, "velocity": 86}, {"time": 1527, "pitch": 56, "duration": 9, "velocity": 86}, {"time": 1527, "pitch": 65, "duration": 8, "velocity": 98}, {"time": 1536, "pitch": 53, "duration": 5, "velocity": 80}, {"time": 1539, "pitch": 56, "duration": 8, "velocity": 106}, {"time": 1539, "pitch": 65, "duration": 10, "velocity": 110}, {"time": 1545, "pitch": 53, "duration": 6, "velocity": 85}, {"time": 1551, "pitch": 44, "duration": 18, "velocity": 84}, {"time": 1551, "pitch": 60, "duration": 9, "velocity": 87}, {"time": 1551, "pitch": 63, "duration": 9, "velocity": 89}, {"time": 1551, "pitch": 67, "duration": 9, "velocity": 88}, {"time": 1560, "pitch": 56, "duration": 5, "velocity": 78}, {"time": 1563, "pitch": 60, "duration": 7, "velocity": 94}, {"time": 1563, "pitch": 63, "duration": 11, "velocity": 107}, {"time": 1563, "pitch": 67, "duration": 10, "velocity": 98}, {"time": 1569, "pitch": 56, "duration": 3, "velocity": 86}, {"time": 1575, "pitch": 46, "duration": 19, "velocity": 85}, {"time": 1575, "pitch": 58, "duration": 7, "velocity": 88}, {"time": 1575, "pitch": 62, "duration": 8, "velocity": 92}, {"time": 1575, "pitch": 65, "duration": 8, "velocity": 89}, {"time": 1584, "pitch": 53, "duration": 4, "velocity": 84}, {"time": 1587, "pitch": 58, "duration": 8, "velocity": 102}, {"time": 1587, "pitch": 65, "duration": 8, "velocity": 107}, {"time": 1593, "pitch": 53, "duration": 5, "velocity": 81}, {"time": 1599, "pitch": 48, "duration": 19, "velocity": 89}, {"time": 1599, "pitch": 60, "duration": 9, "velocity": 89}, {"time": 1599, "pitch": 63, "duration": 9, "velocity": 98}, {"time": 1599, "pitch": 67, "duration": 9, "velocity": 100}, {"time": 1608, "pitch": 55, "duration": 10, "velocity": 83}, {"time": 1611, "pitch": 60, "duration": 8, "velocity": 100}, {"time": 1611, "pitch": 63, "duration": 9, "velocity": 107}, {"time": 1611, "pitch": 67, "duration": 8, "velocity": 98}, {"time": 1623, "pitch": 48, "duration": 19, "velocity": 86}, {"time": 1623, "pitch": 60, "duration": 8, "velocity": 88}, {"time": 1623, "pitch": 63, "duration": 8, "velocity": 94}, {"time": 1623, "pitch": 67, "duration": 7, "velocity": 93}, {"time": 1632, "pitch": 55, "duration": 5, "velocity": 70}, {"time": 1635, "pitch": 60, "duration": 7, "velocity": 92}, {"time": 1635, "pitch": 63, "duration": 9, "velocity": 104}, {"time": 1635, "pitch": 67, "duration": 7, "velocity": 93}, {"time": 1647, "pitch": 46, "duration": 21, "velocity": 86}, {"time": 1647, "pitch": 58, "duration": 8, "velocity": 86}, {"time": 1647, "pitch": 62, "duration": 9, "velocity": 93}, {"time": 1647, "pitch": 65, "duration": 8, "velocity": 91}, {"time": 1656, "pitch": 53, "duration": 5, "velocity": 76}, {"time": 1659, "pitch": 58, "duration": 8, "velocity": 96}, {"time": 1659, "pitch": 62, "duration": 9, "velocity": 110}, {"time": 1659, "pitch": 65, "duration": 8, "velocity": 108}, {"time": 1665, "pitch": 53, "duration": 4, "velocity": 75}, {"time": 1671, "pitch": 46, "duration": 18, "velocity": 84}, {"time": 1671, "pitch": 58, "duration": 7, "velocity": 88}, {"time": 1671, "pitch": 62, "duration": 9, "velocity": 93}, {"time": 1671, "pitch": 65, "duration": 9, "velocity": 92}, {"time": 1680, "pitch": 53, "duration": 8, "velocity": 88}, {"time": 1683, "pitch": 58, "duration": 4, "velocity": 94}, {"time": 1686, "pitch": 62, "duration": 2, "velocity": 100}, {"time": 1689, "pitch": 65, "duration": 4, "velocity": 114}, {"time": 1695, "pitch": 46, "duration": 15, "velocity": 89}, {"time": 1695, "pitch": 58, "duration": 9, "velocity": 90}, {"time": 1695, "pitch": 62, "duration": 9, "velocity": 93}, {"time": 1695, "pitch": 65, "duration": 8, "velocity": 86}, {"time": 1704, "pitch": 53, "duration": 6, "velocity": 81}, {"time": 1707, "pitch": 58, "duration": 11, "velocity": 98}, {"time": 1707, "pitch": 62, "duration": 5, "velocity": 110}, {"time": 1707, "pitch": 65, "duration": 8, "velocity": 102}, {"time": 1713, "pitch": 46, "duration": 2, "velocity": 86}, {"time": 1719, "pitch": 39, "duration": 21, "velocity": 84}, {"time": 1719, "pitch": 55, "duration": 9, "velocity": 89}, {"time": 1719, "pitch": 58, "duration": 10, "velocity": 89}, {"time": 1719, "pitch": 63, "duration": 9, "velocity": 89}, {"time": 1725, "pitch": 46, "duration": 15, "velocity": 71}, {"time": 1728, "pitch": 51, "duration": 4, "velocity": 93}, {"time": 1731, "pitch": 53, "duration": 3, "velocity": 100}, {"time": 1734, "pitch": 55, "duration": 2, "velocity": 93}, {"time": 1737, "pitch": 58, "duration": 3, "velocity": 96}, {"time": 1740, "pitch": 55, "duration": 2, "velocity": 88}, {"time": 1743, "pitch": 39, "duration": 17, "velocity": 91}, {"time": 1743, "pitch": 55, "duration": 2, "velocity": 89}, {"time": 1743, "pitch": 63, "duration": 8, "velocity": 94}, {"time": 1752, "pitch": 51, "duration": 6, "velocity": 86}, {"time": 1755, "pitch": 58, "duration": 10, "velocity": 96}, {"time": 1755, "pitch": 63, "duration": 10, "velocity": 96}, {"time": 1755, "pitch": 67, "duration": 9, "velocity": 104}, {"time": 1761, "pitch": 51, "duration": 6, "velocity": 86}, {"time": 1767, "pitch": 41, "duration": 18, "velocity": 86}, {"time": 1767, "pitch": 56, "duration": 9, "velocity": 86}, {"time": 1767, "pitch": 65, "duration": 8, "velocity": 98}, {"time": 1776, "pitch": 53, "duration": 5, "velocity": 80}, {"time": 1779, "pitch": 56, "duration": 8, "velocity": 106}, {"time": 1779, "pitch": 65, "duration": 10, "velocity": 110}, {"time": 1785, "pitch": 53, "duration": 6, "velocity": 85}, {"time": 1791, "pitch": 44, "duration": 18, "velocity": 84}, {"time": 1791, "pitch": 60, "duration": 9, "velocity": 87}, {"time": 1791, "pitch": 63, "duration": 9, "velocity": 89}, {"time": 1791, "pitch": 67, "duration": 9, "velocity": 88}, {"time": 1800, "pitch": 56, "duration": 5, "velocity": 78}, {"time": 1803, "pitch": 60, "duration": 7, "velocity": 94}, {"time": 1803, "pitch": 63, "duration": 11, "velocity": 107}, {"time": 1803, "pitch": 67, "duration": 10, "velocity": 98}, {"time": 1809, "pitch": 56, "duration": 3, "velocity": 86}, {"time": 1815, "pitch": 46, "duration": 19, "velocity": 85}, {"time": 1815, "pitch": 58, "duration": 7, "velocity": 88}, {"time": 1815, "pitch": 62, "duration": 8, "velocity": 92}, {"time": 1815, "pitch": 65, "duration": 8, "velocity": 89}, {"time": 1824, "pitch": 53, "duration": 4, "velocity": 84}, {"time": 1827, "pitch": 58, "duration": 8, "velocity": 102}, {"time": 1827, "pitch": 65, "duration": 8, "velocity": 107}, {"time": 1833, "pitch": 53, "duration": 5, "velocity": 81}, {"time": 1839, "pitch": 48, "duration": 19, "velocity": 89}, {"time": 1839, "pitch": 60, "duration": 9, "velocity": 89}, {"time": 1839, "pitch": 63, "duration": 9, "velocity": 98}, {"time": 1839, "pitch": 67, "duration": 9, "velocity": 100}, {"time": 1848, "pitch": 55, "duration": 10, "velocity": 83}, {"time": 1851, "pitch": 60, "duration": 8, "velocity": 100}, {"time": 1851, "pitch": 63, "duration": 9, "velocity": 107}, {"time": 1851, "pitch": 67, "duration": 8, "velocity": 98}, {"time": 1863, "pitch": 48, "duration": 19, "velocity": 86}, {"time": 1863, "pitch": 60, "duration": 8, "velocity": 88}, {"time": 1863, "pitch": 63, "duration": 8, "velocity": 94}, {"time": 1863, "pitch": 67, "duration": 7, "velocity": 93}, {"time": 1872, "pitch": 55, "duration": 5, "velocity": 70}, {"time": 1875, "pitch": 60, "duration": 7, "velocity": 92}, {"time": 1875, "pitch": 63, "duration": 9, "velocity": 104}, {"time": 1875, "pitch": 67, "duration": 7, "velocity": 93}, {"time": 1887, "pitch": 46, "duration": 21, "velocity": 86}, {"time": 1887, "pitch": 58, "duration": 8, "velocity": 86}, {"time": 1887, "pitch": 62, "duration": 9, "velocity": 93}, {"time": 1887, "pitch": 65, "duration": 8, "velocity": 91}, {"time": 1896, "pitch": 53, "duration": 5, "velocity": 76}, {"time": 1899, "pitch": 58, "duration": 8, "velocity": 96}, {"time": 1899, "pitch": 62, "duration": 9, "velocity": 110}, {"time": 1899, "pitch": 65, "duration": 8, "velocity": 108}, {"time": 1905, "pitch": 53, "duration": 4, "velocity": 75}, {"time": 1911, "pitch": 46, "duration": 18, "velocity": 84}, {"time": 1911, "pitch": 58, "duration": 7, "velocity": 88}, {"time": 1911, "pitch": 62, "duration": 9, "velocity": 93}, {"time": 1911, "pitch": 65, "duration": 9, "velocity": 92}, {"time": 1920, "pitch": 53, "duration": 8, "velocity": 88}, {"time": 1923, "pitch": 58, "duration": 4, "velocity": 94}, {"time": 1926, "pitch": 62, "duration": 2, "velocity": 100}, {"time": 1936, "pitch": 46, "duration": 15, "velocity": 89}, {"time": 1936, "pitch": 58, "duration": 9, "velocity": 90}, {"time": 1936, "pitch": 62, "duration": 9, "velocity": 93}, {"time": 1936, "pitch": 65, "duration": 8, "velocity": 86}, {"time": 1948, "pitch": 58, "duration": 11, "velocity": 98}, {"time": 1951, "pitch": 62, "duration": 5, "velocity": 110}, {"time": 1954, "pitch": 46, "duration": 5, "velocity": 86}, {"time": 1954, "pitch": 65, "duration": 2, "velocity": 102}, {"time": 1961, "pitch": 46, "duration": 31, "velocity": 91}, {"time": 1961, "pitch": 58, "duration": 30, "velocity": 94}, {"time": 1961, "pitch": 62, "duration": 30, "velocity": 108}, {"time": 1961, "pitch": 65, "duration": 30, "velocity": 96}, {"time": 2010, "pitch": 39, "duration": 20, "velocity": 83}, {"time": 2010, "pitch": 51, "duration": 20, "velocity": 83}, {"time": 2010, "pitch": 55, "duration": 19, "velocity": 81}, {"time": 2010, "pitch": 58, "duration": 19, "velocity": 86}, {"time": 2010, "pitch": 63, "duration": 18, "velocity": 85}, {"time": 2034, "pitch": 46, "duration": 23, "velocity": 87}, {"time": 2034, "pitch": 53, "duration": 22, "velocity": 80}, {"time": 2034, "pitch": 58, "duration": 24, "velocity": 83}, {"time": 2034, "pitch": 62, "duration": 21, "velocity": 82}, {"time": 2058, "pitch": 39, "duration": 21, "velocity": 81}, {"time": 2058, "pitch": 51, "duration": 21, "velocity": 80}, {"time": 2058, "pitch": 55, "duration": 21, "velocity": 81}, {"time": 2058, "pitch": 58, "duration": 1, "velocity": 84}, {"time": 2058, "pitch": 63, "duration": 21, "velocity": 86}]}]}