{"metadata": {"schema_version": "0.2", "title": "None", "source_filename": "335.mid", "source_format": "midi"}, "resolution": 12, "tempos": [{"time": 0, "qpm": 58.500115537728185}], "time_signatures": [{"time": 0, "numerator": 1, "denominator": 4}], "tracks": [{"program": 4, "is_drum": false, "name": "MELODY", "notes": [{"time": 404, "pitch": 74, "duration": 2, "velocity": 93}, {"time": 407, "pitch": 67, "duration": 1, "velocity": 83}, {"time": 410, "pitch": 67, "duration": 1, "velocity": 72}, {"time": 413, "pitch": 67, "duration": 1, "velocity": 80}, {"time": 416, "pitch": 67, "duration": 4, "velocity": 87}, {"time": 422, "pitch": 74, "duration": 4, "velocity": 93}, {"time": 428, "pitch": 74, "duration": 4, "velocity": 102}, {"time": 434, "pitch": 67, "duration": 4, "velocity": 93}, {"time": 440, "pitch": 72, "duration": 8, "velocity": 87}, {"time": 452, "pitch": 72, "duration": 4, "velocity": 87}, {"time": 458, "pitch": 67, "duration": 1, "velocity": 85}, {"time": 461, "pitch": 67, "duration": 6, "velocity": 87}, {"time": 470, "pitch": 72, "duration": 3, "velocity": 80}, {"time": 476, "pitch": 72, "duration": 4, "velocity": 87}, {"time": 482, "pitch": 67, "duration": 4, "velocity": 83}, {"time": 488, "pitch": 70, "duration": 7, "velocity": 87}, {"time": 500, "pitch": 70, "duration": 4, "velocity": 95}, {"time": 506, "pitch": 62, "duration": 1, "velocity": 80}, {"time": 509, "pitch": 62, "duration": 7, "velocity": 83}, {"time": 518, "pitch": 70, "duration": 1, "velocity": 87}, {"time": 521, "pitch": 70, "duration": 1, "velocity": 87}, {"time": 524, "pitch": 70, "duration": 3, "velocity": 87}, {"time": 530, "pitch": 62, "duration": 4, "velocity": 85}, {"time": 536, "pitch": 69, "duration": 8, "velocity": 93}, {"time": 548, "pitch": 69, "duration": 5, "velocity": 95}, {"time": 554, "pitch": 65, "duration": 4, "velocity": 87}, {"time": 560, "pitch": 67, "duration": 4, "velocity": 83}, {"time": 566, "pitch": 69, "duration": 4, "velocity": 93}, {"time": 572, "pitch": 67, "duration": 33, "velocity": 87}, {"time": 620, "pitch": 74, "duration": 2, "velocity": 93}, {"time": 623, "pitch": 67, "duration": 1, "velocity": 87}, {"time": 626, "pitch": 67, "duration": 1, "velocity": 83}, {"time": 629, "pitch": 67, "duration": 7, "velocity": 87}, {"time": 638, "pitch": 74, "duration": 1, "velocity": 83}, {"time": 641, "pitch": 74, "duration": 1, "velocity": 90}, {"time": 644, "pitch": 74, "duration": 1, "velocity": 102}, {"time": 647, "pitch": 74, "duration": 1, "velocity": 93}, {"time": 650, "pitch": 67, "duration": 4, "velocity": 93}, {"time": 656, "pitch": 72, "duration": 7, "velocity": 80}, {"time": 668, "pitch": 72, "duration": 4, "velocity": 65}, {"time": 674, "pitch": 67, "duration": 1, "velocity": 74}, {"time": 677, "pitch": 67, "duration": 1, "velocity": 72}, {"time": 680, "pitch": 67, "duration": 4, "velocity": 93}, {"time": 686, "pitch": 72, "duration": 4, "velocity": 85}, {"time": 692, "pitch": 72, "duration": 4, "velocity": 93}, {"time": 698, "pitch": 67, "duration": 4, "velocity": 80}, {"time": 704, "pitch": 70, "duration": 7, "velocity": 87}, {"time": 716, "pitch": 70, "duration": 4, "velocity": 80}, {"time": 722, "pitch": 62, "duration": 1, "velocity": 87}, {"time": 725, "pitch": 62, "duration": 7, "velocity": 87}, {"time": 734, "pitch": 70, "duration": 3, "velocity": 95}, {"time": 740, "pitch": 70, "duration": 3, "velocity": 87}, {"time": 746, "pitch": 62, "duration": 3, "velocity": 93}, {"time": 752, "pitch": 69, "duration": 7, "velocity": 95}, {"time": 764, "pitch": 69, "duration": 4, "velocity": 87}, {"time": 770, "pitch": 65, "duration": 4, "velocity": 80}, {"time": 776, "pitch": 67, "duration": 4, "velocity": 80}, {"time": 782, "pitch": 69, "duration": 4, "velocity": 93}, {"time": 788, "pitch": 67, "duration": 32, "velocity": 83}, {"time": 884, "pitch": 77, "duration": 2, "velocity": 95}, {"time": 887, "pitch": 74, "duration": 3, "velocity": 102}, {"time": 893, "pitch": 74, "duration": 12, "velocity": 93}, {"time": 908, "pitch": 74, "duration": 2, "velocity": 93}, {"time": 911, "pitch": 67, "duration": 1, "velocity": 83}, {"time": 914, "pitch": 67, "duration": 2, "velocity": 74}, {"time": 917, "pitch": 70, "duration": 15, "velocity": 74}, {"time": 935, "pitch": 72, "duration": 1, "velocity": 80}, {"time": 938, "pitch": 72, "duration": 1, "velocity": 83}, {"time": 941, "pitch": 72, "duration": 1, "velocity": 83}, {"time": 944, "pitch": 72, "duration": 6, "velocity": 87}, {"time": 953, "pitch": 67, "duration": 2, "velocity": 71}, {"time": 956, "pitch": 70, "duration": 4, "velocity": 80}, {"time": 962, "pitch": 72, "duration": 2, "velocity": 80}, {"time": 965, "pitch": 74, "duration": 1, "velocity": 85}, {"time": 968, "pitch": 74, "duration": 8, "velocity": 93}, {"time": 980, "pitch": 77, "duration": 1, "velocity": 93}, {"time": 983, "pitch": 74, "duration": 4, "velocity": 102}, {"time": 989, "pitch": 74, "duration": 9, "velocity": 93}, {"time": 1001, "pitch": 72, "duration": 2, "velocity": 80}, {"time": 1004, "pitch": 74, "duration": 3, "velocity": 83}, {"time": 1007, "pitch": 67, "duration": 3, "velocity": 72}, {"time": 1010, "pitch": 67, "duration": 3, "velocity": 72}, {"time": 1013, "pitch": 70, "duration": 4, "velocity": 72}, {"time": 1028, "pitch": 72, "duration": 1, "velocity": 90}, {"time": 1031, "pitch": 72, "duration": 1, "velocity": 85}, {"time": 1034, "pitch": 72, "duration": 1, "velocity": 80}, {"time": 1037, "pitch": 67, "duration": 1, "velocity": 87}, {"time": 1040, "pitch": 70, "duration": 1, "velocity": 80}, {"time": 1043, "pitch": 70, "duration": 1, "velocity": 80}, {"time": 1046, "pitch": 69, "duration": 5, "velocity": 93}, {"time": 1052, "pitch": 67, "duration": 27, "velocity": 80}, {"time": 1100, "pitch": 79, "duration": 1, "velocity": 102}, {"time": 1103, "pitch": 79, "duration": 1, "velocity": 93}, {"time": 1106, "pitch": 79, "duration": 1, "velocity": 93}, {"time": 1109, "pitch": 77, "duration": 1, "velocity": 87}, {"time": 1112, "pitch": 74, "duration": 1, "velocity": 90}, {"time": 1115, "pitch": 74, "duration": 1, "velocity": 83}, {"time": 1118, "pitch": 74, "duration": 1, "velocity": 93}, {"time": 1121, "pitch": 77, "duration": 1, "velocity": 103}, {"time": 1124, "pitch": 79, "duration": 1, "velocity": 93}, {"time": 1127, "pitch": 79, "duration": 1, "velocity": 93}, {"time": 1130, "pitch": 79, "duration": 1, "velocity": 87}, {"time": 1133, "pitch": 76, "duration": 1, "velocity": 95}, {"time": 1136, "pitch": 74, "duration": 8, "velocity": 102}, {"time": 1151, "pitch": 72, "duration": 1, "velocity": 80}, {"time": 1154, "pitch": 72, "duration": 1, "velocity": 83}, {"time": 1157, "pitch": 72, "duration": 1, "velocity": 74}, {"time": 1160, "pitch": 72, "duration": 4, "velocity": 80}, {"time": 1166, "pitch": 70, "duration": 1, "velocity": 93}, {"time": 1169, "pitch": 67, "duration": 1, "velocity": 90}, {"time": 1172, "pitch": 70, "duration": 1, "velocity": 87}, {"time": 1175, "pitch": 70, "duration": 1, "velocity": 74}, {"time": 1178, "pitch": 72, "duration": 4, "velocity": 83}, {"time": 1184, "pitch": 74, "duration": 8, "velocity": 102}, {"time": 1196, "pitch": 79, "duration": 1, "velocity": 93}, {"time": 1199, "pitch": 79, "duration": 1, "velocity": 93}, {"time": 1202, "pitch": 79, "duration": 2, "velocity": 93}, {"time": 1205, "pitch": 77, "duration": 1, "velocity": 80}, {"time": 1208, "pitch": 74, "duration": 1, "velocity": 95}, {"time": 1211, "pitch": 74, "duration": 1, "velocity": 83}, {"time": 1214, "pitch": 74, "duration": 1, "velocity": 95}, {"time": 1217, "pitch": 77, "duration": 1, "velocity": 102}, {"time": 1220, "pitch": 79, "duration": 1, "velocity": 90}, {"time": 1223, "pitch": 79, "duration": 1, "velocity": 85}, {"time": 1226, "pitch": 79, "duration": 1, "velocity": 87}, {"time": 1229, "pitch": 76, "duration": 1, "velocity": 87}, {"time": 1232, "pitch": 74, "duration": 8, "velocity": 93}, {"time": 1241, "pitch": 72, "duration": 1, "velocity": 85}, {"time": 1244, "pitch": 70, "duration": 1, "velocity": 102}, {"time": 1247, "pitch": 70, "duration": 7, "velocity": 72}, {"time": 1256, "pitch": 69, "duration": 1, "velocity": 93}, {"time": 1259, "pitch": 69, "duration": 8, "velocity": 93}, {"time": 1268, "pitch": 67, "duration": 24, "velocity": 85}, {"time": 1484, "pitch": 74, "duration": 2, "velocity": 93}, {"time": 1487, "pitch": 67, "duration": 1, "velocity": 87}, {"time": 1490, "pitch": 67, "duration": 1, "velocity": 83}, {"time": 1493, "pitch": 67, "duration": 7, "velocity": 87}, {"time": 1502, "pitch": 74, "duration": 1, "velocity": 83}, {"time": 1505, "pitch": 74, "duration": 1, "velocity": 90}, {"time": 1508, "pitch": 74, "duration": 1, "velocity": 102}, {"time": 1511, "pitch": 74, "duration": 1, "velocity": 93}, {"time": 1514, "pitch": 67, "duration": 4, "velocity": 93}, {"time": 1520, "pitch": 72, "duration": 7, "velocity": 80}, {"time": 1532, "pitch": 72, "duration": 4, "velocity": 65}, {"time": 1538, "pitch": 67, "duration": 1, "velocity": 74}, {"time": 1541, "pitch": 67, "duration": 1, "velocity": 72}, {"time": 1544, "pitch": 67, "duration": 4, "velocity": 93}, {"time": 1550, "pitch": 72, "duration": 4, "velocity": 85}, {"time": 1556, "pitch": 72, "duration": 4, "velocity": 93}, {"time": 1562, "pitch": 67, "duration": 4, "velocity": 80}, {"time": 1568, "pitch": 70, "duration": 7, "velocity": 87}, {"time": 1580, "pitch": 70, "duration": 4, "velocity": 80}, {"time": 1586, "pitch": 62, "duration": 1, "velocity": 87}, {"time": 1589, "pitch": 62, "duration": 7, "velocity": 87}, {"time": 1598, "pitch": 70, "duration": 3, "velocity": 95}, {"time": 1604, "pitch": 70, "duration": 3, "velocity": 87}, {"time": 1610, "pitch": 62, "duration": 3, "velocity": 93}, {"time": 1616, "pitch": 69, "duration": 7, "velocity": 95}, {"time": 1628, "pitch": 69, "duration": 4, "velocity": 87}, {"time": 1634, "pitch": 65, "duration": 4, "velocity": 80}, {"time": 1640, "pitch": 67, "duration": 4, "velocity": 80}, {"time": 1646, "pitch": 69, "duration": 4, "velocity": 93}, {"time": 1652, "pitch": 67, "duration": 32, "velocity": 83}, {"time": 1748, "pitch": 77, "duration": 2, "velocity": 95}, {"time": 1751, "pitch": 74, "duration": 3, "velocity": 102}, {"time": 1757, "pitch": 74, "duration": 12, "velocity": 93}, {"time": 1772, "pitch": 74, "duration": 2, "velocity": 93}, {"time": 1775, "pitch": 67, "duration": 1, "velocity": 83}, {"time": 1778, "pitch": 67, "duration": 2, "velocity": 74}, {"time": 1781, "pitch": 70, "duration": 15, "velocity": 74}, {"time": 1799, "pitch": 72, "duration": 1, "velocity": 80}, {"time": 1802, "pitch": 72, "duration": 1, "velocity": 83}, {"time": 1805, "pitch": 72, "duration": 1, "velocity": 83}, {"time": 1808, "pitch": 72, "duration": 6, "velocity": 87}, {"time": 1817, "pitch": 67, "duration": 2, "velocity": 71}, {"time": 1820, "pitch": 70, "duration": 4, "velocity": 80}, {"time": 1826, "pitch": 72, "duration": 2, "velocity": 80}, {"time": 1829, "pitch": 74, "duration": 1, "velocity": 85}, {"time": 1832, "pitch": 74, "duration": 8, "velocity": 93}, {"time": 1844, "pitch": 77, "duration": 1, "velocity": 93}, {"time": 1847, "pitch": 74, "duration": 4, "velocity": 102}, {"time": 1853, "pitch": 74, "duration": 9, "velocity": 93}, {"time": 1865, "pitch": 72, "duration": 2, "velocity": 80}, {"time": 1868, "pitch": 74, "duration": 3, "velocity": 83}, {"time": 1871, "pitch": 67, "duration": 3, "velocity": 72}, {"time": 1874, "pitch": 67, "duration": 3, "velocity": 72}, {"time": 1877, "pitch": 70, "duration": 4, "velocity": 72}, {"time": 1892, "pitch": 72, "duration": 1, "velocity": 90}, {"time": 1895, "pitch": 72, "duration": 1, "velocity": 85}, {"time": 1898, "pitch": 72, "duration": 1, "velocity": 80}, {"time": 1901, "pitch": 67, "duration": 1, "velocity": 87}, {"time": 1904, "pitch": 70, "duration": 1, "velocity": 80}, {"time": 1907, "pitch": 70, "duration": 1, "velocity": 80}, {"time": 1910, "pitch": 69, "duration": 5, "velocity": 93}, {"time": 1916, "pitch": 67, "duration": 27, "velocity": 80}, {"time": 1964, "pitch": 79, "duration": 1, "velocity": 102}, {"time": 1967, "pitch": 79, "duration": 1, "velocity": 93}, {"time": 1970, "pitch": 79, "duration": 1, "velocity": 93}, {"time": 1973, "pitch": 77, "duration": 1, "velocity": 87}, {"time": 1976, "pitch": 74, "duration": 1, "velocity": 90}, {"time": 1979, "pitch": 74, "duration": 1, "velocity": 83}, {"time": 1982, "pitch": 74, "duration": 1, "velocity": 93}, {"time": 1985, "pitch": 77, "duration": 1, "velocity": 103}, {"time": 1988, "pitch": 79, "duration": 1, "velocity": 93}, {"time": 1991, "pitch": 79, "duration": 1, "velocity": 93}, {"time": 1994, "pitch": 79, "duration": 1, "velocity": 87}, {"time": 1997, "pitch": 76, "duration": 1, "velocity": 95}, {"time": 2000, "pitch": 74, "duration": 8, "velocity": 102}, {"time": 2015, "pitch": 72, "duration": 1, "velocity": 80}, {"time": 2018, "pitch": 72, "duration": 1, "velocity": 83}, {"time": 2021, "pitch": 72, "duration": 1, "velocity": 74}, {"time": 2024, "pitch": 72, "duration": 4, "velocity": 80}, {"time": 2030, "pitch": 70, "duration": 1, "velocity": 93}, {"time": 2033, "pitch": 67, "duration": 1, "velocity": 90}, {"time": 2036, "pitch": 70, "duration": 1, "velocity": 87}, {"time": 2039, "pitch": 70, "duration": 1, "velocity": 74}, {"time": 2042, "pitch": 72, "duration": 4, "velocity": 83}, {"time": 2048, "pitch": 74, "duration": 8, "velocity": 102}, {"time": 2060, "pitch": 79, "duration": 1, "velocity": 93}, {"time": 2063, "pitch": 79, "duration": 1, "velocity": 93}, {"time": 2066, "pitch": 79, "duration": 2, "velocity": 93}, {"time": 2069, "pitch": 77, "duration": 1, "velocity": 80}, {"time": 2072, "pitch": 74, "duration": 1, "velocity": 95}, {"time": 2075, "pitch": 74, "duration": 1, "velocity": 83}, {"time": 2078, "pitch": 74, "duration": 1, "velocity": 95}, {"time": 2081, "pitch": 77, "duration": 1, "velocity": 102}, {"time": 2084, "pitch": 79, "duration": 1, "velocity": 90}, {"time": 2087, "pitch": 79, "duration": 1, "velocity": 85}, {"time": 2090, "pitch": 79, "duration": 1, "velocity": 87}, {"time": 2093, "pitch": 76, "duration": 1, "velocity": 87}, {"time": 2096, "pitch": 74, "duration": 8, "velocity": 93}, {"time": 2105, "pitch": 72, "duration": 1, "velocity": 85}, {"time": 2108, "pitch": 70, "duration": 1, "velocity": 102}, {"time": 2111, "pitch": 70, "duration": 7, "velocity": 72}, {"time": 2120, "pitch": 69, "duration": 1, "velocity": 93}, {"time": 2123, "pitch": 69, "duration": 8, "velocity": 93}, {"time": 2132, "pitch": 67, "duration": 24, "velocity": 85}, {"time": 2396, "pitch": 77, "duration": 2, "velocity": 95}, {"time": 2399, "pitch": 74, "duration": 3, "velocity": 102}, {"time": 2405, "pitch": 74, "duration": 12, "velocity": 93}, {"time": 2420, "pitch": 74, "duration": 2, "velocity": 93}, {"time": 2423, "pitch": 67, "duration": 1, "velocity": 83}, {"time": 2426, "pitch": 67, "duration": 2, "velocity": 74}, {"time": 2429, "pitch": 70, "duration": 15, "velocity": 74}, {"time": 2447, "pitch": 72, "duration": 1, "velocity": 80}, {"time": 2450, "pitch": 72, "duration": 1, "velocity": 83}, {"time": 2453, "pitch": 72, "duration": 1, "velocity": 83}, {"time": 2456, "pitch": 72, "duration": 6, "velocity": 87}, {"time": 2465, "pitch": 67, "duration": 2, "velocity": 71}, {"time": 2468, "pitch": 70, "duration": 4, "velocity": 80}, {"time": 2474, "pitch": 72, "duration": 2, "velocity": 80}, {"time": 2477, "pitch": 74, "duration": 1, "velocity": 85}, {"time": 2480, "pitch": 74, "duration": 8, "velocity": 93}, {"time": 2492, "pitch": 77, "duration": 1, "velocity": 93}, {"time": 2495, "pitch": 74, "duration": 4, "velocity": 102}, {"time": 2501, "pitch": 74, "duration": 9, "velocity": 93}, {"time": 2513, "pitch": 72, "duration": 2, "velocity": 80}, {"time": 2516, "pitch": 74, "duration": 3, "velocity": 83}, {"time": 2519, "pitch": 67, "duration": 3, "velocity": 72}, {"time": 2522, "pitch": 67, "duration": 3, "velocity": 72}, {"time": 2525, "pitch": 70, "duration": 4, "velocity": 72}, {"time": 2540, "pitch": 72, "duration": 1, "velocity": 90}, {"time": 2543, "pitch": 72, "duration": 1, "velocity": 85}, {"time": 2546, "pitch": 72, "duration": 1, "velocity": 80}, {"time": 2549, "pitch": 67, "duration": 1, "velocity": 87}, {"time": 2552, "pitch": 70, "duration": 1, "velocity": 80}, {"time": 2555, "pitch": 70, "duration": 1, "velocity": 80}, {"time": 2558, "pitch": 69, "duration": 5, "velocity": 93}, {"time": 2564, "pitch": 67, "duration": 24, "velocity": 80}, {"time": 2588, "pitch": 77, "duration": 2, "velocity": 95}, {"time": 2591, "pitch": 74, "duration": 3, "velocity": 102}, {"time": 2597, "pitch": 74, "duration": 12, "velocity": 93}, {"time": 2612, "pitch": 74, "duration": 2, "velocity": 93}, {"time": 2615, "pitch": 67, "duration": 1, "velocity": 83}, {"time": 2618, "pitch": 67, "duration": 2, "velocity": 74}, {"time": 2621, "pitch": 70, "duration": 15, "velocity": 74}, {"time": 2639, "pitch": 72, "duration": 1, "velocity": 80}, {"time": 2642, "pitch": 72, "duration": 1, "velocity": 83}, {"time": 2645, "pitch": 72, "duration": 1, "velocity": 83}, {"time": 2648, "pitch": 72, "duration": 6, "velocity": 87}, {"time": 2657, "pitch": 67, "duration": 2, "velocity": 71}, {"time": 2660, "pitch": 70, "duration": 4, "velocity": 80}, {"time": 2666, "pitch": 72, "duration": 2, "velocity": 80}, {"time": 2669, "pitch": 74, "duration": 1, "velocity": 85}, {"time": 2672, "pitch": 74, "duration": 8, "velocity": 93}, {"time": 2684, "pitch": 77, "duration": 1, "velocity": 93}, {"time": 2687, "pitch": 74, "duration": 4, "velocity": 102}, {"time": 2693, "pitch": 74, "duration": 9, "velocity": 93}, {"time": 2705, "pitch": 72, "duration": 2, "velocity": 80}, {"time": 2708, "pitch": 74, "duration": 3, "velocity": 83}, {"time": 2711, "pitch": 67, "duration": 3, "velocity": 72}, {"time": 2714, "pitch": 67, "duration": 3, "velocity": 72}, {"time": 2717, "pitch": 70, "duration": 4, "velocity": 72}, {"time": 2732, "pitch": 72, "duration": 1, "velocity": 90}, {"time": 2735, "pitch": 72, "duration": 1, "velocity": 85}, {"time": 2738, "pitch": 72, "duration": 1, "velocity": 80}, {"time": 2741, "pitch": 67, "duration": 1, "velocity": 87}, {"time": 2744, "pitch": 70, "duration": 1, "velocity": 80}, {"time": 2747, "pitch": 70, "duration": 1, "velocity": 80}, {"time": 2750, "pitch": 69, "duration": 5, "velocity": 93}, {"time": 2756, "pitch": 67, "duration": 27, "velocity": 80}, {"time": 2804, "pitch": 77, "duration": 2, "velocity": 95}, {"time": 2807, "pitch": 74, "duration": 3, "velocity": 102}, {"time": 2813, "pitch": 74, "duration": 12, "velocity": 93}, {"time": 2828, "pitch": 74, "duration": 2, "velocity": 93}, {"time": 2831, "pitch": 67, "duration": 1, "velocity": 83}, {"time": 2834, "pitch": 67, "duration": 2, "velocity": 74}, {"time": 2837, "pitch": 70, "duration": 15, "velocity": 74}, {"time": 2855, "pitch": 72, "duration": 1, "velocity": 80}, {"time": 2858, "pitch": 72, "duration": 1, "velocity": 83}, {"time": 2861, "pitch": 72, "duration": 1, "velocity": 83}, {"time": 2864, "pitch": 72, "duration": 6, "velocity": 87}, {"time": 2873, "pitch": 67, "duration": 2, "velocity": 71}, {"time": 2876, "pitch": 70, "duration": 4, "velocity": 80}, {"time": 2882, "pitch": 72, "duration": 2, "velocity": 80}, {"time": 2885, "pitch": 74, "duration": 1, "velocity": 85}, {"time": 2888, "pitch": 74, "duration": 8, "velocity": 93}, {"time": 2900, "pitch": 77, "duration": 1, "velocity": 93}, {"time": 2903, "pitch": 74, "duration": 4, "velocity": 102}, {"time": 2909, "pitch": 74, "duration": 9, "velocity": 93}, {"time": 2921, "pitch": 72, "duration": 2, "velocity": 80}, {"time": 2924, "pitch": 74, "duration": 3, "velocity": 83}, {"time": 2927, "pitch": 67, "duration": 3, "velocity": 72}, {"time": 2930, "pitch": 67, "duration": 3, "velocity": 72}, {"time": 2933, "pitch": 70, "duration": 4, "velocity": 72}, {"time": 2948, "pitch": 72, "duration": 1, "velocity": 90}, {"time": 2951, "pitch": 72, "duration": 1, "velocity": 85}, {"time": 2954, "pitch": 72, "duration": 1, "velocity": 80}, {"time": 2957, "pitch": 67, "duration": 1, "velocity": 87}, {"time": 2960, "pitch": 70, "duration": 1, "velocity": 80}, {"time": 2963, "pitch": 70, "duration": 1, "velocity": 80}, {"time": 2966, "pitch": 69, "duration": 5, "velocity": 93}, {"time": 2972, "pitch": 67, "duration": 24, "velocity": 80}, {"time": 2996, "pitch": 77, "duration": 2, "velocity": 95}, {"time": 2999, "pitch": 74, "duration": 3, "velocity": 102}, {"time": 3005, "pitch": 74, "duration": 12, "velocity": 93}, {"time": 3020, "pitch": 74, "duration": 2, "velocity": 93}, {"time": 3023, "pitch": 67, "duration": 1, "velocity": 83}, {"time": 3026, "pitch": 67, "duration": 2, "velocity": 74}, {"time": 3029, "pitch": 70, "duration": 15, "velocity": 74}, {"time": 3047, "pitch": 72, "duration": 1, "velocity": 80}, {"time": 3050, "pitch": 72, "duration": 1, "velocity": 83}, {"time": 3053, "pitch": 72, "duration": 1, "velocity": 83}, {"time": 3056, "pitch": 72, "duration": 6, "velocity": 87}, {"time": 3065, "pitch": 67, "duration": 2, "velocity": 71}, {"time": 3068, "pitch": 70, "duration": 4, "velocity": 85}, {"time": 3074, "pitch": 72, "duration": 2, "velocity": 80}, {"time": 3077, "pitch": 74, "duration": 1, "velocity": 77}, {"time": 3080, "pitch": 74, "duration": 8, "velocity": 74}, {"time": 3092, "pitch": 77, "duration": 1, "velocity": 63}, {"time": 3095, "pitch": 74, "duration": 4, "velocity": 60}, {"time": 3101, "pitch": 74, "duration": 9, "velocity": 55}, {"time": 3113, "pitch": 72, "duration": 2, "velocity": 44}, {"time": 3116, "pitch": 74, "duration": 3, "velocity": 41}, {"time": 3119, "pitch": 67, "duration": 3, "velocity": 38}, {"time": 3122, "pitch": 67, "duration": 3, "velocity": 35}, {"time": 3125, "pitch": 70, "duration": 4, "velocity": 33}, {"time": 3140, "pitch": 72, "duration": 1, "velocity": 19}, {"time": 3143, "pitch": 72, "duration": 1, "velocity": 16}, {"time": 3146, "pitch": 72, "duration": 1, "velocity": 13}, {"time": 3149, "pitch": 67, "duration": 1, "velocity": 11}, {"time": 3152, "pitch": 70, "duration": 1, "velocity": 8}, {"time": 3155, "pitch": 70, "duration": 1, "velocity": 5}, {"time": 3158, "pitch": 69, "duration": 5, "velocity": 2}, {"time": 3164, "pitch": 67, "duration": 27, "velocity": 1}]}, {"program": 0, "is_drum": false, "name": "PIANO", "notes": [{"time": 116, "pitch": 43, "duration": 22, "velocity": 85}, {"time": 119, "pitch": 50, "duration": 20, "velocity": 56}, {"time": 122, "pitch": 55, "duration": 21, "velocity": 72}, {"time": 125, "pitch": 62, "duration": 11, "velocity": 68}, {"time": 137, "pitch": 62, "duration": 10, "velocity": 36}, {"time": 137, "pitch": 67, "duration": 9, "velocity": 69}, {"time": 140, "pitch": 43, "duration": 19, "velocity": 72}, {"time": 143, "pitch": 50, "duration": 16, "velocity": 61}, {"time": 146, "pitch": 55, "duration": 1, "velocity": 55}, {"time": 149, "pitch": 55, "duration": 8, "velocity": 74}, {"time": 149, "pitch": 62, "duration": 7, "velocity": 74}, {"time": 164, "pitch": 43, "duration": 22, "velocity": 80}, {"time": 164, "pitch": 55, "duration": 4, "velocity": 64}, {"time": 164, "pitch": 62, "duration": 6, "velocity": 67}, {"time": 167, "pitch": 50, "duration": 19, "velocity": 64}, {"time": 170, "pitch": 55, "duration": 4, "velocity": 61}, {"time": 173, "pitch": 62, "duration": 10, "velocity": 68}, {"time": 185, "pitch": 55, "duration": 6, "velocity": 63}, {"time": 185, "pitch": 62, "duration": 9, "velocity": 68}, {"time": 185, "pitch": 67, "duration": 10, "velocity": 66}, {"time": 188, "pitch": 43, "duration": 22, "velocity": 85}, {"time": 191, "pitch": 50, "duration": 19, "velocity": 66}, {"time": 194, "pitch": 55, "duration": 5, "velocity": 70}, {"time": 197, "pitch": 62, "duration": 3, "velocity": 70}, {"time": 203, "pitch": 55, "duration": 1, "velocity": 83}, {"time": 203, "pitch": 67, "duration": 6, "velocity": 80}, {"time": 206, "pitch": 55, "duration": 4, "velocity": 87}, {"time": 212, "pitch": 43, "duration": 22, "velocity": 93}, {"time": 212, "pitch": 55, "duration": 3, "velocity": 74}, {"time": 212, "pitch": 62, "duration": 6, "velocity": 68}, {"time": 215, "pitch": 50, "duration": 19, "velocity": 60}, {"time": 218, "pitch": 55, "duration": 1, "velocity": 69}, {"time": 221, "pitch": 55, "duration": 5, "velocity": 72}, {"time": 221, "pitch": 67, "duration": 4, "velocity": 80}, {"time": 230, "pitch": 55, "duration": 1, "velocity": 72}, {"time": 230, "pitch": 62, "duration": 9, "velocity": 80}, {"time": 233, "pitch": 55, "duration": 6, "velocity": 83}, {"time": 236, "pitch": 43, "duration": 22, "velocity": 90}, {"time": 239, "pitch": 50, "duration": 19, "velocity": 59}, {"time": 242, "pitch": 55, "duration": 4, "velocity": 65}, {"time": 245, "pitch": 62, "duration": 6, "velocity": 80}, {"time": 251, "pitch": 67, "duration": 11, "velocity": 87}, {"time": 254, "pitch": 55, "duration": 8, "velocity": 66}, {"time": 257, "pitch": 62, "duration": 6, "velocity": 68}, {"time": 260, "pitch": 43, "duration": 22, "velocity": 80}, {"time": 263, "pitch": 50, "duration": 19, "velocity": 58}, {"time": 266, "pitch": 55, "duration": 2, "velocity": 66}, {"time": 269, "pitch": 62, "duration": 6, "velocity": 80}, {"time": 275, "pitch": 55, "duration": 4, "velocity": 58}, {"time": 278, "pitch": 62, "duration": 12, "velocity": 93}, {"time": 281, "pitch": 55, "duration": 5, "velocity": 87}, {"time": 284, "pitch": 43, "duration": 22, "velocity": 93}, {"time": 287, "pitch": 50, "duration": 19, "velocity": 61}, {"time": 290, "pitch": 55, "duration": 3, "velocity": 69}, {"time": 293, "pitch": 62, "duration": 2, "velocity": 70}, {"time": 299, "pitch": 67, "duration": 3, "velocity": 87}, {"time": 302, "pitch": 55, "duration": 3, "velocity": 69}, {"time": 305, "pitch": 62, "duration": 9, "velocity": 72}, {"time": 308, "pitch": 43, "duration": 21, "velocity": 87}, {"time": 311, "pitch": 50, "duration": 18, "velocity": 61}, {"time": 314, "pitch": 55, "duration": 4, "velocity": 72}, {"time": 317, "pitch": 67, "duration": 4, "velocity": 80}, {"time": 323, "pitch": 62, "duration": 3, "velocity": 87}, {"time": 326, "pitch": 55, "duration": 3, "velocity": 93}, {"time": 329, "pitch": 62, "duration": 9, "velocity": 80}, {"time": 332, "pitch": 43, "duration": 21, "velocity": 80}, {"time": 335, "pitch": 50, "duration": 18, "velocity": 58}, {"time": 338, "pitch": 55, "duration": 5, "velocity": 72}, {"time": 341, "pitch": 67, "duration": 2, "velocity": 74}, {"time": 347, "pitch": 62, "duration": 3, "velocity": 87}, {"time": 350, "pitch": 55, "duration": 2, "velocity": 87}, {"time": 353, "pitch": 62, "duration": 10, "velocity": 80}, {"time": 356, "pitch": 43, "duration": 21, "velocity": 93}, {"time": 359, "pitch": 50, "duration": 18, "velocity": 55}, {"time": 362, "pitch": 55, "duration": 4, "velocity": 68}, {"time": 365, "pitch": 67, "duration": 3, "velocity": 80}, {"time": 371, "pitch": 62, "duration": 3, "velocity": 80}, {"time": 374, "pitch": 55, "duration": 2, "velocity": 87}, {"time": 377, "pitch": 62, "duration": 9, "velocity": 83}, {"time": 380, "pitch": 43, "duration": 21, "velocity": 80}, {"time": 383, "pitch": 50, "duration": 18, "velocity": 59}, {"time": 386, "pitch": 55, "duration": 6, "velocity": 70}, {"time": 389, "pitch": 62, "duration": 4, "velocity": 80}, {"time": 389, "pitch": 67, "duration": 6, "velocity": 67}, {"time": 395, "pitch": 55, "duration": 3, "velocity": 80}, {"time": 398, "pitch": 62, "duration": 5, "velocity": 83}, {"time": 401, "pitch": 55, "duration": 2, "velocity": 66}, {"time": 404, "pitch": 43, "duration": 22, "velocity": 93}, {"time": 407, "pitch": 50, "duration": 19, "velocity": 56}, {"time": 410, "pitch": 55, "duration": 4, "velocity": 102}, {"time": 413, "pitch": 62, "duration": 16, "velocity": 87}, {"time": 422, "pitch": 67, "duration": 9, "velocity": 68}, {"time": 425, "pitch": 55, "duration": 6, "velocity": 74}, {"time": 428, "pitch": 43, "duration": 21, "velocity": 83}, {"time": 431, "pitch": 50, "duration": 18, "velocity": 65}, {"time": 434, "pitch": 55, "duration": 1, "velocity": 74}, {"time": 437, "pitch": 55, "duration": 15, "velocity": 87}, {"time": 437, "pitch": 62, "duration": 16, "velocity": 85}, {"time": 452, "pitch": 43, "duration": 22, "velocity": 87}, {"time": 455, "pitch": 50, "duration": 19, "velocity": 56}, {"time": 458, "pitch": 55, "duration": 12, "velocity": 72}, {"time": 461, "pitch": 62, "duration": 10, "velocity": 80}, {"time": 470, "pitch": 67, "duration": 3, "velocity": 85}, {"time": 473, "pitch": 55, "duration": 2, "velocity": 69}, {"time": 476, "pitch": 43, "duration": 18, "velocity": 90}, {"time": 476, "pitch": 55, "duration": 3, "velocity": 74}, {"time": 476, "pitch": 62, "duration": 4, "velocity": 69}, {"time": 479, "pitch": 50, "duration": 8, "velocity": 61}, {"time": 482, "pitch": 55, "duration": 2, "velocity": 64}, {"time": 485, "pitch": 62, "duration": 9, "velocity": 80}, {"time": 491, "pitch": 50, "duration": 3, "velocity": 56}, {"time": 494, "pitch": 55, "duration": 2, "velocity": 83}, {"time": 500, "pitch": 39, "duration": 14, "velocity": 83}, {"time": 503, "pitch": 46, "duration": 11, "velocity": 53}, {"time": 506, "pitch": 55, "duration": 4, "velocity": 74}, {"time": 509, "pitch": 63, "duration": 6, "velocity": 80}, {"time": 515, "pitch": 58, "duration": 2, "velocity": 74}, {"time": 518, "pitch": 55, "duration": 1, "velocity": 93}, {"time": 524, "pitch": 38, "duration": 17, "velocity": 90}, {"time": 527, "pitch": 45, "duration": 14, "velocity": 68}, {"time": 530, "pitch": 57, "duration": 3, "velocity": 87}, {"time": 533, "pitch": 62, "duration": 8, "velocity": 90}, {"time": 542, "pitch": 57, "duration": 3, "velocity": 87}, {"time": 545, "pitch": 62, "duration": 8, "velocity": 87}, {"time": 548, "pitch": 41, "duration": 18, "velocity": 85}, {"time": 551, "pitch": 48, "duration": 15, "velocity": 64}, {"time": 554, "pitch": 53, "duration": 8, "velocity": 74}, {"time": 557, "pitch": 65, "duration": 13, "velocity": 85}, {"time": 563, "pitch": 60, "duration": 3, "velocity": 87}, {"time": 566, "pitch": 53, "duration": 3, "velocity": 87}, {"time": 569, "pitch": 60, "duration": 3, "velocity": 80}, {"time": 572, "pitch": 39, "duration": 21, "velocity": 68}, {"time": 575, "pitch": 46, "duration": 19, "velocity": 52}, {"time": 578, "pitch": 51, "duration": 9, "velocity": 69}, {"time": 581, "pitch": 58, "duration": 2, "velocity": 87}, {"time": 587, "pitch": 55, "duration": 5, "velocity": 70}, {"time": 593, "pitch": 55, "duration": 1, "velocity": 24}, {"time": 593, "pitch": 63, "duration": 6, "velocity": 83}, {"time": 596, "pitch": 39, "duration": 15, "velocity": 85}, {"time": 599, "pitch": 46, "duration": 12, "velocity": 67}, {"time": 602, "pitch": 51, "duration": 1, "velocity": 80}, {"time": 605, "pitch": 51, "duration": 7, "velocity": 95}, {"time": 605, "pitch": 58, "duration": 7, "velocity": 68}, {"time": 614, "pitch": 55, "duration": 1, "velocity": 74}, {"time": 620, "pitch": 43, "duration": 22, "velocity": 93}, {"time": 620, "pitch": 55, "duration": 7, "velocity": 63}, {"time": 620, "pitch": 58, "duration": 7, "velocity": 68}, {"time": 623, "pitch": 50, "duration": 19, "velocity": 68}, {"time": 626, "pitch": 62, "duration": 3, "velocity": 70}, {"time": 629, "pitch": 67, "duration": 7, "velocity": 95}, {"time": 638, "pitch": 55, "duration": 1, "velocity": 87}, {"time": 638, "pitch": 62, "duration": 6, "velocity": 83}, {"time": 641, "pitch": 55, "duration": 3, "velocity": 83}, {"time": 644, "pitch": 48, "duration": 22, "velocity": 87}, {"time": 647, "pitch": 55, "duration": 4, "velocity": 80}, {"time": 650, "pitch": 60, "duration": 2, "velocity": 68}, {"time": 653, "pitch": 63, "duration": 7, "velocity": 90}, {"time": 659, "pitch": 55, "duration": 9, "velocity": 68}, {"time": 668, "pitch": 48, "duration": 18, "velocity": 90}, {"time": 671, "pitch": 55, "duration": 3, "velocity": 80}, {"time": 674, "pitch": 60, "duration": 1, "velocity": 69}, {"time": 677, "pitch": 63, "duration": 3, "velocity": 95}, {"time": 683, "pitch": 60, "duration": 2, "velocity": 90}, {"time": 686, "pitch": 55, "duration": 2, "velocity": 80}, {"time": 689, "pitch": 60, "duration": 1, "velocity": 72}, {"time": 692, "pitch": 43, "duration": 17, "velocity": 93}, {"time": 692, "pitch": 55, "duration": 3, "velocity": 83}, {"time": 692, "pitch": 58, "duration": 5, "velocity": 72}, {"time": 695, "pitch": 50, "duration": 13, "velocity": 61}, {"time": 698, "pitch": 55, "duration": 1, "velocity": 67}, {"time": 701, "pitch": 55, "duration": 6, "velocity": 87}, {"time": 701, "pitch": 62, "duration": 5, "velocity": 80}, {"time": 710, "pitch": 58, "duration": 2, "velocity": 93}, {"time": 713, "pitch": 55, "duration": 2, "velocity": 66}, {"time": 716, "pitch": 36, "duration": 16, "velocity": 74}, {"time": 716, "pitch": 55, "duration": 3, "velocity": 80}, {"time": 716, "pitch": 63, "duration": 7, "velocity": 85}, {"time": 719, "pitch": 43, "duration": 13, "velocity": 47}, {"time": 722, "pitch": 55, "duration": 4, "velocity": 87}, {"time": 725, "pitch": 60, "duration": 6, "velocity": 93}, {"time": 731, "pitch": 55, "duration": 2, "velocity": 85}, {"time": 740, "pitch": 38, "duration": 15, "velocity": 93}, {"time": 740, "pitch": 57, "duration": 3, "velocity": 74}, {"time": 740, "pitch": 62, "duration": 6, "velocity": 74}, {"time": 743, "pitch": 45, "duration": 12, "velocity": 60}, {"time": 746, "pitch": 57, "duration": 3, "velocity": 80}, {"time": 749, "pitch": 62, "duration": 6, "velocity": 93}, {"time": 755, "pitch": 57, "duration": 3, "velocity": 68}, {"time": 764, "pitch": 41, "duration": 17, "velocity": 85}, {"time": 764, "pitch": 53, "duration": 3, "velocity": 74}, {"time": 764, "pitch": 60, "duration": 7, "velocity": 68}, {"time": 767, "pitch": 48, "duration": 13, "velocity": 56}, {"time": 770, "pitch": 53, "duration": 4, "velocity": 74}, {"time": 773, "pitch": 57, "duration": 5, "velocity": 102}, {"time": 779, "pitch": 60, "duration": 3, "velocity": 93}, {"time": 782, "pitch": 53, "duration": 1, "velocity": 87}, {"time": 788, "pitch": 39, "duration": 21, "velocity": 87}, {"time": 788, "pitch": 55, "duration": 3, "velocity": 80}, {"time": 788, "pitch": 63, "duration": 7, "velocity": 67}, {"time": 791, "pitch": 46, "duration": 19, "velocity": 50}, {"time": 794, "pitch": 55, "duration": 3, "velocity": 65}, {"time": 797, "pitch": 58, "duration": 3, "velocity": 87}, {"time": 803, "pitch": 63, "duration": 1, "velocity": 95}, {"time": 809, "pitch": 55, "duration": 6, "velocity": 69}, {"time": 812, "pitch": 39, "duration": 15, "velocity": 93}, {"time": 815, "pitch": 46, "duration": 12, "velocity": 59}, {"time": 818, "pitch": 55, "duration": 6, "velocity": 68}, {"time": 821, "pitch": 67, "duration": 6, "velocity": 87}, {"time": 827, "pitch": 63, "duration": 3, "velocity": 103}, {"time": 830, "pitch": 55, "duration": 1, "velocity": 87}, {"time": 836, "pitch": 43, "duration": 22, "velocity": 90}, {"time": 836, "pitch": 55, "duration": 3, "velocity": 74}, {"time": 836, "pitch": 58, "duration": 5, "velocity": 87}, {"time": 839, "pitch": 50, "duration": 19, "velocity": 65}, {"time": 842, "pitch": 55, "duration": 4, "velocity": 71}, {"time": 845, "pitch": 62, "duration": 6, "velocity": 83}, {"time": 851, "pitch": 67, "duration": 7, "velocity": 90}, {"time": 857, "pitch": 55, "duration": 4, "velocity": 68}, {"time": 860, "pitch": 43, "duration": 10, "velocity": 93}, {"time": 860, "pitch": 58, "duration": 6, "velocity": 71}, {"time": 860, "pitch": 62, "duration": 6, "velocity": 80}, {"time": 863, "pitch": 50, "duration": 8, "velocity": 63}, {"time": 866, "pitch": 55, "duration": 4, "velocity": 83}, {"time": 869, "pitch": 58, "duration": 1, "velocity": 67}, {"time": 872, "pitch": 41, "duration": 9, "velocity": 90}, {"time": 872, "pitch": 53, "duration": 9, "velocity": 74}, {"time": 872, "pitch": 57, "duration": 9, "velocity": 80}, {"time": 884, "pitch": 46, "duration": 19, "velocity": 93}, {"time": 884, "pitch": 58, "duration": 4, "velocity": 74}, {"time": 887, "pitch": 53, "duration": 13, "velocity": 66}, {"time": 890, "pitch": 58, "duration": 3, "velocity": 83}, {"time": 893, "pitch": 65, "duration": 6, "velocity": 93}, {"time": 899, "pitch": 58, "duration": 4, "velocity": 95}, {"time": 902, "pitch": 53, "duration": 4, "velocity": 90}, {"time": 905, "pitch": 58, "duration": 2, "velocity": 103}, {"time": 908, "pitch": 48, "duration": 16, "velocity": 87}, {"time": 911, "pitch": 55, "duration": 13, "velocity": 72}, {"time": 914, "pitch": 60, "duration": 2, "velocity": 80}, {"time": 917, "pitch": 60, "duration": 5, "velocity": 83}, {"time": 917, "pitch": 67, "duration": 6, "velocity": 69}, {"time": 923, "pitch": 63, "duration": 1, "velocity": 103}, {"time": 926, "pitch": 60, "duration": 2, "velocity": 87}, {"time": 932, "pitch": 41, "duration": 17, "velocity": 85}, {"time": 932, "pitch": 60, "duration": 3, "velocity": 74}, {"time": 932, "pitch": 65, "duration": 6, "velocity": 80}, {"time": 935, "pitch": 48, "duration": 14, "velocity": 59}, {"time": 938, "pitch": 60, "duration": 3, "velocity": 69}, {"time": 941, "pitch": 65, "duration": 6, "velocity": 102}, {"time": 947, "pitch": 69, "duration": 6, "velocity": 87}, {"time": 950, "pitch": 60, "duration": 3, "velocity": 80}, {"time": 953, "pitch": 65, "duration": 2, "velocity": 74}, {"time": 956, "pitch": 39, "duration": 5, "velocity": 87}, {"time": 956, "pitch": 63, "duration": 3, "velocity": 67}, {"time": 956, "pitch": 67, "duration": 6, "velocity": 83}, {"time": 959, "pitch": 46, "duration": 3, "velocity": 56}, {"time": 962, "pitch": 63, "duration": 3, "velocity": 74}, {"time": 965, "pitch": 67, "duration": 2, "velocity": 71}, {"time": 968, "pitch": 38, "duration": 6, "velocity": 93}, {"time": 968, "pitch": 62, "duration": 4, "velocity": 70}, {"time": 968, "pitch": 66, "duration": 6, "velocity": 64}, {"time": 971, "pitch": 45, "duration": 3, "velocity": 61}, {"time": 974, "pitch": 62, "duration": 1, "velocity": 87}, {"time": 980, "pitch": 43, "duration": 21, "velocity": 93}, {"time": 983, "pitch": 50, "duration": 18, "velocity": 68}, {"time": 986, "pitch": 55, "duration": 2, "velocity": 95}, {"time": 989, "pitch": 55, "duration": 4, "velocity": 83}, {"time": 989, "pitch": 62, "duration": 4, "velocity": 83}, {"time": 995, "pitch": 58, "duration": 1, "velocity": 102}, {"time": 998, "pitch": 55, "duration": 2, "velocity": 87}, {"time": 1004, "pitch": 48, "duration": 18, "velocity": 80}, {"time": 1004, "pitch": 55, "duration": 1, "velocity": 72}, {"time": 1004, "pitch": 60, "duration": 3, "velocity": 74}, {"time": 1007, "pitch": 55, "duration": 4, "velocity": 85}, {"time": 1010, "pitch": 60, "duration": 1, "velocity": 68}, {"time": 1013, "pitch": 55, "duration": 3, "velocity": 87}, {"time": 1013, "pitch": 63, "duration": 4, "velocity": 87}, {"time": 1019, "pitch": 55, "duration": 2, "velocity": 93}, {"time": 1019, "pitch": 60, "duration": 3, "velocity": 90}, {"time": 1028, "pitch": 39, "duration": 5, "velocity": 80}, {"time": 1028, "pitch": 58, "duration": 6, "velocity": 68}, {"time": 1031, "pitch": 46, "duration": 2, "velocity": 60}, {"time": 1034, "pitch": 55, "duration": 3, "velocity": 87}, {"time": 1037, "pitch": 63, "duration": 1, "velocity": 83}, {"time": 1040, "pitch": 41, "duration": 6, "velocity": 80}, {"time": 1040, "pitch": 53, "duration": 3, "velocity": 90}, {"time": 1040, "pitch": 57, "duration": 6, "velocity": 93}, {"time": 1043, "pitch": 48, "duration": 4, "velocity": 61}, {"time": 1046, "pitch": 53, "duration": 2, "velocity": 93}, {"time": 1052, "pitch": 43, "duration": 21, "velocity": 87}, {"time": 1052, "pitch": 55, "duration": 3, "velocity": 70}, {"time": 1052, "pitch": 62, "duration": 5, "velocity": 68}, {"time": 1055, "pitch": 50, "duration": 18, "velocity": 61}, {"time": 1058, "pitch": 55, "duration": 6, "velocity": 80}, {"time": 1061, "pitch": 67, "duration": 4, "velocity": 87}, {"time": 1067, "pitch": 62, "duration": 3, "velocity": 87}, {"time": 1070, "pitch": 55, "duration": 9, "velocity": 87}, {"time": 1073, "pitch": 62, "duration": 10, "velocity": 80}, {"time": 1076, "pitch": 43, "duration": 24, "velocity": 80}, {"time": 1079, "pitch": 50, "duration": 13, "velocity": 59}, {"time": 1082, "pitch": 55, "duration": 1, "velocity": 72}, {"time": 1085, "pitch": 55, "duration": 9, "velocity": 95}, {"time": 1085, "pitch": 62, "duration": 13, "velocity": 87}, {"time": 1085, "pitch": 67, "duration": 13, "velocity": 80}, {"time": 1094, "pitch": 50, "duration": 5, "velocity": 74}, {"time": 1097, "pitch": 55, "duration": 2, "velocity": 93}, {"time": 1100, "pitch": 48, "duration": 21, "velocity": 93}, {"time": 1100, "pitch": 55, "duration": 2, "velocity": 74}, {"time": 1100, "pitch": 60, "duration": 4, "velocity": 80}, {"time": 1103, "pitch": 55, "duration": 3, "velocity": 80}, {"time": 1106, "pitch": 60, "duration": 2, "velocity": 71}, {"time": 1109, "pitch": 55, "duration": 3, "velocity": 85}, {"time": 1109, "pitch": 64, "duration": 3, "velocity": 87}, {"time": 1115, "pitch": 55, "duration": 1, "velocity": 87}, {"time": 1115, "pitch": 60, "duration": 3, "velocity": 87}, {"time": 1118, "pitch": 55, "duration": 3, "velocity": 87}, {"time": 1121, "pitch": 60, "duration": 6, "velocity": 80}, {"time": 1124, "pitch": 36, "duration": 8, "velocity": 83}, {"time": 1127, "pitch": 55, "duration": 3, "velocity": 80}, {"time": 1130, "pitch": 60, "duration": 1, "velocity": 68}, {"time": 1133, "pitch": 55, "duration": 2, "velocity": 90}, {"time": 1133, "pitch": 64, "duration": 2, "velocity": 95}, {"time": 1139, "pitch": 55, "duration": 1, "velocity": 87}, {"time": 1139, "pitch": 60, "duration": 2, "velocity": 93}, {"time": 1142, "pitch": 55, "duration": 1, "velocity": 95}, {"time": 1148, "pitch": 41, "duration": 15, "velocity": 72}, {"time": 1148, "pitch": 53, "duration": 3, "velocity": 87}, {"time": 1148, "pitch": 60, "duration": 6, "velocity": 74}, {"time": 1151, "pitch": 48, "duration": 12, "velocity": 53}, {"time": 1154, "pitch": 53, "duration": 2, "velocity": 87}, {"time": 1157, "pitch": 60, "duration": 7, "velocity": 90}, {"time": 1163, "pitch": 65, "duration": 3, "velocity": 93}, {"time": 1166, "pitch": 53, "duration": 1, "velocity": 102}, {"time": 1172, "pitch": 39, "duration": 4, "velocity": 80}, {"time": 1172, "pitch": 51, "duration": 3, "velocity": 66}, {"time": 1172, "pitch": 58, "duration": 5, "velocity": 74}, {"time": 1175, "pitch": 46, "duration": 2, "velocity": 55}, {"time": 1178, "pitch": 51, "duration": 1, "velocity": 102}, {"time": 1184, "pitch": 38, "duration": 6, "velocity": 95}, {"time": 1184, "pitch": 57, "duration": 3, "velocity": 80}, {"time": 1184, "pitch": 62, "duration": 6, "velocity": 71}, {"time": 1187, "pitch": 45, "duration": 3, "velocity": 66}, {"time": 1190, "pitch": 57, "duration": 3, "velocity": 102}, {"time": 1193, "pitch": 62, "duration": 3, "velocity": 65}, {"time": 1196, "pitch": 43, "duration": 22, "velocity": 74}, {"time": 1199, "pitch": 50, "duration": 19, "velocity": 66}, {"time": 1202, "pitch": 55, "duration": 2, "velocity": 95}, {"time": 1205, "pitch": 62, "duration": 3, "velocity": 102}, {"time": 1211, "pitch": 55, "duration": 2, "velocity": 83}, {"time": 1211, "pitch": 62, "duration": 2, "velocity": 93}, {"time": 1217, "pitch": 55, "duration": 1, "velocity": 93}, {"time": 1220, "pitch": 48, "duration": 7, "velocity": 87}, {"time": 1220, "pitch": 55, "duration": 1, "velocity": 74}, {"time": 1220, "pitch": 60, "duration": 3, "velocity": 80}, {"time": 1223, "pitch": 55, "duration": 3, "velocity": 93}, {"time": 1226, "pitch": 60, "duration": 4, "velocity": 93}, {"time": 1229, "pitch": 55, "duration": 1, "velocity": 87}, {"time": 1232, "pitch": 38, "duration": 6, "velocity": 90}, {"time": 1232, "pitch": 57, "duration": 3, "velocity": 87}, {"time": 1232, "pitch": 62, "duration": 6, "velocity": 74}, {"time": 1235, "pitch": 45, "duration": 3, "velocity": 61}, {"time": 1238, "pitch": 57, "duration": 4, "velocity": 102}, {"time": 1241, "pitch": 62, "duration": 2, "velocity": 85}, {"time": 1244, "pitch": 39, "duration": 5, "velocity": 93}, {"time": 1247, "pitch": 46, "duration": 3, "velocity": 61}, {"time": 1250, "pitch": 51, "duration": 2, "velocity": 102}, {"time": 1253, "pitch": 58, "duration": 1, "velocity": 93}, {"time": 1256, "pitch": 41, "duration": 6, "velocity": 87}, {"time": 1256, "pitch": 53, "duration": 3, "velocity": 85}, {"time": 1256, "pitch": 57, "duration": 5, "velocity": 90}, {"time": 1259, "pitch": 48, "duration": 5, "velocity": 64}, {"time": 1262, "pitch": 53, "duration": 1, "velocity": 102}, {"time": 1268, "pitch": 39, "duration": 24, "velocity": 80}, {"time": 1271, "pitch": 46, "duration": 20, "velocity": 47}, {"time": 1274, "pitch": 51, "duration": 3, "velocity": 103}, {"time": 1277, "pitch": 58, "duration": 2, "velocity": 80}, {"time": 1283, "pitch": 55, "duration": 4, "velocity": 74}, {"time": 1283, "pitch": 63, "duration": 1, "velocity": 70}, {"time": 1286, "pitch": 51, "duration": 4, "velocity": 80}, {"time": 1292, "pitch": 43, "duration": 22, "velocity": 93}, {"time": 1292, "pitch": 55, "duration": 3, "velocity": 74}, {"time": 1292, "pitch": 62, "duration": 6, "velocity": 68}, {"time": 1295, "pitch": 50, "duration": 19, "velocity": 60}, {"time": 1298, "pitch": 55, "duration": 1, "velocity": 69}, {"time": 1301, "pitch": 55, "duration": 5, "velocity": 72}, {"time": 1301, "pitch": 67, "duration": 4, "velocity": 80}, {"time": 1310, "pitch": 55, "duration": 1, "velocity": 72}, {"time": 1310, "pitch": 62, "duration": 9, "velocity": 80}, {"time": 1313, "pitch": 55, "duration": 6, "velocity": 83}, {"time": 1316, "pitch": 43, "duration": 22, "velocity": 90}, {"time": 1319, "pitch": 50, "duration": 19, "velocity": 59}, {"time": 1322, "pitch": 55, "duration": 4, "velocity": 65}, {"time": 1325, "pitch": 62, "duration": 6, "velocity": 80}, {"time": 1331, "pitch": 67, "duration": 11, "velocity": 87}, {"time": 1334, "pitch": 55, "duration": 8, "velocity": 66}, {"time": 1337, "pitch": 62, "duration": 6, "velocity": 68}, {"time": 1340, "pitch": 43, "duration": 22, "velocity": 80}, {"time": 1343, "pitch": 50, "duration": 19, "velocity": 58}, {"time": 1346, "pitch": 55, "duration": 2, "velocity": 66}, {"time": 1349, "pitch": 62, "duration": 6, "velocity": 80}, {"time": 1355, "pitch": 55, "duration": 4, "velocity": 58}, {"time": 1358, "pitch": 62, "duration": 12, "velocity": 93}, {"time": 1361, "pitch": 55, "duration": 5, "velocity": 87}, {"time": 1364, "pitch": 43, "duration": 22, "velocity": 93}, {"time": 1367, "pitch": 50, "duration": 19, "velocity": 61}, {"time": 1370, "pitch": 55, "duration": 3, "velocity": 69}, {"time": 1373, "pitch": 62, "duration": 2, "velocity": 70}, {"time": 1379, "pitch": 67, "duration": 3, "velocity": 87}, {"time": 1382, "pitch": 55, "duration": 3, "velocity": 69}, {"time": 1385, "pitch": 62, "duration": 9, "velocity": 72}, {"time": 1388, "pitch": 43, "duration": 21, "velocity": 87}, {"time": 1391, "pitch": 50, "duration": 18, "velocity": 61}, {"time": 1394, "pitch": 55, "duration": 4, "velocity": 72}, {"time": 1397, "pitch": 67, "duration": 4, "velocity": 80}, {"time": 1403, "pitch": 62, "duration": 3, "velocity": 87}, {"time": 1406, "pitch": 55, "duration": 3, "velocity": 93}, {"time": 1409, "pitch": 62, "duration": 9, "velocity": 80}, {"time": 1412, "pitch": 43, "duration": 21, "velocity": 80}, {"time": 1415, "pitch": 50, "duration": 18, "velocity": 58}, {"time": 1418, "pitch": 55, "duration": 5, "velocity": 72}, {"time": 1421, "pitch": 67, "duration": 2, "velocity": 74}, {"time": 1427, "pitch": 62, "duration": 3, "velocity": 87}, {"time": 1430, "pitch": 55, "duration": 2, "velocity": 87}, {"time": 1433, "pitch": 62, "duration": 10, "velocity": 80}, {"time": 1436, "pitch": 43, "duration": 21, "velocity": 93}, {"time": 1439, "pitch": 50, "duration": 18, "velocity": 55}, {"time": 1442, "pitch": 55, "duration": 4, "velocity": 68}, {"time": 1445, "pitch": 67, "duration": 3, "velocity": 80}, {"time": 1451, "pitch": 62, "duration": 3, "velocity": 80}, {"time": 1454, "pitch": 55, "duration": 2, "velocity": 87}, {"time": 1457, "pitch": 62, "duration": 9, "velocity": 83}, {"time": 1460, "pitch": 43, "duration": 21, "velocity": 80}, {"time": 1463, "pitch": 50, "duration": 18, "velocity": 59}, {"time": 1466, "pitch": 55, "duration": 6, "velocity": 70}, {"time": 1469, "pitch": 62, "duration": 4, "velocity": 80}, {"time": 1469, "pitch": 67, "duration": 6, "velocity": 67}, {"time": 1475, "pitch": 55, "duration": 3, "velocity": 80}, {"time": 1478, "pitch": 62, "duration": 5, "velocity": 83}, {"time": 1481, "pitch": 55, "duration": 2, "velocity": 66}, {"time": 1484, "pitch": 43, "duration": 22, "velocity": 93}, {"time": 1484, "pitch": 55, "duration": 7, "velocity": 63}, {"time": 1484, "pitch": 58, "duration": 7, "velocity": 68}, {"time": 1487, "pitch": 50, "duration": 19, "velocity": 68}, {"time": 1490, "pitch": 62, "duration": 3, "velocity": 70}, {"time": 1493, "pitch": 67, "duration": 7, "velocity": 95}, {"time": 1502, "pitch": 55, "duration": 1, "velocity": 87}, {"time": 1502, "pitch": 62, "duration": 6, "velocity": 83}, {"time": 1505, "pitch": 55, "duration": 3, "velocity": 83}, {"time": 1508, "pitch": 48, "duration": 22, "velocity": 87}, {"time": 1511, "pitch": 55, "duration": 4, "velocity": 80}, {"time": 1514, "pitch": 60, "duration": 2, "velocity": 68}, {"time": 1517, "pitch": 63, "duration": 7, "velocity": 90}, {"time": 1523, "pitch": 55, "duration": 9, "velocity": 68}, {"time": 1532, "pitch": 48, "duration": 18, "velocity": 90}, {"time": 1535, "pitch": 55, "duration": 3, "velocity": 80}, {"time": 1538, "pitch": 60, "duration": 1, "velocity": 69}, {"time": 1541, "pitch": 63, "duration": 3, "velocity": 95}, {"time": 1547, "pitch": 60, "duration": 2, "velocity": 90}, {"time": 1550, "pitch": 55, "duration": 2, "velocity": 80}, {"time": 1553, "pitch": 60, "duration": 1, "velocity": 72}, {"time": 1556, "pitch": 43, "duration": 17, "velocity": 93}, {"time": 1556, "pitch": 55, "duration": 3, "velocity": 83}, {"time": 1556, "pitch": 58, "duration": 5, "velocity": 72}, {"time": 1559, "pitch": 50, "duration": 13, "velocity": 61}, {"time": 1562, "pitch": 55, "duration": 1, "velocity": 67}, {"time": 1565, "pitch": 55, "duration": 6, "velocity": 87}, {"time": 1565, "pitch": 62, "duration": 5, "velocity": 80}, {"time": 1574, "pitch": 58, "duration": 2, "velocity": 93}, {"time": 1577, "pitch": 55, "duration": 2, "velocity": 66}, {"time": 1580, "pitch": 36, "duration": 16, "velocity": 74}, {"time": 1580, "pitch": 55, "duration": 3, "velocity": 80}, {"time": 1580, "pitch": 63, "duration": 7, "velocity": 85}, {"time": 1583, "pitch": 43, "duration": 13, "velocity": 47}, {"time": 1586, "pitch": 55, "duration": 4, "velocity": 87}, {"time": 1589, "pitch": 60, "duration": 6, "velocity": 93}, {"time": 1595, "pitch": 55, "duration": 2, "velocity": 85}, {"time": 1604, "pitch": 38, "duration": 15, "velocity": 93}, {"time": 1604, "pitch": 57, "duration": 3, "velocity": 74}, {"time": 1604, "pitch": 62, "duration": 6, "velocity": 74}, {"time": 1607, "pitch": 45, "duration": 12, "velocity": 60}, {"time": 1610, "pitch": 57, "duration": 3, "velocity": 80}, {"time": 1613, "pitch": 62, "duration": 6, "velocity": 93}, {"time": 1619, "pitch": 57, "duration": 3, "velocity": 68}, {"time": 1628, "pitch": 41, "duration": 17, "velocity": 85}, {"time": 1628, "pitch": 53, "duration": 3, "velocity": 74}, {"time": 1628, "pitch": 60, "duration": 7, "velocity": 68}, {"time": 1631, "pitch": 48, "duration": 13, "velocity": 56}, {"time": 1634, "pitch": 53, "duration": 4, "velocity": 74}, {"time": 1637, "pitch": 57, "duration": 5, "velocity": 102}, {"time": 1643, "pitch": 60, "duration": 3, "velocity": 93}, {"time": 1646, "pitch": 53, "duration": 1, "velocity": 87}, {"time": 1652, "pitch": 39, "duration": 21, "velocity": 87}, {"time": 1652, "pitch": 55, "duration": 3, "velocity": 80}, {"time": 1652, "pitch": 63, "duration": 7, "velocity": 67}, {"time": 1655, "pitch": 46, "duration": 19, "velocity": 50}, {"time": 1658, "pitch": 55, "duration": 3, "velocity": 65}, {"time": 1661, "pitch": 58, "duration": 3, "velocity": 87}, {"time": 1667, "pitch": 63, "duration": 1, "velocity": 95}, {"time": 1673, "pitch": 55, "duration": 6, "velocity": 69}, {"time": 1676, "pitch": 39, "duration": 15, "velocity": 93}, {"time": 1679, "pitch": 46, "duration": 12, "velocity": 59}, {"time": 1682, "pitch": 55, "duration": 6, "velocity": 68}, {"time": 1685, "pitch": 67, "duration": 6, "velocity": 87}, {"time": 1691, "pitch": 63, "duration": 3, "velocity": 103}, {"time": 1694, "pitch": 55, "duration": 1, "velocity": 87}, {"time": 1700, "pitch": 43, "duration": 22, "velocity": 90}, {"time": 1700, "pitch": 55, "duration": 3, "velocity": 74}, {"time": 1700, "pitch": 58, "duration": 5, "velocity": 87}, {"time": 1703, "pitch": 50, "duration": 19, "velocity": 65}, {"time": 1706, "pitch": 55, "duration": 4, "velocity": 71}, {"time": 1709, "pitch": 62, "duration": 6, "velocity": 83}, {"time": 1715, "pitch": 67, "duration": 7, "velocity": 90}, {"time": 1721, "pitch": 55, "duration": 4, "velocity": 68}, {"time": 1724, "pitch": 43, "duration": 10, "velocity": 93}, {"time": 1724, "pitch": 58, "duration": 6, "velocity": 71}, {"time": 1724, "pitch": 62, "duration": 6, "velocity": 80}, {"time": 1727, "pitch": 50, "duration": 8, "velocity": 63}, {"time": 1730, "pitch": 55, "duration": 4, "velocity": 83}, {"time": 1733, "pitch": 58, "duration": 1, "velocity": 67}, {"time": 1736, "pitch": 41, "duration": 9, "velocity": 90}, {"time": 1736, "pitch": 53, "duration": 9, "velocity": 74}, {"time": 1736, "pitch": 57, "duration": 9, "velocity": 80}, {"time": 1748, "pitch": 46, "duration": 19, "velocity": 93}, {"time": 1748, "pitch": 58, "duration": 4, "velocity": 74}, {"time": 1751, "pitch": 53, "duration": 13, "velocity": 66}, {"time": 1754, "pitch": 58, "duration": 3, "velocity": 83}, {"time": 1757, "pitch": 65, "duration": 6, "velocity": 93}, {"time": 1763, "pitch": 58, "duration": 4, "velocity": 95}, {"time": 1766, "pitch": 53, "duration": 4, "velocity": 90}, {"time": 1769, "pitch": 58, "duration": 2, "velocity": 103}, {"time": 1772, "pitch": 48, "duration": 16, "velocity": 87}, {"time": 1775, "pitch": 55, "duration": 13, "velocity": 72}, {"time": 1778, "pitch": 60, "duration": 2, "velocity": 80}, {"time": 1781, "pitch": 60, "duration": 5, "velocity": 83}, {"time": 1781, "pitch": 67, "duration": 6, "velocity": 69}, {"time": 1787, "pitch": 63, "duration": 1, "velocity": 103}, {"time": 1790, "pitch": 60, "duration": 2, "velocity": 87}, {"time": 1796, "pitch": 41, "duration": 17, "velocity": 85}, {"time": 1796, "pitch": 60, "duration": 3, "velocity": 74}, {"time": 1796, "pitch": 65, "duration": 6, "velocity": 80}, {"time": 1799, "pitch": 48, "duration": 14, "velocity": 59}, {"time": 1802, "pitch": 60, "duration": 3, "velocity": 69}, {"time": 1805, "pitch": 65, "duration": 6, "velocity": 102}, {"time": 1811, "pitch": 69, "duration": 6, "velocity": 87}, {"time": 1814, "pitch": 60, "duration": 3, "velocity": 80}, {"time": 1817, "pitch": 65, "duration": 2, "velocity": 74}, {"time": 1820, "pitch": 39, "duration": 5, "velocity": 87}, {"time": 1820, "pitch": 63, "duration": 3, "velocity": 67}, {"time": 1820, "pitch": 67, "duration": 6, "velocity": 83}, {"time": 1823, "pitch": 46, "duration": 3, "velocity": 56}, {"time": 1826, "pitch": 63, "duration": 3, "velocity": 74}, {"time": 1829, "pitch": 67, "duration": 2, "velocity": 71}, {"time": 1832, "pitch": 38, "duration": 6, "velocity": 93}, {"time": 1832, "pitch": 62, "duration": 4, "velocity": 70}, {"time": 1832, "pitch": 66, "duration": 6, "velocity": 64}, {"time": 1835, "pitch": 45, "duration": 3, "velocity": 61}, {"time": 1838, "pitch": 62, "duration": 1, "velocity": 87}, {"time": 1844, "pitch": 43, "duration": 21, "velocity": 93}, {"time": 1847, "pitch": 50, "duration": 18, "velocity": 68}, {"time": 1850, "pitch": 55, "duration": 2, "velocity": 95}, {"time": 1853, "pitch": 55, "duration": 4, "velocity": 83}, {"time": 1853, "pitch": 62, "duration": 4, "velocity": 83}, {"time": 1859, "pitch": 58, "duration": 1, "velocity": 102}, {"time": 1862, "pitch": 55, "duration": 2, "velocity": 87}, {"time": 1868, "pitch": 48, "duration": 18, "velocity": 80}, {"time": 1868, "pitch": 55, "duration": 1, "velocity": 72}, {"time": 1868, "pitch": 60, "duration": 3, "velocity": 74}, {"time": 1871, "pitch": 55, "duration": 4, "velocity": 85}, {"time": 1874, "pitch": 60, "duration": 1, "velocity": 68}, {"time": 1877, "pitch": 55, "duration": 3, "velocity": 87}, {"time": 1877, "pitch": 63, "duration": 4, "velocity": 87}, {"time": 1883, "pitch": 55, "duration": 2, "velocity": 93}, {"time": 1883, "pitch": 60, "duration": 3, "velocity": 90}, {"time": 1892, "pitch": 39, "duration": 5, "velocity": 80}, {"time": 1892, "pitch": 58, "duration": 6, "velocity": 68}, {"time": 1895, "pitch": 46, "duration": 2, "velocity": 60}, {"time": 1898, "pitch": 55, "duration": 3, "velocity": 87}, {"time": 1901, "pitch": 63, "duration": 1, "velocity": 83}, {"time": 1904, "pitch": 41, "duration": 6, "velocity": 80}, {"time": 1904, "pitch": 53, "duration": 3, "velocity": 90}, {"time": 1904, "pitch": 57, "duration": 6, "velocity": 93}, {"time": 1907, "pitch": 48, "duration": 4, "velocity": 61}, {"time": 1910, "pitch": 53, "duration": 2, "velocity": 93}, {"time": 1916, "pitch": 43, "duration": 21, "velocity": 87}, {"time": 1916, "pitch": 55, "duration": 3, "velocity": 70}, {"time": 1916, "pitch": 62, "duration": 5, "velocity": 68}, {"time": 1919, "pitch": 50, "duration": 18, "velocity": 61}, {"time": 1922, "pitch": 55, "duration": 6, "velocity": 80}, {"time": 1925, "pitch": 67, "duration": 4, "velocity": 87}, {"time": 1931, "pitch": 62, "duration": 3, "velocity": 87}, {"time": 1934, "pitch": 55, "duration": 9, "velocity": 87}, {"time": 1937, "pitch": 62, "duration": 10, "velocity": 80}, {"time": 1940, "pitch": 43, "duration": 24, "velocity": 80}, {"time": 1943, "pitch": 50, "duration": 13, "velocity": 59}, {"time": 1946, "pitch": 55, "duration": 1, "velocity": 72}, {"time": 1949, "pitch": 55, "duration": 9, "velocity": 95}, {"time": 1949, "pitch": 62, "duration": 13, "velocity": 87}, {"time": 1949, "pitch": 67, "duration": 13, "velocity": 80}, {"time": 1958, "pitch": 50, "duration": 5, "velocity": 74}, {"time": 1961, "pitch": 55, "duration": 2, "velocity": 93}, {"time": 1964, "pitch": 48, "duration": 21, "velocity": 93}, {"time": 1964, "pitch": 55, "duration": 2, "velocity": 74}, {"time": 1964, "pitch": 60, "duration": 4, "velocity": 80}, {"time": 1967, "pitch": 55, "duration": 3, "velocity": 80}, {"time": 1970, "pitch": 60, "duration": 2, "velocity": 71}, {"time": 1973, "pitch": 55, "duration": 3, "velocity": 85}, {"time": 1973, "pitch": 64, "duration": 3, "velocity": 87}, {"time": 1979, "pitch": 55, "duration": 1, "velocity": 87}, {"time": 1979, "pitch": 60, "duration": 3, "velocity": 87}, {"time": 1982, "pitch": 55, "duration": 3, "velocity": 87}, {"time": 1985, "pitch": 60, "duration": 6, "velocity": 80}, {"time": 1988, "pitch": 36, "duration": 8, "velocity": 83}, {"time": 1991, "pitch": 55, "duration": 3, "velocity": 80}, {"time": 1994, "pitch": 60, "duration": 1, "velocity": 68}, {"time": 1997, "pitch": 55, "duration": 2, "velocity": 90}, {"time": 1997, "pitch": 64, "duration": 2, "velocity": 95}, {"time": 2003, "pitch": 55, "duration": 1, "velocity": 87}, {"time": 2003, "pitch": 60, "duration": 2, "velocity": 93}, {"time": 2006, "pitch": 55, "duration": 1, "velocity": 95}, {"time": 2012, "pitch": 41, "duration": 15, "velocity": 72}, {"time": 2012, "pitch": 53, "duration": 3, "velocity": 87}, {"time": 2012, "pitch": 60, "duration": 6, "velocity": 74}, {"time": 2015, "pitch": 48, "duration": 12, "velocity": 53}, {"time": 2018, "pitch": 53, "duration": 2, "velocity": 87}, {"time": 2021, "pitch": 60, "duration": 7, "velocity": 90}, {"time": 2027, "pitch": 65, "duration": 3, "velocity": 93}, {"time": 2030, "pitch": 53, "duration": 1, "velocity": 102}, {"time": 2036, "pitch": 39, "duration": 4, "velocity": 80}, {"time": 2036, "pitch": 51, "duration": 3, "velocity": 66}, {"time": 2036, "pitch": 58, "duration": 5, "velocity": 74}, {"time": 2039, "pitch": 46, "duration": 2, "velocity": 55}, {"time": 2042, "pitch": 51, "duration": 1, "velocity": 102}, {"time": 2048, "pitch": 38, "duration": 6, "velocity": 95}, {"time": 2048, "pitch": 57, "duration": 3, "velocity": 80}, {"time": 2048, "pitch": 62, "duration": 6, "velocity": 71}, {"time": 2051, "pitch": 45, "duration": 3, "velocity": 66}, {"time": 2054, "pitch": 57, "duration": 3, "velocity": 102}, {"time": 2057, "pitch": 62, "duration": 3, "velocity": 65}, {"time": 2060, "pitch": 43, "duration": 22, "velocity": 74}, {"time": 2063, "pitch": 50, "duration": 19, "velocity": 66}, {"time": 2066, "pitch": 55, "duration": 2, "velocity": 95}, {"time": 2069, "pitch": 62, "duration": 3, "velocity": 102}, {"time": 2075, "pitch": 55, "duration": 2, "velocity": 83}, {"time": 2075, "pitch": 62, "duration": 2, "velocity": 93}, {"time": 2081, "pitch": 55, "duration": 1, "velocity": 93}, {"time": 2084, "pitch": 48, "duration": 7, "velocity": 87}, {"time": 2084, "pitch": 55, "duration": 1, "velocity": 74}, {"time": 2084, "pitch": 60, "duration": 3, "velocity": 80}, {"time": 2087, "pitch": 55, "duration": 3, "velocity": 93}, {"time": 2090, "pitch": 60, "duration": 4, "velocity": 93}, {"time": 2093, "pitch": 55, "duration": 1, "velocity": 87}, {"time": 2096, "pitch": 38, "duration": 6, "velocity": 90}, {"time": 2096, "pitch": 57, "duration": 3, "velocity": 87}, {"time": 2096, "pitch": 62, "duration": 6, "velocity": 74}, {"time": 2099, "pitch": 45, "duration": 3, "velocity": 61}, {"time": 2102, "pitch": 57, "duration": 4, "velocity": 102}, {"time": 2105, "pitch": 62, "duration": 2, "velocity": 85}, {"time": 2108, "pitch": 39, "duration": 5, "velocity": 93}, {"time": 2111, "pitch": 46, "duration": 3, "velocity": 61}, {"time": 2114, "pitch": 51, "duration": 2, "velocity": 102}, {"time": 2117, "pitch": 58, "duration": 1, "velocity": 93}, {"time": 2120, "pitch": 41, "duration": 6, "velocity": 87}, {"time": 2120, "pitch": 53, "duration": 3, "velocity": 85}, {"time": 2120, "pitch": 57, "duration": 5, "velocity": 90}, {"time": 2123, "pitch": 48, "duration": 5, "velocity": 64}, {"time": 2126, "pitch": 53, "duration": 1, "velocity": 102}, {"time": 2132, "pitch": 39, "duration": 24, "velocity": 80}, {"time": 2135, "pitch": 46, "duration": 20, "velocity": 47}, {"time": 2138, "pitch": 51, "duration": 3, "velocity": 103}, {"time": 2141, "pitch": 58, "duration": 2, "velocity": 80}, {"time": 2147, "pitch": 55, "duration": 4, "velocity": 74}, {"time": 2147, "pitch": 63, "duration": 1, "velocity": 70}, {"time": 2150, "pitch": 51, "duration": 4, "velocity": 80}, {"time": 2156, "pitch": 43, "duration": 22, "velocity": 90}, {"time": 2156, "pitch": 55, "duration": 3, "velocity": 71}, {"time": 2156, "pitch": 62, "duration": 4, "velocity": 80}, {"time": 2159, "pitch": 50, "duration": 18, "velocity": 61}, {"time": 2162, "pitch": 55, "duration": 7, "velocity": 80}, {"time": 2165, "pitch": 67, "duration": 5, "velocity": 93}, {"time": 2177, "pitch": 55, "duration": 5, "velocity": 61}, {"time": 2177, "pitch": 62, "duration": 9, "velocity": 72}, {"time": 2180, "pitch": 43, "duration": 13, "velocity": 80}, {"time": 2183, "pitch": 50, "duration": 10, "velocity": 52}, {"time": 2186, "pitch": 55, "duration": 1, "velocity": 59}, {"time": 2189, "pitch": 55, "duration": 3, "velocity": 90}, {"time": 2189, "pitch": 62, "duration": 3, "velocity": 85}, {"time": 2189, "pitch": 67, "duration": 4, "velocity": 70}, {"time": 2204, "pitch": 48, "duration": 22, "velocity": 83}, {"time": 2204, "pitch": 60, "duration": 4, "velocity": 69}, {"time": 2204, "pitch": 67, "duration": 7, "velocity": 74}, {"time": 2207, "pitch": 55, "duration": 18, "velocity": 66}, {"time": 2210, "pitch": 60, "duration": 1, "velocity": 56}, {"time": 2213, "pitch": 60, "duration": 3, "velocity": 74}, {"time": 2213, "pitch": 64, "duration": 2, "velocity": 83}, {"time": 2225, "pitch": 60, "duration": 6, "velocity": 71}, {"time": 2225, "pitch": 67, "duration": 9, "velocity": 72}, {"time": 2228, "pitch": 48, "duration": 17, "velocity": 80}, {"time": 2231, "pitch": 55, "duration": 14, "velocity": 68}, {"time": 2234, "pitch": 60, "duration": 3, "velocity": 69}, {"time": 2237, "pitch": 64, "duration": 6, "velocity": 87}, {"time": 2252, "pitch": 51, "duration": 19, "velocity": 93}, {"time": 2252, "pitch": 63, "duration": 3, "velocity": 68}, {"time": 2252, "pitch": 67, "duration": 6, "velocity": 69}, {"time": 2255, "pitch": 58, "duration": 16, "velocity": 50}, {"time": 2258, "pitch": 63, "duration": 1, "velocity": 50}, {"time": 2261, "pitch": 63, "duration": 16, "velocity": 90}, {"time": 2261, "pitch": 67, "duration": 18, "velocity": 90}, {"time": 2273, "pitch": 51, "duration": 10, "velocity": 55}, {"time": 2276, "pitch": 58, "duration": 7, "velocity": 55}, {"time": 2279, "pitch": 63, "duration": 3, "velocity": 102}, {"time": 2282, "pitch": 67, "duration": 2, "velocity": 80}, {"time": 2285, "pitch": 51, "duration": 6, "velocity": 51}, {"time": 2288, "pitch": 58, "duration": 3, "velocity": 63}, {"time": 2291, "pitch": 63, "duration": 3, "velocity": 93}, {"time": 2294, "pitch": 67, "duration": 2, "velocity": 74}, {"time": 2300, "pitch": 38, "duration": 21, "velocity": 93}, {"time": 2300, "pitch": 62, "duration": 4, "velocity": 74}, {"time": 2300, "pitch": 65, "duration": 6, "velocity": 83}, {"time": 2303, "pitch": 45, "duration": 18, "velocity": 54}, {"time": 2306, "pitch": 62, "duration": 1, "velocity": 58}, {"time": 2309, "pitch": 62, "duration": 3, "velocity": 87}, {"time": 2309, "pitch": 69, "duration": 4, "velocity": 87}, {"time": 2315, "pitch": 62, "duration": 1, "velocity": 87}, {"time": 2315, "pitch": 65, "duration": 3, "velocity": 93}, {"time": 2318, "pitch": 62, "duration": 1, "velocity": 41}, {"time": 2321, "pitch": 62, "duration": 3, "velocity": 93}, {"time": 2321, "pitch": 65, "duration": 1, "velocity": 68}, {"time": 2324, "pitch": 41, "duration": 20, "velocity": 68}, {"time": 2324, "pitch": 53, "duration": 4, "velocity": 74}, {"time": 2324, "pitch": 60, "duration": 5, "velocity": 72}, {"time": 2327, "pitch": 48, "duration": 16, "velocity": 55}, {"time": 2330, "pitch": 53, "duration": 3, "velocity": 87}, {"time": 2333, "pitch": 65, "duration": 4, "velocity": 95}, {"time": 2339, "pitch": 53, "duration": 2, "velocity": 85}, {"time": 2339, "pitch": 60, "duration": 4, "velocity": 80}, {"time": 2342, "pitch": 53, "duration": 1, "velocity": 83}, {"time": 2348, "pitch": 39, "duration": 14, "velocity": 72}, {"time": 2348, "pitch": 55, "duration": 4, "velocity": 80}, {"time": 2348, "pitch": 63, "duration": 6, "velocity": 65}, {"time": 2351, "pitch": 46, "duration": 11, "velocity": 51}, {"time": 2354, "pitch": 55, "duration": 2, "velocity": 68}, {"time": 2357, "pitch": 63, "duration": 4, "velocity": 102}, {"time": 2363, "pitch": 58, "duration": 1, "velocity": 90}, {"time": 2366, "pitch": 55, "duration": 1, "velocity": 87}, {"time": 2372, "pitch": 41, "duration": 1, "velocity": 87}, {"time": 2372, "pitch": 53, "duration": 2, "velocity": 74}, {"time": 2372, "pitch": 60, "duration": 2, "velocity": 71}, {"time": 2378, "pitch": 53, "duration": 18, "velocity": 55}, {"time": 2381, "pitch": 60, "duration": 15, "velocity": 90}, {"time": 2384, "pitch": 65, "duration": 2, "velocity": 93}, {"time": 2387, "pitch": 72, "duration": 4, "velocity": 93}, {"time": 2390, "pitch": 65, "duration": 5, "velocity": 102}, {"time": 2393, "pitch": 69, "duration": 2, "velocity": 83}, {"time": 2396, "pitch": 46, "duration": 19, "velocity": 93}, {"time": 2396, "pitch": 58, "duration": 4, "velocity": 74}, {"time": 2399, "pitch": 53, "duration": 13, "velocity": 66}, {"time": 2402, "pitch": 58, "duration": 3, "velocity": 83}, {"time": 2405, "pitch": 65, "duration": 6, "velocity": 93}, {"time": 2411, "pitch": 58, "duration": 4, "velocity": 95}, {"time": 2414, "pitch": 53, "duration": 4, "velocity": 90}, {"time": 2417, "pitch": 58, "duration": 2, "velocity": 103}, {"time": 2420, "pitch": 48, "duration": 16, "velocity": 87}, {"time": 2423, "pitch": 55, "duration": 13, "velocity": 72}, {"time": 2426, "pitch": 60, "duration": 2, "velocity": 80}, {"time": 2429, "pitch": 60, "duration": 5, "velocity": 83}, {"time": 2429, "pitch": 67, "duration": 6, "velocity": 69}, {"time": 2435, "pitch": 63, "duration": 1, "velocity": 103}, {"time": 2438, "pitch": 60, "duration": 2, "velocity": 87}, {"time": 2444, "pitch": 41, "duration": 17, "velocity": 85}, {"time": 2444, "pitch": 60, "duration": 3, "velocity": 74}, {"time": 2444, "pitch": 65, "duration": 6, "velocity": 80}, {"time": 2447, "pitch": 48, "duration": 14, "velocity": 59}, {"time": 2450, "pitch": 60, "duration": 3, "velocity": 69}, {"time": 2453, "pitch": 65, "duration": 6, "velocity": 102}, {"time": 2459, "pitch": 69, "duration": 6, "velocity": 87}, {"time": 2462, "pitch": 60, "duration": 3, "velocity": 80}, {"time": 2465, "pitch": 65, "duration": 2, "velocity": 74}, {"time": 2468, "pitch": 39, "duration": 5, "velocity": 87}, {"time": 2468, "pitch": 63, "duration": 3, "velocity": 67}, {"time": 2468, "pitch": 67, "duration": 6, "velocity": 83}, {"time": 2471, "pitch": 46, "duration": 3, "velocity": 56}, {"time": 2474, "pitch": 63, "duration": 3, "velocity": 74}, {"time": 2477, "pitch": 67, "duration": 2, "velocity": 71}, {"time": 2480, "pitch": 38, "duration": 6, "velocity": 93}, {"time": 2480, "pitch": 62, "duration": 4, "velocity": 70}, {"time": 2480, "pitch": 66, "duration": 6, "velocity": 64}, {"time": 2483, "pitch": 45, "duration": 3, "velocity": 61}, {"time": 2486, "pitch": 62, "duration": 1, "velocity": 87}, {"time": 2492, "pitch": 43, "duration": 21, "velocity": 93}, {"time": 2495, "pitch": 50, "duration": 18, "velocity": 68}, {"time": 2498, "pitch": 55, "duration": 2, "velocity": 95}, {"time": 2501, "pitch": 55, "duration": 4, "velocity": 83}, {"time": 2501, "pitch": 62, "duration": 4, "velocity": 83}, {"time": 2507, "pitch": 58, "duration": 1, "velocity": 102}, {"time": 2510, "pitch": 55, "duration": 2, "velocity": 87}, {"time": 2516, "pitch": 48, "duration": 18, "velocity": 80}, {"time": 2516, "pitch": 55, "duration": 1, "velocity": 72}, {"time": 2516, "pitch": 60, "duration": 3, "velocity": 74}, {"time": 2519, "pitch": 55, "duration": 4, "velocity": 85}, {"time": 2522, "pitch": 60, "duration": 1, "velocity": 68}, {"time": 2525, "pitch": 55, "duration": 3, "velocity": 87}, {"time": 2525, "pitch": 63, "duration": 4, "velocity": 87}, {"time": 2531, "pitch": 55, "duration": 2, "velocity": 93}, {"time": 2531, "pitch": 60, "duration": 3, "velocity": 90}, {"time": 2540, "pitch": 39, "duration": 5, "velocity": 80}, {"time": 2540, "pitch": 58, "duration": 6, "velocity": 68}, {"time": 2543, "pitch": 46, "duration": 2, "velocity": 60}, {"time": 2546, "pitch": 55, "duration": 3, "velocity": 87}, {"time": 2549, "pitch": 63, "duration": 1, "velocity": 83}, {"time": 2552, "pitch": 41, "duration": 6, "velocity": 80}, {"time": 2552, "pitch": 53, "duration": 3, "velocity": 90}, {"time": 2552, "pitch": 57, "duration": 6, "velocity": 93}, {"time": 2555, "pitch": 48, "duration": 4, "velocity": 61}, {"time": 2558, "pitch": 53, "duration": 2, "velocity": 93}, {"time": 2564, "pitch": 43, "duration": 21, "velocity": 87}, {"time": 2564, "pitch": 55, "duration": 3, "velocity": 70}, {"time": 2564, "pitch": 62, "duration": 5, "velocity": 68}, {"time": 2567, "pitch": 50, "duration": 18, "velocity": 61}, {"time": 2570, "pitch": 55, "duration": 6, "velocity": 80}, {"time": 2573, "pitch": 67, "duration": 4, "velocity": 87}, {"time": 2579, "pitch": 62, "duration": 3, "velocity": 87}, {"time": 2582, "pitch": 55, "duration": 9, "velocity": 87}, {"time": 2585, "pitch": 62, "duration": 10, "velocity": 80}, {"time": 2588, "pitch": 46, "duration": 19, "velocity": 93}, {"time": 2588, "pitch": 58, "duration": 4, "velocity": 74}, {"time": 2591, "pitch": 53, "duration": 13, "velocity": 66}, {"time": 2594, "pitch": 58, "duration": 3, "velocity": 83}, {"time": 2597, "pitch": 65, "duration": 6, "velocity": 93}, {"time": 2603, "pitch": 58, "duration": 4, "velocity": 95}, {"time": 2606, "pitch": 53, "duration": 4, "velocity": 90}, {"time": 2609, "pitch": 58, "duration": 2, "velocity": 103}, {"time": 2612, "pitch": 48, "duration": 16, "velocity": 87}, {"time": 2615, "pitch": 55, "duration": 13, "velocity": 72}, {"time": 2618, "pitch": 60, "duration": 2, "velocity": 80}, {"time": 2621, "pitch": 60, "duration": 5, "velocity": 83}, {"time": 2621, "pitch": 67, "duration": 6, "velocity": 69}, {"time": 2627, "pitch": 63, "duration": 1, "velocity": 103}, {"time": 2630, "pitch": 60, "duration": 2, "velocity": 87}, {"time": 2636, "pitch": 41, "duration": 17, "velocity": 85}, {"time": 2636, "pitch": 60, "duration": 3, "velocity": 74}, {"time": 2636, "pitch": 65, "duration": 6, "velocity": 80}, {"time": 2639, "pitch": 48, "duration": 14, "velocity": 59}, {"time": 2642, "pitch": 60, "duration": 3, "velocity": 69}, {"time": 2645, "pitch": 65, "duration": 6, "velocity": 102}, {"time": 2651, "pitch": 69, "duration": 6, "velocity": 87}, {"time": 2654, "pitch": 60, "duration": 3, "velocity": 80}, {"time": 2657, "pitch": 65, "duration": 2, "velocity": 74}, {"time": 2660, "pitch": 39, "duration": 5, "velocity": 87}, {"time": 2660, "pitch": 63, "duration": 3, "velocity": 67}, {"time": 2660, "pitch": 67, "duration": 6, "velocity": 83}, {"time": 2663, "pitch": 46, "duration": 3, "velocity": 56}, {"time": 2666, "pitch": 63, "duration": 3, "velocity": 74}, {"time": 2669, "pitch": 67, "duration": 2, "velocity": 71}, {"time": 2672, "pitch": 38, "duration": 6, "velocity": 93}, {"time": 2672, "pitch": 62, "duration": 4, "velocity": 70}, {"time": 2672, "pitch": 66, "duration": 6, "velocity": 64}, {"time": 2675, "pitch": 45, "duration": 3, "velocity": 61}, {"time": 2678, "pitch": 62, "duration": 1, "velocity": 87}, {"time": 2684, "pitch": 43, "duration": 21, "velocity": 93}, {"time": 2687, "pitch": 50, "duration": 18, "velocity": 68}, {"time": 2690, "pitch": 55, "duration": 2, "velocity": 95}, {"time": 2693, "pitch": 55, "duration": 4, "velocity": 83}, {"time": 2693, "pitch": 62, "duration": 4, "velocity": 83}, {"time": 2699, "pitch": 58, "duration": 1, "velocity": 102}, {"time": 2702, "pitch": 55, "duration": 2, "velocity": 87}, {"time": 2708, "pitch": 48, "duration": 18, "velocity": 80}, {"time": 2708, "pitch": 55, "duration": 1, "velocity": 72}, {"time": 2708, "pitch": 60, "duration": 3, "velocity": 74}, {"time": 2711, "pitch": 55, "duration": 4, "velocity": 85}, {"time": 2714, "pitch": 60, "duration": 1, "velocity": 68}, {"time": 2717, "pitch": 55, "duration": 3, "velocity": 87}, {"time": 2717, "pitch": 63, "duration": 4, "velocity": 87}, {"time": 2723, "pitch": 55, "duration": 2, "velocity": 93}, {"time": 2723, "pitch": 60, "duration": 3, "velocity": 90}, {"time": 2732, "pitch": 39, "duration": 5, "velocity": 80}, {"time": 2732, "pitch": 58, "duration": 6, "velocity": 68}, {"time": 2735, "pitch": 46, "duration": 2, "velocity": 60}, {"time": 2738, "pitch": 55, "duration": 3, "velocity": 87}, {"time": 2741, "pitch": 63, "duration": 1, "velocity": 83}, {"time": 2744, "pitch": 41, "duration": 6, "velocity": 80}, {"time": 2744, "pitch": 53, "duration": 3, "velocity": 90}, {"time": 2744, "pitch": 57, "duration": 6, "velocity": 93}, {"time": 2747, "pitch": 48, "duration": 4, "velocity": 61}, {"time": 2750, "pitch": 53, "duration": 2, "velocity": 93}, {"time": 2756, "pitch": 43, "duration": 21, "velocity": 87}, {"time": 2756, "pitch": 55, "duration": 3, "velocity": 70}, {"time": 2756, "pitch": 62, "duration": 5, "velocity": 68}, {"time": 2759, "pitch": 50, "duration": 18, "velocity": 61}, {"time": 2762, "pitch": 55, "duration": 6, "velocity": 80}, {"time": 2765, "pitch": 67, "duration": 4, "velocity": 87}, {"time": 2771, "pitch": 62, "duration": 3, "velocity": 87}, {"time": 2774, "pitch": 55, "duration": 9, "velocity": 87}, {"time": 2777, "pitch": 62, "duration": 10, "velocity": 80}, {"time": 2780, "pitch": 43, "duration": 24, "velocity": 80}, {"time": 2783, "pitch": 50, "duration": 13, "velocity": 59}, {"time": 2786, "pitch": 55, "duration": 1, "velocity": 72}, {"time": 2789, "pitch": 55, "duration": 9, "velocity": 95}, {"time": 2789, "pitch": 62, "duration": 13, "velocity": 87}, {"time": 2789, "pitch": 67, "duration": 13, "velocity": 80}, {"time": 2798, "pitch": 50, "duration": 5, "velocity": 74}, {"time": 2801, "pitch": 55, "duration": 2, "velocity": 93}, {"time": 2804, "pitch": 46, "duration": 19, "velocity": 93}, {"time": 2804, "pitch": 58, "duration": 4, "velocity": 74}, {"time": 2807, "pitch": 53, "duration": 13, "velocity": 66}, {"time": 2810, "pitch": 58, "duration": 3, "velocity": 83}, {"time": 2813, "pitch": 65, "duration": 6, "velocity": 93}, {"time": 2819, "pitch": 58, "duration": 4, "velocity": 95}, {"time": 2822, "pitch": 53, "duration": 4, "velocity": 90}, {"time": 2825, "pitch": 58, "duration": 2, "velocity": 103}, {"time": 2828, "pitch": 48, "duration": 16, "velocity": 87}, {"time": 2831, "pitch": 55, "duration": 13, "velocity": 72}, {"time": 2834, "pitch": 60, "duration": 2, "velocity": 80}, {"time": 2837, "pitch": 60, "duration": 5, "velocity": 83}, {"time": 2837, "pitch": 67, "duration": 6, "velocity": 69}, {"time": 2843, "pitch": 63, "duration": 1, "velocity": 103}, {"time": 2846, "pitch": 60, "duration": 2, "velocity": 87}, {"time": 2852, "pitch": 41, "duration": 17, "velocity": 85}, {"time": 2852, "pitch": 60, "duration": 3, "velocity": 74}, {"time": 2852, "pitch": 65, "duration": 6, "velocity": 80}, {"time": 2855, "pitch": 48, "duration": 14, "velocity": 59}, {"time": 2858, "pitch": 60, "duration": 3, "velocity": 69}, {"time": 2861, "pitch": 65, "duration": 6, "velocity": 102}, {"time": 2867, "pitch": 69, "duration": 6, "velocity": 87}, {"time": 2870, "pitch": 60, "duration": 3, "velocity": 80}, {"time": 2873, "pitch": 65, "duration": 2, "velocity": 74}, {"time": 2876, "pitch": 39, "duration": 5, "velocity": 87}, {"time": 2876, "pitch": 63, "duration": 3, "velocity": 67}, {"time": 2876, "pitch": 67, "duration": 6, "velocity": 83}, {"time": 2879, "pitch": 46, "duration": 3, "velocity": 56}, {"time": 2882, "pitch": 63, "duration": 3, "velocity": 74}, {"time": 2885, "pitch": 67, "duration": 2, "velocity": 71}, {"time": 2888, "pitch": 38, "duration": 6, "velocity": 93}, {"time": 2888, "pitch": 62, "duration": 4, "velocity": 70}, {"time": 2888, "pitch": 66, "duration": 6, "velocity": 64}, {"time": 2891, "pitch": 45, "duration": 3, "velocity": 61}, {"time": 2894, "pitch": 62, "duration": 1, "velocity": 87}, {"time": 2900, "pitch": 43, "duration": 21, "velocity": 93}, {"time": 2903, "pitch": 50, "duration": 18, "velocity": 68}, {"time": 2906, "pitch": 55, "duration": 2, "velocity": 95}, {"time": 2909, "pitch": 55, "duration": 4, "velocity": 83}, {"time": 2909, "pitch": 62, "duration": 4, "velocity": 83}, {"time": 2915, "pitch": 58, "duration": 1, "velocity": 102}, {"time": 2918, "pitch": 55, "duration": 2, "velocity": 87}, {"time": 2924, "pitch": 48, "duration": 18, "velocity": 80}, {"time": 2924, "pitch": 55, "duration": 1, "velocity": 72}, {"time": 2924, "pitch": 60, "duration": 3, "velocity": 74}, {"time": 2927, "pitch": 55, "duration": 4, "velocity": 85}, {"time": 2930, "pitch": 60, "duration": 1, "velocity": 68}, {"time": 2933, "pitch": 55, "duration": 3, "velocity": 87}, {"time": 2933, "pitch": 63, "duration": 4, "velocity": 87}, {"time": 2939, "pitch": 55, "duration": 2, "velocity": 93}, {"time": 2939, "pitch": 60, "duration": 3, "velocity": 90}, {"time": 2948, "pitch": 39, "duration": 5, "velocity": 80}, {"time": 2948, "pitch": 58, "duration": 6, "velocity": 68}, {"time": 2951, "pitch": 46, "duration": 2, "velocity": 60}, {"time": 2954, "pitch": 55, "duration": 3, "velocity": 87}, {"time": 2957, "pitch": 63, "duration": 1, "velocity": 83}, {"time": 2960, "pitch": 41, "duration": 6, "velocity": 80}, {"time": 2960, "pitch": 53, "duration": 3, "velocity": 90}, {"time": 2960, "pitch": 57, "duration": 6, "velocity": 93}, {"time": 2963, "pitch": 48, "duration": 4, "velocity": 61}, {"time": 2966, "pitch": 53, "duration": 2, "velocity": 93}, {"time": 2972, "pitch": 43, "duration": 21, "velocity": 87}, {"time": 2972, "pitch": 55, "duration": 3, "velocity": 70}, {"time": 2972, "pitch": 62, "duration": 5, "velocity": 68}, {"time": 2975, "pitch": 50, "duration": 18, "velocity": 61}, {"time": 2978, "pitch": 55, "duration": 6, "velocity": 80}, {"time": 2981, "pitch": 67, "duration": 4, "velocity": 87}, {"time": 2987, "pitch": 62, "duration": 3, "velocity": 87}, {"time": 2990, "pitch": 55, "duration": 9, "velocity": 87}, {"time": 2993, "pitch": 62, "duration": 10, "velocity": 80}, {"time": 2996, "pitch": 46, "duration": 19, "velocity": 93}, {"time": 2996, "pitch": 58, "duration": 4, "velocity": 74}, {"time": 2999, "pitch": 53, "duration": 13, "velocity": 66}, {"time": 3002, "pitch": 58, "duration": 3, "velocity": 83}, {"time": 3005, "pitch": 65, "duration": 6, "velocity": 93}, {"time": 3011, "pitch": 58, "duration": 4, "velocity": 95}, {"time": 3014, "pitch": 53, "duration": 4, "velocity": 90}, {"time": 3017, "pitch": 58, "duration": 2, "velocity": 103}, {"time": 3020, "pitch": 48, "duration": 16, "velocity": 87}, {"time": 3023, "pitch": 55, "duration": 13, "velocity": 72}, {"time": 3026, "pitch": 60, "duration": 2, "velocity": 80}, {"time": 3029, "pitch": 60, "duration": 5, "velocity": 83}, {"time": 3029, "pitch": 67, "duration": 6, "velocity": 69}, {"time": 3035, "pitch": 63, "duration": 1, "velocity": 103}, {"time": 3038, "pitch": 60, "duration": 2, "velocity": 87}, {"time": 3044, "pitch": 41, "duration": 17, "velocity": 85}, {"time": 3044, "pitch": 60, "duration": 3, "velocity": 74}, {"time": 3044, "pitch": 65, "duration": 6, "velocity": 80}, {"time": 3047, "pitch": 48, "duration": 14, "velocity": 59}, {"time": 3050, "pitch": 60, "duration": 3, "velocity": 69}, {"time": 3053, "pitch": 65, "duration": 6, "velocity": 102}, {"time": 3059, "pitch": 69, "duration": 6, "velocity": 87}, {"time": 3062, "pitch": 60, "duration": 3, "velocity": 80}, {"time": 3065, "pitch": 65, "duration": 2, "velocity": 74}, {"time": 3068, "pitch": 39, "duration": 5, "velocity": 87}, {"time": 3068, "pitch": 63, "duration": 3, "velocity": 67}, {"time": 3068, "pitch": 67, "duration": 6, "velocity": 83}, {"time": 3071, "pitch": 46, "duration": 3, "velocity": 56}, {"time": 3074, "pitch": 63, "duration": 3, "velocity": 74}, {"time": 3077, "pitch": 67, "duration": 2, "velocity": 71}, {"time": 3080, "pitch": 38, "duration": 6, "velocity": 93}, {"time": 3080, "pitch": 62, "duration": 4, "velocity": 70}, {"time": 3080, "pitch": 66, "duration": 6, "velocity": 64}, {"time": 3083, "pitch": 45, "duration": 3, "velocity": 61}, {"time": 3086, "pitch": 62, "duration": 1, "velocity": 87}, {"time": 3092, "pitch": 43, "duration": 21, "velocity": 93}, {"time": 3095, "pitch": 50, "duration": 18, "velocity": 68}, {"time": 3098, "pitch": 55, "duration": 2, "velocity": 95}, {"time": 3101, "pitch": 55, "duration": 4, "velocity": 83}, {"time": 3101, "pitch": 62, "duration": 4, "velocity": 83}, {"time": 3107, "pitch": 58, "duration": 1, "velocity": 102}, {"time": 3110, "pitch": 55, "duration": 2, "velocity": 87}, {"time": 3116, "pitch": 48, "duration": 18, "velocity": 80}, {"time": 3116, "pitch": 55, "duration": 1, "velocity": 72}, {"time": 3116, "pitch": 60, "duration": 3, "velocity": 74}, {"time": 3119, "pitch": 55, "duration": 4, "velocity": 85}, {"time": 3122, "pitch": 60, "duration": 1, "velocity": 68}, {"time": 3125, "pitch": 55, "duration": 3, "velocity": 87}, {"time": 3125, "pitch": 63, "duration": 4, "velocity": 87}, {"time": 3131, "pitch": 55, "duration": 2, "velocity": 93}, {"time": 3131, "pitch": 60, "duration": 3, "velocity": 90}, {"time": 3140, "pitch": 39, "duration": 5, "velocity": 80}, {"time": 3140, "pitch": 58, "duration": 6, "velocity": 68}, {"time": 3143, "pitch": 46, "duration": 2, "velocity": 60}, {"time": 3146, "pitch": 55, "duration": 3, "velocity": 87}, {"time": 3149, "pitch": 63, "duration": 1, "velocity": 83}, {"time": 3152, "pitch": 41, "duration": 6, "velocity": 80}, {"time": 3152, "pitch": 53, "duration": 3, "velocity": 90}, {"time": 3152, "pitch": 57, "duration": 6, "velocity": 93}, {"time": 3155, "pitch": 48, "duration": 4, "velocity": 61}, {"time": 3158, "pitch": 53, "duration": 2, "velocity": 93}, {"time": 3164, "pitch": 43, "duration": 21, "velocity": 87}, {"time": 3164, "pitch": 55, "duration": 3, "velocity": 70}, {"time": 3164, "pitch": 62, "duration": 5, "velocity": 68}, {"time": 3167, "pitch": 50, "duration": 18, "velocity": 61}, {"time": 3170, "pitch": 55, "duration": 6, "velocity": 80}, {"time": 3173, "pitch": 67, "duration": 4, "velocity": 87}, {"time": 3179, "pitch": 62, "duration": 3, "velocity": 87}, {"time": 3182, "pitch": 55, "duration": 9, "velocity": 87}, {"time": 3185, "pitch": 62, "duration": 10, "velocity": 80}], "annotations": [{"time": 117, "annotation": {"number": 64, "value": 127}, "group": "control_change"}, {"time": 164, "annotation": {"number": 64, "value": 0}, "group": "control_change"}, {"time": 166, "annotation": {"number": 64, "value": 127}, "group": "control_change"}, {"time": 190, "annotation": {"number": 64, "value": 0}, "group": "control_change"}, {"time": 191, "annotation": {"number": 64, "value": 127}, "group": "control_change"}, {"time": 211, "annotation": {"number": 64, "value": 0}, "group": "control_change"}, {"time": 214, "annotation": {"number": 64, "value": 127}, "group": "control_change"}, {"time": 235, "annotation": {"number": 64, "value": 0}, "group": "control_change"}, {"time": 237, "annotation": {"number": 64, "value": 127}, "group": "control_change"}, {"time": 259, "annotation": {"number": 64, "value": 0}, "group": "control_change"}, {"time": 262, "annotation": {"number": 64, "value": 127}, "group": "control_change"}, {"time": 283, "annotation": {"number": 64, "value": 0}, "group": "control_change"}, {"time": 286, "annotation": {"number": 64, "value": 127}, "group": "control_change"}, {"time": 307, "annotation": {"number": 64, "value": 0}, "group": "control_change"}, {"time": 311, "annotation": {"number": 64, "value": 127}, "group": "control_change"}, {"time": 330, "annotation": {"number": 64, "value": 0}, "group": "control_change"}, {"time": 338, "annotation": {"number": 64, "value": 127}, "group": "control_change"}, {"time": 355, "annotation": {"number": 64, "value": 0}, "group": "control_change"}, {"time": 359, "annotation": {"number": 64, "value": 127}, "group": "control_change"}, {"time": 379, "annotation": {"number": 64, "value": 0}, "group": "control_change"}, {"time": 381, "annotation": {"number": 64, "value": 127}, "group": "control_change"}, {"time": 403, "annotation": {"number": 64, "value": 0}, "group": "control_change"}, {"time": 407, "annotation": {"number": 64, "value": 127}, "group": "control_change"}, {"time": 426, "annotation": {"number": 64, "value": 0}, "group": "control_change"}, {"time": 430, "annotation": {"number": 64, "value": 127}, "group": "control_change"}, {"time": 450, "annotation": {"number": 64, "value": 0}, "group": "control_change"}, {"time": 457, "annotation": {"number": 64, "value": 127}, "group": "control_change"}, {"time": 475, "annotation": {"number": 64, "value": 0}, "group": "control_change"}, {"time": 476, "annotation": {"number": 64, "value": 127}, "group": "control_change"}, {"time": 500, "annotation": {"number": 64, "value": 0}, "group": "control_change"}, {"time": 501, "annotation": {"number": 64, "value": 127}, "group": "control_change"}, {"time": 523, "annotation": {"number": 64, "value": 0}, "group": "control_change"}, {"time": 526, "annotation": {"number": 64, "value": 127}, "group": "control_change"}, {"time": 547, "annotation": {"number": 64, "value": 0}, "group": "control_change"}, {"time": 552, "annotation": {"number": 64, "value": 127}, "group": "control_change"}, {"time": 570, "annotation": {"number": 64, "value": 0}, "group": "control_change"}, {"time": 572, "annotation": {"number": 64, "value": 127}, "group": "control_change"}, {"time": 595, "annotation": {"number": 64, "value": 0}, "group": "control_change"}, {"time": 597, "annotation": {"number": 64, "value": 127}, "group": "control_change"}, {"time": 620, "annotation": {"number": 64, "value": 0}, "group": "control_change"}, {"time": 623, "annotation": {"number": 64, "value": 127}, "group": "control_change"}, {"time": 643, "annotation": {"number": 64, "value": 0}, "group": "control_change"}, {"time": 645, "annotation": {"number": 64, "value": 127}, "group": "control_change"}, {"time": 668, "annotation": {"number": 64, "value": 0}, "group": "control_change"}, {"time": 669, "annotation": {"number": 64, "value": 127}, "group": "control_change"}, {"time": 691, "annotation": {"number": 64, "value": 0}, "group": "control_change"}, {"time": 694, "annotation": {"number": 64, "value": 127}, "group": "control_change"}, {"time": 715, "annotation": {"number": 64, "value": 0}, "group": "control_change"}, {"time": 717, "annotation": {"number": 64, "value": 127}, "group": "control_change"}, {"time": 739, "annotation": {"number": 64, "value": 0}, "group": "control_change"}, {"time": 742, "annotation": {"number": 64, "value": 127}, "group": "control_change"}, {"time": 763, "annotation": {"number": 64, "value": 0}, "group": "control_change"}, {"time": 767, "annotation": {"number": 64, "value": 127}, "group": "control_change"}, {"time": 787, "annotation": {"number": 64, "value": 0}, "group": "control_change"}, {"time": 790, "annotation": {"number": 64, "value": 127}, "group": "control_change"}, {"time": 811, "annotation": {"number": 64, "value": 0}, "group": "control_change"}, {"time": 812, "annotation": {"number": 64, "value": 127}, "group": "control_change"}, {"time": 835, "annotation": {"number": 64, "value": 0}, "group": "control_change"}, {"time": 838, "annotation": {"number": 64, "value": 127}, "group": "control_change"}, {"time": 859, "annotation": {"number": 64, "value": 0}, "group": "control_change"}, {"time": 860, "annotation": {"number": 64, "value": 127}, "group": "control_change"}, {"time": 871, "annotation": {"number": 64, "value": 0}, "group": "control_change"}, {"time": 872, "annotation": {"number": 64, "value": 127}, "group": "control_change"}, {"time": 882, "annotation": {"number": 64, "value": 0}, "group": "control_change"}, {"time": 885, "annotation": {"number": 64, "value": 127}, "group": "control_change"}, {"time": 907, "annotation": {"number": 64, "value": 0}, "group": "control_change"}, {"time": 910, "annotation": {"number": 64, "value": 127}, "group": "control_change"}, {"time": 931, "annotation": {"number": 64, "value": 0}, "group": "control_change"}, {"time": 933, "annotation": {"number": 64, "value": 127}, "group": "control_change"}, {"time": 953, "annotation": {"number": 64, "value": 0}, "group": "control_change"}, {"time": 955, "annotation": {"number": 64, "value": 127}, "group": "control_change"}, {"time": 956, "annotation": {"number": 64, "value": 127}, "group": "control_change"}, {"time": 967, "annotation": {"number": 64, "value": 0}, "group": "control_change"}, {"time": 969, "annotation": {"number": 64, "value": 127}, "group": "control_change"}, {"time": 979, "annotation": {"number": 64, "value": 0}, "group": "control_change"}, {"time": 984, "annotation": {"number": 64, "value": 127}, "group": "control_change"}, {"time": 1003, "annotation": {"number": 64, "value": 0}, "group": "control_change"}, {"time": 1004, "annotation": {"number": 64, "value": 127}, "group": "control_change"}, {"time": 1027, "annotation": {"number": 64, "value": 0}, "group": "control_change"}, {"time": 1029, "annotation": {"number": 64, "value": 127}, "group": "control_change"}, {"time": 1040, "annotation": {"number": 64, "value": 0}, "group": "control_change"}, {"time": 1042, "annotation": {"number": 64, "value": 127}, "group": "control_change"}, {"time": 1051, "annotation": {"number": 64, "value": 0}, "group": "control_change"}, {"time": 1054, "annotation": {"number": 64, "value": 127}, "group": "control_change"}, {"time": 1074, "annotation": {"number": 64, "value": 0}, "group": "control_change"}, {"time": 1079, "annotation": {"number": 64, "value": 127}, "group": "control_change"}, {"time": 1098, "annotation": {"number": 64, "value": 0}, "group": "control_change"}, {"time": 1100, "annotation": {"number": 64, "value": 127}, "group": "control_change"}, {"time": 1123, "annotation": {"number": 64, "value": 0}, "group": "control_change"}, {"time": 1125, "annotation": {"number": 64, "value": 127}, "group": "control_change"}, {"time": 1147, "annotation": {"number": 64, "value": 0}, "group": "control_change"}, {"time": 1152, "annotation": {"number": 64, "value": 127}, "group": "control_change"}, {"time": 1172, "annotation": {"number": 64, "value": 0}, "group": "control_change"}, {"time": 1173, "annotation": {"number": 64, "value": 127}, "group": "control_change"}, {"time": 1183, "annotation": {"number": 64, "value": 0}, "group": "control_change"}, {"time": 1185, "annotation": {"number": 64, "value": 127}, "group": "control_change"}, {"time": 1194, "annotation": {"number": 64, "value": 0}, "group": "control_change"}, {"time": 1200, "annotation": {"number": 64, "value": 127}, "group": "control_change"}, {"time": 1219, "annotation": {"number": 64, "value": 0}, "group": "control_change"}, {"time": 1220, "annotation": {"number": 64, "value": 127}, "group": "control_change"}, {"time": 1231, "annotation": {"number": 64, "value": 0}, "group": "control_change"}, {"time": 1233, "annotation": {"number": 64, "value": 127}, "group": "control_change"}, {"time": 1243, "annotation": {"number": 64, "value": 0}, "group": "control_change"}, {"time": 1245, "annotation": {"number": 64, "value": 127}, "group": "control_change"}, {"time": 1256, "annotation": {"number": 64, "value": 0}, "group": "control_change"}, {"time": 1258, "annotation": {"number": 64, "value": 127}, "group": "control_change"}, {"time": 1268, "annotation": {"number": 64, "value": 127}, "group": "control_change"}, {"time": 1268, "annotation": {"number": 64, "value": 0}, "group": "control_change"}, {"time": 1289, "annotation": {"number": 64, "value": 0}, "group": "control_change"}, {"time": 1294, "annotation": {"number": 64, "value": 127}, "group": "control_change"}, {"time": 1315, "annotation": {"number": 64, "value": 0}, "group": "control_change"}, {"time": 1317, "annotation": {"number": 64, "value": 127}, "group": "control_change"}, {"time": 1339, "annotation": {"number": 64, "value": 0}, "group": "control_change"}, {"time": 1342, "annotation": {"number": 64, "value": 127}, "group": "control_change"}, {"time": 1363, "annotation": {"number": 64, "value": 0}, "group": "control_change"}, {"time": 1366, "annotation": {"number": 64, "value": 127}, "group": "control_change"}, {"time": 1387, "annotation": {"number": 64, "value": 0}, "group": "control_change"}, {"time": 1391, "annotation": {"number": 64, "value": 127}, "group": "control_change"}, {"time": 1410, "annotation": {"number": 64, "value": 0}, "group": "control_change"}, {"time": 1418, "annotation": {"number": 64, "value": 127}, "group": "control_change"}, {"time": 1435, "annotation": {"number": 64, "value": 0}, "group": "control_change"}, {"time": 1439, "annotation": {"number": 64, "value": 127}, "group": "control_change"}, {"time": 1459, "annotation": {"number": 64, "value": 0}, "group": "control_change"}, {"time": 1461, "annotation": {"number": 64, "value": 127}, "group": "control_change"}, {"time": 1483, "annotation": {"number": 64, "value": 0}, "group": "control_change"}, {"time": 1484, "annotation": {"number": 64, "value": 0}, "group": "control_change"}, {"time": 1487, "annotation": {"number": 64, "value": 127}, "group": "control_change"}, {"time": 1507, "annotation": {"number": 64, "value": 0}, "group": "control_change"}, {"time": 1509, "annotation": {"number": 64, "value": 127}, "group": "control_change"}, {"time": 1532, "annotation": {"number": 64, "value": 0}, "group": "control_change"}, {"time": 1533, "annotation": {"number": 64, "value": 127}, "group": "control_change"}, {"time": 1555, "annotation": {"number": 64, "value": 0}, "group": "control_change"}, {"time": 1558, "annotation": {"number": 64, "value": 127}, "group": "control_change"}, {"time": 1579, "annotation": {"number": 64, "value": 0}, "group": "control_change"}, {"time": 1581, "annotation": {"number": 64, "value": 127}, "group": "control_change"}, {"time": 1603, "annotation": {"number": 64, "value": 0}, "group": "control_change"}, {"time": 1606, "annotation": {"number": 64, "value": 127}, "group": "control_change"}, {"time": 1627, "annotation": {"number": 64, "value": 0}, "group": "control_change"}, {"time": 1631, "annotation": {"number": 64, "value": 127}, "group": "control_change"}, {"time": 1651, "annotation": {"number": 64, "value": 0}, "group": "control_change"}, {"time": 1654, "annotation": {"number": 64, "value": 127}, "group": "control_change"}, {"time": 1675, "annotation": {"number": 64, "value": 0}, "group": "control_change"}, {"time": 1676, "annotation": {"number": 64, "value": 127}, "group": "control_change"}, {"time": 1699, "annotation": {"number": 64, "value": 0}, "group": "control_change"}, {"time": 1702, "annotation": {"number": 64, "value": 127}, "group": "control_change"}, {"time": 1723, "annotation": {"number": 64, "value": 0}, "group": "control_change"}, {"time": 1724, "annotation": {"number": 64, "value": 127}, "group": "control_change"}, {"time": 1735, "annotation": {"number": 64, "value": 0}, "group": "control_change"}, {"time": 1736, "annotation": {"number": 64, "value": 127}, "group": "control_change"}, {"time": 1746, "annotation": {"number": 64, "value": 0}, "group": "control_change"}, {"time": 1749, "annotation": {"number": 64, "value": 127}, "group": "control_change"}, {"time": 1771, "annotation": {"number": 64, "value": 0}, "group": "control_change"}, {"time": 1774, "annotation": {"number": 64, "value": 127}, "group": "control_change"}, {"time": 1795, "annotation": {"number": 64, "value": 0}, "group": "control_change"}, {"time": 1797, "annotation": {"number": 64, "value": 127}, "group": "control_change"}, {"time": 1817, "annotation": {"number": 64, "value": 0}, "group": "control_change"}, {"time": 1819, "annotation": {"number": 64, "value": 127}, "group": "control_change"}, {"time": 1820, "annotation": {"number": 64, "value": 127}, "group": "control_change"}, {"time": 1831, "annotation": {"number": 64, "value": 0}, "group": "control_change"}, {"time": 1833, "annotation": {"number": 64, "value": 127}, "group": "control_change"}, {"time": 1843, "annotation": {"number": 64, "value": 0}, "group": "control_change"}, {"time": 1848, "annotation": {"number": 64, "value": 127}, "group": "control_change"}, {"time": 1867, "annotation": {"number": 64, "value": 0}, "group": "control_change"}, {"time": 1868, "annotation": {"number": 64, "value": 127}, "group": "control_change"}, {"time": 1891, "annotation": {"number": 64, "value": 0}, "group": "control_change"}, {"time": 1893, "annotation": {"number": 64, "value": 127}, "group": "control_change"}, {"time": 1904, "annotation": {"number": 64, "value": 0}, "group": "control_change"}, {"time": 1906, "annotation": {"number": 64, "value": 127}, "group": "control_change"}, {"time": 1915, "annotation": {"number": 64, "value": 0}, "group": "control_change"}, {"time": 1918, "annotation": {"number": 64, "value": 127}, "group": "control_change"}, {"time": 1938, "annotation": {"number": 64, "value": 0}, "group": "control_change"}, {"time": 1943, "annotation": {"number": 64, "value": 127}, "group": "control_change"}, {"time": 1962, "annotation": {"number": 64, "value": 0}, "group": "control_change"}, {"time": 1964, "annotation": {"number": 64, "value": 127}, "group": "control_change"}, {"time": 1987, "annotation": {"number": 64, "value": 0}, "group": "control_change"}, {"time": 1989, "annotation": {"number": 64, "value": 127}, "group": "control_change"}, {"time": 2011, "annotation": {"number": 64, "value": 0}, "group": "control_change"}, {"time": 2016, "annotation": {"number": 64, "value": 127}, "group": "control_change"}, {"time": 2036, "annotation": {"number": 64, "value": 0}, "group": "control_change"}, {"time": 2037, "annotation": {"number": 64, "value": 127}, "group": "control_change"}, {"time": 2047, "annotation": {"number": 64, "value": 0}, "group": "control_change"}, {"time": 2049, "annotation": {"number": 64, "value": 127}, "group": "control_change"}, {"time": 2058, "annotation": {"number": 64, "value": 0}, "group": "control_change"}, {"time": 2064, "annotation": {"number": 64, "value": 127}, "group": "control_change"}, {"time": 2083, "annotation": {"number": 64, "value": 0}, "group": "control_change"}, {"time": 2084, "annotation": {"number": 64, "value": 127}, "group": "control_change"}, {"time": 2095, "annotation": {"number": 64, "value": 0}, "group": "control_change"}, {"time": 2097, "annotation": {"number": 64, "value": 127}, "group": "control_change"}, {"time": 2107, "annotation": {"number": 64, "value": 0}, "group": "control_change"}, {"time": 2109, "annotation": {"number": 64, "value": 127}, "group": "control_change"}, {"time": 2120, "annotation": {"number": 64, "value": 0}, "group": "control_change"}, {"time": 2122, "annotation": {"number": 64, "value": 127}, "group": "control_change"}, {"time": 2132, "annotation": {"number": 64, "value": 127}, "group": "control_change"}, {"time": 2132, "annotation": {"number": 64, "value": 0}, "group": "control_change"}, {"time": 2153, "annotation": {"number": 64, "value": 0}, "group": "control_change"}, {"time": 2158, "annotation": {"number": 64, "value": 127}, "group": "control_change"}, {"time": 2178, "annotation": {"number": 64, "value": 0}, "group": "control_change"}, {"time": 2181, "annotation": {"number": 64, "value": 127}, "group": "control_change"}, {"time": 2202, "annotation": {"number": 64, "value": 0}, "group": "control_change"}, {"time": 2207, "annotation": {"number": 64, "value": 127}, "group": "control_change"}, {"time": 2227, "annotation": {"number": 64, "value": 0}, "group": "control_change"}, {"time": 2229, "annotation": {"number": 64, "value": 127}, "group": "control_change"}, {"time": 2250, "annotation": {"number": 64, "value": 0}, "group": "control_change"}, {"time": 2252, "annotation": {"number": 64, "value": 127}, "group": "control_change"}, {"time": 2281, "annotation": {"number": 64, "value": 127}, "group": "control_change"}, {"time": 2292, "annotation": {"number": 64, "value": 0}, "group": "control_change"}, {"time": 2300, "annotation": {"number": 64, "value": 0}, "group": "control_change"}, {"time": 2300, "annotation": {"number": 64, "value": 127}, "group": "control_change"}, {"time": 2323, "annotation": {"number": 64, "value": 0}, "group": "control_change"}, {"time": 2326, "annotation": {"number": 64, "value": 127}, "group": "control_change"}, {"time": 2347, "annotation": {"number": 64, "value": 0}, "group": "control_change"}, {"time": 2351, "annotation": {"number": 64, "value": 127}, "group": "control_change"}, {"time": 2371, "annotation": {"number": 64, "value": 0}, "group": "control_change"}, {"time": 2372, "annotation": {"number": 64, "value": 127}, "group": "control_change"}, {"time": 2392, "annotation": {"number": 64, "value": 0}, "group": "control_change"}, {"time": 2397, "annotation": {"number": 64, "value": 127}, "group": "control_change"}, {"time": 2419, "annotation": {"number": 64, "value": 0}, "group": "control_change"}, {"time": 2422, "annotation": {"number": 64, "value": 127}, "group": "control_change"}, {"time": 2443, "annotation": {"number": 64, "value": 0}, "group": "control_change"}, {"time": 2445, "annotation": {"number": 64, "value": 127}, "group": "control_change"}, {"time": 2465, "annotation": {"number": 64, "value": 0}, "group": "control_change"}, {"time": 2467, "annotation": {"number": 64, "value": 127}, "group": "control_change"}, {"time": 2468, "annotation": {"number": 64, "value": 127}, "group": "control_change"}, {"time": 2479, "annotation": {"number": 64, "value": 0}, "group": "control_change"}, {"time": 2481, "annotation": {"number": 64, "value": 127}, "group": "control_change"}, {"time": 2491, "annotation": {"number": 64, "value": 0}, "group": "control_change"}, {"time": 2496, "annotation": {"number": 64, "value": 127}, "group": "control_change"}, {"time": 2515, "annotation": {"number": 64, "value": 0}, "group": "control_change"}, {"time": 2516, "annotation": {"number": 64, "value": 127}, "group": "control_change"}, {"time": 2539, "annotation": {"number": 64, "value": 0}, "group": "control_change"}, {"time": 2541, "annotation": {"number": 64, "value": 127}, "group": "control_change"}, {"time": 2552, "annotation": {"number": 64, "value": 0}, "group": "control_change"}, {"time": 2554, "annotation": {"number": 64, "value": 127}, "group": "control_change"}, {"time": 2563, "annotation": {"number": 64, "value": 0}, "group": "control_change"}, {"time": 2566, "annotation": {"number": 64, "value": 127}, "group": "control_change"}, {"time": 2586, "annotation": {"number": 64, "value": 0}, "group": "control_change"}, {"time": 2589, "annotation": {"number": 64, "value": 127}, "group": "control_change"}, {"time": 2611, "annotation": {"number": 64, "value": 0}, "group": "control_change"}, {"time": 2614, "annotation": {"number": 64, "value": 127}, "group": "control_change"}, {"time": 2635, "annotation": {"number": 64, "value": 0}, "group": "control_change"}, {"time": 2637, "annotation": {"number": 64, "value": 127}, "group": "control_change"}, {"time": 2657, "annotation": {"number": 64, "value": 0}, "group": "control_change"}, {"time": 2659, "annotation": {"number": 64, "value": 127}, "group": "control_change"}, {"time": 2660, "annotation": {"number": 64, "value": 127}, "group": "control_change"}, {"time": 2671, "annotation": {"number": 64, "value": 0}, "group": "control_change"}, {"time": 2673, "annotation": {"number": 64, "value": 127}, "group": "control_change"}, {"time": 2683, "annotation": {"number": 64, "value": 0}, "group": "control_change"}, {"time": 2688, "annotation": {"number": 64, "value": 127}, "group": "control_change"}, {"time": 2707, "annotation": {"number": 64, "value": 0}, "group": "control_change"}, {"time": 2708, "annotation": {"number": 64, "value": 127}, "group": "control_change"}, {"time": 2731, "annotation": {"number": 64, "value": 0}, "group": "control_change"}, {"time": 2733, "annotation": {"number": 64, "value": 127}, "group": "control_change"}, {"time": 2744, "annotation": {"number": 64, "value": 0}, "group": "control_change"}, {"time": 2746, "annotation": {"number": 64, "value": 127}, "group": "control_change"}, {"time": 2755, "annotation": {"number": 64, "value": 0}, "group": "control_change"}, {"time": 2758, "annotation": {"number": 64, "value": 127}, "group": "control_change"}, {"time": 2778, "annotation": {"number": 64, "value": 0}, "group": "control_change"}, {"time": 2783, "annotation": {"number": 64, "value": 127}, "group": "control_change"}, {"time": 2802, "annotation": {"number": 64, "value": 0}, "group": "control_change"}, {"time": 2805, "annotation": {"number": 64, "value": 127}, "group": "control_change"}, {"time": 2827, "annotation": {"number": 64, "value": 0}, "group": "control_change"}, {"time": 2830, "annotation": {"number": 64, "value": 127}, "group": "control_change"}, {"time": 2851, "annotation": {"number": 64, "value": 0}, "group": "control_change"}, {"time": 2853, "annotation": {"number": 64, "value": 127}, "group": "control_change"}, {"time": 2873, "annotation": {"number": 64, "value": 0}, "group": "control_change"}, {"time": 2875, "annotation": {"number": 64, "value": 127}, "group": "control_change"}, {"time": 2876, "annotation": {"number": 64, "value": 127}, "group": "control_change"}, {"time": 2887, "annotation": {"number": 64, "value": 0}, "group": "control_change"}, {"time": 2889, "annotation": {"number": 64, "value": 127}, "group": "control_change"}, {"time": 2899, "annotation": {"number": 64, "value": 0}, "group": "control_change"}, {"time": 2904, "annotation": {"number": 64, "value": 127}, "group": "control_change"}, {"time": 2923, "annotation": {"number": 64, "value": 0}, "group": "control_change"}, {"time": 2924, "annotation": {"number": 64, "value": 127}, "group": "control_change"}, {"time": 2947, "annotation": {"number": 64, "value": 0}, "group": "control_change"}, {"time": 2949, "annotation": {"number": 64, "value": 127}, "group": "control_change"}, {"time": 2960, "annotation": {"number": 64, "value": 0}, "group": "control_change"}, {"time": 2962, "annotation": {"number": 64, "value": 127}, "group": "control_change"}, {"time": 2971, "annotation": {"number": 64, "value": 0}, "group": "control_change"}, {"time": 2974, "annotation": {"number": 64, "value": 127}, "group": "control_change"}, {"time": 2994, "annotation": {"number": 64, "value": 0}, "group": "control_change"}, {"time": 2997, "annotation": {"number": 64, "value": 127}, "group": "control_change"}, {"time": 3019, "annotation": {"number": 64, "value": 0}, "group": "control_change"}, {"time": 3022, "annotation": {"number": 64, "value": 127}, "group": "control_change"}, {"time": 3043, "annotation": {"number": 64, "value": 0}, "group": "control_change"}, {"time": 3045, "annotation": {"number": 64, "value": 127}, "group": "control_change"}, {"time": 3065, "annotation": {"number": 64, "value": 0}, "group": "control_change"}, {"time": 3067, "annotation": {"number": 64, "value": 127}, "group": "control_change"}, {"time": 3068, "annotation": {"number": 64, "value": 127}, "group": "control_change"}, {"time": 3079, "annotation": {"number": 64, "value": 0}, "group": "control_change"}, {"time": 3081, "annotation": {"number": 64, "value": 127}, "group": "control_change"}, {"time": 3091, "annotation": {"number": 64, "value": 0}, "group": "control_change"}, {"time": 3096, "annotation": {"number": 64, "value": 127}, "group": "control_change"}, {"time": 3115, "annotation": {"number": 64, "value": 0}, "group": "control_change"}, {"time": 3116, "annotation": {"number": 64, "value": 127}, "group": "control_change"}, {"time": 3139, "annotation": {"number": 64, "value": 0}, "group": "control_change"}, {"time": 3141, "annotation": {"number": 64, "value": 127}, "group": "control_change"}, {"time": 3152, "annotation": {"number": 64, "value": 0}, "group": "control_change"}, {"time": 3154, "annotation": {"number": 64, "value": 127}, "group": "control_change"}, {"time": 3163, "annotation": {"number": 64, "value": 0}, "group": "control_change"}, {"time": 3166, "annotation": {"number": 64, "value": 127}, "group": "control_change"}, {"time": 3186, "annotation": {"number": 64, "value": 0}, "group": "control_change"}]}]}