{"metadata": {"schema_version": "0.2", "title": "None", "source_filename": "336.mid", "source_format": "midi"}, "resolution": 12, "tempos": [{"time": 0, "qpm": 125.0002604172092}], "key_signatures": [{"time": 0, "root": 0, "mode": "major"}], "time_signatures": [{"time": 0, "numerator": 4, "denominator": 4}], "tracks": [{"program": 0, "is_drum": false, "name": "MELODY", "notes": [{"time": 432, "pitch": 70, "duration": 3, "velocity": 119}, {"time": 438, "pitch": 70, "duration": 2, "velocity": 109}, {"time": 444, "pitch": 70, "duration": 2, "velocity": 116}, {"time": 450, "pitch": 70, "duration": 2, "velocity": 113}, {"time": 456, "pitch": 70, "duration": 2, "velocity": 113}, {"time": 462, "pitch": 70, "duration": 2, "velocity": 113}, {"time": 468, "pitch": 70, "duration": 4, "velocity": 123}, {"time": 474, "pitch": 67, "duration": 4, "velocity": 89}, {"time": 480, "pitch": 70, "duration": 3, "velocity": 116}, {"time": 486, "pitch": 70, "duration": 3, "velocity": 109}, {"time": 492, "pitch": 70, "duration": 2, "velocity": 106}, {"time": 498, "pitch": 70, "duration": 3, "velocity": 109}, {"time": 504, "pitch": 70, "duration": 2, "velocity": 106}, {"time": 510, "pitch": 70, "duration": 2, "velocity": 109}, {"time": 516, "pitch": 70, "duration": 6, "velocity": 116}, {"time": 522, "pitch": 65, "duration": 5, "velocity": 110}, {"time": 528, "pitch": 65, "duration": 3, "velocity": 113}, {"time": 534, "pitch": 65, "duration": 3, "velocity": 107}, {"time": 540, "pitch": 65, "duration": 2, "velocity": 100}, {"time": 546, "pitch": 65, "duration": 3, "velocity": 98}, {"time": 552, "pitch": 65, "duration": 5, "velocity": 102}, {"time": 558, "pitch": 67, "duration": 5, "velocity": 108}, {"time": 564, "pitch": 65, "duration": 6, "velocity": 113}, {"time": 570, "pitch": 67, "duration": 7, "velocity": 110}, {"time": 624, "pitch": 70, "duration": 3, "velocity": 116}, {"time": 630, "pitch": 70, "duration": 2, "velocity": 109}, {"time": 636, "pitch": 70, "duration": 3, "velocity": 113}, {"time": 642, "pitch": 70, "duration": 2, "velocity": 113}, {"time": 648, "pitch": 70, "duration": 3, "velocity": 103}, {"time": 654, "pitch": 70, "duration": 3, "velocity": 100}, {"time": 660, "pitch": 70, "duration": 5, "velocity": 109}, {"time": 666, "pitch": 67, "duration": 3, "velocity": 96}, {"time": 672, "pitch": 70, "duration": 2, "velocity": 116}, {"time": 678, "pitch": 70, "duration": 2, "velocity": 109}, {"time": 684, "pitch": 70, "duration": 2, "velocity": 109}, {"time": 690, "pitch": 70, "duration": 2, "velocity": 106}, {"time": 696, "pitch": 70, "duration": 2, "velocity": 103}, {"time": 702, "pitch": 70, "duration": 2, "velocity": 109}, {"time": 708, "pitch": 70, "duration": 5, "velocity": 113}, {"time": 714, "pitch": 65, "duration": 3, "velocity": 91}, {"time": 720, "pitch": 65, "duration": 3, "velocity": 110}, {"time": 726, "pitch": 65, "duration": 2, "velocity": 102}, {"time": 732, "pitch": 65, "duration": 3, "velocity": 98}, {"time": 738, "pitch": 65, "duration": 2, "velocity": 91}, {"time": 744, "pitch": 65, "duration": 3, "velocity": 100}, {"time": 750, "pitch": 67, "duration": 3, "velocity": 100}, {"time": 756, "pitch": 65, "duration": 2, "velocity": 102}, {"time": 762, "pitch": 67, "duration": 6, "velocity": 108}, {"time": 816, "pitch": 67, "duration": 3, "velocity": 116}, {"time": 822, "pitch": 67, "duration": 3, "velocity": 107}, {"time": 828, "pitch": 67, "duration": 2, "velocity": 92}, {"time": 834, "pitch": 69, "duration": 7, "velocity": 108}, {"time": 840, "pitch": 70, "duration": 4, "velocity": 106}, {"time": 846, "pitch": 74, "duration": 3, "velocity": 110}, {"time": 852, "pitch": 72, "duration": 5, "velocity": 108}, {"time": 858, "pitch": 70, "duration": 5, "velocity": 113}, {"time": 864, "pitch": 69, "duration": 6, "velocity": 108}, {"time": 870, "pitch": 67, "duration": 3, "velocity": 100}, {"time": 876, "pitch": 69, "duration": 5, "velocity": 110}, {"time": 882, "pitch": 67, "duration": 3, "velocity": 104}, {"time": 885, "pitch": 69, "duration": 7, "velocity": 110}, {"time": 912, "pitch": 65, "duration": 3, "velocity": 114}, {"time": 918, "pitch": 65, "duration": 3, "velocity": 102}, {"time": 924, "pitch": 65, "duration": 3, "velocity": 98}, {"time": 930, "pitch": 67, "duration": 2, "velocity": 116}, {"time": 936, "pitch": 69, "duration": 3, "velocity": 108}, {"time": 942, "pitch": 72, "duration": 3, "velocity": 109}, {"time": 948, "pitch": 70, "duration": 6, "velocity": 116}, {"time": 954, "pitch": 69, "duration": 6, "velocity": 108}, {"time": 960, "pitch": 67, "duration": 3, "velocity": 93}, {"time": 966, "pitch": 65, "duration": 4, "velocity": 108}, {"time": 972, "pitch": 67, "duration": 3, "velocity": 107}, {"time": 978, "pitch": 65, "duration": 4, "velocity": 108}, {"time": 984, "pitch": 67, "duration": 4, "velocity": 110}, {"time": 1008, "pitch": 67, "duration": 3, "velocity": 113}, {"time": 1014, "pitch": 67, "duration": 3, "velocity": 108}, {"time": 1020, "pitch": 67, "duration": 4, "velocity": 107}, {"time": 1026, "pitch": 69, "duration": 5, "velocity": 108}, {"time": 1032, "pitch": 70, "duration": 4, "velocity": 103}, {"time": 1038, "pitch": 74, "duration": 4, "velocity": 110}, {"time": 1044, "pitch": 72, "duration": 6, "velocity": 102}, {"time": 1050, "pitch": 70, "duration": 6, "velocity": 109}, {"time": 1056, "pitch": 69, "duration": 5, "velocity": 102}, {"time": 1062, "pitch": 67, "duration": 4, "velocity": 88}, {"time": 1068, "pitch": 69, "duration": 3, "velocity": 108}, {"time": 1074, "pitch": 69, "duration": 5, "velocity": 113}, {"time": 1104, "pitch": 65, "duration": 3, "velocity": 113}, {"time": 1110, "pitch": 65, "duration": 3, "velocity": 108}, {"time": 1116, "pitch": 65, "duration": 3, "velocity": 107}, {"time": 1122, "pitch": 67, "duration": 4, "velocity": 107}, {"time": 1128, "pitch": 69, "duration": 3, "velocity": 107}, {"time": 1134, "pitch": 72, "duration": 4, "velocity": 104}, {"time": 1140, "pitch": 70, "duration": 4, "velocity": 103}, {"time": 1146, "pitch": 69, "duration": 5, "velocity": 98}, {"time": 1152, "pitch": 67, "duration": 7, "velocity": 108}, {"time": 1200, "pitch": 74, "duration": 8, "velocity": 117}, {"time": 1212, "pitch": 70, "duration": 7, "velocity": 116}, {"time": 1224, "pitch": 72, "duration": 8, "velocity": 113}, {"time": 1236, "pitch": 67, "duration": 6, "velocity": 107}, {"time": 1248, "pitch": 74, "duration": 5, "velocity": 113}, {"time": 1254, "pitch": 72, "duration": 6, "velocity": 113}, {"time": 1260, "pitch": 70, "duration": 6, "velocity": 116}, {"time": 1266, "pitch": 72, "duration": 6, "velocity": 107}, {"time": 1272, "pitch": 67, "duration": 7, "velocity": 113}, {"time": 1296, "pitch": 74, "duration": 13, "velocity": 93}, {"time": 1308, "pitch": 70, "duration": 8, "velocity": 119}, {"time": 1320, "pitch": 72, "duration": 8, "velocity": 120}, {"time": 1332, "pitch": 72, "duration": 5, "velocity": 117}, {"time": 1344, "pitch": 77, "duration": 7, "velocity": 108}, {"time": 1350, "pitch": 74, "duration": 7, "velocity": 110}, {"time": 1356, "pitch": 69, "duration": 9, "velocity": 113}, {"time": 1368, "pitch": 70, "duration": 7, "velocity": 119}, {"time": 1380, "pitch": 70, "duration": 5, "velocity": 123}, {"time": 1386, "pitch": 69, "duration": 6, "velocity": 108}, {"time": 1392, "pitch": 67, "duration": 10, "velocity": 114}, {"time": 1404, "pitch": 69, "duration": 6, "velocity": 113}, {"time": 1410, "pitch": 70, "duration": 4, "velocity": 113}, {"time": 1416, "pitch": 72, "duration": 7, "velocity": 117}, {"time": 1428, "pitch": 65, "duration": 7, "velocity": 116}, {"time": 1440, "pitch": 79, "duration": 8, "velocity": 120}, {"time": 1446, "pitch": 77, "duration": 5, "velocity": 116}, {"time": 1452, "pitch": 74, "duration": 7, "velocity": 117}, {"time": 1464, "pitch": 74, "duration": 7, "velocity": 119}, {"time": 1482, "pitch": 72, "duration": 6, "velocity": 108}, {"time": 1488, "pitch": 70, "duration": 6, "velocity": 119}, {"time": 1500, "pitch": 74, "duration": 8, "velocity": 119}, {"time": 1512, "pitch": 72, "duration": 5, "velocity": 117}, {"time": 1518, "pitch": 74, "duration": 6, "velocity": 114}, {"time": 1524, "pitch": 72, "duration": 3, "velocity": 110}, {"time": 1530, "pitch": 77, "duration": 10, "velocity": 116}, {"time": 1548, "pitch": 77, "duration": 2, "velocity": 117}, {"time": 1554, "pitch": 77, "duration": 2, "velocity": 113}, {"time": 1560, "pitch": 77, "duration": 2, "velocity": 114}, {"time": 1566, "pitch": 77, "duration": 2, "velocity": 114}, {"time": 1572, "pitch": 77, "duration": 4, "velocity": 116}, {"time": 1584, "pitch": 74, "duration": 8, "velocity": 117}, {"time": 1596, "pitch": 70, "duration": 7, "velocity": 116}, {"time": 1608, "pitch": 72, "duration": 8, "velocity": 113}, {"time": 1620, "pitch": 67, "duration": 6, "velocity": 107}, {"time": 1632, "pitch": 74, "duration": 5, "velocity": 113}, {"time": 1638, "pitch": 72, "duration": 6, "velocity": 113}, {"time": 1644, "pitch": 70, "duration": 6, "velocity": 116}, {"time": 1650, "pitch": 72, "duration": 6, "velocity": 107}, {"time": 1656, "pitch": 67, "duration": 7, "velocity": 113}, {"time": 1680, "pitch": 74, "duration": 13, "velocity": 93}, {"time": 1692, "pitch": 70, "duration": 8, "velocity": 119}, {"time": 1704, "pitch": 72, "duration": 8, "velocity": 120}, {"time": 1716, "pitch": 72, "duration": 5, "velocity": 117}, {"time": 1728, "pitch": 77, "duration": 7, "velocity": 108}, {"time": 1734, "pitch": 74, "duration": 7, "velocity": 110}, {"time": 1740, "pitch": 69, "duration": 9, "velocity": 113}, {"time": 1752, "pitch": 70, "duration": 7, "velocity": 119}, {"time": 1764, "pitch": 70, "duration": 5, "velocity": 123}, {"time": 1770, "pitch": 69, "duration": 6, "velocity": 108}, {"time": 1776, "pitch": 67, "duration": 10, "velocity": 114}, {"time": 1788, "pitch": 69, "duration": 6, "velocity": 113}, {"time": 1794, "pitch": 70, "duration": 4, "velocity": 113}, {"time": 1800, "pitch": 72, "duration": 7, "velocity": 117}, {"time": 1812, "pitch": 65, "duration": 7, "velocity": 116}, {"time": 1824, "pitch": 79, "duration": 8, "velocity": 120}, {"time": 1830, "pitch": 77, "duration": 5, "velocity": 116}, {"time": 1836, "pitch": 74, "duration": 7, "velocity": 117}, {"time": 1848, "pitch": 74, "duration": 7, "velocity": 119}, {"time": 1866, "pitch": 72, "duration": 6, "velocity": 108}, {"time": 1872, "pitch": 70, "duration": 6, "velocity": 119}, {"time": 1884, "pitch": 74, "duration": 8, "velocity": 119}, {"time": 1896, "pitch": 72, "duration": 5, "velocity": 117}, {"time": 1908, "pitch": 65, "duration": 8, "velocity": 116}, {"time": 1920, "pitch": 67, "duration": 7, "velocity": 114}, {"time": 1932, "pitch": 70, "duration": 7, "velocity": 119}, {"time": 1944, "pitch": 67, "duration": 8, "velocity": 117}, {"time": 2352, "pitch": 70, "duration": 3, "velocity": 119}, {"time": 2358, "pitch": 70, "duration": 2, "velocity": 109}, {"time": 2364, "pitch": 70, "duration": 2, "velocity": 116}, {"time": 2370, "pitch": 70, "duration": 2, "velocity": 113}, {"time": 2376, "pitch": 70, "duration": 2, "velocity": 113}, {"time": 2382, "pitch": 70, "duration": 2, "velocity": 113}, {"time": 2388, "pitch": 70, "duration": 4, "velocity": 123}, {"time": 2394, "pitch": 67, "duration": 4, "velocity": 89}, {"time": 2400, "pitch": 70, "duration": 3, "velocity": 116}, {"time": 2406, "pitch": 70, "duration": 3, "velocity": 109}, {"time": 2412, "pitch": 70, "duration": 2, "velocity": 106}, {"time": 2418, "pitch": 70, "duration": 3, "velocity": 109}, {"time": 2424, "pitch": 70, "duration": 2, "velocity": 106}, {"time": 2430, "pitch": 70, "duration": 2, "velocity": 109}, {"time": 2436, "pitch": 70, "duration": 6, "velocity": 116}, {"time": 2442, "pitch": 65, "duration": 5, "velocity": 110}, {"time": 2448, "pitch": 65, "duration": 3, "velocity": 113}, {"time": 2454, "pitch": 65, "duration": 3, "velocity": 107}, {"time": 2460, "pitch": 65, "duration": 2, "velocity": 100}, {"time": 2466, "pitch": 65, "duration": 3, "velocity": 98}, {"time": 2472, "pitch": 65, "duration": 5, "velocity": 102}, {"time": 2478, "pitch": 67, "duration": 5, "velocity": 108}, {"time": 2484, "pitch": 65, "duration": 6, "velocity": 113}, {"time": 2490, "pitch": 67, "duration": 7, "velocity": 110}, {"time": 2544, "pitch": 70, "duration": 3, "velocity": 116}, {"time": 2550, "pitch": 70, "duration": 2, "velocity": 109}, {"time": 2556, "pitch": 70, "duration": 3, "velocity": 113}, {"time": 2562, "pitch": 70, "duration": 2, "velocity": 113}, {"time": 2568, "pitch": 70, "duration": 3, "velocity": 103}, {"time": 2574, "pitch": 70, "duration": 3, "velocity": 100}, {"time": 2580, "pitch": 70, "duration": 5, "velocity": 109}, {"time": 2586, "pitch": 67, "duration": 3, "velocity": 96}, {"time": 2592, "pitch": 70, "duration": 2, "velocity": 116}, {"time": 2598, "pitch": 70, "duration": 2, "velocity": 109}, {"time": 2604, "pitch": 70, "duration": 2, "velocity": 109}, {"time": 2610, "pitch": 70, "duration": 2, "velocity": 106}, {"time": 2616, "pitch": 70, "duration": 2, "velocity": 103}, {"time": 2622, "pitch": 70, "duration": 2, "velocity": 109}, {"time": 2628, "pitch": 70, "duration": 5, "velocity": 113}, {"time": 2634, "pitch": 65, "duration": 3, "velocity": 91}, {"time": 2640, "pitch": 65, "duration": 3, "velocity": 110}, {"time": 2646, "pitch": 65, "duration": 2, "velocity": 102}, {"time": 2652, "pitch": 65, "duration": 3, "velocity": 98}, {"time": 2658, "pitch": 65, "duration": 2, "velocity": 91}, {"time": 2664, "pitch": 65, "duration": 3, "velocity": 100}, {"time": 2670, "pitch": 67, "duration": 3, "velocity": 100}, {"time": 2676, "pitch": 65, "duration": 2, "velocity": 102}, {"time": 2682, "pitch": 67, "duration": 6, "velocity": 108}, {"time": 2736, "pitch": 67, "duration": 3, "velocity": 116}, {"time": 2742, "pitch": 67, "duration": 3, "velocity": 107}, {"time": 2748, "pitch": 67, "duration": 2, "velocity": 92}, {"time": 2754, "pitch": 69, "duration": 7, "velocity": 108}, {"time": 2760, "pitch": 70, "duration": 4, "velocity": 106}, {"time": 2766, "pitch": 74, "duration": 3, "velocity": 110}, {"time": 2772, "pitch": 72, "duration": 5, "velocity": 108}, {"time": 2778, "pitch": 70, "duration": 5, "velocity": 113}, {"time": 2784, "pitch": 69, "duration": 6, "velocity": 108}, {"time": 2790, "pitch": 67, "duration": 3, "velocity": 100}, {"time": 2796, "pitch": 69, "duration": 5, "velocity": 110}, {"time": 2802, "pitch": 67, "duration": 3, "velocity": 104}, {"time": 2808, "pitch": 69, "duration": 7, "velocity": 110}, {"time": 2832, "pitch": 65, "duration": 3, "velocity": 114}, {"time": 2838, "pitch": 65, "duration": 3, "velocity": 102}, {"time": 2844, "pitch": 65, "duration": 3, "velocity": 98}, {"time": 2850, "pitch": 67, "duration": 2, "velocity": 116}, {"time": 2856, "pitch": 69, "duration": 3, "velocity": 108}, {"time": 2862, "pitch": 72, "duration": 3, "velocity": 109}, {"time": 2868, "pitch": 70, "duration": 6, "velocity": 116}, {"time": 2874, "pitch": 69, "duration": 6, "velocity": 108}, {"time": 2880, "pitch": 67, "duration": 3, "velocity": 93}, {"time": 2886, "pitch": 65, "duration": 4, "velocity": 108}, {"time": 2892, "pitch": 67, "duration": 3, "velocity": 107}, {"time": 2898, "pitch": 65, "duration": 4, "velocity": 108}, {"time": 2904, "pitch": 67, "duration": 4, "velocity": 110}, {"time": 2928, "pitch": 67, "duration": 3, "velocity": 113}, {"time": 2934, "pitch": 67, "duration": 3, "velocity": 108}, {"time": 2940, "pitch": 67, "duration": 4, "velocity": 107}, {"time": 2946, "pitch": 69, "duration": 5, "velocity": 108}, {"time": 2952, "pitch": 70, "duration": 4, "velocity": 103}, {"time": 2958, "pitch": 74, "duration": 4, "velocity": 110}, {"time": 2964, "pitch": 72, "duration": 6, "velocity": 102}, {"time": 2970, "pitch": 70, "duration": 6, "velocity": 109}, {"time": 2976, "pitch": 69, "duration": 5, "velocity": 102}, {"time": 2982, "pitch": 67, "duration": 4, "velocity": 88}, {"time": 2988, "pitch": 69, "duration": 3, "velocity": 108}, {"time": 2994, "pitch": 67, "duration": 5, "velocity": 113}, {"time": 3000, "pitch": 69, "duration": 5, "velocity": 113}, {"time": 3024, "pitch": 65, "duration": 3, "velocity": 113}, {"time": 3030, "pitch": 65, "duration": 3, "velocity": 108}, {"time": 3036, "pitch": 65, "duration": 3, "velocity": 107}, {"time": 3042, "pitch": 67, "duration": 4, "velocity": 107}, {"time": 3048, "pitch": 69, "duration": 3, "velocity": 107}, {"time": 3054, "pitch": 72, "duration": 4, "velocity": 104}, {"time": 3060, "pitch": 70, "duration": 4, "velocity": 103}, {"time": 3066, "pitch": 69, "duration": 5, "velocity": 98}, {"time": 3072, "pitch": 67, "duration": 7, "velocity": 108}, {"time": 3120, "pitch": 74, "duration": 8, "velocity": 117}, {"time": 3132, "pitch": 70, "duration": 7, "velocity": 116}, {"time": 3144, "pitch": 72, "duration": 8, "velocity": 113}, {"time": 3156, "pitch": 67, "duration": 6, "velocity": 107}, {"time": 3168, "pitch": 74, "duration": 5, "velocity": 113}, {"time": 3174, "pitch": 72, "duration": 6, "velocity": 113}, {"time": 3180, "pitch": 70, "duration": 6, "velocity": 116}, {"time": 3186, "pitch": 72, "duration": 6, "velocity": 107}, {"time": 3192, "pitch": 67, "duration": 7, "velocity": 113}, {"time": 3216, "pitch": 74, "duration": 13, "velocity": 93}, {"time": 3228, "pitch": 70, "duration": 8, "velocity": 119}, {"time": 3240, "pitch": 72, "duration": 8, "velocity": 120}, {"time": 3252, "pitch": 72, "duration": 5, "velocity": 117}, {"time": 3264, "pitch": 77, "duration": 7, "velocity": 108}, {"time": 3270, "pitch": 74, "duration": 7, "velocity": 110}, {"time": 3276, "pitch": 69, "duration": 9, "velocity": 113}, {"time": 3288, "pitch": 70, "duration": 7, "velocity": 119}, {"time": 3300, "pitch": 70, "duration": 5, "velocity": 123}, {"time": 3306, "pitch": 69, "duration": 6, "velocity": 108}, {"time": 3312, "pitch": 67, "duration": 10, "velocity": 114}, {"time": 3324, "pitch": 69, "duration": 6, "velocity": 113}, {"time": 3330, "pitch": 70, "duration": 4, "velocity": 113}, {"time": 3336, "pitch": 72, "duration": 7, "velocity": 117}, {"time": 3348, "pitch": 65, "duration": 7, "velocity": 116}, {"time": 3360, "pitch": 79, "duration": 8, "velocity": 120}, {"time": 3366, "pitch": 77, "duration": 5, "velocity": 116}, {"time": 3372, "pitch": 74, "duration": 7, "velocity": 117}, {"time": 3384, "pitch": 74, "duration": 7, "velocity": 119}, {"time": 3402, "pitch": 72, "duration": 6, "velocity": 108}, {"time": 3408, "pitch": 70, "duration": 6, "velocity": 119}, {"time": 3420, "pitch": 74, "duration": 8, "velocity": 119}, {"time": 3432, "pitch": 72, "duration": 5, "velocity": 117}, {"time": 3438, "pitch": 74, "duration": 6, "velocity": 114}, {"time": 3444, "pitch": 72, "duration": 3, "velocity": 110}, {"time": 3450, "pitch": 77, "duration": 10, "velocity": 116}, {"time": 3468, "pitch": 77, "duration": 2, "velocity": 117}, {"time": 3474, "pitch": 77, "duration": 2, "velocity": 113}, {"time": 3480, "pitch": 77, "duration": 2, "velocity": 114}, {"time": 3486, "pitch": 77, "duration": 2, "velocity": 114}, {"time": 3492, "pitch": 77, "duration": 4, "velocity": 116}, {"time": 3504, "pitch": 74, "duration": 8, "velocity": 117}, {"time": 3516, "pitch": 70, "duration": 7, "velocity": 116}, {"time": 3528, "pitch": 72, "duration": 8, "velocity": 113}, {"time": 3540, "pitch": 67, "duration": 6, "velocity": 107}, {"time": 3552, "pitch": 74, "duration": 5, "velocity": 113}, {"time": 3558, "pitch": 72, "duration": 6, "velocity": 113}, {"time": 3564, "pitch": 70, "duration": 6, "velocity": 116}, {"time": 3570, "pitch": 72, "duration": 6, "velocity": 107}, {"time": 3576, "pitch": 67, "duration": 7, "velocity": 113}, {"time": 3600, "pitch": 74, "duration": 13, "velocity": 93}, {"time": 3612, "pitch": 70, "duration": 8, "velocity": 119}, {"time": 3624, "pitch": 72, "duration": 8, "velocity": 120}, {"time": 3636, "pitch": 72, "duration": 5, "velocity": 117}, {"time": 3648, "pitch": 77, "duration": 7, "velocity": 108}, {"time": 3654, "pitch": 74, "duration": 7, "velocity": 110}, {"time": 3660, "pitch": 69, "duration": 9, "velocity": 113}, {"time": 3672, "pitch": 70, "duration": 7, "velocity": 119}, {"time": 3684, "pitch": 70, "duration": 5, "velocity": 123}, {"time": 3690, "pitch": 69, "duration": 6, "velocity": 108}, {"time": 3696, "pitch": 67, "duration": 10, "velocity": 114}, {"time": 3708, "pitch": 69, "duration": 6, "velocity": 113}, {"time": 3714, "pitch": 70, "duration": 4, "velocity": 113}, {"time": 3720, "pitch": 72, "duration": 7, "velocity": 117}, {"time": 3732, "pitch": 65, "duration": 7, "velocity": 116}, {"time": 3744, "pitch": 79, "duration": 8, "velocity": 120}, {"time": 3750, "pitch": 77, "duration": 5, "velocity": 116}, {"time": 3756, "pitch": 74, "duration": 7, "velocity": 117}, {"time": 3768, "pitch": 74, "duration": 7, "velocity": 119}, {"time": 3786, "pitch": 72, "duration": 6, "velocity": 108}, {"time": 3792, "pitch": 70, "duration": 6, "velocity": 119}, {"time": 3804, "pitch": 74, "duration": 8, "velocity": 119}, {"time": 3816, "pitch": 72, "duration": 5, "velocity": 117}, {"time": 3828, "pitch": 65, "duration": 8, "velocity": 116}, {"time": 3840, "pitch": 67, "duration": 7, "velocity": 114}, {"time": 3852, "pitch": 70, "duration": 7, "velocity": 119}, {"time": 3864, "pitch": 67, "duration": 8, "velocity": 117}, {"time": 4272, "pitch": 74, "duration": 8, "velocity": 117}, {"time": 4284, "pitch": 70, "duration": 7, "velocity": 116}, {"time": 4296, "pitch": 72, "duration": 8, "velocity": 113}, {"time": 4308, "pitch": 67, "duration": 6, "velocity": 107}, {"time": 4320, "pitch": 74, "duration": 5, "velocity": 113}, {"time": 4326, "pitch": 72, "duration": 6, "velocity": 113}, {"time": 4332, "pitch": 70, "duration": 6, "velocity": 116}, {"time": 4338, "pitch": 72, "duration": 6, "velocity": 107}, {"time": 4344, "pitch": 67, "duration": 7, "velocity": 113}, {"time": 4368, "pitch": 74, "duration": 13, "velocity": 93}, {"time": 4380, "pitch": 70, "duration": 8, "velocity": 119}, {"time": 4392, "pitch": 72, "duration": 8, "velocity": 120}, {"time": 4404, "pitch": 72, "duration": 5, "velocity": 117}, {"time": 4416, "pitch": 77, "duration": 7, "velocity": 108}, {"time": 4422, "pitch": 74, "duration": 7, "velocity": 110}, {"time": 4428, "pitch": 69, "duration": 9, "velocity": 113}, {"time": 4440, "pitch": 70, "duration": 7, "velocity": 119}, {"time": 4452, "pitch": 70, "duration": 5, "velocity": 123}, {"time": 4458, "pitch": 69, "duration": 6, "velocity": 108}, {"time": 4464, "pitch": 67, "duration": 10, "velocity": 114}, {"time": 4476, "pitch": 69, "duration": 6, "velocity": 113}, {"time": 4482, "pitch": 70, "duration": 4, "velocity": 113}, {"time": 4488, "pitch": 72, "duration": 7, "velocity": 117}, {"time": 4500, "pitch": 65, "duration": 7, "velocity": 116}, {"time": 4512, "pitch": 79, "duration": 8, "velocity": 120}, {"time": 4518, "pitch": 77, "duration": 5, "velocity": 116}, {"time": 4524, "pitch": 74, "duration": 7, "velocity": 117}, {"time": 4536, "pitch": 74, "duration": 7, "velocity": 119}, {"time": 4554, "pitch": 72, "duration": 6, "velocity": 108}, {"time": 4560, "pitch": 70, "duration": 6, "velocity": 119}, {"time": 4572, "pitch": 74, "duration": 8, "velocity": 119}, {"time": 4584, "pitch": 72, "duration": 5, "velocity": 117}, {"time": 4590, "pitch": 74, "duration": 6, "velocity": 114}, {"time": 4596, "pitch": 72, "duration": 3, "velocity": 110}, {"time": 4602, "pitch": 77, "duration": 10, "velocity": 116}, {"time": 4620, "pitch": 77, "duration": 2, "velocity": 117}, {"time": 4626, "pitch": 77, "duration": 2, "velocity": 113}, {"time": 4632, "pitch": 77, "duration": 2, "velocity": 114}, {"time": 4638, "pitch": 77, "duration": 2, "velocity": 114}, {"time": 4644, "pitch": 77, "duration": 4, "velocity": 116}, {"time": 4656, "pitch": 74, "duration": 8, "velocity": 117}, {"time": 4668, "pitch": 70, "duration": 7, "velocity": 116}, {"time": 4680, "pitch": 72, "duration": 8, "velocity": 113}, {"time": 4692, "pitch": 67, "duration": 6, "velocity": 107}, {"time": 4704, "pitch": 74, "duration": 5, "velocity": 113}, {"time": 4710, "pitch": 72, "duration": 6, "velocity": 113}, {"time": 4716, "pitch": 70, "duration": 6, "velocity": 116}, {"time": 4722, "pitch": 72, "duration": 6, "velocity": 107}, {"time": 4728, "pitch": 67, "duration": 7, "velocity": 113}, {"time": 4752, "pitch": 74, "duration": 13, "velocity": 93}, {"time": 4764, "pitch": 70, "duration": 8, "velocity": 119}, {"time": 4776, "pitch": 72, "duration": 8, "velocity": 120}, {"time": 4788, "pitch": 72, "duration": 5, "velocity": 117}, {"time": 4800, "pitch": 77, "duration": 7, "velocity": 108}, {"time": 4806, "pitch": 74, "duration": 7, "velocity": 110}, {"time": 4812, "pitch": 69, "duration": 9, "velocity": 113}, {"time": 4824, "pitch": 70, "duration": 7, "velocity": 119}, {"time": 4836, "pitch": 70, "duration": 5, "velocity": 123}, {"time": 4842, "pitch": 69, "duration": 6, "velocity": 108}, {"time": 4848, "pitch": 67, "duration": 10, "velocity": 114}, {"time": 4860, "pitch": 69, "duration": 6, "velocity": 113}, {"time": 4866, "pitch": 70, "duration": 4, "velocity": 113}, {"time": 4872, "pitch": 72, "duration": 7, "velocity": 117}, {"time": 4884, "pitch": 65, "duration": 7, "velocity": 116}, {"time": 4896, "pitch": 79, "duration": 8, "velocity": 120}, {"time": 4902, "pitch": 77, "duration": 5, "velocity": 116}, {"time": 4908, "pitch": 74, "duration": 7, "velocity": 117}, {"time": 4920, "pitch": 74, "duration": 7, "velocity": 119}, {"time": 4938, "pitch": 72, "duration": 6, "velocity": 108}, {"time": 4944, "pitch": 70, "duration": 6, "velocity": 119}, {"time": 4956, "pitch": 74, "duration": 8, "velocity": 119}, {"time": 4968, "pitch": 72, "duration": 5, "velocity": 117}, {"time": 4980, "pitch": 65, "duration": 8, "velocity": 116}, {"time": 4992, "pitch": 67, "duration": 7, "velocity": 114}, {"time": 5004, "pitch": 70, "duration": 7, "velocity": 119}, {"time": 5016, "pitch": 67, "duration": 8, "velocity": 117}]}, {"program": 0, "is_drum": false, "name": "PIANO", "notes": [{"time": 48, "pitch": 43, "duration": 6, "velocity": 98}, {"time": 48, "pitch": 62, "duration": 16, "velocity": 91}, {"time": 48, "pitch": 67, "duration": 17, "velocity": 92}, {"time": 48, "pitch": 70, "duration": 16, "velocity": 88}, {"time": 54, "pitch": 55, "duration": 6, "velocity": 93}, {"time": 60, "pitch": 43, "duration": 6, "velocity": 98}, {"time": 66, "pitch": 55, "duration": 6, "velocity": 98}, {"time": 66, "pitch": 62, "duration": 25, "velocity": 96}, {"time": 66, "pitch": 67, "duration": 26, "velocity": 96}, {"time": 66, "pitch": 70, "duration": 25, "velocity": 88}, {"time": 72, "pitch": 43, "duration": 6, "velocity": 102}, {"time": 78, "pitch": 55, "duration": 6, "velocity": 107}, {"time": 84, "pitch": 43, "duration": 6, "velocity": 107}, {"time": 90, "pitch": 55, "duration": 6, "velocity": 107}, {"time": 96, "pitch": 43, "duration": 6, "velocity": 102}, {"time": 96, "pitch": 62, "duration": 17, "velocity": 92}, {"time": 96, "pitch": 67, "duration": 17, "velocity": 91}, {"time": 96, "pitch": 70, "duration": 17, "velocity": 87}, {"time": 102, "pitch": 55, "duration": 6, "velocity": 107}, {"time": 108, "pitch": 43, "duration": 6, "velocity": 102}, {"time": 114, "pitch": 55, "duration": 6, "velocity": 107}, {"time": 114, "pitch": 62, "duration": 16, "velocity": 93}, {"time": 114, "pitch": 67, "duration": 16, "velocity": 92}, {"time": 114, "pitch": 70, "duration": 16, "velocity": 87}, {"time": 120, "pitch": 43, "duration": 6, "velocity": 100}, {"time": 126, "pitch": 55, "duration": 3, "velocity": 116}, {"time": 132, "pitch": 43, "duration": 3, "velocity": 116}, {"time": 132, "pitch": 62, "duration": 5, "velocity": 89}, {"time": 132, "pitch": 67, "duration": 4, "velocity": 89}, {"time": 132, "pitch": 70, "duration": 4, "velocity": 79}, {"time": 138, "pitch": 55, "duration": 3, "velocity": 116}, {"time": 144, "pitch": 41, "duration": 6, "velocity": 93}, {"time": 144, "pitch": 60, "duration": 17, "velocity": 90}, {"time": 144, "pitch": 65, "duration": 18, "velocity": 92}, {"time": 144, "pitch": 69, "duration": 17, "velocity": 89}, {"time": 150, "pitch": 53, "duration": 6, "velocity": 87}, {"time": 156, "pitch": 41, "duration": 7, "velocity": 96}, {"time": 162, "pitch": 53, "duration": 6, "velocity": 90}, {"time": 162, "pitch": 60, "duration": 27, "velocity": 91}, {"time": 162, "pitch": 65, "duration": 28, "velocity": 92}, {"time": 162, "pitch": 69, "duration": 27, "velocity": 91}, {"time": 168, "pitch": 41, "duration": 7, "velocity": 96}, {"time": 174, "pitch": 53, "duration": 6, "velocity": 89}, {"time": 180, "pitch": 41, "duration": 7, "velocity": 102}, {"time": 186, "pitch": 53, "duration": 4, "velocity": 93}, {"time": 192, "pitch": 43, "duration": 6, "velocity": 92}, {"time": 192, "pitch": 62, "duration": 16, "velocity": 87}, {"time": 192, "pitch": 67, "duration": 16, "velocity": 88}, {"time": 192, "pitch": 70, "duration": 16, "velocity": 85}, {"time": 198, "pitch": 55, "duration": 6, "velocity": 89}, {"time": 204, "pitch": 43, "duration": 7, "velocity": 94}, {"time": 210, "pitch": 55, "duration": 6, "velocity": 91}, {"time": 210, "pitch": 62, "duration": 19, "velocity": 88}, {"time": 210, "pitch": 67, "duration": 19, "velocity": 89}, {"time": 210, "pitch": 70, "duration": 20, "velocity": 86}, {"time": 216, "pitch": 43, "duration": 7, "velocity": 96}, {"time": 222, "pitch": 55, "duration": 6, "velocity": 90}, {"time": 228, "pitch": 43, "duration": 6, "velocity": 104}, {"time": 234, "pitch": 55, "duration": 3, "velocity": 96}, {"time": 240, "pitch": 39, "duration": 6, "velocity": 103}, {"time": 240, "pitch": 63, "duration": 16, "velocity": 86}, {"time": 240, "pitch": 67, "duration": 15, "velocity": 91}, {"time": 240, "pitch": 70, "duration": 16, "velocity": 86}, {"time": 246, "pitch": 51, "duration": 6, "velocity": 90}, {"time": 252, "pitch": 39, "duration": 7, "velocity": 97}, {"time": 258, "pitch": 51, "duration": 6, "velocity": 91}, {"time": 258, "pitch": 63, "duration": 21, "velocity": 87}, {"time": 258, "pitch": 67, "duration": 22, "velocity": 98}, {"time": 258, "pitch": 70, "duration": 22, "velocity": 85}, {"time": 264, "pitch": 39, "duration": 7, "velocity": 95}, {"time": 270, "pitch": 51, "duration": 6, "velocity": 97}, {"time": 276, "pitch": 39, "duration": 8, "velocity": 103}, {"time": 282, "pitch": 51, "duration": 4, "velocity": 100}, {"time": 288, "pitch": 38, "duration": 7, "velocity": 92}, {"time": 288, "pitch": 62, "duration": 13, "velocity": 88}, {"time": 288, "pitch": 65, "duration": 16, "velocity": 91}, {"time": 288, "pitch": 69, "duration": 13, "velocity": 89}, {"time": 294, "pitch": 50, "duration": 6, "velocity": 87}, {"time": 300, "pitch": 38, "duration": 5, "velocity": 108}, {"time": 306, "pitch": 43, "duration": 10, "velocity": 86}, {"time": 306, "pitch": 62, "duration": 9, "velocity": 92}, {"time": 306, "pitch": 67, "duration": 10, "velocity": 91}, {"time": 306, "pitch": 70, "duration": 7, "velocity": 88}, {"time": 318, "pitch": 38, "duration": 3, "velocity": 87}, {"time": 318, "pitch": 50, "duration": 4, "velocity": 91}, {"time": 318, "pitch": 62, "duration": 3, "velocity": 84}, {"time": 318, "pitch": 65, "duration": 3, "velocity": 88}, {"time": 318, "pitch": 69, "duration": 3, "velocity": 84}, {"time": 324, "pitch": 43, "duration": 8, "velocity": 91}, {"time": 324, "pitch": 62, "duration": 7, "velocity": 88}, {"time": 324, "pitch": 67, "duration": 8, "velocity": 91}, {"time": 324, "pitch": 70, "duration": 8, "velocity": 89}, {"time": 336, "pitch": 43, "duration": 6, "velocity": 96}, {"time": 336, "pitch": 62, "duration": 17, "velocity": 89}, {"time": 336, "pitch": 67, "duration": 17, "velocity": 91}, {"time": 336, "pitch": 70, "duration": 17, "velocity": 87}, {"time": 342, "pitch": 55, "duration": 7, "velocity": 88}, {"time": 348, "pitch": 43, "duration": 7, "velocity": 98}, {"time": 354, "pitch": 55, "duration": 4, "velocity": 91}, {"time": 360, "pitch": 36, "duration": 7, "velocity": 98}, {"time": 360, "pitch": 63, "duration": 18, "velocity": 88}, {"time": 360, "pitch": 67, "duration": 18, "velocity": 88}, {"time": 360, "pitch": 72, "duration": 18, "velocity": 91}, {"time": 366, "pitch": 48, "duration": 6, "velocity": 88}, {"time": 372, "pitch": 36, "duration": 7, "velocity": 94}, {"time": 378, "pitch": 48, "duration": 3, "velocity": 88}, {"time": 384, "pitch": 41, "duration": 7, "velocity": 98}, {"time": 384, "pitch": 60, "duration": 14, "velocity": 86}, {"time": 384, "pitch": 65, "duration": 16, "velocity": 91}, {"time": 384, "pitch": 69, "duration": 14, "velocity": 88}, {"time": 390, "pitch": 53, "duration": 6, "velocity": 86}, {"time": 396, "pitch": 41, "duration": 7, "velocity": 96}, {"time": 402, "pitch": 53, "duration": 6, "velocity": 92}, {"time": 402, "pitch": 62, "duration": 23, "velocity": 89}, {"time": 402, "pitch": 67, "duration": 23, "velocity": 89}, {"time": 402, "pitch": 70, "duration": 23, "velocity": 95}, {"time": 408, "pitch": 43, "duration": 7, "velocity": 84}, {"time": 414, "pitch": 55, "duration": 6, "velocity": 88}, {"time": 420, "pitch": 43, "duration": 7, "velocity": 96}, {"time": 426, "pitch": 55, "duration": 3, "velocity": 91}, {"time": 432, "pitch": 43, "duration": 6, "velocity": 91}, {"time": 432, "pitch": 62, "duration": 16, "velocity": 92}, {"time": 432, "pitch": 67, "duration": 17, "velocity": 91}, {"time": 432, "pitch": 70, "duration": 16, "velocity": 86}, {"time": 438, "pitch": 55, "duration": 6, "velocity": 87}, {"time": 444, "pitch": 43, "duration": 6, "velocity": 92}, {"time": 450, "pitch": 55, "duration": 6, "velocity": 92}, {"time": 450, "pitch": 62, "duration": 22, "velocity": 90}, {"time": 450, "pitch": 67, "duration": 23, "velocity": 88}, {"time": 450, "pitch": 70, "duration": 24, "velocity": 86}, {"time": 456, "pitch": 43, "duration": 6, "velocity": 88}, {"time": 462, "pitch": 55, "duration": 6, "velocity": 89}, {"time": 468, "pitch": 43, "duration": 7, "velocity": 96}, {"time": 474, "pitch": 55, "duration": 2, "velocity": 98}, {"time": 480, "pitch": 39, "duration": 6, "velocity": 100}, {"time": 480, "pitch": 63, "duration": 16, "velocity": 89}, {"time": 480, "pitch": 67, "duration": 16, "velocity": 94}, {"time": 480, "pitch": 70, "duration": 16, "velocity": 95}, {"time": 486, "pitch": 51, "duration": 7, "velocity": 84}, {"time": 492, "pitch": 39, "duration": 6, "velocity": 106}, {"time": 498, "pitch": 51, "duration": 6, "velocity": 85}, {"time": 498, "pitch": 63, "duration": 15, "velocity": 88}, {"time": 498, "pitch": 67, "duration": 15, "velocity": 98}, {"time": 498, "pitch": 70, "duration": 16, "velocity": 87}, {"time": 504, "pitch": 39, "duration": 6, "velocity": 100}, {"time": 510, "pitch": 51, "duration": 6, "velocity": 91}, {"time": 516, "pitch": 39, "duration": 7, "velocity": 103}, {"time": 516, "pitch": 63, "duration": 4, "velocity": 86}, {"time": 516, "pitch": 67, "duration": 6, "velocity": 94}, {"time": 516, "pitch": 70, "duration": 4, "velocity": 86}, {"time": 522, "pitch": 51, "duration": 3, "velocity": 97}, {"time": 528, "pitch": 41, "duration": 7, "velocity": 102}, {"time": 528, "pitch": 60, "duration": 16, "velocity": 88}, {"time": 528, "pitch": 65, "duration": 16, "velocity": 94}, {"time": 528, "pitch": 69, "duration": 17, "velocity": 94}, {"time": 534, "pitch": 53, "duration": 6, "velocity": 87}, {"time": 540, "pitch": 41, "duration": 6, "velocity": 104}, {"time": 546, "pitch": 53, "duration": 6, "velocity": 87}, {"time": 546, "pitch": 60, "duration": 15, "velocity": 88}, {"time": 546, "pitch": 65, "duration": 15, "velocity": 107}, {"time": 546, "pitch": 69, "duration": 17, "velocity": 92}, {"time": 552, "pitch": 41, "duration": 7, "velocity": 102}, {"time": 558, "pitch": 53, "duration": 6, "velocity": 87}, {"time": 564, "pitch": 41, "duration": 7, "velocity": 91}, {"time": 564, "pitch": 60, "duration": 5, "velocity": 89}, {"time": 564, "pitch": 65, "duration": 3, "velocity": 89}, {"time": 564, "pitch": 69, "duration": 3, "velocity": 84}, {"time": 570, "pitch": 53, "duration": 4, "velocity": 94}, {"time": 570, "pitch": 62, "duration": 3, "velocity": 73}, {"time": 576, "pitch": 43, "duration": 6, "velocity": 91}, {"time": 576, "pitch": 58, "duration": 16, "velocity": 86}, {"time": 576, "pitch": 62, "duration": 15, "velocity": 93}, {"time": 576, "pitch": 67, "duration": 14, "velocity": 94}, {"time": 582, "pitch": 55, "duration": 6, "velocity": 89}, {"time": 588, "pitch": 43, "duration": 6, "velocity": 93}, {"time": 594, "pitch": 55, "duration": 6, "velocity": 93}, {"time": 594, "pitch": 58, "duration": 24, "velocity": 87}, {"time": 594, "pitch": 62, "duration": 24, "velocity": 96}, {"time": 594, "pitch": 67, "duration": 24, "velocity": 98}, {"time": 600, "pitch": 43, "duration": 7, "velocity": 92}, {"time": 606, "pitch": 55, "duration": 6, "velocity": 90}, {"time": 612, "pitch": 43, "duration": 6, "velocity": 102}, {"time": 618, "pitch": 55, "duration": 6, "velocity": 98}, {"time": 624, "pitch": 43, "duration": 6, "velocity": 108}, {"time": 624, "pitch": 58, "duration": 14, "velocity": 89}, {"time": 624, "pitch": 62, "duration": 13, "velocity": 102}, {"time": 624, "pitch": 67, "duration": 13, "velocity": 107}, {"time": 630, "pitch": 55, "duration": 6, "velocity": 88}, {"time": 636, "pitch": 43, "duration": 6, "velocity": 100}, {"time": 642, "pitch": 55, "duration": 6, "velocity": 92}, {"time": 642, "pitch": 58, "duration": 13, "velocity": 86}, {"time": 642, "pitch": 62, "duration": 14, "velocity": 94}, {"time": 642, "pitch": 67, "duration": 14, "velocity": 93}, {"time": 648, "pitch": 43, "duration": 7, "velocity": 104}, {"time": 654, "pitch": 55, "duration": 6, "velocity": 90}, {"time": 660, "pitch": 43, "duration": 7, "velocity": 104}, {"time": 660, "pitch": 58, "duration": 8, "velocity": 95}, {"time": 660, "pitch": 62, "duration": 9, "velocity": 107}, {"time": 660, "pitch": 67, "duration": 7, "velocity": 104}, {"time": 666, "pitch": 55, "duration": 3, "velocity": 98}, {"time": 672, "pitch": 39, "duration": 7, "velocity": 103}, {"time": 672, "pitch": 58, "duration": 15, "velocity": 88}, {"time": 672, "pitch": 63, "duration": 15, "velocity": 90}, {"time": 672, "pitch": 67, "duration": 15, "velocity": 98}, {"time": 678, "pitch": 51, "duration": 6, "velocity": 84}, {"time": 684, "pitch": 39, "duration": 6, "velocity": 97}, {"time": 690, "pitch": 51, "duration": 6, "velocity": 87}, {"time": 690, "pitch": 58, "duration": 13, "velocity": 91}, {"time": 690, "pitch": 63, "duration": 13, "velocity": 90}, {"time": 690, "pitch": 67, "duration": 13, "velocity": 96}, {"time": 696, "pitch": 39, "duration": 6, "velocity": 100}, {"time": 702, "pitch": 51, "duration": 5, "velocity": 95}, {"time": 708, "pitch": 39, "duration": 6, "velocity": 103}, {"time": 708, "pitch": 58, "duration": 4, "velocity": 100}, {"time": 708, "pitch": 63, "duration": 6, "velocity": 93}, {"time": 708, "pitch": 67, "duration": 6, "velocity": 107}, {"time": 714, "pitch": 51, "duration": 4, "velocity": 106}, {"time": 720, "pitch": 41, "duration": 7, "velocity": 100}, {"time": 720, "pitch": 57, "duration": 16, "velocity": 90}, {"time": 720, "pitch": 60, "duration": 16, "velocity": 94}, {"time": 720, "pitch": 65, "duration": 15, "velocity": 98}, {"time": 726, "pitch": 53, "duration": 6, "velocity": 93}, {"time": 732, "pitch": 41, "duration": 6, "velocity": 100}, {"time": 738, "pitch": 53, "duration": 6, "velocity": 93}, {"time": 738, "pitch": 57, "duration": 14, "velocity": 89}, {"time": 738, "pitch": 60, "duration": 14, "velocity": 102}, {"time": 738, "pitch": 65, "duration": 13, "velocity": 102}, {"time": 744, "pitch": 41, "duration": 6, "velocity": 104}, {"time": 750, "pitch": 53, "duration": 6, "velocity": 91}, {"time": 756, "pitch": 41, "duration": 7, "velocity": 102}, {"time": 756, "pitch": 57, "duration": 3, "velocity": 96}, {"time": 756, "pitch": 60, "duration": 4, "velocity": 102}, {"time": 756, "pitch": 65, "duration": 4, "velocity": 98}, {"time": 762, "pitch": 53, "duration": 6, "velocity": 100}, {"time": 768, "pitch": 43, "duration": 7, "velocity": 91}, {"time": 768, "pitch": 58, "duration": 14, "velocity": 86}, {"time": 768, "pitch": 62, "duration": 11, "velocity": 98}, {"time": 768, "pitch": 67, "duration": 9, "velocity": 92}, {"time": 774, "pitch": 55, "duration": 7, "velocity": 92}, {"time": 780, "pitch": 43, "duration": 6, "velocity": 104}, {"time": 786, "pitch": 55, "duration": 6, "velocity": 94}, {"time": 786, "pitch": 58, "duration": 12, "velocity": 90}, {"time": 786, "pitch": 62, "duration": 12, "velocity": 107}, {"time": 786, "pitch": 67, "duration": 11, "velocity": 98}, {"time": 792, "pitch": 43, "duration": 7, "velocity": 104}, {"time": 798, "pitch": 55, "duration": 6, "velocity": 92}, {"time": 804, "pitch": 43, "duration": 7, "velocity": 102}, {"time": 810, "pitch": 55, "duration": 5, "velocity": 93}, {"time": 816, "pitch": 43, "duration": 6, "velocity": 107}, {"time": 816, "pitch": 62, "duration": 15, "velocity": 92}, {"time": 816, "pitch": 67, "duration": 16, "velocity": 91}, {"time": 816, "pitch": 70, "duration": 15, "velocity": 88}, {"time": 822, "pitch": 55, "duration": 6, "velocity": 91}, {"time": 828, "pitch": 43, "duration": 6, "velocity": 102}, {"time": 834, "pitch": 55, "duration": 6, "velocity": 98}, {"time": 834, "pitch": 62, "duration": 14, "velocity": 100}, {"time": 834, "pitch": 67, "duration": 15, "velocity": 93}, {"time": 834, "pitch": 70, "duration": 14, "velocity": 87}, {"time": 840, "pitch": 43, "duration": 7, "velocity": 107}, {"time": 846, "pitch": 55, "duration": 6, "velocity": 96}, {"time": 852, "pitch": 43, "duration": 7, "velocity": 108}, {"time": 852, "pitch": 62, "duration": 8, "velocity": 98}, {"time": 852, "pitch": 67, "duration": 5, "velocity": 93}, {"time": 852, "pitch": 70, "duration": 1, "velocity": 83}, {"time": 858, "pitch": 55, "duration": 3, "velocity": 107}, {"time": 864, "pitch": 41, "duration": 7, "velocity": 96}, {"time": 864, "pitch": 60, "duration": 15, "velocity": 91}, {"time": 864, "pitch": 65, "duration": 16, "velocity": 100}, {"time": 864, "pitch": 69, "duration": 15, "velocity": 91}, {"time": 870, "pitch": 53, "duration": 6, "velocity": 90}, {"time": 876, "pitch": 41, "duration": 7, "velocity": 96}, {"time": 882, "pitch": 53, "duration": 6, "velocity": 91}, {"time": 882, "pitch": 60, "duration": 14, "velocity": 91}, {"time": 882, "pitch": 65, "duration": 15, "velocity": 94}, {"time": 882, "pitch": 69, "duration": 14, "velocity": 91}, {"time": 888, "pitch": 41, "duration": 7, "velocity": 100}, {"time": 894, "pitch": 53, "duration": 6, "velocity": 98}, {"time": 900, "pitch": 41, "duration": 7, "velocity": 102}, {"time": 900, "pitch": 60, "duration": 6, "velocity": 92}, {"time": 900, "pitch": 65, "duration": 8, "velocity": 92}, {"time": 900, "pitch": 69, "duration": 7, "velocity": 90}, {"time": 906, "pitch": 53, "duration": 3, "velocity": 102}, {"time": 912, "pitch": 38, "duration": 6, "velocity": 92}, {"time": 912, "pitch": 62, "duration": 14, "velocity": 92}, {"time": 912, "pitch": 65, "duration": 15, "velocity": 107}, {"time": 912, "pitch": 69, "duration": 13, "velocity": 98}, {"time": 918, "pitch": 50, "duration": 6, "velocity": 89}, {"time": 924, "pitch": 38, "duration": 7, "velocity": 107}, {"time": 930, "pitch": 50, "duration": 6, "velocity": 92}, {"time": 930, "pitch": 62, "duration": 15, "velocity": 98}, {"time": 930, "pitch": 65, "duration": 14, "velocity": 104}, {"time": 930, "pitch": 69, "duration": 14, "velocity": 94}, {"time": 936, "pitch": 38, "duration": 7, "velocity": 98}, {"time": 942, "pitch": 50, "duration": 6, "velocity": 94}, {"time": 948, "pitch": 38, "duration": 7, "velocity": 104}, {"time": 948, "pitch": 62, "duration": 10, "velocity": 98}, {"time": 948, "pitch": 65, "duration": 5, "velocity": 104}, {"time": 948, "pitch": 69, "duration": 5, "velocity": 91}, {"time": 954, "pitch": 50, "duration": 3, "velocity": 110}, {"time": 960, "pitch": 43, "duration": 7, "velocity": 93}, {"time": 960, "pitch": 58, "duration": 16, "velocity": 103}, {"time": 960, "pitch": 62, "duration": 16, "velocity": 98}, {"time": 960, "pitch": 67, "duration": 16, "velocity": 107}, {"time": 966, "pitch": 55, "duration": 6, "velocity": 93}, {"time": 972, "pitch": 43, "duration": 6, "velocity": 96}, {"time": 978, "pitch": 55, "duration": 6, "velocity": 91}, {"time": 978, "pitch": 58, "duration": 14, "velocity": 95}, {"time": 978, "pitch": 62, "duration": 13, "velocity": 102}, {"time": 978, "pitch": 67, "duration": 13, "velocity": 108}, {"time": 984, "pitch": 43, "duration": 7, "velocity": 98}, {"time": 990, "pitch": 55, "duration": 6, "velocity": 92}, {"time": 996, "pitch": 43, "duration": 7, "velocity": 104}, {"time": 996, "pitch": 58, "duration": 5, "velocity": 91}, {"time": 996, "pitch": 62, "duration": 5, "velocity": 100}, {"time": 996, "pitch": 67, "duration": 6, "velocity": 98}, {"time": 1002, "pitch": 55, "duration": 2, "velocity": 98}, {"time": 1008, "pitch": 39, "duration": 7, "velocity": 106}, {"time": 1008, "pitch": 63, "duration": 15, "velocity": 95}, {"time": 1008, "pitch": 67, "duration": 14, "velocity": 113}, {"time": 1008, "pitch": 70, "duration": 15, "velocity": 86}, {"time": 1014, "pitch": 51, "duration": 6, "velocity": 97}, {"time": 1020, "pitch": 39, "duration": 7, "velocity": 106}, {"time": 1026, "pitch": 51, "duration": 5, "velocity": 87}, {"time": 1026, "pitch": 63, "duration": 13, "velocity": 100}, {"time": 1026, "pitch": 67, "duration": 13, "velocity": 110}, {"time": 1026, "pitch": 70, "duration": 14, "velocity": 97}, {"time": 1032, "pitch": 39, "duration": 7, "velocity": 106}, {"time": 1038, "pitch": 51, "duration": 6, "velocity": 100}, {"time": 1044, "pitch": 39, "duration": 7, "velocity": 106}, {"time": 1044, "pitch": 63, "duration": 6, "velocity": 100}, {"time": 1044, "pitch": 67, "duration": 6, "velocity": 114}, {"time": 1044, "pitch": 70, "duration": 7, "velocity": 95}, {"time": 1050, "pitch": 51, "duration": 3, "velocity": 106}, {"time": 1056, "pitch": 41, "duration": 6, "velocity": 98}, {"time": 1056, "pitch": 60, "duration": 16, "velocity": 94}, {"time": 1056, "pitch": 65, "duration": 16, "velocity": 100}, {"time": 1056, "pitch": 69, "duration": 15, "velocity": 92}, {"time": 1062, "pitch": 53, "duration": 5, "velocity": 89}, {"time": 1068, "pitch": 41, "duration": 6, "velocity": 102}, {"time": 1074, "pitch": 53, "duration": 5, "velocity": 93}, {"time": 1074, "pitch": 60, "duration": 15, "velocity": 96}, {"time": 1074, "pitch": 65, "duration": 15, "velocity": 104}, {"time": 1074, "pitch": 69, "duration": 15, "velocity": 94}, {"time": 1080, "pitch": 41, "duration": 7, "velocity": 104}, {"time": 1086, "pitch": 53, "duration": 6, "velocity": 96}, {"time": 1092, "pitch": 41, "duration": 8, "velocity": 100}, {"time": 1092, "pitch": 60, "duration": 7, "velocity": 94}, {"time": 1092, "pitch": 65, "duration": 8, "velocity": 98}, {"time": 1092, "pitch": 69, "duration": 8, "velocity": 89}, {"time": 1098, "pitch": 53, "duration": 2, "velocity": 100}, {"time": 1104, "pitch": 38, "duration": 7, "velocity": 104}, {"time": 1104, "pitch": 62, "duration": 15, "velocity": 92}, {"time": 1104, "pitch": 65, "duration": 15, "velocity": 110}, {"time": 1104, "pitch": 69, "duration": 15, "velocity": 100}, {"time": 1110, "pitch": 50, "duration": 5, "velocity": 94}, {"time": 1116, "pitch": 38, "duration": 6, "velocity": 108}, {"time": 1122, "pitch": 50, "duration": 5, "velocity": 96}, {"time": 1122, "pitch": 62, "duration": 16, "velocity": 104}, {"time": 1122, "pitch": 65, "duration": 15, "velocity": 108}, {"time": 1122, "pitch": 69, "duration": 15, "velocity": 90}, {"time": 1128, "pitch": 38, "duration": 7, "velocity": 96}, {"time": 1134, "pitch": 50, "duration": 5, "velocity": 98}, {"time": 1140, "pitch": 38, "duration": 6, "velocity": 110}, {"time": 1140, "pitch": 62, "duration": 9, "velocity": 102}, {"time": 1140, "pitch": 65, "duration": 4, "velocity": 107}, {"time": 1140, "pitch": 69, "duration": 4, "velocity": 88}, {"time": 1146, "pitch": 50, "duration": 3, "velocity": 108}, {"time": 1152, "pitch": 43, "duration": 7, "velocity": 94}, {"time": 1152, "pitch": 58, "duration": 16, "velocity": 100}, {"time": 1152, "pitch": 62, "duration": 16, "velocity": 102}, {"time": 1152, "pitch": 67, "duration": 15, "velocity": 107}, {"time": 1158, "pitch": 55, "duration": 6, "velocity": 89}, {"time": 1164, "pitch": 43, "duration": 7, "velocity": 102}, {"time": 1170, "pitch": 55, "duration": 6, "velocity": 89}, {"time": 1170, "pitch": 58, "duration": 13, "velocity": 91}, {"time": 1170, "pitch": 62, "duration": 13, "velocity": 108}, {"time": 1170, "pitch": 67, "duration": 12, "velocity": 107}, {"time": 1176, "pitch": 43, "duration": 7, "velocity": 100}, {"time": 1182, "pitch": 55, "duration": 6, "velocity": 91}, {"time": 1188, "pitch": 43, "duration": 7, "velocity": 100}, {"time": 1188, "pitch": 58, "duration": 7, "velocity": 93}, {"time": 1188, "pitch": 62, "duration": 8, "velocity": 100}, {"time": 1188, "pitch": 67, "duration": 6, "velocity": 113}, {"time": 1194, "pitch": 55, "duration": 6, "velocity": 94}, {"time": 1200, "pitch": 43, "duration": 7, "velocity": 107}, {"time": 1200, "pitch": 58, "duration": 14, "velocity": 103}, {"time": 1200, "pitch": 62, "duration": 14, "velocity": 113}, {"time": 1200, "pitch": 67, "duration": 12, "velocity": 108}, {"time": 1206, "pitch": 55, "duration": 6, "velocity": 92}, {"time": 1212, "pitch": 43, "duration": 6, "velocity": 98}, {"time": 1218, "pitch": 55, "duration": 6, "velocity": 90}, {"time": 1218, "pitch": 58, "duration": 13, "velocity": 100}, {"time": 1218, "pitch": 62, "duration": 14, "velocity": 108}, {"time": 1218, "pitch": 67, "duration": 13, "velocity": 110}, {"time": 1224, "pitch": 43, "duration": 7, "velocity": 98}, {"time": 1230, "pitch": 55, "duration": 6, "velocity": 92}, {"time": 1236, "pitch": 43, "duration": 7, "velocity": 102}, {"time": 1236, "pitch": 58, "duration": 7, "velocity": 97}, {"time": 1236, "pitch": 62, "duration": 9, "velocity": 102}, {"time": 1236, "pitch": 67, "duration": 6, "velocity": 107}, {"time": 1242, "pitch": 55, "duration": 4, "velocity": 96}, {"time": 1248, "pitch": 39, "duration": 7, "velocity": 106}, {"time": 1248, "pitch": 58, "duration": 15, "velocity": 109}, {"time": 1248, "pitch": 63, "duration": 15, "velocity": 109}, {"time": 1248, "pitch": 67, "duration": 14, "velocity": 113}, {"time": 1254, "pitch": 51, "duration": 6, "velocity": 88}, {"time": 1260, "pitch": 39, "duration": 6, "velocity": 100}, {"time": 1266, "pitch": 51, "duration": 6, "velocity": 87}, {"time": 1266, "pitch": 58, "duration": 14, "velocity": 103}, {"time": 1266, "pitch": 63, "duration": 14, "velocity": 100}, {"time": 1266, "pitch": 67, "duration": 13, "velocity": 116}, {"time": 1272, "pitch": 39, "duration": 7, "velocity": 100}, {"time": 1278, "pitch": 51, "duration": 6, "velocity": 103}, {"time": 1284, "pitch": 39, "duration": 8, "velocity": 103}, {"time": 1284, "pitch": 58, "duration": 5, "velocity": 106}, {"time": 1284, "pitch": 63, "duration": 9, "velocity": 106}, {"time": 1284, "pitch": 67, "duration": 5, "velocity": 107}, {"time": 1290, "pitch": 51, "duration": 4, "velocity": 109}, {"time": 1296, "pitch": 41, "duration": 6, "velocity": 104}, {"time": 1296, "pitch": 57, "duration": 15, "velocity": 94}, {"time": 1296, "pitch": 60, "duration": 15, "velocity": 104}, {"time": 1296, "pitch": 65, "duration": 14, "velocity": 108}, {"time": 1302, "pitch": 53, "duration": 5, "velocity": 88}, {"time": 1308, "pitch": 41, "duration": 7, "velocity": 102}, {"time": 1314, "pitch": 53, "duration": 7, "velocity": 100}, {"time": 1314, "pitch": 57, "duration": 14, "velocity": 102}, {"time": 1314, "pitch": 60, "duration": 15, "velocity": 113}, {"time": 1314, "pitch": 65, "duration": 14, "velocity": 104}, {"time": 1320, "pitch": 41, "duration": 7, "velocity": 100}, {"time": 1326, "pitch": 53, "duration": 5, "velocity": 98}, {"time": 1332, "pitch": 41, "duration": 8, "velocity": 104}, {"time": 1332, "pitch": 57, "duration": 8, "velocity": 102}, {"time": 1332, "pitch": 60, "duration": 10, "velocity": 98}, {"time": 1332, "pitch": 65, "duration": 8, "velocity": 94}, {"time": 1338, "pitch": 53, "duration": 4, "velocity": 104}, {"time": 1344, "pitch": 46, "duration": 7, "velocity": 87}, {"time": 1344, "pitch": 62, "duration": 11, "velocity": 114}, {"time": 1344, "pitch": 65, "duration": 15, "velocity": 108}, {"time": 1350, "pitch": 58, "duration": 7, "velocity": 86}, {"time": 1356, "pitch": 46, "duration": 7, "velocity": 87}, {"time": 1362, "pitch": 58, "duration": 7, "velocity": 87}, {"time": 1362, "pitch": 62, "duration": 15, "velocity": 113}, {"time": 1362, "pitch": 65, "duration": 14, "velocity": 113}, {"time": 1368, "pitch": 46, "duration": 6, "velocity": 91}, {"time": 1374, "pitch": 58, "duration": 6, "velocity": 85}, {"time": 1380, "pitch": 46, "duration": 7, "velocity": 93}, {"time": 1380, "pitch": 62, "duration": 9, "velocity": 116}, {"time": 1380, "pitch": 65, "duration": 6, "velocity": 116}, {"time": 1386, "pitch": 58, "duration": 4, "velocity": 91}, {"time": 1392, "pitch": 39, "duration": 7, "velocity": 100}, {"time": 1392, "pitch": 63, "duration": 8, "velocity": 97}, {"time": 1392, "pitch": 67, "duration": 8, "velocity": 114}, {"time": 1392, "pitch": 70, "duration": 8, "velocity": 97}, {"time": 1398, "pitch": 51, "duration": 5, "velocity": 86}, {"time": 1404, "pitch": 39, "duration": 7, "velocity": 103}, {"time": 1404, "pitch": 63, "duration": 5, "velocity": 91}, {"time": 1404, "pitch": 67, "duration": 5, "velocity": 110}, {"time": 1404, "pitch": 70, "duration": 5, "velocity": 83}, {"time": 1410, "pitch": 51, "duration": 3, "velocity": 90}, {"time": 1410, "pitch": 66, "duration": 1, "velocity": 74}, {"time": 1416, "pitch": 41, "duration": 7, "velocity": 100}, {"time": 1416, "pitch": 60, "duration": 12, "velocity": 87}, {"time": 1416, "pitch": 65, "duration": 12, "velocity": 100}, {"time": 1416, "pitch": 69, "duration": 11, "velocity": 94}, {"time": 1422, "pitch": 53, "duration": 6, "velocity": 88}, {"time": 1428, "pitch": 41, "duration": 7, "velocity": 100}, {"time": 1434, "pitch": 53, "duration": 3, "velocity": 100}, {"time": 1434, "pitch": 60, "duration": 3, "velocity": 86}, {"time": 1434, "pitch": 65, "duration": 3, "velocity": 88}, {"time": 1434, "pitch": 69, "duration": 3, "velocity": 87}, {"time": 1440, "pitch": 38, "duration": 6, "velocity": 104}, {"time": 1440, "pitch": 62, "duration": 14, "velocity": 104}, {"time": 1440, "pitch": 65, "duration": 14, "velocity": 110}, {"time": 1440, "pitch": 69, "duration": 15, "velocity": 104}, {"time": 1446, "pitch": 50, "duration": 5, "velocity": 91}, {"time": 1452, "pitch": 38, "duration": 7, "velocity": 104}, {"time": 1458, "pitch": 50, "duration": 4, "velocity": 104}, {"time": 1458, "pitch": 62, "duration": 3, "velocity": 85}, {"time": 1458, "pitch": 65, "duration": 4, "velocity": 91}, {"time": 1458, "pitch": 69, "duration": 3, "velocity": 87}, {"time": 1464, "pitch": 43, "duration": 6, "velocity": 92}, {"time": 1464, "pitch": 62, "duration": 9, "velocity": 100}, {"time": 1464, "pitch": 67, "duration": 9, "velocity": 113}, {"time": 1464, "pitch": 70, "duration": 8, "velocity": 113}, {"time": 1470, "pitch": 55, "duration": 5, "velocity": 92}, {"time": 1476, "pitch": 43, "duration": 7, "velocity": 107}, {"time": 1476, "pitch": 62, "duration": 6, "velocity": 100}, {"time": 1476, "pitch": 67, "duration": 6, "velocity": 102}, {"time": 1476, "pitch": 70, "duration": 7, "velocity": 97}, {"time": 1482, "pitch": 55, "duration": 4, "velocity": 102}, {"time": 1488, "pitch": 39, "duration": 7, "velocity": 103}, {"time": 1494, "pitch": 51, "duration": 6, "velocity": 88}, {"time": 1500, "pitch": 39, "duration": 7, "velocity": 100}, {"time": 1500, "pitch": 63, "duration": 20, "velocity": 97}, {"time": 1500, "pitch": 67, "duration": 19, "velocity": 113}, {"time": 1500, "pitch": 70, "duration": 20, "velocity": 91}, {"time": 1506, "pitch": 51, "duration": 6, "velocity": 88}, {"time": 1512, "pitch": 39, "duration": 7, "velocity": 103}, {"time": 1518, "pitch": 51, "duration": 6, "velocity": 90}, {"time": 1524, "pitch": 39, "duration": 7, "velocity": 106}, {"time": 1524, "pitch": 63, "duration": 6, "velocity": 103}, {"time": 1524, "pitch": 67, "duration": 6, "velocity": 114}, {"time": 1524, "pitch": 70, "duration": 6, "velocity": 86}, {"time": 1530, "pitch": 51, "duration": 3, "velocity": 109}, {"time": 1536, "pitch": 41, "duration": 7, "velocity": 108}, {"time": 1542, "pitch": 53, "duration": 5, "velocity": 93}, {"time": 1548, "pitch": 41, "duration": 6, "velocity": 104}, {"time": 1548, "pitch": 60, "duration": 1, "velocity": 80}, {"time": 1554, "pitch": 53, "duration": 5, "velocity": 96}, {"time": 1554, "pitch": 57, "duration": 7, "velocity": 96}, {"time": 1554, "pitch": 60, "duration": 13, "velocity": 108}, {"time": 1554, "pitch": 65, "duration": 12, "velocity": 98}, {"time": 1560, "pitch": 41, "duration": 7, "velocity": 107}, {"time": 1566, "pitch": 53, "duration": 5, "velocity": 107}, {"time": 1572, "pitch": 41, "duration": 7, "velocity": 107}, {"time": 1572, "pitch": 57, "duration": 6, "velocity": 107}, {"time": 1572, "pitch": 60, "duration": 9, "velocity": 113}, {"time": 1572, "pitch": 65, "duration": 8, "velocity": 107}, {"time": 1578, "pitch": 53, "duration": 5, "velocity": 108}, {"time": 1584, "pitch": 43, "duration": 7, "velocity": 98}, {"time": 1590, "pitch": 55, "duration": 6, "velocity": 91}, {"time": 1596, "pitch": 43, "duration": 7, "velocity": 104}, {"time": 1596, "pitch": 58, "duration": 17, "velocity": 106}, {"time": 1596, "pitch": 62, "duration": 18, "velocity": 107}, {"time": 1596, "pitch": 67, "duration": 17, "velocity": 91}, {"time": 1602, "pitch": 55, "duration": 6, "velocity": 94}, {"time": 1608, "pitch": 43, "duration": 7, "velocity": 102}, {"time": 1614, "pitch": 55, "duration": 6, "velocity": 102}, {"time": 1620, "pitch": 43, "duration": 7, "velocity": 108}, {"time": 1620, "pitch": 58, "duration": 8, "velocity": 100}, {"time": 1620, "pitch": 62, "duration": 11, "velocity": 110}, {"time": 1620, "pitch": 67, "duration": 10, "velocity": 104}, {"time": 1626, "pitch": 55, "duration": 6, "velocity": 91}, {"time": 1632, "pitch": 43, "duration": 7, "velocity": 107}, {"time": 1638, "pitch": 55, "duration": 5, "velocity": 92}, {"time": 1644, "pitch": 43, "duration": 7, "velocity": 108}, {"time": 1650, "pitch": 55, "duration": 6, "velocity": 94}, {"time": 1650, "pitch": 58, "duration": 13, "velocity": 91}, {"time": 1650, "pitch": 62, "duration": 12, "velocity": 104}, {"time": 1650, "pitch": 67, "duration": 12, "velocity": 94}, {"time": 1656, "pitch": 43, "duration": 7, "velocity": 102}, {"time": 1662, "pitch": 55, "duration": 6, "velocity": 98}, {"time": 1668, "pitch": 43, "duration": 7, "velocity": 108}, {"time": 1668, "pitch": 58, "duration": 9, "velocity": 93}, {"time": 1668, "pitch": 62, "duration": 10, "velocity": 113}, {"time": 1668, "pitch": 67, "duration": 10, "velocity": 108}, {"time": 1674, "pitch": 55, "duration": 3, "velocity": 107}, {"time": 1680, "pitch": 41, "duration": 7, "velocity": 90}, {"time": 1686, "pitch": 53, "duration": 6, "velocity": 88}, {"time": 1692, "pitch": 41, "duration": 7, "velocity": 93}, {"time": 1698, "pitch": 53, "duration": 6, "velocity": 92}, {"time": 1698, "pitch": 57, "duration": 14, "velocity": 104}, {"time": 1698, "pitch": 60, "duration": 14, "velocity": 110}, {"time": 1698, "pitch": 65, "duration": 14, "velocity": 94}, {"time": 1704, "pitch": 41, "duration": 7, "velocity": 93}, {"time": 1710, "pitch": 53, "duration": 5, "velocity": 92}, {"time": 1716, "pitch": 41, "duration": 7, "velocity": 102}, {"time": 1716, "pitch": 57, "duration": 9, "velocity": 102}, {"time": 1716, "pitch": 60, "duration": 13, "velocity": 114}, {"time": 1716, "pitch": 65, "duration": 12, "velocity": 100}, {"time": 1722, "pitch": 53, "duration": 3, "velocity": 100}, {"time": 1728, "pitch": 46, "duration": 7, "velocity": 88}, {"time": 1734, "pitch": 58, "duration": 6, "velocity": 88}, {"time": 1740, "pitch": 46, "duration": 6, "velocity": 89}, {"time": 1746, "pitch": 58, "duration": 6, "velocity": 86}, {"time": 1746, "pitch": 62, "duration": 13, "velocity": 104}, {"time": 1746, "pitch": 65, "duration": 13, "velocity": 114}, {"time": 1746, "pitch": 69, "duration": 14, "velocity": 96}, {"time": 1752, "pitch": 46, "duration": 7, "velocity": 90}, {"time": 1758, "pitch": 58, "duration": 7, "velocity": 86}, {"time": 1764, "pitch": 46, "duration": 7, "velocity": 91}, {"time": 1764, "pitch": 62, "duration": 12, "velocity": 110}, {"time": 1764, "pitch": 65, "duration": 12, "velocity": 114}, {"time": 1764, "pitch": 69, "duration": 12, "velocity": 102}, {"time": 1770, "pitch": 58, "duration": 3, "velocity": 93}, {"time": 1776, "pitch": 39, "duration": 7, "velocity": 95}, {"time": 1776, "pitch": 63, "duration": 16, "velocity": 97}, {"time": 1776, "pitch": 67, "duration": 22, "velocity": 113}, {"time": 1776, "pitch": 70, "duration": 18, "velocity": 95}, {"time": 1782, "pitch": 51, "duration": 6, "velocity": 85}, {"time": 1788, "pitch": 39, "duration": 7, "velocity": 100}, {"time": 1794, "pitch": 51, "duration": 3, "velocity": 95}, {"time": 1800, "pitch": 41, "duration": 6, "velocity": 87}, {"time": 1800, "pitch": 65, "duration": 13, "velocity": 89}, {"time": 1800, "pitch": 69, "duration": 11, "velocity": 100}, {"time": 1800, "pitch": 72, "duration": 12, "velocity": 92}, {"time": 1806, "pitch": 53, "duration": 6, "velocity": 87}, {"time": 1812, "pitch": 41, "duration": 7, "velocity": 98}, {"time": 1818, "pitch": 53, "duration": 4, "velocity": 104}, {"time": 1824, "pitch": 46, "duration": 8, "velocity": 84}, {"time": 1824, "pitch": 62, "duration": 16, "velocity": 91}, {"time": 1824, "pitch": 65, "duration": 37, "velocity": 107}, {"time": 1824, "pitch": 70, "duration": 21, "velocity": 103}, {"time": 1830, "pitch": 58, "duration": 8, "velocity": 86}, {"time": 1836, "pitch": 46, "duration": 7, "velocity": 86}, {"time": 1842, "pitch": 58, "duration": 7, "velocity": 85}, {"time": 1848, "pitch": 46, "duration": 7, "velocity": 83}, {"time": 1848, "pitch": 62, "duration": 13, "velocity": 91}, {"time": 1848, "pitch": 70, "duration": 13, "velocity": 82}, {"time": 1854, "pitch": 58, "duration": 7, "velocity": 86}, {"time": 1860, "pitch": 46, "duration": 7, "velocity": 87}, {"time": 1866, "pitch": 58, "duration": 3, "velocity": 87}, {"time": 1872, "pitch": 48, "duration": 7, "velocity": 91}, {"time": 1872, "pitch": 63, "duration": 14, "velocity": 109}, {"time": 1872, "pitch": 67, "duration": 14, "velocity": 107}, {"time": 1878, "pitch": 60, "duration": 6, "velocity": 89}, {"time": 1884, "pitch": 48, "duration": 8, "velocity": 93}, {"time": 1890, "pitch": 60, "duration": 2, "velocity": 93}, {"time": 1896, "pitch": 41, "duration": 7, "velocity": 92}, {"time": 1896, "pitch": 57, "duration": 13, "velocity": 92}, {"time": 1896, "pitch": 60, "duration": 13, "velocity": 104}, {"time": 1896, "pitch": 65, "duration": 13, "velocity": 93}, {"time": 1902, "pitch": 53, "duration": 6, "velocity": 88}, {"time": 1908, "pitch": 41, "duration": 7, "velocity": 92}, {"time": 1914, "pitch": 53, "duration": 5, "velocity": 94}, {"time": 1920, "pitch": 43, "duration": 7, "velocity": 91}, {"time": 1920, "pitch": 58, "duration": 14, "velocity": 86}, {"time": 1920, "pitch": 62, "duration": 13, "velocity": 96}, {"time": 1920, "pitch": 67, "duration": 12, "velocity": 96}, {"time": 1926, "pitch": 55, "duration": 6, "velocity": 87}, {"time": 1932, "pitch": 43, "duration": 7, "velocity": 90}, {"time": 1938, "pitch": 55, "duration": 6, "velocity": 91}, {"time": 1938, "pitch": 58, "duration": 14, "velocity": 91}, {"time": 1938, "pitch": 62, "duration": 14, "velocity": 104}, {"time": 1938, "pitch": 67, "duration": 14, "velocity": 102}, {"time": 1944, "pitch": 43, "duration": 6, "velocity": 96}, {"time": 1950, "pitch": 55, "duration": 6, "velocity": 92}, {"time": 1956, "pitch": 43, "duration": 6, "velocity": 107}, {"time": 1956, "pitch": 58, "duration": 12, "velocity": 89}, {"time": 1956, "pitch": 62, "duration": 12, "velocity": 96}, {"time": 1956, "pitch": 67, "duration": 12, "velocity": 96}, {"time": 1962, "pitch": 55, "duration": 5, "velocity": 100}, {"time": 1968, "pitch": 43, "duration": 6, "velocity": 98}, {"time": 1968, "pitch": 62, "duration": 1, "velocity": 91}, {"time": 1968, "pitch": 67, "duration": 17, "velocity": 92}, {"time": 1968, "pitch": 70, "duration": 16, "velocity": 88}, {"time": 1974, "pitch": 55, "duration": 6, "velocity": 93}, {"time": 1980, "pitch": 43, "duration": 6, "velocity": 98}, {"time": 1986, "pitch": 55, "duration": 6, "velocity": 98}, {"time": 1986, "pitch": 62, "duration": 25, "velocity": 96}, {"time": 1986, "pitch": 67, "duration": 26, "velocity": 96}, {"time": 1986, "pitch": 70, "duration": 25, "velocity": 88}, {"time": 1992, "pitch": 43, "duration": 6, "velocity": 102}, {"time": 1998, "pitch": 55, "duration": 6, "velocity": 107}, {"time": 2004, "pitch": 43, "duration": 6, "velocity": 107}, {"time": 2010, "pitch": 55, "duration": 6, "velocity": 107}, {"time": 2016, "pitch": 43, "duration": 6, "velocity": 102}, {"time": 2016, "pitch": 62, "duration": 17, "velocity": 92}, {"time": 2016, "pitch": 67, "duration": 17, "velocity": 91}, {"time": 2016, "pitch": 70, "duration": 17, "velocity": 87}, {"time": 2022, "pitch": 55, "duration": 6, "velocity": 107}, {"time": 2028, "pitch": 43, "duration": 6, "velocity": 102}, {"time": 2034, "pitch": 55, "duration": 6, "velocity": 107}, {"time": 2034, "pitch": 62, "duration": 16, "velocity": 93}, {"time": 2034, "pitch": 67, "duration": 16, "velocity": 92}, {"time": 2034, "pitch": 70, "duration": 16, "velocity": 87}, {"time": 2040, "pitch": 43, "duration": 6, "velocity": 100}, {"time": 2046, "pitch": 55, "duration": 3, "velocity": 116}, {"time": 2052, "pitch": 43, "duration": 3, "velocity": 116}, {"time": 2052, "pitch": 62, "duration": 5, "velocity": 89}, {"time": 2052, "pitch": 67, "duration": 4, "velocity": 89}, {"time": 2052, "pitch": 70, "duration": 4, "velocity": 79}, {"time": 2058, "pitch": 55, "duration": 3, "velocity": 116}, {"time": 2064, "pitch": 41, "duration": 6, "velocity": 93}, {"time": 2064, "pitch": 60, "duration": 17, "velocity": 90}, {"time": 2064, "pitch": 65, "duration": 18, "velocity": 92}, {"time": 2064, "pitch": 69, "duration": 17, "velocity": 89}, {"time": 2070, "pitch": 53, "duration": 6, "velocity": 87}, {"time": 2076, "pitch": 41, "duration": 7, "velocity": 96}, {"time": 2082, "pitch": 53, "duration": 6, "velocity": 90}, {"time": 2082, "pitch": 60, "duration": 27, "velocity": 91}, {"time": 2082, "pitch": 65, "duration": 28, "velocity": 92}, {"time": 2082, "pitch": 69, "duration": 27, "velocity": 91}, {"time": 2088, "pitch": 41, "duration": 7, "velocity": 96}, {"time": 2094, "pitch": 53, "duration": 6, "velocity": 89}, {"time": 2100, "pitch": 41, "duration": 7, "velocity": 102}, {"time": 2106, "pitch": 53, "duration": 4, "velocity": 93}, {"time": 2112, "pitch": 43, "duration": 6, "velocity": 92}, {"time": 2112, "pitch": 62, "duration": 16, "velocity": 87}, {"time": 2112, "pitch": 67, "duration": 16, "velocity": 88}, {"time": 2112, "pitch": 70, "duration": 16, "velocity": 85}, {"time": 2118, "pitch": 55, "duration": 6, "velocity": 89}, {"time": 2124, "pitch": 43, "duration": 7, "velocity": 94}, {"time": 2130, "pitch": 55, "duration": 6, "velocity": 91}, {"time": 2130, "pitch": 62, "duration": 19, "velocity": 88}, {"time": 2130, "pitch": 67, "duration": 19, "velocity": 89}, {"time": 2130, "pitch": 70, "duration": 20, "velocity": 86}, {"time": 2136, "pitch": 43, "duration": 7, "velocity": 96}, {"time": 2142, "pitch": 55, "duration": 6, "velocity": 90}, {"time": 2148, "pitch": 43, "duration": 6, "velocity": 104}, {"time": 2154, "pitch": 55, "duration": 3, "velocity": 96}, {"time": 2160, "pitch": 39, "duration": 6, "velocity": 103}, {"time": 2160, "pitch": 63, "duration": 16, "velocity": 86}, {"time": 2160, "pitch": 67, "duration": 15, "velocity": 91}, {"time": 2160, "pitch": 70, "duration": 16, "velocity": 86}, {"time": 2166, "pitch": 51, "duration": 6, "velocity": 90}, {"time": 2172, "pitch": 39, "duration": 7, "velocity": 97}, {"time": 2178, "pitch": 51, "duration": 6, "velocity": 91}, {"time": 2178, "pitch": 63, "duration": 21, "velocity": 87}, {"time": 2178, "pitch": 67, "duration": 22, "velocity": 98}, {"time": 2178, "pitch": 70, "duration": 22, "velocity": 85}, {"time": 2184, "pitch": 39, "duration": 7, "velocity": 95}, {"time": 2190, "pitch": 51, "duration": 6, "velocity": 97}, {"time": 2196, "pitch": 39, "duration": 8, "velocity": 103}, {"time": 2202, "pitch": 51, "duration": 4, "velocity": 100}, {"time": 2208, "pitch": 38, "duration": 7, "velocity": 92}, {"time": 2208, "pitch": 62, "duration": 13, "velocity": 88}, {"time": 2208, "pitch": 65, "duration": 16, "velocity": 91}, {"time": 2208, "pitch": 69, "duration": 13, "velocity": 89}, {"time": 2214, "pitch": 50, "duration": 6, "velocity": 87}, {"time": 2220, "pitch": 38, "duration": 5, "velocity": 108}, {"time": 2226, "pitch": 43, "duration": 10, "velocity": 86}, {"time": 2226, "pitch": 62, "duration": 9, "velocity": 92}, {"time": 2226, "pitch": 67, "duration": 10, "velocity": 91}, {"time": 2226, "pitch": 70, "duration": 7, "velocity": 88}, {"time": 2238, "pitch": 38, "duration": 3, "velocity": 87}, {"time": 2238, "pitch": 50, "duration": 4, "velocity": 91}, {"time": 2238, "pitch": 62, "duration": 3, "velocity": 84}, {"time": 2238, "pitch": 65, "duration": 3, "velocity": 88}, {"time": 2238, "pitch": 69, "duration": 3, "velocity": 84}, {"time": 2244, "pitch": 43, "duration": 8, "velocity": 91}, {"time": 2244, "pitch": 62, "duration": 7, "velocity": 88}, {"time": 2244, "pitch": 67, "duration": 8, "velocity": 91}, {"time": 2244, "pitch": 70, "duration": 8, "velocity": 89}, {"time": 2256, "pitch": 43, "duration": 6, "velocity": 96}, {"time": 2256, "pitch": 62, "duration": 17, "velocity": 89}, {"time": 2256, "pitch": 67, "duration": 17, "velocity": 91}, {"time": 2256, "pitch": 70, "duration": 17, "velocity": 87}, {"time": 2262, "pitch": 55, "duration": 7, "velocity": 88}, {"time": 2268, "pitch": 43, "duration": 7, "velocity": 98}, {"time": 2274, "pitch": 55, "duration": 4, "velocity": 91}, {"time": 2280, "pitch": 36, "duration": 7, "velocity": 98}, {"time": 2280, "pitch": 63, "duration": 18, "velocity": 88}, {"time": 2280, "pitch": 67, "duration": 18, "velocity": 88}, {"time": 2280, "pitch": 72, "duration": 18, "velocity": 91}, {"time": 2286, "pitch": 48, "duration": 6, "velocity": 88}, {"time": 2292, "pitch": 36, "duration": 7, "velocity": 94}, {"time": 2298, "pitch": 48, "duration": 3, "velocity": 88}, {"time": 2304, "pitch": 41, "duration": 7, "velocity": 98}, {"time": 2304, "pitch": 60, "duration": 14, "velocity": 86}, {"time": 2304, "pitch": 65, "duration": 16, "velocity": 91}, {"time": 2304, "pitch": 69, "duration": 14, "velocity": 88}, {"time": 2310, "pitch": 53, "duration": 6, "velocity": 86}, {"time": 2316, "pitch": 41, "duration": 7, "velocity": 96}, {"time": 2322, "pitch": 53, "duration": 6, "velocity": 92}, {"time": 2322, "pitch": 62, "duration": 23, "velocity": 89}, {"time": 2322, "pitch": 67, "duration": 23, "velocity": 89}, {"time": 2322, "pitch": 70, "duration": 23, "velocity": 95}, {"time": 2328, "pitch": 43, "duration": 7, "velocity": 84}, {"time": 2334, "pitch": 55, "duration": 6, "velocity": 88}, {"time": 2340, "pitch": 43, "duration": 7, "velocity": 96}, {"time": 2346, "pitch": 55, "duration": 3, "velocity": 91}, {"time": 2352, "pitch": 43, "duration": 6, "velocity": 91}, {"time": 2352, "pitch": 62, "duration": 16, "velocity": 92}, {"time": 2352, "pitch": 67, "duration": 17, "velocity": 91}, {"time": 2352, "pitch": 70, "duration": 16, "velocity": 86}, {"time": 2358, "pitch": 55, "duration": 6, "velocity": 87}, {"time": 2364, "pitch": 43, "duration": 6, "velocity": 92}, {"time": 2370, "pitch": 55, "duration": 6, "velocity": 92}, {"time": 2370, "pitch": 62, "duration": 22, "velocity": 90}, {"time": 2370, "pitch": 67, "duration": 23, "velocity": 88}, {"time": 2370, "pitch": 70, "duration": 24, "velocity": 86}, {"time": 2376, "pitch": 43, "duration": 6, "velocity": 88}, {"time": 2382, "pitch": 55, "duration": 6, "velocity": 89}, {"time": 2388, "pitch": 43, "duration": 7, "velocity": 96}, {"time": 2394, "pitch": 55, "duration": 2, "velocity": 98}, {"time": 2400, "pitch": 39, "duration": 6, "velocity": 100}, {"time": 2400, "pitch": 63, "duration": 16, "velocity": 89}, {"time": 2400, "pitch": 67, "duration": 16, "velocity": 94}, {"time": 2400, "pitch": 70, "duration": 16, "velocity": 95}, {"time": 2406, "pitch": 51, "duration": 7, "velocity": 84}, {"time": 2412, "pitch": 39, "duration": 6, "velocity": 106}, {"time": 2418, "pitch": 51, "duration": 6, "velocity": 85}, {"time": 2418, "pitch": 63, "duration": 15, "velocity": 88}, {"time": 2418, "pitch": 67, "duration": 15, "velocity": 98}, {"time": 2418, "pitch": 70, "duration": 16, "velocity": 87}, {"time": 2424, "pitch": 39, "duration": 6, "velocity": 100}, {"time": 2430, "pitch": 51, "duration": 6, "velocity": 91}, {"time": 2436, "pitch": 39, "duration": 7, "velocity": 103}, {"time": 2436, "pitch": 63, "duration": 4, "velocity": 86}, {"time": 2436, "pitch": 67, "duration": 6, "velocity": 94}, {"time": 2436, "pitch": 70, "duration": 4, "velocity": 86}, {"time": 2442, "pitch": 51, "duration": 3, "velocity": 97}, {"time": 2448, "pitch": 41, "duration": 7, "velocity": 102}, {"time": 2448, "pitch": 60, "duration": 16, "velocity": 88}, {"time": 2448, "pitch": 65, "duration": 16, "velocity": 94}, {"time": 2448, "pitch": 69, "duration": 17, "velocity": 94}, {"time": 2454, "pitch": 53, "duration": 6, "velocity": 87}, {"time": 2460, "pitch": 41, "duration": 6, "velocity": 104}, {"time": 2466, "pitch": 53, "duration": 6, "velocity": 87}, {"time": 2466, "pitch": 60, "duration": 15, "velocity": 88}, {"time": 2466, "pitch": 65, "duration": 15, "velocity": 107}, {"time": 2466, "pitch": 69, "duration": 17, "velocity": 92}, {"time": 2472, "pitch": 41, "duration": 7, "velocity": 102}, {"time": 2478, "pitch": 53, "duration": 6, "velocity": 87}, {"time": 2484, "pitch": 41, "duration": 7, "velocity": 91}, {"time": 2484, "pitch": 60, "duration": 5, "velocity": 89}, {"time": 2484, "pitch": 65, "duration": 3, "velocity": 89}, {"time": 2484, "pitch": 69, "duration": 3, "velocity": 84}, {"time": 2490, "pitch": 53, "duration": 4, "velocity": 94}, {"time": 2490, "pitch": 62, "duration": 3, "velocity": 73}, {"time": 2496, "pitch": 43, "duration": 6, "velocity": 91}, {"time": 2496, "pitch": 58, "duration": 16, "velocity": 86}, {"time": 2496, "pitch": 62, "duration": 15, "velocity": 93}, {"time": 2496, "pitch": 67, "duration": 14, "velocity": 94}, {"time": 2502, "pitch": 55, "duration": 6, "velocity": 89}, {"time": 2508, "pitch": 43, "duration": 6, "velocity": 93}, {"time": 2514, "pitch": 55, "duration": 6, "velocity": 93}, {"time": 2514, "pitch": 58, "duration": 24, "velocity": 87}, {"time": 2514, "pitch": 62, "duration": 24, "velocity": 96}, {"time": 2514, "pitch": 67, "duration": 24, "velocity": 98}, {"time": 2520, "pitch": 43, "duration": 7, "velocity": 92}, {"time": 2526, "pitch": 55, "duration": 6, "velocity": 90}, {"time": 2532, "pitch": 43, "duration": 6, "velocity": 102}, {"time": 2538, "pitch": 55, "duration": 6, "velocity": 98}, {"time": 2544, "pitch": 43, "duration": 6, "velocity": 108}, {"time": 2544, "pitch": 58, "duration": 14, "velocity": 89}, {"time": 2544, "pitch": 62, "duration": 13, "velocity": 102}, {"time": 2544, "pitch": 67, "duration": 13, "velocity": 107}, {"time": 2550, "pitch": 55, "duration": 6, "velocity": 88}, {"time": 2556, "pitch": 43, "duration": 6, "velocity": 100}, {"time": 2562, "pitch": 55, "duration": 6, "velocity": 92}, {"time": 2562, "pitch": 58, "duration": 13, "velocity": 86}, {"time": 2562, "pitch": 62, "duration": 14, "velocity": 94}, {"time": 2562, "pitch": 67, "duration": 14, "velocity": 93}, {"time": 2568, "pitch": 43, "duration": 7, "velocity": 104}, {"time": 2574, "pitch": 55, "duration": 6, "velocity": 90}, {"time": 2580, "pitch": 43, "duration": 7, "velocity": 104}, {"time": 2580, "pitch": 58, "duration": 8, "velocity": 95}, {"time": 2580, "pitch": 62, "duration": 9, "velocity": 107}, {"time": 2580, "pitch": 67, "duration": 7, "velocity": 104}, {"time": 2586, "pitch": 55, "duration": 3, "velocity": 98}, {"time": 2592, "pitch": 39, "duration": 7, "velocity": 103}, {"time": 2592, "pitch": 58, "duration": 15, "velocity": 88}, {"time": 2592, "pitch": 63, "duration": 15, "velocity": 90}, {"time": 2592, "pitch": 67, "duration": 15, "velocity": 98}, {"time": 2598, "pitch": 51, "duration": 6, "velocity": 84}, {"time": 2604, "pitch": 39, "duration": 6, "velocity": 97}, {"time": 2610, "pitch": 51, "duration": 6, "velocity": 87}, {"time": 2610, "pitch": 58, "duration": 13, "velocity": 91}, {"time": 2610, "pitch": 63, "duration": 13, "velocity": 90}, {"time": 2610, "pitch": 67, "duration": 13, "velocity": 96}, {"time": 2616, "pitch": 39, "duration": 6, "velocity": 100}, {"time": 2622, "pitch": 51, "duration": 5, "velocity": 95}, {"time": 2628, "pitch": 39, "duration": 6, "velocity": 103}, {"time": 2628, "pitch": 58, "duration": 4, "velocity": 100}, {"time": 2628, "pitch": 63, "duration": 6, "velocity": 93}, {"time": 2628, "pitch": 67, "duration": 6, "velocity": 107}, {"time": 2634, "pitch": 51, "duration": 4, "velocity": 106}, {"time": 2640, "pitch": 41, "duration": 7, "velocity": 100}, {"time": 2640, "pitch": 57, "duration": 16, "velocity": 90}, {"time": 2640, "pitch": 60, "duration": 16, "velocity": 94}, {"time": 2640, "pitch": 65, "duration": 15, "velocity": 98}, {"time": 2646, "pitch": 53, "duration": 6, "velocity": 93}, {"time": 2652, "pitch": 41, "duration": 6, "velocity": 100}, {"time": 2658, "pitch": 53, "duration": 6, "velocity": 93}, {"time": 2658, "pitch": 57, "duration": 14, "velocity": 89}, {"time": 2658, "pitch": 60, "duration": 14, "velocity": 102}, {"time": 2658, "pitch": 65, "duration": 13, "velocity": 102}, {"time": 2664, "pitch": 41, "duration": 6, "velocity": 104}, {"time": 2670, "pitch": 53, "duration": 6, "velocity": 91}, {"time": 2676, "pitch": 41, "duration": 7, "velocity": 102}, {"time": 2676, "pitch": 57, "duration": 3, "velocity": 96}, {"time": 2676, "pitch": 60, "duration": 4, "velocity": 102}, {"time": 2676, "pitch": 65, "duration": 4, "velocity": 98}, {"time": 2682, "pitch": 53, "duration": 6, "velocity": 100}, {"time": 2688, "pitch": 43, "duration": 7, "velocity": 91}, {"time": 2688, "pitch": 58, "duration": 14, "velocity": 86}, {"time": 2688, "pitch": 62, "duration": 11, "velocity": 98}, {"time": 2688, "pitch": 67, "duration": 9, "velocity": 92}, {"time": 2694, "pitch": 55, "duration": 7, "velocity": 92}, {"time": 2700, "pitch": 43, "duration": 6, "velocity": 104}, {"time": 2706, "pitch": 55, "duration": 6, "velocity": 94}, {"time": 2706, "pitch": 58, "duration": 12, "velocity": 90}, {"time": 2706, "pitch": 62, "duration": 12, "velocity": 107}, {"time": 2706, "pitch": 67, "duration": 11, "velocity": 98}, {"time": 2712, "pitch": 43, "duration": 7, "velocity": 104}, {"time": 2718, "pitch": 55, "duration": 6, "velocity": 92}, {"time": 2724, "pitch": 43, "duration": 7, "velocity": 102}, {"time": 2730, "pitch": 55, "duration": 5, "velocity": 93}, {"time": 2736, "pitch": 43, "duration": 6, "velocity": 107}, {"time": 2736, "pitch": 62, "duration": 15, "velocity": 92}, {"time": 2736, "pitch": 67, "duration": 16, "velocity": 91}, {"time": 2736, "pitch": 70, "duration": 15, "velocity": 88}, {"time": 2742, "pitch": 55, "duration": 6, "velocity": 91}, {"time": 2748, "pitch": 43, "duration": 6, "velocity": 102}, {"time": 2754, "pitch": 55, "duration": 6, "velocity": 98}, {"time": 2754, "pitch": 62, "duration": 14, "velocity": 100}, {"time": 2754, "pitch": 67, "duration": 15, "velocity": 93}, {"time": 2754, "pitch": 70, "duration": 14, "velocity": 87}, {"time": 2760, "pitch": 43, "duration": 7, "velocity": 107}, {"time": 2766, "pitch": 55, "duration": 6, "velocity": 96}, {"time": 2772, "pitch": 43, "duration": 7, "velocity": 108}, {"time": 2772, "pitch": 62, "duration": 8, "velocity": 98}, {"time": 2772, "pitch": 67, "duration": 5, "velocity": 93}, {"time": 2772, "pitch": 70, "duration": 1, "velocity": 83}, {"time": 2778, "pitch": 55, "duration": 3, "velocity": 107}, {"time": 2784, "pitch": 41, "duration": 7, "velocity": 96}, {"time": 2784, "pitch": 60, "duration": 15, "velocity": 91}, {"time": 2784, "pitch": 65, "duration": 16, "velocity": 100}, {"time": 2784, "pitch": 69, "duration": 15, "velocity": 91}, {"time": 2790, "pitch": 53, "duration": 6, "velocity": 90}, {"time": 2796, "pitch": 41, "duration": 7, "velocity": 96}, {"time": 2802, "pitch": 53, "duration": 6, "velocity": 91}, {"time": 2802, "pitch": 60, "duration": 14, "velocity": 91}, {"time": 2802, "pitch": 65, "duration": 15, "velocity": 94}, {"time": 2802, "pitch": 69, "duration": 14, "velocity": 91}, {"time": 2808, "pitch": 41, "duration": 7, "velocity": 100}, {"time": 2814, "pitch": 53, "duration": 6, "velocity": 98}, {"time": 2820, "pitch": 41, "duration": 7, "velocity": 102}, {"time": 2820, "pitch": 60, "duration": 6, "velocity": 92}, {"time": 2820, "pitch": 65, "duration": 8, "velocity": 92}, {"time": 2820, "pitch": 69, "duration": 7, "velocity": 90}, {"time": 2826, "pitch": 53, "duration": 3, "velocity": 102}, {"time": 2832, "pitch": 38, "duration": 6, "velocity": 92}, {"time": 2832, "pitch": 62, "duration": 14, "velocity": 92}, {"time": 2832, "pitch": 65, "duration": 15, "velocity": 107}, {"time": 2832, "pitch": 69, "duration": 13, "velocity": 98}, {"time": 2838, "pitch": 50, "duration": 6, "velocity": 89}, {"time": 2844, "pitch": 38, "duration": 7, "velocity": 107}, {"time": 2850, "pitch": 50, "duration": 6, "velocity": 92}, {"time": 2850, "pitch": 62, "duration": 15, "velocity": 98}, {"time": 2850, "pitch": 65, "duration": 14, "velocity": 104}, {"time": 2850, "pitch": 69, "duration": 14, "velocity": 94}, {"time": 2856, "pitch": 38, "duration": 7, "velocity": 98}, {"time": 2862, "pitch": 50, "duration": 6, "velocity": 94}, {"time": 2868, "pitch": 38, "duration": 7, "velocity": 104}, {"time": 2868, "pitch": 62, "duration": 10, "velocity": 98}, {"time": 2868, "pitch": 65, "duration": 5, "velocity": 104}, {"time": 2868, "pitch": 69, "duration": 5, "velocity": 91}, {"time": 2874, "pitch": 50, "duration": 3, "velocity": 110}, {"time": 2880, "pitch": 43, "duration": 7, "velocity": 93}, {"time": 2880, "pitch": 58, "duration": 16, "velocity": 103}, {"time": 2880, "pitch": 62, "duration": 16, "velocity": 98}, {"time": 2880, "pitch": 67, "duration": 16, "velocity": 107}, {"time": 2886, "pitch": 55, "duration": 6, "velocity": 93}, {"time": 2892, "pitch": 43, "duration": 6, "velocity": 96}, {"time": 2898, "pitch": 55, "duration": 6, "velocity": 91}, {"time": 2898, "pitch": 58, "duration": 14, "velocity": 95}, {"time": 2898, "pitch": 62, "duration": 13, "velocity": 102}, {"time": 2898, "pitch": 67, "duration": 13, "velocity": 108}, {"time": 2904, "pitch": 43, "duration": 7, "velocity": 98}, {"time": 2910, "pitch": 55, "duration": 6, "velocity": 92}, {"time": 2916, "pitch": 43, "duration": 7, "velocity": 104}, {"time": 2916, "pitch": 58, "duration": 5, "velocity": 91}, {"time": 2916, "pitch": 62, "duration": 5, "velocity": 100}, {"time": 2916, "pitch": 67, "duration": 6, "velocity": 98}, {"time": 2922, "pitch": 55, "duration": 2, "velocity": 98}, {"time": 2928, "pitch": 39, "duration": 7, "velocity": 106}, {"time": 2928, "pitch": 63, "duration": 15, "velocity": 95}, {"time": 2928, "pitch": 67, "duration": 14, "velocity": 113}, {"time": 2928, "pitch": 70, "duration": 15, "velocity": 86}, {"time": 2934, "pitch": 51, "duration": 6, "velocity": 97}, {"time": 2940, "pitch": 39, "duration": 7, "velocity": 106}, {"time": 2946, "pitch": 51, "duration": 5, "velocity": 87}, {"time": 2946, "pitch": 63, "duration": 13, "velocity": 100}, {"time": 2946, "pitch": 67, "duration": 13, "velocity": 110}, {"time": 2946, "pitch": 70, "duration": 14, "velocity": 97}, {"time": 2952, "pitch": 39, "duration": 7, "velocity": 106}, {"time": 2958, "pitch": 51, "duration": 6, "velocity": 100}, {"time": 2964, "pitch": 39, "duration": 7, "velocity": 106}, {"time": 2964, "pitch": 63, "duration": 6, "velocity": 100}, {"time": 2964, "pitch": 67, "duration": 6, "velocity": 114}, {"time": 2964, "pitch": 70, "duration": 7, "velocity": 95}, {"time": 2970, "pitch": 51, "duration": 3, "velocity": 106}, {"time": 2976, "pitch": 41, "duration": 6, "velocity": 98}, {"time": 2976, "pitch": 60, "duration": 16, "velocity": 94}, {"time": 2976, "pitch": 65, "duration": 16, "velocity": 100}, {"time": 2976, "pitch": 69, "duration": 15, "velocity": 92}, {"time": 2982, "pitch": 53, "duration": 5, "velocity": 89}, {"time": 2988, "pitch": 41, "duration": 6, "velocity": 102}, {"time": 2994, "pitch": 53, "duration": 5, "velocity": 93}, {"time": 2994, "pitch": 60, "duration": 15, "velocity": 96}, {"time": 2994, "pitch": 65, "duration": 15, "velocity": 104}, {"time": 2994, "pitch": 69, "duration": 15, "velocity": 94}, {"time": 3000, "pitch": 41, "duration": 7, "velocity": 104}, {"time": 3006, "pitch": 53, "duration": 6, "velocity": 96}, {"time": 3012, "pitch": 41, "duration": 8, "velocity": 100}, {"time": 3012, "pitch": 60, "duration": 7, "velocity": 94}, {"time": 3012, "pitch": 65, "duration": 8, "velocity": 98}, {"time": 3012, "pitch": 69, "duration": 8, "velocity": 89}, {"time": 3018, "pitch": 53, "duration": 2, "velocity": 100}, {"time": 3024, "pitch": 38, "duration": 7, "velocity": 104}, {"time": 3024, "pitch": 62, "duration": 15, "velocity": 92}, {"time": 3024, "pitch": 65, "duration": 15, "velocity": 110}, {"time": 3024, "pitch": 69, "duration": 15, "velocity": 100}, {"time": 3030, "pitch": 50, "duration": 5, "velocity": 94}, {"time": 3036, "pitch": 38, "duration": 6, "velocity": 108}, {"time": 3042, "pitch": 50, "duration": 5, "velocity": 96}, {"time": 3042, "pitch": 62, "duration": 16, "velocity": 104}, {"time": 3042, "pitch": 65, "duration": 15, "velocity": 108}, {"time": 3042, "pitch": 69, "duration": 15, "velocity": 90}, {"time": 3048, "pitch": 38, "duration": 7, "velocity": 96}, {"time": 3054, "pitch": 50, "duration": 5, "velocity": 98}, {"time": 3060, "pitch": 38, "duration": 6, "velocity": 110}, {"time": 3060, "pitch": 62, "duration": 9, "velocity": 102}, {"time": 3060, "pitch": 65, "duration": 4, "velocity": 107}, {"time": 3060, "pitch": 69, "duration": 4, "velocity": 88}, {"time": 3066, "pitch": 50, "duration": 3, "velocity": 108}, {"time": 3072, "pitch": 43, "duration": 7, "velocity": 94}, {"time": 3072, "pitch": 58, "duration": 16, "velocity": 100}, {"time": 3072, "pitch": 62, "duration": 16, "velocity": 102}, {"time": 3072, "pitch": 67, "duration": 15, "velocity": 107}, {"time": 3078, "pitch": 55, "duration": 6, "velocity": 89}, {"time": 3084, "pitch": 43, "duration": 7, "velocity": 102}, {"time": 3090, "pitch": 55, "duration": 6, "velocity": 89}, {"time": 3090, "pitch": 58, "duration": 13, "velocity": 91}, {"time": 3090, "pitch": 62, "duration": 13, "velocity": 108}, {"time": 3090, "pitch": 67, "duration": 12, "velocity": 107}, {"time": 3096, "pitch": 43, "duration": 7, "velocity": 100}, {"time": 3102, "pitch": 55, "duration": 6, "velocity": 91}, {"time": 3108, "pitch": 43, "duration": 7, "velocity": 100}, {"time": 3108, "pitch": 58, "duration": 7, "velocity": 93}, {"time": 3108, "pitch": 62, "duration": 8, "velocity": 100}, {"time": 3108, "pitch": 67, "duration": 6, "velocity": 113}, {"time": 3114, "pitch": 55, "duration": 6, "velocity": 94}, {"time": 3120, "pitch": 43, "duration": 7, "velocity": 107}, {"time": 3120, "pitch": 58, "duration": 14, "velocity": 103}, {"time": 3120, "pitch": 62, "duration": 14, "velocity": 113}, {"time": 3120, "pitch": 67, "duration": 12, "velocity": 108}, {"time": 3126, "pitch": 55, "duration": 6, "velocity": 92}, {"time": 3132, "pitch": 43, "duration": 6, "velocity": 98}, {"time": 3138, "pitch": 55, "duration": 6, "velocity": 90}, {"time": 3138, "pitch": 58, "duration": 13, "velocity": 100}, {"time": 3138, "pitch": 62, "duration": 14, "velocity": 108}, {"time": 3138, "pitch": 67, "duration": 13, "velocity": 110}, {"time": 3144, "pitch": 43, "duration": 7, "velocity": 98}, {"time": 3150, "pitch": 55, "duration": 6, "velocity": 92}, {"time": 3156, "pitch": 43, "duration": 7, "velocity": 102}, {"time": 3156, "pitch": 58, "duration": 7, "velocity": 97}, {"time": 3156, "pitch": 62, "duration": 9, "velocity": 102}, {"time": 3156, "pitch": 67, "duration": 6, "velocity": 107}, {"time": 3162, "pitch": 55, "duration": 4, "velocity": 96}, {"time": 3168, "pitch": 39, "duration": 7, "velocity": 106}, {"time": 3168, "pitch": 58, "duration": 15, "velocity": 109}, {"time": 3168, "pitch": 63, "duration": 15, "velocity": 109}, {"time": 3168, "pitch": 67, "duration": 14, "velocity": 113}, {"time": 3174, "pitch": 51, "duration": 6, "velocity": 88}, {"time": 3180, "pitch": 39, "duration": 6, "velocity": 100}, {"time": 3186, "pitch": 51, "duration": 6, "velocity": 87}, {"time": 3186, "pitch": 58, "duration": 14, "velocity": 103}, {"time": 3186, "pitch": 63, "duration": 14, "velocity": 100}, {"time": 3186, "pitch": 67, "duration": 13, "velocity": 116}, {"time": 3192, "pitch": 39, "duration": 7, "velocity": 100}, {"time": 3198, "pitch": 51, "duration": 6, "velocity": 103}, {"time": 3204, "pitch": 39, "duration": 8, "velocity": 103}, {"time": 3204, "pitch": 58, "duration": 5, "velocity": 106}, {"time": 3204, "pitch": 63, "duration": 9, "velocity": 106}, {"time": 3204, "pitch": 67, "duration": 5, "velocity": 107}, {"time": 3210, "pitch": 51, "duration": 4, "velocity": 109}, {"time": 3216, "pitch": 41, "duration": 6, "velocity": 104}, {"time": 3216, "pitch": 57, "duration": 15, "velocity": 94}, {"time": 3216, "pitch": 60, "duration": 15, "velocity": 104}, {"time": 3216, "pitch": 65, "duration": 14, "velocity": 108}, {"time": 3222, "pitch": 53, "duration": 5, "velocity": 88}, {"time": 3228, "pitch": 41, "duration": 7, "velocity": 102}, {"time": 3234, "pitch": 53, "duration": 7, "velocity": 100}, {"time": 3234, "pitch": 57, "duration": 14, "velocity": 102}, {"time": 3234, "pitch": 60, "duration": 15, "velocity": 113}, {"time": 3234, "pitch": 65, "duration": 14, "velocity": 104}, {"time": 3240, "pitch": 41, "duration": 7, "velocity": 100}, {"time": 3246, "pitch": 53, "duration": 5, "velocity": 98}, {"time": 3252, "pitch": 41, "duration": 8, "velocity": 104}, {"time": 3252, "pitch": 57, "duration": 8, "velocity": 102}, {"time": 3252, "pitch": 60, "duration": 10, "velocity": 98}, {"time": 3252, "pitch": 65, "duration": 8, "velocity": 94}, {"time": 3258, "pitch": 53, "duration": 4, "velocity": 104}, {"time": 3264, "pitch": 46, "duration": 7, "velocity": 87}, {"time": 3264, "pitch": 62, "duration": 11, "velocity": 114}, {"time": 3264, "pitch": 65, "duration": 15, "velocity": 108}, {"time": 3270, "pitch": 58, "duration": 7, "velocity": 86}, {"time": 3276, "pitch": 46, "duration": 7, "velocity": 87}, {"time": 3282, "pitch": 58, "duration": 7, "velocity": 87}, {"time": 3282, "pitch": 62, "duration": 15, "velocity": 113}, {"time": 3282, "pitch": 65, "duration": 14, "velocity": 113}, {"time": 3288, "pitch": 46, "duration": 6, "velocity": 91}, {"time": 3294, "pitch": 58, "duration": 6, "velocity": 85}, {"time": 3300, "pitch": 46, "duration": 7, "velocity": 93}, {"time": 3300, "pitch": 62, "duration": 9, "velocity": 116}, {"time": 3300, "pitch": 65, "duration": 6, "velocity": 116}, {"time": 3306, "pitch": 58, "duration": 4, "velocity": 91}, {"time": 3312, "pitch": 39, "duration": 7, "velocity": 100}, {"time": 3312, "pitch": 63, "duration": 8, "velocity": 97}, {"time": 3312, "pitch": 67, "duration": 8, "velocity": 114}, {"time": 3312, "pitch": 70, "duration": 8, "velocity": 97}, {"time": 3318, "pitch": 51, "duration": 5, "velocity": 86}, {"time": 3324, "pitch": 39, "duration": 7, "velocity": 103}, {"time": 3324, "pitch": 63, "duration": 5, "velocity": 91}, {"time": 3324, "pitch": 67, "duration": 5, "velocity": 110}, {"time": 3324, "pitch": 70, "duration": 5, "velocity": 83}, {"time": 3330, "pitch": 51, "duration": 3, "velocity": 90}, {"time": 3330, "pitch": 66, "duration": 1, "velocity": 74}, {"time": 3336, "pitch": 41, "duration": 7, "velocity": 100}, {"time": 3336, "pitch": 60, "duration": 12, "velocity": 87}, {"time": 3336, "pitch": 65, "duration": 12, "velocity": 100}, {"time": 3336, "pitch": 69, "duration": 11, "velocity": 94}, {"time": 3342, "pitch": 53, "duration": 6, "velocity": 88}, {"time": 3348, "pitch": 41, "duration": 7, "velocity": 100}, {"time": 3354, "pitch": 53, "duration": 3, "velocity": 100}, {"time": 3354, "pitch": 60, "duration": 3, "velocity": 86}, {"time": 3354, "pitch": 65, "duration": 3, "velocity": 88}, {"time": 3354, "pitch": 69, "duration": 3, "velocity": 87}, {"time": 3360, "pitch": 38, "duration": 6, "velocity": 104}, {"time": 3360, "pitch": 62, "duration": 14, "velocity": 104}, {"time": 3360, "pitch": 65, "duration": 14, "velocity": 110}, {"time": 3360, "pitch": 69, "duration": 15, "velocity": 104}, {"time": 3366, "pitch": 50, "duration": 5, "velocity": 91}, {"time": 3372, "pitch": 38, "duration": 7, "velocity": 104}, {"time": 3378, "pitch": 50, "duration": 4, "velocity": 104}, {"time": 3378, "pitch": 62, "duration": 3, "velocity": 85}, {"time": 3378, "pitch": 65, "duration": 4, "velocity": 91}, {"time": 3378, "pitch": 69, "duration": 3, "velocity": 87}, {"time": 3384, "pitch": 43, "duration": 6, "velocity": 92}, {"time": 3384, "pitch": 62, "duration": 9, "velocity": 100}, {"time": 3384, "pitch": 67, "duration": 9, "velocity": 113}, {"time": 3384, "pitch": 70, "duration": 8, "velocity": 113}, {"time": 3390, "pitch": 55, "duration": 5, "velocity": 92}, {"time": 3396, "pitch": 43, "duration": 7, "velocity": 107}, {"time": 3396, "pitch": 62, "duration": 6, "velocity": 100}, {"time": 3396, "pitch": 67, "duration": 6, "velocity": 102}, {"time": 3396, "pitch": 70, "duration": 7, "velocity": 97}, {"time": 3402, "pitch": 55, "duration": 4, "velocity": 102}, {"time": 3408, "pitch": 39, "duration": 7, "velocity": 103}, {"time": 3414, "pitch": 51, "duration": 6, "velocity": 88}, {"time": 3420, "pitch": 39, "duration": 7, "velocity": 100}, {"time": 3420, "pitch": 63, "duration": 20, "velocity": 97}, {"time": 3420, "pitch": 67, "duration": 19, "velocity": 113}, {"time": 3420, "pitch": 70, "duration": 20, "velocity": 91}, {"time": 3426, "pitch": 51, "duration": 6, "velocity": 88}, {"time": 3432, "pitch": 39, "duration": 7, "velocity": 103}, {"time": 3438, "pitch": 51, "duration": 6, "velocity": 90}, {"time": 3444, "pitch": 39, "duration": 7, "velocity": 106}, {"time": 3444, "pitch": 63, "duration": 6, "velocity": 103}, {"time": 3444, "pitch": 67, "duration": 6, "velocity": 114}, {"time": 3444, "pitch": 70, "duration": 6, "velocity": 86}, {"time": 3450, "pitch": 51, "duration": 3, "velocity": 109}, {"time": 3456, "pitch": 41, "duration": 7, "velocity": 108}, {"time": 3462, "pitch": 53, "duration": 5, "velocity": 93}, {"time": 3468, "pitch": 41, "duration": 6, "velocity": 104}, {"time": 3468, "pitch": 60, "duration": 1, "velocity": 80}, {"time": 3474, "pitch": 53, "duration": 5, "velocity": 96}, {"time": 3474, "pitch": 57, "duration": 7, "velocity": 96}, {"time": 3474, "pitch": 60, "duration": 13, "velocity": 108}, {"time": 3474, "pitch": 65, "duration": 12, "velocity": 98}, {"time": 3480, "pitch": 41, "duration": 7, "velocity": 107}, {"time": 3486, "pitch": 53, "duration": 5, "velocity": 107}, {"time": 3492, "pitch": 41, "duration": 7, "velocity": 107}, {"time": 3492, "pitch": 57, "duration": 6, "velocity": 107}, {"time": 3492, "pitch": 60, "duration": 9, "velocity": 113}, {"time": 3492, "pitch": 65, "duration": 8, "velocity": 107}, {"time": 3498, "pitch": 53, "duration": 5, "velocity": 108}, {"time": 3504, "pitch": 43, "duration": 7, "velocity": 98}, {"time": 3510, "pitch": 55, "duration": 6, "velocity": 91}, {"time": 3516, "pitch": 43, "duration": 7, "velocity": 104}, {"time": 3516, "pitch": 58, "duration": 17, "velocity": 106}, {"time": 3516, "pitch": 62, "duration": 18, "velocity": 107}, {"time": 3516, "pitch": 67, "duration": 17, "velocity": 91}, {"time": 3522, "pitch": 55, "duration": 6, "velocity": 94}, {"time": 3528, "pitch": 43, "duration": 7, "velocity": 102}, {"time": 3534, "pitch": 55, "duration": 6, "velocity": 102}, {"time": 3540, "pitch": 43, "duration": 7, "velocity": 108}, {"time": 3540, "pitch": 58, "duration": 8, "velocity": 100}, {"time": 3540, "pitch": 62, "duration": 11, "velocity": 110}, {"time": 3540, "pitch": 67, "duration": 10, "velocity": 104}, {"time": 3546, "pitch": 55, "duration": 6, "velocity": 91}, {"time": 3552, "pitch": 43, "duration": 7, "velocity": 107}, {"time": 3558, "pitch": 55, "duration": 5, "velocity": 92}, {"time": 3564, "pitch": 43, "duration": 7, "velocity": 108}, {"time": 3570, "pitch": 55, "duration": 6, "velocity": 94}, {"time": 3570, "pitch": 58, "duration": 13, "velocity": 91}, {"time": 3570, "pitch": 62, "duration": 12, "velocity": 104}, {"time": 3570, "pitch": 67, "duration": 12, "velocity": 94}, {"time": 3576, "pitch": 43, "duration": 7, "velocity": 102}, {"time": 3582, "pitch": 55, "duration": 6, "velocity": 98}, {"time": 3588, "pitch": 43, "duration": 7, "velocity": 108}, {"time": 3588, "pitch": 58, "duration": 9, "velocity": 93}, {"time": 3588, "pitch": 62, "duration": 10, "velocity": 113}, {"time": 3588, "pitch": 67, "duration": 10, "velocity": 108}, {"time": 3594, "pitch": 55, "duration": 3, "velocity": 107}, {"time": 3600, "pitch": 41, "duration": 7, "velocity": 90}, {"time": 3606, "pitch": 53, "duration": 6, "velocity": 88}, {"time": 3612, "pitch": 41, "duration": 7, "velocity": 93}, {"time": 3618, "pitch": 53, "duration": 6, "velocity": 92}, {"time": 3618, "pitch": 57, "duration": 14, "velocity": 104}, {"time": 3618, "pitch": 60, "duration": 14, "velocity": 110}, {"time": 3618, "pitch": 65, "duration": 14, "velocity": 94}, {"time": 3624, "pitch": 41, "duration": 7, "velocity": 93}, {"time": 3630, "pitch": 53, "duration": 5, "velocity": 92}, {"time": 3636, "pitch": 41, "duration": 7, "velocity": 102}, {"time": 3636, "pitch": 57, "duration": 9, "velocity": 102}, {"time": 3636, "pitch": 60, "duration": 13, "velocity": 114}, {"time": 3636, "pitch": 65, "duration": 12, "velocity": 100}, {"time": 3642, "pitch": 53, "duration": 3, "velocity": 100}, {"time": 3648, "pitch": 46, "duration": 7, "velocity": 88}, {"time": 3654, "pitch": 58, "duration": 6, "velocity": 88}, {"time": 3660, "pitch": 46, "duration": 6, "velocity": 89}, {"time": 3666, "pitch": 58, "duration": 6, "velocity": 86}, {"time": 3666, "pitch": 62, "duration": 13, "velocity": 104}, {"time": 3666, "pitch": 65, "duration": 13, "velocity": 114}, {"time": 3666, "pitch": 69, "duration": 14, "velocity": 96}, {"time": 3672, "pitch": 46, "duration": 7, "velocity": 90}, {"time": 3678, "pitch": 58, "duration": 7, "velocity": 86}, {"time": 3684, "pitch": 46, "duration": 7, "velocity": 91}, {"time": 3684, "pitch": 62, "duration": 12, "velocity": 110}, {"time": 3684, "pitch": 65, "duration": 12, "velocity": 114}, {"time": 3684, "pitch": 69, "duration": 12, "velocity": 102}, {"time": 3690, "pitch": 58, "duration": 3, "velocity": 93}, {"time": 3696, "pitch": 39, "duration": 7, "velocity": 95}, {"time": 3696, "pitch": 63, "duration": 16, "velocity": 97}, {"time": 3696, "pitch": 67, "duration": 22, "velocity": 113}, {"time": 3696, "pitch": 70, "duration": 18, "velocity": 95}, {"time": 3702, "pitch": 51, "duration": 6, "velocity": 85}, {"time": 3708, "pitch": 39, "duration": 7, "velocity": 100}, {"time": 3714, "pitch": 51, "duration": 3, "velocity": 95}, {"time": 3720, "pitch": 41, "duration": 6, "velocity": 87}, {"time": 3720, "pitch": 65, "duration": 13, "velocity": 89}, {"time": 3720, "pitch": 69, "duration": 11, "velocity": 100}, {"time": 3720, "pitch": 72, "duration": 12, "velocity": 92}, {"time": 3726, "pitch": 53, "duration": 6, "velocity": 87}, {"time": 3732, "pitch": 41, "duration": 7, "velocity": 98}, {"time": 3738, "pitch": 53, "duration": 4, "velocity": 104}, {"time": 3744, "pitch": 46, "duration": 8, "velocity": 84}, {"time": 3744, "pitch": 62, "duration": 16, "velocity": 91}, {"time": 3744, "pitch": 65, "duration": 37, "velocity": 107}, {"time": 3744, "pitch": 70, "duration": 21, "velocity": 103}, {"time": 3750, "pitch": 58, "duration": 8, "velocity": 86}, {"time": 3756, "pitch": 46, "duration": 7, "velocity": 86}, {"time": 3762, "pitch": 58, "duration": 7, "velocity": 85}, {"time": 3768, "pitch": 46, "duration": 7, "velocity": 83}, {"time": 3768, "pitch": 62, "duration": 13, "velocity": 91}, {"time": 3768, "pitch": 70, "duration": 13, "velocity": 82}, {"time": 3774, "pitch": 58, "duration": 7, "velocity": 86}, {"time": 3780, "pitch": 46, "duration": 7, "velocity": 87}, {"time": 3786, "pitch": 58, "duration": 3, "velocity": 87}, {"time": 3792, "pitch": 48, "duration": 7, "velocity": 91}, {"time": 3792, "pitch": 63, "duration": 14, "velocity": 109}, {"time": 3792, "pitch": 67, "duration": 14, "velocity": 107}, {"time": 3798, "pitch": 60, "duration": 6, "velocity": 89}, {"time": 3804, "pitch": 48, "duration": 8, "velocity": 93}, {"time": 3810, "pitch": 60, "duration": 2, "velocity": 93}, {"time": 3816, "pitch": 41, "duration": 7, "velocity": 92}, {"time": 3816, "pitch": 57, "duration": 13, "velocity": 92}, {"time": 3816, "pitch": 60, "duration": 13, "velocity": 104}, {"time": 3816, "pitch": 65, "duration": 13, "velocity": 93}, {"time": 3822, "pitch": 53, "duration": 6, "velocity": 88}, {"time": 3828, "pitch": 41, "duration": 7, "velocity": 92}, {"time": 3834, "pitch": 53, "duration": 5, "velocity": 94}, {"time": 3840, "pitch": 43, "duration": 7, "velocity": 91}, {"time": 3840, "pitch": 58, "duration": 14, "velocity": 86}, {"time": 3840, "pitch": 62, "duration": 13, "velocity": 96}, {"time": 3840, "pitch": 67, "duration": 12, "velocity": 96}, {"time": 3846, "pitch": 55, "duration": 6, "velocity": 87}, {"time": 3852, "pitch": 43, "duration": 7, "velocity": 90}, {"time": 3858, "pitch": 55, "duration": 6, "velocity": 91}, {"time": 3858, "pitch": 58, "duration": 14, "velocity": 91}, {"time": 3858, "pitch": 62, "duration": 14, "velocity": 104}, {"time": 3858, "pitch": 67, "duration": 14, "velocity": 102}, {"time": 3864, "pitch": 43, "duration": 6, "velocity": 96}, {"time": 3870, "pitch": 55, "duration": 6, "velocity": 92}, {"time": 3876, "pitch": 43, "duration": 6, "velocity": 107}, {"time": 3876, "pitch": 58, "duration": 12, "velocity": 89}, {"time": 3876, "pitch": 62, "duration": 12, "velocity": 96}, {"time": 3876, "pitch": 67, "duration": 12, "velocity": 96}, {"time": 3882, "pitch": 55, "duration": 5, "velocity": 100}, {"time": 3888, "pitch": 43, "duration": 5, "velocity": 104}, {"time": 3888, "pitch": 62, "duration": 1, "velocity": 94}, {"time": 3888, "pitch": 67, "duration": 15, "velocity": 94}, {"time": 3888, "pitch": 70, "duration": 14, "velocity": 91}, {"time": 3894, "pitch": 55, "duration": 6, "velocity": 87}, {"time": 3900, "pitch": 43, "duration": 6, "velocity": 107}, {"time": 3906, "pitch": 55, "duration": 6, "velocity": 90}, {"time": 3906, "pitch": 62, "duration": 23, "velocity": 91}, {"time": 3906, "pitch": 67, "duration": 28, "velocity": 92}, {"time": 3906, "pitch": 70, "duration": 27, "velocity": 87}, {"time": 3912, "pitch": 43, "duration": 7, "velocity": 102}, {"time": 3918, "pitch": 55, "duration": 6, "velocity": 89}, {"time": 3924, "pitch": 43, "duration": 7, "velocity": 98}, {"time": 3930, "pitch": 55, "duration": 6, "velocity": 98}, {"time": 3936, "pitch": 43, "duration": 7, "velocity": 98}, {"time": 3936, "pitch": 62, "duration": 16, "velocity": 96}, {"time": 3936, "pitch": 67, "duration": 17, "velocity": 102}, {"time": 3936, "pitch": 70, "duration": 16, "velocity": 93}, {"time": 3942, "pitch": 55, "duration": 6, "velocity": 91}, {"time": 3948, "pitch": 43, "duration": 6, "velocity": 107}, {"time": 3954, "pitch": 55, "duration": 6, "velocity": 92}, {"time": 3954, "pitch": 62, "duration": 14, "velocity": 94}, {"time": 3954, "pitch": 67, "duration": 15, "velocity": 93}, {"time": 3954, "pitch": 70, "duration": 15, "velocity": 88}, {"time": 3960, "pitch": 43, "duration": 7, "velocity": 100}, {"time": 3966, "pitch": 55, "duration": 6, "velocity": 92}, {"time": 3972, "pitch": 43, "duration": 7, "velocity": 100}, {"time": 3972, "pitch": 62, "duration": 6, "velocity": 94}, {"time": 3972, "pitch": 67, "duration": 10, "velocity": 94}, {"time": 3972, "pitch": 70, "duration": 5, "velocity": 86}, {"time": 3978, "pitch": 55, "duration": 4, "velocity": 96}, {"time": 3984, "pitch": 41, "duration": 7, "velocity": 93}, {"time": 3984, "pitch": 60, "duration": 17, "velocity": 86}, {"time": 3984, "pitch": 65, "duration": 16, "velocity": 88}, {"time": 3984, "pitch": 69, "duration": 16, "velocity": 87}, {"time": 3990, "pitch": 53, "duration": 6, "velocity": 88}, {"time": 3996, "pitch": 41, "duration": 6, "velocity": 102}, {"time": 4002, "pitch": 53, "duration": 6, "velocity": 100}, {"time": 4002, "pitch": 60, "duration": 27, "velocity": 100}, {"time": 4002, "pitch": 65, "duration": 27, "velocity": 100}, {"time": 4002, "pitch": 69, "duration": 27, "velocity": 100}, {"time": 4008, "pitch": 41, "duration": 7, "velocity": 102}, {"time": 4014, "pitch": 53, "duration": 6, "velocity": 96}, {"time": 4020, "pitch": 41, "duration": 6, "velocity": 102}, {"time": 4026, "pitch": 53, "duration": 6, "velocity": 102}, {"time": 4032, "pitch": 41, "duration": 7, "velocity": 102}, {"time": 4032, "pitch": 60, "duration": 15, "velocity": 92}, {"time": 4032, "pitch": 65, "duration": 16, "velocity": 108}, {"time": 4032, "pitch": 69, "duration": 15, "velocity": 94}, {"time": 4038, "pitch": 53, "duration": 6, "velocity": 91}, {"time": 4044, "pitch": 41, "duration": 7, "velocity": 96}, {"time": 4050, "pitch": 53, "duration": 5, "velocity": 92}, {"time": 4050, "pitch": 60, "duration": 14, "velocity": 91}, {"time": 4050, "pitch": 65, "duration": 14, "velocity": 98}, {"time": 4050, "pitch": 69, "duration": 14, "velocity": 93}, {"time": 4056, "pitch": 41, "duration": 7, "velocity": 98}, {"time": 4062, "pitch": 53, "duration": 6, "velocity": 91}, {"time": 4068, "pitch": 41, "duration": 7, "velocity": 104}, {"time": 4068, "pitch": 60, "duration": 7, "velocity": 93}, {"time": 4068, "pitch": 65, "duration": 9, "velocity": 102}, {"time": 4068, "pitch": 69, "duration": 8, "velocity": 92}, {"time": 4074, "pitch": 53, "duration": 5, "velocity": 98}, {"time": 4080, "pitch": 43, "duration": 6, "velocity": 94}, {"time": 4080, "pitch": 62, "duration": 16, "velocity": 93}, {"time": 4080, "pitch": 67, "duration": 17, "velocity": 107}, {"time": 4080, "pitch": 70, "duration": 16, "velocity": 103}, {"time": 4086, "pitch": 55, "duration": 6, "velocity": 100}, {"time": 4092, "pitch": 43, "duration": 6, "velocity": 104}, {"time": 4098, "pitch": 55, "duration": 6, "velocity": 98}, {"time": 4098, "pitch": 62, "duration": 13, "velocity": 100}, {"time": 4098, "pitch": 67, "duration": 14, "velocity": 104}, {"time": 4098, "pitch": 70, "duration": 14, "velocity": 91}, {"time": 4104, "pitch": 43, "duration": 6, "velocity": 100}, {"time": 4110, "pitch": 55, "duration": 6, "velocity": 96}, {"time": 4116, "pitch": 43, "duration": 6, "velocity": 98}, {"time": 4116, "pitch": 62, "duration": 8, "velocity": 107}, {"time": 4116, "pitch": 67, "duration": 9, "velocity": 96}, {"time": 4116, "pitch": 70, "duration": 8, "velocity": 87}, {"time": 4122, "pitch": 55, "duration": 6, "velocity": 98}, {"time": 4128, "pitch": 43, "duration": 7, "velocity": 98}, {"time": 4128, "pitch": 62, "duration": 15, "velocity": 108}, {"time": 4128, "pitch": 67, "duration": 16, "velocity": 108}, {"time": 4128, "pitch": 70, "duration": 14, "velocity": 100}, {"time": 4134, "pitch": 55, "duration": 5, "velocity": 100}, {"time": 4140, "pitch": 43, "duration": 7, "velocity": 91}, {"time": 4146, "pitch": 55, "duration": 6, "velocity": 98}, {"time": 4146, "pitch": 62, "duration": 12, "velocity": 104}, {"time": 4146, "pitch": 67, "duration": 13, "velocity": 110}, {"time": 4146, "pitch": 70, "duration": 12, "velocity": 106}, {"time": 4152, "pitch": 43, "duration": 7, "velocity": 104}, {"time": 4158, "pitch": 55, "duration": 6, "velocity": 96}, {"time": 4164, "pitch": 43, "duration": 7, "velocity": 104}, {"time": 4164, "pitch": 62, "duration": 7, "velocity": 110}, {"time": 4164, "pitch": 67, "duration": 9, "velocity": 116}, {"time": 4164, "pitch": 70, "duration": 7, "velocity": 106}, {"time": 4170, "pitch": 55, "duration": 3, "velocity": 104}, {"time": 4176, "pitch": 41, "duration": 7, "velocity": 102}, {"time": 4176, "pitch": 60, "duration": 14, "velocity": 102}, {"time": 4176, "pitch": 65, "duration": 14, "velocity": 108}, {"time": 4176, "pitch": 69, "duration": 16, "velocity": 104}, {"time": 4182, "pitch": 53, "duration": 6, "velocity": 98}, {"time": 4188, "pitch": 41, "duration": 6, "velocity": 104}, {"time": 4194, "pitch": 53, "duration": 5, "velocity": 102}, {"time": 4194, "pitch": 60, "duration": 13, "velocity": 104}, {"time": 4194, "pitch": 65, "duration": 14, "velocity": 110}, {"time": 4194, "pitch": 69, "duration": 14, "velocity": 89}, {"time": 4200, "pitch": 41, "duration": 6, "velocity": 96}, {"time": 4206, "pitch": 53, "duration": 5, "velocity": 100}, {"time": 4212, "pitch": 41, "duration": 7, "velocity": 102}, {"time": 4212, "pitch": 60, "duration": 9, "velocity": 91}, {"time": 4212, "pitch": 65, "duration": 9, "velocity": 98}, {"time": 4212, "pitch": 69, "duration": 9, "velocity": 89}, {"time": 4218, "pitch": 53, "duration": 6, "velocity": 100}, {"time": 4224, "pitch": 41, "duration": 7, "velocity": 102}, {"time": 4224, "pitch": 60, "duration": 12, "velocity": 100}, {"time": 4224, "pitch": 65, "duration": 14, "velocity": 104}, {"time": 4224, "pitch": 69, "duration": 14, "velocity": 94}, {"time": 4230, "pitch": 53, "duration": 6, "velocity": 100}, {"time": 4236, "pitch": 41, "duration": 6, "velocity": 107}, {"time": 4242, "pitch": 53, "duration": 6, "velocity": 102}, {"time": 4242, "pitch": 60, "duration": 13, "velocity": 104}, {"time": 4242, "pitch": 65, "duration": 13, "velocity": 107}, {"time": 4242, "pitch": 69, "duration": 14, "velocity": 96}, {"time": 4248, "pitch": 41, "duration": 6, "velocity": 104}, {"time": 4254, "pitch": 53, "duration": 6, "velocity": 98}, {"time": 4260, "pitch": 41, "duration": 6, "velocity": 102}, {"time": 4260, "pitch": 60, "duration": 7, "velocity": 113}, {"time": 4260, "pitch": 65, "duration": 9, "velocity": 117}, {"time": 4260, "pitch": 69, "duration": 8, "velocity": 108}, {"time": 4266, "pitch": 53, "duration": 5, "velocity": 104}, {"time": 4272, "pitch": 43, "duration": 7, "velocity": 107}, {"time": 4272, "pitch": 58, "duration": 14, "velocity": 103}, {"time": 4272, "pitch": 62, "duration": 14, "velocity": 113}, {"time": 4272, "pitch": 67, "duration": 12, "velocity": 108}, {"time": 4278, "pitch": 55, "duration": 6, "velocity": 92}, {"time": 4284, "pitch": 43, "duration": 6, "velocity": 98}, {"time": 4290, "pitch": 55, "duration": 6, "velocity": 90}, {"time": 4290, "pitch": 58, "duration": 13, "velocity": 100}, {"time": 4290, "pitch": 62, "duration": 14, "velocity": 108}, {"time": 4290, "pitch": 67, "duration": 13, "velocity": 110}, {"time": 4296, "pitch": 43, "duration": 7, "velocity": 98}, {"time": 4302, "pitch": 55, "duration": 6, "velocity": 92}, {"time": 4308, "pitch": 43, "duration": 7, "velocity": 102}, {"time": 4308, "pitch": 58, "duration": 7, "velocity": 97}, {"time": 4308, "pitch": 62, "duration": 9, "velocity": 102}, {"time": 4308, "pitch": 67, "duration": 6, "velocity": 107}, {"time": 4314, "pitch": 55, "duration": 4, "velocity": 96}, {"time": 4320, "pitch": 39, "duration": 7, "velocity": 106}, {"time": 4320, "pitch": 58, "duration": 15, "velocity": 109}, {"time": 4320, "pitch": 63, "duration": 15, "velocity": 109}, {"time": 4320, "pitch": 67, "duration": 14, "velocity": 113}, {"time": 4326, "pitch": 51, "duration": 6, "velocity": 88}, {"time": 4332, "pitch": 39, "duration": 6, "velocity": 100}, {"time": 4338, "pitch": 51, "duration": 6, "velocity": 87}, {"time": 4338, "pitch": 58, "duration": 14, "velocity": 103}, {"time": 4338, "pitch": 63, "duration": 14, "velocity": 100}, {"time": 4338, "pitch": 67, "duration": 13, "velocity": 116}, {"time": 4344, "pitch": 39, "duration": 7, "velocity": 100}, {"time": 4350, "pitch": 51, "duration": 6, "velocity": 103}, {"time": 4356, "pitch": 39, "duration": 8, "velocity": 103}, {"time": 4356, "pitch": 58, "duration": 5, "velocity": 106}, {"time": 4356, "pitch": 63, "duration": 9, "velocity": 106}, {"time": 4356, "pitch": 67, "duration": 5, "velocity": 107}, {"time": 4362, "pitch": 51, "duration": 4, "velocity": 109}, {"time": 4368, "pitch": 41, "duration": 6, "velocity": 104}, {"time": 4368, "pitch": 57, "duration": 15, "velocity": 94}, {"time": 4368, "pitch": 60, "duration": 15, "velocity": 104}, {"time": 4368, "pitch": 65, "duration": 14, "velocity": 108}, {"time": 4374, "pitch": 53, "duration": 5, "velocity": 88}, {"time": 4380, "pitch": 41, "duration": 7, "velocity": 102}, {"time": 4386, "pitch": 53, "duration": 7, "velocity": 100}, {"time": 4386, "pitch": 57, "duration": 14, "velocity": 102}, {"time": 4386, "pitch": 60, "duration": 15, "velocity": 113}, {"time": 4386, "pitch": 65, "duration": 14, "velocity": 104}, {"time": 4392, "pitch": 41, "duration": 7, "velocity": 100}, {"time": 4398, "pitch": 53, "duration": 5, "velocity": 98}, {"time": 4404, "pitch": 41, "duration": 8, "velocity": 104}, {"time": 4404, "pitch": 57, "duration": 8, "velocity": 102}, {"time": 4404, "pitch": 60, "duration": 10, "velocity": 98}, {"time": 4404, "pitch": 65, "duration": 8, "velocity": 94}, {"time": 4410, "pitch": 53, "duration": 4, "velocity": 104}, {"time": 4416, "pitch": 46, "duration": 7, "velocity": 87}, {"time": 4416, "pitch": 62, "duration": 11, "velocity": 114}, {"time": 4416, "pitch": 65, "duration": 15, "velocity": 108}, {"time": 4422, "pitch": 58, "duration": 7, "velocity": 86}, {"time": 4428, "pitch": 46, "duration": 7, "velocity": 87}, {"time": 4434, "pitch": 58, "duration": 7, "velocity": 87}, {"time": 4434, "pitch": 62, "duration": 15, "velocity": 113}, {"time": 4434, "pitch": 65, "duration": 14, "velocity": 113}, {"time": 4440, "pitch": 46, "duration": 6, "velocity": 91}, {"time": 4446, "pitch": 58, "duration": 6, "velocity": 85}, {"time": 4452, "pitch": 46, "duration": 7, "velocity": 93}, {"time": 4452, "pitch": 62, "duration": 9, "velocity": 116}, {"time": 4452, "pitch": 65, "duration": 6, "velocity": 116}, {"time": 4458, "pitch": 58, "duration": 4, "velocity": 91}, {"time": 4464, "pitch": 39, "duration": 7, "velocity": 100}, {"time": 4464, "pitch": 63, "duration": 8, "velocity": 97}, {"time": 4464, "pitch": 67, "duration": 8, "velocity": 114}, {"time": 4464, "pitch": 70, "duration": 8, "velocity": 97}, {"time": 4470, "pitch": 51, "duration": 5, "velocity": 86}, {"time": 4476, "pitch": 39, "duration": 7, "velocity": 103}, {"time": 4476, "pitch": 63, "duration": 5, "velocity": 91}, {"time": 4476, "pitch": 67, "duration": 5, "velocity": 110}, {"time": 4476, "pitch": 70, "duration": 5, "velocity": 83}, {"time": 4482, "pitch": 51, "duration": 3, "velocity": 90}, {"time": 4482, "pitch": 66, "duration": 1, "velocity": 74}, {"time": 4488, "pitch": 41, "duration": 7, "velocity": 100}, {"time": 4488, "pitch": 60, "duration": 12, "velocity": 87}, {"time": 4488, "pitch": 65, "duration": 12, "velocity": 100}, {"time": 4488, "pitch": 69, "duration": 11, "velocity": 94}, {"time": 4494, "pitch": 53, "duration": 6, "velocity": 88}, {"time": 4500, "pitch": 41, "duration": 7, "velocity": 100}, {"time": 4506, "pitch": 53, "duration": 3, "velocity": 100}, {"time": 4506, "pitch": 60, "duration": 3, "velocity": 86}, {"time": 4506, "pitch": 65, "duration": 3, "velocity": 88}, {"time": 4506, "pitch": 69, "duration": 3, "velocity": 87}, {"time": 4512, "pitch": 38, "duration": 6, "velocity": 104}, {"time": 4512, "pitch": 62, "duration": 14, "velocity": 104}, {"time": 4512, "pitch": 65, "duration": 14, "velocity": 110}, {"time": 4512, "pitch": 69, "duration": 15, "velocity": 104}, {"time": 4518, "pitch": 50, "duration": 5, "velocity": 91}, {"time": 4524, "pitch": 38, "duration": 7, "velocity": 104}, {"time": 4530, "pitch": 50, "duration": 4, "velocity": 104}, {"time": 4530, "pitch": 62, "duration": 3, "velocity": 85}, {"time": 4530, "pitch": 65, "duration": 4, "velocity": 91}, {"time": 4530, "pitch": 69, "duration": 3, "velocity": 87}, {"time": 4536, "pitch": 43, "duration": 6, "velocity": 92}, {"time": 4536, "pitch": 62, "duration": 9, "velocity": 100}, {"time": 4536, "pitch": 67, "duration": 9, "velocity": 113}, {"time": 4536, "pitch": 70, "duration": 8, "velocity": 113}, {"time": 4542, "pitch": 55, "duration": 5, "velocity": 92}, {"time": 4548, "pitch": 43, "duration": 7, "velocity": 107}, {"time": 4548, "pitch": 62, "duration": 6, "velocity": 100}, {"time": 4548, "pitch": 67, "duration": 6, "velocity": 102}, {"time": 4548, "pitch": 70, "duration": 7, "velocity": 97}, {"time": 4554, "pitch": 55, "duration": 4, "velocity": 102}, {"time": 4560, "pitch": 39, "duration": 7, "velocity": 103}, {"time": 4566, "pitch": 51, "duration": 6, "velocity": 88}, {"time": 4572, "pitch": 39, "duration": 7, "velocity": 100}, {"time": 4572, "pitch": 63, "duration": 20, "velocity": 97}, {"time": 4572, "pitch": 67, "duration": 19, "velocity": 113}, {"time": 4572, "pitch": 70, "duration": 20, "velocity": 91}, {"time": 4578, "pitch": 51, "duration": 6, "velocity": 88}, {"time": 4584, "pitch": 39, "duration": 7, "velocity": 103}, {"time": 4590, "pitch": 51, "duration": 6, "velocity": 90}, {"time": 4596, "pitch": 39, "duration": 7, "velocity": 106}, {"time": 4596, "pitch": 63, "duration": 6, "velocity": 103}, {"time": 4596, "pitch": 67, "duration": 6, "velocity": 114}, {"time": 4596, "pitch": 70, "duration": 6, "velocity": 86}, {"time": 4602, "pitch": 51, "duration": 3, "velocity": 109}, {"time": 4608, "pitch": 41, "duration": 7, "velocity": 108}, {"time": 4614, "pitch": 53, "duration": 5, "velocity": 93}, {"time": 4620, "pitch": 41, "duration": 6, "velocity": 104}, {"time": 4620, "pitch": 60, "duration": 1, "velocity": 80}, {"time": 4626, "pitch": 53, "duration": 5, "velocity": 96}, {"time": 4626, "pitch": 57, "duration": 7, "velocity": 96}, {"time": 4626, "pitch": 60, "duration": 13, "velocity": 108}, {"time": 4626, "pitch": 65, "duration": 12, "velocity": 98}, {"time": 4632, "pitch": 41, "duration": 7, "velocity": 107}, {"time": 4638, "pitch": 53, "duration": 5, "velocity": 107}, {"time": 4644, "pitch": 41, "duration": 7, "velocity": 107}, {"time": 4644, "pitch": 57, "duration": 6, "velocity": 107}, {"time": 4644, "pitch": 60, "duration": 9, "velocity": 113}, {"time": 4644, "pitch": 65, "duration": 8, "velocity": 107}, {"time": 4650, "pitch": 53, "duration": 5, "velocity": 108}, {"time": 4656, "pitch": 43, "duration": 7, "velocity": 98}, {"time": 4662, "pitch": 55, "duration": 6, "velocity": 91}, {"time": 4668, "pitch": 43, "duration": 7, "velocity": 104}, {"time": 4668, "pitch": 58, "duration": 17, "velocity": 106}, {"time": 4668, "pitch": 62, "duration": 18, "velocity": 107}, {"time": 4668, "pitch": 67, "duration": 17, "velocity": 91}, {"time": 4674, "pitch": 55, "duration": 6, "velocity": 94}, {"time": 4680, "pitch": 43, "duration": 7, "velocity": 102}, {"time": 4686, "pitch": 55, "duration": 6, "velocity": 102}, {"time": 4692, "pitch": 43, "duration": 7, "velocity": 108}, {"time": 4692, "pitch": 58, "duration": 8, "velocity": 100}, {"time": 4692, "pitch": 62, "duration": 11, "velocity": 110}, {"time": 4692, "pitch": 67, "duration": 10, "velocity": 104}, {"time": 4698, "pitch": 55, "duration": 6, "velocity": 91}, {"time": 4704, "pitch": 43, "duration": 7, "velocity": 107}, {"time": 4710, "pitch": 55, "duration": 5, "velocity": 92}, {"time": 4716, "pitch": 43, "duration": 7, "velocity": 108}, {"time": 4722, "pitch": 55, "duration": 6, "velocity": 94}, {"time": 4722, "pitch": 58, "duration": 13, "velocity": 91}, {"time": 4722, "pitch": 62, "duration": 12, "velocity": 104}, {"time": 4722, "pitch": 67, "duration": 12, "velocity": 94}, {"time": 4728, "pitch": 43, "duration": 7, "velocity": 102}, {"time": 4734, "pitch": 55, "duration": 6, "velocity": 98}, {"time": 4740, "pitch": 43, "duration": 7, "velocity": 108}, {"time": 4740, "pitch": 58, "duration": 9, "velocity": 93}, {"time": 4740, "pitch": 62, "duration": 10, "velocity": 113}, {"time": 4740, "pitch": 67, "duration": 10, "velocity": 108}, {"time": 4746, "pitch": 55, "duration": 3, "velocity": 107}, {"time": 4752, "pitch": 41, "duration": 7, "velocity": 90}, {"time": 4758, "pitch": 53, "duration": 6, "velocity": 88}, {"time": 4764, "pitch": 41, "duration": 7, "velocity": 93}, {"time": 4770, "pitch": 53, "duration": 6, "velocity": 92}, {"time": 4770, "pitch": 57, "duration": 14, "velocity": 104}, {"time": 4770, "pitch": 60, "duration": 14, "velocity": 110}, {"time": 4770, "pitch": 65, "duration": 14, "velocity": 94}, {"time": 4776, "pitch": 41, "duration": 7, "velocity": 93}, {"time": 4782, "pitch": 53, "duration": 5, "velocity": 92}, {"time": 4788, "pitch": 41, "duration": 7, "velocity": 102}, {"time": 4788, "pitch": 57, "duration": 9, "velocity": 102}, {"time": 4788, "pitch": 60, "duration": 13, "velocity": 114}, {"time": 4788, "pitch": 65, "duration": 12, "velocity": 100}, {"time": 4794, "pitch": 53, "duration": 3, "velocity": 100}, {"time": 4800, "pitch": 46, "duration": 7, "velocity": 88}, {"time": 4806, "pitch": 58, "duration": 6, "velocity": 88}, {"time": 4812, "pitch": 46, "duration": 6, "velocity": 89}, {"time": 4818, "pitch": 58, "duration": 6, "velocity": 86}, {"time": 4818, "pitch": 62, "duration": 13, "velocity": 104}, {"time": 4818, "pitch": 65, "duration": 13, "velocity": 114}, {"time": 4818, "pitch": 69, "duration": 14, "velocity": 96}, {"time": 4824, "pitch": 46, "duration": 7, "velocity": 90}, {"time": 4830, "pitch": 58, "duration": 7, "velocity": 86}, {"time": 4836, "pitch": 46, "duration": 7, "velocity": 91}, {"time": 4836, "pitch": 62, "duration": 12, "velocity": 110}, {"time": 4836, "pitch": 65, "duration": 12, "velocity": 114}, {"time": 4836, "pitch": 69, "duration": 12, "velocity": 102}, {"time": 4842, "pitch": 58, "duration": 3, "velocity": 93}, {"time": 4848, "pitch": 39, "duration": 7, "velocity": 95}, {"time": 4848, "pitch": 63, "duration": 16, "velocity": 97}, {"time": 4848, "pitch": 67, "duration": 22, "velocity": 113}, {"time": 4848, "pitch": 70, "duration": 18, "velocity": 95}, {"time": 4854, "pitch": 51, "duration": 6, "velocity": 85}, {"time": 4860, "pitch": 39, "duration": 7, "velocity": 100}, {"time": 4866, "pitch": 51, "duration": 3, "velocity": 95}, {"time": 4872, "pitch": 41, "duration": 6, "velocity": 87}, {"time": 4872, "pitch": 65, "duration": 13, "velocity": 89}, {"time": 4872, "pitch": 69, "duration": 11, "velocity": 100}, {"time": 4872, "pitch": 72, "duration": 12, "velocity": 92}, {"time": 4878, "pitch": 53, "duration": 6, "velocity": 87}, {"time": 4884, "pitch": 41, "duration": 7, "velocity": 98}, {"time": 4890, "pitch": 53, "duration": 4, "velocity": 104}, {"time": 4896, "pitch": 46, "duration": 8, "velocity": 84}, {"time": 4896, "pitch": 62, "duration": 16, "velocity": 91}, {"time": 4896, "pitch": 65, "duration": 37, "velocity": 107}, {"time": 4896, "pitch": 70, "duration": 21, "velocity": 103}, {"time": 4902, "pitch": 58, "duration": 8, "velocity": 86}, {"time": 4908, "pitch": 46, "duration": 7, "velocity": 86}, {"time": 4914, "pitch": 58, "duration": 7, "velocity": 85}, {"time": 4920, "pitch": 46, "duration": 7, "velocity": 83}, {"time": 4920, "pitch": 62, "duration": 13, "velocity": 91}, {"time": 4920, "pitch": 70, "duration": 13, "velocity": 82}, {"time": 4926, "pitch": 58, "duration": 7, "velocity": 86}, {"time": 4932, "pitch": 46, "duration": 7, "velocity": 87}, {"time": 4938, "pitch": 58, "duration": 3, "velocity": 87}, {"time": 4944, "pitch": 48, "duration": 7, "velocity": 91}, {"time": 4944, "pitch": 63, "duration": 14, "velocity": 109}, {"time": 4944, "pitch": 67, "duration": 14, "velocity": 107}, {"time": 4950, "pitch": 60, "duration": 6, "velocity": 89}, {"time": 4956, "pitch": 48, "duration": 8, "velocity": 93}, {"time": 4962, "pitch": 60, "duration": 2, "velocity": 93}, {"time": 4968, "pitch": 41, "duration": 7, "velocity": 92}, {"time": 4968, "pitch": 57, "duration": 13, "velocity": 92}, {"time": 4968, "pitch": 60, "duration": 13, "velocity": 104}, {"time": 4968, "pitch": 65, "duration": 13, "velocity": 93}, {"time": 4974, "pitch": 53, "duration": 6, "velocity": 88}, {"time": 4980, "pitch": 41, "duration": 7, "velocity": 92}, {"time": 4986, "pitch": 53, "duration": 5, "velocity": 94}, {"time": 4992, "pitch": 43, "duration": 7, "velocity": 91}, {"time": 4992, "pitch": 58, "duration": 14, "velocity": 86}, {"time": 4992, "pitch": 62, "duration": 13, "velocity": 96}, {"time": 4992, "pitch": 67, "duration": 12, "velocity": 96}, {"time": 4998, "pitch": 55, "duration": 6, "velocity": 87}, {"time": 5004, "pitch": 43, "duration": 7, "velocity": 90}, {"time": 5010, "pitch": 55, "duration": 6, "velocity": 91}, {"time": 5010, "pitch": 58, "duration": 14, "velocity": 91}, {"time": 5010, "pitch": 62, "duration": 14, "velocity": 104}, {"time": 5010, "pitch": 67, "duration": 14, "velocity": 102}, {"time": 5016, "pitch": 43, "duration": 6, "velocity": 96}, {"time": 5022, "pitch": 55, "duration": 6, "velocity": 92}, {"time": 5028, "pitch": 43, "duration": 6, "velocity": 107}, {"time": 5028, "pitch": 58, "duration": 12, "velocity": 89}, {"time": 5028, "pitch": 62, "duration": 12, "velocity": 96}, {"time": 5028, "pitch": 67, "duration": 12, "velocity": 96}, {"time": 5034, "pitch": 55, "duration": 5, "velocity": 100}, {"time": 5040, "pitch": 43, "duration": 6, "velocity": 98}, {"time": 5040, "pitch": 62, "duration": 1, "velocity": 91}, {"time": 5040, "pitch": 67, "duration": 17, "velocity": 92}, {"time": 5040, "pitch": 70, "duration": 16, "velocity": 88}, {"time": 5046, "pitch": 55, "duration": 6, "velocity": 93}, {"time": 5052, "pitch": 43, "duration": 6, "velocity": 98}, {"time": 5058, "pitch": 55, "duration": 6, "velocity": 98}, {"time": 5058, "pitch": 62, "duration": 16, "velocity": 96}, {"time": 5058, "pitch": 67, "duration": 17, "velocity": 96}, {"time": 5058, "pitch": 70, "duration": 16, "velocity": 88}, {"time": 5064, "pitch": 43, "duration": 6, "velocity": 102}, {"time": 5070, "pitch": 55, "duration": 6, "velocity": 107}, {"time": 5076, "pitch": 62, "duration": 5, "velocity": 104}, {"time": 5076, "pitch": 67, "duration": 4, "velocity": 104}, {"time": 5076, "pitch": 70, "duration": 4, "velocity": 94}, {"time": 5088, "pitch": 43, "duration": 6, "velocity": 102}, {"time": 5088, "pitch": 62, "duration": 17, "velocity": 92}, {"time": 5088, "pitch": 67, "duration": 17, "velocity": 91}, {"time": 5088, "pitch": 70, "duration": 17, "velocity": 87}, {"time": 5094, "pitch": 55, "duration": 6, "velocity": 107}, {"time": 5100, "pitch": 43, "duration": 6, "velocity": 102}, {"time": 5106, "pitch": 55, "duration": 6, "velocity": 107}, {"time": 5106, "pitch": 62, "duration": 15, "velocity": 93}, {"time": 5106, "pitch": 67, "duration": 16, "velocity": 92}, {"time": 5106, "pitch": 70, "duration": 16, "velocity": 87}, {"time": 5112, "pitch": 43, "duration": 6, "velocity": 100}, {"time": 5118, "pitch": 55, "duration": 3, "velocity": 116}, {"time": 5124, "pitch": 62, "duration": 5, "velocity": 104}, {"time": 5124, "pitch": 67, "duration": 4, "velocity": 104}, {"time": 5124, "pitch": 70, "duration": 4, "velocity": 94}, {"time": 5136, "pitch": 43, "duration": 6, "velocity": 98}, {"time": 5136, "pitch": 62, "duration": 16, "velocity": 91}, {"time": 5136, "pitch": 67, "duration": 17, "velocity": 92}, {"time": 5136, "pitch": 70, "duration": 16, "velocity": 88}, {"time": 5142, "pitch": 55, "duration": 6, "velocity": 93}, {"time": 5148, "pitch": 43, "duration": 6, "velocity": 98}, {"time": 5154, "pitch": 55, "duration": 6, "velocity": 98}, {"time": 5154, "pitch": 62, "duration": 16, "velocity": 96}, {"time": 5154, "pitch": 67, "duration": 17, "velocity": 96}, {"time": 5154, "pitch": 70, "duration": 16, "velocity": 88}, {"time": 5160, "pitch": 43, "duration": 6, "velocity": 102}, {"time": 5166, "pitch": 55, "duration": 6, "velocity": 107}, {"time": 5172, "pitch": 62, "duration": 5, "velocity": 104}, {"time": 5172, "pitch": 67, "duration": 4, "velocity": 104}, {"time": 5172, "pitch": 70, "duration": 4, "velocity": 94}, {"time": 5184, "pitch": 43, "duration": 6, "velocity": 102}, {"time": 5184, "pitch": 62, "duration": 17, "velocity": 92}, {"time": 5184, "pitch": 67, "duration": 17, "velocity": 91}, {"time": 5184, "pitch": 70, "duration": 17, "velocity": 87}, {"time": 5190, "pitch": 55, "duration": 6, "velocity": 107}, {"time": 5196, "pitch": 43, "duration": 6, "velocity": 102}, {"time": 5202, "pitch": 55, "duration": 6, "velocity": 107}, {"time": 5202, "pitch": 62, "duration": 15, "velocity": 93}, {"time": 5202, "pitch": 67, "duration": 16, "velocity": 92}, {"time": 5202, "pitch": 70, "duration": 16, "velocity": 87}, {"time": 5208, "pitch": 43, "duration": 6, "velocity": 100}, {"time": 5214, "pitch": 55, "duration": 3, "velocity": 116}, {"time": 5220, "pitch": 62, "duration": 5, "velocity": 104}, {"time": 5220, "pitch": 67, "duration": 4, "velocity": 104}, {"time": 5220, "pitch": 70, "duration": 4, "velocity": 94}, {"time": 5232, "pitch": 43, "duration": 49, "velocity": 95}, {"time": 5232, "pitch": 55, "duration": 49, "velocity": 95}]}]}