{"metadata": {"schema_version": "0.2", "title": "None", "source_filename": "338.mid", "source_format": "midi"}, "resolution": 12, "tempos": [{"time": 0, "qpm": 94.00012846684224}], "time_signatures": [{"time": 0, "numerator": 4, "denominator": 4}], "tracks": [{"program": 4, "is_drum": false, "name": "MELODY", "notes": [{"time": 848, "pitch": 74, "duration": 6, "velocity": 114}, {"time": 854, "pitch": 74, "duration": 6, "velocity": 114}, {"time": 860, "pitch": 74, "duration": 6, "velocity": 114}, {"time": 866, "pitch": 74, "duration": 6, "velocity": 114}, {"time": 872, "pitch": 74, "duration": 6, "velocity": 113}, {"time": 878, "pitch": 74, "duration": 6, "velocity": 114}, {"time": 884, "pitch": 71, "duration": 6, "velocity": 110}, {"time": 890, "pitch": 76, "duration": 54, "velocity": 119}, {"time": 944, "pitch": 76, "duration": 6, "velocity": 113}, {"time": 950, "pitch": 76, "duration": 6, "velocity": 110}, {"time": 956, "pitch": 76, "duration": 6, "velocity": 108}, {"time": 962, "pitch": 76, "duration": 6, "velocity": 108}, {"time": 968, "pitch": 74, "duration": 6, "velocity": 113}, {"time": 974, "pitch": 74, "duration": 6, "velocity": 113}, {"time": 980, "pitch": 71, "duration": 3, "velocity": 107}, {"time": 983, "pitch": 74, "duration": 57, "velocity": 94}, {"time": 1040, "pitch": 69, "duration": 6, "velocity": 89}, {"time": 1046, "pitch": 71, "duration": 7, "velocity": 100}, {"time": 1052, "pitch": 74, "duration": 6, "velocity": 110}, {"time": 1058, "pitch": 78, "duration": 6, "velocity": 113}, {"time": 1064, "pitch": 76, "duration": 6, "velocity": 107}, {"time": 1070, "pitch": 74, "duration": 6, "velocity": 107}, {"time": 1076, "pitch": 71, "duration": 6, "velocity": 108}, {"time": 1082, "pitch": 76, "duration": 54, "velocity": 114}, {"time": 1136, "pitch": 76, "duration": 6, "velocity": 89}, {"time": 1142, "pitch": 76, "duration": 6, "velocity": 110}, {"time": 1148, "pitch": 76, "duration": 6, "velocity": 108}, {"time": 1154, "pitch": 76, "duration": 6, "velocity": 108}, {"time": 1160, "pitch": 74, "duration": 6, "velocity": 110}, {"time": 1166, "pitch": 71, "duration": 6, "velocity": 104}, {"time": 1172, "pitch": 76, "duration": 6, "velocity": 108}, {"time": 1178, "pitch": 74, "duration": 54, "velocity": 114}, {"time": 1232, "pitch": 74, "duration": 6, "velocity": 110}, {"time": 1238, "pitch": 74, "duration": 6, "velocity": 113}, {"time": 1244, "pitch": 71, "duration": 6, "velocity": 87}, {"time": 1250, "pitch": 74, "duration": 6, "velocity": 114}, {"time": 1256, "pitch": 71, "duration": 6, "velocity": 104}, {"time": 1262, "pitch": 74, "duration": 6, "velocity": 114}, {"time": 1268, "pitch": 76, "duration": 6, "velocity": 113}, {"time": 1274, "pitch": 76, "duration": 54, "velocity": 114}, {"time": 1328, "pitch": 76, "duration": 6, "velocity": 107}, {"time": 1334, "pitch": 76, "duration": 6, "velocity": 108}, {"time": 1340, "pitch": 78, "duration": 6, "velocity": 109}, {"time": 1346, "pitch": 83, "duration": 6, "velocity": 113}, {"time": 1352, "pitch": 81, "duration": 6, "velocity": 114}, {"time": 1358, "pitch": 83, "duration": 6, "velocity": 108}, {"time": 1364, "pitch": 76, "duration": 6, "velocity": 94}, {"time": 1370, "pitch": 78, "duration": 54, "velocity": 114}, {"time": 1424, "pitch": 81, "duration": 6, "velocity": 93}, {"time": 1430, "pitch": 81, "duration": 6, "velocity": 107}, {"time": 1436, "pitch": 81, "duration": 6, "velocity": 110}, {"time": 1442, "pitch": 81, "duration": 6, "velocity": 110}, {"time": 1448, "pitch": 78, "duration": 6, "velocity": 113}, {"time": 1454, "pitch": 76, "duration": 6, "velocity": 108}, {"time": 1460, "pitch": 74, "duration": 6, "velocity": 113}, {"time": 1466, "pitch": 76, "duration": 18, "velocity": 114}, {"time": 1484, "pitch": 71, "duration": 6, "velocity": 113}, {"time": 1490, "pitch": 76, "duration": 6, "velocity": 114}, {"time": 1496, "pitch": 74, "duration": 6, "velocity": 113}, {"time": 1502, "pitch": 71, "duration": 6, "velocity": 110}, {"time": 1508, "pitch": 76, "duration": 12, "velocity": 119}, {"time": 1520, "pitch": 76, "duration": 6, "velocity": 114}, {"time": 1526, "pitch": 76, "duration": 6, "velocity": 113}, {"time": 1532, "pitch": 76, "duration": 6, "velocity": 110}, {"time": 1538, "pitch": 76, "duration": 6, "velocity": 114}, {"time": 1544, "pitch": 74, "duration": 6, "velocity": 113}, {"time": 1550, "pitch": 71, "duration": 6, "velocity": 114}, {"time": 1556, "pitch": 76, "duration": 6, "velocity": 113}, {"time": 1562, "pitch": 74, "duration": 54, "velocity": 116}, {"time": 1616, "pitch": 74, "duration": 6, "velocity": 113}, {"time": 1622, "pitch": 74, "duration": 6, "velocity": 113}, {"time": 1628, "pitch": 74, "duration": 6, "velocity": 107}, {"time": 1634, "pitch": 74, "duration": 6, "velocity": 113}, {"time": 1640, "pitch": 74, "duration": 6, "velocity": 113}, {"time": 1646, "pitch": 83, "duration": 6, "velocity": 119}, {"time": 1652, "pitch": 81, "duration": 6, "velocity": 116}, {"time": 1658, "pitch": 83, "duration": 54, "velocity": 120}, {"time": 1712, "pitch": 83, "duration": 12, "velocity": 116}, {"time": 1724, "pitch": 85, "duration": 6, "velocity": 116}, {"time": 1730, "pitch": 86, "duration": 6, "velocity": 113}, {"time": 1736, "pitch": 85, "duration": 6, "velocity": 116}, {"time": 1742, "pitch": 83, "duration": 6, "velocity": 116}, {"time": 1748, "pitch": 81, "duration": 6, "velocity": 110}, {"time": 1754, "pitch": 78, "duration": 18, "velocity": 117}, {"time": 1772, "pitch": 76, "duration": 6, "velocity": 114}, {"time": 1778, "pitch": 74, "duration": 12, "velocity": 117}, {"time": 1790, "pitch": 76, "duration": 6, "velocity": 114}, {"time": 1796, "pitch": 78, "duration": 12, "velocity": 116}, {"time": 1808, "pitch": 78, "duration": 18, "velocity": 116}, {"time": 1826, "pitch": 83, "duration": 6, "velocity": 117}, {"time": 1832, "pitch": 81, "duration": 6, "velocity": 113}, {"time": 1838, "pitch": 76, "duration": 6, "velocity": 108}, {"time": 1844, "pitch": 74, "duration": 6, "velocity": 114}, {"time": 1850, "pitch": 76, "duration": 24, "velocity": 114}, {"time": 1874, "pitch": 83, "duration": 6, "velocity": 114}, {"time": 1880, "pitch": 81, "duration": 6, "velocity": 107}, {"time": 1880, "pitch": 83, "duration": 6, "velocity": 86}, {"time": 1886, "pitch": 76, "duration": 6, "velocity": 116}, {"time": 1892, "pitch": 74, "duration": 6, "velocity": 108}, {"time": 1898, "pitch": 76, "duration": 18, "velocity": 113}, {"time": 1916, "pitch": 69, "duration": 6, "velocity": 114}, {"time": 1922, "pitch": 83, "duration": 6, "velocity": 114}, {"time": 1928, "pitch": 81, "duration": 6, "velocity": 116}, {"time": 1934, "pitch": 83, "duration": 6, "velocity": 113}, {"time": 1940, "pitch": 76, "duration": 12, "velocity": 116}, {"time": 1952, "pitch": 78, "duration": 48, "velocity": 119}, {"time": 2000, "pitch": 74, "duration": 6, "velocity": 113}, {"time": 2006, "pitch": 74, "duration": 6, "velocity": 113}, {"time": 2012, "pitch": 74, "duration": 6, "velocity": 107}, {"time": 2018, "pitch": 76, "duration": 6, "velocity": 113}, {"time": 2024, "pitch": 74, "duration": 6, "velocity": 113}, {"time": 2030, "pitch": 81, "duration": 6, "velocity": 119}, {"time": 2036, "pitch": 83, "duration": 6, "velocity": 116}, {"time": 2042, "pitch": 83, "duration": 54, "velocity": 120}, {"time": 2096, "pitch": 83, "duration": 6, "velocity": 116}, {"time": 2102, "pitch": 83, "duration": 6, "velocity": 116}, {"time": 2108, "pitch": 83, "duration": 6, "velocity": 116}, {"time": 2114, "pitch": 83, "duration": 6, "velocity": 110}, {"time": 2120, "pitch": 81, "duration": 6, "velocity": 113}, {"time": 2126, "pitch": 81, "duration": 6, "velocity": 114}, {"time": 2132, "pitch": 78, "duration": 6, "velocity": 113}, {"time": 2138, "pitch": 81, "duration": 18, "velocity": 107}, {"time": 2156, "pitch": 78, "duration": 6, "velocity": 116}, {"time": 2162, "pitch": 76, "duration": 6, "velocity": 113}, {"time": 2168, "pitch": 81, "duration": 12, "velocity": 117}, {"time": 2180, "pitch": 78, "duration": 30, "velocity": 119}, {"time": 2210, "pitch": 83, "duration": 6, "velocity": 117}, {"time": 2216, "pitch": 81, "duration": 6, "velocity": 108}, {"time": 2222, "pitch": 78, "duration": 6, "velocity": 116}, {"time": 2228, "pitch": 74, "duration": 6, "velocity": 116}, {"time": 2234, "pitch": 76, "duration": 24, "velocity": 119}, {"time": 2258, "pitch": 83, "duration": 7, "velocity": 116}, {"time": 2264, "pitch": 81, "duration": 6, "velocity": 114}, {"time": 2270, "pitch": 78, "duration": 6, "velocity": 106}, {"time": 2276, "pitch": 81, "duration": 12, "velocity": 113}, {"time": 2288, "pitch": 76, "duration": 18, "velocity": 110}, {"time": 2306, "pitch": 76, "duration": 6, "velocity": 114}, {"time": 2312, "pitch": 74, "duration": 6, "velocity": 110}, {"time": 2318, "pitch": 71, "duration": 6, "velocity": 108}, {"time": 2324, "pitch": 74, "duration": 54, "velocity": 116}, {"time": 2768, "pitch": 74, "duration": 6, "velocity": 110}, {"time": 2774, "pitch": 74, "duration": 6, "velocity": 113}, {"time": 2780, "pitch": 71, "duration": 6, "velocity": 87}, {"time": 2786, "pitch": 74, "duration": 6, "velocity": 114}, {"time": 2792, "pitch": 71, "duration": 6, "velocity": 104}, {"time": 2798, "pitch": 74, "duration": 6, "velocity": 114}, {"time": 2804, "pitch": 76, "duration": 6, "velocity": 113}, {"time": 2810, "pitch": 76, "duration": 54, "velocity": 114}, {"time": 2864, "pitch": 76, "duration": 6, "velocity": 107}, {"time": 2870, "pitch": 76, "duration": 6, "velocity": 108}, {"time": 2876, "pitch": 78, "duration": 6, "velocity": 109}, {"time": 2882, "pitch": 83, "duration": 6, "velocity": 113}, {"time": 2888, "pitch": 81, "duration": 6, "velocity": 114}, {"time": 2894, "pitch": 83, "duration": 6, "velocity": 108}, {"time": 2900, "pitch": 76, "duration": 6, "velocity": 94}, {"time": 2906, "pitch": 78, "duration": 54, "velocity": 114}, {"time": 2960, "pitch": 81, "duration": 6, "velocity": 93}, {"time": 2966, "pitch": 81, "duration": 6, "velocity": 107}, {"time": 2972, "pitch": 81, "duration": 6, "velocity": 110}, {"time": 2978, "pitch": 81, "duration": 6, "velocity": 110}, {"time": 2984, "pitch": 78, "duration": 6, "velocity": 113}, {"time": 2990, "pitch": 76, "duration": 6, "velocity": 108}, {"time": 2996, "pitch": 74, "duration": 6, "velocity": 113}, {"time": 3002, "pitch": 76, "duration": 18, "velocity": 114}, {"time": 3020, "pitch": 71, "duration": 6, "velocity": 113}, {"time": 3026, "pitch": 76, "duration": 6, "velocity": 114}, {"time": 3032, "pitch": 74, "duration": 6, "velocity": 113}, {"time": 3038, "pitch": 71, "duration": 6, "velocity": 110}, {"time": 3044, "pitch": 76, "duration": 12, "velocity": 119}, {"time": 3056, "pitch": 76, "duration": 6, "velocity": 114}, {"time": 3062, "pitch": 76, "duration": 6, "velocity": 113}, {"time": 3068, "pitch": 76, "duration": 6, "velocity": 110}, {"time": 3074, "pitch": 76, "duration": 6, "velocity": 114}, {"time": 3080, "pitch": 74, "duration": 6, "velocity": 113}, {"time": 3086, "pitch": 71, "duration": 6, "velocity": 114}, {"time": 3092, "pitch": 76, "duration": 6, "velocity": 113}, {"time": 3098, "pitch": 74, "duration": 48, "velocity": 116}, {"time": 3152, "pitch": 74, "duration": 6, "velocity": 113}, {"time": 3158, "pitch": 74, "duration": 6, "velocity": 113}, {"time": 3164, "pitch": 74, "duration": 6, "velocity": 107}, {"time": 3170, "pitch": 74, "duration": 6, "velocity": 113}, {"time": 3176, "pitch": 74, "duration": 6, "velocity": 113}, {"time": 3182, "pitch": 83, "duration": 6, "velocity": 119}, {"time": 3188, "pitch": 86, "duration": 6, "velocity": 116}, {"time": 3194, "pitch": 83, "duration": 54, "velocity": 120}, {"time": 3248, "pitch": 83, "duration": 12, "velocity": 116}, {"time": 3260, "pitch": 85, "duration": 6, "velocity": 116}, {"time": 3266, "pitch": 86, "duration": 6, "velocity": 113}, {"time": 3272, "pitch": 85, "duration": 6, "velocity": 116}, {"time": 3278, "pitch": 83, "duration": 6, "velocity": 116}, {"time": 3284, "pitch": 81, "duration": 6, "velocity": 110}, {"time": 3290, "pitch": 78, "duration": 18, "velocity": 117}, {"time": 3308, "pitch": 76, "duration": 6, "velocity": 114}, {"time": 3314, "pitch": 74, "duration": 12, "velocity": 117}, {"time": 3326, "pitch": 76, "duration": 6, "velocity": 114}, {"time": 3332, "pitch": 78, "duration": 12, "velocity": 116}, {"time": 3344, "pitch": 78, "duration": 18, "velocity": 116}, {"time": 3362, "pitch": 83, "duration": 6, "velocity": 117}, {"time": 3368, "pitch": 81, "duration": 6, "velocity": 113}, {"time": 3374, "pitch": 76, "duration": 6, "velocity": 108}, {"time": 3380, "pitch": 74, "duration": 6, "velocity": 114}, {"time": 3386, "pitch": 76, "duration": 24, "velocity": 114}, {"time": 3410, "pitch": 83, "duration": 6, "velocity": 114}, {"time": 3416, "pitch": 81, "duration": 6, "velocity": 107}, {"time": 3416, "pitch": 83, "duration": 6, "velocity": 86}, {"time": 3422, "pitch": 76, "duration": 6, "velocity": 116}, {"time": 3428, "pitch": 74, "duration": 6, "velocity": 108}, {"time": 3434, "pitch": 76, "duration": 18, "velocity": 113}, {"time": 3452, "pitch": 69, "duration": 6, "velocity": 114}, {"time": 3458, "pitch": 83, "duration": 6, "velocity": 114}, {"time": 3464, "pitch": 81, "duration": 6, "velocity": 116}, {"time": 3470, "pitch": 83, "duration": 6, "velocity": 113}, {"time": 3476, "pitch": 76, "duration": 12, "velocity": 116}, {"time": 3488, "pitch": 78, "duration": 48, "velocity": 119}, {"time": 3536, "pitch": 74, "duration": 6, "velocity": 113}, {"time": 3542, "pitch": 74, "duration": 6, "velocity": 113}, {"time": 3548, "pitch": 74, "duration": 6, "velocity": 107}, {"time": 3554, "pitch": 76, "duration": 6, "velocity": 113}, {"time": 3560, "pitch": 74, "duration": 6, "velocity": 113}, {"time": 3566, "pitch": 81, "duration": 6, "velocity": 119}, {"time": 3572, "pitch": 83, "duration": 6, "velocity": 116}, {"time": 3578, "pitch": 83, "duration": 54, "velocity": 120}, {"time": 3632, "pitch": 83, "duration": 6, "velocity": 116}, {"time": 3638, "pitch": 83, "duration": 6, "velocity": 116}, {"time": 3644, "pitch": 83, "duration": 6, "velocity": 116}, {"time": 3650, "pitch": 83, "duration": 6, "velocity": 110}, {"time": 3656, "pitch": 81, "duration": 6, "velocity": 113}, {"time": 3662, "pitch": 81, "duration": 6, "velocity": 114}, {"time": 3668, "pitch": 78, "duration": 6, "velocity": 113}, {"time": 3674, "pitch": 81, "duration": 18, "velocity": 107}, {"time": 3692, "pitch": 78, "duration": 6, "velocity": 116}, {"time": 3698, "pitch": 76, "duration": 6, "velocity": 113}, {"time": 3704, "pitch": 78, "duration": 12, "velocity": 117}, {"time": 3716, "pitch": 81, "duration": 12, "velocity": 119}, {"time": 3728, "pitch": 78, "duration": 18, "velocity": 119}, {"time": 3746, "pitch": 83, "duration": 6, "velocity": 117}, {"time": 3752, "pitch": 81, "duration": 6, "velocity": 108}, {"time": 3758, "pitch": 78, "duration": 6, "velocity": 116}, {"time": 3764, "pitch": 74, "duration": 6, "velocity": 116}, {"time": 3770, "pitch": 76, "duration": 18, "velocity": 119}, {"time": 3788, "pitch": 71, "duration": 6, "velocity": 119}, {"time": 3794, "pitch": 83, "duration": 7, "velocity": 116}, {"time": 3800, "pitch": 81, "duration": 6, "velocity": 114}, {"time": 3806, "pitch": 78, "duration": 6, "velocity": 106}, {"time": 3812, "pitch": 81, "duration": 12, "velocity": 113}, {"time": 3824, "pitch": 76, "duration": 12, "velocity": 110}, {"time": 3836, "pitch": 69, "duration": 6, "velocity": 114}, {"time": 3842, "pitch": 78, "duration": 6, "velocity": 114}, {"time": 3848, "pitch": 76, "duration": 12, "velocity": 104}, {"time": 3860, "pitch": 78, "duration": 12, "velocity": 106}, {"time": 3872, "pitch": 76, "duration": 6, "velocity": 104}, {"time": 3878, "pitch": 74, "duration": 6, "velocity": 110}, {"time": 3884, "pitch": 71, "duration": 6, "velocity": 102}, {"time": 3890, "pitch": 74, "duration": 42, "velocity": 104}, {"time": 3932, "pitch": 76, "duration": 3, "velocity": 96}, {"time": 3935, "pitch": 74, "duration": 3, "velocity": 88}, {"time": 3938, "pitch": 78, "duration": 6, "velocity": 103}, {"time": 3944, "pitch": 78, "duration": 6, "velocity": 102}, {"time": 3950, "pitch": 78, "duration": 6, "velocity": 100}, {"time": 3956, "pitch": 76, "duration": 6, "velocity": 107}, {"time": 3962, "pitch": 78, "duration": 4, "velocity": 106}, {"time": 3965, "pitch": 76, "duration": 3, "velocity": 98}, {"time": 3968, "pitch": 78, "duration": 60, "velocity": 89}, {"time": 4028, "pitch": 71, "duration": 6, "velocity": 102}, {"time": 4034, "pitch": 78, "duration": 6, "velocity": 109}, {"time": 4040, "pitch": 76, "duration": 6, "velocity": 102}, {"time": 4046, "pitch": 78, "duration": 6, "velocity": 103}, {"time": 4052, "pitch": 79, "duration": 6, "velocity": 96}, {"time": 4058, "pitch": 78, "duration": 3, "velocity": 106}, {"time": 4061, "pitch": 76, "duration": 63, "velocity": 104}, {"time": 4124, "pitch": 74, "duration": 6, "velocity": 107}, {"time": 4130, "pitch": 76, "duration": 6, "velocity": 100}, {"time": 4136, "pitch": 74, "duration": 6, "velocity": 100}, {"time": 4142, "pitch": 76, "duration": 6, "velocity": 107}, {"time": 4148, "pitch": 78, "duration": 6, "velocity": 100}, {"time": 4154, "pitch": 78, "duration": 6, "velocity": 100}, {"time": 4160, "pitch": 76, "duration": 10, "velocity": 100}, {"time": 4208, "pitch": 74, "duration": 6, "velocity": 113}, {"time": 4214, "pitch": 74, "duration": 6, "velocity": 113}, {"time": 4220, "pitch": 74, "duration": 6, "velocity": 107}, {"time": 4226, "pitch": 74, "duration": 6, "velocity": 113}, {"time": 4232, "pitch": 74, "duration": 6, "velocity": 113}, {"time": 4238, "pitch": 83, "duration": 6, "velocity": 119}, {"time": 4244, "pitch": 81, "duration": 6, "velocity": 116}, {"time": 4250, "pitch": 83, "duration": 54, "velocity": 120}, {"time": 4304, "pitch": 83, "duration": 12, "velocity": 116}, {"time": 4316, "pitch": 85, "duration": 6, "velocity": 116}, {"time": 4322, "pitch": 86, "duration": 6, "velocity": 113}, {"time": 4328, "pitch": 85, "duration": 6, "velocity": 116}, {"time": 4334, "pitch": 83, "duration": 6, "velocity": 116}, {"time": 4340, "pitch": 81, "duration": 6, "velocity": 110}, {"time": 4346, "pitch": 78, "duration": 18, "velocity": 117}, {"time": 4364, "pitch": 76, "duration": 6, "velocity": 114}, {"time": 4370, "pitch": 74, "duration": 12, "velocity": 117}, {"time": 4382, "pitch": 76, "duration": 6, "velocity": 114}, {"time": 4388, "pitch": 78, "duration": 12, "velocity": 116}, {"time": 4400, "pitch": 78, "duration": 18, "velocity": 116}, {"time": 4418, "pitch": 83, "duration": 6, "velocity": 117}, {"time": 4424, "pitch": 81, "duration": 6, "velocity": 113}, {"time": 4430, "pitch": 76, "duration": 6, "velocity": 108}, {"time": 4436, "pitch": 74, "duration": 6, "velocity": 114}, {"time": 4442, "pitch": 76, "duration": 24, "velocity": 114}, {"time": 4466, "pitch": 83, "duration": 6, "velocity": 114}, {"time": 4472, "pitch": 81, "duration": 6, "velocity": 107}, {"time": 4472, "pitch": 83, "duration": 6, "velocity": 86}, {"time": 4478, "pitch": 76, "duration": 6, "velocity": 116}, {"time": 4484, "pitch": 74, "duration": 6, "velocity": 108}, {"time": 4490, "pitch": 76, "duration": 18, "velocity": 113}, {"time": 4508, "pitch": 69, "duration": 6, "velocity": 114}, {"time": 4514, "pitch": 83, "duration": 6, "velocity": 114}, {"time": 4520, "pitch": 81, "duration": 6, "velocity": 116}, {"time": 4526, "pitch": 83, "duration": 6, "velocity": 113}, {"time": 4532, "pitch": 76, "duration": 12, "velocity": 116}, {"time": 4544, "pitch": 78, "duration": 48, "velocity": 119}, {"time": 4592, "pitch": 74, "duration": 6, "velocity": 113}, {"time": 4598, "pitch": 74, "duration": 6, "velocity": 113}, {"time": 4604, "pitch": 74, "duration": 6, "velocity": 107}, {"time": 4610, "pitch": 76, "duration": 6, "velocity": 113}, {"time": 4616, "pitch": 74, "duration": 6, "velocity": 113}, {"time": 4622, "pitch": 81, "duration": 6, "velocity": 119}, {"time": 4628, "pitch": 83, "duration": 6, "velocity": 116}, {"time": 4634, "pitch": 83, "duration": 54, "velocity": 120}, {"time": 4688, "pitch": 83, "duration": 6, "velocity": 116}, {"time": 4694, "pitch": 83, "duration": 6, "velocity": 116}, {"time": 4700, "pitch": 83, "duration": 6, "velocity": 116}, {"time": 4706, "pitch": 83, "duration": 6, "velocity": 110}, {"time": 4712, "pitch": 81, "duration": 6, "velocity": 113}, {"time": 4718, "pitch": 81, "duration": 6, "velocity": 114}, {"time": 4724, "pitch": 78, "duration": 6, "velocity": 113}, {"time": 4730, "pitch": 81, "duration": 18, "velocity": 107}, {"time": 4748, "pitch": 78, "duration": 6, "velocity": 116}, {"time": 4754, "pitch": 76, "duration": 6, "velocity": 113}, {"time": 4760, "pitch": 81, "duration": 12, "velocity": 117}, {"time": 4772, "pitch": 78, "duration": 30, "velocity": 119}, {"time": 4802, "pitch": 83, "duration": 6, "velocity": 117}, {"time": 4808, "pitch": 81, "duration": 6, "velocity": 108}, {"time": 4814, "pitch": 78, "duration": 6, "velocity": 116}, {"time": 4820, "pitch": 74, "duration": 6, "velocity": 116}, {"time": 4826, "pitch": 76, "duration": 24, "velocity": 119}, {"time": 4850, "pitch": 83, "duration": 7, "velocity": 116}, {"time": 4856, "pitch": 81, "duration": 6, "velocity": 114}, {"time": 4862, "pitch": 78, "duration": 6, "velocity": 106}, {"time": 4868, "pitch": 81, "duration": 12, "velocity": 113}, {"time": 4880, "pitch": 76, "duration": 18, "velocity": 110}, {"time": 4898, "pitch": 76, "duration": 6, "velocity": 114}, {"time": 4904, "pitch": 74, "duration": 7, "velocity": 104}, {"time": 4910, "pitch": 71, "duration": 7, "velocity": 106}, {"time": 4916, "pitch": 74, "duration": 78, "velocity": 104}, {"time": 4994, "pitch": 76, "duration": 6, "velocity": 114}, {"time": 5000, "pitch": 74, "duration": 6, "velocity": 102}, {"time": 5006, "pitch": 71, "duration": 6, "velocity": 94}, {"time": 5012, "pitch": 74, "duration": 54, "velocity": 113}, {"time": 5138, "pitch": 78, "duration": 6, "velocity": 113}, {"time": 5144, "pitch": 76, "duration": 6, "velocity": 104}, {"time": 5150, "pitch": 76, "duration": 6, "velocity": 104}, {"time": 5156, "pitch": 78, "duration": 6, "velocity": 100}, {"time": 5162, "pitch": 74, "duration": 48, "velocity": 98}, {"time": 5282, "pitch": 76, "duration": 6, "velocity": 96}, {"time": 5288, "pitch": 74, "duration": 6, "velocity": 89}, {"time": 5294, "pitch": 71, "duration": 6, "velocity": 92}, {"time": 5300, "pitch": 74, "duration": 54, "velocity": 100}]}, {"program": 0, "is_drum": false, "name": "PIANO", "notes": [{"time": 266, "pitch": 50, "duration": 44, "velocity": 88}, {"time": 272, "pitch": 57, "duration": 8, "velocity": 84}, {"time": 278, "pitch": 66, "duration": 7, "velocity": 87}, {"time": 284, "pitch": 57, "duration": 8, "velocity": 78}, {"time": 290, "pitch": 69, "duration": 10, "velocity": 100}, {"time": 296, "pitch": 57, "duration": 7, "velocity": 81}, {"time": 302, "pitch": 66, "duration": 17, "velocity": 89}, {"time": 308, "pitch": 57, "duration": 8, "velocity": 84}, {"time": 314, "pitch": 52, "duration": 41, "velocity": 89}, {"time": 320, "pitch": 59, "duration": 8, "velocity": 77}, {"time": 326, "pitch": 67, "duration": 8, "velocity": 93}, {"time": 332, "pitch": 59, "duration": 7, "velocity": 83}, {"time": 338, "pitch": 71, "duration": 11, "velocity": 88}, {"time": 344, "pitch": 59, "duration": 11, "velocity": 84}, {"time": 350, "pitch": 42, "duration": 5, "velocity": 79}, {"time": 350, "pitch": 67, "duration": 13, "velocity": 87}, {"time": 356, "pitch": 43, "duration": 7, "velocity": 85}, {"time": 356, "pitch": 64, "duration": 7, "velocity": 82}, {"time": 362, "pitch": 45, "duration": 40, "velocity": 90}, {"time": 368, "pitch": 57, "duration": 7, "velocity": 79}, {"time": 374, "pitch": 61, "duration": 7, "velocity": 86}, {"time": 380, "pitch": 57, "duration": 7, "velocity": 79}, {"time": 386, "pitch": 64, "duration": 13, "velocity": 90}, {"time": 392, "pitch": 52, "duration": 11, "velocity": 73}, {"time": 398, "pitch": 61, "duration": 11, "velocity": 83}, {"time": 404, "pitch": 57, "duration": 4, "velocity": 82}, {"time": 410, "pitch": 50, "duration": 45, "velocity": 86}, {"time": 416, "pitch": 57, "duration": 10, "velocity": 78}, {"time": 422, "pitch": 66, "duration": 8, "velocity": 87}, {"time": 428, "pitch": 57, "duration": 7, "velocity": 84}, {"time": 434, "pitch": 69, "duration": 8, "velocity": 104}, {"time": 440, "pitch": 57, "duration": 7, "velocity": 86}, {"time": 446, "pitch": 66, "duration": 6, "velocity": 85}, {"time": 452, "pitch": 64, "duration": 6, "velocity": 88}, {"time": 458, "pitch": 50, "duration": 41, "velocity": 87}, {"time": 464, "pitch": 57, "duration": 7, "velocity": 81}, {"time": 470, "pitch": 66, "duration": 7, "velocity": 86}, {"time": 476, "pitch": 57, "duration": 8, "velocity": 83}, {"time": 482, "pitch": 69, "duration": 9, "velocity": 96}, {"time": 488, "pitch": 57, "duration": 10, "velocity": 85}, {"time": 494, "pitch": 66, "duration": 12, "velocity": 90}, {"time": 506, "pitch": 52, "duration": 38, "velocity": 86}, {"time": 512, "pitch": 59, "duration": 8, "velocity": 81}, {"time": 518, "pitch": 67, "duration": 7, "velocity": 87}, {"time": 524, "pitch": 59, "duration": 8, "velocity": 81}, {"time": 530, "pitch": 71, "duration": 9, "velocity": 87}, {"time": 536, "pitch": 59, "duration": 7, "velocity": 83}, {"time": 542, "pitch": 67, "duration": 13, "velocity": 91}, {"time": 548, "pitch": 44, "duration": 6, "velocity": 83}, {"time": 554, "pitch": 45, "duration": 40, "velocity": 78}, {"time": 560, "pitch": 52, "duration": 18, "velocity": 80}, {"time": 566, "pitch": 61, "duration": 9, "velocity": 86}, {"time": 578, "pitch": 61, "duration": 6, "velocity": 64}, {"time": 578, "pitch": 69, "duration": 7, "velocity": 88}, {"time": 584, "pitch": 52, "duration": 11, "velocity": 82}, {"time": 590, "pitch": 64, "duration": 6, "velocity": 83}, {"time": 596, "pitch": 66, "duration": 7, "velocity": 83}, {"time": 602, "pitch": 50, "duration": 44, "velocity": 86}, {"time": 608, "pitch": 57, "duration": 8, "velocity": 80}, {"time": 614, "pitch": 69, "duration": 7, "velocity": 81}, {"time": 620, "pitch": 57, "duration": 7, "velocity": 82}, {"time": 626, "pitch": 64, "duration": 7, "velocity": 85}, {"time": 632, "pitch": 57, "duration": 7, "velocity": 85}, {"time": 638, "pitch": 66, "duration": 18, "velocity": 100}, {"time": 644, "pitch": 57, "duration": 7, "velocity": 86}, {"time": 650, "pitch": 50, "duration": 41, "velocity": 88}, {"time": 656, "pitch": 57, "duration": 8, "velocity": 83}, {"time": 662, "pitch": 69, "duration": 9, "velocity": 88}, {"time": 668, "pitch": 57, "duration": 8, "velocity": 86}, {"time": 674, "pitch": 66, "duration": 8, "velocity": 88}, {"time": 680, "pitch": 57, "duration": 18, "velocity": 88}, {"time": 686, "pitch": 64, "duration": 7, "velocity": 86}, {"time": 692, "pitch": 66, "duration": 7, "velocity": 84}, {"time": 698, "pitch": 52, "duration": 38, "velocity": 86}, {"time": 704, "pitch": 59, "duration": 8, "velocity": 83}, {"time": 710, "pitch": 67, "duration": 7, "velocity": 94}, {"time": 716, "pitch": 59, "duration": 7, "velocity": 83}, {"time": 722, "pitch": 71, "duration": 7, "velocity": 100}, {"time": 728, "pitch": 59, "duration": 7, "velocity": 84}, {"time": 734, "pitch": 67, "duration": 14, "velocity": 98}, {"time": 740, "pitch": 43, "duration": 6, "velocity": 88}, {"time": 746, "pitch": 45, "duration": 40, "velocity": 88}, {"time": 758, "pitch": 64, "duration": 5, "velocity": 86}, {"time": 770, "pitch": 61, "duration": 2, "velocity": 76}, {"time": 770, "pitch": 69, "duration": 12, "velocity": 89}, {"time": 782, "pitch": 64, "duration": 6, "velocity": 86}, {"time": 788, "pitch": 61, "duration": 6, "velocity": 83}, {"time": 794, "pitch": 50, "duration": 43, "velocity": 87}, {"time": 800, "pitch": 57, "duration": 8, "velocity": 71}, {"time": 806, "pitch": 66, "duration": 10, "velocity": 83}, {"time": 812, "pitch": 57, "duration": 8, "velocity": 74}, {"time": 818, "pitch": 69, "duration": 8, "velocity": 87}, {"time": 824, "pitch": 57, "duration": 7, "velocity": 81}, {"time": 830, "pitch": 66, "duration": 14, "velocity": 84}, {"time": 836, "pitch": 57, "duration": 7, "velocity": 73}, {"time": 842, "pitch": 50, "duration": 42, "velocity": 87}, {"time": 848, "pitch": 57, "duration": 7, "velocity": 77}, {"time": 854, "pitch": 66, "duration": 8, "velocity": 86}, {"time": 860, "pitch": 57, "duration": 8, "velocity": 78}, {"time": 866, "pitch": 69, "duration": 9, "velocity": 92}, {"time": 872, "pitch": 57, "duration": 19, "velocity": 81}, {"time": 878, "pitch": 66, "duration": 12, "velocity": 86}, {"time": 884, "pitch": 64, "duration": 6, "velocity": 81}, {"time": 890, "pitch": 52, "duration": 44, "velocity": 82}, {"time": 896, "pitch": 59, "duration": 7, "velocity": 83}, {"time": 902, "pitch": 67, "duration": 8, "velocity": 91}, {"time": 908, "pitch": 59, "duration": 7, "velocity": 82}, {"time": 914, "pitch": 71, "duration": 8, "velocity": 96}, {"time": 920, "pitch": 59, "duration": 7, "velocity": 84}, {"time": 926, "pitch": 67, "duration": 14, "velocity": 86}, {"time": 938, "pitch": 45, "duration": 43, "velocity": 86}, {"time": 944, "pitch": 52, "duration": 7, "velocity": 75}, {"time": 950, "pitch": 61, "duration": 12, "velocity": 83}, {"time": 956, "pitch": 52, "duration": 7, "velocity": 81}, {"time": 962, "pitch": 69, "duration": 12, "velocity": 92}, {"time": 968, "pitch": 52, "duration": 7, "velocity": 83}, {"time": 974, "pitch": 64, "duration": 16, "velocity": 86}, {"time": 980, "pitch": 52, "duration": 4, "velocity": 78}, {"time": 986, "pitch": 50, "duration": 43, "velocity": 92}, {"time": 992, "pitch": 57, "duration": 8, "velocity": 76}, {"time": 998, "pitch": 66, "duration": 10, "velocity": 88}, {"time": 1004, "pitch": 57, "duration": 8, "velocity": 78}, {"time": 1010, "pitch": 69, "duration": 11, "velocity": 98}, {"time": 1016, "pitch": 57, "duration": 7, "velocity": 84}, {"time": 1022, "pitch": 64, "duration": 16, "velocity": 85}, {"time": 1028, "pitch": 57, "duration": 7, "velocity": 81}, {"time": 1034, "pitch": 50, "duration": 42, "velocity": 84}, {"time": 1040, "pitch": 57, "duration": 7, "velocity": 82}, {"time": 1046, "pitch": 66, "duration": 8, "velocity": 91}, {"time": 1052, "pitch": 57, "duration": 8, "velocity": 84}, {"time": 1058, "pitch": 69, "duration": 11, "velocity": 107}, {"time": 1064, "pitch": 57, "duration": 19, "velocity": 84}, {"time": 1070, "pitch": 66, "duration": 13, "velocity": 103}, {"time": 1076, "pitch": 62, "duration": 6, "velocity": 84}, {"time": 1082, "pitch": 52, "duration": 45, "velocity": 83}, {"time": 1088, "pitch": 59, "duration": 8, "velocity": 86}, {"time": 1094, "pitch": 71, "duration": 11, "velocity": 107}, {"time": 1100, "pitch": 59, "duration": 8, "velocity": 86}, {"time": 1106, "pitch": 67, "duration": 12, "velocity": 93}, {"time": 1112, "pitch": 59, "duration": 7, "velocity": 84}, {"time": 1118, "pitch": 64, "duration": 13, "velocity": 88}, {"time": 1124, "pitch": 59, "duration": 2, "velocity": 83}, {"time": 1130, "pitch": 45, "duration": 43, "velocity": 87}, {"time": 1136, "pitch": 52, "duration": 7, "velocity": 79}, {"time": 1142, "pitch": 61, "duration": 13, "velocity": 85}, {"time": 1148, "pitch": 52, "duration": 7, "velocity": 73}, {"time": 1154, "pitch": 69, "duration": 10, "velocity": 89}, {"time": 1160, "pitch": 52, "duration": 7, "velocity": 86}, {"time": 1166, "pitch": 64, "duration": 6, "velocity": 87}, {"time": 1172, "pitch": 61, "duration": 6, "velocity": 74}, {"time": 1178, "pitch": 50, "duration": 43, "velocity": 86}, {"time": 1184, "pitch": 57, "duration": 7, "velocity": 83}, {"time": 1190, "pitch": 66, "duration": 11, "velocity": 89}, {"time": 1196, "pitch": 57, "duration": 8, "velocity": 86}, {"time": 1202, "pitch": 69, "duration": 9, "velocity": 94}, {"time": 1208, "pitch": 57, "duration": 6, "velocity": 86}, {"time": 1214, "pitch": 64, "duration": 13, "velocity": 84}, {"time": 1220, "pitch": 57, "duration": 8, "velocity": 80}, {"time": 1226, "pitch": 50, "duration": 44, "velocity": 88}, {"time": 1232, "pitch": 57, "duration": 7, "velocity": 74}, {"time": 1238, "pitch": 69, "duration": 12, "velocity": 86}, {"time": 1244, "pitch": 57, "duration": 8, "velocity": 82}, {"time": 1250, "pitch": 66, "duration": 8, "velocity": 84}, {"time": 1256, "pitch": 57, "duration": 14, "velocity": 80}, {"time": 1262, "pitch": 62, "duration": 7, "velocity": 84}, {"time": 1268, "pitch": 66, "duration": 8, "velocity": 86}, {"time": 1274, "pitch": 52, "duration": 39, "velocity": 87}, {"time": 1280, "pitch": 59, "duration": 8, "velocity": 80}, {"time": 1286, "pitch": 67, "duration": 12, "velocity": 88}, {"time": 1292, "pitch": 59, "duration": 7, "velocity": 80}, {"time": 1298, "pitch": 71, "duration": 10, "velocity": 88}, {"time": 1304, "pitch": 59, "duration": 7, "velocity": 76}, {"time": 1310, "pitch": 67, "duration": 13, "velocity": 91}, {"time": 1316, "pitch": 43, "duration": 6, "velocity": 88}, {"time": 1322, "pitch": 45, "duration": 44, "velocity": 85}, {"time": 1328, "pitch": 52, "duration": 8, "velocity": 81}, {"time": 1334, "pitch": 61, "duration": 21, "velocity": 83}, {"time": 1340, "pitch": 52, "duration": 7, "velocity": 84}, {"time": 1346, "pitch": 69, "duration": 8, "velocity": 91}, {"time": 1352, "pitch": 52, "duration": 6, "velocity": 83}, {"time": 1358, "pitch": 64, "duration": 15, "velocity": 88}, {"time": 1364, "pitch": 52, "duration": 4, "velocity": 76}, {"time": 1370, "pitch": 50, "duration": 44, "velocity": 86}, {"time": 1376, "pitch": 57, "duration": 8, "velocity": 82}, {"time": 1382, "pitch": 66, "duration": 11, "velocity": 86}, {"time": 1388, "pitch": 57, "duration": 6, "velocity": 86}, {"time": 1394, "pitch": 69, "duration": 13, "velocity": 92}, {"time": 1400, "pitch": 57, "duration": 7, "velocity": 86}, {"time": 1406, "pitch": 66, "duration": 18, "velocity": 97}, {"time": 1412, "pitch": 57, "duration": 7, "velocity": 84}, {"time": 1418, "pitch": 50, "duration": 42, "velocity": 87}, {"time": 1424, "pitch": 57, "duration": 8, "velocity": 84}, {"time": 1430, "pitch": 69, "duration": 12, "velocity": 91}, {"time": 1436, "pitch": 57, "duration": 8, "velocity": 85}, {"time": 1442, "pitch": 66, "duration": 8, "velocity": 86}, {"time": 1448, "pitch": 57, "duration": 10, "velocity": 86}, {"time": 1454, "pitch": 62, "duration": 11, "velocity": 87}, {"time": 1460, "pitch": 66, "duration": 5, "velocity": 89}, {"time": 1466, "pitch": 48, "duration": 38, "velocity": 90}, {"time": 1472, "pitch": 55, "duration": 15, "velocity": 84}, {"time": 1478, "pitch": 60, "duration": 13, "velocity": 76}, {"time": 1484, "pitch": 67, "duration": 10, "velocity": 93}, {"time": 1490, "pitch": 55, "duration": 13, "velocity": 88}, {"time": 1496, "pitch": 64, "duration": 21, "velocity": 89}, {"time": 1502, "pitch": 60, "duration": 15, "velocity": 88}, {"time": 1508, "pitch": 43, "duration": 6, "velocity": 96}, {"time": 1514, "pitch": 45, "duration": 42, "velocity": 89}, {"time": 1520, "pitch": 52, "duration": 8, "velocity": 81}, {"time": 1526, "pitch": 61, "duration": 12, "velocity": 86}, {"time": 1526, "pitch": 69, "duration": 8, "velocity": 81}, {"time": 1532, "pitch": 52, "duration": 8, "velocity": 86}, {"time": 1538, "pitch": 64, "duration": 10, "velocity": 88}, {"time": 1544, "pitch": 52, "duration": 12, "velocity": 84}, {"time": 1550, "pitch": 61, "duration": 7, "velocity": 86}, {"time": 1556, "pitch": 64, "duration": 12, "velocity": 87}, {"time": 1562, "pitch": 50, "duration": 44, "velocity": 88}, {"time": 1568, "pitch": 57, "duration": 8, "velocity": 84}, {"time": 1574, "pitch": 66, "duration": 12, "velocity": 88}, {"time": 1580, "pitch": 57, "duration": 8, "velocity": 87}, {"time": 1586, "pitch": 69, "duration": 11, "velocity": 98}, {"time": 1592, "pitch": 57, "duration": 8, "velocity": 88}, {"time": 1598, "pitch": 64, "duration": 12, "velocity": 87}, {"time": 1604, "pitch": 66, "duration": 5, "velocity": 83}, {"time": 1610, "pitch": 50, "duration": 41, "velocity": 88}, {"time": 1616, "pitch": 57, "duration": 11, "velocity": 81}, {"time": 1622, "pitch": 62, "duration": 9, "velocity": 82}, {"time": 1628, "pitch": 57, "duration": 7, "velocity": 85}, {"time": 1634, "pitch": 69, "duration": 13, "velocity": 107}, {"time": 1640, "pitch": 57, "duration": 11, "velocity": 87}, {"time": 1646, "pitch": 66, "duration": 12, "velocity": 106}, {"time": 1652, "pitch": 62, "duration": 8, "velocity": 94}, {"time": 1658, "pitch": 43, "duration": 44, "velocity": 93}, {"time": 1664, "pitch": 55, "duration": 9, "velocity": 81}, {"time": 1670, "pitch": 67, "duration": 21, "velocity": 104}, {"time": 1676, "pitch": 55, "duration": 9, "velocity": 78}, {"time": 1682, "pitch": 62, "duration": 8, "velocity": 89}, {"time": 1688, "pitch": 55, "duration": 17, "velocity": 84}, {"time": 1694, "pitch": 59, "duration": 18, "velocity": 88}, {"time": 1700, "pitch": 62, "duration": 14, "velocity": 86}, {"time": 1706, "pitch": 43, "duration": 42, "velocity": 86}, {"time": 1712, "pitch": 55, "duration": 12, "velocity": 84}, {"time": 1718, "pitch": 59, "duration": 8, "velocity": 76}, {"time": 1724, "pitch": 62, "duration": 9, "velocity": 91}, {"time": 1730, "pitch": 55, "duration": 7, "velocity": 93}, {"time": 1736, "pitch": 67, "duration": 12, "velocity": 104}, {"time": 1742, "pitch": 55, "duration": 6, "velocity": 87}, {"time": 1748, "pitch": 62, "duration": 4, "velocity": 88}, {"time": 1754, "pitch": 50, "duration": 45, "velocity": 88}, {"time": 1760, "pitch": 57, "duration": 7, "velocity": 72}, {"time": 1766, "pitch": 69, "duration": 12, "velocity": 88}, {"time": 1772, "pitch": 57, "duration": 6, "velocity": 81}, {"time": 1778, "pitch": 66, "duration": 7, "velocity": 84}, {"time": 1784, "pitch": 57, "duration": 7, "velocity": 81}, {"time": 1790, "pitch": 62, "duration": 14, "velocity": 87}, {"time": 1796, "pitch": 66, "duration": 13, "velocity": 87}, {"time": 1802, "pitch": 50, "duration": 41, "velocity": 85}, {"time": 1808, "pitch": 57, "duration": 12, "velocity": 84}, {"time": 1814, "pitch": 62, "duration": 8, "velocity": 80}, {"time": 1820, "pitch": 66, "duration": 8, "velocity": 83}, {"time": 1826, "pitch": 69, "duration": 14, "velocity": 91}, {"time": 1832, "pitch": 57, "duration": 10, "velocity": 86}, {"time": 1838, "pitch": 66, "duration": 12, "velocity": 100}, {"time": 1844, "pitch": 62, "duration": 6, "velocity": 87}, {"time": 1850, "pitch": 52, "duration": 39, "velocity": 89}, {"time": 1856, "pitch": 59, "duration": 13, "velocity": 80}, {"time": 1862, "pitch": 64, "duration": 7, "velocity": 82}, {"time": 1868, "pitch": 67, "duration": 10, "velocity": 91}, {"time": 1874, "pitch": 59, "duration": 14, "velocity": 87}, {"time": 1880, "pitch": 64, "duration": 7, "velocity": 90}, {"time": 1886, "pitch": 67, "duration": 7, "velocity": 94}, {"time": 1892, "pitch": 71, "duration": 8, "velocity": 91}, {"time": 1898, "pitch": 45, "duration": 41, "velocity": 87}, {"time": 1904, "pitch": 52, "duration": 8, "velocity": 80}, {"time": 1910, "pitch": 69, "duration": 11, "velocity": 91}, {"time": 1916, "pitch": 52, "duration": 9, "velocity": 86}, {"time": 1922, "pitch": 64, "duration": 12, "velocity": 91}, {"time": 1928, "pitch": 52, "duration": 12, "velocity": 87}, {"time": 1934, "pitch": 61, "duration": 11, "velocity": 86}, {"time": 1940, "pitch": 64, "duration": 12, "velocity": 87}, {"time": 1946, "pitch": 50, "duration": 44, "velocity": 88}, {"time": 1952, "pitch": 57, "duration": 7, "velocity": 83}, {"time": 1958, "pitch": 66, "duration": 9, "velocity": 91}, {"time": 1964, "pitch": 57, "duration": 7, "velocity": 88}, {"time": 1970, "pitch": 64, "duration": 8, "velocity": 102}, {"time": 1976, "pitch": 57, "duration": 19, "velocity": 91}, {"time": 1982, "pitch": 62, "duration": 7, "velocity": 94}, {"time": 1988, "pitch": 64, "duration": 7, "velocity": 93}, {"time": 1994, "pitch": 50, "duration": 39, "velocity": 90}, {"time": 1994, "pitch": 66, "duration": 8, "velocity": 106}, {"time": 2000, "pitch": 57, "duration": 14, "velocity": 89}, {"time": 2006, "pitch": 62, "duration": 5, "velocity": 100}, {"time": 2012, "pitch": 66, "duration": 9, "velocity": 119}, {"time": 2018, "pitch": 57, "duration": 14, "velocity": 113}, {"time": 2024, "pitch": 62, "duration": 5, "velocity": 114}, {"time": 2030, "pitch": 62, "duration": 1, "velocity": 68}, {"time": 2030, "pitch": 66, "duration": 5, "velocity": 119}, {"time": 2033, "pitch": 69, "duration": 8, "velocity": 113}, {"time": 2042, "pitch": 43, "duration": 44, "velocity": 102}, {"time": 2048, "pitch": 50, "duration": 8, "velocity": 86}, {"time": 2054, "pitch": 67, "duration": 13, "velocity": 113}, {"time": 2060, "pitch": 50, "duration": 9, "velocity": 88}, {"time": 2066, "pitch": 62, "duration": 11, "velocity": 107}, {"time": 2072, "pitch": 50, "duration": 18, "velocity": 88}, {"time": 2078, "pitch": 59, "duration": 7, "velocity": 100}, {"time": 2084, "pitch": 62, "duration": 12, "velocity": 108}, {"time": 2090, "pitch": 43, "duration": 40, "velocity": 90}, {"time": 2093, "pitch": 50, "duration": 8, "velocity": 87}, {"time": 2099, "pitch": 67, "duration": 12, "velocity": 110}, {"time": 2105, "pitch": 50, "duration": 8, "velocity": 87}, {"time": 2111, "pitch": 62, "duration": 9, "velocity": 96}, {"time": 2120, "pitch": 50, "duration": 11, "velocity": 89}, {"time": 2126, "pitch": 59, "duration": 7, "velocity": 104}, {"time": 2132, "pitch": 62, "duration": 7, "velocity": 94}, {"time": 2138, "pitch": 50, "duration": 43, "velocity": 91}, {"time": 2144, "pitch": 57, "duration": 12, "velocity": 86}, {"time": 2150, "pitch": 62, "duration": 4, "velocity": 91}, {"time": 2156, "pitch": 69, "duration": 10, "velocity": 110}, {"time": 2162, "pitch": 57, "duration": 8, "velocity": 91}, {"time": 2165, "pitch": 66, "duration": 8, "velocity": 106}, {"time": 2174, "pitch": 57, "duration": 13, "velocity": 93}, {"time": 2180, "pitch": 62, "duration": 15, "velocity": 94}, {"time": 2186, "pitch": 50, "duration": 42, "velocity": 92}, {"time": 2192, "pitch": 57, "duration": 9, "velocity": 88}, {"time": 2198, "pitch": 66, "duration": 9, "velocity": 109}, {"time": 2204, "pitch": 57, "duration": 8, "velocity": 88}, {"time": 2210, "pitch": 69, "duration": 11, "velocity": 113}, {"time": 2216, "pitch": 57, "duration": 18, "velocity": 100}, {"time": 2222, "pitch": 66, "duration": 12, "velocity": 109}, {"time": 2228, "pitch": 62, "duration": 7, "velocity": 104}, {"time": 2234, "pitch": 52, "duration": 41, "velocity": 87}, {"time": 2240, "pitch": 59, "duration": 19, "velocity": 87}, {"time": 2246, "pitch": 64, "duration": 7, "velocity": 93}, {"time": 2252, "pitch": 67, "duration": 5, "velocity": 108}, {"time": 2258, "pitch": 71, "duration": 16, "velocity": 113}, {"time": 2264, "pitch": 59, "duration": 10, "velocity": 102}, {"time": 2270, "pitch": 67, "duration": 6, "velocity": 108}, {"time": 2276, "pitch": 64, "duration": 10, "velocity": 102}, {"time": 2282, "pitch": 45, "duration": 43, "velocity": 92}, {"time": 2288, "pitch": 52, "duration": 9, "velocity": 87}, {"time": 2294, "pitch": 61, "duration": 12, "velocity": 93}, {"time": 2300, "pitch": 52, "duration": 9, "velocity": 87}, {"time": 2306, "pitch": 69, "duration": 11, "velocity": 94}, {"time": 2312, "pitch": 52, "duration": 13, "velocity": 88}, {"time": 2318, "pitch": 64, "duration": 11, "velocity": 88}, {"time": 2324, "pitch": 61, "duration": 7, "velocity": 89}, {"time": 2330, "pitch": 50, "duration": 43, "velocity": 88}, {"time": 2336, "pitch": 57, "duration": 7, "velocity": 79}, {"time": 2342, "pitch": 66, "duration": 11, "velocity": 89}, {"time": 2348, "pitch": 57, "duration": 7, "velocity": 84}, {"time": 2354, "pitch": 69, "duration": 11, "velocity": 94}, {"time": 2360, "pitch": 57, "duration": 19, "velocity": 83}, {"time": 2366, "pitch": 64, "duration": 7, "velocity": 86}, {"time": 2369, "pitch": 66, "duration": 7, "velocity": 86}, {"time": 2378, "pitch": 50, "duration": 43, "velocity": 84}, {"time": 2378, "pitch": 62, "duration": 13, "velocity": 87}, {"time": 2384, "pitch": 57, "duration": 8, "velocity": 78}, {"time": 2390, "pitch": 66, "duration": 8, "velocity": 84}, {"time": 2396, "pitch": 57, "duration": 8, "velocity": 82}, {"time": 2402, "pitch": 69, "duration": 12, "velocity": 93}, {"time": 2408, "pitch": 57, "duration": 13, "velocity": 86}, {"time": 2414, "pitch": 66, "duration": 12, "velocity": 88}, {"time": 2420, "pitch": 62, "duration": 6, "velocity": 85}, {"time": 2426, "pitch": 52, "duration": 42, "velocity": 89}, {"time": 2432, "pitch": 59, "duration": 8, "velocity": 79}, {"time": 2438, "pitch": 71, "duration": 12, "velocity": 108}, {"time": 2444, "pitch": 59, "duration": 8, "velocity": 82}, {"time": 2450, "pitch": 67, "duration": 11, "velocity": 88}, {"time": 2456, "pitch": 59, "duration": 8, "velocity": 87}, {"time": 2462, "pitch": 64, "duration": 7, "velocity": 93}, {"time": 2468, "pitch": 67, "duration": 8, "velocity": 88}, {"time": 2474, "pitch": 45, "duration": 42, "velocity": 86}, {"time": 2480, "pitch": 52, "duration": 8, "velocity": 82}, {"time": 2486, "pitch": 69, "duration": 12, "velocity": 91}, {"time": 2492, "pitch": 52, "duration": 8, "velocity": 86}, {"time": 2498, "pitch": 64, "duration": 7, "velocity": 90}, {"time": 2504, "pitch": 52, "duration": 12, "velocity": 87}, {"time": 2510, "pitch": 61, "duration": 7, "velocity": 91}, {"time": 2516, "pitch": 64, "duration": 10, "velocity": 90}, {"time": 2522, "pitch": 50, "duration": 45, "velocity": 88}, {"time": 2528, "pitch": 57, "duration": 8, "velocity": 84}, {"time": 2534, "pitch": 66, "duration": 11, "velocity": 103}, {"time": 2540, "pitch": 57, "duration": 7, "velocity": 86}, {"time": 2546, "pitch": 69, "duration": 12, "velocity": 110}, {"time": 2552, "pitch": 57, "duration": 18, "velocity": 87}, {"time": 2558, "pitch": 64, "duration": 7, "velocity": 93}, {"time": 2564, "pitch": 66, "duration": 15, "velocity": 103}, {"time": 2570, "pitch": 50, "duration": 42, "velocity": 89}, {"time": 2576, "pitch": 57, "duration": 20, "velocity": 87}, {"time": 2582, "pitch": 64, "duration": 5, "velocity": 88}, {"time": 2588, "pitch": 66, "duration": 6, "velocity": 103}, {"time": 2594, "pitch": 69, "duration": 12, "velocity": 114}, {"time": 2600, "pitch": 57, "duration": 18, "velocity": 91}, {"time": 2606, "pitch": 66, "duration": 12, "velocity": 103}, {"time": 2618, "pitch": 48, "duration": 40, "velocity": 94}, {"time": 2624, "pitch": 55, "duration": 15, "velocity": 78}, {"time": 2630, "pitch": 67, "duration": 7, "velocity": 89}, {"time": 2636, "pitch": 64, "duration": 11, "velocity": 89}, {"time": 2642, "pitch": 55, "duration": 15, "velocity": 88}, {"time": 2648, "pitch": 60, "duration": 9, "velocity": 86}, {"time": 2654, "pitch": 64, "duration": 15, "velocity": 88}, {"time": 2660, "pitch": 43, "duration": 3, "velocity": 83}, {"time": 2660, "pitch": 67, "duration": 11, "velocity": 89}, {"time": 2666, "pitch": 45, "duration": 39, "velocity": 91}, {"time": 2675, "pitch": 61, "duration": 4, "velocity": 84}, {"time": 2678, "pitch": 64, "duration": 6, "velocity": 91}, {"time": 2684, "pitch": 61, "duration": 13, "velocity": 82}, {"time": 2690, "pitch": 69, "duration": 23, "velocity": 88}, {"time": 2696, "pitch": 64, "duration": 7, "velocity": 85}, {"time": 2702, "pitch": 61, "duration": 8, "velocity": 88}, {"time": 2708, "pitch": 64, "duration": 7, "velocity": 87}, {"time": 2714, "pitch": 50, "duration": 44, "velocity": 88}, {"time": 2720, "pitch": 57, "duration": 20, "velocity": 83}, {"time": 2726, "pitch": 62, "duration": 7, "velocity": 85}, {"time": 2732, "pitch": 66, "duration": 7, "velocity": 85}, {"time": 2738, "pitch": 62, "duration": 1, "velocity": 76}, {"time": 2738, "pitch": 69, "duration": 13, "velocity": 110}, {"time": 2744, "pitch": 57, "duration": 14, "velocity": 91}, {"time": 2750, "pitch": 64, "duration": 7, "velocity": 98}, {"time": 2756, "pitch": 66, "duration": 9, "velocity": 88}, {"time": 2762, "pitch": 50, "duration": 44, "velocity": 88}, {"time": 2768, "pitch": 57, "duration": 7, "velocity": 74}, {"time": 2774, "pitch": 69, "duration": 12, "velocity": 86}, {"time": 2780, "pitch": 57, "duration": 8, "velocity": 82}, {"time": 2786, "pitch": 66, "duration": 8, "velocity": 84}, {"time": 2792, "pitch": 57, "duration": 14, "velocity": 80}, {"time": 2798, "pitch": 62, "duration": 7, "velocity": 84}, {"time": 2804, "pitch": 66, "duration": 8, "velocity": 86}, {"time": 2810, "pitch": 52, "duration": 39, "velocity": 87}, {"time": 2816, "pitch": 59, "duration": 8, "velocity": 80}, {"time": 2822, "pitch": 67, "duration": 12, "velocity": 88}, {"time": 2828, "pitch": 59, "duration": 7, "velocity": 80}, {"time": 2834, "pitch": 71, "duration": 10, "velocity": 88}, {"time": 2840, "pitch": 59, "duration": 7, "velocity": 76}, {"time": 2846, "pitch": 67, "duration": 13, "velocity": 91}, {"time": 2852, "pitch": 43, "duration": 6, "velocity": 88}, {"time": 2858, "pitch": 45, "duration": 44, "velocity": 85}, {"time": 2864, "pitch": 52, "duration": 8, "velocity": 81}, {"time": 2870, "pitch": 61, "duration": 21, "velocity": 83}, {"time": 2876, "pitch": 52, "duration": 7, "velocity": 84}, {"time": 2882, "pitch": 69, "duration": 8, "velocity": 91}, {"time": 2888, "pitch": 52, "duration": 6, "velocity": 83}, {"time": 2894, "pitch": 64, "duration": 15, "velocity": 88}, {"time": 2900, "pitch": 52, "duration": 4, "velocity": 76}, {"time": 2906, "pitch": 50, "duration": 44, "velocity": 86}, {"time": 2912, "pitch": 57, "duration": 8, "velocity": 82}, {"time": 2918, "pitch": 66, "duration": 11, "velocity": 86}, {"time": 2924, "pitch": 57, "duration": 6, "velocity": 86}, {"time": 2930, "pitch": 69, "duration": 13, "velocity": 92}, {"time": 2936, "pitch": 57, "duration": 7, "velocity": 86}, {"time": 2942, "pitch": 66, "duration": 18, "velocity": 97}, {"time": 2948, "pitch": 57, "duration": 7, "velocity": 84}, {"time": 2954, "pitch": 50, "duration": 42, "velocity": 87}, {"time": 2960, "pitch": 57, "duration": 8, "velocity": 84}, {"time": 2966, "pitch": 69, "duration": 12, "velocity": 91}, {"time": 2972, "pitch": 57, "duration": 8, "velocity": 85}, {"time": 2978, "pitch": 66, "duration": 8, "velocity": 86}, {"time": 2984, "pitch": 57, "duration": 10, "velocity": 86}, {"time": 2990, "pitch": 62, "duration": 11, "velocity": 87}, {"time": 2996, "pitch": 66, "duration": 5, "velocity": 89}, {"time": 3002, "pitch": 48, "duration": 38, "velocity": 90}, {"time": 3008, "pitch": 55, "duration": 15, "velocity": 84}, {"time": 3014, "pitch": 60, "duration": 13, "velocity": 76}, {"time": 3020, "pitch": 67, "duration": 10, "velocity": 93}, {"time": 3026, "pitch": 55, "duration": 13, "velocity": 88}, {"time": 3032, "pitch": 64, "duration": 21, "velocity": 89}, {"time": 3038, "pitch": 60, "duration": 15, "velocity": 88}, {"time": 3044, "pitch": 43, "duration": 6, "velocity": 96}, {"time": 3050, "pitch": 45, "duration": 42, "velocity": 89}, {"time": 3056, "pitch": 52, "duration": 8, "velocity": 81}, {"time": 3062, "pitch": 61, "duration": 12, "velocity": 86}, {"time": 3062, "pitch": 69, "duration": 8, "velocity": 81}, {"time": 3068, "pitch": 52, "duration": 8, "velocity": 86}, {"time": 3074, "pitch": 64, "duration": 10, "velocity": 88}, {"time": 3080, "pitch": 52, "duration": 12, "velocity": 84}, {"time": 3086, "pitch": 61, "duration": 7, "velocity": 86}, {"time": 3092, "pitch": 64, "duration": 12, "velocity": 87}, {"time": 3098, "pitch": 50, "duration": 44, "velocity": 88}, {"time": 3104, "pitch": 57, "duration": 8, "velocity": 84}, {"time": 3110, "pitch": 66, "duration": 12, "velocity": 88}, {"time": 3116, "pitch": 57, "duration": 8, "velocity": 87}, {"time": 3122, "pitch": 69, "duration": 11, "velocity": 98}, {"time": 3128, "pitch": 57, "duration": 8, "velocity": 88}, {"time": 3134, "pitch": 64, "duration": 12, "velocity": 87}, {"time": 3140, "pitch": 66, "duration": 5, "velocity": 83}, {"time": 3146, "pitch": 50, "duration": 41, "velocity": 88}, {"time": 3152, "pitch": 57, "duration": 11, "velocity": 81}, {"time": 3158, "pitch": 62, "duration": 9, "velocity": 82}, {"time": 3164, "pitch": 57, "duration": 7, "velocity": 85}, {"time": 3170, "pitch": 69, "duration": 13, "velocity": 107}, {"time": 3176, "pitch": 57, "duration": 11, "velocity": 87}, {"time": 3182, "pitch": 66, "duration": 12, "velocity": 106}, {"time": 3188, "pitch": 62, "duration": 8, "velocity": 94}, {"time": 3194, "pitch": 43, "duration": 44, "velocity": 93}, {"time": 3200, "pitch": 55, "duration": 9, "velocity": 81}, {"time": 3206, "pitch": 67, "duration": 21, "velocity": 104}, {"time": 3212, "pitch": 55, "duration": 9, "velocity": 78}, {"time": 3218, "pitch": 62, "duration": 8, "velocity": 89}, {"time": 3224, "pitch": 55, "duration": 17, "velocity": 84}, {"time": 3230, "pitch": 59, "duration": 18, "velocity": 88}, {"time": 3236, "pitch": 62, "duration": 14, "velocity": 86}, {"time": 3242, "pitch": 43, "duration": 42, "velocity": 86}, {"time": 3248, "pitch": 55, "duration": 12, "velocity": 84}, {"time": 3254, "pitch": 59, "duration": 8, "velocity": 76}, {"time": 3260, "pitch": 62, "duration": 9, "velocity": 91}, {"time": 3266, "pitch": 55, "duration": 7, "velocity": 93}, {"time": 3272, "pitch": 67, "duration": 12, "velocity": 104}, {"time": 3278, "pitch": 55, "duration": 6, "velocity": 87}, {"time": 3284, "pitch": 62, "duration": 4, "velocity": 88}, {"time": 3290, "pitch": 50, "duration": 45, "velocity": 88}, {"time": 3296, "pitch": 57, "duration": 7, "velocity": 72}, {"time": 3302, "pitch": 69, "duration": 12, "velocity": 88}, {"time": 3308, "pitch": 57, "duration": 6, "velocity": 81}, {"time": 3314, "pitch": 66, "duration": 7, "velocity": 84}, {"time": 3320, "pitch": 57, "duration": 7, "velocity": 81}, {"time": 3326, "pitch": 62, "duration": 14, "velocity": 87}, {"time": 3332, "pitch": 66, "duration": 13, "velocity": 87}, {"time": 3338, "pitch": 50, "duration": 41, "velocity": 85}, {"time": 3344, "pitch": 57, "duration": 12, "velocity": 84}, {"time": 3350, "pitch": 62, "duration": 8, "velocity": 80}, {"time": 3356, "pitch": 66, "duration": 8, "velocity": 83}, {"time": 3362, "pitch": 69, "duration": 14, "velocity": 91}, {"time": 3368, "pitch": 57, "duration": 10, "velocity": 86}, {"time": 3374, "pitch": 66, "duration": 12, "velocity": 100}, {"time": 3380, "pitch": 62, "duration": 6, "velocity": 87}, {"time": 3386, "pitch": 52, "duration": 39, "velocity": 89}, {"time": 3392, "pitch": 59, "duration": 13, "velocity": 80}, {"time": 3398, "pitch": 64, "duration": 7, "velocity": 82}, {"time": 3404, "pitch": 67, "duration": 10, "velocity": 91}, {"time": 3410, "pitch": 59, "duration": 14, "velocity": 87}, {"time": 3416, "pitch": 64, "duration": 7, "velocity": 90}, {"time": 3422, "pitch": 67, "duration": 7, "velocity": 94}, {"time": 3428, "pitch": 71, "duration": 8, "velocity": 91}, {"time": 3434, "pitch": 45, "duration": 41, "velocity": 87}, {"time": 3440, "pitch": 52, "duration": 8, "velocity": 80}, {"time": 3446, "pitch": 69, "duration": 11, "velocity": 91}, {"time": 3452, "pitch": 52, "duration": 9, "velocity": 86}, {"time": 3458, "pitch": 64, "duration": 12, "velocity": 91}, {"time": 3464, "pitch": 52, "duration": 12, "velocity": 87}, {"time": 3470, "pitch": 61, "duration": 11, "velocity": 86}, {"time": 3476, "pitch": 64, "duration": 12, "velocity": 87}, {"time": 3482, "pitch": 50, "duration": 44, "velocity": 88}, {"time": 3488, "pitch": 57, "duration": 7, "velocity": 83}, {"time": 3494, "pitch": 66, "duration": 9, "velocity": 91}, {"time": 3500, "pitch": 57, "duration": 7, "velocity": 88}, {"time": 3506, "pitch": 64, "duration": 8, "velocity": 102}, {"time": 3512, "pitch": 57, "duration": 19, "velocity": 91}, {"time": 3518, "pitch": 62, "duration": 7, "velocity": 94}, {"time": 3524, "pitch": 64, "duration": 7, "velocity": 93}, {"time": 3530, "pitch": 50, "duration": 39, "velocity": 90}, {"time": 3530, "pitch": 66, "duration": 8, "velocity": 106}, {"time": 3536, "pitch": 57, "duration": 14, "velocity": 89}, {"time": 3542, "pitch": 62, "duration": 5, "velocity": 100}, {"time": 3548, "pitch": 66, "duration": 9, "velocity": 119}, {"time": 3554, "pitch": 57, "duration": 14, "velocity": 113}, {"time": 3560, "pitch": 62, "duration": 5, "velocity": 114}, {"time": 3566, "pitch": 62, "duration": 1, "velocity": 68}, {"time": 3566, "pitch": 66, "duration": 5, "velocity": 119}, {"time": 3569, "pitch": 69, "duration": 8, "velocity": 113}, {"time": 3578, "pitch": 43, "duration": 44, "velocity": 102}, {"time": 3584, "pitch": 50, "duration": 8, "velocity": 86}, {"time": 3590, "pitch": 67, "duration": 13, "velocity": 113}, {"time": 3596, "pitch": 50, "duration": 9, "velocity": 88}, {"time": 3602, "pitch": 62, "duration": 11, "velocity": 107}, {"time": 3608, "pitch": 50, "duration": 18, "velocity": 88}, {"time": 3614, "pitch": 59, "duration": 7, "velocity": 100}, {"time": 3620, "pitch": 62, "duration": 12, "velocity": 108}, {"time": 3626, "pitch": 43, "duration": 40, "velocity": 90}, {"time": 3632, "pitch": 50, "duration": 5, "velocity": 87}, {"time": 3638, "pitch": 67, "duration": 9, "velocity": 110}, {"time": 3644, "pitch": 50, "duration": 5, "velocity": 87}, {"time": 3650, "pitch": 62, "duration": 6, "velocity": 96}, {"time": 3656, "pitch": 50, "duration": 11, "velocity": 89}, {"time": 3662, "pitch": 59, "duration": 7, "velocity": 104}, {"time": 3668, "pitch": 62, "duration": 7, "velocity": 94}, {"time": 3674, "pitch": 50, "duration": 43, "velocity": 91}, {"time": 3680, "pitch": 57, "duration": 12, "velocity": 86}, {"time": 3686, "pitch": 62, "duration": 4, "velocity": 91}, {"time": 3692, "pitch": 69, "duration": 10, "velocity": 110}, {"time": 3698, "pitch": 57, "duration": 8, "velocity": 91}, {"time": 3704, "pitch": 66, "duration": 5, "velocity": 106}, {"time": 3710, "pitch": 57, "duration": 13, "velocity": 93}, {"time": 3716, "pitch": 62, "duration": 15, "velocity": 94}, {"time": 3722, "pitch": 50, "duration": 42, "velocity": 92}, {"time": 3728, "pitch": 57, "duration": 9, "velocity": 88}, {"time": 3734, "pitch": 66, "duration": 9, "velocity": 109}, {"time": 3740, "pitch": 57, "duration": 8, "velocity": 88}, {"time": 3746, "pitch": 69, "duration": 11, "velocity": 113}, {"time": 3752, "pitch": 57, "duration": 18, "velocity": 100}, {"time": 3758, "pitch": 66, "duration": 12, "velocity": 109}, {"time": 3764, "pitch": 62, "duration": 7, "velocity": 104}, {"time": 3770, "pitch": 52, "duration": 41, "velocity": 87}, {"time": 3776, "pitch": 59, "duration": 19, "velocity": 87}, {"time": 3782, "pitch": 64, "duration": 7, "velocity": 93}, {"time": 3788, "pitch": 67, "duration": 5, "velocity": 108}, {"time": 3794, "pitch": 71, "duration": 16, "velocity": 113}, {"time": 3800, "pitch": 59, "duration": 10, "velocity": 102}, {"time": 3806, "pitch": 67, "duration": 6, "velocity": 108}, {"time": 3812, "pitch": 64, "duration": 10, "velocity": 102}, {"time": 3818, "pitch": 45, "duration": 43, "velocity": 92}, {"time": 3824, "pitch": 52, "duration": 9, "velocity": 87}, {"time": 3830, "pitch": 61, "duration": 12, "velocity": 93}, {"time": 3836, "pitch": 52, "duration": 9, "velocity": 87}, {"time": 3842, "pitch": 69, "duration": 11, "velocity": 94}, {"time": 3848, "pitch": 52, "duration": 13, "velocity": 88}, {"time": 3854, "pitch": 64, "duration": 11, "velocity": 88}, {"time": 3860, "pitch": 61, "duration": 7, "velocity": 89}, {"time": 3866, "pitch": 50, "duration": 43, "velocity": 88}, {"time": 3872, "pitch": 57, "duration": 7, "velocity": 79}, {"time": 3878, "pitch": 66, "duration": 11, "velocity": 89}, {"time": 3884, "pitch": 57, "duration": 7, "velocity": 84}, {"time": 3890, "pitch": 69, "duration": 11, "velocity": 94}, {"time": 3896, "pitch": 57, "duration": 19, "velocity": 83}, {"time": 3902, "pitch": 64, "duration": 7, "velocity": 86}, {"time": 3908, "pitch": 66, "duration": 7, "velocity": 86}, {"time": 3914, "pitch": 50, "duration": 42, "velocity": 86}, {"time": 3920, "pitch": 62, "duration": 13, "velocity": 83}, {"time": 3926, "pitch": 69, "duration": 8, "velocity": 88}, {"time": 3932, "pitch": 57, "duration": 7, "velocity": 70}, {"time": 3938, "pitch": 66, "duration": 9, "velocity": 83}, {"time": 3944, "pitch": 57, "duration": 12, "velocity": 75}, {"time": 3950, "pitch": 62, "duration": 12, "velocity": 82}, {"time": 3956, "pitch": 66, "duration": 6, "velocity": 83}, {"time": 3962, "pitch": 50, "duration": 45, "velocity": 89}, {"time": 3968, "pitch": 57, "duration": 8, "velocity": 80}, {"time": 3974, "pitch": 69, "duration": 12, "velocity": 90}, {"time": 3980, "pitch": 57, "duration": 8, "velocity": 83}, {"time": 3986, "pitch": 66, "duration": 11, "velocity": 103}, {"time": 3992, "pitch": 57, "duration": 19, "velocity": 83}, {"time": 3998, "pitch": 62, "duration": 6, "velocity": 88}, {"time": 4004, "pitch": 66, "duration": 14, "velocity": 93}, {"time": 4010, "pitch": 50, "duration": 40, "velocity": 86}, {"time": 4016, "pitch": 57, "duration": 14, "velocity": 85}, {"time": 4022, "pitch": 69, "duration": 7, "velocity": 100}, {"time": 4028, "pitch": 66, "duration": 9, "velocity": 103}, {"time": 4034, "pitch": 57, "duration": 17, "velocity": 87}, {"time": 4040, "pitch": 62, "duration": 6, "velocity": 88}, {"time": 4046, "pitch": 66, "duration": 6, "velocity": 106}, {"time": 4052, "pitch": 69, "duration": 8, "velocity": 94}, {"time": 4058, "pitch": 48, "duration": 44, "velocity": 87}, {"time": 4064, "pitch": 55, "duration": 19, "velocity": 84}, {"time": 4070, "pitch": 67, "duration": 7, "velocity": 89}, {"time": 4076, "pitch": 64, "duration": 15, "velocity": 94}, {"time": 4088, "pitch": 55, "duration": 13, "velocity": 87}, {"time": 4094, "pitch": 60, "duration": 7, "velocity": 87}, {"time": 4100, "pitch": 64, "duration": 7, "velocity": 88}, {"time": 4106, "pitch": 48, "duration": 43, "velocity": 85}, {"time": 4112, "pitch": 55, "duration": 11, "velocity": 82}, {"time": 4118, "pitch": 60, "duration": 11, "velocity": 69}, {"time": 4124, "pitch": 55, "duration": 7, "velocity": 84}, {"time": 4130, "pitch": 67, "duration": 11, "velocity": 91}, {"time": 4136, "pitch": 55, "duration": 15, "velocity": 82}, {"time": 4142, "pitch": 64, "duration": 15, "velocity": 84}, {"time": 4148, "pitch": 60, "duration": 11, "velocity": 79}, {"time": 4154, "pitch": 45, "duration": 43, "velocity": 88}, {"time": 4160, "pitch": 52, "duration": 8, "velocity": 79}, {"time": 4166, "pitch": 69, "duration": 12, "velocity": 91}, {"time": 4172, "pitch": 52, "duration": 9, "velocity": 83}, {"time": 4178, "pitch": 64, "duration": 12, "velocity": 92}, {"time": 4184, "pitch": 52, "duration": 18, "velocity": 84}, {"time": 4190, "pitch": 61, "duration": 16, "velocity": 86}, {"time": 4196, "pitch": 64, "duration": 14, "velocity": 87}, {"time": 4202, "pitch": 45, "duration": 38, "velocity": 96}, {"time": 4208, "pitch": 52, "duration": 14, "velocity": 81}, {"time": 4214, "pitch": 61, "duration": 12, "velocity": 95}, {"time": 4220, "pitch": 64, "duration": 9, "velocity": 108}, {"time": 4226, "pitch": 52, "duration": 15, "velocity": 113}, {"time": 4232, "pitch": 61, "duration": 6, "velocity": 113}, {"time": 4238, "pitch": 64, "duration": 5, "velocity": 94}, {"time": 4244, "pitch": 69, "duration": 7, "velocity": 91}, {"time": 4250, "pitch": 43, "duration": 43, "velocity": 98}, {"time": 4256, "pitch": 50, "duration": 8, "velocity": 82}, {"time": 4262, "pitch": 67, "duration": 20, "velocity": 92}, {"time": 4268, "pitch": 50, "duration": 9, "velocity": 90}, {"time": 4274, "pitch": 62, "duration": 9, "velocity": 107}, {"time": 4280, "pitch": 50, "duration": 18, "velocity": 91}, {"time": 4286, "pitch": 59, "duration": 15, "velocity": 87}, {"time": 4292, "pitch": 62, "duration": 13, "velocity": 88}, {"time": 4298, "pitch": 43, "duration": 37, "velocity": 90}, {"time": 4304, "pitch": 50, "duration": 13, "velocity": 88}, {"time": 4310, "pitch": 59, "duration": 5, "velocity": 82}, {"time": 4316, "pitch": 59, "duration": 1, "velocity": 69}, {"time": 4316, "pitch": 67, "duration": 9, "velocity": 102}, {"time": 4322, "pitch": 50, "duration": 14, "velocity": 100}, {"time": 4328, "pitch": 59, "duration": 8, "velocity": 88}, {"time": 4334, "pitch": 62, "duration": 11, "velocity": 89}, {"time": 4340, "pitch": 59, "duration": 3, "velocity": 86}, {"time": 4346, "pitch": 50, "duration": 45, "velocity": 100}, {"time": 4352, "pitch": 57, "duration": 8, "velocity": 87}, {"time": 4358, "pitch": 69, "duration": 13, "velocity": 92}, {"time": 4364, "pitch": 57, "duration": 9, "velocity": 91}, {"time": 4370, "pitch": 66, "duration": 10, "velocity": 113}, {"time": 4376, "pitch": 57, "duration": 18, "velocity": 88}, {"time": 4382, "pitch": 62, "duration": 6, "velocity": 87}, {"time": 4388, "pitch": 66, "duration": 16, "velocity": 95}, {"time": 4394, "pitch": 50, "duration": 44, "velocity": 91}, {"time": 4400, "pitch": 57, "duration": 21, "velocity": 88}, {"time": 4406, "pitch": 62, "duration": 3, "velocity": 76}, {"time": 4412, "pitch": 69, "duration": 15, "velocity": 107}, {"time": 4418, "pitch": 66, "duration": 8, "velocity": 103}, {"time": 4424, "pitch": 57, "duration": 12, "velocity": 92}, {"time": 4430, "pitch": 62, "duration": 7, "velocity": 92}, {"time": 4430, "pitch": 69, "duration": 1, "velocity": 79}, {"time": 4436, "pitch": 66, "duration": 7, "velocity": 106}, {"time": 4442, "pitch": 52, "duration": 41, "velocity": 93}, {"time": 4448, "pitch": 59, "duration": 20, "velocity": 84}, {"time": 4454, "pitch": 64, "duration": 5, "velocity": 83}, {"time": 4460, "pitch": 71, "duration": 10, "velocity": 107}, {"time": 4466, "pitch": 67, "duration": 10, "velocity": 108}, {"time": 4472, "pitch": 59, "duration": 11, "velocity": 91}, {"time": 4478, "pitch": 64, "duration": 7, "velocity": 102}, {"time": 4484, "pitch": 67, "duration": 6, "velocity": 116}, {"time": 4487, "pitch": 64, "duration": 5, "velocity": 54}, {"time": 4490, "pitch": 45, "duration": 41, "velocity": 94}, {"time": 4496, "pitch": 52, "duration": 14, "velocity": 88}, {"time": 4502, "pitch": 69, "duration": 14, "velocity": 91}, {"time": 4508, "pitch": 64, "duration": 8, "velocity": 94}, {"time": 4514, "pitch": 52, "duration": 18, "velocity": 94}, {"time": 4520, "pitch": 61, "duration": 9, "velocity": 88}, {"time": 4526, "pitch": 64, "duration": 15, "velocity": 91}, {"time": 4532, "pitch": 69, "duration": 7, "velocity": 89}, {"time": 4538, "pitch": 50, "duration": 44, "velocity": 91}, {"time": 4544, "pitch": 57, "duration": 19, "velocity": 87}, {"time": 4550, "pitch": 62, "duration": 5, "velocity": 85}, {"time": 4556, "pitch": 66, "duration": 6, "velocity": 109}, {"time": 4562, "pitch": 69, "duration": 12, "velocity": 113}, {"time": 4568, "pitch": 57, "duration": 19, "velocity": 98}, {"time": 4574, "pitch": 64, "duration": 6, "velocity": 102}, {"time": 4580, "pitch": 66, "duration": 16, "velocity": 109}, {"time": 4586, "pitch": 50, "duration": 39, "velocity": 94}, {"time": 4592, "pitch": 57, "duration": 14, "velocity": 91}, {"time": 4598, "pitch": 62, "duration": 5, "velocity": 102}, {"time": 4604, "pitch": 69, "duration": 13, "velocity": 110}, {"time": 4610, "pitch": 57, "duration": 14, "velocity": 114}, {"time": 4616, "pitch": 66, "duration": 6, "velocity": 116}, {"time": 4622, "pitch": 62, "duration": 7, "velocity": 108}, {"time": 4628, "pitch": 66, "duration": 7, "velocity": 119}, {"time": 4634, "pitch": 43, "duration": 43, "velocity": 104}, {"time": 4640, "pitch": 50, "duration": 15, "velocity": 90}, {"time": 4646, "pitch": 59, "duration": 5, "velocity": 89}, {"time": 4652, "pitch": 67, "duration": 13, "velocity": 114}, {"time": 4658, "pitch": 50, "duration": 24, "velocity": 114}, {"time": 4664, "pitch": 62, "duration": 6, "velocity": 108}, {"time": 4670, "pitch": 59, "duration": 7, "velocity": 94}, {"time": 4676, "pitch": 62, "duration": 14, "velocity": 110}, {"time": 4682, "pitch": 43, "duration": 40, "velocity": 93}, {"time": 4688, "pitch": 50, "duration": 20, "velocity": 89}, {"time": 4694, "pitch": 59, "duration": 7, "velocity": 92}, {"time": 4700, "pitch": 67, "duration": 14, "velocity": 114}, {"time": 4706, "pitch": 62, "duration": 9, "velocity": 116}, {"time": 4712, "pitch": 50, "duration": 11, "velocity": 104}, {"time": 4718, "pitch": 59, "duration": 10, "velocity": 108}, {"time": 4724, "pitch": 62, "duration": 7, "velocity": 114}, {"time": 4730, "pitch": 50, "duration": 44, "velocity": 98}, {"time": 4736, "pitch": 57, "duration": 14, "velocity": 87}, {"time": 4742, "pitch": 62, "duration": 5, "velocity": 90}, {"time": 4748, "pitch": 62, "duration": 2, "velocity": 78}, {"time": 4748, "pitch": 69, "duration": 13, "velocity": 110}, {"time": 4754, "pitch": 57, "duration": 25, "velocity": 114}, {"time": 4760, "pitch": 66, "duration": 6, "velocity": 103}, {"time": 4766, "pitch": 62, "duration": 5, "velocity": 100}, {"time": 4772, "pitch": 62, "duration": 1, "velocity": 81}, {"time": 4772, "pitch": 69, "duration": 14, "velocity": 107}, {"time": 4778, "pitch": 50, "duration": 45, "velocity": 91}, {"time": 4784, "pitch": 57, "duration": 22, "velocity": 89}, {"time": 4790, "pitch": 62, "duration": 4, "velocity": 91}, {"time": 4796, "pitch": 69, "duration": 14, "velocity": 108}, {"time": 4802, "pitch": 66, "duration": 9, "velocity": 113}, {"time": 4808, "pitch": 57, "duration": 14, "velocity": 102}, {"time": 4814, "pitch": 62, "duration": 10, "velocity": 102}, {"time": 4820, "pitch": 66, "duration": 6, "velocity": 113}, {"time": 4826, "pitch": 48, "duration": 40, "velocity": 102}, {"time": 4832, "pitch": 55, "duration": 15, "velocity": 87}, {"time": 4838, "pitch": 60, "duration": 4, "velocity": 102}, {"time": 4844, "pitch": 67, "duration": 11, "velocity": 116}, {"time": 4850, "pitch": 55, "duration": 17, "velocity": 92}, {"time": 4856, "pitch": 64, "duration": 6, "velocity": 108}, {"time": 4862, "pitch": 60, "duration": 6, "velocity": 96}, {"time": 4868, "pitch": 64, "duration": 8, "velocity": 110}, {"time": 4874, "pitch": 45, "duration": 39, "velocity": 94}, {"time": 4880, "pitch": 52, "duration": 21, "velocity": 88}, {"time": 4886, "pitch": 61, "duration": 14, "velocity": 90}, {"time": 4892, "pitch": 69, "duration": 15, "velocity": 92}, {"time": 4898, "pitch": 64, "duration": 9, "velocity": 92}, {"time": 4904, "pitch": 52, "duration": 10, "velocity": 88}, {"time": 4910, "pitch": 61, "duration": 12, "velocity": 91}, {"time": 4916, "pitch": 69, "duration": 8, "velocity": 88}, {"time": 4922, "pitch": 50, "duration": 44, "velocity": 91}, {"time": 4928, "pitch": 57, "duration": 20, "velocity": 86}, {"time": 4934, "pitch": 62, "duration": 14, "velocity": 82}, {"time": 4940, "pitch": 69, "duration": 14, "velocity": 92}, {"time": 4946, "pitch": 66, "duration": 9, "velocity": 90}, {"time": 4952, "pitch": 57, "duration": 19, "velocity": 88}, {"time": 4958, "pitch": 62, "duration": 13, "velocity": 86}, {"time": 4964, "pitch": 66, "duration": 13, "velocity": 84}, {"time": 4970, "pitch": 50, "duration": 42, "velocity": 87}, {"time": 4976, "pitch": 57, "duration": 21, "velocity": 86}, {"time": 4982, "pitch": 62, "duration": 7, "velocity": 79}, {"time": 4988, "pitch": 66, "duration": 7, "velocity": 88}, {"time": 4994, "pitch": 69, "duration": 15, "velocity": 98}, {"time": 5000, "pitch": 57, "duration": 18, "velocity": 84}, {"time": 5006, "pitch": 66, "duration": 14, "velocity": 83}, {"time": 5012, "pitch": 62, "duration": 7, "velocity": 85}, {"time": 5015, "pitch": 50, "duration": 47, "velocity": 88}, {"time": 5024, "pitch": 57, "duration": 21, "velocity": 81}, {"time": 5030, "pitch": 62, "duration": 18, "velocity": 75}, {"time": 5036, "pitch": 69, "duration": 7, "velocity": 78}, {"time": 5042, "pitch": 66, "duration": 10, "velocity": 84}, {"time": 5048, "pitch": 57, "duration": 19, "velocity": 72}, {"time": 5054, "pitch": 62, "duration": 18, "velocity": 72}, {"time": 5060, "pitch": 66, "duration": 17, "velocity": 84}, {"time": 5066, "pitch": 50, "duration": 43, "velocity": 80}, {"time": 5072, "pitch": 57, "duration": 38, "velocity": 69}, {"time": 5078, "pitch": 62, "duration": 13, "velocity": 76}, {"time": 5084, "pitch": 69, "duration": 11, "velocity": 80}, {"time": 5090, "pitch": 66, "duration": 7, "velocity": 84}, {"time": 5096, "pitch": 62, "duration": 10, "velocity": 66}, {"time": 5102, "pitch": 66, "duration": 6, "velocity": 82}, {"time": 5108, "pitch": 69, "duration": 11, "velocity": 87}, {"time": 5114, "pitch": 50, "duration": 43, "velocity": 83}, {"time": 5120, "pitch": 57, "duration": 43, "velocity": 77}, {"time": 5126, "pitch": 62, "duration": 12, "velocity": 68}, {"time": 5132, "pitch": 69, "duration": 11, "velocity": 80}, {"time": 5138, "pitch": 66, "duration": 6, "velocity": 82}, {"time": 5144, "pitch": 62, "duration": 9, "velocity": 76}, {"time": 5150, "pitch": 66, "duration": 21, "velocity": 80}, {"time": 5156, "pitch": 69, "duration": 12, "velocity": 84}, {"time": 5162, "pitch": 50, "duration": 45, "velocity": 82}, {"time": 5168, "pitch": 57, "duration": 20, "velocity": 81}, {"time": 5174, "pitch": 62, "duration": 18, "velocity": 65}, {"time": 5180, "pitch": 69, "duration": 12, "velocity": 76}, {"time": 5186, "pitch": 66, "duration": 11, "velocity": 79}, {"time": 5192, "pitch": 57, "duration": 14, "velocity": 78}, {"time": 5198, "pitch": 62, "duration": 17, "velocity": 76}, {"time": 5204, "pitch": 66, "duration": 14, "velocity": 83}, {"time": 5210, "pitch": 50, "duration": 44, "velocity": 82}, {"time": 5216, "pitch": 57, "duration": 20, "velocity": 81}, {"time": 5222, "pitch": 62, "duration": 18, "velocity": 69}, {"time": 5228, "pitch": 69, "duration": 12, "velocity": 82}, {"time": 5234, "pitch": 66, "duration": 11, "velocity": 82}, {"time": 5240, "pitch": 57, "duration": 18, "velocity": 48}, {"time": 5246, "pitch": 62, "duration": 17, "velocity": 73}, {"time": 5252, "pitch": 66, "duration": 14, "velocity": 79}, {"time": 5258, "pitch": 50, "duration": 45, "velocity": 76}, {"time": 5264, "pitch": 57, "duration": 19, "velocity": 74}, {"time": 5270, "pitch": 62, "duration": 15, "velocity": 74}, {"time": 5276, "pitch": 69, "duration": 11, "velocity": 82}, {"time": 5282, "pitch": 66, "duration": 9, "velocity": 81}, {"time": 5288, "pitch": 57, "duration": 14, "velocity": 46}, {"time": 5294, "pitch": 62, "duration": 14, "velocity": 69}, {"time": 5300, "pitch": 66, "duration": 15, "velocity": 83}, {"time": 5306, "pitch": 50, "duration": 43, "velocity": 79}, {"time": 5312, "pitch": 57, "duration": 37, "velocity": 79}, {"time": 5318, "pitch": 62, "duration": 8, "velocity": 70}, {"time": 5324, "pitch": 69, "duration": 6, "velocity": 76}, {"time": 5330, "pitch": 66, "duration": 11, "velocity": 83}, {"time": 5342, "pitch": 62, "duration": 18, "velocity": 70}, {"time": 5348, "pitch": 66, "duration": 18, "velocity": 80}, {"time": 5354, "pitch": 50, "duration": 46, "velocity": 75}, {"time": 5360, "pitch": 57, "duration": 20, "velocity": 72}, {"time": 5366, "pitch": 62, "duration": 19, "velocity": 74}, {"time": 5372, "pitch": 69, "duration": 7, "velocity": 81}, {"time": 5378, "pitch": 66, "duration": 12, "velocity": 83}, {"time": 5384, "pitch": 57, "duration": 15, "velocity": 70}, {"time": 5390, "pitch": 62, "duration": 11, "velocity": 74}, {"time": 5396, "pitch": 66, "duration": 5, "velocity": 82}]}]}