{"metadata": {"schema_version": "0.2", "title": "None", "source_filename": "339.mid", "source_format": "midi"}, "resolution": 12, "tempos": [{"time": 0, "qpm": 72.00011520018433}], "time_signatures": [{"time": 0, "numerator": 4, "denominator": 4}], "tracks": [{"program": 4, "is_drum": false, "name": "MELODY", "notes": [{"time": 237, "pitch": 64, "duration": 1, "velocity": 113}, {"time": 243, "pitch": 68, "duration": 4, "velocity": 117}, {"time": 249, "pitch": 66, "duration": 4, "velocity": 113}, {"time": 255, "pitch": 69, "duration": 4, "velocity": 119}, {"time": 261, "pitch": 69, "duration": 4, "velocity": 116}, {"time": 273, "pitch": 68, "duration": 1, "velocity": 91}, {"time": 279, "pitch": 66, "duration": 3, "velocity": 110}, {"time": 285, "pitch": 71, "duration": 5, "velocity": 113}, {"time": 315, "pitch": 75, "duration": 4, "velocity": 116}, {"time": 321, "pitch": 76, "duration": 3, "velocity": 114}, {"time": 327, "pitch": 76, "duration": 4, "velocity": 117}, {"time": 345, "pitch": 80, "duration": 4, "velocity": 114}, {"time": 351, "pitch": 75, "duration": 11, "velocity": 113}, {"time": 363, "pitch": 73, "duration": 10, "velocity": 116}, {"time": 375, "pitch": 71, "duration": 5, "velocity": 117}, {"time": 417, "pitch": 71, "duration": 3, "velocity": 107}, {"time": 423, "pitch": 73, "duration": 5, "velocity": 110}, {"time": 429, "pitch": 76, "duration": 3, "velocity": 91}, {"time": 435, "pitch": 76, "duration": 5, "velocity": 114}, {"time": 441, "pitch": 73, "duration": 5, "velocity": 116}, {"time": 447, "pitch": 78, "duration": 5, "velocity": 117}, {"time": 453, "pitch": 76, "duration": 5, "velocity": 110}, {"time": 459, "pitch": 75, "duration": 5, "velocity": 117}, {"time": 465, "pitch": 76, "duration": 5, "velocity": 114}, {"time": 471, "pitch": 71, "duration": 4, "velocity": 117}, {"time": 477, "pitch": 78, "duration": 3, "velocity": 114}, {"time": 483, "pitch": 78, "duration": 4, "velocity": 113}, {"time": 492, "pitch": 75, "duration": 1, "velocity": 117}, {"time": 495, "pitch": 76, "duration": 3, "velocity": 116}, {"time": 519, "pitch": 73, "duration": 5, "velocity": 91}, {"time": 525, "pitch": 71, "duration": 4, "velocity": 114}, {"time": 531, "pitch": 73, "duration": 3, "velocity": 114}, {"time": 537, "pitch": 76, "duration": 4, "velocity": 114}, {"time": 543, "pitch": 76, "duration": 4, "velocity": 116}, {"time": 567, "pitch": 75, "duration": 8, "velocity": 116}, {"time": 579, "pitch": 73, "duration": 8, "velocity": 117}, {"time": 591, "pitch": 71, "duration": 8, "velocity": 116}, {"time": 621, "pitch": 64, "duration": 1, "velocity": 113}, {"time": 627, "pitch": 68, "duration": 4, "velocity": 117}, {"time": 633, "pitch": 66, "duration": 4, "velocity": 113}, {"time": 639, "pitch": 69, "duration": 4, "velocity": 119}, {"time": 645, "pitch": 69, "duration": 4, "velocity": 116}, {"time": 657, "pitch": 68, "duration": 1, "velocity": 91}, {"time": 663, "pitch": 66, "duration": 3, "velocity": 110}, {"time": 669, "pitch": 71, "duration": 5, "velocity": 113}, {"time": 699, "pitch": 75, "duration": 4, "velocity": 116}, {"time": 705, "pitch": 76, "duration": 3, "velocity": 114}, {"time": 711, "pitch": 76, "duration": 4, "velocity": 117}, {"time": 729, "pitch": 80, "duration": 4, "velocity": 114}, {"time": 735, "pitch": 75, "duration": 11, "velocity": 113}, {"time": 753, "pitch": 73, "duration": 10, "velocity": 116}, {"time": 765, "pitch": 71, "duration": 5, "velocity": 117}, {"time": 801, "pitch": 71, "duration": 3, "velocity": 107}, {"time": 807, "pitch": 73, "duration": 5, "velocity": 110}, {"time": 813, "pitch": 76, "duration": 3, "velocity": 91}, {"time": 819, "pitch": 76, "duration": 5, "velocity": 114}, {"time": 825, "pitch": 73, "duration": 5, "velocity": 116}, {"time": 831, "pitch": 78, "duration": 5, "velocity": 117}, {"time": 837, "pitch": 76, "duration": 5, "velocity": 110}, {"time": 843, "pitch": 75, "duration": 5, "velocity": 117}, {"time": 849, "pitch": 76, "duration": 5, "velocity": 114}, {"time": 855, "pitch": 71, "duration": 4, "velocity": 117}, {"time": 861, "pitch": 78, "duration": 3, "velocity": 114}, {"time": 867, "pitch": 78, "duration": 4, "velocity": 113}, {"time": 876, "pitch": 75, "duration": 1, "velocity": 117}, {"time": 879, "pitch": 76, "duration": 3, "velocity": 116}, {"time": 897, "pitch": 76, "duration": 4, "velocity": 116}, {"time": 903, "pitch": 80, "duration": 5, "velocity": 119}, {"time": 909, "pitch": 78, "duration": 6, "velocity": 114}, {"time": 915, "pitch": 80, "duration": 5, "velocity": 114}, {"time": 921, "pitch": 78, "duration": 6, "velocity": 113}, {"time": 927, "pitch": 80, "duration": 5, "velocity": 116}, {"time": 936, "pitch": 81, "duration": 5, "velocity": 107}, {"time": 945, "pitch": 80, "duration": 3, "velocity": 113}, {"time": 954, "pitch": 78, "duration": 2, "velocity": 114}, {"time": 960, "pitch": 78, "duration": 3, "velocity": 113}, {"time": 993, "pitch": 71, "duration": 5, "velocity": 98}, {"time": 999, "pitch": 71, "duration": 5, "velocity": 117}, {"time": 1011, "pitch": 80, "duration": 3, "velocity": 117}, {"time": 1017, "pitch": 78, "duration": 4, "velocity": 119}, {"time": 1023, "pitch": 81, "duration": 3, "velocity": 123}, {"time": 1029, "pitch": 80, "duration": 4, "velocity": 116}, {"time": 1035, "pitch": 76, "duration": 4, "velocity": 119}, {"time": 1041, "pitch": 78, "duration": 3, "velocity": 114}, {"time": 1047, "pitch": 80, "duration": 5, "velocity": 119}, {"time": 1065, "pitch": 78, "duration": 3, "velocity": 116}, {"time": 1071, "pitch": 78, "duration": 4, "velocity": 117}, {"time": 1095, "pitch": 71, "duration": 4, "velocity": 116}, {"time": 1107, "pitch": 80, "duration": 4, "velocity": 116}, {"time": 1113, "pitch": 78, "duration": 3, "velocity": 114}, {"time": 1119, "pitch": 81, "duration": 3, "velocity": 113}, {"time": 1125, "pitch": 80, "duration": 3, "velocity": 113}, {"time": 1131, "pitch": 76, "duration": 3, "velocity": 113}, {"time": 1137, "pitch": 78, "duration": 3, "velocity": 113}, {"time": 1143, "pitch": 80, "duration": 5, "velocity": 117}, {"time": 1161, "pitch": 78, "duration": 3, "velocity": 116}, {"time": 1167, "pitch": 78, "duration": 4, "velocity": 116}, {"time": 1179, "pitch": 76, "duration": 4, "velocity": 110}, {"time": 1185, "pitch": 75, "duration": 3, "velocity": 113}, {"time": 1191, "pitch": 73, "duration": 6, "velocity": 117}, {"time": 1203, "pitch": 85, "duration": 3, "velocity": 116}, {"time": 1209, "pitch": 83, "duration": 3, "velocity": 114}, {"time": 1215, "pitch": 83, "duration": 4, "velocity": 119}, {"time": 1221, "pitch": 81, "duration": 5, "velocity": 116}, {"time": 1227, "pitch": 80, "duration": 5, "velocity": 116}, {"time": 1233, "pitch": 78, "duration": 4, "velocity": 116}, {"time": 1239, "pitch": 83, "duration": 4, "velocity": 119}, {"time": 1245, "pitch": 81, "duration": 3, "velocity": 119}, {"time": 1251, "pitch": 81, "duration": 3, "velocity": 119}, {"time": 1257, "pitch": 80, "duration": 3, "velocity": 117}, {"time": 1263, "pitch": 80, "duration": 3, "velocity": 117}, {"time": 1275, "pitch": 80, "duration": 3, "velocity": 116}, {"time": 1281, "pitch": 80, "duration": 3, "velocity": 114}, {"time": 1287, "pitch": 78, "duration": 5, "velocity": 119}, {"time": 1293, "pitch": 80, "duration": 3, "velocity": 110}, {"time": 1299, "pitch": 83, "duration": 4, "velocity": 113}, {"time": 1305, "pitch": 81, "duration": 3, "velocity": 119}, {"time": 1311, "pitch": 81, "duration": 4, "velocity": 123}, {"time": 1317, "pitch": 80, "duration": 7, "velocity": 114}, {"time": 1329, "pitch": 78, "duration": 3, "velocity": 116}, {"time": 1335, "pitch": 76, "duration": 3, "velocity": 117}, {"time": 1341, "pitch": 78, "duration": 5, "velocity": 117}, {"time": 1377, "pitch": 71, "duration": 5, "velocity": 98}, {"time": 1383, "pitch": 71, "duration": 5, "velocity": 117}, {"time": 1395, "pitch": 80, "duration": 3, "velocity": 117}, {"time": 1401, "pitch": 78, "duration": 4, "velocity": 119}, {"time": 1407, "pitch": 81, "duration": 3, "velocity": 123}, {"time": 1413, "pitch": 80, "duration": 4, "velocity": 116}, {"time": 1419, "pitch": 76, "duration": 4, "velocity": 119}, {"time": 1425, "pitch": 78, "duration": 3, "velocity": 114}, {"time": 1431, "pitch": 80, "duration": 5, "velocity": 119}, {"time": 1449, "pitch": 78, "duration": 3, "velocity": 116}, {"time": 1455, "pitch": 78, "duration": 4, "velocity": 117}, {"time": 1473, "pitch": 71, "duration": 4, "velocity": 116}, {"time": 1479, "pitch": 71, "duration": 4, "velocity": 116}, {"time": 1491, "pitch": 80, "duration": 4, "velocity": 116}, {"time": 1497, "pitch": 78, "duration": 3, "velocity": 114}, {"time": 1503, "pitch": 81, "duration": 3, "velocity": 113}, {"time": 1509, "pitch": 80, "duration": 3, "velocity": 113}, {"time": 1515, "pitch": 76, "duration": 3, "velocity": 113}, {"time": 1521, "pitch": 78, "duration": 3, "velocity": 113}, {"time": 1527, "pitch": 80, "duration": 5, "velocity": 117}, {"time": 1545, "pitch": 78, "duration": 3, "velocity": 116}, {"time": 1551, "pitch": 78, "duration": 4, "velocity": 116}, {"time": 1563, "pitch": 76, "duration": 4, "velocity": 110}, {"time": 1569, "pitch": 75, "duration": 3, "velocity": 113}, {"time": 1575, "pitch": 73, "duration": 6, "velocity": 117}, {"time": 1587, "pitch": 85, "duration": 3, "velocity": 116}, {"time": 1593, "pitch": 83, "duration": 3, "velocity": 114}, {"time": 1599, "pitch": 83, "duration": 4, "velocity": 119}, {"time": 1605, "pitch": 81, "duration": 5, "velocity": 116}, {"time": 1611, "pitch": 80, "duration": 5, "velocity": 116}, {"time": 1617, "pitch": 78, "duration": 4, "velocity": 116}, {"time": 1623, "pitch": 83, "duration": 4, "velocity": 119}, {"time": 1629, "pitch": 81, "duration": 3, "velocity": 119}, {"time": 1635, "pitch": 81, "duration": 3, "velocity": 119}, {"time": 1641, "pitch": 80, "duration": 3, "velocity": 117}, {"time": 1647, "pitch": 80, "duration": 3, "velocity": 117}, {"time": 1659, "pitch": 80, "duration": 3, "velocity": 116}, {"time": 1665, "pitch": 80, "duration": 3, "velocity": 114}, {"time": 1671, "pitch": 78, "duration": 5, "velocity": 119}, {"time": 1677, "pitch": 80, "duration": 3, "velocity": 110}, {"time": 1683, "pitch": 83, "duration": 4, "velocity": 113}, {"time": 1689, "pitch": 81, "duration": 3, "velocity": 119}, {"time": 1695, "pitch": 81, "duration": 4, "velocity": 123}, {"time": 1701, "pitch": 80, "duration": 7, "velocity": 114}, {"time": 1713, "pitch": 78, "duration": 3, "velocity": 116}, {"time": 1719, "pitch": 76, "duration": 3, "velocity": 117}, {"time": 1725, "pitch": 78, "duration": 5, "velocity": 117}, {"time": 1761, "pitch": 76, "duration": 4, "velocity": 113}, {"time": 1767, "pitch": 80, "duration": 5, "velocity": 119}, {"time": 1773, "pitch": 76, "duration": 3, "velocity": 114}, {"time": 1779, "pitch": 76, "duration": 4, "velocity": 116}, {"time": 1785, "pitch": 73, "duration": 4, "velocity": 114}, {"time": 1791, "pitch": 76, "duration": 4, "velocity": 117}, {"time": 1803, "pitch": 83, "duration": 4, "velocity": 116}, {"time": 1809, "pitch": 85, "duration": 5, "velocity": 114}, {"time": 1815, "pitch": 83, "duration": 4, "velocity": 114}, {"time": 1821, "pitch": 83, "duration": 5, "velocity": 114}, {"time": 1827, "pitch": 76, "duration": 7, "velocity": 116}, {"time": 1857, "pitch": 76, "duration": 4, "velocity": 113}, {"time": 1863, "pitch": 80, "duration": 4, "velocity": 116}, {"time": 1869, "pitch": 76, "duration": 4, "velocity": 114}, {"time": 1875, "pitch": 76, "duration": 5, "velocity": 114}, {"time": 1881, "pitch": 73, "duration": 4, "velocity": 114}, {"time": 1887, "pitch": 76, "duration": 5, "velocity": 117}, {"time": 1899, "pitch": 83, "duration": 4, "velocity": 114}, {"time": 1905, "pitch": 85, "duration": 5, "velocity": 114}, {"time": 1911, "pitch": 83, "duration": 4, "velocity": 114}, {"time": 1917, "pitch": 83, "duration": 4, "velocity": 113}, {"time": 1923, "pitch": 76, "duration": 7, "velocity": 113}, {"time": 2133, "pitch": 64, "duration": 1, "velocity": 113}, {"time": 2139, "pitch": 68, "duration": 4, "velocity": 117}, {"time": 2145, "pitch": 66, "duration": 4, "velocity": 113}, {"time": 2151, "pitch": 69, "duration": 4, "velocity": 119}, {"time": 2160, "pitch": 69, "duration": 4, "velocity": 116}, {"time": 2172, "pitch": 68, "duration": 1, "velocity": 106}, {"time": 2178, "pitch": 66, "duration": 3, "velocity": 110}, {"time": 2184, "pitch": 71, "duration": 5, "velocity": 113}, {"time": 2211, "pitch": 75, "duration": 4, "velocity": 116}, {"time": 2217, "pitch": 76, "duration": 3, "velocity": 114}, {"time": 2223, "pitch": 76, "duration": 4, "velocity": 117}, {"time": 2235, "pitch": 80, "duration": 4, "velocity": 114}, {"time": 2247, "pitch": 75, "duration": 11, "velocity": 113}, {"time": 2259, "pitch": 73, "duration": 10, "velocity": 116}, {"time": 2271, "pitch": 71, "duration": 5, "velocity": 117}, {"time": 2313, "pitch": 71, "duration": 3, "velocity": 107}, {"time": 2319, "pitch": 73, "duration": 5, "velocity": 110}, {"time": 2325, "pitch": 76, "duration": 3, "velocity": 91}, {"time": 2331, "pitch": 76, "duration": 5, "velocity": 114}, {"time": 2337, "pitch": 73, "duration": 5, "velocity": 116}, {"time": 2343, "pitch": 78, "duration": 5, "velocity": 117}, {"time": 2349, "pitch": 76, "duration": 5, "velocity": 110}, {"time": 2355, "pitch": 75, "duration": 5, "velocity": 117}, {"time": 2361, "pitch": 76, "duration": 5, "velocity": 114}, {"time": 2367, "pitch": 71, "duration": 4, "velocity": 117}, {"time": 2373, "pitch": 78, "duration": 3, "velocity": 114}, {"time": 2379, "pitch": 78, "duration": 4, "velocity": 113}, {"time": 2388, "pitch": 75, "duration": 1, "velocity": 117}, {"time": 2391, "pitch": 76, "duration": 3, "velocity": 116}, {"time": 2409, "pitch": 76, "duration": 4, "velocity": 116}, {"time": 2415, "pitch": 80, "duration": 5, "velocity": 119}, {"time": 2421, "pitch": 78, "duration": 6, "velocity": 114}, {"time": 2427, "pitch": 80, "duration": 5, "velocity": 114}, {"time": 2433, "pitch": 78, "duration": 6, "velocity": 113}, {"time": 2439, "pitch": 80, "duration": 5, "velocity": 116}, {"time": 2448, "pitch": 81, "duration": 5, "velocity": 107}, {"time": 2457, "pitch": 80, "duration": 3, "velocity": 113}, {"time": 2466, "pitch": 78, "duration": 2, "velocity": 114}, {"time": 2469, "pitch": 78, "duration": 3, "velocity": 113}, {"time": 2505, "pitch": 71, "duration": 5, "velocity": 98}, {"time": 2511, "pitch": 71, "duration": 5, "velocity": 117}, {"time": 2523, "pitch": 80, "duration": 3, "velocity": 117}, {"time": 2529, "pitch": 78, "duration": 4, "velocity": 119}, {"time": 2535, "pitch": 81, "duration": 3, "velocity": 123}, {"time": 2541, "pitch": 80, "duration": 4, "velocity": 116}, {"time": 2547, "pitch": 76, "duration": 4, "velocity": 119}, {"time": 2553, "pitch": 78, "duration": 3, "velocity": 114}, {"time": 2559, "pitch": 80, "duration": 5, "velocity": 119}, {"time": 2577, "pitch": 78, "duration": 3, "velocity": 116}, {"time": 2583, "pitch": 78, "duration": 4, "velocity": 117}, {"time": 2607, "pitch": 71, "duration": 4, "velocity": 116}, {"time": 2619, "pitch": 80, "duration": 4, "velocity": 116}, {"time": 2625, "pitch": 78, "duration": 3, "velocity": 114}, {"time": 2631, "pitch": 81, "duration": 3, "velocity": 113}, {"time": 2637, "pitch": 80, "duration": 3, "velocity": 113}, {"time": 2643, "pitch": 76, "duration": 3, "velocity": 113}, {"time": 2649, "pitch": 78, "duration": 3, "velocity": 113}, {"time": 2655, "pitch": 80, "duration": 5, "velocity": 117}, {"time": 2673, "pitch": 78, "duration": 3, "velocity": 116}, {"time": 2679, "pitch": 78, "duration": 4, "velocity": 116}, {"time": 2691, "pitch": 76, "duration": 4, "velocity": 110}, {"time": 2697, "pitch": 75, "duration": 3, "velocity": 113}, {"time": 2703, "pitch": 73, "duration": 6, "velocity": 117}, {"time": 2715, "pitch": 85, "duration": 3, "velocity": 116}, {"time": 2721, "pitch": 83, "duration": 3, "velocity": 114}, {"time": 2727, "pitch": 83, "duration": 4, "velocity": 119}, {"time": 2733, "pitch": 81, "duration": 5, "velocity": 116}, {"time": 2739, "pitch": 80, "duration": 5, "velocity": 116}, {"time": 2745, "pitch": 78, "duration": 4, "velocity": 116}, {"time": 2751, "pitch": 83, "duration": 4, "velocity": 119}, {"time": 2757, "pitch": 81, "duration": 3, "velocity": 119}, {"time": 2763, "pitch": 81, "duration": 3, "velocity": 119}, {"time": 2769, "pitch": 80, "duration": 3, "velocity": 117}, {"time": 2775, "pitch": 80, "duration": 3, "velocity": 117}, {"time": 2787, "pitch": 80, "duration": 3, "velocity": 116}, {"time": 2793, "pitch": 80, "duration": 3, "velocity": 114}, {"time": 2799, "pitch": 78, "duration": 5, "velocity": 119}, {"time": 2805, "pitch": 80, "duration": 3, "velocity": 110}, {"time": 2811, "pitch": 83, "duration": 4, "velocity": 113}, {"time": 2817, "pitch": 81, "duration": 3, "velocity": 119}, {"time": 2823, "pitch": 81, "duration": 4, "velocity": 123}, {"time": 2829, "pitch": 80, "duration": 7, "velocity": 114}, {"time": 2841, "pitch": 78, "duration": 3, "velocity": 116}, {"time": 2847, "pitch": 76, "duration": 3, "velocity": 117}, {"time": 2853, "pitch": 78, "duration": 5, "velocity": 117}, {"time": 2889, "pitch": 71, "duration": 5, "velocity": 98}, {"time": 2895, "pitch": 71, "duration": 5, "velocity": 117}, {"time": 2907, "pitch": 80, "duration": 3, "velocity": 117}, {"time": 2913, "pitch": 78, "duration": 4, "velocity": 119}, {"time": 2919, "pitch": 81, "duration": 3, "velocity": 123}, {"time": 2925, "pitch": 80, "duration": 4, "velocity": 116}, {"time": 2931, "pitch": 76, "duration": 4, "velocity": 119}, {"time": 2937, "pitch": 78, "duration": 3, "velocity": 114}, {"time": 2943, "pitch": 80, "duration": 5, "velocity": 119}, {"time": 2961, "pitch": 78, "duration": 3, "velocity": 116}, {"time": 2967, "pitch": 78, "duration": 4, "velocity": 117}, {"time": 2985, "pitch": 71, "duration": 4, "velocity": 116}, {"time": 2991, "pitch": 71, "duration": 4, "velocity": 116}, {"time": 3003, "pitch": 80, "duration": 4, "velocity": 116}, {"time": 3009, "pitch": 78, "duration": 3, "velocity": 114}, {"time": 3015, "pitch": 81, "duration": 3, "velocity": 113}, {"time": 3021, "pitch": 80, "duration": 3, "velocity": 113}, {"time": 3027, "pitch": 76, "duration": 3, "velocity": 113}, {"time": 3033, "pitch": 78, "duration": 3, "velocity": 113}, {"time": 3039, "pitch": 80, "duration": 5, "velocity": 117}, {"time": 3057, "pitch": 78, "duration": 3, "velocity": 116}, {"time": 3063, "pitch": 78, "duration": 4, "velocity": 116}, {"time": 3075, "pitch": 76, "duration": 4, "velocity": 110}, {"time": 3081, "pitch": 75, "duration": 3, "velocity": 113}, {"time": 3087, "pitch": 73, "duration": 6, "velocity": 117}, {"time": 3099, "pitch": 85, "duration": 3, "velocity": 116}, {"time": 3105, "pitch": 83, "duration": 3, "velocity": 114}, {"time": 3111, "pitch": 83, "duration": 4, "velocity": 119}, {"time": 3117, "pitch": 81, "duration": 5, "velocity": 116}, {"time": 3123, "pitch": 80, "duration": 5, "velocity": 116}, {"time": 3129, "pitch": 78, "duration": 4, "velocity": 116}, {"time": 3135, "pitch": 83, "duration": 4, "velocity": 119}, {"time": 3141, "pitch": 81, "duration": 3, "velocity": 119}, {"time": 3147, "pitch": 81, "duration": 3, "velocity": 119}, {"time": 3153, "pitch": 80, "duration": 3, "velocity": 117}, {"time": 3159, "pitch": 80, "duration": 3, "velocity": 117}, {"time": 3171, "pitch": 80, "duration": 3, "velocity": 116}, {"time": 3177, "pitch": 80, "duration": 3, "velocity": 114}, {"time": 3183, "pitch": 78, "duration": 5, "velocity": 119}, {"time": 3189, "pitch": 80, "duration": 3, "velocity": 110}, {"time": 3195, "pitch": 83, "duration": 4, "velocity": 113}, {"time": 3201, "pitch": 81, "duration": 3, "velocity": 119}, {"time": 3207, "pitch": 81, "duration": 4, "velocity": 123}, {"time": 3213, "pitch": 80, "duration": 7, "velocity": 114}, {"time": 3225, "pitch": 78, "duration": 3, "velocity": 116}, {"time": 3231, "pitch": 75, "duration": 3, "velocity": 117}, {"time": 3237, "pitch": 78, "duration": 5, "velocity": 117}, {"time": 3273, "pitch": 76, "duration": 4, "velocity": 113}, {"time": 3279, "pitch": 80, "duration": 5, "velocity": 119}, {"time": 3285, "pitch": 76, "duration": 3, "velocity": 114}, {"time": 3291, "pitch": 76, "duration": 4, "velocity": 116}, {"time": 3297, "pitch": 73, "duration": 4, "velocity": 114}, {"time": 3303, "pitch": 76, "duration": 4, "velocity": 117}, {"time": 3315, "pitch": 83, "duration": 4, "velocity": 116}, {"time": 3321, "pitch": 85, "duration": 5, "velocity": 114}, {"time": 3327, "pitch": 83, "duration": 4, "velocity": 114}, {"time": 3333, "pitch": 83, "duration": 5, "velocity": 114}, {"time": 3339, "pitch": 76, "duration": 7, "velocity": 116}, {"time": 3369, "pitch": 76, "duration": 4, "velocity": 113}, {"time": 3375, "pitch": 80, "duration": 4, "velocity": 116}, {"time": 3381, "pitch": 76, "duration": 4, "velocity": 114}, {"time": 3387, "pitch": 76, "duration": 5, "velocity": 114}, {"time": 3393, "pitch": 73, "duration": 4, "velocity": 114}, {"time": 3399, "pitch": 76, "duration": 5, "velocity": 117}, {"time": 3411, "pitch": 83, "duration": 4, "velocity": 114}, {"time": 3417, "pitch": 85, "duration": 5, "velocity": 114}, {"time": 3426, "pitch": 83, "duration": 4, "velocity": 114}, {"time": 3432, "pitch": 83, "duration": 4, "velocity": 113}, {"time": 3438, "pitch": 76, "duration": 7, "velocity": 113}]}, {"program": 0, "is_drum": false, "name": "PIANO", "notes": [{"time": 3, "pitch": 52, "duration": 36, "velocity": 100}, {"time": 9, "pitch": 59, "duration": 7, "velocity": 85}, {"time": 15, "pitch": 66, "duration": 6, "velocity": 116}, {"time": 21, "pitch": 59, "duration": 7, "velocity": 83}, {"time": 27, "pitch": 68, "duration": 6, "velocity": 117}, {"time": 54, "pitch": 52, "duration": 36, "velocity": 98}, {"time": 60, "pitch": 60, "duration": 6, "velocity": 87}, {"time": 66, "pitch": 66, "duration": 6, "velocity": 108}, {"time": 72, "pitch": 60, "duration": 8, "velocity": 86}, {"time": 78, "pitch": 68, "duration": 12, "velocity": 116}, {"time": 102, "pitch": 52, "duration": 38, "velocity": 96}, {"time": 108, "pitch": 59, "duration": 6, "velocity": 83}, {"time": 114, "pitch": 66, "duration": 6, "velocity": 102}, {"time": 120, "pitch": 59, "duration": 7, "velocity": 84}, {"time": 126, "pitch": 68, "duration": 13, "velocity": 114}, {"time": 151, "pitch": 45, "duration": 28, "velocity": 87}, {"time": 157, "pitch": 52, "duration": 7, "velocity": 85}, {"time": 163, "pitch": 66, "duration": 7, "velocity": 113}, {"time": 169, "pitch": 52, "duration": 10, "velocity": 77}, {"time": 175, "pitch": 64, "duration": 13, "velocity": 108}, {"time": 231, "pitch": 52, "duration": 44, "velocity": 90}, {"time": 237, "pitch": 59, "duration": 7, "velocity": 84}, {"time": 243, "pitch": 66, "duration": 6, "velocity": 93}, {"time": 249, "pitch": 59, "duration": 27, "velocity": 78}, {"time": 255, "pitch": 68, "duration": 1, "velocity": 107}, {"time": 258, "pitch": 69, "duration": 1, "velocity": 107}, {"time": 279, "pitch": 56, "duration": 15, "velocity": 102}, {"time": 285, "pitch": 63, "duration": 4, "velocity": 74}, {"time": 291, "pitch": 71, "duration": 10, "velocity": 107}, {"time": 297, "pitch": 56, "duration": 17, "velocity": 86}, {"time": 303, "pitch": 66, "duration": 11, "velocity": 102}, {"time": 327, "pitch": 45, "duration": 17, "velocity": 88}, {"time": 333, "pitch": 52, "duration": 15, "velocity": 84}, {"time": 339, "pitch": 61, "duration": 14, "velocity": 100}, {"time": 351, "pitch": 47, "duration": 17, "velocity": 100}, {"time": 357, "pitch": 54, "duration": 11, "velocity": 86}, {"time": 363, "pitch": 63, "duration": 11, "velocity": 113}, {"time": 375, "pitch": 52, "duration": 38, "velocity": 94}, {"time": 381, "pitch": 59, "duration": 6, "velocity": 78}, {"time": 387, "pitch": 64, "duration": 11, "velocity": 94}, {"time": 393, "pitch": 59, "duration": 19, "velocity": 78}, {"time": 399, "pitch": 63, "duration": 13, "velocity": 91}, {"time": 423, "pitch": 45, "duration": 20, "velocity": 87}, {"time": 429, "pitch": 52, "duration": 14, "velocity": 83}, {"time": 435, "pitch": 61, "duration": 7, "velocity": 91}, {"time": 447, "pitch": 45, "duration": 18, "velocity": 85}, {"time": 447, "pitch": 59, "duration": 21, "velocity": 69}, {"time": 447, "pitch": 63, "duration": 20, "velocity": 76}, {"time": 447, "pitch": 66, "duration": 19, "velocity": 87}, {"time": 471, "pitch": 44, "duration": 18, "velocity": 86}, {"time": 477, "pitch": 51, "duration": 12, "velocity": 82}, {"time": 483, "pitch": 63, "duration": 6, "velocity": 113}, {"time": 489, "pitch": 66, "duration": 5, "velocity": 91}, {"time": 495, "pitch": 49, "duration": 19, "velocity": 87}, {"time": 501, "pitch": 56, "duration": 11, "velocity": 83}, {"time": 507, "pitch": 61, "duration": 13, "velocity": 90}, {"time": 519, "pitch": 42, "duration": 41, "velocity": 86}, {"time": 525, "pitch": 49, "duration": 36, "velocity": 84}, {"time": 531, "pitch": 57, "duration": 13, "velocity": 88}, {"time": 537, "pitch": 54, "duration": 27, "velocity": 78}, {"time": 543, "pitch": 61, "duration": 23, "velocity": 88}, {"time": 567, "pitch": 47, "duration": 40, "velocity": 88}, {"time": 573, "pitch": 54, "duration": 33, "velocity": 78}, {"time": 579, "pitch": 59, "duration": 19, "velocity": 78}, {"time": 585, "pitch": 63, "duration": 12, "velocity": 86}, {"time": 597, "pitch": 61, "duration": 7, "velocity": 86}, {"time": 603, "pitch": 59, "duration": 11, "velocity": 91}, {"time": 615, "pitch": 52, "duration": 44, "velocity": 90}, {"time": 621, "pitch": 59, "duration": 7, "velocity": 84}, {"time": 627, "pitch": 66, "duration": 6, "velocity": 93}, {"time": 633, "pitch": 59, "duration": 27, "velocity": 78}, {"time": 663, "pitch": 56, "duration": 15, "velocity": 102}, {"time": 669, "pitch": 63, "duration": 4, "velocity": 74}, {"time": 675, "pitch": 71, "duration": 10, "velocity": 107}, {"time": 681, "pitch": 56, "duration": 17, "velocity": 86}, {"time": 687, "pitch": 66, "duration": 11, "velocity": 102}, {"time": 711, "pitch": 45, "duration": 17, "velocity": 88}, {"time": 717, "pitch": 52, "duration": 15, "velocity": 84}, {"time": 723, "pitch": 61, "duration": 14, "velocity": 100}, {"time": 735, "pitch": 47, "duration": 17, "velocity": 100}, {"time": 741, "pitch": 54, "duration": 11, "velocity": 86}, {"time": 747, "pitch": 63, "duration": 11, "velocity": 113}, {"time": 759, "pitch": 52, "duration": 38, "velocity": 94}, {"time": 765, "pitch": 59, "duration": 6, "velocity": 78}, {"time": 771, "pitch": 64, "duration": 11, "velocity": 94}, {"time": 777, "pitch": 59, "duration": 19, "velocity": 78}, {"time": 783, "pitch": 63, "duration": 13, "velocity": 91}, {"time": 807, "pitch": 45, "duration": 20, "velocity": 87}, {"time": 813, "pitch": 52, "duration": 14, "velocity": 83}, {"time": 819, "pitch": 61, "duration": 7, "velocity": 91}, {"time": 831, "pitch": 45, "duration": 18, "velocity": 85}, {"time": 831, "pitch": 59, "duration": 21, "velocity": 69}, {"time": 831, "pitch": 63, "duration": 20, "velocity": 76}, {"time": 831, "pitch": 66, "duration": 19, "velocity": 87}, {"time": 855, "pitch": 44, "duration": 18, "velocity": 86}, {"time": 861, "pitch": 51, "duration": 12, "velocity": 82}, {"time": 867, "pitch": 63, "duration": 6, "velocity": 113}, {"time": 873, "pitch": 66, "duration": 5, "velocity": 91}, {"time": 879, "pitch": 49, "duration": 19, "velocity": 87}, {"time": 885, "pitch": 56, "duration": 11, "velocity": 83}, {"time": 891, "pitch": 61, "duration": 13, "velocity": 90}, {"time": 903, "pitch": 42, "duration": 41, "velocity": 86}, {"time": 909, "pitch": 49, "duration": 36, "velocity": 84}, {"time": 915, "pitch": 57, "duration": 13, "velocity": 88}, {"time": 921, "pitch": 54, "duration": 27, "velocity": 78}, {"time": 927, "pitch": 61, "duration": 23, "velocity": 88}, {"time": 951, "pitch": 47, "duration": 40, "velocity": 88}, {"time": 957, "pitch": 54, "duration": 33, "velocity": 78}, {"time": 963, "pitch": 59, "duration": 19, "velocity": 78}, {"time": 969, "pitch": 63, "duration": 12, "velocity": 86}, {"time": 981, "pitch": 61, "duration": 7, "velocity": 86}, {"time": 987, "pitch": 59, "duration": 11, "velocity": 91}, {"time": 999, "pitch": 52, "duration": 43, "velocity": 100}, {"time": 1005, "pitch": 59, "duration": 8, "velocity": 87}, {"time": 1011, "pitch": 71, "duration": 12, "velocity": 107}, {"time": 1017, "pitch": 59, "duration": 10, "velocity": 85}, {"time": 1023, "pitch": 68, "duration": 12, "velocity": 100}, {"time": 1029, "pitch": 59, "duration": 12, "velocity": 75}, {"time": 1035, "pitch": 64, "duration": 6, "velocity": 98}, {"time": 1041, "pitch": 42, "duration": 6, "velocity": 102}, {"time": 1041, "pitch": 68, "duration": 6, "velocity": 86}, {"time": 1047, "pitch": 44, "duration": 42, "velocity": 94}, {"time": 1053, "pitch": 59, "duration": 18, "velocity": 81}, {"time": 1059, "pitch": 68, "duration": 25, "velocity": 100}, {"time": 1065, "pitch": 56, "duration": 10, "velocity": 76}, {"time": 1071, "pitch": 63, "duration": 14, "velocity": 89}, {"time": 1083, "pitch": 56, "duration": 12, "velocity": 85}, {"time": 1089, "pitch": 59, "duration": 7, "velocity": 88}, {"time": 1095, "pitch": 49, "duration": 40, "velocity": 92}, {"time": 1101, "pitch": 56, "duration": 23, "velocity": 86}, {"time": 1107, "pitch": 61, "duration": 7, "velocity": 91}, {"time": 1113, "pitch": 64, "duration": 6, "velocity": 89}, {"time": 1119, "pitch": 68, "duration": 17, "velocity": 107}, {"time": 1125, "pitch": 56, "duration": 8, "velocity": 88}, {"time": 1131, "pitch": 61, "duration": 11, "velocity": 86}, {"time": 1137, "pitch": 64, "duration": 5, "velocity": 89}, {"time": 1143, "pitch": 50, "duration": 21, "velocity": 116}, {"time": 1149, "pitch": 62, "duration": 7, "velocity": 86}, {"time": 1155, "pitch": 66, "duration": 6, "velocity": 91}, {"time": 1161, "pitch": 69, "duration": 6, "velocity": 103}, {"time": 1167, "pitch": 52, "duration": 18, "velocity": 113}, {"time": 1173, "pitch": 59, "duration": 5, "velocity": 94}, {"time": 1179, "pitch": 68, "duration": 6, "velocity": 110}, {"time": 1185, "pitch": 64, "duration": 7, "velocity": 102}, {"time": 1191, "pitch": 45, "duration": 19, "velocity": 103}, {"time": 1197, "pitch": 52, "duration": 18, "velocity": 81}, {"time": 1203, "pitch": 57, "duration": 7, "velocity": 90}, {"time": 1209, "pitch": 61, "duration": 7, "velocity": 102}, {"time": 1215, "pitch": 47, "duration": 18, "velocity": 93}, {"time": 1221, "pitch": 54, "duration": 12, "velocity": 83}, {"time": 1227, "pitch": 59, "duration": 7, "velocity": 98}, {"time": 1233, "pitch": 63, "duration": 22, "velocity": 96}, {"time": 1239, "pitch": 44, "duration": 18, "velocity": 100}, {"time": 1245, "pitch": 51, "duration": 12, "velocity": 84}, {"time": 1251, "pitch": 56, "duration": 11, "velocity": 87}, {"time": 1257, "pitch": 63, "duration": 1, "velocity": 89}, {"time": 1257, "pitch": 68, "duration": 10, "velocity": 98}, {"time": 1263, "pitch": 49, "duration": 19, "velocity": 90}, {"time": 1269, "pitch": 56, "duration": 12, "velocity": 84}, {"time": 1269, "pitch": 61, "duration": 18, "velocity": 85}, {"time": 1275, "pitch": 64, "duration": 7, "velocity": 114}, {"time": 1281, "pitch": 63, "duration": 6, "velocity": 93}, {"time": 1287, "pitch": 42, "duration": 17, "velocity": 108}, {"time": 1293, "pitch": 49, "duration": 11, "velocity": 87}, {"time": 1299, "pitch": 57, "duration": 10, "velocity": 109}, {"time": 1305, "pitch": 44, "duration": 6, "velocity": 87}, {"time": 1311, "pitch": 45, "duration": 20, "velocity": 119}, {"time": 1317, "pitch": 57, "duration": 12, "velocity": 90}, {"time": 1323, "pitch": 61, "duration": 12, "velocity": 98}, {"time": 1329, "pitch": 64, "duration": 6, "velocity": 87}, {"time": 1335, "pitch": 47, "duration": 42, "velocity": 104}, {"time": 1341, "pitch": 54, "duration": 36, "velocity": 85}, {"time": 1353, "pitch": 59, "duration": 10, "velocity": 82}, {"time": 1371, "pitch": 59, "duration": 6, "velocity": 89}, {"time": 1377, "pitch": 61, "duration": 5, "velocity": 90}, {"time": 1383, "pitch": 52, "duration": 42, "velocity": 100}, {"time": 1389, "pitch": 59, "duration": 8, "velocity": 86}, {"time": 1395, "pitch": 64, "duration": 19, "velocity": 102}, {"time": 1395, "pitch": 71, "duration": 11, "velocity": 110}, {"time": 1401, "pitch": 59, "duration": 9, "velocity": 83}, {"time": 1407, "pitch": 68, "duration": 7, "velocity": 91}, {"time": 1413, "pitch": 59, "duration": 11, "velocity": 86}, {"time": 1419, "pitch": 68, "duration": 6, "velocity": 110}, {"time": 1425, "pitch": 64, "duration": 4, "velocity": 89}, {"time": 1431, "pitch": 56, "duration": 23, "velocity": 86}, {"time": 1431, "pitch": 60, "duration": 18, "velocity": 93}, {"time": 1431, "pitch": 68, "duration": 8, "velocity": 93}, {"time": 1443, "pitch": 63, "duration": 16, "velocity": 87}, {"time": 1449, "pitch": 68, "duration": 6, "velocity": 42}, {"time": 1455, "pitch": 56, "duration": 23, "velocity": 84}, {"time": 1461, "pitch": 60, "duration": 12, "velocity": 81}, {"time": 1467, "pitch": 68, "duration": 8, "velocity": 100}, {"time": 1473, "pitch": 63, "duration": 9, "velocity": 85}, {"time": 1479, "pitch": 49, "duration": 40, "velocity": 92}, {"time": 1485, "pitch": 61, "duration": 6, "velocity": 87}, {"time": 1491, "pitch": 64, "duration": 11, "velocity": 108}, {"time": 1497, "pitch": 56, "duration": 21, "velocity": 78}, {"time": 1503, "pitch": 68, "duration": 18, "velocity": 104}, {"time": 1515, "pitch": 61, "duration": 11, "velocity": 87}, {"time": 1521, "pitch": 64, "duration": 6, "velocity": 88}, {"time": 1527, "pitch": 47, "duration": 39, "velocity": 87}, {"time": 1539, "pitch": 59, "duration": 14, "velocity": 86}, {"time": 1545, "pitch": 63, "duration": 4, "velocity": 94}, {"time": 1551, "pitch": 66, "duration": 11, "velocity": 116}, {"time": 1557, "pitch": 59, "duration": 8, "velocity": 82}, {"time": 1563, "pitch": 63, "duration": 6, "velocity": 113}, {"time": 1569, "pitch": 64, "duration": 6, "velocity": 108}, {"time": 1575, "pitch": 45, "duration": 19, "velocity": 84}, {"time": 1575, "pitch": 61, "duration": 18, "velocity": 107}, {"time": 1581, "pitch": 52, "duration": 14, "velocity": 81}, {"time": 1587, "pitch": 57, "duration": 7, "velocity": 86}, {"time": 1593, "pitch": 69, "duration": 3, "velocity": 88}, {"time": 1599, "pitch": 47, "duration": 23, "velocity": 88}, {"time": 1599, "pitch": 59, "duration": 8, "velocity": 88}, {"time": 1599, "pitch": 66, "duration": 5, "velocity": 93}, {"time": 1605, "pitch": 54, "duration": 9, "velocity": 72}, {"time": 1611, "pitch": 59, "duration": 6, "velocity": 108}, {"time": 1611, "pitch": 66, "duration": 6, "velocity": 107}, {"time": 1617, "pitch": 61, "duration": 5, "velocity": 85}, {"time": 1623, "pitch": 44, "duration": 18, "velocity": 87}, {"time": 1623, "pitch": 59, "duration": 7, "velocity": 91}, {"time": 1623, "pitch": 66, "duration": 7, "velocity": 92}, {"time": 1629, "pitch": 51, "duration": 12, "velocity": 69}, {"time": 1635, "pitch": 59, "duration": 7, "velocity": 102}, {"time": 1635, "pitch": 66, "duration": 11, "velocity": 104}, {"time": 1641, "pitch": 56, "duration": 5, "velocity": 84}, {"time": 1647, "pitch": 49, "duration": 14, "velocity": 87}, {"time": 1647, "pitch": 61, "duration": 5, "velocity": 87}, {"time": 1647, "pitch": 64, "duration": 6, "velocity": 93}, {"time": 1647, "pitch": 68, "duration": 5, "velocity": 88}, {"time": 1653, "pitch": 56, "duration": 8, "velocity": 77}, {"time": 1659, "pitch": 61, "duration": 10, "velocity": 102}, {"time": 1659, "pitch": 68, "duration": 5, "velocity": 104}, {"time": 1665, "pitch": 49, "duration": 6, "velocity": 87}, {"time": 1671, "pitch": 42, "duration": 17, "velocity": 85}, {"time": 1671, "pitch": 57, "duration": 8, "velocity": 100}, {"time": 1671, "pitch": 66, "duration": 6, "velocity": 92}, {"time": 1677, "pitch": 49, "duration": 10, "velocity": 72}, {"time": 1683, "pitch": 57, "duration": 6, "velocity": 106}, {"time": 1683, "pitch": 66, "duration": 6, "velocity": 98}, {"time": 1689, "pitch": 44, "duration": 6, "velocity": 92}, {"time": 1695, "pitch": 45, "duration": 24, "velocity": 100}, {"time": 1695, "pitch": 61, "duration": 10, "velocity": 107}, {"time": 1695, "pitch": 64, "duration": 9, "velocity": 102}, {"time": 1707, "pitch": 61, "duration": 11, "velocity": 100}, {"time": 1707, "pitch": 64, "duration": 9, "velocity": 98}, {"time": 1719, "pitch": 47, "duration": 42, "velocity": 87}, {"time": 1719, "pitch": 59, "duration": 9, "velocity": 87}, {"time": 1719, "pitch": 63, "duration": 10, "velocity": 93}, {"time": 1719, "pitch": 66, "duration": 9, "velocity": 92}, {"time": 1731, "pitch": 59, "duration": 6, "velocity": 88}, {"time": 1731, "pitch": 63, "duration": 10, "velocity": 88}, {"time": 1731, "pitch": 66, "duration": 7, "velocity": 88}, {"time": 1737, "pitch": 54, "duration": 24, "velocity": 81}, {"time": 1743, "pitch": 61, "duration": 20, "velocity": 88}, {"time": 1767, "pitch": 52, "duration": 45, "velocity": 87}, {"time": 1767, "pitch": 59, "duration": 8, "velocity": 84}, {"time": 1767, "pitch": 68, "duration": 8, "velocity": 88}, {"time": 1779, "pitch": 59, "duration": 9, "velocity": 89}, {"time": 1779, "pitch": 68, "duration": 7, "velocity": 91}, {"time": 1791, "pitch": 57, "duration": 18, "velocity": 86}, {"time": 1791, "pitch": 61, "duration": 8, "velocity": 90}, {"time": 1791, "pitch": 64, "duration": 8, "velocity": 88}, {"time": 1803, "pitch": 61, "duration": 10, "velocity": 104}, {"time": 1803, "pitch": 64, "duration": 8, "velocity": 102}, {"time": 1815, "pitch": 52, "duration": 45, "velocity": 82}, {"time": 1815, "pitch": 59, "duration": 7, "velocity": 77}, {"time": 1815, "pitch": 64, "duration": 8, "velocity": 82}, {"time": 1815, "pitch": 68, "duration": 6, "velocity": 81}, {"time": 1827, "pitch": 59, "duration": 7, "velocity": 73}, {"time": 1827, "pitch": 64, "duration": 9, "velocity": 73}, {"time": 1827, "pitch": 68, "duration": 7, "velocity": 74}, {"time": 1839, "pitch": 59, "duration": 10, "velocity": 71}, {"time": 1839, "pitch": 64, "duration": 11, "velocity": 67}, {"time": 1839, "pitch": 68, "duration": 10, "velocity": 70}, {"time": 1851, "pitch": 59, "duration": 6, "velocity": 73}, {"time": 1851, "pitch": 64, "duration": 9, "velocity": 74}, {"time": 1851, "pitch": 68, "duration": 7, "velocity": 75}, {"time": 1863, "pitch": 52, "duration": 19, "velocity": 84}, {"time": 1863, "pitch": 59, "duration": 7, "velocity": 81}, {"time": 1863, "pitch": 64, "duration": 8, "velocity": 81}, {"time": 1863, "pitch": 68, "duration": 7, "velocity": 81}, {"time": 1875, "pitch": 59, "duration": 5, "velocity": 80}, {"time": 1875, "pitch": 64, "duration": 10, "velocity": 82}, {"time": 1875, "pitch": 68, "duration": 5, "velocity": 85}, {"time": 1887, "pitch": 52, "duration": 20, "velocity": 84}, {"time": 1887, "pitch": 61, "duration": 8, "velocity": 86}, {"time": 1887, "pitch": 64, "duration": 9, "velocity": 88}, {"time": 1887, "pitch": 69, "duration": 9, "velocity": 86}, {"time": 1899, "pitch": 61, "duration": 6, "velocity": 83}, {"time": 1899, "pitch": 64, "duration": 10, "velocity": 84}, {"time": 1899, "pitch": 69, "duration": 6, "velocity": 85}, {"time": 1911, "pitch": 52, "duration": 42, "velocity": 80}, {"time": 1911, "pitch": 59, "duration": 8, "velocity": 75}, {"time": 1911, "pitch": 64, "duration": 10, "velocity": 78}, {"time": 1911, "pitch": 68, "duration": 7, "velocity": 80}, {"time": 1923, "pitch": 59, "duration": 7, "velocity": 72}, {"time": 1923, "pitch": 64, "duration": 8, "velocity": 38}, {"time": 1923, "pitch": 68, "duration": 7, "velocity": 77}, {"time": 1935, "pitch": 59, "duration": 9, "velocity": 76}, {"time": 1935, "pitch": 64, "duration": 9, "velocity": 79}, {"time": 1935, "pitch": 68, "duration": 9, "velocity": 83}, {"time": 1947, "pitch": 59, "duration": 4, "velocity": 76}, {"time": 1947, "pitch": 64, "duration": 6, "velocity": 76}, {"time": 1947, "pitch": 68, "duration": 7, "velocity": 79}, {"time": 1959, "pitch": 52, "duration": 42, "velocity": 107}, {"time": 1965, "pitch": 60, "duration": 6, "velocity": 85}, {"time": 1971, "pitch": 69, "duration": 9, "velocity": 123}, {"time": 1977, "pitch": 60, "duration": 25, "velocity": 84}, {"time": 1983, "pitch": 64, "duration": 21, "velocity": 107}, {"time": 2007, "pitch": 52, "duration": 34, "velocity": 90}, {"time": 2013, "pitch": 59, "duration": 7, "velocity": 87}, {"time": 2019, "pitch": 68, "duration": 7, "velocity": 119}, {"time": 2025, "pitch": 59, "duration": 15, "velocity": 86}, {"time": 2031, "pitch": 63, "duration": 7, "velocity": 98}, {"time": 2055, "pitch": 57, "duration": 46, "velocity": 116}, {"time": 2061, "pitch": 61, "duration": 39, "velocity": 87}, {"time": 2067, "pitch": 68, "duration": 11, "velocity": 114}, {"time": 2079, "pitch": 66, "duration": 22, "velocity": 110}, {"time": 2127, "pitch": 52, "duration": 44, "velocity": 90}, {"time": 2133, "pitch": 59, "duration": 7, "velocity": 84}, {"time": 2139, "pitch": 66, "duration": 6, "velocity": 93}, {"time": 2145, "pitch": 59, "duration": 27, "velocity": 78}, {"time": 2175, "pitch": 56, "duration": 15, "velocity": 102}, {"time": 2181, "pitch": 63, "duration": 4, "velocity": 74}, {"time": 2193, "pitch": 56, "duration": 17, "velocity": 86}, {"time": 2199, "pitch": 66, "duration": 11, "velocity": 102}, {"time": 2223, "pitch": 45, "duration": 17, "velocity": 88}, {"time": 2229, "pitch": 52, "duration": 15, "velocity": 84}, {"time": 2235, "pitch": 61, "duration": 14, "velocity": 100}, {"time": 2247, "pitch": 47, "duration": 17, "velocity": 100}, {"time": 2253, "pitch": 54, "duration": 11, "velocity": 86}, {"time": 2259, "pitch": 63, "duration": 11, "velocity": 113}, {"time": 2271, "pitch": 52, "duration": 38, "velocity": 94}, {"time": 2277, "pitch": 59, "duration": 6, "velocity": 78}, {"time": 2283, "pitch": 64, "duration": 11, "velocity": 94}, {"time": 2289, "pitch": 59, "duration": 19, "velocity": 78}, {"time": 2295, "pitch": 63, "duration": 13, "velocity": 91}, {"time": 2319, "pitch": 45, "duration": 20, "velocity": 87}, {"time": 2325, "pitch": 52, "duration": 14, "velocity": 83}, {"time": 2331, "pitch": 61, "duration": 7, "velocity": 91}, {"time": 2343, "pitch": 45, "duration": 18, "velocity": 85}, {"time": 2343, "pitch": 59, "duration": 21, "velocity": 69}, {"time": 2343, "pitch": 63, "duration": 20, "velocity": 76}, {"time": 2343, "pitch": 66, "duration": 19, "velocity": 87}, {"time": 2367, "pitch": 44, "duration": 18, "velocity": 86}, {"time": 2373, "pitch": 51, "duration": 12, "velocity": 82}, {"time": 2379, "pitch": 63, "duration": 6, "velocity": 113}, {"time": 2385, "pitch": 66, "duration": 5, "velocity": 91}, {"time": 2391, "pitch": 49, "duration": 19, "velocity": 87}, {"time": 2397, "pitch": 56, "duration": 11, "velocity": 83}, {"time": 2403, "pitch": 61, "duration": 13, "velocity": 90}, {"time": 2415, "pitch": 42, "duration": 41, "velocity": 86}, {"time": 2421, "pitch": 49, "duration": 36, "velocity": 84}, {"time": 2427, "pitch": 57, "duration": 13, "velocity": 88}, {"time": 2433, "pitch": 54, "duration": 27, "velocity": 78}, {"time": 2439, "pitch": 61, "duration": 23, "velocity": 88}, {"time": 2463, "pitch": 47, "duration": 40, "velocity": 88}, {"time": 2469, "pitch": 54, "duration": 33, "velocity": 78}, {"time": 2475, "pitch": 59, "duration": 19, "velocity": 78}, {"time": 2481, "pitch": 63, "duration": 12, "velocity": 86}, {"time": 2493, "pitch": 61, "duration": 7, "velocity": 86}, {"time": 2499, "pitch": 59, "duration": 11, "velocity": 91}, {"time": 2511, "pitch": 52, "duration": 43, "velocity": 100}, {"time": 2517, "pitch": 59, "duration": 8, "velocity": 87}, {"time": 2523, "pitch": 71, "duration": 12, "velocity": 107}, {"time": 2529, "pitch": 59, "duration": 10, "velocity": 85}, {"time": 2535, "pitch": 68, "duration": 12, "velocity": 100}, {"time": 2541, "pitch": 59, "duration": 12, "velocity": 75}, {"time": 2547, "pitch": 64, "duration": 6, "velocity": 98}, {"time": 2553, "pitch": 42, "duration": 6, "velocity": 102}, {"time": 2553, "pitch": 68, "duration": 6, "velocity": 86}, {"time": 2559, "pitch": 44, "duration": 42, "velocity": 94}, {"time": 2565, "pitch": 59, "duration": 18, "velocity": 81}, {"time": 2571, "pitch": 68, "duration": 25, "velocity": 100}, {"time": 2577, "pitch": 56, "duration": 10, "velocity": 76}, {"time": 2583, "pitch": 63, "duration": 14, "velocity": 89}, {"time": 2595, "pitch": 56, "duration": 12, "velocity": 85}, {"time": 2601, "pitch": 59, "duration": 7, "velocity": 88}, {"time": 2607, "pitch": 49, "duration": 40, "velocity": 92}, {"time": 2613, "pitch": 56, "duration": 23, "velocity": 86}, {"time": 2619, "pitch": 61, "duration": 7, "velocity": 91}, {"time": 2625, "pitch": 64, "duration": 6, "velocity": 89}, {"time": 2631, "pitch": 68, "duration": 17, "velocity": 107}, {"time": 2637, "pitch": 56, "duration": 8, "velocity": 88}, {"time": 2643, "pitch": 61, "duration": 11, "velocity": 86}, {"time": 2649, "pitch": 64, "duration": 5, "velocity": 89}, {"time": 2655, "pitch": 50, "duration": 21, "velocity": 116}, {"time": 2661, "pitch": 62, "duration": 7, "velocity": 86}, {"time": 2667, "pitch": 66, "duration": 6, "velocity": 91}, {"time": 2673, "pitch": 69, "duration": 6, "velocity": 103}, {"time": 2679, "pitch": 52, "duration": 18, "velocity": 113}, {"time": 2685, "pitch": 59, "duration": 5, "velocity": 94}, {"time": 2691, "pitch": 68, "duration": 6, "velocity": 110}, {"time": 2697, "pitch": 64, "duration": 7, "velocity": 102}, {"time": 2703, "pitch": 45, "duration": 19, "velocity": 103}, {"time": 2709, "pitch": 52, "duration": 18, "velocity": 81}, {"time": 2715, "pitch": 57, "duration": 7, "velocity": 90}, {"time": 2721, "pitch": 61, "duration": 7, "velocity": 102}, {"time": 2727, "pitch": 47, "duration": 18, "velocity": 93}, {"time": 2733, "pitch": 54, "duration": 12, "velocity": 83}, {"time": 2739, "pitch": 59, "duration": 7, "velocity": 98}, {"time": 2745, "pitch": 63, "duration": 22, "velocity": 96}, {"time": 2751, "pitch": 44, "duration": 18, "velocity": 100}, {"time": 2757, "pitch": 51, "duration": 12, "velocity": 84}, {"time": 2763, "pitch": 56, "duration": 11, "velocity": 87}, {"time": 2769, "pitch": 63, "duration": 1, "velocity": 89}, {"time": 2769, "pitch": 68, "duration": 10, "velocity": 98}, {"time": 2775, "pitch": 49, "duration": 19, "velocity": 90}, {"time": 2781, "pitch": 56, "duration": 12, "velocity": 84}, {"time": 2781, "pitch": 61, "duration": 18, "velocity": 85}, {"time": 2787, "pitch": 64, "duration": 7, "velocity": 114}, {"time": 2793, "pitch": 63, "duration": 6, "velocity": 93}, {"time": 2799, "pitch": 42, "duration": 17, "velocity": 108}, {"time": 2805, "pitch": 49, "duration": 11, "velocity": 87}, {"time": 2811, "pitch": 57, "duration": 10, "velocity": 109}, {"time": 2817, "pitch": 44, "duration": 6, "velocity": 87}, {"time": 2823, "pitch": 45, "duration": 20, "velocity": 119}, {"time": 2829, "pitch": 57, "duration": 12, "velocity": 90}, {"time": 2835, "pitch": 61, "duration": 12, "velocity": 98}, {"time": 2841, "pitch": 64, "duration": 6, "velocity": 87}, {"time": 2847, "pitch": 47, "duration": 42, "velocity": 104}, {"time": 2853, "pitch": 54, "duration": 36, "velocity": 85}, {"time": 2859, "pitch": 64, "duration": 12, "velocity": 110}, {"time": 2865, "pitch": 59, "duration": 10, "velocity": 82}, {"time": 2871, "pitch": 63, "duration": 17, "velocity": 102}, {"time": 2883, "pitch": 59, "duration": 6, "velocity": 89}, {"time": 2889, "pitch": 61, "duration": 5, "velocity": 90}, {"time": 2895, "pitch": 52, "duration": 42, "velocity": 100}, {"time": 2901, "pitch": 59, "duration": 8, "velocity": 86}, {"time": 2907, "pitch": 64, "duration": 19, "velocity": 102}, {"time": 2907, "pitch": 71, "duration": 11, "velocity": 110}, {"time": 2913, "pitch": 59, "duration": 9, "velocity": 83}, {"time": 2919, "pitch": 68, "duration": 7, "velocity": 91}, {"time": 2925, "pitch": 59, "duration": 11, "velocity": 86}, {"time": 2931, "pitch": 68, "duration": 6, "velocity": 110}, {"time": 2937, "pitch": 64, "duration": 4, "velocity": 89}, {"time": 2943, "pitch": 56, "duration": 23, "velocity": 86}, {"time": 2943, "pitch": 60, "duration": 18, "velocity": 93}, {"time": 2943, "pitch": 68, "duration": 8, "velocity": 93}, {"time": 2955, "pitch": 63, "duration": 16, "velocity": 87}, {"time": 2961, "pitch": 68, "duration": 6, "velocity": 42}, {"time": 2967, "pitch": 56, "duration": 23, "velocity": 84}, {"time": 2973, "pitch": 60, "duration": 12, "velocity": 81}, {"time": 2979, "pitch": 68, "duration": 8, "velocity": 100}, {"time": 2985, "pitch": 63, "duration": 9, "velocity": 85}, {"time": 2991, "pitch": 49, "duration": 40, "velocity": 92}, {"time": 2997, "pitch": 61, "duration": 6, "velocity": 87}, {"time": 3003, "pitch": 64, "duration": 11, "velocity": 108}, {"time": 3009, "pitch": 56, "duration": 21, "velocity": 78}, {"time": 3015, "pitch": 68, "duration": 18, "velocity": 104}, {"time": 3027, "pitch": 61, "duration": 11, "velocity": 87}, {"time": 3033, "pitch": 64, "duration": 6, "velocity": 88}, {"time": 3039, "pitch": 47, "duration": 39, "velocity": 87}, {"time": 3051, "pitch": 59, "duration": 14, "velocity": 86}, {"time": 3057, "pitch": 63, "duration": 4, "velocity": 94}, {"time": 3063, "pitch": 66, "duration": 11, "velocity": 116}, {"time": 3069, "pitch": 59, "duration": 8, "velocity": 82}, {"time": 3075, "pitch": 63, "duration": 6, "velocity": 113}, {"time": 3081, "pitch": 64, "duration": 6, "velocity": 108}, {"time": 3087, "pitch": 45, "duration": 19, "velocity": 84}, {"time": 3087, "pitch": 61, "duration": 18, "velocity": 107}, {"time": 3093, "pitch": 52, "duration": 14, "velocity": 81}, {"time": 3099, "pitch": 57, "duration": 7, "velocity": 86}, {"time": 3105, "pitch": 69, "duration": 3, "velocity": 88}, {"time": 3111, "pitch": 47, "duration": 23, "velocity": 88}, {"time": 3111, "pitch": 59, "duration": 8, "velocity": 88}, {"time": 3111, "pitch": 66, "duration": 5, "velocity": 93}, {"time": 3117, "pitch": 54, "duration": 9, "velocity": 72}, {"time": 3123, "pitch": 59, "duration": 6, "velocity": 108}, {"time": 3123, "pitch": 66, "duration": 6, "velocity": 107}, {"time": 3129, "pitch": 61, "duration": 5, "velocity": 85}, {"time": 3135, "pitch": 44, "duration": 18, "velocity": 87}, {"time": 3135, "pitch": 59, "duration": 7, "velocity": 91}, {"time": 3135, "pitch": 66, "duration": 7, "velocity": 92}, {"time": 3141, "pitch": 51, "duration": 12, "velocity": 69}, {"time": 3147, "pitch": 59, "duration": 7, "velocity": 102}, {"time": 3147, "pitch": 66, "duration": 11, "velocity": 104}, {"time": 3153, "pitch": 56, "duration": 5, "velocity": 84}, {"time": 3159, "pitch": 49, "duration": 14, "velocity": 87}, {"time": 3159, "pitch": 61, "duration": 5, "velocity": 87}, {"time": 3159, "pitch": 64, "duration": 6, "velocity": 93}, {"time": 3159, "pitch": 68, "duration": 5, "velocity": 88}, {"time": 3165, "pitch": 56, "duration": 8, "velocity": 77}, {"time": 3171, "pitch": 61, "duration": 10, "velocity": 102}, {"time": 3171, "pitch": 68, "duration": 5, "velocity": 104}, {"time": 3177, "pitch": 49, "duration": 6, "velocity": 87}, {"time": 3183, "pitch": 42, "duration": 17, "velocity": 85}, {"time": 3183, "pitch": 57, "duration": 8, "velocity": 100}, {"time": 3183, "pitch": 66, "duration": 6, "velocity": 92}, {"time": 3189, "pitch": 49, "duration": 10, "velocity": 72}, {"time": 3195, "pitch": 57, "duration": 6, "velocity": 106}, {"time": 3195, "pitch": 66, "duration": 6, "velocity": 98}, {"time": 3201, "pitch": 44, "duration": 6, "velocity": 92}, {"time": 3207, "pitch": 45, "duration": 24, "velocity": 100}, {"time": 3207, "pitch": 61, "duration": 10, "velocity": 107}, {"time": 3207, "pitch": 64, "duration": 9, "velocity": 102}, {"time": 3219, "pitch": 61, "duration": 11, "velocity": 100}, {"time": 3219, "pitch": 64, "duration": 9, "velocity": 98}, {"time": 3231, "pitch": 47, "duration": 42, "velocity": 87}, {"time": 3231, "pitch": 59, "duration": 9, "velocity": 87}, {"time": 3231, "pitch": 63, "duration": 10, "velocity": 93}, {"time": 3231, "pitch": 66, "duration": 9, "velocity": 92}, {"time": 3243, "pitch": 59, "duration": 6, "velocity": 88}, {"time": 3243, "pitch": 63, "duration": 10, "velocity": 88}, {"time": 3243, "pitch": 66, "duration": 7, "velocity": 88}, {"time": 3249, "pitch": 54, "duration": 24, "velocity": 81}, {"time": 3255, "pitch": 61, "duration": 20, "velocity": 88}, {"time": 3279, "pitch": 52, "duration": 45, "velocity": 87}, {"time": 3279, "pitch": 59, "duration": 8, "velocity": 84}, {"time": 3279, "pitch": 68, "duration": 8, "velocity": 88}, {"time": 3291, "pitch": 59, "duration": 9, "velocity": 89}, {"time": 3291, "pitch": 68, "duration": 7, "velocity": 91}, {"time": 3303, "pitch": 57, "duration": 18, "velocity": 86}, {"time": 3303, "pitch": 61, "duration": 8, "velocity": 90}, {"time": 3303, "pitch": 64, "duration": 8, "velocity": 88}, {"time": 3315, "pitch": 61, "duration": 10, "velocity": 104}, {"time": 3315, "pitch": 64, "duration": 8, "velocity": 102}, {"time": 3327, "pitch": 52, "duration": 45, "velocity": 82}, {"time": 3327, "pitch": 59, "duration": 7, "velocity": 77}, {"time": 3327, "pitch": 64, "duration": 8, "velocity": 82}, {"time": 3327, "pitch": 68, "duration": 6, "velocity": 81}, {"time": 3339, "pitch": 59, "duration": 7, "velocity": 73}, {"time": 3339, "pitch": 64, "duration": 9, "velocity": 73}, {"time": 3339, "pitch": 68, "duration": 7, "velocity": 74}, {"time": 3351, "pitch": 59, "duration": 10, "velocity": 71}, {"time": 3351, "pitch": 64, "duration": 11, "velocity": 67}, {"time": 3351, "pitch": 68, "duration": 10, "velocity": 70}, {"time": 3363, "pitch": 59, "duration": 6, "velocity": 73}, {"time": 3363, "pitch": 64, "duration": 9, "velocity": 74}, {"time": 3363, "pitch": 68, "duration": 7, "velocity": 75}, {"time": 3375, "pitch": 52, "duration": 19, "velocity": 84}, {"time": 3375, "pitch": 59, "duration": 7, "velocity": 81}, {"time": 3375, "pitch": 64, "duration": 8, "velocity": 81}, {"time": 3375, "pitch": 68, "duration": 7, "velocity": 81}, {"time": 3387, "pitch": 59, "duration": 5, "velocity": 80}, {"time": 3387, "pitch": 64, "duration": 10, "velocity": 82}, {"time": 3387, "pitch": 68, "duration": 5, "velocity": 85}, {"time": 3399, "pitch": 52, "duration": 20, "velocity": 84}, {"time": 3399, "pitch": 61, "duration": 8, "velocity": 86}, {"time": 3399, "pitch": 64, "duration": 9, "velocity": 88}, {"time": 3399, "pitch": 69, "duration": 9, "velocity": 86}, {"time": 3411, "pitch": 61, "duration": 6, "velocity": 83}, {"time": 3411, "pitch": 64, "duration": 10, "velocity": 84}, {"time": 3411, "pitch": 69, "duration": 6, "velocity": 85}, {"time": 3423, "pitch": 52, "duration": 23, "velocity": 80}, {"time": 3423, "pitch": 59, "duration": 8, "velocity": 75}, {"time": 3423, "pitch": 64, "duration": 10, "velocity": 78}, {"time": 3423, "pitch": 68, "duration": 7, "velocity": 80}, {"time": 3435, "pitch": 59, "duration": 7, "velocity": 72}, {"time": 3435, "pitch": 64, "duration": 8, "velocity": 38}, {"time": 3435, "pitch": 68, "duration": 7, "velocity": 77}, {"time": 3447, "pitch": 59, "duration": 9, "velocity": 76}, {"time": 3447, "pitch": 64, "duration": 9, "velocity": 79}, {"time": 3447, "pitch": 68, "duration": 9, "velocity": 83}, {"time": 3471, "pitch": 52, "duration": 43, "velocity": 98}, {"time": 3477, "pitch": 60, "duration": 7, "velocity": 84}, {"time": 3483, "pitch": 69, "duration": 9, "velocity": 116}, {"time": 3489, "pitch": 60, "duration": 24, "velocity": 83}, {"time": 3495, "pitch": 64, "duration": 20, "velocity": 98}, {"time": 3519, "pitch": 52, "duration": 36, "velocity": 90}, {"time": 3525, "pitch": 59, "duration": 7, "velocity": 88}, {"time": 3531, "pitch": 68, "duration": 7, "velocity": 110}, {"time": 3537, "pitch": 59, "duration": 16, "velocity": 82}, {"time": 3543, "pitch": 63, "duration": 10, "velocity": 110}, {"time": 3567, "pitch": 45, "duration": 49, "velocity": 85}, {"time": 3573, "pitch": 52, "duration": 42, "velocity": 84}, {"time": 3582, "pitch": 61, "duration": 6, "velocity": 92}, {"time": 3588, "pitch": 66, "duration": 4, "velocity": 88}, {"time": 3594, "pitch": 68, "duration": 10, "velocity": 88}, {"time": 3621, "pitch": 69, "duration": 53, "velocity": 103}, {"time": 3672, "pitch": 52, "duration": 38, "velocity": 89}, {"time": 3672, "pitch": 68, "duration": 12, "velocity": 88}, {"time": 3678, "pitch": 59, "duration": 31, "velocity": 76}, {"time": 3684, "pitch": 66, "duration": 9, "velocity": 82}, {"time": 3693, "pitch": 68, "duration": 9, "velocity": 84}, {"time": 3708, "pitch": 64, "duration": 15, "velocity": 73}, {"time": 3710, "pitch": 68, "duration": 13, "velocity": 83}, {"time": 3711, "pitch": 71, "duration": 13, "velocity": 84}]}]}