{"metadata": {"schema_version": "0.2", "title": "None", "source_filename": "340.mid", "source_format": "midi"}, "resolution": 12, "tempos": [{"time": 0, "qpm": 91.50023790061854}], "time_signatures": [{"time": 0, "numerator": 4, "denominator": 4}], "tracks": [{"program": 0, "is_drum": false, "name": "MELODY", "notes": [{"time": 409, "pitch": 72, "duration": 6, "velocity": 110}, {"time": 415, "pitch": 75, "duration": 6, "velocity": 91}, {"time": 421, "pitch": 77, "duration": 12, "velocity": 110}, {"time": 433, "pitch": 77, "duration": 24, "velocity": 116}, {"time": 457, "pitch": 72, "duration": 6, "velocity": 114}, {"time": 463, "pitch": 75, "duration": 6, "velocity": 102}, {"time": 469, "pitch": 77, "duration": 6, "velocity": 98}, {"time": 475, "pitch": 77, "duration": 12, "velocity": 113}, {"time": 487, "pitch": 75, "duration": 18, "velocity": 108}, {"time": 505, "pitch": 72, "duration": 6, "velocity": 114}, {"time": 511, "pitch": 75, "duration": 6, "velocity": 108}, {"time": 517, "pitch": 77, "duration": 12, "velocity": 108}, {"time": 529, "pitch": 72, "duration": 24, "velocity": 114}, {"time": 553, "pitch": 72, "duration": 6, "velocity": 114}, {"time": 559, "pitch": 70, "duration": 6, "velocity": 98}, {"time": 565, "pitch": 75, "duration": 6, "velocity": 102}, {"time": 571, "pitch": 72, "duration": 30, "velocity": 108}, {"time": 601, "pitch": 72, "duration": 6, "velocity": 113}, {"time": 607, "pitch": 70, "duration": 6, "velocity": 94}, {"time": 613, "pitch": 72, "duration": 6, "velocity": 94}, {"time": 619, "pitch": 70, "duration": 12, "velocity": 98}, {"time": 631, "pitch": 68, "duration": 24, "velocity": 100}, {"time": 655, "pitch": 72, "duration": 18, "velocity": 110}, {"time": 673, "pitch": 70, "duration": 30, "velocity": 113}, {"time": 703, "pitch": 70, "duration": 6, "velocity": 104}, {"time": 709, "pitch": 70, "duration": 6, "velocity": 94}, {"time": 715, "pitch": 72, "duration": 12, "velocity": 108}, {"time": 727, "pitch": 72, "duration": 66, "velocity": 113}, {"time": 793, "pitch": 72, "duration": 6, "velocity": 114}, {"time": 799, "pitch": 75, "duration": 6, "velocity": 102}, {"time": 805, "pitch": 77, "duration": 12, "velocity": 113}, {"time": 817, "pitch": 77, "duration": 24, "velocity": 114}, {"time": 841, "pitch": 72, "duration": 6, "velocity": 108}, {"time": 847, "pitch": 75, "duration": 6, "velocity": 108}, {"time": 853, "pitch": 77, "duration": 6, "velocity": 104}, {"time": 859, "pitch": 77, "duration": 12, "velocity": 114}, {"time": 871, "pitch": 75, "duration": 18, "velocity": 107}, {"time": 889, "pitch": 80, "duration": 6, "velocity": 119}, {"time": 895, "pitch": 79, "duration": 6, "velocity": 108}, {"time": 901, "pitch": 75, "duration": 6, "velocity": 107}, {"time": 907, "pitch": 72, "duration": 18, "velocity": 100}, {"time": 925, "pitch": 80, "duration": 6, "velocity": 116}, {"time": 931, "pitch": 80, "duration": 6, "velocity": 116}, {"time": 937, "pitch": 79, "duration": 6, "velocity": 110}, {"time": 943, "pitch": 75, "duration": 12, "velocity": 110}, {"time": 955, "pitch": 77, "duration": 30, "velocity": 110}, {"time": 985, "pitch": 77, "duration": 6, "velocity": 110}, {"time": 991, "pitch": 75, "duration": 6, "velocity": 102}, {"time": 997, "pitch": 77, "duration": 6, "velocity": 102}, {"time": 1003, "pitch": 70, "duration": 13, "velocity": 102}, {"time": 1015, "pitch": 68, "duration": 24, "velocity": 106}, {"time": 1039, "pitch": 72, "duration": 18, "velocity": 117}, {"time": 1057, "pitch": 70, "duration": 24, "velocity": 117}, {"time": 1081, "pitch": 72, "duration": 6, "velocity": 116}, {"time": 1087, "pitch": 70, "duration": 7, "velocity": 107}, {"time": 1093, "pitch": 68, "duration": 6, "velocity": 109}, {"time": 1099, "pitch": 68, "duration": 12, "velocity": 106}, {"time": 1111, "pitch": 65, "duration": 30, "velocity": 102}, {"time": 1171, "pitch": 84, "duration": 3, "velocity": 114}, {"time": 1174, "pitch": 84, "duration": 3, "velocity": 107}, {"time": 1177, "pitch": 84, "duration": 6, "velocity": 116}, {"time": 1183, "pitch": 82, "duration": 6, "velocity": 113}, {"time": 1189, "pitch": 80, "duration": 6, "velocity": 108}, {"time": 1195, "pitch": 79, "duration": 6, "velocity": 116}, {"time": 1201, "pitch": 77, "duration": 12, "velocity": 117}, {"time": 1213, "pitch": 77, "duration": 6, "velocity": 114}, {"time": 1219, "pitch": 72, "duration": 6, "velocity": 108}, {"time": 1225, "pitch": 77, "duration": 6, "velocity": 108}, {"time": 1231, "pitch": 84, "duration": 12, "velocity": 104}, {"time": 1243, "pitch": 82, "duration": 24, "velocity": 120}, {"time": 1267, "pitch": 82, "duration": 6, "velocity": 114}, {"time": 1273, "pitch": 82, "duration": 6, "velocity": 113}, {"time": 1279, "pitch": 80, "duration": 6, "velocity": 113}, {"time": 1285, "pitch": 79, "duration": 6, "velocity": 114}, {"time": 1291, "pitch": 77, "duration": 6, "velocity": 113}, {"time": 1297, "pitch": 75, "duration": 12, "velocity": 114}, {"time": 1309, "pitch": 75, "duration": 6, "velocity": 117}, {"time": 1315, "pitch": 72, "duration": 6, "velocity": 110}, {"time": 1321, "pitch": 75, "duration": 6, "velocity": 108}, {"time": 1327, "pitch": 75, "duration": 6, "velocity": 113}, {"time": 1333, "pitch": 82, "duration": 6, "velocity": 113}, {"time": 1339, "pitch": 82, "duration": 12, "velocity": 114}, {"time": 1351, "pitch": 80, "duration": 18, "velocity": 116}, {"time": 1369, "pitch": 84, "duration": 6, "velocity": 116}, {"time": 1375, "pitch": 82, "duration": 7, "velocity": 116}, {"time": 1381, "pitch": 80, "duration": 6, "velocity": 116}, {"time": 1387, "pitch": 79, "duration": 6, "velocity": 108}, {"time": 1393, "pitch": 77, "duration": 12, "velocity": 116}, {"time": 1405, "pitch": 72, "duration": 6, "velocity": 100}, {"time": 1411, "pitch": 72, "duration": 6, "velocity": 108}, {"time": 1417, "pitch": 72, "duration": 6, "velocity": 108}, {"time": 1423, "pitch": 80, "duration": 6, "velocity": 116}, {"time": 1429, "pitch": 79, "duration": 6, "velocity": 108}, {"time": 1435, "pitch": 80, "duration": 12, "velocity": 113}, {"time": 1447, "pitch": 79, "duration": 12, "velocity": 117}, {"time": 1459, "pitch": 79, "duration": 3, "velocity": 93}, {"time": 1462, "pitch": 79, "duration": 3, "velocity": 94}, {"time": 1465, "pitch": 79, "duration": 6, "velocity": 108}, {"time": 1471, "pitch": 80, "duration": 6, "velocity": 109}, {"time": 1477, "pitch": 82, "duration": 6, "velocity": 110}, {"time": 1483, "pitch": 79, "duration": 12, "velocity": 116}, {"time": 1495, "pitch": 75, "duration": 60, "velocity": 114}, {"time": 1555, "pitch": 84, "duration": 3, "velocity": 114}, {"time": 1558, "pitch": 84, "duration": 3, "velocity": 107}, {"time": 1561, "pitch": 84, "duration": 6, "velocity": 116}, {"time": 1567, "pitch": 82, "duration": 6, "velocity": 113}, {"time": 1573, "pitch": 80, "duration": 6, "velocity": 108}, {"time": 1579, "pitch": 79, "duration": 6, "velocity": 116}, {"time": 1585, "pitch": 77, "duration": 12, "velocity": 117}, {"time": 1597, "pitch": 77, "duration": 6, "velocity": 114}, {"time": 1603, "pitch": 72, "duration": 6, "velocity": 108}, {"time": 1609, "pitch": 77, "duration": 6, "velocity": 108}, {"time": 1615, "pitch": 84, "duration": 12, "velocity": 104}, {"time": 1627, "pitch": 82, "duration": 24, "velocity": 120}, {"time": 1651, "pitch": 82, "duration": 3, "velocity": 114}, {"time": 1654, "pitch": 82, "duration": 3, "velocity": 114}, {"time": 1657, "pitch": 82, "duration": 6, "velocity": 113}, {"time": 1663, "pitch": 80, "duration": 6, "velocity": 113}, {"time": 1669, "pitch": 79, "duration": 6, "velocity": 114}, {"time": 1675, "pitch": 77, "duration": 6, "velocity": 113}, {"time": 1681, "pitch": 75, "duration": 12, "velocity": 114}, {"time": 1693, "pitch": 75, "duration": 6, "velocity": 117}, {"time": 1699, "pitch": 72, "duration": 6, "velocity": 110}, {"time": 1705, "pitch": 75, "duration": 6, "velocity": 108}, {"time": 1711, "pitch": 75, "duration": 6, "velocity": 113}, {"time": 1717, "pitch": 82, "duration": 6, "velocity": 113}, {"time": 1723, "pitch": 82, "duration": 12, "velocity": 114}, {"time": 1735, "pitch": 80, "duration": 12, "velocity": 116}, {"time": 1747, "pitch": 75, "duration": 3, "velocity": 108}, {"time": 1750, "pitch": 77, "duration": 3, "velocity": 98}, {"time": 1753, "pitch": 80, "duration": 6, "velocity": 109}, {"time": 1759, "pitch": 80, "duration": 6, "velocity": 113}, {"time": 1765, "pitch": 80, "duration": 6, "velocity": 116}, {"time": 1771, "pitch": 80, "duration": 12, "velocity": 119}, {"time": 1783, "pitch": 77, "duration": 12, "velocity": 116}, {"time": 1795, "pitch": 77, "duration": 3, "velocity": 96}, {"time": 1798, "pitch": 77, "duration": 3, "velocity": 93}, {"time": 1801, "pitch": 77, "duration": 6, "velocity": 113}, {"time": 1807, "pitch": 72, "duration": 6, "velocity": 113}, {"time": 1813, "pitch": 80, "duration": 6, "velocity": 119}, {"time": 1819, "pitch": 80, "duration": 12, "velocity": 119}, {"time": 1831, "pitch": 79, "duration": 12, "velocity": 119}, {"time": 1843, "pitch": 79, "duration": 6, "velocity": 113}, {"time": 1849, "pitch": 79, "duration": 6, "velocity": 114}, {"time": 1855, "pitch": 80, "duration": 6, "velocity": 109}, {"time": 1861, "pitch": 82, "duration": 12, "velocity": 114}, {"time": 1873, "pitch": 82, "duration": 7, "velocity": 116}, {"time": 1879, "pitch": 80, "duration": 15, "velocity": 93}, {"time": 1945, "pitch": 72, "duration": 6, "velocity": 110}, {"time": 1951, "pitch": 75, "duration": 6, "velocity": 91}, {"time": 1957, "pitch": 77, "duration": 12, "velocity": 110}, {"time": 1969, "pitch": 77, "duration": 24, "velocity": 116}, {"time": 1993, "pitch": 72, "duration": 6, "velocity": 114}, {"time": 1999, "pitch": 75, "duration": 6, "velocity": 102}, {"time": 2005, "pitch": 77, "duration": 6, "velocity": 98}, {"time": 2011, "pitch": 77, "duration": 12, "velocity": 113}, {"time": 2023, "pitch": 75, "duration": 18, "velocity": 108}, {"time": 2041, "pitch": 72, "duration": 6, "velocity": 114}, {"time": 2047, "pitch": 75, "duration": 6, "velocity": 108}, {"time": 2053, "pitch": 77, "duration": 12, "velocity": 108}, {"time": 2065, "pitch": 72, "duration": 24, "velocity": 114}, {"time": 2089, "pitch": 72, "duration": 6, "velocity": 114}, {"time": 2095, "pitch": 70, "duration": 6, "velocity": 98}, {"time": 2101, "pitch": 75, "duration": 6, "velocity": 102}, {"time": 2107, "pitch": 72, "duration": 30, "velocity": 108}, {"time": 2137, "pitch": 72, "duration": 6, "velocity": 113}, {"time": 2143, "pitch": 70, "duration": 6, "velocity": 94}, {"time": 2149, "pitch": 72, "duration": 6, "velocity": 94}, {"time": 2155, "pitch": 70, "duration": 12, "velocity": 98}, {"time": 2167, "pitch": 68, "duration": 24, "velocity": 100}, {"time": 2191, "pitch": 72, "duration": 18, "velocity": 110}, {"time": 2209, "pitch": 70, "duration": 30, "velocity": 113}, {"time": 2239, "pitch": 70, "duration": 6, "velocity": 104}, {"time": 2245, "pitch": 70, "duration": 6, "velocity": 94}, {"time": 2251, "pitch": 72, "duration": 12, "velocity": 108}, {"time": 2263, "pitch": 72, "duration": 66, "velocity": 113}, {"time": 2329, "pitch": 72, "duration": 6, "velocity": 114}, {"time": 2335, "pitch": 75, "duration": 6, "velocity": 102}, {"time": 2341, "pitch": 77, "duration": 7, "velocity": 113}, {"time": 2347, "pitch": 77, "duration": 1, "velocity": 114}, {"time": 2377, "pitch": 72, "duration": 6, "velocity": 108}, {"time": 2383, "pitch": 75, "duration": 6, "velocity": 108}, {"time": 2389, "pitch": 77, "duration": 6, "velocity": 104}, {"time": 2395, "pitch": 77, "duration": 12, "velocity": 114}, {"time": 2407, "pitch": 75, "duration": 18, "velocity": 107}, {"time": 2425, "pitch": 80, "duration": 6, "velocity": 119}, {"time": 2431, "pitch": 79, "duration": 6, "velocity": 108}, {"time": 2437, "pitch": 75, "duration": 6, "velocity": 107}, {"time": 2443, "pitch": 72, "duration": 18, "velocity": 100}, {"time": 2461, "pitch": 80, "duration": 6, "velocity": 116}, {"time": 2467, "pitch": 80, "duration": 6, "velocity": 116}, {"time": 2473, "pitch": 79, "duration": 6, "velocity": 110}, {"time": 2479, "pitch": 75, "duration": 12, "velocity": 110}, {"time": 2491, "pitch": 77, "duration": 30, "velocity": 110}, {"time": 2521, "pitch": 77, "duration": 6, "velocity": 110}, {"time": 2527, "pitch": 75, "duration": 6, "velocity": 102}, {"time": 2533, "pitch": 77, "duration": 6, "velocity": 102}, {"time": 2539, "pitch": 70, "duration": 13, "velocity": 102}, {"time": 2551, "pitch": 68, "duration": 24, "velocity": 106}, {"time": 2575, "pitch": 72, "duration": 18, "velocity": 117}, {"time": 2593, "pitch": 70, "duration": 24, "velocity": 117}, {"time": 2617, "pitch": 72, "duration": 6, "velocity": 116}, {"time": 2623, "pitch": 70, "duration": 7, "velocity": 107}, {"time": 2629, "pitch": 68, "duration": 6, "velocity": 109}, {"time": 2635, "pitch": 68, "duration": 12, "velocity": 106}, {"time": 2647, "pitch": 65, "duration": 60, "velocity": 102}, {"time": 2707, "pitch": 84, "duration": 3, "velocity": 114}, {"time": 2710, "pitch": 84, "duration": 3, "velocity": 107}, {"time": 2713, "pitch": 84, "duration": 6, "velocity": 116}, {"time": 2719, "pitch": 82, "duration": 6, "velocity": 113}, {"time": 2725, "pitch": 80, "duration": 6, "velocity": 108}, {"time": 2731, "pitch": 79, "duration": 6, "velocity": 116}, {"time": 2737, "pitch": 77, "duration": 12, "velocity": 117}, {"time": 2749, "pitch": 77, "duration": 6, "velocity": 114}, {"time": 2755, "pitch": 72, "duration": 6, "velocity": 108}, {"time": 2761, "pitch": 77, "duration": 6, "velocity": 108}, {"time": 2767, "pitch": 84, "duration": 12, "velocity": 104}, {"time": 2779, "pitch": 82, "duration": 24, "velocity": 120}, {"time": 2803, "pitch": 82, "duration": 6, "velocity": 114}, {"time": 2809, "pitch": 82, "duration": 6, "velocity": 113}, {"time": 2815, "pitch": 80, "duration": 6, "velocity": 113}, {"time": 2821, "pitch": 79, "duration": 6, "velocity": 114}, {"time": 2827, "pitch": 77, "duration": 6, "velocity": 113}, {"time": 2833, "pitch": 75, "duration": 12, "velocity": 114}, {"time": 2845, "pitch": 75, "duration": 6, "velocity": 117}, {"time": 2851, "pitch": 72, "duration": 6, "velocity": 110}, {"time": 2857, "pitch": 75, "duration": 6, "velocity": 108}, {"time": 2863, "pitch": 75, "duration": 6, "velocity": 113}, {"time": 2869, "pitch": 82, "duration": 6, "velocity": 113}, {"time": 2875, "pitch": 82, "duration": 12, "velocity": 114}, {"time": 2887, "pitch": 80, "duration": 18, "velocity": 116}, {"time": 2905, "pitch": 84, "duration": 6, "velocity": 116}, {"time": 2911, "pitch": 82, "duration": 7, "velocity": 116}, {"time": 2917, "pitch": 80, "duration": 6, "velocity": 116}, {"time": 2923, "pitch": 79, "duration": 6, "velocity": 108}, {"time": 2929, "pitch": 77, "duration": 12, "velocity": 116}, {"time": 2941, "pitch": 72, "duration": 6, "velocity": 100}, {"time": 2947, "pitch": 72, "duration": 6, "velocity": 108}, {"time": 2953, "pitch": 72, "duration": 6, "velocity": 108}, {"time": 2959, "pitch": 80, "duration": 6, "velocity": 116}, {"time": 2965, "pitch": 79, "duration": 6, "velocity": 108}, {"time": 2971, "pitch": 80, "duration": 12, "velocity": 113}, {"time": 2983, "pitch": 79, "duration": 12, "velocity": 117}, {"time": 2995, "pitch": 79, "duration": 3, "velocity": 93}, {"time": 2998, "pitch": 79, "duration": 3, "velocity": 94}, {"time": 3001, "pitch": 79, "duration": 6, "velocity": 108}, {"time": 3007, "pitch": 80, "duration": 6, "velocity": 109}, {"time": 3013, "pitch": 82, "duration": 6, "velocity": 110}, {"time": 3019, "pitch": 79, "duration": 12, "velocity": 116}, {"time": 3031, "pitch": 75, "duration": 42, "velocity": 114}, {"time": 3475, "pitch": 84, "duration": 3, "velocity": 114}, {"time": 3478, "pitch": 84, "duration": 3, "velocity": 107}, {"time": 3481, "pitch": 84, "duration": 6, "velocity": 116}, {"time": 3487, "pitch": 82, "duration": 6, "velocity": 113}, {"time": 3493, "pitch": 80, "duration": 6, "velocity": 108}, {"time": 3499, "pitch": 79, "duration": 6, "velocity": 116}, {"time": 3505, "pitch": 77, "duration": 12, "velocity": 117}, {"time": 3517, "pitch": 77, "duration": 6, "velocity": 114}, {"time": 3523, "pitch": 72, "duration": 6, "velocity": 108}, {"time": 3529, "pitch": 77, "duration": 6, "velocity": 108}, {"time": 3535, "pitch": 84, "duration": 12, "velocity": 104}, {"time": 3547, "pitch": 82, "duration": 24, "velocity": 120}, {"time": 3571, "pitch": 82, "duration": 3, "velocity": 114}, {"time": 3574, "pitch": 82, "duration": 3, "velocity": 114}, {"time": 3577, "pitch": 82, "duration": 6, "velocity": 113}, {"time": 3583, "pitch": 80, "duration": 6, "velocity": 113}, {"time": 3589, "pitch": 79, "duration": 6, "velocity": 114}, {"time": 3595, "pitch": 77, "duration": 6, "velocity": 113}, {"time": 3601, "pitch": 75, "duration": 12, "velocity": 114}, {"time": 3613, "pitch": 75, "duration": 6, "velocity": 117}, {"time": 3619, "pitch": 72, "duration": 6, "velocity": 110}, {"time": 3625, "pitch": 75, "duration": 6, "velocity": 108}, {"time": 3631, "pitch": 75, "duration": 6, "velocity": 113}, {"time": 3637, "pitch": 82, "duration": 6, "velocity": 113}, {"time": 3643, "pitch": 82, "duration": 12, "velocity": 114}, {"time": 3655, "pitch": 80, "duration": 18, "velocity": 116}, {"time": 3673, "pitch": 84, "duration": 6, "velocity": 116}, {"time": 3679, "pitch": 82, "duration": 7, "velocity": 116}, {"time": 3685, "pitch": 80, "duration": 6, "velocity": 116}, {"time": 3691, "pitch": 79, "duration": 6, "velocity": 108}, {"time": 3697, "pitch": 77, "duration": 12, "velocity": 116}, {"time": 3709, "pitch": 72, "duration": 6, "velocity": 100}, {"time": 3715, "pitch": 72, "duration": 6, "velocity": 108}, {"time": 3721, "pitch": 72, "duration": 6, "velocity": 108}, {"time": 3727, "pitch": 80, "duration": 6, "velocity": 116}, {"time": 3733, "pitch": 79, "duration": 6, "velocity": 108}, {"time": 3739, "pitch": 80, "duration": 12, "velocity": 113}, {"time": 3751, "pitch": 79, "duration": 12, "velocity": 117}, {"time": 3763, "pitch": 79, "duration": 3, "velocity": 93}, {"time": 3766, "pitch": 79, "duration": 3, "velocity": 94}, {"time": 3769, "pitch": 79, "duration": 6, "velocity": 108}, {"time": 3775, "pitch": 80, "duration": 6, "velocity": 109}, {"time": 3781, "pitch": 82, "duration": 6, "velocity": 110}, {"time": 3787, "pitch": 79, "duration": 12, "velocity": 116}, {"time": 3799, "pitch": 75, "duration": 60, "velocity": 114}, {"time": 3859, "pitch": 84, "duration": 3, "velocity": 114}, {"time": 3862, "pitch": 84, "duration": 3, "velocity": 107}, {"time": 3865, "pitch": 84, "duration": 6, "velocity": 116}, {"time": 3871, "pitch": 82, "duration": 6, "velocity": 113}, {"time": 3877, "pitch": 80, "duration": 6, "velocity": 108}, {"time": 3883, "pitch": 79, "duration": 6, "velocity": 116}, {"time": 3889, "pitch": 77, "duration": 12, "velocity": 117}, {"time": 3901, "pitch": 77, "duration": 6, "velocity": 114}, {"time": 3907, "pitch": 72, "duration": 6, "velocity": 108}, {"time": 3913, "pitch": 77, "duration": 6, "velocity": 108}, {"time": 3919, "pitch": 84, "duration": 12, "velocity": 104}, {"time": 3931, "pitch": 82, "duration": 24, "velocity": 120}, {"time": 3955, "pitch": 82, "duration": 3, "velocity": 114}, {"time": 3958, "pitch": 82, "duration": 3, "velocity": 114}, {"time": 3961, "pitch": 82, "duration": 6, "velocity": 113}, {"time": 3967, "pitch": 80, "duration": 6, "velocity": 113}, {"time": 3973, "pitch": 79, "duration": 6, "velocity": 114}, {"time": 3979, "pitch": 77, "duration": 6, "velocity": 113}, {"time": 3985, "pitch": 75, "duration": 12, "velocity": 114}, {"time": 3997, "pitch": 75, "duration": 6, "velocity": 117}, {"time": 4003, "pitch": 72, "duration": 6, "velocity": 110}, {"time": 4009, "pitch": 75, "duration": 6, "velocity": 108}, {"time": 4015, "pitch": 75, "duration": 6, "velocity": 113}, {"time": 4021, "pitch": 82, "duration": 6, "velocity": 113}, {"time": 4027, "pitch": 82, "duration": 12, "velocity": 114}, {"time": 4039, "pitch": 80, "duration": 12, "velocity": 116}, {"time": 4051, "pitch": 75, "duration": 3, "velocity": 108}, {"time": 4054, "pitch": 77, "duration": 3, "velocity": 98}, {"time": 4057, "pitch": 80, "duration": 6, "velocity": 109}, {"time": 4063, "pitch": 80, "duration": 6, "velocity": 113}, {"time": 4069, "pitch": 80, "duration": 6, "velocity": 116}, {"time": 4075, "pitch": 80, "duration": 12, "velocity": 119}, {"time": 4087, "pitch": 77, "duration": 12, "velocity": 116}, {"time": 4099, "pitch": 77, "duration": 3, "velocity": 96}, {"time": 4102, "pitch": 77, "duration": 3, "velocity": 93}, {"time": 4105, "pitch": 77, "duration": 6, "velocity": 113}, {"time": 4111, "pitch": 72, "duration": 6, "velocity": 113}, {"time": 4117, "pitch": 80, "duration": 6, "velocity": 119}, {"time": 4123, "pitch": 80, "duration": 12, "velocity": 119}, {"time": 4135, "pitch": 79, "duration": 12, "velocity": 119}, {"time": 4147, "pitch": 79, "duration": 6, "velocity": 113}, {"time": 4153, "pitch": 79, "duration": 6, "velocity": 114}, {"time": 4159, "pitch": 80, "duration": 6, "velocity": 109}, {"time": 4165, "pitch": 82, "duration": 12, "velocity": 114}, {"time": 4177, "pitch": 82, "duration": 7, "velocity": 116}, {"time": 4183, "pitch": 80, "duration": 42, "velocity": 93}]}, {"program": 0, "is_drum": false, "name": "BRIDGE", "notes": [{"time": 31, "pitch": 87, "duration": 6, "velocity": 108}, {"time": 37, "pitch": 84, "duration": 6, "velocity": 88}, {"time": 43, "pitch": 87, "duration": 6, "velocity": 100}, {"time": 49, "pitch": 89, "duration": 30, "velocity": 108}, {"time": 79, "pitch": 87, "duration": 12, "velocity": 94}, {"time": 91, "pitch": 84, "duration": 2, "velocity": 77}, {"time": 93, "pitch": 87, "duration": 1, "velocity": 73}, {"time": 94, "pitch": 84, "duration": 3, "velocity": 82}, {"time": 97, "pitch": 82, "duration": 30, "velocity": 92}, {"time": 127, "pitch": 80, "duration": 12, "velocity": 91}, {"time": 139, "pitch": 82, "duration": 7, "velocity": 88}, {"time": 145, "pitch": 84, "duration": 30, "velocity": 91}, {"time": 175, "pitch": 85, "duration": 7, "velocity": 96}, {"time": 181, "pitch": 84, "duration": 6, "velocity": 89}, {"time": 187, "pitch": 82, "duration": 7, "velocity": 91}, {"time": 193, "pitch": 84, "duration": 30, "velocity": 91}, {"time": 223, "pitch": 87, "duration": 6, "velocity": 90}, {"time": 229, "pitch": 84, "duration": 6, "velocity": 96}, {"time": 235, "pitch": 87, "duration": 7, "velocity": 94}, {"time": 241, "pitch": 89, "duration": 30, "velocity": 104}, {"time": 271, "pitch": 87, "duration": 12, "velocity": 88}, {"time": 283, "pitch": 84, "duration": 2, "velocity": 79}, {"time": 285, "pitch": 87, "duration": 1, "velocity": 75}, {"time": 286, "pitch": 84, "duration": 3, "velocity": 79}, {"time": 289, "pitch": 82, "duration": 30, "velocity": 86}, {"time": 319, "pitch": 80, "duration": 12, "velocity": 85}, {"time": 331, "pitch": 82, "duration": 7, "velocity": 84}, {"time": 337, "pitch": 84, "duration": 30, "velocity": 91}, {"time": 367, "pitch": 82, "duration": 6, "velocity": 98}, {"time": 373, "pitch": 84, "duration": 6, "velocity": 86}, {"time": 379, "pitch": 80, "duration": 6, "velocity": 89}, {"time": 385, "pitch": 79, "duration": 48, "velocity": 94}, {"time": 529, "pitch": 72, "duration": 9, "velocity": 87}, {"time": 538, "pitch": 72, "duration": 9, "velocity": 87}, {"time": 547, "pitch": 72, "duration": 12, "velocity": 87}, {"time": 559, "pitch": 72, "duration": 18, "velocity": 87}, {"time": 625, "pitch": 72, "duration": 9, "velocity": 87}, {"time": 634, "pitch": 72, "duration": 9, "velocity": 87}, {"time": 643, "pitch": 72, "duration": 12, "velocity": 87}, {"time": 655, "pitch": 72, "duration": 30, "velocity": 87}, {"time": 685, "pitch": 75, "duration": 36, "velocity": 96}, {"time": 3121, "pitch": 80, "duration": 6, "velocity": 116}, {"time": 3127, "pitch": 77, "duration": 12, "velocity": 110}, {"time": 3139, "pitch": 80, "duration": 12, "velocity": 113}, {"time": 3151, "pitch": 77, "duration": 6, "velocity": 107}, {"time": 3157, "pitch": 79, "duration": 6, "velocity": 98}, {"time": 3163, "pitch": 80, "duration": 6, "velocity": 108}, {"time": 3169, "pitch": 82, "duration": 6, "velocity": 113}, {"time": 3175, "pitch": 79, "duration": 12, "velocity": 110}, {"time": 3187, "pitch": 82, "duration": 36, "velocity": 107}, {"time": 3223, "pitch": 87, "duration": 6, "velocity": 104}, {"time": 3229, "pitch": 89, "duration": 6, "velocity": 110}, {"time": 3235, "pitch": 82, "duration": 6, "velocity": 110}, {"time": 3241, "pitch": 84, "duration": 6, "velocity": 110}, {"time": 3247, "pitch": 80, "duration": 6, "velocity": 107}, {"time": 3253, "pitch": 82, "duration": 66, "velocity": 100}, {"time": 3319, "pitch": 84, "duration": 6, "velocity": 116}, {"time": 3325, "pitch": 80, "duration": 6, "velocity": 108}, {"time": 3331, "pitch": 77, "duration": 6, "velocity": 98}, {"time": 3337, "pitch": 77, "duration": 18, "velocity": 113}, {"time": 3355, "pitch": 82, "duration": 3, "velocity": 94}, {"time": 3358, "pitch": 84, "duration": 3, "velocity": 88}, {"time": 3361, "pitch": 82, "duration": 9, "velocity": 102}, {"time": 3370, "pitch": 82, "duration": 9, "velocity": 89}, {"time": 3379, "pitch": 82, "duration": 12, "velocity": 91}, {"time": 3391, "pitch": 75, "duration": 12, "velocity": 89}, {"time": 3403, "pitch": 73, "duration": 6, "velocity": 84}, {"time": 3409, "pitch": 72, "duration": 49, "velocity": 84}, {"time": 3505, "pitch": 72, "duration": 48, "velocity": 114}, {"time": 3553, "pitch": 70, "duration": 48, "velocity": 113}, {"time": 3601, "pitch": 68, "duration": 48, "velocity": 113}, {"time": 3649, "pitch": 70, "duration": 24, "velocity": 96}, {"time": 3673, "pitch": 68, "duration": 24, "velocity": 114}, {"time": 3697, "pitch": 65, "duration": 48, "velocity": 117}, {"time": 3745, "pitch": 72, "duration": 18, "velocity": 110}, {"time": 3763, "pitch": 70, "duration": 30, "velocity": 108}, {"time": 3793, "pitch": 72, "duration": 36, "velocity": 107}, {"time": 3829, "pitch": 67, "duration": 7, "velocity": 113}, {"time": 3835, "pitch": 68, "duration": 7, "velocity": 104}, {"time": 3841, "pitch": 70, "duration": 48, "velocity": 113}, {"time": 3889, "pitch": 72, "duration": 48, "velocity": 113}, {"time": 3937, "pitch": 75, "duration": 36, "velocity": 104}, {"time": 3973, "pitch": 70, "duration": 13, "velocity": 104}, {"time": 3985, "pitch": 72, "duration": 36, "velocity": 113}, {"time": 4021, "pitch": 70, "duration": 12, "velocity": 110}, {"time": 4033, "pitch": 68, "duration": 48, "velocity": 110}, {"time": 4081, "pitch": 65, "duration": 48, "velocity": 114}, {"time": 4129, "pitch": 72, "duration": 22, "velocity": 114}, {"time": 4147, "pitch": 70, "duration": 30, "velocity": 113}, {"time": 4177, "pitch": 68, "duration": 30, "velocity": 113}, {"time": 4207, "pitch": 87, "duration": 6, "velocity": 108}, {"time": 4213, "pitch": 84, "duration": 6, "velocity": 88}, {"time": 4219, "pitch": 87, "duration": 6, "velocity": 100}, {"time": 4225, "pitch": 89, "duration": 30, "velocity": 108}, {"time": 4255, "pitch": 87, "duration": 12, "velocity": 94}, {"time": 4267, "pitch": 84, "duration": 2, "velocity": 77}, {"time": 4269, "pitch": 87, "duration": 1, "velocity": 73}, {"time": 4270, "pitch": 84, "duration": 3, "velocity": 82}, {"time": 4273, "pitch": 82, "duration": 30, "velocity": 92}, {"time": 4303, "pitch": 80, "duration": 12, "velocity": 91}, {"time": 4315, "pitch": 82, "duration": 7, "velocity": 88}, {"time": 4321, "pitch": 84, "duration": 30, "velocity": 91}, {"time": 4351, "pitch": 85, "duration": 7, "velocity": 96}, {"time": 4357, "pitch": 84, "duration": 6, "velocity": 89}, {"time": 4363, "pitch": 82, "duration": 7, "velocity": 91}, {"time": 4369, "pitch": 84, "duration": 30, "velocity": 91}, {"time": 4399, "pitch": 87, "duration": 6, "velocity": 90}, {"time": 4405, "pitch": 84, "duration": 6, "velocity": 96}, {"time": 4411, "pitch": 87, "duration": 7, "velocity": 94}, {"time": 4417, "pitch": 89, "duration": 30, "velocity": 104}, {"time": 4447, "pitch": 87, "duration": 12, "velocity": 88}, {"time": 4459, "pitch": 84, "duration": 2, "velocity": 79}, {"time": 4461, "pitch": 87, "duration": 1, "velocity": 75}, {"time": 4462, "pitch": 84, "duration": 3, "velocity": 79}, {"time": 4465, "pitch": 82, "duration": 30, "velocity": 86}, {"time": 4495, "pitch": 80, "duration": 12, "velocity": 85}, {"time": 4507, "pitch": 82, "duration": 7, "velocity": 84}, {"time": 4513, "pitch": 84, "duration": 30, "velocity": 91}, {"time": 4543, "pitch": 82, "duration": 6, "velocity": 98}, {"time": 4549, "pitch": 84, "duration": 6, "velocity": 86}, {"time": 4555, "pitch": 80, "duration": 6, "velocity": 89}, {"time": 4561, "pitch": 79, "duration": 48, "velocity": 94}]}, {"program": 0, "is_drum": false, "name": "PIANO", "notes": [{"time": 49, "pitch": 37, "duration": 7, "velocity": 86}, {"time": 55, "pitch": 41, "duration": 6, "velocity": 79}, {"time": 61, "pitch": 44, "duration": 7, "velocity": 82}, {"time": 67, "pitch": 48, "duration": 26, "velocity": 84}, {"time": 97, "pitch": 39, "duration": 32, "velocity": 80}, {"time": 103, "pitch": 43, "duration": 25, "velocity": 76}, {"time": 109, "pitch": 46, "duration": 20, "velocity": 86}, {"time": 115, "pitch": 51, "duration": 15, "velocity": 86}, {"time": 145, "pitch": 41, "duration": 27, "velocity": 88}, {"time": 151, "pitch": 44, "duration": 21, "velocity": 78}, {"time": 157, "pitch": 48, "duration": 15, "velocity": 78}, {"time": 163, "pitch": 51, "duration": 9, "velocity": 86}, {"time": 193, "pitch": 41, "duration": 38, "velocity": 88}, {"time": 199, "pitch": 44, "duration": 30, "velocity": 83}, {"time": 205, "pitch": 48, "duration": 24, "velocity": 84}, {"time": 211, "pitch": 51, "duration": 18, "velocity": 78}, {"time": 241, "pitch": 37, "duration": 27, "velocity": 87}, {"time": 247, "pitch": 41, "duration": 22, "velocity": 75}, {"time": 253, "pitch": 44, "duration": 15, "velocity": 81}, {"time": 259, "pitch": 48, "duration": 10, "velocity": 81}, {"time": 289, "pitch": 39, "duration": 42, "velocity": 86}, {"time": 295, "pitch": 43, "duration": 35, "velocity": 78}, {"time": 301, "pitch": 46, "duration": 30, "velocity": 80}, {"time": 307, "pitch": 51, "duration": 24, "velocity": 84}, {"time": 337, "pitch": 41, "duration": 27, "velocity": 83}, {"time": 343, "pitch": 44, "duration": 22, "velocity": 74}, {"time": 349, "pitch": 48, "duration": 15, "velocity": 70}, {"time": 355, "pitch": 51, "duration": 8, "velocity": 74}, {"time": 385, "pitch": 41, "duration": 38, "velocity": 87}, {"time": 391, "pitch": 44, "duration": 31, "velocity": 64}, {"time": 397, "pitch": 48, "duration": 25, "velocity": 71}, {"time": 403, "pitch": 51, "duration": 19, "velocity": 70}, {"time": 433, "pitch": 37, "duration": 37, "velocity": 74}, {"time": 433, "pitch": 49, "duration": 37, "velocity": 67}, {"time": 433, "pitch": 56, "duration": 48, "velocity": 74}, {"time": 433, "pitch": 61, "duration": 39, "velocity": 70}, {"time": 481, "pitch": 39, "duration": 37, "velocity": 73}, {"time": 481, "pitch": 51, "duration": 36, "velocity": 74}, {"time": 481, "pitch": 55, "duration": 35, "velocity": 73}, {"time": 481, "pitch": 58, "duration": 35, "velocity": 75}, {"time": 481, "pitch": 63, "duration": 35, "velocity": 72}, {"time": 529, "pitch": 41, "duration": 36, "velocity": 71}, {"time": 529, "pitch": 53, "duration": 37, "velocity": 72}, {"time": 529, "pitch": 56, "duration": 34, "velocity": 68}, {"time": 529, "pitch": 60, "duration": 34, "velocity": 70}, {"time": 529, "pitch": 65, "duration": 33, "velocity": 75}, {"time": 577, "pitch": 41, "duration": 34, "velocity": 71}, {"time": 577, "pitch": 53, "duration": 33, "velocity": 62}, {"time": 577, "pitch": 55, "duration": 34, "velocity": 63}, {"time": 577, "pitch": 56, "duration": 35, "velocity": 68}, {"time": 577, "pitch": 60, "duration": 35, "velocity": 67}, {"time": 625, "pitch": 37, "duration": 38, "velocity": 71}, {"time": 625, "pitch": 49, "duration": 38, "velocity": 68}, {"time": 625, "pitch": 53, "duration": 38, "velocity": 63}, {"time": 625, "pitch": 56, "duration": 40, "velocity": 67}, {"time": 625, "pitch": 61, "duration": 38, "velocity": 75}, {"time": 673, "pitch": 39, "duration": 36, "velocity": 72}, {"time": 673, "pitch": 51, "duration": 36, "velocity": 72}, {"time": 673, "pitch": 55, "duration": 36, "velocity": 69}, {"time": 673, "pitch": 58, "duration": 35, "velocity": 72}, {"time": 673, "pitch": 63, "duration": 35, "velocity": 74}, {"time": 721, "pitch": 41, "duration": 38, "velocity": 70}, {"time": 721, "pitch": 53, "duration": 39, "velocity": 67}, {"time": 721, "pitch": 56, "duration": 39, "velocity": 70}, {"time": 721, "pitch": 60, "duration": 39, "velocity": 75}, {"time": 721, "pitch": 65, "duration": 38, "velocity": 74}, {"time": 769, "pitch": 41, "duration": 35, "velocity": 67}, {"time": 769, "pitch": 53, "duration": 33, "velocity": 67}, {"time": 769, "pitch": 56, "duration": 34, "velocity": 67}, {"time": 769, "pitch": 60, "duration": 34, "velocity": 68}, {"time": 769, "pitch": 65, "duration": 34, "velocity": 71}, {"time": 817, "pitch": 37, "duration": 41, "velocity": 71}, {"time": 823, "pitch": 44, "duration": 34, "velocity": 67}, {"time": 829, "pitch": 49, "duration": 31, "velocity": 77}, {"time": 835, "pitch": 53, "duration": 29, "velocity": 81}, {"time": 835, "pitch": 61, "duration": 28, "velocity": 85}, {"time": 859, "pitch": 56, "duration": 17, "velocity": 72}, {"time": 865, "pitch": 39, "duration": 40, "velocity": 84}, {"time": 871, "pitch": 46, "duration": 43, "velocity": 71}, {"time": 877, "pitch": 51, "duration": 17, "velocity": 78}, {"time": 883, "pitch": 55, "duration": 26, "velocity": 87}, {"time": 883, "pitch": 63, "duration": 18, "velocity": 87}, {"time": 895, "pitch": 51, "duration": 14, "velocity": 76}, {"time": 901, "pitch": 58, "duration": 16, "velocity": 86}, {"time": 913, "pitch": 41, "duration": 44, "velocity": 78}, {"time": 919, "pitch": 48, "duration": 42, "velocity": 77}, {"time": 925, "pitch": 53, "duration": 33, "velocity": 80}, {"time": 931, "pitch": 60, "duration": 17, "velocity": 81}, {"time": 961, "pitch": 41, "duration": 38, "velocity": 81}, {"time": 967, "pitch": 48, "duration": 31, "velocity": 74}, {"time": 973, "pitch": 53, "duration": 8, "velocity": 85}, {"time": 979, "pitch": 56, "duration": 13, "velocity": 85}, {"time": 979, "pitch": 65, "duration": 11, "velocity": 91}, {"time": 991, "pitch": 53, "duration": 6, "velocity": 81}, {"time": 997, "pitch": 63, "duration": 9, "velocity": 93}, {"time": 1009, "pitch": 37, "duration": 41, "velocity": 81}, {"time": 1009, "pitch": 53, "duration": 15, "velocity": 79}, {"time": 1009, "pitch": 61, "duration": 14, "velocity": 86}, {"time": 1015, "pitch": 44, "duration": 42, "velocity": 76}, {"time": 1021, "pitch": 49, "duration": 13, "velocity": 78}, {"time": 1027, "pitch": 56, "duration": 19, "velocity": 86}, {"time": 1039, "pitch": 49, "duration": 16, "velocity": 78}, {"time": 1045, "pitch": 61, "duration": 6, "velocity": 89}, {"time": 1051, "pitch": 63, "duration": 20, "velocity": 86}, {"time": 1057, "pitch": 39, "duration": 42, "velocity": 81}, {"time": 1057, "pitch": 55, "duration": 13, "velocity": 74}, {"time": 1057, "pitch": 58, "duration": 13, "velocity": 76}, {"time": 1063, "pitch": 46, "duration": 43, "velocity": 67}, {"time": 1069, "pitch": 51, "duration": 11, "velocity": 80}, {"time": 1075, "pitch": 55, "duration": 12, "velocity": 71}, {"time": 1075, "pitch": 58, "duration": 14, "velocity": 76}, {"time": 1087, "pitch": 51, "duration": 17, "velocity": 72}, {"time": 1093, "pitch": 55, "duration": 13, "velocity": 82}, {"time": 1099, "pitch": 58, "duration": 7, "velocity": 74}, {"time": 1105, "pitch": 41, "duration": 43, "velocity": 72}, {"time": 1105, "pitch": 56, "duration": 12, "velocity": 80}, {"time": 1111, "pitch": 48, "duration": 38, "velocity": 73}, {"time": 1117, "pitch": 53, "duration": 14, "velocity": 80}, {"time": 1123, "pitch": 60, "duration": 12, "velocity": 83}, {"time": 1129, "pitch": 65, "duration": 6, "velocity": 91}, {"time": 1135, "pitch": 53, "duration": 13, "velocity": 81}, {"time": 1141, "pitch": 60, "duration": 43, "velocity": 86}, {"time": 1141, "pitch": 67, "duration": 5, "velocity": 88}, {"time": 1147, "pitch": 68, "duration": 36, "velocity": 89}, {"time": 1153, "pitch": 41, "duration": 37, "velocity": 71}, {"time": 1183, "pitch": 53, "duration": 9, "velocity": 86}, {"time": 1189, "pitch": 60, "duration": 7, "velocity": 94}, {"time": 1195, "pitch": 67, "duration": 5, "velocity": 79}, {"time": 1201, "pitch": 49, "duration": 39, "velocity": 86}, {"time": 1201, "pitch": 61, "duration": 7, "velocity": 88}, {"time": 1201, "pitch": 63, "duration": 4, "velocity": 86}, {"time": 1201, "pitch": 68, "duration": 11, "velocity": 88}, {"time": 1207, "pitch": 56, "duration": 32, "velocity": 69}, {"time": 1213, "pitch": 61, "duration": 14, "velocity": 80}, {"time": 1219, "pitch": 65, "duration": 11, "velocity": 110}, {"time": 1219, "pitch": 73, "duration": 13, "velocity": 100}, {"time": 1225, "pitch": 68, "duration": 7, "velocity": 73}, {"time": 1231, "pitch": 61, "duration": 6, "velocity": 83}, {"time": 1237, "pitch": 65, "duration": 6, "velocity": 108}, {"time": 1237, "pitch": 73, "duration": 8, "velocity": 98}, {"time": 1249, "pitch": 39, "duration": 38, "velocity": 83}, {"time": 1249, "pitch": 58, "duration": 14, "velocity": 89}, {"time": 1249, "pitch": 63, "duration": 14, "velocity": 89}, {"time": 1249, "pitch": 67, "duration": 14, "velocity": 92}, {"time": 1261, "pitch": 51, "duration": 11, "velocity": 80}, {"time": 1267, "pitch": 58, "duration": 12, "velocity": 92}, {"time": 1267, "pitch": 63, "duration": 12, "velocity": 94}, {"time": 1267, "pitch": 67, "duration": 12, "velocity": 98}, {"time": 1279, "pitch": 51, "duration": 7, "velocity": 84}, {"time": 1285, "pitch": 58, "duration": 7, "velocity": 108}, {"time": 1285, "pitch": 67, "duration": 5, "velocity": 107}, {"time": 1288, "pitch": 63, "duration": 3, "velocity": 44}, {"time": 1297, "pitch": 36, "duration": 36, "velocity": 87}, {"time": 1297, "pitch": 55, "duration": 12, "velocity": 38}, {"time": 1297, "pitch": 60, "duration": 11, "velocity": 63}, {"time": 1297, "pitch": 63, "duration": 11, "velocity": 91}, {"time": 1309, "pitch": 48, "duration": 13, "velocity": 81}, {"time": 1315, "pitch": 55, "duration": 6, "velocity": 93}, {"time": 1321, "pitch": 55, "duration": 1, "velocity": 75}, {"time": 1321, "pitch": 60, "duration": 12, "velocity": 119}, {"time": 1327, "pitch": 48, "duration": 17, "velocity": 98}, {"time": 1333, "pitch": 63, "duration": 9, "velocity": 96}, {"time": 1339, "pitch": 53, "duration": 5, "velocity": 65}, {"time": 1342, "pitch": 56, "duration": 3, "velocity": 77}, {"time": 1345, "pitch": 41, "duration": 40, "velocity": 81}, {"time": 1345, "pitch": 60, "duration": 12, "velocity": 89}, {"time": 1345, "pitch": 63, "duration": 14, "velocity": 84}, {"time": 1351, "pitch": 48, "duration": 32, "velocity": 85}, {"time": 1357, "pitch": 53, "duration": 15, "velocity": 88}, {"time": 1363, "pitch": 55, "duration": 7, "velocity": 86}, {"time": 1369, "pitch": 56, "duration": 11, "velocity": 94}, {"time": 1375, "pitch": 53, "duration": 6, "velocity": 92}, {"time": 1381, "pitch": 60, "duration": 6, "velocity": 104}, {"time": 1387, "pitch": 63, "duration": 4, "velocity": 87}, {"time": 1393, "pitch": 37, "duration": 43, "velocity": 87}, {"time": 1393, "pitch": 53, "duration": 12, "velocity": 87}, {"time": 1393, "pitch": 56, "duration": 13, "velocity": 88}, {"time": 1393, "pitch": 61, "duration": 12, "velocity": 89}, {"time": 1405, "pitch": 49, "duration": 14, "velocity": 79}, {"time": 1411, "pitch": 53, "duration": 13, "velocity": 96}, {"time": 1411, "pitch": 56, "duration": 14, "velocity": 104}, {"time": 1411, "pitch": 61, "duration": 14, "velocity": 100}, {"time": 1423, "pitch": 49, "duration": 17, "velocity": 81}, {"time": 1429, "pitch": 53, "duration": 7, "velocity": 91}, {"time": 1429, "pitch": 61, "duration": 8, "velocity": 89}, {"time": 1435, "pitch": 56, "duration": 4, "velocity": 72}, {"time": 1441, "pitch": 39, "duration": 43, "velocity": 82}, {"time": 1441, "pitch": 55, "duration": 16, "velocity": 74}, {"time": 1441, "pitch": 58, "duration": 16, "velocity": 85}, {"time": 1441, "pitch": 63, "duration": 15, "velocity": 89}, {"time": 1447, "pitch": 46, "duration": 37, "velocity": 75}, {"time": 1453, "pitch": 51, "duration": 14, "velocity": 84}, {"time": 1459, "pitch": 56, "duration": 6, "velocity": 80}, {"time": 1465, "pitch": 55, "duration": 10, "velocity": 81}, {"time": 1465, "pitch": 63, "duration": 9, "velocity": 86}, {"time": 1471, "pitch": 51, "duration": 13, "velocity": 83}, {"time": 1477, "pitch": 55, "duration": 4, "velocity": 65}, {"time": 1477, "pitch": 58, "duration": 12, "velocity": 88}, {"time": 1477, "pitch": 63, "duration": 8, "velocity": 74}, {"time": 1489, "pitch": 44, "duration": 41, "velocity": 88}, {"time": 1495, "pitch": 51, "duration": 35, "velocity": 79}, {"time": 1501, "pitch": 56, "duration": 18, "velocity": 86}, {"time": 1507, "pitch": 58, "duration": 14, "velocity": 100}, {"time": 1507, "pitch": 63, "duration": 9, "velocity": 98}, {"time": 1519, "pitch": 60, "duration": 12, "velocity": 102}, {"time": 1519, "pitch": 63, "duration": 7, "velocity": 96}, {"time": 1525, "pitch": 56, "duration": 9, "velocity": 84}, {"time": 1531, "pitch": 58, "duration": 4, "velocity": 94}, {"time": 1537, "pitch": 44, "duration": 37, "velocity": 86}, {"time": 1537, "pitch": 60, "duration": 14, "velocity": 102}, {"time": 1537, "pitch": 63, "duration": 15, "velocity": 114}, {"time": 1537, "pitch": 66, "duration": 15, "velocity": 109}, {"time": 1549, "pitch": 51, "duration": 12, "velocity": 81}, {"time": 1555, "pitch": 60, "duration": 12, "velocity": 94}, {"time": 1555, "pitch": 63, "duration": 12, "velocity": 98}, {"time": 1555, "pitch": 66, "duration": 12, "velocity": 90}, {"time": 1567, "pitch": 51, "duration": 7, "velocity": 87}, {"time": 1573, "pitch": 60, "duration": 7, "velocity": 108}, {"time": 1573, "pitch": 66, "duration": 7, "velocity": 116}, {"time": 1579, "pitch": 63, "duration": 6, "velocity": 88}, {"time": 1585, "pitch": 37, "duration": 43, "velocity": 89}, {"time": 1585, "pitch": 56, "duration": 15, "velocity": 91}, {"time": 1585, "pitch": 61, "duration": 11, "velocity": 100}, {"time": 1585, "pitch": 65, "duration": 13, "velocity": 96}, {"time": 1597, "pitch": 49, "duration": 10, "velocity": 82}, {"time": 1603, "pitch": 56, "duration": 16, "velocity": 94}, {"time": 1603, "pitch": 65, "duration": 15, "velocity": 98}, {"time": 1615, "pitch": 49, "duration": 12, "velocity": 85}, {"time": 1621, "pitch": 65, "duration": 8, "velocity": 113}, {"time": 1633, "pitch": 37, "duration": 35, "velocity": 84}, {"time": 1633, "pitch": 55, "duration": 19, "velocity": 88}, {"time": 1633, "pitch": 58, "duration": 20, "velocity": 107}, {"time": 1633, "pitch": 63, "duration": 19, "velocity": 98}, {"time": 1651, "pitch": 49, "duration": 9, "velocity": 87}, {"time": 1657, "pitch": 55, "duration": 11, "velocity": 108}, {"time": 1657, "pitch": 63, "duration": 8, "velocity": 104}, {"time": 1663, "pitch": 49, "duration": 7, "velocity": 98}, {"time": 1669, "pitch": 58, "duration": 11, "velocity": 110}, {"time": 1675, "pitch": 63, "duration": 19, "velocity": 93}, {"time": 1681, "pitch": 48, "duration": 39, "velocity": 88}, {"time": 1681, "pitch": 55, "duration": 8, "velocity": 88}, {"time": 1681, "pitch": 60, "duration": 11, "velocity": 91}, {"time": 1690, "pitch": 55, "duration": 15, "velocity": 80}, {"time": 1699, "pitch": 60, "duration": 12, "velocity": 98}, {"time": 1699, "pitch": 67, "duration": 13, "velocity": 107}, {"time": 1705, "pitch": 63, "duration": 6, "velocity": 74}, {"time": 1711, "pitch": 55, "duration": 8, "velocity": 88}, {"time": 1717, "pitch": 60, "duration": 7, "velocity": 110}, {"time": 1723, "pitch": 63, "duration": 2, "velocity": 88}, {"time": 1729, "pitch": 41, "duration": 38, "velocity": 84}, {"time": 1729, "pitch": 56, "duration": 11, "velocity": 87}, {"time": 1729, "pitch": 60, "duration": 11, "velocity": 94}, {"time": 1729, "pitch": 65, "duration": 10, "velocity": 94}, {"time": 1735, "pitch": 48, "duration": 32, "velocity": 82}, {"time": 1741, "pitch": 53, "duration": 13, "velocity": 86}, {"time": 1747, "pitch": 55, "duration": 6, "velocity": 91}, {"time": 1747, "pitch": 60, "duration": 5, "velocity": 96}, {"time": 1753, "pitch": 56, "duration": 8, "velocity": 92}, {"time": 1753, "pitch": 60, "duration": 7, "velocity": 87}, {"time": 1759, "pitch": 53, "duration": 7, "velocity": 90}, {"time": 1765, "pitch": 55, "duration": 7, "velocity": 100}, {"time": 1765, "pitch": 60, "duration": 7, "velocity": 100}, {"time": 1771, "pitch": 56, "duration": 3, "velocity": 71}, {"time": 1777, "pitch": 37, "duration": 41, "velocity": 86}, {"time": 1777, "pitch": 53, "duration": 3, "velocity": 84}, {"time": 1777, "pitch": 56, "duration": 5, "velocity": 87}, {"time": 1777, "pitch": 61, "duration": 6, "velocity": 94}, {"time": 1789, "pitch": 49, "duration": 13, "velocity": 81}, {"time": 1795, "pitch": 56, "duration": 10, "velocity": 108}, {"time": 1795, "pitch": 65, "duration": 15, "velocity": 110}, {"time": 1807, "pitch": 49, "duration": 17, "velocity": 89}, {"time": 1813, "pitch": 56, "duration": 5, "velocity": 113}, {"time": 1819, "pitch": 65, "duration": 5, "velocity": 116}, {"time": 1825, "pitch": 39, "duration": 43, "velocity": 87}, {"time": 1825, "pitch": 58, "duration": 15, "velocity": 91}, {"time": 1825, "pitch": 63, "duration": 11, "velocity": 96}, {"time": 1831, "pitch": 46, "duration": 42, "velocity": 81}, {"time": 1837, "pitch": 51, "duration": 14, "velocity": 81}, {"time": 1843, "pitch": 55, "duration": 10, "velocity": 100}, {"time": 1843, "pitch": 63, "duration": 14, "velocity": 93}, {"time": 1849, "pitch": 58, "duration": 7, "velocity": 85}, {"time": 1855, "pitch": 51, "duration": 18, "velocity": 84}, {"time": 1861, "pitch": 56, "duration": 6, "velocity": 102}, {"time": 1867, "pitch": 58, "duration": 6, "velocity": 87}, {"time": 1873, "pitch": 44, "duration": 89, "velocity": 84}, {"time": 1873, "pitch": 58, "duration": 13, "velocity": 94}, {"time": 1873, "pitch": 63, "duration": 14, "velocity": 94}, {"time": 1879, "pitch": 51, "duration": 83, "velocity": 71}, {"time": 1885, "pitch": 56, "duration": 10, "velocity": 81}, {"time": 1891, "pitch": 60, "duration": 16, "velocity": 92}, {"time": 1891, "pitch": 63, "duration": 12, "velocity": 88}, {"time": 1903, "pitch": 56, "duration": 11, "velocity": 80}, {"time": 1909, "pitch": 58, "duration": 11, "velocity": 78}, {"time": 1918, "pitch": 60, "duration": 21, "velocity": 52}, {"time": 1921, "pitch": 56, "duration": 19, "velocity": 77}, {"time": 1921, "pitch": 63, "duration": 7, "velocity": 83}, {"time": 1939, "pitch": 60, "duration": 10, "velocity": 73}, {"time": 1939, "pitch": 67, "duration": 11, "velocity": 104}, {"time": 1945, "pitch": 56, "duration": 15, "velocity": 83}, {"time": 1951, "pitch": 63, "duration": 7, "velocity": 108}, {"time": 1957, "pitch": 65, "duration": 9, "velocity": 113}, {"time": 1966, "pitch": 56, "duration": 16, "velocity": 76}, {"time": 1969, "pitch": 37, "duration": 42, "velocity": 87}, {"time": 1969, "pitch": 61, "duration": 8, "velocity": 70}, {"time": 1975, "pitch": 49, "duration": 21, "velocity": 68}, {"time": 1981, "pitch": 53, "duration": 4, "velocity": 69}, {"time": 1987, "pitch": 53, "duration": 14, "velocity": 86}, {"time": 1987, "pitch": 61, "duration": 14, "velocity": 94}, {"time": 1999, "pitch": 49, "duration": 19, "velocity": 84}, {"time": 2005, "pitch": 53, "duration": 5, "velocity": 80}, {"time": 2011, "pitch": 61, "duration": 4, "velocity": 88}, {"time": 2017, "pitch": 39, "duration": 40, "velocity": 82}, {"time": 2017, "pitch": 55, "duration": 9, "velocity": 83}, {"time": 2017, "pitch": 63, "duration": 12, "velocity": 88}, {"time": 2023, "pitch": 46, "duration": 36, "velocity": 77}, {"time": 2029, "pitch": 51, "duration": 16, "velocity": 81}, {"time": 2035, "pitch": 58, "duration": 16, "velocity": 89}, {"time": 2035, "pitch": 67, "duration": 18, "velocity": 104}, {"time": 2047, "pitch": 51, "duration": 15, "velocity": 86}, {"time": 2053, "pitch": 58, "duration": 2, "velocity": 85}, {"time": 2053, "pitch": 65, "duration": 8, "velocity": 93}, {"time": 2062, "pitch": 60, "duration": 2, "velocity": 82}, {"time": 2065, "pitch": 41, "duration": 46, "velocity": 81}, {"time": 2065, "pitch": 56, "duration": 18, "velocity": 85}, {"time": 2065, "pitch": 65, "duration": 11, "velocity": 90}, {"time": 2071, "pitch": 48, "duration": 40, "velocity": 76}, {"time": 2077, "pitch": 53, "duration": 16, "velocity": 83}, {"time": 2083, "pitch": 55, "duration": 13, "velocity": 83}, {"time": 2083, "pitch": 60, "duration": 13, "velocity": 86}, {"time": 2095, "pitch": 53, "duration": 14, "velocity": 81}, {"time": 2107, "pitch": 56, "duration": 5, "velocity": 85}, {"time": 2107, "pitch": 65, "duration": 5, "velocity": 88}, {"time": 2113, "pitch": 41, "duration": 38, "velocity": 83}, {"time": 2113, "pitch": 56, "duration": 3, "velocity": 88}, {"time": 2113, "pitch": 65, "duration": 7, "velocity": 96}, {"time": 2119, "pitch": 48, "duration": 31, "velocity": 72}, {"time": 2125, "pitch": 53, "duration": 12, "velocity": 81}, {"time": 2131, "pitch": 60, "duration": 12, "velocity": 96}, {"time": 2131, "pitch": 67, "duration": 17, "velocity": 113}, {"time": 2143, "pitch": 53, "duration": 7, "velocity": 83}, {"time": 2149, "pitch": 68, "duration": 6, "velocity": 110}, {"time": 2161, "pitch": 37, "duration": 11, "velocity": 81}, {"time": 2161, "pitch": 56, "duration": 17, "velocity": 65}, {"time": 2161, "pitch": 61, "duration": 1, "velocity": 67}, {"time": 2161, "pitch": 65, "duration": 15, "velocity": 100}, {"time": 2167, "pitch": 44, "duration": 7, "velocity": 68}, {"time": 2173, "pitch": 49, "duration": 7, "velocity": 79}, {"time": 2179, "pitch": 51, "duration": 19, "velocity": 80}, {"time": 2179, "pitch": 56, "duration": 13, "velocity": 85}, {"time": 2179, "pitch": 65, "duration": 12, "velocity": 89}, {"time": 2191, "pitch": 53, "duration": 9, "velocity": 72}, {"time": 2197, "pitch": 56, "duration": 7, "velocity": 96}, {"time": 2197, "pitch": 65, "duration": 7, "velocity": 92}, {"time": 2209, "pitch": 39, "duration": 42, "velocity": 81}, {"time": 2209, "pitch": 55, "duration": 18, "velocity": 81}, {"time": 2209, "pitch": 58, "duration": 6, "velocity": 87}, {"time": 2209, "pitch": 63, "duration": 15, "velocity": 86}, {"time": 2215, "pitch": 46, "duration": 43, "velocity": 72}, {"time": 2221, "pitch": 51, "duration": 12, "velocity": 71}, {"time": 2227, "pitch": 55, "duration": 14, "velocity": 71}, {"time": 2227, "pitch": 63, "duration": 13, "velocity": 78}, {"time": 2239, "pitch": 51, "duration": 14, "velocity": 76}, {"time": 2245, "pitch": 55, "duration": 5, "velocity": 87}, {"time": 2245, "pitch": 63, "duration": 8, "velocity": 85}, {"time": 2254, "pitch": 56, "duration": 17, "velocity": 63}, {"time": 2257, "pitch": 41, "duration": 43, "velocity": 76}, {"time": 2257, "pitch": 65, "duration": 7, "velocity": 85}, {"time": 2263, "pitch": 48, "duration": 43, "velocity": 76}, {"time": 2269, "pitch": 53, "duration": 15, "velocity": 80}, {"time": 2275, "pitch": 55, "duration": 22, "velocity": 87}, {"time": 2275, "pitch": 60, "duration": 20, "velocity": 80}, {"time": 2293, "pitch": 53, "duration": 7, "velocity": 75}, {"time": 2299, "pitch": 56, "duration": 32, "velocity": 84}, {"time": 2305, "pitch": 41, "duration": 47, "velocity": 77}, {"time": 2323, "pitch": 48, "duration": 15, "velocity": 84}, {"time": 2329, "pitch": 53, "duration": 8, "velocity": 87}, {"time": 2335, "pitch": 55, "duration": 7, "velocity": 104}, {"time": 2341, "pitch": 56, "duration": 5, "velocity": 91}, {"time": 2347, "pitch": 60, "duration": 4, "velocity": 68}, {"time": 2353, "pitch": 49, "duration": 41, "velocity": 81}, {"time": 2353, "pitch": 61, "duration": 7, "velocity": 87}, {"time": 2353, "pitch": 65, "duration": 8, "velocity": 91}, {"time": 2359, "pitch": 56, "duration": 41, "velocity": 64}, {"time": 2365, "pitch": 61, "duration": 13, "velocity": 80}, {"time": 2371, "pitch": 65, "duration": 17, "velocity": 87}, {"time": 2371, "pitch": 72, "duration": 17, "velocity": 91}, {"time": 2383, "pitch": 61, "duration": 7, "velocity": 84}, {"time": 2389, "pitch": 68, "duration": 10, "velocity": 96}, {"time": 2395, "pitch": 63, "duration": 14, "velocity": 69}, {"time": 2398, "pitch": 67, "duration": 4, "velocity": 74}, {"time": 2401, "pitch": 51, "duration": 41, "velocity": 74}, {"time": 2401, "pitch": 70, "duration": 10, "velocity": 87}, {"time": 2407, "pitch": 58, "duration": 18, "velocity": 83}, {"time": 2413, "pitch": 63, "duration": 3, "velocity": 79}, {"time": 2419, "pitch": 63, "duration": 14, "velocity": 102}, {"time": 2419, "pitch": 70, "duration": 12, "velocity": 107}, {"time": 2431, "pitch": 58, "duration": 11, "velocity": 84}, {"time": 2437, "pitch": 67, "duration": 6, "velocity": 110}, {"time": 2443, "pitch": 70, "duration": 17, "velocity": 81}, {"time": 2449, "pitch": 48, "duration": 37, "velocity": 86}, {"time": 2449, "pitch": 60, "duration": 10, "velocity": 86}, {"time": 2449, "pitch": 63, "duration": 14, "velocity": 85}, {"time": 2449, "pitch": 67, "duration": 11, "velocity": 83}, {"time": 2461, "pitch": 55, "duration": 13, "velocity": 77}, {"time": 2467, "pitch": 60, "duration": 4, "velocity": 96}, {"time": 2473, "pitch": 60, "duration": 9, "velocity": 84}, {"time": 2473, "pitch": 67, "duration": 13, "velocity": 116}, {"time": 2479, "pitch": 55, "duration": 7, "velocity": 84}, {"time": 2485, "pitch": 60, "duration": 6, "velocity": 80}, {"time": 2485, "pitch": 63, "duration": 11, "velocity": 93}, {"time": 2497, "pitch": 41, "duration": 41, "velocity": 83}, {"time": 2497, "pitch": 56, "duration": 12, "velocity": 86}, {"time": 2497, "pitch": 60, "duration": 10, "velocity": 91}, {"time": 2497, "pitch": 65, "duration": 9, "velocity": 89}, {"time": 2503, "pitch": 48, "duration": 33, "velocity": 69}, {"time": 2509, "pitch": 53, "duration": 13, "velocity": 82}, {"time": 2515, "pitch": 55, "duration": 7, "velocity": 89}, {"time": 2515, "pitch": 60, "duration": 12, "velocity": 90}, {"time": 2521, "pitch": 56, "duration": 5, "velocity": 90}, {"time": 2527, "pitch": 53, "duration": 7, "velocity": 83}, {"time": 2533, "pitch": 56, "duration": 6, "velocity": 88}, {"time": 2539, "pitch": 60, "duration": 2, "velocity": 98}, {"time": 2545, "pitch": 37, "duration": 42, "velocity": 86}, {"time": 2545, "pitch": 53, "duration": 6, "velocity": 85}, {"time": 2545, "pitch": 56, "duration": 8, "velocity": 90}, {"time": 2545, "pitch": 61, "duration": 7, "velocity": 92}, {"time": 2557, "pitch": 49, "duration": 14, "velocity": 75}, {"time": 2563, "pitch": 56, "duration": 14, "velocity": 96}, {"time": 2563, "pitch": 65, "duration": 15, "velocity": 100}, {"time": 2575, "pitch": 49, "duration": 18, "velocity": 82}, {"time": 2581, "pitch": 56, "duration": 7, "velocity": 91}, {"time": 2581, "pitch": 65, "duration": 6, "velocity": 80}, {"time": 2587, "pitch": 61, "duration": 3, "velocity": 70}, {"time": 2593, "pitch": 39, "duration": 41, "velocity": 82}, {"time": 2593, "pitch": 55, "duration": 10, "velocity": 86}, {"time": 2593, "pitch": 58, "duration": 12, "velocity": 89}, {"time": 2593, "pitch": 63, "duration": 11, "velocity": 89}, {"time": 2599, "pitch": 46, "duration": 36, "velocity": 73}, {"time": 2605, "pitch": 51, "duration": 14, "velocity": 78}, {"time": 2611, "pitch": 55, "duration": 13, "velocity": 89}, {"time": 2611, "pitch": 63, "duration": 13, "velocity": 91}, {"time": 2623, "pitch": 51, "duration": 15, "velocity": 83}, {"time": 2629, "pitch": 55, "duration": 7, "velocity": 88}, {"time": 2629, "pitch": 63, "duration": 7, "velocity": 86}, {"time": 2641, "pitch": 44, "duration": 42, "velocity": 80}, {"time": 2641, "pitch": 56, "duration": 21, "velocity": 85}, {"time": 2641, "pitch": 60, "duration": 19, "velocity": 83}, {"time": 2665, "pitch": 56, "duration": 7, "velocity": 85}, {"time": 2665, "pitch": 60, "duration": 7, "velocity": 82}, {"time": 2671, "pitch": 51, "duration": 17, "velocity": 70}, {"time": 2677, "pitch": 60, "duration": 5, "velocity": 83}, {"time": 2683, "pitch": 63, "duration": 5, "velocity": 80}, {"time": 2689, "pitch": 44, "duration": 35, "velocity": 84}, {"time": 2689, "pitch": 56, "duration": 11, "velocity": 86}, {"time": 2689, "pitch": 60, "duration": 20, "velocity": 94}, {"time": 2689, "pitch": 66, "duration": 20, "velocity": 103}, {"time": 2707, "pitch": 56, "duration": 7, "velocity": 83}, {"time": 2713, "pitch": 60, "duration": 11, "velocity": 116}, {"time": 2719, "pitch": 56, "duration": 3, "velocity": 82}, {"time": 2725, "pitch": 63, "duration": 9, "velocity": 110}, {"time": 2737, "pitch": 37, "duration": 42, "velocity": 86}, {"time": 2737, "pitch": 56, "duration": 11, "velocity": 89}, {"time": 2737, "pitch": 61, "duration": 12, "velocity": 102}, {"time": 2737, "pitch": 65, "duration": 12, "velocity": 96}, {"time": 2749, "pitch": 49, "duration": 11, "velocity": 73}, {"time": 2755, "pitch": 56, "duration": 13, "velocity": 100}, {"time": 2755, "pitch": 65, "duration": 13, "velocity": 94}, {"time": 2767, "pitch": 49, "duration": 11, "velocity": 84}, {"time": 2773, "pitch": 61, "duration": 10, "velocity": 114}, {"time": 2785, "pitch": 37, "duration": 37, "velocity": 84}, {"time": 2785, "pitch": 55, "duration": 12, "velocity": 88}, {"time": 2785, "pitch": 58, "duration": 14, "velocity": 100}, {"time": 2785, "pitch": 63, "duration": 14, "velocity": 94}, {"time": 2797, "pitch": 49, "duration": 10, "velocity": 65}, {"time": 2803, "pitch": 55, "duration": 12, "velocity": 100}, {"time": 2803, "pitch": 63, "duration": 12, "velocity": 98}, {"time": 2815, "pitch": 49, "duration": 9, "velocity": 86}, {"time": 2821, "pitch": 55, "duration": 8, "velocity": 113}, {"time": 2827, "pitch": 58, "duration": 5, "velocity": 94}, {"time": 2833, "pitch": 48, "duration": 38, "velocity": 86}, {"time": 2833, "pitch": 55, "duration": 3, "velocity": 88}, {"time": 2833, "pitch": 60, "duration": 5, "velocity": 94}, {"time": 2833, "pitch": 63, "duration": 6, "velocity": 90}, {"time": 2845, "pitch": 55, "duration": 15, "velocity": 84}, {"time": 2851, "pitch": 60, "duration": 13, "velocity": 102}, {"time": 2851, "pitch": 67, "duration": 12, "velocity": 108}, {"time": 2863, "pitch": 55, "duration": 7, "velocity": 88}, {"time": 2869, "pitch": 60, "duration": 6, "velocity": 98}, {"time": 2869, "pitch": 63, "duration": 5, "velocity": 102}, {"time": 2875, "pitch": 67, "duration": 4, "velocity": 88}, {"time": 2881, "pitch": 41, "duration": 39, "velocity": 86}, {"time": 2881, "pitch": 56, "duration": 11, "velocity": 88}, {"time": 2881, "pitch": 60, "duration": 11, "velocity": 100}, {"time": 2881, "pitch": 65, "duration": 11, "velocity": 93}, {"time": 2887, "pitch": 48, "duration": 32, "velocity": 80}, {"time": 2893, "pitch": 53, "duration": 13, "velocity": 87}, {"time": 2899, "pitch": 55, "duration": 6, "velocity": 87}, {"time": 2899, "pitch": 60, "duration": 5, "velocity": 87}, {"time": 2905, "pitch": 56, "duration": 4, "velocity": 100}, {"time": 2905, "pitch": 60, "duration": 5, "velocity": 93}, {"time": 2911, "pitch": 53, "duration": 8, "velocity": 87}, {"time": 2917, "pitch": 56, "duration": 7, "velocity": 100}, {"time": 2917, "pitch": 65, "duration": 6, "velocity": 90}, {"time": 2923, "pitch": 60, "duration": 5, "velocity": 89}, {"time": 2929, "pitch": 37, "duration": 43, "velocity": 88}, {"time": 2929, "pitch": 56, "duration": 13, "velocity": 92}, {"time": 2929, "pitch": 61, "duration": 13, "velocity": 104}, {"time": 2929, "pitch": 65, "duration": 13, "velocity": 93}, {"time": 2941, "pitch": 49, "duration": 12, "velocity": 81}, {"time": 2947, "pitch": 56, "duration": 13, "velocity": 93}, {"time": 2947, "pitch": 61, "duration": 13, "velocity": 108}, {"time": 2947, "pitch": 65, "duration": 13, "velocity": 93}, {"time": 2959, "pitch": 49, "duration": 8, "velocity": 89}, {"time": 2965, "pitch": 56, "duration": 6, "velocity": 93}, {"time": 2965, "pitch": 61, "duration": 6, "velocity": 104}, {"time": 2965, "pitch": 65, "duration": 7, "velocity": 90}, {"time": 2971, "pitch": 49, "duration": 3, "velocity": 70}, {"time": 2977, "pitch": 39, "duration": 41, "velocity": 82}, {"time": 2977, "pitch": 55, "duration": 12, "velocity": 87}, {"time": 2977, "pitch": 58, "duration": 13, "velocity": 93}, {"time": 2977, "pitch": 63, "duration": 11, "velocity": 89}, {"time": 2983, "pitch": 46, "duration": 35, "velocity": 78}, {"time": 2989, "pitch": 51, "duration": 10, "velocity": 83}, {"time": 2995, "pitch": 55, "duration": 12, "velocity": 98}, {"time": 2995, "pitch": 58, "duration": 13, "velocity": 113}, {"time": 2995, "pitch": 63, "duration": 13, "velocity": 94}, {"time": 3007, "pitch": 51, "duration": 9, "velocity": 84}, {"time": 3013, "pitch": 55, "duration": 6, "velocity": 100}, {"time": 3013, "pitch": 58, "duration": 10, "velocity": 108}, {"time": 3013, "pitch": 63, "duration": 8, "velocity": 90}, {"time": 3025, "pitch": 44, "duration": 43, "velocity": 74}, {"time": 3025, "pitch": 56, "duration": 6, "velocity": 88}, {"time": 3025, "pitch": 60, "duration": 11, "velocity": 100}, {"time": 3025, "pitch": 63, "duration": 14, "velocity": 89}, {"time": 3031, "pitch": 51, "duration": 36, "velocity": 80}, {"time": 3037, "pitch": 56, "duration": 11, "velocity": 82}, {"time": 3043, "pitch": 58, "duration": 12, "velocity": 100}, {"time": 3043, "pitch": 63, "duration": 12, "velocity": 91}, {"time": 3055, "pitch": 56, "duration": 11, "velocity": 88}, {"time": 3061, "pitch": 60, "duration": 7, "velocity": 107}, {"time": 3067, "pitch": 63, "duration": 4, "velocity": 93}, {"time": 3070, "pitch": 60, "duration": 21, "velocity": 73}, {"time": 3073, "pitch": 44, "duration": 38, "velocity": 84}, {"time": 3073, "pitch": 66, "duration": 16, "velocity": 84}, {"time": 3085, "pitch": 51, "duration": 24, "velocity": 58}, {"time": 3091, "pitch": 63, "duration": 12, "velocity": 89}, {"time": 3103, "pitch": 60, "duration": 8, "velocity": 89}, {"time": 3121, "pitch": 49, "duration": 42, "velocity": 84}, {"time": 3127, "pitch": 56, "duration": 36, "velocity": 75}, {"time": 3133, "pitch": 61, "duration": 34, "velocity": 76}, {"time": 3139, "pitch": 68, "duration": 28, "velocity": 88}, {"time": 3169, "pitch": 49, "duration": 39, "velocity": 86}, {"time": 3181, "pitch": 56, "duration": 31, "velocity": 84}, {"time": 3187, "pitch": 63, "duration": 6, "velocity": 89}, {"time": 3193, "pitch": 67, "duration": 29, "velocity": 104}, {"time": 3217, "pitch": 48, "duration": 39, "velocity": 86}, {"time": 3223, "pitch": 55, "duration": 16, "velocity": 80}, {"time": 3229, "pitch": 60, "duration": 6, "velocity": 88}, {"time": 3235, "pitch": 63, "duration": 17, "velocity": 114}, {"time": 3247, "pitch": 55, "duration": 7, "velocity": 81}, {"time": 3253, "pitch": 58, "duration": 7, "velocity": 89}, {"time": 3259, "pitch": 60, "duration": 21, "velocity": 89}, {"time": 3265, "pitch": 41, "duration": 37, "velocity": 85}, {"time": 3271, "pitch": 48, "duration": 32, "velocity": 81}, {"time": 3277, "pitch": 53, "duration": 13, "velocity": 83}, {"time": 3283, "pitch": 55, "duration": 5, "velocity": 85}, {"time": 3289, "pitch": 56, "duration": 12, "velocity": 96}, {"time": 3295, "pitch": 53, "duration": 9, "velocity": 86}, {"time": 3301, "pitch": 60, "duration": 11, "velocity": 91}, {"time": 3313, "pitch": 49, "duration": 37, "velocity": 85}, {"time": 3313, "pitch": 56, "duration": 4, "velocity": 86}, {"time": 3313, "pitch": 61, "duration": 6, "velocity": 88}, {"time": 3319, "pitch": 56, "duration": 30, "velocity": 75}, {"time": 3325, "pitch": 61, "duration": 25, "velocity": 86}, {"time": 3331, "pitch": 68, "duration": 18, "velocity": 88}, {"time": 3349, "pitch": 65, "duration": 12, "velocity": 86}, {"time": 3361, "pitch": 39, "duration": 40, "velocity": 83}, {"time": 3361, "pitch": 58, "duration": 17, "velocity": 87}, {"time": 3361, "pitch": 67, "duration": 5, "velocity": 88}, {"time": 3367, "pitch": 46, "duration": 35, "velocity": 71}, {"time": 3373, "pitch": 51, "duration": 13, "velocity": 63}, {"time": 3379, "pitch": 55, "duration": 14, "velocity": 88}, {"time": 3379, "pitch": 63, "duration": 13, "velocity": 87}, {"time": 3391, "pitch": 51, "duration": 14, "velocity": 73}, {"time": 3397, "pitch": 55, "duration": 7, "velocity": 83}, {"time": 3397, "pitch": 63, "duration": 11, "velocity": 79}, {"time": 3409, "pitch": 44, "duration": 43, "velocity": 87}, {"time": 3415, "pitch": 51, "duration": 37, "velocity": 78}, {"time": 3421, "pitch": 56, "duration": 15, "velocity": 80}, {"time": 3427, "pitch": 58, "duration": 14, "velocity": 81}, {"time": 3427, "pitch": 63, "duration": 14, "velocity": 84}, {"time": 3439, "pitch": 56, "duration": 12, "velocity": 76}, {"time": 3445, "pitch": 60, "duration": 7, "velocity": 86}, {"time": 3451, "pitch": 63, "duration": 5, "velocity": 80}, {"time": 3457, "pitch": 44, "duration": 37, "velocity": 87}, {"time": 3457, "pitch": 60, "duration": 19, "velocity": 100}, {"time": 3457, "pitch": 66, "duration": 20, "velocity": 113}, {"time": 3475, "pitch": 51, "duration": 7, "velocity": 77}, {"time": 3481, "pitch": 60, "duration": 11, "velocity": 114}, {"time": 3484, "pitch": 51, "duration": 6, "velocity": 85}, {"time": 3493, "pitch": 63, "duration": 10, "velocity": 114}, {"time": 3505, "pitch": 37, "duration": 44, "velocity": 83}, {"time": 3505, "pitch": 56, "duration": 11, "velocity": 91}, {"time": 3505, "pitch": 61, "duration": 11, "velocity": 104}, {"time": 3505, "pitch": 65, "duration": 12, "velocity": 104}, {"time": 3517, "pitch": 49, "duration": 13, "velocity": 80}, {"time": 3523, "pitch": 56, "duration": 16, "velocity": 110}, {"time": 3523, "pitch": 65, "duration": 19, "velocity": 108}, {"time": 3535, "pitch": 49, "duration": 11, "velocity": 89}, {"time": 3541, "pitch": 61, "duration": 11, "velocity": 114}, {"time": 3553, "pitch": 37, "duration": 37, "velocity": 86}, {"time": 3553, "pitch": 55, "duration": 14, "velocity": 88}, {"time": 3553, "pitch": 58, "duration": 15, "velocity": 93}, {"time": 3553, "pitch": 63, "duration": 12, "velocity": 90}, {"time": 3565, "pitch": 49, "duration": 11, "velocity": 76}, {"time": 3571, "pitch": 55, "duration": 13, "velocity": 104}, {"time": 3571, "pitch": 63, "duration": 13, "velocity": 96}, {"time": 3583, "pitch": 49, "duration": 10, "velocity": 84}, {"time": 3589, "pitch": 55, "duration": 7, "velocity": 107}, {"time": 3595, "pitch": 58, "duration": 5, "velocity": 88}, {"time": 3601, "pitch": 48, "duration": 27, "velocity": 87}, {"time": 3601, "pitch": 55, "duration": 16, "velocity": 89}, {"time": 3601, "pitch": 60, "duration": 17, "velocity": 94}, {"time": 3601, "pitch": 63, "duration": 16, "velocity": 91}, {"time": 3619, "pitch": 55, "duration": 14, "velocity": 100}, {"time": 3619, "pitch": 60, "duration": 13, "velocity": 98}, {"time": 3619, "pitch": 63, "duration": 13, "velocity": 90}, {"time": 3631, "pitch": 48, "duration": 9, "velocity": 88}, {"time": 3637, "pitch": 55, "duration": 5, "velocity": 98}, {"time": 3637, "pitch": 60, "duration": 7, "velocity": 102}, {"time": 3637, "pitch": 63, "duration": 7, "velocity": 91}, {"time": 3643, "pitch": 48, "duration": 7, "velocity": 84}, {"time": 3649, "pitch": 41, "duration": 36, "velocity": 84}, {"time": 3649, "pitch": 56, "duration": 13, "velocity": 89}, {"time": 3649, "pitch": 60, "duration": 13, "velocity": 96}, {"time": 3649, "pitch": 65, "duration": 13, "velocity": 91}, {"time": 3655, "pitch": 48, "duration": 30, "velocity": 77}, {"time": 3661, "pitch": 53, "duration": 8, "velocity": 87}, {"time": 3667, "pitch": 56, "duration": 11, "velocity": 100}, {"time": 3667, "pitch": 60, "duration": 13, "velocity": 110}, {"time": 3667, "pitch": 65, "duration": 12, "velocity": 100}, {"time": 3679, "pitch": 53, "duration": 6, "velocity": 90}, {"time": 3685, "pitch": 56, "duration": 8, "velocity": 108}, {"time": 3685, "pitch": 65, "duration": 8, "velocity": 102}, {"time": 3691, "pitch": 39, "duration": 6, "velocity": 87}, {"time": 3697, "pitch": 37, "duration": 43, "velocity": 92}, {"time": 3697, "pitch": 56, "duration": 13, "velocity": 87}, {"time": 3697, "pitch": 61, "duration": 13, "velocity": 91}, {"time": 3697, "pitch": 65, "duration": 13, "velocity": 90}, {"time": 3709, "pitch": 49, "duration": 10, "velocity": 88}, {"time": 3715, "pitch": 56, "duration": 13, "velocity": 91}, {"time": 3715, "pitch": 61, "duration": 12, "velocity": 94}, {"time": 3715, "pitch": 65, "duration": 12, "velocity": 89}, {"time": 3727, "pitch": 49, "duration": 6, "velocity": 92}, {"time": 3733, "pitch": 56, "duration": 7, "velocity": 102}, {"time": 3733, "pitch": 61, "duration": 6, "velocity": 108}, {"time": 3733, "pitch": 65, "duration": 7, "velocity": 98}, {"time": 3739, "pitch": 49, "duration": 6, "velocity": 88}, {"time": 3745, "pitch": 39, "duration": 43, "velocity": 86}, {"time": 3745, "pitch": 55, "duration": 13, "velocity": 87}, {"time": 3745, "pitch": 58, "duration": 14, "velocity": 92}, {"time": 3745, "pitch": 63, "duration": 13, "velocity": 89}, {"time": 3751, "pitch": 46, "duration": 37, "velocity": 81}, {"time": 3757, "pitch": 51, "duration": 9, "velocity": 84}, {"time": 3763, "pitch": 55, "duration": 13, "velocity": 104}, {"time": 3763, "pitch": 58, "duration": 14, "velocity": 114}, {"time": 3763, "pitch": 63, "duration": 13, "velocity": 98}, {"time": 3775, "pitch": 51, "duration": 7, "velocity": 88}, {"time": 3781, "pitch": 55, "duration": 6, "velocity": 93}, {"time": 3781, "pitch": 58, "duration": 9, "velocity": 110}, {"time": 3781, "pitch": 63, "duration": 7, "velocity": 92}, {"time": 3787, "pitch": 51, "duration": 4, "velocity": 76}, {"time": 3793, "pitch": 44, "duration": 44, "velocity": 88}, {"time": 3793, "pitch": 56, "duration": 8, "velocity": 91}, {"time": 3793, "pitch": 60, "duration": 11, "velocity": 104}, {"time": 3793, "pitch": 63, "duration": 12, "velocity": 96}, {"time": 3799, "pitch": 51, "duration": 38, "velocity": 81}, {"time": 3805, "pitch": 56, "duration": 9, "velocity": 91}, {"time": 3811, "pitch": 58, "duration": 14, "velocity": 108}, {"time": 3811, "pitch": 63, "duration": 14, "velocity": 107}, {"time": 3823, "pitch": 56, "duration": 13, "velocity": 102}, {"time": 3829, "pitch": 60, "duration": 8, "velocity": 116}, {"time": 3835, "pitch": 63, "duration": 4, "velocity": 93}, {"time": 3841, "pitch": 44, "duration": 38, "velocity": 91}, {"time": 3841, "pitch": 51, "duration": 37, "velocity": 88}, {"time": 3841, "pitch": 56, "duration": 8, "velocity": 89}, {"time": 3841, "pitch": 60, "duration": 13, "velocity": 104}, {"time": 3841, "pitch": 63, "duration": 13, "velocity": 113}, {"time": 3841, "pitch": 66, "duration": 13, "velocity": 109}, {"time": 3853, "pitch": 56, "duration": 11, "velocity": 93}, {"time": 3859, "pitch": 60, "duration": 12, "velocity": 110}, {"time": 3859, "pitch": 63, "duration": 13, "velocity": 117}, {"time": 3859, "pitch": 66, "duration": 11, "velocity": 119}, {"time": 3871, "pitch": 56, "duration": 6, "velocity": 107}, {"time": 3877, "pitch": 60, "duration": 7, "velocity": 114}, {"time": 3877, "pitch": 66, "duration": 6, "velocity": 119}, {"time": 3883, "pitch": 44, "duration": 2, "velocity": 90}, {"time": 3889, "pitch": 37, "duration": 43, "velocity": 84}, {"time": 3889, "pitch": 56, "duration": 12, "velocity": 94}, {"time": 3889, "pitch": 61, "duration": 11, "velocity": 108}, {"time": 3889, "pitch": 65, "duration": 12, "velocity": 108}, {"time": 3901, "pitch": 49, "duration": 8, "velocity": 91}, {"time": 3907, "pitch": 56, "duration": 13, "velocity": 102}, {"time": 3907, "pitch": 61, "duration": 12, "velocity": 107}, {"time": 3907, "pitch": 65, "duration": 13, "velocity": 94}, {"time": 3919, "pitch": 49, "duration": 7, "velocity": 102}, {"time": 3925, "pitch": 56, "duration": 6, "velocity": 107}, {"time": 3925, "pitch": 65, "duration": 6, "velocity": 102}, {"time": 3931, "pitch": 49, "duration": 6, "velocity": 88}, {"time": 3937, "pitch": 37, "duration": 42, "velocity": 87}, {"time": 3937, "pitch": 55, "duration": 13, "velocity": 93}, {"time": 3937, "pitch": 58, "duration": 14, "velocity": 108}, {"time": 3937, "pitch": 63, "duration": 13, "velocity": 96}, {"time": 3949, "pitch": 49, "duration": 10, "velocity": 86}, {"time": 3955, "pitch": 55, "duration": 13, "velocity": 114}, {"time": 3955, "pitch": 63, "duration": 13, "velocity": 104}, {"time": 3967, "pitch": 49, "duration": 7, "velocity": 100}, {"time": 3973, "pitch": 55, "duration": 9, "velocity": 113}, {"time": 3973, "pitch": 63, "duration": 9, "velocity": 93}, {"time": 3979, "pitch": 49, "duration": 6, "velocity": 96}, {"time": 3985, "pitch": 48, "duration": 28, "velocity": 91}, {"time": 3985, "pitch": 55, "duration": 15, "velocity": 93}, {"time": 3985, "pitch": 60, "duration": 15, "velocity": 107}, {"time": 3985, "pitch": 63, "duration": 15, "velocity": 91}, {"time": 4003, "pitch": 55, "duration": 14, "velocity": 108}, {"time": 4003, "pitch": 60, "duration": 15, "velocity": 108}, {"time": 4003, "pitch": 63, "duration": 14, "velocity": 98}, {"time": 4015, "pitch": 48, "duration": 9, "velocity": 100}, {"time": 4021, "pitch": 55, "duration": 6, "velocity": 107}, {"time": 4021, "pitch": 60, "duration": 7, "velocity": 108}, {"time": 4021, "pitch": 63, "duration": 7, "velocity": 93}, {"time": 4027, "pitch": 48, "duration": 6, "velocity": 86}, {"time": 4033, "pitch": 41, "duration": 37, "velocity": 86}, {"time": 4033, "pitch": 56, "duration": 12, "velocity": 89}, {"time": 4033, "pitch": 60, "duration": 13, "velocity": 98}, {"time": 4033, "pitch": 65, "duration": 11, "velocity": 92}, {"time": 4045, "pitch": 48, "duration": 8, "velocity": 81}, {"time": 4051, "pitch": 56, "duration": 12, "velocity": 102}, {"time": 4051, "pitch": 60, "duration": 13, "velocity": 113}, {"time": 4051, "pitch": 65, "duration": 13, "velocity": 102}, {"time": 4063, "pitch": 48, "duration": 8, "velocity": 88}, {"time": 4069, "pitch": 56, "duration": 9, "velocity": 102}, {"time": 4069, "pitch": 60, "duration": 11, "velocity": 114}, {"time": 4069, "pitch": 65, "duration": 8, "velocity": 100}, {"time": 4075, "pitch": 41, "duration": 3, "velocity": 85}, {"time": 4081, "pitch": 37, "duration": 42, "velocity": 91}, {"time": 4081, "pitch": 56, "duration": 13, "velocity": 88}, {"time": 4081, "pitch": 61, "duration": 14, "velocity": 94}, {"time": 4081, "pitch": 65, "duration": 14, "velocity": 89}, {"time": 4093, "pitch": 49, "duration": 11, "velocity": 83}, {"time": 4099, "pitch": 56, "duration": 13, "velocity": 98}, {"time": 4099, "pitch": 61, "duration": 13, "velocity": 108}, {"time": 4099, "pitch": 65, "duration": 13, "velocity": 91}, {"time": 4111, "pitch": 49, "duration": 6, "velocity": 87}, {"time": 4117, "pitch": 56, "duration": 6, "velocity": 104}, {"time": 4117, "pitch": 61, "duration": 6, "velocity": 113}, {"time": 4117, "pitch": 65, "duration": 6, "velocity": 98}, {"time": 4123, "pitch": 49, "duration": 6, "velocity": 87}, {"time": 4129, "pitch": 39, "duration": 41, "velocity": 86}, {"time": 4129, "pitch": 55, "duration": 12, "velocity": 89}, {"time": 4129, "pitch": 58, "duration": 14, "velocity": 100}, {"time": 4129, "pitch": 63, "duration": 12, "velocity": 89}, {"time": 4135, "pitch": 46, "duration": 34, "velocity": 79}, {"time": 4141, "pitch": 51, "duration": 12, "velocity": 81}, {"time": 4147, "pitch": 55, "duration": 11, "velocity": 102}, {"time": 4147, "pitch": 58, "duration": 13, "velocity": 110}, {"time": 4147, "pitch": 63, "duration": 12, "velocity": 96}, {"time": 4159, "pitch": 51, "duration": 16, "velocity": 88}, {"time": 4165, "pitch": 55, "duration": 6, "velocity": 96}, {"time": 4165, "pitch": 58, "duration": 11, "velocity": 108}, {"time": 4165, "pitch": 63, "duration": 8, "velocity": 90}, {"time": 4177, "pitch": 44, "duration": 52, "velocity": 82}, {"time": 4177, "pitch": 56, "duration": 10, "velocity": 88}, {"time": 4177, "pitch": 60, "duration": 14, "velocity": 92}, {"time": 4177, "pitch": 63, "duration": 11, "velocity": 88}, {"time": 4183, "pitch": 51, "duration": 15, "velocity": 80}, {"time": 4195, "pitch": 56, "duration": 8, "velocity": 88}, {"time": 4195, "pitch": 60, "duration": 15, "velocity": 98}, {"time": 4195, "pitch": 63, "duration": 15, "velocity": 88}, {"time": 4207, "pitch": 51, "duration": 21, "velocity": 87}, {"time": 4213, "pitch": 58, "duration": 7, "velocity": 88}, {"time": 4219, "pitch": 60, "duration": 5, "velocity": 79}, {"time": 4225, "pitch": 37, "duration": 7, "velocity": 86}, {"time": 4231, "pitch": 41, "duration": 6, "velocity": 79}, {"time": 4237, "pitch": 44, "duration": 7, "velocity": 82}, {"time": 4243, "pitch": 48, "duration": 26, "velocity": 84}, {"time": 4273, "pitch": 39, "duration": 32, "velocity": 80}, {"time": 4279, "pitch": 43, "duration": 25, "velocity": 76}, {"time": 4285, "pitch": 46, "duration": 20, "velocity": 86}, {"time": 4291, "pitch": 51, "duration": 15, "velocity": 86}, {"time": 4321, "pitch": 41, "duration": 27, "velocity": 88}, {"time": 4327, "pitch": 44, "duration": 21, "velocity": 78}, {"time": 4333, "pitch": 48, "duration": 15, "velocity": 78}, {"time": 4339, "pitch": 51, "duration": 9, "velocity": 86}, {"time": 4369, "pitch": 41, "duration": 38, "velocity": 88}, {"time": 4375, "pitch": 44, "duration": 30, "velocity": 83}, {"time": 4381, "pitch": 48, "duration": 24, "velocity": 84}, {"time": 4387, "pitch": 51, "duration": 18, "velocity": 78}, {"time": 4417, "pitch": 37, "duration": 27, "velocity": 87}, {"time": 4423, "pitch": 41, "duration": 22, "velocity": 75}, {"time": 4429, "pitch": 44, "duration": 15, "velocity": 81}, {"time": 4435, "pitch": 48, "duration": 10, "velocity": 81}, {"time": 4465, "pitch": 39, "duration": 42, "velocity": 86}, {"time": 4471, "pitch": 43, "duration": 35, "velocity": 78}, {"time": 4477, "pitch": 46, "duration": 30, "velocity": 80}, {"time": 4483, "pitch": 51, "duration": 24, "velocity": 84}, {"time": 4513, "pitch": 41, "duration": 27, "velocity": 83}, {"time": 4519, "pitch": 44, "duration": 22, "velocity": 74}, {"time": 4525, "pitch": 48, "duration": 15, "velocity": 70}, {"time": 4531, "pitch": 51, "duration": 8, "velocity": 74}, {"time": 4561, "pitch": 41, "duration": 38, "velocity": 87}, {"time": 4567, "pitch": 44, "duration": 31, "velocity": 64}, {"time": 4573, "pitch": 48, "duration": 25, "velocity": 71}, {"time": 4579, "pitch": 51, "duration": 19, "velocity": 70}]}]}