{"metadata": {"schema_version": "0.2", "title": "None", "source_filename": "341.mid", "source_format": "midi"}, "resolution": 12, "tempos": [{"time": 0, "qpm": 83.00017983372297}], "time_signatures": [{"time": 0, "numerator": 4, "denominator": 4}], "tracks": [{"program": 0, "is_drum": false, "name": "MELODY", "notes": [{"time": 636, "pitch": 75, "duration": 2, "velocity": 110}, {"time": 642, "pitch": 77, "duration": 5, "velocity": 90}, {"time": 648, "pitch": 78, "duration": 5, "velocity": 119}, {"time": 654, "pitch": 77, "duration": 6, "velocity": 113}, {"time": 660, "pitch": 75, "duration": 6, "velocity": 113}, {"time": 666, "pitch": 77, "duration": 5, "velocity": 110}, {"time": 672, "pitch": 78, "duration": 7, "velocity": 113}, {"time": 678, "pitch": 80, "duration": 6, "velocity": 108}, {"time": 684, "pitch": 82, "duration": 6, "velocity": 113}, {"time": 690, "pitch": 78, "duration": 6, "velocity": 113}, {"time": 696, "pitch": 75, "duration": 8, "velocity": 114}, {"time": 732, "pitch": 78, "duration": 5, "velocity": 113}, {"time": 738, "pitch": 80, "duration": 5, "velocity": 104}, {"time": 744, "pitch": 82, "duration": 6, "velocity": 113}, {"time": 750, "pitch": 80, "duration": 5, "velocity": 104}, {"time": 756, "pitch": 78, "duration": 6, "velocity": 108}, {"time": 762, "pitch": 80, "duration": 7, "velocity": 104}, {"time": 768, "pitch": 82, "duration": 5, "velocity": 108}, {"time": 774, "pitch": 80, "duration": 6, "velocity": 91}, {"time": 780, "pitch": 78, "duration": 6, "velocity": 104}, {"time": 786, "pitch": 80, "duration": 6, "velocity": 100}, {"time": 792, "pitch": 82, "duration": 11, "velocity": 113}, {"time": 828, "pitch": 82, "duration": 5, "velocity": 114}, {"time": 834, "pitch": 85, "duration": 5, "velocity": 113}, {"time": 840, "pitch": 87, "duration": 7, "velocity": 113}, {"time": 852, "pitch": 78, "duration": 3, "velocity": 107}, {"time": 858, "pitch": 82, "duration": 4, "velocity": 102}, {"time": 864, "pitch": 80, "duration": 6, "velocity": 107}, {"time": 876, "pitch": 80, "duration": 5, "velocity": 107}, {"time": 882, "pitch": 82, "duration": 6, "velocity": 98}, {"time": 888, "pitch": 85, "duration": 3, "velocity": 108}, {"time": 894, "pitch": 73, "duration": 3, "velocity": 87}, {"time": 900, "pitch": 73, "duration": 3, "velocity": 93}, {"time": 906, "pitch": 80, "duration": 4, "velocity": 104}, {"time": 912, "pitch": 78, "duration": 3, "velocity": 102}, {"time": 924, "pitch": 75, "duration": 3, "velocity": 110}, {"time": 930, "pitch": 82, "duration": 5, "velocity": 113}, {"time": 936, "pitch": 80, "duration": 6, "velocity": 110}, {"time": 942, "pitch": 75, "duration": 4, "velocity": 104}, {"time": 948, "pitch": 80, "duration": 4, "velocity": 108}, {"time": 954, "pitch": 82, "duration": 5, "velocity": 113}, {"time": 960, "pitch": 80, "duration": 3, "velocity": 114}, {"time": 966, "pitch": 75, "duration": 4, "velocity": 108}, {"time": 972, "pitch": 80, "duration": 5, "velocity": 104}, {"time": 978, "pitch": 78, "duration": 6, "velocity": 104}, {"time": 984, "pitch": 77, "duration": 8, "velocity": 110}, {"time": 1068, "pitch": 75, "duration": 2, "velocity": 110}, {"time": 1074, "pitch": 77, "duration": 5, "velocity": 90}, {"time": 1080, "pitch": 78, "duration": 5, "velocity": 119}, {"time": 1086, "pitch": 77, "duration": 6, "velocity": 113}, {"time": 1092, "pitch": 75, "duration": 6, "velocity": 113}, {"time": 1098, "pitch": 77, "duration": 5, "velocity": 110}, {"time": 1104, "pitch": 78, "duration": 7, "velocity": 113}, {"time": 1110, "pitch": 80, "duration": 6, "velocity": 108}, {"time": 1116, "pitch": 82, "duration": 6, "velocity": 113}, {"time": 1122, "pitch": 78, "duration": 6, "velocity": 113}, {"time": 1128, "pitch": 75, "duration": 8, "velocity": 114}, {"time": 1164, "pitch": 78, "duration": 5, "velocity": 113}, {"time": 1170, "pitch": 80, "duration": 5, "velocity": 104}, {"time": 1176, "pitch": 82, "duration": 6, "velocity": 113}, {"time": 1182, "pitch": 80, "duration": 5, "velocity": 104}, {"time": 1188, "pitch": 78, "duration": 6, "velocity": 108}, {"time": 1194, "pitch": 80, "duration": 7, "velocity": 104}, {"time": 1200, "pitch": 82, "duration": 5, "velocity": 108}, {"time": 1206, "pitch": 80, "duration": 6, "velocity": 91}, {"time": 1212, "pitch": 78, "duration": 6, "velocity": 104}, {"time": 1218, "pitch": 85, "duration": 6, "velocity": 100}, {"time": 1224, "pitch": 85, "duration": 4, "velocity": 113}, {"time": 1236, "pitch": 82, "duration": 4, "velocity": 113}, {"time": 1260, "pitch": 82, "duration": 5, "velocity": 114}, {"time": 1266, "pitch": 85, "duration": 5, "velocity": 113}, {"time": 1272, "pitch": 87, "duration": 5, "velocity": 113}, {"time": 1278, "pitch": 78, "duration": 3, "velocity": 107}, {"time": 1284, "pitch": 78, "duration": 3, "velocity": 107}, {"time": 1290, "pitch": 82, "duration": 4, "velocity": 102}, {"time": 1296, "pitch": 80, "duration": 6, "velocity": 107}, {"time": 1308, "pitch": 80, "duration": 5, "velocity": 107}, {"time": 1314, "pitch": 82, "duration": 6, "velocity": 98}, {"time": 1320, "pitch": 85, "duration": 3, "velocity": 108}, {"time": 1326, "pitch": 73, "duration": 3, "velocity": 87}, {"time": 1332, "pitch": 73, "duration": 3, "velocity": 93}, {"time": 1338, "pitch": 80, "duration": 4, "velocity": 104}, {"time": 1344, "pitch": 78, "duration": 3, "velocity": 102}, {"time": 1356, "pitch": 82, "duration": 4, "velocity": 117}, {"time": 1362, "pitch": 80, "duration": 4, "velocity": 108}, {"time": 1368, "pitch": 75, "duration": 4, "velocity": 107}, {"time": 1374, "pitch": 80, "duration": 3, "velocity": 110}, {"time": 1380, "pitch": 80, "duration": 4, "velocity": 113}, {"time": 1386, "pitch": 82, "duration": 5, "velocity": 116}, {"time": 1392, "pitch": 80, "duration": 6, "velocity": 110}, {"time": 1398, "pitch": 78, "duration": 5, "velocity": 110}, {"time": 1404, "pitch": 70, "duration": 4, "velocity": 108}, {"time": 1410, "pitch": 78, "duration": 4, "velocity": 102}, {"time": 1416, "pitch": 78, "duration": 5, "velocity": 100}, {"time": 1422, "pitch": 77, "duration": 5, "velocity": 98}, {"time": 1428, "pitch": 75, "duration": 5, "velocity": 108}, {"time": 1452, "pitch": 90, "duration": 5, "velocity": 119}, {"time": 1458, "pitch": 89, "duration": 6, "velocity": 114}, {"time": 1464, "pitch": 87, "duration": 14, "velocity": 117}, {"time": 1482, "pitch": 85, "duration": 5, "velocity": 113}, {"time": 1488, "pitch": 87, "duration": 8, "velocity": 117}, {"time": 1494, "pitch": 85, "duration": 6, "velocity": 117}, {"time": 1500, "pitch": 82, "duration": 6, "velocity": 117}, {"time": 1506, "pitch": 80, "duration": 5, "velocity": 117}, {"time": 1512, "pitch": 82, "duration": 6, "velocity": 120}, {"time": 1548, "pitch": 75, "duration": 4, "velocity": 117}, {"time": 1554, "pitch": 82, "duration": 5, "velocity": 117}, {"time": 1560, "pitch": 80, "duration": 6, "velocity": 120}, {"time": 1578, "pitch": 78, "duration": 4, "velocity": 116}, {"time": 1584, "pitch": 80, "duration": 5, "velocity": 117}, {"time": 1590, "pitch": 82, "duration": 4, "velocity": 114}, {"time": 1596, "pitch": 85, "duration": 4, "velocity": 117}, {"time": 1602, "pitch": 87, "duration": 4, "velocity": 114}, {"time": 1608, "pitch": 82, "duration": 8, "velocity": 119}, {"time": 1644, "pitch": 90, "duration": 4, "velocity": 119}, {"time": 1650, "pitch": 89, "duration": 3, "velocity": 113}, {"time": 1656, "pitch": 87, "duration": 15, "velocity": 120}, {"time": 1674, "pitch": 85, "duration": 4, "velocity": 117}, {"time": 1680, "pitch": 87, "duration": 5, "velocity": 114}, {"time": 1686, "pitch": 85, "duration": 6, "velocity": 114}, {"time": 1692, "pitch": 75, "duration": 4, "velocity": 116}, {"time": 1698, "pitch": 82, "duration": 4, "velocity": 117}, {"time": 1704, "pitch": 82, "duration": 4, "velocity": 117}, {"time": 1710, "pitch": 80, "duration": 6, "velocity": 116}, {"time": 1740, "pitch": 75, "duration": 4, "velocity": 117}, {"time": 1746, "pitch": 82, "duration": 4, "velocity": 117}, {"time": 1752, "pitch": 80, "duration": 5, "velocity": 120}, {"time": 1770, "pitch": 78, "duration": 4, "velocity": 116}, {"time": 1776, "pitch": 80, "duration": 5, "velocity": 114}, {"time": 1782, "pitch": 78, "duration": 6, "velocity": 113}, {"time": 1788, "pitch": 75, "duration": 6, "velocity": 116}, {"time": 1794, "pitch": 73, "duration": 6, "velocity": 114}, {"time": 1800, "pitch": 75, "duration": 8, "velocity": 114}, {"time": 2268, "pitch": 75, "duration": 2, "velocity": 110}, {"time": 2274, "pitch": 77, "duration": 5, "velocity": 90}, {"time": 2280, "pitch": 78, "duration": 5, "velocity": 119}, {"time": 2286, "pitch": 77, "duration": 6, "velocity": 113}, {"time": 2292, "pitch": 75, "duration": 6, "velocity": 113}, {"time": 2298, "pitch": 77, "duration": 5, "velocity": 110}, {"time": 2304, "pitch": 78, "duration": 7, "velocity": 113}, {"time": 2310, "pitch": 80, "duration": 6, "velocity": 108}, {"time": 2316, "pitch": 82, "duration": 6, "velocity": 113}, {"time": 2322, "pitch": 78, "duration": 6, "velocity": 113}, {"time": 2328, "pitch": 75, "duration": 8, "velocity": 114}, {"time": 2364, "pitch": 78, "duration": 5, "velocity": 113}, {"time": 2370, "pitch": 80, "duration": 5, "velocity": 104}, {"time": 2376, "pitch": 82, "duration": 6, "velocity": 113}, {"time": 2382, "pitch": 80, "duration": 5, "velocity": 104}, {"time": 2388, "pitch": 78, "duration": 6, "velocity": 108}, {"time": 2394, "pitch": 80, "duration": 7, "velocity": 104}, {"time": 2400, "pitch": 82, "duration": 5, "velocity": 108}, {"time": 2406, "pitch": 80, "duration": 6, "velocity": 91}, {"time": 2412, "pitch": 78, "duration": 6, "velocity": 104}, {"time": 2418, "pitch": 80, "duration": 6, "velocity": 100}, {"time": 2424, "pitch": 82, "duration": 4, "velocity": 113}, {"time": 2460, "pitch": 82, "duration": 5, "velocity": 114}, {"time": 2466, "pitch": 85, "duration": 5, "velocity": 113}, {"time": 2472, "pitch": 75, "duration": 5, "velocity": 113}, {"time": 2478, "pitch": 87, "duration": 3, "velocity": 107}, {"time": 2484, "pitch": 78, "duration": 3, "velocity": 107}, {"time": 2490, "pitch": 82, "duration": 4, "velocity": 102}, {"time": 2496, "pitch": 80, "duration": 6, "velocity": 107}, {"time": 2508, "pitch": 80, "duration": 5, "velocity": 107}, {"time": 2514, "pitch": 82, "duration": 6, "velocity": 98}, {"time": 2520, "pitch": 85, "duration": 3, "velocity": 108}, {"time": 2526, "pitch": 73, "duration": 3, "velocity": 87}, {"time": 2532, "pitch": 73, "duration": 3, "velocity": 93}, {"time": 2538, "pitch": 80, "duration": 4, "velocity": 104}, {"time": 2544, "pitch": 78, "duration": 3, "velocity": 102}, {"time": 2556, "pitch": 82, "duration": 4, "velocity": 117}, {"time": 2562, "pitch": 80, "duration": 4, "velocity": 108}, {"time": 2568, "pitch": 75, "duration": 4, "velocity": 107}, {"time": 2574, "pitch": 80, "duration": 3, "velocity": 110}, {"time": 2580, "pitch": 80, "duration": 4, "velocity": 113}, {"time": 2586, "pitch": 82, "duration": 5, "velocity": 116}, {"time": 2592, "pitch": 80, "duration": 6, "velocity": 110}, {"time": 2598, "pitch": 78, "duration": 5, "velocity": 110}, {"time": 2604, "pitch": 70, "duration": 4, "velocity": 108}, {"time": 2610, "pitch": 78, "duration": 4, "velocity": 102}, {"time": 2616, "pitch": 78, "duration": 5, "velocity": 100}, {"time": 2622, "pitch": 77, "duration": 5, "velocity": 98}, {"time": 2628, "pitch": 75, "duration": 5, "velocity": 108}, {"time": 2652, "pitch": 90, "duration": 5, "velocity": 119}, {"time": 2658, "pitch": 89, "duration": 6, "velocity": 114}, {"time": 2664, "pitch": 87, "duration": 14, "velocity": 117}, {"time": 2682, "pitch": 85, "duration": 5, "velocity": 113}, {"time": 2688, "pitch": 87, "duration": 8, "velocity": 117}, {"time": 2694, "pitch": 85, "duration": 6, "velocity": 117}, {"time": 2700, "pitch": 82, "duration": 6, "velocity": 117}, {"time": 2706, "pitch": 80, "duration": 5, "velocity": 117}, {"time": 2712, "pitch": 82, "duration": 6, "velocity": 120}, {"time": 2748, "pitch": 75, "duration": 4, "velocity": 117}, {"time": 2754, "pitch": 82, "duration": 5, "velocity": 117}, {"time": 2760, "pitch": 80, "duration": 6, "velocity": 120}, {"time": 2778, "pitch": 78, "duration": 4, "velocity": 116}, {"time": 2784, "pitch": 80, "duration": 5, "velocity": 117}, {"time": 2790, "pitch": 82, "duration": 4, "velocity": 114}, {"time": 2796, "pitch": 85, "duration": 4, "velocity": 117}, {"time": 2802, "pitch": 87, "duration": 4, "velocity": 114}, {"time": 2808, "pitch": 82, "duration": 8, "velocity": 119}, {"time": 2844, "pitch": 90, "duration": 4, "velocity": 119}, {"time": 2850, "pitch": 89, "duration": 3, "velocity": 113}, {"time": 2856, "pitch": 87, "duration": 15, "velocity": 120}, {"time": 2874, "pitch": 85, "duration": 4, "velocity": 117}, {"time": 2880, "pitch": 87, "duration": 5, "velocity": 114}, {"time": 2886, "pitch": 85, "duration": 6, "velocity": 114}, {"time": 2892, "pitch": 75, "duration": 4, "velocity": 116}, {"time": 2898, "pitch": 82, "duration": 4, "velocity": 117}, {"time": 2904, "pitch": 82, "duration": 4, "velocity": 117}, {"time": 2910, "pitch": 80, "duration": 6, "velocity": 116}, {"time": 2940, "pitch": 75, "duration": 4, "velocity": 117}, {"time": 2946, "pitch": 82, "duration": 4, "velocity": 117}, {"time": 2952, "pitch": 80, "duration": 5, "velocity": 120}, {"time": 2970, "pitch": 78, "duration": 4, "velocity": 116}, {"time": 2976, "pitch": 80, "duration": 5, "velocity": 114}, {"time": 2982, "pitch": 78, "duration": 6, "velocity": 113}, {"time": 2988, "pitch": 75, "duration": 6, "velocity": 116}, {"time": 2994, "pitch": 73, "duration": 6, "velocity": 114}, {"time": 3000, "pitch": 75, "duration": 8, "velocity": 114}, {"time": 3468, "pitch": 70, "duration": 5, "velocity": 116}, {"time": 3474, "pitch": 73, "duration": 4, "velocity": 110}, {"time": 3480, "pitch": 78, "duration": 7, "velocity": 117}, {"time": 3486, "pitch": 75, "duration": 8, "velocity": 114}, {"time": 3498, "pitch": 73, "duration": 4, "velocity": 116}, {"time": 3504, "pitch": 75, "duration": 5, "velocity": 117}, {"time": 3510, "pitch": 73, "duration": 6, "velocity": 116}, {"time": 3516, "pitch": 70, "duration": 6, "velocity": 116}, {"time": 3522, "pitch": 68, "duration": 5, "velocity": 116}, {"time": 3528, "pitch": 70, "duration": 7, "velocity": 119}, {"time": 3564, "pitch": 63, "duration": 4, "velocity": 113}, {"time": 3570, "pitch": 70, "duration": 5, "velocity": 117}, {"time": 3576, "pitch": 68, "duration": 10, "velocity": 116}, {"time": 3594, "pitch": 66, "duration": 5, "velocity": 113}, {"time": 3600, "pitch": 68, "duration": 5, "velocity": 113}, {"time": 3606, "pitch": 70, "duration": 5, "velocity": 114}, {"time": 3612, "pitch": 73, "duration": 5, "velocity": 116}, {"time": 3618, "pitch": 75, "duration": 5, "velocity": 104}, {"time": 3624, "pitch": 70, "duration": 8, "velocity": 114}, {"time": 3660, "pitch": 70, "duration": 6, "velocity": 117}, {"time": 3666, "pitch": 73, "duration": 5, "velocity": 113}, {"time": 3672, "pitch": 78, "duration": 5, "velocity": 114}, {"time": 3678, "pitch": 75, "duration": 5, "velocity": 117}, {"time": 3690, "pitch": 73, "duration": 5, "velocity": 116}, {"time": 3696, "pitch": 75, "duration": 6, "velocity": 114}, {"time": 3702, "pitch": 73, "duration": 6, "velocity": 110}, {"time": 3708, "pitch": 63, "duration": 3, "velocity": 91}, {"time": 3714, "pitch": 70, "duration": 4, "velocity": 116}, {"time": 3720, "pitch": 70, "duration": 5, "velocity": 114}, {"time": 3726, "pitch": 68, "duration": 6, "velocity": 116}, {"time": 3756, "pitch": 63, "duration": 3, "velocity": 116}, {"time": 3762, "pitch": 70, "duration": 5, "velocity": 117}, {"time": 3768, "pitch": 68, "duration": 13, "velocity": 119}, {"time": 3786, "pitch": 66, "duration": 4, "velocity": 114}, {"time": 3792, "pitch": 68, "duration": 6, "velocity": 119}, {"time": 3798, "pitch": 66, "duration": 6, "velocity": 117}, {"time": 3804, "pitch": 63, "duration": 6, "velocity": 117}, {"time": 3810, "pitch": 61, "duration": 5, "velocity": 108}, {"time": 3816, "pitch": 63, "duration": 8, "velocity": 116}, {"time": 3852, "pitch": 90, "duration": 5, "velocity": 119}, {"time": 3858, "pitch": 89, "duration": 6, "velocity": 114}, {"time": 3864, "pitch": 87, "duration": 14, "velocity": 117}, {"time": 3882, "pitch": 85, "duration": 5, "velocity": 113}, {"time": 3888, "pitch": 87, "duration": 8, "velocity": 117}, {"time": 3894, "pitch": 85, "duration": 6, "velocity": 117}, {"time": 3900, "pitch": 82, "duration": 6, "velocity": 117}, {"time": 3906, "pitch": 80, "duration": 5, "velocity": 117}, {"time": 3912, "pitch": 82, "duration": 6, "velocity": 120}, {"time": 3948, "pitch": 75, "duration": 4, "velocity": 117}, {"time": 3954, "pitch": 82, "duration": 5, "velocity": 117}, {"time": 3960, "pitch": 80, "duration": 6, "velocity": 120}, {"time": 3972, "pitch": 80, "duration": 4, "velocity": 116}, {"time": 3978, "pitch": 78, "duration": 4, "velocity": 116}, {"time": 3984, "pitch": 80, "duration": 5, "velocity": 117}, {"time": 3990, "pitch": 82, "duration": 4, "velocity": 114}, {"time": 3996, "pitch": 85, "duration": 4, "velocity": 117}, {"time": 4002, "pitch": 87, "duration": 4, "velocity": 114}, {"time": 4014, "pitch": 89, "duration": 8, "velocity": 119}, {"time": 4044, "pitch": 90, "duration": 4, "velocity": 119}, {"time": 4050, "pitch": 89, "duration": 3, "velocity": 113}, {"time": 4056, "pitch": 87, "duration": 15, "velocity": 120}, {"time": 4074, "pitch": 85, "duration": 4, "velocity": 117}, {"time": 4080, "pitch": 87, "duration": 5, "velocity": 114}, {"time": 4086, "pitch": 85, "duration": 6, "velocity": 114}, {"time": 4092, "pitch": 75, "duration": 4, "velocity": 116}, {"time": 4098, "pitch": 82, "duration": 4, "velocity": 117}, {"time": 4104, "pitch": 82, "duration": 4, "velocity": 117}, {"time": 4110, "pitch": 80, "duration": 6, "velocity": 116}, {"time": 4137, "pitch": 75, "duration": 4, "velocity": 117}, {"time": 4140, "pitch": 82, "duration": 4, "velocity": 117}, {"time": 4152, "pitch": 80, "duration": 5, "velocity": 120}, {"time": 4164, "pitch": 80, "duration": 5, "velocity": 120}, {"time": 4170, "pitch": 78, "duration": 4, "velocity": 116}, {"time": 4176, "pitch": 80, "duration": 5, "velocity": 114}, {"time": 4182, "pitch": 78, "duration": 6, "velocity": 113}, {"time": 4188, "pitch": 75, "duration": 6, "velocity": 116}, {"time": 4194, "pitch": 73, "duration": 6, "velocity": 114}, {"time": 4200, "pitch": 75, "duration": 8, "velocity": 114}, {"time": 4236, "pitch": 75, "duration": 5, "velocity": 113}, {"time": 4242, "pitch": 82, "duration": 5, "velocity": 116}, {"time": 4248, "pitch": 80, "duration": 7, "velocity": 117}, {"time": 4266, "pitch": 78, "duration": 5, "velocity": 113}, {"time": 4272, "pitch": 80, "duration": 5, "velocity": 110}, {"time": 4278, "pitch": 78, "duration": 5, "velocity": 110}, {"time": 4284, "pitch": 75, "duration": 4, "velocity": 113}, {"time": 4290, "pitch": 73, "duration": 5, "velocity": 104}, {"time": 4302, "pitch": 75, "duration": 6, "velocity": 100}, {"time": 4332, "pitch": 75, "duration": 4, "velocity": 104}, {"time": 4338, "pitch": 82, "duration": 5, "velocity": 107}, {"time": 4344, "pitch": 80, "duration": 6, "velocity": 102}, {"time": 4362, "pitch": 78, "duration": 5, "velocity": 92}, {"time": 4368, "pitch": 80, "duration": 5, "velocity": 92}, {"time": 4374, "pitch": 78, "duration": 7, "velocity": 93}, {"time": 4383, "pitch": 75, "duration": 7, "velocity": 98}, {"time": 4392, "pitch": 73, "duration": 12, "velocity": 87}, {"time": 4401, "pitch": 75, "duration": 10, "velocity": 89}]}, {"program": 0, "is_drum": false, "name": "PIANO", "notes": [{"time": 264, "pitch": 51, "duration": 15, "velocity": 87}, {"time": 264, "pitch": 63, "duration": 16, "velocity": 68}, {"time": 264, "pitch": 66, "duration": 17, "velocity": 82}, {"time": 264, "pitch": 70, "duration": 17, "velocity": 81}, {"time": 282, "pitch": 51, "duration": 15, "velocity": 87}, {"time": 282, "pitch": 63, "duration": 16, "velocity": 68}, {"time": 282, "pitch": 66, "duration": 17, "velocity": 82}, {"time": 282, "pitch": 70, "duration": 17, "velocity": 81}, {"time": 312, "pitch": 54, "duration": 15, "velocity": 88}, {"time": 312, "pitch": 61, "duration": 16, "velocity": 84}, {"time": 312, "pitch": 66, "duration": 16, "velocity": 85}, {"time": 312, "pitch": 70, "duration": 15, "velocity": 84}, {"time": 330, "pitch": 54, "duration": 27, "velocity": 88}, {"time": 330, "pitch": 61, "duration": 28, "velocity": 84}, {"time": 330, "pitch": 66, "duration": 28, "velocity": 85}, {"time": 330, "pitch": 70, "duration": 27, "velocity": 84}, {"time": 360, "pitch": 49, "duration": 18, "velocity": 82}, {"time": 360, "pitch": 61, "duration": 17, "velocity": 82}, {"time": 360, "pitch": 65, "duration": 18, "velocity": 87}, {"time": 360, "pitch": 68, "duration": 17, "velocity": 87}, {"time": 378, "pitch": 49, "duration": 1, "velocity": 82}, {"time": 378, "pitch": 61, "duration": 26, "velocity": 82}, {"time": 378, "pitch": 65, "duration": 27, "velocity": 87}, {"time": 378, "pitch": 68, "duration": 26, "velocity": 87}, {"time": 408, "pitch": 49, "duration": 18, "velocity": 82}, {"time": 408, "pitch": 65, "duration": 18, "velocity": 87}, {"time": 408, "pitch": 68, "duration": 18, "velocity": 86}, {"time": 408, "pitch": 73, "duration": 18, "velocity": 86}, {"time": 426, "pitch": 49, "duration": 1, "velocity": 82}, {"time": 426, "pitch": 65, "duration": 18, "velocity": 87}, {"time": 426, "pitch": 68, "duration": 18, "velocity": 86}, {"time": 426, "pitch": 73, "duration": 18, "velocity": 86}, {"time": 456, "pitch": 51, "duration": 43, "velocity": 87}, {"time": 462, "pitch": 58, "duration": 37, "velocity": 82}, {"time": 468, "pitch": 63, "duration": 19, "velocity": 77}, {"time": 474, "pitch": 70, "duration": 18, "velocity": 73}, {"time": 474, "pitch": 75, "duration": 24, "velocity": 88}, {"time": 474, "pitch": 66, "duration": 31, "velocity": 78}, {"time": 480, "pitch": 75, "duration": 18, "velocity": 88}, {"time": 492, "pitch": 63, "duration": 4, "velocity": 79}, {"time": 498, "pitch": 70, "duration": 6, "velocity": 85}, {"time": 504, "pitch": 54, "duration": 45, "velocity": 92}, {"time": 516, "pitch": 61, "duration": 23, "velocity": 83}, {"time": 522, "pitch": 66, "duration": 18, "velocity": 86}, {"time": 522, "pitch": 73, "duration": 18, "velocity": 84}, {"time": 522, "pitch": 70, "duration": 14, "velocity": 87}, {"time": 534, "pitch": 61, "duration": 5, "velocity": 73}, {"time": 540, "pitch": 66, "duration": 1, "velocity": 89}, {"time": 546, "pitch": 70, "duration": 6, "velocity": 88}, {"time": 552, "pitch": 49, "duration": 42, "velocity": 89}, {"time": 558, "pitch": 56, "duration": 36, "velocity": 78}, {"time": 564, "pitch": 61, "duration": 17, "velocity": 81}, {"time": 570, "pitch": 65, "duration": 9, "velocity": 88}, {"time": 570, "pitch": 63, "duration": 7, "velocity": 88}, {"time": 570, "pitch": 68, "duration": 14, "velocity": 90}, {"time": 582, "pitch": 61, "duration": 11, "velocity": 74}, {"time": 588, "pitch": 68, "duration": 10, "velocity": 96}, {"time": 594, "pitch": 49, "duration": 1, "velocity": 73}, {"time": 600, "pitch": 51, "duration": 18, "velocity": 84}, {"time": 600, "pitch": 63, "duration": 9, "velocity": 82}, {"time": 600, "pitch": 66, "duration": 12, "velocity": 83}, {"time": 600, "pitch": 70, "duration": 11, "velocity": 84}, {"time": 606, "pitch": 58, "duration": 36, "velocity": 75}, {"time": 612, "pitch": 65, "duration": 7, "velocity": 83}, {"time": 618, "pitch": 51, "duration": 1, "velocity": 73}, {"time": 618, "pitch": 66, "duration": 24, "velocity": 87}, {"time": 648, "pitch": 51, "duration": 39, "velocity": 87}, {"time": 654, "pitch": 58, "duration": 32, "velocity": 74}, {"time": 660, "pitch": 63, "duration": 18, "velocity": 80}, {"time": 666, "pitch": 66, "duration": 18, "velocity": 86}, {"time": 666, "pitch": 70, "duration": 18, "velocity": 73}, {"time": 684, "pitch": 66, "duration": 12, "velocity": 73}, {"time": 684, "pitch": 70, "duration": 12, "velocity": 73}, {"time": 696, "pitch": 47, "duration": 41, "velocity": 79}, {"time": 702, "pitch": 54, "duration": 35, "velocity": 70}, {"time": 708, "pitch": 59, "duration": 28, "velocity": 81}, {"time": 714, "pitch": 66, "duration": 18, "velocity": 87}, {"time": 714, "pitch": 71, "duration": 18, "velocity": 90}, {"time": 732, "pitch": 66, "duration": 15, "velocity": 73}, {"time": 732, "pitch": 71, "duration": 1, "velocity": 73}, {"time": 744, "pitch": 49, "duration": 39, "velocity": 98}, {"time": 750, "pitch": 56, "duration": 32, "velocity": 80}, {"time": 756, "pitch": 61, "duration": 14, "velocity": 86}, {"time": 762, "pitch": 63, "duration": 18, "velocity": 86}, {"time": 762, "pitch": 68, "duration": 16, "velocity": 86}, {"time": 774, "pitch": 61, "duration": 7, "velocity": 81}, {"time": 780, "pitch": 68, "duration": 15, "velocity": 83}, {"time": 780, "pitch": 65, "duration": 6, "velocity": 94}, {"time": 792, "pitch": 42, "duration": 38, "velocity": 87}, {"time": 798, "pitch": 49, "duration": 33, "velocity": 82}, {"time": 804, "pitch": 54, "duration": 24, "velocity": 86}, {"time": 810, "pitch": 61, "duration": 9, "velocity": 73}, {"time": 810, "pitch": 66, "duration": 9, "velocity": 73}, {"time": 810, "pitch": 56, "duration": 6, "velocity": 80}, {"time": 822, "pitch": 61, "duration": 6, "velocity": 84}, {"time": 828, "pitch": 70, "duration": 6, "velocity": 86}, {"time": 828, "pitch": 66, "duration": 6, "velocity": 88}, {"time": 834, "pitch": 54, "duration": 6, "velocity": 73}, {"time": 840, "pitch": 47, "duration": 18, "velocity": 79}, {"time": 846, "pitch": 54, "duration": 17, "velocity": 72}, {"time": 852, "pitch": 59, "duration": 7, "velocity": 77}, {"time": 858, "pitch": 66, "duration": 9, "velocity": 73}, {"time": 858, "pitch": 63, "duration": 11, "velocity": 85}, {"time": 858, "pitch": 71, "duration": 6, "velocity": 76}, {"time": 864, "pitch": 49, "duration": 18, "velocity": 86}, {"time": 870, "pitch": 56, "duration": 19, "velocity": 83}, {"time": 876, "pitch": 65, "duration": 7, "velocity": 75}, {"time": 876, "pitch": 68, "duration": 12, "velocity": 73}, {"time": 876, "pitch": 61, "duration": 12, "velocity": 86}, {"time": 888, "pitch": 54, "duration": 12, "velocity": 86}, {"time": 894, "pitch": 66, "duration": 7, "velocity": 75}, {"time": 900, "pitch": 53, "duration": 13, "velocity": 87}, {"time": 906, "pitch": 65, "duration": 7, "velocity": 77}, {"time": 912, "pitch": 51, "duration": 18, "velocity": 86}, {"time": 918, "pitch": 58, "duration": 12, "velocity": 81}, {"time": 924, "pitch": 65, "duration": 7, "velocity": 88}, {"time": 924, "pitch": 63, "duration": 12, "velocity": 86}, {"time": 936, "pitch": 44, "duration": 38, "velocity": 81}, {"time": 942, "pitch": 51, "duration": 42, "velocity": 77}, {"time": 948, "pitch": 59, "duration": 7, "velocity": 75}, {"time": 948, "pitch": 56, "duration": 13, "velocity": 79}, {"time": 960, "pitch": 63, "duration": 7, "velocity": 78}, {"time": 966, "pitch": 56, "duration": 12, "velocity": 74}, {"time": 972, "pitch": 63, "duration": 3, "velocity": 86}, {"time": 972, "pitch": 59, "duration": 11, "velocity": 81}, {"time": 984, "pitch": 46, "duration": 72, "velocity": 79}, {"time": 990, "pitch": 53, "duration": 68, "velocity": 68}, {"time": 996, "pitch": 58, "duration": 62, "velocity": 79}, {"time": 1002, "pitch": 63, "duration": 8, "velocity": 83}, {"time": 1008, "pitch": 62, "duration": 37, "velocity": 86}, {"time": 1080, "pitch": 51, "duration": 18, "velocity": 82}, {"time": 1080, "pitch": 63, "duration": 13, "velocity": 83}, {"time": 1080, "pitch": 70, "duration": 11, "velocity": 86}, {"time": 1086, "pitch": 58, "duration": 20, "velocity": 68}, {"time": 1092, "pitch": 65, "duration": 6, "velocity": 83}, {"time": 1098, "pitch": 51, "duration": 1, "velocity": 73}, {"time": 1098, "pitch": 63, "duration": 13, "velocity": 88}, {"time": 1098, "pitch": 70, "duration": 12, "velocity": 89}, {"time": 1104, "pitch": 66, "duration": 7, "velocity": 74}, {"time": 1110, "pitch": 51, "duration": 15, "velocity": 73}, {"time": 1116, "pitch": 63, "duration": 7, "velocity": 86}, {"time": 1116, "pitch": 70, "duration": 9, "velocity": 84}, {"time": 1125, "pitch": 51, "duration": 3, "velocity": 73}, {"time": 1128, "pitch": 63, "duration": 6, "velocity": 73}, {"time": 1128, "pitch": 71, "duration": 6, "velocity": 73}, {"time": 1128, "pitch": 47, "duration": 18, "velocity": 83}, {"time": 1134, "pitch": 54, "duration": 36, "velocity": 40}, {"time": 1140, "pitch": 59, "duration": 18, "velocity": 76}, {"time": 1146, "pitch": 47, "duration": 1, "velocity": 73}, {"time": 1146, "pitch": 63, "duration": 17, "velocity": 83}, {"time": 1146, "pitch": 71, "duration": 18, "velocity": 81}, {"time": 1158, "pitch": 66, "duration": 11, "velocity": 84}, {"time": 1164, "pitch": 63, "duration": 4, "velocity": 88}, {"time": 1164, "pitch": 71, "duration": 1, "velocity": 81}, {"time": 1170, "pitch": 59, "duration": 7, "velocity": 79}, {"time": 1176, "pitch": 61, "duration": 6, "velocity": 73}, {"time": 1176, "pitch": 68, "duration": 6, "velocity": 73}, {"time": 1176, "pitch": 49, "duration": 40, "velocity": 88}, {"time": 1182, "pitch": 56, "duration": 33, "velocity": 77}, {"time": 1188, "pitch": 61, "duration": 13, "velocity": 83}, {"time": 1194, "pitch": 63, "duration": 7, "velocity": 82}, {"time": 1194, "pitch": 68, "duration": 12, "velocity": 86}, {"time": 1200, "pitch": 65, "duration": 6, "velocity": 86}, {"time": 1206, "pitch": 61, "duration": 6, "velocity": 85}, {"time": 1212, "pitch": 61, "duration": 1, "velocity": 73}, {"time": 1212, "pitch": 68, "duration": 6, "velocity": 113}, {"time": 1221, "pitch": 49, "duration": 3, "velocity": 73}, {"time": 1224, "pitch": 42, "duration": 30, "velocity": 76}, {"time": 1224, "pitch": 61, "duration": 11, "velocity": 71}, {"time": 1224, "pitch": 66, "duration": 6, "velocity": 77}, {"time": 1230, "pitch": 49, "duration": 31, "velocity": 78}, {"time": 1236, "pitch": 54, "duration": 13, "velocity": 81}, {"time": 1242, "pitch": 58, "duration": 7, "velocity": 83}, {"time": 1242, "pitch": 66, "duration": 12, "velocity": 84}, {"time": 1248, "pitch": 61, "duration": 6, "velocity": 87}, {"time": 1254, "pitch": 42, "duration": 1, "velocity": 73}, {"time": 1254, "pitch": 54, "duration": 9, "velocity": 88}, {"time": 1260, "pitch": 61, "duration": 6, "velocity": 86}, {"time": 1260, "pitch": 70, "duration": 5, "velocity": 87}, {"time": 1266, "pitch": 66, "duration": 6, "velocity": 84}, {"time": 1269, "pitch": 42, "duration": 3, "velocity": 73}, {"time": 1272, "pitch": 47, "duration": 18, "velocity": 81}, {"time": 1272, "pitch": 63, "duration": 14, "velocity": 85}, {"time": 1272, "pitch": 70, "duration": 12, "velocity": 87}, {"time": 1278, "pitch": 54, "duration": 14, "velocity": 74}, {"time": 1284, "pitch": 59, "duration": 6, "velocity": 80}, {"time": 1290, "pitch": 63, "duration": 3, "velocity": 83}, {"time": 1290, "pitch": 70, "duration": 5, "velocity": 86}, {"time": 1296, "pitch": 49, "duration": 18, "velocity": 84}, {"time": 1296, "pitch": 61, "duration": 6, "velocity": 86}, {"time": 1296, "pitch": 65, "duration": 6, "velocity": 86}, {"time": 1296, "pitch": 68, "duration": 6, "velocity": 84}, {"time": 1302, "pitch": 56, "duration": 14, "velocity": 73}, {"time": 1308, "pitch": 61, "duration": 6, "velocity": 87}, {"time": 1308, "pitch": 68, "duration": 6, "velocity": 87}, {"time": 1314, "pitch": 65, "duration": 5, "velocity": 85}, {"time": 1320, "pitch": 54, "duration": 12, "velocity": 83}, {"time": 1320, "pitch": 61, "duration": 10, "velocity": 84}, {"time": 1320, "pitch": 66, "duration": 11, "velocity": 86}, {"time": 1320, "pitch": 70, "duration": 10, "velocity": 85}, {"time": 1332, "pitch": 53, "duration": 12, "velocity": 87}, {"time": 1332, "pitch": 65, "duration": 12, "velocity": 91}, {"time": 1332, "pitch": 68, "duration": 12, "velocity": 87}, {"time": 1344, "pitch": 51, "duration": 18, "velocity": 87}, {"time": 1344, "pitch": 63, "duration": 5, "velocity": 81}, {"time": 1344, "pitch": 66, "duration": 19, "velocity": 86}, {"time": 1344, "pitch": 70, "duration": 13, "velocity": 85}, {"time": 1350, "pitch": 58, "duration": 11, "velocity": 77}, {"time": 1356, "pitch": 63, "duration": 4, "velocity": 86}, {"time": 1362, "pitch": 65, "duration": 10, "velocity": 85}, {"time": 1368, "pitch": 44, "duration": 19, "velocity": 85}, {"time": 1374, "pitch": 51, "duration": 18, "velocity": 80}, {"time": 1380, "pitch": 56, "duration": 11, "velocity": 86}, {"time": 1386, "pitch": 59, "duration": 7, "velocity": 85}, {"time": 1386, "pitch": 68, "duration": 5, "velocity": 70}, {"time": 1392, "pitch": 46, "duration": 18, "velocity": 87}, {"time": 1398, "pitch": 53, "duration": 13, "velocity": 81}, {"time": 1404, "pitch": 58, "duration": 13, "velocity": 86}, {"time": 1410, "pitch": 65, "duration": 6, "velocity": 81}, {"time": 1416, "pitch": 51, "duration": 43, "velocity": 88}, {"time": 1422, "pitch": 58, "duration": 13, "velocity": 84}, {"time": 1428, "pitch": 63, "duration": 6, "velocity": 94}, {"time": 1434, "pitch": 65, "duration": 7, "velocity": 94}, {"time": 1440, "pitch": 58, "duration": 19, "velocity": 80}, {"time": 1440, "pitch": 66, "duration": 6, "velocity": 94}, {"time": 1446, "pitch": 70, "duration": 5, "velocity": 82}, {"time": 1452, "pitch": 70, "duration": 3, "velocity": 73}, {"time": 1452, "pitch": 63, "duration": 6, "velocity": 84}, {"time": 1452, "pitch": 75, "duration": 5, "velocity": 108}, {"time": 1458, "pitch": 51, "duration": 1, "velocity": 73}, {"time": 1461, "pitch": 39, "duration": 3, "velocity": 73}, {"time": 1464, "pitch": 51, "duration": 6, "velocity": 84}, {"time": 1464, "pitch": 70, "duration": 16, "velocity": 100}, {"time": 1464, "pitch": 75, "duration": 5, "velocity": 89}, {"time": 1470, "pitch": 51, "duration": 1, "velocity": 73}, {"time": 1470, "pitch": 58, "duration": 12, "velocity": 76}, {"time": 1476, "pitch": 66, "duration": 11, "velocity": 96}, {"time": 1476, "pitch": 75, "duration": 12, "velocity": 98}, {"time": 1476, "pitch": 63, "duration": 13, "velocity": 81}, {"time": 1488, "pitch": 58, "duration": 7, "velocity": 90}, {"time": 1494, "pitch": 51, "duration": 12, "velocity": 73}, {"time": 1494, "pitch": 63, "duration": 7, "velocity": 88}, {"time": 1500, "pitch": 70, "duration": 8, "velocity": 88}, {"time": 1500, "pitch": 66, "duration": 7, "velocity": 102}, {"time": 1500, "pitch": 75, "duration": 16, "velocity": 88}, {"time": 1506, "pitch": 51, "duration": 6, "velocity": 73}, {"time": 1512, "pitch": 42, "duration": 6, "velocity": 92}, {"time": 1518, "pitch": 42, "duration": 1, "velocity": 73}, {"time": 1518, "pitch": 54, "duration": 21, "velocity": 87}, {"time": 1524, "pitch": 61, "duration": 13, "velocity": 94}, {"time": 1524, "pitch": 58, "duration": 7, "velocity": 88}, {"time": 1524, "pitch": 66, "duration": 18, "velocity": 88}, {"time": 1533, "pitch": 42, "duration": 6, "velocity": 73}, {"time": 1542, "pitch": 42, "duration": 9, "velocity": 73}, {"time": 1542, "pitch": 54, "duration": 13, "velocity": 86}, {"time": 1548, "pitch": 61, "duration": 6, "velocity": 91}, {"time": 1548, "pitch": 58, "duration": 6, "velocity": 93}, {"time": 1548, "pitch": 66, "duration": 11, "velocity": 91}, {"time": 1554, "pitch": 42, "duration": 6, "velocity": 73}, {"time": 1560, "pitch": 44, "duration": 6, "velocity": 96}, {"time": 1566, "pitch": 44, "duration": 1, "velocity": 73}, {"time": 1566, "pitch": 51, "duration": 35, "velocity": 86}, {"time": 1572, "pitch": 63, "duration": 6, "velocity": 73}, {"time": 1572, "pitch": 59, "duration": 7, "velocity": 103}, {"time": 1572, "pitch": 68, "duration": 6, "velocity": 91}, {"time": 1578, "pitch": 56, "duration": 8, "velocity": 81}, {"time": 1590, "pitch": 44, "duration": 12, "velocity": 73}, {"time": 1590, "pitch": 56, "duration": 11, "velocity": 80}, {"time": 1596, "pitch": 63, "duration": 9, "velocity": 73}, {"time": 1596, "pitch": 59, "duration": 6, "velocity": 97}, {"time": 1596, "pitch": 68, "duration": 6, "velocity": 94}, {"time": 1602, "pitch": 44, "duration": 6, "velocity": 73}, {"time": 1608, "pitch": 46, "duration": 6, "velocity": 91}, {"time": 1614, "pitch": 46, "duration": 1, "velocity": 78}, {"time": 1614, "pitch": 53, "duration": 36, "velocity": 84}, {"time": 1620, "pitch": 62, "duration": 6, "velocity": 78}, {"time": 1620, "pitch": 65, "duration": 6, "velocity": 78}, {"time": 1620, "pitch": 58, "duration": 8, "velocity": 107}, {"time": 1629, "pitch": 46, "duration": 3, "velocity": 78}, {"time": 1632, "pitch": 46, "duration": 6, "velocity": 78}, {"time": 1638, "pitch": 46, "duration": 12, "velocity": 78}, {"time": 1638, "pitch": 58, "duration": 7, "velocity": 88}, {"time": 1644, "pitch": 62, "duration": 4, "velocity": 113}, {"time": 1644, "pitch": 65, "duration": 4, "velocity": 107}, {"time": 1650, "pitch": 58, "duration": 6, "velocity": 87}, {"time": 1656, "pitch": 51, "duration": 6, "velocity": 85}, {"time": 1662, "pitch": 51, "duration": 1, "velocity": 78}, {"time": 1662, "pitch": 58, "duration": 21, "velocity": 84}, {"time": 1668, "pitch": 65, "duration": 9, "velocity": 100}, {"time": 1668, "pitch": 70, "duration": 9, "velocity": 94}, {"time": 1680, "pitch": 51, "duration": 6, "velocity": 78}, {"time": 1680, "pitch": 63, "duration": 6, "velocity": 98}, {"time": 1680, "pitch": 66, "duration": 7, "velocity": 107}, {"time": 1680, "pitch": 70, "duration": 6, "velocity": 94}, {"time": 1686, "pitch": 51, "duration": 18, "velocity": 78}, {"time": 1686, "pitch": 58, "duration": 9, "velocity": 86}, {"time": 1692, "pitch": 63, "duration": 7, "velocity": 107}, {"time": 1692, "pitch": 70, "duration": 13, "velocity": 98}, {"time": 1704, "pitch": 44, "duration": 6, "velocity": 88}, {"time": 1704, "pitch": 59, "duration": 9, "velocity": 97}, {"time": 1704, "pitch": 68, "duration": 12, "velocity": 96}, {"time": 1710, "pitch": 44, "duration": 1, "velocity": 78}, {"time": 1710, "pitch": 51, "duration": 36, "velocity": 74}, {"time": 1716, "pitch": 59, "duration": 11, "velocity": 100}, {"time": 1716, "pitch": 68, "duration": 1, "velocity": 102}, {"time": 1716, "pitch": 56, "duration": 14, "velocity": 78}, {"time": 1728, "pitch": 44, "duration": 6, "velocity": 78}, {"time": 1728, "pitch": 63, "duration": 6, "velocity": 100}, {"time": 1734, "pitch": 44, "duration": 18, "velocity": 78}, {"time": 1734, "pitch": 56, "duration": 16, "velocity": 86}, {"time": 1740, "pitch": 59, "duration": 6, "velocity": 100}, {"time": 1740, "pitch": 68, "duration": 9, "velocity": 98}, {"time": 1746, "pitch": 63, "duration": 5, "velocity": 81}, {"time": 1752, "pitch": 49, "duration": 6, "velocity": 88}, {"time": 1752, "pitch": 61, "duration": 6, "velocity": 88}, {"time": 1758, "pitch": 49, "duration": 1, "velocity": 78}, {"time": 1764, "pitch": 49, "duration": 12, "velocity": 78}, {"time": 1764, "pitch": 65, "duration": 8, "velocity": 90}, {"time": 1764, "pitch": 61, "duration": 10, "velocity": 89}, {"time": 1764, "pitch": 68, "duration": 7, "velocity": 87}, {"time": 1776, "pitch": 49, "duration": 6, "velocity": 78}, {"time": 1776, "pitch": 61, "duration": 8, "velocity": 96}, {"time": 1782, "pitch": 49, "duration": 18, "velocity": 78}, {"time": 1788, "pitch": 65, "duration": 5, "velocity": 86}, {"time": 1788, "pitch": 63, "duration": 6, "velocity": 91}, {"time": 1788, "pitch": 68, "duration": 6, "velocity": 107}, {"time": 1794, "pitch": 56, "duration": 7, "velocity": 75}, {"time": 1800, "pitch": 51, "duration": 6, "velocity": 84}, {"time": 1800, "pitch": 63, "duration": 5, "velocity": 92}, {"time": 1800, "pitch": 66, "duration": 6, "velocity": 87}, {"time": 1806, "pitch": 51, "duration": 1, "velocity": 78}, {"time": 1806, "pitch": 58, "duration": 36, "velocity": 77}, {"time": 1812, "pitch": 51, "duration": 9, "velocity": 78}, {"time": 1812, "pitch": 66, "duration": 12, "velocity": 88}, {"time": 1812, "pitch": 70, "duration": 11, "velocity": 90}, {"time": 1812, "pitch": 63, "duration": 12, "velocity": 86}, {"time": 1821, "pitch": 51, "duration": 3, "velocity": 78}, {"time": 1824, "pitch": 51, "duration": 24, "velocity": 78}, {"time": 1824, "pitch": 63, "duration": 1, "velocity": 98}, {"time": 1848, "pitch": 51, "duration": 30, "velocity": 86}, {"time": 1848, "pitch": 63, "duration": 11, "velocity": 96}, {"time": 1854, "pitch": 58, "duration": 9, "velocity": 83}, {"time": 1860, "pitch": 63, "duration": 13, "velocity": 87}, {"time": 1866, "pitch": 67, "duration": 8, "velocity": 87}, {"time": 1866, "pitch": 70, "duration": 9, "velocity": 78}, {"time": 1878, "pitch": 51, "duration": 1, "velocity": 78}, {"time": 1878, "pitch": 63, "duration": 8, "velocity": 102}, {"time": 1884, "pitch": 70, "duration": 3, "velocity": 91}, {"time": 1884, "pitch": 67, "duration": 5, "velocity": 87}, {"time": 1890, "pitch": 58, "duration": 6, "velocity": 74}, {"time": 1896, "pitch": 44, "duration": 30, "velocity": 78}, {"time": 1896, "pitch": 59, "duration": 12, "velocity": 89}, {"time": 1902, "pitch": 51, "duration": 33, "velocity": 70}, {"time": 1908, "pitch": 56, "duration": 12, "velocity": 73}, {"time": 1914, "pitch": 63, "duration": 10, "velocity": 72}, {"time": 1914, "pitch": 59, "duration": 12, "velocity": 86}, {"time": 1914, "pitch": 68, "duration": 13, "velocity": 93}, {"time": 1926, "pitch": 44, "duration": 1, "velocity": 78}, {"time": 1926, "pitch": 56, "duration": 6, "velocity": 84}, {"time": 1932, "pitch": 63, "duration": 11, "velocity": 83}, {"time": 1932, "pitch": 68, "duration": 4, "velocity": 91}, {"time": 1938, "pitch": 56, "duration": 5, "velocity": 88}, {"time": 1944, "pitch": 46, "duration": 30, "velocity": 93}, {"time": 1950, "pitch": 53, "duration": 37, "velocity": 78}, {"time": 1956, "pitch": 58, "duration": 12, "velocity": 92}, {"time": 1962, "pitch": 62, "duration": 10, "velocity": 97}, {"time": 1962, "pitch": 65, "duration": 11, "velocity": 96}, {"time": 1974, "pitch": 46, "duration": 1, "velocity": 78}, {"time": 1974, "pitch": 58, "duration": 8, "velocity": 84}, {"time": 1980, "pitch": 62, "duration": 10, "velocity": 97}, {"time": 1980, "pitch": 70, "duration": 15, "velocity": 90}, {"time": 1986, "pitch": 58, "duration": 7, "velocity": 81}, {"time": 1992, "pitch": 51, "duration": 30, "velocity": 88}, {"time": 1998, "pitch": 58, "duration": 20, "velocity": 88}, {"time": 2004, "pitch": 65, "duration": 6, "velocity": 88}, {"time": 2010, "pitch": 63, "duration": 14, "velocity": 87}, {"time": 2010, "pitch": 66, "duration": 17, "velocity": 104}, {"time": 2022, "pitch": 51, "duration": 1, "velocity": 78}, {"time": 2022, "pitch": 58, "duration": 9, "velocity": 87}, {"time": 2028, "pitch": 63, "duration": 5, "velocity": 81}, {"time": 2028, "pitch": 66, "duration": 9, "velocity": 88}, {"time": 2034, "pitch": 65, "duration": 6, "velocity": 98}, {"time": 2040, "pitch": 51, "duration": 30, "velocity": 87}, {"time": 2046, "pitch": 58, "duration": 21, "velocity": 81}, {"time": 2052, "pitch": 63, "duration": 19, "velocity": 86}, {"time": 2058, "pitch": 70, "duration": 6, "velocity": 88}, {"time": 2058, "pitch": 67, "duration": 13, "velocity": 106}, {"time": 2070, "pitch": 51, "duration": 1, "velocity": 78}, {"time": 2070, "pitch": 58, "duration": 8, "velocity": 88}, {"time": 2076, "pitch": 67, "duration": 6, "velocity": 78}, {"time": 2076, "pitch": 63, "duration": 8, "velocity": 102}, {"time": 2082, "pitch": 51, "duration": 6, "velocity": 78}, {"time": 2088, "pitch": 44, "duration": 27, "velocity": 84}, {"time": 2088, "pitch": 59, "duration": 14, "velocity": 95}, {"time": 2094, "pitch": 51, "duration": 36, "velocity": 76}, {"time": 2100, "pitch": 56, "duration": 13, "velocity": 75}, {"time": 2106, "pitch": 63, "duration": 6, "velocity": 88}, {"time": 2106, "pitch": 59, "duration": 7, "velocity": 89}, {"time": 2106, "pitch": 68, "duration": 11, "velocity": 91}, {"time": 2118, "pitch": 44, "duration": 9, "velocity": 78}, {"time": 2118, "pitch": 56, "duration": 16, "velocity": 86}, {"time": 2124, "pitch": 63, "duration": 5, "velocity": 82}, {"time": 2124, "pitch": 59, "duration": 6, "velocity": 100}, {"time": 2124, "pitch": 68, "duration": 11, "velocity": 88}, {"time": 2130, "pitch": 44, "duration": 6, "velocity": 78}, {"time": 2136, "pitch": 49, "duration": 12, "velocity": 87}, {"time": 2136, "pitch": 61, "duration": 6, "velocity": 86}, {"time": 2136, "pitch": 65, "duration": 9, "velocity": 88}, {"time": 2136, "pitch": 68, "duration": 9, "velocity": 82}, {"time": 2142, "pitch": 56, "duration": 9, "velocity": 77}, {"time": 2148, "pitch": 49, "duration": 1, "velocity": 78}, {"time": 2148, "pitch": 61, "duration": 6, "velocity": 86}, {"time": 2148, "pitch": 65, "duration": 9, "velocity": 88}, {"time": 2148, "pitch": 68, "duration": 9, "velocity": 82}, {"time": 2154, "pitch": 56, "duration": 6, "velocity": 78}, {"time": 2160, "pitch": 49, "duration": 12, "velocity": 78}, {"time": 2160, "pitch": 61, "duration": 7, "velocity": 87}, {"time": 2160, "pitch": 65, "duration": 6, "velocity": 83}, {"time": 2160, "pitch": 68, "duration": 7, "velocity": 87}, {"time": 2166, "pitch": 56, "duration": 8, "velocity": 82}, {"time": 2172, "pitch": 49, "duration": 12, "velocity": 78}, {"time": 2172, "pitch": 65, "duration": 12, "velocity": 78}, {"time": 2172, "pitch": 61, "duration": 7, "velocity": 96}, {"time": 2172, "pitch": 68, "duration": 11, "velocity": 90}, {"time": 2178, "pitch": 56, "duration": 7, "velocity": 81}, {"time": 2184, "pitch": 51, "duration": 30, "velocity": 84}, {"time": 2184, "pitch": 63, "duration": 10, "velocity": 81}, {"time": 2184, "pitch": 66, "duration": 11, "velocity": 84}, {"time": 2184, "pitch": 70, "duration": 8, "velocity": 87}, {"time": 2190, "pitch": 58, "duration": 20, "velocity": 74}, {"time": 2196, "pitch": 65, "duration": 6, "velocity": 80}, {"time": 2202, "pitch": 63, "duration": 18, "velocity": 82}, {"time": 2202, "pitch": 70, "duration": 16, "velocity": 85}, {"time": 2214, "pitch": 51, "duration": 1, "velocity": 78}, {"time": 2220, "pitch": 70, "duration": 9, "velocity": 78}, {"time": 2220, "pitch": 65, "duration": 11, "velocity": 84}, {"time": 2226, "pitch": 58, "duration": 3, "velocity": 68}, {"time": 2232, "pitch": 51, "duration": 39, "velocity": 77}, {"time": 2232, "pitch": 58, "duration": 39, "velocity": 76}, {"time": 2232, "pitch": 63, "duration": 38, "velocity": 78}, {"time": 2232, "pitch": 66, "duration": 39, "velocity": 78}, {"time": 2232, "pitch": 70, "duration": 38, "velocity": 79}, {"time": 2280, "pitch": 51, "duration": 15, "velocity": 82}, {"time": 2280, "pitch": 63, "duration": 13, "velocity": 83}, {"time": 2286, "pitch": 58, "duration": 20, "velocity": 68}, {"time": 2292, "pitch": 63, "duration": 1, "velocity": 88}, {"time": 2292, "pitch": 70, "duration": 12, "velocity": 89}, {"time": 2292, "pitch": 65, "duration": 6, "velocity": 83}, {"time": 2298, "pitch": 51, "duration": 24, "velocity": 78}, {"time": 2310, "pitch": 58, "duration": 8, "velocity": 78}, {"time": 2316, "pitch": 66, "duration": 7, "velocity": 74}, {"time": 2316, "pitch": 63, "duration": 7, "velocity": 86}, {"time": 2316, "pitch": 70, "duration": 9, "velocity": 84}, {"time": 2325, "pitch": 51, "duration": 3, "velocity": 78}, {"time": 2328, "pitch": 47, "duration": 24, "velocity": 83}, {"time": 2334, "pitch": 54, "duration": 36, "velocity": 40}, {"time": 2340, "pitch": 63, "duration": 17, "velocity": 83}, {"time": 2340, "pitch": 71, "duration": 19, "velocity": 81}, {"time": 2340, "pitch": 59, "duration": 18, "velocity": 76}, {"time": 2346, "pitch": 66, "duration": 10, "velocity": 84}, {"time": 2352, "pitch": 47, "duration": 1, "velocity": 78}, {"time": 2364, "pitch": 59, "duration": 8, "velocity": 79}, {"time": 2376, "pitch": 49, "duration": 27, "velocity": 88}, {"time": 2382, "pitch": 56, "duration": 33, "velocity": 77}, {"time": 2388, "pitch": 63, "duration": 6, "velocity": 82}, {"time": 2388, "pitch": 68, "duration": 12, "velocity": 86}, {"time": 2388, "pitch": 61, "duration": 13, "velocity": 83}, {"time": 2406, "pitch": 49, "duration": 12, "velocity": 78}, {"time": 2406, "pitch": 61, "duration": 7, "velocity": 85}, {"time": 2412, "pitch": 63, "duration": 12, "velocity": 73}, {"time": 2412, "pitch": 65, "duration": 6, "velocity": 86}, {"time": 2412, "pitch": 68, "duration": 6, "velocity": 113}, {"time": 2421, "pitch": 49, "duration": 3, "velocity": 78}, {"time": 2424, "pitch": 42, "duration": 37, "velocity": 76}, {"time": 2424, "pitch": 61, "duration": 11, "velocity": 71}, {"time": 2424, "pitch": 66, "duration": 6, "velocity": 77}, {"time": 2430, "pitch": 49, "duration": 31, "velocity": 78}, {"time": 2436, "pitch": 58, "duration": 6, "velocity": 83}, {"time": 2436, "pitch": 66, "duration": 12, "velocity": 84}, {"time": 2436, "pitch": 54, "duration": 13, "velocity": 81}, {"time": 2454, "pitch": 54, "duration": 9, "velocity": 88}, {"time": 2460, "pitch": 66, "duration": 6, "velocity": 84}, {"time": 2460, "pitch": 61, "duration": 6, "velocity": 86}, {"time": 2460, "pitch": 70, "duration": 5, "velocity": 87}, {"time": 2469, "pitch": 42, "duration": 3, "velocity": 78}, {"time": 2472, "pitch": 47, "duration": 18, "velocity": 81}, {"time": 2472, "pitch": 63, "duration": 14, "velocity": 85}, {"time": 2472, "pitch": 70, "duration": 12, "velocity": 87}, {"time": 2478, "pitch": 54, "duration": 14, "velocity": 74}, {"time": 2484, "pitch": 59, "duration": 6, "velocity": 80}, {"time": 2490, "pitch": 63, "duration": 3, "velocity": 83}, {"time": 2490, "pitch": 70, "duration": 5, "velocity": 86}, {"time": 2496, "pitch": 49, "duration": 18, "velocity": 84}, {"time": 2496, "pitch": 61, "duration": 6, "velocity": 86}, {"time": 2496, "pitch": 65, "duration": 6, "velocity": 86}, {"time": 2496, "pitch": 68, "duration": 6, "velocity": 84}, {"time": 2502, "pitch": 56, "duration": 14, "velocity": 73}, {"time": 2508, "pitch": 61, "duration": 6, "velocity": 87}, {"time": 2508, "pitch": 68, "duration": 6, "velocity": 87}, {"time": 2514, "pitch": 65, "duration": 5, "velocity": 85}, {"time": 2517, "pitch": 49, "duration": 3, "velocity": 78}, {"time": 2520, "pitch": 54, "duration": 12, "velocity": 83}, {"time": 2520, "pitch": 61, "duration": 10, "velocity": 84}, {"time": 2520, "pitch": 66, "duration": 11, "velocity": 86}, {"time": 2520, "pitch": 70, "duration": 10, "velocity": 85}, {"time": 2532, "pitch": 53, "duration": 12, "velocity": 87}, {"time": 2532, "pitch": 65, "duration": 12, "velocity": 91}, {"time": 2532, "pitch": 68, "duration": 12, "velocity": 87}, {"time": 2544, "pitch": 51, "duration": 21, "velocity": 87}, {"time": 2544, "pitch": 63, "duration": 5, "velocity": 81}, {"time": 2544, "pitch": 66, "duration": 6, "velocity": 86}, {"time": 2550, "pitch": 58, "duration": 11, "velocity": 77}, {"time": 2556, "pitch": 65, "duration": 10, "velocity": 85}, {"time": 2556, "pitch": 70, "duration": 7, "velocity": 85}, {"time": 2556, "pitch": 63, "duration": 4, "velocity": 86}, {"time": 2568, "pitch": 44, "duration": 19, "velocity": 85}, {"time": 2574, "pitch": 51, "duration": 18, "velocity": 80}, {"time": 2580, "pitch": 59, "duration": 6, "velocity": 85}, {"time": 2580, "pitch": 63, "duration": 9, "velocity": 78}, {"time": 2580, "pitch": 68, "duration": 5, "velocity": 70}, {"time": 2586, "pitch": 56, "duration": 11, "velocity": 86}, {"time": 2592, "pitch": 46, "duration": 18, "velocity": 87}, {"time": 2598, "pitch": 53, "duration": 13, "velocity": 81}, {"time": 2604, "pitch": 65, "duration": 6, "velocity": 81}, {"time": 2604, "pitch": 58, "duration": 13, "velocity": 86}, {"time": 2613, "pitch": 46, "duration": 3, "velocity": 78}, {"time": 2616, "pitch": 51, "duration": 43, "velocity": 88}, {"time": 2622, "pitch": 58, "duration": 13, "velocity": 84}, {"time": 2628, "pitch": 63, "duration": 6, "velocity": 94}, {"time": 2634, "pitch": 65, "duration": 7, "velocity": 94}, {"time": 2640, "pitch": 58, "duration": 19, "velocity": 80}, {"time": 2640, "pitch": 66, "duration": 6, "velocity": 94}, {"time": 2646, "pitch": 70, "duration": 5, "velocity": 82}, {"time": 2652, "pitch": 70, "duration": 6, "velocity": 78}, {"time": 2652, "pitch": 63, "duration": 6, "velocity": 84}, {"time": 2652, "pitch": 75, "duration": 5, "velocity": 108}, {"time": 2661, "pitch": 51, "duration": 3, "velocity": 78}, {"time": 2664, "pitch": 51, "duration": 6, "velocity": 84}, {"time": 2664, "pitch": 70, "duration": 16, "velocity": 100}, {"time": 2664, "pitch": 75, "duration": 5, "velocity": 89}, {"time": 2670, "pitch": 51, "duration": 1, "velocity": 73}, {"time": 2670, "pitch": 58, "duration": 12, "velocity": 76}, {"time": 2676, "pitch": 66, "duration": 11, "velocity": 96}, {"time": 2676, "pitch": 75, "duration": 12, "velocity": 98}, {"time": 2676, "pitch": 63, "duration": 13, "velocity": 81}, {"time": 2688, "pitch": 58, "duration": 7, "velocity": 90}, {"time": 2694, "pitch": 51, "duration": 12, "velocity": 73}, {"time": 2694, "pitch": 63, "duration": 7, "velocity": 88}, {"time": 2700, "pitch": 70, "duration": 8, "velocity": 88}, {"time": 2700, "pitch": 66, "duration": 7, "velocity": 102}, {"time": 2700, "pitch": 75, "duration": 16, "velocity": 88}, {"time": 2706, "pitch": 51, "duration": 6, "velocity": 73}, {"time": 2712, "pitch": 42, "duration": 6, "velocity": 92}, {"time": 2718, "pitch": 42, "duration": 1, "velocity": 73}, {"time": 2718, "pitch": 54, "duration": 21, "velocity": 87}, {"time": 2724, "pitch": 61, "duration": 13, "velocity": 94}, {"time": 2724, "pitch": 58, "duration": 7, "velocity": 88}, {"time": 2724, "pitch": 66, "duration": 18, "velocity": 88}, {"time": 2733, "pitch": 42, "duration": 6, "velocity": 73}, {"time": 2742, "pitch": 42, "duration": 9, "velocity": 73}, {"time": 2742, "pitch": 54, "duration": 13, "velocity": 86}, {"time": 2748, "pitch": 61, "duration": 6, "velocity": 91}, {"time": 2748, "pitch": 58, "duration": 6, "velocity": 93}, {"time": 2748, "pitch": 66, "duration": 11, "velocity": 91}, {"time": 2754, "pitch": 42, "duration": 6, "velocity": 73}, {"time": 2760, "pitch": 44, "duration": 6, "velocity": 96}, {"time": 2766, "pitch": 44, "duration": 1, "velocity": 73}, {"time": 2766, "pitch": 51, "duration": 35, "velocity": 86}, {"time": 2772, "pitch": 63, "duration": 6, "velocity": 73}, {"time": 2772, "pitch": 59, "duration": 7, "velocity": 103}, {"time": 2772, "pitch": 68, "duration": 6, "velocity": 91}, {"time": 2778, "pitch": 56, "duration": 8, "velocity": 81}, {"time": 2790, "pitch": 44, "duration": 12, "velocity": 73}, {"time": 2790, "pitch": 56, "duration": 11, "velocity": 80}, {"time": 2796, "pitch": 63, "duration": 9, "velocity": 73}, {"time": 2796, "pitch": 59, "duration": 6, "velocity": 97}, {"time": 2796, "pitch": 68, "duration": 6, "velocity": 94}, {"time": 2802, "pitch": 44, "duration": 6, "velocity": 73}, {"time": 2808, "pitch": 46, "duration": 6, "velocity": 91}, {"time": 2814, "pitch": 46, "duration": 1, "velocity": 78}, {"time": 2814, "pitch": 53, "duration": 36, "velocity": 84}, {"time": 2820, "pitch": 62, "duration": 6, "velocity": 78}, {"time": 2820, "pitch": 65, "duration": 6, "velocity": 78}, {"time": 2820, "pitch": 58, "duration": 8, "velocity": 107}, {"time": 2829, "pitch": 46, "duration": 3, "velocity": 78}, {"time": 2832, "pitch": 46, "duration": 6, "velocity": 78}, {"time": 2832, "pitch": 62, "duration": 5, "velocity": 109}, {"time": 2832, "pitch": 65, "duration": 6, "velocity": 100}, {"time": 2838, "pitch": 46, "duration": 12, "velocity": 78}, {"time": 2838, "pitch": 58, "duration": 7, "velocity": 88}, {"time": 2844, "pitch": 62, "duration": 4, "velocity": 113}, {"time": 2844, "pitch": 65, "duration": 4, "velocity": 107}, {"time": 2850, "pitch": 58, "duration": 6, "velocity": 87}, {"time": 2856, "pitch": 51, "duration": 6, "velocity": 85}, {"time": 2856, "pitch": 63, "duration": 5, "velocity": 90}, {"time": 2856, "pitch": 66, "duration": 11, "velocity": 100}, {"time": 2856, "pitch": 70, "duration": 7, "velocity": 96}, {"time": 2862, "pitch": 51, "duration": 1, "velocity": 78}, {"time": 2862, "pitch": 58, "duration": 21, "velocity": 84}, {"time": 2868, "pitch": 65, "duration": 9, "velocity": 100}, {"time": 2868, "pitch": 70, "duration": 9, "velocity": 94}, {"time": 2880, "pitch": 51, "duration": 6, "velocity": 78}, {"time": 2880, "pitch": 63, "duration": 6, "velocity": 98}, {"time": 2880, "pitch": 66, "duration": 7, "velocity": 107}, {"time": 2880, "pitch": 70, "duration": 6, "velocity": 94}, {"time": 2886, "pitch": 51, "duration": 9, "velocity": 78}, {"time": 2886, "pitch": 58, "duration": 9, "velocity": 86}, {"time": 2892, "pitch": 63, "duration": 7, "velocity": 107}, {"time": 2892, "pitch": 70, "duration": 13, "velocity": 98}, {"time": 2904, "pitch": 44, "duration": 6, "velocity": 88}, {"time": 2904, "pitch": 59, "duration": 9, "velocity": 97}, {"time": 2904, "pitch": 68, "duration": 12, "velocity": 96}, {"time": 2910, "pitch": 44, "duration": 1, "velocity": 78}, {"time": 2910, "pitch": 51, "duration": 36, "velocity": 74}, {"time": 2916, "pitch": 59, "duration": 4, "velocity": 100}, {"time": 2916, "pitch": 68, "duration": 1, "velocity": 102}, {"time": 2916, "pitch": 56, "duration": 14, "velocity": 78}, {"time": 2922, "pitch": 59, "duration": 5, "velocity": 100}, {"time": 2922, "pitch": 68, "duration": 6, "velocity": 102}, {"time": 2928, "pitch": 44, "duration": 6, "velocity": 78}, {"time": 2928, "pitch": 63, "duration": 6, "velocity": 100}, {"time": 2934, "pitch": 44, "duration": 12, "velocity": 78}, {"time": 2934, "pitch": 56, "duration": 16, "velocity": 86}, {"time": 2940, "pitch": 59, "duration": 6, "velocity": 100}, {"time": 2940, "pitch": 68, "duration": 9, "velocity": 98}, {"time": 2946, "pitch": 63, "duration": 5, "velocity": 81}, {"time": 2952, "pitch": 49, "duration": 6, "velocity": 88}, {"time": 2952, "pitch": 61, "duration": 6, "velocity": 88}, {"time": 2952, "pitch": 65, "duration": 8, "velocity": 90}, {"time": 2952, "pitch": 68, "duration": 7, "velocity": 88}, {"time": 2958, "pitch": 49, "duration": 1, "velocity": 78}, {"time": 2958, "pitch": 56, "duration": 7, "velocity": 77}, {"time": 2964, "pitch": 49, "duration": 12, "velocity": 78}, {"time": 2964, "pitch": 65, "duration": 8, "velocity": 90}, {"time": 2964, "pitch": 61, "duration": 10, "velocity": 89}, {"time": 2964, "pitch": 68, "duration": 7, "velocity": 87}, {"time": 2970, "pitch": 56, "duration": 7, "velocity": 77}, {"time": 2976, "pitch": 49, "duration": 6, "velocity": 78}, {"time": 2976, "pitch": 61, "duration": 8, "velocity": 96}, {"time": 2976, "pitch": 63, "duration": 8, "velocity": 96}, {"time": 2976, "pitch": 68, "duration": 7, "velocity": 98}, {"time": 2982, "pitch": 49, "duration": 13, "velocity": 78}, {"time": 2982, "pitch": 56, "duration": 7, "velocity": 83}, {"time": 2988, "pitch": 65, "duration": 5, "velocity": 86}, {"time": 2988, "pitch": 63, "duration": 6, "velocity": 91}, {"time": 2988, "pitch": 68, "duration": 6, "velocity": 107}, {"time": 2994, "pitch": 56, "duration": 7, "velocity": 75}, {"time": 2994, "pitch": 65, "duration": 5, "velocity": 86}, {"time": 3000, "pitch": 51, "duration": 6, "velocity": 84}, {"time": 3000, "pitch": 63, "duration": 5, "velocity": 92}, {"time": 3000, "pitch": 66, "duration": 6, "velocity": 87}, {"time": 3006, "pitch": 51, "duration": 1, "velocity": 78}, {"time": 3006, "pitch": 58, "duration": 36, "velocity": 77}, {"time": 3012, "pitch": 65, "duration": 5, "velocity": 88}, {"time": 3012, "pitch": 70, "duration": 4, "velocity": 90}, {"time": 3012, "pitch": 63, "duration": 12, "velocity": 86}, {"time": 3021, "pitch": 51, "duration": 1, "velocity": 78}, {"time": 3030, "pitch": 51, "duration": 15, "velocity": 78}, {"time": 3036, "pitch": 63, "duration": 6, "velocity": 78}, {"time": 3036, "pitch": 66, "duration": 3, "velocity": 102}, {"time": 3036, "pitch": 70, "duration": 4, "velocity": 98}, {"time": 3048, "pitch": 51, "duration": 6, "velocity": 87}, {"time": 3048, "pitch": 63, "duration": 7, "velocity": 91}, {"time": 3048, "pitch": 66, "duration": 7, "velocity": 88}, {"time": 3048, "pitch": 70, "duration": 6, "velocity": 89}, {"time": 3057, "pitch": 51, "duration": 12, "velocity": 78}, {"time": 3060, "pitch": 63, "duration": 3, "velocity": 87}, {"time": 3060, "pitch": 66, "duration": 6, "velocity": 88}, {"time": 3060, "pitch": 70, "duration": 3, "velocity": 89}, {"time": 3066, "pitch": 58, "duration": 11, "velocity": 68}, {"time": 3069, "pitch": 51, "duration": 27, "velocity": 78}, {"time": 3069, "pitch": 63, "duration": 1, "velocity": 86}, {"time": 3069, "pitch": 66, "duration": 1, "velocity": 86}, {"time": 3069, "pitch": 70, "duration": 1, "velocity": 81}, {"time": 3075, "pitch": 63, "duration": 6, "velocity": 88}, {"time": 3075, "pitch": 66, "duration": 6, "velocity": 88}, {"time": 3075, "pitch": 70, "duration": 6, "velocity": 88}, {"time": 3081, "pitch": 58, "duration": 4, "velocity": 79}, {"time": 3084, "pitch": 63, "duration": 8, "velocity": 108}, {"time": 3084, "pitch": 66, "duration": 8, "velocity": 110}, {"time": 3084, "pitch": 70, "duration": 8, "velocity": 108}, {"time": 3096, "pitch": 51, "duration": 43, "velocity": 83}, {"time": 3096, "pitch": 63, "duration": 4, "velocity": 84}, {"time": 3096, "pitch": 66, "duration": 4, "velocity": 84}, {"time": 3096, "pitch": 70, "duration": 4, "velocity": 86}, {"time": 3102, "pitch": 66, "duration": 1, "velocity": 74}, {"time": 3108, "pitch": 63, "duration": 7, "velocity": 94}, {"time": 3108, "pitch": 66, "duration": 8, "velocity": 96}, {"time": 3108, "pitch": 70, "duration": 6, "velocity": 83}, {"time": 3114, "pitch": 58, "duration": 9, "velocity": 67}, {"time": 3117, "pitch": 63, "duration": 1, "velocity": 88}, {"time": 3117, "pitch": 66, "duration": 1, "velocity": 80}, {"time": 3117, "pitch": 70, "duration": 1, "velocity": 87}, {"time": 3123, "pitch": 63, "duration": 6, "velocity": 89}, {"time": 3123, "pitch": 66, "duration": 6, "velocity": 88}, {"time": 3123, "pitch": 70, "duration": 5, "velocity": 89}, {"time": 3126, "pitch": 58, "duration": 5, "velocity": 84}, {"time": 3132, "pitch": 63, "duration": 14, "velocity": 91}, {"time": 3132, "pitch": 66, "duration": 15, "velocity": 100}, {"time": 3132, "pitch": 70, "duration": 14, "velocity": 94}, {"time": 3138, "pitch": 58, "duration": 6, "velocity": 68}, {"time": 3144, "pitch": 51, "duration": 46, "velocity": 87}, {"time": 3150, "pitch": 63, "duration": 1, "velocity": 78}, {"time": 3156, "pitch": 63, "duration": 7, "velocity": 102}, {"time": 3156, "pitch": 66, "duration": 8, "velocity": 108}, {"time": 3156, "pitch": 70, "duration": 7, "velocity": 92}, {"time": 3162, "pitch": 58, "duration": 10, "velocity": 74}, {"time": 3162, "pitch": 63, "duration": 1, "velocity": 89}, {"time": 3162, "pitch": 70, "duration": 1, "velocity": 87}, {"time": 3165, "pitch": 66, "duration": 1, "velocity": 86}, {"time": 3171, "pitch": 63, "duration": 7, "velocity": 91}, {"time": 3171, "pitch": 70, "duration": 7, "velocity": 88}, {"time": 3177, "pitch": 58, "duration": 4, "velocity": 81}, {"time": 3180, "pitch": 63, "duration": 6, "velocity": 96}, {"time": 3180, "pitch": 70, "duration": 7, "velocity": 85}, {"time": 3183, "pitch": 58, "duration": 7, "velocity": 87}, {"time": 3186, "pitch": 65, "duration": 5, "velocity": 86}, {"time": 3189, "pitch": 66, "duration": 1, "velocity": 52}, {"time": 3192, "pitch": 51, "duration": 46, "velocity": 84}, {"time": 3192, "pitch": 63, "duration": 8, "velocity": 88}, {"time": 3192, "pitch": 66, "duration": 8, "velocity": 88}, {"time": 3192, "pitch": 70, "duration": 8, "velocity": 87}, {"time": 3198, "pitch": 58, "duration": 5, "velocity": 77}, {"time": 3204, "pitch": 63, "duration": 7, "velocity": 104}, {"time": 3204, "pitch": 70, "duration": 7, "velocity": 96}, {"time": 3210, "pitch": 58, "duration": 11, "velocity": 69}, {"time": 3213, "pitch": 63, "duration": 1, "velocity": 89}, {"time": 3213, "pitch": 66, "duration": 1, "velocity": 86}, {"time": 3213, "pitch": 70, "duration": 1, "velocity": 78}, {"time": 3219, "pitch": 63, "duration": 6, "velocity": 91}, {"time": 3219, "pitch": 70, "duration": 7, "velocity": 90}, {"time": 3225, "pitch": 58, "duration": 13, "velocity": 86}, {"time": 3228, "pitch": 63, "duration": 1, "velocity": 107}, {"time": 3228, "pitch": 70, "duration": 4, "velocity": 88}, {"time": 3231, "pitch": 65, "duration": 2, "velocity": 88}, {"time": 3234, "pitch": 66, "duration": 4, "velocity": 87}, {"time": 3237, "pitch": 65, "duration": 2, "velocity": 79}, {"time": 3237, "pitch": 70, "duration": 1, "velocity": 72}, {"time": 3240, "pitch": 51, "duration": 45, "velocity": 87}, {"time": 3240, "pitch": 63, "duration": 7, "velocity": 88}, {"time": 3240, "pitch": 66, "duration": 7, "velocity": 87}, {"time": 3240, "pitch": 70, "duration": 7, "velocity": 87}, {"time": 3246, "pitch": 58, "duration": 6, "velocity": 64}, {"time": 3252, "pitch": 63, "duration": 7, "velocity": 104}, {"time": 3252, "pitch": 70, "duration": 8, "velocity": 96}, {"time": 3258, "pitch": 58, "duration": 9, "velocity": 70}, {"time": 3261, "pitch": 63, "duration": 1, "velocity": 88}, {"time": 3261, "pitch": 66, "duration": 1, "velocity": 87}, {"time": 3261, "pitch": 70, "duration": 1, "velocity": 86}, {"time": 3267, "pitch": 63, "duration": 6, "velocity": 87}, {"time": 3267, "pitch": 66, "duration": 6, "velocity": 89}, {"time": 3267, "pitch": 70, "duration": 6, "velocity": 88}, {"time": 3273, "pitch": 58, "duration": 4, "velocity": 81}, {"time": 3276, "pitch": 63, "duration": 9, "velocity": 98}, {"time": 3276, "pitch": 66, "duration": 9, "velocity": 100}, {"time": 3276, "pitch": 70, "duration": 9, "velocity": 92}, {"time": 3282, "pitch": 58, "duration": 7, "velocity": 82}, {"time": 3288, "pitch": 51, "duration": 44, "velocity": 83}, {"time": 3288, "pitch": 63, "duration": 3, "velocity": 86}, {"time": 3288, "pitch": 66, "duration": 3, "velocity": 87}, {"time": 3288, "pitch": 70, "duration": 3, "velocity": 88}, {"time": 3294, "pitch": 63, "duration": 1, "velocity": 81}, {"time": 3294, "pitch": 66, "duration": 1, "velocity": 81}, {"time": 3294, "pitch": 70, "duration": 1, "velocity": 83}, {"time": 3300, "pitch": 63, "duration": 7, "velocity": 104}, {"time": 3300, "pitch": 66, "duration": 7, "velocity": 107}, {"time": 3300, "pitch": 70, "duration": 7, "velocity": 98}, {"time": 3306, "pitch": 58, "duration": 12, "velocity": 72}, {"time": 3309, "pitch": 63, "duration": 1, "velocity": 84}, {"time": 3309, "pitch": 66, "duration": 1, "velocity": 86}, {"time": 3315, "pitch": 63, "duration": 1, "velocity": 88}, {"time": 3315, "pitch": 66, "duration": 1, "velocity": 90}, {"time": 3315, "pitch": 70, "duration": 2, "velocity": 88}, {"time": 3318, "pitch": 58, "duration": 1, "velocity": 76}, {"time": 3324, "pitch": 63, "duration": 8, "velocity": 100}, {"time": 3324, "pitch": 66, "duration": 9, "velocity": 102}, {"time": 3324, "pitch": 70, "duration": 9, "velocity": 92}, {"time": 3330, "pitch": 58, "duration": 7, "velocity": 74}, {"time": 3336, "pitch": 51, "duration": 45, "velocity": 84}, {"time": 3336, "pitch": 63, "duration": 7, "velocity": 88}, {"time": 3336, "pitch": 66, "duration": 7, "velocity": 87}, {"time": 3336, "pitch": 70, "duration": 7, "velocity": 85}, {"time": 3342, "pitch": 58, "duration": 7, "velocity": 65}, {"time": 3348, "pitch": 63, "duration": 8, "velocity": 92}, {"time": 3348, "pitch": 66, "duration": 8, "velocity": 91}, {"time": 3348, "pitch": 70, "duration": 8, "velocity": 88}, {"time": 3354, "pitch": 58, "duration": 9, "velocity": 81}, {"time": 3357, "pitch": 63, "duration": 1, "velocity": 87}, {"time": 3357, "pitch": 66, "duration": 1, "velocity": 87}, {"time": 3357, "pitch": 70, "duration": 1, "velocity": 83}, {"time": 3363, "pitch": 63, "duration": 6, "velocity": 88}, {"time": 3363, "pitch": 66, "duration": 7, "velocity": 88}, {"time": 3363, "pitch": 70, "duration": 6, "velocity": 84}, {"time": 3369, "pitch": 58, "duration": 4, "velocity": 73}, {"time": 3372, "pitch": 63, "duration": 9, "velocity": 89}, {"time": 3372, "pitch": 66, "duration": 10, "velocity": 89}, {"time": 3372, "pitch": 70, "duration": 9, "velocity": 90}, {"time": 3378, "pitch": 58, "duration": 7, "velocity": 76}, {"time": 3384, "pitch": 51, "duration": 48, "velocity": 80}, {"time": 3384, "pitch": 63, "duration": 8, "velocity": 87}, {"time": 3384, "pitch": 66, "duration": 8, "velocity": 84}, {"time": 3384, "pitch": 70, "duration": 8, "velocity": 88}, {"time": 3393, "pitch": 58, "duration": 3, "velocity": 71}, {"time": 3396, "pitch": 63, "duration": 7, "velocity": 89}, {"time": 3396, "pitch": 66, "duration": 7, "velocity": 90}, {"time": 3396, "pitch": 70, "duration": 7, "velocity": 87}, {"time": 3402, "pitch": 58, "duration": 10, "velocity": 73}, {"time": 3405, "pitch": 63, "duration": 1, "velocity": 87}, {"time": 3405, "pitch": 66, "duration": 1, "velocity": 87}, {"time": 3405, "pitch": 70, "duration": 2, "velocity": 87}, {"time": 3411, "pitch": 63, "duration": 6, "velocity": 89}, {"time": 3411, "pitch": 66, "duration": 7, "velocity": 91}, {"time": 3411, "pitch": 70, "duration": 7, "velocity": 89}, {"time": 3417, "pitch": 58, "duration": 4, "velocity": 84}, {"time": 3420, "pitch": 63, "duration": 8, "velocity": 104}, {"time": 3420, "pitch": 66, "duration": 8, "velocity": 107}, {"time": 3420, "pitch": 70, "duration": 8, "velocity": 98}, {"time": 3426, "pitch": 58, "duration": 6, "velocity": 84}, {"time": 3432, "pitch": 63, "duration": 1, "velocity": 90}, {"time": 3432, "pitch": 66, "duration": 1, "velocity": 92}, {"time": 3432, "pitch": 70, "duration": 2, "velocity": 91}, {"time": 3480, "pitch": 51, "duration": 41, "velocity": 86}, {"time": 3480, "pitch": 63, "duration": 7, "velocity": 88}, {"time": 3480, "pitch": 70, "duration": 14, "velocity": 88}, {"time": 3486, "pitch": 58, "duration": 32, "velocity": 72}, {"time": 3492, "pitch": 63, "duration": 12, "velocity": 85}, {"time": 3498, "pitch": 65, "duration": 7, "velocity": 86}, {"time": 3498, "pitch": 70, "duration": 13, "velocity": 88}, {"time": 3504, "pitch": 66, "duration": 7, "velocity": 88}, {"time": 3510, "pitch": 63, "duration": 7, "velocity": 86}, {"time": 3516, "pitch": 66, "duration": 13, "velocity": 104}, {"time": 3516, "pitch": 70, "duration": 14, "velocity": 91}, {"time": 3528, "pitch": 54, "duration": 41, "velocity": 83}, {"time": 3534, "pitch": 61, "duration": 23, "velocity": 85}, {"time": 3540, "pitch": 66, "duration": 8, "velocity": 91}, {"time": 3540, "pitch": 73, "duration": 8, "velocity": 100}, {"time": 3549, "pitch": 66, "duration": 5, "velocity": 88}, {"time": 3549, "pitch": 70, "duration": 5, "velocity": 98}, {"time": 3555, "pitch": 66, "duration": 6, "velocity": 91}, {"time": 3555, "pitch": 70, "duration": 6, "velocity": 89}, {"time": 3561, "pitch": 61, "duration": 6, "velocity": 84}, {"time": 3564, "pitch": 66, "duration": 12, "velocity": 110}, {"time": 3564, "pitch": 70, "duration": 12, "velocity": 110}, {"time": 3576, "pitch": 44, "duration": 42, "velocity": 96}, {"time": 3582, "pitch": 51, "duration": 42, "velocity": 82}, {"time": 3588, "pitch": 59, "duration": 10, "velocity": 88}, {"time": 3588, "pitch": 68, "duration": 9, "velocity": 92}, {"time": 3594, "pitch": 56, "duration": 8, "velocity": 78}, {"time": 3600, "pitch": 63, "duration": 7, "velocity": 90}, {"time": 3603, "pitch": 68, "duration": 1, "velocity": 30}, {"time": 3606, "pitch": 56, "duration": 15, "velocity": 84}, {"time": 3612, "pitch": 59, "duration": 6, "velocity": 100}, {"time": 3612, "pitch": 68, "duration": 14, "velocity": 88}, {"time": 3618, "pitch": 63, "duration": 7, "velocity": 88}, {"time": 3624, "pitch": 46, "duration": 43, "velocity": 89}, {"time": 3630, "pitch": 53, "duration": 37, "velocity": 85}, {"time": 3633, "pitch": 58, "duration": 37, "velocity": 88}, {"time": 3636, "pitch": 62, "duration": 2, "velocity": 97}, {"time": 3639, "pitch": 63, "duration": 4, "velocity": 91}, {"time": 3642, "pitch": 65, "duration": 4, "velocity": 91}, {"time": 3645, "pitch": 68, "duration": 1, "velocity": 88}, {"time": 3648, "pitch": 70, "duration": 3, "velocity": 100}, {"time": 3651, "pitch": 74, "duration": 2, "velocity": 88}, {"time": 3654, "pitch": 75, "duration": 4, "velocity": 100}, {"time": 3657, "pitch": 77, "duration": 2, "velocity": 94}, {"time": 3660, "pitch": 80, "duration": 3, "velocity": 102}, {"time": 3663, "pitch": 77, "duration": 3, "velocity": 88}, {"time": 3666, "pitch": 82, "duration": 4, "velocity": 91}, {"time": 3669, "pitch": 75, "duration": 3, "velocity": 87}, {"time": 3672, "pitch": 51, "duration": 39, "velocity": 90}, {"time": 3672, "pitch": 75, "duration": 4, "velocity": 93}, {"time": 3672, "pitch": 78, "duration": 4, "velocity": 98}, {"time": 3672, "pitch": 82, "duration": 4, "velocity": 98}, {"time": 3678, "pitch": 58, "duration": 31, "velocity": 74}, {"time": 3684, "pitch": 65, "duration": 10, "velocity": 91}, {"time": 3684, "pitch": 70, "duration": 10, "velocity": 93}, {"time": 3690, "pitch": 63, "duration": 9, "velocity": 79}, {"time": 3696, "pitch": 66, "duration": 10, "velocity": 96}, {"time": 3696, "pitch": 70, "duration": 7, "velocity": 96}, {"time": 3702, "pitch": 63, "duration": 6, "velocity": 86}, {"time": 3708, "pitch": 65, "duration": 6, "velocity": 104}, {"time": 3708, "pitch": 70, "duration": 6, "velocity": 100}, {"time": 3714, "pitch": 66, "duration": 3, "velocity": 86}, {"time": 3720, "pitch": 42, "duration": 3, "velocity": 87}, {"time": 3720, "pitch": 44, "duration": 42, "velocity": 87}, {"time": 3726, "pitch": 51, "duration": 36, "velocity": 84}, {"time": 3732, "pitch": 59, "duration": 7, "velocity": 97}, {"time": 3732, "pitch": 68, "duration": 7, "velocity": 93}, {"time": 3738, "pitch": 56, "duration": 12, "velocity": 81}, {"time": 3738, "pitch": 63, "duration": 2, "velocity": 89}, {"time": 3747, "pitch": 59, "duration": 7, "velocity": 100}, {"time": 3747, "pitch": 68, "duration": 6, "velocity": 93}, {"time": 3753, "pitch": 56, "duration": 4, "velocity": 88}, {"time": 3756, "pitch": 59, "duration": 7, "velocity": 100}, {"time": 3756, "pitch": 68, "duration": 10, "velocity": 102}, {"time": 3762, "pitch": 56, "duration": 4, "velocity": 84}, {"time": 3762, "pitch": 63, "duration": 5, "velocity": 81}, {"time": 3768, "pitch": 46, "duration": 42, "velocity": 94}, {"time": 3774, "pitch": 53, "duration": 37, "velocity": 84}, {"time": 3780, "pitch": 61, "duration": 10, "velocity": 102}, {"time": 3780, "pitch": 70, "duration": 8, "velocity": 107}, {"time": 3786, "pitch": 58, "duration": 10, "velocity": 83}, {"time": 3789, "pitch": 65, "duration": 2, "velocity": 90}, {"time": 3795, "pitch": 61, "duration": 5, "velocity": 86}, {"time": 3795, "pitch": 70, "duration": 5, "velocity": 86}, {"time": 3798, "pitch": 58, "duration": 4, "velocity": 88}, {"time": 3804, "pitch": 65, "duration": 11, "velocity": 116}, {"time": 3804, "pitch": 70, "duration": 8, "velocity": 108}, {"time": 3810, "pitch": 58, "duration": 6, "velocity": 88}, {"time": 3816, "pitch": 51, "duration": 45, "velocity": 88}, {"time": 3816, "pitch": 63, "duration": 4, "velocity": 92}, {"time": 3816, "pitch": 66, "duration": 8, "velocity": 98}, {"time": 3816, "pitch": 70, "duration": 14, "velocity": 91}, {"time": 3822, "pitch": 58, "duration": 40, "velocity": 84}, {"time": 3828, "pitch": 63, "duration": 32, "velocity": 102}, {"time": 3831, "pitch": 65, "duration": 2, "velocity": 90}, {"time": 3834, "pitch": 66, "duration": 2, "velocity": 90}, {"time": 3837, "pitch": 70, "duration": 1, "velocity": 90}, {"time": 3840, "pitch": 75, "duration": 4, "velocity": 100}, {"time": 3843, "pitch": 77, "duration": 2, "velocity": 89}, {"time": 3849, "pitch": 82, "duration": 3, "velocity": 63}, {"time": 3852, "pitch": 87, "duration": 4, "velocity": 82}, {"time": 3855, "pitch": 89, "duration": 4, "velocity": 88}, {"time": 3858, "pitch": 90, "duration": 4, "velocity": 102}, {"time": 3864, "pitch": 51, "duration": 32, "velocity": 96}, {"time": 3864, "pitch": 82, "duration": 3, "velocity": 96}, {"time": 3864, "pitch": 90, "duration": 2, "velocity": 94}, {"time": 3870, "pitch": 58, "duration": 29, "velocity": 81}, {"time": 3876, "pitch": 66, "duration": 10, "velocity": 98}, {"time": 3876, "pitch": 70, "duration": 6, "velocity": 108}, {"time": 3882, "pitch": 63, "duration": 7, "velocity": 83}, {"time": 3888, "pitch": 65, "duration": 10, "velocity": 96}, {"time": 3888, "pitch": 70, "duration": 9, "velocity": 100}, {"time": 3894, "pitch": 63, "duration": 3, "velocity": 89}, {"time": 3900, "pitch": 53, "duration": 5, "velocity": 87}, {"time": 3900, "pitch": 66, "duration": 6, "velocity": 104}, {"time": 3900, "pitch": 70, "duration": 6, "velocity": 107}, {"time": 3903, "pitch": 65, "duration": 2, "velocity": 88}, {"time": 3912, "pitch": 42, "duration": 43, "velocity": 89}, {"time": 3912, "pitch": 61, "duration": 6, "velocity": 91}, {"time": 3912, "pitch": 66, "duration": 4, "velocity": 94}, {"time": 3912, "pitch": 70, "duration": 5, "velocity": 91}, {"time": 3918, "pitch": 49, "duration": 42, "velocity": 77}, {"time": 3924, "pitch": 58, "duration": 7, "velocity": 102}, {"time": 3924, "pitch": 61, "duration": 8, "velocity": 113}, {"time": 3924, "pitch": 66, "duration": 6, "velocity": 104}, {"time": 3930, "pitch": 54, "duration": 9, "velocity": 80}, {"time": 3933, "pitch": 58, "duration": 1, "velocity": 92}, {"time": 3933, "pitch": 61, "duration": 1, "velocity": 94}, {"time": 3933, "pitch": 66, "duration": 1, "velocity": 94}, {"time": 3939, "pitch": 58, "duration": 5, "velocity": 100}, {"time": 3939, "pitch": 61, "duration": 6, "velocity": 108}, {"time": 3939, "pitch": 66, "duration": 5, "velocity": 102}, {"time": 3945, "pitch": 54, "duration": 5, "velocity": 89}, {"time": 3948, "pitch": 58, "duration": 7, "velocity": 113}, {"time": 3948, "pitch": 61, "duration": 12, "velocity": 116}, {"time": 3948, "pitch": 66, "duration": 10, "velocity": 108}, {"time": 3954, "pitch": 54, "duration": 4, "velocity": 86}, {"time": 3960, "pitch": 44, "duration": 42, "velocity": 93}, {"time": 3966, "pitch": 51, "duration": 41, "velocity": 84}, {"time": 3972, "pitch": 59, "duration": 8, "velocity": 97}, {"time": 3972, "pitch": 68, "duration": 6, "velocity": 107}, {"time": 3978, "pitch": 56, "duration": 9, "velocity": 83}, {"time": 3981, "pitch": 59, "duration": 1, "velocity": 90}, {"time": 3981, "pitch": 68, "duration": 2, "velocity": 108}, {"time": 3987, "pitch": 59, "duration": 7, "velocity": 88}, {"time": 3987, "pitch": 68, "duration": 6, "velocity": 91}, {"time": 3990, "pitch": 56, "duration": 4, "velocity": 93}, {"time": 3996, "pitch": 59, "duration": 7, "velocity": 100}, {"time": 3996, "pitch": 68, "duration": 19, "velocity": 108}, {"time": 4002, "pitch": 56, "duration": 5, "velocity": 88}, {"time": 4005, "pitch": 46, "duration": 47, "velocity": 87}, {"time": 4011, "pitch": 53, "duration": 43, "velocity": 88}, {"time": 4014, "pitch": 58, "duration": 15, "velocity": 98}, {"time": 4017, "pitch": 62, "duration": 2, "velocity": 86}, {"time": 4020, "pitch": 63, "duration": 5, "velocity": 94}, {"time": 4023, "pitch": 65, "duration": 2, "velocity": 91}, {"time": 4026, "pitch": 68, "duration": 3, "velocity": 104}, {"time": 4029, "pitch": 63, "duration": 2, "velocity": 88}, {"time": 4032, "pitch": 63, "duration": 8, "velocity": 114}, {"time": 4032, "pitch": 70, "duration": 7, "velocity": 114}, {"time": 4038, "pitch": 58, "duration": 4, "velocity": 86}, {"time": 4041, "pitch": 63, "duration": 6, "velocity": 108}, {"time": 4041, "pitch": 68, "duration": 6, "velocity": 110}, {"time": 4041, "pitch": 70, "duration": 1, "velocity": 96}, {"time": 4047, "pitch": 58, "duration": 5, "velocity": 98}, {"time": 4050, "pitch": 63, "duration": 4, "velocity": 116}, {"time": 4050, "pitch": 70, "duration": 4, "velocity": 110}, {"time": 4053, "pitch": 58, "duration": 3, "velocity": 85}, {"time": 4056, "pitch": 51, "duration": 44, "velocity": 87}, {"time": 4056, "pitch": 63, "duration": 6, "velocity": 107}, {"time": 4056, "pitch": 66, "duration": 9, "velocity": 108}, {"time": 4056, "pitch": 70, "duration": 7, "velocity": 104}, {"time": 4062, "pitch": 58, "duration": 6, "velocity": 79}, {"time": 4068, "pitch": 63, "duration": 7, "velocity": 113}, {"time": 4068, "pitch": 66, "duration": 7, "velocity": 114}, {"time": 4068, "pitch": 70, "duration": 6, "velocity": 108}, {"time": 4074, "pitch": 58, "duration": 11, "velocity": 81}, {"time": 4077, "pitch": 63, "duration": 1, "velocity": 88}, {"time": 4077, "pitch": 66, "duration": 1, "velocity": 90}, {"time": 4077, "pitch": 70, "duration": 1, "velocity": 78}, {"time": 4083, "pitch": 63, "duration": 6, "velocity": 100}, {"time": 4083, "pitch": 66, "duration": 6, "velocity": 108}, {"time": 4083, "pitch": 70, "duration": 6, "velocity": 100}, {"time": 4089, "pitch": 58, "duration": 5, "velocity": 87}, {"time": 4092, "pitch": 63, "duration": 13, "velocity": 114}, {"time": 4092, "pitch": 66, "duration": 13, "velocity": 117}, {"time": 4092, "pitch": 69, "duration": 1, "velocity": 97}, {"time": 4092, "pitch": 70, "duration": 13, "velocity": 100}, {"time": 4098, "pitch": 58, "duration": 2, "velocity": 86}, {"time": 4104, "pitch": 44, "duration": 42, "velocity": 108}, {"time": 4110, "pitch": 51, "duration": 41, "velocity": 83}, {"time": 4116, "pitch": 59, "duration": 7, "velocity": 97}, {"time": 4116, "pitch": 68, "duration": 6, "velocity": 104}, {"time": 4122, "pitch": 56, "duration": 4, "velocity": 83}, {"time": 4125, "pitch": 63, "duration": 2, "velocity": 100}, {"time": 4125, "pitch": 68, "duration": 1, "velocity": 88}, {"time": 4131, "pitch": 59, "duration": 7, "velocity": 103}, {"time": 4131, "pitch": 68, "duration": 6, "velocity": 100}, {"time": 4134, "pitch": 56, "duration": 4, "velocity": 87}, {"time": 4140, "pitch": 59, "duration": 6, "velocity": 103}, {"time": 4140, "pitch": 68, "duration": 7, "velocity": 108}, {"time": 4146, "pitch": 56, "duration": 4, "velocity": 80}, {"time": 4152, "pitch": 46, "duration": 42, "velocity": 87}, {"time": 4152, "pitch": 58, "duration": 5, "velocity": 87}, {"time": 4152, "pitch": 62, "duration": 5, "velocity": 87}, {"time": 4152, "pitch": 65, "duration": 5, "velocity": 94}, {"time": 4158, "pitch": 53, "duration": 37, "velocity": 84}, {"time": 4164, "pitch": 62, "duration": 2, "velocity": 95}, {"time": 4164, "pitch": 65, "duration": 4, "velocity": 91}, {"time": 4170, "pitch": 58, "duration": 7, "velocity": 84}, {"time": 4176, "pitch": 61, "duration": 4, "velocity": 94}, {"time": 4176, "pitch": 65, "duration": 4, "velocity": 107}, {"time": 4176, "pitch": 70, "duration": 5, "velocity": 96}, {"time": 4182, "pitch": 58, "duration": 7, "velocity": 81}, {"time": 4188, "pitch": 62, "duration": 4, "velocity": 100}, {"time": 4188, "pitch": 70, "duration": 7, "velocity": 98}, {"time": 4194, "pitch": 58, "duration": 6, "velocity": 80}, {"time": 4200, "pitch": 51, "duration": 42, "velocity": 88}, {"time": 4200, "pitch": 63, "duration": 3, "velocity": 88}, {"time": 4200, "pitch": 66, "duration": 6, "velocity": 93}, {"time": 4200, "pitch": 70, "duration": 5, "velocity": 90}, {"time": 4206, "pitch": 58, "duration": 36, "velocity": 84}, {"time": 4209, "pitch": 63, "duration": 31, "velocity": 98}, {"time": 4212, "pitch": 65, "duration": 3, "velocity": 88}, {"time": 4215, "pitch": 66, "duration": 1, "velocity": 96}, {"time": 4218, "pitch": 70, "duration": 3, "velocity": 88}, {"time": 4221, "pitch": 75, "duration": 2, "velocity": 88}, {"time": 4224, "pitch": 77, "duration": 2, "velocity": 88}, {"time": 4227, "pitch": 78, "duration": 1, "velocity": 94}, {"time": 4230, "pitch": 82, "duration": 4, "velocity": 86}, {"time": 4233, "pitch": 87, "duration": 2, "velocity": 87}, {"time": 4236, "pitch": 89, "duration": 5, "velocity": 104}, {"time": 4242, "pitch": 82, "duration": 6, "velocity": 84}, {"time": 4242, "pitch": 90, "duration": 5, "velocity": 100}, {"time": 4248, "pitch": 44, "duration": 24, "velocity": 88}, {"time": 4254, "pitch": 51, "duration": 20, "velocity": 73}, {"time": 4260, "pitch": 59, "duration": 13, "velocity": 89}, {"time": 4260, "pitch": 68, "duration": 9, "velocity": 88}, {"time": 4263, "pitch": 56, "duration": 6, "velocity": 77}, {"time": 4272, "pitch": 46, "duration": 18, "velocity": 86}, {"time": 4278, "pitch": 53, "duration": 13, "velocity": 83}, {"time": 4284, "pitch": 58, "duration": 11, "velocity": 91}, {"time": 4290, "pitch": 62, "duration": 6, "velocity": 88}, {"time": 4296, "pitch": 51, "duration": 40, "velocity": 84}, {"time": 4302, "pitch": 58, "duration": 19, "velocity": 80}, {"time": 4308, "pitch": 63, "duration": 13, "velocity": 84}, {"time": 4314, "pitch": 65, "duration": 8, "velocity": 86}, {"time": 4320, "pitch": 66, "duration": 6, "velocity": 92}, {"time": 4326, "pitch": 58, "duration": 8, "velocity": 87}, {"time": 4332, "pitch": 70, "duration": 12, "velocity": 91}, {"time": 4344, "pitch": 44, "duration": 18, "velocity": 81}, {"time": 4344, "pitch": 68, "duration": 26, "velocity": 83}, {"time": 4350, "pitch": 51, "duration": 17, "velocity": 71}, {"time": 4356, "pitch": 56, "duration": 11, "velocity": 80}, {"time": 4362, "pitch": 59, "duration": 7, "velocity": 81}, {"time": 4368, "pitch": 46, "duration": 22, "velocity": 81}, {"time": 4368, "pitch": 62, "duration": 20, "velocity": 82}, {"time": 4374, "pitch": 53, "duration": 16, "velocity": 82}, {"time": 4380, "pitch": 58, "duration": 15, "velocity": 85}, {"time": 4389, "pitch": 63, "duration": 11, "velocity": 78}, {"time": 4395, "pitch": 51, "duration": 50, "velocity": 83}, {"time": 4401, "pitch": 58, "duration": 44, "velocity": 68}, {"time": 4407, "pitch": 63, "duration": 37, "velocity": 83}, {"time": 4413, "pitch": 65, "duration": 7, "velocity": 74}, {"time": 4419, "pitch": 66, "duration": 3, "velocity": 80}, {"time": 4425, "pitch": 70, "duration": 19, "velocity": 81}, {"time": 4434, "pitch": 78, "duration": 11, "velocity": 80}, {"time": 4440, "pitch": 75, "duration": 5, "velocity": 83}]}]}