{"metadata": {"schema_version": "0.2", "title": "None", "source_filename": "342.mid", "source_format": "midi"}, "resolution": 12, "tempos": [{"time": 0, "qpm": 120.0}], "time_signatures": [{"time": 0, "numerator": 4, "denominator": 4}], "tracks": [{"program": 0, "is_drum": false, "name": "MELODY", "notes": [{"time": 483, "pitch": 67, "duration": 6, "velocity": 107}, {"time": 489, "pitch": 69, "duration": 6, "velocity": 102}, {"time": 495, "pitch": 71, "duration": 12, "velocity": 110}, {"time": 507, "pitch": 69, "duration": 12, "velocity": 113}, {"time": 519, "pitch": 71, "duration": 12, "velocity": 114}, {"time": 531, "pitch": 69, "duration": 12, "velocity": 100}, {"time": 543, "pitch": 71, "duration": 6, "velocity": 102}, {"time": 549, "pitch": 74, "duration": 12, "velocity": 107}, {"time": 561, "pitch": 74, "duration": 15, "velocity": 104}, {"time": 579, "pitch": 67, "duration": 6, "velocity": 98}, {"time": 585, "pitch": 69, "duration": 6, "velocity": 88}, {"time": 591, "pitch": 71, "duration": 12, "velocity": 102}, {"time": 603, "pitch": 69, "duration": 12, "velocity": 96}, {"time": 615, "pitch": 71, "duration": 12, "velocity": 102}, {"time": 627, "pitch": 69, "duration": 12, "velocity": 100}, {"time": 639, "pitch": 71, "duration": 6, "velocity": 96}, {"time": 645, "pitch": 76, "duration": 12, "velocity": 107}, {"time": 657, "pitch": 74, "duration": 14, "velocity": 114}, {"time": 675, "pitch": 67, "duration": 6, "velocity": 98}, {"time": 681, "pitch": 69, "duration": 6, "velocity": 96}, {"time": 687, "pitch": 71, "duration": 12, "velocity": 93}, {"time": 699, "pitch": 67, "duration": 12, "velocity": 89}, {"time": 711, "pitch": 67, "duration": 18, "velocity": 98}, {"time": 735, "pitch": 71, "duration": 12, "velocity": 113}, {"time": 747, "pitch": 67, "duration": 12, "velocity": 108}, {"time": 759, "pitch": 67, "duration": 19, "velocity": 110}, {"time": 783, "pitch": 71, "duration": 12, "velocity": 113}, {"time": 795, "pitch": 67, "duration": 12, "velocity": 100}, {"time": 807, "pitch": 67, "duration": 12, "velocity": 107}, {"time": 819, "pitch": 64, "duration": 12, "velocity": 98}, {"time": 831, "pitch": 69, "duration": 25, "velocity": 113}, {"time": 867, "pitch": 67, "duration": 6, "velocity": 107}, {"time": 873, "pitch": 69, "duration": 6, "velocity": 102}, {"time": 879, "pitch": 71, "duration": 12, "velocity": 110}, {"time": 891, "pitch": 69, "duration": 12, "velocity": 113}, {"time": 903, "pitch": 71, "duration": 12, "velocity": 114}, {"time": 915, "pitch": 69, "duration": 12, "velocity": 100}, {"time": 927, "pitch": 71, "duration": 6, "velocity": 102}, {"time": 933, "pitch": 74, "duration": 12, "velocity": 107}, {"time": 945, "pitch": 74, "duration": 12, "velocity": 104}, {"time": 963, "pitch": 67, "duration": 6, "velocity": 98}, {"time": 969, "pitch": 69, "duration": 6, "velocity": 88}, {"time": 975, "pitch": 71, "duration": 12, "velocity": 102}, {"time": 987, "pitch": 69, "duration": 12, "velocity": 96}, {"time": 999, "pitch": 71, "duration": 12, "velocity": 102}, {"time": 1011, "pitch": 69, "duration": 12, "velocity": 100}, {"time": 1023, "pitch": 71, "duration": 6, "velocity": 96}, {"time": 1029, "pitch": 78, "duration": 12, "velocity": 107}, {"time": 1041, "pitch": 78, "duration": 13, "velocity": 114}, {"time": 1059, "pitch": 74, "duration": 7, "velocity": 107}, {"time": 1065, "pitch": 76, "duration": 6, "velocity": 98}, {"time": 1071, "pitch": 78, "duration": 12, "velocity": 116}, {"time": 1083, "pitch": 74, "duration": 12, "velocity": 113}, {"time": 1095, "pitch": 76, "duration": 19, "velocity": 113}, {"time": 1119, "pitch": 76, "duration": 12, "velocity": 114}, {"time": 1131, "pitch": 71, "duration": 12, "velocity": 108}, {"time": 1143, "pitch": 74, "duration": 15, "velocity": 113}, {"time": 1167, "pitch": 76, "duration": 6, "velocity": 113}, {"time": 1173, "pitch": 74, "duration": 6, "velocity": 110}, {"time": 1179, "pitch": 76, "duration": 6, "velocity": 108}, {"time": 1185, "pitch": 74, "duration": 6, "velocity": 110}, {"time": 1191, "pitch": 76, "duration": 12, "velocity": 116}, {"time": 1203, "pitch": 78, "duration": 12, "velocity": 119}, {"time": 1215, "pitch": 78, "duration": 28, "velocity": 119}, {"time": 1263, "pitch": 79, "duration": 24, "velocity": 104}, {"time": 1287, "pitch": 81, "duration": 26, "velocity": 114}, {"time": 1341, "pitch": 74, "duration": 7, "velocity": 98}, {"time": 1347, "pitch": 79, "duration": 8, "velocity": 98}, {"time": 1353, "pitch": 78, "duration": 7, "velocity": 103}, {"time": 1359, "pitch": 79, "duration": 7, "velocity": 108}, {"time": 1365, "pitch": 78, "duration": 7, "velocity": 93}, {"time": 1371, "pitch": 79, "duration": 7, "velocity": 98}, {"time": 1377, "pitch": 78, "duration": 8, "velocity": 89}, {"time": 1383, "pitch": 71, "duration": 12, "velocity": 100}, {"time": 1395, "pitch": 69, "duration": 12, "velocity": 107}, {"time": 1407, "pitch": 71, "duration": 6, "velocity": 108}, {"time": 1413, "pitch": 74, "duration": 12, "velocity": 108}, {"time": 1425, "pitch": 74, "duration": 12, "velocity": 110}, {"time": 1437, "pitch": 74, "duration": 6, "velocity": 102}, {"time": 1443, "pitch": 79, "duration": 6, "velocity": 114}, {"time": 1449, "pitch": 78, "duration": 6, "velocity": 103}, {"time": 1455, "pitch": 79, "duration": 12, "velocity": 108}, {"time": 1467, "pitch": 69, "duration": 12, "velocity": 108}, {"time": 1479, "pitch": 71, "duration": 11, "velocity": 107}, {"time": 1491, "pitch": 74, "duration": 6, "velocity": 107}, {"time": 1497, "pitch": 74, "duration": 20, "velocity": 110}, {"time": 1533, "pitch": 74, "duration": 6, "velocity": 98}, {"time": 1539, "pitch": 76, "duration": 6, "velocity": 94}, {"time": 1545, "pitch": 74, "duration": 7, "velocity": 96}, {"time": 1551, "pitch": 76, "duration": 12, "velocity": 100}, {"time": 1563, "pitch": 79, "duration": 14, "velocity": 107}, {"time": 1581, "pitch": 74, "duration": 8, "velocity": 88}, {"time": 1587, "pitch": 76, "duration": 6, "velocity": 86}, {"time": 1593, "pitch": 74, "duration": 7, "velocity": 93}, {"time": 1599, "pitch": 76, "duration": 12, "velocity": 92}, {"time": 1611, "pitch": 79, "duration": 15, "velocity": 108}, {"time": 1629, "pitch": 74, "duration": 7, "velocity": 110}, {"time": 1635, "pitch": 76, "duration": 6, "velocity": 102}, {"time": 1641, "pitch": 83, "duration": 12, "velocity": 107}, {"time": 1653, "pitch": 74, "duration": 6, "velocity": 104}, {"time": 1659, "pitch": 76, "duration": 6, "velocity": 96}, {"time": 1665, "pitch": 83, "duration": 12, "velocity": 102}, {"time": 1677, "pitch": 74, "duration": 6, "velocity": 94}, {"time": 1683, "pitch": 76, "duration": 6, "velocity": 100}, {"time": 1689, "pitch": 83, "duration": 6, "velocity": 104}, {"time": 1695, "pitch": 79, "duration": 12, "velocity": 100}, {"time": 1707, "pitch": 81, "duration": 18, "velocity": 108}, {"time": 1725, "pitch": 74, "duration": 7, "velocity": 98}, {"time": 1731, "pitch": 79, "duration": 8, "velocity": 98}, {"time": 1737, "pitch": 78, "duration": 7, "velocity": 103}, {"time": 1743, "pitch": 79, "duration": 7, "velocity": 108}, {"time": 1749, "pitch": 78, "duration": 7, "velocity": 93}, {"time": 1755, "pitch": 79, "duration": 7, "velocity": 98}, {"time": 1761, "pitch": 78, "duration": 8, "velocity": 89}, {"time": 1767, "pitch": 71, "duration": 12, "velocity": 100}, {"time": 1779, "pitch": 69, "duration": 12, "velocity": 107}, {"time": 1791, "pitch": 71, "duration": 6, "velocity": 108}, {"time": 1797, "pitch": 74, "duration": 12, "velocity": 108}, {"time": 1809, "pitch": 74, "duration": 12, "velocity": 110}, {"time": 1821, "pitch": 74, "duration": 6, "velocity": 102}, {"time": 1827, "pitch": 79, "duration": 6, "velocity": 114}, {"time": 1833, "pitch": 78, "duration": 6, "velocity": 103}, {"time": 1839, "pitch": 79, "duration": 12, "velocity": 108}, {"time": 1857, "pitch": 69, "duration": 6, "velocity": 100}, {"time": 1863, "pitch": 71, "duration": 6, "velocity": 104}, {"time": 1869, "pitch": 76, "duration": 16, "velocity": 100}, {"time": 1887, "pitch": 76, "duration": 7, "velocity": 116}, {"time": 1893, "pitch": 74, "duration": 24, "velocity": 94}, {"time": 1917, "pitch": 74, "duration": 6, "velocity": 98}, {"time": 1923, "pitch": 76, "duration": 6, "velocity": 94}, {"time": 1929, "pitch": 74, "duration": 7, "velocity": 96}, {"time": 1935, "pitch": 76, "duration": 12, "velocity": 100}, {"time": 1947, "pitch": 79, "duration": 12, "velocity": 107}, {"time": 1965, "pitch": 74, "duration": 6, "velocity": 104}, {"time": 1971, "pitch": 76, "duration": 6, "velocity": 108}, {"time": 1977, "pitch": 83, "duration": 6, "velocity": 108}, {"time": 1983, "pitch": 81, "duration": 12, "velocity": 116}, {"time": 1995, "pitch": 79, "duration": 12, "velocity": 114}, {"time": 2013, "pitch": 74, "duration": 7, "velocity": 110}, {"time": 2019, "pitch": 76, "duration": 6, "velocity": 102}, {"time": 2025, "pitch": 83, "duration": 12, "velocity": 107}, {"time": 2037, "pitch": 74, "duration": 6, "velocity": 104}, {"time": 2043, "pitch": 76, "duration": 6, "velocity": 96}, {"time": 2049, "pitch": 83, "duration": 12, "velocity": 102}, {"time": 2061, "pitch": 74, "duration": 6, "velocity": 94}, {"time": 2067, "pitch": 76, "duration": 6, "velocity": 100}, {"time": 2073, "pitch": 83, "duration": 6, "velocity": 104}, {"time": 2079, "pitch": 79, "duration": 12, "velocity": 100}, {"time": 2091, "pitch": 81, "duration": 12, "velocity": 108}, {"time": 2103, "pitch": 79, "duration": 9, "velocity": 113}, {"time": 2112, "pitch": 71, "duration": 9, "velocity": 108}, {"time": 2121, "pitch": 71, "duration": 6, "velocity": 98}, {"time": 2127, "pitch": 78, "duration": 21, "velocity": 119}, {"time": 2148, "pitch": 79, "duration": 60, "velocity": 107}, {"time": 2499, "pitch": 67, "duration": 6, "velocity": 107}, {"time": 2505, "pitch": 69, "duration": 6, "velocity": 102}, {"time": 2511, "pitch": 71, "duration": 12, "velocity": 110}, {"time": 2523, "pitch": 69, "duration": 12, "velocity": 113}, {"time": 2535, "pitch": 71, "duration": 12, "velocity": 114}, {"time": 2547, "pitch": 69, "duration": 12, "velocity": 100}, {"time": 2559, "pitch": 71, "duration": 6, "velocity": 102}, {"time": 2565, "pitch": 74, "duration": 12, "velocity": 107}, {"time": 2577, "pitch": 74, "duration": 13, "velocity": 104}, {"time": 2595, "pitch": 67, "duration": 6, "velocity": 98}, {"time": 2601, "pitch": 69, "duration": 6, "velocity": 88}, {"time": 2607, "pitch": 71, "duration": 12, "velocity": 102}, {"time": 2619, "pitch": 69, "duration": 12, "velocity": 96}, {"time": 2631, "pitch": 71, "duration": 12, "velocity": 102}, {"time": 2643, "pitch": 69, "duration": 12, "velocity": 100}, {"time": 2655, "pitch": 71, "duration": 6, "velocity": 96}, {"time": 2661, "pitch": 76, "duration": 12, "velocity": 107}, {"time": 2673, "pitch": 74, "duration": 18, "velocity": 114}, {"time": 2691, "pitch": 67, "duration": 6, "velocity": 98}, {"time": 2697, "pitch": 69, "duration": 6, "velocity": 96}, {"time": 2703, "pitch": 71, "duration": 12, "velocity": 93}, {"time": 2715, "pitch": 67, "duration": 12, "velocity": 89}, {"time": 2727, "pitch": 67, "duration": 13, "velocity": 98}, {"time": 2751, "pitch": 71, "duration": 12, "velocity": 113}, {"time": 2763, "pitch": 67, "duration": 12, "velocity": 108}, {"time": 2775, "pitch": 67, "duration": 16, "velocity": 110}, {"time": 2799, "pitch": 71, "duration": 12, "velocity": 113}, {"time": 2811, "pitch": 67, "duration": 12, "velocity": 100}, {"time": 2823, "pitch": 67, "duration": 12, "velocity": 107}, {"time": 2835, "pitch": 64, "duration": 12, "velocity": 98}, {"time": 2847, "pitch": 69, "duration": 16, "velocity": 113}, {"time": 2883, "pitch": 67, "duration": 6, "velocity": 107}, {"time": 2889, "pitch": 69, "duration": 6, "velocity": 102}, {"time": 2895, "pitch": 71, "duration": 12, "velocity": 110}, {"time": 2907, "pitch": 69, "duration": 12, "velocity": 113}, {"time": 2919, "pitch": 71, "duration": 12, "velocity": 114}, {"time": 2931, "pitch": 69, "duration": 12, "velocity": 100}, {"time": 2943, "pitch": 71, "duration": 6, "velocity": 102}, {"time": 2949, "pitch": 74, "duration": 12, "velocity": 107}, {"time": 2961, "pitch": 74, "duration": 12, "velocity": 104}, {"time": 2979, "pitch": 67, "duration": 6, "velocity": 98}, {"time": 2985, "pitch": 69, "duration": 6, "velocity": 88}, {"time": 2991, "pitch": 71, "duration": 12, "velocity": 102}, {"time": 3003, "pitch": 69, "duration": 12, "velocity": 96}, {"time": 3015, "pitch": 71, "duration": 12, "velocity": 102}, {"time": 3027, "pitch": 69, "duration": 12, "velocity": 100}, {"time": 3039, "pitch": 71, "duration": 6, "velocity": 96}, {"time": 3045, "pitch": 78, "duration": 12, "velocity": 107}, {"time": 3057, "pitch": 78, "duration": 12, "velocity": 114}, {"time": 3075, "pitch": 74, "duration": 7, "velocity": 107}, {"time": 3081, "pitch": 76, "duration": 6, "velocity": 98}, {"time": 3087, "pitch": 78, "duration": 12, "velocity": 116}, {"time": 3099, "pitch": 74, "duration": 12, "velocity": 113}, {"time": 3111, "pitch": 76, "duration": 17, "velocity": 113}, {"time": 3135, "pitch": 76, "duration": 12, "velocity": 114}, {"time": 3147, "pitch": 71, "duration": 12, "velocity": 108}, {"time": 3159, "pitch": 74, "duration": 24, "velocity": 113}, {"time": 3183, "pitch": 76, "duration": 6, "velocity": 113}, {"time": 3189, "pitch": 74, "duration": 6, "velocity": 110}, {"time": 3195, "pitch": 76, "duration": 6, "velocity": 108}, {"time": 3201, "pitch": 74, "duration": 6, "velocity": 110}, {"time": 3207, "pitch": 76, "duration": 12, "velocity": 116}, {"time": 3219, "pitch": 78, "duration": 12, "velocity": 119}, {"time": 3231, "pitch": 78, "duration": 25, "velocity": 119}, {"time": 3279, "pitch": 79, "duration": 24, "velocity": 104}, {"time": 3303, "pitch": 81, "duration": 29, "velocity": 114}, {"time": 3357, "pitch": 74, "duration": 7, "velocity": 98}, {"time": 3363, "pitch": 79, "duration": 8, "velocity": 98}, {"time": 3369, "pitch": 78, "duration": 7, "velocity": 103}, {"time": 3375, "pitch": 79, "duration": 7, "velocity": 108}, {"time": 3381, "pitch": 78, "duration": 7, "velocity": 93}, {"time": 3387, "pitch": 79, "duration": 7, "velocity": 98}, {"time": 3393, "pitch": 78, "duration": 8, "velocity": 89}, {"time": 3399, "pitch": 71, "duration": 12, "velocity": 100}, {"time": 3411, "pitch": 69, "duration": 12, "velocity": 107}, {"time": 3423, "pitch": 71, "duration": 6, "velocity": 108}, {"time": 3429, "pitch": 74, "duration": 12, "velocity": 108}, {"time": 3441, "pitch": 74, "duration": 12, "velocity": 110}, {"time": 3453, "pitch": 74, "duration": 6, "velocity": 102}, {"time": 3459, "pitch": 79, "duration": 6, "velocity": 114}, {"time": 3465, "pitch": 78, "duration": 6, "velocity": 103}, {"time": 3471, "pitch": 79, "duration": 12, "velocity": 108}, {"time": 3483, "pitch": 69, "duration": 12, "velocity": 108}, {"time": 3495, "pitch": 71, "duration": 11, "velocity": 107}, {"time": 3507, "pitch": 74, "duration": 6, "velocity": 107}, {"time": 3513, "pitch": 74, "duration": 22, "velocity": 110}, {"time": 3549, "pitch": 74, "duration": 6, "velocity": 98}, {"time": 3555, "pitch": 76, "duration": 6, "velocity": 94}, {"time": 3561, "pitch": 74, "duration": 7, "velocity": 96}, {"time": 3567, "pitch": 76, "duration": 12, "velocity": 100}, {"time": 3579, "pitch": 79, "duration": 13, "velocity": 107}, {"time": 3597, "pitch": 74, "duration": 8, "velocity": 88}, {"time": 3603, "pitch": 76, "duration": 6, "velocity": 86}, {"time": 3609, "pitch": 74, "duration": 7, "velocity": 93}, {"time": 3615, "pitch": 76, "duration": 12, "velocity": 92}, {"time": 3627, "pitch": 79, "duration": 11, "velocity": 108}, {"time": 3645, "pitch": 74, "duration": 7, "velocity": 110}, {"time": 3651, "pitch": 76, "duration": 6, "velocity": 102}, {"time": 3657, "pitch": 83, "duration": 12, "velocity": 107}, {"time": 3669, "pitch": 74, "duration": 6, "velocity": 104}, {"time": 3675, "pitch": 76, "duration": 6, "velocity": 96}, {"time": 3681, "pitch": 83, "duration": 12, "velocity": 102}, {"time": 3693, "pitch": 74, "duration": 6, "velocity": 94}, {"time": 3699, "pitch": 76, "duration": 6, "velocity": 100}, {"time": 3705, "pitch": 83, "duration": 6, "velocity": 104}, {"time": 3711, "pitch": 79, "duration": 12, "velocity": 100}, {"time": 3723, "pitch": 81, "duration": 12, "velocity": 108}, {"time": 3741, "pitch": 74, "duration": 7, "velocity": 98}, {"time": 3747, "pitch": 79, "duration": 8, "velocity": 98}, {"time": 3753, "pitch": 78, "duration": 7, "velocity": 103}, {"time": 3759, "pitch": 79, "duration": 7, "velocity": 108}, {"time": 3765, "pitch": 78, "duration": 7, "velocity": 93}, {"time": 3771, "pitch": 79, "duration": 7, "velocity": 98}, {"time": 3777, "pitch": 78, "duration": 8, "velocity": 89}, {"time": 3783, "pitch": 71, "duration": 12, "velocity": 100}, {"time": 3795, "pitch": 69, "duration": 12, "velocity": 107}, {"time": 3807, "pitch": 71, "duration": 6, "velocity": 108}, {"time": 3813, "pitch": 74, "duration": 12, "velocity": 108}, {"time": 3825, "pitch": 74, "duration": 12, "velocity": 110}, {"time": 3837, "pitch": 74, "duration": 6, "velocity": 102}, {"time": 3843, "pitch": 79, "duration": 6, "velocity": 114}, {"time": 3849, "pitch": 78, "duration": 6, "velocity": 103}, {"time": 3855, "pitch": 79, "duration": 13, "velocity": 108}, {"time": 3873, "pitch": 69, "duration": 6, "velocity": 100}, {"time": 3879, "pitch": 71, "duration": 6, "velocity": 104}, {"time": 3885, "pitch": 76, "duration": 12, "velocity": 100}, {"time": 3903, "pitch": 76, "duration": 7, "velocity": 116}, {"time": 3909, "pitch": 74, "duration": 16, "velocity": 94}, {"time": 3933, "pitch": 74, "duration": 6, "velocity": 98}, {"time": 3939, "pitch": 76, "duration": 6, "velocity": 94}, {"time": 3945, "pitch": 74, "duration": 7, "velocity": 96}, {"time": 3951, "pitch": 76, "duration": 12, "velocity": 100}, {"time": 3963, "pitch": 79, "duration": 13, "velocity": 107}, {"time": 3981, "pitch": 74, "duration": 6, "velocity": 104}, {"time": 3987, "pitch": 76, "duration": 6, "velocity": 108}, {"time": 3993, "pitch": 83, "duration": 6, "velocity": 108}, {"time": 3999, "pitch": 81, "duration": 12, "velocity": 116}, {"time": 4011, "pitch": 79, "duration": 13, "velocity": 114}, {"time": 4029, "pitch": 74, "duration": 7, "velocity": 110}, {"time": 4035, "pitch": 76, "duration": 6, "velocity": 102}, {"time": 4041, "pitch": 83, "duration": 12, "velocity": 107}, {"time": 4053, "pitch": 74, "duration": 6, "velocity": 104}, {"time": 4059, "pitch": 76, "duration": 6, "velocity": 96}, {"time": 4065, "pitch": 83, "duration": 12, "velocity": 102}, {"time": 4077, "pitch": 74, "duration": 6, "velocity": 94}, {"time": 4083, "pitch": 76, "duration": 6, "velocity": 100}, {"time": 4089, "pitch": 83, "duration": 6, "velocity": 104}, {"time": 4095, "pitch": 79, "duration": 12, "velocity": 100}, {"time": 4107, "pitch": 81, "duration": 12, "velocity": 108}, {"time": 4119, "pitch": 79, "duration": 9, "velocity": 113}, {"time": 4128, "pitch": 71, "duration": 9, "velocity": 108}, {"time": 4137, "pitch": 71, "duration": 6, "velocity": 98}, {"time": 4143, "pitch": 78, "duration": 21, "velocity": 119}, {"time": 4164, "pitch": 79, "duration": 44, "velocity": 107}, {"time": 4509, "pitch": 74, "duration": 7, "velocity": 98}, {"time": 4515, "pitch": 79, "duration": 8, "velocity": 98}, {"time": 4521, "pitch": 78, "duration": 7, "velocity": 103}, {"time": 4527, "pitch": 79, "duration": 7, "velocity": 108}, {"time": 4533, "pitch": 78, "duration": 7, "velocity": 93}, {"time": 4539, "pitch": 79, "duration": 7, "velocity": 98}, {"time": 4545, "pitch": 78, "duration": 8, "velocity": 89}, {"time": 4551, "pitch": 71, "duration": 12, "velocity": 100}, {"time": 4563, "pitch": 69, "duration": 8, "velocity": 107}, {"time": 4575, "pitch": 71, "duration": 4, "velocity": 108}, {"time": 4581, "pitch": 74, "duration": 7, "velocity": 108}, {"time": 4593, "pitch": 74, "duration": 6, "velocity": 110}, {"time": 4605, "pitch": 74, "duration": 6, "velocity": 102}, {"time": 4611, "pitch": 79, "duration": 6, "velocity": 114}, {"time": 4617, "pitch": 78, "duration": 5, "velocity": 103}, {"time": 4623, "pitch": 79, "duration": 4, "velocity": 108}, {"time": 4635, "pitch": 69, "duration": 8, "velocity": 108}, {"time": 4647, "pitch": 71, "duration": 6, "velocity": 107}, {"time": 4653, "pitch": 74, "duration": 5, "velocity": 107}, {"time": 4665, "pitch": 74, "duration": 7, "velocity": 110}, {"time": 4701, "pitch": 74, "duration": 6, "velocity": 98}, {"time": 4707, "pitch": 76, "duration": 6, "velocity": 94}, {"time": 4713, "pitch": 74, "duration": 7, "velocity": 96}, {"time": 4719, "pitch": 76, "duration": 7, "velocity": 100}, {"time": 4731, "pitch": 79, "duration": 9, "velocity": 107}, {"time": 4749, "pitch": 74, "duration": 8, "velocity": 88}, {"time": 4755, "pitch": 76, "duration": 6, "velocity": 86}, {"time": 4761, "pitch": 74, "duration": 7, "velocity": 93}, {"time": 4767, "pitch": 76, "duration": 7, "velocity": 92}, {"time": 4779, "pitch": 79, "duration": 7, "velocity": 108}, {"time": 4797, "pitch": 74, "duration": 7, "velocity": 110}, {"time": 4803, "pitch": 76, "duration": 3, "velocity": 102}, {"time": 4809, "pitch": 83, "duration": 8, "velocity": 107}, {"time": 4821, "pitch": 74, "duration": 4, "velocity": 104}, {"time": 4827, "pitch": 76, "duration": 3, "velocity": 96}, {"time": 4833, "pitch": 83, "duration": 7, "velocity": 102}, {"time": 4845, "pitch": 74, "duration": 5, "velocity": 94}, {"time": 4851, "pitch": 76, "duration": 3, "velocity": 100}, {"time": 4857, "pitch": 83, "duration": 5, "velocity": 104}, {"time": 4863, "pitch": 79, "duration": 7, "velocity": 100}, {"time": 4875, "pitch": 81, "duration": 9, "velocity": 108}, {"time": 4893, "pitch": 74, "duration": 7, "velocity": 98}, {"time": 4899, "pitch": 79, "duration": 8, "velocity": 98}, {"time": 4905, "pitch": 78, "duration": 7, "velocity": 103}, {"time": 4911, "pitch": 79, "duration": 7, "velocity": 108}, {"time": 4917, "pitch": 78, "duration": 7, "velocity": 93}, {"time": 4923, "pitch": 79, "duration": 7, "velocity": 98}, {"time": 4929, "pitch": 78, "duration": 8, "velocity": 89}, {"time": 4935, "pitch": 71, "duration": 12, "velocity": 100}, {"time": 4947, "pitch": 69, "duration": 8, "velocity": 107}, {"time": 4959, "pitch": 71, "duration": 4, "velocity": 108}, {"time": 4965, "pitch": 74, "duration": 7, "velocity": 108}, {"time": 4977, "pitch": 74, "duration": 6, "velocity": 110}, {"time": 4989, "pitch": 74, "duration": 6, "velocity": 102}, {"time": 4995, "pitch": 79, "duration": 6, "velocity": 114}, {"time": 5001, "pitch": 78, "duration": 5, "velocity": 103}, {"time": 5007, "pitch": 79, "duration": 4, "velocity": 108}, {"time": 5025, "pitch": 69, "duration": 6, "velocity": 100}, {"time": 5031, "pitch": 71, "duration": 3, "velocity": 104}, {"time": 5037, "pitch": 76, "duration": 12, "velocity": 100}, {"time": 5055, "pitch": 76, "duration": 7, "velocity": 116}, {"time": 5061, "pitch": 74, "duration": 7, "velocity": 94}, {"time": 5085, "pitch": 74, "duration": 6, "velocity": 98}, {"time": 5091, "pitch": 76, "duration": 6, "velocity": 94}, {"time": 5097, "pitch": 74, "duration": 7, "velocity": 96}, {"time": 5103, "pitch": 76, "duration": 7, "velocity": 100}, {"time": 5115, "pitch": 79, "duration": 9, "velocity": 107}, {"time": 5133, "pitch": 74, "duration": 5, "velocity": 104}, {"time": 5139, "pitch": 76, "duration": 3, "velocity": 108}, {"time": 5145, "pitch": 83, "duration": 4, "velocity": 108}, {"time": 5151, "pitch": 81, "duration": 8, "velocity": 116}, {"time": 5163, "pitch": 79, "duration": 8, "velocity": 114}, {"time": 5181, "pitch": 74, "duration": 7, "velocity": 110}, {"time": 5187, "pitch": 76, "duration": 3, "velocity": 102}, {"time": 5193, "pitch": 83, "duration": 8, "velocity": 107}, {"time": 5205, "pitch": 74, "duration": 4, "velocity": 104}, {"time": 5211, "pitch": 76, "duration": 3, "velocity": 96}, {"time": 5217, "pitch": 83, "duration": 7, "velocity": 102}, {"time": 5229, "pitch": 74, "duration": 5, "velocity": 94}, {"time": 5235, "pitch": 76, "duration": 3, "velocity": 100}, {"time": 5241, "pitch": 83, "duration": 5, "velocity": 104}, {"time": 5247, "pitch": 79, "duration": 7, "velocity": 100}, {"time": 5259, "pitch": 81, "duration": 9, "velocity": 108}, {"time": 5319, "pitch": 79, "duration": 7, "velocity": 113}, {"time": 5328, "pitch": 71, "duration": 6, "velocity": 108}, {"time": 5337, "pitch": 71, "duration": 5, "velocity": 98}, {"time": 5343, "pitch": 79, "duration": 15, "velocity": 119}, {"time": 5364, "pitch": 79, "duration": 15, "velocity": 107}]}, {"program": 0, "is_drum": false, "name": "PIANO", "notes": [{"time": 111, "pitch": 43, "duration": 39, "velocity": 87}, {"time": 111, "pitch": 55, "duration": 39, "velocity": 87}, {"time": 111, "pitch": 62, "duration": 7, "velocity": 88}, {"time": 111, "pitch": 67, "duration": 7, "velocity": 88}, {"time": 111, "pitch": 71, "duration": 7, "velocity": 87}, {"time": 123, "pitch": 62, "duration": 9, "velocity": 80}, {"time": 123, "pitch": 67, "duration": 10, "velocity": 83}, {"time": 123, "pitch": 71, "duration": 9, "velocity": 83}, {"time": 135, "pitch": 62, "duration": 9, "velocity": 84}, {"time": 135, "pitch": 67, "duration": 10, "velocity": 83}, {"time": 135, "pitch": 71, "duration": 8, "velocity": 81}, {"time": 147, "pitch": 62, "duration": 9, "velocity": 82}, {"time": 147, "pitch": 67, "duration": 10, "velocity": 81}, {"time": 147, "pitch": 71, "duration": 7, "velocity": 82}, {"time": 153, "pitch": 55, "duration": 3, "velocity": 76}, {"time": 159, "pitch": 43, "duration": 43, "velocity": 75}, {"time": 159, "pitch": 55, "duration": 40, "velocity": 80}, {"time": 159, "pitch": 62, "duration": 9, "velocity": 83}, {"time": 159, "pitch": 66, "duration": 10, "velocity": 85}, {"time": 171, "pitch": 62, "duration": 11, "velocity": 82}, {"time": 171, "pitch": 66, "duration": 11, "velocity": 84}, {"time": 183, "pitch": 62, "duration": 10, "velocity": 77}, {"time": 183, "pitch": 66, "duration": 10, "velocity": 83}, {"time": 195, "pitch": 62, "duration": 7, "velocity": 78}, {"time": 195, "pitch": 66, "duration": 8, "velocity": 83}, {"time": 201, "pitch": 55, "duration": 5, "velocity": 77}, {"time": 207, "pitch": 36, "duration": 50, "velocity": 83}, {"time": 207, "pitch": 48, "duration": 39, "velocity": 81}, {"time": 207, "pitch": 60, "duration": 9, "velocity": 80}, {"time": 207, "pitch": 64, "duration": 9, "velocity": 84}, {"time": 219, "pitch": 60, "duration": 10, "velocity": 81}, {"time": 219, "pitch": 64, "duration": 10, "velocity": 87}, {"time": 231, "pitch": 60, "duration": 9, "velocity": 78}, {"time": 231, "pitch": 64, "duration": 9, "velocity": 82}, {"time": 243, "pitch": 60, "duration": 8, "velocity": 80}, {"time": 243, "pitch": 64, "duration": 9, "velocity": 83}, {"time": 249, "pitch": 48, "duration": 3, "velocity": 67}, {"time": 255, "pitch": 38, "duration": 47, "velocity": 82}, {"time": 255, "pitch": 50, "duration": 47, "velocity": 79}, {"time": 255, "pitch": 62, "duration": 9, "velocity": 81}, {"time": 255, "pitch": 66, "duration": 9, "velocity": 82}, {"time": 267, "pitch": 62, "duration": 9, "velocity": 82}, {"time": 267, "pitch": 66, "duration": 10, "velocity": 84}, {"time": 279, "pitch": 62, "duration": 8, "velocity": 83}, {"time": 279, "pitch": 66, "duration": 10, "velocity": 84}, {"time": 291, "pitch": 62, "duration": 10, "velocity": 86}, {"time": 291, "pitch": 66, "duration": 11, "velocity": 84}, {"time": 303, "pitch": 43, "duration": 44, "velocity": 87}, {"time": 303, "pitch": 55, "duration": 42, "velocity": 87}, {"time": 303, "pitch": 62, "duration": 7, "velocity": 88}, {"time": 303, "pitch": 67, "duration": 7, "velocity": 88}, {"time": 303, "pitch": 71, "duration": 7, "velocity": 87}, {"time": 315, "pitch": 62, "duration": 9, "velocity": 80}, {"time": 315, "pitch": 67, "duration": 10, "velocity": 83}, {"time": 315, "pitch": 71, "duration": 9, "velocity": 83}, {"time": 327, "pitch": 62, "duration": 9, "velocity": 84}, {"time": 327, "pitch": 67, "duration": 10, "velocity": 83}, {"time": 327, "pitch": 71, "duration": 8, "velocity": 81}, {"time": 339, "pitch": 62, "duration": 9, "velocity": 82}, {"time": 339, "pitch": 67, "duration": 10, "velocity": 81}, {"time": 339, "pitch": 71, "duration": 7, "velocity": 82}, {"time": 345, "pitch": 55, "duration": 3, "velocity": 79}, {"time": 351, "pitch": 43, "duration": 43, "velocity": 75}, {"time": 351, "pitch": 55, "duration": 42, "velocity": 80}, {"time": 351, "pitch": 62, "duration": 9, "velocity": 83}, {"time": 351, "pitch": 66, "duration": 10, "velocity": 85}, {"time": 363, "pitch": 62, "duration": 11, "velocity": 82}, {"time": 363, "pitch": 66, "duration": 11, "velocity": 84}, {"time": 375, "pitch": 62, "duration": 10, "velocity": 77}, {"time": 375, "pitch": 66, "duration": 10, "velocity": 83}, {"time": 387, "pitch": 62, "duration": 7, "velocity": 78}, {"time": 387, "pitch": 66, "duration": 8, "velocity": 83}, {"time": 393, "pitch": 55, "duration": 3, "velocity": 74}, {"time": 399, "pitch": 36, "duration": 50, "velocity": 83}, {"time": 399, "pitch": 48, "duration": 49, "velocity": 81}, {"time": 399, "pitch": 60, "duration": 9, "velocity": 80}, {"time": 399, "pitch": 64, "duration": 9, "velocity": 84}, {"time": 411, "pitch": 60, "duration": 10, "velocity": 81}, {"time": 411, "pitch": 64, "duration": 10, "velocity": 87}, {"time": 423, "pitch": 60, "duration": 9, "velocity": 78}, {"time": 423, "pitch": 64, "duration": 9, "velocity": 82}, {"time": 435, "pitch": 60, "duration": 8, "velocity": 80}, {"time": 435, "pitch": 64, "duration": 9, "velocity": 83}, {"time": 447, "pitch": 38, "duration": 47, "velocity": 82}, {"time": 447, "pitch": 50, "duration": 42, "velocity": 79}, {"time": 447, "pitch": 62, "duration": 9, "velocity": 81}, {"time": 447, "pitch": 66, "duration": 9, "velocity": 82}, {"time": 459, "pitch": 62, "duration": 9, "velocity": 82}, {"time": 459, "pitch": 66, "duration": 10, "velocity": 84}, {"time": 471, "pitch": 62, "duration": 8, "velocity": 83}, {"time": 471, "pitch": 66, "duration": 10, "velocity": 84}, {"time": 483, "pitch": 62, "duration": 10, "velocity": 86}, {"time": 483, "pitch": 66, "duration": 11, "velocity": 84}, {"time": 489, "pitch": 50, "duration": 3, "velocity": 74}, {"time": 495, "pitch": 43, "duration": 44, "velocity": 87}, {"time": 495, "pitch": 55, "duration": 42, "velocity": 87}, {"time": 495, "pitch": 62, "duration": 7, "velocity": 88}, {"time": 495, "pitch": 67, "duration": 7, "velocity": 88}, {"time": 495, "pitch": 71, "duration": 7, "velocity": 87}, {"time": 507, "pitch": 62, "duration": 9, "velocity": 80}, {"time": 507, "pitch": 67, "duration": 10, "velocity": 83}, {"time": 507, "pitch": 71, "duration": 9, "velocity": 83}, {"time": 519, "pitch": 62, "duration": 9, "velocity": 84}, {"time": 519, "pitch": 67, "duration": 10, "velocity": 83}, {"time": 519, "pitch": 71, "duration": 8, "velocity": 81}, {"time": 531, "pitch": 62, "duration": 9, "velocity": 82}, {"time": 531, "pitch": 67, "duration": 10, "velocity": 81}, {"time": 531, "pitch": 71, "duration": 7, "velocity": 82}, {"time": 537, "pitch": 55, "duration": 3, "velocity": 68}, {"time": 543, "pitch": 43, "duration": 43, "velocity": 75}, {"time": 543, "pitch": 55, "duration": 42, "velocity": 80}, {"time": 543, "pitch": 62, "duration": 9, "velocity": 83}, {"time": 543, "pitch": 66, "duration": 10, "velocity": 85}, {"time": 555, "pitch": 62, "duration": 11, "velocity": 82}, {"time": 555, "pitch": 66, "duration": 11, "velocity": 84}, {"time": 567, "pitch": 62, "duration": 10, "velocity": 77}, {"time": 567, "pitch": 66, "duration": 10, "velocity": 83}, {"time": 579, "pitch": 62, "duration": 7, "velocity": 78}, {"time": 579, "pitch": 66, "duration": 8, "velocity": 83}, {"time": 585, "pitch": 55, "duration": 6, "velocity": 78}, {"time": 591, "pitch": 36, "duration": 50, "velocity": 83}, {"time": 591, "pitch": 48, "duration": 48, "velocity": 81}, {"time": 591, "pitch": 60, "duration": 9, "velocity": 80}, {"time": 591, "pitch": 64, "duration": 9, "velocity": 84}, {"time": 603, "pitch": 60, "duration": 10, "velocity": 81}, {"time": 603, "pitch": 64, "duration": 10, "velocity": 87}, {"time": 615, "pitch": 60, "duration": 9, "velocity": 78}, {"time": 615, "pitch": 64, "duration": 9, "velocity": 82}, {"time": 627, "pitch": 60, "duration": 8, "velocity": 80}, {"time": 627, "pitch": 64, "duration": 9, "velocity": 83}, {"time": 639, "pitch": 38, "duration": 47, "velocity": 82}, {"time": 639, "pitch": 50, "duration": 39, "velocity": 79}, {"time": 639, "pitch": 62, "duration": 9, "velocity": 81}, {"time": 639, "pitch": 66, "duration": 9, "velocity": 82}, {"time": 651, "pitch": 62, "duration": 9, "velocity": 82}, {"time": 651, "pitch": 66, "duration": 10, "velocity": 84}, {"time": 663, "pitch": 62, "duration": 8, "velocity": 83}, {"time": 663, "pitch": 66, "duration": 10, "velocity": 84}, {"time": 675, "pitch": 62, "duration": 10, "velocity": 86}, {"time": 675, "pitch": 66, "duration": 11, "velocity": 84}, {"time": 681, "pitch": 50, "duration": 6, "velocity": 70}, {"time": 687, "pitch": 43, "duration": 38, "velocity": 81}, {"time": 687, "pitch": 55, "duration": 37, "velocity": 78}, {"time": 687, "pitch": 62, "duration": 9, "velocity": 83}, {"time": 687, "pitch": 67, "duration": 9, "velocity": 83}, {"time": 687, "pitch": 71, "duration": 7, "velocity": 82}, {"time": 699, "pitch": 62, "duration": 9, "velocity": 81}, {"time": 699, "pitch": 67, "duration": 9, "velocity": 83}, {"time": 699, "pitch": 71, "duration": 8, "velocity": 83}, {"time": 711, "pitch": 62, "duration": 9, "velocity": 83}, {"time": 711, "pitch": 67, "duration": 10, "velocity": 84}, {"time": 711, "pitch": 71, "duration": 8, "velocity": 81}, {"time": 723, "pitch": 62, "duration": 9, "velocity": 84}, {"time": 723, "pitch": 67, "duration": 9, "velocity": 83}, {"time": 723, "pitch": 71, "duration": 8, "velocity": 80}, {"time": 729, "pitch": 55, "duration": 3, "velocity": 77}, {"time": 735, "pitch": 42, "duration": 38, "velocity": 73}, {"time": 735, "pitch": 54, "duration": 38, "velocity": 81}, {"time": 735, "pitch": 62, "duration": 8, "velocity": 87}, {"time": 735, "pitch": 66, "duration": 10, "velocity": 86}, {"time": 747, "pitch": 62, "duration": 9, "velocity": 84}, {"time": 747, "pitch": 66, "duration": 10, "velocity": 85}, {"time": 759, "pitch": 62, "duration": 8, "velocity": 86}, {"time": 759, "pitch": 66, "duration": 10, "velocity": 84}, {"time": 771, "pitch": 62, "duration": 4, "velocity": 87}, {"time": 771, "pitch": 66, "duration": 5, "velocity": 86}, {"time": 777, "pitch": 54, "duration": 6, "velocity": 84}, {"time": 783, "pitch": 36, "duration": 40, "velocity": 77}, {"time": 783, "pitch": 48, "duration": 39, "velocity": 77}, {"time": 783, "pitch": 60, "duration": 8, "velocity": 75}, {"time": 783, "pitch": 64, "duration": 9, "velocity": 76}, {"time": 783, "pitch": 67, "duration": 7, "velocity": 78}, {"time": 795, "pitch": 60, "duration": 9, "velocity": 76}, {"time": 795, "pitch": 64, "duration": 11, "velocity": 79}, {"time": 795, "pitch": 67, "duration": 8, "velocity": 38}, {"time": 807, "pitch": 60, "duration": 10, "velocity": 77}, {"time": 807, "pitch": 64, "duration": 10, "velocity": 79}, {"time": 807, "pitch": 67, "duration": 9, "velocity": 82}, {"time": 819, "pitch": 60, "duration": 5, "velocity": 80}, {"time": 819, "pitch": 64, "duration": 6, "velocity": 83}, {"time": 819, "pitch": 67, "duration": 5, "velocity": 81}, {"time": 831, "pitch": 38, "duration": 45, "velocity": 80}, {"time": 831, "pitch": 50, "duration": 39, "velocity": 81}, {"time": 831, "pitch": 62, "duration": 10, "velocity": 78}, {"time": 831, "pitch": 66, "duration": 10, "velocity": 81}, {"time": 831, "pitch": 69, "duration": 8, "velocity": 74}, {"time": 843, "pitch": 62, "duration": 9, "velocity": 75}, {"time": 843, "pitch": 66, "duration": 10, "velocity": 75}, {"time": 843, "pitch": 69, "duration": 7, "velocity": 74}, {"time": 855, "pitch": 62, "duration": 8, "velocity": 77}, {"time": 855, "pitch": 66, "duration": 10, "velocity": 78}, {"time": 855, "pitch": 69, "duration": 7, "velocity": 82}, {"time": 867, "pitch": 62, "duration": 8, "velocity": 81}, {"time": 867, "pitch": 66, "duration": 9, "velocity": 79}, {"time": 867, "pitch": 69, "duration": 8, "velocity": 83}, {"time": 873, "pitch": 50, "duration": 6, "velocity": 72}, {"time": 879, "pitch": 43, "duration": 38, "velocity": 77}, {"time": 879, "pitch": 55, "duration": 37, "velocity": 77}, {"time": 879, "pitch": 62, "duration": 8, "velocity": 80}, {"time": 879, "pitch": 67, "duration": 7, "velocity": 74}, {"time": 879, "pitch": 71, "duration": 7, "velocity": 82}, {"time": 891, "pitch": 62, "duration": 9, "velocity": 76}, {"time": 891, "pitch": 67, "duration": 10, "velocity": 78}, {"time": 891, "pitch": 71, "duration": 9, "velocity": 77}, {"time": 903, "pitch": 62, "duration": 9, "velocity": 80}, {"time": 903, "pitch": 67, "duration": 9, "velocity": 80}, {"time": 903, "pitch": 71, "duration": 9, "velocity": 80}, {"time": 915, "pitch": 62, "duration": 9, "velocity": 80}, {"time": 915, "pitch": 67, "duration": 9, "velocity": 82}, {"time": 915, "pitch": 71, "duration": 8, "velocity": 80}, {"time": 927, "pitch": 42, "duration": 37, "velocity": 75}, {"time": 927, "pitch": 54, "duration": 35, "velocity": 78}, {"time": 927, "pitch": 62, "duration": 9, "velocity": 78}, {"time": 927, "pitch": 66, "duration": 9, "velocity": 82}, {"time": 927, "pitch": 69, "duration": 9, "velocity": 84}, {"time": 939, "pitch": 62, "duration": 8, "velocity": 75}, {"time": 939, "pitch": 66, "duration": 8, "velocity": 81}, {"time": 939, "pitch": 69, "duration": 7, "velocity": 76}, {"time": 951, "pitch": 62, "duration": 7, "velocity": 75}, {"time": 951, "pitch": 66, "duration": 8, "velocity": 80}, {"time": 951, "pitch": 69, "duration": 7, "velocity": 75}, {"time": 963, "pitch": 62, "duration": 7, "velocity": 80}, {"time": 963, "pitch": 66, "duration": 5, "velocity": 81}, {"time": 963, "pitch": 69, "duration": 5, "velocity": 80}, {"time": 975, "pitch": 60, "duration": 8, "velocity": 79}, {"time": 975, "pitch": 64, "duration": 7, "velocity": 83}, {"time": 975, "pitch": 67, "duration": 7, "velocity": 80}, {"time": 978, "pitch": 36, "duration": 35, "velocity": 79}, {"time": 978, "pitch": 48, "duration": 36, "velocity": 75}, {"time": 987, "pitch": 60, "duration": 9, "velocity": 74}, {"time": 987, "pitch": 64, "duration": 8, "velocity": 78}, {"time": 987, "pitch": 67, "duration": 6, "velocity": 76}, {"time": 999, "pitch": 60, "duration": 8, "velocity": 76}, {"time": 999, "pitch": 64, "duration": 9, "velocity": 81}, {"time": 999, "pitch": 67, "duration": 7, "velocity": 80}, {"time": 1011, "pitch": 60, "duration": 5, "velocity": 76}, {"time": 1011, "pitch": 64, "duration": 6, "velocity": 78}, {"time": 1011, "pitch": 67, "duration": 5, "velocity": 75}, {"time": 1023, "pitch": 38, "duration": 33, "velocity": 75}, {"time": 1023, "pitch": 50, "duration": 34, "velocity": 71}, {"time": 1023, "pitch": 62, "duration": 7, "velocity": 78}, {"time": 1023, "pitch": 66, "duration": 9, "velocity": 83}, {"time": 1023, "pitch": 69, "duration": 7, "velocity": 77}, {"time": 1035, "pitch": 62, "duration": 7, "velocity": 76}, {"time": 1035, "pitch": 66, "duration": 9, "velocity": 81}, {"time": 1035, "pitch": 69, "duration": 7, "velocity": 78}, {"time": 1047, "pitch": 62, "duration": 7, "velocity": 75}, {"time": 1047, "pitch": 66, "duration": 8, "velocity": 80}, {"time": 1047, "pitch": 69, "duration": 6, "velocity": 76}, {"time": 1059, "pitch": 62, "duration": 4, "velocity": 79}, {"time": 1059, "pitch": 66, "duration": 5, "velocity": 83}, {"time": 1059, "pitch": 69, "duration": 5, "velocity": 76}, {"time": 1071, "pitch": 48, "duration": 49, "velocity": 81}, {"time": 1071, "pitch": 60, "duration": 9, "velocity": 77}, {"time": 1071, "pitch": 64, "duration": 9, "velocity": 84}, {"time": 1071, "pitch": 67, "duration": 8, "velocity": 81}, {"time": 1083, "pitch": 60, "duration": 10, "velocity": 76}, {"time": 1083, "pitch": 64, "duration": 7, "velocity": 80}, {"time": 1083, "pitch": 67, "duration": 10, "velocity": 77}, {"time": 1095, "pitch": 60, "duration": 8, "velocity": 68}, {"time": 1095, "pitch": 64, "duration": 8, "velocity": 73}, {"time": 1095, "pitch": 67, "duration": 9, "velocity": 80}, {"time": 1107, "pitch": 60, "duration": 3, "velocity": 65}, {"time": 1107, "pitch": 64, "duration": 8, "velocity": 76}, {"time": 1107, "pitch": 67, "duration": 8, "velocity": 79}, {"time": 1119, "pitch": 47, "duration": 40, "velocity": 71}, {"time": 1119, "pitch": 59, "duration": 38, "velocity": 42}, {"time": 1119, "pitch": 62, "duration": 8, "velocity": 84}, {"time": 1119, "pitch": 66, "duration": 9, "velocity": 83}, {"time": 1119, "pitch": 69, "duration": 8, "velocity": 87}, {"time": 1131, "pitch": 62, "duration": 8, "velocity": 80}, {"time": 1131, "pitch": 66, "duration": 8, "velocity": 81}, {"time": 1131, "pitch": 69, "duration": 8, "velocity": 82}, {"time": 1143, "pitch": 62, "duration": 8, "velocity": 81}, {"time": 1143, "pitch": 66, "duration": 8, "velocity": 83}, {"time": 1143, "pitch": 69, "duration": 7, "velocity": 79}, {"time": 1155, "pitch": 62, "duration": 5, "velocity": 81}, {"time": 1155, "pitch": 66, "duration": 5, "velocity": 83}, {"time": 1155, "pitch": 69, "duration": 4, "velocity": 78}, {"time": 1167, "pitch": 45, "duration": 44, "velocity": 83}, {"time": 1167, "pitch": 57, "duration": 43, "velocity": 81}, {"time": 1167, "pitch": 60, "duration": 8, "velocity": 81}, {"time": 1167, "pitch": 64, "duration": 8, "velocity": 82}, {"time": 1167, "pitch": 67, "duration": 8, "velocity": 83}, {"time": 1179, "pitch": 60, "duration": 8, "velocity": 74}, {"time": 1179, "pitch": 64, "duration": 8, "velocity": 76}, {"time": 1179, "pitch": 67, "duration": 8, "velocity": 74}, {"time": 1191, "pitch": 60, "duration": 7, "velocity": 73}, {"time": 1191, "pitch": 64, "duration": 7, "velocity": 80}, {"time": 1191, "pitch": 67, "duration": 7, "velocity": 76}, {"time": 1203, "pitch": 60, "duration": 3, "velocity": 78}, {"time": 1203, "pitch": 64, "duration": 4, "velocity": 86}, {"time": 1203, "pitch": 67, "duration": 4, "velocity": 81}, {"time": 1215, "pitch": 47, "duration": 34, "velocity": 90}, {"time": 1215, "pitch": 59, "duration": 33, "velocity": 90}, {"time": 1215, "pitch": 63, "duration": 35, "velocity": 103}, {"time": 1215, "pitch": 66, "duration": 35, "velocity": 91}, {"time": 1263, "pitch": 48, "duration": 17, "velocity": 87}, {"time": 1263, "pitch": 60, "duration": 15, "velocity": 82}, {"time": 1263, "pitch": 64, "duration": 17, "velocity": 87}, {"time": 1263, "pitch": 67, "duration": 15, "velocity": 87}, {"time": 1287, "pitch": 50, "duration": 33, "velocity": 88}, {"time": 1287, "pitch": 62, "duration": 33, "velocity": 87}, {"time": 1287, "pitch": 66, "duration": 33, "velocity": 87}, {"time": 1287, "pitch": 69, "duration": 33, "velocity": 87}, {"time": 1359, "pitch": 43, "duration": 42, "velocity": 102}, {"time": 1365, "pitch": 50, "duration": 44, "velocity": 80}, {"time": 1371, "pitch": 55, "duration": 29, "velocity": 81}, {"time": 1377, "pitch": 59, "duration": 9, "velocity": 81}, {"time": 1383, "pitch": 67, "duration": 26, "velocity": 102}, {"time": 1395, "pitch": 62, "duration": 14, "velocity": 84}, {"time": 1401, "pitch": 59, "duration": 8, "velocity": 81}, {"time": 1407, "pitch": 42, "duration": 33, "velocity": 85}, {"time": 1413, "pitch": 50, "duration": 29, "velocity": 78}, {"time": 1419, "pitch": 54, "duration": 14, "velocity": 83}, {"time": 1425, "pitch": 57, "duration": 8, "velocity": 85}, {"time": 1431, "pitch": 66, "duration": 20, "velocity": 113}, {"time": 1434, "pitch": 54, "duration": 10, "velocity": 84}, {"time": 1440, "pitch": 57, "duration": 9, "velocity": 86}, {"time": 1449, "pitch": 62, "duration": 8, "velocity": 86}, {"time": 1455, "pitch": 52, "duration": 40, "velocity": 86}, {"time": 1455, "pitch": 64, "duration": 5, "velocity": 86}, {"time": 1461, "pitch": 59, "duration": 42, "velocity": 72}, {"time": 1467, "pitch": 64, "duration": 24, "velocity": 83}, {"time": 1473, "pitch": 67, "duration": 14, "velocity": 80}, {"time": 1479, "pitch": 76, "duration": 22, "velocity": 85}, {"time": 1491, "pitch": 71, "duration": 11, "velocity": 85}, {"time": 1497, "pitch": 67, "duration": 10, "velocity": 83}, {"time": 1503, "pitch": 50, "duration": 49, "velocity": 77}, {"time": 1521, "pitch": 62, "duration": 16, "velocity": 84}, {"time": 1533, "pitch": 69, "duration": 7, "velocity": 110}, {"time": 1539, "pitch": 66, "duration": 3, "velocity": 78}, {"time": 1545, "pitch": 69, "duration": 7, "velocity": 87}, {"time": 1551, "pitch": 48, "duration": 47, "velocity": 83}, {"time": 1551, "pitch": 64, "duration": 18, "velocity": 85}, {"time": 1551, "pitch": 72, "duration": 10, "velocity": 87}, {"time": 1569, "pitch": 60, "duration": 9, "velocity": 80}, {"time": 1575, "pitch": 62, "duration": 10, "velocity": 98}, {"time": 1575, "pitch": 67, "duration": 7, "velocity": 107}, {"time": 1581, "pitch": 64, "duration": 7, "velocity": 74}, {"time": 1590, "pitch": 67, "duration": 8, "velocity": 69}, {"time": 1599, "pitch": 43, "duration": 42, "velocity": 91}, {"time": 1605, "pitch": 50, "duration": 42, "velocity": 77}, {"time": 1611, "pitch": 55, "duration": 14, "velocity": 84}, {"time": 1623, "pitch": 67, "duration": 24, "velocity": 110}, {"time": 1626, "pitch": 55, "duration": 19, "velocity": 86}, {"time": 1632, "pitch": 59, "duration": 10, "velocity": 86}, {"time": 1638, "pitch": 62, "duration": 8, "velocity": 89}, {"time": 1647, "pitch": 45, "duration": 38, "velocity": 88}, {"time": 1653, "pitch": 52, "duration": 33, "velocity": 78}, {"time": 1659, "pitch": 57, "duration": 14, "velocity": 88}, {"time": 1665, "pitch": 60, "duration": 4, "velocity": 89}, {"time": 1671, "pitch": 69, "duration": 13, "velocity": 116}, {"time": 1677, "pitch": 57, "duration": 19, "velocity": 98}, {"time": 1683, "pitch": 64, "duration": 9, "velocity": 107}, {"time": 1689, "pitch": 69, "duration": 10, "velocity": 91}, {"time": 1695, "pitch": 50, "duration": 37, "velocity": 87}, {"time": 1695, "pitch": 62, "duration": 5, "velocity": 85}, {"time": 1695, "pitch": 66, "duration": 10, "velocity": 86}, {"time": 1701, "pitch": 57, "duration": 32, "velocity": 77}, {"time": 1707, "pitch": 62, "duration": 14, "velocity": 88}, {"time": 1719, "pitch": 66, "duration": 8, "velocity": 106}, {"time": 1719, "pitch": 74, "duration": 8, "velocity": 110}, {"time": 1725, "pitch": 62, "duration": 18, "velocity": 93}, {"time": 1731, "pitch": 69, "duration": 11, "velocity": 96}, {"time": 1737, "pitch": 74, "duration": 11, "velocity": 93}, {"time": 1743, "pitch": 55, "duration": 36, "velocity": 82}, {"time": 1743, "pitch": 67, "duration": 13, "velocity": 84}, {"time": 1743, "pitch": 71, "duration": 16, "velocity": 88}, {"time": 1755, "pitch": 62, "duration": 13, "velocity": 77}, {"time": 1761, "pitch": 69, "duration": 4, "velocity": 84}, {"time": 1767, "pitch": 74, "duration": 12, "velocity": 110}, {"time": 1773, "pitch": 62, "duration": 19, "velocity": 86}, {"time": 1779, "pitch": 67, "duration": 6, "velocity": 89}, {"time": 1785, "pitch": 69, "duration": 7, "velocity": 85}, {"time": 1791, "pitch": 54, "duration": 35, "velocity": 84}, {"time": 1800, "pitch": 62, "duration": 21, "velocity": 32}, {"time": 1803, "pitch": 66, "duration": 8, "velocity": 81}, {"time": 1809, "pitch": 78, "duration": 14, "velocity": 119}, {"time": 1815, "pitch": 66, "duration": 5, "velocity": 90}, {"time": 1821, "pitch": 74, "duration": 12, "velocity": 107}, {"time": 1833, "pitch": 69, "duration": 3, "velocity": 83}, {"time": 1839, "pitch": 52, "duration": 38, "velocity": 84}, {"time": 1839, "pitch": 67, "duration": 14, "velocity": 89}, {"time": 1839, "pitch": 71, "duration": 14, "velocity": 98}, {"time": 1845, "pitch": 59, "duration": 30, "velocity": 78}, {"time": 1851, "pitch": 64, "duration": 12, "velocity": 81}, {"time": 1857, "pitch": 67, "duration": 3, "velocity": 86}, {"time": 1863, "pitch": 71, "duration": 8, "velocity": 108}, {"time": 1869, "pitch": 64, "duration": 5, "velocity": 86}, {"time": 1875, "pitch": 67, "duration": 7, "velocity": 92}, {"time": 1878, "pitch": 71, "duration": 3, "velocity": 83}, {"time": 1887, "pitch": 50, "duration": 46, "velocity": 81}, {"time": 1887, "pitch": 66, "duration": 17, "velocity": 87}, {"time": 1887, "pitch": 69, "duration": 18, "velocity": 89}, {"time": 1905, "pitch": 57, "duration": 16, "velocity": 81}, {"time": 1911, "pitch": 64, "duration": 8, "velocity": 107}, {"time": 1917, "pitch": 69, "duration": 18, "velocity": 117}, {"time": 1935, "pitch": 48, "duration": 36, "velocity": 83}, {"time": 1935, "pitch": 64, "duration": 11, "velocity": 88}, {"time": 1935, "pitch": 67, "duration": 11, "velocity": 96}, {"time": 1947, "pitch": 55, "duration": 24, "velocity": 66}, {"time": 1953, "pitch": 60, "duration": 14, "velocity": 78}, {"time": 1959, "pitch": 62, "duration": 13, "velocity": 100}, {"time": 1959, "pitch": 67, "duration": 11, "velocity": 94}, {"time": 1968, "pitch": 64, "duration": 9, "velocity": 77}, {"time": 1977, "pitch": 67, "duration": 3, "velocity": 69}, {"time": 1980, "pitch": 62, "duration": 14, "velocity": 84}, {"time": 1980, "pitch": 66, "duration": 17, "velocity": 86}, {"time": 1983, "pitch": 47, "duration": 37, "velocity": 80}, {"time": 1995, "pitch": 54, "duration": 24, "velocity": 74}, {"time": 2001, "pitch": 59, "duration": 15, "velocity": 81}, {"time": 2007, "pitch": 62, "duration": 13, "velocity": 108}, {"time": 2007, "pitch": 69, "duration": 7, "velocity": 110}, {"time": 2013, "pitch": 66, "duration": 7, "velocity": 78}, {"time": 2019, "pitch": 69, "duration": 10, "velocity": 86}, {"time": 2031, "pitch": 43, "duration": 39, "velocity": 87}, {"time": 2043, "pitch": 50, "duration": 31, "velocity": 38}, {"time": 2049, "pitch": 55, "duration": 27, "velocity": 86}, {"time": 2055, "pitch": 67, "duration": 27, "velocity": 110}, {"time": 2064, "pitch": 62, "duration": 13, "velocity": 84}, {"time": 2073, "pitch": 59, "duration": 6, "velocity": 86}, {"time": 2079, "pitch": 45, "duration": 19, "velocity": 84}, {"time": 2079, "pitch": 57, "duration": 16, "velocity": 80}, {"time": 2079, "pitch": 60, "duration": 22, "velocity": 84}, {"time": 2079, "pitch": 64, "duration": 14, "velocity": 84}, {"time": 2103, "pitch": 47, "duration": 13, "velocity": 88}, {"time": 2103, "pitch": 59, "duration": 25, "velocity": 83}, {"time": 2103, "pitch": 62, "duration": 21, "velocity": 89}, {"time": 2103, "pitch": 66, "duration": 20, "velocity": 86}, {"time": 2127, "pitch": 52, "duration": 36, "velocity": 87}, {"time": 2127, "pitch": 64, "duration": 21, "velocity": 87}, {"time": 2127, "pitch": 71, "duration": 12, "velocity": 88}, {"time": 2139, "pitch": 59, "duration": 15, "velocity": 78}, {"time": 2145, "pitch": 67, "duration": 13, "velocity": 91}, {"time": 2157, "pitch": 71, "duration": 13, "velocity": 88}, {"time": 2175, "pitch": 54, "duration": 25, "velocity": 82}, {"time": 2175, "pitch": 62, "duration": 18, "velocity": 88}, {"time": 2175, "pitch": 66, "duration": 22, "velocity": 88}, {"time": 2175, "pitch": 69, "duration": 22, "velocity": 89}, {"time": 2217, "pitch": 59, "duration": 22, "velocity": 76}, {"time": 2220, "pitch": 43, "duration": 23, "velocity": 87}, {"time": 2220, "pitch": 62, "duration": 4, "velocity": 89}, {"time": 2223, "pitch": 67, "duration": 20, "velocity": 108}, {"time": 2247, "pitch": 44, "duration": 16, "velocity": 73}, {"time": 2247, "pitch": 56, "duration": 16, "velocity": 89}, {"time": 2247, "pitch": 59, "duration": 17, "velocity": 89}, {"time": 2247, "pitch": 68, "duration": 18, "velocity": 103}, {"time": 2265, "pitch": 60, "duration": 20, "velocity": 78}, {"time": 2265, "pitch": 62, "duration": 3, "velocity": 38}, {"time": 2268, "pitch": 64, "duration": 5, "velocity": 80}, {"time": 2271, "pitch": 45, "duration": 37, "velocity": 86}, {"time": 2271, "pitch": 69, "duration": 16, "velocity": 108}, {"time": 2283, "pitch": 52, "duration": 26, "velocity": 70}, {"time": 2289, "pitch": 57, "duration": 31, "velocity": 80}, {"time": 2295, "pitch": 60, "duration": 13, "velocity": 90}, {"time": 2295, "pitch": 69, "duration": 18, "velocity": 91}, {"time": 2307, "pitch": 64, "duration": 11, "velocity": 84}, {"time": 2319, "pitch": 48, "duration": 86, "velocity": 90}, {"time": 2319, "pitch": 64, "duration": 14, "velocity": 92}, {"time": 2319, "pitch": 67, "duration": 14, "velocity": 102}, {"time": 2319, "pitch": 72, "duration": 15, "velocity": 94}, {"time": 2343, "pitch": 64, "duration": 13, "velocity": 93}, {"time": 2343, "pitch": 67, "duration": 14, "velocity": 100}, {"time": 2343, "pitch": 72, "duration": 15, "velocity": 89}, {"time": 2355, "pitch": 55, "duration": 51, "velocity": 66}, {"time": 2367, "pitch": 64, "duration": 11, "velocity": 81}, {"time": 2367, "pitch": 67, "duration": 13, "velocity": 78}, {"time": 2367, "pitch": 72, "duration": 11, "velocity": 86}, {"time": 2385, "pitch": 60, "duration": 20, "velocity": 83}, {"time": 2391, "pitch": 64, "duration": 8, "velocity": 98}, {"time": 2397, "pitch": 67, "duration": 7, "velocity": 88}, {"time": 2403, "pitch": 72, "duration": 11, "velocity": 88}, {"time": 2415, "pitch": 50, "duration": 93, "velocity": 87}, {"time": 2415, "pitch": 62, "duration": 18, "velocity": 87}, {"time": 2415, "pitch": 66, "duration": 21, "velocity": 86}, {"time": 2415, "pitch": 69, "duration": 21, "velocity": 88}, {"time": 2433, "pitch": 57, "duration": 24, "velocity": 84}, {"time": 2445, "pitch": 62, "duration": 3, "velocity": 89}, {"time": 2451, "pitch": 67, "duration": 7, "velocity": 113}, {"time": 2457, "pitch": 69, "duration": 34, "velocity": 102}, {"time": 2463, "pitch": 57, "duration": 16, "velocity": 83}, {"time": 2463, "pitch": 62, "duration": 26, "velocity": 87}, {"time": 2463, "pitch": 66, "duration": 28, "velocity": 86}, {"time": 2487, "pitch": 57, "duration": 19, "velocity": 86}, {"time": 2493, "pitch": 62, "duration": 12, "velocity": 98}, {"time": 2499, "pitch": 69, "duration": 9, "velocity": 110}, {"time": 2511, "pitch": 55, "duration": 40, "velocity": 88}, {"time": 2517, "pitch": 62, "duration": 41, "velocity": 69}, {"time": 2523, "pitch": 67, "duration": 15, "velocity": 79}, {"time": 2529, "pitch": 79, "duration": 30, "velocity": 90}, {"time": 2541, "pitch": 67, "duration": 8, "velocity": 79}, {"time": 2547, "pitch": 74, "duration": 20, "velocity": 84}, {"time": 2553, "pitch": 71, "duration": 12, "velocity": 83}, {"time": 2559, "pitch": 54, "duration": 41, "velocity": 85}, {"time": 2562, "pitch": 62, "duration": 32, "velocity": 86}, {"time": 2571, "pitch": 66, "duration": 12, "velocity": 80}, {"time": 2577, "pitch": 78, "duration": 19, "velocity": 95}, {"time": 2589, "pitch": 66, "duration": 6, "velocity": 81}, {"time": 2595, "pitch": 74, "duration": 11, "velocity": 81}, {"time": 2601, "pitch": 69, "duration": 8, "velocity": 81}, {"time": 2607, "pitch": 52, "duration": 40, "velocity": 81}, {"time": 2607, "pitch": 76, "duration": 21, "velocity": 86}, {"time": 2613, "pitch": 59, "duration": 33, "velocity": 77}, {"time": 2619, "pitch": 64, "duration": 26, "velocity": 82}, {"time": 2625, "pitch": 67, "duration": 8, "velocity": 81}, {"time": 2631, "pitch": 71, "duration": 12, "velocity": 91}, {"time": 2643, "pitch": 76, "duration": 22, "velocity": 92}, {"time": 2649, "pitch": 71, "duration": 10, "velocity": 89}, {"time": 2655, "pitch": 50, "duration": 45, "velocity": 84}, {"time": 2661, "pitch": 57, "duration": 37, "velocity": 73}, {"time": 2667, "pitch": 62, "duration": 14, "velocity": 86}, {"time": 2673, "pitch": 74, "duration": 12, "velocity": 93}, {"time": 2679, "pitch": 69, "duration": 9, "velocity": 83}, {"time": 2685, "pitch": 62, "duration": 11, "velocity": 86}, {"time": 2691, "pitch": 66, "duration": 7, "velocity": 87}, {"time": 2700, "pitch": 55, "duration": 37, "velocity": 86}, {"time": 2709, "pitch": 62, "duration": 28, "velocity": 74}, {"time": 2715, "pitch": 67, "duration": 20, "velocity": 80}, {"time": 2721, "pitch": 79, "duration": 29, "velocity": 88}, {"time": 2733, "pitch": 74, "duration": 9, "velocity": 85}, {"time": 2739, "pitch": 71, "duration": 14, "velocity": 75}, {"time": 2745, "pitch": 74, "duration": 13, "velocity": 86}, {"time": 2751, "pitch": 47, "duration": 36, "velocity": 85}, {"time": 2757, "pitch": 54, "duration": 33, "velocity": 75}, {"time": 2763, "pitch": 59, "duration": 27, "velocity": 87}, {"time": 2769, "pitch": 62, "duration": 9, "velocity": 81}, {"time": 2775, "pitch": 71, "duration": 29, "velocity": 87}, {"time": 2781, "pitch": 66, "duration": 9, "velocity": 70}, {"time": 2787, "pitch": 62, "duration": 10, "velocity": 79}, {"time": 2793, "pitch": 66, "duration": 8, "velocity": 85}, {"time": 2799, "pitch": 50, "duration": 37, "velocity": 87}, {"time": 2805, "pitch": 57, "duration": 32, "velocity": 84}, {"time": 2811, "pitch": 62, "duration": 25, "velocity": 88}, {"time": 2817, "pitch": 66, "duration": 14, "velocity": 81}, {"time": 2823, "pitch": 74, "duration": 26, "velocity": 88}, {"time": 2829, "pitch": 69, "duration": 7, "velocity": 87}, {"time": 2835, "pitch": 66, "duration": 12, "velocity": 84}, {"time": 2841, "pitch": 69, "duration": 9, "velocity": 86}, {"time": 2847, "pitch": 52, "duration": 41, "velocity": 87}, {"time": 2853, "pitch": 59, "duration": 33, "velocity": 79}, {"time": 2859, "pitch": 64, "duration": 27, "velocity": 86}, {"time": 2865, "pitch": 67, "duration": 13, "velocity": 86}, {"time": 2871, "pitch": 76, "duration": 12, "velocity": 94}, {"time": 2877, "pitch": 62, "duration": 6, "velocity": 94}, {"time": 2877, "pitch": 71, "duration": 8, "velocity": 89}, {"time": 2883, "pitch": 67, "duration": 5, "velocity": 92}, {"time": 2883, "pitch": 67, "duration": 5, "velocity": 94}, {"time": 2895, "pitch": 55, "duration": 42, "velocity": 82}, {"time": 2898, "pitch": 62, "duration": 43, "velocity": 81}, {"time": 2907, "pitch": 67, "duration": 14, "velocity": 83}, {"time": 2913, "pitch": 79, "duration": 22, "velocity": 98}, {"time": 2925, "pitch": 67, "duration": 8, "velocity": 76}, {"time": 2928, "pitch": 74, "duration": 15, "velocity": 85}, {"time": 2934, "pitch": 71, "duration": 10, "velocity": 87}, {"time": 2943, "pitch": 54, "duration": 35, "velocity": 83}, {"time": 2949, "pitch": 62, "duration": 24, "velocity": 74}, {"time": 2955, "pitch": 66, "duration": 16, "velocity": 82}, {"time": 2961, "pitch": 78, "duration": 34, "velocity": 87}, {"time": 2967, "pitch": 74, "duration": 7, "velocity": 86}, {"time": 2973, "pitch": 69, "duration": 23, "velocity": 85}, {"time": 2985, "pitch": 74, "duration": 23, "velocity": 83}, {"time": 2991, "pitch": 52, "duration": 37, "velocity": 81}, {"time": 2997, "pitch": 59, "duration": 29, "velocity": 68}, {"time": 3003, "pitch": 64, "duration": 21, "velocity": 80}, {"time": 3009, "pitch": 76, "duration": 36, "velocity": 87}, {"time": 3015, "pitch": 71, "duration": 8, "velocity": 86}, {"time": 3021, "pitch": 67, "duration": 11, "velocity": 84}, {"time": 3027, "pitch": 71, "duration": 10, "velocity": 85}, {"time": 3039, "pitch": 50, "duration": 45, "velocity": 82}, {"time": 3045, "pitch": 62, "duration": 38, "velocity": 85}, {"time": 3054, "pitch": 57, "duration": 28, "velocity": 38}, {"time": 3057, "pitch": 66, "duration": 25, "velocity": 85}, {"time": 3069, "pitch": 69, "duration": 7, "velocity": 87}, {"time": 3075, "pitch": 74, "duration": 10, "velocity": 88}, {"time": 3081, "pitch": 69, "duration": 5, "velocity": 83}, {"time": 3087, "pitch": 55, "duration": 37, "velocity": 86}, {"time": 3093, "pitch": 62, "duration": 28, "velocity": 80}, {"time": 3099, "pitch": 67, "duration": 20, "velocity": 73}, {"time": 3105, "pitch": 74, "duration": 30, "velocity": 88}, {"time": 3117, "pitch": 71, "duration": 8, "velocity": 79}, {"time": 3123, "pitch": 67, "duration": 15, "velocity": 84}, {"time": 3129, "pitch": 71, "duration": 8, "velocity": 84}, {"time": 3135, "pitch": 47, "duration": 35, "velocity": 79}, {"time": 3141, "pitch": 54, "duration": 33, "velocity": 78}, {"time": 3147, "pitch": 59, "duration": 26, "velocity": 83}, {"time": 3150, "pitch": 62, "duration": 15, "velocity": 78}, {"time": 3159, "pitch": 71, "duration": 30, "velocity": 91}, {"time": 3165, "pitch": 66, "duration": 9, "velocity": 85}, {"time": 3171, "pitch": 62, "duration": 14, "velocity": 83}, {"time": 3183, "pitch": 52, "duration": 44, "velocity": 87}, {"time": 3189, "pitch": 59, "duration": 36, "velocity": 80}, {"time": 3195, "pitch": 64, "duration": 29, "velocity": 86}, {"time": 3201, "pitch": 67, "duration": 10, "velocity": 84}, {"time": 3207, "pitch": 71, "duration": 13, "velocity": 89}, {"time": 3219, "pitch": 74, "duration": 9, "velocity": 85}, {"time": 3231, "pitch": 47, "duration": 48, "velocity": 83}, {"time": 3231, "pitch": 59, "duration": 25, "velocity": 89}, {"time": 3231, "pitch": 63, "duration": 30, "velocity": 95}, {"time": 3231, "pitch": 66, "duration": 30, "velocity": 91}, {"time": 3261, "pitch": 59, "duration": 17, "velocity": 87}, {"time": 3267, "pitch": 63, "duration": 11, "velocity": 93}, {"time": 3273, "pitch": 66, "duration": 6, "velocity": 87}, {"time": 3279, "pitch": 48, "duration": 19, "velocity": 88}, {"time": 3279, "pitch": 60, "duration": 17, "velocity": 89}, {"time": 3279, "pitch": 64, "duration": 18, "velocity": 94}, {"time": 3279, "pitch": 67, "duration": 18, "velocity": 93}, {"time": 3303, "pitch": 50, "duration": 49, "velocity": 89}, {"time": 3303, "pitch": 62, "duration": 47, "velocity": 89}, {"time": 3303, "pitch": 66, "duration": 48, "velocity": 100}, {"time": 3303, "pitch": 69, "duration": 47, "velocity": 98}, {"time": 3375, "pitch": 43, "duration": 42, "velocity": 102}, {"time": 3381, "pitch": 50, "duration": 44, "velocity": 80}, {"time": 3387, "pitch": 55, "duration": 29, "velocity": 81}, {"time": 3393, "pitch": 59, "duration": 9, "velocity": 81}, {"time": 3399, "pitch": 67, "duration": 26, "velocity": 102}, {"time": 3411, "pitch": 62, "duration": 14, "velocity": 84}, {"time": 3417, "pitch": 59, "duration": 8, "velocity": 81}, {"time": 3423, "pitch": 42, "duration": 33, "velocity": 85}, {"time": 3429, "pitch": 50, "duration": 29, "velocity": 78}, {"time": 3435, "pitch": 54, "duration": 14, "velocity": 83}, {"time": 3441, "pitch": 57, "duration": 8, "velocity": 85}, {"time": 3447, "pitch": 66, "duration": 20, "velocity": 113}, {"time": 3450, "pitch": 54, "duration": 10, "velocity": 84}, {"time": 3456, "pitch": 57, "duration": 9, "velocity": 86}, {"time": 3465, "pitch": 62, "duration": 8, "velocity": 86}, {"time": 3471, "pitch": 52, "duration": 40, "velocity": 86}, {"time": 3471, "pitch": 64, "duration": 5, "velocity": 86}, {"time": 3477, "pitch": 59, "duration": 42, "velocity": 72}, {"time": 3483, "pitch": 64, "duration": 24, "velocity": 83}, {"time": 3489, "pitch": 67, "duration": 14, "velocity": 80}, {"time": 3495, "pitch": 76, "duration": 22, "velocity": 85}, {"time": 3507, "pitch": 71, "duration": 11, "velocity": 85}, {"time": 3513, "pitch": 67, "duration": 10, "velocity": 83}, {"time": 3519, "pitch": 50, "duration": 49, "velocity": 77}, {"time": 3537, "pitch": 62, "duration": 16, "velocity": 84}, {"time": 3549, "pitch": 69, "duration": 7, "velocity": 110}, {"time": 3555, "pitch": 66, "duration": 3, "velocity": 78}, {"time": 3561, "pitch": 69, "duration": 7, "velocity": 87}, {"time": 3567, "pitch": 48, "duration": 47, "velocity": 83}, {"time": 3567, "pitch": 64, "duration": 18, "velocity": 85}, {"time": 3567, "pitch": 72, "duration": 10, "velocity": 87}, {"time": 3585, "pitch": 60, "duration": 9, "velocity": 80}, {"time": 3591, "pitch": 62, "duration": 10, "velocity": 98}, {"time": 3591, "pitch": 67, "duration": 7, "velocity": 107}, {"time": 3597, "pitch": 64, "duration": 7, "velocity": 74}, {"time": 3606, "pitch": 67, "duration": 8, "velocity": 69}, {"time": 3615, "pitch": 43, "duration": 42, "velocity": 91}, {"time": 3621, "pitch": 50, "duration": 42, "velocity": 77}, {"time": 3627, "pitch": 55, "duration": 14, "velocity": 84}, {"time": 3639, "pitch": 67, "duration": 24, "velocity": 110}, {"time": 3642, "pitch": 55, "duration": 19, "velocity": 86}, {"time": 3648, "pitch": 59, "duration": 10, "velocity": 86}, {"time": 3654, "pitch": 62, "duration": 8, "velocity": 89}, {"time": 3663, "pitch": 45, "duration": 38, "velocity": 88}, {"time": 3669, "pitch": 52, "duration": 33, "velocity": 78}, {"time": 3675, "pitch": 57, "duration": 14, "velocity": 88}, {"time": 3681, "pitch": 60, "duration": 4, "velocity": 89}, {"time": 3687, "pitch": 69, "duration": 13, "velocity": 116}, {"time": 3693, "pitch": 57, "duration": 19, "velocity": 98}, {"time": 3699, "pitch": 64, "duration": 9, "velocity": 107}, {"time": 3705, "pitch": 69, "duration": 10, "velocity": 91}, {"time": 3711, "pitch": 50, "duration": 37, "velocity": 87}, {"time": 3711, "pitch": 62, "duration": 5, "velocity": 85}, {"time": 3711, "pitch": 66, "duration": 10, "velocity": 86}, {"time": 3717, "pitch": 57, "duration": 32, "velocity": 77}, {"time": 3723, "pitch": 62, "duration": 14, "velocity": 88}, {"time": 3735, "pitch": 66, "duration": 8, "velocity": 106}, {"time": 3735, "pitch": 74, "duration": 8, "velocity": 110}, {"time": 3741, "pitch": 62, "duration": 18, "velocity": 93}, {"time": 3747, "pitch": 69, "duration": 11, "velocity": 96}, {"time": 3753, "pitch": 74, "duration": 11, "velocity": 93}, {"time": 3759, "pitch": 55, "duration": 36, "velocity": 82}, {"time": 3759, "pitch": 67, "duration": 13, "velocity": 84}, {"time": 3759, "pitch": 71, "duration": 16, "velocity": 88}, {"time": 3771, "pitch": 62, "duration": 13, "velocity": 77}, {"time": 3777, "pitch": 69, "duration": 4, "velocity": 84}, {"time": 3783, "pitch": 74, "duration": 12, "velocity": 110}, {"time": 3789, "pitch": 62, "duration": 19, "velocity": 86}, {"time": 3795, "pitch": 67, "duration": 6, "velocity": 89}, {"time": 3801, "pitch": 69, "duration": 7, "velocity": 85}, {"time": 3807, "pitch": 54, "duration": 35, "velocity": 84}, {"time": 3816, "pitch": 62, "duration": 21, "velocity": 32}, {"time": 3819, "pitch": 66, "duration": 8, "velocity": 81}, {"time": 3825, "pitch": 78, "duration": 14, "velocity": 119}, {"time": 3831, "pitch": 66, "duration": 5, "velocity": 90}, {"time": 3837, "pitch": 74, "duration": 12, "velocity": 107}, {"time": 3849, "pitch": 69, "duration": 3, "velocity": 83}, {"time": 3855, "pitch": 52, "duration": 38, "velocity": 84}, {"time": 3855, "pitch": 67, "duration": 14, "velocity": 89}, {"time": 3855, "pitch": 71, "duration": 14, "velocity": 98}, {"time": 3861, "pitch": 59, "duration": 30, "velocity": 78}, {"time": 3867, "pitch": 64, "duration": 12, "velocity": 81}, {"time": 3873, "pitch": 67, "duration": 3, "velocity": 86}, {"time": 3879, "pitch": 71, "duration": 8, "velocity": 108}, {"time": 3885, "pitch": 64, "duration": 5, "velocity": 86}, {"time": 3891, "pitch": 67, "duration": 7, "velocity": 92}, {"time": 3894, "pitch": 71, "duration": 3, "velocity": 83}, {"time": 3903, "pitch": 50, "duration": 46, "velocity": 81}, {"time": 3903, "pitch": 66, "duration": 17, "velocity": 87}, {"time": 3903, "pitch": 69, "duration": 18, "velocity": 89}, {"time": 3921, "pitch": 57, "duration": 16, "velocity": 81}, {"time": 3927, "pitch": 64, "duration": 8, "velocity": 107}, {"time": 3933, "pitch": 69, "duration": 18, "velocity": 117}, {"time": 3951, "pitch": 48, "duration": 36, "velocity": 83}, {"time": 3951, "pitch": 64, "duration": 11, "velocity": 88}, {"time": 3951, "pitch": 67, "duration": 11, "velocity": 96}, {"time": 3963, "pitch": 55, "duration": 24, "velocity": 66}, {"time": 3969, "pitch": 60, "duration": 14, "velocity": 78}, {"time": 3975, "pitch": 62, "duration": 13, "velocity": 100}, {"time": 3975, "pitch": 67, "duration": 11, "velocity": 94}, {"time": 3984, "pitch": 64, "duration": 9, "velocity": 77}, {"time": 3993, "pitch": 67, "duration": 3, "velocity": 69}, {"time": 3996, "pitch": 62, "duration": 14, "velocity": 84}, {"time": 3996, "pitch": 66, "duration": 17, "velocity": 86}, {"time": 3999, "pitch": 47, "duration": 37, "velocity": 80}, {"time": 4011, "pitch": 54, "duration": 24, "velocity": 74}, {"time": 4017, "pitch": 59, "duration": 15, "velocity": 81}, {"time": 4023, "pitch": 62, "duration": 13, "velocity": 108}, {"time": 4023, "pitch": 69, "duration": 7, "velocity": 110}, {"time": 4029, "pitch": 66, "duration": 7, "velocity": 78}, {"time": 4035, "pitch": 69, "duration": 10, "velocity": 86}, {"time": 4047, "pitch": 43, "duration": 39, "velocity": 87}, {"time": 4059, "pitch": 50, "duration": 31, "velocity": 38}, {"time": 4065, "pitch": 55, "duration": 27, "velocity": 86}, {"time": 4071, "pitch": 67, "duration": 27, "velocity": 110}, {"time": 4080, "pitch": 62, "duration": 13, "velocity": 84}, {"time": 4089, "pitch": 59, "duration": 6, "velocity": 86}, {"time": 4095, "pitch": 45, "duration": 19, "velocity": 84}, {"time": 4095, "pitch": 57, "duration": 16, "velocity": 80}, {"time": 4095, "pitch": 60, "duration": 22, "velocity": 84}, {"time": 4095, "pitch": 64, "duration": 14, "velocity": 84}, {"time": 4119, "pitch": 47, "duration": 13, "velocity": 88}, {"time": 4119, "pitch": 59, "duration": 25, "velocity": 83}, {"time": 4119, "pitch": 63, "duration": 21, "velocity": 89}, {"time": 4119, "pitch": 66, "duration": 20, "velocity": 86}, {"time": 4143, "pitch": 52, "duration": 36, "velocity": 87}, {"time": 4143, "pitch": 64, "duration": 21, "velocity": 87}, {"time": 4143, "pitch": 71, "duration": 12, "velocity": 88}, {"time": 4155, "pitch": 59, "duration": 15, "velocity": 78}, {"time": 4161, "pitch": 67, "duration": 13, "velocity": 91}, {"time": 4173, "pitch": 71, "duration": 13, "velocity": 88}, {"time": 4191, "pitch": 50, "duration": 39, "velocity": 89}, {"time": 4191, "pitch": 62, "duration": 16, "velocity": 88}, {"time": 4191, "pitch": 66, "duration": 17, "velocity": 100}, {"time": 4191, "pitch": 69, "duration": 17, "velocity": 94}, {"time": 4209, "pitch": 57, "duration": 9, "velocity": 83}, {"time": 4215, "pitch": 62, "duration": 10, "velocity": 108}, {"time": 4215, "pitch": 69, "duration": 10, "velocity": 110}, {"time": 4221, "pitch": 57, "duration": 9, "velocity": 88}, {"time": 4227, "pitch": 62, "duration": 4, "velocity": 84}, {"time": 4227, "pitch": 66, "duration": 5, "velocity": 113}, {"time": 4239, "pitch": 43, "duration": 38, "velocity": 85}, {"time": 4239, "pitch": 55, "duration": 38, "velocity": 81}, {"time": 4239, "pitch": 62, "duration": 35, "velocity": 86}, {"time": 4239, "pitch": 67, "duration": 36, "velocity": 88}, {"time": 4239, "pitch": 71, "duration": 36, "velocity": 87}, {"time": 4287, "pitch": 47, "duration": 42, "velocity": 88}, {"time": 4287, "pitch": 59, "duration": 30, "velocity": 91}, {"time": 4287, "pitch": 63, "duration": 33, "velocity": 93}, {"time": 4287, "pitch": 66, "duration": 35, "velocity": 88}, {"time": 4320, "pitch": 59, "duration": 9, "velocity": 86}, {"time": 4326, "pitch": 63, "duration": 9, "velocity": 103}, {"time": 4332, "pitch": 66, "duration": 3, "velocity": 78}, {"time": 4335, "pitch": 48, "duration": 91, "velocity": 91}, {"time": 4335, "pitch": 60, "duration": 17, "velocity": 88}, {"time": 4335, "pitch": 64, "duration": 20, "velocity": 89}, {"time": 4335, "pitch": 67, "duration": 18, "velocity": 87}, {"time": 4353, "pitch": 55, "duration": 9, "velocity": 71}, {"time": 4359, "pitch": 60, "duration": 13, "velocity": 93}, {"time": 4359, "pitch": 64, "duration": 25, "velocity": 98}, {"time": 4359, "pitch": 67, "duration": 21, "velocity": 102}, {"time": 4389, "pitch": 60, "duration": 11, "velocity": 84}, {"time": 4389, "pitch": 64, "duration": 14, "velocity": 83}, {"time": 4389, "pitch": 67, "duration": 13, "velocity": 74}, {"time": 4401, "pitch": 55, "duration": 30, "velocity": 80}, {"time": 4407, "pitch": 60, "duration": 2, "velocity": 83}, {"time": 4407, "pitch": 64, "duration": 22, "velocity": 94}, {"time": 4407, "pitch": 67, "duration": 18, "velocity": 89}, {"time": 4431, "pitch": 50, "duration": 91, "velocity": 85}, {"time": 4431, "pitch": 62, "duration": 24, "velocity": 88}, {"time": 4431, "pitch": 66, "duration": 28, "velocity": 87}, {"time": 4431, "pitch": 69, "duration": 26, "velocity": 89}, {"time": 4452, "pitch": 57, "duration": 20, "velocity": 83}, {"time": 4461, "pitch": 62, "duration": 12, "velocity": 86}, {"time": 4467, "pitch": 67, "duration": 6, "velocity": 89}, {"time": 4473, "pitch": 62, "duration": 4, "velocity": 72}, {"time": 4473, "pitch": 69, "duration": 6, "velocity": 87}, {"time": 4479, "pitch": 57, "duration": 20, "velocity": 88}, {"time": 4479, "pitch": 62, "duration": 26, "velocity": 89}, {"time": 4479, "pitch": 66, "duration": 28, "velocity": 103}, {"time": 4479, "pitch": 69, "duration": 27, "velocity": 84}, {"time": 4503, "pitch": 57, "duration": 19, "velocity": 85}, {"time": 4509, "pitch": 62, "duration": 13, "velocity": 88}, {"time": 4515, "pitch": 66, "duration": 7, "velocity": 100}, {"time": 4527, "pitch": 43, "duration": 39, "velocity": 87}, {"time": 4527, "pitch": 62, "duration": 14, "velocity": 86}, {"time": 4527, "pitch": 67, "duration": 9, "velocity": 85}, {"time": 4527, "pitch": 71, "duration": 8, "velocity": 87}, {"time": 4539, "pitch": 50, "duration": 36, "velocity": 77}, {"time": 4545, "pitch": 55, "duration": 19, "velocity": 81}, {"time": 4551, "pitch": 59, "duration": 16, "velocity": 87}, {"time": 4551, "pitch": 67, "duration": 20, "velocity": 87}, {"time": 4563, "pitch": 62, "duration": 11, "velocity": 84}, {"time": 4575, "pitch": 42, "duration": 34, "velocity": 77}, {"time": 4575, "pitch": 57, "duration": 17, "velocity": 83}, {"time": 4575, "pitch": 66, "duration": 18, "velocity": 81}, {"time": 4590, "pitch": 54, "duration": 20, "velocity": 84}, {"time": 4602, "pitch": 57, "duration": 8, "velocity": 82}, {"time": 4608, "pitch": 66, "duration": 6, "velocity": 90}, {"time": 4614, "pitch": 67, "duration": 16, "velocity": 89}, {"time": 4623, "pitch": 52, "duration": 37, "velocity": 87}, {"time": 4623, "pitch": 64, "duration": 27, "velocity": 87}, {"time": 4635, "pitch": 59, "duration": 24, "velocity": 77}, {"time": 4647, "pitch": 67, "duration": 12, "velocity": 102}, {"time": 4659, "pitch": 69, "duration": 29, "velocity": 85}, {"time": 4671, "pitch": 50, "duration": 48, "velocity": 80}, {"time": 4671, "pitch": 62, "duration": 16, "velocity": 78}, {"time": 4671, "pitch": 66, "duration": 17, "velocity": 84}, {"time": 4689, "pitch": 57, "duration": 16, "velocity": 86}, {"time": 4695, "pitch": 62, "duration": 9, "velocity": 110}, {"time": 4701, "pitch": 66, "duration": 6, "velocity": 116}, {"time": 4707, "pitch": 69, "duration": 11, "velocity": 89}, {"time": 4719, "pitch": 48, "duration": 47, "velocity": 83}, {"time": 4719, "pitch": 60, "duration": 15, "velocity": 84}, {"time": 4719, "pitch": 67, "duration": 15, "velocity": 88}, {"time": 4740, "pitch": 60, "duration": 14, "velocity": 91}, {"time": 4740, "pitch": 67, "duration": 13, "velocity": 89}, {"time": 4755, "pitch": 69, "duration": 11, "velocity": 88}, {"time": 4767, "pitch": 43, "duration": 39, "velocity": 83}, {"time": 4767, "pitch": 59, "duration": 24, "velocity": 87}, {"time": 4767, "pitch": 67, "duration": 26, "velocity": 88}, {"time": 4791, "pitch": 55, "duration": 22, "velocity": 84}, {"time": 4797, "pitch": 59, "duration": 7, "velocity": 107}, {"time": 4803, "pitch": 62, "duration": 6, "velocity": 110}, {"time": 4809, "pitch": 67, "duration": 11, "velocity": 82}, {"time": 4815, "pitch": 45, "duration": 36, "velocity": 83}, {"time": 4815, "pitch": 60, "duration": 20, "velocity": 88}, {"time": 4815, "pitch": 64, "duration": 18, "velocity": 92}, {"time": 4827, "pitch": 52, "duration": 23, "velocity": 71}, {"time": 4833, "pitch": 57, "duration": 27, "velocity": 89}, {"time": 4839, "pitch": 60, "duration": 5, "velocity": 107}, {"time": 4845, "pitch": 64, "duration": 6, "velocity": 114}, {"time": 4863, "pitch": 50, "duration": 39, "velocity": 86}, {"time": 4863, "pitch": 62, "duration": 6, "velocity": 88}, {"time": 4863, "pitch": 66, "duration": 8, "velocity": 90}, {"time": 4863, "pitch": 69, "duration": 8, "velocity": 89}, {"time": 4875, "pitch": 57, "duration": 28, "velocity": 80}, {"time": 4881, "pitch": 62, "duration": 8, "velocity": 93}, {"time": 4887, "pitch": 66, "duration": 7, "velocity": 116}, {"time": 4887, "pitch": 74, "duration": 6, "velocity": 94}, {"time": 4893, "pitch": 62, "duration": 15, "velocity": 107}, {"time": 4899, "pitch": 69, "duration": 11, "velocity": 107}, {"time": 4905, "pitch": 74, "duration": 5, "velocity": 96}, {"time": 4911, "pitch": 55, "duration": 36, "velocity": 87}, {"time": 4911, "pitch": 67, "duration": 15, "velocity": 91}, {"time": 4911, "pitch": 71, "duration": 17, "velocity": 94}, {"time": 4911, "pitch": 74, "duration": 13, "velocity": 89}, {"time": 4929, "pitch": 62, "duration": 18, "velocity": 87}, {"time": 4935, "pitch": 67, "duration": 7, "velocity": 96}, {"time": 4941, "pitch": 69, "duration": 4, "velocity": 89}, {"time": 4947, "pitch": 71, "duration": 7, "velocity": 108}, {"time": 4953, "pitch": 74, "duration": 5, "velocity": 91}, {"time": 4959, "pitch": 54, "duration": 36, "velocity": 82}, {"time": 4959, "pitch": 66, "duration": 15, "velocity": 90}, {"time": 4959, "pitch": 69, "duration": 19, "velocity": 98}, {"time": 4959, "pitch": 74, "duration": 18, "velocity": 89}, {"time": 4977, "pitch": 66, "duration": 7, "velocity": 100}, {"time": 4983, "pitch": 69, "duration": 8, "velocity": 116}, {"time": 4983, "pitch": 74, "duration": 8, "velocity": 110}, {"time": 4989, "pitch": 66, "duration": 4, "velocity": 113}, {"time": 4995, "pitch": 71, "duration": 6, "velocity": 117}, {"time": 5001, "pitch": 74, "duration": 25, "velocity": 98}, {"time": 5007, "pitch": 52, "duration": 32, "velocity": 86}, {"time": 5007, "pitch": 64, "duration": 14, "velocity": 88}, {"time": 5007, "pitch": 67, "duration": 18, "velocity": 93}, {"time": 5007, "pitch": 71, "duration": 19, "velocity": 96}, {"time": 5025, "pitch": 64, "duration": 15, "velocity": 87}, {"time": 5031, "pitch": 67, "duration": 15, "velocity": 110}, {"time": 5031, "pitch": 74, "duration": 15, "velocity": 94}, {"time": 5043, "pitch": 52, "duration": 10, "velocity": 83}, {"time": 5055, "pitch": 47, "duration": 37, "velocity": 90}, {"time": 5055, "pitch": 62, "duration": 13, "velocity": 96}, {"time": 5055, "pitch": 66, "duration": 17, "velocity": 103}, {"time": 5055, "pitch": 69, "duration": 17, "velocity": 108}, {"time": 5067, "pitch": 54, "duration": 14, "velocity": 74}, {"time": 5073, "pitch": 59, "duration": 7, "velocity": 100}, {"time": 5079, "pitch": 62, "duration": 8, "velocity": 114}, {"time": 5079, "pitch": 69, "duration": 8, "velocity": 113}, {"time": 5085, "pitch": 59, "duration": 9, "velocity": 113}, {"time": 5091, "pitch": 62, "duration": 7, "velocity": 100}, {"time": 5091, "pitch": 66, "duration": 9, "velocity": 109}, {"time": 5091, "pitch": 69, "duration": 9, "velocity": 93}, {"time": 5103, "pitch": 48, "duration": 39, "velocity": 102}, {"time": 5103, "pitch": 64, "duration": 17, "velocity": 92}, {"time": 5103, "pitch": 67, "duration": 17, "velocity": 107}, {"time": 5103, "pitch": 71, "duration": 15, "velocity": 100}, {"time": 5112, "pitch": 55, "duration": 27, "velocity": 80}, {"time": 5121, "pitch": 60, "duration": 7, "velocity": 87}, {"time": 5127, "pitch": 64, "duration": 11, "velocity": 116}, {"time": 5127, "pitch": 67, "duration": 7, "velocity": 116}, {"time": 5133, "pitch": 60, "duration": 6, "velocity": 88}, {"time": 5139, "pitch": 67, "duration": 8, "velocity": 100}, {"time": 5151, "pitch": 43, "duration": 37, "velocity": 94}, {"time": 5163, "pitch": 55, "duration": 13, "velocity": 89}, {"time": 5175, "pitch": 59, "duration": 8, "velocity": 110}, {"time": 5175, "pitch": 67, "duration": 8, "velocity": 110}, {"time": 5181, "pitch": 55, "duration": 10, "velocity": 100}, {"time": 5187, "pitch": 62, "duration": 4, "velocity": 113}, {"time": 5187, "pitch": 67, "duration": 5, "velocity": 93}, {"time": 5199, "pitch": 45, "duration": 37, "velocity": 90}, {"time": 5199, "pitch": 60, "duration": 13, "velocity": 98}, {"time": 5199, "pitch": 64, "duration": 18, "velocity": 110}, {"time": 5199, "pitch": 69, "duration": 15, "velocity": 93}, {"time": 5217, "pitch": 57, "duration": 8, "velocity": 102}, {"time": 5223, "pitch": 60, "duration": 7, "velocity": 113}, {"time": 5223, "pitch": 69, "duration": 7, "velocity": 107}, {"time": 5229, "pitch": 57, "duration": 10, "velocity": 102}, {"time": 5235, "pitch": 64, "duration": 8, "velocity": 114}, {"time": 5241, "pitch": 69, "duration": 5, "velocity": 91}, {"time": 5247, "pitch": 50, "duration": 52, "velocity": 86}, {"time": 5247, "pitch": 62, "duration": 15, "velocity": 93}, {"time": 5247, "pitch": 66, "duration": 19, "velocity": 106}, {"time": 5247, "pitch": 69, "duration": 17, "velocity": 88}, {"time": 5265, "pitch": 57, "duration": 29, "velocity": 87}, {"time": 5274, "pitch": 64, "duration": 10, "velocity": 110}, {"time": 5280, "pitch": 66, "duration": 11, "velocity": 91}, {"time": 5289, "pitch": 69, "duration": 49, "velocity": 88}, {"time": 5343, "pitch": 55, "duration": 46, "velocity": 86}, {"time": 5343, "pitch": 62, "duration": 31, "velocity": 87}, {"time": 5343, "pitch": 67, "duration": 29, "velocity": 87}, {"time": 5379, "pitch": 62, "duration": 9, "velocity": 83}, {"time": 5385, "pitch": 67, "duration": 6, "velocity": 81}, {"time": 5391, "pitch": 54, "duration": 48, "velocity": 83}, {"time": 5391, "pitch": 62, "duration": 31, "velocity": 83}, {"time": 5391, "pitch": 66, "duration": 30, "velocity": 83}, {"time": 5439, "pitch": 48, "duration": 40, "velocity": 73}, {"time": 5439, "pitch": 60, "duration": 7, "velocity": 76}, {"time": 5439, "pitch": 64, "duration": 7, "velocity": 77}, {"time": 5439, "pitch": 67, "duration": 7, "velocity": 80}, {"time": 5451, "pitch": 60, "duration": 8, "velocity": 72}, {"time": 5451, "pitch": 64, "duration": 6, "velocity": 76}, {"time": 5451, "pitch": 67, "duration": 6, "velocity": 75}, {"time": 5463, "pitch": 60, "duration": 6, "velocity": 78}, {"time": 5463, "pitch": 64, "duration": 8, "velocity": 80}, {"time": 5463, "pitch": 67, "duration": 6, "velocity": 77}, {"time": 5475, "pitch": 60, "duration": 4, "velocity": 71}, {"time": 5475, "pitch": 64, "duration": 10, "velocity": 73}, {"time": 5475, "pitch": 67, "duration": 6, "velocity": 76}, {"time": 5487, "pitch": 50, "duration": 47, "velocity": 72}, {"time": 5487, "pitch": 62, "duration": 8, "velocity": 81}, {"time": 5487, "pitch": 66, "duration": 9, "velocity": 81}, {"time": 5499, "pitch": 62, "duration": 9, "velocity": 77}, {"time": 5499, "pitch": 66, "duration": 9, "velocity": 79}, {"time": 5511, "pitch": 62, "duration": 7, "velocity": 77}, {"time": 5511, "pitch": 66, "duration": 7, "velocity": 81}, {"time": 5523, "pitch": 62, "duration": 4, "velocity": 77}, {"time": 5523, "pitch": 66, "duration": 5, "velocity": 82}, {"time": 5535, "pitch": 55, "duration": 45, "velocity": 68}, {"time": 5535, "pitch": 59, "duration": 8, "velocity": 82}, {"time": 5535, "pitch": 67, "duration": 7, "velocity": 85}, {"time": 5547, "pitch": 59, "duration": 8, "velocity": 77}, {"time": 5547, "pitch": 67, "duration": 7, "velocity": 77}, {"time": 5559, "pitch": 59, "duration": 8, "velocity": 79}, {"time": 5559, "pitch": 67, "duration": 5, "velocity": 73}, {"time": 5571, "pitch": 59, "duration": 7, "velocity": 78}, {"time": 5571, "pitch": 67, "duration": 8, "velocity": 80}, {"time": 5580, "pitch": 66, "duration": 9, "velocity": 80}, {"time": 5583, "pitch": 54, "duration": 49, "velocity": 76}, {"time": 5583, "pitch": 62, "duration": 8, "velocity": 76}, {"time": 5592, "pitch": 66, "duration": 8, "velocity": 78}, {"time": 5595, "pitch": 62, "duration": 8, "velocity": 80}, {"time": 5607, "pitch": 62, "duration": 8, "velocity": 79}, {"time": 5607, "pitch": 66, "duration": 7, "velocity": 76}, {"time": 5619, "pitch": 62, "duration": 11, "velocity": 88}, {"time": 5619, "pitch": 66, "duration": 5, "velocity": 83}, {"time": 5625, "pitch": 67, "duration": 6, "velocity": 84}, {"time": 5631, "pitch": 52, "duration": 48, "velocity": 78}, {"time": 5631, "pitch": 60, "duration": 8, "velocity": 81}, {"time": 5631, "pitch": 64, "duration": 8, "velocity": 83}, {"time": 5643, "pitch": 60, "duration": 8, "velocity": 77}, {"time": 5643, "pitch": 64, "duration": 8, "velocity": 78}, {"time": 5655, "pitch": 60, "duration": 7, "velocity": 71}, {"time": 5655, "pitch": 64, "duration": 7, "velocity": 78}, {"time": 5667, "pitch": 60, "duration": 6, "velocity": 66}, {"time": 5667, "pitch": 64, "duration": 8, "velocity": 76}, {"time": 5679, "pitch": 50, "duration": 57, "velocity": 72}, {"time": 5679, "pitch": 62, "duration": 9, "velocity": 79}, {"time": 5679, "pitch": 66, "duration": 10, "velocity": 81}, {"time": 5691, "pitch": 62, "duration": 10, "velocity": 84}, {"time": 5691, "pitch": 66, "duration": 10, "velocity": 81}, {"time": 5703, "pitch": 62, "duration": 9, "velocity": 78}, {"time": 5703, "pitch": 66, "duration": 8, "velocity": 75}, {"time": 5715, "pitch": 62, "duration": 12, "velocity": 80}, {"time": 5715, "pitch": 66, "duration": 21, "velocity": 76}, {"time": 5778, "pitch": 43, "duration": 53, "velocity": 82}, {"time": 5782, "pitch": 50, "duration": 48, "velocity": 79}, {"time": 5787, "pitch": 55, "duration": 43, "velocity": 80}, {"time": 5792, "pitch": 59, "duration": 8, "velocity": 69}, {"time": 5797, "pitch": 62, "duration": 10, "velocity": 78}, {"time": 5805, "pitch": 67, "duration": 4, "velocity": 77}, {"time": 5815, "pitch": 71, "duration": 17, "velocity": 63}, {"time": 5823, "pitch": 79, "duration": 9, "velocity": 77}]}]}