{"metadata": {"schema_version": "0.2", "title": "None", "source_filename": "343.mid", "source_format": "midi"}, "resolution": 12, "tempos": [{"time": 0, "qpm": 56.000082133453795}], "time_signatures": [{"time": 0, "numerator": 4, "denominator": 4}], "tracks": [{"program": 0, "is_drum": false, "name": "MELODY", "notes": [{"time": 243, "pitch": 71, "duration": 6, "velocity": 119}, {"time": 249, "pitch": 70, "duration": 9, "velocity": 119}, {"time": 258, "pitch": 70, "duration": 2, "velocity": 116}, {"time": 261, "pitch": 70, "duration": 3, "velocity": 116}, {"time": 264, "pitch": 71, "duration": 3, "velocity": 113}, {"time": 267, "pitch": 73, "duration": 3, "velocity": 110}, {"time": 270, "pitch": 73, "duration": 9, "velocity": 113}, {"time": 279, "pitch": 68, "duration": 3, "velocity": 98}, {"time": 282, "pitch": 68, "duration": 6, "velocity": 100}, {"time": 288, "pitch": 73, "duration": 6, "velocity": 116}, {"time": 294, "pitch": 71, "duration": 12, "velocity": 114}, {"time": 306, "pitch": 71, "duration": 2, "velocity": 100}, {"time": 309, "pitch": 71, "duration": 3, "velocity": 107}, {"time": 312, "pitch": 73, "duration": 3, "velocity": 108}, {"time": 315, "pitch": 71, "duration": 3, "velocity": 93}, {"time": 318, "pitch": 71, "duration": 6, "velocity": 107}, {"time": 324, "pitch": 70, "duration": 15, "velocity": 110}, {"time": 339, "pitch": 66, "duration": 6, "velocity": 113}, {"time": 345, "pitch": 75, "duration": 9, "velocity": 110}, {"time": 354, "pitch": 75, "duration": 2, "velocity": 114}, {"time": 357, "pitch": 75, "duration": 3, "velocity": 113}, {"time": 360, "pitch": 73, "duration": 3, "velocity": 108}, {"time": 363, "pitch": 71, "duration": 3, "velocity": 96}, {"time": 366, "pitch": 73, "duration": 8, "velocity": 116}, {"time": 375, "pitch": 73, "duration": 3, "velocity": 108}, {"time": 378, "pitch": 66, "duration": 6, "velocity": 96}, {"time": 384, "pitch": 68, "duration": 3, "velocity": 100}, {"time": 387, "pitch": 70, "duration": 3, "velocity": 98}, {"time": 390, "pitch": 71, "duration": 14, "velocity": 108}, {"time": 405, "pitch": 71, "duration": 3, "velocity": 114}, {"time": 408, "pitch": 73, "duration": 6, "velocity": 114}, {"time": 414, "pitch": 71, "duration": 3, "velocity": 102}, {"time": 417, "pitch": 70, "duration": 6, "velocity": 114}, {"time": 423, "pitch": 68, "duration": 12, "velocity": 107}, {"time": 435, "pitch": 71, "duration": 6, "velocity": 113}, {"time": 441, "pitch": 70, "duration": 9, "velocity": 110}, {"time": 450, "pitch": 70, "duration": 2, "velocity": 108}, {"time": 453, "pitch": 70, "duration": 3, "velocity": 113}, {"time": 456, "pitch": 71, "duration": 3, "velocity": 102}, {"time": 459, "pitch": 73, "duration": 3, "velocity": 107}, {"time": 462, "pitch": 73, "duration": 9, "velocity": 107}, {"time": 471, "pitch": 68, "duration": 3, "velocity": 96}, {"time": 474, "pitch": 68, "duration": 6, "velocity": 102}, {"time": 480, "pitch": 73, "duration": 6, "velocity": 107}, {"time": 486, "pitch": 71, "duration": 12, "velocity": 108}, {"time": 498, "pitch": 71, "duration": 2, "velocity": 104}, {"time": 501, "pitch": 71, "duration": 3, "velocity": 107}, {"time": 504, "pitch": 73, "duration": 3, "velocity": 108}, {"time": 507, "pitch": 71, "duration": 3, "velocity": 92}, {"time": 510, "pitch": 71, "duration": 6, "velocity": 114}, {"time": 516, "pitch": 70, "duration": 15, "velocity": 108}, {"time": 531, "pitch": 66, "duration": 6, "velocity": 108}, {"time": 537, "pitch": 75, "duration": 9, "velocity": 110}, {"time": 546, "pitch": 75, "duration": 2, "velocity": 104}, {"time": 549, "pitch": 75, "duration": 3, "velocity": 104}, {"time": 552, "pitch": 73, "duration": 3, "velocity": 91}, {"time": 555, "pitch": 71, "duration": 3, "velocity": 94}, {"time": 558, "pitch": 73, "duration": 6, "velocity": 113}, {"time": 564, "pitch": 75, "duration": 3, "velocity": 113}, {"time": 567, "pitch": 77, "duration": 3, "velocity": 116}, {"time": 570, "pitch": 78, "duration": 6, "velocity": 119}, {"time": 576, "pitch": 80, "duration": 3, "velocity": 114}, {"time": 579, "pitch": 82, "duration": 3, "velocity": 116}, {"time": 582, "pitch": 83, "duration": 12, "velocity": 120}, {"time": 594, "pitch": 83, "duration": 2, "velocity": 117}, {"time": 597, "pitch": 83, "duration": 3, "velocity": 116}, {"time": 600, "pitch": 82, "duration": 6, "velocity": 114}, {"time": 606, "pitch": 78, "duration": 3, "velocity": 114}, {"time": 609, "pitch": 80, "duration": 30, "velocity": 117}, {"time": 639, "pitch": 73, "duration": 6, "velocity": 119}, {"time": 645, "pitch": 83, "duration": 6, "velocity": 117}, {"time": 651, "pitch": 82, "duration": 3, "velocity": 110}, {"time": 654, "pitch": 82, "duration": 6, "velocity": 116}, {"time": 660, "pitch": 73, "duration": 6, "velocity": 117}, {"time": 666, "pitch": 73, "duration": 2, "velocity": 114}, {"time": 669, "pitch": 73, "duration": 3, "velocity": 117}, {"time": 672, "pitch": 70, "duration": 3, "velocity": 114}, {"time": 675, "pitch": 73, "duration": 3, "velocity": 117}, {"time": 678, "pitch": 80, "duration": 6, "velocity": 114}, {"time": 684, "pitch": 78, "duration": 6, "velocity": 108}, {"time": 690, "pitch": 83, "duration": 9, "velocity": 107}, {"time": 699, "pitch": 82, "duration": 3, "velocity": 114}, {"time": 702, "pitch": 82, "duration": 9, "velocity": 114}, {"time": 711, "pitch": 73, "duration": 3, "velocity": 108}, {"time": 714, "pitch": 73, "duration": 6, "velocity": 110}, {"time": 720, "pitch": 70, "duration": 3, "velocity": 110}, {"time": 723, "pitch": 73, "duration": 3, "velocity": 108}, {"time": 726, "pitch": 80, "duration": 6, "velocity": 116}, {"time": 732, "pitch": 78, "duration": 6, "velocity": 117}, {"time": 738, "pitch": 78, "duration": 6, "velocity": 116}, {"time": 744, "pitch": 73, "duration": 6, "velocity": 116}, {"time": 750, "pitch": 75, "duration": 12, "velocity": 114}, {"time": 762, "pitch": 75, "duration": 2, "velocity": 107}, {"time": 765, "pitch": 75, "duration": 3, "velocity": 107}, {"time": 768, "pitch": 77, "duration": 3, "velocity": 106}, {"time": 771, "pitch": 78, "duration": 3, "velocity": 108}, {"time": 774, "pitch": 80, "duration": 6, "velocity": 114}, {"time": 780, "pitch": 73, "duration": 3, "velocity": 110}, {"time": 783, "pitch": 80, "duration": 3, "velocity": 116}, {"time": 786, "pitch": 78, "duration": 6, "velocity": 116}, {"time": 792, "pitch": 78, "duration": 3, "velocity": 114}, {"time": 795, "pitch": 80, "duration": 3, "velocity": 113}, {"time": 798, "pitch": 82, "duration": 2, "velocity": 113}, {"time": 801, "pitch": 82, "duration": 6, "velocity": 117}, {"time": 807, "pitch": 80, "duration": 3, "velocity": 116}, {"time": 810, "pitch": 80, "duration": 6, "velocity": 116}, {"time": 816, "pitch": 78, "duration": 6, "velocity": 113}, {"time": 822, "pitch": 82, "duration": 6, "velocity": 114}, {"time": 828, "pitch": 83, "duration": 3, "velocity": 117}, {"time": 831, "pitch": 82, "duration": 3, "velocity": 108}, {"time": 834, "pitch": 80, "duration": 9, "velocity": 117}, {"time": 843, "pitch": 83, "duration": 6, "velocity": 117}, {"time": 849, "pitch": 82, "duration": 6, "velocity": 119}, {"time": 855, "pitch": 73, "duration": 3, "velocity": 116}, {"time": 858, "pitch": 73, "duration": 6, "velocity": 116}, {"time": 864, "pitch": 70, "duration": 3, "velocity": 107}, {"time": 867, "pitch": 73, "duration": 3, "velocity": 110}, {"time": 870, "pitch": 80, "duration": 6, "velocity": 116}, {"time": 876, "pitch": 78, "duration": 6, "velocity": 114}, {"time": 882, "pitch": 83, "duration": 9, "velocity": 117}, {"time": 891, "pitch": 82, "duration": 3, "velocity": 116}, {"time": 894, "pitch": 82, "duration": 9, "velocity": 119}, {"time": 903, "pitch": 73, "duration": 3, "velocity": 116}, {"time": 906, "pitch": 73, "duration": 6, "velocity": 116}, {"time": 912, "pitch": 70, "duration": 3, "velocity": 114}, {"time": 915, "pitch": 73, "duration": 3, "velocity": 114}, {"time": 918, "pitch": 80, "duration": 6, "velocity": 116}, {"time": 924, "pitch": 78, "duration": 2, "velocity": 102}, {"time": 927, "pitch": 78, "duration": 3, "velocity": 110}, {"time": 930, "pitch": 78, "duration": 2, "velocity": 114}, {"time": 933, "pitch": 78, "duration": 6, "velocity": 114}, {"time": 939, "pitch": 73, "duration": 3, "velocity": 110}, {"time": 942, "pitch": 75, "duration": 12, "velocity": 116}, {"time": 954, "pitch": 75, "duration": 2, "velocity": 108}, {"time": 957, "pitch": 75, "duration": 3, "velocity": 113}, {"time": 960, "pitch": 77, "duration": 3, "velocity": 109}, {"time": 963, "pitch": 78, "duration": 3, "velocity": 114}, {"time": 966, "pitch": 80, "duration": 6, "velocity": 119}, {"time": 972, "pitch": 73, "duration": 6, "velocity": 114}, {"time": 978, "pitch": 83, "duration": 6, "velocity": 117}, {"time": 984, "pitch": 82, "duration": 6, "velocity": 117}, {"time": 990, "pitch": 82, "duration": 3, "velocity": 100}, {"time": 993, "pitch": 80, "duration": 6, "velocity": 113}, {"time": 999, "pitch": 75, "duration": 28, "velocity": 114}, {"time": 1027, "pitch": 78, "duration": 8, "velocity": 114}, {"time": 1035, "pitch": 77, "duration": 6, "velocity": 113}, {"time": 1041, "pitch": 78, "duration": 6, "velocity": 114}, {"time": 1299, "pitch": 71, "duration": 6, "velocity": 119}, {"time": 1305, "pitch": 70, "duration": 9, "velocity": 119}, {"time": 1314, "pitch": 70, "duration": 2, "velocity": 116}, {"time": 1317, "pitch": 70, "duration": 3, "velocity": 116}, {"time": 1320, "pitch": 71, "duration": 3, "velocity": 113}, {"time": 1323, "pitch": 73, "duration": 3, "velocity": 110}, {"time": 1326, "pitch": 73, "duration": 9, "velocity": 113}, {"time": 1335, "pitch": 68, "duration": 3, "velocity": 98}, {"time": 1338, "pitch": 68, "duration": 6, "velocity": 100}, {"time": 1344, "pitch": 73, "duration": 6, "velocity": 116}, {"time": 1350, "pitch": 71, "duration": 12, "velocity": 114}, {"time": 1362, "pitch": 71, "duration": 2, "velocity": 100}, {"time": 1365, "pitch": 71, "duration": 3, "velocity": 107}, {"time": 1368, "pitch": 73, "duration": 3, "velocity": 108}, {"time": 1371, "pitch": 71, "duration": 3, "velocity": 93}, {"time": 1374, "pitch": 71, "duration": 6, "velocity": 107}, {"time": 1380, "pitch": 70, "duration": 15, "velocity": 110}, {"time": 1395, "pitch": 66, "duration": 6, "velocity": 113}, {"time": 1401, "pitch": 75, "duration": 9, "velocity": 110}, {"time": 1410, "pitch": 75, "duration": 2, "velocity": 114}, {"time": 1413, "pitch": 75, "duration": 3, "velocity": 113}, {"time": 1416, "pitch": 73, "duration": 3, "velocity": 108}, {"time": 1419, "pitch": 71, "duration": 3, "velocity": 96}, {"time": 1422, "pitch": 73, "duration": 8, "velocity": 116}, {"time": 1431, "pitch": 73, "duration": 3, "velocity": 108}, {"time": 1434, "pitch": 66, "duration": 6, "velocity": 96}, {"time": 1440, "pitch": 68, "duration": 3, "velocity": 100}, {"time": 1443, "pitch": 70, "duration": 3, "velocity": 98}, {"time": 1446, "pitch": 71, "duration": 14, "velocity": 108}, {"time": 1461, "pitch": 71, "duration": 3, "velocity": 114}, {"time": 1464, "pitch": 73, "duration": 6, "velocity": 114}, {"time": 1470, "pitch": 71, "duration": 3, "velocity": 102}, {"time": 1473, "pitch": 70, "duration": 6, "velocity": 114}, {"time": 1479, "pitch": 68, "duration": 12, "velocity": 107}, {"time": 1491, "pitch": 71, "duration": 6, "velocity": 113}, {"time": 1497, "pitch": 70, "duration": 9, "velocity": 110}, {"time": 1506, "pitch": 70, "duration": 2, "velocity": 108}, {"time": 1509, "pitch": 70, "duration": 3, "velocity": 113}, {"time": 1512, "pitch": 71, "duration": 3, "velocity": 102}, {"time": 1515, "pitch": 73, "duration": 3, "velocity": 107}, {"time": 1518, "pitch": 73, "duration": 9, "velocity": 107}, {"time": 1527, "pitch": 68, "duration": 3, "velocity": 96}, {"time": 1530, "pitch": 68, "duration": 6, "velocity": 102}, {"time": 1536, "pitch": 73, "duration": 6, "velocity": 107}, {"time": 1542, "pitch": 71, "duration": 12, "velocity": 108}, {"time": 1554, "pitch": 71, "duration": 2, "velocity": 104}, {"time": 1557, "pitch": 71, "duration": 3, "velocity": 107}, {"time": 1560, "pitch": 73, "duration": 3, "velocity": 108}, {"time": 1563, "pitch": 71, "duration": 3, "velocity": 92}, {"time": 1566, "pitch": 71, "duration": 6, "velocity": 114}, {"time": 1572, "pitch": 70, "duration": 15, "velocity": 108}, {"time": 1587, "pitch": 66, "duration": 6, "velocity": 108}, {"time": 1593, "pitch": 75, "duration": 9, "velocity": 110}, {"time": 1602, "pitch": 75, "duration": 2, "velocity": 104}, {"time": 1605, "pitch": 75, "duration": 3, "velocity": 104}, {"time": 1608, "pitch": 73, "duration": 3, "velocity": 91}, {"time": 1611, "pitch": 71, "duration": 3, "velocity": 94}, {"time": 1614, "pitch": 73, "duration": 6, "velocity": 113}, {"time": 1620, "pitch": 75, "duration": 3, "velocity": 113}, {"time": 1623, "pitch": 77, "duration": 3, "velocity": 116}, {"time": 1626, "pitch": 78, "duration": 6, "velocity": 119}, {"time": 1632, "pitch": 80, "duration": 3, "velocity": 114}, {"time": 1635, "pitch": 82, "duration": 3, "velocity": 116}, {"time": 1638, "pitch": 83, "duration": 12, "velocity": 120}, {"time": 1650, "pitch": 83, "duration": 2, "velocity": 117}, {"time": 1653, "pitch": 83, "duration": 3, "velocity": 116}, {"time": 1656, "pitch": 82, "duration": 6, "velocity": 114}, {"time": 1662, "pitch": 78, "duration": 3, "velocity": 114}, {"time": 1665, "pitch": 80, "duration": 6, "velocity": 117}, {"time": 1671, "pitch": 73, "duration": 6, "velocity": 119}, {"time": 1677, "pitch": 83, "duration": 6, "velocity": 117}, {"time": 1683, "pitch": 82, "duration": 3, "velocity": 110}, {"time": 1686, "pitch": 82, "duration": 6, "velocity": 116}, {"time": 1692, "pitch": 73, "duration": 6, "velocity": 117}, {"time": 1698, "pitch": 73, "duration": 2, "velocity": 114}, {"time": 1701, "pitch": 73, "duration": 3, "velocity": 117}, {"time": 1704, "pitch": 70, "duration": 3, "velocity": 114}, {"time": 1707, "pitch": 73, "duration": 3, "velocity": 117}, {"time": 1710, "pitch": 80, "duration": 6, "velocity": 114}, {"time": 1716, "pitch": 78, "duration": 6, "velocity": 108}, {"time": 1722, "pitch": 83, "duration": 9, "velocity": 107}, {"time": 1731, "pitch": 82, "duration": 3, "velocity": 114}, {"time": 1734, "pitch": 82, "duration": 9, "velocity": 114}, {"time": 1743, "pitch": 73, "duration": 3, "velocity": 108}, {"time": 1746, "pitch": 73, "duration": 6, "velocity": 110}, {"time": 1752, "pitch": 70, "duration": 3, "velocity": 110}, {"time": 1755, "pitch": 73, "duration": 3, "velocity": 108}, {"time": 1758, "pitch": 80, "duration": 6, "velocity": 116}, {"time": 1764, "pitch": 78, "duration": 6, "velocity": 117}, {"time": 1770, "pitch": 78, "duration": 6, "velocity": 116}, {"time": 1776, "pitch": 73, "duration": 6, "velocity": 116}, {"time": 1782, "pitch": 75, "duration": 12, "velocity": 114}, {"time": 1794, "pitch": 75, "duration": 2, "velocity": 107}, {"time": 1797, "pitch": 75, "duration": 3, "velocity": 107}, {"time": 1800, "pitch": 77, "duration": 3, "velocity": 106}, {"time": 1803, "pitch": 78, "duration": 3, "velocity": 108}, {"time": 1806, "pitch": 80, "duration": 6, "velocity": 114}, {"time": 1812, "pitch": 73, "duration": 3, "velocity": 110}, {"time": 1815, "pitch": 80, "duration": 3, "velocity": 116}, {"time": 1818, "pitch": 78, "duration": 6, "velocity": 116}, {"time": 1824, "pitch": 78, "duration": 3, "velocity": 114}, {"time": 1827, "pitch": 80, "duration": 3, "velocity": 113}, {"time": 1830, "pitch": 82, "duration": 2, "velocity": 113}, {"time": 1833, "pitch": 82, "duration": 6, "velocity": 117}, {"time": 1839, "pitch": 80, "duration": 3, "velocity": 116}, {"time": 1842, "pitch": 80, "duration": 6, "velocity": 116}, {"time": 1848, "pitch": 78, "duration": 6, "velocity": 113}, {"time": 1854, "pitch": 82, "duration": 6, "velocity": 114}, {"time": 1860, "pitch": 83, "duration": 3, "velocity": 117}, {"time": 1863, "pitch": 82, "duration": 3, "velocity": 108}, {"time": 1866, "pitch": 80, "duration": 9, "velocity": 117}, {"time": 1875, "pitch": 83, "duration": 6, "velocity": 117}, {"time": 1881, "pitch": 82, "duration": 6, "velocity": 119}, {"time": 1887, "pitch": 73, "duration": 3, "velocity": 116}, {"time": 1890, "pitch": 73, "duration": 6, "velocity": 116}, {"time": 1896, "pitch": 70, "duration": 3, "velocity": 107}, {"time": 1899, "pitch": 73, "duration": 3, "velocity": 110}, {"time": 1902, "pitch": 80, "duration": 6, "velocity": 116}, {"time": 1908, "pitch": 78, "duration": 6, "velocity": 114}, {"time": 1914, "pitch": 83, "duration": 9, "velocity": 117}, {"time": 1923, "pitch": 82, "duration": 3, "velocity": 116}, {"time": 1926, "pitch": 82, "duration": 9, "velocity": 119}, {"time": 1935, "pitch": 73, "duration": 3, "velocity": 116}, {"time": 1938, "pitch": 73, "duration": 6, "velocity": 116}, {"time": 1944, "pitch": 70, "duration": 3, "velocity": 114}, {"time": 1947, "pitch": 73, "duration": 3, "velocity": 114}, {"time": 1950, "pitch": 80, "duration": 6, "velocity": 116}, {"time": 1956, "pitch": 78, "duration": 2, "velocity": 102}, {"time": 1959, "pitch": 78, "duration": 3, "velocity": 110}, {"time": 1962, "pitch": 78, "duration": 2, "velocity": 114}, {"time": 1965, "pitch": 78, "duration": 6, "velocity": 114}, {"time": 1971, "pitch": 73, "duration": 3, "velocity": 110}, {"time": 1974, "pitch": 75, "duration": 12, "velocity": 116}, {"time": 1986, "pitch": 75, "duration": 2, "velocity": 108}, {"time": 1989, "pitch": 75, "duration": 3, "velocity": 113}, {"time": 1992, "pitch": 77, "duration": 3, "velocity": 109}, {"time": 1995, "pitch": 78, "duration": 3, "velocity": 114}, {"time": 1998, "pitch": 80, "duration": 6, "velocity": 119}, {"time": 2004, "pitch": 73, "duration": 6, "velocity": 114}, {"time": 2010, "pitch": 83, "duration": 6, "velocity": 117}, {"time": 2016, "pitch": 82, "duration": 6, "velocity": 117}, {"time": 2022, "pitch": 82, "duration": 3, "velocity": 100}, {"time": 2025, "pitch": 80, "duration": 6, "velocity": 113}, {"time": 2031, "pitch": 75, "duration": 6, "velocity": 114}, {"time": 2037, "pitch": 78, "duration": 6, "velocity": 116}, {"time": 2043, "pitch": 77, "duration": 3, "velocity": 106}, {"time": 2046, "pitch": 78, "duration": 21, "velocity": 117}, {"time": 2067, "pitch": 77, "duration": 3, "velocity": 116}, {"time": 2070, "pitch": 78, "duration": 3, "velocity": 110}, {"time": 2073, "pitch": 80, "duration": 5, "velocity": 117}, {"time": 2079, "pitch": 80, "duration": 3, "velocity": 116}, {"time": 2082, "pitch": 80, "duration": 15, "velocity": 117}, {"time": 2097, "pitch": 78, "duration": 5, "velocity": 117}, {"time": 2103, "pitch": 78, "duration": 3, "velocity": 116}, {"time": 2106, "pitch": 80, "duration": 6, "velocity": 114}, {"time": 2112, "pitch": 82, "duration": 27, "velocity": 116}, {"time": 2139, "pitch": 78, "duration": 3, "velocity": 116}, {"time": 2142, "pitch": 77, "duration": 3, "velocity": 113}, {"time": 2145, "pitch": 78, "duration": 5, "velocity": 116}, {"time": 2151, "pitch": 78, "duration": 3, "velocity": 114}, {"time": 2154, "pitch": 78, "duration": 15, "velocity": 117}, {"time": 2169, "pitch": 80, "duration": 5, "velocity": 116}, {"time": 2175, "pitch": 80, "duration": 3, "velocity": 113}, {"time": 2178, "pitch": 80, "duration": 2, "velocity": 116}, {"time": 2181, "pitch": 80, "duration": 6, "velocity": 116}, {"time": 2187, "pitch": 78, "duration": 3, "velocity": 113}, {"time": 2190, "pitch": 85, "duration": 6, "velocity": 120}, {"time": 2196, "pitch": 82, "duration": 39, "velocity": 119}, {"time": 2235, "pitch": 78, "duration": 3, "velocity": 114}, {"time": 2238, "pitch": 80, "duration": 3, "velocity": 114}, {"time": 2241, "pitch": 81, "duration": 6, "velocity": 119}, {"time": 2247, "pitch": 76, "duration": 3, "velocity": 116}, {"time": 2250, "pitch": 76, "duration": 12, "velocity": 116}, {"time": 2262, "pitch": 81, "duration": 3, "velocity": 116}, {"time": 2265, "pitch": 83, "duration": 6, "velocity": 119}, {"time": 2271, "pitch": 76, "duration": 3, "velocity": 116}, {"time": 2274, "pitch": 76, "duration": 9, "velocity": 113}, {"time": 2283, "pitch": 83, "duration": 3, "velocity": 114}, {"time": 2286, "pitch": 85, "duration": 3, "velocity": 108}, {"time": 2289, "pitch": 86, "duration": 5, "velocity": 119}, {"time": 2295, "pitch": 86, "duration": 3, "velocity": 116}, {"time": 2298, "pitch": 85, "duration": 6, "velocity": 116}, {"time": 2304, "pitch": 83, "duration": 6, "velocity": 117}, {"time": 2310, "pitch": 85, "duration": 6, "velocity": 113}, {"time": 2316, "pitch": 81, "duration": 9, "velocity": 116}, {"time": 2325, "pitch": 80, "duration": 6, "velocity": 114}, {"time": 2331, "pitch": 81, "duration": 3, "velocity": 116}, {"time": 2334, "pitch": 78, "duration": 36, "velocity": 117}, {"time": 2370, "pitch": 78, "duration": 3, "velocity": 102}, {"time": 2373, "pitch": 85, "duration": 3, "velocity": 120}, {"time": 2376, "pitch": 83, "duration": 6, "velocity": 116}, {"time": 2382, "pitch": 81, "duration": 3, "velocity": 113}, {"time": 2385, "pitch": 85, "duration": 15, "velocity": 117}, {"time": 2400, "pitch": 83, "duration": 3, "velocity": 114}, {"time": 2403, "pitch": 85, "duration": 3, "velocity": 116}, {"time": 2406, "pitch": 86, "duration": 7, "velocity": 123}, {"time": 2439, "pitch": 74, "duration": 6, "velocity": 119}, {"time": 2445, "pitch": 84, "duration": 6, "velocity": 117}, {"time": 2451, "pitch": 83, "duration": 3, "velocity": 110}, {"time": 2454, "pitch": 83, "duration": 6, "velocity": 116}, {"time": 2460, "pitch": 74, "duration": 6, "velocity": 117}, {"time": 2466, "pitch": 74, "duration": 2, "velocity": 114}, {"time": 2469, "pitch": 74, "duration": 3, "velocity": 117}, {"time": 2472, "pitch": 71, "duration": 3, "velocity": 114}, {"time": 2475, "pitch": 74, "duration": 3, "velocity": 117}, {"time": 2478, "pitch": 81, "duration": 6, "velocity": 114}, {"time": 2484, "pitch": 79, "duration": 6, "velocity": 108}, {"time": 2490, "pitch": 84, "duration": 9, "velocity": 107}, {"time": 2499, "pitch": 83, "duration": 3, "velocity": 114}, {"time": 2502, "pitch": 83, "duration": 9, "velocity": 114}, {"time": 2511, "pitch": 74, "duration": 3, "velocity": 108}, {"time": 2514, "pitch": 74, "duration": 6, "velocity": 110}, {"time": 2520, "pitch": 71, "duration": 3, "velocity": 110}, {"time": 2523, "pitch": 74, "duration": 3, "velocity": 108}, {"time": 2526, "pitch": 81, "duration": 6, "velocity": 116}, {"time": 2532, "pitch": 79, "duration": 6, "velocity": 117}, {"time": 2538, "pitch": 79, "duration": 6, "velocity": 116}, {"time": 2544, "pitch": 74, "duration": 6, "velocity": 116}, {"time": 2550, "pitch": 76, "duration": 12, "velocity": 114}, {"time": 2562, "pitch": 76, "duration": 2, "velocity": 107}, {"time": 2565, "pitch": 76, "duration": 3, "velocity": 107}, {"time": 2568, "pitch": 78, "duration": 3, "velocity": 106}, {"time": 2571, "pitch": 79, "duration": 3, "velocity": 108}, {"time": 2574, "pitch": 81, "duration": 6, "velocity": 114}, {"time": 2580, "pitch": 74, "duration": 3, "velocity": 110}, {"time": 2583, "pitch": 81, "duration": 3, "velocity": 116}, {"time": 2586, "pitch": 79, "duration": 6, "velocity": 116}, {"time": 2592, "pitch": 79, "duration": 3, "velocity": 114}, {"time": 2595, "pitch": 81, "duration": 3, "velocity": 113}, {"time": 2598, "pitch": 83, "duration": 2, "velocity": 113}, {"time": 2601, "pitch": 83, "duration": 6, "velocity": 117}, {"time": 2607, "pitch": 81, "duration": 3, "velocity": 116}, {"time": 2610, "pitch": 81, "duration": 6, "velocity": 116}, {"time": 2616, "pitch": 79, "duration": 6, "velocity": 113}, {"time": 2622, "pitch": 83, "duration": 6, "velocity": 114}, {"time": 2628, "pitch": 84, "duration": 3, "velocity": 117}, {"time": 2631, "pitch": 83, "duration": 3, "velocity": 108}, {"time": 2634, "pitch": 81, "duration": 9, "velocity": 117}, {"time": 2643, "pitch": 84, "duration": 6, "velocity": 117}, {"time": 2649, "pitch": 83, "duration": 6, "velocity": 119}, {"time": 2655, "pitch": 74, "duration": 3, "velocity": 116}, {"time": 2658, "pitch": 74, "duration": 6, "velocity": 116}, {"time": 2664, "pitch": 71, "duration": 3, "velocity": 107}, {"time": 2667, "pitch": 74, "duration": 3, "velocity": 110}, {"time": 2670, "pitch": 81, "duration": 6, "velocity": 116}, {"time": 2676, "pitch": 79, "duration": 6, "velocity": 114}, {"time": 2682, "pitch": 84, "duration": 9, "velocity": 117}, {"time": 2691, "pitch": 83, "duration": 3, "velocity": 116}, {"time": 2694, "pitch": 83, "duration": 9, "velocity": 119}, {"time": 2703, "pitch": 74, "duration": 3, "velocity": 116}, {"time": 2706, "pitch": 74, "duration": 6, "velocity": 116}, {"time": 2712, "pitch": 71, "duration": 3, "velocity": 114}, {"time": 2715, "pitch": 74, "duration": 3, "velocity": 114}, {"time": 2718, "pitch": 81, "duration": 6, "velocity": 116}, {"time": 2724, "pitch": 79, "duration": 2, "velocity": 102}, {"time": 2727, "pitch": 79, "duration": 3, "velocity": 110}, {"time": 2730, "pitch": 79, "duration": 2, "velocity": 114}, {"time": 2733, "pitch": 79, "duration": 6, "velocity": 114}, {"time": 2739, "pitch": 74, "duration": 3, "velocity": 110}, {"time": 2742, "pitch": 76, "duration": 12, "velocity": 116}, {"time": 2754, "pitch": 76, "duration": 2, "velocity": 108}, {"time": 2757, "pitch": 76, "duration": 3, "velocity": 113}, {"time": 2760, "pitch": 78, "duration": 3, "velocity": 109}, {"time": 2763, "pitch": 79, "duration": 3, "velocity": 114}, {"time": 2766, "pitch": 81, "duration": 6, "velocity": 119}, {"time": 2772, "pitch": 74, "duration": 6, "velocity": 114}, {"time": 2778, "pitch": 84, "duration": 6, "velocity": 117}, {"time": 2784, "pitch": 83, "duration": 6, "velocity": 117}, {"time": 2790, "pitch": 83, "duration": 3, "velocity": 100}, {"time": 2793, "pitch": 81, "duration": 6, "velocity": 113}, {"time": 2799, "pitch": 76, "duration": 45, "velocity": 114}, {"time": 2844, "pitch": 79, "duration": 15, "velocity": 119}, {"time": 2859, "pitch": 78, "duration": 15, "velocity": 117}]}, {"program": 0, "is_drum": false, "name": "BRIDGE", "notes": [{"time": 18, "pitch": 73, "duration": 3, "velocity": 114}, {"time": 21, "pitch": 82, "duration": 12, "velocity": 117}, {"time": 33, "pitch": 80, "duration": 18, "velocity": 117}, {"time": 51, "pitch": 73, "duration": 6, "velocity": 114}, {"time": 57, "pitch": 78, "duration": 9, "velocity": 117}, {"time": 57, "pitch": 83, "duration": 9, "velocity": 104}, {"time": 66, "pitch": 82, "duration": 9, "velocity": 107}, {"time": 75, "pitch": 80, "duration": 6, "velocity": 102}, {"time": 81, "pitch": 78, "duration": 18, "velocity": 93}, {"time": 99, "pitch": 75, "duration": 3, "velocity": 107}, {"time": 102, "pitch": 77, "duration": 3, "velocity": 103}, {"time": 105, "pitch": 78, "duration": 9, "velocity": 114}, {"time": 114, "pitch": 77, "duration": 8, "velocity": 103}, {"time": 120, "pitch": 75, "duration": 6, "velocity": 98}, {"time": 126, "pitch": 70, "duration": 3, "velocity": 91}, {"time": 129, "pitch": 73, "duration": 21, "velocity": 104}, {"time": 150, "pitch": 75, "duration": 3, "velocity": 107}, {"time": 153, "pitch": 76, "duration": 9, "velocity": 114}, {"time": 162, "pitch": 75, "duration": 9, "velocity": 108}, {"time": 171, "pitch": 73, "duration": 5, "velocity": 104}, {"time": 177, "pitch": 73, "duration": 6, "velocity": 104}, {"time": 183, "pitch": 70, "duration": 3, "velocity": 96}, {"time": 186, "pitch": 66, "duration": 15, "velocity": 96}, {"time": 201, "pitch": 70, "duration": 12, "velocity": 94}, {"time": 213, "pitch": 71, "duration": 12, "velocity": 88}, {"time": 225, "pitch": 70, "duration": 8, "velocity": 88}, {"time": 612, "pitch": 61, "duration": 3, "velocity": 92}, {"time": 615, "pitch": 63, "duration": 2, "velocity": 88}, {"time": 618, "pitch": 65, "duration": 2, "velocity": 80}, {"time": 621, "pitch": 66, "duration": 3, "velocity": 87}, {"time": 624, "pitch": 68, "duration": 3, "velocity": 87}, {"time": 627, "pitch": 70, "duration": 2, "velocity": 87}, {"time": 630, "pitch": 71, "duration": 2, "velocity": 86}, {"time": 633, "pitch": 73, "duration": 4, "velocity": 96}, {"time": 1068, "pitch": 70, "duration": 3, "velocity": 87}, {"time": 1071, "pitch": 71, "duration": 3, "velocity": 89}, {"time": 1074, "pitch": 73, "duration": 6, "velocity": 93}, {"time": 1080, "pitch": 78, "duration": 6, "velocity": 104}, {"time": 1086, "pitch": 85, "duration": 24, "velocity": 116}, {"time": 1110, "pitch": 82, "duration": 6, "velocity": 114}, {"time": 1116, "pitch": 78, "duration": 6, "velocity": 110}, {"time": 1122, "pitch": 73, "duration": 9, "velocity": 100}, {"time": 1131, "pitch": 78, "duration": 3, "velocity": 100}, {"time": 1134, "pitch": 80, "duration": 3, "velocity": 104}, {"time": 1137, "pitch": 81, "duration": 9, "velocity": 116}, {"time": 1146, "pitch": 80, "duration": 12, "velocity": 113}, {"time": 1158, "pitch": 78, "duration": 33, "velocity": 108}, {"time": 1191, "pitch": 73, "duration": 3, "velocity": 108}, {"time": 1194, "pitch": 75, "duration": 6, "velocity": 113}, {"time": 1200, "pitch": 77, "duration": 8, "velocity": 116}, {"time": 1209, "pitch": 77, "duration": 6, "velocity": 119}, {"time": 1215, "pitch": 74, "duration": 3, "velocity": 113}, {"time": 1218, "pitch": 75, "duration": 5, "velocity": 104}, {"time": 1221, "pitch": 77, "duration": 9, "velocity": 116}, {"time": 1230, "pitch": 77, "duration": 9, "velocity": 116}, {"time": 1239, "pitch": 78, "duration": 3, "velocity": 114}, {"time": 1242, "pitch": 78, "duration": 9, "velocity": 114}, {"time": 1251, "pitch": 77, "duration": 6, "velocity": 116}, {"time": 1257, "pitch": 75, "duration": 12, "velocity": 113}, {"time": 1269, "pitch": 78, "duration": 3, "velocity": 100}, {"time": 1272, "pitch": 80, "duration": 3, "velocity": 92}, {"time": 1275, "pitch": 85, "duration": 3, "velocity": 110}, {"time": 1278, "pitch": 82, "duration": 27, "velocity": 108}, {"time": 2049, "pitch": 66, "duration": 2, "velocity": 127}, {"time": 2052, "pitch": 58, "duration": 2, "velocity": 117}, {"time": 2055, "pitch": 61, "duration": 3, "velocity": 127}, {"time": 2058, "pitch": 66, "duration": 3, "velocity": 127}, {"time": 2061, "pitch": 68, "duration": 2, "velocity": 101}, {"time": 2064, "pitch": 61, "duration": 5, "velocity": 126}, {"time": 2067, "pitch": 54, "duration": 4, "velocity": 80}, {"time": 2067, "pitch": 66, "duration": 3, "velocity": 127}, {"time": 2070, "pitch": 68, "duration": 2, "velocity": 126}, {"time": 2073, "pitch": 73, "duration": 3, "velocity": 97}, {"time": 2076, "pitch": 61, "duration": 4, "velocity": 114}, {"time": 2079, "pitch": 65, "duration": 3, "velocity": 103}, {"time": 2082, "pitch": 66, "duration": 3, "velocity": 109}, {"time": 2085, "pitch": 68, "duration": 3, "velocity": 97}, {"time": 2088, "pitch": 61, "duration": 3, "velocity": 97}, {"time": 2091, "pitch": 73, "duration": 3, "velocity": 97}, {"time": 2094, "pitch": 66, "duration": 3, "velocity": 114}, {"time": 2097, "pitch": 63, "duration": 3, "velocity": 92}, {"time": 2100, "pitch": 66, "duration": 3, "velocity": 89}, {"time": 2103, "pitch": 71, "duration": 3, "velocity": 91}, {"time": 2106, "pitch": 59, "duration": 3, "velocity": 96}, {"time": 2109, "pitch": 63, "duration": 3, "velocity": 107}, {"time": 2112, "pitch": 66, "duration": 3, "velocity": 94}, {"time": 2115, "pitch": 71, "duration": 3, "velocity": 86}, {"time": 2118, "pitch": 59, "duration": 3, "velocity": 91}, {"time": 2121, "pitch": 61, "duration": 3, "velocity": 104}, {"time": 2124, "pitch": 66, "duration": 3, "velocity": 91}, {"time": 2127, "pitch": 73, "duration": 3, "velocity": 102}, {"time": 2130, "pitch": 61, "duration": 3, "velocity": 92}, {"time": 2133, "pitch": 66, "duration": 3, "velocity": 114}, {"time": 2136, "pitch": 61, "duration": 3, "velocity": 108}, {"time": 2139, "pitch": 73, "duration": 3, "velocity": 97}, {"time": 2142, "pitch": 66, "duration": 3, "velocity": 97}, {"time": 2145, "pitch": 66, "duration": 2, "velocity": 127}, {"time": 2148, "pitch": 58, "duration": 2, "velocity": 117}, {"time": 2151, "pitch": 61, "duration": 3, "velocity": 127}, {"time": 2154, "pitch": 66, "duration": 3, "velocity": 127}, {"time": 2157, "pitch": 68, "duration": 2, "velocity": 101}, {"time": 2160, "pitch": 61, "duration": 5, "velocity": 126}, {"time": 2163, "pitch": 54, "duration": 4, "velocity": 80}, {"time": 2163, "pitch": 66, "duration": 3, "velocity": 127}, {"time": 2166, "pitch": 68, "duration": 2, "velocity": 126}, {"time": 2169, "pitch": 73, "duration": 3, "velocity": 97}, {"time": 2172, "pitch": 61, "duration": 4, "velocity": 114}, {"time": 2175, "pitch": 65, "duration": 3, "velocity": 103}, {"time": 2178, "pitch": 66, "duration": 3, "velocity": 109}, {"time": 2181, "pitch": 68, "duration": 3, "velocity": 97}, {"time": 2184, "pitch": 61, "duration": 3, "velocity": 97}, {"time": 2187, "pitch": 73, "duration": 3, "velocity": 97}, {"time": 2190, "pitch": 66, "duration": 3, "velocity": 114}, {"time": 2193, "pitch": 66, "duration": 3, "velocity": 98}, {"time": 2196, "pitch": 54, "duration": 3, "velocity": 96}, {"time": 2199, "pitch": 61, "duration": 3, "velocity": 110}, {"time": 2202, "pitch": 66, "duration": 4, "velocity": 88}, {"time": 2205, "pitch": 73, "duration": 3, "velocity": 97}, {"time": 2208, "pitch": 66, "duration": 3, "velocity": 97}, {"time": 2211, "pitch": 54, "duration": 3, "velocity": 97}, {"time": 2214, "pitch": 61, "duration": 3, "velocity": 97}, {"time": 2217, "pitch": 66, "duration": 3, "velocity": 97}, {"time": 2220, "pitch": 54, "duration": 3, "velocity": 97}, {"time": 2223, "pitch": 61, "duration": 3, "velocity": 97}, {"time": 2226, "pitch": 66, "duration": 3, "velocity": 97}, {"time": 2229, "pitch": 73, "duration": 3, "velocity": 97}, {"time": 2232, "pitch": 61, "duration": 3, "velocity": 97}, {"time": 2235, "pitch": 66, "duration": 3, "velocity": 97}, {"time": 2238, "pitch": 73, "duration": 3, "velocity": 97}, {"time": 2241, "pitch": 73, "duration": 3, "velocity": 97}, {"time": 2244, "pitch": 64, "duration": 3, "velocity": 97}, {"time": 2247, "pitch": 69, "duration": 3, "velocity": 97}, {"time": 2250, "pitch": 73, "duration": 3, "velocity": 97}, {"time": 2253, "pitch": 69, "duration": 3, "velocity": 97}, {"time": 2256, "pitch": 64, "duration": 3, "velocity": 97}, {"time": 2259, "pitch": 69, "duration": 3, "velocity": 97}, {"time": 2262, "pitch": 73, "duration": 3, "velocity": 97}, {"time": 2265, "pitch": 40, "duration": 20, "velocity": 94}, {"time": 2265, "pitch": 71, "duration": 3, "velocity": 97}, {"time": 2268, "pitch": 64, "duration": 3, "velocity": 97}, {"time": 2271, "pitch": 68, "duration": 3, "velocity": 97}, {"time": 2274, "pitch": 71, "duration": 3, "velocity": 97}, {"time": 2277, "pitch": 76, "duration": 3, "velocity": 97}, {"time": 2280, "pitch": 68, "duration": 3, "velocity": 97}, {"time": 2283, "pitch": 71, "duration": 3, "velocity": 97}, {"time": 2286, "pitch": 76, "duration": 3, "velocity": 97}]}, {"program": 0, "is_drum": false, "name": "PIANO", "notes": [{"time": 9, "pitch": 42, "duration": 19, "velocity": 70}, {"time": 9, "pitch": 54, "duration": 19, "velocity": 76}, {"time": 9, "pitch": 58, "duration": 19, "velocity": 77}, {"time": 9, "pitch": 61, "duration": 20, "velocity": 88}, {"time": 9, "pitch": 66, "duration": 18, "velocity": 79}, {"time": 33, "pitch": 49, "duration": 21, "velocity": 81}, {"time": 33, "pitch": 61, "duration": 22, "velocity": 83}, {"time": 33, "pitch": 65, "duration": 20, "velocity": 76}, {"time": 33, "pitch": 68, "duration": 20, "velocity": 87}, {"time": 57, "pitch": 47, "duration": 43, "velocity": 82}, {"time": 57, "pitch": 59, "duration": 42, "velocity": 74}, {"time": 57, "pitch": 63, "duration": 43, "velocity": 79}, {"time": 57, "pitch": 66, "duration": 42, "velocity": 77}, {"time": 105, "pitch": 51, "duration": 22, "velocity": 88}, {"time": 105, "pitch": 58, "duration": 18, "velocity": 88}, {"time": 105, "pitch": 63, "duration": 19, "velocity": 88}, {"time": 105, "pitch": 66, "duration": 19, "velocity": 88}, {"time": 129, "pitch": 46, "duration": 19, "velocity": 82}, {"time": 129, "pitch": 58, "duration": 17, "velocity": 84}, {"time": 129, "pitch": 61, "duration": 18, "velocity": 88}, {"time": 129, "pitch": 65, "duration": 18, "velocity": 82}, {"time": 153, "pitch": 49, "duration": 18, "velocity": 88}, {"time": 153, "pitch": 56, "duration": 18, "velocity": 88}, {"time": 153, "pitch": 61, "duration": 19, "velocity": 93}, {"time": 153, "pitch": 64, "duration": 19, "velocity": 91}, {"time": 177, "pitch": 47, "duration": 21, "velocity": 81}, {"time": 177, "pitch": 54, "duration": 21, "velocity": 79}, {"time": 177, "pitch": 59, "duration": 20, "velocity": 78}, {"time": 177, "pitch": 63, "duration": 21, "velocity": 81}, {"time": 201, "pitch": 42, "duration": 44, "velocity": 78}, {"time": 201, "pitch": 54, "duration": 44, "velocity": 79}, {"time": 201, "pitch": 58, "duration": 8, "velocity": 82}, {"time": 201, "pitch": 61, "duration": 9, "velocity": 84}, {"time": 201, "pitch": 66, "duration": 8, "velocity": 86}, {"time": 213, "pitch": 59, "duration": 9, "velocity": 86}, {"time": 213, "pitch": 66, "duration": 9, "velocity": 86}, {"time": 225, "pitch": 58, "duration": 22, "velocity": 83}, {"time": 225, "pitch": 66, "duration": 22, "velocity": 83}, {"time": 249, "pitch": 42, "duration": 19, "velocity": 84}, {"time": 255, "pitch": 49, "duration": 13, "velocity": 63}, {"time": 261, "pitch": 54, "duration": 12, "velocity": 70}, {"time": 273, "pitch": 49, "duration": 20, "velocity": 77}, {"time": 273, "pitch": 61, "duration": 12, "velocity": 80}, {"time": 273, "pitch": 65, "duration": 11, "velocity": 78}, {"time": 285, "pitch": 73, "duration": 3, "velocity": 107}, {"time": 291, "pitch": 77, "duration": 2, "velocity": 100}, {"time": 294, "pitch": 78, "duration": 4, "velocity": 110}, {"time": 297, "pitch": 51, "duration": 19, "velocity": 76}, {"time": 297, "pitch": 66, "duration": 19, "velocity": 78}, {"time": 297, "pitch": 71, "duration": 19, "velocity": 82}, {"time": 297, "pitch": 75, "duration": 19, "velocity": 78}, {"time": 321, "pitch": 49, "duration": 19, "velocity": 89}, {"time": 324, "pitch": 58, "duration": 16, "velocity": 83}, {"time": 327, "pitch": 61, "duration": 2, "velocity": 87}, {"time": 330, "pitch": 66, "duration": 2, "velocity": 116}, {"time": 333, "pitch": 61, "duration": 10, "velocity": 72}, {"time": 333, "pitch": 68, "duration": 9, "velocity": 96}, {"time": 345, "pitch": 47, "duration": 18, "velocity": 85}, {"time": 345, "pitch": 59, "duration": 12, "velocity": 79}, {"time": 345, "pitch": 63, "duration": 12, "velocity": 82}, {"time": 345, "pitch": 66, "duration": 12, "velocity": 83}, {"time": 357, "pitch": 54, "duration": 6, "velocity": 78}, {"time": 360, "pitch": 59, "duration": 2, "velocity": 83}, {"time": 363, "pitch": 63, "duration": 2, "velocity": 91}, {"time": 366, "pitch": 66, "duration": 3, "velocity": 87}, {"time": 369, "pitch": 46, "duration": 11, "velocity": 78}, {"time": 369, "pitch": 58, "duration": 7, "velocity": 83}, {"time": 369, "pitch": 61, "duration": 7, "velocity": 64}, {"time": 369, "pitch": 65, "duration": 10, "velocity": 78}, {"time": 381, "pitch": 51, "duration": 7, "velocity": 82}, {"time": 381, "pitch": 58, "duration": 7, "velocity": 80}, {"time": 381, "pitch": 63, "duration": 6, "velocity": 82}, {"time": 381, "pitch": 66, "duration": 8, "velocity": 82}, {"time": 393, "pitch": 44, "duration": 18, "velocity": 81}, {"time": 393, "pitch": 56, "duration": 8, "velocity": 79}, {"time": 393, "pitch": 59, "duration": 12, "velocity": 81}, {"time": 393, "pitch": 63, "duration": 12, "velocity": 82}, {"time": 405, "pitch": 51, "duration": 6, "velocity": 77}, {"time": 411, "pitch": 63, "duration": 5, "velocity": 86}, {"time": 417, "pitch": 49, "duration": 17, "velocity": 78}, {"time": 417, "pitch": 65, "duration": 6, "velocity": 82}, {"time": 426, "pitch": 56, "duration": 8, "velocity": 69}, {"time": 429, "pitch": 61, "duration": 5, "velocity": 92}, {"time": 435, "pitch": 68, "duration": 4, "velocity": 104}, {"time": 441, "pitch": 42, "duration": 17, "velocity": 77}, {"time": 441, "pitch": 58, "duration": 12, "velocity": 87}, {"time": 441, "pitch": 66, "duration": 6, "velocity": 87}, {"time": 450, "pitch": 49, "duration": 8, "velocity": 62}, {"time": 453, "pitch": 54, "duration": 7, "velocity": 80}, {"time": 456, "pitch": 58, "duration": 3, "velocity": 83}, {"time": 459, "pitch": 61, "duration": 2, "velocity": 83}, {"time": 462, "pitch": 66, "duration": 3, "velocity": 88}, {"time": 465, "pitch": 49, "duration": 18, "velocity": 85}, {"time": 465, "pitch": 61, "duration": 9, "velocity": 88}, {"time": 465, "pitch": 65, "duration": 6, "velocity": 84}, {"time": 474, "pitch": 56, "duration": 9, "velocity": 77}, {"time": 477, "pitch": 61, "duration": 5, "velocity": 89}, {"time": 483, "pitch": 65, "duration": 4, "velocity": 91}, {"time": 489, "pitch": 47, "duration": 19, "velocity": 98}, {"time": 495, "pitch": 54, "duration": 13, "velocity": 74}, {"time": 501, "pitch": 59, "duration": 12, "velocity": 87}, {"time": 501, "pitch": 66, "duration": 13, "velocity": 89}, {"time": 513, "pitch": 42, "duration": 18, "velocity": 87}, {"time": 519, "pitch": 49, "duration": 12, "velocity": 67}, {"time": 522, "pitch": 54, "duration": 13, "velocity": 77}, {"time": 525, "pitch": 56, "duration": 3, "velocity": 104}, {"time": 525, "pitch": 61, "duration": 3, "velocity": 110}, {"time": 528, "pitch": 58, "duration": 3, "velocity": 87}, {"time": 531, "pitch": 61, "duration": 2, "velocity": 87}, {"time": 537, "pitch": 47, "duration": 19, "velocity": 86}, {"time": 537, "pitch": 59, "duration": 5, "velocity": 89}, {"time": 537, "pitch": 66, "duration": 6, "velocity": 91}, {"time": 546, "pitch": 54, "duration": 10, "velocity": 77}, {"time": 549, "pitch": 63, "duration": 4, "velocity": 96}, {"time": 552, "pitch": 66, "duration": 3, "velocity": 86}, {"time": 555, "pitch": 71, "duration": 4, "velocity": 86}, {"time": 561, "pitch": 46, "duration": 10, "velocity": 81}, {"time": 561, "pitch": 61, "duration": 8, "velocity": 83}, {"time": 561, "pitch": 68, "duration": 11, "velocity": 88}, {"time": 573, "pitch": 51, "duration": 10, "velocity": 87}, {"time": 573, "pitch": 63, "duration": 10, "velocity": 90}, {"time": 573, "pitch": 70, "duration": 2, "velocity": 89}, {"time": 585, "pitch": 44, "duration": 18, "velocity": 86}, {"time": 585, "pitch": 59, "duration": 6, "velocity": 90}, {"time": 585, "pitch": 68, "duration": 2, "velocity": 91}, {"time": 588, "pitch": 51, "duration": 16, "velocity": 77}, {"time": 591, "pitch": 56, "duration": 7, "velocity": 81}, {"time": 597, "pitch": 59, "duration": 7, "velocity": 90}, {"time": 597, "pitch": 63, "duration": 7, "velocity": 91}, {"time": 603, "pitch": 56, "duration": 5, "velocity": 77}, {"time": 609, "pitch": 49, "duration": 21, "velocity": 87}, {"time": 609, "pitch": 61, "duration": 3, "velocity": 88}, {"time": 609, "pitch": 65, "duration": 3, "velocity": 90}, {"time": 612, "pitch": 56, "duration": 19, "velocity": 83}, {"time": 615, "pitch": 61, "duration": 7, "velocity": 87}, {"time": 618, "pitch": 65, "duration": 1, "velocity": 87}, {"time": 621, "pitch": 66, "duration": 4, "velocity": 89}, {"time": 624, "pitch": 61, "duration": 3, "velocity": 87}, {"time": 627, "pitch": 66, "duration": 2, "velocity": 114}, {"time": 630, "pitch": 68, "duration": 8, "velocity": 91}, {"time": 633, "pitch": 49, "duration": 14, "velocity": 86}, {"time": 633, "pitch": 61, "duration": 3, "velocity": 91}, {"time": 633, "pitch": 65, "duration": 4, "velocity": 100}, {"time": 639, "pitch": 56, "duration": 10, "velocity": 74}, {"time": 642, "pitch": 61, "duration": 4, "velocity": 88}, {"time": 645, "pitch": 65, "duration": 5, "velocity": 113}, {"time": 645, "pitch": 73, "duration": 7, "velocity": 107}, {"time": 651, "pitch": 49, "duration": 1, "velocity": 87}, {"time": 651, "pitch": 68, "duration": 1, "velocity": 86}, {"time": 657, "pitch": 42, "duration": 36, "velocity": 88}, {"time": 657, "pitch": 58, "duration": 8, "velocity": 102}, {"time": 657, "pitch": 66, "duration": 7, "velocity": 102}, {"time": 663, "pitch": 49, "duration": 30, "velocity": 66}, {"time": 666, "pitch": 54, "duration": 5, "velocity": 81}, {"time": 669, "pitch": 58, "duration": 9, "velocity": 110}, {"time": 669, "pitch": 66, "duration": 9, "velocity": 102}, {"time": 678, "pitch": 54, "duration": 7, "velocity": 82}, {"time": 681, "pitch": 58, "duration": 8, "velocity": 86}, {"time": 681, "pitch": 61, "duration": 8, "velocity": 93}, {"time": 684, "pitch": 66, "duration": 5, "velocity": 85}, {"time": 690, "pitch": 54, "duration": 9, "velocity": 86}, {"time": 693, "pitch": 58, "duration": 6, "velocity": 107}, {"time": 693, "pitch": 66, "duration": 5, "velocity": 94}, {"time": 699, "pitch": 53, "duration": 6, "velocity": 90}, {"time": 699, "pitch": 65, "duration": 5, "velocity": 95}, {"time": 705, "pitch": 51, "duration": 42, "velocity": 88}, {"time": 705, "pitch": 63, "duration": 6, "velocity": 96}, {"time": 705, "pitch": 66, "duration": 9, "velocity": 91}, {"time": 714, "pitch": 58, "duration": 7, "velocity": 87}, {"time": 717, "pitch": 61, "duration": 7, "velocity": 94}, {"time": 717, "pitch": 66, "duration": 7, "velocity": 107}, {"time": 723, "pitch": 58, "duration": 11, "velocity": 76}, {"time": 726, "pitch": 61, "duration": 1, "velocity": 91}, {"time": 726, "pitch": 66, "duration": 1, "velocity": 92}, {"time": 732, "pitch": 63, "duration": 6, "velocity": 102}, {"time": 732, "pitch": 66, "duration": 6, "velocity": 102}, {"time": 738, "pitch": 58, "duration": 9, "velocity": 88}, {"time": 741, "pitch": 61, "duration": 6, "velocity": 107}, {"time": 741, "pitch": 66, "duration": 3, "velocity": 107}, {"time": 744, "pitch": 63, "duration": 3, "velocity": 83}, {"time": 747, "pitch": 66, "duration": 3, "velocity": 76}, {"time": 753, "pitch": 47, "duration": 20, "velocity": 93}, {"time": 753, "pitch": 59, "duration": 5, "velocity": 92}, {"time": 753, "pitch": 63, "duration": 7, "velocity": 104}, {"time": 753, "pitch": 66, "duration": 7, "velocity": 102}, {"time": 762, "pitch": 54, "duration": 6, "velocity": 80}, {"time": 765, "pitch": 59, "duration": 6, "velocity": 107}, {"time": 765, "pitch": 63, "duration": 9, "velocity": 114}, {"time": 765, "pitch": 66, "duration": 9, "velocity": 116}, {"time": 771, "pitch": 54, "duration": 3, "velocity": 77}, {"time": 777, "pitch": 46, "duration": 9, "velocity": 94}, {"time": 783, "pitch": 53, "duration": 4, "velocity": 69}, {"time": 789, "pitch": 51, "duration": 12, "velocity": 94}, {"time": 795, "pitch": 63, "duration": 5, "velocity": 104}, {"time": 801, "pitch": 44, "duration": 18, "velocity": 89}, {"time": 801, "pitch": 59, "duration": 8, "velocity": 88}, {"time": 801, "pitch": 63, "duration": 9, "velocity": 92}, {"time": 801, "pitch": 68, "duration": 8, "velocity": 104}, {"time": 807, "pitch": 51, "duration": 12, "velocity": 77}, {"time": 810, "pitch": 56, "duration": 3, "velocity": 88}, {"time": 813, "pitch": 59, "duration": 9, "velocity": 100}, {"time": 813, "pitch": 68, "duration": 10, "velocity": 107}, {"time": 819, "pitch": 56, "duration": 5, "velocity": 83}, {"time": 822, "pitch": 63, "duration": 2, "velocity": 86}, {"time": 825, "pitch": 49, "duration": 18, "velocity": 88}, {"time": 825, "pitch": 61, "duration": 4, "velocity": 88}, {"time": 825, "pitch": 65, "duration": 4, "velocity": 90}, {"time": 825, "pitch": 68, "duration": 4, "velocity": 88}, {"time": 828, "pitch": 56, "duration": 6, "velocity": 84}, {"time": 831, "pitch": 61, "duration": 1, "velocity": 84}, {"time": 834, "pitch": 61, "duration": 4, "velocity": 107}, {"time": 834, "pitch": 66, "duration": 4, "velocity": 117}, {"time": 837, "pitch": 56, "duration": 5, "velocity": 98}, {"time": 840, "pitch": 61, "duration": 3, "velocity": 96}, {"time": 840, "pitch": 65, "duration": 1, "velocity": 103}, {"time": 843, "pitch": 65, "duration": 2, "velocity": 109}, {"time": 849, "pitch": 42, "duration": 38, "velocity": 87}, {"time": 849, "pitch": 58, "duration": 5, "velocity": 107}, {"time": 849, "pitch": 66, "duration": 8, "velocity": 98}, {"time": 855, "pitch": 61, "duration": 3, "velocity": 67}, {"time": 858, "pitch": 54, "duration": 6, "velocity": 79}, {"time": 861, "pitch": 58, "duration": 4, "velocity": 102}, {"time": 861, "pitch": 61, "duration": 7, "velocity": 110}, {"time": 861, "pitch": 66, "duration": 6, "velocity": 93}, {"time": 867, "pitch": 54, "duration": 11, "velocity": 75}, {"time": 870, "pitch": 58, "duration": 1, "velocity": 98}, {"time": 870, "pitch": 66, "duration": 1, "velocity": 89}, {"time": 876, "pitch": 61, "duration": 6, "velocity": 110}, {"time": 876, "pitch": 66, "duration": 6, "velocity": 100}, {"time": 882, "pitch": 54, "duration": 8, "velocity": 82}, {"time": 885, "pitch": 58, "duration": 3, "velocity": 110}, {"time": 885, "pitch": 66, "duration": 7, "velocity": 98}, {"time": 888, "pitch": 61, "duration": 6, "velocity": 84}, {"time": 891, "pitch": 53, "duration": 6, "velocity": 93}, {"time": 897, "pitch": 51, "duration": 28, "velocity": 86}, {"time": 897, "pitch": 58, "duration": 8, "velocity": 91}, {"time": 897, "pitch": 63, "duration": 8, "velocity": 100}, {"time": 897, "pitch": 66, "duration": 8, "velocity": 88}, {"time": 909, "pitch": 58, "duration": 7, "velocity": 96}, {"time": 909, "pitch": 63, "duration": 7, "velocity": 104}, {"time": 909, "pitch": 66, "duration": 7, "velocity": 93}, {"time": 918, "pitch": 58, "duration": 1, "velocity": 88}, {"time": 918, "pitch": 63, "duration": 1, "velocity": 94}, {"time": 918, "pitch": 66, "duration": 1, "velocity": 89}, {"time": 924, "pitch": 58, "duration": 6, "velocity": 90}, {"time": 924, "pitch": 63, "duration": 6, "velocity": 102}, {"time": 924, "pitch": 66, "duration": 6, "velocity": 91}, {"time": 930, "pitch": 51, "duration": 6, "velocity": 91}, {"time": 933, "pitch": 58, "duration": 6, "velocity": 107}, {"time": 933, "pitch": 63, "duration": 9, "velocity": 110}, {"time": 933, "pitch": 66, "duration": 8, "velocity": 100}, {"time": 939, "pitch": 49, "duration": 5, "velocity": 90}, {"time": 945, "pitch": 47, "duration": 18, "velocity": 89}, {"time": 945, "pitch": 59, "duration": 4, "velocity": 90}, {"time": 945, "pitch": 63, "duration": 6, "velocity": 96}, {"time": 945, "pitch": 66, "duration": 7, "velocity": 91}, {"time": 954, "pitch": 54, "duration": 5, "velocity": 86}, {"time": 957, "pitch": 63, "duration": 10, "velocity": 110}, {"time": 957, "pitch": 66, "duration": 9, "velocity": 108}, {"time": 963, "pitch": 54, "duration": 5, "velocity": 82}, {"time": 969, "pitch": 46, "duration": 11, "velocity": 79}, {"time": 969, "pitch": 61, "duration": 11, "velocity": 89}, {"time": 969, "pitch": 65, "duration": 6, "velocity": 100}, {"time": 969, "pitch": 68, "duration": 8, "velocity": 94}, {"time": 981, "pitch": 51, "duration": 10, "velocity": 88}, {"time": 981, "pitch": 58, "duration": 6, "velocity": 98}, {"time": 981, "pitch": 63, "duration": 10, "velocity": 100}, {"time": 981, "pitch": 66, "duration": 8, "velocity": 91}, {"time": 993, "pitch": 44, "duration": 17, "velocity": 86}, {"time": 993, "pitch": 59, "duration": 8, "velocity": 89}, {"time": 993, "pitch": 63, "duration": 9, "velocity": 91}, {"time": 993, "pitch": 68, "duration": 9, "velocity": 93}, {"time": 1002, "pitch": 56, "duration": 4, "velocity": 84}, {"time": 1005, "pitch": 59, "duration": 6, "velocity": 104}, {"time": 1005, "pitch": 63, "duration": 10, "velocity": 110}, {"time": 1005, "pitch": 68, "duration": 9, "velocity": 96}, {"time": 1011, "pitch": 56, "duration": 6, "velocity": 84}, {"time": 1017, "pitch": 49, "duration": 17, "velocity": 83}, {"time": 1017, "pitch": 61, "duration": 8, "velocity": 89}, {"time": 1017, "pitch": 65, "duration": 9, "velocity": 97}, {"time": 1017, "pitch": 68, "duration": 8, "velocity": 91}, {"time": 1026, "pitch": 56, "duration": 8, "velocity": 86}, {"time": 1029, "pitch": 61, "duration": 6, "velocity": 104}, {"time": 1035, "pitch": 66, "duration": 5, "velocity": 107}, {"time": 1041, "pitch": 42, "duration": 42, "velocity": 84}, {"time": 1041, "pitch": 58, "duration": 7, "velocity": 86}, {"time": 1041, "pitch": 61, "duration": 6, "velocity": 93}, {"time": 1041, "pitch": 66, "duration": 9, "velocity": 86}, {"time": 1047, "pitch": 49, "duration": 37, "velocity": 74}, {"time": 1050, "pitch": 54, "duration": 16, "velocity": 86}, {"time": 1056, "pitch": 59, "duration": 8, "velocity": 91}, {"time": 1065, "pitch": 58, "duration": 9, "velocity": 83}, {"time": 1065, "pitch": 61, "duration": 9, "velocity": 83}, {"time": 1065, "pitch": 66, "duration": 9, "velocity": 79}, {"time": 1074, "pitch": 54, "duration": 10, "velocity": 83}, {"time": 1077, "pitch": 58, "duration": 3, "velocity": 98}, {"time": 1080, "pitch": 59, "duration": 2, "velocity": 88}, {"time": 1083, "pitch": 61, "duration": 2, "velocity": 89}, {"time": 1089, "pitch": 49, "duration": 7, "velocity": 104}, {"time": 1089, "pitch": 56, "duration": 5, "velocity": 88}, {"time": 1089, "pitch": 61, "duration": 6, "velocity": 90}, {"time": 1089, "pitch": 64, "duration": 6, "velocity": 87}, {"time": 1098, "pitch": 47, "duration": 9, "velocity": 90}, {"time": 1098, "pitch": 54, "duration": 4, "velocity": 87}, {"time": 1098, "pitch": 59, "duration": 8, "velocity": 83}, {"time": 1098, "pitch": 63, "duration": 8, "velocity": 87}, {"time": 1110, "pitch": 45, "duration": 11, "velocity": 86}, {"time": 1110, "pitch": 58, "duration": 11, "velocity": 86}, {"time": 1110, "pitch": 61, "duration": 11, "velocity": 92}, {"time": 1110, "pitch": 64, "duration": 12, "velocity": 88}, {"time": 1137, "pitch": 54, "duration": 6, "velocity": 90}, {"time": 1137, "pitch": 61, "duration": 5, "velocity": 94}, {"time": 1137, "pitch": 66, "duration": 4, "velocity": 114}, {"time": 1137, "pitch": 69, "duration": 4, "velocity": 109}, {"time": 1146, "pitch": 52, "duration": 4, "velocity": 107}, {"time": 1146, "pitch": 59, "duration": 4, "velocity": 100}, {"time": 1146, "pitch": 64, "duration": 3, "velocity": 113}, {"time": 1146, "pitch": 68, "duration": 3, "velocity": 104}, {"time": 1158, "pitch": 51, "duration": 19, "velocity": 100}, {"time": 1158, "pitch": 57, "duration": 20, "velocity": 106}, {"time": 1158, "pitch": 63, "duration": 20, "velocity": 104}, {"time": 1158, "pitch": 66, "duration": 19, "velocity": 104}, {"time": 1185, "pitch": 49, "duration": 19, "velocity": 88}, {"time": 1188, "pitch": 56, "duration": 16, "velocity": 84}, {"time": 1191, "pitch": 61, "duration": 6, "velocity": 91}, {"time": 1194, "pitch": 65, "duration": 2, "velocity": 95}, {"time": 1197, "pitch": 73, "duration": 4, "velocity": 102}, {"time": 1200, "pitch": 61, "duration": 3, "velocity": 96}, {"time": 1203, "pitch": 65, "duration": 3, "velocity": 90}, {"time": 1206, "pitch": 68, "duration": 3, "velocity": 87}, {"time": 1209, "pitch": 46, "duration": 17, "velocity": 91}, {"time": 1212, "pitch": 53, "duration": 16, "velocity": 85}, {"time": 1215, "pitch": 58, "duration": 4, "velocity": 94}, {"time": 1218, "pitch": 61, "duration": 7, "velocity": 108}, {"time": 1221, "pitch": 58, "duration": 11, "velocity": 104}, {"time": 1224, "pitch": 65, "duration": 5, "velocity": 119}, {"time": 1224, "pitch": 67, "duration": 1, "velocity": 88}, {"time": 1227, "pitch": 68, "duration": 5, "velocity": 91}, {"time": 1230, "pitch": 61, "duration": 1, "velocity": 86}, {"time": 1233, "pitch": 51, "duration": 18, "velocity": 89}, {"time": 1233, "pitch": 63, "duration": 8, "velocity": 96}, {"time": 1233, "pitch": 66, "duration": 8, "velocity": 98}, {"time": 1233, "pitch": 70, "duration": 7, "velocity": 94}, {"time": 1242, "pitch": 58, "duration": 8, "velocity": 87}, {"time": 1245, "pitch": 63, "duration": 3, "velocity": 114}, {"time": 1248, "pitch": 66, "duration": 3, "velocity": 114}, {"time": 1251, "pitch": 70, "duration": 4, "velocity": 104}, {"time": 1257, "pitch": 47, "duration": 45, "velocity": 98}, {"time": 1257, "pitch": 61, "duration": 1, "velocity": 86}, {"time": 1257, "pitch": 66, "duration": 1, "velocity": 87}, {"time": 1260, "pitch": 54, "duration": 41, "velocity": 84}, {"time": 1263, "pitch": 59, "duration": 7, "velocity": 84}, {"time": 1266, "pitch": 61, "duration": 12, "velocity": 86}, {"time": 1266, "pitch": 66, "duration": 11, "velocity": 87}, {"time": 1272, "pitch": 59, "duration": 13, "velocity": 70}, {"time": 1278, "pitch": 63, "duration": 1, "velocity": 42}, {"time": 1281, "pitch": 63, "duration": 1, "velocity": 87}, {"time": 1281, "pitch": 66, "duration": 13, "velocity": 92}, {"time": 1293, "pitch": 59, "duration": 8, "velocity": 82}, {"time": 1296, "pitch": 61, "duration": 1, "velocity": 92}, {"time": 1299, "pitch": 66, "duration": 5, "velocity": 114}, {"time": 1305, "pitch": 42, "duration": 19, "velocity": 84}, {"time": 1311, "pitch": 49, "duration": 13, "velocity": 63}, {"time": 1317, "pitch": 54, "duration": 12, "velocity": 70}, {"time": 1329, "pitch": 49, "duration": 20, "velocity": 77}, {"time": 1329, "pitch": 61, "duration": 12, "velocity": 80}, {"time": 1329, "pitch": 65, "duration": 11, "velocity": 78}, {"time": 1353, "pitch": 51, "duration": 19, "velocity": 76}, {"time": 1353, "pitch": 66, "duration": 19, "velocity": 78}, {"time": 1353, "pitch": 71, "duration": 19, "velocity": 82}, {"time": 1353, "pitch": 75, "duration": 19, "velocity": 78}, {"time": 1377, "pitch": 49, "duration": 19, "velocity": 89}, {"time": 1380, "pitch": 58, "duration": 16, "velocity": 83}, {"time": 1383, "pitch": 61, "duration": 2, "velocity": 87}, {"time": 1386, "pitch": 66, "duration": 2, "velocity": 116}, {"time": 1389, "pitch": 61, "duration": 10, "velocity": 72}, {"time": 1389, "pitch": 68, "duration": 9, "velocity": 96}, {"time": 1401, "pitch": 47, "duration": 18, "velocity": 85}, {"time": 1401, "pitch": 59, "duration": 12, "velocity": 79}, {"time": 1401, "pitch": 63, "duration": 12, "velocity": 82}, {"time": 1401, "pitch": 66, "duration": 12, "velocity": 83}, {"time": 1413, "pitch": 54, "duration": 6, "velocity": 78}, {"time": 1416, "pitch": 59, "duration": 2, "velocity": 83}, {"time": 1419, "pitch": 63, "duration": 2, "velocity": 91}, {"time": 1422, "pitch": 66, "duration": 3, "velocity": 87}, {"time": 1425, "pitch": 46, "duration": 11, "velocity": 78}, {"time": 1425, "pitch": 58, "duration": 7, "velocity": 83}, {"time": 1425, "pitch": 61, "duration": 7, "velocity": 64}, {"time": 1425, "pitch": 65, "duration": 10, "velocity": 78}, {"time": 1437, "pitch": 51, "duration": 7, "velocity": 82}, {"time": 1437, "pitch": 58, "duration": 7, "velocity": 80}, {"time": 1437, "pitch": 63, "duration": 6, "velocity": 82}, {"time": 1437, "pitch": 66, "duration": 8, "velocity": 82}, {"time": 1449, "pitch": 44, "duration": 18, "velocity": 81}, {"time": 1449, "pitch": 56, "duration": 8, "velocity": 79}, {"time": 1449, "pitch": 59, "duration": 12, "velocity": 81}, {"time": 1449, "pitch": 63, "duration": 12, "velocity": 82}, {"time": 1461, "pitch": 51, "duration": 6, "velocity": 77}, {"time": 1467, "pitch": 63, "duration": 5, "velocity": 86}, {"time": 1473, "pitch": 49, "duration": 17, "velocity": 78}, {"time": 1473, "pitch": 65, "duration": 6, "velocity": 82}, {"time": 1482, "pitch": 56, "duration": 8, "velocity": 69}, {"time": 1485, "pitch": 61, "duration": 5, "velocity": 92}, {"time": 1491, "pitch": 68, "duration": 4, "velocity": 104}, {"time": 1497, "pitch": 42, "duration": 17, "velocity": 77}, {"time": 1497, "pitch": 58, "duration": 12, "velocity": 87}, {"time": 1497, "pitch": 66, "duration": 6, "velocity": 87}, {"time": 1506, "pitch": 49, "duration": 8, "velocity": 62}, {"time": 1509, "pitch": 54, "duration": 7, "velocity": 80}, {"time": 1512, "pitch": 58, "duration": 3, "velocity": 83}, {"time": 1515, "pitch": 61, "duration": 2, "velocity": 83}, {"time": 1518, "pitch": 66, "duration": 3, "velocity": 88}, {"time": 1521, "pitch": 49, "duration": 18, "velocity": 85}, {"time": 1521, "pitch": 61, "duration": 9, "velocity": 88}, {"time": 1521, "pitch": 65, "duration": 6, "velocity": 84}, {"time": 1530, "pitch": 56, "duration": 9, "velocity": 77}, {"time": 1533, "pitch": 61, "duration": 5, "velocity": 89}, {"time": 1539, "pitch": 65, "duration": 4, "velocity": 91}, {"time": 1545, "pitch": 47, "duration": 19, "velocity": 98}, {"time": 1551, "pitch": 54, "duration": 13, "velocity": 74}, {"time": 1557, "pitch": 59, "duration": 12, "velocity": 87}, {"time": 1557, "pitch": 66, "duration": 13, "velocity": 89}, {"time": 1569, "pitch": 42, "duration": 18, "velocity": 87}, {"time": 1575, "pitch": 49, "duration": 12, "velocity": 67}, {"time": 1578, "pitch": 54, "duration": 13, "velocity": 77}, {"time": 1581, "pitch": 56, "duration": 3, "velocity": 104}, {"time": 1581, "pitch": 61, "duration": 3, "velocity": 110}, {"time": 1584, "pitch": 58, "duration": 3, "velocity": 87}, {"time": 1587, "pitch": 61, "duration": 2, "velocity": 87}, {"time": 1593, "pitch": 47, "duration": 19, "velocity": 86}, {"time": 1593, "pitch": 59, "duration": 5, "velocity": 89}, {"time": 1593, "pitch": 66, "duration": 6, "velocity": 91}, {"time": 1602, "pitch": 54, "duration": 10, "velocity": 77}, {"time": 1605, "pitch": 63, "duration": 4, "velocity": 96}, {"time": 1608, "pitch": 66, "duration": 3, "velocity": 86}, {"time": 1611, "pitch": 71, "duration": 4, "velocity": 86}, {"time": 1617, "pitch": 46, "duration": 10, "velocity": 81}, {"time": 1617, "pitch": 61, "duration": 8, "velocity": 83}, {"time": 1617, "pitch": 68, "duration": 11, "velocity": 88}, {"time": 1629, "pitch": 51, "duration": 10, "velocity": 87}, {"time": 1629, "pitch": 63, "duration": 10, "velocity": 90}, {"time": 1629, "pitch": 70, "duration": 2, "velocity": 89}, {"time": 1641, "pitch": 44, "duration": 18, "velocity": 86}, {"time": 1641, "pitch": 59, "duration": 6, "velocity": 90}, {"time": 1641, "pitch": 68, "duration": 2, "velocity": 91}, {"time": 1644, "pitch": 51, "duration": 16, "velocity": 77}, {"time": 1647, "pitch": 56, "duration": 7, "velocity": 81}, {"time": 1653, "pitch": 59, "duration": 7, "velocity": 90}, {"time": 1653, "pitch": 63, "duration": 7, "velocity": 91}, {"time": 1659, "pitch": 56, "duration": 5, "velocity": 77}, {"time": 1665, "pitch": 49, "duration": 21, "velocity": 87}, {"time": 1665, "pitch": 61, "duration": 3, "velocity": 88}, {"time": 1665, "pitch": 65, "duration": 3, "velocity": 90}, {"time": 1668, "pitch": 56, "duration": 19, "velocity": 83}, {"time": 1671, "pitch": 61, "duration": 7, "velocity": 87}, {"time": 1674, "pitch": 65, "duration": 1, "velocity": 87}, {"time": 1677, "pitch": 66, "duration": 4, "velocity": 89}, {"time": 1680, "pitch": 61, "duration": 3, "velocity": 87}, {"time": 1683, "pitch": 66, "duration": 2, "velocity": 114}, {"time": 1686, "pitch": 68, "duration": 8, "velocity": 91}, {"time": 1689, "pitch": 42, "duration": 36, "velocity": 88}, {"time": 1689, "pitch": 58, "duration": 8, "velocity": 102}, {"time": 1689, "pitch": 66, "duration": 7, "velocity": 102}, {"time": 1695, "pitch": 49, "duration": 30, "velocity": 66}, {"time": 1698, "pitch": 54, "duration": 5, "velocity": 81}, {"time": 1701, "pitch": 58, "duration": 9, "velocity": 110}, {"time": 1701, "pitch": 66, "duration": 9, "velocity": 102}, {"time": 1710, "pitch": 54, "duration": 7, "velocity": 82}, {"time": 1713, "pitch": 58, "duration": 8, "velocity": 86}, {"time": 1713, "pitch": 61, "duration": 8, "velocity": 93}, {"time": 1716, "pitch": 66, "duration": 5, "velocity": 85}, {"time": 1722, "pitch": 54, "duration": 9, "velocity": 86}, {"time": 1725, "pitch": 58, "duration": 6, "velocity": 107}, {"time": 1725, "pitch": 66, "duration": 5, "velocity": 94}, {"time": 1731, "pitch": 53, "duration": 6, "velocity": 90}, {"time": 1731, "pitch": 65, "duration": 5, "velocity": 95}, {"time": 1737, "pitch": 51, "duration": 42, "velocity": 88}, {"time": 1737, "pitch": 63, "duration": 6, "velocity": 96}, {"time": 1737, "pitch": 66, "duration": 9, "velocity": 91}, {"time": 1746, "pitch": 58, "duration": 7, "velocity": 87}, {"time": 1749, "pitch": 61, "duration": 7, "velocity": 94}, {"time": 1749, "pitch": 66, "duration": 7, "velocity": 107}, {"time": 1755, "pitch": 58, "duration": 11, "velocity": 76}, {"time": 1758, "pitch": 61, "duration": 1, "velocity": 91}, {"time": 1758, "pitch": 66, "duration": 1, "velocity": 92}, {"time": 1764, "pitch": 63, "duration": 6, "velocity": 102}, {"time": 1764, "pitch": 66, "duration": 6, "velocity": 102}, {"time": 1770, "pitch": 58, "duration": 9, "velocity": 88}, {"time": 1773, "pitch": 61, "duration": 6, "velocity": 107}, {"time": 1773, "pitch": 66, "duration": 3, "velocity": 107}, {"time": 1776, "pitch": 63, "duration": 3, "velocity": 83}, {"time": 1779, "pitch": 66, "duration": 3, "velocity": 76}, {"time": 1785, "pitch": 47, "duration": 20, "velocity": 93}, {"time": 1785, "pitch": 59, "duration": 5, "velocity": 92}, {"time": 1785, "pitch": 63, "duration": 7, "velocity": 104}, {"time": 1785, "pitch": 66, "duration": 7, "velocity": 102}, {"time": 1794, "pitch": 54, "duration": 6, "velocity": 80}, {"time": 1797, "pitch": 59, "duration": 6, "velocity": 107}, {"time": 1797, "pitch": 63, "duration": 9, "velocity": 114}, {"time": 1797, "pitch": 66, "duration": 9, "velocity": 116}, {"time": 1803, "pitch": 54, "duration": 3, "velocity": 77}, {"time": 1809, "pitch": 46, "duration": 9, "velocity": 94}, {"time": 1815, "pitch": 53, "duration": 4, "velocity": 69}, {"time": 1821, "pitch": 51, "duration": 12, "velocity": 94}, {"time": 1827, "pitch": 63, "duration": 5, "velocity": 104}, {"time": 1833, "pitch": 44, "duration": 18, "velocity": 89}, {"time": 1833, "pitch": 59, "duration": 8, "velocity": 88}, {"time": 1833, "pitch": 63, "duration": 9, "velocity": 92}, {"time": 1833, "pitch": 68, "duration": 8, "velocity": 104}, {"time": 1839, "pitch": 51, "duration": 12, "velocity": 77}, {"time": 1842, "pitch": 56, "duration": 3, "velocity": 88}, {"time": 1845, "pitch": 59, "duration": 9, "velocity": 100}, {"time": 1845, "pitch": 68, "duration": 10, "velocity": 107}, {"time": 1851, "pitch": 56, "duration": 5, "velocity": 83}, {"time": 1854, "pitch": 63, "duration": 2, "velocity": 86}, {"time": 1857, "pitch": 49, "duration": 18, "velocity": 88}, {"time": 1857, "pitch": 61, "duration": 4, "velocity": 88}, {"time": 1857, "pitch": 65, "duration": 4, "velocity": 90}, {"time": 1857, "pitch": 68, "duration": 4, "velocity": 88}, {"time": 1860, "pitch": 56, "duration": 6, "velocity": 84}, {"time": 1863, "pitch": 61, "duration": 1, "velocity": 84}, {"time": 1866, "pitch": 61, "duration": 4, "velocity": 107}, {"time": 1866, "pitch": 66, "duration": 4, "velocity": 117}, {"time": 1869, "pitch": 56, "duration": 5, "velocity": 98}, {"time": 1872, "pitch": 61, "duration": 3, "velocity": 96}, {"time": 1872, "pitch": 65, "duration": 1, "velocity": 103}, {"time": 1875, "pitch": 65, "duration": 2, "velocity": 109}, {"time": 1881, "pitch": 42, "duration": 38, "velocity": 87}, {"time": 1881, "pitch": 58, "duration": 5, "velocity": 107}, {"time": 1881, "pitch": 66, "duration": 8, "velocity": 98}, {"time": 1887, "pitch": 61, "duration": 3, "velocity": 67}, {"time": 1890, "pitch": 54, "duration": 6, "velocity": 79}, {"time": 1893, "pitch": 58, "duration": 4, "velocity": 102}, {"time": 1893, "pitch": 61, "duration": 7, "velocity": 110}, {"time": 1893, "pitch": 66, "duration": 6, "velocity": 93}, {"time": 1899, "pitch": 54, "duration": 11, "velocity": 75}, {"time": 1902, "pitch": 58, "duration": 1, "velocity": 98}, {"time": 1902, "pitch": 66, "duration": 1, "velocity": 89}, {"time": 1908, "pitch": 61, "duration": 6, "velocity": 110}, {"time": 1908, "pitch": 66, "duration": 6, "velocity": 100}, {"time": 1914, "pitch": 54, "duration": 8, "velocity": 82}, {"time": 1917, "pitch": 58, "duration": 3, "velocity": 110}, {"time": 1917, "pitch": 66, "duration": 7, "velocity": 98}, {"time": 1920, "pitch": 61, "duration": 6, "velocity": 84}, {"time": 1923, "pitch": 53, "duration": 6, "velocity": 93}, {"time": 1929, "pitch": 51, "duration": 28, "velocity": 86}, {"time": 1929, "pitch": 58, "duration": 8, "velocity": 91}, {"time": 1929, "pitch": 63, "duration": 8, "velocity": 100}, {"time": 1929, "pitch": 66, "duration": 8, "velocity": 88}, {"time": 1941, "pitch": 58, "duration": 7, "velocity": 96}, {"time": 1941, "pitch": 63, "duration": 7, "velocity": 104}, {"time": 1941, "pitch": 66, "duration": 7, "velocity": 93}, {"time": 1950, "pitch": 58, "duration": 1, "velocity": 88}, {"time": 1950, "pitch": 63, "duration": 1, "velocity": 94}, {"time": 1950, "pitch": 66, "duration": 1, "velocity": 89}, {"time": 1956, "pitch": 58, "duration": 6, "velocity": 90}, {"time": 1956, "pitch": 63, "duration": 6, "velocity": 102}, {"time": 1956, "pitch": 66, "duration": 6, "velocity": 91}, {"time": 1962, "pitch": 51, "duration": 6, "velocity": 91}, {"time": 1965, "pitch": 58, "duration": 6, "velocity": 107}, {"time": 1965, "pitch": 63, "duration": 9, "velocity": 110}, {"time": 1965, "pitch": 66, "duration": 8, "velocity": 100}, {"time": 1971, "pitch": 49, "duration": 5, "velocity": 90}, {"time": 1977, "pitch": 47, "duration": 18, "velocity": 89}, {"time": 1977, "pitch": 59, "duration": 4, "velocity": 90}, {"time": 1977, "pitch": 63, "duration": 6, "velocity": 96}, {"time": 1977, "pitch": 66, "duration": 7, "velocity": 91}, {"time": 1986, "pitch": 54, "duration": 5, "velocity": 86}, {"time": 1989, "pitch": 63, "duration": 10, "velocity": 110}, {"time": 1989, "pitch": 66, "duration": 9, "velocity": 108}, {"time": 1995, "pitch": 54, "duration": 5, "velocity": 82}, {"time": 2001, "pitch": 46, "duration": 11, "velocity": 79}, {"time": 2001, "pitch": 61, "duration": 11, "velocity": 89}, {"time": 2001, "pitch": 65, "duration": 6, "velocity": 100}, {"time": 2001, "pitch": 68, "duration": 8, "velocity": 94}, {"time": 2013, "pitch": 51, "duration": 10, "velocity": 88}, {"time": 2013, "pitch": 58, "duration": 6, "velocity": 98}, {"time": 2013, "pitch": 63, "duration": 10, "velocity": 100}, {"time": 2013, "pitch": 66, "duration": 8, "velocity": 91}, {"time": 2025, "pitch": 47, "duration": 11, "velocity": 91}, {"time": 2025, "pitch": 59, "duration": 9, "velocity": 96}, {"time": 2025, "pitch": 63, "duration": 10, "velocity": 108}, {"time": 2025, "pitch": 66, "duration": 11, "velocity": 96}, {"time": 2037, "pitch": 49, "duration": 10, "velocity": 88}, {"time": 2037, "pitch": 61, "duration": 8, "velocity": 89}, {"time": 2037, "pitch": 65, "duration": 9, "velocity": 103}, {"time": 2037, "pitch": 68, "duration": 8, "velocity": 93}, {"time": 2046, "pitch": 61, "duration": 1, "velocity": 38}, {"time": 2049, "pitch": 42, "duration": 20, "velocity": 87}, {"time": 2049, "pitch": 58, "duration": 9, "velocity": 88}, {"time": 2049, "pitch": 61, "duration": 9, "velocity": 98}, {"time": 2049, "pitch": 66, "duration": 9, "velocity": 98}, {"time": 2058, "pitch": 54, "duration": 5, "velocity": 82}, {"time": 2061, "pitch": 58, "duration": 8, "velocity": 102}, {"time": 2061, "pitch": 61, "duration": 9, "velocity": 114}, {"time": 2061, "pitch": 66, "duration": 9, "velocity": 104}, {"time": 2067, "pitch": 54, "duration": 4, "velocity": 80}, {"time": 2073, "pitch": 41, "duration": 18, "velocity": 90}, {"time": 2073, "pitch": 56, "duration": 7, "velocity": 100}, {"time": 2073, "pitch": 61, "duration": 7, "velocity": 114}, {"time": 2073, "pitch": 65, "duration": 7, "velocity": 103}, {"time": 2079, "pitch": 53, "duration": 5, "velocity": 83}, {"time": 2082, "pitch": 56, "duration": 6, "velocity": 98}, {"time": 2082, "pitch": 61, "duration": 6, "velocity": 116}, {"time": 2082, "pitch": 65, "duration": 6, "velocity": 109}, {"time": 2088, "pitch": 53, "duration": 4, "velocity": 86}, {"time": 2091, "pitch": 56, "duration": 2, "velocity": 100}, {"time": 2091, "pitch": 61, "duration": 4, "velocity": 114}, {"time": 2091, "pitch": 65, "duration": 4, "velocity": 103}, {"time": 2097, "pitch": 47, "duration": 11, "velocity": 91}, {"time": 2097, "pitch": 59, "duration": 6, "velocity": 91}, {"time": 2097, "pitch": 63, "duration": 6, "velocity": 92}, {"time": 2097, "pitch": 66, "duration": 6, "velocity": 89}, {"time": 2106, "pitch": 59, "duration": 11, "velocity": 96}, {"time": 2106, "pitch": 63, "duration": 14, "velocity": 107}, {"time": 2106, "pitch": 66, "duration": 12, "velocity": 94}, {"time": 2112, "pitch": 47, "duration": 8, "velocity": 86}, {"time": 2121, "pitch": 42, "duration": 21, "velocity": 85}, {"time": 2121, "pitch": 54, "duration": 5, "velocity": 88}, {"time": 2121, "pitch": 58, "duration": 9, "velocity": 92}, {"time": 2121, "pitch": 61, "duration": 9, "velocity": 104}, {"time": 2121, "pitch": 66, "duration": 9, "velocity": 91}, {"time": 2130, "pitch": 54, "duration": 5, "velocity": 88}, {"time": 2133, "pitch": 58, "duration": 8, "velocity": 108}, {"time": 2133, "pitch": 61, "duration": 9, "velocity": 114}, {"time": 2133, "pitch": 66, "duration": 8, "velocity": 102}, {"time": 2139, "pitch": 54, "duration": 4, "velocity": 92}, {"time": 2145, "pitch": 47, "duration": 21, "velocity": 102}, {"time": 2145, "pitch": 63, "duration": 8, "velocity": 102}, {"time": 2145, "pitch": 66, "duration": 8, "velocity": 110}, {"time": 2145, "pitch": 71, "duration": 8, "velocity": 94}, {"time": 2151, "pitch": 54, "duration": 16, "velocity": 66}, {"time": 2154, "pitch": 59, "duration": 3, "velocity": 87}, {"time": 2157, "pitch": 63, "duration": 7, "velocity": 107}, {"time": 2157, "pitch": 66, "duration": 10, "velocity": 114}, {"time": 2157, "pitch": 71, "duration": 9, "velocity": 98}, {"time": 2163, "pitch": 59, "duration": 3, "velocity": 83}, {"time": 2169, "pitch": 49, "duration": 20, "velocity": 96}, {"time": 2169, "pitch": 61, "duration": 8, "velocity": 98}, {"time": 2169, "pitch": 65, "duration": 9, "velocity": 109}, {"time": 2169, "pitch": 68, "duration": 8, "velocity": 100}, {"time": 2178, "pitch": 56, "duration": 4, "velocity": 88}, {"time": 2181, "pitch": 61, "duration": 8, "velocity": 108}, {"time": 2181, "pitch": 65, "duration": 9, "velocity": 119}, {"time": 2181, "pitch": 68, "duration": 9, "velocity": 113}, {"time": 2187, "pitch": 56, "duration": 3, "velocity": 86}, {"time": 2193, "pitch": 42, "duration": 43, "velocity": 93}, {"time": 2193, "pitch": 58, "duration": 8, "velocity": 96}, {"time": 2193, "pitch": 61, "duration": 8, "velocity": 110}, {"time": 2193, "pitch": 66, "duration": 8, "velocity": 98}, {"time": 2199, "pitch": 49, "duration": 37, "velocity": 36}, {"time": 2202, "pitch": 54, "duration": 4, "velocity": 88}, {"time": 2205, "pitch": 58, "duration": 7, "velocity": 104}, {"time": 2205, "pitch": 61, "duration": 7, "velocity": 116}, {"time": 2205, "pitch": 66, "duration": 7, "velocity": 108}, {"time": 2211, "pitch": 54, "duration": 9, "velocity": 80}, {"time": 2214, "pitch": 58, "duration": 1, "velocity": 92}, {"time": 2214, "pitch": 61, "duration": 1, "velocity": 107}, {"time": 2214, "pitch": 66, "duration": 1, "velocity": 96}, {"time": 2220, "pitch": 58, "duration": 6, "velocity": 102}, {"time": 2220, "pitch": 61, "duration": 6, "velocity": 113}, {"time": 2220, "pitch": 66, "duration": 6, "velocity": 107}, {"time": 2226, "pitch": 54, "duration": 3, "velocity": 102}, {"time": 2229, "pitch": 58, "duration": 6, "velocity": 114}, {"time": 2229, "pitch": 61, "duration": 8, "velocity": 119}, {"time": 2229, "pitch": 66, "duration": 8, "velocity": 110}, {"time": 2235, "pitch": 54, "duration": 3, "velocity": 100}, {"time": 2241, "pitch": 45, "duration": 14, "velocity": 104}, {"time": 2241, "pitch": 61, "duration": 8, "velocity": 107}, {"time": 2241, "pitch": 64, "duration": 8, "velocity": 113}, {"time": 2241, "pitch": 69, "duration": 8, "velocity": 102}, {"time": 2244, "pitch": 52, "duration": 10, "velocity": 76}, {"time": 2250, "pitch": 57, "duration": 4, "velocity": 86}, {"time": 2253, "pitch": 61, "duration": 8, "velocity": 108}, {"time": 2253, "pitch": 64, "duration": 9, "velocity": 114}, {"time": 2253, "pitch": 69, "duration": 8, "velocity": 107}, {"time": 2259, "pitch": 45, "duration": 5, "velocity": 87}, {"time": 2265, "pitch": 40, "duration": 20, "velocity": 94}, {"time": 2265, "pitch": 59, "duration": 6, "velocity": 104}, {"time": 2265, "pitch": 64, "duration": 5, "velocity": 110}, {"time": 2265, "pitch": 68, "duration": 5, "velocity": 104}, {"time": 2271, "pitch": 47, "duration": 16, "velocity": 73}, {"time": 2274, "pitch": 52, "duration": 3, "velocity": 85}, {"time": 2277, "pitch": 56, "duration": 4, "velocity": 108}, {"time": 2277, "pitch": 59, "duration": 4, "velocity": 113}, {"time": 2277, "pitch": 64, "duration": 3, "velocity": 100}, {"time": 2280, "pitch": 52, "duration": 6, "velocity": 91}, {"time": 2283, "pitch": 56, "duration": 2, "velocity": 90}, {"time": 2283, "pitch": 59, "duration": 4, "velocity": 98}, {"time": 2283, "pitch": 64, "duration": 2, "velocity": 93}, {"time": 2289, "pitch": 50, "duration": 10, "velocity": 96}, {"time": 2289, "pitch": 57, "duration": 8, "velocity": 100}, {"time": 2289, "pitch": 62, "duration": 9, "velocity": 108}, {"time": 2289, "pitch": 66, "duration": 9, "velocity": 102}, {"time": 2301, "pitch": 49, "duration": 11, "velocity": 93}, {"time": 2301, "pitch": 56, "duration": 8, "velocity": 92}, {"time": 2301, "pitch": 61, "duration": 10, "velocity": 104}, {"time": 2301, "pitch": 64, "duration": 11, "velocity": 100}, {"time": 2313, "pitch": 42, "duration": 19, "velocity": 88}, {"time": 2313, "pitch": 57, "duration": 6, "velocity": 102}, {"time": 2313, "pitch": 61, "duration": 6, "velocity": 108}, {"time": 2313, "pitch": 66, "duration": 5, "velocity": 93}, {"time": 2316, "pitch": 49, "duration": 17, "velocity": 83}, {"time": 2319, "pitch": 54, "duration": 5, "velocity": 85}, {"time": 2322, "pitch": 56, "duration": 7, "velocity": 91}, {"time": 2322, "pitch": 61, "duration": 7, "velocity": 92}, {"time": 2328, "pitch": 54, "duration": 5, "velocity": 88}, {"time": 2331, "pitch": 56, "duration": 3, "velocity": 87}, {"time": 2331, "pitch": 61, "duration": 4, "velocity": 87}, {"time": 2334, "pitch": 57, "duration": 2, "velocity": 86}, {"time": 2337, "pitch": 38, "duration": 45, "velocity": 94}, {"time": 2337, "pitch": 57, "duration": 8, "velocity": 93}, {"time": 2337, "pitch": 62, "duration": 8, "velocity": 91}, {"time": 2346, "pitch": 50, "duration": 6, "velocity": 87}, {"time": 2349, "pitch": 57, "duration": 7, "velocity": 117}, {"time": 2349, "pitch": 62, "duration": 6, "velocity": 110}, {"time": 2355, "pitch": 50, "duration": 10, "velocity": 83}, {"time": 2358, "pitch": 54, "duration": 1, "velocity": 93}, {"time": 2358, "pitch": 62, "duration": 1, "velocity": 88}, {"time": 2364, "pitch": 57, "duration": 6, "velocity": 113}, {"time": 2364, "pitch": 62, "duration": 5, "velocity": 104}, {"time": 2370, "pitch": 50, "duration": 5, "velocity": 90}, {"time": 2373, "pitch": 54, "duration": 7, "velocity": 108}, {"time": 2373, "pitch": 57, "duration": 10, "velocity": 116}, {"time": 2373, "pitch": 62, "duration": 7, "velocity": 110}, {"time": 2379, "pitch": 50, "duration": 4, "velocity": 87}, {"time": 2385, "pitch": 49, "duration": 19, "velocity": 90}, {"time": 2385, "pitch": 56, "duration": 8, "velocity": 90}, {"time": 2385, "pitch": 61, "duration": 9, "velocity": 107}, {"time": 2385, "pitch": 65, "duration": 9, "velocity": 95}, {"time": 2397, "pitch": 56, "duration": 5, "velocity": 92}, {"time": 2397, "pitch": 61, "duration": 6, "velocity": 108}, {"time": 2397, "pitch": 65, "duration": 6, "velocity": 100}, {"time": 2406, "pitch": 50, "duration": 3, "velocity": 93}, {"time": 2406, "pitch": 57, "duration": 6, "velocity": 93}, {"time": 2406, "pitch": 62, "duration": 3, "velocity": 110}, {"time": 2406, "pitch": 66, "duration": 3, "velocity": 104}, {"time": 2409, "pitch": 38, "duration": 12, "velocity": 97}, {"time": 2409, "pitch": 66, "duration": 3, "velocity": 97}, {"time": 2412, "pitch": 57, "duration": 3, "velocity": 97}, {"time": 2415, "pitch": 62, "duration": 3, "velocity": 97}, {"time": 2418, "pitch": 66, "duration": 3, "velocity": 97}, {"time": 2421, "pitch": 50, "duration": 6, "velocity": 97}, {"time": 2421, "pitch": 69, "duration": 3, "velocity": 97}, {"time": 2424, "pitch": 62, "duration": 3, "velocity": 97}, {"time": 2427, "pitch": 38, "duration": 6, "velocity": 97}, {"time": 2427, "pitch": 66, "duration": 3, "velocity": 97}, {"time": 2430, "pitch": 69, "duration": 3, "velocity": 97}, {"time": 2433, "pitch": 38, "duration": 15, "velocity": 97}, {"time": 2433, "pitch": 50, "duration": 15, "velocity": 97}, {"time": 2433, "pitch": 57, "duration": 21, "velocity": 97}, {"time": 2433, "pitch": 66, "duration": 21, "velocity": 97}, {"time": 2433, "pitch": 74, "duration": 21, "velocity": 97}, {"time": 2457, "pitch": 43, "duration": 29, "velocity": 98}, {"time": 2457, "pitch": 59, "duration": 7, "velocity": 108}, {"time": 2457, "pitch": 62, "duration": 7, "velocity": 113}, {"time": 2457, "pitch": 67, "duration": 7, "velocity": 102}, {"time": 2463, "pitch": 50, "duration": 23, "velocity": 75}, {"time": 2469, "pitch": 59, "duration": 6, "velocity": 110}, {"time": 2469, "pitch": 62, "duration": 6, "velocity": 113}, {"time": 2469, "pitch": 67, "duration": 6, "velocity": 102}, {"time": 2475, "pitch": 55, "duration": 10, "velocity": 71}, {"time": 2478, "pitch": 59, "duration": 1, "velocity": 91}, {"time": 2478, "pitch": 62, "duration": 1, "velocity": 100}, {"time": 2478, "pitch": 67, "duration": 1, "velocity": 87}, {"time": 2484, "pitch": 59, "duration": 6, "velocity": 110}, {"time": 2484, "pitch": 62, "duration": 6, "velocity": 114}, {"time": 2484, "pitch": 67, "duration": 6, "velocity": 100}, {"time": 2490, "pitch": 42, "duration": 14, "velocity": 100}, {"time": 2493, "pitch": 59, "duration": 5, "velocity": 113}, {"time": 2493, "pitch": 62, "duration": 5, "velocity": 116}, {"time": 2493, "pitch": 67, "duration": 4, "velocity": 104}, {"time": 2499, "pitch": 62, "duration": 1, "velocity": 91}, {"time": 2499, "pitch": 67, "duration": 1, "velocity": 91}, {"time": 2505, "pitch": 40, "duration": 37, "velocity": 87}, {"time": 2505, "pitch": 55, "duration": 9, "velocity": 100}, {"time": 2505, "pitch": 59, "duration": 9, "velocity": 113}, {"time": 2505, "pitch": 64, "duration": 9, "velocity": 100}, {"time": 2511, "pitch": 47, "duration": 31, "velocity": 78}, {"time": 2514, "pitch": 52, "duration": 4, "velocity": 98}, {"time": 2517, "pitch": 55, "duration": 7, "velocity": 113}, {"time": 2517, "pitch": 59, "duration": 7, "velocity": 117}, {"time": 2517, "pitch": 64, "duration": 6, "velocity": 110}, {"time": 2523, "pitch": 52, "duration": 9, "velocity": 87}, {"time": 2526, "pitch": 55, "duration": 1, "velocity": 108}, {"time": 2526, "pitch": 59, "duration": 3, "velocity": 116}, {"time": 2526, "pitch": 64, "duration": 3, "velocity": 104}, {"time": 2532, "pitch": 55, "duration": 6, "velocity": 110}, {"time": 2532, "pitch": 59, "duration": 6, "velocity": 116}, {"time": 2532, "pitch": 64, "duration": 6, "velocity": 107}, {"time": 2538, "pitch": 52, "duration": 3, "velocity": 110}, {"time": 2541, "pitch": 55, "duration": 3, "velocity": 116}, {"time": 2541, "pitch": 59, "duration": 3, "velocity": 120}, {"time": 2541, "pitch": 64, "duration": 3, "velocity": 113}, {"time": 2544, "pitch": 40, "duration": 4, "velocity": 102}, {"time": 2547, "pitch": 55, "duration": 3, "velocity": 108}, {"time": 2547, "pitch": 59, "duration": 4, "velocity": 116}, {"time": 2547, "pitch": 64, "duration": 3, "velocity": 107}, {"time": 2550, "pitch": 38, "duration": 3, "velocity": 102}, {"time": 2553, "pitch": 36, "duration": 23, "velocity": 107}, {"time": 2553, "pitch": 55, "duration": 9, "velocity": 108}, {"time": 2553, "pitch": 60, "duration": 6, "velocity": 113}, {"time": 2553, "pitch": 64, "duration": 5, "velocity": 107}, {"time": 2562, "pitch": 48, "duration": 5, "velocity": 107}, {"time": 2565, "pitch": 52, "duration": 7, "velocity": 114}, {"time": 2565, "pitch": 55, "duration": 9, "velocity": 117}, {"time": 2565, "pitch": 60, "duration": 10, "velocity": 107}, {"time": 2571, "pitch": 48, "duration": 3, "velocity": 91}, {"time": 2577, "pitch": 35, "duration": 11, "velocity": 107}, {"time": 2577, "pitch": 54, "duration": 8, "velocity": 92}, {"time": 2577, "pitch": 59, "duration": 10, "velocity": 108}, {"time": 2577, "pitch": 62, "duration": 10, "velocity": 98}, {"time": 2589, "pitch": 40, "duration": 9, "velocity": 100}, {"time": 2589, "pitch": 55, "duration": 7, "velocity": 107}, {"time": 2589, "pitch": 59, "duration": 7, "velocity": 113}, {"time": 2589, "pitch": 64, "duration": 6, "velocity": 98}, {"time": 2598, "pitch": 55, "duration": 1, "velocity": 100}, {"time": 2598, "pitch": 59, "duration": 2, "velocity": 110}, {"time": 2598, "pitch": 64, "duration": 2, "velocity": 100}, {"time": 2601, "pitch": 45, "duration": 18, "velocity": 92}, {"time": 2601, "pitch": 57, "duration": 9, "velocity": 108}, {"time": 2601, "pitch": 60, "duration": 9, "velocity": 114}, {"time": 2601, "pitch": 64, "duration": 9, "velocity": 94}, {"time": 2610, "pitch": 52, "duration": 3, "velocity": 98}, {"time": 2613, "pitch": 57, "duration": 10, "velocity": 117}, {"time": 2613, "pitch": 60, "duration": 8, "velocity": 117}, {"time": 2613, "pitch": 64, "duration": 8, "velocity": 113}, {"time": 2616, "pitch": 52, "duration": 2, "velocity": 87}, {"time": 2625, "pitch": 38, "duration": 19, "velocity": 94}, {"time": 2625, "pitch": 54, "duration": 8, "velocity": 93}, {"time": 2625, "pitch": 57, "duration": 6, "velocity": 107}, {"time": 2625, "pitch": 62, "duration": 7, "velocity": 98}, {"time": 2628, "pitch": 45, "duration": 17, "velocity": 85}, {"time": 2631, "pitch": 50, "duration": 6, "velocity": 114}, {"time": 2634, "pitch": 55, "duration": 2, "velocity": 110}, {"time": 2634, "pitch": 62, "duration": 1, "velocity": 84}, {"time": 2637, "pitch": 54, "duration": 4, "velocity": 107}, {"time": 2637, "pitch": 57, "duration": 4, "velocity": 108}, {"time": 2637, "pitch": 62, "duration": 4, "velocity": 94}, {"time": 2640, "pitch": 50, "duration": 8, "velocity": 116}, {"time": 2643, "pitch": 54, "duration": 3, "velocity": 104}, {"time": 2643, "pitch": 62, "duration": 2, "velocity": 91}, {"time": 2646, "pitch": 57, "duration": 2, "velocity": 94}, {"time": 2649, "pitch": 43, "duration": 39, "velocity": 107}, {"time": 2649, "pitch": 55, "duration": 4, "velocity": 96}, {"time": 2649, "pitch": 59, "duration": 7, "velocity": 110}, {"time": 2649, "pitch": 62, "duration": 8, "velocity": 102}, {"time": 2655, "pitch": 50, "duration": 34, "velocity": 83}, {"time": 2658, "pitch": 55, "duration": 4, "velocity": 98}, {"time": 2661, "pitch": 59, "duration": 6, "velocity": 110}, {"time": 2661, "pitch": 62, "duration": 7, "velocity": 117}, {"time": 2661, "pitch": 67, "duration": 7, "velocity": 104}, {"time": 2667, "pitch": 55, "duration": 5, "velocity": 86}, {"time": 2670, "pitch": 59, "duration": 3, "velocity": 100}, {"time": 2670, "pitch": 62, "duration": 4, "velocity": 113}, {"time": 2670, "pitch": 67, "duration": 3, "velocity": 100}, {"time": 2673, "pitch": 55, "duration": 8, "velocity": 83}, {"time": 2676, "pitch": 57, "duration": 3, "velocity": 108}, {"time": 2676, "pitch": 62, "duration": 4, "velocity": 108}, {"time": 2676, "pitch": 67, "duration": 4, "velocity": 90}, {"time": 2682, "pitch": 59, "duration": 4, "velocity": 114}, {"time": 2682, "pitch": 62, "duration": 4, "velocity": 117}, {"time": 2682, "pitch": 67, "duration": 4, "velocity": 108}, {"time": 2685, "pitch": 55, "duration": 2, "velocity": 113}, {"time": 2688, "pitch": 59, "duration": 4, "velocity": 110}, {"time": 2688, "pitch": 62, "duration": 4, "velocity": 108}, {"time": 2688, "pitch": 67, "duration": 4, "velocity": 96}, {"time": 2691, "pitch": 42, "duration": 5, "velocity": 98}, {"time": 2694, "pitch": 59, "duration": 1, "velocity": 102}, {"time": 2694, "pitch": 62, "duration": 1, "velocity": 98}, {"time": 2694, "pitch": 67, "duration": 1, "velocity": 89}, {"time": 2697, "pitch": 40, "duration": 37, "velocity": 93}, {"time": 2697, "pitch": 59, "duration": 8, "velocity": 108}, {"time": 2697, "pitch": 64, "duration": 8, "velocity": 110}, {"time": 2703, "pitch": 47, "duration": 31, "velocity": 77}, {"time": 2706, "pitch": 52, "duration": 5, "velocity": 98}, {"time": 2709, "pitch": 55, "duration": 6, "velocity": 114}, {"time": 2709, "pitch": 64, "duration": 6, "velocity": 108}, {"time": 2712, "pitch": 59, "duration": 4, "velocity": 84}, {"time": 2715, "pitch": 52, "duration": 10, "velocity": 88}, {"time": 2718, "pitch": 55, "duration": 1, "velocity": 108}, {"time": 2718, "pitch": 59, "duration": 1, "velocity": 116}, {"time": 2718, "pitch": 64, "duration": 1, "velocity": 100}, {"time": 2724, "pitch": 55, "duration": 4, "velocity": 110}, {"time": 2724, "pitch": 59, "duration": 6, "velocity": 117}, {"time": 2724, "pitch": 64, "duration": 6, "velocity": 104}, {"time": 2730, "pitch": 52, "duration": 3, "velocity": 116}, {"time": 2733, "pitch": 55, "duration": 3, "velocity": 114}, {"time": 2733, "pitch": 59, "duration": 3, "velocity": 117}, {"time": 2733, "pitch": 61, "duration": 1, "velocity": 97}, {"time": 2733, "pitch": 64, "duration": 3, "velocity": 108}, {"time": 2736, "pitch": 38, "duration": 8, "velocity": 113}, {"time": 2739, "pitch": 55, "duration": 2, "velocity": 104}, {"time": 2739, "pitch": 59, "duration": 4, "velocity": 114}, {"time": 2739, "pitch": 64, "duration": 3, "velocity": 100}, {"time": 2745, "pitch": 36, "duration": 22, "velocity": 96}, {"time": 2745, "pitch": 55, "duration": 8, "velocity": 102}, {"time": 2745, "pitch": 60, "duration": 3, "velocity": 110}, {"time": 2745, "pitch": 64, "duration": 3, "velocity": 88}, {"time": 2751, "pitch": 43, "duration": 16, "velocity": 84}, {"time": 2754, "pitch": 48, "duration": 4, "velocity": 92}, {"time": 2757, "pitch": 52, "duration": 5, "velocity": 114}, {"time": 2757, "pitch": 55, "duration": 8, "velocity": 116}, {"time": 2757, "pitch": 60, "duration": 10, "velocity": 110}, {"time": 2763, "pitch": 48, "duration": 3, "velocity": 88}, {"time": 2769, "pitch": 35, "duration": 10, "velocity": 108}, {"time": 2769, "pitch": 54, "duration": 7, "velocity": 104}, {"time": 2769, "pitch": 59, "duration": 9, "velocity": 108}, {"time": 2769, "pitch": 62, "duration": 10, "velocity": 93}, {"time": 2781, "pitch": 40, "duration": 11, "velocity": 89}, {"time": 2781, "pitch": 52, "duration": 8, "velocity": 88}, {"time": 2781, "pitch": 55, "duration": 10, "velocity": 94}, {"time": 2781, "pitch": 59, "duration": 8, "velocity": 90}, {"time": 2781, "pitch": 62, "duration": 7, "velocity": 87}, {"time": 2793, "pitch": 45, "duration": 51, "velocity": 87}, {"time": 2793, "pitch": 52, "duration": 47, "velocity": 79}, {"time": 2793, "pitch": 55, "duration": 52, "velocity": 87}, {"time": 2793, "pitch": 57, "duration": 46, "velocity": 80}, {"time": 2793, "pitch": 60, "duration": 44, "velocity": 88}, {"time": 2844, "pitch": 38, "duration": 20, "velocity": 76}, {"time": 2844, "pitch": 54, "duration": 24, "velocity": 68}, {"time": 2844, "pitch": 57, "duration": 22, "velocity": 74}, {"time": 2847, "pitch": 62, "duration": 25, "velocity": 87}, {"time": 2871, "pitch": 55, "duration": 4, "velocity": 38}, {"time": 2874, "pitch": 43, "duration": 45, "velocity": 72}, {"time": 2874, "pitch": 59, "duration": 4, "velocity": 71}, {"time": 2874, "pitch": 62, "duration": 8, "velocity": 85}, {"time": 2880, "pitch": 50, "duration": 41, "velocity": 68}, {"time": 2883, "pitch": 55, "duration": 10, "velocity": 73}, {"time": 2886, "pitch": 57, "duration": 5, "velocity": 88}, {"time": 2886, "pitch": 62, "duration": 22, "velocity": 91}, {"time": 2892, "pitch": 59, "duration": 28, "velocity": 86}, {"time": 2919, "pitch": 55, "duration": 19, "velocity": 50}, {"time": 2919, "pitch": 60, "duration": 19, "velocity": 67}, {"time": 2922, "pitch": 48, "duration": 25, "velocity": 40}, {"time": 2922, "pitch": 64, "duration": 17, "velocity": 83}, {"time": 2943, "pitch": 54, "duration": 24, "velocity": 36}, {"time": 2946, "pitch": 38, "duration": 24, "velocity": 44}, {"time": 2946, "pitch": 57, "duration": 25, "velocity": 67}, {"time": 2946, "pitch": 62, "duration": 23, "velocity": 64}, {"time": 2970, "pitch": 55, "duration": 21, "velocity": 70}, {"time": 2973, "pitch": 43, "duration": 21, "velocity": 40}, {"time": 2973, "pitch": 59, "duration": 20, "velocity": 67}, {"time": 2973, "pitch": 62, "duration": 19, "velocity": 78}]}]}