{"metadata": {"schema_version": "0.2", "title": "None", "source_filename": "344.mid", "source_format": "midi"}, "resolution": 12, "tempos": [{"time": 0, "qpm": 71.00011951686785}, {"time": 1594, "qpm": 71.15411982353778}, {"time": 1606, "qpm": 71.46226078008203}, {"time": 1618, "qpm": 71.80812868016659}, {"time": 1633, "qpm": 71.00011951686785}], "time_signatures": [{"time": 0, "numerator": 4, "denominator": 4}], "tracks": [{"program": 4, "is_drum": false, "name": "MELODY", "notes": [{"time": 338, "pitch": 69, "duration": 6, "velocity": 114}, {"time": 344, "pitch": 67, "duration": 6, "velocity": 100}, {"time": 350, "pitch": 65, "duration": 6, "velocity": 107}, {"time": 356, "pitch": 72, "duration": 12, "velocity": 108}, {"time": 368, "pitch": 77, "duration": 6, "velocity": 108}, {"time": 374, "pitch": 76, "duration": 6, "velocity": 107}, {"time": 380, "pitch": 72, "duration": 3, "velocity": 98}, {"time": 383, "pitch": 69, "duration": 27, "velocity": 98}, {"time": 410, "pitch": 74, "duration": 6, "velocity": 110}, {"time": 416, "pitch": 72, "duration": 6, "velocity": 104}, {"time": 422, "pitch": 67, "duration": 6, "velocity": 108}, {"time": 428, "pitch": 65, "duration": 24, "velocity": 96}, {"time": 452, "pitch": 74, "duration": 12, "velocity": 100}, {"time": 464, "pitch": 72, "duration": 6, "velocity": 96}, {"time": 470, "pitch": 69, "duration": 6, "velocity": 98}, {"time": 476, "pitch": 67, "duration": 54, "velocity": 93}, {"time": 530, "pitch": 69, "duration": 6, "velocity": 108}, {"time": 536, "pitch": 67, "duration": 6, "velocity": 93}, {"time": 542, "pitch": 65, "duration": 6, "velocity": 88}, {"time": 548, "pitch": 72, "duration": 12, "velocity": 94}, {"time": 560, "pitch": 77, "duration": 6, "velocity": 104}, {"time": 566, "pitch": 76, "duration": 3, "velocity": 102}, {"time": 569, "pitch": 77, "duration": 6, "velocity": 104}, {"time": 575, "pitch": 77, "duration": 27, "velocity": 110}, {"time": 602, "pitch": 69, "duration": 6, "velocity": 110}, {"time": 608, "pitch": 70, "duration": 6, "velocity": 106}, {"time": 614, "pitch": 72, "duration": 6, "velocity": 108}, {"time": 620, "pitch": 74, "duration": 24, "velocity": 113}, {"time": 644, "pitch": 74, "duration": 12, "velocity": 88}, {"time": 656, "pitch": 72, "duration": 6, "velocity": 91}, {"time": 662, "pitch": 67, "duration": 6, "velocity": 90}, {"time": 668, "pitch": 65, "duration": 48, "velocity": 91}, {"time": 716, "pitch": 74, "duration": 3, "velocity": 82}, {"time": 719, "pitch": 76, "duration": 3, "velocity": 87}, {"time": 722, "pitch": 77, "duration": 6, "velocity": 98}, {"time": 728, "pitch": 76, "duration": 6, "velocity": 90}, {"time": 734, "pitch": 77, "duration": 6, "velocity": 104}, {"time": 740, "pitch": 79, "duration": 12, "velocity": 113}, {"time": 752, "pitch": 77, "duration": 6, "velocity": 108}, {"time": 758, "pitch": 81, "duration": 6, "velocity": 114}, {"time": 764, "pitch": 81, "duration": 48, "velocity": 117}, {"time": 812, "pitch": 74, "duration": 3, "velocity": 107}, {"time": 815, "pitch": 76, "duration": 3, "velocity": 107}, {"time": 818, "pitch": 77, "duration": 6, "velocity": 113}, {"time": 824, "pitch": 76, "duration": 6, "velocity": 113}, {"time": 830, "pitch": 77, "duration": 6, "velocity": 110}, {"time": 836, "pitch": 79, "duration": 12, "velocity": 116}, {"time": 848, "pitch": 77, "duration": 6, "velocity": 113}, {"time": 854, "pitch": 81, "duration": 6, "velocity": 116}, {"time": 860, "pitch": 81, "duration": 24, "velocity": 119}, {"time": 884, "pitch": 77, "duration": 6, "velocity": 117}, {"time": 890, "pitch": 86, "duration": 6, "velocity": 117}, {"time": 896, "pitch": 84, "duration": 6, "velocity": 117}, {"time": 902, "pitch": 79, "duration": 6, "velocity": 114}, {"time": 908, "pitch": 77, "duration": 9, "velocity": 114}, {"time": 917, "pitch": 74, "duration": 3, "velocity": 113}, {"time": 920, "pitch": 77, "duration": 3, "velocity": 108}, {"time": 923, "pitch": 74, "duration": 3, "velocity": 114}, {"time": 926, "pitch": 77, "duration": 6, "velocity": 113}, {"time": 932, "pitch": 77, "duration": 3, "velocity": 113}, {"time": 935, "pitch": 79, "duration": 9, "velocity": 117}, {"time": 944, "pitch": 77, "duration": 3, "velocity": 110}, {"time": 947, "pitch": 79, "duration": 9, "velocity": 114}, {"time": 956, "pitch": 77, "duration": 6, "velocity": 116}, {"time": 962, "pitch": 81, "duration": 6, "velocity": 120}, {"time": 968, "pitch": 82, "duration": 6, "velocity": 123}, {"time": 974, "pitch": 84, "duration": 6, "velocity": 116}, {"time": 980, "pitch": 77, "duration": 12, "velocity": 116}, {"time": 992, "pitch": 76, "duration": 6, "velocity": 113}, {"time": 998, "pitch": 77, "duration": 3, "velocity": 98}, {"time": 1001, "pitch": 76, "duration": 3, "velocity": 88}, {"time": 1004, "pitch": 74, "duration": 24, "velocity": 104}, {"time": 1028, "pitch": 74, "duration": 6, "velocity": 114}, {"time": 1034, "pitch": 74, "duration": 6, "velocity": 116}, {"time": 1040, "pitch": 76, "duration": 12, "velocity": 114}, {"time": 1052, "pitch": 76, "duration": 36, "velocity": 120}, {"time": 1088, "pitch": 81, "duration": 6, "velocity": 117}, {"time": 1094, "pitch": 79, "duration": 6, "velocity": 116}, {"time": 1100, "pitch": 77, "duration": 24, "velocity": 119}, {"time": 1124, "pitch": 77, "duration": 3, "velocity": 117}, {"time": 1127, "pitch": 79, "duration": 9, "velocity": 114}, {"time": 1136, "pitch": 77, "duration": 3, "velocity": 116}, {"time": 1139, "pitch": 79, "duration": 6, "velocity": 116}, {"time": 1145, "pitch": 77, "duration": 6, "velocity": 113}, {"time": 1151, "pitch": 81, "duration": 33, "velocity": 117}, {"time": 1184, "pitch": 81, "duration": 6, "velocity": 116}, {"time": 1190, "pitch": 79, "duration": 6, "velocity": 114}, {"time": 1196, "pitch": 77, "duration": 21, "velocity": 116}, {"time": 1217, "pitch": 74, "duration": 3, "velocity": 113}, {"time": 1220, "pitch": 77, "duration": 3, "velocity": 113}, {"time": 1223, "pitch": 74, "duration": 3, "velocity": 110}, {"time": 1226, "pitch": 79, "duration": 6, "velocity": 119}, {"time": 1232, "pitch": 77, "duration": 3, "velocity": 114}, {"time": 1235, "pitch": 79, "duration": 6, "velocity": 119}, {"time": 1241, "pitch": 82, "duration": 6, "velocity": 119}, {"time": 1247, "pitch": 81, "duration": 33, "velocity": 117}, {"time": 1280, "pitch": 81, "duration": 6, "velocity": 117}, {"time": 1286, "pitch": 79, "duration": 6, "velocity": 116}, {"time": 1292, "pitch": 77, "duration": 9, "velocity": 117}, {"time": 1301, "pitch": 74, "duration": 3, "velocity": 107}, {"time": 1304, "pitch": 77, "duration": 3, "velocity": 110}, {"time": 1307, "pitch": 74, "duration": 3, "velocity": 108}, {"time": 1310, "pitch": 77, "duration": 6, "velocity": 113}, {"time": 1316, "pitch": 77, "duration": 3, "velocity": 113}, {"time": 1319, "pitch": 79, "duration": 9, "velocity": 119}, {"time": 1328, "pitch": 77, "duration": 3, "velocity": 108}, {"time": 1331, "pitch": 79, "duration": 6, "velocity": 107}, {"time": 1337, "pitch": 77, "duration": 9, "velocity": 110}, {"time": 1346, "pitch": 81, "duration": 6, "velocity": 119}, {"time": 1352, "pitch": 79, "duration": 6, "velocity": 114}, {"time": 1358, "pitch": 77, "duration": 6, "velocity": 117}, {"time": 1364, "pitch": 86, "duration": 12, "velocity": 123}, {"time": 1376, "pitch": 79, "duration": 12, "velocity": 119}, {"time": 1388, "pitch": 77, "duration": 12, "velocity": 119}, {"time": 1400, "pitch": 74, "duration": 6, "velocity": 117}, {"time": 1406, "pitch": 77, "duration": 6, "velocity": 117}, {"time": 1412, "pitch": 79, "duration": 12, "velocity": 119}, {"time": 1424, "pitch": 81, "duration": 6, "velocity": 110}, {"time": 1430, "pitch": 79, "duration": 6, "velocity": 116}, {"time": 1436, "pitch": 77, "duration": 6, "velocity": 117}, {"time": 1634, "pitch": 69, "duration": 6, "velocity": 114}, {"time": 1640, "pitch": 67, "duration": 6, "velocity": 100}, {"time": 1646, "pitch": 65, "duration": 6, "velocity": 107}, {"time": 1652, "pitch": 72, "duration": 12, "velocity": 108}, {"time": 1664, "pitch": 77, "duration": 6, "velocity": 108}, {"time": 1670, "pitch": 76, "duration": 6, "velocity": 107}, {"time": 1676, "pitch": 72, "duration": 3, "velocity": 98}, {"time": 1679, "pitch": 69, "duration": 27, "velocity": 98}, {"time": 1706, "pitch": 74, "duration": 6, "velocity": 110}, {"time": 1712, "pitch": 72, "duration": 6, "velocity": 104}, {"time": 1718, "pitch": 67, "duration": 6, "velocity": 108}, {"time": 1724, "pitch": 65, "duration": 24, "velocity": 96}, {"time": 1748, "pitch": 74, "duration": 12, "velocity": 100}, {"time": 1760, "pitch": 72, "duration": 6, "velocity": 96}, {"time": 1766, "pitch": 69, "duration": 6, "velocity": 98}, {"time": 1772, "pitch": 67, "duration": 54, "velocity": 93}, {"time": 1826, "pitch": 69, "duration": 6, "velocity": 108}, {"time": 1832, "pitch": 67, "duration": 6, "velocity": 93}, {"time": 1838, "pitch": 65, "duration": 6, "velocity": 88}, {"time": 1844, "pitch": 72, "duration": 12, "velocity": 94}, {"time": 1856, "pitch": 77, "duration": 6, "velocity": 104}, {"time": 1862, "pitch": 76, "duration": 3, "velocity": 102}, {"time": 1865, "pitch": 77, "duration": 6, "velocity": 104}, {"time": 1871, "pitch": 77, "duration": 27, "velocity": 110}, {"time": 1898, "pitch": 69, "duration": 6, "velocity": 110}, {"time": 1904, "pitch": 70, "duration": 6, "velocity": 106}, {"time": 1910, "pitch": 72, "duration": 6, "velocity": 108}, {"time": 1916, "pitch": 74, "duration": 24, "velocity": 113}, {"time": 1940, "pitch": 74, "duration": 12, "velocity": 88}, {"time": 1952, "pitch": 72, "duration": 6, "velocity": 91}, {"time": 1958, "pitch": 67, "duration": 6, "velocity": 90}, {"time": 1964, "pitch": 65, "duration": 48, "velocity": 91}, {"time": 2012, "pitch": 74, "duration": 3, "velocity": 82}, {"time": 2015, "pitch": 76, "duration": 3, "velocity": 87}, {"time": 2018, "pitch": 77, "duration": 6, "velocity": 98}, {"time": 2024, "pitch": 76, "duration": 6, "velocity": 90}, {"time": 2030, "pitch": 77, "duration": 6, "velocity": 104}, {"time": 2036, "pitch": 79, "duration": 12, "velocity": 113}, {"time": 2048, "pitch": 77, "duration": 6, "velocity": 108}, {"time": 2054, "pitch": 81, "duration": 6, "velocity": 114}, {"time": 2060, "pitch": 81, "duration": 48, "velocity": 117}, {"time": 2108, "pitch": 74, "duration": 3, "velocity": 107}, {"time": 2111, "pitch": 76, "duration": 3, "velocity": 107}, {"time": 2114, "pitch": 77, "duration": 6, "velocity": 113}, {"time": 2120, "pitch": 76, "duration": 6, "velocity": 113}, {"time": 2126, "pitch": 77, "duration": 6, "velocity": 110}, {"time": 2132, "pitch": 79, "duration": 12, "velocity": 116}, {"time": 2144, "pitch": 77, "duration": 6, "velocity": 113}, {"time": 2150, "pitch": 81, "duration": 6, "velocity": 116}, {"time": 2156, "pitch": 81, "duration": 24, "velocity": 119}, {"time": 2180, "pitch": 77, "duration": 6, "velocity": 117}, {"time": 2186, "pitch": 86, "duration": 6, "velocity": 117}, {"time": 2192, "pitch": 84, "duration": 6, "velocity": 117}, {"time": 2198, "pitch": 79, "duration": 6, "velocity": 114}, {"time": 2204, "pitch": 77, "duration": 9, "velocity": 114}, {"time": 2213, "pitch": 74, "duration": 3, "velocity": 113}, {"time": 2216, "pitch": 77, "duration": 3, "velocity": 108}, {"time": 2219, "pitch": 74, "duration": 3, "velocity": 114}, {"time": 2222, "pitch": 77, "duration": 6, "velocity": 113}, {"time": 2228, "pitch": 77, "duration": 3, "velocity": 113}, {"time": 2231, "pitch": 79, "duration": 9, "velocity": 117}, {"time": 2240, "pitch": 77, "duration": 3, "velocity": 110}, {"time": 2243, "pitch": 79, "duration": 9, "velocity": 114}, {"time": 2252, "pitch": 77, "duration": 6, "velocity": 116}, {"time": 2258, "pitch": 81, "duration": 6, "velocity": 120}, {"time": 2264, "pitch": 82, "duration": 6, "velocity": 123}, {"time": 2270, "pitch": 84, "duration": 6, "velocity": 116}, {"time": 2276, "pitch": 77, "duration": 12, "velocity": 116}, {"time": 2288, "pitch": 76, "duration": 6, "velocity": 113}, {"time": 2294, "pitch": 77, "duration": 3, "velocity": 98}, {"time": 2297, "pitch": 76, "duration": 3, "velocity": 88}, {"time": 2300, "pitch": 74, "duration": 24, "velocity": 104}, {"time": 2324, "pitch": 74, "duration": 6, "velocity": 114}, {"time": 2330, "pitch": 74, "duration": 6, "velocity": 116}, {"time": 2336, "pitch": 76, "duration": 12, "velocity": 114}, {"time": 2348, "pitch": 76, "duration": 18, "velocity": 120}, {"time": 2384, "pitch": 81, "duration": 6, "velocity": 117}, {"time": 2390, "pitch": 79, "duration": 6, "velocity": 116}, {"time": 2396, "pitch": 77, "duration": 24, "velocity": 119}, {"time": 2420, "pitch": 77, "duration": 3, "velocity": 117}, {"time": 2423, "pitch": 79, "duration": 9, "velocity": 114}, {"time": 2432, "pitch": 77, "duration": 3, "velocity": 116}, {"time": 2435, "pitch": 79, "duration": 6, "velocity": 116}, {"time": 2441, "pitch": 77, "duration": 6, "velocity": 113}, {"time": 2447, "pitch": 81, "duration": 33, "velocity": 117}, {"time": 2480, "pitch": 81, "duration": 6, "velocity": 116}, {"time": 2486, "pitch": 79, "duration": 6, "velocity": 114}, {"time": 2492, "pitch": 77, "duration": 21, "velocity": 116}, {"time": 2513, "pitch": 74, "duration": 3, "velocity": 113}, {"time": 2516, "pitch": 77, "duration": 3, "velocity": 113}, {"time": 2519, "pitch": 74, "duration": 3, "velocity": 110}, {"time": 2522, "pitch": 79, "duration": 6, "velocity": 119}, {"time": 2528, "pitch": 77, "duration": 3, "velocity": 114}, {"time": 2531, "pitch": 79, "duration": 6, "velocity": 119}, {"time": 2537, "pitch": 82, "duration": 6, "velocity": 119}, {"time": 2543, "pitch": 81, "duration": 33, "velocity": 117}, {"time": 2576, "pitch": 81, "duration": 6, "velocity": 117}, {"time": 2582, "pitch": 79, "duration": 6, "velocity": 116}, {"time": 2588, "pitch": 77, "duration": 9, "velocity": 117}, {"time": 2597, "pitch": 74, "duration": 3, "velocity": 107}, {"time": 2600, "pitch": 77, "duration": 3, "velocity": 110}, {"time": 2603, "pitch": 74, "duration": 3, "velocity": 108}, {"time": 2606, "pitch": 77, "duration": 6, "velocity": 113}, {"time": 2612, "pitch": 77, "duration": 3, "velocity": 113}, {"time": 2615, "pitch": 79, "duration": 9, "velocity": 119}, {"time": 2624, "pitch": 77, "duration": 3, "velocity": 108}, {"time": 2627, "pitch": 79, "duration": 6, "velocity": 107}, {"time": 2633, "pitch": 77, "duration": 9, "velocity": 110}, {"time": 2642, "pitch": 81, "duration": 6, "velocity": 119}, {"time": 2648, "pitch": 79, "duration": 6, "velocity": 114}, {"time": 2654, "pitch": 77, "duration": 6, "velocity": 117}, {"time": 2660, "pitch": 86, "duration": 12, "velocity": 123}, {"time": 2672, "pitch": 79, "duration": 12, "velocity": 119}, {"time": 2684, "pitch": 77, "duration": 12, "velocity": 119}, {"time": 2696, "pitch": 74, "duration": 6, "velocity": 117}, {"time": 2702, "pitch": 77, "duration": 6, "velocity": 117}, {"time": 2708, "pitch": 79, "duration": 12, "velocity": 119}, {"time": 2720, "pitch": 81, "duration": 6, "velocity": 110}, {"time": 2726, "pitch": 79, "duration": 6, "velocity": 116}, {"time": 2732, "pitch": 77, "duration": 54, "velocity": 117}, {"time": 2786, "pitch": 74, "duration": 6, "velocity": 117}, {"time": 2792, "pitch": 74, "duration": 6, "velocity": 117}, {"time": 2798, "pitch": 74, "duration": 6, "velocity": 119}, {"time": 2804, "pitch": 74, "duration": 6, "velocity": 119}, {"time": 2810, "pitch": 74, "duration": 6, "velocity": 119}, {"time": 2816, "pitch": 74, "duration": 6, "velocity": 119}, {"time": 2822, "pitch": 74, "duration": 6, "velocity": 119}, {"time": 2828, "pitch": 74, "duration": 6, "velocity": 119}, {"time": 2834, "pitch": 76, "duration": 6, "velocity": 116}, {"time": 2840, "pitch": 76, "duration": 6, "velocity": 110}, {"time": 2846, "pitch": 76, "duration": 6, "velocity": 110}, {"time": 2852, "pitch": 76, "duration": 6, "velocity": 107}, {"time": 2858, "pitch": 76, "duration": 6, "velocity": 102}, {"time": 2864, "pitch": 76, "duration": 6, "velocity": 107}, {"time": 2870, "pitch": 76, "duration": 6, "velocity": 100}, {"time": 2876, "pitch": 76, "duration": 6, "velocity": 108}, {"time": 2882, "pitch": 77, "duration": 6, "velocity": 114}, {"time": 2888, "pitch": 77, "duration": 6, "velocity": 114}, {"time": 2894, "pitch": 77, "duration": 6, "velocity": 113}, {"time": 2900, "pitch": 77, "duration": 6, "velocity": 113}, {"time": 2906, "pitch": 77, "duration": 6, "velocity": 114}, {"time": 2912, "pitch": 79, "duration": 6, "velocity": 114}, {"time": 2918, "pitch": 81, "duration": 6, "velocity": 116}, {"time": 2924, "pitch": 77, "duration": 54, "velocity": 117}, {"time": 2978, "pitch": 76, "duration": 6, "velocity": 117}, {"time": 2984, "pitch": 76, "duration": 6, "velocity": 114}, {"time": 2990, "pitch": 76, "duration": 6, "velocity": 114}, {"time": 2996, "pitch": 76, "duration": 6, "velocity": 114}, {"time": 3002, "pitch": 76, "duration": 6, "velocity": 114}, {"time": 3008, "pitch": 76, "duration": 6, "velocity": 113}, {"time": 3014, "pitch": 76, "duration": 6, "velocity": 116}, {"time": 3020, "pitch": 76, "duration": 6, "velocity": 114}, {"time": 3026, "pitch": 77, "duration": 6, "velocity": 117}, {"time": 3032, "pitch": 77, "duration": 6, "velocity": 117}, {"time": 3038, "pitch": 77, "duration": 6, "velocity": 119}, {"time": 3044, "pitch": 77, "duration": 6, "velocity": 116}, {"time": 3050, "pitch": 77, "duration": 6, "velocity": 116}, {"time": 3056, "pitch": 79, "duration": 3, "velocity": 113}, {"time": 3059, "pitch": 81, "duration": 6, "velocity": 114}, {"time": 3065, "pitch": 77, "duration": 9, "velocity": 117}, {"time": 3074, "pitch": 79, "duration": 6, "velocity": 117}, {"time": 3080, "pitch": 79, "duration": 6, "velocity": 117}, {"time": 3086, "pitch": 79, "duration": 6, "velocity": 114}, {"time": 3092, "pitch": 79, "duration": 6, "velocity": 113}, {"time": 3098, "pitch": 79, "duration": 6, "velocity": 114}, {"time": 3104, "pitch": 81, "duration": 6, "velocity": 113}, {"time": 3110, "pitch": 82, "duration": 6, "velocity": 119}, {"time": 3116, "pitch": 81, "duration": 12, "velocity": 119}, {"time": 3128, "pitch": 85, "duration": 42, "velocity": 123}, {"time": 3200, "pitch": 81, "duration": 6, "velocity": 119}, {"time": 3206, "pitch": 79, "duration": 6, "velocity": 114}, {"time": 3212, "pitch": 77, "duration": 24, "velocity": 117}, {"time": 3236, "pitch": 77, "duration": 3, "velocity": 100}, {"time": 3239, "pitch": 79, "duration": 9, "velocity": 110}, {"time": 3248, "pitch": 77, "duration": 3, "velocity": 108}, {"time": 3251, "pitch": 79, "duration": 6, "velocity": 113}, {"time": 3257, "pitch": 77, "duration": 6, "velocity": 113}, {"time": 3263, "pitch": 81, "duration": 33, "velocity": 114}, {"time": 3296, "pitch": 81, "duration": 6, "velocity": 116}, {"time": 3302, "pitch": 79, "duration": 6, "velocity": 114}, {"time": 3308, "pitch": 77, "duration": 21, "velocity": 116}, {"time": 3329, "pitch": 74, "duration": 3, "velocity": 113}, {"time": 3332, "pitch": 77, "duration": 3, "velocity": 113}, {"time": 3335, "pitch": 74, "duration": 3, "velocity": 110}, {"time": 3338, "pitch": 79, "duration": 6, "velocity": 119}, {"time": 3344, "pitch": 77, "duration": 3, "velocity": 114}, {"time": 3347, "pitch": 79, "duration": 6, "velocity": 119}, {"time": 3353, "pitch": 82, "duration": 6, "velocity": 119}, {"time": 3359, "pitch": 81, "duration": 33, "velocity": 117}, {"time": 3392, "pitch": 81, "duration": 6, "velocity": 117}, {"time": 3398, "pitch": 79, "duration": 6, "velocity": 116}, {"time": 3404, "pitch": 77, "duration": 9, "velocity": 117}, {"time": 3413, "pitch": 74, "duration": 3, "velocity": 107}, {"time": 3416, "pitch": 77, "duration": 3, "velocity": 110}, {"time": 3419, "pitch": 74, "duration": 3, "velocity": 108}, {"time": 3422, "pitch": 77, "duration": 6, "velocity": 113}, {"time": 3428, "pitch": 77, "duration": 3, "velocity": 113}, {"time": 3431, "pitch": 79, "duration": 9, "velocity": 119}, {"time": 3440, "pitch": 77, "duration": 3, "velocity": 108}, {"time": 3443, "pitch": 79, "duration": 6, "velocity": 107}, {"time": 3449, "pitch": 77, "duration": 9, "velocity": 110}, {"time": 3458, "pitch": 81, "duration": 6, "velocity": 119}, {"time": 3464, "pitch": 79, "duration": 6, "velocity": 114}, {"time": 3470, "pitch": 77, "duration": 6, "velocity": 117}, {"time": 3476, "pitch": 86, "duration": 12, "velocity": 123}, {"time": 3488, "pitch": 79, "duration": 12, "velocity": 119}, {"time": 3500, "pitch": 77, "duration": 12, "velocity": 119}, {"time": 3512, "pitch": 74, "duration": 6, "velocity": 117}, {"time": 3518, "pitch": 77, "duration": 6, "velocity": 117}, {"time": 3524, "pitch": 79, "duration": 12, "velocity": 119}, {"time": 3536, "pitch": 81, "duration": 6, "velocity": 110}, {"time": 3542, "pitch": 79, "duration": 6, "velocity": 116}, {"time": 3548, "pitch": 77, "duration": 10, "velocity": 117}, {"time": 3584, "pitch": 81, "duration": 6, "velocity": 117}, {"time": 3590, "pitch": 79, "duration": 6, "velocity": 116}, {"time": 3596, "pitch": 77, "duration": 9, "velocity": 117}, {"time": 3605, "pitch": 74, "duration": 3, "velocity": 107}, {"time": 3608, "pitch": 77, "duration": 3, "velocity": 110}, {"time": 3611, "pitch": 74, "duration": 3, "velocity": 108}, {"time": 3614, "pitch": 77, "duration": 6, "velocity": 113}, {"time": 3620, "pitch": 77, "duration": 3, "velocity": 113}, {"time": 3623, "pitch": 79, "duration": 9, "velocity": 119}, {"time": 3632, "pitch": 77, "duration": 3, "velocity": 108}, {"time": 3635, "pitch": 79, "duration": 6, "velocity": 107}, {"time": 3641, "pitch": 77, "duration": 9, "velocity": 110}, {"time": 3650, "pitch": 81, "duration": 6, "velocity": 119}, {"time": 3656, "pitch": 79, "duration": 6, "velocity": 114}, {"time": 3662, "pitch": 77, "duration": 6, "velocity": 117}, {"time": 3668, "pitch": 86, "duration": 12, "velocity": 123}, {"time": 3680, "pitch": 86, "duration": 12, "velocity": 110}, {"time": 3692, "pitch": 81, "duration": 3, "velocity": 108}, {"time": 3695, "pitch": 79, "duration": 3, "velocity": 102}, {"time": 3698, "pitch": 77, "duration": 48, "velocity": 113}, {"time": 3782, "pitch": 81, "duration": 12, "velocity": 114}, {"time": 3794, "pitch": 79, "duration": 6, "velocity": 116}, {"time": 3800, "pitch": 77, "duration": 18, "velocity": 113}]}, {"program": 0, "is_drum": false, "name": "PIANO", "notes": [{"time": 98, "pitch": 46, "duration": 19, "velocity": 83}, {"time": 104, "pitch": 53, "duration": 13, "velocity": 70}, {"time": 110, "pitch": 58, "duration": 7, "velocity": 67}, {"time": 122, "pitch": 48, "duration": 19, "velocity": 84}, {"time": 128, "pitch": 55, "duration": 14, "velocity": 65}, {"time": 134, "pitch": 60, "duration": 8, "velocity": 73}, {"time": 146, "pitch": 50, "duration": 42, "velocity": 86}, {"time": 152, "pitch": 57, "duration": 35, "velocity": 77}, {"time": 158, "pitch": 62, "duration": 28, "velocity": 80}, {"time": 164, "pitch": 65, "duration": 25, "velocity": 81}, {"time": 194, "pitch": 46, "duration": 20, "velocity": 84}, {"time": 200, "pitch": 53, "duration": 14, "velocity": 80}, {"time": 206, "pitch": 58, "duration": 8, "velocity": 81}, {"time": 218, "pitch": 48, "duration": 19, "velocity": 86}, {"time": 224, "pitch": 55, "duration": 14, "velocity": 76}, {"time": 230, "pitch": 60, "duration": 7, "velocity": 73}, {"time": 242, "pitch": 50, "duration": 21, "velocity": 84}, {"time": 257, "pitch": 60, "duration": 2, "velocity": 88}, {"time": 260, "pitch": 64, "duration": 3, "velocity": 87}, {"time": 263, "pitch": 65, "duration": 3, "velocity": 86}, {"time": 266, "pitch": 43, "duration": 11, "velocity": 81}, {"time": 266, "pitch": 67, "duration": 10, "velocity": 88}, {"time": 285, "pitch": 84, "duration": 9, "velocity": 76}, {"time": 287, "pitch": 89, "duration": 7, "velocity": 84}, {"time": 288, "pitch": 93, "duration": 7, "velocity": 84}, {"time": 290, "pitch": 96, "duration": 6, "velocity": 93}, {"time": 326, "pitch": 72, "duration": 9, "velocity": 68}, {"time": 338, "pitch": 65, "duration": 18, "velocity": 75}, {"time": 338, "pitch": 72, "duration": 19, "velocity": 38}, {"time": 338, "pitch": 77, "duration": 19, "velocity": 67}, {"time": 338, "pitch": 81, "duration": 18, "velocity": 82}, {"time": 362, "pitch": 64, "duration": 15, "velocity": 65}, {"time": 362, "pitch": 72, "duration": 16, "velocity": 69}, {"time": 362, "pitch": 76, "duration": 17, "velocity": 76}, {"time": 362, "pitch": 79, "duration": 17, "velocity": 74}, {"time": 386, "pitch": 62, "duration": 37, "velocity": 76}, {"time": 386, "pitch": 74, "duration": 7, "velocity": 77}, {"time": 386, "pitch": 77, "duration": 5, "velocity": 71}, {"time": 386, "pitch": 81, "duration": 18, "velocity": 82}, {"time": 392, "pitch": 69, "duration": 30, "velocity": 58}, {"time": 398, "pitch": 72, "duration": 7, "velocity": 77}, {"time": 404, "pitch": 74, "duration": 18, "velocity": 86}, {"time": 422, "pitch": 60, "duration": 5, "velocity": 82}, {"time": 422, "pitch": 72, "duration": 9, "velocity": 82}, {"time": 422, "pitch": 76, "duration": 9, "velocity": 86}, {"time": 422, "pitch": 79, "duration": 7, "velocity": 82}, {"time": 434, "pitch": 58, "duration": 18, "velocity": 80}, {"time": 434, "pitch": 74, "duration": 23, "velocity": 87}, {"time": 434, "pitch": 77, "duration": 19, "velocity": 81}, {"time": 440, "pitch": 65, "duration": 12, "velocity": 77}, {"time": 446, "pitch": 70, "duration": 6, "velocity": 81}, {"time": 482, "pitch": 60, "duration": 38, "velocity": 86}, {"time": 488, "pitch": 67, "duration": 7, "velocity": 81}, {"time": 494, "pitch": 77, "duration": 12, "velocity": 104}, {"time": 500, "pitch": 67, "duration": 19, "velocity": 70}, {"time": 506, "pitch": 76, "duration": 12, "velocity": 110}, {"time": 518, "pitch": 72, "duration": 9, "velocity": 102}, {"time": 524, "pitch": 70, "duration": 5, "velocity": 106}, {"time": 530, "pitch": 53, "duration": 19, "velocity": 88}, {"time": 530, "pitch": 69, "duration": 23, "velocity": 96}, {"time": 536, "pitch": 60, "duration": 18, "velocity": 79}, {"time": 542, "pitch": 65, "duration": 6, "velocity": 82}, {"time": 554, "pitch": 52, "duration": 23, "velocity": 83}, {"time": 554, "pitch": 67, "duration": 7, "velocity": 86}, {"time": 554, "pitch": 72, "duration": 7, "velocity": 86}, {"time": 560, "pitch": 60, "duration": 11, "velocity": 76}, {"time": 566, "pitch": 67, "duration": 11, "velocity": 104}, {"time": 566, "pitch": 72, "duration": 11, "velocity": 100}, {"time": 578, "pitch": 50, "duration": 19, "velocity": 82}, {"time": 578, "pitch": 65, "duration": 17, "velocity": 85}, {"time": 578, "pitch": 69, "duration": 16, "velocity": 88}, {"time": 584, "pitch": 57, "duration": 18, "velocity": 77}, {"time": 590, "pitch": 62, "duration": 6, "velocity": 82}, {"time": 596, "pitch": 64, "duration": 15, "velocity": 86}, {"time": 602, "pitch": 48, "duration": 23, "velocity": 91}, {"time": 602, "pitch": 67, "duration": 8, "velocity": 91}, {"time": 614, "pitch": 67, "duration": 6, "velocity": 102}, {"time": 620, "pitch": 64, "duration": 6, "velocity": 89}, {"time": 626, "pitch": 46, "duration": 19, "velocity": 85}, {"time": 626, "pitch": 62, "duration": 16, "velocity": 86}, {"time": 626, "pitch": 65, "duration": 16, "velocity": 91}, {"time": 632, "pitch": 53, "duration": 18, "velocity": 74}, {"time": 638, "pitch": 58, "duration": 7, "velocity": 84}, {"time": 674, "pitch": 53, "duration": 36, "velocity": 87}, {"time": 674, "pitch": 77, "duration": 5, "velocity": 91}, {"time": 680, "pitch": 60, "duration": 30, "velocity": 67}, {"time": 680, "pitch": 72, "duration": 4, "velocity": 87}, {"time": 686, "pitch": 65, "duration": 24, "velocity": 80}, {"time": 686, "pitch": 79, "duration": 5, "velocity": 102}, {"time": 692, "pitch": 72, "duration": 7, "velocity": 88}, {"time": 698, "pitch": 81, "duration": 12, "velocity": 96}, {"time": 704, "pitch": 72, "duration": 5, "velocity": 94}, {"time": 710, "pitch": 84, "duration": 6, "velocity": 108}, {"time": 722, "pitch": 62, "duration": 15, "velocity": 87}, {"time": 722, "pitch": 81, "duration": 7, "velocity": 74}, {"time": 722, "pitch": 84, "duration": 8, "velocity": 86}, {"time": 722, "pitch": 89, "duration": 7, "velocity": 100}, {"time": 734, "pitch": 89, "duration": 10, "velocity": 102}, {"time": 740, "pitch": 62, "duration": 4, "velocity": 86}, {"time": 746, "pitch": 64, "duration": 22, "velocity": 86}, {"time": 746, "pitch": 79, "duration": 10, "velocity": 94}, {"time": 746, "pitch": 88, "duration": 9, "velocity": 94}, {"time": 758, "pitch": 89, "duration": 3, "velocity": 104}, {"time": 761, "pitch": 88, "duration": 4, "velocity": 87}, {"time": 764, "pitch": 84, "duration": 2, "velocity": 93}, {"time": 767, "pitch": 79, "duration": 2, "velocity": 84}, {"time": 770, "pitch": 53, "duration": 17, "velocity": 78}, {"time": 770, "pitch": 69, "duration": 16, "velocity": 83}, {"time": 770, "pitch": 77, "duration": 6, "velocity": 88}, {"time": 776, "pitch": 60, "duration": 10, "velocity": 52}, {"time": 782, "pitch": 65, "duration": 4, "velocity": 78}, {"time": 794, "pitch": 48, "duration": 11, "velocity": 88}, {"time": 794, "pitch": 60, "duration": 10, "velocity": 84}, {"time": 794, "pitch": 67, "duration": 10, "velocity": 86}, {"time": 794, "pitch": 70, "duration": 8, "velocity": 87}, {"time": 794, "pitch": 72, "duration": 11, "velocity": 88}, {"time": 794, "pitch": 76, "duration": 8, "velocity": 86}, {"time": 806, "pitch": 53, "duration": 6, "velocity": 88}, {"time": 806, "pitch": 65, "duration": 8, "velocity": 96}, {"time": 806, "pitch": 69, "duration": 10, "velocity": 93}, {"time": 806, "pitch": 72, "duration": 10, "velocity": 88}, {"time": 818, "pitch": 46, "duration": 19, "velocity": 86}, {"time": 818, "pitch": 65, "duration": 11, "velocity": 92}, {"time": 818, "pitch": 70, "duration": 5, "velocity": 87}, {"time": 818, "pitch": 74, "duration": 5, "velocity": 88}, {"time": 824, "pitch": 53, "duration": 13, "velocity": 78}, {"time": 830, "pitch": 58, "duration": 7, "velocity": 81}, {"time": 830, "pitch": 62, "duration": 7, "velocity": 92}, {"time": 830, "pitch": 70, "duration": 9, "velocity": 87}, {"time": 836, "pitch": 65, "duration": 5, "velocity": 86}, {"time": 842, "pitch": 48, "duration": 19, "velocity": 87}, {"time": 842, "pitch": 64, "duration": 7, "velocity": 86}, {"time": 842, "pitch": 67, "duration": 7, "velocity": 91}, {"time": 842, "pitch": 72, "duration": 7, "velocity": 89}, {"time": 848, "pitch": 55, "duration": 13, "velocity": 75}, {"time": 854, "pitch": 60, "duration": 8, "velocity": 84}, {"time": 854, "pitch": 64, "duration": 7, "velocity": 92}, {"time": 854, "pitch": 67, "duration": 10, "velocity": 96}, {"time": 854, "pitch": 72, "duration": 8, "velocity": 88}, {"time": 866, "pitch": 53, "duration": 42, "velocity": 86}, {"time": 866, "pitch": 65, "duration": 10, "velocity": 87}, {"time": 866, "pitch": 69, "duration": 10, "velocity": 91}, {"time": 866, "pitch": 72, "duration": 8, "velocity": 86}, {"time": 872, "pitch": 60, "duration": 36, "velocity": 81}, {"time": 878, "pitch": 67, "duration": 6, "velocity": 104}, {"time": 884, "pitch": 65, "duration": 6, "velocity": 85}, {"time": 890, "pitch": 67, "duration": 6, "velocity": 107}, {"time": 890, "pitch": 72, "duration": 5, "velocity": 113}, {"time": 896, "pitch": 65, "duration": 6, "velocity": 88}, {"time": 902, "pitch": 67, "duration": 8, "velocity": 110}, {"time": 902, "pitch": 75, "duration": 7, "velocity": 109}, {"time": 908, "pitch": 65, "duration": 5, "velocity": 81}, {"time": 914, "pitch": 58, "duration": 16, "velocity": 88}, {"time": 914, "pitch": 65, "duration": 9, "velocity": 102}, {"time": 914, "pitch": 70, "duration": 9, "velocity": 97}, {"time": 914, "pitch": 74, "duration": 8, "velocity": 91}, {"time": 926, "pitch": 65, "duration": 7, "velocity": 102}, {"time": 926, "pitch": 70, "duration": 11, "velocity": 109}, {"time": 926, "pitch": 74, "duration": 7, "velocity": 91}, {"time": 932, "pitch": 58, "duration": 5, "velocity": 100}, {"time": 938, "pitch": 48, "duration": 19, "velocity": 88}, {"time": 938, "pitch": 64, "duration": 13, "velocity": 96}, {"time": 938, "pitch": 67, "duration": 15, "velocity": 107}, {"time": 938, "pitch": 72, "duration": 14, "velocity": 94}, {"time": 947, "pitch": 55, "duration": 10, "velocity": 88}, {"time": 950, "pitch": 60, "duration": 10, "velocity": 94}, {"time": 953, "pitch": 64, "duration": 4, "velocity": 86}, {"time": 956, "pitch": 67, "duration": 5, "velocity": 98}, {"time": 962, "pitch": 53, "duration": 10, "velocity": 88}, {"time": 962, "pitch": 65, "duration": 7, "velocity": 91}, {"time": 962, "pitch": 69, "duration": 7, "velocity": 108}, {"time": 962, "pitch": 72, "duration": 7, "velocity": 93}, {"time": 968, "pitch": 60, "duration": 3, "velocity": 77}, {"time": 974, "pitch": 52, "duration": 10, "velocity": 91}, {"time": 974, "pitch": 64, "duration": 7, "velocity": 93}, {"time": 974, "pitch": 67, "duration": 9, "velocity": 102}, {"time": 974, "pitch": 72, "duration": 9, "velocity": 88}, {"time": 986, "pitch": 50, "duration": 15, "velocity": 89}, {"time": 986, "pitch": 62, "duration": 7, "velocity": 87}, {"time": 986, "pitch": 65, "duration": 8, "velocity": 92}, {"time": 986, "pitch": 69, "duration": 8, "velocity": 88}, {"time": 995, "pitch": 57, "duration": 8, "velocity": 67}, {"time": 998, "pitch": 62, "duration": 6, "velocity": 102}, {"time": 998, "pitch": 65, "duration": 9, "velocity": 110}, {"time": 998, "pitch": 69, "duration": 6, "velocity": 104}, {"time": 1010, "pitch": 46, "duration": 18, "velocity": 90}, {"time": 1010, "pitch": 62, "duration": 7, "velocity": 88}, {"time": 1010, "pitch": 65, "duration": 7, "velocity": 94}, {"time": 1010, "pitch": 70, "duration": 7, "velocity": 90}, {"time": 1016, "pitch": 58, "duration": 7, "velocity": 79}, {"time": 1022, "pitch": 62, "duration": 7, "velocity": 107}, {"time": 1022, "pitch": 65, "duration": 10, "velocity": 113}, {"time": 1022, "pitch": 70, "duration": 6, "velocity": 100}, {"time": 1028, "pitch": 58, "duration": 3, "velocity": 88}, {"time": 1034, "pitch": 48, "duration": 20, "velocity": 89}, {"time": 1034, "pitch": 64, "duration": 8, "velocity": 89}, {"time": 1034, "pitch": 67, "duration": 8, "velocity": 102}, {"time": 1034, "pitch": 72, "duration": 7, "velocity": 92}, {"time": 1040, "pitch": 55, "duration": 15, "velocity": 80}, {"time": 1046, "pitch": 60, "duration": 8, "velocity": 83}, {"time": 1046, "pitch": 64, "duration": 9, "velocity": 102}, {"time": 1046, "pitch": 67, "duration": 8, "velocity": 108}, {"time": 1046, "pitch": 72, "duration": 8, "velocity": 93}, {"time": 1058, "pitch": 45, "duration": 20, "velocity": 93}, {"time": 1064, "pitch": 57, "duration": 7, "velocity": 91}, {"time": 1070, "pitch": 73, "duration": 9, "velocity": 116}, {"time": 1076, "pitch": 57, "duration": 4, "velocity": 104}, {"time": 1082, "pitch": 45, "duration": 18, "velocity": 94}, {"time": 1082, "pitch": 57, "duration": 6, "velocity": 96}, {"time": 1082, "pitch": 64, "duration": 9, "velocity": 107}, {"time": 1082, "pitch": 69, "duration": 9, "velocity": 113}, {"time": 1082, "pitch": 73, "duration": 9, "velocity": 91}, {"time": 1091, "pitch": 57, "duration": 4, "velocity": 114}, {"time": 1094, "pitch": 64, "duration": 6, "velocity": 110}, {"time": 1094, "pitch": 69, "duration": 9, "velocity": 117}, {"time": 1094, "pitch": 73, "duration": 6, "velocity": 103}, {"time": 1100, "pitch": 57, "duration": 4, "velocity": 114}, {"time": 1106, "pitch": 50, "duration": 21, "velocity": 108}, {"time": 1106, "pitch": 65, "duration": 9, "velocity": 107}, {"time": 1106, "pitch": 69, "duration": 9, "velocity": 114}, {"time": 1106, "pitch": 74, "duration": 7, "velocity": 113}, {"time": 1112, "pitch": 57, "duration": 15, "velocity": 81}, {"time": 1115, "pitch": 62, "duration": 4, "velocity": 102}, {"time": 1118, "pitch": 65, "duration": 8, "velocity": 114}, {"time": 1118, "pitch": 69, "duration": 10, "velocity": 117}, {"time": 1118, "pitch": 74, "duration": 6, "velocity": 113}, {"time": 1124, "pitch": 62, "duration": 2, "velocity": 100}, {"time": 1130, "pitch": 48, "duration": 18, "velocity": 100}, {"time": 1130, "pitch": 64, "duration": 9, "velocity": 108}, {"time": 1130, "pitch": 67, "duration": 9, "velocity": 116}, {"time": 1130, "pitch": 72, "duration": 8, "velocity": 102}, {"time": 1133, "pitch": 55, "duration": 13, "velocity": 81}, {"time": 1139, "pitch": 60, "duration": 4, "velocity": 110}, {"time": 1142, "pitch": 64, "duration": 7, "velocity": 114}, {"time": 1142, "pitch": 67, "duration": 10, "velocity": 117}, {"time": 1142, "pitch": 72, "duration": 9, "velocity": 107}, {"time": 1148, "pitch": 60, "duration": 5, "velocity": 104}, {"time": 1154, "pitch": 53, "duration": 38, "velocity": 92}, {"time": 1154, "pitch": 65, "duration": 9, "velocity": 102}, {"time": 1154, "pitch": 69, "duration": 9, "velocity": 117}, {"time": 1154, "pitch": 72, "duration": 7, "velocity": 107}, {"time": 1163, "pitch": 60, "duration": 5, "velocity": 89}, {"time": 1166, "pitch": 67, "duration": 7, "velocity": 117}, {"time": 1166, "pitch": 72, "duration": 6, "velocity": 96}, {"time": 1172, "pitch": 60, "duration": 10, "velocity": 84}, {"time": 1175, "pitch": 65, "duration": 1, "velocity": 107}, {"time": 1175, "pitch": 69, "duration": 1, "velocity": 113}, {"time": 1175, "pitch": 72, "duration": 1, "velocity": 94}, {"time": 1178, "pitch": 69, "duration": 1, "velocity": 83}, {"time": 1181, "pitch": 67, "duration": 6, "velocity": 114}, {"time": 1181, "pitch": 72, "duration": 5, "velocity": 107}, {"time": 1187, "pitch": 60, "duration": 6, "velocity": 93}, {"time": 1190, "pitch": 65, "duration": 7, "velocity": 113}, {"time": 1190, "pitch": 72, "duration": 6, "velocity": 104}, {"time": 1196, "pitch": 53, "duration": 1, "velocity": 94}, {"time": 1196, "pitch": 69, "duration": 4, "velocity": 100}, {"time": 1202, "pitch": 46, "duration": 19, "velocity": 106}, {"time": 1211, "pitch": 58, "duration": 4, "velocity": 113}, {"time": 1214, "pitch": 62, "duration": 7, "velocity": 114}, {"time": 1214, "pitch": 65, "duration": 10, "velocity": 120}, {"time": 1214, "pitch": 70, "duration": 8, "velocity": 116}, {"time": 1220, "pitch": 58, "duration": 3, "velocity": 113}, {"time": 1226, "pitch": 48, "duration": 17, "velocity": 98}, {"time": 1226, "pitch": 64, "duration": 8, "velocity": 107}, {"time": 1226, "pitch": 67, "duration": 9, "velocity": 116}, {"time": 1226, "pitch": 72, "duration": 8, "velocity": 110}, {"time": 1232, "pitch": 55, "duration": 12, "velocity": 83}, {"time": 1235, "pitch": 60, "duration": 3, "velocity": 110}, {"time": 1238, "pitch": 64, "duration": 8, "velocity": 116}, {"time": 1238, "pitch": 72, "duration": 7, "velocity": 113}, {"time": 1241, "pitch": 60, "duration": 6, "velocity": 100}, {"time": 1244, "pitch": 67, "duration": 4, "velocity": 102}, {"time": 1250, "pitch": 50, "duration": 38, "velocity": 89}, {"time": 1250, "pitch": 65, "duration": 8, "velocity": 96}, {"time": 1250, "pitch": 69, "duration": 9, "velocity": 104}, {"time": 1250, "pitch": 74, "duration": 8, "velocity": 91}, {"time": 1259, "pitch": 62, "duration": 4, "velocity": 82}, {"time": 1262, "pitch": 65, "duration": 9, "velocity": 102}, {"time": 1262, "pitch": 69, "duration": 10, "velocity": 113}, {"time": 1262, "pitch": 74, "duration": 9, "velocity": 89}, {"time": 1271, "pitch": 62, "duration": 6, "velocity": 87}, {"time": 1274, "pitch": 65, "duration": 8, "velocity": 100}, {"time": 1274, "pitch": 69, "duration": 8, "velocity": 108}, {"time": 1274, "pitch": 74, "duration": 8, "velocity": 104}, {"time": 1283, "pitch": 62, "duration": 5, "velocity": 96}, {"time": 1286, "pitch": 65, "duration": 8, "velocity": 108}, {"time": 1286, "pitch": 69, "duration": 10, "velocity": 117}, {"time": 1286, "pitch": 74, "duration": 9, "velocity": 107}, {"time": 1292, "pitch": 48, "duration": 2, "velocity": 98}, {"time": 1298, "pitch": 46, "duration": 19, "velocity": 97}, {"time": 1298, "pitch": 65, "duration": 9, "velocity": 100}, {"time": 1298, "pitch": 70, "duration": 9, "velocity": 116}, {"time": 1298, "pitch": 74, "duration": 8, "velocity": 100}, {"time": 1307, "pitch": 58, "duration": 5, "velocity": 109}, {"time": 1310, "pitch": 65, "duration": 6, "velocity": 113}, {"time": 1310, "pitch": 70, "duration": 10, "velocity": 119}, {"time": 1310, "pitch": 74, "duration": 8, "velocity": 104}, {"time": 1316, "pitch": 58, "duration": 3, "velocity": 106}, {"time": 1322, "pitch": 48, "duration": 18, "velocity": 93}, {"time": 1322, "pitch": 64, "duration": 8, "velocity": 110}, {"time": 1322, "pitch": 67, "duration": 9, "velocity": 117}, {"time": 1322, "pitch": 72, "duration": 8, "velocity": 102}, {"time": 1328, "pitch": 55, "duration": 12, "velocity": 82}, {"time": 1331, "pitch": 60, "duration": 4, "velocity": 102}, {"time": 1334, "pitch": 64, "duration": 7, "velocity": 114}, {"time": 1334, "pitch": 67, "duration": 10, "velocity": 117}, {"time": 1334, "pitch": 72, "duration": 8, "velocity": 107}, {"time": 1340, "pitch": 60, "duration": 4, "velocity": 93}, {"time": 1346, "pitch": 53, "duration": 15, "velocity": 96}, {"time": 1346, "pitch": 65, "duration": 10, "velocity": 94}, {"time": 1346, "pitch": 69, "duration": 10, "velocity": 108}, {"time": 1346, "pitch": 72, "duration": 9, "velocity": 98}, {"time": 1358, "pitch": 65, "duration": 2, "velocity": 92}, {"time": 1358, "pitch": 69, "duration": 2, "velocity": 107}, {"time": 1358, "pitch": 72, "duration": 2, "velocity": 90}, {"time": 1364, "pitch": 59, "duration": 21, "velocity": 100}, {"time": 1364, "pitch": 65, "duration": 16, "velocity": 110}, {"time": 1364, "pitch": 71, "duration": 16, "velocity": 117}, {"time": 1364, "pitch": 74, "duration": 16, "velocity": 107}, {"time": 1382, "pitch": 65, "duration": 7, "velocity": 108}, {"time": 1382, "pitch": 71, "duration": 6, "velocity": 117}, {"time": 1382, "pitch": 74, "duration": 6, "velocity": 107}, {"time": 1388, "pitch": 59, "duration": 1, "velocity": 91}, {"time": 1394, "pitch": 46, "duration": 18, "velocity": 106}, {"time": 1394, "pitch": 62, "duration": 7, "velocity": 108}, {"time": 1394, "pitch": 65, "duration": 8, "velocity": 116}, {"time": 1394, "pitch": 70, "duration": 7, "velocity": 109}, {"time": 1400, "pitch": 58, "duration": 7, "velocity": 83}, {"time": 1406, "pitch": 62, "duration": 8, "velocity": 107}, {"time": 1406, "pitch": 65, "duration": 10, "velocity": 116}, {"time": 1406, "pitch": 70, "duration": 8, "velocity": 106}, {"time": 1412, "pitch": 58, "duration": 4, "velocity": 103}, {"time": 1418, "pitch": 48, "duration": 17, "velocity": 94}, {"time": 1418, "pitch": 64, "duration": 16, "velocity": 107}, {"time": 1418, "pitch": 67, "duration": 16, "velocity": 114}, {"time": 1418, "pitch": 72, "duration": 8, "velocity": 108}, {"time": 1430, "pitch": 72, "duration": 3, "velocity": 36}, {"time": 1442, "pitch": 46, "duration": 19, "velocity": 83}, {"time": 1448, "pitch": 53, "duration": 13, "velocity": 70}, {"time": 1454, "pitch": 58, "duration": 7, "velocity": 67}, {"time": 1466, "pitch": 48, "duration": 19, "velocity": 84}, {"time": 1472, "pitch": 55, "duration": 14, "velocity": 65}, {"time": 1478, "pitch": 60, "duration": 8, "velocity": 73}, {"time": 1490, "pitch": 50, "duration": 42, "velocity": 86}, {"time": 1496, "pitch": 57, "duration": 35, "velocity": 77}, {"time": 1502, "pitch": 62, "duration": 28, "velocity": 80}, {"time": 1508, "pitch": 65, "duration": 25, "velocity": 81}, {"time": 1538, "pitch": 46, "duration": 20, "velocity": 84}, {"time": 1544, "pitch": 53, "duration": 14, "velocity": 80}, {"time": 1550, "pitch": 58, "duration": 8, "velocity": 81}, {"time": 1562, "pitch": 48, "duration": 19, "velocity": 86}, {"time": 1568, "pitch": 55, "duration": 14, "velocity": 76}, {"time": 1574, "pitch": 60, "duration": 7, "velocity": 73}, {"time": 1586, "pitch": 50, "duration": 21, "velocity": 84}, {"time": 1601, "pitch": 60, "duration": 2, "velocity": 88}, {"time": 1604, "pitch": 64, "duration": 3, "velocity": 87}, {"time": 1607, "pitch": 65, "duration": 3, "velocity": 86}, {"time": 1610, "pitch": 43, "duration": 11, "velocity": 81}, {"time": 1610, "pitch": 67, "duration": 10, "velocity": 88}, {"time": 1634, "pitch": 53, "duration": 23, "velocity": 85}, {"time": 1634, "pitch": 65, "duration": 7, "velocity": 87}, {"time": 1634, "pitch": 69, "duration": 7, "velocity": 90}, {"time": 1634, "pitch": 72, "duration": 6, "velocity": 87}, {"time": 1640, "pitch": 60, "duration": 17, "velocity": 38}, {"time": 1646, "pitch": 65, "duration": 7, "velocity": 91}, {"time": 1646, "pitch": 69, "duration": 10, "velocity": 91}, {"time": 1646, "pitch": 72, "duration": 7, "velocity": 88}, {"time": 1658, "pitch": 52, "duration": 23, "velocity": 82}, {"time": 1658, "pitch": 64, "duration": 9, "velocity": 87}, {"time": 1658, "pitch": 67, "duration": 9, "velocity": 92}, {"time": 1658, "pitch": 72, "duration": 8, "velocity": 88}, {"time": 1670, "pitch": 64, "duration": 6, "velocity": 92}, {"time": 1670, "pitch": 67, "duration": 10, "velocity": 94}, {"time": 1670, "pitch": 72, "duration": 7, "velocity": 87}, {"time": 1682, "pitch": 50, "duration": 35, "velocity": 84}, {"time": 1682, "pitch": 62, "duration": 9, "velocity": 87}, {"time": 1682, "pitch": 65, "duration": 10, "velocity": 91}, {"time": 1682, "pitch": 69, "duration": 8, "velocity": 87}, {"time": 1694, "pitch": 62, "duration": 8, "velocity": 88}, {"time": 1694, "pitch": 65, "duration": 8, "velocity": 91}, {"time": 1694, "pitch": 69, "duration": 8, "velocity": 88}, {"time": 1706, "pitch": 62, "duration": 8, "velocity": 91}, {"time": 1706, "pitch": 65, "duration": 6, "velocity": 94}, {"time": 1706, "pitch": 69, "duration": 10, "velocity": 91}, {"time": 1718, "pitch": 48, "duration": 9, "velocity": 86}, {"time": 1718, "pitch": 60, "duration": 7, "velocity": 88}, {"time": 1718, "pitch": 64, "duration": 10, "velocity": 102}, {"time": 1718, "pitch": 67, "duration": 9, "velocity": 91}, {"time": 1730, "pitch": 46, "duration": 18, "velocity": 86}, {"time": 1730, "pitch": 62, "duration": 8, "velocity": 89}, {"time": 1730, "pitch": 65, "duration": 9, "velocity": 96}, {"time": 1730, "pitch": 69, "duration": 8, "velocity": 91}, {"time": 1736, "pitch": 53, "duration": 12, "velocity": 67}, {"time": 1742, "pitch": 62, "duration": 6, "velocity": 91}, {"time": 1742, "pitch": 65, "duration": 10, "velocity": 98}, {"time": 1742, "pitch": 69, "duration": 7, "velocity": 91}, {"time": 1748, "pitch": 58, "duration": 6, "velocity": 82}, {"time": 1754, "pitch": 62, "duration": 8, "velocity": 88}, {"time": 1754, "pitch": 65, "duration": 9, "velocity": 100}, {"time": 1754, "pitch": 70, "duration": 10, "velocity": 87}, {"time": 1766, "pitch": 62, "duration": 8, "velocity": 96}, {"time": 1766, "pitch": 65, "duration": 11, "velocity": 102}, {"time": 1766, "pitch": 70, "duration": 8, "velocity": 89}, {"time": 1778, "pitch": 48, "duration": 45, "velocity": 87}, {"time": 1778, "pitch": 64, "duration": 14, "velocity": 88}, {"time": 1778, "pitch": 67, "duration": 15, "velocity": 89}, {"time": 1778, "pitch": 72, "duration": 14, "velocity": 85}, {"time": 1784, "pitch": 55, "duration": 40, "velocity": 78}, {"time": 1790, "pitch": 60, "duration": 16, "velocity": 88}, {"time": 1796, "pitch": 65, "duration": 5, "velocity": 90}, {"time": 1802, "pitch": 64, "duration": 9, "velocity": 91}, {"time": 1802, "pitch": 67, "duration": 9, "velocity": 92}, {"time": 1802, "pitch": 72, "duration": 8, "velocity": 88}, {"time": 1811, "pitch": 60, "duration": 5, "velocity": 84}, {"time": 1814, "pitch": 64, "duration": 5, "velocity": 100}, {"time": 1814, "pitch": 67, "duration": 6, "velocity": 108}, {"time": 1814, "pitch": 72, "duration": 6, "velocity": 96}, {"time": 1820, "pitch": 60, "duration": 3, "velocity": 87}, {"time": 1826, "pitch": 53, "duration": 24, "velocity": 87}, {"time": 1826, "pitch": 65, "duration": 8, "velocity": 87}, {"time": 1826, "pitch": 69, "duration": 8, "velocity": 90}, {"time": 1826, "pitch": 72, "duration": 7, "velocity": 85}, {"time": 1832, "pitch": 60, "duration": 12, "velocity": 70}, {"time": 1838, "pitch": 65, "duration": 8, "velocity": 93}, {"time": 1838, "pitch": 69, "duration": 10, "velocity": 94}, {"time": 1838, "pitch": 72, "duration": 8, "velocity": 88}, {"time": 1850, "pitch": 52, "duration": 14, "velocity": 81}, {"time": 1850, "pitch": 64, "duration": 9, "velocity": 87}, {"time": 1850, "pitch": 67, "duration": 9, "velocity": 90}, {"time": 1850, "pitch": 72, "duration": 8, "velocity": 88}, {"time": 1862, "pitch": 64, "duration": 7, "velocity": 93}, {"time": 1862, "pitch": 67, "duration": 10, "velocity": 102}, {"time": 1862, "pitch": 72, "duration": 6, "velocity": 91}, {"time": 1868, "pitch": 52, "duration": 6, "velocity": 85}, {"time": 1874, "pitch": 50, "duration": 32, "velocity": 86}, {"time": 1874, "pitch": 65, "duration": 8, "velocity": 89}, {"time": 1874, "pitch": 69, "duration": 7, "velocity": 92}, {"time": 1874, "pitch": 74, "duration": 7, "velocity": 91}, {"time": 1880, "pitch": 57, "duration": 7, "velocity": 74}, {"time": 1886, "pitch": 65, "duration": 8, "velocity": 93}, {"time": 1886, "pitch": 69, "duration": 8, "velocity": 93}, {"time": 1886, "pitch": 74, "duration": 7, "velocity": 89}, {"time": 1892, "pitch": 57, "duration": 15, "velocity": 75}, {"time": 1898, "pitch": 65, "duration": 6, "velocity": 87}, {"time": 1898, "pitch": 69, "duration": 11, "velocity": 88}, {"time": 1898, "pitch": 74, "duration": 6, "velocity": 88}, {"time": 1910, "pitch": 48, "duration": 9, "velocity": 89}, {"time": 1910, "pitch": 64, "duration": 6, "velocity": 94}, {"time": 1910, "pitch": 67, "duration": 6, "velocity": 100}, {"time": 1910, "pitch": 72, "duration": 8, "velocity": 88}, {"time": 1922, "pitch": 46, "duration": 19, "velocity": 90}, {"time": 1922, "pitch": 62, "duration": 7, "velocity": 92}, {"time": 1922, "pitch": 65, "duration": 8, "velocity": 100}, {"time": 1922, "pitch": 70, "duration": 7, "velocity": 88}, {"time": 1928, "pitch": 58, "duration": 7, "velocity": 75}, {"time": 1934, "pitch": 62, "duration": 7, "velocity": 93}, {"time": 1934, "pitch": 65, "duration": 7, "velocity": 104}, {"time": 1934, "pitch": 70, "duration": 7, "velocity": 91}, {"time": 1940, "pitch": 58, "duration": 6, "velocity": 83}, {"time": 1946, "pitch": 48, "duration": 13, "velocity": 88}, {"time": 1946, "pitch": 64, "duration": 6, "velocity": 98}, {"time": 1946, "pitch": 67, "duration": 7, "velocity": 100}, {"time": 1946, "pitch": 72, "duration": 6, "velocity": 89}, {"time": 1952, "pitch": 60, "duration": 7, "velocity": 79}, {"time": 1958, "pitch": 64, "duration": 7, "velocity": 98}, {"time": 1958, "pitch": 67, "duration": 10, "velocity": 100}, {"time": 1958, "pitch": 72, "duration": 6, "velocity": 90}, {"time": 1964, "pitch": 48, "duration": 2, "velocity": 84}, {"time": 1970, "pitch": 41, "duration": 40, "velocity": 89}, {"time": 1970, "pitch": 60, "duration": 6, "velocity": 88}, {"time": 1970, "pitch": 65, "duration": 6, "velocity": 88}, {"time": 1970, "pitch": 69, "duration": 5, "velocity": 88}, {"time": 1976, "pitch": 53, "duration": 8, "velocity": 77}, {"time": 1982, "pitch": 60, "duration": 8, "velocity": 93}, {"time": 1982, "pitch": 65, "duration": 8, "velocity": 96}, {"time": 1982, "pitch": 69, "duration": 7, "velocity": 92}, {"time": 1988, "pitch": 53, "duration": 8, "velocity": 77}, {"time": 1994, "pitch": 60, "duration": 6, "velocity": 89}, {"time": 1994, "pitch": 65, "duration": 8, "velocity": 91}, {"time": 1994, "pitch": 69, "duration": 7, "velocity": 91}, {"time": 2000, "pitch": 53, "duration": 6, "velocity": 82}, {"time": 2006, "pitch": 60, "duration": 7, "velocity": 108}, {"time": 2006, "pitch": 65, "duration": 9, "velocity": 110}, {"time": 2006, "pitch": 69, "duration": 8, "velocity": 98}, {"time": 2012, "pitch": 53, "duration": 3, "velocity": 76}, {"time": 2018, "pitch": 50, "duration": 21, "velocity": 96}, {"time": 2018, "pitch": 62, "duration": 8, "velocity": 96}, {"time": 2018, "pitch": 65, "duration": 8, "velocity": 113}, {"time": 2018, "pitch": 69, "duration": 6, "velocity": 102}, {"time": 2024, "pitch": 57, "duration": 7, "velocity": 72}, {"time": 2030, "pitch": 62, "duration": 8, "velocity": 104}, {"time": 2030, "pitch": 65, "duration": 9, "velocity": 113}, {"time": 2030, "pitch": 69, "duration": 8, "velocity": 104}, {"time": 2036, "pitch": 57, "duration": 2, "velocity": 79}, {"time": 2042, "pitch": 48, "duration": 17, "velocity": 91}, {"time": 2042, "pitch": 64, "duration": 7, "velocity": 98}, {"time": 2042, "pitch": 67, "duration": 8, "velocity": 110}, {"time": 2042, "pitch": 72, "duration": 7, "velocity": 88}, {"time": 2048, "pitch": 60, "duration": 7, "velocity": 80}, {"time": 2054, "pitch": 64, "duration": 7, "velocity": 108}, {"time": 2054, "pitch": 67, "duration": 10, "velocity": 116}, {"time": 2054, "pitch": 72, "duration": 8, "velocity": 92}, {"time": 2060, "pitch": 60, "duration": 5, "velocity": 86}, {"time": 2066, "pitch": 53, "duration": 16, "velocity": 91}, {"time": 2066, "pitch": 65, "duration": 9, "velocity": 100}, {"time": 2066, "pitch": 69, "duration": 9, "velocity": 113}, {"time": 2066, "pitch": 72, "duration": 8, "velocity": 98}, {"time": 2078, "pitch": 65, "duration": 6, "velocity": 100}, {"time": 2078, "pitch": 69, "duration": 6, "velocity": 110}, {"time": 2078, "pitch": 72, "duration": 6, "velocity": 93}, {"time": 2084, "pitch": 53, "duration": 5, "velocity": 83}, {"time": 2090, "pitch": 48, "duration": 10, "velocity": 89}, {"time": 2090, "pitch": 60, "duration": 10, "velocity": 93}, {"time": 2090, "pitch": 67, "duration": 8, "velocity": 102}, {"time": 2090, "pitch": 70, "duration": 7, "velocity": 116}, {"time": 2090, "pitch": 76, "duration": 8, "velocity": 102}, {"time": 2102, "pitch": 53, "duration": 10, "velocity": 100}, {"time": 2102, "pitch": 65, "duration": 9, "velocity": 104}, {"time": 2102, "pitch": 69, "duration": 10, "velocity": 116}, {"time": 2102, "pitch": 72, "duration": 9, "velocity": 108}, {"time": 2114, "pitch": 50, "duration": 21, "velocity": 96}, {"time": 2114, "pitch": 62, "duration": 9, "velocity": 100}, {"time": 2114, "pitch": 65, "duration": 9, "velocity": 110}, {"time": 2114, "pitch": 69, "duration": 8, "velocity": 100}, {"time": 2126, "pitch": 62, "duration": 8, "velocity": 104}, {"time": 2126, "pitch": 65, "duration": 10, "velocity": 110}, {"time": 2126, "pitch": 69, "duration": 9, "velocity": 100}, {"time": 2138, "pitch": 52, "duration": 22, "velocity": 87}, {"time": 2138, "pitch": 64, "duration": 8, "velocity": 93}, {"time": 2138, "pitch": 67, "duration": 9, "velocity": 108}, {"time": 2138, "pitch": 72, "duration": 8, "velocity": 108}, {"time": 2150, "pitch": 64, "duration": 7, "velocity": 104}, {"time": 2150, "pitch": 67, "duration": 9, "velocity": 114}, {"time": 2150, "pitch": 72, "duration": 7, "velocity": 96}, {"time": 2162, "pitch": 53, "duration": 22, "velocity": 93}, {"time": 2162, "pitch": 65, "duration": 9, "velocity": 96}, {"time": 2162, "pitch": 69, "duration": 9, "velocity": 113}, {"time": 2162, "pitch": 72, "duration": 8, "velocity": 96}, {"time": 2174, "pitch": 65, "duration": 6, "velocity": 102}, {"time": 2174, "pitch": 69, "duration": 6, "velocity": 113}, {"time": 2174, "pitch": 72, "duration": 6, "velocity": 92}, {"time": 2186, "pitch": 53, "duration": 14, "velocity": 98}, {"time": 2186, "pitch": 65, "duration": 7, "velocity": 104}, {"time": 2186, "pitch": 69, "duration": 8, "velocity": 113}, {"time": 2186, "pitch": 75, "duration": 8, "velocity": 103}, {"time": 2198, "pitch": 65, "duration": 8, "velocity": 113}, {"time": 2198, "pitch": 69, "duration": 9, "velocity": 119}, {"time": 2198, "pitch": 75, "duration": 7, "velocity": 109}, {"time": 2204, "pitch": 53, "duration": 1, "velocity": 92}, {"time": 2210, "pitch": 46, "duration": 19, "velocity": 100}, {"time": 2210, "pitch": 65, "duration": 7, "velocity": 107}, {"time": 2210, "pitch": 70, "duration": 6, "velocity": 113}, {"time": 2219, "pitch": 58, "duration": 5, "velocity": 84}, {"time": 2222, "pitch": 62, "duration": 8, "velocity": 113}, {"time": 2222, "pitch": 65, "duration": 10, "velocity": 116}, {"time": 2222, "pitch": 70, "duration": 8, "velocity": 109}, {"time": 2228, "pitch": 58, "duration": 3, "velocity": 86}, {"time": 2234, "pitch": 48, "duration": 15, "velocity": 92}, {"time": 2234, "pitch": 64, "duration": 8, "velocity": 104}, {"time": 2234, "pitch": 67, "duration": 9, "velocity": 114}, {"time": 2234, "pitch": 72, "duration": 8, "velocity": 108}, {"time": 2243, "pitch": 60, "duration": 1, "velocity": 102}, {"time": 2246, "pitch": 64, "duration": 7, "velocity": 114}, {"time": 2246, "pitch": 67, "duration": 8, "velocity": 117}, {"time": 2246, "pitch": 72, "duration": 7, "velocity": 110}, {"time": 2252, "pitch": 48, "duration": 3, "velocity": 84}, {"time": 2258, "pitch": 53, "duration": 11, "velocity": 93}, {"time": 2258, "pitch": 60, "duration": 7, "velocity": 98}, {"time": 2258, "pitch": 65, "duration": 7, "velocity": 108}, {"time": 2258, "pitch": 69, "duration": 6, "velocity": 100}, {"time": 2270, "pitch": 52, "duration": 3, "velocity": 92}, {"time": 2270, "pitch": 64, "duration": 2, "velocity": 98}, {"time": 2270, "pitch": 67, "duration": 2, "velocity": 108}, {"time": 2270, "pitch": 72, "duration": 2, "velocity": 92}, {"time": 2276, "pitch": 50, "duration": 21, "velocity": 100}, {"time": 2276, "pitch": 65, "duration": 20, "velocity": 94}, {"time": 2276, "pitch": 69, "duration": 20, "velocity": 108}, {"time": 2276, "pitch": 74, "duration": 20, "velocity": 107}, {"time": 2306, "pitch": 46, "duration": 18, "velocity": 86}, {"time": 2306, "pitch": 58, "duration": 13, "velocity": 87}, {"time": 2306, "pitch": 62, "duration": 8, "velocity": 93}, {"time": 2306, "pitch": 65, "duration": 8, "velocity": 102}, {"time": 2306, "pitch": 70, "duration": 8, "velocity": 90}, {"time": 2318, "pitch": 62, "duration": 7, "velocity": 107}, {"time": 2318, "pitch": 65, "duration": 10, "velocity": 116}, {"time": 2318, "pitch": 70, "duration": 8, "velocity": 113}, {"time": 2324, "pitch": 58, "duration": 2, "velocity": 100}, {"time": 2330, "pitch": 48, "duration": 20, "velocity": 92}, {"time": 2330, "pitch": 64, "duration": 7, "velocity": 98}, {"time": 2330, "pitch": 67, "duration": 7, "velocity": 114}, {"time": 2330, "pitch": 72, "duration": 6, "velocity": 104}, {"time": 2336, "pitch": 60, "duration": 7, "velocity": 81}, {"time": 2342, "pitch": 64, "duration": 6, "velocity": 108}, {"time": 2342, "pitch": 67, "duration": 6, "velocity": 114}, {"time": 2342, "pitch": 72, "duration": 6, "velocity": 104}, {"time": 2348, "pitch": 60, "duration": 2, "velocity": 84}, {"time": 2354, "pitch": 45, "duration": 38, "velocity": 98}, {"time": 2360, "pitch": 57, "duration": 7, "velocity": 104}, {"time": 2366, "pitch": 61, "duration": 6, "velocity": 109}, {"time": 2366, "pitch": 64, "duration": 8, "velocity": 117}, {"time": 2366, "pitch": 69, "duration": 6, "velocity": 114}, {"time": 2372, "pitch": 57, "duration": 9, "velocity": 107}, {"time": 2378, "pitch": 61, "duration": 9, "velocity": 116}, {"time": 2378, "pitch": 64, "duration": 9, "velocity": 117}, {"time": 2378, "pitch": 69, "duration": 8, "velocity": 114}, {"time": 2387, "pitch": 57, "duration": 5, "velocity": 102}, {"time": 2390, "pitch": 61, "duration": 6, "velocity": 113}, {"time": 2390, "pitch": 64, "duration": 9, "velocity": 119}, {"time": 2390, "pitch": 69, "duration": 7, "velocity": 116}, {"time": 2396, "pitch": 45, "duration": 3, "velocity": 96}, {"time": 2402, "pitch": 50, "duration": 21, "velocity": 108}, {"time": 2402, "pitch": 65, "duration": 9, "velocity": 107}, {"time": 2402, "pitch": 69, "duration": 9, "velocity": 114}, {"time": 2402, "pitch": 74, "duration": 7, "velocity": 113}, {"time": 2408, "pitch": 57, "duration": 15, "velocity": 81}, {"time": 2411, "pitch": 62, "duration": 4, "velocity": 102}, {"time": 2414, "pitch": 65, "duration": 8, "velocity": 114}, {"time": 2414, "pitch": 69, "duration": 10, "velocity": 117}, {"time": 2414, "pitch": 74, "duration": 6, "velocity": 113}, {"time": 2420, "pitch": 62, "duration": 2, "velocity": 100}, {"time": 2426, "pitch": 48, "duration": 18, "velocity": 100}, {"time": 2426, "pitch": 64, "duration": 9, "velocity": 108}, {"time": 2426, "pitch": 67, "duration": 9, "velocity": 116}, {"time": 2426, "pitch": 72, "duration": 8, "velocity": 102}, {"time": 2429, "pitch": 55, "duration": 13, "velocity": 81}, {"time": 2435, "pitch": 60, "duration": 4, "velocity": 110}, {"time": 2438, "pitch": 64, "duration": 7, "velocity": 114}, {"time": 2438, "pitch": 67, "duration": 10, "velocity": 117}, {"time": 2438, "pitch": 72, "duration": 9, "velocity": 107}, {"time": 2444, "pitch": 60, "duration": 5, "velocity": 104}, {"time": 2450, "pitch": 53, "duration": 38, "velocity": 92}, {"time": 2450, "pitch": 65, "duration": 9, "velocity": 102}, {"time": 2450, "pitch": 69, "duration": 9, "velocity": 117}, {"time": 2450, "pitch": 72, "duration": 7, "velocity": 107}, {"time": 2459, "pitch": 60, "duration": 5, "velocity": 89}, {"time": 2462, "pitch": 67, "duration": 7, "velocity": 117}, {"time": 2462, "pitch": 72, "duration": 6, "velocity": 96}, {"time": 2468, "pitch": 60, "duration": 10, "velocity": 84}, {"time": 2471, "pitch": 65, "duration": 1, "velocity": 107}, {"time": 2471, "pitch": 69, "duration": 1, "velocity": 113}, {"time": 2471, "pitch": 72, "duration": 1, "velocity": 94}, {"time": 2474, "pitch": 69, "duration": 1, "velocity": 83}, {"time": 2477, "pitch": 67, "duration": 6, "velocity": 114}, {"time": 2477, "pitch": 72, "duration": 5, "velocity": 107}, {"time": 2483, "pitch": 60, "duration": 6, "velocity": 93}, {"time": 2486, "pitch": 65, "duration": 7, "velocity": 113}, {"time": 2486, "pitch": 72, "duration": 6, "velocity": 104}, {"time": 2492, "pitch": 53, "duration": 1, "velocity": 94}, {"time": 2492, "pitch": 69, "duration": 4, "velocity": 100}, {"time": 2498, "pitch": 46, "duration": 19, "velocity": 106}, {"time": 2507, "pitch": 58, "duration": 4, "velocity": 113}, {"time": 2510, "pitch": 62, "duration": 7, "velocity": 114}, {"time": 2510, "pitch": 65, "duration": 10, "velocity": 120}, {"time": 2510, "pitch": 70, "duration": 8, "velocity": 116}, {"time": 2516, "pitch": 58, "duration": 3, "velocity": 113}, {"time": 2522, "pitch": 48, "duration": 17, "velocity": 98}, {"time": 2522, "pitch": 64, "duration": 8, "velocity": 107}, {"time": 2522, "pitch": 67, "duration": 9, "velocity": 116}, {"time": 2522, "pitch": 72, "duration": 8, "velocity": 110}, {"time": 2528, "pitch": 55, "duration": 12, "velocity": 83}, {"time": 2531, "pitch": 60, "duration": 3, "velocity": 110}, {"time": 2534, "pitch": 64, "duration": 8, "velocity": 116}, {"time": 2534, "pitch": 72, "duration": 7, "velocity": 113}, {"time": 2537, "pitch": 60, "duration": 6, "velocity": 100}, {"time": 2540, "pitch": 67, "duration": 4, "velocity": 102}, {"time": 2546, "pitch": 50, "duration": 38, "velocity": 89}, {"time": 2546, "pitch": 65, "duration": 8, "velocity": 96}, {"time": 2546, "pitch": 69, "duration": 9, "velocity": 104}, {"time": 2546, "pitch": 74, "duration": 8, "velocity": 91}, {"time": 2555, "pitch": 62, "duration": 4, "velocity": 82}, {"time": 2558, "pitch": 65, "duration": 9, "velocity": 102}, {"time": 2558, "pitch": 69, "duration": 10, "velocity": 113}, {"time": 2558, "pitch": 74, "duration": 9, "velocity": 89}, {"time": 2567, "pitch": 62, "duration": 6, "velocity": 87}, {"time": 2570, "pitch": 65, "duration": 8, "velocity": 100}, {"time": 2570, "pitch": 69, "duration": 8, "velocity": 108}, {"time": 2570, "pitch": 74, "duration": 8, "velocity": 104}, {"time": 2579, "pitch": 62, "duration": 5, "velocity": 96}, {"time": 2582, "pitch": 65, "duration": 8, "velocity": 108}, {"time": 2582, "pitch": 69, "duration": 10, "velocity": 117}, {"time": 2582, "pitch": 74, "duration": 9, "velocity": 107}, {"time": 2588, "pitch": 48, "duration": 2, "velocity": 98}, {"time": 2594, "pitch": 46, "duration": 19, "velocity": 97}, {"time": 2594, "pitch": 65, "duration": 9, "velocity": 100}, {"time": 2594, "pitch": 70, "duration": 9, "velocity": 116}, {"time": 2594, "pitch": 74, "duration": 8, "velocity": 100}, {"time": 2603, "pitch": 58, "duration": 5, "velocity": 109}, {"time": 2606, "pitch": 65, "duration": 6, "velocity": 113}, {"time": 2606, "pitch": 70, "duration": 10, "velocity": 119}, {"time": 2606, "pitch": 74, "duration": 8, "velocity": 104}, {"time": 2612, "pitch": 58, "duration": 3, "velocity": 106}, {"time": 2618, "pitch": 48, "duration": 18, "velocity": 93}, {"time": 2618, "pitch": 64, "duration": 8, "velocity": 110}, {"time": 2618, "pitch": 67, "duration": 9, "velocity": 117}, {"time": 2618, "pitch": 72, "duration": 8, "velocity": 102}, {"time": 2624, "pitch": 55, "duration": 12, "velocity": 82}, {"time": 2627, "pitch": 60, "duration": 4, "velocity": 102}, {"time": 2630, "pitch": 64, "duration": 7, "velocity": 114}, {"time": 2630, "pitch": 67, "duration": 10, "velocity": 117}, {"time": 2630, "pitch": 72, "duration": 8, "velocity": 107}, {"time": 2636, "pitch": 60, "duration": 4, "velocity": 93}, {"time": 2642, "pitch": 53, "duration": 15, "velocity": 96}, {"time": 2642, "pitch": 65, "duration": 10, "velocity": 94}, {"time": 2642, "pitch": 69, "duration": 10, "velocity": 108}, {"time": 2642, "pitch": 72, "duration": 9, "velocity": 98}, {"time": 2654, "pitch": 65, "duration": 2, "velocity": 92}, {"time": 2654, "pitch": 69, "duration": 2, "velocity": 107}, {"time": 2654, "pitch": 72, "duration": 2, "velocity": 90}, {"time": 2660, "pitch": 59, "duration": 21, "velocity": 100}, {"time": 2660, "pitch": 65, "duration": 16, "velocity": 110}, {"time": 2660, "pitch": 71, "duration": 16, "velocity": 117}, {"time": 2660, "pitch": 74, "duration": 16, "velocity": 107}, {"time": 2678, "pitch": 65, "duration": 7, "velocity": 108}, {"time": 2678, "pitch": 71, "duration": 6, "velocity": 117}, {"time": 2678, "pitch": 74, "duration": 6, "velocity": 107}, {"time": 2684, "pitch": 59, "duration": 1, "velocity": 91}, {"time": 2690, "pitch": 46, "duration": 18, "velocity": 106}, {"time": 2690, "pitch": 62, "duration": 7, "velocity": 108}, {"time": 2690, "pitch": 65, "duration": 8, "velocity": 116}, {"time": 2690, "pitch": 70, "duration": 7, "velocity": 109}, {"time": 2696, "pitch": 58, "duration": 7, "velocity": 83}, {"time": 2702, "pitch": 62, "duration": 8, "velocity": 107}, {"time": 2702, "pitch": 65, "duration": 10, "velocity": 116}, {"time": 2702, "pitch": 70, "duration": 8, "velocity": 106}, {"time": 2708, "pitch": 58, "duration": 4, "velocity": 103}, {"time": 2714, "pitch": 48, "duration": 17, "velocity": 94}, {"time": 2714, "pitch": 64, "duration": 16, "velocity": 107}, {"time": 2714, "pitch": 67, "duration": 16, "velocity": 114}, {"time": 2714, "pitch": 72, "duration": 8, "velocity": 108}, {"time": 2726, "pitch": 72, "duration": 3, "velocity": 36}, {"time": 2738, "pitch": 53, "duration": 45, "velocity": 91}, {"time": 2738, "pitch": 65, "duration": 8, "velocity": 100}, {"time": 2738, "pitch": 69, "duration": 8, "velocity": 110}, {"time": 2738, "pitch": 72, "duration": 7, "velocity": 98}, {"time": 2744, "pitch": 60, "duration": 9, "velocity": 79}, {"time": 2750, "pitch": 65, "duration": 9, "velocity": 104}, {"time": 2750, "pitch": 69, "duration": 9, "velocity": 110}, {"time": 2750, "pitch": 72, "duration": 7, "velocity": 93}, {"time": 2756, "pitch": 60, "duration": 8, "velocity": 72}, {"time": 2762, "pitch": 65, "duration": 8, "velocity": 102}, {"time": 2762, "pitch": 69, "duration": 8, "velocity": 108}, {"time": 2762, "pitch": 72, "duration": 6, "velocity": 98}, {"time": 2768, "pitch": 60, "duration": 14, "velocity": 77}, {"time": 2774, "pitch": 65, "duration": 8, "velocity": 104}, {"time": 2774, "pitch": 69, "duration": 8, "velocity": 104}, {"time": 2774, "pitch": 72, "duration": 8, "velocity": 94}, {"time": 2786, "pitch": 50, "duration": 3, "velocity": 98}, {"time": 2786, "pitch": 62, "duration": 4, "velocity": 89}, {"time": 2786, "pitch": 65, "duration": 4, "velocity": 94}, {"time": 2786, "pitch": 69, "duration": 3, "velocity": 91}, {"time": 2792, "pitch": 50, "duration": 4, "velocity": 94}, {"time": 2792, "pitch": 62, "duration": 4, "velocity": 86}, {"time": 2792, "pitch": 65, "duration": 4, "velocity": 85}, {"time": 2792, "pitch": 69, "duration": 3, "velocity": 86}, {"time": 2798, "pitch": 50, "duration": 4, "velocity": 94}, {"time": 2798, "pitch": 62, "duration": 4, "velocity": 86}, {"time": 2798, "pitch": 65, "duration": 4, "velocity": 88}, {"time": 2798, "pitch": 69, "duration": 4, "velocity": 86}, {"time": 2804, "pitch": 50, "duration": 4, "velocity": 90}, {"time": 2804, "pitch": 62, "duration": 4, "velocity": 87}, {"time": 2804, "pitch": 65, "duration": 4, "velocity": 89}, {"time": 2804, "pitch": 69, "duration": 3, "velocity": 87}, {"time": 2810, "pitch": 50, "duration": 3, "velocity": 91}, {"time": 2810, "pitch": 62, "duration": 4, "velocity": 86}, {"time": 2810, "pitch": 65, "duration": 4, "velocity": 87}, {"time": 2810, "pitch": 69, "duration": 4, "velocity": 87}, {"time": 2816, "pitch": 50, "duration": 3, "velocity": 88}, {"time": 2816, "pitch": 62, "duration": 3, "velocity": 86}, {"time": 2816, "pitch": 65, "duration": 3, "velocity": 88}, {"time": 2816, "pitch": 69, "duration": 4, "velocity": 88}, {"time": 2822, "pitch": 50, "duration": 3, "velocity": 89}, {"time": 2822, "pitch": 62, "duration": 3, "velocity": 82}, {"time": 2822, "pitch": 65, "duration": 3, "velocity": 88}, {"time": 2822, "pitch": 69, "duration": 3, "velocity": 86}, {"time": 2828, "pitch": 50, "duration": 2, "velocity": 90}, {"time": 2828, "pitch": 62, "duration": 2, "velocity": 85}, {"time": 2828, "pitch": 65, "duration": 2, "velocity": 90}, {"time": 2828, "pitch": 69, "duration": 2, "velocity": 88}, {"time": 2834, "pitch": 49, "duration": 3, "velocity": 85}, {"time": 2834, "pitch": 61, "duration": 4, "velocity": 91}, {"time": 2834, "pitch": 64, "duration": 4, "velocity": 104}, {"time": 2834, "pitch": 69, "duration": 4, "velocity": 89}, {"time": 2840, "pitch": 49, "duration": 3, "velocity": 86}, {"time": 2840, "pitch": 61, "duration": 3, "velocity": 89}, {"time": 2840, "pitch": 64, "duration": 4, "velocity": 91}, {"time": 2840, "pitch": 69, "duration": 4, "velocity": 90}, {"time": 2846, "pitch": 49, "duration": 3, "velocity": 91}, {"time": 2846, "pitch": 61, "duration": 3, "velocity": 86}, {"time": 2846, "pitch": 64, "duration": 4, "velocity": 91}, {"time": 2846, "pitch": 69, "duration": 4, "velocity": 92}, {"time": 2852, "pitch": 49, "duration": 3, "velocity": 86}, {"time": 2852, "pitch": 61, "duration": 3, "velocity": 86}, {"time": 2852, "pitch": 64, "duration": 4, "velocity": 93}, {"time": 2852, "pitch": 69, "duration": 4, "velocity": 93}, {"time": 2858, "pitch": 49, "duration": 2, "velocity": 89}, {"time": 2858, "pitch": 61, "duration": 3, "velocity": 86}, {"time": 2858, "pitch": 64, "duration": 4, "velocity": 92}, {"time": 2858, "pitch": 69, "duration": 4, "velocity": 91}, {"time": 2864, "pitch": 49, "duration": 3, "velocity": 88}, {"time": 2864, "pitch": 61, "duration": 3, "velocity": 86}, {"time": 2864, "pitch": 64, "duration": 4, "velocity": 92}, {"time": 2864, "pitch": 69, "duration": 3, "velocity": 91}, {"time": 2870, "pitch": 49, "duration": 2, "velocity": 89}, {"time": 2870, "pitch": 61, "duration": 3, "velocity": 87}, {"time": 2870, "pitch": 64, "duration": 4, "velocity": 94}, {"time": 2870, "pitch": 69, "duration": 3, "velocity": 91}, {"time": 2876, "pitch": 49, "duration": 1, "velocity": 91}, {"time": 2876, "pitch": 61, "duration": 3, "velocity": 88}, {"time": 2876, "pitch": 64, "duration": 3, "velocity": 98}, {"time": 2876, "pitch": 69, "duration": 3, "velocity": 93}, {"time": 2882, "pitch": 46, "duration": 3, "velocity": 91}, {"time": 2882, "pitch": 58, "duration": 4, "velocity": 95}, {"time": 2882, "pitch": 62, "duration": 4, "velocity": 104}, {"time": 2882, "pitch": 65, "duration": 4, "velocity": 113}, {"time": 2882, "pitch": 69, "duration": 4, "velocity": 104}, {"time": 2888, "pitch": 46, "duration": 3, "velocity": 90}, {"time": 2888, "pitch": 58, "duration": 3, "velocity": 90}, {"time": 2888, "pitch": 62, "duration": 4, "velocity": 98}, {"time": 2888, "pitch": 65, "duration": 4, "velocity": 110}, {"time": 2888, "pitch": 69, "duration": 3, "velocity": 104}, {"time": 2894, "pitch": 46, "duration": 3, "velocity": 95}, {"time": 2894, "pitch": 58, "duration": 3, "velocity": 89}, {"time": 2894, "pitch": 62, "duration": 4, "velocity": 91}, {"time": 2894, "pitch": 65, "duration": 3, "velocity": 107}, {"time": 2894, "pitch": 69, "duration": 3, "velocity": 96}, {"time": 2900, "pitch": 46, "duration": 3, "velocity": 95}, {"time": 2900, "pitch": 58, "duration": 3, "velocity": 93}, {"time": 2900, "pitch": 62, "duration": 4, "velocity": 94}, {"time": 2900, "pitch": 65, "duration": 4, "velocity": 108}, {"time": 2900, "pitch": 69, "duration": 3, "velocity": 102}, {"time": 2906, "pitch": 46, "duration": 3, "velocity": 93}, {"time": 2906, "pitch": 58, "duration": 3, "velocity": 87}, {"time": 2906, "pitch": 62, "duration": 3, "velocity": 98}, {"time": 2906, "pitch": 65, "duration": 3, "velocity": 108}, {"time": 2906, "pitch": 69, "duration": 3, "velocity": 102}, {"time": 2912, "pitch": 46, "duration": 3, "velocity": 89}, {"time": 2912, "pitch": 58, "duration": 3, "velocity": 93}, {"time": 2912, "pitch": 62, "duration": 3, "velocity": 98}, {"time": 2912, "pitch": 65, "duration": 3, "velocity": 108}, {"time": 2912, "pitch": 69, "duration": 3, "velocity": 98}, {"time": 2918, "pitch": 46, "duration": 3, "velocity": 97}, {"time": 2918, "pitch": 58, "duration": 3, "velocity": 95}, {"time": 2918, "pitch": 62, "duration": 3, "velocity": 98}, {"time": 2918, "pitch": 65, "duration": 3, "velocity": 110}, {"time": 2918, "pitch": 69, "duration": 3, "velocity": 100}, {"time": 2924, "pitch": 46, "duration": 3, "velocity": 90}, {"time": 2924, "pitch": 58, "duration": 3, "velocity": 103}, {"time": 2924, "pitch": 62, "duration": 3, "velocity": 98}, {"time": 2924, "pitch": 65, "duration": 3, "velocity": 108}, {"time": 2924, "pitch": 69, "duration": 3, "velocity": 96}, {"time": 2930, "pitch": 41, "duration": 4, "velocity": 84}, {"time": 2930, "pitch": 53, "duration": 3, "velocity": 91}, {"time": 2930, "pitch": 60, "duration": 3, "velocity": 90}, {"time": 2930, "pitch": 65, "duration": 4, "velocity": 100}, {"time": 2930, "pitch": 69, "duration": 3, "velocity": 88}, {"time": 2936, "pitch": 41, "duration": 3, "velocity": 88}, {"time": 2936, "pitch": 53, "duration": 3, "velocity": 88}, {"time": 2936, "pitch": 60, "duration": 4, "velocity": 88}, {"time": 2936, "pitch": 65, "duration": 4, "velocity": 91}, {"time": 2936, "pitch": 69, "duration": 3, "velocity": 87}, {"time": 2942, "pitch": 41, "duration": 3, "velocity": 88}, {"time": 2942, "pitch": 53, "duration": 3, "velocity": 91}, {"time": 2942, "pitch": 60, "duration": 3, "velocity": 89}, {"time": 2942, "pitch": 65, "duration": 3, "velocity": 93}, {"time": 2942, "pitch": 69, "duration": 3, "velocity": 87}, {"time": 2948, "pitch": 41, "duration": 3, "velocity": 87}, {"time": 2948, "pitch": 53, "duration": 3, "velocity": 87}, {"time": 2948, "pitch": 60, "duration": 4, "velocity": 84}, {"time": 2948, "pitch": 65, "duration": 4, "velocity": 86}, {"time": 2948, "pitch": 69, "duration": 3, "velocity": 84}, {"time": 2954, "pitch": 41, "duration": 6, "velocity": 88}, {"time": 2954, "pitch": 53, "duration": 6, "velocity": 87}, {"time": 2954, "pitch": 60, "duration": 3, "velocity": 86}, {"time": 2954, "pitch": 65, "duration": 4, "velocity": 90}, {"time": 2954, "pitch": 69, "duration": 3, "velocity": 87}, {"time": 2960, "pitch": 60, "duration": 3, "velocity": 81}, {"time": 2960, "pitch": 65, "duration": 3, "velocity": 86}, {"time": 2960, "pitch": 69, "duration": 2, "velocity": 81}, {"time": 2963, "pitch": 41, "duration": 4, "velocity": 98}, {"time": 2963, "pitch": 53, "duration": 4, "velocity": 96}, {"time": 2966, "pitch": 60, "duration": 7, "velocity": 110}, {"time": 2966, "pitch": 65, "duration": 8, "velocity": 117}, {"time": 2966, "pitch": 69, "duration": 8, "velocity": 113}, {"time": 2972, "pitch": 41, "duration": 1, "velocity": 91}, {"time": 2972, "pitch": 53, "duration": 2, "velocity": 102}, {"time": 2978, "pitch": 45, "duration": 42, "velocity": 87}, {"time": 2978, "pitch": 57, "duration": 30, "velocity": 88}, {"time": 2978, "pitch": 61, "duration": 3, "velocity": 93}, {"time": 2978, "pitch": 64, "duration": 4, "velocity": 102}, {"time": 2978, "pitch": 69, "duration": 3, "velocity": 98}, {"time": 2984, "pitch": 61, "duration": 4, "velocity": 84}, {"time": 2984, "pitch": 64, "duration": 4, "velocity": 88}, {"time": 2984, "pitch": 69, "duration": 4, "velocity": 84}, {"time": 2990, "pitch": 61, "duration": 3, "velocity": 89}, {"time": 2990, "pitch": 64, "duration": 3, "velocity": 102}, {"time": 2990, "pitch": 69, "duration": 3, "velocity": 104}, {"time": 2996, "pitch": 61, "duration": 4, "velocity": 85}, {"time": 2996, "pitch": 64, "duration": 4, "velocity": 90}, {"time": 2996, "pitch": 69, "duration": 4, "velocity": 89}, {"time": 3002, "pitch": 61, "duration": 4, "velocity": 87}, {"time": 3002, "pitch": 64, "duration": 4, "velocity": 98}, {"time": 3002, "pitch": 69, "duration": 4, "velocity": 98}, {"time": 3008, "pitch": 61, "duration": 3, "velocity": 83}, {"time": 3008, "pitch": 64, "duration": 3, "velocity": 89}, {"time": 3008, "pitch": 69, "duration": 3, "velocity": 88}, {"time": 3011, "pitch": 57, "duration": 4, "velocity": 94}, {"time": 3014, "pitch": 61, "duration": 7, "velocity": 97}, {"time": 3014, "pitch": 64, "duration": 7, "velocity": 116}, {"time": 3014, "pitch": 69, "duration": 7, "velocity": 113}, {"time": 3020, "pitch": 57, "duration": 2, "velocity": 92}, {"time": 3026, "pitch": 46, "duration": 6, "velocity": 89}, {"time": 3026, "pitch": 58, "duration": 6, "velocity": 93}, {"time": 3026, "pitch": 62, "duration": 4, "velocity": 107}, {"time": 3026, "pitch": 65, "duration": 4, "velocity": 114}, {"time": 3026, "pitch": 70, "duration": 4, "velocity": 103}, {"time": 3032, "pitch": 62, "duration": 3, "velocity": 83}, {"time": 3032, "pitch": 65, "duration": 3, "velocity": 89}, {"time": 3032, "pitch": 70, "duration": 3, "velocity": 85}, {"time": 3035, "pitch": 46, "duration": 34, "velocity": 88}, {"time": 3035, "pitch": 58, "duration": 16, "velocity": 97}, {"time": 3038, "pitch": 62, "duration": 4, "velocity": 108}, {"time": 3038, "pitch": 65, "duration": 4, "velocity": 117}, {"time": 3038, "pitch": 70, "duration": 3, "velocity": 116}, {"time": 3044, "pitch": 62, "duration": 4, "velocity": 100}, {"time": 3044, "pitch": 65, "duration": 4, "velocity": 110}, {"time": 3044, "pitch": 70, "duration": 4, "velocity": 103}, {"time": 3050, "pitch": 62, "duration": 3, "velocity": 94}, {"time": 3050, "pitch": 65, "duration": 4, "velocity": 110}, {"time": 3050, "pitch": 70, "duration": 4, "velocity": 103}, {"time": 3056, "pitch": 62, "duration": 3, "velocity": 96}, {"time": 3056, "pitch": 65, "duration": 3, "velocity": 107}, {"time": 3056, "pitch": 70, "duration": 3, "velocity": 95}, {"time": 3059, "pitch": 58, "duration": 4, "velocity": 91}, {"time": 3062, "pitch": 62, "duration": 7, "velocity": 110}, {"time": 3062, "pitch": 65, "duration": 8, "velocity": 116}, {"time": 3062, "pitch": 70, "duration": 7, "velocity": 113}, {"time": 3068, "pitch": 58, "duration": 3, "velocity": 90}, {"time": 3074, "pitch": 43, "duration": 19, "velocity": 100}, {"time": 3074, "pitch": 62, "duration": 3, "velocity": 108}, {"time": 3074, "pitch": 67, "duration": 3, "velocity": 116}, {"time": 3074, "pitch": 70, "duration": 3, "velocity": 113}, {"time": 3080, "pitch": 62, "duration": 4, "velocity": 89}, {"time": 3080, "pitch": 67, "duration": 4, "velocity": 102}, {"time": 3080, "pitch": 70, "duration": 3, "velocity": 86}, {"time": 3086, "pitch": 62, "duration": 4, "velocity": 104}, {"time": 3086, "pitch": 67, "duration": 4, "velocity": 113}, {"time": 3086, "pitch": 70, "duration": 3, "velocity": 100}, {"time": 3092, "pitch": 62, "duration": 3, "velocity": 100}, {"time": 3092, "pitch": 67, "duration": 4, "velocity": 114}, {"time": 3092, "pitch": 70, "duration": 3, "velocity": 103}, {"time": 3098, "pitch": 44, "duration": 19, "velocity": 109}, {"time": 3098, "pitch": 62, "duration": 4, "velocity": 107}, {"time": 3098, "pitch": 68, "duration": 4, "velocity": 119}, {"time": 3104, "pitch": 62, "duration": 4, "velocity": 102}, {"time": 3104, "pitch": 68, "duration": 4, "velocity": 109}, {"time": 3110, "pitch": 56, "duration": 6, "velocity": 103}, {"time": 3110, "pitch": 62, "duration": 4, "velocity": 110}, {"time": 3110, "pitch": 68, "duration": 4, "velocity": 119}, {"time": 3116, "pitch": 62, "duration": 2, "velocity": 108}, {"time": 3116, "pitch": 68, "duration": 2, "velocity": 116}, {"time": 3122, "pitch": 45, "duration": 45, "velocity": 98}, {"time": 3122, "pitch": 61, "duration": 11, "velocity": 113}, {"time": 3122, "pitch": 64, "duration": 10, "velocity": 119}, {"time": 3122, "pitch": 69, "duration": 10, "velocity": 119}, {"time": 3128, "pitch": 52, "duration": 40, "velocity": 81}, {"time": 3134, "pitch": 61, "duration": 4, "velocity": 97}, {"time": 3134, "pitch": 64, "duration": 4, "velocity": 113}, {"time": 3134, "pitch": 69, "duration": 4, "velocity": 110}, {"time": 3140, "pitch": 61, "duration": 4, "velocity": 90}, {"time": 3140, "pitch": 64, "duration": 4, "velocity": 104}, {"time": 3140, "pitch": 69, "duration": 3, "velocity": 102}, {"time": 3143, "pitch": 57, "duration": 5, "velocity": 77}, {"time": 3146, "pitch": 61, "duration": 9, "velocity": 109}, {"time": 3146, "pitch": 64, "duration": 9, "velocity": 119}, {"time": 3146, "pitch": 69, "duration": 9, "velocity": 117}, {"time": 3155, "pitch": 57, "duration": 4, "velocity": 96}, {"time": 3158, "pitch": 61, "duration": 7, "velocity": 113}, {"time": 3158, "pitch": 64, "duration": 7, "velocity": 117}, {"time": 3158, "pitch": 69, "duration": 7, "velocity": 116}, {"time": 3164, "pitch": 57, "duration": 3, "velocity": 86}, {"time": 3170, "pitch": 45, "duration": 21, "velocity": 94}, {"time": 3170, "pitch": 57, "duration": 14, "velocity": 104}, {"time": 3170, "pitch": 61, "duration": 8, "velocity": 106}, {"time": 3170, "pitch": 64, "duration": 8, "velocity": 117}, {"time": 3170, "pitch": 69, "duration": 9, "velocity": 116}, {"time": 3182, "pitch": 61, "duration": 7, "velocity": 103}, {"time": 3182, "pitch": 64, "duration": 7, "velocity": 117}, {"time": 3182, "pitch": 69, "duration": 7, "velocity": 116}, {"time": 3188, "pitch": 57, "duration": 4, "velocity": 86}, {"time": 3194, "pitch": 45, "duration": 15, "velocity": 94}, {"time": 3194, "pitch": 57, "duration": 15, "velocity": 108}, {"time": 3194, "pitch": 61, "duration": 14, "velocity": 109}, {"time": 3194, "pitch": 64, "duration": 14, "velocity": 117}, {"time": 3194, "pitch": 69, "duration": 14, "velocity": 119}, {"time": 3218, "pitch": 50, "duration": 22, "velocity": 86}, {"time": 3218, "pitch": 62, "duration": 9, "velocity": 84}, {"time": 3218, "pitch": 65, "duration": 9, "velocity": 87}, {"time": 3218, "pitch": 69, "duration": 8, "velocity": 84}, {"time": 3230, "pitch": 62, "duration": 8, "velocity": 87}, {"time": 3230, "pitch": 65, "duration": 10, "velocity": 87}, {"time": 3230, "pitch": 69, "duration": 8, "velocity": 88}, {"time": 3242, "pitch": 48, "duration": 21, "velocity": 85}, {"time": 3242, "pitch": 64, "duration": 8, "velocity": 85}, {"time": 3242, "pitch": 67, "duration": 8, "velocity": 86}, {"time": 3242, "pitch": 72, "duration": 7, "velocity": 88}, {"time": 3254, "pitch": 64, "duration": 6, "velocity": 87}, {"time": 3254, "pitch": 67, "duration": 6, "velocity": 88}, {"time": 3254, "pitch": 72, "duration": 5, "velocity": 87}, {"time": 3266, "pitch": 53, "duration": 40, "velocity": 86}, {"time": 3266, "pitch": 60, "duration": 8, "velocity": 87}, {"time": 3266, "pitch": 65, "duration": 9, "velocity": 88}, {"time": 3266, "pitch": 69, "duration": 7, "velocity": 88}, {"time": 3278, "pitch": 60, "duration": 9, "velocity": 86}, {"time": 3278, "pitch": 65, "duration": 9, "velocity": 88}, {"time": 3278, "pitch": 69, "duration": 8, "velocity": 86}, {"time": 3290, "pitch": 60, "duration": 8, "velocity": 88}, {"time": 3290, "pitch": 63, "duration": 8, "velocity": 100}, {"time": 3290, "pitch": 65, "duration": 8, "velocity": 96}, {"time": 3290, "pitch": 69, "duration": 8, "velocity": 88}, {"time": 3302, "pitch": 60, "duration": 6, "velocity": 94}, {"time": 3302, "pitch": 65, "duration": 8, "velocity": 108}, {"time": 3302, "pitch": 69, "duration": 7, "velocity": 98}, {"time": 3314, "pitch": 46, "duration": 13, "velocity": 85}, {"time": 3314, "pitch": 58, "duration": 14, "velocity": 87}, {"time": 3314, "pitch": 62, "duration": 8, "velocity": 87}, {"time": 3314, "pitch": 65, "duration": 8, "velocity": 94}, {"time": 3314, "pitch": 70, "duration": 8, "velocity": 90}, {"time": 3326, "pitch": 62, "duration": 7, "velocity": 92}, {"time": 3326, "pitch": 65, "duration": 10, "velocity": 110}, {"time": 3326, "pitch": 70, "duration": 7, "velocity": 97}, {"time": 3332, "pitch": 46, "duration": 1, "velocity": 89}, {"time": 3332, "pitch": 58, "duration": 2, "velocity": 95}, {"time": 3338, "pitch": 48, "duration": 4, "velocity": 91}, {"time": 3338, "pitch": 60, "duration": 8, "velocity": 108}, {"time": 3338, "pitch": 64, "duration": 9, "velocity": 114}, {"time": 3338, "pitch": 67, "duration": 8, "velocity": 110}, {"time": 3344, "pitch": 48, "duration": 5, "velocity": 107}, {"time": 3347, "pitch": 60, "duration": 8, "velocity": 108}, {"time": 3350, "pitch": 64, "duration": 9, "velocity": 119}, {"time": 3350, "pitch": 67, "duration": 7, "velocity": 116}, {"time": 3353, "pitch": 48, "duration": 4, "velocity": 107}, {"time": 3362, "pitch": 50, "duration": 38, "velocity": 102}, {"time": 3362, "pitch": 62, "duration": 9, "velocity": 107}, {"time": 3362, "pitch": 65, "duration": 9, "velocity": 114}, {"time": 3362, "pitch": 69, "duration": 8, "velocity": 108}, {"time": 3371, "pitch": 57, "duration": 5, "velocity": 87}, {"time": 3374, "pitch": 62, "duration": 7, "velocity": 110}, {"time": 3374, "pitch": 65, "duration": 7, "velocity": 116}, {"time": 3374, "pitch": 69, "duration": 6, "velocity": 110}, {"time": 3380, "pitch": 57, "duration": 9, "velocity": 84}, {"time": 3383, "pitch": 62, "duration": 1, "velocity": 93}, {"time": 3383, "pitch": 65, "duration": 1, "velocity": 100}, {"time": 3383, "pitch": 69, "duration": 1, "velocity": 92}, {"time": 3389, "pitch": 62, "duration": 6, "velocity": 102}, {"time": 3389, "pitch": 65, "duration": 6, "velocity": 113}, {"time": 3389, "pitch": 69, "duration": 5, "velocity": 104}, {"time": 3395, "pitch": 57, "duration": 6, "velocity": 94}, {"time": 3398, "pitch": 62, "duration": 10, "velocity": 110}, {"time": 3398, "pitch": 65, "duration": 10, "velocity": 117}, {"time": 3398, "pitch": 69, "duration": 7, "velocity": 113}, {"time": 3404, "pitch": 48, "duration": 1, "velocity": 96}, {"time": 3410, "pitch": 46, "duration": 19, "velocity": 93}, {"time": 3410, "pitch": 62, "duration": 9, "velocity": 107}, {"time": 3410, "pitch": 65, "duration": 10, "velocity": 114}, {"time": 3410, "pitch": 70, "duration": 9, "velocity": 103}, {"time": 3419, "pitch": 58, "duration": 5, "velocity": 109}, {"time": 3422, "pitch": 62, "duration": 8, "velocity": 110}, {"time": 3422, "pitch": 65, "duration": 10, "velocity": 117}, {"time": 3422, "pitch": 70, "duration": 10, "velocity": 113}, {"time": 3428, "pitch": 58, "duration": 3, "velocity": 109}, {"time": 3434, "pitch": 48, "duration": 19, "velocity": 102}, {"time": 3434, "pitch": 64, "duration": 9, "velocity": 110}, {"time": 3434, "pitch": 67, "duration": 9, "velocity": 114}, {"time": 3434, "pitch": 72, "duration": 9, "velocity": 107}, {"time": 3443, "pitch": 60, "duration": 4, "velocity": 104}, {"time": 3446, "pitch": 64, "duration": 9, "velocity": 110}, {"time": 3446, "pitch": 67, "duration": 9, "velocity": 114}, {"time": 3446, "pitch": 72, "duration": 9, "velocity": 107}, {"time": 3452, "pitch": 60, "duration": 4, "velocity": 98}, {"time": 3458, "pitch": 53, "duration": 10, "velocity": 93}, {"time": 3458, "pitch": 65, "duration": 8, "velocity": 108}, {"time": 3458, "pitch": 69, "duration": 9, "velocity": 117}, {"time": 3458, "pitch": 72, "duration": 8, "velocity": 104}, {"time": 3476, "pitch": 59, "duration": 20, "velocity": 96}, {"time": 3476, "pitch": 62, "duration": 21, "velocity": 104}, {"time": 3476, "pitch": 65, "duration": 21, "velocity": 110}, {"time": 3476, "pitch": 71, "duration": 20, "velocity": 104}, {"time": 3500, "pitch": 62, "duration": 4, "velocity": 91}, {"time": 3500, "pitch": 65, "duration": 4, "velocity": 102}, {"time": 3500, "pitch": 71, "duration": 3, "velocity": 91}, {"time": 3506, "pitch": 46, "duration": 14, "velocity": 86}, {"time": 3506, "pitch": 58, "duration": 6, "velocity": 89}, {"time": 3506, "pitch": 62, "duration": 10, "velocity": 96}, {"time": 3506, "pitch": 65, "duration": 10, "velocity": 107}, {"time": 3506, "pitch": 70, "duration": 10, "velocity": 93}, {"time": 3515, "pitch": 58, "duration": 5, "velocity": 97}, {"time": 3518, "pitch": 62, "duration": 9, "velocity": 102}, {"time": 3518, "pitch": 65, "duration": 10, "velocity": 114}, {"time": 3518, "pitch": 70, "duration": 8, "velocity": 109}, {"time": 3524, "pitch": 46, "duration": 1, "velocity": 93}, {"time": 3524, "pitch": 58, "duration": 2, "velocity": 93}, {"time": 3530, "pitch": 48, "duration": 19, "velocity": 93}, {"time": 3530, "pitch": 64, "duration": 18, "velocity": 107}, {"time": 3530, "pitch": 67, "duration": 19, "velocity": 113}, {"time": 3530, "pitch": 72, "duration": 18, "velocity": 104}, {"time": 3554, "pitch": 50, "duration": 42, "velocity": 96}, {"time": 3554, "pitch": 62, "duration": 8, "velocity": 91}, {"time": 3554, "pitch": 65, "duration": 8, "velocity": 102}, {"time": 3554, "pitch": 69, "duration": 7, "velocity": 91}, {"time": 3563, "pitch": 57, "duration": 5, "velocity": 85}, {"time": 3566, "pitch": 62, "duration": 10, "velocity": 108}, {"time": 3566, "pitch": 65, "duration": 10, "velocity": 113}, {"time": 3566, "pitch": 69, "duration": 9, "velocity": 108}, {"time": 3572, "pitch": 57, "duration": 10, "velocity": 85}, {"time": 3578, "pitch": 62, "duration": 9, "velocity": 100}, {"time": 3578, "pitch": 65, "duration": 9, "velocity": 107}, {"time": 3578, "pitch": 69, "duration": 8, "velocity": 94}, {"time": 3587, "pitch": 57, "duration": 5, "velocity": 86}, {"time": 3590, "pitch": 62, "duration": 9, "velocity": 108}, {"time": 3590, "pitch": 65, "duration": 9, "velocity": 116}, {"time": 3590, "pitch": 69, "duration": 7, "velocity": 108}, {"time": 3596, "pitch": 57, "duration": 1, "velocity": 88}, {"time": 3602, "pitch": 46, "duration": 19, "velocity": 93}, {"time": 3602, "pitch": 62, "duration": 9, "velocity": 98}, {"time": 3602, "pitch": 65, "duration": 9, "velocity": 110}, {"time": 3602, "pitch": 70, "duration": 8, "velocity": 100}, {"time": 3608, "pitch": 58, "duration": 6, "velocity": 84}, {"time": 3614, "pitch": 62, "duration": 8, "velocity": 107}, {"time": 3614, "pitch": 65, "duration": 10, "velocity": 116}, {"time": 3614, "pitch": 70, "duration": 8, "velocity": 113}, {"time": 3620, "pitch": 58, "duration": 3, "velocity": 100}, {"time": 3626, "pitch": 48, "duration": 21, "velocity": 83}, {"time": 3626, "pitch": 64, "duration": 9, "velocity": 104}, {"time": 3626, "pitch": 67, "duration": 9, "velocity": 114}, {"time": 3626, "pitch": 72, "duration": 8, "velocity": 108}, {"time": 3632, "pitch": 60, "duration": 4, "velocity": 91}, {"time": 3638, "pitch": 64, "duration": 7, "velocity": 108}, {"time": 3638, "pitch": 67, "duration": 9, "velocity": 114}, {"time": 3638, "pitch": 72, "duration": 7, "velocity": 107}, {"time": 3644, "pitch": 60, "duration": 3, "velocity": 87}, {"time": 3650, "pitch": 53, "duration": 10, "velocity": 94}, {"time": 3650, "pitch": 60, "duration": 8, "velocity": 107}, {"time": 3650, "pitch": 65, "duration": 10, "velocity": 116}, {"time": 3650, "pitch": 69, "duration": 9, "velocity": 110}, {"time": 3662, "pitch": 53, "duration": 1, "velocity": 100}, {"time": 3662, "pitch": 60, "duration": 1, "velocity": 98}, {"time": 3662, "pitch": 65, "duration": 1, "velocity": 113}, {"time": 3662, "pitch": 69, "duration": 1, "velocity": 100}, {"time": 3668, "pitch": 62, "duration": 20, "velocity": 108}, {"time": 3668, "pitch": 65, "duration": 20, "velocity": 114}, {"time": 3668, "pitch": 71, "duration": 20, "velocity": 108}, {"time": 3692, "pitch": 62, "duration": 3, "velocity": 110}, {"time": 3692, "pitch": 65, "duration": 3, "velocity": 116}, {"time": 3692, "pitch": 71, "duration": 2, "velocity": 107}, {"time": 3698, "pitch": 46, "duration": 47, "velocity": 87}, {"time": 3698, "pitch": 58, "duration": 30, "velocity": 87}, {"time": 3698, "pitch": 62, "duration": 3, "velocity": 96}, {"time": 3698, "pitch": 65, "duration": 3, "velocity": 110}, {"time": 3698, "pitch": 70, "duration": 3, "velocity": 103}, {"time": 3704, "pitch": 62, "duration": 4, "velocity": 98}, {"time": 3704, "pitch": 65, "duration": 3, "velocity": 110}, {"time": 3704, "pitch": 70, "duration": 3, "velocity": 103}, {"time": 3710, "pitch": 62, "duration": 4, "velocity": 96}, {"time": 3710, "pitch": 65, "duration": 4, "velocity": 110}, {"time": 3710, "pitch": 70, "duration": 3, "velocity": 103}, {"time": 3716, "pitch": 62, "duration": 3, "velocity": 94}, {"time": 3716, "pitch": 65, "duration": 4, "velocity": 108}, {"time": 3716, "pitch": 70, "duration": 3, "velocity": 97}, {"time": 3722, "pitch": 62, "duration": 3, "velocity": 94}, {"time": 3722, "pitch": 65, "duration": 3, "velocity": 108}, {"time": 3722, "pitch": 70, "duration": 3, "velocity": 97}, {"time": 3728, "pitch": 62, "duration": 3, "velocity": 90}, {"time": 3728, "pitch": 65, "duration": 3, "velocity": 98}, {"time": 3728, "pitch": 70, "duration": 3, "velocity": 88}, {"time": 3731, "pitch": 58, "duration": 3, "velocity": 89}, {"time": 3734, "pitch": 62, "duration": 3, "velocity": 107}, {"time": 3734, "pitch": 65, "duration": 3, "velocity": 114}, {"time": 3734, "pitch": 70, "duration": 3, "velocity": 113}, {"time": 3740, "pitch": 62, "duration": 4, "velocity": 98}, {"time": 3740, "pitch": 65, "duration": 4, "velocity": 110}, {"time": 3740, "pitch": 70, "duration": 4, "velocity": 97}, {"time": 3746, "pitch": 48, "duration": 37, "velocity": 88}, {"time": 3746, "pitch": 60, "duration": 36, "velocity": 87}, {"time": 3746, "pitch": 64, "duration": 36, "velocity": 100}, {"time": 3746, "pitch": 67, "duration": 37, "velocity": 113}, {"time": 3746, "pitch": 72, "duration": 37, "velocity": 98}, {"time": 3794, "pitch": 46, "duration": 19, "velocity": 83}, {"time": 3800, "pitch": 53, "duration": 13, "velocity": 70}, {"time": 3806, "pitch": 58, "duration": 7, "velocity": 67}, {"time": 3818, "pitch": 48, "duration": 19, "velocity": 84}, {"time": 3824, "pitch": 55, "duration": 14, "velocity": 65}, {"time": 3830, "pitch": 60, "duration": 8, "velocity": 73}, {"time": 3842, "pitch": 50, "duration": 42, "velocity": 86}, {"time": 3848, "pitch": 57, "duration": 35, "velocity": 77}, {"time": 3854, "pitch": 62, "duration": 28, "velocity": 80}, {"time": 3860, "pitch": 65, "duration": 25, "velocity": 81}, {"time": 3890, "pitch": 46, "duration": 20, "velocity": 84}, {"time": 3896, "pitch": 53, "duration": 14, "velocity": 80}, {"time": 3902, "pitch": 58, "duration": 8, "velocity": 81}, {"time": 3914, "pitch": 48, "duration": 19, "velocity": 86}, {"time": 3920, "pitch": 55, "duration": 14, "velocity": 76}, {"time": 3926, "pitch": 60, "duration": 7, "velocity": 73}, {"time": 3938, "pitch": 50, "duration": 21, "velocity": 84}, {"time": 3953, "pitch": 60, "duration": 2, "velocity": 88}, {"time": 3956, "pitch": 64, "duration": 3, "velocity": 87}, {"time": 3959, "pitch": 65, "duration": 3, "velocity": 86}, {"time": 3962, "pitch": 43, "duration": 11, "velocity": 81}, {"time": 3962, "pitch": 67, "duration": 10, "velocity": 88}, {"time": 4031, "pitch": 60, "duration": 28, "velocity": 79}, {"time": 4032, "pitch": 57, "duration": 2, "velocity": 90}, {"time": 4034, "pitch": 29, "duration": 32, "velocity": 87}, {"time": 4034, "pitch": 41, "duration": 32, "velocity": 84}, {"time": 4034, "pitch": 53, "duration": 27, "velocity": 91}]}]}