{"metadata": {"schema_version": "0.2", "title": "None", "source_filename": "345.mid", "source_format": "midi"}, "resolution": 12, "tempos": [{"time": 0, "qpm": 80.0}], "key_signatures": [{"time": 0, "root": 0, "mode": "major"}], "time_signatures": [{"time": 0, "numerator": 4, "denominator": 4}], "tracks": [{"program": 0, "is_drum": false, "name": "MELODY", "notes": [{"time": 584, "pitch": 71, "duration": 30, "velocity": 114}, {"time": 614, "pitch": 71, "duration": 6, "velocity": 114}, {"time": 620, "pitch": 72, "duration": 6, "velocity": 107}, {"time": 626, "pitch": 74, "duration": 3, "velocity": 104}, {"time": 629, "pitch": 74, "duration": 9, "velocity": 104}, {"time": 638, "pitch": 72, "duration": 6, "velocity": 100}, {"time": 644, "pitch": 72, "duration": 6, "velocity": 98}, {"time": 650, "pitch": 71, "duration": 3, "velocity": 86}, {"time": 653, "pitch": 71, "duration": 9, "velocity": 91}, {"time": 662, "pitch": 69, "duration": 18, "velocity": 100}, {"time": 680, "pitch": 71, "duration": 30, "velocity": 107}, {"time": 710, "pitch": 71, "duration": 6, "velocity": 102}, {"time": 716, "pitch": 71, "duration": 6, "velocity": 107}, {"time": 722, "pitch": 76, "duration": 6, "velocity": 108}, {"time": 728, "pitch": 76, "duration": 6, "velocity": 110}, {"time": 734, "pitch": 74, "duration": 6, "velocity": 108}, {"time": 740, "pitch": 74, "duration": 6, "velocity": 107}, {"time": 746, "pitch": 71, "duration": 3, "velocity": 102}, {"time": 749, "pitch": 74, "duration": 27, "velocity": 110}, {"time": 776, "pitch": 79, "duration": 30, "velocity": 113}, {"time": 806, "pitch": 79, "duration": 6, "velocity": 113}, {"time": 812, "pitch": 79, "duration": 6, "velocity": 107}, {"time": 818, "pitch": 79, "duration": 6, "velocity": 108}, {"time": 824, "pitch": 76, "duration": 6, "velocity": 107}, {"time": 830, "pitch": 74, "duration": 12, "velocity": 107}, {"time": 842, "pitch": 71, "duration": 24, "velocity": 110}, {"time": 866, "pitch": 71, "duration": 6, "velocity": 107}, {"time": 872, "pitch": 71, "duration": 6, "velocity": 113}, {"time": 878, "pitch": 69, "duration": 6, "velocity": 110}, {"time": 884, "pitch": 69, "duration": 6, "velocity": 110}, {"time": 890, "pitch": 69, "duration": 12, "velocity": 110}, {"time": 902, "pitch": 67, "duration": 12, "velocity": 110}, {"time": 914, "pitch": 69, "duration": 48, "velocity": 107}, {"time": 962, "pitch": 62, "duration": 6, "velocity": 116}, {"time": 968, "pitch": 71, "duration": 30, "velocity": 114}, {"time": 998, "pitch": 71, "duration": 6, "velocity": 110}, {"time": 1004, "pitch": 72, "duration": 6, "velocity": 107}, {"time": 1010, "pitch": 74, "duration": 3, "velocity": 107}, {"time": 1013, "pitch": 74, "duration": 1, "velocity": 102}, {"time": 1022, "pitch": 72, "duration": 6, "velocity": 104}, {"time": 1028, "pitch": 72, "duration": 6, "velocity": 108}, {"time": 1034, "pitch": 71, "duration": 3, "velocity": 102}, {"time": 1037, "pitch": 71, "duration": 9, "velocity": 104}, {"time": 1046, "pitch": 69, "duration": 6, "velocity": 108}, {"time": 1052, "pitch": 69, "duration": 6, "velocity": 107}, {"time": 1058, "pitch": 67, "duration": 6, "velocity": 104}, {"time": 1064, "pitch": 71, "duration": 30, "velocity": 113}, {"time": 1094, "pitch": 71, "duration": 6, "velocity": 113}, {"time": 1100, "pitch": 71, "duration": 6, "velocity": 107}, {"time": 1106, "pitch": 76, "duration": 6, "velocity": 107}, {"time": 1112, "pitch": 76, "duration": 6, "velocity": 108}, {"time": 1118, "pitch": 74, "duration": 6, "velocity": 108}, {"time": 1124, "pitch": 74, "duration": 6, "velocity": 107}, {"time": 1130, "pitch": 71, "duration": 3, "velocity": 98}, {"time": 1133, "pitch": 74, "duration": 27, "velocity": 108}, {"time": 1160, "pitch": 79, "duration": 30, "velocity": 114}, {"time": 1190, "pitch": 79, "duration": 6, "velocity": 113}, {"time": 1196, "pitch": 79, "duration": 6, "velocity": 110}, {"time": 1202, "pitch": 79, "duration": 6, "velocity": 108}, {"time": 1208, "pitch": 78, "duration": 6, "velocity": 116}, {"time": 1214, "pitch": 74, "duration": 6, "velocity": 113}, {"time": 1220, "pitch": 74, "duration": 6, "velocity": 113}, {"time": 1226, "pitch": 79, "duration": 24, "velocity": 119}, {"time": 1250, "pitch": 79, "duration": 6, "velocity": 116}, {"time": 1256, "pitch": 81, "duration": 6, "velocity": 116}, {"time": 1262, "pitch": 79, "duration": 6, "velocity": 116}, {"time": 1268, "pitch": 79, "duration": 6, "velocity": 116}, {"time": 1274, "pitch": 76, "duration": 6, "velocity": 107}, {"time": 1280, "pitch": 76, "duration": 6, "velocity": 116}, {"time": 1286, "pitch": 79, "duration": 12, "velocity": 117}, {"time": 1298, "pitch": 81, "duration": 36, "velocity": 120}, {"time": 1334, "pitch": 74, "duration": 6, "velocity": 117}, {"time": 1340, "pitch": 74, "duration": 6, "velocity": 117}, {"time": 1346, "pitch": 71, "duration": 6, "velocity": 117}, {"time": 1352, "pitch": 81, "duration": 6, "velocity": 116}, {"time": 1358, "pitch": 81, "duration": 6, "velocity": 102}, {"time": 1364, "pitch": 81, "duration": 6, "velocity": 117}, {"time": 1370, "pitch": 79, "duration": 3, "velocity": 114}, {"time": 1373, "pitch": 81, "duration": 9, "velocity": 117}, {"time": 1382, "pitch": 79, "duration": 12, "velocity": 114}, {"time": 1394, "pitch": 86, "duration": 12, "velocity": 119}, {"time": 1406, "pitch": 78, "duration": 6, "velocity": 116}, {"time": 1412, "pitch": 78, "duration": 6, "velocity": 116}, {"time": 1418, "pitch": 79, "duration": 12, "velocity": 116}, {"time": 1430, "pitch": 74, "duration": 6, "velocity": 114}, {"time": 1436, "pitch": 74, "duration": 6, "velocity": 114}, {"time": 1442, "pitch": 76, "duration": 6, "velocity": 113}, {"time": 1448, "pitch": 79, "duration": 6, "velocity": 116}, {"time": 1454, "pitch": 79, "duration": 6, "velocity": 98}, {"time": 1460, "pitch": 79, "duration": 6, "velocity": 114}, {"time": 1466, "pitch": 79, "duration": 6, "velocity": 110}, {"time": 1472, "pitch": 76, "duration": 6, "velocity": 117}, {"time": 1478, "pitch": 74, "duration": 12, "velocity": 110}, {"time": 1490, "pitch": 76, "duration": 12, "velocity": 114}, {"time": 1502, "pitch": 74, "duration": 24, "velocity": 116}, {"time": 1526, "pitch": 74, "duration": 6, "velocity": 116}, {"time": 1532, "pitch": 74, "duration": 6, "velocity": 114}, {"time": 1538, "pitch": 76, "duration": 6, "velocity": 110}, {"time": 1544, "pitch": 79, "duration": 6, "velocity": 113}, {"time": 1550, "pitch": 79, "duration": 6, "velocity": 116}, {"time": 1556, "pitch": 79, "duration": 6, "velocity": 116}, {"time": 1562, "pitch": 76, "duration": 12, "velocity": 116}, {"time": 1574, "pitch": 74, "duration": 12, "velocity": 114}, {"time": 1586, "pitch": 74, "duration": 6, "velocity": 102}, {"time": 1592, "pitch": 76, "duration": 6, "velocity": 113}, {"time": 1598, "pitch": 74, "duration": 6, "velocity": 113}, {"time": 1604, "pitch": 74, "duration": 6, "velocity": 110}, {"time": 1610, "pitch": 81, "duration": 12, "velocity": 119}, {"time": 1622, "pitch": 83, "duration": 12, "velocity": 114}, {"time": 1634, "pitch": 76, "duration": 6, "velocity": 114}, {"time": 1640, "pitch": 79, "duration": 6, "velocity": 117}, {"time": 1646, "pitch": 79, "duration": 12, "velocity": 117}, {"time": 1658, "pitch": 79, "duration": 12, "velocity": 114}, {"time": 1670, "pitch": 76, "duration": 12, "velocity": 116}, {"time": 1682, "pitch": 79, "duration": 6, "velocity": 113}, {"time": 1688, "pitch": 81, "duration": 30, "velocity": 117}, {"time": 1718, "pitch": 74, "duration": 6, "velocity": 117}, {"time": 1724, "pitch": 74, "duration": 6, "velocity": 117}, {"time": 1730, "pitch": 71, "duration": 6, "velocity": 117}, {"time": 1736, "pitch": 81, "duration": 6, "velocity": 116}, {"time": 1742, "pitch": 81, "duration": 6, "velocity": 102}, {"time": 1748, "pitch": 81, "duration": 6, "velocity": 117}, {"time": 1754, "pitch": 79, "duration": 3, "velocity": 114}, {"time": 1757, "pitch": 81, "duration": 9, "velocity": 117}, {"time": 1766, "pitch": 79, "duration": 12, "velocity": 114}, {"time": 1778, "pitch": 86, "duration": 12, "velocity": 119}, {"time": 1790, "pitch": 78, "duration": 6, "velocity": 116}, {"time": 1796, "pitch": 78, "duration": 6, "velocity": 116}, {"time": 1802, "pitch": 79, "duration": 3, "velocity": 116}, {"time": 1805, "pitch": 79, "duration": 9, "velocity": 116}, {"time": 1814, "pitch": 74, "duration": 6, "velocity": 114}, {"time": 1820, "pitch": 74, "duration": 6, "velocity": 114}, {"time": 1826, "pitch": 76, "duration": 6, "velocity": 113}, {"time": 1832, "pitch": 79, "duration": 6, "velocity": 116}, {"time": 1838, "pitch": 79, "duration": 6, "velocity": 98}, {"time": 1844, "pitch": 79, "duration": 6, "velocity": 114}, {"time": 1850, "pitch": 79, "duration": 6, "velocity": 110}, {"time": 1856, "pitch": 76, "duration": 6, "velocity": 117}, {"time": 1862, "pitch": 74, "duration": 12, "velocity": 110}, {"time": 1874, "pitch": 76, "duration": 12, "velocity": 114}, {"time": 1886, "pitch": 74, "duration": 24, "velocity": 116}, {"time": 1910, "pitch": 74, "duration": 6, "velocity": 116}, {"time": 1916, "pitch": 74, "duration": 6, "velocity": 114}, {"time": 1922, "pitch": 76, "duration": 6, "velocity": 110}, {"time": 1928, "pitch": 79, "duration": 6, "velocity": 113}, {"time": 1934, "pitch": 79, "duration": 6, "velocity": 116}, {"time": 1940, "pitch": 79, "duration": 6, "velocity": 116}, {"time": 1946, "pitch": 76, "duration": 12, "velocity": 116}, {"time": 1958, "pitch": 74, "duration": 12, "velocity": 114}, {"time": 1970, "pitch": 74, "duration": 6, "velocity": 102}, {"time": 1976, "pitch": 76, "duration": 6, "velocity": 113}, {"time": 1982, "pitch": 74, "duration": 6, "velocity": 113}, {"time": 1988, "pitch": 74, "duration": 6, "velocity": 110}, {"time": 1994, "pitch": 81, "duration": 12, "velocity": 119}, {"time": 2006, "pitch": 83, "duration": 12, "velocity": 114}, {"time": 2018, "pitch": 76, "duration": 6, "velocity": 114}, {"time": 2024, "pitch": 79, "duration": 6, "velocity": 117}, {"time": 2030, "pitch": 79, "duration": 6, "velocity": 117}, {"time": 2036, "pitch": 79, "duration": 7, "velocity": 114}, {"time": 2042, "pitch": 76, "duration": 6, "velocity": 108}, {"time": 2048, "pitch": 76, "duration": 6, "velocity": 107}, {"time": 2054, "pitch": 79, "duration": 12, "velocity": 116}, {"time": 2066, "pitch": 81, "duration": 12, "velocity": 117}, {"time": 2078, "pitch": 79, "duration": 42, "velocity": 119}, {"time": 2498, "pitch": 62, "duration": 6, "velocity": 116}, {"time": 2504, "pitch": 71, "duration": 30, "velocity": 114}, {"time": 2534, "pitch": 71, "duration": 6, "velocity": 110}, {"time": 2540, "pitch": 72, "duration": 6, "velocity": 107}, {"time": 2546, "pitch": 74, "duration": 3, "velocity": 107}, {"time": 2549, "pitch": 74, "duration": 1, "velocity": 102}, {"time": 2558, "pitch": 72, "duration": 6, "velocity": 104}, {"time": 2564, "pitch": 72, "duration": 6, "velocity": 108}, {"time": 2570, "pitch": 71, "duration": 3, "velocity": 102}, {"time": 2573, "pitch": 71, "duration": 9, "velocity": 104}, {"time": 2582, "pitch": 69, "duration": 6, "velocity": 108}, {"time": 2588, "pitch": 69, "duration": 6, "velocity": 107}, {"time": 2594, "pitch": 67, "duration": 6, "velocity": 104}, {"time": 2600, "pitch": 71, "duration": 30, "velocity": 113}, {"time": 2630, "pitch": 71, "duration": 6, "velocity": 113}, {"time": 2636, "pitch": 71, "duration": 6, "velocity": 107}, {"time": 2642, "pitch": 76, "duration": 6, "velocity": 107}, {"time": 2648, "pitch": 76, "duration": 6, "velocity": 108}, {"time": 2654, "pitch": 74, "duration": 6, "velocity": 108}, {"time": 2660, "pitch": 74, "duration": 6, "velocity": 107}, {"time": 2666, "pitch": 71, "duration": 3, "velocity": 98}, {"time": 2669, "pitch": 74, "duration": 27, "velocity": 108}, {"time": 2696, "pitch": 79, "duration": 30, "velocity": 114}, {"time": 2726, "pitch": 79, "duration": 6, "velocity": 113}, {"time": 2732, "pitch": 79, "duration": 6, "velocity": 110}, {"time": 2738, "pitch": 79, "duration": 6, "velocity": 108}, {"time": 2744, "pitch": 78, "duration": 6, "velocity": 116}, {"time": 2750, "pitch": 74, "duration": 6, "velocity": 113}, {"time": 2756, "pitch": 74, "duration": 6, "velocity": 113}, {"time": 2762, "pitch": 79, "duration": 24, "velocity": 119}, {"time": 2786, "pitch": 79, "duration": 6, "velocity": 116}, {"time": 2792, "pitch": 81, "duration": 6, "velocity": 116}, {"time": 2798, "pitch": 79, "duration": 6, "velocity": 116}, {"time": 2804, "pitch": 79, "duration": 6, "velocity": 116}, {"time": 2810, "pitch": 76, "duration": 6, "velocity": 107}, {"time": 2816, "pitch": 76, "duration": 6, "velocity": 116}, {"time": 2822, "pitch": 79, "duration": 12, "velocity": 117}, {"time": 2834, "pitch": 81, "duration": 36, "velocity": 120}, {"time": 2870, "pitch": 74, "duration": 6, "velocity": 117}, {"time": 2876, "pitch": 74, "duration": 6, "velocity": 117}, {"time": 2882, "pitch": 71, "duration": 6, "velocity": 117}, {"time": 2888, "pitch": 81, "duration": 6, "velocity": 116}, {"time": 2894, "pitch": 81, "duration": 6, "velocity": 102}, {"time": 2900, "pitch": 81, "duration": 6, "velocity": 117}, {"time": 2906, "pitch": 79, "duration": 3, "velocity": 114}, {"time": 2909, "pitch": 81, "duration": 9, "velocity": 117}, {"time": 2918, "pitch": 79, "duration": 12, "velocity": 114}, {"time": 2930, "pitch": 86, "duration": 12, "velocity": 119}, {"time": 2942, "pitch": 78, "duration": 6, "velocity": 116}, {"time": 2948, "pitch": 78, "duration": 6, "velocity": 116}, {"time": 2954, "pitch": 79, "duration": 12, "velocity": 116}, {"time": 2966, "pitch": 74, "duration": 6, "velocity": 114}, {"time": 2972, "pitch": 74, "duration": 6, "velocity": 114}, {"time": 2978, "pitch": 76, "duration": 6, "velocity": 113}, {"time": 2984, "pitch": 79, "duration": 6, "velocity": 116}, {"time": 2990, "pitch": 79, "duration": 6, "velocity": 98}, {"time": 2996, "pitch": 79, "duration": 6, "velocity": 114}, {"time": 3002, "pitch": 79, "duration": 6, "velocity": 110}, {"time": 3008, "pitch": 76, "duration": 6, "velocity": 117}, {"time": 3014, "pitch": 74, "duration": 12, "velocity": 110}, {"time": 3026, "pitch": 76, "duration": 12, "velocity": 114}, {"time": 3038, "pitch": 74, "duration": 24, "velocity": 116}, {"time": 3062, "pitch": 74, "duration": 6, "velocity": 116}, {"time": 3068, "pitch": 74, "duration": 6, "velocity": 114}, {"time": 3074, "pitch": 76, "duration": 6, "velocity": 110}, {"time": 3080, "pitch": 79, "duration": 6, "velocity": 113}, {"time": 3086, "pitch": 79, "duration": 6, "velocity": 116}, {"time": 3092, "pitch": 79, "duration": 6, "velocity": 116}, {"time": 3098, "pitch": 76, "duration": 12, "velocity": 116}, {"time": 3110, "pitch": 74, "duration": 12, "velocity": 114}, {"time": 3122, "pitch": 74, "duration": 6, "velocity": 102}, {"time": 3128, "pitch": 76, "duration": 6, "velocity": 113}, {"time": 3134, "pitch": 74, "duration": 6, "velocity": 113}, {"time": 3140, "pitch": 74, "duration": 6, "velocity": 110}, {"time": 3146, "pitch": 81, "duration": 12, "velocity": 119}, {"time": 3158, "pitch": 83, "duration": 12, "velocity": 114}, {"time": 3170, "pitch": 76, "duration": 6, "velocity": 114}, {"time": 3176, "pitch": 79, "duration": 6, "velocity": 117}, {"time": 3182, "pitch": 79, "duration": 12, "velocity": 117}, {"time": 3194, "pitch": 79, "duration": 12, "velocity": 114}, {"time": 3206, "pitch": 76, "duration": 12, "velocity": 116}, {"time": 3218, "pitch": 79, "duration": 6, "velocity": 113}, {"time": 3224, "pitch": 81, "duration": 30, "velocity": 117}, {"time": 3254, "pitch": 74, "duration": 6, "velocity": 117}, {"time": 3260, "pitch": 74, "duration": 6, "velocity": 117}, {"time": 3266, "pitch": 71, "duration": 6, "velocity": 117}, {"time": 3272, "pitch": 81, "duration": 6, "velocity": 116}, {"time": 3278, "pitch": 81, "duration": 6, "velocity": 102}, {"time": 3284, "pitch": 81, "duration": 6, "velocity": 117}, {"time": 3290, "pitch": 79, "duration": 3, "velocity": 114}, {"time": 3293, "pitch": 81, "duration": 9, "velocity": 117}, {"time": 3302, "pitch": 79, "duration": 12, "velocity": 114}, {"time": 3314, "pitch": 86, "duration": 12, "velocity": 119}, {"time": 3326, "pitch": 78, "duration": 6, "velocity": 116}, {"time": 3332, "pitch": 78, "duration": 6, "velocity": 116}, {"time": 3338, "pitch": 79, "duration": 3, "velocity": 116}, {"time": 3341, "pitch": 79, "duration": 9, "velocity": 116}, {"time": 3350, "pitch": 74, "duration": 6, "velocity": 114}, {"time": 3356, "pitch": 74, "duration": 6, "velocity": 114}, {"time": 3362, "pitch": 76, "duration": 6, "velocity": 113}, {"time": 3368, "pitch": 79, "duration": 6, "velocity": 116}, {"time": 3374, "pitch": 79, "duration": 6, "velocity": 98}, {"time": 3380, "pitch": 79, "duration": 6, "velocity": 114}, {"time": 3386, "pitch": 79, "duration": 6, "velocity": 110}, {"time": 3392, "pitch": 76, "duration": 6, "velocity": 117}, {"time": 3398, "pitch": 74, "duration": 12, "velocity": 110}, {"time": 3410, "pitch": 76, "duration": 12, "velocity": 114}, {"time": 3422, "pitch": 74, "duration": 24, "velocity": 116}, {"time": 3446, "pitch": 74, "duration": 6, "velocity": 116}, {"time": 3452, "pitch": 74, "duration": 6, "velocity": 114}, {"time": 3458, "pitch": 76, "duration": 6, "velocity": 110}, {"time": 3464, "pitch": 79, "duration": 6, "velocity": 113}, {"time": 3470, "pitch": 79, "duration": 6, "velocity": 116}, {"time": 3476, "pitch": 79, "duration": 6, "velocity": 116}, {"time": 3482, "pitch": 76, "duration": 12, "velocity": 116}, {"time": 3494, "pitch": 74, "duration": 12, "velocity": 114}, {"time": 3506, "pitch": 74, "duration": 6, "velocity": 102}, {"time": 3512, "pitch": 76, "duration": 6, "velocity": 113}, {"time": 3518, "pitch": 74, "duration": 6, "velocity": 113}, {"time": 3524, "pitch": 74, "duration": 6, "velocity": 110}, {"time": 3530, "pitch": 81, "duration": 12, "velocity": 119}, {"time": 3542, "pitch": 83, "duration": 12, "velocity": 114}, {"time": 3554, "pitch": 76, "duration": 6, "velocity": 114}, {"time": 3560, "pitch": 79, "duration": 6, "velocity": 117}, {"time": 3566, "pitch": 79, "duration": 6, "velocity": 117}, {"time": 3572, "pitch": 79, "duration": 7, "velocity": 114}, {"time": 3578, "pitch": 76, "duration": 6, "velocity": 108}, {"time": 3584, "pitch": 76, "duration": 6, "velocity": 107}, {"time": 3590, "pitch": 79, "duration": 12, "velocity": 116}, {"time": 3602, "pitch": 81, "duration": 12, "velocity": 117}, {"time": 3614, "pitch": 79, "duration": 42, "velocity": 119}]}, {"program": 0, "is_drum": false, "name": "PIANO", "notes": [{"time": 8, "pitch": 52, "duration": 16, "velocity": 86}, {"time": 8, "pitch": 64, "duration": 11, "velocity": 88}, {"time": 8, "pitch": 67, "duration": 12, "velocity": 90}, {"time": 8, "pitch": 71, "duration": 10, "velocity": 89}, {"time": 20, "pitch": 64, "duration": 6, "velocity": 92}, {"time": 20, "pitch": 67, "duration": 7, "velocity": 98}, {"time": 20, "pitch": 71, "duration": 6, "velocity": 91}, {"time": 26, "pitch": 52, "duration": 4, "velocity": 90}, {"time": 29, "pitch": 64, "duration": 1, "velocity": 81}, {"time": 29, "pitch": 67, "duration": 13, "velocity": 91}, {"time": 29, "pitch": 71, "duration": 1, "velocity": 78}, {"time": 32, "pitch": 48, "duration": 14, "velocity": 87}, {"time": 32, "pitch": 64, "duration": 10, "velocity": 87}, {"time": 32, "pitch": 72, "duration": 9, "velocity": 88}, {"time": 44, "pitch": 64, "duration": 7, "velocity": 91}, {"time": 44, "pitch": 67, "duration": 7, "velocity": 89}, {"time": 44, "pitch": 72, "duration": 6, "velocity": 88}, {"time": 50, "pitch": 48, "duration": 6, "velocity": 94}, {"time": 53, "pitch": 64, "duration": 1, "velocity": 85}, {"time": 53, "pitch": 67, "duration": 14, "velocity": 84}, {"time": 53, "pitch": 72, "duration": 1, "velocity": 85}, {"time": 56, "pitch": 43, "duration": 15, "velocity": 88}, {"time": 56, "pitch": 62, "duration": 9, "velocity": 110}, {"time": 56, "pitch": 71, "duration": 9, "velocity": 88}, {"time": 68, "pitch": 62, "duration": 6, "velocity": 89}, {"time": 68, "pitch": 67, "duration": 6, "velocity": 89}, {"time": 68, "pitch": 71, "duration": 6, "velocity": 88}, {"time": 74, "pitch": 43, "duration": 4, "velocity": 84}, {"time": 80, "pitch": 48, "duration": 14, "velocity": 88}, {"time": 80, "pitch": 60, "duration": 9, "velocity": 86}, {"time": 80, "pitch": 64, "duration": 10, "velocity": 88}, {"time": 80, "pitch": 67, "duration": 9, "velocity": 87}, {"time": 92, "pitch": 60, "duration": 8, "velocity": 87}, {"time": 92, "pitch": 64, "duration": 8, "velocity": 91}, {"time": 92, "pitch": 67, "duration": 8, "velocity": 89}, {"time": 98, "pitch": 48, "duration": 4, "velocity": 88}, {"time": 104, "pitch": 52, "duration": 14, "velocity": 81}, {"time": 104, "pitch": 64, "duration": 10, "velocity": 94}, {"time": 104, "pitch": 67, "duration": 10, "velocity": 102}, {"time": 104, "pitch": 71, "duration": 9, "velocity": 98}, {"time": 116, "pitch": 64, "duration": 6, "velocity": 98}, {"time": 116, "pitch": 67, "duration": 7, "velocity": 98}, {"time": 116, "pitch": 71, "duration": 6, "velocity": 98}, {"time": 122, "pitch": 52, "duration": 4, "velocity": 100}, {"time": 125, "pitch": 64, "duration": 1, "velocity": 87}, {"time": 125, "pitch": 67, "duration": 1, "velocity": 88}, {"time": 125, "pitch": 71, "duration": 1, "velocity": 87}, {"time": 128, "pitch": 48, "duration": 14, "velocity": 90}, {"time": 128, "pitch": 64, "duration": 9, "velocity": 98}, {"time": 128, "pitch": 67, "duration": 9, "velocity": 91}, {"time": 140, "pitch": 60, "duration": 6, "velocity": 92}, {"time": 140, "pitch": 64, "duration": 7, "velocity": 102}, {"time": 140, "pitch": 67, "duration": 6, "velocity": 91}, {"time": 146, "pitch": 48, "duration": 5, "velocity": 88}, {"time": 149, "pitch": 60, "duration": 1, "velocity": 84}, {"time": 149, "pitch": 64, "duration": 2, "velocity": 88}, {"time": 149, "pitch": 67, "duration": 2, "velocity": 88}, {"time": 152, "pitch": 43, "duration": 14, "velocity": 86}, {"time": 152, "pitch": 55, "duration": 14, "velocity": 81}, {"time": 152, "pitch": 62, "duration": 10, "velocity": 91}, {"time": 152, "pitch": 67, "duration": 10, "velocity": 94}, {"time": 152, "pitch": 71, "duration": 9, "velocity": 94}, {"time": 164, "pitch": 62, "duration": 7, "velocity": 94}, {"time": 164, "pitch": 67, "duration": 7, "velocity": 94}, {"time": 164, "pitch": 71, "duration": 7, "velocity": 93}, {"time": 170, "pitch": 43, "duration": 5, "velocity": 84}, {"time": 170, "pitch": 55, "duration": 4, "velocity": 88}, {"time": 173, "pitch": 62, "duration": 1, "velocity": 87}, {"time": 173, "pitch": 67, "duration": 13, "velocity": 89}, {"time": 173, "pitch": 71, "duration": 1, "velocity": 86}, {"time": 176, "pitch": 48, "duration": 15, "velocity": 96}, {"time": 176, "pitch": 60, "duration": 9, "velocity": 91}, {"time": 176, "pitch": 64, "duration": 10, "velocity": 94}, {"time": 188, "pitch": 60, "duration": 8, "velocity": 88}, {"time": 188, "pitch": 64, "duration": 10, "velocity": 96}, {"time": 188, "pitch": 67, "duration": 9, "velocity": 94}, {"time": 194, "pitch": 48, "duration": 6, "velocity": 100}, {"time": 200, "pitch": 47, "duration": 11, "velocity": 91}, {"time": 200, "pitch": 59, "duration": 8, "velocity": 96}, {"time": 200, "pitch": 62, "duration": 7, "velocity": 110}, {"time": 200, "pitch": 66, "duration": 8, "velocity": 91}, {"time": 212, "pitch": 59, "duration": 7, "velocity": 94}, {"time": 212, "pitch": 62, "duration": 8, "velocity": 107}, {"time": 212, "pitch": 66, "duration": 10, "velocity": 95}, {"time": 218, "pitch": 47, "duration": 5, "velocity": 90}, {"time": 224, "pitch": 55, "duration": 14, "velocity": 92}, {"time": 224, "pitch": 59, "duration": 10, "velocity": 94}, {"time": 224, "pitch": 62, "duration": 10, "velocity": 108}, {"time": 224, "pitch": 67, "duration": 9, "velocity": 98}, {"time": 236, "pitch": 59, "duration": 6, "velocity": 93}, {"time": 236, "pitch": 62, "duration": 7, "velocity": 100}, {"time": 236, "pitch": 67, "duration": 8, "velocity": 92}, {"time": 242, "pitch": 55, "duration": 5, "velocity": 88}, {"time": 248, "pitch": 50, "duration": 13, "velocity": 87}, {"time": 248, "pitch": 62, "duration": 9, "velocity": 108}, {"time": 248, "pitch": 66, "duration": 9, "velocity": 103}, {"time": 248, "pitch": 69, "duration": 9, "velocity": 98}, {"time": 260, "pitch": 62, "duration": 9, "velocity": 114}, {"time": 260, "pitch": 66, "duration": 9, "velocity": 109}, {"time": 260, "pitch": 69, "duration": 9, "velocity": 100}, {"time": 266, "pitch": 50, "duration": 10, "velocity": 96}, {"time": 272, "pitch": 62, "duration": 9, "velocity": 104}, {"time": 272, "pitch": 66, "duration": 9, "velocity": 100}, {"time": 272, "pitch": 69, "duration": 9, "velocity": 92}, {"time": 281, "pitch": 50, "duration": 3, "velocity": 114}, {"time": 284, "pitch": 62, "duration": 7, "velocity": 119}, {"time": 284, "pitch": 66, "duration": 6, "velocity": 119}, {"time": 284, "pitch": 69, "duration": 6, "velocity": 110}, {"time": 290, "pitch": 50, "duration": 4, "velocity": 104}, {"time": 296, "pitch": 47, "duration": 6, "velocity": 88}, {"time": 296, "pitch": 59, "duration": 9, "velocity": 104}, {"time": 296, "pitch": 62, "duration": 9, "velocity": 116}, {"time": 296, "pitch": 66, "duration": 8, "velocity": 113}, {"time": 305, "pitch": 47, "duration": 20, "velocity": 89}, {"time": 308, "pitch": 59, "duration": 8, "velocity": 107}, {"time": 308, "pitch": 62, "duration": 8, "velocity": 117}, {"time": 308, "pitch": 66, "duration": 8, "velocity": 116}, {"time": 317, "pitch": 59, "duration": 1, "velocity": 89}, {"time": 317, "pitch": 62, "duration": 1, "velocity": 96}, {"time": 317, "pitch": 66, "duration": 1, "velocity": 91}, {"time": 323, "pitch": 59, "duration": 6, "velocity": 100}, {"time": 323, "pitch": 62, "duration": 6, "velocity": 114}, {"time": 323, "pitch": 66, "duration": 6, "velocity": 109}, {"time": 329, "pitch": 47, "duration": 4, "velocity": 98}, {"time": 332, "pitch": 59, "duration": 7, "velocity": 116}, {"time": 332, "pitch": 62, "duration": 9, "velocity": 120}, {"time": 332, "pitch": 66, "duration": 7, "velocity": 123}, {"time": 338, "pitch": 47, "duration": 5, "velocity": 102}, {"time": 344, "pitch": 48, "duration": 15, "velocity": 107}, {"time": 344, "pitch": 60, "duration": 7, "velocity": 110}, {"time": 344, "pitch": 64, "duration": 8, "velocity": 120}, {"time": 344, "pitch": 67, "duration": 7, "velocity": 114}, {"time": 356, "pitch": 60, "duration": 7, "velocity": 107}, {"time": 356, "pitch": 64, "duration": 7, "velocity": 117}, {"time": 356, "pitch": 67, "duration": 7, "velocity": 108}, {"time": 362, "pitch": 48, "duration": 11, "velocity": 92}, {"time": 365, "pitch": 60, "duration": 1, "velocity": 93}, {"time": 365, "pitch": 64, "duration": 1, "velocity": 104}, {"time": 365, "pitch": 67, "duration": 1, "velocity": 98}, {"time": 368, "pitch": 64, "duration": 1, "velocity": 88}, {"time": 371, "pitch": 60, "duration": 6, "velocity": 108}, {"time": 371, "pitch": 64, "duration": 6, "velocity": 117}, {"time": 371, "pitch": 67, "duration": 6, "velocity": 110}, {"time": 377, "pitch": 48, "duration": 3, "velocity": 119}, {"time": 380, "pitch": 60, "duration": 6, "velocity": 114}, {"time": 380, "pitch": 64, "duration": 9, "velocity": 119}, {"time": 380, "pitch": 67, "duration": 7, "velocity": 114}, {"time": 386, "pitch": 48, "duration": 4, "velocity": 114}, {"time": 392, "pitch": 47, "duration": 11, "velocity": 91}, {"time": 392, "pitch": 59, "duration": 8, "velocity": 96}, {"time": 392, "pitch": 62, "duration": 7, "velocity": 110}, {"time": 392, "pitch": 66, "duration": 8, "velocity": 91}, {"time": 404, "pitch": 59, "duration": 7, "velocity": 94}, {"time": 404, "pitch": 62, "duration": 8, "velocity": 107}, {"time": 404, "pitch": 66, "duration": 10, "velocity": 95}, {"time": 410, "pitch": 47, "duration": 5, "velocity": 90}, {"time": 416, "pitch": 55, "duration": 14, "velocity": 92}, {"time": 416, "pitch": 59, "duration": 10, "velocity": 94}, {"time": 416, "pitch": 62, "duration": 10, "velocity": 108}, {"time": 416, "pitch": 67, "duration": 9, "velocity": 98}, {"time": 428, "pitch": 59, "duration": 6, "velocity": 93}, {"time": 428, "pitch": 62, "duration": 7, "velocity": 100}, {"time": 428, "pitch": 67, "duration": 8, "velocity": 92}, {"time": 434, "pitch": 55, "duration": 5, "velocity": 88}, {"time": 440, "pitch": 50, "duration": 13, "velocity": 87}, {"time": 440, "pitch": 62, "duration": 9, "velocity": 108}, {"time": 440, "pitch": 66, "duration": 9, "velocity": 103}, {"time": 440, "pitch": 69, "duration": 9, "velocity": 98}, {"time": 452, "pitch": 62, "duration": 9, "velocity": 114}, {"time": 452, "pitch": 66, "duration": 9, "velocity": 109}, {"time": 452, "pitch": 69, "duration": 9, "velocity": 100}, {"time": 458, "pitch": 50, "duration": 10, "velocity": 96}, {"time": 464, "pitch": 62, "duration": 9, "velocity": 104}, {"time": 464, "pitch": 66, "duration": 9, "velocity": 100}, {"time": 464, "pitch": 69, "duration": 9, "velocity": 92}, {"time": 473, "pitch": 50, "duration": 3, "velocity": 114}, {"time": 476, "pitch": 62, "duration": 7, "velocity": 119}, {"time": 476, "pitch": 66, "duration": 6, "velocity": 119}, {"time": 476, "pitch": 69, "duration": 6, "velocity": 110}, {"time": 482, "pitch": 50, "duration": 4, "velocity": 104}, {"time": 488, "pitch": 47, "duration": 6, "velocity": 88}, {"time": 488, "pitch": 59, "duration": 9, "velocity": 104}, {"time": 488, "pitch": 62, "duration": 9, "velocity": 116}, {"time": 488, "pitch": 66, "duration": 8, "velocity": 113}, {"time": 497, "pitch": 47, "duration": 20, "velocity": 89}, {"time": 500, "pitch": 59, "duration": 8, "velocity": 107}, {"time": 500, "pitch": 62, "duration": 8, "velocity": 117}, {"time": 500, "pitch": 66, "duration": 8, "velocity": 116}, {"time": 509, "pitch": 59, "duration": 1, "velocity": 89}, {"time": 509, "pitch": 62, "duration": 1, "velocity": 96}, {"time": 509, "pitch": 66, "duration": 1, "velocity": 91}, {"time": 515, "pitch": 59, "duration": 6, "velocity": 100}, {"time": 515, "pitch": 62, "duration": 6, "velocity": 114}, {"time": 515, "pitch": 66, "duration": 6, "velocity": 109}, {"time": 521, "pitch": 47, "duration": 4, "velocity": 98}, {"time": 524, "pitch": 59, "duration": 7, "velocity": 116}, {"time": 524, "pitch": 62, "duration": 9, "velocity": 120}, {"time": 524, "pitch": 66, "duration": 7, "velocity": 123}, {"time": 530, "pitch": 47, "duration": 5, "velocity": 102}, {"time": 536, "pitch": 48, "duration": 15, "velocity": 107}, {"time": 536, "pitch": 60, "duration": 7, "velocity": 110}, {"time": 536, "pitch": 64, "duration": 8, "velocity": 120}, {"time": 536, "pitch": 67, "duration": 7, "velocity": 114}, {"time": 548, "pitch": 60, "duration": 7, "velocity": 107}, {"time": 548, "pitch": 64, "duration": 7, "velocity": 117}, {"time": 548, "pitch": 67, "duration": 7, "velocity": 108}, {"time": 554, "pitch": 48, "duration": 11, "velocity": 92}, {"time": 557, "pitch": 60, "duration": 1, "velocity": 93}, {"time": 557, "pitch": 64, "duration": 1, "velocity": 104}, {"time": 557, "pitch": 67, "duration": 1, "velocity": 98}, {"time": 560, "pitch": 64, "duration": 1, "velocity": 88}, {"time": 563, "pitch": 60, "duration": 6, "velocity": 108}, {"time": 563, "pitch": 64, "duration": 6, "velocity": 117}, {"time": 563, "pitch": 67, "duration": 6, "velocity": 110}, {"time": 569, "pitch": 48, "duration": 3, "velocity": 119}, {"time": 572, "pitch": 60, "duration": 6, "velocity": 114}, {"time": 572, "pitch": 64, "duration": 9, "velocity": 119}, {"time": 572, "pitch": 67, "duration": 7, "velocity": 114}, {"time": 578, "pitch": 48, "duration": 4, "velocity": 114}, {"time": 584, "pitch": 43, "duration": 39, "velocity": 88}, {"time": 590, "pitch": 50, "duration": 33, "velocity": 76}, {"time": 596, "pitch": 55, "duration": 12, "velocity": 74}, {"time": 602, "pitch": 59, "duration": 13, "velocity": 87}, {"time": 602, "pitch": 67, "duration": 11, "velocity": 88}, {"time": 614, "pitch": 55, "duration": 18, "velocity": 86}, {"time": 620, "pitch": 59, "duration": 9, "velocity": 96}, {"time": 620, "pitch": 67, "duration": 11, "velocity": 90}, {"time": 626, "pitch": 62, "duration": 11, "velocity": 85}, {"time": 632, "pitch": 50, "duration": 41, "velocity": 88}, {"time": 632, "pitch": 66, "duration": 6, "velocity": 85}, {"time": 638, "pitch": 57, "duration": 31, "velocity": 74}, {"time": 644, "pitch": 62, "duration": 14, "velocity": 85}, {"time": 650, "pitch": 66, "duration": 12, "velocity": 90}, {"time": 650, "pitch": 74, "duration": 12, "velocity": 89}, {"time": 662, "pitch": 62, "duration": 3, "velocity": 86}, {"time": 668, "pitch": 62, "duration": 11, "velocity": 91}, {"time": 668, "pitch": 69, "duration": 10, "velocity": 92}, {"time": 674, "pitch": 66, "duration": 3, "velocity": 56}, {"time": 680, "pitch": 52, "duration": 41, "velocity": 92}, {"time": 686, "pitch": 59, "duration": 20, "velocity": 74}, {"time": 692, "pitch": 62, "duration": 5, "velocity": 104}, {"time": 692, "pitch": 67, "duration": 6, "velocity": 104}, {"time": 698, "pitch": 64, "duration": 7, "velocity": 88}, {"time": 704, "pitch": 62, "duration": 7, "velocity": 88}, {"time": 704, "pitch": 67, "duration": 7, "velocity": 83}, {"time": 710, "pitch": 59, "duration": 8, "velocity": 82}, {"time": 716, "pitch": 62, "duration": 6, "velocity": 113}, {"time": 716, "pitch": 67, "duration": 9, "velocity": 107}, {"time": 722, "pitch": 64, "duration": 1, "velocity": 73}, {"time": 728, "pitch": 47, "duration": 43, "velocity": 86}, {"time": 728, "pitch": 62, "duration": 13, "velocity": 91}, {"time": 728, "pitch": 69, "duration": 11, "velocity": 93}, {"time": 734, "pitch": 54, "duration": 41, "velocity": 77}, {"time": 740, "pitch": 59, "duration": 19, "velocity": 84}, {"time": 746, "pitch": 62, "duration": 12, "velocity": 94}, {"time": 746, "pitch": 69, "duration": 18, "velocity": 96}, {"time": 758, "pitch": 64, "duration": 9, "velocity": 89}, {"time": 764, "pitch": 59, "duration": 7, "velocity": 88}, {"time": 770, "pitch": 62, "duration": 3, "velocity": 94}, {"time": 770, "pitch": 69, "duration": 5, "velocity": 88}, {"time": 776, "pitch": 48, "duration": 44, "velocity": 88}, {"time": 776, "pitch": 60, "duration": 6, "velocity": 84}, {"time": 776, "pitch": 67, "duration": 6, "velocity": 87}, {"time": 788, "pitch": 60, "duration": 10, "velocity": 94}, {"time": 788, "pitch": 67, "duration": 9, "velocity": 87}, {"time": 794, "pitch": 55, "duration": 10, "velocity": 74}, {"time": 800, "pitch": 60, "duration": 8, "velocity": 91}, {"time": 800, "pitch": 67, "duration": 9, "velocity": 94}, {"time": 806, "pitch": 55, "duration": 8, "velocity": 83}, {"time": 812, "pitch": 60, "duration": 13, "velocity": 102}, {"time": 812, "pitch": 67, "duration": 16, "velocity": 94}, {"time": 818, "pitch": 55, "duration": 1, "velocity": 87}, {"time": 824, "pitch": 47, "duration": 17, "velocity": 90}, {"time": 830, "pitch": 54, "duration": 12, "velocity": 74}, {"time": 836, "pitch": 59, "duration": 9, "velocity": 85}, {"time": 842, "pitch": 62, "duration": 8, "velocity": 91}, {"time": 842, "pitch": 69, "duration": 7, "velocity": 87}, {"time": 848, "pitch": 52, "duration": 24, "velocity": 87}, {"time": 854, "pitch": 59, "duration": 18, "velocity": 83}, {"time": 860, "pitch": 67, "duration": 12, "velocity": 96}, {"time": 866, "pitch": 64, "duration": 6, "velocity": 81}, {"time": 872, "pitch": 45, "duration": 42, "velocity": 93}, {"time": 878, "pitch": 52, "duration": 36, "velocity": 78}, {"time": 884, "pitch": 57, "duration": 18, "velocity": 84}, {"time": 890, "pitch": 59, "duration": 12, "velocity": 81}, {"time": 890, "pitch": 64, "duration": 19, "velocity": 85}, {"time": 902, "pitch": 60, "duration": 8, "velocity": 84}, {"time": 908, "pitch": 57, "duration": 12, "velocity": 83}, {"time": 914, "pitch": 60, "duration": 5, "velocity": 87}, {"time": 914, "pitch": 64, "duration": 6, "velocity": 84}, {"time": 920, "pitch": 50, "duration": 40, "velocity": 87}, {"time": 926, "pitch": 57, "duration": 22, "velocity": 85}, {"time": 932, "pitch": 62, "duration": 20, "velocity": 87}, {"time": 938, "pitch": 67, "duration": 6, "velocity": 91}, {"time": 944, "pitch": 66, "duration": 11, "velocity": 91}, {"time": 953, "pitch": 57, "duration": 6, "velocity": 87}, {"time": 956, "pitch": 62, "duration": 5, "velocity": 90}, {"time": 962, "pitch": 66, "duration": 5, "velocity": 91}, {"time": 968, "pitch": 43, "duration": 39, "velocity": 88}, {"time": 968, "pitch": 59, "duration": 13, "velocity": 85}, {"time": 968, "pitch": 67, "duration": 12, "velocity": 91}, {"time": 974, "pitch": 50, "duration": 33, "velocity": 72}, {"time": 980, "pitch": 55, "duration": 18, "velocity": 80}, {"time": 986, "pitch": 59, "duration": 10, "velocity": 94}, {"time": 986, "pitch": 62, "duration": 12, "velocity": 104}, {"time": 998, "pitch": 59, "duration": 12, "velocity": 71}, {"time": 998, "pitch": 67, "duration": 8, "velocity": 87}, {"time": 1004, "pitch": 55, "duration": 11, "velocity": 87}, {"time": 1010, "pitch": 62, "duration": 5, "velocity": 85}, {"time": 1010, "pitch": 67, "duration": 4, "velocity": 86}, {"time": 1016, "pitch": 50, "duration": 44, "velocity": 87}, {"time": 1016, "pitch": 62, "duration": 3, "velocity": 96}, {"time": 1016, "pitch": 66, "duration": 4, "velocity": 86}, {"time": 1019, "pitch": 57, "duration": 21, "velocity": 77}, {"time": 1028, "pitch": 66, "duration": 6, "velocity": 100}, {"time": 1028, "pitch": 74, "duration": 4, "velocity": 100}, {"time": 1034, "pitch": 62, "duration": 2, "velocity": 74}, {"time": 1040, "pitch": 62, "duration": 9, "velocity": 92}, {"time": 1040, "pitch": 69, "duration": 9, "velocity": 100}, {"time": 1046, "pitch": 57, "duration": 4, "velocity": 66}, {"time": 1052, "pitch": 62, "duration": 9, "velocity": 104}, {"time": 1052, "pitch": 69, "duration": 12, "velocity": 93}, {"time": 1058, "pitch": 57, "duration": 6, "velocity": 82}, {"time": 1064, "pitch": 52, "duration": 38, "velocity": 94}, {"time": 1070, "pitch": 59, "duration": 15, "velocity": 83}, {"time": 1076, "pitch": 62, "duration": 6, "velocity": 110}, {"time": 1076, "pitch": 67, "duration": 17, "velocity": 107}, {"time": 1082, "pitch": 64, "duration": 11, "velocity": 98}, {"time": 1094, "pitch": 59, "duration": 7, "velocity": 87}, {"time": 1100, "pitch": 62, "duration": 6, "velocity": 107}, {"time": 1106, "pitch": 67, "duration": 5, "velocity": 104}, {"time": 1112, "pitch": 47, "duration": 42, "velocity": 87}, {"time": 1112, "pitch": 62, "duration": 12, "velocity": 96}, {"time": 1112, "pitch": 69, "duration": 12, "velocity": 98}, {"time": 1118, "pitch": 54, "duration": 42, "velocity": 77}, {"time": 1124, "pitch": 59, "duration": 8, "velocity": 86}, {"time": 1130, "pitch": 62, "duration": 11, "velocity": 98}, {"time": 1130, "pitch": 69, "duration": 13, "velocity": 94}, {"time": 1142, "pitch": 59, "duration": 12, "velocity": 90}, {"time": 1148, "pitch": 62, "duration": 5, "velocity": 113}, {"time": 1154, "pitch": 69, "duration": 5, "velocity": 108}, {"time": 1160, "pitch": 48, "duration": 41, "velocity": 88}, {"time": 1160, "pitch": 60, "duration": 8, "velocity": 91}, {"time": 1160, "pitch": 67, "duration": 6, "velocity": 104}, {"time": 1166, "pitch": 55, "duration": 8, "velocity": 68}, {"time": 1172, "pitch": 60, "duration": 8, "velocity": 90}, {"time": 1172, "pitch": 67, "duration": 8, "velocity": 96}, {"time": 1178, "pitch": 55, "duration": 7, "velocity": 68}, {"time": 1184, "pitch": 60, "duration": 10, "velocity": 91}, {"time": 1184, "pitch": 67, "duration": 10, "velocity": 98}, {"time": 1193, "pitch": 55, "duration": 7, "velocity": 87}, {"time": 1196, "pitch": 60, "duration": 6, "velocity": 104}, {"time": 1196, "pitch": 67, "duration": 5, "velocity": 108}, {"time": 1202, "pitch": 69, "duration": 3, "velocity": 84}, {"time": 1208, "pitch": 47, "duration": 18, "velocity": 88}, {"time": 1208, "pitch": 62, "duration": 7, "velocity": 86}, {"time": 1208, "pitch": 66, "duration": 7, "velocity": 87}, {"time": 1208, "pitch": 69, "duration": 5, "velocity": 92}, {"time": 1214, "pitch": 54, "duration": 7, "velocity": 81}, {"time": 1220, "pitch": 62, "duration": 11, "velocity": 93}, {"time": 1220, "pitch": 66, "duration": 5, "velocity": 109}, {"time": 1220, "pitch": 69, "duration": 6, "velocity": 93}, {"time": 1226, "pitch": 54, "duration": 6, "velocity": 83}, {"time": 1232, "pitch": 52, "duration": 15, "velocity": 89}, {"time": 1232, "pitch": 59, "duration": 9, "velocity": 91}, {"time": 1232, "pitch": 64, "duration": 9, "velocity": 96}, {"time": 1232, "pitch": 67, "duration": 8, "velocity": 89}, {"time": 1244, "pitch": 59, "duration": 6, "velocity": 102}, {"time": 1244, "pitch": 64, "duration": 6, "velocity": 113}, {"time": 1244, "pitch": 67, "duration": 7, "velocity": 94}, {"time": 1250, "pitch": 52, "duration": 5, "velocity": 88}, {"time": 1256, "pitch": 45, "duration": 43, "velocity": 88}, {"time": 1256, "pitch": 57, "duration": 4, "velocity": 92}, {"time": 1256, "pitch": 60, "duration": 5, "velocity": 102}, {"time": 1256, "pitch": 64, "duration": 5, "velocity": 102}, {"time": 1262, "pitch": 52, "duration": 36, "velocity": 72}, {"time": 1268, "pitch": 60, "duration": 9, "velocity": 102}, {"time": 1268, "pitch": 69, "duration": 8, "velocity": 108}, {"time": 1274, "pitch": 57, "duration": 11, "velocity": 81}, {"time": 1277, "pitch": 64, "duration": 1, "velocity": 91}, {"time": 1277, "pitch": 69, "duration": 1, "velocity": 84}, {"time": 1283, "pitch": 60, "duration": 6, "velocity": 98}, {"time": 1283, "pitch": 69, "duration": 6, "velocity": 94}, {"time": 1289, "pitch": 57, "duration": 4, "velocity": 87}, {"time": 1292, "pitch": 60, "duration": 8, "velocity": 114}, {"time": 1292, "pitch": 69, "duration": 7, "velocity": 110}, {"time": 1298, "pitch": 57, "duration": 5, "velocity": 84}, {"time": 1298, "pitch": 64, "duration": 5, "velocity": 87}, {"time": 1304, "pitch": 50, "duration": 39, "velocity": 91}, {"time": 1304, "pitch": 62, "duration": 4, "velocity": 90}, {"time": 1304, "pitch": 66, "duration": 5, "velocity": 109}, {"time": 1304, "pitch": 69, "duration": 5, "velocity": 102}, {"time": 1310, "pitch": 57, "duration": 15, "velocity": 82}, {"time": 1313, "pitch": 62, "duration": 12, "velocity": 107}, {"time": 1316, "pitch": 64, "duration": 4, "velocity": 108}, {"time": 1319, "pitch": 66, "duration": 1, "velocity": 91}, {"time": 1322, "pitch": 67, "duration": 2, "velocity": 110}, {"time": 1325, "pitch": 69, "duration": 8, "velocity": 116}, {"time": 1328, "pitch": 57, "duration": 15, "velocity": 98}, {"time": 1334, "pitch": 62, "duration": 4, "velocity": 89}, {"time": 1340, "pitch": 62, "duration": 9, "velocity": 110}, {"time": 1340, "pitch": 66, "duration": 9, "velocity": 116}, {"time": 1340, "pitch": 69, "duration": 10, "velocity": 116}, {"time": 1346, "pitch": 50, "duration": 1, "velocity": 104}, {"time": 1352, "pitch": 43, "duration": 42, "velocity": 100}, {"time": 1352, "pitch": 62, "duration": 6, "velocity": 107}, {"time": 1352, "pitch": 67, "duration": 4, "velocity": 110}, {"time": 1352, "pitch": 71, "duration": 5, "velocity": 98}, {"time": 1358, "pitch": 55, "duration": 8, "velocity": 81}, {"time": 1364, "pitch": 59, "duration": 13, "velocity": 98}, {"time": 1364, "pitch": 67, "duration": 8, "velocity": 107}, {"time": 1370, "pitch": 55, "duration": 10, "velocity": 81}, {"time": 1373, "pitch": 62, "duration": 4, "velocity": 102}, {"time": 1373, "pitch": 67, "duration": 4, "velocity": 87}, {"time": 1379, "pitch": 59, "duration": 6, "velocity": 89}, {"time": 1379, "pitch": 62, "duration": 6, "velocity": 93}, {"time": 1379, "pitch": 67, "duration": 6, "velocity": 91}, {"time": 1385, "pitch": 55, "duration": 5, "velocity": 91}, {"time": 1388, "pitch": 59, "duration": 9, "velocity": 110}, {"time": 1388, "pitch": 67, "duration": 10, "velocity": 113}, {"time": 1394, "pitch": 55, "duration": 5, "velocity": 87}, {"time": 1397, "pitch": 62, "duration": 2, "velocity": 72}, {"time": 1400, "pitch": 50, "duration": 43, "velocity": 92}, {"time": 1400, "pitch": 62, "duration": 4, "velocity": 98}, {"time": 1400, "pitch": 66, "duration": 5, "velocity": 106}, {"time": 1400, "pitch": 69, "duration": 4, "velocity": 110}, {"time": 1406, "pitch": 57, "duration": 14, "velocity": 84}, {"time": 1412, "pitch": 66, "duration": 5, "velocity": 109}, {"time": 1412, "pitch": 74, "duration": 3, "velocity": 107}, {"time": 1418, "pitch": 62, "duration": 1, "velocity": 89}, {"time": 1421, "pitch": 62, "duration": 1, "velocity": 91}, {"time": 1421, "pitch": 66, "duration": 1, "velocity": 84}, {"time": 1421, "pitch": 69, "duration": 1, "velocity": 98}, {"time": 1427, "pitch": 62, "duration": 5, "velocity": 100}, {"time": 1427, "pitch": 66, "duration": 5, "velocity": 113}, {"time": 1427, "pitch": 69, "duration": 5, "velocity": 110}, {"time": 1433, "pitch": 57, "duration": 5, "velocity": 87}, {"time": 1436, "pitch": 62, "duration": 12, "velocity": 116}, {"time": 1436, "pitch": 69, "duration": 6, "velocity": 110}, {"time": 1442, "pitch": 66, "duration": 6, "velocity": 109}, {"time": 1445, "pitch": 57, "duration": 1, "velocity": 32}, {"time": 1448, "pitch": 52, "duration": 41, "velocity": 107}, {"time": 1454, "pitch": 59, "duration": 7, "velocity": 87}, {"time": 1460, "pitch": 64, "duration": 8, "velocity": 114}, {"time": 1460, "pitch": 71, "duration": 8, "velocity": 113}, {"time": 1466, "pitch": 59, "duration": 12, "velocity": 84}, {"time": 1469, "pitch": 64, "duration": 1, "velocity": 84}, {"time": 1469, "pitch": 67, "duration": 1, "velocity": 107}, {"time": 1475, "pitch": 62, "duration": 6, "velocity": 102}, {"time": 1475, "pitch": 67, "duration": 7, "velocity": 110}, {"time": 1481, "pitch": 59, "duration": 7, "velocity": 91}, {"time": 1484, "pitch": 64, "duration": 6, "velocity": 117}, {"time": 1484, "pitch": 71, "duration": 5, "velocity": 102}, {"time": 1490, "pitch": 67, "duration": 4, "velocity": 100}, {"time": 1496, "pitch": 47, "duration": 42, "velocity": 88}, {"time": 1496, "pitch": 62, "duration": 9, "velocity": 102}, {"time": 1496, "pitch": 69, "duration": 9, "velocity": 113}, {"time": 1502, "pitch": 54, "duration": 41, "velocity": 81}, {"time": 1505, "pitch": 59, "duration": 20, "velocity": 93}, {"time": 1508, "pitch": 62, "duration": 3, "velocity": 104}, {"time": 1511, "pitch": 66, "duration": 2, "velocity": 100}, {"time": 1514, "pitch": 62, "duration": 1, "velocity": 84}, {"time": 1514, "pitch": 69, "duration": 1, "velocity": 89}, {"time": 1517, "pitch": 62, "duration": 5, "velocity": 116}, {"time": 1517, "pitch": 69, "duration": 5, "velocity": 116}, {"time": 1523, "pitch": 62, "duration": 5, "velocity": 93}, {"time": 1523, "pitch": 66, "duration": 6, "velocity": 100}, {"time": 1523, "pitch": 69, "duration": 4, "velocity": 84}, {"time": 1529, "pitch": 59, "duration": 5, "velocity": 107}, {"time": 1532, "pitch": 62, "duration": 6, "velocity": 116}, {"time": 1532, "pitch": 69, "duration": 6, "velocity": 110}, {"time": 1538, "pitch": 59, "duration": 3, "velocity": 79}, {"time": 1538, "pitch": 66, "duration": 4, "velocity": 100}, {"time": 1544, "pitch": 48, "duration": 42, "velocity": 94}, {"time": 1544, "pitch": 60, "duration": 3, "velocity": 98}, {"time": 1544, "pitch": 67, "duration": 4, "velocity": 104}, {"time": 1550, "pitch": 55, "duration": 36, "velocity": 73}, {"time": 1556, "pitch": 64, "duration": 7, "velocity": 98}, {"time": 1556, "pitch": 71, "duration": 7, "velocity": 113}, {"time": 1562, "pitch": 60, "duration": 9, "velocity": 82}, {"time": 1565, "pitch": 64, "duration": 3, "velocity": 104}, {"time": 1565, "pitch": 67, "duration": 1, "velocity": 114}, {"time": 1571, "pitch": 62, "duration": 5, "velocity": 102}, {"time": 1571, "pitch": 67, "duration": 5, "velocity": 100}, {"time": 1577, "pitch": 60, "duration": 8, "velocity": 107}, {"time": 1580, "pitch": 62, "duration": 7, "velocity": 114}, {"time": 1580, "pitch": 67, "duration": 13, "velocity": 116}, {"time": 1586, "pitch": 64, "duration": 6, "velocity": 91}, {"time": 1592, "pitch": 47, "duration": 22, "velocity": 102}, {"time": 1598, "pitch": 54, "duration": 12, "velocity": 84}, {"time": 1601, "pitch": 59, "duration": 8, "velocity": 102}, {"time": 1604, "pitch": 62, "duration": 6, "velocity": 116}, {"time": 1610, "pitch": 69, "duration": 4, "velocity": 102}, {"time": 1616, "pitch": 52, "duration": 15, "velocity": 96}, {"time": 1616, "pitch": 59, "duration": 9, "velocity": 94}, {"time": 1616, "pitch": 64, "duration": 7, "velocity": 104}, {"time": 1616, "pitch": 67, "duration": 6, "velocity": 88}, {"time": 1628, "pitch": 59, "duration": 5, "velocity": 108}, {"time": 1628, "pitch": 64, "duration": 5, "velocity": 114}, {"time": 1628, "pitch": 67, "duration": 6, "velocity": 104}, {"time": 1634, "pitch": 52, "duration": 6, "velocity": 100}, {"time": 1640, "pitch": 45, "duration": 44, "velocity": 88}, {"time": 1640, "pitch": 57, "duration": 4, "velocity": 102}, {"time": 1640, "pitch": 60, "duration": 9, "velocity": 108}, {"time": 1640, "pitch": 64, "duration": 9, "velocity": 108}, {"time": 1646, "pitch": 52, "duration": 38, "velocity": 86}, {"time": 1649, "pitch": 57, "duration": 5, "velocity": 94}, {"time": 1652, "pitch": 60, "duration": 5, "velocity": 114}, {"time": 1652, "pitch": 64, "duration": 5, "velocity": 117}, {"time": 1658, "pitch": 57, "duration": 8, "velocity": 91}, {"time": 1664, "pitch": 60, "duration": 7, "velocity": 104}, {"time": 1664, "pitch": 69, "duration": 6, "velocity": 114}, {"time": 1670, "pitch": 57, "duration": 8, "velocity": 86}, {"time": 1673, "pitch": 64, "duration": 1, "velocity": 113}, {"time": 1679, "pitch": 60, "duration": 4, "velocity": 108}, {"time": 1679, "pitch": 69, "duration": 4, "velocity": 108}, {"time": 1682, "pitch": 57, "duration": 7, "velocity": 104}, {"time": 1685, "pitch": 60, "duration": 2, "velocity": 75}, {"time": 1685, "pitch": 69, "duration": 2, "velocity": 78}, {"time": 1688, "pitch": 50, "duration": 42, "velocity": 104}, {"time": 1688, "pitch": 62, "duration": 3, "velocity": 110}, {"time": 1688, "pitch": 66, "duration": 4, "velocity": 109}, {"time": 1688, "pitch": 69, "duration": 4, "velocity": 91}, {"time": 1694, "pitch": 57, "duration": 17, "velocity": 76}, {"time": 1697, "pitch": 62, "duration": 3, "velocity": 87}, {"time": 1700, "pitch": 66, "duration": 6, "velocity": 113}, {"time": 1700, "pitch": 74, "duration": 4, "velocity": 119}, {"time": 1706, "pitch": 62, "duration": 1, "velocity": 88}, {"time": 1712, "pitch": 62, "duration": 4, "velocity": 88}, {"time": 1712, "pitch": 69, "duration": 4, "velocity": 110}, {"time": 1715, "pitch": 57, "duration": 3, "velocity": 93}, {"time": 1718, "pitch": 62, "duration": 3, "velocity": 86}, {"time": 1718, "pitch": 66, "duration": 4, "velocity": 119}, {"time": 1718, "pitch": 69, "duration": 3, "velocity": 83}, {"time": 1721, "pitch": 57, "duration": 4, "velocity": 100}, {"time": 1724, "pitch": 62, "duration": 7, "velocity": 110}, {"time": 1724, "pitch": 69, "duration": 6, "velocity": 117}, {"time": 1727, "pitch": 57, "duration": 2, "velocity": 88}, {"time": 1730, "pitch": 66, "duration": 4, "velocity": 106}, {"time": 1736, "pitch": 43, "duration": 43, "velocity": 93}, {"time": 1736, "pitch": 62, "duration": 6, "velocity": 100}, {"time": 1736, "pitch": 71, "duration": 3, "velocity": 96}, {"time": 1742, "pitch": 50, "duration": 37, "velocity": 78}, {"time": 1748, "pitch": 59, "duration": 9, "velocity": 113}, {"time": 1748, "pitch": 67, "duration": 6, "velocity": 107}, {"time": 1754, "pitch": 55, "duration": 9, "velocity": 87}, {"time": 1757, "pitch": 62, "duration": 1, "velocity": 93}, {"time": 1763, "pitch": 59, "duration": 5, "velocity": 104}, {"time": 1763, "pitch": 67, "duration": 5, "velocity": 98}, {"time": 1766, "pitch": 55, "duration": 4, "velocity": 89}, {"time": 1772, "pitch": 59, "duration": 8, "velocity": 117}, {"time": 1772, "pitch": 67, "duration": 9, "velocity": 110}, {"time": 1778, "pitch": 55, "duration": 4, "velocity": 84}, {"time": 1778, "pitch": 62, "duration": 4, "velocity": 86}, {"time": 1784, "pitch": 50, "duration": 44, "velocity": 107}, {"time": 1790, "pitch": 57, "duration": 8, "velocity": 86}, {"time": 1796, "pitch": 62, "duration": 6, "velocity": 113}, {"time": 1796, "pitch": 66, "duration": 6, "velocity": 116}, {"time": 1796, "pitch": 69, "duration": 6, "velocity": 114}, {"time": 1802, "pitch": 57, "duration": 10, "velocity": 86}, {"time": 1805, "pitch": 62, "duration": 1, "velocity": 98}, {"time": 1805, "pitch": 66, "duration": 1, "velocity": 113}, {"time": 1805, "pitch": 69, "duration": 1, "velocity": 98}, {"time": 1808, "pitch": 66, "duration": 1, "velocity": 90}, {"time": 1811, "pitch": 62, "duration": 5, "velocity": 104}, {"time": 1811, "pitch": 66, "duration": 5, "velocity": 116}, {"time": 1811, "pitch": 69, "duration": 5, "velocity": 113}, {"time": 1814, "pitch": 57, "duration": 4, "velocity": 104}, {"time": 1820, "pitch": 62, "duration": 7, "velocity": 114}, {"time": 1820, "pitch": 69, "duration": 7, "velocity": 113}, {"time": 1826, "pitch": 57, "duration": 5, "velocity": 90}, {"time": 1826, "pitch": 66, "duration": 4, "velocity": 113}, {"time": 1832, "pitch": 52, "duration": 42, "velocity": 102}, {"time": 1832, "pitch": 64, "duration": 8, "velocity": 96}, {"time": 1832, "pitch": 67, "duration": 8, "velocity": 116}, {"time": 1835, "pitch": 71, "duration": 5, "velocity": 74}, {"time": 1844, "pitch": 59, "duration": 16, "velocity": 104}, {"time": 1844, "pitch": 64, "duration": 6, "velocity": 102}, {"time": 1844, "pitch": 67, "duration": 6, "velocity": 108}, {"time": 1844, "pitch": 71, "duration": 6, "velocity": 108}, {"time": 1853, "pitch": 64, "duration": 1, "velocity": 96}, {"time": 1853, "pitch": 67, "duration": 1, "velocity": 104}, {"time": 1853, "pitch": 71, "duration": 1, "velocity": 94}, {"time": 1859, "pitch": 64, "duration": 6, "velocity": 102}, {"time": 1859, "pitch": 67, "duration": 6, "velocity": 104}, {"time": 1859, "pitch": 71, "duration": 6, "velocity": 102}, {"time": 1865, "pitch": 59, "duration": 4, "velocity": 114}, {"time": 1868, "pitch": 64, "duration": 7, "velocity": 116}, {"time": 1868, "pitch": 67, "duration": 6, "velocity": 116}, {"time": 1868, "pitch": 71, "duration": 6, "velocity": 110}, {"time": 1874, "pitch": 59, "duration": 5, "velocity": 94}, {"time": 1880, "pitch": 47, "duration": 43, "velocity": 89}, {"time": 1880, "pitch": 62, "duration": 7, "velocity": 96}, {"time": 1880, "pitch": 66, "duration": 8, "velocity": 95}, {"time": 1880, "pitch": 69, "duration": 8, "velocity": 92}, {"time": 1886, "pitch": 54, "duration": 41, "velocity": 78}, {"time": 1892, "pitch": 62, "duration": 7, "velocity": 91}, {"time": 1892, "pitch": 66, "duration": 7, "velocity": 95}, {"time": 1892, "pitch": 69, "duration": 6, "velocity": 92}, {"time": 1898, "pitch": 59, "duration": 9, "velocity": 81}, {"time": 1901, "pitch": 62, "duration": 1, "velocity": 90}, {"time": 1901, "pitch": 66, "duration": 1, "velocity": 89}, {"time": 1901, "pitch": 69, "duration": 1, "velocity": 87}, {"time": 1907, "pitch": 62, "duration": 6, "velocity": 92}, {"time": 1907, "pitch": 66, "duration": 6, "velocity": 106}, {"time": 1907, "pitch": 69, "duration": 6, "velocity": 93}, {"time": 1913, "pitch": 59, "duration": 4, "velocity": 108}, {"time": 1916, "pitch": 62, "duration": 6, "velocity": 110}, {"time": 1916, "pitch": 66, "duration": 6, "velocity": 119}, {"time": 1916, "pitch": 69, "duration": 7, "velocity": 108}, {"time": 1922, "pitch": 59, "duration": 2, "velocity": 88}, {"time": 1928, "pitch": 48, "duration": 42, "velocity": 92}, {"time": 1928, "pitch": 60, "duration": 5, "velocity": 98}, {"time": 1928, "pitch": 64, "duration": 5, "velocity": 110}, {"time": 1928, "pitch": 67, "duration": 5, "velocity": 108}, {"time": 1934, "pitch": 55, "duration": 9, "velocity": 76}, {"time": 1940, "pitch": 60, "duration": 8, "velocity": 93}, {"time": 1940, "pitch": 64, "duration": 5, "velocity": 108}, {"time": 1940, "pitch": 67, "duration": 8, "velocity": 98}, {"time": 1946, "pitch": 55, "duration": 7, "velocity": 76}, {"time": 1952, "pitch": 60, "duration": 6, "velocity": 90}, {"time": 1952, "pitch": 64, "duration": 6, "velocity": 107}, {"time": 1952, "pitch": 67, "duration": 6, "velocity": 107}, {"time": 1958, "pitch": 55, "duration": 6, "velocity": 84}, {"time": 1964, "pitch": 60, "duration": 7, "velocity": 110}, {"time": 1964, "pitch": 67, "duration": 7, "velocity": 113}, {"time": 1970, "pitch": 64, "duration": 5, "velocity": 93}, {"time": 1976, "pitch": 47, "duration": 20, "velocity": 91}, {"time": 1976, "pitch": 62, "duration": 8, "velocity": 89}, {"time": 1976, "pitch": 66, "duration": 8, "velocity": 103}, {"time": 1976, "pitch": 69, "duration": 5, "velocity": 96}, {"time": 1982, "pitch": 54, "duration": 9, "velocity": 79}, {"time": 1988, "pitch": 59, "duration": 7, "velocity": 91}, {"time": 1988, "pitch": 62, "duration": 6, "velocity": 104}, {"time": 1988, "pitch": 66, "duration": 6, "velocity": 109}, {"time": 1988, "pitch": 69, "duration": 6, "velocity": 91}, {"time": 1994, "pitch": 54, "duration": 5, "velocity": 84}, {"time": 2000, "pitch": 52, "duration": 14, "velocity": 98}, {"time": 2000, "pitch": 59, "duration": 9, "velocity": 100}, {"time": 2000, "pitch": 64, "duration": 9, "velocity": 110}, {"time": 2000, "pitch": 67, "duration": 8, "velocity": 98}, {"time": 2012, "pitch": 59, "duration": 6, "velocity": 102}, {"time": 2012, "pitch": 64, "duration": 6, "velocity": 110}, {"time": 2012, "pitch": 67, "duration": 7, "velocity": 93}, {"time": 2018, "pitch": 52, "duration": 5, "velocity": 107}, {"time": 2024, "pitch": 45, "duration": 25, "velocity": 92}, {"time": 2024, "pitch": 57, "duration": 8, "velocity": 92}, {"time": 2024, "pitch": 60, "duration": 8, "velocity": 104}, {"time": 2024, "pitch": 64, "duration": 6, "velocity": 93}, {"time": 2024, "pitch": 67, "duration": 7, "velocity": 93}, {"time": 2030, "pitch": 52, "duration": 7, "velocity": 82}, {"time": 2036, "pitch": 57, "duration": 5, "velocity": 96}, {"time": 2036, "pitch": 60, "duration": 5, "velocity": 102}, {"time": 2036, "pitch": 64, "duration": 5, "velocity": 93}, {"time": 2036, "pitch": 67, "duration": 6, "velocity": 89}, {"time": 2042, "pitch": 52, "duration": 7, "velocity": 84}, {"time": 2048, "pitch": 50, "duration": 15, "velocity": 88}, {"time": 2048, "pitch": 62, "duration": 8, "velocity": 104}, {"time": 2048, "pitch": 66, "duration": 7, "velocity": 106}, {"time": 2048, "pitch": 69, "duration": 8, "velocity": 100}, {"time": 2060, "pitch": 62, "duration": 7, "velocity": 98}, {"time": 2060, "pitch": 66, "duration": 7, "velocity": 116}, {"time": 2060, "pitch": 69, "duration": 6, "velocity": 98}, {"time": 2066, "pitch": 50, "duration": 5, "velocity": 92}, {"time": 2072, "pitch": 43, "duration": 43, "velocity": 88}, {"time": 2072, "pitch": 59, "duration": 11, "velocity": 98}, {"time": 2072, "pitch": 62, "duration": 10, "velocity": 104}, {"time": 2072, "pitch": 67, "duration": 14, "velocity": 88}, {"time": 2078, "pitch": 50, "duration": 38, "velocity": 81}, {"time": 2084, "pitch": 55, "duration": 12, "velocity": 87}, {"time": 2090, "pitch": 59, "duration": 11, "velocity": 93}, {"time": 2090, "pitch": 62, "duration": 11, "velocity": 107}, {"time": 2090, "pitch": 67, "duration": 9, "velocity": 98}, {"time": 2102, "pitch": 55, "duration": 7, "velocity": 88}, {"time": 2108, "pitch": 57, "duration": 6, "velocity": 88}, {"time": 2108, "pitch": 62, "duration": 6, "velocity": 90}, {"time": 2114, "pitch": 59, "duration": 1, "velocity": 83}, {"time": 2120, "pitch": 52, "duration": 46, "velocity": 88}, {"time": 2120, "pitch": 59, "duration": 9, "velocity": 94}, {"time": 2120, "pitch": 64, "duration": 10, "velocity": 104}, {"time": 2120, "pitch": 67, "duration": 9, "velocity": 93}, {"time": 2132, "pitch": 59, "duration": 10, "velocity": 86}, {"time": 2132, "pitch": 64, "duration": 10, "velocity": 88}, {"time": 2132, "pitch": 67, "duration": 9, "velocity": 87}, {"time": 2144, "pitch": 59, "duration": 10, "velocity": 84}, {"time": 2144, "pitch": 64, "duration": 10, "velocity": 86}, {"time": 2144, "pitch": 67, "duration": 9, "velocity": 84}, {"time": 2156, "pitch": 59, "duration": 6, "velocity": 91}, {"time": 2156, "pitch": 64, "duration": 9, "velocity": 91}, {"time": 2156, "pitch": 67, "duration": 8, "velocity": 88}, {"time": 2168, "pitch": 48, "duration": 44, "velocity": 84}, {"time": 2168, "pitch": 60, "duration": 10, "velocity": 88}, {"time": 2168, "pitch": 64, "duration": 11, "velocity": 91}, {"time": 2168, "pitch": 67, "duration": 9, "velocity": 90}, {"time": 2180, "pitch": 60, "duration": 7, "velocity": 86}, {"time": 2180, "pitch": 64, "duration": 7, "velocity": 89}, {"time": 2180, "pitch": 67, "duration": 7, "velocity": 88}, {"time": 2186, "pitch": 55, "duration": 10, "velocity": 58}, {"time": 2189, "pitch": 60, "duration": 1, "velocity": 86}, {"time": 2189, "pitch": 64, "duration": 1, "velocity": 88}, {"time": 2189, "pitch": 67, "duration": 1, "velocity": 87}, {"time": 2195, "pitch": 60, "duration": 6, "velocity": 84}, {"time": 2195, "pitch": 64, "duration": 6, "velocity": 87}, {"time": 2195, "pitch": 67, "duration": 6, "velocity": 88}, {"time": 2201, "pitch": 55, "duration": 4, "velocity": 79}, {"time": 2204, "pitch": 60, "duration": 7, "velocity": 88}, {"time": 2204, "pitch": 64, "duration": 9, "velocity": 94}, {"time": 2204, "pitch": 67, "duration": 8, "velocity": 90}, {"time": 2210, "pitch": 55, "duration": 5, "velocity": 80}, {"time": 2216, "pitch": 43, "duration": 42, "velocity": 89}, {"time": 2216, "pitch": 59, "duration": 9, "velocity": 86}, {"time": 2216, "pitch": 62, "duration": 9, "velocity": 89}, {"time": 2216, "pitch": 67, "duration": 8, "velocity": 88}, {"time": 2222, "pitch": 55, "duration": 6, "velocity": 63}, {"time": 2228, "pitch": 59, "duration": 7, "velocity": 86}, {"time": 2228, "pitch": 62, "duration": 7, "velocity": 89}, {"time": 2228, "pitch": 67, "duration": 7, "velocity": 87}, {"time": 2234, "pitch": 55, "duration": 10, "velocity": 65}, {"time": 2237, "pitch": 59, "duration": 1, "velocity": 85}, {"time": 2237, "pitch": 62, "duration": 1, "velocity": 87}, {"time": 2237, "pitch": 67, "duration": 1, "velocity": 85}, {"time": 2243, "pitch": 59, "duration": 5, "velocity": 83}, {"time": 2243, "pitch": 62, "duration": 6, "velocity": 87}, {"time": 2243, "pitch": 67, "duration": 5, "velocity": 84}, {"time": 2249, "pitch": 55, "duration": 4, "velocity": 76}, {"time": 2252, "pitch": 59, "duration": 6, "velocity": 88}, {"time": 2252, "pitch": 62, "duration": 7, "velocity": 89}, {"time": 2252, "pitch": 67, "duration": 7, "velocity": 91}, {"time": 2258, "pitch": 55, "duration": 3, "velocity": 82}, {"time": 2264, "pitch": 48, "duration": 38, "velocity": 86}, {"time": 2264, "pitch": 60, "duration": 10, "velocity": 82}, {"time": 2264, "pitch": 64, "duration": 11, "velocity": 86}, {"time": 2264, "pitch": 67, "duration": 9, "velocity": 86}, {"time": 2276, "pitch": 60, "duration": 7, "velocity": 87}, {"time": 2276, "pitch": 64, "duration": 8, "velocity": 88}, {"time": 2276, "pitch": 67, "duration": 7, "velocity": 88}, {"time": 2285, "pitch": 60, "duration": 2, "velocity": 80}, {"time": 2285, "pitch": 64, "duration": 2, "velocity": 78}, {"time": 2285, "pitch": 67, "duration": 2, "velocity": 86}, {"time": 2288, "pitch": 60, "duration": 1, "velocity": 71}, {"time": 2288, "pitch": 64, "duration": 1, "velocity": 74}, {"time": 2288, "pitch": 67, "duration": 1, "velocity": 63}, {"time": 2291, "pitch": 60, "duration": 6, "velocity": 84}, {"time": 2291, "pitch": 64, "duration": 7, "velocity": 86}, {"time": 2291, "pitch": 67, "duration": 6, "velocity": 85}, {"time": 2300, "pitch": 60, "duration": 6, "velocity": 93}, {"time": 2300, "pitch": 64, "duration": 7, "velocity": 96}, {"time": 2300, "pitch": 67, "duration": 7, "velocity": 94}, {"time": 2306, "pitch": 48, "duration": 4, "velocity": 87}, {"time": 2312, "pitch": 52, "duration": 39, "velocity": 88}, {"time": 2312, "pitch": 59, "duration": 10, "velocity": 87}, {"time": 2312, "pitch": 64, "duration": 10, "velocity": 93}, {"time": 2312, "pitch": 67, "duration": 9, "velocity": 91}, {"time": 2324, "pitch": 59, "duration": 7, "velocity": 87}, {"time": 2324, "pitch": 64, "duration": 7, "velocity": 90}, {"time": 2324, "pitch": 67, "duration": 7, "velocity": 88}, {"time": 2333, "pitch": 59, "duration": 1, "velocity": 84}, {"time": 2333, "pitch": 64, "duration": 1, "velocity": 83}, {"time": 2333, "pitch": 67, "duration": 1, "velocity": 82}, {"time": 2339, "pitch": 59, "duration": 6, "velocity": 83}, {"time": 2339, "pitch": 64, "duration": 7, "velocity": 87}, {"time": 2339, "pitch": 67, "duration": 6, "velocity": 84}, {"time": 2348, "pitch": 59, "duration": 7, "velocity": 92}, {"time": 2348, "pitch": 64, "duration": 10, "velocity": 93}, {"time": 2348, "pitch": 67, "duration": 8, "velocity": 91}, {"time": 2354, "pitch": 52, "duration": 5, "velocity": 86}, {"time": 2360, "pitch": 48, "duration": 31, "velocity": 85}, {"time": 2360, "pitch": 60, "duration": 8, "velocity": 88}, {"time": 2360, "pitch": 64, "duration": 9, "velocity": 91}, {"time": 2360, "pitch": 67, "duration": 8, "velocity": 89}, {"time": 2372, "pitch": 60, "duration": 8, "velocity": 88}, {"time": 2372, "pitch": 64, "duration": 9, "velocity": 91}, {"time": 2372, "pitch": 67, "duration": 8, "velocity": 89}, {"time": 2381, "pitch": 60, "duration": 1, "velocity": 87}, {"time": 2381, "pitch": 64, "duration": 1, "velocity": 87}, {"time": 2381, "pitch": 67, "duration": 1, "velocity": 85}, {"time": 2387, "pitch": 60, "duration": 6, "velocity": 88}, {"time": 2387, "pitch": 64, "duration": 6, "velocity": 89}, {"time": 2387, "pitch": 67, "duration": 5, "velocity": 88}, {"time": 2393, "pitch": 48, "duration": 7, "velocity": 82}, {"time": 2396, "pitch": 60, "duration": 6, "velocity": 91}, {"time": 2396, "pitch": 64, "duration": 10, "velocity": 100}, {"time": 2396, "pitch": 67, "duration": 8, "velocity": 92}, {"time": 2402, "pitch": 48, "duration": 5, "velocity": 88}, {"time": 2408, "pitch": 43, "duration": 45, "velocity": 87}, {"time": 2408, "pitch": 55, "duration": 13, "velocity": 83}, {"time": 2408, "pitch": 59, "duration": 8, "velocity": 90}, {"time": 2408, "pitch": 62, "duration": 8, "velocity": 96}, {"time": 2408, "pitch": 67, "duration": 8, "velocity": 89}, {"time": 2420, "pitch": 59, "duration": 7, "velocity": 92}, {"time": 2420, "pitch": 62, "duration": 7, "velocity": 98}, {"time": 2420, "pitch": 67, "duration": 7, "velocity": 90}, {"time": 2426, "pitch": 55, "duration": 10, "velocity": 73}, {"time": 2429, "pitch": 59, "duration": 1, "velocity": 87}, {"time": 2429, "pitch": 62, "duration": 1, "velocity": 90}, {"time": 2429, "pitch": 67, "duration": 1, "velocity": 86}, {"time": 2435, "pitch": 59, "duration": 6, "velocity": 88}, {"time": 2435, "pitch": 62, "duration": 6, "velocity": 89}, {"time": 2435, "pitch": 67, "duration": 6, "velocity": 88}, {"time": 2441, "pitch": 55, "duration": 4, "velocity": 79}, {"time": 2444, "pitch": 59, "duration": 7, "velocity": 91}, {"time": 2444, "pitch": 62, "duration": 10, "velocity": 100}, {"time": 2444, "pitch": 67, "duration": 8, "velocity": 91}, {"time": 2450, "pitch": 55, "duration": 4, "velocity": 87}, {"time": 2456, "pitch": 43, "duration": 47, "velocity": 84}, {"time": 2456, "pitch": 62, "duration": 10, "velocity": 91}, {"time": 2456, "pitch": 67, "duration": 10, "velocity": 98}, {"time": 2456, "pitch": 71, "duration": 8, "velocity": 91}, {"time": 2468, "pitch": 62, "duration": 7, "velocity": 86}, {"time": 2468, "pitch": 67, "duration": 7, "velocity": 89}, {"time": 2468, "pitch": 71, "duration": 7, "velocity": 87}, {"time": 2474, "pitch": 55, "duration": 9, "velocity": 69}, {"time": 2477, "pitch": 62, "duration": 1, "velocity": 85}, {"time": 2477, "pitch": 67, "duration": 1, "velocity": 88}, {"time": 2477, "pitch": 71, "duration": 1, "velocity": 86}, {"time": 2483, "pitch": 62, "duration": 5, "velocity": 87}, {"time": 2483, "pitch": 67, "duration": 6, "velocity": 88}, {"time": 2483, "pitch": 71, "duration": 5, "velocity": 87}, {"time": 2489, "pitch": 55, "duration": 4, "velocity": 87}, {"time": 2492, "pitch": 62, "duration": 6, "velocity": 113}, {"time": 2492, "pitch": 67, "duration": 9, "velocity": 117}, {"time": 2492, "pitch": 71, "duration": 8, "velocity": 107}, {"time": 2498, "pitch": 55, "duration": 4, "velocity": 90}, {"time": 2504, "pitch": 43, "duration": 39, "velocity": 88}, {"time": 2504, "pitch": 59, "duration": 13, "velocity": 85}, {"time": 2504, "pitch": 67, "duration": 12, "velocity": 91}, {"time": 2510, "pitch": 50, "duration": 33, "velocity": 72}, {"time": 2516, "pitch": 55, "duration": 18, "velocity": 80}, {"time": 2522, "pitch": 59, "duration": 10, "velocity": 94}, {"time": 2522, "pitch": 62, "duration": 12, "velocity": 104}, {"time": 2534, "pitch": 59, "duration": 12, "velocity": 71}, {"time": 2534, "pitch": 67, "duration": 8, "velocity": 87}, {"time": 2540, "pitch": 55, "duration": 11, "velocity": 87}, {"time": 2546, "pitch": 62, "duration": 5, "velocity": 85}, {"time": 2546, "pitch": 67, "duration": 4, "velocity": 86}, {"time": 2552, "pitch": 50, "duration": 44, "velocity": 87}, {"time": 2552, "pitch": 62, "duration": 3, "velocity": 96}, {"time": 2552, "pitch": 66, "duration": 4, "velocity": 86}, {"time": 2555, "pitch": 57, "duration": 21, "velocity": 77}, {"time": 2564, "pitch": 66, "duration": 6, "velocity": 100}, {"time": 2564, "pitch": 74, "duration": 4, "velocity": 100}, {"time": 2570, "pitch": 62, "duration": 2, "velocity": 74}, {"time": 2576, "pitch": 62, "duration": 9, "velocity": 92}, {"time": 2576, "pitch": 69, "duration": 9, "velocity": 100}, {"time": 2582, "pitch": 57, "duration": 4, "velocity": 66}, {"time": 2588, "pitch": 62, "duration": 9, "velocity": 104}, {"time": 2588, "pitch": 69, "duration": 12, "velocity": 93}, {"time": 2594, "pitch": 57, "duration": 6, "velocity": 82}, {"time": 2600, "pitch": 52, "duration": 38, "velocity": 94}, {"time": 2606, "pitch": 59, "duration": 15, "velocity": 83}, {"time": 2612, "pitch": 62, "duration": 6, "velocity": 110}, {"time": 2612, "pitch": 67, "duration": 17, "velocity": 107}, {"time": 2618, "pitch": 64, "duration": 11, "velocity": 98}, {"time": 2630, "pitch": 59, "duration": 7, "velocity": 87}, {"time": 2636, "pitch": 62, "duration": 6, "velocity": 107}, {"time": 2642, "pitch": 67, "duration": 5, "velocity": 104}, {"time": 2648, "pitch": 47, "duration": 42, "velocity": 87}, {"time": 2648, "pitch": 62, "duration": 12, "velocity": 96}, {"time": 2648, "pitch": 69, "duration": 12, "velocity": 98}, {"time": 2654, "pitch": 54, "duration": 42, "velocity": 77}, {"time": 2660, "pitch": 59, "duration": 8, "velocity": 86}, {"time": 2666, "pitch": 62, "duration": 11, "velocity": 98}, {"time": 2666, "pitch": 69, "duration": 13, "velocity": 94}, {"time": 2678, "pitch": 59, "duration": 12, "velocity": 90}, {"time": 2684, "pitch": 62, "duration": 5, "velocity": 113}, {"time": 2690, "pitch": 69, "duration": 5, "velocity": 108}, {"time": 2696, "pitch": 48, "duration": 41, "velocity": 88}, {"time": 2696, "pitch": 60, "duration": 8, "velocity": 91}, {"time": 2696, "pitch": 67, "duration": 6, "velocity": 104}, {"time": 2702, "pitch": 55, "duration": 8, "velocity": 68}, {"time": 2708, "pitch": 60, "duration": 8, "velocity": 90}, {"time": 2708, "pitch": 67, "duration": 8, "velocity": 96}, {"time": 2714, "pitch": 55, "duration": 7, "velocity": 68}, {"time": 2720, "pitch": 60, "duration": 10, "velocity": 91}, {"time": 2720, "pitch": 67, "duration": 10, "velocity": 98}, {"time": 2729, "pitch": 55, "duration": 7, "velocity": 87}, {"time": 2732, "pitch": 60, "duration": 6, "velocity": 104}, {"time": 2732, "pitch": 67, "duration": 5, "velocity": 108}, {"time": 2738, "pitch": 69, "duration": 3, "velocity": 84}, {"time": 2744, "pitch": 47, "duration": 18, "velocity": 88}, {"time": 2744, "pitch": 62, "duration": 7, "velocity": 86}, {"time": 2744, "pitch": 66, "duration": 7, "velocity": 87}, {"time": 2744, "pitch": 69, "duration": 5, "velocity": 92}, {"time": 2750, "pitch": 54, "duration": 7, "velocity": 81}, {"time": 2756, "pitch": 62, "duration": 11, "velocity": 93}, {"time": 2756, "pitch": 66, "duration": 5, "velocity": 109}, {"time": 2756, "pitch": 69, "duration": 6, "velocity": 93}, {"time": 2762, "pitch": 54, "duration": 6, "velocity": 83}, {"time": 2768, "pitch": 52, "duration": 15, "velocity": 89}, {"time": 2768, "pitch": 59, "duration": 9, "velocity": 91}, {"time": 2768, "pitch": 64, "duration": 9, "velocity": 96}, {"time": 2768, "pitch": 67, "duration": 8, "velocity": 89}, {"time": 2780, "pitch": 59, "duration": 6, "velocity": 102}, {"time": 2780, "pitch": 64, "duration": 6, "velocity": 113}, {"time": 2780, "pitch": 67, "duration": 7, "velocity": 94}, {"time": 2786, "pitch": 52, "duration": 5, "velocity": 88}, {"time": 2792, "pitch": 45, "duration": 43, "velocity": 88}, {"time": 2792, "pitch": 57, "duration": 4, "velocity": 92}, {"time": 2792, "pitch": 60, "duration": 5, "velocity": 102}, {"time": 2792, "pitch": 64, "duration": 5, "velocity": 102}, {"time": 2798, "pitch": 52, "duration": 36, "velocity": 72}, {"time": 2804, "pitch": 60, "duration": 9, "velocity": 102}, {"time": 2804, "pitch": 69, "duration": 8, "velocity": 108}, {"time": 2810, "pitch": 57, "duration": 11, "velocity": 81}, {"time": 2813, "pitch": 64, "duration": 1, "velocity": 91}, {"time": 2813, "pitch": 69, "duration": 1, "velocity": 84}, {"time": 2819, "pitch": 60, "duration": 6, "velocity": 98}, {"time": 2819, "pitch": 69, "duration": 6, "velocity": 94}, {"time": 2825, "pitch": 57, "duration": 4, "velocity": 87}, {"time": 2828, "pitch": 60, "duration": 8, "velocity": 114}, {"time": 2828, "pitch": 69, "duration": 7, "velocity": 110}, {"time": 2834, "pitch": 57, "duration": 5, "velocity": 84}, {"time": 2834, "pitch": 64, "duration": 5, "velocity": 87}, {"time": 2840, "pitch": 50, "duration": 39, "velocity": 91}, {"time": 2840, "pitch": 62, "duration": 4, "velocity": 90}, {"time": 2840, "pitch": 66, "duration": 5, "velocity": 109}, {"time": 2840, "pitch": 69, "duration": 5, "velocity": 102}, {"time": 2846, "pitch": 57, "duration": 15, "velocity": 82}, {"time": 2849, "pitch": 62, "duration": 12, "velocity": 107}, {"time": 2852, "pitch": 64, "duration": 4, "velocity": 108}, {"time": 2855, "pitch": 66, "duration": 1, "velocity": 91}, {"time": 2858, "pitch": 67, "duration": 2, "velocity": 110}, {"time": 2861, "pitch": 69, "duration": 8, "velocity": 116}, {"time": 2864, "pitch": 57, "duration": 15, "velocity": 98}, {"time": 2870, "pitch": 62, "duration": 4, "velocity": 89}, {"time": 2876, "pitch": 62, "duration": 9, "velocity": 110}, {"time": 2876, "pitch": 66, "duration": 9, "velocity": 116}, {"time": 2876, "pitch": 69, "duration": 10, "velocity": 116}, {"time": 2882, "pitch": 50, "duration": 1, "velocity": 104}, {"time": 2888, "pitch": 43, "duration": 42, "velocity": 100}, {"time": 2888, "pitch": 62, "duration": 6, "velocity": 107}, {"time": 2888, "pitch": 67, "duration": 4, "velocity": 110}, {"time": 2888, "pitch": 71, "duration": 5, "velocity": 98}, {"time": 2894, "pitch": 55, "duration": 8, "velocity": 81}, {"time": 2900, "pitch": 59, "duration": 13, "velocity": 98}, {"time": 2900, "pitch": 67, "duration": 8, "velocity": 107}, {"time": 2906, "pitch": 55, "duration": 10, "velocity": 81}, {"time": 2909, "pitch": 62, "duration": 4, "velocity": 102}, {"time": 2909, "pitch": 67, "duration": 4, "velocity": 87}, {"time": 2915, "pitch": 59, "duration": 6, "velocity": 89}, {"time": 2915, "pitch": 62, "duration": 6, "velocity": 93}, {"time": 2915, "pitch": 67, "duration": 6, "velocity": 91}, {"time": 2921, "pitch": 55, "duration": 5, "velocity": 91}, {"time": 2924, "pitch": 59, "duration": 9, "velocity": 110}, {"time": 2924, "pitch": 67, "duration": 10, "velocity": 113}, {"time": 2930, "pitch": 55, "duration": 5, "velocity": 87}, {"time": 2933, "pitch": 62, "duration": 2, "velocity": 72}, {"time": 2936, "pitch": 50, "duration": 43, "velocity": 92}, {"time": 2936, "pitch": 62, "duration": 4, "velocity": 98}, {"time": 2936, "pitch": 66, "duration": 5, "velocity": 106}, {"time": 2936, "pitch": 69, "duration": 4, "velocity": 110}, {"time": 2942, "pitch": 57, "duration": 14, "velocity": 84}, {"time": 2948, "pitch": 66, "duration": 5, "velocity": 109}, {"time": 2948, "pitch": 74, "duration": 3, "velocity": 107}, {"time": 2954, "pitch": 62, "duration": 1, "velocity": 89}, {"time": 2957, "pitch": 62, "duration": 1, "velocity": 91}, {"time": 2957, "pitch": 66, "duration": 1, "velocity": 84}, {"time": 2957, "pitch": 69, "duration": 1, "velocity": 98}, {"time": 2963, "pitch": 62, "duration": 5, "velocity": 100}, {"time": 2963, "pitch": 66, "duration": 5, "velocity": 113}, {"time": 2963, "pitch": 69, "duration": 5, "velocity": 110}, {"time": 2969, "pitch": 57, "duration": 5, "velocity": 87}, {"time": 2972, "pitch": 62, "duration": 12, "velocity": 116}, {"time": 2972, "pitch": 69, "duration": 6, "velocity": 110}, {"time": 2978, "pitch": 66, "duration": 6, "velocity": 109}, {"time": 2981, "pitch": 57, "duration": 1, "velocity": 32}, {"time": 2984, "pitch": 52, "duration": 41, "velocity": 107}, {"time": 2990, "pitch": 59, "duration": 7, "velocity": 87}, {"time": 2996, "pitch": 64, "duration": 8, "velocity": 114}, {"time": 2996, "pitch": 71, "duration": 8, "velocity": 113}, {"time": 3002, "pitch": 59, "duration": 12, "velocity": 84}, {"time": 3005, "pitch": 64, "duration": 1, "velocity": 84}, {"time": 3005, "pitch": 67, "duration": 1, "velocity": 107}, {"time": 3011, "pitch": 62, "duration": 6, "velocity": 102}, {"time": 3011, "pitch": 67, "duration": 7, "velocity": 110}, {"time": 3017, "pitch": 59, "duration": 7, "velocity": 91}, {"time": 3020, "pitch": 64, "duration": 6, "velocity": 117}, {"time": 3020, "pitch": 71, "duration": 5, "velocity": 102}, {"time": 3026, "pitch": 67, "duration": 4, "velocity": 100}, {"time": 3032, "pitch": 47, "duration": 42, "velocity": 88}, {"time": 3032, "pitch": 62, "duration": 9, "velocity": 102}, {"time": 3032, "pitch": 69, "duration": 9, "velocity": 113}, {"time": 3038, "pitch": 54, "duration": 41, "velocity": 81}, {"time": 3041, "pitch": 59, "duration": 20, "velocity": 93}, {"time": 3044, "pitch": 62, "duration": 3, "velocity": 104}, {"time": 3047, "pitch": 66, "duration": 2, "velocity": 100}, {"time": 3050, "pitch": 62, "duration": 1, "velocity": 84}, {"time": 3050, "pitch": 69, "duration": 1, "velocity": 89}, {"time": 3053, "pitch": 62, "duration": 5, "velocity": 116}, {"time": 3053, "pitch": 69, "duration": 5, "velocity": 116}, {"time": 3059, "pitch": 62, "duration": 5, "velocity": 93}, {"time": 3059, "pitch": 66, "duration": 6, "velocity": 100}, {"time": 3059, "pitch": 69, "duration": 4, "velocity": 84}, {"time": 3065, "pitch": 59, "duration": 5, "velocity": 107}, {"time": 3068, "pitch": 62, "duration": 6, "velocity": 116}, {"time": 3068, "pitch": 69, "duration": 6, "velocity": 110}, {"time": 3074, "pitch": 59, "duration": 3, "velocity": 79}, {"time": 3074, "pitch": 66, "duration": 4, "velocity": 100}, {"time": 3080, "pitch": 48, "duration": 42, "velocity": 94}, {"time": 3080, "pitch": 60, "duration": 3, "velocity": 98}, {"time": 3080, "pitch": 67, "duration": 4, "velocity": 104}, {"time": 3086, "pitch": 55, "duration": 36, "velocity": 73}, {"time": 3092, "pitch": 64, "duration": 7, "velocity": 98}, {"time": 3092, "pitch": 71, "duration": 7, "velocity": 113}, {"time": 3098, "pitch": 60, "duration": 9, "velocity": 82}, {"time": 3101, "pitch": 64, "duration": 3, "velocity": 104}, {"time": 3101, "pitch": 67, "duration": 1, "velocity": 114}, {"time": 3107, "pitch": 62, "duration": 5, "velocity": 102}, {"time": 3107, "pitch": 67, "duration": 5, "velocity": 100}, {"time": 3113, "pitch": 60, "duration": 8, "velocity": 107}, {"time": 3116, "pitch": 62, "duration": 7, "velocity": 114}, {"time": 3116, "pitch": 67, "duration": 13, "velocity": 116}, {"time": 3122, "pitch": 64, "duration": 6, "velocity": 91}, {"time": 3128, "pitch": 47, "duration": 22, "velocity": 102}, {"time": 3134, "pitch": 54, "duration": 12, "velocity": 84}, {"time": 3137, "pitch": 59, "duration": 8, "velocity": 102}, {"time": 3140, "pitch": 62, "duration": 6, "velocity": 116}, {"time": 3146, "pitch": 69, "duration": 4, "velocity": 102}, {"time": 3152, "pitch": 52, "duration": 15, "velocity": 96}, {"time": 3152, "pitch": 59, "duration": 9, "velocity": 94}, {"time": 3152, "pitch": 64, "duration": 7, "velocity": 104}, {"time": 3152, "pitch": 67, "duration": 6, "velocity": 88}, {"time": 3164, "pitch": 59, "duration": 5, "velocity": 108}, {"time": 3164, "pitch": 64, "duration": 5, "velocity": 114}, {"time": 3164, "pitch": 67, "duration": 6, "velocity": 104}, {"time": 3170, "pitch": 52, "duration": 6, "velocity": 100}, {"time": 3176, "pitch": 45, "duration": 44, "velocity": 88}, {"time": 3176, "pitch": 57, "duration": 4, "velocity": 102}, {"time": 3176, "pitch": 60, "duration": 9, "velocity": 108}, {"time": 3176, "pitch": 64, "duration": 9, "velocity": 108}, {"time": 3182, "pitch": 52, "duration": 38, "velocity": 86}, {"time": 3185, "pitch": 57, "duration": 5, "velocity": 94}, {"time": 3188, "pitch": 60, "duration": 5, "velocity": 114}, {"time": 3188, "pitch": 64, "duration": 5, "velocity": 117}, {"time": 3194, "pitch": 57, "duration": 8, "velocity": 91}, {"time": 3200, "pitch": 60, "duration": 7, "velocity": 104}, {"time": 3200, "pitch": 69, "duration": 6, "velocity": 114}, {"time": 3206, "pitch": 57, "duration": 8, "velocity": 86}, {"time": 3209, "pitch": 64, "duration": 1, "velocity": 113}, {"time": 3215, "pitch": 60, "duration": 4, "velocity": 108}, {"time": 3215, "pitch": 69, "duration": 4, "velocity": 108}, {"time": 3218, "pitch": 57, "duration": 7, "velocity": 104}, {"time": 3221, "pitch": 60, "duration": 2, "velocity": 75}, {"time": 3221, "pitch": 69, "duration": 2, "velocity": 78}, {"time": 3224, "pitch": 50, "duration": 42, "velocity": 104}, {"time": 3224, "pitch": 62, "duration": 3, "velocity": 110}, {"time": 3224, "pitch": 66, "duration": 4, "velocity": 109}, {"time": 3224, "pitch": 69, "duration": 4, "velocity": 91}, {"time": 3230, "pitch": 57, "duration": 17, "velocity": 76}, {"time": 3233, "pitch": 62, "duration": 3, "velocity": 87}, {"time": 3236, "pitch": 66, "duration": 6, "velocity": 113}, {"time": 3236, "pitch": 74, "duration": 4, "velocity": 119}, {"time": 3242, "pitch": 62, "duration": 1, "velocity": 88}, {"time": 3248, "pitch": 62, "duration": 4, "velocity": 88}, {"time": 3248, "pitch": 69, "duration": 4, "velocity": 110}, {"time": 3251, "pitch": 57, "duration": 3, "velocity": 93}, {"time": 3254, "pitch": 62, "duration": 3, "velocity": 86}, {"time": 3254, "pitch": 66, "duration": 4, "velocity": 119}, {"time": 3254, "pitch": 69, "duration": 3, "velocity": 83}, {"time": 3257, "pitch": 57, "duration": 4, "velocity": 100}, {"time": 3260, "pitch": 62, "duration": 7, "velocity": 110}, {"time": 3260, "pitch": 69, "duration": 6, "velocity": 117}, {"time": 3263, "pitch": 57, "duration": 2, "velocity": 88}, {"time": 3266, "pitch": 66, "duration": 4, "velocity": 106}, {"time": 3272, "pitch": 43, "duration": 43, "velocity": 93}, {"time": 3272, "pitch": 62, "duration": 6, "velocity": 100}, {"time": 3272, "pitch": 71, "duration": 3, "velocity": 96}, {"time": 3278, "pitch": 50, "duration": 37, "velocity": 78}, {"time": 3284, "pitch": 59, "duration": 9, "velocity": 113}, {"time": 3284, "pitch": 67, "duration": 6, "velocity": 107}, {"time": 3290, "pitch": 55, "duration": 9, "velocity": 87}, {"time": 3293, "pitch": 62, "duration": 1, "velocity": 93}, {"time": 3299, "pitch": 59, "duration": 5, "velocity": 104}, {"time": 3299, "pitch": 67, "duration": 5, "velocity": 98}, {"time": 3302, "pitch": 55, "duration": 4, "velocity": 89}, {"time": 3308, "pitch": 59, "duration": 8, "velocity": 117}, {"time": 3308, "pitch": 67, "duration": 9, "velocity": 110}, {"time": 3314, "pitch": 55, "duration": 4, "velocity": 84}, {"time": 3314, "pitch": 62, "duration": 4, "velocity": 86}, {"time": 3320, "pitch": 50, "duration": 44, "velocity": 107}, {"time": 3326, "pitch": 57, "duration": 8, "velocity": 86}, {"time": 3332, "pitch": 62, "duration": 6, "velocity": 113}, {"time": 3332, "pitch": 66, "duration": 6, "velocity": 116}, {"time": 3332, "pitch": 69, "duration": 6, "velocity": 114}, {"time": 3338, "pitch": 57, "duration": 10, "velocity": 86}, {"time": 3341, "pitch": 62, "duration": 1, "velocity": 98}, {"time": 3341, "pitch": 66, "duration": 1, "velocity": 113}, {"time": 3341, "pitch": 69, "duration": 1, "velocity": 98}, {"time": 3344, "pitch": 66, "duration": 1, "velocity": 90}, {"time": 3347, "pitch": 62, "duration": 5, "velocity": 104}, {"time": 3347, "pitch": 66, "duration": 5, "velocity": 116}, {"time": 3347, "pitch": 69, "duration": 5, "velocity": 113}, {"time": 3350, "pitch": 57, "duration": 4, "velocity": 104}, {"time": 3356, "pitch": 62, "duration": 7, "velocity": 114}, {"time": 3356, "pitch": 69, "duration": 7, "velocity": 113}, {"time": 3362, "pitch": 57, "duration": 5, "velocity": 90}, {"time": 3362, "pitch": 66, "duration": 4, "velocity": 113}, {"time": 3368, "pitch": 52, "duration": 42, "velocity": 102}, {"time": 3368, "pitch": 64, "duration": 8, "velocity": 96}, {"time": 3368, "pitch": 67, "duration": 8, "velocity": 116}, {"time": 3371, "pitch": 71, "duration": 5, "velocity": 74}, {"time": 3380, "pitch": 59, "duration": 16, "velocity": 104}, {"time": 3380, "pitch": 64, "duration": 6, "velocity": 102}, {"time": 3380, "pitch": 67, "duration": 6, "velocity": 108}, {"time": 3380, "pitch": 71, "duration": 6, "velocity": 108}, {"time": 3389, "pitch": 64, "duration": 1, "velocity": 96}, {"time": 3389, "pitch": 67, "duration": 1, "velocity": 104}, {"time": 3389, "pitch": 71, "duration": 1, "velocity": 94}, {"time": 3395, "pitch": 64, "duration": 6, "velocity": 102}, {"time": 3395, "pitch": 67, "duration": 6, "velocity": 104}, {"time": 3395, "pitch": 71, "duration": 6, "velocity": 102}, {"time": 3401, "pitch": 59, "duration": 4, "velocity": 114}, {"time": 3404, "pitch": 64, "duration": 7, "velocity": 116}, {"time": 3404, "pitch": 67, "duration": 6, "velocity": 116}, {"time": 3404, "pitch": 71, "duration": 6, "velocity": 110}, {"time": 3410, "pitch": 59, "duration": 5, "velocity": 94}, {"time": 3416, "pitch": 47, "duration": 43, "velocity": 89}, {"time": 3416, "pitch": 62, "duration": 7, "velocity": 96}, {"time": 3416, "pitch": 66, "duration": 8, "velocity": 95}, {"time": 3416, "pitch": 69, "duration": 8, "velocity": 92}, {"time": 3422, "pitch": 54, "duration": 41, "velocity": 78}, {"time": 3428, "pitch": 62, "duration": 7, "velocity": 91}, {"time": 3428, "pitch": 66, "duration": 7, "velocity": 95}, {"time": 3428, "pitch": 69, "duration": 6, "velocity": 92}, {"time": 3434, "pitch": 59, "duration": 9, "velocity": 81}, {"time": 3437, "pitch": 62, "duration": 1, "velocity": 90}, {"time": 3437, "pitch": 66, "duration": 1, "velocity": 89}, {"time": 3437, "pitch": 69, "duration": 1, "velocity": 87}, {"time": 3443, "pitch": 62, "duration": 6, "velocity": 92}, {"time": 3443, "pitch": 66, "duration": 6, "velocity": 106}, {"time": 3443, "pitch": 69, "duration": 6, "velocity": 93}, {"time": 3449, "pitch": 59, "duration": 4, "velocity": 108}, {"time": 3452, "pitch": 62, "duration": 6, "velocity": 110}, {"time": 3452, "pitch": 66, "duration": 6, "velocity": 119}, {"time": 3452, "pitch": 69, "duration": 7, "velocity": 108}, {"time": 3458, "pitch": 59, "duration": 2, "velocity": 88}, {"time": 3464, "pitch": 48, "duration": 42, "velocity": 92}, {"time": 3464, "pitch": 60, "duration": 5, "velocity": 98}, {"time": 3464, "pitch": 64, "duration": 5, "velocity": 110}, {"time": 3464, "pitch": 67, "duration": 5, "velocity": 108}, {"time": 3470, "pitch": 55, "duration": 9, "velocity": 76}, {"time": 3476, "pitch": 60, "duration": 8, "velocity": 93}, {"time": 3476, "pitch": 64, "duration": 5, "velocity": 108}, {"time": 3476, "pitch": 67, "duration": 8, "velocity": 98}, {"time": 3482, "pitch": 55, "duration": 7, "velocity": 76}, {"time": 3488, "pitch": 60, "duration": 6, "velocity": 90}, {"time": 3488, "pitch": 64, "duration": 6, "velocity": 107}, {"time": 3488, "pitch": 67, "duration": 6, "velocity": 107}, {"time": 3494, "pitch": 55, "duration": 6, "velocity": 84}, {"time": 3500, "pitch": 60, "duration": 7, "velocity": 110}, {"time": 3500, "pitch": 67, "duration": 7, "velocity": 113}, {"time": 3506, "pitch": 64, "duration": 5, "velocity": 93}, {"time": 3512, "pitch": 47, "duration": 20, "velocity": 91}, {"time": 3512, "pitch": 62, "duration": 8, "velocity": 89}, {"time": 3512, "pitch": 66, "duration": 8, "velocity": 103}, {"time": 3512, "pitch": 69, "duration": 5, "velocity": 96}, {"time": 3518, "pitch": 54, "duration": 9, "velocity": 79}, {"time": 3524, "pitch": 59, "duration": 7, "velocity": 91}, {"time": 3524, "pitch": 62, "duration": 6, "velocity": 104}, {"time": 3524, "pitch": 66, "duration": 6, "velocity": 109}, {"time": 3524, "pitch": 69, "duration": 6, "velocity": 91}, {"time": 3530, "pitch": 54, "duration": 5, "velocity": 84}, {"time": 3536, "pitch": 52, "duration": 14, "velocity": 98}, {"time": 3536, "pitch": 59, "duration": 9, "velocity": 100}, {"time": 3536, "pitch": 64, "duration": 9, "velocity": 110}, {"time": 3536, "pitch": 67, "duration": 8, "velocity": 98}, {"time": 3548, "pitch": 59, "duration": 6, "velocity": 102}, {"time": 3548, "pitch": 64, "duration": 6, "velocity": 110}, {"time": 3548, "pitch": 67, "duration": 7, "velocity": 93}, {"time": 3554, "pitch": 52, "duration": 5, "velocity": 107}, {"time": 3560, "pitch": 45, "duration": 25, "velocity": 92}, {"time": 3560, "pitch": 57, "duration": 8, "velocity": 92}, {"time": 3560, "pitch": 60, "duration": 8, "velocity": 104}, {"time": 3560, "pitch": 64, "duration": 6, "velocity": 93}, {"time": 3560, "pitch": 67, "duration": 7, "velocity": 93}, {"time": 3566, "pitch": 52, "duration": 7, "velocity": 82}, {"time": 3572, "pitch": 57, "duration": 5, "velocity": 96}, {"time": 3572, "pitch": 60, "duration": 5, "velocity": 102}, {"time": 3572, "pitch": 64, "duration": 5, "velocity": 93}, {"time": 3572, "pitch": 67, "duration": 6, "velocity": 89}, {"time": 3578, "pitch": 52, "duration": 7, "velocity": 84}, {"time": 3584, "pitch": 50, "duration": 15, "velocity": 88}, {"time": 3584, "pitch": 62, "duration": 8, "velocity": 104}, {"time": 3584, "pitch": 66, "duration": 7, "velocity": 106}, {"time": 3584, "pitch": 69, "duration": 8, "velocity": 100}, {"time": 3596, "pitch": 62, "duration": 7, "velocity": 98}, {"time": 3596, "pitch": 66, "duration": 7, "velocity": 116}, {"time": 3596, "pitch": 69, "duration": 6, "velocity": 98}, {"time": 3602, "pitch": 50, "duration": 5, "velocity": 92}, {"time": 3608, "pitch": 43, "duration": 43, "velocity": 88}, {"time": 3608, "pitch": 59, "duration": 11, "velocity": 98}, {"time": 3608, "pitch": 62, "duration": 10, "velocity": 104}, {"time": 3608, "pitch": 67, "duration": 14, "velocity": 88}, {"time": 3614, "pitch": 50, "duration": 38, "velocity": 81}, {"time": 3620, "pitch": 55, "duration": 12, "velocity": 87}, {"time": 3626, "pitch": 59, "duration": 11, "velocity": 93}, {"time": 3626, "pitch": 62, "duration": 11, "velocity": 107}, {"time": 3626, "pitch": 67, "duration": 9, "velocity": 98}, {"time": 3638, "pitch": 55, "duration": 7, "velocity": 88}, {"time": 3644, "pitch": 57, "duration": 6, "velocity": 88}, {"time": 3644, "pitch": 62, "duration": 6, "velocity": 90}, {"time": 3650, "pitch": 59, "duration": 1, "velocity": 83}, {"time": 3656, "pitch": 47, "duration": 11, "velocity": 91}, {"time": 3656, "pitch": 59, "duration": 8, "velocity": 96}, {"time": 3656, "pitch": 62, "duration": 7, "velocity": 110}, {"time": 3656, "pitch": 66, "duration": 8, "velocity": 91}, {"time": 3668, "pitch": 59, "duration": 7, "velocity": 94}, {"time": 3668, "pitch": 62, "duration": 8, "velocity": 107}, {"time": 3668, "pitch": 66, "duration": 10, "velocity": 95}, {"time": 3674, "pitch": 47, "duration": 5, "velocity": 90}, {"time": 3680, "pitch": 55, "duration": 14, "velocity": 92}, {"time": 3680, "pitch": 59, "duration": 10, "velocity": 94}, {"time": 3680, "pitch": 62, "duration": 10, "velocity": 108}, {"time": 3680, "pitch": 67, "duration": 9, "velocity": 98}, {"time": 3692, "pitch": 59, "duration": 6, "velocity": 93}, {"time": 3692, "pitch": 62, "duration": 7, "velocity": 100}, {"time": 3692, "pitch": 67, "duration": 8, "velocity": 92}, {"time": 3698, "pitch": 55, "duration": 5, "velocity": 88}, {"time": 3704, "pitch": 50, "duration": 13, "velocity": 87}, {"time": 3704, "pitch": 62, "duration": 9, "velocity": 108}, {"time": 3704, "pitch": 66, "duration": 9, "velocity": 103}, {"time": 3704, "pitch": 69, "duration": 9, "velocity": 98}, {"time": 3716, "pitch": 62, "duration": 9, "velocity": 114}, {"time": 3716, "pitch": 66, "duration": 9, "velocity": 109}, {"time": 3716, "pitch": 69, "duration": 9, "velocity": 100}, {"time": 3722, "pitch": 50, "duration": 10, "velocity": 96}, {"time": 3728, "pitch": 62, "duration": 9, "velocity": 104}, {"time": 3728, "pitch": 66, "duration": 9, "velocity": 100}, {"time": 3728, "pitch": 69, "duration": 9, "velocity": 92}, {"time": 3737, "pitch": 50, "duration": 3, "velocity": 114}, {"time": 3740, "pitch": 62, "duration": 7, "velocity": 119}, {"time": 3740, "pitch": 66, "duration": 6, "velocity": 119}, {"time": 3740, "pitch": 69, "duration": 6, "velocity": 110}, {"time": 3746, "pitch": 50, "duration": 4, "velocity": 104}, {"time": 3752, "pitch": 47, "duration": 6, "velocity": 88}, {"time": 3752, "pitch": 59, "duration": 9, "velocity": 104}, {"time": 3752, "pitch": 62, "duration": 9, "velocity": 116}, {"time": 3752, "pitch": 66, "duration": 8, "velocity": 113}, {"time": 3761, "pitch": 47, "duration": 20, "velocity": 89}, {"time": 3764, "pitch": 59, "duration": 8, "velocity": 107}, {"time": 3764, "pitch": 62, "duration": 8, "velocity": 117}, {"time": 3764, "pitch": 66, "duration": 8, "velocity": 116}, {"time": 3773, "pitch": 59, "duration": 1, "velocity": 89}, {"time": 3773, "pitch": 62, "duration": 1, "velocity": 96}, {"time": 3773, "pitch": 66, "duration": 1, "velocity": 91}, {"time": 3779, "pitch": 59, "duration": 6, "velocity": 100}, {"time": 3779, "pitch": 62, "duration": 6, "velocity": 114}, {"time": 3779, "pitch": 66, "duration": 6, "velocity": 109}, {"time": 3785, "pitch": 47, "duration": 4, "velocity": 98}, {"time": 3788, "pitch": 59, "duration": 7, "velocity": 116}, {"time": 3788, "pitch": 62, "duration": 9, "velocity": 120}, {"time": 3788, "pitch": 66, "duration": 7, "velocity": 123}, {"time": 3794, "pitch": 47, "duration": 5, "velocity": 102}, {"time": 3800, "pitch": 48, "duration": 15, "velocity": 107}, {"time": 3800, "pitch": 60, "duration": 7, "velocity": 110}, {"time": 3800, "pitch": 64, "duration": 8, "velocity": 120}, {"time": 3800, "pitch": 67, "duration": 7, "velocity": 114}, {"time": 3812, "pitch": 60, "duration": 7, "velocity": 107}, {"time": 3812, "pitch": 64, "duration": 7, "velocity": 117}, {"time": 3812, "pitch": 67, "duration": 7, "velocity": 108}, {"time": 3818, "pitch": 48, "duration": 11, "velocity": 92}, {"time": 3821, "pitch": 60, "duration": 1, "velocity": 93}, {"time": 3821, "pitch": 64, "duration": 1, "velocity": 104}, {"time": 3821, "pitch": 67, "duration": 1, "velocity": 98}, {"time": 3824, "pitch": 64, "duration": 1, "velocity": 88}, {"time": 3827, "pitch": 60, "duration": 6, "velocity": 108}, {"time": 3827, "pitch": 64, "duration": 6, "velocity": 117}, {"time": 3827, "pitch": 67, "duration": 6, "velocity": 110}, {"time": 3833, "pitch": 48, "duration": 3, "velocity": 119}, {"time": 3836, "pitch": 60, "duration": 6, "velocity": 114}, {"time": 3836, "pitch": 64, "duration": 9, "velocity": 119}, {"time": 3836, "pitch": 67, "duration": 7, "velocity": 114}, {"time": 3842, "pitch": 48, "duration": 4, "velocity": 114}, {"time": 3848, "pitch": 47, "duration": 11, "velocity": 91}, {"time": 3848, "pitch": 59, "duration": 8, "velocity": 96}, {"time": 3848, "pitch": 62, "duration": 7, "velocity": 110}, {"time": 3848, "pitch": 66, "duration": 8, "velocity": 91}, {"time": 3860, "pitch": 59, "duration": 7, "velocity": 94}, {"time": 3860, "pitch": 62, "duration": 8, "velocity": 107}, {"time": 3860, "pitch": 66, "duration": 10, "velocity": 95}, {"time": 3866, "pitch": 47, "duration": 5, "velocity": 90}, {"time": 3872, "pitch": 55, "duration": 14, "velocity": 92}, {"time": 3872, "pitch": 59, "duration": 10, "velocity": 94}, {"time": 3872, "pitch": 62, "duration": 10, "velocity": 108}, {"time": 3872, "pitch": 67, "duration": 9, "velocity": 98}, {"time": 3884, "pitch": 59, "duration": 6, "velocity": 93}, {"time": 3884, "pitch": 62, "duration": 7, "velocity": 100}, {"time": 3884, "pitch": 67, "duration": 8, "velocity": 92}, {"time": 3890, "pitch": 55, "duration": 5, "velocity": 88}, {"time": 3896, "pitch": 50, "duration": 13, "velocity": 87}, {"time": 3896, "pitch": 62, "duration": 9, "velocity": 108}, {"time": 3896, "pitch": 66, "duration": 9, "velocity": 103}, {"time": 3896, "pitch": 69, "duration": 9, "velocity": 98}, {"time": 3908, "pitch": 62, "duration": 9, "velocity": 114}, {"time": 3908, "pitch": 66, "duration": 9, "velocity": 109}, {"time": 3908, "pitch": 69, "duration": 9, "velocity": 100}, {"time": 3914, "pitch": 50, "duration": 10, "velocity": 96}, {"time": 3920, "pitch": 62, "duration": 9, "velocity": 104}, {"time": 3920, "pitch": 66, "duration": 9, "velocity": 100}, {"time": 3920, "pitch": 69, "duration": 9, "velocity": 92}, {"time": 3929, "pitch": 50, "duration": 3, "velocity": 114}, {"time": 3932, "pitch": 62, "duration": 7, "velocity": 119}, {"time": 3932, "pitch": 66, "duration": 6, "velocity": 119}, {"time": 3932, "pitch": 69, "duration": 6, "velocity": 110}, {"time": 3938, "pitch": 50, "duration": 4, "velocity": 104}, {"time": 3944, "pitch": 47, "duration": 6, "velocity": 88}, {"time": 3944, "pitch": 59, "duration": 9, "velocity": 104}, {"time": 3944, "pitch": 62, "duration": 9, "velocity": 116}, {"time": 3944, "pitch": 66, "duration": 8, "velocity": 113}, {"time": 3953, "pitch": 47, "duration": 20, "velocity": 89}, {"time": 3956, "pitch": 59, "duration": 8, "velocity": 107}, {"time": 3956, "pitch": 62, "duration": 8, "velocity": 117}, {"time": 3956, "pitch": 66, "duration": 8, "velocity": 116}, {"time": 3965, "pitch": 59, "duration": 1, "velocity": 89}, {"time": 3965, "pitch": 62, "duration": 1, "velocity": 96}, {"time": 3965, "pitch": 66, "duration": 1, "velocity": 91}, {"time": 3971, "pitch": 59, "duration": 6, "velocity": 100}, {"time": 3971, "pitch": 62, "duration": 6, "velocity": 114}, {"time": 3971, "pitch": 66, "duration": 6, "velocity": 109}, {"time": 3977, "pitch": 47, "duration": 4, "velocity": 98}, {"time": 3980, "pitch": 59, "duration": 7, "velocity": 116}, {"time": 3980, "pitch": 62, "duration": 9, "velocity": 120}, {"time": 3980, "pitch": 66, "duration": 7, "velocity": 123}, {"time": 3986, "pitch": 47, "duration": 5, "velocity": 102}, {"time": 3992, "pitch": 48, "duration": 15, "velocity": 107}, {"time": 3992, "pitch": 60, "duration": 7, "velocity": 110}, {"time": 3992, "pitch": 64, "duration": 8, "velocity": 120}, {"time": 3992, "pitch": 67, "duration": 7, "velocity": 114}, {"time": 4004, "pitch": 60, "duration": 7, "velocity": 107}, {"time": 4004, "pitch": 64, "duration": 7, "velocity": 117}, {"time": 4004, "pitch": 67, "duration": 7, "velocity": 108}, {"time": 4010, "pitch": 48, "duration": 11, "velocity": 92}, {"time": 4013, "pitch": 60, "duration": 1, "velocity": 93}, {"time": 4013, "pitch": 64, "duration": 1, "velocity": 104}, {"time": 4013, "pitch": 67, "duration": 1, "velocity": 98}, {"time": 4016, "pitch": 64, "duration": 1, "velocity": 88}, {"time": 4019, "pitch": 60, "duration": 6, "velocity": 108}, {"time": 4019, "pitch": 64, "duration": 6, "velocity": 117}, {"time": 4019, "pitch": 67, "duration": 6, "velocity": 110}, {"time": 4025, "pitch": 48, "duration": 3, "velocity": 119}, {"time": 4028, "pitch": 60, "duration": 6, "velocity": 114}, {"time": 4028, "pitch": 64, "duration": 9, "velocity": 119}, {"time": 4028, "pitch": 67, "duration": 7, "velocity": 114}, {"time": 4034, "pitch": 48, "duration": 4, "velocity": 114}]}]}