{"metadata": {"schema_version": "0.2", "title": "None", "source_filename": "346.mid", "source_format": "midi"}, "resolution": 12, "tempos": [{"time": 0, "qpm": 84.000084000084}], "time_signatures": [{"time": 0, "numerator": 4, "denominator": 4}], "tracks": [{"program": 0, "is_drum": false, "name": "MELODY", "notes": [{"time": 226, "pitch": 73, "duration": 6, "velocity": 93}, {"time": 232, "pitch": 73, "duration": 6, "velocity": 100}, {"time": 238, "pitch": 78, "duration": 3, "velocity": 98}, {"time": 241, "pitch": 78, "duration": 9, "velocity": 100}, {"time": 250, "pitch": 69, "duration": 6, "velocity": 106}, {"time": 256, "pitch": 71, "duration": 6, "velocity": 100}, {"time": 262, "pitch": 73, "duration": 3, "velocity": 98}, {"time": 265, "pitch": 73, "duration": 57, "velocity": 110}, {"time": 322, "pitch": 73, "duration": 6, "velocity": 104}, {"time": 328, "pitch": 73, "duration": 6, "velocity": 102}, {"time": 334, "pitch": 78, "duration": 3, "velocity": 94}, {"time": 337, "pitch": 78, "duration": 12, "velocity": 102}, {"time": 349, "pitch": 76, "duration": 3, "velocity": 87}, {"time": 352, "pitch": 76, "duration": 9, "velocity": 91}, {"time": 361, "pitch": 74, "duration": 3, "velocity": 87}, {"time": 364, "pitch": 73, "duration": 54, "velocity": 90}, {"time": 418, "pitch": 73, "duration": 6, "velocity": 100}, {"time": 424, "pitch": 73, "duration": 6, "velocity": 100}, {"time": 430, "pitch": 78, "duration": 12, "velocity": 100}, {"time": 442, "pitch": 69, "duration": 6, "velocity": 97}, {"time": 448, "pitch": 71, "duration": 6, "velocity": 100}, {"time": 454, "pitch": 73, "duration": 60, "velocity": 104}, {"time": 514, "pitch": 73, "duration": 6, "velocity": 91}, {"time": 520, "pitch": 73, "duration": 6, "velocity": 92}, {"time": 526, "pitch": 69, "duration": 3, "velocity": 93}, {"time": 529, "pitch": 74, "duration": 9, "velocity": 89}, {"time": 538, "pitch": 74, "duration": 6, "velocity": 91}, {"time": 544, "pitch": 74, "duration": 6, "velocity": 100}, {"time": 550, "pitch": 73, "duration": 6, "velocity": 91}, {"time": 556, "pitch": 69, "duration": 54, "velocity": 91}, {"time": 610, "pitch": 73, "duration": 6, "velocity": 91}, {"time": 616, "pitch": 73, "duration": 6, "velocity": 88}, {"time": 622, "pitch": 78, "duration": 3, "velocity": 91}, {"time": 625, "pitch": 78, "duration": 9, "velocity": 94}, {"time": 634, "pitch": 69, "duration": 6, "velocity": 90}, {"time": 640, "pitch": 71, "duration": 6, "velocity": 88}, {"time": 646, "pitch": 73, "duration": 3, "velocity": 90}, {"time": 649, "pitch": 73, "duration": 57, "velocity": 91}, {"time": 706, "pitch": 73, "duration": 6, "velocity": 96}, {"time": 712, "pitch": 73, "duration": 6, "velocity": 91}, {"time": 718, "pitch": 78, "duration": 3, "velocity": 96}, {"time": 721, "pitch": 78, "duration": 12, "velocity": 96}, {"time": 733, "pitch": 76, "duration": 3, "velocity": 92}, {"time": 736, "pitch": 76, "duration": 9, "velocity": 89}, {"time": 745, "pitch": 74, "duration": 4, "velocity": 90}, {"time": 748, "pitch": 73, "duration": 54, "velocity": 88}, {"time": 802, "pitch": 73, "duration": 6, "velocity": 100}, {"time": 808, "pitch": 73, "duration": 6, "velocity": 91}, {"time": 814, "pitch": 78, "duration": 12, "velocity": 107}, {"time": 826, "pitch": 69, "duration": 6, "velocity": 103}, {"time": 832, "pitch": 71, "duration": 6, "velocity": 108}, {"time": 838, "pitch": 73, "duration": 60, "velocity": 108}, {"time": 898, "pitch": 73, "duration": 6, "velocity": 102}, {"time": 904, "pitch": 73, "duration": 6, "velocity": 98}, {"time": 910, "pitch": 69, "duration": 6, "velocity": 100}, {"time": 916, "pitch": 74, "duration": 6, "velocity": 106}, {"time": 922, "pitch": 74, "duration": 3, "velocity": 103}, {"time": 925, "pitch": 74, "duration": 9, "velocity": 106}, {"time": 934, "pitch": 73, "duration": 6, "velocity": 100}, {"time": 940, "pitch": 69, "duration": 30, "velocity": 107}, {"time": 970, "pitch": 76, "duration": 6, "velocity": 113}, {"time": 976, "pitch": 78, "duration": 6, "velocity": 104}, {"time": 982, "pitch": 80, "duration": 6, "velocity": 108}, {"time": 988, "pitch": 81, "duration": 6, "velocity": 113}, {"time": 994, "pitch": 81, "duration": 3, "velocity": 100}, {"time": 997, "pitch": 81, "duration": 6, "velocity": 100}, {"time": 1003, "pitch": 76, "duration": 3, "velocity": 110}, {"time": 1006, "pitch": 78, "duration": 6, "velocity": 102}, {"time": 1012, "pitch": 78, "duration": 12, "velocity": 110}, {"time": 1024, "pitch": 76, "duration": 6, "velocity": 107}, {"time": 1030, "pitch": 74, "duration": 3, "velocity": 91}, {"time": 1033, "pitch": 73, "duration": 9, "velocity": 96}, {"time": 1042, "pitch": 73, "duration": 6, "velocity": 106}, {"time": 1048, "pitch": 73, "duration": 6, "velocity": 108}, {"time": 1054, "pitch": 73, "duration": 3, "velocity": 93}, {"time": 1057, "pitch": 71, "duration": 9, "velocity": 92}, {"time": 1066, "pitch": 76, "duration": 6, "velocity": 110}, {"time": 1072, "pitch": 78, "duration": 6, "velocity": 104}, {"time": 1078, "pitch": 80, "duration": 6, "velocity": 113}, {"time": 1084, "pitch": 81, "duration": 6, "velocity": 109}, {"time": 1090, "pitch": 81, "duration": 3, "velocity": 113}, {"time": 1093, "pitch": 81, "duration": 6, "velocity": 113}, {"time": 1099, "pitch": 76, "duration": 3, "velocity": 98}, {"time": 1102, "pitch": 78, "duration": 6, "velocity": 107}, {"time": 1108, "pitch": 78, "duration": 12, "velocity": 110}, {"time": 1120, "pitch": 78, "duration": 6, "velocity": 108}, {"time": 1126, "pitch": 81, "duration": 3, "velocity": 103}, {"time": 1129, "pitch": 81, "duration": 9, "velocity": 109}, {"time": 1138, "pitch": 81, "duration": 6, "velocity": 116}, {"time": 1144, "pitch": 81, "duration": 6, "velocity": 116}, {"time": 1150, "pitch": 83, "duration": 3, "velocity": 107}, {"time": 1153, "pitch": 83, "duration": 12, "velocity": 114}, {"time": 1165, "pitch": 76, "duration": 3, "velocity": 110}, {"time": 1168, "pitch": 78, "duration": 6, "velocity": 110}, {"time": 1174, "pitch": 80, "duration": 6, "velocity": 108}, {"time": 1180, "pitch": 81, "duration": 6, "velocity": 113}, {"time": 1186, "pitch": 80, "duration": 3, "velocity": 104}, {"time": 1189, "pitch": 81, "duration": 6, "velocity": 103}, {"time": 1195, "pitch": 85, "duration": 9, "velocity": 113}, {"time": 1204, "pitch": 90, "duration": 9, "velocity": 117}, {"time": 1213, "pitch": 88, "duration": 9, "velocity": 117}, {"time": 1222, "pitch": 86, "duration": 6, "velocity": 119}, {"time": 1228, "pitch": 85, "duration": 12, "velocity": 119}, {"time": 1240, "pitch": 85, "duration": 6, "velocity": 116}, {"time": 1246, "pitch": 83, "duration": 18, "velocity": 116}, {"time": 1264, "pitch": 78, "duration": 6, "velocity": 116}, {"time": 1270, "pitch": 80, "duration": 6, "velocity": 108}, {"time": 1276, "pitch": 81, "duration": 12, "velocity": 113}, {"time": 1288, "pitch": 81, "duration": 6, "velocity": 119}, {"time": 1294, "pitch": 83, "duration": 3, "velocity": 113}, {"time": 1297, "pitch": 81, "duration": 12, "velocity": 116}, {"time": 1309, "pitch": 81, "duration": 3, "velocity": 113}, {"time": 1312, "pitch": 80, "duration": 6, "velocity": 108}, {"time": 1318, "pitch": 81, "duration": 3, "velocity": 109}, {"time": 1321, "pitch": 83, "duration": 15, "velocity": 114}, {"time": 1336, "pitch": 81, "duration": 6, "velocity": 113}, {"time": 1342, "pitch": 81, "duration": 14, "velocity": 116}, {"time": 1570, "pitch": 73, "duration": 6, "velocity": 93}, {"time": 1576, "pitch": 73, "duration": 6, "velocity": 100}, {"time": 1582, "pitch": 78, "duration": 3, "velocity": 98}, {"time": 1585, "pitch": 78, "duration": 9, "velocity": 100}, {"time": 1594, "pitch": 69, "duration": 6, "velocity": 106}, {"time": 1600, "pitch": 71, "duration": 6, "velocity": 100}, {"time": 1606, "pitch": 73, "duration": 3, "velocity": 98}, {"time": 1609, "pitch": 73, "duration": 57, "velocity": 110}, {"time": 1666, "pitch": 73, "duration": 6, "velocity": 104}, {"time": 1672, "pitch": 73, "duration": 6, "velocity": 102}, {"time": 1678, "pitch": 78, "duration": 3, "velocity": 94}, {"time": 1681, "pitch": 78, "duration": 12, "velocity": 102}, {"time": 1693, "pitch": 76, "duration": 3, "velocity": 87}, {"time": 1696, "pitch": 76, "duration": 9, "velocity": 91}, {"time": 1705, "pitch": 74, "duration": 3, "velocity": 87}, {"time": 1708, "pitch": 73, "duration": 54, "velocity": 90}, {"time": 1762, "pitch": 73, "duration": 3, "velocity": 100}, {"time": 1765, "pitch": 73, "duration": 3, "velocity": 100}, {"time": 1768, "pitch": 73, "duration": 6, "velocity": 100}, {"time": 1774, "pitch": 78, "duration": 12, "velocity": 100}, {"time": 1786, "pitch": 69, "duration": 3, "velocity": 97}, {"time": 1789, "pitch": 69, "duration": 3, "velocity": 97}, {"time": 1792, "pitch": 71, "duration": 6, "velocity": 100}, {"time": 1798, "pitch": 73, "duration": 60, "velocity": 104}, {"time": 1858, "pitch": 73, "duration": 6, "velocity": 91}, {"time": 1864, "pitch": 73, "duration": 6, "velocity": 92}, {"time": 1870, "pitch": 69, "duration": 6, "velocity": 93}, {"time": 1876, "pitch": 74, "duration": 6, "velocity": 89}, {"time": 1882, "pitch": 74, "duration": 3, "velocity": 91}, {"time": 1885, "pitch": 74, "duration": 9, "velocity": 100}, {"time": 1894, "pitch": 73, "duration": 6, "velocity": 91}, {"time": 1900, "pitch": 69, "duration": 12, "velocity": 91}, {"time": 1930, "pitch": 76, "duration": 6, "velocity": 113}, {"time": 1936, "pitch": 78, "duration": 6, "velocity": 104}, {"time": 1942, "pitch": 80, "duration": 6, "velocity": 108}, {"time": 1948, "pitch": 81, "duration": 6, "velocity": 113}, {"time": 1954, "pitch": 81, "duration": 3, "velocity": 100}, {"time": 1957, "pitch": 81, "duration": 6, "velocity": 100}, {"time": 1963, "pitch": 76, "duration": 3, "velocity": 110}, {"time": 1966, "pitch": 78, "duration": 6, "velocity": 102}, {"time": 1972, "pitch": 78, "duration": 12, "velocity": 110}, {"time": 1984, "pitch": 76, "duration": 6, "velocity": 107}, {"time": 1990, "pitch": 74, "duration": 3, "velocity": 91}, {"time": 1993, "pitch": 73, "duration": 9, "velocity": 96}, {"time": 2002, "pitch": 73, "duration": 6, "velocity": 106}, {"time": 2008, "pitch": 73, "duration": 6, "velocity": 108}, {"time": 2014, "pitch": 73, "duration": 3, "velocity": 93}, {"time": 2017, "pitch": 71, "duration": 9, "velocity": 92}, {"time": 2026, "pitch": 76, "duration": 6, "velocity": 110}, {"time": 2032, "pitch": 78, "duration": 6, "velocity": 104}, {"time": 2038, "pitch": 80, "duration": 6, "velocity": 113}, {"time": 2044, "pitch": 81, "duration": 6, "velocity": 109}, {"time": 2050, "pitch": 81, "duration": 3, "velocity": 113}, {"time": 2053, "pitch": 81, "duration": 6, "velocity": 113}, {"time": 2059, "pitch": 76, "duration": 3, "velocity": 98}, {"time": 2062, "pitch": 78, "duration": 6, "velocity": 107}, {"time": 2068, "pitch": 78, "duration": 12, "velocity": 110}, {"time": 2080, "pitch": 78, "duration": 6, "velocity": 108}, {"time": 2086, "pitch": 81, "duration": 3, "velocity": 103}, {"time": 2089, "pitch": 81, "duration": 9, "velocity": 109}, {"time": 2098, "pitch": 81, "duration": 6, "velocity": 116}, {"time": 2104, "pitch": 81, "duration": 6, "velocity": 116}, {"time": 2110, "pitch": 83, "duration": 3, "velocity": 107}, {"time": 2113, "pitch": 83, "duration": 12, "velocity": 114}, {"time": 2125, "pitch": 76, "duration": 3, "velocity": 110}, {"time": 2128, "pitch": 78, "duration": 6, "velocity": 110}, {"time": 2134, "pitch": 80, "duration": 6, "velocity": 108}, {"time": 2140, "pitch": 81, "duration": 6, "velocity": 113}, {"time": 2146, "pitch": 80, "duration": 3, "velocity": 104}, {"time": 2149, "pitch": 81, "duration": 6, "velocity": 103}, {"time": 2155, "pitch": 85, "duration": 9, "velocity": 113}, {"time": 2164, "pitch": 90, "duration": 9, "velocity": 117}, {"time": 2173, "pitch": 88, "duration": 9, "velocity": 117}, {"time": 2182, "pitch": 86, "duration": 6, "velocity": 119}, {"time": 2188, "pitch": 85, "duration": 12, "velocity": 119}, {"time": 2200, "pitch": 85, "duration": 6, "velocity": 116}, {"time": 2206, "pitch": 83, "duration": 18, "velocity": 116}, {"time": 2224, "pitch": 78, "duration": 6, "velocity": 116}, {"time": 2230, "pitch": 80, "duration": 6, "velocity": 108}, {"time": 2236, "pitch": 81, "duration": 9, "velocity": 113}, {"time": 2245, "pitch": 81, "duration": 4, "velocity": 119}, {"time": 2248, "pitch": 81, "duration": 1, "velocity": 119}, {"time": 2254, "pitch": 83, "duration": 6, "velocity": 113}, {"time": 2260, "pitch": 81, "duration": 9, "velocity": 116}, {"time": 2269, "pitch": 81, "duration": 3, "velocity": 113}, {"time": 2272, "pitch": 80, "duration": 6, "velocity": 108}, {"time": 2278, "pitch": 81, "duration": 3, "velocity": 109}, {"time": 2281, "pitch": 83, "duration": 15, "velocity": 114}, {"time": 2296, "pitch": 81, "duration": 6, "velocity": 113}, {"time": 2302, "pitch": 80, "duration": 5, "velocity": 116}, {"time": 2305, "pitch": 81, "duration": 27, "velocity": 116}, {"time": 3106, "pitch": 81, "duration": 6, "velocity": 116}, {"time": 3112, "pitch": 81, "duration": 6, "velocity": 109}, {"time": 3118, "pitch": 81, "duration": 12, "velocity": 116}, {"time": 3130, "pitch": 81, "duration": 6, "velocity": 116}, {"time": 3136, "pitch": 83, "duration": 6, "velocity": 114}, {"time": 3142, "pitch": 81, "duration": 12, "velocity": 116}, {"time": 3154, "pitch": 81, "duration": 6, "velocity": 119}, {"time": 3160, "pitch": 81, "duration": 6, "velocity": 119}, {"time": 3166, "pitch": 81, "duration": 6, "velocity": 116}, {"time": 3172, "pitch": 80, "duration": 6, "velocity": 119}, {"time": 3178, "pitch": 81, "duration": 6, "velocity": 119}, {"time": 3184, "pitch": 80, "duration": 6, "velocity": 113}, {"time": 3190, "pitch": 81, "duration": 12, "velocity": 113}, {"time": 3202, "pitch": 81, "duration": 6, "velocity": 116}, {"time": 3208, "pitch": 81, "duration": 6, "velocity": 113}, {"time": 3214, "pitch": 81, "duration": 12, "velocity": 116}, {"time": 3226, "pitch": 81, "duration": 6, "velocity": 116}, {"time": 3232, "pitch": 83, "duration": 6, "velocity": 113}, {"time": 3238, "pitch": 81, "duration": 12, "velocity": 116}, {"time": 3250, "pitch": 81, "duration": 6, "velocity": 116}, {"time": 3256, "pitch": 81, "duration": 6, "velocity": 113}, {"time": 3262, "pitch": 81, "duration": 6, "velocity": 113}, {"time": 3268, "pitch": 80, "duration": 6, "velocity": 109}, {"time": 3274, "pitch": 81, "duration": 6, "velocity": 109}, {"time": 3280, "pitch": 80, "duration": 6, "velocity": 114}, {"time": 3286, "pitch": 81, "duration": 12, "velocity": 119}, {"time": 3298, "pitch": 81, "duration": 6, "velocity": 119}, {"time": 3304, "pitch": 81, "duration": 6, "velocity": 116}, {"time": 3310, "pitch": 81, "duration": 12, "velocity": 116}, {"time": 3322, "pitch": 81, "duration": 6, "velocity": 119}, {"time": 3328, "pitch": 83, "duration": 6, "velocity": 113}, {"time": 3334, "pitch": 81, "duration": 12, "velocity": 119}, {"time": 3346, "pitch": 81, "duration": 6, "velocity": 119}, {"time": 3352, "pitch": 81, "duration": 6, "velocity": 119}, {"time": 3358, "pitch": 81, "duration": 6, "velocity": 116}, {"time": 3364, "pitch": 80, "duration": 6, "velocity": 100}, {"time": 3370, "pitch": 81, "duration": 6, "velocity": 113}, {"time": 3376, "pitch": 80, "duration": 6, "velocity": 113}, {"time": 3382, "pitch": 81, "duration": 12, "velocity": 119}, {"time": 3394, "pitch": 81, "duration": 6, "velocity": 119}, {"time": 3400, "pitch": 81, "duration": 6, "velocity": 119}, {"time": 3406, "pitch": 81, "duration": 12, "velocity": 119}, {"time": 3418, "pitch": 81, "duration": 6, "velocity": 119}, {"time": 3424, "pitch": 83, "duration": 6, "velocity": 117}, {"time": 3430, "pitch": 81, "duration": 12, "velocity": 119}, {"time": 3442, "pitch": 81, "duration": 6, "velocity": 119}, {"time": 3448, "pitch": 81, "duration": 6, "velocity": 119}, {"time": 3454, "pitch": 81, "duration": 6, "velocity": 119}, {"time": 3460, "pitch": 80, "duration": 6, "velocity": 119}, {"time": 3466, "pitch": 76, "duration": 6, "velocity": 113}, {"time": 3472, "pitch": 78, "duration": 6, "velocity": 104}, {"time": 3478, "pitch": 80, "duration": 6, "velocity": 108}, {"time": 3484, "pitch": 81, "duration": 6, "velocity": 113}, {"time": 3490, "pitch": 81, "duration": 3, "velocity": 100}, {"time": 3493, "pitch": 81, "duration": 6, "velocity": 100}, {"time": 3499, "pitch": 76, "duration": 3, "velocity": 110}, {"time": 3502, "pitch": 78, "duration": 6, "velocity": 102}, {"time": 3508, "pitch": 78, "duration": 12, "velocity": 110}, {"time": 3520, "pitch": 76, "duration": 6, "velocity": 107}, {"time": 3526, "pitch": 74, "duration": 3, "velocity": 91}, {"time": 3529, "pitch": 73, "duration": 9, "velocity": 96}, {"time": 3538, "pitch": 73, "duration": 6, "velocity": 106}, {"time": 3544, "pitch": 73, "duration": 6, "velocity": 108}, {"time": 3550, "pitch": 73, "duration": 3, "velocity": 93}, {"time": 3553, "pitch": 71, "duration": 9, "velocity": 92}, {"time": 3562, "pitch": 76, "duration": 6, "velocity": 110}, {"time": 3568, "pitch": 78, "duration": 6, "velocity": 104}, {"time": 3574, "pitch": 80, "duration": 6, "velocity": 113}, {"time": 3580, "pitch": 81, "duration": 6, "velocity": 109}, {"time": 3586, "pitch": 81, "duration": 3, "velocity": 113}, {"time": 3589, "pitch": 81, "duration": 6, "velocity": 113}, {"time": 3595, "pitch": 76, "duration": 3, "velocity": 98}, {"time": 3598, "pitch": 78, "duration": 6, "velocity": 107}, {"time": 3604, "pitch": 78, "duration": 12, "velocity": 110}, {"time": 3616, "pitch": 78, "duration": 6, "velocity": 108}, {"time": 3622, "pitch": 81, "duration": 3, "velocity": 103}, {"time": 3625, "pitch": 81, "duration": 9, "velocity": 109}, {"time": 3634, "pitch": 81, "duration": 6, "velocity": 116}, {"time": 3640, "pitch": 81, "duration": 6, "velocity": 116}, {"time": 3646, "pitch": 83, "duration": 3, "velocity": 107}, {"time": 3649, "pitch": 83, "duration": 9, "velocity": 114}, {"time": 3658, "pitch": 76, "duration": 6, "velocity": 110}, {"time": 3664, "pitch": 78, "duration": 6, "velocity": 110}, {"time": 3670, "pitch": 80, "duration": 6, "velocity": 108}, {"time": 3676, "pitch": 81, "duration": 6, "velocity": 113}, {"time": 3682, "pitch": 80, "duration": 3, "velocity": 104}, {"time": 3685, "pitch": 81, "duration": 6, "velocity": 103}, {"time": 3691, "pitch": 85, "duration": 9, "velocity": 113}, {"time": 3700, "pitch": 90, "duration": 9, "velocity": 117}, {"time": 3709, "pitch": 88, "duration": 9, "velocity": 117}, {"time": 3718, "pitch": 86, "duration": 6, "velocity": 119}, {"time": 3724, "pitch": 85, "duration": 12, "velocity": 119}, {"time": 3736, "pitch": 85, "duration": 6, "velocity": 116}, {"time": 3742, "pitch": 83, "duration": 18, "velocity": 116}, {"time": 3760, "pitch": 78, "duration": 6, "velocity": 116}, {"time": 3766, "pitch": 80, "duration": 6, "velocity": 108}, {"time": 3772, "pitch": 81, "duration": 9, "velocity": 113}, {"time": 3781, "pitch": 81, "duration": 9, "velocity": 119}, {"time": 3790, "pitch": 83, "duration": 3, "velocity": 113}, {"time": 3793, "pitch": 81, "duration": 12, "velocity": 116}, {"time": 3805, "pitch": 81, "duration": 3, "velocity": 113}, {"time": 3808, "pitch": 80, "duration": 6, "velocity": 108}, {"time": 3814, "pitch": 81, "duration": 3, "velocity": 109}, {"time": 3817, "pitch": 83, "duration": 15, "velocity": 114}, {"time": 3832, "pitch": 81, "duration": 6, "velocity": 113}, {"time": 3838, "pitch": 80, "duration": 5, "velocity": 116}, {"time": 3841, "pitch": 81, "duration": 27, "velocity": 116}, {"time": 3844, "pitch": 80, "duration": 6, "velocity": 119}, {"time": 3850, "pitch": 76, "duration": 6, "velocity": 113}, {"time": 3856, "pitch": 78, "duration": 6, "velocity": 104}, {"time": 3862, "pitch": 80, "duration": 6, "velocity": 108}, {"time": 3868, "pitch": 81, "duration": 6, "velocity": 113}, {"time": 3874, "pitch": 81, "duration": 3, "velocity": 100}, {"time": 3877, "pitch": 81, "duration": 6, "velocity": 100}, {"time": 3883, "pitch": 76, "duration": 3, "velocity": 110}, {"time": 3886, "pitch": 78, "duration": 6, "velocity": 102}, {"time": 3892, "pitch": 78, "duration": 12, "velocity": 110}, {"time": 3904, "pitch": 76, "duration": 6, "velocity": 107}, {"time": 3910, "pitch": 74, "duration": 3, "velocity": 91}, {"time": 3913, "pitch": 73, "duration": 9, "velocity": 96}, {"time": 3922, "pitch": 73, "duration": 6, "velocity": 106}, {"time": 3928, "pitch": 73, "duration": 6, "velocity": 108}, {"time": 3934, "pitch": 73, "duration": 3, "velocity": 93}, {"time": 3937, "pitch": 71, "duration": 9, "velocity": 92}, {"time": 3946, "pitch": 76, "duration": 6, "velocity": 110}, {"time": 3952, "pitch": 78, "duration": 6, "velocity": 104}, {"time": 3958, "pitch": 80, "duration": 6, "velocity": 113}, {"time": 3964, "pitch": 81, "duration": 6, "velocity": 109}, {"time": 3970, "pitch": 81, "duration": 3, "velocity": 113}, {"time": 3973, "pitch": 81, "duration": 6, "velocity": 113}, {"time": 3979, "pitch": 76, "duration": 3, "velocity": 98}, {"time": 3982, "pitch": 78, "duration": 6, "velocity": 107}, {"time": 3988, "pitch": 78, "duration": 12, "velocity": 110}, {"time": 4000, "pitch": 78, "duration": 6, "velocity": 108}, {"time": 4006, "pitch": 81, "duration": 3, "velocity": 103}, {"time": 4009, "pitch": 81, "duration": 9, "velocity": 109}, {"time": 4018, "pitch": 81, "duration": 6, "velocity": 116}, {"time": 4024, "pitch": 81, "duration": 6, "velocity": 116}, {"time": 4030, "pitch": 83, "duration": 3, "velocity": 107}, {"time": 4033, "pitch": 83, "duration": 9, "velocity": 114}, {"time": 4042, "pitch": 76, "duration": 6, "velocity": 110}, {"time": 4048, "pitch": 78, "duration": 6, "velocity": 110}, {"time": 4054, "pitch": 80, "duration": 6, "velocity": 108}, {"time": 4060, "pitch": 81, "duration": 6, "velocity": 113}, {"time": 4066, "pitch": 80, "duration": 3, "velocity": 104}, {"time": 4069, "pitch": 81, "duration": 6, "velocity": 103}, {"time": 4075, "pitch": 85, "duration": 9, "velocity": 113}, {"time": 4084, "pitch": 90, "duration": 9, "velocity": 117}, {"time": 4093, "pitch": 88, "duration": 9, "velocity": 117}, {"time": 4102, "pitch": 86, "duration": 6, "velocity": 119}, {"time": 4108, "pitch": 85, "duration": 12, "velocity": 119}, {"time": 4120, "pitch": 85, "duration": 6, "velocity": 116}, {"time": 4126, "pitch": 83, "duration": 18, "velocity": 116}, {"time": 4144, "pitch": 78, "duration": 6, "velocity": 116}, {"time": 4150, "pitch": 80, "duration": 6, "velocity": 108}, {"time": 4156, "pitch": 81, "duration": 9, "velocity": 113}, {"time": 4165, "pitch": 81, "duration": 9, "velocity": 119}, {"time": 4174, "pitch": 83, "duration": 3, "velocity": 113}, {"time": 4177, "pitch": 81, "duration": 12, "velocity": 116}, {"time": 4189, "pitch": 81, "duration": 3, "velocity": 113}, {"time": 4192, "pitch": 80, "duration": 6, "velocity": 108}, {"time": 4198, "pitch": 81, "duration": 3, "velocity": 109}, {"time": 4201, "pitch": 83, "duration": 15, "velocity": 114}, {"time": 4216, "pitch": 81, "duration": 6, "velocity": 113}, {"time": 4222, "pitch": 80, "duration": 5, "velocity": 116}, {"time": 4225, "pitch": 81, "duration": 27, "velocity": 116}, {"time": 4228, "pitch": 80, "duration": 6, "velocity": 119}, {"time": 4234, "pitch": 76, "duration": 6, "velocity": 113}, {"time": 4240, "pitch": 78, "duration": 6, "velocity": 104}, {"time": 4246, "pitch": 80, "duration": 6, "velocity": 108}, {"time": 4252, "pitch": 81, "duration": 6, "velocity": 113}, {"time": 4258, "pitch": 81, "duration": 3, "velocity": 100}, {"time": 4261, "pitch": 81, "duration": 6, "velocity": 100}, {"time": 4267, "pitch": 76, "duration": 3, "velocity": 110}, {"time": 4270, "pitch": 78, "duration": 6, "velocity": 102}, {"time": 4276, "pitch": 78, "duration": 12, "velocity": 110}, {"time": 4288, "pitch": 76, "duration": 6, "velocity": 107}, {"time": 4294, "pitch": 74, "duration": 3, "velocity": 91}, {"time": 4297, "pitch": 73, "duration": 9, "velocity": 96}, {"time": 4306, "pitch": 73, "duration": 6, "velocity": 106}, {"time": 4312, "pitch": 73, "duration": 6, "velocity": 108}, {"time": 4318, "pitch": 73, "duration": 3, "velocity": 93}, {"time": 4321, "pitch": 71, "duration": 9, "velocity": 92}, {"time": 4330, "pitch": 76, "duration": 6, "velocity": 110}, {"time": 4336, "pitch": 78, "duration": 6, "velocity": 104}, {"time": 4342, "pitch": 80, "duration": 6, "velocity": 113}, {"time": 4348, "pitch": 81, "duration": 6, "velocity": 109}, {"time": 4354, "pitch": 81, "duration": 3, "velocity": 113}, {"time": 4357, "pitch": 81, "duration": 6, "velocity": 113}, {"time": 4363, "pitch": 76, "duration": 3, "velocity": 98}, {"time": 4366, "pitch": 78, "duration": 6, "velocity": 107}, {"time": 4372, "pitch": 78, "duration": 12, "velocity": 110}, {"time": 4384, "pitch": 78, "duration": 6, "velocity": 108}, {"time": 4390, "pitch": 81, "duration": 3, "velocity": 103}, {"time": 4393, "pitch": 81, "duration": 9, "velocity": 109}, {"time": 4402, "pitch": 81, "duration": 6, "velocity": 116}, {"time": 4408, "pitch": 81, "duration": 6, "velocity": 116}, {"time": 4414, "pitch": 83, "duration": 3, "velocity": 107}, {"time": 4417, "pitch": 83, "duration": 9, "velocity": 114}, {"time": 4426, "pitch": 76, "duration": 6, "velocity": 110}, {"time": 4432, "pitch": 78, "duration": 6, "velocity": 110}, {"time": 4438, "pitch": 80, "duration": 6, "velocity": 108}, {"time": 4444, "pitch": 81, "duration": 6, "velocity": 113}, {"time": 4450, "pitch": 80, "duration": 3, "velocity": 104}, {"time": 4453, "pitch": 81, "duration": 6, "velocity": 103}, {"time": 4459, "pitch": 85, "duration": 9, "velocity": 113}, {"time": 4468, "pitch": 90, "duration": 9, "velocity": 117}, {"time": 4477, "pitch": 88, "duration": 9, "velocity": 117}, {"time": 4486, "pitch": 86, "duration": 6, "velocity": 119}, {"time": 4492, "pitch": 85, "duration": 12, "velocity": 119}, {"time": 4504, "pitch": 85, "duration": 6, "velocity": 116}, {"time": 4510, "pitch": 83, "duration": 18, "velocity": 116}, {"time": 4528, "pitch": 78, "duration": 6, "velocity": 116}, {"time": 4534, "pitch": 80, "duration": 6, "velocity": 108}, {"time": 4540, "pitch": 81, "duration": 9, "velocity": 113}, {"time": 4549, "pitch": 81, "duration": 9, "velocity": 119}, {"time": 4558, "pitch": 83, "duration": 3, "velocity": 113}, {"time": 4561, "pitch": 81, "duration": 12, "velocity": 116}, {"time": 4573, "pitch": 81, "duration": 3, "velocity": 113}, {"time": 4576, "pitch": 80, "duration": 6, "velocity": 108}, {"time": 4582, "pitch": 81, "duration": 3, "velocity": 109}, {"time": 4585, "pitch": 83, "duration": 15, "velocity": 114}, {"time": 4600, "pitch": 81, "duration": 6, "velocity": 113}, {"time": 4606, "pitch": 80, "duration": 5, "velocity": 116}, {"time": 4609, "pitch": 81, "duration": 27, "velocity": 116}, {"time": 4642, "pitch": 73, "duration": 6, "velocity": 93}, {"time": 4648, "pitch": 73, "duration": 6, "velocity": 100}, {"time": 4654, "pitch": 78, "duration": 3, "velocity": 98}, {"time": 4657, "pitch": 78, "duration": 9, "velocity": 100}, {"time": 4666, "pitch": 69, "duration": 6, "velocity": 106}, {"time": 4672, "pitch": 71, "duration": 6, "velocity": 100}, {"time": 4678, "pitch": 73, "duration": 6, "velocity": 98}, {"time": 4684, "pitch": 73, "duration": 54, "velocity": 110}, {"time": 4738, "pitch": 73, "duration": 6, "velocity": 104}, {"time": 4744, "pitch": 73, "duration": 6, "velocity": 102}, {"time": 4750, "pitch": 78, "duration": 6, "velocity": 94}, {"time": 4756, "pitch": 78, "duration": 9, "velocity": 102}, {"time": 4765, "pitch": 76, "duration": 3, "velocity": 87}, {"time": 4768, "pitch": 76, "duration": 9, "velocity": 91}, {"time": 4777, "pitch": 74, "duration": 3, "velocity": 87}, {"time": 4780, "pitch": 73, "duration": 54, "velocity": 90}, {"time": 4834, "pitch": 73, "duration": 3, "velocity": 100}, {"time": 4837, "pitch": 73, "duration": 3, "velocity": 100}, {"time": 4840, "pitch": 73, "duration": 6, "velocity": 100}, {"time": 4846, "pitch": 78, "duration": 12, "velocity": 100}, {"time": 4858, "pitch": 69, "duration": 6, "velocity": 97}, {"time": 4864, "pitch": 71, "duration": 6, "velocity": 100}, {"time": 4870, "pitch": 73, "duration": 60, "velocity": 104}, {"time": 4930, "pitch": 73, "duration": 6, "velocity": 91}, {"time": 4936, "pitch": 73, "duration": 6, "velocity": 92}, {"time": 4942, "pitch": 69, "duration": 3, "velocity": 93}, {"time": 4945, "pitch": 74, "duration": 9, "velocity": 89}, {"time": 4954, "pitch": 74, "duration": 6, "velocity": 91}, {"time": 4960, "pitch": 74, "duration": 6, "velocity": 100}, {"time": 4966, "pitch": 73, "duration": 6, "velocity": 91}, {"time": 4972, "pitch": 69, "duration": 72, "velocity": 91}]}, {"program": 0, "is_drum": false, "name": "BRIDGE", "notes": [{"time": 2332, "pitch": 64, "duration": 9, "velocity": 114}, {"time": 2338, "pitch": 68, "duration": 3, "velocity": 98}, {"time": 2341, "pitch": 69, "duration": 9, "velocity": 113}, {"time": 2350, "pitch": 68, "duration": 3, "velocity": 108}, {"time": 2353, "pitch": 69, "duration": 9, "velocity": 106}, {"time": 2362, "pitch": 68, "duration": 3, "velocity": 102}, {"time": 2365, "pitch": 69, "duration": 3, "velocity": 95}, {"time": 2368, "pitch": 68, "duration": 6, "velocity": 107}, {"time": 2374, "pitch": 64, "duration": 12, "velocity": 113}, {"time": 2386, "pitch": 68, "duration": 3, "velocity": 100}, {"time": 2389, "pitch": 69, "duration": 12, "velocity": 100}, {"time": 2401, "pitch": 69, "duration": 3, "velocity": 103}, {"time": 2404, "pitch": 68, "duration": 9, "velocity": 108}, {"time": 2413, "pitch": 66, "duration": 3, "velocity": 94}, {"time": 2416, "pitch": 68, "duration": 6, "velocity": 108}, {"time": 2422, "pitch": 69, "duration": 12, "velocity": 116}, {"time": 2434, "pitch": 68, "duration": 3, "velocity": 96}, {"time": 2437, "pitch": 69, "duration": 12, "velocity": 95}, {"time": 2449, "pitch": 68, "duration": 3, "velocity": 96}, {"time": 2452, "pitch": 69, "duration": 6, "velocity": 109}, {"time": 2458, "pitch": 68, "duration": 3, "velocity": 104}, {"time": 2461, "pitch": 69, "duration": 3, "velocity": 90}, {"time": 2464, "pitch": 71, "duration": 6, "velocity": 108}, {"time": 2470, "pitch": 64, "duration": 12, "velocity": 89}, {"time": 2482, "pitch": 68, "duration": 3, "velocity": 98}, {"time": 2485, "pitch": 69, "duration": 12, "velocity": 93}, {"time": 2497, "pitch": 68, "duration": 3, "velocity": 104}, {"time": 2500, "pitch": 68, "duration": 3, "velocity": 96}, {"time": 2503, "pitch": 69, "duration": 3, "velocity": 87}, {"time": 2506, "pitch": 71, "duration": 24, "velocity": 89}, {"time": 2530, "pitch": 68, "duration": 3, "velocity": 110}, {"time": 2533, "pitch": 69, "duration": 12, "velocity": 93}, {"time": 2545, "pitch": 68, "duration": 3, "velocity": 93}, {"time": 2548, "pitch": 69, "duration": 6, "velocity": 97}, {"time": 2554, "pitch": 68, "duration": 3, "velocity": 98}, {"time": 2557, "pitch": 69, "duration": 3, "velocity": 93}, {"time": 2560, "pitch": 68, "duration": 6, "velocity": 102}, {"time": 2566, "pitch": 64, "duration": 12, "velocity": 91}, {"time": 2578, "pitch": 64, "duration": 3, "velocity": 93}, {"time": 2581, "pitch": 69, "duration": 3, "velocity": 97}, {"time": 2584, "pitch": 68, "duration": 6, "velocity": 102}, {"time": 2590, "pitch": 64, "duration": 3, "velocity": 88}, {"time": 2593, "pitch": 69, "duration": 3, "velocity": 95}, {"time": 2596, "pitch": 68, "duration": 9, "velocity": 94}, {"time": 2605, "pitch": 66, "duration": 4, "velocity": 88}, {"time": 2608, "pitch": 68, "duration": 6, "velocity": 96}, {"time": 2614, "pitch": 69, "duration": 6, "velocity": 100}, {"time": 2620, "pitch": 64, "duration": 6, "velocity": 91}, {"time": 2626, "pitch": 68, "duration": 3, "velocity": 98}, {"time": 2629, "pitch": 69, "duration": 9, "velocity": 97}, {"time": 2638, "pitch": 68, "duration": 3, "velocity": 104}, {"time": 2641, "pitch": 69, "duration": 9, "velocity": 91}, {"time": 2650, "pitch": 71, "duration": 3, "velocity": 93}, {"time": 2653, "pitch": 73, "duration": 3, "velocity": 102}, {"time": 2656, "pitch": 74, "duration": 6, "velocity": 113}, {"time": 2662, "pitch": 73, "duration": 6, "velocity": 113}, {"time": 2668, "pitch": 69, "duration": 6, "velocity": 106}, {"time": 2674, "pitch": 68, "duration": 3, "velocity": 108}, {"time": 2677, "pitch": 69, "duration": 3, "velocity": 97}, {"time": 2680, "pitch": 71, "duration": 6, "velocity": 110}, {"time": 2686, "pitch": 64, "duration": 6, "velocity": 91}, {"time": 2692, "pitch": 71, "duration": 3, "velocity": 92}, {"time": 2695, "pitch": 73, "duration": 3, "velocity": 96}, {"time": 2698, "pitch": 74, "duration": 6, "velocity": 113}, {"time": 2704, "pitch": 73, "duration": 18, "velocity": 117}, {"time": 2722, "pitch": 68, "duration": 3, "velocity": 107}, {"time": 2725, "pitch": 69, "duration": 9, "velocity": 95}, {"time": 2734, "pitch": 68, "duration": 3, "velocity": 104}, {"time": 2737, "pitch": 69, "duration": 9, "velocity": 95}, {"time": 2746, "pitch": 68, "duration": 3, "velocity": 110}, {"time": 2749, "pitch": 69, "duration": 3, "velocity": 100}, {"time": 2752, "pitch": 68, "duration": 6, "velocity": 110}, {"time": 2758, "pitch": 64, "duration": 12, "velocity": 104}, {"time": 2770, "pitch": 68, "duration": 3, "velocity": 107}, {"time": 2773, "pitch": 69, "duration": 9, "velocity": 95}, {"time": 2782, "pitch": 68, "duration": 3, "velocity": 104}, {"time": 2785, "pitch": 69, "duration": 9, "velocity": 95}, {"time": 2794, "pitch": 68, "duration": 3, "velocity": 110}, {"time": 2797, "pitch": 69, "duration": 3, "velocity": 100}, {"time": 2800, "pitch": 68, "duration": 6, "velocity": 110}, {"time": 2806, "pitch": 64, "duration": 12, "velocity": 104}, {"time": 2818, "pitch": 68, "duration": 3, "velocity": 107}, {"time": 2821, "pitch": 69, "duration": 9, "velocity": 95}, {"time": 2830, "pitch": 68, "duration": 3, "velocity": 104}, {"time": 2833, "pitch": 69, "duration": 9, "velocity": 95}, {"time": 2842, "pitch": 68, "duration": 3, "velocity": 110}, {"time": 2845, "pitch": 69, "duration": 3, "velocity": 100}, {"time": 2848, "pitch": 68, "duration": 6, "velocity": 110}, {"time": 2854, "pitch": 71, "duration": 12, "velocity": 104}, {"time": 2866, "pitch": 68, "duration": 3, "velocity": 104}, {"time": 2869, "pitch": 69, "duration": 9, "velocity": 100}, {"time": 2878, "pitch": 64, "duration": 3, "velocity": 93}, {"time": 2881, "pitch": 68, "duration": 6, "velocity": 102}, {"time": 2887, "pitch": 69, "duration": 4, "velocity": 113}, {"time": 2890, "pitch": 71, "duration": 6, "velocity": 107}, {"time": 2896, "pitch": 71, "duration": 18, "velocity": 114}, {"time": 2914, "pitch": 71, "duration": 3, "velocity": 98}, {"time": 2917, "pitch": 73, "duration": 9, "velocity": 108}, {"time": 2926, "pitch": 71, "duration": 3, "velocity": 102}, {"time": 2929, "pitch": 73, "duration": 9, "velocity": 110}, {"time": 2938, "pitch": 73, "duration": 3, "velocity": 107}, {"time": 2941, "pitch": 74, "duration": 3, "velocity": 91}, {"time": 2944, "pitch": 78, "duration": 6, "velocity": 108}, {"time": 2950, "pitch": 76, "duration": 12, "velocity": 108}, {"time": 2962, "pitch": 76, "duration": 3, "velocity": 104}, {"time": 2965, "pitch": 78, "duration": 3, "velocity": 86}, {"time": 2968, "pitch": 76, "duration": 6, "velocity": 100}, {"time": 2974, "pitch": 74, "duration": 4, "velocity": 93}, {"time": 2977, "pitch": 73, "duration": 3, "velocity": 88}, {"time": 2980, "pitch": 74, "duration": 6, "velocity": 103}, {"time": 2986, "pitch": 73, "duration": 3, "velocity": 113}, {"time": 2989, "pitch": 71, "duration": 3, "velocity": 92}, {"time": 2992, "pitch": 73, "duration": 6, "velocity": 110}, {"time": 2998, "pitch": 69, "duration": 12, "velocity": 119}, {"time": 3010, "pitch": 68, "duration": 3, "velocity": 108}, {"time": 3013, "pitch": 69, "duration": 9, "velocity": 106}, {"time": 3022, "pitch": 68, "duration": 3, "velocity": 98}, {"time": 3025, "pitch": 69, "duration": 9, "velocity": 95}, {"time": 3034, "pitch": 71, "duration": 3, "velocity": 104}, {"time": 3037, "pitch": 73, "duration": 3, "velocity": 100}, {"time": 3040, "pitch": 74, "duration": 6, "velocity": 116}, {"time": 3046, "pitch": 73, "duration": 12, "velocity": 116}, {"time": 3058, "pitch": 69, "duration": 3, "velocity": 106}, {"time": 3061, "pitch": 71, "duration": 3, "velocity": 102}, {"time": 3064, "pitch": 73, "duration": 6, "velocity": 100}, {"time": 3070, "pitch": 76, "duration": 4, "velocity": 94}, {"time": 3073, "pitch": 71, "duration": 6, "velocity": 89}, {"time": 3079, "pitch": 73, "duration": 3, "velocity": 108}, {"time": 3082, "pitch": 74, "duration": 6, "velocity": 103}, {"time": 3088, "pitch": 73, "duration": 25, "velocity": 110}]}, {"program": 0, "is_drum": false, "name": "PIANO", "notes": [{"time": 28, "pitch": 42, "duration": 20, "velocity": 91}, {"time": 34, "pitch": 49, "duration": 13, "velocity": 85}, {"time": 40, "pitch": 61, "duration": 7, "velocity": 100}, {"time": 46, "pitch": 57, "duration": 6, "velocity": 88}, {"time": 52, "pitch": 38, "duration": 18, "velocity": 89}, {"time": 58, "pitch": 50, "duration": 13, "velocity": 83}, {"time": 64, "pitch": 62, "duration": 3, "velocity": 91}, {"time": 70, "pitch": 57, "duration": 6, "velocity": 106}, {"time": 76, "pitch": 45, "duration": 18, "velocity": 97}, {"time": 82, "pitch": 52, "duration": 11, "velocity": 86}, {"time": 88, "pitch": 61, "duration": 6, "velocity": 104}, {"time": 94, "pitch": 57, "duration": 5, "velocity": 100}, {"time": 100, "pitch": 40, "duration": 19, "velocity": 88}, {"time": 100, "pitch": 56, "duration": 7, "velocity": 92}, {"time": 106, "pitch": 47, "duration": 13, "velocity": 81}, {"time": 106, "pitch": 57, "duration": 6, "velocity": 86}, {"time": 112, "pitch": 59, "duration": 6, "velocity": 88}, {"time": 118, "pitch": 52, "duration": 6, "velocity": 87}, {"time": 124, "pitch": 42, "duration": 20, "velocity": 91}, {"time": 130, "pitch": 49, "duration": 13, "velocity": 85}, {"time": 136, "pitch": 61, "duration": 7, "velocity": 100}, {"time": 142, "pitch": 57, "duration": 6, "velocity": 88}, {"time": 148, "pitch": 38, "duration": 18, "velocity": 89}, {"time": 154, "pitch": 50, "duration": 13, "velocity": 83}, {"time": 160, "pitch": 62, "duration": 3, "velocity": 91}, {"time": 166, "pitch": 57, "duration": 6, "velocity": 106}, {"time": 172, "pitch": 45, "duration": 18, "velocity": 97}, {"time": 178, "pitch": 52, "duration": 11, "velocity": 86}, {"time": 184, "pitch": 61, "duration": 6, "velocity": 104}, {"time": 190, "pitch": 57, "duration": 5, "velocity": 100}, {"time": 196, "pitch": 40, "duration": 19, "velocity": 88}, {"time": 196, "pitch": 56, "duration": 7, "velocity": 92}, {"time": 202, "pitch": 47, "duration": 13, "velocity": 81}, {"time": 202, "pitch": 57, "duration": 6, "velocity": 86}, {"time": 208, "pitch": 59, "duration": 6, "velocity": 88}, {"time": 214, "pitch": 52, "duration": 6, "velocity": 87}, {"time": 220, "pitch": 42, "duration": 20, "velocity": 91}, {"time": 226, "pitch": 49, "duration": 13, "velocity": 85}, {"time": 232, "pitch": 61, "duration": 7, "velocity": 100}, {"time": 238, "pitch": 57, "duration": 6, "velocity": 88}, {"time": 244, "pitch": 38, "duration": 18, "velocity": 89}, {"time": 250, "pitch": 50, "duration": 13, "velocity": 83}, {"time": 256, "pitch": 62, "duration": 3, "velocity": 91}, {"time": 262, "pitch": 57, "duration": 6, "velocity": 106}, {"time": 268, "pitch": 45, "duration": 18, "velocity": 97}, {"time": 274, "pitch": 52, "duration": 11, "velocity": 86}, {"time": 280, "pitch": 61, "duration": 6, "velocity": 104}, {"time": 286, "pitch": 57, "duration": 5, "velocity": 100}, {"time": 292, "pitch": 40, "duration": 19, "velocity": 88}, {"time": 292, "pitch": 56, "duration": 7, "velocity": 92}, {"time": 298, "pitch": 47, "duration": 13, "velocity": 81}, {"time": 298, "pitch": 57, "duration": 6, "velocity": 86}, {"time": 304, "pitch": 59, "duration": 6, "velocity": 88}, {"time": 310, "pitch": 52, "duration": 6, "velocity": 87}, {"time": 316, "pitch": 42, "duration": 20, "velocity": 91}, {"time": 322, "pitch": 49, "duration": 13, "velocity": 85}, {"time": 328, "pitch": 61, "duration": 7, "velocity": 100}, {"time": 334, "pitch": 57, "duration": 6, "velocity": 88}, {"time": 340, "pitch": 38, "duration": 18, "velocity": 89}, {"time": 346, "pitch": 50, "duration": 13, "velocity": 83}, {"time": 352, "pitch": 62, "duration": 3, "velocity": 91}, {"time": 358, "pitch": 57, "duration": 6, "velocity": 106}, {"time": 364, "pitch": 45, "duration": 18, "velocity": 97}, {"time": 370, "pitch": 52, "duration": 11, "velocity": 86}, {"time": 376, "pitch": 61, "duration": 6, "velocity": 104}, {"time": 382, "pitch": 57, "duration": 5, "velocity": 100}, {"time": 388, "pitch": 40, "duration": 19, "velocity": 88}, {"time": 388, "pitch": 56, "duration": 7, "velocity": 92}, {"time": 394, "pitch": 47, "duration": 13, "velocity": 81}, {"time": 394, "pitch": 57, "duration": 6, "velocity": 86}, {"time": 400, "pitch": 59, "duration": 6, "velocity": 88}, {"time": 406, "pitch": 52, "duration": 6, "velocity": 87}, {"time": 412, "pitch": 42, "duration": 20, "velocity": 91}, {"time": 418, "pitch": 49, "duration": 13, "velocity": 85}, {"time": 424, "pitch": 61, "duration": 7, "velocity": 100}, {"time": 430, "pitch": 57, "duration": 6, "velocity": 88}, {"time": 436, "pitch": 38, "duration": 18, "velocity": 89}, {"time": 442, "pitch": 50, "duration": 13, "velocity": 83}, {"time": 448, "pitch": 62, "duration": 3, "velocity": 91}, {"time": 454, "pitch": 57, "duration": 6, "velocity": 106}, {"time": 460, "pitch": 45, "duration": 18, "velocity": 97}, {"time": 466, "pitch": 52, "duration": 11, "velocity": 86}, {"time": 472, "pitch": 61, "duration": 6, "velocity": 104}, {"time": 478, "pitch": 57, "duration": 5, "velocity": 100}, {"time": 484, "pitch": 40, "duration": 19, "velocity": 88}, {"time": 484, "pitch": 56, "duration": 7, "velocity": 92}, {"time": 490, "pitch": 47, "duration": 13, "velocity": 81}, {"time": 490, "pitch": 57, "duration": 6, "velocity": 86}, {"time": 496, "pitch": 59, "duration": 6, "velocity": 88}, {"time": 502, "pitch": 52, "duration": 6, "velocity": 87}, {"time": 508, "pitch": 42, "duration": 20, "velocity": 91}, {"time": 514, "pitch": 49, "duration": 13, "velocity": 85}, {"time": 520, "pitch": 61, "duration": 7, "velocity": 100}, {"time": 526, "pitch": 57, "duration": 6, "velocity": 88}, {"time": 532, "pitch": 38, "duration": 18, "velocity": 89}, {"time": 538, "pitch": 50, "duration": 13, "velocity": 83}, {"time": 544, "pitch": 62, "duration": 3, "velocity": 91}, {"time": 550, "pitch": 57, "duration": 6, "velocity": 106}, {"time": 556, "pitch": 45, "duration": 18, "velocity": 97}, {"time": 562, "pitch": 52, "duration": 11, "velocity": 86}, {"time": 568, "pitch": 61, "duration": 6, "velocity": 104}, {"time": 574, "pitch": 57, "duration": 5, "velocity": 100}, {"time": 580, "pitch": 40, "duration": 19, "velocity": 88}, {"time": 580, "pitch": 56, "duration": 7, "velocity": 92}, {"time": 586, "pitch": 47, "duration": 13, "velocity": 81}, {"time": 586, "pitch": 57, "duration": 6, "velocity": 86}, {"time": 592, "pitch": 59, "duration": 6, "velocity": 88}, {"time": 598, "pitch": 52, "duration": 6, "velocity": 87}, {"time": 604, "pitch": 42, "duration": 20, "velocity": 91}, {"time": 610, "pitch": 49, "duration": 13, "velocity": 85}, {"time": 616, "pitch": 61, "duration": 7, "velocity": 100}, {"time": 622, "pitch": 57, "duration": 6, "velocity": 88}, {"time": 628, "pitch": 38, "duration": 18, "velocity": 89}, {"time": 634, "pitch": 50, "duration": 13, "velocity": 83}, {"time": 640, "pitch": 62, "duration": 3, "velocity": 91}, {"time": 646, "pitch": 57, "duration": 6, "velocity": 106}, {"time": 652, "pitch": 45, "duration": 18, "velocity": 97}, {"time": 658, "pitch": 52, "duration": 11, "velocity": 86}, {"time": 664, "pitch": 61, "duration": 6, "velocity": 104}, {"time": 670, "pitch": 57, "duration": 5, "velocity": 100}, {"time": 676, "pitch": 40, "duration": 19, "velocity": 88}, {"time": 676, "pitch": 56, "duration": 7, "velocity": 92}, {"time": 682, "pitch": 47, "duration": 13, "velocity": 81}, {"time": 682, "pitch": 57, "duration": 6, "velocity": 86}, {"time": 688, "pitch": 59, "duration": 6, "velocity": 88}, {"time": 694, "pitch": 52, "duration": 6, "velocity": 87}, {"time": 700, "pitch": 42, "duration": 20, "velocity": 91}, {"time": 706, "pitch": 49, "duration": 13, "velocity": 85}, {"time": 712, "pitch": 61, "duration": 7, "velocity": 100}, {"time": 718, "pitch": 57, "duration": 6, "velocity": 88}, {"time": 724, "pitch": 38, "duration": 18, "velocity": 89}, {"time": 730, "pitch": 50, "duration": 13, "velocity": 83}, {"time": 736, "pitch": 62, "duration": 3, "velocity": 91}, {"time": 742, "pitch": 57, "duration": 6, "velocity": 106}, {"time": 748, "pitch": 45, "duration": 18, "velocity": 97}, {"time": 754, "pitch": 52, "duration": 11, "velocity": 86}, {"time": 760, "pitch": 61, "duration": 6, "velocity": 104}, {"time": 766, "pitch": 57, "duration": 5, "velocity": 100}, {"time": 772, "pitch": 40, "duration": 19, "velocity": 88}, {"time": 772, "pitch": 56, "duration": 7, "velocity": 92}, {"time": 778, "pitch": 47, "duration": 13, "velocity": 81}, {"time": 778, "pitch": 57, "duration": 6, "velocity": 86}, {"time": 784, "pitch": 59, "duration": 6, "velocity": 88}, {"time": 790, "pitch": 52, "duration": 6, "velocity": 87}, {"time": 796, "pitch": 42, "duration": 20, "velocity": 91}, {"time": 802, "pitch": 49, "duration": 13, "velocity": 85}, {"time": 808, "pitch": 61, "duration": 7, "velocity": 100}, {"time": 814, "pitch": 57, "duration": 6, "velocity": 88}, {"time": 820, "pitch": 38, "duration": 18, "velocity": 89}, {"time": 826, "pitch": 50, "duration": 13, "velocity": 83}, {"time": 832, "pitch": 62, "duration": 3, "velocity": 91}, {"time": 838, "pitch": 57, "duration": 6, "velocity": 106}, {"time": 844, "pitch": 45, "duration": 18, "velocity": 97}, {"time": 850, "pitch": 52, "duration": 11, "velocity": 86}, {"time": 856, "pitch": 61, "duration": 6, "velocity": 104}, {"time": 862, "pitch": 57, "duration": 5, "velocity": 100}, {"time": 868, "pitch": 40, "duration": 19, "velocity": 88}, {"time": 868, "pitch": 56, "duration": 7, "velocity": 92}, {"time": 874, "pitch": 47, "duration": 13, "velocity": 81}, {"time": 874, "pitch": 57, "duration": 6, "velocity": 86}, {"time": 880, "pitch": 59, "duration": 6, "velocity": 88}, {"time": 886, "pitch": 52, "duration": 6, "velocity": 87}, {"time": 892, "pitch": 42, "duration": 20, "velocity": 91}, {"time": 898, "pitch": 49, "duration": 13, "velocity": 85}, {"time": 904, "pitch": 61, "duration": 7, "velocity": 100}, {"time": 910, "pitch": 57, "duration": 6, "velocity": 88}, {"time": 916, "pitch": 38, "duration": 18, "velocity": 89}, {"time": 922, "pitch": 50, "duration": 13, "velocity": 83}, {"time": 928, "pitch": 62, "duration": 3, "velocity": 91}, {"time": 934, "pitch": 57, "duration": 6, "velocity": 106}, {"time": 940, "pitch": 45, "duration": 18, "velocity": 97}, {"time": 946, "pitch": 52, "duration": 11, "velocity": 86}, {"time": 952, "pitch": 61, "duration": 6, "velocity": 104}, {"time": 958, "pitch": 57, "duration": 5, "velocity": 100}, {"time": 964, "pitch": 40, "duration": 19, "velocity": 88}, {"time": 964, "pitch": 56, "duration": 7, "velocity": 92}, {"time": 970, "pitch": 47, "duration": 13, "velocity": 81}, {"time": 970, "pitch": 57, "duration": 6, "velocity": 86}, {"time": 976, "pitch": 59, "duration": 6, "velocity": 88}, {"time": 982, "pitch": 52, "duration": 6, "velocity": 87}, {"time": 988, "pitch": 42, "duration": 14, "velocity": 86}, {"time": 988, "pitch": 57, "duration": 8, "velocity": 89}, {"time": 988, "pitch": 61, "duration": 8, "velocity": 93}, {"time": 988, "pitch": 66, "duration": 8, "velocity": 91}, {"time": 994, "pitch": 49, "duration": 9, "velocity": 82}, {"time": 1000, "pitch": 57, "duration": 8, "velocity": 93}, {"time": 1000, "pitch": 61, "duration": 10, "velocity": 102}, {"time": 1000, "pitch": 66, "duration": 8, "velocity": 96}, {"time": 1006, "pitch": 42, "duration": 6, "velocity": 86}, {"time": 1012, "pitch": 38, "duration": 14, "velocity": 88}, {"time": 1012, "pitch": 57, "duration": 9, "velocity": 90}, {"time": 1012, "pitch": 62, "duration": 9, "velocity": 102}, {"time": 1012, "pitch": 66, "duration": 8, "velocity": 91}, {"time": 1024, "pitch": 57, "duration": 9, "velocity": 90}, {"time": 1024, "pitch": 62, "duration": 11, "velocity": 98}, {"time": 1024, "pitch": 66, "duration": 9, "velocity": 92}, {"time": 1030, "pitch": 38, "duration": 6, "velocity": 88}, {"time": 1036, "pitch": 45, "duration": 16, "velocity": 96}, {"time": 1036, "pitch": 57, "duration": 9, "velocity": 96}, {"time": 1036, "pitch": 61, "duration": 10, "velocity": 102}, {"time": 1036, "pitch": 64, "duration": 10, "velocity": 93}, {"time": 1048, "pitch": 57, "duration": 7, "velocity": 98}, {"time": 1048, "pitch": 61, "duration": 7, "velocity": 104}, {"time": 1048, "pitch": 64, "duration": 8, "velocity": 98}, {"time": 1054, "pitch": 45, "duration": 6, "velocity": 90}, {"time": 1060, "pitch": 40, "duration": 19, "velocity": 94}, {"time": 1060, "pitch": 56, "duration": 9, "velocity": 91}, {"time": 1060, "pitch": 59, "duration": 10, "velocity": 104}, {"time": 1060, "pitch": 64, "duration": 9, "velocity": 93}, {"time": 1069, "pitch": 52, "duration": 5, "velocity": 100}, {"time": 1072, "pitch": 56, "duration": 7, "velocity": 104}, {"time": 1072, "pitch": 59, "duration": 11, "velocity": 110}, {"time": 1072, "pitch": 64, "duration": 6, "velocity": 98}, {"time": 1078, "pitch": 52, "duration": 6, "velocity": 91}, {"time": 1084, "pitch": 42, "duration": 15, "velocity": 88}, {"time": 1084, "pitch": 57, "duration": 9, "velocity": 90}, {"time": 1084, "pitch": 61, "duration": 9, "velocity": 104}, {"time": 1084, "pitch": 66, "duration": 8, "velocity": 102}, {"time": 1090, "pitch": 54, "duration": 7, "velocity": 76}, {"time": 1096, "pitch": 57, "duration": 9, "velocity": 100}, {"time": 1096, "pitch": 61, "duration": 10, "velocity": 110}, {"time": 1096, "pitch": 66, "duration": 8, "velocity": 104}, {"time": 1102, "pitch": 42, "duration": 6, "velocity": 90}, {"time": 1108, "pitch": 38, "duration": 19, "velocity": 98}, {"time": 1108, "pitch": 57, "duration": 10, "velocity": 92}, {"time": 1108, "pitch": 62, "duration": 9, "velocity": 107}, {"time": 1108, "pitch": 66, "duration": 9, "velocity": 94}, {"time": 1117, "pitch": 50, "duration": 4, "velocity": 100}, {"time": 1120, "pitch": 57, "duration": 10, "velocity": 110}, {"time": 1120, "pitch": 62, "duration": 11, "velocity": 114}, {"time": 1120, "pitch": 66, "duration": 9, "velocity": 102}, {"time": 1126, "pitch": 50, "duration": 6, "velocity": 100}, {"time": 1132, "pitch": 45, "duration": 15, "velocity": 93}, {"time": 1132, "pitch": 57, "duration": 9, "velocity": 92}, {"time": 1132, "pitch": 61, "duration": 9, "velocity": 104}, {"time": 1132, "pitch": 64, "duration": 9, "velocity": 96}, {"time": 1141, "pitch": 52, "duration": 6, "velocity": 91}, {"time": 1144, "pitch": 57, "duration": 7, "velocity": 108}, {"time": 1144, "pitch": 61, "duration": 6, "velocity": 114}, {"time": 1144, "pitch": 64, "duration": 9, "velocity": 113}, {"time": 1150, "pitch": 45, "duration": 2, "velocity": 86}, {"time": 1156, "pitch": 40, "duration": 18, "velocity": 94}, {"time": 1156, "pitch": 56, "duration": 9, "velocity": 96}, {"time": 1156, "pitch": 59, "duration": 9, "velocity": 114}, {"time": 1156, "pitch": 64, "duration": 9, "velocity": 100}, {"time": 1162, "pitch": 47, "duration": 8, "velocity": 85}, {"time": 1165, "pitch": 52, "duration": 4, "velocity": 114}, {"time": 1168, "pitch": 56, "duration": 6, "velocity": 114}, {"time": 1168, "pitch": 59, "duration": 7, "velocity": 119}, {"time": 1168, "pitch": 64, "duration": 6, "velocity": 107}, {"time": 1174, "pitch": 52, "duration": 4, "velocity": 104}, {"time": 1180, "pitch": 42, "duration": 15, "velocity": 91}, {"time": 1180, "pitch": 57, "duration": 9, "velocity": 100}, {"time": 1180, "pitch": 61, "duration": 10, "velocity": 113}, {"time": 1180, "pitch": 66, "duration": 9, "velocity": 104}, {"time": 1189, "pitch": 49, "duration": 6, "velocity": 89}, {"time": 1192, "pitch": 57, "duration": 8, "velocity": 107}, {"time": 1192, "pitch": 61, "duration": 9, "velocity": 113}, {"time": 1192, "pitch": 66, "duration": 9, "velocity": 107}, {"time": 1198, "pitch": 42, "duration": 6, "velocity": 86}, {"time": 1204, "pitch": 38, "duration": 18, "velocity": 100}, {"time": 1204, "pitch": 57, "duration": 9, "velocity": 102}, {"time": 1204, "pitch": 62, "duration": 9, "velocity": 113}, {"time": 1204, "pitch": 66, "duration": 9, "velocity": 98}, {"time": 1213, "pitch": 50, "duration": 5, "velocity": 96}, {"time": 1216, "pitch": 57, "duration": 9, "velocity": 107}, {"time": 1216, "pitch": 62, "duration": 10, "velocity": 114}, {"time": 1216, "pitch": 66, "duration": 9, "velocity": 98}, {"time": 1222, "pitch": 50, "duration": 6, "velocity": 100}, {"time": 1228, "pitch": 45, "duration": 14, "velocity": 92}, {"time": 1228, "pitch": 57, "duration": 9, "velocity": 93}, {"time": 1228, "pitch": 61, "duration": 9, "velocity": 110}, {"time": 1228, "pitch": 64, "duration": 9, "velocity": 108}, {"time": 1237, "pitch": 52, "duration": 6, "velocity": 87}, {"time": 1240, "pitch": 57, "duration": 8, "velocity": 102}, {"time": 1240, "pitch": 61, "duration": 7, "velocity": 110}, {"time": 1240, "pitch": 64, "duration": 10, "velocity": 107}, {"time": 1246, "pitch": 45, "duration": 2, "velocity": 100}, {"time": 1252, "pitch": 40, "duration": 19, "velocity": 100}, {"time": 1252, "pitch": 56, "duration": 10, "velocity": 88}, {"time": 1252, "pitch": 59, "duration": 10, "velocity": 104}, {"time": 1252, "pitch": 64, "duration": 9, "velocity": 87}, {"time": 1252, "pitch": 66, "duration": 2, "velocity": 87}, {"time": 1258, "pitch": 47, "duration": 13, "velocity": 86}, {"time": 1261, "pitch": 52, "duration": 4, "velocity": 114}, {"time": 1264, "pitch": 56, "duration": 6, "velocity": 110}, {"time": 1264, "pitch": 59, "duration": 10, "velocity": 116}, {"time": 1264, "pitch": 64, "duration": 6, "velocity": 108}, {"time": 1270, "pitch": 52, "duration": 4, "velocity": 94}, {"time": 1276, "pitch": 42, "duration": 14, "velocity": 92}, {"time": 1276, "pitch": 57, "duration": 9, "velocity": 94}, {"time": 1276, "pitch": 61, "duration": 10, "velocity": 102}, {"time": 1276, "pitch": 66, "duration": 9, "velocity": 92}, {"time": 1285, "pitch": 49, "duration": 5, "velocity": 88}, {"time": 1288, "pitch": 57, "duration": 7, "velocity": 102}, {"time": 1288, "pitch": 61, "duration": 10, "velocity": 107}, {"time": 1288, "pitch": 66, "duration": 8, "velocity": 96}, {"time": 1294, "pitch": 42, "duration": 5, "velocity": 86}, {"time": 1300, "pitch": 38, "duration": 19, "velocity": 94}, {"time": 1300, "pitch": 57, "duration": 9, "velocity": 88}, {"time": 1300, "pitch": 62, "duration": 9, "velocity": 98}, {"time": 1300, "pitch": 66, "duration": 9, "velocity": 91}, {"time": 1309, "pitch": 50, "duration": 5, "velocity": 88}, {"time": 1312, "pitch": 57, "duration": 7, "velocity": 91}, {"time": 1312, "pitch": 62, "duration": 7, "velocity": 94}, {"time": 1312, "pitch": 66, "duration": 7, "velocity": 91}, {"time": 1318, "pitch": 50, "duration": 4, "velocity": 87}, {"time": 1324, "pitch": 40, "duration": 19, "velocity": 98}, {"time": 1324, "pitch": 56, "duration": 10, "velocity": 93}, {"time": 1324, "pitch": 59, "duration": 10, "velocity": 104}, {"time": 1324, "pitch": 64, "duration": 9, "velocity": 94}, {"time": 1333, "pitch": 52, "duration": 5, "velocity": 83}, {"time": 1336, "pitch": 56, "duration": 8, "velocity": 98}, {"time": 1336, "pitch": 59, "duration": 11, "velocity": 107}, {"time": 1336, "pitch": 64, "duration": 8, "velocity": 98}, {"time": 1342, "pitch": 52, "duration": 4, "velocity": 84}, {"time": 1348, "pitch": 45, "duration": 25, "velocity": 89}, {"time": 1348, "pitch": 57, "duration": 10, "velocity": 86}, {"time": 1348, "pitch": 61, "duration": 10, "velocity": 91}, {"time": 1348, "pitch": 64, "duration": 8, "velocity": 88}, {"time": 1360, "pitch": 57, "duration": 10, "velocity": 86}, {"time": 1360, "pitch": 61, "duration": 10, "velocity": 86}, {"time": 1360, "pitch": 64, "duration": 8, "velocity": 88}, {"time": 1372, "pitch": 42, "duration": 20, "velocity": 91}, {"time": 1378, "pitch": 49, "duration": 13, "velocity": 85}, {"time": 1384, "pitch": 61, "duration": 7, "velocity": 100}, {"time": 1390, "pitch": 57, "duration": 6, "velocity": 88}, {"time": 1396, "pitch": 38, "duration": 18, "velocity": 89}, {"time": 1402, "pitch": 50, "duration": 13, "velocity": 83}, {"time": 1408, "pitch": 62, "duration": 3, "velocity": 91}, {"time": 1414, "pitch": 57, "duration": 6, "velocity": 106}, {"time": 1420, "pitch": 45, "duration": 18, "velocity": 97}, {"time": 1426, "pitch": 52, "duration": 11, "velocity": 86}, {"time": 1432, "pitch": 61, "duration": 6, "velocity": 104}, {"time": 1438, "pitch": 57, "duration": 5, "velocity": 100}, {"time": 1444, "pitch": 40, "duration": 19, "velocity": 88}, {"time": 1444, "pitch": 56, "duration": 7, "velocity": 92}, {"time": 1450, "pitch": 47, "duration": 13, "velocity": 81}, {"time": 1450, "pitch": 57, "duration": 6, "velocity": 86}, {"time": 1456, "pitch": 59, "duration": 6, "velocity": 88}, {"time": 1462, "pitch": 52, "duration": 6, "velocity": 87}, {"time": 1468, "pitch": 42, "duration": 20, "velocity": 91}, {"time": 1474, "pitch": 49, "duration": 13, "velocity": 85}, {"time": 1480, "pitch": 61, "duration": 7, "velocity": 100}, {"time": 1486, "pitch": 57, "duration": 6, "velocity": 88}, {"time": 1492, "pitch": 38, "duration": 18, "velocity": 89}, {"time": 1498, "pitch": 50, "duration": 13, "velocity": 83}, {"time": 1504, "pitch": 62, "duration": 3, "velocity": 91}, {"time": 1510, "pitch": 57, "duration": 6, "velocity": 106}, {"time": 1516, "pitch": 45, "duration": 18, "velocity": 97}, {"time": 1522, "pitch": 52, "duration": 11, "velocity": 86}, {"time": 1528, "pitch": 61, "duration": 6, "velocity": 104}, {"time": 1534, "pitch": 57, "duration": 5, "velocity": 100}, {"time": 1540, "pitch": 40, "duration": 19, "velocity": 88}, {"time": 1540, "pitch": 56, "duration": 7, "velocity": 92}, {"time": 1546, "pitch": 47, "duration": 13, "velocity": 81}, {"time": 1546, "pitch": 57, "duration": 6, "velocity": 86}, {"time": 1552, "pitch": 59, "duration": 6, "velocity": 88}, {"time": 1558, "pitch": 52, "duration": 6, "velocity": 87}, {"time": 1564, "pitch": 42, "duration": 20, "velocity": 91}, {"time": 1570, "pitch": 49, "duration": 13, "velocity": 85}, {"time": 1576, "pitch": 61, "duration": 7, "velocity": 100}, {"time": 1582, "pitch": 57, "duration": 6, "velocity": 88}, {"time": 1588, "pitch": 38, "duration": 18, "velocity": 89}, {"time": 1594, "pitch": 50, "duration": 13, "velocity": 83}, {"time": 1600, "pitch": 62, "duration": 3, "velocity": 91}, {"time": 1606, "pitch": 57, "duration": 6, "velocity": 106}, {"time": 1612, "pitch": 45, "duration": 16, "velocity": 93}, {"time": 1612, "pitch": 57, "duration": 9, "velocity": 93}, {"time": 1612, "pitch": 61, "duration": 10, "velocity": 104}, {"time": 1612, "pitch": 64, "duration": 9, "velocity": 102}, {"time": 1621, "pitch": 52, "duration": 6, "velocity": 82}, {"time": 1624, "pitch": 57, "duration": 8, "velocity": 102}, {"time": 1624, "pitch": 61, "duration": 7, "velocity": 107}, {"time": 1624, "pitch": 64, "duration": 9, "velocity": 104}, {"time": 1630, "pitch": 45, "duration": 7, "velocity": 72}, {"time": 1636, "pitch": 40, "duration": 20, "velocity": 87}, {"time": 1636, "pitch": 56, "duration": 10, "velocity": 93}, {"time": 1636, "pitch": 59, "duration": 10, "velocity": 110}, {"time": 1636, "pitch": 64, "duration": 10, "velocity": 93}, {"time": 1645, "pitch": 52, "duration": 4, "velocity": 91}, {"time": 1648, "pitch": 56, "duration": 5, "velocity": 93}, {"time": 1648, "pitch": 59, "duration": 6, "velocity": 102}, {"time": 1648, "pitch": 64, "duration": 5, "velocity": 92}, {"time": 1651, "pitch": 52, "duration": 8, "velocity": 89}, {"time": 1654, "pitch": 56, "duration": 3, "velocity": 86}, {"time": 1654, "pitch": 59, "duration": 6, "velocity": 81}, {"time": 1654, "pitch": 64, "duration": 4, "velocity": 85}, {"time": 1660, "pitch": 42, "duration": 16, "velocity": 87}, {"time": 1660, "pitch": 57, "duration": 9, "velocity": 88}, {"time": 1660, "pitch": 61, "duration": 9, "velocity": 87}, {"time": 1660, "pitch": 66, "duration": 9, "velocity": 102}, {"time": 1666, "pitch": 54, "duration": 6, "velocity": 81}, {"time": 1672, "pitch": 57, "duration": 9, "velocity": 96}, {"time": 1672, "pitch": 61, "duration": 11, "velocity": 96}, {"time": 1672, "pitch": 66, "duration": 10, "velocity": 91}, {"time": 1678, "pitch": 42, "duration": 6, "velocity": 81}, {"time": 1684, "pitch": 38, "duration": 18, "velocity": 91}, {"time": 1684, "pitch": 57, "duration": 9, "velocity": 91}, {"time": 1684, "pitch": 62, "duration": 9, "velocity": 98}, {"time": 1684, "pitch": 66, "duration": 9, "velocity": 92}, {"time": 1693, "pitch": 50, "duration": 5, "velocity": 86}, {"time": 1696, "pitch": 57, "duration": 10, "velocity": 98}, {"time": 1696, "pitch": 62, "duration": 11, "velocity": 102}, {"time": 1696, "pitch": 66, "duration": 9, "velocity": 92}, {"time": 1702, "pitch": 50, "duration": 6, "velocity": 87}, {"time": 1708, "pitch": 45, "duration": 14, "velocity": 87}, {"time": 1708, "pitch": 57, "duration": 9, "velocity": 90}, {"time": 1708, "pitch": 61, "duration": 9, "velocity": 94}, {"time": 1708, "pitch": 64, "duration": 9, "velocity": 92}, {"time": 1717, "pitch": 52, "duration": 6, "velocity": 72}, {"time": 1720, "pitch": 57, "duration": 9, "velocity": 93}, {"time": 1720, "pitch": 61, "duration": 8, "velocity": 98}, {"time": 1720, "pitch": 64, "duration": 10, "velocity": 93}, {"time": 1726, "pitch": 45, "duration": 7, "velocity": 86}, {"time": 1732, "pitch": 40, "duration": 19, "velocity": 88}, {"time": 1732, "pitch": 56, "duration": 10, "velocity": 92}, {"time": 1732, "pitch": 59, "duration": 10, "velocity": 100}, {"time": 1732, "pitch": 64, "duration": 9, "velocity": 89}, {"time": 1741, "pitch": 47, "duration": 4, "velocity": 84}, {"time": 1744, "pitch": 56, "duration": 7, "velocity": 107}, {"time": 1744, "pitch": 59, "duration": 11, "velocity": 110}, {"time": 1744, "pitch": 64, "duration": 7, "velocity": 100}, {"time": 1750, "pitch": 47, "duration": 6, "velocity": 85}, {"time": 1756, "pitch": 42, "duration": 20, "velocity": 87}, {"time": 1756, "pitch": 57, "duration": 9, "velocity": 90}, {"time": 1756, "pitch": 61, "duration": 10, "velocity": 93}, {"time": 1756, "pitch": 64, "duration": 10, "velocity": 92}, {"time": 1765, "pitch": 54, "duration": 5, "velocity": 87}, {"time": 1768, "pitch": 57, "duration": 9, "velocity": 107}, {"time": 1768, "pitch": 61, "duration": 10, "velocity": 114}, {"time": 1768, "pitch": 66, "duration": 9, "velocity": 110}, {"time": 1774, "pitch": 54, "duration": 2, "velocity": 93}, {"time": 1780, "pitch": 38, "duration": 17, "velocity": 91}, {"time": 1780, "pitch": 57, "duration": 8, "velocity": 94}, {"time": 1780, "pitch": 62, "duration": 9, "velocity": 104}, {"time": 1780, "pitch": 66, "duration": 8, "velocity": 93}, {"time": 1789, "pitch": 50, "duration": 4, "velocity": 89}, {"time": 1792, "pitch": 57, "duration": 9, "velocity": 100}, {"time": 1792, "pitch": 62, "duration": 11, "velocity": 114}, {"time": 1792, "pitch": 66, "duration": 9, "velocity": 107}, {"time": 1798, "pitch": 50, "duration": 6, "velocity": 93}, {"time": 1804, "pitch": 45, "duration": 15, "velocity": 90}, {"time": 1804, "pitch": 57, "duration": 9, "velocity": 92}, {"time": 1804, "pitch": 61, "duration": 9, "velocity": 100}, {"time": 1804, "pitch": 64, "duration": 9, "velocity": 94}, {"time": 1813, "pitch": 52, "duration": 5, "velocity": 87}, {"time": 1816, "pitch": 57, "duration": 8, "velocity": 104}, {"time": 1816, "pitch": 61, "duration": 7, "velocity": 116}, {"time": 1816, "pitch": 64, "duration": 10, "velocity": 107}, {"time": 1822, "pitch": 45, "duration": 2, "velocity": 93}, {"time": 1828, "pitch": 40, "duration": 11, "velocity": 88}, {"time": 1828, "pitch": 56, "duration": 9, "velocity": 92}, {"time": 1828, "pitch": 59, "duration": 9, "velocity": 107}, {"time": 1828, "pitch": 64, "duration": 8, "velocity": 94}, {"time": 1837, "pitch": 52, "duration": 3, "velocity": 98}, {"time": 1840, "pitch": 56, "duration": 4, "velocity": 98}, {"time": 1840, "pitch": 59, "duration": 3, "velocity": 110}, {"time": 1840, "pitch": 64, "duration": 3, "velocity": 100}, {"time": 1843, "pitch": 40, "duration": 3, "velocity": 104}, {"time": 1846, "pitch": 56, "duration": 3, "velocity": 94}, {"time": 1846, "pitch": 59, "duration": 5, "velocity": 102}, {"time": 1846, "pitch": 64, "duration": 3, "velocity": 91}, {"time": 1852, "pitch": 42, "duration": 13, "velocity": 87}, {"time": 1852, "pitch": 57, "duration": 9, "velocity": 92}, {"time": 1852, "pitch": 61, "duration": 9, "velocity": 94}, {"time": 1852, "pitch": 66, "duration": 9, "velocity": 107}, {"time": 1861, "pitch": 54, "duration": 4, "velocity": 84}, {"time": 1864, "pitch": 57, "duration": 9, "velocity": 110}, {"time": 1864, "pitch": 61, "duration": 10, "velocity": 114}, {"time": 1864, "pitch": 66, "duration": 9, "velocity": 107}, {"time": 1870, "pitch": 42, "duration": 3, "velocity": 88}, {"time": 1876, "pitch": 38, "duration": 6, "velocity": 92}, {"time": 1876, "pitch": 50, "duration": 6, "velocity": 92}, {"time": 1876, "pitch": 57, "duration": 10, "velocity": 93}, {"time": 1876, "pitch": 62, "duration": 10, "velocity": 107}, {"time": 1876, "pitch": 66, "duration": 10, "velocity": 91}, {"time": 1885, "pitch": 38, "duration": 5, "velocity": 88}, {"time": 1885, "pitch": 50, "duration": 5, "velocity": 89}, {"time": 1888, "pitch": 57, "duration": 8, "velocity": 108}, {"time": 1888, "pitch": 62, "duration": 9, "velocity": 113}, {"time": 1888, "pitch": 66, "duration": 8, "velocity": 94}, {"time": 1894, "pitch": 38, "duration": 2, "velocity": 84}, {"time": 1894, "pitch": 50, "duration": 3, "velocity": 93}, {"time": 1900, "pitch": 45, "duration": 6, "velocity": 90}, {"time": 1900, "pitch": 57, "duration": 10, "velocity": 90}, {"time": 1900, "pitch": 61, "duration": 10, "velocity": 100}, {"time": 1900, "pitch": 64, "duration": 10, "velocity": 91}, {"time": 1909, "pitch": 45, "duration": 5, "velocity": 93}, {"time": 1912, "pitch": 57, "duration": 8, "velocity": 104}, {"time": 1912, "pitch": 61, "duration": 7, "velocity": 114}, {"time": 1912, "pitch": 64, "duration": 8, "velocity": 102}, {"time": 1918, "pitch": 45, "duration": 5, "velocity": 90}, {"time": 1924, "pitch": 40, "duration": 6, "velocity": 85}, {"time": 1924, "pitch": 52, "duration": 6, "velocity": 84}, {"time": 1924, "pitch": 56, "duration": 9, "velocity": 88}, {"time": 1924, "pitch": 59, "duration": 10, "velocity": 93}, {"time": 1924, "pitch": 64, "duration": 9, "velocity": 88}, {"time": 1933, "pitch": 40, "duration": 5, "velocity": 100}, {"time": 1933, "pitch": 52, "duration": 5, "velocity": 102}, {"time": 1936, "pitch": 56, "duration": 7, "velocity": 107}, {"time": 1936, "pitch": 59, "duration": 9, "velocity": 116}, {"time": 1936, "pitch": 64, "duration": 7, "velocity": 104}, {"time": 1942, "pitch": 40, "duration": 3, "velocity": 88}, {"time": 1942, "pitch": 52, "duration": 3, "velocity": 107}, {"time": 1948, "pitch": 42, "duration": 14, "velocity": 100}, {"time": 1948, "pitch": 57, "duration": 10, "velocity": 104}, {"time": 1948, "pitch": 61, "duration": 10, "velocity": 114}, {"time": 1948, "pitch": 66, "duration": 10, "velocity": 110}, {"time": 1957, "pitch": 54, "duration": 4, "velocity": 108}, {"time": 1960, "pitch": 57, "duration": 9, "velocity": 116}, {"time": 1960, "pitch": 61, "duration": 10, "velocity": 117}, {"time": 1960, "pitch": 66, "duration": 9, "velocity": 110}, {"time": 1966, "pitch": 42, "duration": 3, "velocity": 87}, {"time": 1972, "pitch": 38, "duration": 13, "velocity": 107}, {"time": 1972, "pitch": 57, "duration": 10, "velocity": 107}, {"time": 1972, "pitch": 62, "duration": 9, "velocity": 114}, {"time": 1972, "pitch": 66, "duration": 9, "velocity": 102}, {"time": 1981, "pitch": 50, "duration": 3, "velocity": 117}, {"time": 1984, "pitch": 57, "duration": 9, "velocity": 114}, {"time": 1984, "pitch": 62, "duration": 10, "velocity": 119}, {"time": 1984, "pitch": 66, "duration": 9, "velocity": 113}, {"time": 1990, "pitch": 38, "duration": 6, "velocity": 102}, {"time": 1996, "pitch": 45, "duration": 5, "velocity": 92}, {"time": 1996, "pitch": 57, "duration": 8, "velocity": 113}, {"time": 1996, "pitch": 61, "duration": 8, "velocity": 117}, {"time": 1996, "pitch": 64, "duration": 7, "velocity": 116}, {"time": 2002, "pitch": 45, "duration": 11, "velocity": 84}, {"time": 2005, "pitch": 57, "duration": 1, "velocity": 98}, {"time": 2005, "pitch": 61, "duration": 1, "velocity": 113}, {"time": 2005, "pitch": 64, "duration": 1, "velocity": 113}, {"time": 2008, "pitch": 61, "duration": 1, "velocity": 87}, {"time": 2011, "pitch": 57, "duration": 6, "velocity": 104}, {"time": 2011, "pitch": 61, "duration": 5, "velocity": 116}, {"time": 2011, "pitch": 64, "duration": 7, "velocity": 113}, {"time": 2014, "pitch": 45, "duration": 5, "velocity": 98}, {"time": 2020, "pitch": 40, "duration": 7, "velocity": 91}, {"time": 2020, "pitch": 52, "duration": 6, "velocity": 96}, {"time": 2020, "pitch": 56, "duration": 9, "velocity": 96}, {"time": 2020, "pitch": 59, "duration": 9, "velocity": 114}, {"time": 2020, "pitch": 64, "duration": 9, "velocity": 94}, {"time": 2029, "pitch": 40, "duration": 3, "velocity": 102}, {"time": 2029, "pitch": 52, "duration": 3, "velocity": 107}, {"time": 2032, "pitch": 56, "duration": 7, "velocity": 116}, {"time": 2032, "pitch": 59, "duration": 10, "velocity": 120}, {"time": 2032, "pitch": 64, "duration": 6, "velocity": 108}, {"time": 2038, "pitch": 40, "duration": 4, "velocity": 107}, {"time": 2044, "pitch": 42, "duration": 14, "velocity": 91}, {"time": 2044, "pitch": 57, "duration": 10, "velocity": 107}, {"time": 2044, "pitch": 61, "duration": 10, "velocity": 113}, {"time": 2044, "pitch": 66, "duration": 9, "velocity": 108}, {"time": 2053, "pitch": 54, "duration": 4, "velocity": 91}, {"time": 2056, "pitch": 57, "duration": 9, "velocity": 116}, {"time": 2056, "pitch": 61, "duration": 10, "velocity": 119}, {"time": 2056, "pitch": 66, "duration": 9, "velocity": 113}, {"time": 2062, "pitch": 42, "duration": 5, "velocity": 94}, {"time": 2068, "pitch": 38, "duration": 7, "velocity": 86}, {"time": 2068, "pitch": 40, "duration": 6, "velocity": 87}, {"time": 2068, "pitch": 50, "duration": 6, "velocity": 102}, {"time": 2068, "pitch": 57, "duration": 9, "velocity": 107}, {"time": 2068, "pitch": 62, "duration": 9, "velocity": 116}, {"time": 2068, "pitch": 66, "duration": 9, "velocity": 107}, {"time": 2077, "pitch": 38, "duration": 4, "velocity": 93}, {"time": 2077, "pitch": 50, "duration": 4, "velocity": 107}, {"time": 2080, "pitch": 57, "duration": 9, "velocity": 113}, {"time": 2080, "pitch": 62, "duration": 9, "velocity": 117}, {"time": 2080, "pitch": 66, "duration": 8, "velocity": 107}, {"time": 2086, "pitch": 38, "duration": 5, "velocity": 110}, {"time": 2092, "pitch": 45, "duration": 6, "velocity": 96}, {"time": 2092, "pitch": 57, "duration": 9, "velocity": 104}, {"time": 2092, "pitch": 61, "duration": 9, "velocity": 116}, {"time": 2092, "pitch": 64, "duration": 9, "velocity": 110}, {"time": 2101, "pitch": 45, "duration": 5, "velocity": 93}, {"time": 2104, "pitch": 57, "duration": 8, "velocity": 108}, {"time": 2104, "pitch": 61, "duration": 7, "velocity": 119}, {"time": 2104, "pitch": 64, "duration": 9, "velocity": 116}, {"time": 2110, "pitch": 45, "duration": 5, "velocity": 108}, {"time": 2116, "pitch": 40, "duration": 6, "velocity": 87}, {"time": 2116, "pitch": 52, "duration": 6, "velocity": 98}, {"time": 2116, "pitch": 56, "duration": 9, "velocity": 100}, {"time": 2116, "pitch": 59, "duration": 9, "velocity": 113}, {"time": 2116, "pitch": 64, "duration": 9, "velocity": 100}, {"time": 2125, "pitch": 40, "duration": 5, "velocity": 100}, {"time": 2125, "pitch": 52, "duration": 4, "velocity": 100}, {"time": 2128, "pitch": 56, "duration": 7, "velocity": 113}, {"time": 2128, "pitch": 59, "duration": 9, "velocity": 117}, {"time": 2128, "pitch": 64, "duration": 6, "velocity": 108}, {"time": 2134, "pitch": 40, "duration": 4, "velocity": 108}, {"time": 2140, "pitch": 42, "duration": 6, "velocity": 107}, {"time": 2140, "pitch": 57, "duration": 10, "velocity": 96}, {"time": 2140, "pitch": 61, "duration": 10, "velocity": 114}, {"time": 2140, "pitch": 66, "duration": 9, "velocity": 110}, {"time": 2149, "pitch": 42, "duration": 5, "velocity": 100}, {"time": 2152, "pitch": 57, "duration": 9, "velocity": 113}, {"time": 2152, "pitch": 61, "duration": 10, "velocity": 117}, {"time": 2152, "pitch": 66, "duration": 9, "velocity": 108}, {"time": 2158, "pitch": 42, "duration": 5, "velocity": 102}, {"time": 2164, "pitch": 38, "duration": 7, "velocity": 86}, {"time": 2164, "pitch": 50, "duration": 7, "velocity": 102}, {"time": 2164, "pitch": 57, "duration": 10, "velocity": 102}, {"time": 2164, "pitch": 62, "duration": 10, "velocity": 116}, {"time": 2164, "pitch": 66, "duration": 9, "velocity": 102}, {"time": 2173, "pitch": 38, "duration": 6, "velocity": 93}, {"time": 2173, "pitch": 50, "duration": 5, "velocity": 102}, {"time": 2176, "pitch": 57, "duration": 8, "velocity": 113}, {"time": 2176, "pitch": 62, "duration": 9, "velocity": 117}, {"time": 2176, "pitch": 66, "duration": 8, "velocity": 104}, {"time": 2182, "pitch": 38, "duration": 5, "velocity": 110}, {"time": 2188, "pitch": 45, "duration": 6, "velocity": 96}, {"time": 2188, "pitch": 57, "duration": 9, "velocity": 102}, {"time": 2188, "pitch": 61, "duration": 9, "velocity": 114}, {"time": 2188, "pitch": 64, "duration": 9, "velocity": 104}, {"time": 2197, "pitch": 45, "duration": 4, "velocity": 96}, {"time": 2200, "pitch": 57, "duration": 7, "velocity": 108}, {"time": 2200, "pitch": 61, "duration": 7, "velocity": 117}, {"time": 2200, "pitch": 64, "duration": 10, "velocity": 113}, {"time": 2206, "pitch": 45, "duration": 6, "velocity": 107}, {"time": 2212, "pitch": 40, "duration": 6, "velocity": 87}, {"time": 2212, "pitch": 52, "duration": 5, "velocity": 102}, {"time": 2212, "pitch": 56, "duration": 10, "velocity": 108}, {"time": 2212, "pitch": 59, "duration": 10, "velocity": 116}, {"time": 2212, "pitch": 64, "duration": 9, "velocity": 100}, {"time": 2221, "pitch": 40, "duration": 5, "velocity": 107}, {"time": 2221, "pitch": 52, "duration": 4, "velocity": 108}, {"time": 2224, "pitch": 56, "duration": 7, "velocity": 113}, {"time": 2224, "pitch": 59, "duration": 10, "velocity": 120}, {"time": 2224, "pitch": 64, "duration": 6, "velocity": 108}, {"time": 2230, "pitch": 40, "duration": 4, "velocity": 110}, {"time": 2236, "pitch": 42, "duration": 12, "velocity": 107}, {"time": 2236, "pitch": 57, "duration": 10, "velocity": 108}, {"time": 2236, "pitch": 61, "duration": 10, "velocity": 114}, {"time": 2236, "pitch": 66, "duration": 9, "velocity": 108}, {"time": 2248, "pitch": 57, "duration": 10, "velocity": 113}, {"time": 2248, "pitch": 61, "duration": 11, "velocity": 117}, {"time": 2248, "pitch": 66, "duration": 10, "velocity": 110}, {"time": 2260, "pitch": 38, "duration": 7, "velocity": 100}, {"time": 2260, "pitch": 50, "duration": 6, "velocity": 102}, {"time": 2260, "pitch": 57, "duration": 10, "velocity": 108}, {"time": 2260, "pitch": 62, "duration": 10, "velocity": 116}, {"time": 2260, "pitch": 66, "duration": 10, "velocity": 100}, {"time": 2269, "pitch": 38, "duration": 6, "velocity": 102}, {"time": 2269, "pitch": 50, "duration": 5, "velocity": 100}, {"time": 2272, "pitch": 57, "duration": 9, "velocity": 110}, {"time": 2272, "pitch": 62, "duration": 10, "velocity": 116}, {"time": 2272, "pitch": 66, "duration": 9, "velocity": 102}, {"time": 2278, "pitch": 38, "duration": 2, "velocity": 104}, {"time": 2284, "pitch": 40, "duration": 20, "velocity": 93}, {"time": 2284, "pitch": 56, "duration": 9, "velocity": 94}, {"time": 2284, "pitch": 59, "duration": 9, "velocity": 110}, {"time": 2284, "pitch": 64, "duration": 9, "velocity": 98}, {"time": 2293, "pitch": 52, "duration": 5, "velocity": 90}, {"time": 2296, "pitch": 56, "duration": 7, "velocity": 107}, {"time": 2296, "pitch": 59, "duration": 11, "velocity": 116}, {"time": 2296, "pitch": 64, "duration": 9, "velocity": 102}, {"time": 2302, "pitch": 52, "duration": 5, "velocity": 89}, {"time": 2308, "pitch": 45, "duration": 7, "velocity": 92}, {"time": 2308, "pitch": 57, "duration": 11, "velocity": 88}, {"time": 2308, "pitch": 61, "duration": 10, "velocity": 108}, {"time": 2308, "pitch": 64, "duration": 9, "velocity": 98}, {"time": 2317, "pitch": 45, "duration": 6, "velocity": 108}, {"time": 2320, "pitch": 57, "duration": 13, "velocity": 107}, {"time": 2320, "pitch": 61, "duration": 13, "velocity": 114}, {"time": 2320, "pitch": 64, "duration": 13, "velocity": 102}, {"time": 2326, "pitch": 45, "duration": 7, "velocity": 90}, {"time": 2332, "pitch": 45, "duration": 1, "velocity": 86}, {"time": 2332, "pitch": 61, "duration": 1, "velocity": 91}, {"time": 2332, "pitch": 64, "duration": 1, "velocity": 108}, {"time": 2332, "pitch": 69, "duration": 6, "velocity": 89}, {"time": 2338, "pitch": 57, "duration": 7, "velocity": 76}, {"time": 2344, "pitch": 61, "duration": 8, "velocity": 92}, {"time": 2344, "pitch": 64, "duration": 8, "velocity": 100}, {"time": 2344, "pitch": 69, "duration": 7, "velocity": 86}, {"time": 2350, "pitch": 57, "duration": 9, "velocity": 74}, {"time": 2353, "pitch": 61, "duration": 1, "velocity": 89}, {"time": 2353, "pitch": 64, "duration": 1, "velocity": 91}, {"time": 2353, "pitch": 69, "duration": 1, "velocity": 86}, {"time": 2359, "pitch": 61, "duration": 5, "velocity": 88}, {"time": 2359, "pitch": 64, "duration": 5, "velocity": 93}, {"time": 2359, "pitch": 69, "duration": 5, "velocity": 85}, {"time": 2365, "pitch": 57, "duration": 5, "velocity": 85}, {"time": 2368, "pitch": 61, "duration": 8, "velocity": 92}, {"time": 2368, "pitch": 64, "duration": 8, "velocity": 104}, {"time": 2368, "pitch": 69, "duration": 7, "velocity": 89}, {"time": 2374, "pitch": 57, "duration": 6, "velocity": 84}, {"time": 2380, "pitch": 45, "duration": 43, "velocity": 78}, {"time": 2380, "pitch": 61, "duration": 7, "velocity": 93}, {"time": 2380, "pitch": 64, "duration": 7, "velocity": 100}, {"time": 2380, "pitch": 69, "duration": 7, "velocity": 86}, {"time": 2386, "pitch": 57, "duration": 6, "velocity": 77}, {"time": 2392, "pitch": 61, "duration": 8, "velocity": 102}, {"time": 2392, "pitch": 64, "duration": 8, "velocity": 108}, {"time": 2392, "pitch": 69, "duration": 7, "velocity": 93}, {"time": 2398, "pitch": 57, "duration": 9, "velocity": 73}, {"time": 2401, "pitch": 61, "duration": 1, "velocity": 87}, {"time": 2401, "pitch": 64, "duration": 1, "velocity": 91}, {"time": 2401, "pitch": 69, "duration": 1, "velocity": 85}, {"time": 2407, "pitch": 61, "duration": 6, "velocity": 87}, {"time": 2407, "pitch": 64, "duration": 6, "velocity": 90}, {"time": 2407, "pitch": 69, "duration": 5, "velocity": 86}, {"time": 2413, "pitch": 57, "duration": 4, "velocity": 84}, {"time": 2416, "pitch": 61, "duration": 8, "velocity": 100}, {"time": 2416, "pitch": 64, "duration": 8, "velocity": 108}, {"time": 2416, "pitch": 69, "duration": 7, "velocity": 90}, {"time": 2422, "pitch": 57, "duration": 7, "velocity": 81}, {"time": 2428, "pitch": 45, "duration": 42, "velocity": 77}, {"time": 2428, "pitch": 61, "duration": 7, "velocity": 91}, {"time": 2428, "pitch": 64, "duration": 7, "velocity": 100}, {"time": 2428, "pitch": 69, "duration": 7, "velocity": 88}, {"time": 2440, "pitch": 61, "duration": 7, "velocity": 98}, {"time": 2440, "pitch": 64, "duration": 7, "velocity": 102}, {"time": 2440, "pitch": 69, "duration": 7, "velocity": 91}, {"time": 2446, "pitch": 57, "duration": 9, "velocity": 76}, {"time": 2449, "pitch": 61, "duration": 1, "velocity": 88}, {"time": 2449, "pitch": 64, "duration": 1, "velocity": 92}, {"time": 2449, "pitch": 69, "duration": 1, "velocity": 85}, {"time": 2455, "pitch": 61, "duration": 6, "velocity": 87}, {"time": 2455, "pitch": 64, "duration": 6, "velocity": 91}, {"time": 2455, "pitch": 69, "duration": 5, "velocity": 84}, {"time": 2461, "pitch": 57, "duration": 4, "velocity": 81}, {"time": 2464, "pitch": 61, "duration": 8, "velocity": 98}, {"time": 2464, "pitch": 64, "duration": 8, "velocity": 107}, {"time": 2464, "pitch": 69, "duration": 7, "velocity": 90}, {"time": 2470, "pitch": 57, "duration": 6, "velocity": 81}, {"time": 2476, "pitch": 45, "duration": 42, "velocity": 70}, {"time": 2476, "pitch": 61, "duration": 7, "velocity": 89}, {"time": 2476, "pitch": 64, "duration": 7, "velocity": 96}, {"time": 2476, "pitch": 69, "duration": 6, "velocity": 85}, {"time": 2482, "pitch": 57, "duration": 6, "velocity": 74}, {"time": 2488, "pitch": 61, "duration": 8, "velocity": 98}, {"time": 2488, "pitch": 64, "duration": 8, "velocity": 108}, {"time": 2488, "pitch": 69, "duration": 7, "velocity": 90}, {"time": 2494, "pitch": 57, "duration": 9, "velocity": 70}, {"time": 2497, "pitch": 61, "duration": 1, "velocity": 88}, {"time": 2497, "pitch": 64, "duration": 1, "velocity": 90}, {"time": 2497, "pitch": 69, "duration": 1, "velocity": 84}, {"time": 2503, "pitch": 61, "duration": 6, "velocity": 87}, {"time": 2503, "pitch": 64, "duration": 6, "velocity": 91}, {"time": 2503, "pitch": 69, "duration": 5, "velocity": 85}, {"time": 2509, "pitch": 57, "duration": 5, "velocity": 82}, {"time": 2512, "pitch": 61, "duration": 7, "velocity": 93}, {"time": 2512, "pitch": 64, "duration": 7, "velocity": 107}, {"time": 2512, "pitch": 69, "duration": 7, "velocity": 90}, {"time": 2518, "pitch": 57, "duration": 6, "velocity": 79}, {"time": 2524, "pitch": 42, "duration": 42, "velocity": 86}, {"time": 2524, "pitch": 54, "duration": 13, "velocity": 86}, {"time": 2536, "pitch": 61, "duration": 8, "velocity": 90}, {"time": 2536, "pitch": 66, "duration": 8, "velocity": 93}, {"time": 2536, "pitch": 69, "duration": 7, "velocity": 90}, {"time": 2542, "pitch": 54, "duration": 10, "velocity": 79}, {"time": 2545, "pitch": 61, "duration": 1, "velocity": 87}, {"time": 2545, "pitch": 66, "duration": 1, "velocity": 87}, {"time": 2545, "pitch": 69, "duration": 1, "velocity": 85}, {"time": 2551, "pitch": 61, "duration": 6, "velocity": 87}, {"time": 2551, "pitch": 66, "duration": 6, "velocity": 91}, {"time": 2551, "pitch": 69, "duration": 5, "velocity": 86}, {"time": 2557, "pitch": 54, "duration": 5, "velocity": 83}, {"time": 2560, "pitch": 61, "duration": 10, "velocity": 91}, {"time": 2560, "pitch": 66, "duration": 11, "velocity": 104}, {"time": 2560, "pitch": 69, "duration": 8, "velocity": 95}, {"time": 2566, "pitch": 54, "duration": 2, "velocity": 82}, {"time": 2572, "pitch": 45, "duration": 43, "velocity": 93}, {"time": 2578, "pitch": 57, "duration": 8, "velocity": 81}, {"time": 2584, "pitch": 61, "duration": 7, "velocity": 98}, {"time": 2584, "pitch": 64, "duration": 7, "velocity": 104}, {"time": 2584, "pitch": 69, "duration": 7, "velocity": 93}, {"time": 2590, "pitch": 57, "duration": 10, "velocity": 79}, {"time": 2593, "pitch": 61, "duration": 1, "velocity": 88}, {"time": 2593, "pitch": 64, "duration": 1, "velocity": 91}, {"time": 2593, "pitch": 69, "duration": 1, "velocity": 84}, {"time": 2599, "pitch": 61, "duration": 5, "velocity": 84}, {"time": 2599, "pitch": 64, "duration": 6, "velocity": 91}, {"time": 2599, "pitch": 69, "duration": 5, "velocity": 85}, {"time": 2605, "pitch": 57, "duration": 5, "velocity": 85}, {"time": 2608, "pitch": 61, "duration": 8, "velocity": 93}, {"time": 2608, "pitch": 64, "duration": 12, "velocity": 110}, {"time": 2608, "pitch": 69, "duration": 11, "velocity": 91}, {"time": 2614, "pitch": 57, "duration": 2, "velocity": 84}, {"time": 2620, "pitch": 45, "duration": 46, "velocity": 83}, {"time": 2620, "pitch": 61, "duration": 8, "velocity": 86}, {"time": 2620, "pitch": 64, "duration": 8, "velocity": 89}, {"time": 2620, "pitch": 69, "duration": 8, "velocity": 85}, {"time": 2632, "pitch": 61, "duration": 7, "velocity": 88}, {"time": 2632, "pitch": 64, "duration": 8, "velocity": 91}, {"time": 2632, "pitch": 69, "duration": 7, "velocity": 88}, {"time": 2638, "pitch": 57, "duration": 9, "velocity": 70}, {"time": 2641, "pitch": 61, "duration": 1, "velocity": 86}, {"time": 2641, "pitch": 64, "duration": 1, "velocity": 87}, {"time": 2641, "pitch": 69, "duration": 1, "velocity": 84}, {"time": 2647, "pitch": 61, "duration": 6, "velocity": 87}, {"time": 2647, "pitch": 64, "duration": 6, "velocity": 89}, {"time": 2647, "pitch": 69, "duration": 6, "velocity": 85}, {"time": 2653, "pitch": 57, "duration": 5, "velocity": 83}, {"time": 2656, "pitch": 61, "duration": 7, "velocity": 98}, {"time": 2656, "pitch": 64, "duration": 10, "velocity": 108}, {"time": 2656, "pitch": 69, "duration": 10, "velocity": 95}, {"time": 2662, "pitch": 57, "duration": 5, "velocity": 86}, {"time": 2668, "pitch": 45, "duration": 42, "velocity": 86}, {"time": 2668, "pitch": 61, "duration": 7, "velocity": 91}, {"time": 2668, "pitch": 64, "duration": 7, "velocity": 108}, {"time": 2668, "pitch": 69, "duration": 6, "velocity": 89}, {"time": 2674, "pitch": 57, "duration": 7, "velocity": 76}, {"time": 2680, "pitch": 61, "duration": 8, "velocity": 92}, {"time": 2680, "pitch": 64, "duration": 8, "velocity": 100}, {"time": 2680, "pitch": 69, "duration": 7, "velocity": 86}, {"time": 2686, "pitch": 57, "duration": 9, "velocity": 74}, {"time": 2689, "pitch": 61, "duration": 1, "velocity": 89}, {"time": 2689, "pitch": 64, "duration": 1, "velocity": 91}, {"time": 2689, "pitch": 69, "duration": 1, "velocity": 86}, {"time": 2695, "pitch": 61, "duration": 5, "velocity": 88}, {"time": 2695, "pitch": 64, "duration": 5, "velocity": 93}, {"time": 2695, "pitch": 69, "duration": 5, "velocity": 85}, {"time": 2701, "pitch": 57, "duration": 5, "velocity": 85}, {"time": 2704, "pitch": 61, "duration": 8, "velocity": 92}, {"time": 2704, "pitch": 64, "duration": 8, "velocity": 104}, {"time": 2704, "pitch": 69, "duration": 7, "velocity": 89}, {"time": 2710, "pitch": 57, "duration": 6, "velocity": 84}, {"time": 2716, "pitch": 45, "duration": 43, "velocity": 78}, {"time": 2716, "pitch": 61, "duration": 7, "velocity": 93}, {"time": 2716, "pitch": 64, "duration": 7, "velocity": 100}, {"time": 2716, "pitch": 69, "duration": 7, "velocity": 86}, {"time": 2722, "pitch": 57, "duration": 6, "velocity": 77}, {"time": 2728, "pitch": 61, "duration": 8, "velocity": 102}, {"time": 2728, "pitch": 64, "duration": 8, "velocity": 108}, {"time": 2728, "pitch": 69, "duration": 7, "velocity": 93}, {"time": 2734, "pitch": 57, "duration": 9, "velocity": 73}, {"time": 2737, "pitch": 61, "duration": 1, "velocity": 87}, {"time": 2737, "pitch": 64, "duration": 1, "velocity": 91}, {"time": 2737, "pitch": 69, "duration": 1, "velocity": 85}, {"time": 2743, "pitch": 61, "duration": 6, "velocity": 87}, {"time": 2743, "pitch": 64, "duration": 6, "velocity": 90}, {"time": 2743, "pitch": 69, "duration": 5, "velocity": 86}, {"time": 2749, "pitch": 57, "duration": 4, "velocity": 84}, {"time": 2752, "pitch": 61, "duration": 8, "velocity": 100}, {"time": 2752, "pitch": 64, "duration": 8, "velocity": 108}, {"time": 2752, "pitch": 69, "duration": 7, "velocity": 90}, {"time": 2758, "pitch": 57, "duration": 7, "velocity": 81}, {"time": 2764, "pitch": 45, "duration": 42, "velocity": 77}, {"time": 2764, "pitch": 61, "duration": 7, "velocity": 91}, {"time": 2764, "pitch": 64, "duration": 7, "velocity": 100}, {"time": 2764, "pitch": 69, "duration": 7, "velocity": 88}, {"time": 2776, "pitch": 61, "duration": 7, "velocity": 98}, {"time": 2776, "pitch": 64, "duration": 7, "velocity": 102}, {"time": 2776, "pitch": 69, "duration": 7, "velocity": 91}, {"time": 2782, "pitch": 57, "duration": 9, "velocity": 76}, {"time": 2785, "pitch": 61, "duration": 1, "velocity": 88}, {"time": 2785, "pitch": 64, "duration": 1, "velocity": 92}, {"time": 2785, "pitch": 69, "duration": 1, "velocity": 85}, {"time": 2791, "pitch": 61, "duration": 6, "velocity": 87}, {"time": 2791, "pitch": 64, "duration": 6, "velocity": 91}, {"time": 2791, "pitch": 69, "duration": 5, "velocity": 84}, {"time": 2797, "pitch": 57, "duration": 4, "velocity": 81}, {"time": 2800, "pitch": 61, "duration": 8, "velocity": 98}, {"time": 2800, "pitch": 64, "duration": 8, "velocity": 107}, {"time": 2800, "pitch": 69, "duration": 7, "velocity": 90}, {"time": 2806, "pitch": 57, "duration": 6, "velocity": 81}, {"time": 2812, "pitch": 45, "duration": 42, "velocity": 70}, {"time": 2812, "pitch": 61, "duration": 7, "velocity": 89}, {"time": 2812, "pitch": 64, "duration": 7, "velocity": 96}, {"time": 2812, "pitch": 69, "duration": 6, "velocity": 85}, {"time": 2818, "pitch": 57, "duration": 6, "velocity": 74}, {"time": 2824, "pitch": 61, "duration": 8, "velocity": 98}, {"time": 2824, "pitch": 64, "duration": 8, "velocity": 108}, {"time": 2824, "pitch": 69, "duration": 7, "velocity": 90}, {"time": 2830, "pitch": 57, "duration": 9, "velocity": 70}, {"time": 2833, "pitch": 61, "duration": 1, "velocity": 88}, {"time": 2833, "pitch": 64, "duration": 1, "velocity": 90}, {"time": 2833, "pitch": 69, "duration": 1, "velocity": 84}, {"time": 2839, "pitch": 61, "duration": 6, "velocity": 87}, {"time": 2839, "pitch": 64, "duration": 6, "velocity": 91}, {"time": 2839, "pitch": 69, "duration": 5, "velocity": 85}, {"time": 2845, "pitch": 57, "duration": 5, "velocity": 82}, {"time": 2848, "pitch": 61, "duration": 7, "velocity": 93}, {"time": 2848, "pitch": 64, "duration": 7, "velocity": 107}, {"time": 2848, "pitch": 69, "duration": 7, "velocity": 90}, {"time": 2854, "pitch": 57, "duration": 6, "velocity": 79}, {"time": 2860, "pitch": 42, "duration": 42, "velocity": 86}, {"time": 2860, "pitch": 54, "duration": 13, "velocity": 86}, {"time": 2872, "pitch": 61, "duration": 8, "velocity": 90}, {"time": 2872, "pitch": 66, "duration": 8, "velocity": 93}, {"time": 2872, "pitch": 69, "duration": 7, "velocity": 90}, {"time": 2878, "pitch": 54, "duration": 10, "velocity": 79}, {"time": 2881, "pitch": 61, "duration": 1, "velocity": 87}, {"time": 2881, "pitch": 66, "duration": 1, "velocity": 87}, {"time": 2881, "pitch": 69, "duration": 1, "velocity": 85}, {"time": 2887, "pitch": 61, "duration": 6, "velocity": 87}, {"time": 2887, "pitch": 66, "duration": 6, "velocity": 91}, {"time": 2887, "pitch": 69, "duration": 5, "velocity": 86}, {"time": 2893, "pitch": 54, "duration": 5, "velocity": 83}, {"time": 2896, "pitch": 61, "duration": 10, "velocity": 91}, {"time": 2896, "pitch": 66, "duration": 11, "velocity": 104}, {"time": 2896, "pitch": 69, "duration": 8, "velocity": 95}, {"time": 2902, "pitch": 54, "duration": 2, "velocity": 82}, {"time": 2908, "pitch": 45, "duration": 43, "velocity": 93}, {"time": 2914, "pitch": 57, "duration": 8, "velocity": 81}, {"time": 2920, "pitch": 61, "duration": 7, "velocity": 98}, {"time": 2920, "pitch": 64, "duration": 7, "velocity": 104}, {"time": 2920, "pitch": 69, "duration": 7, "velocity": 93}, {"time": 2926, "pitch": 57, "duration": 10, "velocity": 79}, {"time": 2929, "pitch": 61, "duration": 1, "velocity": 88}, {"time": 2929, "pitch": 64, "duration": 1, "velocity": 91}, {"time": 2929, "pitch": 69, "duration": 1, "velocity": 84}, {"time": 2935, "pitch": 61, "duration": 5, "velocity": 84}, {"time": 2935, "pitch": 64, "duration": 6, "velocity": 91}, {"time": 2935, "pitch": 69, "duration": 5, "velocity": 85}, {"time": 2941, "pitch": 57, "duration": 5, "velocity": 85}, {"time": 2944, "pitch": 61, "duration": 8, "velocity": 93}, {"time": 2944, "pitch": 64, "duration": 12, "velocity": 110}, {"time": 2944, "pitch": 69, "duration": 11, "velocity": 91}, {"time": 2950, "pitch": 57, "duration": 2, "velocity": 84}, {"time": 2956, "pitch": 45, "duration": 46, "velocity": 83}, {"time": 2956, "pitch": 61, "duration": 8, "velocity": 86}, {"time": 2956, "pitch": 64, "duration": 8, "velocity": 89}, {"time": 2956, "pitch": 69, "duration": 8, "velocity": 85}, {"time": 2968, "pitch": 61, "duration": 7, "velocity": 88}, {"time": 2968, "pitch": 64, "duration": 8, "velocity": 91}, {"time": 2968, "pitch": 69, "duration": 7, "velocity": 88}, {"time": 2974, "pitch": 57, "duration": 9, "velocity": 70}, {"time": 2977, "pitch": 61, "duration": 1, "velocity": 86}, {"time": 2977, "pitch": 64, "duration": 1, "velocity": 87}, {"time": 2977, "pitch": 69, "duration": 1, "velocity": 84}, {"time": 2983, "pitch": 61, "duration": 6, "velocity": 87}, {"time": 2983, "pitch": 64, "duration": 6, "velocity": 89}, {"time": 2983, "pitch": 69, "duration": 6, "velocity": 85}, {"time": 2989, "pitch": 57, "duration": 5, "velocity": 83}, {"time": 2992, "pitch": 61, "duration": 7, "velocity": 98}, {"time": 2992, "pitch": 64, "duration": 10, "velocity": 108}, {"time": 2992, "pitch": 69, "duration": 10, "velocity": 95}, {"time": 2998, "pitch": 57, "duration": 5, "velocity": 86}, {"time": 3004, "pitch": 45, "duration": 42, "velocity": 86}, {"time": 3004, "pitch": 61, "duration": 7, "velocity": 91}, {"time": 3004, "pitch": 64, "duration": 7, "velocity": 108}, {"time": 3004, "pitch": 69, "duration": 6, "velocity": 89}, {"time": 3010, "pitch": 57, "duration": 7, "velocity": 76}, {"time": 3016, "pitch": 61, "duration": 8, "velocity": 92}, {"time": 3016, "pitch": 64, "duration": 8, "velocity": 100}, {"time": 3016, "pitch": 69, "duration": 7, "velocity": 86}, {"time": 3022, "pitch": 57, "duration": 9, "velocity": 74}, {"time": 3025, "pitch": 61, "duration": 1, "velocity": 89}, {"time": 3025, "pitch": 64, "duration": 1, "velocity": 91}, {"time": 3025, "pitch": 69, "duration": 1, "velocity": 86}, {"time": 3031, "pitch": 61, "duration": 5, "velocity": 88}, {"time": 3031, "pitch": 64, "duration": 5, "velocity": 93}, {"time": 3031, "pitch": 69, "duration": 5, "velocity": 85}, {"time": 3037, "pitch": 57, "duration": 5, "velocity": 85}, {"time": 3040, "pitch": 61, "duration": 8, "velocity": 92}, {"time": 3040, "pitch": 64, "duration": 8, "velocity": 104}, {"time": 3040, "pitch": 69, "duration": 7, "velocity": 89}, {"time": 3046, "pitch": 57, "duration": 6, "velocity": 84}, {"time": 3052, "pitch": 45, "duration": 43, "velocity": 78}, {"time": 3052, "pitch": 61, "duration": 7, "velocity": 93}, {"time": 3052, "pitch": 64, "duration": 7, "velocity": 100}, {"time": 3052, "pitch": 69, "duration": 7, "velocity": 86}, {"time": 3058, "pitch": 57, "duration": 6, "velocity": 77}, {"time": 3064, "pitch": 61, "duration": 8, "velocity": 102}, {"time": 3064, "pitch": 64, "duration": 8, "velocity": 108}, {"time": 3064, "pitch": 69, "duration": 7, "velocity": 93}, {"time": 3070, "pitch": 57, "duration": 9, "velocity": 73}, {"time": 3073, "pitch": 61, "duration": 1, "velocity": 87}, {"time": 3073, "pitch": 64, "duration": 1, "velocity": 91}, {"time": 3073, "pitch": 69, "duration": 1, "velocity": 85}, {"time": 3079, "pitch": 61, "duration": 6, "velocity": 87}, {"time": 3079, "pitch": 64, "duration": 6, "velocity": 90}, {"time": 3079, "pitch": 69, "duration": 5, "velocity": 86}, {"time": 3085, "pitch": 57, "duration": 4, "velocity": 84}, {"time": 3088, "pitch": 61, "duration": 8, "velocity": 100}, {"time": 3088, "pitch": 64, "duration": 8, "velocity": 108}, {"time": 3088, "pitch": 69, "duration": 7, "velocity": 90}, {"time": 3094, "pitch": 57, "duration": 7, "velocity": 81}, {"time": 3100, "pitch": 42, "duration": 14, "velocity": 93}, {"time": 3100, "pitch": 57, "duration": 1, "velocity": 100}, {"time": 3100, "pitch": 61, "duration": 9, "velocity": 113}, {"time": 3100, "pitch": 66, "duration": 9, "velocity": 104}, {"time": 3109, "pitch": 54, "duration": 5, "velocity": 85}, {"time": 3112, "pitch": 57, "duration": 9, "velocity": 113}, {"time": 3112, "pitch": 61, "duration": 10, "velocity": 119}, {"time": 3112, "pitch": 66, "duration": 9, "velocity": 108}, {"time": 3118, "pitch": 42, "duration": 3, "velocity": 98}, {"time": 3124, "pitch": 38, "duration": 6, "velocity": 92}, {"time": 3124, "pitch": 50, "duration": 6, "velocity": 94}, {"time": 3124, "pitch": 57, "duration": 9, "velocity": 90}, {"time": 3124, "pitch": 62, "duration": 9, "velocity": 94}, {"time": 3124, "pitch": 66, "duration": 9, "velocity": 91}, {"time": 3133, "pitch": 38, "duration": 5, "velocity": 107}, {"time": 3133, "pitch": 50, "duration": 5, "velocity": 96}, {"time": 3136, "pitch": 57, "duration": 9, "velocity": 96}, {"time": 3136, "pitch": 62, "duration": 11, "velocity": 114}, {"time": 3136, "pitch": 66, "duration": 9, "velocity": 100}, {"time": 3142, "pitch": 38, "duration": 6, "velocity": 107}, {"time": 3148, "pitch": 45, "duration": 6, "velocity": 94}, {"time": 3148, "pitch": 57, "duration": 9, "velocity": 94}, {"time": 3148, "pitch": 61, "duration": 9, "velocity": 102}, {"time": 3148, "pitch": 64, "duration": 9, "velocity": 96}, {"time": 3157, "pitch": 45, "duration": 5, "velocity": 102}, {"time": 3160, "pitch": 57, "duration": 8, "velocity": 107}, {"time": 3160, "pitch": 61, "duration": 10, "velocity": 116}, {"time": 3160, "pitch": 64, "duration": 9, "velocity": 102}, {"time": 3166, "pitch": 45, "duration": 5, "velocity": 102}, {"time": 3172, "pitch": 40, "duration": 6, "velocity": 89}, {"time": 3172, "pitch": 52, "duration": 6, "velocity": 100}, {"time": 3172, "pitch": 56, "duration": 9, "velocity": 104}, {"time": 3172, "pitch": 59, "duration": 9, "velocity": 116}, {"time": 3172, "pitch": 64, "duration": 8, "velocity": 102}, {"time": 3178, "pitch": 40, "duration": 8, "velocity": 98}, {"time": 3178, "pitch": 52, "duration": 8, "velocity": 89}, {"time": 3184, "pitch": 56, "duration": 7, "velocity": 113}, {"time": 3184, "pitch": 59, "duration": 10, "velocity": 119}, {"time": 3184, "pitch": 64, "duration": 7, "velocity": 113}, {"time": 3190, "pitch": 40, "duration": 4, "velocity": 107}, {"time": 3196, "pitch": 42, "duration": 15, "velocity": 90}, {"time": 3196, "pitch": 57, "duration": 10, "velocity": 98}, {"time": 3196, "pitch": 61, "duration": 10, "velocity": 110}, {"time": 3196, "pitch": 66, "duration": 10, "velocity": 108}, {"time": 3205, "pitch": 54, "duration": 5, "velocity": 104}, {"time": 3208, "pitch": 57, "duration": 9, "velocity": 113}, {"time": 3208, "pitch": 61, "duration": 10, "velocity": 116}, {"time": 3208, "pitch": 66, "duration": 9, "velocity": 110}, {"time": 3214, "pitch": 42, "duration": 5, "velocity": 89}, {"time": 3220, "pitch": 38, "duration": 6, "velocity": 91}, {"time": 3220, "pitch": 50, "duration": 6, "velocity": 108}, {"time": 3220, "pitch": 57, "duration": 10, "velocity": 94}, {"time": 3220, "pitch": 62, "duration": 10, "velocity": 104}, {"time": 3220, "pitch": 66, "duration": 10, "velocity": 96}, {"time": 3229, "pitch": 38, "duration": 6, "velocity": 96}, {"time": 3229, "pitch": 50, "duration": 5, "velocity": 107}, {"time": 3232, "pitch": 57, "duration": 10, "velocity": 113}, {"time": 3232, "pitch": 62, "duration": 10, "velocity": 114}, {"time": 3232, "pitch": 66, "duration": 8, "velocity": 110}, {"time": 3238, "pitch": 38, "duration": 5, "velocity": 98}, {"time": 3238, "pitch": 50, "duration": 3, "velocity": 100}, {"time": 3244, "pitch": 45, "duration": 6, "velocity": 100}, {"time": 3244, "pitch": 57, "duration": 10, "velocity": 98}, {"time": 3244, "pitch": 61, "duration": 10, "velocity": 110}, {"time": 3244, "pitch": 64, "duration": 9, "velocity": 98}, {"time": 3253, "pitch": 45, "duration": 5, "velocity": 104}, {"time": 3256, "pitch": 57, "duration": 8, "velocity": 110}, {"time": 3256, "pitch": 61, "duration": 9, "velocity": 116}, {"time": 3256, "pitch": 64, "duration": 9, "velocity": 104}, {"time": 3262, "pitch": 45, "duration": 5, "velocity": 110}, {"time": 3268, "pitch": 40, "duration": 6, "velocity": 88}, {"time": 3268, "pitch": 52, "duration": 6, "velocity": 94}, {"time": 3268, "pitch": 56, "duration": 9, "velocity": 96}, {"time": 3268, "pitch": 59, "duration": 9, "velocity": 108}, {"time": 3268, "pitch": 64, "duration": 9, "velocity": 92}, {"time": 3277, "pitch": 40, "duration": 7, "velocity": 100}, {"time": 3277, "pitch": 52, "duration": 5, "velocity": 107}, {"time": 3280, "pitch": 56, "duration": 8, "velocity": 110}, {"time": 3280, "pitch": 59, "duration": 11, "velocity": 117}, {"time": 3280, "pitch": 64, "duration": 7, "velocity": 110}, {"time": 3286, "pitch": 40, "duration": 5, "velocity": 108}, {"time": 3292, "pitch": 42, "duration": 7, "velocity": 89}, {"time": 3292, "pitch": 57, "duration": 10, "velocity": 104}, {"time": 3292, "pitch": 61, "duration": 10, "velocity": 113}, {"time": 3292, "pitch": 66, "duration": 10, "velocity": 102}, {"time": 3301, "pitch": 42, "duration": 6, "velocity": 100}, {"time": 3304, "pitch": 57, "duration": 9, "velocity": 113}, {"time": 3304, "pitch": 61, "duration": 10, "velocity": 117}, {"time": 3304, "pitch": 66, "duration": 9, "velocity": 108}, {"time": 3310, "pitch": 42, "duration": 5, "velocity": 100}, {"time": 3316, "pitch": 38, "duration": 6, "velocity": 100}, {"time": 3316, "pitch": 50, "duration": 6, "velocity": 107}, {"time": 3316, "pitch": 57, "duration": 10, "velocity": 104}, {"time": 3316, "pitch": 62, "duration": 10, "velocity": 113}, {"time": 3316, "pitch": 66, "duration": 10, "velocity": 104}, {"time": 3325, "pitch": 38, "duration": 6, "velocity": 94}, {"time": 3325, "pitch": 50, "duration": 5, "velocity": 104}, {"time": 3328, "pitch": 57, "duration": 10, "velocity": 114}, {"time": 3328, "pitch": 62, "duration": 10, "velocity": 114}, {"time": 3328, "pitch": 66, "duration": 9, "velocity": 108}, {"time": 3334, "pitch": 38, "duration": 5, "velocity": 107}, {"time": 3334, "pitch": 50, "duration": 4, "velocity": 113}, {"time": 3340, "pitch": 45, "duration": 7, "velocity": 90}, {"time": 3340, "pitch": 57, "duration": 10, "velocity": 93}, {"time": 3340, "pitch": 61, "duration": 10, "velocity": 113}, {"time": 3340, "pitch": 64, "duration": 10, "velocity": 102}, {"time": 3349, "pitch": 45, "duration": 6, "velocity": 113}, {"time": 3352, "pitch": 57, "duration": 7, "velocity": 113}, {"time": 3352, "pitch": 61, "duration": 10, "velocity": 119}, {"time": 3352, "pitch": 64, "duration": 9, "velocity": 104}, {"time": 3358, "pitch": 45, "duration": 5, "velocity": 113}, {"time": 3364, "pitch": 40, "duration": 6, "velocity": 91}, {"time": 3364, "pitch": 52, "duration": 5, "velocity": 89}, {"time": 3364, "pitch": 56, "duration": 10, "velocity": 104}, {"time": 3364, "pitch": 59, "duration": 10, "velocity": 116}, {"time": 3364, "pitch": 64, "duration": 10, "velocity": 98}, {"time": 3373, "pitch": 40, "duration": 5, "velocity": 108}, {"time": 3373, "pitch": 52, "duration": 4, "velocity": 108}, {"time": 3376, "pitch": 56, "duration": 7, "velocity": 114}, {"time": 3376, "pitch": 59, "duration": 10, "velocity": 117}, {"time": 3376, "pitch": 64, "duration": 7, "velocity": 113}, {"time": 3382, "pitch": 40, "duration": 5, "velocity": 110}, {"time": 3388, "pitch": 42, "duration": 6, "velocity": 98}, {"time": 3388, "pitch": 57, "duration": 9, "velocity": 108}, {"time": 3388, "pitch": 61, "duration": 9, "velocity": 116}, {"time": 3388, "pitch": 66, "duration": 9, "velocity": 107}, {"time": 3397, "pitch": 42, "duration": 5, "velocity": 108}, {"time": 3400, "pitch": 57, "duration": 9, "velocity": 117}, {"time": 3400, "pitch": 61, "duration": 10, "velocity": 120}, {"time": 3400, "pitch": 66, "duration": 10, "velocity": 113}, {"time": 3406, "pitch": 42, "duration": 6, "velocity": 91}, {"time": 3412, "pitch": 38, "duration": 6, "velocity": 91}, {"time": 3412, "pitch": 50, "duration": 5, "velocity": 104}, {"time": 3412, "pitch": 57, "duration": 10, "velocity": 107}, {"time": 3412, "pitch": 62, "duration": 10, "velocity": 110}, {"time": 3412, "pitch": 66, "duration": 10, "velocity": 104}, {"time": 3421, "pitch": 38, "duration": 4, "velocity": 113}, {"time": 3421, "pitch": 50, "duration": 4, "velocity": 113}, {"time": 3424, "pitch": 57, "duration": 10, "velocity": 113}, {"time": 3424, "pitch": 62, "duration": 10, "velocity": 114}, {"time": 3424, "pitch": 66, "duration": 8, "velocity": 110}, {"time": 3430, "pitch": 38, "duration": 5, "velocity": 102}, {"time": 3430, "pitch": 50, "duration": 5, "velocity": 113}, {"time": 3436, "pitch": 45, "duration": 6, "velocity": 93}, {"time": 3436, "pitch": 57, "duration": 10, "velocity": 94}, {"time": 3436, "pitch": 61, "duration": 10, "velocity": 104}, {"time": 3436, "pitch": 64, "duration": 9, "velocity": 96}, {"time": 3445, "pitch": 45, "duration": 5, "velocity": 116}, {"time": 3448, "pitch": 57, "duration": 8, "velocity": 113}, {"time": 3448, "pitch": 61, "duration": 10, "velocity": 117}, {"time": 3448, "pitch": 64, "duration": 8, "velocity": 104}, {"time": 3454, "pitch": 45, "duration": 5, "velocity": 114}, {"time": 3460, "pitch": 40, "duration": 5, "velocity": 88}, {"time": 3460, "pitch": 52, "duration": 5, "velocity": 88}, {"time": 3460, "pitch": 56, "duration": 9, "velocity": 98}, {"time": 3460, "pitch": 59, "duration": 9, "velocity": 113}, {"time": 3460, "pitch": 64, "duration": 9, "velocity": 100}, {"time": 3469, "pitch": 40, "duration": 6, "velocity": 104}, {"time": 3469, "pitch": 52, "duration": 5, "velocity": 104}, {"time": 3472, "pitch": 56, "duration": 7, "velocity": 113}, {"time": 3472, "pitch": 59, "duration": 10, "velocity": 117}, {"time": 3472, "pitch": 64, "duration": 7, "velocity": 104}, {"time": 3478, "pitch": 40, "duration": 4, "velocity": 94}, {"time": 3478, "pitch": 52, "duration": 4, "velocity": 113}, {"time": 3484, "pitch": 42, "duration": 15, "velocity": 104}, {"time": 3484, "pitch": 57, "duration": 10, "velocity": 113}, {"time": 3484, "pitch": 61, "duration": 10, "velocity": 116}, {"time": 3484, "pitch": 66, "duration": 9, "velocity": 113}, {"time": 3493, "pitch": 54, "duration": 4, "velocity": 113}, {"time": 3496, "pitch": 57, "duration": 10, "velocity": 117}, {"time": 3496, "pitch": 61, "duration": 10, "velocity": 119}, {"time": 3496, "pitch": 66, "duration": 9, "velocity": 113}, {"time": 3502, "pitch": 42, "duration": 5, "velocity": 91}, {"time": 3508, "pitch": 38, "duration": 22, "velocity": 107}, {"time": 3508, "pitch": 50, "duration": 5, "velocity": 102}, {"time": 3508, "pitch": 57, "duration": 7, "velocity": 110}, {"time": 3508, "pitch": 62, "duration": 8, "velocity": 117}, {"time": 3508, "pitch": 66, "duration": 7, "velocity": 107}, {"time": 3514, "pitch": 50, "duration": 6, "velocity": 102}, {"time": 3517, "pitch": 57, "duration": 1, "velocity": 113}, {"time": 3517, "pitch": 62, "duration": 1, "velocity": 119}, {"time": 3517, "pitch": 66, "duration": 2, "velocity": 113}, {"time": 3523, "pitch": 50, "duration": 4, "velocity": 100}, {"time": 3526, "pitch": 57, "duration": 5, "velocity": 114}, {"time": 3526, "pitch": 62, "duration": 5, "velocity": 117}, {"time": 3526, "pitch": 66, "duration": 4, "velocity": 108}, {"time": 3529, "pitch": 50, "duration": 3, "velocity": 91}, {"time": 3532, "pitch": 45, "duration": 7, "velocity": 108}, {"time": 3532, "pitch": 57, "duration": 10, "velocity": 110}, {"time": 3532, "pitch": 61, "duration": 10, "velocity": 117}, {"time": 3532, "pitch": 64, "duration": 10, "velocity": 116}, {"time": 3541, "pitch": 45, "duration": 6, "velocity": 96}, {"time": 3544, "pitch": 57, "duration": 7, "velocity": 113}, {"time": 3544, "pitch": 61, "duration": 7, "velocity": 117}, {"time": 3544, "pitch": 64, "duration": 11, "velocity": 116}, {"time": 3550, "pitch": 45, "duration": 6, "velocity": 91}, {"time": 3556, "pitch": 40, "duration": 19, "velocity": 89}, {"time": 3556, "pitch": 52, "duration": 7, "velocity": 94}, {"time": 3559, "pitch": 56, "duration": 1, "velocity": 110}, {"time": 3559, "pitch": 59, "duration": 1, "velocity": 114}, {"time": 3559, "pitch": 64, "duration": 1, "velocity": 96}, {"time": 3562, "pitch": 64, "duration": 2, "velocity": 82}, {"time": 3565, "pitch": 52, "duration": 4, "velocity": 108}, {"time": 3568, "pitch": 56, "duration": 7, "velocity": 117}, {"time": 3568, "pitch": 59, "duration": 10, "velocity": 120}, {"time": 3568, "pitch": 64, "duration": 7, "velocity": 110}, {"time": 3574, "pitch": 52, "duration": 6, "velocity": 113}, {"time": 3580, "pitch": 42, "duration": 14, "velocity": 98}, {"time": 3580, "pitch": 57, "duration": 10, "velocity": 110}, {"time": 3580, "pitch": 61, "duration": 10, "velocity": 114}, {"time": 3580, "pitch": 66, "duration": 10, "velocity": 108}, {"time": 3589, "pitch": 54, "duration": 4, "velocity": 110}, {"time": 3592, "pitch": 57, "duration": 10, "velocity": 114}, {"time": 3592, "pitch": 61, "duration": 10, "velocity": 117}, {"time": 3592, "pitch": 66, "duration": 9, "velocity": 110}, {"time": 3598, "pitch": 42, "duration": 6, "velocity": 93}, {"time": 3604, "pitch": 38, "duration": 6, "velocity": 89}, {"time": 3604, "pitch": 50, "duration": 6, "velocity": 104}, {"time": 3604, "pitch": 57, "duration": 10, "velocity": 108}, {"time": 3604, "pitch": 62, "duration": 10, "velocity": 116}, {"time": 3604, "pitch": 66, "duration": 10, "velocity": 102}, {"time": 3613, "pitch": 38, "duration": 6, "velocity": 102}, {"time": 3613, "pitch": 50, "duration": 5, "velocity": 110}, {"time": 3616, "pitch": 57, "duration": 9, "velocity": 114}, {"time": 3616, "pitch": 61, "duration": 4, "velocity": 108}, {"time": 3616, "pitch": 62, "duration": 10, "velocity": 108}, {"time": 3616, "pitch": 66, "duration": 10, "velocity": 100}, {"time": 3622, "pitch": 38, "duration": 4, "velocity": 90}, {"time": 3622, "pitch": 50, "duration": 4, "velocity": 102}, {"time": 3628, "pitch": 45, "duration": 7, "velocity": 108}, {"time": 3628, "pitch": 57, "duration": 9, "velocity": 113}, {"time": 3628, "pitch": 61, "duration": 10, "velocity": 117}, {"time": 3628, "pitch": 64, "duration": 9, "velocity": 114}, {"time": 3637, "pitch": 45, "duration": 5, "velocity": 113}, {"time": 3640, "pitch": 57, "duration": 8, "velocity": 110}, {"time": 3640, "pitch": 61, "duration": 8, "velocity": 116}, {"time": 3640, "pitch": 64, "duration": 10, "velocity": 116}, {"time": 3646, "pitch": 45, "duration": 5, "velocity": 113}, {"time": 3652, "pitch": 40, "duration": 6, "velocity": 91}, {"time": 3652, "pitch": 52, "duration": 5, "velocity": 96}, {"time": 3652, "pitch": 56, "duration": 8, "velocity": 92}, {"time": 3652, "pitch": 59, "duration": 8, "velocity": 114}, {"time": 3652, "pitch": 64, "duration": 8, "velocity": 107}, {"time": 3658, "pitch": 40, "duration": 13, "velocity": 85}, {"time": 3658, "pitch": 52, "duration": 6, "velocity": 104}, {"time": 3664, "pitch": 56, "duration": 7, "velocity": 116}, {"time": 3664, "pitch": 59, "duration": 10, "velocity": 119}, {"time": 3664, "pitch": 64, "duration": 7, "velocity": 116}, {"time": 3670, "pitch": 52, "duration": 4, "velocity": 113}, {"time": 3676, "pitch": 42, "duration": 13, "velocity": 98}, {"time": 3676, "pitch": 57, "duration": 10, "velocity": 110}, {"time": 3676, "pitch": 61, "duration": 10, "velocity": 116}, {"time": 3676, "pitch": 66, "duration": 10, "velocity": 108}, {"time": 3685, "pitch": 54, "duration": 4, "velocity": 114}, {"time": 3688, "pitch": 57, "duration": 9, "velocity": 114}, {"time": 3688, "pitch": 61, "duration": 10, "velocity": 117}, {"time": 3688, "pitch": 66, "duration": 9, "velocity": 110}, {"time": 3694, "pitch": 42, "duration": 5, "velocity": 96}, {"time": 3700, "pitch": 38, "duration": 6, "velocity": 96}, {"time": 3700, "pitch": 50, "duration": 5, "velocity": 107}, {"time": 3700, "pitch": 57, "duration": 9, "velocity": 110}, {"time": 3700, "pitch": 62, "duration": 9, "velocity": 117}, {"time": 3700, "pitch": 66, "duration": 9, "velocity": 107}, {"time": 3709, "pitch": 38, "duration": 6, "velocity": 104}, {"time": 3709, "pitch": 50, "duration": 5, "velocity": 114}, {"time": 3712, "pitch": 57, "duration": 9, "velocity": 113}, {"time": 3712, "pitch": 62, "duration": 9, "velocity": 119}, {"time": 3712, "pitch": 66, "duration": 9, "velocity": 108}, {"time": 3718, "pitch": 38, "duration": 4, "velocity": 93}, {"time": 3718, "pitch": 50, "duration": 4, "velocity": 110}, {"time": 3724, "pitch": 45, "duration": 6, "velocity": 100}, {"time": 3724, "pitch": 57, "duration": 10, "velocity": 107}, {"time": 3724, "pitch": 61, "duration": 10, "velocity": 116}, {"time": 3724, "pitch": 64, "duration": 9, "velocity": 113}, {"time": 3733, "pitch": 45, "duration": 6, "velocity": 114}, {"time": 3736, "pitch": 57, "duration": 8, "velocity": 113}, {"time": 3736, "pitch": 61, "duration": 8, "velocity": 119}, {"time": 3736, "pitch": 64, "duration": 10, "velocity": 116}, {"time": 3742, "pitch": 45, "duration": 5, "velocity": 110}, {"time": 3748, "pitch": 40, "duration": 7, "velocity": 90}, {"time": 3748, "pitch": 52, "duration": 6, "velocity": 98}, {"time": 3748, "pitch": 56, "duration": 4, "velocity": 108}, {"time": 3748, "pitch": 59, "duration": 4, "velocity": 116}, {"time": 3748, "pitch": 64, "duration": 4, "velocity": 102}, {"time": 3754, "pitch": 56, "duration": 3, "velocity": 92}, {"time": 3754, "pitch": 59, "duration": 3, "velocity": 100}, {"time": 3754, "pitch": 64, "duration": 3, "velocity": 89}, {"time": 3757, "pitch": 40, "duration": 4, "velocity": 110}, {"time": 3757, "pitch": 52, "duration": 4, "velocity": 116}, {"time": 3760, "pitch": 56, "duration": 8, "velocity": 119}, {"time": 3760, "pitch": 59, "duration": 10, "velocity": 125}, {"time": 3760, "pitch": 64, "duration": 7, "velocity": 116}, {"time": 3766, "pitch": 40, "duration": 5, "velocity": 117}, {"time": 3772, "pitch": 42, "duration": 6, "velocity": 102}, {"time": 3772, "pitch": 57, "duration": 10, "velocity": 116}, {"time": 3772, "pitch": 61, "duration": 9, "velocity": 117}, {"time": 3772, "pitch": 66, "duration": 9, "velocity": 113}, {"time": 3781, "pitch": 42, "duration": 4, "velocity": 110}, {"time": 3784, "pitch": 57, "duration": 9, "velocity": 117}, {"time": 3784, "pitch": 61, "duration": 10, "velocity": 120}, {"time": 3784, "pitch": 66, "duration": 9, "velocity": 113}, {"time": 3790, "pitch": 42, "duration": 5, "velocity": 108}, {"time": 3796, "pitch": 38, "duration": 6, "velocity": 104}, {"time": 3796, "pitch": 50, "duration": 6, "velocity": 94}, {"time": 3796, "pitch": 57, "duration": 9, "velocity": 108}, {"time": 3796, "pitch": 62, "duration": 9, "velocity": 113}, {"time": 3796, "pitch": 66, "duration": 9, "velocity": 107}, {"time": 3805, "pitch": 38, "duration": 5, "velocity": 110}, {"time": 3805, "pitch": 50, "duration": 5, "velocity": 108}, {"time": 3808, "pitch": 57, "duration": 9, "velocity": 114}, {"time": 3808, "pitch": 62, "duration": 8, "velocity": 116}, {"time": 3808, "pitch": 66, "duration": 7, "velocity": 110}, {"time": 3814, "pitch": 38, "duration": 3, "velocity": 100}, {"time": 3814, "pitch": 50, "duration": 3, "velocity": 102}, {"time": 3820, "pitch": 40, "duration": 15, "velocity": 91}, {"time": 3820, "pitch": 52, "duration": 5, "velocity": 100}, {"time": 3820, "pitch": 56, "duration": 9, "velocity": 100}, {"time": 3820, "pitch": 59, "duration": 9, "velocity": 110}, {"time": 3820, "pitch": 64, "duration": 9, "velocity": 100}, {"time": 3829, "pitch": 52, "duration": 5, "velocity": 93}, {"time": 3832, "pitch": 56, "duration": 8, "velocity": 110}, {"time": 3832, "pitch": 59, "duration": 10, "velocity": 116}, {"time": 3832, "pitch": 64, "duration": 9, "velocity": 102}, {"time": 3838, "pitch": 40, "duration": 4, "velocity": 86}, {"time": 3838, "pitch": 52, "duration": 4, "velocity": 102}, {"time": 3844, "pitch": 45, "duration": 7, "velocity": 98}, {"time": 3844, "pitch": 57, "duration": 10, "velocity": 102}, {"time": 3844, "pitch": 61, "duration": 10, "velocity": 116}, {"time": 3844, "pitch": 64, "duration": 10, "velocity": 102}, {"time": 3853, "pitch": 45, "duration": 6, "velocity": 114}, {"time": 3856, "pitch": 57, "duration": 8, "velocity": 108}, {"time": 3856, "pitch": 61, "duration": 8, "velocity": 114}, {"time": 3856, "pitch": 64, "duration": 9, "velocity": 114}, {"time": 3862, "pitch": 45, "duration": 3, "velocity": 116}, {"time": 3868, "pitch": 42, "duration": 6, "velocity": 87}, {"time": 3868, "pitch": 54, "duration": 6, "velocity": 104}, {"time": 3868, "pitch": 57, "duration": 9, "velocity": 107}, {"time": 3868, "pitch": 61, "duration": 9, "velocity": 116}, {"time": 3868, "pitch": 66, "duration": 9, "velocity": 107}, {"time": 3877, "pitch": 42, "duration": 5, "velocity": 102}, {"time": 3877, "pitch": 54, "duration": 4, "velocity": 113}, {"time": 3880, "pitch": 57, "duration": 9, "velocity": 116}, {"time": 3880, "pitch": 61, "duration": 9, "velocity": 119}, {"time": 3880, "pitch": 66, "duration": 8, "velocity": 113}, {"time": 3886, "pitch": 42, "duration": 4, "velocity": 100}, {"time": 3892, "pitch": 38, "duration": 5, "velocity": 113}, {"time": 3892, "pitch": 50, "duration": 6, "velocity": 98}, {"time": 3892, "pitch": 57, "duration": 9, "velocity": 110}, {"time": 3892, "pitch": 62, "duration": 9, "velocity": 116}, {"time": 3892, "pitch": 66, "duration": 9, "velocity": 107}, {"time": 3901, "pitch": 38, "duration": 4, "velocity": 108}, {"time": 3901, "pitch": 50, "duration": 4, "velocity": 110}, {"time": 3904, "pitch": 57, "duration": 9, "velocity": 113}, {"time": 3904, "pitch": 62, "duration": 9, "velocity": 117}, {"time": 3904, "pitch": 66, "duration": 9, "velocity": 108}, {"time": 3910, "pitch": 38, "duration": 4, "velocity": 114}, {"time": 3916, "pitch": 45, "duration": 6, "velocity": 116}, {"time": 3916, "pitch": 57, "duration": 8, "velocity": 113}, {"time": 3916, "pitch": 61, "duration": 9, "velocity": 117}, {"time": 3916, "pitch": 64, "duration": 8, "velocity": 116}, {"time": 3925, "pitch": 45, "duration": 4, "velocity": 117}, {"time": 3928, "pitch": 57, "duration": 7, "velocity": 114}, {"time": 3928, "pitch": 61, "duration": 7, "velocity": 119}, {"time": 3928, "pitch": 64, "duration": 7, "velocity": 116}, {"time": 3934, "pitch": 45, "duration": 5, "velocity": 110}, {"time": 3940, "pitch": 40, "duration": 5, "velocity": 91}, {"time": 3940, "pitch": 52, "duration": 5, "velocity": 93}, {"time": 3940, "pitch": 56, "duration": 9, "velocity": 114}, {"time": 3940, "pitch": 59, "duration": 9, "velocity": 119}, {"time": 3940, "pitch": 64, "duration": 8, "velocity": 108}, {"time": 3949, "pitch": 40, "duration": 4, "velocity": 107}, {"time": 3949, "pitch": 52, "duration": 1, "velocity": 114}, {"time": 3952, "pitch": 56, "duration": 7, "velocity": 116}, {"time": 3952, "pitch": 59, "duration": 9, "velocity": 119}, {"time": 3952, "pitch": 64, "duration": 7, "velocity": 113}, {"time": 3958, "pitch": 40, "duration": 3, "velocity": 116}, {"time": 3964, "pitch": 42, "duration": 6, "velocity": 117}, {"time": 3964, "pitch": 57, "duration": 9, "velocity": 114}, {"time": 3964, "pitch": 61, "duration": 9, "velocity": 119}, {"time": 3964, "pitch": 66, "duration": 9, "velocity": 110}, {"time": 3973, "pitch": 42, "duration": 5, "velocity": 116}, {"time": 3976, "pitch": 57, "duration": 9, "velocity": 116}, {"time": 3976, "pitch": 61, "duration": 8, "velocity": 120}, {"time": 3976, "pitch": 66, "duration": 8, "velocity": 113}, {"time": 3982, "pitch": 42, "duration": 5, "velocity": 110}, {"time": 3988, "pitch": 38, "duration": 6, "velocity": 96}, {"time": 3988, "pitch": 50, "duration": 6, "velocity": 110}, {"time": 3988, "pitch": 57, "duration": 9, "velocity": 114}, {"time": 3988, "pitch": 62, "duration": 9, "velocity": 116}, {"time": 3988, "pitch": 66, "duration": 9, "velocity": 108}, {"time": 3997, "pitch": 38, "duration": 5, "velocity": 104}, {"time": 3997, "pitch": 50, "duration": 5, "velocity": 113}, {"time": 4000, "pitch": 57, "duration": 9, "velocity": 114}, {"time": 4000, "pitch": 62, "duration": 9, "velocity": 117}, {"time": 4000, "pitch": 66, "duration": 8, "velocity": 108}, {"time": 4006, "pitch": 38, "duration": 3, "velocity": 98}, {"time": 4006, "pitch": 50, "duration": 3, "velocity": 113}, {"time": 4012, "pitch": 45, "duration": 5, "velocity": 110}, {"time": 4012, "pitch": 57, "duration": 10, "velocity": 110}, {"time": 4012, "pitch": 61, "duration": 9, "velocity": 116}, {"time": 4012, "pitch": 64, "duration": 9, "velocity": 104}, {"time": 4021, "pitch": 45, "duration": 5, "velocity": 117}, {"time": 4024, "pitch": 57, "duration": 7, "velocity": 114}, {"time": 4024, "pitch": 61, "duration": 9, "velocity": 120}, {"time": 4024, "pitch": 64, "duration": 8, "velocity": 102}, {"time": 4030, "pitch": 45, "duration": 3, "velocity": 116}, {"time": 4036, "pitch": 40, "duration": 5, "velocity": 93}, {"time": 4036, "pitch": 42, "duration": 4, "velocity": 90}, {"time": 4036, "pitch": 52, "duration": 5, "velocity": 107}, {"time": 4036, "pitch": 56, "duration": 9, "velocity": 108}, {"time": 4036, "pitch": 59, "duration": 9, "velocity": 117}, {"time": 4036, "pitch": 64, "duration": 9, "velocity": 107}, {"time": 4045, "pitch": 40, "duration": 3, "velocity": 108}, {"time": 4045, "pitch": 52, "duration": 3, "velocity": 110}, {"time": 4048, "pitch": 56, "duration": 4, "velocity": 114}, {"time": 4048, "pitch": 59, "duration": 3, "velocity": 119}, {"time": 4048, "pitch": 64, "duration": 3, "velocity": 113}, {"time": 4051, "pitch": 40, "duration": 2, "velocity": 110}, {"time": 4051, "pitch": 52, "duration": 2, "velocity": 117}, {"time": 4054, "pitch": 56, "duration": 3, "velocity": 114}, {"time": 4054, "pitch": 59, "duration": 4, "velocity": 119}, {"time": 4054, "pitch": 64, "duration": 3, "velocity": 108}, {"time": 4060, "pitch": 42, "duration": 13, "velocity": 114}, {"time": 4060, "pitch": 57, "duration": 10, "velocity": 113}, {"time": 4060, "pitch": 61, "duration": 9, "velocity": 119}, {"time": 4060, "pitch": 66, "duration": 9, "velocity": 113}, {"time": 4069, "pitch": 54, "duration": 3, "velocity": 113}, {"time": 4072, "pitch": 57, "duration": 7, "velocity": 116}, {"time": 4072, "pitch": 61, "duration": 9, "velocity": 120}, {"time": 4072, "pitch": 66, "duration": 8, "velocity": 110}, {"time": 4078, "pitch": 40, "duration": 3, "velocity": 94}, {"time": 4078, "pitch": 42, "duration": 4, "velocity": 92}, {"time": 4084, "pitch": 50, "duration": 6, "velocity": 116}, {"time": 4084, "pitch": 57, "duration": 9, "velocity": 116}, {"time": 4084, "pitch": 62, "duration": 9, "velocity": 117}, {"time": 4084, "pitch": 66, "duration": 9, "velocity": 113}, {"time": 4093, "pitch": 50, "duration": 4, "velocity": 119}, {"time": 4096, "pitch": 57, "duration": 8, "velocity": 116}, {"time": 4096, "pitch": 62, "duration": 8, "velocity": 117}, {"time": 4096, "pitch": 66, "duration": 7, "velocity": 110}, {"time": 4102, "pitch": 50, "duration": 4, "velocity": 117}, {"time": 4108, "pitch": 45, "duration": 6, "velocity": 117}, {"time": 4108, "pitch": 57, "duration": 9, "velocity": 114}, {"time": 4108, "pitch": 61, "duration": 9, "velocity": 119}, {"time": 4108, "pitch": 64, "duration": 8, "velocity": 110}, {"time": 4117, "pitch": 45, "duration": 4, "velocity": 107}, {"time": 4120, "pitch": 57, "duration": 8, "velocity": 114}, {"time": 4120, "pitch": 61, "duration": 9, "velocity": 120}, {"time": 4120, "pitch": 63, "duration": 1, "velocity": 106}, {"time": 4120, "pitch": 64, "duration": 8, "velocity": 110}, {"time": 4126, "pitch": 45, "duration": 4, "velocity": 108}, {"time": 4132, "pitch": 40, "duration": 4, "velocity": 89}, {"time": 4132, "pitch": 52, "duration": 4, "velocity": 94}, {"time": 4132, "pitch": 56, "duration": 8, "velocity": 113}, {"time": 4132, "pitch": 59, "duration": 8, "velocity": 119}, {"time": 4132, "pitch": 64, "duration": 8, "velocity": 102}, {"time": 4141, "pitch": 40, "duration": 4, "velocity": 93}, {"time": 4141, "pitch": 52, "duration": 4, "velocity": 107}, {"time": 4144, "pitch": 56, "duration": 6, "velocity": 116}, {"time": 4144, "pitch": 59, "duration": 8, "velocity": 119}, {"time": 4144, "pitch": 64, "duration": 7, "velocity": 110}, {"time": 4150, "pitch": 40, "duration": 4, "velocity": 98}, {"time": 4156, "pitch": 42, "duration": 5, "velocity": 107}, {"time": 4156, "pitch": 57, "duration": 9, "velocity": 113}, {"time": 4156, "pitch": 61, "duration": 9, "velocity": 119}, {"time": 4156, "pitch": 66, "duration": 9, "velocity": 113}, {"time": 4165, "pitch": 42, "duration": 4, "velocity": 94}, {"time": 4168, "pitch": 57, "duration": 7, "velocity": 113}, {"time": 4168, "pitch": 61, "duration": 9, "velocity": 119}, {"time": 4168, "pitch": 66, "duration": 8, "velocity": 110}, {"time": 4174, "pitch": 42, "duration": 5, "velocity": 102}, {"time": 4180, "pitch": 38, "duration": 6, "velocity": 94}, {"time": 4180, "pitch": 50, "duration": 5, "velocity": 104}, {"time": 4180, "pitch": 57, "duration": 9, "velocity": 113}, {"time": 4180, "pitch": 62, "duration": 9, "velocity": 116}, {"time": 4180, "pitch": 66, "duration": 9, "velocity": 108}, {"time": 4189, "pitch": 38, "duration": 5, "velocity": 102}, {"time": 4189, "pitch": 50, "duration": 5, "velocity": 113}, {"time": 4192, "pitch": 57, "duration": 8, "velocity": 113}, {"time": 4192, "pitch": 62, "duration": 8, "velocity": 116}, {"time": 4192, "pitch": 66, "duration": 8, "velocity": 110}, {"time": 4198, "pitch": 38, "duration": 2, "velocity": 94}, {"time": 4198, "pitch": 50, "duration": 2, "velocity": 102}, {"time": 4204, "pitch": 40, "duration": 6, "velocity": 93}, {"time": 4204, "pitch": 52, "duration": 5, "velocity": 104}, {"time": 4204, "pitch": 56, "duration": 9, "velocity": 113}, {"time": 4204, "pitch": 59, "duration": 9, "velocity": 116}, {"time": 4204, "pitch": 64, "duration": 9, "velocity": 104}, {"time": 4213, "pitch": 40, "duration": 5, "velocity": 94}, {"time": 4213, "pitch": 52, "duration": 5, "velocity": 113}, {"time": 4216, "pitch": 56, "duration": 8, "velocity": 110}, {"time": 4216, "pitch": 59, "duration": 9, "velocity": 117}, {"time": 4216, "pitch": 64, "duration": 8, "velocity": 108}, {"time": 4222, "pitch": 40, "duration": 3, "velocity": 96}, {"time": 4222, "pitch": 52, "duration": 2, "velocity": 107}, {"time": 4228, "pitch": 45, "duration": 6, "velocity": 110}, {"time": 4228, "pitch": 57, "duration": 10, "velocity": 108}, {"time": 4228, "pitch": 61, "duration": 10, "velocity": 119}, {"time": 4228, "pitch": 64, "duration": 9, "velocity": 107}, {"time": 4237, "pitch": 45, "duration": 5, "velocity": 116}, {"time": 4240, "pitch": 57, "duration": 8, "velocity": 113}, {"time": 4240, "pitch": 61, "duration": 6, "velocity": 119}, {"time": 4240, "pitch": 64, "duration": 8, "velocity": 110}, {"time": 4246, "pitch": 45, "duration": 3, "velocity": 113}, {"time": 4252, "pitch": 42, "duration": 15, "velocity": 90}, {"time": 4252, "pitch": 54, "duration": 14, "velocity": 104}, {"time": 4252, "pitch": 57, "duration": 9, "velocity": 108}, {"time": 4252, "pitch": 61, "duration": 9, "velocity": 117}, {"time": 4252, "pitch": 66, "duration": 9, "velocity": 108}, {"time": 4264, "pitch": 57, "duration": 8, "velocity": 113}, {"time": 4264, "pitch": 61, "duration": 9, "velocity": 119}, {"time": 4264, "pitch": 66, "duration": 8, "velocity": 108}, {"time": 4270, "pitch": 42, "duration": 3, "velocity": 93}, {"time": 4276, "pitch": 38, "duration": 6, "velocity": 107}, {"time": 4276, "pitch": 50, "duration": 6, "velocity": 107}, {"time": 4276, "pitch": 57, "duration": 9, "velocity": 110}, {"time": 4276, "pitch": 62, "duration": 9, "velocity": 117}, {"time": 4276, "pitch": 66, "duration": 9, "velocity": 107}, {"time": 4285, "pitch": 38, "duration": 4, "velocity": 96}, {"time": 4285, "pitch": 50, "duration": 4, "velocity": 108}, {"time": 4288, "pitch": 57, "duration": 9, "velocity": 108}, {"time": 4288, "pitch": 62, "duration": 9, "velocity": 116}, {"time": 4288, "pitch": 66, "duration": 8, "velocity": 107}, {"time": 4294, "pitch": 38, "duration": 4, "velocity": 89}, {"time": 4294, "pitch": 50, "duration": 4, "velocity": 102}, {"time": 4300, "pitch": 45, "duration": 6, "velocity": 94}, {"time": 4300, "pitch": 57, "duration": 9, "velocity": 110}, {"time": 4300, "pitch": 61, "duration": 9, "velocity": 116}, {"time": 4300, "pitch": 64, "duration": 10, "velocity": 114}, {"time": 4309, "pitch": 45, "duration": 5, "velocity": 96}, {"time": 4312, "pitch": 57, "duration": 7, "velocity": 110}, {"time": 4312, "pitch": 61, "duration": 10, "velocity": 117}, {"time": 4312, "pitch": 64, "duration": 9, "velocity": 113}, {"time": 4318, "pitch": 45, "duration": 6, "velocity": 102}, {"time": 4324, "pitch": 40, "duration": 5, "velocity": 90}, {"time": 4324, "pitch": 52, "duration": 5, "velocity": 98}, {"time": 4324, "pitch": 56, "duration": 9, "velocity": 104}, {"time": 4324, "pitch": 59, "duration": 9, "velocity": 114}, {"time": 4324, "pitch": 64, "duration": 8, "velocity": 96}, {"time": 4333, "pitch": 40, "duration": 4, "velocity": 96}, {"time": 4333, "pitch": 52, "duration": 4, "velocity": 107}, {"time": 4336, "pitch": 56, "duration": 8, "velocity": 110}, {"time": 4336, "pitch": 59, "duration": 10, "velocity": 119}, {"time": 4336, "pitch": 64, "duration": 7, "velocity": 113}, {"time": 4342, "pitch": 40, "duration": 3, "velocity": 92}, {"time": 4342, "pitch": 52, "duration": 3, "velocity": 107}, {"time": 4348, "pitch": 42, "duration": 5, "velocity": 91}, {"time": 4348, "pitch": 54, "duration": 5, "velocity": 89}, {"time": 4348, "pitch": 57, "duration": 9, "velocity": 107}, {"time": 4348, "pitch": 61, "duration": 9, "velocity": 116}, {"time": 4348, "pitch": 66, "duration": 8, "velocity": 114}, {"time": 4357, "pitch": 42, "duration": 3, "velocity": 98}, {"time": 4357, "pitch": 54, "duration": 3, "velocity": 104}, {"time": 4360, "pitch": 57, "duration": 9, "velocity": 108}, {"time": 4360, "pitch": 61, "duration": 9, "velocity": 119}, {"time": 4360, "pitch": 66, "duration": 8, "velocity": 116}, {"time": 4366, "pitch": 42, "duration": 3, "velocity": 89}, {"time": 4372, "pitch": 38, "duration": 5, "velocity": 100}, {"time": 4372, "pitch": 50, "duration": 5, "velocity": 96}, {"time": 4372, "pitch": 57, "duration": 9, "velocity": 110}, {"time": 4372, "pitch": 62, "duration": 9, "velocity": 116}, {"time": 4372, "pitch": 66, "duration": 9, "velocity": 110}, {"time": 4381, "pitch": 38, "duration": 3, "velocity": 104}, {"time": 4381, "pitch": 50, "duration": 3, "velocity": 104}, {"time": 4384, "pitch": 57, "duration": 9, "velocity": 114}, {"time": 4384, "pitch": 62, "duration": 9, "velocity": 117}, {"time": 4384, "pitch": 66, "duration": 7, "velocity": 113}, {"time": 4390, "pitch": 38, "duration": 3, "velocity": 100}, {"time": 4390, "pitch": 50, "duration": 3, "velocity": 108}, {"time": 4396, "pitch": 45, "duration": 5, "velocity": 110}, {"time": 4396, "pitch": 57, "duration": 9, "velocity": 110}, {"time": 4396, "pitch": 61, "duration": 9, "velocity": 117}, {"time": 4396, "pitch": 64, "duration": 9, "velocity": 110}, {"time": 4405, "pitch": 45, "duration": 4, "velocity": 114}, {"time": 4408, "pitch": 57, "duration": 7, "velocity": 113}, {"time": 4408, "pitch": 61, "duration": 9, "velocity": 119}, {"time": 4408, "pitch": 64, "duration": 8, "velocity": 107}, {"time": 4414, "pitch": 45, "duration": 4, "velocity": 104}, {"time": 4420, "pitch": 40, "duration": 4, "velocity": 91}, {"time": 4420, "pitch": 52, "duration": 5, "velocity": 98}, {"time": 4420, "pitch": 56, "duration": 9, "velocity": 110}, {"time": 4420, "pitch": 59, "duration": 9, "velocity": 119}, {"time": 4420, "pitch": 64, "duration": 9, "velocity": 108}, {"time": 4429, "pitch": 40, "duration": 3, "velocity": 107}, {"time": 4429, "pitch": 52, "duration": 2, "velocity": 113}, {"time": 4432, "pitch": 56, "duration": 7, "velocity": 110}, {"time": 4432, "pitch": 59, "duration": 9, "velocity": 119}, {"time": 4432, "pitch": 64, "duration": 7, "velocity": 110}, {"time": 4438, "pitch": 40, "duration": 3, "velocity": 110}, {"time": 4444, "pitch": 42, "duration": 5, "velocity": 104}, {"time": 4444, "pitch": 57, "duration": 9, "velocity": 113}, {"time": 4444, "pitch": 61, "duration": 9, "velocity": 117}, {"time": 4444, "pitch": 66, "duration": 8, "velocity": 113}, {"time": 4453, "pitch": 42, "duration": 4, "velocity": 107}, {"time": 4456, "pitch": 57, "duration": 9, "velocity": 113}, {"time": 4456, "pitch": 61, "duration": 8, "velocity": 120}, {"time": 4456, "pitch": 66, "duration": 8, "velocity": 113}, {"time": 4462, "pitch": 42, "duration": 5, "velocity": 110}, {"time": 4468, "pitch": 38, "duration": 5, "velocity": 98}, {"time": 4468, "pitch": 50, "duration": 5, "velocity": 108}, {"time": 4468, "pitch": 57, "duration": 10, "velocity": 110}, {"time": 4468, "pitch": 62, "duration": 10, "velocity": 116}, {"time": 4468, "pitch": 66, "duration": 10, "velocity": 108}, {"time": 4477, "pitch": 38, "duration": 4, "velocity": 98}, {"time": 4477, "pitch": 50, "duration": 4, "velocity": 110}, {"time": 4480, "pitch": 57, "duration": 8, "velocity": 110}, {"time": 4480, "pitch": 62, "duration": 8, "velocity": 113}, {"time": 4480, "pitch": 66, "duration": 7, "velocity": 108}, {"time": 4486, "pitch": 38, "duration": 3, "velocity": 96}, {"time": 4486, "pitch": 50, "duration": 3, "velocity": 108}, {"time": 4492, "pitch": 45, "duration": 4, "velocity": 113}, {"time": 4492, "pitch": 57, "duration": 9, "velocity": 110}, {"time": 4492, "pitch": 61, "duration": 9, "velocity": 116}, {"time": 4492, "pitch": 64, "duration": 9, "velocity": 104}, {"time": 4501, "pitch": 45, "duration": 3, "velocity": 116}, {"time": 4504, "pitch": 57, "duration": 7, "velocity": 110}, {"time": 4504, "pitch": 61, "duration": 9, "velocity": 119}, {"time": 4504, "pitch": 64, "duration": 8, "velocity": 108}, {"time": 4510, "pitch": 45, "duration": 3, "velocity": 110}, {"time": 4516, "pitch": 40, "duration": 22, "velocity": 88}, {"time": 4516, "pitch": 52, "duration": 6, "velocity": 102}, {"time": 4516, "pitch": 56, "duration": 8, "velocity": 107}, {"time": 4516, "pitch": 59, "duration": 4, "velocity": 116}, {"time": 4516, "pitch": 64, "duration": 4, "velocity": 102}, {"time": 4522, "pitch": 52, "duration": 4, "velocity": 91}, {"time": 4522, "pitch": 59, "duration": 2, "velocity": 77}, {"time": 4522, "pitch": 64, "duration": 3, "velocity": 78}, {"time": 4525, "pitch": 56, "duration": 7, "velocity": 110}, {"time": 4525, "pitch": 59, "duration": 6, "velocity": 119}, {"time": 4525, "pitch": 64, "duration": 6, "velocity": 107}, {"time": 4531, "pitch": 52, "duration": 4, "velocity": 113}, {"time": 4534, "pitch": 56, "duration": 3, "velocity": 107}, {"time": 4534, "pitch": 59, "duration": 4, "velocity": 116}, {"time": 4534, "pitch": 64, "duration": 3, "velocity": 98}, {"time": 4540, "pitch": 42, "duration": 13, "velocity": 98}, {"time": 4540, "pitch": 57, "duration": 9, "velocity": 110}, {"time": 4540, "pitch": 61, "duration": 9, "velocity": 117}, {"time": 4540, "pitch": 66, "duration": 9, "velocity": 113}, {"time": 4549, "pitch": 54, "duration": 3, "velocity": 104}, {"time": 4552, "pitch": 57, "duration": 9, "velocity": 117}, {"time": 4552, "pitch": 61, "duration": 9, "velocity": 120}, {"time": 4552, "pitch": 66, "duration": 8, "velocity": 113}, {"time": 4558, "pitch": 42, "duration": 5, "velocity": 98}, {"time": 4564, "pitch": 38, "duration": 6, "velocity": 102}, {"time": 4564, "pitch": 50, "duration": 5, "velocity": 91}, {"time": 4564, "pitch": 57, "duration": 9, "velocity": 108}, {"time": 4564, "pitch": 62, "duration": 9, "velocity": 114}, {"time": 4564, "pitch": 66, "duration": 9, "velocity": 108}, {"time": 4573, "pitch": 38, "duration": 5, "velocity": 102}, {"time": 4573, "pitch": 50, "duration": 4, "velocity": 110}, {"time": 4576, "pitch": 57, "duration": 8, "velocity": 113}, {"time": 4576, "pitch": 62, "duration": 9, "velocity": 114}, {"time": 4576, "pitch": 66, "duration": 7, "velocity": 113}, {"time": 4582, "pitch": 38, "duration": 2, "velocity": 93}, {"time": 4582, "pitch": 50, "duration": 3, "velocity": 108}, {"time": 4588, "pitch": 40, "duration": 6, "velocity": 91}, {"time": 4588, "pitch": 52, "duration": 5, "velocity": 104}, {"time": 4588, "pitch": 56, "duration": 10, "velocity": 110}, {"time": 4588, "pitch": 59, "duration": 9, "velocity": 116}, {"time": 4588, "pitch": 64, "duration": 9, "velocity": 107}, {"time": 4597, "pitch": 40, "duration": 6, "velocity": 94}, {"time": 4597, "pitch": 52, "duration": 5, "velocity": 108}, {"time": 4600, "pitch": 56, "duration": 8, "velocity": 113}, {"time": 4600, "pitch": 59, "duration": 10, "velocity": 117}, {"time": 4600, "pitch": 64, "duration": 9, "velocity": 107}, {"time": 4606, "pitch": 40, "duration": 3, "velocity": 92}, {"time": 4606, "pitch": 52, "duration": 3, "velocity": 98}, {"time": 4612, "pitch": 45, "duration": 16, "velocity": 107}, {"time": 4612, "pitch": 57, "duration": 11, "velocity": 110}, {"time": 4612, "pitch": 61, "duration": 11, "velocity": 117}, {"time": 4612, "pitch": 64, "duration": 10, "velocity": 110}, {"time": 4624, "pitch": 57, "duration": 8, "velocity": 108}, {"time": 4624, "pitch": 61, "duration": 8, "velocity": 117}, {"time": 4624, "pitch": 63, "duration": 1, "velocity": 90}, {"time": 4624, "pitch": 64, "duration": 7, "velocity": 110}, {"time": 4630, "pitch": 45, "duration": 3, "velocity": 98}, {"time": 4636, "pitch": 42, "duration": 20, "velocity": 91}, {"time": 4642, "pitch": 49, "duration": 13, "velocity": 85}, {"time": 4648, "pitch": 61, "duration": 7, "velocity": 100}, {"time": 4654, "pitch": 57, "duration": 6, "velocity": 88}, {"time": 4660, "pitch": 38, "duration": 18, "velocity": 89}, {"time": 4666, "pitch": 50, "duration": 13, "velocity": 83}, {"time": 4672, "pitch": 62, "duration": 3, "velocity": 91}, {"time": 4678, "pitch": 57, "duration": 6, "velocity": 106}, {"time": 4684, "pitch": 45, "duration": 18, "velocity": 97}, {"time": 4690, "pitch": 52, "duration": 11, "velocity": 86}, {"time": 4696, "pitch": 61, "duration": 6, "velocity": 104}, {"time": 4702, "pitch": 57, "duration": 5, "velocity": 100}, {"time": 4708, "pitch": 40, "duration": 19, "velocity": 88}, {"time": 4708, "pitch": 56, "duration": 7, "velocity": 92}, {"time": 4714, "pitch": 47, "duration": 13, "velocity": 81}, {"time": 4714, "pitch": 57, "duration": 6, "velocity": 86}, {"time": 4720, "pitch": 59, "duration": 6, "velocity": 88}, {"time": 4726, "pitch": 52, "duration": 6, "velocity": 87}, {"time": 4732, "pitch": 42, "duration": 20, "velocity": 91}, {"time": 4738, "pitch": 49, "duration": 13, "velocity": 85}, {"time": 4744, "pitch": 61, "duration": 7, "velocity": 100}, {"time": 4750, "pitch": 57, "duration": 6, "velocity": 88}, {"time": 4756, "pitch": 38, "duration": 18, "velocity": 89}, {"time": 4762, "pitch": 50, "duration": 13, "velocity": 83}, {"time": 4768, "pitch": 62, "duration": 3, "velocity": 91}, {"time": 4774, "pitch": 57, "duration": 6, "velocity": 106}, {"time": 4780, "pitch": 45, "duration": 18, "velocity": 97}, {"time": 4786, "pitch": 52, "duration": 11, "velocity": 86}, {"time": 4792, "pitch": 61, "duration": 6, "velocity": 104}, {"time": 4798, "pitch": 57, "duration": 5, "velocity": 100}, {"time": 4804, "pitch": 40, "duration": 19, "velocity": 88}, {"time": 4804, "pitch": 56, "duration": 7, "velocity": 92}, {"time": 4810, "pitch": 47, "duration": 13, "velocity": 81}, {"time": 4810, "pitch": 57, "duration": 6, "velocity": 86}, {"time": 4816, "pitch": 59, "duration": 6, "velocity": 88}, {"time": 4822, "pitch": 52, "duration": 6, "velocity": 87}, {"time": 4828, "pitch": 42, "duration": 20, "velocity": 91}, {"time": 4834, "pitch": 49, "duration": 13, "velocity": 85}, {"time": 4840, "pitch": 61, "duration": 7, "velocity": 100}, {"time": 4846, "pitch": 57, "duration": 6, "velocity": 88}, {"time": 4852, "pitch": 38, "duration": 18, "velocity": 89}, {"time": 4858, "pitch": 50, "duration": 13, "velocity": 83}, {"time": 4864, "pitch": 62, "duration": 3, "velocity": 91}, {"time": 4870, "pitch": 57, "duration": 6, "velocity": 106}, {"time": 4876, "pitch": 45, "duration": 18, "velocity": 97}, {"time": 4882, "pitch": 52, "duration": 11, "velocity": 86}, {"time": 4888, "pitch": 61, "duration": 6, "velocity": 104}, {"time": 4894, "pitch": 57, "duration": 5, "velocity": 100}, {"time": 4900, "pitch": 40, "duration": 19, "velocity": 88}, {"time": 4900, "pitch": 56, "duration": 7, "velocity": 92}, {"time": 4906, "pitch": 47, "duration": 13, "velocity": 81}, {"time": 4906, "pitch": 57, "duration": 6, "velocity": 86}, {"time": 4912, "pitch": 59, "duration": 6, "velocity": 88}, {"time": 4918, "pitch": 52, "duration": 6, "velocity": 87}, {"time": 4924, "pitch": 42, "duration": 20, "velocity": 91}, {"time": 4930, "pitch": 49, "duration": 13, "velocity": 85}, {"time": 4936, "pitch": 61, "duration": 7, "velocity": 100}, {"time": 4942, "pitch": 57, "duration": 6, "velocity": 88}, {"time": 4948, "pitch": 38, "duration": 18, "velocity": 89}, {"time": 4954, "pitch": 50, "duration": 13, "velocity": 83}, {"time": 4960, "pitch": 62, "duration": 3, "velocity": 91}, {"time": 4966, "pitch": 57, "duration": 6, "velocity": 106}, {"time": 4972, "pitch": 45, "duration": 18, "velocity": 97}, {"time": 4978, "pitch": 52, "duration": 11, "velocity": 86}, {"time": 4984, "pitch": 61, "duration": 6, "velocity": 104}, {"time": 4990, "pitch": 57, "duration": 5, "velocity": 100}, {"time": 4996, "pitch": 40, "duration": 19, "velocity": 88}, {"time": 4996, "pitch": 56, "duration": 7, "velocity": 92}, {"time": 5002, "pitch": 47, "duration": 13, "velocity": 81}, {"time": 5002, "pitch": 57, "duration": 6, "velocity": 86}, {"time": 5008, "pitch": 59, "duration": 6, "velocity": 88}, {"time": 5014, "pitch": 52, "duration": 6, "velocity": 87}]}]}