{"metadata": {"schema_version": "0.2", "title": "None", "source_filename": "347.mid", "source_format": "midi"}, "resolution": 12, "tempos": [{"time": 0, "qpm": 72.00002880001152}], "key_signatures": [{"time": 0, "root": 0, "mode": "major"}], "time_signatures": [{"time": 0, "numerator": 4, "denominator": 4}], "tracks": [{"program": 0, "is_drum": false, "name": "MELODY", "notes": [{"time": 218, "pitch": 62, "duration": 6, "velocity": 120}, {"time": 224, "pitch": 62, "duration": 6, "velocity": 117}, {"time": 230, "pitch": 71, "duration": 24, "velocity": 123}, {"time": 254, "pitch": 71, "duration": 6, "velocity": 116}, {"time": 260, "pitch": 71, "duration": 6, "velocity": 116}, {"time": 266, "pitch": 71, "duration": 6, "velocity": 116}, {"time": 272, "pitch": 69, "duration": 3, "velocity": 116}, {"time": 275, "pitch": 71, "duration": 39, "velocity": 119}, {"time": 314, "pitch": 62, "duration": 6, "velocity": 116}, {"time": 320, "pitch": 62, "duration": 6, "velocity": 114}, {"time": 326, "pitch": 71, "duration": 24, "velocity": 116}, {"time": 350, "pitch": 71, "duration": 6, "velocity": 114}, {"time": 356, "pitch": 69, "duration": 6, "velocity": 114}, {"time": 362, "pitch": 67, "duration": 6, "velocity": 117}, {"time": 368, "pitch": 69, "duration": 6, "velocity": 116}, {"time": 374, "pitch": 71, "duration": 12, "velocity": 109}, {"time": 386, "pitch": 66, "duration": 24, "velocity": 116}, {"time": 410, "pitch": 66, "duration": 6, "velocity": 123}, {"time": 416, "pitch": 67, "duration": 6, "velocity": 117}, {"time": 422, "pitch": 64, "duration": 18, "velocity": 119}, {"time": 440, "pitch": 67, "duration": 6, "velocity": 108}, {"time": 446, "pitch": 67, "duration": 6, "velocity": 116}, {"time": 452, "pitch": 67, "duration": 6, "velocity": 114}, {"time": 458, "pitch": 67, "duration": 6, "velocity": 113}, {"time": 464, "pitch": 62, "duration": 6, "velocity": 110}, {"time": 470, "pitch": 71, "duration": 36, "velocity": 114}, {"time": 506, "pitch": 67, "duration": 6, "velocity": 119}, {"time": 512, "pitch": 67, "duration": 6, "velocity": 119}, {"time": 518, "pitch": 69, "duration": 18, "velocity": 114}, {"time": 536, "pitch": 69, "duration": 6, "velocity": 117}, {"time": 542, "pitch": 69, "duration": 6, "velocity": 114}, {"time": 548, "pitch": 67, "duration": 6, "velocity": 117}, {"time": 554, "pitch": 67, "duration": 6, "velocity": 117}, {"time": 560, "pitch": 74, "duration": 12, "velocity": 120}, {"time": 572, "pitch": 69, "duration": 30, "velocity": 119}, {"time": 602, "pitch": 69, "duration": 6, "velocity": 117}, {"time": 608, "pitch": 67, "duration": 6, "velocity": 116}, {"time": 614, "pitch": 71, "duration": 18, "velocity": 120}, {"time": 632, "pitch": 69, "duration": 6, "velocity": 119}, {"time": 638, "pitch": 69, "duration": 6, "velocity": 117}, {"time": 644, "pitch": 69, "duration": 6, "velocity": 114}, {"time": 650, "pitch": 69, "duration": 6, "velocity": 116}, {"time": 656, "pitch": 67, "duration": 6, "velocity": 114}, {"time": 662, "pitch": 71, "duration": 36, "velocity": 117}, {"time": 698, "pitch": 67, "duration": 6, "velocity": 119}, {"time": 704, "pitch": 69, "duration": 6, "velocity": 116}, {"time": 710, "pitch": 71, "duration": 18, "velocity": 119}, {"time": 728, "pitch": 71, "duration": 6, "velocity": 117}, {"time": 734, "pitch": 71, "duration": 6, "velocity": 114}, {"time": 740, "pitch": 69, "duration": 6, "velocity": 116}, {"time": 746, "pitch": 67, "duration": 6, "velocity": 116}, {"time": 752, "pitch": 69, "duration": 6, "velocity": 113}, {"time": 758, "pitch": 71, "duration": 6, "velocity": 116}, {"time": 764, "pitch": 66, "duration": 3, "velocity": 116}, {"time": 767, "pitch": 66, "duration": 27, "velocity": 116}, {"time": 794, "pitch": 67, "duration": 6, "velocity": 120}, {"time": 800, "pitch": 66, "duration": 6, "velocity": 119}, {"time": 806, "pitch": 64, "duration": 12, "velocity": 119}, {"time": 818, "pitch": 64, "duration": 3, "velocity": 113}, {"time": 821, "pitch": 76, "duration": 9, "velocity": 114}, {"time": 830, "pitch": 74, "duration": 12, "velocity": 117}, {"time": 842, "pitch": 71, "duration": 6, "velocity": 120}, {"time": 848, "pitch": 72, "duration": 6, "velocity": 114}, {"time": 854, "pitch": 71, "duration": 12, "velocity": 119}, {"time": 866, "pitch": 71, "duration": 6, "velocity": 119}, {"time": 872, "pitch": 74, "duration": 3, "velocity": 113}, {"time": 875, "pitch": 67, "duration": 15, "velocity": 117}, {"time": 890, "pitch": 67, "duration": 6, "velocity": 114}, {"time": 896, "pitch": 66, "duration": 6, "velocity": 116}, {"time": 902, "pitch": 64, "duration": 30, "velocity": 114}, {"time": 932, "pitch": 67, "duration": 6, "velocity": 117}, {"time": 938, "pitch": 67, "duration": 6, "velocity": 114}, {"time": 944, "pitch": 66, "duration": 6, "velocity": 116}, {"time": 950, "pitch": 63, "duration": 24, "velocity": 123}, {"time": 974, "pitch": 67, "duration": 6, "velocity": 117}, {"time": 980, "pitch": 67, "duration": 6, "velocity": 117}, {"time": 986, "pitch": 67, "duration": 6, "velocity": 119}, {"time": 992, "pitch": 69, "duration": 6, "velocity": 117}, {"time": 998, "pitch": 69, "duration": 6, "velocity": 119}, {"time": 1004, "pitch": 67, "duration": 3, "velocity": 117}, {"time": 1007, "pitch": 67, "duration": 63, "velocity": 117}, {"time": 1070, "pitch": 67, "duration": 6, "velocity": 119}, {"time": 1076, "pitch": 69, "duration": 6, "velocity": 117}, {"time": 1082, "pitch": 69, "duration": 6, "velocity": 119}, {"time": 1088, "pitch": 67, "duration": 6, "velocity": 119}, {"time": 1094, "pitch": 71, "duration": 6, "velocity": 119}, {"time": 1100, "pitch": 71, "duration": 6, "velocity": 116}, {"time": 1106, "pitch": 72, "duration": 6, "velocity": 113}, {"time": 1112, "pitch": 74, "duration": 6, "velocity": 117}, {"time": 1118, "pitch": 72, "duration": 6, "velocity": 116}, {"time": 1124, "pitch": 71, "duration": 6, "velocity": 117}, {"time": 1130, "pitch": 69, "duration": 6, "velocity": 117}, {"time": 1136, "pitch": 67, "duration": 6, "velocity": 117}, {"time": 1142, "pitch": 69, "duration": 6, "velocity": 116}, {"time": 1148, "pitch": 74, "duration": 6, "velocity": 117}, {"time": 1154, "pitch": 74, "duration": 6, "velocity": 119}, {"time": 1160, "pitch": 71, "duration": 3, "velocity": 110}, {"time": 1163, "pitch": 74, "duration": 9, "velocity": 117}, {"time": 1172, "pitch": 74, "duration": 6, "velocity": 116}, {"time": 1178, "pitch": 76, "duration": 6, "velocity": 116}, {"time": 1184, "pitch": 78, "duration": 6, "velocity": 113}, {"time": 1190, "pitch": 79, "duration": 6, "velocity": 116}, {"time": 1196, "pitch": 79, "duration": 6, "velocity": 119}, {"time": 1202, "pitch": 79, "duration": 6, "velocity": 116}, {"time": 1208, "pitch": 78, "duration": 6, "velocity": 119}, {"time": 1214, "pitch": 76, "duration": 6, "velocity": 113}, {"time": 1220, "pitch": 74, "duration": 6, "velocity": 116}, {"time": 1226, "pitch": 74, "duration": 6, "velocity": 113}, {"time": 1232, "pitch": 76, "duration": 12, "velocity": 114}, {"time": 1244, "pitch": 71, "duration": 18, "velocity": 117}, {"time": 1262, "pitch": 71, "duration": 6, "velocity": 119}, {"time": 1268, "pitch": 74, "duration": 6, "velocity": 119}, {"time": 1274, "pitch": 74, "duration": 6, "velocity": 116}, {"time": 1280, "pitch": 71, "duration": 6, "velocity": 119}, {"time": 1286, "pitch": 76, "duration": 6, "velocity": 120}, {"time": 1292, "pitch": 76, "duration": 6, "velocity": 110}, {"time": 1298, "pitch": 76, "duration": 6, "velocity": 117}, {"time": 1304, "pitch": 74, "duration": 6, "velocity": 117}, {"time": 1310, "pitch": 74, "duration": 6, "velocity": 117}, {"time": 1316, "pitch": 67, "duration": 3, "velocity": 117}, {"time": 1319, "pitch": 67, "duration": 15, "velocity": 113}, {"time": 1334, "pitch": 71, "duration": 6, "velocity": 116}, {"time": 1340, "pitch": 71, "duration": 6, "velocity": 117}, {"time": 1346, "pitch": 72, "duration": 6, "velocity": 116}, {"time": 1352, "pitch": 74, "duration": 6, "velocity": 117}, {"time": 1358, "pitch": 67, "duration": 6, "velocity": 117}, {"time": 1364, "pitch": 64, "duration": 6, "velocity": 116}, {"time": 1370, "pitch": 64, "duration": 6, "velocity": 116}, {"time": 1376, "pitch": 67, "duration": 6, "velocity": 116}, {"time": 1382, "pitch": 71, "duration": 6, "velocity": 120}, {"time": 1388, "pitch": 69, "duration": 6, "velocity": 117}, {"time": 1394, "pitch": 69, "duration": 6, "velocity": 116}, {"time": 1400, "pitch": 67, "duration": 6, "velocity": 119}, {"time": 1406, "pitch": 67, "duration": 6, "velocity": 117}, {"time": 1412, "pitch": 64, "duration": 6, "velocity": 116}, {"time": 1418, "pitch": 64, "duration": 6, "velocity": 117}, {"time": 1424, "pitch": 76, "duration": 12, "velocity": 114}, {"time": 1436, "pitch": 69, "duration": 18, "velocity": 119}, {"time": 1454, "pitch": 67, "duration": 6, "velocity": 119}, {"time": 1460, "pitch": 69, "duration": 6, "velocity": 117}, {"time": 1466, "pitch": 69, "duration": 6, "velocity": 119}, {"time": 1472, "pitch": 67, "duration": 6, "velocity": 119}, {"time": 1478, "pitch": 71, "duration": 6, "velocity": 119}, {"time": 1484, "pitch": 71, "duration": 6, "velocity": 116}, {"time": 1490, "pitch": 72, "duration": 6, "velocity": 113}, {"time": 1496, "pitch": 74, "duration": 6, "velocity": 117}, {"time": 1502, "pitch": 72, "duration": 6, "velocity": 116}, {"time": 1508, "pitch": 71, "duration": 6, "velocity": 117}, {"time": 1514, "pitch": 69, "duration": 6, "velocity": 117}, {"time": 1520, "pitch": 67, "duration": 6, "velocity": 117}, {"time": 1526, "pitch": 69, "duration": 6, "velocity": 116}, {"time": 1532, "pitch": 74, "duration": 6, "velocity": 117}, {"time": 1538, "pitch": 74, "duration": 6, "velocity": 119}, {"time": 1544, "pitch": 71, "duration": 3, "velocity": 110}, {"time": 1547, "pitch": 74, "duration": 9, "velocity": 117}, {"time": 1556, "pitch": 74, "duration": 6, "velocity": 116}, {"time": 1562, "pitch": 76, "duration": 6, "velocity": 116}, {"time": 1568, "pitch": 78, "duration": 6, "velocity": 113}, {"time": 1574, "pitch": 79, "duration": 6, "velocity": 116}, {"time": 1580, "pitch": 79, "duration": 6, "velocity": 119}, {"time": 1586, "pitch": 79, "duration": 6, "velocity": 116}, {"time": 1592, "pitch": 78, "duration": 6, "velocity": 119}, {"time": 1598, "pitch": 76, "duration": 6, "velocity": 113}, {"time": 1604, "pitch": 74, "duration": 6, "velocity": 116}, {"time": 1610, "pitch": 74, "duration": 6, "velocity": 113}, {"time": 1616, "pitch": 76, "duration": 12, "velocity": 114}, {"time": 1628, "pitch": 74, "duration": 18, "velocity": 117}, {"time": 1646, "pitch": 71, "duration": 6, "velocity": 119}, {"time": 1652, "pitch": 74, "duration": 6, "velocity": 119}, {"time": 1658, "pitch": 74, "duration": 6, "velocity": 116}, {"time": 1664, "pitch": 71, "duration": 6, "velocity": 119}, {"time": 1670, "pitch": 76, "duration": 6, "velocity": 120}, {"time": 1676, "pitch": 76, "duration": 6, "velocity": 110}, {"time": 1682, "pitch": 74, "duration": 6, "velocity": 117}, {"time": 1688, "pitch": 76, "duration": 12, "velocity": 117}, {"time": 1700, "pitch": 67, "duration": 6, "velocity": 117}, {"time": 1706, "pitch": 67, "duration": 6, "velocity": 113}, {"time": 1712, "pitch": 74, "duration": 6, "velocity": 114}, {"time": 1718, "pitch": 74, "duration": 6, "velocity": 114}, {"time": 1724, "pitch": 71, "duration": 6, "velocity": 114}, {"time": 1730, "pitch": 71, "duration": 6, "velocity": 114}, {"time": 1736, "pitch": 69, "duration": 3, "velocity": 114}, {"time": 1739, "pitch": 67, "duration": 9, "velocity": 114}, {"time": 1748, "pitch": 67, "duration": 6, "velocity": 114}, {"time": 1754, "pitch": 67, "duration": 6, "velocity": 113}, {"time": 1760, "pitch": 69, "duration": 6, "velocity": 113}, {"time": 1766, "pitch": 71, "duration": 6, "velocity": 116}, {"time": 1772, "pitch": 69, "duration": 6, "velocity": 117}, {"time": 1778, "pitch": 69, "duration": 6, "velocity": 116}, {"time": 1784, "pitch": 67, "duration": 6, "velocity": 116}, {"time": 1790, "pitch": 67, "duration": 6, "velocity": 119}, {"time": 1796, "pitch": 64, "duration": 6, "velocity": 108}, {"time": 1802, "pitch": 64, "duration": 3, "velocity": 110}, {"time": 1805, "pitch": 67, "duration": 6, "velocity": 108}, {"time": 1811, "pitch": 69, "duration": 45, "velocity": 110}, {"time": 1856, "pitch": 67, "duration": 19, "velocity": 116}, {"time": 2090, "pitch": 69, "duration": 6, "velocity": 117}, {"time": 2096, "pitch": 67, "duration": 6, "velocity": 116}, {"time": 2102, "pitch": 71, "duration": 21, "velocity": 120}, {"time": 2123, "pitch": 62, "duration": 3, "velocity": 113}, {"time": 2126, "pitch": 69, "duration": 6, "velocity": 119}, {"time": 2132, "pitch": 69, "duration": 6, "velocity": 116}, {"time": 2138, "pitch": 69, "duration": 6, "velocity": 116}, {"time": 2144, "pitch": 67, "duration": 3, "velocity": 110}, {"time": 2147, "pitch": 71, "duration": 39, "velocity": 119}, {"time": 2186, "pitch": 67, "duration": 6, "velocity": 119}, {"time": 2192, "pitch": 69, "duration": 6, "velocity": 116}, {"time": 2198, "pitch": 71, "duration": 18, "velocity": 119}, {"time": 2216, "pitch": 71, "duration": 6, "velocity": 117}, {"time": 2222, "pitch": 71, "duration": 6, "velocity": 114}, {"time": 2228, "pitch": 69, "duration": 6, "velocity": 116}, {"time": 2234, "pitch": 67, "duration": 6, "velocity": 116}, {"time": 2240, "pitch": 69, "duration": 6, "velocity": 113}, {"time": 2246, "pitch": 71, "duration": 6, "velocity": 116}, {"time": 2252, "pitch": 66, "duration": 3, "velocity": 116}, {"time": 2255, "pitch": 66, "duration": 27, "velocity": 116}, {"time": 2282, "pitch": 67, "duration": 6, "velocity": 120}, {"time": 2288, "pitch": 66, "duration": 6, "velocity": 119}, {"time": 2294, "pitch": 64, "duration": 12, "velocity": 119}, {"time": 2306, "pitch": 64, "duration": 3, "velocity": 113}, {"time": 2309, "pitch": 76, "duration": 9, "velocity": 114}, {"time": 2318, "pitch": 74, "duration": 12, "velocity": 117}, {"time": 2330, "pitch": 71, "duration": 6, "velocity": 120}, {"time": 2336, "pitch": 72, "duration": 6, "velocity": 114}, {"time": 2342, "pitch": 71, "duration": 12, "velocity": 119}, {"time": 2354, "pitch": 71, "duration": 6, "velocity": 119}, {"time": 2360, "pitch": 74, "duration": 3, "velocity": 113}, {"time": 2363, "pitch": 67, "duration": 15, "velocity": 117}, {"time": 2378, "pitch": 67, "duration": 6, "velocity": 114}, {"time": 2384, "pitch": 66, "duration": 6, "velocity": 116}, {"time": 2390, "pitch": 64, "duration": 30, "velocity": 114}, {"time": 2420, "pitch": 67, "duration": 6, "velocity": 117}, {"time": 2426, "pitch": 67, "duration": 6, "velocity": 114}, {"time": 2432, "pitch": 66, "duration": 6, "velocity": 116}, {"time": 2438, "pitch": 63, "duration": 24, "velocity": 123}, {"time": 2462, "pitch": 67, "duration": 6, "velocity": 117}, {"time": 2468, "pitch": 67, "duration": 6, "velocity": 117}, {"time": 2474, "pitch": 67, "duration": 6, "velocity": 119}, {"time": 2480, "pitch": 69, "duration": 6, "velocity": 117}, {"time": 2486, "pitch": 69, "duration": 6, "velocity": 119}, {"time": 2492, "pitch": 67, "duration": 3, "velocity": 117}, {"time": 2495, "pitch": 67, "duration": 63, "velocity": 117}, {"time": 2558, "pitch": 67, "duration": 6, "velocity": 119}, {"time": 2564, "pitch": 69, "duration": 6, "velocity": 117}, {"time": 2570, "pitch": 69, "duration": 6, "velocity": 119}, {"time": 2576, "pitch": 67, "duration": 6, "velocity": 119}, {"time": 2582, "pitch": 71, "duration": 6, "velocity": 119}, {"time": 2588, "pitch": 71, "duration": 6, "velocity": 116}, {"time": 2594, "pitch": 72, "duration": 6, "velocity": 113}, {"time": 2600, "pitch": 74, "duration": 6, "velocity": 117}, {"time": 2606, "pitch": 72, "duration": 6, "velocity": 116}, {"time": 2612, "pitch": 71, "duration": 6, "velocity": 117}, {"time": 2618, "pitch": 69, "duration": 6, "velocity": 117}, {"time": 2624, "pitch": 67, "duration": 6, "velocity": 117}, {"time": 2630, "pitch": 69, "duration": 6, "velocity": 116}, {"time": 2636, "pitch": 74, "duration": 6, "velocity": 117}, {"time": 2642, "pitch": 74, "duration": 6, "velocity": 119}, {"time": 2648, "pitch": 71, "duration": 3, "velocity": 110}, {"time": 2651, "pitch": 74, "duration": 9, "velocity": 117}, {"time": 2660, "pitch": 74, "duration": 6, "velocity": 116}, {"time": 2666, "pitch": 76, "duration": 6, "velocity": 116}, {"time": 2672, "pitch": 78, "duration": 6, "velocity": 113}, {"time": 2678, "pitch": 79, "duration": 6, "velocity": 116}, {"time": 2684, "pitch": 79, "duration": 6, "velocity": 119}, {"time": 2690, "pitch": 79, "duration": 6, "velocity": 116}, {"time": 2696, "pitch": 78, "duration": 6, "velocity": 119}, {"time": 2702, "pitch": 76, "duration": 6, "velocity": 113}, {"time": 2708, "pitch": 74, "duration": 6, "velocity": 116}, {"time": 2714, "pitch": 74, "duration": 6, "velocity": 113}, {"time": 2720, "pitch": 76, "duration": 12, "velocity": 114}, {"time": 2732, "pitch": 71, "duration": 18, "velocity": 117}, {"time": 2750, "pitch": 71, "duration": 6, "velocity": 119}, {"time": 2756, "pitch": 74, "duration": 6, "velocity": 119}, {"time": 2762, "pitch": 74, "duration": 6, "velocity": 116}, {"time": 2768, "pitch": 71, "duration": 6, "velocity": 119}, {"time": 2774, "pitch": 76, "duration": 6, "velocity": 120}, {"time": 2780, "pitch": 76, "duration": 6, "velocity": 110}, {"time": 2786, "pitch": 76, "duration": 6, "velocity": 117}, {"time": 2792, "pitch": 74, "duration": 6, "velocity": 117}, {"time": 2798, "pitch": 74, "duration": 6, "velocity": 117}, {"time": 2804, "pitch": 67, "duration": 3, "velocity": 117}, {"time": 2807, "pitch": 67, "duration": 15, "velocity": 113}, {"time": 2822, "pitch": 71, "duration": 6, "velocity": 116}, {"time": 2828, "pitch": 71, "duration": 6, "velocity": 117}, {"time": 2834, "pitch": 72, "duration": 6, "velocity": 116}, {"time": 2840, "pitch": 74, "duration": 6, "velocity": 117}, {"time": 2846, "pitch": 67, "duration": 6, "velocity": 117}, {"time": 2852, "pitch": 64, "duration": 6, "velocity": 116}, {"time": 2858, "pitch": 64, "duration": 6, "velocity": 116}, {"time": 2864, "pitch": 67, "duration": 6, "velocity": 116}, {"time": 2870, "pitch": 71, "duration": 6, "velocity": 120}, {"time": 2876, "pitch": 69, "duration": 6, "velocity": 117}, {"time": 2882, "pitch": 69, "duration": 6, "velocity": 116}, {"time": 2888, "pitch": 67, "duration": 6, "velocity": 119}, {"time": 2894, "pitch": 67, "duration": 6, "velocity": 117}, {"time": 2900, "pitch": 64, "duration": 6, "velocity": 116}, {"time": 2906, "pitch": 64, "duration": 6, "velocity": 117}, {"time": 2912, "pitch": 76, "duration": 12, "velocity": 114}, {"time": 2924, "pitch": 69, "duration": 18, "velocity": 119}, {"time": 2942, "pitch": 67, "duration": 6, "velocity": 119}, {"time": 2948, "pitch": 69, "duration": 6, "velocity": 117}, {"time": 2954, "pitch": 69, "duration": 6, "velocity": 119}, {"time": 2960, "pitch": 67, "duration": 6, "velocity": 119}, {"time": 2966, "pitch": 71, "duration": 6, "velocity": 119}, {"time": 2972, "pitch": 71, "duration": 6, "velocity": 116}, {"time": 2978, "pitch": 72, "duration": 6, "velocity": 113}, {"time": 2984, "pitch": 74, "duration": 6, "velocity": 117}, {"time": 2990, "pitch": 72, "duration": 6, "velocity": 116}, {"time": 2996, "pitch": 71, "duration": 6, "velocity": 117}, {"time": 3002, "pitch": 69, "duration": 6, "velocity": 117}, {"time": 3008, "pitch": 67, "duration": 6, "velocity": 117}, {"time": 3014, "pitch": 69, "duration": 6, "velocity": 116}, {"time": 3020, "pitch": 74, "duration": 6, "velocity": 117}, {"time": 3026, "pitch": 74, "duration": 6, "velocity": 119}, {"time": 3032, "pitch": 71, "duration": 3, "velocity": 110}, {"time": 3035, "pitch": 74, "duration": 9, "velocity": 117}, {"time": 3044, "pitch": 74, "duration": 6, "velocity": 116}, {"time": 3050, "pitch": 76, "duration": 6, "velocity": 116}, {"time": 3056, "pitch": 78, "duration": 6, "velocity": 113}, {"time": 3062, "pitch": 79, "duration": 6, "velocity": 116}, {"time": 3068, "pitch": 79, "duration": 6, "velocity": 119}, {"time": 3074, "pitch": 79, "duration": 6, "velocity": 116}, {"time": 3080, "pitch": 78, "duration": 6, "velocity": 119}, {"time": 3086, "pitch": 76, "duration": 6, "velocity": 113}, {"time": 3092, "pitch": 74, "duration": 6, "velocity": 116}, {"time": 3098, "pitch": 74, "duration": 6, "velocity": 113}, {"time": 3104, "pitch": 76, "duration": 12, "velocity": 114}, {"time": 3116, "pitch": 74, "duration": 18, "velocity": 117}, {"time": 3134, "pitch": 71, "duration": 6, "velocity": 119}, {"time": 3140, "pitch": 74, "duration": 6, "velocity": 119}, {"time": 3146, "pitch": 74, "duration": 6, "velocity": 116}, {"time": 3152, "pitch": 71, "duration": 6, "velocity": 119}, {"time": 3158, "pitch": 76, "duration": 6, "velocity": 120}, {"time": 3164, "pitch": 76, "duration": 6, "velocity": 110}, {"time": 3170, "pitch": 74, "duration": 6, "velocity": 117}, {"time": 3176, "pitch": 76, "duration": 12, "velocity": 117}, {"time": 3188, "pitch": 67, "duration": 6, "velocity": 117}, {"time": 3194, "pitch": 67, "duration": 6, "velocity": 113}, {"time": 3200, "pitch": 74, "duration": 6, "velocity": 114}, {"time": 3206, "pitch": 74, "duration": 6, "velocity": 114}, {"time": 3212, "pitch": 71, "duration": 6, "velocity": 114}, {"time": 3218, "pitch": 71, "duration": 6, "velocity": 114}, {"time": 3224, "pitch": 69, "duration": 3, "velocity": 114}, {"time": 3227, "pitch": 67, "duration": 9, "velocity": 114}, {"time": 3236, "pitch": 67, "duration": 6, "velocity": 114}, {"time": 3242, "pitch": 67, "duration": 6, "velocity": 113}, {"time": 3248, "pitch": 69, "duration": 6, "velocity": 113}, {"time": 3254, "pitch": 71, "duration": 6, "velocity": 116}, {"time": 3260, "pitch": 69, "duration": 6, "velocity": 117}, {"time": 3266, "pitch": 69, "duration": 6, "velocity": 116}, {"time": 3272, "pitch": 67, "duration": 6, "velocity": 116}, {"time": 3278, "pitch": 67, "duration": 6, "velocity": 119}, {"time": 3284, "pitch": 64, "duration": 6, "velocity": 108}, {"time": 3290, "pitch": 64, "duration": 3, "velocity": 110}, {"time": 3293, "pitch": 67, "duration": 6, "velocity": 108}, {"time": 3299, "pitch": 69, "duration": 45, "velocity": 110}, {"time": 3344, "pitch": 67, "duration": 54, "velocity": 116}]}, {"program": 0, "is_drum": false, "name": "BRIDGE", "notes": [{"time": 68, "pitch": 62, "duration": 59, "velocity": 98}, {"time": 128, "pitch": 60, "duration": 3, "velocity": 92}, {"time": 130, "pitch": 59, "duration": 4, "velocity": 96}, {"time": 134, "pitch": 55, "duration": 32, "velocity": 100}, {"time": 1010, "pitch": 67, "duration": 12, "velocity": 98}, {"time": 1022, "pitch": 71, "duration": 12, "velocity": 116}, {"time": 1034, "pitch": 74, "duration": 12, "velocity": 119}, {"time": 1046, "pitch": 74, "duration": 12, "velocity": 119}, {"time": 1058, "pitch": 76, "duration": 12, "velocity": 110}, {"time": 1070, "pitch": 79, "duration": 12, "velocity": 114}, {"time": 1082, "pitch": 81, "duration": 12, "velocity": 119}, {"time": 1094, "pitch": 83, "duration": 48, "velocity": 116}, {"time": 1142, "pitch": 81, "duration": 48, "velocity": 113}, {"time": 1190, "pitch": 79, "duration": 48, "velocity": 119}, {"time": 1238, "pitch": 78, "duration": 27, "velocity": 116}, {"time": 1454, "pitch": 67, "duration": 12, "velocity": 116}, {"time": 1466, "pitch": 69, "duration": 12, "velocity": 116}, {"time": 1478, "pitch": 71, "duration": 48, "velocity": 116}, {"time": 1526, "pitch": 69, "duration": 48, "velocity": 108}, {"time": 1934, "pitch": 62, "duration": 12, "velocity": 116}, {"time": 1946, "pitch": 66, "duration": 12, "velocity": 119}, {"time": 1958, "pitch": 67, "duration": 36, "velocity": 120}, {"time": 1994, "pitch": 69, "duration": 12, "velocity": 116}, {"time": 2006, "pitch": 71, "duration": 21, "velocity": 117}, {"time": 2024, "pitch": 69, "duration": 12, "velocity": 108}, {"time": 2036, "pitch": 62, "duration": 6, "velocity": 104}, {"time": 2042, "pitch": 67, "duration": 6, "velocity": 114}, {"time": 2048, "pitch": 69, "duration": 6, "velocity": 113}, {"time": 2054, "pitch": 70, "duration": 18, "velocity": 119}, {"time": 2072, "pitch": 69, "duration": 30, "velocity": 116}, {"time": 2156, "pitch": 62, "duration": 6, "velocity": 83}, {"time": 2162, "pitch": 66, "duration": 6, "velocity": 89}, {"time": 2168, "pitch": 71, "duration": 12, "velocity": 100}, {"time": 2180, "pitch": 74, "duration": 6, "velocity": 85}, {"time": 2186, "pitch": 79, "duration": 6, "velocity": 88}, {"time": 2192, "pitch": 86, "duration": 6, "velocity": 88}, {"time": 2282, "pitch": 79, "duration": 6, "velocity": 102}, {"time": 2288, "pitch": 74, "duration": 6, "velocity": 104}, {"time": 2294, "pitch": 67, "duration": 48, "velocity": 107}, {"time": 2342, "pitch": 71, "duration": 12, "velocity": 107}, {"time": 2354, "pitch": 69, "duration": 12, "velocity": 100}, {"time": 2366, "pitch": 67, "duration": 24, "velocity": 98}, {"time": 2426, "pitch": 62, "duration": 14, "velocity": 93}, {"time": 2438, "pitch": 63, "duration": 12, "velocity": 106}, {"time": 2450, "pitch": 65, "duration": 12, "velocity": 88}, {"time": 2462, "pitch": 67, "duration": 12, "velocity": 90}, {"time": 2474, "pitch": 72, "duration": 12, "velocity": 114}, {"time": 2486, "pitch": 71, "duration": 36, "velocity": 110}, {"time": 2522, "pitch": 59, "duration": 6, "velocity": 91}, {"time": 2528, "pitch": 62, "duration": 6, "velocity": 91}, {"time": 2534, "pitch": 67, "duration": 18, "velocity": 93}, {"time": 2552, "pitch": 69, "duration": 174, "velocity": 108}, {"time": 2726, "pitch": 71, "duration": 12, "velocity": 93}, {"time": 2738, "pitch": 66, "duration": 12, "velocity": 91}, {"time": 2750, "pitch": 67, "duration": 36, "velocity": 90}, {"time": 2846, "pitch": 69, "duration": 6, "velocity": 104}, {"time": 2852, "pitch": 71, "duration": 6, "velocity": 102}, {"time": 2858, "pitch": 74, "duration": 6, "velocity": 96}, {"time": 2864, "pitch": 79, "duration": 6, "velocity": 102}, {"time": 2870, "pitch": 76, "duration": 25, "velocity": 107}, {"time": 2894, "pitch": 79, "duration": 12, "velocity": 110}, {"time": 2906, "pitch": 83, "duration": 12, "velocity": 114}, {"time": 2918, "pitch": 81, "duration": 27, "velocity": 117}, {"time": 2945, "pitch": 67, "duration": 9, "velocity": 89}, {"time": 2954, "pitch": 67, "duration": 3, "velocity": 88}, {"time": 2957, "pitch": 69, "duration": 3, "velocity": 88}, {"time": 2960, "pitch": 71, "duration": 3, "velocity": 87}, {"time": 2963, "pitch": 74, "duration": 3, "velocity": 87}, {"time": 2966, "pitch": 79, "duration": 18, "velocity": 89}]}, {"program": 0, "is_drum": false, "name": "PIANO", "notes": [{"time": 38, "pitch": 55, "duration": 44, "velocity": 100}, {"time": 44, "pitch": 62, "duration": 43, "velocity": 82}, {"time": 50, "pitch": 67, "duration": 6, "velocity": 87}, {"time": 56, "pitch": 71, "duration": 17, "velocity": 98}, {"time": 86, "pitch": 55, "duration": 33, "velocity": 108}, {"time": 92, "pitch": 59, "duration": 37, "velocity": 86}, {"time": 98, "pitch": 62, "duration": 6, "velocity": 104}, {"time": 104, "pitch": 67, "duration": 24, "velocity": 114}, {"time": 122, "pitch": 55, "duration": 6, "velocity": 86}, {"time": 134, "pitch": 55, "duration": 45, "velocity": 108}, {"time": 140, "pitch": 59, "duration": 6, "velocity": 100}, {"time": 146, "pitch": 62, "duration": 5, "velocity": 113}, {"time": 152, "pitch": 67, "duration": 30, "velocity": 116}, {"time": 170, "pitch": 62, "duration": 13, "velocity": 87}, {"time": 182, "pitch": 55, "duration": 29, "velocity": 91}, {"time": 188, "pitch": 59, "duration": 6, "velocity": 86}, {"time": 194, "pitch": 62, "duration": 6, "velocity": 86}, {"time": 200, "pitch": 67, "duration": 30, "velocity": 114}, {"time": 218, "pitch": 55, "duration": 10, "velocity": 84}, {"time": 230, "pitch": 55, "duration": 45, "velocity": 107}, {"time": 236, "pitch": 59, "duration": 26, "velocity": 77}, {"time": 242, "pitch": 62, "duration": 26, "velocity": 90}, {"time": 248, "pitch": 67, "duration": 15, "velocity": 93}, {"time": 266, "pitch": 59, "duration": 7, "velocity": 80}, {"time": 266, "pitch": 67, "duration": 8, "velocity": 40}, {"time": 278, "pitch": 54, "duration": 47, "velocity": 88}, {"time": 284, "pitch": 62, "duration": 14, "velocity": 84}, {"time": 290, "pitch": 66, "duration": 7, "velocity": 83}, {"time": 296, "pitch": 69, "duration": 17, "velocity": 98}, {"time": 308, "pitch": 62, "duration": 11, "velocity": 77}, {"time": 314, "pitch": 64, "duration": 5, "velocity": 84}, {"time": 320, "pitch": 69, "duration": 6, "velocity": 84}, {"time": 326, "pitch": 52, "duration": 43, "velocity": 85}, {"time": 326, "pitch": 67, "duration": 11, "velocity": 86}, {"time": 332, "pitch": 59, "duration": 37, "velocity": 73}, {"time": 338, "pitch": 64, "duration": 6, "velocity": 82}, {"time": 344, "pitch": 62, "duration": 16, "velocity": 86}, {"time": 344, "pitch": 67, "duration": 17, "velocity": 86}, {"time": 362, "pitch": 62, "duration": 10, "velocity": 82}, {"time": 362, "pitch": 67, "duration": 11, "velocity": 83}, {"time": 374, "pitch": 50, "duration": 47, "velocity": 85}, {"time": 374, "pitch": 62, "duration": 12, "velocity": 86}, {"time": 374, "pitch": 66, "duration": 10, "velocity": 87}, {"time": 380, "pitch": 57, "duration": 19, "velocity": 70}, {"time": 386, "pitch": 64, "duration": 5, "velocity": 81}, {"time": 392, "pitch": 62, "duration": 13, "velocity": 85}, {"time": 392, "pitch": 66, "duration": 13, "velocity": 103}, {"time": 404, "pitch": 57, "duration": 10, "velocity": 79}, {"time": 410, "pitch": 62, "duration": 7, "velocity": 100}, {"time": 410, "pitch": 66, "duration": 11, "velocity": 113}, {"time": 422, "pitch": 48, "duration": 41, "velocity": 87}, {"time": 422, "pitch": 60, "duration": 5, "velocity": 86}, {"time": 422, "pitch": 67, "duration": 11, "velocity": 89}, {"time": 428, "pitch": 55, "duration": 35, "velocity": 71}, {"time": 434, "pitch": 60, "duration": 13, "velocity": 79}, {"time": 440, "pitch": 64, "duration": 11, "velocity": 88}, {"time": 440, "pitch": 72, "duration": 10, "velocity": 88}, {"time": 452, "pitch": 60, "duration": 9, "velocity": 76}, {"time": 458, "pitch": 64, "duration": 11, "velocity": 93}, {"time": 458, "pitch": 67, "duration": 11, "velocity": 98}, {"time": 470, "pitch": 55, "duration": 28, "velocity": 87}, {"time": 476, "pitch": 59, "duration": 26, "velocity": 73}, {"time": 482, "pitch": 67, "duration": 20, "velocity": 83}, {"time": 488, "pitch": 62, "duration": 15, "velocity": 86}, {"time": 500, "pitch": 55, "duration": 15, "velocity": 77}, {"time": 506, "pitch": 59, "duration": 9, "velocity": 87}, {"time": 512, "pitch": 62, "duration": 6, "velocity": 84}, {"time": 518, "pitch": 45, "duration": 37, "velocity": 94}, {"time": 524, "pitch": 52, "duration": 30, "velocity": 82}, {"time": 530, "pitch": 57, "duration": 24, "velocity": 85}, {"time": 536, "pitch": 60, "duration": 11, "velocity": 87}, {"time": 554, "pitch": 49, "duration": 6, "velocity": 78}, {"time": 554, "pitch": 61, "duration": 12, "velocity": 86}, {"time": 554, "pitch": 69, "duration": 17, "velocity": 84}, {"time": 566, "pitch": 50, "duration": 42, "velocity": 91}, {"time": 572, "pitch": 57, "duration": 23, "velocity": 83}, {"time": 578, "pitch": 62, "duration": 25, "velocity": 87}, {"time": 584, "pitch": 67, "duration": 6, "velocity": 88}, {"time": 590, "pitch": 66, "duration": 24, "velocity": 86}, {"time": 602, "pitch": 57, "duration": 5, "velocity": 84}, {"time": 608, "pitch": 62, "duration": 7, "velocity": 82}, {"time": 614, "pitch": 43, "duration": 41, "velocity": 93}, {"time": 620, "pitch": 50, "duration": 38, "velocity": 75}, {"time": 626, "pitch": 55, "duration": 19, "velocity": 86}, {"time": 632, "pitch": 59, "duration": 13, "velocity": 87}, {"time": 632, "pitch": 67, "duration": 20, "velocity": 88}, {"time": 644, "pitch": 62, "duration": 23, "velocity": 84}, {"time": 650, "pitch": 55, "duration": 5, "velocity": 86}, {"time": 656, "pitch": 59, "duration": 9, "velocity": 81}, {"time": 656, "pitch": 67, "duration": 11, "velocity": 84}, {"time": 662, "pitch": 42, "duration": 40, "velocity": 85}, {"time": 668, "pitch": 50, "duration": 35, "velocity": 78}, {"time": 674, "pitch": 54, "duration": 12, "velocity": 83}, {"time": 680, "pitch": 57, "duration": 19, "velocity": 92}, {"time": 680, "pitch": 66, "duration": 18, "velocity": 87}, {"time": 692, "pitch": 62, "duration": 17, "velocity": 86}, {"time": 698, "pitch": 54, "duration": 5, "velocity": 97}, {"time": 704, "pitch": 57, "duration": 5, "velocity": 88}, {"time": 710, "pitch": 52, "duration": 42, "velocity": 88}, {"time": 710, "pitch": 64, "duration": 6, "velocity": 85}, {"time": 716, "pitch": 59, "duration": 20, "velocity": 83}, {"time": 722, "pitch": 62, "duration": 6, "velocity": 87}, {"time": 722, "pitch": 67, "duration": 18, "velocity": 90}, {"time": 728, "pitch": 64, "duration": 13, "velocity": 88}, {"time": 740, "pitch": 59, "duration": 6, "velocity": 88}, {"time": 746, "pitch": 62, "duration": 6, "velocity": 96}, {"time": 746, "pitch": 67, "duration": 5, "velocity": 98}, {"time": 752, "pitch": 59, "duration": 6, "velocity": 81}, {"time": 752, "pitch": 64, "duration": 6, "velocity": 81}, {"time": 758, "pitch": 50, "duration": 42, "velocity": 85}, {"time": 758, "pitch": 62, "duration": 6, "velocity": 85}, {"time": 758, "pitch": 66, "duration": 6, "velocity": 86}, {"time": 764, "pitch": 57, "duration": 17, "velocity": 79}, {"time": 770, "pitch": 62, "duration": 19, "velocity": 89}, {"time": 770, "pitch": 69, "duration": 18, "velocity": 104}, {"time": 788, "pitch": 57, "duration": 11, "velocity": 74}, {"time": 791, "pitch": 62, "duration": 2, "velocity": 82}, {"time": 794, "pitch": 67, "duration": 5, "velocity": 114}, {"time": 800, "pitch": 69, "duration": 7, "velocity": 86}, {"time": 806, "pitch": 48, "duration": 21, "velocity": 88}, {"time": 806, "pitch": 64, "duration": 12, "velocity": 91}, {"time": 806, "pitch": 67, "duration": 12, "velocity": 92}, {"time": 812, "pitch": 55, "duration": 14, "velocity": 70}, {"time": 818, "pitch": 60, "duration": 6, "velocity": 86}, {"time": 821, "pitch": 67, "duration": 8, "velocity": 108}, {"time": 830, "pitch": 48, "duration": 22, "velocity": 86}, {"time": 830, "pitch": 62, "duration": 10, "velocity": 87}, {"time": 830, "pitch": 66, "duration": 9, "velocity": 90}, {"time": 830, "pitch": 69, "duration": 9, "velocity": 88}, {"time": 842, "pitch": 62, "duration": 9, "velocity": 91}, {"time": 842, "pitch": 66, "duration": 9, "velocity": 91}, {"time": 842, "pitch": 69, "duration": 9, "velocity": 91}, {"time": 854, "pitch": 55, "duration": 11, "velocity": 84}, {"time": 854, "pitch": 59, "duration": 8, "velocity": 93}, {"time": 854, "pitch": 62, "duration": 9, "velocity": 100}, {"time": 854, "pitch": 67, "duration": 9, "velocity": 92}, {"time": 866, "pitch": 54, "duration": 11, "velocity": 85}, {"time": 866, "pitch": 62, "duration": 10, "velocity": 104}, {"time": 866, "pitch": 66, "duration": 10, "velocity": 91}, {"time": 878, "pitch": 52, "duration": 23, "velocity": 89}, {"time": 878, "pitch": 64, "duration": 6, "velocity": 89}, {"time": 878, "pitch": 67, "duration": 7, "velocity": 91}, {"time": 884, "pitch": 59, "duration": 10, "velocity": 85}, {"time": 890, "pitch": 64, "duration": 10, "velocity": 93}, {"time": 890, "pitch": 67, "duration": 9, "velocity": 108}, {"time": 902, "pitch": 48, "duration": 43, "velocity": 88}, {"time": 902, "pitch": 60, "duration": 4, "velocity": 88}, {"time": 902, "pitch": 64, "duration": 10, "velocity": 90}, {"time": 902, "pitch": 67, "duration": 7, "velocity": 93}, {"time": 908, "pitch": 55, "duration": 40, "velocity": 77}, {"time": 914, "pitch": 62, "duration": 5, "velocity": 98}, {"time": 914, "pitch": 67, "duration": 6, "velocity": 94}, {"time": 920, "pitch": 60, "duration": 11, "velocity": 79}, {"time": 926, "pitch": 64, "duration": 13, "velocity": 90}, {"time": 926, "pitch": 72, "duration": 14, "velocity": 92}, {"time": 938, "pitch": 60, "duration": 7, "velocity": 88}, {"time": 941, "pitch": 67, "duration": 3, "velocity": 90}, {"time": 944, "pitch": 72, "duration": 5, "velocity": 102}, {"time": 950, "pitch": 48, "duration": 43, "velocity": 89}, {"time": 950, "pitch": 63, "duration": 10, "velocity": 103}, {"time": 950, "pitch": 72, "duration": 9, "velocity": 96}, {"time": 959, "pitch": 55, "duration": 35, "velocity": 32}, {"time": 962, "pitch": 63, "duration": 11, "velocity": 93}, {"time": 962, "pitch": 72, "duration": 9, "velocity": 98}, {"time": 971, "pitch": 60, "duration": 9, "velocity": 83}, {"time": 974, "pitch": 67, "duration": 6, "velocity": 91}, {"time": 980, "pitch": 63, "duration": 4, "velocity": 89}, {"time": 980, "pitch": 72, "duration": 4, "velocity": 84}, {"time": 983, "pitch": 60, "duration": 9, "velocity": 86}, {"time": 986, "pitch": 63, "duration": 6, "velocity": 100}, {"time": 986, "pitch": 72, "duration": 10, "velocity": 89}, {"time": 992, "pitch": 67, "duration": 5, "velocity": 83}, {"time": 998, "pitch": 43, "duration": 43, "velocity": 89}, {"time": 998, "pitch": 59, "duration": 8, "velocity": 102}, {"time": 998, "pitch": 67, "duration": 8, "velocity": 96}, {"time": 1004, "pitch": 50, "duration": 41, "velocity": 70}, {"time": 1007, "pitch": 55, "duration": 6, "velocity": 81}, {"time": 1010, "pitch": 62, "duration": 9, "velocity": 110}, {"time": 1010, "pitch": 67, "duration": 8, "velocity": 98}, {"time": 1019, "pitch": 55, "duration": 5, "velocity": 87}, {"time": 1022, "pitch": 60, "duration": 7, "velocity": 110}, {"time": 1028, "pitch": 55, "duration": 6, "velocity": 88}, {"time": 1034, "pitch": 62, "duration": 6, "velocity": 114}, {"time": 1040, "pitch": 55, "duration": 4, "velocity": 87}, {"time": 1046, "pitch": 43, "duration": 43, "velocity": 100}, {"time": 1046, "pitch": 59, "duration": 5, "velocity": 92}, {"time": 1046, "pitch": 62, "duration": 8, "velocity": 110}, {"time": 1046, "pitch": 67, "duration": 4, "velocity": 102}, {"time": 1052, "pitch": 50, "duration": 38, "velocity": 87}, {"time": 1055, "pitch": 55, "duration": 9, "velocity": 113}, {"time": 1058, "pitch": 59, "duration": 5, "velocity": 113}, {"time": 1058, "pitch": 67, "duration": 13, "velocity": 110}, {"time": 1064, "pitch": 62, "duration": 8, "velocity": 91}, {"time": 1070, "pitch": 55, "duration": 7, "velocity": 108}, {"time": 1076, "pitch": 62, "duration": 10, "velocity": 110}, {"time": 1076, "pitch": 67, "duration": 9, "velocity": 94}, {"time": 1082, "pitch": 55, "duration": 7, "velocity": 108}, {"time": 1088, "pitch": 62, "duration": 4, "velocity": 102}, {"time": 1088, "pitch": 67, "duration": 1, "velocity": 87}, {"time": 1094, "pitch": 43, "duration": 38, "velocity": 94}, {"time": 1094, "pitch": 59, "duration": 2, "velocity": 100}, {"time": 1094, "pitch": 62, "duration": 4, "velocity": 110}, {"time": 1094, "pitch": 67, "duration": 5, "velocity": 104}, {"time": 1100, "pitch": 50, "duration": 33, "velocity": 74}, {"time": 1106, "pitch": 62, "duration": 5, "velocity": 100}, {"time": 1106, "pitch": 67, "duration": 6, "velocity": 96}, {"time": 1106, "pitch": 71, "duration": 6, "velocity": 100}, {"time": 1112, "pitch": 55, "duration": 8, "velocity": 87}, {"time": 1118, "pitch": 62, "duration": 9, "velocity": 93}, {"time": 1118, "pitch": 67, "duration": 9, "velocity": 102}, {"time": 1118, "pitch": 71, "duration": 9, "velocity": 98}, {"time": 1127, "pitch": 55, "duration": 9, "velocity": 91}, {"time": 1130, "pitch": 62, "duration": 4, "velocity": 107}, {"time": 1133, "pitch": 67, "duration": 2, "velocity": 87}, {"time": 1136, "pitch": 71, "duration": 4, "velocity": 102}, {"time": 1142, "pitch": 54, "duration": 16, "velocity": 95}, {"time": 1142, "pitch": 62, "duration": 9, "velocity": 88}, {"time": 1142, "pitch": 66, "duration": 10, "velocity": 90}, {"time": 1142, "pitch": 69, "duration": 9, "velocity": 91}, {"time": 1154, "pitch": 62, "duration": 7, "velocity": 98}, {"time": 1154, "pitch": 66, "duration": 7, "velocity": 113}, {"time": 1154, "pitch": 69, "duration": 7, "velocity": 110}, {"time": 1160, "pitch": 54, "duration": 11, "velocity": 85}, {"time": 1163, "pitch": 62, "duration": 1, "velocity": 91}, {"time": 1163, "pitch": 66, "duration": 1, "velocity": 93}, {"time": 1163, "pitch": 69, "duration": 1, "velocity": 96}, {"time": 1169, "pitch": 62, "duration": 6, "velocity": 102}, {"time": 1169, "pitch": 66, "duration": 6, "velocity": 113}, {"time": 1169, "pitch": 69, "duration": 5, "velocity": 107}, {"time": 1175, "pitch": 54, "duration": 3, "velocity": 119}, {"time": 1178, "pitch": 62, "duration": 6, "velocity": 113}, {"time": 1178, "pitch": 66, "duration": 8, "velocity": 119}, {"time": 1178, "pitch": 69, "duration": 7, "velocity": 116}, {"time": 1184, "pitch": 54, "duration": 6, "velocity": 113}, {"time": 1190, "pitch": 52, "duration": 43, "velocity": 91}, {"time": 1190, "pitch": 64, "duration": 9, "velocity": 96}, {"time": 1190, "pitch": 67, "duration": 8, "velocity": 108}, {"time": 1190, "pitch": 71, "duration": 8, "velocity": 102}, {"time": 1199, "pitch": 59, "duration": 7, "velocity": 83}, {"time": 1202, "pitch": 64, "duration": 10, "velocity": 107}, {"time": 1202, "pitch": 67, "duration": 5, "velocity": 110}, {"time": 1202, "pitch": 71, "duration": 10, "velocity": 108}, {"time": 1208, "pitch": 59, "duration": 7, "velocity": 80}, {"time": 1214, "pitch": 64, "duration": 7, "velocity": 102}, {"time": 1214, "pitch": 67, "duration": 6, "velocity": 100}, {"time": 1214, "pitch": 71, "duration": 6, "velocity": 100}, {"time": 1220, "pitch": 59, "duration": 7, "velocity": 86}, {"time": 1223, "pitch": 62, "duration": 1, "velocity": 87}, {"time": 1226, "pitch": 62, "duration": 4, "velocity": 100}, {"time": 1226, "pitch": 67, "duration": 4, "velocity": 107}, {"time": 1226, "pitch": 71, "duration": 3, "velocity": 102}, {"time": 1229, "pitch": 59, "duration": 4, "velocity": 89}, {"time": 1232, "pitch": 64, "duration": 3, "velocity": 104}, {"time": 1232, "pitch": 67, "duration": 3, "velocity": 100}, {"time": 1232, "pitch": 71, "duration": 2, "velocity": 89}, {"time": 1238, "pitch": 50, "duration": 47, "velocity": 91}, {"time": 1238, "pitch": 62, "duration": 9, "velocity": 89}, {"time": 1238, "pitch": 69, "duration": 9, "velocity": 92}, {"time": 1247, "pitch": 57, "duration": 13, "velocity": 86}, {"time": 1250, "pitch": 62, "duration": 8, "velocity": 96}, {"time": 1250, "pitch": 69, "duration": 6, "velocity": 104}, {"time": 1256, "pitch": 66, "duration": 2, "velocity": 87}, {"time": 1259, "pitch": 62, "duration": 4, "velocity": 94}, {"time": 1259, "pitch": 69, "duration": 5, "velocity": 113}, {"time": 1262, "pitch": 57, "duration": 7, "velocity": 91}, {"time": 1268, "pitch": 62, "duration": 4, "velocity": 88}, {"time": 1268, "pitch": 69, "duration": 3, "velocity": 86}, {"time": 1271, "pitch": 57, "duration": 6, "velocity": 113}, {"time": 1274, "pitch": 62, "duration": 5, "velocity": 107}, {"time": 1274, "pitch": 69, "duration": 3, "velocity": 108}, {"time": 1277, "pitch": 66, "duration": 2, "velocity": 103}, {"time": 1280, "pitch": 67, "duration": 4, "velocity": 96}, {"time": 1286, "pitch": 48, "duration": 42, "velocity": 89}, {"time": 1286, "pitch": 60, "duration": 1, "velocity": 81}, {"time": 1286, "pitch": 64, "duration": 8, "velocity": 93}, {"time": 1286, "pitch": 72, "duration": 8, "velocity": 108}, {"time": 1295, "pitch": 60, "duration": 6, "velocity": 76}, {"time": 1298, "pitch": 64, "duration": 9, "velocity": 104}, {"time": 1298, "pitch": 72, "duration": 9, "velocity": 104}, {"time": 1304, "pitch": 60, "duration": 12, "velocity": 77}, {"time": 1307, "pitch": 67, "duration": 1, "velocity": 88}, {"time": 1313, "pitch": 64, "duration": 6, "velocity": 91}, {"time": 1313, "pitch": 72, "duration": 6, "velocity": 87}, {"time": 1319, "pitch": 60, "duration": 8, "velocity": 89}, {"time": 1322, "pitch": 64, "duration": 6, "velocity": 104}, {"time": 1322, "pitch": 72, "duration": 12, "velocity": 91}, {"time": 1328, "pitch": 67, "duration": 5, "velocity": 86}, {"time": 1331, "pitch": 64, "duration": 3, "velocity": 83}, {"time": 1334, "pitch": 43, "duration": 44, "velocity": 91}, {"time": 1334, "pitch": 62, "duration": 7, "velocity": 113}, {"time": 1334, "pitch": 67, "duration": 9, "velocity": 98}, {"time": 1340, "pitch": 55, "duration": 8, "velocity": 76}, {"time": 1346, "pitch": 62, "duration": 8, "velocity": 96}, {"time": 1346, "pitch": 67, "duration": 9, "velocity": 102}, {"time": 1355, "pitch": 55, "duration": 6, "velocity": 78}, {"time": 1358, "pitch": 62, "duration": 8, "velocity": 107}, {"time": 1358, "pitch": 67, "duration": 8, "velocity": 113}, {"time": 1367, "pitch": 55, "duration": 3, "velocity": 91}, {"time": 1370, "pitch": 62, "duration": 5, "velocity": 114}, {"time": 1370, "pitch": 67, "duration": 4, "velocity": 116}, {"time": 1373, "pitch": 55, "duration": 5, "velocity": 94}, {"time": 1376, "pitch": 67, "duration": 5, "velocity": 102}, {"time": 1382, "pitch": 45, "duration": 42, "velocity": 86}, {"time": 1382, "pitch": 60, "duration": 7, "velocity": 93}, {"time": 1382, "pitch": 64, "duration": 7, "velocity": 102}, {"time": 1382, "pitch": 69, "duration": 7, "velocity": 89}, {"time": 1391, "pitch": 57, "duration": 5, "velocity": 42}, {"time": 1394, "pitch": 60, "duration": 7, "velocity": 96}, {"time": 1394, "pitch": 64, "duration": 8, "velocity": 113}, {"time": 1394, "pitch": 69, "duration": 8, "velocity": 100}, {"time": 1403, "pitch": 57, "duration": 5, "velocity": 81}, {"time": 1406, "pitch": 60, "duration": 2, "velocity": 104}, {"time": 1406, "pitch": 64, "duration": 8, "velocity": 116}, {"time": 1406, "pitch": 69, "duration": 8, "velocity": 104}, {"time": 1415, "pitch": 57, "duration": 4, "velocity": 91}, {"time": 1418, "pitch": 64, "duration": 10, "velocity": 119}, {"time": 1418, "pitch": 69, "duration": 10, "velocity": 113}, {"time": 1424, "pitch": 57, "duration": 4, "velocity": 91}, {"time": 1430, "pitch": 50, "duration": 43, "velocity": 91}, {"time": 1430, "pitch": 62, "duration": 3, "velocity": 96}, {"time": 1430, "pitch": 66, "duration": 5, "velocity": 109}, {"time": 1430, "pitch": 69, "duration": 5, "velocity": 93}, {"time": 1436, "pitch": 57, "duration": 18, "velocity": 82}, {"time": 1439, "pitch": 62, "duration": 4, "velocity": 87}, {"time": 1442, "pitch": 66, "duration": 5, "velocity": 109}, {"time": 1442, "pitch": 74, "duration": 4, "velocity": 104}, {"time": 1448, "pitch": 62, "duration": 2, "velocity": 88}, {"time": 1454, "pitch": 62, "duration": 3, "velocity": 102}, {"time": 1454, "pitch": 66, "duration": 4, "velocity": 103}, {"time": 1454, "pitch": 69, "duration": 4, "velocity": 108}, {"time": 1460, "pitch": 57, "duration": 4, "velocity": 83}, {"time": 1463, "pitch": 66, "duration": 5, "velocity": 97}, {"time": 1463, "pitch": 74, "duration": 5, "velocity": 94}, {"time": 1466, "pitch": 57, "duration": 4, "velocity": 64}, {"time": 1469, "pitch": 66, "duration": 2, "velocity": 100}, {"time": 1469, "pitch": 74, "duration": 2, "velocity": 104}, {"time": 1478, "pitch": 43, "duration": 42, "velocity": 88}, {"time": 1478, "pitch": 62, "duration": 5, "velocity": 94}, {"time": 1478, "pitch": 67, "duration": 7, "velocity": 110}, {"time": 1478, "pitch": 71, "duration": 6, "velocity": 98}, {"time": 1484, "pitch": 55, "duration": 6, "velocity": 68}, {"time": 1490, "pitch": 62, "duration": 7, "velocity": 89}, {"time": 1490, "pitch": 67, "duration": 7, "velocity": 89}, {"time": 1490, "pitch": 71, "duration": 7, "velocity": 86}, {"time": 1496, "pitch": 55, "duration": 10, "velocity": 81}, {"time": 1499, "pitch": 62, "duration": 1, "velocity": 88}, {"time": 1499, "pitch": 67, "duration": 1, "velocity": 96}, {"time": 1499, "pitch": 71, "duration": 1, "velocity": 88}, {"time": 1505, "pitch": 62, "duration": 6, "velocity": 91}, {"time": 1505, "pitch": 67, "duration": 6, "velocity": 96}, {"time": 1505, "pitch": 71, "duration": 6, "velocity": 94}, {"time": 1511, "pitch": 55, "duration": 4, "velocity": 91}, {"time": 1514, "pitch": 62, "duration": 5, "velocity": 110}, {"time": 1514, "pitch": 71, "duration": 5, "velocity": 107}, {"time": 1520, "pitch": 67, "duration": 4, "velocity": 100}, {"time": 1520, "pitch": 71, "duration": 2, "velocity": 81}, {"time": 1526, "pitch": 42, "duration": 40, "velocity": 86}, {"time": 1526, "pitch": 54, "duration": 13, "velocity": 85}, {"time": 1526, "pitch": 62, "duration": 8, "velocity": 89}, {"time": 1526, "pitch": 66, "duration": 8, "velocity": 100}, {"time": 1526, "pitch": 69, "duration": 9, "velocity": 92}, {"time": 1538, "pitch": 62, "duration": 6, "velocity": 102}, {"time": 1538, "pitch": 66, "duration": 7, "velocity": 113}, {"time": 1538, "pitch": 69, "duration": 6, "velocity": 107}, {"time": 1544, "pitch": 54, "duration": 9, "velocity": 86}, {"time": 1547, "pitch": 62, "duration": 1, "velocity": 92}, {"time": 1547, "pitch": 66, "duration": 1, "velocity": 97}, {"time": 1547, "pitch": 69, "duration": 1, "velocity": 98}, {"time": 1553, "pitch": 62, "duration": 6, "velocity": 98}, {"time": 1553, "pitch": 69, "duration": 6, "velocity": 110}, {"time": 1559, "pitch": 54, "duration": 3, "velocity": 113}, {"time": 1562, "pitch": 62, "duration": 4, "velocity": 113}, {"time": 1562, "pitch": 69, "duration": 4, "velocity": 113}, {"time": 1565, "pitch": 54, "duration": 3, "velocity": 113}, {"time": 1568, "pitch": 62, "duration": 1, "velocity": 84}, {"time": 1568, "pitch": 66, "duration": 3, "velocity": 119}, {"time": 1571, "pitch": 69, "duration": 2, "velocity": 88}, {"time": 1574, "pitch": 52, "duration": 43, "velocity": 89}, {"time": 1574, "pitch": 64, "duration": 8, "velocity": 91}, {"time": 1574, "pitch": 67, "duration": 9, "velocity": 110}, {"time": 1574, "pitch": 71, "duration": 7, "velocity": 93}, {"time": 1586, "pitch": 64, "duration": 9, "velocity": 100}, {"time": 1586, "pitch": 67, "duration": 9, "velocity": 110}, {"time": 1586, "pitch": 71, "duration": 7, "velocity": 98}, {"time": 1595, "pitch": 59, "duration": 8, "velocity": 87}, {"time": 1598, "pitch": 64, "duration": 9, "velocity": 94}, {"time": 1598, "pitch": 67, "duration": 9, "velocity": 102}, {"time": 1598, "pitch": 71, "duration": 8, "velocity": 91}, {"time": 1607, "pitch": 59, "duration": 4, "velocity": 87}, {"time": 1610, "pitch": 64, "duration": 7, "velocity": 96}, {"time": 1610, "pitch": 67, "duration": 10, "velocity": 107}, {"time": 1610, "pitch": 71, "duration": 7, "velocity": 96}, {"time": 1616, "pitch": 59, "duration": 6, "velocity": 82}, {"time": 1622, "pitch": 47, "duration": 42, "velocity": 88}, {"time": 1622, "pitch": 62, "duration": 7, "velocity": 92}, {"time": 1622, "pitch": 66, "duration": 7, "velocity": 103}, {"time": 1622, "pitch": 69, "duration": 7, "velocity": 102}, {"time": 1628, "pitch": 54, "duration": 37, "velocity": 67}, {"time": 1634, "pitch": 62, "duration": 5, "velocity": 89}, {"time": 1634, "pitch": 69, "duration": 5, "velocity": 93}, {"time": 1640, "pitch": 59, "duration": 11, "velocity": 86}, {"time": 1646, "pitch": 62, "duration": 8, "velocity": 89}, {"time": 1646, "pitch": 66, "duration": 1, "velocity": 95}, {"time": 1646, "pitch": 69, "duration": 8, "velocity": 93}, {"time": 1652, "pitch": 66, "duration": 3, "velocity": 86}, {"time": 1655, "pitch": 59, "duration": 10, "velocity": 104}, {"time": 1658, "pitch": 62, "duration": 10, "velocity": 114}, {"time": 1658, "pitch": 69, "duration": 6, "velocity": 110}, {"time": 1664, "pitch": 66, "duration": 7, "velocity": 100}, {"time": 1670, "pitch": 48, "duration": 39, "velocity": 98}, {"time": 1670, "pitch": 64, "duration": 10, "velocity": 107}, {"time": 1670, "pitch": 67, "duration": 7, "velocity": 108}, {"time": 1676, "pitch": 55, "duration": 33, "velocity": 74}, {"time": 1682, "pitch": 62, "duration": 8, "velocity": 93}, {"time": 1682, "pitch": 67, "duration": 8, "velocity": 102}, {"time": 1694, "pitch": 64, "duration": 6, "velocity": 113}, {"time": 1694, "pitch": 67, "duration": 6, "velocity": 113}, {"time": 1700, "pitch": 60, "duration": 7, "velocity": 86}, {"time": 1706, "pitch": 64, "duration": 6, "velocity": 114}, {"time": 1706, "pitch": 67, "duration": 9, "velocity": 114}, {"time": 1712, "pitch": 48, "duration": 1, "velocity": 86}, {"time": 1718, "pitch": 43, "duration": 20, "velocity": 87}, {"time": 1718, "pitch": 59, "duration": 6, "velocity": 96}, {"time": 1718, "pitch": 62, "duration": 8, "velocity": 108}, {"time": 1718, "pitch": 67, "duration": 6, "velocity": 92}, {"time": 1724, "pitch": 55, "duration": 6, "velocity": 69}, {"time": 1730, "pitch": 62, "duration": 9, "velocity": 113}, {"time": 1730, "pitch": 67, "duration": 8, "velocity": 96}, {"time": 1736, "pitch": 55, "duration": 1, "velocity": 84}, {"time": 1742, "pitch": 40, "duration": 18, "velocity": 88}, {"time": 1748, "pitch": 52, "duration": 8, "velocity": 89}, {"time": 1754, "pitch": 59, "duration": 5, "velocity": 107}, {"time": 1754, "pitch": 64, "duration": 7, "velocity": 108}, {"time": 1754, "pitch": 67, "duration": 7, "velocity": 102}, {"time": 1760, "pitch": 52, "duration": 2, "velocity": 88}, {"time": 1766, "pitch": 48, "duration": 43, "velocity": 98}, {"time": 1766, "pitch": 60, "duration": 4, "velocity": 90}, {"time": 1766, "pitch": 64, "duration": 5, "velocity": 98}, {"time": 1766, "pitch": 67, "duration": 4, "velocity": 92}, {"time": 1778, "pitch": 60, "duration": 8, "velocity": 90}, {"time": 1778, "pitch": 64, "duration": 8, "velocity": 102}, {"time": 1778, "pitch": 67, "duration": 7, "velocity": 91}, {"time": 1790, "pitch": 60, "duration": 5, "velocity": 88}, {"time": 1790, "pitch": 64, "duration": 6, "velocity": 92}, {"time": 1790, "pitch": 67, "duration": 6, "velocity": 90}, {"time": 1799, "pitch": 55, "duration": 6, "velocity": 79}, {"time": 1802, "pitch": 60, "duration": 6, "velocity": 100}, {"time": 1802, "pitch": 67, "duration": 9, "velocity": 107}, {"time": 1808, "pitch": 55, "duration": 6, "velocity": 64}, {"time": 1814, "pitch": 50, "duration": 41, "velocity": 86}, {"time": 1814, "pitch": 62, "duration": 9, "velocity": 88}, {"time": 1814, "pitch": 66, "duration": 10, "velocity": 97}, {"time": 1814, "pitch": 69, "duration": 9, "velocity": 92}, {"time": 1826, "pitch": 62, "duration": 7, "velocity": 89}, {"time": 1826, "pitch": 66, "duration": 8, "velocity": 89}, {"time": 1826, "pitch": 69, "duration": 8, "velocity": 88}, {"time": 1835, "pitch": 57, "duration": 19, "velocity": 81}, {"time": 1838, "pitch": 62, "duration": 19, "velocity": 104}, {"time": 1838, "pitch": 69, "duration": 18, "velocity": 104}, {"time": 1862, "pitch": 43, "duration": 45, "velocity": 83}, {"time": 1862, "pitch": 59, "duration": 11, "velocity": 81}, {"time": 1862, "pitch": 67, "duration": 10, "velocity": 87}, {"time": 1868, "pitch": 50, "duration": 41, "velocity": 65}, {"time": 1874, "pitch": 60, "duration": 11, "velocity": 89}, {"time": 1874, "pitch": 67, "duration": 10, "velocity": 84}, {"time": 1880, "pitch": 55, "duration": 10, "velocity": 74}, {"time": 1886, "pitch": 59, "duration": 9, "velocity": 86}, {"time": 1886, "pitch": 62, "duration": 10, "velocity": 86}, {"time": 1886, "pitch": 67, "duration": 9, "velocity": 84}, {"time": 1895, "pitch": 55, "duration": 6, "velocity": 71}, {"time": 1898, "pitch": 60, "duration": 11, "velocity": 91}, {"time": 1898, "pitch": 67, "duration": 6, "velocity": 40}, {"time": 1904, "pitch": 55, "duration": 4, "velocity": 71}, {"time": 1910, "pitch": 42, "duration": 42, "velocity": 78}, {"time": 1910, "pitch": 62, "duration": 9, "velocity": 94}, {"time": 1910, "pitch": 66, "duration": 8, "velocity": 97}, {"time": 1916, "pitch": 54, "duration": 7, "velocity": 63}, {"time": 1922, "pitch": 62, "duration": 11, "velocity": 91}, {"time": 1922, "pitch": 66, "duration": 7, "velocity": 86}, {"time": 1928, "pitch": 54, "duration": 12, "velocity": 74}, {"time": 1934, "pitch": 59, "duration": 8, "velocity": 88}, {"time": 1934, "pitch": 66, "duration": 9, "velocity": 86}, {"time": 1943, "pitch": 54, "duration": 4, "velocity": 80}, {"time": 1946, "pitch": 62, "duration": 10, "velocity": 113}, {"time": 1946, "pitch": 66, "duration": 6, "velocity": 116}, {"time": 1952, "pitch": 54, "duration": 1, "velocity": 83}, {"time": 1958, "pitch": 40, "duration": 42, "velocity": 88}, {"time": 1958, "pitch": 59, "duration": 11, "velocity": 88}, {"time": 1958, "pitch": 67, "duration": 7, "velocity": 90}, {"time": 1964, "pitch": 52, "duration": 7, "velocity": 75}, {"time": 1970, "pitch": 59, "duration": 3, "velocity": 75}, {"time": 1970, "pitch": 64, "duration": 5, "velocity": 90}, {"time": 1976, "pitch": 52, "duration": 12, "velocity": 81}, {"time": 1982, "pitch": 59, "duration": 9, "velocity": 107}, {"time": 1982, "pitch": 67, "duration": 8, "velocity": 96}, {"time": 1991, "pitch": 52, "duration": 5, "velocity": 79}, {"time": 1994, "pitch": 59, "duration": 10, "velocity": 98}, {"time": 1994, "pitch": 67, "duration": 11, "velocity": 94}, {"time": 2000, "pitch": 52, "duration": 3, "velocity": 75}, {"time": 2009, "pitch": 48, "duration": 13, "velocity": 100}, {"time": 2009, "pitch": 60, "duration": 11, "velocity": 94}, {"time": 2009, "pitch": 64, "duration": 13, "velocity": 98}, {"time": 2009, "pitch": 67, "duration": 13, "velocity": 96}, {"time": 2024, "pitch": 48, "duration": 26, "velocity": 89}, {"time": 2024, "pitch": 62, "duration": 16, "velocity": 90}, {"time": 2024, "pitch": 66, "duration": 16, "velocity": 103}, {"time": 2024, "pitch": 69, "duration": 16, "velocity": 98}, {"time": 2042, "pitch": 62, "duration": 4, "velocity": 84}, {"time": 2042, "pitch": 66, "duration": 7, "velocity": 88}, {"time": 2042, "pitch": 69, "duration": 3, "velocity": 88}, {"time": 2054, "pitch": 39, "duration": 16, "velocity": 86}, {"time": 2054, "pitch": 51, "duration": 14, "velocity": 89}, {"time": 2054, "pitch": 63, "duration": 13, "velocity": 91}, {"time": 2054, "pitch": 67, "duration": 16, "velocity": 108}, {"time": 2054, "pitch": 70, "duration": 13, "velocity": 97}, {"time": 2072, "pitch": 41, "duration": 22, "velocity": 87}, {"time": 2072, "pitch": 53, "duration": 21, "velocity": 88}, {"time": 2072, "pitch": 60, "duration": 21, "velocity": 91}, {"time": 2072, "pitch": 65, "duration": 21, "velocity": 98}, {"time": 2072, "pitch": 69, "duration": 21, "velocity": 91}, {"time": 2102, "pitch": 43, "duration": 41, "velocity": 93}, {"time": 2108, "pitch": 50, "duration": 38, "velocity": 75}, {"time": 2114, "pitch": 55, "duration": 19, "velocity": 86}, {"time": 2120, "pitch": 59, "duration": 13, "velocity": 87}, {"time": 2120, "pitch": 67, "duration": 20, "velocity": 88}, {"time": 2132, "pitch": 62, "duration": 23, "velocity": 84}, {"time": 2138, "pitch": 55, "duration": 5, "velocity": 86}, {"time": 2144, "pitch": 59, "duration": 9, "velocity": 81}, {"time": 2144, "pitch": 67, "duration": 11, "velocity": 84}, {"time": 2150, "pitch": 42, "duration": 40, "velocity": 85}, {"time": 2156, "pitch": 50, "duration": 35, "velocity": 78}, {"time": 2162, "pitch": 54, "duration": 12, "velocity": 83}, {"time": 2168, "pitch": 57, "duration": 19, "velocity": 92}, {"time": 2168, "pitch": 66, "duration": 18, "velocity": 87}, {"time": 2180, "pitch": 62, "duration": 17, "velocity": 86}, {"time": 2186, "pitch": 54, "duration": 5, "velocity": 97}, {"time": 2192, "pitch": 57, "duration": 5, "velocity": 88}, {"time": 2198, "pitch": 52, "duration": 42, "velocity": 88}, {"time": 2198, "pitch": 64, "duration": 6, "velocity": 85}, {"time": 2204, "pitch": 59, "duration": 20, "velocity": 83}, {"time": 2210, "pitch": 62, "duration": 6, "velocity": 87}, {"time": 2210, "pitch": 67, "duration": 18, "velocity": 90}, {"time": 2216, "pitch": 64, "duration": 13, "velocity": 88}, {"time": 2228, "pitch": 59, "duration": 6, "velocity": 88}, {"time": 2234, "pitch": 62, "duration": 6, "velocity": 96}, {"time": 2234, "pitch": 67, "duration": 5, "velocity": 98}, {"time": 2240, "pitch": 59, "duration": 6, "velocity": 81}, {"time": 2240, "pitch": 64, "duration": 6, "velocity": 81}, {"time": 2246, "pitch": 50, "duration": 42, "velocity": 85}, {"time": 2246, "pitch": 62, "duration": 6, "velocity": 85}, {"time": 2246, "pitch": 66, "duration": 6, "velocity": 86}, {"time": 2252, "pitch": 57, "duration": 17, "velocity": 79}, {"time": 2258, "pitch": 62, "duration": 19, "velocity": 89}, {"time": 2258, "pitch": 69, "duration": 18, "velocity": 104}, {"time": 2276, "pitch": 57, "duration": 11, "velocity": 74}, {"time": 2279, "pitch": 62, "duration": 2, "velocity": 82}, {"time": 2282, "pitch": 67, "duration": 5, "velocity": 114}, {"time": 2288, "pitch": 69, "duration": 7, "velocity": 86}, {"time": 2294, "pitch": 48, "duration": 21, "velocity": 88}, {"time": 2294, "pitch": 64, "duration": 12, "velocity": 91}, {"time": 2294, "pitch": 67, "duration": 12, "velocity": 92}, {"time": 2300, "pitch": 55, "duration": 14, "velocity": 70}, {"time": 2306, "pitch": 60, "duration": 6, "velocity": 86}, {"time": 2309, "pitch": 67, "duration": 8, "velocity": 108}, {"time": 2318, "pitch": 48, "duration": 22, "velocity": 86}, {"time": 2318, "pitch": 62, "duration": 10, "velocity": 87}, {"time": 2318, "pitch": 66, "duration": 9, "velocity": 90}, {"time": 2318, "pitch": 69, "duration": 9, "velocity": 88}, {"time": 2330, "pitch": 62, "duration": 9, "velocity": 91}, {"time": 2330, "pitch": 66, "duration": 9, "velocity": 91}, {"time": 2330, "pitch": 69, "duration": 9, "velocity": 91}, {"time": 2342, "pitch": 55, "duration": 11, "velocity": 84}, {"time": 2342, "pitch": 59, "duration": 8, "velocity": 93}, {"time": 2342, "pitch": 62, "duration": 9, "velocity": 100}, {"time": 2342, "pitch": 67, "duration": 9, "velocity": 92}, {"time": 2354, "pitch": 54, "duration": 11, "velocity": 85}, {"time": 2354, "pitch": 62, "duration": 10, "velocity": 104}, {"time": 2354, "pitch": 66, "duration": 10, "velocity": 91}, {"time": 2366, "pitch": 52, "duration": 23, "velocity": 89}, {"time": 2366, "pitch": 64, "duration": 6, "velocity": 89}, {"time": 2366, "pitch": 67, "duration": 7, "velocity": 91}, {"time": 2372, "pitch": 59, "duration": 10, "velocity": 85}, {"time": 2378, "pitch": 64, "duration": 10, "velocity": 93}, {"time": 2378, "pitch": 67, "duration": 9, "velocity": 108}, {"time": 2390, "pitch": 48, "duration": 43, "velocity": 88}, {"time": 2390, "pitch": 60, "duration": 4, "velocity": 88}, {"time": 2390, "pitch": 64, "duration": 10, "velocity": 90}, {"time": 2390, "pitch": 67, "duration": 7, "velocity": 93}, {"time": 2396, "pitch": 55, "duration": 40, "velocity": 77}, {"time": 2402, "pitch": 62, "duration": 5, "velocity": 98}, {"time": 2402, "pitch": 67, "duration": 6, "velocity": 94}, {"time": 2408, "pitch": 60, "duration": 11, "velocity": 79}, {"time": 2414, "pitch": 64, "duration": 13, "velocity": 90}, {"time": 2414, "pitch": 72, "duration": 14, "velocity": 92}, {"time": 2426, "pitch": 60, "duration": 7, "velocity": 88}, {"time": 2429, "pitch": 67, "duration": 3, "velocity": 90}, {"time": 2432, "pitch": 72, "duration": 5, "velocity": 102}, {"time": 2438, "pitch": 48, "duration": 43, "velocity": 89}, {"time": 2438, "pitch": 63, "duration": 10, "velocity": 103}, {"time": 2438, "pitch": 72, "duration": 9, "velocity": 96}, {"time": 2447, "pitch": 55, "duration": 35, "velocity": 32}, {"time": 2450, "pitch": 63, "duration": 11, "velocity": 93}, {"time": 2450, "pitch": 72, "duration": 9, "velocity": 98}, {"time": 2459, "pitch": 60, "duration": 9, "velocity": 83}, {"time": 2462, "pitch": 67, "duration": 6, "velocity": 91}, {"time": 2468, "pitch": 63, "duration": 4, "velocity": 89}, {"time": 2468, "pitch": 72, "duration": 4, "velocity": 84}, {"time": 2471, "pitch": 60, "duration": 9, "velocity": 86}, {"time": 2474, "pitch": 63, "duration": 6, "velocity": 100}, {"time": 2474, "pitch": 72, "duration": 10, "velocity": 89}, {"time": 2480, "pitch": 67, "duration": 5, "velocity": 83}, {"time": 2486, "pitch": 43, "duration": 43, "velocity": 89}, {"time": 2486, "pitch": 59, "duration": 8, "velocity": 102}, {"time": 2486, "pitch": 67, "duration": 8, "velocity": 96}, {"time": 2492, "pitch": 50, "duration": 41, "velocity": 70}, {"time": 2495, "pitch": 55, "duration": 6, "velocity": 81}, {"time": 2498, "pitch": 62, "duration": 9, "velocity": 110}, {"time": 2498, "pitch": 67, "duration": 8, "velocity": 98}, {"time": 2507, "pitch": 55, "duration": 5, "velocity": 87}, {"time": 2510, "pitch": 60, "duration": 7, "velocity": 110}, {"time": 2516, "pitch": 55, "duration": 6, "velocity": 88}, {"time": 2522, "pitch": 62, "duration": 6, "velocity": 114}, {"time": 2528, "pitch": 55, "duration": 4, "velocity": 87}, {"time": 2534, "pitch": 43, "duration": 43, "velocity": 100}, {"time": 2534, "pitch": 59, "duration": 5, "velocity": 92}, {"time": 2534, "pitch": 62, "duration": 8, "velocity": 110}, {"time": 2534, "pitch": 67, "duration": 4, "velocity": 102}, {"time": 2540, "pitch": 50, "duration": 38, "velocity": 87}, {"time": 2543, "pitch": 55, "duration": 9, "velocity": 113}, {"time": 2546, "pitch": 59, "duration": 5, "velocity": 113}, {"time": 2546, "pitch": 67, "duration": 13, "velocity": 110}, {"time": 2552, "pitch": 62, "duration": 8, "velocity": 91}, {"time": 2558, "pitch": 55, "duration": 7, "velocity": 108}, {"time": 2564, "pitch": 62, "duration": 10, "velocity": 110}, {"time": 2564, "pitch": 67, "duration": 9, "velocity": 94}, {"time": 2570, "pitch": 55, "duration": 7, "velocity": 108}, {"time": 2576, "pitch": 62, "duration": 4, "velocity": 102}, {"time": 2576, "pitch": 67, "duration": 1, "velocity": 87}, {"time": 2582, "pitch": 43, "duration": 38, "velocity": 94}, {"time": 2582, "pitch": 59, "duration": 2, "velocity": 100}, {"time": 2582, "pitch": 62, "duration": 4, "velocity": 110}, {"time": 2582, "pitch": 67, "duration": 5, "velocity": 104}, {"time": 2588, "pitch": 50, "duration": 33, "velocity": 74}, {"time": 2594, "pitch": 62, "duration": 5, "velocity": 100}, {"time": 2594, "pitch": 67, "duration": 6, "velocity": 96}, {"time": 2594, "pitch": 71, "duration": 6, "velocity": 100}, {"time": 2600, "pitch": 55, "duration": 8, "velocity": 87}, {"time": 2606, "pitch": 62, "duration": 9, "velocity": 93}, {"time": 2606, "pitch": 67, "duration": 9, "velocity": 102}, {"time": 2606, "pitch": 71, "duration": 9, "velocity": 98}, {"time": 2615, "pitch": 55, "duration": 9, "velocity": 91}, {"time": 2618, "pitch": 62, "duration": 4, "velocity": 107}, {"time": 2621, "pitch": 67, "duration": 2, "velocity": 87}, {"time": 2624, "pitch": 71, "duration": 4, "velocity": 102}, {"time": 2630, "pitch": 54, "duration": 16, "velocity": 95}, {"time": 2630, "pitch": 62, "duration": 9, "velocity": 88}, {"time": 2630, "pitch": 66, "duration": 10, "velocity": 90}, {"time": 2630, "pitch": 69, "duration": 9, "velocity": 91}, {"time": 2642, "pitch": 62, "duration": 7, "velocity": 98}, {"time": 2642, "pitch": 66, "duration": 7, "velocity": 113}, {"time": 2642, "pitch": 69, "duration": 7, "velocity": 110}, {"time": 2648, "pitch": 54, "duration": 11, "velocity": 85}, {"time": 2651, "pitch": 62, "duration": 1, "velocity": 91}, {"time": 2651, "pitch": 66, "duration": 1, "velocity": 93}, {"time": 2651, "pitch": 69, "duration": 1, "velocity": 96}, {"time": 2657, "pitch": 62, "duration": 6, "velocity": 102}, {"time": 2657, "pitch": 66, "duration": 6, "velocity": 113}, {"time": 2657, "pitch": 69, "duration": 5, "velocity": 107}, {"time": 2663, "pitch": 54, "duration": 3, "velocity": 119}, {"time": 2666, "pitch": 62, "duration": 6, "velocity": 113}, {"time": 2666, "pitch": 66, "duration": 8, "velocity": 119}, {"time": 2666, "pitch": 69, "duration": 7, "velocity": 116}, {"time": 2672, "pitch": 54, "duration": 6, "velocity": 113}, {"time": 2678, "pitch": 52, "duration": 43, "velocity": 91}, {"time": 2678, "pitch": 64, "duration": 9, "velocity": 96}, {"time": 2678, "pitch": 67, "duration": 8, "velocity": 108}, {"time": 2678, "pitch": 71, "duration": 8, "velocity": 102}, {"time": 2687, "pitch": 59, "duration": 7, "velocity": 83}, {"time": 2690, "pitch": 64, "duration": 10, "velocity": 107}, {"time": 2690, "pitch": 67, "duration": 5, "velocity": 110}, {"time": 2690, "pitch": 71, "duration": 10, "velocity": 108}, {"time": 2696, "pitch": 59, "duration": 7, "velocity": 80}, {"time": 2702, "pitch": 64, "duration": 7, "velocity": 102}, {"time": 2702, "pitch": 67, "duration": 6, "velocity": 100}, {"time": 2702, "pitch": 71, "duration": 6, "velocity": 100}, {"time": 2708, "pitch": 59, "duration": 7, "velocity": 86}, {"time": 2711, "pitch": 62, "duration": 1, "velocity": 87}, {"time": 2714, "pitch": 62, "duration": 4, "velocity": 100}, {"time": 2714, "pitch": 67, "duration": 4, "velocity": 107}, {"time": 2714, "pitch": 71, "duration": 3, "velocity": 102}, {"time": 2717, "pitch": 59, "duration": 4, "velocity": 89}, {"time": 2720, "pitch": 64, "duration": 3, "velocity": 104}, {"time": 2720, "pitch": 67, "duration": 3, "velocity": 100}, {"time": 2720, "pitch": 71, "duration": 2, "velocity": 89}, {"time": 2726, "pitch": 50, "duration": 47, "velocity": 91}, {"time": 2726, "pitch": 62, "duration": 9, "velocity": 89}, {"time": 2726, "pitch": 69, "duration": 9, "velocity": 92}, {"time": 2735, "pitch": 57, "duration": 13, "velocity": 86}, {"time": 2738, "pitch": 62, "duration": 8, "velocity": 96}, {"time": 2738, "pitch": 69, "duration": 6, "velocity": 104}, {"time": 2744, "pitch": 66, "duration": 2, "velocity": 87}, {"time": 2747, "pitch": 62, "duration": 4, "velocity": 94}, {"time": 2747, "pitch": 69, "duration": 5, "velocity": 113}, {"time": 2750, "pitch": 57, "duration": 7, "velocity": 91}, {"time": 2756, "pitch": 62, "duration": 4, "velocity": 88}, {"time": 2756, "pitch": 69, "duration": 3, "velocity": 86}, {"time": 2759, "pitch": 57, "duration": 6, "velocity": 113}, {"time": 2762, "pitch": 62, "duration": 5, "velocity": 107}, {"time": 2762, "pitch": 69, "duration": 3, "velocity": 108}, {"time": 2765, "pitch": 66, "duration": 2, "velocity": 103}, {"time": 2768, "pitch": 67, "duration": 4, "velocity": 96}, {"time": 2774, "pitch": 48, "duration": 42, "velocity": 89}, {"time": 2774, "pitch": 60, "duration": 1, "velocity": 81}, {"time": 2774, "pitch": 64, "duration": 8, "velocity": 93}, {"time": 2774, "pitch": 72, "duration": 8, "velocity": 108}, {"time": 2783, "pitch": 60, "duration": 6, "velocity": 76}, {"time": 2786, "pitch": 64, "duration": 9, "velocity": 104}, {"time": 2786, "pitch": 72, "duration": 9, "velocity": 104}, {"time": 2792, "pitch": 60, "duration": 12, "velocity": 77}, {"time": 2795, "pitch": 67, "duration": 1, "velocity": 88}, {"time": 2801, "pitch": 64, "duration": 6, "velocity": 91}, {"time": 2801, "pitch": 72, "duration": 6, "velocity": 87}, {"time": 2807, "pitch": 60, "duration": 8, "velocity": 89}, {"time": 2810, "pitch": 64, "duration": 6, "velocity": 104}, {"time": 2810, "pitch": 72, "duration": 12, "velocity": 91}, {"time": 2816, "pitch": 67, "duration": 5, "velocity": 86}, {"time": 2819, "pitch": 64, "duration": 3, "velocity": 83}, {"time": 2822, "pitch": 43, "duration": 44, "velocity": 91}, {"time": 2822, "pitch": 62, "duration": 7, "velocity": 113}, {"time": 2822, "pitch": 67, "duration": 9, "velocity": 98}, {"time": 2828, "pitch": 55, "duration": 8, "velocity": 76}, {"time": 2834, "pitch": 62, "duration": 8, "velocity": 96}, {"time": 2834, "pitch": 67, "duration": 9, "velocity": 102}, {"time": 2843, "pitch": 55, "duration": 6, "velocity": 78}, {"time": 2846, "pitch": 62, "duration": 8, "velocity": 107}, {"time": 2846, "pitch": 67, "duration": 8, "velocity": 113}, {"time": 2855, "pitch": 55, "duration": 3, "velocity": 91}, {"time": 2858, "pitch": 62, "duration": 5, "velocity": 114}, {"time": 2858, "pitch": 67, "duration": 4, "velocity": 116}, {"time": 2861, "pitch": 55, "duration": 5, "velocity": 94}, {"time": 2864, "pitch": 67, "duration": 5, "velocity": 102}, {"time": 2870, "pitch": 45, "duration": 42, "velocity": 86}, {"time": 2870, "pitch": 60, "duration": 7, "velocity": 93}, {"time": 2870, "pitch": 64, "duration": 7, "velocity": 102}, {"time": 2870, "pitch": 69, "duration": 7, "velocity": 89}, {"time": 2879, "pitch": 57, "duration": 5, "velocity": 42}, {"time": 2882, "pitch": 60, "duration": 7, "velocity": 96}, {"time": 2882, "pitch": 64, "duration": 8, "velocity": 113}, {"time": 2882, "pitch": 69, "duration": 8, "velocity": 100}, {"time": 2891, "pitch": 57, "duration": 5, "velocity": 81}, {"time": 2894, "pitch": 60, "duration": 2, "velocity": 104}, {"time": 2894, "pitch": 64, "duration": 8, "velocity": 116}, {"time": 2894, "pitch": 69, "duration": 8, "velocity": 104}, {"time": 2903, "pitch": 57, "duration": 4, "velocity": 91}, {"time": 2906, "pitch": 64, "duration": 10, "velocity": 119}, {"time": 2906, "pitch": 69, "duration": 10, "velocity": 113}, {"time": 2912, "pitch": 57, "duration": 4, "velocity": 91}, {"time": 2918, "pitch": 50, "duration": 43, "velocity": 91}, {"time": 2918, "pitch": 62, "duration": 3, "velocity": 96}, {"time": 2918, "pitch": 66, "duration": 5, "velocity": 109}, {"time": 2918, "pitch": 69, "duration": 5, "velocity": 93}, {"time": 2924, "pitch": 57, "duration": 18, "velocity": 82}, {"time": 2927, "pitch": 62, "duration": 4, "velocity": 87}, {"time": 2930, "pitch": 66, "duration": 5, "velocity": 109}, {"time": 2930, "pitch": 74, "duration": 4, "velocity": 104}, {"time": 2936, "pitch": 62, "duration": 2, "velocity": 88}, {"time": 2942, "pitch": 62, "duration": 3, "velocity": 102}, {"time": 2942, "pitch": 66, "duration": 4, "velocity": 103}, {"time": 2942, "pitch": 69, "duration": 4, "velocity": 108}, {"time": 2948, "pitch": 57, "duration": 4, "velocity": 83}, {"time": 2951, "pitch": 66, "duration": 5, "velocity": 97}, {"time": 2951, "pitch": 74, "duration": 5, "velocity": 94}, {"time": 2954, "pitch": 57, "duration": 4, "velocity": 64}, {"time": 2957, "pitch": 66, "duration": 2, "velocity": 100}, {"time": 2957, "pitch": 74, "duration": 2, "velocity": 104}, {"time": 2966, "pitch": 43, "duration": 42, "velocity": 88}, {"time": 2966, "pitch": 62, "duration": 5, "velocity": 94}, {"time": 2966, "pitch": 67, "duration": 7, "velocity": 110}, {"time": 2966, "pitch": 71, "duration": 6, "velocity": 98}, {"time": 2972, "pitch": 55, "duration": 6, "velocity": 68}, {"time": 2978, "pitch": 62, "duration": 7, "velocity": 89}, {"time": 2978, "pitch": 67, "duration": 7, "velocity": 89}, {"time": 2978, "pitch": 71, "duration": 7, "velocity": 86}, {"time": 2984, "pitch": 55, "duration": 10, "velocity": 81}, {"time": 2987, "pitch": 62, "duration": 1, "velocity": 88}, {"time": 2987, "pitch": 67, "duration": 1, "velocity": 96}, {"time": 2987, "pitch": 71, "duration": 1, "velocity": 88}, {"time": 2993, "pitch": 62, "duration": 6, "velocity": 91}, {"time": 2993, "pitch": 67, "duration": 6, "velocity": 96}, {"time": 2993, "pitch": 71, "duration": 6, "velocity": 94}, {"time": 2999, "pitch": 55, "duration": 4, "velocity": 91}, {"time": 3002, "pitch": 62, "duration": 5, "velocity": 110}, {"time": 3002, "pitch": 71, "duration": 5, "velocity": 107}, {"time": 3008, "pitch": 67, "duration": 4, "velocity": 100}, {"time": 3008, "pitch": 71, "duration": 2, "velocity": 81}, {"time": 3014, "pitch": 42, "duration": 40, "velocity": 86}, {"time": 3014, "pitch": 54, "duration": 13, "velocity": 85}, {"time": 3014, "pitch": 62, "duration": 8, "velocity": 89}, {"time": 3014, "pitch": 66, "duration": 8, "velocity": 100}, {"time": 3014, "pitch": 69, "duration": 9, "velocity": 92}, {"time": 3026, "pitch": 62, "duration": 6, "velocity": 102}, {"time": 3026, "pitch": 66, "duration": 7, "velocity": 113}, {"time": 3026, "pitch": 69, "duration": 6, "velocity": 107}, {"time": 3032, "pitch": 54, "duration": 9, "velocity": 86}, {"time": 3035, "pitch": 62, "duration": 1, "velocity": 92}, {"time": 3035, "pitch": 66, "duration": 1, "velocity": 97}, {"time": 3035, "pitch": 69, "duration": 1, "velocity": 98}, {"time": 3041, "pitch": 62, "duration": 6, "velocity": 98}, {"time": 3041, "pitch": 69, "duration": 6, "velocity": 110}, {"time": 3047, "pitch": 54, "duration": 3, "velocity": 113}, {"time": 3050, "pitch": 62, "duration": 4, "velocity": 113}, {"time": 3050, "pitch": 69, "duration": 4, "velocity": 113}, {"time": 3053, "pitch": 54, "duration": 3, "velocity": 113}, {"time": 3056, "pitch": 62, "duration": 1, "velocity": 84}, {"time": 3056, "pitch": 66, "duration": 3, "velocity": 119}, {"time": 3059, "pitch": 69, "duration": 2, "velocity": 88}, {"time": 3062, "pitch": 52, "duration": 43, "velocity": 89}, {"time": 3062, "pitch": 64, "duration": 8, "velocity": 91}, {"time": 3062, "pitch": 67, "duration": 9, "velocity": 110}, {"time": 3062, "pitch": 71, "duration": 7, "velocity": 93}, {"time": 3074, "pitch": 64, "duration": 9, "velocity": 100}, {"time": 3074, "pitch": 67, "duration": 9, "velocity": 110}, {"time": 3074, "pitch": 71, "duration": 7, "velocity": 98}, {"time": 3083, "pitch": 59, "duration": 8, "velocity": 87}, {"time": 3086, "pitch": 64, "duration": 9, "velocity": 94}, {"time": 3086, "pitch": 67, "duration": 9, "velocity": 102}, {"time": 3086, "pitch": 71, "duration": 8, "velocity": 91}, {"time": 3095, "pitch": 59, "duration": 4, "velocity": 87}, {"time": 3098, "pitch": 64, "duration": 7, "velocity": 96}, {"time": 3098, "pitch": 67, "duration": 10, "velocity": 107}, {"time": 3098, "pitch": 71, "duration": 7, "velocity": 96}, {"time": 3104, "pitch": 59, "duration": 6, "velocity": 82}, {"time": 3110, "pitch": 47, "duration": 42, "velocity": 88}, {"time": 3110, "pitch": 62, "duration": 7, "velocity": 92}, {"time": 3110, "pitch": 66, "duration": 7, "velocity": 103}, {"time": 3110, "pitch": 69, "duration": 7, "velocity": 102}, {"time": 3116, "pitch": 54, "duration": 37, "velocity": 67}, {"time": 3122, "pitch": 62, "duration": 5, "velocity": 89}, {"time": 3122, "pitch": 69, "duration": 5, "velocity": 93}, {"time": 3128, "pitch": 59, "duration": 11, "velocity": 86}, {"time": 3134, "pitch": 62, "duration": 8, "velocity": 89}, {"time": 3134, "pitch": 66, "duration": 1, "velocity": 95}, {"time": 3134, "pitch": 69, "duration": 8, "velocity": 93}, {"time": 3140, "pitch": 66, "duration": 3, "velocity": 86}, {"time": 3143, "pitch": 59, "duration": 10, "velocity": 104}, {"time": 3146, "pitch": 62, "duration": 10, "velocity": 114}, {"time": 3146, "pitch": 69, "duration": 6, "velocity": 110}, {"time": 3152, "pitch": 66, "duration": 7, "velocity": 100}, {"time": 3158, "pitch": 48, "duration": 39, "velocity": 98}, {"time": 3158, "pitch": 64, "duration": 10, "velocity": 107}, {"time": 3158, "pitch": 67, "duration": 7, "velocity": 108}, {"time": 3164, "pitch": 55, "duration": 33, "velocity": 74}, {"time": 3170, "pitch": 62, "duration": 8, "velocity": 93}, {"time": 3170, "pitch": 67, "duration": 8, "velocity": 102}, {"time": 3182, "pitch": 64, "duration": 6, "velocity": 113}, {"time": 3182, "pitch": 67, "duration": 6, "velocity": 113}, {"time": 3188, "pitch": 60, "duration": 7, "velocity": 86}, {"time": 3194, "pitch": 64, "duration": 6, "velocity": 114}, {"time": 3194, "pitch": 67, "duration": 9, "velocity": 114}, {"time": 3200, "pitch": 48, "duration": 1, "velocity": 86}, {"time": 3206, "pitch": 43, "duration": 20, "velocity": 87}, {"time": 3206, "pitch": 59, "duration": 6, "velocity": 96}, {"time": 3206, "pitch": 62, "duration": 8, "velocity": 108}, {"time": 3206, "pitch": 67, "duration": 6, "velocity": 92}, {"time": 3212, "pitch": 55, "duration": 6, "velocity": 69}, {"time": 3218, "pitch": 62, "duration": 9, "velocity": 113}, {"time": 3218, "pitch": 67, "duration": 8, "velocity": 96}, {"time": 3224, "pitch": 55, "duration": 1, "velocity": 84}, {"time": 3230, "pitch": 40, "duration": 18, "velocity": 88}, {"time": 3236, "pitch": 52, "duration": 8, "velocity": 89}, {"time": 3242, "pitch": 59, "duration": 5, "velocity": 107}, {"time": 3242, "pitch": 64, "duration": 7, "velocity": 108}, {"time": 3242, "pitch": 67, "duration": 7, "velocity": 102}, {"time": 3248, "pitch": 52, "duration": 2, "velocity": 88}, {"time": 3254, "pitch": 48, "duration": 43, "velocity": 98}, {"time": 3254, "pitch": 60, "duration": 4, "velocity": 90}, {"time": 3254, "pitch": 64, "duration": 5, "velocity": 98}, {"time": 3254, "pitch": 67, "duration": 4, "velocity": 92}, {"time": 3266, "pitch": 60, "duration": 8, "velocity": 90}, {"time": 3266, "pitch": 64, "duration": 8, "velocity": 102}, {"time": 3266, "pitch": 67, "duration": 7, "velocity": 91}, {"time": 3278, "pitch": 60, "duration": 5, "velocity": 88}, {"time": 3278, "pitch": 64, "duration": 6, "velocity": 92}, {"time": 3278, "pitch": 67, "duration": 6, "velocity": 90}, {"time": 3287, "pitch": 55, "duration": 6, "velocity": 79}, {"time": 3290, "pitch": 60, "duration": 6, "velocity": 100}, {"time": 3290, "pitch": 67, "duration": 9, "velocity": 107}, {"time": 3296, "pitch": 55, "duration": 6, "velocity": 64}, {"time": 3302, "pitch": 50, "duration": 41, "velocity": 86}, {"time": 3302, "pitch": 62, "duration": 9, "velocity": 88}, {"time": 3302, "pitch": 66, "duration": 10, "velocity": 97}, {"time": 3302, "pitch": 69, "duration": 9, "velocity": 92}, {"time": 3314, "pitch": 62, "duration": 7, "velocity": 89}, {"time": 3314, "pitch": 66, "duration": 8, "velocity": 89}, {"time": 3314, "pitch": 69, "duration": 8, "velocity": 88}, {"time": 3323, "pitch": 57, "duration": 19, "velocity": 81}, {"time": 3326, "pitch": 62, "duration": 19, "velocity": 104}, {"time": 3326, "pitch": 69, "duration": 18, "velocity": 104}, {"time": 3350, "pitch": 39, "duration": 42, "velocity": 87}, {"time": 3350, "pitch": 63, "duration": 10, "velocity": 93}, {"time": 3350, "pitch": 67, "duration": 10, "velocity": 104}, {"time": 3350, "pitch": 70, "duration": 10, "velocity": 87}, {"time": 3359, "pitch": 51, "duration": 19, "velocity": 36}, {"time": 3362, "pitch": 63, "duration": 8, "velocity": 76}, {"time": 3362, "pitch": 67, "duration": 9, "velocity": 87}, {"time": 3362, "pitch": 70, "duration": 9, "velocity": 72}, {"time": 3374, "pitch": 63, "duration": 9, "velocity": 86}, {"time": 3374, "pitch": 70, "duration": 8, "velocity": 78}, {"time": 3383, "pitch": 51, "duration": 5, "velocity": 69}, {"time": 3386, "pitch": 67, "duration": 6, "velocity": 98}, {"time": 3389, "pitch": 51, "duration": 3, "velocity": 78}, {"time": 3392, "pitch": 70, "duration": 1, "velocity": 77}, {"time": 3398, "pitch": 41, "duration": 42, "velocity": 81}, {"time": 3398, "pitch": 53, "duration": 28, "velocity": 84}, {"time": 3398, "pitch": 60, "duration": 9, "velocity": 82}, {"time": 3398, "pitch": 65, "duration": 9, "velocity": 86}, {"time": 3398, "pitch": 69, "duration": 8, "velocity": 86}, {"time": 3410, "pitch": 60, "duration": 10, "velocity": 81}, {"time": 3410, "pitch": 65, "duration": 10, "velocity": 84}, {"time": 3410, "pitch": 69, "duration": 10, "velocity": 83}, {"time": 3422, "pitch": 60, "duration": 7, "velocity": 71}, {"time": 3422, "pitch": 65, "duration": 8, "velocity": 74}, {"time": 3422, "pitch": 69, "duration": 8, "velocity": 73}, {"time": 3431, "pitch": 53, "duration": 12, "velocity": 38}, {"time": 3434, "pitch": 60, "duration": 7, "velocity": 80}, {"time": 3434, "pitch": 65, "duration": 7, "velocity": 80}, {"time": 3434, "pitch": 69, "duration": 7, "velocity": 81}, {"time": 3446, "pitch": 63, "duration": 13, "velocity": 84}, {"time": 3446, "pitch": 70, "duration": 7, "velocity": 83}, {"time": 3446, "pitch": 39, "duration": 43, "velocity": 82}, {"time": 3452, "pitch": 51, "duration": 8, "velocity": 64}, {"time": 3458, "pitch": 67, "duration": 10, "velocity": 88}, {"time": 3464, "pitch": 51, "duration": 10, "velocity": 66}, {"time": 3470, "pitch": 63, "duration": 9, "velocity": 91}, {"time": 3470, "pitch": 70, "duration": 9, "velocity": 87}, {"time": 3479, "pitch": 51, "duration": 5, "velocity": 77}, {"time": 3482, "pitch": 63, "duration": 6, "velocity": 89}, {"time": 3482, "pitch": 70, "duration": 5, "velocity": 81}, {"time": 3488, "pitch": 51, "duration": 2, "velocity": 76}, {"time": 3494, "pitch": 60, "duration": 8, "velocity": 83}, {"time": 3494, "pitch": 65, "duration": 9, "velocity": 87}, {"time": 3494, "pitch": 69, "duration": 7, "velocity": 84}, {"time": 3494, "pitch": 41, "duration": 43, "velocity": 86}, {"time": 3501, "pitch": 53, "duration": 7, "velocity": 38}, {"time": 3506, "pitch": 65, "duration": 11, "velocity": 79}, {"time": 3506, "pitch": 60, "duration": 9, "velocity": 75}, {"time": 3506, "pitch": 69, "duration": 8, "velocity": 76}, {"time": 3515, "pitch": 53, "duration": 6, "velocity": 38}, {"time": 3518, "pitch": 60, "duration": 9, "velocity": 88}, {"time": 3518, "pitch": 69, "duration": 9, "velocity": 86}, {"time": 3527, "pitch": 53, "duration": 10, "velocity": 66}, {"time": 3531, "pitch": 60, "duration": 5, "velocity": 81}, {"time": 3531, "pitch": 69, "duration": 6, "velocity": 82}, {"time": 3542, "pitch": 51, "duration": 15, "velocity": 85}, {"time": 3542, "pitch": 63, "duration": 7, "velocity": 87}, {"time": 3542, "pitch": 67, "duration": 8, "velocity": 88}, {"time": 3542, "pitch": 39, "duration": 43, "velocity": 82}, {"time": 3542, "pitch": 70, "duration": 9, "velocity": 80}, {"time": 3553, "pitch": 63, "duration": 12, "velocity": 93}, {"time": 3553, "pitch": 70, "duration": 11, "velocity": 90}, {"time": 3563, "pitch": 51, "duration": 6, "velocity": 77}, {"time": 3566, "pitch": 67, "duration": 11, "velocity": 114}, {"time": 3572, "pitch": 51, "duration": 8, "velocity": 80}, {"time": 3578, "pitch": 63, "duration": 6, "velocity": 93}, {"time": 3578, "pitch": 70, "duration": 6, "velocity": 93}, {"time": 3584, "pitch": 51, "duration": 2, "velocity": 80}, {"time": 3590, "pitch": 69, "duration": 8, "velocity": 87}, {"time": 3590, "pitch": 60, "duration": 9, "velocity": 83}, {"time": 3590, "pitch": 41, "duration": 45, "velocity": 85}, {"time": 3599, "pitch": 53, "duration": 4, "velocity": 65}, {"time": 3601, "pitch": 60, "duration": 10, "velocity": 84}, {"time": 3601, "pitch": 69, "duration": 10, "velocity": 84}, {"time": 3611, "pitch": 53, "duration": 5, "velocity": 70}, {"time": 3614, "pitch": 60, "duration": 8, "velocity": 84}, {"time": 3614, "pitch": 69, "duration": 8, "velocity": 82}, {"time": 3621, "pitch": 53, "duration": 8, "velocity": 78}, {"time": 3627, "pitch": 60, "duration": 8, "velocity": 87}, {"time": 3627, "pitch": 69, "duration": 8, "velocity": 84}, {"time": 3638, "pitch": 59, "duration": 20, "velocity": 78}, {"time": 3640, "pitch": 62, "duration": 2, "velocity": 80}, {"time": 3641, "pitch": 43, "duration": 80, "velocity": 74}, {"time": 3641, "pitch": 67, "duration": 17, "velocity": 82}, {"time": 3654, "pitch": 50, "duration": 67, "velocity": 38}, {"time": 3658, "pitch": 55, "duration": 63, "velocity": 78}, {"time": 3661, "pitch": 60, "duration": 5, "velocity": 80}, {"time": 3665, "pitch": 62, "duration": 4, "velocity": 81}, {"time": 3669, "pitch": 67, "duration": 1, "velocity": 81}, {"time": 3673, "pitch": 71, "duration": 12, "velocity": 81}, {"time": 3678, "pitch": 79, "duration": 7, "velocity": 78}, {"time": 3684, "pitch": 74, "duration": 2, "velocity": 80}, {"time": 3689, "pitch": 83, "duration": 3, "velocity": 82}, {"time": 3695, "pitch": 86, "duration": 2, "velocity": 83}, {"time": 3707, "pitch": 79, "duration": 13, "velocity": 67}, {"time": 3709, "pitch": 83, "duration": 11, "velocity": 73}, {"time": 3711, "pitch": 91, "duration": 9, "velocity": 71}]}]}