{"metadata": {"schema_version": "0.2", "title": "None", "source_filename": "348.mid", "source_format": "midi"}, "resolution": 12, "tempos": [{"time": 0, "qpm": 59.00006686674245}], "time_signatures": [{"time": 0, "numerator": 4, "denominator": 4}], "tracks": [{"program": 0, "is_drum": false, "name": "MELODY", "notes": [{"time": 547, "pitch": 61, "duration": 3, "velocity": 90}, {"time": 550, "pitch": 61, "duration": 3, "velocity": 89}, {"time": 553, "pitch": 63, "duration": 3, "velocity": 96}, {"time": 556, "pitch": 63, "duration": 4, "velocity": 110}, {"time": 559, "pitch": 65, "duration": 6, "velocity": 92}, {"time": 565, "pitch": 65, "duration": 24, "velocity": 102}, {"time": 589, "pitch": 65, "duration": 3, "velocity": 91}, {"time": 592, "pitch": 65, "duration": 3, "velocity": 102}, {"time": 595, "pitch": 63, "duration": 6, "velocity": 86}, {"time": 601, "pitch": 65, "duration": 3, "velocity": 94}, {"time": 604, "pitch": 63, "duration": 9, "velocity": 104}, {"time": 613, "pitch": 61, "duration": 24, "velocity": 108}, {"time": 637, "pitch": 61, "duration": 3, "velocity": 98}, {"time": 640, "pitch": 61, "duration": 3, "velocity": 100}, {"time": 643, "pitch": 63, "duration": 3, "velocity": 96}, {"time": 646, "pitch": 65, "duration": 3, "velocity": 96}, {"time": 649, "pitch": 68, "duration": 3, "velocity": 102}, {"time": 652, "pitch": 70, "duration": 6, "velocity": 110}, {"time": 658, "pitch": 68, "duration": 3, "velocity": 104}, {"time": 661, "pitch": 70, "duration": 21, "velocity": 108}, {"time": 682, "pitch": 70, "duration": 3, "velocity": 113}, {"time": 685, "pitch": 70, "duration": 3, "velocity": 108}, {"time": 688, "pitch": 70, "duration": 3, "velocity": 110}, {"time": 691, "pitch": 70, "duration": 6, "velocity": 113}, {"time": 697, "pitch": 65, "duration": 3, "velocity": 104}, {"time": 700, "pitch": 68, "duration": 3, "velocity": 113}, {"time": 703, "pitch": 70, "duration": 3, "velocity": 91}, {"time": 706, "pitch": 68, "duration": 27, "velocity": 89}, {"time": 733, "pitch": 61, "duration": 3, "velocity": 94}, {"time": 736, "pitch": 61, "duration": 3, "velocity": 96}, {"time": 739, "pitch": 63, "duration": 3, "velocity": 96}, {"time": 742, "pitch": 65, "duration": 3, "velocity": 100}, {"time": 745, "pitch": 68, "duration": 3, "velocity": 100}, {"time": 748, "pitch": 70, "duration": 6, "velocity": 114}, {"time": 754, "pitch": 68, "duration": 3, "velocity": 107}, {"time": 757, "pitch": 70, "duration": 21, "velocity": 113}, {"time": 778, "pitch": 70, "duration": 3, "velocity": 108}, {"time": 781, "pitch": 70, "duration": 3, "velocity": 108}, {"time": 784, "pitch": 70, "duration": 6, "velocity": 107}, {"time": 790, "pitch": 65, "duration": 6, "velocity": 110}, {"time": 796, "pitch": 68, "duration": 6, "velocity": 113}, {"time": 802, "pitch": 65, "duration": 6, "velocity": 98}, {"time": 808, "pitch": 68, "duration": 6, "velocity": 107}, {"time": 814, "pitch": 70, "duration": 3, "velocity": 108}, {"time": 817, "pitch": 65, "duration": 15, "velocity": 104}, {"time": 832, "pitch": 65, "duration": 3, "velocity": 108}, {"time": 835, "pitch": 65, "duration": 6, "velocity": 102}, {"time": 841, "pitch": 61, "duration": 3, "velocity": 90}, {"time": 844, "pitch": 65, "duration": 6, "velocity": 107}, {"time": 850, "pitch": 63, "duration": 30, "velocity": 104}, {"time": 880, "pitch": 65, "duration": 3, "velocity": 104}, {"time": 883, "pitch": 65, "duration": 6, "velocity": 100}, {"time": 889, "pitch": 61, "duration": 3, "velocity": 91}, {"time": 892, "pitch": 58, "duration": 6, "velocity": 96}, {"time": 898, "pitch": 65, "duration": 3, "velocity": 98}, {"time": 901, "pitch": 63, "duration": 30, "velocity": 90}, {"time": 931, "pitch": 61, "duration": 3, "velocity": 90}, {"time": 934, "pitch": 61, "duration": 3, "velocity": 89}, {"time": 937, "pitch": 63, "duration": 3, "velocity": 96}, {"time": 940, "pitch": 63, "duration": 4, "velocity": 110}, {"time": 943, "pitch": 65, "duration": 6, "velocity": 92}, {"time": 949, "pitch": 65, "duration": 21, "velocity": 102}, {"time": 970, "pitch": 65, "duration": 3, "velocity": 91}, {"time": 973, "pitch": 65, "duration": 3, "velocity": 91}, {"time": 976, "pitch": 65, "duration": 3, "velocity": 102}, {"time": 979, "pitch": 63, "duration": 6, "velocity": 86}, {"time": 985, "pitch": 65, "duration": 3, "velocity": 94}, {"time": 988, "pitch": 63, "duration": 9, "velocity": 104}, {"time": 997, "pitch": 61, "duration": 24, "velocity": 108}, {"time": 1021, "pitch": 61, "duration": 3, "velocity": 98}, {"time": 1024, "pitch": 61, "duration": 3, "velocity": 100}, {"time": 1027, "pitch": 63, "duration": 3, "velocity": 96}, {"time": 1030, "pitch": 65, "duration": 3, "velocity": 96}, {"time": 1033, "pitch": 68, "duration": 3, "velocity": 102}, {"time": 1036, "pitch": 70, "duration": 6, "velocity": 110}, {"time": 1042, "pitch": 68, "duration": 3, "velocity": 104}, {"time": 1045, "pitch": 70, "duration": 21, "velocity": 108}, {"time": 1066, "pitch": 70, "duration": 3, "velocity": 113}, {"time": 1069, "pitch": 70, "duration": 3, "velocity": 108}, {"time": 1072, "pitch": 70, "duration": 3, "velocity": 110}, {"time": 1075, "pitch": 70, "duration": 6, "velocity": 113}, {"time": 1081, "pitch": 65, "duration": 3, "velocity": 104}, {"time": 1084, "pitch": 68, "duration": 3, "velocity": 113}, {"time": 1087, "pitch": 70, "duration": 3, "velocity": 91}, {"time": 1090, "pitch": 68, "duration": 27, "velocity": 89}, {"time": 1117, "pitch": 61, "duration": 3, "velocity": 94}, {"time": 1120, "pitch": 61, "duration": 3, "velocity": 96}, {"time": 1123, "pitch": 63, "duration": 3, "velocity": 96}, {"time": 1126, "pitch": 65, "duration": 3, "velocity": 100}, {"time": 1129, "pitch": 68, "duration": 3, "velocity": 100}, {"time": 1132, "pitch": 70, "duration": 6, "velocity": 114}, {"time": 1138, "pitch": 68, "duration": 3, "velocity": 107}, {"time": 1141, "pitch": 70, "duration": 6, "velocity": 113}, {"time": 1147, "pitch": 77, "duration": 15, "velocity": 113}, {"time": 1162, "pitch": 70, "duration": 3, "velocity": 108}, {"time": 1165, "pitch": 70, "duration": 3, "velocity": 108}, {"time": 1168, "pitch": 70, "duration": 6, "velocity": 107}, {"time": 1174, "pitch": 70, "duration": 3, "velocity": 110}, {"time": 1177, "pitch": 65, "duration": 3, "velocity": 110}, {"time": 1180, "pitch": 68, "duration": 6, "velocity": 113}, {"time": 1186, "pitch": 65, "duration": 6, "velocity": 98}, {"time": 1192, "pitch": 68, "duration": 3, "velocity": 107}, {"time": 1195, "pitch": 70, "duration": 6, "velocity": 108}, {"time": 1201, "pitch": 65, "duration": 15, "velocity": 104}, {"time": 1216, "pitch": 58, "duration": 3, "velocity": 108}, {"time": 1219, "pitch": 65, "duration": 6, "velocity": 102}, {"time": 1225, "pitch": 65, "duration": 3, "velocity": 90}, {"time": 1228, "pitch": 65, "duration": 4, "velocity": 107}, {"time": 1231, "pitch": 63, "duration": 9, "velocity": 104}, {"time": 1240, "pitch": 63, "duration": 6, "velocity": 104}, {"time": 1246, "pitch": 61, "duration": 3, "velocity": 104}, {"time": 1249, "pitch": 63, "duration": 15, "velocity": 104}, {"time": 1264, "pitch": 65, "duration": 6, "velocity": 104}, {"time": 1270, "pitch": 58, "duration": 3, "velocity": 91}, {"time": 1273, "pitch": 63, "duration": 6, "velocity": 96}, {"time": 1279, "pitch": 61, "duration": 33, "velocity": 98}, {"time": 1312, "pitch": 73, "duration": 6, "velocity": 119}, {"time": 1318, "pitch": 75, "duration": 6, "velocity": 117}, {"time": 1324, "pitch": 77, "duration": 3, "velocity": 120}, {"time": 1327, "pitch": 73, "duration": 3, "velocity": 116}, {"time": 1330, "pitch": 73, "duration": 3, "velocity": 116}, {"time": 1333, "pitch": 70, "duration": 3, "velocity": 116}, {"time": 1336, "pitch": 70, "duration": 3, "velocity": 117}, {"time": 1339, "pitch": 66, "duration": 3, "velocity": 110}, {"time": 1342, "pitch": 66, "duration": 3, "velocity": 110}, {"time": 1345, "pitch": 77, "duration": 3, "velocity": 113}, {"time": 1348, "pitch": 77, "duration": 3, "velocity": 116}, {"time": 1351, "pitch": 78, "duration": 3, "velocity": 114}, {"time": 1354, "pitch": 77, "duration": 3, "velocity": 113}, {"time": 1357, "pitch": 75, "duration": 15, "velocity": 116}, {"time": 1372, "pitch": 75, "duration": 3, "velocity": 114}, {"time": 1375, "pitch": 72, "duration": 3, "velocity": 113}, {"time": 1378, "pitch": 72, "duration": 3, "velocity": 113}, {"time": 1381, "pitch": 68, "duration": 3, "velocity": 114}, {"time": 1384, "pitch": 68, "duration": 3, "velocity": 114}, {"time": 1387, "pitch": 65, "duration": 3, "velocity": 108}, {"time": 1390, "pitch": 65, "duration": 3, "velocity": 110}, {"time": 1393, "pitch": 75, "duration": 3, "velocity": 113}, {"time": 1396, "pitch": 75, "duration": 3, "velocity": 116}, {"time": 1399, "pitch": 73, "duration": 3, "velocity": 104}, {"time": 1402, "pitch": 72, "duration": 3, "velocity": 108}, {"time": 1405, "pitch": 73, "duration": 9, "velocity": 117}, {"time": 1414, "pitch": 73, "duration": 3, "velocity": 114}, {"time": 1417, "pitch": 75, "duration": 3, "velocity": 113}, {"time": 1420, "pitch": 82, "duration": 6, "velocity": 116}, {"time": 1426, "pitch": 77, "duration": 3, "velocity": 113}, {"time": 1429, "pitch": 77, "duration": 3, "velocity": 110}, {"time": 1432, "pitch": 75, "duration": 12, "velocity": 113}, {"time": 1444, "pitch": 70, "duration": 6, "velocity": 117}, {"time": 1450, "pitch": 72, "duration": 3, "velocity": 107}, {"time": 1453, "pitch": 73, "duration": 6, "velocity": 110}, {"time": 1459, "pitch": 75, "duration": 6, "velocity": 116}, {"time": 1465, "pitch": 77, "duration": 39, "velocity": 119}, {"time": 1504, "pitch": 73, "duration": 6, "velocity": 119}, {"time": 1510, "pitch": 75, "duration": 6, "velocity": 117}, {"time": 1516, "pitch": 77, "duration": 3, "velocity": 120}, {"time": 1519, "pitch": 73, "duration": 3, "velocity": 116}, {"time": 1522, "pitch": 73, "duration": 3, "velocity": 116}, {"time": 1525, "pitch": 70, "duration": 3, "velocity": 116}, {"time": 1528, "pitch": 70, "duration": 3, "velocity": 117}, {"time": 1531, "pitch": 66, "duration": 3, "velocity": 110}, {"time": 1534, "pitch": 66, "duration": 3, "velocity": 110}, {"time": 1537, "pitch": 77, "duration": 3, "velocity": 113}, {"time": 1540, "pitch": 77, "duration": 3, "velocity": 116}, {"time": 1543, "pitch": 78, "duration": 3, "velocity": 114}, {"time": 1546, "pitch": 77, "duration": 3, "velocity": 113}, {"time": 1549, "pitch": 75, "duration": 15, "velocity": 116}, {"time": 1564, "pitch": 75, "duration": 3, "velocity": 114}, {"time": 1567, "pitch": 72, "duration": 3, "velocity": 113}, {"time": 1570, "pitch": 72, "duration": 3, "velocity": 113}, {"time": 1573, "pitch": 68, "duration": 3, "velocity": 114}, {"time": 1576, "pitch": 68, "duration": 3, "velocity": 114}, {"time": 1579, "pitch": 65, "duration": 3, "velocity": 108}, {"time": 1582, "pitch": 65, "duration": 3, "velocity": 110}, {"time": 1585, "pitch": 75, "duration": 3, "velocity": 113}, {"time": 1588, "pitch": 75, "duration": 3, "velocity": 116}, {"time": 1591, "pitch": 73, "duration": 3, "velocity": 104}, {"time": 1594, "pitch": 72, "duration": 3, "velocity": 108}, {"time": 1597, "pitch": 73, "duration": 9, "velocity": 117}, {"time": 1606, "pitch": 73, "duration": 3, "velocity": 113}, {"time": 1609, "pitch": 65, "duration": 3, "velocity": 113}, {"time": 1612, "pitch": 66, "duration": 6, "velocity": 114}, {"time": 1618, "pitch": 73, "duration": 3, "velocity": 114}, {"time": 1621, "pitch": 73, "duration": 15, "velocity": 117}, {"time": 1636, "pitch": 73, "duration": 6, "velocity": 114}, {"time": 1642, "pitch": 72, "duration": 6, "velocity": 107}, {"time": 1648, "pitch": 70, "duration": 6, "velocity": 113}, {"time": 1654, "pitch": 72, "duration": 6, "velocity": 110}, {"time": 1660, "pitch": 73, "duration": 7, "velocity": 113}, {"time": 1891, "pitch": 61, "duration": 3, "velocity": 90}, {"time": 1894, "pitch": 61, "duration": 3, "velocity": 89}, {"time": 1897, "pitch": 63, "duration": 3, "velocity": 96}, {"time": 1900, "pitch": 63, "duration": 4, "velocity": 110}, {"time": 1903, "pitch": 65, "duration": 6, "velocity": 92}, {"time": 1909, "pitch": 65, "duration": 21, "velocity": 102}, {"time": 1930, "pitch": 65, "duration": 3, "velocity": 91}, {"time": 1933, "pitch": 65, "duration": 3, "velocity": 91}, {"time": 1936, "pitch": 65, "duration": 3, "velocity": 102}, {"time": 1939, "pitch": 63, "duration": 6, "velocity": 86}, {"time": 1945, "pitch": 65, "duration": 3, "velocity": 94}, {"time": 1948, "pitch": 63, "duration": 4, "velocity": 104}, {"time": 1951, "pitch": 61, "duration": 30, "velocity": 108}, {"time": 1981, "pitch": 61, "duration": 3, "velocity": 98}, {"time": 1984, "pitch": 61, "duration": 3, "velocity": 100}, {"time": 1987, "pitch": 63, "duration": 3, "velocity": 96}, {"time": 1990, "pitch": 65, "duration": 3, "velocity": 96}, {"time": 1993, "pitch": 68, "duration": 3, "velocity": 102}, {"time": 1996, "pitch": 70, "duration": 6, "velocity": 110}, {"time": 2002, "pitch": 68, "duration": 3, "velocity": 104}, {"time": 2005, "pitch": 70, "duration": 21, "velocity": 108}, {"time": 2026, "pitch": 70, "duration": 3, "velocity": 113}, {"time": 2029, "pitch": 70, "duration": 3, "velocity": 108}, {"time": 2032, "pitch": 70, "duration": 3, "velocity": 110}, {"time": 2035, "pitch": 70, "duration": 6, "velocity": 113}, {"time": 2041, "pitch": 65, "duration": 3, "velocity": 104}, {"time": 2044, "pitch": 68, "duration": 3, "velocity": 113}, {"time": 2047, "pitch": 70, "duration": 3, "velocity": 91}, {"time": 2050, "pitch": 68, "duration": 27, "velocity": 89}, {"time": 2077, "pitch": 61, "duration": 3, "velocity": 94}, {"time": 2080, "pitch": 61, "duration": 3, "velocity": 96}, {"time": 2083, "pitch": 63, "duration": 3, "velocity": 96}, {"time": 2086, "pitch": 65, "duration": 3, "velocity": 100}, {"time": 2089, "pitch": 68, "duration": 3, "velocity": 100}, {"time": 2092, "pitch": 70, "duration": 6, "velocity": 114}, {"time": 2098, "pitch": 68, "duration": 3, "velocity": 107}, {"time": 2101, "pitch": 70, "duration": 6, "velocity": 113}, {"time": 2107, "pitch": 77, "duration": 15, "velocity": 113}, {"time": 2122, "pitch": 70, "duration": 3, "velocity": 108}, {"time": 2125, "pitch": 70, "duration": 3, "velocity": 108}, {"time": 2128, "pitch": 70, "duration": 6, "velocity": 107}, {"time": 2134, "pitch": 70, "duration": 3, "velocity": 110}, {"time": 2137, "pitch": 65, "duration": 3, "velocity": 110}, {"time": 2140, "pitch": 68, "duration": 6, "velocity": 113}, {"time": 2146, "pitch": 65, "duration": 6, "velocity": 98}, {"time": 2152, "pitch": 68, "duration": 3, "velocity": 107}, {"time": 2155, "pitch": 70, "duration": 6, "velocity": 108}, {"time": 2161, "pitch": 65, "duration": 15, "velocity": 104}, {"time": 2176, "pitch": 58, "duration": 3, "velocity": 108}, {"time": 2179, "pitch": 65, "duration": 6, "velocity": 102}, {"time": 2185, "pitch": 65, "duration": 3, "velocity": 90}, {"time": 2188, "pitch": 65, "duration": 4, "velocity": 107}, {"time": 2191, "pitch": 63, "duration": 9, "velocity": 104}, {"time": 2200, "pitch": 63, "duration": 6, "velocity": 104}, {"time": 2206, "pitch": 61, "duration": 3, "velocity": 104}, {"time": 2209, "pitch": 63, "duration": 15, "velocity": 104}, {"time": 2224, "pitch": 65, "duration": 6, "velocity": 104}, {"time": 2230, "pitch": 58, "duration": 3, "velocity": 91}, {"time": 2233, "pitch": 63, "duration": 6, "velocity": 96}, {"time": 2239, "pitch": 61, "duration": 21, "velocity": 98}, {"time": 2272, "pitch": 73, "duration": 6, "velocity": 119}, {"time": 2278, "pitch": 75, "duration": 6, "velocity": 117}, {"time": 2284, "pitch": 77, "duration": 3, "velocity": 120}, {"time": 2287, "pitch": 73, "duration": 3, "velocity": 116}, {"time": 2290, "pitch": 73, "duration": 3, "velocity": 116}, {"time": 2293, "pitch": 70, "duration": 3, "velocity": 116}, {"time": 2296, "pitch": 70, "duration": 3, "velocity": 117}, {"time": 2299, "pitch": 66, "duration": 3, "velocity": 110}, {"time": 2302, "pitch": 66, "duration": 3, "velocity": 110}, {"time": 2305, "pitch": 77, "duration": 3, "velocity": 113}, {"time": 2308, "pitch": 77, "duration": 3, "velocity": 116}, {"time": 2311, "pitch": 78, "duration": 3, "velocity": 114}, {"time": 2314, "pitch": 77, "duration": 3, "velocity": 113}, {"time": 2317, "pitch": 75, "duration": 15, "velocity": 116}, {"time": 2332, "pitch": 75, "duration": 3, "velocity": 114}, {"time": 2335, "pitch": 72, "duration": 3, "velocity": 113}, {"time": 2338, "pitch": 72, "duration": 3, "velocity": 113}, {"time": 2341, "pitch": 68, "duration": 3, "velocity": 114}, {"time": 2344, "pitch": 68, "duration": 3, "velocity": 114}, {"time": 2347, "pitch": 65, "duration": 3, "velocity": 108}, {"time": 2350, "pitch": 65, "duration": 3, "velocity": 110}, {"time": 2353, "pitch": 75, "duration": 3, "velocity": 113}, {"time": 2356, "pitch": 75, "duration": 3, "velocity": 116}, {"time": 2359, "pitch": 73, "duration": 3, "velocity": 104}, {"time": 2362, "pitch": 72, "duration": 3, "velocity": 108}, {"time": 2365, "pitch": 73, "duration": 9, "velocity": 117}, {"time": 2374, "pitch": 73, "duration": 3, "velocity": 114}, {"time": 2377, "pitch": 75, "duration": 3, "velocity": 113}, {"time": 2380, "pitch": 82, "duration": 6, "velocity": 116}, {"time": 2386, "pitch": 77, "duration": 3, "velocity": 113}, {"time": 2389, "pitch": 77, "duration": 3, "velocity": 110}, {"time": 2392, "pitch": 75, "duration": 12, "velocity": 113}, {"time": 2404, "pitch": 70, "duration": 6, "velocity": 117}, {"time": 2410, "pitch": 72, "duration": 3, "velocity": 107}, {"time": 2413, "pitch": 73, "duration": 6, "velocity": 110}, {"time": 2419, "pitch": 75, "duration": 6, "velocity": 116}, {"time": 2425, "pitch": 77, "duration": 39, "velocity": 119}, {"time": 2464, "pitch": 73, "duration": 6, "velocity": 119}, {"time": 2470, "pitch": 75, "duration": 6, "velocity": 117}, {"time": 2476, "pitch": 77, "duration": 3, "velocity": 120}, {"time": 2479, "pitch": 73, "duration": 3, "velocity": 116}, {"time": 2482, "pitch": 73, "duration": 3, "velocity": 116}, {"time": 2485, "pitch": 70, "duration": 3, "velocity": 116}, {"time": 2488, "pitch": 70, "duration": 3, "velocity": 117}, {"time": 2491, "pitch": 66, "duration": 3, "velocity": 110}, {"time": 2494, "pitch": 66, "duration": 3, "velocity": 110}, {"time": 2497, "pitch": 77, "duration": 3, "velocity": 113}, {"time": 2500, "pitch": 77, "duration": 3, "velocity": 116}, {"time": 2503, "pitch": 78, "duration": 3, "velocity": 114}, {"time": 2506, "pitch": 77, "duration": 3, "velocity": 113}, {"time": 2509, "pitch": 75, "duration": 15, "velocity": 116}, {"time": 2524, "pitch": 75, "duration": 3, "velocity": 114}, {"time": 2527, "pitch": 72, "duration": 3, "velocity": 113}, {"time": 2530, "pitch": 72, "duration": 3, "velocity": 113}, {"time": 2533, "pitch": 68, "duration": 3, "velocity": 114}, {"time": 2536, "pitch": 68, "duration": 3, "velocity": 114}, {"time": 2539, "pitch": 65, "duration": 3, "velocity": 108}, {"time": 2542, "pitch": 65, "duration": 3, "velocity": 110}, {"time": 2545, "pitch": 75, "duration": 3, "velocity": 113}, {"time": 2548, "pitch": 75, "duration": 3, "velocity": 116}, {"time": 2551, "pitch": 73, "duration": 3, "velocity": 104}, {"time": 2554, "pitch": 72, "duration": 3, "velocity": 108}, {"time": 2557, "pitch": 73, "duration": 9, "velocity": 117}, {"time": 2566, "pitch": 73, "duration": 3, "velocity": 113}, {"time": 2569, "pitch": 65, "duration": 3, "velocity": 113}, {"time": 2572, "pitch": 66, "duration": 6, "velocity": 114}, {"time": 2578, "pitch": 73, "duration": 3, "velocity": 114}, {"time": 2581, "pitch": 73, "duration": 15, "velocity": 117}, {"time": 2596, "pitch": 73, "duration": 6, "velocity": 114}, {"time": 2602, "pitch": 72, "duration": 6, "velocity": 107}, {"time": 2608, "pitch": 70, "duration": 6, "velocity": 113}, {"time": 2614, "pitch": 72, "duration": 3, "velocity": 110}, {"time": 2617, "pitch": 73, "duration": 10, "velocity": 113}, {"time": 2656, "pitch": 73, "duration": 6, "velocity": 119}, {"time": 2662, "pitch": 75, "duration": 6, "velocity": 117}, {"time": 2668, "pitch": 77, "duration": 3, "velocity": 120}, {"time": 2671, "pitch": 73, "duration": 3, "velocity": 116}, {"time": 2674, "pitch": 73, "duration": 3, "velocity": 116}, {"time": 2677, "pitch": 70, "duration": 3, "velocity": 116}, {"time": 2680, "pitch": 70, "duration": 3, "velocity": 117}, {"time": 2683, "pitch": 66, "duration": 3, "velocity": 110}, {"time": 2686, "pitch": 66, "duration": 3, "velocity": 110}, {"time": 2689, "pitch": 77, "duration": 3, "velocity": 113}, {"time": 2692, "pitch": 77, "duration": 3, "velocity": 116}, {"time": 2695, "pitch": 78, "duration": 3, "velocity": 114}, {"time": 2698, "pitch": 77, "duration": 3, "velocity": 113}, {"time": 2701, "pitch": 75, "duration": 15, "velocity": 116}, {"time": 2740, "pitch": 75, "duration": 3, "velocity": 114}, {"time": 2743, "pitch": 72, "duration": 3, "velocity": 113}, {"time": 2746, "pitch": 72, "duration": 3, "velocity": 113}, {"time": 2749, "pitch": 68, "duration": 3, "velocity": 114}, {"time": 2752, "pitch": 68, "duration": 3, "velocity": 114}, {"time": 2755, "pitch": 65, "duration": 3, "velocity": 108}, {"time": 2758, "pitch": 65, "duration": 3, "velocity": 110}, {"time": 2761, "pitch": 75, "duration": 3, "velocity": 113}, {"time": 2764, "pitch": 75, "duration": 3, "velocity": 116}, {"time": 2767, "pitch": 73, "duration": 3, "velocity": 104}, {"time": 2770, "pitch": 72, "duration": 3, "velocity": 108}, {"time": 2773, "pitch": 73, "duration": 9, "velocity": 117}, {"time": 2782, "pitch": 73, "duration": 3, "velocity": 114}, {"time": 2785, "pitch": 75, "duration": 3, "velocity": 113}, {"time": 2788, "pitch": 82, "duration": 6, "velocity": 116}, {"time": 2794, "pitch": 77, "duration": 3, "velocity": 113}, {"time": 2797, "pitch": 77, "duration": 3, "velocity": 110}, {"time": 2800, "pitch": 75, "duration": 12, "velocity": 113}, {"time": 2812, "pitch": 70, "duration": 6, "velocity": 117}, {"time": 2818, "pitch": 72, "duration": 3, "velocity": 107}, {"time": 2821, "pitch": 73, "duration": 6, "velocity": 110}, {"time": 2827, "pitch": 80, "duration": 6, "velocity": 116}, {"time": 2833, "pitch": 80, "duration": 6, "velocity": 119}, {"time": 2839, "pitch": 75, "duration": 3, "velocity": 119}, {"time": 2842, "pitch": 77, "duration": 30, "velocity": 119}, {"time": 2872, "pitch": 73, "duration": 6, "velocity": 119}, {"time": 2878, "pitch": 75, "duration": 6, "velocity": 117}, {"time": 2884, "pitch": 77, "duration": 3, "velocity": 120}, {"time": 2887, "pitch": 73, "duration": 3, "velocity": 116}, {"time": 2890, "pitch": 73, "duration": 3, "velocity": 116}, {"time": 2893, "pitch": 70, "duration": 3, "velocity": 116}, {"time": 2896, "pitch": 70, "duration": 3, "velocity": 117}, {"time": 2899, "pitch": 66, "duration": 3, "velocity": 110}, {"time": 2902, "pitch": 66, "duration": 3, "velocity": 110}, {"time": 2905, "pitch": 77, "duration": 3, "velocity": 113}, {"time": 2908, "pitch": 77, "duration": 3, "velocity": 116}, {"time": 2911, "pitch": 78, "duration": 3, "velocity": 114}, {"time": 2914, "pitch": 77, "duration": 3, "velocity": 113}, {"time": 2917, "pitch": 75, "duration": 15, "velocity": 116}, {"time": 2932, "pitch": 75, "duration": 3, "velocity": 114}, {"time": 2935, "pitch": 72, "duration": 3, "velocity": 113}, {"time": 2938, "pitch": 72, "duration": 3, "velocity": 113}, {"time": 2941, "pitch": 68, "duration": 3, "velocity": 114}, {"time": 2944, "pitch": 68, "duration": 3, "velocity": 114}, {"time": 2947, "pitch": 65, "duration": 3, "velocity": 108}, {"time": 2950, "pitch": 65, "duration": 3, "velocity": 110}, {"time": 2953, "pitch": 75, "duration": 3, "velocity": 113}, {"time": 2956, "pitch": 75, "duration": 3, "velocity": 116}, {"time": 2959, "pitch": 73, "duration": 3, "velocity": 104}, {"time": 2962, "pitch": 72, "duration": 3, "velocity": 108}, {"time": 2965, "pitch": 73, "duration": 9, "velocity": 117}, {"time": 2974, "pitch": 73, "duration": 3, "velocity": 113}, {"time": 2977, "pitch": 65, "duration": 3, "velocity": 113}, {"time": 2980, "pitch": 66, "duration": 6, "velocity": 114}, {"time": 2986, "pitch": 73, "duration": 3, "velocity": 114}, {"time": 2989, "pitch": 73, "duration": 15, "velocity": 117}, {"time": 3004, "pitch": 73, "duration": 6, "velocity": 114}, {"time": 3010, "pitch": 72, "duration": 6, "velocity": 107}, {"time": 3016, "pitch": 70, "duration": 12, "velocity": 113}, {"time": 3028, "pitch": 72, "duration": 6, "velocity": 110}, {"time": 3034, "pitch": 73, "duration": 18, "velocity": 113}]}, {"program": 0, "is_drum": false, "name": "PIANO", "notes": [{"time": 556, "pitch": 49, "duration": 20, "velocity": 88}, {"time": 559, "pitch": 56, "duration": 21, "velocity": 81}, {"time": 562, "pitch": 61, "duration": 9, "velocity": 78}, {"time": 565, "pitch": 68, "duration": 14, "velocity": 110}, {"time": 571, "pitch": 63, "duration": 10, "velocity": 87}, {"time": 580, "pitch": 48, "duration": 23, "velocity": 86}, {"time": 583, "pitch": 56, "duration": 15, "velocity": 81}, {"time": 586, "pitch": 63, "duration": 2, "velocity": 74}, {"time": 589, "pitch": 68, "duration": 16, "velocity": 108}, {"time": 595, "pitch": 63, "duration": 9, "velocity": 83}, {"time": 604, "pitch": 46, "duration": 21, "velocity": 88}, {"time": 607, "pitch": 53, "duration": 21, "velocity": 70}, {"time": 610, "pitch": 58, "duration": 15, "velocity": 83}, {"time": 613, "pitch": 70, "duration": 5, "velocity": 108}, {"time": 619, "pitch": 63, "duration": 1, "velocity": 83}, {"time": 619, "pitch": 65, "duration": 6, "velocity": 84}, {"time": 625, "pitch": 61, "duration": 7, "velocity": 83}, {"time": 628, "pitch": 46, "duration": 19, "velocity": 83}, {"time": 631, "pitch": 53, "duration": 7, "velocity": 87}, {"time": 634, "pitch": 58, "duration": 3, "velocity": 77}, {"time": 637, "pitch": 68, "duration": 16, "velocity": 104}, {"time": 643, "pitch": 53, "duration": 4, "velocity": 83}, {"time": 646, "pitch": 58, "duration": 5, "velocity": 84}, {"time": 649, "pitch": 61, "duration": 6, "velocity": 86}, {"time": 652, "pitch": 42, "duration": 21, "velocity": 90}, {"time": 655, "pitch": 49, "duration": 21, "velocity": 81}, {"time": 658, "pitch": 54, "duration": 16, "velocity": 85}, {"time": 661, "pitch": 68, "duration": 17, "velocity": 113}, {"time": 670, "pitch": 61, "duration": 6, "velocity": 68}, {"time": 676, "pitch": 44, "duration": 19, "velocity": 87}, {"time": 679, "pitch": 51, "duration": 17, "velocity": 84}, {"time": 682, "pitch": 56, "duration": 6, "velocity": 87}, {"time": 685, "pitch": 68, "duration": 15, "velocity": 114}, {"time": 691, "pitch": 56, "duration": 7, "velocity": 81}, {"time": 694, "pitch": 63, "duration": 6, "velocity": 87}, {"time": 697, "pitch": 60, "duration": 3, "velocity": 87}, {"time": 700, "pitch": 49, "duration": 22, "velocity": 89}, {"time": 703, "pitch": 56, "duration": 21, "velocity": 78}, {"time": 706, "pitch": 61, "duration": 6, "velocity": 83}, {"time": 709, "pitch": 68, "duration": 10, "velocity": 107}, {"time": 715, "pitch": 61, "duration": 5, "velocity": 82}, {"time": 718, "pitch": 63, "duration": 3, "velocity": 82}, {"time": 721, "pitch": 65, "duration": 8, "velocity": 98}, {"time": 724, "pitch": 49, "duration": 18, "velocity": 88}, {"time": 727, "pitch": 56, "duration": 7, "velocity": 87}, {"time": 730, "pitch": 63, "duration": 2, "velocity": 87}, {"time": 733, "pitch": 68, "duration": 6, "velocity": 110}, {"time": 736, "pitch": 56, "duration": 5, "velocity": 88}, {"time": 739, "pitch": 63, "duration": 2, "velocity": 88}, {"time": 742, "pitch": 65, "duration": 3, "velocity": 102}, {"time": 745, "pitch": 68, "duration": 11, "velocity": 91}, {"time": 748, "pitch": 42, "duration": 21, "velocity": 87}, {"time": 751, "pitch": 49, "duration": 21, "velocity": 78}, {"time": 754, "pitch": 54, "duration": 17, "velocity": 84}, {"time": 757, "pitch": 61, "duration": 6, "velocity": 88}, {"time": 757, "pitch": 68, "duration": 10, "velocity": 71}, {"time": 763, "pitch": 58, "duration": 8, "velocity": 84}, {"time": 769, "pitch": 61, "duration": 3, "velocity": 81}, {"time": 772, "pitch": 44, "duration": 20, "velocity": 87}, {"time": 775, "pitch": 51, "duration": 16, "velocity": 85}, {"time": 778, "pitch": 56, "duration": 8, "velocity": 96}, {"time": 781, "pitch": 68, "duration": 14, "velocity": 110}, {"time": 784, "pitch": 63, "duration": 7, "velocity": 88}, {"time": 787, "pitch": 56, "duration": 3, "velocity": 88}, {"time": 790, "pitch": 60, "duration": 6, "velocity": 82}, {"time": 796, "pitch": 41, "duration": 18, "velocity": 92}, {"time": 799, "pitch": 53, "duration": 7, "velocity": 89}, {"time": 802, "pitch": 60, "duration": 2, "velocity": 84}, {"time": 805, "pitch": 68, "duration": 11, "velocity": 114}, {"time": 811, "pitch": 53, "duration": 5, "velocity": 86}, {"time": 814, "pitch": 65, "duration": 13, "velocity": 88}, {"time": 817, "pitch": 53, "duration": 2, "velocity": 38}, {"time": 820, "pitch": 46, "duration": 21, "velocity": 88}, {"time": 823, "pitch": 53, "duration": 18, "velocity": 82}, {"time": 826, "pitch": 58, "duration": 6, "velocity": 88}, {"time": 829, "pitch": 68, "duration": 6, "velocity": 110}, {"time": 832, "pitch": 61, "duration": 12, "velocity": 96}, {"time": 835, "pitch": 58, "duration": 7, "velocity": 96}, {"time": 844, "pitch": 51, "duration": 20, "velocity": 91}, {"time": 847, "pitch": 58, "duration": 16, "velocity": 84}, {"time": 850, "pitch": 63, "duration": 2, "velocity": 80}, {"time": 853, "pitch": 66, "duration": 13, "velocity": 114}, {"time": 859, "pitch": 63, "duration": 10, "velocity": 91}, {"time": 868, "pitch": 51, "duration": 20, "velocity": 91}, {"time": 871, "pitch": 58, "duration": 17, "velocity": 79}, {"time": 874, "pitch": 63, "duration": 4, "velocity": 82}, {"time": 877, "pitch": 68, "duration": 12, "velocity": 102}, {"time": 889, "pitch": 63, "duration": 11, "velocity": 86}, {"time": 892, "pitch": 44, "duration": 21, "velocity": 84}, {"time": 895, "pitch": 51, "duration": 20, "velocity": 75}, {"time": 898, "pitch": 56, "duration": 6, "velocity": 86}, {"time": 901, "pitch": 63, "duration": 9, "velocity": 113}, {"time": 907, "pitch": 56, "duration": 6, "velocity": 80}, {"time": 910, "pitch": 61, "duration": 3, "velocity": 84}, {"time": 913, "pitch": 63, "duration": 3, "velocity": 88}, {"time": 916, "pitch": 44, "duration": 16, "velocity": 84}, {"time": 916, "pitch": 60, "duration": 15, "velocity": 87}, {"time": 916, "pitch": 68, "duration": 15, "velocity": 91}, {"time": 940, "pitch": 49, "duration": 21, "velocity": 98}, {"time": 943, "pitch": 56, "duration": 9, "velocity": 82}, {"time": 946, "pitch": 63, "duration": 15, "velocity": 78}, {"time": 949, "pitch": 68, "duration": 11, "velocity": 114}, {"time": 955, "pitch": 56, "duration": 10, "velocity": 84}, {"time": 961, "pitch": 65, "duration": 7, "velocity": 83}, {"time": 964, "pitch": 48, "duration": 21, "velocity": 89}, {"time": 967, "pitch": 56, "duration": 10, "velocity": 84}, {"time": 970, "pitch": 63, "duration": 2, "velocity": 88}, {"time": 973, "pitch": 68, "duration": 9, "velocity": 108}, {"time": 979, "pitch": 56, "duration": 4, "velocity": 88}, {"time": 982, "pitch": 63, "duration": 3, "velocity": 88}, {"time": 985, "pitch": 68, "duration": 10, "velocity": 89}, {"time": 988, "pitch": 46, "duration": 22, "velocity": 87}, {"time": 991, "pitch": 53, "duration": 21, "velocity": 82}, {"time": 994, "pitch": 58, "duration": 7, "velocity": 84}, {"time": 997, "pitch": 61, "duration": 3, "velocity": 84}, {"time": 1000, "pitch": 63, "duration": 6, "velocity": 102}, {"time": 1003, "pitch": 58, "duration": 6, "velocity": 88}, {"time": 1006, "pitch": 61, "duration": 2, "velocity": 79}, {"time": 1009, "pitch": 68, "duration": 8, "velocity": 98}, {"time": 1012, "pitch": 44, "duration": 18, "velocity": 88}, {"time": 1015, "pitch": 53, "duration": 14, "velocity": 80}, {"time": 1018, "pitch": 60, "duration": 2, "velocity": 79}, {"time": 1021, "pitch": 68, "duration": 6, "velocity": 113}, {"time": 1024, "pitch": 56, "duration": 4, "velocity": 87}, {"time": 1027, "pitch": 63, "duration": 5, "velocity": 100}, {"time": 1030, "pitch": 60, "duration": 3, "velocity": 91}, {"time": 1033, "pitch": 68, "duration": 11, "velocity": 92}, {"time": 1036, "pitch": 42, "duration": 21, "velocity": 87}, {"time": 1036, "pitch": 61, "duration": 9, "velocity": 91}, {"time": 1039, "pitch": 49, "duration": 21, "velocity": 71}, {"time": 1042, "pitch": 54, "duration": 5, "velocity": 81}, {"time": 1045, "pitch": 68, "duration": 18, "velocity": 108}, {"time": 1051, "pitch": 54, "duration": 9, "velocity": 81}, {"time": 1054, "pitch": 61, "duration": 9, "velocity": 84}, {"time": 1057, "pitch": 58, "duration": 5, "velocity": 90}, {"time": 1060, "pitch": 44, "duration": 19, "velocity": 88}, {"time": 1063, "pitch": 51, "duration": 16, "velocity": 87}, {"time": 1066, "pitch": 60, "duration": 2, "velocity": 86}, {"time": 1069, "pitch": 68, "duration": 11, "velocity": 104}, {"time": 1075, "pitch": 56, "duration": 8, "velocity": 81}, {"time": 1078, "pitch": 60, "duration": 6, "velocity": 87}, {"time": 1081, "pitch": 63, "duration": 3, "velocity": 86}, {"time": 1084, "pitch": 49, "duration": 22, "velocity": 86}, {"time": 1084, "pitch": 65, "duration": 4, "velocity": 88}, {"time": 1087, "pitch": 56, "duration": 21, "velocity": 72}, {"time": 1090, "pitch": 61, "duration": 5, "velocity": 85}, {"time": 1093, "pitch": 63, "duration": 9, "velocity": 102}, {"time": 1093, "pitch": 68, "duration": 7, "velocity": 108}, {"time": 1099, "pitch": 61, "duration": 5, "velocity": 77}, {"time": 1102, "pitch": 65, "duration": 2, "velocity": 86}, {"time": 1105, "pitch": 68, "duration": 8, "velocity": 110}, {"time": 1108, "pitch": 49, "duration": 19, "velocity": 86}, {"time": 1111, "pitch": 56, "duration": 7, "velocity": 86}, {"time": 1114, "pitch": 63, "duration": 3, "velocity": 102}, {"time": 1117, "pitch": 61, "duration": 5, "velocity": 102}, {"time": 1120, "pitch": 56, "duration": 7, "velocity": 89}, {"time": 1123, "pitch": 60, "duration": 1, "velocity": 87}, {"time": 1126, "pitch": 59, "duration": 5, "velocity": 103}, {"time": 1132, "pitch": 42, "duration": 21, "velocity": 96}, {"time": 1135, "pitch": 54, "duration": 8, "velocity": 89}, {"time": 1138, "pitch": 58, "duration": 4, "velocity": 79}, {"time": 1141, "pitch": 66, "duration": 9, "velocity": 108}, {"time": 1147, "pitch": 54, "duration": 9, "velocity": 86}, {"time": 1150, "pitch": 61, "duration": 7, "velocity": 88}, {"time": 1153, "pitch": 58, "duration": 4, "velocity": 92}, {"time": 1156, "pitch": 44, "duration": 20, "velocity": 88}, {"time": 1159, "pitch": 51, "duration": 16, "velocity": 86}, {"time": 1162, "pitch": 60, "duration": 2, "velocity": 87}, {"time": 1165, "pitch": 60, "duration": 1, "velocity": 68}, {"time": 1165, "pitch": 68, "duration": 11, "velocity": 116}, {"time": 1171, "pitch": 56, "duration": 3, "velocity": 86}, {"time": 1174, "pitch": 63, "duration": 10, "velocity": 83}, {"time": 1177, "pitch": 60, "duration": 4, "velocity": 91}, {"time": 1180, "pitch": 41, "duration": 17, "velocity": 93}, {"time": 1183, "pitch": 53, "duration": 7, "velocity": 90}, {"time": 1186, "pitch": 60, "duration": 2, "velocity": 88}, {"time": 1189, "pitch": 68, "duration": 9, "velocity": 110}, {"time": 1195, "pitch": 53, "duration": 9, "velocity": 86}, {"time": 1198, "pitch": 65, "duration": 9, "velocity": 91}, {"time": 1204, "pitch": 46, "duration": 19, "velocity": 87}, {"time": 1207, "pitch": 53, "duration": 16, "velocity": 81}, {"time": 1210, "pitch": 58, "duration": 6, "velocity": 89}, {"time": 1213, "pitch": 60, "duration": 3, "velocity": 88}, {"time": 1216, "pitch": 61, "duration": 4, "velocity": 108}, {"time": 1219, "pitch": 58, "duration": 8, "velocity": 98}, {"time": 1222, "pitch": 65, "duration": 3, "velocity": 98}, {"time": 1225, "pitch": 68, "duration": 3, "velocity": 96}, {"time": 1228, "pitch": 51, "duration": 20, "velocity": 84}, {"time": 1228, "pitch": 63, "duration": 10, "velocity": 88}, {"time": 1234, "pitch": 58, "duration": 8, "velocity": 81}, {"time": 1237, "pitch": 66, "duration": 10, "velocity": 96}, {"time": 1243, "pitch": 58, "duration": 4, "velocity": 86}, {"time": 1246, "pitch": 63, "duration": 3, "velocity": 88}, {"time": 1249, "pitch": 66, "duration": 11, "velocity": 91}, {"time": 1252, "pitch": 44, "duration": 20, "velocity": 88}, {"time": 1255, "pitch": 51, "duration": 17, "velocity": 83}, {"time": 1258, "pitch": 56, "duration": 7, "velocity": 87}, {"time": 1261, "pitch": 60, "duration": 6, "velocity": 86}, {"time": 1264, "pitch": 63, "duration": 14, "velocity": 90}, {"time": 1270, "pitch": 56, "duration": 5, "velocity": 81}, {"time": 1273, "pitch": 60, "duration": 4, "velocity": 84}, {"time": 1276, "pitch": 49, "duration": 21, "velocity": 87}, {"time": 1279, "pitch": 56, "duration": 21, "velocity": 83}, {"time": 1282, "pitch": 63, "duration": 2, "velocity": 77}, {"time": 1285, "pitch": 68, "duration": 9, "velocity": 113}, {"time": 1291, "pitch": 61, "duration": 3, "velocity": 82}, {"time": 1294, "pitch": 63, "duration": 5, "velocity": 81}, {"time": 1297, "pitch": 65, "duration": 3, "velocity": 73}, {"time": 1300, "pitch": 49, "duration": 18, "velocity": 83}, {"time": 1300, "pitch": 61, "duration": 6, "velocity": 87}, {"time": 1309, "pitch": 56, "duration": 9, "velocity": 78}, {"time": 1312, "pitch": 61, "duration": 5, "velocity": 88}, {"time": 1315, "pitch": 63, "duration": 3, "velocity": 87}, {"time": 1318, "pitch": 65, "duration": 3, "velocity": 88}, {"time": 1321, "pitch": 68, "duration": 1, "velocity": 40}, {"time": 1324, "pitch": 46, "duration": 19, "velocity": 102}, {"time": 1324, "pitch": 61, "duration": 13, "velocity": 107}, {"time": 1324, "pitch": 65, "duration": 14, "velocity": 114}, {"time": 1324, "pitch": 70, "duration": 13, "velocity": 110}, {"time": 1333, "pitch": 58, "duration": 2, "velocity": 86}, {"time": 1336, "pitch": 58, "duration": 6, "velocity": 96}, {"time": 1339, "pitch": 61, "duration": 2, "velocity": 91}, {"time": 1342, "pitch": 65, "duration": 3, "velocity": 113}, {"time": 1345, "pitch": 70, "duration": 1, "velocity": 110}, {"time": 1348, "pitch": 44, "duration": 19, "velocity": 93}, {"time": 1348, "pitch": 60, "duration": 7, "velocity": 107}, {"time": 1348, "pitch": 63, "duration": 8, "velocity": 116}, {"time": 1348, "pitch": 68, "duration": 6, "velocity": 107}, {"time": 1357, "pitch": 56, "duration": 3, "velocity": 83}, {"time": 1360, "pitch": 60, "duration": 4, "velocity": 113}, {"time": 1363, "pitch": 56, "duration": 3, "velocity": 114}, {"time": 1366, "pitch": 63, "duration": 5, "velocity": 117}, {"time": 1369, "pitch": 68, "duration": 2, "velocity": 100}, {"time": 1372, "pitch": 41, "duration": 18, "velocity": 100}, {"time": 1372, "pitch": 60, "duration": 9, "velocity": 107}, {"time": 1372, "pitch": 65, "duration": 9, "velocity": 116}, {"time": 1372, "pitch": 68, "duration": 9, "velocity": 91}, {"time": 1381, "pitch": 53, "duration": 4, "velocity": 102}, {"time": 1384, "pitch": 60, "duration": 5, "velocity": 114}, {"time": 1384, "pitch": 68, "duration": 4, "velocity": 110}, {"time": 1387, "pitch": 53, "duration": 7, "velocity": 107}, {"time": 1390, "pitch": 65, "duration": 3, "velocity": 113}, {"time": 1393, "pitch": 68, "duration": 2, "velocity": 91}, {"time": 1396, "pitch": 46, "duration": 19, "velocity": 98}, {"time": 1396, "pitch": 58, "duration": 9, "velocity": 98}, {"time": 1396, "pitch": 61, "duration": 9, "velocity": 110}, {"time": 1396, "pitch": 68, "duration": 9, "velocity": 89}, {"time": 1405, "pitch": 53, "duration": 4, "velocity": 90}, {"time": 1408, "pitch": 58, "duration": 5, "velocity": 114}, {"time": 1408, "pitch": 68, "duration": 5, "velocity": 84}, {"time": 1411, "pitch": 53, "duration": 4, "velocity": 108}, {"time": 1414, "pitch": 61, "duration": 4, "velocity": 116}, {"time": 1420, "pitch": 51, "duration": 40, "velocity": 96}, {"time": 1420, "pitch": 58, "duration": 3, "velocity": 102}, {"time": 1420, "pitch": 63, "duration": 9, "velocity": 114}, {"time": 1420, "pitch": 66, "duration": 9, "velocity": 104}, {"time": 1429, "pitch": 58, "duration": 5, "velocity": 90}, {"time": 1432, "pitch": 63, "duration": 8, "velocity": 117}, {"time": 1432, "pitch": 65, "duration": 3, "velocity": 98}, {"time": 1432, "pitch": 66, "duration": 9, "velocity": 98}, {"time": 1441, "pitch": 58, "duration": 13, "velocity": 92}, {"time": 1444, "pitch": 63, "duration": 9, "velocity": 113}, {"time": 1450, "pitch": 66, "duration": 6, "velocity": 100}, {"time": 1453, "pitch": 70, "duration": 8, "velocity": 108}, {"time": 1456, "pitch": 58, "duration": 4, "velocity": 113}, {"time": 1459, "pitch": 63, "duration": 3, "velocity": 114}, {"time": 1468, "pitch": 41, "duration": 21, "velocity": 96}, {"time": 1468, "pitch": 58, "duration": 8, "velocity": 110}, {"time": 1471, "pitch": 48, "duration": 18, "velocity": 84}, {"time": 1474, "pitch": 53, "duration": 6, "velocity": 94}, {"time": 1477, "pitch": 58, "duration": 3, "velocity": 116}, {"time": 1480, "pitch": 60, "duration": 5, "velocity": 116}, {"time": 1483, "pitch": 53, "duration": 7, "velocity": 113}, {"time": 1486, "pitch": 58, "duration": 3, "velocity": 104}, {"time": 1489, "pitch": 60, "duration": 3, "velocity": 87}, {"time": 1492, "pitch": 41, "duration": 19, "velocity": 93}, {"time": 1492, "pitch": 57, "duration": 9, "velocity": 106}, {"time": 1492, "pitch": 65, "duration": 9, "velocity": 91}, {"time": 1501, "pitch": 53, "duration": 3, "velocity": 108}, {"time": 1504, "pitch": 57, "duration": 5, "velocity": 116}, {"time": 1504, "pitch": 65, "duration": 3, "velocity": 107}, {"time": 1507, "pitch": 53, "duration": 7, "velocity": 110}, {"time": 1510, "pitch": 57, "duration": 1, "velocity": 72}, {"time": 1510, "pitch": 60, "duration": 4, "velocity": 104}, {"time": 1513, "pitch": 65, "duration": 2, "velocity": 94}, {"time": 1516, "pitch": 46, "duration": 21, "velocity": 86}, {"time": 1516, "pitch": 58, "duration": 3, "velocity": 98}, {"time": 1516, "pitch": 61, "duration": 9, "velocity": 104}, {"time": 1516, "pitch": 65, "duration": 9, "velocity": 92}, {"time": 1525, "pitch": 53, "duration": 4, "velocity": 88}, {"time": 1528, "pitch": 58, "duration": 9, "velocity": 110}, {"time": 1528, "pitch": 65, "duration": 10, "velocity": 110}, {"time": 1534, "pitch": 53, "duration": 6, "velocity": 86}, {"time": 1540, "pitch": 44, "duration": 19, "velocity": 93}, {"time": 1540, "pitch": 60, "duration": 8, "velocity": 91}, {"time": 1540, "pitch": 63, "duration": 9, "velocity": 98}, {"time": 1540, "pitch": 68, "duration": 8, "velocity": 93}, {"time": 1546, "pitch": 53, "duration": 10, "velocity": 86}, {"time": 1552, "pitch": 60, "duration": 4, "velocity": 113}, {"time": 1555, "pitch": 56, "duration": 2, "velocity": 94}, {"time": 1558, "pitch": 63, "duration": 4, "velocity": 116}, {"time": 1561, "pitch": 68, "duration": 11, "velocity": 100}, {"time": 1564, "pitch": 41, "duration": 18, "velocity": 91}, {"time": 1564, "pitch": 60, "duration": 9, "velocity": 100}, {"time": 1564, "pitch": 65, "duration": 9, "velocity": 108}, {"time": 1573, "pitch": 53, "duration": 3, "velocity": 108}, {"time": 1576, "pitch": 60, "duration": 8, "velocity": 110}, {"time": 1576, "pitch": 65, "duration": 7, "velocity": 114}, {"time": 1576, "pitch": 68, "duration": 7, "velocity": 108}, {"time": 1582, "pitch": 53, "duration": 6, "velocity": 86}, {"time": 1585, "pitch": 65, "duration": 2, "velocity": 87}, {"time": 1585, "pitch": 68, "duration": 2, "velocity": 90}, {"time": 1588, "pitch": 46, "duration": 19, "velocity": 88}, {"time": 1588, "pitch": 58, "duration": 8, "velocity": 102}, {"time": 1588, "pitch": 61, "duration": 9, "velocity": 108}, {"time": 1588, "pitch": 65, "duration": 9, "velocity": 91}, {"time": 1588, "pitch": 68, "duration": 9, "velocity": 87}, {"time": 1597, "pitch": 53, "duration": 4, "velocity": 86}, {"time": 1600, "pitch": 58, "duration": 5, "velocity": 110}, {"time": 1600, "pitch": 65, "duration": 5, "velocity": 108}, {"time": 1600, "pitch": 68, "duration": 5, "velocity": 102}, {"time": 1603, "pitch": 53, "duration": 4, "velocity": 93}, {"time": 1606, "pitch": 61, "duration": 4, "velocity": 110}, {"time": 1606, "pitch": 65, "duration": 3, "velocity": 83}, {"time": 1612, "pitch": 42, "duration": 20, "velocity": 96}, {"time": 1612, "pitch": 58, "duration": 9, "velocity": 110}, {"time": 1612, "pitch": 61, "duration": 9, "velocity": 114}, {"time": 1612, "pitch": 66, "duration": 8, "velocity": 104}, {"time": 1621, "pitch": 54, "duration": 5, "velocity": 96}, {"time": 1624, "pitch": 58, "duration": 8, "velocity": 110}, {"time": 1624, "pitch": 66, "duration": 9, "velocity": 110}, {"time": 1630, "pitch": 54, "duration": 4, "velocity": 81}, {"time": 1636, "pitch": 44, "duration": 19, "velocity": 92}, {"time": 1636, "pitch": 60, "duration": 9, "velocity": 96}, {"time": 1636, "pitch": 63, "duration": 9, "velocity": 110}, {"time": 1636, "pitch": 68, "duration": 9, "velocity": 107}, {"time": 1645, "pitch": 56, "duration": 5, "velocity": 94}, {"time": 1648, "pitch": 60, "duration": 8, "velocity": 108}, {"time": 1648, "pitch": 63, "duration": 10, "velocity": 116}, {"time": 1648, "pitch": 68, "duration": 8, "velocity": 113}, {"time": 1654, "pitch": 56, "duration": 5, "velocity": 81}, {"time": 1660, "pitch": 49, "duration": 37, "velocity": 87}, {"time": 1660, "pitch": 61, "duration": 10, "velocity": 98}, {"time": 1660, "pitch": 65, "duration": 10, "velocity": 110}, {"time": 1660, "pitch": 68, "duration": 10, "velocity": 107}, {"time": 1669, "pitch": 56, "duration": 27, "velocity": 86}, {"time": 1675, "pitch": 61, "duration": 3, "velocity": 90}, {"time": 1678, "pitch": 65, "duration": 2, "velocity": 108}, {"time": 1681, "pitch": 66, "duration": 3, "velocity": 90}, {"time": 1684, "pitch": 61, "duration": 12, "velocity": 88}, {"time": 1684, "pitch": 65, "duration": 12, "velocity": 96}, {"time": 1708, "pitch": 46, "duration": 19, "velocity": 92}, {"time": 1714, "pitch": 53, "duration": 18, "velocity": 71}, {"time": 1717, "pitch": 58, "duration": 10, "velocity": 86}, {"time": 1720, "pitch": 68, "duration": 10, "velocity": 100}, {"time": 1729, "pitch": 65, "duration": 10, "velocity": 86}, {"time": 1732, "pitch": 44, "duration": 20, "velocity": 87}, {"time": 1738, "pitch": 53, "duration": 12, "velocity": 78}, {"time": 1741, "pitch": 63, "duration": 6, "velocity": 91}, {"time": 1747, "pitch": 60, "duration": 12, "velocity": 83}, {"time": 1753, "pitch": 68, "duration": 8, "velocity": 87}, {"time": 1756, "pitch": 41, "duration": 18, "velocity": 88}, {"time": 1762, "pitch": 53, "duration": 7, "velocity": 80}, {"time": 1765, "pitch": 60, "duration": 2, "velocity": 82}, {"time": 1768, "pitch": 65, "duration": 6, "velocity": 116}, {"time": 1771, "pitch": 53, "duration": 9, "velocity": 89}, {"time": 1774, "pitch": 60, "duration": 6, "velocity": 81}, {"time": 1777, "pitch": 65, "duration": 6, "velocity": 86}, {"time": 1780, "pitch": 46, "duration": 18, "velocity": 88}, {"time": 1786, "pitch": 53, "duration": 7, "velocity": 74}, {"time": 1789, "pitch": 58, "duration": 3, "velocity": 86}, {"time": 1792, "pitch": 61, "duration": 4, "velocity": 107}, {"time": 1795, "pitch": 53, "duration": 4, "velocity": 94}, {"time": 1798, "pitch": 65, "duration": 6, "velocity": 114}, {"time": 1804, "pitch": 51, "duration": 19, "velocity": 84}, {"time": 1804, "pitch": 63, "duration": 11, "velocity": 78}, {"time": 1804, "pitch": 66, "duration": 3, "velocity": 86}, {"time": 1813, "pitch": 58, "duration": 9, "velocity": 82}, {"time": 1816, "pitch": 66, "duration": 11, "velocity": 114}, {"time": 1828, "pitch": 44, "duration": 18, "velocity": 80}, {"time": 1828, "pitch": 60, "duration": 10, "velocity": 86}, {"time": 1828, "pitch": 68, "duration": 10, "velocity": 87}, {"time": 1834, "pitch": 51, "duration": 12, "velocity": 70}, {"time": 1837, "pitch": 56, "duration": 12, "velocity": 88}, {"time": 1840, "pitch": 60, "duration": 4, "velocity": 83}, {"time": 1843, "pitch": 63, "duration": 8, "velocity": 88}, {"time": 1846, "pitch": 68, "duration": 4, "velocity": 74}, {"time": 1852, "pitch": 49, "duration": 43, "velocity": 78}, {"time": 1852, "pitch": 61, "duration": 7, "velocity": 77}, {"time": 1852, "pitch": 65, "duration": 9, "velocity": 84}, {"time": 1861, "pitch": 56, "duration": 4, "velocity": 82}, {"time": 1864, "pitch": 63, "duration": 8, "velocity": 89}, {"time": 1870, "pitch": 56, "duration": 16, "velocity": 70}, {"time": 1873, "pitch": 65, "duration": 19, "velocity": 100}, {"time": 1888, "pitch": 56, "duration": 7, "velocity": 81}, {"time": 1891, "pitch": 68, "duration": 3, "velocity": 102}, {"time": 1900, "pitch": 49, "duration": 21, "velocity": 98}, {"time": 1903, "pitch": 56, "duration": 9, "velocity": 82}, {"time": 1906, "pitch": 63, "duration": 15, "velocity": 78}, {"time": 1909, "pitch": 68, "duration": 11, "velocity": 114}, {"time": 1915, "pitch": 56, "duration": 10, "velocity": 84}, {"time": 1921, "pitch": 65, "duration": 7, "velocity": 83}, {"time": 1924, "pitch": 48, "duration": 21, "velocity": 89}, {"time": 1927, "pitch": 56, "duration": 10, "velocity": 84}, {"time": 1930, "pitch": 63, "duration": 2, "velocity": 88}, {"time": 1933, "pitch": 68, "duration": 9, "velocity": 108}, {"time": 1939, "pitch": 56, "duration": 4, "velocity": 88}, {"time": 1942, "pitch": 63, "duration": 3, "velocity": 88}, {"time": 1945, "pitch": 68, "duration": 10, "velocity": 89}, {"time": 1948, "pitch": 46, "duration": 22, "velocity": 87}, {"time": 1951, "pitch": 53, "duration": 21, "velocity": 82}, {"time": 1954, "pitch": 58, "duration": 7, "velocity": 84}, {"time": 1957, "pitch": 61, "duration": 3, "velocity": 84}, {"time": 1960, "pitch": 63, "duration": 6, "velocity": 102}, {"time": 1963, "pitch": 58, "duration": 6, "velocity": 88}, {"time": 1966, "pitch": 61, "duration": 2, "velocity": 79}, {"time": 1969, "pitch": 68, "duration": 8, "velocity": 98}, {"time": 1972, "pitch": 44, "duration": 18, "velocity": 88}, {"time": 1975, "pitch": 53, "duration": 14, "velocity": 80}, {"time": 1978, "pitch": 60, "duration": 2, "velocity": 79}, {"time": 1981, "pitch": 68, "duration": 6, "velocity": 113}, {"time": 1984, "pitch": 56, "duration": 4, "velocity": 87}, {"time": 1987, "pitch": 63, "duration": 5, "velocity": 100}, {"time": 1990, "pitch": 60, "duration": 3, "velocity": 91}, {"time": 1993, "pitch": 68, "duration": 11, "velocity": 92}, {"time": 1996, "pitch": 42, "duration": 21, "velocity": 87}, {"time": 1996, "pitch": 61, "duration": 9, "velocity": 91}, {"time": 1999, "pitch": 49, "duration": 21, "velocity": 71}, {"time": 2002, "pitch": 54, "duration": 5, "velocity": 81}, {"time": 2005, "pitch": 68, "duration": 18, "velocity": 108}, {"time": 2011, "pitch": 54, "duration": 9, "velocity": 81}, {"time": 2014, "pitch": 61, "duration": 9, "velocity": 84}, {"time": 2017, "pitch": 58, "duration": 5, "velocity": 90}, {"time": 2020, "pitch": 44, "duration": 19, "velocity": 88}, {"time": 2023, "pitch": 51, "duration": 16, "velocity": 87}, {"time": 2026, "pitch": 60, "duration": 2, "velocity": 86}, {"time": 2029, "pitch": 68, "duration": 11, "velocity": 104}, {"time": 2035, "pitch": 56, "duration": 8, "velocity": 81}, {"time": 2038, "pitch": 60, "duration": 6, "velocity": 87}, {"time": 2041, "pitch": 63, "duration": 3, "velocity": 86}, {"time": 2044, "pitch": 49, "duration": 22, "velocity": 86}, {"time": 2044, "pitch": 65, "duration": 4, "velocity": 88}, {"time": 2047, "pitch": 56, "duration": 21, "velocity": 72}, {"time": 2050, "pitch": 61, "duration": 5, "velocity": 85}, {"time": 2053, "pitch": 63, "duration": 9, "velocity": 102}, {"time": 2053, "pitch": 68, "duration": 7, "velocity": 108}, {"time": 2059, "pitch": 61, "duration": 5, "velocity": 77}, {"time": 2062, "pitch": 65, "duration": 2, "velocity": 86}, {"time": 2065, "pitch": 68, "duration": 8, "velocity": 110}, {"time": 2068, "pitch": 49, "duration": 19, "velocity": 86}, {"time": 2071, "pitch": 56, "duration": 7, "velocity": 86}, {"time": 2074, "pitch": 63, "duration": 3, "velocity": 102}, {"time": 2077, "pitch": 61, "duration": 5, "velocity": 102}, {"time": 2080, "pitch": 56, "duration": 7, "velocity": 89}, {"time": 2083, "pitch": 60, "duration": 1, "velocity": 87}, {"time": 2086, "pitch": 59, "duration": 5, "velocity": 103}, {"time": 2092, "pitch": 42, "duration": 21, "velocity": 96}, {"time": 2095, "pitch": 54, "duration": 8, "velocity": 89}, {"time": 2098, "pitch": 58, "duration": 4, "velocity": 79}, {"time": 2101, "pitch": 66, "duration": 9, "velocity": 108}, {"time": 2107, "pitch": 54, "duration": 9, "velocity": 86}, {"time": 2110, "pitch": 61, "duration": 7, "velocity": 88}, {"time": 2113, "pitch": 58, "duration": 4, "velocity": 92}, {"time": 2116, "pitch": 44, "duration": 20, "velocity": 88}, {"time": 2119, "pitch": 51, "duration": 16, "velocity": 86}, {"time": 2122, "pitch": 60, "duration": 2, "velocity": 87}, {"time": 2125, "pitch": 60, "duration": 1, "velocity": 68}, {"time": 2125, "pitch": 68, "duration": 11, "velocity": 116}, {"time": 2131, "pitch": 56, "duration": 3, "velocity": 86}, {"time": 2134, "pitch": 63, "duration": 10, "velocity": 83}, {"time": 2137, "pitch": 60, "duration": 4, "velocity": 91}, {"time": 2140, "pitch": 41, "duration": 17, "velocity": 93}, {"time": 2143, "pitch": 53, "duration": 7, "velocity": 90}, {"time": 2146, "pitch": 60, "duration": 2, "velocity": 88}, {"time": 2149, "pitch": 68, "duration": 9, "velocity": 110}, {"time": 2155, "pitch": 53, "duration": 9, "velocity": 86}, {"time": 2158, "pitch": 65, "duration": 9, "velocity": 91}, {"time": 2164, "pitch": 46, "duration": 19, "velocity": 87}, {"time": 2167, "pitch": 53, "duration": 16, "velocity": 81}, {"time": 2170, "pitch": 58, "duration": 6, "velocity": 89}, {"time": 2173, "pitch": 60, "duration": 3, "velocity": 88}, {"time": 2176, "pitch": 61, "duration": 4, "velocity": 108}, {"time": 2179, "pitch": 58, "duration": 8, "velocity": 98}, {"time": 2182, "pitch": 65, "duration": 3, "velocity": 98}, {"time": 2185, "pitch": 68, "duration": 3, "velocity": 96}, {"time": 2188, "pitch": 51, "duration": 20, "velocity": 84}, {"time": 2188, "pitch": 63, "duration": 10, "velocity": 88}, {"time": 2194, "pitch": 58, "duration": 8, "velocity": 81}, {"time": 2197, "pitch": 66, "duration": 10, "velocity": 96}, {"time": 2203, "pitch": 58, "duration": 4, "velocity": 86}, {"time": 2206, "pitch": 63, "duration": 3, "velocity": 88}, {"time": 2209, "pitch": 66, "duration": 11, "velocity": 91}, {"time": 2212, "pitch": 44, "duration": 20, "velocity": 88}, {"time": 2215, "pitch": 51, "duration": 17, "velocity": 83}, {"time": 2218, "pitch": 56, "duration": 7, "velocity": 87}, {"time": 2221, "pitch": 60, "duration": 6, "velocity": 86}, {"time": 2224, "pitch": 63, "duration": 14, "velocity": 90}, {"time": 2230, "pitch": 56, "duration": 5, "velocity": 81}, {"time": 2233, "pitch": 60, "duration": 4, "velocity": 84}, {"time": 2236, "pitch": 49, "duration": 21, "velocity": 87}, {"time": 2239, "pitch": 56, "duration": 21, "velocity": 83}, {"time": 2242, "pitch": 63, "duration": 2, "velocity": 77}, {"time": 2245, "pitch": 68, "duration": 9, "velocity": 113}, {"time": 2251, "pitch": 61, "duration": 3, "velocity": 82}, {"time": 2254, "pitch": 63, "duration": 5, "velocity": 81}, {"time": 2257, "pitch": 65, "duration": 3, "velocity": 73}, {"time": 2260, "pitch": 49, "duration": 18, "velocity": 83}, {"time": 2260, "pitch": 61, "duration": 6, "velocity": 87}, {"time": 2269, "pitch": 56, "duration": 9, "velocity": 78}, {"time": 2272, "pitch": 61, "duration": 5, "velocity": 88}, {"time": 2275, "pitch": 63, "duration": 3, "velocity": 87}, {"time": 2278, "pitch": 65, "duration": 3, "velocity": 88}, {"time": 2281, "pitch": 68, "duration": 1, "velocity": 40}, {"time": 2284, "pitch": 46, "duration": 19, "velocity": 102}, {"time": 2284, "pitch": 61, "duration": 13, "velocity": 107}, {"time": 2284, "pitch": 65, "duration": 14, "velocity": 114}, {"time": 2284, "pitch": 70, "duration": 13, "velocity": 110}, {"time": 2293, "pitch": 58, "duration": 2, "velocity": 86}, {"time": 2296, "pitch": 58, "duration": 6, "velocity": 96}, {"time": 2299, "pitch": 61, "duration": 2, "velocity": 91}, {"time": 2302, "pitch": 65, "duration": 3, "velocity": 113}, {"time": 2305, "pitch": 70, "duration": 1, "velocity": 110}, {"time": 2308, "pitch": 44, "duration": 19, "velocity": 93}, {"time": 2308, "pitch": 60, "duration": 7, "velocity": 107}, {"time": 2308, "pitch": 63, "duration": 8, "velocity": 116}, {"time": 2308, "pitch": 68, "duration": 6, "velocity": 107}, {"time": 2317, "pitch": 56, "duration": 3, "velocity": 83}, {"time": 2320, "pitch": 60, "duration": 4, "velocity": 113}, {"time": 2323, "pitch": 56, "duration": 3, "velocity": 114}, {"time": 2326, "pitch": 63, "duration": 5, "velocity": 117}, {"time": 2329, "pitch": 68, "duration": 2, "velocity": 100}, {"time": 2332, "pitch": 41, "duration": 18, "velocity": 100}, {"time": 2332, "pitch": 60, "duration": 9, "velocity": 107}, {"time": 2332, "pitch": 65, "duration": 9, "velocity": 116}, {"time": 2332, "pitch": 68, "duration": 9, "velocity": 91}, {"time": 2341, "pitch": 53, "duration": 4, "velocity": 102}, {"time": 2344, "pitch": 60, "duration": 5, "velocity": 114}, {"time": 2344, "pitch": 68, "duration": 4, "velocity": 110}, {"time": 2347, "pitch": 53, "duration": 7, "velocity": 107}, {"time": 2350, "pitch": 65, "duration": 3, "velocity": 113}, {"time": 2353, "pitch": 68, "duration": 2, "velocity": 91}, {"time": 2356, "pitch": 46, "duration": 19, "velocity": 98}, {"time": 2356, "pitch": 58, "duration": 9, "velocity": 98}, {"time": 2356, "pitch": 61, "duration": 9, "velocity": 110}, {"time": 2356, "pitch": 68, "duration": 9, "velocity": 89}, {"time": 2365, "pitch": 53, "duration": 4, "velocity": 90}, {"time": 2368, "pitch": 58, "duration": 5, "velocity": 114}, {"time": 2368, "pitch": 68, "duration": 5, "velocity": 84}, {"time": 2371, "pitch": 53, "duration": 4, "velocity": 108}, {"time": 2374, "pitch": 61, "duration": 4, "velocity": 116}, {"time": 2380, "pitch": 51, "duration": 40, "velocity": 96}, {"time": 2380, "pitch": 58, "duration": 3, "velocity": 102}, {"time": 2380, "pitch": 63, "duration": 9, "velocity": 114}, {"time": 2380, "pitch": 66, "duration": 9, "velocity": 104}, {"time": 2389, "pitch": 58, "duration": 5, "velocity": 90}, {"time": 2392, "pitch": 63, "duration": 8, "velocity": 117}, {"time": 2392, "pitch": 65, "duration": 3, "velocity": 98}, {"time": 2392, "pitch": 66, "duration": 9, "velocity": 98}, {"time": 2401, "pitch": 58, "duration": 13, "velocity": 92}, {"time": 2404, "pitch": 63, "duration": 9, "velocity": 113}, {"time": 2410, "pitch": 66, "duration": 6, "velocity": 100}, {"time": 2413, "pitch": 70, "duration": 8, "velocity": 108}, {"time": 2416, "pitch": 58, "duration": 4, "velocity": 113}, {"time": 2419, "pitch": 63, "duration": 3, "velocity": 114}, {"time": 2428, "pitch": 41, "duration": 21, "velocity": 96}, {"time": 2428, "pitch": 58, "duration": 8, "velocity": 110}, {"time": 2431, "pitch": 48, "duration": 18, "velocity": 84}, {"time": 2434, "pitch": 53, "duration": 6, "velocity": 94}, {"time": 2437, "pitch": 58, "duration": 3, "velocity": 116}, {"time": 2440, "pitch": 60, "duration": 5, "velocity": 116}, {"time": 2443, "pitch": 53, "duration": 7, "velocity": 113}, {"time": 2446, "pitch": 58, "duration": 3, "velocity": 104}, {"time": 2449, "pitch": 60, "duration": 3, "velocity": 87}, {"time": 2452, "pitch": 41, "duration": 19, "velocity": 93}, {"time": 2452, "pitch": 57, "duration": 9, "velocity": 106}, {"time": 2452, "pitch": 65, "duration": 9, "velocity": 91}, {"time": 2461, "pitch": 53, "duration": 3, "velocity": 108}, {"time": 2464, "pitch": 57, "duration": 5, "velocity": 116}, {"time": 2464, "pitch": 65, "duration": 3, "velocity": 107}, {"time": 2467, "pitch": 53, "duration": 7, "velocity": 110}, {"time": 2470, "pitch": 57, "duration": 1, "velocity": 72}, {"time": 2470, "pitch": 60, "duration": 4, "velocity": 104}, {"time": 2473, "pitch": 65, "duration": 2, "velocity": 94}, {"time": 2476, "pitch": 46, "duration": 21, "velocity": 86}, {"time": 2476, "pitch": 58, "duration": 3, "velocity": 98}, {"time": 2476, "pitch": 61, "duration": 9, "velocity": 104}, {"time": 2476, "pitch": 65, "duration": 9, "velocity": 92}, {"time": 2485, "pitch": 53, "duration": 4, "velocity": 88}, {"time": 2488, "pitch": 58, "duration": 9, "velocity": 110}, {"time": 2488, "pitch": 65, "duration": 10, "velocity": 110}, {"time": 2494, "pitch": 53, "duration": 6, "velocity": 86}, {"time": 2500, "pitch": 44, "duration": 19, "velocity": 93}, {"time": 2500, "pitch": 60, "duration": 8, "velocity": 91}, {"time": 2500, "pitch": 63, "duration": 9, "velocity": 98}, {"time": 2500, "pitch": 68, "duration": 8, "velocity": 93}, {"time": 2506, "pitch": 53, "duration": 10, "velocity": 86}, {"time": 2512, "pitch": 60, "duration": 4, "velocity": 113}, {"time": 2515, "pitch": 56, "duration": 2, "velocity": 94}, {"time": 2518, "pitch": 63, "duration": 4, "velocity": 116}, {"time": 2521, "pitch": 68, "duration": 11, "velocity": 100}, {"time": 2524, "pitch": 41, "duration": 18, "velocity": 91}, {"time": 2524, "pitch": 60, "duration": 9, "velocity": 100}, {"time": 2524, "pitch": 65, "duration": 9, "velocity": 108}, {"time": 2533, "pitch": 53, "duration": 3, "velocity": 108}, {"time": 2536, "pitch": 60, "duration": 8, "velocity": 110}, {"time": 2536, "pitch": 65, "duration": 7, "velocity": 114}, {"time": 2536, "pitch": 68, "duration": 7, "velocity": 108}, {"time": 2542, "pitch": 53, "duration": 6, "velocity": 86}, {"time": 2545, "pitch": 65, "duration": 2, "velocity": 87}, {"time": 2545, "pitch": 68, "duration": 2, "velocity": 90}, {"time": 2548, "pitch": 46, "duration": 19, "velocity": 88}, {"time": 2548, "pitch": 58, "duration": 8, "velocity": 102}, {"time": 2548, "pitch": 61, "duration": 9, "velocity": 108}, {"time": 2548, "pitch": 65, "duration": 9, "velocity": 91}, {"time": 2548, "pitch": 68, "duration": 9, "velocity": 87}, {"time": 2557, "pitch": 53, "duration": 4, "velocity": 86}, {"time": 2560, "pitch": 58, "duration": 5, "velocity": 110}, {"time": 2560, "pitch": 65, "duration": 5, "velocity": 108}, {"time": 2560, "pitch": 68, "duration": 5, "velocity": 102}, {"time": 2563, "pitch": 53, "duration": 4, "velocity": 93}, {"time": 2566, "pitch": 61, "duration": 4, "velocity": 110}, {"time": 2566, "pitch": 65, "duration": 3, "velocity": 83}, {"time": 2572, "pitch": 42, "duration": 20, "velocity": 96}, {"time": 2572, "pitch": 58, "duration": 9, "velocity": 110}, {"time": 2572, "pitch": 61, "duration": 9, "velocity": 114}, {"time": 2572, "pitch": 66, "duration": 8, "velocity": 104}, {"time": 2581, "pitch": 54, "duration": 5, "velocity": 96}, {"time": 2584, "pitch": 58, "duration": 8, "velocity": 110}, {"time": 2584, "pitch": 66, "duration": 9, "velocity": 110}, {"time": 2590, "pitch": 54, "duration": 4, "velocity": 81}, {"time": 2596, "pitch": 44, "duration": 19, "velocity": 92}, {"time": 2596, "pitch": 60, "duration": 9, "velocity": 96}, {"time": 2596, "pitch": 63, "duration": 9, "velocity": 110}, {"time": 2596, "pitch": 68, "duration": 9, "velocity": 107}, {"time": 2605, "pitch": 56, "duration": 5, "velocity": 94}, {"time": 2608, "pitch": 60, "duration": 8, "velocity": 108}, {"time": 2608, "pitch": 63, "duration": 10, "velocity": 116}, {"time": 2608, "pitch": 68, "duration": 8, "velocity": 113}, {"time": 2614, "pitch": 56, "duration": 5, "velocity": 81}, {"time": 2620, "pitch": 49, "duration": 37, "velocity": 87}, {"time": 2620, "pitch": 61, "duration": 10, "velocity": 98}, {"time": 2620, "pitch": 65, "duration": 10, "velocity": 110}, {"time": 2620, "pitch": 68, "duration": 10, "velocity": 107}, {"time": 2629, "pitch": 56, "duration": 27, "velocity": 86}, {"time": 2635, "pitch": 61, "duration": 3, "velocity": 90}, {"time": 2638, "pitch": 65, "duration": 2, "velocity": 108}, {"time": 2641, "pitch": 66, "duration": 3, "velocity": 90}, {"time": 2644, "pitch": 61, "duration": 12, "velocity": 88}, {"time": 2644, "pitch": 65, "duration": 12, "velocity": 96}, {"time": 2668, "pitch": 46, "duration": 19, "velocity": 102}, {"time": 2668, "pitch": 61, "duration": 13, "velocity": 107}, {"time": 2668, "pitch": 65, "duration": 14, "velocity": 114}, {"time": 2668, "pitch": 70, "duration": 13, "velocity": 110}, {"time": 2677, "pitch": 58, "duration": 2, "velocity": 86}, {"time": 2680, "pitch": 58, "duration": 6, "velocity": 96}, {"time": 2683, "pitch": 61, "duration": 2, "velocity": 91}, {"time": 2686, "pitch": 65, "duration": 3, "velocity": 113}, {"time": 2689, "pitch": 70, "duration": 1, "velocity": 110}, {"time": 2692, "pitch": 44, "duration": 19, "velocity": 93}, {"time": 2692, "pitch": 60, "duration": 7, "velocity": 107}, {"time": 2692, "pitch": 63, "duration": 8, "velocity": 116}, {"time": 2692, "pitch": 68, "duration": 6, "velocity": 107}, {"time": 2701, "pitch": 56, "duration": 3, "velocity": 83}, {"time": 2704, "pitch": 60, "duration": 4, "velocity": 113}, {"time": 2707, "pitch": 56, "duration": 3, "velocity": 114}, {"time": 2710, "pitch": 63, "duration": 5, "velocity": 117}, {"time": 2713, "pitch": 68, "duration": 2, "velocity": 100}, {"time": 2716, "pitch": 44, "duration": 23, "velocity": 79}, {"time": 2716, "pitch": 56, "duration": 23, "velocity": 82}, {"time": 2716, "pitch": 60, "duration": 23, "velocity": 89}, {"time": 2716, "pitch": 63, "duration": 23, "velocity": 96}, {"time": 2716, "pitch": 68, "duration": 23, "velocity": 89}, {"time": 2740, "pitch": 41, "duration": 18, "velocity": 100}, {"time": 2740, "pitch": 60, "duration": 9, "velocity": 107}, {"time": 2740, "pitch": 65, "duration": 9, "velocity": 116}, {"time": 2740, "pitch": 68, "duration": 9, "velocity": 91}, {"time": 2749, "pitch": 53, "duration": 4, "velocity": 102}, {"time": 2752, "pitch": 60, "duration": 5, "velocity": 114}, {"time": 2752, "pitch": 68, "duration": 4, "velocity": 110}, {"time": 2755, "pitch": 53, "duration": 7, "velocity": 107}, {"time": 2758, "pitch": 65, "duration": 3, "velocity": 113}, {"time": 2761, "pitch": 68, "duration": 2, "velocity": 91}, {"time": 2764, "pitch": 46, "duration": 19, "velocity": 98}, {"time": 2764, "pitch": 58, "duration": 9, "velocity": 98}, {"time": 2764, "pitch": 61, "duration": 9, "velocity": 110}, {"time": 2764, "pitch": 68, "duration": 9, "velocity": 89}, {"time": 2773, "pitch": 53, "duration": 4, "velocity": 90}, {"time": 2776, "pitch": 58, "duration": 5, "velocity": 114}, {"time": 2776, "pitch": 68, "duration": 5, "velocity": 84}, {"time": 2779, "pitch": 53, "duration": 4, "velocity": 108}, {"time": 2782, "pitch": 61, "duration": 4, "velocity": 116}, {"time": 2788, "pitch": 51, "duration": 40, "velocity": 96}, {"time": 2788, "pitch": 58, "duration": 3, "velocity": 102}, {"time": 2788, "pitch": 63, "duration": 9, "velocity": 114}, {"time": 2788, "pitch": 66, "duration": 9, "velocity": 104}, {"time": 2797, "pitch": 58, "duration": 5, "velocity": 90}, {"time": 2800, "pitch": 63, "duration": 8, "velocity": 117}, {"time": 2800, "pitch": 65, "duration": 3, "velocity": 98}, {"time": 2800, "pitch": 66, "duration": 9, "velocity": 98}, {"time": 2809, "pitch": 58, "duration": 13, "velocity": 92}, {"time": 2812, "pitch": 63, "duration": 9, "velocity": 113}, {"time": 2818, "pitch": 66, "duration": 6, "velocity": 100}, {"time": 2821, "pitch": 70, "duration": 8, "velocity": 108}, {"time": 2824, "pitch": 58, "duration": 4, "velocity": 113}, {"time": 2827, "pitch": 63, "duration": 3, "velocity": 114}, {"time": 2836, "pitch": 41, "duration": 21, "velocity": 96}, {"time": 2836, "pitch": 58, "duration": 8, "velocity": 110}, {"time": 2839, "pitch": 48, "duration": 18, "velocity": 84}, {"time": 2842, "pitch": 53, "duration": 6, "velocity": 94}, {"time": 2845, "pitch": 58, "duration": 3, "velocity": 116}, {"time": 2848, "pitch": 60, "duration": 5, "velocity": 116}, {"time": 2851, "pitch": 53, "duration": 7, "velocity": 113}, {"time": 2854, "pitch": 58, "duration": 3, "velocity": 104}, {"time": 2857, "pitch": 60, "duration": 3, "velocity": 87}, {"time": 2860, "pitch": 41, "duration": 19, "velocity": 93}, {"time": 2860, "pitch": 57, "duration": 9, "velocity": 106}, {"time": 2860, "pitch": 65, "duration": 9, "velocity": 91}, {"time": 2869, "pitch": 53, "duration": 3, "velocity": 108}, {"time": 2872, "pitch": 57, "duration": 5, "velocity": 116}, {"time": 2872, "pitch": 65, "duration": 3, "velocity": 107}, {"time": 2875, "pitch": 53, "duration": 7, "velocity": 110}, {"time": 2878, "pitch": 57, "duration": 1, "velocity": 72}, {"time": 2878, "pitch": 60, "duration": 4, "velocity": 104}, {"time": 2881, "pitch": 65, "duration": 2, "velocity": 94}, {"time": 2884, "pitch": 46, "duration": 21, "velocity": 86}, {"time": 2884, "pitch": 58, "duration": 3, "velocity": 98}, {"time": 2884, "pitch": 61, "duration": 9, "velocity": 104}, {"time": 2884, "pitch": 65, "duration": 9, "velocity": 92}, {"time": 2893, "pitch": 53, "duration": 4, "velocity": 88}, {"time": 2896, "pitch": 58, "duration": 9, "velocity": 110}, {"time": 2896, "pitch": 65, "duration": 10, "velocity": 110}, {"time": 2902, "pitch": 53, "duration": 6, "velocity": 86}, {"time": 2908, "pitch": 44, "duration": 19, "velocity": 93}, {"time": 2908, "pitch": 60, "duration": 8, "velocity": 91}, {"time": 2908, "pitch": 63, "duration": 9, "velocity": 98}, {"time": 2908, "pitch": 68, "duration": 8, "velocity": 93}, {"time": 2914, "pitch": 53, "duration": 10, "velocity": 86}, {"time": 2920, "pitch": 60, "duration": 4, "velocity": 113}, {"time": 2923, "pitch": 56, "duration": 2, "velocity": 94}, {"time": 2926, "pitch": 63, "duration": 4, "velocity": 116}, {"time": 2929, "pitch": 68, "duration": 11, "velocity": 100}, {"time": 2932, "pitch": 41, "duration": 18, "velocity": 91}, {"time": 2932, "pitch": 60, "duration": 9, "velocity": 100}, {"time": 2932, "pitch": 65, "duration": 9, "velocity": 108}, {"time": 2941, "pitch": 53, "duration": 3, "velocity": 108}, {"time": 2944, "pitch": 60, "duration": 8, "velocity": 110}, {"time": 2944, "pitch": 65, "duration": 7, "velocity": 114}, {"time": 2944, "pitch": 68, "duration": 7, "velocity": 108}, {"time": 2950, "pitch": 53, "duration": 6, "velocity": 86}, {"time": 2953, "pitch": 65, "duration": 2, "velocity": 87}, {"time": 2953, "pitch": 68, "duration": 2, "velocity": 90}, {"time": 2956, "pitch": 46, "duration": 19, "velocity": 88}, {"time": 2956, "pitch": 58, "duration": 8, "velocity": 102}, {"time": 2956, "pitch": 61, "duration": 9, "velocity": 108}, {"time": 2956, "pitch": 65, "duration": 9, "velocity": 91}, {"time": 2956, "pitch": 68, "duration": 9, "velocity": 87}, {"time": 2965, "pitch": 53, "duration": 4, "velocity": 86}, {"time": 2968, "pitch": 58, "duration": 5, "velocity": 110}, {"time": 2968, "pitch": 65, "duration": 5, "velocity": 108}, {"time": 2968, "pitch": 68, "duration": 5, "velocity": 102}, {"time": 2971, "pitch": 53, "duration": 4, "velocity": 93}, {"time": 2974, "pitch": 61, "duration": 4, "velocity": 110}, {"time": 2974, "pitch": 65, "duration": 3, "velocity": 83}, {"time": 2980, "pitch": 42, "duration": 20, "velocity": 96}, {"time": 2980, "pitch": 58, "duration": 9, "velocity": 110}, {"time": 2980, "pitch": 61, "duration": 9, "velocity": 114}, {"time": 2980, "pitch": 66, "duration": 8, "velocity": 104}, {"time": 2989, "pitch": 54, "duration": 5, "velocity": 96}, {"time": 2992, "pitch": 58, "duration": 8, "velocity": 110}, {"time": 2992, "pitch": 66, "duration": 9, "velocity": 110}, {"time": 2998, "pitch": 54, "duration": 4, "velocity": 81}, {"time": 3004, "pitch": 44, "duration": 19, "velocity": 92}, {"time": 3004, "pitch": 60, "duration": 9, "velocity": 96}, {"time": 3004, "pitch": 63, "duration": 9, "velocity": 110}, {"time": 3004, "pitch": 68, "duration": 9, "velocity": 107}, {"time": 3013, "pitch": 56, "duration": 5, "velocity": 94}, {"time": 3016, "pitch": 60, "duration": 8, "velocity": 108}, {"time": 3016, "pitch": 63, "duration": 10, "velocity": 116}, {"time": 3016, "pitch": 68, "duration": 8, "velocity": 113}, {"time": 3022, "pitch": 56, "duration": 5, "velocity": 81}, {"time": 3028, "pitch": 49, "duration": 37, "velocity": 87}, {"time": 3028, "pitch": 61, "duration": 10, "velocity": 98}, {"time": 3028, "pitch": 65, "duration": 10, "velocity": 110}, {"time": 3028, "pitch": 68, "duration": 10, "velocity": 107}, {"time": 3037, "pitch": 56, "duration": 27, "velocity": 86}, {"time": 3043, "pitch": 61, "duration": 3, "velocity": 90}, {"time": 3046, "pitch": 65, "duration": 2, "velocity": 108}, {"time": 3049, "pitch": 66, "duration": 3, "velocity": 90}, {"time": 3052, "pitch": 61, "duration": 12, "velocity": 88}, {"time": 3052, "pitch": 65, "duration": 12, "velocity": 96}, {"time": 3075, "pitch": 58, "duration": 6, "velocity": 72}, {"time": 3076, "pitch": 61, "duration": 12, "velocity": 84}, {"time": 3076, "pitch": 42, "duration": 18, "velocity": 86}, {"time": 3076, "pitch": 66, "duration": 11, "velocity": 86}, {"time": 3087, "pitch": 54, "duration": 12, "velocity": 81}, {"time": 3090, "pitch": 61, "duration": 3, "velocity": 89}, {"time": 3093, "pitch": 66, "duration": 5, "velocity": 102}, {"time": 3097, "pitch": 60, "duration": 14, "velocity": 71}, {"time": 3098, "pitch": 63, "duration": 14, "velocity": 82}, {"time": 3099, "pitch": 44, "duration": 13, "velocity": 68}, {"time": 3099, "pitch": 68, "duration": 13, "velocity": 86}]}]}