{"metadata": {"schema_version": "0.2", "title": "None", "source_filename": "349.mid", "source_format": "midi"}, "resolution": 12, "tempos": [{"time": 0, "qpm": 64.0}], "time_signatures": [{"time": 0, "numerator": 4, "denominator": 4}], "tracks": [{"program": 0, "is_drum": false, "name": "MELODY", "notes": [{"time": 241, "pitch": 78, "duration": 6, "velocity": 119}, {"time": 247, "pitch": 78, "duration": 3, "velocity": 113}, {"time": 250, "pitch": 76, "duration": 6, "velocity": 106}, {"time": 256, "pitch": 76, "duration": 21, "velocity": 104}, {"time": 277, "pitch": 76, "duration": 3, "velocity": 104}, {"time": 280, "pitch": 76, "duration": 6, "velocity": 96}, {"time": 286, "pitch": 78, "duration": 3, "velocity": 97}, {"time": 289, "pitch": 74, "duration": 3, "velocity": 96}, {"time": 292, "pitch": 71, "duration": 45, "velocity": 107}, {"time": 337, "pitch": 74, "duration": 6, "velocity": 86}, {"time": 343, "pitch": 74, "duration": 3, "velocity": 90}, {"time": 346, "pitch": 74, "duration": 3, "velocity": 87}, {"time": 349, "pitch": 74, "duration": 24, "velocity": 91}, {"time": 373, "pitch": 76, "duration": 4, "velocity": 94}, {"time": 376, "pitch": 74, "duration": 6, "velocity": 93}, {"time": 382, "pitch": 76, "duration": 3, "velocity": 88}, {"time": 385, "pitch": 76, "duration": 12, "velocity": 91}, {"time": 397, "pitch": 78, "duration": 12, "velocity": 97}, {"time": 427, "pitch": 78, "duration": 3, "velocity": 109}, {"time": 430, "pitch": 81, "duration": 3, "velocity": 110}, {"time": 433, "pitch": 83, "duration": 3, "velocity": 108}, {"time": 436, "pitch": 83, "duration": 3, "velocity": 102}, {"time": 439, "pitch": 83, "duration": 3, "velocity": 102}, {"time": 442, "pitch": 83, "duration": 3, "velocity": 102}, {"time": 445, "pitch": 83, "duration": 3, "velocity": 108}, {"time": 448, "pitch": 81, "duration": 3, "velocity": 91}, {"time": 451, "pitch": 81, "duration": 6, "velocity": 104}, {"time": 457, "pitch": 76, "duration": 9, "velocity": 114}, {"time": 466, "pitch": 76, "duration": 3, "velocity": 108}, {"time": 469, "pitch": 74, "duration": 3, "velocity": 91}, {"time": 472, "pitch": 76, "duration": 3, "velocity": 94}, {"time": 475, "pitch": 74, "duration": 3, "velocity": 102}, {"time": 478, "pitch": 76, "duration": 3, "velocity": 93}, {"time": 481, "pitch": 81, "duration": 3, "velocity": 117}, {"time": 484, "pitch": 81, "duration": 3, "velocity": 93}, {"time": 487, "pitch": 81, "duration": 3, "velocity": 110}, {"time": 490, "pitch": 78, "duration": 3, "velocity": 106}, {"time": 493, "pitch": 81, "duration": 3, "velocity": 116}, {"time": 496, "pitch": 78, "duration": 3, "velocity": 109}, {"time": 499, "pitch": 76, "duration": 3, "velocity": 95}, {"time": 502, "pitch": 74, "duration": 3, "velocity": 104}, {"time": 505, "pitch": 74, "duration": 18, "velocity": 90}, {"time": 523, "pitch": 78, "duration": 3, "velocity": 106}, {"time": 526, "pitch": 81, "duration": 3, "velocity": 98}, {"time": 529, "pitch": 83, "duration": 3, "velocity": 102}, {"time": 532, "pitch": 83, "duration": 3, "velocity": 93}, {"time": 535, "pitch": 83, "duration": 3, "velocity": 100}, {"time": 538, "pitch": 81, "duration": 3, "velocity": 102}, {"time": 541, "pitch": 83, "duration": 6, "velocity": 104}, {"time": 547, "pitch": 83, "duration": 6, "velocity": 113}, {"time": 553, "pitch": 76, "duration": 12, "velocity": 96}, {"time": 565, "pitch": 74, "duration": 6, "velocity": 104}, {"time": 571, "pitch": 76, "duration": 3, "velocity": 98}, {"time": 574, "pitch": 78, "duration": 45, "velocity": 113}, {"time": 619, "pitch": 78, "duration": 3, "velocity": 116}, {"time": 622, "pitch": 81, "duration": 3, "velocity": 108}, {"time": 625, "pitch": 83, "duration": 3, "velocity": 107}, {"time": 628, "pitch": 83, "duration": 3, "velocity": 98}, {"time": 631, "pitch": 83, "duration": 3, "velocity": 102}, {"time": 634, "pitch": 81, "duration": 3, "velocity": 113}, {"time": 637, "pitch": 83, "duration": 6, "velocity": 107}, {"time": 643, "pitch": 81, "duration": 6, "velocity": 108}, {"time": 649, "pitch": 76, "duration": 9, "velocity": 110}, {"time": 658, "pitch": 76, "duration": 3, "velocity": 108}, {"time": 661, "pitch": 74, "duration": 3, "velocity": 104}, {"time": 664, "pitch": 76, "duration": 3, "velocity": 102}, {"time": 667, "pitch": 74, "duration": 3, "velocity": 104}, {"time": 670, "pitch": 76, "duration": 3, "velocity": 107}, {"time": 673, "pitch": 78, "duration": 3, "velocity": 116}, {"time": 676, "pitch": 81, "duration": 3, "velocity": 108}, {"time": 679, "pitch": 81, "duration": 3, "velocity": 108}, {"time": 682, "pitch": 81, "duration": 3, "velocity": 104}, {"time": 685, "pitch": 81, "duration": 3, "velocity": 116}, {"time": 688, "pitch": 81, "duration": 3, "velocity": 107}, {"time": 691, "pitch": 86, "duration": 3, "velocity": 113}, {"time": 694, "pitch": 85, "duration": 6, "velocity": 113}, {"time": 700, "pitch": 83, "duration": 15, "velocity": 108}, {"time": 715, "pitch": 71, "duration": 3, "velocity": 108}, {"time": 718, "pitch": 74, "duration": 3, "velocity": 107}, {"time": 721, "pitch": 78, "duration": 3, "velocity": 113}, {"time": 724, "pitch": 76, "duration": 9, "velocity": 110}, {"time": 733, "pitch": 71, "duration": 3, "velocity": 108}, {"time": 736, "pitch": 74, "duration": 3, "velocity": 93}, {"time": 739, "pitch": 78, "duration": 3, "velocity": 119}, {"time": 742, "pitch": 78, "duration": 6, "velocity": 113}, {"time": 748, "pitch": 76, "duration": 6, "velocity": 104}, {"time": 754, "pitch": 78, "duration": 3, "velocity": 113}, {"time": 757, "pitch": 76, "duration": 3, "velocity": 100}, {"time": 760, "pitch": 74, "duration": 3, "velocity": 104}, {"time": 763, "pitch": 76, "duration": 6, "velocity": 107}, {"time": 769, "pitch": 74, "duration": 24, "velocity": 108}, {"time": 1201, "pitch": 78, "duration": 6, "velocity": 119}, {"time": 1207, "pitch": 78, "duration": 3, "velocity": 113}, {"time": 1210, "pitch": 76, "duration": 6, "velocity": 106}, {"time": 1216, "pitch": 76, "duration": 21, "velocity": 104}, {"time": 1237, "pitch": 76, "duration": 3, "velocity": 104}, {"time": 1240, "pitch": 76, "duration": 6, "velocity": 96}, {"time": 1246, "pitch": 78, "duration": 3, "velocity": 97}, {"time": 1249, "pitch": 74, "duration": 3, "velocity": 96}, {"time": 1252, "pitch": 71, "duration": 45, "velocity": 107}, {"time": 1297, "pitch": 74, "duration": 6, "velocity": 86}, {"time": 1303, "pitch": 74, "duration": 3, "velocity": 90}, {"time": 1306, "pitch": 74, "duration": 3, "velocity": 87}, {"time": 1309, "pitch": 74, "duration": 24, "velocity": 91}, {"time": 1333, "pitch": 76, "duration": 4, "velocity": 94}, {"time": 1336, "pitch": 74, "duration": 6, "velocity": 93}, {"time": 1342, "pitch": 76, "duration": 3, "velocity": 88}, {"time": 1345, "pitch": 76, "duration": 12, "velocity": 91}, {"time": 1357, "pitch": 78, "duration": 30, "velocity": 97}, {"time": 1387, "pitch": 78, "duration": 3, "velocity": 109}, {"time": 1390, "pitch": 81, "duration": 3, "velocity": 110}, {"time": 1393, "pitch": 83, "duration": 3, "velocity": 108}, {"time": 1396, "pitch": 83, "duration": 3, "velocity": 102}, {"time": 1399, "pitch": 83, "duration": 3, "velocity": 102}, {"time": 1402, "pitch": 83, "duration": 3, "velocity": 102}, {"time": 1405, "pitch": 83, "duration": 3, "velocity": 108}, {"time": 1408, "pitch": 81, "duration": 3, "velocity": 91}, {"time": 1411, "pitch": 81, "duration": 6, "velocity": 104}, {"time": 1417, "pitch": 76, "duration": 9, "velocity": 114}, {"time": 1426, "pitch": 76, "duration": 3, "velocity": 108}, {"time": 1429, "pitch": 74, "duration": 3, "velocity": 91}, {"time": 1432, "pitch": 76, "duration": 3, "velocity": 94}, {"time": 1435, "pitch": 74, "duration": 3, "velocity": 102}, {"time": 1438, "pitch": 76, "duration": 3, "velocity": 93}, {"time": 1441, "pitch": 81, "duration": 3, "velocity": 117}, {"time": 1444, "pitch": 81, "duration": 3, "velocity": 93}, {"time": 1447, "pitch": 81, "duration": 3, "velocity": 110}, {"time": 1450, "pitch": 78, "duration": 3, "velocity": 106}, {"time": 1453, "pitch": 81, "duration": 3, "velocity": 116}, {"time": 1456, "pitch": 78, "duration": 3, "velocity": 109}, {"time": 1459, "pitch": 76, "duration": 3, "velocity": 95}, {"time": 1462, "pitch": 74, "duration": 3, "velocity": 104}, {"time": 1465, "pitch": 74, "duration": 18, "velocity": 90}, {"time": 1483, "pitch": 78, "duration": 3, "velocity": 106}, {"time": 1486, "pitch": 81, "duration": 3, "velocity": 98}, {"time": 1489, "pitch": 83, "duration": 3, "velocity": 102}, {"time": 1492, "pitch": 83, "duration": 3, "velocity": 93}, {"time": 1495, "pitch": 83, "duration": 3, "velocity": 100}, {"time": 1498, "pitch": 81, "duration": 3, "velocity": 102}, {"time": 1501, "pitch": 83, "duration": 6, "velocity": 104}, {"time": 1507, "pitch": 83, "duration": 6, "velocity": 113}, {"time": 1513, "pitch": 76, "duration": 12, "velocity": 96}, {"time": 1525, "pitch": 74, "duration": 6, "velocity": 104}, {"time": 1531, "pitch": 76, "duration": 3, "velocity": 98}, {"time": 1534, "pitch": 78, "duration": 45, "velocity": 113}, {"time": 1579, "pitch": 78, "duration": 3, "velocity": 116}, {"time": 1582, "pitch": 81, "duration": 3, "velocity": 108}, {"time": 1585, "pitch": 83, "duration": 3, "velocity": 107}, {"time": 1588, "pitch": 83, "duration": 3, "velocity": 98}, {"time": 1591, "pitch": 83, "duration": 3, "velocity": 102}, {"time": 1594, "pitch": 81, "duration": 3, "velocity": 113}, {"time": 1597, "pitch": 83, "duration": 6, "velocity": 107}, {"time": 1603, "pitch": 81, "duration": 6, "velocity": 108}, {"time": 1609, "pitch": 76, "duration": 9, "velocity": 110}, {"time": 1618, "pitch": 76, "duration": 3, "velocity": 108}, {"time": 1621, "pitch": 74, "duration": 3, "velocity": 104}, {"time": 1624, "pitch": 76, "duration": 3, "velocity": 102}, {"time": 1627, "pitch": 74, "duration": 3, "velocity": 104}, {"time": 1630, "pitch": 76, "duration": 3, "velocity": 107}, {"time": 1633, "pitch": 78, "duration": 3, "velocity": 116}, {"time": 1636, "pitch": 81, "duration": 3, "velocity": 108}, {"time": 1639, "pitch": 81, "duration": 3, "velocity": 108}, {"time": 1642, "pitch": 81, "duration": 3, "velocity": 104}, {"time": 1645, "pitch": 81, "duration": 3, "velocity": 116}, {"time": 1648, "pitch": 81, "duration": 3, "velocity": 107}, {"time": 1651, "pitch": 86, "duration": 3, "velocity": 113}, {"time": 1654, "pitch": 85, "duration": 6, "velocity": 113}, {"time": 1660, "pitch": 83, "duration": 15, "velocity": 108}, {"time": 1675, "pitch": 71, "duration": 3, "velocity": 108}, {"time": 1678, "pitch": 74, "duration": 3, "velocity": 107}, {"time": 1681, "pitch": 78, "duration": 3, "velocity": 113}, {"time": 1684, "pitch": 76, "duration": 9, "velocity": 110}, {"time": 1693, "pitch": 71, "duration": 3, "velocity": 108}, {"time": 1696, "pitch": 74, "duration": 3, "velocity": 93}, {"time": 1699, "pitch": 78, "duration": 3, "velocity": 119}, {"time": 1702, "pitch": 78, "duration": 6, "velocity": 113}, {"time": 1708, "pitch": 76, "duration": 6, "velocity": 104}, {"time": 1714, "pitch": 78, "duration": 3, "velocity": 113}, {"time": 1717, "pitch": 76, "duration": 3, "velocity": 100}, {"time": 1720, "pitch": 74, "duration": 3, "velocity": 104}, {"time": 1723, "pitch": 76, "duration": 6, "velocity": 107}, {"time": 1729, "pitch": 74, "duration": 48, "velocity": 108}, {"time": 1777, "pitch": 81, "duration": 3, "velocity": 113}, {"time": 1780, "pitch": 74, "duration": 6, "velocity": 108}, {"time": 1786, "pitch": 74, "duration": 9, "velocity": 114}, {"time": 1795, "pitch": 69, "duration": 3, "velocity": 108}, {"time": 1798, "pitch": 69, "duration": 3, "velocity": 113}, {"time": 1801, "pitch": 76, "duration": 3, "velocity": 116}, {"time": 1804, "pitch": 76, "duration": 3, "velocity": 116}, {"time": 1807, "pitch": 76, "duration": 3, "velocity": 107}, {"time": 1810, "pitch": 74, "duration": 3, "velocity": 104}, {"time": 1813, "pitch": 74, "duration": 6, "velocity": 114}, {"time": 1819, "pitch": 74, "duration": 3, "velocity": 117}, {"time": 1822, "pitch": 76, "duration": 3, "velocity": 107}, {"time": 1825, "pitch": 78, "duration": 6, "velocity": 116}, {"time": 1831, "pitch": 81, "duration": 12, "velocity": 117}, {"time": 1843, "pitch": 83, "duration": 3, "velocity": 117}, {"time": 1846, "pitch": 81, "duration": 6, "velocity": 116}, {"time": 1852, "pitch": 78, "duration": 21, "velocity": 113}, {"time": 1873, "pitch": 76, "duration": 6, "velocity": 110}, {"time": 1879, "pitch": 78, "duration": 3, "velocity": 116}, {"time": 1882, "pitch": 76, "duration": 6, "velocity": 113}, {"time": 1888, "pitch": 74, "duration": 9, "velocity": 117}, {"time": 1897, "pitch": 76, "duration": 3, "velocity": 114}, {"time": 1900, "pitch": 76, "duration": 3, "velocity": 108}, {"time": 1903, "pitch": 76, "duration": 3, "velocity": 110}, {"time": 1906, "pitch": 74, "duration": 6, "velocity": 116}, {"time": 1912, "pitch": 74, "duration": 3, "velocity": 114}, {"time": 1915, "pitch": 78, "duration": 6, "velocity": 106}, {"time": 1921, "pitch": 78, "duration": 48, "velocity": 119}, {"time": 1969, "pitch": 81, "duration": 3, "velocity": 113}, {"time": 1972, "pitch": 74, "duration": 6, "velocity": 108}, {"time": 1978, "pitch": 74, "duration": 9, "velocity": 114}, {"time": 1987, "pitch": 69, "duration": 3, "velocity": 108}, {"time": 1990, "pitch": 69, "duration": 3, "velocity": 113}, {"time": 1993, "pitch": 76, "duration": 3, "velocity": 116}, {"time": 1996, "pitch": 76, "duration": 6, "velocity": 116}, {"time": 2002, "pitch": 76, "duration": 3, "velocity": 104}, {"time": 2005, "pitch": 76, "duration": 3, "velocity": 114}, {"time": 2008, "pitch": 74, "duration": 6, "velocity": 117}, {"time": 2014, "pitch": 76, "duration": 3, "velocity": 107}, {"time": 2017, "pitch": 78, "duration": 6, "velocity": 116}, {"time": 2023, "pitch": 81, "duration": 6, "velocity": 117}, {"time": 2029, "pitch": 81, "duration": 3, "velocity": 116}, {"time": 2032, "pitch": 78, "duration": 6, "velocity": 95}, {"time": 2038, "pitch": 85, "duration": 4, "velocity": 119}, {"time": 2041, "pitch": 86, "duration": 24, "velocity": 117}, {"time": 2065, "pitch": 86, "duration": 3, "velocity": 117}, {"time": 2068, "pitch": 86, "duration": 3, "velocity": 110}, {"time": 2071, "pitch": 83, "duration": 3, "velocity": 110}, {"time": 2074, "pitch": 86, "duration": 9, "velocity": 120}, {"time": 2083, "pitch": 86, "duration": 3, "velocity": 117}, {"time": 2086, "pitch": 83, "duration": 3, "velocity": 110}, {"time": 2089, "pitch": 86, "duration": 6, "velocity": 120}, {"time": 2095, "pitch": 83, "duration": 6, "velocity": 117}, {"time": 2101, "pitch": 81, "duration": 3, "velocity": 119}, {"time": 2104, "pitch": 83, "duration": 6, "velocity": 110}, {"time": 2110, "pitch": 83, "duration": 9, "velocity": 117}, {"time": 2155, "pitch": 80, "duration": 3, "velocity": 109}, {"time": 2158, "pitch": 83, "duration": 3, "velocity": 110}, {"time": 2161, "pitch": 85, "duration": 3, "velocity": 108}, {"time": 2164, "pitch": 85, "duration": 3, "velocity": 102}, {"time": 2167, "pitch": 85, "duration": 3, "velocity": 102}, {"time": 2170, "pitch": 85, "duration": 3, "velocity": 102}, {"time": 2173, "pitch": 85, "duration": 3, "velocity": 108}, {"time": 2176, "pitch": 83, "duration": 3, "velocity": 91}, {"time": 2179, "pitch": 83, "duration": 6, "velocity": 104}, {"time": 2185, "pitch": 78, "duration": 9, "velocity": 114}, {"time": 2194, "pitch": 78, "duration": 3, "velocity": 108}, {"time": 2197, "pitch": 76, "duration": 3, "velocity": 91}, {"time": 2200, "pitch": 78, "duration": 3, "velocity": 94}, {"time": 2203, "pitch": 76, "duration": 3, "velocity": 102}, {"time": 2206, "pitch": 78, "duration": 3, "velocity": 93}, {"time": 2209, "pitch": 83, "duration": 3, "velocity": 117}, {"time": 2212, "pitch": 83, "duration": 3, "velocity": 93}, {"time": 2215, "pitch": 83, "duration": 3, "velocity": 110}, {"time": 2218, "pitch": 80, "duration": 3, "velocity": 106}, {"time": 2221, "pitch": 83, "duration": 3, "velocity": 116}, {"time": 2224, "pitch": 80, "duration": 3, "velocity": 109}, {"time": 2227, "pitch": 78, "duration": 3, "velocity": 95}, {"time": 2230, "pitch": 76, "duration": 3, "velocity": 104}, {"time": 2233, "pitch": 76, "duration": 18, "velocity": 90}, {"time": 2251, "pitch": 80, "duration": 3, "velocity": 106}, {"time": 2254, "pitch": 83, "duration": 3, "velocity": 98}, {"time": 2257, "pitch": 85, "duration": 3, "velocity": 102}, {"time": 2260, "pitch": 85, "duration": 3, "velocity": 93}, {"time": 2263, "pitch": 85, "duration": 3, "velocity": 100}, {"time": 2266, "pitch": 83, "duration": 3, "velocity": 102}, {"time": 2269, "pitch": 85, "duration": 6, "velocity": 104}, {"time": 2275, "pitch": 85, "duration": 6, "velocity": 113}, {"time": 2281, "pitch": 78, "duration": 12, "velocity": 96}, {"time": 2293, "pitch": 76, "duration": 6, "velocity": 104}, {"time": 2299, "pitch": 78, "duration": 3, "velocity": 98}, {"time": 2302, "pitch": 80, "duration": 45, "velocity": 113}, {"time": 2347, "pitch": 80, "duration": 3, "velocity": 116}, {"time": 2350, "pitch": 83, "duration": 3, "velocity": 108}, {"time": 2353, "pitch": 85, "duration": 3, "velocity": 107}, {"time": 2356, "pitch": 85, "duration": 3, "velocity": 98}, {"time": 2359, "pitch": 85, "duration": 3, "velocity": 102}, {"time": 2362, "pitch": 83, "duration": 3, "velocity": 113}, {"time": 2365, "pitch": 85, "duration": 6, "velocity": 107}, {"time": 2371, "pitch": 83, "duration": 6, "velocity": 108}, {"time": 2377, "pitch": 78, "duration": 9, "velocity": 110}, {"time": 2386, "pitch": 78, "duration": 3, "velocity": 108}, {"time": 2389, "pitch": 76, "duration": 3, "velocity": 104}, {"time": 2392, "pitch": 78, "duration": 3, "velocity": 102}, {"time": 2395, "pitch": 76, "duration": 3, "velocity": 104}, {"time": 2398, "pitch": 78, "duration": 3, "velocity": 107}, {"time": 2401, "pitch": 80, "duration": 3, "velocity": 116}, {"time": 2404, "pitch": 83, "duration": 3, "velocity": 108}, {"time": 2407, "pitch": 83, "duration": 3, "velocity": 108}, {"time": 2410, "pitch": 83, "duration": 3, "velocity": 104}, {"time": 2413, "pitch": 83, "duration": 3, "velocity": 116}, {"time": 2416, "pitch": 83, "duration": 3, "velocity": 107}, {"time": 2419, "pitch": 88, "duration": 3, "velocity": 113}, {"time": 2422, "pitch": 87, "duration": 6, "velocity": 113}, {"time": 2428, "pitch": 85, "duration": 15, "velocity": 108}, {"time": 2443, "pitch": 73, "duration": 3, "velocity": 108}, {"time": 2446, "pitch": 76, "duration": 3, "velocity": 107}, {"time": 2449, "pitch": 80, "duration": 3, "velocity": 113}, {"time": 2452, "pitch": 78, "duration": 9, "velocity": 110}, {"time": 2461, "pitch": 73, "duration": 3, "velocity": 108}, {"time": 2464, "pitch": 76, "duration": 3, "velocity": 93}, {"time": 2467, "pitch": 80, "duration": 3, "velocity": 119}, {"time": 2470, "pitch": 80, "duration": 6, "velocity": 113}, {"time": 2476, "pitch": 78, "duration": 6, "velocity": 104}, {"time": 2482, "pitch": 80, "duration": 3, "velocity": 113}, {"time": 2485, "pitch": 78, "duration": 3, "velocity": 100}, {"time": 2488, "pitch": 76, "duration": 3, "velocity": 104}, {"time": 2491, "pitch": 78, "duration": 6, "velocity": 107}, {"time": 2497, "pitch": 76, "duration": 34, "velocity": 108}, {"time": 2539, "pitch": 68, "duration": 2, "velocity": 105}, {"time": 2542, "pitch": 68, "duration": 4, "velocity": 104}, {"time": 2545, "pitch": 69, "duration": 2, "velocity": 104}, {"time": 2549, "pitch": 69, "duration": 4, "velocity": 102}, {"time": 2555, "pitch": 69, "duration": 3, "velocity": 102}, {"time": 2558, "pitch": 71, "duration": 4, "velocity": 99}, {"time": 2561, "pitch": 68, "duration": 4, "velocity": 96}, {"time": 2564, "pitch": 71, "duration": 2, "velocity": 96}, {"time": 2568, "pitch": 71, "duration": 7, "velocity": 96}, {"time": 2576, "pitch": 71, "duration": 2, "velocity": 96}, {"time": 2580, "pitch": 71, "duration": 3, "velocity": 96}, {"time": 2583, "pitch": 64, "duration": 4, "velocity": 94}, {"time": 2586, "pitch": 69, "duration": 8, "velocity": 87}, {"time": 2594, "pitch": 68, "duration": 33, "velocity": 79}]}, {"program": 0, "is_drum": false, "name": "BRIDGE", "notes": [{"time": 817, "pitch": 71, "duration": 12, "velocity": 119}, {"time": 829, "pitch": 67, "duration": 12, "velocity": 116}, {"time": 841, "pitch": 73, "duration": 12, "velocity": 119}, {"time": 853, "pitch": 76, "duration": 12, "velocity": 116}, {"time": 865, "pitch": 74, "duration": 12, "velocity": 117}, {"time": 877, "pitch": 69, "duration": 12, "velocity": 117}, {"time": 889, "pitch": 71, "duration": 24, "velocity": 117}, {"time": 913, "pitch": 74, "duration": 12, "velocity": 117}, {"time": 925, "pitch": 67, "duration": 12, "velocity": 113}, {"time": 937, "pitch": 73, "duration": 12, "velocity": 116}, {"time": 949, "pitch": 76, "duration": 12, "velocity": 117}, {"time": 961, "pitch": 78, "duration": 30, "velocity": 116}, {"time": 991, "pitch": 74, "duration": 6, "velocity": 116}, {"time": 997, "pitch": 73, "duration": 6, "velocity": 113}, {"time": 1003, "pitch": 69, "duration": 6, "velocity": 117}, {"time": 1009, "pitch": 71, "duration": 12, "velocity": 117}, {"time": 1021, "pitch": 78, "duration": 12, "velocity": 119}, {"time": 1033, "pitch": 76, "duration": 12, "velocity": 117}, {"time": 1045, "pitch": 73, "duration": 12, "velocity": 116}, {"time": 1057, "pitch": 74, "duration": 24, "velocity": 119}, {"time": 1081, "pitch": 71, "duration": 12, "velocity": 119}, {"time": 1093, "pitch": 66, "duration": 12, "velocity": 119}, {"time": 1105, "pitch": 67, "duration": 24, "velocity": 117}, {"time": 1129, "pitch": 64, "duration": 12, "velocity": 116}, {"time": 1141, "pitch": 57, "duration": 12, "velocity": 113}, {"time": 1153, "pitch": 62, "duration": 24, "velocity": 119}, {"time": 1177, "pitch": 74, "duration": 6, "velocity": 117}, {"time": 1183, "pitch": 78, "duration": 6, "velocity": 119}, {"time": 1189, "pitch": 81, "duration": 6, "velocity": 117}, {"time": 1195, "pitch": 78, "duration": 6, "velocity": 119}, {"time": 1393, "pitch": 71, "duration": 12, "velocity": 119}, {"time": 1405, "pitch": 67, "duration": 12, "velocity": 116}, {"time": 1417, "pitch": 73, "duration": 12, "velocity": 119}, {"time": 1429, "pitch": 76, "duration": 12, "velocity": 116}, {"time": 1441, "pitch": 74, "duration": 12, "velocity": 117}, {"time": 1453, "pitch": 69, "duration": 12, "velocity": 117}, {"time": 1465, "pitch": 71, "duration": 24, "velocity": 117}, {"time": 1489, "pitch": 74, "duration": 12, "velocity": 117}, {"time": 1501, "pitch": 67, "duration": 12, "velocity": 113}, {"time": 1513, "pitch": 73, "duration": 12, "velocity": 116}, {"time": 1525, "pitch": 76, "duration": 12, "velocity": 117}, {"time": 1537, "pitch": 78, "duration": 30, "velocity": 116}, {"time": 1567, "pitch": 74, "duration": 6, "velocity": 116}, {"time": 1573, "pitch": 73, "duration": 6, "velocity": 113}, {"time": 1579, "pitch": 69, "duration": 6, "velocity": 117}, {"time": 1585, "pitch": 71, "duration": 12, "velocity": 117}, {"time": 1597, "pitch": 78, "duration": 12, "velocity": 119}, {"time": 1609, "pitch": 76, "duration": 12, "velocity": 117}, {"time": 1621, "pitch": 73, "duration": 12, "velocity": 116}, {"time": 1633, "pitch": 74, "duration": 24, "velocity": 119}, {"time": 1657, "pitch": 71, "duration": 12, "velocity": 119}, {"time": 1669, "pitch": 66, "duration": 12, "velocity": 119}, {"time": 1681, "pitch": 67, "duration": 24, "velocity": 117}, {"time": 1705, "pitch": 64, "duration": 12, "velocity": 116}, {"time": 1717, "pitch": 57, "duration": 12, "velocity": 113}, {"time": 1729, "pitch": 62, "duration": 24, "velocity": 119}, {"time": 1753, "pitch": 74, "duration": 6, "velocity": 117}, {"time": 1759, "pitch": 78, "duration": 6, "velocity": 119}, {"time": 1765, "pitch": 81, "duration": 6, "velocity": 117}, {"time": 1771, "pitch": 78, "duration": 12, "velocity": 119}, {"time": 1783, "pitch": 67, "duration": 6, "velocity": 113}, {"time": 1789, "pitch": 74, "duration": 6, "velocity": 114}, {"time": 1795, "pitch": 69, "duration": 12, "velocity": 113}, {"time": 1807, "pitch": 69, "duration": 6, "velocity": 116}, {"time": 1813, "pitch": 76, "duration": 6, "velocity": 110}, {"time": 1819, "pitch": 73, "duration": 12, "velocity": 119}, {"time": 1831, "pitch": 69, "duration": 6, "velocity": 116}, {"time": 1837, "pitch": 76, "duration": 6, "velocity": 116}, {"time": 1843, "pitch": 78, "duration": 12, "velocity": 119}, {"time": 1855, "pitch": 69, "duration": 6, "velocity": 117}, {"time": 1861, "pitch": 73, "duration": 6, "velocity": 116}, {"time": 1867, "pitch": 74, "duration": 6, "velocity": 117}, {"time": 1873, "pitch": 71, "duration": 12, "velocity": 117}, {"time": 1885, "pitch": 67, "duration": 12, "velocity": 116}, {"time": 1897, "pitch": 64, "duration": 12, "velocity": 117}, {"time": 1909, "pitch": 73, "duration": 12, "velocity": 119}, {"time": 1921, "pitch": 69, "duration": 24, "velocity": 116}, {"time": 1945, "pitch": 66, "duration": 12, "velocity": 119}, {"time": 1957, "pitch": 74, "duration": 12, "velocity": 116}, {"time": 1969, "pitch": 71, "duration": 12, "velocity": 119}, {"time": 1981, "pitch": 78, "duration": 12, "velocity": 123}, {"time": 1993, "pitch": 76, "duration": 12, "velocity": 123}, {"time": 2005, "pitch": 73, "duration": 12, "velocity": 116}, {"time": 2017, "pitch": 74, "duration": 24, "velocity": 119}, {"time": 2041, "pitch": 71, "duration": 12, "velocity": 116}, {"time": 2053, "pitch": 66, "duration": 12, "velocity": 119}, {"time": 2065, "pitch": 67, "duration": 24, "velocity": 119}, {"time": 2089, "pitch": 69, "duration": 12, "velocity": 117}, {"time": 2101, "pitch": 73, "duration": 12, "velocity": 119}, {"time": 2113, "pitch": 71, "duration": 15, "velocity": 117}, {"time": 2125, "pitch": 71, "duration": 3, "velocity": 100}, {"time": 2131, "pitch": 66, "duration": 6, "velocity": 109}, {"time": 2137, "pitch": 71, "duration": 7, "velocity": 110}, {"time": 2143, "pitch": 75, "duration": 6, "velocity": 113}, {"time": 2149, "pitch": 78, "duration": 6, "velocity": 119}, {"time": 2155, "pitch": 75, "duration": 6, "velocity": 119}, {"time": 2161, "pitch": 76, "duration": 36, "velocity": 119}, {"time": 2197, "pitch": 78, "duration": 12, "velocity": 119}, {"time": 2209, "pitch": 76, "duration": 19, "velocity": 119}, {"time": 2221, "pitch": 71, "duration": 13, "velocity": 119}, {"time": 2233, "pitch": 73, "duration": 24, "velocity": 119}, {"time": 2257, "pitch": 76, "duration": 12, "velocity": 119}, {"time": 2269, "pitch": 69, "duration": 12, "velocity": 116}, {"time": 2281, "pitch": 76, "duration": 12, "velocity": 117}, {"time": 2293, "pitch": 78, "duration": 12, "velocity": 119}, {"time": 2305, "pitch": 80, "duration": 30, "velocity": 123}, {"time": 2335, "pitch": 83, "duration": 6, "velocity": 117}, {"time": 2341, "pitch": 81, "duration": 6, "velocity": 113}, {"time": 2347, "pitch": 80, "duration": 6, "velocity": 116}, {"time": 2353, "pitch": 73, "duration": 12, "velocity": 116}, {"time": 2365, "pitch": 80, "duration": 12, "velocity": 123}, {"time": 2377, "pitch": 78, "duration": 12, "velocity": 116}, {"time": 2389, "pitch": 75, "duration": 12, "velocity": 123}, {"time": 2401, "pitch": 83, "duration": 24, "velocity": 119}, {"time": 2425, "pitch": 76, "duration": 48, "velocity": 119}, {"time": 2473, "pitch": 78, "duration": 13, "velocity": 116}, {"time": 2485, "pitch": 80, "duration": 12, "velocity": 103}, {"time": 2497, "pitch": 76, "duration": 24, "velocity": 110}, {"time": 2521, "pitch": 76, "duration": 9, "velocity": 117}, {"time": 2527, "pitch": 80, "duration": 6, "velocity": 116}, {"time": 2533, "pitch": 83, "duration": 6, "velocity": 119}, {"time": 2539, "pitch": 80, "duration": 18, "velocity": 116}]}, {"program": 0, "is_drum": false, "name": "PIANO", "notes": [{"time": 25, "pitch": 62, "duration": 9, "velocity": 104}, {"time": 31, "pitch": 66, "duration": 8, "velocity": 90}, {"time": 37, "pitch": 69, "duration": 5, "velocity": 87}, {"time": 43, "pitch": 74, "duration": 4, "velocity": 104}, {"time": 49, "pitch": 50, "duration": 19, "velocity": 96}, {"time": 55, "pitch": 57, "duration": 13, "velocity": 83}, {"time": 58, "pitch": 64, "duration": 1, "velocity": 80}, {"time": 61, "pitch": 66, "duration": 3, "velocity": 86}, {"time": 64, "pitch": 64, "duration": 3, "velocity": 84}, {"time": 67, "pitch": 62, "duration": 6, "velocity": 88}, {"time": 73, "pitch": 45, "duration": 19, "velocity": 82}, {"time": 79, "pitch": 52, "duration": 17, "velocity": 63}, {"time": 85, "pitch": 61, "duration": 2, "velocity": 106}, {"time": 88, "pitch": 62, "duration": 1, "velocity": 86}, {"time": 89, "pitch": 61, "duration": 2, "velocity": 85}, {"time": 91, "pitch": 57, "duration": 5, "velocity": 88}, {"time": 97, "pitch": 47, "duration": 40, "velocity": 87}, {"time": 103, "pitch": 54, "duration": 8, "velocity": 71}, {"time": 106, "pitch": 62, "duration": 6, "velocity": 110}, {"time": 112, "pitch": 59, "duration": 6, "velocity": 86}, {"time": 118, "pitch": 61, "duration": 5, "velocity": 103}, {"time": 124, "pitch": 54, "duration": 3, "velocity": 73}, {"time": 130, "pitch": 54, "duration": 1, "velocity": 109}, {"time": 133, "pitch": 58, "duration": 2, "velocity": 91}, {"time": 136, "pitch": 59, "duration": 3, "velocity": 92}, {"time": 139, "pitch": 61, "duration": 3, "velocity": 109}, {"time": 145, "pitch": 43, "duration": 20, "velocity": 87}, {"time": 145, "pitch": 66, "duration": 7, "velocity": 113}, {"time": 148, "pitch": 50, "duration": 19, "velocity": 74}, {"time": 151, "pitch": 55, "duration": 6, "velocity": 78}, {"time": 154, "pitch": 62, "duration": 8, "velocity": 91}, {"time": 160, "pitch": 55, "duration": 8, "velocity": 84}, {"time": 163, "pitch": 66, "duration": 6, "velocity": 86}, {"time": 169, "pitch": 45, "duration": 21, "velocity": 84}, {"time": 172, "pitch": 52, "duration": 19, "velocity": 77}, {"time": 175, "pitch": 57, "duration": 6, "velocity": 83}, {"time": 178, "pitch": 64, "duration": 9, "velocity": 86}, {"time": 184, "pitch": 57, "duration": 8, "velocity": 81}, {"time": 187, "pitch": 62, "duration": 3, "velocity": 84}, {"time": 190, "pitch": 61, "duration": 2, "velocity": 81}, {"time": 193, "pitch": 50, "duration": 43, "velocity": 88}, {"time": 199, "pitch": 57, "duration": 7, "velocity": 78}, {"time": 205, "pitch": 66, "duration": 8, "velocity": 97}, {"time": 211, "pitch": 57, "duration": 7, "velocity": 69}, {"time": 214, "pitch": 62, "duration": 2, "velocity": 78}, {"time": 217, "pitch": 67, "duration": 6, "velocity": 116}, {"time": 223, "pitch": 57, "duration": 5, "velocity": 38}, {"time": 223, "pitch": 66, "duration": 3, "velocity": 83}, {"time": 226, "pitch": 62, "duration": 6, "velocity": 86}, {"time": 232, "pitch": 57, "duration": 4, "velocity": 77}, {"time": 235, "pitch": 62, "duration": 2, "velocity": 88}, {"time": 241, "pitch": 50, "duration": 25, "velocity": 92}, {"time": 247, "pitch": 57, "duration": 18, "velocity": 71}, {"time": 253, "pitch": 66, "duration": 6, "velocity": 109}, {"time": 259, "pitch": 62, "duration": 7, "velocity": 79}, {"time": 262, "pitch": 66, "duration": 5, "velocity": 84}, {"time": 265, "pitch": 45, "duration": 19, "velocity": 74}, {"time": 271, "pitch": 52, "duration": 17, "velocity": 62}, {"time": 274, "pitch": 57, "duration": 4, "velocity": 85}, {"time": 277, "pitch": 61, "duration": 5, "velocity": 109}, {"time": 280, "pitch": 57, "duration": 7, "velocity": 88}, {"time": 283, "pitch": 64, "duration": 3, "velocity": 86}, {"time": 286, "pitch": 66, "duration": 9, "velocity": 85}, {"time": 289, "pitch": 47, "duration": 43, "velocity": 85}, {"time": 295, "pitch": 54, "duration": 26, "velocity": 78}, {"time": 298, "pitch": 59, "duration": 8, "velocity": 81}, {"time": 301, "pitch": 64, "duration": 9, "velocity": 98}, {"time": 307, "pitch": 59, "duration": 4, "velocity": 72}, {"time": 310, "pitch": 62, "duration": 12, "velocity": 88}, {"time": 322, "pitch": 61, "duration": 4, "velocity": 81}, {"time": 325, "pitch": 54, "duration": 6, "velocity": 91}, {"time": 328, "pitch": 61, "duration": 3, "velocity": 106}, {"time": 331, "pitch": 62, "duration": 4, "velocity": 85}, {"time": 337, "pitch": 43, "duration": 19, "velocity": 91}, {"time": 343, "pitch": 50, "duration": 17, "velocity": 74}, {"time": 346, "pitch": 55, "duration": 4, "velocity": 88}, {"time": 349, "pitch": 59, "duration": 5, "velocity": 104}, {"time": 352, "pitch": 55, "duration": 8, "velocity": 87}, {"time": 355, "pitch": 62, "duration": 6, "velocity": 107}, {"time": 361, "pitch": 45, "duration": 20, "velocity": 86}, {"time": 367, "pitch": 52, "duration": 14, "velocity": 72}, {"time": 370, "pitch": 57, "duration": 13, "velocity": 85}, {"time": 373, "pitch": 61, "duration": 6, "velocity": 103}, {"time": 379, "pitch": 62, "duration": 3, "velocity": 85}, {"time": 382, "pitch": 64, "duration": 3, "velocity": 87}, {"time": 385, "pitch": 50, "duration": 43, "velocity": 89}, {"time": 391, "pitch": 57, "duration": 7, "velocity": 74}, {"time": 397, "pitch": 64, "duration": 12, "velocity": 91}, {"time": 403, "pitch": 57, "duration": 10, "velocity": 61}, {"time": 409, "pitch": 66, "duration": 9, "velocity": 83}, {"time": 418, "pitch": 57, "duration": 3, "velocity": 87}, {"time": 421, "pitch": 62, "duration": 4, "velocity": 113}, {"time": 424, "pitch": 57, "duration": 3, "velocity": 87}, {"time": 427, "pitch": 64, "duration": 4, "velocity": 104}, {"time": 430, "pitch": 66, "duration": 2, "velocity": 85}, {"time": 433, "pitch": 43, "duration": 20, "velocity": 107}, {"time": 436, "pitch": 50, "duration": 20, "velocity": 84}, {"time": 442, "pitch": 55, "duration": 4, "velocity": 88}, {"time": 445, "pitch": 62, "duration": 8, "velocity": 116}, {"time": 451, "pitch": 55, "duration": 6, "velocity": 83}, {"time": 454, "pitch": 59, "duration": 4, "velocity": 100}, {"time": 457, "pitch": 45, "duration": 21, "velocity": 91}, {"time": 460, "pitch": 52, "duration": 10, "velocity": 85}, {"time": 463, "pitch": 57, "duration": 2, "velocity": 83}, {"time": 466, "pitch": 61, "duration": 8, "velocity": 116}, {"time": 472, "pitch": 52, "duration": 6, "velocity": 88}, {"time": 475, "pitch": 57, "duration": 3, "velocity": 89}, {"time": 478, "pitch": 61, "duration": 2, "velocity": 91}, {"time": 481, "pitch": 50, "duration": 21, "velocity": 104}, {"time": 487, "pitch": 57, "duration": 8, "velocity": 84}, {"time": 490, "pitch": 62, "duration": 2, "velocity": 91}, {"time": 493, "pitch": 66, "duration": 8, "velocity": 119}, {"time": 499, "pitch": 57, "duration": 3, "velocity": 81}, {"time": 502, "pitch": 62, "duration": 7, "velocity": 91}, {"time": 505, "pitch": 47, "duration": 19, "velocity": 93}, {"time": 511, "pitch": 54, "duration": 7, "velocity": 80}, {"time": 514, "pitch": 59, "duration": 9, "velocity": 98}, {"time": 517, "pitch": 62, "duration": 6, "velocity": 114}, {"time": 520, "pitch": 54, "duration": 4, "velocity": 109}, {"time": 523, "pitch": 66, "duration": 3, "velocity": 119}, {"time": 526, "pitch": 62, "duration": 3, "velocity": 93}, {"time": 529, "pitch": 43, "duration": 19, "velocity": 110}, {"time": 535, "pitch": 50, "duration": 17, "velocity": 81}, {"time": 538, "pitch": 55, "duration": 5, "velocity": 108}, {"time": 541, "pitch": 59, "duration": 4, "velocity": 114}, {"time": 544, "pitch": 55, "duration": 6, "velocity": 98}, {"time": 547, "pitch": 62, "duration": 3, "velocity": 113}, {"time": 550, "pitch": 59, "duration": 5, "velocity": 96}, {"time": 553, "pitch": 45, "duration": 19, "velocity": 90}, {"time": 556, "pitch": 52, "duration": 10, "velocity": 83}, {"time": 559, "pitch": 57, "duration": 7, "velocity": 87}, {"time": 562, "pitch": 61, "duration": 3, "velocity": 100}, {"time": 565, "pitch": 62, "duration": 5, "velocity": 110}, {"time": 568, "pitch": 52, "duration": 5, "velocity": 89}, {"time": 571, "pitch": 57, "duration": 4, "velocity": 90}, {"time": 574, "pitch": 61, "duration": 3, "velocity": 106}, {"time": 577, "pitch": 50, "duration": 42, "velocity": 98}, {"time": 583, "pitch": 57, "duration": 7, "velocity": 86}, {"time": 586, "pitch": 62, "duration": 2, "velocity": 89}, {"time": 589, "pitch": 66, "duration": 8, "velocity": 119}, {"time": 595, "pitch": 57, "duration": 15, "velocity": 77}, {"time": 598, "pitch": 64, "duration": 5, "velocity": 113}, {"time": 604, "pitch": 62, "duration": 8, "velocity": 88}, {"time": 610, "pitch": 64, "duration": 4, "velocity": 85}, {"time": 613, "pitch": 57, "duration": 5, "velocity": 104}, {"time": 616, "pitch": 62, "duration": 4, "velocity": 96}, {"time": 619, "pitch": 64, "duration": 2, "velocity": 91}, {"time": 625, "pitch": 43, "duration": 21, "velocity": 94}, {"time": 625, "pitch": 59, "duration": 5, "velocity": 93}, {"time": 625, "pitch": 67, "duration": 8, "velocity": 100}, {"time": 631, "pitch": 62, "duration": 3, "velocity": 89}, {"time": 634, "pitch": 55, "duration": 4, "velocity": 98}, {"time": 637, "pitch": 59, "duration": 8, "velocity": 114}, {"time": 637, "pitch": 67, "duration": 9, "velocity": 96}, {"time": 643, "pitch": 55, "duration": 5, "velocity": 86}, {"time": 646, "pitch": 62, "duration": 2, "velocity": 86}, {"time": 649, "pitch": 45, "duration": 20, "velocity": 91}, {"time": 649, "pitch": 57, "duration": 4, "velocity": 91}, {"time": 649, "pitch": 61, "duration": 6, "velocity": 93}, {"time": 649, "pitch": 64, "duration": 5, "velocity": 82}, {"time": 655, "pitch": 52, "duration": 13, "velocity": 81}, {"time": 658, "pitch": 57, "duration": 4, "velocity": 89}, {"time": 661, "pitch": 61, "duration": 7, "velocity": 109}, {"time": 661, "pitch": 69, "duration": 5, "velocity": 91}, {"time": 667, "pitch": 64, "duration": 4, "velocity": 77}, {"time": 670, "pitch": 61, "duration": 1, "velocity": 85}, {"time": 670, "pitch": 69, "duration": 2, "velocity": 77}, {"time": 673, "pitch": 42, "duration": 20, "velocity": 93}, {"time": 673, "pitch": 57, "duration": 9, "velocity": 107}, {"time": 673, "pitch": 66, "duration": 9, "velocity": 97}, {"time": 679, "pitch": 61, "duration": 4, "velocity": 76}, {"time": 682, "pitch": 54, "duration": 4, "velocity": 83}, {"time": 685, "pitch": 57, "duration": 11, "velocity": 96}, {"time": 685, "pitch": 66, "duration": 13, "velocity": 93}, {"time": 691, "pitch": 54, "duration": 4, "velocity": 84}, {"time": 694, "pitch": 61, "duration": 4, "velocity": 87}, {"time": 697, "pitch": 47, "duration": 19, "velocity": 96}, {"time": 703, "pitch": 54, "duration": 13, "velocity": 81}, {"time": 706, "pitch": 59, "duration": 4, "velocity": 100}, {"time": 709, "pitch": 62, "duration": 4, "velocity": 116}, {"time": 712, "pitch": 59, "duration": 3, "velocity": 93}, {"time": 715, "pitch": 62, "duration": 1, "velocity": 76}, {"time": 715, "pitch": 66, "duration": 4, "velocity": 119}, {"time": 721, "pitch": 43, "duration": 20, "velocity": 110}, {"time": 724, "pitch": 50, "duration": 20, "velocity": 81}, {"time": 727, "pitch": 55, "duration": 7, "velocity": 81}, {"time": 733, "pitch": 59, "duration": 12, "velocity": 93}, {"time": 733, "pitch": 67, "duration": 15, "velocity": 96}, {"time": 739, "pitch": 55, "duration": 5, "velocity": 86}, {"time": 742, "pitch": 62, "duration": 3, "velocity": 91}, {"time": 745, "pitch": 45, "duration": 20, "velocity": 89}, {"time": 748, "pitch": 52, "duration": 10, "velocity": 81}, {"time": 751, "pitch": 57, "duration": 11, "velocity": 79}, {"time": 754, "pitch": 64, "duration": 14, "velocity": 89}, {"time": 760, "pitch": 52, "duration": 5, "velocity": 86}, {"time": 763, "pitch": 57, "duration": 5, "velocity": 86}, {"time": 766, "pitch": 61, "duration": 3, "velocity": 86}, {"time": 769, "pitch": 50, "duration": 40, "velocity": 86}, {"time": 775, "pitch": 57, "duration": 7, "velocity": 83}, {"time": 778, "pitch": 62, "duration": 2, "velocity": 84}, {"time": 781, "pitch": 67, "duration": 8, "velocity": 117}, {"time": 787, "pitch": 57, "duration": 9, "velocity": 83}, {"time": 790, "pitch": 62, "duration": 7, "velocity": 91}, {"time": 790, "pitch": 66, "duration": 10, "velocity": 109}, {"time": 796, "pitch": 64, "duration": 6, "velocity": 86}, {"time": 802, "pitch": 57, "duration": 6, "velocity": 87}, {"time": 805, "pitch": 62, "duration": 5, "velocity": 108}, {"time": 805, "pitch": 67, "duration": 3, "velocity": 108}, {"time": 808, "pitch": 64, "duration": 4, "velocity": 84}, {"time": 811, "pitch": 66, "duration": 1, "velocity": 86}, {"time": 817, "pitch": 43, "duration": 20, "velocity": 100}, {"time": 823, "pitch": 50, "duration": 17, "velocity": 71}, {"time": 826, "pitch": 55, "duration": 4, "velocity": 86}, {"time": 829, "pitch": 59, "duration": 7, "velocity": 108}, {"time": 829, "pitch": 67, "duration": 8, "velocity": 104}, {"time": 835, "pitch": 55, "duration": 5, "velocity": 76}, {"time": 838, "pitch": 59, "duration": 2, "velocity": 82}, {"time": 838, "pitch": 62, "duration": 6, "velocity": 100}, {"time": 838, "pitch": 67, "duration": 4, "velocity": 80}, {"time": 841, "pitch": 45, "duration": 20, "velocity": 88}, {"time": 844, "pitch": 52, "duration": 11, "velocity": 85}, {"time": 847, "pitch": 57, "duration": 2, "velocity": 83}, {"time": 850, "pitch": 64, "duration": 8, "velocity": 113}, {"time": 856, "pitch": 52, "duration": 3, "velocity": 86}, {"time": 859, "pitch": 57, "duration": 4, "velocity": 89}, {"time": 862, "pitch": 61, "duration": 5, "velocity": 88}, {"time": 865, "pitch": 42, "duration": 17, "velocity": 106}, {"time": 871, "pitch": 54, "duration": 6, "velocity": 86}, {"time": 874, "pitch": 57, "duration": 3, "velocity": 87}, {"time": 877, "pitch": 61, "duration": 5, "velocity": 91}, {"time": 877, "pitch": 66, "duration": 7, "velocity": 103}, {"time": 880, "pitch": 54, "duration": 4, "velocity": 91}, {"time": 883, "pitch": 57, "duration": 5, "velocity": 91}, {"time": 886, "pitch": 61, "duration": 3, "velocity": 109}, {"time": 889, "pitch": 47, "duration": 20, "velocity": 107}, {"time": 892, "pitch": 54, "duration": 16, "velocity": 74}, {"time": 895, "pitch": 59, "duration": 7, "velocity": 91}, {"time": 898, "pitch": 62, "duration": 2, "velocity": 96}, {"time": 901, "pitch": 62, "duration": 1, "velocity": 84}, {"time": 901, "pitch": 66, "duration": 6, "velocity": 123}, {"time": 904, "pitch": 59, "duration": 3, "velocity": 96}, {"time": 907, "pitch": 62, "duration": 3, "velocity": 91}, {"time": 910, "pitch": 64, "duration": 3, "velocity": 88}, {"time": 913, "pitch": 43, "duration": 20, "velocity": 90}, {"time": 913, "pitch": 59, "duration": 9, "velocity": 88}, {"time": 913, "pitch": 67, "duration": 9, "velocity": 96}, {"time": 922, "pitch": 55, "duration": 4, "velocity": 90}, {"time": 925, "pitch": 59, "duration": 7, "velocity": 100}, {"time": 925, "pitch": 67, "duration": 6, "velocity": 92}, {"time": 928, "pitch": 55, "duration": 8, "velocity": 87}, {"time": 931, "pitch": 62, "duration": 3, "velocity": 102}, {"time": 934, "pitch": 67, "duration": 12, "velocity": 89}, {"time": 937, "pitch": 45, "duration": 19, "velocity": 86}, {"time": 937, "pitch": 57, "duration": 9, "velocity": 87}, {"time": 937, "pitch": 61, "duration": 9, "velocity": 86}, {"time": 937, "pitch": 64, "duration": 9, "velocity": 86}, {"time": 946, "pitch": 52, "duration": 3, "velocity": 84}, {"time": 949, "pitch": 57, "duration": 5, "velocity": 98}, {"time": 949, "pitch": 64, "duration": 4, "velocity": 88}, {"time": 949, "pitch": 67, "duration": 8, "velocity": 84}, {"time": 952, "pitch": 52, "duration": 4, "velocity": 87}, {"time": 955, "pitch": 61, "duration": 5, "velocity": 93}, {"time": 958, "pitch": 57, "duration": 2, "velocity": 86}, {"time": 958, "pitch": 62, "duration": 5, "velocity": 46}, {"time": 961, "pitch": 50, "duration": 42, "velocity": 85}, {"time": 961, "pitch": 57, "duration": 1, "velocity": 72}, {"time": 961, "pitch": 66, "duration": 5, "velocity": 103}, {"time": 967, "pitch": 57, "duration": 35, "velocity": 75}, {"time": 970, "pitch": 62, "duration": 6, "velocity": 88}, {"time": 973, "pitch": 64, "duration": 4, "velocity": 110}, {"time": 976, "pitch": 66, "duration": 3, "velocity": 90}, {"time": 979, "pitch": 62, "duration": 9, "velocity": 92}, {"time": 982, "pitch": 69, "duration": 4, "velocity": 108}, {"time": 988, "pitch": 69, "duration": 4, "velocity": 78}, {"time": 988, "pitch": 78, "duration": 5, "velocity": 113}, {"time": 991, "pitch": 62, "duration": 2, "velocity": 38}, {"time": 994, "pitch": 69, "duration": 5, "velocity": 96}, {"time": 994, "pitch": 76, "duration": 5, "velocity": 108}, {"time": 997, "pitch": 62, "duration": 3, "velocity": 88}, {"time": 1000, "pitch": 69, "duration": 1, "velocity": 86}, {"time": 1000, "pitch": 74, "duration": 7, "velocity": 116}, {"time": 1009, "pitch": 43, "duration": 21, "velocity": 88}, {"time": 1009, "pitch": 62, "duration": 5, "velocity": 93}, {"time": 1009, "pitch": 67, "duration": 4, "velocity": 94}, {"time": 1009, "pitch": 71, "duration": 5, "velocity": 90}, {"time": 1015, "pitch": 50, "duration": 18, "velocity": 72}, {"time": 1018, "pitch": 55, "duration": 4, "velocity": 85}, {"time": 1021, "pitch": 59, "duration": 9, "velocity": 107}, {"time": 1021, "pitch": 67, "duration": 10, "velocity": 91}, {"time": 1027, "pitch": 55, "duration": 4, "velocity": 74}, {"time": 1030, "pitch": 62, "duration": 2, "velocity": 88}, {"time": 1033, "pitch": 45, "duration": 19, "velocity": 86}, {"time": 1033, "pitch": 57, "duration": 7, "velocity": 92}, {"time": 1033, "pitch": 61, "duration": 10, "velocity": 95}, {"time": 1033, "pitch": 64, "duration": 13, "velocity": 92}, {"time": 1033, "pitch": 67, "duration": 14, "velocity": 84}, {"time": 1042, "pitch": 52, "duration": 10, "velocity": 79}, {"time": 1045, "pitch": 57, "duration": 6, "velocity": 83}, {"time": 1051, "pitch": 61, "duration": 5, "velocity": 109}, {"time": 1057, "pitch": 42, "duration": 17, "velocity": 84}, {"time": 1057, "pitch": 57, "duration": 7, "velocity": 88}, {"time": 1057, "pitch": 61, "duration": 9, "velocity": 86}, {"time": 1057, "pitch": 66, "duration": 8, "velocity": 97}, {"time": 1066, "pitch": 54, "duration": 5, "velocity": 84}, {"time": 1069, "pitch": 57, "duration": 7, "velocity": 108}, {"time": 1069, "pitch": 66, "duration": 7, "velocity": 116}, {"time": 1072, "pitch": 54, "duration": 4, "velocity": 85}, {"time": 1075, "pitch": 61, "duration": 3, "velocity": 109}, {"time": 1078, "pitch": 66, "duration": 14, "velocity": 97}, {"time": 1081, "pitch": 47, "duration": 17, "velocity": 84}, {"time": 1081, "pitch": 59, "duration": 4, "velocity": 85}, {"time": 1081, "pitch": 62, "duration": 7, "velocity": 90}, {"time": 1087, "pitch": 54, "duration": 11, "velocity": 77}, {"time": 1090, "pitch": 59, "duration": 7, "velocity": 92}, {"time": 1093, "pitch": 62, "duration": 4, "velocity": 116}, {"time": 1096, "pitch": 64, "duration": 3, "velocity": 113}, {"time": 1099, "pitch": 66, "duration": 5, "velocity": 103}, {"time": 1105, "pitch": 43, "duration": 19, "velocity": 82}, {"time": 1105, "pitch": 59, "duration": 8, "velocity": 89}, {"time": 1105, "pitch": 62, "duration": 8, "velocity": 91}, {"time": 1105, "pitch": 67, "duration": 8, "velocity": 94}, {"time": 1114, "pitch": 55, "duration": 4, "velocity": 78}, {"time": 1117, "pitch": 59, "duration": 5, "velocity": 110}, {"time": 1117, "pitch": 67, "duration": 6, "velocity": 108}, {"time": 1120, "pitch": 55, "duration": 6, "velocity": 86}, {"time": 1123, "pitch": 62, "duration": 3, "velocity": 107}, {"time": 1126, "pitch": 67, "duration": 12, "velocity": 87}, {"time": 1129, "pitch": 45, "duration": 19, "velocity": 81}, {"time": 1129, "pitch": 57, "duration": 9, "velocity": 88}, {"time": 1129, "pitch": 61, "duration": 9, "velocity": 97}, {"time": 1129, "pitch": 64, "duration": 9, "velocity": 98}, {"time": 1138, "pitch": 52, "duration": 4, "velocity": 82}, {"time": 1141, "pitch": 57, "duration": 5, "velocity": 104}, {"time": 1141, "pitch": 67, "duration": 7, "velocity": 88}, {"time": 1147, "pitch": 52, "duration": 2, "velocity": 83}, {"time": 1153, "pitch": 50, "duration": 43, "velocity": 77}, {"time": 1153, "pitch": 62, "duration": 4, "velocity": 86}, {"time": 1153, "pitch": 66, "duration": 7, "velocity": 85}, {"time": 1153, "pitch": 69, "duration": 10, "velocity": 86}, {"time": 1159, "pitch": 57, "duration": 25, "velocity": 75}, {"time": 1162, "pitch": 62, "duration": 3, "velocity": 86}, {"time": 1165, "pitch": 67, "duration": 8, "velocity": 114}, {"time": 1171, "pitch": 62, "duration": 2, "velocity": 84}, {"time": 1174, "pitch": 69, "duration": 3, "velocity": 88}, {"time": 1177, "pitch": 64, "duration": 2, "velocity": 82}, {"time": 1177, "pitch": 66, "duration": 12, "velocity": 85}, {"time": 1186, "pitch": 57, "duration": 9, "velocity": 82}, {"time": 1189, "pitch": 62, "duration": 3, "velocity": 88}, {"time": 1192, "pitch": 64, "duration": 2, "velocity": 87}, {"time": 1195, "pitch": 66, "duration": 1, "velocity": 95}, {"time": 1201, "pitch": 50, "duration": 25, "velocity": 92}, {"time": 1207, "pitch": 57, "duration": 18, "velocity": 71}, {"time": 1213, "pitch": 66, "duration": 6, "velocity": 109}, {"time": 1219, "pitch": 62, "duration": 7, "velocity": 79}, {"time": 1222, "pitch": 66, "duration": 5, "velocity": 84}, {"time": 1225, "pitch": 45, "duration": 19, "velocity": 74}, {"time": 1231, "pitch": 52, "duration": 17, "velocity": 62}, {"time": 1234, "pitch": 57, "duration": 4, "velocity": 85}, {"time": 1237, "pitch": 61, "duration": 5, "velocity": 109}, {"time": 1240, "pitch": 57, "duration": 7, "velocity": 88}, {"time": 1243, "pitch": 64, "duration": 3, "velocity": 86}, {"time": 1246, "pitch": 66, "duration": 9, "velocity": 85}, {"time": 1249, "pitch": 47, "duration": 43, "velocity": 85}, {"time": 1255, "pitch": 54, "duration": 26, "velocity": 78}, {"time": 1258, "pitch": 59, "duration": 8, "velocity": 81}, {"time": 1261, "pitch": 64, "duration": 9, "velocity": 98}, {"time": 1267, "pitch": 59, "duration": 4, "velocity": 72}, {"time": 1270, "pitch": 62, "duration": 12, "velocity": 88}, {"time": 1282, "pitch": 61, "duration": 4, "velocity": 81}, {"time": 1285, "pitch": 54, "duration": 6, "velocity": 91}, {"time": 1288, "pitch": 61, "duration": 3, "velocity": 106}, {"time": 1291, "pitch": 62, "duration": 4, "velocity": 85}, {"time": 1297, "pitch": 43, "duration": 19, "velocity": 91}, {"time": 1303, "pitch": 50, "duration": 17, "velocity": 74}, {"time": 1306, "pitch": 55, "duration": 4, "velocity": 88}, {"time": 1309, "pitch": 59, "duration": 5, "velocity": 104}, {"time": 1312, "pitch": 55, "duration": 8, "velocity": 87}, {"time": 1315, "pitch": 62, "duration": 6, "velocity": 107}, {"time": 1321, "pitch": 45, "duration": 20, "velocity": 86}, {"time": 1327, "pitch": 52, "duration": 14, "velocity": 72}, {"time": 1330, "pitch": 57, "duration": 13, "velocity": 85}, {"time": 1333, "pitch": 61, "duration": 6, "velocity": 103}, {"time": 1339, "pitch": 62, "duration": 3, "velocity": 85}, {"time": 1342, "pitch": 64, "duration": 3, "velocity": 87}, {"time": 1345, "pitch": 50, "duration": 43, "velocity": 89}, {"time": 1351, "pitch": 57, "duration": 7, "velocity": 74}, {"time": 1357, "pitch": 64, "duration": 12, "velocity": 91}, {"time": 1363, "pitch": 57, "duration": 10, "velocity": 61}, {"time": 1369, "pitch": 66, "duration": 9, "velocity": 83}, {"time": 1378, "pitch": 57, "duration": 3, "velocity": 87}, {"time": 1381, "pitch": 62, "duration": 4, "velocity": 113}, {"time": 1384, "pitch": 57, "duration": 3, "velocity": 87}, {"time": 1387, "pitch": 64, "duration": 4, "velocity": 104}, {"time": 1390, "pitch": 66, "duration": 2, "velocity": 85}, {"time": 1393, "pitch": 43, "duration": 20, "velocity": 107}, {"time": 1396, "pitch": 50, "duration": 20, "velocity": 84}, {"time": 1402, "pitch": 55, "duration": 4, "velocity": 88}, {"time": 1405, "pitch": 62, "duration": 8, "velocity": 116}, {"time": 1411, "pitch": 55, "duration": 6, "velocity": 83}, {"time": 1414, "pitch": 59, "duration": 4, "velocity": 100}, {"time": 1417, "pitch": 45, "duration": 21, "velocity": 91}, {"time": 1420, "pitch": 52, "duration": 10, "velocity": 85}, {"time": 1423, "pitch": 57, "duration": 2, "velocity": 83}, {"time": 1426, "pitch": 61, "duration": 8, "velocity": 116}, {"time": 1432, "pitch": 52, "duration": 6, "velocity": 88}, {"time": 1435, "pitch": 57, "duration": 3, "velocity": 89}, {"time": 1438, "pitch": 61, "duration": 2, "velocity": 91}, {"time": 1441, "pitch": 50, "duration": 21, "velocity": 104}, {"time": 1447, "pitch": 57, "duration": 8, "velocity": 84}, {"time": 1450, "pitch": 62, "duration": 2, "velocity": 91}, {"time": 1453, "pitch": 66, "duration": 8, "velocity": 119}, {"time": 1459, "pitch": 57, "duration": 3, "velocity": 81}, {"time": 1462, "pitch": 62, "duration": 7, "velocity": 91}, {"time": 1465, "pitch": 47, "duration": 19, "velocity": 93}, {"time": 1471, "pitch": 54, "duration": 7, "velocity": 80}, {"time": 1474, "pitch": 59, "duration": 9, "velocity": 98}, {"time": 1477, "pitch": 62, "duration": 6, "velocity": 114}, {"time": 1480, "pitch": 54, "duration": 4, "velocity": 109}, {"time": 1483, "pitch": 66, "duration": 3, "velocity": 119}, {"time": 1486, "pitch": 62, "duration": 3, "velocity": 93}, {"time": 1489, "pitch": 43, "duration": 19, "velocity": 110}, {"time": 1495, "pitch": 50, "duration": 17, "velocity": 81}, {"time": 1498, "pitch": 55, "duration": 5, "velocity": 108}, {"time": 1501, "pitch": 59, "duration": 4, "velocity": 114}, {"time": 1504, "pitch": 55, "duration": 6, "velocity": 98}, {"time": 1507, "pitch": 62, "duration": 3, "velocity": 113}, {"time": 1510, "pitch": 59, "duration": 5, "velocity": 96}, {"time": 1513, "pitch": 45, "duration": 19, "velocity": 90}, {"time": 1516, "pitch": 52, "duration": 10, "velocity": 83}, {"time": 1519, "pitch": 57, "duration": 7, "velocity": 87}, {"time": 1522, "pitch": 61, "duration": 3, "velocity": 100}, {"time": 1525, "pitch": 62, "duration": 5, "velocity": 110}, {"time": 1528, "pitch": 52, "duration": 5, "velocity": 89}, {"time": 1531, "pitch": 57, "duration": 4, "velocity": 90}, {"time": 1534, "pitch": 61, "duration": 3, "velocity": 106}, {"time": 1537, "pitch": 50, "duration": 42, "velocity": 98}, {"time": 1543, "pitch": 57, "duration": 7, "velocity": 86}, {"time": 1546, "pitch": 62, "duration": 2, "velocity": 89}, {"time": 1549, "pitch": 66, "duration": 8, "velocity": 119}, {"time": 1555, "pitch": 57, "duration": 15, "velocity": 77}, {"time": 1558, "pitch": 64, "duration": 5, "velocity": 113}, {"time": 1564, "pitch": 62, "duration": 8, "velocity": 88}, {"time": 1570, "pitch": 64, "duration": 4, "velocity": 85}, {"time": 1573, "pitch": 57, "duration": 5, "velocity": 104}, {"time": 1576, "pitch": 62, "duration": 4, "velocity": 96}, {"time": 1579, "pitch": 64, "duration": 2, "velocity": 91}, {"time": 1585, "pitch": 43, "duration": 21, "velocity": 94}, {"time": 1585, "pitch": 59, "duration": 5, "velocity": 93}, {"time": 1585, "pitch": 67, "duration": 8, "velocity": 100}, {"time": 1591, "pitch": 62, "duration": 3, "velocity": 89}, {"time": 1594, "pitch": 55, "duration": 4, "velocity": 98}, {"time": 1597, "pitch": 59, "duration": 8, "velocity": 114}, {"time": 1597, "pitch": 67, "duration": 9, "velocity": 96}, {"time": 1603, "pitch": 55, "duration": 5, "velocity": 86}, {"time": 1606, "pitch": 62, "duration": 2, "velocity": 86}, {"time": 1609, "pitch": 45, "duration": 20, "velocity": 91}, {"time": 1609, "pitch": 57, "duration": 4, "velocity": 91}, {"time": 1609, "pitch": 61, "duration": 6, "velocity": 93}, {"time": 1609, "pitch": 64, "duration": 5, "velocity": 82}, {"time": 1615, "pitch": 52, "duration": 13, "velocity": 81}, {"time": 1618, "pitch": 57, "duration": 4, "velocity": 89}, {"time": 1621, "pitch": 61, "duration": 7, "velocity": 109}, {"time": 1621, "pitch": 69, "duration": 5, "velocity": 91}, {"time": 1627, "pitch": 64, "duration": 4, "velocity": 77}, {"time": 1630, "pitch": 61, "duration": 1, "velocity": 85}, {"time": 1630, "pitch": 69, "duration": 2, "velocity": 77}, {"time": 1633, "pitch": 42, "duration": 20, "velocity": 93}, {"time": 1633, "pitch": 57, "duration": 9, "velocity": 107}, {"time": 1633, "pitch": 66, "duration": 9, "velocity": 97}, {"time": 1639, "pitch": 61, "duration": 4, "velocity": 76}, {"time": 1642, "pitch": 54, "duration": 4, "velocity": 83}, {"time": 1645, "pitch": 57, "duration": 11, "velocity": 96}, {"time": 1645, "pitch": 66, "duration": 13, "velocity": 93}, {"time": 1651, "pitch": 54, "duration": 4, "velocity": 84}, {"time": 1654, "pitch": 61, "duration": 4, "velocity": 87}, {"time": 1657, "pitch": 47, "duration": 19, "velocity": 96}, {"time": 1663, "pitch": 54, "duration": 13, "velocity": 81}, {"time": 1666, "pitch": 59, "duration": 4, "velocity": 100}, {"time": 1669, "pitch": 62, "duration": 4, "velocity": 116}, {"time": 1672, "pitch": 59, "duration": 3, "velocity": 93}, {"time": 1675, "pitch": 62, "duration": 1, "velocity": 76}, {"time": 1675, "pitch": 66, "duration": 4, "velocity": 119}, {"time": 1681, "pitch": 43, "duration": 20, "velocity": 110}, {"time": 1684, "pitch": 50, "duration": 20, "velocity": 81}, {"time": 1687, "pitch": 55, "duration": 7, "velocity": 81}, {"time": 1693, "pitch": 59, "duration": 12, "velocity": 93}, {"time": 1693, "pitch": 67, "duration": 15, "velocity": 96}, {"time": 1699, "pitch": 55, "duration": 5, "velocity": 86}, {"time": 1702, "pitch": 62, "duration": 3, "velocity": 91}, {"time": 1705, "pitch": 45, "duration": 20, "velocity": 89}, {"time": 1708, "pitch": 52, "duration": 10, "velocity": 81}, {"time": 1711, "pitch": 57, "duration": 11, "velocity": 79}, {"time": 1714, "pitch": 64, "duration": 14, "velocity": 89}, {"time": 1720, "pitch": 52, "duration": 5, "velocity": 86}, {"time": 1723, "pitch": 57, "duration": 5, "velocity": 86}, {"time": 1726, "pitch": 61, "duration": 3, "velocity": 86}, {"time": 1729, "pitch": 50, "duration": 40, "velocity": 86}, {"time": 1735, "pitch": 57, "duration": 7, "velocity": 83}, {"time": 1738, "pitch": 62, "duration": 2, "velocity": 84}, {"time": 1741, "pitch": 67, "duration": 8, "velocity": 117}, {"time": 1747, "pitch": 57, "duration": 9, "velocity": 83}, {"time": 1750, "pitch": 62, "duration": 7, "velocity": 91}, {"time": 1750, "pitch": 66, "duration": 10, "velocity": 109}, {"time": 1756, "pitch": 64, "duration": 6, "velocity": 86}, {"time": 1762, "pitch": 57, "duration": 6, "velocity": 87}, {"time": 1765, "pitch": 62, "duration": 5, "velocity": 108}, {"time": 1765, "pitch": 67, "duration": 3, "velocity": 108}, {"time": 1768, "pitch": 64, "duration": 4, "velocity": 84}, {"time": 1771, "pitch": 66, "duration": 1, "velocity": 86}, {"time": 1777, "pitch": 43, "duration": 20, "velocity": 92}, {"time": 1777, "pitch": 59, "duration": 9, "velocity": 89}, {"time": 1777, "pitch": 62, "duration": 9, "velocity": 107}, {"time": 1777, "pitch": 67, "duration": 9, "velocity": 98}, {"time": 1786, "pitch": 55, "duration": 5, "velocity": 73}, {"time": 1789, "pitch": 59, "duration": 6, "velocity": 102}, {"time": 1789, "pitch": 62, "duration": 6, "velocity": 117}, {"time": 1789, "pitch": 67, "duration": 7, "velocity": 110}, {"time": 1795, "pitch": 55, "duration": 4, "velocity": 81}, {"time": 1801, "pitch": 45, "duration": 19, "velocity": 87}, {"time": 1801, "pitch": 57, "duration": 7, "velocity": 94}, {"time": 1801, "pitch": 61, "duration": 8, "velocity": 103}, {"time": 1801, "pitch": 64, "duration": 8, "velocity": 107}, {"time": 1807, "pitch": 52, "duration": 2, "velocity": 78}, {"time": 1810, "pitch": 52, "duration": 4, "velocity": 88}, {"time": 1813, "pitch": 57, "duration": 8, "velocity": 107}, {"time": 1813, "pitch": 61, "duration": 9, "velocity": 116}, {"time": 1813, "pitch": 63, "duration": 1, "velocity": 93}, {"time": 1813, "pitch": 64, "duration": 8, "velocity": 114}, {"time": 1819, "pitch": 52, "duration": 1, "velocity": 87}, {"time": 1825, "pitch": 42, "duration": 18, "velocity": 91}, {"time": 1825, "pitch": 57, "duration": 8, "velocity": 102}, {"time": 1825, "pitch": 61, "duration": 9, "velocity": 109}, {"time": 1825, "pitch": 66, "duration": 8, "velocity": 103}, {"time": 1834, "pitch": 54, "duration": 3, "velocity": 113}, {"time": 1837, "pitch": 57, "duration": 5, "velocity": 107}, {"time": 1837, "pitch": 61, "duration": 6, "velocity": 119}, {"time": 1837, "pitch": 66, "duration": 5, "velocity": 106}, {"time": 1843, "pitch": 54, "duration": 2, "velocity": 85}, {"time": 1843, "pitch": 57, "duration": 1, "velocity": 91}, {"time": 1843, "pitch": 61, "duration": 1, "velocity": 97}, {"time": 1843, "pitch": 66, "duration": 3, "velocity": 103}, {"time": 1849, "pitch": 47, "duration": 18, "velocity": 87}, {"time": 1849, "pitch": 59, "duration": 4, "velocity": 92}, {"time": 1849, "pitch": 62, "duration": 5, "velocity": 114}, {"time": 1849, "pitch": 66, "duration": 5, "velocity": 100}, {"time": 1855, "pitch": 54, "duration": 2, "velocity": 83}, {"time": 1858, "pitch": 54, "duration": 3, "velocity": 103}, {"time": 1861, "pitch": 59, "duration": 4, "velocity": 114}, {"time": 1861, "pitch": 62, "duration": 3, "velocity": 119}, {"time": 1861, "pitch": 66, "duration": 3, "velocity": 116}, {"time": 1864, "pitch": 54, "duration": 3, "velocity": 95}, {"time": 1867, "pitch": 59, "duration": 4, "velocity": 94}, {"time": 1867, "pitch": 62, "duration": 4, "velocity": 113}, {"time": 1867, "pitch": 66, "duration": 4, "velocity": 95}, {"time": 1873, "pitch": 43, "duration": 18, "velocity": 89}, {"time": 1873, "pitch": 59, "duration": 8, "velocity": 104}, {"time": 1873, "pitch": 62, "duration": 9, "velocity": 116}, {"time": 1873, "pitch": 67, "duration": 9, "velocity": 110}, {"time": 1882, "pitch": 55, "duration": 4, "velocity": 102}, {"time": 1885, "pitch": 59, "duration": 7, "velocity": 110}, {"time": 1885, "pitch": 62, "duration": 7, "velocity": 117}, {"time": 1885, "pitch": 67, "duration": 8, "velocity": 108}, {"time": 1891, "pitch": 55, "duration": 4, "velocity": 85}, {"time": 1897, "pitch": 45, "duration": 19, "velocity": 87}, {"time": 1897, "pitch": 57, "duration": 6, "velocity": 91}, {"time": 1897, "pitch": 61, "duration": 9, "velocity": 100}, {"time": 1897, "pitch": 64, "duration": 8, "velocity": 96}, {"time": 1906, "pitch": 52, "duration": 4, "velocity": 91}, {"time": 1909, "pitch": 57, "duration": 7, "velocity": 104}, {"time": 1909, "pitch": 61, "duration": 10, "velocity": 113}, {"time": 1909, "pitch": 64, "duration": 7, "velocity": 110}, {"time": 1915, "pitch": 52, "duration": 3, "velocity": 86}, {"time": 1921, "pitch": 50, "duration": 21, "velocity": 89}, {"time": 1921, "pitch": 62, "duration": 5, "velocity": 100}, {"time": 1921, "pitch": 66, "duration": 1, "velocity": 97}, {"time": 1921, "pitch": 69, "duration": 6, "velocity": 98}, {"time": 1927, "pitch": 57, "duration": 17, "velocity": 81}, {"time": 1930, "pitch": 62, "duration": 4, "velocity": 100}, {"time": 1933, "pitch": 64, "duration": 10, "velocity": 119}, {"time": 1933, "pitch": 66, "duration": 1, "velocity": 109}, {"time": 1939, "pitch": 62, "duration": 2, "velocity": 86}, {"time": 1945, "pitch": 50, "duration": 17, "velocity": 102}, {"time": 1945, "pitch": 62, "duration": 9, "velocity": 108}, {"time": 1945, "pitch": 66, "duration": 9, "velocity": 119}, {"time": 1945, "pitch": 69, "duration": 8, "velocity": 110}, {"time": 1954, "pitch": 57, "duration": 4, "velocity": 102}, {"time": 1957, "pitch": 64, "duration": 3, "velocity": 123}, {"time": 1960, "pitch": 57, "duration": 2, "velocity": 100}, {"time": 1963, "pitch": 66, "duration": 3, "velocity": 119}, {"time": 1966, "pitch": 69, "duration": 2, "velocity": 102}, {"time": 1969, "pitch": 43, "duration": 21, "velocity": 89}, {"time": 1969, "pitch": 59, "duration": 9, "velocity": 92}, {"time": 1969, "pitch": 62, "duration": 9, "velocity": 108}, {"time": 1969, "pitch": 69, "duration": 9, "velocity": 92}, {"time": 1978, "pitch": 55, "duration": 4, "velocity": 92}, {"time": 1981, "pitch": 59, "duration": 9, "velocity": 114}, {"time": 1981, "pitch": 67, "duration": 9, "velocity": 110}, {"time": 1987, "pitch": 55, "duration": 5, "velocity": 81}, {"time": 1990, "pitch": 62, "duration": 2, "velocity": 92}, {"time": 1993, "pitch": 45, "duration": 18, "velocity": 91}, {"time": 1993, "pitch": 57, "duration": 6, "velocity": 100}, {"time": 1993, "pitch": 61, "duration": 9, "velocity": 106}, {"time": 1993, "pitch": 64, "duration": 8, "velocity": 104}, {"time": 2002, "pitch": 52, "duration": 3, "velocity": 89}, {"time": 2005, "pitch": 57, "duration": 4, "velocity": 107}, {"time": 2005, "pitch": 64, "duration": 4, "velocity": 108}, {"time": 2008, "pitch": 52, "duration": 3, "velocity": 91}, {"time": 2011, "pitch": 61, "duration": 4, "velocity": 123}, {"time": 2011, "pitch": 64, "duration": 4, "velocity": 98}, {"time": 2017, "pitch": 42, "duration": 17, "velocity": 90}, {"time": 2017, "pitch": 57, "duration": 7, "velocity": 98}, {"time": 2017, "pitch": 61, "duration": 9, "velocity": 106}, {"time": 2017, "pitch": 66, "duration": 8, "velocity": 109}, {"time": 2026, "pitch": 54, "duration": 3, "velocity": 106}, {"time": 2029, "pitch": 57, "duration": 4, "velocity": 108}, {"time": 2029, "pitch": 66, "duration": 4, "velocity": 113}, {"time": 2032, "pitch": 54, "duration": 4, "velocity": 103}, {"time": 2035, "pitch": 57, "duration": 2, "velocity": 85}, {"time": 2035, "pitch": 61, "duration": 5, "velocity": 113}, {"time": 2038, "pitch": 66, "duration": 2, "velocity": 86}, {"time": 2041, "pitch": 47, "duration": 19, "velocity": 91}, {"time": 2041, "pitch": 59, "duration": 4, "velocity": 96}, {"time": 2041, "pitch": 62, "duration": 5, "velocity": 108}, {"time": 2041, "pitch": 66, "duration": 6, "velocity": 100}, {"time": 2047, "pitch": 54, "duration": 12, "velocity": 82}, {"time": 2050, "pitch": 59, "duration": 4, "velocity": 98}, {"time": 2053, "pitch": 62, "duration": 4, "velocity": 114}, {"time": 2053, "pitch": 69, "duration": 5, "velocity": 108}, {"time": 2056, "pitch": 59, "duration": 3, "velocity": 104}, {"time": 2059, "pitch": 62, "duration": 2, "velocity": 84}, {"time": 2059, "pitch": 66, "duration": 5, "velocity": 119}, {"time": 2065, "pitch": 43, "duration": 23, "velocity": 87}, {"time": 2065, "pitch": 59, "duration": 1, "velocity": 98}, {"time": 2065, "pitch": 62, "duration": 9, "velocity": 100}, {"time": 2065, "pitch": 67, "duration": 9, "velocity": 88}, {"time": 2074, "pitch": 55, "duration": 4, "velocity": 89}, {"time": 2077, "pitch": 59, "duration": 10, "velocity": 113}, {"time": 2077, "pitch": 67, "duration": 9, "velocity": 107}, {"time": 2083, "pitch": 55, "duration": 6, "velocity": 83}, {"time": 2089, "pitch": 45, "duration": 18, "velocity": 89}, {"time": 2095, "pitch": 52, "duration": 15, "velocity": 87}, {"time": 2098, "pitch": 57, "duration": 4, "velocity": 91}, {"time": 2101, "pitch": 61, "duration": 7, "velocity": 109}, {"time": 2101, "pitch": 64, "duration": 9, "velocity": 113}, {"time": 2101, "pitch": 69, "duration": 8, "velocity": 107}, {"time": 2107, "pitch": 57, "duration": 4, "velocity": 87}, {"time": 2113, "pitch": 47, "duration": 22, "velocity": 94}, {"time": 2113, "pitch": 63, "duration": 4, "velocity": 95}, {"time": 2113, "pitch": 66, "duration": 4, "velocity": 104}, {"time": 2113, "pitch": 71, "duration": 4, "velocity": 102}, {"time": 2119, "pitch": 63, "duration": 3, "velocity": 91}, {"time": 2119, "pitch": 66, "duration": 3, "velocity": 102}, {"time": 2119, "pitch": 71, "duration": 3, "velocity": 107}, {"time": 2125, "pitch": 63, "duration": 3, "velocity": 95}, {"time": 2125, "pitch": 66, "duration": 4, "velocity": 100}, {"time": 2125, "pitch": 71, "duration": 3, "velocity": 107}, {"time": 2131, "pitch": 63, "duration": 4, "velocity": 89}, {"time": 2131, "pitch": 66, "duration": 4, "velocity": 94}, {"time": 2131, "pitch": 71, "duration": 3, "velocity": 93}, {"time": 2137, "pitch": 47, "duration": 19, "velocity": 92}, {"time": 2137, "pitch": 63, "duration": 5, "velocity": 97}, {"time": 2137, "pitch": 66, "duration": 6, "velocity": 108}, {"time": 2137, "pitch": 71, "duration": 6, "velocity": 113}, {"time": 2140, "pitch": 54, "duration": 16, "velocity": 87}, {"time": 2143, "pitch": 59, "duration": 6, "velocity": 110}, {"time": 2146, "pitch": 63, "duration": 6, "velocity": 97}, {"time": 2149, "pitch": 66, "duration": 5, "velocity": 113}, {"time": 2152, "pitch": 59, "duration": 3, "velocity": 113}, {"time": 2155, "pitch": 63, "duration": 1, "velocity": 85}, {"time": 2155, "pitch": 66, "duration": 2, "velocity": 88}, {"time": 2155, "pitch": 71, "duration": 2, "velocity": 104}, {"time": 2161, "pitch": 45, "duration": 21, "velocity": 108}, {"time": 2161, "pitch": 61, "duration": 7, "velocity": 108}, {"time": 2161, "pitch": 64, "duration": 9, "velocity": 117}, {"time": 2161, "pitch": 69, "duration": 9, "velocity": 110}, {"time": 2170, "pitch": 57, "duration": 4, "velocity": 113}, {"time": 2173, "pitch": 61, "duration": 7, "velocity": 113}, {"time": 2173, "pitch": 64, "duration": 8, "velocity": 119}, {"time": 2173, "pitch": 69, "duration": 7, "velocity": 110}, {"time": 2179, "pitch": 57, "duration": 4, "velocity": 93}, {"time": 2185, "pitch": 47, "duration": 18, "velocity": 91}, {"time": 2185, "pitch": 59, "duration": 3, "velocity": 107}, {"time": 2185, "pitch": 63, "duration": 4, "velocity": 106}, {"time": 2185, "pitch": 66, "duration": 4, "velocity": 110}, {"time": 2188, "pitch": 54, "duration": 13, "velocity": 83}, {"time": 2191, "pitch": 59, "duration": 4, "velocity": 104}, {"time": 2197, "pitch": 63, "duration": 5, "velocity": 109}, {"time": 2197, "pitch": 71, "duration": 4, "velocity": 108}, {"time": 2200, "pitch": 59, "duration": 3, "velocity": 102}, {"time": 2203, "pitch": 66, "duration": 3, "velocity": 110}, {"time": 2209, "pitch": 44, "duration": 17, "velocity": 95}, {"time": 2209, "pitch": 59, "duration": 4, "velocity": 104}, {"time": 2209, "pitch": 61, "duration": 1, "velocity": 100}, {"time": 2209, "pitch": 63, "duration": 5, "velocity": 109}, {"time": 2209, "pitch": 68, "duration": 5, "velocity": 113}, {"time": 2215, "pitch": 63, "duration": 3, "velocity": 85}, {"time": 2215, "pitch": 68, "duration": 3, "velocity": 84}, {"time": 2218, "pitch": 56, "duration": 3, "velocity": 116}, {"time": 2221, "pitch": 59, "duration": 3, "velocity": 107}, {"time": 2221, "pitch": 63, "duration": 4, "velocity": 119}, {"time": 2221, "pitch": 68, "duration": 3, "velocity": 119}, {"time": 2224, "pitch": 56, "duration": 3, "velocity": 113}, {"time": 2227, "pitch": 63, "duration": 3, "velocity": 109}, {"time": 2227, "pitch": 68, "duration": 4, "velocity": 109}, {"time": 2233, "pitch": 49, "duration": 18, "velocity": 100}, {"time": 2233, "pitch": 64, "duration": 5, "velocity": 117}, {"time": 2233, "pitch": 68, "duration": 5, "velocity": 119}, {"time": 2239, "pitch": 56, "duration": 3, "velocity": 84}, {"time": 2242, "pitch": 61, "duration": 5, "velocity": 114}, {"time": 2242, "pitch": 64, "duration": 6, "velocity": 119}, {"time": 2242, "pitch": 68, "duration": 7, "velocity": 116}, {"time": 2248, "pitch": 56, "duration": 4, "velocity": 86}, {"time": 2251, "pitch": 61, "duration": 4, "velocity": 110}, {"time": 2251, "pitch": 64, "duration": 4, "velocity": 116}, {"time": 2251, "pitch": 68, "duration": 4, "velocity": 116}, {"time": 2257, "pitch": 45, "duration": 22, "velocity": 93}, {"time": 2257, "pitch": 61, "duration": 6, "velocity": 108}, {"time": 2257, "pitch": 64, "duration": 7, "velocity": 116}, {"time": 2257, "pitch": 69, "duration": 7, "velocity": 110}, {"time": 2263, "pitch": 57, "duration": 5, "velocity": 89}, {"time": 2266, "pitch": 61, "duration": 6, "velocity": 113}, {"time": 2266, "pitch": 64, "duration": 6, "velocity": 120}, {"time": 2266, "pitch": 69, "duration": 6, "velocity": 113}, {"time": 2272, "pitch": 57, "duration": 1, "velocity": 102}, {"time": 2275, "pitch": 61, "duration": 3, "velocity": 108}, {"time": 2275, "pitch": 64, "duration": 4, "velocity": 119}, {"time": 2275, "pitch": 69, "duration": 3, "velocity": 113}, {"time": 2281, "pitch": 47, "duration": 18, "velocity": 89}, {"time": 2281, "pitch": 59, "duration": 3, "velocity": 110}, {"time": 2281, "pitch": 63, "duration": 4, "velocity": 113}, {"time": 2281, "pitch": 66, "duration": 4, "velocity": 102}, {"time": 2287, "pitch": 54, "duration": 12, "velocity": 80}, {"time": 2290, "pitch": 63, "duration": 5, "velocity": 109}, {"time": 2290, "pitch": 66, "duration": 6, "velocity": 110}, {"time": 2290, "pitch": 71, "duration": 5, "velocity": 114}, {"time": 2296, "pitch": 59, "duration": 3, "velocity": 98}, {"time": 2299, "pitch": 63, "duration": 2, "velocity": 109}, {"time": 2299, "pitch": 66, "duration": 2, "velocity": 110}, {"time": 2299, "pitch": 71, "duration": 3, "velocity": 110}, {"time": 2305, "pitch": 52, "duration": 22, "velocity": 102}, {"time": 2305, "pitch": 64, "duration": 7, "velocity": 108}, {"time": 2305, "pitch": 68, "duration": 7, "velocity": 113}, {"time": 2305, "pitch": 71, "duration": 7, "velocity": 108}, {"time": 2311, "pitch": 59, "duration": 4, "velocity": 86}, {"time": 2314, "pitch": 64, "duration": 7, "velocity": 104}, {"time": 2314, "pitch": 68, "duration": 7, "velocity": 116}, {"time": 2314, "pitch": 71, "duration": 7, "velocity": 108}, {"time": 2320, "pitch": 59, "duration": 3, "velocity": 86}, {"time": 2323, "pitch": 64, "duration": 10, "velocity": 98}, {"time": 2323, "pitch": 68, "duration": 10, "velocity": 106}, {"time": 2323, "pitch": 71, "duration": 9, "velocity": 107}, {"time": 2326, "pitch": 59, "duration": 3, "velocity": 87}, {"time": 2329, "pitch": 52, "duration": 18, "velocity": 102}, {"time": 2332, "pitch": 59, "duration": 6, "velocity": 94}, {"time": 2335, "pitch": 64, "duration": 1, "velocity": 100}, {"time": 2338, "pitch": 64, "duration": 4, "velocity": 113}, {"time": 2338, "pitch": 68, "duration": 4, "velocity": 123}, {"time": 2338, "pitch": 71, "duration": 4, "velocity": 114}, {"time": 2341, "pitch": 59, "duration": 4, "velocity": 114}, {"time": 2344, "pitch": 64, "duration": 4, "velocity": 114}, {"time": 2344, "pitch": 71, "duration": 1, "velocity": 87}, {"time": 2347, "pitch": 68, "duration": 2, "velocity": 119}, {"time": 2350, "pitch": 71, "duration": 1, "velocity": 110}, {"time": 2353, "pitch": 45, "duration": 19, "velocity": 102}, {"time": 2353, "pitch": 61, "duration": 6, "velocity": 110}, {"time": 2353, "pitch": 64, "duration": 8, "velocity": 117}, {"time": 2353, "pitch": 69, "duration": 9, "velocity": 108}, {"time": 2362, "pitch": 57, "duration": 3, "velocity": 116}, {"time": 2365, "pitch": 61, "duration": 7, "velocity": 114}, {"time": 2365, "pitch": 64, "duration": 7, "velocity": 119}, {"time": 2365, "pitch": 69, "duration": 7, "velocity": 113}, {"time": 2371, "pitch": 57, "duration": 4, "velocity": 94}, {"time": 2377, "pitch": 47, "duration": 18, "velocity": 94}, {"time": 2377, "pitch": 59, "duration": 7, "velocity": 113}, {"time": 2377, "pitch": 63, "duration": 7, "velocity": 116}, {"time": 2377, "pitch": 66, "duration": 7, "velocity": 113}, {"time": 2383, "pitch": 54, "duration": 4, "velocity": 85}, {"time": 2386, "pitch": 59, "duration": 7, "velocity": 110}, {"time": 2386, "pitch": 63, "duration": 6, "velocity": 116}, {"time": 2386, "pitch": 66, "duration": 6, "velocity": 116}, {"time": 2392, "pitch": 54, "duration": 3, "velocity": 96}, {"time": 2395, "pitch": 59, "duration": 3, "velocity": 100}, {"time": 2395, "pitch": 63, "duration": 3, "velocity": 106}, {"time": 2395, "pitch": 66, "duration": 3, "velocity": 110}, {"time": 2401, "pitch": 44, "duration": 17, "velocity": 97}, {"time": 2401, "pitch": 59, "duration": 7, "velocity": 108}, {"time": 2401, "pitch": 63, "duration": 7, "velocity": 119}, {"time": 2401, "pitch": 68, "duration": 7, "velocity": 109}, {"time": 2407, "pitch": 56, "duration": 4, "velocity": 93}, {"time": 2410, "pitch": 59, "duration": 5, "velocity": 108}, {"time": 2410, "pitch": 63, "duration": 4, "velocity": 44}, {"time": 2410, "pitch": 68, "duration": 6, "velocity": 106}, {"time": 2413, "pitch": 56, "duration": 6, "velocity": 109}, {"time": 2416, "pitch": 59, "duration": 4, "velocity": 108}, {"time": 2416, "pitch": 68, "duration": 5, "velocity": 106}, {"time": 2419, "pitch": 63, "duration": 3, "velocity": 86}, {"time": 2425, "pitch": 49, "duration": 18, "velocity": 92}, {"time": 2425, "pitch": 61, "duration": 3, "velocity": 96}, {"time": 2425, "pitch": 64, "duration": 5, "velocity": 114}, {"time": 2425, "pitch": 68, "duration": 5, "velocity": 103}, {"time": 2431, "pitch": 56, "duration": 12, "velocity": 82}, {"time": 2434, "pitch": 61, "duration": 3, "velocity": 100}, {"time": 2437, "pitch": 64, "duration": 7, "velocity": 113}, {"time": 2437, "pitch": 71, "duration": 5, "velocity": 110}, {"time": 2440, "pitch": 61, "duration": 2, "velocity": 110}, {"time": 2443, "pitch": 68, "duration": 5, "velocity": 119}, {"time": 2449, "pitch": 45, "duration": 19, "velocity": 100}, {"time": 2449, "pitch": 61, "duration": 9, "velocity": 100}, {"time": 2449, "pitch": 64, "duration": 9, "velocity": 114}, {"time": 2449, "pitch": 69, "duration": 9, "velocity": 98}, {"time": 2458, "pitch": 57, "duration": 3, "velocity": 113}, {"time": 2461, "pitch": 61, "duration": 7, "velocity": 113}, {"time": 2461, "pitch": 64, "duration": 6, "velocity": 117}, {"time": 2461, "pitch": 69, "duration": 8, "velocity": 102}, {"time": 2467, "pitch": 57, "duration": 4, "velocity": 88}, {"time": 2473, "pitch": 47, "duration": 18, "velocity": 88}, {"time": 2473, "pitch": 59, "duration": 9, "velocity": 104}, {"time": 2473, "pitch": 63, "duration": 9, "velocity": 113}, {"time": 2473, "pitch": 66, "duration": 9, "velocity": 110}, {"time": 2482, "pitch": 54, "duration": 3, "velocity": 86}, {"time": 2485, "pitch": 59, "duration": 4, "velocity": 104}, {"time": 2485, "pitch": 63, "duration": 4, "velocity": 116}, {"time": 2485, "pitch": 66, "duration": 4, "velocity": 108}, {"time": 2488, "pitch": 54, "duration": 4, "velocity": 90}, {"time": 2491, "pitch": 59, "duration": 4, "velocity": 93}, {"time": 2491, "pitch": 63, "duration": 3, "velocity": 100}, {"time": 2491, "pitch": 66, "duration": 2, "velocity": 93}, {"time": 2497, "pitch": 52, "duration": 40, "velocity": 98}, {"time": 2497, "pitch": 64, "duration": 4, "velocity": 110}, {"time": 2497, "pitch": 68, "duration": 5, "velocity": 103}, {"time": 2503, "pitch": 59, "duration": 32, "velocity": 77}, {"time": 2506, "pitch": 64, "duration": 19, "velocity": 107}, {"time": 2509, "pitch": 66, "duration": 3, "velocity": 102}, {"time": 2512, "pitch": 68, "duration": 1, "velocity": 90}, {"time": 2515, "pitch": 71, "duration": 2, "velocity": 87}, {"time": 2518, "pitch": 71, "duration": 7, "velocity": 96}, {"time": 2518, "pitch": 80, "duration": 6, "velocity": 109}, {"time": 2524, "pitch": 76, "duration": 1, "velocity": 93}, {"time": 2530, "pitch": 64, "duration": 5, "velocity": 89}, {"time": 2533, "pitch": 68, "duration": 7, "velocity": 103}, {"time": 2533, "pitch": 76, "duration": 6, "velocity": 87}, {"time": 2539, "pitch": 71, "duration": 1, "velocity": 88}, {"time": 2542, "pitch": 64, "duration": 17, "velocity": 72}, {"time": 2545, "pitch": 45, "duration": 18, "velocity": 87}, {"time": 2545, "pitch": 69, "duration": 1, "velocity": 85}, {"time": 2545, "pitch": 73, "duration": 15, "velocity": 92}, {"time": 2569, "pitch": 47, "duration": 18, "velocity": 74}, {"time": 2569, "pitch": 59, "duration": 17, "velocity": 71}, {"time": 2569, "pitch": 63, "duration": 15, "velocity": 65}, {"time": 2569, "pitch": 66, "duration": 15, "velocity": 74}, {"time": 2569, "pitch": 71, "duration": 16, "velocity": 88}, {"time": 2593, "pitch": 52, "duration": 16, "velocity": 67}, {"time": 2593, "pitch": 64, "duration": 15, "velocity": 75}, {"time": 2593, "pitch": 68, "duration": 15, "velocity": 79}, {"time": 2593, "pitch": 71, "duration": 15, "velocity": 78}]}]}