{"metadata": {"schema_version": "0.2", "title": "None", "source_filename": "350.mid", "source_format": "midi"}, "resolution": 12, "tempos": [{"time": 0, "qpm": 62.99999685000016}], "time_signatures": [{"time": 0, "numerator": 6, "denominator": 8}], "tracks": [{"program": 0, "is_drum": false, "name": "MELODY", "notes": [{"time": 257, "pitch": 64, "duration": 2, "velocity": 113}, {"time": 261, "pitch": 64, "duration": 3, "velocity": 113}, {"time": 265, "pitch": 67, "duration": 2, "velocity": 110}, {"time": 269, "pitch": 69, "duration": 4, "velocity": 116}, {"time": 273, "pitch": 67, "duration": 3, "velocity": 110}, {"time": 277, "pitch": 67, "duration": 3, "velocity": 108}, {"time": 281, "pitch": 67, "duration": 3, "velocity": 116}, {"time": 285, "pitch": 67, "duration": 3, "velocity": 113}, {"time": 289, "pitch": 64, "duration": 3, "velocity": 110}, {"time": 293, "pitch": 67, "duration": 3, "velocity": 114}, {"time": 305, "pitch": 64, "duration": 2, "velocity": 113}, {"time": 309, "pitch": 64, "duration": 3, "velocity": 102}, {"time": 313, "pitch": 67, "duration": 2, "velocity": 108}, {"time": 317, "pitch": 71, "duration": 4, "velocity": 119}, {"time": 325, "pitch": 69, "duration": 5, "velocity": 116}, {"time": 329, "pitch": 67, "duration": 4, "velocity": 114}, {"time": 333, "pitch": 64, "duration": 3, "velocity": 110}, {"time": 337, "pitch": 62, "duration": 3, "velocity": 108}, {"time": 341, "pitch": 64, "duration": 4, "velocity": 116}, {"time": 353, "pitch": 64, "duration": 6, "velocity": 116}, {"time": 361, "pitch": 62, "duration": 4, "velocity": 110}, {"time": 365, "pitch": 60, "duration": 4, "velocity": 116}, {"time": 373, "pitch": 57, "duration": 2, "velocity": 104}, {"time": 377, "pitch": 72, "duration": 4, "velocity": 117}, {"time": 383, "pitch": 69, "duration": 4, "velocity": 117}, {"time": 389, "pitch": 67, "duration": 3, "velocity": 114}, {"time": 393, "pitch": 69, "duration": 3, "velocity": 110}, {"time": 397, "pitch": 67, "duration": 4, "velocity": 113}, {"time": 401, "pitch": 64, "duration": 3, "velocity": 117}, {"time": 409, "pitch": 64, "duration": 4, "velocity": 110}, {"time": 413, "pitch": 62, "duration": 3, "velocity": 100}, {"time": 417, "pitch": 60, "duration": 4, "velocity": 102}, {"time": 421, "pitch": 57, "duration": 3, "velocity": 104}, {"time": 425, "pitch": 60, "duration": 3, "velocity": 113}, {"time": 429, "pitch": 62, "duration": 3, "velocity": 113}, {"time": 433, "pitch": 64, "duration": 2, "velocity": 116}, {"time": 437, "pitch": 64, "duration": 4, "velocity": 117}, {"time": 443, "pitch": 62, "duration": 3, "velocity": 114}, {"time": 449, "pitch": 64, "duration": 2, "velocity": 114}, {"time": 453, "pitch": 64, "duration": 3, "velocity": 114}, {"time": 457, "pitch": 67, "duration": 3, "velocity": 113}, {"time": 461, "pitch": 69, "duration": 3, "velocity": 116}, {"time": 465, "pitch": 67, "duration": 2, "velocity": 114}, {"time": 469, "pitch": 67, "duration": 2, "velocity": 110}, {"time": 473, "pitch": 67, "duration": 3, "velocity": 113}, {"time": 477, "pitch": 67, "duration": 3, "velocity": 116}, {"time": 481, "pitch": 64, "duration": 3, "velocity": 110}, {"time": 485, "pitch": 67, "duration": 3, "velocity": 117}, {"time": 497, "pitch": 64, "duration": 2, "velocity": 116}, {"time": 501, "pitch": 64, "duration": 2, "velocity": 114}, {"time": 505, "pitch": 67, "duration": 2, "velocity": 116}, {"time": 509, "pitch": 71, "duration": 2, "velocity": 119}, {"time": 517, "pitch": 69, "duration": 2, "velocity": 117}, {"time": 521, "pitch": 67, "duration": 2, "velocity": 114}, {"time": 525, "pitch": 64, "duration": 3, "velocity": 116}, {"time": 529, "pitch": 62, "duration": 3, "velocity": 114}, {"time": 533, "pitch": 64, "duration": 3, "velocity": 116}, {"time": 545, "pitch": 64, "duration": 2, "velocity": 117}, {"time": 549, "pitch": 64, "duration": 3, "velocity": 116}, {"time": 553, "pitch": 62, "duration": 3, "velocity": 110}, {"time": 557, "pitch": 60, "duration": 3, "velocity": 116}, {"time": 561, "pitch": 60, "duration": 4, "velocity": 114}, {"time": 565, "pitch": 57, "duration": 2, "velocity": 110}, {"time": 569, "pitch": 72, "duration": 7, "velocity": 110}, {"time": 577, "pitch": 69, "duration": 3, "velocity": 114}, {"time": 581, "pitch": 67, "duration": 5, "velocity": 116}, {"time": 585, "pitch": 69, "duration": 3, "velocity": 108}, {"time": 589, "pitch": 67, "duration": 4, "velocity": 107}, {"time": 593, "pitch": 64, "duration": 3, "velocity": 116}, {"time": 601, "pitch": 64, "duration": 4, "velocity": 117}, {"time": 605, "pitch": 62, "duration": 4, "velocity": 107}, {"time": 609, "pitch": 60, "duration": 4, "velocity": 116}, {"time": 613, "pitch": 57, "duration": 3, "velocity": 110}, {"time": 617, "pitch": 60, "duration": 3, "velocity": 116}, {"time": 621, "pitch": 62, "duration": 3, "velocity": 114}, {"time": 625, "pitch": 64, "duration": 3, "velocity": 119}, {"time": 629, "pitch": 62, "duration": 5, "velocity": 117}, {"time": 633, "pitch": 60, "duration": 3, "velocity": 116}, {"time": 645, "pitch": 64, "duration": 3, "velocity": 116}, {"time": 649, "pitch": 67, "duration": 3, "velocity": 114}, {"time": 653, "pitch": 69, "duration": 2, "velocity": 117}, {"time": 657, "pitch": 69, "duration": 2, "velocity": 110}, {"time": 661, "pitch": 69, "duration": 2, "velocity": 114}, {"time": 665, "pitch": 69, "duration": 3, "velocity": 116}, {"time": 669, "pitch": 71, "duration": 3, "velocity": 113}, {"time": 673, "pitch": 69, "duration": 3, "velocity": 116}, {"time": 677, "pitch": 67, "duration": 4, "velocity": 119}, {"time": 693, "pitch": 67, "duration": 3, "velocity": 119}, {"time": 697, "pitch": 69, "duration": 3, "velocity": 116}, {"time": 701, "pitch": 72, "duration": 2, "velocity": 117}, {"time": 705, "pitch": 72, "duration": 2, "velocity": 116}, {"time": 709, "pitch": 72, "duration": 2, "velocity": 114}, {"time": 713, "pitch": 72, "duration": 4, "velocity": 117}, {"time": 717, "pitch": 69, "duration": 2, "velocity": 117}, {"time": 721, "pitch": 79, "duration": 3, "velocity": 114}, {"time": 725, "pitch": 76, "duration": 3, "velocity": 119}, {"time": 737, "pitch": 76, "duration": 4, "velocity": 117}, {"time": 741, "pitch": 74, "duration": 4, "velocity": 113}, {"time": 745, "pitch": 72, "duration": 3, "velocity": 116}, {"time": 749, "pitch": 74, "duration": 4, "velocity": 114}, {"time": 761, "pitch": 76, "duration": 3, "velocity": 119}, {"time": 765, "pitch": 74, "duration": 3, "velocity": 116}, {"time": 769, "pitch": 72, "duration": 3, "velocity": 113}, {"time": 773, "pitch": 74, "duration": 4, "velocity": 117}, {"time": 785, "pitch": 76, "duration": 3, "velocity": 116}, {"time": 789, "pitch": 74, "duration": 4, "velocity": 113}, {"time": 793, "pitch": 72, "duration": 3, "velocity": 116}, {"time": 797, "pitch": 74, "duration": 2, "velocity": 116}, {"time": 801, "pitch": 74, "duration": 2, "velocity": 117}, {"time": 805, "pitch": 74, "duration": 2, "velocity": 117}, {"time": 809, "pitch": 74, "duration": 3, "velocity": 119}, {"time": 813, "pitch": 72, "duration": 3, "velocity": 116}, {"time": 817, "pitch": 81, "duration": 3, "velocity": 113}, {"time": 821, "pitch": 79, "duration": 3, "velocity": 117}, {"time": 857, "pitch": 74, "duration": 3, "velocity": 120}, {"time": 861, "pitch": 72, "duration": 3, "velocity": 114}, {"time": 865, "pitch": 74, "duration": 3, "velocity": 117}, {"time": 869, "pitch": 79, "duration": 4, "velocity": 117}, {"time": 881, "pitch": 74, "duration": 4, "velocity": 120}, {"time": 885, "pitch": 72, "duration": 3, "velocity": 114}, {"time": 889, "pitch": 74, "duration": 3, "velocity": 107}, {"time": 893, "pitch": 79, "duration": 4, "velocity": 114}, {"time": 905, "pitch": 74, "duration": 4, "velocity": 116}, {"time": 909, "pitch": 72, "duration": 3, "velocity": 114}, {"time": 913, "pitch": 74, "duration": 3, "velocity": 113}, {"time": 917, "pitch": 79, "duration": 4, "velocity": 116}, {"time": 921, "pitch": 79, "duration": 2, "velocity": 110}, {"time": 925, "pitch": 79, "duration": 2, "velocity": 114}, {"time": 929, "pitch": 79, "duration": 3, "velocity": 117}, {"time": 933, "pitch": 76, "duration": 3, "velocity": 114}, {"time": 937, "pitch": 74, "duration": 3, "velocity": 116}, {"time": 941, "pitch": 76, "duration": 3, "velocity": 117}, {"time": 953, "pitch": 76, "duration": 3, "velocity": 119}, {"time": 957, "pitch": 74, "duration": 3, "velocity": 113}, {"time": 961, "pitch": 72, "duration": 4, "velocity": 116}, {"time": 965, "pitch": 69, "duration": 6, "velocity": 119}, {"time": 977, "pitch": 76, "duration": 4, "velocity": 119}, {"time": 981, "pitch": 74, "duration": 3, "velocity": 116}, {"time": 985, "pitch": 72, "duration": 4, "velocity": 114}, {"time": 989, "pitch": 67, "duration": 3, "velocity": 117}, {"time": 1001, "pitch": 67, "duration": 3, "velocity": 117}, {"time": 1005, "pitch": 69, "duration": 2, "velocity": 116}, {"time": 1009, "pitch": 72, "duration": 3, "velocity": 116}, {"time": 1013, "pitch": 69, "duration": 3, "velocity": 120}, {"time": 1017, "pitch": 69, "duration": 2, "velocity": 117}, {"time": 1021, "pitch": 69, "duration": 2, "velocity": 117}, {"time": 1025, "pitch": 79, "duration": 1, "velocity": 119}, {"time": 1029, "pitch": 79, "duration": 3, "velocity": 110}, {"time": 1033, "pitch": 74, "duration": 2, "velocity": 114}, {"time": 1035, "pitch": 72, "duration": 1, "velocity": 104}, {"time": 1037, "pitch": 74, "duration": 3, "velocity": 117}, {"time": 1049, "pitch": 74, "duration": 3, "velocity": 120}, {"time": 1053, "pitch": 72, "duration": 3, "velocity": 114}, {"time": 1057, "pitch": 74, "duration": 3, "velocity": 117}, {"time": 1061, "pitch": 79, "duration": 4, "velocity": 117}, {"time": 1073, "pitch": 74, "duration": 4, "velocity": 120}, {"time": 1077, "pitch": 72, "duration": 3, "velocity": 114}, {"time": 1081, "pitch": 74, "duration": 3, "velocity": 107}, {"time": 1085, "pitch": 79, "duration": 4, "velocity": 114}, {"time": 1097, "pitch": 74, "duration": 4, "velocity": 116}, {"time": 1101, "pitch": 72, "duration": 3, "velocity": 114}, {"time": 1105, "pitch": 74, "duration": 3, "velocity": 113}, {"time": 1109, "pitch": 79, "duration": 4, "velocity": 116}, {"time": 1113, "pitch": 79, "duration": 2, "velocity": 110}, {"time": 1117, "pitch": 79, "duration": 2, "velocity": 114}, {"time": 1121, "pitch": 79, "duration": 3, "velocity": 117}, {"time": 1125, "pitch": 76, "duration": 3, "velocity": 114}, {"time": 1129, "pitch": 74, "duration": 3, "velocity": 116}, {"time": 1133, "pitch": 76, "duration": 3, "velocity": 117}, {"time": 1145, "pitch": 76, "duration": 3, "velocity": 119}, {"time": 1149, "pitch": 74, "duration": 3, "velocity": 113}, {"time": 1153, "pitch": 72, "duration": 4, "velocity": 116}, {"time": 1157, "pitch": 69, "duration": 6, "velocity": 119}, {"time": 1169, "pitch": 76, "duration": 4, "velocity": 119}, {"time": 1173, "pitch": 74, "duration": 3, "velocity": 116}, {"time": 1177, "pitch": 72, "duration": 4, "velocity": 114}, {"time": 1181, "pitch": 67, "duration": 3, "velocity": 117}, {"time": 1185, "pitch": 67, "duration": 3, "velocity": 119}, {"time": 1189, "pitch": 76, "duration": 2, "velocity": 114}, {"time": 1193, "pitch": 76, "duration": 3, "velocity": 116}, {"time": 1201, "pitch": 76, "duration": 4, "velocity": 117}, {"time": 1205, "pitch": 74, "duration": 4, "velocity": 116}, {"time": 1209, "pitch": 72, "duration": 4, "velocity": 114}, {"time": 1213, "pitch": 69, "duration": 3, "velocity": 113}, {"time": 1217, "pitch": 72, "duration": 3, "velocity": 119}, {"time": 1221, "pitch": 74, "duration": 3, "velocity": 114}, {"time": 1225, "pitch": 69, "duration": 5, "velocity": 113}, {"time": 1233, "pitch": 72, "duration": 4, "velocity": 116}, {"time": 1457, "pitch": 64, "duration": 2, "velocity": 114}, {"time": 1461, "pitch": 64, "duration": 3, "velocity": 114}, {"time": 1465, "pitch": 67, "duration": 3, "velocity": 113}, {"time": 1469, "pitch": 69, "duration": 3, "velocity": 116}, {"time": 1473, "pitch": 67, "duration": 2, "velocity": 114}, {"time": 1477, "pitch": 67, "duration": 2, "velocity": 110}, {"time": 1481, "pitch": 67, "duration": 3, "velocity": 113}, {"time": 1485, "pitch": 67, "duration": 3, "velocity": 116}, {"time": 1489, "pitch": 64, "duration": 3, "velocity": 110}, {"time": 1493, "pitch": 67, "duration": 3, "velocity": 117}, {"time": 1505, "pitch": 64, "duration": 2, "velocity": 116}, {"time": 1509, "pitch": 64, "duration": 2, "velocity": 114}, {"time": 1513, "pitch": 67, "duration": 2, "velocity": 116}, {"time": 1517, "pitch": 71, "duration": 2, "velocity": 119}, {"time": 1525, "pitch": 69, "duration": 2, "velocity": 117}, {"time": 1529, "pitch": 67, "duration": 2, "velocity": 114}, {"time": 1533, "pitch": 64, "duration": 3, "velocity": 116}, {"time": 1537, "pitch": 62, "duration": 3, "velocity": 114}, {"time": 1541, "pitch": 64, "duration": 3, "velocity": 116}, {"time": 1553, "pitch": 64, "duration": 2, "velocity": 117}, {"time": 1557, "pitch": 64, "duration": 3, "velocity": 116}, {"time": 1561, "pitch": 62, "duration": 3, "velocity": 110}, {"time": 1565, "pitch": 60, "duration": 3, "velocity": 116}, {"time": 1569, "pitch": 60, "duration": 4, "velocity": 114}, {"time": 1573, "pitch": 57, "duration": 2, "velocity": 110}, {"time": 1577, "pitch": 72, "duration": 7, "velocity": 110}, {"time": 1585, "pitch": 69, "duration": 3, "velocity": 114}, {"time": 1589, "pitch": 67, "duration": 5, "velocity": 116}, {"time": 1593, "pitch": 69, "duration": 3, "velocity": 108}, {"time": 1597, "pitch": 67, "duration": 4, "velocity": 107}, {"time": 1601, "pitch": 64, "duration": 3, "velocity": 116}, {"time": 1609, "pitch": 64, "duration": 4, "velocity": 117}, {"time": 1613, "pitch": 62, "duration": 4, "velocity": 107}, {"time": 1617, "pitch": 60, "duration": 4, "velocity": 116}, {"time": 1621, "pitch": 57, "duration": 3, "velocity": 110}, {"time": 1625, "pitch": 60, "duration": 3, "velocity": 116}, {"time": 1629, "pitch": 62, "duration": 3, "velocity": 114}, {"time": 1633, "pitch": 64, "duration": 3, "velocity": 119}, {"time": 1637, "pitch": 62, "duration": 5, "velocity": 117}, {"time": 1641, "pitch": 60, "duration": 3, "velocity": 116}, {"time": 1653, "pitch": 64, "duration": 3, "velocity": 116}, {"time": 1657, "pitch": 67, "duration": 3, "velocity": 114}, {"time": 1661, "pitch": 69, "duration": 2, "velocity": 117}, {"time": 1665, "pitch": 69, "duration": 2, "velocity": 110}, {"time": 1669, "pitch": 69, "duration": 2, "velocity": 114}, {"time": 1673, "pitch": 69, "duration": 3, "velocity": 116}, {"time": 1677, "pitch": 71, "duration": 3, "velocity": 113}, {"time": 1681, "pitch": 69, "duration": 3, "velocity": 116}, {"time": 1685, "pitch": 67, "duration": 4, "velocity": 119}, {"time": 1701, "pitch": 67, "duration": 3, "velocity": 119}, {"time": 1705, "pitch": 69, "duration": 3, "velocity": 116}, {"time": 1709, "pitch": 72, "duration": 2, "velocity": 117}, {"time": 1713, "pitch": 72, "duration": 2, "velocity": 116}, {"time": 1717, "pitch": 72, "duration": 2, "velocity": 114}, {"time": 1721, "pitch": 72, "duration": 4, "velocity": 117}, {"time": 1725, "pitch": 69, "duration": 2, "velocity": 117}, {"time": 1729, "pitch": 79, "duration": 3, "velocity": 114}, {"time": 1733, "pitch": 76, "duration": 3, "velocity": 119}, {"time": 1745, "pitch": 76, "duration": 4, "velocity": 117}, {"time": 1749, "pitch": 74, "duration": 4, "velocity": 113}, {"time": 1753, "pitch": 72, "duration": 3, "velocity": 116}, {"time": 1757, "pitch": 74, "duration": 4, "velocity": 114}, {"time": 1769, "pitch": 76, "duration": 3, "velocity": 119}, {"time": 1773, "pitch": 74, "duration": 3, "velocity": 116}, {"time": 1777, "pitch": 72, "duration": 3, "velocity": 113}, {"time": 1781, "pitch": 74, "duration": 4, "velocity": 117}, {"time": 1793, "pitch": 76, "duration": 3, "velocity": 116}, {"time": 1797, "pitch": 74, "duration": 4, "velocity": 113}, {"time": 1801, "pitch": 72, "duration": 3, "velocity": 116}, {"time": 1805, "pitch": 74, "duration": 2, "velocity": 116}, {"time": 1809, "pitch": 74, "duration": 2, "velocity": 117}, {"time": 1813, "pitch": 74, "duration": 2, "velocity": 117}, {"time": 1817, "pitch": 74, "duration": 3, "velocity": 119}, {"time": 1821, "pitch": 72, "duration": 3, "velocity": 116}, {"time": 1825, "pitch": 81, "duration": 3, "velocity": 113}, {"time": 1829, "pitch": 79, "duration": 3, "velocity": 117}, {"time": 1865, "pitch": 74, "duration": 3, "velocity": 120}, {"time": 1869, "pitch": 72, "duration": 3, "velocity": 114}, {"time": 1873, "pitch": 74, "duration": 3, "velocity": 117}, {"time": 1877, "pitch": 79, "duration": 4, "velocity": 117}, {"time": 1889, "pitch": 74, "duration": 4, "velocity": 120}, {"time": 1893, "pitch": 72, "duration": 3, "velocity": 114}, {"time": 1897, "pitch": 74, "duration": 3, "velocity": 107}, {"time": 1901, "pitch": 79, "duration": 4, "velocity": 114}, {"time": 1913, "pitch": 74, "duration": 4, "velocity": 116}, {"time": 1917, "pitch": 72, "duration": 3, "velocity": 114}, {"time": 1921, "pitch": 74, "duration": 3, "velocity": 113}, {"time": 1925, "pitch": 79, "duration": 4, "velocity": 116}, {"time": 1929, "pitch": 79, "duration": 2, "velocity": 110}, {"time": 1933, "pitch": 79, "duration": 2, "velocity": 114}, {"time": 1937, "pitch": 79, "duration": 3, "velocity": 117}, {"time": 1941, "pitch": 76, "duration": 3, "velocity": 114}, {"time": 1945, "pitch": 74, "duration": 3, "velocity": 116}, {"time": 1949, "pitch": 76, "duration": 3, "velocity": 117}, {"time": 1961, "pitch": 76, "duration": 3, "velocity": 119}, {"time": 1965, "pitch": 74, "duration": 3, "velocity": 113}, {"time": 1969, "pitch": 72, "duration": 4, "velocity": 116}, {"time": 1973, "pitch": 69, "duration": 6, "velocity": 119}, {"time": 1985, "pitch": 76, "duration": 4, "velocity": 119}, {"time": 1989, "pitch": 74, "duration": 3, "velocity": 116}, {"time": 1993, "pitch": 72, "duration": 4, "velocity": 114}, {"time": 1997, "pitch": 67, "duration": 3, "velocity": 117}, {"time": 2009, "pitch": 67, "duration": 3, "velocity": 117}, {"time": 2013, "pitch": 69, "duration": 2, "velocity": 116}, {"time": 2017, "pitch": 72, "duration": 3, "velocity": 116}, {"time": 2021, "pitch": 69, "duration": 3, "velocity": 120}, {"time": 2025, "pitch": 69, "duration": 2, "velocity": 117}, {"time": 2029, "pitch": 69, "duration": 2, "velocity": 117}, {"time": 2033, "pitch": 79, "duration": 1, "velocity": 119}, {"time": 2037, "pitch": 79, "duration": 3, "velocity": 110}, {"time": 2041, "pitch": 74, "duration": 2, "velocity": 114}, {"time": 2043, "pitch": 72, "duration": 1, "velocity": 104}, {"time": 2045, "pitch": 74, "duration": 3, "velocity": 117}, {"time": 2057, "pitch": 74, "duration": 3, "velocity": 120}, {"time": 2061, "pitch": 72, "duration": 3, "velocity": 114}, {"time": 2065, "pitch": 74, "duration": 3, "velocity": 117}, {"time": 2069, "pitch": 79, "duration": 4, "velocity": 117}, {"time": 2081, "pitch": 74, "duration": 4, "velocity": 120}, {"time": 2085, "pitch": 72, "duration": 3, "velocity": 114}, {"time": 2089, "pitch": 74, "duration": 3, "velocity": 107}, {"time": 2093, "pitch": 79, "duration": 4, "velocity": 114}, {"time": 2105, "pitch": 74, "duration": 4, "velocity": 116}, {"time": 2109, "pitch": 72, "duration": 3, "velocity": 114}, {"time": 2113, "pitch": 74, "duration": 3, "velocity": 113}, {"time": 2117, "pitch": 79, "duration": 4, "velocity": 116}, {"time": 2121, "pitch": 79, "duration": 2, "velocity": 110}, {"time": 2125, "pitch": 79, "duration": 2, "velocity": 114}, {"time": 2129, "pitch": 79, "duration": 3, "velocity": 117}, {"time": 2133, "pitch": 76, "duration": 3, "velocity": 114}, {"time": 2137, "pitch": 74, "duration": 3, "velocity": 116}, {"time": 2141, "pitch": 76, "duration": 3, "velocity": 117}, {"time": 2153, "pitch": 76, "duration": 3, "velocity": 119}, {"time": 2157, "pitch": 74, "duration": 3, "velocity": 113}, {"time": 2161, "pitch": 72, "duration": 4, "velocity": 116}, {"time": 2165, "pitch": 69, "duration": 6, "velocity": 119}, {"time": 2177, "pitch": 76, "duration": 4, "velocity": 119}, {"time": 2181, "pitch": 74, "duration": 3, "velocity": 116}, {"time": 2185, "pitch": 72, "duration": 4, "velocity": 114}, {"time": 2189, "pitch": 67, "duration": 3, "velocity": 117}, {"time": 2193, "pitch": 67, "duration": 3, "velocity": 119}, {"time": 2197, "pitch": 76, "duration": 2, "velocity": 114}, {"time": 2201, "pitch": 76, "duration": 3, "velocity": 116}, {"time": 2209, "pitch": 76, "duration": 4, "velocity": 117}, {"time": 2213, "pitch": 74, "duration": 4, "velocity": 116}, {"time": 2217, "pitch": 72, "duration": 4, "velocity": 114}, {"time": 2221, "pitch": 69, "duration": 3, "velocity": 113}, {"time": 2225, "pitch": 72, "duration": 3, "velocity": 119}, {"time": 2229, "pitch": 74, "duration": 3, "velocity": 114}, {"time": 2233, "pitch": 69, "duration": 5, "velocity": 113}, {"time": 2241, "pitch": 72, "duration": 4, "velocity": 116}, {"time": 2285, "pitch": 72, "duration": 3, "velocity": 116}, {"time": 2289, "pitch": 72, "duration": 2, "velocity": 113}, {"time": 2293, "pitch": 72, "duration": 2, "velocity": 113}, {"time": 2297, "pitch": 72, "duration": 5, "velocity": 116}, {"time": 2305, "pitch": 69, "duration": 2, "velocity": 110}, {"time": 2309, "pitch": 76, "duration": 3, "velocity": 117}, {"time": 2313, "pitch": 74, "duration": 3, "velocity": 114}, {"time": 2317, "pitch": 72, "duration": 2, "velocity": 110}, {"time": 2321, "pitch": 74, "duration": 4, "velocity": 117}, {"time": 2333, "pitch": 71, "duration": 1, "velocity": 116}, {"time": 2337, "pitch": 71, "duration": 2, "velocity": 114}, {"time": 2341, "pitch": 71, "duration": 2, "velocity": 114}, {"time": 2345, "pitch": 71, "duration": 2, "velocity": 119}, {"time": 2353, "pitch": 67, "duration": 3, "velocity": 110}, {"time": 2357, "pitch": 74, "duration": 3, "velocity": 102}, {"time": 2361, "pitch": 72, "duration": 3, "velocity": 107}, {"time": 2365, "pitch": 71, "duration": 2, "velocity": 102}, {"time": 2369, "pitch": 72, "duration": 3, "velocity": 114}, {"time": 2381, "pitch": 76, "duration": 3, "velocity": 114}, {"time": 2385, "pitch": 74, "duration": 3, "velocity": 113}, {"time": 2389, "pitch": 72, "duration": 2, "velocity": 113}, {"time": 2393, "pitch": 69, "duration": 3, "velocity": 114}, {"time": 2401, "pitch": 72, "duration": 3, "velocity": 113}, {"time": 2405, "pitch": 76, "duration": 3, "velocity": 110}, {"time": 2409, "pitch": 74, "duration": 5, "velocity": 110}, {"time": 2413, "pitch": 72, "duration": 4, "velocity": 113}, {"time": 2417, "pitch": 69, "duration": 4, "velocity": 113}, {"time": 2425, "pitch": 69, "duration": 2, "velocity": 114}, {"time": 2429, "pitch": 76, "duration": 3, "velocity": 117}, {"time": 2433, "pitch": 74, "duration": 2, "velocity": 114}, {"time": 2437, "pitch": 72, "duration": 2, "velocity": 113}, {"time": 2441, "pitch": 74, "duration": 2, "velocity": 117}, {"time": 2445, "pitch": 74, "duration": 3, "velocity": 114}, {"time": 2449, "pitch": 81, "duration": 2, "velocity": 116}, {"time": 2453, "pitch": 81, "duration": 3, "velocity": 116}, {"time": 2457, "pitch": 79, "duration": 4, "velocity": 117}, {"time": 2465, "pitch": 75, "duration": 3, "velocity": 120}, {"time": 2469, "pitch": 73, "duration": 3, "velocity": 114}, {"time": 2473, "pitch": 75, "duration": 3, "velocity": 117}, {"time": 2477, "pitch": 80, "duration": 4, "velocity": 117}, {"time": 2489, "pitch": 75, "duration": 4, "velocity": 120}, {"time": 2493, "pitch": 73, "duration": 3, "velocity": 114}, {"time": 2497, "pitch": 75, "duration": 3, "velocity": 107}, {"time": 2501, "pitch": 80, "duration": 4, "velocity": 114}, {"time": 2513, "pitch": 75, "duration": 4, "velocity": 116}, {"time": 2517, "pitch": 73, "duration": 3, "velocity": 114}, {"time": 2521, "pitch": 75, "duration": 3, "velocity": 113}, {"time": 2525, "pitch": 80, "duration": 4, "velocity": 116}, {"time": 2529, "pitch": 80, "duration": 2, "velocity": 110}, {"time": 2533, "pitch": 80, "duration": 2, "velocity": 114}, {"time": 2537, "pitch": 80, "duration": 3, "velocity": 117}, {"time": 2541, "pitch": 77, "duration": 3, "velocity": 114}, {"time": 2545, "pitch": 75, "duration": 3, "velocity": 116}, {"time": 2549, "pitch": 77, "duration": 3, "velocity": 117}, {"time": 2561, "pitch": 77, "duration": 3, "velocity": 119}, {"time": 2565, "pitch": 75, "duration": 3, "velocity": 113}, {"time": 2569, "pitch": 73, "duration": 4, "velocity": 116}, {"time": 2573, "pitch": 70, "duration": 6, "velocity": 119}, {"time": 2585, "pitch": 77, "duration": 4, "velocity": 119}, {"time": 2589, "pitch": 75, "duration": 3, "velocity": 116}, {"time": 2593, "pitch": 73, "duration": 4, "velocity": 114}, {"time": 2597, "pitch": 68, "duration": 3, "velocity": 117}, {"time": 2609, "pitch": 68, "duration": 3, "velocity": 117}, {"time": 2613, "pitch": 70, "duration": 2, "velocity": 116}, {"time": 2617, "pitch": 73, "duration": 3, "velocity": 116}, {"time": 2621, "pitch": 70, "duration": 3, "velocity": 120}, {"time": 2625, "pitch": 70, "duration": 2, "velocity": 117}, {"time": 2629, "pitch": 70, "duration": 2, "velocity": 117}, {"time": 2633, "pitch": 80, "duration": 1, "velocity": 119}, {"time": 2637, "pitch": 80, "duration": 3, "velocity": 110}, {"time": 2641, "pitch": 75, "duration": 2, "velocity": 114}, {"time": 2643, "pitch": 73, "duration": 1, "velocity": 104}, {"time": 2645, "pitch": 75, "duration": 3, "velocity": 117}, {"time": 2657, "pitch": 75, "duration": 3, "velocity": 120}, {"time": 2661, "pitch": 73, "duration": 3, "velocity": 114}, {"time": 2665, "pitch": 75, "duration": 3, "velocity": 117}, {"time": 2669, "pitch": 80, "duration": 4, "velocity": 117}, {"time": 2681, "pitch": 75, "duration": 4, "velocity": 120}, {"time": 2685, "pitch": 73, "duration": 3, "velocity": 114}, {"time": 2689, "pitch": 75, "duration": 3, "velocity": 107}, {"time": 2693, "pitch": 80, "duration": 4, "velocity": 114}, {"time": 2705, "pitch": 75, "duration": 4, "velocity": 116}, {"time": 2709, "pitch": 73, "duration": 3, "velocity": 114}, {"time": 2713, "pitch": 75, "duration": 3, "velocity": 113}, {"time": 2717, "pitch": 80, "duration": 4, "velocity": 116}, {"time": 2721, "pitch": 80, "duration": 2, "velocity": 110}, {"time": 2725, "pitch": 80, "duration": 2, "velocity": 114}, {"time": 2729, "pitch": 80, "duration": 3, "velocity": 117}, {"time": 2733, "pitch": 77, "duration": 3, "velocity": 114}, {"time": 2737, "pitch": 75, "duration": 3, "velocity": 116}, {"time": 2741, "pitch": 77, "duration": 3, "velocity": 117}, {"time": 2753, "pitch": 77, "duration": 3, "velocity": 119}, {"time": 2757, "pitch": 75, "duration": 3, "velocity": 113}, {"time": 2761, "pitch": 73, "duration": 4, "velocity": 116}, {"time": 2765, "pitch": 70, "duration": 6, "velocity": 119}, {"time": 2777, "pitch": 77, "duration": 4, "velocity": 119}, {"time": 2781, "pitch": 75, "duration": 3, "velocity": 116}, {"time": 2785, "pitch": 73, "duration": 4, "velocity": 114}, {"time": 2789, "pitch": 68, "duration": 3, "velocity": 117}, {"time": 2793, "pitch": 68, "duration": 3, "velocity": 119}, {"time": 2797, "pitch": 77, "duration": 2, "velocity": 114}, {"time": 2801, "pitch": 77, "duration": 3, "velocity": 116}, {"time": 2809, "pitch": 77, "duration": 4, "velocity": 117}, {"time": 2813, "pitch": 75, "duration": 4, "velocity": 116}, {"time": 2817, "pitch": 73, "duration": 4, "velocity": 114}, {"time": 2821, "pitch": 70, "duration": 3, "velocity": 113}, {"time": 2825, "pitch": 73, "duration": 3, "velocity": 119}, {"time": 2829, "pitch": 75, "duration": 3, "velocity": 114}, {"time": 2833, "pitch": 70, "duration": 5, "velocity": 113}, {"time": 2841, "pitch": 73, "duration": 4, "velocity": 116}]}, {"program": 0, "is_drum": false, "name": "BRIDGE", "notes": [{"time": 13, "pitch": 36, "duration": 3, "velocity": 56}, {"time": 16, "pitch": 43, "duration": 2, "velocity": 71}, {"time": 18, "pitch": 45, "duration": 2, "velocity": 61}, {"time": 19, "pitch": 48, "duration": 2, "velocity": 71}, {"time": 21, "pitch": 50, "duration": 1, "velocity": 73}, {"time": 22, "pitch": 52, "duration": 1, "velocity": 73}, {"time": 23, "pitch": 55, "duration": 2, "velocity": 73}, {"time": 25, "pitch": 57, "duration": 1, "velocity": 73}, {"time": 26, "pitch": 60, "duration": 2, "velocity": 73}, {"time": 28, "pitch": 62, "duration": 1, "velocity": 73}, {"time": 29, "pitch": 64, "duration": 1, "velocity": 73}, {"time": 30, "pitch": 67, "duration": 2, "velocity": 74}, {"time": 32, "pitch": 69, "duration": 1, "velocity": 75}, {"time": 33, "pitch": 72, "duration": 1, "velocity": 78}, {"time": 34, "pitch": 74, "duration": 1, "velocity": 78}, {"time": 36, "pitch": 76, "duration": 1, "velocity": 78}, {"time": 37, "pitch": 79, "duration": 2, "velocity": 78}, {"time": 40, "pitch": 81, "duration": 1, "velocity": 78}, {"time": 42, "pitch": 84, "duration": 2, "velocity": 75}, {"time": 44, "pitch": 86, "duration": 2, "velocity": 83}, {"time": 47, "pitch": 88, "duration": 2, "velocity": 93}, {"time": 50, "pitch": 91, "duration": 6, "velocity": 97}, {"time": 55, "pitch": 93, "duration": 10, "velocity": 91}, {"time": 65, "pitch": 79, "duration": 4, "velocity": 114}, {"time": 69, "pitch": 72, "duration": 4, "velocity": 113}, {"time": 73, "pitch": 74, "duration": 2, "velocity": 110}, {"time": 77, "pitch": 79, "duration": 2, "velocity": 116}, {"time": 77, "pitch": 84, "duration": 5, "velocity": 113}, {"time": 85, "pitch": 79, "duration": 3, "velocity": 102}, {"time": 89, "pitch": 81, "duration": 7, "velocity": 113}, {"time": 97, "pitch": 84, "duration": 4, "velocity": 116}, {"time": 101, "pitch": 79, "duration": 4, "velocity": 116}, {"time": 113, "pitch": 79, "duration": 4, "velocity": 116}, {"time": 117, "pitch": 81, "duration": 3, "velocity": 113}, {"time": 121, "pitch": 84, "duration": 3, "velocity": 117}, {"time": 125, "pitch": 88, "duration": 3, "velocity": 116}, {"time": 133, "pitch": 86, "duration": 3, "velocity": 108}, {"time": 137, "pitch": 88, "duration": 3, "velocity": 108}, {"time": 141, "pitch": 93, "duration": 4, "velocity": 114}, {"time": 145, "pitch": 91, "duration": 4, "velocity": 110}, {"time": 149, "pitch": 88, "duration": 4, "velocity": 113}, {"time": 169, "pitch": 88, "duration": 2, "velocity": 102}, {"time": 171, "pitch": 91, "duration": 2, "velocity": 102}, {"time": 173, "pitch": 93, "duration": 2, "velocity": 110}, {"time": 181, "pitch": 91, "duration": 2, "velocity": 102}, {"time": 183, "pitch": 88, "duration": 1, "velocity": 82}, {"time": 185, "pitch": 86, "duration": 4, "velocity": 100}, {"time": 193, "pitch": 81, "duration": 3, "velocity": 110}, {"time": 197, "pitch": 88, "duration": 4, "velocity": 116}, {"time": 209, "pitch": 84, "duration": 7, "velocity": 114}, {"time": 217, "pitch": 81, "duration": 12, "velocity": 113}, {"time": 237, "pitch": 84, "duration": 9, "velocity": 116}, {"time": 441, "pitch": 67, "duration": 4, "velocity": 104}, {"time": 445, "pitch": 69, "duration": 2, "velocity": 110}, {"time": 449, "pitch": 72, "duration": 4, "velocity": 102}, {"time": 453, "pitch": 74, "duration": 2, "velocity": 108}, {"time": 457, "pitch": 76, "duration": 3, "velocity": 110}, {"time": 461, "pitch": 79, "duration": 3, "velocity": 113}, {"time": 629, "pitch": 67, "duration": 1, "velocity": 94}, {"time": 631, "pitch": 69, "duration": 1, "velocity": 90}, {"time": 633, "pitch": 72, "duration": 3, "velocity": 93}, {"time": 637, "pitch": 74, "duration": 3, "velocity": 98}, {"time": 641, "pitch": 72, "duration": 2, "velocity": 86}, {"time": 645, "pitch": 69, "duration": 4, "velocity": 88}, {"time": 649, "pitch": 72, "duration": 3, "velocity": 88}, {"time": 833, "pitch": 81, "duration": 3, "velocity": 117}, {"time": 837, "pitch": 79, "duration": 3, "velocity": 117}, {"time": 841, "pitch": 76, "duration": 2, "velocity": 116}, {"time": 845, "pitch": 79, "duration": 4, "velocity": 119}, {"time": 869, "pitch": 79, "duration": 13, "velocity": 114}, {"time": 885, "pitch": 79, "duration": 4, "velocity": 108}, {"time": 889, "pitch": 81, "duration": 4, "velocity": 110}, {"time": 893, "pitch": 76, "duration": 5, "velocity": 104}, {"time": 933, "pitch": 76, "duration": 3, "velocity": 96}, {"time": 937, "pitch": 74, "duration": 4, "velocity": 94}, {"time": 941, "pitch": 76, "duration": 4, "velocity": 110}, {"time": 941, "pitch": 79, "duration": 16, "velocity": 113}, {"time": 965, "pitch": 81, "duration": 19, "velocity": 119}, {"time": 985, "pitch": 84, "duration": 3, "velocity": 113}, {"time": 989, "pitch": 79, "duration": 12, "velocity": 110}, {"time": 1001, "pitch": 81, "duration": 12, "velocity": 114}, {"time": 1013, "pitch": 86, "duration": 11, "velocity": 117}, {"time": 1061, "pitch": 88, "duration": 19, "velocity": 119}, {"time": 1081, "pitch": 91, "duration": 4, "velocity": 113}, {"time": 1085, "pitch": 88, "duration": 6, "velocity": 114}, {"time": 1097, "pitch": 86, "duration": 12, "velocity": 107}, {"time": 1109, "pitch": 84, "duration": 16, "velocity": 110}, {"time": 1157, "pitch": 81, "duration": 22, "velocity": 113}, {"time": 1181, "pitch": 79, "duration": 22, "velocity": 113}, {"time": 1205, "pitch": 86, "duration": 24, "velocity": 114}, {"time": 1229, "pitch": 84, "duration": 9, "velocity": 113}, {"time": 1252, "pitch": 67, "duration": 2, "velocity": 100}, {"time": 1253, "pitch": 67, "duration": 1, "velocity": 89}, {"time": 1254, "pitch": 69, "duration": 2, "velocity": 86}, {"time": 1255, "pitch": 69, "duration": 1, "velocity": 92}, {"time": 1256, "pitch": 72, "duration": 3, "velocity": 96}, {"time": 1257, "pitch": 72, "duration": 2, "velocity": 104}, {"time": 1260, "pitch": 74, "duration": 3, "velocity": 92}, {"time": 1261, "pitch": 74, "duration": 2, "velocity": 100}, {"time": 1264, "pitch": 76, "duration": 3, "velocity": 104}, {"time": 1265, "pitch": 76, "duration": 2, "velocity": 104}, {"time": 1268, "pitch": 74, "duration": 4, "velocity": 96}, {"time": 1269, "pitch": 74, "duration": 3, "velocity": 113}, {"time": 1272, "pitch": 72, "duration": 3, "velocity": 93}, {"time": 1273, "pitch": 72, "duration": 2, "velocity": 102}, {"time": 1277, "pitch": 69, "duration": 3, "velocity": 95}, {"time": 1277, "pitch": 69, "duration": 3, "velocity": 108}, {"time": 1277, "pitch": 76, "duration": 9, "velocity": 117}, {"time": 1293, "pitch": 69, "duration": 1, "velocity": 79}, {"time": 1293, "pitch": 79, "duration": 4, "velocity": 114}, {"time": 1294, "pitch": 72, "duration": 2, "velocity": 87}, {"time": 1296, "pitch": 69, "duration": 2, "velocity": 92}, {"time": 1297, "pitch": 81, "duration": 3, "velocity": 114}, {"time": 1300, "pitch": 74, "duration": 20, "velocity": 100}, {"time": 1301, "pitch": 76, "duration": 4, "velocity": 116}, {"time": 1317, "pitch": 79, "duration": 3, "velocity": 117}, {"time": 1321, "pitch": 81, "duration": 3, "velocity": 114}, {"time": 1324, "pitch": 74, "duration": 5, "velocity": 92}, {"time": 1325, "pitch": 74, "duration": 4, "velocity": 116}, {"time": 1325, "pitch": 83, "duration": 3, "velocity": 113}, {"time": 1328, "pitch": 71, "duration": 4, "velocity": 84}, {"time": 1332, "pitch": 67, "duration": 4, "velocity": 78}, {"time": 1332, "pitch": 79, "duration": 4, "velocity": 119}, {"time": 1336, "pitch": 74, "duration": 5, "velocity": 100}, {"time": 1337, "pitch": 74, "duration": 4, "velocity": 119}, {"time": 1341, "pitch": 67, "duration": 1, "velocity": 96}, {"time": 1341, "pitch": 76, "duration": 3, "velocity": 119}, {"time": 1342, "pitch": 69, "duration": 3, "velocity": 92}, {"time": 1343, "pitch": 81, "duration": 2, "velocity": 100}, {"time": 1344, "pitch": 72, "duration": 5, "velocity": 90}, {"time": 1345, "pitch": 69, "duration": 3, "velocity": 110}, {"time": 1345, "pitch": 83, "duration": 3, "velocity": 119}, {"time": 1348, "pitch": 76, "duration": 7, "velocity": 108}, {"time": 1349, "pitch": 76, "duration": 6, "velocity": 119}, {"time": 1354, "pitch": 64, "duration": 1, "velocity": 81}, {"time": 1355, "pitch": 76, "duration": 1, "velocity": 81}, {"time": 1356, "pitch": 64, "duration": 1, "velocity": 85}, {"time": 1357, "pitch": 76, "duration": 1, "velocity": 86}, {"time": 1358, "pitch": 64, "duration": 1, "velocity": 93}, {"time": 1360, "pitch": 76, "duration": 1, "velocity": 97}, {"time": 1360, "pitch": 64, "duration": 2, "velocity": 100}, {"time": 1362, "pitch": 76, "duration": 1, "velocity": 100}, {"time": 1363, "pitch": 64, "duration": 1, "velocity": 97}, {"time": 1364, "pitch": 76, "duration": 1, "velocity": 100}, {"time": 1364, "pitch": 74, "duration": 4, "velocity": 108}, {"time": 1365, "pitch": 64, "duration": 1, "velocity": 100}, {"time": 1366, "pitch": 76, "duration": 1, "velocity": 87}, {"time": 1368, "pitch": 72, "duration": 4, "velocity": 90}, {"time": 1372, "pitch": 74, "duration": 4, "velocity": 108}, {"time": 1373, "pitch": 74, "duration": 3, "velocity": 114}, {"time": 1376, "pitch": 72, "duration": 4, "velocity": 86}, {"time": 1380, "pitch": 69, "duration": 4, "velocity": 90}, {"time": 1381, "pitch": 72, "duration": 4, "velocity": 110}, {"time": 1384, "pitch": 74, "duration": 4, "velocity": 106}, {"time": 1385, "pitch": 74, "duration": 3, "velocity": 104}, {"time": 1385, "pitch": 69, "duration": 3, "velocity": 114}, {"time": 1389, "pitch": 72, "duration": 3, "velocity": 95}, {"time": 1392, "pitch": 69, "duration": 4, "velocity": 96}, {"time": 1393, "pitch": 72, "duration": 3, "velocity": 113}, {"time": 1397, "pitch": 74, "duration": 2, "velocity": 102}, {"time": 1397, "pitch": 74, "duration": 2, "velocity": 117}, {"time": 1399, "pitch": 72, "duration": 1, "velocity": 93}, {"time": 1400, "pitch": 69, "duration": 5, "velocity": 96}, {"time": 1404, "pitch": 72, "duration": 4, "velocity": 106}, {"time": 1405, "pitch": 72, "duration": 3, "velocity": 114}, {"time": 1408, "pitch": 74, "duration": 4, "velocity": 96}, {"time": 1409, "pitch": 69, "duration": 3, "velocity": 110}, {"time": 1412, "pitch": 72, "duration": 2, "velocity": 96}, {"time": 1413, "pitch": 72, "duration": 1, "velocity": 113}, {"time": 1416, "pitch": 76, "duration": 5, "velocity": 102}, {"time": 1417, "pitch": 79, "duration": 3, "velocity": 110}, {"time": 1420, "pitch": 79, "duration": 29, "velocity": 108}, {"time": 1421, "pitch": 74, "duration": 5, "velocity": 114}, {"time": 1439, "pitch": 76, "duration": 3, "velocity": 82}, {"time": 1441, "pitch": 81, "duration": 4, "velocity": 113}, {"time": 1445, "pitch": 79, "duration": 4, "velocity": 113}, {"time": 1689, "pitch": 79, "duration": 1, "velocity": 91}, {"time": 1691, "pitch": 81, "duration": 1, "velocity": 90}, {"time": 1693, "pitch": 79, "duration": 3, "velocity": 102}, {"time": 1697, "pitch": 76, "duration": 3, "velocity": 110}, {"time": 1737, "pitch": 88, "duration": 1, "velocity": 91}, {"time": 1739, "pitch": 91, "duration": 1, "velocity": 92}, {"time": 1741, "pitch": 86, "duration": 3, "velocity": 96}, {"time": 1745, "pitch": 88, "duration": 2, "velocity": 114}, {"time": 1841, "pitch": 81, "duration": 3, "velocity": 117}, {"time": 1845, "pitch": 79, "duration": 3, "velocity": 117}, {"time": 1849, "pitch": 76, "duration": 2, "velocity": 116}, {"time": 1853, "pitch": 79, "duration": 4, "velocity": 119}, {"time": 1877, "pitch": 79, "duration": 13, "velocity": 114}, {"time": 1893, "pitch": 79, "duration": 4, "velocity": 108}, {"time": 1897, "pitch": 81, "duration": 4, "velocity": 110}, {"time": 1901, "pitch": 76, "duration": 5, "velocity": 104}, {"time": 1941, "pitch": 76, "duration": 3, "velocity": 96}, {"time": 1945, "pitch": 74, "duration": 4, "velocity": 94}, {"time": 1949, "pitch": 76, "duration": 4, "velocity": 110}, {"time": 1949, "pitch": 79, "duration": 16, "velocity": 113}, {"time": 1973, "pitch": 81, "duration": 19, "velocity": 119}, {"time": 1993, "pitch": 84, "duration": 3, "velocity": 113}, {"time": 1997, "pitch": 79, "duration": 12, "velocity": 110}, {"time": 2009, "pitch": 81, "duration": 12, "velocity": 114}, {"time": 2021, "pitch": 86, "duration": 11, "velocity": 117}, {"time": 2069, "pitch": 88, "duration": 19, "velocity": 119}, {"time": 2089, "pitch": 91, "duration": 4, "velocity": 113}, {"time": 2093, "pitch": 88, "duration": 6, "velocity": 114}, {"time": 2105, "pitch": 86, "duration": 12, "velocity": 107}, {"time": 2117, "pitch": 84, "duration": 16, "velocity": 110}, {"time": 2165, "pitch": 81, "duration": 22, "velocity": 113}, {"time": 2189, "pitch": 79, "duration": 22, "velocity": 113}, {"time": 2213, "pitch": 86, "duration": 24, "velocity": 114}, {"time": 2237, "pitch": 84, "duration": 9, "velocity": 113}, {"time": 2477, "pitch": 80, "duration": 13, "velocity": 114}, {"time": 2493, "pitch": 80, "duration": 4, "velocity": 108}, {"time": 2497, "pitch": 82, "duration": 4, "velocity": 110}, {"time": 2501, "pitch": 77, "duration": 5, "velocity": 104}, {"time": 2541, "pitch": 77, "duration": 3, "velocity": 96}, {"time": 2545, "pitch": 75, "duration": 4, "velocity": 94}, {"time": 2549, "pitch": 77, "duration": 4, "velocity": 110}, {"time": 2549, "pitch": 80, "duration": 16, "velocity": 113}, {"time": 2573, "pitch": 82, "duration": 19, "velocity": 119}, {"time": 2593, "pitch": 85, "duration": 3, "velocity": 113}, {"time": 2597, "pitch": 80, "duration": 12, "velocity": 110}, {"time": 2609, "pitch": 82, "duration": 12, "velocity": 114}, {"time": 2621, "pitch": 87, "duration": 11, "velocity": 117}, {"time": 2669, "pitch": 89, "duration": 19, "velocity": 119}, {"time": 2689, "pitch": 92, "duration": 4, "velocity": 113}, {"time": 2693, "pitch": 89, "duration": 6, "velocity": 114}, {"time": 2705, "pitch": 87, "duration": 12, "velocity": 107}, {"time": 2717, "pitch": 85, "duration": 16, "velocity": 110}, {"time": 2765, "pitch": 82, "duration": 22, "velocity": 113}, {"time": 2789, "pitch": 80, "duration": 22, "velocity": 113}, {"time": 2813, "pitch": 87, "duration": 24, "velocity": 114}, {"time": 2837, "pitch": 85, "duration": 9, "velocity": 113}, {"time": 2873, "pitch": 68, "duration": 2, "velocity": 110}, {"time": 2877, "pitch": 70, "duration": 3, "velocity": 110}, {"time": 2881, "pitch": 68, "duration": 2, "velocity": 114}, {"time": 2885, "pitch": 77, "duration": 10, "velocity": 117}, {"time": 2897, "pitch": 73, "duration": 9, "velocity": 117}, {"time": 2909, "pitch": 75, "duration": 4, "velocity": 117}, {"time": 2925, "pitch": 75, "duration": 3, "velocity": 114}, {"time": 2929, "pitch": 77, "duration": 3, "velocity": 100}, {"time": 2933, "pitch": 68, "duration": 6, "velocity": 116}, {"time": 2945, "pitch": 65, "duration": 5, "velocity": 114}, {"time": 2953, "pitch": 75, "duration": 3, "velocity": 107}, {"time": 2957, "pitch": 73, "duration": 4, "velocity": 114}, {"time": 2977, "pitch": 75, "duration": 3, "velocity": 108}, {"time": 2981, "pitch": 77, "duration": 4, "velocity": 113}, {"time": 3001, "pitch": 70, "duration": 3, "velocity": 110}, {"time": 3005, "pitch": 75, "duration": 10, "velocity": 116}, {"time": 3017, "pitch": 77, "duration": 3, "velocity": 114}, {"time": 3021, "pitch": 70, "duration": 2, "velocity": 92}, {"time": 3025, "pitch": 75, "duration": 3, "velocity": 108}, {"time": 3029, "pitch": 73, "duration": 5, "velocity": 114}]}, {"program": 0, "is_drum": false, "name": "PIANO", "notes": [{"time": 77, "pitch": 48, "duration": 41, "velocity": 91}, {"time": 77, "pitch": 64, "duration": 8, "velocity": 88}, {"time": 77, "pitch": 67, "duration": 8, "velocity": 91}, {"time": 77, "pitch": 72, "duration": 8, "velocity": 88}, {"time": 85, "pitch": 55, "duration": 32, "velocity": 64}, {"time": 89, "pitch": 62, "duration": 7, "velocity": 91}, {"time": 89, "pitch": 67, "duration": 8, "velocity": 89}, {"time": 97, "pitch": 60, "duration": 9, "velocity": 78}, {"time": 101, "pitch": 64, "duration": 9, "velocity": 90}, {"time": 101, "pitch": 72, "duration": 7, "velocity": 91}, {"time": 109, "pitch": 60, "duration": 7, "velocity": 80}, {"time": 113, "pitch": 62, "duration": 6, "velocity": 94}, {"time": 113, "pitch": 67, "duration": 4, "velocity": 98}, {"time": 117, "pitch": 64, "duration": 4, "velocity": 83}, {"time": 121, "pitch": 67, "duration": 3, "velocity": 76}, {"time": 125, "pitch": 52, "duration": 41, "velocity": 89}, {"time": 125, "pitch": 64, "duration": 9, "velocity": 87}, {"time": 125, "pitch": 71, "duration": 11, "velocity": 87}, {"time": 133, "pitch": 59, "duration": 7, "velocity": 80}, {"time": 137, "pitch": 67, "duration": 11, "velocity": 108}, {"time": 145, "pitch": 59, "duration": 12, "velocity": 78}, {"time": 149, "pitch": 64, "duration": 8, "velocity": 90}, {"time": 149, "pitch": 71, "duration": 8, "velocity": 96}, {"time": 157, "pitch": 67, "duration": 7, "velocity": 107}, {"time": 161, "pitch": 59, "duration": 4, "velocity": 98}, {"time": 165, "pitch": 64, "duration": 4, "velocity": 104}, {"time": 169, "pitch": 67, "duration": 4, "velocity": 108}, {"time": 173, "pitch": 53, "duration": 18, "velocity": 92}, {"time": 177, "pitch": 60, "duration": 13, "velocity": 80}, {"time": 181, "pitch": 65, "duration": 5, "velocity": 79}, {"time": 185, "pitch": 72, "duration": 8, "velocity": 104}, {"time": 189, "pitch": 65, "duration": 4, "velocity": 76}, {"time": 193, "pitch": 69, "duration": 4, "velocity": 84}, {"time": 197, "pitch": 43, "duration": 17, "velocity": 86}, {"time": 197, "pitch": 62, "duration": 11, "velocity": 86}, {"time": 197, "pitch": 71, "duration": 4, "velocity": 84}, {"time": 201, "pitch": 50, "duration": 14, "velocity": 74}, {"time": 205, "pitch": 55, "duration": 12, "velocity": 77}, {"time": 209, "pitch": 59, "duration": 5, "velocity": 89}, {"time": 209, "pitch": 67, "duration": 5, "velocity": 90}, {"time": 213, "pitch": 62, "duration": 7, "velocity": 78}, {"time": 217, "pitch": 67, "duration": 5, "velocity": 86}, {"time": 221, "pitch": 48, "duration": 38, "velocity": 87}, {"time": 221, "pitch": 64, "duration": 10, "velocity": 88}, {"time": 225, "pitch": 55, "duration": 34, "velocity": 72}, {"time": 229, "pitch": 60, "duration": 30, "velocity": 81}, {"time": 233, "pitch": 62, "duration": 4, "velocity": 87}, {"time": 237, "pitch": 67, "duration": 5, "velocity": 83}, {"time": 241, "pitch": 64, "duration": 16, "velocity": 83}, {"time": 243, "pitch": 67, "duration": 1, "velocity": 38}, {"time": 245, "pitch": 72, "duration": 13, "velocity": 86}, {"time": 269, "pitch": 48, "duration": 20, "velocity": 83}, {"time": 269, "pitch": 62, "duration": 11, "velocity": 86}, {"time": 269, "pitch": 67, "duration": 10, "velocity": 87}, {"time": 273, "pitch": 55, "duration": 20, "velocity": 65}, {"time": 277, "pitch": 60, "duration": 11, "velocity": 77}, {"time": 281, "pitch": 64, "duration": 8, "velocity": 87}, {"time": 289, "pitch": 62, "duration": 12, "velocity": 84}, {"time": 289, "pitch": 67, "duration": 12, "velocity": 84}, {"time": 293, "pitch": 47, "duration": 19, "velocity": 83}, {"time": 297, "pitch": 55, "duration": 14, "velocity": 72}, {"time": 301, "pitch": 59, "duration": 8, "velocity": 72}, {"time": 305, "pitch": 62, "duration": 8, "velocity": 91}, {"time": 305, "pitch": 67, "duration": 7, "velocity": 91}, {"time": 317, "pitch": 45, "duration": 19, "velocity": 83}, {"time": 317, "pitch": 60, "duration": 9, "velocity": 84}, {"time": 317, "pitch": 69, "duration": 8, "velocity": 88}, {"time": 325, "pitch": 57, "duration": 9, "velocity": 77}, {"time": 329, "pitch": 60, "duration": 8, "velocity": 89}, {"time": 329, "pitch": 69, "duration": 7, "velocity": 89}, {"time": 341, "pitch": 43, "duration": 17, "velocity": 84}, {"time": 341, "pitch": 59, "duration": 10, "velocity": 84}, {"time": 341, "pitch": 67, "duration": 11, "velocity": 89}, {"time": 349, "pitch": 55, "duration": 7, "velocity": 81}, {"time": 353, "pitch": 62, "duration": 4, "velocity": 113}, {"time": 357, "pitch": 67, "duration": 7, "velocity": 98}, {"time": 365, "pitch": 41, "duration": 15, "velocity": 78}, {"time": 365, "pitch": 53, "duration": 16, "velocity": 78}, {"time": 365, "pitch": 57, "duration": 9, "velocity": 80}, {"time": 365, "pitch": 65, "duration": 9, "velocity": 87}, {"time": 377, "pitch": 57, "duration": 6, "velocity": 91}, {"time": 377, "pitch": 65, "duration": 11, "velocity": 91}, {"time": 389, "pitch": 52, "duration": 11, "velocity": 86}, {"time": 389, "pitch": 62, "duration": 9, "velocity": 89}, {"time": 389, "pitch": 67, "duration": 8, "velocity": 91}, {"time": 401, "pitch": 57, "duration": 12, "velocity": 79}, {"time": 401, "pitch": 60, "duration": 9, "velocity": 85}, {"time": 401, "pitch": 69, "duration": 11, "velocity": 88}, {"time": 413, "pitch": 50, "duration": 19, "velocity": 84}, {"time": 413, "pitch": 62, "duration": 16, "velocity": 86}, {"time": 413, "pitch": 65, "duration": 15, "velocity": 87}, {"time": 425, "pitch": 57, "duration": 7, "velocity": 82}, {"time": 429, "pitch": 64, "duration": 5, "velocity": 91}, {"time": 433, "pitch": 65, "duration": 12, "velocity": 76}, {"time": 437, "pitch": 43, "duration": 17, "velocity": 83}, {"time": 437, "pitch": 59, "duration": 10, "velocity": 80}, {"time": 441, "pitch": 50, "duration": 13, "velocity": 71}, {"time": 445, "pitch": 55, "duration": 5, "velocity": 85}, {"time": 449, "pitch": 62, "duration": 11, "velocity": 114}, {"time": 453, "pitch": 55, "duration": 8, "velocity": 86}, {"time": 461, "pitch": 48, "duration": 18, "velocity": 82}, {"time": 461, "pitch": 60, "duration": 7, "velocity": 89}, {"time": 461, "pitch": 64, "duration": 10, "velocity": 88}, {"time": 469, "pitch": 55, "duration": 17, "velocity": 69}, {"time": 473, "pitch": 60, "duration": 4, "velocity": 87}, {"time": 477, "pitch": 62, "duration": 4, "velocity": 87}, {"time": 481, "pitch": 67, "duration": 6, "velocity": 88}, {"time": 485, "pitch": 47, "duration": 24, "velocity": 77}, {"time": 485, "pitch": 64, "duration": 8, "velocity": 87}, {"time": 493, "pitch": 55, "duration": 6, "velocity": 81}, {"time": 497, "pitch": 62, "duration": 4, "velocity": 88}, {"time": 501, "pitch": 64, "duration": 4, "velocity": 84}, {"time": 505, "pitch": 67, "duration": 4, "velocity": 76}, {"time": 509, "pitch": 45, "duration": 24, "velocity": 81}, {"time": 509, "pitch": 60, "duration": 9, "velocity": 84}, {"time": 509, "pitch": 67, "duration": 9, "velocity": 81}, {"time": 521, "pitch": 60, "duration": 7, "velocity": 90}, {"time": 521, "pitch": 67, "duration": 11, "velocity": 89}, {"time": 533, "pitch": 43, "duration": 17, "velocity": 81}, {"time": 533, "pitch": 59, "duration": 8, "velocity": 84}, {"time": 533, "pitch": 67, "duration": 10, "velocity": 82}, {"time": 541, "pitch": 64, "duration": 8, "velocity": 87}, {"time": 545, "pitch": 55, "duration": 6, "velocity": 102}, {"time": 549, "pitch": 67, "duration": 8, "velocity": 100}, {"time": 557, "pitch": 53, "duration": 24, "velocity": 83}, {"time": 557, "pitch": 57, "duration": 10, "velocity": 85}, {"time": 557, "pitch": 65, "duration": 9, "velocity": 86}, {"time": 569, "pitch": 57, "duration": 6, "velocity": 91}, {"time": 569, "pitch": 65, "duration": 11, "velocity": 88}, {"time": 581, "pitch": 52, "duration": 12, "velocity": 84}, {"time": 581, "pitch": 59, "duration": 7, "velocity": 88}, {"time": 581, "pitch": 67, "duration": 11, "velocity": 91}, {"time": 593, "pitch": 57, "duration": 12, "velocity": 84}, {"time": 593, "pitch": 60, "duration": 9, "velocity": 88}, {"time": 593, "pitch": 69, "duration": 13, "velocity": 93}, {"time": 605, "pitch": 50, "duration": 9, "velocity": 84}, {"time": 605, "pitch": 62, "duration": 12, "velocity": 84}, {"time": 605, "pitch": 65, "duration": 11, "velocity": 91}, {"time": 617, "pitch": 43, "duration": 7, "velocity": 86}, {"time": 617, "pitch": 59, "duration": 10, "velocity": 87}, {"time": 617, "pitch": 67, "duration": 12, "velocity": 87}, {"time": 629, "pitch": 48, "duration": 20, "velocity": 84}, {"time": 629, "pitch": 60, "duration": 4, "velocity": 83}, {"time": 629, "pitch": 64, "duration": 9, "velocity": 82}, {"time": 633, "pitch": 55, "duration": 15, "velocity": 64}, {"time": 637, "pitch": 60, "duration": 5, "velocity": 86}, {"time": 641, "pitch": 62, "duration": 7, "velocity": 98}, {"time": 641, "pitch": 67, "duration": 7, "velocity": 104}, {"time": 645, "pitch": 60, "duration": 2, "velocity": 91}, {"time": 649, "pitch": 64, "duration": 4, "velocity": 86}, {"time": 653, "pitch": 45, "duration": 19, "velocity": 85}, {"time": 653, "pitch": 60, "duration": 8, "velocity": 89}, {"time": 653, "pitch": 69, "duration": 8, "velocity": 88}, {"time": 661, "pitch": 57, "duration": 5, "velocity": 87}, {"time": 665, "pitch": 60, "duration": 8, "velocity": 108}, {"time": 665, "pitch": 69, "duration": 11, "velocity": 107}, {"time": 669, "pitch": 57, "duration": 2, "velocity": 85}, {"time": 677, "pitch": 40, "duration": 17, "velocity": 87}, {"time": 677, "pitch": 59, "duration": 7, "velocity": 81}, {"time": 677, "pitch": 60, "duration": 2, "velocity": 80}, {"time": 677, "pitch": 67, "duration": 8, "velocity": 87}, {"time": 685, "pitch": 52, "duration": 11, "velocity": 85}, {"time": 689, "pitch": 59, "duration": 5, "velocity": 116}, {"time": 689, "pitch": 67, "duration": 5, "velocity": 110}, {"time": 693, "pitch": 64, "duration": 4, "velocity": 102}, {"time": 697, "pitch": 67, "duration": 5, "velocity": 98}, {"time": 701, "pitch": 41, "duration": 7, "velocity": 88}, {"time": 701, "pitch": 53, "duration": 12, "velocity": 89}, {"time": 701, "pitch": 57, "duration": 8, "velocity": 91}, {"time": 701, "pitch": 60, "duration": 11, "velocity": 93}, {"time": 701, "pitch": 65, "duration": 11, "velocity": 102}, {"time": 713, "pitch": 43, "duration": 7, "velocity": 87}, {"time": 713, "pitch": 59, "duration": 8, "velocity": 91}, {"time": 713, "pitch": 62, "duration": 12, "velocity": 102}, {"time": 713, "pitch": 67, "duration": 8, "velocity": 92}, {"time": 725, "pitch": 48, "duration": 17, "velocity": 88}, {"time": 725, "pitch": 60, "duration": 4, "velocity": 88}, {"time": 725, "pitch": 64, "duration": 9, "velocity": 93}, {"time": 725, "pitch": 67, "duration": 9, "velocity": 94}, {"time": 729, "pitch": 55, "duration": 11, "velocity": 73}, {"time": 733, "pitch": 60, "duration": 7, "velocity": 86}, {"time": 737, "pitch": 62, "duration": 5, "velocity": 113}, {"time": 737, "pitch": 67, "duration": 5, "velocity": 116}, {"time": 741, "pitch": 64, "duration": 4, "velocity": 89}, {"time": 745, "pitch": 67, "duration": 3, "velocity": 85}, {"time": 749, "pitch": 41, "duration": 21, "velocity": 85}, {"time": 749, "pitch": 53, "duration": 14, "velocity": 86}, {"time": 749, "pitch": 60, "duration": 9, "velocity": 91}, {"time": 749, "pitch": 69, "duration": 9, "velocity": 91}, {"time": 761, "pitch": 60, "duration": 7, "velocity": 110}, {"time": 761, "pitch": 69, "duration": 8, "velocity": 104}, {"time": 765, "pitch": 53, "duration": 5, "velocity": 88}, {"time": 769, "pitch": 65, "duration": 8, "velocity": 93}, {"time": 773, "pitch": 50, "duration": 21, "velocity": 84}, {"time": 773, "pitch": 62, "duration": 8, "velocity": 92}, {"time": 773, "pitch": 65, "duration": 4, "velocity": 96}, {"time": 773, "pitch": 69, "duration": 7, "velocity": 91}, {"time": 785, "pitch": 62, "duration": 7, "velocity": 107}, {"time": 785, "pitch": 65, "duration": 7, "velocity": 113}, {"time": 785, "pitch": 69, "duration": 6, "velocity": 96}, {"time": 797, "pitch": 41, "duration": 6, "velocity": 88}, {"time": 797, "pitch": 60, "duration": 9, "velocity": 93}, {"time": 797, "pitch": 65, "duration": 9, "velocity": 98}, {"time": 797, "pitch": 69, "duration": 11, "velocity": 96}, {"time": 809, "pitch": 42, "duration": 7, "velocity": 93}, {"time": 809, "pitch": 62, "duration": 11, "velocity": 91}, {"time": 809, "pitch": 66, "duration": 11, "velocity": 109}, {"time": 809, "pitch": 69, "duration": 9, "velocity": 86}, {"time": 821, "pitch": 43, "duration": 20, "velocity": 89}, {"time": 821, "pitch": 59, "duration": 10, "velocity": 88}, {"time": 821, "pitch": 62, "duration": 10, "velocity": 110}, {"time": 821, "pitch": 67, "duration": 9, "velocity": 96}, {"time": 825, "pitch": 50, "duration": 16, "velocity": 82}, {"time": 829, "pitch": 55, "duration": 5, "velocity": 92}, {"time": 833, "pitch": 60, "duration": 6, "velocity": 113}, {"time": 833, "pitch": 67, "duration": 2, "velocity": 85}, {"time": 837, "pitch": 55, "duration": 4, "velocity": 107}, {"time": 841, "pitch": 62, "duration": 3, "velocity": 100}, {"time": 845, "pitch": 43, "duration": 13, "velocity": 90}, {"time": 845, "pitch": 55, "duration": 13, "velocity": 94}, {"time": 845, "pitch": 59, "duration": 12, "velocity": 98}, {"time": 845, "pitch": 62, "duration": 12, "velocity": 100}, {"time": 845, "pitch": 67, "duration": 13, "velocity": 100}, {"time": 869, "pitch": 48, "duration": 20, "velocity": 96}, {"time": 869, "pitch": 60, "duration": 6, "velocity": 93}, {"time": 869, "pitch": 64, "duration": 8, "velocity": 108}, {"time": 869, "pitch": 67, "duration": 8, "velocity": 98}, {"time": 877, "pitch": 55, "duration": 6, "velocity": 87}, {"time": 881, "pitch": 60, "duration": 7, "velocity": 104}, {"time": 881, "pitch": 64, "duration": 8, "velocity": 110}, {"time": 881, "pitch": 67, "duration": 6, "velocity": 107}, {"time": 885, "pitch": 55, "duration": 8, "velocity": 85}, {"time": 893, "pitch": 47, "duration": 23, "velocity": 87}, {"time": 893, "pitch": 62, "duration": 8, "velocity": 108}, {"time": 893, "pitch": 67, "duration": 7, "velocity": 104}, {"time": 901, "pitch": 55, "duration": 5, "velocity": 89}, {"time": 905, "pitch": 62, "duration": 6, "velocity": 119}, {"time": 905, "pitch": 67, "duration": 4, "velocity": 114}, {"time": 909, "pitch": 64, "duration": 4, "velocity": 88}, {"time": 913, "pitch": 67, "duration": 3, "velocity": 87}, {"time": 917, "pitch": 45, "duration": 14, "velocity": 86}, {"time": 917, "pitch": 60, "duration": 8, "velocity": 92}, {"time": 917, "pitch": 64, "duration": 8, "velocity": 102}, {"time": 917, "pitch": 67, "duration": 8, "velocity": 94}, {"time": 929, "pitch": 60, "duration": 6, "velocity": 107}, {"time": 929, "pitch": 64, "duration": 6, "velocity": 113}, {"time": 929, "pitch": 67, "duration": 4, "velocity": 104}, {"time": 933, "pitch": 45, "duration": 8, "velocity": 87}, {"time": 937, "pitch": 67, "duration": 11, "velocity": 102}, {"time": 941, "pitch": 43, "duration": 16, "velocity": 88}, {"time": 941, "pitch": 59, "duration": 7, "velocity": 91}, {"time": 941, "pitch": 64, "duration": 8, "velocity": 98}, {"time": 947, "pitch": 55, "duration": 6, "velocity": 91}, {"time": 953, "pitch": 59, "duration": 8, "velocity": 116}, {"time": 953, "pitch": 67, "duration": 8, "velocity": 108}, {"time": 957, "pitch": 55, "duration": 7, "velocity": 98}, {"time": 961, "pitch": 64, "duration": 4, "velocity": 96}, {"time": 965, "pitch": 53, "duration": 19, "velocity": 88}, {"time": 965, "pitch": 60, "duration": 4, "velocity": 94}, {"time": 965, "pitch": 69, "duration": 8, "velocity": 104}, {"time": 973, "pitch": 60, "duration": 5, "velocity": 87}, {"time": 977, "pitch": 65, "duration": 7, "velocity": 114}, {"time": 977, "pitch": 74, "duration": 6, "velocity": 107}, {"time": 981, "pitch": 60, "duration": 8, "velocity": 88}, {"time": 985, "pitch": 69, "duration": 3, "velocity": 94}, {"time": 989, "pitch": 52, "duration": 18, "velocity": 88}, {"time": 989, "pitch": 67, "duration": 9, "velocity": 92}, {"time": 989, "pitch": 71, "duration": 8, "velocity": 108}, {"time": 997, "pitch": 60, "duration": 8, "velocity": 86}, {"time": 1001, "pitch": 64, "duration": 4, "velocity": 110}, {"time": 1005, "pitch": 67, "duration": 4, "velocity": 102}, {"time": 1009, "pitch": 71, "duration": 4, "velocity": 84}, {"time": 1013, "pitch": 50, "duration": 17, "velocity": 86}, {"time": 1013, "pitch": 62, "duration": 7, "velocity": 90}, {"time": 1013, "pitch": 65, "duration": 7, "velocity": 94}, {"time": 1013, "pitch": 69, "duration": 7, "velocity": 104}, {"time": 1025, "pitch": 62, "duration": 5, "velocity": 113}, {"time": 1025, "pitch": 65, "duration": 5, "velocity": 116}, {"time": 1025, "pitch": 69, "duration": 5, "velocity": 107}, {"time": 1029, "pitch": 54, "duration": 3, "velocity": 103}, {"time": 1033, "pitch": 66, "duration": 5, "velocity": 109}, {"time": 1037, "pitch": 43, "duration": 19, "velocity": 94}, {"time": 1041, "pitch": 50, "duration": 15, "velocity": 87}, {"time": 1043, "pitch": 55, "duration": 6, "velocity": 104}, {"time": 1045, "pitch": 59, "duration": 2, "velocity": 93}, {"time": 1045, "pitch": 62, "duration": 1, "velocity": 104}, {"time": 1047, "pitch": 62, "duration": 5, "velocity": 93}, {"time": 1049, "pitch": 67, "duration": 5, "velocity": 119}, {"time": 1053, "pitch": 55, "duration": 8, "velocity": 113}, {"time": 1057, "pitch": 62, "duration": 1, "velocity": 92}, {"time": 1061, "pitch": 48, "duration": 19, "velocity": 91}, {"time": 1061, "pitch": 64, "duration": 10, "velocity": 102}, {"time": 1061, "pitch": 72, "duration": 7, "velocity": 104}, {"time": 1069, "pitch": 55, "duration": 17, "velocity": 79}, {"time": 1073, "pitch": 62, "duration": 6, "velocity": 107}, {"time": 1073, "pitch": 67, "duration": 4, "velocity": 102}, {"time": 1077, "pitch": 64, "duration": 5, "velocity": 81}, {"time": 1081, "pitch": 67, "duration": 2, "velocity": 80}, {"time": 1085, "pitch": 47, "duration": 19, "velocity": 85}, {"time": 1085, "pitch": 62, "duration": 9, "velocity": 94}, {"time": 1085, "pitch": 69, "duration": 4, "velocity": 88}, {"time": 1085, "pitch": 71, "duration": 7, "velocity": 90}, {"time": 1093, "pitch": 55, "duration": 9, "velocity": 88}, {"time": 1097, "pitch": 62, "duration": 8, "velocity": 113}, {"time": 1097, "pitch": 67, "duration": 6, "velocity": 114}, {"time": 1105, "pitch": 64, "duration": 3, "velocity": 87}, {"time": 1109, "pitch": 45, "duration": 19, "velocity": 88}, {"time": 1109, "pitch": 60, "duration": 13, "velocity": 98}, {"time": 1109, "pitch": 64, "duration": 14, "velocity": 89}, {"time": 1109, "pitch": 69, "duration": 13, "velocity": 94}, {"time": 1117, "pitch": 52, "duration": 17, "velocity": 85}, {"time": 1121, "pitch": 57, "duration": 5, "velocity": 110}, {"time": 1125, "pitch": 60, "duration": 3, "velocity": 92}, {"time": 1129, "pitch": 64, "duration": 3, "velocity": 96}, {"time": 1133, "pitch": 43, "duration": 16, "velocity": 84}, {"time": 1133, "pitch": 62, "duration": 13, "velocity": 94}, {"time": 1133, "pitch": 67, "duration": 12, "velocity": 98}, {"time": 1139, "pitch": 52, "duration": 9, "velocity": 81}, {"time": 1145, "pitch": 55, "duration": 6, "velocity": 92}, {"time": 1149, "pitch": 62, "duration": 3, "velocity": 108}, {"time": 1153, "pitch": 64, "duration": 4, "velocity": 98}, {"time": 1157, "pitch": 53, "duration": 13, "velocity": 85}, {"time": 1157, "pitch": 60, "duration": 10, "velocity": 90}, {"time": 1157, "pitch": 65, "duration": 10, "velocity": 92}, {"time": 1169, "pitch": 60, "duration": 6, "velocity": 107}, {"time": 1169, "pitch": 65, "duration": 6, "velocity": 102}, {"time": 1169, "pitch": 66, "duration": 1, "velocity": 95}, {"time": 1173, "pitch": 53, "duration": 7, "velocity": 104}, {"time": 1177, "pitch": 60, "duration": 1, "velocity": 83}, {"time": 1177, "pitch": 65, "duration": 3, "velocity": 94}, {"time": 1181, "pitch": 52, "duration": 7, "velocity": 85}, {"time": 1181, "pitch": 59, "duration": 9, "velocity": 86}, {"time": 1181, "pitch": 64, "duration": 9, "velocity": 88}, {"time": 1181, "pitch": 67, "duration": 9, "velocity": 86}, {"time": 1189, "pitch": 52, "duration": 5, "velocity": 91}, {"time": 1193, "pitch": 59, "duration": 4, "velocity": 108}, {"time": 1193, "pitch": 64, "duration": 5, "velocity": 110}, {"time": 1193, "pitch": 67, "duration": 5, "velocity": 102}, {"time": 1197, "pitch": 52, "duration": 7, "velocity": 110}, {"time": 1201, "pitch": 64, "duration": 4, "velocity": 98}, {"time": 1201, "pitch": 67, "duration": 3, "velocity": 100}, {"time": 1205, "pitch": 50, "duration": 7, "velocity": 90}, {"time": 1205, "pitch": 62, "duration": 7, "velocity": 91}, {"time": 1205, "pitch": 65, "duration": 7, "velocity": 96}, {"time": 1205, "pitch": 69, "duration": 7, "velocity": 93}, {"time": 1217, "pitch": 43, "duration": 5, "velocity": 88}, {"time": 1217, "pitch": 59, "duration": 8, "velocity": 92}, {"time": 1217, "pitch": 62, "duration": 12, "velocity": 108}, {"time": 1217, "pitch": 67, "duration": 6, "velocity": 93}, {"time": 1225, "pitch": 67, "duration": 17, "velocity": 90}, {"time": 1229, "pitch": 48, "duration": 31, "velocity": 88}, {"time": 1229, "pitch": 60, "duration": 2, "velocity": 86}, {"time": 1229, "pitch": 64, "duration": 13, "velocity": 88}, {"time": 1237, "pitch": 55, "duration": 23, "velocity": 70}, {"time": 1241, "pitch": 60, "duration": 18, "velocity": 94}, {"time": 1245, "pitch": 65, "duration": 3, "velocity": 104}, {"time": 1249, "pitch": 67, "duration": 11, "velocity": 89}, {"time": 1253, "pitch": 64, "duration": 7, "velocity": 90}, {"time": 1277, "pitch": 53, "duration": 41, "velocity": 87}, {"time": 1277, "pitch": 60, "duration": 4, "velocity": 88}, {"time": 1277, "pitch": 69, "duration": 8, "velocity": 91}, {"time": 1285, "pitch": 60, "duration": 21, "velocity": 83}, {"time": 1289, "pitch": 65, "duration": 10, "velocity": 91}, {"time": 1297, "pitch": 69, "duration": 4, "velocity": 81}, {"time": 1301, "pitch": 65, "duration": 11, "velocity": 87}, {"time": 1301, "pitch": 72, "duration": 10, "velocity": 88}, {"time": 1309, "pitch": 60, "duration": 11, "velocity": 83}, {"time": 1313, "pitch": 69, "duration": 4, "velocity": 107}, {"time": 1317, "pitch": 72, "duration": 8, "velocity": 100}, {"time": 1325, "pitch": 52, "duration": 24, "velocity": 83}, {"time": 1325, "pitch": 64, "duration": 9, "velocity": 88}, {"time": 1325, "pitch": 71, "duration": 10, "velocity": 91}, {"time": 1337, "pitch": 64, "duration": 7, "velocity": 104}, {"time": 1337, "pitch": 71, "duration": 11, "velocity": 96}, {"time": 1349, "pitch": 57, "duration": 12, "velocity": 84}, {"time": 1349, "pitch": 60, "duration": 8, "velocity": 87}, {"time": 1349, "pitch": 64, "duration": 9, "velocity": 88}, {"time": 1349, "pitch": 69, "duration": 8, "velocity": 88}, {"time": 1361, "pitch": 64, "duration": 6, "velocity": 116}, {"time": 1361, "pitch": 69, "duration": 6, "velocity": 110}, {"time": 1365, "pitch": 57, "duration": 8, "velocity": 104}, {"time": 1369, "pitch": 64, "duration": 4, "velocity": 88}, {"time": 1369, "pitch": 69, "duration": 11, "velocity": 104}, {"time": 1373, "pitch": 50, "duration": 13, "velocity": 87}, {"time": 1373, "pitch": 62, "duration": 8, "velocity": 93}, {"time": 1373, "pitch": 65, "duration": 8, "velocity": 91}, {"time": 1385, "pitch": 62, "duration": 7, "velocity": 108}, {"time": 1385, "pitch": 69, "duration": 9, "velocity": 102}, {"time": 1389, "pitch": 50, "duration": 8, "velocity": 100}, {"time": 1393, "pitch": 64, "duration": 1, "velocity": 87}, {"time": 1397, "pitch": 41, "duration": 11, "velocity": 87}, {"time": 1397, "pitch": 60, "duration": 10, "velocity": 107}, {"time": 1397, "pitch": 65, "duration": 10, "velocity": 100}, {"time": 1409, "pitch": 42, "duration": 7, "velocity": 84}, {"time": 1409, "pitch": 62, "duration": 11, "velocity": 93}, {"time": 1409, "pitch": 66, "duration": 11, "velocity": 113}, {"time": 1421, "pitch": 43, "duration": 20, "velocity": 87}, {"time": 1421, "pitch": 59, "duration": 13, "velocity": 107}, {"time": 1421, "pitch": 67, "duration": 14, "velocity": 107}, {"time": 1429, "pitch": 50, "duration": 15, "velocity": 79}, {"time": 1433, "pitch": 55, "duration": 9, "velocity": 102}, {"time": 1437, "pitch": 60, "duration": 8, "velocity": 93}, {"time": 1441, "pitch": 62, "duration": 18, "velocity": 87}, {"time": 1445, "pitch": 43, "duration": 16, "velocity": 87}, {"time": 1445, "pitch": 55, "duration": 8, "velocity": 87}, {"time": 1445, "pitch": 59, "duration": 13, "velocity": 91}, {"time": 1445, "pitch": 67, "duration": 13, "velocity": 89}, {"time": 1469, "pitch": 48, "duration": 18, "velocity": 82}, {"time": 1469, "pitch": 60, "duration": 7, "velocity": 89}, {"time": 1469, "pitch": 64, "duration": 10, "velocity": 88}, {"time": 1477, "pitch": 55, "duration": 17, "velocity": 69}, {"time": 1481, "pitch": 60, "duration": 4, "velocity": 87}, {"time": 1485, "pitch": 62, "duration": 4, "velocity": 87}, {"time": 1489, "pitch": 67, "duration": 6, "velocity": 88}, {"time": 1493, "pitch": 47, "duration": 24, "velocity": 77}, {"time": 1493, "pitch": 64, "duration": 8, "velocity": 87}, {"time": 1501, "pitch": 55, "duration": 6, "velocity": 81}, {"time": 1505, "pitch": 62, "duration": 4, "velocity": 88}, {"time": 1509, "pitch": 64, "duration": 4, "velocity": 84}, {"time": 1513, "pitch": 67, "duration": 4, "velocity": 76}, {"time": 1517, "pitch": 45, "duration": 24, "velocity": 81}, {"time": 1517, "pitch": 60, "duration": 9, "velocity": 84}, {"time": 1517, "pitch": 67, "duration": 9, "velocity": 81}, {"time": 1529, "pitch": 60, "duration": 7, "velocity": 90}, {"time": 1529, "pitch": 67, "duration": 11, "velocity": 89}, {"time": 1541, "pitch": 43, "duration": 17, "velocity": 81}, {"time": 1541, "pitch": 59, "duration": 8, "velocity": 84}, {"time": 1541, "pitch": 67, "duration": 10, "velocity": 82}, {"time": 1549, "pitch": 64, "duration": 8, "velocity": 87}, {"time": 1553, "pitch": 55, "duration": 6, "velocity": 102}, {"time": 1557, "pitch": 67, "duration": 8, "velocity": 100}, {"time": 1565, "pitch": 53, "duration": 24, "velocity": 83}, {"time": 1565, "pitch": 57, "duration": 10, "velocity": 85}, {"time": 1565, "pitch": 65, "duration": 9, "velocity": 86}, {"time": 1577, "pitch": 57, "duration": 6, "velocity": 91}, {"time": 1577, "pitch": 65, "duration": 11, "velocity": 88}, {"time": 1589, "pitch": 52, "duration": 12, "velocity": 84}, {"time": 1589, "pitch": 59, "duration": 7, "velocity": 88}, {"time": 1589, "pitch": 67, "duration": 11, "velocity": 91}, {"time": 1601, "pitch": 57, "duration": 12, "velocity": 84}, {"time": 1601, "pitch": 60, "duration": 9, "velocity": 88}, {"time": 1601, "pitch": 69, "duration": 13, "velocity": 93}, {"time": 1613, "pitch": 50, "duration": 9, "velocity": 84}, {"time": 1613, "pitch": 62, "duration": 12, "velocity": 84}, {"time": 1613, "pitch": 65, "duration": 11, "velocity": 91}, {"time": 1625, "pitch": 43, "duration": 7, "velocity": 86}, {"time": 1625, "pitch": 59, "duration": 10, "velocity": 87}, {"time": 1625, "pitch": 67, "duration": 12, "velocity": 87}, {"time": 1637, "pitch": 48, "duration": 20, "velocity": 84}, {"time": 1637, "pitch": 60, "duration": 4, "velocity": 83}, {"time": 1637, "pitch": 64, "duration": 9, "velocity": 82}, {"time": 1641, "pitch": 55, "duration": 15, "velocity": 64}, {"time": 1645, "pitch": 60, "duration": 5, "velocity": 86}, {"time": 1649, "pitch": 62, "duration": 7, "velocity": 98}, {"time": 1649, "pitch": 67, "duration": 7, "velocity": 104}, {"time": 1653, "pitch": 60, "duration": 2, "velocity": 91}, {"time": 1657, "pitch": 64, "duration": 4, "velocity": 86}, {"time": 1661, "pitch": 45, "duration": 19, "velocity": 85}, {"time": 1661, "pitch": 60, "duration": 8, "velocity": 89}, {"time": 1661, "pitch": 69, "duration": 8, "velocity": 88}, {"time": 1669, "pitch": 57, "duration": 5, "velocity": 87}, {"time": 1673, "pitch": 60, "duration": 8, "velocity": 108}, {"time": 1673, "pitch": 69, "duration": 11, "velocity": 107}, {"time": 1677, "pitch": 57, "duration": 2, "velocity": 85}, {"time": 1685, "pitch": 40, "duration": 17, "velocity": 87}, {"time": 1685, "pitch": 59, "duration": 7, "velocity": 81}, {"time": 1685, "pitch": 60, "duration": 2, "velocity": 80}, {"time": 1685, "pitch": 67, "duration": 8, "velocity": 87}, {"time": 1693, "pitch": 52, "duration": 11, "velocity": 85}, {"time": 1697, "pitch": 59, "duration": 5, "velocity": 116}, {"time": 1697, "pitch": 67, "duration": 5, "velocity": 110}, {"time": 1701, "pitch": 64, "duration": 4, "velocity": 102}, {"time": 1705, "pitch": 67, "duration": 5, "velocity": 98}, {"time": 1709, "pitch": 41, "duration": 7, "velocity": 88}, {"time": 1709, "pitch": 53, "duration": 12, "velocity": 89}, {"time": 1709, "pitch": 57, "duration": 8, "velocity": 91}, {"time": 1709, "pitch": 60, "duration": 11, "velocity": 93}, {"time": 1709, "pitch": 65, "duration": 11, "velocity": 102}, {"time": 1721, "pitch": 43, "duration": 7, "velocity": 87}, {"time": 1721, "pitch": 59, "duration": 8, "velocity": 91}, {"time": 1721, "pitch": 62, "duration": 12, "velocity": 102}, {"time": 1721, "pitch": 67, "duration": 8, "velocity": 92}, {"time": 1733, "pitch": 48, "duration": 17, "velocity": 88}, {"time": 1733, "pitch": 60, "duration": 4, "velocity": 88}, {"time": 1733, "pitch": 64, "duration": 9, "velocity": 93}, {"time": 1733, "pitch": 67, "duration": 9, "velocity": 94}, {"time": 1737, "pitch": 55, "duration": 11, "velocity": 73}, {"time": 1741, "pitch": 60, "duration": 7, "velocity": 86}, {"time": 1745, "pitch": 62, "duration": 5, "velocity": 113}, {"time": 1745, "pitch": 67, "duration": 5, "velocity": 116}, {"time": 1749, "pitch": 64, "duration": 4, "velocity": 89}, {"time": 1753, "pitch": 67, "duration": 3, "velocity": 85}, {"time": 1757, "pitch": 41, "duration": 21, "velocity": 85}, {"time": 1757, "pitch": 53, "duration": 14, "velocity": 86}, {"time": 1757, "pitch": 60, "duration": 9, "velocity": 91}, {"time": 1757, "pitch": 69, "duration": 9, "velocity": 91}, {"time": 1769, "pitch": 60, "duration": 7, "velocity": 110}, {"time": 1769, "pitch": 69, "duration": 8, "velocity": 104}, {"time": 1773, "pitch": 53, "duration": 5, "velocity": 88}, {"time": 1777, "pitch": 65, "duration": 8, "velocity": 93}, {"time": 1781, "pitch": 50, "duration": 21, "velocity": 84}, {"time": 1781, "pitch": 62, "duration": 8, "velocity": 92}, {"time": 1781, "pitch": 65, "duration": 4, "velocity": 96}, {"time": 1781, "pitch": 69, "duration": 7, "velocity": 91}, {"time": 1793, "pitch": 62, "duration": 7, "velocity": 107}, {"time": 1793, "pitch": 65, "duration": 7, "velocity": 113}, {"time": 1793, "pitch": 69, "duration": 6, "velocity": 96}, {"time": 1805, "pitch": 41, "duration": 6, "velocity": 88}, {"time": 1805, "pitch": 60, "duration": 9, "velocity": 93}, {"time": 1805, "pitch": 65, "duration": 9, "velocity": 98}, {"time": 1805, "pitch": 69, "duration": 11, "velocity": 96}, {"time": 1817, "pitch": 42, "duration": 7, "velocity": 93}, {"time": 1817, "pitch": 62, "duration": 11, "velocity": 91}, {"time": 1817, "pitch": 66, "duration": 11, "velocity": 109}, {"time": 1817, "pitch": 69, "duration": 9, "velocity": 86}, {"time": 1829, "pitch": 43, "duration": 20, "velocity": 89}, {"time": 1829, "pitch": 59, "duration": 10, "velocity": 88}, {"time": 1829, "pitch": 62, "duration": 10, "velocity": 110}, {"time": 1829, "pitch": 67, "duration": 9, "velocity": 96}, {"time": 1833, "pitch": 50, "duration": 16, "velocity": 82}, {"time": 1837, "pitch": 55, "duration": 5, "velocity": 92}, {"time": 1841, "pitch": 60, "duration": 6, "velocity": 113}, {"time": 1841, "pitch": 67, "duration": 2, "velocity": 85}, {"time": 1845, "pitch": 55, "duration": 4, "velocity": 107}, {"time": 1849, "pitch": 62, "duration": 3, "velocity": 100}, {"time": 1853, "pitch": 43, "duration": 13, "velocity": 90}, {"time": 1853, "pitch": 55, "duration": 13, "velocity": 94}, {"time": 1853, "pitch": 59, "duration": 12, "velocity": 98}, {"time": 1853, "pitch": 62, "duration": 12, "velocity": 100}, {"time": 1853, "pitch": 67, "duration": 13, "velocity": 100}, {"time": 1877, "pitch": 48, "duration": 20, "velocity": 96}, {"time": 1877, "pitch": 60, "duration": 6, "velocity": 93}, {"time": 1877, "pitch": 64, "duration": 8, "velocity": 108}, {"time": 1877, "pitch": 67, "duration": 8, "velocity": 98}, {"time": 1885, "pitch": 55, "duration": 6, "velocity": 87}, {"time": 1889, "pitch": 60, "duration": 7, "velocity": 104}, {"time": 1889, "pitch": 64, "duration": 8, "velocity": 110}, {"time": 1889, "pitch": 67, "duration": 6, "velocity": 107}, {"time": 1893, "pitch": 55, "duration": 8, "velocity": 85}, {"time": 1901, "pitch": 47, "duration": 23, "velocity": 87}, {"time": 1901, "pitch": 62, "duration": 8, "velocity": 108}, {"time": 1901, "pitch": 67, "duration": 7, "velocity": 104}, {"time": 1909, "pitch": 55, "duration": 5, "velocity": 89}, {"time": 1913, "pitch": 62, "duration": 6, "velocity": 119}, {"time": 1913, "pitch": 67, "duration": 4, "velocity": 114}, {"time": 1917, "pitch": 64, "duration": 4, "velocity": 88}, {"time": 1921, "pitch": 67, "duration": 3, "velocity": 87}, {"time": 1925, "pitch": 45, "duration": 14, "velocity": 86}, {"time": 1925, "pitch": 60, "duration": 8, "velocity": 92}, {"time": 1925, "pitch": 64, "duration": 8, "velocity": 102}, {"time": 1925, "pitch": 67, "duration": 8, "velocity": 94}, {"time": 1937, "pitch": 60, "duration": 6, "velocity": 107}, {"time": 1937, "pitch": 64, "duration": 6, "velocity": 113}, {"time": 1937, "pitch": 67, "duration": 4, "velocity": 104}, {"time": 1941, "pitch": 45, "duration": 8, "velocity": 87}, {"time": 1945, "pitch": 67, "duration": 11, "velocity": 102}, {"time": 1949, "pitch": 43, "duration": 16, "velocity": 88}, {"time": 1949, "pitch": 59, "duration": 7, "velocity": 91}, {"time": 1949, "pitch": 64, "duration": 8, "velocity": 98}, {"time": 1955, "pitch": 55, "duration": 6, "velocity": 91}, {"time": 1961, "pitch": 59, "duration": 8, "velocity": 116}, {"time": 1961, "pitch": 67, "duration": 8, "velocity": 108}, {"time": 1965, "pitch": 55, "duration": 7, "velocity": 98}, {"time": 1969, "pitch": 64, "duration": 4, "velocity": 96}, {"time": 1973, "pitch": 53, "duration": 19, "velocity": 88}, {"time": 1973, "pitch": 60, "duration": 4, "velocity": 94}, {"time": 1973, "pitch": 69, "duration": 8, "velocity": 104}, {"time": 1981, "pitch": 60, "duration": 5, "velocity": 87}, {"time": 1985, "pitch": 65, "duration": 7, "velocity": 114}, {"time": 1985, "pitch": 74, "duration": 6, "velocity": 107}, {"time": 1989, "pitch": 60, "duration": 8, "velocity": 88}, {"time": 1993, "pitch": 69, "duration": 3, "velocity": 94}, {"time": 1997, "pitch": 52, "duration": 18, "velocity": 88}, {"time": 1997, "pitch": 67, "duration": 9, "velocity": 92}, {"time": 1997, "pitch": 71, "duration": 8, "velocity": 108}, {"time": 2005, "pitch": 60, "duration": 8, "velocity": 86}, {"time": 2009, "pitch": 64, "duration": 4, "velocity": 110}, {"time": 2013, "pitch": 67, "duration": 4, "velocity": 102}, {"time": 2017, "pitch": 71, "duration": 4, "velocity": 84}, {"time": 2021, "pitch": 50, "duration": 17, "velocity": 86}, {"time": 2021, "pitch": 62, "duration": 7, "velocity": 90}, {"time": 2021, "pitch": 65, "duration": 7, "velocity": 94}, {"time": 2021, "pitch": 69, "duration": 7, "velocity": 104}, {"time": 2033, "pitch": 62, "duration": 5, "velocity": 113}, {"time": 2033, "pitch": 65, "duration": 5, "velocity": 116}, {"time": 2033, "pitch": 69, "duration": 5, "velocity": 107}, {"time": 2037, "pitch": 54, "duration": 3, "velocity": 103}, {"time": 2041, "pitch": 66, "duration": 5, "velocity": 109}, {"time": 2045, "pitch": 43, "duration": 19, "velocity": 94}, {"time": 2049, "pitch": 50, "duration": 15, "velocity": 87}, {"time": 2051, "pitch": 55, "duration": 6, "velocity": 104}, {"time": 2053, "pitch": 59, "duration": 2, "velocity": 93}, {"time": 2053, "pitch": 62, "duration": 1, "velocity": 104}, {"time": 2055, "pitch": 62, "duration": 5, "velocity": 93}, {"time": 2057, "pitch": 67, "duration": 5, "velocity": 119}, {"time": 2061, "pitch": 55, "duration": 8, "velocity": 113}, {"time": 2065, "pitch": 62, "duration": 1, "velocity": 92}, {"time": 2069, "pitch": 48, "duration": 19, "velocity": 91}, {"time": 2069, "pitch": 64, "duration": 10, "velocity": 102}, {"time": 2069, "pitch": 72, "duration": 7, "velocity": 104}, {"time": 2077, "pitch": 55, "duration": 17, "velocity": 79}, {"time": 2081, "pitch": 62, "duration": 6, "velocity": 107}, {"time": 2081, "pitch": 67, "duration": 4, "velocity": 102}, {"time": 2085, "pitch": 64, "duration": 5, "velocity": 81}, {"time": 2089, "pitch": 67, "duration": 2, "velocity": 80}, {"time": 2093, "pitch": 47, "duration": 19, "velocity": 85}, {"time": 2093, "pitch": 62, "duration": 9, "velocity": 94}, {"time": 2093, "pitch": 69, "duration": 4, "velocity": 88}, {"time": 2093, "pitch": 71, "duration": 7, "velocity": 90}, {"time": 2101, "pitch": 55, "duration": 9, "velocity": 88}, {"time": 2105, "pitch": 62, "duration": 8, "velocity": 113}, {"time": 2105, "pitch": 67, "duration": 6, "velocity": 114}, {"time": 2113, "pitch": 64, "duration": 3, "velocity": 87}, {"time": 2117, "pitch": 45, "duration": 19, "velocity": 88}, {"time": 2117, "pitch": 60, "duration": 13, "velocity": 98}, {"time": 2117, "pitch": 64, "duration": 14, "velocity": 89}, {"time": 2117, "pitch": 69, "duration": 13, "velocity": 94}, {"time": 2125, "pitch": 52, "duration": 17, "velocity": 85}, {"time": 2129, "pitch": 57, "duration": 5, "velocity": 110}, {"time": 2133, "pitch": 60, "duration": 3, "velocity": 92}, {"time": 2137, "pitch": 64, "duration": 3, "velocity": 96}, {"time": 2141, "pitch": 43, "duration": 16, "velocity": 84}, {"time": 2141, "pitch": 62, "duration": 13, "velocity": 94}, {"time": 2141, "pitch": 67, "duration": 12, "velocity": 98}, {"time": 2147, "pitch": 52, "duration": 9, "velocity": 81}, {"time": 2153, "pitch": 55, "duration": 6, "velocity": 92}, {"time": 2157, "pitch": 62, "duration": 3, "velocity": 108}, {"time": 2161, "pitch": 64, "duration": 4, "velocity": 98}, {"time": 2165, "pitch": 53, "duration": 13, "velocity": 85}, {"time": 2165, "pitch": 60, "duration": 10, "velocity": 90}, {"time": 2165, "pitch": 65, "duration": 10, "velocity": 92}, {"time": 2177, "pitch": 60, "duration": 6, "velocity": 107}, {"time": 2177, "pitch": 65, "duration": 6, "velocity": 102}, {"time": 2177, "pitch": 66, "duration": 1, "velocity": 95}, {"time": 2181, "pitch": 53, "duration": 7, "velocity": 104}, {"time": 2185, "pitch": 60, "duration": 1, "velocity": 83}, {"time": 2185, "pitch": 65, "duration": 3, "velocity": 94}, {"time": 2189, "pitch": 52, "duration": 7, "velocity": 85}, {"time": 2189, "pitch": 59, "duration": 9, "velocity": 86}, {"time": 2189, "pitch": 64, "duration": 9, "velocity": 88}, {"time": 2189, "pitch": 67, "duration": 9, "velocity": 86}, {"time": 2197, "pitch": 52, "duration": 5, "velocity": 91}, {"time": 2201, "pitch": 59, "duration": 4, "velocity": 108}, {"time": 2201, "pitch": 64, "duration": 5, "velocity": 110}, {"time": 2201, "pitch": 67, "duration": 5, "velocity": 102}, {"time": 2205, "pitch": 52, "duration": 7, "velocity": 110}, {"time": 2209, "pitch": 64, "duration": 4, "velocity": 98}, {"time": 2209, "pitch": 67, "duration": 3, "velocity": 100}, {"time": 2213, "pitch": 50, "duration": 7, "velocity": 90}, {"time": 2213, "pitch": 62, "duration": 7, "velocity": 91}, {"time": 2213, "pitch": 65, "duration": 7, "velocity": 96}, {"time": 2213, "pitch": 69, "duration": 7, "velocity": 93}, {"time": 2225, "pitch": 43, "duration": 5, "velocity": 88}, {"time": 2225, "pitch": 59, "duration": 8, "velocity": 92}, {"time": 2225, "pitch": 62, "duration": 12, "velocity": 108}, {"time": 2225, "pitch": 67, "duration": 6, "velocity": 93}, {"time": 2233, "pitch": 67, "duration": 17, "velocity": 90}, {"time": 2237, "pitch": 48, "duration": 31, "velocity": 88}, {"time": 2237, "pitch": 60, "duration": 2, "velocity": 86}, {"time": 2237, "pitch": 64, "duration": 13, "velocity": 88}, {"time": 2245, "pitch": 55, "duration": 23, "velocity": 70}, {"time": 2249, "pitch": 60, "duration": 18, "velocity": 94}, {"time": 2253, "pitch": 65, "duration": 3, "velocity": 104}, {"time": 2257, "pitch": 67, "duration": 11, "velocity": 89}, {"time": 2261, "pitch": 64, "duration": 7, "velocity": 90}, {"time": 2285, "pitch": 53, "duration": 41, "velocity": 87}, {"time": 2285, "pitch": 60, "duration": 4, "velocity": 88}, {"time": 2285, "pitch": 69, "duration": 8, "velocity": 91}, {"time": 2293, "pitch": 60, "duration": 21, "velocity": 83}, {"time": 2297, "pitch": 65, "duration": 10, "velocity": 91}, {"time": 2305, "pitch": 69, "duration": 4, "velocity": 81}, {"time": 2309, "pitch": 65, "duration": 11, "velocity": 87}, {"time": 2309, "pitch": 72, "duration": 10, "velocity": 88}, {"time": 2317, "pitch": 60, "duration": 11, "velocity": 83}, {"time": 2321, "pitch": 69, "duration": 4, "velocity": 107}, {"time": 2325, "pitch": 72, "duration": 8, "velocity": 100}, {"time": 2333, "pitch": 52, "duration": 24, "velocity": 83}, {"time": 2333, "pitch": 64, "duration": 9, "velocity": 88}, {"time": 2333, "pitch": 71, "duration": 10, "velocity": 91}, {"time": 2345, "pitch": 64, "duration": 7, "velocity": 104}, {"time": 2345, "pitch": 71, "duration": 11, "velocity": 96}, {"time": 2357, "pitch": 57, "duration": 12, "velocity": 84}, {"time": 2357, "pitch": 60, "duration": 8, "velocity": 87}, {"time": 2357, "pitch": 64, "duration": 9, "velocity": 88}, {"time": 2357, "pitch": 69, "duration": 8, "velocity": 88}, {"time": 2369, "pitch": 64, "duration": 6, "velocity": 116}, {"time": 2369, "pitch": 69, "duration": 6, "velocity": 110}, {"time": 2373, "pitch": 57, "duration": 8, "velocity": 104}, {"time": 2377, "pitch": 64, "duration": 4, "velocity": 88}, {"time": 2377, "pitch": 69, "duration": 11, "velocity": 104}, {"time": 2381, "pitch": 50, "duration": 13, "velocity": 87}, {"time": 2381, "pitch": 62, "duration": 8, "velocity": 93}, {"time": 2381, "pitch": 65, "duration": 8, "velocity": 91}, {"time": 2393, "pitch": 62, "duration": 7, "velocity": 108}, {"time": 2393, "pitch": 69, "duration": 9, "velocity": 102}, {"time": 2397, "pitch": 50, "duration": 8, "velocity": 100}, {"time": 2401, "pitch": 64, "duration": 1, "velocity": 87}, {"time": 2405, "pitch": 41, "duration": 11, "velocity": 87}, {"time": 2405, "pitch": 60, "duration": 10, "velocity": 107}, {"time": 2405, "pitch": 65, "duration": 10, "velocity": 100}, {"time": 2417, "pitch": 42, "duration": 7, "velocity": 84}, {"time": 2417, "pitch": 62, "duration": 11, "velocity": 93}, {"time": 2417, "pitch": 66, "duration": 11, "velocity": 113}, {"time": 2429, "pitch": 43, "duration": 20, "velocity": 87}, {"time": 2429, "pitch": 59, "duration": 13, "velocity": 107}, {"time": 2429, "pitch": 67, "duration": 14, "velocity": 107}, {"time": 2437, "pitch": 50, "duration": 15, "velocity": 79}, {"time": 2441, "pitch": 55, "duration": 9, "velocity": 102}, {"time": 2445, "pitch": 60, "duration": 8, "velocity": 93}, {"time": 2449, "pitch": 62, "duration": 18, "velocity": 87}, {"time": 2453, "pitch": 43, "duration": 16, "velocity": 87}, {"time": 2453, "pitch": 55, "duration": 8, "velocity": 87}, {"time": 2453, "pitch": 59, "duration": 13, "velocity": 91}, {"time": 2453, "pitch": 67, "duration": 13, "velocity": 89}, {"time": 2477, "pitch": 49, "duration": 20, "velocity": 96}, {"time": 2477, "pitch": 61, "duration": 6, "velocity": 93}, {"time": 2477, "pitch": 65, "duration": 8, "velocity": 108}, {"time": 2477, "pitch": 68, "duration": 8, "velocity": 98}, {"time": 2485, "pitch": 56, "duration": 6, "velocity": 87}, {"time": 2489, "pitch": 61, "duration": 7, "velocity": 104}, {"time": 2489, "pitch": 65, "duration": 8, "velocity": 110}, {"time": 2489, "pitch": 68, "duration": 6, "velocity": 107}, {"time": 2493, "pitch": 56, "duration": 8, "velocity": 85}, {"time": 2501, "pitch": 48, "duration": 23, "velocity": 87}, {"time": 2501, "pitch": 63, "duration": 8, "velocity": 108}, {"time": 2501, "pitch": 68, "duration": 7, "velocity": 104}, {"time": 2509, "pitch": 56, "duration": 5, "velocity": 89}, {"time": 2513, "pitch": 63, "duration": 6, "velocity": 119}, {"time": 2513, "pitch": 68, "duration": 4, "velocity": 114}, {"time": 2517, "pitch": 65, "duration": 4, "velocity": 88}, {"time": 2521, "pitch": 68, "duration": 3, "velocity": 87}, {"time": 2525, "pitch": 46, "duration": 14, "velocity": 86}, {"time": 2525, "pitch": 61, "duration": 8, "velocity": 92}, {"time": 2525, "pitch": 65, "duration": 8, "velocity": 102}, {"time": 2525, "pitch": 68, "duration": 8, "velocity": 94}, {"time": 2537, "pitch": 61, "duration": 6, "velocity": 107}, {"time": 2537, "pitch": 65, "duration": 6, "velocity": 113}, {"time": 2537, "pitch": 68, "duration": 4, "velocity": 104}, {"time": 2541, "pitch": 46, "duration": 8, "velocity": 87}, {"time": 2545, "pitch": 68, "duration": 11, "velocity": 102}, {"time": 2549, "pitch": 44, "duration": 16, "velocity": 88}, {"time": 2549, "pitch": 60, "duration": 7, "velocity": 91}, {"time": 2549, "pitch": 65, "duration": 8, "velocity": 98}, {"time": 2555, "pitch": 56, "duration": 6, "velocity": 91}, {"time": 2561, "pitch": 60, "duration": 8, "velocity": 116}, {"time": 2561, "pitch": 68, "duration": 8, "velocity": 108}, {"time": 2565, "pitch": 56, "duration": 7, "velocity": 98}, {"time": 2569, "pitch": 65, "duration": 4, "velocity": 96}, {"time": 2573, "pitch": 54, "duration": 19, "velocity": 88}, {"time": 2573, "pitch": 61, "duration": 4, "velocity": 94}, {"time": 2573, "pitch": 70, "duration": 8, "velocity": 104}, {"time": 2581, "pitch": 61, "duration": 5, "velocity": 87}, {"time": 2585, "pitch": 66, "duration": 7, "velocity": 114}, {"time": 2585, "pitch": 75, "duration": 6, "velocity": 107}, {"time": 2589, "pitch": 61, "duration": 8, "velocity": 88}, {"time": 2593, "pitch": 70, "duration": 3, "velocity": 94}, {"time": 2597, "pitch": 53, "duration": 18, "velocity": 88}, {"time": 2597, "pitch": 68, "duration": 9, "velocity": 92}, {"time": 2597, "pitch": 72, "duration": 8, "velocity": 108}, {"time": 2605, "pitch": 61, "duration": 8, "velocity": 86}, {"time": 2609, "pitch": 65, "duration": 4, "velocity": 110}, {"time": 2613, "pitch": 68, "duration": 4, "velocity": 102}, {"time": 2617, "pitch": 72, "duration": 4, "velocity": 84}, {"time": 2621, "pitch": 51, "duration": 17, "velocity": 86}, {"time": 2621, "pitch": 63, "duration": 7, "velocity": 90}, {"time": 2621, "pitch": 66, "duration": 7, "velocity": 94}, {"time": 2621, "pitch": 70, "duration": 7, "velocity": 104}, {"time": 2633, "pitch": 63, "duration": 5, "velocity": 113}, {"time": 2633, "pitch": 66, "duration": 5, "velocity": 116}, {"time": 2633, "pitch": 70, "duration": 5, "velocity": 107}, {"time": 2637, "pitch": 55, "duration": 3, "velocity": 103}, {"time": 2641, "pitch": 67, "duration": 5, "velocity": 109}, {"time": 2645, "pitch": 44, "duration": 19, "velocity": 94}, {"time": 2649, "pitch": 51, "duration": 15, "velocity": 87}, {"time": 2651, "pitch": 56, "duration": 6, "velocity": 104}, {"time": 2653, "pitch": 60, "duration": 2, "velocity": 93}, {"time": 2653, "pitch": 63, "duration": 1, "velocity": 104}, {"time": 2655, "pitch": 63, "duration": 5, "velocity": 93}, {"time": 2657, "pitch": 68, "duration": 5, "velocity": 119}, {"time": 2661, "pitch": 56, "duration": 8, "velocity": 113}, {"time": 2665, "pitch": 63, "duration": 1, "velocity": 92}, {"time": 2669, "pitch": 49, "duration": 19, "velocity": 91}, {"time": 2669, "pitch": 65, "duration": 10, "velocity": 102}, {"time": 2669, "pitch": 73, "duration": 7, "velocity": 104}, {"time": 2677, "pitch": 56, "duration": 17, "velocity": 79}, {"time": 2681, "pitch": 63, "duration": 6, "velocity": 107}, {"time": 2681, "pitch": 68, "duration": 4, "velocity": 102}, {"time": 2685, "pitch": 65, "duration": 5, "velocity": 81}, {"time": 2689, "pitch": 68, "duration": 2, "velocity": 80}, {"time": 2693, "pitch": 48, "duration": 19, "velocity": 85}, {"time": 2693, "pitch": 63, "duration": 9, "velocity": 94}, {"time": 2693, "pitch": 70, "duration": 4, "velocity": 88}, {"time": 2693, "pitch": 72, "duration": 7, "velocity": 90}, {"time": 2701, "pitch": 56, "duration": 9, "velocity": 88}, {"time": 2705, "pitch": 63, "duration": 8, "velocity": 113}, {"time": 2705, "pitch": 68, "duration": 6, "velocity": 114}, {"time": 2713, "pitch": 65, "duration": 3, "velocity": 87}, {"time": 2717, "pitch": 46, "duration": 19, "velocity": 88}, {"time": 2717, "pitch": 61, "duration": 13, "velocity": 98}, {"time": 2717, "pitch": 65, "duration": 14, "velocity": 89}, {"time": 2717, "pitch": 70, "duration": 13, "velocity": 94}, {"time": 2725, "pitch": 53, "duration": 17, "velocity": 85}, {"time": 2729, "pitch": 58, "duration": 5, "velocity": 110}, {"time": 2733, "pitch": 61, "duration": 3, "velocity": 92}, {"time": 2737, "pitch": 65, "duration": 3, "velocity": 96}, {"time": 2741, "pitch": 44, "duration": 16, "velocity": 84}, {"time": 2741, "pitch": 63, "duration": 13, "velocity": 94}, {"time": 2741, "pitch": 68, "duration": 12, "velocity": 98}, {"time": 2747, "pitch": 53, "duration": 9, "velocity": 81}, {"time": 2753, "pitch": 56, "duration": 6, "velocity": 92}, {"time": 2757, "pitch": 63, "duration": 3, "velocity": 108}, {"time": 2761, "pitch": 65, "duration": 4, "velocity": 98}, {"time": 2765, "pitch": 54, "duration": 13, "velocity": 85}, {"time": 2765, "pitch": 61, "duration": 10, "velocity": 90}, {"time": 2765, "pitch": 66, "duration": 10, "velocity": 92}, {"time": 2777, "pitch": 61, "duration": 6, "velocity": 107}, {"time": 2777, "pitch": 66, "duration": 6, "velocity": 102}, {"time": 2777, "pitch": 67, "duration": 1, "velocity": 95}, {"time": 2781, "pitch": 54, "duration": 7, "velocity": 104}, {"time": 2785, "pitch": 61, "duration": 1, "velocity": 83}, {"time": 2785, "pitch": 66, "duration": 3, "velocity": 94}, {"time": 2789, "pitch": 53, "duration": 7, "velocity": 85}, {"time": 2789, "pitch": 60, "duration": 9, "velocity": 86}, {"time": 2789, "pitch": 65, "duration": 9, "velocity": 88}, {"time": 2789, "pitch": 68, "duration": 9, "velocity": 86}, {"time": 2797, "pitch": 53, "duration": 5, "velocity": 91}, {"time": 2801, "pitch": 60, "duration": 4, "velocity": 108}, {"time": 2801, "pitch": 65, "duration": 5, "velocity": 110}, {"time": 2801, "pitch": 68, "duration": 5, "velocity": 102}, {"time": 2805, "pitch": 53, "duration": 7, "velocity": 110}, {"time": 2809, "pitch": 65, "duration": 4, "velocity": 98}, {"time": 2809, "pitch": 68, "duration": 3, "velocity": 100}, {"time": 2813, "pitch": 51, "duration": 7, "velocity": 90}, {"time": 2813, "pitch": 63, "duration": 7, "velocity": 91}, {"time": 2813, "pitch": 66, "duration": 7, "velocity": 96}, {"time": 2813, "pitch": 70, "duration": 7, "velocity": 93}, {"time": 2825, "pitch": 44, "duration": 5, "velocity": 88}, {"time": 2825, "pitch": 60, "duration": 8, "velocity": 92}, {"time": 2825, "pitch": 63, "duration": 12, "velocity": 108}, {"time": 2825, "pitch": 68, "duration": 6, "velocity": 93}, {"time": 2833, "pitch": 68, "duration": 17, "velocity": 90}, {"time": 2837, "pitch": 49, "duration": 31, "velocity": 88}, {"time": 2837, "pitch": 61, "duration": 2, "velocity": 86}, {"time": 2837, "pitch": 65, "duration": 13, "velocity": 88}, {"time": 2845, "pitch": 56, "duration": 23, "velocity": 70}, {"time": 2849, "pitch": 61, "duration": 18, "velocity": 94}, {"time": 2853, "pitch": 66, "duration": 3, "velocity": 104}, {"time": 2857, "pitch": 68, "duration": 11, "velocity": 89}, {"time": 2861, "pitch": 65, "duration": 7, "velocity": 90}, {"time": 2883, "pitch": 66, "duration": 15, "velocity": 71}, {"time": 2885, "pitch": 54, "duration": 48, "velocity": 84}, {"time": 2885, "pitch": 73, "duration": 12, "velocity": 86}, {"time": 2893, "pitch": 61, "duration": 11, "velocity": 76}, {"time": 2897, "pitch": 70, "duration": 6, "velocity": 92}, {"time": 2903, "pitch": 73, "duration": 4, "velocity": 72}, {"time": 2909, "pitch": 63, "duration": 16, "velocity": 87}, {"time": 2909, "pitch": 72, "duration": 17, "velocity": 88}, {"time": 2925, "pitch": 68, "duration": 4, "velocity": 84}, {"time": 2929, "pitch": 72, "duration": 4, "velocity": 82}, {"time": 2933, "pitch": 53, "duration": 24, "velocity": 83}, {"time": 2933, "pitch": 65, "duration": 12, "velocity": 83}, {"time": 2933, "pitch": 68, "duration": 12, "velocity": 84}, {"time": 2945, "pitch": 63, "duration": 5, "velocity": 88}, {"time": 2949, "pitch": 65, "duration": 4, "velocity": 84}, {"time": 2953, "pitch": 68, "duration": 4, "velocity": 83}, {"time": 2957, "pitch": 46, "duration": 17, "velocity": 85}, {"time": 2957, "pitch": 61, "duration": 15, "velocity": 83}, {"time": 2957, "pitch": 70, "duration": 12, "velocity": 87}, {"time": 2965, "pitch": 53, "duration": 9, "velocity": 81}, {"time": 2969, "pitch": 58, "duration": 12, "velocity": 91}, {"time": 2973, "pitch": 60, "duration": 5, "velocity": 87}, {"time": 2977, "pitch": 61, "duration": 5, "velocity": 82}, {"time": 2981, "pitch": 51, "duration": 24, "velocity": 84}, {"time": 2981, "pitch": 63, "duration": 8, "velocity": 87}, {"time": 2981, "pitch": 66, "duration": 9, "velocity": 84}, {"time": 2993, "pitch": 63, "duration": 11, "velocity": 90}, {"time": 2993, "pitch": 66, "duration": 11, "velocity": 86}, {"time": 3005, "pitch": 44, "duration": 17, "velocity": 77}, {"time": 3005, "pitch": 56, "duration": 23, "velocity": 77}, {"time": 3005, "pitch": 60, "duration": 10, "velocity": 84}, {"time": 3005, "pitch": 68, "duration": 9, "velocity": 84}, {"time": 3017, "pitch": 60, "duration": 7, "velocity": 86}, {"time": 3017, "pitch": 68, "duration": 10, "velocity": 84}, {"time": 3029, "pitch": 49, "duration": 34, "velocity": 70}, {"time": 3029, "pitch": 61, "duration": 9, "velocity": 78}, {"time": 3029, "pitch": 65, "duration": 9, "velocity": 80}, {"time": 3029, "pitch": 68, "duration": 9, "velocity": 78}, {"time": 3037, "pitch": 56, "duration": 5, "velocity": 64}, {"time": 3041, "pitch": 66, "duration": 11, "velocity": 88}, {"time": 3049, "pitch": 56, "duration": 14, "velocity": 75}, {"time": 3053, "pitch": 61, "duration": 9, "velocity": 76}, {"time": 3053, "pitch": 65, "duration": 10, "velocity": 82}]}]}