{"metadata": {"schema_version": "0.2", "title": "None", "source_filename": "351.mid", "source_format": "midi"}, "resolution": 12, "tempos": [{"time": 0, "qpm": 115.92030092910122}], "time_signatures": [{"time": 0, "numerator": 1, "denominator": 4}], "tracks": [{"program": 0, "is_drum": false, "name": "MELODY", "notes": [{"time": 535, "pitch": 64, "duration": 9, "velocity": 122}, {"time": 547, "pitch": 67, "duration": 9, "velocity": 117}, {"time": 559, "pitch": 69, "duration": 8, "velocity": 122}, {"time": 571, "pitch": 69, "duration": 5, "velocity": 117}, {"time": 577, "pitch": 67, "duration": 6, "velocity": 97}, {"time": 583, "pitch": 69, "duration": 9, "velocity": 117}, {"time": 595, "pitch": 64, "duration": 9, "velocity": 107}, {"time": 607, "pitch": 62, "duration": 3, "velocity": 107}, {"time": 610, "pitch": 64, "duration": 3, "velocity": 74}, {"time": 613, "pitch": 62, "duration": 13, "velocity": 93}, {"time": 631, "pitch": 64, "duration": 10, "velocity": 102}, {"time": 643, "pitch": 67, "duration": 10, "velocity": 102}, {"time": 655, "pitch": 69, "duration": 8, "velocity": 102}, {"time": 667, "pitch": 69, "duration": 6, "velocity": 122}, {"time": 673, "pitch": 67, "duration": 7, "velocity": 90}, {"time": 679, "pitch": 69, "duration": 5, "velocity": 102}, {"time": 685, "pitch": 67, "duration": 3, "velocity": 93}, {"time": 691, "pitch": 67, "duration": 11, "velocity": 107}, {"time": 703, "pitch": 64, "duration": 19, "velocity": 117}, {"time": 727, "pitch": 64, "duration": 10, "velocity": 112}, {"time": 739, "pitch": 67, "duration": 10, "velocity": 122}, {"time": 751, "pitch": 69, "duration": 8, "velocity": 117}, {"time": 763, "pitch": 69, "duration": 6, "velocity": 117}, {"time": 769, "pitch": 67, "duration": 7, "velocity": 102}, {"time": 775, "pitch": 69, "duration": 9, "velocity": 107}, {"time": 787, "pitch": 64, "duration": 12, "velocity": 112}, {"time": 799, "pitch": 62, "duration": 20, "velocity": 100}, {"time": 823, "pitch": 67, "duration": 6, "velocity": 107}, {"time": 835, "pitch": 67, "duration": 6, "velocity": 127}, {"time": 841, "pitch": 64, "duration": 6, "velocity": 100}, {"time": 847, "pitch": 62, "duration": 8, "velocity": 100}, {"time": 853, "pitch": 64, "duration": 6, "velocity": 117}, {"time": 859, "pitch": 62, "duration": 6, "velocity": 112}, {"time": 865, "pitch": 60, "duration": 7, "velocity": 97}, {"time": 871, "pitch": 62, "duration": 6, "velocity": 117}, {"time": 877, "pitch": 60, "duration": 5, "velocity": 90}, {"time": 883, "pitch": 57, "duration": 30, "velocity": 99}, {"time": 919, "pitch": 57, "duration": 9, "velocity": 102}, {"time": 931, "pitch": 62, "duration": 31, "velocity": 112}, {"time": 967, "pitch": 67, "duration": 12, "velocity": 117}, {"time": 979, "pitch": 64, "duration": 21, "velocity": 107}, {"time": 1015, "pitch": 64, "duration": 5, "velocity": 127}, {"time": 1021, "pitch": 62, "duration": 7, "velocity": 92}, {"time": 1027, "pitch": 60, "duration": 7, "velocity": 89}, {"time": 1033, "pitch": 57, "duration": 25, "velocity": 107}, {"time": 1063, "pitch": 67, "duration": 10, "velocity": 117}, {"time": 1075, "pitch": 67, "duration": 6, "velocity": 102}, {"time": 1081, "pitch": 64, "duration": 6, "velocity": 99}, {"time": 1087, "pitch": 62, "duration": 7, "velocity": 99}, {"time": 1093, "pitch": 64, "duration": 5, "velocity": 95}, {"time": 1099, "pitch": 62, "duration": 6, "velocity": 90}, {"time": 1105, "pitch": 60, "duration": 7, "velocity": 76}, {"time": 1111, "pitch": 62, "duration": 5, "velocity": 99}, {"time": 1117, "pitch": 60, "duration": 5, "velocity": 93}, {"time": 1123, "pitch": 57, "duration": 26, "velocity": 86}, {"time": 1447, "pitch": 64, "duration": 9, "velocity": 122}, {"time": 1459, "pitch": 67, "duration": 9, "velocity": 117}, {"time": 1471, "pitch": 69, "duration": 8, "velocity": 122}, {"time": 1483, "pitch": 69, "duration": 5, "velocity": 117}, {"time": 1489, "pitch": 67, "duration": 6, "velocity": 97}, {"time": 1495, "pitch": 69, "duration": 9, "velocity": 117}, {"time": 1507, "pitch": 64, "duration": 10, "velocity": 96}, {"time": 1519, "pitch": 62, "duration": 4, "velocity": 107}, {"time": 1522, "pitch": 64, "duration": 3, "velocity": 62}, {"time": 1525, "pitch": 62, "duration": 14, "velocity": 90}, {"time": 1543, "pitch": 64, "duration": 10, "velocity": 102}, {"time": 1555, "pitch": 67, "duration": 10, "velocity": 102}, {"time": 1567, "pitch": 69, "duration": 8, "velocity": 102}, {"time": 1579, "pitch": 69, "duration": 6, "velocity": 122}, {"time": 1585, "pitch": 67, "duration": 7, "velocity": 90}, {"time": 1591, "pitch": 69, "duration": 5, "velocity": 102}, {"time": 1597, "pitch": 67, "duration": 3, "velocity": 93}, {"time": 1603, "pitch": 67, "duration": 11, "velocity": 107}, {"time": 1615, "pitch": 64, "duration": 19, "velocity": 106}, {"time": 1639, "pitch": 64, "duration": 10, "velocity": 112}, {"time": 1651, "pitch": 67, "duration": 10, "velocity": 122}, {"time": 1663, "pitch": 69, "duration": 8, "velocity": 117}, {"time": 1675, "pitch": 69, "duration": 6, "velocity": 117}, {"time": 1681, "pitch": 67, "duration": 7, "velocity": 102}, {"time": 1687, "pitch": 69, "duration": 9, "velocity": 107}, {"time": 1699, "pitch": 64, "duration": 12, "velocity": 112}, {"time": 1711, "pitch": 62, "duration": 20, "velocity": 100}, {"time": 1735, "pitch": 67, "duration": 6, "velocity": 107}, {"time": 1747, "pitch": 67, "duration": 6, "velocity": 115}, {"time": 1753, "pitch": 64, "duration": 6, "velocity": 100}, {"time": 1759, "pitch": 62, "duration": 8, "velocity": 100}, {"time": 1765, "pitch": 64, "duration": 6, "velocity": 117}, {"time": 1771, "pitch": 62, "duration": 6, "velocity": 112}, {"time": 1777, "pitch": 60, "duration": 7, "velocity": 97}, {"time": 1783, "pitch": 62, "duration": 6, "velocity": 117}, {"time": 1789, "pitch": 60, "duration": 5, "velocity": 96}, {"time": 1795, "pitch": 57, "duration": 30, "velocity": 99}, {"time": 1831, "pitch": 57, "duration": 9, "velocity": 102}, {"time": 1843, "pitch": 62, "duration": 36, "velocity": 112}, {"time": 1879, "pitch": 67, "duration": 12, "velocity": 117}, {"time": 1891, "pitch": 64, "duration": 21, "velocity": 107}, {"time": 1927, "pitch": 64, "duration": 5, "velocity": 127}, {"time": 1933, "pitch": 62, "duration": 7, "velocity": 92}, {"time": 1939, "pitch": 60, "duration": 7, "velocity": 89}, {"time": 1945, "pitch": 57, "duration": 25, "velocity": 107}, {"time": 1975, "pitch": 67, "duration": 10, "velocity": 117}, {"time": 1987, "pitch": 67, "duration": 6, "velocity": 102}, {"time": 1993, "pitch": 64, "duration": 6, "velocity": 99}, {"time": 1999, "pitch": 62, "duration": 7, "velocity": 99}, {"time": 2005, "pitch": 64, "duration": 5, "velocity": 95}, {"time": 2011, "pitch": 62, "duration": 6, "velocity": 90}, {"time": 2017, "pitch": 60, "duration": 7, "velocity": 76}, {"time": 2023, "pitch": 62, "duration": 5, "velocity": 99}, {"time": 2029, "pitch": 60, "duration": 5, "velocity": 93}, {"time": 2035, "pitch": 57, "duration": 26, "velocity": 86}, {"time": 2551, "pitch": 64, "duration": 9, "velocity": 122}, {"time": 2563, "pitch": 67, "duration": 9, "velocity": 117}, {"time": 2575, "pitch": 69, "duration": 8, "velocity": 122}, {"time": 2587, "pitch": 69, "duration": 5, "velocity": 117}, {"time": 2593, "pitch": 67, "duration": 6, "velocity": 97}, {"time": 2599, "pitch": 69, "duration": 9, "velocity": 117}, {"time": 2611, "pitch": 64, "duration": 9, "velocity": 107}, {"time": 2623, "pitch": 62, "duration": 3, "velocity": 107}, {"time": 2626, "pitch": 64, "duration": 3, "velocity": 74}, {"time": 2629, "pitch": 62, "duration": 13, "velocity": 93}, {"time": 2647, "pitch": 64, "duration": 10, "velocity": 102}, {"time": 2659, "pitch": 67, "duration": 10, "velocity": 102}, {"time": 2671, "pitch": 69, "duration": 8, "velocity": 102}, {"time": 2683, "pitch": 69, "duration": 6, "velocity": 122}, {"time": 2689, "pitch": 67, "duration": 7, "velocity": 90}, {"time": 2695, "pitch": 69, "duration": 5, "velocity": 102}, {"time": 2701, "pitch": 67, "duration": 3, "velocity": 93}, {"time": 2707, "pitch": 67, "duration": 11, "velocity": 107}, {"time": 2719, "pitch": 64, "duration": 19, "velocity": 117}, {"time": 2743, "pitch": 64, "duration": 10, "velocity": 112}, {"time": 2755, "pitch": 67, "duration": 10, "velocity": 122}, {"time": 2767, "pitch": 69, "duration": 8, "velocity": 117}, {"time": 2779, "pitch": 69, "duration": 6, "velocity": 117}, {"time": 2785, "pitch": 67, "duration": 7, "velocity": 102}, {"time": 2791, "pitch": 69, "duration": 9, "velocity": 107}, {"time": 2803, "pitch": 64, "duration": 12, "velocity": 112}, {"time": 2815, "pitch": 62, "duration": 20, "velocity": 100}, {"time": 2839, "pitch": 67, "duration": 6, "velocity": 107}, {"time": 2851, "pitch": 67, "duration": 6, "velocity": 127}, {"time": 2857, "pitch": 64, "duration": 6, "velocity": 100}, {"time": 2863, "pitch": 62, "duration": 8, "velocity": 100}, {"time": 2869, "pitch": 64, "duration": 6, "velocity": 117}, {"time": 2875, "pitch": 62, "duration": 6, "velocity": 112}, {"time": 2881, "pitch": 60, "duration": 7, "velocity": 97}, {"time": 2887, "pitch": 62, "duration": 6, "velocity": 117}, {"time": 2893, "pitch": 60, "duration": 5, "velocity": 90}, {"time": 2899, "pitch": 57, "duration": 30, "velocity": 99}, {"time": 2935, "pitch": 57, "duration": 9, "velocity": 102}, {"time": 2947, "pitch": 62, "duration": 33, "velocity": 112}, {"time": 2983, "pitch": 67, "duration": 12, "velocity": 117}, {"time": 2995, "pitch": 64, "duration": 21, "velocity": 107}, {"time": 3031, "pitch": 64, "duration": 5, "velocity": 127}, {"time": 3037, "pitch": 62, "duration": 7, "velocity": 92}, {"time": 3043, "pitch": 60, "duration": 7, "velocity": 89}, {"time": 3049, "pitch": 57, "duration": 25, "velocity": 107}, {"time": 3079, "pitch": 67, "duration": 10, "velocity": 117}, {"time": 3091, "pitch": 67, "duration": 6, "velocity": 102}, {"time": 3097, "pitch": 64, "duration": 6, "velocity": 99}, {"time": 3103, "pitch": 62, "duration": 7, "velocity": 99}, {"time": 3109, "pitch": 64, "duration": 5, "velocity": 95}, {"time": 3115, "pitch": 62, "duration": 6, "velocity": 90}, {"time": 3121, "pitch": 60, "duration": 7, "velocity": 76}, {"time": 3127, "pitch": 62, "duration": 5, "velocity": 99}, {"time": 3133, "pitch": 60, "duration": 5, "velocity": 93}, {"time": 3139, "pitch": 57, "duration": 26, "velocity": 86}, {"time": 3463, "pitch": 64, "duration": 9, "velocity": 122}, {"time": 3475, "pitch": 67, "duration": 9, "velocity": 117}, {"time": 3487, "pitch": 69, "duration": 8, "velocity": 122}, {"time": 3499, "pitch": 69, "duration": 5, "velocity": 117}, {"time": 3505, "pitch": 67, "duration": 6, "velocity": 97}, {"time": 3511, "pitch": 69, "duration": 9, "velocity": 117}, {"time": 3523, "pitch": 64, "duration": 10, "velocity": 96}, {"time": 3535, "pitch": 62, "duration": 4, "velocity": 107}, {"time": 3538, "pitch": 64, "duration": 3, "velocity": 62}, {"time": 3541, "pitch": 62, "duration": 14, "velocity": 90}, {"time": 3559, "pitch": 64, "duration": 10, "velocity": 102}, {"time": 3571, "pitch": 67, "duration": 10, "velocity": 102}, {"time": 3583, "pitch": 69, "duration": 8, "velocity": 102}, {"time": 3595, "pitch": 69, "duration": 6, "velocity": 122}, {"time": 3601, "pitch": 67, "duration": 7, "velocity": 90}, {"time": 3607, "pitch": 69, "duration": 5, "velocity": 102}, {"time": 3613, "pitch": 67, "duration": 3, "velocity": 93}, {"time": 3619, "pitch": 67, "duration": 11, "velocity": 107}, {"time": 3631, "pitch": 64, "duration": 19, "velocity": 106}, {"time": 3655, "pitch": 64, "duration": 10, "velocity": 112}, {"time": 3667, "pitch": 67, "duration": 10, "velocity": 122}, {"time": 3679, "pitch": 69, "duration": 8, "velocity": 117}, {"time": 3691, "pitch": 69, "duration": 6, "velocity": 117}, {"time": 3697, "pitch": 67, "duration": 7, "velocity": 102}, {"time": 3703, "pitch": 69, "duration": 9, "velocity": 107}, {"time": 3715, "pitch": 64, "duration": 12, "velocity": 112}, {"time": 3727, "pitch": 62, "duration": 20, "velocity": 100}, {"time": 3751, "pitch": 67, "duration": 6, "velocity": 107}, {"time": 3763, "pitch": 67, "duration": 6, "velocity": 115}, {"time": 3769, "pitch": 64, "duration": 6, "velocity": 100}, {"time": 3775, "pitch": 62, "duration": 8, "velocity": 100}, {"time": 3781, "pitch": 64, "duration": 6, "velocity": 117}, {"time": 3787, "pitch": 62, "duration": 6, "velocity": 112}, {"time": 3793, "pitch": 60, "duration": 7, "velocity": 97}, {"time": 3799, "pitch": 62, "duration": 6, "velocity": 117}, {"time": 3805, "pitch": 60, "duration": 5, "velocity": 96}, {"time": 3811, "pitch": 57, "duration": 30, "velocity": 99}, {"time": 3847, "pitch": 57, "duration": 9, "velocity": 102}, {"time": 3859, "pitch": 62, "duration": 33, "velocity": 112}, {"time": 3895, "pitch": 67, "duration": 12, "velocity": 117}, {"time": 3907, "pitch": 64, "duration": 21, "velocity": 107}, {"time": 3943, "pitch": 64, "duration": 5, "velocity": 127}, {"time": 3949, "pitch": 62, "duration": 7, "velocity": 92}, {"time": 3955, "pitch": 60, "duration": 7, "velocity": 89}, {"time": 3961, "pitch": 57, "duration": 25, "velocity": 107}, {"time": 3991, "pitch": 67, "duration": 10, "velocity": 117}, {"time": 4003, "pitch": 67, "duration": 6, "velocity": 102}, {"time": 4009, "pitch": 64, "duration": 6, "velocity": 99}, {"time": 4015, "pitch": 62, "duration": 7, "velocity": 99}, {"time": 4021, "pitch": 64, "duration": 5, "velocity": 95}, {"time": 4027, "pitch": 62, "duration": 6, "velocity": 90}, {"time": 4033, "pitch": 60, "duration": 7, "velocity": 76}, {"time": 4039, "pitch": 62, "duration": 5, "velocity": 99}, {"time": 4045, "pitch": 60, "duration": 5, "velocity": 93}, {"time": 4051, "pitch": 57, "duration": 26, "velocity": 86}]}, {"program": 0, "is_drum": false, "name": "BRIDGE", "notes": [{"time": 55, "pitch": 81, "duration": 8, "velocity": 107}, {"time": 64, "pitch": 84, "duration": 4, "velocity": 79}, {"time": 67, "pitch": 81, "duration": 6, "velocity": 92}, {"time": 73, "pitch": 79, "duration": 7, "velocity": 88}, {"time": 79, "pitch": 81, "duration": 60, "velocity": 93}, {"time": 151, "pitch": 81, "duration": 8, "velocity": 107}, {"time": 160, "pitch": 84, "duration": 4, "velocity": 95}, {"time": 163, "pitch": 81, "duration": 6, "velocity": 93}, {"time": 169, "pitch": 79, "duration": 4, "velocity": 85}, {"time": 175, "pitch": 81, "duration": 7, "velocity": 93}, {"time": 184, "pitch": 84, "duration": 4, "velocity": 93}, {"time": 187, "pitch": 81, "duration": 6, "velocity": 88}, {"time": 193, "pitch": 79, "duration": 5, "velocity": 88}, {"time": 199, "pitch": 81, "duration": 9, "velocity": 102}, {"time": 229, "pitch": 41, "duration": 2, "velocity": 39}, {"time": 230, "pitch": 43, "duration": 2, "velocity": 39}, {"time": 231, "pitch": 45, "duration": 1, "velocity": 30}, {"time": 232, "pitch": 47, "duration": 1, "velocity": 36}, {"time": 232, "pitch": 48, "duration": 2, "velocity": 48}, {"time": 233, "pitch": 50, "duration": 2, "velocity": 55}, {"time": 234, "pitch": 52, "duration": 1, "velocity": 59}, {"time": 235, "pitch": 53, "duration": 1, "velocity": 56}, {"time": 235, "pitch": 55, "duration": 1, "velocity": 61}, {"time": 236, "pitch": 57, "duration": 1, "velocity": 56}, {"time": 236, "pitch": 59, "duration": 1, "velocity": 59}, {"time": 237, "pitch": 60, "duration": 1, "velocity": 67}, {"time": 237, "pitch": 62, "duration": 1, "velocity": 62}, {"time": 238, "pitch": 64, "duration": 1, "velocity": 58}, {"time": 238, "pitch": 65, "duration": 2, "velocity": 63}, {"time": 239, "pitch": 67, "duration": 1, "velocity": 63}, {"time": 240, "pitch": 69, "duration": 1, "velocity": 61}, {"time": 240, "pitch": 71, "duration": 1, "velocity": 63}, {"time": 241, "pitch": 72, "duration": 1, "velocity": 66}, {"time": 241, "pitch": 74, "duration": 1, "velocity": 69}, {"time": 242, "pitch": 76, "duration": 1, "velocity": 71}, {"time": 242, "pitch": 77, "duration": 2, "velocity": 65}, {"time": 243, "pitch": 79, "duration": 1, "velocity": 68}, {"time": 244, "pitch": 81, "duration": 1, "velocity": 72}, {"time": 244, "pitch": 83, "duration": 1, "velocity": 76}, {"time": 245, "pitch": 84, "duration": 1, "velocity": 77}, {"time": 246, "pitch": 86, "duration": 1, "velocity": 86}, {"time": 246, "pitch": 88, "duration": 1, "velocity": 68}, {"time": 247, "pitch": 89, "duration": 1, "velocity": 69}, {"time": 247, "pitch": 69, "duration": 3, "velocity": 112}, {"time": 250, "pitch": 71, "duration": 5, "velocity": 66}, {"time": 253, "pitch": 72, "duration": 5, "velocity": 88}, {"time": 256, "pitch": 74, "duration": 5, "velocity": 85}, {"time": 259, "pitch": 76, "duration": 6, "velocity": 122}, {"time": 265, "pitch": 76, "duration": 3, "velocity": 122}, {"time": 271, "pitch": 81, "duration": 4, "velocity": 122}, {"time": 274, "pitch": 83, "duration": 5, "velocity": 69}, {"time": 277, "pitch": 84, "duration": 4, "velocity": 88}, {"time": 280, "pitch": 86, "duration": 5, "velocity": 86}, {"time": 283, "pitch": 88, "duration": 5, "velocity": 107}, {"time": 289, "pitch": 91, "duration": 6, "velocity": 117}, {"time": 295, "pitch": 93, "duration": 48, "velocity": 122}, {"time": 310, "pitch": 84, "duration": 4, "velocity": 92}, {"time": 313, "pitch": 81, "duration": 3, "velocity": 88}, {"time": 316, "pitch": 79, "duration": 2, "velocity": 82}, {"time": 319, "pitch": 81, "duration": 14, "velocity": 95}, {"time": 349, "pitch": 93, "duration": 7, "velocity": 127}, {"time": 355, "pitch": 91, "duration": 7, "velocity": 112}, {"time": 361, "pitch": 88, "duration": 6, "velocity": 112}, {"time": 367, "pitch": 86, "duration": 8, "velocity": 100}, {"time": 376, "pitch": 81, "duration": 3, "velocity": 102}, {"time": 379, "pitch": 84, "duration": 7, "velocity": 90}, {"time": 385, "pitch": 86, "duration": 6, "velocity": 100}, {"time": 391, "pitch": 81, "duration": 30, "velocity": 107}, {"time": 424, "pitch": 79, "duration": 3, "velocity": 85}, {"time": 427, "pitch": 81, "duration": 3, "velocity": 93}, {"time": 430, "pitch": 84, "duration": 3, "velocity": 90}, {"time": 433, "pitch": 81, "duration": 3, "velocity": 90}, {"time": 436, "pitch": 79, "duration": 2, "velocity": 78}, {"time": 439, "pitch": 81, "duration": 10, "velocity": 95}, {"time": 451, "pitch": 81, "duration": 5, "velocity": 127}, {"time": 457, "pitch": 79, "duration": 6, "velocity": 93}, {"time": 463, "pitch": 76, "duration": 8, "velocity": 100}, {"time": 472, "pitch": 72, "duration": 3, "velocity": 102}, {"time": 475, "pitch": 74, "duration": 8, "velocity": 78}, {"time": 481, "pitch": 76, "duration": 7, "velocity": 81}, {"time": 493, "pitch": 81, "duration": 6, "velocity": 102}, {"time": 499, "pitch": 79, "duration": 6, "velocity": 89}, {"time": 505, "pitch": 76, "duration": 7, "velocity": 96}, {"time": 511, "pitch": 74, "duration": 7, "velocity": 89}, {"time": 517, "pitch": 72, "duration": 7, "velocity": 100}, {"time": 523, "pitch": 74, "duration": 7, "velocity": 92}, {"time": 529, "pitch": 76, "duration": 7, "velocity": 102}, {"time": 943, "pitch": 69, "duration": 13, "velocity": 100}, {"time": 955, "pitch": 74, "duration": 26, "velocity": 127}, {"time": 991, "pitch": 79, "duration": 13, "velocity": 122}, {"time": 1003, "pitch": 76, "duration": 22, "velocity": 102}, {"time": 1159, "pitch": 69, "duration": 3, "velocity": 112}, {"time": 1162, "pitch": 71, "duration": 5, "velocity": 66}, {"time": 1165, "pitch": 72, "duration": 5, "velocity": 88}, {"time": 1168, "pitch": 74, "duration": 5, "velocity": 85}, {"time": 1171, "pitch": 76, "duration": 6, "velocity": 122}, {"time": 1177, "pitch": 76, "duration": 3, "velocity": 122}, {"time": 1183, "pitch": 81, "duration": 4, "velocity": 122}, {"time": 1186, "pitch": 83, "duration": 5, "velocity": 69}, {"time": 1189, "pitch": 84, "duration": 4, "velocity": 88}, {"time": 1192, "pitch": 86, "duration": 5, "velocity": 86}, {"time": 1195, "pitch": 88, "duration": 5, "velocity": 107}, {"time": 1201, "pitch": 91, "duration": 6, "velocity": 117}, {"time": 1207, "pitch": 93, "duration": 48, "velocity": 122}, {"time": 1222, "pitch": 84, "duration": 4, "velocity": 92}, {"time": 1225, "pitch": 81, "duration": 3, "velocity": 88}, {"time": 1228, "pitch": 79, "duration": 2, "velocity": 82}, {"time": 1231, "pitch": 81, "duration": 14, "velocity": 95}, {"time": 1261, "pitch": 93, "duration": 7, "velocity": 127}, {"time": 1267, "pitch": 91, "duration": 7, "velocity": 112}, {"time": 1273, "pitch": 88, "duration": 6, "velocity": 112}, {"time": 1279, "pitch": 86, "duration": 8, "velocity": 100}, {"time": 1288, "pitch": 81, "duration": 3, "velocity": 102}, {"time": 1291, "pitch": 84, "duration": 7, "velocity": 90}, {"time": 1297, "pitch": 86, "duration": 6, "velocity": 100}, {"time": 1303, "pitch": 81, "duration": 30, "velocity": 107}, {"time": 1336, "pitch": 79, "duration": 3, "velocity": 85}, {"time": 1339, "pitch": 81, "duration": 3, "velocity": 93}, {"time": 1342, "pitch": 84, "duration": 3, "velocity": 90}, {"time": 1345, "pitch": 81, "duration": 3, "velocity": 90}, {"time": 1348, "pitch": 79, "duration": 2, "velocity": 78}, {"time": 1351, "pitch": 81, "duration": 10, "velocity": 95}, {"time": 1363, "pitch": 81, "duration": 5, "velocity": 127}, {"time": 1369, "pitch": 79, "duration": 6, "velocity": 93}, {"time": 1375, "pitch": 76, "duration": 8, "velocity": 100}, {"time": 1384, "pitch": 72, "duration": 3, "velocity": 102}, {"time": 1387, "pitch": 74, "duration": 8, "velocity": 78}, {"time": 1393, "pitch": 76, "duration": 7, "velocity": 81}, {"time": 1405, "pitch": 81, "duration": 6, "velocity": 102}, {"time": 1411, "pitch": 79, "duration": 6, "velocity": 89}, {"time": 1417, "pitch": 76, "duration": 7, "velocity": 96}, {"time": 1423, "pitch": 74, "duration": 7, "velocity": 89}, {"time": 1429, "pitch": 72, "duration": 7, "velocity": 100}, {"time": 1435, "pitch": 74, "duration": 7, "velocity": 92}, {"time": 1441, "pitch": 76, "duration": 7, "velocity": 102}, {"time": 1855, "pitch": 69, "duration": 13, "velocity": 100}, {"time": 1867, "pitch": 74, "duration": 27, "velocity": 81}, {"time": 1903, "pitch": 79, "duration": 12, "velocity": 112}, {"time": 1915, "pitch": 76, "duration": 26, "velocity": 112}, {"time": 2071, "pitch": 81, "duration": 8, "velocity": 107}, {"time": 2080, "pitch": 84, "duration": 4, "velocity": 79}, {"time": 2083, "pitch": 81, "duration": 6, "velocity": 92}, {"time": 2089, "pitch": 79, "duration": 7, "velocity": 88}, {"time": 2095, "pitch": 81, "duration": 60, "velocity": 93}, {"time": 2167, "pitch": 81, "duration": 8, "velocity": 107}, {"time": 2176, "pitch": 84, "duration": 4, "velocity": 95}, {"time": 2179, "pitch": 81, "duration": 6, "velocity": 93}, {"time": 2185, "pitch": 79, "duration": 4, "velocity": 85}, {"time": 2191, "pitch": 81, "duration": 7, "velocity": 93}, {"time": 2200, "pitch": 84, "duration": 4, "velocity": 93}, {"time": 2203, "pitch": 81, "duration": 6, "velocity": 88}, {"time": 2209, "pitch": 79, "duration": 5, "velocity": 88}, {"time": 2215, "pitch": 81, "duration": 9, "velocity": 102}, {"time": 2251, "pitch": 46, "duration": 1, "velocity": 77}, {"time": 2252, "pitch": 47, "duration": 1, "velocity": 57}, {"time": 2252, "pitch": 48, "duration": 1, "velocity": 77}, {"time": 2253, "pitch": 50, "duration": 1, "velocity": 83}, {"time": 2253, "pitch": 52, "duration": 2, "velocity": 61}, {"time": 2254, "pitch": 53, "duration": 1, "velocity": 67}, {"time": 2255, "pitch": 55, "duration": 1, "velocity": 71}, {"time": 2255, "pitch": 57, "duration": 1, "velocity": 69}, {"time": 2256, "pitch": 59, "duration": 1, "velocity": 71}, {"time": 2256, "pitch": 60, "duration": 2, "velocity": 75}, {"time": 2257, "pitch": 62, "duration": 1, "velocity": 77}, {"time": 2257, "pitch": 64, "duration": 2, "velocity": 76}, {"time": 2258, "pitch": 65, "duration": 1, "velocity": 75}, {"time": 2259, "pitch": 67, "duration": 1, "velocity": 73}, {"time": 2259, "pitch": 69, "duration": 1, "velocity": 76}, {"time": 2260, "pitch": 71, "duration": 1, "velocity": 76}, {"time": 2260, "pitch": 72, "duration": 1, "velocity": 79}, {"time": 2261, "pitch": 74, "duration": 1, "velocity": 75}, {"time": 2261, "pitch": 76, "duration": 1, "velocity": 74}, {"time": 2262, "pitch": 77, "duration": 1, "velocity": 66}, {"time": 2262, "pitch": 79, "duration": 1, "velocity": 72}, {"time": 2263, "pitch": 81, "duration": 1, "velocity": 69}, {"time": 2263, "pitch": 83, "duration": 1, "velocity": 67}, {"time": 2263, "pitch": 69, "duration": 3, "velocity": 112}, {"time": 2264, "pitch": 84, "duration": 1, "velocity": 74}, {"time": 2264, "pitch": 86, "duration": 1, "velocity": 77}, {"time": 2264, "pitch": 88, "duration": 1, "velocity": 100}, {"time": 2266, "pitch": 71, "duration": 5, "velocity": 66}, {"time": 2269, "pitch": 72, "duration": 5, "velocity": 88}, {"time": 2272, "pitch": 74, "duration": 5, "velocity": 85}, {"time": 2275, "pitch": 76, "duration": 6, "velocity": 122}, {"time": 2281, "pitch": 76, "duration": 3, "velocity": 122}, {"time": 2287, "pitch": 81, "duration": 4, "velocity": 122}, {"time": 2290, "pitch": 83, "duration": 5, "velocity": 69}, {"time": 2293, "pitch": 84, "duration": 4, "velocity": 88}, {"time": 2296, "pitch": 86, "duration": 5, "velocity": 86}, {"time": 2299, "pitch": 88, "duration": 5, "velocity": 107}, {"time": 2305, "pitch": 91, "duration": 6, "velocity": 117}, {"time": 2311, "pitch": 93, "duration": 48, "velocity": 122}, {"time": 2326, "pitch": 84, "duration": 4, "velocity": 92}, {"time": 2329, "pitch": 81, "duration": 3, "velocity": 88}, {"time": 2332, "pitch": 79, "duration": 2, "velocity": 82}, {"time": 2335, "pitch": 81, "duration": 14, "velocity": 95}, {"time": 2365, "pitch": 93, "duration": 7, "velocity": 127}, {"time": 2371, "pitch": 91, "duration": 7, "velocity": 112}, {"time": 2377, "pitch": 88, "duration": 6, "velocity": 112}, {"time": 2383, "pitch": 86, "duration": 8, "velocity": 100}, {"time": 2392, "pitch": 81, "duration": 3, "velocity": 102}, {"time": 2395, "pitch": 84, "duration": 7, "velocity": 90}, {"time": 2401, "pitch": 86, "duration": 6, "velocity": 100}, {"time": 2407, "pitch": 81, "duration": 30, "velocity": 107}, {"time": 2440, "pitch": 79, "duration": 3, "velocity": 85}, {"time": 2443, "pitch": 81, "duration": 3, "velocity": 93}, {"time": 2446, "pitch": 84, "duration": 3, "velocity": 90}, {"time": 2449, "pitch": 81, "duration": 3, "velocity": 90}, {"time": 2452, "pitch": 79, "duration": 2, "velocity": 78}, {"time": 2455, "pitch": 81, "duration": 10, "velocity": 95}, {"time": 2467, "pitch": 81, "duration": 5, "velocity": 127}, {"time": 2473, "pitch": 79, "duration": 6, "velocity": 93}, {"time": 2479, "pitch": 76, "duration": 8, "velocity": 100}, {"time": 2488, "pitch": 72, "duration": 3, "velocity": 102}, {"time": 2491, "pitch": 74, "duration": 8, "velocity": 78}, {"time": 2497, "pitch": 76, "duration": 7, "velocity": 81}, {"time": 2509, "pitch": 81, "duration": 6, "velocity": 102}, {"time": 2515, "pitch": 79, "duration": 6, "velocity": 89}, {"time": 2521, "pitch": 76, "duration": 7, "velocity": 96}, {"time": 2527, "pitch": 74, "duration": 7, "velocity": 89}, {"time": 2533, "pitch": 72, "duration": 7, "velocity": 100}, {"time": 2539, "pitch": 74, "duration": 7, "velocity": 92}, {"time": 2545, "pitch": 76, "duration": 7, "velocity": 102}, {"time": 2959, "pitch": 69, "duration": 13, "velocity": 100}, {"time": 2971, "pitch": 74, "duration": 26, "velocity": 127}, {"time": 3007, "pitch": 79, "duration": 13, "velocity": 122}, {"time": 3019, "pitch": 76, "duration": 22, "velocity": 102}, {"time": 3175, "pitch": 69, "duration": 3, "velocity": 112}, {"time": 3178, "pitch": 71, "duration": 5, "velocity": 66}, {"time": 3181, "pitch": 72, "duration": 5, "velocity": 88}, {"time": 3184, "pitch": 74, "duration": 5, "velocity": 85}, {"time": 3187, "pitch": 76, "duration": 6, "velocity": 122}, {"time": 3193, "pitch": 76, "duration": 3, "velocity": 122}, {"time": 3199, "pitch": 81, "duration": 4, "velocity": 122}, {"time": 3202, "pitch": 83, "duration": 5, "velocity": 69}, {"time": 3205, "pitch": 84, "duration": 4, "velocity": 88}, {"time": 3208, "pitch": 86, "duration": 5, "velocity": 86}, {"time": 3211, "pitch": 88, "duration": 5, "velocity": 107}, {"time": 3217, "pitch": 91, "duration": 6, "velocity": 117}, {"time": 3223, "pitch": 93, "duration": 48, "velocity": 122}, {"time": 3238, "pitch": 84, "duration": 4, "velocity": 92}, {"time": 3241, "pitch": 81, "duration": 3, "velocity": 88}, {"time": 3244, "pitch": 79, "duration": 2, "velocity": 82}, {"time": 3247, "pitch": 81, "duration": 14, "velocity": 95}, {"time": 3277, "pitch": 93, "duration": 7, "velocity": 127}, {"time": 3283, "pitch": 91, "duration": 7, "velocity": 112}, {"time": 3289, "pitch": 88, "duration": 6, "velocity": 112}, {"time": 3295, "pitch": 86, "duration": 8, "velocity": 100}, {"time": 3304, "pitch": 81, "duration": 3, "velocity": 102}, {"time": 3307, "pitch": 84, "duration": 7, "velocity": 90}, {"time": 3313, "pitch": 86, "duration": 6, "velocity": 100}, {"time": 3319, "pitch": 81, "duration": 30, "velocity": 107}, {"time": 3352, "pitch": 79, "duration": 3, "velocity": 85}, {"time": 3355, "pitch": 81, "duration": 3, "velocity": 93}, {"time": 3358, "pitch": 84, "duration": 3, "velocity": 90}, {"time": 3361, "pitch": 81, "duration": 3, "velocity": 90}, {"time": 3364, "pitch": 79, "duration": 2, "velocity": 78}, {"time": 3367, "pitch": 81, "duration": 10, "velocity": 95}, {"time": 3379, "pitch": 81, "duration": 5, "velocity": 127}, {"time": 3385, "pitch": 79, "duration": 6, "velocity": 93}, {"time": 3391, "pitch": 76, "duration": 8, "velocity": 100}, {"time": 3400, "pitch": 72, "duration": 3, "velocity": 102}, {"time": 3403, "pitch": 74, "duration": 8, "velocity": 78}, {"time": 3409, "pitch": 76, "duration": 7, "velocity": 81}, {"time": 3421, "pitch": 81, "duration": 6, "velocity": 102}, {"time": 3427, "pitch": 79, "duration": 6, "velocity": 89}, {"time": 3433, "pitch": 76, "duration": 7, "velocity": 96}, {"time": 3439, "pitch": 74, "duration": 7, "velocity": 89}, {"time": 3445, "pitch": 72, "duration": 7, "velocity": 100}, {"time": 3451, "pitch": 74, "duration": 7, "velocity": 92}, {"time": 3457, "pitch": 76, "duration": 7, "velocity": 102}, {"time": 3871, "pitch": 69, "duration": 12, "velocity": 100}, {"time": 3883, "pitch": 74, "duration": 26, "velocity": 100}, {"time": 3919, "pitch": 79, "duration": 12, "velocity": 112}, {"time": 3931, "pitch": 76, "duration": 25, "velocity": 117}, {"time": 4051, "pitch": 81, "duration": 3, "velocity": 122}, {"time": 4054, "pitch": 84, "duration": 3, "velocity": 93}, {"time": 4057, "pitch": 81, "duration": 3, "velocity": 93}, {"time": 4060, "pitch": 79, "duration": 2, "velocity": 96}, {"time": 4063, "pitch": 81, "duration": 17, "velocity": 107}, {"time": 4081, "pitch": 84, "duration": 6, "velocity": 127}, {"time": 4087, "pitch": 81, "duration": 10, "velocity": 117}, {"time": 4099, "pitch": 81, "duration": 3, "velocity": 127}, {"time": 4102, "pitch": 84, "duration": 4, "velocity": 92}, {"time": 4105, "pitch": 81, "duration": 5, "velocity": 85}, {"time": 4108, "pitch": 79, "duration": 3, "velocity": 100}, {"time": 4111, "pitch": 76, "duration": 5, "velocity": 95}, {"time": 4114, "pitch": 79, "duration": 3, "velocity": 100}, {"time": 4117, "pitch": 76, "duration": 3, "velocity": 86}, {"time": 4120, "pitch": 74, "duration": 3, "velocity": 86}, {"time": 4123, "pitch": 76, "duration": 6, "velocity": 99}, {"time": 4129, "pitch": 76, "duration": 3, "velocity": 96}, {"time": 4132, "pitch": 74, "duration": 4, "velocity": 93}, {"time": 4135, "pitch": 76, "duration": 3, "velocity": 99}, {"time": 4138, "pitch": 74, "duration": 3, "velocity": 96}, {"time": 4141, "pitch": 76, "duration": 3, "velocity": 96}, {"time": 4144, "pitch": 79, "duration": 3, "velocity": 100}, {"time": 4147, "pitch": 81, "duration": 3, "velocity": 112}, {"time": 4150, "pitch": 84, "duration": 4, "velocity": 95}, {"time": 4153, "pitch": 81, "duration": 3, "velocity": 86}, {"time": 4156, "pitch": 79, "duration": 3, "velocity": 90}, {"time": 4159, "pitch": 81, "duration": 4, "velocity": 117}, {"time": 4183, "pitch": 81, "duration": 21, "velocity": 127}, {"time": 4207, "pitch": 81, "duration": 19, "velocity": 127}, {"time": 4231, "pitch": 81, "duration": 97, "velocity": 127}]}, {"program": 0, "is_drum": false, "name": "PIANO", "notes": [{"time": 55, "pitch": 45, "duration": 10, "velocity": 69}, {"time": 64, "pitch": 52, "duration": 2, "velocity": 66}, {"time": 64, "pitch": 57, "duration": 2, "velocity": 71}, {"time": 64, "pitch": 60, "duration": 3, "velocity": 68}, {"time": 67, "pitch": 40, "duration": 7, "velocity": 60}, {"time": 73, "pitch": 52, "duration": 2, "velocity": 86}, {"time": 73, "pitch": 57, "duration": 2, "velocity": 88}, {"time": 73, "pitch": 60, "duration": 2, "velocity": 79}, {"time": 79, "pitch": 45, "duration": 9, "velocity": 61}, {"time": 88, "pitch": 52, "duration": 2, "velocity": 59}, {"time": 88, "pitch": 57, "duration": 2, "velocity": 71}, {"time": 88, "pitch": 60, "duration": 2, "velocity": 71}, {"time": 91, "pitch": 40, "duration": 8, "velocity": 61}, {"time": 97, "pitch": 52, "duration": 2, "velocity": 77}, {"time": 97, "pitch": 57, "duration": 2, "velocity": 89}, {"time": 97, "pitch": 60, "duration": 2, "velocity": 81}, {"time": 103, "pitch": 45, "duration": 11, "velocity": 52}, {"time": 112, "pitch": 52, "duration": 2, "velocity": 72}, {"time": 112, "pitch": 57, "duration": 2, "velocity": 74}, {"time": 112, "pitch": 60, "duration": 3, "velocity": 74}, {"time": 115, "pitch": 40, "duration": 7, "velocity": 66}, {"time": 121, "pitch": 52, "duration": 2, "velocity": 68}, {"time": 121, "pitch": 57, "duration": 2, "velocity": 77}, {"time": 121, "pitch": 60, "duration": 2, "velocity": 75}, {"time": 127, "pitch": 45, "duration": 12, "velocity": 42}, {"time": 136, "pitch": 52, "duration": 2, "velocity": 67}, {"time": 136, "pitch": 57, "duration": 2, "velocity": 72}, {"time": 136, "pitch": 60, "duration": 2, "velocity": 72}, {"time": 139, "pitch": 40, "duration": 9, "velocity": 63}, {"time": 145, "pitch": 52, "duration": 2, "velocity": 64}, {"time": 145, "pitch": 57, "duration": 2, "velocity": 73}, {"time": 145, "pitch": 60, "duration": 2, "velocity": 68}, {"time": 151, "pitch": 45, "duration": 5, "velocity": 62}, {"time": 151, "pitch": 52, "duration": 4, "velocity": 72}, {"time": 151, "pitch": 57, "duration": 4, "velocity": 85}, {"time": 151, "pitch": 60, "duration": 5, "velocity": 78}, {"time": 169, "pitch": 43, "duration": 5, "velocity": 88}, {"time": 170, "pitch": 55, "duration": 3, "velocity": 61}, {"time": 170, "pitch": 62, "duration": 2, "velocity": 66}, {"time": 170, "pitch": 59, "duration": 4, "velocity": 71}, {"time": 175, "pitch": 45, "duration": 5, "velocity": 58}, {"time": 175, "pitch": 60, "duration": 5, "velocity": 72}, {"time": 175, "pitch": 57, "duration": 5, "velocity": 73}, {"time": 175, "pitch": 64, "duration": 5, "velocity": 72}, {"time": 193, "pitch": 43, "duration": 5, "velocity": 93}, {"time": 194, "pitch": 55, "duration": 2, "velocity": 68}, {"time": 194, "pitch": 59, "duration": 3, "velocity": 72}, {"time": 194, "pitch": 62, "duration": 3, "velocity": 64}, {"time": 199, "pitch": 45, "duration": 6, "velocity": 73}, {"time": 199, "pitch": 60, "duration": 6, "velocity": 71}, {"time": 199, "pitch": 57, "duration": 6, "velocity": 69}, {"time": 200, "pitch": 64, "duration": 5, "velocity": 70}, {"time": 247, "pitch": 45, "duration": 8, "velocity": 89}, {"time": 256, "pitch": 52, "duration": 2, "velocity": 77}, {"time": 256, "pitch": 57, "duration": 2, "velocity": 81}, {"time": 256, "pitch": 60, "duration": 2, "velocity": 71}, {"time": 259, "pitch": 40, "duration": 6, "velocity": 68}, {"time": 265, "pitch": 52, "duration": 2, "velocity": 78}, {"time": 265, "pitch": 57, "duration": 2, "velocity": 93}, {"time": 265, "pitch": 60, "duration": 2, "velocity": 78}, {"time": 271, "pitch": 45, "duration": 10, "velocity": 66}, {"time": 280, "pitch": 52, "duration": 2, "velocity": 79}, {"time": 280, "pitch": 57, "duration": 2, "velocity": 85}, {"time": 280, "pitch": 60, "duration": 3, "velocity": 78}, {"time": 283, "pitch": 40, "duration": 5, "velocity": 64}, {"time": 289, "pitch": 52, "duration": 2, "velocity": 73}, {"time": 289, "pitch": 57, "duration": 2, "velocity": 83}, {"time": 289, "pitch": 60, "duration": 2, "velocity": 76}, {"time": 295, "pitch": 45, "duration": 10, "velocity": 66}, {"time": 304, "pitch": 52, "duration": 2, "velocity": 66}, {"time": 304, "pitch": 57, "duration": 2, "velocity": 78}, {"time": 304, "pitch": 60, "duration": 2, "velocity": 74}, {"time": 307, "pitch": 40, "duration": 5, "velocity": 61}, {"time": 313, "pitch": 52, "duration": 2, "velocity": 59}, {"time": 313, "pitch": 57, "duration": 2, "velocity": 75}, {"time": 313, "pitch": 60, "duration": 2, "velocity": 67}, {"time": 319, "pitch": 45, "duration": 10, "velocity": 54}, {"time": 328, "pitch": 52, "duration": 2, "velocity": 72}, {"time": 328, "pitch": 57, "duration": 2, "velocity": 81}, {"time": 328, "pitch": 60, "duration": 2, "velocity": 75}, {"time": 331, "pitch": 40, "duration": 8, "velocity": 63}, {"time": 337, "pitch": 52, "duration": 2, "velocity": 56}, {"time": 337, "pitch": 57, "duration": 2, "velocity": 76}, {"time": 337, "pitch": 60, "duration": 2, "velocity": 73}, {"time": 343, "pitch": 45, "duration": 10, "velocity": 61}, {"time": 352, "pitch": 52, "duration": 2, "velocity": 59}, {"time": 352, "pitch": 57, "duration": 2, "velocity": 79}, {"time": 352, "pitch": 60, "duration": 2, "velocity": 69}, {"time": 355, "pitch": 40, "duration": 8, "velocity": 65}, {"time": 361, "pitch": 52, "duration": 2, "velocity": 78}, {"time": 361, "pitch": 57, "duration": 2, "velocity": 89}, {"time": 361, "pitch": 60, "duration": 2, "velocity": 79}, {"time": 367, "pitch": 38, "duration": 9, "velocity": 72}, {"time": 376, "pitch": 57, "duration": 2, "velocity": 72}, {"time": 376, "pitch": 62, "duration": 1, "velocity": 74}, {"time": 376, "pitch": 65, "duration": 2, "velocity": 72}, {"time": 379, "pitch": 36, "duration": 5, "velocity": 89}, {"time": 379, "pitch": 48, "duration": 5, "velocity": 89}, {"time": 384, "pitch": 62, "duration": 2, "velocity": 77}, {"time": 384, "pitch": 57, "duration": 2, "velocity": 75}, {"time": 384, "pitch": 65, "duration": 2, "velocity": 72}, {"time": 385, "pitch": 38, "duration": 7, "velocity": 73}, {"time": 385, "pitch": 50, "duration": 7, "velocity": 73}, {"time": 391, "pitch": 45, "duration": 10, "velocity": 73}, {"time": 400, "pitch": 52, "duration": 2, "velocity": 65}, {"time": 400, "pitch": 57, "duration": 2, "velocity": 77}, {"time": 400, "pitch": 60, "duration": 3, "velocity": 72}, {"time": 403, "pitch": 40, "duration": 7, "velocity": 71}, {"time": 409, "pitch": 52, "duration": 2, "velocity": 75}, {"time": 409, "pitch": 57, "duration": 2, "velocity": 88}, {"time": 409, "pitch": 60, "duration": 2, "velocity": 79}, {"time": 415, "pitch": 45, "duration": 10, "velocity": 60}, {"time": 424, "pitch": 52, "duration": 2, "velocity": 70}, {"time": 424, "pitch": 57, "duration": 2, "velocity": 73}, {"time": 424, "pitch": 60, "duration": 2, "velocity": 73}, {"time": 427, "pitch": 40, "duration": 7, "velocity": 71}, {"time": 433, "pitch": 52, "duration": 2, "velocity": 72}, {"time": 433, "pitch": 57, "duration": 2, "velocity": 81}, {"time": 433, "pitch": 60, "duration": 2, "velocity": 74}, {"time": 439, "pitch": 45, "duration": 10, "velocity": 73}, {"time": 448, "pitch": 52, "duration": 2, "velocity": 58}, {"time": 448, "pitch": 57, "duration": 2, "velocity": 70}, {"time": 448, "pitch": 60, "duration": 2, "velocity": 69}, {"time": 451, "pitch": 40, "duration": 7, "velocity": 63}, {"time": 457, "pitch": 52, "duration": 2, "velocity": 71}, {"time": 457, "pitch": 57, "duration": 2, "velocity": 81}, {"time": 457, "pitch": 60, "duration": 2, "velocity": 73}, {"time": 463, "pitch": 45, "duration": 10, "velocity": 59}, {"time": 472, "pitch": 52, "duration": 2, "velocity": 49}, {"time": 472, "pitch": 57, "duration": 2, "velocity": 72}, {"time": 472, "pitch": 60, "duration": 2, "velocity": 72}, {"time": 475, "pitch": 40, "duration": 10, "velocity": 67}, {"time": 481, "pitch": 52, "duration": 2, "velocity": 67}, {"time": 481, "pitch": 57, "duration": 2, "velocity": 74}, {"time": 481, "pitch": 60, "duration": 2, "velocity": 68}, {"time": 487, "pitch": 45, "duration": 11, "velocity": 59}, {"time": 496, "pitch": 52, "duration": 2, "velocity": 58}, {"time": 496, "pitch": 57, "duration": 2, "velocity": 78}, {"time": 496, "pitch": 60, "duration": 3, "velocity": 71}, {"time": 499, "pitch": 40, "duration": 9, "velocity": 63}, {"time": 505, "pitch": 52, "duration": 2, "velocity": 70}, {"time": 505, "pitch": 57, "duration": 2, "velocity": 82}, {"time": 505, "pitch": 60, "duration": 2, "velocity": 74}, {"time": 511, "pitch": 45, "duration": 11, "velocity": 64}, {"time": 520, "pitch": 52, "duration": 2, "velocity": 68}, {"time": 520, "pitch": 57, "duration": 2, "velocity": 79}, {"time": 520, "pitch": 60, "duration": 2, "velocity": 70}, {"time": 523, "pitch": 40, "duration": 9, "velocity": 61}, {"time": 529, "pitch": 52, "duration": 1, "velocity": 79}, {"time": 529, "pitch": 57, "duration": 2, "velocity": 92}, {"time": 529, "pitch": 60, "duration": 2, "velocity": 79}, {"time": 535, "pitch": 45, "duration": 9, "velocity": 100}, {"time": 544, "pitch": 52, "duration": 2, "velocity": 78}, {"time": 544, "pitch": 57, "duration": 2, "velocity": 86}, {"time": 544, "pitch": 60, "duration": 3, "velocity": 76}, {"time": 547, "pitch": 40, "duration": 7, "velocity": 82}, {"time": 553, "pitch": 52, "duration": 2, "velocity": 67}, {"time": 553, "pitch": 57, "duration": 2, "velocity": 88}, {"time": 553, "pitch": 60, "duration": 2, "velocity": 78}, {"time": 559, "pitch": 45, "duration": 10, "velocity": 88}, {"time": 568, "pitch": 52, "duration": 2, "velocity": 75}, {"time": 568, "pitch": 57, "duration": 2, "velocity": 82}, {"time": 568, "pitch": 60, "duration": 2, "velocity": 75}, {"time": 571, "pitch": 40, "duration": 7, "velocity": 71}, {"time": 577, "pitch": 52, "duration": 2, "velocity": 75}, {"time": 577, "pitch": 57, "duration": 2, "velocity": 73}, {"time": 577, "pitch": 60, "duration": 2, "velocity": 73}, {"time": 583, "pitch": 45, "duration": 11, "velocity": 77}, {"time": 592, "pitch": 52, "duration": 2, "velocity": 67}, {"time": 592, "pitch": 57, "duration": 2, "velocity": 79}, {"time": 592, "pitch": 60, "duration": 2, "velocity": 70}, {"time": 595, "pitch": 40, "duration": 7, "velocity": 69}, {"time": 601, "pitch": 55, "duration": 1, "velocity": 102}, {"time": 601, "pitch": 52, "duration": 2, "velocity": 74}, {"time": 601, "pitch": 57, "duration": 2, "velocity": 83}, {"time": 601, "pitch": 60, "duration": 2, "velocity": 81}, {"time": 607, "pitch": 38, "duration": 7, "velocity": 65}, {"time": 616, "pitch": 38, "duration": 3, "velocity": 100}, {"time": 616, "pitch": 57, "duration": 2, "velocity": 66}, {"time": 616, "pitch": 62, "duration": 2, "velocity": 90}, {"time": 616, "pitch": 65, "duration": 2, "velocity": 75}, {"time": 619, "pitch": 48, "duration": 6, "velocity": 85}, {"time": 625, "pitch": 50, "duration": 5, "velocity": 75}, {"time": 625, "pitch": 57, "duration": 2, "velocity": 81}, {"time": 625, "pitch": 62, "duration": 2, "velocity": 89}, {"time": 625, "pitch": 65, "duration": 2, "velocity": 81}, {"time": 631, "pitch": 45, "duration": 9, "velocity": 81}, {"time": 640, "pitch": 52, "duration": 2, "velocity": 70}, {"time": 640, "pitch": 57, "duration": 2, "velocity": 82}, {"time": 640, "pitch": 60, "duration": 3, "velocity": 73}, {"time": 643, "pitch": 40, "duration": 9, "velocity": 42}, {"time": 649, "pitch": 52, "duration": 2, "velocity": 74}, {"time": 649, "pitch": 57, "duration": 2, "velocity": 83}, {"time": 649, "pitch": 60, "duration": 2, "velocity": 76}, {"time": 655, "pitch": 45, "duration": 11, "velocity": 60}, {"time": 664, "pitch": 52, "duration": 2, "velocity": 65}, {"time": 664, "pitch": 57, "duration": 2, "velocity": 73}, {"time": 664, "pitch": 60, "duration": 3, "velocity": 72}, {"time": 667, "pitch": 40, "duration": 7, "velocity": 70}, {"time": 673, "pitch": 52, "duration": 2, "velocity": 72}, {"time": 673, "pitch": 57, "duration": 2, "velocity": 81}, {"time": 673, "pitch": 60, "duration": 2, "velocity": 68}, {"time": 679, "pitch": 45, "duration": 11, "velocity": 71}, {"time": 688, "pitch": 52, "duration": 2, "velocity": 60}, {"time": 688, "pitch": 57, "duration": 2, "velocity": 75}, {"time": 688, "pitch": 60, "duration": 3, "velocity": 70}, {"time": 691, "pitch": 40, "duration": 8, "velocity": 71}, {"time": 697, "pitch": 52, "duration": 2, "velocity": 69}, {"time": 697, "pitch": 57, "duration": 2, "velocity": 77}, {"time": 697, "pitch": 60, "duration": 2, "velocity": 72}, {"time": 703, "pitch": 45, "duration": 10, "velocity": 69}, {"time": 712, "pitch": 52, "duration": 2, "velocity": 64}, {"time": 712, "pitch": 57, "duration": 2, "velocity": 74}, {"time": 712, "pitch": 60, "duration": 3, "velocity": 72}, {"time": 715, "pitch": 40, "duration": 7, "velocity": 66}, {"time": 721, "pitch": 52, "duration": 2, "velocity": 75}, {"time": 721, "pitch": 57, "duration": 2, "velocity": 86}, {"time": 721, "pitch": 60, "duration": 2, "velocity": 75}, {"time": 727, "pitch": 45, "duration": 10, "velocity": 68}, {"time": 736, "pitch": 52, "duration": 2, "velocity": 63}, {"time": 736, "pitch": 57, "duration": 2, "velocity": 77}, {"time": 736, "pitch": 60, "duration": 2, "velocity": 72}, {"time": 739, "pitch": 40, "duration": 8, "velocity": 59}, {"time": 745, "pitch": 52, "duration": 2, "velocity": 72}, {"time": 745, "pitch": 57, "duration": 2, "velocity": 85}, {"time": 745, "pitch": 60, "duration": 2, "velocity": 76}, {"time": 751, "pitch": 45, "duration": 10, "velocity": 70}, {"time": 760, "pitch": 52, "duration": 2, "velocity": 67}, {"time": 760, "pitch": 57, "duration": 2, "velocity": 81}, {"time": 760, "pitch": 60, "duration": 2, "velocity": 72}, {"time": 763, "pitch": 40, "duration": 7, "velocity": 66}, {"time": 769, "pitch": 52, "duration": 2, "velocity": 72}, {"time": 769, "pitch": 57, "duration": 2, "velocity": 79}, {"time": 769, "pitch": 60, "duration": 2, "velocity": 71}, {"time": 775, "pitch": 45, "duration": 10, "velocity": 85}, {"time": 784, "pitch": 52, "duration": 2, "velocity": 64}, {"time": 784, "pitch": 57, "duration": 2, "velocity": 82}, {"time": 784, "pitch": 60, "duration": 2, "velocity": 71}, {"time": 787, "pitch": 40, "duration": 8, "velocity": 76}, {"time": 793, "pitch": 57, "duration": 2, "velocity": 88}, {"time": 793, "pitch": 60, "duration": 2, "velocity": 88}, {"time": 799, "pitch": 50, "duration": 11, "velocity": 90}, {"time": 808, "pitch": 57, "duration": 3, "velocity": 74}, {"time": 808, "pitch": 62, "duration": 2, "velocity": 86}, {"time": 808, "pitch": 65, "duration": 2, "velocity": 77}, {"time": 811, "pitch": 45, "duration": 9, "velocity": 72}, {"time": 817, "pitch": 57, "duration": 2, "velocity": 82}, {"time": 817, "pitch": 62, "duration": 2, "velocity": 93}, {"time": 817, "pitch": 65, "duration": 2, "velocity": 85}, {"time": 823, "pitch": 50, "duration": 13, "velocity": 69}, {"time": 832, "pitch": 57, "duration": 2, "velocity": 72}, {"time": 832, "pitch": 62, "duration": 2, "velocity": 83}, {"time": 832, "pitch": 65, "duration": 2, "velocity": 78}, {"time": 835, "pitch": 45, "duration": 8, "velocity": 92}, {"time": 841, "pitch": 57, "duration": 2, "velocity": 75}, {"time": 841, "pitch": 62, "duration": 2, "velocity": 85}, {"time": 841, "pitch": 65, "duration": 2, "velocity": 73}, {"time": 847, "pitch": 40, "duration": 9, "velocity": 82}, {"time": 856, "pitch": 52, "duration": 2, "velocity": 64}, {"time": 856, "pitch": 55, "duration": 2, "velocity": 71}, {"time": 856, "pitch": 59, "duration": 3, "velocity": 72}, {"time": 859, "pitch": 47, "duration": 7, "velocity": 83}, {"time": 865, "pitch": 52, "duration": 2, "velocity": 75}, {"time": 865, "pitch": 55, "duration": 2, "velocity": 90}, {"time": 865, "pitch": 59, "duration": 2, "velocity": 88}, {"time": 871, "pitch": 45, "duration": 8, "velocity": 92}, {"time": 880, "pitch": 52, "duration": 2, "velocity": 72}, {"time": 880, "pitch": 57, "duration": 2, "velocity": 86}, {"time": 880, "pitch": 60, "duration": 2, "velocity": 73}, {"time": 883, "pitch": 40, "duration": 8, "velocity": 77}, {"time": 889, "pitch": 52, "duration": 2, "velocity": 77}, {"time": 889, "pitch": 57, "duration": 2, "velocity": 95}, {"time": 889, "pitch": 60, "duration": 2, "velocity": 82}, {"time": 895, "pitch": 45, "duration": 10, "velocity": 58}, {"time": 904, "pitch": 52, "duration": 2, "velocity": 45}, {"time": 904, "pitch": 57, "duration": 2, "velocity": 71}, {"time": 904, "pitch": 60, "duration": 3, "velocity": 69}, {"time": 907, "pitch": 40, "duration": 7, "velocity": 78}, {"time": 913, "pitch": 52, "duration": 2, "velocity": 65}, {"time": 913, "pitch": 57, "duration": 2, "velocity": 89}, {"time": 913, "pitch": 60, "duration": 2, "velocity": 77}, {"time": 919, "pitch": 38, "duration": 8, "velocity": 93}, {"time": 925, "pitch": 50, "duration": 2, "velocity": 54}, {"time": 925, "pitch": 57, "duration": 2, "velocity": 79}, {"time": 925, "pitch": 62, "duration": 1, "velocity": 83}, {"time": 925, "pitch": 65, "duration": 2, "velocity": 71}, {"time": 928, "pitch": 50, "duration": 2, "velocity": 82}, {"time": 928, "pitch": 57, "duration": 2, "velocity": 71}, {"time": 928, "pitch": 62, "duration": 2, "velocity": 78}, {"time": 928, "pitch": 65, "duration": 2, "velocity": 75}, {"time": 931, "pitch": 33, "duration": 8, "velocity": 75}, {"time": 937, "pitch": 50, "duration": 2, "velocity": 89}, {"time": 937, "pitch": 57, "duration": 2, "velocity": 82}, {"time": 937, "pitch": 62, "duration": 2, "velocity": 93}, {"time": 937, "pitch": 65, "duration": 2, "velocity": 85}, {"time": 943, "pitch": 38, "duration": 9, "velocity": 76}, {"time": 949, "pitch": 50, "duration": 2, "velocity": 74}, {"time": 949, "pitch": 57, "duration": 2, "velocity": 92}, {"time": 949, "pitch": 62, "duration": 1, "velocity": 93}, {"time": 949, "pitch": 65, "duration": 2, "velocity": 86}, {"time": 952, "pitch": 50, "duration": 2, "velocity": 71}, {"time": 952, "pitch": 57, "duration": 2, "velocity": 61}, {"time": 952, "pitch": 62, "duration": 2, "velocity": 68}, {"time": 952, "pitch": 65, "duration": 2, "velocity": 69}, {"time": 955, "pitch": 33, "duration": 9, "velocity": 79}, {"time": 961, "pitch": 50, "duration": 2, "velocity": 83}, {"time": 961, "pitch": 57, "duration": 2, "velocity": 85}, {"time": 961, "pitch": 62, "duration": 2, "velocity": 88}, {"time": 961, "pitch": 65, "duration": 2, "velocity": 78}, {"time": 967, "pitch": 40, "duration": 9, "velocity": 89}, {"time": 973, "pitch": 52, "duration": 2, "velocity": 71}, {"time": 973, "pitch": 59, "duration": 2, "velocity": 92}, {"time": 973, "pitch": 64, "duration": 2, "velocity": 93}, {"time": 973, "pitch": 67, "duration": 1, "velocity": 79}, {"time": 976, "pitch": 52, "duration": 2, "velocity": 76}, {"time": 976, "pitch": 59, "duration": 2, "velocity": 68}, {"time": 976, "pitch": 64, "duration": 2, "velocity": 72}, {"time": 976, "pitch": 67, "duration": 1, "velocity": 65}, {"time": 979, "pitch": 35, "duration": 9, "velocity": 73}, {"time": 985, "pitch": 52, "duration": 2, "velocity": 96}, {"time": 985, "pitch": 59, "duration": 1, "velocity": 75}, {"time": 985, "pitch": 64, "duration": 1, "velocity": 88}, {"time": 985, "pitch": 67, "duration": 1, "velocity": 78}, {"time": 991, "pitch": 40, "duration": 11, "velocity": 81}, {"time": 997, "pitch": 52, "duration": 2, "velocity": 92}, {"time": 997, "pitch": 59, "duration": 1, "velocity": 90}, {"time": 997, "pitch": 64, "duration": 2, "velocity": 95}, {"time": 997, "pitch": 67, "duration": 1, "velocity": 88}, {"time": 1000, "pitch": 52, "duration": 2, "velocity": 81}, {"time": 1000, "pitch": 59, "duration": 2, "velocity": 79}, {"time": 1000, "pitch": 64, "duration": 2, "velocity": 83}, {"time": 1000, "pitch": 67, "duration": 2, "velocity": 78}, {"time": 1003, "pitch": 35, "duration": 7, "velocity": 78}, {"time": 1009, "pitch": 40, "duration": 3, "velocity": 79}, {"time": 1009, "pitch": 52, "duration": 2, "velocity": 93}, {"time": 1009, "pitch": 59, "duration": 2, "velocity": 86}, {"time": 1009, "pitch": 64, "duration": 2, "velocity": 95}, {"time": 1009, "pitch": 67, "duration": 1, "velocity": 86}, {"time": 1015, "pitch": 45, "duration": 9, "velocity": 97}, {"time": 1021, "pitch": 57, "duration": 1, "velocity": 92}, {"time": 1021, "pitch": 60, "duration": 1, "velocity": 95}, {"time": 1021, "pitch": 64, "duration": 1, "velocity": 78}, {"time": 1024, "pitch": 57, "duration": 2, "velocity": 53}, {"time": 1024, "pitch": 60, "duration": 2, "velocity": 63}, {"time": 1024, "pitch": 64, "duration": 2, "velocity": 68}, {"time": 1027, "pitch": 40, "duration": 9, "velocity": 83}, {"time": 1033, "pitch": 45, "duration": 2, "velocity": 96}, {"time": 1033, "pitch": 57, "duration": 1, "velocity": 85}, {"time": 1033, "pitch": 60, "duration": 1, "velocity": 92}, {"time": 1033, "pitch": 64, "duration": 2, "velocity": 89}, {"time": 1039, "pitch": 45, "duration": 7, "velocity": 107}, {"time": 1045, "pitch": 57, "duration": 1, "velocity": 95}, {"time": 1045, "pitch": 60, "duration": 1, "velocity": 95}, {"time": 1045, "pitch": 64, "duration": 2, "velocity": 93}, {"time": 1048, "pitch": 45, "duration": 3, "velocity": 67}, {"time": 1048, "pitch": 57, "duration": 2, "velocity": 63}, {"time": 1048, "pitch": 60, "duration": 2, "velocity": 75}, {"time": 1048, "pitch": 64, "duration": 2, "velocity": 67}, {"time": 1051, "pitch": 40, "duration": 7, "velocity": 89}, {"time": 1057, "pitch": 45, "duration": 2, "velocity": 92}, {"time": 1057, "pitch": 57, "duration": 2, "velocity": 90}, {"time": 1057, "pitch": 60, "duration": 2, "velocity": 96}, {"time": 1057, "pitch": 64, "duration": 2, "velocity": 90}, {"time": 1063, "pitch": 40, "duration": 9, "velocity": 97}, {"time": 1069, "pitch": 59, "duration": 2, "velocity": 86}, {"time": 1069, "pitch": 64, "duration": 2, "velocity": 86}, {"time": 1069, "pitch": 67, "duration": 1, "velocity": 77}, {"time": 1072, "pitch": 52, "duration": 2, "velocity": 62}, {"time": 1072, "pitch": 59, "duration": 2, "velocity": 59}, {"time": 1072, "pitch": 64, "duration": 2, "velocity": 67}, {"time": 1072, "pitch": 67, "duration": 2, "velocity": 58}, {"time": 1075, "pitch": 35, "duration": 9, "velocity": 96}, {"time": 1081, "pitch": 52, "duration": 2, "velocity": 92}, {"time": 1081, "pitch": 59, "duration": 2, "velocity": 95}, {"time": 1081, "pitch": 64, "duration": 2, "velocity": 100}, {"time": 1081, "pitch": 67, "duration": 1, "velocity": 92}, {"time": 1087, "pitch": 38, "duration": 9, "velocity": 85}, {"time": 1093, "pitch": 50, "duration": 2, "velocity": 81}, {"time": 1093, "pitch": 57, "duration": 1, "velocity": 86}, {"time": 1093, "pitch": 62, "duration": 1, "velocity": 81}, {"time": 1093, "pitch": 65, "duration": 1, "velocity": 71}, {"time": 1096, "pitch": 50, "duration": 2, "velocity": 75}, {"time": 1096, "pitch": 57, "duration": 2, "velocity": 63}, {"time": 1096, "pitch": 62, "duration": 2, "velocity": 86}, {"time": 1096, "pitch": 65, "duration": 2, "velocity": 81}, {"time": 1099, "pitch": 33, "duration": 8, "velocity": 83}, {"time": 1105, "pitch": 50, "duration": 2, "velocity": 92}, {"time": 1105, "pitch": 57, "duration": 1, "velocity": 89}, {"time": 1105, "pitch": 62, "duration": 2, "velocity": 97}, {"time": 1105, "pitch": 65, "duration": 1, "velocity": 83}, {"time": 1111, "pitch": 45, "duration": 8, "velocity": 99}, {"time": 1117, "pitch": 57, "duration": 2, "velocity": 86}, {"time": 1117, "pitch": 64, "duration": 1, "velocity": 90}, {"time": 1117, "pitch": 69, "duration": 2, "velocity": 93}, {"time": 1117, "pitch": 72, "duration": 2, "velocity": 95}, {"time": 1120, "pitch": 57, "duration": 2, "velocity": 92}, {"time": 1120, "pitch": 64, "duration": 2, "velocity": 71}, {"time": 1120, "pitch": 69, "duration": 2, "velocity": 71}, {"time": 1120, "pitch": 72, "duration": 2, "velocity": 74}, {"time": 1123, "pitch": 40, "duration": 9, "velocity": 96}, {"time": 1129, "pitch": 57, "duration": 2, "velocity": 90}, {"time": 1129, "pitch": 64, "duration": 1, "velocity": 86}, {"time": 1129, "pitch": 69, "duration": 1, "velocity": 96}, {"time": 1129, "pitch": 72, "duration": 2, "velocity": 96}, {"time": 1135, "pitch": 45, "duration": 8, "velocity": 99}, {"time": 1141, "pitch": 57, "duration": 1, "velocity": 63}, {"time": 1141, "pitch": 64, "duration": 1, "velocity": 88}, {"time": 1141, "pitch": 69, "duration": 1, "velocity": 88}, {"time": 1141, "pitch": 72, "duration": 2, "velocity": 92}, {"time": 1144, "pitch": 57, "duration": 2, "velocity": 77}, {"time": 1144, "pitch": 64, "duration": 2, "velocity": 74}, {"time": 1144, "pitch": 69, "duration": 2, "velocity": 85}, {"time": 1144, "pitch": 72, "duration": 2, "velocity": 75}, {"time": 1147, "pitch": 40, "duration": 6, "velocity": 85}, {"time": 1153, "pitch": 43, "duration": 4, "velocity": 90}, {"time": 1153, "pitch": 57, "duration": 2, "velocity": 100}, {"time": 1153, "pitch": 64, "duration": 1, "velocity": 71}, {"time": 1153, "pitch": 69, "duration": 1, "velocity": 85}, {"time": 1153, "pitch": 72, "duration": 2, "velocity": 79}, {"time": 1159, "pitch": 45, "duration": 8, "velocity": 89}, {"time": 1168, "pitch": 52, "duration": 2, "velocity": 77}, {"time": 1168, "pitch": 57, "duration": 2, "velocity": 81}, {"time": 1168, "pitch": 60, "duration": 2, "velocity": 71}, {"time": 1171, "pitch": 40, "duration": 6, "velocity": 68}, {"time": 1177, "pitch": 52, "duration": 2, "velocity": 78}, {"time": 1177, "pitch": 57, "duration": 2, "velocity": 93}, {"time": 1177, "pitch": 60, "duration": 2, "velocity": 78}, {"time": 1183, "pitch": 45, "duration": 10, "velocity": 66}, {"time": 1192, "pitch": 52, "duration": 2, "velocity": 79}, {"time": 1192, "pitch": 57, "duration": 2, "velocity": 85}, {"time": 1192, "pitch": 60, "duration": 3, "velocity": 78}, {"time": 1195, "pitch": 40, "duration": 5, "velocity": 64}, {"time": 1201, "pitch": 52, "duration": 2, "velocity": 73}, {"time": 1201, "pitch": 57, "duration": 2, "velocity": 83}, {"time": 1201, "pitch": 60, "duration": 2, "velocity": 76}, {"time": 1207, "pitch": 45, "duration": 10, "velocity": 66}, {"time": 1216, "pitch": 52, "duration": 2, "velocity": 66}, {"time": 1216, "pitch": 57, "duration": 2, "velocity": 78}, {"time": 1216, "pitch": 60, "duration": 2, "velocity": 74}, {"time": 1219, "pitch": 40, "duration": 5, "velocity": 61}, {"time": 1225, "pitch": 52, "duration": 2, "velocity": 59}, {"time": 1225, "pitch": 57, "duration": 2, "velocity": 75}, {"time": 1225, "pitch": 60, "duration": 2, "velocity": 67}, {"time": 1231, "pitch": 45, "duration": 10, "velocity": 54}, {"time": 1240, "pitch": 52, "duration": 2, "velocity": 72}, {"time": 1240, "pitch": 57, "duration": 2, "velocity": 81}, {"time": 1240, "pitch": 60, "duration": 2, "velocity": 75}, {"time": 1243, "pitch": 40, "duration": 8, "velocity": 63}, {"time": 1249, "pitch": 52, "duration": 2, "velocity": 56}, {"time": 1249, "pitch": 57, "duration": 2, "velocity": 76}, {"time": 1249, "pitch": 60, "duration": 2, "velocity": 73}, {"time": 1255, "pitch": 45, "duration": 10, "velocity": 61}, {"time": 1264, "pitch": 52, "duration": 2, "velocity": 59}, {"time": 1264, "pitch": 57, "duration": 2, "velocity": 79}, {"time": 1264, "pitch": 60, "duration": 2, "velocity": 69}, {"time": 1267, "pitch": 40, "duration": 8, "velocity": 65}, {"time": 1273, "pitch": 52, "duration": 2, "velocity": 78}, {"time": 1273, "pitch": 57, "duration": 2, "velocity": 89}, {"time": 1273, "pitch": 60, "duration": 2, "velocity": 79}, {"time": 1279, "pitch": 38, "duration": 9, "velocity": 72}, {"time": 1288, "pitch": 57, "duration": 2, "velocity": 72}, {"time": 1288, "pitch": 62, "duration": 1, "velocity": 74}, {"time": 1288, "pitch": 65, "duration": 2, "velocity": 72}, {"time": 1291, "pitch": 36, "duration": 5, "velocity": 89}, {"time": 1291, "pitch": 48, "duration": 5, "velocity": 89}, {"time": 1296, "pitch": 62, "duration": 2, "velocity": 77}, {"time": 1296, "pitch": 57, "duration": 2, "velocity": 75}, {"time": 1296, "pitch": 65, "duration": 2, "velocity": 72}, {"time": 1297, "pitch": 38, "duration": 7, "velocity": 73}, {"time": 1297, "pitch": 50, "duration": 7, "velocity": 73}, {"time": 1303, "pitch": 45, "duration": 10, "velocity": 73}, {"time": 1312, "pitch": 52, "duration": 2, "velocity": 65}, {"time": 1312, "pitch": 57, "duration": 2, "velocity": 77}, {"time": 1312, "pitch": 60, "duration": 3, "velocity": 72}, {"time": 1315, "pitch": 40, "duration": 7, "velocity": 71}, {"time": 1321, "pitch": 52, "duration": 2, "velocity": 75}, {"time": 1321, "pitch": 57, "duration": 2, "velocity": 88}, {"time": 1321, "pitch": 60, "duration": 2, "velocity": 79}, {"time": 1327, "pitch": 45, "duration": 10, "velocity": 60}, {"time": 1336, "pitch": 52, "duration": 2, "velocity": 70}, {"time": 1336, "pitch": 57, "duration": 2, "velocity": 73}, {"time": 1336, "pitch": 60, "duration": 2, "velocity": 73}, {"time": 1339, "pitch": 40, "duration": 7, "velocity": 71}, {"time": 1345, "pitch": 52, "duration": 2, "velocity": 72}, {"time": 1345, "pitch": 57, "duration": 2, "velocity": 81}, {"time": 1345, "pitch": 60, "duration": 2, "velocity": 74}, {"time": 1351, "pitch": 45, "duration": 10, "velocity": 73}, {"time": 1360, "pitch": 52, "duration": 2, "velocity": 58}, {"time": 1360, "pitch": 57, "duration": 2, "velocity": 70}, {"time": 1360, "pitch": 60, "duration": 2, "velocity": 69}, {"time": 1363, "pitch": 40, "duration": 7, "velocity": 63}, {"time": 1369, "pitch": 52, "duration": 2, "velocity": 71}, {"time": 1369, "pitch": 57, "duration": 2, "velocity": 81}, {"time": 1369, "pitch": 60, "duration": 2, "velocity": 73}, {"time": 1375, "pitch": 45, "duration": 10, "velocity": 59}, {"time": 1384, "pitch": 52, "duration": 2, "velocity": 49}, {"time": 1384, "pitch": 57, "duration": 2, "velocity": 72}, {"time": 1384, "pitch": 60, "duration": 2, "velocity": 72}, {"time": 1387, "pitch": 40, "duration": 10, "velocity": 67}, {"time": 1393, "pitch": 52, "duration": 2, "velocity": 67}, {"time": 1393, "pitch": 57, "duration": 2, "velocity": 74}, {"time": 1393, "pitch": 60, "duration": 2, "velocity": 68}, {"time": 1399, "pitch": 45, "duration": 11, "velocity": 59}, {"time": 1408, "pitch": 52, "duration": 2, "velocity": 58}, {"time": 1408, "pitch": 57, "duration": 2, "velocity": 78}, {"time": 1408, "pitch": 60, "duration": 3, "velocity": 71}, {"time": 1411, "pitch": 40, "duration": 9, "velocity": 63}, {"time": 1417, "pitch": 52, "duration": 2, "velocity": 70}, {"time": 1417, "pitch": 57, "duration": 2, "velocity": 82}, {"time": 1417, "pitch": 60, "duration": 2, "velocity": 74}, {"time": 1423, "pitch": 45, "duration": 11, "velocity": 64}, {"time": 1432, "pitch": 52, "duration": 2, "velocity": 68}, {"time": 1432, "pitch": 57, "duration": 2, "velocity": 79}, {"time": 1432, "pitch": 60, "duration": 2, "velocity": 70}, {"time": 1435, "pitch": 40, "duration": 9, "velocity": 61}, {"time": 1441, "pitch": 52, "duration": 1, "velocity": 79}, {"time": 1441, "pitch": 57, "duration": 2, "velocity": 92}, {"time": 1441, "pitch": 60, "duration": 2, "velocity": 79}, {"time": 1447, "pitch": 45, "duration": 9, "velocity": 100}, {"time": 1456, "pitch": 52, "duration": 2, "velocity": 78}, {"time": 1456, "pitch": 57, "duration": 2, "velocity": 86}, {"time": 1456, "pitch": 60, "duration": 3, "velocity": 76}, {"time": 1459, "pitch": 40, "duration": 7, "velocity": 82}, {"time": 1465, "pitch": 52, "duration": 2, "velocity": 67}, {"time": 1465, "pitch": 57, "duration": 2, "velocity": 88}, {"time": 1465, "pitch": 60, "duration": 2, "velocity": 78}, {"time": 1471, "pitch": 45, "duration": 10, "velocity": 88}, {"time": 1480, "pitch": 52, "duration": 2, "velocity": 75}, {"time": 1480, "pitch": 57, "duration": 2, "velocity": 82}, {"time": 1480, "pitch": 60, "duration": 2, "velocity": 75}, {"time": 1483, "pitch": 40, "duration": 7, "velocity": 71}, {"time": 1489, "pitch": 52, "duration": 2, "velocity": 75}, {"time": 1489, "pitch": 57, "duration": 2, "velocity": 73}, {"time": 1489, "pitch": 60, "duration": 2, "velocity": 73}, {"time": 1495, "pitch": 45, "duration": 11, "velocity": 77}, {"time": 1504, "pitch": 52, "duration": 2, "velocity": 67}, {"time": 1504, "pitch": 57, "duration": 2, "velocity": 79}, {"time": 1504, "pitch": 60, "duration": 2, "velocity": 70}, {"time": 1507, "pitch": 40, "duration": 7, "velocity": 69}, {"time": 1513, "pitch": 52, "duration": 2, "velocity": 74}, {"time": 1513, "pitch": 57, "duration": 2, "velocity": 83}, {"time": 1513, "pitch": 60, "duration": 2, "velocity": 81}, {"time": 1519, "pitch": 50, "duration": 11, "velocity": 65}, {"time": 1528, "pitch": 57, "duration": 2, "velocity": 66}, {"time": 1528, "pitch": 62, "duration": 2, "velocity": 90}, {"time": 1528, "pitch": 65, "duration": 2, "velocity": 75}, {"time": 1531, "pitch": 45, "duration": 9, "velocity": 73}, {"time": 1537, "pitch": 57, "duration": 2, "velocity": 81}, {"time": 1537, "pitch": 62, "duration": 2, "velocity": 89}, {"time": 1537, "pitch": 65, "duration": 2, "velocity": 81}, {"time": 1543, "pitch": 45, "duration": 9, "velocity": 81}, {"time": 1552, "pitch": 52, "duration": 2, "velocity": 70}, {"time": 1552, "pitch": 57, "duration": 2, "velocity": 82}, {"time": 1552, "pitch": 60, "duration": 3, "velocity": 73}, {"time": 1555, "pitch": 40, "duration": 9, "velocity": 42}, {"time": 1561, "pitch": 52, "duration": 2, "velocity": 74}, {"time": 1561, "pitch": 57, "duration": 2, "velocity": 83}, {"time": 1561, "pitch": 60, "duration": 2, "velocity": 76}, {"time": 1567, "pitch": 45, "duration": 11, "velocity": 60}, {"time": 1576, "pitch": 52, "duration": 2, "velocity": 65}, {"time": 1576, "pitch": 57, "duration": 2, "velocity": 73}, {"time": 1576, "pitch": 60, "duration": 3, "velocity": 72}, {"time": 1579, "pitch": 40, "duration": 7, "velocity": 70}, {"time": 1585, "pitch": 52, "duration": 2, "velocity": 72}, {"time": 1585, "pitch": 57, "duration": 2, "velocity": 81}, {"time": 1585, "pitch": 60, "duration": 2, "velocity": 68}, {"time": 1591, "pitch": 45, "duration": 11, "velocity": 71}, {"time": 1600, "pitch": 52, "duration": 2, "velocity": 60}, {"time": 1600, "pitch": 57, "duration": 2, "velocity": 75}, {"time": 1600, "pitch": 60, "duration": 3, "velocity": 70}, {"time": 1603, "pitch": 40, "duration": 8, "velocity": 71}, {"time": 1609, "pitch": 52, "duration": 2, "velocity": 69}, {"time": 1609, "pitch": 57, "duration": 2, "velocity": 77}, {"time": 1609, "pitch": 60, "duration": 2, "velocity": 72}, {"time": 1615, "pitch": 45, "duration": 10, "velocity": 69}, {"time": 1624, "pitch": 52, "duration": 2, "velocity": 64}, {"time": 1624, "pitch": 57, "duration": 2, "velocity": 74}, {"time": 1624, "pitch": 60, "duration": 3, "velocity": 72}, {"time": 1627, "pitch": 40, "duration": 7, "velocity": 66}, {"time": 1633, "pitch": 52, "duration": 2, "velocity": 75}, {"time": 1633, "pitch": 57, "duration": 2, "velocity": 86}, {"time": 1633, "pitch": 60, "duration": 2, "velocity": 75}, {"time": 1639, "pitch": 45, "duration": 10, "velocity": 68}, {"time": 1648, "pitch": 52, "duration": 2, "velocity": 63}, {"time": 1648, "pitch": 57, "duration": 2, "velocity": 77}, {"time": 1648, "pitch": 60, "duration": 2, "velocity": 72}, {"time": 1651, "pitch": 40, "duration": 8, "velocity": 59}, {"time": 1657, "pitch": 52, "duration": 2, "velocity": 72}, {"time": 1657, "pitch": 57, "duration": 2, "velocity": 85}, {"time": 1657, "pitch": 60, "duration": 2, "velocity": 76}, {"time": 1663, "pitch": 45, "duration": 10, "velocity": 70}, {"time": 1672, "pitch": 52, "duration": 2, "velocity": 67}, {"time": 1672, "pitch": 57, "duration": 2, "velocity": 81}, {"time": 1672, "pitch": 60, "duration": 2, "velocity": 72}, {"time": 1675, "pitch": 40, "duration": 7, "velocity": 66}, {"time": 1681, "pitch": 52, "duration": 2, "velocity": 72}, {"time": 1681, "pitch": 57, "duration": 2, "velocity": 79}, {"time": 1681, "pitch": 60, "duration": 2, "velocity": 71}, {"time": 1687, "pitch": 45, "duration": 10, "velocity": 85}, {"time": 1696, "pitch": 52, "duration": 2, "velocity": 64}, {"time": 1696, "pitch": 57, "duration": 2, "velocity": 82}, {"time": 1696, "pitch": 60, "duration": 2, "velocity": 71}, {"time": 1699, "pitch": 40, "duration": 8, "velocity": 76}, {"time": 1705, "pitch": 57, "duration": 2, "velocity": 88}, {"time": 1705, "pitch": 60, "duration": 2, "velocity": 88}, {"time": 1711, "pitch": 50, "duration": 11, "velocity": 90}, {"time": 1720, "pitch": 57, "duration": 3, "velocity": 74}, {"time": 1720, "pitch": 62, "duration": 2, "velocity": 86}, {"time": 1720, "pitch": 65, "duration": 2, "velocity": 77}, {"time": 1723, "pitch": 45, "duration": 9, "velocity": 72}, {"time": 1729, "pitch": 57, "duration": 2, "velocity": 82}, {"time": 1729, "pitch": 62, "duration": 2, "velocity": 93}, {"time": 1729, "pitch": 65, "duration": 2, "velocity": 85}, {"time": 1735, "pitch": 50, "duration": 13, "velocity": 69}, {"time": 1744, "pitch": 57, "duration": 2, "velocity": 72}, {"time": 1744, "pitch": 62, "duration": 2, "velocity": 83}, {"time": 1744, "pitch": 65, "duration": 2, "velocity": 78}, {"time": 1747, "pitch": 45, "duration": 8, "velocity": 92}, {"time": 1753, "pitch": 57, "duration": 2, "velocity": 75}, {"time": 1753, "pitch": 62, "duration": 2, "velocity": 85}, {"time": 1753, "pitch": 65, "duration": 2, "velocity": 73}, {"time": 1759, "pitch": 40, "duration": 9, "velocity": 82}, {"time": 1768, "pitch": 52, "duration": 2, "velocity": 64}, {"time": 1768, "pitch": 55, "duration": 2, "velocity": 71}, {"time": 1768, "pitch": 59, "duration": 3, "velocity": 72}, {"time": 1771, "pitch": 47, "duration": 7, "velocity": 83}, {"time": 1777, "pitch": 52, "duration": 2, "velocity": 75}, {"time": 1777, "pitch": 55, "duration": 2, "velocity": 90}, {"time": 1777, "pitch": 59, "duration": 2, "velocity": 88}, {"time": 1783, "pitch": 45, "duration": 8, "velocity": 92}, {"time": 1792, "pitch": 52, "duration": 2, "velocity": 72}, {"time": 1792, "pitch": 57, "duration": 2, "velocity": 86}, {"time": 1792, "pitch": 60, "duration": 2, "velocity": 73}, {"time": 1795, "pitch": 40, "duration": 8, "velocity": 77}, {"time": 1801, "pitch": 52, "duration": 2, "velocity": 77}, {"time": 1801, "pitch": 57, "duration": 2, "velocity": 95}, {"time": 1801, "pitch": 60, "duration": 2, "velocity": 82}, {"time": 1807, "pitch": 45, "duration": 10, "velocity": 58}, {"time": 1816, "pitch": 52, "duration": 2, "velocity": 45}, {"time": 1816, "pitch": 57, "duration": 2, "velocity": 71}, {"time": 1816, "pitch": 60, "duration": 3, "velocity": 69}, {"time": 1819, "pitch": 40, "duration": 7, "velocity": 78}, {"time": 1825, "pitch": 52, "duration": 2, "velocity": 65}, {"time": 1825, "pitch": 57, "duration": 2, "velocity": 89}, {"time": 1825, "pitch": 60, "duration": 2, "velocity": 77}, {"time": 1831, "pitch": 38, "duration": 8, "velocity": 93}, {"time": 1837, "pitch": 50, "duration": 2, "velocity": 54}, {"time": 1837, "pitch": 57, "duration": 2, "velocity": 79}, {"time": 1837, "pitch": 62, "duration": 1, "velocity": 83}, {"time": 1837, "pitch": 65, "duration": 2, "velocity": 71}, {"time": 1840, "pitch": 50, "duration": 2, "velocity": 82}, {"time": 1840, "pitch": 57, "duration": 2, "velocity": 71}, {"time": 1840, "pitch": 62, "duration": 2, "velocity": 78}, {"time": 1840, "pitch": 65, "duration": 2, "velocity": 75}, {"time": 1843, "pitch": 33, "duration": 8, "velocity": 75}, {"time": 1849, "pitch": 50, "duration": 2, "velocity": 89}, {"time": 1849, "pitch": 57, "duration": 2, "velocity": 82}, {"time": 1849, "pitch": 62, "duration": 2, "velocity": 93}, {"time": 1849, "pitch": 65, "duration": 2, "velocity": 85}, {"time": 1855, "pitch": 38, "duration": 9, "velocity": 76}, {"time": 1861, "pitch": 50, "duration": 2, "velocity": 74}, {"time": 1861, "pitch": 57, "duration": 2, "velocity": 92}, {"time": 1861, "pitch": 62, "duration": 1, "velocity": 93}, {"time": 1861, "pitch": 65, "duration": 2, "velocity": 86}, {"time": 1864, "pitch": 50, "duration": 2, "velocity": 71}, {"time": 1864, "pitch": 57, "duration": 2, "velocity": 61}, {"time": 1864, "pitch": 62, "duration": 2, "velocity": 68}, {"time": 1864, "pitch": 65, "duration": 2, "velocity": 69}, {"time": 1867, "pitch": 33, "duration": 9, "velocity": 79}, {"time": 1873, "pitch": 50, "duration": 2, "velocity": 83}, {"time": 1873, "pitch": 57, "duration": 2, "velocity": 85}, {"time": 1873, "pitch": 62, "duration": 2, "velocity": 88}, {"time": 1873, "pitch": 65, "duration": 2, "velocity": 78}, {"time": 1879, "pitch": 40, "duration": 9, "velocity": 89}, {"time": 1885, "pitch": 52, "duration": 2, "velocity": 71}, {"time": 1885, "pitch": 59, "duration": 2, "velocity": 92}, {"time": 1885, "pitch": 64, "duration": 2, "velocity": 93}, {"time": 1885, "pitch": 67, "duration": 1, "velocity": 79}, {"time": 1888, "pitch": 52, "duration": 2, "velocity": 76}, {"time": 1888, "pitch": 59, "duration": 2, "velocity": 68}, {"time": 1888, "pitch": 64, "duration": 2, "velocity": 72}, {"time": 1888, "pitch": 67, "duration": 1, "velocity": 65}, {"time": 1891, "pitch": 35, "duration": 9, "velocity": 73}, {"time": 1897, "pitch": 52, "duration": 2, "velocity": 96}, {"time": 1897, "pitch": 59, "duration": 1, "velocity": 75}, {"time": 1897, "pitch": 64, "duration": 1, "velocity": 88}, {"time": 1897, "pitch": 67, "duration": 1, "velocity": 78}, {"time": 1903, "pitch": 40, "duration": 11, "velocity": 81}, {"time": 1909, "pitch": 52, "duration": 2, "velocity": 92}, {"time": 1909, "pitch": 59, "duration": 1, "velocity": 90}, {"time": 1909, "pitch": 64, "duration": 2, "velocity": 95}, {"time": 1909, "pitch": 67, "duration": 1, "velocity": 88}, {"time": 1912, "pitch": 52, "duration": 2, "velocity": 81}, {"time": 1912, "pitch": 59, "duration": 2, "velocity": 79}, {"time": 1912, "pitch": 64, "duration": 2, "velocity": 83}, {"time": 1912, "pitch": 67, "duration": 2, "velocity": 78}, {"time": 1915, "pitch": 35, "duration": 7, "velocity": 78}, {"time": 1921, "pitch": 40, "duration": 3, "velocity": 79}, {"time": 1921, "pitch": 52, "duration": 2, "velocity": 93}, {"time": 1921, "pitch": 59, "duration": 2, "velocity": 86}, {"time": 1921, "pitch": 64, "duration": 2, "velocity": 95}, {"time": 1921, "pitch": 67, "duration": 1, "velocity": 86}, {"time": 1927, "pitch": 45, "duration": 9, "velocity": 97}, {"time": 1933, "pitch": 57, "duration": 1, "velocity": 92}, {"time": 1933, "pitch": 60, "duration": 1, "velocity": 95}, {"time": 1933, "pitch": 64, "duration": 1, "velocity": 78}, {"time": 1936, "pitch": 57, "duration": 2, "velocity": 53}, {"time": 1936, "pitch": 60, "duration": 2, "velocity": 63}, {"time": 1936, "pitch": 64, "duration": 2, "velocity": 68}, {"time": 1939, "pitch": 40, "duration": 9, "velocity": 83}, {"time": 1945, "pitch": 45, "duration": 2, "velocity": 96}, {"time": 1945, "pitch": 57, "duration": 1, "velocity": 85}, {"time": 1945, "pitch": 60, "duration": 1, "velocity": 92}, {"time": 1945, "pitch": 64, "duration": 2, "velocity": 89}, {"time": 1951, "pitch": 45, "duration": 12, "velocity": 99}, {"time": 1957, "pitch": 57, "duration": 1, "velocity": 95}, {"time": 1957, "pitch": 60, "duration": 1, "velocity": 95}, {"time": 1957, "pitch": 64, "duration": 2, "velocity": 93}, {"time": 1960, "pitch": 57, "duration": 2, "velocity": 63}, {"time": 1960, "pitch": 60, "duration": 2, "velocity": 75}, {"time": 1960, "pitch": 64, "duration": 2, "velocity": 67}, {"time": 1963, "pitch": 40, "duration": 7, "velocity": 89}, {"time": 1969, "pitch": 45, "duration": 2, "velocity": 92}, {"time": 1969, "pitch": 57, "duration": 2, "velocity": 90}, {"time": 1969, "pitch": 60, "duration": 2, "velocity": 96}, {"time": 1969, "pitch": 64, "duration": 2, "velocity": 90}, {"time": 1975, "pitch": 40, "duration": 9, "velocity": 97}, {"time": 1981, "pitch": 59, "duration": 2, "velocity": 86}, {"time": 1981, "pitch": 64, "duration": 2, "velocity": 86}, {"time": 1981, "pitch": 67, "duration": 1, "velocity": 77}, {"time": 1984, "pitch": 52, "duration": 2, "velocity": 62}, {"time": 1984, "pitch": 59, "duration": 2, "velocity": 59}, {"time": 1984, "pitch": 64, "duration": 2, "velocity": 67}, {"time": 1984, "pitch": 67, "duration": 2, "velocity": 58}, {"time": 1987, "pitch": 35, "duration": 9, "velocity": 96}, {"time": 1993, "pitch": 52, "duration": 2, "velocity": 92}, {"time": 1993, "pitch": 59, "duration": 2, "velocity": 95}, {"time": 1993, "pitch": 64, "duration": 2, "velocity": 100}, {"time": 1993, "pitch": 67, "duration": 1, "velocity": 92}, {"time": 1999, "pitch": 38, "duration": 9, "velocity": 85}, {"time": 2005, "pitch": 50, "duration": 2, "velocity": 81}, {"time": 2005, "pitch": 57, "duration": 1, "velocity": 86}, {"time": 2005, "pitch": 62, "duration": 1, "velocity": 81}, {"time": 2005, "pitch": 65, "duration": 1, "velocity": 71}, {"time": 2008, "pitch": 50, "duration": 2, "velocity": 75}, {"time": 2008, "pitch": 57, "duration": 2, "velocity": 63}, {"time": 2008, "pitch": 62, "duration": 2, "velocity": 86}, {"time": 2008, "pitch": 65, "duration": 2, "velocity": 81}, {"time": 2011, "pitch": 33, "duration": 8, "velocity": 83}, {"time": 2017, "pitch": 50, "duration": 2, "velocity": 92}, {"time": 2017, "pitch": 57, "duration": 1, "velocity": 89}, {"time": 2017, "pitch": 62, "duration": 2, "velocity": 97}, {"time": 2017, "pitch": 65, "duration": 1, "velocity": 83}, {"time": 2023, "pitch": 45, "duration": 8, "velocity": 99}, {"time": 2029, "pitch": 57, "duration": 2, "velocity": 86}, {"time": 2029, "pitch": 64, "duration": 1, "velocity": 90}, {"time": 2029, "pitch": 69, "duration": 2, "velocity": 93}, {"time": 2029, "pitch": 72, "duration": 2, "velocity": 95}, {"time": 2032, "pitch": 57, "duration": 2, "velocity": 92}, {"time": 2032, "pitch": 64, "duration": 2, "velocity": 71}, {"time": 2032, "pitch": 69, "duration": 2, "velocity": 71}, {"time": 2032, "pitch": 72, "duration": 2, "velocity": 74}, {"time": 2035, "pitch": 40, "duration": 9, "velocity": 96}, {"time": 2041, "pitch": 57, "duration": 2, "velocity": 90}, {"time": 2041, "pitch": 64, "duration": 1, "velocity": 86}, {"time": 2041, "pitch": 69, "duration": 1, "velocity": 96}, {"time": 2041, "pitch": 72, "duration": 2, "velocity": 96}, {"time": 2047, "pitch": 45, "duration": 8, "velocity": 99}, {"time": 2053, "pitch": 57, "duration": 1, "velocity": 63}, {"time": 2053, "pitch": 64, "duration": 1, "velocity": 88}, {"time": 2053, "pitch": 69, "duration": 1, "velocity": 88}, {"time": 2053, "pitch": 72, "duration": 2, "velocity": 92}, {"time": 2056, "pitch": 57, "duration": 2, "velocity": 77}, {"time": 2056, "pitch": 64, "duration": 2, "velocity": 74}, {"time": 2056, "pitch": 69, "duration": 2, "velocity": 85}, {"time": 2056, "pitch": 72, "duration": 2, "velocity": 75}, {"time": 2059, "pitch": 40, "duration": 6, "velocity": 85}, {"time": 2065, "pitch": 43, "duration": 4, "velocity": 90}, {"time": 2065, "pitch": 57, "duration": 2, "velocity": 100}, {"time": 2065, "pitch": 64, "duration": 1, "velocity": 71}, {"time": 2065, "pitch": 69, "duration": 1, "velocity": 85}, {"time": 2065, "pitch": 72, "duration": 2, "velocity": 79}, {"time": 2071, "pitch": 45, "duration": 10, "velocity": 69}, {"time": 2080, "pitch": 52, "duration": 2, "velocity": 66}, {"time": 2080, "pitch": 57, "duration": 2, "velocity": 71}, {"time": 2080, "pitch": 60, "duration": 3, "velocity": 68}, {"time": 2083, "pitch": 40, "duration": 7, "velocity": 60}, {"time": 2089, "pitch": 52, "duration": 2, "velocity": 86}, {"time": 2089, "pitch": 57, "duration": 2, "velocity": 88}, {"time": 2089, "pitch": 60, "duration": 2, "velocity": 79}, {"time": 2095, "pitch": 45, "duration": 9, "velocity": 61}, {"time": 2104, "pitch": 52, "duration": 2, "velocity": 59}, {"time": 2104, "pitch": 57, "duration": 2, "velocity": 71}, {"time": 2104, "pitch": 60, "duration": 2, "velocity": 71}, {"time": 2107, "pitch": 40, "duration": 8, "velocity": 61}, {"time": 2113, "pitch": 52, "duration": 2, "velocity": 77}, {"time": 2113, "pitch": 57, "duration": 2, "velocity": 89}, {"time": 2113, "pitch": 60, "duration": 2, "velocity": 81}, {"time": 2119, "pitch": 45, "duration": 11, "velocity": 52}, {"time": 2128, "pitch": 52, "duration": 2, "velocity": 72}, {"time": 2128, "pitch": 57, "duration": 2, "velocity": 74}, {"time": 2128, "pitch": 60, "duration": 3, "velocity": 74}, {"time": 2131, "pitch": 40, "duration": 7, "velocity": 66}, {"time": 2137, "pitch": 52, "duration": 2, "velocity": 68}, {"time": 2137, "pitch": 57, "duration": 2, "velocity": 77}, {"time": 2137, "pitch": 60, "duration": 2, "velocity": 75}, {"time": 2143, "pitch": 45, "duration": 12, "velocity": 42}, {"time": 2152, "pitch": 52, "duration": 2, "velocity": 67}, {"time": 2152, "pitch": 57, "duration": 2, "velocity": 72}, {"time": 2152, "pitch": 60, "duration": 2, "velocity": 72}, {"time": 2155, "pitch": 40, "duration": 9, "velocity": 63}, {"time": 2161, "pitch": 52, "duration": 2, "velocity": 64}, {"time": 2161, "pitch": 57, "duration": 2, "velocity": 73}, {"time": 2161, "pitch": 60, "duration": 2, "velocity": 68}, {"time": 2167, "pitch": 45, "duration": 5, "velocity": 62}, {"time": 2167, "pitch": 52, "duration": 4, "velocity": 72}, {"time": 2167, "pitch": 57, "duration": 4, "velocity": 85}, {"time": 2167, "pitch": 60, "duration": 5, "velocity": 78}, {"time": 2185, "pitch": 43, "duration": 5, "velocity": 88}, {"time": 2186, "pitch": 55, "duration": 3, "velocity": 61}, {"time": 2186, "pitch": 62, "duration": 2, "velocity": 66}, {"time": 2186, "pitch": 59, "duration": 4, "velocity": 71}, {"time": 2191, "pitch": 45, "duration": 5, "velocity": 58}, {"time": 2191, "pitch": 60, "duration": 5, "velocity": 72}, {"time": 2191, "pitch": 57, "duration": 5, "velocity": 73}, {"time": 2191, "pitch": 64, "duration": 5, "velocity": 72}, {"time": 2209, "pitch": 43, "duration": 5, "velocity": 93}, {"time": 2210, "pitch": 55, "duration": 2, "velocity": 68}, {"time": 2210, "pitch": 59, "duration": 3, "velocity": 72}, {"time": 2210, "pitch": 62, "duration": 3, "velocity": 64}, {"time": 2215, "pitch": 45, "duration": 6, "velocity": 73}, {"time": 2215, "pitch": 60, "duration": 6, "velocity": 71}, {"time": 2215, "pitch": 57, "duration": 6, "velocity": 69}, {"time": 2216, "pitch": 64, "duration": 5, "velocity": 70}, {"time": 2263, "pitch": 45, "duration": 8, "velocity": 89}, {"time": 2272, "pitch": 52, "duration": 2, "velocity": 77}, {"time": 2272, "pitch": 57, "duration": 2, "velocity": 81}, {"time": 2272, "pitch": 60, "duration": 2, "velocity": 71}, {"time": 2275, "pitch": 40, "duration": 6, "velocity": 68}, {"time": 2281, "pitch": 52, "duration": 2, "velocity": 78}, {"time": 2281, "pitch": 57, "duration": 2, "velocity": 93}, {"time": 2281, "pitch": 60, "duration": 2, "velocity": 78}, {"time": 2287, "pitch": 45, "duration": 10, "velocity": 66}, {"time": 2296, "pitch": 52, "duration": 2, "velocity": 79}, {"time": 2296, "pitch": 57, "duration": 2, "velocity": 85}, {"time": 2296, "pitch": 60, "duration": 3, "velocity": 78}, {"time": 2299, "pitch": 40, "duration": 5, "velocity": 64}, {"time": 2305, "pitch": 52, "duration": 2, "velocity": 73}, {"time": 2305, "pitch": 57, "duration": 2, "velocity": 83}, {"time": 2305, "pitch": 60, "duration": 2, "velocity": 76}, {"time": 2311, "pitch": 45, "duration": 10, "velocity": 66}, {"time": 2320, "pitch": 52, "duration": 2, "velocity": 66}, {"time": 2320, "pitch": 57, "duration": 2, "velocity": 78}, {"time": 2320, "pitch": 60, "duration": 2, "velocity": 74}, {"time": 2323, "pitch": 40, "duration": 5, "velocity": 61}, {"time": 2329, "pitch": 52, "duration": 2, "velocity": 59}, {"time": 2329, "pitch": 57, "duration": 2, "velocity": 75}, {"time": 2329, "pitch": 60, "duration": 2, "velocity": 67}, {"time": 2335, "pitch": 45, "duration": 10, "velocity": 54}, {"time": 2344, "pitch": 52, "duration": 2, "velocity": 72}, {"time": 2344, "pitch": 57, "duration": 2, "velocity": 81}, {"time": 2344, "pitch": 60, "duration": 2, "velocity": 75}, {"time": 2347, "pitch": 40, "duration": 8, "velocity": 63}, {"time": 2353, "pitch": 52, "duration": 2, "velocity": 56}, {"time": 2353, "pitch": 57, "duration": 2, "velocity": 76}, {"time": 2353, "pitch": 60, "duration": 2, "velocity": 73}, {"time": 2359, "pitch": 45, "duration": 10, "velocity": 61}, {"time": 2368, "pitch": 52, "duration": 2, "velocity": 59}, {"time": 2368, "pitch": 57, "duration": 2, "velocity": 79}, {"time": 2368, "pitch": 60, "duration": 2, "velocity": 69}, {"time": 2371, "pitch": 40, "duration": 8, "velocity": 65}, {"time": 2377, "pitch": 52, "duration": 2, "velocity": 78}, {"time": 2377, "pitch": 57, "duration": 2, "velocity": 89}, {"time": 2377, "pitch": 60, "duration": 2, "velocity": 79}, {"time": 2383, "pitch": 38, "duration": 9, "velocity": 72}, {"time": 2392, "pitch": 57, "duration": 2, "velocity": 72}, {"time": 2392, "pitch": 62, "duration": 1, "velocity": 74}, {"time": 2392, "pitch": 65, "duration": 2, "velocity": 72}, {"time": 2395, "pitch": 36, "duration": 5, "velocity": 89}, {"time": 2395, "pitch": 48, "duration": 5, "velocity": 89}, {"time": 2400, "pitch": 62, "duration": 2, "velocity": 77}, {"time": 2400, "pitch": 57, "duration": 2, "velocity": 75}, {"time": 2400, "pitch": 65, "duration": 2, "velocity": 72}, {"time": 2401, "pitch": 38, "duration": 7, "velocity": 73}, {"time": 2401, "pitch": 50, "duration": 7, "velocity": 73}, {"time": 2407, "pitch": 45, "duration": 10, "velocity": 73}, {"time": 2416, "pitch": 52, "duration": 2, "velocity": 65}, {"time": 2416, "pitch": 57, "duration": 2, "velocity": 77}, {"time": 2416, "pitch": 60, "duration": 3, "velocity": 72}, {"time": 2419, "pitch": 40, "duration": 7, "velocity": 71}, {"time": 2425, "pitch": 52, "duration": 2, "velocity": 75}, {"time": 2425, "pitch": 57, "duration": 2, "velocity": 88}, {"time": 2425, "pitch": 60, "duration": 2, "velocity": 79}, {"time": 2431, "pitch": 45, "duration": 10, "velocity": 60}, {"time": 2440, "pitch": 52, "duration": 2, "velocity": 70}, {"time": 2440, "pitch": 57, "duration": 2, "velocity": 73}, {"time": 2440, "pitch": 60, "duration": 2, "velocity": 73}, {"time": 2443, "pitch": 40, "duration": 7, "velocity": 71}, {"time": 2449, "pitch": 52, "duration": 2, "velocity": 72}, {"time": 2449, "pitch": 57, "duration": 2, "velocity": 81}, {"time": 2449, "pitch": 60, "duration": 2, "velocity": 74}, {"time": 2455, "pitch": 45, "duration": 10, "velocity": 73}, {"time": 2464, "pitch": 52, "duration": 2, "velocity": 58}, {"time": 2464, "pitch": 57, "duration": 2, "velocity": 70}, {"time": 2464, "pitch": 60, "duration": 2, "velocity": 69}, {"time": 2467, "pitch": 40, "duration": 7, "velocity": 63}, {"time": 2473, "pitch": 52, "duration": 2, "velocity": 71}, {"time": 2473, "pitch": 57, "duration": 2, "velocity": 81}, {"time": 2473, "pitch": 60, "duration": 2, "velocity": 73}, {"time": 2479, "pitch": 45, "duration": 10, "velocity": 59}, {"time": 2488, "pitch": 52, "duration": 2, "velocity": 49}, {"time": 2488, "pitch": 57, "duration": 2, "velocity": 72}, {"time": 2488, "pitch": 60, "duration": 2, "velocity": 72}, {"time": 2491, "pitch": 40, "duration": 10, "velocity": 67}, {"time": 2497, "pitch": 52, "duration": 2, "velocity": 67}, {"time": 2497, "pitch": 57, "duration": 2, "velocity": 74}, {"time": 2497, "pitch": 60, "duration": 2, "velocity": 68}, {"time": 2503, "pitch": 45, "duration": 11, "velocity": 59}, {"time": 2512, "pitch": 52, "duration": 2, "velocity": 58}, {"time": 2512, "pitch": 57, "duration": 2, "velocity": 78}, {"time": 2512, "pitch": 60, "duration": 3, "velocity": 71}, {"time": 2515, "pitch": 40, "duration": 9, "velocity": 63}, {"time": 2521, "pitch": 52, "duration": 2, "velocity": 70}, {"time": 2521, "pitch": 57, "duration": 2, "velocity": 82}, {"time": 2521, "pitch": 60, "duration": 2, "velocity": 74}, {"time": 2527, "pitch": 45, "duration": 11, "velocity": 64}, {"time": 2536, "pitch": 52, "duration": 2, "velocity": 68}, {"time": 2536, "pitch": 57, "duration": 2, "velocity": 79}, {"time": 2536, "pitch": 60, "duration": 2, "velocity": 70}, {"time": 2539, "pitch": 40, "duration": 9, "velocity": 61}, {"time": 2545, "pitch": 52, "duration": 1, "velocity": 79}, {"time": 2545, "pitch": 57, "duration": 2, "velocity": 92}, {"time": 2545, "pitch": 60, "duration": 2, "velocity": 79}, {"time": 2551, "pitch": 45, "duration": 9, "velocity": 100}, {"time": 2560, "pitch": 52, "duration": 2, "velocity": 78}, {"time": 2560, "pitch": 57, "duration": 2, "velocity": 86}, {"time": 2560, "pitch": 60, "duration": 3, "velocity": 76}, {"time": 2563, "pitch": 40, "duration": 7, "velocity": 82}, {"time": 2569, "pitch": 52, "duration": 2, "velocity": 67}, {"time": 2569, "pitch": 57, "duration": 2, "velocity": 88}, {"time": 2569, "pitch": 60, "duration": 2, "velocity": 78}, {"time": 2575, "pitch": 45, "duration": 10, "velocity": 88}, {"time": 2584, "pitch": 52, "duration": 2, "velocity": 75}, {"time": 2584, "pitch": 57, "duration": 2, "velocity": 82}, {"time": 2584, "pitch": 60, "duration": 2, "velocity": 75}, {"time": 2587, "pitch": 40, "duration": 7, "velocity": 71}, {"time": 2593, "pitch": 52, "duration": 2, "velocity": 75}, {"time": 2593, "pitch": 57, "duration": 2, "velocity": 73}, {"time": 2593, "pitch": 60, "duration": 2, "velocity": 73}, {"time": 2599, "pitch": 45, "duration": 11, "velocity": 77}, {"time": 2608, "pitch": 52, "duration": 2, "velocity": 67}, {"time": 2608, "pitch": 57, "duration": 2, "velocity": 79}, {"time": 2608, "pitch": 60, "duration": 2, "velocity": 70}, {"time": 2611, "pitch": 40, "duration": 7, "velocity": 69}, {"time": 2617, "pitch": 52, "duration": 2, "velocity": 74}, {"time": 2617, "pitch": 57, "duration": 2, "velocity": 83}, {"time": 2617, "pitch": 60, "duration": 2, "velocity": 81}, {"time": 2623, "pitch": 50, "duration": 11, "velocity": 65}, {"time": 2632, "pitch": 57, "duration": 2, "velocity": 66}, {"time": 2632, "pitch": 62, "duration": 2, "velocity": 90}, {"time": 2632, "pitch": 65, "duration": 2, "velocity": 75}, {"time": 2635, "pitch": 45, "duration": 9, "velocity": 73}, {"time": 2641, "pitch": 57, "duration": 2, "velocity": 81}, {"time": 2641, "pitch": 62, "duration": 2, "velocity": 89}, {"time": 2641, "pitch": 65, "duration": 2, "velocity": 81}, {"time": 2647, "pitch": 45, "duration": 9, "velocity": 81}, {"time": 2656, "pitch": 52, "duration": 2, "velocity": 70}, {"time": 2656, "pitch": 57, "duration": 2, "velocity": 82}, {"time": 2656, "pitch": 60, "duration": 3, "velocity": 73}, {"time": 2659, "pitch": 40, "duration": 9, "velocity": 42}, {"time": 2665, "pitch": 52, "duration": 2, "velocity": 74}, {"time": 2665, "pitch": 57, "duration": 2, "velocity": 83}, {"time": 2665, "pitch": 60, "duration": 2, "velocity": 76}, {"time": 2671, "pitch": 45, "duration": 11, "velocity": 60}, {"time": 2680, "pitch": 52, "duration": 2, "velocity": 65}, {"time": 2680, "pitch": 57, "duration": 2, "velocity": 73}, {"time": 2680, "pitch": 60, "duration": 3, "velocity": 72}, {"time": 2683, "pitch": 40, "duration": 7, "velocity": 70}, {"time": 2689, "pitch": 52, "duration": 2, "velocity": 72}, {"time": 2689, "pitch": 57, "duration": 2, "velocity": 81}, {"time": 2689, "pitch": 60, "duration": 2, "velocity": 68}, {"time": 2695, "pitch": 45, "duration": 11, "velocity": 71}, {"time": 2704, "pitch": 52, "duration": 2, "velocity": 60}, {"time": 2704, "pitch": 57, "duration": 2, "velocity": 75}, {"time": 2704, "pitch": 60, "duration": 3, "velocity": 70}, {"time": 2707, "pitch": 40, "duration": 8, "velocity": 71}, {"time": 2713, "pitch": 52, "duration": 2, "velocity": 69}, {"time": 2713, "pitch": 57, "duration": 2, "velocity": 77}, {"time": 2713, "pitch": 60, "duration": 2, "velocity": 72}, {"time": 2719, "pitch": 45, "duration": 10, "velocity": 69}, {"time": 2728, "pitch": 52, "duration": 2, "velocity": 64}, {"time": 2728, "pitch": 57, "duration": 2, "velocity": 74}, {"time": 2728, "pitch": 60, "duration": 3, "velocity": 72}, {"time": 2731, "pitch": 40, "duration": 7, "velocity": 66}, {"time": 2737, "pitch": 52, "duration": 2, "velocity": 75}, {"time": 2737, "pitch": 57, "duration": 2, "velocity": 86}, {"time": 2737, "pitch": 60, "duration": 2, "velocity": 75}, {"time": 2743, "pitch": 45, "duration": 10, "velocity": 68}, {"time": 2752, "pitch": 52, "duration": 2, "velocity": 63}, {"time": 2752, "pitch": 57, "duration": 2, "velocity": 77}, {"time": 2752, "pitch": 60, "duration": 2, "velocity": 72}, {"time": 2755, "pitch": 40, "duration": 8, "velocity": 59}, {"time": 2761, "pitch": 52, "duration": 2, "velocity": 72}, {"time": 2761, "pitch": 57, "duration": 2, "velocity": 85}, {"time": 2761, "pitch": 60, "duration": 2, "velocity": 76}, {"time": 2767, "pitch": 45, "duration": 10, "velocity": 70}, {"time": 2776, "pitch": 52, "duration": 2, "velocity": 67}, {"time": 2776, "pitch": 57, "duration": 2, "velocity": 81}, {"time": 2776, "pitch": 60, "duration": 2, "velocity": 72}, {"time": 2779, "pitch": 40, "duration": 7, "velocity": 66}, {"time": 2785, "pitch": 52, "duration": 2, "velocity": 72}, {"time": 2785, "pitch": 57, "duration": 2, "velocity": 79}, {"time": 2785, "pitch": 60, "duration": 2, "velocity": 71}, {"time": 2791, "pitch": 45, "duration": 10, "velocity": 85}, {"time": 2800, "pitch": 52, "duration": 2, "velocity": 64}, {"time": 2800, "pitch": 57, "duration": 2, "velocity": 82}, {"time": 2800, "pitch": 60, "duration": 2, "velocity": 71}, {"time": 2803, "pitch": 40, "duration": 8, "velocity": 76}, {"time": 2809, "pitch": 57, "duration": 2, "velocity": 88}, {"time": 2809, "pitch": 60, "duration": 2, "velocity": 88}, {"time": 2815, "pitch": 50, "duration": 11, "velocity": 90}, {"time": 2824, "pitch": 57, "duration": 3, "velocity": 74}, {"time": 2824, "pitch": 62, "duration": 2, "velocity": 86}, {"time": 2824, "pitch": 65, "duration": 2, "velocity": 77}, {"time": 2827, "pitch": 45, "duration": 9, "velocity": 72}, {"time": 2833, "pitch": 57, "duration": 2, "velocity": 82}, {"time": 2833, "pitch": 62, "duration": 2, "velocity": 93}, {"time": 2833, "pitch": 65, "duration": 2, "velocity": 85}, {"time": 2839, "pitch": 50, "duration": 13, "velocity": 69}, {"time": 2848, "pitch": 57, "duration": 2, "velocity": 72}, {"time": 2848, "pitch": 62, "duration": 2, "velocity": 83}, {"time": 2848, "pitch": 65, "duration": 2, "velocity": 78}, {"time": 2851, "pitch": 45, "duration": 8, "velocity": 92}, {"time": 2857, "pitch": 57, "duration": 2, "velocity": 75}, {"time": 2857, "pitch": 62, "duration": 2, "velocity": 85}, {"time": 2857, "pitch": 65, "duration": 2, "velocity": 73}, {"time": 2863, "pitch": 40, "duration": 9, "velocity": 82}, {"time": 2872, "pitch": 52, "duration": 2, "velocity": 64}, {"time": 2872, "pitch": 55, "duration": 2, "velocity": 71}, {"time": 2872, "pitch": 59, "duration": 3, "velocity": 72}, {"time": 2875, "pitch": 47, "duration": 7, "velocity": 83}, {"time": 2881, "pitch": 52, "duration": 2, "velocity": 75}, {"time": 2881, "pitch": 55, "duration": 2, "velocity": 90}, {"time": 2881, "pitch": 59, "duration": 2, "velocity": 88}, {"time": 2887, "pitch": 45, "duration": 8, "velocity": 92}, {"time": 2896, "pitch": 52, "duration": 2, "velocity": 72}, {"time": 2896, "pitch": 57, "duration": 2, "velocity": 86}, {"time": 2896, "pitch": 60, "duration": 2, "velocity": 73}, {"time": 2899, "pitch": 40, "duration": 8, "velocity": 77}, {"time": 2905, "pitch": 52, "duration": 2, "velocity": 77}, {"time": 2905, "pitch": 57, "duration": 2, "velocity": 95}, {"time": 2905, "pitch": 60, "duration": 2, "velocity": 82}, {"time": 2911, "pitch": 45, "duration": 10, "velocity": 58}, {"time": 2920, "pitch": 52, "duration": 2, "velocity": 45}, {"time": 2920, "pitch": 57, "duration": 2, "velocity": 71}, {"time": 2920, "pitch": 60, "duration": 3, "velocity": 69}, {"time": 2923, "pitch": 40, "duration": 7, "velocity": 78}, {"time": 2929, "pitch": 52, "duration": 2, "velocity": 65}, {"time": 2929, "pitch": 57, "duration": 2, "velocity": 89}, {"time": 2929, "pitch": 60, "duration": 2, "velocity": 77}, {"time": 2935, "pitch": 38, "duration": 8, "velocity": 93}, {"time": 2941, "pitch": 50, "duration": 2, "velocity": 54}, {"time": 2941, "pitch": 57, "duration": 2, "velocity": 79}, {"time": 2941, "pitch": 62, "duration": 1, "velocity": 83}, {"time": 2941, "pitch": 65, "duration": 2, "velocity": 71}, {"time": 2944, "pitch": 50, "duration": 2, "velocity": 82}, {"time": 2944, "pitch": 57, "duration": 2, "velocity": 71}, {"time": 2944, "pitch": 62, "duration": 2, "velocity": 78}, {"time": 2944, "pitch": 65, "duration": 2, "velocity": 75}, {"time": 2947, "pitch": 33, "duration": 8, "velocity": 75}, {"time": 2953, "pitch": 50, "duration": 2, "velocity": 89}, {"time": 2953, "pitch": 57, "duration": 2, "velocity": 82}, {"time": 2953, "pitch": 62, "duration": 2, "velocity": 93}, {"time": 2953, "pitch": 65, "duration": 2, "velocity": 85}, {"time": 2959, "pitch": 38, "duration": 9, "velocity": 76}, {"time": 2965, "pitch": 50, "duration": 2, "velocity": 74}, {"time": 2965, "pitch": 57, "duration": 2, "velocity": 92}, {"time": 2965, "pitch": 62, "duration": 1, "velocity": 93}, {"time": 2965, "pitch": 65, "duration": 2, "velocity": 86}, {"time": 2968, "pitch": 50, "duration": 2, "velocity": 71}, {"time": 2968, "pitch": 57, "duration": 2, "velocity": 61}, {"time": 2968, "pitch": 62, "duration": 2, "velocity": 68}, {"time": 2968, "pitch": 65, "duration": 2, "velocity": 69}, {"time": 2971, "pitch": 33, "duration": 9, "velocity": 79}, {"time": 2977, "pitch": 50, "duration": 2, "velocity": 83}, {"time": 2977, "pitch": 57, "duration": 2, "velocity": 85}, {"time": 2977, "pitch": 62, "duration": 2, "velocity": 88}, {"time": 2977, "pitch": 65, "duration": 2, "velocity": 78}, {"time": 2983, "pitch": 40, "duration": 9, "velocity": 89}, {"time": 2989, "pitch": 52, "duration": 2, "velocity": 71}, {"time": 2989, "pitch": 59, "duration": 2, "velocity": 92}, {"time": 2989, "pitch": 64, "duration": 2, "velocity": 93}, {"time": 2989, "pitch": 67, "duration": 1, "velocity": 79}, {"time": 2992, "pitch": 52, "duration": 2, "velocity": 76}, {"time": 2992, "pitch": 59, "duration": 2, "velocity": 68}, {"time": 2992, "pitch": 64, "duration": 2, "velocity": 72}, {"time": 2992, "pitch": 67, "duration": 1, "velocity": 65}, {"time": 2995, "pitch": 35, "duration": 9, "velocity": 73}, {"time": 3001, "pitch": 52, "duration": 2, "velocity": 96}, {"time": 3001, "pitch": 59, "duration": 1, "velocity": 75}, {"time": 3001, "pitch": 64, "duration": 1, "velocity": 88}, {"time": 3001, "pitch": 67, "duration": 1, "velocity": 78}, {"time": 3007, "pitch": 40, "duration": 11, "velocity": 81}, {"time": 3013, "pitch": 52, "duration": 2, "velocity": 92}, {"time": 3013, "pitch": 59, "duration": 1, "velocity": 90}, {"time": 3013, "pitch": 64, "duration": 2, "velocity": 95}, {"time": 3013, "pitch": 67, "duration": 1, "velocity": 88}, {"time": 3016, "pitch": 52, "duration": 2, "velocity": 81}, {"time": 3016, "pitch": 59, "duration": 2, "velocity": 79}, {"time": 3016, "pitch": 64, "duration": 2, "velocity": 83}, {"time": 3016, "pitch": 67, "duration": 2, "velocity": 78}, {"time": 3019, "pitch": 35, "duration": 7, "velocity": 78}, {"time": 3025, "pitch": 40, "duration": 3, "velocity": 79}, {"time": 3025, "pitch": 52, "duration": 2, "velocity": 93}, {"time": 3025, "pitch": 59, "duration": 2, "velocity": 86}, {"time": 3025, "pitch": 64, "duration": 2, "velocity": 95}, {"time": 3025, "pitch": 67, "duration": 1, "velocity": 86}, {"time": 3031, "pitch": 45, "duration": 9, "velocity": 97}, {"time": 3037, "pitch": 57, "duration": 1, "velocity": 92}, {"time": 3037, "pitch": 60, "duration": 1, "velocity": 95}, {"time": 3037, "pitch": 64, "duration": 1, "velocity": 78}, {"time": 3040, "pitch": 57, "duration": 2, "velocity": 53}, {"time": 3040, "pitch": 60, "duration": 2, "velocity": 63}, {"time": 3040, "pitch": 64, "duration": 2, "velocity": 68}, {"time": 3043, "pitch": 40, "duration": 9, "velocity": 83}, {"time": 3049, "pitch": 45, "duration": 2, "velocity": 96}, {"time": 3049, "pitch": 57, "duration": 1, "velocity": 85}, {"time": 3049, "pitch": 60, "duration": 1, "velocity": 92}, {"time": 3049, "pitch": 64, "duration": 2, "velocity": 89}, {"time": 3055, "pitch": 45, "duration": 12, "velocity": 99}, {"time": 3061, "pitch": 57, "duration": 1, "velocity": 95}, {"time": 3061, "pitch": 60, "duration": 1, "velocity": 95}, {"time": 3061, "pitch": 64, "duration": 2, "velocity": 93}, {"time": 3064, "pitch": 57, "duration": 2, "velocity": 63}, {"time": 3064, "pitch": 60, "duration": 2, "velocity": 75}, {"time": 3064, "pitch": 64, "duration": 2, "velocity": 67}, {"time": 3067, "pitch": 40, "duration": 7, "velocity": 89}, {"time": 3073, "pitch": 45, "duration": 2, "velocity": 92}, {"time": 3073, "pitch": 57, "duration": 2, "velocity": 90}, {"time": 3073, "pitch": 60, "duration": 2, "velocity": 96}, {"time": 3073, "pitch": 64, "duration": 2, "velocity": 90}, {"time": 3079, "pitch": 40, "duration": 9, "velocity": 97}, {"time": 3085, "pitch": 59, "duration": 2, "velocity": 86}, {"time": 3085, "pitch": 64, "duration": 2, "velocity": 86}, {"time": 3085, "pitch": 67, "duration": 1, "velocity": 77}, {"time": 3088, "pitch": 52, "duration": 2, "velocity": 62}, {"time": 3088, "pitch": 59, "duration": 2, "velocity": 59}, {"time": 3088, "pitch": 64, "duration": 2, "velocity": 67}, {"time": 3088, "pitch": 67, "duration": 2, "velocity": 58}, {"time": 3091, "pitch": 35, "duration": 9, "velocity": 96}, {"time": 3097, "pitch": 52, "duration": 2, "velocity": 92}, {"time": 3097, "pitch": 59, "duration": 2, "velocity": 95}, {"time": 3097, "pitch": 64, "duration": 2, "velocity": 100}, {"time": 3097, "pitch": 67, "duration": 1, "velocity": 92}, {"time": 3103, "pitch": 38, "duration": 9, "velocity": 85}, {"time": 3109, "pitch": 50, "duration": 2, "velocity": 81}, {"time": 3109, "pitch": 57, "duration": 1, "velocity": 86}, {"time": 3109, "pitch": 62, "duration": 1, "velocity": 81}, {"time": 3109, "pitch": 65, "duration": 1, "velocity": 71}, {"time": 3112, "pitch": 50, "duration": 2, "velocity": 75}, {"time": 3112, "pitch": 57, "duration": 2, "velocity": 63}, {"time": 3112, "pitch": 62, "duration": 2, "velocity": 86}, {"time": 3112, "pitch": 65, "duration": 2, "velocity": 81}, {"time": 3115, "pitch": 33, "duration": 8, "velocity": 83}, {"time": 3121, "pitch": 50, "duration": 2, "velocity": 92}, {"time": 3121, "pitch": 57, "duration": 1, "velocity": 89}, {"time": 3121, "pitch": 62, "duration": 2, "velocity": 97}, {"time": 3121, "pitch": 65, "duration": 1, "velocity": 83}, {"time": 3127, "pitch": 45, "duration": 8, "velocity": 99}, {"time": 3133, "pitch": 57, "duration": 2, "velocity": 86}, {"time": 3133, "pitch": 64, "duration": 1, "velocity": 90}, {"time": 3133, "pitch": 69, "duration": 2, "velocity": 93}, {"time": 3133, "pitch": 72, "duration": 2, "velocity": 95}, {"time": 3136, "pitch": 57, "duration": 2, "velocity": 92}, {"time": 3136, "pitch": 64, "duration": 2, "velocity": 71}, {"time": 3136, "pitch": 69, "duration": 2, "velocity": 71}, {"time": 3136, "pitch": 72, "duration": 2, "velocity": 74}, {"time": 3139, "pitch": 40, "duration": 9, "velocity": 96}, {"time": 3145, "pitch": 57, "duration": 2, "velocity": 90}, {"time": 3145, "pitch": 64, "duration": 1, "velocity": 86}, {"time": 3145, "pitch": 69, "duration": 1, "velocity": 96}, {"time": 3145, "pitch": 72, "duration": 2, "velocity": 96}, {"time": 3151, "pitch": 45, "duration": 8, "velocity": 99}, {"time": 3157, "pitch": 57, "duration": 1, "velocity": 63}, {"time": 3157, "pitch": 64, "duration": 1, "velocity": 88}, {"time": 3157, "pitch": 69, "duration": 1, "velocity": 88}, {"time": 3157, "pitch": 72, "duration": 2, "velocity": 92}, {"time": 3160, "pitch": 57, "duration": 2, "velocity": 77}, {"time": 3160, "pitch": 64, "duration": 2, "velocity": 74}, {"time": 3160, "pitch": 69, "duration": 2, "velocity": 85}, {"time": 3160, "pitch": 72, "duration": 2, "velocity": 75}, {"time": 3163, "pitch": 40, "duration": 6, "velocity": 85}, {"time": 3169, "pitch": 43, "duration": 4, "velocity": 90}, {"time": 3169, "pitch": 57, "duration": 2, "velocity": 100}, {"time": 3169, "pitch": 64, "duration": 1, "velocity": 71}, {"time": 3169, "pitch": 69, "duration": 1, "velocity": 85}, {"time": 3169, "pitch": 72, "duration": 2, "velocity": 79}, {"time": 3175, "pitch": 45, "duration": 8, "velocity": 89}, {"time": 3184, "pitch": 52, "duration": 2, "velocity": 77}, {"time": 3184, "pitch": 57, "duration": 2, "velocity": 81}, {"time": 3184, "pitch": 60, "duration": 2, "velocity": 71}, {"time": 3187, "pitch": 40, "duration": 6, "velocity": 68}, {"time": 3193, "pitch": 52, "duration": 2, "velocity": 78}, {"time": 3193, "pitch": 57, "duration": 2, "velocity": 93}, {"time": 3193, "pitch": 60, "duration": 2, "velocity": 78}, {"time": 3199, "pitch": 45, "duration": 10, "velocity": 66}, {"time": 3208, "pitch": 52, "duration": 2, "velocity": 79}, {"time": 3208, "pitch": 57, "duration": 2, "velocity": 85}, {"time": 3208, "pitch": 60, "duration": 3, "velocity": 78}, {"time": 3211, "pitch": 40, "duration": 5, "velocity": 64}, {"time": 3217, "pitch": 52, "duration": 2, "velocity": 73}, {"time": 3217, "pitch": 57, "duration": 2, "velocity": 83}, {"time": 3217, "pitch": 60, "duration": 2, "velocity": 76}, {"time": 3223, "pitch": 45, "duration": 10, "velocity": 66}, {"time": 3232, "pitch": 52, "duration": 2, "velocity": 66}, {"time": 3232, "pitch": 57, "duration": 2, "velocity": 78}, {"time": 3232, "pitch": 60, "duration": 2, "velocity": 74}, {"time": 3235, "pitch": 40, "duration": 5, "velocity": 61}, {"time": 3241, "pitch": 52, "duration": 2, "velocity": 59}, {"time": 3241, "pitch": 57, "duration": 2, "velocity": 75}, {"time": 3241, "pitch": 60, "duration": 2, "velocity": 67}, {"time": 3247, "pitch": 45, "duration": 10, "velocity": 54}, {"time": 3256, "pitch": 52, "duration": 2, "velocity": 72}, {"time": 3256, "pitch": 57, "duration": 2, "velocity": 81}, {"time": 3256, "pitch": 60, "duration": 2, "velocity": 75}, {"time": 3259, "pitch": 40, "duration": 8, "velocity": 63}, {"time": 3265, "pitch": 52, "duration": 2, "velocity": 56}, {"time": 3265, "pitch": 57, "duration": 2, "velocity": 76}, {"time": 3265, "pitch": 60, "duration": 2, "velocity": 73}, {"time": 3271, "pitch": 45, "duration": 10, "velocity": 61}, {"time": 3280, "pitch": 52, "duration": 2, "velocity": 59}, {"time": 3280, "pitch": 57, "duration": 2, "velocity": 79}, {"time": 3280, "pitch": 60, "duration": 2, "velocity": 69}, {"time": 3283, "pitch": 40, "duration": 8, "velocity": 65}, {"time": 3289, "pitch": 52, "duration": 2, "velocity": 78}, {"time": 3289, "pitch": 57, "duration": 2, "velocity": 89}, {"time": 3289, "pitch": 60, "duration": 2, "velocity": 79}, {"time": 3295, "pitch": 38, "duration": 9, "velocity": 72}, {"time": 3304, "pitch": 57, "duration": 2, "velocity": 72}, {"time": 3304, "pitch": 62, "duration": 1, "velocity": 74}, {"time": 3304, "pitch": 65, "duration": 2, "velocity": 72}, {"time": 3307, "pitch": 36, "duration": 5, "velocity": 89}, {"time": 3307, "pitch": 48, "duration": 5, "velocity": 89}, {"time": 3312, "pitch": 62, "duration": 2, "velocity": 77}, {"time": 3312, "pitch": 57, "duration": 2, "velocity": 75}, {"time": 3312, "pitch": 65, "duration": 2, "velocity": 72}, {"time": 3313, "pitch": 38, "duration": 6, "velocity": 73}, {"time": 3313, "pitch": 50, "duration": 6, "velocity": 73}, {"time": 3319, "pitch": 45, "duration": 8, "velocity": 55}, {"time": 3328, "pitch": 52, "duration": 2, "velocity": 65}, {"time": 3328, "pitch": 57, "duration": 2, "velocity": 77}, {"time": 3328, "pitch": 60, "duration": 3, "velocity": 72}, {"time": 3331, "pitch": 40, "duration": 7, "velocity": 71}, {"time": 3337, "pitch": 52, "duration": 2, "velocity": 75}, {"time": 3337, "pitch": 57, "duration": 2, "velocity": 88}, {"time": 3337, "pitch": 60, "duration": 2, "velocity": 79}, {"time": 3343, "pitch": 45, "duration": 10, "velocity": 60}, {"time": 3352, "pitch": 52, "duration": 2, "velocity": 70}, {"time": 3352, "pitch": 57, "duration": 2, "velocity": 73}, {"time": 3352, "pitch": 60, "duration": 2, "velocity": 73}, {"time": 3355, "pitch": 40, "duration": 7, "velocity": 71}, {"time": 3361, "pitch": 52, "duration": 2, "velocity": 72}, {"time": 3361, "pitch": 57, "duration": 2, "velocity": 81}, {"time": 3361, "pitch": 60, "duration": 2, "velocity": 74}, {"time": 3367, "pitch": 45, "duration": 10, "velocity": 73}, {"time": 3376, "pitch": 52, "duration": 2, "velocity": 58}, {"time": 3376, "pitch": 57, "duration": 2, "velocity": 70}, {"time": 3376, "pitch": 60, "duration": 2, "velocity": 69}, {"time": 3379, "pitch": 40, "duration": 7, "velocity": 63}, {"time": 3385, "pitch": 52, "duration": 2, "velocity": 71}, {"time": 3385, "pitch": 57, "duration": 2, "velocity": 81}, {"time": 3385, "pitch": 60, "duration": 2, "velocity": 73}, {"time": 3391, "pitch": 45, "duration": 10, "velocity": 59}, {"time": 3400, "pitch": 52, "duration": 2, "velocity": 49}, {"time": 3400, "pitch": 57, "duration": 2, "velocity": 72}, {"time": 3400, "pitch": 60, "duration": 2, "velocity": 72}, {"time": 3403, "pitch": 40, "duration": 10, "velocity": 67}, {"time": 3409, "pitch": 52, "duration": 2, "velocity": 67}, {"time": 3409, "pitch": 57, "duration": 2, "velocity": 74}, {"time": 3409, "pitch": 60, "duration": 2, "velocity": 68}, {"time": 3415, "pitch": 45, "duration": 11, "velocity": 59}, {"time": 3424, "pitch": 52, "duration": 2, "velocity": 58}, {"time": 3424, "pitch": 57, "duration": 2, "velocity": 78}, {"time": 3424, "pitch": 60, "duration": 3, "velocity": 71}, {"time": 3427, "pitch": 40, "duration": 9, "velocity": 63}, {"time": 3433, "pitch": 52, "duration": 2, "velocity": 70}, {"time": 3433, "pitch": 57, "duration": 2, "velocity": 82}, {"time": 3433, "pitch": 60, "duration": 2, "velocity": 74}, {"time": 3439, "pitch": 45, "duration": 11, "velocity": 64}, {"time": 3448, "pitch": 52, "duration": 2, "velocity": 68}, {"time": 3448, "pitch": 57, "duration": 2, "velocity": 79}, {"time": 3448, "pitch": 60, "duration": 2, "velocity": 70}, {"time": 3451, "pitch": 40, "duration": 9, "velocity": 61}, {"time": 3457, "pitch": 52, "duration": 1, "velocity": 79}, {"time": 3457, "pitch": 57, "duration": 2, "velocity": 92}, {"time": 3457, "pitch": 60, "duration": 2, "velocity": 79}, {"time": 3463, "pitch": 45, "duration": 9, "velocity": 100}, {"time": 3472, "pitch": 52, "duration": 2, "velocity": 78}, {"time": 3472, "pitch": 57, "duration": 2, "velocity": 86}, {"time": 3472, "pitch": 60, "duration": 3, "velocity": 76}, {"time": 3475, "pitch": 40, "duration": 7, "velocity": 82}, {"time": 3481, "pitch": 52, "duration": 2, "velocity": 67}, {"time": 3481, "pitch": 57, "duration": 2, "velocity": 88}, {"time": 3481, "pitch": 60, "duration": 2, "velocity": 78}, {"time": 3487, "pitch": 45, "duration": 10, "velocity": 88}, {"time": 3496, "pitch": 52, "duration": 2, "velocity": 75}, {"time": 3496, "pitch": 57, "duration": 2, "velocity": 82}, {"time": 3496, "pitch": 60, "duration": 2, "velocity": 75}, {"time": 3499, "pitch": 40, "duration": 7, "velocity": 71}, {"time": 3505, "pitch": 52, "duration": 2, "velocity": 75}, {"time": 3505, "pitch": 57, "duration": 2, "velocity": 73}, {"time": 3505, "pitch": 60, "duration": 2, "velocity": 73}, {"time": 3511, "pitch": 45, "duration": 11, "velocity": 77}, {"time": 3520, "pitch": 52, "duration": 2, "velocity": 67}, {"time": 3520, "pitch": 57, "duration": 2, "velocity": 79}, {"time": 3520, "pitch": 60, "duration": 2, "velocity": 70}, {"time": 3523, "pitch": 40, "duration": 7, "velocity": 69}, {"time": 3529, "pitch": 52, "duration": 2, "velocity": 74}, {"time": 3529, "pitch": 57, "duration": 2, "velocity": 83}, {"time": 3529, "pitch": 60, "duration": 2, "velocity": 81}, {"time": 3535, "pitch": 50, "duration": 11, "velocity": 65}, {"time": 3544, "pitch": 57, "duration": 2, "velocity": 66}, {"time": 3544, "pitch": 62, "duration": 2, "velocity": 90}, {"time": 3544, "pitch": 65, "duration": 2, "velocity": 75}, {"time": 3547, "pitch": 45, "duration": 9, "velocity": 73}, {"time": 3553, "pitch": 57, "duration": 2, "velocity": 81}, {"time": 3553, "pitch": 62, "duration": 2, "velocity": 89}, {"time": 3553, "pitch": 65, "duration": 2, "velocity": 81}, {"time": 3559, "pitch": 45, "duration": 9, "velocity": 81}, {"time": 3568, "pitch": 52, "duration": 2, "velocity": 70}, {"time": 3568, "pitch": 57, "duration": 2, "velocity": 82}, {"time": 3568, "pitch": 60, "duration": 3, "velocity": 73}, {"time": 3571, "pitch": 40, "duration": 9, "velocity": 42}, {"time": 3577, "pitch": 52, "duration": 2, "velocity": 74}, {"time": 3577, "pitch": 57, "duration": 2, "velocity": 83}, {"time": 3577, "pitch": 60, "duration": 2, "velocity": 76}, {"time": 3583, "pitch": 45, "duration": 11, "velocity": 60}, {"time": 3592, "pitch": 52, "duration": 2, "velocity": 65}, {"time": 3592, "pitch": 57, "duration": 2, "velocity": 73}, {"time": 3592, "pitch": 60, "duration": 3, "velocity": 72}, {"time": 3595, "pitch": 40, "duration": 7, "velocity": 70}, {"time": 3601, "pitch": 52, "duration": 2, "velocity": 72}, {"time": 3601, "pitch": 57, "duration": 2, "velocity": 81}, {"time": 3601, "pitch": 60, "duration": 2, "velocity": 68}, {"time": 3607, "pitch": 45, "duration": 11, "velocity": 71}, {"time": 3616, "pitch": 52, "duration": 2, "velocity": 60}, {"time": 3616, "pitch": 57, "duration": 2, "velocity": 75}, {"time": 3616, "pitch": 60, "duration": 3, "velocity": 70}, {"time": 3619, "pitch": 40, "duration": 8, "velocity": 71}, {"time": 3625, "pitch": 52, "duration": 2, "velocity": 69}, {"time": 3625, "pitch": 57, "duration": 2, "velocity": 77}, {"time": 3625, "pitch": 60, "duration": 2, "velocity": 72}, {"time": 3631, "pitch": 45, "duration": 10, "velocity": 69}, {"time": 3640, "pitch": 52, "duration": 2, "velocity": 64}, {"time": 3640, "pitch": 57, "duration": 2, "velocity": 74}, {"time": 3640, "pitch": 60, "duration": 3, "velocity": 72}, {"time": 3643, "pitch": 40, "duration": 7, "velocity": 66}, {"time": 3649, "pitch": 52, "duration": 2, "velocity": 75}, {"time": 3649, "pitch": 57, "duration": 2, "velocity": 86}, {"time": 3649, "pitch": 60, "duration": 2, "velocity": 75}, {"time": 3655, "pitch": 45, "duration": 10, "velocity": 68}, {"time": 3664, "pitch": 52, "duration": 2, "velocity": 63}, {"time": 3664, "pitch": 57, "duration": 2, "velocity": 77}, {"time": 3664, "pitch": 60, "duration": 2, "velocity": 72}, {"time": 3667, "pitch": 40, "duration": 8, "velocity": 59}, {"time": 3673, "pitch": 52, "duration": 2, "velocity": 72}, {"time": 3673, "pitch": 57, "duration": 2, "velocity": 85}, {"time": 3673, "pitch": 60, "duration": 2, "velocity": 76}, {"time": 3679, "pitch": 45, "duration": 10, "velocity": 70}, {"time": 3688, "pitch": 52, "duration": 2, "velocity": 67}, {"time": 3688, "pitch": 57, "duration": 2, "velocity": 81}, {"time": 3688, "pitch": 60, "duration": 2, "velocity": 72}, {"time": 3691, "pitch": 40, "duration": 7, "velocity": 66}, {"time": 3697, "pitch": 52, "duration": 2, "velocity": 72}, {"time": 3697, "pitch": 57, "duration": 2, "velocity": 79}, {"time": 3697, "pitch": 60, "duration": 2, "velocity": 71}, {"time": 3703, "pitch": 45, "duration": 10, "velocity": 85}, {"time": 3712, "pitch": 52, "duration": 2, "velocity": 64}, {"time": 3712, "pitch": 57, "duration": 2, "velocity": 82}, {"time": 3712, "pitch": 60, "duration": 2, "velocity": 71}, {"time": 3715, "pitch": 40, "duration": 8, "velocity": 76}, {"time": 3721, "pitch": 57, "duration": 2, "velocity": 88}, {"time": 3721, "pitch": 60, "duration": 2, "velocity": 88}, {"time": 3727, "pitch": 50, "duration": 11, "velocity": 90}, {"time": 3736, "pitch": 57, "duration": 3, "velocity": 74}, {"time": 3736, "pitch": 62, "duration": 2, "velocity": 86}, {"time": 3736, "pitch": 65, "duration": 2, "velocity": 77}, {"time": 3739, "pitch": 45, "duration": 9, "velocity": 72}, {"time": 3745, "pitch": 57, "duration": 2, "velocity": 82}, {"time": 3745, "pitch": 62, "duration": 2, "velocity": 93}, {"time": 3745, "pitch": 65, "duration": 2, "velocity": 85}, {"time": 3751, "pitch": 50, "duration": 13, "velocity": 69}, {"time": 3760, "pitch": 57, "duration": 2, "velocity": 72}, {"time": 3760, "pitch": 62, "duration": 2, "velocity": 83}, {"time": 3760, "pitch": 65, "duration": 2, "velocity": 78}, {"time": 3763, "pitch": 45, "duration": 8, "velocity": 92}, {"time": 3769, "pitch": 57, "duration": 2, "velocity": 75}, {"time": 3769, "pitch": 62, "duration": 2, "velocity": 85}, {"time": 3769, "pitch": 65, "duration": 2, "velocity": 73}, {"time": 3775, "pitch": 40, "duration": 9, "velocity": 82}, {"time": 3784, "pitch": 52, "duration": 2, "velocity": 64}, {"time": 3784, "pitch": 55, "duration": 2, "velocity": 71}, {"time": 3784, "pitch": 59, "duration": 3, "velocity": 72}, {"time": 3787, "pitch": 47, "duration": 7, "velocity": 83}, {"time": 3793, "pitch": 52, "duration": 2, "velocity": 75}, {"time": 3793, "pitch": 55, "duration": 2, "velocity": 90}, {"time": 3793, "pitch": 59, "duration": 2, "velocity": 88}, {"time": 3799, "pitch": 45, "duration": 8, "velocity": 92}, {"time": 3808, "pitch": 52, "duration": 2, "velocity": 72}, {"time": 3808, "pitch": 57, "duration": 2, "velocity": 86}, {"time": 3808, "pitch": 60, "duration": 2, "velocity": 73}, {"time": 3811, "pitch": 40, "duration": 8, "velocity": 77}, {"time": 3817, "pitch": 52, "duration": 2, "velocity": 77}, {"time": 3817, "pitch": 57, "duration": 2, "velocity": 95}, {"time": 3817, "pitch": 60, "duration": 2, "velocity": 82}, {"time": 3823, "pitch": 45, "duration": 10, "velocity": 58}, {"time": 3832, "pitch": 52, "duration": 2, "velocity": 45}, {"time": 3832, "pitch": 57, "duration": 2, "velocity": 71}, {"time": 3832, "pitch": 60, "duration": 3, "velocity": 69}, {"time": 3835, "pitch": 40, "duration": 7, "velocity": 78}, {"time": 3841, "pitch": 52, "duration": 2, "velocity": 65}, {"time": 3841, "pitch": 57, "duration": 2, "velocity": 89}, {"time": 3841, "pitch": 60, "duration": 2, "velocity": 77}, {"time": 3847, "pitch": 38, "duration": 8, "velocity": 93}, {"time": 3853, "pitch": 50, "duration": 2, "velocity": 54}, {"time": 3853, "pitch": 57, "duration": 2, "velocity": 79}, {"time": 3853, "pitch": 62, "duration": 1, "velocity": 83}, {"time": 3853, "pitch": 65, "duration": 2, "velocity": 71}, {"time": 3856, "pitch": 50, "duration": 2, "velocity": 82}, {"time": 3856, "pitch": 57, "duration": 2, "velocity": 71}, {"time": 3856, "pitch": 62, "duration": 2, "velocity": 78}, {"time": 3856, "pitch": 65, "duration": 2, "velocity": 75}, {"time": 3859, "pitch": 33, "duration": 8, "velocity": 75}, {"time": 3865, "pitch": 50, "duration": 2, "velocity": 89}, {"time": 3865, "pitch": 57, "duration": 2, "velocity": 82}, {"time": 3865, "pitch": 62, "duration": 2, "velocity": 93}, {"time": 3865, "pitch": 65, "duration": 2, "velocity": 85}, {"time": 3871, "pitch": 38, "duration": 9, "velocity": 76}, {"time": 3877, "pitch": 50, "duration": 2, "velocity": 74}, {"time": 3877, "pitch": 57, "duration": 2, "velocity": 92}, {"time": 3877, "pitch": 62, "duration": 1, "velocity": 93}, {"time": 3877, "pitch": 65, "duration": 2, "velocity": 86}, {"time": 3880, "pitch": 50, "duration": 2, "velocity": 71}, {"time": 3880, "pitch": 57, "duration": 2, "velocity": 61}, {"time": 3880, "pitch": 62, "duration": 2, "velocity": 68}, {"time": 3880, "pitch": 65, "duration": 2, "velocity": 69}, {"time": 3883, "pitch": 33, "duration": 9, "velocity": 79}, {"time": 3889, "pitch": 50, "duration": 2, "velocity": 83}, {"time": 3889, "pitch": 57, "duration": 2, "velocity": 85}, {"time": 3889, "pitch": 62, "duration": 2, "velocity": 88}, {"time": 3889, "pitch": 65, "duration": 2, "velocity": 78}, {"time": 3895, "pitch": 40, "duration": 9, "velocity": 89}, {"time": 3901, "pitch": 52, "duration": 2, "velocity": 71}, {"time": 3901, "pitch": 59, "duration": 2, "velocity": 92}, {"time": 3901, "pitch": 64, "duration": 2, "velocity": 93}, {"time": 3901, "pitch": 67, "duration": 1, "velocity": 79}, {"time": 3904, "pitch": 52, "duration": 2, "velocity": 76}, {"time": 3904, "pitch": 59, "duration": 2, "velocity": 68}, {"time": 3904, "pitch": 64, "duration": 2, "velocity": 72}, {"time": 3904, "pitch": 67, "duration": 1, "velocity": 65}, {"time": 3907, "pitch": 35, "duration": 9, "velocity": 73}, {"time": 3913, "pitch": 52, "duration": 2, "velocity": 96}, {"time": 3913, "pitch": 59, "duration": 1, "velocity": 75}, {"time": 3913, "pitch": 64, "duration": 1, "velocity": 88}, {"time": 3913, "pitch": 67, "duration": 1, "velocity": 78}, {"time": 3919, "pitch": 40, "duration": 11, "velocity": 81}, {"time": 3925, "pitch": 52, "duration": 2, "velocity": 92}, {"time": 3925, "pitch": 59, "duration": 1, "velocity": 90}, {"time": 3925, "pitch": 64, "duration": 2, "velocity": 95}, {"time": 3925, "pitch": 67, "duration": 1, "velocity": 88}, {"time": 3928, "pitch": 52, "duration": 2, "velocity": 81}, {"time": 3928, "pitch": 59, "duration": 2, "velocity": 79}, {"time": 3928, "pitch": 64, "duration": 2, "velocity": 83}, {"time": 3928, "pitch": 67, "duration": 2, "velocity": 78}, {"time": 3931, "pitch": 35, "duration": 7, "velocity": 78}, {"time": 3937, "pitch": 40, "duration": 3, "velocity": 79}, {"time": 3937, "pitch": 52, "duration": 2, "velocity": 93}, {"time": 3937, "pitch": 59, "duration": 2, "velocity": 86}, {"time": 3937, "pitch": 64, "duration": 2, "velocity": 95}, {"time": 3937, "pitch": 67, "duration": 1, "velocity": 86}, {"time": 3943, "pitch": 45, "duration": 9, "velocity": 97}, {"time": 3949, "pitch": 52, "duration": 1, "velocity": 92}, {"time": 3949, "pitch": 57, "duration": 1, "velocity": 92}, {"time": 3949, "pitch": 60, "duration": 1, "velocity": 95}, {"time": 3949, "pitch": 64, "duration": 1, "velocity": 78}, {"time": 3952, "pitch": 52, "duration": 2, "velocity": 53}, {"time": 3952, "pitch": 57, "duration": 2, "velocity": 53}, {"time": 3952, "pitch": 60, "duration": 2, "velocity": 63}, {"time": 3952, "pitch": 64, "duration": 2, "velocity": 68}, {"time": 3955, "pitch": 40, "duration": 9, "velocity": 83}, {"time": 3961, "pitch": 52, "duration": 1, "velocity": 85}, {"time": 3961, "pitch": 57, "duration": 1, "velocity": 85}, {"time": 3961, "pitch": 60, "duration": 1, "velocity": 92}, {"time": 3961, "pitch": 64, "duration": 2, "velocity": 89}, {"time": 3967, "pitch": 45, "duration": 12, "velocity": 99}, {"time": 3973, "pitch": 52, "duration": 1, "velocity": 95}, {"time": 3973, "pitch": 57, "duration": 1, "velocity": 95}, {"time": 3973, "pitch": 60, "duration": 1, "velocity": 95}, {"time": 3973, "pitch": 64, "duration": 2, "velocity": 93}, {"time": 3976, "pitch": 52, "duration": 2, "velocity": 63}, {"time": 3976, "pitch": 57, "duration": 2, "velocity": 63}, {"time": 3976, "pitch": 60, "duration": 2, "velocity": 75}, {"time": 3976, "pitch": 64, "duration": 2, "velocity": 67}, {"time": 3979, "pitch": 40, "duration": 7, "velocity": 89}, {"time": 3982, "pitch": 45, "duration": 4, "velocity": 90}, {"time": 3985, "pitch": 52, "duration": 2, "velocity": 90}, {"time": 3985, "pitch": 57, "duration": 2, "velocity": 90}, {"time": 3985, "pitch": 60, "duration": 2, "velocity": 96}, {"time": 3985, "pitch": 64, "duration": 2, "velocity": 90}, {"time": 3991, "pitch": 40, "duration": 9, "velocity": 97}, {"time": 3997, "pitch": 59, "duration": 2, "velocity": 86}, {"time": 3997, "pitch": 64, "duration": 2, "velocity": 86}, {"time": 3997, "pitch": 67, "duration": 1, "velocity": 77}, {"time": 4000, "pitch": 52, "duration": 2, "velocity": 62}, {"time": 4000, "pitch": 59, "duration": 2, "velocity": 59}, {"time": 4000, "pitch": 64, "duration": 2, "velocity": 67}, {"time": 4000, "pitch": 67, "duration": 2, "velocity": 58}, {"time": 4003, "pitch": 35, "duration": 9, "velocity": 96}, {"time": 4009, "pitch": 52, "duration": 2, "velocity": 92}, {"time": 4009, "pitch": 59, "duration": 2, "velocity": 95}, {"time": 4009, "pitch": 64, "duration": 2, "velocity": 100}, {"time": 4009, "pitch": 67, "duration": 1, "velocity": 92}, {"time": 4015, "pitch": 38, "duration": 9, "velocity": 85}, {"time": 4021, "pitch": 50, "duration": 2, "velocity": 81}, {"time": 4021, "pitch": 57, "duration": 1, "velocity": 86}, {"time": 4021, "pitch": 62, "duration": 1, "velocity": 81}, {"time": 4021, "pitch": 65, "duration": 1, "velocity": 71}, {"time": 4024, "pitch": 50, "duration": 2, "velocity": 75}, {"time": 4024, "pitch": 57, "duration": 2, "velocity": 63}, {"time": 4024, "pitch": 62, "duration": 2, "velocity": 86}, {"time": 4024, "pitch": 65, "duration": 2, "velocity": 81}, {"time": 4027, "pitch": 33, "duration": 8, "velocity": 83}, {"time": 4033, "pitch": 50, "duration": 2, "velocity": 92}, {"time": 4033, "pitch": 57, "duration": 1, "velocity": 89}, {"time": 4033, "pitch": 62, "duration": 2, "velocity": 97}, {"time": 4033, "pitch": 65, "duration": 1, "velocity": 83}, {"time": 4039, "pitch": 45, "duration": 8, "velocity": 99}, {"time": 4045, "pitch": 52, "duration": 2, "velocity": 86}, {"time": 4045, "pitch": 57, "duration": 2, "velocity": 86}, {"time": 4045, "pitch": 64, "duration": 1, "velocity": 90}, {"time": 4045, "pitch": 69, "duration": 2, "velocity": 93}, {"time": 4045, "pitch": 72, "duration": 2, "velocity": 95}, {"time": 4048, "pitch": 52, "duration": 2, "velocity": 92}, {"time": 4048, "pitch": 57, "duration": 2, "velocity": 92}, {"time": 4048, "pitch": 64, "duration": 2, "velocity": 71}, {"time": 4048, "pitch": 69, "duration": 2, "velocity": 71}, {"time": 4048, "pitch": 72, "duration": 2, "velocity": 74}, {"time": 4051, "pitch": 40, "duration": 9, "velocity": 96}, {"time": 4057, "pitch": 52, "duration": 2, "velocity": 90}, {"time": 4057, "pitch": 57, "duration": 2, "velocity": 90}, {"time": 4057, "pitch": 64, "duration": 1, "velocity": 86}, {"time": 4057, "pitch": 69, "duration": 1, "velocity": 96}, {"time": 4057, "pitch": 72, "duration": 2, "velocity": 96}, {"time": 4063, "pitch": 45, "duration": 8, "velocity": 99}, {"time": 4069, "pitch": 52, "duration": 1, "velocity": 63}, {"time": 4069, "pitch": 57, "duration": 1, "velocity": 63}, {"time": 4069, "pitch": 64, "duration": 1, "velocity": 88}, {"time": 4069, "pitch": 69, "duration": 1, "velocity": 88}, {"time": 4069, "pitch": 72, "duration": 2, "velocity": 92}, {"time": 4072, "pitch": 52, "duration": 2, "velocity": 77}, {"time": 4072, "pitch": 57, "duration": 2, "velocity": 77}, {"time": 4072, "pitch": 64, "duration": 2, "velocity": 74}, {"time": 4072, "pitch": 69, "duration": 2, "velocity": 85}, {"time": 4072, "pitch": 72, "duration": 2, "velocity": 75}, {"time": 4075, "pitch": 40, "duration": 6, "velocity": 85}, {"time": 4081, "pitch": 43, "duration": 4, "velocity": 90}, {"time": 4081, "pitch": 52, "duration": 2, "velocity": 100}, {"time": 4081, "pitch": 57, "duration": 2, "velocity": 100}, {"time": 4081, "pitch": 64, "duration": 1, "velocity": 71}, {"time": 4081, "pitch": 69, "duration": 1, "velocity": 85}, {"time": 4081, "pitch": 72, "duration": 2, "velocity": 79}, {"time": 4087, "pitch": 45, "duration": 9, "velocity": 107}, {"time": 4096, "pitch": 64, "duration": 2, "velocity": 67}, {"time": 4096, "pitch": 69, "duration": 2, "velocity": 79}, {"time": 4096, "pitch": 72, "duration": 2, "velocity": 69}, {"time": 4099, "pitch": 40, "duration": 8, "velocity": 83}, {"time": 4105, "pitch": 64, "duration": 2, "velocity": 78}, {"time": 4105, "pitch": 69, "duration": 2, "velocity": 95}, {"time": 4105, "pitch": 72, "duration": 1, "velocity": 69}, {"time": 4111, "pitch": 40, "duration": 11, "velocity": 76}, {"time": 4120, "pitch": 59, "duration": 2, "velocity": 73}, {"time": 4120, "pitch": 64, "duration": 2, "velocity": 81}, {"time": 4120, "pitch": 67, "duration": 2, "velocity": 69}, {"time": 4123, "pitch": 35, "duration": 8, "velocity": 69}, {"time": 4129, "pitch": 59, "duration": 2, "velocity": 78}, {"time": 4129, "pitch": 64, "duration": 2, "velocity": 89}, {"time": 4129, "pitch": 67, "duration": 2, "velocity": 73}, {"time": 4135, "pitch": 40, "duration": 3, "velocity": 112}, {"time": 4135, "pitch": 52, "duration": 3, "velocity": 112}, {"time": 4138, "pitch": 38, "duration": 4, "velocity": 67}, {"time": 4138, "pitch": 50, "duration": 4, "velocity": 67}, {"time": 4141, "pitch": 40, "duration": 4, "velocity": 93}, {"time": 4141, "pitch": 52, "duration": 4, "velocity": 93}, {"time": 4144, "pitch": 43, "duration": 4, "velocity": 57}, {"time": 4144, "pitch": 55, "duration": 4, "velocity": 57}, {"time": 4147, "pitch": 45, "duration": 3, "velocity": 102}, {"time": 4147, "pitch": 57, "duration": 3, "velocity": 102}, {"time": 4150, "pitch": 48, "duration": 3, "velocity": 83}, {"time": 4150, "pitch": 60, "duration": 3, "velocity": 83}, {"time": 4153, "pitch": 45, "duration": 3, "velocity": 97}, {"time": 4153, "pitch": 57, "duration": 3, "velocity": 97}, {"time": 4156, "pitch": 43, "duration": 3, "velocity": 83}, {"time": 4156, "pitch": 55, "duration": 3, "velocity": 83}, {"time": 4159, "pitch": 45, "duration": 7, "velocity": 112}, {"time": 4159, "pitch": 57, "duration": 7, "velocity": 112}, {"time": 4183, "pitch": 45, "duration": 19, "velocity": 127}, {"time": 4183, "pitch": 57, "duration": 20, "velocity": 93}, {"time": 4183, "pitch": 69, "duration": 19, "velocity": 88}, {"time": 4207, "pitch": 45, "duration": 20, "velocity": 100}, {"time": 4207, "pitch": 57, "duration": 19, "velocity": 96}, {"time": 4207, "pitch": 69, "duration": 19, "velocity": 90}, {"time": 4231, "pitch": 45, "duration": 92, "velocity": 127}, {"time": 4231, "pitch": 57, "duration": 93, "velocity": 96}, {"time": 4231, "pitch": 69, "duration": 92, "velocity": 89}], "annotations": [{"time": 259, "annotation": {"number": 64, "value": 127}, "group": "control_change"}, {"time": 263, "annotation": {"number": 64, "value": 0}, "group": "control_change"}, {"time": 271, "annotation": {"number": 64, "value": 127}, "group": "control_change"}, {"time": 279, "annotation": {"number": 64, "value": 0}, "group": "control_change"}, {"time": 284, "annotation": {"number": 64, "value": 127}, "group": "control_change"}, {"time": 286, "annotation": {"number": 64, "value": 0}, "group": "control_change"}, {"time": 295, "annotation": {"number": 64, "value": 127}, "group": "control_change"}, {"time": 299, "annotation": {"number": 64, "value": 0}, "group": "control_change"}, {"time": 308, "annotation": {"number": 64, "value": 127}, "group": "control_change"}, {"time": 309, "annotation": {"number": 64, "value": 0}, "group": "control_change"}, {"time": 319, "annotation": {"number": 64, "value": 127}, "group": "control_change"}, {"time": 323, "annotation": {"number": 64, "value": 0}, "group": "control_change"}, {"time": 333, "annotation": {"number": 64, "value": 127}, "group": "control_change"}, {"time": 334, "annotation": {"number": 64, "value": 0}, "group": "control_change"}, {"time": 344, "annotation": {"number": 64, "value": 127}, "group": "control_change"}, {"time": 346, "annotation": {"number": 64, "value": 0}, "group": "control_change"}, {"time": 356, "annotation": {"number": 64, "value": 127}, "group": "control_change"}, {"time": 357, "annotation": {"number": 64, "value": 0}, "group": "control_change"}, {"time": 367, "annotation": {"number": 64, "value": 127}, "group": "control_change"}, {"time": 373, "annotation": {"number": 64, "value": 0}, "group": "control_change"}, {"time": 378, "annotation": {"number": 64, "value": 127}, "group": "control_change"}, {"time": 384, "annotation": {"number": 64, "value": 0}, "group": "control_change"}, {"time": 404, "annotation": {"number": 64, "value": 127}, "group": "control_change"}, {"time": 408, "annotation": {"number": 64, "value": 0}, "group": "control_change"}, {"time": 415, "annotation": {"number": 64, "value": 127}, "group": "control_change"}, {"time": 423, "annotation": {"number": 64, "value": 0}, "group": "control_change"}, {"time": 427, "annotation": {"number": 64, "value": 127}, "group": "control_change"}, {"time": 432, "annotation": {"number": 64, "value": 0}, "group": "control_change"}, {"time": 439, "annotation": {"number": 64, "value": 127}, "group": "control_change"}, {"time": 446, "annotation": {"number": 64, "value": 0}, "group": "control_change"}, {"time": 451, "annotation": {"number": 64, "value": 127}, "group": "control_change"}, {"time": 454, "annotation": {"number": 64, "value": 0}, "group": "control_change"}, {"time": 463, "annotation": {"number": 64, "value": 127}, "group": "control_change"}, {"time": 466, "annotation": {"number": 64, "value": 0}, "group": "control_change"}, {"time": 475, "annotation": {"number": 64, "value": 127}, "group": "control_change"}, {"time": 479, "annotation": {"number": 64, "value": 0}, "group": "control_change"}, {"time": 488, "annotation": {"number": 64, "value": 127}, "group": "control_change"}, {"time": 491, "annotation": {"number": 64, "value": 0}, "group": "control_change"}, {"time": 499, "annotation": {"number": 64, "value": 127}, "group": "control_change"}, {"time": 503, "annotation": {"number": 64, "value": 0}, "group": "control_change"}, {"time": 512, "annotation": {"number": 64, "value": 127}, "group": "control_change"}, {"time": 518, "annotation": {"number": 64, "value": 0}, "group": "control_change"}, {"time": 524, "annotation": {"number": 64, "value": 127}, "group": "control_change"}, {"time": 527, "annotation": {"number": 64, "value": 0}, "group": "control_change"}, {"time": 548, "annotation": {"number": 64, "value": 127}, "group": "control_change"}, {"time": 550, "annotation": {"number": 64, "value": 0}, "group": "control_change"}, {"time": 559, "annotation": {"number": 64, "value": 127}, "group": "control_change"}, {"time": 565, "annotation": {"number": 64, "value": 0}, "group": "control_change"}, {"time": 571, "annotation": {"number": 64, "value": 127}, "group": "control_change"}, {"time": 576, "annotation": {"number": 64, "value": 0}, "group": "control_change"}, {"time": 584, "annotation": {"number": 64, "value": 127}, "group": "control_change"}, {"time": 589, "annotation": {"number": 64, "value": 0}, "group": "control_change"}, {"time": 597, "annotation": {"number": 64, "value": 127}, "group": "control_change"}, {"time": 603, "annotation": {"number": 64, "value": 0}, "group": "control_change"}, {"time": 608, "annotation": {"number": 64, "value": 127}, "group": "control_change"}, {"time": 613, "annotation": {"number": 64, "value": 0}, "group": "control_change"}, {"time": 620, "annotation": {"number": 64, "value": 127}, "group": "control_change"}, {"time": 625, "annotation": {"number": 64, "value": 0}, "group": "control_change"}, {"time": 643, "annotation": {"number": 64, "value": 127}, "group": "control_change"}, {"time": 645, "annotation": {"number": 64, "value": 0}, "group": "control_change"}, {"time": 655, "annotation": {"number": 64, "value": 127}, "group": "control_change"}, {"time": 661, "annotation": {"number": 64, "value": 0}, "group": "control_change"}, {"time": 668, "annotation": {"number": 64, "value": 127}, "group": "control_change"}, {"time": 671, "annotation": {"number": 64, "value": 0}, "group": "control_change"}, {"time": 680, "annotation": {"number": 64, "value": 127}, "group": "control_change"}, {"time": 685, "annotation": {"number": 64, "value": 0}, "group": "control_change"}, {"time": 692, "annotation": {"number": 64, "value": 127}, "group": "control_change"}, {"time": 695, "annotation": {"number": 64, "value": 0}, "group": "control_change"}, {"time": 704, "annotation": {"number": 64, "value": 127}, "group": "control_change"}, {"time": 709, "annotation": {"number": 64, "value": 0}, "group": "control_change"}, {"time": 716, "annotation": {"number": 64, "value": 127}, "group": "control_change"}, {"time": 718, "annotation": {"number": 64, "value": 0}, "group": "control_change"}, {"time": 727, "annotation": {"number": 64, "value": 127}, "group": "control_change"}, {"time": 733, "annotation": {"number": 64, "value": 0}, "group": "control_change"}, {"time": 739, "annotation": {"number": 64, "value": 127}, "group": "control_change"}, {"time": 742, "annotation": {"number": 64, "value": 0}, "group": "control_change"}, {"time": 751, "annotation": {"number": 64, "value": 127}, "group": "control_change"}, {"time": 759, "annotation": {"number": 64, "value": 0}, "group": "control_change"}, {"time": 764, "annotation": {"number": 64, "value": 127}, "group": "control_change"}, {"time": 768, "annotation": {"number": 64, "value": 0}, "group": "control_change"}, {"time": 776, "annotation": {"number": 64, "value": 127}, "group": "control_change"}, {"time": 781, "annotation": {"number": 64, "value": 0}, "group": "control_change"}, {"time": 788, "annotation": {"number": 64, "value": 127}, "group": "control_change"}, {"time": 794, "annotation": {"number": 64, "value": 0}, "group": "control_change"}, {"time": 800, "annotation": {"number": 64, "value": 127}, "group": "control_change"}, {"time": 805, "annotation": {"number": 64, "value": 0}, "group": "control_change"}, {"time": 812, "annotation": {"number": 64, "value": 127}, "group": "control_change"}, {"time": 814, "annotation": {"number": 64, "value": 0}, "group": "control_change"}, {"time": 824, "annotation": {"number": 64, "value": 127}, "group": "control_change"}, {"time": 828, "annotation": {"number": 64, "value": 0}, "group": "control_change"}, {"time": 837, "annotation": {"number": 64, "value": 127}, "group": "control_change"}, {"time": 840, "annotation": {"number": 64, "value": 0}, "group": "control_change"}, {"time": 848, "annotation": {"number": 64, "value": 127}, "group": "control_change"}, {"time": 850, "annotation": {"number": 64, "value": 0}, "group": "control_change"}, {"time": 860, "annotation": {"number": 64, "value": 127}, "group": "control_change"}, {"time": 863, "annotation": {"number": 64, "value": 0}, "group": "control_change"}, {"time": 894, "annotation": {"number": 64, "value": 127}, "group": "control_change"}, {"time": 901, "annotation": {"number": 64, "value": 0}, "group": "control_change"}, {"time": 907, "annotation": {"number": 64, "value": 127}, "group": "control_change"}, {"time": 912, "annotation": {"number": 64, "value": 0}, "group": "control_change"}, {"time": 1171, "annotation": {"number": 64, "value": 127}, "group": "control_change"}, {"time": 1175, "annotation": {"number": 64, "value": 0}, "group": "control_change"}, {"time": 1183, "annotation": {"number": 64, "value": 127}, "group": "control_change"}, {"time": 1191, "annotation": {"number": 64, "value": 0}, "group": "control_change"}, {"time": 1196, "annotation": {"number": 64, "value": 127}, "group": "control_change"}, {"time": 1198, "annotation": {"number": 64, "value": 0}, "group": "control_change"}, {"time": 1207, "annotation": {"number": 64, "value": 127}, "group": "control_change"}, {"time": 1211, "annotation": {"number": 64, "value": 0}, "group": "control_change"}, {"time": 1220, "annotation": {"number": 64, "value": 127}, "group": "control_change"}, {"time": 1221, "annotation": {"number": 64, "value": 0}, "group": "control_change"}, {"time": 1231, "annotation": {"number": 64, "value": 127}, "group": "control_change"}, {"time": 1235, "annotation": {"number": 64, "value": 0}, "group": "control_change"}, {"time": 1245, "annotation": {"number": 64, "value": 127}, "group": "control_change"}, {"time": 1246, "annotation": {"number": 64, "value": 0}, "group": "control_change"}, {"time": 1256, "annotation": {"number": 64, "value": 127}, "group": "control_change"}, {"time": 1258, "annotation": {"number": 64, "value": 0}, "group": "control_change"}, {"time": 1268, "annotation": {"number": 64, "value": 127}, "group": "control_change"}, {"time": 1269, "annotation": {"number": 64, "value": 0}, "group": "control_change"}, {"time": 1279, "annotation": {"number": 64, "value": 127}, "group": "control_change"}, {"time": 1285, "annotation": {"number": 64, "value": 0}, "group": "control_change"}, {"time": 1290, "annotation": {"number": 64, "value": 127}, "group": "control_change"}, {"time": 1296, "annotation": {"number": 64, "value": 0}, "group": "control_change"}, {"time": 1316, "annotation": {"number": 64, "value": 127}, "group": "control_change"}, {"time": 1320, "annotation": {"number": 64, "value": 0}, "group": "control_change"}, {"time": 1327, "annotation": {"number": 64, "value": 127}, "group": "control_change"}, {"time": 1335, "annotation": {"number": 64, "value": 0}, "group": "control_change"}, {"time": 1339, "annotation": {"number": 64, "value": 127}, "group": "control_change"}, {"time": 1344, "annotation": {"number": 64, "value": 0}, "group": "control_change"}, {"time": 1351, "annotation": {"number": 64, "value": 127}, "group": "control_change"}, {"time": 1358, "annotation": {"number": 64, "value": 0}, "group": "control_change"}, {"time": 1363, "annotation": {"number": 64, "value": 127}, "group": "control_change"}, {"time": 1366, "annotation": {"number": 64, "value": 0}, "group": "control_change"}, {"time": 1375, "annotation": {"number": 64, "value": 127}, "group": "control_change"}, {"time": 1378, "annotation": {"number": 64, "value": 0}, "group": "control_change"}, {"time": 1387, "annotation": {"number": 64, "value": 127}, "group": "control_change"}, {"time": 1391, "annotation": {"number": 64, "value": 0}, "group": "control_change"}, {"time": 1400, "annotation": {"number": 64, "value": 127}, "group": "control_change"}, {"time": 1403, "annotation": {"number": 64, "value": 0}, "group": "control_change"}, {"time": 1411, "annotation": {"number": 64, "value": 127}, "group": "control_change"}, {"time": 1415, "annotation": {"number": 64, "value": 0}, "group": "control_change"}, {"time": 1424, "annotation": {"number": 64, "value": 127}, "group": "control_change"}, {"time": 1430, "annotation": {"number": 64, "value": 0}, "group": "control_change"}, {"time": 1436, "annotation": {"number": 64, "value": 127}, "group": "control_change"}, {"time": 1439, "annotation": {"number": 64, "value": 0}, "group": "control_change"}, {"time": 1460, "annotation": {"number": 64, "value": 127}, "group": "control_change"}, {"time": 1462, "annotation": {"number": 64, "value": 0}, "group": "control_change"}, {"time": 1471, "annotation": {"number": 64, "value": 127}, "group": "control_change"}, {"time": 1477, "annotation": {"number": 64, "value": 0}, "group": "control_change"}, {"time": 1483, "annotation": {"number": 64, "value": 127}, "group": "control_change"}, {"time": 1488, "annotation": {"number": 64, "value": 0}, "group": "control_change"}, {"time": 1496, "annotation": {"number": 64, "value": 127}, "group": "control_change"}, {"time": 1501, "annotation": {"number": 64, "value": 0}, "group": "control_change"}, {"time": 1509, "annotation": {"number": 64, "value": 127}, "group": "control_change"}, {"time": 1515, "annotation": {"number": 64, "value": 0}, "group": "control_change"}, {"time": 1520, "annotation": {"number": 64, "value": 127}, "group": "control_change"}, {"time": 1525, "annotation": {"number": 64, "value": 0}, "group": "control_change"}, {"time": 1532, "annotation": {"number": 64, "value": 127}, "group": "control_change"}, {"time": 1537, "annotation": {"number": 64, "value": 0}, "group": "control_change"}, {"time": 1555, "annotation": {"number": 64, "value": 127}, "group": "control_change"}, {"time": 1557, "annotation": {"number": 64, "value": 0}, "group": "control_change"}, {"time": 1567, "annotation": {"number": 64, "value": 127}, "group": "control_change"}, {"time": 1573, "annotation": {"number": 64, "value": 0}, "group": "control_change"}, {"time": 1580, "annotation": {"number": 64, "value": 127}, "group": "control_change"}, {"time": 1583, "annotation": {"number": 64, "value": 0}, "group": "control_change"}, {"time": 1592, "annotation": {"number": 64, "value": 127}, "group": "control_change"}, {"time": 1597, "annotation": {"number": 64, "value": 0}, "group": "control_change"}, {"time": 1604, "annotation": {"number": 64, "value": 127}, "group": "control_change"}, {"time": 1607, "annotation": {"number": 64, "value": 0}, "group": "control_change"}, {"time": 1616, "annotation": {"number": 64, "value": 127}, "group": "control_change"}, {"time": 1621, "annotation": {"number": 64, "value": 0}, "group": "control_change"}, {"time": 1628, "annotation": {"number": 64, "value": 127}, "group": "control_change"}, {"time": 1630, "annotation": {"number": 64, "value": 0}, "group": "control_change"}, {"time": 1639, "annotation": {"number": 64, "value": 127}, "group": "control_change"}, {"time": 1645, "annotation": {"number": 64, "value": 0}, "group": "control_change"}, {"time": 1651, "annotation": {"number": 64, "value": 127}, "group": "control_change"}, {"time": 1654, "annotation": {"number": 64, "value": 0}, "group": "control_change"}, {"time": 1663, "annotation": {"number": 64, "value": 127}, "group": "control_change"}, {"time": 1671, "annotation": {"number": 64, "value": 0}, "group": "control_change"}, {"time": 1676, "annotation": {"number": 64, "value": 127}, "group": "control_change"}, {"time": 1680, "annotation": {"number": 64, "value": 0}, "group": "control_change"}, {"time": 1688, "annotation": {"number": 64, "value": 127}, "group": "control_change"}, {"time": 1693, "annotation": {"number": 64, "value": 0}, "group": "control_change"}, {"time": 1700, "annotation": {"number": 64, "value": 127}, "group": "control_change"}, {"time": 1706, "annotation": {"number": 64, "value": 0}, "group": "control_change"}, {"time": 1712, "annotation": {"number": 64, "value": 127}, "group": "control_change"}, {"time": 1717, "annotation": {"number": 64, "value": 0}, "group": "control_change"}, {"time": 1724, "annotation": {"number": 64, "value": 127}, "group": "control_change"}, {"time": 1726, "annotation": {"number": 64, "value": 0}, "group": "control_change"}, {"time": 1736, "annotation": {"number": 64, "value": 127}, "group": "control_change"}, {"time": 1740, "annotation": {"number": 64, "value": 0}, "group": "control_change"}, {"time": 1749, "annotation": {"number": 64, "value": 127}, "group": "control_change"}, {"time": 1752, "annotation": {"number": 64, "value": 0}, "group": "control_change"}, {"time": 1760, "annotation": {"number": 64, "value": 127}, "group": "control_change"}, {"time": 1762, "annotation": {"number": 64, "value": 0}, "group": "control_change"}, {"time": 1772, "annotation": {"number": 64, "value": 127}, "group": "control_change"}, {"time": 1775, "annotation": {"number": 64, "value": 0}, "group": "control_change"}, {"time": 1806, "annotation": {"number": 64, "value": 127}, "group": "control_change"}, {"time": 1813, "annotation": {"number": 64, "value": 0}, "group": "control_change"}, {"time": 1819, "annotation": {"number": 64, "value": 127}, "group": "control_change"}, {"time": 1824, "annotation": {"number": 64, "value": 0}, "group": "control_change"}, {"time": 2275, "annotation": {"number": 64, "value": 127}, "group": "control_change"}, {"time": 2279, "annotation": {"number": 64, "value": 0}, "group": "control_change"}, {"time": 2287, "annotation": {"number": 64, "value": 127}, "group": "control_change"}, {"time": 2295, "annotation": {"number": 64, "value": 0}, "group": "control_change"}, {"time": 2300, "annotation": {"number": 64, "value": 127}, "group": "control_change"}, {"time": 2302, "annotation": {"number": 64, "value": 0}, "group": "control_change"}, {"time": 2311, "annotation": {"number": 64, "value": 127}, "group": "control_change"}, {"time": 2315, "annotation": {"number": 64, "value": 0}, "group": "control_change"}, {"time": 2324, "annotation": {"number": 64, "value": 127}, "group": "control_change"}, {"time": 2325, "annotation": {"number": 64, "value": 0}, "group": "control_change"}, {"time": 2335, "annotation": {"number": 64, "value": 127}, "group": "control_change"}, {"time": 2339, "annotation": {"number": 64, "value": 0}, "group": "control_change"}, {"time": 2349, "annotation": {"number": 64, "value": 127}, "group": "control_change"}, {"time": 2350, "annotation": {"number": 64, "value": 0}, "group": "control_change"}, {"time": 2360, "annotation": {"number": 64, "value": 127}, "group": "control_change"}, {"time": 2362, "annotation": {"number": 64, "value": 0}, "group": "control_change"}, {"time": 2372, "annotation": {"number": 64, "value": 127}, "group": "control_change"}, {"time": 2373, "annotation": {"number": 64, "value": 0}, "group": "control_change"}, {"time": 2383, "annotation": {"number": 64, "value": 127}, "group": "control_change"}, {"time": 2389, "annotation": {"number": 64, "value": 0}, "group": "control_change"}, {"time": 2394, "annotation": {"number": 64, "value": 127}, "group": "control_change"}, {"time": 2400, "annotation": {"number": 64, "value": 0}, "group": "control_change"}, {"time": 2420, "annotation": {"number": 64, "value": 127}, "group": "control_change"}, {"time": 2424, "annotation": {"number": 64, "value": 0}, "group": "control_change"}, {"time": 2431, "annotation": {"number": 64, "value": 127}, "group": "control_change"}, {"time": 2439, "annotation": {"number": 64, "value": 0}, "group": "control_change"}, {"time": 2443, "annotation": {"number": 64, "value": 127}, "group": "control_change"}, {"time": 2448, "annotation": {"number": 64, "value": 0}, "group": "control_change"}, {"time": 2455, "annotation": {"number": 64, "value": 127}, "group": "control_change"}, {"time": 2462, "annotation": {"number": 64, "value": 0}, "group": "control_change"}, {"time": 2467, "annotation": {"number": 64, "value": 127}, "group": "control_change"}, {"time": 2470, "annotation": {"number": 64, "value": 0}, "group": "control_change"}, {"time": 2479, "annotation": {"number": 64, "value": 127}, "group": "control_change"}, {"time": 2482, "annotation": {"number": 64, "value": 0}, "group": "control_change"}, {"time": 2491, "annotation": {"number": 64, "value": 127}, "group": "control_change"}, {"time": 2495, "annotation": {"number": 64, "value": 0}, "group": "control_change"}, {"time": 2504, "annotation": {"number": 64, "value": 127}, "group": "control_change"}, {"time": 2507, "annotation": {"number": 64, "value": 0}, "group": "control_change"}, {"time": 2515, "annotation": {"number": 64, "value": 127}, "group": "control_change"}, {"time": 2519, "annotation": {"number": 64, "value": 0}, "group": "control_change"}, {"time": 2528, "annotation": {"number": 64, "value": 127}, "group": "control_change"}, {"time": 2534, "annotation": {"number": 64, "value": 0}, "group": "control_change"}, {"time": 2540, "annotation": {"number": 64, "value": 127}, "group": "control_change"}, {"time": 2543, "annotation": {"number": 64, "value": 0}, "group": "control_change"}, {"time": 2564, "annotation": {"number": 64, "value": 127}, "group": "control_change"}, {"time": 2566, "annotation": {"number": 64, "value": 0}, "group": "control_change"}, {"time": 2575, "annotation": {"number": 64, "value": 127}, "group": "control_change"}, {"time": 2581, "annotation": {"number": 64, "value": 0}, "group": "control_change"}, {"time": 2587, "annotation": {"number": 64, "value": 127}, "group": "control_change"}, {"time": 2592, "annotation": {"number": 64, "value": 0}, "group": "control_change"}, {"time": 2600, "annotation": {"number": 64, "value": 127}, "group": "control_change"}, {"time": 2605, "annotation": {"number": 64, "value": 0}, "group": "control_change"}, {"time": 2613, "annotation": {"number": 64, "value": 127}, "group": "control_change"}, {"time": 2619, "annotation": {"number": 64, "value": 0}, "group": "control_change"}, {"time": 2624, "annotation": {"number": 64, "value": 127}, "group": "control_change"}, {"time": 2629, "annotation": {"number": 64, "value": 0}, "group": "control_change"}, {"time": 2636, "annotation": {"number": 64, "value": 127}, "group": "control_change"}, {"time": 2641, "annotation": {"number": 64, "value": 0}, "group": "control_change"}, {"time": 2659, "annotation": {"number": 64, "value": 127}, "group": "control_change"}, {"time": 2661, "annotation": {"number": 64, "value": 0}, "group": "control_change"}, {"time": 2671, "annotation": {"number": 64, "value": 127}, "group": "control_change"}, {"time": 2677, "annotation": {"number": 64, "value": 0}, "group": "control_change"}, {"time": 2684, "annotation": {"number": 64, "value": 127}, "group": "control_change"}, {"time": 2687, "annotation": {"number": 64, "value": 0}, "group": "control_change"}, {"time": 2696, "annotation": {"number": 64, "value": 127}, "group": "control_change"}, {"time": 2701, "annotation": {"number": 64, "value": 0}, "group": "control_change"}, {"time": 2708, "annotation": {"number": 64, "value": 127}, "group": "control_change"}, {"time": 2711, "annotation": {"number": 64, "value": 0}, "group": "control_change"}, {"time": 2720, "annotation": {"number": 64, "value": 127}, "group": "control_change"}, {"time": 2725, "annotation": {"number": 64, "value": 0}, "group": "control_change"}, {"time": 2732, "annotation": {"number": 64, "value": 127}, "group": "control_change"}, {"time": 2734, "annotation": {"number": 64, "value": 0}, "group": "control_change"}, {"time": 2743, "annotation": {"number": 64, "value": 127}, "group": "control_change"}, {"time": 2749, "annotation": {"number": 64, "value": 0}, "group": "control_change"}, {"time": 2755, "annotation": {"number": 64, "value": 127}, "group": "control_change"}, {"time": 2758, "annotation": {"number": 64, "value": 0}, "group": "control_change"}, {"time": 2767, "annotation": {"number": 64, "value": 127}, "group": "control_change"}, {"time": 2775, "annotation": {"number": 64, "value": 0}, "group": "control_change"}, {"time": 2780, "annotation": {"number": 64, "value": 127}, "group": "control_change"}, {"time": 2784, "annotation": {"number": 64, "value": 0}, "group": "control_change"}, {"time": 2792, "annotation": {"number": 64, "value": 127}, "group": "control_change"}, {"time": 2797, "annotation": {"number": 64, "value": 0}, "group": "control_change"}, {"time": 2804, "annotation": {"number": 64, "value": 127}, "group": "control_change"}, {"time": 2810, "annotation": {"number": 64, "value": 0}, "group": "control_change"}, {"time": 2816, "annotation": {"number": 64, "value": 127}, "group": "control_change"}, {"time": 2821, "annotation": {"number": 64, "value": 0}, "group": "control_change"}, {"time": 2828, "annotation": {"number": 64, "value": 127}, "group": "control_change"}, {"time": 2830, "annotation": {"number": 64, "value": 0}, "group": "control_change"}, {"time": 2840, "annotation": {"number": 64, "value": 127}, "group": "control_change"}, {"time": 2844, "annotation": {"number": 64, "value": 0}, "group": "control_change"}, {"time": 2853, "annotation": {"number": 64, "value": 127}, "group": "control_change"}, {"time": 2856, "annotation": {"number": 64, "value": 0}, "group": "control_change"}, {"time": 2864, "annotation": {"number": 64, "value": 127}, "group": "control_change"}, {"time": 2866, "annotation": {"number": 64, "value": 0}, "group": "control_change"}, {"time": 2876, "annotation": {"number": 64, "value": 127}, "group": "control_change"}, {"time": 2879, "annotation": {"number": 64, "value": 0}, "group": "control_change"}, {"time": 2910, "annotation": {"number": 64, "value": 127}, "group": "control_change"}, {"time": 2917, "annotation": {"number": 64, "value": 0}, "group": "control_change"}, {"time": 2923, "annotation": {"number": 64, "value": 127}, "group": "control_change"}, {"time": 2928, "annotation": {"number": 64, "value": 0}, "group": "control_change"}, {"time": 3187, "annotation": {"number": 64, "value": 127}, "group": "control_change"}, {"time": 3191, "annotation": {"number": 64, "value": 0}, "group": "control_change"}, {"time": 3199, "annotation": {"number": 64, "value": 127}, "group": "control_change"}, {"time": 3207, "annotation": {"number": 64, "value": 0}, "group": "control_change"}, {"time": 3212, "annotation": {"number": 64, "value": 127}, "group": "control_change"}, {"time": 3214, "annotation": {"number": 64, "value": 0}, "group": "control_change"}, {"time": 3223, "annotation": {"number": 64, "value": 127}, "group": "control_change"}, {"time": 3227, "annotation": {"number": 64, "value": 0}, "group": "control_change"}, {"time": 3236, "annotation": {"number": 64, "value": 127}, "group": "control_change"}, {"time": 3237, "annotation": {"number": 64, "value": 0}, "group": "control_change"}, {"time": 3247, "annotation": {"number": 64, "value": 127}, "group": "control_change"}, {"time": 3251, "annotation": {"number": 64, "value": 0}, "group": "control_change"}, {"time": 3261, "annotation": {"number": 64, "value": 127}, "group": "control_change"}, {"time": 3262, "annotation": {"number": 64, "value": 0}, "group": "control_change"}, {"time": 3272, "annotation": {"number": 64, "value": 127}, "group": "control_change"}, {"time": 3274, "annotation": {"number": 64, "value": 0}, "group": "control_change"}, {"time": 3284, "annotation": {"number": 64, "value": 127}, "group": "control_change"}, {"time": 3285, "annotation": {"number": 64, "value": 0}, "group": "control_change"}, {"time": 3295, "annotation": {"number": 64, "value": 127}, "group": "control_change"}, {"time": 3301, "annotation": {"number": 64, "value": 0}, "group": "control_change"}, {"time": 3306, "annotation": {"number": 64, "value": 127}, "group": "control_change"}, {"time": 3312, "annotation": {"number": 64, "value": 0}, "group": "control_change"}, {"time": 3332, "annotation": {"number": 64, "value": 127}, "group": "control_change"}, {"time": 3336, "annotation": {"number": 64, "value": 0}, "group": "control_change"}, {"time": 3343, "annotation": {"number": 64, "value": 127}, "group": "control_change"}, {"time": 3351, "annotation": {"number": 64, "value": 0}, "group": "control_change"}, {"time": 3355, "annotation": {"number": 64, "value": 127}, "group": "control_change"}, {"time": 3360, "annotation": {"number": 64, "value": 0}, "group": "control_change"}, {"time": 3367, "annotation": {"number": 64, "value": 127}, "group": "control_change"}, {"time": 3374, "annotation": {"number": 64, "value": 0}, "group": "control_change"}, {"time": 3379, "annotation": {"number": 64, "value": 127}, "group": "control_change"}, {"time": 3382, "annotation": {"number": 64, "value": 0}, "group": "control_change"}, {"time": 3391, "annotation": {"number": 64, "value": 127}, "group": "control_change"}, {"time": 3394, "annotation": {"number": 64, "value": 0}, "group": "control_change"}, {"time": 3403, "annotation": {"number": 64, "value": 127}, "group": "control_change"}, {"time": 3407, "annotation": {"number": 64, "value": 0}, "group": "control_change"}, {"time": 3416, "annotation": {"number": 64, "value": 127}, "group": "control_change"}, {"time": 3419, "annotation": {"number": 64, "value": 0}, "group": "control_change"}, {"time": 3427, "annotation": {"number": 64, "value": 127}, "group": "control_change"}, {"time": 3431, "annotation": {"number": 64, "value": 0}, "group": "control_change"}, {"time": 3440, "annotation": {"number": 64, "value": 127}, "group": "control_change"}, {"time": 3446, "annotation": {"number": 64, "value": 0}, "group": "control_change"}, {"time": 3452, "annotation": {"number": 64, "value": 127}, "group": "control_change"}, {"time": 3455, "annotation": {"number": 64, "value": 0}, "group": "control_change"}, {"time": 3476, "annotation": {"number": 64, "value": 127}, "group": "control_change"}, {"time": 3478, "annotation": {"number": 64, "value": 0}, "group": "control_change"}, {"time": 3487, "annotation": {"number": 64, "value": 127}, "group": "control_change"}, {"time": 3493, "annotation": {"number": 64, "value": 0}, "group": "control_change"}, {"time": 3499, "annotation": {"number": 64, "value": 127}, "group": "control_change"}, {"time": 3504, "annotation": {"number": 64, "value": 0}, "group": "control_change"}, {"time": 3512, "annotation": {"number": 64, "value": 127}, "group": "control_change"}, {"time": 3517, "annotation": {"number": 64, "value": 0}, "group": "control_change"}, {"time": 3525, "annotation": {"number": 64, "value": 127}, "group": "control_change"}, {"time": 3531, "annotation": {"number": 64, "value": 0}, "group": "control_change"}, {"time": 3536, "annotation": {"number": 64, "value": 127}, "group": "control_change"}, {"time": 3541, "annotation": {"number": 64, "value": 0}, "group": "control_change"}, {"time": 3548, "annotation": {"number": 64, "value": 127}, "group": "control_change"}, {"time": 3553, "annotation": {"number": 64, "value": 0}, "group": "control_change"}, {"time": 3571, "annotation": {"number": 64, "value": 127}, "group": "control_change"}, {"time": 3573, "annotation": {"number": 64, "value": 0}, "group": "control_change"}, {"time": 3583, "annotation": {"number": 64, "value": 127}, "group": "control_change"}, {"time": 3589, "annotation": {"number": 64, "value": 0}, "group": "control_change"}, {"time": 3596, "annotation": {"number": 64, "value": 127}, "group": "control_change"}, {"time": 3599, "annotation": {"number": 64, "value": 0}, "group": "control_change"}, {"time": 3608, "annotation": {"number": 64, "value": 127}, "group": "control_change"}, {"time": 3613, "annotation": {"number": 64, "value": 0}, "group": "control_change"}, {"time": 3620, "annotation": {"number": 64, "value": 127}, "group": "control_change"}, {"time": 3623, "annotation": {"number": 64, "value": 0}, "group": "control_change"}, {"time": 3632, "annotation": {"number": 64, "value": 127}, "group": "control_change"}, {"time": 3637, "annotation": {"number": 64, "value": 0}, "group": "control_change"}, {"time": 3644, "annotation": {"number": 64, "value": 127}, "group": "control_change"}, {"time": 3646, "annotation": {"number": 64, "value": 0}, "group": "control_change"}, {"time": 3655, "annotation": {"number": 64, "value": 127}, "group": "control_change"}, {"time": 3661, "annotation": {"number": 64, "value": 0}, "group": "control_change"}, {"time": 3667, "annotation": {"number": 64, "value": 127}, "group": "control_change"}, {"time": 3670, "annotation": {"number": 64, "value": 0}, "group": "control_change"}, {"time": 3679, "annotation": {"number": 64, "value": 127}, "group": "control_change"}, {"time": 3687, "annotation": {"number": 64, "value": 0}, "group": "control_change"}, {"time": 3692, "annotation": {"number": 64, "value": 127}, "group": "control_change"}, {"time": 3696, "annotation": {"number": 64, "value": 0}, "group": "control_change"}, {"time": 3704, "annotation": {"number": 64, "value": 127}, "group": "control_change"}, {"time": 3709, "annotation": {"number": 64, "value": 0}, "group": "control_change"}, {"time": 3716, "annotation": {"number": 64, "value": 127}, "group": "control_change"}, {"time": 3722, "annotation": {"number": 64, "value": 0}, "group": "control_change"}, {"time": 3728, "annotation": {"number": 64, "value": 127}, "group": "control_change"}, {"time": 3733, "annotation": {"number": 64, "value": 0}, "group": "control_change"}, {"time": 3740, "annotation": {"number": 64, "value": 127}, "group": "control_change"}, {"time": 3742, "annotation": {"number": 64, "value": 0}, "group": "control_change"}, {"time": 3752, "annotation": {"number": 64, "value": 127}, "group": "control_change"}, {"time": 3756, "annotation": {"number": 64, "value": 0}, "group": "control_change"}, {"time": 3765, "annotation": {"number": 64, "value": 127}, "group": "control_change"}, {"time": 3768, "annotation": {"number": 64, "value": 0}, "group": "control_change"}, {"time": 3776, "annotation": {"number": 64, "value": 127}, "group": "control_change"}, {"time": 3778, "annotation": {"number": 64, "value": 0}, "group": "control_change"}, {"time": 3788, "annotation": {"number": 64, "value": 127}, "group": "control_change"}, {"time": 3791, "annotation": {"number": 64, "value": 0}, "group": "control_change"}, {"time": 3822, "annotation": {"number": 64, "value": 127}, "group": "control_change"}, {"time": 3829, "annotation": {"number": 64, "value": 0}, "group": "control_change"}, {"time": 3835, "annotation": {"number": 64, "value": 127}, "group": "control_change"}, {"time": 3840, "annotation": {"number": 64, "value": 0}, "group": "control_change"}, {"time": 4284, "annotation": {"number": 64, "value": 127}, "group": "control_change"}, {"time": 4347, "annotation": {"number": 64, "value": 0}, "group": "control_change"}, {"time": 4348, "annotation": {"number": 64, "value": 127}, "group": "control_change"}, {"time": 4351, "annotation": {"number": 64, "value": 0}, "group": "control_change"}, {"time": 4353, "annotation": {"number": 64, "value": 127}, "group": "control_change"}, {"time": 4357, "annotation": {"number": 64, "value": 0}, "group": "control_change"}]}]}