{"metadata": {"schema_version": "0.2", "title": "None", "source_filename": "352.mid", "source_format": "midi"}, "resolution": 12, "tempos": [{"time": 0, "qpm": 68.0000725334107}], "time_signatures": [{"time": 0, "numerator": 1, "denominator": 4}], "tracks": [{"program": 0, "is_drum": false, "name": "MELODY", "notes": [{"time": 185, "pitch": 60, "duration": 7, "velocity": 97}, {"time": 191, "pitch": 63, "duration": 6, "velocity": 100}, {"time": 197, "pitch": 65, "duration": 18, "velocity": 97}, {"time": 215, "pitch": 63, "duration": 6, "velocity": 93}, {"time": 221, "pitch": 65, "duration": 6, "velocity": 92}, {"time": 227, "pitch": 72, "duration": 6, "velocity": 102}, {"time": 233, "pitch": 70, "duration": 6, "velocity": 107}, {"time": 239, "pitch": 68, "duration": 6, "velocity": 107}, {"time": 245, "pitch": 65, "duration": 7, "velocity": 96}, {"time": 251, "pitch": 63, "duration": 30, "velocity": 97}, {"time": 281, "pitch": 60, "duration": 6, "velocity": 99}, {"time": 287, "pitch": 63, "duration": 6, "velocity": 92}, {"time": 293, "pitch": 65, "duration": 18, "velocity": 93}, {"time": 311, "pitch": 63, "duration": 6, "velocity": 93}, {"time": 317, "pitch": 65, "duration": 6, "velocity": 82}, {"time": 323, "pitch": 72, "duration": 7, "velocity": 97}, {"time": 329, "pitch": 70, "duration": 6, "velocity": 102}, {"time": 335, "pitch": 68, "duration": 7, "velocity": 97}, {"time": 341, "pitch": 70, "duration": 36, "velocity": 92}, {"time": 377, "pitch": 68, "duration": 7, "velocity": 102}, {"time": 383, "pitch": 70, "duration": 7, "velocity": 102}, {"time": 389, "pitch": 72, "duration": 18, "velocity": 97}, {"time": 407, "pitch": 70, "duration": 6, "velocity": 97}, {"time": 413, "pitch": 70, "duration": 6, "velocity": 97}, {"time": 419, "pitch": 68, "duration": 15, "velocity": 99}, {"time": 431, "pitch": 65, "duration": 7, "velocity": 93}, {"time": 437, "pitch": 68, "duration": 18, "velocity": 107}, {"time": 455, "pitch": 70, "duration": 6, "velocity": 107}, {"time": 461, "pitch": 68, "duration": 3, "velocity": 107}, {"time": 464, "pitch": 70, "duration": 3, "velocity": 112}, {"time": 467, "pitch": 68, "duration": 6, "velocity": 107}, {"time": 473, "pitch": 65, "duration": 6, "velocity": 95}, {"time": 479, "pitch": 63, "duration": 6, "velocity": 100}, {"time": 485, "pitch": 60, "duration": 6, "velocity": 89}, {"time": 491, "pitch": 58, "duration": 6, "velocity": 76}, {"time": 497, "pitch": 60, "duration": 6, "velocity": 90}, {"time": 503, "pitch": 68, "duration": 6, "velocity": 122}, {"time": 509, "pitch": 65, "duration": 6, "velocity": 97}, {"time": 515, "pitch": 63, "duration": 6, "velocity": 95}, {"time": 521, "pitch": 63, "duration": 12, "velocity": 97}, {"time": 533, "pitch": 65, "duration": 6, "velocity": 90}, {"time": 539, "pitch": 63, "duration": 7, "velocity": 76}, {"time": 545, "pitch": 65, "duration": 6, "velocity": 86}, {"time": 551, "pitch": 63, "duration": 6, "velocity": 97}, {"time": 557, "pitch": 65, "duration": 18, "velocity": 86}, {"time": 575, "pitch": 60, "duration": 6, "velocity": 102}, {"time": 581, "pitch": 63, "duration": 36, "velocity": 100}, {"time": 617, "pitch": 60, "duration": 7, "velocity": 97}, {"time": 623, "pitch": 63, "duration": 6, "velocity": 100}, {"time": 629, "pitch": 65, "duration": 18, "velocity": 97}, {"time": 647, "pitch": 63, "duration": 6, "velocity": 93}, {"time": 653, "pitch": 65, "duration": 6, "velocity": 92}, {"time": 659, "pitch": 72, "duration": 6, "velocity": 102}, {"time": 665, "pitch": 70, "duration": 6, "velocity": 107}, {"time": 671, "pitch": 68, "duration": 6, "velocity": 107}, {"time": 677, "pitch": 65, "duration": 7, "velocity": 96}, {"time": 683, "pitch": 63, "duration": 30, "velocity": 97}, {"time": 713, "pitch": 60, "duration": 6, "velocity": 99}, {"time": 719, "pitch": 63, "duration": 6, "velocity": 92}, {"time": 725, "pitch": 65, "duration": 18, "velocity": 93}, {"time": 743, "pitch": 63, "duration": 6, "velocity": 93}, {"time": 749, "pitch": 65, "duration": 6, "velocity": 82}, {"time": 755, "pitch": 72, "duration": 7, "velocity": 97}, {"time": 761, "pitch": 70, "duration": 6, "velocity": 102}, {"time": 767, "pitch": 68, "duration": 7, "velocity": 97}, {"time": 773, "pitch": 70, "duration": 36, "velocity": 92}, {"time": 809, "pitch": 68, "duration": 7, "velocity": 102}, {"time": 815, "pitch": 70, "duration": 7, "velocity": 102}, {"time": 821, "pitch": 72, "duration": 18, "velocity": 97}, {"time": 839, "pitch": 70, "duration": 6, "velocity": 97}, {"time": 845, "pitch": 70, "duration": 6, "velocity": 97}, {"time": 851, "pitch": 68, "duration": 15, "velocity": 99}, {"time": 863, "pitch": 65, "duration": 7, "velocity": 93}, {"time": 869, "pitch": 68, "duration": 18, "velocity": 107}, {"time": 887, "pitch": 70, "duration": 6, "velocity": 107}, {"time": 893, "pitch": 68, "duration": 3, "velocity": 107}, {"time": 896, "pitch": 70, "duration": 3, "velocity": 112}, {"time": 899, "pitch": 68, "duration": 6, "velocity": 107}, {"time": 905, "pitch": 65, "duration": 6, "velocity": 95}, {"time": 911, "pitch": 63, "duration": 6, "velocity": 100}, {"time": 917, "pitch": 60, "duration": 6, "velocity": 89}, {"time": 923, "pitch": 58, "duration": 6, "velocity": 76}, {"time": 929, "pitch": 60, "duration": 6, "velocity": 90}, {"time": 935, "pitch": 68, "duration": 6, "velocity": 122}, {"time": 941, "pitch": 65, "duration": 6, "velocity": 97}, {"time": 947, "pitch": 63, "duration": 6, "velocity": 95}, {"time": 953, "pitch": 63, "duration": 12, "velocity": 97}, {"time": 965, "pitch": 65, "duration": 6, "velocity": 90}, {"time": 971, "pitch": 63, "duration": 7, "velocity": 76}, {"time": 977, "pitch": 65, "duration": 6, "velocity": 86}, {"time": 983, "pitch": 63, "duration": 6, "velocity": 97}, {"time": 989, "pitch": 65, "duration": 18, "velocity": 86}, {"time": 1007, "pitch": 65, "duration": 3, "velocity": 99}, {"time": 1010, "pitch": 68, "duration": 4, "velocity": 89}, {"time": 1013, "pitch": 70, "duration": 36, "velocity": 117}, {"time": 1049, "pitch": 68, "duration": 6, "velocity": 122}, {"time": 1055, "pitch": 70, "duration": 6, "velocity": 107}, {"time": 1061, "pitch": 72, "duration": 12, "velocity": 102}, {"time": 1073, "pitch": 72, "duration": 6, "velocity": 107}, {"time": 1079, "pitch": 70, "duration": 6, "velocity": 112}, {"time": 1085, "pitch": 70, "duration": 12, "velocity": 127}, {"time": 1097, "pitch": 68, "duration": 6, "velocity": 127}, {"time": 1103, "pitch": 70, "duration": 6, "velocity": 127}, {"time": 1109, "pitch": 72, "duration": 7, "velocity": 117}, {"time": 1115, "pitch": 77, "duration": 6, "velocity": 107}, {"time": 1121, "pitch": 72, "duration": 6, "velocity": 102}, {"time": 1127, "pitch": 70, "duration": 6, "velocity": 127}, {"time": 1133, "pitch": 70, "duration": 12, "velocity": 122}, {"time": 1145, "pitch": 65, "duration": 6, "velocity": 100}, {"time": 1151, "pitch": 67, "duration": 6, "velocity": 102}, {"time": 1157, "pitch": 68, "duration": 12, "velocity": 112}, {"time": 1169, "pitch": 68, "duration": 6, "velocity": 122}, {"time": 1175, "pitch": 72, "duration": 6, "velocity": 100}, {"time": 1181, "pitch": 70, "duration": 12, "velocity": 112}, {"time": 1193, "pitch": 65, "duration": 6, "velocity": 97}, {"time": 1199, "pitch": 67, "duration": 6, "velocity": 102}, {"time": 1205, "pitch": 68, "duration": 3, "velocity": 122}, {"time": 1208, "pitch": 68, "duration": 3, "velocity": 122}, {"time": 1211, "pitch": 68, "duration": 3, "velocity": 117}, {"time": 1214, "pitch": 65, "duration": 3, "velocity": 90}, {"time": 1217, "pitch": 68, "duration": 6, "velocity": 112}, {"time": 1223, "pitch": 72, "duration": 6, "velocity": 112}, {"time": 1229, "pitch": 70, "duration": 12, "velocity": 117}, {"time": 1241, "pitch": 68, "duration": 6, "velocity": 122}, {"time": 1247, "pitch": 70, "duration": 6, "velocity": 127}, {"time": 1253, "pitch": 72, "duration": 12, "velocity": 127}, {"time": 1265, "pitch": 72, "duration": 6, "velocity": 127}, {"time": 1271, "pitch": 70, "duration": 6, "velocity": 117}, {"time": 1277, "pitch": 70, "duration": 12, "velocity": 127}, {"time": 1289, "pitch": 68, "duration": 6, "velocity": 127}, {"time": 1295, "pitch": 70, "duration": 6, "velocity": 127}, {"time": 1301, "pitch": 72, "duration": 6, "velocity": 117}, {"time": 1307, "pitch": 77, "duration": 6, "velocity": 127}, {"time": 1313, "pitch": 72, "duration": 6, "velocity": 107}, {"time": 1319, "pitch": 70, "duration": 6, "velocity": 107}, {"time": 1325, "pitch": 70, "duration": 12, "velocity": 107}, {"time": 1337, "pitch": 65, "duration": 6, "velocity": 102}, {"time": 1343, "pitch": 67, "duration": 6, "velocity": 127}, {"time": 1349, "pitch": 68, "duration": 9, "velocity": 127}, {"time": 1358, "pitch": 65, "duration": 3, "velocity": 99}, {"time": 1361, "pitch": 68, "duration": 6, "velocity": 127}, {"time": 1367, "pitch": 72, "duration": 6, "velocity": 127}, {"time": 1373, "pitch": 70, "duration": 18, "velocity": 117}, {"time": 1391, "pitch": 65, "duration": 3, "velocity": 95}, {"time": 1394, "pitch": 67, "duration": 3, "velocity": 100}, {"time": 1397, "pitch": 68, "duration": 6, "velocity": 112}, {"time": 1403, "pitch": 68, "duration": 6, "velocity": 127}, {"time": 1409, "pitch": 67, "duration": 6, "velocity": 99}, {"time": 1415, "pitch": 65, "duration": 18, "velocity": 99}, {"time": 1433, "pitch": 63, "duration": 7, "velocity": 102}, {"time": 1439, "pitch": 65, "duration": 4, "velocity": 102}, {"time": 1442, "pitch": 67, "duration": 9, "velocity": 93}, {"time": 1451, "pitch": 65, "duration": 49, "velocity": 100}, {"time": 1865, "pitch": 60, "duration": 7, "velocity": 97}, {"time": 1871, "pitch": 63, "duration": 6, "velocity": 100}, {"time": 1877, "pitch": 65, "duration": 18, "velocity": 97}, {"time": 1895, "pitch": 63, "duration": 6, "velocity": 93}, {"time": 1901, "pitch": 65, "duration": 6, "velocity": 92}, {"time": 1907, "pitch": 72, "duration": 6, "velocity": 102}, {"time": 1913, "pitch": 70, "duration": 6, "velocity": 107}, {"time": 1919, "pitch": 68, "duration": 6, "velocity": 107}, {"time": 1925, "pitch": 65, "duration": 7, "velocity": 96}, {"time": 1931, "pitch": 63, "duration": 30, "velocity": 97}, {"time": 1961, "pitch": 60, "duration": 6, "velocity": 99}, {"time": 1967, "pitch": 63, "duration": 6, "velocity": 92}, {"time": 1973, "pitch": 65, "duration": 18, "velocity": 93}, {"time": 1991, "pitch": 63, "duration": 6, "velocity": 93}, {"time": 1997, "pitch": 65, "duration": 6, "velocity": 82}, {"time": 2003, "pitch": 72, "duration": 7, "velocity": 97}, {"time": 2009, "pitch": 70, "duration": 6, "velocity": 102}, {"time": 2015, "pitch": 68, "duration": 7, "velocity": 97}, {"time": 2021, "pitch": 70, "duration": 36, "velocity": 92}, {"time": 2057, "pitch": 68, "duration": 7, "velocity": 102}, {"time": 2063, "pitch": 70, "duration": 7, "velocity": 102}, {"time": 2069, "pitch": 72, "duration": 18, "velocity": 97}, {"time": 2087, "pitch": 70, "duration": 6, "velocity": 97}, {"time": 2093, "pitch": 70, "duration": 6, "velocity": 97}, {"time": 2099, "pitch": 68, "duration": 15, "velocity": 99}, {"time": 2111, "pitch": 65, "duration": 7, "velocity": 93}, {"time": 2117, "pitch": 68, "duration": 18, "velocity": 107}, {"time": 2135, "pitch": 70, "duration": 6, "velocity": 107}, {"time": 2141, "pitch": 68, "duration": 3, "velocity": 107}, {"time": 2144, "pitch": 70, "duration": 3, "velocity": 112}, {"time": 2147, "pitch": 68, "duration": 6, "velocity": 107}, {"time": 2153, "pitch": 65, "duration": 6, "velocity": 95}, {"time": 2159, "pitch": 63, "duration": 6, "velocity": 100}, {"time": 2165, "pitch": 60, "duration": 6, "velocity": 89}, {"time": 2171, "pitch": 58, "duration": 6, "velocity": 76}, {"time": 2177, "pitch": 60, "duration": 6, "velocity": 90}, {"time": 2183, "pitch": 68, "duration": 6, "velocity": 122}, {"time": 2189, "pitch": 65, "duration": 6, "velocity": 97}, {"time": 2195, "pitch": 63, "duration": 6, "velocity": 95}, {"time": 2201, "pitch": 63, "duration": 12, "velocity": 97}, {"time": 2213, "pitch": 65, "duration": 6, "velocity": 90}, {"time": 2219, "pitch": 63, "duration": 7, "velocity": 76}, {"time": 2225, "pitch": 65, "duration": 6, "velocity": 86}, {"time": 2231, "pitch": 63, "duration": 6, "velocity": 97}, {"time": 2237, "pitch": 65, "duration": 18, "velocity": 86}, {"time": 2255, "pitch": 60, "duration": 6, "velocity": 102}, {"time": 2261, "pitch": 63, "duration": 36, "velocity": 100}, {"time": 2297, "pitch": 60, "duration": 7, "velocity": 97}, {"time": 2303, "pitch": 63, "duration": 6, "velocity": 100}, {"time": 2309, "pitch": 65, "duration": 18, "velocity": 97}, {"time": 2327, "pitch": 63, "duration": 6, "velocity": 93}, {"time": 2333, "pitch": 65, "duration": 6, "velocity": 92}, {"time": 2339, "pitch": 72, "duration": 6, "velocity": 102}, {"time": 2345, "pitch": 70, "duration": 6, "velocity": 107}, {"time": 2351, "pitch": 68, "duration": 6, "velocity": 107}, {"time": 2357, "pitch": 65, "duration": 7, "velocity": 96}, {"time": 2363, "pitch": 63, "duration": 30, "velocity": 97}, {"time": 2393, "pitch": 60, "duration": 6, "velocity": 99}, {"time": 2399, "pitch": 63, "duration": 6, "velocity": 92}, {"time": 2405, "pitch": 65, "duration": 18, "velocity": 93}, {"time": 2423, "pitch": 63, "duration": 6, "velocity": 93}, {"time": 2429, "pitch": 65, "duration": 6, "velocity": 82}, {"time": 2435, "pitch": 72, "duration": 7, "velocity": 97}, {"time": 2441, "pitch": 70, "duration": 6, "velocity": 102}, {"time": 2447, "pitch": 68, "duration": 7, "velocity": 97}, {"time": 2453, "pitch": 70, "duration": 36, "velocity": 92}, {"time": 2489, "pitch": 68, "duration": 7, "velocity": 102}, {"time": 2495, "pitch": 70, "duration": 7, "velocity": 102}, {"time": 2501, "pitch": 72, "duration": 18, "velocity": 97}, {"time": 2519, "pitch": 70, "duration": 6, "velocity": 97}, {"time": 2525, "pitch": 70, "duration": 6, "velocity": 97}, {"time": 2531, "pitch": 68, "duration": 15, "velocity": 99}, {"time": 2543, "pitch": 65, "duration": 7, "velocity": 93}, {"time": 2549, "pitch": 68, "duration": 18, "velocity": 107}, {"time": 2567, "pitch": 70, "duration": 6, "velocity": 107}, {"time": 2573, "pitch": 68, "duration": 3, "velocity": 107}, {"time": 2576, "pitch": 70, "duration": 3, "velocity": 112}, {"time": 2579, "pitch": 68, "duration": 6, "velocity": 107}, {"time": 2585, "pitch": 65, "duration": 6, "velocity": 95}, {"time": 2591, "pitch": 63, "duration": 6, "velocity": 100}, {"time": 2597, "pitch": 60, "duration": 6, "velocity": 89}, {"time": 2603, "pitch": 58, "duration": 6, "velocity": 76}, {"time": 2609, "pitch": 60, "duration": 6, "velocity": 90}, {"time": 2615, "pitch": 68, "duration": 6, "velocity": 122}, {"time": 2621, "pitch": 65, "duration": 6, "velocity": 97}, {"time": 2627, "pitch": 63, "duration": 6, "velocity": 95}, {"time": 2633, "pitch": 63, "duration": 12, "velocity": 97}, {"time": 2645, "pitch": 65, "duration": 6, "velocity": 90}, {"time": 2651, "pitch": 63, "duration": 7, "velocity": 76}, {"time": 2657, "pitch": 65, "duration": 6, "velocity": 86}, {"time": 2663, "pitch": 63, "duration": 6, "velocity": 97}, {"time": 2669, "pitch": 65, "duration": 18, "velocity": 86}, {"time": 2687, "pitch": 65, "duration": 3, "velocity": 99}, {"time": 2690, "pitch": 68, "duration": 4, "velocity": 89}, {"time": 2693, "pitch": 70, "duration": 36, "velocity": 117}, {"time": 2729, "pitch": 68, "duration": 6, "velocity": 122}, {"time": 2735, "pitch": 70, "duration": 6, "velocity": 107}, {"time": 2741, "pitch": 72, "duration": 12, "velocity": 102}, {"time": 2753, "pitch": 72, "duration": 6, "velocity": 107}, {"time": 2759, "pitch": 70, "duration": 6, "velocity": 112}, {"time": 2765, "pitch": 70, "duration": 12, "velocity": 127}, {"time": 2777, "pitch": 68, "duration": 6, "velocity": 127}, {"time": 2783, "pitch": 70, "duration": 6, "velocity": 127}, {"time": 2789, "pitch": 72, "duration": 7, "velocity": 117}, {"time": 2795, "pitch": 77, "duration": 6, "velocity": 107}, {"time": 2801, "pitch": 72, "duration": 6, "velocity": 102}, {"time": 2807, "pitch": 70, "duration": 6, "velocity": 127}, {"time": 2813, "pitch": 70, "duration": 12, "velocity": 122}, {"time": 2825, "pitch": 65, "duration": 6, "velocity": 100}, {"time": 2831, "pitch": 67, "duration": 6, "velocity": 102}, {"time": 2837, "pitch": 68, "duration": 12, "velocity": 112}, {"time": 2849, "pitch": 68, "duration": 6, "velocity": 122}, {"time": 2855, "pitch": 72, "duration": 6, "velocity": 100}, {"time": 2861, "pitch": 70, "duration": 12, "velocity": 112}, {"time": 2873, "pitch": 65, "duration": 6, "velocity": 97}, {"time": 2879, "pitch": 67, "duration": 6, "velocity": 102}, {"time": 2885, "pitch": 68, "duration": 3, "velocity": 122}, {"time": 2888, "pitch": 68, "duration": 3, "velocity": 122}, {"time": 2891, "pitch": 68, "duration": 3, "velocity": 117}, {"time": 2894, "pitch": 65, "duration": 3, "velocity": 90}, {"time": 2897, "pitch": 68, "duration": 6, "velocity": 112}, {"time": 2903, "pitch": 72, "duration": 6, "velocity": 112}, {"time": 2909, "pitch": 70, "duration": 12, "velocity": 117}, {"time": 2921, "pitch": 68, "duration": 6, "velocity": 122}, {"time": 2927, "pitch": 70, "duration": 6, "velocity": 127}, {"time": 2933, "pitch": 72, "duration": 12, "velocity": 127}, {"time": 2945, "pitch": 72, "duration": 6, "velocity": 127}, {"time": 2951, "pitch": 70, "duration": 6, "velocity": 117}, {"time": 2957, "pitch": 70, "duration": 12, "velocity": 127}, {"time": 2969, "pitch": 68, "duration": 6, "velocity": 127}, {"time": 2975, "pitch": 70, "duration": 6, "velocity": 127}, {"time": 2981, "pitch": 72, "duration": 6, "velocity": 117}, {"time": 2987, "pitch": 77, "duration": 6, "velocity": 127}, {"time": 2993, "pitch": 72, "duration": 6, "velocity": 107}, {"time": 2999, "pitch": 70, "duration": 6, "velocity": 107}, {"time": 3005, "pitch": 70, "duration": 12, "velocity": 107}, {"time": 3017, "pitch": 65, "duration": 6, "velocity": 102}, {"time": 3023, "pitch": 67, "duration": 6, "velocity": 127}, {"time": 3029, "pitch": 68, "duration": 9, "velocity": 127}, {"time": 3038, "pitch": 65, "duration": 3, "velocity": 99}, {"time": 3041, "pitch": 68, "duration": 6, "velocity": 127}, {"time": 3047, "pitch": 72, "duration": 6, "velocity": 127}, {"time": 3053, "pitch": 70, "duration": 18, "velocity": 117}, {"time": 3071, "pitch": 65, "duration": 3, "velocity": 95}, {"time": 3074, "pitch": 67, "duration": 3, "velocity": 100}, {"time": 3077, "pitch": 68, "duration": 6, "velocity": 112}, {"time": 3083, "pitch": 68, "duration": 6, "velocity": 127}, {"time": 3089, "pitch": 67, "duration": 6, "velocity": 99}, {"time": 3095, "pitch": 65, "duration": 18, "velocity": 99}, {"time": 3113, "pitch": 63, "duration": 7, "velocity": 102}, {"time": 3119, "pitch": 65, "duration": 4, "velocity": 102}, {"time": 3122, "pitch": 67, "duration": 9, "velocity": 93}, {"time": 3131, "pitch": 65, "duration": 49, "velocity": 100}]}, {"program": 0, "is_drum": false, "name": "PIANO", "notes": [{"time": 5, "pitch": 41, "duration": 39, "velocity": 66}, {"time": 5, "pitch": 65, "duration": 15, "velocity": 58}, {"time": 5, "pitch": 68, "duration": 14, "velocity": 66}, {"time": 11, "pitch": 48, "duration": 33, "velocity": 58}, {"time": 17, "pitch": 53, "duration": 23, "velocity": 81}, {"time": 23, "pitch": 60, "duration": 7, "velocity": 65}, {"time": 29, "pitch": 65, "duration": 13, "velocity": 63}, {"time": 29, "pitch": 68, "duration": 10, "velocity": 57}, {"time": 41, "pitch": 68, "duration": 14, "velocity": 85}, {"time": 47, "pitch": 65, "duration": 7, "velocity": 50}, {"time": 53, "pitch": 37, "duration": 36, "velocity": 82}, {"time": 59, "pitch": 49, "duration": 10, "velocity": 64}, {"time": 65, "pitch": 53, "duration": 13, "velocity": 79}, {"time": 71, "pitch": 49, "duration": 13, "velocity": 45}, {"time": 77, "pitch": 56, "duration": 13, "velocity": 71}, {"time": 77, "pitch": 61, "duration": 11, "velocity": 61}, {"time": 89, "pitch": 61, "duration": 12, "velocity": 76}, {"time": 95, "pitch": 56, "duration": 6, "velocity": 60}, {"time": 101, "pitch": 41, "duration": 38, "velocity": 72}, {"time": 107, "pitch": 48, "duration": 31, "velocity": 64}, {"time": 113, "pitch": 53, "duration": 24, "velocity": 78}, {"time": 119, "pitch": 60, "duration": 32, "velocity": 75}, {"time": 125, "pitch": 65, "duration": 12, "velocity": 89}, {"time": 137, "pitch": 68, "duration": 9, "velocity": 92}, {"time": 143, "pitch": 65, "duration": 6, "velocity": 50}, {"time": 149, "pitch": 36, "duration": 38, "velocity": 72}, {"time": 155, "pitch": 48, "duration": 9, "velocity": 71}, {"time": 161, "pitch": 55, "duration": 25, "velocity": 67}, {"time": 167, "pitch": 48, "duration": 21, "velocity": 51}, {"time": 173, "pitch": 63, "duration": 11, "velocity": 74}, {"time": 185, "pitch": 60, "duration": 12, "velocity": 72}, {"time": 185, "pitch": 63, "duration": 7, "velocity": 92}, {"time": 194, "pitch": 63, "duration": 2, "velocity": 17}, {"time": 197, "pitch": 41, "duration": 41, "velocity": 76}, {"time": 203, "pitch": 48, "duration": 35, "velocity": 66}, {"time": 209, "pitch": 65, "duration": 21, "velocity": 65}, {"time": 209, "pitch": 68, "duration": 21, "velocity": 63}, {"time": 215, "pitch": 53, "duration": 9, "velocity": 68}, {"time": 221, "pitch": 60, "duration": 26, "velocity": 73}, {"time": 227, "pitch": 53, "duration": 8, "velocity": 52}, {"time": 233, "pitch": 68, "duration": 13, "velocity": 92}, {"time": 239, "pitch": 65, "duration": 7, "velocity": 66}, {"time": 245, "pitch": 36, "duration": 37, "velocity": 75}, {"time": 251, "pitch": 48, "duration": 9, "velocity": 63}, {"time": 257, "pitch": 55, "duration": 13, "velocity": 70}, {"time": 263, "pitch": 48, "duration": 11, "velocity": 60}, {"time": 269, "pitch": 60, "duration": 13, "velocity": 69}, {"time": 269, "pitch": 63, "duration": 25, "velocity": 66}, {"time": 281, "pitch": 55, "duration": 12, "velocity": 82}, {"time": 287, "pitch": 60, "duration": 6, "velocity": 61}, {"time": 293, "pitch": 41, "duration": 36, "velocity": 71}, {"time": 299, "pitch": 48, "duration": 21, "velocity": 59}, {"time": 305, "pitch": 53, "duration": 8, "velocity": 79}, {"time": 311, "pitch": 60, "duration": 7, "velocity": 68}, {"time": 317, "pitch": 65, "duration": 13, "velocity": 78}, {"time": 317, "pitch": 68, "duration": 25, "velocity": 88}, {"time": 329, "pitch": 60, "duration": 13, "velocity": 78}, {"time": 335, "pitch": 65, "duration": 6, "velocity": 48}, {"time": 341, "pitch": 34, "duration": 37, "velocity": 70}, {"time": 347, "pitch": 46, "duration": 10, "velocity": 59}, {"time": 353, "pitch": 53, "duration": 37, "velocity": 62}, {"time": 359, "pitch": 46, "duration": 11, "velocity": 67}, {"time": 365, "pitch": 58, "duration": 11, "velocity": 61}, {"time": 365, "pitch": 61, "duration": 10, "velocity": 72}, {"time": 374, "pitch": 46, "duration": 5, "velocity": 22}, {"time": 377, "pitch": 61, "duration": 13, "velocity": 92}, {"time": 383, "pitch": 58, "duration": 7, "velocity": 64}, {"time": 389, "pitch": 41, "duration": 38, "velocity": 75}, {"time": 395, "pitch": 48, "duration": 31, "velocity": 59}, {"time": 401, "pitch": 56, "duration": 6, "velocity": 71}, {"time": 407, "pitch": 53, "duration": 11, "velocity": 60}, {"time": 413, "pitch": 60, "duration": 26, "velocity": 55}, {"time": 413, "pitch": 65, "duration": 10, "velocity": 67}, {"time": 413, "pitch": 68, "duration": 10, "velocity": 66}, {"time": 425, "pitch": 68, "duration": 16, "velocity": 74}, {"time": 431, "pitch": 65, "duration": 6, "velocity": 38}, {"time": 437, "pitch": 37, "duration": 37, "velocity": 79}, {"time": 443, "pitch": 49, "duration": 32, "velocity": 82}, {"time": 449, "pitch": 61, "duration": 28, "velocity": 92}, {"time": 455, "pitch": 44, "duration": 19, "velocity": 39}, {"time": 461, "pitch": 65, "duration": 9, "velocity": 67}, {"time": 461, "pitch": 68, "duration": 9, "velocity": 64}, {"time": 473, "pitch": 68, "duration": 12, "velocity": 89}, {"time": 479, "pitch": 61, "duration": 6, "velocity": 58}, {"time": 485, "pitch": 41, "duration": 20, "velocity": 88}, {"time": 491, "pitch": 48, "duration": 13, "velocity": 66}, {"time": 497, "pitch": 53, "duration": 6, "velocity": 72}, {"time": 503, "pitch": 60, "duration": 15, "velocity": 77}, {"time": 509, "pitch": 36, "duration": 16, "velocity": 70}, {"time": 509, "pitch": 63, "duration": 6, "velocity": 69}, {"time": 509, "pitch": 67, "duration": 6, "velocity": 69}, {"time": 515, "pitch": 48, "duration": 11, "velocity": 54}, {"time": 521, "pitch": 63, "duration": 13, "velocity": 97}, {"time": 527, "pitch": 60, "duration": 7, "velocity": 59}, {"time": 533, "pitch": 37, "duration": 38, "velocity": 93}, {"time": 539, "pitch": 49, "duration": 9, "velocity": 57}, {"time": 545, "pitch": 53, "duration": 14, "velocity": 83}, {"time": 551, "pitch": 49, "duration": 22, "velocity": 50}, {"time": 557, "pitch": 56, "duration": 13, "velocity": 72}, {"time": 557, "pitch": 61, "duration": 24, "velocity": 73}, {"time": 569, "pitch": 53, "duration": 12, "velocity": 67}, {"time": 575, "pitch": 56, "duration": 6, "velocity": 66}, {"time": 581, "pitch": 39, "duration": 39, "velocity": 82}, {"time": 587, "pitch": 51, "duration": 8, "velocity": 64}, {"time": 593, "pitch": 55, "duration": 4, "velocity": 72}, {"time": 599, "pitch": 51, "duration": 10, "velocity": 45}, {"time": 605, "pitch": 58, "duration": 14, "velocity": 77}, {"time": 605, "pitch": 63, "duration": 7, "velocity": 69}, {"time": 605, "pitch": 67, "duration": 6, "velocity": 77}, {"time": 611, "pitch": 51, "duration": 11, "velocity": 66}, {"time": 617, "pitch": 67, "duration": 11, "velocity": 78}, {"time": 623, "pitch": 63, "duration": 6, "velocity": 69}, {"time": 629, "pitch": 41, "duration": 22, "velocity": 88}, {"time": 635, "pitch": 48, "duration": 19, "velocity": 82}, {"time": 641, "pitch": 53, "duration": 5, "velocity": 65}, {"time": 641, "pitch": 65, "duration": 7, "velocity": 81}, {"time": 647, "pitch": 68, "duration": 26, "velocity": 85}, {"time": 653, "pitch": 41, "duration": 17, "velocity": 86}, {"time": 659, "pitch": 48, "duration": 10, "velocity": 70}, {"time": 665, "pitch": 65, "duration": 7, "velocity": 86}, {"time": 671, "pitch": 60, "duration": 7, "velocity": 79}, {"time": 677, "pitch": 36, "duration": 20, "velocity": 75}, {"time": 683, "pitch": 48, "duration": 19, "velocity": 68}, {"time": 689, "pitch": 60, "duration": 7, "velocity": 93}, {"time": 695, "pitch": 63, "duration": 10, "velocity": 100}, {"time": 701, "pitch": 36, "duration": 14, "velocity": 72}, {"time": 707, "pitch": 48, "duration": 8, "velocity": 57}, {"time": 713, "pitch": 60, "duration": 12, "velocity": 86}, {"time": 713, "pitch": 63, "duration": 12, "velocity": 107}, {"time": 719, "pitch": 55, "duration": 6, "velocity": 78}, {"time": 725, "pitch": 41, "duration": 22, "velocity": 85}, {"time": 731, "pitch": 48, "duration": 18, "velocity": 67}, {"time": 737, "pitch": 68, "duration": 22, "velocity": 127}, {"time": 743, "pitch": 65, "duration": 13, "velocity": 69}, {"time": 749, "pitch": 41, "duration": 15, "velocity": 93}, {"time": 755, "pitch": 48, "duration": 9, "velocity": 82}, {"time": 761, "pitch": 68, "duration": 12, "velocity": 117}, {"time": 767, "pitch": 65, "duration": 7, "velocity": 89}, {"time": 773, "pitch": 34, "duration": 24, "velocity": 71}, {"time": 779, "pitch": 46, "duration": 8, "velocity": 62}, {"time": 785, "pitch": 49, "duration": 6, "velocity": 100}, {"time": 791, "pitch": 46, "duration": 9, "velocity": 58}, {"time": 797, "pitch": 34, "duration": 24, "velocity": 71}, {"time": 797, "pitch": 58, "duration": 8, "velocity": 83}, {"time": 797, "pitch": 61, "duration": 9, "velocity": 86}, {"time": 803, "pitch": 46, "duration": 10, "velocity": 73}, {"time": 809, "pitch": 65, "duration": 12, "velocity": 69}, {"time": 815, "pitch": 58, "duration": 6, "velocity": 85}, {"time": 821, "pitch": 41, "duration": 24, "velocity": 75}, {"time": 827, "pitch": 48, "duration": 9, "velocity": 66}, {"time": 833, "pitch": 53, "duration": 6, "velocity": 77}, {"time": 839, "pitch": 48, "duration": 8, "velocity": 62}, {"time": 845, "pitch": 41, "duration": 24, "velocity": 75}, {"time": 845, "pitch": 60, "duration": 9, "velocity": 79}, {"time": 845, "pitch": 65, "duration": 7, "velocity": 78}, {"time": 851, "pitch": 48, "duration": 7, "velocity": 55}, {"time": 857, "pitch": 60, "duration": 5, "velocity": 23}, {"time": 857, "pitch": 68, "duration": 11, "velocity": 102}, {"time": 863, "pitch": 60, "duration": 6, "velocity": 27}, {"time": 863, "pitch": 65, "duration": 5, "velocity": 71}, {"time": 869, "pitch": 37, "duration": 20, "velocity": 93}, {"time": 875, "pitch": 49, "duration": 8, "velocity": 67}, {"time": 881, "pitch": 56, "duration": 23, "velocity": 99}, {"time": 887, "pitch": 53, "duration": 17, "velocity": 74}, {"time": 893, "pitch": 37, "duration": 22, "velocity": 78}, {"time": 893, "pitch": 61, "duration": 6, "velocity": 39}, {"time": 899, "pitch": 49, "duration": 9, "velocity": 75}, {"time": 905, "pitch": 56, "duration": 12, "velocity": 52}, {"time": 905, "pitch": 61, "duration": 11, "velocity": 117}, {"time": 911, "pitch": 53, "duration": 6, "velocity": 68}, {"time": 917, "pitch": 41, "duration": 18, "velocity": 73}, {"time": 923, "pitch": 48, "duration": 12, "velocity": 64}, {"time": 929, "pitch": 65, "duration": 13, "velocity": 72}, {"time": 929, "pitch": 68, "duration": 13, "velocity": 89}, {"time": 935, "pitch": 60, "duration": 7, "velocity": 86}, {"time": 941, "pitch": 36, "duration": 21, "velocity": 86}, {"time": 947, "pitch": 48, "duration": 9, "velocity": 72}, {"time": 953, "pitch": 55, "duration": 12, "velocity": 82}, {"time": 959, "pitch": 51, "duration": 6, "velocity": 82}, {"time": 965, "pitch": 37, "duration": 22, "velocity": 88}, {"time": 971, "pitch": 49, "duration": 9, "velocity": 82}, {"time": 977, "pitch": 56, "duration": 23, "velocity": 89}, {"time": 977, "pitch": 63, "duration": 23, "velocity": 78}, {"time": 983, "pitch": 49, "duration": 8, "velocity": 45}, {"time": 989, "pitch": 37, "duration": 22, "velocity": 97}, {"time": 995, "pitch": 49, "duration": 10, "velocity": 76}, {"time": 1001, "pitch": 56, "duration": 4, "velocity": 79}, {"time": 1001, "pitch": 63, "duration": 12, "velocity": 112}, {"time": 1007, "pitch": 56, "duration": 6, "velocity": 83}, {"time": 1013, "pitch": 39, "duration": 20, "velocity": 96}, {"time": 1019, "pitch": 51, "duration": 7, "velocity": 81}, {"time": 1025, "pitch": 55, "duration": 6, "velocity": 95}, {"time": 1031, "pitch": 51, "duration": 9, "velocity": 88}, {"time": 1037, "pitch": 39, "duration": 24, "velocity": 96}, {"time": 1037, "pitch": 58, "duration": 7, "velocity": 112}, {"time": 1037, "pitch": 63, "duration": 7, "velocity": 112}, {"time": 1037, "pitch": 67, "duration": 7, "velocity": 95}, {"time": 1043, "pitch": 51, "duration": 9, "velocity": 112}, {"time": 1049, "pitch": 63, "duration": 11, "velocity": 127}, {"time": 1049, "pitch": 67, "duration": 11, "velocity": 107}, {"time": 1055, "pitch": 58, "duration": 6, "velocity": 112}, {"time": 1061, "pitch": 44, "duration": 17, "velocity": 102}, {"time": 1061, "pitch": 68, "duration": 3, "velocity": 100}, {"time": 1061, "pitch": 72, "duration": 5, "velocity": 93}, {"time": 1064, "pitch": 56, "duration": 10, "velocity": 93}, {"time": 1067, "pitch": 63, "duration": 8, "velocity": 97}, {"time": 1070, "pitch": 68, "duration": 4, "velocity": 82}, {"time": 1073, "pitch": 72, "duration": 12, "velocity": 100}, {"time": 1076, "pitch": 56, "duration": 2, "velocity": 89}, {"time": 1079, "pitch": 63, "duration": 6, "velocity": 100}, {"time": 1082, "pitch": 68, "duration": 3, "velocity": 85}, {"time": 1085, "pitch": 34, "duration": 17, "velocity": 85}, {"time": 1088, "pitch": 46, "duration": 5, "velocity": 89}, {"time": 1091, "pitch": 53, "duration": 8, "velocity": 96}, {"time": 1094, "pitch": 46, "duration": 4, "velocity": 72}, {"time": 1097, "pitch": 61, "duration": 10, "velocity": 112}, {"time": 1100, "pitch": 46, "duration": 3, "velocity": 88}, {"time": 1103, "pitch": 58, "duration": 4, "velocity": 107}, {"time": 1106, "pitch": 53, "duration": 1, "velocity": 90}, {"time": 1109, "pitch": 44, "duration": 17, "velocity": 97}, {"time": 1112, "pitch": 56, "duration": 4, "velocity": 78}, {"time": 1115, "pitch": 60, "duration": 5, "velocity": 99}, {"time": 1118, "pitch": 56, "duration": 4, "velocity": 95}, {"time": 1121, "pitch": 63, "duration": 7, "velocity": 117}, {"time": 1121, "pitch": 68, "duration": 12, "velocity": 112}, {"time": 1124, "pitch": 56, "duration": 2, "velocity": 90}, {"time": 1127, "pitch": 60, "duration": 6, "velocity": 97}, {"time": 1130, "pitch": 63, "duration": 3, "velocity": 102}, {"time": 1133, "pitch": 39, "duration": 17, "velocity": 93}, {"time": 1136, "pitch": 51, "duration": 4, "velocity": 88}, {"time": 1139, "pitch": 55, "duration": 6, "velocity": 99}, {"time": 1142, "pitch": 51, "duration": 4, "velocity": 83}, {"time": 1145, "pitch": 58, "duration": 7, "velocity": 96}, {"time": 1145, "pitch": 63, "duration": 12, "velocity": 117}, {"time": 1148, "pitch": 51, "duration": 2, "velocity": 90}, {"time": 1151, "pitch": 55, "duration": 5, "velocity": 93}, {"time": 1154, "pitch": 58, "duration": 3, "velocity": 107}, {"time": 1157, "pitch": 41, "duration": 18, "velocity": 82}, {"time": 1160, "pitch": 48, "duration": 15, "velocity": 65}, {"time": 1163, "pitch": 60, "duration": 7, "velocity": 78}, {"time": 1166, "pitch": 53, "duration": 5, "velocity": 88}, {"time": 1169, "pitch": 65, "duration": 7, "velocity": 99}, {"time": 1169, "pitch": 68, "duration": 13, "velocity": 99}, {"time": 1172, "pitch": 53, "duration": 2, "velocity": 85}, {"time": 1175, "pitch": 60, "duration": 7, "velocity": 102}, {"time": 1178, "pitch": 65, "duration": 4, "velocity": 85}, {"time": 1181, "pitch": 34, "duration": 18, "velocity": 93}, {"time": 1184, "pitch": 46, "duration": 5, "velocity": 86}, {"time": 1187, "pitch": 58, "duration": 5, "velocity": 99}, {"time": 1190, "pitch": 46, "duration": 4, "velocity": 89}, {"time": 1193, "pitch": 58, "duration": 7, "velocity": 83}, {"time": 1193, "pitch": 61, "duration": 12, "velocity": 102}, {"time": 1196, "pitch": 46, "duration": 3, "velocity": 79}, {"time": 1199, "pitch": 53, "duration": 6, "velocity": 95}, {"time": 1202, "pitch": 58, "duration": 3, "velocity": 117}, {"time": 1205, "pitch": 37, "duration": 17, "velocity": 92}, {"time": 1208, "pitch": 49, "duration": 4, "velocity": 97}, {"time": 1211, "pitch": 61, "duration": 5, "velocity": 122}, {"time": 1214, "pitch": 49, "duration": 4, "velocity": 95}, {"time": 1217, "pitch": 65, "duration": 6, "velocity": 92}, {"time": 1217, "pitch": 68, "duration": 8, "velocity": 102}, {"time": 1220, "pitch": 49, "duration": 8, "velocity": 99}, {"time": 1223, "pitch": 61, "duration": 6, "velocity": 100}, {"time": 1226, "pitch": 65, "duration": 3, "velocity": 70}, {"time": 1226, "pitch": 68, "duration": 3, "velocity": 77}, {"time": 1229, "pitch": 39, "duration": 18, "velocity": 100}, {"time": 1232, "pitch": 51, "duration": 4, "velocity": 92}, {"time": 1235, "pitch": 55, "duration": 6, "velocity": 100}, {"time": 1238, "pitch": 51, "duration": 4, "velocity": 96}, {"time": 1241, "pitch": 58, "duration": 7, "velocity": 100}, {"time": 1241, "pitch": 63, "duration": 13, "velocity": 122}, {"time": 1244, "pitch": 51, "duration": 3, "velocity": 100}, {"time": 1247, "pitch": 55, "duration": 5, "velocity": 102}, {"time": 1250, "pitch": 58, "duration": 3, "velocity": 100}, {"time": 1253, "pitch": 44, "duration": 17, "velocity": 102}, {"time": 1253, "pitch": 68, "duration": 3, "velocity": 100}, {"time": 1253, "pitch": 72, "duration": 5, "velocity": 93}, {"time": 1256, "pitch": 56, "duration": 10, "velocity": 93}, {"time": 1259, "pitch": 63, "duration": 8, "velocity": 97}, {"time": 1262, "pitch": 68, "duration": 4, "velocity": 82}, {"time": 1265, "pitch": 72, "duration": 12, "velocity": 100}, {"time": 1268, "pitch": 56, "duration": 2, "velocity": 89}, {"time": 1271, "pitch": 63, "duration": 6, "velocity": 100}, {"time": 1274, "pitch": 68, "duration": 3, "velocity": 85}, {"time": 1277, "pitch": 34, "duration": 17, "velocity": 85}, {"time": 1280, "pitch": 46, "duration": 5, "velocity": 89}, {"time": 1283, "pitch": 53, "duration": 8, "velocity": 96}, {"time": 1286, "pitch": 46, "duration": 4, "velocity": 72}, {"time": 1289, "pitch": 61, "duration": 10, "velocity": 112}, {"time": 1292, "pitch": 46, "duration": 3, "velocity": 88}, {"time": 1295, "pitch": 58, "duration": 4, "velocity": 107}, {"time": 1298, "pitch": 53, "duration": 1, "velocity": 90}, {"time": 1301, "pitch": 44, "duration": 17, "velocity": 97}, {"time": 1304, "pitch": 56, "duration": 4, "velocity": 78}, {"time": 1307, "pitch": 60, "duration": 5, "velocity": 99}, {"time": 1310, "pitch": 56, "duration": 4, "velocity": 95}, {"time": 1313, "pitch": 63, "duration": 7, "velocity": 117}, {"time": 1313, "pitch": 68, "duration": 12, "velocity": 112}, {"time": 1316, "pitch": 56, "duration": 2, "velocity": 90}, {"time": 1319, "pitch": 60, "duration": 6, "velocity": 97}, {"time": 1322, "pitch": 63, "duration": 3, "velocity": 102}, {"time": 1325, "pitch": 39, "duration": 17, "velocity": 93}, {"time": 1328, "pitch": 51, "duration": 4, "velocity": 88}, {"time": 1331, "pitch": 55, "duration": 6, "velocity": 99}, {"time": 1334, "pitch": 51, "duration": 4, "velocity": 83}, {"time": 1337, "pitch": 58, "duration": 7, "velocity": 96}, {"time": 1337, "pitch": 63, "duration": 12, "velocity": 117}, {"time": 1340, "pitch": 51, "duration": 2, "velocity": 90}, {"time": 1343, "pitch": 55, "duration": 5, "velocity": 93}, {"time": 1346, "pitch": 58, "duration": 3, "velocity": 107}, {"time": 1349, "pitch": 41, "duration": 18, "velocity": 82}, {"time": 1352, "pitch": 48, "duration": 15, "velocity": 65}, {"time": 1355, "pitch": 60, "duration": 7, "velocity": 78}, {"time": 1358, "pitch": 53, "duration": 5, "velocity": 88}, {"time": 1361, "pitch": 65, "duration": 7, "velocity": 99}, {"time": 1361, "pitch": 68, "duration": 13, "velocity": 99}, {"time": 1364, "pitch": 53, "duration": 2, "velocity": 85}, {"time": 1367, "pitch": 60, "duration": 7, "velocity": 102}, {"time": 1370, "pitch": 65, "duration": 4, "velocity": 85}, {"time": 1373, "pitch": 34, "duration": 18, "velocity": 93}, {"time": 1376, "pitch": 46, "duration": 5, "velocity": 86}, {"time": 1379, "pitch": 58, "duration": 5, "velocity": 99}, {"time": 1382, "pitch": 46, "duration": 4, "velocity": 89}, {"time": 1385, "pitch": 58, "duration": 7, "velocity": 83}, {"time": 1385, "pitch": 61, "duration": 12, "velocity": 102}, {"time": 1388, "pitch": 46, "duration": 3, "velocity": 79}, {"time": 1391, "pitch": 53, "duration": 6, "velocity": 95}, {"time": 1394, "pitch": 58, "duration": 3, "velocity": 117}, {"time": 1397, "pitch": 37, "duration": 17, "velocity": 92}, {"time": 1400, "pitch": 49, "duration": 4, "velocity": 97}, {"time": 1403, "pitch": 61, "duration": 5, "velocity": 122}, {"time": 1406, "pitch": 49, "duration": 4, "velocity": 95}, {"time": 1409, "pitch": 65, "duration": 6, "velocity": 92}, {"time": 1409, "pitch": 68, "duration": 8, "velocity": 102}, {"time": 1412, "pitch": 49, "duration": 8, "velocity": 99}, {"time": 1415, "pitch": 61, "duration": 6, "velocity": 100}, {"time": 1418, "pitch": 65, "duration": 3, "velocity": 70}, {"time": 1418, "pitch": 68, "duration": 3, "velocity": 77}, {"time": 1421, "pitch": 39, "duration": 18, "velocity": 100}, {"time": 1424, "pitch": 51, "duration": 4, "velocity": 92}, {"time": 1427, "pitch": 55, "duration": 6, "velocity": 100}, {"time": 1430, "pitch": 51, "duration": 4, "velocity": 96}, {"time": 1433, "pitch": 58, "duration": 7, "velocity": 100}, {"time": 1433, "pitch": 63, "duration": 13, "velocity": 122}, {"time": 1436, "pitch": 51, "duration": 3, "velocity": 100}, {"time": 1439, "pitch": 55, "duration": 5, "velocity": 102}, {"time": 1442, "pitch": 58, "duration": 3, "velocity": 100}, {"time": 1445, "pitch": 41, "duration": 22, "velocity": 89}, {"time": 1448, "pitch": 48, "duration": 21, "velocity": 69}, {"time": 1451, "pitch": 53, "duration": 7, "velocity": 89}, {"time": 1454, "pitch": 60, "duration": 4, "velocity": 89}, {"time": 1457, "pitch": 65, "duration": 6, "velocity": 76}, {"time": 1457, "pitch": 68, "duration": 20, "velocity": 88}, {"time": 1460, "pitch": 53, "duration": 3, "velocity": 73}, {"time": 1463, "pitch": 60, "duration": 14, "velocity": 70}, {"time": 1466, "pitch": 65, "duration": 12, "velocity": 81}, {"time": 1469, "pitch": 41, "duration": 18, "velocity": 68}, {"time": 1472, "pitch": 48, "duration": 16, "velocity": 66}, {"time": 1475, "pitch": 53, "duration": 5, "velocity": 75}, {"time": 1478, "pitch": 60, "duration": 5, "velocity": 44}, {"time": 1481, "pitch": 68, "duration": 12, "velocity": 112}, {"time": 1487, "pitch": 60, "duration": 7, "velocity": 88}, {"time": 1490, "pitch": 48, "duration": 1, "velocity": 26}, {"time": 1493, "pitch": 41, "duration": 22, "velocity": 93}, {"time": 1496, "pitch": 48, "duration": 22, "velocity": 81}, {"time": 1499, "pitch": 53, "duration": 7, "velocity": 95}, {"time": 1502, "pitch": 60, "duration": 7, "velocity": 77}, {"time": 1505, "pitch": 68, "duration": 16, "velocity": 127}, {"time": 1508, "pitch": 53, "duration": 3, "velocity": 90}, {"time": 1511, "pitch": 65, "duration": 9, "velocity": 100}, {"time": 1514, "pitch": 60, "duration": 10, "velocity": 88}, {"time": 1517, "pitch": 41, "duration": 16, "velocity": 92}, {"time": 1520, "pitch": 48, "duration": 10, "velocity": 82}, {"time": 1523, "pitch": 53, "duration": 4, "velocity": 90}, {"time": 1526, "pitch": 60, "duration": 7, "velocity": 85}, {"time": 1529, "pitch": 68, "duration": 12, "velocity": 127}, {"time": 1532, "pitch": 48, "duration": 2, "velocity": 82}, {"time": 1535, "pitch": 65, "duration": 7, "velocity": 89}, {"time": 1538, "pitch": 60, "duration": 4, "velocity": 99}, {"time": 1541, "pitch": 36, "duration": 22, "velocity": 78}, {"time": 1544, "pitch": 43, "duration": 22, "velocity": 72}, {"time": 1547, "pitch": 48, "duration": 7, "velocity": 92}, {"time": 1550, "pitch": 55, "duration": 3, "velocity": 88}, {"time": 1553, "pitch": 60, "duration": 6, "velocity": 89}, {"time": 1553, "pitch": 63, "duration": 13, "velocity": 102}, {"time": 1556, "pitch": 48, "duration": 3, "velocity": 93}, {"time": 1559, "pitch": 55, "duration": 11, "velocity": 92}, {"time": 1562, "pitch": 60, "duration": 7, "velocity": 83}, {"time": 1565, "pitch": 36, "duration": 16, "velocity": 88}, {"time": 1568, "pitch": 43, "duration": 14, "velocity": 79}, {"time": 1571, "pitch": 48, "duration": 6, "velocity": 88}, {"time": 1574, "pitch": 55, "duration": 3, "velocity": 85}, {"time": 1577, "pitch": 60, "duration": 7, "velocity": 96}, {"time": 1577, "pitch": 63, "duration": 13, "velocity": 112}, {"time": 1580, "pitch": 48, "duration": 4, "velocity": 76}, {"time": 1583, "pitch": 55, "duration": 5, "velocity": 100}, {"time": 1586, "pitch": 60, "duration": 4, "velocity": 97}, {"time": 1589, "pitch": 41, "duration": 22, "velocity": 85}, {"time": 1592, "pitch": 48, "duration": 22, "velocity": 73}, {"time": 1595, "pitch": 53, "duration": 6, "velocity": 96}, {"time": 1598, "pitch": 60, "duration": 4, "velocity": 88}, {"time": 1601, "pitch": 65, "duration": 7, "velocity": 93}, {"time": 1601, "pitch": 68, "duration": 16, "velocity": 99}, {"time": 1604, "pitch": 53, "duration": 3, "velocity": 95}, {"time": 1607, "pitch": 60, "duration": 13, "velocity": 100}, {"time": 1610, "pitch": 65, "duration": 7, "velocity": 89}, {"time": 1613, "pitch": 41, "duration": 17, "velocity": 66}, {"time": 1616, "pitch": 48, "duration": 11, "velocity": 71}, {"time": 1619, "pitch": 53, "duration": 4, "velocity": 92}, {"time": 1622, "pitch": 60, "duration": 7, "velocity": 92}, {"time": 1625, "pitch": 68, "duration": 10, "velocity": 127}, {"time": 1628, "pitch": 48, "duration": 2, "velocity": 81}, {"time": 1631, "pitch": 65, "duration": 4, "velocity": 97}, {"time": 1634, "pitch": 60, "duration": 3, "velocity": 92}, {"time": 1637, "pitch": 39, "duration": 20, "velocity": 90}, {"time": 1640, "pitch": 51, "duration": 4, "velocity": 73}, {"time": 1643, "pitch": 55, "duration": 6, "velocity": 92}, {"time": 1646, "pitch": 51, "duration": 4, "velocity": 88}, {"time": 1649, "pitch": 58, "duration": 7, "velocity": 89}, {"time": 1649, "pitch": 63, "duration": 12, "velocity": 102}, {"time": 1652, "pitch": 51, "duration": 10, "velocity": 88}, {"time": 1655, "pitch": 55, "duration": 6, "velocity": 89}, {"time": 1658, "pitch": 58, "duration": 3, "velocity": 93}, {"time": 1661, "pitch": 39, "duration": 18, "velocity": 97}, {"time": 1664, "pitch": 51, "duration": 4, "velocity": 100}, {"time": 1667, "pitch": 63, "duration": 4, "velocity": 99}, {"time": 1670, "pitch": 51, "duration": 4, "velocity": 88}, {"time": 1673, "pitch": 67, "duration": 5, "velocity": 112}, {"time": 1673, "pitch": 70, "duration": 5, "velocity": 122}, {"time": 1676, "pitch": 51, "duration": 7, "velocity": 112}, {"time": 1679, "pitch": 67, "duration": 6, "velocity": 97}, {"time": 1679, "pitch": 70, "duration": 6, "velocity": 102}, {"time": 1682, "pitch": 63, "duration": 3, "velocity": 102}, {"time": 1685, "pitch": 44, "duration": 17, "velocity": 112}, {"time": 1688, "pitch": 56, "duration": 4, "velocity": 112}, {"time": 1691, "pitch": 60, "duration": 5, "velocity": 107}, {"time": 1694, "pitch": 56, "duration": 4, "velocity": 95}, {"time": 1697, "pitch": 63, "duration": 7, "velocity": 127}, {"time": 1697, "pitch": 68, "duration": 6, "velocity": 127}, {"time": 1700, "pitch": 56, "duration": 3, "velocity": 122}, {"time": 1703, "pitch": 60, "duration": 4, "velocity": 112}, {"time": 1706, "pitch": 63, "duration": 4, "velocity": 127}, {"time": 1706, "pitch": 68, "duration": 4, "velocity": 127}, {"time": 1709, "pitch": 46, "duration": 18, "velocity": 95}, {"time": 1712, "pitch": 58, "duration": 11, "velocity": 107}, {"time": 1715, "pitch": 61, "duration": 5, "velocity": 85}, {"time": 1718, "pitch": 65, "duration": 2, "velocity": 69}, {"time": 1718, "pitch": 70, "duration": 2, "velocity": 63}, {"time": 1721, "pitch": 61, "duration": 3, "velocity": 99}, {"time": 1721, "pitch": 65, "duration": 8, "velocity": 100}, {"time": 1721, "pitch": 70, "duration": 7, "velocity": 127}, {"time": 1724, "pitch": 58, "duration": 2, "velocity": 112}, {"time": 1727, "pitch": 61, "duration": 6, "velocity": 100}, {"time": 1730, "pitch": 65, "duration": 2, "velocity": 73}, {"time": 1730, "pitch": 70, "duration": 3, "velocity": 122}, {"time": 1733, "pitch": 44, "duration": 17, "velocity": 83}, {"time": 1736, "pitch": 56, "duration": 4, "velocity": 102}, {"time": 1739, "pitch": 60, "duration": 5, "velocity": 102}, {"time": 1742, "pitch": 56, "duration": 4, "velocity": 102}, {"time": 1745, "pitch": 63, "duration": 7, "velocity": 122}, {"time": 1745, "pitch": 68, "duration": 12, "velocity": 122}, {"time": 1748, "pitch": 56, "duration": 2, "velocity": 102}, {"time": 1751, "pitch": 60, "duration": 5, "velocity": 112}, {"time": 1754, "pitch": 63, "duration": 3, "velocity": 122}, {"time": 1757, "pitch": 39, "duration": 17, "velocity": 97}, {"time": 1760, "pitch": 51, "duration": 4, "velocity": 92}, {"time": 1763, "pitch": 55, "duration": 5, "velocity": 92}, {"time": 1766, "pitch": 51, "duration": 4, "velocity": 97}, {"time": 1769, "pitch": 58, "duration": 7, "velocity": 127}, {"time": 1769, "pitch": 63, "duration": 12, "velocity": 127}, {"time": 1772, "pitch": 51, "duration": 2, "velocity": 99}, {"time": 1775, "pitch": 55, "duration": 5, "velocity": 100}, {"time": 1778, "pitch": 58, "duration": 3, "velocity": 122}, {"time": 1781, "pitch": 37, "duration": 22, "velocity": 112}, {"time": 1784, "pitch": 49, "duration": 4, "velocity": 92}, {"time": 1787, "pitch": 53, "duration": 5, "velocity": 95}, {"time": 1790, "pitch": 49, "duration": 4, "velocity": 97}, {"time": 1793, "pitch": 56, "duration": 7, "velocity": 112}, {"time": 1793, "pitch": 61, "duration": 9, "velocity": 112}, {"time": 1796, "pitch": 49, "duration": 10, "velocity": 96}, {"time": 1799, "pitch": 53, "duration": 10, "velocity": 95}, {"time": 1802, "pitch": 56, "duration": 8, "velocity": 102}, {"time": 1802, "pitch": 61, "duration": 2, "velocity": 47}, {"time": 1805, "pitch": 37, "duration": 18, "velocity": 95}, {"time": 1808, "pitch": 49, "duration": 10, "velocity": 97}, {"time": 1811, "pitch": 53, "duration": 7, "velocity": 82}, {"time": 1814, "pitch": 56, "duration": 3, "velocity": 100}, {"time": 1817, "pitch": 56, "duration": 6, "velocity": 76}, {"time": 1817, "pitch": 61, "duration": 12, "velocity": 122}, {"time": 1820, "pitch": 49, "duration": 6, "velocity": 107}, {"time": 1823, "pitch": 53, "duration": 6, "velocity": 96}, {"time": 1826, "pitch": 56, "duration": 3, "velocity": 122}, {"time": 1829, "pitch": 39, "duration": 18, "velocity": 93}, {"time": 1832, "pitch": 51, "duration": 4, "velocity": 107}, {"time": 1835, "pitch": 55, "duration": 7, "velocity": 92}, {"time": 1838, "pitch": 51, "duration": 4, "velocity": 92}, {"time": 1841, "pitch": 58, "duration": 6, "velocity": 89}, {"time": 1841, "pitch": 63, "duration": 7, "velocity": 102}, {"time": 1844, "pitch": 51, "duration": 10, "velocity": 99}, {"time": 1847, "pitch": 55, "duration": 30, "velocity": 95}, {"time": 1850, "pitch": 58, "duration": 27, "velocity": 97}, {"time": 1853, "pitch": 39, "duration": 24, "velocity": 99}, {"time": 1853, "pitch": 63, "duration": 22, "velocity": 102}, {"time": 1877, "pitch": 41, "duration": 41, "velocity": 76}, {"time": 1883, "pitch": 48, "duration": 35, "velocity": 66}, {"time": 1889, "pitch": 65, "duration": 21, "velocity": 65}, {"time": 1889, "pitch": 68, "duration": 21, "velocity": 63}, {"time": 1895, "pitch": 53, "duration": 9, "velocity": 68}, {"time": 1901, "pitch": 60, "duration": 26, "velocity": 73}, {"time": 1907, "pitch": 53, "duration": 8, "velocity": 52}, {"time": 1913, "pitch": 68, "duration": 13, "velocity": 92}, {"time": 1919, "pitch": 65, "duration": 7, "velocity": 66}, {"time": 1925, "pitch": 36, "duration": 37, "velocity": 75}, {"time": 1931, "pitch": 48, "duration": 9, "velocity": 63}, {"time": 1937, "pitch": 55, "duration": 13, "velocity": 70}, {"time": 1943, "pitch": 48, "duration": 11, "velocity": 60}, {"time": 1949, "pitch": 60, "duration": 13, "velocity": 69}, {"time": 1949, "pitch": 63, "duration": 25, "velocity": 66}, {"time": 1961, "pitch": 55, "duration": 12, "velocity": 82}, {"time": 1967, "pitch": 60, "duration": 6, "velocity": 61}, {"time": 1973, "pitch": 41, "duration": 36, "velocity": 71}, {"time": 1979, "pitch": 48, "duration": 21, "velocity": 59}, {"time": 1985, "pitch": 53, "duration": 8, "velocity": 79}, {"time": 1991, "pitch": 60, "duration": 7, "velocity": 68}, {"time": 1997, "pitch": 65, "duration": 13, "velocity": 78}, {"time": 1997, "pitch": 68, "duration": 25, "velocity": 88}, {"time": 2009, "pitch": 60, "duration": 13, "velocity": 78}, {"time": 2015, "pitch": 65, "duration": 6, "velocity": 48}, {"time": 2021, "pitch": 34, "duration": 37, "velocity": 70}, {"time": 2027, "pitch": 46, "duration": 10, "velocity": 59}, {"time": 2033, "pitch": 53, "duration": 37, "velocity": 62}, {"time": 2039, "pitch": 46, "duration": 11, "velocity": 67}, {"time": 2045, "pitch": 58, "duration": 11, "velocity": 61}, {"time": 2045, "pitch": 61, "duration": 10, "velocity": 72}, {"time": 2054, "pitch": 46, "duration": 5, "velocity": 22}, {"time": 2057, "pitch": 61, "duration": 13, "velocity": 92}, {"time": 2063, "pitch": 58, "duration": 7, "velocity": 64}, {"time": 2069, "pitch": 41, "duration": 38, "velocity": 75}, {"time": 2075, "pitch": 48, "duration": 31, "velocity": 59}, {"time": 2081, "pitch": 56, "duration": 6, "velocity": 71}, {"time": 2087, "pitch": 53, "duration": 11, "velocity": 60}, {"time": 2093, "pitch": 60, "duration": 26, "velocity": 55}, {"time": 2093, "pitch": 65, "duration": 10, "velocity": 67}, {"time": 2093, "pitch": 68, "duration": 10, "velocity": 66}, {"time": 2105, "pitch": 68, "duration": 16, "velocity": 74}, {"time": 2111, "pitch": 65, "duration": 6, "velocity": 38}, {"time": 2117, "pitch": 37, "duration": 37, "velocity": 79}, {"time": 2123, "pitch": 49, "duration": 32, "velocity": 82}, {"time": 2129, "pitch": 61, "duration": 28, "velocity": 92}, {"time": 2135, "pitch": 44, "duration": 19, "velocity": 39}, {"time": 2141, "pitch": 65, "duration": 9, "velocity": 67}, {"time": 2141, "pitch": 68, "duration": 9, "velocity": 64}, {"time": 2153, "pitch": 68, "duration": 12, "velocity": 89}, {"time": 2159, "pitch": 61, "duration": 6, "velocity": 58}, {"time": 2165, "pitch": 41, "duration": 20, "velocity": 88}, {"time": 2171, "pitch": 48, "duration": 13, "velocity": 66}, {"time": 2177, "pitch": 53, "duration": 6, "velocity": 72}, {"time": 2183, "pitch": 60, "duration": 15, "velocity": 77}, {"time": 2189, "pitch": 36, "duration": 16, "velocity": 70}, {"time": 2189, "pitch": 63, "duration": 6, "velocity": 69}, {"time": 2189, "pitch": 67, "duration": 6, "velocity": 69}, {"time": 2195, "pitch": 48, "duration": 11, "velocity": 54}, {"time": 2201, "pitch": 63, "duration": 13, "velocity": 97}, {"time": 2207, "pitch": 60, "duration": 7, "velocity": 59}, {"time": 2213, "pitch": 37, "duration": 38, "velocity": 93}, {"time": 2219, "pitch": 49, "duration": 9, "velocity": 57}, {"time": 2225, "pitch": 53, "duration": 14, "velocity": 83}, {"time": 2231, "pitch": 49, "duration": 22, "velocity": 50}, {"time": 2237, "pitch": 56, "duration": 13, "velocity": 72}, {"time": 2237, "pitch": 61, "duration": 24, "velocity": 73}, {"time": 2249, "pitch": 53, "duration": 12, "velocity": 67}, {"time": 2255, "pitch": 56, "duration": 6, "velocity": 66}, {"time": 2261, "pitch": 39, "duration": 39, "velocity": 82}, {"time": 2267, "pitch": 51, "duration": 8, "velocity": 64}, {"time": 2273, "pitch": 55, "duration": 4, "velocity": 72}, {"time": 2279, "pitch": 51, "duration": 10, "velocity": 45}, {"time": 2285, "pitch": 58, "duration": 14, "velocity": 77}, {"time": 2285, "pitch": 63, "duration": 7, "velocity": 69}, {"time": 2285, "pitch": 67, "duration": 6, "velocity": 77}, {"time": 2291, "pitch": 51, "duration": 11, "velocity": 66}, {"time": 2297, "pitch": 67, "duration": 11, "velocity": 78}, {"time": 2303, "pitch": 63, "duration": 6, "velocity": 69}, {"time": 2309, "pitch": 41, "duration": 22, "velocity": 88}, {"time": 2315, "pitch": 48, "duration": 19, "velocity": 82}, {"time": 2321, "pitch": 53, "duration": 5, "velocity": 65}, {"time": 2321, "pitch": 65, "duration": 7, "velocity": 81}, {"time": 2327, "pitch": 68, "duration": 26, "velocity": 85}, {"time": 2333, "pitch": 41, "duration": 17, "velocity": 86}, {"time": 2339, "pitch": 48, "duration": 10, "velocity": 70}, {"time": 2345, "pitch": 65, "duration": 7, "velocity": 86}, {"time": 2351, "pitch": 60, "duration": 7, "velocity": 79}, {"time": 2357, "pitch": 36, "duration": 20, "velocity": 75}, {"time": 2363, "pitch": 48, "duration": 19, "velocity": 68}, {"time": 2369, "pitch": 60, "duration": 7, "velocity": 93}, {"time": 2375, "pitch": 63, "duration": 10, "velocity": 100}, {"time": 2381, "pitch": 36, "duration": 14, "velocity": 72}, {"time": 2387, "pitch": 48, "duration": 8, "velocity": 57}, {"time": 2393, "pitch": 60, "duration": 12, "velocity": 86}, {"time": 2393, "pitch": 63, "duration": 12, "velocity": 107}, {"time": 2399, "pitch": 55, "duration": 6, "velocity": 78}, {"time": 2405, "pitch": 41, "duration": 22, "velocity": 85}, {"time": 2411, "pitch": 48, "duration": 18, "velocity": 67}, {"time": 2417, "pitch": 68, "duration": 22, "velocity": 127}, {"time": 2423, "pitch": 65, "duration": 13, "velocity": 69}, {"time": 2429, "pitch": 41, "duration": 15, "velocity": 93}, {"time": 2435, "pitch": 48, "duration": 9, "velocity": 82}, {"time": 2441, "pitch": 68, "duration": 12, "velocity": 117}, {"time": 2447, "pitch": 65, "duration": 7, "velocity": 89}, {"time": 2453, "pitch": 34, "duration": 24, "velocity": 71}, {"time": 2459, "pitch": 46, "duration": 8, "velocity": 62}, {"time": 2465, "pitch": 49, "duration": 6, "velocity": 100}, {"time": 2471, "pitch": 46, "duration": 9, "velocity": 58}, {"time": 2477, "pitch": 34, "duration": 24, "velocity": 71}, {"time": 2477, "pitch": 58, "duration": 8, "velocity": 83}, {"time": 2477, "pitch": 61, "duration": 9, "velocity": 86}, {"time": 2483, "pitch": 46, "duration": 10, "velocity": 73}, {"time": 2489, "pitch": 65, "duration": 12, "velocity": 69}, {"time": 2495, "pitch": 58, "duration": 6, "velocity": 85}, {"time": 2501, "pitch": 41, "duration": 24, "velocity": 75}, {"time": 2507, "pitch": 48, "duration": 9, "velocity": 66}, {"time": 2513, "pitch": 53, "duration": 6, "velocity": 77}, {"time": 2519, "pitch": 48, "duration": 8, "velocity": 62}, {"time": 2525, "pitch": 41, "duration": 24, "velocity": 75}, {"time": 2525, "pitch": 60, "duration": 9, "velocity": 79}, {"time": 2525, "pitch": 65, "duration": 7, "velocity": 78}, {"time": 2531, "pitch": 48, "duration": 7, "velocity": 55}, {"time": 2537, "pitch": 60, "duration": 5, "velocity": 23}, {"time": 2537, "pitch": 68, "duration": 11, "velocity": 102}, {"time": 2543, "pitch": 60, "duration": 6, "velocity": 27}, {"time": 2543, "pitch": 65, "duration": 5, "velocity": 71}, {"time": 2549, "pitch": 37, "duration": 20, "velocity": 93}, {"time": 2555, "pitch": 49, "duration": 8, "velocity": 67}, {"time": 2561, "pitch": 56, "duration": 23, "velocity": 99}, {"time": 2567, "pitch": 53, "duration": 17, "velocity": 74}, {"time": 2573, "pitch": 37, "duration": 22, "velocity": 78}, {"time": 2573, "pitch": 61, "duration": 6, "velocity": 39}, {"time": 2579, "pitch": 49, "duration": 9, "velocity": 75}, {"time": 2585, "pitch": 56, "duration": 12, "velocity": 52}, {"time": 2585, "pitch": 61, "duration": 11, "velocity": 117}, {"time": 2591, "pitch": 53, "duration": 6, "velocity": 68}, {"time": 2597, "pitch": 41, "duration": 18, "velocity": 73}, {"time": 2603, "pitch": 48, "duration": 12, "velocity": 64}, {"time": 2609, "pitch": 65, "duration": 13, "velocity": 72}, {"time": 2609, "pitch": 68, "duration": 13, "velocity": 89}, {"time": 2615, "pitch": 60, "duration": 7, "velocity": 86}, {"time": 2621, "pitch": 36, "duration": 21, "velocity": 86}, {"time": 2627, "pitch": 48, "duration": 9, "velocity": 72}, {"time": 2633, "pitch": 55, "duration": 12, "velocity": 82}, {"time": 2639, "pitch": 51, "duration": 6, "velocity": 82}, {"time": 2645, "pitch": 37, "duration": 22, "velocity": 88}, {"time": 2651, "pitch": 49, "duration": 9, "velocity": 82}, {"time": 2657, "pitch": 56, "duration": 23, "velocity": 89}, {"time": 2657, "pitch": 63, "duration": 23, "velocity": 78}, {"time": 2663, "pitch": 49, "duration": 8, "velocity": 45}, {"time": 2669, "pitch": 37, "duration": 22, "velocity": 97}, {"time": 2675, "pitch": 49, "duration": 10, "velocity": 76}, {"time": 2681, "pitch": 56, "duration": 4, "velocity": 79}, {"time": 2681, "pitch": 63, "duration": 12, "velocity": 112}, {"time": 2687, "pitch": 56, "duration": 6, "velocity": 83}, {"time": 2693, "pitch": 39, "duration": 20, "velocity": 96}, {"time": 2699, "pitch": 51, "duration": 7, "velocity": 81}, {"time": 2705, "pitch": 55, "duration": 6, "velocity": 95}, {"time": 2711, "pitch": 51, "duration": 9, "velocity": 88}, {"time": 2717, "pitch": 39, "duration": 24, "velocity": 96}, {"time": 2717, "pitch": 58, "duration": 7, "velocity": 112}, {"time": 2717, "pitch": 63, "duration": 7, "velocity": 112}, {"time": 2717, "pitch": 67, "duration": 7, "velocity": 95}, {"time": 2723, "pitch": 51, "duration": 9, "velocity": 112}, {"time": 2729, "pitch": 63, "duration": 11, "velocity": 127}, {"time": 2729, "pitch": 67, "duration": 11, "velocity": 107}, {"time": 2735, "pitch": 58, "duration": 6, "velocity": 112}, {"time": 2741, "pitch": 44, "duration": 17, "velocity": 102}, {"time": 2741, "pitch": 68, "duration": 3, "velocity": 100}, {"time": 2741, "pitch": 72, "duration": 5, "velocity": 93}, {"time": 2744, "pitch": 56, "duration": 10, "velocity": 93}, {"time": 2747, "pitch": 63, "duration": 8, "velocity": 97}, {"time": 2750, "pitch": 68, "duration": 4, "velocity": 82}, {"time": 2753, "pitch": 72, "duration": 12, "velocity": 100}, {"time": 2756, "pitch": 56, "duration": 2, "velocity": 89}, {"time": 2759, "pitch": 63, "duration": 6, "velocity": 100}, {"time": 2762, "pitch": 68, "duration": 3, "velocity": 85}, {"time": 2765, "pitch": 34, "duration": 17, "velocity": 85}, {"time": 2768, "pitch": 46, "duration": 5, "velocity": 89}, {"time": 2771, "pitch": 53, "duration": 8, "velocity": 96}, {"time": 2774, "pitch": 46, "duration": 4, "velocity": 72}, {"time": 2777, "pitch": 61, "duration": 10, "velocity": 112}, {"time": 2780, "pitch": 46, "duration": 3, "velocity": 88}, {"time": 2783, "pitch": 58, "duration": 4, "velocity": 107}, {"time": 2786, "pitch": 53, "duration": 1, "velocity": 90}, {"time": 2789, "pitch": 44, "duration": 17, "velocity": 97}, {"time": 2792, "pitch": 56, "duration": 4, "velocity": 78}, {"time": 2795, "pitch": 60, "duration": 5, "velocity": 99}, {"time": 2798, "pitch": 56, "duration": 4, "velocity": 95}, {"time": 2801, "pitch": 63, "duration": 7, "velocity": 117}, {"time": 2801, "pitch": 68, "duration": 12, "velocity": 112}, {"time": 2804, "pitch": 56, "duration": 2, "velocity": 90}, {"time": 2807, "pitch": 60, "duration": 6, "velocity": 97}, {"time": 2810, "pitch": 63, "duration": 3, "velocity": 102}, {"time": 2813, "pitch": 39, "duration": 17, "velocity": 93}, {"time": 2816, "pitch": 51, "duration": 4, "velocity": 88}, {"time": 2819, "pitch": 55, "duration": 6, "velocity": 99}, {"time": 2822, "pitch": 51, "duration": 4, "velocity": 83}, {"time": 2825, "pitch": 58, "duration": 7, "velocity": 96}, {"time": 2825, "pitch": 63, "duration": 12, "velocity": 117}, {"time": 2828, "pitch": 51, "duration": 2, "velocity": 90}, {"time": 2831, "pitch": 55, "duration": 5, "velocity": 93}, {"time": 2834, "pitch": 58, "duration": 3, "velocity": 107}, {"time": 2837, "pitch": 41, "duration": 18, "velocity": 82}, {"time": 2840, "pitch": 48, "duration": 15, "velocity": 65}, {"time": 2843, "pitch": 60, "duration": 7, "velocity": 78}, {"time": 2846, "pitch": 53, "duration": 5, "velocity": 88}, {"time": 2849, "pitch": 65, "duration": 7, "velocity": 99}, {"time": 2849, "pitch": 68, "duration": 13, "velocity": 99}, {"time": 2852, "pitch": 53, "duration": 2, "velocity": 85}, {"time": 2855, "pitch": 60, "duration": 7, "velocity": 102}, {"time": 2858, "pitch": 65, "duration": 4, "velocity": 85}, {"time": 2861, "pitch": 34, "duration": 18, "velocity": 93}, {"time": 2864, "pitch": 46, "duration": 5, "velocity": 86}, {"time": 2867, "pitch": 58, "duration": 5, "velocity": 99}, {"time": 2870, "pitch": 46, "duration": 4, "velocity": 89}, {"time": 2873, "pitch": 58, "duration": 7, "velocity": 83}, {"time": 2873, "pitch": 61, "duration": 12, "velocity": 102}, {"time": 2876, "pitch": 46, "duration": 3, "velocity": 79}, {"time": 2879, "pitch": 53, "duration": 6, "velocity": 95}, {"time": 2882, "pitch": 58, "duration": 3, "velocity": 117}, {"time": 2885, "pitch": 37, "duration": 17, "velocity": 92}, {"time": 2888, "pitch": 49, "duration": 4, "velocity": 97}, {"time": 2891, "pitch": 61, "duration": 5, "velocity": 122}, {"time": 2894, "pitch": 49, "duration": 4, "velocity": 95}, {"time": 2897, "pitch": 65, "duration": 6, "velocity": 92}, {"time": 2897, "pitch": 68, "duration": 8, "velocity": 102}, {"time": 2900, "pitch": 49, "duration": 8, "velocity": 99}, {"time": 2903, "pitch": 61, "duration": 6, "velocity": 100}, {"time": 2906, "pitch": 65, "duration": 3, "velocity": 70}, {"time": 2906, "pitch": 68, "duration": 3, "velocity": 77}, {"time": 2909, "pitch": 39, "duration": 18, "velocity": 100}, {"time": 2912, "pitch": 51, "duration": 4, "velocity": 92}, {"time": 2915, "pitch": 55, "duration": 6, "velocity": 100}, {"time": 2918, "pitch": 51, "duration": 4, "velocity": 96}, {"time": 2921, "pitch": 58, "duration": 7, "velocity": 100}, {"time": 2921, "pitch": 63, "duration": 13, "velocity": 122}, {"time": 2924, "pitch": 51, "duration": 3, "velocity": 100}, {"time": 2927, "pitch": 55, "duration": 5, "velocity": 102}, {"time": 2930, "pitch": 58, "duration": 3, "velocity": 100}, {"time": 2933, "pitch": 44, "duration": 17, "velocity": 102}, {"time": 2933, "pitch": 68, "duration": 3, "velocity": 100}, {"time": 2933, "pitch": 72, "duration": 5, "velocity": 93}, {"time": 2936, "pitch": 56, "duration": 10, "velocity": 93}, {"time": 2939, "pitch": 63, "duration": 8, "velocity": 97}, {"time": 2942, "pitch": 68, "duration": 4, "velocity": 82}, {"time": 2945, "pitch": 72, "duration": 12, "velocity": 100}, {"time": 2948, "pitch": 56, "duration": 2, "velocity": 89}, {"time": 2951, "pitch": 63, "duration": 6, "velocity": 100}, {"time": 2954, "pitch": 68, "duration": 3, "velocity": 85}, {"time": 2957, "pitch": 34, "duration": 17, "velocity": 85}, {"time": 2960, "pitch": 46, "duration": 5, "velocity": 89}, {"time": 2963, "pitch": 53, "duration": 8, "velocity": 96}, {"time": 2966, "pitch": 46, "duration": 4, "velocity": 72}, {"time": 2969, "pitch": 61, "duration": 10, "velocity": 112}, {"time": 2972, "pitch": 46, "duration": 3, "velocity": 88}, {"time": 2975, "pitch": 58, "duration": 4, "velocity": 107}, {"time": 2978, "pitch": 53, "duration": 1, "velocity": 90}, {"time": 2981, "pitch": 44, "duration": 17, "velocity": 97}, {"time": 2984, "pitch": 56, "duration": 4, "velocity": 78}, {"time": 2987, "pitch": 60, "duration": 5, "velocity": 99}, {"time": 2990, "pitch": 56, "duration": 4, "velocity": 95}, {"time": 2993, "pitch": 63, "duration": 7, "velocity": 117}, {"time": 2993, "pitch": 68, "duration": 12, "velocity": 112}, {"time": 2996, "pitch": 56, "duration": 2, "velocity": 90}, {"time": 2999, "pitch": 60, "duration": 6, "velocity": 97}, {"time": 3002, "pitch": 63, "duration": 3, "velocity": 102}, {"time": 3005, "pitch": 39, "duration": 17, "velocity": 93}, {"time": 3008, "pitch": 51, "duration": 4, "velocity": 88}, {"time": 3011, "pitch": 55, "duration": 6, "velocity": 99}, {"time": 3014, "pitch": 51, "duration": 4, "velocity": 83}, {"time": 3017, "pitch": 58, "duration": 7, "velocity": 96}, {"time": 3017, "pitch": 63, "duration": 12, "velocity": 117}, {"time": 3020, "pitch": 51, "duration": 2, "velocity": 90}, {"time": 3023, "pitch": 55, "duration": 5, "velocity": 93}, {"time": 3026, "pitch": 58, "duration": 3, "velocity": 107}, {"time": 3029, "pitch": 41, "duration": 18, "velocity": 82}, {"time": 3032, "pitch": 48, "duration": 15, "velocity": 65}, {"time": 3035, "pitch": 60, "duration": 7, "velocity": 78}, {"time": 3038, "pitch": 53, "duration": 5, "velocity": 88}, {"time": 3041, "pitch": 65, "duration": 7, "velocity": 99}, {"time": 3041, "pitch": 68, "duration": 13, "velocity": 99}, {"time": 3044, "pitch": 53, "duration": 2, "velocity": 85}, {"time": 3047, "pitch": 60, "duration": 7, "velocity": 102}, {"time": 3050, "pitch": 65, "duration": 4, "velocity": 85}, {"time": 3053, "pitch": 34, "duration": 18, "velocity": 93}, {"time": 3056, "pitch": 46, "duration": 5, "velocity": 86}, {"time": 3059, "pitch": 58, "duration": 5, "velocity": 99}, {"time": 3062, "pitch": 46, "duration": 4, "velocity": 89}, {"time": 3065, "pitch": 58, "duration": 7, "velocity": 83}, {"time": 3065, "pitch": 61, "duration": 12, "velocity": 102}, {"time": 3068, "pitch": 46, "duration": 3, "velocity": 79}, {"time": 3071, "pitch": 53, "duration": 6, "velocity": 95}, {"time": 3074, "pitch": 58, "duration": 3, "velocity": 117}, {"time": 3077, "pitch": 37, "duration": 17, "velocity": 92}, {"time": 3080, "pitch": 49, "duration": 4, "velocity": 97}, {"time": 3083, "pitch": 61, "duration": 5, "velocity": 122}, {"time": 3086, "pitch": 49, "duration": 4, "velocity": 95}, {"time": 3089, "pitch": 65, "duration": 6, "velocity": 92}, {"time": 3089, "pitch": 68, "duration": 8, "velocity": 102}, {"time": 3092, "pitch": 49, "duration": 8, "velocity": 99}, {"time": 3095, "pitch": 61, "duration": 6, "velocity": 100}, {"time": 3098, "pitch": 65, "duration": 3, "velocity": 70}, {"time": 3098, "pitch": 68, "duration": 3, "velocity": 77}, {"time": 3101, "pitch": 39, "duration": 18, "velocity": 100}, {"time": 3104, "pitch": 51, "duration": 4, "velocity": 92}, {"time": 3107, "pitch": 55, "duration": 6, "velocity": 100}, {"time": 3110, "pitch": 51, "duration": 4, "velocity": 96}, {"time": 3113, "pitch": 58, "duration": 7, "velocity": 100}, {"time": 3113, "pitch": 63, "duration": 13, "velocity": 122}, {"time": 3116, "pitch": 51, "duration": 3, "velocity": 100}, {"time": 3119, "pitch": 55, "duration": 5, "velocity": 102}, {"time": 3122, "pitch": 58, "duration": 3, "velocity": 100}, {"time": 3125, "pitch": 41, "duration": 22, "velocity": 93}, {"time": 3128, "pitch": 48, "duration": 10, "velocity": 96}, {"time": 3131, "pitch": 53, "duration": 5, "velocity": 112}, {"time": 3134, "pitch": 56, "duration": 4, "velocity": 95}, {"time": 3137, "pitch": 60, "duration": 7, "velocity": 117}, {"time": 3140, "pitch": 48, "duration": 9, "velocity": 127}, {"time": 3143, "pitch": 56, "duration": 4, "velocity": 127}, {"time": 3146, "pitch": 53, "duration": 8, "velocity": 93}, {"time": 3149, "pitch": 41, "duration": 19, "velocity": 97}, {"time": 3149, "pitch": 56, "duration": 5, "velocity": 127}, {"time": 3149, "pitch": 60, "duration": 5, "velocity": 100}, {"time": 3155, "pitch": 48, "duration": 5, "velocity": 85}, {"time": 3155, "pitch": 53, "duration": 5, "velocity": 96}, {"time": 3155, "pitch": 56, "duration": 5, "velocity": 107}, {"time": 3155, "pitch": 60, "duration": 5, "velocity": 96}, {"time": 3161, "pitch": 48, "duration": 6, "velocity": 92}, {"time": 3161, "pitch": 53, "duration": 5, "velocity": 97}, {"time": 3161, "pitch": 56, "duration": 5, "velocity": 122}, {"time": 3161, "pitch": 60, "duration": 5, "velocity": 97}, {"time": 3167, "pitch": 53, "duration": 6, "velocity": 97}, {"time": 3167, "pitch": 56, "duration": 6, "velocity": 127}, {"time": 3167, "pitch": 60, "duration": 6, "velocity": 102}, {"time": 3173, "pitch": 32, "duration": 19, "velocity": 117}, {"time": 3176, "pitch": 44, "duration": 4, "velocity": 99}, {"time": 3179, "pitch": 56, "duration": 3, "velocity": 77}, {"time": 3179, "pitch": 60, "duration": 4, "velocity": 97}, {"time": 3179, "pitch": 63, "duration": 4, "velocity": 96}, {"time": 3182, "pitch": 44, "duration": 4, "velocity": 107}, {"time": 3185, "pitch": 60, "duration": 5, "velocity": 112}, {"time": 3185, "pitch": 63, "duration": 5, "velocity": 112}, {"time": 3188, "pitch": 44, "duration": 6, "velocity": 100}, {"time": 3191, "pitch": 56, "duration": 6, "velocity": 107}, {"time": 3194, "pitch": 60, "duration": 2, "velocity": 100}, {"time": 3194, "pitch": 63, "duration": 3, "velocity": 127}, {"time": 3197, "pitch": 34, "duration": 17, "velocity": 93}, {"time": 3200, "pitch": 46, "duration": 4, "velocity": 99}, {"time": 3203, "pitch": 53, "duration": 7, "velocity": 97}, {"time": 3206, "pitch": 46, "duration": 4, "velocity": 96}, {"time": 3209, "pitch": 58, "duration": 7, "velocity": 117}, {"time": 3209, "pitch": 61, "duration": 6, "velocity": 127}, {"time": 3212, "pitch": 46, "duration": 2, "velocity": 95}, {"time": 3215, "pitch": 53, "duration": 6, "velocity": 107}, {"time": 3218, "pitch": 58, "duration": 4, "velocity": 107}, {"time": 3218, "pitch": 61, "duration": 4, "velocity": 117}, {"time": 3221, "pitch": 32, "duration": 17, "velocity": 96}, {"time": 3224, "pitch": 44, "duration": 4, "velocity": 100}, {"time": 3227, "pitch": 56, "duration": 7, "velocity": 112}, {"time": 3230, "pitch": 44, "duration": 4, "velocity": 100}, {"time": 3233, "pitch": 60, "duration": 7, "velocity": 100}, {"time": 3233, "pitch": 63, "duration": 6, "velocity": 122}, {"time": 3236, "pitch": 44, "duration": 3, "velocity": 107}, {"time": 3239, "pitch": 56, "duration": 5, "velocity": 122}, {"time": 3242, "pitch": 60, "duration": 3, "velocity": 78}, {"time": 3242, "pitch": 63, "duration": 4, "velocity": 117}, {"time": 3245, "pitch": 39, "duration": 17, "velocity": 73}, {"time": 3248, "pitch": 51, "duration": 4, "velocity": 96}, {"time": 3251, "pitch": 55, "duration": 7, "velocity": 97}, {"time": 3254, "pitch": 51, "duration": 4, "velocity": 92}, {"time": 3257, "pitch": 58, "duration": 7, "velocity": 107}, {"time": 3257, "pitch": 63, "duration": 10, "velocity": 117}, {"time": 3260, "pitch": 51, "duration": 2, "velocity": 102}, {"time": 3263, "pitch": 55, "duration": 5, "velocity": 102}, {"time": 3266, "pitch": 58, "duration": 3, "velocity": 127}, {"time": 3269, "pitch": 41, "duration": 19, "velocity": 90}, {"time": 3272, "pitch": 48, "duration": 15, "velocity": 89}, {"time": 3275, "pitch": 53, "duration": 7, "velocity": 102}, {"time": 3278, "pitch": 60, "duration": 4, "velocity": 70}, {"time": 3281, "pitch": 65, "duration": 7, "velocity": 96}, {"time": 3281, "pitch": 68, "duration": 6, "velocity": 117}, {"time": 3284, "pitch": 53, "duration": 2, "velocity": 89}, {"time": 3287, "pitch": 60, "duration": 7, "velocity": 100}, {"time": 3290, "pitch": 65, "duration": 3, "velocity": 99}, {"time": 3290, "pitch": 68, "duration": 4, "velocity": 122}, {"time": 3293, "pitch": 34, "duration": 20, "velocity": 100}, {"time": 3296, "pitch": 46, "duration": 4, "velocity": 93}, {"time": 3299, "pitch": 53, "duration": 6, "velocity": 96}, {"time": 3302, "pitch": 46, "duration": 4, "velocity": 95}, {"time": 3305, "pitch": 58, "duration": 7, "velocity": 112}, {"time": 3305, "pitch": 61, "duration": 7, "velocity": 122}, {"time": 3308, "pitch": 46, "duration": 6, "velocity": 99}, {"time": 3311, "pitch": 53, "duration": 6, "velocity": 96}, {"time": 3314, "pitch": 58, "duration": 3, "velocity": 107}, {"time": 3314, "pitch": 61, "duration": 3, "velocity": 117}, {"time": 3317, "pitch": 37, "duration": 18, "velocity": 95}, {"time": 3320, "pitch": 49, "duration": 5, "velocity": 107}, {"time": 3323, "pitch": 56, "duration": 7, "velocity": 107}, {"time": 3326, "pitch": 49, "duration": 4, "velocity": 97}, {"time": 3329, "pitch": 61, "duration": 6, "velocity": 93}, {"time": 3329, "pitch": 65, "duration": 12, "velocity": 93}, {"time": 3332, "pitch": 49, "duration": 7, "velocity": 100}, {"time": 3335, "pitch": 56, "duration": 6, "velocity": 97}, {"time": 3338, "pitch": 61, "duration": 4, "velocity": 112}, {"time": 3341, "pitch": 39, "duration": 23, "velocity": 100}, {"time": 3344, "pitch": 51, "duration": 4, "velocity": 90}, {"time": 3347, "pitch": 55, "duration": 6, "velocity": 97}, {"time": 3350, "pitch": 51, "duration": 4, "velocity": 112}, {"time": 3353, "pitch": 58, "duration": 7, "velocity": 122}, {"time": 3353, "pitch": 63, "duration": 7, "velocity": 127}, {"time": 3356, "pitch": 51, "duration": 6, "velocity": 112}, {"time": 3359, "pitch": 55, "duration": 5, "velocity": 107}, {"time": 3362, "pitch": 58, "duration": 3, "velocity": 112}, {"time": 3362, "pitch": 63, "duration": 4, "velocity": 122}, {"time": 3365, "pitch": 32, "duration": 19, "velocity": 117}, {"time": 3368, "pitch": 44, "duration": 4, "velocity": 99}, {"time": 3371, "pitch": 56, "duration": 3, "velocity": 77}, {"time": 3371, "pitch": 60, "duration": 4, "velocity": 97}, {"time": 3371, "pitch": 63, "duration": 5, "velocity": 96}, {"time": 3374, "pitch": 44, "duration": 4, "velocity": 107}, {"time": 3377, "pitch": 60, "duration": 5, "velocity": 112}, {"time": 3377, "pitch": 63, "duration": 5, "velocity": 112}, {"time": 3380, "pitch": 44, "duration": 6, "velocity": 100}, {"time": 3383, "pitch": 56, "duration": 6, "velocity": 107}, {"time": 3386, "pitch": 60, "duration": 2, "velocity": 100}, {"time": 3386, "pitch": 63, "duration": 3, "velocity": 127}, {"time": 3389, "pitch": 34, "duration": 18, "velocity": 93}, {"time": 3392, "pitch": 46, "duration": 5, "velocity": 99}, {"time": 3395, "pitch": 53, "duration": 7, "velocity": 97}, {"time": 3398, "pitch": 46, "duration": 4, "velocity": 96}, {"time": 3401, "pitch": 58, "duration": 7, "velocity": 117}, {"time": 3401, "pitch": 61, "duration": 6, "velocity": 127}, {"time": 3404, "pitch": 46, "duration": 2, "velocity": 95}, {"time": 3407, "pitch": 53, "duration": 6, "velocity": 107}, {"time": 3410, "pitch": 58, "duration": 4, "velocity": 107}, {"time": 3410, "pitch": 61, "duration": 4, "velocity": 117}, {"time": 3413, "pitch": 32, "duration": 17, "velocity": 96}, {"time": 3416, "pitch": 44, "duration": 5, "velocity": 100}, {"time": 3419, "pitch": 56, "duration": 7, "velocity": 112}, {"time": 3422, "pitch": 44, "duration": 4, "velocity": 100}, {"time": 3425, "pitch": 60, "duration": 7, "velocity": 100}, {"time": 3425, "pitch": 63, "duration": 6, "velocity": 122}, {"time": 3428, "pitch": 44, "duration": 4, "velocity": 107}, {"time": 3431, "pitch": 56, "duration": 5, "velocity": 122}, {"time": 3434, "pitch": 60, "duration": 4, "velocity": 78}, {"time": 3434, "pitch": 63, "duration": 4, "velocity": 117}, {"time": 3437, "pitch": 39, "duration": 18, "velocity": 73}, {"time": 3440, "pitch": 51, "duration": 4, "velocity": 96}, {"time": 3443, "pitch": 55, "duration": 7, "velocity": 97}, {"time": 3446, "pitch": 51, "duration": 4, "velocity": 92}, {"time": 3449, "pitch": 58, "duration": 7, "velocity": 107}, {"time": 3449, "pitch": 63, "duration": 10, "velocity": 117}, {"time": 3452, "pitch": 51, "duration": 3, "velocity": 102}, {"time": 3455, "pitch": 55, "duration": 5, "velocity": 102}, {"time": 3458, "pitch": 58, "duration": 3, "velocity": 127}, {"time": 3461, "pitch": 41, "duration": 19, "velocity": 90}, {"time": 3464, "pitch": 48, "duration": 16, "velocity": 89}, {"time": 3467, "pitch": 53, "duration": 8, "velocity": 102}, {"time": 3470, "pitch": 60, "duration": 5, "velocity": 70}, {"time": 3473, "pitch": 65, "duration": 7, "velocity": 96}, {"time": 3473, "pitch": 68, "duration": 7, "velocity": 117}, {"time": 3476, "pitch": 53, "duration": 3, "velocity": 89}, {"time": 3479, "pitch": 60, "duration": 7, "velocity": 100}, {"time": 3482, "pitch": 65, "duration": 4, "velocity": 99}, {"time": 3482, "pitch": 68, "duration": 4, "velocity": 122}, {"time": 3485, "pitch": 34, "duration": 20, "velocity": 100}, {"time": 3488, "pitch": 46, "duration": 5, "velocity": 93}, {"time": 3491, "pitch": 53, "duration": 7, "velocity": 96}, {"time": 3494, "pitch": 46, "duration": 4, "velocity": 95}, {"time": 3497, "pitch": 58, "duration": 8, "velocity": 112}, {"time": 3497, "pitch": 61, "duration": 7, "velocity": 122}, {"time": 3500, "pitch": 46, "duration": 6, "velocity": 99}, {"time": 3503, "pitch": 53, "duration": 6, "velocity": 96}, {"time": 3506, "pitch": 58, "duration": 3, "velocity": 107}, {"time": 3506, "pitch": 61, "duration": 3, "velocity": 117}, {"time": 3509, "pitch": 37, "duration": 36, "velocity": 99}, {"time": 3509, "pitch": 49, "duration": 36, "velocity": 81}, {"time": 3509, "pitch": 56, "duration": 36, "velocity": 99}, {"time": 3509, "pitch": 61, "duration": 36, "velocity": 112}, {"time": 3509, "pitch": 65, "duration": 36, "velocity": 86}, {"time": 3545, "pitch": 39, "duration": 36, "velocity": 95}, {"time": 3545, "pitch": 51, "duration": 36, "velocity": 75}, {"time": 3545, "pitch": 58, "duration": 36, "velocity": 83}, {"time": 3545, "pitch": 63, "duration": 36, "velocity": 67}, {"time": 3545, "pitch": 67, "duration": 36, "velocity": 70}, {"time": 3581, "pitch": 41, "duration": 110, "velocity": 73}, {"time": 3587, "pitch": 48, "duration": 103, "velocity": 63}, {"time": 3593, "pitch": 56, "duration": 11, "velocity": 89}, {"time": 3599, "pitch": 53, "duration": 91, "velocity": 73}, {"time": 3605, "pitch": 56, "duration": 86, "velocity": 33}, {"time": 3605, "pitch": 60, "duration": 85, "velocity": 79}, {"time": 3605, "pitch": 65, "duration": 85, "velocity": 68}], "annotations": [{"time": 5, "annotation": {"number": 64, "value": 127}, "group": "control_change"}, {"time": 50, "annotation": {"number": 64, "value": 0}, "group": "control_change"}, {"time": 53, "annotation": {"number": 64, "value": 127}, "group": "control_change"}, {"time": 124, "annotation": {"number": 64, "value": 0}, "group": "control_change"}, {"time": 126, "annotation": {"number": 64, "value": 127}, "group": "control_change"}, {"time": 147, "annotation": {"number": 64, "value": 0}, "group": "control_change"}, {"time": 149, "annotation": {"number": 64, "value": 127}, "group": "control_change"}, {"time": 196, "annotation": {"number": 64, "value": 0}, "group": "control_change"}, {"time": 198, "annotation": {"number": 64, "value": 127}, "group": "control_change"}, {"time": 242, "annotation": {"number": 64, "value": 0}, "group": "control_change"}, {"time": 245, "annotation": {"number": 64, "value": 127}, "group": "control_change"}, {"time": 290, "annotation": {"number": 64, "value": 0}, "group": "control_change"}, {"time": 293, "annotation": {"number": 64, "value": 127}, "group": "control_change"}, {"time": 387, "annotation": {"number": 64, "value": 0}, "group": "control_change"}, {"time": 390, "annotation": {"number": 64, "value": 127}, "group": "control_change"}, {"time": 436, "annotation": {"number": 64, "value": 0}, "group": "control_change"}, {"time": 437, "annotation": {"number": 64, "value": 127}, "group": "control_change"}, {"time": 484, "annotation": {"number": 64, "value": 0}, "group": "control_change"}, {"time": 485, "annotation": {"number": 64, "value": 127}, "group": "control_change"}, {"time": 508, "annotation": {"number": 64, "value": 0}, "group": "control_change"}, {"time": 510, "annotation": {"number": 64, "value": 127}, "group": "control_change"}, {"time": 532, "annotation": {"number": 64, "value": 0}, "group": "control_change"}, {"time": 534, "annotation": {"number": 64, "value": 127}, "group": "control_change"}, {"time": 556, "annotation": {"number": 64, "value": 0}, "group": "control_change"}, {"time": 558, "annotation": {"number": 64, "value": 127}, "group": "control_change"}, {"time": 578, "annotation": {"number": 64, "value": 0}, "group": "control_change"}, {"time": 582, "annotation": {"number": 64, "value": 127}, "group": "control_change"}, {"time": 627, "annotation": {"number": 64, "value": 0}, "group": "control_change"}, {"time": 629, "annotation": {"number": 64, "value": 127}, "group": "control_change"}, {"time": 650, "annotation": {"number": 64, "value": 0}, "group": "control_change"}, {"time": 653, "annotation": {"number": 64, "value": 127}, "group": "control_change"}, {"time": 676, "annotation": {"number": 64, "value": 0}, "group": "control_change"}, {"time": 678, "annotation": {"number": 64, "value": 127}, "group": "control_change"}, {"time": 698, "annotation": {"number": 64, "value": 0}, "group": "control_change"}, {"time": 701, "annotation": {"number": 64, "value": 127}, "group": "control_change"}, {"time": 723, "annotation": {"number": 64, "value": 0}, "group": "control_change"}, {"time": 726, "annotation": {"number": 64, "value": 127}, "group": "control_change"}, {"time": 746, "annotation": {"number": 64, "value": 0}, "group": "control_change"}, {"time": 749, "annotation": {"number": 64, "value": 127}, "group": "control_change"}, {"time": 772, "annotation": {"number": 64, "value": 0}, "group": "control_change"}, {"time": 774, "annotation": {"number": 64, "value": 127}, "group": "control_change"}, {"time": 819, "annotation": {"number": 64, "value": 0}, "group": "control_change"}, {"time": 822, "annotation": {"number": 64, "value": 127}, "group": "control_change"}, {"time": 866, "annotation": {"number": 64, "value": 0}, "group": "control_change"}, {"time": 869, "annotation": {"number": 64, "value": 127}, "group": "control_change"}, {"time": 891, "annotation": {"number": 64, "value": 0}, "group": "control_change"}, {"time": 894, "annotation": {"number": 64, "value": 127}, "group": "control_change"}, {"time": 914, "annotation": {"number": 64, "value": 0}, "group": "control_change"}, {"time": 918, "annotation": {"number": 64, "value": 127}, "group": "control_change"}, {"time": 938, "annotation": {"number": 64, "value": 0}, "group": "control_change"}, {"time": 942, "annotation": {"number": 64, "value": 127}, "group": "control_change"}, {"time": 962, "annotation": {"number": 64, "value": 0}, "group": "control_change"}, {"time": 965, "annotation": {"number": 64, "value": 127}, "group": "control_change"}, {"time": 986, "annotation": {"number": 64, "value": 0}, "group": "control_change"}, {"time": 990, "annotation": {"number": 64, "value": 127}, "group": "control_change"}, {"time": 1010, "annotation": {"number": 64, "value": 0}, "group": "control_change"}, {"time": 1013, "annotation": {"number": 64, "value": 127}, "group": "control_change"}, {"time": 1036, "annotation": {"number": 64, "value": 0}, "group": "control_change"}, {"time": 1038, "annotation": {"number": 64, "value": 127}, "group": "control_change"}, {"time": 1057, "annotation": {"number": 64, "value": 0}, "group": "control_change"}, {"time": 1061, "annotation": {"number": 64, "value": 127}, "group": "control_change"}, {"time": 1083, "annotation": {"number": 64, "value": 0}, "group": "control_change"}, {"time": 1086, "annotation": {"number": 64, "value": 127}, "group": "control_change"}, {"time": 1107, "annotation": {"number": 64, "value": 0}, "group": "control_change"}, {"time": 1110, "annotation": {"number": 64, "value": 127}, "group": "control_change"}, {"time": 1130, "annotation": {"number": 64, "value": 0}, "group": "control_change"}, {"time": 1133, "annotation": {"number": 64, "value": 127}, "group": "control_change"}, {"time": 1155, "annotation": {"number": 64, "value": 0}, "group": "control_change"}, {"time": 1157, "annotation": {"number": 64, "value": 127}, "group": "control_change"}, {"time": 1179, "annotation": {"number": 64, "value": 0}, "group": "control_change"}, {"time": 1181, "annotation": {"number": 64, "value": 127}, "group": "control_change"}, {"time": 1204, "annotation": {"number": 64, "value": 0}, "group": "control_change"}, {"time": 1206, "annotation": {"number": 64, "value": 127}, "group": "control_change"}, {"time": 1227, "annotation": {"number": 64, "value": 0}, "group": "control_change"}, {"time": 1229, "annotation": {"number": 64, "value": 127}, "group": "control_change"}, {"time": 1250, "annotation": {"number": 64, "value": 0}, "group": "control_change"}, {"time": 1253, "annotation": {"number": 64, "value": 127}, "group": "control_change"}, {"time": 1276, "annotation": {"number": 64, "value": 0}, "group": "control_change"}, {"time": 1278, "annotation": {"number": 64, "value": 127}, "group": "control_change"}, {"time": 1300, "annotation": {"number": 64, "value": 0}, "group": "control_change"}, {"time": 1302, "annotation": {"number": 64, "value": 127}, "group": "control_change"}, {"time": 1323, "annotation": {"number": 64, "value": 0}, "group": "control_change"}, {"time": 1326, "annotation": {"number": 64, "value": 127}, "group": "control_change"}, {"time": 1347, "annotation": {"number": 64, "value": 0}, "group": "control_change"}, {"time": 1350, "annotation": {"number": 64, "value": 127}, "group": "control_change"}, {"time": 1371, "annotation": {"number": 64, "value": 0}, "group": "control_change"}, {"time": 1374, "annotation": {"number": 64, "value": 127}, "group": "control_change"}, {"time": 1396, "annotation": {"number": 64, "value": 0}, "group": "control_change"}, {"time": 1399, "annotation": {"number": 64, "value": 127}, "group": "control_change"}, {"time": 1419, "annotation": {"number": 64, "value": 0}, "group": "control_change"}, {"time": 1422, "annotation": {"number": 64, "value": 127}, "group": "control_change"}, {"time": 1443, "annotation": {"number": 64, "value": 0}, "group": "control_change"}, {"time": 1446, "annotation": {"number": 64, "value": 127}, "group": "control_change"}, {"time": 1466, "annotation": {"number": 64, "value": 0}, "group": "control_change"}, {"time": 1469, "annotation": {"number": 64, "value": 127}, "group": "control_change"}, {"time": 1488, "annotation": {"number": 64, "value": 0}, "group": "control_change"}, {"time": 1494, "annotation": {"number": 64, "value": 127}, "group": "control_change"}, {"time": 1513, "annotation": {"number": 64, "value": 0}, "group": "control_change"}, {"time": 1517, "annotation": {"number": 64, "value": 127}, "group": "control_change"}, {"time": 1538, "annotation": {"number": 64, "value": 0}, "group": "control_change"}, {"time": 1542, "annotation": {"number": 64, "value": 127}, "group": "control_change"}, {"time": 1562, "annotation": {"number": 64, "value": 0}, "group": "control_change"}, {"time": 1565, "annotation": {"number": 64, "value": 127}, "group": "control_change"}, {"time": 1585, "annotation": {"number": 64, "value": 0}, "group": "control_change"}, {"time": 1589, "annotation": {"number": 64, "value": 127}, "group": "control_change"}, {"time": 1609, "annotation": {"number": 64, "value": 0}, "group": "control_change"}, {"time": 1613, "annotation": {"number": 64, "value": 127}, "group": "control_change"}, {"time": 1634, "annotation": {"number": 64, "value": 0}, "group": "control_change"}, {"time": 1637, "annotation": {"number": 64, "value": 127}, "group": "control_change"}, {"time": 1682, "annotation": {"number": 64, "value": 0}, "group": "control_change"}, {"time": 1685, "annotation": {"number": 64, "value": 127}, "group": "control_change"}, {"time": 1706, "annotation": {"number": 64, "value": 0}, "group": "control_change"}, {"time": 1709, "annotation": {"number": 64, "value": 127}, "group": "control_change"}, {"time": 1727, "annotation": {"number": 64, "value": 0}, "group": "control_change"}, {"time": 1734, "annotation": {"number": 64, "value": 127}, "group": "control_change"}, {"time": 1755, "annotation": {"number": 64, "value": 0}, "group": "control_change"}, {"time": 1758, "annotation": {"number": 64, "value": 127}, "group": "control_change"}, {"time": 1778, "annotation": {"number": 64, "value": 0}, "group": "control_change"}, {"time": 1782, "annotation": {"number": 64, "value": 127}, "group": "control_change"}, {"time": 1802, "annotation": {"number": 64, "value": 0}, "group": "control_change"}, {"time": 1806, "annotation": {"number": 64, "value": 127}, "group": "control_change"}, {"time": 1822, "annotation": {"number": 64, "value": 0}, "group": "control_change"}, {"time": 1829, "annotation": {"number": 64, "value": 127}, "group": "control_change"}, {"time": 1849, "annotation": {"number": 64, "value": 0}, "group": "control_change"}, {"time": 1853, "annotation": {"number": 64, "value": 127}, "group": "control_change"}, {"time": 1869, "annotation": {"number": 64, "value": 0}, "group": "control_change"}, {"time": 1878, "annotation": {"number": 64, "value": 127}, "group": "control_change"}, {"time": 1922, "annotation": {"number": 64, "value": 0}, "group": "control_change"}, {"time": 1925, "annotation": {"number": 64, "value": 127}, "group": "control_change"}, {"time": 1970, "annotation": {"number": 64, "value": 0}, "group": "control_change"}, {"time": 1973, "annotation": {"number": 64, "value": 127}, "group": "control_change"}, {"time": 2067, "annotation": {"number": 64, "value": 0}, "group": "control_change"}, {"time": 2070, "annotation": {"number": 64, "value": 127}, "group": "control_change"}, {"time": 2116, "annotation": {"number": 64, "value": 0}, "group": "control_change"}, {"time": 2117, "annotation": {"number": 64, "value": 127}, "group": "control_change"}, {"time": 2164, "annotation": {"number": 64, "value": 0}, "group": "control_change"}, {"time": 2165, "annotation": {"number": 64, "value": 127}, "group": "control_change"}, {"time": 2188, "annotation": {"number": 64, "value": 0}, "group": "control_change"}, {"time": 2190, "annotation": {"number": 64, "value": 127}, "group": "control_change"}, {"time": 2212, "annotation": {"number": 64, "value": 0}, "group": "control_change"}, {"time": 2214, "annotation": {"number": 64, "value": 127}, "group": "control_change"}, {"time": 2236, "annotation": {"number": 64, "value": 0}, "group": "control_change"}, {"time": 2238, "annotation": {"number": 64, "value": 127}, "group": "control_change"}, {"time": 2258, "annotation": {"number": 64, "value": 0}, "group": "control_change"}, {"time": 2262, "annotation": {"number": 64, "value": 127}, "group": "control_change"}, {"time": 2307, "annotation": {"number": 64, "value": 0}, "group": "control_change"}, {"time": 2309, "annotation": {"number": 64, "value": 127}, "group": "control_change"}, {"time": 2330, "annotation": {"number": 64, "value": 0}, "group": "control_change"}, {"time": 2333, "annotation": {"number": 64, "value": 127}, "group": "control_change"}, {"time": 2356, "annotation": {"number": 64, "value": 0}, "group": "control_change"}, {"time": 2358, "annotation": {"number": 64, "value": 127}, "group": "control_change"}, {"time": 2378, "annotation": {"number": 64, "value": 0}, "group": "control_change"}, {"time": 2381, "annotation": {"number": 64, "value": 127}, "group": "control_change"}, {"time": 2403, "annotation": {"number": 64, "value": 0}, "group": "control_change"}, {"time": 2406, "annotation": {"number": 64, "value": 127}, "group": "control_change"}, {"time": 2426, "annotation": {"number": 64, "value": 0}, "group": "control_change"}, {"time": 2429, "annotation": {"number": 64, "value": 127}, "group": "control_change"}, {"time": 2452, "annotation": {"number": 64, "value": 0}, "group": "control_change"}, {"time": 2454, "annotation": {"number": 64, "value": 127}, "group": "control_change"}, {"time": 2499, "annotation": {"number": 64, "value": 0}, "group": "control_change"}, {"time": 2502, "annotation": {"number": 64, "value": 127}, "group": "control_change"}, {"time": 2546, "annotation": {"number": 64, "value": 0}, "group": "control_change"}, {"time": 2549, "annotation": {"number": 64, "value": 127}, "group": "control_change"}, {"time": 2571, "annotation": {"number": 64, "value": 0}, "group": "control_change"}, {"time": 2574, "annotation": {"number": 64, "value": 127}, "group": "control_change"}, {"time": 2594, "annotation": {"number": 64, "value": 0}, "group": "control_change"}, {"time": 2598, "annotation": {"number": 64, "value": 127}, "group": "control_change"}, {"time": 2618, "annotation": {"number": 64, "value": 0}, "group": "control_change"}, {"time": 2622, "annotation": {"number": 64, "value": 127}, "group": "control_change"}, {"time": 2642, "annotation": {"number": 64, "value": 0}, "group": "control_change"}, {"time": 2645, "annotation": {"number": 64, "value": 127}, "group": "control_change"}, {"time": 2666, "annotation": {"number": 64, "value": 0}, "group": "control_change"}, {"time": 2670, "annotation": {"number": 64, "value": 127}, "group": "control_change"}, {"time": 2690, "annotation": {"number": 64, "value": 0}, "group": "control_change"}, {"time": 2693, "annotation": {"number": 64, "value": 127}, "group": "control_change"}, {"time": 2716, "annotation": {"number": 64, "value": 0}, "group": "control_change"}, {"time": 2718, "annotation": {"number": 64, "value": 127}, "group": "control_change"}, {"time": 2737, "annotation": {"number": 64, "value": 0}, "group": "control_change"}, {"time": 2741, "annotation": {"number": 64, "value": 127}, "group": "control_change"}, {"time": 2763, "annotation": {"number": 64, "value": 0}, "group": "control_change"}, {"time": 2766, "annotation": {"number": 64, "value": 127}, "group": "control_change"}, {"time": 2787, "annotation": {"number": 64, "value": 0}, "group": "control_change"}, {"time": 2790, "annotation": {"number": 64, "value": 127}, "group": "control_change"}, {"time": 2810, "annotation": {"number": 64, "value": 0}, "group": "control_change"}, {"time": 2813, "annotation": {"number": 64, "value": 127}, "group": "control_change"}, {"time": 2835, "annotation": {"number": 64, "value": 0}, "group": "control_change"}, {"time": 2837, "annotation": {"number": 64, "value": 127}, "group": "control_change"}, {"time": 2859, "annotation": {"number": 64, "value": 0}, "group": "control_change"}, {"time": 2861, "annotation": {"number": 64, "value": 127}, "group": "control_change"}, {"time": 2884, "annotation": {"number": 64, "value": 0}, "group": "control_change"}, {"time": 2886, "annotation": {"number": 64, "value": 127}, "group": "control_change"}, {"time": 2907, "annotation": {"number": 64, "value": 0}, "group": "control_change"}, {"time": 2909, "annotation": {"number": 64, "value": 127}, "group": "control_change"}, {"time": 2930, "annotation": {"number": 64, "value": 0}, "group": "control_change"}, {"time": 2933, "annotation": {"number": 64, "value": 127}, "group": "control_change"}, {"time": 2956, "annotation": {"number": 64, "value": 0}, "group": "control_change"}, {"time": 2958, "annotation": {"number": 64, "value": 127}, "group": "control_change"}, {"time": 2980, "annotation": {"number": 64, "value": 0}, "group": "control_change"}, {"time": 2982, "annotation": {"number": 64, "value": 127}, "group": "control_change"}, {"time": 3003, "annotation": {"number": 64, "value": 0}, "group": "control_change"}, {"time": 3006, "annotation": {"number": 64, "value": 127}, "group": "control_change"}, {"time": 3027, "annotation": {"number": 64, "value": 0}, "group": "control_change"}, {"time": 3030, "annotation": {"number": 64, "value": 127}, "group": "control_change"}, {"time": 3051, "annotation": {"number": 64, "value": 0}, "group": "control_change"}, {"time": 3054, "annotation": {"number": 64, "value": 127}, "group": "control_change"}, {"time": 3076, "annotation": {"number": 64, "value": 0}, "group": "control_change"}, {"time": 3079, "annotation": {"number": 64, "value": 127}, "group": "control_change"}, {"time": 3099, "annotation": {"number": 64, "value": 0}, "group": "control_change"}, {"time": 3102, "annotation": {"number": 64, "value": 127}, "group": "control_change"}, {"time": 3123, "annotation": {"number": 64, "value": 0}, "group": "control_change"}, {"time": 3125, "annotation": {"number": 64, "value": 127}, "group": "control_change"}, {"time": 3147, "annotation": {"number": 64, "value": 0}, "group": "control_change"}, {"time": 3149, "annotation": {"number": 64, "value": 127}, "group": "control_change"}, {"time": 3156, "annotation": {"number": 64, "value": 0}, "group": "control_change"}, {"time": 3173, "annotation": {"number": 64, "value": 127}, "group": "control_change"}, {"time": 3194, "annotation": {"number": 64, "value": 0}, "group": "control_change"}, {"time": 3197, "annotation": {"number": 64, "value": 127}, "group": "control_change"}, {"time": 3218, "annotation": {"number": 64, "value": 0}, "group": "control_change"}, {"time": 3221, "annotation": {"number": 64, "value": 127}, "group": "control_change"}, {"time": 3266, "annotation": {"number": 64, "value": 0}, "group": "control_change"}, {"time": 3269, "annotation": {"number": 64, "value": 127}, "group": "control_change"}, {"time": 3314, "annotation": {"number": 64, "value": 0}, "group": "control_change"}, {"time": 3317, "annotation": {"number": 64, "value": 127}, "group": "control_change"}, {"time": 3363, "annotation": {"number": 64, "value": 0}, "group": "control_change"}, {"time": 3365, "annotation": {"number": 64, "value": 127}, "group": "control_change"}, {"time": 3386, "annotation": {"number": 64, "value": 0}, "group": "control_change"}, {"time": 3389, "annotation": {"number": 64, "value": 127}, "group": "control_change"}, {"time": 3410, "annotation": {"number": 64, "value": 0}, "group": "control_change"}, {"time": 3413, "annotation": {"number": 64, "value": 127}, "group": "control_change"}, {"time": 3458, "annotation": {"number": 64, "value": 0}, "group": "control_change"}, {"time": 3462, "annotation": {"number": 64, "value": 127}, "group": "control_change"}, {"time": 3507, "annotation": {"number": 64, "value": 0}, "group": "control_change"}, {"time": 3569, "annotation": {"number": 64, "value": 127}, "group": "control_change"}, {"time": 3578, "annotation": {"number": 64, "value": 0}, "group": "control_change"}, {"time": 3582, "annotation": {"number": 64, "value": 127}, "group": "control_change"}, {"time": 3629, "annotation": {"number": 64, "value": 0}, "group": "control_change"}, {"time": 3686, "annotation": {"number": 64, "value": 127}, "group": "control_change"}, {"time": 3695, "annotation": {"number": 64, "value": 0}, "group": "control_change"}, {"time": 3697, "annotation": {"number": 64, "value": 127}, "group": "control_change"}, {"time": 3698, "annotation": {"number": 64, "value": 0}, "group": "control_change"}]}]}