{"metadata": {"schema_version": "0.2", "title": "None", "source_filename": "353.mid", "source_format": "midi"}, "resolution": 12, "tempos": [{"time": 0, "qpm": 69.97998572408291}], "key_signatures": [{"time": 0, "root": 0, "mode": "major"}], "time_signatures": [{"time": 0, "numerator": 4, "denominator": 4}, {"time": 0, "numerator": 1, "denominator": 4}], "tracks": [{"program": 0, "is_drum": false, "name": "MELODY", "notes": [{"time": 395, "pitch": 71, "duration": 4, "velocity": 117}, {"time": 401, "pitch": 71, "duration": 2, "velocity": 117}, {"time": 407, "pitch": 71, "duration": 2, "velocity": 100}, {"time": 413, "pitch": 71, "duration": 3, "velocity": 127}, {"time": 419, "pitch": 71, "duration": 2, "velocity": 122}, {"time": 422, "pitch": 69, "duration": 2, "velocity": 88}, {"time": 425, "pitch": 71, "duration": 3, "velocity": 117}, {"time": 431, "pitch": 71, "duration": 1, "velocity": 107}, {"time": 434, "pitch": 71, "duration": 3, "velocity": 100}, {"time": 440, "pitch": 71, "duration": 2, "velocity": 96}, {"time": 446, "pitch": 71, "duration": 2, "velocity": 107}, {"time": 452, "pitch": 71, "duration": 1, "velocity": 100}, {"time": 455, "pitch": 71, "duration": 1, "velocity": 95}, {"time": 458, "pitch": 73, "duration": 2, "velocity": 102}, {"time": 461, "pitch": 71, "duration": 1, "velocity": 100}, {"time": 464, "pitch": 71, "duration": 2, "velocity": 97}, {"time": 467, "pitch": 71, "duration": 2, "velocity": 85}, {"time": 470, "pitch": 73, "duration": 3, "velocity": 100}, {"time": 473, "pitch": 69, "duration": 4, "velocity": 86}, {"time": 479, "pitch": 69, "duration": 3, "velocity": 107}, {"time": 491, "pitch": 71, "duration": 3, "velocity": 97}, {"time": 497, "pitch": 71, "duration": 2, "velocity": 102}, {"time": 503, "pitch": 71, "duration": 2, "velocity": 99}, {"time": 509, "pitch": 71, "duration": 2, "velocity": 107}, {"time": 515, "pitch": 73, "duration": 3, "velocity": 122}, {"time": 518, "pitch": 69, "duration": 3, "velocity": 92}, {"time": 527, "pitch": 69, "duration": 1, "velocity": 95}, {"time": 530, "pitch": 69, "duration": 1, "velocity": 89}, {"time": 533, "pitch": 71, "duration": 4, "velocity": 96}, {"time": 539, "pitch": 71, "duration": 1, "velocity": 79}, {"time": 542, "pitch": 71, "duration": 5, "velocity": 99}, {"time": 551, "pitch": 73, "duration": 1, "velocity": 122}, {"time": 554, "pitch": 69, "duration": 12, "velocity": 96}, {"time": 587, "pitch": 71, "duration": 4, "velocity": 99}, {"time": 593, "pitch": 71, "duration": 2, "velocity": 93}, {"time": 599, "pitch": 71, "duration": 2, "velocity": 99}, {"time": 605, "pitch": 71, "duration": 1, "velocity": 112}, {"time": 611, "pitch": 71, "duration": 3, "velocity": 107}, {"time": 614, "pitch": 69, "duration": 3, "velocity": 88}, {"time": 617, "pitch": 71, "duration": 4, "velocity": 112}, {"time": 623, "pitch": 71, "duration": 1, "velocity": 97}, {"time": 626, "pitch": 71, "duration": 3, "velocity": 100}, {"time": 632, "pitch": 71, "duration": 4, "velocity": 99}, {"time": 638, "pitch": 71, "duration": 3, "velocity": 99}, {"time": 644, "pitch": 71, "duration": 1, "velocity": 86}, {"time": 647, "pitch": 71, "duration": 2, "velocity": 99}, {"time": 650, "pitch": 73, "duration": 2, "velocity": 112}, {"time": 653, "pitch": 71, "duration": 1, "velocity": 93}, {"time": 656, "pitch": 71, "duration": 1, "velocity": 97}, {"time": 659, "pitch": 71, "duration": 2, "velocity": 99}, {"time": 662, "pitch": 73, "duration": 2, "velocity": 107}, {"time": 665, "pitch": 69, "duration": 5, "velocity": 102}, {"time": 671, "pitch": 69, "duration": 3, "velocity": 97}, {"time": 683, "pitch": 73, "duration": 4, "velocity": 117}, {"time": 689, "pitch": 73, "duration": 3, "velocity": 107}, {"time": 695, "pitch": 76, "duration": 3, "velocity": 93}, {"time": 701, "pitch": 76, "duration": 3, "velocity": 112}, {"time": 707, "pitch": 73, "duration": 1, "velocity": 122}, {"time": 710, "pitch": 73, "duration": 3, "velocity": 100}, {"time": 716, "pitch": 76, "duration": 3, "velocity": 96}, {"time": 722, "pitch": 76, "duration": 2, "velocity": 117}, {"time": 728, "pitch": 73, "duration": 6, "velocity": 112}, {"time": 734, "pitch": 69, "duration": 2, "velocity": 99}, {"time": 740, "pitch": 64, "duration": 4, "velocity": 97}, {"time": 746, "pitch": 69, "duration": 2, "velocity": 117}, {"time": 752, "pitch": 69, "duration": 5, "velocity": 112}, {"time": 773, "pitch": 73, "duration": 5, "velocity": 112}, {"time": 779, "pitch": 71, "duration": 3, "velocity": 107}, {"time": 785, "pitch": 69, "duration": 4, "velocity": 95}, {"time": 791, "pitch": 76, "duration": 6, "velocity": 96}, {"time": 797, "pitch": 73, "duration": 5, "velocity": 117}, {"time": 803, "pitch": 71, "duration": 6, "velocity": 117}, {"time": 809, "pitch": 69, "duration": 4, "velocity": 95}, {"time": 815, "pitch": 69, "duration": 3, "velocity": 99}, {"time": 821, "pitch": 69, "duration": 7, "velocity": 107}, {"time": 851, "pitch": 69, "duration": 8, "velocity": 102}, {"time": 869, "pitch": 73, "duration": 5, "velocity": 127}, {"time": 875, "pitch": 71, "duration": 4, "velocity": 100}, {"time": 881, "pitch": 69, "duration": 3, "velocity": 99}, {"time": 887, "pitch": 76, "duration": 7, "velocity": 112}, {"time": 893, "pitch": 73, "duration": 6, "velocity": 127}, {"time": 899, "pitch": 71, "duration": 4, "velocity": 107}, {"time": 905, "pitch": 69, "duration": 4, "velocity": 99}, {"time": 911, "pitch": 69, "duration": 4, "velocity": 97}, {"time": 917, "pitch": 69, "duration": 5, "velocity": 107}, {"time": 962, "pitch": 64, "duration": 2, "velocity": 92}, {"time": 965, "pitch": 73, "duration": 5, "velocity": 102}, {"time": 971, "pitch": 71, "duration": 5, "velocity": 107}, {"time": 977, "pitch": 69, "duration": 4, "velocity": 89}, {"time": 983, "pitch": 76, "duration": 5, "velocity": 122}, {"time": 989, "pitch": 73, "duration": 4, "velocity": 107}, {"time": 995, "pitch": 71, "duration": 5, "velocity": 95}, {"time": 1001, "pitch": 69, "duration": 4, "velocity": 99}, {"time": 1007, "pitch": 78, "duration": 6, "velocity": 112}, {"time": 1010, "pitch": 78, "duration": 3, "velocity": 127}, {"time": 1019, "pitch": 76, "duration": 2, "velocity": 97}, {"time": 1022, "pitch": 76, "duration": 6, "velocity": 97}, {"time": 1031, "pitch": 78, "duration": 2, "velocity": 112}, {"time": 1034, "pitch": 76, "duration": 6, "velocity": 117}, {"time": 1040, "pitch": 73, "duration": 9, "velocity": 122}, {"time": 1052, "pitch": 64, "duration": 3, "velocity": 93}, {"time": 1055, "pitch": 73, "duration": 3, "velocity": 107}, {"time": 1058, "pitch": 76, "duration": 4, "velocity": 93}, {"time": 1061, "pitch": 78, "duration": 4, "velocity": 117}, {"time": 1067, "pitch": 78, "duration": 5, "velocity": 122}, {"time": 1073, "pitch": 78, "duration": 4, "velocity": 112}, {"time": 1079, "pitch": 76, "duration": 1, "velocity": 97}, {"time": 1082, "pitch": 76, "duration": 8, "velocity": 107}, {"time": 1091, "pitch": 73, "duration": 1, "velocity": 112}, {"time": 1094, "pitch": 73, "duration": 6, "velocity": 112}, {"time": 1103, "pitch": 76, "duration": 1, "velocity": 99}, {"time": 1106, "pitch": 76, "duration": 13, "velocity": 117}, {"time": 1115, "pitch": 81, "duration": 1, "velocity": 100}, {"time": 1118, "pitch": 81, "duration": 8, "velocity": 107}, {"time": 1124, "pitch": 78, "duration": 11, "velocity": 112}, {"time": 1136, "pitch": 76, "duration": 12, "velocity": 112}, {"time": 1151, "pitch": 66, "duration": 2, "velocity": 117}, {"time": 1154, "pitch": 68, "duration": 2, "velocity": 102}, {"time": 1157, "pitch": 69, "duration": 4, "velocity": 100}, {"time": 1163, "pitch": 69, "duration": 4, "velocity": 117}, {"time": 1169, "pitch": 69, "duration": 4, "velocity": 117}, {"time": 1175, "pitch": 69, "duration": 3, "velocity": 122}, {"time": 1181, "pitch": 71, "duration": 4, "velocity": 112}, {"time": 1187, "pitch": 71, "duration": 6, "velocity": 93}, {"time": 1193, "pitch": 73, "duration": 4, "velocity": 127}, {"time": 1199, "pitch": 73, "duration": 4, "velocity": 127}, {"time": 1229, "pitch": 71, "duration": 5, "velocity": 117}, {"time": 1235, "pitch": 73, "duration": 4, "velocity": 112}, {"time": 1241, "pitch": 74, "duration": 5, "velocity": 107}, {"time": 1247, "pitch": 76, "duration": 6, "velocity": 102}, {"time": 1253, "pitch": 69, "duration": 6, "velocity": 102}, {"time": 1259, "pitch": 69, "duration": 4, "velocity": 99}, {"time": 1265, "pitch": 69, "duration": 4, "velocity": 99}, {"time": 1271, "pitch": 69, "duration": 5, "velocity": 99}, {"time": 1277, "pitch": 71, "duration": 3, "velocity": 102}, {"time": 1283, "pitch": 71, "duration": 4, "velocity": 112}, {"time": 1289, "pitch": 73, "duration": 4, "velocity": 117}, {"time": 1295, "pitch": 73, "duration": 16, "velocity": 122}, {"time": 1331, "pitch": 73, "duration": 5, "velocity": 107}, {"time": 1337, "pitch": 76, "duration": 4, "velocity": 93}, {"time": 1343, "pitch": 80, "duration": 5, "velocity": 99}, {"time": 1349, "pitch": 78, "duration": 5, "velocity": 117}, {"time": 1355, "pitch": 80, "duration": 4, "velocity": 127}, {"time": 1361, "pitch": 80, "duration": 5, "velocity": 117}, {"time": 1367, "pitch": 78, "duration": 6, "velocity": 117}, {"time": 1373, "pitch": 78, "duration": 5, "velocity": 127}, {"time": 1379, "pitch": 80, "duration": 4, "velocity": 112}, {"time": 1385, "pitch": 80, "duration": 4, "velocity": 117}, {"time": 1391, "pitch": 78, "duration": 4, "velocity": 127}, {"time": 1397, "pitch": 78, "duration": 4, "velocity": 117}, {"time": 1403, "pitch": 78, "duration": 4, "velocity": 122}, {"time": 1409, "pitch": 78, "duration": 4, "velocity": 122}, {"time": 1415, "pitch": 76, "duration": 9, "velocity": 100}, {"time": 1427, "pitch": 76, "duration": 3, "velocity": 95}, {"time": 1433, "pitch": 76, "duration": 4, "velocity": 96}, {"time": 1439, "pitch": 73, "duration": 4, "velocity": 99}, {"time": 1445, "pitch": 76, "duration": 4, "velocity": 95}, {"time": 1451, "pitch": 76, "duration": 4, "velocity": 122}, {"time": 1457, "pitch": 76, "duration": 3, "velocity": 95}, {"time": 1463, "pitch": 73, "duration": 4, "velocity": 127}, {"time": 1469, "pitch": 76, "duration": 4, "velocity": 97}, {"time": 1475, "pitch": 76, "duration": 4, "velocity": 112}, {"time": 1481, "pitch": 76, "duration": 4, "velocity": 107}, {"time": 1487, "pitch": 73, "duration": 4, "velocity": 127}, {"time": 1493, "pitch": 73, "duration": 5, "velocity": 122}, {"time": 1499, "pitch": 71, "duration": 4, "velocity": 99}, {"time": 1505, "pitch": 69, "duration": 4, "velocity": 100}, {"time": 1511, "pitch": 71, "duration": 12, "velocity": 112}, {"time": 1529, "pitch": 66, "duration": 4, "velocity": 117}, {"time": 1535, "pitch": 68, "duration": 4, "velocity": 102}, {"time": 1541, "pitch": 69, "duration": 4, "velocity": 112}, {"time": 1547, "pitch": 69, "duration": 4, "velocity": 100}, {"time": 1553, "pitch": 69, "duration": 4, "velocity": 112}, {"time": 1559, "pitch": 69, "duration": 4, "velocity": 102}, {"time": 1565, "pitch": 71, "duration": 3, "velocity": 100}, {"time": 1571, "pitch": 71, "duration": 4, "velocity": 107}, {"time": 1577, "pitch": 73, "duration": 3, "velocity": 127}, {"time": 1583, "pitch": 73, "duration": 6, "velocity": 127}, {"time": 1613, "pitch": 71, "duration": 4, "velocity": 100}, {"time": 1619, "pitch": 73, "duration": 4, "velocity": 112}, {"time": 1625, "pitch": 74, "duration": 4, "velocity": 97}, {"time": 1631, "pitch": 76, "duration": 4, "velocity": 112}, {"time": 1637, "pitch": 69, "duration": 4, "velocity": 95}, {"time": 1643, "pitch": 69, "duration": 3, "velocity": 107}, {"time": 1649, "pitch": 69, "duration": 3, "velocity": 100}, {"time": 1655, "pitch": 69, "duration": 4, "velocity": 107}, {"time": 1661, "pitch": 71, "duration": 3, "velocity": 117}, {"time": 1667, "pitch": 71, "duration": 3, "velocity": 112}, {"time": 1673, "pitch": 73, "duration": 4, "velocity": 112}, {"time": 1679, "pitch": 73, "duration": 24, "velocity": 127}, {"time": 1715, "pitch": 73, "duration": 5, "velocity": 112}, {"time": 1721, "pitch": 76, "duration": 3, "velocity": 96}, {"time": 1727, "pitch": 80, "duration": 4, "velocity": 107}, {"time": 1733, "pitch": 78, "duration": 5, "velocity": 127}, {"time": 1739, "pitch": 80, "duration": 3, "velocity": 117}, {"time": 1745, "pitch": 80, "duration": 4, "velocity": 122}, {"time": 1751, "pitch": 78, "duration": 3, "velocity": 127}, {"time": 1757, "pitch": 78, "duration": 4, "velocity": 127}, {"time": 1763, "pitch": 80, "duration": 3, "velocity": 127}, {"time": 1769, "pitch": 80, "duration": 3, "velocity": 122}, {"time": 1775, "pitch": 78, "duration": 3, "velocity": 122}, {"time": 1781, "pitch": 78, "duration": 5, "velocity": 127}, {"time": 1787, "pitch": 78, "duration": 4, "velocity": 127}, {"time": 1793, "pitch": 78, "duration": 4, "velocity": 112}, {"time": 1799, "pitch": 76, "duration": 7, "velocity": 102}, {"time": 1811, "pitch": 76, "duration": 4, "velocity": 95}, {"time": 1817, "pitch": 76, "duration": 4, "velocity": 102}, {"time": 1823, "pitch": 73, "duration": 4, "velocity": 100}, {"time": 1829, "pitch": 76, "duration": 4, "velocity": 100}, {"time": 1835, "pitch": 76, "duration": 3, "velocity": 112}, {"time": 1841, "pitch": 76, "duration": 3, "velocity": 102}, {"time": 1847, "pitch": 73, "duration": 4, "velocity": 112}, {"time": 1853, "pitch": 76, "duration": 4, "velocity": 107}, {"time": 1859, "pitch": 76, "duration": 3, "velocity": 117}, {"time": 1865, "pitch": 76, "duration": 4, "velocity": 117}, {"time": 1871, "pitch": 73, "duration": 5, "velocity": 112}, {"time": 1877, "pitch": 73, "duration": 4, "velocity": 127}, {"time": 1883, "pitch": 71, "duration": 4, "velocity": 97}, {"time": 1889, "pitch": 69, "duration": 5, "velocity": 99}, {"time": 1895, "pitch": 71, "duration": 8, "velocity": 127}, {"time": 1907, "pitch": 73, "duration": 6, "velocity": 112}, {"time": 1913, "pitch": 71, "duration": 6, "velocity": 99}, {"time": 1919, "pitch": 69, "duration": 32, "velocity": 96}, {"time": 2309, "pitch": 73, "duration": 5, "velocity": 112}, {"time": 2315, "pitch": 71, "duration": 3, "velocity": 107}, {"time": 2321, "pitch": 69, "duration": 4, "velocity": 95}, {"time": 2327, "pitch": 76, "duration": 6, "velocity": 96}, {"time": 2333, "pitch": 73, "duration": 5, "velocity": 117}, {"time": 2339, "pitch": 71, "duration": 6, "velocity": 117}, {"time": 2345, "pitch": 69, "duration": 4, "velocity": 95}, {"time": 2351, "pitch": 69, "duration": 3, "velocity": 99}, {"time": 2357, "pitch": 69, "duration": 7, "velocity": 107}, {"time": 2387, "pitch": 69, "duration": 8, "velocity": 102}, {"time": 2405, "pitch": 73, "duration": 5, "velocity": 127}, {"time": 2411, "pitch": 71, "duration": 4, "velocity": 100}, {"time": 2417, "pitch": 69, "duration": 3, "velocity": 99}, {"time": 2423, "pitch": 76, "duration": 7, "velocity": 112}, {"time": 2429, "pitch": 73, "duration": 6, "velocity": 127}, {"time": 2435, "pitch": 71, "duration": 4, "velocity": 107}, {"time": 2441, "pitch": 69, "duration": 4, "velocity": 99}, {"time": 2447, "pitch": 69, "duration": 4, "velocity": 97}, {"time": 2453, "pitch": 69, "duration": 5, "velocity": 107}, {"time": 2498, "pitch": 64, "duration": 2, "velocity": 92}, {"time": 2501, "pitch": 73, "duration": 5, "velocity": 102}, {"time": 2507, "pitch": 71, "duration": 5, "velocity": 107}, {"time": 2513, "pitch": 69, "duration": 4, "velocity": 89}, {"time": 2519, "pitch": 76, "duration": 5, "velocity": 122}, {"time": 2525, "pitch": 73, "duration": 4, "velocity": 107}, {"time": 2531, "pitch": 71, "duration": 5, "velocity": 95}, {"time": 2537, "pitch": 69, "duration": 4, "velocity": 99}, {"time": 2543, "pitch": 78, "duration": 6, "velocity": 112}, {"time": 2546, "pitch": 78, "duration": 3, "velocity": 127}, {"time": 2555, "pitch": 76, "duration": 2, "velocity": 97}, {"time": 2558, "pitch": 76, "duration": 6, "velocity": 97}, {"time": 2567, "pitch": 78, "duration": 2, "velocity": 112}, {"time": 2570, "pitch": 76, "duration": 6, "velocity": 117}, {"time": 2576, "pitch": 73, "duration": 9, "velocity": 122}, {"time": 2588, "pitch": 64, "duration": 3, "velocity": 93}, {"time": 2591, "pitch": 73, "duration": 3, "velocity": 107}, {"time": 2594, "pitch": 76, "duration": 4, "velocity": 93}, {"time": 2597, "pitch": 78, "duration": 4, "velocity": 117}, {"time": 2603, "pitch": 78, "duration": 5, "velocity": 122}, {"time": 2609, "pitch": 78, "duration": 4, "velocity": 112}, {"time": 2615, "pitch": 76, "duration": 1, "velocity": 97}, {"time": 2618, "pitch": 76, "duration": 8, "velocity": 107}, {"time": 2627, "pitch": 73, "duration": 1, "velocity": 112}, {"time": 2630, "pitch": 73, "duration": 6, "velocity": 112}, {"time": 2639, "pitch": 76, "duration": 1, "velocity": 99}, {"time": 2642, "pitch": 76, "duration": 13, "velocity": 117}, {"time": 2651, "pitch": 81, "duration": 1, "velocity": 100}, {"time": 2654, "pitch": 81, "duration": 8, "velocity": 107}, {"time": 2660, "pitch": 78, "duration": 11, "velocity": 112}, {"time": 2672, "pitch": 76, "duration": 12, "velocity": 112}, {"time": 2687, "pitch": 66, "duration": 2, "velocity": 117}, {"time": 2690, "pitch": 68, "duration": 2, "velocity": 102}, {"time": 2693, "pitch": 69, "duration": 4, "velocity": 100}, {"time": 2699, "pitch": 69, "duration": 4, "velocity": 117}, {"time": 2705, "pitch": 69, "duration": 4, "velocity": 117}, {"time": 2711, "pitch": 69, "duration": 3, "velocity": 122}, {"time": 2717, "pitch": 71, "duration": 4, "velocity": 112}, {"time": 2723, "pitch": 71, "duration": 6, "velocity": 93}, {"time": 2729, "pitch": 73, "duration": 4, "velocity": 127}, {"time": 2735, "pitch": 73, "duration": 4, "velocity": 127}, {"time": 2765, "pitch": 71, "duration": 5, "velocity": 117}, {"time": 2771, "pitch": 73, "duration": 4, "velocity": 112}, {"time": 2777, "pitch": 74, "duration": 5, "velocity": 107}, {"time": 2783, "pitch": 76, "duration": 6, "velocity": 102}, {"time": 2789, "pitch": 69, "duration": 6, "velocity": 102}, {"time": 2795, "pitch": 69, "duration": 4, "velocity": 99}, {"time": 2801, "pitch": 69, "duration": 4, "velocity": 99}, {"time": 2807, "pitch": 69, "duration": 5, "velocity": 99}, {"time": 2813, "pitch": 71, "duration": 3, "velocity": 102}, {"time": 2819, "pitch": 71, "duration": 4, "velocity": 112}, {"time": 2825, "pitch": 73, "duration": 4, "velocity": 117}, {"time": 2831, "pitch": 73, "duration": 16, "velocity": 122}, {"time": 2867, "pitch": 73, "duration": 5, "velocity": 107}, {"time": 2873, "pitch": 76, "duration": 4, "velocity": 93}, {"time": 2879, "pitch": 80, "duration": 5, "velocity": 99}, {"time": 2885, "pitch": 78, "duration": 5, "velocity": 117}, {"time": 2891, "pitch": 80, "duration": 4, "velocity": 127}, {"time": 2897, "pitch": 80, "duration": 5, "velocity": 117}, {"time": 2903, "pitch": 78, "duration": 6, "velocity": 117}, {"time": 2909, "pitch": 78, "duration": 5, "velocity": 127}, {"time": 2915, "pitch": 80, "duration": 4, "velocity": 112}, {"time": 2921, "pitch": 80, "duration": 4, "velocity": 117}, {"time": 2927, "pitch": 78, "duration": 4, "velocity": 127}, {"time": 2933, "pitch": 78, "duration": 4, "velocity": 117}, {"time": 2939, "pitch": 78, "duration": 4, "velocity": 122}, {"time": 2945, "pitch": 78, "duration": 4, "velocity": 122}, {"time": 2951, "pitch": 76, "duration": 9, "velocity": 100}, {"time": 2963, "pitch": 76, "duration": 3, "velocity": 95}, {"time": 2969, "pitch": 76, "duration": 4, "velocity": 96}, {"time": 2975, "pitch": 73, "duration": 4, "velocity": 99}, {"time": 2981, "pitch": 76, "duration": 4, "velocity": 95}, {"time": 2987, "pitch": 76, "duration": 4, "velocity": 122}, {"time": 2993, "pitch": 76, "duration": 3, "velocity": 95}, {"time": 2999, "pitch": 73, "duration": 4, "velocity": 127}, {"time": 3005, "pitch": 76, "duration": 4, "velocity": 97}, {"time": 3011, "pitch": 76, "duration": 4, "velocity": 112}, {"time": 3017, "pitch": 76, "duration": 4, "velocity": 107}, {"time": 3023, "pitch": 73, "duration": 4, "velocity": 127}, {"time": 3029, "pitch": 73, "duration": 5, "velocity": 122}, {"time": 3035, "pitch": 71, "duration": 4, "velocity": 99}, {"time": 3041, "pitch": 69, "duration": 4, "velocity": 100}, {"time": 3047, "pitch": 71, "duration": 12, "velocity": 112}, {"time": 3065, "pitch": 66, "duration": 4, "velocity": 117}, {"time": 3071, "pitch": 68, "duration": 4, "velocity": 102}, {"time": 3077, "pitch": 69, "duration": 4, "velocity": 112}, {"time": 3083, "pitch": 69, "duration": 4, "velocity": 100}, {"time": 3089, "pitch": 69, "duration": 4, "velocity": 112}, {"time": 3095, "pitch": 69, "duration": 4, "velocity": 102}, {"time": 3101, "pitch": 71, "duration": 3, "velocity": 100}, {"time": 3107, "pitch": 71, "duration": 4, "velocity": 107}, {"time": 3113, "pitch": 73, "duration": 3, "velocity": 127}, {"time": 3119, "pitch": 73, "duration": 6, "velocity": 127}, {"time": 3149, "pitch": 71, "duration": 4, "velocity": 100}, {"time": 3155, "pitch": 73, "duration": 4, "velocity": 112}, {"time": 3161, "pitch": 74, "duration": 4, "velocity": 97}, {"time": 3167, "pitch": 76, "duration": 4, "velocity": 112}, {"time": 3173, "pitch": 69, "duration": 4, "velocity": 95}, {"time": 3179, "pitch": 69, "duration": 3, "velocity": 107}, {"time": 3185, "pitch": 69, "duration": 3, "velocity": 100}, {"time": 3191, "pitch": 69, "duration": 4, "velocity": 107}, {"time": 3197, "pitch": 71, "duration": 3, "velocity": 117}, {"time": 3203, "pitch": 71, "duration": 3, "velocity": 112}, {"time": 3209, "pitch": 73, "duration": 4, "velocity": 112}, {"time": 3215, "pitch": 73, "duration": 24, "velocity": 127}, {"time": 3251, "pitch": 73, "duration": 5, "velocity": 112}, {"time": 3257, "pitch": 76, "duration": 3, "velocity": 96}, {"time": 3263, "pitch": 80, "duration": 4, "velocity": 107}, {"time": 3269, "pitch": 78, "duration": 5, "velocity": 127}, {"time": 3275, "pitch": 80, "duration": 3, "velocity": 117}, {"time": 3281, "pitch": 80, "duration": 4, "velocity": 122}, {"time": 3287, "pitch": 78, "duration": 3, "velocity": 127}, {"time": 3293, "pitch": 78, "duration": 4, "velocity": 127}, {"time": 3299, "pitch": 80, "duration": 3, "velocity": 127}, {"time": 3305, "pitch": 80, "duration": 3, "velocity": 122}, {"time": 3311, "pitch": 78, "duration": 3, "velocity": 122}, {"time": 3317, "pitch": 78, "duration": 5, "velocity": 127}, {"time": 3323, "pitch": 78, "duration": 4, "velocity": 127}, {"time": 3329, "pitch": 78, "duration": 4, "velocity": 112}, {"time": 3335, "pitch": 76, "duration": 7, "velocity": 102}, {"time": 3347, "pitch": 76, "duration": 4, "velocity": 95}, {"time": 3353, "pitch": 76, "duration": 4, "velocity": 102}, {"time": 3359, "pitch": 73, "duration": 4, "velocity": 100}, {"time": 3365, "pitch": 76, "duration": 4, "velocity": 100}, {"time": 3371, "pitch": 76, "duration": 3, "velocity": 112}, {"time": 3377, "pitch": 76, "duration": 3, "velocity": 102}, {"time": 3383, "pitch": 73, "duration": 4, "velocity": 112}, {"time": 3389, "pitch": 76, "duration": 4, "velocity": 107}, {"time": 3395, "pitch": 76, "duration": 3, "velocity": 117}, {"time": 3401, "pitch": 76, "duration": 4, "velocity": 117}, {"time": 3407, "pitch": 73, "duration": 5, "velocity": 112}, {"time": 3413, "pitch": 73, "duration": 4, "velocity": 127}, {"time": 3419, "pitch": 71, "duration": 4, "velocity": 97}, {"time": 3425, "pitch": 69, "duration": 5, "velocity": 99}, {"time": 3431, "pitch": 71, "duration": 8, "velocity": 127}, {"time": 3456, "pitch": 69, "duration": 1, "velocity": 112}, {"time": 3459, "pitch": 69, "duration": 42, "velocity": 102}, {"time": 3515, "pitch": 71, "duration": 3, "velocity": 112}, {"time": 3518, "pitch": 69, "duration": 4, "velocity": 78}, {"time": 3521, "pitch": 73, "duration": 7, "velocity": 117}, {"time": 3528, "pitch": 71, "duration": 22, "velocity": 107}]}, {"program": 0, "is_drum": false, "name": "PIANO", "notes": [{"time": 17, "pitch": 45, "duration": 29, "velocity": 60}, {"time": 17, "pitch": 52, "duration": 32, "velocity": 54}, {"time": 17, "pitch": 57, "duration": 29, "velocity": 62}, {"time": 17, "pitch": 61, "duration": 29, "velocity": 59}, {"time": 17, "pitch": 71, "duration": 14, "velocity": 100}, {"time": 29, "pitch": 64, "duration": 6, "velocity": 92}, {"time": 35, "pitch": 73, "duration": 5, "velocity": 100}, {"time": 41, "pitch": 64, "duration": 6, "velocity": 92}, {"time": 47, "pitch": 71, "duration": 12, "velocity": 100}, {"time": 53, "pitch": 40, "duration": 38, "velocity": 66}, {"time": 53, "pitch": 52, "duration": 39, "velocity": 57}, {"time": 53, "pitch": 56, "duration": 39, "velocity": 65}, {"time": 53, "pitch": 59, "duration": 39, "velocity": 63}, {"time": 59, "pitch": 64, "duration": 6, "velocity": 99}, {"time": 65, "pitch": 68, "duration": 16, "velocity": 117}, {"time": 77, "pitch": 64, "duration": 6, "velocity": 102}, {"time": 83, "pitch": 71, "duration": 6, "velocity": 96}, {"time": 89, "pitch": 64, "duration": 6, "velocity": 90}, {"time": 95, "pitch": 68, "duration": 4, "velocity": 92}, {"time": 98, "pitch": 69, "duration": 10, "velocity": 93}, {"time": 101, "pitch": 38, "duration": 34, "velocity": 63}, {"time": 101, "pitch": 50, "duration": 32, "velocity": 62}, {"time": 101, "pitch": 57, "duration": 33, "velocity": 86}, {"time": 101, "pitch": 62, "duration": 7, "velocity": 74}, {"time": 101, "pitch": 62, "duration": 7, "velocity": 107}, {"time": 101, "pitch": 66, "duration": 32, "velocity": 76}, {"time": 107, "pitch": 64, "duration": 5, "velocity": 107}, {"time": 113, "pitch": 73, "duration": 18, "velocity": 99}, {"time": 131, "pitch": 64, "duration": 6, "velocity": 99}, {"time": 137, "pitch": 73, "duration": 6, "velocity": 117}, {"time": 143, "pitch": 74, "duration": 6, "velocity": 97}, {"time": 149, "pitch": 40, "duration": 37, "velocity": 72}, {"time": 149, "pitch": 52, "duration": 44, "velocity": 79}, {"time": 149, "pitch": 56, "duration": 43, "velocity": 71}, {"time": 149, "pitch": 59, "duration": 43, "velocity": 74}, {"time": 149, "pitch": 71, "duration": 11, "velocity": 112}, {"time": 155, "pitch": 64, "duration": 6, "velocity": 99}, {"time": 161, "pitch": 71, "duration": 5, "velocity": 97}, {"time": 167, "pitch": 64, "duration": 6, "velocity": 96}, {"time": 173, "pitch": 68, "duration": 8, "velocity": 102}, {"time": 179, "pitch": 64, "duration": 6, "velocity": 100}, {"time": 185, "pitch": 69, "duration": 9, "velocity": 102}, {"time": 197, "pitch": 33, "duration": 38, "velocity": 89}, {"time": 197, "pitch": 69, "duration": 5, "velocity": 107}, {"time": 203, "pitch": 45, "duration": 9, "velocity": 45}, {"time": 203, "pitch": 64, "duration": 5, "velocity": 96}, {"time": 209, "pitch": 57, "duration": 13, "velocity": 96}, {"time": 209, "pitch": 61, "duration": 9, "velocity": 102}, {"time": 209, "pitch": 71, "duration": 5, "velocity": 107}, {"time": 215, "pitch": 45, "duration": 8, "velocity": 58}, {"time": 215, "pitch": 64, "duration": 6, "velocity": 96}, {"time": 221, "pitch": 52, "duration": 18, "velocity": 93}, {"time": 221, "pitch": 69, "duration": 5, "velocity": 99}, {"time": 227, "pitch": 57, "duration": 6, "velocity": 88}, {"time": 227, "pitch": 71, "duration": 5, "velocity": 95}, {"time": 233, "pitch": 61, "duration": 13, "velocity": 127}, {"time": 233, "pitch": 64, "duration": 6, "velocity": 90}, {"time": 239, "pitch": 57, "duration": 7, "velocity": 71}, {"time": 239, "pitch": 71, "duration": 9, "velocity": 100}, {"time": 245, "pitch": 40, "duration": 41, "velocity": 95}, {"time": 251, "pitch": 47, "duration": 9, "velocity": 63}, {"time": 251, "pitch": 68, "duration": 6, "velocity": 107}, {"time": 257, "pitch": 52, "duration": 13, "velocity": 86}, {"time": 257, "pitch": 64, "duration": 7, "velocity": 93}, {"time": 263, "pitch": 47, "duration": 8, "velocity": 58}, {"time": 263, "pitch": 68, "duration": 11, "velocity": 107}, {"time": 269, "pitch": 56, "duration": 11, "velocity": 70}, {"time": 269, "pitch": 59, "duration": 10, "velocity": 69}, {"time": 275, "pitch": 47, "duration": 9, "velocity": 59}, {"time": 275, "pitch": 68, "duration": 6, "velocity": 95}, {"time": 281, "pitch": 59, "duration": 12, "velocity": 83}, {"time": 281, "pitch": 69, "duration": 7, "velocity": 95}, {"time": 287, "pitch": 56, "duration": 6, "velocity": 79}, {"time": 287, "pitch": 71, "duration": 5, "velocity": 96}, {"time": 293, "pitch": 38, "duration": 22, "velocity": 88}, {"time": 299, "pitch": 50, "duration": 14, "velocity": 71}, {"time": 299, "pitch": 64, "duration": 7, "velocity": 92}, {"time": 305, "pitch": 62, "duration": 22, "velocity": 95}, {"time": 305, "pitch": 66, "duration": 22, "velocity": 99}, {"time": 305, "pitch": 68, "duration": 6, "velocity": 97}, {"time": 311, "pitch": 57, "duration": 16, "velocity": 78}, {"time": 311, "pitch": 64, "duration": 7, "velocity": 90}, {"time": 317, "pitch": 38, "duration": 16, "velocity": 69}, {"time": 317, "pitch": 69, "duration": 4, "velocity": 96}, {"time": 323, "pitch": 73, "duration": 5, "velocity": 96}, {"time": 329, "pitch": 62, "duration": 12, "velocity": 89}, {"time": 329, "pitch": 64, "duration": 7, "velocity": 90}, {"time": 329, "pitch": 66, "duration": 12, "velocity": 97}, {"time": 335, "pitch": 57, "duration": 6, "velocity": 53}, {"time": 335, "pitch": 71, "duration": 9, "velocity": 95}, {"time": 341, "pitch": 40, "duration": 38, "velocity": 85}, {"time": 347, "pitch": 47, "duration": 21, "velocity": 55}, {"time": 347, "pitch": 66, "duration": 5, "velocity": 97}, {"time": 353, "pitch": 59, "duration": 7, "velocity": 83}, {"time": 353, "pitch": 64, "duration": 5, "velocity": 93}, {"time": 353, "pitch": 69, "duration": 5, "velocity": 93}, {"time": 359, "pitch": 52, "duration": 8, "velocity": 90}, {"time": 359, "pitch": 66, "duration": 6, "velocity": 107}, {"time": 365, "pitch": 56, "duration": 12, "velocity": 92}, {"time": 365, "pitch": 68, "duration": 13, "velocity": 99}, {"time": 371, "pitch": 47, "duration": 7, "velocity": 68}, {"time": 371, "pitch": 64, "duration": 6, "velocity": 86}, {"time": 377, "pitch": 59, "duration": 13, "velocity": 96}, {"time": 377, "pitch": 71, "duration": 13, "velocity": 96}, {"time": 383, "pitch": 56, "duration": 6, "velocity": 79}, {"time": 389, "pitch": 33, "duration": 39, "velocity": 77}, {"time": 395, "pitch": 45, "duration": 9, "velocity": 63}, {"time": 401, "pitch": 61, "duration": 15, "velocity": 95}, {"time": 407, "pitch": 45, "duration": 11, "velocity": 63}, {"time": 413, "pitch": 57, "duration": 7, "velocity": 75}, {"time": 419, "pitch": 45, "duration": 8, "velocity": 57}, {"time": 425, "pitch": 57, "duration": 14, "velocity": 78}, {"time": 425, "pitch": 61, "duration": 14, "velocity": 97}, {"time": 431, "pitch": 52, "duration": 9, "velocity": 66}, {"time": 437, "pitch": 40, "duration": 14, "velocity": 83}, {"time": 443, "pitch": 47, "duration": 10, "velocity": 56}, {"time": 449, "pitch": 56, "duration": 19, "velocity": 95}, {"time": 449, "pitch": 59, "duration": 19, "velocity": 82}, {"time": 455, "pitch": 40, "duration": 5, "velocity": 79}, {"time": 461, "pitch": 40, "duration": 16, "velocity": 88}, {"time": 467, "pitch": 52, "duration": 7, "velocity": 66}, {"time": 473, "pitch": 56, "duration": 12, "velocity": 81}, {"time": 473, "pitch": 59, "duration": 12, "velocity": 88}, {"time": 479, "pitch": 52, "duration": 5, "velocity": 67}, {"time": 485, "pitch": 42, "duration": 16, "velocity": 99}, {"time": 491, "pitch": 54, "duration": 13, "velocity": 55}, {"time": 497, "pitch": 57, "duration": 26, "velocity": 56}, {"time": 497, "pitch": 61, "duration": 20, "velocity": 99}, {"time": 497, "pitch": 66, "duration": 20, "velocity": 99}, {"time": 503, "pitch": 42, "duration": 3, "velocity": 73}, {"time": 509, "pitch": 42, "duration": 18, "velocity": 82}, {"time": 515, "pitch": 54, "duration": 7, "velocity": 63}, {"time": 521, "pitch": 66, "duration": 11, "velocity": 89}, {"time": 527, "pitch": 61, "duration": 6, "velocity": 90}, {"time": 533, "pitch": 38, "duration": 16, "velocity": 83}, {"time": 539, "pitch": 50, "duration": 18, "velocity": 74}, {"time": 545, "pitch": 57, "duration": 11, "velocity": 92}, {"time": 551, "pitch": 38, "duration": 6, "velocity": 89}, {"time": 557, "pitch": 40, "duration": 15, "velocity": 107}, {"time": 563, "pitch": 52, "duration": 13, "velocity": 88}, {"time": 569, "pitch": 59, "duration": 12, "velocity": 112}, {"time": 575, "pitch": 56, "duration": 6, "velocity": 86}, {"time": 581, "pitch": 45, "duration": 15, "velocity": 89}, {"time": 587, "pitch": 52, "duration": 11, "velocity": 62}, {"time": 593, "pitch": 64, "duration": 13, "velocity": 100}, {"time": 599, "pitch": 45, "duration": 5, "velocity": 77}, {"time": 605, "pitch": 45, "duration": 15, "velocity": 97}, {"time": 611, "pitch": 52, "duration": 18, "velocity": 79}, {"time": 617, "pitch": 61, "duration": 13, "velocity": 117}, {"time": 623, "pitch": 57, "duration": 8, "velocity": 85}, {"time": 629, "pitch": 40, "duration": 16, "velocity": 88}, {"time": 635, "pitch": 47, "duration": 12, "velocity": 69}, {"time": 641, "pitch": 59, "duration": 19, "velocity": 97}, {"time": 647, "pitch": 40, "duration": 5, "velocity": 83}, {"time": 653, "pitch": 40, "duration": 16, "velocity": 90}, {"time": 659, "pitch": 52, "duration": 15, "velocity": 81}, {"time": 665, "pitch": 59, "duration": 13, "velocity": 100}, {"time": 671, "pitch": 56, "duration": 7, "velocity": 85}, {"time": 677, "pitch": 42, "duration": 23, "velocity": 93}, {"time": 683, "pitch": 54, "duration": 7, "velocity": 68}, {"time": 689, "pitch": 61, "duration": 16, "velocity": 112}, {"time": 695, "pitch": 57, "duration": 11, "velocity": 63}, {"time": 701, "pitch": 42, "duration": 14, "velocity": 72}, {"time": 707, "pitch": 54, "duration": 18, "velocity": 79}, {"time": 713, "pitch": 61, "duration": 11, "velocity": 100}, {"time": 719, "pitch": 57, "duration": 5, "velocity": 67}, {"time": 725, "pitch": 38, "duration": 17, "velocity": 90}, {"time": 731, "pitch": 50, "duration": 15, "velocity": 72}, {"time": 737, "pitch": 57, "duration": 9, "velocity": 99}, {"time": 743, "pitch": 54, "duration": 4, "velocity": 93}, {"time": 749, "pitch": 40, "duration": 12, "velocity": 97}, {"time": 749, "pitch": 52, "duration": 12, "velocity": 97}, {"time": 761, "pitch": 41, "duration": 8, "velocity": 81}, {"time": 761, "pitch": 53, "duration": 12, "velocity": 96}, {"time": 767, "pitch": 42, "duration": 1, "velocity": 28}, {"time": 773, "pitch": 42, "duration": 23, "velocity": 96}, {"time": 779, "pitch": 54, "duration": 12, "velocity": 79}, {"time": 785, "pitch": 61, "duration": 11, "velocity": 107}, {"time": 791, "pitch": 57, "duration": 7, "velocity": 100}, {"time": 797, "pitch": 44, "duration": 19, "velocity": 97}, {"time": 803, "pitch": 52, "duration": 22, "velocity": 90}, {"time": 809, "pitch": 59, "duration": 13, "velocity": 99}, {"time": 815, "pitch": 56, "duration": 6, "velocity": 96}, {"time": 821, "pitch": 45, "duration": 22, "velocity": 96}, {"time": 827, "pitch": 52, "duration": 6, "velocity": 79}, {"time": 833, "pitch": 57, "duration": 17, "velocity": 83}, {"time": 833, "pitch": 61, "duration": 17, "velocity": 112}, {"time": 839, "pitch": 52, "duration": 10, "velocity": 75}, {"time": 845, "pitch": 45, "duration": 18, "velocity": 81}, {"time": 851, "pitch": 52, "duration": 13, "velocity": 73}, {"time": 857, "pitch": 61, "duration": 13, "velocity": 117}, {"time": 863, "pitch": 57, "duration": 7, "velocity": 79}, {"time": 869, "pitch": 42, "duration": 17, "velocity": 92}, {"time": 875, "pitch": 54, "duration": 12, "velocity": 96}, {"time": 881, "pitch": 61, "duration": 6, "velocity": 112}, {"time": 887, "pitch": 42, "duration": 6, "velocity": 95}, {"time": 893, "pitch": 44, "duration": 15, "velocity": 100}, {"time": 899, "pitch": 52, "duration": 22, "velocity": 74}, {"time": 905, "pitch": 59, "duration": 12, "velocity": 97}, {"time": 911, "pitch": 56, "duration": 6, "velocity": 112}, {"time": 917, "pitch": 45, "duration": 22, "velocity": 99}, {"time": 923, "pitch": 52, "duration": 22, "velocity": 83}, {"time": 929, "pitch": 61, "duration": 17, "velocity": 112}, {"time": 935, "pitch": 57, "duration": 11, "velocity": 73}, {"time": 941, "pitch": 45, "duration": 16, "velocity": 93}, {"time": 947, "pitch": 52, "duration": 7, "velocity": 64}, {"time": 953, "pitch": 57, "duration": 12, "velocity": 83}, {"time": 953, "pitch": 61, "duration": 13, "velocity": 97}, {"time": 959, "pitch": 52, "duration": 6, "velocity": 73}, {"time": 965, "pitch": 42, "duration": 21, "velocity": 81}, {"time": 971, "pitch": 54, "duration": 8, "velocity": 75}, {"time": 977, "pitch": 61, "duration": 7, "velocity": 122}, {"time": 983, "pitch": 57, "duration": 5, "velocity": 102}, {"time": 989, "pitch": 44, "duration": 19, "velocity": 117}, {"time": 995, "pitch": 52, "duration": 7, "velocity": 81}, {"time": 1001, "pitch": 56, "duration": 10, "velocity": 89}, {"time": 1001, "pitch": 59, "duration": 9, "velocity": 95}, {"time": 1007, "pitch": 52, "duration": 10, "velocity": 82}, {"time": 1013, "pitch": 45, "duration": 24, "velocity": 100}, {"time": 1019, "pitch": 52, "duration": 7, "velocity": 90}, {"time": 1025, "pitch": 57, "duration": 10, "velocity": 86}, {"time": 1025, "pitch": 61, "duration": 11, "velocity": 102}, {"time": 1031, "pitch": 52, "duration": 6, "velocity": 85}, {"time": 1037, "pitch": 47, "duration": 11, "velocity": 99}, {"time": 1037, "pitch": 59, "duration": 12, "velocity": 100}, {"time": 1049, "pitch": 49, "duration": 11, "velocity": 102}, {"time": 1049, "pitch": 61, "duration": 12, "velocity": 112}, {"time": 1061, "pitch": 38, "duration": 21, "velocity": 97}, {"time": 1067, "pitch": 50, "duration": 9, "velocity": 85}, {"time": 1073, "pitch": 62, "duration": 17, "velocity": 83}, {"time": 1073, "pitch": 66, "duration": 17, "velocity": 96}, {"time": 1079, "pitch": 57, "duration": 11, "velocity": 82}, {"time": 1085, "pitch": 38, "duration": 17, "velocity": 77}, {"time": 1091, "pitch": 50, "duration": 7, "velocity": 96}, {"time": 1097, "pitch": 66, "duration": 10, "velocity": 122}, {"time": 1103, "pitch": 62, "duration": 5, "velocity": 86}, {"time": 1109, "pitch": 40, "duration": 23, "velocity": 89}, {"time": 1115, "pitch": 52, "duration": 18, "velocity": 89}, {"time": 1121, "pitch": 59, "duration": 13, "velocity": 99}, {"time": 1127, "pitch": 56, "duration": 7, "velocity": 127}, {"time": 1133, "pitch": 40, "duration": 14, "velocity": 97}, {"time": 1139, "pitch": 52, "duration": 6, "velocity": 85}, {"time": 1145, "pitch": 56, "duration": 10, "velocity": 95}, {"time": 1145, "pitch": 59, "duration": 10, "velocity": 88}, {"time": 1151, "pitch": 52, "duration": 4, "velocity": 76}, {"time": 1157, "pitch": 45, "duration": 22, "velocity": 89}, {"time": 1160, "pitch": 52, "duration": 5, "velocity": 75}, {"time": 1163, "pitch": 57, "duration": 7, "velocity": 89}, {"time": 1166, "pitch": 52, "duration": 3, "velocity": 68}, {"time": 1169, "pitch": 64, "duration": 17, "velocity": 97}, {"time": 1172, "pitch": 52, "duration": 9, "velocity": 82}, {"time": 1175, "pitch": 61, "duration": 11, "velocity": 112}, {"time": 1178, "pitch": 57, "duration": 8, "velocity": 95}, {"time": 1181, "pitch": 45, "duration": 18, "velocity": 92}, {"time": 1184, "pitch": 52, "duration": 4, "velocity": 86}, {"time": 1187, "pitch": 57, "duration": 6, "velocity": 96}, {"time": 1190, "pitch": 52, "duration": 3, "velocity": 69}, {"time": 1193, "pitch": 61, "duration": 6, "velocity": 100}, {"time": 1193, "pitch": 64, "duration": 12, "velocity": 97}, {"time": 1196, "pitch": 52, "duration": 2, "velocity": 82}, {"time": 1199, "pitch": 57, "duration": 6, "velocity": 99}, {"time": 1202, "pitch": 61, "duration": 5, "velocity": 112}, {"time": 1205, "pitch": 44, "duration": 24, "velocity": 90}, {"time": 1208, "pitch": 56, "duration": 4, "velocity": 78}, {"time": 1211, "pitch": 61, "duration": 5, "velocity": 102}, {"time": 1214, "pitch": 56, "duration": 3, "velocity": 81}, {"time": 1217, "pitch": 61, "duration": 6, "velocity": 70}, {"time": 1217, "pitch": 64, "duration": 17, "velocity": 92}, {"time": 1223, "pitch": 56, "duration": 10, "velocity": 92}, {"time": 1226, "pitch": 61, "duration": 8, "velocity": 102}, {"time": 1229, "pitch": 44, "duration": 17, "velocity": 34}, {"time": 1232, "pitch": 52, "duration": 4, "velocity": 72}, {"time": 1235, "pitch": 56, "duration": 7, "velocity": 89}, {"time": 1238, "pitch": 52, "duration": 4, "velocity": 72}, {"time": 1241, "pitch": 59, "duration": 6, "velocity": 86}, {"time": 1241, "pitch": 65, "duration": 6, "velocity": 86}, {"time": 1247, "pitch": 56, "duration": 5, "velocity": 93}, {"time": 1250, "pitch": 57, "duration": 8, "velocity": 100}, {"time": 1253, "pitch": 42, "duration": 22, "velocity": 86}, {"time": 1256, "pitch": 54, "duration": 4, "velocity": 99}, {"time": 1259, "pitch": 57, "duration": 7, "velocity": 95}, {"time": 1262, "pitch": 54, "duration": 4, "velocity": 89}, {"time": 1265, "pitch": 61, "duration": 6, "velocity": 72}, {"time": 1265, "pitch": 66, "duration": 18, "velocity": 100}, {"time": 1268, "pitch": 54, "duration": 10, "velocity": 90}, {"time": 1271, "pitch": 57, "duration": 10, "velocity": 86}, {"time": 1274, "pitch": 61, "duration": 9, "velocity": 99}, {"time": 1277, "pitch": 42, "duration": 17, "velocity": 72}, {"time": 1280, "pitch": 54, "duration": 4, "velocity": 90}, {"time": 1283, "pitch": 57, "duration": 7, "velocity": 76}, {"time": 1286, "pitch": 54, "duration": 3, "velocity": 85}, {"time": 1289, "pitch": 61, "duration": 7, "velocity": 58}, {"time": 1289, "pitch": 66, "duration": 14, "velocity": 95}, {"time": 1292, "pitch": 54, "duration": 2, "velocity": 92}, {"time": 1295, "pitch": 57, "duration": 9, "velocity": 95}, {"time": 1298, "pitch": 61, "duration": 8, "velocity": 93}, {"time": 1301, "pitch": 40, "duration": 22, "velocity": 83}, {"time": 1304, "pitch": 47, "duration": 22, "velocity": 65}, {"time": 1307, "pitch": 59, "duration": 7, "velocity": 75}, {"time": 1307, "pitch": 64, "duration": 2, "velocity": 72}, {"time": 1310, "pitch": 52, "duration": 4, "velocity": 82}, {"time": 1313, "pitch": 64, "duration": 7, "velocity": 86}, {"time": 1313, "pitch": 68, "duration": 10, "velocity": 99}, {"time": 1316, "pitch": 52, "duration": 3, "velocity": 85}, {"time": 1319, "pitch": 59, "duration": 11, "velocity": 100}, {"time": 1322, "pitch": 64, "duration": 9, "velocity": 81}, {"time": 1325, "pitch": 40, "duration": 18, "velocity": 92}, {"time": 1328, "pitch": 47, "duration": 15, "velocity": 63}, {"time": 1331, "pitch": 59, "duration": 7, "velocity": 93}, {"time": 1334, "pitch": 52, "duration": 4, "velocity": 88}, {"time": 1337, "pitch": 64, "duration": 6, "velocity": 88}, {"time": 1337, "pitch": 68, "duration": 12, "velocity": 102}, {"time": 1340, "pitch": 52, "duration": 2, "velocity": 77}, {"time": 1343, "pitch": 59, "duration": 7, "velocity": 95}, {"time": 1346, "pitch": 64, "duration": 3, "velocity": 86}, {"time": 1349, "pitch": 38, "duration": 22, "velocity": 92}, {"time": 1352, "pitch": 50, "duration": 5, "velocity": 95}, {"time": 1355, "pitch": 57, "duration": 7, "velocity": 82}, {"time": 1358, "pitch": 50, "duration": 4, "velocity": 89}, {"time": 1361, "pitch": 62, "duration": 6, "velocity": 79}, {"time": 1361, "pitch": 66, "duration": 17, "velocity": 100}, {"time": 1364, "pitch": 50, "duration": 4, "velocity": 83}, {"time": 1367, "pitch": 57, "duration": 10, "velocity": 93}, {"time": 1370, "pitch": 62, "duration": 7, "velocity": 90}, {"time": 1373, "pitch": 38, "duration": 20, "velocity": 76}, {"time": 1376, "pitch": 45, "duration": 17, "velocity": 60}, {"time": 1379, "pitch": 62, "duration": 5, "velocity": 76}, {"time": 1382, "pitch": 50, "duration": 4, "velocity": 90}, {"time": 1382, "pitch": 57, "duration": 2, "velocity": 30}, {"time": 1385, "pitch": 62, "duration": 6, "velocity": 89}, {"time": 1385, "pitch": 66, "duration": 14, "velocity": 107}, {"time": 1388, "pitch": 50, "duration": 4, "velocity": 90}, {"time": 1391, "pitch": 57, "duration": 8, "velocity": 89}, {"time": 1394, "pitch": 62, "duration": 3, "velocity": 73}, {"time": 1397, "pitch": 37, "duration": 18, "velocity": 99}, {"time": 1400, "pitch": 49, "duration": 4, "velocity": 83}, {"time": 1403, "pitch": 52, "duration": 5, "velocity": 95}, {"time": 1406, "pitch": 49, "duration": 3, "velocity": 89}, {"time": 1409, "pitch": 56, "duration": 6, "velocity": 96}, {"time": 1409, "pitch": 61, "duration": 12, "velocity": 100}, {"time": 1412, "pitch": 49, "duration": 7, "velocity": 93}, {"time": 1415, "pitch": 52, "duration": 5, "velocity": 89}, {"time": 1418, "pitch": 56, "duration": 3, "velocity": 117}, {"time": 1421, "pitch": 42, "duration": 17, "velocity": 99}, {"time": 1424, "pitch": 54, "duration": 4, "velocity": 99}, {"time": 1427, "pitch": 57, "duration": 6, "velocity": 97}, {"time": 1430, "pitch": 54, "duration": 4, "velocity": 86}, {"time": 1433, "pitch": 61, "duration": 7, "velocity": 86}, {"time": 1433, "pitch": 66, "duration": 14, "velocity": 112}, {"time": 1436, "pitch": 54, "duration": 3, "velocity": 92}, {"time": 1439, "pitch": 57, "duration": 6, "velocity": 99}, {"time": 1442, "pitch": 61, "duration": 3, "velocity": 112}, {"time": 1445, "pitch": 35, "duration": 22, "velocity": 82}, {"time": 1448, "pitch": 54, "duration": 5, "velocity": 93}, {"time": 1451, "pitch": 59, "duration": 5, "velocity": 92}, {"time": 1454, "pitch": 54, "duration": 4, "velocity": 81}, {"time": 1457, "pitch": 62, "duration": 6, "velocity": 69}, {"time": 1457, "pitch": 66, "duration": 16, "velocity": 112}, {"time": 1460, "pitch": 54, "duration": 9, "velocity": 90}, {"time": 1463, "pitch": 59, "duration": 10, "velocity": 86}, {"time": 1466, "pitch": 62, "duration": 9, "velocity": 79}, {"time": 1469, "pitch": 35, "duration": 17, "velocity": 86}, {"time": 1472, "pitch": 54, "duration": 4, "velocity": 100}, {"time": 1475, "pitch": 59, "duration": 7, "velocity": 88}, {"time": 1478, "pitch": 54, "duration": 3, "velocity": 97}, {"time": 1481, "pitch": 66, "duration": 12, "velocity": 107}, {"time": 1484, "pitch": 54, "duration": 2, "velocity": 97}, {"time": 1487, "pitch": 62, "duration": 6, "velocity": 96}, {"time": 1490, "pitch": 59, "duration": 4, "velocity": 85}, {"time": 1493, "pitch": 40, "duration": 22, "velocity": 82}, {"time": 1496, "pitch": 47, "duration": 4, "velocity": 95}, {"time": 1499, "pitch": 52, "duration": 6, "velocity": 75}, {"time": 1502, "pitch": 47, "duration": 4, "velocity": 77}, {"time": 1505, "pitch": 56, "duration": 6, "velocity": 59}, {"time": 1505, "pitch": 59, "duration": 13, "velocity": 85}, {"time": 1508, "pitch": 47, "duration": 9, "velocity": 76}, {"time": 1511, "pitch": 52, "duration": 6, "velocity": 85}, {"time": 1514, "pitch": 56, "duration": 4, "velocity": 76}, {"time": 1517, "pitch": 40, "duration": 23, "velocity": 85}, {"time": 1520, "pitch": 47, "duration": 20, "velocity": 90}, {"time": 1523, "pitch": 52, "duration": 6, "velocity": 93}, {"time": 1526, "pitch": 59, "duration": 4, "velocity": 97}, {"time": 1529, "pitch": 64, "duration": 6, "velocity": 78}, {"time": 1529, "pitch": 68, "duration": 14, "velocity": 127}, {"time": 1532, "pitch": 52, "duration": 2, "velocity": 93}, {"time": 1535, "pitch": 59, "duration": 7, "velocity": 100}, {"time": 1538, "pitch": 64, "duration": 5, "velocity": 102}, {"time": 1541, "pitch": 45, "duration": 22, "velocity": 89}, {"time": 1544, "pitch": 52, "duration": 5, "velocity": 75}, {"time": 1547, "pitch": 57, "duration": 8, "velocity": 89}, {"time": 1550, "pitch": 52, "duration": 4, "velocity": 68}, {"time": 1553, "pitch": 64, "duration": 18, "velocity": 97}, {"time": 1556, "pitch": 52, "duration": 9, "velocity": 82}, {"time": 1559, "pitch": 61, "duration": 11, "velocity": 112}, {"time": 1562, "pitch": 57, "duration": 8, "velocity": 95}, {"time": 1565, "pitch": 45, "duration": 19, "velocity": 92}, {"time": 1568, "pitch": 52, "duration": 5, "velocity": 86}, {"time": 1571, "pitch": 57, "duration": 6, "velocity": 96}, {"time": 1574, "pitch": 52, "duration": 4, "velocity": 69}, {"time": 1577, "pitch": 61, "duration": 7, "velocity": 100}, {"time": 1577, "pitch": 64, "duration": 12, "velocity": 97}, {"time": 1580, "pitch": 52, "duration": 3, "velocity": 82}, {"time": 1583, "pitch": 57, "duration": 6, "velocity": 99}, {"time": 1586, "pitch": 61, "duration": 5, "velocity": 112}, {"time": 1589, "pitch": 44, "duration": 21, "velocity": 90}, {"time": 1592, "pitch": 56, "duration": 4, "velocity": 78}, {"time": 1595, "pitch": 61, "duration": 6, "velocity": 102}, {"time": 1598, "pitch": 56, "duration": 4, "velocity": 97}, {"time": 1601, "pitch": 56, "duration": 1, "velocity": 86}, {"time": 1601, "pitch": 61, "duration": 6, "velocity": 70}, {"time": 1601, "pitch": 64, "duration": 17, "velocity": 92}, {"time": 1607, "pitch": 56, "duration": 4, "velocity": 85}, {"time": 1610, "pitch": 61, "duration": 8, "velocity": 102}, {"time": 1613, "pitch": 44, "duration": 17, "velocity": 34}, {"time": 1616, "pitch": 52, "duration": 4, "velocity": 72}, {"time": 1619, "pitch": 56, "duration": 7, "velocity": 89}, {"time": 1622, "pitch": 52, "duration": 4, "velocity": 72}, {"time": 1625, "pitch": 61, "duration": 6, "velocity": 86}, {"time": 1625, "pitch": 64, "duration": 12, "velocity": 89}, {"time": 1628, "pitch": 52, "duration": 2, "velocity": 74}, {"time": 1631, "pitch": 56, "duration": 5, "velocity": 93}, {"time": 1634, "pitch": 61, "duration": 8, "velocity": 100}, {"time": 1637, "pitch": 42, "duration": 23, "velocity": 86}, {"time": 1640, "pitch": 54, "duration": 4, "velocity": 99}, {"time": 1643, "pitch": 57, "duration": 7, "velocity": 95}, {"time": 1646, "pitch": 54, "duration": 4, "velocity": 89}, {"time": 1649, "pitch": 61, "duration": 7, "velocity": 72}, {"time": 1649, "pitch": 66, "duration": 18, "velocity": 100}, {"time": 1652, "pitch": 54, "duration": 10, "velocity": 90}, {"time": 1655, "pitch": 57, "duration": 10, "velocity": 86}, {"time": 1658, "pitch": 61, "duration": 9, "velocity": 99}, {"time": 1661, "pitch": 42, "duration": 18, "velocity": 72}, {"time": 1664, "pitch": 54, "duration": 4, "velocity": 90}, {"time": 1667, "pitch": 57, "duration": 7, "velocity": 76}, {"time": 1670, "pitch": 54, "duration": 3, "velocity": 85}, {"time": 1673, "pitch": 61, "duration": 7, "velocity": 58}, {"time": 1673, "pitch": 66, "duration": 14, "velocity": 95}, {"time": 1676, "pitch": 54, "duration": 2, "velocity": 92}, {"time": 1679, "pitch": 57, "duration": 10, "velocity": 95}, {"time": 1682, "pitch": 61, "duration": 8, "velocity": 93}, {"time": 1685, "pitch": 40, "duration": 23, "velocity": 83}, {"time": 1688, "pitch": 47, "duration": 22, "velocity": 65}, {"time": 1691, "pitch": 59, "duration": 7, "velocity": 75}, {"time": 1691, "pitch": 64, "duration": 2, "velocity": 72}, {"time": 1694, "pitch": 52, "duration": 4, "velocity": 82}, {"time": 1697, "pitch": 64, "duration": 7, "velocity": 86}, {"time": 1697, "pitch": 68, "duration": 10, "velocity": 99}, {"time": 1700, "pitch": 52, "duration": 3, "velocity": 85}, {"time": 1703, "pitch": 59, "duration": 11, "velocity": 100}, {"time": 1706, "pitch": 64, "duration": 9, "velocity": 81}, {"time": 1709, "pitch": 40, "duration": 18, "velocity": 92}, {"time": 1712, "pitch": 47, "duration": 15, "velocity": 63}, {"time": 1715, "pitch": 59, "duration": 7, "velocity": 93}, {"time": 1718, "pitch": 52, "duration": 4, "velocity": 88}, {"time": 1721, "pitch": 64, "duration": 7, "velocity": 88}, {"time": 1721, "pitch": 68, "duration": 12, "velocity": 102}, {"time": 1724, "pitch": 52, "duration": 2, "velocity": 77}, {"time": 1727, "pitch": 59, "duration": 8, "velocity": 95}, {"time": 1730, "pitch": 64, "duration": 3, "velocity": 86}, {"time": 1733, "pitch": 38, "duration": 22, "velocity": 92}, {"time": 1736, "pitch": 50, "duration": 5, "velocity": 95}, {"time": 1739, "pitch": 57, "duration": 7, "velocity": 82}, {"time": 1742, "pitch": 50, "duration": 4, "velocity": 89}, {"time": 1745, "pitch": 62, "duration": 6, "velocity": 79}, {"time": 1745, "pitch": 66, "duration": 17, "velocity": 100}, {"time": 1748, "pitch": 50, "duration": 4, "velocity": 83}, {"time": 1751, "pitch": 57, "duration": 10, "velocity": 93}, {"time": 1754, "pitch": 62, "duration": 7, "velocity": 90}, {"time": 1757, "pitch": 38, "duration": 20, "velocity": 76}, {"time": 1760, "pitch": 45, "duration": 17, "velocity": 60}, {"time": 1763, "pitch": 62, "duration": 5, "velocity": 76}, {"time": 1766, "pitch": 50, "duration": 5, "velocity": 90}, {"time": 1766, "pitch": 57, "duration": 3, "velocity": 30}, {"time": 1769, "pitch": 62, "duration": 6, "velocity": 89}, {"time": 1769, "pitch": 66, "duration": 14, "velocity": 107}, {"time": 1772, "pitch": 50, "duration": 5, "velocity": 90}, {"time": 1775, "pitch": 57, "duration": 8, "velocity": 89}, {"time": 1778, "pitch": 62, "duration": 4, "velocity": 73}, {"time": 1781, "pitch": 37, "duration": 18, "velocity": 99}, {"time": 1784, "pitch": 49, "duration": 4, "velocity": 83}, {"time": 1787, "pitch": 52, "duration": 5, "velocity": 95}, {"time": 1790, "pitch": 49, "duration": 4, "velocity": 89}, {"time": 1793, "pitch": 56, "duration": 7, "velocity": 96}, {"time": 1793, "pitch": 61, "duration": 12, "velocity": 100}, {"time": 1796, "pitch": 49, "duration": 8, "velocity": 93}, {"time": 1799, "pitch": 52, "duration": 5, "velocity": 89}, {"time": 1802, "pitch": 56, "duration": 4, "velocity": 117}, {"time": 1805, "pitch": 42, "duration": 18, "velocity": 99}, {"time": 1808, "pitch": 54, "duration": 5, "velocity": 99}, {"time": 1811, "pitch": 57, "duration": 6, "velocity": 97}, {"time": 1814, "pitch": 54, "duration": 4, "velocity": 86}, {"time": 1817, "pitch": 61, "duration": 7, "velocity": 86}, {"time": 1817, "pitch": 66, "duration": 14, "velocity": 112}, {"time": 1820, "pitch": 54, "duration": 3, "velocity": 92}, {"time": 1823, "pitch": 57, "duration": 6, "velocity": 99}, {"time": 1826, "pitch": 61, "duration": 3, "velocity": 112}, {"time": 1829, "pitch": 35, "duration": 22, "velocity": 82}, {"time": 1829, "pitch": 47, "duration": 23, "velocity": 82}, {"time": 1832, "pitch": 54, "duration": 5, "velocity": 93}, {"time": 1835, "pitch": 59, "duration": 6, "velocity": 92}, {"time": 1838, "pitch": 54, "duration": 4, "velocity": 81}, {"time": 1841, "pitch": 62, "duration": 6, "velocity": 69}, {"time": 1841, "pitch": 66, "duration": 16, "velocity": 112}, {"time": 1844, "pitch": 54, "duration": 9, "velocity": 90}, {"time": 1847, "pitch": 59, "duration": 10, "velocity": 86}, {"time": 1850, "pitch": 62, "duration": 9, "velocity": 79}, {"time": 1853, "pitch": 35, "duration": 17, "velocity": 86}, {"time": 1853, "pitch": 47, "duration": 17, "velocity": 86}, {"time": 1856, "pitch": 54, "duration": 4, "velocity": 100}, {"time": 1859, "pitch": 59, "duration": 7, "velocity": 88}, {"time": 1862, "pitch": 54, "duration": 4, "velocity": 97}, {"time": 1865, "pitch": 66, "duration": 12, "velocity": 107}, {"time": 1868, "pitch": 54, "duration": 2, "velocity": 97}, {"time": 1871, "pitch": 62, "duration": 6, "velocity": 96}, {"time": 1874, "pitch": 59, "duration": 4, "velocity": 85}, {"time": 1877, "pitch": 40, "duration": 22, "velocity": 82}, {"time": 1880, "pitch": 47, "duration": 4, "velocity": 95}, {"time": 1883, "pitch": 52, "duration": 6, "velocity": 75}, {"time": 1886, "pitch": 47, "duration": 4, "velocity": 77}, {"time": 1889, "pitch": 56, "duration": 6, "velocity": 59}, {"time": 1889, "pitch": 59, "duration": 13, "velocity": 85}, {"time": 1892, "pitch": 47, "duration": 9, "velocity": 76}, {"time": 1895, "pitch": 52, "duration": 7, "velocity": 85}, {"time": 1898, "pitch": 56, "duration": 4, "velocity": 76}, {"time": 1901, "pitch": 40, "duration": 24, "velocity": 85}, {"time": 1904, "pitch": 47, "duration": 20, "velocity": 90}, {"time": 1907, "pitch": 52, "duration": 7, "velocity": 93}, {"time": 1910, "pitch": 59, "duration": 4, "velocity": 97}, {"time": 1913, "pitch": 64, "duration": 6, "velocity": 78}, {"time": 1913, "pitch": 68, "duration": 12, "velocity": 127}, {"time": 1916, "pitch": 52, "duration": 2, "velocity": 93}, {"time": 1919, "pitch": 59, "duration": 6, "velocity": 100}, {"time": 1922, "pitch": 64, "duration": 3, "velocity": 102}, {"time": 1925, "pitch": 45, "duration": 29, "velocity": 60}, {"time": 1925, "pitch": 52, "duration": 32, "velocity": 54}, {"time": 1925, "pitch": 57, "duration": 29, "velocity": 62}, {"time": 1925, "pitch": 61, "duration": 29, "velocity": 59}, {"time": 1925, "pitch": 71, "duration": 14, "velocity": 100}, {"time": 1937, "pitch": 64, "duration": 6, "velocity": 92}, {"time": 1943, "pitch": 73, "duration": 5, "velocity": 100}, {"time": 1949, "pitch": 64, "duration": 6, "velocity": 92}, {"time": 1955, "pitch": 71, "duration": 12, "velocity": 100}, {"time": 1961, "pitch": 40, "duration": 38, "velocity": 66}, {"time": 1961, "pitch": 52, "duration": 39, "velocity": 57}, {"time": 1961, "pitch": 56, "duration": 39, "velocity": 65}, {"time": 1961, "pitch": 59, "duration": 39, "velocity": 63}, {"time": 1967, "pitch": 64, "duration": 6, "velocity": 99}, {"time": 1973, "pitch": 68, "duration": 16, "velocity": 117}, {"time": 1985, "pitch": 64, "duration": 6, "velocity": 102}, {"time": 1991, "pitch": 71, "duration": 6, "velocity": 96}, {"time": 1997, "pitch": 64, "duration": 6, "velocity": 90}, {"time": 2003, "pitch": 68, "duration": 4, "velocity": 92}, {"time": 2006, "pitch": 69, "duration": 10, "velocity": 93}, {"time": 2009, "pitch": 38, "duration": 34, "velocity": 63}, {"time": 2009, "pitch": 50, "duration": 32, "velocity": 62}, {"time": 2009, "pitch": 57, "duration": 33, "velocity": 86}, {"time": 2009, "pitch": 62, "duration": 7, "velocity": 74}, {"time": 2009, "pitch": 62, "duration": 7, "velocity": 107}, {"time": 2009, "pitch": 66, "duration": 32, "velocity": 76}, {"time": 2015, "pitch": 64, "duration": 5, "velocity": 107}, {"time": 2021, "pitch": 73, "duration": 18, "velocity": 99}, {"time": 2039, "pitch": 64, "duration": 6, "velocity": 99}, {"time": 2045, "pitch": 73, "duration": 6, "velocity": 117}, {"time": 2051, "pitch": 74, "duration": 6, "velocity": 97}, {"time": 2057, "pitch": 40, "duration": 37, "velocity": 72}, {"time": 2057, "pitch": 52, "duration": 44, "velocity": 79}, {"time": 2057, "pitch": 56, "duration": 43, "velocity": 71}, {"time": 2057, "pitch": 59, "duration": 43, "velocity": 74}, {"time": 2057, "pitch": 71, "duration": 11, "velocity": 112}, {"time": 2063, "pitch": 64, "duration": 6, "velocity": 99}, {"time": 2069, "pitch": 71, "duration": 5, "velocity": 97}, {"time": 2075, "pitch": 64, "duration": 6, "velocity": 96}, {"time": 2081, "pitch": 68, "duration": 8, "velocity": 102}, {"time": 2087, "pitch": 64, "duration": 6, "velocity": 100}, {"time": 2093, "pitch": 69, "duration": 9, "velocity": 102}, {"time": 2105, "pitch": 33, "duration": 38, "velocity": 89}, {"time": 2105, "pitch": 69, "duration": 5, "velocity": 107}, {"time": 2111, "pitch": 45, "duration": 9, "velocity": 45}, {"time": 2111, "pitch": 64, "duration": 5, "velocity": 96}, {"time": 2117, "pitch": 57, "duration": 13, "velocity": 96}, {"time": 2117, "pitch": 61, "duration": 9, "velocity": 102}, {"time": 2117, "pitch": 71, "duration": 5, "velocity": 107}, {"time": 2123, "pitch": 45, "duration": 8, "velocity": 58}, {"time": 2123, "pitch": 64, "duration": 6, "velocity": 96}, {"time": 2129, "pitch": 52, "duration": 18, "velocity": 93}, {"time": 2129, "pitch": 69, "duration": 5, "velocity": 99}, {"time": 2135, "pitch": 57, "duration": 6, "velocity": 88}, {"time": 2135, "pitch": 71, "duration": 5, "velocity": 95}, {"time": 2141, "pitch": 61, "duration": 13, "velocity": 127}, {"time": 2141, "pitch": 64, "duration": 6, "velocity": 90}, {"time": 2147, "pitch": 57, "duration": 7, "velocity": 71}, {"time": 2147, "pitch": 71, "duration": 9, "velocity": 100}, {"time": 2153, "pitch": 40, "duration": 41, "velocity": 95}, {"time": 2159, "pitch": 47, "duration": 9, "velocity": 63}, {"time": 2159, "pitch": 68, "duration": 6, "velocity": 107}, {"time": 2165, "pitch": 52, "duration": 13, "velocity": 86}, {"time": 2165, "pitch": 64, "duration": 7, "velocity": 93}, {"time": 2171, "pitch": 47, "duration": 8, "velocity": 58}, {"time": 2171, "pitch": 68, "duration": 11, "velocity": 107}, {"time": 2177, "pitch": 56, "duration": 11, "velocity": 70}, {"time": 2177, "pitch": 59, "duration": 10, "velocity": 69}, {"time": 2183, "pitch": 47, "duration": 9, "velocity": 59}, {"time": 2183, "pitch": 68, "duration": 6, "velocity": 95}, {"time": 2189, "pitch": 59, "duration": 12, "velocity": 83}, {"time": 2189, "pitch": 69, "duration": 7, "velocity": 95}, {"time": 2195, "pitch": 56, "duration": 6, "velocity": 79}, {"time": 2195, "pitch": 71, "duration": 5, "velocity": 96}, {"time": 2201, "pitch": 38, "duration": 22, "velocity": 88}, {"time": 2207, "pitch": 50, "duration": 14, "velocity": 71}, {"time": 2207, "pitch": 64, "duration": 7, "velocity": 92}, {"time": 2213, "pitch": 62, "duration": 22, "velocity": 95}, {"time": 2213, "pitch": 66, "duration": 22, "velocity": 99}, {"time": 2213, "pitch": 68, "duration": 6, "velocity": 97}, {"time": 2219, "pitch": 57, "duration": 16, "velocity": 78}, {"time": 2219, "pitch": 64, "duration": 7, "velocity": 90}, {"time": 2225, "pitch": 38, "duration": 16, "velocity": 69}, {"time": 2225, "pitch": 69, "duration": 4, "velocity": 96}, {"time": 2231, "pitch": 73, "duration": 5, "velocity": 96}, {"time": 2237, "pitch": 62, "duration": 12, "velocity": 89}, {"time": 2237, "pitch": 64, "duration": 7, "velocity": 90}, {"time": 2237, "pitch": 66, "duration": 12, "velocity": 97}, {"time": 2243, "pitch": 57, "duration": 6, "velocity": 53}, {"time": 2243, "pitch": 71, "duration": 9, "velocity": 95}, {"time": 2249, "pitch": 40, "duration": 38, "velocity": 85}, {"time": 2255, "pitch": 47, "duration": 21, "velocity": 55}, {"time": 2255, "pitch": 66, "duration": 5, "velocity": 97}, {"time": 2261, "pitch": 59, "duration": 7, "velocity": 83}, {"time": 2261, "pitch": 64, "duration": 5, "velocity": 93}, {"time": 2261, "pitch": 69, "duration": 5, "velocity": 93}, {"time": 2267, "pitch": 52, "duration": 8, "velocity": 90}, {"time": 2267, "pitch": 66, "duration": 6, "velocity": 107}, {"time": 2273, "pitch": 56, "duration": 12, "velocity": 92}, {"time": 2273, "pitch": 68, "duration": 13, "velocity": 99}, {"time": 2279, "pitch": 47, "duration": 7, "velocity": 68}, {"time": 2279, "pitch": 64, "duration": 6, "velocity": 86}, {"time": 2285, "pitch": 59, "duration": 13, "velocity": 96}, {"time": 2285, "pitch": 71, "duration": 13, "velocity": 96}, {"time": 2291, "pitch": 56, "duration": 6, "velocity": 79}, {"time": 2297, "pitch": 33, "duration": 12, "velocity": 77}, {"time": 2303, "pitch": 45, "duration": 6, "velocity": 63}, {"time": 2309, "pitch": 42, "duration": 23, "velocity": 96}, {"time": 2315, "pitch": 54, "duration": 12, "velocity": 79}, {"time": 2321, "pitch": 61, "duration": 11, "velocity": 107}, {"time": 2327, "pitch": 57, "duration": 7, "velocity": 100}, {"time": 2333, "pitch": 44, "duration": 19, "velocity": 97}, {"time": 2339, "pitch": 52, "duration": 22, "velocity": 90}, {"time": 2345, "pitch": 59, "duration": 13, "velocity": 99}, {"time": 2351, "pitch": 56, "duration": 6, "velocity": 96}, {"time": 2357, "pitch": 45, "duration": 22, "velocity": 96}, {"time": 2363, "pitch": 52, "duration": 6, "velocity": 79}, {"time": 2369, "pitch": 57, "duration": 17, "velocity": 83}, {"time": 2369, "pitch": 61, "duration": 17, "velocity": 112}, {"time": 2375, "pitch": 52, "duration": 10, "velocity": 75}, {"time": 2381, "pitch": 45, "duration": 18, "velocity": 81}, {"time": 2387, "pitch": 52, "duration": 13, "velocity": 73}, {"time": 2393, "pitch": 61, "duration": 13, "velocity": 117}, {"time": 2399, "pitch": 57, "duration": 7, "velocity": 79}, {"time": 2405, "pitch": 42, "duration": 17, "velocity": 92}, {"time": 2411, "pitch": 54, "duration": 12, "velocity": 96}, {"time": 2417, "pitch": 61, "duration": 6, "velocity": 112}, {"time": 2423, "pitch": 42, "duration": 6, "velocity": 95}, {"time": 2429, "pitch": 44, "duration": 15, "velocity": 100}, {"time": 2435, "pitch": 52, "duration": 22, "velocity": 74}, {"time": 2441, "pitch": 59, "duration": 12, "velocity": 97}, {"time": 2447, "pitch": 56, "duration": 6, "velocity": 112}, {"time": 2453, "pitch": 45, "duration": 22, "velocity": 99}, {"time": 2459, "pitch": 52, "duration": 22, "velocity": 83}, {"time": 2465, "pitch": 61, "duration": 17, "velocity": 112}, {"time": 2471, "pitch": 57, "duration": 11, "velocity": 73}, {"time": 2477, "pitch": 45, "duration": 16, "velocity": 93}, {"time": 2483, "pitch": 52, "duration": 7, "velocity": 64}, {"time": 2489, "pitch": 57, "duration": 12, "velocity": 83}, {"time": 2489, "pitch": 61, "duration": 13, "velocity": 97}, {"time": 2495, "pitch": 52, "duration": 6, "velocity": 73}, {"time": 2501, "pitch": 42, "duration": 21, "velocity": 81}, {"time": 2507, "pitch": 54, "duration": 8, "velocity": 75}, {"time": 2513, "pitch": 61, "duration": 7, "velocity": 122}, {"time": 2519, "pitch": 57, "duration": 5, "velocity": 102}, {"time": 2525, "pitch": 44, "duration": 19, "velocity": 117}, {"time": 2531, "pitch": 52, "duration": 7, "velocity": 81}, {"time": 2537, "pitch": 56, "duration": 10, "velocity": 89}, {"time": 2537, "pitch": 59, "duration": 9, "velocity": 95}, {"time": 2543, "pitch": 52, "duration": 10, "velocity": 82}, {"time": 2549, "pitch": 45, "duration": 24, "velocity": 100}, {"time": 2555, "pitch": 52, "duration": 7, "velocity": 90}, {"time": 2561, "pitch": 57, "duration": 10, "velocity": 86}, {"time": 2561, "pitch": 61, "duration": 11, "velocity": 102}, {"time": 2567, "pitch": 52, "duration": 6, "velocity": 85}, {"time": 2573, "pitch": 47, "duration": 11, "velocity": 99}, {"time": 2573, "pitch": 59, "duration": 12, "velocity": 100}, {"time": 2585, "pitch": 49, "duration": 11, "velocity": 102}, {"time": 2585, "pitch": 61, "duration": 12, "velocity": 112}, {"time": 2597, "pitch": 38, "duration": 21, "velocity": 97}, {"time": 2603, "pitch": 50, "duration": 9, "velocity": 85}, {"time": 2609, "pitch": 62, "duration": 17, "velocity": 83}, {"time": 2609, "pitch": 66, "duration": 17, "velocity": 96}, {"time": 2615, "pitch": 57, "duration": 11, "velocity": 82}, {"time": 2621, "pitch": 38, "duration": 17, "velocity": 77}, {"time": 2627, "pitch": 50, "duration": 7, "velocity": 96}, {"time": 2633, "pitch": 66, "duration": 10, "velocity": 122}, {"time": 2639, "pitch": 62, "duration": 5, "velocity": 86}, {"time": 2645, "pitch": 40, "duration": 23, "velocity": 89}, {"time": 2651, "pitch": 52, "duration": 18, "velocity": 89}, {"time": 2657, "pitch": 59, "duration": 13, "velocity": 99}, {"time": 2663, "pitch": 56, "duration": 7, "velocity": 127}, {"time": 2669, "pitch": 40, "duration": 14, "velocity": 97}, {"time": 2675, "pitch": 52, "duration": 6, "velocity": 85}, {"time": 2681, "pitch": 56, "duration": 10, "velocity": 95}, {"time": 2681, "pitch": 59, "duration": 10, "velocity": 88}, {"time": 2687, "pitch": 52, "duration": 4, "velocity": 76}, {"time": 2693, "pitch": 45, "duration": 22, "velocity": 89}, {"time": 2696, "pitch": 52, "duration": 5, "velocity": 75}, {"time": 2699, "pitch": 57, "duration": 7, "velocity": 89}, {"time": 2702, "pitch": 52, "duration": 3, "velocity": 68}, {"time": 2705, "pitch": 64, "duration": 17, "velocity": 97}, {"time": 2708, "pitch": 52, "duration": 9, "velocity": 82}, {"time": 2711, "pitch": 61, "duration": 11, "velocity": 112}, {"time": 2714, "pitch": 57, "duration": 8, "velocity": 95}, {"time": 2717, "pitch": 45, "duration": 18, "velocity": 92}, {"time": 2720, "pitch": 52, "duration": 4, "velocity": 86}, {"time": 2723, "pitch": 57, "duration": 6, "velocity": 96}, {"time": 2726, "pitch": 52, "duration": 3, "velocity": 69}, {"time": 2729, "pitch": 61, "duration": 6, "velocity": 100}, {"time": 2729, "pitch": 64, "duration": 12, "velocity": 97}, {"time": 2732, "pitch": 52, "duration": 2, "velocity": 82}, {"time": 2735, "pitch": 57, "duration": 6, "velocity": 99}, {"time": 2738, "pitch": 61, "duration": 5, "velocity": 112}, {"time": 2741, "pitch": 44, "duration": 24, "velocity": 90}, {"time": 2744, "pitch": 56, "duration": 4, "velocity": 78}, {"time": 2747, "pitch": 61, "duration": 5, "velocity": 102}, {"time": 2750, "pitch": 56, "duration": 3, "velocity": 81}, {"time": 2753, "pitch": 61, "duration": 6, "velocity": 70}, {"time": 2753, "pitch": 64, "duration": 17, "velocity": 92}, {"time": 2759, "pitch": 56, "duration": 10, "velocity": 92}, {"time": 2762, "pitch": 61, "duration": 8, "velocity": 102}, {"time": 2765, "pitch": 44, "duration": 17, "velocity": 34}, {"time": 2768, "pitch": 52, "duration": 4, "velocity": 72}, {"time": 2771, "pitch": 56, "duration": 7, "velocity": 89}, {"time": 2774, "pitch": 52, "duration": 4, "velocity": 72}, {"time": 2777, "pitch": 61, "duration": 6, "velocity": 86}, {"time": 2777, "pitch": 64, "duration": 12, "velocity": 89}, {"time": 2780, "pitch": 52, "duration": 2, "velocity": 74}, {"time": 2783, "pitch": 56, "duration": 5, "velocity": 93}, {"time": 2786, "pitch": 61, "duration": 8, "velocity": 100}, {"time": 2789, "pitch": 42, "duration": 22, "velocity": 86}, {"time": 2792, "pitch": 54, "duration": 4, "velocity": 99}, {"time": 2795, "pitch": 57, "duration": 7, "velocity": 95}, {"time": 2798, "pitch": 54, "duration": 4, "velocity": 89}, {"time": 2801, "pitch": 61, "duration": 6, "velocity": 72}, {"time": 2801, "pitch": 66, "duration": 18, "velocity": 100}, {"time": 2804, "pitch": 54, "duration": 10, "velocity": 90}, {"time": 2807, "pitch": 57, "duration": 10, "velocity": 86}, {"time": 2810, "pitch": 61, "duration": 9, "velocity": 99}, {"time": 2813, "pitch": 42, "duration": 17, "velocity": 72}, {"time": 2816, "pitch": 54, "duration": 4, "velocity": 90}, {"time": 2819, "pitch": 57, "duration": 7, "velocity": 76}, {"time": 2822, "pitch": 54, "duration": 3, "velocity": 85}, {"time": 2825, "pitch": 61, "duration": 7, "velocity": 58}, {"time": 2825, "pitch": 66, "duration": 14, "velocity": 95}, {"time": 2828, "pitch": 54, "duration": 2, "velocity": 92}, {"time": 2831, "pitch": 57, "duration": 9, "velocity": 95}, {"time": 2834, "pitch": 61, "duration": 8, "velocity": 93}, {"time": 2837, "pitch": 40, "duration": 22, "velocity": 83}, {"time": 2840, "pitch": 47, "duration": 22, "velocity": 65}, {"time": 2843, "pitch": 59, "duration": 7, "velocity": 75}, {"time": 2843, "pitch": 64, "duration": 2, "velocity": 72}, {"time": 2846, "pitch": 52, "duration": 4, "velocity": 82}, {"time": 2849, "pitch": 64, "duration": 7, "velocity": 86}, {"time": 2849, "pitch": 68, "duration": 10, "velocity": 99}, {"time": 2852, "pitch": 52, "duration": 3, "velocity": 85}, {"time": 2855, "pitch": 59, "duration": 11, "velocity": 100}, {"time": 2858, "pitch": 64, "duration": 9, "velocity": 81}, {"time": 2861, "pitch": 40, "duration": 18, "velocity": 92}, {"time": 2864, "pitch": 47, "duration": 15, "velocity": 63}, {"time": 2867, "pitch": 59, "duration": 7, "velocity": 93}, {"time": 2870, "pitch": 52, "duration": 4, "velocity": 88}, {"time": 2873, "pitch": 64, "duration": 6, "velocity": 88}, {"time": 2873, "pitch": 68, "duration": 12, "velocity": 102}, {"time": 2876, "pitch": 52, "duration": 2, "velocity": 77}, {"time": 2879, "pitch": 59, "duration": 7, "velocity": 95}, {"time": 2882, "pitch": 64, "duration": 3, "velocity": 86}, {"time": 2885, "pitch": 38, "duration": 22, "velocity": 92}, {"time": 2888, "pitch": 50, "duration": 5, "velocity": 95}, {"time": 2891, "pitch": 57, "duration": 7, "velocity": 82}, {"time": 2894, "pitch": 50, "duration": 4, "velocity": 89}, {"time": 2897, "pitch": 62, "duration": 6, "velocity": 79}, {"time": 2897, "pitch": 66, "duration": 17, "velocity": 100}, {"time": 2900, "pitch": 50, "duration": 4, "velocity": 83}, {"time": 2903, "pitch": 57, "duration": 10, "velocity": 93}, {"time": 2906, "pitch": 62, "duration": 7, "velocity": 90}, {"time": 2909, "pitch": 38, "duration": 20, "velocity": 76}, {"time": 2912, "pitch": 45, "duration": 17, "velocity": 60}, {"time": 2915, "pitch": 62, "duration": 5, "velocity": 76}, {"time": 2918, "pitch": 50, "duration": 4, "velocity": 90}, {"time": 2918, "pitch": 57, "duration": 2, "velocity": 30}, {"time": 2921, "pitch": 62, "duration": 6, "velocity": 89}, {"time": 2921, "pitch": 66, "duration": 14, "velocity": 107}, {"time": 2924, "pitch": 50, "duration": 4, "velocity": 90}, {"time": 2927, "pitch": 57, "duration": 8, "velocity": 89}, {"time": 2930, "pitch": 62, "duration": 3, "velocity": 73}, {"time": 2933, "pitch": 37, "duration": 18, "velocity": 99}, {"time": 2936, "pitch": 49, "duration": 4, "velocity": 83}, {"time": 2939, "pitch": 52, "duration": 5, "velocity": 95}, {"time": 2942, "pitch": 49, "duration": 3, "velocity": 89}, {"time": 2945, "pitch": 56, "duration": 6, "velocity": 96}, {"time": 2945, "pitch": 61, "duration": 12, "velocity": 100}, {"time": 2948, "pitch": 49, "duration": 7, "velocity": 93}, {"time": 2951, "pitch": 52, "duration": 5, "velocity": 89}, {"time": 2954, "pitch": 56, "duration": 3, "velocity": 117}, {"time": 2957, "pitch": 42, "duration": 17, "velocity": 99}, {"time": 2960, "pitch": 54, "duration": 4, "velocity": 99}, {"time": 2963, "pitch": 57, "duration": 6, "velocity": 97}, {"time": 2966, "pitch": 54, "duration": 4, "velocity": 86}, {"time": 2969, "pitch": 61, "duration": 7, "velocity": 86}, {"time": 2969, "pitch": 66, "duration": 14, "velocity": 112}, {"time": 2972, "pitch": 54, "duration": 3, "velocity": 92}, {"time": 2975, "pitch": 57, "duration": 6, "velocity": 99}, {"time": 2978, "pitch": 61, "duration": 3, "velocity": 112}, {"time": 2981, "pitch": 35, "duration": 22, "velocity": 82}, {"time": 2984, "pitch": 54, "duration": 5, "velocity": 93}, {"time": 2987, "pitch": 59, "duration": 5, "velocity": 92}, {"time": 2990, "pitch": 54, "duration": 4, "velocity": 81}, {"time": 2993, "pitch": 62, "duration": 6, "velocity": 69}, {"time": 2993, "pitch": 66, "duration": 16, "velocity": 112}, {"time": 2996, "pitch": 54, "duration": 9, "velocity": 90}, {"time": 2999, "pitch": 59, "duration": 10, "velocity": 86}, {"time": 3002, "pitch": 62, "duration": 9, "velocity": 79}, {"time": 3005, "pitch": 35, "duration": 17, "velocity": 86}, {"time": 3008, "pitch": 54, "duration": 4, "velocity": 100}, {"time": 3011, "pitch": 59, "duration": 7, "velocity": 88}, {"time": 3014, "pitch": 54, "duration": 3, "velocity": 97}, {"time": 3017, "pitch": 66, "duration": 12, "velocity": 107}, {"time": 3020, "pitch": 54, "duration": 2, "velocity": 97}, {"time": 3023, "pitch": 62, "duration": 6, "velocity": 96}, {"time": 3026, "pitch": 59, "duration": 4, "velocity": 85}, {"time": 3029, "pitch": 40, "duration": 22, "velocity": 82}, {"time": 3032, "pitch": 47, "duration": 4, "velocity": 95}, {"time": 3035, "pitch": 52, "duration": 6, "velocity": 75}, {"time": 3038, "pitch": 47, "duration": 4, "velocity": 77}, {"time": 3041, "pitch": 56, "duration": 6, "velocity": 59}, {"time": 3041, "pitch": 59, "duration": 13, "velocity": 85}, {"time": 3044, "pitch": 47, "duration": 9, "velocity": 76}, {"time": 3047, "pitch": 52, "duration": 6, "velocity": 85}, {"time": 3050, "pitch": 56, "duration": 4, "velocity": 76}, {"time": 3053, "pitch": 40, "duration": 23, "velocity": 85}, {"time": 3056, "pitch": 47, "duration": 20, "velocity": 90}, {"time": 3059, "pitch": 52, "duration": 6, "velocity": 93}, {"time": 3062, "pitch": 59, "duration": 4, "velocity": 97}, {"time": 3065, "pitch": 64, "duration": 6, "velocity": 78}, {"time": 3065, "pitch": 68, "duration": 14, "velocity": 127}, {"time": 3068, "pitch": 52, "duration": 2, "velocity": 93}, {"time": 3071, "pitch": 59, "duration": 7, "velocity": 100}, {"time": 3074, "pitch": 64, "duration": 5, "velocity": 102}, {"time": 3077, "pitch": 45, "duration": 22, "velocity": 89}, {"time": 3080, "pitch": 52, "duration": 5, "velocity": 75}, {"time": 3083, "pitch": 57, "duration": 8, "velocity": 89}, {"time": 3086, "pitch": 52, "duration": 4, "velocity": 68}, {"time": 3089, "pitch": 64, "duration": 18, "velocity": 97}, {"time": 3092, "pitch": 52, "duration": 9, "velocity": 82}, {"time": 3095, "pitch": 61, "duration": 11, "velocity": 112}, {"time": 3098, "pitch": 57, "duration": 8, "velocity": 95}, {"time": 3101, "pitch": 45, "duration": 19, "velocity": 92}, {"time": 3104, "pitch": 52, "duration": 5, "velocity": 86}, {"time": 3107, "pitch": 57, "duration": 6, "velocity": 96}, {"time": 3110, "pitch": 52, "duration": 4, "velocity": 69}, {"time": 3113, "pitch": 61, "duration": 7, "velocity": 100}, {"time": 3113, "pitch": 64, "duration": 12, "velocity": 97}, {"time": 3116, "pitch": 52, "duration": 3, "velocity": 82}, {"time": 3119, "pitch": 57, "duration": 6, "velocity": 99}, {"time": 3122, "pitch": 61, "duration": 5, "velocity": 112}, {"time": 3125, "pitch": 44, "duration": 21, "velocity": 90}, {"time": 3128, "pitch": 56, "duration": 4, "velocity": 78}, {"time": 3131, "pitch": 61, "duration": 6, "velocity": 102}, {"time": 3134, "pitch": 56, "duration": 4, "velocity": 97}, {"time": 3137, "pitch": 56, "duration": 1, "velocity": 86}, {"time": 3137, "pitch": 61, "duration": 6, "velocity": 70}, {"time": 3137, "pitch": 64, "duration": 17, "velocity": 92}, {"time": 3143, "pitch": 56, "duration": 4, "velocity": 85}, {"time": 3146, "pitch": 61, "duration": 8, "velocity": 102}, {"time": 3149, "pitch": 44, "duration": 17, "velocity": 34}, {"time": 3152, "pitch": 52, "duration": 4, "velocity": 72}, {"time": 3155, "pitch": 56, "duration": 7, "velocity": 89}, {"time": 3158, "pitch": 52, "duration": 4, "velocity": 72}, {"time": 3161, "pitch": 61, "duration": 6, "velocity": 86}, {"time": 3161, "pitch": 64, "duration": 12, "velocity": 89}, {"time": 3164, "pitch": 52, "duration": 2, "velocity": 74}, {"time": 3167, "pitch": 56, "duration": 5, "velocity": 93}, {"time": 3170, "pitch": 61, "duration": 8, "velocity": 100}, {"time": 3173, "pitch": 42, "duration": 23, "velocity": 86}, {"time": 3176, "pitch": 54, "duration": 4, "velocity": 99}, {"time": 3179, "pitch": 57, "duration": 7, "velocity": 95}, {"time": 3182, "pitch": 54, "duration": 4, "velocity": 89}, {"time": 3185, "pitch": 61, "duration": 7, "velocity": 72}, {"time": 3185, "pitch": 66, "duration": 18, "velocity": 100}, {"time": 3188, "pitch": 54, "duration": 10, "velocity": 90}, {"time": 3191, "pitch": 57, "duration": 10, "velocity": 86}, {"time": 3194, "pitch": 61, "duration": 9, "velocity": 99}, {"time": 3197, "pitch": 42, "duration": 18, "velocity": 72}, {"time": 3200, "pitch": 54, "duration": 4, "velocity": 90}, {"time": 3203, "pitch": 57, "duration": 7, "velocity": 76}, {"time": 3206, "pitch": 54, "duration": 3, "velocity": 85}, {"time": 3209, "pitch": 61, "duration": 7, "velocity": 58}, {"time": 3209, "pitch": 66, "duration": 14, "velocity": 95}, {"time": 3212, "pitch": 54, "duration": 2, "velocity": 92}, {"time": 3215, "pitch": 57, "duration": 10, "velocity": 95}, {"time": 3218, "pitch": 61, "duration": 8, "velocity": 93}, {"time": 3221, "pitch": 40, "duration": 23, "velocity": 83}, {"time": 3224, "pitch": 47, "duration": 22, "velocity": 65}, {"time": 3227, "pitch": 59, "duration": 7, "velocity": 75}, {"time": 3227, "pitch": 64, "duration": 2, "velocity": 72}, {"time": 3230, "pitch": 52, "duration": 4, "velocity": 82}, {"time": 3233, "pitch": 64, "duration": 7, "velocity": 86}, {"time": 3233, "pitch": 68, "duration": 10, "velocity": 99}, {"time": 3236, "pitch": 52, "duration": 3, "velocity": 85}, {"time": 3239, "pitch": 59, "duration": 11, "velocity": 100}, {"time": 3242, "pitch": 64, "duration": 9, "velocity": 81}, {"time": 3245, "pitch": 40, "duration": 18, "velocity": 92}, {"time": 3248, "pitch": 47, "duration": 15, "velocity": 63}, {"time": 3251, "pitch": 59, "duration": 7, "velocity": 93}, {"time": 3254, "pitch": 52, "duration": 4, "velocity": 88}, {"time": 3257, "pitch": 64, "duration": 7, "velocity": 88}, {"time": 3257, "pitch": 68, "duration": 12, "velocity": 102}, {"time": 3260, "pitch": 52, "duration": 2, "velocity": 77}, {"time": 3263, "pitch": 59, "duration": 8, "velocity": 95}, {"time": 3266, "pitch": 64, "duration": 3, "velocity": 86}, {"time": 3269, "pitch": 38, "duration": 22, "velocity": 92}, {"time": 3272, "pitch": 50, "duration": 5, "velocity": 95}, {"time": 3275, "pitch": 57, "duration": 7, "velocity": 82}, {"time": 3278, "pitch": 50, "duration": 4, "velocity": 89}, {"time": 3281, "pitch": 62, "duration": 6, "velocity": 79}, {"time": 3281, "pitch": 66, "duration": 17, "velocity": 100}, {"time": 3284, "pitch": 50, "duration": 4, "velocity": 83}, {"time": 3287, "pitch": 57, "duration": 10, "velocity": 93}, {"time": 3290, "pitch": 62, "duration": 7, "velocity": 90}, {"time": 3293, "pitch": 38, "duration": 20, "velocity": 76}, {"time": 3296, "pitch": 45, "duration": 17, "velocity": 60}, {"time": 3299, "pitch": 62, "duration": 5, "velocity": 76}, {"time": 3302, "pitch": 50, "duration": 5, "velocity": 90}, {"time": 3302, "pitch": 57, "duration": 3, "velocity": 30}, {"time": 3305, "pitch": 62, "duration": 6, "velocity": 89}, {"time": 3305, "pitch": 66, "duration": 14, "velocity": 107}, {"time": 3308, "pitch": 50, "duration": 5, "velocity": 90}, {"time": 3311, "pitch": 57, "duration": 8, "velocity": 89}, {"time": 3314, "pitch": 62, "duration": 4, "velocity": 73}, {"time": 3317, "pitch": 37, "duration": 18, "velocity": 99}, {"time": 3320, "pitch": 49, "duration": 4, "velocity": 83}, {"time": 3323, "pitch": 52, "duration": 5, "velocity": 95}, {"time": 3326, "pitch": 49, "duration": 4, "velocity": 89}, {"time": 3329, "pitch": 56, "duration": 7, "velocity": 96}, {"time": 3329, "pitch": 61, "duration": 12, "velocity": 100}, {"time": 3332, "pitch": 49, "duration": 8, "velocity": 93}, {"time": 3335, "pitch": 52, "duration": 5, "velocity": 89}, {"time": 3338, "pitch": 56, "duration": 4, "velocity": 117}, {"time": 3341, "pitch": 42, "duration": 18, "velocity": 99}, {"time": 3344, "pitch": 54, "duration": 5, "velocity": 99}, {"time": 3347, "pitch": 57, "duration": 6, "velocity": 97}, {"time": 3350, "pitch": 54, "duration": 4, "velocity": 86}, {"time": 3353, "pitch": 61, "duration": 7, "velocity": 86}, {"time": 3353, "pitch": 66, "duration": 14, "velocity": 112}, {"time": 3356, "pitch": 54, "duration": 3, "velocity": 92}, {"time": 3359, "pitch": 57, "duration": 6, "velocity": 99}, {"time": 3362, "pitch": 61, "duration": 3, "velocity": 112}, {"time": 3365, "pitch": 35, "duration": 22, "velocity": 82}, {"time": 3365, "pitch": 47, "duration": 23, "velocity": 82}, {"time": 3368, "pitch": 54, "duration": 5, "velocity": 93}, {"time": 3371, "pitch": 59, "duration": 6, "velocity": 92}, {"time": 3374, "pitch": 54, "duration": 4, "velocity": 81}, {"time": 3377, "pitch": 62, "duration": 6, "velocity": 69}, {"time": 3377, "pitch": 66, "duration": 16, "velocity": 112}, {"time": 3380, "pitch": 54, "duration": 9, "velocity": 90}, {"time": 3383, "pitch": 59, "duration": 10, "velocity": 86}, {"time": 3386, "pitch": 62, "duration": 9, "velocity": 79}, {"time": 3389, "pitch": 35, "duration": 17, "velocity": 86}, {"time": 3389, "pitch": 47, "duration": 17, "velocity": 86}, {"time": 3392, "pitch": 54, "duration": 4, "velocity": 100}, {"time": 3395, "pitch": 59, "duration": 7, "velocity": 88}, {"time": 3398, "pitch": 54, "duration": 4, "velocity": 97}, {"time": 3401, "pitch": 66, "duration": 12, "velocity": 107}, {"time": 3404, "pitch": 54, "duration": 2, "velocity": 97}, {"time": 3407, "pitch": 62, "duration": 6, "velocity": 96}, {"time": 3410, "pitch": 59, "duration": 4, "velocity": 85}, {"time": 3413, "pitch": 40, "duration": 22, "velocity": 82}, {"time": 3416, "pitch": 47, "duration": 4, "velocity": 95}, {"time": 3419, "pitch": 52, "duration": 6, "velocity": 75}, {"time": 3422, "pitch": 47, "duration": 4, "velocity": 77}, {"time": 3425, "pitch": 56, "duration": 6, "velocity": 59}, {"time": 3425, "pitch": 59, "duration": 13, "velocity": 85}, {"time": 3428, "pitch": 47, "duration": 9, "velocity": 76}, {"time": 3431, "pitch": 52, "duration": 7, "velocity": 85}, {"time": 3434, "pitch": 56, "duration": 4, "velocity": 76}, {"time": 3437, "pitch": 40, "duration": 24, "velocity": 85}, {"time": 3440, "pitch": 47, "duration": 20, "velocity": 90}, {"time": 3443, "pitch": 52, "duration": 7, "velocity": 93}, {"time": 3446, "pitch": 59, "duration": 4, "velocity": 97}, {"time": 3449, "pitch": 64, "duration": 6, "velocity": 78}, {"time": 3449, "pitch": 68, "duration": 12, "velocity": 127}, {"time": 3452, "pitch": 52, "duration": 2, "velocity": 93}, {"time": 3455, "pitch": 59, "duration": 6, "velocity": 100}, {"time": 3458, "pitch": 64, "duration": 3, "velocity": 102}, {"time": 3461, "pitch": 45, "duration": 49, "velocity": 102}, {"time": 3467, "pitch": 52, "duration": 8, "velocity": 75}, {"time": 3473, "pitch": 57, "duration": 13, "velocity": 95}, {"time": 3479, "pitch": 52, "duration": 9, "velocity": 52}, {"time": 3485, "pitch": 59, "duration": 10, "velocity": 97}, {"time": 3491, "pitch": 52, "duration": 17, "velocity": 79}, {"time": 3497, "pitch": 61, "duration": 13, "velocity": 127}, {"time": 3497, "pitch": 64, "duration": 13, "velocity": 52}, {"time": 3503, "pitch": 57, "duration": 7, "velocity": 83}, {"time": 3509, "pitch": 40, "duration": 38, "velocity": 66}, {"time": 3509, "pitch": 52, "duration": 39, "velocity": 57}, {"time": 3509, "pitch": 56, "duration": 39, "velocity": 65}, {"time": 3509, "pitch": 59, "duration": 39, "velocity": 63}, {"time": 3515, "pitch": 64, "duration": 6, "velocity": 99}, {"time": 3521, "pitch": 68, "duration": 16, "velocity": 117}, {"time": 3533, "pitch": 64, "duration": 6, "velocity": 102}, {"time": 3539, "pitch": 71, "duration": 6, "velocity": 96}, {"time": 3545, "pitch": 64, "duration": 6, "velocity": 90}, {"time": 3551, "pitch": 68, "duration": 4, "velocity": 92}, {"time": 3554, "pitch": 69, "duration": 10, "velocity": 93}, {"time": 3557, "pitch": 38, "duration": 34, "velocity": 63}, {"time": 3557, "pitch": 50, "duration": 32, "velocity": 62}, {"time": 3557, "pitch": 57, "duration": 33, "velocity": 86}, {"time": 3557, "pitch": 62, "duration": 7, "velocity": 74}, {"time": 3557, "pitch": 62, "duration": 7, "velocity": 107}, {"time": 3557, "pitch": 66, "duration": 32, "velocity": 76}, {"time": 3563, "pitch": 64, "duration": 5, "velocity": 107}, {"time": 3569, "pitch": 73, "duration": 18, "velocity": 99}, {"time": 3587, "pitch": 64, "duration": 6, "velocity": 99}, {"time": 3593, "pitch": 73, "duration": 6, "velocity": 117}, {"time": 3599, "pitch": 74, "duration": 6, "velocity": 97}, {"time": 3605, "pitch": 40, "duration": 37, "velocity": 72}, {"time": 3605, "pitch": 52, "duration": 44, "velocity": 79}, {"time": 3605, "pitch": 56, "duration": 43, "velocity": 71}, {"time": 3605, "pitch": 59, "duration": 43, "velocity": 74}, {"time": 3605, "pitch": 71, "duration": 11, "velocity": 112}, {"time": 3611, "pitch": 64, "duration": 6, "velocity": 99}, {"time": 3617, "pitch": 71, "duration": 5, "velocity": 97}, {"time": 3623, "pitch": 64, "duration": 6, "velocity": 96}, {"time": 3629, "pitch": 68, "duration": 8, "velocity": 102}, {"time": 3635, "pitch": 64, "duration": 6, "velocity": 100}, {"time": 3641, "pitch": 69, "duration": 9, "velocity": 102}, {"time": 3653, "pitch": 33, "duration": 38, "velocity": 89}, {"time": 3653, "pitch": 69, "duration": 5, "velocity": 107}, {"time": 3659, "pitch": 45, "duration": 9, "velocity": 45}, {"time": 3659, "pitch": 64, "duration": 5, "velocity": 96}, {"time": 3665, "pitch": 57, "duration": 13, "velocity": 96}, {"time": 3665, "pitch": 61, "duration": 9, "velocity": 102}, {"time": 3665, "pitch": 71, "duration": 5, "velocity": 107}, {"time": 3671, "pitch": 45, "duration": 8, "velocity": 58}, {"time": 3671, "pitch": 64, "duration": 6, "velocity": 96}, {"time": 3677, "pitch": 52, "duration": 18, "velocity": 93}, {"time": 3677, "pitch": 69, "duration": 5, "velocity": 99}, {"time": 3683, "pitch": 57, "duration": 6, "velocity": 88}, {"time": 3683, "pitch": 71, "duration": 5, "velocity": 95}, {"time": 3689, "pitch": 61, "duration": 13, "velocity": 127}, {"time": 3689, "pitch": 64, "duration": 6, "velocity": 90}, {"time": 3695, "pitch": 57, "duration": 7, "velocity": 71}, {"time": 3695, "pitch": 71, "duration": 9, "velocity": 100}, {"time": 3701, "pitch": 40, "duration": 41, "velocity": 95}, {"time": 3707, "pitch": 47, "duration": 9, "velocity": 63}, {"time": 3707, "pitch": 68, "duration": 6, "velocity": 107}, {"time": 3713, "pitch": 52, "duration": 13, "velocity": 86}, {"time": 3713, "pitch": 64, "duration": 7, "velocity": 93}, {"time": 3719, "pitch": 47, "duration": 8, "velocity": 58}, {"time": 3719, "pitch": 68, "duration": 11, "velocity": 107}, {"time": 3725, "pitch": 56, "duration": 11, "velocity": 70}, {"time": 3725, "pitch": 59, "duration": 10, "velocity": 69}, {"time": 3731, "pitch": 47, "duration": 9, "velocity": 59}, {"time": 3731, "pitch": 68, "duration": 6, "velocity": 95}, {"time": 3737, "pitch": 59, "duration": 12, "velocity": 83}, {"time": 3737, "pitch": 69, "duration": 7, "velocity": 95}, {"time": 3743, "pitch": 56, "duration": 6, "velocity": 79}, {"time": 3743, "pitch": 71, "duration": 5, "velocity": 96}, {"time": 3749, "pitch": 38, "duration": 22, "velocity": 88}, {"time": 3755, "pitch": 50, "duration": 14, "velocity": 71}, {"time": 3755, "pitch": 64, "duration": 7, "velocity": 92}, {"time": 3761, "pitch": 62, "duration": 22, "velocity": 95}, {"time": 3761, "pitch": 66, "duration": 22, "velocity": 99}, {"time": 3761, "pitch": 68, "duration": 6, "velocity": 97}, {"time": 3767, "pitch": 57, "duration": 16, "velocity": 78}, {"time": 3767, "pitch": 64, "duration": 7, "velocity": 90}, {"time": 3773, "pitch": 38, "duration": 16, "velocity": 69}, {"time": 3773, "pitch": 69, "duration": 4, "velocity": 96}, {"time": 3779, "pitch": 73, "duration": 5, "velocity": 96}, {"time": 3785, "pitch": 62, "duration": 12, "velocity": 89}, {"time": 3785, "pitch": 64, "duration": 7, "velocity": 90}, {"time": 3785, "pitch": 66, "duration": 12, "velocity": 97}, {"time": 3791, "pitch": 57, "duration": 6, "velocity": 53}, {"time": 3791, "pitch": 71, "duration": 6, "velocity": 95}, {"time": 3797, "pitch": 64, "duration": 19, "velocity": 89}, {"time": 3797, "pitch": 68, "duration": 18, "velocity": 78}, {"time": 3798, "pitch": 40, "duration": 36, "velocity": 93}, {"time": 3798, "pitch": 59, "duration": 15, "velocity": 83}, {"time": 3804, "pitch": 47, "duration": 30, "velocity": 65}, {"time": 3809, "pitch": 52, "duration": 18, "velocity": 95}, {"time": 3815, "pitch": 59, "duration": 20, "velocity": 77}, {"time": 3822, "pitch": 64, "duration": 12, "velocity": 88}, {"time": 3822, "pitch": 68, "duration": 13, "velocity": 93}, {"time": 3838, "pitch": 52, "duration": 8, "velocity": 86}, {"time": 3845, "pitch": 57, "duration": 10, "velocity": 85}, {"time": 3853, "pitch": 61, "duration": 103, "velocity": 66}, {"time": 3854, "pitch": 59, "duration": 99, "velocity": 55}, {"time": 3855, "pitch": 57, "duration": 1, "velocity": 82}, {"time": 3856, "pitch": 45, "duration": 102, "velocity": 70}, {"time": 3856, "pitch": 40, "duration": 96, "velocity": 69}, {"time": 3856, "pitch": 33, "duration": 106, "velocity": 66}, {"time": 3856, "pitch": 52, "duration": 100, "velocity": 52}], "annotations": [{"time": 28, "annotation": {"number": 64, "value": 127}, "group": "control_change"}, {"time": 52, "annotation": {"number": 64, "value": 0}, "group": "control_change"}, {"time": 64, "annotation": {"number": 64, "value": 127}, "group": "control_change"}, {"time": 100, "annotation": {"number": 64, "value": 0}, "group": "control_change"}, {"time": 112, "annotation": {"number": 64, "value": 127}, "group": "control_change"}, {"time": 147, "annotation": {"number": 64, "value": 0}, "group": "control_change"}, {"time": 155, "annotation": {"number": 64, "value": 127}, "group": "control_change"}, {"time": 195, "annotation": {"number": 64, "value": 0}, "group": "control_change"}, {"time": 197, "annotation": {"number": 64, "value": 127}, "group": "control_change"}, {"time": 242, "annotation": {"number": 64, "value": 0}, "group": "control_change"}, {"time": 244, "annotation": {"number": 64, "value": 127}, "group": "control_change"}, {"time": 289, "annotation": {"number": 64, "value": 0}, "group": "control_change"}, {"time": 292, "annotation": {"number": 64, "value": 127}, "group": "control_change"}, {"time": 338, "annotation": {"number": 64, "value": 0}, "group": "control_change"}, {"time": 341, "annotation": {"number": 64, "value": 127}, "group": "control_change"}, {"time": 387, "annotation": {"number": 64, "value": 0}, "group": "control_change"}, {"time": 389, "annotation": {"number": 64, "value": 127}, "group": "control_change"}, {"time": 411, "annotation": {"number": 64, "value": 0}, "group": "control_change"}, {"time": 413, "annotation": {"number": 64, "value": 127}, "group": "control_change"}, {"time": 433, "annotation": {"number": 64, "value": 0}, "group": "control_change"}, {"time": 437, "annotation": {"number": 64, "value": 127}, "group": "control_change"}, {"time": 456, "annotation": {"number": 64, "value": 0}, "group": "control_change"}, {"time": 461, "annotation": {"number": 64, "value": 127}, "group": "control_change"}, {"time": 481, "annotation": {"number": 64, "value": 0}, "group": "control_change"}, {"time": 485, "annotation": {"number": 64, "value": 127}, "group": "control_change"}, {"time": 505, "annotation": {"number": 64, "value": 0}, "group": "control_change"}, {"time": 509, "annotation": {"number": 64, "value": 127}, "group": "control_change"}, {"time": 529, "annotation": {"number": 64, "value": 0}, "group": "control_change"}, {"time": 532, "annotation": {"number": 64, "value": 127}, "group": "control_change"}, {"time": 541, "annotation": {"number": 64, "value": 0}, "group": "control_change"}, {"time": 544, "annotation": {"number": 64, "value": 127}, "group": "control_change"}, {"time": 552, "annotation": {"number": 64, "value": 0}, "group": "control_change"}, {"time": 556, "annotation": {"number": 64, "value": 127}, "group": "control_change"}, {"time": 578, "annotation": {"number": 64, "value": 0}, "group": "control_change"}, {"time": 581, "annotation": {"number": 64, "value": 127}, "group": "control_change"}, {"time": 601, "annotation": {"number": 64, "value": 0}, "group": "control_change"}, {"time": 605, "annotation": {"number": 64, "value": 127}, "group": "control_change"}, {"time": 625, "annotation": {"number": 64, "value": 0}, "group": "control_change"}, {"time": 629, "annotation": {"number": 64, "value": 127}, "group": "control_change"}, {"time": 644, "annotation": {"number": 64, "value": 0}, "group": "control_change"}, {"time": 653, "annotation": {"number": 64, "value": 127}, "group": "control_change"}, {"time": 673, "annotation": {"number": 64, "value": 0}, "group": "control_change"}, {"time": 677, "annotation": {"number": 64, "value": 127}, "group": "control_change"}, {"time": 698, "annotation": {"number": 64, "value": 0}, "group": "control_change"}, {"time": 701, "annotation": {"number": 64, "value": 127}, "group": "control_change"}, {"time": 720, "annotation": {"number": 64, "value": 0}, "group": "control_change"}, {"time": 724, "annotation": {"number": 64, "value": 127}, "group": "control_change"}, {"time": 743, "annotation": {"number": 64, "value": 0}, "group": "control_change"}, {"time": 748, "annotation": {"number": 64, "value": 127}, "group": "control_change"}, {"time": 760, "annotation": {"number": 64, "value": 0}, "group": "control_change"}, {"time": 773, "annotation": {"number": 64, "value": 127}, "group": "control_change"}, {"time": 793, "annotation": {"number": 64, "value": 0}, "group": "control_change"}, {"time": 797, "annotation": {"number": 64, "value": 127}, "group": "control_change"}, {"time": 817, "annotation": {"number": 64, "value": 0}, "group": "control_change"}, {"time": 821, "annotation": {"number": 64, "value": 127}, "group": "control_change"}, {"time": 839, "annotation": {"number": 64, "value": 0}, "group": "control_change"}, {"time": 845, "annotation": {"number": 64, "value": 127}, "group": "control_change"}, {"time": 864, "annotation": {"number": 64, "value": 0}, "group": "control_change"}, {"time": 869, "annotation": {"number": 64, "value": 127}, "group": "control_change"}, {"time": 877, "annotation": {"number": 64, "value": 0}, "group": "control_change"}, {"time": 880, "annotation": {"number": 64, "value": 127}, "group": "control_change"}, {"time": 889, "annotation": {"number": 64, "value": 0}, "group": "control_change"}, {"time": 893, "annotation": {"number": 64, "value": 127}, "group": "control_change"}, {"time": 914, "annotation": {"number": 64, "value": 0}, "group": "control_change"}, {"time": 917, "annotation": {"number": 64, "value": 127}, "group": "control_change"}, {"time": 937, "annotation": {"number": 64, "value": 0}, "group": "control_change"}, {"time": 941, "annotation": {"number": 64, "value": 127}, "group": "control_change"}, {"time": 958, "annotation": {"number": 64, "value": 0}, "group": "control_change"}, {"time": 965, "annotation": {"number": 64, "value": 127}, "group": "control_change"}, {"time": 985, "annotation": {"number": 64, "value": 0}, "group": "control_change"}, {"time": 989, "annotation": {"number": 64, "value": 127}, "group": "control_change"}, {"time": 1009, "annotation": {"number": 64, "value": 0}, "group": "control_change"}, {"time": 1013, "annotation": {"number": 64, "value": 127}, "group": "control_change"}, {"time": 1034, "annotation": {"number": 64, "value": 0}, "group": "control_change"}, {"time": 1037, "annotation": {"number": 64, "value": 127}, "group": "control_change"}, {"time": 1049, "annotation": {"number": 64, "value": 0}, "group": "control_change"}, {"time": 1061, "annotation": {"number": 64, "value": 127}, "group": "control_change"}, {"time": 1062, "annotation": {"number": 64, "value": 127}, "group": "control_change"}, {"time": 1082, "annotation": {"number": 64, "value": 0}, "group": "control_change"}, {"time": 1085, "annotation": {"number": 64, "value": 127}, "group": "control_change"}, {"time": 1103, "annotation": {"number": 64, "value": 0}, "group": "control_change"}, {"time": 1108, "annotation": {"number": 64, "value": 127}, "group": "control_change"}, {"time": 1128, "annotation": {"number": 64, "value": 0}, "group": "control_change"}, {"time": 1144, "annotation": {"number": 64, "value": 127}, "group": "control_change"}, {"time": 1153, "annotation": {"number": 64, "value": 0}, "group": "control_change"}, {"time": 1157, "annotation": {"number": 64, "value": 127}, "group": "control_change"}, {"time": 1201, "annotation": {"number": 64, "value": 0}, "group": "control_change"}, {"time": 1205, "annotation": {"number": 64, "value": 127}, "group": "control_change"}, {"time": 1244, "annotation": {"number": 64, "value": 0}, "group": "control_change"}, {"time": 1252, "annotation": {"number": 64, "value": 127}, "group": "control_change"}, {"time": 1262, "annotation": {"number": 64, "value": 0}, "group": "control_change"}, {"time": 1265, "annotation": {"number": 64, "value": 127}, "group": "control_change"}, {"time": 1269, "annotation": {"number": 64, "value": 0}, "group": "control_change"}, {"time": 1276, "annotation": {"number": 64, "value": 127}, "group": "control_change"}, {"time": 1293, "annotation": {"number": 64, "value": 0}, "group": "control_change"}, {"time": 1300, "annotation": {"number": 64, "value": 127}, "group": "control_change"}, {"time": 1306, "annotation": {"number": 64, "value": 0}, "group": "control_change"}, {"time": 1313, "annotation": {"number": 64, "value": 127}, "group": "control_change"}, {"time": 1318, "annotation": {"number": 64, "value": 0}, "group": "control_change"}, {"time": 1325, "annotation": {"number": 64, "value": 127}, "group": "control_change"}, {"time": 1337, "annotation": {"number": 64, "value": 0}, "group": "control_change"}, {"time": 1348, "annotation": {"number": 64, "value": 127}, "group": "control_change"}, {"time": 1358, "annotation": {"number": 64, "value": 0}, "group": "control_change"}, {"time": 1361, "annotation": {"number": 64, "value": 127}, "group": "control_change"}, {"time": 1369, "annotation": {"number": 64, "value": 0}, "group": "control_change"}, {"time": 1373, "annotation": {"number": 64, "value": 127}, "group": "control_change"}, {"time": 1382, "annotation": {"number": 64, "value": 0}, "group": "control_change"}, {"time": 1386, "annotation": {"number": 64, "value": 127}, "group": "control_change"}, {"time": 1393, "annotation": {"number": 64, "value": 0}, "group": "control_change"}, {"time": 1397, "annotation": {"number": 64, "value": 127}, "group": "control_change"}, {"time": 1417, "annotation": {"number": 64, "value": 0}, "group": "control_change"}, {"time": 1421, "annotation": {"number": 64, "value": 127}, "group": "control_change"}, {"time": 1436, "annotation": {"number": 64, "value": 0}, "group": "control_change"}, {"time": 1444, "annotation": {"number": 64, "value": 127}, "group": "control_change"}, {"time": 1464, "annotation": {"number": 64, "value": 0}, "group": "control_change"}, {"time": 1469, "annotation": {"number": 64, "value": 127}, "group": "control_change"}, {"time": 1489, "annotation": {"number": 64, "value": 0}, "group": "control_change"}, {"time": 1493, "annotation": {"number": 64, "value": 127}, "group": "control_change"}, {"time": 1514, "annotation": {"number": 64, "value": 0}, "group": "control_change"}, {"time": 1517, "annotation": {"number": 64, "value": 127}, "group": "control_change"}, {"time": 1539, "annotation": {"number": 64, "value": 0}, "group": "control_change"}, {"time": 1541, "annotation": {"number": 64, "value": 127}, "group": "control_change"}, {"time": 1586, "annotation": {"number": 64, "value": 0}, "group": "control_change"}, {"time": 1589, "annotation": {"number": 64, "value": 127}, "group": "control_change"}, {"time": 1628, "annotation": {"number": 64, "value": 0}, "group": "control_change"}, {"time": 1636, "annotation": {"number": 64, "value": 127}, "group": "control_change"}, {"time": 1646, "annotation": {"number": 64, "value": 0}, "group": "control_change"}, {"time": 1649, "annotation": {"number": 64, "value": 127}, "group": "control_change"}, {"time": 1654, "annotation": {"number": 64, "value": 0}, "group": "control_change"}, {"time": 1661, "annotation": {"number": 64, "value": 127}, "group": "control_change"}, {"time": 1677, "annotation": {"number": 64, "value": 0}, "group": "control_change"}, {"time": 1685, "annotation": {"number": 64, "value": 127}, "group": "control_change"}, {"time": 1690, "annotation": {"number": 64, "value": 0}, "group": "control_change"}, {"time": 1698, "annotation": {"number": 64, "value": 127}, "group": "control_change"}, {"time": 1702, "annotation": {"number": 64, "value": 0}, "group": "control_change"}, {"time": 1709, "annotation": {"number": 64, "value": 127}, "group": "control_change"}, {"time": 1722, "annotation": {"number": 64, "value": 0}, "group": "control_change"}, {"time": 1732, "annotation": {"number": 64, "value": 127}, "group": "control_change"}, {"time": 1743, "annotation": {"number": 64, "value": 0}, "group": "control_change"}, {"time": 1746, "annotation": {"number": 64, "value": 127}, "group": "control_change"}, {"time": 1753, "annotation": {"number": 64, "value": 0}, "group": "control_change"}, {"time": 1757, "annotation": {"number": 64, "value": 127}, "group": "control_change"}, {"time": 1767, "annotation": {"number": 64, "value": 0}, "group": "control_change"}, {"time": 1770, "annotation": {"number": 64, "value": 127}, "group": "control_change"}, {"time": 1778, "annotation": {"number": 64, "value": 0}, "group": "control_change"}, {"time": 1781, "annotation": {"number": 64, "value": 127}, "group": "control_change"}, {"time": 1801, "annotation": {"number": 64, "value": 0}, "group": "control_change"}, {"time": 1805, "annotation": {"number": 64, "value": 127}, "group": "control_change"}, {"time": 1820, "annotation": {"number": 64, "value": 0}, "group": "control_change"}, {"time": 1829, "annotation": {"number": 64, "value": 127}, "group": "control_change"}, {"time": 1848, "annotation": {"number": 64, "value": 0}, "group": "control_change"}, {"time": 1853, "annotation": {"number": 64, "value": 127}, "group": "control_change"}, {"time": 1873, "annotation": {"number": 64, "value": 0}, "group": "control_change"}, {"time": 1877, "annotation": {"number": 64, "value": 127}, "group": "control_change"}, {"time": 1898, "annotation": {"number": 64, "value": 0}, "group": "control_change"}, {"time": 1901, "annotation": {"number": 64, "value": 127}, "group": "control_change"}, {"time": 1924, "annotation": {"number": 64, "value": 0}, "group": "control_change"}, {"time": 1936, "annotation": {"number": 64, "value": 127}, "group": "control_change"}, {"time": 1960, "annotation": {"number": 64, "value": 0}, "group": "control_change"}, {"time": 1972, "annotation": {"number": 64, "value": 127}, "group": "control_change"}, {"time": 2008, "annotation": {"number": 64, "value": 0}, "group": "control_change"}, {"time": 2020, "annotation": {"number": 64, "value": 127}, "group": "control_change"}, {"time": 2055, "annotation": {"number": 64, "value": 0}, "group": "control_change"}, {"time": 2063, "annotation": {"number": 64, "value": 127}, "group": "control_change"}, {"time": 2103, "annotation": {"number": 64, "value": 0}, "group": "control_change"}, {"time": 2105, "annotation": {"number": 64, "value": 127}, "group": "control_change"}, {"time": 2150, "annotation": {"number": 64, "value": 0}, "group": "control_change"}, {"time": 2152, "annotation": {"number": 64, "value": 127}, "group": "control_change"}, {"time": 2197, "annotation": {"number": 64, "value": 0}, "group": "control_change"}, {"time": 2200, "annotation": {"number": 64, "value": 127}, "group": "control_change"}, {"time": 2246, "annotation": {"number": 64, "value": 0}, "group": "control_change"}, {"time": 2249, "annotation": {"number": 64, "value": 127}, "group": "control_change"}, {"time": 2295, "annotation": {"number": 64, "value": 0}, "group": "control_change"}, {"time": 2297, "annotation": {"number": 64, "value": 127}, "group": "control_change"}, {"time": 2329, "annotation": {"number": 64, "value": 0}, "group": "control_change"}, {"time": 2333, "annotation": {"number": 64, "value": 127}, "group": "control_change"}, {"time": 2353, "annotation": {"number": 64, "value": 0}, "group": "control_change"}, {"time": 2357, "annotation": {"number": 64, "value": 127}, "group": "control_change"}, {"time": 2375, "annotation": {"number": 64, "value": 0}, "group": "control_change"}, {"time": 2381, "annotation": {"number": 64, "value": 127}, "group": "control_change"}, {"time": 2400, "annotation": {"number": 64, "value": 0}, "group": "control_change"}, {"time": 2405, "annotation": {"number": 64, "value": 127}, "group": "control_change"}, {"time": 2413, "annotation": {"number": 64, "value": 0}, "group": "control_change"}, {"time": 2416, "annotation": {"number": 64, "value": 127}, "group": "control_change"}, {"time": 2425, "annotation": {"number": 64, "value": 0}, "group": "control_change"}, {"time": 2429, "annotation": {"number": 64, "value": 127}, "group": "control_change"}, {"time": 2450, "annotation": {"number": 64, "value": 0}, "group": "control_change"}, {"time": 2453, "annotation": {"number": 64, "value": 127}, "group": "control_change"}, {"time": 2473, "annotation": {"number": 64, "value": 0}, "group": "control_change"}, {"time": 2477, "annotation": {"number": 64, "value": 127}, "group": "control_change"}, {"time": 2494, "annotation": {"number": 64, "value": 0}, "group": "control_change"}, {"time": 2501, "annotation": {"number": 64, "value": 127}, "group": "control_change"}, {"time": 2521, "annotation": {"number": 64, "value": 0}, "group": "control_change"}, {"time": 2525, "annotation": {"number": 64, "value": 127}, "group": "control_change"}, {"time": 2545, "annotation": {"number": 64, "value": 0}, "group": "control_change"}, {"time": 2549, "annotation": {"number": 64, "value": 127}, "group": "control_change"}, {"time": 2570, "annotation": {"number": 64, "value": 0}, "group": "control_change"}, {"time": 2573, "annotation": {"number": 64, "value": 127}, "group": "control_change"}, {"time": 2585, "annotation": {"number": 64, "value": 0}, "group": "control_change"}, {"time": 2597, "annotation": {"number": 64, "value": 127}, "group": "control_change"}, {"time": 2598, "annotation": {"number": 64, "value": 127}, "group": "control_change"}, {"time": 2618, "annotation": {"number": 64, "value": 0}, "group": "control_change"}, {"time": 2621, "annotation": {"number": 64, "value": 127}, "group": "control_change"}, {"time": 2639, "annotation": {"number": 64, "value": 0}, "group": "control_change"}, {"time": 2644, "annotation": {"number": 64, "value": 127}, "group": "control_change"}, {"time": 2664, "annotation": {"number": 64, "value": 0}, "group": "control_change"}, {"time": 2680, "annotation": {"number": 64, "value": 127}, "group": "control_change"}, {"time": 2689, "annotation": {"number": 64, "value": 0}, "group": "control_change"}, {"time": 2693, "annotation": {"number": 64, "value": 127}, "group": "control_change"}, {"time": 2737, "annotation": {"number": 64, "value": 0}, "group": "control_change"}, {"time": 2741, "annotation": {"number": 64, "value": 127}, "group": "control_change"}, {"time": 2780, "annotation": {"number": 64, "value": 0}, "group": "control_change"}, {"time": 2788, "annotation": {"number": 64, "value": 127}, "group": "control_change"}, {"time": 2798, "annotation": {"number": 64, "value": 0}, "group": "control_change"}, {"time": 2801, "annotation": {"number": 64, "value": 127}, "group": "control_change"}, {"time": 2805, "annotation": {"number": 64, "value": 0}, "group": "control_change"}, {"time": 2812, "annotation": {"number": 64, "value": 127}, "group": "control_change"}, {"time": 2829, "annotation": {"number": 64, "value": 0}, "group": "control_change"}, {"time": 2836, "annotation": {"number": 64, "value": 127}, "group": "control_change"}, {"time": 2842, "annotation": {"number": 64, "value": 0}, "group": "control_change"}, {"time": 2849, "annotation": {"number": 64, "value": 127}, "group": "control_change"}, {"time": 2854, "annotation": {"number": 64, "value": 0}, "group": "control_change"}, {"time": 2861, "annotation": {"number": 64, "value": 127}, "group": "control_change"}, {"time": 2873, "annotation": {"number": 64, "value": 0}, "group": "control_change"}, {"time": 2884, "annotation": {"number": 64, "value": 127}, "group": "control_change"}, {"time": 2894, "annotation": {"number": 64, "value": 0}, "group": "control_change"}, {"time": 2897, "annotation": {"number": 64, "value": 127}, "group": "control_change"}, {"time": 2905, "annotation": {"number": 64, "value": 0}, "group": "control_change"}, {"time": 2909, "annotation": {"number": 64, "value": 127}, "group": "control_change"}, {"time": 2918, "annotation": {"number": 64, "value": 0}, "group": "control_change"}, {"time": 2922, "annotation": {"number": 64, "value": 127}, "group": "control_change"}, {"time": 2929, "annotation": {"number": 64, "value": 0}, "group": "control_change"}, {"time": 2933, "annotation": {"number": 64, "value": 127}, "group": "control_change"}, {"time": 2953, "annotation": {"number": 64, "value": 0}, "group": "control_change"}, {"time": 2957, "annotation": {"number": 64, "value": 127}, "group": "control_change"}, {"time": 2972, "annotation": {"number": 64, "value": 0}, "group": "control_change"}, {"time": 2980, "annotation": {"number": 64, "value": 127}, "group": "control_change"}, {"time": 3000, "annotation": {"number": 64, "value": 0}, "group": "control_change"}, {"time": 3005, "annotation": {"number": 64, "value": 127}, "group": "control_change"}, {"time": 3025, "annotation": {"number": 64, "value": 0}, "group": "control_change"}, {"time": 3029, "annotation": {"number": 64, "value": 127}, "group": "control_change"}, {"time": 3050, "annotation": {"number": 64, "value": 0}, "group": "control_change"}, {"time": 3053, "annotation": {"number": 64, "value": 127}, "group": "control_change"}, {"time": 3075, "annotation": {"number": 64, "value": 0}, "group": "control_change"}, {"time": 3077, "annotation": {"number": 64, "value": 127}, "group": "control_change"}, {"time": 3122, "annotation": {"number": 64, "value": 0}, "group": "control_change"}, {"time": 3125, "annotation": {"number": 64, "value": 127}, "group": "control_change"}, {"time": 3164, "annotation": {"number": 64, "value": 0}, "group": "control_change"}, {"time": 3172, "annotation": {"number": 64, "value": 127}, "group": "control_change"}, {"time": 3182, "annotation": {"number": 64, "value": 0}, "group": "control_change"}, {"time": 3185, "annotation": {"number": 64, "value": 127}, "group": "control_change"}, {"time": 3190, "annotation": {"number": 64, "value": 0}, "group": "control_change"}, {"time": 3197, "annotation": {"number": 64, "value": 127}, "group": "control_change"}, {"time": 3213, "annotation": {"number": 64, "value": 0}, "group": "control_change"}, {"time": 3221, "annotation": {"number": 64, "value": 127}, "group": "control_change"}, {"time": 3226, "annotation": {"number": 64, "value": 0}, "group": "control_change"}, {"time": 3234, "annotation": {"number": 64, "value": 127}, "group": "control_change"}, {"time": 3238, "annotation": {"number": 64, "value": 0}, "group": "control_change"}, {"time": 3245, "annotation": {"number": 64, "value": 127}, "group": "control_change"}, {"time": 3258, "annotation": {"number": 64, "value": 0}, "group": "control_change"}, {"time": 3268, "annotation": {"number": 64, "value": 127}, "group": "control_change"}, {"time": 3279, "annotation": {"number": 64, "value": 0}, "group": "control_change"}, {"time": 3282, "annotation": {"number": 64, "value": 127}, "group": "control_change"}, {"time": 3289, "annotation": {"number": 64, "value": 0}, "group": "control_change"}, {"time": 3293, "annotation": {"number": 64, "value": 127}, "group": "control_change"}, {"time": 3303, "annotation": {"number": 64, "value": 0}, "group": "control_change"}, {"time": 3306, "annotation": {"number": 64, "value": 127}, "group": "control_change"}, {"time": 3314, "annotation": {"number": 64, "value": 0}, "group": "control_change"}, {"time": 3317, "annotation": {"number": 64, "value": 127}, "group": "control_change"}, {"time": 3337, "annotation": {"number": 64, "value": 0}, "group": "control_change"}, {"time": 3341, "annotation": {"number": 64, "value": 127}, "group": "control_change"}, {"time": 3356, "annotation": {"number": 64, "value": 0}, "group": "control_change"}, {"time": 3365, "annotation": {"number": 64, "value": 127}, "group": "control_change"}, {"time": 3384, "annotation": {"number": 64, "value": 0}, "group": "control_change"}, {"time": 3389, "annotation": {"number": 64, "value": 127}, "group": "control_change"}, {"time": 3409, "annotation": {"number": 64, "value": 0}, "group": "control_change"}, {"time": 3413, "annotation": {"number": 64, "value": 127}, "group": "control_change"}, {"time": 3434, "annotation": {"number": 64, "value": 0}, "group": "control_change"}, {"time": 3437, "annotation": {"number": 64, "value": 127}, "group": "control_change"}, {"time": 3460, "annotation": {"number": 64, "value": 0}, "group": "control_change"}, {"time": 3465, "annotation": {"number": 64, "value": 127}, "group": "control_change"}, {"time": 3483, "annotation": {"number": 64, "value": 0}, "group": "control_change"}, {"time": 3485, "annotation": {"number": 64, "value": 127}, "group": "control_change"}, {"time": 3503, "annotation": {"number": 64, "value": 0}, "group": "control_change"}, {"time": 3520, "annotation": {"number": 64, "value": 127}, "group": "control_change"}, {"time": 3556, "annotation": {"number": 64, "value": 0}, "group": "control_change"}, {"time": 3568, "annotation": {"number": 64, "value": 127}, "group": "control_change"}, {"time": 3603, "annotation": {"number": 64, "value": 0}, "group": "control_change"}, {"time": 3611, "annotation": {"number": 64, "value": 127}, "group": "control_change"}, {"time": 3651, "annotation": {"number": 64, "value": 0}, "group": "control_change"}, {"time": 3653, "annotation": {"number": 64, "value": 127}, "group": "control_change"}, {"time": 3698, "annotation": {"number": 64, "value": 0}, "group": "control_change"}, {"time": 3700, "annotation": {"number": 64, "value": 127}, "group": "control_change"}, {"time": 3745, "annotation": {"number": 64, "value": 0}, "group": "control_change"}, {"time": 3748, "annotation": {"number": 64, "value": 127}, "group": "control_change"}, {"time": 3794, "annotation": {"number": 64, "value": 0}, "group": "control_change"}, {"time": 3809, "annotation": {"number": 64, "value": 127}, "group": "control_change"}]}]}