{"metadata": {"schema_version": "0.2", "title": "None", "source_filename": "354.mid", "source_format": "midi"}, "resolution": 12, "tempos": [{"time": 0, "qpm": 59.00006686674245}, {"time": 672, "qpm": 50.0}, {"time": 684, "qpm": 59.00006686674245}], "time_signatures": [{"time": 0, "numerator": 1, "denominator": 4}], "tracks": [{"program": 4, "is_drum": false, "name": "MELODY", "notes": [{"time": 271, "pitch": 71, "duration": 3, "velocity": 112}, {"time": 274, "pitch": 71, "duration": 3, "velocity": 89}, {"time": 277, "pitch": 71, "duration": 9, "velocity": 112}, {"time": 286, "pitch": 71, "duration": 3, "velocity": 99}, {"time": 289, "pitch": 73, "duration": 6, "velocity": 112}, {"time": 295, "pitch": 75, "duration": 3, "velocity": 107}, {"time": 298, "pitch": 71, "duration": 12, "velocity": 107}, {"time": 310, "pitch": 71, "duration": 3, "velocity": 95}, {"time": 313, "pitch": 70, "duration": 6, "velocity": 102}, {"time": 319, "pitch": 78, "duration": 6, "velocity": 100}, {"time": 325, "pitch": 78, "duration": 6, "velocity": 122}, {"time": 331, "pitch": 73, "duration": 3, "velocity": 122}, {"time": 334, "pitch": 75, "duration": 18, "velocity": 117}, {"time": 352, "pitch": 75, "duration": 3, "velocity": 127}, {"time": 355, "pitch": 73, "duration": 3, "velocity": 99}, {"time": 358, "pitch": 75, "duration": 3, "velocity": 117}, {"time": 361, "pitch": 73, "duration": 6, "velocity": 112}, {"time": 367, "pitch": 71, "duration": 3, "velocity": 89}, {"time": 370, "pitch": 71, "duration": 21, "velocity": 102}, {"time": 391, "pitch": 76, "duration": 3, "velocity": 107}, {"time": 394, "pitch": 75, "duration": 3, "velocity": 97}, {"time": 397, "pitch": 71, "duration": 9, "velocity": 95}, {"time": 406, "pitch": 68, "duration": 6, "velocity": 102}, {"time": 412, "pitch": 66, "duration": 51, "velocity": 96}, {"time": 463, "pitch": 71, "duration": 3, "velocity": 112}, {"time": 466, "pitch": 71, "duration": 3, "velocity": 89}, {"time": 469, "pitch": 71, "duration": 9, "velocity": 112}, {"time": 478, "pitch": 71, "duration": 3, "velocity": 99}, {"time": 481, "pitch": 73, "duration": 3, "velocity": 112}, {"time": 484, "pitch": 73, "duration": 3, "velocity": 127}, {"time": 487, "pitch": 75, "duration": 3, "velocity": 107}, {"time": 490, "pitch": 71, "duration": 12, "velocity": 107}, {"time": 502, "pitch": 71, "duration": 3, "velocity": 95}, {"time": 505, "pitch": 70, "duration": 6, "velocity": 102}, {"time": 511, "pitch": 78, "duration": 6, "velocity": 100}, {"time": 517, "pitch": 78, "duration": 6, "velocity": 122}, {"time": 523, "pitch": 75, "duration": 3, "velocity": 122}, {"time": 526, "pitch": 80, "duration": 6, "velocity": 99}, {"time": 532, "pitch": 78, "duration": 12, "velocity": 99}, {"time": 544, "pitch": 75, "duration": 3, "velocity": 122}, {"time": 547, "pitch": 75, "duration": 3, "velocity": 107}, {"time": 550, "pitch": 73, "duration": 3, "velocity": 100}, {"time": 553, "pitch": 71, "duration": 3, "velocity": 99}, {"time": 556, "pitch": 71, "duration": 3, "velocity": 81}, {"time": 559, "pitch": 80, "duration": 3, "velocity": 112}, {"time": 562, "pitch": 80, "duration": 12, "velocity": 127}, {"time": 574, "pitch": 71, "duration": 3, "velocity": 89}, {"time": 577, "pitch": 70, "duration": 6, "velocity": 97}, {"time": 583, "pitch": 78, "duration": 3, "velocity": 96}, {"time": 586, "pitch": 78, "duration": 12, "velocity": 112}, {"time": 598, "pitch": 78, "duration": 3, "velocity": 127}, {"time": 601, "pitch": 80, "duration": 3, "velocity": 127}, {"time": 604, "pitch": 83, "duration": 3, "velocity": 96}, {"time": 607, "pitch": 83, "duration": 3, "velocity": 112}, {"time": 610, "pitch": 83, "duration": 3, "velocity": 127}, {"time": 613, "pitch": 83, "duration": 6, "velocity": 127}, {"time": 619, "pitch": 78, "duration": 3, "velocity": 117}, {"time": 622, "pitch": 80, "duration": 6, "velocity": 127}, {"time": 628, "pitch": 78, "duration": 30, "velocity": 107}, {"time": 658, "pitch": 78, "duration": 3, "velocity": 117}, {"time": 661, "pitch": 78, "duration": 3, "velocity": 127}, {"time": 664, "pitch": 76, "duration": 3, "velocity": 88}, {"time": 667, "pitch": 75, "duration": 3, "velocity": 102}, {"time": 670, "pitch": 76, "duration": 3, "velocity": 90}, {"time": 673, "pitch": 78, "duration": 6, "velocity": 127}, {"time": 679, "pitch": 80, "duration": 3, "velocity": 79}, {"time": 682, "pitch": 78, "duration": 6, "velocity": 122}, {"time": 688, "pitch": 75, "duration": 9, "velocity": 117}, {"time": 697, "pitch": 78, "duration": 6, "velocity": 127}, {"time": 703, "pitch": 80, "duration": 3, "velocity": 112}, {"time": 706, "pitch": 78, "duration": 6, "velocity": 127}, {"time": 712, "pitch": 73, "duration": 12, "velocity": 122}, {"time": 724, "pitch": 71, "duration": 3, "velocity": 89}, {"time": 727, "pitch": 83, "duration": 4, "velocity": 95}, {"time": 730, "pitch": 82, "duration": 3, "velocity": 122}, {"time": 733, "pitch": 80, "duration": 6, "velocity": 122}, {"time": 739, "pitch": 78, "duration": 3, "velocity": 122}, {"time": 742, "pitch": 75, "duration": 6, "velocity": 112}, {"time": 748, "pitch": 78, "duration": 24, "velocity": 127}, {"time": 772, "pitch": 71, "duration": 3, "velocity": 92}, {"time": 775, "pitch": 83, "duration": 3, "velocity": 96}, {"time": 778, "pitch": 82, "duration": 3, "velocity": 100}, {"time": 781, "pitch": 80, "duration": 3, "velocity": 127}, {"time": 784, "pitch": 78, "duration": 6, "velocity": 127}, {"time": 790, "pitch": 75, "duration": 3, "velocity": 117}, {"time": 793, "pitch": 78, "duration": 12, "velocity": 127}, {"time": 805, "pitch": 75, "duration": 3, "velocity": 127}, {"time": 808, "pitch": 73, "duration": 6, "velocity": 122}, {"time": 814, "pitch": 71, "duration": 3, "velocity": 92}, {"time": 817, "pitch": 73, "duration": 6, "velocity": 127}, {"time": 823, "pitch": 75, "duration": 3, "velocity": 117}, {"time": 826, "pitch": 80, "duration": 6, "velocity": 127}, {"time": 832, "pitch": 75, "duration": 9, "velocity": 127}, {"time": 841, "pitch": 73, "duration": 10, "velocity": 127}, {"time": 850, "pitch": 78, "duration": 3, "velocity": 122}, {"time": 853, "pitch": 78, "duration": 3, "velocity": 127}, {"time": 856, "pitch": 76, "duration": 3, "velocity": 127}, {"time": 859, "pitch": 75, "duration": 3, "velocity": 117}, {"time": 862, "pitch": 76, "duration": 3, "velocity": 112}, {"time": 865, "pitch": 78, "duration": 6, "velocity": 127}, {"time": 871, "pitch": 80, "duration": 3, "velocity": 127}, {"time": 874, "pitch": 78, "duration": 6, "velocity": 127}, {"time": 880, "pitch": 75, "duration": 9, "velocity": 122}, {"time": 889, "pitch": 78, "duration": 6, "velocity": 127}, {"time": 895, "pitch": 80, "duration": 3, "velocity": 117}, {"time": 898, "pitch": 78, "duration": 6, "velocity": 127}, {"time": 904, "pitch": 73, "duration": 12, "velocity": 117}, {"time": 916, "pitch": 71, "duration": 3, "velocity": 96}, {"time": 919, "pitch": 83, "duration": 3, "velocity": 112}, {"time": 922, "pitch": 85, "duration": 3, "velocity": 127}, {"time": 925, "pitch": 82, "duration": 3, "velocity": 127}, {"time": 928, "pitch": 78, "duration": 6, "velocity": 122}, {"time": 934, "pitch": 75, "duration": 6, "velocity": 117}, {"time": 940, "pitch": 80, "duration": 3, "velocity": 122}, {"time": 943, "pitch": 78, "duration": 21, "velocity": 117}, {"time": 964, "pitch": 71, "duration": 3, "velocity": 93}, {"time": 967, "pitch": 83, "duration": 3, "velocity": 112}, {"time": 970, "pitch": 82, "duration": 3, "velocity": 127}, {"time": 973, "pitch": 80, "duration": 3, "velocity": 122}, {"time": 976, "pitch": 78, "duration": 6, "velocity": 127}, {"time": 982, "pitch": 75, "duration": 3, "velocity": 107}, {"time": 985, "pitch": 78, "duration": 12, "velocity": 127}, {"time": 997, "pitch": 75, "duration": 6, "velocity": 127}, {"time": 1003, "pitch": 73, "duration": 6, "velocity": 127}, {"time": 1009, "pitch": 71, "duration": 6, "velocity": 117}, {"time": 1015, "pitch": 73, "duration": 24, "velocity": 127}, {"time": 1039, "pitch": 76, "duration": 3, "velocity": 96}, {"time": 1042, "pitch": 75, "duration": 6, "velocity": 102}, {"time": 1048, "pitch": 71, "duration": 12, "velocity": 97}, {"time": 1060, "pitch": 68, "duration": 9, "velocity": 96}, {"time": 1069, "pitch": 71, "duration": 56, "velocity": 96}, {"time": 1279, "pitch": 71, "duration": 3, "velocity": 112}, {"time": 1282, "pitch": 71, "duration": 3, "velocity": 89}, {"time": 1285, "pitch": 71, "duration": 9, "velocity": 112}, {"time": 1294, "pitch": 71, "duration": 3, "velocity": 99}, {"time": 1297, "pitch": 73, "duration": 6, "velocity": 112}, {"time": 1303, "pitch": 75, "duration": 3, "velocity": 107}, {"time": 1306, "pitch": 71, "duration": 12, "velocity": 107}, {"time": 1318, "pitch": 71, "duration": 3, "velocity": 95}, {"time": 1321, "pitch": 70, "duration": 6, "velocity": 102}, {"time": 1327, "pitch": 78, "duration": 6, "velocity": 100}, {"time": 1333, "pitch": 78, "duration": 6, "velocity": 122}, {"time": 1339, "pitch": 73, "duration": 3, "velocity": 122}, {"time": 1342, "pitch": 75, "duration": 18, "velocity": 117}, {"time": 1360, "pitch": 75, "duration": 3, "velocity": 127}, {"time": 1363, "pitch": 73, "duration": 3, "velocity": 99}, {"time": 1366, "pitch": 75, "duration": 3, "velocity": 117}, {"time": 1369, "pitch": 73, "duration": 6, "velocity": 112}, {"time": 1375, "pitch": 71, "duration": 3, "velocity": 89}, {"time": 1378, "pitch": 71, "duration": 21, "velocity": 102}, {"time": 1399, "pitch": 76, "duration": 3, "velocity": 107}, {"time": 1402, "pitch": 75, "duration": 3, "velocity": 97}, {"time": 1405, "pitch": 71, "duration": 9, "velocity": 95}, {"time": 1414, "pitch": 68, "duration": 6, "velocity": 102}, {"time": 1420, "pitch": 66, "duration": 51, "velocity": 96}, {"time": 1471, "pitch": 71, "duration": 3, "velocity": 112}, {"time": 1474, "pitch": 71, "duration": 3, "velocity": 89}, {"time": 1477, "pitch": 71, "duration": 9, "velocity": 112}, {"time": 1486, "pitch": 71, "duration": 3, "velocity": 99}, {"time": 1489, "pitch": 73, "duration": 3, "velocity": 112}, {"time": 1492, "pitch": 73, "duration": 3, "velocity": 127}, {"time": 1495, "pitch": 75, "duration": 3, "velocity": 107}, {"time": 1498, "pitch": 71, "duration": 12, "velocity": 107}, {"time": 1510, "pitch": 71, "duration": 3, "velocity": 95}, {"time": 1513, "pitch": 70, "duration": 6, "velocity": 102}, {"time": 1519, "pitch": 78, "duration": 6, "velocity": 100}, {"time": 1525, "pitch": 78, "duration": 6, "velocity": 122}, {"time": 1531, "pitch": 75, "duration": 3, "velocity": 122}, {"time": 1534, "pitch": 80, "duration": 6, "velocity": 99}, {"time": 1540, "pitch": 78, "duration": 12, "velocity": 99}, {"time": 1552, "pitch": 75, "duration": 3, "velocity": 122}, {"time": 1555, "pitch": 75, "duration": 3, "velocity": 107}, {"time": 1558, "pitch": 73, "duration": 3, "velocity": 100}, {"time": 1561, "pitch": 71, "duration": 3, "velocity": 99}, {"time": 1564, "pitch": 71, "duration": 3, "velocity": 81}, {"time": 1567, "pitch": 80, "duration": 3, "velocity": 112}, {"time": 1570, "pitch": 80, "duration": 12, "velocity": 127}, {"time": 1582, "pitch": 71, "duration": 3, "velocity": 89}, {"time": 1585, "pitch": 70, "duration": 6, "velocity": 97}, {"time": 1591, "pitch": 78, "duration": 3, "velocity": 96}, {"time": 1594, "pitch": 78, "duration": 12, "velocity": 112}, {"time": 1606, "pitch": 78, "duration": 3, "velocity": 127}, {"time": 1609, "pitch": 80, "duration": 3, "velocity": 127}, {"time": 1612, "pitch": 83, "duration": 3, "velocity": 96}, {"time": 1615, "pitch": 83, "duration": 3, "velocity": 112}, {"time": 1618, "pitch": 83, "duration": 3, "velocity": 127}, {"time": 1621, "pitch": 83, "duration": 6, "velocity": 127}, {"time": 1627, "pitch": 78, "duration": 3, "velocity": 117}, {"time": 1630, "pitch": 80, "duration": 6, "velocity": 127}, {"time": 1636, "pitch": 78, "duration": 30, "velocity": 107}, {"time": 1666, "pitch": 78, "duration": 3, "velocity": 117}, {"time": 1669, "pitch": 78, "duration": 3, "velocity": 127}, {"time": 1672, "pitch": 76, "duration": 3, "velocity": 88}, {"time": 1675, "pitch": 75, "duration": 3, "velocity": 102}, {"time": 1678, "pitch": 76, "duration": 3, "velocity": 90}, {"time": 1681, "pitch": 78, "duration": 6, "velocity": 127}, {"time": 1687, "pitch": 80, "duration": 3, "velocity": 79}, {"time": 1690, "pitch": 78, "duration": 6, "velocity": 122}, {"time": 1696, "pitch": 75, "duration": 9, "velocity": 117}, {"time": 1705, "pitch": 78, "duration": 6, "velocity": 127}, {"time": 1711, "pitch": 80, "duration": 3, "velocity": 112}, {"time": 1714, "pitch": 78, "duration": 6, "velocity": 127}, {"time": 1720, "pitch": 73, "duration": 12, "velocity": 122}, {"time": 1732, "pitch": 71, "duration": 3, "velocity": 89}, {"time": 1735, "pitch": 83, "duration": 4, "velocity": 95}, {"time": 1738, "pitch": 82, "duration": 3, "velocity": 122}, {"time": 1741, "pitch": 80, "duration": 6, "velocity": 122}, {"time": 1747, "pitch": 78, "duration": 3, "velocity": 122}, {"time": 1750, "pitch": 75, "duration": 6, "velocity": 112}, {"time": 1756, "pitch": 78, "duration": 24, "velocity": 127}, {"time": 1780, "pitch": 71, "duration": 3, "velocity": 92}, {"time": 1783, "pitch": 83, "duration": 3, "velocity": 96}, {"time": 1786, "pitch": 82, "duration": 3, "velocity": 100}, {"time": 1789, "pitch": 80, "duration": 3, "velocity": 127}, {"time": 1792, "pitch": 78, "duration": 6, "velocity": 127}, {"time": 1798, "pitch": 75, "duration": 3, "velocity": 117}, {"time": 1801, "pitch": 78, "duration": 12, "velocity": 127}, {"time": 1813, "pitch": 75, "duration": 3, "velocity": 127}, {"time": 1816, "pitch": 73, "duration": 6, "velocity": 122}, {"time": 1822, "pitch": 71, "duration": 3, "velocity": 92}, {"time": 1825, "pitch": 73, "duration": 6, "velocity": 127}, {"time": 1831, "pitch": 75, "duration": 3, "velocity": 117}, {"time": 1834, "pitch": 80, "duration": 6, "velocity": 127}, {"time": 1840, "pitch": 75, "duration": 9, "velocity": 127}, {"time": 1849, "pitch": 73, "duration": 10, "velocity": 127}, {"time": 1858, "pitch": 78, "duration": 3, "velocity": 122}, {"time": 1861, "pitch": 78, "duration": 3, "velocity": 127}, {"time": 1864, "pitch": 76, "duration": 3, "velocity": 127}, {"time": 1867, "pitch": 75, "duration": 3, "velocity": 117}, {"time": 1870, "pitch": 76, "duration": 3, "velocity": 112}, {"time": 1873, "pitch": 78, "duration": 6, "velocity": 127}, {"time": 1879, "pitch": 80, "duration": 3, "velocity": 127}, {"time": 1882, "pitch": 78, "duration": 6, "velocity": 127}, {"time": 1888, "pitch": 75, "duration": 9, "velocity": 122}, {"time": 1897, "pitch": 78, "duration": 6, "velocity": 127}, {"time": 1903, "pitch": 80, "duration": 3, "velocity": 117}, {"time": 1906, "pitch": 78, "duration": 6, "velocity": 127}, {"time": 1912, "pitch": 73, "duration": 12, "velocity": 117}, {"time": 1924, "pitch": 71, "duration": 3, "velocity": 96}, {"time": 1927, "pitch": 83, "duration": 3, "velocity": 112}, {"time": 1930, "pitch": 85, "duration": 3, "velocity": 127}, {"time": 1933, "pitch": 82, "duration": 3, "velocity": 127}, {"time": 1936, "pitch": 78, "duration": 6, "velocity": 122}, {"time": 1942, "pitch": 75, "duration": 6, "velocity": 117}, {"time": 1948, "pitch": 80, "duration": 3, "velocity": 122}, {"time": 1951, "pitch": 78, "duration": 21, "velocity": 117}, {"time": 1972, "pitch": 71, "duration": 3, "velocity": 93}, {"time": 1975, "pitch": 83, "duration": 3, "velocity": 112}, {"time": 1978, "pitch": 82, "duration": 3, "velocity": 127}, {"time": 1981, "pitch": 80, "duration": 3, "velocity": 122}, {"time": 1984, "pitch": 78, "duration": 6, "velocity": 127}, {"time": 1990, "pitch": 75, "duration": 3, "velocity": 107}, {"time": 1993, "pitch": 78, "duration": 12, "velocity": 127}, {"time": 2005, "pitch": 75, "duration": 6, "velocity": 127}, {"time": 2011, "pitch": 73, "duration": 6, "velocity": 127}, {"time": 2017, "pitch": 71, "duration": 6, "velocity": 117}, {"time": 2023, "pitch": 73, "duration": 24, "velocity": 112}, {"time": 2047, "pitch": 76, "duration": 3, "velocity": 96}, {"time": 2050, "pitch": 75, "duration": 6, "velocity": 102}, {"time": 2056, "pitch": 71, "duration": 9, "velocity": 97}, {"time": 2065, "pitch": 68, "duration": 6, "velocity": 96}, {"time": 2071, "pitch": 71, "duration": 42, "velocity": 96}, {"time": 2161, "pitch": 80, "duration": 72, "velocity": 127}, {"time": 2233, "pitch": 83, "duration": 3, "velocity": 117}, {"time": 2236, "pitch": 85, "duration": 7, "velocity": 117}, {"time": 2242, "pitch": 82, "duration": 3, "velocity": 122}, {"time": 2245, "pitch": 80, "duration": 76, "velocity": 117}, {"time": 2407, "pitch": 80, "duration": 3, "velocity": 127}, {"time": 2410, "pitch": 78, "duration": 9, "velocity": 102}, {"time": 2419, "pitch": 80, "duration": 3, "velocity": 127}, {"time": 2422, "pitch": 78, "duration": 6, "velocity": 127}, {"time": 2428, "pitch": 80, "duration": 3, "velocity": 127}, {"time": 2431, "pitch": 78, "duration": 3, "velocity": 127}, {"time": 2434, "pitch": 78, "duration": 3, "velocity": 127}, {"time": 2437, "pitch": 78, "duration": 3, "velocity": 112}, {"time": 2440, "pitch": 76, "duration": 3, "velocity": 107}, {"time": 2443, "pitch": 75, "duration": 3, "velocity": 117}, {"time": 2446, "pitch": 76, "duration": 3, "velocity": 112}, {"time": 2449, "pitch": 78, "duration": 6, "velocity": 127}, {"time": 2455, "pitch": 80, "duration": 3, "velocity": 79}, {"time": 2458, "pitch": 78, "duration": 6, "velocity": 122}, {"time": 2464, "pitch": 75, "duration": 9, "velocity": 117}, {"time": 2473, "pitch": 78, "duration": 6, "velocity": 127}, {"time": 2479, "pitch": 80, "duration": 3, "velocity": 112}, {"time": 2482, "pitch": 78, "duration": 6, "velocity": 127}, {"time": 2488, "pitch": 73, "duration": 12, "velocity": 122}, {"time": 2500, "pitch": 71, "duration": 3, "velocity": 89}, {"time": 2503, "pitch": 83, "duration": 4, "velocity": 95}, {"time": 2506, "pitch": 82, "duration": 3, "velocity": 122}, {"time": 2509, "pitch": 80, "duration": 6, "velocity": 122}, {"time": 2515, "pitch": 78, "duration": 3, "velocity": 122}, {"time": 2518, "pitch": 75, "duration": 6, "velocity": 112}, {"time": 2524, "pitch": 78, "duration": 24, "velocity": 127}, {"time": 2548, "pitch": 71, "duration": 3, "velocity": 92}, {"time": 2551, "pitch": 83, "duration": 3, "velocity": 96}, {"time": 2554, "pitch": 82, "duration": 3, "velocity": 100}, {"time": 2557, "pitch": 80, "duration": 3, "velocity": 127}, {"time": 2560, "pitch": 78, "duration": 6, "velocity": 127}, {"time": 2566, "pitch": 75, "duration": 3, "velocity": 117}, {"time": 2569, "pitch": 78, "duration": 12, "velocity": 127}, {"time": 2581, "pitch": 75, "duration": 3, "velocity": 127}, {"time": 2584, "pitch": 73, "duration": 6, "velocity": 122}, {"time": 2590, "pitch": 71, "duration": 3, "velocity": 92}, {"time": 2593, "pitch": 73, "duration": 6, "velocity": 127}, {"time": 2599, "pitch": 75, "duration": 3, "velocity": 117}, {"time": 2602, "pitch": 80, "duration": 6, "velocity": 127}, {"time": 2608, "pitch": 75, "duration": 9, "velocity": 127}, {"time": 2617, "pitch": 73, "duration": 10, "velocity": 127}, {"time": 2626, "pitch": 78, "duration": 3, "velocity": 122}, {"time": 2629, "pitch": 78, "duration": 3, "velocity": 127}, {"time": 2632, "pitch": 76, "duration": 3, "velocity": 127}, {"time": 2635, "pitch": 75, "duration": 3, "velocity": 117}, {"time": 2638, "pitch": 76, "duration": 3, "velocity": 112}, {"time": 2641, "pitch": 78, "duration": 6, "velocity": 127}, {"time": 2647, "pitch": 80, "duration": 3, "velocity": 127}, {"time": 2650, "pitch": 78, "duration": 6, "velocity": 127}, {"time": 2656, "pitch": 75, "duration": 9, "velocity": 122}, {"time": 2665, "pitch": 78, "duration": 6, "velocity": 127}, {"time": 2671, "pitch": 80, "duration": 3, "velocity": 117}, {"time": 2674, "pitch": 78, "duration": 6, "velocity": 127}, {"time": 2680, "pitch": 73, "duration": 12, "velocity": 117}, {"time": 2692, "pitch": 71, "duration": 3, "velocity": 96}, {"time": 2695, "pitch": 83, "duration": 3, "velocity": 112}, {"time": 2698, "pitch": 85, "duration": 3, "velocity": 127}, {"time": 2701, "pitch": 82, "duration": 3, "velocity": 127}, {"time": 2704, "pitch": 78, "duration": 6, "velocity": 122}, {"time": 2710, "pitch": 75, "duration": 6, "velocity": 117}, {"time": 2716, "pitch": 80, "duration": 3, "velocity": 122}, {"time": 2719, "pitch": 78, "duration": 21, "velocity": 117}, {"time": 2740, "pitch": 71, "duration": 3, "velocity": 93}, {"time": 2743, "pitch": 83, "duration": 3, "velocity": 112}, {"time": 2746, "pitch": 82, "duration": 3, "velocity": 127}, {"time": 2749, "pitch": 80, "duration": 3, "velocity": 122}, {"time": 2752, "pitch": 78, "duration": 6, "velocity": 127}, {"time": 2758, "pitch": 75, "duration": 3, "velocity": 107}, {"time": 2761, "pitch": 78, "duration": 12, "velocity": 127}, {"time": 2773, "pitch": 75, "duration": 6, "velocity": 127}, {"time": 2779, "pitch": 73, "duration": 6, "velocity": 127}, {"time": 2785, "pitch": 71, "duration": 6, "velocity": 117}, {"time": 2791, "pitch": 73, "duration": 24, "velocity": 112}, {"time": 2815, "pitch": 76, "duration": 3, "velocity": 96}, {"time": 2818, "pitch": 75, "duration": 6, "velocity": 102}, {"time": 2824, "pitch": 71, "duration": 18, "velocity": 97}, {"time": 2842, "pitch": 68, "duration": 15, "velocity": 107}, {"time": 2857, "pitch": 73, "duration": 4, "velocity": 122}, {"time": 2860, "pitch": 71, "duration": 68, "velocity": 95}]}, {"program": 0, "is_drum": false, "name": "PIANO", "notes": [{"time": 73, "pitch": 44, "duration": 18, "velocity": 93}, {"time": 79, "pitch": 56, "duration": 7, "velocity": 44}, {"time": 85, "pitch": 59, "duration": 13, "velocity": 75}, {"time": 85, "pitch": 63, "duration": 12, "velocity": 89}, {"time": 85, "pitch": 68, "duration": 12, "velocity": 73}, {"time": 91, "pitch": 56, "duration": 1, "velocity": 58}, {"time": 97, "pitch": 42, "duration": 15, "velocity": 85}, {"time": 103, "pitch": 54, "duration": 5, "velocity": 68}, {"time": 109, "pitch": 58, "duration": 13, "velocity": 100}, {"time": 109, "pitch": 61, "duration": 12, "velocity": 78}, {"time": 115, "pitch": 54, "duration": 7, "velocity": 89}, {"time": 121, "pitch": 37, "duration": 49, "velocity": 68}, {"time": 121, "pitch": 44, "duration": 48, "velocity": 72}, {"time": 121, "pitch": 49, "duration": 14, "velocity": 78}, {"time": 121, "pitch": 56, "duration": 10, "velocity": 96}, {"time": 121, "pitch": 61, "duration": 1, "velocity": 72}, {"time": 121, "pitch": 64, "duration": 10, "velocity": 76}, {"time": 133, "pitch": 56, "duration": 7, "velocity": 97}, {"time": 133, "pitch": 61, "duration": 7, "velocity": 99}, {"time": 133, "pitch": 64, "duration": 7, "velocity": 86}, {"time": 139, "pitch": 49, "duration": 10, "velocity": 66}, {"time": 142, "pitch": 56, "duration": 1, "velocity": 75}, {"time": 142, "pitch": 61, "duration": 1, "velocity": 69}, {"time": 142, "pitch": 64, "duration": 1, "velocity": 72}, {"time": 148, "pitch": 56, "duration": 1, "velocity": 74}, {"time": 148, "pitch": 61, "duration": 1, "velocity": 73}, {"time": 148, "pitch": 64, "duration": 1, "velocity": 74}, {"time": 154, "pitch": 49, "duration": 4, "velocity": 33}, {"time": 157, "pitch": 56, "duration": 1, "velocity": 93}, {"time": 157, "pitch": 61, "duration": 1, "velocity": 95}, {"time": 157, "pitch": 64, "duration": 1, "velocity": 86}, {"time": 163, "pitch": 61, "duration": 6, "velocity": 90}, {"time": 166, "pitch": 56, "duration": 3, "velocity": 83}, {"time": 169, "pitch": 44, "duration": 1, "velocity": 97}, {"time": 175, "pitch": 56, "duration": 4, "velocity": 74}, {"time": 181, "pitch": 59, "duration": 12, "velocity": 95}, {"time": 181, "pitch": 63, "duration": 13, "velocity": 112}, {"time": 187, "pitch": 56, "duration": 7, "velocity": 93}, {"time": 193, "pitch": 42, "duration": 14, "velocity": 100}, {"time": 199, "pitch": 54, "duration": 9, "velocity": 77}, {"time": 205, "pitch": 58, "duration": 3, "velocity": 97}, {"time": 205, "pitch": 61, "duration": 4, "velocity": 100}, {"time": 217, "pitch": 37, "duration": 39, "velocity": 89}, {"time": 217, "pitch": 61, "duration": 5, "velocity": 93}, {"time": 217, "pitch": 64, "duration": 4, "velocity": 70}, {"time": 217, "pitch": 68, "duration": 4, "velocity": 79}, {"time": 223, "pitch": 49, "duration": 8, "velocity": 96}, {"time": 229, "pitch": 61, "duration": 9, "velocity": 81}, {"time": 235, "pitch": 49, "duration": 19, "velocity": 61}, {"time": 241, "pitch": 56, "duration": 11, "velocity": 89}, {"time": 241, "pitch": 61, "duration": 11, "velocity": 74}, {"time": 241, "pitch": 64, "duration": 11, "velocity": 74}, {"time": 253, "pitch": 56, "duration": 6, "velocity": 86}, {"time": 253, "pitch": 61, "duration": 10, "velocity": 67}, {"time": 253, "pitch": 64, "duration": 6, "velocity": 77}, {"time": 265, "pitch": 47, "duration": 13, "velocity": 63}, {"time": 265, "pitch": 59, "duration": 10, "velocity": 81}, {"time": 265, "pitch": 63, "duration": 10, "velocity": 89}, {"time": 265, "pitch": 66, "duration": 10, "velocity": 81}, {"time": 277, "pitch": 59, "duration": 1, "velocity": 74}, {"time": 277, "pitch": 63, "duration": 1, "velocity": 95}, {"time": 277, "pitch": 66, "duration": 1, "velocity": 90}, {"time": 289, "pitch": 44, "duration": 4, "velocity": 66}, {"time": 292, "pitch": 56, "duration": 4, "velocity": 86}, {"time": 292, "pitch": 59, "duration": 4, "velocity": 79}, {"time": 292, "pitch": 63, "duration": 3, "velocity": 78}, {"time": 301, "pitch": 56, "duration": 11, "velocity": 85}, {"time": 301, "pitch": 59, "duration": 11, "velocity": 41}, {"time": 301, "pitch": 61, "duration": 11, "velocity": 60}, {"time": 301, "pitch": 63, "duration": 11, "velocity": 66}, {"time": 313, "pitch": 39, "duration": 25, "velocity": 75}, {"time": 313, "pitch": 51, "duration": 11, "velocity": 83}, {"time": 313, "pitch": 54, "duration": 10, "velocity": 88}, {"time": 313, "pitch": 58, "duration": 11, "velocity": 69}, {"time": 313, "pitch": 63, "duration": 8, "velocity": 74}, {"time": 325, "pitch": 51, "duration": 12, "velocity": 90}, {"time": 325, "pitch": 54, "duration": 12, "velocity": 76}, {"time": 325, "pitch": 58, "duration": 12, "velocity": 63}, {"time": 325, "pitch": 63, "duration": 12, "velocity": 72}, {"time": 343, "pitch": 39, "duration": 8, "velocity": 70}, {"time": 343, "pitch": 51, "duration": 7, "velocity": 90}, {"time": 343, "pitch": 54, "duration": 7, "velocity": 99}, {"time": 343, "pitch": 58, "duration": 7, "velocity": 74}, {"time": 343, "pitch": 63, "duration": 7, "velocity": 74}, {"time": 352, "pitch": 39, "duration": 9, "velocity": 72}, {"time": 352, "pitch": 51, "duration": 4, "velocity": 79}, {"time": 352, "pitch": 54, "duration": 4, "velocity": 88}, {"time": 352, "pitch": 58, "duration": 4, "velocity": 67}, {"time": 352, "pitch": 63, "duration": 4, "velocity": 76}, {"time": 358, "pitch": 51, "duration": 4, "velocity": 86}, {"time": 358, "pitch": 54, "duration": 3, "velocity": 95}, {"time": 358, "pitch": 58, "duration": 3, "velocity": 69}, {"time": 358, "pitch": 63, "duration": 3, "velocity": 82}, {"time": 361, "pitch": 40, "duration": 20, "velocity": 67}, {"time": 361, "pitch": 52, "duration": 10, "velocity": 69}, {"time": 361, "pitch": 56, "duration": 10, "velocity": 74}, {"time": 361, "pitch": 59, "duration": 10, "velocity": 75}, {"time": 361, "pitch": 64, "duration": 11, "velocity": 75}, {"time": 373, "pitch": 52, "duration": 10, "velocity": 88}, {"time": 373, "pitch": 56, "duration": 10, "velocity": 93}, {"time": 373, "pitch": 59, "duration": 9, "velocity": 79}, {"time": 373, "pitch": 64, "duration": 9, "velocity": 75}, {"time": 385, "pitch": 37, "duration": 17, "velocity": 40}, {"time": 385, "pitch": 49, "duration": 23, "velocity": 81}, {"time": 385, "pitch": 52, "duration": 11, "velocity": 89}, {"time": 385, "pitch": 56, "duration": 11, "velocity": 93}, {"time": 385, "pitch": 61, "duration": 11, "velocity": 76}, {"time": 397, "pitch": 52, "duration": 9, "velocity": 78}, {"time": 397, "pitch": 56, "duration": 9, "velocity": 95}, {"time": 397, "pitch": 61, "duration": 9, "velocity": 96}, {"time": 409, "pitch": 42, "duration": 20, "velocity": 85}, {"time": 409, "pitch": 54, "duration": 4, "velocity": 69}, {"time": 409, "pitch": 59, "duration": 6, "velocity": 72}, {"time": 409, "pitch": 61, "duration": 7, "velocity": 66}, {"time": 415, "pitch": 54, "duration": 6, "velocity": 59}, {"time": 421, "pitch": 54, "duration": 1, "velocity": 42}, {"time": 421, "pitch": 59, "duration": 6, "velocity": 92}, {"time": 421, "pitch": 61, "duration": 7, "velocity": 99}, {"time": 427, "pitch": 54, "duration": 10, "velocity": 64}, {"time": 433, "pitch": 42, "duration": 13, "velocity": 58}, {"time": 433, "pitch": 58, "duration": 7, "velocity": 71}, {"time": 433, "pitch": 61, "duration": 7, "velocity": 65}, {"time": 442, "pitch": 54, "duration": 2, "velocity": 60}, {"time": 442, "pitch": 58, "duration": 2, "velocity": 40}, {"time": 442, "pitch": 61, "duration": 2, "velocity": 50}, {"time": 445, "pitch": 54, "duration": 3, "velocity": 100}, {"time": 445, "pitch": 58, "duration": 7, "velocity": 122}, {"time": 445, "pitch": 61, "duration": 7, "velocity": 112}, {"time": 448, "pitch": 42, "duration": 3, "velocity": 102}, {"time": 451, "pitch": 54, "duration": 6, "velocity": 81}, {"time": 457, "pitch": 35, "duration": 22, "velocity": 85}, {"time": 463, "pitch": 42, "duration": 16, "velocity": 58}, {"time": 469, "pitch": 66, "duration": 14, "velocity": 96}, {"time": 472, "pitch": 47, "duration": 7, "velocity": 38}, {"time": 475, "pitch": 59, "duration": 10, "velocity": 76}, {"time": 478, "pitch": 63, "duration": 5, "velocity": 67}, {"time": 481, "pitch": 32, "duration": 14, "velocity": 83}, {"time": 487, "pitch": 56, "duration": 6, "velocity": 73}, {"time": 493, "pitch": 59, "duration": 11, "velocity": 72}, {"time": 493, "pitch": 63, "duration": 12, "velocity": 95}, {"time": 499, "pitch": 56, "duration": 7, "velocity": 82}, {"time": 505, "pitch": 39, "duration": 23, "velocity": 97}, {"time": 511, "pitch": 51, "duration": 19, "velocity": 65}, {"time": 517, "pitch": 58, "duration": 18, "velocity": 99}, {"time": 517, "pitch": 63, "duration": 18, "velocity": 100}, {"time": 523, "pitch": 54, "duration": 14, "velocity": 70}, {"time": 529, "pitch": 39, "duration": 17, "velocity": 73}, {"time": 535, "pitch": 51, "duration": 7, "velocity": 56}, {"time": 541, "pitch": 58, "duration": 6, "velocity": 71}, {"time": 541, "pitch": 63, "duration": 12, "velocity": 102}, {"time": 544, "pitch": 51, "duration": 2, "velocity": 73}, {"time": 547, "pitch": 54, "duration": 7, "velocity": 86}, {"time": 550, "pitch": 58, "duration": 3, "velocity": 62}, {"time": 553, "pitch": 40, "duration": 15, "velocity": 72}, {"time": 559, "pitch": 47, "duration": 9, "velocity": 63}, {"time": 565, "pitch": 56, "duration": 12, "velocity": 93}, {"time": 565, "pitch": 59, "duration": 8, "velocity": 79}, {"time": 571, "pitch": 52, "duration": 6, "velocity": 66}, {"time": 577, "pitch": 39, "duration": 16, "velocity": 89}, {"time": 583, "pitch": 51, "duration": 8, "velocity": 79}, {"time": 589, "pitch": 58, "duration": 12, "velocity": 99}, {"time": 589, "pitch": 63, "duration": 12, "velocity": 97}, {"time": 595, "pitch": 54, "duration": 6, "velocity": 64}, {"time": 601, "pitch": 37, "duration": 19, "velocity": 97}, {"time": 607, "pitch": 49, "duration": 7, "velocity": 79}, {"time": 613, "pitch": 52, "duration": 5, "velocity": 85}, {"time": 613, "pitch": 56, "duration": 6, "velocity": 112}, {"time": 613, "pitch": 61, "duration": 6, "velocity": 100}, {"time": 619, "pitch": 49, "duration": 6, "velocity": 90}, {"time": 625, "pitch": 42, "duration": 16, "velocity": 95}, {"time": 625, "pitch": 54, "duration": 5, "velocity": 99}, {"time": 625, "pitch": 58, "duration": 11, "velocity": 112}, {"time": 625, "pitch": 61, "duration": 10, "velocity": 99}, {"time": 631, "pitch": 54, "duration": 4, "velocity": 61}, {"time": 637, "pitch": 54, "duration": 8, "velocity": 100}, {"time": 637, "pitch": 58, "duration": 7, "velocity": 107}, {"time": 637, "pitch": 61, "duration": 10, "velocity": 100}, {"time": 643, "pitch": 42, "duration": 5, "velocity": 51}, {"time": 646, "pitch": 54, "duration": 1, "velocity": 44}, {"time": 646, "pitch": 58, "duration": 1, "velocity": 62}, {"time": 646, "pitch": 66, "duration": 1, "velocity": 61}, {"time": 649, "pitch": 42, "duration": 22, "velocity": 99}, {"time": 649, "pitch": 54, "duration": 23, "velocity": 100}, {"time": 649, "pitch": 58, "duration": 23, "velocity": 122}, {"time": 649, "pitch": 61, "duration": 23, "velocity": 93}, {"time": 649, "pitch": 66, "duration": 23, "velocity": 97}, {"time": 673, "pitch": 35, "duration": 19, "velocity": 90}, {"time": 676, "pitch": 42, "duration": 16, "velocity": 72}, {"time": 679, "pitch": 47, "duration": 7, "velocity": 90}, {"time": 682, "pitch": 59, "duration": 4, "velocity": 99}, {"time": 685, "pitch": 63, "duration": 6, "velocity": 72}, {"time": 685, "pitch": 66, "duration": 12, "velocity": 122}, {"time": 688, "pitch": 47, "duration": 5, "velocity": 93}, {"time": 691, "pitch": 59, "duration": 7, "velocity": 99}, {"time": 694, "pitch": 63, "duration": 3, "velocity": 122}, {"time": 697, "pitch": 42, "duration": 18, "velocity": 93}, {"time": 700, "pitch": 54, "duration": 4, "velocity": 81}, {"time": 703, "pitch": 58, "duration": 4, "velocity": 83}, {"time": 706, "pitch": 54, "duration": 4, "velocity": 107}, {"time": 706, "pitch": 61, "duration": 15, "velocity": 17}, {"time": 709, "pitch": 58, "duration": 2, "velocity": 16}, {"time": 709, "pitch": 66, "duration": 13, "velocity": 88}, {"time": 712, "pitch": 54, "duration": 4, "velocity": 93}, {"time": 715, "pitch": 58, "duration": 6, "velocity": 76}, {"time": 718, "pitch": 54, "duration": 3, "velocity": 95}, {"time": 721, "pitch": 32, "duration": 17, "velocity": 79}, {"time": 724, "pitch": 44, "duration": 5, "velocity": 97}, {"time": 727, "pitch": 56, "duration": 6, "velocity": 96}, {"time": 730, "pitch": 44, "duration": 4, "velocity": 92}, {"time": 733, "pitch": 59, "duration": 6, "velocity": 83}, {"time": 733, "pitch": 63, "duration": 6, "velocity": 112}, {"time": 736, "pitch": 44, "duration": 1, "velocity": 52}, {"time": 739, "pitch": 56, "duration": 7, "velocity": 112}, {"time": 742, "pitch": 59, "duration": 3, "velocity": 66}, {"time": 742, "pitch": 63, "duration": 3, "velocity": 107}, {"time": 745, "pitch": 39, "duration": 19, "velocity": 88}, {"time": 748, "pitch": 51, "duration": 5, "velocity": 93}, {"time": 751, "pitch": 54, "duration": 7, "velocity": 102}, {"time": 754, "pitch": 58, "duration": 4, "velocity": 75}, {"time": 757, "pitch": 63, "duration": 13, "velocity": 112}, {"time": 760, "pitch": 51, "duration": 4, "velocity": 88}, {"time": 763, "pitch": 54, "duration": 7, "velocity": 99}, {"time": 766, "pitch": 58, "duration": 3, "velocity": 81}, {"time": 769, "pitch": 40, "duration": 17, "velocity": 71}, {"time": 772, "pitch": 47, "duration": 5, "velocity": 73}, {"time": 775, "pitch": 52, "duration": 6, "velocity": 92}, {"time": 778, "pitch": 47, "duration": 4, "velocity": 78}, {"time": 781, "pitch": 56, "duration": 6, "velocity": 100}, {"time": 781, "pitch": 59, "duration": 11, "velocity": 100}, {"time": 784, "pitch": 47, "duration": 1, "velocity": 92}, {"time": 787, "pitch": 52, "duration": 6, "velocity": 96}, {"time": 790, "pitch": 56, "duration": 3, "velocity": 96}, {"time": 793, "pitch": 39, "duration": 17, "velocity": 82}, {"time": 796, "pitch": 51, "duration": 4, "velocity": 92}, {"time": 799, "pitch": 54, "duration": 6, "velocity": 96}, {"time": 802, "pitch": 51, "duration": 4, "velocity": 86}, {"time": 805, "pitch": 58, "duration": 6, "velocity": 90}, {"time": 805, "pitch": 63, "duration": 12, "velocity": 102}, {"time": 808, "pitch": 51, "duration": 1, "velocity": 95}, {"time": 811, "pitch": 54, "duration": 7, "velocity": 100}, {"time": 814, "pitch": 58, "duration": 3, "velocity": 95}, {"time": 817, "pitch": 37, "duration": 18, "velocity": 83}, {"time": 820, "pitch": 49, "duration": 10, "velocity": 93}, {"time": 823, "pitch": 52, "duration": 7, "velocity": 89}, {"time": 826, "pitch": 56, "duration": 4, "velocity": 93}, {"time": 829, "pitch": 61, "duration": 12, "velocity": 112}, {"time": 832, "pitch": 49, "duration": 4, "velocity": 93}, {"time": 835, "pitch": 52, "duration": 5, "velocity": 93}, {"time": 838, "pitch": 56, "duration": 3, "velocity": 95}, {"time": 841, "pitch": 42, "duration": 19, "velocity": 117}, {"time": 844, "pitch": 54, "duration": 10, "velocity": 107}, {"time": 847, "pitch": 58, "duration": 7, "velocity": 97}, {"time": 850, "pitch": 61, "duration": 8, "velocity": 107}, {"time": 853, "pitch": 66, "duration": 6, "velocity": 127}, {"time": 856, "pitch": 54, "duration": 4, "velocity": 107}, {"time": 859, "pitch": 58, "duration": 7, "velocity": 112}, {"time": 862, "pitch": 61, "duration": 4, "velocity": 100}, {"time": 862, "pitch": 66, "duration": 4, "velocity": 127}, {"time": 865, "pitch": 47, "duration": 17, "velocity": 86}, {"time": 868, "pitch": 54, "duration": 10, "velocity": 96}, {"time": 871, "pitch": 59, "duration": 8, "velocity": 92}, {"time": 874, "pitch": 63, "duration": 4, "velocity": 93}, {"time": 877, "pitch": 66, "duration": 11, "velocity": 127}, {"time": 880, "pitch": 54, "duration": 2, "velocity": 99}, {"time": 883, "pitch": 63, "duration": 5, "velocity": 122}, {"time": 886, "pitch": 59, "duration": 3, "velocity": 100}, {"time": 889, "pitch": 42, "duration": 22, "velocity": 92}, {"time": 892, "pitch": 49, "duration": 12, "velocity": 71}, {"time": 895, "pitch": 54, "duration": 8, "velocity": 112}, {"time": 898, "pitch": 58, "duration": 8, "velocity": 99}, {"time": 901, "pitch": 61, "duration": 6, "velocity": 90}, {"time": 901, "pitch": 66, "duration": 5, "velocity": 96}, {"time": 904, "pitch": 49, "duration": 1, "velocity": 90}, {"time": 907, "pitch": 58, "duration": 4, "velocity": 32}, {"time": 907, "pitch": 61, "duration": 6, "velocity": 42}, {"time": 907, "pitch": 66, "duration": 6, "velocity": 77}, {"time": 910, "pitch": 54, "duration": 3, "velocity": 102}, {"time": 913, "pitch": 44, "duration": 19, "velocity": 64}, {"time": 916, "pitch": 56, "duration": 4, "velocity": 90}, {"time": 919, "pitch": 59, "duration": 4, "velocity": 79}, {"time": 922, "pitch": 51, "duration": 5, "velocity": 85}, {"time": 925, "pitch": 59, "duration": 12, "velocity": 75}, {"time": 925, "pitch": 63, "duration": 13, "velocity": 93}, {"time": 928, "pitch": 51, "duration": 3, "velocity": 68}, {"time": 931, "pitch": 56, "duration": 1, "velocity": 25}, {"time": 931, "pitch": 68, "duration": 6, "velocity": 92}, {"time": 934, "pitch": 56, "duration": 3, "velocity": 86}, {"time": 937, "pitch": 42, "duration": 18, "velocity": 99}, {"time": 940, "pitch": 54, "duration": 4, "velocity": 97}, {"time": 943, "pitch": 57, "duration": 7, "velocity": 97}, {"time": 946, "pitch": 54, "duration": 4, "velocity": 100}, {"time": 949, "pitch": 61, "duration": 6, "velocity": 102}, {"time": 949, "pitch": 66, "duration": 11, "velocity": 122}, {"time": 952, "pitch": 54, "duration": 2, "velocity": 95}, {"time": 955, "pitch": 57, "duration": 7, "velocity": 107}, {"time": 958, "pitch": 61, "duration": 3, "velocity": 117}, {"time": 961, "pitch": 40, "duration": 17, "velocity": 82}, {"time": 964, "pitch": 47, "duration": 4, "velocity": 59}, {"time": 967, "pitch": 52, "duration": 7, "velocity": 85}, {"time": 970, "pitch": 47, "duration": 4, "velocity": 66}, {"time": 973, "pitch": 56, "duration": 6, "velocity": 107}, {"time": 973, "pitch": 59, "duration": 11, "velocity": 102}, {"time": 976, "pitch": 47, "duration": 1, "velocity": 90}, {"time": 979, "pitch": 52, "duration": 6, "velocity": 97}, {"time": 982, "pitch": 56, "duration": 3, "velocity": 107}, {"time": 985, "pitch": 39, "duration": 20, "velocity": 97}, {"time": 988, "pitch": 51, "duration": 4, "velocity": 76}, {"time": 991, "pitch": 54, "duration": 7, "velocity": 97}, {"time": 994, "pitch": 51, "duration": 4, "velocity": 78}, {"time": 997, "pitch": 58, "duration": 6, "velocity": 97}, {"time": 997, "pitch": 63, "duration": 8, "velocity": 117}, {"time": 1000, "pitch": 51, "duration": 9, "velocity": 86}, {"time": 1003, "pitch": 54, "duration": 6, "velocity": 107}, {"time": 1006, "pitch": 58, "duration": 3, "velocity": 79}, {"time": 1006, "pitch": 63, "duration": 3, "velocity": 95}, {"time": 1009, "pitch": 37, "duration": 16, "velocity": 112}, {"time": 1012, "pitch": 49, "duration": 4, "velocity": 92}, {"time": 1015, "pitch": 52, "duration": 7, "velocity": 86}, {"time": 1018, "pitch": 49, "duration": 4, "velocity": 88}, {"time": 1021, "pitch": 56, "duration": 6, "velocity": 97}, {"time": 1021, "pitch": 61, "duration": 6, "velocity": 117}, {"time": 1024, "pitch": 49, "duration": 2, "velocity": 92}, {"time": 1027, "pitch": 52, "duration": 1, "velocity": 90}, {"time": 1033, "pitch": 42, "duration": 49, "velocity": 82}, {"time": 1033, "pitch": 54, "duration": 48, "velocity": 100}, {"time": 1033, "pitch": 58, "duration": 48, "velocity": 100}, {"time": 1033, "pitch": 61, "duration": 49, "velocity": 93}, {"time": 1081, "pitch": 32, "duration": 16, "velocity": 76}, {"time": 1081, "pitch": 44, "duration": 10, "velocity": 82}, {"time": 1081, "pitch": 56, "duration": 4, "velocity": 96}, {"time": 1081, "pitch": 59, "duration": 4, "velocity": 90}, {"time": 1081, "pitch": 63, "duration": 4, "velocity": 93}, {"time": 1087, "pitch": 56, "duration": 1, "velocity": 59}, {"time": 1087, "pitch": 59, "duration": 1, "velocity": 66}, {"time": 1087, "pitch": 63, "duration": 1, "velocity": 45}, {"time": 1090, "pitch": 56, "duration": 1, "velocity": 42}, {"time": 1090, "pitch": 59, "duration": 1, "velocity": 55}, {"time": 1090, "pitch": 63, "duration": 1, "velocity": 45}, {"time": 1093, "pitch": 44, "duration": 5, "velocity": 65}, {"time": 1093, "pitch": 56, "duration": 4, "velocity": 83}, {"time": 1093, "pitch": 59, "duration": 4, "velocity": 81}, {"time": 1093, "pitch": 63, "duration": 4, "velocity": 86}, {"time": 1099, "pitch": 56, "duration": 1, "velocity": 95}, {"time": 1105, "pitch": 42, "duration": 14, "velocity": 63}, {"time": 1105, "pitch": 54, "duration": 11, "velocity": 93}, {"time": 1105, "pitch": 58, "duration": 11, "velocity": 72}, {"time": 1105, "pitch": 61, "duration": 11, "velocity": 77}, {"time": 1117, "pitch": 58, "duration": 3, "velocity": 117}, {"time": 1117, "pitch": 61, "duration": 3, "velocity": 100}, {"time": 1129, "pitch": 37, "duration": 49, "velocity": 86}, {"time": 1129, "pitch": 56, "duration": 10, "velocity": 86}, {"time": 1129, "pitch": 61, "duration": 8, "velocity": 82}, {"time": 1135, "pitch": 49, "duration": 10, "velocity": 53}, {"time": 1138, "pitch": 44, "duration": 40, "velocity": 18}, {"time": 1141, "pitch": 56, "duration": 7, "velocity": 82}, {"time": 1141, "pitch": 61, "duration": 7, "velocity": 74}, {"time": 1141, "pitch": 64, "duration": 7, "velocity": 75}, {"time": 1147, "pitch": 49, "duration": 8, "velocity": 38}, {"time": 1150, "pitch": 56, "duration": 1, "velocity": 38}, {"time": 1150, "pitch": 61, "duration": 1, "velocity": 64}, {"time": 1150, "pitch": 64, "duration": 1, "velocity": 63}, {"time": 1156, "pitch": 56, "duration": 7, "velocity": 65}, {"time": 1156, "pitch": 61, "duration": 6, "velocity": 68}, {"time": 1156, "pitch": 64, "duration": 7, "velocity": 72}, {"time": 1162, "pitch": 49, "duration": 4, "velocity": 43}, {"time": 1165, "pitch": 56, "duration": 5, "velocity": 89}, {"time": 1165, "pitch": 61, "duration": 5, "velocity": 66}, {"time": 1165, "pitch": 64, "duration": 5, "velocity": 79}, {"time": 1171, "pitch": 49, "duration": 6, "velocity": 40}, {"time": 1171, "pitch": 56, "duration": 7, "velocity": 71}, {"time": 1171, "pitch": 61, "duration": 7, "velocity": 64}, {"time": 1171, "pitch": 64, "duration": 7, "velocity": 69}, {"time": 1177, "pitch": 32, "duration": 19, "velocity": 68}, {"time": 1177, "pitch": 44, "duration": 1, "velocity": 95}, {"time": 1177, "pitch": 56, "duration": 1, "velocity": 107}, {"time": 1177, "pitch": 59, "duration": 7, "velocity": 90}, {"time": 1177, "pitch": 63, "duration": 8, "velocity": 97}, {"time": 1183, "pitch": 56, "duration": 2, "velocity": 31}, {"time": 1189, "pitch": 56, "duration": 9, "velocity": 96}, {"time": 1189, "pitch": 59, "duration": 6, "velocity": 88}, {"time": 1189, "pitch": 63, "duration": 6, "velocity": 90}, {"time": 1195, "pitch": 44, "duration": 5, "velocity": 69}, {"time": 1201, "pitch": 42, "duration": 12, "velocity": 69}, {"time": 1201, "pitch": 54, "duration": 10, "velocity": 86}, {"time": 1201, "pitch": 58, "duration": 10, "velocity": 82}, {"time": 1201, "pitch": 61, "duration": 10, "velocity": 88}, {"time": 1213, "pitch": 58, "duration": 6, "velocity": 99}, {"time": 1213, "pitch": 61, "duration": 4, "velocity": 86}, {"time": 1219, "pitch": 54, "duration": 1, "velocity": 85}, {"time": 1225, "pitch": 37, "duration": 48, "velocity": 88}, {"time": 1225, "pitch": 52, "duration": 10, "velocity": 88}, {"time": 1225, "pitch": 56, "duration": 10, "velocity": 96}, {"time": 1225, "pitch": 61, "duration": 8, "velocity": 92}, {"time": 1231, "pitch": 49, "duration": 9, "velocity": 73}, {"time": 1234, "pitch": 61, "duration": 1, "velocity": 24}, {"time": 1237, "pitch": 56, "duration": 36, "velocity": 93}, {"time": 1237, "pitch": 61, "duration": 36, "velocity": 92}, {"time": 1243, "pitch": 49, "duration": 30, "velocity": 59}, {"time": 1249, "pitch": 52, "duration": 24, "velocity": 48}, {"time": 1273, "pitch": 35, "duration": 16, "velocity": 69}, {"time": 1273, "pitch": 47, "duration": 13, "velocity": 95}, {"time": 1279, "pitch": 59, "duration": 7, "velocity": 69}, {"time": 1285, "pitch": 63, "duration": 5, "velocity": 127}, {"time": 1285, "pitch": 66, "duration": 5, "velocity": 107}, {"time": 1288, "pitch": 47, "duration": 1, "velocity": 74}, {"time": 1291, "pitch": 59, "duration": 1, "velocity": 78}, {"time": 1297, "pitch": 44, "duration": 13, "velocity": 72}, {"time": 1297, "pitch": 56, "duration": 1, "velocity": 88}, {"time": 1297, "pitch": 59, "duration": 6, "velocity": 79}, {"time": 1297, "pitch": 63, "duration": 6, "velocity": 75}, {"time": 1303, "pitch": 56, "duration": 2, "velocity": 35}, {"time": 1306, "pitch": 59, "duration": 7, "velocity": 78}, {"time": 1306, "pitch": 63, "duration": 9, "velocity": 90}, {"time": 1312, "pitch": 44, "duration": 2, "velocity": 55}, {"time": 1315, "pitch": 56, "duration": 1, "velocity": 93}, {"time": 1321, "pitch": 39, "duration": 46, "velocity": 93}, {"time": 1321, "pitch": 54, "duration": 11, "velocity": 83}, {"time": 1321, "pitch": 58, "duration": 7, "velocity": 74}, {"time": 1327, "pitch": 51, "duration": 7, "velocity": 50}, {"time": 1333, "pitch": 54, "duration": 2, "velocity": 56}, {"time": 1333, "pitch": 58, "duration": 2, "velocity": 86}, {"time": 1333, "pitch": 63, "duration": 2, "velocity": 86}, {"time": 1339, "pitch": 51, "duration": 12, "velocity": 76}, {"time": 1342, "pitch": 54, "duration": 1, "velocity": 82}, {"time": 1342, "pitch": 58, "duration": 1, "velocity": 65}, {"time": 1342, "pitch": 63, "duration": 1, "velocity": 72}, {"time": 1351, "pitch": 54, "duration": 6, "velocity": 90}, {"time": 1354, "pitch": 51, "duration": 4, "velocity": 82}, {"time": 1357, "pitch": 58, "duration": 11, "velocity": 75}, {"time": 1357, "pitch": 63, "duration": 11, "velocity": 95}, {"time": 1360, "pitch": 51, "duration": 3, "velocity": 90}, {"time": 1363, "pitch": 54, "duration": 6, "velocity": 90}, {"time": 1369, "pitch": 40, "duration": 20, "velocity": 67}, {"time": 1369, "pitch": 52, "duration": 10, "velocity": 69}, {"time": 1369, "pitch": 56, "duration": 10, "velocity": 74}, {"time": 1369, "pitch": 59, "duration": 10, "velocity": 75}, {"time": 1369, "pitch": 64, "duration": 11, "velocity": 75}, {"time": 1381, "pitch": 52, "duration": 10, "velocity": 88}, {"time": 1381, "pitch": 56, "duration": 10, "velocity": 93}, {"time": 1381, "pitch": 59, "duration": 9, "velocity": 79}, {"time": 1381, "pitch": 64, "duration": 9, "velocity": 75}, {"time": 1393, "pitch": 37, "duration": 17, "velocity": 40}, {"time": 1393, "pitch": 49, "duration": 23, "velocity": 81}, {"time": 1393, "pitch": 52, "duration": 11, "velocity": 89}, {"time": 1393, "pitch": 56, "duration": 11, "velocity": 93}, {"time": 1393, "pitch": 61, "duration": 11, "velocity": 76}, {"time": 1405, "pitch": 52, "duration": 9, "velocity": 78}, {"time": 1405, "pitch": 56, "duration": 9, "velocity": 95}, {"time": 1405, "pitch": 61, "duration": 9, "velocity": 96}, {"time": 1417, "pitch": 42, "duration": 20, "velocity": 85}, {"time": 1417, "pitch": 54, "duration": 4, "velocity": 69}, {"time": 1417, "pitch": 59, "duration": 6, "velocity": 72}, {"time": 1417, "pitch": 61, "duration": 7, "velocity": 66}, {"time": 1423, "pitch": 54, "duration": 6, "velocity": 59}, {"time": 1429, "pitch": 54, "duration": 1, "velocity": 42}, {"time": 1429, "pitch": 59, "duration": 6, "velocity": 92}, {"time": 1429, "pitch": 61, "duration": 7, "velocity": 99}, {"time": 1435, "pitch": 54, "duration": 10, "velocity": 64}, {"time": 1441, "pitch": 42, "duration": 13, "velocity": 58}, {"time": 1441, "pitch": 58, "duration": 7, "velocity": 71}, {"time": 1441, "pitch": 61, "duration": 7, "velocity": 65}, {"time": 1450, "pitch": 54, "duration": 2, "velocity": 60}, {"time": 1450, "pitch": 58, "duration": 2, "velocity": 40}, {"time": 1450, "pitch": 61, "duration": 2, "velocity": 50}, {"time": 1453, "pitch": 54, "duration": 3, "velocity": 100}, {"time": 1453, "pitch": 58, "duration": 7, "velocity": 122}, {"time": 1453, "pitch": 61, "duration": 7, "velocity": 112}, {"time": 1456, "pitch": 42, "duration": 3, "velocity": 102}, {"time": 1459, "pitch": 54, "duration": 6, "velocity": 81}, {"time": 1465, "pitch": 35, "duration": 22, "velocity": 85}, {"time": 1471, "pitch": 42, "duration": 16, "velocity": 58}, {"time": 1477, "pitch": 66, "duration": 14, "velocity": 96}, {"time": 1480, "pitch": 47, "duration": 7, "velocity": 38}, {"time": 1483, "pitch": 59, "duration": 10, "velocity": 76}, {"time": 1486, "pitch": 63, "duration": 5, "velocity": 67}, {"time": 1489, "pitch": 32, "duration": 14, "velocity": 83}, {"time": 1495, "pitch": 56, "duration": 6, "velocity": 73}, {"time": 1501, "pitch": 59, "duration": 11, "velocity": 72}, {"time": 1501, "pitch": 63, "duration": 12, "velocity": 95}, {"time": 1507, "pitch": 56, "duration": 7, "velocity": 82}, {"time": 1513, "pitch": 39, "duration": 23, "velocity": 97}, {"time": 1519, "pitch": 51, "duration": 19, "velocity": 65}, {"time": 1525, "pitch": 58, "duration": 18, "velocity": 99}, {"time": 1525, "pitch": 63, "duration": 18, "velocity": 100}, {"time": 1531, "pitch": 54, "duration": 14, "velocity": 70}, {"time": 1537, "pitch": 39, "duration": 17, "velocity": 73}, {"time": 1543, "pitch": 51, "duration": 7, "velocity": 56}, {"time": 1549, "pitch": 58, "duration": 6, "velocity": 71}, {"time": 1549, "pitch": 63, "duration": 12, "velocity": 102}, {"time": 1552, "pitch": 51, "duration": 2, "velocity": 73}, {"time": 1555, "pitch": 54, "duration": 7, "velocity": 86}, {"time": 1558, "pitch": 58, "duration": 3, "velocity": 62}, {"time": 1561, "pitch": 40, "duration": 15, "velocity": 72}, {"time": 1567, "pitch": 47, "duration": 9, "velocity": 63}, {"time": 1573, "pitch": 56, "duration": 12, "velocity": 93}, {"time": 1573, "pitch": 59, "duration": 8, "velocity": 79}, {"time": 1579, "pitch": 52, "duration": 6, "velocity": 66}, {"time": 1585, "pitch": 39, "duration": 16, "velocity": 89}, {"time": 1591, "pitch": 51, "duration": 8, "velocity": 79}, {"time": 1597, "pitch": 58, "duration": 12, "velocity": 99}, {"time": 1597, "pitch": 63, "duration": 12, "velocity": 97}, {"time": 1603, "pitch": 54, "duration": 6, "velocity": 64}, {"time": 1609, "pitch": 37, "duration": 19, "velocity": 97}, {"time": 1615, "pitch": 49, "duration": 7, "velocity": 79}, {"time": 1621, "pitch": 52, "duration": 5, "velocity": 85}, {"time": 1621, "pitch": 56, "duration": 6, "velocity": 112}, {"time": 1621, "pitch": 61, "duration": 6, "velocity": 100}, {"time": 1627, "pitch": 49, "duration": 6, "velocity": 90}, {"time": 1633, "pitch": 42, "duration": 16, "velocity": 95}, {"time": 1633, "pitch": 54, "duration": 5, "velocity": 99}, {"time": 1633, "pitch": 58, "duration": 11, "velocity": 112}, {"time": 1633, "pitch": 61, "duration": 10, "velocity": 99}, {"time": 1639, "pitch": 54, "duration": 4, "velocity": 61}, {"time": 1645, "pitch": 54, "duration": 8, "velocity": 100}, {"time": 1645, "pitch": 58, "duration": 7, "velocity": 107}, {"time": 1645, "pitch": 61, "duration": 10, "velocity": 100}, {"time": 1651, "pitch": 42, "duration": 5, "velocity": 51}, {"time": 1654, "pitch": 54, "duration": 1, "velocity": 44}, {"time": 1654, "pitch": 58, "duration": 1, "velocity": 62}, {"time": 1654, "pitch": 66, "duration": 1, "velocity": 61}, {"time": 1657, "pitch": 42, "duration": 22, "velocity": 99}, {"time": 1657, "pitch": 54, "duration": 23, "velocity": 100}, {"time": 1657, "pitch": 58, "duration": 23, "velocity": 122}, {"time": 1657, "pitch": 61, "duration": 23, "velocity": 93}, {"time": 1657, "pitch": 66, "duration": 23, "velocity": 97}, {"time": 1681, "pitch": 35, "duration": 19, "velocity": 90}, {"time": 1684, "pitch": 42, "duration": 16, "velocity": 72}, {"time": 1687, "pitch": 47, "duration": 7, "velocity": 90}, {"time": 1690, "pitch": 59, "duration": 4, "velocity": 99}, {"time": 1693, "pitch": 63, "duration": 6, "velocity": 72}, {"time": 1693, "pitch": 66, "duration": 12, "velocity": 122}, {"time": 1696, "pitch": 47, "duration": 5, "velocity": 93}, {"time": 1699, "pitch": 59, "duration": 7, "velocity": 99}, {"time": 1702, "pitch": 63, "duration": 3, "velocity": 122}, {"time": 1705, "pitch": 42, "duration": 18, "velocity": 93}, {"time": 1708, "pitch": 54, "duration": 4, "velocity": 81}, {"time": 1711, "pitch": 58, "duration": 4, "velocity": 83}, {"time": 1714, "pitch": 54, "duration": 4, "velocity": 107}, {"time": 1714, "pitch": 61, "duration": 15, "velocity": 17}, {"time": 1717, "pitch": 58, "duration": 2, "velocity": 16}, {"time": 1717, "pitch": 66, "duration": 13, "velocity": 88}, {"time": 1720, "pitch": 54, "duration": 4, "velocity": 93}, {"time": 1723, "pitch": 58, "duration": 6, "velocity": 76}, {"time": 1726, "pitch": 54, "duration": 3, "velocity": 95}, {"time": 1729, "pitch": 32, "duration": 17, "velocity": 79}, {"time": 1732, "pitch": 44, "duration": 5, "velocity": 97}, {"time": 1735, "pitch": 56, "duration": 6, "velocity": 96}, {"time": 1738, "pitch": 44, "duration": 4, "velocity": 92}, {"time": 1741, "pitch": 59, "duration": 6, "velocity": 83}, {"time": 1741, "pitch": 63, "duration": 6, "velocity": 112}, {"time": 1744, "pitch": 44, "duration": 1, "velocity": 52}, {"time": 1747, "pitch": 56, "duration": 7, "velocity": 112}, {"time": 1750, "pitch": 59, "duration": 3, "velocity": 66}, {"time": 1750, "pitch": 63, "duration": 3, "velocity": 107}, {"time": 1753, "pitch": 39, "duration": 19, "velocity": 88}, {"time": 1756, "pitch": 51, "duration": 5, "velocity": 93}, {"time": 1759, "pitch": 54, "duration": 7, "velocity": 102}, {"time": 1762, "pitch": 58, "duration": 4, "velocity": 75}, {"time": 1765, "pitch": 63, "duration": 13, "velocity": 112}, {"time": 1768, "pitch": 51, "duration": 4, "velocity": 88}, {"time": 1771, "pitch": 54, "duration": 7, "velocity": 99}, {"time": 1774, "pitch": 58, "duration": 3, "velocity": 81}, {"time": 1777, "pitch": 40, "duration": 17, "velocity": 71}, {"time": 1780, "pitch": 47, "duration": 5, "velocity": 73}, {"time": 1783, "pitch": 52, "duration": 6, "velocity": 92}, {"time": 1786, "pitch": 47, "duration": 4, "velocity": 78}, {"time": 1789, "pitch": 56, "duration": 6, "velocity": 100}, {"time": 1789, "pitch": 59, "duration": 11, "velocity": 100}, {"time": 1792, "pitch": 47, "duration": 1, "velocity": 92}, {"time": 1795, "pitch": 52, "duration": 6, "velocity": 96}, {"time": 1798, "pitch": 56, "duration": 3, "velocity": 96}, {"time": 1801, "pitch": 39, "duration": 17, "velocity": 82}, {"time": 1804, "pitch": 51, "duration": 4, "velocity": 92}, {"time": 1807, "pitch": 54, "duration": 6, "velocity": 96}, {"time": 1810, "pitch": 51, "duration": 4, "velocity": 86}, {"time": 1813, "pitch": 58, "duration": 6, "velocity": 90}, {"time": 1813, "pitch": 63, "duration": 12, "velocity": 102}, {"time": 1816, "pitch": 51, "duration": 1, "velocity": 95}, {"time": 1819, "pitch": 54, "duration": 7, "velocity": 100}, {"time": 1822, "pitch": 58, "duration": 3, "velocity": 95}, {"time": 1825, "pitch": 37, "duration": 18, "velocity": 83}, {"time": 1828, "pitch": 49, "duration": 10, "velocity": 93}, {"time": 1831, "pitch": 52, "duration": 7, "velocity": 89}, {"time": 1834, "pitch": 56, "duration": 4, "velocity": 93}, {"time": 1837, "pitch": 61, "duration": 12, "velocity": 112}, {"time": 1840, "pitch": 49, "duration": 4, "velocity": 93}, {"time": 1843, "pitch": 52, "duration": 5, "velocity": 93}, {"time": 1846, "pitch": 56, "duration": 3, "velocity": 95}, {"time": 1849, "pitch": 42, "duration": 19, "velocity": 117}, {"time": 1852, "pitch": 54, "duration": 10, "velocity": 107}, {"time": 1855, "pitch": 58, "duration": 7, "velocity": 97}, {"time": 1858, "pitch": 61, "duration": 8, "velocity": 107}, {"time": 1861, "pitch": 66, "duration": 6, "velocity": 127}, {"time": 1864, "pitch": 54, "duration": 4, "velocity": 107}, {"time": 1867, "pitch": 58, "duration": 7, "velocity": 112}, {"time": 1870, "pitch": 61, "duration": 4, "velocity": 100}, {"time": 1870, "pitch": 66, "duration": 4, "velocity": 127}, {"time": 1873, "pitch": 47, "duration": 17, "velocity": 86}, {"time": 1876, "pitch": 54, "duration": 10, "velocity": 96}, {"time": 1879, "pitch": 59, "duration": 8, "velocity": 92}, {"time": 1882, "pitch": 63, "duration": 4, "velocity": 93}, {"time": 1885, "pitch": 66, "duration": 11, "velocity": 127}, {"time": 1888, "pitch": 54, "duration": 2, "velocity": 99}, {"time": 1891, "pitch": 63, "duration": 5, "velocity": 122}, {"time": 1894, "pitch": 59, "duration": 3, "velocity": 100}, {"time": 1897, "pitch": 42, "duration": 22, "velocity": 92}, {"time": 1900, "pitch": 49, "duration": 12, "velocity": 71}, {"time": 1903, "pitch": 54, "duration": 8, "velocity": 112}, {"time": 1906, "pitch": 58, "duration": 8, "velocity": 99}, {"time": 1909, "pitch": 61, "duration": 6, "velocity": 90}, {"time": 1909, "pitch": 66, "duration": 5, "velocity": 96}, {"time": 1912, "pitch": 49, "duration": 1, "velocity": 90}, {"time": 1915, "pitch": 58, "duration": 4, "velocity": 32}, {"time": 1915, "pitch": 61, "duration": 6, "velocity": 42}, {"time": 1915, "pitch": 66, "duration": 6, "velocity": 77}, {"time": 1918, "pitch": 54, "duration": 3, "velocity": 102}, {"time": 1921, "pitch": 44, "duration": 19, "velocity": 64}, {"time": 1924, "pitch": 56, "duration": 4, "velocity": 90}, {"time": 1927, "pitch": 59, "duration": 4, "velocity": 79}, {"time": 1930, "pitch": 51, "duration": 5, "velocity": 85}, {"time": 1933, "pitch": 59, "duration": 12, "velocity": 75}, {"time": 1933, "pitch": 63, "duration": 13, "velocity": 93}, {"time": 1936, "pitch": 51, "duration": 3, "velocity": 68}, {"time": 1939, "pitch": 56, "duration": 1, "velocity": 25}, {"time": 1939, "pitch": 68, "duration": 6, "velocity": 92}, {"time": 1942, "pitch": 56, "duration": 3, "velocity": 86}, {"time": 1945, "pitch": 42, "duration": 18, "velocity": 99}, {"time": 1948, "pitch": 54, "duration": 4, "velocity": 97}, {"time": 1951, "pitch": 57, "duration": 7, "velocity": 97}, {"time": 1954, "pitch": 54, "duration": 4, "velocity": 100}, {"time": 1957, "pitch": 61, "duration": 6, "velocity": 102}, {"time": 1957, "pitch": 66, "duration": 11, "velocity": 122}, {"time": 1960, "pitch": 54, "duration": 2, "velocity": 95}, {"time": 1963, "pitch": 57, "duration": 7, "velocity": 107}, {"time": 1966, "pitch": 61, "duration": 3, "velocity": 117}, {"time": 1969, "pitch": 40, "duration": 17, "velocity": 82}, {"time": 1972, "pitch": 47, "duration": 4, "velocity": 59}, {"time": 1975, "pitch": 52, "duration": 7, "velocity": 85}, {"time": 1978, "pitch": 47, "duration": 4, "velocity": 66}, {"time": 1981, "pitch": 56, "duration": 6, "velocity": 107}, {"time": 1981, "pitch": 59, "duration": 11, "velocity": 102}, {"time": 1984, "pitch": 47, "duration": 1, "velocity": 90}, {"time": 1987, "pitch": 52, "duration": 6, "velocity": 97}, {"time": 1990, "pitch": 56, "duration": 3, "velocity": 107}, {"time": 1993, "pitch": 39, "duration": 20, "velocity": 97}, {"time": 1996, "pitch": 51, "duration": 4, "velocity": 76}, {"time": 1999, "pitch": 54, "duration": 7, "velocity": 97}, {"time": 2002, "pitch": 51, "duration": 4, "velocity": 78}, {"time": 2005, "pitch": 58, "duration": 6, "velocity": 97}, {"time": 2005, "pitch": 63, "duration": 8, "velocity": 117}, {"time": 2008, "pitch": 51, "duration": 9, "velocity": 86}, {"time": 2011, "pitch": 54, "duration": 6, "velocity": 107}, {"time": 2014, "pitch": 58, "duration": 3, "velocity": 79}, {"time": 2014, "pitch": 63, "duration": 3, "velocity": 95}, {"time": 2017, "pitch": 37, "duration": 16, "velocity": 112}, {"time": 2020, "pitch": 49, "duration": 4, "velocity": 92}, {"time": 2023, "pitch": 52, "duration": 7, "velocity": 86}, {"time": 2026, "pitch": 49, "duration": 4, "velocity": 88}, {"time": 2029, "pitch": 56, "duration": 6, "velocity": 97}, {"time": 2029, "pitch": 61, "duration": 6, "velocity": 117}, {"time": 2032, "pitch": 49, "duration": 2, "velocity": 92}, {"time": 2035, "pitch": 52, "duration": 1, "velocity": 90}, {"time": 2041, "pitch": 42, "duration": 24, "velocity": 82}, {"time": 2041, "pitch": 54, "duration": 24, "velocity": 100}, {"time": 2041, "pitch": 58, "duration": 24, "velocity": 100}, {"time": 2041, "pitch": 61, "duration": 24, "velocity": 93}, {"time": 2065, "pitch": 40, "duration": 40, "velocity": 89}, {"time": 2071, "pitch": 47, "duration": 35, "velocity": 69}, {"time": 2077, "pitch": 56, "duration": 1, "velocity": 99}, {"time": 2083, "pitch": 52, "duration": 9, "velocity": 63}, {"time": 2089, "pitch": 64, "duration": 13, "velocity": 96}, {"time": 2095, "pitch": 52, "duration": 8, "velocity": 67}, {"time": 2101, "pitch": 59, "duration": 12, "velocity": 117}, {"time": 2107, "pitch": 64, "duration": 5, "velocity": 86}, {"time": 2113, "pitch": 39, "duration": 36, "velocity": 100}, {"time": 2119, "pitch": 51, "duration": 9, "velocity": 63}, {"time": 2125, "pitch": 54, "duration": 13, "velocity": 81}, {"time": 2125, "pitch": 58, "duration": 23, "velocity": 57}, {"time": 2131, "pitch": 51, "duration": 10, "velocity": 66}, {"time": 2137, "pitch": 63, "duration": 18, "velocity": 100}, {"time": 2143, "pitch": 51, "duration": 7, "velocity": 56}, {"time": 2149, "pitch": 54, "duration": 6, "velocity": 92}, {"time": 2155, "pitch": 58, "duration": 1, "velocity": 53}, {"time": 2161, "pitch": 40, "duration": 38, "velocity": 90}, {"time": 2167, "pitch": 47, "duration": 32, "velocity": 59}, {"time": 2173, "pitch": 52, "duration": 1, "velocity": 36}, {"time": 2173, "pitch": 56, "duration": 1, "velocity": 69}, {"time": 2173, "pitch": 59, "duration": 2, "velocity": 72}, {"time": 2179, "pitch": 52, "duration": 19, "velocity": 61}, {"time": 2185, "pitch": 59, "duration": 10, "velocity": 73}, {"time": 2185, "pitch": 64, "duration": 10, "velocity": 90}, {"time": 2197, "pitch": 59, "duration": 3, "velocity": 51}, {"time": 2197, "pitch": 64, "duration": 5, "velocity": 90}, {"time": 2209, "pitch": 44, "duration": 41, "velocity": 89}, {"time": 2215, "pitch": 51, "duration": 8, "velocity": 81}, {"time": 2221, "pitch": 59, "duration": 1, "velocity": 85}, {"time": 2221, "pitch": 63, "duration": 10, "velocity": 102}, {"time": 2224, "pitch": 59, "duration": 3, "velocity": 20}, {"time": 2227, "pitch": 51, "duration": 9, "velocity": 47}, {"time": 2233, "pitch": 56, "duration": 6, "velocity": 92}, {"time": 2233, "pitch": 59, "duration": 6, "velocity": 53}, {"time": 2233, "pitch": 63, "duration": 6, "velocity": 62}, {"time": 2239, "pitch": 51, "duration": 7, "velocity": 69}, {"time": 2245, "pitch": 59, "duration": 10, "velocity": 97}, {"time": 2245, "pitch": 63, "duration": 11, "velocity": 107}, {"time": 2248, "pitch": 51, "duration": 1, "velocity": 54}, {"time": 2251, "pitch": 56, "duration": 5, "velocity": 44}, {"time": 2257, "pitch": 37, "duration": 23, "velocity": 117}, {"time": 2260, "pitch": 49, "duration": 5, "velocity": 92}, {"time": 2263, "pitch": 52, "duration": 7, "velocity": 92}, {"time": 2266, "pitch": 49, "duration": 3, "velocity": 78}, {"time": 2269, "pitch": 56, "duration": 6, "velocity": 97}, {"time": 2269, "pitch": 61, "duration": 18, "velocity": 117}, {"time": 2272, "pitch": 49, "duration": 10, "velocity": 82}, {"time": 2275, "pitch": 52, "duration": 10, "velocity": 90}, {"time": 2278, "pitch": 56, "duration": 9, "velocity": 96}, {"time": 2281, "pitch": 37, "duration": 17, "velocity": 83}, {"time": 2284, "pitch": 49, "duration": 9, "velocity": 72}, {"time": 2287, "pitch": 52, "duration": 7, "velocity": 76}, {"time": 2290, "pitch": 56, "duration": 10, "velocity": 86}, {"time": 2293, "pitch": 61, "duration": 11, "velocity": 112}, {"time": 2296, "pitch": 49, "duration": 4, "velocity": 88}, {"time": 2299, "pitch": 52, "duration": 5, "velocity": 90}, {"time": 2302, "pitch": 56, "duration": 3, "velocity": 95}, {"time": 2305, "pitch": 39, "duration": 22, "velocity": 89}, {"time": 2308, "pitch": 51, "duration": 4, "velocity": 74}, {"time": 2311, "pitch": 54, "duration": 7, "velocity": 96}, {"time": 2314, "pitch": 51, "duration": 4, "velocity": 89}, {"time": 2317, "pitch": 58, "duration": 6, "velocity": 86}, {"time": 2317, "pitch": 63, "duration": 17, "velocity": 100}, {"time": 2320, "pitch": 51, "duration": 9, "velocity": 72}, {"time": 2323, "pitch": 54, "duration": 11, "velocity": 68}, {"time": 2326, "pitch": 58, "duration": 8, "velocity": 96}, {"time": 2329, "pitch": 39, "duration": 16, "velocity": 89}, {"time": 2332, "pitch": 51, "duration": 5, "velocity": 83}, {"time": 2335, "pitch": 54, "duration": 7, "velocity": 86}, {"time": 2338, "pitch": 51, "duration": 3, "velocity": 69}, {"time": 2341, "pitch": 58, "duration": 6, "velocity": 65}, {"time": 2341, "pitch": 63, "duration": 11, "velocity": 86}, {"time": 2344, "pitch": 51, "duration": 2, "velocity": 92}, {"time": 2347, "pitch": 54, "duration": 5, "velocity": 85}, {"time": 2350, "pitch": 58, "duration": 3, "velocity": 96}, {"time": 2353, "pitch": 40, "duration": 22, "velocity": 72}, {"time": 2356, "pitch": 47, "duration": 22, "velocity": 59}, {"time": 2359, "pitch": 52, "duration": 7, "velocity": 88}, {"time": 2362, "pitch": 59, "duration": 4, "velocity": 82}, {"time": 2365, "pitch": 64, "duration": 6, "velocity": 79}, {"time": 2365, "pitch": 68, "duration": 19, "velocity": 81}, {"time": 2368, "pitch": 52, "duration": 10, "velocity": 78}, {"time": 2371, "pitch": 59, "duration": 13, "velocity": 88}, {"time": 2374, "pitch": 64, "duration": 10, "velocity": 61}, {"time": 2377, "pitch": 40, "duration": 17, "velocity": 75}, {"time": 2380, "pitch": 47, "duration": 15, "velocity": 63}, {"time": 2383, "pitch": 52, "duration": 7, "velocity": 86}, {"time": 2386, "pitch": 59, "duration": 4, "velocity": 73}, {"time": 2389, "pitch": 64, "duration": 6, "velocity": 79}, {"time": 2389, "pitch": 68, "duration": 11, "velocity": 97}, {"time": 2392, "pitch": 52, "duration": 3, "velocity": 88}, {"time": 2395, "pitch": 59, "duration": 7, "velocity": 96}, {"time": 2398, "pitch": 64, "duration": 3, "velocity": 72}, {"time": 2401, "pitch": 42, "duration": 22, "velocity": 102}, {"time": 2404, "pitch": 49, "duration": 9, "velocity": 73}, {"time": 2407, "pitch": 54, "duration": 7, "velocity": 88}, {"time": 2410, "pitch": 58, "duration": 9, "velocity": 83}, {"time": 2413, "pitch": 61, "duration": 6, "velocity": 112}, {"time": 2419, "pitch": 54, "duration": 7, "velocity": 107}, {"time": 2422, "pitch": 58, "duration": 3, "velocity": 112}, {"time": 2422, "pitch": 61, "duration": 3, "velocity": 117}, {"time": 2425, "pitch": 42, "duration": 13, "velocity": 100}, {"time": 2425, "pitch": 49, "duration": 13, "velocity": 100}, {"time": 2428, "pitch": 54, "duration": 2, "velocity": 97}, {"time": 2428, "pitch": 61, "duration": 1, "velocity": 60}, {"time": 2434, "pitch": 54, "duration": 1, "velocity": 92}, {"time": 2434, "pitch": 58, "duration": 1, "velocity": 112}, {"time": 2434, "pitch": 61, "duration": 1, "velocity": 99}, {"time": 2437, "pitch": 54, "duration": 3, "velocity": 99}, {"time": 2437, "pitch": 58, "duration": 3, "velocity": 112}, {"time": 2437, "pitch": 61, "duration": 3, "velocity": 112}, {"time": 2440, "pitch": 42, "duration": 6, "velocity": 93}, {"time": 2440, "pitch": 49, "duration": 5, "velocity": 89}, {"time": 2443, "pitch": 54, "duration": 5, "velocity": 99}, {"time": 2443, "pitch": 58, "duration": 5, "velocity": 117}, {"time": 2443, "pitch": 61, "duration": 6, "velocity": 107}, {"time": 2449, "pitch": 35, "duration": 16, "velocity": 95}, {"time": 2449, "pitch": 63, "duration": 4, "velocity": 97}, {"time": 2449, "pitch": 66, "duration": 4, "velocity": 95}, {"time": 2452, "pitch": 47, "duration": 5, "velocity": 93}, {"time": 2455, "pitch": 59, "duration": 7, "velocity": 93}, {"time": 2458, "pitch": 47, "duration": 4, "velocity": 70}, {"time": 2461, "pitch": 66, "duration": 11, "velocity": 127}, {"time": 2464, "pitch": 47, "duration": 3, "velocity": 82}, {"time": 2464, "pitch": 59, "duration": 3, "velocity": 85}, {"time": 2467, "pitch": 63, "duration": 6, "velocity": 127}, {"time": 2470, "pitch": 59, "duration": 3, "velocity": 100}, {"time": 2473, "pitch": 42, "duration": 19, "velocity": 99}, {"time": 2476, "pitch": 54, "duration": 5, "velocity": 93}, {"time": 2479, "pitch": 58, "duration": 7, "velocity": 112}, {"time": 2482, "pitch": 54, "duration": 4, "velocity": 95}, {"time": 2485, "pitch": 66, "duration": 9, "velocity": 127}, {"time": 2488, "pitch": 54, "duration": 3, "velocity": 97}, {"time": 2491, "pitch": 58, "duration": 7, "velocity": 117}, {"time": 2494, "pitch": 61, "duration": 2, "velocity": 117}, {"time": 2497, "pitch": 44, "duration": 18, "velocity": 100}, {"time": 2500, "pitch": 56, "duration": 4, "velocity": 95}, {"time": 2503, "pitch": 59, "duration": 5, "velocity": 85}, {"time": 2506, "pitch": 56, "duration": 3, "velocity": 102}, {"time": 2509, "pitch": 59, "duration": 5, "velocity": 68}, {"time": 2509, "pitch": 63, "duration": 12, "velocity": 112}, {"time": 2512, "pitch": 51, "duration": 3, "velocity": 96}, {"time": 2515, "pitch": 56, "duration": 7, "velocity": 122}, {"time": 2518, "pitch": 59, "duration": 3, "velocity": 59}, {"time": 2521, "pitch": 39, "duration": 16, "velocity": 107}, {"time": 2524, "pitch": 51, "duration": 4, "velocity": 88}, {"time": 2527, "pitch": 54, "duration": 6, "velocity": 97}, {"time": 2530, "pitch": 51, "duration": 4, "velocity": 81}, {"time": 2533, "pitch": 58, "duration": 6, "velocity": 89}, {"time": 2533, "pitch": 63, "duration": 12, "velocity": 117}, {"time": 2536, "pitch": 51, "duration": 2, "velocity": 93}, {"time": 2539, "pitch": 54, "duration": 6, "velocity": 112}, {"time": 2542, "pitch": 58, "duration": 3, "velocity": 102}, {"time": 2545, "pitch": 40, "duration": 17, "velocity": 77}, {"time": 2548, "pitch": 47, "duration": 4, "velocity": 96}, {"time": 2551, "pitch": 52, "duration": 6, "velocity": 93}, {"time": 2554, "pitch": 47, "duration": 4, "velocity": 81}, {"time": 2557, "pitch": 56, "duration": 6, "velocity": 100}, {"time": 2557, "pitch": 59, "duration": 10, "velocity": 99}, {"time": 2560, "pitch": 47, "duration": 1, "velocity": 86}, {"time": 2563, "pitch": 52, "duration": 5, "velocity": 99}, {"time": 2566, "pitch": 56, "duration": 3, "velocity": 102}, {"time": 2569, "pitch": 39, "duration": 17, "velocity": 100}, {"time": 2572, "pitch": 51, "duration": 4, "velocity": 89}, {"time": 2575, "pitch": 54, "duration": 6, "velocity": 96}, {"time": 2578, "pitch": 51, "duration": 4, "velocity": 88}, {"time": 2581, "pitch": 58, "duration": 5, "velocity": 100}, {"time": 2581, "pitch": 63, "duration": 12, "velocity": 112}, {"time": 2584, "pitch": 51, "duration": 1, "velocity": 95}, {"time": 2587, "pitch": 54, "duration": 7, "velocity": 100}, {"time": 2590, "pitch": 58, "duration": 3, "velocity": 99}, {"time": 2593, "pitch": 37, "duration": 18, "velocity": 95}, {"time": 2596, "pitch": 49, "duration": 4, "velocity": 82}, {"time": 2599, "pitch": 52, "duration": 8, "velocity": 92}, {"time": 2602, "pitch": 49, "duration": 4, "velocity": 88}, {"time": 2605, "pitch": 61, "duration": 11, "velocity": 122}, {"time": 2608, "pitch": 49, "duration": 5, "velocity": 93}, {"time": 2611, "pitch": 56, "duration": 6, "velocity": 107}, {"time": 2614, "pitch": 52, "duration": 3, "velocity": 97}, {"time": 2617, "pitch": 42, "duration": 2, "velocity": 99}, {"time": 2620, "pitch": 42, "duration": 3, "velocity": 107}, {"time": 2620, "pitch": 54, "duration": 3, "velocity": 107}, {"time": 2620, "pitch": 58, "duration": 3, "velocity": 117}, {"time": 2620, "pitch": 61, "duration": 3, "velocity": 107}, {"time": 2626, "pitch": 42, "duration": 2, "velocity": 83}, {"time": 2626, "pitch": 54, "duration": 1, "velocity": 107}, {"time": 2626, "pitch": 58, "duration": 1, "velocity": 117}, {"time": 2626, "pitch": 61, "duration": 1, "velocity": 102}, {"time": 2629, "pitch": 42, "duration": 4, "velocity": 99}, {"time": 2629, "pitch": 54, "duration": 4, "velocity": 117}, {"time": 2629, "pitch": 58, "duration": 4, "velocity": 122}, {"time": 2629, "pitch": 61, "duration": 4, "velocity": 102}, {"time": 2635, "pitch": 42, "duration": 6, "velocity": 112}, {"time": 2635, "pitch": 54, "duration": 6, "velocity": 99}, {"time": 2635, "pitch": 58, "duration": 5, "velocity": 122}, {"time": 2635, "pitch": 61, "duration": 6, "velocity": 107}, {"time": 2641, "pitch": 35, "duration": 8, "velocity": 74}, {"time": 2641, "pitch": 47, "duration": 8, "velocity": 88}, {"time": 2641, "pitch": 59, "duration": 8, "velocity": 90}, {"time": 2641, "pitch": 63, "duration": 8, "velocity": 117}, {"time": 2641, "pitch": 66, "duration": 8, "velocity": 112}, {"time": 2656, "pitch": 35, "duration": 4, "velocity": 72}, {"time": 2656, "pitch": 47, "duration": 4, "velocity": 96}, {"time": 2656, "pitch": 59, "duration": 5, "velocity": 99}, {"time": 2656, "pitch": 63, "duration": 4, "velocity": 127}, {"time": 2656, "pitch": 66, "duration": 4, "velocity": 112}, {"time": 2665, "pitch": 30, "duration": 8, "velocity": 90}, {"time": 2665, "pitch": 42, "duration": 13, "velocity": 74}, {"time": 2665, "pitch": 54, "duration": 11, "velocity": 100}, {"time": 2665, "pitch": 58, "duration": 11, "velocity": 112}, {"time": 2665, "pitch": 61, "duration": 11, "velocity": 99}, {"time": 2677, "pitch": 58, "duration": 6, "velocity": 127}, {"time": 2677, "pitch": 61, "duration": 6, "velocity": 122}, {"time": 2680, "pitch": 42, "duration": 1, "velocity": 89}, {"time": 2683, "pitch": 54, "duration": 1, "velocity": 112}, {"time": 2689, "pitch": 44, "duration": 13, "velocity": 97}, {"time": 2689, "pitch": 56, "duration": 8, "velocity": 122}, {"time": 2689, "pitch": 59, "duration": 7, "velocity": 99}, {"time": 2689, "pitch": 63, "duration": 7, "velocity": 117}, {"time": 2698, "pitch": 59, "duration": 1, "velocity": 58}, {"time": 2698, "pitch": 63, "duration": 1, "velocity": 35}, {"time": 2701, "pitch": 56, "duration": 1, "velocity": 117}, {"time": 2701, "pitch": 59, "duration": 1, "velocity": 122}, {"time": 2701, "pitch": 63, "duration": 5, "velocity": 127}, {"time": 2704, "pitch": 44, "duration": 1, "velocity": 112}, {"time": 2704, "pitch": 59, "duration": 3, "velocity": 29}, {"time": 2707, "pitch": 56, "duration": 1, "velocity": 97}, {"time": 2713, "pitch": 42, "duration": 17, "velocity": 92}, {"time": 2713, "pitch": 57, "duration": 2, "velocity": 96}, {"time": 2713, "pitch": 61, "duration": 5, "velocity": 107}, {"time": 2713, "pitch": 66, "duration": 6, "velocity": 90}, {"time": 2716, "pitch": 54, "duration": 4, "velocity": 112}, {"time": 2719, "pitch": 57, "duration": 4, "velocity": 102}, {"time": 2722, "pitch": 54, "duration": 3, "velocity": 79}, {"time": 2725, "pitch": 61, "duration": 6, "velocity": 122}, {"time": 2725, "pitch": 66, "duration": 7, "velocity": 117}, {"time": 2728, "pitch": 54, "duration": 2, "velocity": 112}, {"time": 2731, "pitch": 57, "duration": 1, "velocity": 99}, {"time": 2737, "pitch": 40, "duration": 16, "velocity": 93}, {"time": 2737, "pitch": 52, "duration": 1, "velocity": 112}, {"time": 2737, "pitch": 56, "duration": 1, "velocity": 127}, {"time": 2737, "pitch": 59, "duration": 2, "velocity": 102}, {"time": 2740, "pitch": 47, "duration": 14, "velocity": 86}, {"time": 2743, "pitch": 52, "duration": 7, "velocity": 92}, {"time": 2746, "pitch": 59, "duration": 4, "velocity": 92}, {"time": 2749, "pitch": 68, "duration": 11, "velocity": 127}, {"time": 2752, "pitch": 52, "duration": 2, "velocity": 95}, {"time": 2755, "pitch": 59, "duration": 6, "velocity": 102}, {"time": 2758, "pitch": 64, "duration": 2, "velocity": 107}, {"time": 2761, "pitch": 39, "duration": 17, "velocity": 93}, {"time": 2764, "pitch": 51, "duration": 4, "velocity": 82}, {"time": 2767, "pitch": 54, "duration": 6, "velocity": 92}, {"time": 2770, "pitch": 51, "duration": 3, "velocity": 92}, {"time": 2773, "pitch": 58, "duration": 5, "velocity": 112}, {"time": 2773, "pitch": 63, "duration": 11, "velocity": 122}, {"time": 2776, "pitch": 51, "duration": 1, "velocity": 97}, {"time": 2779, "pitch": 54, "duration": 6, "velocity": 112}, {"time": 2782, "pitch": 58, "duration": 3, "velocity": 99}, {"time": 2785, "pitch": 37, "duration": 16, "velocity": 95}, {"time": 2788, "pitch": 49, "duration": 4, "velocity": 97}, {"time": 2791, "pitch": 52, "duration": 6, "velocity": 90}, {"time": 2794, "pitch": 49, "duration": 3, "velocity": 92}, {"time": 2797, "pitch": 56, "duration": 6, "velocity": 71}, {"time": 2797, "pitch": 61, "duration": 6, "velocity": 112}, {"time": 2800, "pitch": 49, "duration": 2, "velocity": 67}, {"time": 2803, "pitch": 52, "duration": 1, "velocity": 95}, {"time": 2809, "pitch": 42, "duration": 46, "velocity": 96}, {"time": 2809, "pitch": 54, "duration": 44, "velocity": 93}, {"time": 2809, "pitch": 58, "duration": 46, "velocity": 72}, {"time": 2809, "pitch": 61, "duration": 46, "velocity": 39}, {"time": 2857, "pitch": 44, "duration": 21, "velocity": 97}, {"time": 2857, "pitch": 56, "duration": 4, "velocity": 88}, {"time": 2857, "pitch": 59, "duration": 6, "velocity": 66}, {"time": 2857, "pitch": 63, "duration": 6, "velocity": 95}, {"time": 2863, "pitch": 56, "duration": 7, "velocity": 77}, {"time": 2869, "pitch": 63, "duration": 7, "velocity": 100}, {"time": 2872, "pitch": 51, "duration": 6, "velocity": 66}, {"time": 2875, "pitch": 56, "duration": 7, "velocity": 66}, {"time": 2878, "pitch": 59, "duration": 2, "velocity": 52}, {"time": 2878, "pitch": 63, "duration": 3, "velocity": 96}, {"time": 2881, "pitch": 42, "duration": 16, "velocity": 92}, {"time": 2887, "pitch": 54, "duration": 6, "velocity": 90}, {"time": 2890, "pitch": 49, "duration": 3, "velocity": 66}, {"time": 2893, "pitch": 58, "duration": 10, "velocity": 88}, {"time": 2893, "pitch": 61, "duration": 11, "velocity": 107}, {"time": 2896, "pitch": 49, "duration": 1, "velocity": 78}, {"time": 2899, "pitch": 54, "duration": 6, "velocity": 77}, {"time": 2905, "pitch": 37, "duration": 22, "velocity": 83}, {"time": 2908, "pitch": 49, "duration": 8, "velocity": 82}, {"time": 2911, "pitch": 52, "duration": 4, "velocity": 72}, {"time": 2914, "pitch": 56, "duration": 10, "velocity": 100}, {"time": 2914, "pitch": 61, "duration": 24, "velocity": 112}, {"time": 2920, "pitch": 49, "duration": 13, "velocity": 64}, {"time": 2923, "pitch": 52, "duration": 10, "velocity": 71}, {"time": 2926, "pitch": 56, "duration": 11, "velocity": 96}, {"time": 2932, "pitch": 37, "duration": 15, "velocity": 66}, {"time": 2935, "pitch": 49, "duration": 6, "velocity": 90}, {"time": 2938, "pitch": 52, "duration": 4, "velocity": 70}, {"time": 2941, "pitch": 56, "duration": 4, "velocity": 122}, {"time": 2941, "pitch": 61, "duration": 4, "velocity": 127}, {"time": 2944, "pitch": 49, "duration": 3, "velocity": 112}, {"time": 2947, "pitch": 52, "duration": 1, "velocity": 92}, {"time": 2947, "pitch": 56, "duration": 1, "velocity": 85}, {"time": 2947, "pitch": 61, "duration": 1, "velocity": 90}, {"time": 2953, "pitch": 44, "duration": 16, "velocity": 102}, {"time": 2953, "pitch": 59, "duration": 2, "velocity": 88}, {"time": 2953, "pitch": 63, "duration": 6, "velocity": 107}, {"time": 2956, "pitch": 59, "duration": 2, "velocity": 21}, {"time": 2959, "pitch": 51, "duration": 7, "velocity": 93}, {"time": 2962, "pitch": 56, "duration": 2, "velocity": 55}, {"time": 2965, "pitch": 59, "duration": 1, "velocity": 95}, {"time": 2965, "pitch": 63, "duration": 5, "velocity": 122}, {"time": 2968, "pitch": 51, "duration": 1, "velocity": 89}, {"time": 2968, "pitch": 59, "duration": 2, "velocity": 48}, {"time": 2971, "pitch": 56, "duration": 1, "velocity": 95}, {"time": 2977, "pitch": 42, "duration": 15, "velocity": 95}, {"time": 2977, "pitch": 54, "duration": 4, "velocity": 99}, {"time": 2977, "pitch": 58, "duration": 7, "velocity": 107}, {"time": 2977, "pitch": 61, "duration": 8, "velocity": 97}, {"time": 2983, "pitch": 54, "duration": 5, "velocity": 69}, {"time": 2989, "pitch": 58, "duration": 5, "velocity": 122}, {"time": 2989, "pitch": 61, "duration": 5, "velocity": 107}, {"time": 2992, "pitch": 49, "duration": 1, "velocity": 96}, {"time": 2995, "pitch": 54, "duration": 1, "velocity": 85}, {"time": 3001, "pitch": 37, "duration": 41, "velocity": 96}, {"time": 3001, "pitch": 52, "duration": 8, "velocity": 93}, {"time": 3001, "pitch": 56, "duration": 8, "velocity": 99}, {"time": 3001, "pitch": 61, "duration": 7, "velocity": 97}, {"time": 3007, "pitch": 49, "duration": 6, "velocity": 86}, {"time": 3010, "pitch": 56, "duration": 9, "velocity": 93}, {"time": 3010, "pitch": 61, "duration": 10, "velocity": 107}, {"time": 3016, "pitch": 49, "duration": 10, "velocity": 58}, {"time": 3019, "pitch": 52, "duration": 10, "velocity": 63}, {"time": 3022, "pitch": 56, "duration": 10, "velocity": 65}, {"time": 3022, "pitch": 61, "duration": 10, "velocity": 86}, {"time": 3028, "pitch": 49, "duration": 4, "velocity": 42}, {"time": 3031, "pitch": 52, "duration": 5, "velocity": 66}, {"time": 3034, "pitch": 49, "duration": 3, "velocity": 112}, {"time": 3037, "pitch": 52, "duration": 3, "velocity": 92}, {"time": 3037, "pitch": 56, "duration": 6, "velocity": 122}, {"time": 3037, "pitch": 61, "duration": 7, "velocity": 107}, {"time": 3040, "pitch": 49, "duration": 4, "velocity": 102}, {"time": 3043, "pitch": 52, "duration": 1, "velocity": 89}, {"time": 3049, "pitch": 44, "duration": 19, "velocity": 92}, {"time": 3049, "pitch": 56, "duration": 7, "velocity": 93}, {"time": 3049, "pitch": 59, "duration": 5, "velocity": 79}, {"time": 3049, "pitch": 63, "duration": 7, "velocity": 93}, {"time": 3055, "pitch": 51, "duration": 7, "velocity": 86}, {"time": 3058, "pitch": 56, "duration": 7, "velocity": 68}, {"time": 3061, "pitch": 63, "duration": 12, "velocity": 122}, {"time": 3064, "pitch": 51, "duration": 3, "velocity": 75}, {"time": 3067, "pitch": 56, "duration": 7, "velocity": 82}, {"time": 3070, "pitch": 59, "duration": 3, "velocity": 52}, {"time": 3073, "pitch": 42, "duration": 16, "velocity": 96}, {"time": 3079, "pitch": 49, "duration": 7, "velocity": 55}, {"time": 3082, "pitch": 54, "duration": 3, "velocity": 74}, {"time": 3085, "pitch": 58, "duration": 6, "velocity": 102}, {"time": 3085, "pitch": 61, "duration": 5, "velocity": 117}, {"time": 3088, "pitch": 49, "duration": 1, "velocity": 81}, {"time": 3091, "pitch": 54, "duration": 5, "velocity": 85}, {"time": 3097, "pitch": 37, "duration": 84, "velocity": 53}, {"time": 3097, "pitch": 44, "duration": 83, "velocity": 41}, {"time": 3097, "pitch": 49, "duration": 83, "velocity": 77}, {"time": 3097, "pitch": 56, "duration": 84, "velocity": 96}, {"time": 3097, "pitch": 61, "duration": 84, "velocity": 95}, {"time": 3097, "pitch": 64, "duration": 84, "velocity": 89}], "annotations": [{"time": 72, "annotation": {"number": 64, "value": 127}, "group": "control_change"}, {"time": 94, "annotation": {"number": 64, "value": 0}, "group": "control_change"}, {"time": 97, "annotation": {"number": 64, "value": 127}, "group": "control_change"}, {"time": 118, "annotation": {"number": 64, "value": 0}, "group": "control_change"}, {"time": 120, "annotation": {"number": 64, "value": 127}, "group": "control_change"}, {"time": 125, "annotation": {"number": 64, "value": 127}, "group": "control_change"}, {"time": 128, "annotation": {"number": 64, "value": 0}, "group": "control_change"}, {"time": 132, "annotation": {"number": 64, "value": 127}, "group": "control_change"}, {"time": 166, "annotation": {"number": 64, "value": 0}, "group": "control_change"}, {"time": 187, "annotation": {"number": 64, "value": 0}, "group": "control_change"}, {"time": 192, "annotation": {"number": 64, "value": 127}, "group": "control_change"}, {"time": 215, "annotation": {"number": 64, "value": 0}, "group": "control_change"}, {"time": 217, "annotation": {"number": 64, "value": 127}, "group": "control_change"}, {"time": 240, "annotation": {"number": 64, "value": 0}, "group": "control_change"}, {"time": 245, "annotation": {"number": 64, "value": 127}, "group": "control_change"}, {"time": 250, "annotation": {"number": 64, "value": 0}, "group": "control_change"}, {"time": 264, "annotation": {"number": 64, "value": 127}, "group": "control_change"}, {"time": 287, "annotation": {"number": 64, "value": 0}, "group": "control_change"}, {"time": 313, "annotation": {"number": 64, "value": 127}, "group": "control_change"}, {"time": 324, "annotation": {"number": 64, "value": 0}, "group": "control_change"}, {"time": 326, "annotation": {"number": 64, "value": 127}, "group": "control_change"}, {"time": 329, "annotation": {"number": 64, "value": 0}, "group": "control_change"}, {"time": 457, "annotation": {"number": 64, "value": 127}, "group": "control_change"}, {"time": 461, "annotation": {"number": 64, "value": 0}, "group": "control_change"}, {"time": 467, "annotation": {"number": 64, "value": 127}, "group": "control_change"}, {"time": 478, "annotation": {"number": 64, "value": 0}, "group": "control_change"}, {"time": 480, "annotation": {"number": 64, "value": 127}, "group": "control_change"}, {"time": 502, "annotation": {"number": 64, "value": 0}, "group": "control_change"}, {"time": 504, "annotation": {"number": 64, "value": 127}, "group": "control_change"}, {"time": 526, "annotation": {"number": 64, "value": 0}, "group": "control_change"}, {"time": 528, "annotation": {"number": 64, "value": 127}, "group": "control_change"}, {"time": 547, "annotation": {"number": 64, "value": 0}, "group": "control_change"}, {"time": 552, "annotation": {"number": 64, "value": 127}, "group": "control_change"}, {"time": 573, "annotation": {"number": 64, "value": 0}, "group": "control_change"}, {"time": 576, "annotation": {"number": 64, "value": 127}, "group": "control_change"}, {"time": 597, "annotation": {"number": 64, "value": 0}, "group": "control_change"}, {"time": 600, "annotation": {"number": 64, "value": 127}, "group": "control_change"}, {"time": 621, "annotation": {"number": 64, "value": 0}, "group": "control_change"}, {"time": 625, "annotation": {"number": 64, "value": 127}, "group": "control_change"}, {"time": 646, "annotation": {"number": 64, "value": 0}, "group": "control_change"}, {"time": 683, "annotation": {"number": 64, "value": 127}, "group": "control_change"}, {"time": 693, "annotation": {"number": 64, "value": 0}, "group": "control_change"}, {"time": 696, "annotation": {"number": 64, "value": 127}, "group": "control_change"}, {"time": 719, "annotation": {"number": 64, "value": 0}, "group": "control_change"}, {"time": 721, "annotation": {"number": 64, "value": 127}, "group": "control_change"}, {"time": 742, "annotation": {"number": 64, "value": 0}, "group": "control_change"}, {"time": 744, "annotation": {"number": 64, "value": 127}, "group": "control_change"}, {"time": 766, "annotation": {"number": 64, "value": 0}, "group": "control_change"}, {"time": 769, "annotation": {"number": 64, "value": 127}, "group": "control_change"}, {"time": 790, "annotation": {"number": 64, "value": 0}, "group": "control_change"}, {"time": 792, "annotation": {"number": 64, "value": 127}, "group": "control_change"}, {"time": 814, "annotation": {"number": 64, "value": 0}, "group": "control_change"}, {"time": 817, "annotation": {"number": 64, "value": 127}, "group": "control_change"}, {"time": 838, "annotation": {"number": 64, "value": 0}, "group": "control_change"}, {"time": 841, "annotation": {"number": 64, "value": 127}, "group": "control_change"}, {"time": 859, "annotation": {"number": 64, "value": 0}, "group": "control_change"}, {"time": 865, "annotation": {"number": 64, "value": 127}, "group": "control_change"}, {"time": 885, "annotation": {"number": 64, "value": 0}, "group": "control_change"}, {"time": 888, "annotation": {"number": 64, "value": 127}, "group": "control_change"}, {"time": 910, "annotation": {"number": 64, "value": 0}, "group": "control_change"}, {"time": 913, "annotation": {"number": 64, "value": 127}, "group": "control_change"}, {"time": 930, "annotation": {"number": 64, "value": 0}, "group": "control_change"}, {"time": 937, "annotation": {"number": 64, "value": 127}, "group": "control_change"}, {"time": 954, "annotation": {"number": 64, "value": 0}, "group": "control_change"}, {"time": 961, "annotation": {"number": 64, "value": 127}, "group": "control_change"}, {"time": 982, "annotation": {"number": 64, "value": 0}, "group": "control_change"}, {"time": 984, "annotation": {"number": 64, "value": 127}, "group": "control_change"}, {"time": 996, "annotation": {"number": 64, "value": 0}, "group": "control_change"}, {"time": 1009, "annotation": {"number": 64, "value": 127}, "group": "control_change"}, {"time": 1033, "annotation": {"number": 64, "value": 0}, "group": "control_change"}, {"time": 1080, "annotation": {"number": 64, "value": 127}, "group": "control_change"}, {"time": 1105, "annotation": {"number": 64, "value": 0}, "group": "control_change"}, {"time": 1108, "annotation": {"number": 64, "value": 127}, "group": "control_change"}, {"time": 1127, "annotation": {"number": 64, "value": 0}, "group": "control_change"}, {"time": 1128, "annotation": {"number": 64, "value": 127}, "group": "control_change"}, {"time": 1172, "annotation": {"number": 64, "value": 0}, "group": "control_change"}, {"time": 1177, "annotation": {"number": 64, "value": 127}, "group": "control_change"}, {"time": 1187, "annotation": {"number": 64, "value": 0}, "group": "control_change"}, {"time": 1202, "annotation": {"number": 64, "value": 127}, "group": "control_change"}, {"time": 1223, "annotation": {"number": 64, "value": 0}, "group": "control_change"}, {"time": 1226, "annotation": {"number": 64, "value": 127}, "group": "control_change"}, {"time": 1267, "annotation": {"number": 64, "value": 0}, "group": "control_change"}, {"time": 1273, "annotation": {"number": 64, "value": 127}, "group": "control_change"}, {"time": 1295, "annotation": {"number": 64, "value": 0}, "group": "control_change"}, {"time": 1297, "annotation": {"number": 64, "value": 127}, "group": "control_change"}, {"time": 1320, "annotation": {"number": 64, "value": 0}, "group": "control_change"}, {"time": 1322, "annotation": {"number": 64, "value": 127}, "group": "control_change"}, {"time": 1361, "annotation": {"number": 64, "value": 0}, "group": "control_change"}, {"time": 1465, "annotation": {"number": 64, "value": 127}, "group": "control_change"}, {"time": 1469, "annotation": {"number": 64, "value": 0}, "group": "control_change"}, {"time": 1475, "annotation": {"number": 64, "value": 127}, "group": "control_change"}, {"time": 1486, "annotation": {"number": 64, "value": 0}, "group": "control_change"}, {"time": 1488, "annotation": {"number": 64, "value": 127}, "group": "control_change"}, {"time": 1510, "annotation": {"number": 64, "value": 0}, "group": "control_change"}, {"time": 1512, "annotation": {"number": 64, "value": 127}, "group": "control_change"}, {"time": 1534, "annotation": {"number": 64, "value": 0}, "group": "control_change"}, {"time": 1536, "annotation": {"number": 64, "value": 127}, "group": "control_change"}, {"time": 1555, "annotation": {"number": 64, "value": 0}, "group": "control_change"}, {"time": 1560, "annotation": {"number": 64, "value": 127}, "group": "control_change"}, {"time": 1581, "annotation": {"number": 64, "value": 0}, "group": "control_change"}, {"time": 1584, "annotation": {"number": 64, "value": 127}, "group": "control_change"}, {"time": 1605, "annotation": {"number": 64, "value": 0}, "group": "control_change"}, {"time": 1608, "annotation": {"number": 64, "value": 127}, "group": "control_change"}, {"time": 1629, "annotation": {"number": 64, "value": 0}, "group": "control_change"}, {"time": 1633, "annotation": {"number": 64, "value": 127}, "group": "control_change"}, {"time": 1654, "annotation": {"number": 64, "value": 0}, "group": "control_change"}, {"time": 1691, "annotation": {"number": 64, "value": 127}, "group": "control_change"}, {"time": 1701, "annotation": {"number": 64, "value": 0}, "group": "control_change"}, {"time": 1704, "annotation": {"number": 64, "value": 127}, "group": "control_change"}, {"time": 1727, "annotation": {"number": 64, "value": 0}, "group": "control_change"}, {"time": 1729, "annotation": {"number": 64, "value": 127}, "group": "control_change"}, {"time": 1750, "annotation": {"number": 64, "value": 0}, "group": "control_change"}, {"time": 1752, "annotation": {"number": 64, "value": 127}, "group": "control_change"}, {"time": 1774, "annotation": {"number": 64, "value": 0}, "group": "control_change"}, {"time": 1777, "annotation": {"number": 64, "value": 127}, "group": "control_change"}, {"time": 1798, "annotation": {"number": 64, "value": 0}, "group": "control_change"}, {"time": 1800, "annotation": {"number": 64, "value": 127}, "group": "control_change"}, {"time": 1822, "annotation": {"number": 64, "value": 0}, "group": "control_change"}, {"time": 1825, "annotation": {"number": 64, "value": 127}, "group": "control_change"}, {"time": 1846, "annotation": {"number": 64, "value": 0}, "group": "control_change"}, {"time": 1849, "annotation": {"number": 64, "value": 127}, "group": "control_change"}, {"time": 1867, "annotation": {"number": 64, "value": 0}, "group": "control_change"}, {"time": 1873, "annotation": {"number": 64, "value": 127}, "group": "control_change"}, {"time": 1893, "annotation": {"number": 64, "value": 0}, "group": "control_change"}, {"time": 1896, "annotation": {"number": 64, "value": 127}, "group": "control_change"}, {"time": 1918, "annotation": {"number": 64, "value": 0}, "group": "control_change"}, {"time": 1921, "annotation": {"number": 64, "value": 127}, "group": "control_change"}, {"time": 1938, "annotation": {"number": 64, "value": 0}, "group": "control_change"}, {"time": 1945, "annotation": {"number": 64, "value": 127}, "group": "control_change"}, {"time": 1962, "annotation": {"number": 64, "value": 0}, "group": "control_change"}, {"time": 1969, "annotation": {"number": 64, "value": 127}, "group": "control_change"}, {"time": 1990, "annotation": {"number": 64, "value": 0}, "group": "control_change"}, {"time": 1992, "annotation": {"number": 64, "value": 127}, "group": "control_change"}, {"time": 2004, "annotation": {"number": 64, "value": 0}, "group": "control_change"}, {"time": 2017, "annotation": {"number": 64, "value": 127}, "group": "control_change"}, {"time": 2041, "annotation": {"number": 64, "value": 0}, "group": "control_change"}, {"time": 2066, "annotation": {"number": 64, "value": 127}, "group": "control_change"}, {"time": 2111, "annotation": {"number": 64, "value": 0}, "group": "control_change"}, {"time": 2112, "annotation": {"number": 64, "value": 127}, "group": "control_change"}, {"time": 2159, "annotation": {"number": 64, "value": 0}, "group": "control_change"}, {"time": 2161, "annotation": {"number": 64, "value": 127}, "group": "control_change"}, {"time": 2207, "annotation": {"number": 64, "value": 0}, "group": "control_change"}, {"time": 2209, "annotation": {"number": 64, "value": 127}, "group": "control_change"}, {"time": 2254, "annotation": {"number": 64, "value": 0}, "group": "control_change"}, {"time": 2256, "annotation": {"number": 64, "value": 127}, "group": "control_change"}, {"time": 2279, "annotation": {"number": 64, "value": 0}, "group": "control_change"}, {"time": 2281, "annotation": {"number": 64, "value": 127}, "group": "control_change"}, {"time": 2302, "annotation": {"number": 64, "value": 0}, "group": "control_change"}, {"time": 2304, "annotation": {"number": 64, "value": 127}, "group": "control_change"}, {"time": 2326, "annotation": {"number": 64, "value": 0}, "group": "control_change"}, {"time": 2328, "annotation": {"number": 64, "value": 127}, "group": "control_change"}, {"time": 2350, "annotation": {"number": 64, "value": 0}, "group": "control_change"}, {"time": 2352, "annotation": {"number": 64, "value": 127}, "group": "control_change"}, {"time": 2374, "annotation": {"number": 64, "value": 0}, "group": "control_change"}, {"time": 2377, "annotation": {"number": 64, "value": 127}, "group": "control_change"}, {"time": 2397, "annotation": {"number": 64, "value": 0}, "group": "control_change"}, {"time": 2400, "annotation": {"number": 64, "value": 127}, "group": "control_change"}, {"time": 2423, "annotation": {"number": 64, "value": 0}, "group": "control_change"}, {"time": 2425, "annotation": {"number": 64, "value": 127}, "group": "control_change"}, {"time": 2441, "annotation": {"number": 64, "value": 0}, "group": "control_change"}, {"time": 2450, "annotation": {"number": 64, "value": 127}, "group": "control_change"}, {"time": 2470, "annotation": {"number": 64, "value": 0}, "group": "control_change"}, {"time": 2472, "annotation": {"number": 64, "value": 127}, "group": "control_change"}, {"time": 2494, "annotation": {"number": 64, "value": 0}, "group": "control_change"}, {"time": 2496, "annotation": {"number": 64, "value": 127}, "group": "control_change"}, {"time": 2518, "annotation": {"number": 64, "value": 0}, "group": "control_change"}, {"time": 2520, "annotation": {"number": 64, "value": 127}, "group": "control_change"}, {"time": 2543, "annotation": {"number": 64, "value": 0}, "group": "control_change"}, {"time": 2544, "annotation": {"number": 64, "value": 127}, "group": "control_change"}, {"time": 2566, "annotation": {"number": 64, "value": 0}, "group": "control_change"}, {"time": 2568, "annotation": {"number": 64, "value": 127}, "group": "control_change"}, {"time": 2591, "annotation": {"number": 64, "value": 0}, "group": "control_change"}, {"time": 2593, "annotation": {"number": 64, "value": 127}, "group": "control_change"}, {"time": 2614, "annotation": {"number": 64, "value": 0}, "group": "control_change"}, {"time": 2616, "annotation": {"number": 64, "value": 127}, "group": "control_change"}, {"time": 2617, "annotation": {"number": 64, "value": 127}, "group": "control_change"}, {"time": 2620, "annotation": {"number": 64, "value": 127}, "group": "control_change"}, {"time": 2620, "annotation": {"number": 64, "value": 0}, "group": "control_change"}, {"time": 2623, "annotation": {"number": 64, "value": 0}, "group": "control_change"}, {"time": 2640, "annotation": {"number": 64, "value": 127}, "group": "control_change"}, {"time": 2641, "annotation": {"number": 64, "value": 127}, "group": "control_change"}, {"time": 2653, "annotation": {"number": 64, "value": 127}, "group": "control_change"}, {"time": 2654, "annotation": {"number": 64, "value": 0}, "group": "control_change"}, {"time": 2664, "annotation": {"number": 64, "value": 127}, "group": "control_change"}, {"time": 2687, "annotation": {"number": 64, "value": 0}, "group": "control_change"}, {"time": 2689, "annotation": {"number": 64, "value": 127}, "group": "control_change"}, {"time": 2711, "annotation": {"number": 64, "value": 0}, "group": "control_change"}, {"time": 2712, "annotation": {"number": 64, "value": 127}, "group": "control_change"}, {"time": 2735, "annotation": {"number": 64, "value": 0}, "group": "control_change"}, {"time": 2737, "annotation": {"number": 64, "value": 127}, "group": "control_change"}, {"time": 2758, "annotation": {"number": 64, "value": 0}, "group": "control_change"}, {"time": 2760, "annotation": {"number": 64, "value": 127}, "group": "control_change"}, {"time": 2783, "annotation": {"number": 64, "value": 0}, "group": "control_change"}, {"time": 2785, "annotation": {"number": 64, "value": 127}, "group": "control_change"}, {"time": 2807, "annotation": {"number": 64, "value": 0}, "group": "control_change"}, {"time": 2809, "annotation": {"number": 64, "value": 127}, "group": "control_change"}, {"time": 2828, "annotation": {"number": 64, "value": 0}, "group": "control_change"}, {"time": 2857, "annotation": {"number": 64, "value": 127}, "group": "control_change"}, {"time": 2879, "annotation": {"number": 64, "value": 0}, "group": "control_change"}, {"time": 2880, "annotation": {"number": 64, "value": 127}, "group": "control_change"}, {"time": 2902, "annotation": {"number": 64, "value": 0}, "group": "control_change"}, {"time": 2904, "annotation": {"number": 64, "value": 127}, "group": "control_change"}, {"time": 2951, "annotation": {"number": 64, "value": 0}, "group": "control_change"}, {"time": 2953, "annotation": {"number": 64, "value": 127}, "group": "control_change"}, {"time": 2975, "annotation": {"number": 64, "value": 0}, "group": "control_change"}, {"time": 2976, "annotation": {"number": 64, "value": 127}, "group": "control_change"}, {"time": 2999, "annotation": {"number": 64, "value": 0}, "group": "control_change"}, {"time": 3000, "annotation": {"number": 64, "value": 127}, "group": "control_change"}, {"time": 3022, "annotation": {"number": 64, "value": 0}, "group": "control_change"}, {"time": 3024, "annotation": {"number": 64, "value": 127}, "group": "control_change"}, {"time": 3035, "annotation": {"number": 64, "value": 0}, "group": "control_change"}, {"time": 3036, "annotation": {"number": 64, "value": 127}, "group": "control_change"}, {"time": 3047, "annotation": {"number": 64, "value": 0}, "group": "control_change"}, {"time": 3049, "annotation": {"number": 64, "value": 127}, "group": "control_change"}, {"time": 3071, "annotation": {"number": 64, "value": 0}, "group": "control_change"}, {"time": 3072, "annotation": {"number": 64, "value": 127}, "group": "control_change"}, {"time": 3095, "annotation": {"number": 64, "value": 0}, "group": "control_change"}, {"time": 3096, "annotation": {"number": 64, "value": 127}, "group": "control_change"}, {"time": 3097, "annotation": {"number": 64, "value": 127}, "group": "control_change"}, {"time": 3120, "annotation": {"number": 64, "value": 0}, "group": "control_change"}, {"time": 3121, "annotation": {"number": 64, "value": 127}, "group": "control_change"}, {"time": 3122, "annotation": {"number": 64, "value": 0}, "group": "control_change"}, {"time": 3178, "annotation": {"number": 64, "value": 127}, "group": "control_change"}, {"time": 3181, "annotation": {"number": 64, "value": 0}, "group": "control_change"}, {"time": 3182, "annotation": {"number": 64, "value": 127}, "group": "control_change"}, {"time": 3185, "annotation": {"number": 64, "value": 0}, "group": "control_change"}]}]}