{"metadata": {"schema_version": "0.2", "title": "None", "source_filename": "355.mid", "source_format": "midi"}, "resolution": 12, "tempos": [{"time": 0, "qpm": 126.000126000126}], "time_signatures": [{"time": 0, "numerator": 1, "denominator": 4}], "tracks": [{"program": 0, "is_drum": false, "name": "MELODY", "notes": [{"time": 833, "pitch": 55, "duration": 3, "velocity": 96}, {"time": 839, "pitch": 55, "duration": 5, "velocity": 99}, {"time": 845, "pitch": 64, "duration": 3, "velocity": 112}, {"time": 851, "pitch": 64, "duration": 3, "velocity": 100}, {"time": 857, "pitch": 64, "duration": 3, "velocity": 112}, {"time": 863, "pitch": 64, "duration": 3, "velocity": 127}, {"time": 869, "pitch": 64, "duration": 9, "velocity": 127}, {"time": 881, "pitch": 62, "duration": 9, "velocity": 122}, {"time": 893, "pitch": 57, "duration": 18, "velocity": 117}, {"time": 929, "pitch": 57, "duration": 3, "velocity": 107}, {"time": 935, "pitch": 60, "duration": 3, "velocity": 112}, {"time": 941, "pitch": 62, "duration": 2, "velocity": 107}, {"time": 947, "pitch": 62, "duration": 2, "velocity": 100}, {"time": 953, "pitch": 62, "duration": 2, "velocity": 95}, {"time": 959, "pitch": 62, "duration": 2, "velocity": 96}, {"time": 965, "pitch": 62, "duration": 9, "velocity": 112}, {"time": 977, "pitch": 60, "duration": 5, "velocity": 127}, {"time": 983, "pitch": 57, "duration": 3, "velocity": 100}, {"time": 989, "pitch": 55, "duration": 29, "velocity": 122}, {"time": 1037, "pitch": 57, "duration": 3, "velocity": 127}, {"time": 1043, "pitch": 57, "duration": 7, "velocity": 99}, {"time": 1055, "pitch": 55, "duration": 4, "velocity": 99}, {"time": 1061, "pitch": 57, "duration": 7, "velocity": 102}, {"time": 1073, "pitch": 57, "duration": 4, "velocity": 127}, {"time": 1079, "pitch": 55, "duration": 3, "velocity": 96}, {"time": 1085, "pitch": 55, "duration": 5, "velocity": 102}, {"time": 1091, "pitch": 69, "duration": 8, "velocity": 112}, {"time": 1103, "pitch": 67, "duration": 4, "velocity": 112}, {"time": 1109, "pitch": 64, "duration": 6, "velocity": 122}, {"time": 1121, "pitch": 57, "duration": 3, "velocity": 122}, {"time": 1127, "pitch": 60, "duration": 3, "velocity": 107}, {"time": 1133, "pitch": 62, "duration": 7, "velocity": 127}, {"time": 1145, "pitch": 62, "duration": 6, "velocity": 122}, {"time": 1157, "pitch": 62, "duration": 3, "velocity": 117}, {"time": 1163, "pitch": 60, "duration": 8, "velocity": 107}, {"time": 1175, "pitch": 64, "duration": 5, "velocity": 117}, {"time": 1181, "pitch": 62, "duration": 6, "velocity": 127}, {"time": 1217, "pitch": 55, "duration": 3, "velocity": 96}, {"time": 1223, "pitch": 55, "duration": 5, "velocity": 99}, {"time": 1229, "pitch": 64, "duration": 3, "velocity": 112}, {"time": 1235, "pitch": 64, "duration": 3, "velocity": 100}, {"time": 1241, "pitch": 64, "duration": 3, "velocity": 112}, {"time": 1247, "pitch": 64, "duration": 3, "velocity": 127}, {"time": 1253, "pitch": 64, "duration": 9, "velocity": 127}, {"time": 1265, "pitch": 62, "duration": 5, "velocity": 122}, {"time": 1271, "pitch": 60, "duration": 6, "velocity": 127}, {"time": 1277, "pitch": 57, "duration": 18, "velocity": 117}, {"time": 1313, "pitch": 57, "duration": 3, "velocity": 107}, {"time": 1319, "pitch": 60, "duration": 3, "velocity": 112}, {"time": 1325, "pitch": 62, "duration": 2, "velocity": 107}, {"time": 1331, "pitch": 62, "duration": 2, "velocity": 100}, {"time": 1337, "pitch": 62, "duration": 2, "velocity": 95}, {"time": 1343, "pitch": 62, "duration": 2, "velocity": 96}, {"time": 1349, "pitch": 62, "duration": 9, "velocity": 112}, {"time": 1361, "pitch": 60, "duration": 5, "velocity": 127}, {"time": 1367, "pitch": 57, "duration": 3, "velocity": 100}, {"time": 1373, "pitch": 55, "duration": 29, "velocity": 122}, {"time": 1421, "pitch": 57, "duration": 3, "velocity": 127}, {"time": 1427, "pitch": 57, "duration": 7, "velocity": 99}, {"time": 1439, "pitch": 55, "duration": 4, "velocity": 99}, {"time": 1445, "pitch": 57, "duration": 7, "velocity": 102}, {"time": 1457, "pitch": 57, "duration": 4, "velocity": 127}, {"time": 1463, "pitch": 55, "duration": 3, "velocity": 96}, {"time": 1469, "pitch": 55, "duration": 5, "velocity": 102}, {"time": 1475, "pitch": 69, "duration": 8, "velocity": 112}, {"time": 1487, "pitch": 67, "duration": 4, "velocity": 112}, {"time": 1493, "pitch": 64, "duration": 6, "velocity": 122}, {"time": 1505, "pitch": 57, "duration": 3, "velocity": 122}, {"time": 1511, "pitch": 60, "duration": 3, "velocity": 107}, {"time": 1517, "pitch": 62, "duration": 7, "velocity": 127}, {"time": 1526, "pitch": 62, "duration": 2, "velocity": 107}, {"time": 1529, "pitch": 62, "duration": 3, "velocity": 107}, {"time": 1535, "pitch": 64, "duration": 3, "velocity": 117}, {"time": 1541, "pitch": 62, "duration": 4, "velocity": 112}, {"time": 1547, "pitch": 60, "duration": 6, "velocity": 107}, {"time": 1559, "pitch": 69, "duration": 5, "velocity": 112}, {"time": 1565, "pitch": 67, "duration": 42, "velocity": 127}, {"time": 1649, "pitch": 64, "duration": 5, "velocity": 112}, {"time": 1655, "pitch": 67, "duration": 5, "velocity": 127}, {"time": 1661, "pitch": 72, "duration": 8, "velocity": 122}, {"time": 1673, "pitch": 71, "duration": 8, "velocity": 127}, {"time": 1685, "pitch": 69, "duration": 6, "velocity": 127}, {"time": 1697, "pitch": 67, "duration": 2, "velocity": 127}, {"time": 1703, "pitch": 69, "duration": 37, "velocity": 122}, {"time": 1745, "pitch": 69, "duration": 4, "velocity": 117}, {"time": 1751, "pitch": 64, "duration": 3, "velocity": 89}, {"time": 1757, "pitch": 67, "duration": 9, "velocity": 112}, {"time": 1769, "pitch": 69, "duration": 9, "velocity": 127}, {"time": 1781, "pitch": 69, "duration": 7, "velocity": 122}, {"time": 1793, "pitch": 67, "duration": 6, "velocity": 117}, {"time": 1799, "pitch": 64, "duration": 26, "velocity": 97}, {"time": 1841, "pitch": 57, "duration": 4, "velocity": 102}, {"time": 1847, "pitch": 60, "duration": 4, "velocity": 102}, {"time": 1853, "pitch": 62, "duration": 8, "velocity": 127}, {"time": 1865, "pitch": 64, "duration": 9, "velocity": 127}, {"time": 1877, "pitch": 62, "duration": 6, "velocity": 127}, {"time": 1889, "pitch": 60, "duration": 5, "velocity": 122}, {"time": 1895, "pitch": 57, "duration": 27, "velocity": 112}, {"time": 1937, "pitch": 57, "duration": 4, "velocity": 112}, {"time": 1943, "pitch": 60, "duration": 5, "velocity": 112}, {"time": 1949, "pitch": 62, "duration": 12, "velocity": 117}, {"time": 1961, "pitch": 62, "duration": 6, "velocity": 127}, {"time": 1967, "pitch": 60, "duration": 4, "velocity": 102}, {"time": 1973, "pitch": 60, "duration": 8, "velocity": 112}, {"time": 1979, "pitch": 69, "duration": 17, "velocity": 127}, {"time": 1997, "pitch": 67, "duration": 30, "velocity": 122}, {"time": 2033, "pitch": 64, "duration": 5, "velocity": 112}, {"time": 2039, "pitch": 67, "duration": 5, "velocity": 127}, {"time": 2045, "pitch": 72, "duration": 8, "velocity": 122}, {"time": 2057, "pitch": 71, "duration": 8, "velocity": 127}, {"time": 2069, "pitch": 69, "duration": 6, "velocity": 127}, {"time": 2081, "pitch": 67, "duration": 2, "velocity": 127}, {"time": 2087, "pitch": 69, "duration": 37, "velocity": 122}, {"time": 2129, "pitch": 69, "duration": 4, "velocity": 117}, {"time": 2135, "pitch": 64, "duration": 3, "velocity": 89}, {"time": 2141, "pitch": 67, "duration": 9, "velocity": 112}, {"time": 2153, "pitch": 69, "duration": 9, "velocity": 127}, {"time": 2165, "pitch": 69, "duration": 7, "velocity": 122}, {"time": 2177, "pitch": 67, "duration": 6, "velocity": 117}, {"time": 2183, "pitch": 64, "duration": 26, "velocity": 97}, {"time": 2225, "pitch": 57, "duration": 4, "velocity": 102}, {"time": 2231, "pitch": 60, "duration": 4, "velocity": 102}, {"time": 2237, "pitch": 62, "duration": 8, "velocity": 127}, {"time": 2249, "pitch": 62, "duration": 7, "velocity": 112}, {"time": 2261, "pitch": 62, "duration": 2, "velocity": 122}, {"time": 2267, "pitch": 62, "duration": 7, "velocity": 107}, {"time": 2279, "pitch": 64, "duration": 5, "velocity": 117}, {"time": 2285, "pitch": 62, "duration": 27, "velocity": 127}, {"time": 2321, "pitch": 57, "duration": 3, "velocity": 102}, {"time": 2327, "pitch": 60, "duration": 3, "velocity": 122}, {"time": 2333, "pitch": 62, "duration": 8, "velocity": 117}, {"time": 2345, "pitch": 64, "duration": 8, "velocity": 99}, {"time": 2357, "pitch": 55, "duration": 7, "velocity": 117}, {"time": 2363, "pitch": 57, "duration": 17, "velocity": 99}, {"time": 2381, "pitch": 60, "duration": 54, "velocity": 117}, {"time": 3185, "pitch": 55, "duration": 3, "velocity": 96}, {"time": 3191, "pitch": 55, "duration": 5, "velocity": 99}, {"time": 3197, "pitch": 64, "duration": 3, "velocity": 112}, {"time": 3203, "pitch": 64, "duration": 3, "velocity": 100}, {"time": 3209, "pitch": 64, "duration": 3, "velocity": 112}, {"time": 3215, "pitch": 64, "duration": 3, "velocity": 127}, {"time": 3221, "pitch": 64, "duration": 9, "velocity": 127}, {"time": 3233, "pitch": 62, "duration": 9, "velocity": 122}, {"time": 3245, "pitch": 57, "duration": 18, "velocity": 117}, {"time": 3281, "pitch": 57, "duration": 3, "velocity": 107}, {"time": 3287, "pitch": 60, "duration": 3, "velocity": 112}, {"time": 3293, "pitch": 62, "duration": 2, "velocity": 107}, {"time": 3299, "pitch": 62, "duration": 2, "velocity": 100}, {"time": 3305, "pitch": 62, "duration": 2, "velocity": 95}, {"time": 3311, "pitch": 62, "duration": 2, "velocity": 96}, {"time": 3317, "pitch": 62, "duration": 9, "velocity": 112}, {"time": 3329, "pitch": 60, "duration": 5, "velocity": 127}, {"time": 3335, "pitch": 57, "duration": 3, "velocity": 100}, {"time": 3341, "pitch": 55, "duration": 29, "velocity": 122}, {"time": 3389, "pitch": 57, "duration": 3, "velocity": 127}, {"time": 3395, "pitch": 57, "duration": 7, "velocity": 99}, {"time": 3407, "pitch": 55, "duration": 4, "velocity": 99}, {"time": 3413, "pitch": 57, "duration": 7, "velocity": 102}, {"time": 3425, "pitch": 57, "duration": 4, "velocity": 127}, {"time": 3431, "pitch": 55, "duration": 3, "velocity": 96}, {"time": 3437, "pitch": 55, "duration": 5, "velocity": 102}, {"time": 3443, "pitch": 69, "duration": 8, "velocity": 112}, {"time": 3455, "pitch": 67, "duration": 4, "velocity": 112}, {"time": 3461, "pitch": 64, "duration": 6, "velocity": 122}, {"time": 3473, "pitch": 57, "duration": 3, "velocity": 122}, {"time": 3479, "pitch": 60, "duration": 3, "velocity": 107}, {"time": 3485, "pitch": 62, "duration": 7, "velocity": 127}, {"time": 3497, "pitch": 62, "duration": 6, "velocity": 122}, {"time": 3509, "pitch": 62, "duration": 3, "velocity": 117}, {"time": 3515, "pitch": 60, "duration": 8, "velocity": 107}, {"time": 3527, "pitch": 64, "duration": 5, "velocity": 117}, {"time": 3533, "pitch": 62, "duration": 6, "velocity": 127}, {"time": 3569, "pitch": 55, "duration": 3, "velocity": 96}, {"time": 3575, "pitch": 55, "duration": 5, "velocity": 99}, {"time": 3581, "pitch": 64, "duration": 3, "velocity": 112}, {"time": 3587, "pitch": 64, "duration": 3, "velocity": 100}, {"time": 3593, "pitch": 64, "duration": 3, "velocity": 112}, {"time": 3599, "pitch": 64, "duration": 3, "velocity": 127}, {"time": 3605, "pitch": 64, "duration": 9, "velocity": 127}, {"time": 3617, "pitch": 62, "duration": 5, "velocity": 122}, {"time": 3623, "pitch": 60, "duration": 6, "velocity": 127}, {"time": 3629, "pitch": 57, "duration": 18, "velocity": 117}, {"time": 3665, "pitch": 57, "duration": 3, "velocity": 107}, {"time": 3671, "pitch": 60, "duration": 3, "velocity": 112}, {"time": 3677, "pitch": 62, "duration": 2, "velocity": 107}, {"time": 3683, "pitch": 62, "duration": 2, "velocity": 100}, {"time": 3689, "pitch": 62, "duration": 2, "velocity": 95}, {"time": 3695, "pitch": 62, "duration": 2, "velocity": 96}, {"time": 3701, "pitch": 62, "duration": 9, "velocity": 112}, {"time": 3713, "pitch": 60, "duration": 5, "velocity": 127}, {"time": 3719, "pitch": 57, "duration": 3, "velocity": 100}, {"time": 3725, "pitch": 55, "duration": 29, "velocity": 122}, {"time": 3773, "pitch": 57, "duration": 3, "velocity": 127}, {"time": 3779, "pitch": 57, "duration": 7, "velocity": 99}, {"time": 3791, "pitch": 55, "duration": 4, "velocity": 99}, {"time": 3797, "pitch": 57, "duration": 7, "velocity": 102}, {"time": 3809, "pitch": 57, "duration": 4, "velocity": 127}, {"time": 3815, "pitch": 55, "duration": 3, "velocity": 96}, {"time": 3821, "pitch": 55, "duration": 5, "velocity": 102}, {"time": 3827, "pitch": 69, "duration": 8, "velocity": 112}, {"time": 3839, "pitch": 67, "duration": 4, "velocity": 112}, {"time": 3845, "pitch": 64, "duration": 6, "velocity": 122}, {"time": 3857, "pitch": 57, "duration": 3, "velocity": 122}, {"time": 3863, "pitch": 60, "duration": 3, "velocity": 107}, {"time": 3869, "pitch": 62, "duration": 7, "velocity": 127}, {"time": 3878, "pitch": 62, "duration": 2, "velocity": 107}, {"time": 3881, "pitch": 62, "duration": 3, "velocity": 107}, {"time": 3887, "pitch": 64, "duration": 3, "velocity": 117}, {"time": 3893, "pitch": 62, "duration": 4, "velocity": 112}, {"time": 3899, "pitch": 60, "duration": 6, "velocity": 107}, {"time": 3911, "pitch": 69, "duration": 5, "velocity": 112}, {"time": 3917, "pitch": 67, "duration": 42, "velocity": 127}, {"time": 4001, "pitch": 64, "duration": 5, "velocity": 112}, {"time": 4007, "pitch": 67, "duration": 5, "velocity": 127}, {"time": 4013, "pitch": 72, "duration": 8, "velocity": 122}, {"time": 4025, "pitch": 71, "duration": 8, "velocity": 127}, {"time": 4037, "pitch": 69, "duration": 6, "velocity": 127}, {"time": 4049, "pitch": 67, "duration": 2, "velocity": 127}, {"time": 4055, "pitch": 69, "duration": 37, "velocity": 122}, {"time": 4097, "pitch": 69, "duration": 4, "velocity": 117}, {"time": 4103, "pitch": 64, "duration": 3, "velocity": 89}, {"time": 4109, "pitch": 67, "duration": 9, "velocity": 112}, {"time": 4121, "pitch": 69, "duration": 9, "velocity": 127}, {"time": 4133, "pitch": 69, "duration": 7, "velocity": 122}, {"time": 4145, "pitch": 67, "duration": 6, "velocity": 117}, {"time": 4151, "pitch": 64, "duration": 26, "velocity": 97}, {"time": 4193, "pitch": 57, "duration": 4, "velocity": 102}, {"time": 4199, "pitch": 60, "duration": 4, "velocity": 102}, {"time": 4205, "pitch": 62, "duration": 8, "velocity": 127}, {"time": 4217, "pitch": 64, "duration": 9, "velocity": 127}, {"time": 4229, "pitch": 62, "duration": 6, "velocity": 127}, {"time": 4241, "pitch": 60, "duration": 5, "velocity": 122}, {"time": 4247, "pitch": 57, "duration": 27, "velocity": 112}, {"time": 4289, "pitch": 57, "duration": 4, "velocity": 112}, {"time": 4295, "pitch": 60, "duration": 5, "velocity": 112}, {"time": 4301, "pitch": 62, "duration": 12, "velocity": 117}, {"time": 4313, "pitch": 62, "duration": 6, "velocity": 127}, {"time": 4319, "pitch": 60, "duration": 4, "velocity": 102}, {"time": 4325, "pitch": 60, "duration": 8, "velocity": 112}, {"time": 4331, "pitch": 69, "duration": 17, "velocity": 127}, {"time": 4349, "pitch": 67, "duration": 30, "velocity": 122}, {"time": 4385, "pitch": 64, "duration": 5, "velocity": 112}, {"time": 4391, "pitch": 67, "duration": 5, "velocity": 127}, {"time": 4397, "pitch": 72, "duration": 8, "velocity": 122}, {"time": 4409, "pitch": 71, "duration": 8, "velocity": 127}, {"time": 4421, "pitch": 69, "duration": 6, "velocity": 127}, {"time": 4433, "pitch": 67, "duration": 2, "velocity": 127}, {"time": 4439, "pitch": 69, "duration": 37, "velocity": 122}, {"time": 4481, "pitch": 69, "duration": 4, "velocity": 117}, {"time": 4487, "pitch": 64, "duration": 3, "velocity": 89}, {"time": 4493, "pitch": 67, "duration": 9, "velocity": 112}, {"time": 4505, "pitch": 69, "duration": 9, "velocity": 127}, {"time": 4517, "pitch": 69, "duration": 7, "velocity": 122}, {"time": 4529, "pitch": 67, "duration": 6, "velocity": 117}, {"time": 4535, "pitch": 64, "duration": 26, "velocity": 97}, {"time": 4577, "pitch": 57, "duration": 4, "velocity": 102}, {"time": 4583, "pitch": 60, "duration": 4, "velocity": 102}, {"time": 4589, "pitch": 62, "duration": 8, "velocity": 127}, {"time": 4601, "pitch": 62, "duration": 7, "velocity": 112}, {"time": 4613, "pitch": 62, "duration": 2, "velocity": 122}, {"time": 4619, "pitch": 62, "duration": 7, "velocity": 107}, {"time": 4631, "pitch": 64, "duration": 5, "velocity": 117}, {"time": 4637, "pitch": 62, "duration": 27, "velocity": 127}, {"time": 4673, "pitch": 57, "duration": 3, "velocity": 102}, {"time": 4679, "pitch": 60, "duration": 3, "velocity": 122}, {"time": 4685, "pitch": 62, "duration": 8, "velocity": 117}, {"time": 4697, "pitch": 64, "duration": 8, "velocity": 99}, {"time": 4709, "pitch": 55, "duration": 7, "velocity": 117}, {"time": 4715, "pitch": 57, "duration": 17, "velocity": 99}, {"time": 4733, "pitch": 60, "duration": 36, "velocity": 117}, {"time": 4769, "pitch": 64, "duration": 5, "velocity": 112}, {"time": 4775, "pitch": 67, "duration": 5, "velocity": 127}, {"time": 4781, "pitch": 72, "duration": 8, "velocity": 122}, {"time": 4793, "pitch": 71, "duration": 8, "velocity": 127}, {"time": 4805, "pitch": 69, "duration": 6, "velocity": 127}, {"time": 4817, "pitch": 67, "duration": 2, "velocity": 127}, {"time": 4823, "pitch": 69, "duration": 37, "velocity": 122}, {"time": 4865, "pitch": 69, "duration": 4, "velocity": 117}, {"time": 4871, "pitch": 64, "duration": 3, "velocity": 89}, {"time": 4877, "pitch": 67, "duration": 9, "velocity": 112}, {"time": 4889, "pitch": 69, "duration": 9, "velocity": 127}, {"time": 4901, "pitch": 69, "duration": 7, "velocity": 122}, {"time": 4913, "pitch": 67, "duration": 6, "velocity": 117}, {"time": 4919, "pitch": 64, "duration": 26, "velocity": 97}, {"time": 4961, "pitch": 57, "duration": 4, "velocity": 102}, {"time": 4967, "pitch": 60, "duration": 4, "velocity": 102}, {"time": 4973, "pitch": 62, "duration": 8, "velocity": 127}, {"time": 4985, "pitch": 64, "duration": 9, "velocity": 127}, {"time": 4997, "pitch": 62, "duration": 6, "velocity": 127}, {"time": 5009, "pitch": 60, "duration": 5, "velocity": 122}, {"time": 5015, "pitch": 57, "duration": 27, "velocity": 112}, {"time": 5057, "pitch": 57, "duration": 4, "velocity": 112}, {"time": 5063, "pitch": 60, "duration": 5, "velocity": 112}, {"time": 5069, "pitch": 62, "duration": 12, "velocity": 117}, {"time": 5081, "pitch": 62, "duration": 6, "velocity": 127}, {"time": 5087, "pitch": 60, "duration": 4, "velocity": 102}, {"time": 5093, "pitch": 60, "duration": 8, "velocity": 112}, {"time": 5099, "pitch": 69, "duration": 17, "velocity": 127}, {"time": 5117, "pitch": 67, "duration": 30, "velocity": 122}, {"time": 5153, "pitch": 64, "duration": 5, "velocity": 112}, {"time": 5159, "pitch": 67, "duration": 5, "velocity": 127}, {"time": 5165, "pitch": 72, "duration": 8, "velocity": 122}, {"time": 5177, "pitch": 71, "duration": 8, "velocity": 127}, {"time": 5189, "pitch": 69, "duration": 6, "velocity": 127}, {"time": 5201, "pitch": 67, "duration": 2, "velocity": 127}, {"time": 5207, "pitch": 69, "duration": 37, "velocity": 122}, {"time": 5249, "pitch": 69, "duration": 4, "velocity": 117}, {"time": 5255, "pitch": 64, "duration": 3, "velocity": 89}, {"time": 5261, "pitch": 67, "duration": 9, "velocity": 112}, {"time": 5273, "pitch": 69, "duration": 9, "velocity": 127}, {"time": 5285, "pitch": 69, "duration": 7, "velocity": 122}, {"time": 5297, "pitch": 67, "duration": 6, "velocity": 117}, {"time": 5303, "pitch": 64, "duration": 26, "velocity": 97}, {"time": 5345, "pitch": 57, "duration": 4, "velocity": 102}, {"time": 5351, "pitch": 60, "duration": 4, "velocity": 102}, {"time": 5357, "pitch": 62, "duration": 8, "velocity": 127}, {"time": 5369, "pitch": 62, "duration": 7, "velocity": 112}, {"time": 5381, "pitch": 62, "duration": 2, "velocity": 122}, {"time": 5387, "pitch": 62, "duration": 7, "velocity": 107}, {"time": 5399, "pitch": 64, "duration": 5, "velocity": 117}, {"time": 5405, "pitch": 62, "duration": 27, "velocity": 127}, {"time": 5441, "pitch": 57, "duration": 3, "velocity": 102}, {"time": 5447, "pitch": 60, "duration": 3, "velocity": 122}, {"time": 5453, "pitch": 62, "duration": 8, "velocity": 117}, {"time": 5465, "pitch": 64, "duration": 8, "velocity": 99}, {"time": 5477, "pitch": 55, "duration": 7, "velocity": 117}, {"time": 5483, "pitch": 57, "duration": 17, "velocity": 99}, {"time": 5501, "pitch": 60, "duration": 24, "velocity": 117}, {"time": 5537, "pitch": 57, "duration": 4, "velocity": 102}, {"time": 5543, "pitch": 60, "duration": 4, "velocity": 102}, {"time": 5549, "pitch": 62, "duration": 8, "velocity": 127}, {"time": 5561, "pitch": 62, "duration": 7, "velocity": 112}, {"time": 5573, "pitch": 62, "duration": 2, "velocity": 122}, {"time": 5579, "pitch": 62, "duration": 7, "velocity": 107}, {"time": 5591, "pitch": 64, "duration": 5, "velocity": 117}, {"time": 5597, "pitch": 62, "duration": 27, "velocity": 127}, {"time": 5633, "pitch": 57, "duration": 3, "velocity": 102}, {"time": 5639, "pitch": 60, "duration": 3, "velocity": 122}, {"time": 5645, "pitch": 62, "duration": 8, "velocity": 117}, {"time": 5657, "pitch": 64, "duration": 8, "velocity": 99}, {"time": 5669, "pitch": 55, "duration": 7, "velocity": 117}, {"time": 5675, "pitch": 57, "duration": 17, "velocity": 99}, {"time": 5693, "pitch": 60, "duration": 54, "velocity": 117}]}, {"program": 0, "is_drum": false, "name": "BRIDGE", "notes": [{"time": 65, "pitch": 76, "duration": 3, "velocity": 127}, {"time": 71, "pitch": 79, "duration": 3, "velocity": 102}, {"time": 77, "pitch": 84, "duration": 8, "velocity": 127}, {"time": 89, "pitch": 83, "duration": 7, "velocity": 117}, {"time": 101, "pitch": 81, "duration": 7, "velocity": 127}, {"time": 113, "pitch": 79, "duration": 6, "velocity": 117}, {"time": 119, "pitch": 81, "duration": 33, "velocity": 127}, {"time": 161, "pitch": 81, "duration": 3, "velocity": 127}, {"time": 167, "pitch": 76, "duration": 4, "velocity": 85}, {"time": 173, "pitch": 79, "duration": 7, "velocity": 127}, {"time": 185, "pitch": 79, "duration": 6, "velocity": 127}, {"time": 191, "pitch": 81, "duration": 3, "velocity": 117}, {"time": 197, "pitch": 81, "duration": 9, "velocity": 122}, {"time": 209, "pitch": 79, "duration": 2, "velocity": 117}, {"time": 215, "pitch": 76, "duration": 41, "velocity": 112}, {"time": 257, "pitch": 69, "duration": 6, "velocity": 99}, {"time": 263, "pitch": 72, "duration": 6, "velocity": 117}, {"time": 269, "pitch": 74, "duration": 4, "velocity": 100}, {"time": 275, "pitch": 74, "duration": 3, "velocity": 112}, {"time": 287, "pitch": 74, "duration": 3, "velocity": 117}, {"time": 293, "pitch": 74, "duration": 5, "velocity": 122}, {"time": 299, "pitch": 74, "duration": 7, "velocity": 122}, {"time": 311, "pitch": 76, "duration": 5, "velocity": 112}, {"time": 317, "pitch": 74, "duration": 12, "velocity": 127}, {"time": 329, "pitch": 72, "duration": 2, "velocity": 122}, {"time": 335, "pitch": 69, "duration": 19, "velocity": 102}, {"time": 353, "pitch": 76, "duration": 3, "velocity": 107}, {"time": 359, "pitch": 79, "duration": 2, "velocity": 107}, {"time": 365, "pitch": 81, "duration": 3, "velocity": 127}, {"time": 371, "pitch": 81, "duration": 3, "velocity": 92}, {"time": 377, "pitch": 81, "duration": 3, "velocity": 112}, {"time": 383, "pitch": 81, "duration": 2, "velocity": 117}, {"time": 389, "pitch": 81, "duration": 3, "velocity": 122}, {"time": 401, "pitch": 81, "duration": 5, "velocity": 127}, {"time": 407, "pitch": 84, "duration": 2, "velocity": 100}, {"time": 413, "pitch": 79, "duration": 9, "velocity": 97}, {"time": 422, "pitch": 81, "duration": 3, "velocity": 107}, {"time": 425, "pitch": 79, "duration": 24, "velocity": 127}, {"time": 449, "pitch": 64, "duration": 7, "velocity": 107}, {"time": 455, "pitch": 67, "duration": 4, "velocity": 97}, {"time": 461, "pitch": 72, "duration": 9, "velocity": 122}, {"time": 473, "pitch": 71, "duration": 7, "velocity": 122}, {"time": 485, "pitch": 69, "duration": 8, "velocity": 127}, {"time": 497, "pitch": 67, "duration": 2, "velocity": 107}, {"time": 503, "pitch": 69, "duration": 27, "velocity": 127}, {"time": 545, "pitch": 69, "duration": 6, "velocity": 122}, {"time": 551, "pitch": 64, "duration": 4, "velocity": 86}, {"time": 557, "pitch": 67, "duration": 7, "velocity": 127}, {"time": 569, "pitch": 67, "duration": 4, "velocity": 127}, {"time": 575, "pitch": 69, "duration": 2, "velocity": 102}, {"time": 581, "pitch": 69, "duration": 9, "velocity": 122}, {"time": 593, "pitch": 67, "duration": 4, "velocity": 122}, {"time": 599, "pitch": 64, "duration": 32, "velocity": 112}, {"time": 641, "pitch": 57, "duration": 5, "velocity": 100}, {"time": 647, "pitch": 60, "duration": 6, "velocity": 99}, {"time": 653, "pitch": 62, "duration": 2, "velocity": 92}, {"time": 659, "pitch": 62, "duration": 2, "velocity": 90}, {"time": 665, "pitch": 62, "duration": 3, "velocity": 99}, {"time": 671, "pitch": 62, "duration": 3, "velocity": 95}, {"time": 677, "pitch": 62, "duration": 2, "velocity": 112}, {"time": 683, "pitch": 62, "duration": 3, "velocity": 122}, {"time": 695, "pitch": 64, "duration": 3, "velocity": 117}, {"time": 701, "pitch": 62, "duration": 12, "velocity": 127}, {"time": 713, "pitch": 60, "duration": 5, "velocity": 112}, {"time": 719, "pitch": 57, "duration": 20, "velocity": 102}, {"time": 737, "pitch": 55, "duration": 5, "velocity": 112}, {"time": 743, "pitch": 57, "duration": 5, "velocity": 99}, {"time": 749, "pitch": 62, "duration": 7, "velocity": 107}, {"time": 761, "pitch": 62, "duration": 5, "velocity": 127}, {"time": 767, "pitch": 64, "duration": 4, "velocity": 117}, {"time": 773, "pitch": 55, "duration": 7, "velocity": 107}, {"time": 779, "pitch": 57, "duration": 16, "velocity": 112}, {"time": 797, "pitch": 60, "duration": 34, "velocity": 117}, {"time": 899, "pitch": 76, "duration": 4, "velocity": 102}, {"time": 905, "pitch": 74, "duration": 4, "velocity": 100}, {"time": 911, "pitch": 72, "duration": 5, "velocity": 89}, {"time": 917, "pitch": 69, "duration": 21, "velocity": 102}, {"time": 995, "pitch": 74, "duration": 3, "velocity": 107}, {"time": 1001, "pitch": 74, "duration": 5, "velocity": 95}, {"time": 1007, "pitch": 76, "duration": 6, "velocity": 95}, {"time": 1013, "pitch": 67, "duration": 23, "velocity": 102}, {"time": 1187, "pitch": 79, "duration": 2, "velocity": 102}, {"time": 1190, "pitch": 79, "duration": 1, "velocity": 76}, {"time": 1193, "pitch": 79, "duration": 2, "velocity": 92}, {"time": 1199, "pitch": 81, "duration": 2, "velocity": 102}, {"time": 1205, "pitch": 79, "duration": 3, "velocity": 112}, {"time": 1208, "pitch": 81, "duration": 3, "velocity": 69}, {"time": 1211, "pitch": 79, "duration": 3, "velocity": 83}, {"time": 1214, "pitch": 81, "duration": 3, "velocity": 85}, {"time": 1217, "pitch": 79, "duration": 6, "velocity": 97}, {"time": 1283, "pitch": 76, "duration": 2, "velocity": 127}, {"time": 1289, "pitch": 74, "duration": 4, "velocity": 112}, {"time": 1295, "pitch": 76, "duration": 3, "velocity": 93}, {"time": 1301, "pitch": 72, "duration": 5, "velocity": 100}, {"time": 1307, "pitch": 69, "duration": 19, "velocity": 97}, {"time": 1379, "pitch": 74, "duration": 2, "velocity": 107}, {"time": 1385, "pitch": 72, "duration": 6, "velocity": 117}, {"time": 1391, "pitch": 74, "duration": 2, "velocity": 97}, {"time": 1397, "pitch": 69, "duration": 5, "velocity": 122}, {"time": 1403, "pitch": 67, "duration": 19, "velocity": 90}, {"time": 1547, "pitch": 79, "duration": 2, "velocity": 112}, {"time": 1553, "pitch": 79, "duration": 5, "velocity": 99}, {"time": 1559, "pitch": 81, "duration": 6, "velocity": 99}, {"time": 1565, "pitch": 79, "duration": 42, "velocity": 107}, {"time": 1721, "pitch": 69, "duration": 11, "velocity": 112}, {"time": 1733, "pitch": 72, "duration": 11, "velocity": 122}, {"time": 1745, "pitch": 69, "duration": 7, "velocity": 127}, {"time": 1751, "pitch": 67, "duration": 6, "velocity": 85}, {"time": 1757, "pitch": 64, "duration": 35, "velocity": 107}, {"time": 1811, "pitch": 69, "duration": 8, "velocity": 112}, {"time": 1823, "pitch": 67, "duration": 2, "velocity": 99}, {"time": 1829, "pitch": 69, "duration": 6, "velocity": 122}, {"time": 1835, "pitch": 67, "duration": 3, "velocity": 90}, {"time": 1841, "pitch": 64, "duration": 23, "velocity": 100}, {"time": 1913, "pitch": 57, "duration": 12, "velocity": 99}, {"time": 1925, "pitch": 60, "duration": 12, "velocity": 102}, {"time": 1937, "pitch": 64, "duration": 12, "velocity": 99}, {"time": 1949, "pitch": 62, "duration": 20, "velocity": 102}, {"time": 1979, "pitch": 64, "duration": 2, "velocity": 100}, {"time": 1985, "pitch": 67, "duration": 2, "velocity": 97}, {"time": 1991, "pitch": 69, "duration": 2, "velocity": 100}, {"time": 1997, "pitch": 67, "duration": 2, "velocity": 112}, {"time": 2003, "pitch": 67, "duration": 3, "velocity": 112}, {"time": 2006, "pitch": 69, "duration": 4, "velocity": 88}, {"time": 2009, "pitch": 67, "duration": 2, "velocity": 99}, {"time": 2015, "pitch": 67, "duration": 3, "velocity": 93}, {"time": 2018, "pitch": 69, "duration": 4, "velocity": 92}, {"time": 2021, "pitch": 67, "duration": 15, "velocity": 102}, {"time": 2105, "pitch": 69, "duration": 2, "velocity": 127}, {"time": 2111, "pitch": 67, "duration": 2, "velocity": 107}, {"time": 2117, "pitch": 69, "duration": 6, "velocity": 122}, {"time": 2123, "pitch": 67, "duration": 2, "velocity": 88}, {"time": 2129, "pitch": 69, "duration": 19, "velocity": 127}, {"time": 2201, "pitch": 69, "duration": 12, "velocity": 127}, {"time": 2213, "pitch": 67, "duration": 12, "velocity": 117}, {"time": 2225, "pitch": 64, "duration": 12, "velocity": 122}, {"time": 2237, "pitch": 62, "duration": 36, "velocity": 97}, {"time": 2297, "pitch": 62, "duration": 13, "velocity": 127}, {"time": 2309, "pitch": 64, "duration": 12, "velocity": 117}, {"time": 2321, "pitch": 62, "duration": 12, "velocity": 107}, {"time": 2333, "pitch": 55, "duration": 43, "velocity": 102}, {"time": 2375, "pitch": 57, "duration": 6, "velocity": 100}, {"time": 2381, "pitch": 60, "duration": 36, "velocity": 107}, {"time": 2417, "pitch": 76, "duration": 3, "velocity": 127}, {"time": 2423, "pitch": 79, "duration": 3, "velocity": 102}, {"time": 2429, "pitch": 84, "duration": 8, "velocity": 127}, {"time": 2441, "pitch": 83, "duration": 7, "velocity": 117}, {"time": 2453, "pitch": 81, "duration": 7, "velocity": 127}, {"time": 2465, "pitch": 79, "duration": 6, "velocity": 117}, {"time": 2471, "pitch": 81, "duration": 33, "velocity": 127}, {"time": 2513, "pitch": 81, "duration": 3, "velocity": 127}, {"time": 2519, "pitch": 76, "duration": 4, "velocity": 85}, {"time": 2525, "pitch": 79, "duration": 7, "velocity": 127}, {"time": 2537, "pitch": 79, "duration": 6, "velocity": 127}, {"time": 2543, "pitch": 81, "duration": 3, "velocity": 117}, {"time": 2549, "pitch": 81, "duration": 9, "velocity": 122}, {"time": 2561, "pitch": 79, "duration": 2, "velocity": 117}, {"time": 2567, "pitch": 76, "duration": 41, "velocity": 112}, {"time": 2609, "pitch": 69, "duration": 6, "velocity": 99}, {"time": 2615, "pitch": 72, "duration": 6, "velocity": 117}, {"time": 2621, "pitch": 74, "duration": 4, "velocity": 100}, {"time": 2627, "pitch": 74, "duration": 3, "velocity": 112}, {"time": 2639, "pitch": 74, "duration": 3, "velocity": 117}, {"time": 2645, "pitch": 74, "duration": 5, "velocity": 122}, {"time": 2651, "pitch": 74, "duration": 7, "velocity": 122}, {"time": 2663, "pitch": 76, "duration": 5, "velocity": 112}, {"time": 2669, "pitch": 74, "duration": 12, "velocity": 127}, {"time": 2681, "pitch": 72, "duration": 2, "velocity": 122}, {"time": 2687, "pitch": 69, "duration": 19, "velocity": 102}, {"time": 2705, "pitch": 76, "duration": 3, "velocity": 107}, {"time": 2711, "pitch": 79, "duration": 2, "velocity": 107}, {"time": 2717, "pitch": 81, "duration": 3, "velocity": 127}, {"time": 2723, "pitch": 81, "duration": 3, "velocity": 92}, {"time": 2729, "pitch": 81, "duration": 3, "velocity": 112}, {"time": 2735, "pitch": 81, "duration": 2, "velocity": 117}, {"time": 2741, "pitch": 81, "duration": 3, "velocity": 122}, {"time": 2753, "pitch": 81, "duration": 5, "velocity": 127}, {"time": 2759, "pitch": 84, "duration": 2, "velocity": 100}, {"time": 2765, "pitch": 79, "duration": 9, "velocity": 97}, {"time": 2774, "pitch": 81, "duration": 3, "velocity": 107}, {"time": 2777, "pitch": 79, "duration": 24, "velocity": 127}, {"time": 2801, "pitch": 64, "duration": 7, "velocity": 107}, {"time": 2807, "pitch": 67, "duration": 4, "velocity": 97}, {"time": 2813, "pitch": 72, "duration": 9, "velocity": 122}, {"time": 2825, "pitch": 71, "duration": 7, "velocity": 122}, {"time": 2837, "pitch": 69, "duration": 8, "velocity": 127}, {"time": 2849, "pitch": 67, "duration": 2, "velocity": 107}, {"time": 2855, "pitch": 69, "duration": 27, "velocity": 127}, {"time": 2897, "pitch": 69, "duration": 6, "velocity": 122}, {"time": 2903, "pitch": 64, "duration": 4, "velocity": 86}, {"time": 2909, "pitch": 67, "duration": 7, "velocity": 127}, {"time": 2921, "pitch": 67, "duration": 4, "velocity": 127}, {"time": 2927, "pitch": 69, "duration": 2, "velocity": 102}, {"time": 2933, "pitch": 69, "duration": 9, "velocity": 122}, {"time": 2945, "pitch": 67, "duration": 4, "velocity": 122}, {"time": 2951, "pitch": 64, "duration": 32, "velocity": 112}, {"time": 2993, "pitch": 57, "duration": 5, "velocity": 100}, {"time": 2999, "pitch": 60, "duration": 6, "velocity": 99}, {"time": 3005, "pitch": 62, "duration": 2, "velocity": 92}, {"time": 3011, "pitch": 62, "duration": 2, "velocity": 90}, {"time": 3017, "pitch": 62, "duration": 3, "velocity": 99}, {"time": 3023, "pitch": 62, "duration": 3, "velocity": 95}, {"time": 3029, "pitch": 62, "duration": 2, "velocity": 112}, {"time": 3035, "pitch": 62, "duration": 3, "velocity": 122}, {"time": 3047, "pitch": 64, "duration": 3, "velocity": 117}, {"time": 3053, "pitch": 62, "duration": 12, "velocity": 127}, {"time": 3065, "pitch": 60, "duration": 5, "velocity": 112}, {"time": 3071, "pitch": 57, "duration": 20, "velocity": 102}, {"time": 3089, "pitch": 55, "duration": 5, "velocity": 112}, {"time": 3095, "pitch": 57, "duration": 5, "velocity": 99}, {"time": 3101, "pitch": 62, "duration": 7, "velocity": 107}, {"time": 3113, "pitch": 62, "duration": 5, "velocity": 127}, {"time": 3119, "pitch": 64, "duration": 4, "velocity": 117}, {"time": 3125, "pitch": 55, "duration": 7, "velocity": 107}, {"time": 3131, "pitch": 57, "duration": 16, "velocity": 112}, {"time": 3149, "pitch": 60, "duration": 34, "velocity": 117}, {"time": 3251, "pitch": 76, "duration": 4, "velocity": 102}, {"time": 3257, "pitch": 74, "duration": 4, "velocity": 100}, {"time": 3263, "pitch": 72, "duration": 5, "velocity": 89}, {"time": 3269, "pitch": 69, "duration": 21, "velocity": 102}, {"time": 3347, "pitch": 74, "duration": 3, "velocity": 107}, {"time": 3353, "pitch": 74, "duration": 5, "velocity": 95}, {"time": 3359, "pitch": 76, "duration": 6, "velocity": 95}, {"time": 3365, "pitch": 67, "duration": 23, "velocity": 102}, {"time": 3539, "pitch": 79, "duration": 2, "velocity": 102}, {"time": 3542, "pitch": 79, "duration": 1, "velocity": 76}, {"time": 3545, "pitch": 79, "duration": 2, "velocity": 92}, {"time": 3551, "pitch": 81, "duration": 2, "velocity": 102}, {"time": 3557, "pitch": 79, "duration": 3, "velocity": 112}, {"time": 3560, "pitch": 81, "duration": 3, "velocity": 69}, {"time": 3563, "pitch": 79, "duration": 3, "velocity": 83}, {"time": 3566, "pitch": 81, "duration": 3, "velocity": 85}, {"time": 3569, "pitch": 79, "duration": 6, "velocity": 97}, {"time": 3635, "pitch": 76, "duration": 2, "velocity": 127}, {"time": 3641, "pitch": 74, "duration": 4, "velocity": 112}, {"time": 3647, "pitch": 76, "duration": 3, "velocity": 93}, {"time": 3653, "pitch": 72, "duration": 5, "velocity": 100}, {"time": 3659, "pitch": 69, "duration": 19, "velocity": 97}, {"time": 3731, "pitch": 74, "duration": 2, "velocity": 107}, {"time": 3737, "pitch": 72, "duration": 6, "velocity": 117}, {"time": 3743, "pitch": 74, "duration": 2, "velocity": 97}, {"time": 3749, "pitch": 69, "duration": 5, "velocity": 122}, {"time": 3755, "pitch": 67, "duration": 19, "velocity": 90}, {"time": 3899, "pitch": 79, "duration": 2, "velocity": 112}, {"time": 3905, "pitch": 79, "duration": 5, "velocity": 99}, {"time": 3911, "pitch": 81, "duration": 6, "velocity": 99}, {"time": 3917, "pitch": 79, "duration": 42, "velocity": 107}, {"time": 4073, "pitch": 69, "duration": 11, "velocity": 112}, {"time": 4085, "pitch": 72, "duration": 11, "velocity": 122}, {"time": 4097, "pitch": 69, "duration": 7, "velocity": 127}, {"time": 4103, "pitch": 67, "duration": 6, "velocity": 85}, {"time": 4109, "pitch": 64, "duration": 35, "velocity": 107}, {"time": 4163, "pitch": 69, "duration": 8, "velocity": 112}, {"time": 4175, "pitch": 67, "duration": 2, "velocity": 99}, {"time": 4181, "pitch": 69, "duration": 6, "velocity": 122}, {"time": 4187, "pitch": 67, "duration": 3, "velocity": 90}, {"time": 4193, "pitch": 64, "duration": 23, "velocity": 100}, {"time": 4265, "pitch": 57, "duration": 12, "velocity": 99}, {"time": 4277, "pitch": 60, "duration": 12, "velocity": 102}, {"time": 4289, "pitch": 64, "duration": 12, "velocity": 99}, {"time": 4301, "pitch": 62, "duration": 20, "velocity": 102}, {"time": 4331, "pitch": 64, "duration": 2, "velocity": 100}, {"time": 4337, "pitch": 67, "duration": 2, "velocity": 97}, {"time": 4343, "pitch": 69, "duration": 2, "velocity": 100}, {"time": 4349, "pitch": 67, "duration": 2, "velocity": 112}, {"time": 4355, "pitch": 67, "duration": 3, "velocity": 112}, {"time": 4358, "pitch": 69, "duration": 4, "velocity": 88}, {"time": 4361, "pitch": 67, "duration": 2, "velocity": 99}, {"time": 4367, "pitch": 67, "duration": 3, "velocity": 93}, {"time": 4370, "pitch": 69, "duration": 4, "velocity": 92}, {"time": 4373, "pitch": 67, "duration": 15, "velocity": 102}, {"time": 4457, "pitch": 69, "duration": 2, "velocity": 127}, {"time": 4463, "pitch": 67, "duration": 2, "velocity": 107}, {"time": 4469, "pitch": 69, "duration": 6, "velocity": 122}, {"time": 4475, "pitch": 67, "duration": 2, "velocity": 88}, {"time": 4481, "pitch": 69, "duration": 19, "velocity": 127}, {"time": 4553, "pitch": 69, "duration": 12, "velocity": 127}, {"time": 4565, "pitch": 67, "duration": 12, "velocity": 117}, {"time": 4577, "pitch": 64, "duration": 12, "velocity": 122}, {"time": 4589, "pitch": 62, "duration": 36, "velocity": 97}, {"time": 4649, "pitch": 62, "duration": 13, "velocity": 127}, {"time": 4661, "pitch": 64, "duration": 12, "velocity": 117}, {"time": 4673, "pitch": 62, "duration": 12, "velocity": 107}, {"time": 4685, "pitch": 55, "duration": 43, "velocity": 102}, {"time": 4727, "pitch": 57, "duration": 6, "velocity": 100}, {"time": 4733, "pitch": 60, "duration": 44, "velocity": 107}, {"time": 4841, "pitch": 69, "duration": 11, "velocity": 112}, {"time": 4853, "pitch": 72, "duration": 11, "velocity": 122}, {"time": 4865, "pitch": 69, "duration": 7, "velocity": 127}, {"time": 4871, "pitch": 67, "duration": 6, "velocity": 85}, {"time": 4877, "pitch": 64, "duration": 35, "velocity": 107}, {"time": 4931, "pitch": 69, "duration": 8, "velocity": 112}, {"time": 4943, "pitch": 67, "duration": 2, "velocity": 99}, {"time": 4949, "pitch": 69, "duration": 6, "velocity": 122}, {"time": 4955, "pitch": 67, "duration": 3, "velocity": 90}, {"time": 4961, "pitch": 64, "duration": 23, "velocity": 100}, {"time": 5033, "pitch": 57, "duration": 12, "velocity": 99}, {"time": 5045, "pitch": 60, "duration": 12, "velocity": 102}, {"time": 5057, "pitch": 64, "duration": 12, "velocity": 99}, {"time": 5069, "pitch": 62, "duration": 20, "velocity": 102}, {"time": 5099, "pitch": 64, "duration": 2, "velocity": 100}, {"time": 5105, "pitch": 67, "duration": 2, "velocity": 97}, {"time": 5111, "pitch": 69, "duration": 2, "velocity": 100}, {"time": 5117, "pitch": 67, "duration": 2, "velocity": 112}, {"time": 5123, "pitch": 67, "duration": 3, "velocity": 112}, {"time": 5126, "pitch": 69, "duration": 4, "velocity": 88}, {"time": 5129, "pitch": 67, "duration": 2, "velocity": 99}, {"time": 5135, "pitch": 67, "duration": 3, "velocity": 93}, {"time": 5138, "pitch": 69, "duration": 4, "velocity": 92}, {"time": 5141, "pitch": 67, "duration": 15, "velocity": 102}, {"time": 5225, "pitch": 69, "duration": 2, "velocity": 127}, {"time": 5231, "pitch": 67, "duration": 2, "velocity": 107}, {"time": 5237, "pitch": 69, "duration": 6, "velocity": 122}, {"time": 5243, "pitch": 67, "duration": 2, "velocity": 88}, {"time": 5249, "pitch": 69, "duration": 19, "velocity": 127}, {"time": 5321, "pitch": 69, "duration": 12, "velocity": 127}, {"time": 5333, "pitch": 67, "duration": 12, "velocity": 117}, {"time": 5345, "pitch": 64, "duration": 12, "velocity": 122}, {"time": 5357, "pitch": 62, "duration": 36, "velocity": 97}, {"time": 5417, "pitch": 62, "duration": 13, "velocity": 127}, {"time": 5429, "pitch": 64, "duration": 12, "velocity": 117}, {"time": 5441, "pitch": 62, "duration": 12, "velocity": 107}, {"time": 5453, "pitch": 55, "duration": 43, "velocity": 102}, {"time": 5495, "pitch": 57, "duration": 6, "velocity": 100}, {"time": 5501, "pitch": 60, "duration": 44, "velocity": 107}, {"time": 5549, "pitch": 62, "duration": 36, "velocity": 97}, {"time": 5609, "pitch": 62, "duration": 13, "velocity": 127}, {"time": 5621, "pitch": 64, "duration": 12, "velocity": 117}, {"time": 5633, "pitch": 62, "duration": 12, "velocity": 107}, {"time": 5645, "pitch": 55, "duration": 10, "velocity": 112}, {"time": 5669, "pitch": 55, "duration": 6, "velocity": 112}, {"time": 5675, "pitch": 57, "duration": 14, "velocity": 127}, {"time": 5693, "pitch": 72, "duration": 5, "velocity": 99}, {"time": 5705, "pitch": 72, "duration": 2, "velocity": 107}, {"time": 5711, "pitch": 72, "duration": 8, "velocity": 112}, {"time": 5723, "pitch": 76, "duration": 5, "velocity": 112}, {"time": 5729, "pitch": 74, "duration": 5, "velocity": 107}, {"time": 5735, "pitch": 72, "duration": 5, "velocity": 96}, {"time": 5741, "pitch": 72, "duration": 5, "velocity": 112}, {"time": 5747, "pitch": 69, "duration": 26, "velocity": 107}, {"time": 5789, "pitch": 74, "duration": 6, "velocity": 122}, {"time": 5801, "pitch": 74, "duration": 3, "velocity": 112}, {"time": 5807, "pitch": 74, "duration": 7, "velocity": 117}, {"time": 5819, "pitch": 74, "duration": 6, "velocity": 127}, {"time": 5825, "pitch": 72, "duration": 6, "velocity": 112}, {"time": 5831, "pitch": 69, "duration": 8, "velocity": 97}, {"time": 5837, "pitch": 67, "duration": 21, "velocity": 107}, {"time": 5873, "pitch": 67, "duration": 6, "velocity": 112}, {"time": 5879, "pitch": 69, "duration": 6, "velocity": 107}, {"time": 5885, "pitch": 72, "duration": 67, "velocity": 117}]}, {"program": 0, "is_drum": false, "name": "PIANO", "notes": [{"time": 29, "pitch": 48, "duration": 2, "velocity": 73}, {"time": 41, "pitch": 48, "duration": 2, "velocity": 59}, {"time": 53, "pitch": 48, "duration": 3, "velocity": 75}, {"time": 65, "pitch": 48, "duration": 2, "velocity": 75}, {"time": 77, "pitch": 48, "duration": 10, "velocity": 96}, {"time": 83, "pitch": 60, "duration": 1, "velocity": 95}, {"time": 83, "pitch": 64, "duration": 1, "velocity": 79}, {"time": 83, "pitch": 67, "duration": 1, "velocity": 85}, {"time": 86, "pitch": 60, "duration": 2, "velocity": 69}, {"time": 86, "pitch": 64, "duration": 2, "velocity": 77}, {"time": 86, "pitch": 67, "duration": 3, "velocity": 79}, {"time": 89, "pitch": 43, "duration": 9, "velocity": 79}, {"time": 95, "pitch": 60, "duration": 1, "velocity": 81}, {"time": 95, "pitch": 64, "duration": 1, "velocity": 85}, {"time": 95, "pitch": 67, "duration": 2, "velocity": 83}, {"time": 101, "pitch": 48, "duration": 13, "velocity": 59}, {"time": 107, "pitch": 55, "duration": 2, "velocity": 89}, {"time": 107, "pitch": 60, "duration": 1, "velocity": 92}, {"time": 107, "pitch": 64, "duration": 1, "velocity": 79}, {"time": 110, "pitch": 55, "duration": 2, "velocity": 63}, {"time": 110, "pitch": 60, "duration": 2, "velocity": 64}, {"time": 110, "pitch": 64, "duration": 2, "velocity": 61}, {"time": 113, "pitch": 43, "duration": 8, "velocity": 77}, {"time": 119, "pitch": 55, "duration": 1, "velocity": 89}, {"time": 119, "pitch": 60, "duration": 2, "velocity": 97}, {"time": 119, "pitch": 64, "duration": 2, "velocity": 88}, {"time": 125, "pitch": 45, "duration": 8, "velocity": 86}, {"time": 131, "pitch": 57, "duration": 2, "velocity": 76}, {"time": 131, "pitch": 60, "duration": 2, "velocity": 86}, {"time": 131, "pitch": 64, "duration": 1, "velocity": 79}, {"time": 134, "pitch": 57, "duration": 3, "velocity": 58}, {"time": 134, "pitch": 60, "duration": 3, "velocity": 68}, {"time": 134, "pitch": 64, "duration": 3, "velocity": 66}, {"time": 137, "pitch": 40, "duration": 9, "velocity": 78}, {"time": 143, "pitch": 57, "duration": 2, "velocity": 88}, {"time": 143, "pitch": 60, "duration": 1, "velocity": 92}, {"time": 143, "pitch": 64, "duration": 2, "velocity": 83}, {"time": 149, "pitch": 45, "duration": 12, "velocity": 81}, {"time": 155, "pitch": 52, "duration": 2, "velocity": 86}, {"time": 155, "pitch": 56, "duration": 1, "velocity": 66}, {"time": 155, "pitch": 57, "duration": 2, "velocity": 76}, {"time": 155, "pitch": 60, "duration": 2, "velocity": 86}, {"time": 158, "pitch": 52, "duration": 2, "velocity": 41}, {"time": 158, "pitch": 57, "duration": 3, "velocity": 52}, {"time": 158, "pitch": 60, "duration": 3, "velocity": 61}, {"time": 161, "pitch": 40, "duration": 7, "velocity": 72}, {"time": 167, "pitch": 52, "duration": 1, "velocity": 86}, {"time": 167, "pitch": 57, "duration": 2, "velocity": 100}, {"time": 167, "pitch": 60, "duration": 2, "velocity": 92}, {"time": 173, "pitch": 48, "duration": 12, "velocity": 76}, {"time": 179, "pitch": 55, "duration": 1, "velocity": 78}, {"time": 179, "pitch": 60, "duration": 1, "velocity": 92}, {"time": 179, "pitch": 64, "duration": 2, "velocity": 79}, {"time": 182, "pitch": 55, "duration": 3, "velocity": 56}, {"time": 182, "pitch": 60, "duration": 3, "velocity": 66}, {"time": 182, "pitch": 64, "duration": 3, "velocity": 66}, {"time": 185, "pitch": 43, "duration": 9, "velocity": 62}, {"time": 191, "pitch": 55, "duration": 1, "velocity": 79}, {"time": 191, "pitch": 60, "duration": 2, "velocity": 93}, {"time": 191, "pitch": 64, "duration": 2, "velocity": 78}, {"time": 197, "pitch": 48, "duration": 12, "velocity": 59}, {"time": 203, "pitch": 55, "duration": 2, "velocity": 73}, {"time": 203, "pitch": 60, "duration": 2, "velocity": 85}, {"time": 203, "pitch": 64, "duration": 2, "velocity": 73}, {"time": 206, "pitch": 55, "duration": 2, "velocity": 49}, {"time": 206, "pitch": 60, "duration": 3, "velocity": 60}, {"time": 206, "pitch": 64, "duration": 3, "velocity": 62}, {"time": 209, "pitch": 43, "duration": 10, "velocity": 55}, {"time": 215, "pitch": 55, "duration": 2, "velocity": 88}, {"time": 215, "pitch": 60, "duration": 2, "velocity": 95}, {"time": 215, "pitch": 64, "duration": 2, "velocity": 85}, {"time": 221, "pitch": 45, "duration": 12, "velocity": 72}, {"time": 227, "pitch": 52, "duration": 2, "velocity": 63}, {"time": 227, "pitch": 57, "duration": 2, "velocity": 85}, {"time": 227, "pitch": 60, "duration": 2, "velocity": 77}, {"time": 230, "pitch": 52, "duration": 2, "velocity": 55}, {"time": 230, "pitch": 57, "duration": 2, "velocity": 69}, {"time": 230, "pitch": 60, "duration": 3, "velocity": 66}, {"time": 233, "pitch": 40, "duration": 11, "velocity": 66}, {"time": 239, "pitch": 52, "duration": 2, "velocity": 81}, {"time": 239, "pitch": 57, "duration": 2, "velocity": 95}, {"time": 239, "pitch": 60, "duration": 2, "velocity": 89}, {"time": 245, "pitch": 45, "duration": 13, "velocity": 71}, {"time": 251, "pitch": 52, "duration": 1, "velocity": 76}, {"time": 251, "pitch": 57, "duration": 1, "velocity": 90}, {"time": 251, "pitch": 60, "duration": 2, "velocity": 83}, {"time": 257, "pitch": 40, "duration": 8, "velocity": 68}, {"time": 257, "pitch": 52, "duration": 3, "velocity": 49}, {"time": 257, "pitch": 57, "duration": 3, "velocity": 65}, {"time": 257, "pitch": 60, "duration": 3, "velocity": 64}, {"time": 263, "pitch": 52, "duration": 1, "velocity": 76}, {"time": 263, "pitch": 57, "duration": 2, "velocity": 93}, {"time": 263, "pitch": 60, "duration": 2, "velocity": 86}, {"time": 269, "pitch": 50, "duration": 12, "velocity": 66}, {"time": 275, "pitch": 57, "duration": 2, "velocity": 90}, {"time": 275, "pitch": 62, "duration": 2, "velocity": 95}, {"time": 275, "pitch": 65, "duration": 2, "velocity": 79}, {"time": 278, "pitch": 57, "duration": 2, "velocity": 65}, {"time": 278, "pitch": 62, "duration": 2, "velocity": 66}, {"time": 278, "pitch": 65, "duration": 2, "velocity": 56}, {"time": 281, "pitch": 45, "duration": 11, "velocity": 71}, {"time": 287, "pitch": 57, "duration": 2, "velocity": 89}, {"time": 287, "pitch": 62, "duration": 2, "velocity": 93}, {"time": 287, "pitch": 65, "duration": 2, "velocity": 77}, {"time": 293, "pitch": 50, "duration": 13, "velocity": 58}, {"time": 299, "pitch": 57, "duration": 2, "velocity": 89}, {"time": 299, "pitch": 62, "duration": 1, "velocity": 92}, {"time": 299, "pitch": 65, "duration": 2, "velocity": 81}, {"time": 302, "pitch": 57, "duration": 2, "velocity": 50}, {"time": 302, "pitch": 62, "duration": 3, "velocity": 63}, {"time": 302, "pitch": 65, "duration": 3, "velocity": 62}, {"time": 305, "pitch": 45, "duration": 8, "velocity": 85}, {"time": 311, "pitch": 57, "duration": 2, "velocity": 92}, {"time": 311, "pitch": 62, "duration": 2, "velocity": 99}, {"time": 311, "pitch": 65, "duration": 2, "velocity": 89}, {"time": 317, "pitch": 45, "duration": 12, "velocity": 96}, {"time": 323, "pitch": 52, "duration": 6, "velocity": 68}, {"time": 323, "pitch": 57, "duration": 6, "velocity": 82}, {"time": 323, "pitch": 60, "duration": 6, "velocity": 82}, {"time": 329, "pitch": 40, "duration": 10, "velocity": 72}, {"time": 335, "pitch": 52, "duration": 2, "velocity": 77}, {"time": 335, "pitch": 57, "duration": 2, "velocity": 92}, {"time": 335, "pitch": 60, "duration": 2, "velocity": 83}, {"time": 341, "pitch": 45, "duration": 13, "velocity": 68}, {"time": 347, "pitch": 52, "duration": 2, "velocity": 68}, {"time": 347, "pitch": 57, "duration": 1, "velocity": 81}, {"time": 347, "pitch": 60, "duration": 2, "velocity": 78}, {"time": 350, "pitch": 52, "duration": 3, "velocity": 55}, {"time": 350, "pitch": 57, "duration": 3, "velocity": 65}, {"time": 350, "pitch": 60, "duration": 3, "velocity": 63}, {"time": 353, "pitch": 40, "duration": 8, "velocity": 75}, {"time": 359, "pitch": 52, "duration": 2, "velocity": 85}, {"time": 359, "pitch": 57, "duration": 2, "velocity": 93}, {"time": 359, "pitch": 60, "duration": 2, "velocity": 88}, {"time": 365, "pitch": 50, "duration": 13, "velocity": 74}, {"time": 371, "pitch": 57, "duration": 2, "velocity": 81}, {"time": 371, "pitch": 62, "duration": 2, "velocity": 90}, {"time": 371, "pitch": 65, "duration": 1, "velocity": 75}, {"time": 374, "pitch": 57, "duration": 2, "velocity": 56}, {"time": 374, "pitch": 62, "duration": 3, "velocity": 64}, {"time": 374, "pitch": 65, "duration": 2, "velocity": 60}, {"time": 377, "pitch": 45, "duration": 11, "velocity": 69}, {"time": 383, "pitch": 57, "duration": 2, "velocity": 83}, {"time": 383, "pitch": 62, "duration": 2, "velocity": 93}, {"time": 383, "pitch": 65, "duration": 2, "velocity": 83}, {"time": 389, "pitch": 50, "duration": 13, "velocity": 66}, {"time": 395, "pitch": 57, "duration": 2, "velocity": 77}, {"time": 395, "pitch": 62, "duration": 1, "velocity": 86}, {"time": 395, "pitch": 65, "duration": 2, "velocity": 78}, {"time": 398, "pitch": 57, "duration": 3, "velocity": 46}, {"time": 398, "pitch": 62, "duration": 3, "velocity": 59}, {"time": 398, "pitch": 65, "duration": 3, "velocity": 55}, {"time": 401, "pitch": 45, "duration": 8, "velocity": 68}, {"time": 407, "pitch": 57, "duration": 2, "velocity": 86}, {"time": 407, "pitch": 62, "duration": 2, "velocity": 95}, {"time": 407, "pitch": 65, "duration": 2, "velocity": 82}, {"time": 413, "pitch": 43, "duration": 13, "velocity": 89}, {"time": 419, "pitch": 50, "duration": 2, "velocity": 72}, {"time": 419, "pitch": 55, "duration": 2, "velocity": 82}, {"time": 419, "pitch": 59, "duration": 2, "velocity": 81}, {"time": 422, "pitch": 50, "duration": 2, "velocity": 55}, {"time": 422, "pitch": 55, "duration": 3, "velocity": 68}, {"time": 422, "pitch": 59, "duration": 3, "velocity": 67}, {"time": 425, "pitch": 38, "duration": 10, "velocity": 72}, {"time": 431, "pitch": 55, "duration": 1, "velocity": 69}, {"time": 431, "pitch": 59, "duration": 2, "velocity": 92}, {"time": 431, "pitch": 62, "duration": 2, "velocity": 89}, {"time": 437, "pitch": 43, "duration": 12, "velocity": 72}, {"time": 443, "pitch": 55, "duration": 2, "velocity": 78}, {"time": 443, "pitch": 59, "duration": 2, "velocity": 88}, {"time": 443, "pitch": 62, "duration": 2, "velocity": 79}, {"time": 446, "pitch": 55, "duration": 3, "velocity": 48}, {"time": 446, "pitch": 59, "duration": 3, "velocity": 61}, {"time": 446, "pitch": 62, "duration": 3, "velocity": 62}, {"time": 449, "pitch": 38, "duration": 7, "velocity": 85}, {"time": 455, "pitch": 55, "duration": 1, "velocity": 85}, {"time": 455, "pitch": 59, "duration": 1, "velocity": 95}, {"time": 455, "pitch": 62, "duration": 2, "velocity": 82}, {"time": 461, "pitch": 48, "duration": 13, "velocity": 88}, {"time": 467, "pitch": 55, "duration": 2, "velocity": 77}, {"time": 467, "pitch": 60, "duration": 2, "velocity": 92}, {"time": 467, "pitch": 64, "duration": 2, "velocity": 77}, {"time": 470, "pitch": 55, "duration": 2, "velocity": 62}, {"time": 470, "pitch": 60, "duration": 3, "velocity": 68}, {"time": 470, "pitch": 64, "duration": 3, "velocity": 68}, {"time": 473, "pitch": 43, "duration": 10, "velocity": 69}, {"time": 479, "pitch": 55, "duration": 1, "velocity": 81}, {"time": 479, "pitch": 60, "duration": 2, "velocity": 95}, {"time": 479, "pitch": 64, "duration": 2, "velocity": 88}, {"time": 485, "pitch": 48, "duration": 12, "velocity": 59}, {"time": 491, "pitch": 55, "duration": 2, "velocity": 83}, {"time": 491, "pitch": 60, "duration": 2, "velocity": 95}, {"time": 491, "pitch": 64, "duration": 2, "velocity": 85}, {"time": 494, "pitch": 55, "duration": 3, "velocity": 45}, {"time": 494, "pitch": 60, "duration": 3, "velocity": 51}, {"time": 494, "pitch": 64, "duration": 3, "velocity": 50}, {"time": 497, "pitch": 43, "duration": 10, "velocity": 62}, {"time": 503, "pitch": 55, "duration": 2, "velocity": 85}, {"time": 503, "pitch": 60, "duration": 2, "velocity": 92}, {"time": 503, "pitch": 64, "duration": 2, "velocity": 86}, {"time": 509, "pitch": 45, "duration": 8, "velocity": 60}, {"time": 515, "pitch": 57, "duration": 2, "velocity": 92}, {"time": 515, "pitch": 60, "duration": 2, "velocity": 95}, {"time": 515, "pitch": 64, "duration": 2, "velocity": 92}, {"time": 518, "pitch": 57, "duration": 2, "velocity": 45}, {"time": 518, "pitch": 60, "duration": 3, "velocity": 55}, {"time": 518, "pitch": 64, "duration": 2, "velocity": 52}, {"time": 521, "pitch": 40, "duration": 10, "velocity": 81}, {"time": 527, "pitch": 57, "duration": 2, "velocity": 88}, {"time": 527, "pitch": 60, "duration": 2, "velocity": 90}, {"time": 527, "pitch": 64, "duration": 2, "velocity": 82}, {"time": 533, "pitch": 45, "duration": 13, "velocity": 72}, {"time": 539, "pitch": 57, "duration": 2, "velocity": 81}, {"time": 539, "pitch": 60, "duration": 2, "velocity": 93}, {"time": 539, "pitch": 64, "duration": 2, "velocity": 82}, {"time": 542, "pitch": 57, "duration": 2, "velocity": 49}, {"time": 542, "pitch": 60, "duration": 2, "velocity": 55}, {"time": 542, "pitch": 64, "duration": 3, "velocity": 62}, {"time": 545, "pitch": 40, "duration": 9, "velocity": 76}, {"time": 551, "pitch": 57, "duration": 2, "velocity": 85}, {"time": 551, "pitch": 60, "duration": 2, "velocity": 93}, {"time": 551, "pitch": 64, "duration": 2, "velocity": 77}, {"time": 557, "pitch": 48, "duration": 12, "velocity": 70}, {"time": 563, "pitch": 55, "duration": 2, "velocity": 81}, {"time": 563, "pitch": 60, "duration": 1, "velocity": 95}, {"time": 563, "pitch": 64, "duration": 1, "velocity": 73}, {"time": 569, "pitch": 55, "duration": 2, "velocity": 54}, {"time": 569, "pitch": 60, "duration": 3, "velocity": 69}, {"time": 569, "pitch": 64, "duration": 3, "velocity": 63}, {"time": 575, "pitch": 43, "duration": 8, "velocity": 52}, {"time": 575, "pitch": 55, "duration": 1, "velocity": 73}, {"time": 575, "pitch": 60, "duration": 1, "velocity": 90}, {"time": 575, "pitch": 64, "duration": 2, "velocity": 81}, {"time": 581, "pitch": 48, "duration": 11, "velocity": 74}, {"time": 587, "pitch": 55, "duration": 1, "velocity": 68}, {"time": 587, "pitch": 60, "duration": 1, "velocity": 79}, {"time": 587, "pitch": 64, "duration": 1, "velocity": 75}, {"time": 590, "pitch": 55, "duration": 3, "velocity": 59}, {"time": 590, "pitch": 60, "duration": 3, "velocity": 63}, {"time": 590, "pitch": 64, "duration": 3, "velocity": 66}, {"time": 593, "pitch": 43, "duration": 8, "velocity": 63}, {"time": 599, "pitch": 55, "duration": 1, "velocity": 65}, {"time": 599, "pitch": 60, "duration": 1, "velocity": 88}, {"time": 599, "pitch": 64, "duration": 2, "velocity": 71}, {"time": 605, "pitch": 45, "duration": 13, "velocity": 92}, {"time": 611, "pitch": 52, "duration": 2, "velocity": 73}, {"time": 611, "pitch": 57, "duration": 2, "velocity": 92}, {"time": 611, "pitch": 60, "duration": 2, "velocity": 82}, {"time": 614, "pitch": 52, "duration": 3, "velocity": 53}, {"time": 614, "pitch": 57, "duration": 3, "velocity": 66}, {"time": 614, "pitch": 60, "duration": 3, "velocity": 58}, {"time": 617, "pitch": 40, "duration": 11, "velocity": 70}, {"time": 623, "pitch": 52, "duration": 2, "velocity": 79}, {"time": 623, "pitch": 57, "duration": 2, "velocity": 93}, {"time": 623, "pitch": 60, "duration": 2, "velocity": 89}, {"time": 629, "pitch": 45, "duration": 13, "velocity": 67}, {"time": 635, "pitch": 52, "duration": 2, "velocity": 74}, {"time": 635, "pitch": 57, "duration": 2, "velocity": 92}, {"time": 635, "pitch": 60, "duration": 2, "velocity": 90}, {"time": 638, "pitch": 52, "duration": 3, "velocity": 46}, {"time": 638, "pitch": 57, "duration": 3, "velocity": 58}, {"time": 638, "pitch": 60, "duration": 3, "velocity": 64}, {"time": 641, "pitch": 40, "duration": 7, "velocity": 73}, {"time": 647, "pitch": 52, "duration": 1, "velocity": 82}, {"time": 647, "pitch": 57, "duration": 2, "velocity": 96}, {"time": 647, "pitch": 60, "duration": 2, "velocity": 90}, {"time": 653, "pitch": 50, "duration": 12, "velocity": 73}, {"time": 659, "pitch": 57, "duration": 2, "velocity": 76}, {"time": 659, "pitch": 62, "duration": 2, "velocity": 79}, {"time": 659, "pitch": 65, "duration": 1, "velocity": 66}, {"time": 662, "pitch": 57, "duration": 3, "velocity": 67}, {"time": 662, "pitch": 62, "duration": 3, "velocity": 69}, {"time": 662, "pitch": 65, "duration": 3, "velocity": 66}, {"time": 665, "pitch": 45, "duration": 11, "velocity": 62}, {"time": 671, "pitch": 57, "duration": 2, "velocity": 85}, {"time": 671, "pitch": 62, "duration": 2, "velocity": 92}, {"time": 671, "pitch": 65, "duration": 2, "velocity": 83}, {"time": 677, "pitch": 50, "duration": 13, "velocity": 35}, {"time": 683, "pitch": 57, "duration": 2, "velocity": 86}, {"time": 683, "pitch": 62, "duration": 2, "velocity": 97}, {"time": 683, "pitch": 65, "duration": 2, "velocity": 85}, {"time": 686, "pitch": 57, "duration": 3, "velocity": 51}, {"time": 686, "pitch": 62, "duration": 3, "velocity": 59}, {"time": 686, "pitch": 65, "duration": 3, "velocity": 56}, {"time": 689, "pitch": 45, "duration": 8, "velocity": 71}, {"time": 695, "pitch": 57, "duration": 2, "velocity": 78}, {"time": 695, "pitch": 62, "duration": 2, "velocity": 90}, {"time": 695, "pitch": 65, "duration": 2, "velocity": 81}, {"time": 701, "pitch": 50, "duration": 10, "velocity": 89}, {"time": 707, "pitch": 57, "duration": 2, "velocity": 86}, {"time": 707, "pitch": 62, "duration": 2, "velocity": 92}, {"time": 707, "pitch": 65, "duration": 1, "velocity": 78}, {"time": 710, "pitch": 57, "duration": 3, "velocity": 58}, {"time": 710, "pitch": 62, "duration": 3, "velocity": 70}, {"time": 710, "pitch": 65, "duration": 3, "velocity": 70}, {"time": 713, "pitch": 45, "duration": 10, "velocity": 78}, {"time": 719, "pitch": 57, "duration": 2, "velocity": 86}, {"time": 719, "pitch": 62, "duration": 2, "velocity": 92}, {"time": 719, "pitch": 65, "duration": 2, "velocity": 85}, {"time": 725, "pitch": 50, "duration": 12, "velocity": 62}, {"time": 731, "pitch": 57, "duration": 2, "velocity": 83}, {"time": 731, "pitch": 62, "duration": 2, "velocity": 90}, {"time": 731, "pitch": 65, "duration": 2, "velocity": 79}, {"time": 734, "pitch": 57, "duration": 3, "velocity": 59}, {"time": 734, "pitch": 62, "duration": 3, "velocity": 69}, {"time": 734, "pitch": 65, "duration": 3, "velocity": 67}, {"time": 737, "pitch": 45, "duration": 9, "velocity": 62}, {"time": 743, "pitch": 57, "duration": 2, "velocity": 89}, {"time": 743, "pitch": 62, "duration": 2, "velocity": 96}, {"time": 743, "pitch": 65, "duration": 2, "velocity": 89}, {"time": 749, "pitch": 43, "duration": 13, "velocity": 90}, {"time": 755, "pitch": 55, "duration": 6, "velocity": 86}, {"time": 755, "pitch": 59, "duration": 6, "velocity": 77}, {"time": 761, "pitch": 38, "duration": 10, "velocity": 67}, {"time": 767, "pitch": 55, "duration": 1, "velocity": 92}, {"time": 767, "pitch": 59, "duration": 2, "velocity": 99}, {"time": 767, "pitch": 62, "duration": 2, "velocity": 92}, {"time": 773, "pitch": 43, "duration": 13, "velocity": 62}, {"time": 779, "pitch": 55, "duration": 2, "velocity": 89}, {"time": 779, "pitch": 59, "duration": 1, "velocity": 95}, {"time": 779, "pitch": 62, "duration": 2, "velocity": 85}, {"time": 782, "pitch": 55, "duration": 2, "velocity": 43}, {"time": 782, "pitch": 59, "duration": 3, "velocity": 66}, {"time": 782, "pitch": 62, "duration": 3, "velocity": 68}, {"time": 785, "pitch": 38, "duration": 7, "velocity": 66}, {"time": 791, "pitch": 55, "duration": 2, "velocity": 86}, {"time": 791, "pitch": 59, "duration": 2, "velocity": 95}, {"time": 791, "pitch": 62, "duration": 2, "velocity": 81}, {"time": 797, "pitch": 48, "duration": 3, "velocity": 83}, {"time": 797, "pitch": 55, "duration": 2, "velocity": 73}, {"time": 797, "pitch": 60, "duration": 3, "velocity": 81}, {"time": 797, "pitch": 64, "duration": 3, "velocity": 77}, {"time": 803, "pitch": 48, "duration": 3, "velocity": 79}, {"time": 803, "pitch": 55, "duration": 3, "velocity": 69}, {"time": 803, "pitch": 60, "duration": 3, "velocity": 76}, {"time": 803, "pitch": 64, "duration": 3, "velocity": 69}, {"time": 809, "pitch": 48, "duration": 3, "velocity": 74}, {"time": 809, "pitch": 55, "duration": 3, "velocity": 76}, {"time": 809, "pitch": 60, "duration": 3, "velocity": 81}, {"time": 809, "pitch": 64, "duration": 3, "velocity": 74}, {"time": 815, "pitch": 48, "duration": 3, "velocity": 88}, {"time": 815, "pitch": 55, "duration": 3, "velocity": 81}, {"time": 815, "pitch": 60, "duration": 2, "velocity": 85}, {"time": 815, "pitch": 64, "duration": 3, "velocity": 77}, {"time": 821, "pitch": 48, "duration": 6, "velocity": 93}, {"time": 821, "pitch": 55, "duration": 5, "velocity": 82}, {"time": 821, "pitch": 60, "duration": 5, "velocity": 90}, {"time": 821, "pitch": 64, "duration": 5, "velocity": 88}, {"time": 845, "pitch": 48, "duration": 9, "velocity": 62}, {"time": 851, "pitch": 55, "duration": 2, "velocity": 64}, {"time": 851, "pitch": 60, "duration": 2, "velocity": 67}, {"time": 851, "pitch": 64, "duration": 2, "velocity": 63}, {"time": 857, "pitch": 43, "duration": 9, "velocity": 67}, {"time": 863, "pitch": 55, "duration": 2, "velocity": 71}, {"time": 863, "pitch": 60, "duration": 2, "velocity": 79}, {"time": 863, "pitch": 64, "duration": 2, "velocity": 73}, {"time": 869, "pitch": 48, "duration": 13, "velocity": 62}, {"time": 875, "pitch": 55, "duration": 2, "velocity": 73}, {"time": 875, "pitch": 60, "duration": 2, "velocity": 73}, {"time": 875, "pitch": 64, "duration": 2, "velocity": 72}, {"time": 881, "pitch": 43, "duration": 10, "velocity": 65}, {"time": 887, "pitch": 60, "duration": 2, "velocity": 85}, {"time": 887, "pitch": 64, "duration": 2, "velocity": 74}, {"time": 893, "pitch": 45, "duration": 11, "velocity": 72}, {"time": 899, "pitch": 57, "duration": 2, "velocity": 72}, {"time": 899, "pitch": 60, "duration": 2, "velocity": 86}, {"time": 899, "pitch": 64, "duration": 2, "velocity": 78}, {"time": 905, "pitch": 40, "duration": 11, "velocity": 64}, {"time": 911, "pitch": 52, "duration": 2, "velocity": 63}, {"time": 911, "pitch": 57, "duration": 2, "velocity": 85}, {"time": 911, "pitch": 60, "duration": 2, "velocity": 81}, {"time": 917, "pitch": 45, "duration": 13, "velocity": 50}, {"time": 923, "pitch": 52, "duration": 2, "velocity": 64}, {"time": 923, "pitch": 57, "duration": 2, "velocity": 82}, {"time": 923, "pitch": 60, "duration": 2, "velocity": 78}, {"time": 929, "pitch": 40, "duration": 9, "velocity": 72}, {"time": 929, "pitch": 57, "duration": 1, "velocity": 53}, {"time": 929, "pitch": 60, "duration": 1, "velocity": 39}, {"time": 935, "pitch": 52, "duration": 1, "velocity": 67}, {"time": 935, "pitch": 57, "duration": 2, "velocity": 83}, {"time": 935, "pitch": 60, "duration": 2, "velocity": 82}, {"time": 941, "pitch": 50, "duration": 12, "velocity": 73}, {"time": 947, "pitch": 57, "duration": 2, "velocity": 79}, {"time": 947, "pitch": 62, "duration": 2, "velocity": 89}, {"time": 947, "pitch": 65, "duration": 2, "velocity": 79}, {"time": 953, "pitch": 45, "duration": 10, "velocity": 70}, {"time": 959, "pitch": 57, "duration": 2, "velocity": 79}, {"time": 959, "pitch": 62, "duration": 2, "velocity": 89}, {"time": 959, "pitch": 65, "duration": 2, "velocity": 81}, {"time": 965, "pitch": 50, "duration": 13, "velocity": 59}, {"time": 971, "pitch": 57, "duration": 2, "velocity": 89}, {"time": 971, "pitch": 62, "duration": 2, "velocity": 85}, {"time": 971, "pitch": 65, "duration": 2, "velocity": 81}, {"time": 977, "pitch": 45, "duration": 8, "velocity": 69}, {"time": 983, "pitch": 57, "duration": 1, "velocity": 81}, {"time": 983, "pitch": 62, "duration": 2, "velocity": 90}, {"time": 983, "pitch": 65, "duration": 2, "velocity": 76}, {"time": 989, "pitch": 43, "duration": 11, "velocity": 74}, {"time": 995, "pitch": 50, "duration": 3, "velocity": 72}, {"time": 995, "pitch": 55, "duration": 3, "velocity": 74}, {"time": 995, "pitch": 59, "duration": 3, "velocity": 71}, {"time": 1001, "pitch": 38, "duration": 11, "velocity": 70}, {"time": 1007, "pitch": 50, "duration": 2, "velocity": 73}, {"time": 1007, "pitch": 55, "duration": 2, "velocity": 88}, {"time": 1007, "pitch": 59, "duration": 2, "velocity": 86}, {"time": 1013, "pitch": 43, "duration": 12, "velocity": 56}, {"time": 1019, "pitch": 50, "duration": 2, "velocity": 69}, {"time": 1019, "pitch": 55, "duration": 2, "velocity": 81}, {"time": 1019, "pitch": 59, "duration": 2, "velocity": 83}, {"time": 1025, "pitch": 38, "duration": 9, "velocity": 66}, {"time": 1031, "pitch": 55, "duration": 2, "velocity": 88}, {"time": 1031, "pitch": 59, "duration": 2, "velocity": 85}, {"time": 1037, "pitch": 45, "duration": 12, "velocity": 82}, {"time": 1043, "pitch": 57, "duration": 2, "velocity": 90}, {"time": 1043, "pitch": 60, "duration": 2, "velocity": 99}, {"time": 1043, "pitch": 64, "duration": 2, "velocity": 90}, {"time": 1049, "pitch": 40, "duration": 11, "velocity": 48}, {"time": 1055, "pitch": 52, "duration": 2, "velocity": 76}, {"time": 1055, "pitch": 57, "duration": 2, "velocity": 86}, {"time": 1055, "pitch": 60, "duration": 2, "velocity": 78}, {"time": 1061, "pitch": 45, "duration": 13, "velocity": 63}, {"time": 1067, "pitch": 52, "duration": 2, "velocity": 73}, {"time": 1067, "pitch": 57, "duration": 2, "velocity": 79}, {"time": 1067, "pitch": 60, "duration": 2, "velocity": 78}, {"time": 1073, "pitch": 40, "duration": 12, "velocity": 67}, {"time": 1079, "pitch": 52, "duration": 2, "velocity": 75}, {"time": 1079, "pitch": 57, "duration": 2, "velocity": 86}, {"time": 1079, "pitch": 60, "duration": 2, "velocity": 81}, {"time": 1085, "pitch": 45, "duration": 12, "velocity": 73}, {"time": 1091, "pitch": 57, "duration": 2, "velocity": 71}, {"time": 1091, "pitch": 60, "duration": 2, "velocity": 76}, {"time": 1091, "pitch": 64, "duration": 2, "velocity": 78}, {"time": 1097, "pitch": 40, "duration": 10, "velocity": 65}, {"time": 1103, "pitch": 57, "duration": 2, "velocity": 78}, {"time": 1103, "pitch": 60, "duration": 2, "velocity": 82}, {"time": 1103, "pitch": 64, "duration": 2, "velocity": 79}, {"time": 1109, "pitch": 45, "duration": 12, "velocity": 54}, {"time": 1115, "pitch": 57, "duration": 2, "velocity": 75}, {"time": 1115, "pitch": 60, "duration": 2, "velocity": 85}, {"time": 1115, "pitch": 64, "duration": 2, "velocity": 77}, {"time": 1121, "pitch": 40, "duration": 8, "velocity": 67}, {"time": 1127, "pitch": 57, "duration": 2, "velocity": 83}, {"time": 1127, "pitch": 60, "duration": 2, "velocity": 89}, {"time": 1127, "pitch": 64, "duration": 2, "velocity": 79}, {"time": 1133, "pitch": 50, "duration": 10, "velocity": 89}, {"time": 1139, "pitch": 57, "duration": 2, "velocity": 83}, {"time": 1139, "pitch": 62, "duration": 2, "velocity": 90}, {"time": 1139, "pitch": 65, "duration": 2, "velocity": 83}, {"time": 1145, "pitch": 45, "duration": 10, "velocity": 72}, {"time": 1151, "pitch": 57, "duration": 2, "velocity": 79}, {"time": 1151, "pitch": 62, "duration": 2, "velocity": 86}, {"time": 1151, "pitch": 65, "duration": 2, "velocity": 75}, {"time": 1157, "pitch": 50, "duration": 13, "velocity": 66}, {"time": 1163, "pitch": 57, "duration": 2, "velocity": 89}, {"time": 1163, "pitch": 62, "duration": 2, "velocity": 99}, {"time": 1163, "pitch": 65, "duration": 2, "velocity": 88}, {"time": 1169, "pitch": 45, "duration": 7, "velocity": 65}, {"time": 1175, "pitch": 57, "duration": 2, "velocity": 85}, {"time": 1175, "pitch": 62, "duration": 2, "velocity": 96}, {"time": 1175, "pitch": 65, "duration": 1, "velocity": 68}, {"time": 1181, "pitch": 43, "duration": 8, "velocity": 100}, {"time": 1181, "pitch": 55, "duration": 2, "velocity": 97}, {"time": 1181, "pitch": 59, "duration": 1, "velocity": 96}, {"time": 1181, "pitch": 62, "duration": 2, "velocity": 90}, {"time": 1187, "pitch": 55, "duration": 1, "velocity": 82}, {"time": 1187, "pitch": 59, "duration": 1, "velocity": 89}, {"time": 1187, "pitch": 62, "duration": 1, "velocity": 74}, {"time": 1190, "pitch": 55, "duration": 2, "velocity": 70}, {"time": 1190, "pitch": 59, "duration": 2, "velocity": 83}, {"time": 1190, "pitch": 62, "duration": 2, "velocity": 82}, {"time": 1193, "pitch": 38, "duration": 9, "velocity": 95}, {"time": 1193, "pitch": 55, "duration": 2, "velocity": 68}, {"time": 1193, "pitch": 59, "duration": 2, "velocity": 75}, {"time": 1193, "pitch": 62, "duration": 2, "velocity": 66}, {"time": 1199, "pitch": 55, "duration": 1, "velocity": 93}, {"time": 1199, "pitch": 59, "duration": 1, "velocity": 99}, {"time": 1199, "pitch": 62, "duration": 1, "velocity": 96}, {"time": 1205, "pitch": 43, "duration": 12, "velocity": 89}, {"time": 1205, "pitch": 55, "duration": 2, "velocity": 92}, {"time": 1205, "pitch": 59, "duration": 2, "velocity": 97}, {"time": 1205, "pitch": 62, "duration": 2, "velocity": 90}, {"time": 1217, "pitch": 38, "duration": 10, "velocity": 74}, {"time": 1229, "pitch": 48, "duration": 9, "velocity": 62}, {"time": 1235, "pitch": 55, "duration": 2, "velocity": 64}, {"time": 1235, "pitch": 60, "duration": 2, "velocity": 67}, {"time": 1235, "pitch": 64, "duration": 2, "velocity": 63}, {"time": 1241, "pitch": 43, "duration": 9, "velocity": 67}, {"time": 1247, "pitch": 55, "duration": 2, "velocity": 71}, {"time": 1247, "pitch": 60, "duration": 2, "velocity": 79}, {"time": 1247, "pitch": 64, "duration": 2, "velocity": 73}, {"time": 1253, "pitch": 48, "duration": 13, "velocity": 62}, {"time": 1259, "pitch": 55, "duration": 2, "velocity": 73}, {"time": 1259, "pitch": 60, "duration": 2, "velocity": 73}, {"time": 1259, "pitch": 64, "duration": 2, "velocity": 72}, {"time": 1265, "pitch": 43, "duration": 10, "velocity": 65}, {"time": 1271, "pitch": 60, "duration": 2, "velocity": 85}, {"time": 1271, "pitch": 64, "duration": 2, "velocity": 74}, {"time": 1277, "pitch": 45, "duration": 11, "velocity": 72}, {"time": 1283, "pitch": 57, "duration": 2, "velocity": 72}, {"time": 1283, "pitch": 60, "duration": 2, "velocity": 86}, {"time": 1283, "pitch": 64, "duration": 2, "velocity": 78}, {"time": 1289, "pitch": 40, "duration": 11, "velocity": 64}, {"time": 1295, "pitch": 52, "duration": 2, "velocity": 63}, {"time": 1295, "pitch": 57, "duration": 2, "velocity": 85}, {"time": 1295, "pitch": 60, "duration": 2, "velocity": 81}, {"time": 1301, "pitch": 45, "duration": 13, "velocity": 50}, {"time": 1307, "pitch": 52, "duration": 2, "velocity": 64}, {"time": 1307, "pitch": 57, "duration": 2, "velocity": 82}, {"time": 1307, "pitch": 60, "duration": 2, "velocity": 78}, {"time": 1313, "pitch": 40, "duration": 9, "velocity": 72}, {"time": 1313, "pitch": 57, "duration": 1, "velocity": 53}, {"time": 1313, "pitch": 60, "duration": 1, "velocity": 39}, {"time": 1319, "pitch": 52, "duration": 1, "velocity": 67}, {"time": 1319, "pitch": 57, "duration": 2, "velocity": 83}, {"time": 1319, "pitch": 60, "duration": 2, "velocity": 82}, {"time": 1325, "pitch": 50, "duration": 12, "velocity": 73}, {"time": 1331, "pitch": 57, "duration": 2, "velocity": 79}, {"time": 1331, "pitch": 62, "duration": 2, "velocity": 89}, {"time": 1331, "pitch": 65, "duration": 2, "velocity": 79}, {"time": 1337, "pitch": 45, "duration": 10, "velocity": 70}, {"time": 1343, "pitch": 57, "duration": 2, "velocity": 79}, {"time": 1343, "pitch": 62, "duration": 2, "velocity": 89}, {"time": 1343, "pitch": 65, "duration": 2, "velocity": 81}, {"time": 1349, "pitch": 50, "duration": 13, "velocity": 59}, {"time": 1355, "pitch": 57, "duration": 2, "velocity": 89}, {"time": 1355, "pitch": 62, "duration": 2, "velocity": 85}, {"time": 1355, "pitch": 65, "duration": 2, "velocity": 81}, {"time": 1361, "pitch": 45, "duration": 8, "velocity": 69}, {"time": 1367, "pitch": 57, "duration": 1, "velocity": 81}, {"time": 1367, "pitch": 62, "duration": 2, "velocity": 90}, {"time": 1367, "pitch": 65, "duration": 2, "velocity": 76}, {"time": 1373, "pitch": 43, "duration": 11, "velocity": 74}, {"time": 1379, "pitch": 50, "duration": 3, "velocity": 72}, {"time": 1379, "pitch": 55, "duration": 3, "velocity": 74}, {"time": 1379, "pitch": 59, "duration": 3, "velocity": 71}, {"time": 1385, "pitch": 38, "duration": 11, "velocity": 70}, {"time": 1391, "pitch": 50, "duration": 2, "velocity": 73}, {"time": 1391, "pitch": 55, "duration": 2, "velocity": 88}, {"time": 1391, "pitch": 59, "duration": 2, "velocity": 86}, {"time": 1397, "pitch": 43, "duration": 12, "velocity": 56}, {"time": 1403, "pitch": 50, "duration": 2, "velocity": 69}, {"time": 1403, "pitch": 55, "duration": 2, "velocity": 81}, {"time": 1403, "pitch": 59, "duration": 2, "velocity": 83}, {"time": 1409, "pitch": 38, "duration": 9, "velocity": 66}, {"time": 1415, "pitch": 55, "duration": 2, "velocity": 88}, {"time": 1415, "pitch": 59, "duration": 2, "velocity": 85}, {"time": 1421, "pitch": 45, "duration": 12, "velocity": 82}, {"time": 1427, "pitch": 57, "duration": 2, "velocity": 90}, {"time": 1427, "pitch": 60, "duration": 2, "velocity": 99}, {"time": 1427, "pitch": 64, "duration": 2, "velocity": 90}, {"time": 1433, "pitch": 40, "duration": 11, "velocity": 48}, {"time": 1439, "pitch": 52, "duration": 2, "velocity": 76}, {"time": 1439, "pitch": 57, "duration": 2, "velocity": 86}, {"time": 1439, "pitch": 60, "duration": 2, "velocity": 78}, {"time": 1445, "pitch": 45, "duration": 13, "velocity": 63}, {"time": 1451, "pitch": 52, "duration": 2, "velocity": 73}, {"time": 1451, "pitch": 57, "duration": 2, "velocity": 79}, {"time": 1451, "pitch": 60, "duration": 2, "velocity": 78}, {"time": 1457, "pitch": 40, "duration": 12, "velocity": 67}, {"time": 1463, "pitch": 52, "duration": 2, "velocity": 75}, {"time": 1463, "pitch": 57, "duration": 2, "velocity": 86}, {"time": 1463, "pitch": 60, "duration": 2, "velocity": 81}, {"time": 1469, "pitch": 45, "duration": 12, "velocity": 73}, {"time": 1475, "pitch": 57, "duration": 2, "velocity": 71}, {"time": 1475, "pitch": 60, "duration": 2, "velocity": 76}, {"time": 1475, "pitch": 64, "duration": 2, "velocity": 78}, {"time": 1481, "pitch": 40, "duration": 10, "velocity": 65}, {"time": 1487, "pitch": 57, "duration": 2, "velocity": 78}, {"time": 1487, "pitch": 60, "duration": 2, "velocity": 82}, {"time": 1487, "pitch": 64, "duration": 2, "velocity": 79}, {"time": 1493, "pitch": 45, "duration": 12, "velocity": 54}, {"time": 1499, "pitch": 57, "duration": 2, "velocity": 75}, {"time": 1499, "pitch": 60, "duration": 2, "velocity": 85}, {"time": 1499, "pitch": 64, "duration": 2, "velocity": 77}, {"time": 1505, "pitch": 40, "duration": 8, "velocity": 67}, {"time": 1511, "pitch": 57, "duration": 2, "velocity": 83}, {"time": 1511, "pitch": 60, "duration": 2, "velocity": 89}, {"time": 1511, "pitch": 64, "duration": 2, "velocity": 79}, {"time": 1517, "pitch": 50, "duration": 10, "velocity": 89}, {"time": 1523, "pitch": 57, "duration": 2, "velocity": 83}, {"time": 1523, "pitch": 62, "duration": 2, "velocity": 90}, {"time": 1523, "pitch": 65, "duration": 2, "velocity": 83}, {"time": 1529, "pitch": 45, "duration": 10, "velocity": 72}, {"time": 1535, "pitch": 57, "duration": 2, "velocity": 79}, {"time": 1535, "pitch": 62, "duration": 2, "velocity": 86}, {"time": 1535, "pitch": 65, "duration": 2, "velocity": 75}, {"time": 1541, "pitch": 50, "duration": 13, "velocity": 66}, {"time": 1547, "pitch": 57, "duration": 2, "velocity": 89}, {"time": 1547, "pitch": 62, "duration": 2, "velocity": 99}, {"time": 1547, "pitch": 65, "duration": 2, "velocity": 88}, {"time": 1553, "pitch": 45, "duration": 7, "velocity": 65}, {"time": 1559, "pitch": 57, "duration": 2, "velocity": 85}, {"time": 1559, "pitch": 62, "duration": 2, "velocity": 96}, {"time": 1559, "pitch": 65, "duration": 1, "velocity": 68}, {"time": 1565, "pitch": 43, "duration": 7, "velocity": 100}, {"time": 1571, "pitch": 55, "duration": 3, "velocity": 79}, {"time": 1571, "pitch": 59, "duration": 2, "velocity": 86}, {"time": 1571, "pitch": 62, "duration": 3, "velocity": 88}, {"time": 1571, "pitch": 67, "duration": 2, "velocity": 74}, {"time": 1577, "pitch": 38, "duration": 9, "velocity": 75}, {"time": 1583, "pitch": 55, "duration": 2, "velocity": 81}, {"time": 1583, "pitch": 59, "duration": 2, "velocity": 88}, {"time": 1583, "pitch": 62, "duration": 2, "velocity": 81}, {"time": 1583, "pitch": 67, "duration": 2, "velocity": 77}, {"time": 1589, "pitch": 43, "duration": 9, "velocity": 95}, {"time": 1595, "pitch": 55, "duration": 1, "velocity": 73}, {"time": 1595, "pitch": 59, "duration": 1, "velocity": 89}, {"time": 1595, "pitch": 62, "duration": 2, "velocity": 81}, {"time": 1595, "pitch": 67, "duration": 1, "velocity": 55}, {"time": 1601, "pitch": 38, "duration": 8, "velocity": 85}, {"time": 1601, "pitch": 55, "duration": 1, "velocity": 58}, {"time": 1607, "pitch": 55, "duration": 2, "velocity": 85}, {"time": 1607, "pitch": 59, "duration": 2, "velocity": 95}, {"time": 1607, "pitch": 62, "duration": 2, "velocity": 89}, {"time": 1613, "pitch": 43, "duration": 3, "velocity": 88}, {"time": 1613, "pitch": 55, "duration": 2, "velocity": 79}, {"time": 1613, "pitch": 59, "duration": 2, "velocity": 86}, {"time": 1613, "pitch": 62, "duration": 2, "velocity": 77}, {"time": 1619, "pitch": 43, "duration": 3, "velocity": 78}, {"time": 1619, "pitch": 55, "duration": 3, "velocity": 73}, {"time": 1619, "pitch": 59, "duration": 3, "velocity": 75}, {"time": 1619, "pitch": 62, "duration": 3, "velocity": 70}, {"time": 1625, "pitch": 43, "duration": 3, "velocity": 89}, {"time": 1625, "pitch": 55, "duration": 3, "velocity": 86}, {"time": 1625, "pitch": 59, "duration": 2, "velocity": 86}, {"time": 1625, "pitch": 62, "duration": 3, "velocity": 82}, {"time": 1631, "pitch": 43, "duration": 3, "velocity": 95}, {"time": 1631, "pitch": 55, "duration": 2, "velocity": 81}, {"time": 1631, "pitch": 59, "duration": 2, "velocity": 81}, {"time": 1631, "pitch": 62, "duration": 2, "velocity": 73}, {"time": 1637, "pitch": 43, "duration": 6, "velocity": 102}, {"time": 1637, "pitch": 55, "duration": 5, "velocity": 92}, {"time": 1637, "pitch": 59, "duration": 5, "velocity": 93}, {"time": 1637, "pitch": 62, "duration": 5, "velocity": 90}, {"time": 1649, "pitch": 40, "duration": 11, "velocity": 38}, {"time": 1650, "pitch": 64, "duration": 11, "velocity": 67}, {"time": 1661, "pitch": 48, "duration": 9, "velocity": 102}, {"time": 1667, "pitch": 55, "duration": 2, "velocity": 85}, {"time": 1667, "pitch": 60, "duration": 2, "velocity": 97}, {"time": 1667, "pitch": 64, "duration": 2, "velocity": 90}, {"time": 1670, "pitch": 55, "duration": 2, "velocity": 76}, {"time": 1670, "pitch": 60, "duration": 3, "velocity": 86}, {"time": 1670, "pitch": 64, "duration": 2, "velocity": 86}, {"time": 1673, "pitch": 43, "duration": 10, "velocity": 93}, {"time": 1679, "pitch": 55, "duration": 1, "velocity": 100}, {"time": 1679, "pitch": 60, "duration": 2, "velocity": 117}, {"time": 1679, "pitch": 64, "duration": 2, "velocity": 107}, {"time": 1685, "pitch": 48, "duration": 12, "velocity": 92}, {"time": 1691, "pitch": 55, "duration": 1, "velocity": 93}, {"time": 1691, "pitch": 60, "duration": 1, "velocity": 96}, {"time": 1691, "pitch": 64, "duration": 2, "velocity": 93}, {"time": 1694, "pitch": 55, "duration": 3, "velocity": 65}, {"time": 1694, "pitch": 60, "duration": 3, "velocity": 72}, {"time": 1694, "pitch": 64, "duration": 3, "velocity": 72}, {"time": 1697, "pitch": 43, "duration": 9, "velocity": 92}, {"time": 1703, "pitch": 55, "duration": 1, "velocity": 93}, {"time": 1703, "pitch": 60, "duration": 1, "velocity": 102}, {"time": 1703, "pitch": 64, "duration": 2, "velocity": 96}, {"time": 1709, "pitch": 45, "duration": 10, "velocity": 76}, {"time": 1715, "pitch": 57, "duration": 2, "velocity": 95}, {"time": 1715, "pitch": 60, "duration": 2, "velocity": 112}, {"time": 1715, "pitch": 64, "duration": 2, "velocity": 95}, {"time": 1718, "pitch": 57, "duration": 3, "velocity": 71}, {"time": 1718, "pitch": 60, "duration": 3, "velocity": 67}, {"time": 1718, "pitch": 64, "duration": 3, "velocity": 67}, {"time": 1721, "pitch": 40, "duration": 10, "velocity": 81}, {"time": 1727, "pitch": 57, "duration": 2, "velocity": 95}, {"time": 1727, "pitch": 60, "duration": 2, "velocity": 112}, {"time": 1727, "pitch": 64, "duration": 2, "velocity": 95}, {"time": 1733, "pitch": 45, "duration": 13, "velocity": 97}, {"time": 1739, "pitch": 57, "duration": 1, "velocity": 89}, {"time": 1739, "pitch": 60, "duration": 1, "velocity": 83}, {"time": 1739, "pitch": 64, "duration": 1, "velocity": 86}, {"time": 1742, "pitch": 57, "duration": 3, "velocity": 59}, {"time": 1742, "pitch": 60, "duration": 3, "velocity": 77}, {"time": 1742, "pitch": 64, "duration": 3, "velocity": 70}, {"time": 1745, "pitch": 40, "duration": 8, "velocity": 86}, {"time": 1751, "pitch": 57, "duration": 2, "velocity": 99}, {"time": 1751, "pitch": 60, "duration": 2, "velocity": 102}, {"time": 1751, "pitch": 64, "duration": 2, "velocity": 96}, {"time": 1757, "pitch": 48, "duration": 11, "velocity": 90}, {"time": 1763, "pitch": 55, "duration": 1, "velocity": 79}, {"time": 1763, "pitch": 60, "duration": 1, "velocity": 90}, {"time": 1763, "pitch": 64, "duration": 1, "velocity": 83}, {"time": 1766, "pitch": 55, "duration": 2, "velocity": 60}, {"time": 1766, "pitch": 60, "duration": 3, "velocity": 75}, {"time": 1766, "pitch": 64, "duration": 3, "velocity": 69}, {"time": 1769, "pitch": 43, "duration": 10, "velocity": 92}, {"time": 1775, "pitch": 55, "duration": 2, "velocity": 93}, {"time": 1775, "pitch": 60, "duration": 2, "velocity": 107}, {"time": 1775, "pitch": 64, "duration": 2, "velocity": 93}, {"time": 1781, "pitch": 48, "duration": 12, "velocity": 96}, {"time": 1787, "pitch": 55, "duration": 1, "velocity": 82}, {"time": 1787, "pitch": 60, "duration": 1, "velocity": 99}, {"time": 1787, "pitch": 64, "duration": 2, "velocity": 90}, {"time": 1790, "pitch": 55, "duration": 3, "velocity": 66}, {"time": 1790, "pitch": 60, "duration": 3, "velocity": 79}, {"time": 1790, "pitch": 64, "duration": 3, "velocity": 72}, {"time": 1793, "pitch": 43, "duration": 10, "velocity": 92}, {"time": 1799, "pitch": 55, "duration": 1, "velocity": 85}, {"time": 1799, "pitch": 60, "duration": 2, "velocity": 102}, {"time": 1799, "pitch": 64, "duration": 2, "velocity": 88}, {"time": 1805, "pitch": 45, "duration": 12, "velocity": 93}, {"time": 1811, "pitch": 57, "duration": 2, "velocity": 90}, {"time": 1811, "pitch": 60, "duration": 2, "velocity": 97}, {"time": 1811, "pitch": 64, "duration": 2, "velocity": 90}, {"time": 1814, "pitch": 57, "duration": 3, "velocity": 62}, {"time": 1814, "pitch": 60, "duration": 3, "velocity": 65}, {"time": 1814, "pitch": 64, "duration": 3, "velocity": 66}, {"time": 1817, "pitch": 40, "duration": 11, "velocity": 85}, {"time": 1823, "pitch": 57, "duration": 2, "velocity": 92}, {"time": 1823, "pitch": 60, "duration": 2, "velocity": 97}, {"time": 1823, "pitch": 64, "duration": 2, "velocity": 90}, {"time": 1829, "pitch": 45, "duration": 13, "velocity": 90}, {"time": 1835, "pitch": 57, "duration": 2, "velocity": 81}, {"time": 1835, "pitch": 60, "duration": 2, "velocity": 88}, {"time": 1835, "pitch": 64, "duration": 2, "velocity": 78}, {"time": 1838, "pitch": 57, "duration": 3, "velocity": 63}, {"time": 1838, "pitch": 60, "duration": 3, "velocity": 67}, {"time": 1838, "pitch": 64, "duration": 3, "velocity": 72}, {"time": 1841, "pitch": 40, "duration": 10, "velocity": 82}, {"time": 1847, "pitch": 57, "duration": 2, "velocity": 89}, {"time": 1847, "pitch": 60, "duration": 2, "velocity": 90}, {"time": 1847, "pitch": 64, "duration": 3, "velocity": 83}, {"time": 1853, "pitch": 50, "duration": 11, "velocity": 85}, {"time": 1859, "pitch": 57, "duration": 2, "velocity": 82}, {"time": 1859, "pitch": 62, "duration": 2, "velocity": 96}, {"time": 1859, "pitch": 65, "duration": 2, "velocity": 86}, {"time": 1862, "pitch": 57, "duration": 2, "velocity": 68}, {"time": 1862, "pitch": 62, "duration": 3, "velocity": 76}, {"time": 1862, "pitch": 65, "duration": 3, "velocity": 72}, {"time": 1865, "pitch": 45, "duration": 11, "velocity": 90}, {"time": 1871, "pitch": 57, "duration": 2, "velocity": 97}, {"time": 1871, "pitch": 62, "duration": 2, "velocity": 100}, {"time": 1871, "pitch": 65, "duration": 2, "velocity": 96}, {"time": 1877, "pitch": 50, "duration": 12, "velocity": 73}, {"time": 1883, "pitch": 57, "duration": 2, "velocity": 97}, {"time": 1883, "pitch": 62, "duration": 2, "velocity": 107}, {"time": 1883, "pitch": 65, "duration": 2, "velocity": 97}, {"time": 1886, "pitch": 57, "duration": 3, "velocity": 69}, {"time": 1886, "pitch": 62, "duration": 3, "velocity": 63}, {"time": 1886, "pitch": 65, "duration": 3, "velocity": 65}, {"time": 1889, "pitch": 45, "duration": 9, "velocity": 89}, {"time": 1895, "pitch": 57, "duration": 3, "velocity": 86}, {"time": 1895, "pitch": 62, "duration": 3, "velocity": 102}, {"time": 1895, "pitch": 65, "duration": 2, "velocity": 90}, {"time": 1901, "pitch": 45, "duration": 12, "velocity": 107}, {"time": 1907, "pitch": 57, "duration": 1, "velocity": 83}, {"time": 1907, "pitch": 60, "duration": 2, "velocity": 81}, {"time": 1910, "pitch": 57, "duration": 3, "velocity": 71}, {"time": 1910, "pitch": 60, "duration": 4, "velocity": 72}, {"time": 1913, "pitch": 40, "duration": 11, "velocity": 78}, {"time": 1919, "pitch": 52, "duration": 2, "velocity": 93}, {"time": 1919, "pitch": 57, "duration": 2, "velocity": 97}, {"time": 1919, "pitch": 60, "duration": 2, "velocity": 93}, {"time": 1925, "pitch": 45, "duration": 12, "velocity": 67}, {"time": 1931, "pitch": 57, "duration": 3, "velocity": 79}, {"time": 1931, "pitch": 60, "duration": 2, "velocity": 97}, {"time": 1931, "pitch": 64, "duration": 2, "velocity": 92}, {"time": 1934, "pitch": 57, "duration": 3, "velocity": 42}, {"time": 1934, "pitch": 60, "duration": 3, "velocity": 63}, {"time": 1934, "pitch": 64, "duration": 3, "velocity": 52}, {"time": 1937, "pitch": 40, "duration": 8, "velocity": 83}, {"time": 1943, "pitch": 57, "duration": 2, "velocity": 90}, {"time": 1943, "pitch": 60, "duration": 1, "velocity": 93}, {"time": 1943, "pitch": 64, "duration": 2, "velocity": 86}, {"time": 1949, "pitch": 50, "duration": 11, "velocity": 89}, {"time": 1955, "pitch": 57, "duration": 2, "velocity": 93}, {"time": 1955, "pitch": 62, "duration": 1, "velocity": 97}, {"time": 1955, "pitch": 65, "duration": 1, "velocity": 90}, {"time": 1958, "pitch": 57, "duration": 3, "velocity": 68}, {"time": 1958, "pitch": 62, "duration": 3, "velocity": 74}, {"time": 1958, "pitch": 65, "duration": 3, "velocity": 76}, {"time": 1961, "pitch": 45, "duration": 11, "velocity": 92}, {"time": 1967, "pitch": 57, "duration": 2, "velocity": 95}, {"time": 1967, "pitch": 62, "duration": 2, "velocity": 97}, {"time": 1967, "pitch": 65, "duration": 2, "velocity": 90}, {"time": 1973, "pitch": 50, "duration": 13, "velocity": 73}, {"time": 1979, "pitch": 57, "duration": 2, "velocity": 92}, {"time": 1979, "pitch": 62, "duration": 2, "velocity": 97}, {"time": 1979, "pitch": 65, "duration": 2, "velocity": 99}, {"time": 1982, "pitch": 57, "duration": 3, "velocity": 55}, {"time": 1982, "pitch": 62, "duration": 3, "velocity": 61}, {"time": 1982, "pitch": 65, "duration": 3, "velocity": 66}, {"time": 1985, "pitch": 45, "duration": 8, "velocity": 88}, {"time": 1991, "pitch": 57, "duration": 2, "velocity": 96}, {"time": 1991, "pitch": 62, "duration": 3, "velocity": 100}, {"time": 1991, "pitch": 65, "duration": 2, "velocity": 92}, {"time": 1997, "pitch": 43, "duration": 11, "velocity": 96}, {"time": 2003, "pitch": 55, "duration": 1, "velocity": 96}, {"time": 2003, "pitch": 59, "duration": 1, "velocity": 97}, {"time": 2003, "pitch": 62, "duration": 1, "velocity": 92}, {"time": 2006, "pitch": 55, "duration": 3, "velocity": 66}, {"time": 2006, "pitch": 59, "duration": 2, "velocity": 68}, {"time": 2006, "pitch": 62, "duration": 2, "velocity": 69}, {"time": 2009, "pitch": 38, "duration": 11, "velocity": 89}, {"time": 2015, "pitch": 55, "duration": 1, "velocity": 97}, {"time": 2015, "pitch": 59, "duration": 1, "velocity": 99}, {"time": 2015, "pitch": 62, "duration": 2, "velocity": 97}, {"time": 2021, "pitch": 43, "duration": 12, "velocity": 90}, {"time": 2027, "pitch": 55, "duration": 2, "velocity": 88}, {"time": 2027, "pitch": 59, "duration": 1, "velocity": 92}, {"time": 2027, "pitch": 62, "duration": 2, "velocity": 89}, {"time": 2030, "pitch": 55, "duration": 3, "velocity": 74}, {"time": 2030, "pitch": 59, "duration": 2, "velocity": 81}, {"time": 2030, "pitch": 62, "duration": 3, "velocity": 86}, {"time": 2033, "pitch": 38, "duration": 8, "velocity": 86}, {"time": 2039, "pitch": 55, "duration": 2, "velocity": 97}, {"time": 2039, "pitch": 59, "duration": 2, "velocity": 97}, {"time": 2039, "pitch": 62, "duration": 3, "velocity": 95}, {"time": 2045, "pitch": 48, "duration": 11, "velocity": 97}, {"time": 2051, "pitch": 55, "duration": 2, "velocity": 90}, {"time": 2051, "pitch": 60, "duration": 2, "velocity": 97}, {"time": 2051, "pitch": 64, "duration": 2, "velocity": 92}, {"time": 2054, "pitch": 55, "duration": 3, "velocity": 69}, {"time": 2054, "pitch": 60, "duration": 3, "velocity": 79}, {"time": 2054, "pitch": 64, "duration": 3, "velocity": 73}, {"time": 2057, "pitch": 43, "duration": 11, "velocity": 92}, {"time": 2063, "pitch": 55, "duration": 2, "velocity": 96}, {"time": 2063, "pitch": 60, "duration": 2, "velocity": 102}, {"time": 2063, "pitch": 64, "duration": 2, "velocity": 92}, {"time": 2069, "pitch": 48, "duration": 12, "velocity": 76}, {"time": 2075, "pitch": 55, "duration": 1, "velocity": 88}, {"time": 2075, "pitch": 60, "duration": 2, "velocity": 102}, {"time": 2075, "pitch": 64, "duration": 2, "velocity": 95}, {"time": 2078, "pitch": 55, "duration": 2, "velocity": 62}, {"time": 2078, "pitch": 60, "duration": 3, "velocity": 59}, {"time": 2078, "pitch": 64, "duration": 3, "velocity": 62}, {"time": 2081, "pitch": 43, "duration": 10, "velocity": 89}, {"time": 2087, "pitch": 60, "duration": 2, "velocity": 99}, {"time": 2087, "pitch": 64, "duration": 2, "velocity": 88}, {"time": 2093, "pitch": 45, "duration": 12, "velocity": 95}, {"time": 2099, "pitch": 57, "duration": 1, "velocity": 97}, {"time": 2099, "pitch": 60, "duration": 2, "velocity": 97}, {"time": 2099, "pitch": 64, "duration": 2, "velocity": 90}, {"time": 2102, "pitch": 57, "duration": 2, "velocity": 59}, {"time": 2102, "pitch": 60, "duration": 3, "velocity": 69}, {"time": 2102, "pitch": 64, "duration": 3, "velocity": 70}, {"time": 2105, "pitch": 40, "duration": 11, "velocity": 81}, {"time": 2111, "pitch": 57, "duration": 2, "velocity": 89}, {"time": 2111, "pitch": 60, "duration": 2, "velocity": 93}, {"time": 2111, "pitch": 64, "duration": 2, "velocity": 88}, {"time": 2117, "pitch": 45, "duration": 13, "velocity": 72}, {"time": 2123, "pitch": 57, "duration": 2, "velocity": 95}, {"time": 2123, "pitch": 60, "duration": 2, "velocity": 102}, {"time": 2123, "pitch": 64, "duration": 2, "velocity": 86}, {"time": 2126, "pitch": 57, "duration": 2, "velocity": 52}, {"time": 2126, "pitch": 60, "duration": 3, "velocity": 59}, {"time": 2126, "pitch": 64, "duration": 3, "velocity": 66}, {"time": 2129, "pitch": 40, "duration": 9, "velocity": 75}, {"time": 2135, "pitch": 57, "duration": 2, "velocity": 92}, {"time": 2135, "pitch": 60, "duration": 2, "velocity": 96}, {"time": 2135, "pitch": 64, "duration": 2, "velocity": 85}, {"time": 2141, "pitch": 48, "duration": 12, "velocity": 92}, {"time": 2147, "pitch": 55, "duration": 2, "velocity": 76}, {"time": 2147, "pitch": 60, "duration": 1, "velocity": 90}, {"time": 2147, "pitch": 64, "duration": 2, "velocity": 83}, {"time": 2150, "pitch": 55, "duration": 3, "velocity": 61}, {"time": 2150, "pitch": 60, "duration": 3, "velocity": 65}, {"time": 2150, "pitch": 64, "duration": 3, "velocity": 69}, {"time": 2153, "pitch": 43, "duration": 11, "velocity": 54}, {"time": 2159, "pitch": 55, "duration": 2, "velocity": 95}, {"time": 2159, "pitch": 60, "duration": 2, "velocity": 102}, {"time": 2159, "pitch": 64, "duration": 2, "velocity": 92}, {"time": 2165, "pitch": 48, "duration": 13, "velocity": 74}, {"time": 2171, "pitch": 55, "duration": 1, "velocity": 74}, {"time": 2171, "pitch": 60, "duration": 1, "velocity": 90}, {"time": 2171, "pitch": 64, "duration": 1, "velocity": 78}, {"time": 2174, "pitch": 55, "duration": 3, "velocity": 70}, {"time": 2174, "pitch": 60, "duration": 3, "velocity": 76}, {"time": 2174, "pitch": 64, "duration": 3, "velocity": 73}, {"time": 2177, "pitch": 43, "duration": 9, "velocity": 89}, {"time": 2183, "pitch": 60, "duration": 2, "velocity": 99}, {"time": 2183, "pitch": 64, "duration": 3, "velocity": 88}, {"time": 2189, "pitch": 45, "duration": 12, "velocity": 90}, {"time": 2195, "pitch": 57, "duration": 1, "velocity": 76}, {"time": 2195, "pitch": 60, "duration": 1, "velocity": 83}, {"time": 2195, "pitch": 64, "duration": 2, "velocity": 73}, {"time": 2198, "pitch": 57, "duration": 3, "velocity": 66}, {"time": 2198, "pitch": 60, "duration": 3, "velocity": 75}, {"time": 2198, "pitch": 64, "duration": 3, "velocity": 72}, {"time": 2201, "pitch": 40, "duration": 11, "velocity": 79}, {"time": 2207, "pitch": 57, "duration": 2, "velocity": 88}, {"time": 2207, "pitch": 60, "duration": 1, "velocity": 97}, {"time": 2207, "pitch": 64, "duration": 2, "velocity": 89}, {"time": 2213, "pitch": 45, "duration": 12, "velocity": 75}, {"time": 2219, "pitch": 57, "duration": 1, "velocity": 89}, {"time": 2219, "pitch": 60, "duration": 1, "velocity": 93}, {"time": 2219, "pitch": 64, "duration": 2, "velocity": 83}, {"time": 2222, "pitch": 57, "duration": 3, "velocity": 55}, {"time": 2222, "pitch": 60, "duration": 3, "velocity": 60}, {"time": 2222, "pitch": 64, "duration": 3, "velocity": 66}, {"time": 2225, "pitch": 40, "duration": 10, "velocity": 83}, {"time": 2231, "pitch": 57, "duration": 2, "velocity": 83}, {"time": 2231, "pitch": 60, "duration": 2, "velocity": 92}, {"time": 2231, "pitch": 64, "duration": 2, "velocity": 83}, {"time": 2237, "pitch": 50, "duration": 12, "velocity": 75}, {"time": 2243, "pitch": 57, "duration": 2, "velocity": 86}, {"time": 2243, "pitch": 62, "duration": 2, "velocity": 96}, {"time": 2243, "pitch": 65, "duration": 1, "velocity": 79}, {"time": 2246, "pitch": 57, "duration": 3, "velocity": 61}, {"time": 2246, "pitch": 62, "duration": 3, "velocity": 71}, {"time": 2246, "pitch": 65, "duration": 3, "velocity": 66}, {"time": 2249, "pitch": 45, "duration": 11, "velocity": 74}, {"time": 2255, "pitch": 57, "duration": 2, "velocity": 92}, {"time": 2255, "pitch": 62, "duration": 2, "velocity": 99}, {"time": 2255, "pitch": 65, "duration": 2, "velocity": 92}, {"time": 2261, "pitch": 50, "duration": 13, "velocity": 74}, {"time": 2267, "pitch": 57, "duration": 1, "velocity": 90}, {"time": 2267, "pitch": 62, "duration": 1, "velocity": 93}, {"time": 2267, "pitch": 65, "duration": 1, "velocity": 82}, {"time": 2270, "pitch": 57, "duration": 3, "velocity": 69}, {"time": 2270, "pitch": 62, "duration": 3, "velocity": 65}, {"time": 2270, "pitch": 65, "duration": 3, "velocity": 64}, {"time": 2273, "pitch": 45, "duration": 9, "velocity": 88}, {"time": 2279, "pitch": 57, "duration": 2, "velocity": 89}, {"time": 2279, "pitch": 62, "duration": 2, "velocity": 97}, {"time": 2279, "pitch": 65, "duration": 2, "velocity": 90}, {"time": 2285, "pitch": 50, "duration": 13, "velocity": 82}, {"time": 2291, "pitch": 57, "duration": 2, "velocity": 85}, {"time": 2291, "pitch": 62, "duration": 2, "velocity": 82}, {"time": 2291, "pitch": 65, "duration": 2, "velocity": 72}, {"time": 2294, "pitch": 57, "duration": 3, "velocity": 63}, {"time": 2294, "pitch": 62, "duration": 2, "velocity": 69}, {"time": 2294, "pitch": 65, "duration": 3, "velocity": 68}, {"time": 2297, "pitch": 45, "duration": 9, "velocity": 81}, {"time": 2303, "pitch": 57, "duration": 2, "velocity": 95}, {"time": 2303, "pitch": 62, "duration": 2, "velocity": 97}, {"time": 2303, "pitch": 65, "duration": 2, "velocity": 89}, {"time": 2309, "pitch": 50, "duration": 12, "velocity": 82}, {"time": 2315, "pitch": 57, "duration": 2, "velocity": 88}, {"time": 2315, "pitch": 62, "duration": 1, "velocity": 95}, {"time": 2315, "pitch": 65, "duration": 1, "velocity": 82}, {"time": 2318, "pitch": 57, "duration": 3, "velocity": 61}, {"time": 2318, "pitch": 62, "duration": 3, "velocity": 56}, {"time": 2318, "pitch": 65, "duration": 3, "velocity": 58}, {"time": 2321, "pitch": 45, "duration": 9, "velocity": 90}, {"time": 2327, "pitch": 57, "duration": 2, "velocity": 90}, {"time": 2327, "pitch": 62, "duration": 3, "velocity": 99}, {"time": 2327, "pitch": 65, "duration": 1, "velocity": 69}, {"time": 2333, "pitch": 43, "duration": 11, "velocity": 90}, {"time": 2339, "pitch": 55, "duration": 2, "velocity": 75}, {"time": 2339, "pitch": 59, "duration": 1, "velocity": 89}, {"time": 2339, "pitch": 62, "duration": 2, "velocity": 82}, {"time": 2342, "pitch": 55, "duration": 3, "velocity": 59}, {"time": 2342, "pitch": 59, "duration": 2, "velocity": 68}, {"time": 2342, "pitch": 62, "duration": 3, "velocity": 72}, {"time": 2345, "pitch": 38, "duration": 10, "velocity": 74}, {"time": 2351, "pitch": 55, "duration": 2, "velocity": 89}, {"time": 2351, "pitch": 59, "duration": 2, "velocity": 96}, {"time": 2351, "pitch": 62, "duration": 2, "velocity": 89}, {"time": 2357, "pitch": 43, "duration": 12, "velocity": 89}, {"time": 2363, "pitch": 55, "duration": 1, "velocity": 90}, {"time": 2363, "pitch": 59, "duration": 1, "velocity": 95}, {"time": 2363, "pitch": 62, "duration": 2, "velocity": 90}, {"time": 2366, "pitch": 55, "duration": 2, "velocity": 62}, {"time": 2366, "pitch": 59, "duration": 3, "velocity": 77}, {"time": 2366, "pitch": 62, "duration": 3, "velocity": 76}, {"time": 2369, "pitch": 38, "duration": 8, "velocity": 82}, {"time": 2375, "pitch": 55, "duration": 2, "velocity": 86}, {"time": 2375, "pitch": 59, "duration": 2, "velocity": 97}, {"time": 2375, "pitch": 62, "duration": 2, "velocity": 88}, {"time": 2381, "pitch": 48, "duration": 12, "velocity": 95}, {"time": 2387, "pitch": 55, "duration": 2, "velocity": 83}, {"time": 2387, "pitch": 60, "duration": 2, "velocity": 92}, {"time": 2387, "pitch": 64, "duration": 2, "velocity": 85}, {"time": 2390, "pitch": 55, "duration": 3, "velocity": 58}, {"time": 2390, "pitch": 60, "duration": 3, "velocity": 76}, {"time": 2390, "pitch": 64, "duration": 3, "velocity": 75}, {"time": 2393, "pitch": 43, "duration": 12, "velocity": 79}, {"time": 2399, "pitch": 55, "duration": 2, "velocity": 86}, {"time": 2399, "pitch": 60, "duration": 2, "velocity": 100}, {"time": 2399, "pitch": 64, "duration": 2, "velocity": 93}, {"time": 2405, "pitch": 48, "duration": 12, "velocity": 78}, {"time": 2411, "pitch": 55, "duration": 1, "velocity": 88}, {"time": 2411, "pitch": 60, "duration": 1, "velocity": 96}, {"time": 2411, "pitch": 64, "duration": 1, "velocity": 86}, {"time": 2414, "pitch": 55, "duration": 3, "velocity": 65}, {"time": 2414, "pitch": 60, "duration": 3, "velocity": 73}, {"time": 2414, "pitch": 64, "duration": 3, "velocity": 72}, {"time": 2417, "pitch": 43, "duration": 9, "velocity": 90}, {"time": 2423, "pitch": 55, "duration": 2, "velocity": 95}, {"time": 2423, "pitch": 60, "duration": 2, "velocity": 107}, {"time": 2423, "pitch": 64, "duration": 2, "velocity": 90}, {"time": 2429, "pitch": 48, "duration": 10, "velocity": 96}, {"time": 2435, "pitch": 60, "duration": 1, "velocity": 95}, {"time": 2435, "pitch": 64, "duration": 1, "velocity": 79}, {"time": 2435, "pitch": 67, "duration": 1, "velocity": 85}, {"time": 2438, "pitch": 60, "duration": 2, "velocity": 69}, {"time": 2438, "pitch": 64, "duration": 2, "velocity": 77}, {"time": 2438, "pitch": 67, "duration": 3, "velocity": 79}, {"time": 2441, "pitch": 43, "duration": 9, "velocity": 79}, {"time": 2447, "pitch": 60, "duration": 1, "velocity": 81}, {"time": 2447, "pitch": 64, "duration": 1, "velocity": 85}, {"time": 2447, "pitch": 67, "duration": 2, "velocity": 83}, {"time": 2453, "pitch": 48, "duration": 13, "velocity": 59}, {"time": 2459, "pitch": 55, "duration": 2, "velocity": 89}, {"time": 2459, "pitch": 60, "duration": 1, "velocity": 92}, {"time": 2459, "pitch": 64, "duration": 1, "velocity": 79}, {"time": 2462, "pitch": 55, "duration": 2, "velocity": 63}, {"time": 2462, "pitch": 60, "duration": 2, "velocity": 64}, {"time": 2462, "pitch": 64, "duration": 2, "velocity": 61}, {"time": 2465, "pitch": 43, "duration": 8, "velocity": 77}, {"time": 2471, "pitch": 55, "duration": 1, "velocity": 89}, {"time": 2471, "pitch": 60, "duration": 2, "velocity": 97}, {"time": 2471, "pitch": 64, "duration": 2, "velocity": 88}, {"time": 2477, "pitch": 45, "duration": 8, "velocity": 86}, {"time": 2483, "pitch": 57, "duration": 2, "velocity": 76}, {"time": 2483, "pitch": 60, "duration": 2, "velocity": 86}, {"time": 2483, "pitch": 64, "duration": 1, "velocity": 79}, {"time": 2486, "pitch": 57, "duration": 3, "velocity": 58}, {"time": 2486, "pitch": 60, "duration": 3, "velocity": 68}, {"time": 2486, "pitch": 64, "duration": 3, "velocity": 66}, {"time": 2489, "pitch": 40, "duration": 9, "velocity": 78}, {"time": 2495, "pitch": 57, "duration": 2, "velocity": 88}, {"time": 2495, "pitch": 60, "duration": 1, "velocity": 92}, {"time": 2495, "pitch": 64, "duration": 2, "velocity": 83}, {"time": 2501, "pitch": 45, "duration": 12, "velocity": 81}, {"time": 2507, "pitch": 52, "duration": 2, "velocity": 86}, {"time": 2507, "pitch": 56, "duration": 1, "velocity": 66}, {"time": 2507, "pitch": 57, "duration": 2, "velocity": 76}, {"time": 2507, "pitch": 60, "duration": 2, "velocity": 86}, {"time": 2510, "pitch": 52, "duration": 2, "velocity": 41}, {"time": 2510, "pitch": 57, "duration": 3, "velocity": 52}, {"time": 2510, "pitch": 60, "duration": 3, "velocity": 61}, {"time": 2513, "pitch": 40, "duration": 7, "velocity": 72}, {"time": 2519, "pitch": 52, "duration": 1, "velocity": 86}, {"time": 2519, "pitch": 57, "duration": 2, "velocity": 100}, {"time": 2519, "pitch": 60, "duration": 2, "velocity": 92}, {"time": 2525, "pitch": 48, "duration": 12, "velocity": 76}, {"time": 2531, "pitch": 55, "duration": 1, "velocity": 78}, {"time": 2531, "pitch": 60, "duration": 1, "velocity": 92}, {"time": 2531, "pitch": 64, "duration": 2, "velocity": 79}, {"time": 2534, "pitch": 55, "duration": 3, "velocity": 56}, {"time": 2534, "pitch": 60, "duration": 3, "velocity": 66}, {"time": 2534, "pitch": 64, "duration": 3, "velocity": 66}, {"time": 2537, "pitch": 43, "duration": 9, "velocity": 62}, {"time": 2543, "pitch": 55, "duration": 1, "velocity": 79}, {"time": 2543, "pitch": 60, "duration": 2, "velocity": 93}, {"time": 2543, "pitch": 64, "duration": 2, "velocity": 78}, {"time": 2549, "pitch": 48, "duration": 12, "velocity": 59}, {"time": 2555, "pitch": 55, "duration": 2, "velocity": 73}, {"time": 2555, "pitch": 60, "duration": 2, "velocity": 85}, {"time": 2555, "pitch": 64, "duration": 2, "velocity": 73}, {"time": 2558, "pitch": 55, "duration": 2, "velocity": 49}, {"time": 2558, "pitch": 60, "duration": 3, "velocity": 60}, {"time": 2558, "pitch": 64, "duration": 3, "velocity": 62}, {"time": 2561, "pitch": 43, "duration": 10, "velocity": 55}, {"time": 2567, "pitch": 55, "duration": 2, "velocity": 88}, {"time": 2567, "pitch": 60, "duration": 2, "velocity": 95}, {"time": 2567, "pitch": 64, "duration": 2, "velocity": 85}, {"time": 2573, "pitch": 45, "duration": 12, "velocity": 72}, {"time": 2579, "pitch": 52, "duration": 2, "velocity": 63}, {"time": 2579, "pitch": 57, "duration": 2, "velocity": 85}, {"time": 2579, "pitch": 60, "duration": 2, "velocity": 77}, {"time": 2582, "pitch": 52, "duration": 2, "velocity": 55}, {"time": 2582, "pitch": 57, "duration": 2, "velocity": 69}, {"time": 2582, "pitch": 60, "duration": 3, "velocity": 66}, {"time": 2585, "pitch": 40, "duration": 11, "velocity": 66}, {"time": 2591, "pitch": 52, "duration": 2, "velocity": 81}, {"time": 2591, "pitch": 57, "duration": 2, "velocity": 95}, {"time": 2591, "pitch": 60, "duration": 2, "velocity": 89}, {"time": 2597, "pitch": 45, "duration": 13, "velocity": 71}, {"time": 2603, "pitch": 52, "duration": 1, "velocity": 76}, {"time": 2603, "pitch": 57, "duration": 1, "velocity": 90}, {"time": 2603, "pitch": 60, "duration": 2, "velocity": 83}, {"time": 2609, "pitch": 40, "duration": 8, "velocity": 68}, {"time": 2609, "pitch": 52, "duration": 3, "velocity": 49}, {"time": 2609, "pitch": 57, "duration": 3, "velocity": 65}, {"time": 2609, "pitch": 60, "duration": 3, "velocity": 64}, {"time": 2615, "pitch": 52, "duration": 1, "velocity": 76}, {"time": 2615, "pitch": 57, "duration": 2, "velocity": 93}, {"time": 2615, "pitch": 60, "duration": 2, "velocity": 86}, {"time": 2621, "pitch": 50, "duration": 12, "velocity": 66}, {"time": 2627, "pitch": 57, "duration": 2, "velocity": 90}, {"time": 2627, "pitch": 62, "duration": 2, "velocity": 95}, {"time": 2627, "pitch": 65, "duration": 2, "velocity": 79}, {"time": 2630, "pitch": 57, "duration": 2, "velocity": 65}, {"time": 2630, "pitch": 62, "duration": 2, "velocity": 66}, {"time": 2630, "pitch": 65, "duration": 2, "velocity": 56}, {"time": 2633, "pitch": 45, "duration": 11, "velocity": 71}, {"time": 2639, "pitch": 57, "duration": 2, "velocity": 89}, {"time": 2639, "pitch": 62, "duration": 2, "velocity": 93}, {"time": 2639, "pitch": 65, "duration": 2, "velocity": 77}, {"time": 2645, "pitch": 50, "duration": 13, "velocity": 58}, {"time": 2651, "pitch": 57, "duration": 2, "velocity": 89}, {"time": 2651, "pitch": 62, "duration": 1, "velocity": 92}, {"time": 2651, "pitch": 65, "duration": 2, "velocity": 81}, {"time": 2654, "pitch": 57, "duration": 2, "velocity": 50}, {"time": 2654, "pitch": 62, "duration": 3, "velocity": 63}, {"time": 2654, "pitch": 65, "duration": 3, "velocity": 62}, {"time": 2657, "pitch": 45, "duration": 8, "velocity": 85}, {"time": 2663, "pitch": 57, "duration": 2, "velocity": 92}, {"time": 2663, "pitch": 62, "duration": 2, "velocity": 99}, {"time": 2663, "pitch": 65, "duration": 2, "velocity": 89}, {"time": 2669, "pitch": 45, "duration": 12, "velocity": 96}, {"time": 2675, "pitch": 52, "duration": 6, "velocity": 68}, {"time": 2675, "pitch": 57, "duration": 6, "velocity": 82}, {"time": 2675, "pitch": 60, "duration": 6, "velocity": 82}, {"time": 2681, "pitch": 40, "duration": 10, "velocity": 72}, {"time": 2687, "pitch": 52, "duration": 2, "velocity": 77}, {"time": 2687, "pitch": 57, "duration": 2, "velocity": 92}, {"time": 2687, "pitch": 60, "duration": 2, "velocity": 83}, {"time": 2693, "pitch": 45, "duration": 13, "velocity": 68}, {"time": 2699, "pitch": 52, "duration": 2, "velocity": 68}, {"time": 2699, "pitch": 57, "duration": 1, "velocity": 81}, {"time": 2699, "pitch": 60, "duration": 2, "velocity": 78}, {"time": 2702, "pitch": 52, "duration": 3, "velocity": 55}, {"time": 2702, "pitch": 57, "duration": 3, "velocity": 65}, {"time": 2702, "pitch": 60, "duration": 3, "velocity": 63}, {"time": 2705, "pitch": 40, "duration": 8, "velocity": 75}, {"time": 2711, "pitch": 52, "duration": 2, "velocity": 85}, {"time": 2711, "pitch": 57, "duration": 2, "velocity": 93}, {"time": 2711, "pitch": 60, "duration": 2, "velocity": 88}, {"time": 2717, "pitch": 50, "duration": 13, "velocity": 74}, {"time": 2723, "pitch": 57, "duration": 2, "velocity": 81}, {"time": 2723, "pitch": 62, "duration": 2, "velocity": 90}, {"time": 2723, "pitch": 65, "duration": 1, "velocity": 75}, {"time": 2726, "pitch": 57, "duration": 2, "velocity": 56}, {"time": 2726, "pitch": 62, "duration": 3, "velocity": 64}, {"time": 2726, "pitch": 65, "duration": 2, "velocity": 60}, {"time": 2729, "pitch": 45, "duration": 11, "velocity": 69}, {"time": 2735, "pitch": 57, "duration": 2, "velocity": 83}, {"time": 2735, "pitch": 62, "duration": 2, "velocity": 93}, {"time": 2735, "pitch": 65, "duration": 2, "velocity": 83}, {"time": 2741, "pitch": 50, "duration": 13, "velocity": 66}, {"time": 2747, "pitch": 57, "duration": 2, "velocity": 77}, {"time": 2747, "pitch": 62, "duration": 1, "velocity": 86}, {"time": 2747, "pitch": 65, "duration": 2, "velocity": 78}, {"time": 2750, "pitch": 57, "duration": 3, "velocity": 46}, {"time": 2750, "pitch": 62, "duration": 3, "velocity": 59}, {"time": 2750, "pitch": 65, "duration": 3, "velocity": 55}, {"time": 2753, "pitch": 45, "duration": 8, "velocity": 68}, {"time": 2759, "pitch": 57, "duration": 2, "velocity": 86}, {"time": 2759, "pitch": 62, "duration": 2, "velocity": 95}, {"time": 2759, "pitch": 65, "duration": 2, "velocity": 82}, {"time": 2765, "pitch": 43, "duration": 13, "velocity": 89}, {"time": 2771, "pitch": 50, "duration": 2, "velocity": 72}, {"time": 2771, "pitch": 55, "duration": 2, "velocity": 82}, {"time": 2771, "pitch": 59, "duration": 2, "velocity": 81}, {"time": 2774, "pitch": 50, "duration": 2, "velocity": 55}, {"time": 2774, "pitch": 55, "duration": 3, "velocity": 68}, {"time": 2774, "pitch": 59, "duration": 3, "velocity": 67}, {"time": 2777, "pitch": 38, "duration": 10, "velocity": 72}, {"time": 2783, "pitch": 55, "duration": 1, "velocity": 69}, {"time": 2783, "pitch": 59, "duration": 2, "velocity": 92}, {"time": 2783, "pitch": 62, "duration": 2, "velocity": 89}, {"time": 2789, "pitch": 43, "duration": 12, "velocity": 72}, {"time": 2795, "pitch": 55, "duration": 2, "velocity": 78}, {"time": 2795, "pitch": 59, "duration": 2, "velocity": 88}, {"time": 2795, "pitch": 62, "duration": 2, "velocity": 79}, {"time": 2798, "pitch": 55, "duration": 3, "velocity": 48}, {"time": 2798, "pitch": 59, "duration": 3, "velocity": 61}, {"time": 2798, "pitch": 62, "duration": 3, "velocity": 62}, {"time": 2801, "pitch": 38, "duration": 7, "velocity": 85}, {"time": 2807, "pitch": 55, "duration": 1, "velocity": 85}, {"time": 2807, "pitch": 59, "duration": 1, "velocity": 95}, {"time": 2807, "pitch": 62, "duration": 2, "velocity": 82}, {"time": 2813, "pitch": 48, "duration": 13, "velocity": 88}, {"time": 2819, "pitch": 55, "duration": 2, "velocity": 77}, {"time": 2819, "pitch": 60, "duration": 2, "velocity": 92}, {"time": 2819, "pitch": 64, "duration": 2, "velocity": 77}, {"time": 2822, "pitch": 55, "duration": 2, "velocity": 62}, {"time": 2822, "pitch": 60, "duration": 3, "velocity": 68}, {"time": 2822, "pitch": 64, "duration": 3, "velocity": 68}, {"time": 2825, "pitch": 43, "duration": 10, "velocity": 69}, {"time": 2831, "pitch": 55, "duration": 1, "velocity": 81}, {"time": 2831, "pitch": 60, "duration": 2, "velocity": 95}, {"time": 2831, "pitch": 64, "duration": 2, "velocity": 88}, {"time": 2837, "pitch": 48, "duration": 12, "velocity": 59}, {"time": 2843, "pitch": 55, "duration": 2, "velocity": 83}, {"time": 2843, "pitch": 60, "duration": 2, "velocity": 95}, {"time": 2843, "pitch": 64, "duration": 2, "velocity": 85}, {"time": 2846, "pitch": 55, "duration": 3, "velocity": 45}, {"time": 2846, "pitch": 60, "duration": 3, "velocity": 51}, {"time": 2846, "pitch": 64, "duration": 3, "velocity": 50}, {"time": 2849, "pitch": 43, "duration": 10, "velocity": 62}, {"time": 2855, "pitch": 55, "duration": 2, "velocity": 85}, {"time": 2855, "pitch": 60, "duration": 2, "velocity": 92}, {"time": 2855, "pitch": 64, "duration": 2, "velocity": 86}, {"time": 2861, "pitch": 45, "duration": 8, "velocity": 60}, {"time": 2867, "pitch": 57, "duration": 2, "velocity": 92}, {"time": 2867, "pitch": 60, "duration": 2, "velocity": 95}, {"time": 2867, "pitch": 64, "duration": 2, "velocity": 92}, {"time": 2870, "pitch": 57, "duration": 2, "velocity": 45}, {"time": 2870, "pitch": 60, "duration": 3, "velocity": 55}, {"time": 2870, "pitch": 64, "duration": 2, "velocity": 52}, {"time": 2873, "pitch": 40, "duration": 10, "velocity": 81}, {"time": 2879, "pitch": 57, "duration": 2, "velocity": 88}, {"time": 2879, "pitch": 60, "duration": 2, "velocity": 90}, {"time": 2879, "pitch": 64, "duration": 2, "velocity": 82}, {"time": 2885, "pitch": 45, "duration": 13, "velocity": 72}, {"time": 2891, "pitch": 57, "duration": 2, "velocity": 81}, {"time": 2891, "pitch": 60, "duration": 2, "velocity": 93}, {"time": 2891, "pitch": 64, "duration": 2, "velocity": 82}, {"time": 2894, "pitch": 57, "duration": 2, "velocity": 49}, {"time": 2894, "pitch": 60, "duration": 2, "velocity": 55}, {"time": 2894, "pitch": 64, "duration": 3, "velocity": 62}, {"time": 2897, "pitch": 40, "duration": 9, "velocity": 76}, {"time": 2903, "pitch": 57, "duration": 2, "velocity": 85}, {"time": 2903, "pitch": 60, "duration": 2, "velocity": 93}, {"time": 2903, "pitch": 64, "duration": 2, "velocity": 77}, {"time": 2909, "pitch": 48, "duration": 12, "velocity": 70}, {"time": 2915, "pitch": 55, "duration": 2, "velocity": 81}, {"time": 2915, "pitch": 60, "duration": 1, "velocity": 95}, {"time": 2915, "pitch": 64, "duration": 1, "velocity": 73}, {"time": 2921, "pitch": 55, "duration": 2, "velocity": 54}, {"time": 2921, "pitch": 60, "duration": 3, "velocity": 69}, {"time": 2921, "pitch": 64, "duration": 3, "velocity": 63}, {"time": 2927, "pitch": 43, "duration": 8, "velocity": 52}, {"time": 2927, "pitch": 55, "duration": 1, "velocity": 73}, {"time": 2927, "pitch": 60, "duration": 1, "velocity": 90}, {"time": 2927, "pitch": 64, "duration": 2, "velocity": 81}, {"time": 2933, "pitch": 48, "duration": 11, "velocity": 74}, {"time": 2939, "pitch": 55, "duration": 1, "velocity": 68}, {"time": 2939, "pitch": 60, "duration": 1, "velocity": 79}, {"time": 2939, "pitch": 64, "duration": 1, "velocity": 75}, {"time": 2942, "pitch": 55, "duration": 3, "velocity": 59}, {"time": 2942, "pitch": 60, "duration": 3, "velocity": 63}, {"time": 2942, "pitch": 64, "duration": 3, "velocity": 66}, {"time": 2945, "pitch": 43, "duration": 8, "velocity": 63}, {"time": 2951, "pitch": 55, "duration": 1, "velocity": 65}, {"time": 2951, "pitch": 60, "duration": 1, "velocity": 88}, {"time": 2951, "pitch": 64, "duration": 2, "velocity": 71}, {"time": 2957, "pitch": 45, "duration": 13, "velocity": 92}, {"time": 2963, "pitch": 52, "duration": 2, "velocity": 73}, {"time": 2963, "pitch": 57, "duration": 2, "velocity": 92}, {"time": 2963, "pitch": 60, "duration": 2, "velocity": 82}, {"time": 2966, "pitch": 52, "duration": 3, "velocity": 53}, {"time": 2966, "pitch": 57, "duration": 3, "velocity": 66}, {"time": 2966, "pitch": 60, "duration": 3, "velocity": 58}, {"time": 2969, "pitch": 40, "duration": 11, "velocity": 70}, {"time": 2975, "pitch": 52, "duration": 2, "velocity": 79}, {"time": 2975, "pitch": 57, "duration": 2, "velocity": 93}, {"time": 2975, "pitch": 60, "duration": 2, "velocity": 89}, {"time": 2981, "pitch": 45, "duration": 13, "velocity": 67}, {"time": 2987, "pitch": 52, "duration": 2, "velocity": 74}, {"time": 2987, "pitch": 57, "duration": 2, "velocity": 92}, {"time": 2987, "pitch": 60, "duration": 2, "velocity": 90}, {"time": 2990, "pitch": 52, "duration": 3, "velocity": 46}, {"time": 2990, "pitch": 57, "duration": 3, "velocity": 58}, {"time": 2990, "pitch": 60, "duration": 3, "velocity": 64}, {"time": 2993, "pitch": 40, "duration": 7, "velocity": 73}, {"time": 2999, "pitch": 52, "duration": 1, "velocity": 82}, {"time": 2999, "pitch": 57, "duration": 2, "velocity": 96}, {"time": 2999, "pitch": 60, "duration": 2, "velocity": 90}, {"time": 3005, "pitch": 50, "duration": 12, "velocity": 73}, {"time": 3011, "pitch": 57, "duration": 2, "velocity": 76}, {"time": 3011, "pitch": 62, "duration": 2, "velocity": 79}, {"time": 3011, "pitch": 65, "duration": 1, "velocity": 66}, {"time": 3014, "pitch": 57, "duration": 3, "velocity": 67}, {"time": 3014, "pitch": 62, "duration": 3, "velocity": 69}, {"time": 3014, "pitch": 65, "duration": 3, "velocity": 66}, {"time": 3017, "pitch": 45, "duration": 11, "velocity": 62}, {"time": 3023, "pitch": 57, "duration": 2, "velocity": 85}, {"time": 3023, "pitch": 62, "duration": 2, "velocity": 92}, {"time": 3023, "pitch": 65, "duration": 2, "velocity": 83}, {"time": 3029, "pitch": 50, "duration": 13, "velocity": 35}, {"time": 3035, "pitch": 57, "duration": 2, "velocity": 86}, {"time": 3035, "pitch": 62, "duration": 2, "velocity": 97}, {"time": 3035, "pitch": 65, "duration": 2, "velocity": 85}, {"time": 3038, "pitch": 57, "duration": 3, "velocity": 51}, {"time": 3038, "pitch": 62, "duration": 3, "velocity": 59}, {"time": 3038, "pitch": 65, "duration": 3, "velocity": 56}, {"time": 3041, "pitch": 45, "duration": 8, "velocity": 71}, {"time": 3047, "pitch": 57, "duration": 2, "velocity": 78}, {"time": 3047, "pitch": 62, "duration": 2, "velocity": 90}, {"time": 3047, "pitch": 65, "duration": 2, "velocity": 81}, {"time": 3053, "pitch": 50, "duration": 10, "velocity": 89}, {"time": 3059, "pitch": 57, "duration": 2, "velocity": 86}, {"time": 3059, "pitch": 62, "duration": 2, "velocity": 92}, {"time": 3059, "pitch": 65, "duration": 1, "velocity": 78}, {"time": 3062, "pitch": 57, "duration": 3, "velocity": 58}, {"time": 3062, "pitch": 62, "duration": 3, "velocity": 70}, {"time": 3062, "pitch": 65, "duration": 3, "velocity": 70}, {"time": 3065, "pitch": 45, "duration": 10, "velocity": 78}, {"time": 3071, "pitch": 57, "duration": 2, "velocity": 86}, {"time": 3071, "pitch": 62, "duration": 2, "velocity": 92}, {"time": 3071, "pitch": 65, "duration": 2, "velocity": 85}, {"time": 3077, "pitch": 50, "duration": 12, "velocity": 62}, {"time": 3083, "pitch": 57, "duration": 2, "velocity": 83}, {"time": 3083, "pitch": 62, "duration": 2, "velocity": 90}, {"time": 3083, "pitch": 65, "duration": 2, "velocity": 79}, {"time": 3086, "pitch": 57, "duration": 3, "velocity": 59}, {"time": 3086, "pitch": 62, "duration": 3, "velocity": 69}, {"time": 3086, "pitch": 65, "duration": 3, "velocity": 67}, {"time": 3089, "pitch": 45, "duration": 9, "velocity": 62}, {"time": 3095, "pitch": 57, "duration": 2, "velocity": 89}, {"time": 3095, "pitch": 62, "duration": 2, "velocity": 96}, {"time": 3095, "pitch": 65, "duration": 2, "velocity": 89}, {"time": 3101, "pitch": 43, "duration": 13, "velocity": 90}, {"time": 3107, "pitch": 55, "duration": 6, "velocity": 86}, {"time": 3107, "pitch": 59, "duration": 6, "velocity": 77}, {"time": 3113, "pitch": 38, "duration": 10, "velocity": 67}, {"time": 3119, "pitch": 55, "duration": 1, "velocity": 92}, {"time": 3119, "pitch": 59, "duration": 2, "velocity": 99}, {"time": 3119, "pitch": 62, "duration": 2, "velocity": 92}, {"time": 3125, "pitch": 43, "duration": 13, "velocity": 62}, {"time": 3131, "pitch": 55, "duration": 2, "velocity": 89}, {"time": 3131, "pitch": 59, "duration": 1, "velocity": 95}, {"time": 3131, "pitch": 62, "duration": 2, "velocity": 85}, {"time": 3134, "pitch": 55, "duration": 2, "velocity": 43}, {"time": 3134, "pitch": 59, "duration": 3, "velocity": 66}, {"time": 3134, "pitch": 62, "duration": 3, "velocity": 68}, {"time": 3137, "pitch": 38, "duration": 7, "velocity": 66}, {"time": 3143, "pitch": 55, "duration": 2, "velocity": 86}, {"time": 3143, "pitch": 59, "duration": 2, "velocity": 95}, {"time": 3143, "pitch": 62, "duration": 2, "velocity": 81}, {"time": 3149, "pitch": 48, "duration": 3, "velocity": 83}, {"time": 3149, "pitch": 55, "duration": 2, "velocity": 73}, {"time": 3149, "pitch": 60, "duration": 3, "velocity": 81}, {"time": 3149, "pitch": 64, "duration": 3, "velocity": 77}, {"time": 3155, "pitch": 48, "duration": 3, "velocity": 79}, {"time": 3155, "pitch": 55, "duration": 3, "velocity": 69}, {"time": 3155, "pitch": 60, "duration": 3, "velocity": 76}, {"time": 3155, "pitch": 64, "duration": 3, "velocity": 69}, {"time": 3161, "pitch": 48, "duration": 3, "velocity": 74}, {"time": 3161, "pitch": 55, "duration": 3, "velocity": 76}, {"time": 3161, "pitch": 60, "duration": 3, "velocity": 81}, {"time": 3161, "pitch": 64, "duration": 3, "velocity": 74}, {"time": 3167, "pitch": 48, "duration": 3, "velocity": 88}, {"time": 3167, "pitch": 55, "duration": 3, "velocity": 81}, {"time": 3167, "pitch": 60, "duration": 2, "velocity": 85}, {"time": 3167, "pitch": 64, "duration": 3, "velocity": 77}, {"time": 3173, "pitch": 48, "duration": 6, "velocity": 93}, {"time": 3173, "pitch": 55, "duration": 5, "velocity": 82}, {"time": 3173, "pitch": 60, "duration": 5, "velocity": 90}, {"time": 3173, "pitch": 64, "duration": 5, "velocity": 88}, {"time": 3197, "pitch": 48, "duration": 9, "velocity": 62}, {"time": 3203, "pitch": 55, "duration": 2, "velocity": 64}, {"time": 3203, "pitch": 60, "duration": 2, "velocity": 67}, {"time": 3203, "pitch": 64, "duration": 2, "velocity": 63}, {"time": 3209, "pitch": 43, "duration": 9, "velocity": 67}, {"time": 3215, "pitch": 55, "duration": 2, "velocity": 71}, {"time": 3215, "pitch": 60, "duration": 2, "velocity": 79}, {"time": 3215, "pitch": 64, "duration": 2, "velocity": 73}, {"time": 3221, "pitch": 48, "duration": 13, "velocity": 62}, {"time": 3227, "pitch": 55, "duration": 2, "velocity": 73}, {"time": 3227, "pitch": 60, "duration": 2, "velocity": 73}, {"time": 3227, "pitch": 64, "duration": 2, "velocity": 72}, {"time": 3233, "pitch": 43, "duration": 10, "velocity": 65}, {"time": 3239, "pitch": 60, "duration": 2, "velocity": 85}, {"time": 3239, "pitch": 64, "duration": 2, "velocity": 74}, {"time": 3245, "pitch": 45, "duration": 11, "velocity": 72}, {"time": 3251, "pitch": 57, "duration": 2, "velocity": 72}, {"time": 3251, "pitch": 60, "duration": 2, "velocity": 86}, {"time": 3251, "pitch": 64, "duration": 2, "velocity": 78}, {"time": 3257, "pitch": 40, "duration": 11, "velocity": 64}, {"time": 3263, "pitch": 52, "duration": 2, "velocity": 63}, {"time": 3263, "pitch": 57, "duration": 2, "velocity": 85}, {"time": 3263, "pitch": 60, "duration": 2, "velocity": 81}, {"time": 3269, "pitch": 45, "duration": 13, "velocity": 50}, {"time": 3275, "pitch": 52, "duration": 2, "velocity": 64}, {"time": 3275, "pitch": 57, "duration": 2, "velocity": 82}, {"time": 3275, "pitch": 60, "duration": 2, "velocity": 78}, {"time": 3281, "pitch": 40, "duration": 9, "velocity": 72}, {"time": 3281, "pitch": 57, "duration": 1, "velocity": 53}, {"time": 3281, "pitch": 60, "duration": 1, "velocity": 39}, {"time": 3287, "pitch": 52, "duration": 1, "velocity": 67}, {"time": 3287, "pitch": 57, "duration": 2, "velocity": 83}, {"time": 3287, "pitch": 60, "duration": 2, "velocity": 82}, {"time": 3293, "pitch": 50, "duration": 12, "velocity": 73}, {"time": 3299, "pitch": 57, "duration": 2, "velocity": 79}, {"time": 3299, "pitch": 62, "duration": 2, "velocity": 89}, {"time": 3299, "pitch": 65, "duration": 2, "velocity": 79}, {"time": 3305, "pitch": 45, "duration": 10, "velocity": 70}, {"time": 3311, "pitch": 57, "duration": 2, "velocity": 79}, {"time": 3311, "pitch": 62, "duration": 2, "velocity": 89}, {"time": 3311, "pitch": 65, "duration": 2, "velocity": 81}, {"time": 3317, "pitch": 50, "duration": 13, "velocity": 59}, {"time": 3323, "pitch": 57, "duration": 2, "velocity": 89}, {"time": 3323, "pitch": 62, "duration": 2, "velocity": 85}, {"time": 3323, "pitch": 65, "duration": 2, "velocity": 81}, {"time": 3329, "pitch": 45, "duration": 8, "velocity": 69}, {"time": 3335, "pitch": 57, "duration": 1, "velocity": 81}, {"time": 3335, "pitch": 62, "duration": 2, "velocity": 90}, {"time": 3335, "pitch": 65, "duration": 2, "velocity": 76}, {"time": 3341, "pitch": 43, "duration": 11, "velocity": 74}, {"time": 3347, "pitch": 50, "duration": 3, "velocity": 72}, {"time": 3347, "pitch": 55, "duration": 3, "velocity": 74}, {"time": 3347, "pitch": 59, "duration": 3, "velocity": 71}, {"time": 3353, "pitch": 38, "duration": 11, "velocity": 70}, {"time": 3359, "pitch": 50, "duration": 2, "velocity": 73}, {"time": 3359, "pitch": 55, "duration": 2, "velocity": 88}, {"time": 3359, "pitch": 59, "duration": 2, "velocity": 86}, {"time": 3365, "pitch": 43, "duration": 12, "velocity": 56}, {"time": 3371, "pitch": 50, "duration": 2, "velocity": 69}, {"time": 3371, "pitch": 55, "duration": 2, "velocity": 81}, {"time": 3371, "pitch": 59, "duration": 2, "velocity": 83}, {"time": 3377, "pitch": 38, "duration": 9, "velocity": 66}, {"time": 3383, "pitch": 55, "duration": 2, "velocity": 88}, {"time": 3383, "pitch": 59, "duration": 2, "velocity": 85}, {"time": 3389, "pitch": 45, "duration": 12, "velocity": 82}, {"time": 3395, "pitch": 57, "duration": 2, "velocity": 90}, {"time": 3395, "pitch": 60, "duration": 2, "velocity": 99}, {"time": 3395, "pitch": 64, "duration": 2, "velocity": 90}, {"time": 3401, "pitch": 40, "duration": 11, "velocity": 48}, {"time": 3407, "pitch": 52, "duration": 2, "velocity": 76}, {"time": 3407, "pitch": 57, "duration": 2, "velocity": 86}, {"time": 3407, "pitch": 60, "duration": 2, "velocity": 78}, {"time": 3413, "pitch": 45, "duration": 13, "velocity": 63}, {"time": 3419, "pitch": 52, "duration": 2, "velocity": 73}, {"time": 3419, "pitch": 57, "duration": 2, "velocity": 79}, {"time": 3419, "pitch": 60, "duration": 2, "velocity": 78}, {"time": 3425, "pitch": 40, "duration": 12, "velocity": 67}, {"time": 3431, "pitch": 52, "duration": 2, "velocity": 75}, {"time": 3431, "pitch": 57, "duration": 2, "velocity": 86}, {"time": 3431, "pitch": 60, "duration": 2, "velocity": 81}, {"time": 3437, "pitch": 45, "duration": 12, "velocity": 73}, {"time": 3443, "pitch": 57, "duration": 2, "velocity": 71}, {"time": 3443, "pitch": 60, "duration": 2, "velocity": 76}, {"time": 3443, "pitch": 64, "duration": 2, "velocity": 78}, {"time": 3449, "pitch": 40, "duration": 10, "velocity": 65}, {"time": 3455, "pitch": 57, "duration": 2, "velocity": 78}, {"time": 3455, "pitch": 60, "duration": 2, "velocity": 82}, {"time": 3455, "pitch": 64, "duration": 2, "velocity": 79}, {"time": 3461, "pitch": 45, "duration": 12, "velocity": 54}, {"time": 3467, "pitch": 57, "duration": 2, "velocity": 75}, {"time": 3467, "pitch": 60, "duration": 2, "velocity": 85}, {"time": 3467, "pitch": 64, "duration": 2, "velocity": 77}, {"time": 3473, "pitch": 40, "duration": 8, "velocity": 67}, {"time": 3479, "pitch": 57, "duration": 2, "velocity": 83}, {"time": 3479, "pitch": 60, "duration": 2, "velocity": 89}, {"time": 3479, "pitch": 64, "duration": 2, "velocity": 79}, {"time": 3485, "pitch": 50, "duration": 10, "velocity": 89}, {"time": 3491, "pitch": 57, "duration": 2, "velocity": 83}, {"time": 3491, "pitch": 62, "duration": 2, "velocity": 90}, {"time": 3491, "pitch": 65, "duration": 2, "velocity": 83}, {"time": 3497, "pitch": 45, "duration": 10, "velocity": 72}, {"time": 3503, "pitch": 57, "duration": 2, "velocity": 79}, {"time": 3503, "pitch": 62, "duration": 2, "velocity": 86}, {"time": 3503, "pitch": 65, "duration": 2, "velocity": 75}, {"time": 3509, "pitch": 50, "duration": 13, "velocity": 66}, {"time": 3515, "pitch": 57, "duration": 2, "velocity": 89}, {"time": 3515, "pitch": 62, "duration": 2, "velocity": 99}, {"time": 3515, "pitch": 65, "duration": 2, "velocity": 88}, {"time": 3521, "pitch": 45, "duration": 7, "velocity": 65}, {"time": 3527, "pitch": 57, "duration": 2, "velocity": 85}, {"time": 3527, "pitch": 62, "duration": 2, "velocity": 96}, {"time": 3527, "pitch": 65, "duration": 1, "velocity": 68}, {"time": 3533, "pitch": 43, "duration": 8, "velocity": 100}, {"time": 3533, "pitch": 55, "duration": 2, "velocity": 97}, {"time": 3533, "pitch": 59, "duration": 1, "velocity": 96}, {"time": 3533, "pitch": 62, "duration": 2, "velocity": 90}, {"time": 3539, "pitch": 55, "duration": 1, "velocity": 82}, {"time": 3539, "pitch": 59, "duration": 1, "velocity": 89}, {"time": 3539, "pitch": 62, "duration": 1, "velocity": 74}, {"time": 3542, "pitch": 55, "duration": 2, "velocity": 70}, {"time": 3542, "pitch": 59, "duration": 2, "velocity": 83}, {"time": 3542, "pitch": 62, "duration": 2, "velocity": 82}, {"time": 3545, "pitch": 38, "duration": 9, "velocity": 95}, {"time": 3545, "pitch": 55, "duration": 2, "velocity": 68}, {"time": 3545, "pitch": 59, "duration": 2, "velocity": 75}, {"time": 3545, "pitch": 62, "duration": 2, "velocity": 66}, {"time": 3551, "pitch": 55, "duration": 1, "velocity": 93}, {"time": 3551, "pitch": 59, "duration": 1, "velocity": 99}, {"time": 3551, "pitch": 62, "duration": 1, "velocity": 96}, {"time": 3557, "pitch": 43, "duration": 12, "velocity": 89}, {"time": 3557, "pitch": 55, "duration": 2, "velocity": 92}, {"time": 3557, "pitch": 59, "duration": 2, "velocity": 97}, {"time": 3557, "pitch": 62, "duration": 2, "velocity": 90}, {"time": 3569, "pitch": 38, "duration": 10, "velocity": 74}, {"time": 3581, "pitch": 48, "duration": 9, "velocity": 62}, {"time": 3587, "pitch": 55, "duration": 2, "velocity": 64}, {"time": 3587, "pitch": 60, "duration": 2, "velocity": 67}, {"time": 3587, "pitch": 64, "duration": 2, "velocity": 63}, {"time": 3593, "pitch": 43, "duration": 9, "velocity": 67}, {"time": 3599, "pitch": 55, "duration": 2, "velocity": 71}, {"time": 3599, "pitch": 60, "duration": 2, "velocity": 79}, {"time": 3599, "pitch": 64, "duration": 2, "velocity": 73}, {"time": 3605, "pitch": 48, "duration": 13, "velocity": 62}, {"time": 3611, "pitch": 55, "duration": 2, "velocity": 73}, {"time": 3611, "pitch": 60, "duration": 2, "velocity": 73}, {"time": 3611, "pitch": 64, "duration": 2, "velocity": 72}, {"time": 3617, "pitch": 43, "duration": 10, "velocity": 65}, {"time": 3623, "pitch": 60, "duration": 2, "velocity": 85}, {"time": 3623, "pitch": 64, "duration": 2, "velocity": 74}, {"time": 3629, "pitch": 45, "duration": 11, "velocity": 72}, {"time": 3635, "pitch": 57, "duration": 2, "velocity": 72}, {"time": 3635, "pitch": 60, "duration": 2, "velocity": 86}, {"time": 3635, "pitch": 64, "duration": 2, "velocity": 78}, {"time": 3641, "pitch": 40, "duration": 11, "velocity": 64}, {"time": 3647, "pitch": 52, "duration": 2, "velocity": 63}, {"time": 3647, "pitch": 57, "duration": 2, "velocity": 85}, {"time": 3647, "pitch": 60, "duration": 2, "velocity": 81}, {"time": 3653, "pitch": 45, "duration": 13, "velocity": 50}, {"time": 3659, "pitch": 52, "duration": 2, "velocity": 64}, {"time": 3659, "pitch": 57, "duration": 2, "velocity": 82}, {"time": 3659, "pitch": 60, "duration": 2, "velocity": 78}, {"time": 3665, "pitch": 40, "duration": 9, "velocity": 72}, {"time": 3665, "pitch": 57, "duration": 1, "velocity": 53}, {"time": 3665, "pitch": 60, "duration": 1, "velocity": 39}, {"time": 3671, "pitch": 52, "duration": 1, "velocity": 67}, {"time": 3671, "pitch": 57, "duration": 2, "velocity": 83}, {"time": 3671, "pitch": 60, "duration": 2, "velocity": 82}, {"time": 3677, "pitch": 50, "duration": 12, "velocity": 73}, {"time": 3683, "pitch": 57, "duration": 2, "velocity": 79}, {"time": 3683, "pitch": 62, "duration": 2, "velocity": 89}, {"time": 3683, "pitch": 65, "duration": 2, "velocity": 79}, {"time": 3689, "pitch": 45, "duration": 10, "velocity": 70}, {"time": 3695, "pitch": 57, "duration": 2, "velocity": 79}, {"time": 3695, "pitch": 62, "duration": 2, "velocity": 89}, {"time": 3695, "pitch": 65, "duration": 2, "velocity": 81}, {"time": 3701, "pitch": 50, "duration": 13, "velocity": 59}, {"time": 3707, "pitch": 57, "duration": 2, "velocity": 89}, {"time": 3707, "pitch": 62, "duration": 2, "velocity": 85}, {"time": 3707, "pitch": 65, "duration": 2, "velocity": 81}, {"time": 3713, "pitch": 45, "duration": 8, "velocity": 69}, {"time": 3719, "pitch": 57, "duration": 1, "velocity": 81}, {"time": 3719, "pitch": 62, "duration": 2, "velocity": 90}, {"time": 3719, "pitch": 65, "duration": 2, "velocity": 76}, {"time": 3725, "pitch": 43, "duration": 11, "velocity": 74}, {"time": 3731, "pitch": 50, "duration": 3, "velocity": 72}, {"time": 3731, "pitch": 55, "duration": 3, "velocity": 74}, {"time": 3731, "pitch": 59, "duration": 3, "velocity": 71}, {"time": 3737, "pitch": 38, "duration": 11, "velocity": 70}, {"time": 3743, "pitch": 50, "duration": 2, "velocity": 73}, {"time": 3743, "pitch": 55, "duration": 2, "velocity": 88}, {"time": 3743, "pitch": 59, "duration": 2, "velocity": 86}, {"time": 3749, "pitch": 43, "duration": 12, "velocity": 56}, {"time": 3755, "pitch": 50, "duration": 2, "velocity": 69}, {"time": 3755, "pitch": 55, "duration": 2, "velocity": 81}, {"time": 3755, "pitch": 59, "duration": 2, "velocity": 83}, {"time": 3761, "pitch": 38, "duration": 9, "velocity": 66}, {"time": 3767, "pitch": 55, "duration": 2, "velocity": 88}, {"time": 3767, "pitch": 59, "duration": 2, "velocity": 85}, {"time": 3773, "pitch": 45, "duration": 12, "velocity": 82}, {"time": 3779, "pitch": 57, "duration": 2, "velocity": 90}, {"time": 3779, "pitch": 60, "duration": 2, "velocity": 99}, {"time": 3779, "pitch": 64, "duration": 2, "velocity": 90}, {"time": 3785, "pitch": 40, "duration": 11, "velocity": 48}, {"time": 3791, "pitch": 52, "duration": 2, "velocity": 76}, {"time": 3791, "pitch": 57, "duration": 2, "velocity": 86}, {"time": 3791, "pitch": 60, "duration": 2, "velocity": 78}, {"time": 3797, "pitch": 45, "duration": 13, "velocity": 63}, {"time": 3803, "pitch": 52, "duration": 2, "velocity": 73}, {"time": 3803, "pitch": 57, "duration": 2, "velocity": 79}, {"time": 3803, "pitch": 60, "duration": 2, "velocity": 78}, {"time": 3809, "pitch": 40, "duration": 12, "velocity": 67}, {"time": 3815, "pitch": 52, "duration": 2, "velocity": 75}, {"time": 3815, "pitch": 57, "duration": 2, "velocity": 86}, {"time": 3815, "pitch": 60, "duration": 2, "velocity": 81}, {"time": 3821, "pitch": 45, "duration": 12, "velocity": 73}, {"time": 3827, "pitch": 57, "duration": 2, "velocity": 71}, {"time": 3827, "pitch": 60, "duration": 2, "velocity": 76}, {"time": 3827, "pitch": 64, "duration": 2, "velocity": 78}, {"time": 3833, "pitch": 40, "duration": 10, "velocity": 65}, {"time": 3839, "pitch": 57, "duration": 2, "velocity": 78}, {"time": 3839, "pitch": 60, "duration": 2, "velocity": 82}, {"time": 3839, "pitch": 64, "duration": 2, "velocity": 79}, {"time": 3845, "pitch": 45, "duration": 12, "velocity": 54}, {"time": 3851, "pitch": 57, "duration": 2, "velocity": 75}, {"time": 3851, "pitch": 60, "duration": 2, "velocity": 85}, {"time": 3851, "pitch": 64, "duration": 2, "velocity": 77}, {"time": 3857, "pitch": 40, "duration": 8, "velocity": 67}, {"time": 3863, "pitch": 57, "duration": 2, "velocity": 83}, {"time": 3863, "pitch": 60, "duration": 2, "velocity": 89}, {"time": 3863, "pitch": 64, "duration": 2, "velocity": 79}, {"time": 3869, "pitch": 50, "duration": 10, "velocity": 89}, {"time": 3875, "pitch": 57, "duration": 2, "velocity": 83}, {"time": 3875, "pitch": 62, "duration": 2, "velocity": 90}, {"time": 3875, "pitch": 65, "duration": 2, "velocity": 83}, {"time": 3881, "pitch": 45, "duration": 10, "velocity": 72}, {"time": 3887, "pitch": 57, "duration": 2, "velocity": 79}, {"time": 3887, "pitch": 62, "duration": 2, "velocity": 86}, {"time": 3887, "pitch": 65, "duration": 2, "velocity": 75}, {"time": 3893, "pitch": 50, "duration": 13, "velocity": 66}, {"time": 3899, "pitch": 57, "duration": 2, "velocity": 89}, {"time": 3899, "pitch": 62, "duration": 2, "velocity": 99}, {"time": 3899, "pitch": 65, "duration": 2, "velocity": 88}, {"time": 3905, "pitch": 45, "duration": 7, "velocity": 65}, {"time": 3911, "pitch": 57, "duration": 2, "velocity": 85}, {"time": 3911, "pitch": 62, "duration": 2, "velocity": 96}, {"time": 3911, "pitch": 65, "duration": 1, "velocity": 68}, {"time": 3917, "pitch": 43, "duration": 7, "velocity": 100}, {"time": 3923, "pitch": 55, "duration": 3, "velocity": 79}, {"time": 3923, "pitch": 59, "duration": 2, "velocity": 86}, {"time": 3923, "pitch": 62, "duration": 3, "velocity": 88}, {"time": 3923, "pitch": 67, "duration": 2, "velocity": 74}, {"time": 3929, "pitch": 38, "duration": 9, "velocity": 75}, {"time": 3935, "pitch": 55, "duration": 2, "velocity": 81}, {"time": 3935, "pitch": 59, "duration": 2, "velocity": 88}, {"time": 3935, "pitch": 62, "duration": 2, "velocity": 81}, {"time": 3935, "pitch": 67, "duration": 2, "velocity": 77}, {"time": 3941, "pitch": 43, "duration": 9, "velocity": 95}, {"time": 3947, "pitch": 55, "duration": 1, "velocity": 73}, {"time": 3947, "pitch": 59, "duration": 1, "velocity": 89}, {"time": 3947, "pitch": 62, "duration": 2, "velocity": 81}, {"time": 3947, "pitch": 67, "duration": 1, "velocity": 55}, {"time": 3953, "pitch": 38, "duration": 8, "velocity": 85}, {"time": 3953, "pitch": 55, "duration": 1, "velocity": 58}, {"time": 3959, "pitch": 55, "duration": 2, "velocity": 85}, {"time": 3959, "pitch": 59, "duration": 2, "velocity": 95}, {"time": 3959, "pitch": 62, "duration": 2, "velocity": 89}, {"time": 3965, "pitch": 43, "duration": 3, "velocity": 88}, {"time": 3965, "pitch": 55, "duration": 2, "velocity": 79}, {"time": 3965, "pitch": 59, "duration": 2, "velocity": 86}, {"time": 3965, "pitch": 62, "duration": 2, "velocity": 77}, {"time": 3971, "pitch": 43, "duration": 3, "velocity": 78}, {"time": 3971, "pitch": 55, "duration": 3, "velocity": 73}, {"time": 3971, "pitch": 59, "duration": 3, "velocity": 75}, {"time": 3971, "pitch": 62, "duration": 3, "velocity": 70}, {"time": 3977, "pitch": 43, "duration": 3, "velocity": 89}, {"time": 3977, "pitch": 55, "duration": 3, "velocity": 86}, {"time": 3977, "pitch": 59, "duration": 2, "velocity": 86}, {"time": 3977, "pitch": 62, "duration": 3, "velocity": 82}, {"time": 3983, "pitch": 43, "duration": 3, "velocity": 95}, {"time": 3983, "pitch": 55, "duration": 2, "velocity": 81}, {"time": 3983, "pitch": 59, "duration": 2, "velocity": 81}, {"time": 3983, "pitch": 62, "duration": 2, "velocity": 73}, {"time": 3989, "pitch": 43, "duration": 6, "velocity": 102}, {"time": 3989, "pitch": 55, "duration": 5, "velocity": 92}, {"time": 3989, "pitch": 59, "duration": 5, "velocity": 93}, {"time": 3989, "pitch": 62, "duration": 5, "velocity": 90}, {"time": 4001, "pitch": 40, "duration": 11, "velocity": 38}, {"time": 4002, "pitch": 64, "duration": 11, "velocity": 67}, {"time": 4013, "pitch": 48, "duration": 9, "velocity": 102}, {"time": 4019, "pitch": 55, "duration": 2, "velocity": 85}, {"time": 4019, "pitch": 60, "duration": 2, "velocity": 97}, {"time": 4019, "pitch": 64, "duration": 2, "velocity": 90}, {"time": 4022, "pitch": 55, "duration": 2, "velocity": 76}, {"time": 4022, "pitch": 60, "duration": 3, "velocity": 86}, {"time": 4022, "pitch": 64, "duration": 2, "velocity": 86}, {"time": 4025, "pitch": 43, "duration": 10, "velocity": 93}, {"time": 4031, "pitch": 55, "duration": 1, "velocity": 100}, {"time": 4031, "pitch": 60, "duration": 2, "velocity": 117}, {"time": 4031, "pitch": 64, "duration": 2, "velocity": 107}, {"time": 4037, "pitch": 48, "duration": 12, "velocity": 92}, {"time": 4043, "pitch": 55, "duration": 1, "velocity": 93}, {"time": 4043, "pitch": 60, "duration": 1, "velocity": 96}, {"time": 4043, "pitch": 64, "duration": 2, "velocity": 93}, {"time": 4046, "pitch": 55, "duration": 3, "velocity": 65}, {"time": 4046, "pitch": 60, "duration": 3, "velocity": 72}, {"time": 4046, "pitch": 64, "duration": 3, "velocity": 72}, {"time": 4049, "pitch": 43, "duration": 9, "velocity": 92}, {"time": 4055, "pitch": 55, "duration": 1, "velocity": 93}, {"time": 4055, "pitch": 60, "duration": 1, "velocity": 102}, {"time": 4055, "pitch": 64, "duration": 2, "velocity": 96}, {"time": 4061, "pitch": 45, "duration": 10, "velocity": 76}, {"time": 4067, "pitch": 57, "duration": 2, "velocity": 95}, {"time": 4067, "pitch": 60, "duration": 2, "velocity": 112}, {"time": 4067, "pitch": 64, "duration": 2, "velocity": 95}, {"time": 4070, "pitch": 57, "duration": 3, "velocity": 71}, {"time": 4070, "pitch": 60, "duration": 3, "velocity": 67}, {"time": 4070, "pitch": 64, "duration": 3, "velocity": 67}, {"time": 4073, "pitch": 40, "duration": 10, "velocity": 81}, {"time": 4079, "pitch": 57, "duration": 2, "velocity": 95}, {"time": 4079, "pitch": 60, "duration": 2, "velocity": 112}, {"time": 4079, "pitch": 64, "duration": 2, "velocity": 95}, {"time": 4085, "pitch": 45, "duration": 13, "velocity": 97}, {"time": 4091, "pitch": 57, "duration": 1, "velocity": 89}, {"time": 4091, "pitch": 60, "duration": 1, "velocity": 83}, {"time": 4091, "pitch": 64, "duration": 1, "velocity": 86}, {"time": 4094, "pitch": 57, "duration": 3, "velocity": 59}, {"time": 4094, "pitch": 60, "duration": 3, "velocity": 77}, {"time": 4094, "pitch": 64, "duration": 3, "velocity": 70}, {"time": 4097, "pitch": 40, "duration": 8, "velocity": 86}, {"time": 4103, "pitch": 57, "duration": 2, "velocity": 99}, {"time": 4103, "pitch": 60, "duration": 2, "velocity": 102}, {"time": 4103, "pitch": 64, "duration": 2, "velocity": 96}, {"time": 4109, "pitch": 48, "duration": 11, "velocity": 90}, {"time": 4115, "pitch": 55, "duration": 1, "velocity": 79}, {"time": 4115, "pitch": 60, "duration": 1, "velocity": 90}, {"time": 4115, "pitch": 64, "duration": 1, "velocity": 83}, {"time": 4118, "pitch": 55, "duration": 2, "velocity": 60}, {"time": 4118, "pitch": 60, "duration": 3, "velocity": 75}, {"time": 4118, "pitch": 64, "duration": 3, "velocity": 69}, {"time": 4121, "pitch": 43, "duration": 10, "velocity": 92}, {"time": 4127, "pitch": 55, "duration": 2, "velocity": 93}, {"time": 4127, "pitch": 60, "duration": 2, "velocity": 107}, {"time": 4127, "pitch": 64, "duration": 2, "velocity": 93}, {"time": 4133, "pitch": 48, "duration": 12, "velocity": 96}, {"time": 4139, "pitch": 55, "duration": 1, "velocity": 82}, {"time": 4139, "pitch": 60, "duration": 1, "velocity": 99}, {"time": 4139, "pitch": 64, "duration": 2, "velocity": 90}, {"time": 4142, "pitch": 55, "duration": 3, "velocity": 66}, {"time": 4142, "pitch": 60, "duration": 3, "velocity": 79}, {"time": 4142, "pitch": 64, "duration": 3, "velocity": 72}, {"time": 4145, "pitch": 43, "duration": 10, "velocity": 92}, {"time": 4151, "pitch": 55, "duration": 1, "velocity": 85}, {"time": 4151, "pitch": 60, "duration": 2, "velocity": 102}, {"time": 4151, "pitch": 64, "duration": 2, "velocity": 88}, {"time": 4157, "pitch": 45, "duration": 12, "velocity": 93}, {"time": 4163, "pitch": 57, "duration": 2, "velocity": 90}, {"time": 4163, "pitch": 60, "duration": 2, "velocity": 97}, {"time": 4163, "pitch": 64, "duration": 2, "velocity": 90}, {"time": 4166, "pitch": 57, "duration": 3, "velocity": 62}, {"time": 4166, "pitch": 60, "duration": 3, "velocity": 65}, {"time": 4166, "pitch": 64, "duration": 3, "velocity": 66}, {"time": 4169, "pitch": 40, "duration": 11, "velocity": 85}, {"time": 4175, "pitch": 57, "duration": 2, "velocity": 92}, {"time": 4175, "pitch": 60, "duration": 2, "velocity": 97}, {"time": 4175, "pitch": 64, "duration": 2, "velocity": 90}, {"time": 4181, "pitch": 45, "duration": 13, "velocity": 90}, {"time": 4187, "pitch": 57, "duration": 2, "velocity": 81}, {"time": 4187, "pitch": 60, "duration": 2, "velocity": 88}, {"time": 4187, "pitch": 64, "duration": 2, "velocity": 78}, {"time": 4190, "pitch": 57, "duration": 3, "velocity": 63}, {"time": 4190, "pitch": 60, "duration": 3, "velocity": 67}, {"time": 4190, "pitch": 64, "duration": 3, "velocity": 72}, {"time": 4193, "pitch": 40, "duration": 10, "velocity": 82}, {"time": 4199, "pitch": 57, "duration": 2, "velocity": 89}, {"time": 4199, "pitch": 60, "duration": 2, "velocity": 90}, {"time": 4199, "pitch": 64, "duration": 3, "velocity": 83}, {"time": 4205, "pitch": 50, "duration": 11, "velocity": 85}, {"time": 4211, "pitch": 57, "duration": 2, "velocity": 82}, {"time": 4211, "pitch": 62, "duration": 2, "velocity": 96}, {"time": 4211, "pitch": 65, "duration": 2, "velocity": 86}, {"time": 4214, "pitch": 57, "duration": 2, "velocity": 68}, {"time": 4214, "pitch": 62, "duration": 3, "velocity": 76}, {"time": 4214, "pitch": 65, "duration": 3, "velocity": 72}, {"time": 4217, "pitch": 45, "duration": 11, "velocity": 90}, {"time": 4223, "pitch": 57, "duration": 2, "velocity": 97}, {"time": 4223, "pitch": 62, "duration": 2, "velocity": 100}, {"time": 4223, "pitch": 65, "duration": 2, "velocity": 96}, {"time": 4229, "pitch": 50, "duration": 12, "velocity": 73}, {"time": 4235, "pitch": 57, "duration": 2, "velocity": 97}, {"time": 4235, "pitch": 62, "duration": 2, "velocity": 107}, {"time": 4235, "pitch": 65, "duration": 2, "velocity": 97}, {"time": 4238, "pitch": 57, "duration": 3, "velocity": 69}, {"time": 4238, "pitch": 62, "duration": 3, "velocity": 63}, {"time": 4238, "pitch": 65, "duration": 3, "velocity": 65}, {"time": 4241, "pitch": 45, "duration": 9, "velocity": 89}, {"time": 4247, "pitch": 57, "duration": 3, "velocity": 86}, {"time": 4247, "pitch": 62, "duration": 3, "velocity": 102}, {"time": 4247, "pitch": 65, "duration": 2, "velocity": 90}, {"time": 4253, "pitch": 45, "duration": 12, "velocity": 107}, {"time": 4259, "pitch": 57, "duration": 1, "velocity": 83}, {"time": 4259, "pitch": 60, "duration": 2, "velocity": 81}, {"time": 4262, "pitch": 57, "duration": 3, "velocity": 71}, {"time": 4262, "pitch": 60, "duration": 4, "velocity": 72}, {"time": 4265, "pitch": 40, "duration": 11, "velocity": 78}, {"time": 4271, "pitch": 52, "duration": 2, "velocity": 93}, {"time": 4271, "pitch": 57, "duration": 2, "velocity": 97}, {"time": 4271, "pitch": 60, "duration": 2, "velocity": 93}, {"time": 4277, "pitch": 45, "duration": 12, "velocity": 67}, {"time": 4283, "pitch": 57, "duration": 3, "velocity": 79}, {"time": 4283, "pitch": 60, "duration": 2, "velocity": 97}, {"time": 4283, "pitch": 64, "duration": 2, "velocity": 92}, {"time": 4286, "pitch": 57, "duration": 3, "velocity": 42}, {"time": 4286, "pitch": 60, "duration": 3, "velocity": 63}, {"time": 4286, "pitch": 64, "duration": 3, "velocity": 52}, {"time": 4289, "pitch": 40, "duration": 8, "velocity": 83}, {"time": 4295, "pitch": 57, "duration": 2, "velocity": 90}, {"time": 4295, "pitch": 60, "duration": 1, "velocity": 93}, {"time": 4295, "pitch": 64, "duration": 2, "velocity": 86}, {"time": 4301, "pitch": 50, "duration": 11, "velocity": 89}, {"time": 4307, "pitch": 57, "duration": 2, "velocity": 93}, {"time": 4307, "pitch": 62, "duration": 1, "velocity": 97}, {"time": 4307, "pitch": 65, "duration": 1, "velocity": 90}, {"time": 4310, "pitch": 57, "duration": 3, "velocity": 68}, {"time": 4310, "pitch": 62, "duration": 3, "velocity": 74}, {"time": 4310, "pitch": 65, "duration": 3, "velocity": 76}, {"time": 4313, "pitch": 45, "duration": 11, "velocity": 92}, {"time": 4319, "pitch": 57, "duration": 2, "velocity": 95}, {"time": 4319, "pitch": 62, "duration": 2, "velocity": 97}, {"time": 4319, "pitch": 65, "duration": 2, "velocity": 90}, {"time": 4325, "pitch": 50, "duration": 13, "velocity": 73}, {"time": 4331, "pitch": 57, "duration": 2, "velocity": 92}, {"time": 4331, "pitch": 62, "duration": 2, "velocity": 97}, {"time": 4331, "pitch": 65, "duration": 2, "velocity": 99}, {"time": 4334, "pitch": 57, "duration": 3, "velocity": 55}, {"time": 4334, "pitch": 62, "duration": 3, "velocity": 61}, {"time": 4334, "pitch": 65, "duration": 3, "velocity": 66}, {"time": 4337, "pitch": 45, "duration": 8, "velocity": 88}, {"time": 4343, "pitch": 57, "duration": 2, "velocity": 96}, {"time": 4343, "pitch": 62, "duration": 3, "velocity": 100}, {"time": 4343, "pitch": 65, "duration": 2, "velocity": 92}, {"time": 4349, "pitch": 43, "duration": 11, "velocity": 96}, {"time": 4355, "pitch": 55, "duration": 1, "velocity": 96}, {"time": 4355, "pitch": 59, "duration": 1, "velocity": 97}, {"time": 4355, "pitch": 62, "duration": 1, "velocity": 92}, {"time": 4358, "pitch": 55, "duration": 3, "velocity": 66}, {"time": 4358, "pitch": 59, "duration": 2, "velocity": 68}, {"time": 4358, "pitch": 62, "duration": 2, "velocity": 69}, {"time": 4361, "pitch": 38, "duration": 11, "velocity": 89}, {"time": 4367, "pitch": 55, "duration": 1, "velocity": 97}, {"time": 4367, "pitch": 59, "duration": 1, "velocity": 99}, {"time": 4367, "pitch": 62, "duration": 2, "velocity": 97}, {"time": 4373, "pitch": 43, "duration": 12, "velocity": 90}, {"time": 4379, "pitch": 55, "duration": 2, "velocity": 88}, {"time": 4379, "pitch": 59, "duration": 1, "velocity": 92}, {"time": 4379, "pitch": 62, "duration": 2, "velocity": 89}, {"time": 4382, "pitch": 55, "duration": 3, "velocity": 74}, {"time": 4382, "pitch": 59, "duration": 2, "velocity": 81}, {"time": 4382, "pitch": 62, "duration": 3, "velocity": 86}, {"time": 4385, "pitch": 38, "duration": 8, "velocity": 86}, {"time": 4391, "pitch": 55, "duration": 2, "velocity": 97}, {"time": 4391, "pitch": 59, "duration": 2, "velocity": 97}, {"time": 4391, "pitch": 62, "duration": 3, "velocity": 95}, {"time": 4397, "pitch": 48, "duration": 11, "velocity": 97}, {"time": 4403, "pitch": 55, "duration": 2, "velocity": 90}, {"time": 4403, "pitch": 60, "duration": 2, "velocity": 97}, {"time": 4403, "pitch": 64, "duration": 2, "velocity": 92}, {"time": 4406, "pitch": 55, "duration": 3, "velocity": 69}, {"time": 4406, "pitch": 60, "duration": 3, "velocity": 79}, {"time": 4406, "pitch": 64, "duration": 3, "velocity": 73}, {"time": 4409, "pitch": 43, "duration": 11, "velocity": 92}, {"time": 4415, "pitch": 55, "duration": 2, "velocity": 96}, {"time": 4415, "pitch": 60, "duration": 2, "velocity": 102}, {"time": 4415, "pitch": 64, "duration": 2, "velocity": 92}, {"time": 4421, "pitch": 48, "duration": 12, "velocity": 76}, {"time": 4427, "pitch": 55, "duration": 1, "velocity": 88}, {"time": 4427, "pitch": 60, "duration": 2, "velocity": 102}, {"time": 4427, "pitch": 64, "duration": 2, "velocity": 95}, {"time": 4430, "pitch": 55, "duration": 2, "velocity": 62}, {"time": 4430, "pitch": 60, "duration": 3, "velocity": 59}, {"time": 4430, "pitch": 64, "duration": 3, "velocity": 62}, {"time": 4433, "pitch": 43, "duration": 10, "velocity": 89}, {"time": 4439, "pitch": 60, "duration": 2, "velocity": 99}, {"time": 4439, "pitch": 64, "duration": 2, "velocity": 88}, {"time": 4445, "pitch": 45, "duration": 12, "velocity": 95}, {"time": 4451, "pitch": 57, "duration": 1, "velocity": 97}, {"time": 4451, "pitch": 60, "duration": 2, "velocity": 97}, {"time": 4451, "pitch": 64, "duration": 2, "velocity": 90}, {"time": 4454, "pitch": 57, "duration": 2, "velocity": 59}, {"time": 4454, "pitch": 60, "duration": 3, "velocity": 69}, {"time": 4454, "pitch": 64, "duration": 3, "velocity": 70}, {"time": 4457, "pitch": 40, "duration": 11, "velocity": 81}, {"time": 4463, "pitch": 57, "duration": 2, "velocity": 89}, {"time": 4463, "pitch": 60, "duration": 2, "velocity": 93}, {"time": 4463, "pitch": 64, "duration": 2, "velocity": 88}, {"time": 4469, "pitch": 45, "duration": 13, "velocity": 72}, {"time": 4475, "pitch": 57, "duration": 2, "velocity": 95}, {"time": 4475, "pitch": 60, "duration": 2, "velocity": 102}, {"time": 4475, "pitch": 64, "duration": 2, "velocity": 86}, {"time": 4478, "pitch": 57, "duration": 2, "velocity": 52}, {"time": 4478, "pitch": 60, "duration": 3, "velocity": 59}, {"time": 4478, "pitch": 64, "duration": 3, "velocity": 66}, {"time": 4481, "pitch": 40, "duration": 9, "velocity": 75}, {"time": 4487, "pitch": 57, "duration": 2, "velocity": 92}, {"time": 4487, "pitch": 60, "duration": 2, "velocity": 96}, {"time": 4487, "pitch": 64, "duration": 2, "velocity": 85}, {"time": 4493, "pitch": 48, "duration": 12, "velocity": 92}, {"time": 4499, "pitch": 55, "duration": 2, "velocity": 76}, {"time": 4499, "pitch": 60, "duration": 1, "velocity": 90}, {"time": 4499, "pitch": 64, "duration": 2, "velocity": 83}, {"time": 4502, "pitch": 55, "duration": 3, "velocity": 61}, {"time": 4502, "pitch": 60, "duration": 3, "velocity": 65}, {"time": 4502, "pitch": 64, "duration": 3, "velocity": 69}, {"time": 4505, "pitch": 43, "duration": 11, "velocity": 54}, {"time": 4511, "pitch": 55, "duration": 2, "velocity": 95}, {"time": 4511, "pitch": 60, "duration": 2, "velocity": 102}, {"time": 4511, "pitch": 64, "duration": 2, "velocity": 92}, {"time": 4517, "pitch": 48, "duration": 13, "velocity": 74}, {"time": 4523, "pitch": 55, "duration": 1, "velocity": 74}, {"time": 4523, "pitch": 60, "duration": 1, "velocity": 90}, {"time": 4523, "pitch": 64, "duration": 1, "velocity": 78}, {"time": 4526, "pitch": 55, "duration": 3, "velocity": 70}, {"time": 4526, "pitch": 60, "duration": 3, "velocity": 76}, {"time": 4526, "pitch": 64, "duration": 3, "velocity": 73}, {"time": 4529, "pitch": 43, "duration": 9, "velocity": 89}, {"time": 4535, "pitch": 60, "duration": 2, "velocity": 99}, {"time": 4535, "pitch": 64, "duration": 3, "velocity": 88}, {"time": 4541, "pitch": 45, "duration": 12, "velocity": 90}, {"time": 4547, "pitch": 57, "duration": 1, "velocity": 76}, {"time": 4547, "pitch": 60, "duration": 1, "velocity": 83}, {"time": 4547, "pitch": 64, "duration": 2, "velocity": 73}, {"time": 4550, "pitch": 57, "duration": 3, "velocity": 66}, {"time": 4550, "pitch": 60, "duration": 3, "velocity": 75}, {"time": 4550, "pitch": 64, "duration": 3, "velocity": 72}, {"time": 4553, "pitch": 40, "duration": 11, "velocity": 79}, {"time": 4559, "pitch": 57, "duration": 2, "velocity": 88}, {"time": 4559, "pitch": 60, "duration": 1, "velocity": 97}, {"time": 4559, "pitch": 64, "duration": 2, "velocity": 89}, {"time": 4565, "pitch": 45, "duration": 12, "velocity": 75}, {"time": 4571, "pitch": 57, "duration": 1, "velocity": 89}, {"time": 4571, "pitch": 60, "duration": 1, "velocity": 93}, {"time": 4571, "pitch": 64, "duration": 2, "velocity": 83}, {"time": 4574, "pitch": 57, "duration": 3, "velocity": 55}, {"time": 4574, "pitch": 60, "duration": 3, "velocity": 60}, {"time": 4574, "pitch": 64, "duration": 3, "velocity": 66}, {"time": 4577, "pitch": 40, "duration": 10, "velocity": 83}, {"time": 4583, "pitch": 57, "duration": 2, "velocity": 83}, {"time": 4583, "pitch": 60, "duration": 2, "velocity": 92}, {"time": 4583, "pitch": 64, "duration": 2, "velocity": 83}, {"time": 4589, "pitch": 50, "duration": 12, "velocity": 75}, {"time": 4595, "pitch": 57, "duration": 2, "velocity": 86}, {"time": 4595, "pitch": 62, "duration": 2, "velocity": 96}, {"time": 4595, "pitch": 65, "duration": 1, "velocity": 79}, {"time": 4598, "pitch": 57, "duration": 3, "velocity": 61}, {"time": 4598, "pitch": 62, "duration": 3, "velocity": 71}, {"time": 4598, "pitch": 65, "duration": 3, "velocity": 66}, {"time": 4601, "pitch": 45, "duration": 11, "velocity": 74}, {"time": 4607, "pitch": 57, "duration": 2, "velocity": 92}, {"time": 4607, "pitch": 62, "duration": 2, "velocity": 99}, {"time": 4607, "pitch": 65, "duration": 2, "velocity": 92}, {"time": 4613, "pitch": 50, "duration": 13, "velocity": 74}, {"time": 4619, "pitch": 57, "duration": 1, "velocity": 90}, {"time": 4619, "pitch": 62, "duration": 1, "velocity": 93}, {"time": 4619, "pitch": 65, "duration": 1, "velocity": 82}, {"time": 4622, "pitch": 57, "duration": 3, "velocity": 69}, {"time": 4622, "pitch": 62, "duration": 3, "velocity": 65}, {"time": 4622, "pitch": 65, "duration": 3, "velocity": 64}, {"time": 4625, "pitch": 45, "duration": 9, "velocity": 88}, {"time": 4631, "pitch": 57, "duration": 2, "velocity": 89}, {"time": 4631, "pitch": 62, "duration": 2, "velocity": 97}, {"time": 4631, "pitch": 65, "duration": 2, "velocity": 90}, {"time": 4637, "pitch": 50, "duration": 13, "velocity": 82}, {"time": 4643, "pitch": 57, "duration": 2, "velocity": 85}, {"time": 4643, "pitch": 62, "duration": 2, "velocity": 82}, {"time": 4643, "pitch": 65, "duration": 2, "velocity": 72}, {"time": 4646, "pitch": 57, "duration": 3, "velocity": 63}, {"time": 4646, "pitch": 62, "duration": 2, "velocity": 69}, {"time": 4646, "pitch": 65, "duration": 3, "velocity": 68}, {"time": 4649, "pitch": 45, "duration": 9, "velocity": 81}, {"time": 4655, "pitch": 57, "duration": 2, "velocity": 95}, {"time": 4655, "pitch": 62, "duration": 2, "velocity": 97}, {"time": 4655, "pitch": 65, "duration": 2, "velocity": 89}, {"time": 4661, "pitch": 50, "duration": 12, "velocity": 82}, {"time": 4667, "pitch": 57, "duration": 2, "velocity": 88}, {"time": 4667, "pitch": 62, "duration": 1, "velocity": 95}, {"time": 4667, "pitch": 65, "duration": 1, "velocity": 82}, {"time": 4670, "pitch": 57, "duration": 3, "velocity": 61}, {"time": 4670, "pitch": 62, "duration": 3, "velocity": 56}, {"time": 4670, "pitch": 65, "duration": 3, "velocity": 58}, {"time": 4673, "pitch": 45, "duration": 9, "velocity": 90}, {"time": 4679, "pitch": 57, "duration": 2, "velocity": 90}, {"time": 4679, "pitch": 62, "duration": 3, "velocity": 99}, {"time": 4679, "pitch": 65, "duration": 1, "velocity": 69}, {"time": 4685, "pitch": 50, "duration": 9, "velocity": 96}, {"time": 4691, "pitch": 57, "duration": 2, "velocity": 81}, {"time": 4691, "pitch": 62, "duration": 1, "velocity": 88}, {"time": 4691, "pitch": 65, "duration": 1, "velocity": 70}, {"time": 4694, "pitch": 57, "duration": 2, "velocity": 70}, {"time": 4694, "pitch": 62, "duration": 2, "velocity": 82}, {"time": 4694, "pitch": 65, "duration": 3, "velocity": 72}, {"time": 4697, "pitch": 45, "duration": 9, "velocity": 95}, {"time": 4703, "pitch": 57, "duration": 2, "velocity": 86}, {"time": 4703, "pitch": 62, "duration": 1, "velocity": 88}, {"time": 4703, "pitch": 65, "duration": 2, "velocity": 81}, {"time": 4709, "pitch": 50, "duration": 10, "velocity": 93}, {"time": 4715, "pitch": 57, "duration": 2, "velocity": 72}, {"time": 4715, "pitch": 62, "duration": 2, "velocity": 83}, {"time": 4715, "pitch": 65, "duration": 2, "velocity": 73}, {"time": 4718, "pitch": 57, "duration": 3, "velocity": 64}, {"time": 4718, "pitch": 62, "duration": 3, "velocity": 69}, {"time": 4718, "pitch": 65, "duration": 3, "velocity": 66}, {"time": 4721, "pitch": 45, "duration": 8, "velocity": 93}, {"time": 4727, "pitch": 57, "duration": 2, "velocity": 86}, {"time": 4727, "pitch": 62, "duration": 2, "velocity": 93}, {"time": 4727, "pitch": 65, "duration": 2, "velocity": 83}, {"time": 4733, "pitch": 43, "duration": 9, "velocity": 102}, {"time": 4739, "pitch": 55, "duration": 2, "velocity": 78}, {"time": 4739, "pitch": 59, "duration": 2, "velocity": 89}, {"time": 4739, "pitch": 62, "duration": 2, "velocity": 78}, {"time": 4739, "pitch": 67, "duration": 1, "velocity": 52}, {"time": 4742, "pitch": 55, "duration": 3, "velocity": 63}, {"time": 4742, "pitch": 59, "duration": 3, "velocity": 69}, {"time": 4742, "pitch": 62, "duration": 3, "velocity": 69}, {"time": 4742, "pitch": 67, "duration": 3, "velocity": 65}, {"time": 4745, "pitch": 38, "duration": 8, "velocity": 76}, {"time": 4751, "pitch": 55, "duration": 2, "velocity": 77}, {"time": 4751, "pitch": 59, "duration": 2, "velocity": 86}, {"time": 4751, "pitch": 62, "duration": 2, "velocity": 85}, {"time": 4751, "pitch": 67, "duration": 2, "velocity": 79}, {"time": 4757, "pitch": 43, "duration": 10, "velocity": 93}, {"time": 4763, "pitch": 55, "duration": 2, "velocity": 83}, {"time": 4763, "pitch": 59, "duration": 2, "velocity": 92}, {"time": 4763, "pitch": 62, "duration": 2, "velocity": 85}, {"time": 4763, "pitch": 67, "duration": 1, "velocity": 65}, {"time": 4766, "pitch": 55, "duration": 3, "velocity": 59}, {"time": 4766, "pitch": 59, "duration": 2, "velocity": 66}, {"time": 4766, "pitch": 62, "duration": 3, "velocity": 68}, {"time": 4766, "pitch": 67, "duration": 3, "velocity": 72}, {"time": 4769, "pitch": 38, "duration": 8, "velocity": 82}, {"time": 4775, "pitch": 55, "duration": 2, "velocity": 77}, {"time": 4775, "pitch": 59, "duration": 2, "velocity": 85}, {"time": 4775, "pitch": 62, "duration": 2, "velocity": 81}, {"time": 4775, "pitch": 67, "duration": 2, "velocity": 75}, {"time": 4781, "pitch": 48, "duration": 9, "velocity": 102}, {"time": 4787, "pitch": 55, "duration": 2, "velocity": 85}, {"time": 4787, "pitch": 60, "duration": 2, "velocity": 97}, {"time": 4787, "pitch": 64, "duration": 2, "velocity": 90}, {"time": 4790, "pitch": 55, "duration": 2, "velocity": 76}, {"time": 4790, "pitch": 60, "duration": 3, "velocity": 86}, {"time": 4790, "pitch": 64, "duration": 2, "velocity": 86}, {"time": 4793, "pitch": 43, "duration": 10, "velocity": 93}, {"time": 4799, "pitch": 55, "duration": 1, "velocity": 100}, {"time": 4799, "pitch": 60, "duration": 2, "velocity": 117}, {"time": 4799, "pitch": 64, "duration": 2, "velocity": 107}, {"time": 4805, "pitch": 48, "duration": 12, "velocity": 92}, {"time": 4811, "pitch": 55, "duration": 1, "velocity": 93}, {"time": 4811, "pitch": 60, "duration": 1, "velocity": 96}, {"time": 4811, "pitch": 64, "duration": 2, "velocity": 93}, {"time": 4814, "pitch": 55, "duration": 3, "velocity": 65}, {"time": 4814, "pitch": 60, "duration": 3, "velocity": 72}, {"time": 4814, "pitch": 64, "duration": 3, "velocity": 72}, {"time": 4817, "pitch": 43, "duration": 9, "velocity": 92}, {"time": 4823, "pitch": 55, "duration": 1, "velocity": 93}, {"time": 4823, "pitch": 60, "duration": 1, "velocity": 102}, {"time": 4823, "pitch": 64, "duration": 2, "velocity": 96}, {"time": 4829, "pitch": 45, "duration": 10, "velocity": 76}, {"time": 4835, "pitch": 57, "duration": 2, "velocity": 95}, {"time": 4835, "pitch": 60, "duration": 2, "velocity": 112}, {"time": 4835, "pitch": 64, "duration": 2, "velocity": 95}, {"time": 4838, "pitch": 57, "duration": 3, "velocity": 71}, {"time": 4838, "pitch": 60, "duration": 3, "velocity": 67}, {"time": 4838, "pitch": 64, "duration": 3, "velocity": 67}, {"time": 4841, "pitch": 40, "duration": 10, "velocity": 81}, {"time": 4847, "pitch": 57, "duration": 2, "velocity": 95}, {"time": 4847, "pitch": 60, "duration": 2, "velocity": 112}, {"time": 4847, "pitch": 64, "duration": 2, "velocity": 95}, {"time": 4853, "pitch": 45, "duration": 13, "velocity": 97}, {"time": 4859, "pitch": 57, "duration": 1, "velocity": 89}, {"time": 4859, "pitch": 60, "duration": 1, "velocity": 83}, {"time": 4859, "pitch": 64, "duration": 1, "velocity": 86}, {"time": 4862, "pitch": 57, "duration": 3, "velocity": 59}, {"time": 4862, "pitch": 60, "duration": 3, "velocity": 77}, {"time": 4862, "pitch": 64, "duration": 3, "velocity": 70}, {"time": 4865, "pitch": 40, "duration": 8, "velocity": 86}, {"time": 4871, "pitch": 57, "duration": 2, "velocity": 99}, {"time": 4871, "pitch": 60, "duration": 2, "velocity": 102}, {"time": 4871, "pitch": 64, "duration": 2, "velocity": 96}, {"time": 4877, "pitch": 48, "duration": 11, "velocity": 90}, {"time": 4883, "pitch": 55, "duration": 1, "velocity": 79}, {"time": 4883, "pitch": 60, "duration": 1, "velocity": 90}, {"time": 4883, "pitch": 64, "duration": 1, "velocity": 83}, {"time": 4886, "pitch": 55, "duration": 2, "velocity": 60}, {"time": 4886, "pitch": 60, "duration": 3, "velocity": 75}, {"time": 4886, "pitch": 64, "duration": 3, "velocity": 69}, {"time": 4889, "pitch": 43, "duration": 10, "velocity": 92}, {"time": 4895, "pitch": 55, "duration": 2, "velocity": 93}, {"time": 4895, "pitch": 60, "duration": 2, "velocity": 107}, {"time": 4895, "pitch": 64, "duration": 2, "velocity": 93}, {"time": 4901, "pitch": 48, "duration": 12, "velocity": 96}, {"time": 4907, "pitch": 55, "duration": 1, "velocity": 82}, {"time": 4907, "pitch": 60, "duration": 1, "velocity": 99}, {"time": 4907, "pitch": 64, "duration": 2, "velocity": 90}, {"time": 4910, "pitch": 55, "duration": 3, "velocity": 66}, {"time": 4910, "pitch": 60, "duration": 3, "velocity": 79}, {"time": 4910, "pitch": 64, "duration": 3, "velocity": 72}, {"time": 4913, "pitch": 43, "duration": 10, "velocity": 92}, {"time": 4919, "pitch": 55, "duration": 1, "velocity": 85}, {"time": 4919, "pitch": 60, "duration": 2, "velocity": 102}, {"time": 4919, "pitch": 64, "duration": 2, "velocity": 88}, {"time": 4925, "pitch": 45, "duration": 12, "velocity": 93}, {"time": 4931, "pitch": 57, "duration": 2, "velocity": 90}, {"time": 4931, "pitch": 60, "duration": 2, "velocity": 97}, {"time": 4931, "pitch": 64, "duration": 2, "velocity": 90}, {"time": 4934, "pitch": 57, "duration": 3, "velocity": 62}, {"time": 4934, "pitch": 60, "duration": 3, "velocity": 65}, {"time": 4934, "pitch": 64, "duration": 3, "velocity": 66}, {"time": 4937, "pitch": 40, "duration": 11, "velocity": 85}, {"time": 4943, "pitch": 57, "duration": 2, "velocity": 92}, {"time": 4943, "pitch": 60, "duration": 2, "velocity": 97}, {"time": 4943, "pitch": 64, "duration": 2, "velocity": 90}, {"time": 4949, "pitch": 45, "duration": 13, "velocity": 90}, {"time": 4955, "pitch": 57, "duration": 2, "velocity": 81}, {"time": 4955, "pitch": 60, "duration": 2, "velocity": 88}, {"time": 4955, "pitch": 64, "duration": 2, "velocity": 78}, {"time": 4958, "pitch": 57, "duration": 3, "velocity": 63}, {"time": 4958, "pitch": 60, "duration": 3, "velocity": 67}, {"time": 4958, "pitch": 64, "duration": 3, "velocity": 72}, {"time": 4961, "pitch": 40, "duration": 10, "velocity": 82}, {"time": 4967, "pitch": 57, "duration": 2, "velocity": 89}, {"time": 4967, "pitch": 60, "duration": 2, "velocity": 90}, {"time": 4967, "pitch": 64, "duration": 3, "velocity": 83}, {"time": 4973, "pitch": 50, "duration": 11, "velocity": 85}, {"time": 4979, "pitch": 57, "duration": 2, "velocity": 82}, {"time": 4979, "pitch": 62, "duration": 2, "velocity": 96}, {"time": 4979, "pitch": 65, "duration": 2, "velocity": 86}, {"time": 4982, "pitch": 57, "duration": 2, "velocity": 68}, {"time": 4982, "pitch": 62, "duration": 3, "velocity": 76}, {"time": 4982, "pitch": 65, "duration": 3, "velocity": 72}, {"time": 4985, "pitch": 45, "duration": 11, "velocity": 90}, {"time": 4991, "pitch": 57, "duration": 2, "velocity": 97}, {"time": 4991, "pitch": 62, "duration": 2, "velocity": 100}, {"time": 4991, "pitch": 65, "duration": 2, "velocity": 96}, {"time": 4997, "pitch": 50, "duration": 12, "velocity": 73}, {"time": 5003, "pitch": 57, "duration": 2, "velocity": 97}, {"time": 5003, "pitch": 62, "duration": 2, "velocity": 107}, {"time": 5003, "pitch": 65, "duration": 2, "velocity": 97}, {"time": 5006, "pitch": 57, "duration": 3, "velocity": 69}, {"time": 5006, "pitch": 62, "duration": 3, "velocity": 63}, {"time": 5006, "pitch": 65, "duration": 3, "velocity": 65}, {"time": 5009, "pitch": 45, "duration": 9, "velocity": 89}, {"time": 5015, "pitch": 57, "duration": 3, "velocity": 86}, {"time": 5015, "pitch": 62, "duration": 3, "velocity": 102}, {"time": 5015, "pitch": 65, "duration": 2, "velocity": 90}, {"time": 5021, "pitch": 45, "duration": 12, "velocity": 107}, {"time": 5027, "pitch": 57, "duration": 1, "velocity": 83}, {"time": 5027, "pitch": 60, "duration": 2, "velocity": 81}, {"time": 5030, "pitch": 57, "duration": 3, "velocity": 71}, {"time": 5030, "pitch": 60, "duration": 4, "velocity": 72}, {"time": 5033, "pitch": 40, "duration": 11, "velocity": 78}, {"time": 5039, "pitch": 52, "duration": 2, "velocity": 93}, {"time": 5039, "pitch": 57, "duration": 2, "velocity": 97}, {"time": 5039, "pitch": 60, "duration": 2, "velocity": 93}, {"time": 5045, "pitch": 45, "duration": 12, "velocity": 67}, {"time": 5051, "pitch": 57, "duration": 3, "velocity": 79}, {"time": 5051, "pitch": 60, "duration": 2, "velocity": 97}, {"time": 5051, "pitch": 64, "duration": 2, "velocity": 92}, {"time": 5054, "pitch": 57, "duration": 3, "velocity": 42}, {"time": 5054, "pitch": 60, "duration": 3, "velocity": 63}, {"time": 5054, "pitch": 64, "duration": 3, "velocity": 52}, {"time": 5057, "pitch": 40, "duration": 8, "velocity": 83}, {"time": 5063, "pitch": 57, "duration": 2, "velocity": 90}, {"time": 5063, "pitch": 60, "duration": 1, "velocity": 93}, {"time": 5063, "pitch": 64, "duration": 2, "velocity": 86}, {"time": 5069, "pitch": 50, "duration": 11, "velocity": 89}, {"time": 5075, "pitch": 57, "duration": 2, "velocity": 93}, {"time": 5075, "pitch": 62, "duration": 1, "velocity": 97}, {"time": 5075, "pitch": 65, "duration": 1, "velocity": 90}, {"time": 5078, "pitch": 57, "duration": 3, "velocity": 68}, {"time": 5078, "pitch": 62, "duration": 3, "velocity": 74}, {"time": 5078, "pitch": 65, "duration": 3, "velocity": 76}, {"time": 5081, "pitch": 45, "duration": 11, "velocity": 92}, {"time": 5087, "pitch": 57, "duration": 2, "velocity": 95}, {"time": 5087, "pitch": 62, "duration": 2, "velocity": 97}, {"time": 5087, "pitch": 65, "duration": 2, "velocity": 90}, {"time": 5093, "pitch": 50, "duration": 13, "velocity": 73}, {"time": 5099, "pitch": 57, "duration": 2, "velocity": 92}, {"time": 5099, "pitch": 62, "duration": 2, "velocity": 97}, {"time": 5099, "pitch": 65, "duration": 2, "velocity": 99}, {"time": 5102, "pitch": 57, "duration": 3, "velocity": 55}, {"time": 5102, "pitch": 62, "duration": 3, "velocity": 61}, {"time": 5102, "pitch": 65, "duration": 3, "velocity": 66}, {"time": 5105, "pitch": 45, "duration": 8, "velocity": 88}, {"time": 5111, "pitch": 57, "duration": 2, "velocity": 96}, {"time": 5111, "pitch": 62, "duration": 3, "velocity": 100}, {"time": 5111, "pitch": 65, "duration": 2, "velocity": 92}, {"time": 5117, "pitch": 43, "duration": 11, "velocity": 96}, {"time": 5123, "pitch": 55, "duration": 1, "velocity": 96}, {"time": 5123, "pitch": 59, "duration": 1, "velocity": 97}, {"time": 5123, "pitch": 62, "duration": 1, "velocity": 92}, {"time": 5126, "pitch": 55, "duration": 3, "velocity": 66}, {"time": 5126, "pitch": 59, "duration": 2, "velocity": 68}, {"time": 5126, "pitch": 62, "duration": 2, "velocity": 69}, {"time": 5129, "pitch": 38, "duration": 11, "velocity": 89}, {"time": 5135, "pitch": 55, "duration": 1, "velocity": 97}, {"time": 5135, "pitch": 59, "duration": 1, "velocity": 99}, {"time": 5135, "pitch": 62, "duration": 2, "velocity": 97}, {"time": 5141, "pitch": 43, "duration": 12, "velocity": 90}, {"time": 5147, "pitch": 55, "duration": 2, "velocity": 88}, {"time": 5147, "pitch": 59, "duration": 1, "velocity": 92}, {"time": 5147, "pitch": 62, "duration": 2, "velocity": 89}, {"time": 5150, "pitch": 55, "duration": 3, "velocity": 74}, {"time": 5150, "pitch": 59, "duration": 2, "velocity": 81}, {"time": 5150, "pitch": 62, "duration": 3, "velocity": 86}, {"time": 5153, "pitch": 38, "duration": 8, "velocity": 86}, {"time": 5159, "pitch": 55, "duration": 2, "velocity": 97}, {"time": 5159, "pitch": 59, "duration": 2, "velocity": 97}, {"time": 5159, "pitch": 62, "duration": 3, "velocity": 95}, {"time": 5165, "pitch": 48, "duration": 11, "velocity": 97}, {"time": 5171, "pitch": 55, "duration": 2, "velocity": 90}, {"time": 5171, "pitch": 60, "duration": 2, "velocity": 97}, {"time": 5171, "pitch": 64, "duration": 2, "velocity": 92}, {"time": 5174, "pitch": 55, "duration": 3, "velocity": 69}, {"time": 5174, "pitch": 60, "duration": 3, "velocity": 79}, {"time": 5174, "pitch": 64, "duration": 3, "velocity": 73}, {"time": 5177, "pitch": 43, "duration": 11, "velocity": 92}, {"time": 5183, "pitch": 55, "duration": 2, "velocity": 96}, {"time": 5183, "pitch": 60, "duration": 2, "velocity": 102}, {"time": 5183, "pitch": 64, "duration": 2, "velocity": 92}, {"time": 5189, "pitch": 48, "duration": 12, "velocity": 76}, {"time": 5195, "pitch": 55, "duration": 1, "velocity": 88}, {"time": 5195, "pitch": 60, "duration": 2, "velocity": 102}, {"time": 5195, "pitch": 64, "duration": 2, "velocity": 95}, {"time": 5198, "pitch": 55, "duration": 2, "velocity": 62}, {"time": 5198, "pitch": 60, "duration": 3, "velocity": 59}, {"time": 5198, "pitch": 64, "duration": 3, "velocity": 62}, {"time": 5201, "pitch": 43, "duration": 10, "velocity": 89}, {"time": 5207, "pitch": 60, "duration": 2, "velocity": 99}, {"time": 5207, "pitch": 64, "duration": 2, "velocity": 88}, {"time": 5213, "pitch": 45, "duration": 12, "velocity": 95}, {"time": 5219, "pitch": 57, "duration": 1, "velocity": 97}, {"time": 5219, "pitch": 60, "duration": 2, "velocity": 97}, {"time": 5219, "pitch": 64, "duration": 2, "velocity": 90}, {"time": 5222, "pitch": 57, "duration": 2, "velocity": 59}, {"time": 5222, "pitch": 60, "duration": 3, "velocity": 69}, {"time": 5222, "pitch": 64, "duration": 3, "velocity": 70}, {"time": 5225, "pitch": 40, "duration": 11, "velocity": 81}, {"time": 5231, "pitch": 57, "duration": 2, "velocity": 89}, {"time": 5231, "pitch": 60, "duration": 2, "velocity": 93}, {"time": 5231, "pitch": 64, "duration": 2, "velocity": 88}, {"time": 5237, "pitch": 45, "duration": 13, "velocity": 72}, {"time": 5243, "pitch": 57, "duration": 2, "velocity": 95}, {"time": 5243, "pitch": 60, "duration": 2, "velocity": 102}, {"time": 5243, "pitch": 64, "duration": 2, "velocity": 86}, {"time": 5246, "pitch": 57, "duration": 2, "velocity": 52}, {"time": 5246, "pitch": 60, "duration": 3, "velocity": 59}, {"time": 5246, "pitch": 64, "duration": 3, "velocity": 66}, {"time": 5249, "pitch": 40, "duration": 9, "velocity": 75}, {"time": 5255, "pitch": 57, "duration": 2, "velocity": 92}, {"time": 5255, "pitch": 60, "duration": 2, "velocity": 96}, {"time": 5255, "pitch": 64, "duration": 2, "velocity": 85}, {"time": 5261, "pitch": 48, "duration": 12, "velocity": 92}, {"time": 5267, "pitch": 55, "duration": 2, "velocity": 76}, {"time": 5267, "pitch": 60, "duration": 1, "velocity": 90}, {"time": 5267, "pitch": 64, "duration": 2, "velocity": 83}, {"time": 5270, "pitch": 55, "duration": 3, "velocity": 61}, {"time": 5270, "pitch": 60, "duration": 3, "velocity": 65}, {"time": 5270, "pitch": 64, "duration": 3, "velocity": 69}, {"time": 5273, "pitch": 43, "duration": 11, "velocity": 54}, {"time": 5279, "pitch": 55, "duration": 2, "velocity": 95}, {"time": 5279, "pitch": 60, "duration": 2, "velocity": 102}, {"time": 5279, "pitch": 64, "duration": 2, "velocity": 92}, {"time": 5285, "pitch": 48, "duration": 13, "velocity": 74}, {"time": 5291, "pitch": 55, "duration": 1, "velocity": 74}, {"time": 5291, "pitch": 60, "duration": 1, "velocity": 90}, {"time": 5291, "pitch": 64, "duration": 1, "velocity": 78}, {"time": 5294, "pitch": 55, "duration": 3, "velocity": 70}, {"time": 5294, "pitch": 60, "duration": 3, "velocity": 76}, {"time": 5294, "pitch": 64, "duration": 3, "velocity": 73}, {"time": 5297, "pitch": 43, "duration": 9, "velocity": 89}, {"time": 5303, "pitch": 60, "duration": 2, "velocity": 99}, {"time": 5303, "pitch": 64, "duration": 3, "velocity": 88}, {"time": 5309, "pitch": 45, "duration": 12, "velocity": 90}, {"time": 5315, "pitch": 57, "duration": 1, "velocity": 76}, {"time": 5315, "pitch": 60, "duration": 1, "velocity": 83}, {"time": 5315, "pitch": 64, "duration": 2, "velocity": 73}, {"time": 5318, "pitch": 57, "duration": 3, "velocity": 66}, {"time": 5318, "pitch": 60, "duration": 3, "velocity": 75}, {"time": 5318, "pitch": 64, "duration": 3, "velocity": 72}, {"time": 5321, "pitch": 40, "duration": 11, "velocity": 79}, {"time": 5327, "pitch": 57, "duration": 2, "velocity": 88}, {"time": 5327, "pitch": 60, "duration": 1, "velocity": 97}, {"time": 5327, "pitch": 64, "duration": 2, "velocity": 89}, {"time": 5333, "pitch": 45, "duration": 12, "velocity": 75}, {"time": 5339, "pitch": 57, "duration": 1, "velocity": 89}, {"time": 5339, "pitch": 60, "duration": 1, "velocity": 93}, {"time": 5339, "pitch": 64, "duration": 2, "velocity": 83}, {"time": 5342, "pitch": 57, "duration": 3, "velocity": 55}, {"time": 5342, "pitch": 60, "duration": 3, "velocity": 60}, {"time": 5342, "pitch": 64, "duration": 3, "velocity": 66}, {"time": 5345, "pitch": 40, "duration": 10, "velocity": 83}, {"time": 5351, "pitch": 57, "duration": 2, "velocity": 83}, {"time": 5351, "pitch": 60, "duration": 2, "velocity": 92}, {"time": 5351, "pitch": 64, "duration": 2, "velocity": 83}, {"time": 5357, "pitch": 50, "duration": 12, "velocity": 75}, {"time": 5363, "pitch": 57, "duration": 2, "velocity": 86}, {"time": 5363, "pitch": 62, "duration": 2, "velocity": 96}, {"time": 5363, "pitch": 65, "duration": 1, "velocity": 79}, {"time": 5366, "pitch": 57, "duration": 3, "velocity": 61}, {"time": 5366, "pitch": 62, "duration": 3, "velocity": 71}, {"time": 5366, "pitch": 65, "duration": 3, "velocity": 66}, {"time": 5369, "pitch": 45, "duration": 11, "velocity": 74}, {"time": 5375, "pitch": 57, "duration": 2, "velocity": 92}, {"time": 5375, "pitch": 62, "duration": 2, "velocity": 99}, {"time": 5375, "pitch": 65, "duration": 2, "velocity": 92}, {"time": 5381, "pitch": 50, "duration": 13, "velocity": 74}, {"time": 5387, "pitch": 57, "duration": 1, "velocity": 90}, {"time": 5387, "pitch": 62, "duration": 1, "velocity": 93}, {"time": 5387, "pitch": 65, "duration": 1, "velocity": 82}, {"time": 5390, "pitch": 57, "duration": 3, "velocity": 69}, {"time": 5390, "pitch": 62, "duration": 3, "velocity": 65}, {"time": 5390, "pitch": 65, "duration": 3, "velocity": 64}, {"time": 5393, "pitch": 45, "duration": 9, "velocity": 88}, {"time": 5399, "pitch": 57, "duration": 2, "velocity": 89}, {"time": 5399, "pitch": 62, "duration": 2, "velocity": 97}, {"time": 5399, "pitch": 65, "duration": 2, "velocity": 90}, {"time": 5405, "pitch": 50, "duration": 13, "velocity": 82}, {"time": 5411, "pitch": 57, "duration": 2, "velocity": 85}, {"time": 5411, "pitch": 62, "duration": 2, "velocity": 82}, {"time": 5411, "pitch": 65, "duration": 2, "velocity": 72}, {"time": 5414, "pitch": 57, "duration": 3, "velocity": 63}, {"time": 5414, "pitch": 62, "duration": 2, "velocity": 69}, {"time": 5414, "pitch": 65, "duration": 3, "velocity": 68}, {"time": 5417, "pitch": 45, "duration": 9, "velocity": 81}, {"time": 5423, "pitch": 57, "duration": 2, "velocity": 95}, {"time": 5423, "pitch": 62, "duration": 2, "velocity": 97}, {"time": 5423, "pitch": 65, "duration": 2, "velocity": 89}, {"time": 5429, "pitch": 50, "duration": 12, "velocity": 82}, {"time": 5435, "pitch": 57, "duration": 2, "velocity": 88}, {"time": 5435, "pitch": 62, "duration": 1, "velocity": 95}, {"time": 5435, "pitch": 65, "duration": 1, "velocity": 82}, {"time": 5438, "pitch": 57, "duration": 3, "velocity": 61}, {"time": 5438, "pitch": 62, "duration": 3, "velocity": 56}, {"time": 5438, "pitch": 65, "duration": 3, "velocity": 58}, {"time": 5441, "pitch": 45, "duration": 9, "velocity": 90}, {"time": 5447, "pitch": 57, "duration": 2, "velocity": 90}, {"time": 5447, "pitch": 62, "duration": 3, "velocity": 99}, {"time": 5447, "pitch": 65, "duration": 1, "velocity": 69}, {"time": 5453, "pitch": 43, "duration": 9, "velocity": 97}, {"time": 5459, "pitch": 55, "duration": 7, "velocity": 89}, {"time": 5459, "pitch": 59, "duration": 1, "velocity": 97}, {"time": 5459, "pitch": 62, "duration": 1, "velocity": 92}, {"time": 5462, "pitch": 59, "duration": 4, "velocity": 59}, {"time": 5462, "pitch": 62, "duration": 4, "velocity": 66}, {"time": 5462, "pitch": 67, "duration": 5, "velocity": 71}, {"time": 5465, "pitch": 38, "duration": 8, "velocity": 83}, {"time": 5471, "pitch": 55, "duration": 2, "velocity": 82}, {"time": 5471, "pitch": 59, "duration": 2, "velocity": 89}, {"time": 5471, "pitch": 62, "duration": 2, "velocity": 92}, {"time": 5471, "pitch": 67, "duration": 2, "velocity": 77}, {"time": 5477, "pitch": 43, "duration": 9, "velocity": 92}, {"time": 5483, "pitch": 55, "duration": 2, "velocity": 77}, {"time": 5483, "pitch": 59, "duration": 2, "velocity": 92}, {"time": 5483, "pitch": 62, "duration": 2, "velocity": 86}, {"time": 5483, "pitch": 67, "duration": 1, "velocity": 63}, {"time": 5486, "pitch": 55, "duration": 3, "velocity": 52}, {"time": 5486, "pitch": 59, "duration": 3, "velocity": 65}, {"time": 5486, "pitch": 62, "duration": 3, "velocity": 58}, {"time": 5486, "pitch": 67, "duration": 3, "velocity": 63}, {"time": 5489, "pitch": 38, "duration": 6, "velocity": 83}, {"time": 5495, "pitch": 55, "duration": 2, "velocity": 82}, {"time": 5495, "pitch": 59, "duration": 2, "velocity": 90}, {"time": 5495, "pitch": 62, "duration": 2, "velocity": 89}, {"time": 5501, "pitch": 48, "duration": 11, "velocity": 86}, {"time": 5507, "pitch": 55, "duration": 1, "velocity": 81}, {"time": 5507, "pitch": 60, "duration": 2, "velocity": 90}, {"time": 5507, "pitch": 64, "duration": 2, "velocity": 83}, {"time": 5510, "pitch": 55, "duration": 3, "velocity": 66}, {"time": 5510, "pitch": 60, "duration": 3, "velocity": 74}, {"time": 5510, "pitch": 64, "duration": 3, "velocity": 74}, {"time": 5513, "pitch": 43, "duration": 9, "velocity": 92}, {"time": 5519, "pitch": 55, "duration": 1, "velocity": 92}, {"time": 5519, "pitch": 60, "duration": 2, "velocity": 96}, {"time": 5519, "pitch": 64, "duration": 2, "velocity": 90}, {"time": 5525, "pitch": 48, "duration": 10, "velocity": 92}, {"time": 5531, "pitch": 55, "duration": 1, "velocity": 90}, {"time": 5531, "pitch": 60, "duration": 2, "velocity": 97}, {"time": 5531, "pitch": 64, "duration": 1, "velocity": 95}, {"time": 5534, "pitch": 55, "duration": 2, "velocity": 71}, {"time": 5534, "pitch": 60, "duration": 2, "velocity": 78}, {"time": 5534, "pitch": 64, "duration": 3, "velocity": 78}, {"time": 5537, "pitch": 43, "duration": 8, "velocity": 93}, {"time": 5543, "pitch": 55, "duration": 2, "velocity": 88}, {"time": 5543, "pitch": 60, "duration": 2, "velocity": 96}, {"time": 5543, "pitch": 64, "duration": 2, "velocity": 88}, {"time": 5549, "pitch": 50, "duration": 12, "velocity": 75}, {"time": 5555, "pitch": 57, "duration": 2, "velocity": 86}, {"time": 5555, "pitch": 62, "duration": 2, "velocity": 96}, {"time": 5555, "pitch": 65, "duration": 1, "velocity": 79}, {"time": 5558, "pitch": 57, "duration": 3, "velocity": 61}, {"time": 5558, "pitch": 62, "duration": 3, "velocity": 71}, {"time": 5558, "pitch": 65, "duration": 3, "velocity": 66}, {"time": 5561, "pitch": 45, "duration": 11, "velocity": 74}, {"time": 5567, "pitch": 57, "duration": 2, "velocity": 92}, {"time": 5567, "pitch": 62, "duration": 2, "velocity": 99}, {"time": 5567, "pitch": 65, "duration": 2, "velocity": 92}, {"time": 5573, "pitch": 50, "duration": 13, "velocity": 74}, {"time": 5579, "pitch": 57, "duration": 1, "velocity": 90}, {"time": 5579, "pitch": 62, "duration": 1, "velocity": 93}, {"time": 5579, "pitch": 65, "duration": 1, "velocity": 82}, {"time": 5582, "pitch": 57, "duration": 3, "velocity": 69}, {"time": 5582, "pitch": 62, "duration": 3, "velocity": 65}, {"time": 5582, "pitch": 65, "duration": 3, "velocity": 64}, {"time": 5585, "pitch": 45, "duration": 9, "velocity": 88}, {"time": 5591, "pitch": 57, "duration": 2, "velocity": 89}, {"time": 5591, "pitch": 62, "duration": 2, "velocity": 97}, {"time": 5591, "pitch": 65, "duration": 2, "velocity": 90}, {"time": 5597, "pitch": 50, "duration": 13, "velocity": 82}, {"time": 5603, "pitch": 57, "duration": 2, "velocity": 85}, {"time": 5603, "pitch": 62, "duration": 2, "velocity": 82}, {"time": 5603, "pitch": 65, "duration": 2, "velocity": 72}, {"time": 5606, "pitch": 57, "duration": 3, "velocity": 63}, {"time": 5606, "pitch": 62, "duration": 2, "velocity": 69}, {"time": 5606, "pitch": 65, "duration": 3, "velocity": 68}, {"time": 5609, "pitch": 45, "duration": 9, "velocity": 81}, {"time": 5615, "pitch": 57, "duration": 2, "velocity": 95}, {"time": 5615, "pitch": 62, "duration": 2, "velocity": 97}, {"time": 5615, "pitch": 65, "duration": 2, "velocity": 89}, {"time": 5621, "pitch": 50, "duration": 12, "velocity": 82}, {"time": 5627, "pitch": 57, "duration": 2, "velocity": 88}, {"time": 5627, "pitch": 62, "duration": 1, "velocity": 95}, {"time": 5627, "pitch": 65, "duration": 1, "velocity": 82}, {"time": 5630, "pitch": 57, "duration": 3, "velocity": 61}, {"time": 5630, "pitch": 62, "duration": 3, "velocity": 56}, {"time": 5630, "pitch": 65, "duration": 3, "velocity": 58}, {"time": 5633, "pitch": 45, "duration": 9, "velocity": 90}, {"time": 5639, "pitch": 57, "duration": 2, "velocity": 90}, {"time": 5639, "pitch": 62, "duration": 3, "velocity": 99}, {"time": 5639, "pitch": 65, "duration": 1, "velocity": 69}, {"time": 5645, "pitch": 43, "duration": 7, "velocity": 102}, {"time": 5645, "pitch": 55, "duration": 8, "velocity": 92}, {"time": 5645, "pitch": 59, "duration": 7, "velocity": 96}, {"time": 5645, "pitch": 62, "duration": 8, "velocity": 95}, {"time": 5669, "pitch": 43, "duration": 5, "velocity": 99}, {"time": 5669, "pitch": 55, "duration": 3, "velocity": 92}, {"time": 5669, "pitch": 59, "duration": 4, "velocity": 99}, {"time": 5669, "pitch": 62, "duration": 3, "velocity": 92}, {"time": 5675, "pitch": 45, "duration": 10, "velocity": 112}, {"time": 5675, "pitch": 57, "duration": 9, "velocity": 88}, {"time": 5675, "pitch": 60, "duration": 10, "velocity": 96}, {"time": 5675, "pitch": 64, "duration": 9, "velocity": 90}, {"time": 5693, "pitch": 48, "duration": 8, "velocity": 88}, {"time": 5699, "pitch": 55, "duration": 2, "velocity": 86}, {"time": 5699, "pitch": 60, "duration": 2, "velocity": 95}, {"time": 5699, "pitch": 64, "duration": 2, "velocity": 90}, {"time": 5702, "pitch": 55, "duration": 3, "velocity": 71}, {"time": 5702, "pitch": 60, "duration": 3, "velocity": 79}, {"time": 5702, "pitch": 64, "duration": 3, "velocity": 81}, {"time": 5705, "pitch": 43, "duration": 8, "velocity": 85}, {"time": 5711, "pitch": 55, "duration": 2, "velocity": 93}, {"time": 5711, "pitch": 60, "duration": 1, "velocity": 99}, {"time": 5711, "pitch": 64, "duration": 2, "velocity": 89}, {"time": 5717, "pitch": 48, "duration": 12, "velocity": 76}, {"time": 5723, "pitch": 55, "duration": 2, "velocity": 89}, {"time": 5723, "pitch": 60, "duration": 1, "velocity": 96}, {"time": 5723, "pitch": 64, "duration": 2, "velocity": 92}, {"time": 5726, "pitch": 55, "duration": 3, "velocity": 52}, {"time": 5726, "pitch": 60, "duration": 3, "velocity": 63}, {"time": 5726, "pitch": 64, "duration": 3, "velocity": 63}, {"time": 5729, "pitch": 43, "duration": 9, "velocity": 69}, {"time": 5735, "pitch": 55, "duration": 2, "velocity": 89}, {"time": 5735, "pitch": 60, "duration": 2, "velocity": 96}, {"time": 5735, "pitch": 64, "duration": 2, "velocity": 89}, {"time": 5741, "pitch": 45, "duration": 9, "velocity": 88}, {"time": 5747, "pitch": 57, "duration": 2, "velocity": 85}, {"time": 5747, "pitch": 60, "duration": 1, "velocity": 97}, {"time": 5747, "pitch": 64, "duration": 2, "velocity": 88}, {"time": 5750, "pitch": 57, "duration": 4, "velocity": 58}, {"time": 5750, "pitch": 60, "duration": 4, "velocity": 69}, {"time": 5750, "pitch": 64, "duration": 4, "velocity": 71}, {"time": 5753, "pitch": 40, "duration": 10, "velocity": 76}, {"time": 5759, "pitch": 57, "duration": 2, "velocity": 78}, {"time": 5759, "pitch": 60, "duration": 2, "velocity": 92}, {"time": 5759, "pitch": 64, "duration": 2, "velocity": 82}, {"time": 5765, "pitch": 45, "duration": 12, "velocity": 88}, {"time": 5771, "pitch": 57, "duration": 1, "velocity": 90}, {"time": 5771, "pitch": 60, "duration": 1, "velocity": 85}, {"time": 5771, "pitch": 64, "duration": 1, "velocity": 76}, {"time": 5774, "pitch": 57, "duration": 3, "velocity": 66}, {"time": 5774, "pitch": 60, "duration": 3, "velocity": 71}, {"time": 5774, "pitch": 64, "duration": 3, "velocity": 71}, {"time": 5777, "pitch": 40, "duration": 8, "velocity": 74}, {"time": 5783, "pitch": 57, "duration": 2, "velocity": 89}, {"time": 5783, "pitch": 60, "duration": 2, "velocity": 96}, {"time": 5783, "pitch": 64, "duration": 2, "velocity": 89}, {"time": 5789, "pitch": 50, "duration": 12, "velocity": 88}, {"time": 5795, "pitch": 57, "duration": 2, "velocity": 81}, {"time": 5795, "pitch": 62, "duration": 2, "velocity": 92}, {"time": 5795, "pitch": 65, "duration": 2, "velocity": 78}, {"time": 5798, "pitch": 57, "duration": 3, "velocity": 61}, {"time": 5798, "pitch": 62, "duration": 3, "velocity": 63}, {"time": 5798, "pitch": 65, "duration": 3, "velocity": 64}, {"time": 5801, "pitch": 45, "duration": 10, "velocity": 72}, {"time": 5807, "pitch": 57, "duration": 2, "velocity": 86}, {"time": 5807, "pitch": 62, "duration": 2, "velocity": 96}, {"time": 5807, "pitch": 65, "duration": 2, "velocity": 85}, {"time": 5810, "pitch": 50, "duration": 13, "velocity": 63}, {"time": 5819, "pitch": 57, "duration": 2, "velocity": 89}, {"time": 5819, "pitch": 62, "duration": 1, "velocity": 95}, {"time": 5819, "pitch": 65, "duration": 1, "velocity": 83}, {"time": 5822, "pitch": 57, "duration": 3, "velocity": 65}, {"time": 5822, "pitch": 62, "duration": 3, "velocity": 72}, {"time": 5822, "pitch": 65, "duration": 3, "velocity": 70}, {"time": 5825, "pitch": 45, "duration": 8, "velocity": 71}, {"time": 5831, "pitch": 57, "duration": 2, "velocity": 95}, {"time": 5831, "pitch": 62, "duration": 2, "velocity": 100}, {"time": 5831, "pitch": 65, "duration": 1, "velocity": 81}, {"time": 5837, "pitch": 43, "duration": 12, "velocity": 88}, {"time": 5843, "pitch": 55, "duration": 2, "velocity": 83}, {"time": 5843, "pitch": 59, "duration": 1, "velocity": 90}, {"time": 5843, "pitch": 62, "duration": 2, "velocity": 85}, {"time": 5846, "pitch": 55, "duration": 3, "velocity": 55}, {"time": 5846, "pitch": 59, "duration": 3, "velocity": 61}, {"time": 5846, "pitch": 62, "duration": 3, "velocity": 64}, {"time": 5849, "pitch": 38, "duration": 10, "velocity": 77}, {"time": 5855, "pitch": 55, "duration": 2, "velocity": 92}, {"time": 5855, "pitch": 59, "duration": 2, "velocity": 97}, {"time": 5855, "pitch": 62, "duration": 2, "velocity": 89}, {"time": 5858, "pitch": 43, "duration": 12, "velocity": 61}, {"time": 5867, "pitch": 55, "duration": 2, "velocity": 70}, {"time": 5867, "pitch": 59, "duration": 2, "velocity": 78}, {"time": 5867, "pitch": 62, "duration": 2, "velocity": 78}, {"time": 5870, "pitch": 38, "duration": 7, "velocity": 88}, {"time": 5870, "pitch": 55, "duration": 3, "velocity": 54}, {"time": 5870, "pitch": 59, "duration": 3, "velocity": 65}, {"time": 5870, "pitch": 62, "duration": 3, "velocity": 62}, {"time": 5879, "pitch": 55, "duration": 2, "velocity": 89}, {"time": 5879, "pitch": 59, "duration": 2, "velocity": 96}, {"time": 5879, "pitch": 62, "duration": 2, "velocity": 83}, {"time": 5885, "pitch": 48, "duration": 110, "velocity": 117}, {"time": 5885, "pitch": 55, "duration": 110, "velocity": 89}, {"time": 5885, "pitch": 60, "duration": 111, "velocity": 107}, {"time": 5885, "pitch": 64, "duration": 111, "velocity": 99}], "annotations": [{"time": 5907, "annotation": {"number": 64, "value": 127}, "group": "control_change"}, {"time": 5913, "annotation": {"number": 64, "value": 0}, "group": "control_change"}]}]}