{"metadata": {"schema_version": "0.2", "title": "None", "source_filename": "356.mid", "source_format": "midi"}, "resolution": 12, "tempos": [{"time": 0, "qpm": 72.00011520018433}], "time_signatures": [{"time": 0, "numerator": 1, "denominator": 4}], "tracks": [{"program": 4, "is_drum": false, "name": "MELODY", "notes": [{"time": 164, "pitch": 73, "duration": 6, "velocity": 127}, {"time": 170, "pitch": 72, "duration": 3, "velocity": 86}, {"time": 173, "pitch": 68, "duration": 9, "velocity": 96}, {"time": 182, "pitch": 70, "duration": 6, "velocity": 100}, {"time": 188, "pitch": 72, "duration": 6, "velocity": 97}, {"time": 194, "pitch": 68, "duration": 1, "velocity": 117}, {"time": 197, "pitch": 68, "duration": 12, "velocity": 112}, {"time": 212, "pitch": 70, "duration": 5, "velocity": 102}, {"time": 218, "pitch": 70, "duration": 10, "velocity": 97}, {"time": 230, "pitch": 68, "duration": 5, "velocity": 107}, {"time": 236, "pitch": 65, "duration": 20, "velocity": 96}, {"time": 260, "pitch": 70, "duration": 4, "velocity": 107}, {"time": 266, "pitch": 68, "duration": 2, "velocity": 89}, {"time": 269, "pitch": 68, "duration": 8, "velocity": 100}, {"time": 278, "pitch": 66, "duration": 6, "velocity": 99}, {"time": 284, "pitch": 68, "duration": 5, "velocity": 107}, {"time": 290, "pitch": 70, "duration": 3, "velocity": 100}, {"time": 293, "pitch": 68, "duration": 5, "velocity": 95}, {"time": 302, "pitch": 65, "duration": 2, "velocity": 93}, {"time": 305, "pitch": 63, "duration": 3, "velocity": 79}, {"time": 308, "pitch": 65, "duration": 8, "velocity": 92}, {"time": 314, "pitch": 65, "duration": 2, "velocity": 92}, {"time": 320, "pitch": 65, "duration": 2, "velocity": 92}, {"time": 323, "pitch": 63, "duration": 9, "velocity": 86}, {"time": 332, "pitch": 65, "duration": 23, "velocity": 90}, {"time": 356, "pitch": 73, "duration": 5, "velocity": 122}, {"time": 362, "pitch": 72, "duration": 3, "velocity": 92}, {"time": 365, "pitch": 68, "duration": 7, "velocity": 96}, {"time": 374, "pitch": 70, "duration": 4, "velocity": 107}, {"time": 380, "pitch": 72, "duration": 6, "velocity": 112}, {"time": 386, "pitch": 68, "duration": 2, "velocity": 89}, {"time": 392, "pitch": 68, "duration": 11, "velocity": 102}, {"time": 404, "pitch": 70, "duration": 4, "velocity": 117}, {"time": 410, "pitch": 70, "duration": 3, "velocity": 112}, {"time": 413, "pitch": 68, "duration": 2, "velocity": 99}, {"time": 416, "pitch": 68, "duration": 5, "velocity": 117}, {"time": 422, "pitch": 72, "duration": 5, "velocity": 93}, {"time": 428, "pitch": 65, "duration": 21, "velocity": 96}, {"time": 452, "pitch": 70, "duration": 5, "velocity": 122}, {"time": 458, "pitch": 68, "duration": 2, "velocity": 97}, {"time": 461, "pitch": 68, "duration": 7, "velocity": 107}, {"time": 470, "pitch": 66, "duration": 5, "velocity": 102}, {"time": 476, "pitch": 68, "duration": 5, "velocity": 122}, {"time": 482, "pitch": 70, "duration": 6, "velocity": 99}, {"time": 488, "pitch": 68, "duration": 8, "velocity": 102}, {"time": 494, "pitch": 65, "duration": 3, "velocity": 92}, {"time": 497, "pitch": 63, "duration": 2, "velocity": 89}, {"time": 500, "pitch": 65, "duration": 4, "velocity": 93}, {"time": 506, "pitch": 65, "duration": 3, "velocity": 95}, {"time": 512, "pitch": 65, "duration": 3, "velocity": 89}, {"time": 515, "pitch": 63, "duration": 5, "velocity": 85}, {"time": 524, "pitch": 65, "duration": 12, "velocity": 95}, {"time": 536, "pitch": 61, "duration": 5, "velocity": 112}, {"time": 542, "pitch": 63, "duration": 5, "velocity": 99}, {"time": 548, "pitch": 65, "duration": 16, "velocity": 96}, {"time": 566, "pitch": 63, "duration": 6, "velocity": 97}, {"time": 572, "pitch": 65, "duration": 6, "velocity": 95}, {"time": 584, "pitch": 61, "duration": 5, "velocity": 97}, {"time": 590, "pitch": 68, "duration": 5, "velocity": 102}, {"time": 596, "pitch": 65, "duration": 13, "velocity": 99}, {"time": 614, "pitch": 63, "duration": 6, "velocity": 96}, {"time": 620, "pitch": 65, "duration": 8, "velocity": 92}, {"time": 632, "pitch": 61, "duration": 5, "velocity": 100}, {"time": 638, "pitch": 73, "duration": 4, "velocity": 100}, {"time": 644, "pitch": 73, "duration": 5, "velocity": 107}, {"time": 650, "pitch": 70, "duration": 5, "velocity": 100}, {"time": 656, "pitch": 70, "duration": 6, "velocity": 112}, {"time": 662, "pitch": 68, "duration": 5, "velocity": 97}, {"time": 668, "pitch": 70, "duration": 3, "velocity": 117}, {"time": 674, "pitch": 70, "duration": 4, "velocity": 117}, {"time": 680, "pitch": 70, "duration": 4, "velocity": 117}, {"time": 683, "pitch": 72, "duration": 8, "velocity": 112}, {"time": 692, "pitch": 68, "duration": 24, "velocity": 96}, {"time": 740, "pitch": 77, "duration": 6, "velocity": 102}, {"time": 746, "pitch": 75, "duration": 5, "velocity": 97}, {"time": 752, "pitch": 77, "duration": 5, "velocity": 99}, {"time": 758, "pitch": 80, "duration": 6, "velocity": 102}, {"time": 764, "pitch": 77, "duration": 15, "velocity": 122}, {"time": 788, "pitch": 77, "duration": 6, "velocity": 127}, {"time": 794, "pitch": 72, "duration": 5, "velocity": 89}, {"time": 800, "pitch": 73, "duration": 6, "velocity": 117}, {"time": 806, "pitch": 75, "duration": 6, "velocity": 107}, {"time": 812, "pitch": 73, "duration": 15, "velocity": 112}, {"time": 818, "pitch": 70, "duration": 14, "velocity": 107}, {"time": 836, "pitch": 70, "duration": 5, "velocity": 127}, {"time": 842, "pitch": 78, "duration": 4, "velocity": 127}, {"time": 848, "pitch": 78, "duration": 6, "velocity": 122}, {"time": 854, "pitch": 77, "duration": 5, "velocity": 107}, {"time": 860, "pitch": 75, "duration": 6, "velocity": 122}, {"time": 866, "pitch": 72, "duration": 5, "velocity": 102}, {"time": 872, "pitch": 73, "duration": 6, "velocity": 107}, {"time": 878, "pitch": 75, "duration": 5, "velocity": 122}, {"time": 884, "pitch": 75, "duration": 6, "velocity": 122}, {"time": 890, "pitch": 77, "duration": 1, "velocity": 92}, {"time": 893, "pitch": 77, "duration": 32, "velocity": 102}, {"time": 932, "pitch": 77, "duration": 5, "velocity": 127}, {"time": 938, "pitch": 75, "duration": 5, "velocity": 107}, {"time": 944, "pitch": 77, "duration": 5, "velocity": 107}, {"time": 950, "pitch": 80, "duration": 6, "velocity": 122}, {"time": 956, "pitch": 77, "duration": 16, "velocity": 127}, {"time": 980, "pitch": 77, "duration": 5, "velocity": 127}, {"time": 986, "pitch": 72, "duration": 5, "velocity": 100}, {"time": 992, "pitch": 73, "duration": 1, "velocity": 117}, {"time": 995, "pitch": 73, "duration": 2, "velocity": 112}, {"time": 998, "pitch": 75, "duration": 4, "velocity": 107}, {"time": 1004, "pitch": 70, "duration": 21, "velocity": 122}, {"time": 1028, "pitch": 70, "duration": 5, "velocity": 117}, {"time": 1034, "pitch": 78, "duration": 2, "velocity": 127}, {"time": 1037, "pitch": 78, "duration": 7, "velocity": 96}, {"time": 1046, "pitch": 77, "duration": 5, "velocity": 122}, {"time": 1052, "pitch": 78, "duration": 6, "velocity": 127}, {"time": 1058, "pitch": 77, "duration": 6, "velocity": 112}, {"time": 1064, "pitch": 73, "duration": 5, "velocity": 107}, {"time": 1070, "pitch": 73, "duration": 3, "velocity": 122}, {"time": 1073, "pitch": 75, "duration": 3, "velocity": 112}, {"time": 1076, "pitch": 73, "duration": 31, "velocity": 127}, {"time": 1556, "pitch": 73, "duration": 6, "velocity": 127}, {"time": 1562, "pitch": 72, "duration": 3, "velocity": 86}, {"time": 1565, "pitch": 68, "duration": 9, "velocity": 96}, {"time": 1574, "pitch": 70, "duration": 6, "velocity": 100}, {"time": 1580, "pitch": 72, "duration": 6, "velocity": 97}, {"time": 1586, "pitch": 68, "duration": 1, "velocity": 117}, {"time": 1589, "pitch": 68, "duration": 12, "velocity": 112}, {"time": 1604, "pitch": 70, "duration": 5, "velocity": 102}, {"time": 1610, "pitch": 70, "duration": 10, "velocity": 97}, {"time": 1622, "pitch": 68, "duration": 5, "velocity": 107}, {"time": 1628, "pitch": 65, "duration": 20, "velocity": 96}, {"time": 1652, "pitch": 70, "duration": 4, "velocity": 107}, {"time": 1658, "pitch": 68, "duration": 2, "velocity": 89}, {"time": 1661, "pitch": 68, "duration": 8, "velocity": 100}, {"time": 1670, "pitch": 66, "duration": 6, "velocity": 99}, {"time": 1676, "pitch": 68, "duration": 5, "velocity": 107}, {"time": 1682, "pitch": 70, "duration": 3, "velocity": 100}, {"time": 1685, "pitch": 68, "duration": 5, "velocity": 95}, {"time": 1694, "pitch": 65, "duration": 2, "velocity": 93}, {"time": 1697, "pitch": 63, "duration": 3, "velocity": 79}, {"time": 1700, "pitch": 65, "duration": 8, "velocity": 92}, {"time": 1706, "pitch": 65, "duration": 2, "velocity": 92}, {"time": 1712, "pitch": 65, "duration": 2, "velocity": 92}, {"time": 1715, "pitch": 63, "duration": 9, "velocity": 86}, {"time": 1724, "pitch": 65, "duration": 23, "velocity": 90}, {"time": 1748, "pitch": 73, "duration": 5, "velocity": 122}, {"time": 1754, "pitch": 72, "duration": 3, "velocity": 92}, {"time": 1757, "pitch": 68, "duration": 7, "velocity": 96}, {"time": 1766, "pitch": 70, "duration": 4, "velocity": 107}, {"time": 1772, "pitch": 72, "duration": 6, "velocity": 112}, {"time": 1778, "pitch": 68, "duration": 2, "velocity": 89}, {"time": 1784, "pitch": 68, "duration": 11, "velocity": 102}, {"time": 1796, "pitch": 70, "duration": 4, "velocity": 117}, {"time": 1802, "pitch": 70, "duration": 3, "velocity": 112}, {"time": 1805, "pitch": 68, "duration": 2, "velocity": 99}, {"time": 1808, "pitch": 68, "duration": 5, "velocity": 117}, {"time": 1814, "pitch": 72, "duration": 5, "velocity": 93}, {"time": 1820, "pitch": 65, "duration": 21, "velocity": 96}, {"time": 1844, "pitch": 70, "duration": 5, "velocity": 122}, {"time": 1850, "pitch": 68, "duration": 2, "velocity": 97}, {"time": 1853, "pitch": 68, "duration": 7, "velocity": 107}, {"time": 1862, "pitch": 66, "duration": 5, "velocity": 102}, {"time": 1868, "pitch": 68, "duration": 5, "velocity": 122}, {"time": 1874, "pitch": 70, "duration": 6, "velocity": 99}, {"time": 1880, "pitch": 68, "duration": 8, "velocity": 102}, {"time": 1886, "pitch": 65, "duration": 3, "velocity": 92}, {"time": 1889, "pitch": 63, "duration": 2, "velocity": 89}, {"time": 1892, "pitch": 65, "duration": 4, "velocity": 93}, {"time": 1898, "pitch": 65, "duration": 3, "velocity": 95}, {"time": 1904, "pitch": 65, "duration": 3, "velocity": 89}, {"time": 1907, "pitch": 63, "duration": 5, "velocity": 85}, {"time": 1916, "pitch": 65, "duration": 12, "velocity": 95}, {"time": 1928, "pitch": 61, "duration": 5, "velocity": 112}, {"time": 1934, "pitch": 63, "duration": 5, "velocity": 99}, {"time": 1940, "pitch": 65, "duration": 16, "velocity": 96}, {"time": 1958, "pitch": 63, "duration": 6, "velocity": 97}, {"time": 1964, "pitch": 65, "duration": 6, "velocity": 95}, {"time": 1976, "pitch": 61, "duration": 5, "velocity": 97}, {"time": 1982, "pitch": 68, "duration": 5, "velocity": 102}, {"time": 1988, "pitch": 65, "duration": 13, "velocity": 99}, {"time": 2006, "pitch": 63, "duration": 6, "velocity": 96}, {"time": 2012, "pitch": 65, "duration": 8, "velocity": 92}, {"time": 2024, "pitch": 61, "duration": 5, "velocity": 100}, {"time": 2030, "pitch": 73, "duration": 4, "velocity": 100}, {"time": 2036, "pitch": 73, "duration": 5, "velocity": 107}, {"time": 2042, "pitch": 70, "duration": 5, "velocity": 100}, {"time": 2048, "pitch": 70, "duration": 6, "velocity": 112}, {"time": 2054, "pitch": 68, "duration": 5, "velocity": 97}, {"time": 2060, "pitch": 70, "duration": 3, "velocity": 117}, {"time": 2066, "pitch": 70, "duration": 4, "velocity": 117}, {"time": 2072, "pitch": 70, "duration": 4, "velocity": 117}, {"time": 2075, "pitch": 72, "duration": 8, "velocity": 112}, {"time": 2084, "pitch": 68, "duration": 24, "velocity": 96}, {"time": 2132, "pitch": 77, "duration": 6, "velocity": 102}, {"time": 2138, "pitch": 75, "duration": 5, "velocity": 97}, {"time": 2144, "pitch": 77, "duration": 5, "velocity": 99}, {"time": 2150, "pitch": 80, "duration": 6, "velocity": 102}, {"time": 2156, "pitch": 77, "duration": 15, "velocity": 122}, {"time": 2180, "pitch": 77, "duration": 6, "velocity": 127}, {"time": 2186, "pitch": 72, "duration": 5, "velocity": 89}, {"time": 2192, "pitch": 73, "duration": 6, "velocity": 117}, {"time": 2198, "pitch": 75, "duration": 6, "velocity": 107}, {"time": 2204, "pitch": 73, "duration": 15, "velocity": 112}, {"time": 2210, "pitch": 70, "duration": 14, "velocity": 107}, {"time": 2228, "pitch": 70, "duration": 5, "velocity": 127}, {"time": 2234, "pitch": 78, "duration": 4, "velocity": 127}, {"time": 2240, "pitch": 78, "duration": 6, "velocity": 122}, {"time": 2246, "pitch": 77, "duration": 5, "velocity": 107}, {"time": 2252, "pitch": 75, "duration": 6, "velocity": 122}, {"time": 2258, "pitch": 72, "duration": 5, "velocity": 102}, {"time": 2264, "pitch": 73, "duration": 6, "velocity": 107}, {"time": 2270, "pitch": 75, "duration": 5, "velocity": 122}, {"time": 2276, "pitch": 75, "duration": 6, "velocity": 122}, {"time": 2282, "pitch": 77, "duration": 1, "velocity": 92}, {"time": 2285, "pitch": 77, "duration": 32, "velocity": 102}, {"time": 2324, "pitch": 77, "duration": 5, "velocity": 127}, {"time": 2330, "pitch": 75, "duration": 5, "velocity": 107}, {"time": 2336, "pitch": 77, "duration": 5, "velocity": 107}, {"time": 2342, "pitch": 80, "duration": 6, "velocity": 122}, {"time": 2348, "pitch": 77, "duration": 16, "velocity": 127}, {"time": 2372, "pitch": 77, "duration": 5, "velocity": 127}, {"time": 2378, "pitch": 72, "duration": 5, "velocity": 100}, {"time": 2384, "pitch": 73, "duration": 1, "velocity": 117}, {"time": 2387, "pitch": 73, "duration": 2, "velocity": 112}, {"time": 2390, "pitch": 75, "duration": 4, "velocity": 107}, {"time": 2396, "pitch": 70, "duration": 21, "velocity": 122}, {"time": 2420, "pitch": 70, "duration": 5, "velocity": 117}, {"time": 2426, "pitch": 78, "duration": 2, "velocity": 127}, {"time": 2429, "pitch": 78, "duration": 7, "velocity": 96}, {"time": 2438, "pitch": 77, "duration": 5, "velocity": 122}, {"time": 2444, "pitch": 78, "duration": 6, "velocity": 127}, {"time": 2450, "pitch": 77, "duration": 6, "velocity": 112}, {"time": 2456, "pitch": 73, "duration": 5, "velocity": 107}, {"time": 2462, "pitch": 73, "duration": 3, "velocity": 122}, {"time": 2465, "pitch": 75, "duration": 3, "velocity": 112}, {"time": 2468, "pitch": 73, "duration": 31, "velocity": 127}, {"time": 2516, "pitch": 77, "duration": 6, "velocity": 102}, {"time": 2522, "pitch": 75, "duration": 5, "velocity": 97}, {"time": 2528, "pitch": 77, "duration": 5, "velocity": 99}, {"time": 2534, "pitch": 80, "duration": 6, "velocity": 102}, {"time": 2540, "pitch": 77, "duration": 15, "velocity": 122}, {"time": 2564, "pitch": 77, "duration": 6, "velocity": 127}, {"time": 2570, "pitch": 72, "duration": 5, "velocity": 89}, {"time": 2576, "pitch": 73, "duration": 6, "velocity": 117}, {"time": 2582, "pitch": 75, "duration": 6, "velocity": 107}, {"time": 2588, "pitch": 73, "duration": 15, "velocity": 112}, {"time": 2594, "pitch": 70, "duration": 14, "velocity": 107}, {"time": 2612, "pitch": 70, "duration": 5, "velocity": 127}, {"time": 2618, "pitch": 78, "duration": 4, "velocity": 127}, {"time": 2624, "pitch": 78, "duration": 6, "velocity": 122}, {"time": 2630, "pitch": 77, "duration": 5, "velocity": 107}, {"time": 2636, "pitch": 75, "duration": 6, "velocity": 122}, {"time": 2642, "pitch": 72, "duration": 5, "velocity": 102}, {"time": 2648, "pitch": 73, "duration": 6, "velocity": 107}, {"time": 2654, "pitch": 75, "duration": 5, "velocity": 122}, {"time": 2660, "pitch": 75, "duration": 6, "velocity": 122}, {"time": 2666, "pitch": 77, "duration": 1, "velocity": 92}, {"time": 2669, "pitch": 77, "duration": 32, "velocity": 102}, {"time": 2708, "pitch": 77, "duration": 5, "velocity": 127}, {"time": 2714, "pitch": 75, "duration": 5, "velocity": 107}, {"time": 2720, "pitch": 77, "duration": 5, "velocity": 107}, {"time": 2726, "pitch": 80, "duration": 6, "velocity": 122}, {"time": 2732, "pitch": 77, "duration": 16, "velocity": 127}, {"time": 2756, "pitch": 77, "duration": 5, "velocity": 127}, {"time": 2762, "pitch": 72, "duration": 5, "velocity": 100}, {"time": 2768, "pitch": 73, "duration": 1, "velocity": 117}, {"time": 2771, "pitch": 73, "duration": 2, "velocity": 112}, {"time": 2774, "pitch": 75, "duration": 4, "velocity": 107}, {"time": 2780, "pitch": 70, "duration": 21, "velocity": 122}, {"time": 2804, "pitch": 70, "duration": 5, "velocity": 117}, {"time": 2810, "pitch": 78, "duration": 2, "velocity": 127}, {"time": 2813, "pitch": 78, "duration": 7, "velocity": 96}, {"time": 2822, "pitch": 77, "duration": 5, "velocity": 122}, {"time": 2828, "pitch": 78, "duration": 6, "velocity": 127}, {"time": 2834, "pitch": 77, "duration": 6, "velocity": 112}, {"time": 2840, "pitch": 73, "duration": 5, "velocity": 107}, {"time": 2846, "pitch": 73, "duration": 3, "velocity": 122}, {"time": 2849, "pitch": 75, "duration": 3, "velocity": 112}, {"time": 2852, "pitch": 73, "duration": 31, "velocity": 127}, {"time": 2900, "pitch": 70, "duration": 5, "velocity": 117}, {"time": 2906, "pitch": 78, "duration": 2, "velocity": 127}, {"time": 2909, "pitch": 78, "duration": 7, "velocity": 96}, {"time": 2918, "pitch": 77, "duration": 5, "velocity": 122}, {"time": 2924, "pitch": 78, "duration": 6, "velocity": 127}, {"time": 2930, "pitch": 77, "duration": 6, "velocity": 112}, {"time": 2936, "pitch": 73, "duration": 5, "velocity": 107}, {"time": 2942, "pitch": 73, "duration": 3, "velocity": 122}, {"time": 2945, "pitch": 75, "duration": 3, "velocity": 112}, {"time": 2948, "pitch": 73, "duration": 31, "velocity": 127}, {"time": 2996, "pitch": 70, "duration": 5, "velocity": 117}, {"time": 3002, "pitch": 78, "duration": 2, "velocity": 127}, {"time": 3005, "pitch": 78, "duration": 7, "velocity": 96}, {"time": 3014, "pitch": 77, "duration": 5, "velocity": 122}, {"time": 3020, "pitch": 78, "duration": 6, "velocity": 127}, {"time": 3026, "pitch": 77, "duration": 6, "velocity": 112}, {"time": 3032, "pitch": 73, "duration": 11, "velocity": 117}, {"time": 3044, "pitch": 75, "duration": 27, "velocity": 127}, {"time": 3068, "pitch": 73, "duration": 76, "velocity": 127}]}, {"program": 0, "is_drum": false, "name": "PIANO", "notes": [{"time": 68, "pitch": 37, "duration": 23, "velocity": 85}, {"time": 74, "pitch": 49, "duration": 21, "velocity": 68}, {"time": 77, "pitch": 56, "duration": 23, "velocity": 45}, {"time": 80, "pitch": 65, "duration": 20, "velocity": 73}, {"time": 86, "pitch": 61, "duration": 14, "velocity": 64}, {"time": 92, "pitch": 37, "duration": 23, "velocity": 57}, {"time": 98, "pitch": 49, "duration": 18, "velocity": 78}, {"time": 101, "pitch": 56, "duration": 22, "velocity": 57}, {"time": 104, "pitch": 65, "duration": 18, "velocity": 69}, {"time": 110, "pitch": 61, "duration": 13, "velocity": 67}, {"time": 116, "pitch": 37, "duration": 22, "velocity": 76}, {"time": 122, "pitch": 49, "duration": 19, "velocity": 58}, {"time": 125, "pitch": 56, "duration": 22, "velocity": 77}, {"time": 128, "pitch": 65, "duration": 22, "velocity": 70}, {"time": 134, "pitch": 61, "duration": 14, "velocity": 71}, {"time": 140, "pitch": 37, "duration": 22, "velocity": 83}, {"time": 146, "pitch": 49, "duration": 18, "velocity": 58}, {"time": 149, "pitch": 56, "duration": 19, "velocity": 66}, {"time": 152, "pitch": 65, "duration": 16, "velocity": 72}, {"time": 158, "pitch": 61, "duration": 7, "velocity": 73}, {"time": 164, "pitch": 37, "duration": 22, "velocity": 69}, {"time": 170, "pitch": 49, "duration": 14, "velocity": 56}, {"time": 176, "pitch": 65, "duration": 12, "velocity": 75}, {"time": 182, "pitch": 61, "duration": 6, "velocity": 73}, {"time": 185, "pitch": 56, "duration": 3, "velocity": 66}, {"time": 188, "pitch": 36, "duration": 17, "velocity": 74}, {"time": 194, "pitch": 48, "duration": 15, "velocity": 66}, {"time": 197, "pitch": 60, "duration": 5, "velocity": 69}, {"time": 200, "pitch": 68, "duration": 13, "velocity": 107}, {"time": 206, "pitch": 65, "duration": 7, "velocity": 66}, {"time": 209, "pitch": 60, "duration": 5, "velocity": 78}, {"time": 212, "pitch": 46, "duration": 18, "velocity": 93}, {"time": 218, "pitch": 53, "duration": 10, "velocity": 63}, {"time": 221, "pitch": 58, "duration": 5, "velocity": 75}, {"time": 224, "pitch": 65, "duration": 12, "velocity": 73}, {"time": 230, "pitch": 58, "duration": 7, "velocity": 78}, {"time": 233, "pitch": 61, "duration": 3, "velocity": 72}, {"time": 236, "pitch": 41, "duration": 18, "velocity": 70}, {"time": 242, "pitch": 48, "duration": 7, "velocity": 37}, {"time": 245, "pitch": 53, "duration": 5, "velocity": 63}, {"time": 248, "pitch": 60, "duration": 12, "velocity": 95}, {"time": 251, "pitch": 48, "duration": 2, "velocity": 40}, {"time": 254, "pitch": 56, "duration": 6, "velocity": 89}, {"time": 257, "pitch": 53, "duration": 3, "velocity": 82}, {"time": 260, "pitch": 42, "duration": 21, "velocity": 66}, {"time": 266, "pitch": 54, "duration": 18, "velocity": 53}, {"time": 269, "pitch": 58, "duration": 15, "velocity": 64}, {"time": 272, "pitch": 66, "duration": 13, "velocity": 96}, {"time": 278, "pitch": 61, "duration": 6, "velocity": 75}, {"time": 284, "pitch": 44, "duration": 19, "velocity": 77}, {"time": 290, "pitch": 56, "duration": 7, "velocity": 63}, {"time": 293, "pitch": 60, "duration": 15, "velocity": 62}, {"time": 296, "pitch": 68, "duration": 10, "velocity": 100}, {"time": 302, "pitch": 63, "duration": 5, "velocity": 57}, {"time": 308, "pitch": 37, "duration": 13, "velocity": 89}, {"time": 314, "pitch": 49, "duration": 9, "velocity": 56}, {"time": 317, "pitch": 56, "duration": 5, "velocity": 59}, {"time": 320, "pitch": 65, "duration": 11, "velocity": 69}, {"time": 326, "pitch": 61, "duration": 6, "velocity": 82}, {"time": 329, "pitch": 56, "duration": 4, "velocity": 73}, {"time": 332, "pitch": 41, "duration": 22, "velocity": 67}, {"time": 338, "pitch": 48, "duration": 16, "velocity": 53}, {"time": 341, "pitch": 53, "duration": 4, "velocity": 58}, {"time": 344, "pitch": 56, "duration": 1, "velocity": 76}, {"time": 344, "pitch": 60, "duration": 12, "velocity": 100}, {"time": 350, "pitch": 56, "duration": 6, "velocity": 71}, {"time": 353, "pitch": 53, "duration": 4, "velocity": 69}, {"time": 356, "pitch": 37, "duration": 22, "velocity": 69}, {"time": 362, "pitch": 49, "duration": 14, "velocity": 56}, {"time": 368, "pitch": 65, "duration": 12, "velocity": 75}, {"time": 374, "pitch": 61, "duration": 6, "velocity": 73}, {"time": 377, "pitch": 56, "duration": 3, "velocity": 66}, {"time": 380, "pitch": 36, "duration": 17, "velocity": 74}, {"time": 386, "pitch": 48, "duration": 15, "velocity": 66}, {"time": 389, "pitch": 60, "duration": 5, "velocity": 69}, {"time": 392, "pitch": 68, "duration": 13, "velocity": 107}, {"time": 398, "pitch": 65, "duration": 7, "velocity": 66}, {"time": 401, "pitch": 60, "duration": 5, "velocity": 78}, {"time": 404, "pitch": 46, "duration": 18, "velocity": 93}, {"time": 410, "pitch": 53, "duration": 10, "velocity": 63}, {"time": 413, "pitch": 58, "duration": 5, "velocity": 75}, {"time": 416, "pitch": 65, "duration": 12, "velocity": 73}, {"time": 422, "pitch": 58, "duration": 7, "velocity": 78}, {"time": 425, "pitch": 61, "duration": 3, "velocity": 72}, {"time": 428, "pitch": 41, "duration": 18, "velocity": 70}, {"time": 434, "pitch": 48, "duration": 7, "velocity": 37}, {"time": 437, "pitch": 53, "duration": 5, "velocity": 63}, {"time": 440, "pitch": 60, "duration": 12, "velocity": 95}, {"time": 443, "pitch": 48, "duration": 2, "velocity": 40}, {"time": 446, "pitch": 56, "duration": 6, "velocity": 89}, {"time": 449, "pitch": 53, "duration": 3, "velocity": 82}, {"time": 452, "pitch": 42, "duration": 21, "velocity": 66}, {"time": 458, "pitch": 54, "duration": 18, "velocity": 53}, {"time": 461, "pitch": 58, "duration": 15, "velocity": 64}, {"time": 464, "pitch": 66, "duration": 13, "velocity": 96}, {"time": 470, "pitch": 61, "duration": 6, "velocity": 75}, {"time": 476, "pitch": 44, "duration": 19, "velocity": 77}, {"time": 482, "pitch": 56, "duration": 7, "velocity": 63}, {"time": 485, "pitch": 60, "duration": 15, "velocity": 62}, {"time": 488, "pitch": 68, "duration": 10, "velocity": 100}, {"time": 494, "pitch": 63, "duration": 5, "velocity": 57}, {"time": 500, "pitch": 37, "duration": 13, "velocity": 89}, {"time": 506, "pitch": 49, "duration": 9, "velocity": 56}, {"time": 509, "pitch": 56, "duration": 5, "velocity": 59}, {"time": 512, "pitch": 65, "duration": 11, "velocity": 69}, {"time": 518, "pitch": 61, "duration": 6, "velocity": 82}, {"time": 521, "pitch": 56, "duration": 4, "velocity": 73}, {"time": 524, "pitch": 41, "duration": 22, "velocity": 67}, {"time": 530, "pitch": 48, "duration": 16, "velocity": 53}, {"time": 533, "pitch": 53, "duration": 4, "velocity": 58}, {"time": 536, "pitch": 56, "duration": 1, "velocity": 76}, {"time": 536, "pitch": 60, "duration": 12, "velocity": 100}, {"time": 542, "pitch": 56, "duration": 6, "velocity": 71}, {"time": 545, "pitch": 53, "duration": 4, "velocity": 69}, {"time": 548, "pitch": 37, "duration": 22, "velocity": 97}, {"time": 554, "pitch": 49, "duration": 7, "velocity": 45}, {"time": 557, "pitch": 61, "duration": 5, "velocity": 77}, {"time": 560, "pitch": 68, "duration": 20, "velocity": 102}, {"time": 563, "pitch": 49, "duration": 9, "velocity": 42}, {"time": 566, "pitch": 65, "duration": 12, "velocity": 67}, {"time": 569, "pitch": 61, "duration": 10, "velocity": 65}, {"time": 572, "pitch": 37, "duration": 19, "velocity": 72}, {"time": 578, "pitch": 49, "duration": 14, "velocity": 60}, {"time": 581, "pitch": 61, "duration": 4, "velocity": 58}, {"time": 584, "pitch": 68, "duration": 13, "velocity": 117}, {"time": 590, "pitch": 65, "duration": 6, "velocity": 57}, {"time": 593, "pitch": 61, "duration": 3, "velocity": 65}, {"time": 596, "pitch": 41, "duration": 22, "velocity": 73}, {"time": 602, "pitch": 48, "duration": 7, "velocity": 57}, {"time": 605, "pitch": 60, "duration": 7, "velocity": 75}, {"time": 608, "pitch": 68, "duration": 21, "velocity": 112}, {"time": 611, "pitch": 48, "duration": 10, "velocity": 53}, {"time": 614, "pitch": 65, "duration": 16, "velocity": 59}, {"time": 617, "pitch": 60, "duration": 12, "velocity": 79}, {"time": 620, "pitch": 41, "duration": 19, "velocity": 81}, {"time": 626, "pitch": 48, "duration": 13, "velocity": 62}, {"time": 629, "pitch": 53, "duration": 4, "velocity": 69}, {"time": 632, "pitch": 68, "duration": 12, "velocity": 117}, {"time": 635, "pitch": 53, "duration": 4, "velocity": 70}, {"time": 638, "pitch": 65, "duration": 6, "velocity": 79}, {"time": 641, "pitch": 60, "duration": 4, "velocity": 93}, {"time": 644, "pitch": 42, "duration": 22, "velocity": 88}, {"time": 650, "pitch": 54, "duration": 7, "velocity": 68}, {"time": 653, "pitch": 58, "duration": 5, "velocity": 92}, {"time": 656, "pitch": 66, "duration": 18, "velocity": 100}, {"time": 659, "pitch": 54, "duration": 7, "velocity": 63}, {"time": 662, "pitch": 61, "duration": 11, "velocity": 107}, {"time": 665, "pitch": 58, "duration": 9, "velocity": 100}, {"time": 668, "pitch": 42, "duration": 18, "velocity": 85}, {"time": 671, "pitch": 49, "duration": 15, "velocity": 53}, {"time": 674, "pitch": 54, "duration": 6, "velocity": 77}, {"time": 677, "pitch": 58, "duration": 5, "velocity": 81}, {"time": 680, "pitch": 66, "duration": 11, "velocity": 107}, {"time": 683, "pitch": 54, "duration": 5, "velocity": 77}, {"time": 686, "pitch": 58, "duration": 4, "velocity": 95}, {"time": 689, "pitch": 61, "duration": 3, "velocity": 79}, {"time": 692, "pitch": 44, "duration": 20, "velocity": 85}, {"time": 698, "pitch": 56, "duration": 7, "velocity": 76}, {"time": 701, "pitch": 60, "duration": 5, "velocity": 75}, {"time": 704, "pitch": 68, "duration": 10, "velocity": 122}, {"time": 707, "pitch": 56, "duration": 7, "velocity": 79}, {"time": 710, "pitch": 63, "duration": 4, "velocity": 90}, {"time": 713, "pitch": 60, "duration": 21, "velocity": 93}, {"time": 716, "pitch": 44, "duration": 17, "velocity": 97}, {"time": 716, "pitch": 56, "duration": 13, "velocity": 78}, {"time": 716, "pitch": 63, "duration": 17, "velocity": 83}, {"time": 716, "pitch": 68, "duration": 17, "velocity": 92}, {"time": 740, "pitch": 37, "duration": 18, "velocity": 93}, {"time": 743, "pitch": 49, "duration": 10, "velocity": 90}, {"time": 746, "pitch": 56, "duration": 7, "velocity": 90}, {"time": 749, "pitch": 61, "duration": 4, "velocity": 88}, {"time": 752, "pitch": 44, "duration": 3, "velocity": 26}, {"time": 752, "pitch": 65, "duration": 12, "velocity": 76}, {"time": 755, "pitch": 49, "duration": 3, "velocity": 97}, {"time": 758, "pitch": 56, "duration": 4, "velocity": 99}, {"time": 761, "pitch": 61, "duration": 3, "velocity": 102}, {"time": 764, "pitch": 36, "duration": 5, "velocity": 79}, {"time": 767, "pitch": 48, "duration": 11, "velocity": 88}, {"time": 770, "pitch": 60, "duration": 7, "velocity": 86}, {"time": 773, "pitch": 65, "duration": 4, "velocity": 89}, {"time": 776, "pitch": 68, "duration": 13, "velocity": 112}, {"time": 779, "pitch": 53, "duration": 5, "velocity": 66}, {"time": 782, "pitch": 60, "duration": 5, "velocity": 96}, {"time": 785, "pitch": 65, "duration": 4, "velocity": 99}, {"time": 788, "pitch": 41, "duration": 17, "velocity": 78}, {"time": 791, "pitch": 48, "duration": 14, "velocity": 60}, {"time": 794, "pitch": 53, "duration": 7, "velocity": 81}, {"time": 797, "pitch": 57, "duration": 4, "velocity": 77}, {"time": 800, "pitch": 65, "duration": 12, "velocity": 96}, {"time": 803, "pitch": 53, "duration": 5, "velocity": 90}, {"time": 806, "pitch": 57, "duration": 4, "velocity": 81}, {"time": 809, "pitch": 60, "duration": 4, "velocity": 102}, {"time": 812, "pitch": 46, "duration": 20, "velocity": 93}, {"time": 812, "pitch": 57, "duration": 1, "velocity": 47}, {"time": 815, "pitch": 58, "duration": 9, "velocity": 89}, {"time": 818, "pitch": 61, "duration": 8, "velocity": 82}, {"time": 821, "pitch": 65, "duration": 4, "velocity": 81}, {"time": 824, "pitch": 70, "duration": 13, "velocity": 78}, {"time": 827, "pitch": 58, "duration": 4, "velocity": 90}, {"time": 830, "pitch": 61, "duration": 7, "velocity": 96}, {"time": 833, "pitch": 65, "duration": 3, "velocity": 67}, {"time": 836, "pitch": 42, "duration": 22, "velocity": 72}, {"time": 839, "pitch": 54, "duration": 10, "velocity": 92}, {"time": 842, "pitch": 58, "duration": 8, "velocity": 78}, {"time": 845, "pitch": 61, "duration": 4, "velocity": 95}, {"time": 848, "pitch": 66, "duration": 12, "velocity": 102}, {"time": 851, "pitch": 54, "duration": 9, "velocity": 88}, {"time": 854, "pitch": 58, "duration": 5, "velocity": 82}, {"time": 857, "pitch": 61, "duration": 3, "velocity": 112}, {"time": 860, "pitch": 44, "duration": 19, "velocity": 102}, {"time": 863, "pitch": 56, "duration": 9, "velocity": 97}, {"time": 866, "pitch": 60, "duration": 7, "velocity": 82}, {"time": 869, "pitch": 63, "duration": 4, "velocity": 107}, {"time": 872, "pitch": 68, "duration": 11, "velocity": 127}, {"time": 875, "pitch": 56, "duration": 3, "velocity": 96}, {"time": 878, "pitch": 60, "duration": 6, "velocity": 99}, {"time": 881, "pitch": 63, "duration": 3, "velocity": 127}, {"time": 884, "pitch": 37, "duration": 17, "velocity": 95}, {"time": 887, "pitch": 49, "duration": 8, "velocity": 96}, {"time": 890, "pitch": 56, "duration": 7, "velocity": 82}, {"time": 893, "pitch": 61, "duration": 4, "velocity": 82}, {"time": 896, "pitch": 65, "duration": 11, "velocity": 74}, {"time": 899, "pitch": 49, "duration": 3, "velocity": 92}, {"time": 902, "pitch": 56, "duration": 4, "velocity": 100}, {"time": 905, "pitch": 61, "duration": 3, "velocity": 122}, {"time": 908, "pitch": 41, "duration": 17, "velocity": 81}, {"time": 911, "pitch": 48, "duration": 13, "velocity": 65}, {"time": 914, "pitch": 53, "duration": 7, "velocity": 89}, {"time": 917, "pitch": 60, "duration": 4, "velocity": 95}, {"time": 920, "pitch": 69, "duration": 12, "velocity": 112}, {"time": 923, "pitch": 53, "duration": 1, "velocity": 74}, {"time": 926, "pitch": 60, "duration": 6, "velocity": 100}, {"time": 929, "pitch": 65, "duration": 3, "velocity": 99}, {"time": 932, "pitch": 37, "duration": 18, "velocity": 93}, {"time": 935, "pitch": 49, "duration": 10, "velocity": 90}, {"time": 938, "pitch": 56, "duration": 7, "velocity": 90}, {"time": 941, "pitch": 61, "duration": 4, "velocity": 88}, {"time": 944, "pitch": 44, "duration": 3, "velocity": 26}, {"time": 944, "pitch": 65, "duration": 12, "velocity": 76}, {"time": 947, "pitch": 49, "duration": 3, "velocity": 97}, {"time": 950, "pitch": 56, "duration": 4, "velocity": 99}, {"time": 953, "pitch": 61, "duration": 3, "velocity": 102}, {"time": 956, "pitch": 36, "duration": 5, "velocity": 79}, {"time": 959, "pitch": 48, "duration": 11, "velocity": 88}, {"time": 962, "pitch": 60, "duration": 7, "velocity": 86}, {"time": 965, "pitch": 65, "duration": 4, "velocity": 89}, {"time": 968, "pitch": 68, "duration": 13, "velocity": 112}, {"time": 971, "pitch": 53, "duration": 5, "velocity": 66}, {"time": 974, "pitch": 60, "duration": 5, "velocity": 96}, {"time": 977, "pitch": 65, "duration": 4, "velocity": 99}, {"time": 980, "pitch": 41, "duration": 17, "velocity": 78}, {"time": 983, "pitch": 48, "duration": 14, "velocity": 60}, {"time": 986, "pitch": 53, "duration": 7, "velocity": 81}, {"time": 989, "pitch": 57, "duration": 4, "velocity": 77}, {"time": 992, "pitch": 65, "duration": 12, "velocity": 96}, {"time": 995, "pitch": 53, "duration": 5, "velocity": 90}, {"time": 998, "pitch": 57, "duration": 4, "velocity": 81}, {"time": 1001, "pitch": 60, "duration": 4, "velocity": 102}, {"time": 1004, "pitch": 46, "duration": 20, "velocity": 93}, {"time": 1004, "pitch": 57, "duration": 1, "velocity": 47}, {"time": 1007, "pitch": 58, "duration": 9, "velocity": 89}, {"time": 1010, "pitch": 61, "duration": 8, "velocity": 82}, {"time": 1013, "pitch": 65, "duration": 4, "velocity": 81}, {"time": 1016, "pitch": 70, "duration": 13, "velocity": 78}, {"time": 1019, "pitch": 58, "duration": 4, "velocity": 90}, {"time": 1022, "pitch": 61, "duration": 7, "velocity": 96}, {"time": 1025, "pitch": 65, "duration": 3, "velocity": 67}, {"time": 1028, "pitch": 42, "duration": 22, "velocity": 72}, {"time": 1031, "pitch": 54, "duration": 10, "velocity": 92}, {"time": 1034, "pitch": 58, "duration": 8, "velocity": 78}, {"time": 1037, "pitch": 61, "duration": 4, "velocity": 95}, {"time": 1040, "pitch": 66, "duration": 12, "velocity": 102}, {"time": 1043, "pitch": 54, "duration": 9, "velocity": 88}, {"time": 1046, "pitch": 58, "duration": 5, "velocity": 82}, {"time": 1049, "pitch": 61, "duration": 3, "velocity": 112}, {"time": 1052, "pitch": 44, "duration": 19, "velocity": 102}, {"time": 1055, "pitch": 56, "duration": 9, "velocity": 97}, {"time": 1058, "pitch": 60, "duration": 7, "velocity": 82}, {"time": 1061, "pitch": 63, "duration": 4, "velocity": 107}, {"time": 1064, "pitch": 68, "duration": 11, "velocity": 127}, {"time": 1067, "pitch": 56, "duration": 3, "velocity": 96}, {"time": 1070, "pitch": 60, "duration": 6, "velocity": 99}, {"time": 1073, "pitch": 63, "duration": 3, "velocity": 127}, {"time": 1076, "pitch": 37, "duration": 19, "velocity": 93}, {"time": 1079, "pitch": 44, "duration": 15, "velocity": 31}, {"time": 1082, "pitch": 49, "duration": 7, "velocity": 92}, {"time": 1085, "pitch": 56, "duration": 5, "velocity": 90}, {"time": 1088, "pitch": 65, "duration": 34, "velocity": 65}, {"time": 1091, "pitch": 49, "duration": 4, "velocity": 93}, {"time": 1094, "pitch": 56, "duration": 3, "velocity": 96}, {"time": 1097, "pitch": 61, "duration": 26, "velocity": 78}, {"time": 1100, "pitch": 37, "duration": 21, "velocity": 66}, {"time": 1100, "pitch": 44, "duration": 21, "velocity": 68}, {"time": 1100, "pitch": 49, "duration": 21, "velocity": 96}, {"time": 1100, "pitch": 56, "duration": 22, "velocity": 112}, {"time": 1124, "pitch": 37, "duration": 17, "velocity": 85}, {"time": 1130, "pitch": 49, "duration": 9, "velocity": 79}, {"time": 1133, "pitch": 56, "duration": 4, "velocity": 78}, {"time": 1136, "pitch": 65, "duration": 12, "velocity": 73}, {"time": 1139, "pitch": 49, "duration": 1, "velocity": 60}, {"time": 1142, "pitch": 56, "duration": 4, "velocity": 81}, {"time": 1145, "pitch": 61, "duration": 3, "velocity": 77}, {"time": 1148, "pitch": 41, "duration": 19, "velocity": 69}, {"time": 1151, "pitch": 48, "duration": 16, "velocity": 60}, {"time": 1154, "pitch": 53, "duration": 13, "velocity": 83}, {"time": 1157, "pitch": 60, "duration": 15, "velocity": 63}, {"time": 1160, "pitch": 68, "duration": 12, "velocity": 100}, {"time": 1172, "pitch": 46, "duration": 18, "velocity": 112}, {"time": 1178, "pitch": 58, "duration": 7, "velocity": 81}, {"time": 1181, "pitch": 61, "duration": 4, "velocity": 90}, {"time": 1184, "pitch": 65, "duration": 12, "velocity": 96}, {"time": 1187, "pitch": 58, "duration": 2, "velocity": 44}, {"time": 1190, "pitch": 61, "duration": 6, "velocity": 72}, {"time": 1196, "pitch": 41, "duration": 15, "velocity": 81}, {"time": 1202, "pitch": 48, "duration": 7, "velocity": 60}, {"time": 1205, "pitch": 53, "duration": 4, "velocity": 56}, {"time": 1208, "pitch": 48, "duration": 1, "velocity": 45}, {"time": 1208, "pitch": 60, "duration": 11, "velocity": 93}, {"time": 1214, "pitch": 56, "duration": 6, "velocity": 93}, {"time": 1220, "pitch": 42, "duration": 19, "velocity": 92}, {"time": 1226, "pitch": 54, "duration": 7, "velocity": 60}, {"time": 1229, "pitch": 58, "duration": 5, "velocity": 76}, {"time": 1232, "pitch": 66, "duration": 12, "velocity": 107}, {"time": 1235, "pitch": 54, "duration": 9, "velocity": 66}, {"time": 1238, "pitch": 58, "duration": 5, "velocity": 78}, {"time": 1244, "pitch": 44, "duration": 17, "velocity": 81}, {"time": 1250, "pitch": 56, "duration": 7, "velocity": 74}, {"time": 1253, "pitch": 60, "duration": 5, "velocity": 59}, {"time": 1256, "pitch": 68, "duration": 11, "velocity": 117}, {"time": 1259, "pitch": 56, "duration": 1, "velocity": 72}, {"time": 1262, "pitch": 63, "duration": 5, "velocity": 66}, {"time": 1265, "pitch": 60, "duration": 3, "velocity": 68}, {"time": 1268, "pitch": 37, "duration": 17, "velocity": 96}, {"time": 1274, "pitch": 49, "duration": 7, "velocity": 55}, {"time": 1277, "pitch": 56, "duration": 6, "velocity": 70}, {"time": 1280, "pitch": 65, "duration": 11, "velocity": 65}, {"time": 1283, "pitch": 49, "duration": 3, "velocity": 76}, {"time": 1286, "pitch": 61, "duration": 5, "velocity": 78}, {"time": 1289, "pitch": 56, "duration": 3, "velocity": 90}, {"time": 1292, "pitch": 41, "duration": 23, "velocity": 81}, {"time": 1295, "pitch": 48, "duration": 19, "velocity": 69}, {"time": 1298, "pitch": 53, "duration": 6, "velocity": 92}, {"time": 1301, "pitch": 57, "duration": 5, "velocity": 70}, {"time": 1304, "pitch": 65, "duration": 13, "velocity": 107}, {"time": 1307, "pitch": 53, "duration": 2, "velocity": 90}, {"time": 1310, "pitch": 60, "duration": 6, "velocity": 78}, {"time": 1313, "pitch": 57, "duration": 4, "velocity": 82}, {"time": 1316, "pitch": 37, "duration": 17, "velocity": 85}, {"time": 1322, "pitch": 49, "duration": 9, "velocity": 79}, {"time": 1325, "pitch": 56, "duration": 4, "velocity": 78}, {"time": 1328, "pitch": 65, "duration": 12, "velocity": 73}, {"time": 1331, "pitch": 49, "duration": 1, "velocity": 60}, {"time": 1334, "pitch": 56, "duration": 4, "velocity": 81}, {"time": 1337, "pitch": 61, "duration": 3, "velocity": 77}, {"time": 1340, "pitch": 41, "duration": 19, "velocity": 69}, {"time": 1343, "pitch": 48, "duration": 16, "velocity": 60}, {"time": 1346, "pitch": 53, "duration": 13, "velocity": 83}, {"time": 1349, "pitch": 60, "duration": 15, "velocity": 63}, {"time": 1352, "pitch": 68, "duration": 12, "velocity": 100}, {"time": 1364, "pitch": 46, "duration": 18, "velocity": 112}, {"time": 1370, "pitch": 58, "duration": 7, "velocity": 81}, {"time": 1373, "pitch": 61, "duration": 4, "velocity": 90}, {"time": 1376, "pitch": 65, "duration": 12, "velocity": 96}, {"time": 1379, "pitch": 58, "duration": 2, "velocity": 44}, {"time": 1382, "pitch": 61, "duration": 6, "velocity": 72}, {"time": 1388, "pitch": 41, "duration": 15, "velocity": 81}, {"time": 1394, "pitch": 48, "duration": 7, "velocity": 60}, {"time": 1397, "pitch": 53, "duration": 4, "velocity": 56}, {"time": 1400, "pitch": 48, "duration": 1, "velocity": 45}, {"time": 1400, "pitch": 60, "duration": 11, "velocity": 93}, {"time": 1406, "pitch": 56, "duration": 6, "velocity": 93}, {"time": 1412, "pitch": 42, "duration": 19, "velocity": 92}, {"time": 1418, "pitch": 54, "duration": 7, "velocity": 60}, {"time": 1421, "pitch": 58, "duration": 5, "velocity": 76}, {"time": 1424, "pitch": 66, "duration": 12, "velocity": 107}, {"time": 1427, "pitch": 54, "duration": 9, "velocity": 66}, {"time": 1430, "pitch": 58, "duration": 5, "velocity": 78}, {"time": 1436, "pitch": 44, "duration": 17, "velocity": 81}, {"time": 1442, "pitch": 56, "duration": 7, "velocity": 74}, {"time": 1445, "pitch": 60, "duration": 5, "velocity": 59}, {"time": 1448, "pitch": 68, "duration": 11, "velocity": 117}, {"time": 1451, "pitch": 56, "duration": 1, "velocity": 72}, {"time": 1454, "pitch": 63, "duration": 5, "velocity": 66}, {"time": 1457, "pitch": 60, "duration": 3, "velocity": 68}, {"time": 1460, "pitch": 37, "duration": 22, "velocity": 79}, {"time": 1466, "pitch": 44, "duration": 18, "velocity": 63}, {"time": 1472, "pitch": 56, "duration": 1, "velocity": 46}, {"time": 1472, "pitch": 65, "duration": 22, "velocity": 71}, {"time": 1475, "pitch": 49, "duration": 10, "velocity": 46}, {"time": 1478, "pitch": 56, "duration": 15, "velocity": 78}, {"time": 1481, "pitch": 61, "duration": 15, "velocity": 77}, {"time": 1484, "pitch": 37, "duration": 24, "velocity": 86}, {"time": 1487, "pitch": 49, "duration": 2, "velocity": 27}, {"time": 1496, "pitch": 61, "duration": 25, "velocity": 77}, {"time": 1496, "pitch": 65, "duration": 20, "velocity": 67}, {"time": 1502, "pitch": 56, "duration": 14, "velocity": 67}, {"time": 1508, "pitch": 37, "duration": 22, "velocity": 93}, {"time": 1514, "pitch": 44, "duration": 18, "velocity": 47}, {"time": 1517, "pitch": 49, "duration": 4, "velocity": 68}, {"time": 1520, "pitch": 65, "duration": 20, "velocity": 75}, {"time": 1523, "pitch": 49, "duration": 9, "velocity": 74}, {"time": 1526, "pitch": 56, "duration": 13, "velocity": 77}, {"time": 1529, "pitch": 61, "duration": 15, "velocity": 66}, {"time": 1532, "pitch": 37, "duration": 24, "velocity": 95}, {"time": 1538, "pitch": 44, "duration": 16, "velocity": 63}, {"time": 1541, "pitch": 56, "duration": 4, "velocity": 56}, {"time": 1544, "pitch": 65, "duration": 12, "velocity": 65}, {"time": 1547, "pitch": 49, "duration": 7, "velocity": 50}, {"time": 1550, "pitch": 61, "duration": 6, "velocity": 47}, {"time": 1556, "pitch": 37, "duration": 22, "velocity": 69}, {"time": 1562, "pitch": 49, "duration": 14, "velocity": 56}, {"time": 1568, "pitch": 65, "duration": 12, "velocity": 75}, {"time": 1574, "pitch": 61, "duration": 6, "velocity": 73}, {"time": 1577, "pitch": 56, "duration": 3, "velocity": 66}, {"time": 1580, "pitch": 36, "duration": 17, "velocity": 74}, {"time": 1586, "pitch": 48, "duration": 15, "velocity": 66}, {"time": 1589, "pitch": 60, "duration": 5, "velocity": 69}, {"time": 1592, "pitch": 68, "duration": 13, "velocity": 107}, {"time": 1598, "pitch": 65, "duration": 7, "velocity": 66}, {"time": 1601, "pitch": 60, "duration": 5, "velocity": 78}, {"time": 1604, "pitch": 46, "duration": 18, "velocity": 93}, {"time": 1610, "pitch": 53, "duration": 10, "velocity": 63}, {"time": 1613, "pitch": 58, "duration": 5, "velocity": 75}, {"time": 1616, "pitch": 65, "duration": 12, "velocity": 73}, {"time": 1622, "pitch": 58, "duration": 7, "velocity": 78}, {"time": 1625, "pitch": 61, "duration": 3, "velocity": 72}, {"time": 1628, "pitch": 41, "duration": 18, "velocity": 70}, {"time": 1634, "pitch": 48, "duration": 7, "velocity": 37}, {"time": 1637, "pitch": 53, "duration": 5, "velocity": 63}, {"time": 1640, "pitch": 60, "duration": 12, "velocity": 95}, {"time": 1643, "pitch": 48, "duration": 2, "velocity": 40}, {"time": 1646, "pitch": 56, "duration": 6, "velocity": 89}, {"time": 1649, "pitch": 53, "duration": 3, "velocity": 82}, {"time": 1652, "pitch": 42, "duration": 21, "velocity": 66}, {"time": 1658, "pitch": 54, "duration": 18, "velocity": 53}, {"time": 1661, "pitch": 58, "duration": 15, "velocity": 64}, {"time": 1664, "pitch": 66, "duration": 13, "velocity": 96}, {"time": 1670, "pitch": 61, "duration": 6, "velocity": 75}, {"time": 1676, "pitch": 44, "duration": 19, "velocity": 77}, {"time": 1682, "pitch": 56, "duration": 7, "velocity": 63}, {"time": 1685, "pitch": 60, "duration": 15, "velocity": 62}, {"time": 1688, "pitch": 68, "duration": 10, "velocity": 100}, {"time": 1694, "pitch": 63, "duration": 5, "velocity": 57}, {"time": 1700, "pitch": 37, "duration": 13, "velocity": 89}, {"time": 1706, "pitch": 49, "duration": 9, "velocity": 56}, {"time": 1709, "pitch": 56, "duration": 5, "velocity": 59}, {"time": 1712, "pitch": 65, "duration": 11, "velocity": 69}, {"time": 1718, "pitch": 61, "duration": 6, "velocity": 82}, {"time": 1721, "pitch": 56, "duration": 4, "velocity": 73}, {"time": 1724, "pitch": 41, "duration": 22, "velocity": 67}, {"time": 1730, "pitch": 48, "duration": 16, "velocity": 53}, {"time": 1733, "pitch": 53, "duration": 4, "velocity": 58}, {"time": 1736, "pitch": 56, "duration": 1, "velocity": 76}, {"time": 1736, "pitch": 60, "duration": 12, "velocity": 100}, {"time": 1742, "pitch": 56, "duration": 6, "velocity": 71}, {"time": 1745, "pitch": 53, "duration": 4, "velocity": 69}, {"time": 1748, "pitch": 37, "duration": 22, "velocity": 69}, {"time": 1754, "pitch": 49, "duration": 14, "velocity": 56}, {"time": 1760, "pitch": 65, "duration": 12, "velocity": 75}, {"time": 1766, "pitch": 61, "duration": 6, "velocity": 73}, {"time": 1769, "pitch": 56, "duration": 3, "velocity": 66}, {"time": 1772, "pitch": 36, "duration": 17, "velocity": 74}, {"time": 1778, "pitch": 48, "duration": 15, "velocity": 66}, {"time": 1781, "pitch": 60, "duration": 5, "velocity": 69}, {"time": 1784, "pitch": 68, "duration": 13, "velocity": 107}, {"time": 1790, "pitch": 65, "duration": 7, "velocity": 66}, {"time": 1793, "pitch": 60, "duration": 5, "velocity": 78}, {"time": 1796, "pitch": 46, "duration": 18, "velocity": 93}, {"time": 1802, "pitch": 53, "duration": 10, "velocity": 63}, {"time": 1805, "pitch": 58, "duration": 5, "velocity": 75}, {"time": 1808, "pitch": 65, "duration": 12, "velocity": 73}, {"time": 1814, "pitch": 58, "duration": 7, "velocity": 78}, {"time": 1817, "pitch": 61, "duration": 3, "velocity": 72}, {"time": 1820, "pitch": 41, "duration": 18, "velocity": 70}, {"time": 1826, "pitch": 48, "duration": 7, "velocity": 37}, {"time": 1829, "pitch": 53, "duration": 5, "velocity": 63}, {"time": 1832, "pitch": 60, "duration": 12, "velocity": 95}, {"time": 1835, "pitch": 48, "duration": 2, "velocity": 40}, {"time": 1838, "pitch": 56, "duration": 6, "velocity": 89}, {"time": 1841, "pitch": 53, "duration": 3, "velocity": 82}, {"time": 1844, "pitch": 42, "duration": 21, "velocity": 66}, {"time": 1850, "pitch": 54, "duration": 18, "velocity": 53}, {"time": 1853, "pitch": 58, "duration": 15, "velocity": 64}, {"time": 1856, "pitch": 66, "duration": 13, "velocity": 96}, {"time": 1862, "pitch": 61, "duration": 6, "velocity": 75}, {"time": 1868, "pitch": 44, "duration": 19, "velocity": 77}, {"time": 1874, "pitch": 56, "duration": 7, "velocity": 63}, {"time": 1877, "pitch": 60, "duration": 15, "velocity": 62}, {"time": 1880, "pitch": 68, "duration": 10, "velocity": 100}, {"time": 1886, "pitch": 63, "duration": 5, "velocity": 57}, {"time": 1892, "pitch": 37, "duration": 13, "velocity": 89}, {"time": 1898, "pitch": 49, "duration": 9, "velocity": 56}, {"time": 1901, "pitch": 56, "duration": 5, "velocity": 59}, {"time": 1904, "pitch": 65, "duration": 11, "velocity": 69}, {"time": 1910, "pitch": 61, "duration": 6, "velocity": 82}, {"time": 1913, "pitch": 56, "duration": 4, "velocity": 73}, {"time": 1916, "pitch": 41, "duration": 22, "velocity": 67}, {"time": 1922, "pitch": 48, "duration": 16, "velocity": 53}, {"time": 1925, "pitch": 53, "duration": 4, "velocity": 58}, {"time": 1928, "pitch": 56, "duration": 1, "velocity": 76}, {"time": 1928, "pitch": 60, "duration": 12, "velocity": 100}, {"time": 1934, "pitch": 56, "duration": 6, "velocity": 71}, {"time": 1937, "pitch": 53, "duration": 4, "velocity": 69}, {"time": 1940, "pitch": 37, "duration": 22, "velocity": 97}, {"time": 1946, "pitch": 49, "duration": 7, "velocity": 45}, {"time": 1949, "pitch": 61, "duration": 5, "velocity": 77}, {"time": 1952, "pitch": 68, "duration": 20, "velocity": 102}, {"time": 1955, "pitch": 49, "duration": 9, "velocity": 42}, {"time": 1958, "pitch": 65, "duration": 12, "velocity": 67}, {"time": 1961, "pitch": 61, "duration": 10, "velocity": 65}, {"time": 1964, "pitch": 37, "duration": 19, "velocity": 72}, {"time": 1970, "pitch": 49, "duration": 14, "velocity": 60}, {"time": 1973, "pitch": 61, "duration": 4, "velocity": 58}, {"time": 1976, "pitch": 68, "duration": 13, "velocity": 117}, {"time": 1982, "pitch": 65, "duration": 6, "velocity": 57}, {"time": 1985, "pitch": 61, "duration": 3, "velocity": 65}, {"time": 1988, "pitch": 41, "duration": 22, "velocity": 73}, {"time": 1994, "pitch": 48, "duration": 7, "velocity": 57}, {"time": 1997, "pitch": 60, "duration": 7, "velocity": 75}, {"time": 2000, "pitch": 68, "duration": 21, "velocity": 112}, {"time": 2003, "pitch": 48, "duration": 10, "velocity": 53}, {"time": 2006, "pitch": 65, "duration": 16, "velocity": 59}, {"time": 2009, "pitch": 60, "duration": 12, "velocity": 79}, {"time": 2012, "pitch": 41, "duration": 19, "velocity": 81}, {"time": 2018, "pitch": 48, "duration": 13, "velocity": 62}, {"time": 2021, "pitch": 53, "duration": 4, "velocity": 69}, {"time": 2024, "pitch": 68, "duration": 12, "velocity": 117}, {"time": 2027, "pitch": 53, "duration": 4, "velocity": 70}, {"time": 2030, "pitch": 65, "duration": 6, "velocity": 79}, {"time": 2033, "pitch": 60, "duration": 4, "velocity": 93}, {"time": 2036, "pitch": 42, "duration": 22, "velocity": 88}, {"time": 2042, "pitch": 54, "duration": 7, "velocity": 68}, {"time": 2045, "pitch": 58, "duration": 5, "velocity": 92}, {"time": 2048, "pitch": 66, "duration": 18, "velocity": 100}, {"time": 2051, "pitch": 54, "duration": 7, "velocity": 63}, {"time": 2054, "pitch": 61, "duration": 11, "velocity": 107}, {"time": 2057, "pitch": 58, "duration": 9, "velocity": 100}, {"time": 2060, "pitch": 42, "duration": 18, "velocity": 85}, {"time": 2063, "pitch": 49, "duration": 15, "velocity": 53}, {"time": 2066, "pitch": 54, "duration": 6, "velocity": 77}, {"time": 2069, "pitch": 58, "duration": 5, "velocity": 81}, {"time": 2072, "pitch": 66, "duration": 11, "velocity": 107}, {"time": 2075, "pitch": 54, "duration": 5, "velocity": 77}, {"time": 2078, "pitch": 58, "duration": 4, "velocity": 95}, {"time": 2081, "pitch": 61, "duration": 3, "velocity": 79}, {"time": 2084, "pitch": 44, "duration": 20, "velocity": 85}, {"time": 2090, "pitch": 56, "duration": 7, "velocity": 76}, {"time": 2093, "pitch": 60, "duration": 5, "velocity": 75}, {"time": 2096, "pitch": 68, "duration": 10, "velocity": 122}, {"time": 2099, "pitch": 56, "duration": 7, "velocity": 79}, {"time": 2102, "pitch": 63, "duration": 4, "velocity": 90}, {"time": 2105, "pitch": 60, "duration": 21, "velocity": 93}, {"time": 2108, "pitch": 44, "duration": 17, "velocity": 97}, {"time": 2108, "pitch": 56, "duration": 13, "velocity": 78}, {"time": 2108, "pitch": 63, "duration": 17, "velocity": 83}, {"time": 2108, "pitch": 68, "duration": 17, "velocity": 92}, {"time": 2132, "pitch": 37, "duration": 18, "velocity": 93}, {"time": 2135, "pitch": 49, "duration": 10, "velocity": 90}, {"time": 2138, "pitch": 56, "duration": 7, "velocity": 90}, {"time": 2141, "pitch": 61, "duration": 4, "velocity": 88}, {"time": 2144, "pitch": 44, "duration": 3, "velocity": 26}, {"time": 2144, "pitch": 65, "duration": 12, "velocity": 76}, {"time": 2147, "pitch": 49, "duration": 3, "velocity": 97}, {"time": 2150, "pitch": 56, "duration": 4, "velocity": 99}, {"time": 2153, "pitch": 61, "duration": 3, "velocity": 102}, {"time": 2156, "pitch": 36, "duration": 5, "velocity": 79}, {"time": 2159, "pitch": 48, "duration": 11, "velocity": 88}, {"time": 2162, "pitch": 60, "duration": 7, "velocity": 86}, {"time": 2165, "pitch": 65, "duration": 4, "velocity": 89}, {"time": 2168, "pitch": 68, "duration": 13, "velocity": 112}, {"time": 2171, "pitch": 53, "duration": 5, "velocity": 66}, {"time": 2174, "pitch": 60, "duration": 5, "velocity": 96}, {"time": 2177, "pitch": 65, "duration": 4, "velocity": 99}, {"time": 2180, "pitch": 41, "duration": 17, "velocity": 78}, {"time": 2183, "pitch": 48, "duration": 14, "velocity": 60}, {"time": 2186, "pitch": 53, "duration": 7, "velocity": 81}, {"time": 2189, "pitch": 57, "duration": 4, "velocity": 77}, {"time": 2192, "pitch": 65, "duration": 12, "velocity": 96}, {"time": 2195, "pitch": 53, "duration": 5, "velocity": 90}, {"time": 2198, "pitch": 57, "duration": 4, "velocity": 81}, {"time": 2201, "pitch": 60, "duration": 4, "velocity": 102}, {"time": 2204, "pitch": 46, "duration": 20, "velocity": 93}, {"time": 2204, "pitch": 57, "duration": 1, "velocity": 47}, {"time": 2207, "pitch": 58, "duration": 9, "velocity": 89}, {"time": 2210, "pitch": 61, "duration": 8, "velocity": 82}, {"time": 2213, "pitch": 65, "duration": 4, "velocity": 81}, {"time": 2216, "pitch": 70, "duration": 13, "velocity": 78}, {"time": 2219, "pitch": 58, "duration": 4, "velocity": 90}, {"time": 2222, "pitch": 61, "duration": 7, "velocity": 96}, {"time": 2225, "pitch": 65, "duration": 3, "velocity": 67}, {"time": 2228, "pitch": 42, "duration": 22, "velocity": 72}, {"time": 2231, "pitch": 54, "duration": 10, "velocity": 92}, {"time": 2234, "pitch": 58, "duration": 8, "velocity": 78}, {"time": 2237, "pitch": 61, "duration": 4, "velocity": 95}, {"time": 2240, "pitch": 66, "duration": 12, "velocity": 102}, {"time": 2243, "pitch": 54, "duration": 9, "velocity": 88}, {"time": 2246, "pitch": 58, "duration": 5, "velocity": 82}, {"time": 2249, "pitch": 61, "duration": 3, "velocity": 112}, {"time": 2252, "pitch": 44, "duration": 19, "velocity": 102}, {"time": 2255, "pitch": 56, "duration": 9, "velocity": 97}, {"time": 2258, "pitch": 60, "duration": 7, "velocity": 82}, {"time": 2261, "pitch": 63, "duration": 4, "velocity": 107}, {"time": 2264, "pitch": 68, "duration": 11, "velocity": 127}, {"time": 2267, "pitch": 56, "duration": 3, "velocity": 96}, {"time": 2270, "pitch": 60, "duration": 6, "velocity": 99}, {"time": 2273, "pitch": 63, "duration": 3, "velocity": 127}, {"time": 2276, "pitch": 37, "duration": 17, "velocity": 95}, {"time": 2279, "pitch": 49, "duration": 8, "velocity": 96}, {"time": 2282, "pitch": 56, "duration": 7, "velocity": 82}, {"time": 2285, "pitch": 61, "duration": 4, "velocity": 82}, {"time": 2288, "pitch": 65, "duration": 11, "velocity": 74}, {"time": 2291, "pitch": 49, "duration": 3, "velocity": 92}, {"time": 2294, "pitch": 56, "duration": 4, "velocity": 100}, {"time": 2297, "pitch": 61, "duration": 3, "velocity": 122}, {"time": 2300, "pitch": 41, "duration": 17, "velocity": 81}, {"time": 2303, "pitch": 48, "duration": 13, "velocity": 65}, {"time": 2306, "pitch": 53, "duration": 7, "velocity": 89}, {"time": 2309, "pitch": 60, "duration": 4, "velocity": 95}, {"time": 2312, "pitch": 69, "duration": 12, "velocity": 112}, {"time": 2315, "pitch": 53, "duration": 1, "velocity": 74}, {"time": 2318, "pitch": 60, "duration": 6, "velocity": 100}, {"time": 2321, "pitch": 65, "duration": 3, "velocity": 99}, {"time": 2324, "pitch": 37, "duration": 18, "velocity": 93}, {"time": 2327, "pitch": 49, "duration": 10, "velocity": 90}, {"time": 2330, "pitch": 56, "duration": 7, "velocity": 90}, {"time": 2333, "pitch": 61, "duration": 4, "velocity": 88}, {"time": 2336, "pitch": 44, "duration": 3, "velocity": 26}, {"time": 2336, "pitch": 65, "duration": 12, "velocity": 76}, {"time": 2339, "pitch": 49, "duration": 3, "velocity": 97}, {"time": 2342, "pitch": 56, "duration": 4, "velocity": 99}, {"time": 2345, "pitch": 61, "duration": 3, "velocity": 102}, {"time": 2348, "pitch": 36, "duration": 5, "velocity": 79}, {"time": 2351, "pitch": 48, "duration": 11, "velocity": 88}, {"time": 2354, "pitch": 60, "duration": 7, "velocity": 86}, {"time": 2357, "pitch": 65, "duration": 4, "velocity": 89}, {"time": 2360, "pitch": 68, "duration": 13, "velocity": 112}, {"time": 2363, "pitch": 53, "duration": 5, "velocity": 66}, {"time": 2366, "pitch": 60, "duration": 5, "velocity": 96}, {"time": 2369, "pitch": 65, "duration": 4, "velocity": 99}, {"time": 2372, "pitch": 41, "duration": 17, "velocity": 78}, {"time": 2375, "pitch": 48, "duration": 14, "velocity": 60}, {"time": 2378, "pitch": 53, "duration": 7, "velocity": 81}, {"time": 2381, "pitch": 57, "duration": 4, "velocity": 77}, {"time": 2384, "pitch": 65, "duration": 12, "velocity": 96}, {"time": 2387, "pitch": 53, "duration": 5, "velocity": 90}, {"time": 2390, "pitch": 57, "duration": 4, "velocity": 81}, {"time": 2393, "pitch": 60, "duration": 4, "velocity": 102}, {"time": 2396, "pitch": 46, "duration": 20, "velocity": 93}, {"time": 2396, "pitch": 57, "duration": 1, "velocity": 47}, {"time": 2399, "pitch": 58, "duration": 9, "velocity": 89}, {"time": 2402, "pitch": 61, "duration": 8, "velocity": 82}, {"time": 2405, "pitch": 65, "duration": 4, "velocity": 81}, {"time": 2408, "pitch": 70, "duration": 13, "velocity": 78}, {"time": 2411, "pitch": 58, "duration": 4, "velocity": 90}, {"time": 2414, "pitch": 61, "duration": 7, "velocity": 96}, {"time": 2417, "pitch": 65, "duration": 3, "velocity": 67}, {"time": 2420, "pitch": 42, "duration": 22, "velocity": 72}, {"time": 2423, "pitch": 54, "duration": 10, "velocity": 92}, {"time": 2426, "pitch": 58, "duration": 8, "velocity": 78}, {"time": 2429, "pitch": 61, "duration": 4, "velocity": 95}, {"time": 2432, "pitch": 66, "duration": 12, "velocity": 102}, {"time": 2435, "pitch": 54, "duration": 9, "velocity": 88}, {"time": 2438, "pitch": 58, "duration": 5, "velocity": 82}, {"time": 2441, "pitch": 61, "duration": 3, "velocity": 112}, {"time": 2444, "pitch": 44, "duration": 19, "velocity": 102}, {"time": 2447, "pitch": 56, "duration": 9, "velocity": 97}, {"time": 2450, "pitch": 60, "duration": 7, "velocity": 82}, {"time": 2453, "pitch": 63, "duration": 4, "velocity": 107}, {"time": 2456, "pitch": 68, "duration": 11, "velocity": 127}, {"time": 2459, "pitch": 56, "duration": 3, "velocity": 96}, {"time": 2462, "pitch": 60, "duration": 6, "velocity": 99}, {"time": 2465, "pitch": 63, "duration": 3, "velocity": 127}, {"time": 2468, "pitch": 37, "duration": 22, "velocity": 96}, {"time": 2471, "pitch": 44, "duration": 20, "velocity": 62}, {"time": 2474, "pitch": 49, "duration": 6, "velocity": 92}, {"time": 2477, "pitch": 56, "duration": 4, "velocity": 72}, {"time": 2480, "pitch": 65, "duration": 18, "velocity": 75}, {"time": 2483, "pitch": 49, "duration": 10, "velocity": 95}, {"time": 2486, "pitch": 56, "duration": 9, "velocity": 92}, {"time": 2489, "pitch": 61, "duration": 8, "velocity": 102}, {"time": 2492, "pitch": 37, "duration": 26, "velocity": 100}, {"time": 2495, "pitch": 44, "duration": 20, "velocity": 88}, {"time": 2498, "pitch": 49, "duration": 6, "velocity": 100}, {"time": 2501, "pitch": 56, "duration": 4, "velocity": 82}, {"time": 2504, "pitch": 61, "duration": 3, "velocity": 65}, {"time": 2504, "pitch": 65, "duration": 5, "velocity": 74}, {"time": 2507, "pitch": 49, "duration": 8, "velocity": 100}, {"time": 2510, "pitch": 56, "duration": 8, "velocity": 112}, {"time": 2510, "pitch": 61, "duration": 2, "velocity": 38}, {"time": 2510, "pitch": 65, "duration": 9, "velocity": 36}, {"time": 2513, "pitch": 61, "duration": 5, "velocity": 117}, {"time": 2516, "pitch": 37, "duration": 2, "velocity": 93}, {"time": 2519, "pitch": 49, "duration": 10, "velocity": 90}, {"time": 2522, "pitch": 56, "duration": 7, "velocity": 90}, {"time": 2525, "pitch": 61, "duration": 4, "velocity": 88}, {"time": 2528, "pitch": 44, "duration": 3, "velocity": 26}, {"time": 2528, "pitch": 65, "duration": 12, "velocity": 76}, {"time": 2531, "pitch": 49, "duration": 3, "velocity": 97}, {"time": 2534, "pitch": 56, "duration": 4, "velocity": 99}, {"time": 2537, "pitch": 61, "duration": 3, "velocity": 102}, {"time": 2540, "pitch": 36, "duration": 5, "velocity": 79}, {"time": 2543, "pitch": 48, "duration": 11, "velocity": 88}, {"time": 2546, "pitch": 60, "duration": 7, "velocity": 86}, {"time": 2549, "pitch": 65, "duration": 4, "velocity": 89}, {"time": 2552, "pitch": 68, "duration": 13, "velocity": 112}, {"time": 2555, "pitch": 53, "duration": 5, "velocity": 66}, {"time": 2558, "pitch": 60, "duration": 5, "velocity": 96}, {"time": 2561, "pitch": 65, "duration": 4, "velocity": 99}, {"time": 2564, "pitch": 41, "duration": 17, "velocity": 78}, {"time": 2567, "pitch": 48, "duration": 14, "velocity": 60}, {"time": 2570, "pitch": 53, "duration": 7, "velocity": 81}, {"time": 2573, "pitch": 57, "duration": 4, "velocity": 77}, {"time": 2576, "pitch": 65, "duration": 12, "velocity": 96}, {"time": 2579, "pitch": 53, "duration": 5, "velocity": 90}, {"time": 2582, "pitch": 57, "duration": 4, "velocity": 81}, {"time": 2585, "pitch": 60, "duration": 4, "velocity": 102}, {"time": 2588, "pitch": 46, "duration": 20, "velocity": 93}, {"time": 2588, "pitch": 57, "duration": 1, "velocity": 47}, {"time": 2591, "pitch": 58, "duration": 9, "velocity": 89}, {"time": 2594, "pitch": 61, "duration": 8, "velocity": 82}, {"time": 2597, "pitch": 65, "duration": 4, "velocity": 81}, {"time": 2600, "pitch": 70, "duration": 13, "velocity": 78}, {"time": 2603, "pitch": 58, "duration": 4, "velocity": 90}, {"time": 2606, "pitch": 61, "duration": 7, "velocity": 96}, {"time": 2609, "pitch": 65, "duration": 3, "velocity": 67}, {"time": 2612, "pitch": 42, "duration": 22, "velocity": 72}, {"time": 2615, "pitch": 54, "duration": 10, "velocity": 92}, {"time": 2618, "pitch": 58, "duration": 8, "velocity": 78}, {"time": 2621, "pitch": 61, "duration": 4, "velocity": 95}, {"time": 2624, "pitch": 66, "duration": 12, "velocity": 102}, {"time": 2627, "pitch": 54, "duration": 9, "velocity": 88}, {"time": 2630, "pitch": 58, "duration": 5, "velocity": 82}, {"time": 2633, "pitch": 61, "duration": 3, "velocity": 112}, {"time": 2636, "pitch": 44, "duration": 19, "velocity": 102}, {"time": 2639, "pitch": 56, "duration": 9, "velocity": 97}, {"time": 2642, "pitch": 60, "duration": 7, "velocity": 82}, {"time": 2645, "pitch": 63, "duration": 4, "velocity": 107}, {"time": 2648, "pitch": 68, "duration": 11, "velocity": 127}, {"time": 2651, "pitch": 56, "duration": 3, "velocity": 96}, {"time": 2654, "pitch": 60, "duration": 6, "velocity": 99}, {"time": 2657, "pitch": 63, "duration": 3, "velocity": 127}, {"time": 2660, "pitch": 37, "duration": 17, "velocity": 95}, {"time": 2663, "pitch": 49, "duration": 8, "velocity": 96}, {"time": 2666, "pitch": 56, "duration": 7, "velocity": 82}, {"time": 2669, "pitch": 61, "duration": 4, "velocity": 82}, {"time": 2672, "pitch": 65, "duration": 11, "velocity": 74}, {"time": 2675, "pitch": 49, "duration": 3, "velocity": 92}, {"time": 2678, "pitch": 56, "duration": 4, "velocity": 100}, {"time": 2681, "pitch": 61, "duration": 3, "velocity": 122}, {"time": 2684, "pitch": 41, "duration": 17, "velocity": 81}, {"time": 2687, "pitch": 48, "duration": 13, "velocity": 65}, {"time": 2690, "pitch": 53, "duration": 7, "velocity": 89}, {"time": 2693, "pitch": 60, "duration": 4, "velocity": 95}, {"time": 2696, "pitch": 69, "duration": 12, "velocity": 112}, {"time": 2699, "pitch": 53, "duration": 1, "velocity": 74}, {"time": 2702, "pitch": 60, "duration": 6, "velocity": 100}, {"time": 2705, "pitch": 65, "duration": 3, "velocity": 99}, {"time": 2708, "pitch": 37, "duration": 18, "velocity": 93}, {"time": 2711, "pitch": 49, "duration": 10, "velocity": 90}, {"time": 2714, "pitch": 56, "duration": 7, "velocity": 90}, {"time": 2717, "pitch": 61, "duration": 4, "velocity": 88}, {"time": 2720, "pitch": 44, "duration": 3, "velocity": 26}, {"time": 2720, "pitch": 65, "duration": 12, "velocity": 76}, {"time": 2723, "pitch": 49, "duration": 3, "velocity": 97}, {"time": 2726, "pitch": 56, "duration": 4, "velocity": 99}, {"time": 2729, "pitch": 61, "duration": 3, "velocity": 102}, {"time": 2732, "pitch": 36, "duration": 5, "velocity": 79}, {"time": 2735, "pitch": 48, "duration": 11, "velocity": 88}, {"time": 2738, "pitch": 60, "duration": 7, "velocity": 86}, {"time": 2741, "pitch": 65, "duration": 4, "velocity": 89}, {"time": 2744, "pitch": 68, "duration": 13, "velocity": 112}, {"time": 2747, "pitch": 53, "duration": 5, "velocity": 66}, {"time": 2750, "pitch": 60, "duration": 5, "velocity": 96}, {"time": 2753, "pitch": 65, "duration": 4, "velocity": 99}, {"time": 2756, "pitch": 41, "duration": 17, "velocity": 78}, {"time": 2759, "pitch": 48, "duration": 14, "velocity": 60}, {"time": 2762, "pitch": 53, "duration": 7, "velocity": 81}, {"time": 2765, "pitch": 57, "duration": 4, "velocity": 77}, {"time": 2768, "pitch": 65, "duration": 12, "velocity": 96}, {"time": 2771, "pitch": 53, "duration": 5, "velocity": 90}, {"time": 2774, "pitch": 57, "duration": 4, "velocity": 81}, {"time": 2777, "pitch": 60, "duration": 4, "velocity": 102}, {"time": 2780, "pitch": 46, "duration": 20, "velocity": 93}, {"time": 2780, "pitch": 57, "duration": 1, "velocity": 47}, {"time": 2783, "pitch": 58, "duration": 9, "velocity": 89}, {"time": 2786, "pitch": 61, "duration": 8, "velocity": 82}, {"time": 2789, "pitch": 65, "duration": 4, "velocity": 81}, {"time": 2792, "pitch": 70, "duration": 13, "velocity": 78}, {"time": 2795, "pitch": 58, "duration": 4, "velocity": 90}, {"time": 2798, "pitch": 61, "duration": 7, "velocity": 96}, {"time": 2801, "pitch": 65, "duration": 3, "velocity": 67}, {"time": 2804, "pitch": 42, "duration": 22, "velocity": 72}, {"time": 2807, "pitch": 54, "duration": 10, "velocity": 92}, {"time": 2810, "pitch": 58, "duration": 8, "velocity": 78}, {"time": 2813, "pitch": 61, "duration": 4, "velocity": 95}, {"time": 2816, "pitch": 66, "duration": 12, "velocity": 102}, {"time": 2819, "pitch": 54, "duration": 9, "velocity": 88}, {"time": 2822, "pitch": 58, "duration": 5, "velocity": 82}, {"time": 2825, "pitch": 61, "duration": 3, "velocity": 112}, {"time": 2828, "pitch": 44, "duration": 19, "velocity": 102}, {"time": 2831, "pitch": 56, "duration": 9, "velocity": 97}, {"time": 2834, "pitch": 60, "duration": 7, "velocity": 82}, {"time": 2837, "pitch": 63, "duration": 4, "velocity": 107}, {"time": 2840, "pitch": 68, "duration": 11, "velocity": 127}, {"time": 2843, "pitch": 56, "duration": 3, "velocity": 96}, {"time": 2846, "pitch": 60, "duration": 6, "velocity": 99}, {"time": 2849, "pitch": 63, "duration": 3, "velocity": 127}, {"time": 2852, "pitch": 37, "duration": 22, "velocity": 96}, {"time": 2855, "pitch": 44, "duration": 20, "velocity": 62}, {"time": 2858, "pitch": 49, "duration": 6, "velocity": 92}, {"time": 2861, "pitch": 56, "duration": 4, "velocity": 72}, {"time": 2864, "pitch": 65, "duration": 18, "velocity": 75}, {"time": 2867, "pitch": 49, "duration": 10, "velocity": 95}, {"time": 2870, "pitch": 56, "duration": 9, "velocity": 92}, {"time": 2873, "pitch": 61, "duration": 8, "velocity": 102}, {"time": 2876, "pitch": 37, "duration": 24, "velocity": 100}, {"time": 2879, "pitch": 44, "duration": 20, "velocity": 88}, {"time": 2882, "pitch": 49, "duration": 6, "velocity": 100}, {"time": 2885, "pitch": 56, "duration": 4, "velocity": 82}, {"time": 2888, "pitch": 61, "duration": 3, "velocity": 65}, {"time": 2888, "pitch": 65, "duration": 5, "velocity": 74}, {"time": 2891, "pitch": 49, "duration": 8, "velocity": 100}, {"time": 2894, "pitch": 56, "duration": 6, "velocity": 112}, {"time": 2894, "pitch": 61, "duration": 2, "velocity": 38}, {"time": 2894, "pitch": 65, "duration": 6, "velocity": 36}, {"time": 2897, "pitch": 61, "duration": 3, "velocity": 117}, {"time": 2900, "pitch": 42, "duration": 22, "velocity": 72}, {"time": 2903, "pitch": 54, "duration": 10, "velocity": 92}, {"time": 2906, "pitch": 58, "duration": 8, "velocity": 78}, {"time": 2909, "pitch": 61, "duration": 4, "velocity": 95}, {"time": 2912, "pitch": 66, "duration": 12, "velocity": 102}, {"time": 2915, "pitch": 54, "duration": 9, "velocity": 88}, {"time": 2918, "pitch": 58, "duration": 5, "velocity": 82}, {"time": 2921, "pitch": 61, "duration": 3, "velocity": 112}, {"time": 2924, "pitch": 44, "duration": 19, "velocity": 102}, {"time": 2927, "pitch": 56, "duration": 9, "velocity": 97}, {"time": 2930, "pitch": 60, "duration": 7, "velocity": 82}, {"time": 2933, "pitch": 63, "duration": 4, "velocity": 107}, {"time": 2936, "pitch": 68, "duration": 11, "velocity": 127}, {"time": 2939, "pitch": 56, "duration": 3, "velocity": 96}, {"time": 2942, "pitch": 60, "duration": 6, "velocity": 99}, {"time": 2945, "pitch": 63, "duration": 3, "velocity": 127}, {"time": 2948, "pitch": 37, "duration": 22, "velocity": 96}, {"time": 2951, "pitch": 44, "duration": 20, "velocity": 62}, {"time": 2954, "pitch": 49, "duration": 6, "velocity": 92}, {"time": 2957, "pitch": 56, "duration": 4, "velocity": 72}, {"time": 2960, "pitch": 65, "duration": 18, "velocity": 75}, {"time": 2963, "pitch": 49, "duration": 10, "velocity": 95}, {"time": 2966, "pitch": 56, "duration": 9, "velocity": 92}, {"time": 2969, "pitch": 61, "duration": 8, "velocity": 102}, {"time": 2972, "pitch": 37, "duration": 24, "velocity": 100}, {"time": 2975, "pitch": 44, "duration": 20, "velocity": 88}, {"time": 2978, "pitch": 49, "duration": 6, "velocity": 100}, {"time": 2981, "pitch": 56, "duration": 4, "velocity": 82}, {"time": 2984, "pitch": 61, "duration": 3, "velocity": 65}, {"time": 2984, "pitch": 65, "duration": 5, "velocity": 74}, {"time": 2987, "pitch": 49, "duration": 8, "velocity": 100}, {"time": 2990, "pitch": 56, "duration": 6, "velocity": 112}, {"time": 2990, "pitch": 61, "duration": 2, "velocity": 38}, {"time": 2990, "pitch": 65, "duration": 6, "velocity": 36}, {"time": 2993, "pitch": 61, "duration": 3, "velocity": 117}, {"time": 2996, "pitch": 39, "duration": 17, "velocity": 102}, {"time": 2996, "pitch": 63, "duration": 6, "velocity": 99}, {"time": 2996, "pitch": 66, "duration": 10, "velocity": 107}, {"time": 3002, "pitch": 51, "duration": 14, "velocity": 92}, {"time": 3005, "pitch": 63, "duration": 1, "velocity": 35}, {"time": 3008, "pitch": 70, "duration": 11, "velocity": 117}, {"time": 3020, "pitch": 44, "duration": 48, "velocity": 122}, {"time": 3026, "pitch": 56, "duration": 10, "velocity": 90}, {"time": 3032, "pitch": 63, "duration": 34, "velocity": 71}, {"time": 3035, "pitch": 68, "duration": 34, "velocity": 117}, {"time": 3067, "pitch": 37, "duration": 47, "velocity": 96}, {"time": 3074, "pitch": 49, "duration": 8, "velocity": 89}, {"time": 3080, "pitch": 65, "duration": 20, "velocity": 77}, {"time": 3086, "pitch": 49, "duration": 10, "velocity": 77}, {"time": 3092, "pitch": 61, "duration": 12, "velocity": 93}, {"time": 3098, "pitch": 49, "duration": 7, "velocity": 93}, {"time": 3104, "pitch": 65, "duration": 31, "velocity": 69}, {"time": 3107, "pitch": 49, "duration": 6, "velocity": 79}, {"time": 3110, "pitch": 61, "duration": 14, "velocity": 59}, {"time": 3116, "pitch": 37, "duration": 44, "velocity": 92}, {"time": 3122, "pitch": 49, "duration": 9, "velocity": 69}, {"time": 3128, "pitch": 61, "duration": 18, "velocity": 102}, {"time": 3134, "pitch": 44, "duration": 27, "velocity": 14}, {"time": 3134, "pitch": 49, "duration": 7, "velocity": 86}, {"time": 3140, "pitch": 65, "duration": 32, "velocity": 72}, {"time": 3146, "pitch": 49, "duration": 6, "velocity": 52}, {"time": 3152, "pitch": 61, "duration": 67, "velocity": 112}, {"time": 3155, "pitch": 49, "duration": 7, "velocity": 47}, {"time": 3158, "pitch": 56, "duration": 61, "velocity": 93}, {"time": 3176, "pitch": 37, "duration": 43, "velocity": 88}, {"time": 3176, "pitch": 49, "duration": 43, "velocity": 78}, {"time": 3180, "pitch": 65, "duration": 39, "velocity": 18}], "annotations": [{"time": 66, "annotation": {"number": 64, "value": 127}, "group": "control_change"}, {"time": 115, "annotation": {"number": 64, "value": 0}, "group": "control_change"}, {"time": 118, "annotation": {"number": 64, "value": 127}, "group": "control_change"}, {"time": 137, "annotation": {"number": 64, "value": 0}, "group": "control_change"}, {"time": 140, "annotation": {"number": 64, "value": 127}, "group": "control_change"}, {"time": 161, "annotation": {"number": 64, "value": 0}, "group": "control_change"}, {"time": 168, "annotation": {"number": 64, "value": 127}, "group": "control_change"}, {"time": 185, "annotation": {"number": 64, "value": 0}, "group": "control_change"}, {"time": 188, "annotation": {"number": 64, "value": 127}, "group": "control_change"}, {"time": 209, "annotation": {"number": 64, "value": 0}, "group": "control_change"}, {"time": 212, "annotation": {"number": 64, "value": 127}, "group": "control_change"}, {"time": 233, "annotation": {"number": 64, "value": 0}, "group": "control_change"}, {"time": 235, "annotation": {"number": 64, "value": 127}, "group": "control_change"}, {"time": 257, "annotation": {"number": 64, "value": 0}, "group": "control_change"}, {"time": 260, "annotation": {"number": 64, "value": 127}, "group": "control_change"}, {"time": 280, "annotation": {"number": 64, "value": 0}, "group": "control_change"}, {"time": 284, "annotation": {"number": 64, "value": 127}, "group": "control_change"}, {"time": 305, "annotation": {"number": 64, "value": 0}, "group": "control_change"}, {"time": 308, "annotation": {"number": 64, "value": 127}, "group": "control_change"}, {"time": 329, "annotation": {"number": 64, "value": 0}, "group": "control_change"}, {"time": 332, "annotation": {"number": 64, "value": 127}, "group": "control_change"}, {"time": 354, "annotation": {"number": 64, "value": 0}, "group": "control_change"}, {"time": 360, "annotation": {"number": 64, "value": 127}, "group": "control_change"}, {"time": 377, "annotation": {"number": 64, "value": 0}, "group": "control_change"}, {"time": 380, "annotation": {"number": 64, "value": 127}, "group": "control_change"}, {"time": 401, "annotation": {"number": 64, "value": 0}, "group": "control_change"}, {"time": 404, "annotation": {"number": 64, "value": 127}, "group": "control_change"}, {"time": 425, "annotation": {"number": 64, "value": 0}, "group": "control_change"}, {"time": 427, "annotation": {"number": 64, "value": 127}, "group": "control_change"}, {"time": 449, "annotation": {"number": 64, "value": 0}, "group": "control_change"}, {"time": 452, "annotation": {"number": 64, "value": 127}, "group": "control_change"}, {"time": 472, "annotation": {"number": 64, "value": 0}, "group": "control_change"}, {"time": 476, "annotation": {"number": 64, "value": 127}, "group": "control_change"}, {"time": 497, "annotation": {"number": 64, "value": 0}, "group": "control_change"}, {"time": 500, "annotation": {"number": 64, "value": 127}, "group": "control_change"}, {"time": 521, "annotation": {"number": 64, "value": 0}, "group": "control_change"}, {"time": 524, "annotation": {"number": 64, "value": 127}, "group": "control_change"}, {"time": 546, "annotation": {"number": 64, "value": 0}, "group": "control_change"}, {"time": 548, "annotation": {"number": 64, "value": 127}, "group": "control_change"}, {"time": 570, "annotation": {"number": 64, "value": 0}, "group": "control_change"}, {"time": 572, "annotation": {"number": 64, "value": 127}, "group": "control_change"}, {"time": 593, "annotation": {"number": 64, "value": 0}, "group": "control_change"}, {"time": 597, "annotation": {"number": 64, "value": 127}, "group": "control_change"}, {"time": 641, "annotation": {"number": 64, "value": 0}, "group": "control_change"}, {"time": 644, "annotation": {"number": 64, "value": 127}, "group": "control_change"}, {"time": 667, "annotation": {"number": 64, "value": 0}, "group": "control_change"}, {"time": 669, "annotation": {"number": 64, "value": 127}, "group": "control_change"}, {"time": 689, "annotation": {"number": 64, "value": 0}, "group": "control_change"}, {"time": 693, "annotation": {"number": 64, "value": 127}, "group": "control_change"}, {"time": 714, "annotation": {"number": 64, "value": 0}, "group": "control_change"}, {"time": 740, "annotation": {"number": 64, "value": 127}, "group": "control_change"}, {"time": 762, "annotation": {"number": 64, "value": 0}, "group": "control_change"}, {"time": 763, "annotation": {"number": 64, "value": 127}, "group": "control_change"}, {"time": 785, "annotation": {"number": 64, "value": 0}, "group": "control_change"}, {"time": 788, "annotation": {"number": 64, "value": 127}, "group": "control_change"}, {"time": 834, "annotation": {"number": 64, "value": 0}, "group": "control_change"}, {"time": 837, "annotation": {"number": 64, "value": 127}, "group": "control_change"}, {"time": 857, "annotation": {"number": 64, "value": 0}, "group": "control_change"}, {"time": 860, "annotation": {"number": 64, "value": 127}, "group": "control_change"}, {"time": 881, "annotation": {"number": 64, "value": 0}, "group": "control_change"}, {"time": 884, "annotation": {"number": 64, "value": 127}, "group": "control_change"}, {"time": 906, "annotation": {"number": 64, "value": 0}, "group": "control_change"}, {"time": 908, "annotation": {"number": 64, "value": 127}, "group": "control_change"}, {"time": 929, "annotation": {"number": 64, "value": 0}, "group": "control_change"}, {"time": 932, "annotation": {"number": 64, "value": 127}, "group": "control_change"}, {"time": 954, "annotation": {"number": 64, "value": 0}, "group": "control_change"}, {"time": 955, "annotation": {"number": 64, "value": 127}, "group": "control_change"}, {"time": 977, "annotation": {"number": 64, "value": 0}, "group": "control_change"}, {"time": 980, "annotation": {"number": 64, "value": 127}, "group": "control_change"}, {"time": 1026, "annotation": {"number": 64, "value": 0}, "group": "control_change"}, {"time": 1029, "annotation": {"number": 64, "value": 127}, "group": "control_change"}, {"time": 1049, "annotation": {"number": 64, "value": 0}, "group": "control_change"}, {"time": 1052, "annotation": {"number": 64, "value": 127}, "group": "control_change"}, {"time": 1073, "annotation": {"number": 64, "value": 0}, "group": "control_change"}, {"time": 1077, "annotation": {"number": 64, "value": 127}, "group": "control_change"}, {"time": 1099, "annotation": {"number": 64, "value": 0}, "group": "control_change"}, {"time": 1124, "annotation": {"number": 64, "value": 127}, "group": "control_change"}, {"time": 1146, "annotation": {"number": 64, "value": 0}, "group": "control_change"}, {"time": 1148, "annotation": {"number": 64, "value": 127}, "group": "control_change"}, {"time": 1170, "annotation": {"number": 64, "value": 0}, "group": "control_change"}, {"time": 1173, "annotation": {"number": 64, "value": 127}, "group": "control_change"}, {"time": 1194, "annotation": {"number": 64, "value": 0}, "group": "control_change"}, {"time": 1197, "annotation": {"number": 64, "value": 127}, "group": "control_change"}, {"time": 1217, "annotation": {"number": 64, "value": 0}, "group": "control_change"}, {"time": 1221, "annotation": {"number": 64, "value": 127}, "group": "control_change"}, {"time": 1240, "annotation": {"number": 64, "value": 0}, "group": "control_change"}, {"time": 1244, "annotation": {"number": 64, "value": 127}, "group": "control_change"}, {"time": 1265, "annotation": {"number": 64, "value": 0}, "group": "control_change"}, {"time": 1268, "annotation": {"number": 64, "value": 127}, "group": "control_change"}, {"time": 1289, "annotation": {"number": 64, "value": 0}, "group": "control_change"}, {"time": 1292, "annotation": {"number": 64, "value": 127}, "group": "control_change"}, {"time": 1314, "annotation": {"number": 64, "value": 0}, "group": "control_change"}, {"time": 1316, "annotation": {"number": 64, "value": 127}, "group": "control_change"}, {"time": 1338, "annotation": {"number": 64, "value": 0}, "group": "control_change"}, {"time": 1340, "annotation": {"number": 64, "value": 127}, "group": "control_change"}, {"time": 1362, "annotation": {"number": 64, "value": 0}, "group": "control_change"}, {"time": 1365, "annotation": {"number": 64, "value": 127}, "group": "control_change"}, {"time": 1386, "annotation": {"number": 64, "value": 0}, "group": "control_change"}, {"time": 1389, "annotation": {"number": 64, "value": 127}, "group": "control_change"}, {"time": 1409, "annotation": {"number": 64, "value": 0}, "group": "control_change"}, {"time": 1413, "annotation": {"number": 64, "value": 127}, "group": "control_change"}, {"time": 1432, "annotation": {"number": 64, "value": 0}, "group": "control_change"}, {"time": 1436, "annotation": {"number": 64, "value": 127}, "group": "control_change"}, {"time": 1457, "annotation": {"number": 64, "value": 0}, "group": "control_change"}, {"time": 1459, "annotation": {"number": 64, "value": 127}, "group": "control_change"}, {"time": 1480, "annotation": {"number": 64, "value": 0}, "group": "control_change"}, {"time": 1483, "annotation": {"number": 64, "value": 127}, "group": "control_change"}, {"time": 1503, "annotation": {"number": 64, "value": 0}, "group": "control_change"}, {"time": 1515, "annotation": {"number": 64, "value": 127}, "group": "control_change"}, {"time": 1529, "annotation": {"number": 64, "value": 0}, "group": "control_change"}, {"time": 1532, "annotation": {"number": 64, "value": 127}, "group": "control_change"}, {"time": 1548, "annotation": {"number": 64, "value": 0}, "group": "control_change"}, {"time": 1560, "annotation": {"number": 64, "value": 127}, "group": "control_change"}, {"time": 1577, "annotation": {"number": 64, "value": 0}, "group": "control_change"}, {"time": 1580, "annotation": {"number": 64, "value": 127}, "group": "control_change"}, {"time": 1601, "annotation": {"number": 64, "value": 0}, "group": "control_change"}, {"time": 1604, "annotation": {"number": 64, "value": 127}, "group": "control_change"}, {"time": 1625, "annotation": {"number": 64, "value": 0}, "group": "control_change"}, {"time": 1627, "annotation": {"number": 64, "value": 127}, "group": "control_change"}, {"time": 1649, "annotation": {"number": 64, "value": 0}, "group": "control_change"}, {"time": 1652, "annotation": {"number": 64, "value": 127}, "group": "control_change"}, {"time": 1672, "annotation": {"number": 64, "value": 0}, "group": "control_change"}, {"time": 1676, "annotation": {"number": 64, "value": 127}, "group": "control_change"}, {"time": 1697, "annotation": {"number": 64, "value": 0}, "group": "control_change"}, {"time": 1700, "annotation": {"number": 64, "value": 127}, "group": "control_change"}, {"time": 1721, "annotation": {"number": 64, "value": 0}, "group": "control_change"}, {"time": 1724, "annotation": {"number": 64, "value": 127}, "group": "control_change"}, {"time": 1746, "annotation": {"number": 64, "value": 0}, "group": "control_change"}, {"time": 1752, "annotation": {"number": 64, "value": 127}, "group": "control_change"}, {"time": 1769, "annotation": {"number": 64, "value": 0}, "group": "control_change"}, {"time": 1772, "annotation": {"number": 64, "value": 127}, "group": "control_change"}, {"time": 1793, "annotation": {"number": 64, "value": 0}, "group": "control_change"}, {"time": 1796, "annotation": {"number": 64, "value": 127}, "group": "control_change"}, {"time": 1817, "annotation": {"number": 64, "value": 0}, "group": "control_change"}, {"time": 1819, "annotation": {"number": 64, "value": 127}, "group": "control_change"}, {"time": 1841, "annotation": {"number": 64, "value": 0}, "group": "control_change"}, {"time": 1844, "annotation": {"number": 64, "value": 127}, "group": "control_change"}, {"time": 1864, "annotation": {"number": 64, "value": 0}, "group": "control_change"}, {"time": 1868, "annotation": {"number": 64, "value": 127}, "group": "control_change"}, {"time": 1889, "annotation": {"number": 64, "value": 0}, "group": "control_change"}, {"time": 1892, "annotation": {"number": 64, "value": 127}, "group": "control_change"}, {"time": 1913, "annotation": {"number": 64, "value": 0}, "group": "control_change"}, {"time": 1916, "annotation": {"number": 64, "value": 127}, "group": "control_change"}, {"time": 1938, "annotation": {"number": 64, "value": 0}, "group": "control_change"}, {"time": 1940, "annotation": {"number": 64, "value": 127}, "group": "control_change"}, {"time": 1962, "annotation": {"number": 64, "value": 0}, "group": "control_change"}, {"time": 1964, "annotation": {"number": 64, "value": 127}, "group": "control_change"}, {"time": 1985, "annotation": {"number": 64, "value": 0}, "group": "control_change"}, {"time": 1989, "annotation": {"number": 64, "value": 127}, "group": "control_change"}, {"time": 2033, "annotation": {"number": 64, "value": 0}, "group": "control_change"}, {"time": 2036, "annotation": {"number": 64, "value": 127}, "group": "control_change"}, {"time": 2059, "annotation": {"number": 64, "value": 0}, "group": "control_change"}, {"time": 2061, "annotation": {"number": 64, "value": 127}, "group": "control_change"}, {"time": 2081, "annotation": {"number": 64, "value": 0}, "group": "control_change"}, {"time": 2085, "annotation": {"number": 64, "value": 127}, "group": "control_change"}, {"time": 2106, "annotation": {"number": 64, "value": 0}, "group": "control_change"}, {"time": 2132, "annotation": {"number": 64, "value": 127}, "group": "control_change"}, {"time": 2154, "annotation": {"number": 64, "value": 0}, "group": "control_change"}, {"time": 2155, "annotation": {"number": 64, "value": 127}, "group": "control_change"}, {"time": 2177, "annotation": {"number": 64, "value": 0}, "group": "control_change"}, {"time": 2180, "annotation": {"number": 64, "value": 127}, "group": "control_change"}, {"time": 2226, "annotation": {"number": 64, "value": 0}, "group": "control_change"}, {"time": 2229, "annotation": {"number": 64, "value": 127}, "group": "control_change"}, {"time": 2249, "annotation": {"number": 64, "value": 0}, "group": "control_change"}, {"time": 2252, "annotation": {"number": 64, "value": 127}, "group": "control_change"}, {"time": 2273, "annotation": {"number": 64, "value": 0}, "group": "control_change"}, {"time": 2276, "annotation": {"number": 64, "value": 127}, "group": "control_change"}, {"time": 2298, "annotation": {"number": 64, "value": 0}, "group": "control_change"}, {"time": 2300, "annotation": {"number": 64, "value": 127}, "group": "control_change"}, {"time": 2321, "annotation": {"number": 64, "value": 0}, "group": "control_change"}, {"time": 2324, "annotation": {"number": 64, "value": 127}, "group": "control_change"}, {"time": 2346, "annotation": {"number": 64, "value": 0}, "group": "control_change"}, {"time": 2347, "annotation": {"number": 64, "value": 127}, "group": "control_change"}, {"time": 2369, "annotation": {"number": 64, "value": 0}, "group": "control_change"}, {"time": 2372, "annotation": {"number": 64, "value": 127}, "group": "control_change"}, {"time": 2418, "annotation": {"number": 64, "value": 0}, "group": "control_change"}, {"time": 2421, "annotation": {"number": 64, "value": 127}, "group": "control_change"}, {"time": 2441, "annotation": {"number": 64, "value": 0}, "group": "control_change"}, {"time": 2444, "annotation": {"number": 64, "value": 127}, "group": "control_change"}, {"time": 2465, "annotation": {"number": 64, "value": 0}, "group": "control_change"}, {"time": 2468, "annotation": {"number": 64, "value": 127}, "group": "control_change"}, {"time": 2490, "annotation": {"number": 64, "value": 0}, "group": "control_change"}, {"time": 2492, "annotation": {"number": 64, "value": 127}, "group": "control_change"}, {"time": 2512, "annotation": {"number": 64, "value": 0}, "group": "control_change"}, {"time": 2516, "annotation": {"number": 64, "value": 127}, "group": "control_change"}, {"time": 2538, "annotation": {"number": 64, "value": 0}, "group": "control_change"}, {"time": 2539, "annotation": {"number": 64, "value": 127}, "group": "control_change"}, {"time": 2561, "annotation": {"number": 64, "value": 0}, "group": "control_change"}, {"time": 2564, "annotation": {"number": 64, "value": 127}, "group": "control_change"}, {"time": 2610, "annotation": {"number": 64, "value": 0}, "group": "control_change"}, {"time": 2613, "annotation": {"number": 64, "value": 127}, "group": "control_change"}, {"time": 2633, "annotation": {"number": 64, "value": 0}, "group": "control_change"}, {"time": 2636, "annotation": {"number": 64, "value": 127}, "group": "control_change"}, {"time": 2657, "annotation": {"number": 64, "value": 0}, "group": "control_change"}, {"time": 2660, "annotation": {"number": 64, "value": 127}, "group": "control_change"}, {"time": 2682, "annotation": {"number": 64, "value": 0}, "group": "control_change"}, {"time": 2684, "annotation": {"number": 64, "value": 127}, "group": "control_change"}, {"time": 2705, "annotation": {"number": 64, "value": 0}, "group": "control_change"}, {"time": 2708, "annotation": {"number": 64, "value": 127}, "group": "control_change"}, {"time": 2730, "annotation": {"number": 64, "value": 0}, "group": "control_change"}, {"time": 2731, "annotation": {"number": 64, "value": 127}, "group": "control_change"}, {"time": 2753, "annotation": {"number": 64, "value": 0}, "group": "control_change"}, {"time": 2756, "annotation": {"number": 64, "value": 127}, "group": "control_change"}, {"time": 2802, "annotation": {"number": 64, "value": 0}, "group": "control_change"}, {"time": 2805, "annotation": {"number": 64, "value": 127}, "group": "control_change"}, {"time": 2825, "annotation": {"number": 64, "value": 0}, "group": "control_change"}, {"time": 2828, "annotation": {"number": 64, "value": 127}, "group": "control_change"}, {"time": 2849, "annotation": {"number": 64, "value": 0}, "group": "control_change"}, {"time": 2852, "annotation": {"number": 64, "value": 127}, "group": "control_change"}, {"time": 2874, "annotation": {"number": 64, "value": 0}, "group": "control_change"}, {"time": 2876, "annotation": {"number": 64, "value": 127}, "group": "control_change"}, {"time": 2896, "annotation": {"number": 64, "value": 0}, "group": "control_change"}, {"time": 2901, "annotation": {"number": 64, "value": 127}, "group": "control_change"}, {"time": 2921, "annotation": {"number": 64, "value": 0}, "group": "control_change"}, {"time": 2924, "annotation": {"number": 64, "value": 127}, "group": "control_change"}, {"time": 2945, "annotation": {"number": 64, "value": 0}, "group": "control_change"}, {"time": 2948, "annotation": {"number": 64, "value": 127}, "group": "control_change"}, {"time": 2970, "annotation": {"number": 64, "value": 0}, "group": "control_change"}, {"time": 2972, "annotation": {"number": 64, "value": 127}, "group": "control_change"}, {"time": 2992, "annotation": {"number": 64, "value": 0}, "group": "control_change"}, {"time": 2996, "annotation": {"number": 64, "value": 127}, "group": "control_change"}, {"time": 3018, "annotation": {"number": 64, "value": 0}, "group": "control_change"}, {"time": 3021, "annotation": {"number": 64, "value": 127}, "group": "control_change"}, {"time": 3068, "annotation": {"number": 64, "value": 0}, "group": "control_change"}, {"time": 3068, "annotation": {"number": 64, "value": 127}, "group": "control_change"}, {"time": 3113, "annotation": {"number": 64, "value": 0}, "group": "control_change"}, {"time": 3117, "annotation": {"number": 64, "value": 127}, "group": "control_change"}, {"time": 3138, "annotation": {"number": 64, "value": 0}, "group": "control_change"}, {"time": 3142, "annotation": {"number": 64, "value": 127}, "group": "control_change"}, {"time": 3176, "annotation": {"number": 64, "value": 0}, "group": "control_change"}, {"time": 3200, "annotation": {"number": 64, "value": 127}, "group": "control_change"}, {"time": 3234, "annotation": {"number": 64, "value": 0}, "group": "control_change"}, {"time": 3235, "annotation": {"number": 64, "value": 127}, "group": "control_change"}, {"time": 3237, "annotation": {"number": 64, "value": 0}, "group": "control_change"}, {"time": 3238, "annotation": {"number": 64, "value": 127}, "group": "control_change"}, {"time": 3240, "annotation": {"number": 64, "value": 0}, "group": "control_change"}]}]}