{"metadata": {"schema_version": "0.2", "title": "None", "source_filename": "357.mid", "source_format": "midi"}, "resolution": 12, "tempos": [{"time": 0, "qpm": 75.99996960001216}], "time_signatures": [{"time": 0, "numerator": 1, "denominator": 4}], "tracks": [{"program": 4, "is_drum": false, "name": "MELODY", "notes": [{"time": 147, "pitch": 62, "duration": 3, "velocity": 92}, {"time": 153, "pitch": 62, "duration": 3, "velocity": 90}, {"time": 159, "pitch": 62, "duration": 3, "velocity": 93}, {"time": 165, "pitch": 62, "duration": 2, "velocity": 86}, {"time": 168, "pitch": 65, "duration": 9, "velocity": 96}, {"time": 177, "pitch": 65, "duration": 1, "velocity": 112}, {"time": 183, "pitch": 65, "duration": 1, "velocity": 99}, {"time": 186, "pitch": 63, "duration": 8, "velocity": 102}, {"time": 195, "pitch": 62, "duration": 8, "velocity": 89}, {"time": 243, "pitch": 58, "duration": 3, "velocity": 100}, {"time": 249, "pitch": 58, "duration": 3, "velocity": 95}, {"time": 255, "pitch": 58, "duration": 3, "velocity": 93}, {"time": 261, "pitch": 58, "duration": 1, "velocity": 99}, {"time": 264, "pitch": 60, "duration": 8, "velocity": 93}, {"time": 273, "pitch": 60, "duration": 3, "velocity": 90}, {"time": 279, "pitch": 58, "duration": 2, "velocity": 99}, {"time": 282, "pitch": 60, "duration": 8, "velocity": 90}, {"time": 291, "pitch": 62, "duration": 20, "velocity": 99}, {"time": 339, "pitch": 62, "duration": 3, "velocity": 99}, {"time": 345, "pitch": 62, "duration": 3, "velocity": 96}, {"time": 351, "pitch": 62, "duration": 3, "velocity": 96}, {"time": 357, "pitch": 62, "duration": 4, "velocity": 93}, {"time": 363, "pitch": 65, "duration": 4, "velocity": 93}, {"time": 369, "pitch": 65, "duration": 2, "velocity": 100}, {"time": 375, "pitch": 65, "duration": 1, "velocity": 99}, {"time": 381, "pitch": 63, "duration": 2, "velocity": 117}, {"time": 384, "pitch": 62, "duration": 13, "velocity": 90}, {"time": 435, "pitch": 58, "duration": 3, "velocity": 97}, {"time": 441, "pitch": 58, "duration": 3, "velocity": 97}, {"time": 447, "pitch": 58, "duration": 3, "velocity": 99}, {"time": 453, "pitch": 58, "duration": 1, "velocity": 100}, {"time": 456, "pitch": 60, "duration": 8, "velocity": 93}, {"time": 465, "pitch": 60, "duration": 6, "velocity": 107}, {"time": 474, "pitch": 58, "duration": 2, "velocity": 97}, {"time": 477, "pitch": 57, "duration": 5, "velocity": 92}, {"time": 483, "pitch": 58, "duration": 30, "velocity": 90}, {"time": 531, "pitch": 62, "duration": 2, "velocity": 97}, {"time": 537, "pitch": 62, "duration": 2, "velocity": 89}, {"time": 543, "pitch": 62, "duration": 3, "velocity": 88}, {"time": 549, "pitch": 62, "duration": 3, "velocity": 97}, {"time": 555, "pitch": 65, "duration": 5, "velocity": 100}, {"time": 561, "pitch": 65, "duration": 4, "velocity": 122}, {"time": 567, "pitch": 65, "duration": 4, "velocity": 97}, {"time": 573, "pitch": 65, "duration": 4, "velocity": 107}, {"time": 579, "pitch": 67, "duration": 9, "velocity": 122}, {"time": 597, "pitch": 65, "duration": 2, "velocity": 100}, {"time": 600, "pitch": 62, "duration": 13, "velocity": 92}, {"time": 627, "pitch": 63, "duration": 4, "velocity": 117}, {"time": 633, "pitch": 63, "duration": 4, "velocity": 99}, {"time": 639, "pitch": 63, "duration": 4, "velocity": 112}, {"time": 645, "pitch": 63, "duration": 4, "velocity": 102}, {"time": 651, "pitch": 65, "duration": 4, "velocity": 99}, {"time": 657, "pitch": 65, "duration": 5, "velocity": 99}, {"time": 666, "pitch": 60, "duration": 3, "velocity": 93}, {"time": 669, "pitch": 58, "duration": 5, "velocity": 88}, {"time": 675, "pitch": 60, "duration": 18, "velocity": 86}, {"time": 723, "pitch": 62, "duration": 3, "velocity": 96}, {"time": 729, "pitch": 62, "duration": 4, "velocity": 95}, {"time": 735, "pitch": 62, "duration": 3, "velocity": 96}, {"time": 741, "pitch": 62, "duration": 4, "velocity": 95}, {"time": 747, "pitch": 65, "duration": 4, "velocity": 97}, {"time": 753, "pitch": 65, "duration": 3, "velocity": 90}, {"time": 759, "pitch": 65, "duration": 3, "velocity": 96}, {"time": 765, "pitch": 65, "duration": 4, "velocity": 97}, {"time": 771, "pitch": 67, "duration": 8, "velocity": 102}, {"time": 792, "pitch": 65, "duration": 2, "velocity": 77}, {"time": 795, "pitch": 62, "duration": 7, "velocity": 99}, {"time": 819, "pitch": 58, "duration": 3, "velocity": 107}, {"time": 825, "pitch": 58, "duration": 3, "velocity": 93}, {"time": 831, "pitch": 58, "duration": 3, "velocity": 97}, {"time": 837, "pitch": 58, "duration": 4, "velocity": 102}, {"time": 843, "pitch": 60, "duration": 5, "velocity": 97}, {"time": 849, "pitch": 60, "duration": 6, "velocity": 95}, {"time": 858, "pitch": 58, "duration": 3, "velocity": 89}, {"time": 861, "pitch": 57, "duration": 5, "velocity": 79}, {"time": 867, "pitch": 58, "duration": 21, "velocity": 93}, {"time": 897, "pitch": 58, "duration": 5, "velocity": 95}, {"time": 903, "pitch": 62, "duration": 5, "velocity": 99}, {"time": 909, "pitch": 65, "duration": 6, "velocity": 100}, {"time": 915, "pitch": 67, "duration": 14, "velocity": 100}, {"time": 927, "pitch": 67, "duration": 2, "velocity": 93}, {"time": 933, "pitch": 67, "duration": 4, "velocity": 99}, {"time": 939, "pitch": 67, "duration": 6, "velocity": 99}, {"time": 951, "pitch": 67, "duration": 5, "velocity": 107}, {"time": 957, "pitch": 62, "duration": 5, "velocity": 86}, {"time": 963, "pitch": 65, "duration": 7, "velocity": 92}, {"time": 975, "pitch": 62, "duration": 4, "velocity": 102}, {"time": 981, "pitch": 60, "duration": 2, "velocity": 76}, {"time": 984, "pitch": 58, "duration": 8, "velocity": 82}, {"time": 999, "pitch": 58, "duration": 4, "velocity": 107}, {"time": 1005, "pitch": 58, "duration": 1, "velocity": 102}, {"time": 1008, "pitch": 60, "duration": 6, "velocity": 99}, {"time": 1023, "pitch": 60, "duration": 3, "velocity": 93}, {"time": 1029, "pitch": 60, "duration": 1, "velocity": 78}, {"time": 1032, "pitch": 62, "duration": 9, "velocity": 90}, {"time": 1041, "pitch": 60, "duration": 8, "velocity": 88}, {"time": 1053, "pitch": 60, "duration": 9, "velocity": 100}, {"time": 1065, "pitch": 60, "duration": 20, "velocity": 99}, {"time": 1089, "pitch": 58, "duration": 4, "velocity": 96}, {"time": 1095, "pitch": 62, "duration": 6, "velocity": 97}, {"time": 1101, "pitch": 65, "duration": 5, "velocity": 95}, {"time": 1107, "pitch": 67, "duration": 7, "velocity": 97}, {"time": 1119, "pitch": 67, "duration": 4, "velocity": 102}, {"time": 1125, "pitch": 67, "duration": 3, "velocity": 93}, {"time": 1131, "pitch": 67, "duration": 8, "velocity": 117}, {"time": 1143, "pitch": 67, "duration": 4, "velocity": 100}, {"time": 1149, "pitch": 62, "duration": 6, "velocity": 96}, {"time": 1155, "pitch": 65, "duration": 7, "velocity": 92}, {"time": 1167, "pitch": 62, "duration": 5, "velocity": 107}, {"time": 1173, "pitch": 60, "duration": 2, "velocity": 83}, {"time": 1176, "pitch": 58, "duration": 10, "velocity": 95}, {"time": 1191, "pitch": 58, "duration": 4, "velocity": 97}, {"time": 1197, "pitch": 58, "duration": 1, "velocity": 96}, {"time": 1200, "pitch": 60, "duration": 9, "velocity": 92}, {"time": 1215, "pitch": 60, "duration": 3, "velocity": 93}, {"time": 1221, "pitch": 60, "duration": 2, "velocity": 85}, {"time": 1224, "pitch": 62, "duration": 8, "velocity": 85}, {"time": 1233, "pitch": 60, "duration": 3, "velocity": 90}, {"time": 1242, "pitch": 62, "duration": 2, "velocity": 81}, {"time": 1245, "pitch": 60, "duration": 5, "velocity": 88}, {"time": 1257, "pitch": 58, "duration": 31, "velocity": 93}, {"time": 1683, "pitch": 62, "duration": 3, "velocity": 92}, {"time": 1689, "pitch": 62, "duration": 3, "velocity": 90}, {"time": 1695, "pitch": 62, "duration": 3, "velocity": 93}, {"time": 1701, "pitch": 62, "duration": 2, "velocity": 86}, {"time": 1704, "pitch": 65, "duration": 9, "velocity": 96}, {"time": 1713, "pitch": 65, "duration": 1, "velocity": 112}, {"time": 1719, "pitch": 65, "duration": 1, "velocity": 99}, {"time": 1722, "pitch": 63, "duration": 8, "velocity": 102}, {"time": 1731, "pitch": 62, "duration": 8, "velocity": 89}, {"time": 1779, "pitch": 58, "duration": 3, "velocity": 100}, {"time": 1785, "pitch": 58, "duration": 3, "velocity": 95}, {"time": 1791, "pitch": 58, "duration": 3, "velocity": 93}, {"time": 1797, "pitch": 58, "duration": 1, "velocity": 99}, {"time": 1800, "pitch": 60, "duration": 8, "velocity": 93}, {"time": 1809, "pitch": 60, "duration": 3, "velocity": 90}, {"time": 1815, "pitch": 58, "duration": 2, "velocity": 99}, {"time": 1818, "pitch": 60, "duration": 8, "velocity": 90}, {"time": 1827, "pitch": 62, "duration": 20, "velocity": 99}, {"time": 1875, "pitch": 62, "duration": 3, "velocity": 99}, {"time": 1881, "pitch": 62, "duration": 3, "velocity": 96}, {"time": 1887, "pitch": 62, "duration": 3, "velocity": 96}, {"time": 1893, "pitch": 62, "duration": 4, "velocity": 93}, {"time": 1899, "pitch": 65, "duration": 4, "velocity": 93}, {"time": 1905, "pitch": 65, "duration": 2, "velocity": 100}, {"time": 1911, "pitch": 65, "duration": 1, "velocity": 99}, {"time": 1917, "pitch": 63, "duration": 2, "velocity": 117}, {"time": 1920, "pitch": 62, "duration": 13, "velocity": 90}, {"time": 1971, "pitch": 58, "duration": 3, "velocity": 97}, {"time": 1977, "pitch": 58, "duration": 3, "velocity": 97}, {"time": 1983, "pitch": 58, "duration": 3, "velocity": 99}, {"time": 1989, "pitch": 58, "duration": 1, "velocity": 100}, {"time": 1992, "pitch": 60, "duration": 8, "velocity": 93}, {"time": 2001, "pitch": 60, "duration": 6, "velocity": 107}, {"time": 2010, "pitch": 58, "duration": 2, "velocity": 97}, {"time": 2013, "pitch": 57, "duration": 5, "velocity": 92}, {"time": 2019, "pitch": 58, "duration": 30, "velocity": 90}, {"time": 2067, "pitch": 62, "duration": 2, "velocity": 97}, {"time": 2073, "pitch": 62, "duration": 2, "velocity": 89}, {"time": 2079, "pitch": 62, "duration": 3, "velocity": 88}, {"time": 2085, "pitch": 62, "duration": 3, "velocity": 97}, {"time": 2091, "pitch": 65, "duration": 5, "velocity": 100}, {"time": 2097, "pitch": 65, "duration": 4, "velocity": 122}, {"time": 2103, "pitch": 65, "duration": 4, "velocity": 97}, {"time": 2109, "pitch": 65, "duration": 4, "velocity": 107}, {"time": 2115, "pitch": 67, "duration": 9, "velocity": 122}, {"time": 2133, "pitch": 65, "duration": 2, "velocity": 100}, {"time": 2136, "pitch": 62, "duration": 13, "velocity": 92}, {"time": 2163, "pitch": 63, "duration": 4, "velocity": 117}, {"time": 2169, "pitch": 63, "duration": 4, "velocity": 99}, {"time": 2175, "pitch": 63, "duration": 4, "velocity": 112}, {"time": 2181, "pitch": 63, "duration": 4, "velocity": 102}, {"time": 2187, "pitch": 65, "duration": 4, "velocity": 99}, {"time": 2193, "pitch": 65, "duration": 5, "velocity": 99}, {"time": 2202, "pitch": 60, "duration": 3, "velocity": 93}, {"time": 2205, "pitch": 58, "duration": 5, "velocity": 88}, {"time": 2211, "pitch": 60, "duration": 18, "velocity": 86}, {"time": 2259, "pitch": 62, "duration": 3, "velocity": 96}, {"time": 2265, "pitch": 62, "duration": 4, "velocity": 95}, {"time": 2271, "pitch": 62, "duration": 3, "velocity": 96}, {"time": 2277, "pitch": 62, "duration": 4, "velocity": 95}, {"time": 2283, "pitch": 65, "duration": 4, "velocity": 97}, {"time": 2289, "pitch": 65, "duration": 3, "velocity": 90}, {"time": 2295, "pitch": 65, "duration": 3, "velocity": 96}, {"time": 2301, "pitch": 65, "duration": 4, "velocity": 97}, {"time": 2307, "pitch": 67, "duration": 8, "velocity": 102}, {"time": 2328, "pitch": 65, "duration": 2, "velocity": 77}, {"time": 2331, "pitch": 62, "duration": 7, "velocity": 99}, {"time": 2355, "pitch": 58, "duration": 3, "velocity": 107}, {"time": 2361, "pitch": 58, "duration": 3, "velocity": 93}, {"time": 2367, "pitch": 58, "duration": 3, "velocity": 97}, {"time": 2373, "pitch": 58, "duration": 4, "velocity": 102}, {"time": 2379, "pitch": 60, "duration": 5, "velocity": 97}, {"time": 2385, "pitch": 60, "duration": 6, "velocity": 95}, {"time": 2394, "pitch": 58, "duration": 3, "velocity": 89}, {"time": 2397, "pitch": 57, "duration": 5, "velocity": 79}, {"time": 2403, "pitch": 58, "duration": 21, "velocity": 93}, {"time": 2433, "pitch": 58, "duration": 5, "velocity": 95}, {"time": 2439, "pitch": 62, "duration": 5, "velocity": 99}, {"time": 2445, "pitch": 65, "duration": 6, "velocity": 100}, {"time": 2451, "pitch": 67, "duration": 14, "velocity": 100}, {"time": 2463, "pitch": 67, "duration": 2, "velocity": 93}, {"time": 2469, "pitch": 67, "duration": 4, "velocity": 99}, {"time": 2475, "pitch": 67, "duration": 6, "velocity": 99}, {"time": 2487, "pitch": 67, "duration": 5, "velocity": 107}, {"time": 2493, "pitch": 62, "duration": 5, "velocity": 86}, {"time": 2499, "pitch": 65, "duration": 7, "velocity": 92}, {"time": 2511, "pitch": 62, "duration": 4, "velocity": 102}, {"time": 2517, "pitch": 60, "duration": 2, "velocity": 76}, {"time": 2520, "pitch": 58, "duration": 8, "velocity": 82}, {"time": 2535, "pitch": 58, "duration": 4, "velocity": 107}, {"time": 2541, "pitch": 58, "duration": 1, "velocity": 102}, {"time": 2544, "pitch": 60, "duration": 6, "velocity": 99}, {"time": 2559, "pitch": 60, "duration": 3, "velocity": 93}, {"time": 2565, "pitch": 60, "duration": 1, "velocity": 78}, {"time": 2568, "pitch": 62, "duration": 9, "velocity": 90}, {"time": 2577, "pitch": 60, "duration": 8, "velocity": 88}, {"time": 2589, "pitch": 60, "duration": 9, "velocity": 100}, {"time": 2601, "pitch": 60, "duration": 20, "velocity": 99}, {"time": 2625, "pitch": 58, "duration": 4, "velocity": 96}, {"time": 2631, "pitch": 62, "duration": 6, "velocity": 97}, {"time": 2637, "pitch": 65, "duration": 5, "velocity": 95}, {"time": 2643, "pitch": 67, "duration": 7, "velocity": 97}, {"time": 2655, "pitch": 67, "duration": 4, "velocity": 102}, {"time": 2661, "pitch": 67, "duration": 3, "velocity": 93}, {"time": 2667, "pitch": 67, "duration": 8, "velocity": 117}, {"time": 2679, "pitch": 67, "duration": 4, "velocity": 100}, {"time": 2685, "pitch": 62, "duration": 6, "velocity": 96}, {"time": 2691, "pitch": 65, "duration": 7, "velocity": 92}, {"time": 2703, "pitch": 62, "duration": 5, "velocity": 107}, {"time": 2709, "pitch": 60, "duration": 2, "velocity": 83}, {"time": 2712, "pitch": 58, "duration": 10, "velocity": 95}, {"time": 2727, "pitch": 58, "duration": 4, "velocity": 97}, {"time": 2733, "pitch": 58, "duration": 1, "velocity": 96}, {"time": 2736, "pitch": 60, "duration": 9, "velocity": 92}, {"time": 2751, "pitch": 60, "duration": 3, "velocity": 93}, {"time": 2757, "pitch": 60, "duration": 2, "velocity": 85}, {"time": 2760, "pitch": 62, "duration": 8, "velocity": 85}, {"time": 2769, "pitch": 60, "duration": 3, "velocity": 90}, {"time": 2778, "pitch": 62, "duration": 2, "velocity": 81}, {"time": 2781, "pitch": 60, "duration": 5, "velocity": 88}, {"time": 2793, "pitch": 58, "duration": 18, "velocity": 93}, {"time": 2817, "pitch": 58, "duration": 5, "velocity": 95}, {"time": 2823, "pitch": 62, "duration": 5, "velocity": 99}, {"time": 2829, "pitch": 65, "duration": 6, "velocity": 100}, {"time": 2835, "pitch": 67, "duration": 14, "velocity": 100}, {"time": 2847, "pitch": 67, "duration": 2, "velocity": 93}, {"time": 2853, "pitch": 67, "duration": 4, "velocity": 99}, {"time": 2859, "pitch": 67, "duration": 6, "velocity": 99}, {"time": 2871, "pitch": 67, "duration": 5, "velocity": 107}, {"time": 2877, "pitch": 62, "duration": 5, "velocity": 86}, {"time": 2883, "pitch": 65, "duration": 7, "velocity": 92}, {"time": 2895, "pitch": 62, "duration": 4, "velocity": 102}, {"time": 2901, "pitch": 60, "duration": 2, "velocity": 76}, {"time": 2904, "pitch": 58, "duration": 8, "velocity": 82}, {"time": 2919, "pitch": 58, "duration": 4, "velocity": 107}, {"time": 2925, "pitch": 58, "duration": 1, "velocity": 102}, {"time": 2928, "pitch": 60, "duration": 6, "velocity": 99}, {"time": 2943, "pitch": 60, "duration": 3, "velocity": 93}, {"time": 2949, "pitch": 60, "duration": 1, "velocity": 78}, {"time": 2952, "pitch": 62, "duration": 9, "velocity": 90}, {"time": 2961, "pitch": 60, "duration": 8, "velocity": 88}, {"time": 2973, "pitch": 60, "duration": 9, "velocity": 100}, {"time": 2985, "pitch": 60, "duration": 20, "velocity": 99}, {"time": 3009, "pitch": 58, "duration": 4, "velocity": 96}, {"time": 3015, "pitch": 62, "duration": 6, "velocity": 97}, {"time": 3021, "pitch": 65, "duration": 5, "velocity": 95}, {"time": 3027, "pitch": 67, "duration": 7, "velocity": 97}, {"time": 3039, "pitch": 67, "duration": 4, "velocity": 102}, {"time": 3045, "pitch": 67, "duration": 3, "velocity": 93}, {"time": 3051, "pitch": 67, "duration": 8, "velocity": 117}, {"time": 3063, "pitch": 67, "duration": 4, "velocity": 100}, {"time": 3069, "pitch": 62, "duration": 6, "velocity": 96}, {"time": 3075, "pitch": 65, "duration": 7, "velocity": 92}, {"time": 3087, "pitch": 62, "duration": 5, "velocity": 107}, {"time": 3093, "pitch": 60, "duration": 2, "velocity": 83}, {"time": 3096, "pitch": 58, "duration": 10, "velocity": 95}, {"time": 3111, "pitch": 58, "duration": 4, "velocity": 97}, {"time": 3117, "pitch": 58, "duration": 1, "velocity": 96}, {"time": 3120, "pitch": 60, "duration": 9, "velocity": 92}, {"time": 3135, "pitch": 60, "duration": 3, "velocity": 93}, {"time": 3141, "pitch": 60, "duration": 2, "velocity": 85}, {"time": 3144, "pitch": 62, "duration": 8, "velocity": 85}, {"time": 3153, "pitch": 60, "duration": 3, "velocity": 90}, {"time": 3162, "pitch": 62, "duration": 2, "velocity": 81}, {"time": 3165, "pitch": 60, "duration": 5, "velocity": 88}, {"time": 3177, "pitch": 58, "duration": 18, "velocity": 93}, {"time": 3201, "pitch": 58, "duration": 5, "velocity": 95}, {"time": 3207, "pitch": 62, "duration": 5, "velocity": 99}, {"time": 3213, "pitch": 65, "duration": 6, "velocity": 100}, {"time": 3219, "pitch": 67, "duration": 14, "velocity": 100}, {"time": 3231, "pitch": 67, "duration": 2, "velocity": 93}, {"time": 3237, "pitch": 67, "duration": 4, "velocity": 99}, {"time": 3243, "pitch": 67, "duration": 6, "velocity": 99}, {"time": 3255, "pitch": 67, "duration": 5, "velocity": 107}, {"time": 3261, "pitch": 62, "duration": 5, "velocity": 86}, {"time": 3267, "pitch": 65, "duration": 7, "velocity": 92}, {"time": 3279, "pitch": 62, "duration": 4, "velocity": 102}, {"time": 3285, "pitch": 60, "duration": 2, "velocity": 76}, {"time": 3288, "pitch": 58, "duration": 8, "velocity": 82}, {"time": 3303, "pitch": 58, "duration": 4, "velocity": 107}, {"time": 3309, "pitch": 58, "duration": 1, "velocity": 102}, {"time": 3312, "pitch": 60, "duration": 6, "velocity": 99}, {"time": 3327, "pitch": 60, "duration": 3, "velocity": 93}, {"time": 3333, "pitch": 60, "duration": 1, "velocity": 78}, {"time": 3336, "pitch": 62, "duration": 9, "velocity": 90}, {"time": 3345, "pitch": 60, "duration": 8, "velocity": 88}, {"time": 3357, "pitch": 60, "duration": 9, "velocity": 100}, {"time": 3369, "pitch": 60, "duration": 20, "velocity": 99}, {"time": 3393, "pitch": 58, "duration": 4, "velocity": 96}, {"time": 3399, "pitch": 62, "duration": 6, "velocity": 97}, {"time": 3405, "pitch": 65, "duration": 5, "velocity": 95}, {"time": 3411, "pitch": 67, "duration": 7, "velocity": 97}, {"time": 3423, "pitch": 67, "duration": 4, "velocity": 102}, {"time": 3429, "pitch": 67, "duration": 3, "velocity": 93}, {"time": 3435, "pitch": 67, "duration": 8, "velocity": 117}, {"time": 3447, "pitch": 67, "duration": 4, "velocity": 100}, {"time": 3453, "pitch": 62, "duration": 6, "velocity": 96}, {"time": 3459, "pitch": 65, "duration": 7, "velocity": 92}, {"time": 3471, "pitch": 62, "duration": 5, "velocity": 107}, {"time": 3477, "pitch": 60, "duration": 2, "velocity": 83}, {"time": 3480, "pitch": 58, "duration": 10, "velocity": 95}, {"time": 3495, "pitch": 58, "duration": 4, "velocity": 97}, {"time": 3501, "pitch": 58, "duration": 1, "velocity": 96}, {"time": 3504, "pitch": 60, "duration": 9, "velocity": 92}, {"time": 3519, "pitch": 60, "duration": 3, "velocity": 93}, {"time": 3525, "pitch": 60, "duration": 2, "velocity": 85}, {"time": 3528, "pitch": 62, "duration": 8, "velocity": 85}, {"time": 3537, "pitch": 60, "duration": 3, "velocity": 90}, {"time": 3567, "pitch": 62, "duration": 4, "velocity": 97}, {"time": 3573, "pitch": 60, "duration": 5, "velocity": 81}, {"time": 3578, "pitch": 58, "duration": 48, "velocity": 89}]}, {"program": 0, "is_drum": false, "name": "PIANO", "notes": [{"time": 3, "pitch": 39, "duration": 17, "velocity": 53}, {"time": 7, "pitch": 51, "duration": 4, "velocity": 45}, {"time": 9, "pitch": 55, "duration": 7, "velocity": 50}, {"time": 13, "pitch": 51, "duration": 4, "velocity": 58}, {"time": 15, "pitch": 63, "duration": 11, "velocity": 73}, {"time": 21, "pitch": 58, "duration": 5, "velocity": 59}, {"time": 24, "pitch": 55, "duration": 2, "velocity": 41}, {"time": 27, "pitch": 38, "duration": 18, "velocity": 63}, {"time": 31, "pitch": 50, "duration": 3, "velocity": 62}, {"time": 33, "pitch": 57, "duration": 7, "velocity": 60}, {"time": 36, "pitch": 50, "duration": 7, "velocity": 56}, {"time": 39, "pitch": 65, "duration": 11, "velocity": 75}, {"time": 45, "pitch": 62, "duration": 5, "velocity": 62}, {"time": 48, "pitch": 57, "duration": 2, "velocity": 56}, {"time": 49, "pitch": 36, "duration": 19, "velocity": 60}, {"time": 55, "pitch": 48, "duration": 4, "velocity": 31}, {"time": 57, "pitch": 55, "duration": 7, "velocity": 49}, {"time": 60, "pitch": 48, "duration": 4, "velocity": 66}, {"time": 63, "pitch": 63, "duration": 12, "velocity": 71}, {"time": 67, "pitch": 48, "duration": 2, "velocity": 59}, {"time": 69, "pitch": 60, "duration": 5, "velocity": 64}, {"time": 75, "pitch": 46, "duration": 21, "velocity": 62}, {"time": 79, "pitch": 53, "duration": 3, "velocity": 53}, {"time": 81, "pitch": 58, "duration": 4, "velocity": 56}, {"time": 84, "pitch": 53, "duration": 3, "velocity": 40}, {"time": 87, "pitch": 62, "duration": 12, "velocity": 73}, {"time": 93, "pitch": 53, "duration": 5, "velocity": 57}, {"time": 96, "pitch": 58, "duration": 3, "velocity": 56}, {"time": 99, "pitch": 46, "duration": 21, "velocity": 56}, {"time": 103, "pitch": 53, "duration": 2, "velocity": 53}, {"time": 105, "pitch": 58, "duration": 4, "velocity": 58}, {"time": 108, "pitch": 53, "duration": 3, "velocity": 41}, {"time": 111, "pitch": 62, "duration": 11, "velocity": 70}, {"time": 117, "pitch": 53, "duration": 5, "velocity": 43}, {"time": 120, "pitch": 58, "duration": 2, "velocity": 38}, {"time": 123, "pitch": 34, "duration": 22, "velocity": 82}, {"time": 127, "pitch": 46, "duration": 4, "velocity": 37}, {"time": 129, "pitch": 53, "duration": 7, "velocity": 52}, {"time": 133, "pitch": 46, "duration": 3, "velocity": 53}, {"time": 135, "pitch": 62, "duration": 15, "velocity": 74}, {"time": 139, "pitch": 46, "duration": 8, "velocity": 41}, {"time": 141, "pitch": 53, "duration": 7, "velocity": 55}, {"time": 145, "pitch": 58, "duration": 6, "velocity": 50}, {"time": 147, "pitch": 34, "duration": 21, "velocity": 79}, {"time": 151, "pitch": 46, "duration": 20, "velocity": 61}, {"time": 153, "pitch": 53, "duration": 7, "velocity": 57}, {"time": 157, "pitch": 58, "duration": 3, "velocity": 60}, {"time": 159, "pitch": 62, "duration": 12, "velocity": 85}, {"time": 165, "pitch": 53, "duration": 6, "velocity": 54}, {"time": 169, "pitch": 58, "duration": 3, "velocity": 53}, {"time": 171, "pitch": 34, "duration": 17, "velocity": 74}, {"time": 175, "pitch": 46, "duration": 5, "velocity": 43}, {"time": 177, "pitch": 53, "duration": 3, "velocity": 62}, {"time": 181, "pitch": 46, "duration": 3, "velocity": 59}, {"time": 183, "pitch": 62, "duration": 11, "velocity": 82}, {"time": 187, "pitch": 46, "duration": 2, "velocity": 52}, {"time": 189, "pitch": 58, "duration": 5, "velocity": 73}, {"time": 192, "pitch": 53, "duration": 2, "velocity": 48}, {"time": 195, "pitch": 43, "duration": 21, "velocity": 63}, {"time": 199, "pitch": 50, "duration": 4, "velocity": 58}, {"time": 201, "pitch": 55, "duration": 6, "velocity": 68}, {"time": 205, "pitch": 50, "duration": 12, "velocity": 45}, {"time": 207, "pitch": 62, "duration": 12, "velocity": 83}, {"time": 213, "pitch": 58, "duration": 6, "velocity": 59}, {"time": 216, "pitch": 55, "duration": 3, "velocity": 40}, {"time": 219, "pitch": 43, "duration": 17, "velocity": 58}, {"time": 223, "pitch": 50, "duration": 3, "velocity": 52}, {"time": 225, "pitch": 55, "duration": 5, "velocity": 60}, {"time": 229, "pitch": 50, "duration": 4, "velocity": 52}, {"time": 231, "pitch": 62, "duration": 10, "velocity": 79}, {"time": 237, "pitch": 58, "duration": 4, "velocity": 55}, {"time": 240, "pitch": 55, "duration": 2, "velocity": 48}, {"time": 243, "pitch": 39, "duration": 17, "velocity": 75}, {"time": 246, "pitch": 51, "duration": 3, "velocity": 35}, {"time": 249, "pitch": 55, "duration": 5, "velocity": 64}, {"time": 253, "pitch": 51, "duration": 7, "velocity": 42}, {"time": 255, "pitch": 63, "duration": 10, "velocity": 88}, {"time": 261, "pitch": 58, "duration": 4, "velocity": 57}, {"time": 264, "pitch": 55, "duration": 3, "velocity": 50}, {"time": 267, "pitch": 41, "duration": 15, "velocity": 53}, {"time": 271, "pitch": 48, "duration": 3, "velocity": 52}, {"time": 273, "pitch": 53, "duration": 6, "velocity": 43}, {"time": 277, "pitch": 48, "duration": 4, "velocity": 48}, {"time": 279, "pitch": 60, "duration": 10, "velocity": 79}, {"time": 285, "pitch": 57, "duration": 3, "velocity": 63}, {"time": 288, "pitch": 53, "duration": 2, "velocity": 39}, {"time": 291, "pitch": 34, "duration": 21, "velocity": 68}, {"time": 295, "pitch": 46, "duration": 2, "velocity": 36}, {"time": 297, "pitch": 53, "duration": 5, "velocity": 58}, {"time": 301, "pitch": 46, "duration": 13, "velocity": 56}, {"time": 303, "pitch": 62, "duration": 14, "velocity": 70}, {"time": 309, "pitch": 53, "duration": 6, "velocity": 39}, {"time": 312, "pitch": 58, "duration": 3, "velocity": 38}, {"time": 315, "pitch": 34, "duration": 19, "velocity": 47}, {"time": 321, "pitch": 46, "duration": 8, "velocity": 40}, {"time": 324, "pitch": 53, "duration": 3, "velocity": 41}, {"time": 327, "pitch": 62, "duration": 12, "velocity": 82}, {"time": 331, "pitch": 46, "duration": 6, "velocity": 27}, {"time": 333, "pitch": 53, "duration": 5, "velocity": 58}, {"time": 336, "pitch": 58, "duration": 2, "velocity": 56}, {"time": 339, "pitch": 34, "duration": 18, "velocity": 72}, {"time": 343, "pitch": 46, "duration": 4, "velocity": 52}, {"time": 345, "pitch": 53, "duration": 6, "velocity": 50}, {"time": 349, "pitch": 46, "duration": 3, "velocity": 45}, {"time": 351, "pitch": 62, "duration": 12, "velocity": 82}, {"time": 355, "pitch": 46, "duration": 3, "velocity": 67}, {"time": 357, "pitch": 53, "duration": 4, "velocity": 63}, {"time": 360, "pitch": 58, "duration": 2, "velocity": 45}, {"time": 363, "pitch": 45, "duration": 18, "velocity": 55}, {"time": 367, "pitch": 57, "duration": 3, "velocity": 52}, {"time": 369, "pitch": 62, "duration": 4, "velocity": 56}, {"time": 373, "pitch": 57, "duration": 3, "velocity": 55}, {"time": 375, "pitch": 65, "duration": 10, "velocity": 73}, {"time": 381, "pitch": 62, "duration": 4, "velocity": 67}, {"time": 384, "pitch": 57, "duration": 2, "velocity": 49}, {"time": 387, "pitch": 43, "duration": 20, "velocity": 63}, {"time": 391, "pitch": 50, "duration": 4, "velocity": 52}, {"time": 393, "pitch": 55, "duration": 6, "velocity": 69}, {"time": 397, "pitch": 50, "duration": 11, "velocity": 34}, {"time": 399, "pitch": 62, "duration": 13, "velocity": 75}, {"time": 405, "pitch": 58, "duration": 7, "velocity": 52}, {"time": 408, "pitch": 55, "duration": 3, "velocity": 44}, {"time": 411, "pitch": 43, "duration": 17, "velocity": 40}, {"time": 415, "pitch": 50, "duration": 3, "velocity": 36}, {"time": 417, "pitch": 55, "duration": 4, "velocity": 60}, {"time": 421, "pitch": 50, "duration": 6, "velocity": 31}, {"time": 423, "pitch": 58, "duration": 7, "velocity": 73}, {"time": 423, "pitch": 62, "duration": 10, "velocity": 81}, {"time": 429, "pitch": 55, "duration": 5, "velocity": 66}, {"time": 432, "pitch": 58, "duration": 3, "velocity": 60}, {"time": 435, "pitch": 39, "duration": 15, "velocity": 40}, {"time": 439, "pitch": 51, "duration": 3, "velocity": 46}, {"time": 441, "pitch": 55, "duration": 6, "velocity": 59}, {"time": 445, "pitch": 51, "duration": 5, "velocity": 53}, {"time": 447, "pitch": 58, "duration": 7, "velocity": 70}, {"time": 447, "pitch": 63, "duration": 11, "velocity": 85}, {"time": 453, "pitch": 55, "duration": 6, "velocity": 59}, {"time": 456, "pitch": 58, "duration": 2, "velocity": 65}, {"time": 459, "pitch": 41, "duration": 16, "velocity": 61}, {"time": 463, "pitch": 48, "duration": 3, "velocity": 56}, {"time": 465, "pitch": 53, "duration": 5, "velocity": 58}, {"time": 468, "pitch": 48, "duration": 6, "velocity": 48}, {"time": 471, "pitch": 57, "duration": 7, "velocity": 69}, {"time": 471, "pitch": 60, "duration": 11, "velocity": 78}, {"time": 477, "pitch": 53, "duration": 6, "velocity": 56}, {"time": 480, "pitch": 57, "duration": 2, "velocity": 57}, {"time": 483, "pitch": 46, "duration": 8, "velocity": 48}, {"time": 487, "pitch": 53, "duration": 3, "velocity": 59}, {"time": 489, "pitch": 58, "duration": 4, "velocity": 48}, {"time": 493, "pitch": 46, "duration": 9, "velocity": 60}, {"time": 495, "pitch": 58, "duration": 7, "velocity": 66}, {"time": 495, "pitch": 62, "duration": 13, "velocity": 86}, {"time": 501, "pitch": 53, "duration": 6, "velocity": 67}, {"time": 504, "pitch": 58, "duration": 3, "velocity": 62}, {"time": 507, "pitch": 46, "duration": 3, "velocity": 67}, {"time": 511, "pitch": 46, "duration": 3, "velocity": 56}, {"time": 513, "pitch": 58, "duration": 4, "velocity": 69}, {"time": 517, "pitch": 46, "duration": 11, "velocity": 58}, {"time": 519, "pitch": 58, "duration": 7, "velocity": 90}, {"time": 519, "pitch": 62, "duration": 11, "velocity": 92}, {"time": 525, "pitch": 53, "duration": 6, "velocity": 79}, {"time": 528, "pitch": 58, "duration": 3, "velocity": 64}, {"time": 531, "pitch": 46, "duration": 23, "velocity": 76}, {"time": 535, "pitch": 53, "duration": 3, "velocity": 68}, {"time": 537, "pitch": 58, "duration": 5, "velocity": 69}, {"time": 541, "pitch": 53, "duration": 4, "velocity": 59}, {"time": 543, "pitch": 58, "duration": 7, "velocity": 69}, {"time": 543, "pitch": 62, "duration": 11, "velocity": 89}, {"time": 549, "pitch": 53, "duration": 5, "velocity": 78}, {"time": 552, "pitch": 58, "duration": 2, "velocity": 70}, {"time": 555, "pitch": 45, "duration": 20, "velocity": 61}, {"time": 559, "pitch": 57, "duration": 3, "velocity": 62}, {"time": 561, "pitch": 62, "duration": 4, "velocity": 66}, {"time": 565, "pitch": 57, "duration": 2, "velocity": 67}, {"time": 567, "pitch": 62, "duration": 6, "velocity": 76}, {"time": 567, "pitch": 65, "duration": 12, "velocity": 76}, {"time": 573, "pitch": 57, "duration": 6, "velocity": 79}, {"time": 576, "pitch": 62, "duration": 2, "velocity": 69}, {"time": 579, "pitch": 43, "duration": 21, "velocity": 63}, {"time": 583, "pitch": 50, "duration": 3, "velocity": 53}, {"time": 585, "pitch": 55, "duration": 6, "velocity": 76}, {"time": 588, "pitch": 50, "duration": 13, "velocity": 52}, {"time": 591, "pitch": 58, "duration": 6, "velocity": 96}, {"time": 591, "pitch": 62, "duration": 12, "velocity": 90}, {"time": 597, "pitch": 55, "duration": 6, "velocity": 76}, {"time": 600, "pitch": 58, "duration": 3, "velocity": 63}, {"time": 603, "pitch": 43, "duration": 16, "velocity": 56}, {"time": 607, "pitch": 50, "duration": 3, "velocity": 55}, {"time": 609, "pitch": 55, "duration": 5, "velocity": 76}, {"time": 613, "pitch": 50, "duration": 5, "velocity": 40}, {"time": 615, "pitch": 58, "duration": 6, "velocity": 79}, {"time": 615, "pitch": 62, "duration": 7, "velocity": 81}, {"time": 621, "pitch": 55, "duration": 5, "velocity": 58}, {"time": 624, "pitch": 58, "duration": 3, "velocity": 50}, {"time": 627, "pitch": 39, "duration": 15, "velocity": 61}, {"time": 631, "pitch": 51, "duration": 3, "velocity": 52}, {"time": 633, "pitch": 55, "duration": 6, "velocity": 56}, {"time": 637, "pitch": 51, "duration": 5, "velocity": 56}, {"time": 639, "pitch": 58, "duration": 7, "velocity": 73}, {"time": 639, "pitch": 63, "duration": 11, "velocity": 97}, {"time": 645, "pitch": 55, "duration": 5, "velocity": 63}, {"time": 648, "pitch": 58, "duration": 2, "velocity": 78}, {"time": 651, "pitch": 41, "duration": 21, "velocity": 66}, {"time": 655, "pitch": 48, "duration": 3, "velocity": 57}, {"time": 657, "pitch": 53, "duration": 5, "velocity": 56}, {"time": 661, "pitch": 48, "duration": 13, "velocity": 54}, {"time": 663, "pitch": 57, "duration": 7, "velocity": 66}, {"time": 663, "pitch": 60, "duration": 12, "velocity": 72}, {"time": 669, "pitch": 53, "duration": 4, "velocity": 55}, {"time": 672, "pitch": 57, "duration": 2, "velocity": 58}, {"time": 675, "pitch": 41, "duration": 21, "velocity": 57}, {"time": 679, "pitch": 48, "duration": 3, "velocity": 55}, {"time": 681, "pitch": 53, "duration": 5, "velocity": 63}, {"time": 685, "pitch": 48, "duration": 13, "velocity": 41}, {"time": 687, "pitch": 57, "duration": 7, "velocity": 73}, {"time": 687, "pitch": 60, "duration": 13, "velocity": 83}, {"time": 693, "pitch": 53, "duration": 6, "velocity": 52}, {"time": 696, "pitch": 57, "duration": 4, "velocity": 63}, {"time": 699, "pitch": 41, "duration": 18, "velocity": 61}, {"time": 703, "pitch": 48, "duration": 4, "velocity": 61}, {"time": 705, "pitch": 53, "duration": 5, "velocity": 69}, {"time": 709, "pitch": 48, "duration": 3, "velocity": 58}, {"time": 711, "pitch": 57, "duration": 7, "velocity": 83}, {"time": 711, "pitch": 60, "duration": 10, "velocity": 93}, {"time": 714, "pitch": 48, "duration": 3, "velocity": 95}, {"time": 717, "pitch": 53, "duration": 4, "velocity": 82}, {"time": 720, "pitch": 57, "duration": 1, "velocity": 50}, {"time": 723, "pitch": 46, "duration": 21, "velocity": 81}, {"time": 727, "pitch": 53, "duration": 3, "velocity": 65}, {"time": 729, "pitch": 58, "duration": 4, "velocity": 64}, {"time": 733, "pitch": 53, "duration": 3, "velocity": 48}, {"time": 735, "pitch": 58, "duration": 7, "velocity": 64}, {"time": 735, "pitch": 62, "duration": 11, "velocity": 75}, {"time": 741, "pitch": 53, "duration": 4, "velocity": 65}, {"time": 744, "pitch": 58, "duration": 2, "velocity": 64}, {"time": 747, "pitch": 45, "duration": 20, "velocity": 85}, {"time": 750, "pitch": 57, "duration": 3, "velocity": 63}, {"time": 753, "pitch": 62, "duration": 4, "velocity": 63}, {"time": 757, "pitch": 57, "duration": 2, "velocity": 63}, {"time": 759, "pitch": 62, "duration": 6, "velocity": 71}, {"time": 759, "pitch": 65, "duration": 11, "velocity": 69}, {"time": 765, "pitch": 57, "duration": 5, "velocity": 76}, {"time": 768, "pitch": 62, "duration": 2, "velocity": 57}, {"time": 771, "pitch": 43, "duration": 22, "velocity": 57}, {"time": 775, "pitch": 50, "duration": 3, "velocity": 50}, {"time": 777, "pitch": 55, "duration": 6, "velocity": 72}, {"time": 781, "pitch": 50, "duration": 13, "velocity": 50}, {"time": 783, "pitch": 58, "duration": 6, "velocity": 74}, {"time": 783, "pitch": 62, "duration": 13, "velocity": 74}, {"time": 789, "pitch": 55, "duration": 5, "velocity": 66}, {"time": 792, "pitch": 58, "duration": 3, "velocity": 65}, {"time": 795, "pitch": 43, "duration": 15, "velocity": 50}, {"time": 799, "pitch": 50, "duration": 3, "velocity": 53}, {"time": 801, "pitch": 55, "duration": 6, "velocity": 67}, {"time": 805, "pitch": 50, "duration": 4, "velocity": 51}, {"time": 807, "pitch": 58, "duration": 6, "velocity": 73}, {"time": 807, "pitch": 62, "duration": 9, "velocity": 88}, {"time": 813, "pitch": 55, "duration": 6, "velocity": 68}, {"time": 816, "pitch": 58, "duration": 3, "velocity": 63}, {"time": 819, "pitch": 39, "duration": 17, "velocity": 70}, {"time": 823, "pitch": 51, "duration": 2, "velocity": 45}, {"time": 825, "pitch": 55, "duration": 5, "velocity": 70}, {"time": 829, "pitch": 51, "duration": 5, "velocity": 43}, {"time": 831, "pitch": 58, "duration": 7, "velocity": 62}, {"time": 831, "pitch": 63, "duration": 11, "velocity": 92}, {"time": 837, "pitch": 55, "duration": 6, "velocity": 69}, {"time": 840, "pitch": 58, "duration": 2, "velocity": 65}, {"time": 843, "pitch": 41, "duration": 15, "velocity": 58}, {"time": 847, "pitch": 48, "duration": 4, "velocity": 59}, {"time": 849, "pitch": 53, "duration": 5, "velocity": 58}, {"time": 853, "pitch": 48, "duration": 4, "velocity": 61}, {"time": 855, "pitch": 57, "duration": 6, "velocity": 75}, {"time": 855, "pitch": 60, "duration": 11, "velocity": 82}, {"time": 861, "pitch": 53, "duration": 5, "velocity": 56}, {"time": 864, "pitch": 57, "duration": 2, "velocity": 61}, {"time": 867, "pitch": 46, "duration": 8, "velocity": 41}, {"time": 871, "pitch": 53, "duration": 2, "velocity": 46}, {"time": 873, "pitch": 58, "duration": 4, "velocity": 48}, {"time": 877, "pitch": 46, "duration": 11, "velocity": 50}, {"time": 877, "pitch": 53, "duration": 2, "velocity": 34}, {"time": 879, "pitch": 58, "duration": 7, "velocity": 68}, {"time": 879, "pitch": 62, "duration": 13, "velocity": 81}, {"time": 885, "pitch": 53, "duration": 6, "velocity": 68}, {"time": 888, "pitch": 58, "duration": 4, "velocity": 64}, {"time": 891, "pitch": 46, "duration": 3, "velocity": 90}, {"time": 895, "pitch": 46, "duration": 2, "velocity": 68}, {"time": 897, "pitch": 58, "duration": 2, "velocity": 95}, {"time": 897, "pitch": 62, "duration": 2, "velocity": 99}, {"time": 909, "pitch": 58, "duration": 4, "velocity": 127}, {"time": 909, "pitch": 62, "duration": 4, "velocity": 122}, {"time": 912, "pitch": 53, "duration": 1, "velocity": 90}, {"time": 915, "pitch": 43, "duration": 22, "velocity": 79}, {"time": 919, "pitch": 50, "duration": 18, "velocity": 69}, {"time": 921, "pitch": 55, "duration": 6, "velocity": 88}, {"time": 927, "pitch": 58, "duration": 6, "velocity": 127}, {"time": 927, "pitch": 62, "duration": 7, "velocity": 102}, {"time": 933, "pitch": 55, "duration": 4, "velocity": 92}, {"time": 936, "pitch": 58, "duration": 2, "velocity": 102}, {"time": 936, "pitch": 62, "duration": 1, "velocity": 96}, {"time": 939, "pitch": 43, "duration": 18, "velocity": 73}, {"time": 943, "pitch": 50, "duration": 3, "velocity": 64}, {"time": 945, "pitch": 55, "duration": 6, "velocity": 89}, {"time": 949, "pitch": 50, "duration": 7, "velocity": 71}, {"time": 951, "pitch": 58, "duration": 7, "velocity": 102}, {"time": 951, "pitch": 62, "duration": 11, "velocity": 96}, {"time": 957, "pitch": 55, "duration": 5, "velocity": 95}, {"time": 960, "pitch": 58, "duration": 2, "velocity": 96}, {"time": 963, "pitch": 41, "duration": 13, "velocity": 72}, {"time": 967, "pitch": 48, "duration": 3, "velocity": 64}, {"time": 969, "pitch": 53, "duration": 5, "velocity": 92}, {"time": 973, "pitch": 48, "duration": 3, "velocity": 85}, {"time": 975, "pitch": 57, "duration": 7, "velocity": 96}, {"time": 975, "pitch": 60, "duration": 11, "velocity": 99}, {"time": 981, "pitch": 53, "duration": 4, "velocity": 90}, {"time": 985, "pitch": 57, "duration": 2, "velocity": 75}, {"time": 987, "pitch": 46, "duration": 2, "velocity": 77}, {"time": 991, "pitch": 46, "duration": 3, "velocity": 59}, {"time": 993, "pitch": 53, "duration": 7, "velocity": 85}, {"time": 996, "pitch": 46, "duration": 7, "velocity": 65}, {"time": 999, "pitch": 58, "duration": 7, "velocity": 99}, {"time": 999, "pitch": 62, "duration": 11, "velocity": 93}, {"time": 1005, "pitch": 53, "duration": 5, "velocity": 88}, {"time": 1008, "pitch": 58, "duration": 2, "velocity": 90}, {"time": 1011, "pitch": 36, "duration": 17, "velocity": 61}, {"time": 1015, "pitch": 48, "duration": 3, "velocity": 55}, {"time": 1017, "pitch": 55, "duration": 6, "velocity": 77}, {"time": 1021, "pitch": 48, "duration": 4, "velocity": 70}, {"time": 1023, "pitch": 60, "duration": 6, "velocity": 95}, {"time": 1023, "pitch": 63, "duration": 12, "velocity": 99}, {"time": 1027, "pitch": 48, "duration": 5, "velocity": 65}, {"time": 1029, "pitch": 55, "duration": 7, "velocity": 86}, {"time": 1032, "pitch": 60, "duration": 3, "velocity": 82}, {"time": 1035, "pitch": 41, "duration": 21, "velocity": 66}, {"time": 1039, "pitch": 48, "duration": 3, "velocity": 60}, {"time": 1041, "pitch": 53, "duration": 5, "velocity": 77}, {"time": 1045, "pitch": 48, "duration": 4, "velocity": 51}, {"time": 1047, "pitch": 57, "duration": 7, "velocity": 97}, {"time": 1047, "pitch": 60, "duration": 12, "velocity": 102}, {"time": 1051, "pitch": 48, "duration": 7, "velocity": 61}, {"time": 1053, "pitch": 53, "duration": 4, "velocity": 77}, {"time": 1056, "pitch": 57, "duration": 2, "velocity": 95}, {"time": 1059, "pitch": 41, "duration": 22, "velocity": 67}, {"time": 1063, "pitch": 48, "duration": 3, "velocity": 63}, {"time": 1065, "pitch": 53, "duration": 5, "velocity": 90}, {"time": 1069, "pitch": 48, "duration": 4, "velocity": 73}, {"time": 1071, "pitch": 57, "duration": 6, "velocity": 99}, {"time": 1071, "pitch": 60, "duration": 7, "velocity": 102}, {"time": 1074, "pitch": 48, "duration": 7, "velocity": 75}, {"time": 1077, "pitch": 53, "duration": 4, "velocity": 82}, {"time": 1080, "pitch": 57, "duration": 3, "velocity": 92}, {"time": 1080, "pitch": 60, "duration": 4, "velocity": 95}, {"time": 1083, "pitch": 41, "duration": 19, "velocity": 85}, {"time": 1087, "pitch": 48, "duration": 4, "velocity": 63}, {"time": 1089, "pitch": 53, "duration": 5, "velocity": 122}, {"time": 1093, "pitch": 48, "duration": 3, "velocity": 93}, {"time": 1095, "pitch": 55, "duration": 8, "velocity": 127}, {"time": 1098, "pitch": 48, "duration": 8, "velocity": 117}, {"time": 1101, "pitch": 57, "duration": 5, "velocity": 117}, {"time": 1107, "pitch": 43, "duration": 21, "velocity": 77}, {"time": 1111, "pitch": 50, "duration": 3, "velocity": 59}, {"time": 1113, "pitch": 55, "duration": 6, "velocity": 92}, {"time": 1117, "pitch": 50, "duration": 5, "velocity": 75}, {"time": 1119, "pitch": 58, "duration": 7, "velocity": 117}, {"time": 1119, "pitch": 62, "duration": 13, "velocity": 100}, {"time": 1123, "pitch": 50, "duration": 7, "velocity": 42}, {"time": 1125, "pitch": 55, "duration": 6, "velocity": 66}, {"time": 1128, "pitch": 58, "duration": 3, "velocity": 96}, {"time": 1131, "pitch": 43, "duration": 18, "velocity": 86}, {"time": 1135, "pitch": 50, "duration": 3, "velocity": 63}, {"time": 1137, "pitch": 55, "duration": 6, "velocity": 96}, {"time": 1141, "pitch": 50, "duration": 4, "velocity": 79}, {"time": 1143, "pitch": 58, "duration": 6, "velocity": 122}, {"time": 1143, "pitch": 62, "duration": 11, "velocity": 102}, {"time": 1146, "pitch": 50, "duration": 3, "velocity": 62}, {"time": 1149, "pitch": 55, "duration": 5, "velocity": 93}, {"time": 1152, "pitch": 58, "duration": 2, "velocity": 102}, {"time": 1155, "pitch": 41, "duration": 19, "velocity": 74}, {"time": 1158, "pitch": 48, "duration": 3, "velocity": 59}, {"time": 1161, "pitch": 53, "duration": 7, "velocity": 92}, {"time": 1165, "pitch": 48, "duration": 4, "velocity": 53}, {"time": 1167, "pitch": 57, "duration": 7, "velocity": 107}, {"time": 1167, "pitch": 60, "duration": 10, "velocity": 107}, {"time": 1170, "pitch": 48, "duration": 3, "velocity": 82}, {"time": 1173, "pitch": 53, "duration": 6, "velocity": 92}, {"time": 1177, "pitch": 57, "duration": 2, "velocity": 90}, {"time": 1179, "pitch": 34, "duration": 17, "velocity": 95}, {"time": 1183, "pitch": 46, "duration": 3, "velocity": 56}, {"time": 1185, "pitch": 53, "duration": 7, "velocity": 90}, {"time": 1188, "pitch": 46, "duration": 3, "velocity": 74}, {"time": 1191, "pitch": 58, "duration": 6, "velocity": 112}, {"time": 1191, "pitch": 62, "duration": 11, "velocity": 100}, {"time": 1194, "pitch": 46, "duration": 2, "velocity": 88}, {"time": 1197, "pitch": 53, "duration": 5, "velocity": 85}, {"time": 1200, "pitch": 58, "duration": 2, "velocity": 99}, {"time": 1203, "pitch": 36, "duration": 18, "velocity": 73}, {"time": 1207, "pitch": 43, "duration": 14, "velocity": 48}, {"time": 1209, "pitch": 55, "duration": 6, "velocity": 92}, {"time": 1212, "pitch": 48, "duration": 3, "velocity": 53}, {"time": 1215, "pitch": 60, "duration": 5, "velocity": 97}, {"time": 1215, "pitch": 63, "duration": 11, "velocity": 117}, {"time": 1218, "pitch": 48, "duration": 5, "velocity": 67}, {"time": 1221, "pitch": 55, "duration": 6, "velocity": 95}, {"time": 1224, "pitch": 60, "duration": 3, "velocity": 79}, {"time": 1227, "pitch": 41, "duration": 17, "velocity": 72}, {"time": 1231, "pitch": 48, "duration": 3, "velocity": 60}, {"time": 1233, "pitch": 53, "duration": 5, "velocity": 78}, {"time": 1236, "pitch": 48, "duration": 3, "velocity": 58}, {"time": 1239, "pitch": 57, "duration": 7, "velocity": 95}, {"time": 1239, "pitch": 60, "duration": 10, "velocity": 100}, {"time": 1242, "pitch": 48, "duration": 2, "velocity": 68}, {"time": 1245, "pitch": 53, "duration": 4, "velocity": 82}, {"time": 1248, "pitch": 57, "duration": 1, "velocity": 83}, {"time": 1251, "pitch": 46, "duration": 22, "velocity": 97}, {"time": 1255, "pitch": 50, "duration": 3, "velocity": 53}, {"time": 1257, "pitch": 53, "duration": 7, "velocity": 69}, {"time": 1260, "pitch": 50, "duration": 3, "velocity": 59}, {"time": 1263, "pitch": 58, "duration": 7, "velocity": 102}, {"time": 1263, "pitch": 62, "duration": 7, "velocity": 97}, {"time": 1266, "pitch": 50, "duration": 6, "velocity": 63}, {"time": 1269, "pitch": 53, "duration": 5, "velocity": 82}, {"time": 1272, "pitch": 58, "duration": 3, "velocity": 83}, {"time": 1272, "pitch": 62, "duration": 3, "velocity": 76}, {"time": 1275, "pitch": 46, "duration": 18, "velocity": 88}, {"time": 1279, "pitch": 50, "duration": 4, "velocity": 42}, {"time": 1281, "pitch": 53, "duration": 6, "velocity": 90}, {"time": 1284, "pitch": 50, "duration": 3, "velocity": 54}, {"time": 1287, "pitch": 58, "duration": 7, "velocity": 89}, {"time": 1287, "pitch": 62, "duration": 10, "velocity": 95}, {"time": 1290, "pitch": 50, "duration": 2, "velocity": 45}, {"time": 1293, "pitch": 53, "duration": 5, "velocity": 74}, {"time": 1296, "pitch": 58, "duration": 2, "velocity": 89}, {"time": 1299, "pitch": 46, "duration": 2, "velocity": 65}, {"time": 1303, "pitch": 46, "duration": 18, "velocity": 56}, {"time": 1305, "pitch": 53, "duration": 7, "velocity": 78}, {"time": 1311, "pitch": 58, "duration": 7, "velocity": 102}, {"time": 1311, "pitch": 62, "duration": 11, "velocity": 93}, {"time": 1317, "pitch": 53, "duration": 4, "velocity": 90}, {"time": 1320, "pitch": 58, "duration": 2, "velocity": 77}, {"time": 1323, "pitch": 45, "duration": 17, "velocity": 65}, {"time": 1327, "pitch": 57, "duration": 3, "velocity": 69}, {"time": 1329, "pitch": 62, "duration": 4, "velocity": 63}, {"time": 1333, "pitch": 57, "duration": 3, "velocity": 71}, {"time": 1335, "pitch": 62, "duration": 6, "velocity": 82}, {"time": 1335, "pitch": 65, "duration": 11, "velocity": 89}, {"time": 1341, "pitch": 57, "duration": 6, "velocity": 95}, {"time": 1344, "pitch": 62, "duration": 2, "velocity": 81}, {"time": 1347, "pitch": 43, "duration": 21, "velocity": 66}, {"time": 1351, "pitch": 50, "duration": 4, "velocity": 57}, {"time": 1353, "pitch": 55, "duration": 6, "velocity": 74}, {"time": 1357, "pitch": 50, "duration": 13, "velocity": 58}, {"time": 1359, "pitch": 58, "duration": 7, "velocity": 99}, {"time": 1359, "pitch": 62, "duration": 12, "velocity": 89}, {"time": 1365, "pitch": 55, "duration": 5, "velocity": 83}, {"time": 1368, "pitch": 58, "duration": 4, "velocity": 63}, {"time": 1371, "pitch": 43, "duration": 17, "velocity": 71}, {"time": 1375, "pitch": 50, "duration": 3, "velocity": 58}, {"time": 1377, "pitch": 55, "duration": 6, "velocity": 77}, {"time": 1381, "pitch": 50, "duration": 4, "velocity": 69}, {"time": 1383, "pitch": 58, "duration": 7, "velocity": 107}, {"time": 1383, "pitch": 62, "duration": 11, "velocity": 100}, {"time": 1387, "pitch": 50, "duration": 1, "velocity": 69}, {"time": 1389, "pitch": 55, "duration": 8, "velocity": 96}, {"time": 1395, "pitch": 39, "duration": 17, "velocity": 78}, {"time": 1399, "pitch": 51, "duration": 3, "velocity": 76}, {"time": 1401, "pitch": 55, "duration": 6, "velocity": 88}, {"time": 1405, "pitch": 51, "duration": 3, "velocity": 63}, {"time": 1407, "pitch": 58, "duration": 6, "velocity": 100}, {"time": 1407, "pitch": 63, "duration": 11, "velocity": 112}, {"time": 1413, "pitch": 55, "duration": 6, "velocity": 83}, {"time": 1416, "pitch": 58, "duration": 2, "velocity": 75}, {"time": 1419, "pitch": 38, "duration": 18, "velocity": 60}, {"time": 1423, "pitch": 45, "duration": 13, "velocity": 63}, {"time": 1425, "pitch": 53, "duration": 5, "velocity": 74}, {"time": 1428, "pitch": 50, "duration": 4, "velocity": 72}, {"time": 1431, "pitch": 57, "duration": 7, "velocity": 90}, {"time": 1431, "pitch": 62, "duration": 11, "velocity": 95}, {"time": 1434, "pitch": 50, "duration": 1, "velocity": 47}, {"time": 1437, "pitch": 53, "duration": 5, "velocity": 90}, {"time": 1440, "pitch": 57, "duration": 2, "velocity": 83}, {"time": 1443, "pitch": 36, "duration": 16, "velocity": 65}, {"time": 1447, "pitch": 48, "duration": 4, "velocity": 75}, {"time": 1449, "pitch": 55, "duration": 6, "velocity": 81}, {"time": 1452, "pitch": 48, "duration": 4, "velocity": 79}, {"time": 1455, "pitch": 60, "duration": 5, "velocity": 97}, {"time": 1455, "pitch": 63, "duration": 11, "velocity": 102}, {"time": 1458, "pitch": 48, "duration": 2, "velocity": 69}, {"time": 1461, "pitch": 55, "duration": 7, "velocity": 89}, {"time": 1464, "pitch": 60, "duration": 2, "velocity": 89}, {"time": 1467, "pitch": 41, "duration": 19, "velocity": 82}, {"time": 1471, "pitch": 48, "duration": 4, "velocity": 75}, {"time": 1473, "pitch": 57, "duration": 4, "velocity": 97}, {"time": 1473, "pitch": 60, "duration": 4, "velocity": 102}, {"time": 1476, "pitch": 48, "duration": 3, "velocity": 82}, {"time": 1477, "pitch": 53, "duration": 1, "velocity": 34}, {"time": 1479, "pitch": 53, "duration": 4, "velocity": 100}, {"time": 1479, "pitch": 57, "duration": 4, "velocity": 100}, {"time": 1479, "pitch": 60, "duration": 4, "velocity": 102}, {"time": 1482, "pitch": 48, "duration": 5, "velocity": 93}, {"time": 1485, "pitch": 57, "duration": 3, "velocity": 107}, {"time": 1485, "pitch": 60, "duration": 4, "velocity": 112}, {"time": 1488, "pitch": 53, "duration": 2, "velocity": 77}, {"time": 1491, "pitch": 46, "duration": 23, "velocity": 102}, {"time": 1495, "pitch": 53, "duration": 3, "velocity": 73}, {"time": 1497, "pitch": 58, "duration": 4, "velocity": 79}, {"time": 1501, "pitch": 53, "duration": 3, "velocity": 71}, {"time": 1503, "pitch": 58, "duration": 7, "velocity": 85}, {"time": 1503, "pitch": 62, "duration": 12, "velocity": 93}, {"time": 1509, "pitch": 53, "duration": 5, "velocity": 90}, {"time": 1512, "pitch": 58, "duration": 3, "velocity": 92}, {"time": 1515, "pitch": 45, "duration": 20, "velocity": 78}, {"time": 1519, "pitch": 57, "duration": 3, "velocity": 79}, {"time": 1521, "pitch": 62, "duration": 4, "velocity": 70}, {"time": 1524, "pitch": 57, "duration": 3, "velocity": 77}, {"time": 1527, "pitch": 62, "duration": 7, "velocity": 81}, {"time": 1527, "pitch": 65, "duration": 12, "velocity": 85}, {"time": 1533, "pitch": 57, "duration": 6, "velocity": 99}, {"time": 1536, "pitch": 62, "duration": 2, "velocity": 72}, {"time": 1539, "pitch": 43, "duration": 18, "velocity": 69}, {"time": 1543, "pitch": 50, "duration": 3, "velocity": 60}, {"time": 1545, "pitch": 55, "duration": 7, "velocity": 81}, {"time": 1548, "pitch": 50, "duration": 3, "velocity": 58}, {"time": 1551, "pitch": 58, "duration": 7, "velocity": 97}, {"time": 1551, "pitch": 62, "duration": 11, "velocity": 93}, {"time": 1554, "pitch": 50, "duration": 2, "velocity": 52}, {"time": 1557, "pitch": 55, "duration": 5, "velocity": 79}, {"time": 1560, "pitch": 58, "duration": 2, "velocity": 86}, {"time": 1562, "pitch": 40, "duration": 22, "velocity": 65}, {"time": 1566, "pitch": 52, "duration": 4, "velocity": 72}, {"time": 1568, "pitch": 58, "duration": 7, "velocity": 69}, {"time": 1572, "pitch": 52, "duration": 4, "velocity": 64}, {"time": 1574, "pitch": 67, "duration": 12, "velocity": 70}, {"time": 1574, "pitch": 64, "duration": 7, "velocity": 69}, {"time": 1577, "pitch": 52, "duration": 6, "velocity": 36}, {"time": 1580, "pitch": 58, "duration": 6, "velocity": 89}, {"time": 1583, "pitch": 64, "duration": 2, "velocity": 68}, {"time": 1585, "pitch": 46, "duration": 17, "velocity": 73}, {"time": 1590, "pitch": 53, "duration": 2, "velocity": 68}, {"time": 1593, "pitch": 58, "duration": 4, "velocity": 66}, {"time": 1596, "pitch": 53, "duration": 2, "velocity": 66}, {"time": 1599, "pitch": 58, "duration": 6, "velocity": 69}, {"time": 1599, "pitch": 62, "duration": 12, "velocity": 77}, {"time": 1605, "pitch": 53, "duration": 6, "velocity": 72}, {"time": 1608, "pitch": 58, "duration": 3, "velocity": 59}, {"time": 1611, "pitch": 41, "duration": 16, "velocity": 65}, {"time": 1614, "pitch": 48, "duration": 3, "velocity": 56}, {"time": 1617, "pitch": 53, "duration": 6, "velocity": 74}, {"time": 1620, "pitch": 48, "duration": 5, "velocity": 62}, {"time": 1623, "pitch": 57, "duration": 6, "velocity": 83}, {"time": 1623, "pitch": 60, "duration": 11, "velocity": 89}, {"time": 1629, "pitch": 53, "duration": 6, "velocity": 72}, {"time": 1632, "pitch": 57, "duration": 2, "velocity": 68}, {"time": 1633, "pitch": 34, "duration": 22, "velocity": 77}, {"time": 1638, "pitch": 46, "duration": 3, "velocity": 48}, {"time": 1641, "pitch": 53, "duration": 6, "velocity": 76}, {"time": 1644, "pitch": 46, "duration": 3, "velocity": 77}, {"time": 1647, "pitch": 58, "duration": 7, "velocity": 100}, {"time": 1647, "pitch": 62, "duration": 13, "velocity": 100}, {"time": 1653, "pitch": 53, "duration": 7, "velocity": 82}, {"time": 1656, "pitch": 58, "duration": 4, "velocity": 78}, {"time": 1659, "pitch": 34, "duration": 23, "velocity": 72}, {"time": 1662, "pitch": 46, "duration": 3, "velocity": 66}, {"time": 1665, "pitch": 53, "duration": 6, "velocity": 71}, {"time": 1668, "pitch": 46, "duration": 2, "velocity": 76}, {"time": 1671, "pitch": 58, "duration": 11, "velocity": 90}, {"time": 1671, "pitch": 62, "duration": 11, "velocity": 89}, {"time": 1677, "pitch": 53, "duration": 5, "velocity": 72}, {"time": 1683, "pitch": 34, "duration": 21, "velocity": 79}, {"time": 1687, "pitch": 46, "duration": 20, "velocity": 61}, {"time": 1689, "pitch": 53, "duration": 7, "velocity": 57}, {"time": 1693, "pitch": 58, "duration": 3, "velocity": 60}, {"time": 1695, "pitch": 62, "duration": 12, "velocity": 85}, {"time": 1701, "pitch": 53, "duration": 6, "velocity": 54}, {"time": 1705, "pitch": 58, "duration": 3, "velocity": 53}, {"time": 1707, "pitch": 34, "duration": 17, "velocity": 74}, {"time": 1711, "pitch": 46, "duration": 5, "velocity": 43}, {"time": 1713, "pitch": 53, "duration": 3, "velocity": 62}, {"time": 1717, "pitch": 46, "duration": 3, "velocity": 59}, {"time": 1719, "pitch": 62, "duration": 11, "velocity": 82}, {"time": 1723, "pitch": 46, "duration": 2, "velocity": 52}, {"time": 1725, "pitch": 58, "duration": 5, "velocity": 73}, {"time": 1728, "pitch": 53, "duration": 2, "velocity": 48}, {"time": 1731, "pitch": 43, "duration": 21, "velocity": 63}, {"time": 1735, "pitch": 50, "duration": 4, "velocity": 58}, {"time": 1737, "pitch": 55, "duration": 6, "velocity": 68}, {"time": 1741, "pitch": 50, "duration": 12, "velocity": 45}, {"time": 1743, "pitch": 62, "duration": 12, "velocity": 83}, {"time": 1749, "pitch": 58, "duration": 6, "velocity": 59}, {"time": 1752, "pitch": 55, "duration": 3, "velocity": 40}, {"time": 1755, "pitch": 43, "duration": 17, "velocity": 58}, {"time": 1759, "pitch": 50, "duration": 3, "velocity": 52}, {"time": 1761, "pitch": 55, "duration": 5, "velocity": 60}, {"time": 1765, "pitch": 50, "duration": 4, "velocity": 52}, {"time": 1767, "pitch": 62, "duration": 10, "velocity": 79}, {"time": 1773, "pitch": 58, "duration": 4, "velocity": 55}, {"time": 1776, "pitch": 55, "duration": 2, "velocity": 48}, {"time": 1779, "pitch": 39, "duration": 17, "velocity": 75}, {"time": 1782, "pitch": 51, "duration": 3, "velocity": 35}, {"time": 1785, "pitch": 55, "duration": 5, "velocity": 64}, {"time": 1789, "pitch": 51, "duration": 7, "velocity": 42}, {"time": 1791, "pitch": 63, "duration": 10, "velocity": 88}, {"time": 1797, "pitch": 58, "duration": 4, "velocity": 57}, {"time": 1800, "pitch": 55, "duration": 3, "velocity": 50}, {"time": 1803, "pitch": 41, "duration": 15, "velocity": 53}, {"time": 1807, "pitch": 48, "duration": 3, "velocity": 52}, {"time": 1809, "pitch": 53, "duration": 6, "velocity": 43}, {"time": 1813, "pitch": 48, "duration": 4, "velocity": 48}, {"time": 1815, "pitch": 60, "duration": 10, "velocity": 79}, {"time": 1821, "pitch": 57, "duration": 3, "velocity": 63}, {"time": 1824, "pitch": 53, "duration": 2, "velocity": 39}, {"time": 1827, "pitch": 34, "duration": 21, "velocity": 68}, {"time": 1831, "pitch": 46, "duration": 2, "velocity": 36}, {"time": 1833, "pitch": 53, "duration": 5, "velocity": 58}, {"time": 1837, "pitch": 46, "duration": 13, "velocity": 56}, {"time": 1839, "pitch": 62, "duration": 14, "velocity": 70}, {"time": 1845, "pitch": 53, "duration": 6, "velocity": 39}, {"time": 1848, "pitch": 58, "duration": 3, "velocity": 38}, {"time": 1851, "pitch": 34, "duration": 19, "velocity": 47}, {"time": 1857, "pitch": 46, "duration": 8, "velocity": 40}, {"time": 1860, "pitch": 53, "duration": 3, "velocity": 41}, {"time": 1863, "pitch": 62, "duration": 12, "velocity": 82}, {"time": 1867, "pitch": 46, "duration": 6, "velocity": 27}, {"time": 1869, "pitch": 53, "duration": 5, "velocity": 58}, {"time": 1872, "pitch": 58, "duration": 2, "velocity": 56}, {"time": 1875, "pitch": 34, "duration": 18, "velocity": 72}, {"time": 1879, "pitch": 46, "duration": 4, "velocity": 52}, {"time": 1881, "pitch": 53, "duration": 6, "velocity": 50}, {"time": 1885, "pitch": 46, "duration": 3, "velocity": 45}, {"time": 1887, "pitch": 62, "duration": 12, "velocity": 82}, {"time": 1891, "pitch": 46, "duration": 3, "velocity": 67}, {"time": 1893, "pitch": 53, "duration": 4, "velocity": 63}, {"time": 1896, "pitch": 58, "duration": 2, "velocity": 45}, {"time": 1899, "pitch": 45, "duration": 18, "velocity": 55}, {"time": 1903, "pitch": 57, "duration": 3, "velocity": 52}, {"time": 1905, "pitch": 62, "duration": 4, "velocity": 56}, {"time": 1909, "pitch": 57, "duration": 3, "velocity": 55}, {"time": 1911, "pitch": 65, "duration": 10, "velocity": 73}, {"time": 1917, "pitch": 62, "duration": 4, "velocity": 67}, {"time": 1920, "pitch": 57, "duration": 2, "velocity": 49}, {"time": 1923, "pitch": 43, "duration": 20, "velocity": 63}, {"time": 1927, "pitch": 50, "duration": 4, "velocity": 52}, {"time": 1929, "pitch": 55, "duration": 6, "velocity": 69}, {"time": 1933, "pitch": 50, "duration": 11, "velocity": 34}, {"time": 1935, "pitch": 62, "duration": 13, "velocity": 75}, {"time": 1941, "pitch": 58, "duration": 7, "velocity": 52}, {"time": 1944, "pitch": 55, "duration": 3, "velocity": 44}, {"time": 1947, "pitch": 43, "duration": 17, "velocity": 40}, {"time": 1951, "pitch": 50, "duration": 3, "velocity": 36}, {"time": 1953, "pitch": 55, "duration": 4, "velocity": 60}, {"time": 1957, "pitch": 50, "duration": 6, "velocity": 31}, {"time": 1959, "pitch": 58, "duration": 7, "velocity": 73}, {"time": 1959, "pitch": 62, "duration": 10, "velocity": 81}, {"time": 1965, "pitch": 55, "duration": 5, "velocity": 66}, {"time": 1968, "pitch": 58, "duration": 3, "velocity": 60}, {"time": 1971, "pitch": 39, "duration": 15, "velocity": 40}, {"time": 1975, "pitch": 51, "duration": 3, "velocity": 46}, {"time": 1977, "pitch": 55, "duration": 6, "velocity": 59}, {"time": 1981, "pitch": 51, "duration": 5, "velocity": 53}, {"time": 1983, "pitch": 58, "duration": 7, "velocity": 70}, {"time": 1983, "pitch": 63, "duration": 11, "velocity": 85}, {"time": 1989, "pitch": 55, "duration": 6, "velocity": 59}, {"time": 1992, "pitch": 58, "duration": 2, "velocity": 65}, {"time": 1995, "pitch": 41, "duration": 16, "velocity": 61}, {"time": 1999, "pitch": 48, "duration": 3, "velocity": 56}, {"time": 2001, "pitch": 53, "duration": 5, "velocity": 58}, {"time": 2004, "pitch": 48, "duration": 6, "velocity": 48}, {"time": 2007, "pitch": 57, "duration": 7, "velocity": 69}, {"time": 2007, "pitch": 60, "duration": 11, "velocity": 78}, {"time": 2013, "pitch": 53, "duration": 6, "velocity": 56}, {"time": 2016, "pitch": 57, "duration": 2, "velocity": 57}, {"time": 2019, "pitch": 46, "duration": 8, "velocity": 48}, {"time": 2023, "pitch": 53, "duration": 3, "velocity": 59}, {"time": 2025, "pitch": 58, "duration": 4, "velocity": 48}, {"time": 2029, "pitch": 46, "duration": 9, "velocity": 60}, {"time": 2031, "pitch": 58, "duration": 7, "velocity": 66}, {"time": 2031, "pitch": 62, "duration": 13, "velocity": 86}, {"time": 2037, "pitch": 53, "duration": 6, "velocity": 67}, {"time": 2040, "pitch": 58, "duration": 3, "velocity": 62}, {"time": 2043, "pitch": 46, "duration": 3, "velocity": 67}, {"time": 2047, "pitch": 46, "duration": 3, "velocity": 56}, {"time": 2049, "pitch": 58, "duration": 4, "velocity": 69}, {"time": 2053, "pitch": 46, "duration": 11, "velocity": 58}, {"time": 2055, "pitch": 58, "duration": 7, "velocity": 90}, {"time": 2055, "pitch": 62, "duration": 11, "velocity": 92}, {"time": 2061, "pitch": 53, "duration": 6, "velocity": 79}, {"time": 2064, "pitch": 58, "duration": 3, "velocity": 64}, {"time": 2067, "pitch": 46, "duration": 23, "velocity": 76}, {"time": 2071, "pitch": 53, "duration": 3, "velocity": 68}, {"time": 2073, "pitch": 58, "duration": 5, "velocity": 69}, {"time": 2077, "pitch": 53, "duration": 4, "velocity": 59}, {"time": 2079, "pitch": 58, "duration": 7, "velocity": 69}, {"time": 2079, "pitch": 62, "duration": 11, "velocity": 89}, {"time": 2085, "pitch": 53, "duration": 5, "velocity": 78}, {"time": 2088, "pitch": 58, "duration": 2, "velocity": 70}, {"time": 2091, "pitch": 45, "duration": 20, "velocity": 61}, {"time": 2095, "pitch": 57, "duration": 3, "velocity": 62}, {"time": 2097, "pitch": 62, "duration": 4, "velocity": 66}, {"time": 2101, "pitch": 57, "duration": 2, "velocity": 67}, {"time": 2103, "pitch": 62, "duration": 6, "velocity": 76}, {"time": 2103, "pitch": 65, "duration": 12, "velocity": 76}, {"time": 2109, "pitch": 57, "duration": 6, "velocity": 79}, {"time": 2112, "pitch": 62, "duration": 2, "velocity": 69}, {"time": 2115, "pitch": 43, "duration": 21, "velocity": 63}, {"time": 2119, "pitch": 50, "duration": 3, "velocity": 53}, {"time": 2121, "pitch": 55, "duration": 6, "velocity": 76}, {"time": 2124, "pitch": 50, "duration": 13, "velocity": 52}, {"time": 2127, "pitch": 58, "duration": 6, "velocity": 96}, {"time": 2127, "pitch": 62, "duration": 12, "velocity": 90}, {"time": 2133, "pitch": 55, "duration": 6, "velocity": 76}, {"time": 2136, "pitch": 58, "duration": 3, "velocity": 63}, {"time": 2139, "pitch": 43, "duration": 16, "velocity": 56}, {"time": 2143, "pitch": 50, "duration": 3, "velocity": 55}, {"time": 2145, "pitch": 55, "duration": 5, "velocity": 76}, {"time": 2149, "pitch": 50, "duration": 5, "velocity": 40}, {"time": 2151, "pitch": 58, "duration": 6, "velocity": 79}, {"time": 2151, "pitch": 62, "duration": 7, "velocity": 81}, {"time": 2157, "pitch": 55, "duration": 5, "velocity": 58}, {"time": 2160, "pitch": 58, "duration": 3, "velocity": 50}, {"time": 2163, "pitch": 39, "duration": 15, "velocity": 61}, {"time": 2167, "pitch": 51, "duration": 3, "velocity": 52}, {"time": 2169, "pitch": 55, "duration": 6, "velocity": 56}, {"time": 2173, "pitch": 51, "duration": 5, "velocity": 56}, {"time": 2175, "pitch": 58, "duration": 7, "velocity": 73}, {"time": 2175, "pitch": 63, "duration": 11, "velocity": 97}, {"time": 2181, "pitch": 55, "duration": 5, "velocity": 63}, {"time": 2184, "pitch": 58, "duration": 2, "velocity": 78}, {"time": 2187, "pitch": 41, "duration": 21, "velocity": 66}, {"time": 2191, "pitch": 48, "duration": 3, "velocity": 57}, {"time": 2193, "pitch": 53, "duration": 5, "velocity": 56}, {"time": 2197, "pitch": 48, "duration": 13, "velocity": 54}, {"time": 2199, "pitch": 57, "duration": 7, "velocity": 66}, {"time": 2199, "pitch": 60, "duration": 12, "velocity": 72}, {"time": 2205, "pitch": 53, "duration": 4, "velocity": 55}, {"time": 2208, "pitch": 57, "duration": 2, "velocity": 58}, {"time": 2211, "pitch": 41, "duration": 21, "velocity": 57}, {"time": 2215, "pitch": 48, "duration": 3, "velocity": 55}, {"time": 2217, "pitch": 53, "duration": 5, "velocity": 63}, {"time": 2221, "pitch": 48, "duration": 13, "velocity": 41}, {"time": 2223, "pitch": 57, "duration": 7, "velocity": 73}, {"time": 2223, "pitch": 60, "duration": 13, "velocity": 83}, {"time": 2229, "pitch": 53, "duration": 6, "velocity": 52}, {"time": 2232, "pitch": 57, "duration": 4, "velocity": 63}, {"time": 2235, "pitch": 41, "duration": 18, "velocity": 61}, {"time": 2239, "pitch": 48, "duration": 4, "velocity": 61}, {"time": 2241, "pitch": 53, "duration": 5, "velocity": 69}, {"time": 2245, "pitch": 48, "duration": 3, "velocity": 58}, {"time": 2247, "pitch": 57, "duration": 7, "velocity": 83}, {"time": 2247, "pitch": 60, "duration": 10, "velocity": 93}, {"time": 2250, "pitch": 48, "duration": 3, "velocity": 95}, {"time": 2253, "pitch": 53, "duration": 4, "velocity": 82}, {"time": 2256, "pitch": 57, "duration": 1, "velocity": 50}, {"time": 2259, "pitch": 46, "duration": 21, "velocity": 81}, {"time": 2263, "pitch": 53, "duration": 3, "velocity": 65}, {"time": 2265, "pitch": 58, "duration": 4, "velocity": 64}, {"time": 2269, "pitch": 53, "duration": 3, "velocity": 48}, {"time": 2271, "pitch": 58, "duration": 7, "velocity": 64}, {"time": 2271, "pitch": 62, "duration": 11, "velocity": 75}, {"time": 2277, "pitch": 53, "duration": 4, "velocity": 65}, {"time": 2280, "pitch": 58, "duration": 2, "velocity": 64}, {"time": 2283, "pitch": 45, "duration": 20, "velocity": 85}, {"time": 2286, "pitch": 57, "duration": 3, "velocity": 63}, {"time": 2289, "pitch": 62, "duration": 4, "velocity": 63}, {"time": 2293, "pitch": 57, "duration": 2, "velocity": 63}, {"time": 2295, "pitch": 62, "duration": 6, "velocity": 71}, {"time": 2295, "pitch": 65, "duration": 11, "velocity": 69}, {"time": 2301, "pitch": 57, "duration": 5, "velocity": 76}, {"time": 2304, "pitch": 62, "duration": 2, "velocity": 57}, {"time": 2307, "pitch": 43, "duration": 22, "velocity": 57}, {"time": 2311, "pitch": 50, "duration": 3, "velocity": 50}, {"time": 2313, "pitch": 55, "duration": 6, "velocity": 72}, {"time": 2317, "pitch": 50, "duration": 13, "velocity": 50}, {"time": 2319, "pitch": 58, "duration": 6, "velocity": 74}, {"time": 2319, "pitch": 62, "duration": 13, "velocity": 74}, {"time": 2325, "pitch": 55, "duration": 5, "velocity": 66}, {"time": 2328, "pitch": 58, "duration": 3, "velocity": 65}, {"time": 2331, "pitch": 43, "duration": 15, "velocity": 50}, {"time": 2335, "pitch": 50, "duration": 3, "velocity": 53}, {"time": 2337, "pitch": 55, "duration": 6, "velocity": 67}, {"time": 2341, "pitch": 50, "duration": 4, "velocity": 51}, {"time": 2343, "pitch": 58, "duration": 6, "velocity": 73}, {"time": 2343, "pitch": 62, "duration": 9, "velocity": 88}, {"time": 2349, "pitch": 55, "duration": 6, "velocity": 68}, {"time": 2352, "pitch": 58, "duration": 3, "velocity": 63}, {"time": 2355, "pitch": 39, "duration": 17, "velocity": 70}, {"time": 2359, "pitch": 51, "duration": 2, "velocity": 45}, {"time": 2361, "pitch": 55, "duration": 5, "velocity": 70}, {"time": 2365, "pitch": 51, "duration": 5, "velocity": 43}, {"time": 2367, "pitch": 58, "duration": 7, "velocity": 62}, {"time": 2367, "pitch": 63, "duration": 11, "velocity": 92}, {"time": 2373, "pitch": 55, "duration": 6, "velocity": 69}, {"time": 2376, "pitch": 58, "duration": 2, "velocity": 65}, {"time": 2379, "pitch": 41, "duration": 15, "velocity": 58}, {"time": 2383, "pitch": 48, "duration": 4, "velocity": 59}, {"time": 2385, "pitch": 53, "duration": 5, "velocity": 58}, {"time": 2389, "pitch": 48, "duration": 4, "velocity": 61}, {"time": 2391, "pitch": 57, "duration": 6, "velocity": 75}, {"time": 2391, "pitch": 60, "duration": 11, "velocity": 82}, {"time": 2397, "pitch": 53, "duration": 5, "velocity": 56}, {"time": 2400, "pitch": 57, "duration": 2, "velocity": 61}, {"time": 2403, "pitch": 46, "duration": 8, "velocity": 41}, {"time": 2407, "pitch": 53, "duration": 2, "velocity": 46}, {"time": 2409, "pitch": 58, "duration": 4, "velocity": 48}, {"time": 2413, "pitch": 46, "duration": 11, "velocity": 50}, {"time": 2413, "pitch": 53, "duration": 2, "velocity": 34}, {"time": 2415, "pitch": 58, "duration": 7, "velocity": 68}, {"time": 2415, "pitch": 62, "duration": 13, "velocity": 81}, {"time": 2421, "pitch": 53, "duration": 6, "velocity": 68}, {"time": 2424, "pitch": 58, "duration": 4, "velocity": 64}, {"time": 2427, "pitch": 46, "duration": 3, "velocity": 90}, {"time": 2431, "pitch": 46, "duration": 2, "velocity": 68}, {"time": 2433, "pitch": 58, "duration": 2, "velocity": 95}, {"time": 2433, "pitch": 62, "duration": 2, "velocity": 99}, {"time": 2445, "pitch": 58, "duration": 4, "velocity": 127}, {"time": 2445, "pitch": 62, "duration": 4, "velocity": 122}, {"time": 2448, "pitch": 53, "duration": 1, "velocity": 90}, {"time": 2451, "pitch": 43, "duration": 22, "velocity": 79}, {"time": 2455, "pitch": 50, "duration": 18, "velocity": 69}, {"time": 2457, "pitch": 55, "duration": 6, "velocity": 88}, {"time": 2463, "pitch": 58, "duration": 6, "velocity": 127}, {"time": 2463, "pitch": 62, "duration": 7, "velocity": 102}, {"time": 2469, "pitch": 55, "duration": 4, "velocity": 92}, {"time": 2472, "pitch": 58, "duration": 2, "velocity": 102}, {"time": 2472, "pitch": 62, "duration": 1, "velocity": 96}, {"time": 2475, "pitch": 43, "duration": 18, "velocity": 73}, {"time": 2479, "pitch": 50, "duration": 3, "velocity": 64}, {"time": 2481, "pitch": 55, "duration": 6, "velocity": 89}, {"time": 2485, "pitch": 50, "duration": 7, "velocity": 71}, {"time": 2487, "pitch": 58, "duration": 7, "velocity": 102}, {"time": 2487, "pitch": 62, "duration": 11, "velocity": 96}, {"time": 2493, "pitch": 55, "duration": 5, "velocity": 95}, {"time": 2496, "pitch": 58, "duration": 2, "velocity": 96}, {"time": 2499, "pitch": 41, "duration": 13, "velocity": 72}, {"time": 2503, "pitch": 48, "duration": 3, "velocity": 64}, {"time": 2505, "pitch": 53, "duration": 5, "velocity": 92}, {"time": 2509, "pitch": 48, "duration": 3, "velocity": 85}, {"time": 2511, "pitch": 57, "duration": 7, "velocity": 96}, {"time": 2511, "pitch": 60, "duration": 11, "velocity": 99}, {"time": 2517, "pitch": 53, "duration": 4, "velocity": 90}, {"time": 2521, "pitch": 57, "duration": 2, "velocity": 75}, {"time": 2523, "pitch": 46, "duration": 2, "velocity": 77}, {"time": 2527, "pitch": 46, "duration": 3, "velocity": 59}, {"time": 2529, "pitch": 53, "duration": 7, "velocity": 85}, {"time": 2532, "pitch": 46, "duration": 7, "velocity": 65}, {"time": 2535, "pitch": 58, "duration": 7, "velocity": 99}, {"time": 2535, "pitch": 62, "duration": 11, "velocity": 93}, {"time": 2541, "pitch": 53, "duration": 5, "velocity": 88}, {"time": 2544, "pitch": 58, "duration": 2, "velocity": 90}, {"time": 2547, "pitch": 36, "duration": 17, "velocity": 61}, {"time": 2551, "pitch": 48, "duration": 3, "velocity": 55}, {"time": 2553, "pitch": 55, "duration": 6, "velocity": 77}, {"time": 2557, "pitch": 48, "duration": 4, "velocity": 70}, {"time": 2559, "pitch": 60, "duration": 6, "velocity": 95}, {"time": 2559, "pitch": 63, "duration": 12, "velocity": 99}, {"time": 2563, "pitch": 48, "duration": 5, "velocity": 65}, {"time": 2565, "pitch": 55, "duration": 7, "velocity": 86}, {"time": 2568, "pitch": 60, "duration": 3, "velocity": 82}, {"time": 2571, "pitch": 41, "duration": 21, "velocity": 66}, {"time": 2575, "pitch": 48, "duration": 3, "velocity": 60}, {"time": 2577, "pitch": 53, "duration": 5, "velocity": 77}, {"time": 2581, "pitch": 48, "duration": 4, "velocity": 51}, {"time": 2583, "pitch": 57, "duration": 7, "velocity": 97}, {"time": 2583, "pitch": 60, "duration": 12, "velocity": 102}, {"time": 2587, "pitch": 48, "duration": 7, "velocity": 61}, {"time": 2589, "pitch": 53, "duration": 4, "velocity": 77}, {"time": 2592, "pitch": 57, "duration": 2, "velocity": 95}, {"time": 2595, "pitch": 41, "duration": 22, "velocity": 67}, {"time": 2599, "pitch": 48, "duration": 3, "velocity": 63}, {"time": 2601, "pitch": 53, "duration": 5, "velocity": 90}, {"time": 2605, "pitch": 48, "duration": 4, "velocity": 73}, {"time": 2607, "pitch": 57, "duration": 6, "velocity": 99}, {"time": 2607, "pitch": 60, "duration": 7, "velocity": 102}, {"time": 2610, "pitch": 48, "duration": 7, "velocity": 75}, {"time": 2613, "pitch": 53, "duration": 4, "velocity": 82}, {"time": 2616, "pitch": 57, "duration": 3, "velocity": 92}, {"time": 2616, "pitch": 60, "duration": 4, "velocity": 95}, {"time": 2619, "pitch": 41, "duration": 19, "velocity": 85}, {"time": 2623, "pitch": 48, "duration": 4, "velocity": 63}, {"time": 2625, "pitch": 53, "duration": 5, "velocity": 122}, {"time": 2629, "pitch": 48, "duration": 3, "velocity": 93}, {"time": 2631, "pitch": 55, "duration": 8, "velocity": 127}, {"time": 2634, "pitch": 48, "duration": 8, "velocity": 117}, {"time": 2637, "pitch": 57, "duration": 5, "velocity": 117}, {"time": 2643, "pitch": 43, "duration": 21, "velocity": 77}, {"time": 2647, "pitch": 50, "duration": 3, "velocity": 59}, {"time": 2649, "pitch": 55, "duration": 6, "velocity": 92}, {"time": 2653, "pitch": 50, "duration": 5, "velocity": 75}, {"time": 2655, "pitch": 58, "duration": 7, "velocity": 117}, {"time": 2655, "pitch": 62, "duration": 13, "velocity": 100}, {"time": 2659, "pitch": 50, "duration": 7, "velocity": 42}, {"time": 2661, "pitch": 55, "duration": 6, "velocity": 66}, {"time": 2664, "pitch": 58, "duration": 3, "velocity": 96}, {"time": 2667, "pitch": 43, "duration": 18, "velocity": 86}, {"time": 2671, "pitch": 50, "duration": 3, "velocity": 63}, {"time": 2673, "pitch": 55, "duration": 6, "velocity": 96}, {"time": 2677, "pitch": 50, "duration": 4, "velocity": 79}, {"time": 2679, "pitch": 58, "duration": 6, "velocity": 122}, {"time": 2679, "pitch": 62, "duration": 11, "velocity": 102}, {"time": 2682, "pitch": 50, "duration": 3, "velocity": 62}, {"time": 2685, "pitch": 55, "duration": 5, "velocity": 93}, {"time": 2688, "pitch": 58, "duration": 2, "velocity": 102}, {"time": 2691, "pitch": 41, "duration": 19, "velocity": 74}, {"time": 2694, "pitch": 48, "duration": 3, "velocity": 59}, {"time": 2697, "pitch": 53, "duration": 7, "velocity": 92}, {"time": 2701, "pitch": 48, "duration": 4, "velocity": 53}, {"time": 2703, "pitch": 57, "duration": 7, "velocity": 107}, {"time": 2703, "pitch": 60, "duration": 10, "velocity": 107}, {"time": 2706, "pitch": 48, "duration": 3, "velocity": 82}, {"time": 2709, "pitch": 53, "duration": 6, "velocity": 92}, {"time": 2713, "pitch": 57, "duration": 2, "velocity": 90}, {"time": 2715, "pitch": 34, "duration": 17, "velocity": 95}, {"time": 2719, "pitch": 46, "duration": 3, "velocity": 56}, {"time": 2721, "pitch": 53, "duration": 7, "velocity": 90}, {"time": 2724, "pitch": 46, "duration": 3, "velocity": 74}, {"time": 2727, "pitch": 58, "duration": 6, "velocity": 112}, {"time": 2727, "pitch": 62, "duration": 11, "velocity": 100}, {"time": 2730, "pitch": 46, "duration": 2, "velocity": 88}, {"time": 2733, "pitch": 53, "duration": 5, "velocity": 85}, {"time": 2736, "pitch": 58, "duration": 2, "velocity": 99}, {"time": 2739, "pitch": 36, "duration": 18, "velocity": 73}, {"time": 2743, "pitch": 43, "duration": 14, "velocity": 48}, {"time": 2745, "pitch": 55, "duration": 6, "velocity": 92}, {"time": 2748, "pitch": 48, "duration": 3, "velocity": 53}, {"time": 2751, "pitch": 60, "duration": 5, "velocity": 97}, {"time": 2751, "pitch": 63, "duration": 11, "velocity": 117}, {"time": 2754, "pitch": 48, "duration": 5, "velocity": 67}, {"time": 2757, "pitch": 55, "duration": 6, "velocity": 95}, {"time": 2760, "pitch": 60, "duration": 3, "velocity": 79}, {"time": 2763, "pitch": 41, "duration": 17, "velocity": 72}, {"time": 2767, "pitch": 48, "duration": 3, "velocity": 60}, {"time": 2769, "pitch": 53, "duration": 5, "velocity": 78}, {"time": 2772, "pitch": 48, "duration": 3, "velocity": 58}, {"time": 2775, "pitch": 57, "duration": 7, "velocity": 95}, {"time": 2775, "pitch": 60, "duration": 10, "velocity": 100}, {"time": 2778, "pitch": 48, "duration": 2, "velocity": 68}, {"time": 2781, "pitch": 53, "duration": 4, "velocity": 82}, {"time": 2784, "pitch": 57, "duration": 1, "velocity": 83}, {"time": 2787, "pitch": 46, "duration": 22, "velocity": 97}, {"time": 2791, "pitch": 50, "duration": 3, "velocity": 53}, {"time": 2793, "pitch": 53, "duration": 7, "velocity": 69}, {"time": 2796, "pitch": 50, "duration": 3, "velocity": 59}, {"time": 2799, "pitch": 58, "duration": 7, "velocity": 102}, {"time": 2799, "pitch": 62, "duration": 7, "velocity": 97}, {"time": 2802, "pitch": 50, "duration": 6, "velocity": 63}, {"time": 2805, "pitch": 53, "duration": 5, "velocity": 82}, {"time": 2808, "pitch": 58, "duration": 3, "velocity": 83}, {"time": 2808, "pitch": 62, "duration": 3, "velocity": 76}, {"time": 2811, "pitch": 46, "duration": 18, "velocity": 88}, {"time": 2815, "pitch": 50, "duration": 4, "velocity": 42}, {"time": 2817, "pitch": 53, "duration": 6, "velocity": 90}, {"time": 2820, "pitch": 50, "duration": 3, "velocity": 54}, {"time": 2823, "pitch": 58, "duration": 7, "velocity": 89}, {"time": 2823, "pitch": 62, "duration": 10, "velocity": 95}, {"time": 2826, "pitch": 50, "duration": 2, "velocity": 45}, {"time": 2829, "pitch": 53, "duration": 5, "velocity": 74}, {"time": 2832, "pitch": 58, "duration": 2, "velocity": 89}, {"time": 2835, "pitch": 43, "duration": 22, "velocity": 79}, {"time": 2839, "pitch": 50, "duration": 18, "velocity": 69}, {"time": 2841, "pitch": 55, "duration": 6, "velocity": 88}, {"time": 2847, "pitch": 58, "duration": 6, "velocity": 127}, {"time": 2847, "pitch": 62, "duration": 7, "velocity": 102}, {"time": 2853, "pitch": 55, "duration": 4, "velocity": 92}, {"time": 2856, "pitch": 58, "duration": 2, "velocity": 102}, {"time": 2856, "pitch": 62, "duration": 1, "velocity": 96}, {"time": 2859, "pitch": 43, "duration": 18, "velocity": 73}, {"time": 2863, "pitch": 50, "duration": 3, "velocity": 64}, {"time": 2865, "pitch": 55, "duration": 6, "velocity": 89}, {"time": 2869, "pitch": 50, "duration": 7, "velocity": 71}, {"time": 2871, "pitch": 58, "duration": 7, "velocity": 102}, {"time": 2871, "pitch": 62, "duration": 11, "velocity": 96}, {"time": 2877, "pitch": 55, "duration": 5, "velocity": 95}, {"time": 2880, "pitch": 58, "duration": 2, "velocity": 96}, {"time": 2883, "pitch": 41, "duration": 13, "velocity": 72}, {"time": 2887, "pitch": 48, "duration": 3, "velocity": 64}, {"time": 2889, "pitch": 53, "duration": 5, "velocity": 92}, {"time": 2893, "pitch": 48, "duration": 3, "velocity": 85}, {"time": 2895, "pitch": 57, "duration": 7, "velocity": 96}, {"time": 2895, "pitch": 60, "duration": 11, "velocity": 99}, {"time": 2901, "pitch": 53, "duration": 4, "velocity": 90}, {"time": 2905, "pitch": 57, "duration": 2, "velocity": 75}, {"time": 2907, "pitch": 46, "duration": 2, "velocity": 77}, {"time": 2911, "pitch": 46, "duration": 3, "velocity": 59}, {"time": 2913, "pitch": 53, "duration": 7, "velocity": 85}, {"time": 2916, "pitch": 46, "duration": 7, "velocity": 65}, {"time": 2919, "pitch": 58, "duration": 7, "velocity": 99}, {"time": 2919, "pitch": 62, "duration": 11, "velocity": 93}, {"time": 2925, "pitch": 53, "duration": 5, "velocity": 88}, {"time": 2928, "pitch": 58, "duration": 2, "velocity": 90}, {"time": 2931, "pitch": 36, "duration": 17, "velocity": 61}, {"time": 2935, "pitch": 48, "duration": 3, "velocity": 55}, {"time": 2937, "pitch": 55, "duration": 6, "velocity": 77}, {"time": 2941, "pitch": 48, "duration": 4, "velocity": 70}, {"time": 2943, "pitch": 60, "duration": 6, "velocity": 95}, {"time": 2943, "pitch": 63, "duration": 12, "velocity": 99}, {"time": 2947, "pitch": 48, "duration": 5, "velocity": 65}, {"time": 2949, "pitch": 55, "duration": 7, "velocity": 86}, {"time": 2952, "pitch": 60, "duration": 3, "velocity": 82}, {"time": 2955, "pitch": 41, "duration": 21, "velocity": 66}, {"time": 2959, "pitch": 48, "duration": 3, "velocity": 60}, {"time": 2961, "pitch": 53, "duration": 5, "velocity": 77}, {"time": 2965, "pitch": 48, "duration": 4, "velocity": 51}, {"time": 2967, "pitch": 57, "duration": 7, "velocity": 97}, {"time": 2967, "pitch": 60, "duration": 12, "velocity": 102}, {"time": 2971, "pitch": 48, "duration": 7, "velocity": 61}, {"time": 2973, "pitch": 53, "duration": 4, "velocity": 77}, {"time": 2976, "pitch": 57, "duration": 2, "velocity": 95}, {"time": 2979, "pitch": 41, "duration": 22, "velocity": 67}, {"time": 2983, "pitch": 48, "duration": 3, "velocity": 63}, {"time": 2985, "pitch": 53, "duration": 5, "velocity": 90}, {"time": 2989, "pitch": 48, "duration": 4, "velocity": 73}, {"time": 2991, "pitch": 57, "duration": 6, "velocity": 99}, {"time": 2991, "pitch": 60, "duration": 7, "velocity": 102}, {"time": 2994, "pitch": 48, "duration": 7, "velocity": 75}, {"time": 2997, "pitch": 53, "duration": 4, "velocity": 82}, {"time": 3000, "pitch": 57, "duration": 3, "velocity": 92}, {"time": 3000, "pitch": 60, "duration": 4, "velocity": 95}, {"time": 3003, "pitch": 41, "duration": 19, "velocity": 85}, {"time": 3007, "pitch": 48, "duration": 4, "velocity": 63}, {"time": 3009, "pitch": 53, "duration": 5, "velocity": 122}, {"time": 3013, "pitch": 48, "duration": 3, "velocity": 93}, {"time": 3015, "pitch": 55, "duration": 8, "velocity": 127}, {"time": 3018, "pitch": 48, "duration": 8, "velocity": 117}, {"time": 3021, "pitch": 57, "duration": 5, "velocity": 117}, {"time": 3027, "pitch": 43, "duration": 21, "velocity": 77}, {"time": 3031, "pitch": 50, "duration": 3, "velocity": 59}, {"time": 3033, "pitch": 55, "duration": 6, "velocity": 92}, {"time": 3037, "pitch": 50, "duration": 5, "velocity": 75}, {"time": 3039, "pitch": 58, "duration": 7, "velocity": 117}, {"time": 3039, "pitch": 62, "duration": 13, "velocity": 100}, {"time": 3043, "pitch": 50, "duration": 7, "velocity": 42}, {"time": 3045, "pitch": 55, "duration": 6, "velocity": 66}, {"time": 3048, "pitch": 58, "duration": 3, "velocity": 96}, {"time": 3051, "pitch": 43, "duration": 18, "velocity": 86}, {"time": 3055, "pitch": 50, "duration": 3, "velocity": 63}, {"time": 3057, "pitch": 55, "duration": 6, "velocity": 96}, {"time": 3061, "pitch": 50, "duration": 4, "velocity": 79}, {"time": 3063, "pitch": 58, "duration": 6, "velocity": 122}, {"time": 3063, "pitch": 62, "duration": 11, "velocity": 102}, {"time": 3066, "pitch": 50, "duration": 3, "velocity": 62}, {"time": 3069, "pitch": 55, "duration": 5, "velocity": 93}, {"time": 3072, "pitch": 58, "duration": 2, "velocity": 102}, {"time": 3075, "pitch": 41, "duration": 19, "velocity": 74}, {"time": 3078, "pitch": 48, "duration": 3, "velocity": 59}, {"time": 3081, "pitch": 53, "duration": 7, "velocity": 92}, {"time": 3085, "pitch": 48, "duration": 4, "velocity": 53}, {"time": 3087, "pitch": 57, "duration": 7, "velocity": 107}, {"time": 3087, "pitch": 60, "duration": 10, "velocity": 107}, {"time": 3090, "pitch": 48, "duration": 3, "velocity": 82}, {"time": 3093, "pitch": 53, "duration": 6, "velocity": 92}, {"time": 3097, "pitch": 57, "duration": 2, "velocity": 90}, {"time": 3099, "pitch": 34, "duration": 17, "velocity": 95}, {"time": 3103, "pitch": 46, "duration": 3, "velocity": 56}, {"time": 3105, "pitch": 53, "duration": 7, "velocity": 90}, {"time": 3108, "pitch": 46, "duration": 3, "velocity": 74}, {"time": 3111, "pitch": 58, "duration": 6, "velocity": 112}, {"time": 3111, "pitch": 62, "duration": 11, "velocity": 100}, {"time": 3114, "pitch": 46, "duration": 2, "velocity": 88}, {"time": 3117, "pitch": 53, "duration": 5, "velocity": 85}, {"time": 3120, "pitch": 58, "duration": 2, "velocity": 99}, {"time": 3123, "pitch": 36, "duration": 18, "velocity": 73}, {"time": 3127, "pitch": 43, "duration": 14, "velocity": 48}, {"time": 3129, "pitch": 55, "duration": 6, "velocity": 92}, {"time": 3132, "pitch": 48, "duration": 3, "velocity": 53}, {"time": 3135, "pitch": 60, "duration": 5, "velocity": 97}, {"time": 3135, "pitch": 63, "duration": 11, "velocity": 117}, {"time": 3138, "pitch": 48, "duration": 5, "velocity": 67}, {"time": 3141, "pitch": 55, "duration": 6, "velocity": 95}, {"time": 3144, "pitch": 60, "duration": 3, "velocity": 79}, {"time": 3147, "pitch": 41, "duration": 17, "velocity": 72}, {"time": 3151, "pitch": 48, "duration": 3, "velocity": 60}, {"time": 3153, "pitch": 53, "duration": 5, "velocity": 78}, {"time": 3156, "pitch": 48, "duration": 3, "velocity": 58}, {"time": 3159, "pitch": 57, "duration": 7, "velocity": 95}, {"time": 3159, "pitch": 60, "duration": 10, "velocity": 100}, {"time": 3162, "pitch": 48, "duration": 2, "velocity": 68}, {"time": 3165, "pitch": 53, "duration": 4, "velocity": 82}, {"time": 3168, "pitch": 57, "duration": 1, "velocity": 83}, {"time": 3171, "pitch": 46, "duration": 22, "velocity": 97}, {"time": 3175, "pitch": 50, "duration": 3, "velocity": 53}, {"time": 3177, "pitch": 53, "duration": 7, "velocity": 69}, {"time": 3180, "pitch": 50, "duration": 3, "velocity": 59}, {"time": 3183, "pitch": 58, "duration": 7, "velocity": 102}, {"time": 3183, "pitch": 62, "duration": 7, "velocity": 97}, {"time": 3186, "pitch": 50, "duration": 6, "velocity": 63}, {"time": 3189, "pitch": 53, "duration": 5, "velocity": 82}, {"time": 3192, "pitch": 58, "duration": 3, "velocity": 83}, {"time": 3192, "pitch": 62, "duration": 3, "velocity": 76}, {"time": 3195, "pitch": 46, "duration": 18, "velocity": 88}, {"time": 3199, "pitch": 50, "duration": 4, "velocity": 42}, {"time": 3201, "pitch": 53, "duration": 6, "velocity": 90}, {"time": 3204, "pitch": 50, "duration": 3, "velocity": 54}, {"time": 3207, "pitch": 58, "duration": 7, "velocity": 89}, {"time": 3207, "pitch": 62, "duration": 10, "velocity": 95}, {"time": 3210, "pitch": 50, "duration": 2, "velocity": 45}, {"time": 3213, "pitch": 53, "duration": 5, "velocity": 74}, {"time": 3216, "pitch": 58, "duration": 2, "velocity": 89}, {"time": 3219, "pitch": 43, "duration": 22, "velocity": 79}, {"time": 3223, "pitch": 50, "duration": 18, "velocity": 69}, {"time": 3225, "pitch": 55, "duration": 6, "velocity": 88}, {"time": 3231, "pitch": 58, "duration": 6, "velocity": 127}, {"time": 3231, "pitch": 62, "duration": 7, "velocity": 102}, {"time": 3237, "pitch": 55, "duration": 4, "velocity": 92}, {"time": 3240, "pitch": 58, "duration": 2, "velocity": 102}, {"time": 3240, "pitch": 62, "duration": 1, "velocity": 96}, {"time": 3243, "pitch": 43, "duration": 18, "velocity": 73}, {"time": 3247, "pitch": 50, "duration": 3, "velocity": 64}, {"time": 3249, "pitch": 55, "duration": 6, "velocity": 89}, {"time": 3253, "pitch": 50, "duration": 7, "velocity": 71}, {"time": 3255, "pitch": 58, "duration": 7, "velocity": 102}, {"time": 3255, "pitch": 62, "duration": 11, "velocity": 96}, {"time": 3261, "pitch": 55, "duration": 5, "velocity": 95}, {"time": 3264, "pitch": 58, "duration": 2, "velocity": 96}, {"time": 3267, "pitch": 41, "duration": 13, "velocity": 72}, {"time": 3271, "pitch": 48, "duration": 3, "velocity": 64}, {"time": 3273, "pitch": 53, "duration": 5, "velocity": 92}, {"time": 3277, "pitch": 48, "duration": 3, "velocity": 85}, {"time": 3279, "pitch": 57, "duration": 7, "velocity": 96}, {"time": 3279, "pitch": 60, "duration": 11, "velocity": 99}, {"time": 3285, "pitch": 53, "duration": 4, "velocity": 90}, {"time": 3289, "pitch": 57, "duration": 2, "velocity": 75}, {"time": 3291, "pitch": 46, "duration": 2, "velocity": 77}, {"time": 3295, "pitch": 46, "duration": 3, "velocity": 59}, {"time": 3297, "pitch": 53, "duration": 7, "velocity": 85}, {"time": 3300, "pitch": 46, "duration": 7, "velocity": 65}, {"time": 3303, "pitch": 58, "duration": 7, "velocity": 99}, {"time": 3303, "pitch": 62, "duration": 11, "velocity": 93}, {"time": 3309, "pitch": 53, "duration": 5, "velocity": 88}, {"time": 3312, "pitch": 58, "duration": 2, "velocity": 90}, {"time": 3315, "pitch": 36, "duration": 17, "velocity": 61}, {"time": 3319, "pitch": 48, "duration": 3, "velocity": 55}, {"time": 3321, "pitch": 55, "duration": 6, "velocity": 77}, {"time": 3325, "pitch": 48, "duration": 4, "velocity": 70}, {"time": 3327, "pitch": 60, "duration": 6, "velocity": 95}, {"time": 3327, "pitch": 63, "duration": 12, "velocity": 99}, {"time": 3331, "pitch": 48, "duration": 5, "velocity": 65}, {"time": 3333, "pitch": 55, "duration": 7, "velocity": 86}, {"time": 3336, "pitch": 60, "duration": 3, "velocity": 82}, {"time": 3339, "pitch": 41, "duration": 21, "velocity": 66}, {"time": 3343, "pitch": 48, "duration": 3, "velocity": 60}, {"time": 3345, "pitch": 53, "duration": 5, "velocity": 77}, {"time": 3349, "pitch": 48, "duration": 4, "velocity": 51}, {"time": 3351, "pitch": 57, "duration": 7, "velocity": 97}, {"time": 3351, "pitch": 60, "duration": 12, "velocity": 102}, {"time": 3355, "pitch": 48, "duration": 7, "velocity": 61}, {"time": 3357, "pitch": 53, "duration": 4, "velocity": 77}, {"time": 3360, "pitch": 57, "duration": 2, "velocity": 95}, {"time": 3363, "pitch": 41, "duration": 22, "velocity": 67}, {"time": 3367, "pitch": 48, "duration": 3, "velocity": 63}, {"time": 3369, "pitch": 53, "duration": 5, "velocity": 90}, {"time": 3373, "pitch": 48, "duration": 4, "velocity": 73}, {"time": 3375, "pitch": 57, "duration": 6, "velocity": 99}, {"time": 3375, "pitch": 60, "duration": 7, "velocity": 102}, {"time": 3378, "pitch": 48, "duration": 7, "velocity": 75}, {"time": 3381, "pitch": 53, "duration": 4, "velocity": 82}, {"time": 3384, "pitch": 57, "duration": 3, "velocity": 92}, {"time": 3384, "pitch": 60, "duration": 4, "velocity": 95}, {"time": 3387, "pitch": 41, "duration": 19, "velocity": 85}, {"time": 3391, "pitch": 48, "duration": 4, "velocity": 63}, {"time": 3393, "pitch": 53, "duration": 5, "velocity": 122}, {"time": 3397, "pitch": 48, "duration": 3, "velocity": 93}, {"time": 3399, "pitch": 55, "duration": 8, "velocity": 127}, {"time": 3402, "pitch": 48, "duration": 8, "velocity": 117}, {"time": 3405, "pitch": 57, "duration": 5, "velocity": 117}, {"time": 3411, "pitch": 43, "duration": 21, "velocity": 77}, {"time": 3415, "pitch": 50, "duration": 3, "velocity": 59}, {"time": 3417, "pitch": 55, "duration": 6, "velocity": 92}, {"time": 3421, "pitch": 50, "duration": 5, "velocity": 75}, {"time": 3423, "pitch": 58, "duration": 7, "velocity": 117}, {"time": 3423, "pitch": 62, "duration": 13, "velocity": 100}, {"time": 3427, "pitch": 50, "duration": 7, "velocity": 42}, {"time": 3429, "pitch": 55, "duration": 6, "velocity": 66}, {"time": 3432, "pitch": 58, "duration": 3, "velocity": 96}, {"time": 3435, "pitch": 43, "duration": 18, "velocity": 86}, {"time": 3439, "pitch": 50, "duration": 3, "velocity": 63}, {"time": 3441, "pitch": 55, "duration": 6, "velocity": 96}, {"time": 3445, "pitch": 50, "duration": 4, "velocity": 79}, {"time": 3447, "pitch": 58, "duration": 6, "velocity": 122}, {"time": 3447, "pitch": 62, "duration": 11, "velocity": 102}, {"time": 3450, "pitch": 50, "duration": 3, "velocity": 62}, {"time": 3453, "pitch": 55, "duration": 5, "velocity": 93}, {"time": 3456, "pitch": 58, "duration": 2, "velocity": 102}, {"time": 3459, "pitch": 41, "duration": 19, "velocity": 74}, {"time": 3462, "pitch": 48, "duration": 3, "velocity": 59}, {"time": 3465, "pitch": 53, "duration": 7, "velocity": 92}, {"time": 3469, "pitch": 48, "duration": 4, "velocity": 53}, {"time": 3471, "pitch": 57, "duration": 7, "velocity": 107}, {"time": 3471, "pitch": 60, "duration": 10, "velocity": 107}, {"time": 3474, "pitch": 48, "duration": 3, "velocity": 82}, {"time": 3477, "pitch": 53, "duration": 6, "velocity": 92}, {"time": 3481, "pitch": 57, "duration": 2, "velocity": 90}, {"time": 3483, "pitch": 34, "duration": 17, "velocity": 95}, {"time": 3487, "pitch": 46, "duration": 3, "velocity": 56}, {"time": 3489, "pitch": 53, "duration": 7, "velocity": 90}, {"time": 3492, "pitch": 46, "duration": 3, "velocity": 74}, {"time": 3495, "pitch": 58, "duration": 6, "velocity": 112}, {"time": 3495, "pitch": 62, "duration": 11, "velocity": 100}, {"time": 3498, "pitch": 46, "duration": 2, "velocity": 88}, {"time": 3501, "pitch": 53, "duration": 5, "velocity": 85}, {"time": 3504, "pitch": 58, "duration": 2, "velocity": 99}, {"time": 3507, "pitch": 36, "duration": 18, "velocity": 73}, {"time": 3511, "pitch": 43, "duration": 14, "velocity": 48}, {"time": 3513, "pitch": 55, "duration": 6, "velocity": 92}, {"time": 3516, "pitch": 48, "duration": 3, "velocity": 53}, {"time": 3519, "pitch": 60, "duration": 5, "velocity": 97}, {"time": 3519, "pitch": 63, "duration": 11, "velocity": 117}, {"time": 3522, "pitch": 48, "duration": 5, "velocity": 67}, {"time": 3525, "pitch": 55, "duration": 6, "velocity": 95}, {"time": 3528, "pitch": 60, "duration": 3, "velocity": 79}, {"time": 3531, "pitch": 41, "duration": 21, "velocity": 88}, {"time": 3535, "pitch": 53, "duration": 4, "velocity": 66}, {"time": 3537, "pitch": 60, "duration": 6, "velocity": 76}, {"time": 3541, "pitch": 53, "duration": 4, "velocity": 73}, {"time": 3543, "pitch": 65, "duration": 6, "velocity": 86}, {"time": 3543, "pitch": 69, "duration": 7, "velocity": 88}, {"time": 3547, "pitch": 53, "duration": 7, "velocity": 35}, {"time": 3549, "pitch": 60, "duration": 28, "velocity": 74}, {"time": 3552, "pitch": 65, "duration": 25, "velocity": 90}, {"time": 3555, "pitch": 41, "duration": 22, "velocity": 75}, {"time": 3555, "pitch": 53, "duration": 22, "velocity": 79}, {"time": 3555, "pitch": 69, "duration": 22, "velocity": 92}, {"time": 3579, "pitch": 34, "duration": 18, "velocity": 83}, {"time": 3579, "pitch": 58, "duration": 17, "velocity": 62}, {"time": 3579, "pitch": 62, "duration": 18, "velocity": 53}, {"time": 3579, "pitch": 65, "duration": 18, "velocity": 50}, {"time": 3603, "pitch": 43, "duration": 22, "velocity": 79}, {"time": 3607, "pitch": 50, "duration": 18, "velocity": 69}, {"time": 3609, "pitch": 55, "duration": 6, "velocity": 88}, {"time": 3615, "pitch": 58, "duration": 6, "velocity": 127}, {"time": 3615, "pitch": 62, "duration": 7, "velocity": 102}, {"time": 3621, "pitch": 55, "duration": 4, "velocity": 92}, {"time": 3624, "pitch": 58, "duration": 2, "velocity": 102}, {"time": 3624, "pitch": 62, "duration": 1, "velocity": 96}, {"time": 3627, "pitch": 43, "duration": 18, "velocity": 73}, {"time": 3631, "pitch": 50, "duration": 3, "velocity": 64}, {"time": 3633, "pitch": 55, "duration": 6, "velocity": 89}, {"time": 3637, "pitch": 50, "duration": 7, "velocity": 71}, {"time": 3639, "pitch": 58, "duration": 7, "velocity": 102}, {"time": 3639, "pitch": 62, "duration": 11, "velocity": 96}, {"time": 3645, "pitch": 55, "duration": 5, "velocity": 95}, {"time": 3648, "pitch": 58, "duration": 2, "velocity": 96}, {"time": 3651, "pitch": 41, "duration": 13, "velocity": 72}, {"time": 3655, "pitch": 48, "duration": 3, "velocity": 64}, {"time": 3657, "pitch": 53, "duration": 5, "velocity": 92}, {"time": 3661, "pitch": 48, "duration": 3, "velocity": 85}, {"time": 3663, "pitch": 57, "duration": 7, "velocity": 96}, {"time": 3663, "pitch": 60, "duration": 11, "velocity": 99}, {"time": 3669, "pitch": 53, "duration": 4, "velocity": 90}, {"time": 3673, "pitch": 57, "duration": 2, "velocity": 75}, {"time": 3675, "pitch": 46, "duration": 2, "velocity": 77}, {"time": 3679, "pitch": 46, "duration": 3, "velocity": 59}, {"time": 3681, "pitch": 53, "duration": 7, "velocity": 85}, {"time": 3684, "pitch": 46, "duration": 7, "velocity": 65}, {"time": 3687, "pitch": 58, "duration": 7, "velocity": 99}, {"time": 3687, "pitch": 62, "duration": 11, "velocity": 93}, {"time": 3693, "pitch": 53, "duration": 5, "velocity": 88}, {"time": 3696, "pitch": 58, "duration": 2, "velocity": 90}, {"time": 3699, "pitch": 36, "duration": 17, "velocity": 61}, {"time": 3703, "pitch": 48, "duration": 3, "velocity": 55}, {"time": 3705, "pitch": 55, "duration": 6, "velocity": 77}, {"time": 3709, "pitch": 48, "duration": 4, "velocity": 70}, {"time": 3711, "pitch": 60, "duration": 6, "velocity": 95}, {"time": 3711, "pitch": 63, "duration": 12, "velocity": 99}, {"time": 3715, "pitch": 48, "duration": 5, "velocity": 65}, {"time": 3717, "pitch": 55, "duration": 7, "velocity": 86}, {"time": 3720, "pitch": 60, "duration": 3, "velocity": 82}, {"time": 3723, "pitch": 41, "duration": 21, "velocity": 66}, {"time": 3727, "pitch": 48, "duration": 3, "velocity": 60}, {"time": 3729, "pitch": 53, "duration": 5, "velocity": 77}, {"time": 3733, "pitch": 48, "duration": 4, "velocity": 51}, {"time": 3735, "pitch": 57, "duration": 7, "velocity": 97}, {"time": 3735, "pitch": 60, "duration": 12, "velocity": 102}, {"time": 3739, "pitch": 48, "duration": 7, "velocity": 61}, {"time": 3741, "pitch": 53, "duration": 4, "velocity": 77}, {"time": 3744, "pitch": 57, "duration": 2, "velocity": 95}, {"time": 3747, "pitch": 41, "duration": 22, "velocity": 67}, {"time": 3751, "pitch": 48, "duration": 3, "velocity": 63}, {"time": 3753, "pitch": 53, "duration": 5, "velocity": 90}, {"time": 3757, "pitch": 48, "duration": 4, "velocity": 73}, {"time": 3759, "pitch": 57, "duration": 6, "velocity": 99}, {"time": 3759, "pitch": 60, "duration": 7, "velocity": 102}, {"time": 3762, "pitch": 48, "duration": 7, "velocity": 75}, {"time": 3765, "pitch": 53, "duration": 4, "velocity": 82}, {"time": 3768, "pitch": 57, "duration": 3, "velocity": 92}, {"time": 3768, "pitch": 60, "duration": 4, "velocity": 95}, {"time": 3771, "pitch": 41, "duration": 19, "velocity": 85}, {"time": 3775, "pitch": 48, "duration": 4, "velocity": 63}, {"time": 3777, "pitch": 53, "duration": 5, "velocity": 122}, {"time": 3781, "pitch": 48, "duration": 3, "velocity": 93}, {"time": 3783, "pitch": 55, "duration": 8, "velocity": 127}, {"time": 3786, "pitch": 48, "duration": 8, "velocity": 117}, {"time": 3789, "pitch": 57, "duration": 5, "velocity": 117}, {"time": 3795, "pitch": 43, "duration": 21, "velocity": 77}, {"time": 3799, "pitch": 50, "duration": 3, "velocity": 59}, {"time": 3801, "pitch": 55, "duration": 6, "velocity": 92}, {"time": 3805, "pitch": 50, "duration": 5, "velocity": 75}, {"time": 3807, "pitch": 58, "duration": 7, "velocity": 117}, {"time": 3807, "pitch": 62, "duration": 13, "velocity": 100}, {"time": 3811, "pitch": 50, "duration": 7, "velocity": 42}, {"time": 3813, "pitch": 55, "duration": 6, "velocity": 66}, {"time": 3816, "pitch": 58, "duration": 3, "velocity": 96}, {"time": 3819, "pitch": 43, "duration": 18, "velocity": 86}, {"time": 3823, "pitch": 50, "duration": 3, "velocity": 63}, {"time": 3825, "pitch": 55, "duration": 6, "velocity": 96}, {"time": 3829, "pitch": 50, "duration": 4, "velocity": 79}, {"time": 3831, "pitch": 58, "duration": 6, "velocity": 122}, {"time": 3831, "pitch": 62, "duration": 11, "velocity": 102}, {"time": 3834, "pitch": 50, "duration": 3, "velocity": 62}, {"time": 3837, "pitch": 55, "duration": 5, "velocity": 93}, {"time": 3840, "pitch": 58, "duration": 2, "velocity": 102}, {"time": 3843, "pitch": 41, "duration": 19, "velocity": 74}, {"time": 3846, "pitch": 48, "duration": 3, "velocity": 59}, {"time": 3849, "pitch": 53, "duration": 7, "velocity": 92}, {"time": 3853, "pitch": 48, "duration": 4, "velocity": 53}, {"time": 3855, "pitch": 57, "duration": 7, "velocity": 107}, {"time": 3855, "pitch": 60, "duration": 10, "velocity": 107}, {"time": 3858, "pitch": 48, "duration": 3, "velocity": 82}, {"time": 3861, "pitch": 53, "duration": 6, "velocity": 92}, {"time": 3865, "pitch": 57, "duration": 2, "velocity": 90}, {"time": 3867, "pitch": 34, "duration": 17, "velocity": 95}, {"time": 3871, "pitch": 46, "duration": 3, "velocity": 56}, {"time": 3873, "pitch": 53, "duration": 7, "velocity": 90}, {"time": 3876, "pitch": 46, "duration": 3, "velocity": 74}, {"time": 3879, "pitch": 58, "duration": 6, "velocity": 112}, {"time": 3879, "pitch": 62, "duration": 11, "velocity": 100}, {"time": 3882, "pitch": 46, "duration": 2, "velocity": 88}, {"time": 3885, "pitch": 53, "duration": 5, "velocity": 85}, {"time": 3888, "pitch": 58, "duration": 2, "velocity": 99}, {"time": 3891, "pitch": 36, "duration": 18, "velocity": 73}, {"time": 3895, "pitch": 43, "duration": 14, "velocity": 48}, {"time": 3897, "pitch": 55, "duration": 6, "velocity": 92}, {"time": 3900, "pitch": 48, "duration": 3, "velocity": 53}, {"time": 3903, "pitch": 60, "duration": 5, "velocity": 97}, {"time": 3903, "pitch": 63, "duration": 11, "velocity": 117}, {"time": 3906, "pitch": 48, "duration": 5, "velocity": 67}, {"time": 3909, "pitch": 55, "duration": 6, "velocity": 95}, {"time": 3912, "pitch": 60, "duration": 3, "velocity": 79}, {"time": 3915, "pitch": 41, "duration": 17, "velocity": 72}, {"time": 3919, "pitch": 48, "duration": 3, "velocity": 60}, {"time": 3921, "pitch": 53, "duration": 5, "velocity": 78}, {"time": 3924, "pitch": 48, "duration": 3, "velocity": 58}, {"time": 3927, "pitch": 57, "duration": 7, "velocity": 95}, {"time": 3927, "pitch": 60, "duration": 10, "velocity": 100}, {"time": 3930, "pitch": 48, "duration": 2, "velocity": 68}, {"time": 3933, "pitch": 53, "duration": 4, "velocity": 82}, {"time": 3936, "pitch": 57, "duration": 1, "velocity": 83}, {"time": 3939, "pitch": 46, "duration": 22, "velocity": 97}, {"time": 3943, "pitch": 50, "duration": 3, "velocity": 53}, {"time": 3945, "pitch": 53, "duration": 7, "velocity": 69}, {"time": 3948, "pitch": 50, "duration": 3, "velocity": 59}, {"time": 3951, "pitch": 58, "duration": 7, "velocity": 102}, {"time": 3951, "pitch": 62, "duration": 7, "velocity": 97}, {"time": 3954, "pitch": 50, "duration": 6, "velocity": 63}, {"time": 3957, "pitch": 53, "duration": 5, "velocity": 82}, {"time": 3960, "pitch": 58, "duration": 3, "velocity": 83}, {"time": 3960, "pitch": 62, "duration": 3, "velocity": 76}, {"time": 3963, "pitch": 46, "duration": 18, "velocity": 88}, {"time": 3967, "pitch": 50, "duration": 4, "velocity": 42}, {"time": 3969, "pitch": 53, "duration": 6, "velocity": 90}, {"time": 3972, "pitch": 50, "duration": 3, "velocity": 54}, {"time": 3975, "pitch": 58, "duration": 7, "velocity": 89}, {"time": 3975, "pitch": 62, "duration": 10, "velocity": 95}, {"time": 3978, "pitch": 50, "duration": 2, "velocity": 45}, {"time": 3981, "pitch": 53, "duration": 5, "velocity": 74}, {"time": 3984, "pitch": 58, "duration": 2, "velocity": 89}, {"time": 3987, "pitch": 43, "duration": 22, "velocity": 79}, {"time": 3991, "pitch": 50, "duration": 18, "velocity": 69}, {"time": 3993, "pitch": 55, "duration": 6, "velocity": 88}, {"time": 3999, "pitch": 58, "duration": 6, "velocity": 127}, {"time": 3999, "pitch": 62, "duration": 7, "velocity": 102}, {"time": 4005, "pitch": 55, "duration": 4, "velocity": 92}, {"time": 4008, "pitch": 58, "duration": 2, "velocity": 102}, {"time": 4008, "pitch": 62, "duration": 1, "velocity": 96}, {"time": 4011, "pitch": 43, "duration": 18, "velocity": 73}, {"time": 4015, "pitch": 50, "duration": 3, "velocity": 64}, {"time": 4017, "pitch": 55, "duration": 6, "velocity": 89}, {"time": 4021, "pitch": 50, "duration": 7, "velocity": 71}, {"time": 4023, "pitch": 58, "duration": 7, "velocity": 102}, {"time": 4023, "pitch": 62, "duration": 11, "velocity": 96}, {"time": 4029, "pitch": 55, "duration": 5, "velocity": 95}, {"time": 4032, "pitch": 58, "duration": 2, "velocity": 96}, {"time": 4035, "pitch": 41, "duration": 13, "velocity": 72}, {"time": 4039, "pitch": 48, "duration": 3, "velocity": 64}, {"time": 4041, "pitch": 53, "duration": 5, "velocity": 92}, {"time": 4045, "pitch": 48, "duration": 3, "velocity": 85}, {"time": 4047, "pitch": 57, "duration": 7, "velocity": 96}, {"time": 4047, "pitch": 60, "duration": 11, "velocity": 99}, {"time": 4053, "pitch": 53, "duration": 4, "velocity": 90}, {"time": 4057, "pitch": 57, "duration": 2, "velocity": 75}, {"time": 4059, "pitch": 46, "duration": 2, "velocity": 77}, {"time": 4063, "pitch": 46, "duration": 3, "velocity": 59}, {"time": 4065, "pitch": 53, "duration": 7, "velocity": 85}, {"time": 4068, "pitch": 46, "duration": 7, "velocity": 65}, {"time": 4071, "pitch": 58, "duration": 7, "velocity": 99}, {"time": 4071, "pitch": 62, "duration": 11, "velocity": 93}, {"time": 4077, "pitch": 53, "duration": 5, "velocity": 88}, {"time": 4080, "pitch": 58, "duration": 2, "velocity": 90}, {"time": 4083, "pitch": 36, "duration": 17, "velocity": 61}, {"time": 4087, "pitch": 48, "duration": 3, "velocity": 55}, {"time": 4089, "pitch": 55, "duration": 6, "velocity": 77}, {"time": 4093, "pitch": 48, "duration": 4, "velocity": 70}, {"time": 4095, "pitch": 60, "duration": 6, "velocity": 95}, {"time": 4095, "pitch": 63, "duration": 12, "velocity": 99}, {"time": 4099, "pitch": 48, "duration": 5, "velocity": 65}, {"time": 4101, "pitch": 55, "duration": 7, "velocity": 86}, {"time": 4104, "pitch": 60, "duration": 3, "velocity": 82}, {"time": 4107, "pitch": 41, "duration": 21, "velocity": 66}, {"time": 4111, "pitch": 48, "duration": 3, "velocity": 60}, {"time": 4113, "pitch": 53, "duration": 5, "velocity": 77}, {"time": 4117, "pitch": 48, "duration": 4, "velocity": 51}, {"time": 4119, "pitch": 57, "duration": 7, "velocity": 97}, {"time": 4119, "pitch": 60, "duration": 12, "velocity": 102}, {"time": 4123, "pitch": 48, "duration": 7, "velocity": 61}, {"time": 4125, "pitch": 53, "duration": 4, "velocity": 77}, {"time": 4128, "pitch": 57, "duration": 2, "velocity": 95}, {"time": 4131, "pitch": 41, "duration": 22, "velocity": 67}, {"time": 4135, "pitch": 48, "duration": 3, "velocity": 63}, {"time": 4137, "pitch": 53, "duration": 5, "velocity": 90}, {"time": 4141, "pitch": 48, "duration": 4, "velocity": 73}, {"time": 4143, "pitch": 57, "duration": 6, "velocity": 99}, {"time": 4143, "pitch": 60, "duration": 7, "velocity": 102}, {"time": 4146, "pitch": 48, "duration": 7, "velocity": 75}, {"time": 4149, "pitch": 53, "duration": 4, "velocity": 82}, {"time": 4152, "pitch": 57, "duration": 3, "velocity": 92}, {"time": 4152, "pitch": 60, "duration": 4, "velocity": 95}, {"time": 4155, "pitch": 41, "duration": 19, "velocity": 85}, {"time": 4159, "pitch": 48, "duration": 4, "velocity": 63}, {"time": 4161, "pitch": 53, "duration": 5, "velocity": 122}, {"time": 4165, "pitch": 48, "duration": 3, "velocity": 93}, {"time": 4167, "pitch": 55, "duration": 8, "velocity": 127}, {"time": 4170, "pitch": 48, "duration": 8, "velocity": 117}, {"time": 4173, "pitch": 57, "duration": 5, "velocity": 117}, {"time": 4179, "pitch": 43, "duration": 21, "velocity": 77}, {"time": 4183, "pitch": 50, "duration": 3, "velocity": 59}, {"time": 4185, "pitch": 55, "duration": 6, "velocity": 92}, {"time": 4189, "pitch": 50, "duration": 5, "velocity": 75}, {"time": 4191, "pitch": 58, "duration": 7, "velocity": 117}, {"time": 4191, "pitch": 62, "duration": 13, "velocity": 100}, {"time": 4195, "pitch": 50, "duration": 7, "velocity": 42}, {"time": 4197, "pitch": 55, "duration": 6, "velocity": 66}, {"time": 4200, "pitch": 58, "duration": 3, "velocity": 96}, {"time": 4203, "pitch": 43, "duration": 18, "velocity": 86}, {"time": 4207, "pitch": 50, "duration": 3, "velocity": 63}, {"time": 4209, "pitch": 55, "duration": 6, "velocity": 96}, {"time": 4213, "pitch": 50, "duration": 4, "velocity": 79}, {"time": 4215, "pitch": 58, "duration": 6, "velocity": 122}, {"time": 4215, "pitch": 62, "duration": 11, "velocity": 102}, {"time": 4218, "pitch": 50, "duration": 3, "velocity": 62}, {"time": 4221, "pitch": 55, "duration": 5, "velocity": 93}, {"time": 4224, "pitch": 58, "duration": 2, "velocity": 102}, {"time": 4227, "pitch": 41, "duration": 19, "velocity": 74}, {"time": 4230, "pitch": 48, "duration": 3, "velocity": 59}, {"time": 4233, "pitch": 53, "duration": 7, "velocity": 92}, {"time": 4237, "pitch": 48, "duration": 4, "velocity": 53}, {"time": 4239, "pitch": 57, "duration": 7, "velocity": 107}, {"time": 4239, "pitch": 60, "duration": 10, "velocity": 107}, {"time": 4242, "pitch": 48, "duration": 3, "velocity": 82}, {"time": 4245, "pitch": 53, "duration": 6, "velocity": 92}, {"time": 4249, "pitch": 57, "duration": 2, "velocity": 90}], "annotations": [{"time": 3, "annotation": {"number": 64, "value": 127}, "group": "control_change"}, {"time": 24, "annotation": {"number": 64, "value": 0}, "group": "control_change"}, {"time": 27, "annotation": {"number": 64, "value": 127}, "group": "control_change"}, {"time": 48, "annotation": {"number": 64, "value": 0}, "group": "control_change"}, {"time": 51, "annotation": {"number": 64, "value": 127}, "group": "control_change"}, {"time": 73, "annotation": {"number": 64, "value": 0}, "group": "control_change"}, {"time": 75, "annotation": {"number": 64, "value": 127}, "group": "control_change"}, {"time": 97, "annotation": {"number": 64, "value": 0}, "group": "control_change"}, {"time": 99, "annotation": {"number": 64, "value": 127}, "group": "control_change"}, {"time": 121, "annotation": {"number": 64, "value": 0}, "group": "control_change"}, {"time": 123, "annotation": {"number": 64, "value": 127}, "group": "control_change"}, {"time": 145, "annotation": {"number": 64, "value": 0}, "group": "control_change"}, {"time": 148, "annotation": {"number": 64, "value": 127}, "group": "control_change"}, {"time": 168, "annotation": {"number": 64, "value": 0}, "group": "control_change"}, {"time": 171, "annotation": {"number": 64, "value": 127}, "group": "control_change"}, {"time": 192, "annotation": {"number": 64, "value": 0}, "group": "control_change"}, {"time": 196, "annotation": {"number": 64, "value": 127}, "group": "control_change"}, {"time": 216, "annotation": {"number": 64, "value": 0}, "group": "control_change"}, {"time": 219, "annotation": {"number": 64, "value": 127}, "group": "control_change"}, {"time": 240, "annotation": {"number": 64, "value": 0}, "group": "control_change"}, {"time": 243, "annotation": {"number": 64, "value": 127}, "group": "control_change"}, {"time": 264, "annotation": {"number": 64, "value": 0}, "group": "control_change"}, {"time": 267, "annotation": {"number": 64, "value": 127}, "group": "control_change"}, {"time": 288, "annotation": {"number": 64, "value": 0}, "group": "control_change"}, {"time": 291, "annotation": {"number": 64, "value": 127}, "group": "control_change"}, {"time": 312, "annotation": {"number": 64, "value": 0}, "group": "control_change"}, {"time": 315, "annotation": {"number": 64, "value": 127}, "group": "control_change"}, {"time": 335, "annotation": {"number": 64, "value": 0}, "group": "control_change"}, {"time": 339, "annotation": {"number": 64, "value": 127}, "group": "control_change"}, {"time": 360, "annotation": {"number": 64, "value": 0}, "group": "control_change"}, {"time": 363, "annotation": {"number": 64, "value": 127}, "group": "control_change"}, {"time": 374, "annotation": {"number": 64, "value": 0}, "group": "control_change"}, {"time": 381, "annotation": {"number": 64, "value": 127}, "group": "control_change"}, {"time": 385, "annotation": {"number": 64, "value": 0}, "group": "control_change"}, {"time": 387, "annotation": {"number": 64, "value": 127}, "group": "control_change"}, {"time": 406, "annotation": {"number": 64, "value": 0}, "group": "control_change"}, {"time": 411, "annotation": {"number": 64, "value": 127}, "group": "control_change"}, {"time": 431, "annotation": {"number": 64, "value": 0}, "group": "control_change"}, {"time": 435, "annotation": {"number": 64, "value": 127}, "group": "control_change"}, {"time": 453, "annotation": {"number": 64, "value": 0}, "group": "control_change"}, {"time": 459, "annotation": {"number": 64, "value": 127}, "group": "control_change"}, {"time": 480, "annotation": {"number": 64, "value": 0}, "group": "control_change"}, {"time": 483, "annotation": {"number": 64, "value": 127}, "group": "control_change"}, {"time": 498, "annotation": {"number": 64, "value": 0}, "group": "control_change"}, {"time": 507, "annotation": {"number": 64, "value": 127}, "group": "control_change"}, {"time": 519, "annotation": {"number": 64, "value": 0}, "group": "control_change"}, {"time": 531, "annotation": {"number": 64, "value": 127}, "group": "control_change"}, {"time": 552, "annotation": {"number": 64, "value": 0}, "group": "control_change"}, {"time": 555, "annotation": {"number": 64, "value": 127}, "group": "control_change"}, {"time": 565, "annotation": {"number": 64, "value": 0}, "group": "control_change"}, {"time": 568, "annotation": {"number": 64, "value": 127}, "group": "control_change"}, {"time": 575, "annotation": {"number": 64, "value": 0}, "group": "control_change"}, {"time": 579, "annotation": {"number": 64, "value": 127}, "group": "control_change"}, {"time": 598, "annotation": {"number": 64, "value": 0}, "group": "control_change"}, {"time": 603, "annotation": {"number": 64, "value": 127}, "group": "control_change"}, {"time": 619, "annotation": {"number": 64, "value": 0}, "group": "control_change"}, {"time": 627, "annotation": {"number": 64, "value": 127}, "group": "control_change"}, {"time": 637, "annotation": {"number": 64, "value": 0}, "group": "control_change"}, {"time": 651, "annotation": {"number": 64, "value": 127}, "group": "control_change"}, {"time": 660, "annotation": {"number": 64, "value": 0}, "group": "control_change"}, {"time": 674, "annotation": {"number": 64, "value": 127}, "group": "control_change"}, {"time": 686, "annotation": {"number": 64, "value": 0}, "group": "control_change"}, {"time": 699, "annotation": {"number": 64, "value": 127}, "group": "control_change"}, {"time": 709, "annotation": {"number": 64, "value": 0}, "group": "control_change"}, {"time": 723, "annotation": {"number": 64, "value": 127}, "group": "control_change"}, {"time": 732, "annotation": {"number": 64, "value": 0}, "group": "control_change"}, {"time": 748, "annotation": {"number": 64, "value": 127}, "group": "control_change"}, {"time": 750, "annotation": {"number": 64, "value": 0}, "group": "control_change"}, {"time": 762, "annotation": {"number": 64, "value": 127}, "group": "control_change"}, {"time": 767, "annotation": {"number": 64, "value": 0}, "group": "control_change"}, {"time": 771, "annotation": {"number": 64, "value": 127}, "group": "control_change"}, {"time": 779, "annotation": {"number": 64, "value": 0}, "group": "control_change"}, {"time": 795, "annotation": {"number": 64, "value": 127}, "group": "control_change"}, {"time": 813, "annotation": {"number": 64, "value": 0}, "group": "control_change"}, {"time": 819, "annotation": {"number": 64, "value": 127}, "group": "control_change"}, {"time": 828, "annotation": {"number": 64, "value": 0}, "group": "control_change"}, {"time": 843, "annotation": {"number": 64, "value": 127}, "group": "control_change"}, {"time": 856, "annotation": {"number": 64, "value": 0}, "group": "control_change"}, {"time": 867, "annotation": {"number": 64, "value": 127}, "group": "control_change"}, {"time": 877, "annotation": {"number": 64, "value": 0}, "group": "control_change"}, {"time": 891, "annotation": {"number": 64, "value": 127}, "group": "control_change"}, {"time": 896, "annotation": {"number": 64, "value": 0}, "group": "control_change"}, {"time": 998, "annotation": {"number": 64, "value": 127}, "group": "control_change"}, {"time": 1007, "annotation": {"number": 64, "value": 0}, "group": "control_change"}, {"time": 1011, "annotation": {"number": 64, "value": 127}, "group": "control_change"}, {"time": 1020, "annotation": {"number": 64, "value": 0}, "group": "control_change"}, {"time": 1035, "annotation": {"number": 64, "value": 127}, "group": "control_change"}, {"time": 1037, "annotation": {"number": 64, "value": 0}, "group": "control_change"}, {"time": 1059, "annotation": {"number": 64, "value": 127}, "group": "control_change"}, {"time": 1060, "annotation": {"number": 64, "value": 0}, "group": "control_change"}, {"time": 1083, "annotation": {"number": 64, "value": 127}, "group": "control_change"}, {"time": 1085, "annotation": {"number": 64, "value": 0}, "group": "control_change"}, {"time": 1107, "annotation": {"number": 64, "value": 127}, "group": "control_change"}, {"time": 1109, "annotation": {"number": 64, "value": 0}, "group": "control_change"}, {"time": 1131, "annotation": {"number": 64, "value": 127}, "group": "control_change"}, {"time": 1141, "annotation": {"number": 64, "value": 0}, "group": "control_change"}, {"time": 1155, "annotation": {"number": 64, "value": 127}, "group": "control_change"}, {"time": 1158, "annotation": {"number": 64, "value": 0}, "group": "control_change"}, {"time": 1179, "annotation": {"number": 64, "value": 127}, "group": "control_change"}, {"time": 1182, "annotation": {"number": 64, "value": 0}, "group": "control_change"}, {"time": 1203, "annotation": {"number": 64, "value": 127}, "group": "control_change"}, {"time": 1220, "annotation": {"number": 64, "value": 0}, "group": "control_change"}, {"time": 1227, "annotation": {"number": 64, "value": 127}, "group": "control_change"}, {"time": 1231, "annotation": {"number": 64, "value": 0}, "group": "control_change"}, {"time": 1251, "annotation": {"number": 64, "value": 127}, "group": "control_change"}, {"time": 1255, "annotation": {"number": 64, "value": 0}, "group": "control_change"}, {"time": 1275, "annotation": {"number": 64, "value": 127}, "group": "control_change"}, {"time": 1277, "annotation": {"number": 64, "value": 0}, "group": "control_change"}, {"time": 1299, "annotation": {"number": 64, "value": 127}, "group": "control_change"}, {"time": 1318, "annotation": {"number": 64, "value": 0}, "group": "control_change"}, {"time": 1323, "annotation": {"number": 64, "value": 127}, "group": "control_change"}, {"time": 1343, "annotation": {"number": 64, "value": 0}, "group": "control_change"}, {"time": 1347, "annotation": {"number": 64, "value": 127}, "group": "control_change"}, {"time": 1357, "annotation": {"number": 64, "value": 0}, "group": "control_change"}, {"time": 1371, "annotation": {"number": 64, "value": 127}, "group": "control_change"}, {"time": 1384, "annotation": {"number": 64, "value": 0}, "group": "control_change"}, {"time": 1395, "annotation": {"number": 64, "value": 127}, "group": "control_change"}, {"time": 1407, "annotation": {"number": 64, "value": 0}, "group": "control_change"}, {"time": 1419, "annotation": {"number": 64, "value": 127}, "group": "control_change"}, {"time": 1428, "annotation": {"number": 64, "value": 0}, "group": "control_change"}, {"time": 1443, "annotation": {"number": 64, "value": 127}, "group": "control_change"}, {"time": 1462, "annotation": {"number": 64, "value": 0}, "group": "control_change"}, {"time": 1467, "annotation": {"number": 64, "value": 127}, "group": "control_change"}, {"time": 1482, "annotation": {"number": 64, "value": 0}, "group": "control_change"}, {"time": 1491, "annotation": {"number": 64, "value": 127}, "group": "control_change"}, {"time": 1511, "annotation": {"number": 64, "value": 0}, "group": "control_change"}, {"time": 1515, "annotation": {"number": 64, "value": 127}, "group": "control_change"}, {"time": 1525, "annotation": {"number": 64, "value": 0}, "group": "control_change"}, {"time": 1528, "annotation": {"number": 64, "value": 127}, "group": "control_change"}, {"time": 1536, "annotation": {"number": 64, "value": 0}, "group": "control_change"}, {"time": 1539, "annotation": {"number": 64, "value": 127}, "group": "control_change"}, {"time": 1549, "annotation": {"number": 64, "value": 0}, "group": "control_change"}, {"time": 1552, "annotation": {"number": 64, "value": 127}, "group": "control_change"}, {"time": 1559, "annotation": {"number": 64, "value": 0}, "group": "control_change"}, {"time": 1562, "annotation": {"number": 64, "value": 127}, "group": "control_change"}, {"time": 1563, "annotation": {"number": 64, "value": 127}, "group": "control_change"}, {"time": 1563, "annotation": {"number": 64, "value": 0}, "group": "control_change"}, {"time": 1567, "annotation": {"number": 64, "value": 0}, "group": "control_change"}, {"time": 1569, "annotation": {"number": 64, "value": 127}, "group": "control_change"}, {"time": 1582, "annotation": {"number": 64, "value": 0}, "group": "control_change"}, {"time": 1586, "annotation": {"number": 64, "value": 127}, "group": "control_change"}, {"time": 1607, "annotation": {"number": 64, "value": 0}, "group": "control_change"}, {"time": 1610, "annotation": {"number": 64, "value": 127}, "group": "control_change"}, {"time": 1619, "annotation": {"number": 64, "value": 0}, "group": "control_change"}, {"time": 1622, "annotation": {"number": 64, "value": 127}, "group": "control_change"}, {"time": 1630, "annotation": {"number": 64, "value": 0}, "group": "control_change"}, {"time": 1634, "annotation": {"number": 64, "value": 127}, "group": "control_change"}, {"time": 1651, "annotation": {"number": 64, "value": 0}, "group": "control_change"}, {"time": 1658, "annotation": {"number": 64, "value": 127}, "group": "control_change"}, {"time": 1659, "annotation": {"number": 64, "value": 0}, "group": "control_change"}, {"time": 1684, "annotation": {"number": 64, "value": 127}, "group": "control_change"}, {"time": 1704, "annotation": {"number": 64, "value": 0}, "group": "control_change"}, {"time": 1707, "annotation": {"number": 64, "value": 127}, "group": "control_change"}, {"time": 1728, "annotation": {"number": 64, "value": 0}, "group": "control_change"}, {"time": 1732, "annotation": {"number": 64, "value": 127}, "group": "control_change"}, {"time": 1752, "annotation": {"number": 64, "value": 0}, "group": "control_change"}, {"time": 1755, "annotation": {"number": 64, "value": 127}, "group": "control_change"}, {"time": 1776, "annotation": {"number": 64, "value": 0}, "group": "control_change"}, {"time": 1779, "annotation": {"number": 64, "value": 127}, "group": "control_change"}, {"time": 1800, "annotation": {"number": 64, "value": 0}, "group": "control_change"}, {"time": 1803, "annotation": {"number": 64, "value": 127}, "group": "control_change"}, {"time": 1824, "annotation": {"number": 64, "value": 0}, "group": "control_change"}, {"time": 1827, "annotation": {"number": 64, "value": 127}, "group": "control_change"}, {"time": 1848, "annotation": {"number": 64, "value": 0}, "group": "control_change"}, {"time": 1851, "annotation": {"number": 64, "value": 127}, "group": "control_change"}, {"time": 1871, "annotation": {"number": 64, "value": 0}, "group": "control_change"}, {"time": 1875, "annotation": {"number": 64, "value": 127}, "group": "control_change"}, {"time": 1896, "annotation": {"number": 64, "value": 0}, "group": "control_change"}, {"time": 1899, "annotation": {"number": 64, "value": 127}, "group": "control_change"}, {"time": 1910, "annotation": {"number": 64, "value": 0}, "group": "control_change"}, {"time": 1917, "annotation": {"number": 64, "value": 127}, "group": "control_change"}, {"time": 1921, "annotation": {"number": 64, "value": 0}, "group": "control_change"}, {"time": 1923, "annotation": {"number": 64, "value": 127}, "group": "control_change"}, {"time": 1942, "annotation": {"number": 64, "value": 0}, "group": "control_change"}, {"time": 1947, "annotation": {"number": 64, "value": 127}, "group": "control_change"}, {"time": 1967, "annotation": {"number": 64, "value": 0}, "group": "control_change"}, {"time": 1971, "annotation": {"number": 64, "value": 127}, "group": "control_change"}, {"time": 1989, "annotation": {"number": 64, "value": 0}, "group": "control_change"}, {"time": 1995, "annotation": {"number": 64, "value": 127}, "group": "control_change"}, {"time": 2016, "annotation": {"number": 64, "value": 0}, "group": "control_change"}, {"time": 2019, "annotation": {"number": 64, "value": 127}, "group": "control_change"}, {"time": 2034, "annotation": {"number": 64, "value": 0}, "group": "control_change"}, {"time": 2043, "annotation": {"number": 64, "value": 127}, "group": "control_change"}, {"time": 2055, "annotation": {"number": 64, "value": 0}, "group": "control_change"}, {"time": 2067, "annotation": {"number": 64, "value": 127}, "group": "control_change"}, {"time": 2088, "annotation": {"number": 64, "value": 0}, "group": "control_change"}, {"time": 2091, "annotation": {"number": 64, "value": 127}, "group": "control_change"}, {"time": 2101, "annotation": {"number": 64, "value": 0}, "group": "control_change"}, {"time": 2104, "annotation": {"number": 64, "value": 127}, "group": "control_change"}, {"time": 2111, "annotation": {"number": 64, "value": 0}, "group": "control_change"}, {"time": 2115, "annotation": {"number": 64, "value": 127}, "group": "control_change"}, {"time": 2134, "annotation": {"number": 64, "value": 0}, "group": "control_change"}, {"time": 2139, "annotation": {"number": 64, "value": 127}, "group": "control_change"}, {"time": 2155, "annotation": {"number": 64, "value": 0}, "group": "control_change"}, {"time": 2163, "annotation": {"number": 64, "value": 127}, "group": "control_change"}, {"time": 2173, "annotation": {"number": 64, "value": 0}, "group": "control_change"}, {"time": 2187, "annotation": {"number": 64, "value": 127}, "group": "control_change"}, {"time": 2196, "annotation": {"number": 64, "value": 0}, "group": "control_change"}, {"time": 2210, "annotation": {"number": 64, "value": 127}, "group": "control_change"}, {"time": 2222, "annotation": {"number": 64, "value": 0}, "group": "control_change"}, {"time": 2235, "annotation": {"number": 64, "value": 127}, "group": "control_change"}, {"time": 2245, "annotation": {"number": 64, "value": 0}, "group": "control_change"}, {"time": 2259, "annotation": {"number": 64, "value": 127}, "group": "control_change"}, {"time": 2268, "annotation": {"number": 64, "value": 0}, "group": "control_change"}, {"time": 2284, "annotation": {"number": 64, "value": 127}, "group": "control_change"}, {"time": 2286, "annotation": {"number": 64, "value": 0}, "group": "control_change"}, {"time": 2298, "annotation": {"number": 64, "value": 127}, "group": "control_change"}, {"time": 2303, "annotation": {"number": 64, "value": 0}, "group": "control_change"}, {"time": 2307, "annotation": {"number": 64, "value": 127}, "group": "control_change"}, {"time": 2315, "annotation": {"number": 64, "value": 0}, "group": "control_change"}, {"time": 2331, "annotation": {"number": 64, "value": 127}, "group": "control_change"}, {"time": 2349, "annotation": {"number": 64, "value": 0}, "group": "control_change"}, {"time": 2355, "annotation": {"number": 64, "value": 127}, "group": "control_change"}, {"time": 2364, "annotation": {"number": 64, "value": 0}, "group": "control_change"}, {"time": 2379, "annotation": {"number": 64, "value": 127}, "group": "control_change"}, {"time": 2392, "annotation": {"number": 64, "value": 0}, "group": "control_change"}, {"time": 2403, "annotation": {"number": 64, "value": 127}, "group": "control_change"}, {"time": 2413, "annotation": {"number": 64, "value": 0}, "group": "control_change"}, {"time": 2427, "annotation": {"number": 64, "value": 127}, "group": "control_change"}, {"time": 2432, "annotation": {"number": 64, "value": 0}, "group": "control_change"}, {"time": 2534, "annotation": {"number": 64, "value": 127}, "group": "control_change"}, {"time": 2543, "annotation": {"number": 64, "value": 0}, "group": "control_change"}, {"time": 2547, "annotation": {"number": 64, "value": 127}, "group": "control_change"}, {"time": 2556, "annotation": {"number": 64, "value": 0}, "group": "control_change"}, {"time": 2571, "annotation": {"number": 64, "value": 127}, "group": "control_change"}, {"time": 2573, "annotation": {"number": 64, "value": 0}, "group": "control_change"}, {"time": 2595, "annotation": {"number": 64, "value": 127}, "group": "control_change"}, {"time": 2596, "annotation": {"number": 64, "value": 0}, "group": "control_change"}, {"time": 2619, "annotation": {"number": 64, "value": 127}, "group": "control_change"}, {"time": 2621, "annotation": {"number": 64, "value": 0}, "group": "control_change"}, {"time": 2643, "annotation": {"number": 64, "value": 127}, "group": "control_change"}, {"time": 2645, "annotation": {"number": 64, "value": 0}, "group": "control_change"}, {"time": 2667, "annotation": {"number": 64, "value": 127}, "group": "control_change"}, {"time": 2677, "annotation": {"number": 64, "value": 0}, "group": "control_change"}, {"time": 2691, "annotation": {"number": 64, "value": 127}, "group": "control_change"}, {"time": 2694, "annotation": {"number": 64, "value": 0}, "group": "control_change"}, {"time": 2715, "annotation": {"number": 64, "value": 127}, "group": "control_change"}, {"time": 2718, "annotation": {"number": 64, "value": 0}, "group": "control_change"}, {"time": 2739, "annotation": {"number": 64, "value": 127}, "group": "control_change"}, {"time": 2756, "annotation": {"number": 64, "value": 0}, "group": "control_change"}, {"time": 2763, "annotation": {"number": 64, "value": 127}, "group": "control_change"}, {"time": 2767, "annotation": {"number": 64, "value": 0}, "group": "control_change"}, {"time": 2787, "annotation": {"number": 64, "value": 127}, "group": "control_change"}, {"time": 2791, "annotation": {"number": 64, "value": 0}, "group": "control_change"}, {"time": 2811, "annotation": {"number": 64, "value": 127}, "group": "control_change"}, {"time": 2813, "annotation": {"number": 64, "value": 0}, "group": "control_change"}, {"time": 2918, "annotation": {"number": 64, "value": 127}, "group": "control_change"}, {"time": 2927, "annotation": {"number": 64, "value": 0}, "group": "control_change"}, {"time": 2931, "annotation": {"number": 64, "value": 127}, "group": "control_change"}, {"time": 2940, "annotation": {"number": 64, "value": 0}, "group": "control_change"}, {"time": 2955, "annotation": {"number": 64, "value": 127}, "group": "control_change"}, {"time": 2957, "annotation": {"number": 64, "value": 0}, "group": "control_change"}, {"time": 2979, "annotation": {"number": 64, "value": 127}, "group": "control_change"}, {"time": 2980, "annotation": {"number": 64, "value": 0}, "group": "control_change"}, {"time": 3003, "annotation": {"number": 64, "value": 127}, "group": "control_change"}, {"time": 3005, "annotation": {"number": 64, "value": 0}, "group": "control_change"}, {"time": 3027, "annotation": {"number": 64, "value": 127}, "group": "control_change"}, {"time": 3029, "annotation": {"number": 64, "value": 0}, "group": "control_change"}, {"time": 3051, "annotation": {"number": 64, "value": 127}, "group": "control_change"}, {"time": 3061, "annotation": {"number": 64, "value": 0}, "group": "control_change"}, {"time": 3075, "annotation": {"number": 64, "value": 127}, "group": "control_change"}, {"time": 3078, "annotation": {"number": 64, "value": 0}, "group": "control_change"}, {"time": 3099, "annotation": {"number": 64, "value": 127}, "group": "control_change"}, {"time": 3102, "annotation": {"number": 64, "value": 0}, "group": "control_change"}, {"time": 3123, "annotation": {"number": 64, "value": 127}, "group": "control_change"}, {"time": 3140, "annotation": {"number": 64, "value": 0}, "group": "control_change"}, {"time": 3147, "annotation": {"number": 64, "value": 127}, "group": "control_change"}, {"time": 3151, "annotation": {"number": 64, "value": 0}, "group": "control_change"}, {"time": 3171, "annotation": {"number": 64, "value": 127}, "group": "control_change"}, {"time": 3175, "annotation": {"number": 64, "value": 0}, "group": "control_change"}, {"time": 3195, "annotation": {"number": 64, "value": 127}, "group": "control_change"}, {"time": 3197, "annotation": {"number": 64, "value": 0}, "group": "control_change"}, {"time": 3302, "annotation": {"number": 64, "value": 127}, "group": "control_change"}, {"time": 3311, "annotation": {"number": 64, "value": 0}, "group": "control_change"}, {"time": 3315, "annotation": {"number": 64, "value": 127}, "group": "control_change"}, {"time": 3324, "annotation": {"number": 64, "value": 0}, "group": "control_change"}, {"time": 3339, "annotation": {"number": 64, "value": 127}, "group": "control_change"}, {"time": 3341, "annotation": {"number": 64, "value": 0}, "group": "control_change"}, {"time": 3363, "annotation": {"number": 64, "value": 127}, "group": "control_change"}, {"time": 3364, "annotation": {"number": 64, "value": 0}, "group": "control_change"}, {"time": 3387, "annotation": {"number": 64, "value": 127}, "group": "control_change"}, {"time": 3389, "annotation": {"number": 64, "value": 0}, "group": "control_change"}, {"time": 3411, "annotation": {"number": 64, "value": 127}, "group": "control_change"}, {"time": 3413, "annotation": {"number": 64, "value": 0}, "group": "control_change"}, {"time": 3435, "annotation": {"number": 64, "value": 127}, "group": "control_change"}, {"time": 3445, "annotation": {"number": 64, "value": 0}, "group": "control_change"}, {"time": 3459, "annotation": {"number": 64, "value": 127}, "group": "control_change"}, {"time": 3462, "annotation": {"number": 64, "value": 0}, "group": "control_change"}, {"time": 3483, "annotation": {"number": 64, "value": 127}, "group": "control_change"}, {"time": 3486, "annotation": {"number": 64, "value": 0}, "group": "control_change"}, {"time": 3507, "annotation": {"number": 64, "value": 127}, "group": "control_change"}, {"time": 3524, "annotation": {"number": 64, "value": 0}, "group": "control_change"}, {"time": 3532, "annotation": {"number": 64, "value": 127}, "group": "control_change"}, {"time": 3535, "annotation": {"number": 64, "value": 0}, "group": "control_change"}, {"time": 3538, "annotation": {"number": 64, "value": 127}, "group": "control_change"}, {"time": 3539, "annotation": {"number": 64, "value": 0}, "group": "control_change"}, {"time": 3554, "annotation": {"number": 64, "value": 127}, "group": "control_change"}, {"time": 3555, "annotation": {"number": 64, "value": 0}, "group": "control_change"}, {"time": 3686, "annotation": {"number": 64, "value": 127}, "group": "control_change"}, {"time": 3695, "annotation": {"number": 64, "value": 0}, "group": "control_change"}, {"time": 3699, "annotation": {"number": 64, "value": 127}, "group": "control_change"}, {"time": 3708, "annotation": {"number": 64, "value": 0}, "group": "control_change"}, {"time": 3723, "annotation": {"number": 64, "value": 127}, "group": "control_change"}, {"time": 3725, "annotation": {"number": 64, "value": 0}, "group": "control_change"}, {"time": 3747, "annotation": {"number": 64, "value": 127}, "group": "control_change"}, {"time": 3748, "annotation": {"number": 64, "value": 0}, "group": "control_change"}, {"time": 3771, "annotation": {"number": 64, "value": 127}, "group": "control_change"}, {"time": 3773, "annotation": {"number": 64, "value": 0}, "group": "control_change"}, {"time": 3795, "annotation": {"number": 64, "value": 127}, "group": "control_change"}, {"time": 3797, "annotation": {"number": 64, "value": 0}, "group": "control_change"}, {"time": 3819, "annotation": {"number": 64, "value": 127}, "group": "control_change"}, {"time": 3829, "annotation": {"number": 64, "value": 0}, "group": "control_change"}, {"time": 3843, "annotation": {"number": 64, "value": 127}, "group": "control_change"}, {"time": 3846, "annotation": {"number": 64, "value": 0}, "group": "control_change"}, {"time": 3867, "annotation": {"number": 64, "value": 127}, "group": "control_change"}, {"time": 3870, "annotation": {"number": 64, "value": 0}, "group": "control_change"}, {"time": 3891, "annotation": {"number": 64, "value": 127}, "group": "control_change"}, {"time": 3908, "annotation": {"number": 64, "value": 0}, "group": "control_change"}, {"time": 3915, "annotation": {"number": 64, "value": 127}, "group": "control_change"}, {"time": 3919, "annotation": {"number": 64, "value": 0}, "group": "control_change"}, {"time": 3939, "annotation": {"number": 64, "value": 127}, "group": "control_change"}, {"time": 3943, "annotation": {"number": 64, "value": 0}, "group": "control_change"}, {"time": 3963, "annotation": {"number": 64, "value": 127}, "group": "control_change"}, {"time": 3965, "annotation": {"number": 64, "value": 0}, "group": "control_change"}, {"time": 4070, "annotation": {"number": 64, "value": 127}, "group": "control_change"}, {"time": 4079, "annotation": {"number": 64, "value": 0}, "group": "control_change"}, {"time": 4083, "annotation": {"number": 64, "value": 127}, "group": "control_change"}, {"time": 4092, "annotation": {"number": 64, "value": 0}, "group": "control_change"}, {"time": 4107, "annotation": {"number": 64, "value": 127}, "group": "control_change"}, {"time": 4109, "annotation": {"number": 64, "value": 0}, "group": "control_change"}, {"time": 4131, "annotation": {"number": 64, "value": 127}, "group": "control_change"}, {"time": 4132, "annotation": {"number": 64, "value": 0}, "group": "control_change"}, {"time": 4155, "annotation": {"number": 64, "value": 127}, "group": "control_change"}, {"time": 4157, "annotation": {"number": 64, "value": 0}, "group": "control_change"}, {"time": 4179, "annotation": {"number": 64, "value": 127}, "group": "control_change"}, {"time": 4181, "annotation": {"number": 64, "value": 0}, "group": "control_change"}, {"time": 4203, "annotation": {"number": 64, "value": 127}, "group": "control_change"}, {"time": 4213, "annotation": {"number": 64, "value": 0}, "group": "control_change"}, {"time": 4227, "annotation": {"number": 64, "value": 127}, "group": "control_change"}, {"time": 4230, "annotation": {"number": 64, "value": 0}, "group": "control_change"}]}]}