{"metadata": {"schema_version": "0.2", "title": "None", "source_filename": "358.mid", "source_format": "midi"}, "resolution": 12, "tempos": [{"time": 0, "qpm": 55.99997760000896}], "time_signatures": [{"time": 0, "numerator": 1, "denominator": 4}], "tracks": [{"program": 4, "is_drum": false, "name": "MELODY", "notes": [{"time": 212, "pitch": 69, "duration": 3, "velocity": 117}, {"time": 215, "pitch": 67, "duration": 3, "velocity": 89}, {"time": 218, "pitch": 69, "duration": 4, "velocity": 117}, {"time": 221, "pitch": 72, "duration": 2, "velocity": 107}, {"time": 224, "pitch": 72, "duration": 2, "velocity": 97}, {"time": 227, "pitch": 72, "duration": 5, "velocity": 102}, {"time": 236, "pitch": 67, "duration": 2, "velocity": 112}, {"time": 239, "pitch": 65, "duration": 2, "velocity": 75}, {"time": 242, "pitch": 67, "duration": 3, "velocity": 95}, {"time": 245, "pitch": 72, "duration": 2, "velocity": 99}, {"time": 248, "pitch": 72, "duration": 1, "velocity": 100}, {"time": 251, "pitch": 72, "duration": 8, "velocity": 102}, {"time": 260, "pitch": 69, "duration": 1, "velocity": 112}, {"time": 263, "pitch": 67, "duration": 3, "velocity": 81}, {"time": 266, "pitch": 69, "duration": 3, "velocity": 74}, {"time": 269, "pitch": 77, "duration": 1, "velocity": 96}, {"time": 272, "pitch": 77, "duration": 1, "velocity": 96}, {"time": 275, "pitch": 77, "duration": 4, "velocity": 117}, {"time": 284, "pitch": 76, "duration": 3, "velocity": 127}, {"time": 287, "pitch": 77, "duration": 2, "velocity": 96}, {"time": 290, "pitch": 76, "duration": 3, "velocity": 112}, {"time": 293, "pitch": 72, "duration": 3, "velocity": 100}, {"time": 296, "pitch": 69, "duration": 3, "velocity": 92}, {"time": 299, "pitch": 72, "duration": 10, "velocity": 112}, {"time": 308, "pitch": 74, "duration": 2, "velocity": 107}, {"time": 311, "pitch": 76, "duration": 2, "velocity": 117}, {"time": 314, "pitch": 77, "duration": 4, "velocity": 122}, {"time": 320, "pitch": 70, "duration": 1, "velocity": 107}, {"time": 323, "pitch": 70, "duration": 8, "velocity": 112}, {"time": 332, "pitch": 72, "duration": 1, "velocity": 107}, {"time": 335, "pitch": 74, "duration": 1, "velocity": 102}, {"time": 338, "pitch": 76, "duration": 5, "velocity": 112}, {"time": 344, "pitch": 69, "duration": 1, "velocity": 93}, {"time": 347, "pitch": 69, "duration": 7, "velocity": 93}, {"time": 356, "pitch": 70, "duration": 2, "velocity": 127}, {"time": 359, "pitch": 72, "duration": 1, "velocity": 107}, {"time": 362, "pitch": 74, "duration": 5, "velocity": 127}, {"time": 368, "pitch": 77, "duration": 1, "velocity": 122}, {"time": 371, "pitch": 77, "duration": 1, "velocity": 107}, {"time": 374, "pitch": 77, "duration": 4, "velocity": 127}, {"time": 380, "pitch": 65, "duration": 4, "velocity": 97}, {"time": 383, "pitch": 67, "duration": 12, "velocity": 102}, {"time": 404, "pitch": 69, "duration": 1, "velocity": 127}, {"time": 407, "pitch": 67, "duration": 1, "velocity": 93}, {"time": 410, "pitch": 69, "duration": 3, "velocity": 127}, {"time": 413, "pitch": 72, "duration": 1, "velocity": 117}, {"time": 416, "pitch": 72, "duration": 1, "velocity": 112}, {"time": 419, "pitch": 72, "duration": 2, "velocity": 127}, {"time": 428, "pitch": 67, "duration": 1, "velocity": 117}, {"time": 431, "pitch": 65, "duration": 2, "velocity": 97}, {"time": 434, "pitch": 67, "duration": 3, "velocity": 117}, {"time": 437, "pitch": 72, "duration": 2, "velocity": 95}, {"time": 440, "pitch": 72, "duration": 2, "velocity": 112}, {"time": 443, "pitch": 72, "duration": 5, "velocity": 112}, {"time": 452, "pitch": 69, "duration": 1, "velocity": 127}, {"time": 455, "pitch": 67, "duration": 3, "velocity": 102}, {"time": 458, "pitch": 69, "duration": 3, "velocity": 122}, {"time": 461, "pitch": 77, "duration": 2, "velocity": 92}, {"time": 464, "pitch": 77, "duration": 2, "velocity": 90}, {"time": 467, "pitch": 77, "duration": 7, "velocity": 112}, {"time": 476, "pitch": 76, "duration": 2, "velocity": 127}, {"time": 479, "pitch": 77, "duration": 2, "velocity": 100}, {"time": 482, "pitch": 76, "duration": 3, "velocity": 112}, {"time": 485, "pitch": 72, "duration": 3, "velocity": 99}, {"time": 488, "pitch": 69, "duration": 3, "velocity": 92}, {"time": 491, "pitch": 72, "duration": 9, "velocity": 127}, {"time": 500, "pitch": 74, "duration": 2, "velocity": 100}, {"time": 503, "pitch": 76, "duration": 3, "velocity": 122}, {"time": 506, "pitch": 77, "duration": 4, "velocity": 117}, {"time": 512, "pitch": 70, "duration": 2, "velocity": 100}, {"time": 515, "pitch": 70, "duration": 8, "velocity": 127}, {"time": 524, "pitch": 72, "duration": 2, "velocity": 100}, {"time": 527, "pitch": 74, "duration": 1, "velocity": 107}, {"time": 530, "pitch": 76, "duration": 6, "velocity": 112}, {"time": 536, "pitch": 69, "duration": 1, "velocity": 89}, {"time": 539, "pitch": 69, "duration": 6, "velocity": 102}, {"time": 548, "pitch": 70, "duration": 2, "velocity": 127}, {"time": 551, "pitch": 72, "duration": 2, "velocity": 102}, {"time": 554, "pitch": 74, "duration": 6, "velocity": 122}, {"time": 560, "pitch": 77, "duration": 1, "velocity": 127}, {"time": 563, "pitch": 77, "duration": 1, "velocity": 117}, {"time": 566, "pitch": 77, "duration": 5, "velocity": 112}, {"time": 572, "pitch": 79, "duration": 1, "velocity": 107}, {"time": 575, "pitch": 79, "duration": 23, "velocity": 122}, {"time": 611, "pitch": 72, "duration": 1, "velocity": 102}, {"time": 614, "pitch": 72, "duration": 4, "velocity": 117}, {"time": 617, "pitch": 79, "duration": 2, "velocity": 112}, {"time": 620, "pitch": 84, "duration": 3, "velocity": 122}, {"time": 623, "pitch": 79, "duration": 2, "velocity": 127}, {"time": 626, "pitch": 81, "duration": 4, "velocity": 127}, {"time": 632, "pitch": 81, "duration": 1, "velocity": 127}, {"time": 635, "pitch": 81, "duration": 1, "velocity": 112}, {"time": 638, "pitch": 81, "duration": 3, "velocity": 127}, {"time": 641, "pitch": 82, "duration": 2, "velocity": 127}, {"time": 644, "pitch": 84, "duration": 2, "velocity": 127}, {"time": 647, "pitch": 79, "duration": 13, "velocity": 127}, {"time": 659, "pitch": 79, "duration": 1, "velocity": 107}, {"time": 662, "pitch": 79, "duration": 2, "velocity": 112}, {"time": 665, "pitch": 81, "duration": 2, "velocity": 127}, {"time": 668, "pitch": 82, "duration": 2, "velocity": 127}, {"time": 671, "pitch": 81, "duration": 2, "velocity": 122}, {"time": 674, "pitch": 77, "duration": 4, "velocity": 117}, {"time": 680, "pitch": 77, "duration": 1, "velocity": 127}, {"time": 683, "pitch": 77, "duration": 1, "velocity": 112}, {"time": 686, "pitch": 79, "duration": 4, "velocity": 127}, {"time": 692, "pitch": 81, "duration": 1, "velocity": 117}, {"time": 695, "pitch": 76, "duration": 14, "velocity": 112}, {"time": 710, "pitch": 76, "duration": 2, "velocity": 127}, {"time": 713, "pitch": 77, "duration": 3, "velocity": 107}, {"time": 716, "pitch": 76, "duration": 3, "velocity": 127}, {"time": 719, "pitch": 72, "duration": 3, "velocity": 102}, {"time": 722, "pitch": 74, "duration": 4, "velocity": 127}, {"time": 728, "pitch": 74, "duration": 1, "velocity": 127}, {"time": 731, "pitch": 74, "duration": 2, "velocity": 122}, {"time": 734, "pitch": 76, "duration": 6, "velocity": 127}, {"time": 740, "pitch": 77, "duration": 2, "velocity": 127}, {"time": 743, "pitch": 72, "duration": 10, "velocity": 112}, {"time": 758, "pitch": 72, "duration": 3, "velocity": 127}, {"time": 761, "pitch": 69, "duration": 3, "velocity": 102}, {"time": 764, "pitch": 72, "duration": 2, "velocity": 122}, {"time": 767, "pitch": 76, "duration": 2, "velocity": 127}, {"time": 770, "pitch": 77, "duration": 6, "velocity": 127}, {"time": 776, "pitch": 77, "duration": 2, "velocity": 127}, {"time": 779, "pitch": 74, "duration": 3, "velocity": 99}, {"time": 782, "pitch": 77, "duration": 5, "velocity": 127}, {"time": 788, "pitch": 79, "duration": 1, "velocity": 117}, {"time": 791, "pitch": 79, "duration": 11, "velocity": 127}, {"time": 803, "pitch": 72, "duration": 2, "velocity": 112}, {"time": 806, "pitch": 72, "duration": 3, "velocity": 112}, {"time": 809, "pitch": 79, "duration": 2, "velocity": 117}, {"time": 812, "pitch": 84, "duration": 3, "velocity": 117}, {"time": 815, "pitch": 79, "duration": 2, "velocity": 127}, {"time": 818, "pitch": 81, "duration": 4, "velocity": 127}, {"time": 824, "pitch": 81, "duration": 1, "velocity": 127}, {"time": 827, "pitch": 81, "duration": 1, "velocity": 127}, {"time": 830, "pitch": 81, "duration": 3, "velocity": 127}, {"time": 833, "pitch": 82, "duration": 3, "velocity": 112}, {"time": 836, "pitch": 84, "duration": 3, "velocity": 112}, {"time": 839, "pitch": 79, "duration": 11, "velocity": 122}, {"time": 851, "pitch": 79, "duration": 1, "velocity": 117}, {"time": 854, "pitch": 79, "duration": 1, "velocity": 112}, {"time": 857, "pitch": 81, "duration": 1, "velocity": 112}, {"time": 860, "pitch": 82, "duration": 3, "velocity": 127}, {"time": 863, "pitch": 81, "duration": 2, "velocity": 127}, {"time": 866, "pitch": 77, "duration": 4, "velocity": 117}, {"time": 872, "pitch": 77, "duration": 1, "velocity": 122}, {"time": 875, "pitch": 77, "duration": 2, "velocity": 102}, {"time": 878, "pitch": 79, "duration": 5, "velocity": 127}, {"time": 884, "pitch": 81, "duration": 1, "velocity": 122}, {"time": 887, "pitch": 76, "duration": 10, "velocity": 122}, {"time": 902, "pitch": 76, "duration": 2, "velocity": 127}, {"time": 905, "pitch": 77, "duration": 2, "velocity": 112}, {"time": 908, "pitch": 76, "duration": 2, "velocity": 127}, {"time": 911, "pitch": 72, "duration": 3, "velocity": 99}, {"time": 914, "pitch": 74, "duration": 4, "velocity": 127}, {"time": 920, "pitch": 74, "duration": 1, "velocity": 127}, {"time": 923, "pitch": 74, "duration": 2, "velocity": 102}, {"time": 926, "pitch": 76, "duration": 6, "velocity": 127}, {"time": 932, "pitch": 77, "duration": 2, "velocity": 117}, {"time": 935, "pitch": 72, "duration": 10, "velocity": 112}, {"time": 950, "pitch": 72, "duration": 1, "velocity": 127}, {"time": 953, "pitch": 69, "duration": 2, "velocity": 100}, {"time": 956, "pitch": 72, "duration": 3, "velocity": 117}, {"time": 959, "pitch": 76, "duration": 2, "velocity": 112}, {"time": 962, "pitch": 77, "duration": 4, "velocity": 122}, {"time": 968, "pitch": 77, "duration": 2, "velocity": 127}, {"time": 971, "pitch": 74, "duration": 2, "velocity": 122}, {"time": 974, "pitch": 77, "duration": 5, "velocity": 127}, {"time": 980, "pitch": 79, "duration": 2, "velocity": 127}, {"time": 983, "pitch": 79, "duration": 12, "velocity": 127}, {"time": 998, "pitch": 77, "duration": 5, "velocity": 127}, {"time": 1004, "pitch": 76, "duration": 2, "velocity": 127}, {"time": 1007, "pitch": 77, "duration": 28, "velocity": 127}, {"time": 1196, "pitch": 69, "duration": 1, "velocity": 127}, {"time": 1199, "pitch": 67, "duration": 1, "velocity": 93}, {"time": 1202, "pitch": 69, "duration": 3, "velocity": 127}, {"time": 1205, "pitch": 72, "duration": 1, "velocity": 117}, {"time": 1208, "pitch": 72, "duration": 1, "velocity": 112}, {"time": 1211, "pitch": 72, "duration": 2, "velocity": 127}, {"time": 1220, "pitch": 67, "duration": 1, "velocity": 117}, {"time": 1223, "pitch": 65, "duration": 2, "velocity": 97}, {"time": 1226, "pitch": 67, "duration": 3, "velocity": 117}, {"time": 1229, "pitch": 72, "duration": 2, "velocity": 95}, {"time": 1232, "pitch": 72, "duration": 2, "velocity": 112}, {"time": 1235, "pitch": 72, "duration": 5, "velocity": 112}, {"time": 1244, "pitch": 69, "duration": 1, "velocity": 127}, {"time": 1247, "pitch": 67, "duration": 3, "velocity": 102}, {"time": 1250, "pitch": 69, "duration": 3, "velocity": 122}, {"time": 1253, "pitch": 77, "duration": 2, "velocity": 92}, {"time": 1256, "pitch": 77, "duration": 2, "velocity": 90}, {"time": 1259, "pitch": 77, "duration": 7, "velocity": 112}, {"time": 1268, "pitch": 76, "duration": 2, "velocity": 127}, {"time": 1271, "pitch": 77, "duration": 2, "velocity": 100}, {"time": 1274, "pitch": 76, "duration": 3, "velocity": 112}, {"time": 1277, "pitch": 72, "duration": 3, "velocity": 99}, {"time": 1280, "pitch": 69, "duration": 3, "velocity": 92}, {"time": 1283, "pitch": 72, "duration": 9, "velocity": 127}, {"time": 1292, "pitch": 74, "duration": 2, "velocity": 100}, {"time": 1295, "pitch": 76, "duration": 3, "velocity": 122}, {"time": 1298, "pitch": 77, "duration": 4, "velocity": 117}, {"time": 1304, "pitch": 70, "duration": 2, "velocity": 100}, {"time": 1307, "pitch": 70, "duration": 8, "velocity": 127}, {"time": 1316, "pitch": 72, "duration": 2, "velocity": 100}, {"time": 1319, "pitch": 74, "duration": 1, "velocity": 107}, {"time": 1322, "pitch": 76, "duration": 6, "velocity": 112}, {"time": 1328, "pitch": 69, "duration": 1, "velocity": 89}, {"time": 1331, "pitch": 69, "duration": 6, "velocity": 102}, {"time": 1340, "pitch": 70, "duration": 2, "velocity": 127}, {"time": 1343, "pitch": 72, "duration": 2, "velocity": 102}, {"time": 1346, "pitch": 74, "duration": 6, "velocity": 122}, {"time": 1352, "pitch": 77, "duration": 1, "velocity": 127}, {"time": 1355, "pitch": 77, "duration": 1, "velocity": 117}, {"time": 1358, "pitch": 77, "duration": 5, "velocity": 112}, {"time": 1364, "pitch": 79, "duration": 1, "velocity": 107}, {"time": 1367, "pitch": 79, "duration": 23, "velocity": 122}, {"time": 1403, "pitch": 72, "duration": 1, "velocity": 102}, {"time": 1406, "pitch": 72, "duration": 4, "velocity": 117}, {"time": 1409, "pitch": 79, "duration": 2, "velocity": 112}, {"time": 1412, "pitch": 84, "duration": 3, "velocity": 122}, {"time": 1415, "pitch": 79, "duration": 2, "velocity": 127}, {"time": 1418, "pitch": 81, "duration": 4, "velocity": 127}, {"time": 1424, "pitch": 81, "duration": 1, "velocity": 127}, {"time": 1427, "pitch": 81, "duration": 1, "velocity": 112}, {"time": 1430, "pitch": 81, "duration": 3, "velocity": 127}, {"time": 1433, "pitch": 82, "duration": 2, "velocity": 127}, {"time": 1436, "pitch": 84, "duration": 2, "velocity": 127}, {"time": 1439, "pitch": 79, "duration": 13, "velocity": 127}, {"time": 1451, "pitch": 79, "duration": 1, "velocity": 107}, {"time": 1454, "pitch": 79, "duration": 2, "velocity": 112}, {"time": 1457, "pitch": 81, "duration": 2, "velocity": 127}, {"time": 1460, "pitch": 82, "duration": 2, "velocity": 127}, {"time": 1463, "pitch": 81, "duration": 2, "velocity": 122}, {"time": 1466, "pitch": 77, "duration": 4, "velocity": 117}, {"time": 1472, "pitch": 77, "duration": 1, "velocity": 127}, {"time": 1475, "pitch": 77, "duration": 1, "velocity": 112}, {"time": 1478, "pitch": 79, "duration": 4, "velocity": 127}, {"time": 1484, "pitch": 81, "duration": 1, "velocity": 117}, {"time": 1487, "pitch": 76, "duration": 14, "velocity": 112}, {"time": 1502, "pitch": 76, "duration": 2, "velocity": 127}, {"time": 1505, "pitch": 77, "duration": 3, "velocity": 107}, {"time": 1508, "pitch": 76, "duration": 3, "velocity": 127}, {"time": 1511, "pitch": 72, "duration": 3, "velocity": 102}, {"time": 1514, "pitch": 74, "duration": 4, "velocity": 127}, {"time": 1520, "pitch": 74, "duration": 1, "velocity": 127}, {"time": 1523, "pitch": 74, "duration": 2, "velocity": 122}, {"time": 1526, "pitch": 76, "duration": 6, "velocity": 127}, {"time": 1532, "pitch": 77, "duration": 2, "velocity": 127}, {"time": 1535, "pitch": 72, "duration": 10, "velocity": 112}, {"time": 1550, "pitch": 72, "duration": 3, "velocity": 127}, {"time": 1553, "pitch": 69, "duration": 3, "velocity": 102}, {"time": 1556, "pitch": 72, "duration": 2, "velocity": 122}, {"time": 1559, "pitch": 76, "duration": 2, "velocity": 127}, {"time": 1562, "pitch": 77, "duration": 6, "velocity": 127}, {"time": 1568, "pitch": 77, "duration": 2, "velocity": 127}, {"time": 1571, "pitch": 74, "duration": 3, "velocity": 99}, {"time": 1574, "pitch": 77, "duration": 5, "velocity": 127}, {"time": 1580, "pitch": 79, "duration": 1, "velocity": 117}, {"time": 1583, "pitch": 79, "duration": 11, "velocity": 127}, {"time": 1595, "pitch": 72, "duration": 2, "velocity": 112}, {"time": 1598, "pitch": 72, "duration": 3, "velocity": 112}, {"time": 1601, "pitch": 79, "duration": 2, "velocity": 117}, {"time": 1604, "pitch": 84, "duration": 3, "velocity": 117}, {"time": 1607, "pitch": 79, "duration": 2, "velocity": 127}, {"time": 1610, "pitch": 81, "duration": 4, "velocity": 127}, {"time": 1616, "pitch": 81, "duration": 1, "velocity": 127}, {"time": 1619, "pitch": 81, "duration": 1, "velocity": 127}, {"time": 1622, "pitch": 81, "duration": 3, "velocity": 127}, {"time": 1625, "pitch": 82, "duration": 3, "velocity": 112}, {"time": 1628, "pitch": 84, "duration": 3, "velocity": 112}, {"time": 1631, "pitch": 79, "duration": 11, "velocity": 122}, {"time": 1643, "pitch": 79, "duration": 1, "velocity": 117}, {"time": 1646, "pitch": 79, "duration": 1, "velocity": 112}, {"time": 1649, "pitch": 81, "duration": 1, "velocity": 112}, {"time": 1652, "pitch": 82, "duration": 3, "velocity": 127}, {"time": 1655, "pitch": 81, "duration": 2, "velocity": 127}, {"time": 1658, "pitch": 77, "duration": 4, "velocity": 117}, {"time": 1664, "pitch": 77, "duration": 1, "velocity": 122}, {"time": 1667, "pitch": 77, "duration": 2, "velocity": 102}, {"time": 1670, "pitch": 79, "duration": 5, "velocity": 127}, {"time": 1676, "pitch": 81, "duration": 1, "velocity": 122}, {"time": 1679, "pitch": 76, "duration": 10, "velocity": 122}, {"time": 1694, "pitch": 76, "duration": 2, "velocity": 127}, {"time": 1697, "pitch": 77, "duration": 2, "velocity": 112}, {"time": 1700, "pitch": 76, "duration": 2, "velocity": 127}, {"time": 1703, "pitch": 72, "duration": 3, "velocity": 99}, {"time": 1706, "pitch": 74, "duration": 4, "velocity": 127}, {"time": 1712, "pitch": 74, "duration": 1, "velocity": 127}, {"time": 1715, "pitch": 74, "duration": 2, "velocity": 102}, {"time": 1718, "pitch": 76, "duration": 6, "velocity": 127}, {"time": 1724, "pitch": 77, "duration": 2, "velocity": 117}, {"time": 1727, "pitch": 72, "duration": 10, "velocity": 112}, {"time": 1742, "pitch": 72, "duration": 1, "velocity": 127}, {"time": 1745, "pitch": 69, "duration": 2, "velocity": 100}, {"time": 1748, "pitch": 72, "duration": 3, "velocity": 117}, {"time": 1751, "pitch": 76, "duration": 2, "velocity": 112}, {"time": 1754, "pitch": 77, "duration": 4, "velocity": 122}, {"time": 1760, "pitch": 77, "duration": 2, "velocity": 127}, {"time": 1763, "pitch": 74, "duration": 2, "velocity": 122}, {"time": 1766, "pitch": 77, "duration": 5, "velocity": 127}, {"time": 1772, "pitch": 79, "duration": 2, "velocity": 127}, {"time": 1775, "pitch": 79, "duration": 3, "velocity": 127}, {"time": 1787, "pitch": 72, "duration": 1, "velocity": 102}, {"time": 1790, "pitch": 72, "duration": 4, "velocity": 117}, {"time": 1793, "pitch": 79, "duration": 2, "velocity": 112}, {"time": 1796, "pitch": 84, "duration": 3, "velocity": 122}, {"time": 1799, "pitch": 79, "duration": 2, "velocity": 127}, {"time": 1802, "pitch": 81, "duration": 4, "velocity": 127}, {"time": 1808, "pitch": 81, "duration": 1, "velocity": 127}, {"time": 1811, "pitch": 81, "duration": 1, "velocity": 112}, {"time": 1814, "pitch": 81, "duration": 3, "velocity": 127}, {"time": 1817, "pitch": 82, "duration": 2, "velocity": 127}, {"time": 1820, "pitch": 84, "duration": 2, "velocity": 127}, {"time": 1823, "pitch": 79, "duration": 13, "velocity": 127}, {"time": 1835, "pitch": 79, "duration": 1, "velocity": 107}, {"time": 1838, "pitch": 79, "duration": 2, "velocity": 112}, {"time": 1841, "pitch": 81, "duration": 2, "velocity": 127}, {"time": 1844, "pitch": 82, "duration": 2, "velocity": 127}, {"time": 1847, "pitch": 81, "duration": 2, "velocity": 122}, {"time": 1850, "pitch": 77, "duration": 4, "velocity": 117}, {"time": 1856, "pitch": 77, "duration": 1, "velocity": 127}, {"time": 1859, "pitch": 77, "duration": 1, "velocity": 112}, {"time": 1862, "pitch": 79, "duration": 4, "velocity": 127}, {"time": 1868, "pitch": 81, "duration": 1, "velocity": 117}, {"time": 1871, "pitch": 76, "duration": 14, "velocity": 112}, {"time": 1886, "pitch": 76, "duration": 2, "velocity": 127}, {"time": 1889, "pitch": 77, "duration": 3, "velocity": 107}, {"time": 1892, "pitch": 76, "duration": 3, "velocity": 127}, {"time": 1895, "pitch": 72, "duration": 3, "velocity": 102}, {"time": 1898, "pitch": 74, "duration": 4, "velocity": 127}, {"time": 1904, "pitch": 74, "duration": 1, "velocity": 127}, {"time": 1907, "pitch": 74, "duration": 2, "velocity": 122}, {"time": 1910, "pitch": 76, "duration": 6, "velocity": 127}, {"time": 1916, "pitch": 77, "duration": 2, "velocity": 127}, {"time": 1919, "pitch": 72, "duration": 10, "velocity": 112}, {"time": 1934, "pitch": 72, "duration": 3, "velocity": 127}, {"time": 1937, "pitch": 69, "duration": 3, "velocity": 102}, {"time": 1940, "pitch": 72, "duration": 2, "velocity": 122}, {"time": 1943, "pitch": 76, "duration": 2, "velocity": 127}, {"time": 1946, "pitch": 77, "duration": 6, "velocity": 127}, {"time": 1952, "pitch": 77, "duration": 2, "velocity": 127}, {"time": 1955, "pitch": 74, "duration": 3, "velocity": 99}, {"time": 1958, "pitch": 77, "duration": 5, "velocity": 127}, {"time": 1964, "pitch": 79, "duration": 1, "velocity": 117}, {"time": 1967, "pitch": 79, "duration": 11, "velocity": 127}, {"time": 1979, "pitch": 72, "duration": 2, "velocity": 112}, {"time": 1982, "pitch": 72, "duration": 3, "velocity": 112}, {"time": 1985, "pitch": 79, "duration": 2, "velocity": 117}, {"time": 1988, "pitch": 84, "duration": 3, "velocity": 117}, {"time": 1991, "pitch": 79, "duration": 2, "velocity": 127}, {"time": 1994, "pitch": 81, "duration": 4, "velocity": 127}, {"time": 2000, "pitch": 81, "duration": 1, "velocity": 127}, {"time": 2003, "pitch": 81, "duration": 1, "velocity": 127}, {"time": 2006, "pitch": 81, "duration": 3, "velocity": 127}, {"time": 2009, "pitch": 82, "duration": 3, "velocity": 112}, {"time": 2012, "pitch": 84, "duration": 3, "velocity": 112}, {"time": 2015, "pitch": 79, "duration": 11, "velocity": 122}, {"time": 2027, "pitch": 79, "duration": 1, "velocity": 117}, {"time": 2030, "pitch": 79, "duration": 1, "velocity": 112}, {"time": 2033, "pitch": 81, "duration": 1, "velocity": 112}, {"time": 2036, "pitch": 82, "duration": 3, "velocity": 127}, {"time": 2039, "pitch": 81, "duration": 2, "velocity": 127}, {"time": 2042, "pitch": 77, "duration": 4, "velocity": 117}, {"time": 2048, "pitch": 77, "duration": 1, "velocity": 122}, {"time": 2051, "pitch": 77, "duration": 2, "velocity": 102}, {"time": 2054, "pitch": 79, "duration": 5, "velocity": 127}, {"time": 2060, "pitch": 81, "duration": 1, "velocity": 122}, {"time": 2063, "pitch": 76, "duration": 10, "velocity": 122}, {"time": 2078, "pitch": 76, "duration": 2, "velocity": 127}, {"time": 2081, "pitch": 77, "duration": 2, "velocity": 112}, {"time": 2084, "pitch": 76, "duration": 2, "velocity": 127}, {"time": 2087, "pitch": 72, "duration": 3, "velocity": 99}, {"time": 2090, "pitch": 74, "duration": 4, "velocity": 127}, {"time": 2096, "pitch": 74, "duration": 1, "velocity": 127}, {"time": 2099, "pitch": 74, "duration": 2, "velocity": 102}, {"time": 2102, "pitch": 76, "duration": 6, "velocity": 127}, {"time": 2108, "pitch": 77, "duration": 2, "velocity": 117}, {"time": 2111, "pitch": 72, "duration": 10, "velocity": 112}, {"time": 2126, "pitch": 72, "duration": 1, "velocity": 127}, {"time": 2129, "pitch": 69, "duration": 2, "velocity": 100}, {"time": 2132, "pitch": 72, "duration": 3, "velocity": 117}, {"time": 2135, "pitch": 76, "duration": 2, "velocity": 112}, {"time": 2138, "pitch": 77, "duration": 4, "velocity": 122}, {"time": 2144, "pitch": 77, "duration": 2, "velocity": 127}, {"time": 2147, "pitch": 74, "duration": 2, "velocity": 122}, {"time": 2150, "pitch": 77, "duration": 5, "velocity": 127}, {"time": 2156, "pitch": 79, "duration": 2, "velocity": 127}, {"time": 2159, "pitch": 79, "duration": 12, "velocity": 127}, {"time": 2174, "pitch": 77, "duration": 5, "velocity": 127}, {"time": 2180, "pitch": 76, "duration": 2, "velocity": 127}, {"time": 2183, "pitch": 77, "duration": 28, "velocity": 127}]}, {"program": 0, "is_drum": false, "name": "PIANO", "notes": [{"time": 26, "pitch": 41, "duration": 20, "velocity": 85}, {"time": 29, "pitch": 48, "duration": 19, "velocity": 92}, {"time": 32, "pitch": 57, "duration": 7, "velocity": 89}, {"time": 35, "pitch": 53, "duration": 4, "velocity": 78}, {"time": 38, "pitch": 65, "duration": 12, "velocity": 93}, {"time": 41, "pitch": 53, "duration": 3, "velocity": 90}, {"time": 44, "pitch": 57, "duration": 6, "velocity": 82}, {"time": 47, "pitch": 60, "duration": 7, "velocity": 95}, {"time": 50, "pitch": 45, "duration": 18, "velocity": 83}, {"time": 53, "pitch": 52, "duration": 5, "velocity": 70}, {"time": 56, "pitch": 57, "duration": 7, "velocity": 86}, {"time": 59, "pitch": 52, "duration": 4, "velocity": 69}, {"time": 62, "pitch": 64, "duration": 10, "velocity": 96}, {"time": 65, "pitch": 52, "duration": 2, "velocity": 95}, {"time": 68, "pitch": 60, "duration": 4, "velocity": 97}, {"time": 71, "pitch": 57, "duration": 7, "velocity": 89}, {"time": 74, "pitch": 38, "duration": 19, "velocity": 81}, {"time": 77, "pitch": 45, "duration": 15, "velocity": 92}, {"time": 80, "pitch": 50, "duration": 7, "velocity": 93}, {"time": 83, "pitch": 57, "duration": 4, "velocity": 90}, {"time": 86, "pitch": 65, "duration": 9, "velocity": 107}, {"time": 89, "pitch": 50, "duration": 2, "velocity": 92}, {"time": 92, "pitch": 62, "duration": 5, "velocity": 97}, {"time": 95, "pitch": 57, "duration": 3, "velocity": 107}, {"time": 98, "pitch": 36, "duration": 17, "velocity": 82}, {"time": 101, "pitch": 43, "duration": 14, "velocity": 86}, {"time": 104, "pitch": 48, "duration": 7, "velocity": 96}, {"time": 107, "pitch": 55, "duration": 4, "velocity": 79}, {"time": 110, "pitch": 64, "duration": 11, "velocity": 100}, {"time": 113, "pitch": 48, "duration": 3, "velocity": 102}, {"time": 116, "pitch": 60, "duration": 6, "velocity": 96}, {"time": 119, "pitch": 55, "duration": 3, "velocity": 102}, {"time": 122, "pitch": 46, "duration": 19, "velocity": 96}, {"time": 125, "pitch": 53, "duration": 16, "velocity": 53}, {"time": 128, "pitch": 58, "duration": 7, "velocity": 117}, {"time": 131, "pitch": 62, "duration": 4, "velocity": 92}, {"time": 134, "pitch": 70, "duration": 12, "velocity": 112}, {"time": 137, "pitch": 58, "duration": 4, "velocity": 100}, {"time": 140, "pitch": 65, "duration": 7, "velocity": 96}, {"time": 143, "pitch": 62, "duration": 3, "velocity": 100}, {"time": 146, "pitch": 45, "duration": 20, "velocity": 79}, {"time": 149, "pitch": 52, "duration": 10, "velocity": 73}, {"time": 152, "pitch": 57, "duration": 4, "velocity": 102}, {"time": 155, "pitch": 60, "duration": 3, "velocity": 96}, {"time": 158, "pitch": 64, "duration": 12, "velocity": 99}, {"time": 161, "pitch": 52, "duration": 4, "velocity": 85}, {"time": 164, "pitch": 60, "duration": 6, "velocity": 107}, {"time": 167, "pitch": 57, "duration": 3, "velocity": 96}, {"time": 170, "pitch": 43, "duration": 18, "velocity": 74}, {"time": 173, "pitch": 50, "duration": 10, "velocity": 95}, {"time": 176, "pitch": 55, "duration": 6, "velocity": 81}, {"time": 179, "pitch": 58, "duration": 3, "velocity": 95}, {"time": 182, "pitch": 62, "duration": 11, "velocity": 100}, {"time": 185, "pitch": 50, "duration": 3, "velocity": 82}, {"time": 188, "pitch": 58, "duration": 4, "velocity": 112}, {"time": 191, "pitch": 55, "duration": 3, "velocity": 96}, {"time": 194, "pitch": 36, "duration": 19, "velocity": 86}, {"time": 197, "pitch": 43, "duration": 16, "velocity": 95}, {"time": 200, "pitch": 48, "duration": 7, "velocity": 102}, {"time": 203, "pitch": 55, "duration": 3, "velocity": 85}, {"time": 206, "pitch": 64, "duration": 12, "velocity": 107}, {"time": 209, "pitch": 48, "duration": 4, "velocity": 97}, {"time": 212, "pitch": 60, "duration": 6, "velocity": 107}, {"time": 218, "pitch": 41, "duration": 20, "velocity": 74}, {"time": 221, "pitch": 48, "duration": 11, "velocity": 86}, {"time": 224, "pitch": 53, "duration": 6, "velocity": 96}, {"time": 227, "pitch": 57, "duration": 3, "velocity": 72}, {"time": 230, "pitch": 65, "duration": 12, "velocity": 107}, {"time": 233, "pitch": 48, "duration": 5, "velocity": 96}, {"time": 236, "pitch": 60, "duration": 6, "velocity": 97}, {"time": 239, "pitch": 57, "duration": 3, "velocity": 107}, {"time": 242, "pitch": 45, "duration": 21, "velocity": 89}, {"time": 245, "pitch": 52, "duration": 17, "velocity": 88}, {"time": 248, "pitch": 57, "duration": 9, "velocity": 92}, {"time": 251, "pitch": 60, "duration": 3, "velocity": 82}, {"time": 254, "pitch": 69, "duration": 12, "velocity": 99}, {"time": 257, "pitch": 60, "duration": 4, "velocity": 85}, {"time": 260, "pitch": 64, "duration": 6, "velocity": 93}, {"time": 263, "pitch": 60, "duration": 3, "velocity": 102}, {"time": 266, "pitch": 38, "duration": 19, "velocity": 85}, {"time": 269, "pitch": 45, "duration": 15, "velocity": 57}, {"time": 272, "pitch": 50, "duration": 11, "velocity": 93}, {"time": 275, "pitch": 57, "duration": 3, "velocity": 86}, {"time": 278, "pitch": 65, "duration": 12, "velocity": 107}, {"time": 281, "pitch": 57, "duration": 3, "velocity": 90}, {"time": 284, "pitch": 62, "duration": 6, "velocity": 102}, {"time": 287, "pitch": 57, "duration": 3, "velocity": 102}, {"time": 290, "pitch": 36, "duration": 18, "velocity": 86}, {"time": 293, "pitch": 43, "duration": 15, "velocity": 83}, {"time": 296, "pitch": 48, "duration": 13, "velocity": 96}, {"time": 299, "pitch": 55, "duration": 3, "velocity": 96}, {"time": 302, "pitch": 64, "duration": 12, "velocity": 102}, {"time": 305, "pitch": 55, "duration": 3, "velocity": 93}, {"time": 308, "pitch": 60, "duration": 5, "velocity": 122}, {"time": 311, "pitch": 55, "duration": 2, "velocity": 107}, {"time": 314, "pitch": 46, "duration": 18, "velocity": 88}, {"time": 317, "pitch": 53, "duration": 14, "velocity": 72}, {"time": 320, "pitch": 58, "duration": 10, "velocity": 107}, {"time": 323, "pitch": 62, "duration": 4, "velocity": 79}, {"time": 326, "pitch": 70, "duration": 13, "velocity": 127}, {"time": 329, "pitch": 62, "duration": 3, "velocity": 95}, {"time": 332, "pitch": 65, "duration": 7, "velocity": 95}, {"time": 335, "pitch": 62, "duration": 4, "velocity": 100}, {"time": 338, "pitch": 45, "duration": 23, "velocity": 95}, {"time": 341, "pitch": 52, "duration": 19, "velocity": 117}, {"time": 344, "pitch": 57, "duration": 10, "velocity": 107}, {"time": 347, "pitch": 60, "duration": 4, "velocity": 89}, {"time": 350, "pitch": 69, "duration": 11, "velocity": 99}, {"time": 353, "pitch": 60, "duration": 3, "velocity": 85}, {"time": 356, "pitch": 64, "duration": 5, "velocity": 97}, {"time": 359, "pitch": 60, "duration": 3, "velocity": 96}, {"time": 362, "pitch": 43, "duration": 19, "velocity": 74}, {"time": 365, "pitch": 50, "duration": 15, "velocity": 68}, {"time": 368, "pitch": 55, "duration": 10, "velocity": 97}, {"time": 371, "pitch": 58, "duration": 4, "velocity": 92}, {"time": 374, "pitch": 67, "duration": 12, "velocity": 67}, {"time": 377, "pitch": 58, "duration": 4, "velocity": 95}, {"time": 380, "pitch": 62, "duration": 6, "velocity": 71}, {"time": 383, "pitch": 58, "duration": 3, "velocity": 117}, {"time": 386, "pitch": 36, "duration": 21, "velocity": 79}, {"time": 389, "pitch": 43, "duration": 19, "velocity": 83}, {"time": 392, "pitch": 48, "duration": 12, "velocity": 96}, {"time": 395, "pitch": 55, "duration": 4, "velocity": 88}, {"time": 398, "pitch": 64, "duration": 13, "velocity": 107}, {"time": 401, "pitch": 55, "duration": 3, "velocity": 85}, {"time": 404, "pitch": 60, "duration": 6, "velocity": 107}, {"time": 407, "pitch": 55, "duration": 3, "velocity": 107}, {"time": 410, "pitch": 41, "duration": 20, "velocity": 74}, {"time": 413, "pitch": 48, "duration": 11, "velocity": 86}, {"time": 416, "pitch": 53, "duration": 6, "velocity": 96}, {"time": 419, "pitch": 57, "duration": 3, "velocity": 72}, {"time": 422, "pitch": 65, "duration": 12, "velocity": 107}, {"time": 425, "pitch": 48, "duration": 5, "velocity": 96}, {"time": 428, "pitch": 60, "duration": 6, "velocity": 97}, {"time": 431, "pitch": 57, "duration": 3, "velocity": 107}, {"time": 434, "pitch": 45, "duration": 21, "velocity": 89}, {"time": 437, "pitch": 52, "duration": 17, "velocity": 88}, {"time": 440, "pitch": 57, "duration": 9, "velocity": 92}, {"time": 443, "pitch": 60, "duration": 3, "velocity": 82}, {"time": 446, "pitch": 69, "duration": 12, "velocity": 99}, {"time": 449, "pitch": 60, "duration": 4, "velocity": 85}, {"time": 452, "pitch": 64, "duration": 6, "velocity": 93}, {"time": 455, "pitch": 60, "duration": 3, "velocity": 102}, {"time": 458, "pitch": 38, "duration": 19, "velocity": 85}, {"time": 461, "pitch": 45, "duration": 15, "velocity": 57}, {"time": 464, "pitch": 50, "duration": 11, "velocity": 93}, {"time": 467, "pitch": 57, "duration": 3, "velocity": 86}, {"time": 470, "pitch": 65, "duration": 12, "velocity": 107}, {"time": 473, "pitch": 57, "duration": 3, "velocity": 90}, {"time": 476, "pitch": 62, "duration": 6, "velocity": 102}, {"time": 479, "pitch": 57, "duration": 3, "velocity": 102}, {"time": 482, "pitch": 36, "duration": 18, "velocity": 86}, {"time": 485, "pitch": 43, "duration": 15, "velocity": 83}, {"time": 488, "pitch": 48, "duration": 13, "velocity": 96}, {"time": 491, "pitch": 55, "duration": 3, "velocity": 96}, {"time": 494, "pitch": 64, "duration": 12, "velocity": 102}, {"time": 497, "pitch": 55, "duration": 3, "velocity": 93}, {"time": 500, "pitch": 60, "duration": 5, "velocity": 122}, {"time": 503, "pitch": 55, "duration": 2, "velocity": 107}, {"time": 506, "pitch": 46, "duration": 18, "velocity": 88}, {"time": 509, "pitch": 53, "duration": 14, "velocity": 72}, {"time": 512, "pitch": 58, "duration": 10, "velocity": 107}, {"time": 515, "pitch": 62, "duration": 4, "velocity": 79}, {"time": 518, "pitch": 70, "duration": 13, "velocity": 127}, {"time": 521, "pitch": 62, "duration": 3, "velocity": 95}, {"time": 524, "pitch": 65, "duration": 7, "velocity": 95}, {"time": 527, "pitch": 62, "duration": 4, "velocity": 100}, {"time": 530, "pitch": 45, "duration": 23, "velocity": 95}, {"time": 533, "pitch": 52, "duration": 19, "velocity": 117}, {"time": 536, "pitch": 57, "duration": 10, "velocity": 107}, {"time": 539, "pitch": 60, "duration": 4, "velocity": 89}, {"time": 542, "pitch": 69, "duration": 11, "velocity": 99}, {"time": 545, "pitch": 60, "duration": 3, "velocity": 85}, {"time": 548, "pitch": 64, "duration": 5, "velocity": 97}, {"time": 551, "pitch": 60, "duration": 3, "velocity": 96}, {"time": 554, "pitch": 43, "duration": 19, "velocity": 74}, {"time": 557, "pitch": 50, "duration": 15, "velocity": 68}, {"time": 560, "pitch": 55, "duration": 10, "velocity": 97}, {"time": 563, "pitch": 58, "duration": 4, "velocity": 92}, {"time": 566, "pitch": 67, "duration": 12, "velocity": 67}, {"time": 569, "pitch": 58, "duration": 4, "velocity": 95}, {"time": 572, "pitch": 62, "duration": 6, "velocity": 71}, {"time": 575, "pitch": 58, "duration": 3, "velocity": 117}, {"time": 578, "pitch": 36, "duration": 21, "velocity": 79}, {"time": 581, "pitch": 43, "duration": 19, "velocity": 83}, {"time": 584, "pitch": 48, "duration": 12, "velocity": 96}, {"time": 587, "pitch": 55, "duration": 4, "velocity": 88}, {"time": 590, "pitch": 64, "duration": 13, "velocity": 107}, {"time": 593, "pitch": 55, "duration": 3, "velocity": 85}, {"time": 596, "pitch": 60, "duration": 6, "velocity": 107}, {"time": 599, "pitch": 55, "duration": 3, "velocity": 107}, {"time": 602, "pitch": 36, "duration": 11, "velocity": 77}, {"time": 602, "pitch": 48, "duration": 10, "velocity": 90}, {"time": 602, "pitch": 55, "duration": 1, "velocity": 95}, {"time": 602, "pitch": 60, "duration": 1, "velocity": 96}, {"time": 602, "pitch": 64, "duration": 1, "velocity": 92}, {"time": 626, "pitch": 41, "duration": 17, "velocity": 96}, {"time": 629, "pitch": 48, "duration": 15, "velocity": 102}, {"time": 632, "pitch": 53, "duration": 9, "velocity": 112}, {"time": 635, "pitch": 60, "duration": 4, "velocity": 102}, {"time": 638, "pitch": 65, "duration": 4, "velocity": 102}, {"time": 638, "pitch": 69, "duration": 4, "velocity": 107}, {"time": 641, "pitch": 60, "duration": 4, "velocity": 99}, {"time": 644, "pitch": 65, "duration": 6, "velocity": 100}, {"time": 644, "pitch": 69, "duration": 6, "velocity": 107}, {"time": 647, "pitch": 60, "duration": 4, "velocity": 102}, {"time": 650, "pitch": 45, "duration": 18, "velocity": 89}, {"time": 653, "pitch": 52, "duration": 4, "velocity": 107}, {"time": 656, "pitch": 57, "duration": 6, "velocity": 97}, {"time": 659, "pitch": 52, "duration": 4, "velocity": 97}, {"time": 662, "pitch": 60, "duration": 3, "velocity": 107}, {"time": 662, "pitch": 64, "duration": 3, "velocity": 102}, {"time": 665, "pitch": 52, "duration": 2, "velocity": 43}, {"time": 665, "pitch": 57, "duration": 3, "velocity": 97}, {"time": 668, "pitch": 60, "duration": 6, "velocity": 97}, {"time": 668, "pitch": 64, "duration": 6, "velocity": 100}, {"time": 671, "pitch": 57, "duration": 3, "velocity": 117}, {"time": 674, "pitch": 38, "duration": 19, "velocity": 90}, {"time": 677, "pitch": 45, "duration": 14, "velocity": 96}, {"time": 680, "pitch": 50, "duration": 7, "velocity": 107}, {"time": 683, "pitch": 57, "duration": 4, "velocity": 102}, {"time": 686, "pitch": 62, "duration": 4, "velocity": 122}, {"time": 686, "pitch": 65, "duration": 4, "velocity": 117}, {"time": 689, "pitch": 50, "duration": 3, "velocity": 61}, {"time": 689, "pitch": 57, "duration": 4, "velocity": 99}, {"time": 692, "pitch": 45, "duration": 2, "velocity": 65}, {"time": 692, "pitch": 62, "duration": 6, "velocity": 102}, {"time": 692, "pitch": 65, "duration": 6, "velocity": 100}, {"time": 695, "pitch": 57, "duration": 3, "velocity": 107}, {"time": 698, "pitch": 36, "duration": 19, "velocity": 89}, {"time": 701, "pitch": 48, "duration": 12, "velocity": 107}, {"time": 704, "pitch": 55, "duration": 2, "velocity": 99}, {"time": 707, "pitch": 55, "duration": 4, "velocity": 107}, {"time": 710, "pitch": 60, "duration": 7, "velocity": 112}, {"time": 710, "pitch": 64, "duration": 7, "velocity": 100}, {"time": 713, "pitch": 48, "duration": 4, "velocity": 82}, {"time": 716, "pitch": 55, "duration": 4, "velocity": 99}, {"time": 719, "pitch": 60, "duration": 3, "velocity": 117}, {"time": 719, "pitch": 64, "duration": 3, "velocity": 112}, {"time": 722, "pitch": 34, "duration": 18, "velocity": 96}, {"time": 725, "pitch": 46, "duration": 5, "velocity": 122}, {"time": 728, "pitch": 58, "duration": 5, "velocity": 117}, {"time": 731, "pitch": 46, "duration": 4, "velocity": 96}, {"time": 734, "pitch": 58, "duration": 1, "velocity": 69}, {"time": 734, "pitch": 62, "duration": 4, "velocity": 66}, {"time": 734, "pitch": 65, "duration": 7, "velocity": 75}, {"time": 737, "pitch": 46, "duration": 4, "velocity": 107}, {"time": 740, "pitch": 58, "duration": 4, "velocity": 112}, {"time": 743, "pitch": 62, "duration": 3, "velocity": 70}, {"time": 743, "pitch": 65, "duration": 3, "velocity": 71}, {"time": 746, "pitch": 45, "duration": 20, "velocity": 86}, {"time": 749, "pitch": 52, "duration": 11, "velocity": 86}, {"time": 752, "pitch": 57, "duration": 5, "velocity": 99}, {"time": 755, "pitch": 60, "duration": 3, "velocity": 112}, {"time": 758, "pitch": 64, "duration": 4, "velocity": 96}, {"time": 758, "pitch": 69, "duration": 4, "velocity": 112}, {"time": 761, "pitch": 52, "duration": 4, "velocity": 97}, {"time": 764, "pitch": 64, "duration": 7, "velocity": 97}, {"time": 764, "pitch": 69, "duration": 7, "velocity": 107}, {"time": 767, "pitch": 60, "duration": 4, "velocity": 112}, {"time": 770, "pitch": 43, "duration": 16, "velocity": 79}, {"time": 773, "pitch": 50, "duration": 4, "velocity": 99}, {"time": 776, "pitch": 55, "duration": 7, "velocity": 97}, {"time": 776, "pitch": 63, "duration": 1, "velocity": 37}, {"time": 779, "pitch": 50, "duration": 4, "velocity": 100}, {"time": 782, "pitch": 58, "duration": 6, "velocity": 127}, {"time": 782, "pitch": 62, "duration": 12, "velocity": 112}, {"time": 785, "pitch": 50, "duration": 1, "velocity": 117}, {"time": 788, "pitch": 55, "duration": 6, "velocity": 107}, {"time": 791, "pitch": 58, "duration": 3, "velocity": 127}, {"time": 794, "pitch": 36, "duration": 18, "velocity": 95}, {"time": 797, "pitch": 48, "duration": 5, "velocity": 112}, {"time": 800, "pitch": 60, "duration": 7, "velocity": 112}, {"time": 803, "pitch": 43, "duration": 9, "velocity": 107}, {"time": 803, "pitch": 48, "duration": 1, "velocity": 54}, {"time": 806, "pitch": 64, "duration": 7, "velocity": 99}, {"time": 806, "pitch": 67, "duration": 6, "velocity": 117}, {"time": 809, "pitch": 48, "duration": 5, "velocity": 112}, {"time": 812, "pitch": 60, "duration": 6, "velocity": 112}, {"time": 815, "pitch": 64, "duration": 3, "velocity": 127}, {"time": 815, "pitch": 67, "duration": 3, "velocity": 127}, {"time": 818, "pitch": 41, "duration": 20, "velocity": 96}, {"time": 821, "pitch": 48, "duration": 17, "velocity": 89}, {"time": 824, "pitch": 53, "duration": 8, "velocity": 107}, {"time": 827, "pitch": 60, "duration": 4, "velocity": 96}, {"time": 830, "pitch": 65, "duration": 4, "velocity": 122}, {"time": 830, "pitch": 69, "duration": 4, "velocity": 117}, {"time": 833, "pitch": 53, "duration": 3, "velocity": 85}, {"time": 836, "pitch": 65, "duration": 7, "velocity": 112}, {"time": 836, "pitch": 69, "duration": 7, "velocity": 107}, {"time": 839, "pitch": 60, "duration": 4, "velocity": 97}, {"time": 842, "pitch": 45, "duration": 22, "velocity": 71}, {"time": 845, "pitch": 52, "duration": 4, "velocity": 93}, {"time": 848, "pitch": 57, "duration": 5, "velocity": 107}, {"time": 851, "pitch": 52, "duration": 4, "velocity": 97}, {"time": 854, "pitch": 60, "duration": 4, "velocity": 107}, {"time": 854, "pitch": 64, "duration": 4, "velocity": 112}, {"time": 857, "pitch": 52, "duration": 5, "velocity": 96}, {"time": 860, "pitch": 60, "duration": 5, "velocity": 112}, {"time": 860, "pitch": 64, "duration": 5, "velocity": 112}, {"time": 863, "pitch": 57, "duration": 3, "velocity": 100}, {"time": 866, "pitch": 38, "duration": 18, "velocity": 89}, {"time": 869, "pitch": 45, "duration": 16, "velocity": 89}, {"time": 872, "pitch": 57, "duration": 5, "velocity": 112}, {"time": 875, "pitch": 50, "duration": 4, "velocity": 83}, {"time": 878, "pitch": 62, "duration": 4, "velocity": 102}, {"time": 878, "pitch": 65, "duration": 4, "velocity": 102}, {"time": 881, "pitch": 50, "duration": 2, "velocity": 92}, {"time": 884, "pitch": 62, "duration": 6, "velocity": 122}, {"time": 884, "pitch": 65, "duration": 6, "velocity": 102}, {"time": 887, "pitch": 57, "duration": 3, "velocity": 99}, {"time": 890, "pitch": 36, "duration": 20, "velocity": 85}, {"time": 893, "pitch": 48, "duration": 4, "velocity": 96}, {"time": 896, "pitch": 55, "duration": 6, "velocity": 97}, {"time": 899, "pitch": 48, "duration": 4, "velocity": 96}, {"time": 902, "pitch": 64, "duration": 4, "velocity": 112}, {"time": 902, "pitch": 67, "duration": 4, "velocity": 100}, {"time": 905, "pitch": 48, "duration": 7, "velocity": 102}, {"time": 908, "pitch": 64, "duration": 7, "velocity": 112}, {"time": 908, "pitch": 67, "duration": 7, "velocity": 112}, {"time": 911, "pitch": 60, "duration": 4, "velocity": 100}, {"time": 914, "pitch": 46, "duration": 18, "velocity": 102}, {"time": 917, "pitch": 58, "duration": 3, "velocity": 102}, {"time": 920, "pitch": 62, "duration": 6, "velocity": 102}, {"time": 923, "pitch": 58, "duration": 4, "velocity": 112}, {"time": 926, "pitch": 65, "duration": 5, "velocity": 99}, {"time": 926, "pitch": 70, "duration": 6, "velocity": 127}, {"time": 929, "pitch": 58, "duration": 2, "velocity": 100}, {"time": 932, "pitch": 62, "duration": 7, "velocity": 127}, {"time": 932, "pitch": 65, "duration": 1, "velocity": 35}, {"time": 935, "pitch": 65, "duration": 3, "velocity": 97}, {"time": 935, "pitch": 70, "duration": 4, "velocity": 127}, {"time": 938, "pitch": 45, "duration": 16, "velocity": 69}, {"time": 941, "pitch": 52, "duration": 4, "velocity": 75}, {"time": 944, "pitch": 57, "duration": 7, "velocity": 102}, {"time": 947, "pitch": 52, "duration": 4, "velocity": 86}, {"time": 950, "pitch": 60, "duration": 7, "velocity": 97}, {"time": 950, "pitch": 64, "duration": 7, "velocity": 107}, {"time": 953, "pitch": 52, "duration": 1, "velocity": 107}, {"time": 956, "pitch": 57, "duration": 6, "velocity": 99}, {"time": 959, "pitch": 60, "duration": 3, "velocity": 117}, {"time": 959, "pitch": 64, "duration": 3, "velocity": 102}, {"time": 962, "pitch": 43, "duration": 18, "velocity": 100}, {"time": 965, "pitch": 50, "duration": 14, "velocity": 86}, {"time": 968, "pitch": 55, "duration": 7, "velocity": 99}, {"time": 971, "pitch": 58, "duration": 4, "velocity": 97}, {"time": 974, "pitch": 62, "duration": 4, "velocity": 73}, {"time": 974, "pitch": 67, "duration": 7, "velocity": 68}, {"time": 977, "pitch": 55, "duration": 2, "velocity": 100}, {"time": 980, "pitch": 58, "duration": 7, "velocity": 112}, {"time": 983, "pitch": 62, "duration": 3, "velocity": 78}, {"time": 983, "pitch": 67, "duration": 3, "velocity": 82}, {"time": 986, "pitch": 36, "duration": 19, "velocity": 81}, {"time": 989, "pitch": 43, "duration": 16, "velocity": 82}, {"time": 992, "pitch": 48, "duration": 7, "velocity": 93}, {"time": 995, "pitch": 55, "duration": 4, "velocity": 89}, {"time": 998, "pitch": 60, "duration": 7, "velocity": 88}, {"time": 998, "pitch": 64, "duration": 7, "velocity": 96}, {"time": 1001, "pitch": 48, "duration": 6, "velocity": 100}, {"time": 1004, "pitch": 55, "duration": 7, "velocity": 102}, {"time": 1007, "pitch": 60, "duration": 3, "velocity": 112}, {"time": 1007, "pitch": 64, "duration": 4, "velocity": 107}, {"time": 1010, "pitch": 41, "duration": 20, "velocity": 90}, {"time": 1013, "pitch": 48, "duration": 18, "velocity": 78}, {"time": 1016, "pitch": 53, "duration": 8, "velocity": 99}, {"time": 1019, "pitch": 57, "duration": 4, "velocity": 81}, {"time": 1022, "pitch": 60, "duration": 12, "velocity": 92}, {"time": 1022, "pitch": 65, "duration": 11, "velocity": 100}, {"time": 1025, "pitch": 53, "duration": 2, "velocity": 76}, {"time": 1031, "pitch": 57, "duration": 3, "velocity": 96}, {"time": 1034, "pitch": 45, "duration": 17, "velocity": 60}, {"time": 1037, "pitch": 52, "duration": 13, "velocity": 73}, {"time": 1040, "pitch": 57, "duration": 4, "velocity": 96}, {"time": 1043, "pitch": 60, "duration": 16, "velocity": 78}, {"time": 1046, "pitch": 64, "duration": 13, "velocity": 97}, {"time": 1052, "pitch": 57, "duration": 7, "velocity": 93}, {"time": 1058, "pitch": 38, "duration": 18, "velocity": 76}, {"time": 1061, "pitch": 45, "duration": 15, "velocity": 64}, {"time": 1064, "pitch": 50, "duration": 9, "velocity": 93}, {"time": 1067, "pitch": 57, "duration": 4, "velocity": 81}, {"time": 1070, "pitch": 62, "duration": 12, "velocity": 112}, {"time": 1070, "pitch": 65, "duration": 12, "velocity": 100}, {"time": 1076, "pitch": 57, "duration": 6, "velocity": 89}, {"time": 1082, "pitch": 48, "duration": 17, "velocity": 92}, {"time": 1085, "pitch": 55, "duration": 13, "velocity": 79}, {"time": 1088, "pitch": 60, "duration": 4, "velocity": 102}, {"time": 1091, "pitch": 64, "duration": 15, "velocity": 88}, {"time": 1094, "pitch": 67, "duration": 12, "velocity": 96}, {"time": 1100, "pitch": 60, "duration": 8, "velocity": 92}, {"time": 1106, "pitch": 46, "duration": 19, "velocity": 100}, {"time": 1109, "pitch": 58, "duration": 10, "velocity": 96}, {"time": 1112, "pitch": 62, "duration": 7, "velocity": 93}, {"time": 1115, "pitch": 65, "duration": 4, "velocity": 100}, {"time": 1118, "pitch": 53, "duration": 6, "velocity": 32}, {"time": 1118, "pitch": 70, "duration": 12, "velocity": 127}, {"time": 1121, "pitch": 58, "duration": 2, "velocity": 86}, {"time": 1124, "pitch": 65, "duration": 7, "velocity": 89}, {"time": 1127, "pitch": 62, "duration": 4, "velocity": 86}, {"time": 1130, "pitch": 45, "duration": 19, "velocity": 75}, {"time": 1133, "pitch": 52, "duration": 11, "velocity": 82}, {"time": 1136, "pitch": 57, "duration": 6, "velocity": 77}, {"time": 1139, "pitch": 60, "duration": 3, "velocity": 93}, {"time": 1142, "pitch": 64, "duration": 12, "velocity": 99}, {"time": 1145, "pitch": 52, "duration": 3, "velocity": 74}, {"time": 1148, "pitch": 60, "duration": 6, "velocity": 97}, {"time": 1151, "pitch": 57, "duration": 3, "velocity": 86}, {"time": 1154, "pitch": 43, "duration": 18, "velocity": 79}, {"time": 1157, "pitch": 50, "duration": 10, "velocity": 68}, {"time": 1160, "pitch": 55, "duration": 4, "velocity": 86}, {"time": 1163, "pitch": 58, "duration": 3, "velocity": 100}, {"time": 1166, "pitch": 62, "duration": 11, "velocity": 99}, {"time": 1169, "pitch": 50, "duration": 2, "velocity": 65}, {"time": 1172, "pitch": 58, "duration": 4, "velocity": 122}, {"time": 1175, "pitch": 55, "duration": 3, "velocity": 93}, {"time": 1178, "pitch": 36, "duration": 22, "velocity": 77}, {"time": 1181, "pitch": 43, "duration": 19, "velocity": 58}, {"time": 1184, "pitch": 48, "duration": 6, "velocity": 97}, {"time": 1187, "pitch": 55, "duration": 4, "velocity": 83}, {"time": 1190, "pitch": 64, "duration": 12, "velocity": 100}, {"time": 1193, "pitch": 48, "duration": 4, "velocity": 99}, {"time": 1196, "pitch": 60, "duration": 7, "velocity": 93}, {"time": 1202, "pitch": 41, "duration": 20, "velocity": 74}, {"time": 1205, "pitch": 48, "duration": 11, "velocity": 86}, {"time": 1208, "pitch": 53, "duration": 6, "velocity": 96}, {"time": 1211, "pitch": 57, "duration": 3, "velocity": 72}, {"time": 1214, "pitch": 65, "duration": 12, "velocity": 107}, {"time": 1217, "pitch": 48, "duration": 5, "velocity": 96}, {"time": 1220, "pitch": 60, "duration": 6, "velocity": 97}, {"time": 1223, "pitch": 57, "duration": 3, "velocity": 107}, {"time": 1226, "pitch": 45, "duration": 21, "velocity": 89}, {"time": 1229, "pitch": 52, "duration": 17, "velocity": 88}, {"time": 1232, "pitch": 57, "duration": 9, "velocity": 92}, {"time": 1235, "pitch": 60, "duration": 3, "velocity": 82}, {"time": 1238, "pitch": 69, "duration": 12, "velocity": 99}, {"time": 1241, "pitch": 60, "duration": 4, "velocity": 85}, {"time": 1244, "pitch": 64, "duration": 6, "velocity": 93}, {"time": 1247, "pitch": 60, "duration": 3, "velocity": 102}, {"time": 1250, "pitch": 38, "duration": 19, "velocity": 85}, {"time": 1253, "pitch": 45, "duration": 15, "velocity": 57}, {"time": 1256, "pitch": 50, "duration": 11, "velocity": 93}, {"time": 1259, "pitch": 57, "duration": 3, "velocity": 86}, {"time": 1262, "pitch": 65, "duration": 12, "velocity": 107}, {"time": 1265, "pitch": 57, "duration": 3, "velocity": 90}, {"time": 1268, "pitch": 62, "duration": 6, "velocity": 102}, {"time": 1271, "pitch": 57, "duration": 3, "velocity": 102}, {"time": 1274, "pitch": 36, "duration": 18, "velocity": 86}, {"time": 1277, "pitch": 43, "duration": 15, "velocity": 83}, {"time": 1280, "pitch": 48, "duration": 13, "velocity": 96}, {"time": 1283, "pitch": 55, "duration": 3, "velocity": 96}, {"time": 1286, "pitch": 64, "duration": 12, "velocity": 102}, {"time": 1289, "pitch": 55, "duration": 3, "velocity": 93}, {"time": 1292, "pitch": 60, "duration": 5, "velocity": 122}, {"time": 1295, "pitch": 55, "duration": 2, "velocity": 107}, {"time": 1298, "pitch": 46, "duration": 18, "velocity": 88}, {"time": 1301, "pitch": 53, "duration": 14, "velocity": 72}, {"time": 1304, "pitch": 58, "duration": 10, "velocity": 107}, {"time": 1307, "pitch": 62, "duration": 4, "velocity": 79}, {"time": 1310, "pitch": 70, "duration": 13, "velocity": 127}, {"time": 1313, "pitch": 62, "duration": 3, "velocity": 95}, {"time": 1316, "pitch": 65, "duration": 7, "velocity": 95}, {"time": 1319, "pitch": 62, "duration": 4, "velocity": 100}, {"time": 1322, "pitch": 45, "duration": 23, "velocity": 95}, {"time": 1325, "pitch": 52, "duration": 19, "velocity": 117}, {"time": 1328, "pitch": 57, "duration": 10, "velocity": 107}, {"time": 1331, "pitch": 60, "duration": 4, "velocity": 89}, {"time": 1334, "pitch": 69, "duration": 11, "velocity": 99}, {"time": 1337, "pitch": 60, "duration": 3, "velocity": 85}, {"time": 1340, "pitch": 64, "duration": 5, "velocity": 97}, {"time": 1343, "pitch": 60, "duration": 3, "velocity": 96}, {"time": 1346, "pitch": 43, "duration": 19, "velocity": 74}, {"time": 1349, "pitch": 50, "duration": 15, "velocity": 68}, {"time": 1352, "pitch": 55, "duration": 10, "velocity": 97}, {"time": 1355, "pitch": 58, "duration": 4, "velocity": 92}, {"time": 1358, "pitch": 67, "duration": 12, "velocity": 67}, {"time": 1361, "pitch": 58, "duration": 4, "velocity": 95}, {"time": 1364, "pitch": 62, "duration": 6, "velocity": 71}, {"time": 1367, "pitch": 58, "duration": 3, "velocity": 117}, {"time": 1370, "pitch": 36, "duration": 21, "velocity": 79}, {"time": 1373, "pitch": 43, "duration": 19, "velocity": 83}, {"time": 1376, "pitch": 48, "duration": 12, "velocity": 96}, {"time": 1379, "pitch": 55, "duration": 4, "velocity": 88}, {"time": 1382, "pitch": 64, "duration": 13, "velocity": 107}, {"time": 1385, "pitch": 55, "duration": 3, "velocity": 85}, {"time": 1388, "pitch": 60, "duration": 6, "velocity": 107}, {"time": 1391, "pitch": 55, "duration": 3, "velocity": 107}, {"time": 1394, "pitch": 36, "duration": 11, "velocity": 77}, {"time": 1394, "pitch": 48, "duration": 10, "velocity": 90}, {"time": 1394, "pitch": 55, "duration": 1, "velocity": 95}, {"time": 1394, "pitch": 60, "duration": 1, "velocity": 96}, {"time": 1394, "pitch": 64, "duration": 1, "velocity": 92}, {"time": 1418, "pitch": 41, "duration": 17, "velocity": 96}, {"time": 1421, "pitch": 48, "duration": 15, "velocity": 102}, {"time": 1424, "pitch": 53, "duration": 9, "velocity": 112}, {"time": 1427, "pitch": 60, "duration": 4, "velocity": 102}, {"time": 1430, "pitch": 65, "duration": 4, "velocity": 102}, {"time": 1430, "pitch": 69, "duration": 4, "velocity": 107}, {"time": 1433, "pitch": 60, "duration": 4, "velocity": 99}, {"time": 1436, "pitch": 65, "duration": 6, "velocity": 100}, {"time": 1436, "pitch": 69, "duration": 6, "velocity": 107}, {"time": 1439, "pitch": 60, "duration": 4, "velocity": 102}, {"time": 1442, "pitch": 45, "duration": 18, "velocity": 89}, {"time": 1445, "pitch": 52, "duration": 4, "velocity": 107}, {"time": 1448, "pitch": 57, "duration": 6, "velocity": 97}, {"time": 1451, "pitch": 52, "duration": 4, "velocity": 97}, {"time": 1454, "pitch": 60, "duration": 3, "velocity": 107}, {"time": 1454, "pitch": 64, "duration": 3, "velocity": 102}, {"time": 1457, "pitch": 52, "duration": 2, "velocity": 43}, {"time": 1457, "pitch": 57, "duration": 3, "velocity": 97}, {"time": 1460, "pitch": 60, "duration": 6, "velocity": 97}, {"time": 1460, "pitch": 64, "duration": 6, "velocity": 100}, {"time": 1463, "pitch": 57, "duration": 3, "velocity": 117}, {"time": 1466, "pitch": 38, "duration": 19, "velocity": 90}, {"time": 1469, "pitch": 45, "duration": 14, "velocity": 96}, {"time": 1472, "pitch": 50, "duration": 7, "velocity": 107}, {"time": 1475, "pitch": 57, "duration": 4, "velocity": 102}, {"time": 1478, "pitch": 62, "duration": 4, "velocity": 122}, {"time": 1478, "pitch": 65, "duration": 4, "velocity": 117}, {"time": 1481, "pitch": 50, "duration": 3, "velocity": 61}, {"time": 1481, "pitch": 57, "duration": 4, "velocity": 99}, {"time": 1484, "pitch": 45, "duration": 2, "velocity": 65}, {"time": 1484, "pitch": 62, "duration": 6, "velocity": 102}, {"time": 1484, "pitch": 65, "duration": 6, "velocity": 100}, {"time": 1487, "pitch": 57, "duration": 3, "velocity": 107}, {"time": 1490, "pitch": 36, "duration": 19, "velocity": 89}, {"time": 1493, "pitch": 48, "duration": 12, "velocity": 107}, {"time": 1496, "pitch": 55, "duration": 2, "velocity": 99}, {"time": 1499, "pitch": 55, "duration": 4, "velocity": 107}, {"time": 1502, "pitch": 60, "duration": 7, "velocity": 112}, {"time": 1502, "pitch": 64, "duration": 7, "velocity": 100}, {"time": 1505, "pitch": 48, "duration": 4, "velocity": 82}, {"time": 1508, "pitch": 55, "duration": 4, "velocity": 99}, {"time": 1511, "pitch": 60, "duration": 3, "velocity": 117}, {"time": 1511, "pitch": 64, "duration": 3, "velocity": 112}, {"time": 1514, "pitch": 34, "duration": 18, "velocity": 96}, {"time": 1517, "pitch": 46, "duration": 5, "velocity": 122}, {"time": 1520, "pitch": 58, "duration": 5, "velocity": 117}, {"time": 1523, "pitch": 46, "duration": 4, "velocity": 96}, {"time": 1526, "pitch": 58, "duration": 1, "velocity": 69}, {"time": 1526, "pitch": 62, "duration": 4, "velocity": 66}, {"time": 1526, "pitch": 65, "duration": 7, "velocity": 75}, {"time": 1529, "pitch": 46, "duration": 4, "velocity": 107}, {"time": 1532, "pitch": 58, "duration": 4, "velocity": 112}, {"time": 1535, "pitch": 62, "duration": 3, "velocity": 70}, {"time": 1535, "pitch": 65, "duration": 3, "velocity": 71}, {"time": 1538, "pitch": 45, "duration": 20, "velocity": 86}, {"time": 1541, "pitch": 52, "duration": 11, "velocity": 86}, {"time": 1544, "pitch": 57, "duration": 5, "velocity": 99}, {"time": 1547, "pitch": 60, "duration": 3, "velocity": 112}, {"time": 1550, "pitch": 64, "duration": 4, "velocity": 96}, {"time": 1550, "pitch": 69, "duration": 4, "velocity": 112}, {"time": 1553, "pitch": 52, "duration": 4, "velocity": 97}, {"time": 1556, "pitch": 64, "duration": 7, "velocity": 97}, {"time": 1556, "pitch": 69, "duration": 7, "velocity": 107}, {"time": 1559, "pitch": 60, "duration": 4, "velocity": 112}, {"time": 1562, "pitch": 43, "duration": 16, "velocity": 79}, {"time": 1565, "pitch": 50, "duration": 4, "velocity": 99}, {"time": 1568, "pitch": 55, "duration": 7, "velocity": 97}, {"time": 1568, "pitch": 63, "duration": 1, "velocity": 37}, {"time": 1571, "pitch": 50, "duration": 4, "velocity": 100}, {"time": 1574, "pitch": 58, "duration": 6, "velocity": 127}, {"time": 1574, "pitch": 62, "duration": 12, "velocity": 112}, {"time": 1577, "pitch": 50, "duration": 1, "velocity": 117}, {"time": 1580, "pitch": 55, "duration": 6, "velocity": 107}, {"time": 1583, "pitch": 58, "duration": 3, "velocity": 127}, {"time": 1586, "pitch": 36, "duration": 18, "velocity": 95}, {"time": 1589, "pitch": 48, "duration": 5, "velocity": 112}, {"time": 1592, "pitch": 60, "duration": 7, "velocity": 112}, {"time": 1595, "pitch": 43, "duration": 9, "velocity": 107}, {"time": 1595, "pitch": 48, "duration": 1, "velocity": 54}, {"time": 1598, "pitch": 64, "duration": 7, "velocity": 99}, {"time": 1598, "pitch": 67, "duration": 6, "velocity": 117}, {"time": 1601, "pitch": 48, "duration": 5, "velocity": 112}, {"time": 1604, "pitch": 60, "duration": 6, "velocity": 112}, {"time": 1607, "pitch": 64, "duration": 3, "velocity": 127}, {"time": 1607, "pitch": 67, "duration": 3, "velocity": 127}, {"time": 1610, "pitch": 41, "duration": 20, "velocity": 96}, {"time": 1613, "pitch": 48, "duration": 17, "velocity": 89}, {"time": 1616, "pitch": 53, "duration": 8, "velocity": 107}, {"time": 1619, "pitch": 60, "duration": 4, "velocity": 96}, {"time": 1622, "pitch": 65, "duration": 4, "velocity": 122}, {"time": 1622, "pitch": 69, "duration": 4, "velocity": 117}, {"time": 1625, "pitch": 53, "duration": 3, "velocity": 85}, {"time": 1628, "pitch": 65, "duration": 7, "velocity": 112}, {"time": 1628, "pitch": 69, "duration": 7, "velocity": 107}, {"time": 1631, "pitch": 60, "duration": 4, "velocity": 97}, {"time": 1634, "pitch": 45, "duration": 22, "velocity": 71}, {"time": 1637, "pitch": 52, "duration": 4, "velocity": 93}, {"time": 1640, "pitch": 57, "duration": 5, "velocity": 107}, {"time": 1643, "pitch": 52, "duration": 4, "velocity": 97}, {"time": 1646, "pitch": 60, "duration": 4, "velocity": 107}, {"time": 1646, "pitch": 64, "duration": 4, "velocity": 112}, {"time": 1649, "pitch": 52, "duration": 5, "velocity": 96}, {"time": 1652, "pitch": 60, "duration": 5, "velocity": 112}, {"time": 1652, "pitch": 64, "duration": 5, "velocity": 112}, {"time": 1655, "pitch": 57, "duration": 3, "velocity": 100}, {"time": 1658, "pitch": 38, "duration": 18, "velocity": 89}, {"time": 1661, "pitch": 45, "duration": 16, "velocity": 89}, {"time": 1664, "pitch": 57, "duration": 5, "velocity": 112}, {"time": 1667, "pitch": 50, "duration": 4, "velocity": 83}, {"time": 1670, "pitch": 62, "duration": 4, "velocity": 102}, {"time": 1670, "pitch": 65, "duration": 4, "velocity": 102}, {"time": 1673, "pitch": 50, "duration": 2, "velocity": 92}, {"time": 1676, "pitch": 62, "duration": 6, "velocity": 122}, {"time": 1676, "pitch": 65, "duration": 6, "velocity": 102}, {"time": 1679, "pitch": 57, "duration": 3, "velocity": 99}, {"time": 1682, "pitch": 36, "duration": 20, "velocity": 85}, {"time": 1685, "pitch": 48, "duration": 4, "velocity": 96}, {"time": 1688, "pitch": 55, "duration": 6, "velocity": 97}, {"time": 1691, "pitch": 48, "duration": 4, "velocity": 96}, {"time": 1694, "pitch": 64, "duration": 4, "velocity": 112}, {"time": 1694, "pitch": 67, "duration": 4, "velocity": 100}, {"time": 1697, "pitch": 48, "duration": 7, "velocity": 102}, {"time": 1700, "pitch": 64, "duration": 7, "velocity": 112}, {"time": 1700, "pitch": 67, "duration": 7, "velocity": 112}, {"time": 1703, "pitch": 60, "duration": 4, "velocity": 100}, {"time": 1706, "pitch": 46, "duration": 18, "velocity": 102}, {"time": 1709, "pitch": 58, "duration": 3, "velocity": 102}, {"time": 1712, "pitch": 62, "duration": 6, "velocity": 102}, {"time": 1715, "pitch": 58, "duration": 4, "velocity": 112}, {"time": 1718, "pitch": 65, "duration": 5, "velocity": 99}, {"time": 1718, "pitch": 70, "duration": 6, "velocity": 127}, {"time": 1721, "pitch": 58, "duration": 2, "velocity": 100}, {"time": 1724, "pitch": 62, "duration": 7, "velocity": 127}, {"time": 1724, "pitch": 65, "duration": 1, "velocity": 35}, {"time": 1727, "pitch": 65, "duration": 3, "velocity": 97}, {"time": 1727, "pitch": 70, "duration": 4, "velocity": 127}, {"time": 1730, "pitch": 45, "duration": 16, "velocity": 69}, {"time": 1733, "pitch": 52, "duration": 4, "velocity": 75}, {"time": 1736, "pitch": 57, "duration": 7, "velocity": 102}, {"time": 1739, "pitch": 52, "duration": 4, "velocity": 86}, {"time": 1742, "pitch": 60, "duration": 7, "velocity": 97}, {"time": 1742, "pitch": 64, "duration": 7, "velocity": 107}, {"time": 1745, "pitch": 52, "duration": 1, "velocity": 107}, {"time": 1748, "pitch": 57, "duration": 6, "velocity": 99}, {"time": 1751, "pitch": 60, "duration": 3, "velocity": 117}, {"time": 1751, "pitch": 64, "duration": 3, "velocity": 102}, {"time": 1754, "pitch": 43, "duration": 18, "velocity": 100}, {"time": 1757, "pitch": 50, "duration": 14, "velocity": 86}, {"time": 1760, "pitch": 55, "duration": 7, "velocity": 99}, {"time": 1763, "pitch": 58, "duration": 4, "velocity": 97}, {"time": 1766, "pitch": 62, "duration": 4, "velocity": 73}, {"time": 1766, "pitch": 67, "duration": 7, "velocity": 68}, {"time": 1769, "pitch": 55, "duration": 2, "velocity": 100}, {"time": 1772, "pitch": 58, "duration": 7, "velocity": 112}, {"time": 1775, "pitch": 62, "duration": 3, "velocity": 78}, {"time": 1775, "pitch": 67, "duration": 3, "velocity": 82}, {"time": 1778, "pitch": 36, "duration": 19, "velocity": 81}, {"time": 1781, "pitch": 43, "duration": 16, "velocity": 82}, {"time": 1784, "pitch": 48, "duration": 7, "velocity": 93}, {"time": 1787, "pitch": 55, "duration": 4, "velocity": 89}, {"time": 1790, "pitch": 60, "duration": 7, "velocity": 88}, {"time": 1790, "pitch": 64, "duration": 7, "velocity": 96}, {"time": 1793, "pitch": 48, "duration": 6, "velocity": 100}, {"time": 1796, "pitch": 55, "duration": 6, "velocity": 102}, {"time": 1799, "pitch": 60, "duration": 3, "velocity": 112}, {"time": 1799, "pitch": 64, "duration": 3, "velocity": 107}, {"time": 1802, "pitch": 41, "duration": 17, "velocity": 96}, {"time": 1805, "pitch": 48, "duration": 15, "velocity": 102}, {"time": 1808, "pitch": 53, "duration": 9, "velocity": 112}, {"time": 1811, "pitch": 60, "duration": 4, "velocity": 102}, {"time": 1814, "pitch": 65, "duration": 4, "velocity": 102}, {"time": 1814, "pitch": 69, "duration": 4, "velocity": 107}, {"time": 1817, "pitch": 60, "duration": 4, "velocity": 99}, {"time": 1820, "pitch": 65, "duration": 6, "velocity": 100}, {"time": 1820, "pitch": 69, "duration": 6, "velocity": 107}, {"time": 1823, "pitch": 60, "duration": 4, "velocity": 102}, {"time": 1826, "pitch": 45, "duration": 18, "velocity": 89}, {"time": 1829, "pitch": 52, "duration": 4, "velocity": 107}, {"time": 1832, "pitch": 57, "duration": 6, "velocity": 97}, {"time": 1835, "pitch": 52, "duration": 4, "velocity": 97}, {"time": 1838, "pitch": 60, "duration": 3, "velocity": 107}, {"time": 1838, "pitch": 64, "duration": 3, "velocity": 102}, {"time": 1841, "pitch": 52, "duration": 2, "velocity": 43}, {"time": 1841, "pitch": 57, "duration": 3, "velocity": 97}, {"time": 1844, "pitch": 60, "duration": 6, "velocity": 97}, {"time": 1844, "pitch": 64, "duration": 6, "velocity": 100}, {"time": 1847, "pitch": 57, "duration": 3, "velocity": 117}, {"time": 1850, "pitch": 38, "duration": 19, "velocity": 90}, {"time": 1853, "pitch": 45, "duration": 14, "velocity": 96}, {"time": 1856, "pitch": 50, "duration": 7, "velocity": 107}, {"time": 1859, "pitch": 57, "duration": 4, "velocity": 102}, {"time": 1862, "pitch": 62, "duration": 4, "velocity": 122}, {"time": 1862, "pitch": 65, "duration": 4, "velocity": 117}, {"time": 1865, "pitch": 50, "duration": 3, "velocity": 61}, {"time": 1865, "pitch": 57, "duration": 4, "velocity": 99}, {"time": 1868, "pitch": 45, "duration": 2, "velocity": 65}, {"time": 1868, "pitch": 62, "duration": 6, "velocity": 102}, {"time": 1868, "pitch": 65, "duration": 6, "velocity": 100}, {"time": 1871, "pitch": 57, "duration": 3, "velocity": 107}, {"time": 1874, "pitch": 36, "duration": 19, "velocity": 89}, {"time": 1877, "pitch": 48, "duration": 12, "velocity": 107}, {"time": 1880, "pitch": 55, "duration": 2, "velocity": 99}, {"time": 1883, "pitch": 55, "duration": 4, "velocity": 107}, {"time": 1886, "pitch": 60, "duration": 7, "velocity": 112}, {"time": 1886, "pitch": 64, "duration": 7, "velocity": 100}, {"time": 1889, "pitch": 48, "duration": 4, "velocity": 82}, {"time": 1892, "pitch": 55, "duration": 4, "velocity": 99}, {"time": 1895, "pitch": 60, "duration": 3, "velocity": 117}, {"time": 1895, "pitch": 64, "duration": 3, "velocity": 112}, {"time": 1898, "pitch": 34, "duration": 18, "velocity": 96}, {"time": 1901, "pitch": 46, "duration": 5, "velocity": 122}, {"time": 1904, "pitch": 58, "duration": 5, "velocity": 117}, {"time": 1907, "pitch": 46, "duration": 4, "velocity": 96}, {"time": 1910, "pitch": 58, "duration": 1, "velocity": 69}, {"time": 1910, "pitch": 62, "duration": 4, "velocity": 66}, {"time": 1910, "pitch": 65, "duration": 7, "velocity": 75}, {"time": 1913, "pitch": 46, "duration": 4, "velocity": 107}, {"time": 1916, "pitch": 58, "duration": 4, "velocity": 112}, {"time": 1919, "pitch": 62, "duration": 3, "velocity": 70}, {"time": 1919, "pitch": 65, "duration": 3, "velocity": 71}, {"time": 1922, "pitch": 45, "duration": 20, "velocity": 86}, {"time": 1925, "pitch": 52, "duration": 11, "velocity": 86}, {"time": 1928, "pitch": 57, "duration": 5, "velocity": 99}, {"time": 1931, "pitch": 60, "duration": 3, "velocity": 112}, {"time": 1934, "pitch": 64, "duration": 4, "velocity": 96}, {"time": 1934, "pitch": 69, "duration": 4, "velocity": 112}, {"time": 1937, "pitch": 52, "duration": 4, "velocity": 97}, {"time": 1940, "pitch": 64, "duration": 7, "velocity": 97}, {"time": 1940, "pitch": 69, "duration": 7, "velocity": 107}, {"time": 1943, "pitch": 60, "duration": 4, "velocity": 112}, {"time": 1946, "pitch": 43, "duration": 16, "velocity": 79}, {"time": 1949, "pitch": 50, "duration": 4, "velocity": 99}, {"time": 1952, "pitch": 55, "duration": 7, "velocity": 97}, {"time": 1952, "pitch": 63, "duration": 1, "velocity": 37}, {"time": 1955, "pitch": 50, "duration": 4, "velocity": 100}, {"time": 1958, "pitch": 58, "duration": 6, "velocity": 127}, {"time": 1958, "pitch": 62, "duration": 12, "velocity": 112}, {"time": 1961, "pitch": 50, "duration": 1, "velocity": 117}, {"time": 1964, "pitch": 55, "duration": 6, "velocity": 107}, {"time": 1967, "pitch": 58, "duration": 3, "velocity": 127}, {"time": 1970, "pitch": 36, "duration": 18, "velocity": 95}, {"time": 1973, "pitch": 48, "duration": 5, "velocity": 112}, {"time": 1976, "pitch": 60, "duration": 7, "velocity": 112}, {"time": 1979, "pitch": 43, "duration": 9, "velocity": 107}, {"time": 1979, "pitch": 48, "duration": 1, "velocity": 54}, {"time": 1982, "pitch": 64, "duration": 7, "velocity": 99}, {"time": 1982, "pitch": 67, "duration": 6, "velocity": 117}, {"time": 1985, "pitch": 48, "duration": 5, "velocity": 112}, {"time": 1988, "pitch": 60, "duration": 6, "velocity": 112}, {"time": 1991, "pitch": 64, "duration": 3, "velocity": 127}, {"time": 1991, "pitch": 67, "duration": 3, "velocity": 127}, {"time": 1994, "pitch": 41, "duration": 20, "velocity": 96}, {"time": 1997, "pitch": 48, "duration": 17, "velocity": 89}, {"time": 2000, "pitch": 53, "duration": 8, "velocity": 107}, {"time": 2003, "pitch": 60, "duration": 4, "velocity": 96}, {"time": 2006, "pitch": 65, "duration": 4, "velocity": 122}, {"time": 2006, "pitch": 69, "duration": 4, "velocity": 117}, {"time": 2009, "pitch": 53, "duration": 3, "velocity": 85}, {"time": 2012, "pitch": 65, "duration": 7, "velocity": 112}, {"time": 2012, "pitch": 69, "duration": 7, "velocity": 107}, {"time": 2015, "pitch": 60, "duration": 4, "velocity": 97}, {"time": 2018, "pitch": 45, "duration": 22, "velocity": 71}, {"time": 2021, "pitch": 52, "duration": 4, "velocity": 93}, {"time": 2024, "pitch": 57, "duration": 5, "velocity": 107}, {"time": 2027, "pitch": 52, "duration": 4, "velocity": 97}, {"time": 2030, "pitch": 60, "duration": 4, "velocity": 107}, {"time": 2030, "pitch": 64, "duration": 4, "velocity": 112}, {"time": 2033, "pitch": 52, "duration": 5, "velocity": 96}, {"time": 2036, "pitch": 60, "duration": 5, "velocity": 112}, {"time": 2036, "pitch": 64, "duration": 5, "velocity": 112}, {"time": 2039, "pitch": 57, "duration": 3, "velocity": 100}, {"time": 2042, "pitch": 38, "duration": 18, "velocity": 89}, {"time": 2045, "pitch": 45, "duration": 16, "velocity": 89}, {"time": 2048, "pitch": 57, "duration": 5, "velocity": 112}, {"time": 2051, "pitch": 50, "duration": 4, "velocity": 83}, {"time": 2054, "pitch": 62, "duration": 4, "velocity": 102}, {"time": 2054, "pitch": 65, "duration": 4, "velocity": 102}, {"time": 2057, "pitch": 50, "duration": 2, "velocity": 92}, {"time": 2060, "pitch": 62, "duration": 6, "velocity": 122}, {"time": 2060, "pitch": 65, "duration": 6, "velocity": 102}, {"time": 2063, "pitch": 57, "duration": 3, "velocity": 99}, {"time": 2066, "pitch": 36, "duration": 20, "velocity": 85}, {"time": 2069, "pitch": 48, "duration": 4, "velocity": 96}, {"time": 2072, "pitch": 55, "duration": 6, "velocity": 97}, {"time": 2075, "pitch": 48, "duration": 4, "velocity": 96}, {"time": 2078, "pitch": 64, "duration": 4, "velocity": 112}, {"time": 2078, "pitch": 67, "duration": 4, "velocity": 100}, {"time": 2081, "pitch": 48, "duration": 7, "velocity": 102}, {"time": 2084, "pitch": 64, "duration": 7, "velocity": 112}, {"time": 2084, "pitch": 67, "duration": 7, "velocity": 112}, {"time": 2087, "pitch": 60, "duration": 4, "velocity": 100}, {"time": 2090, "pitch": 46, "duration": 18, "velocity": 102}, {"time": 2093, "pitch": 58, "duration": 3, "velocity": 102}, {"time": 2096, "pitch": 62, "duration": 6, "velocity": 102}, {"time": 2099, "pitch": 58, "duration": 4, "velocity": 112}, {"time": 2102, "pitch": 65, "duration": 5, "velocity": 99}, {"time": 2102, "pitch": 70, "duration": 6, "velocity": 127}, {"time": 2105, "pitch": 58, "duration": 2, "velocity": 100}, {"time": 2108, "pitch": 62, "duration": 7, "velocity": 127}, {"time": 2108, "pitch": 65, "duration": 1, "velocity": 35}, {"time": 2111, "pitch": 65, "duration": 3, "velocity": 97}, {"time": 2111, "pitch": 70, "duration": 4, "velocity": 127}, {"time": 2114, "pitch": 45, "duration": 16, "velocity": 69}, {"time": 2117, "pitch": 52, "duration": 4, "velocity": 75}, {"time": 2120, "pitch": 57, "duration": 7, "velocity": 102}, {"time": 2123, "pitch": 52, "duration": 4, "velocity": 86}, {"time": 2126, "pitch": 60, "duration": 7, "velocity": 97}, {"time": 2126, "pitch": 64, "duration": 7, "velocity": 107}, {"time": 2129, "pitch": 52, "duration": 1, "velocity": 107}, {"time": 2132, "pitch": 57, "duration": 6, "velocity": 99}, {"time": 2135, "pitch": 60, "duration": 3, "velocity": 117}, {"time": 2135, "pitch": 64, "duration": 3, "velocity": 102}, {"time": 2138, "pitch": 43, "duration": 18, "velocity": 100}, {"time": 2141, "pitch": 50, "duration": 14, "velocity": 86}, {"time": 2144, "pitch": 55, "duration": 7, "velocity": 99}, {"time": 2147, "pitch": 58, "duration": 4, "velocity": 97}, {"time": 2150, "pitch": 62, "duration": 4, "velocity": 73}, {"time": 2150, "pitch": 67, "duration": 7, "velocity": 68}, {"time": 2153, "pitch": 55, "duration": 2, "velocity": 100}, {"time": 2156, "pitch": 58, "duration": 7, "velocity": 112}, {"time": 2159, "pitch": 62, "duration": 3, "velocity": 78}, {"time": 2159, "pitch": 67, "duration": 3, "velocity": 82}, {"time": 2162, "pitch": 36, "duration": 19, "velocity": 81}, {"time": 2165, "pitch": 43, "duration": 16, "velocity": 82}, {"time": 2168, "pitch": 48, "duration": 7, "velocity": 93}, {"time": 2171, "pitch": 55, "duration": 4, "velocity": 89}, {"time": 2174, "pitch": 60, "duration": 7, "velocity": 88}, {"time": 2174, "pitch": 64, "duration": 7, "velocity": 96}, {"time": 2177, "pitch": 48, "duration": 6, "velocity": 100}, {"time": 2180, "pitch": 55, "duration": 6, "velocity": 102}, {"time": 2183, "pitch": 60, "duration": 3, "velocity": 112}, {"time": 2183, "pitch": 64, "duration": 3, "velocity": 107}, {"time": 2186, "pitch": 41, "duration": 15, "velocity": 93}, {"time": 2189, "pitch": 48, "duration": 12, "velocity": 71}, {"time": 2192, "pitch": 53, "duration": 8, "velocity": 102}, {"time": 2195, "pitch": 60, "duration": 4, "velocity": 90}, {"time": 2198, "pitch": 69, "duration": 12, "velocity": 112}, {"time": 2201, "pitch": 60, "duration": 3, "velocity": 75}, {"time": 2204, "pitch": 65, "duration": 7, "velocity": 97}, {"time": 2207, "pitch": 60, "duration": 4, "velocity": 97}, {"time": 2210, "pitch": 45, "duration": 17, "velocity": 88}, {"time": 2213, "pitch": 52, "duration": 11, "velocity": 82}, {"time": 2216, "pitch": 57, "duration": 6, "velocity": 96}, {"time": 2219, "pitch": 60, "duration": 4, "velocity": 90}, {"time": 2222, "pitch": 69, "duration": 12, "velocity": 107}, {"time": 2225, "pitch": 52, "duration": 2, "velocity": 90}, {"time": 2228, "pitch": 64, "duration": 6, "velocity": 97}, {"time": 2231, "pitch": 60, "duration": 4, "velocity": 99}, {"time": 2234, "pitch": 38, "duration": 18, "velocity": 82}, {"time": 2237, "pitch": 45, "duration": 15, "velocity": 78}, {"time": 2240, "pitch": 50, "duration": 11, "velocity": 95}, {"time": 2243, "pitch": 57, "duration": 4, "velocity": 112}, {"time": 2243, "pitch": 66, "duration": 1, "velocity": 47}, {"time": 2246, "pitch": 65, "duration": 12, "velocity": 107}, {"time": 2249, "pitch": 57, "duration": 3, "velocity": 96}, {"time": 2252, "pitch": 62, "duration": 6, "velocity": 102}, {"time": 2255, "pitch": 57, "duration": 3, "velocity": 102}, {"time": 2258, "pitch": 36, "duration": 16, "velocity": 96}, {"time": 2261, "pitch": 43, "duration": 14, "velocity": 75}, {"time": 2264, "pitch": 48, "duration": 6, "velocity": 81}, {"time": 2267, "pitch": 55, "duration": 4, "velocity": 75}, {"time": 2270, "pitch": 64, "duration": 12, "velocity": 97}, {"time": 2273, "pitch": 55, "duration": 3, "velocity": 88}, {"time": 2276, "pitch": 60, "duration": 6, "velocity": 112}, {"time": 2279, "pitch": 55, "duration": 3, "velocity": 92}, {"time": 2282, "pitch": 46, "duration": 18, "velocity": 96}, {"time": 2285, "pitch": 53, "duration": 15, "velocity": 50}, {"time": 2288, "pitch": 58, "duration": 8, "velocity": 96}, {"time": 2291, "pitch": 62, "duration": 3, "velocity": 90}, {"time": 2294, "pitch": 70, "duration": 12, "velocity": 127}, {"time": 2297, "pitch": 62, "duration": 4, "velocity": 82}, {"time": 2300, "pitch": 65, "duration": 6, "velocity": 100}, {"time": 2303, "pitch": 62, "duration": 3, "velocity": 122}, {"time": 2306, "pitch": 45, "duration": 18, "velocity": 86}, {"time": 2309, "pitch": 52, "duration": 15, "velocity": 73}, {"time": 2312, "pitch": 57, "duration": 8, "velocity": 97}, {"time": 2315, "pitch": 60, "duration": 4, "velocity": 81}, {"time": 2318, "pitch": 69, "duration": 12, "velocity": 96}, {"time": 2321, "pitch": 60, "duration": 3, "velocity": 95}, {"time": 2324, "pitch": 64, "duration": 6, "velocity": 117}, {"time": 2330, "pitch": 43, "duration": 18, "velocity": 89}, {"time": 2333, "pitch": 50, "duration": 10, "velocity": 99}, {"time": 2336, "pitch": 55, "duration": 7, "velocity": 86}, {"time": 2339, "pitch": 58, "duration": 3, "velocity": 112}, {"time": 2342, "pitch": 62, "duration": 11, "velocity": 100}, {"time": 2345, "pitch": 50, "duration": 2, "velocity": 76}, {"time": 2348, "pitch": 58, "duration": 5, "velocity": 127}, {"time": 2351, "pitch": 55, "duration": 4, "velocity": 100}, {"time": 2354, "pitch": 36, "duration": 18, "velocity": 79}, {"time": 2357, "pitch": 43, "duration": 15, "velocity": 82}, {"time": 2360, "pitch": 48, "duration": 8, "velocity": 93}, {"time": 2363, "pitch": 55, "duration": 4, "velocity": 92}, {"time": 2366, "pitch": 64, "duration": 12, "velocity": 102}, {"time": 2369, "pitch": 48, "duration": 4, "velocity": 65}, {"time": 2372, "pitch": 60, "duration": 6, "velocity": 107}, {"time": 2378, "pitch": 29, "duration": 55, "velocity": 68}, {"time": 2378, "pitch": 36, "duration": 54, "velocity": 63}, {"time": 2378, "pitch": 41, "duration": 54, "velocity": 77}, {"time": 2378, "pitch": 60, "duration": 54, "velocity": 97}, {"time": 2378, "pitch": 65, "duration": 54, "velocity": 90}, {"time": 2378, "pitch": 69, "duration": 54, "velocity": 90}], "annotations": [{"time": 26, "annotation": {"number": 64, "value": 127}, "group": "control_change"}, {"time": 46, "annotation": {"number": 64, "value": 0}, "group": "control_change"}, {"time": 50, "annotation": {"number": 64, "value": 127}, "group": "control_change"}, {"time": 70, "annotation": {"number": 64, "value": 0}, "group": "control_change"}, {"time": 74, "annotation": {"number": 64, "value": 127}, "group": "control_change"}, {"time": 94, "annotation": {"number": 64, "value": 0}, "group": "control_change"}, {"time": 98, "annotation": {"number": 64, "value": 127}, "group": "control_change"}, {"time": 119, "annotation": {"number": 64, "value": 0}, "group": "control_change"}, {"time": 122, "annotation": {"number": 64, "value": 127}, "group": "control_change"}, {"time": 144, "annotation": {"number": 64, "value": 0}, "group": "control_change"}, {"time": 147, "annotation": {"number": 64, "value": 127}, "group": "control_change"}, {"time": 159, "annotation": {"number": 64, "value": 0}, "group": "control_change"}, {"time": 162, "annotation": {"number": 64, "value": 127}, "group": "control_change"}, {"time": 166, "annotation": {"number": 64, "value": 0}, "group": "control_change"}, {"time": 170, "annotation": {"number": 64, "value": 127}, "group": "control_change"}, {"time": 189, "annotation": {"number": 64, "value": 0}, "group": "control_change"}, {"time": 194, "annotation": {"number": 64, "value": 127}, "group": "control_change"}, {"time": 212, "annotation": {"number": 64, "value": 0}, "group": "control_change"}, {"time": 218, "annotation": {"number": 64, "value": 127}, "group": "control_change"}, {"time": 239, "annotation": {"number": 64, "value": 0}, "group": "control_change"}, {"time": 242, "annotation": {"number": 64, "value": 127}, "group": "control_change"}, {"time": 263, "annotation": {"number": 64, "value": 0}, "group": "control_change"}, {"time": 266, "annotation": {"number": 64, "value": 127}, "group": "control_change"}, {"time": 288, "annotation": {"number": 64, "value": 0}, "group": "control_change"}, {"time": 290, "annotation": {"number": 64, "value": 127}, "group": "control_change"}, {"time": 312, "annotation": {"number": 64, "value": 0}, "group": "control_change"}, {"time": 314, "annotation": {"number": 64, "value": 127}, "group": "control_change"}, {"time": 335, "annotation": {"number": 64, "value": 0}, "group": "control_change"}, {"time": 362, "annotation": {"number": 64, "value": 127}, "group": "control_change"}, {"time": 383, "annotation": {"number": 64, "value": 0}, "group": "control_change"}, {"time": 386, "annotation": {"number": 64, "value": 127}, "group": "control_change"}, {"time": 409, "annotation": {"number": 64, "value": 0}, "group": "control_change"}, {"time": 410, "annotation": {"number": 64, "value": 127}, "group": "control_change"}, {"time": 431, "annotation": {"number": 64, "value": 0}, "group": "control_change"}, {"time": 434, "annotation": {"number": 64, "value": 127}, "group": "control_change"}, {"time": 455, "annotation": {"number": 64, "value": 0}, "group": "control_change"}, {"time": 458, "annotation": {"number": 64, "value": 127}, "group": "control_change"}, {"time": 480, "annotation": {"number": 64, "value": 0}, "group": "control_change"}, {"time": 482, "annotation": {"number": 64, "value": 127}, "group": "control_change"}, {"time": 504, "annotation": {"number": 64, "value": 0}, "group": "control_change"}, {"time": 506, "annotation": {"number": 64, "value": 127}, "group": "control_change"}, {"time": 527, "annotation": {"number": 64, "value": 0}, "group": "control_change"}, {"time": 554, "annotation": {"number": 64, "value": 127}, "group": "control_change"}, {"time": 575, "annotation": {"number": 64, "value": 0}, "group": "control_change"}, {"time": 578, "annotation": {"number": 64, "value": 127}, "group": "control_change"}, {"time": 601, "annotation": {"number": 64, "value": 0}, "group": "control_change"}, {"time": 607, "annotation": {"number": 64, "value": 127}, "group": "control_change"}, {"time": 622, "annotation": {"number": 64, "value": 0}, "group": "control_change"}, {"time": 627, "annotation": {"number": 64, "value": 127}, "group": "control_change"}, {"time": 646, "annotation": {"number": 64, "value": 0}, "group": "control_change"}, {"time": 649, "annotation": {"number": 64, "value": 127}, "group": "control_change"}, {"time": 672, "annotation": {"number": 64, "value": 0}, "group": "control_change"}, {"time": 674, "annotation": {"number": 64, "value": 127}, "group": "control_change"}, {"time": 694, "annotation": {"number": 64, "value": 0}, "group": "control_change"}, {"time": 698, "annotation": {"number": 64, "value": 127}, "group": "control_change"}, {"time": 709, "annotation": {"number": 64, "value": 0}, "group": "control_change"}, {"time": 711, "annotation": {"number": 64, "value": 127}, "group": "control_change"}, {"time": 720, "annotation": {"number": 64, "value": 0}, "group": "control_change"}, {"time": 722, "annotation": {"number": 64, "value": 127}, "group": "control_change"}, {"time": 744, "annotation": {"number": 64, "value": 0}, "group": "control_change"}, {"time": 746, "annotation": {"number": 64, "value": 127}, "group": "control_change"}, {"time": 755, "annotation": {"number": 64, "value": 0}, "group": "control_change"}, {"time": 757, "annotation": {"number": 64, "value": 127}, "group": "control_change"}, {"time": 760, "annotation": {"number": 64, "value": 0}, "group": "control_change"}, {"time": 763, "annotation": {"number": 64, "value": 127}, "group": "control_change"}, {"time": 767, "annotation": {"number": 64, "value": 0}, "group": "control_change"}, {"time": 770, "annotation": {"number": 64, "value": 127}, "group": "control_change"}, {"time": 787, "annotation": {"number": 64, "value": 0}, "group": "control_change"}, {"time": 794, "annotation": {"number": 64, "value": 127}, "group": "control_change"}, {"time": 804, "annotation": {"number": 64, "value": 0}, "group": "control_change"}, {"time": 806, "annotation": {"number": 64, "value": 127}, "group": "control_change"}, {"time": 811, "annotation": {"number": 64, "value": 0}, "group": "control_change"}, {"time": 818, "annotation": {"number": 64, "value": 127}, "group": "control_change"}, {"time": 828, "annotation": {"number": 64, "value": 0}, "group": "control_change"}, {"time": 831, "annotation": {"number": 64, "value": 127}, "group": "control_change"}, {"time": 833, "annotation": {"number": 64, "value": 0}, "group": "control_change"}, {"time": 836, "annotation": {"number": 64, "value": 127}, "group": "control_change"}, {"time": 839, "annotation": {"number": 64, "value": 0}, "group": "control_change"}, {"time": 842, "annotation": {"number": 64, "value": 127}, "group": "control_change"}, {"time": 857, "annotation": {"number": 64, "value": 0}, "group": "control_change"}, {"time": 860, "annotation": {"number": 64, "value": 127}, "group": "control_change"}, {"time": 864, "annotation": {"number": 64, "value": 0}, "group": "control_change"}, {"time": 866, "annotation": {"number": 64, "value": 127}, "group": "control_change"}, {"time": 867, "annotation": {"number": 64, "value": 0}, "group": "control_change"}, {"time": 871, "annotation": {"number": 64, "value": 127}, "group": "control_change"}, {"time": 886, "annotation": {"number": 64, "value": 0}, "group": "control_change"}, {"time": 890, "annotation": {"number": 64, "value": 127}, "group": "control_change"}, {"time": 906, "annotation": {"number": 64, "value": 0}, "group": "control_change"}, {"time": 907, "annotation": {"number": 64, "value": 127}, "group": "control_change"}, {"time": 912, "annotation": {"number": 64, "value": 0}, "group": "control_change"}, {"time": 914, "annotation": {"number": 64, "value": 127}, "group": "control_change"}, {"time": 918, "annotation": {"number": 64, "value": 0}, "group": "control_change"}, {"time": 920, "annotation": {"number": 64, "value": 127}, "group": "control_change"}, {"time": 935, "annotation": {"number": 64, "value": 0}, "group": "control_change"}, {"time": 938, "annotation": {"number": 64, "value": 127}, "group": "control_change"}, {"time": 949, "annotation": {"number": 64, "value": 0}, "group": "control_change"}, {"time": 950, "annotation": {"number": 64, "value": 127}, "group": "control_change"}, {"time": 960, "annotation": {"number": 64, "value": 0}, "group": "control_change"}, {"time": 962, "annotation": {"number": 64, "value": 127}, "group": "control_change"}, {"time": 982, "annotation": {"number": 64, "value": 0}, "group": "control_change"}, {"time": 985, "annotation": {"number": 64, "value": 127}, "group": "control_change"}, {"time": 1007, "annotation": {"number": 64, "value": 0}, "group": "control_change"}, {"time": 1018, "annotation": {"number": 64, "value": 127}, "group": "control_change"}, {"time": 1031, "annotation": {"number": 64, "value": 0}, "group": "control_change"}, {"time": 1034, "annotation": {"number": 64, "value": 127}, "group": "control_change"}, {"time": 1056, "annotation": {"number": 64, "value": 0}, "group": "control_change"}, {"time": 1058, "annotation": {"number": 64, "value": 127}, "group": "control_change"}, {"time": 1079, "annotation": {"number": 64, "value": 0}, "group": "control_change"}, {"time": 1082, "annotation": {"number": 64, "value": 127}, "group": "control_change"}, {"time": 1103, "annotation": {"number": 64, "value": 0}, "group": "control_change"}, {"time": 1106, "annotation": {"number": 64, "value": 127}, "group": "control_change"}, {"time": 1127, "annotation": {"number": 64, "value": 0}, "group": "control_change"}, {"time": 1131, "annotation": {"number": 64, "value": 127}, "group": "control_change"}, {"time": 1147, "annotation": {"number": 64, "value": 0}, "group": "control_change"}, {"time": 1154, "annotation": {"number": 64, "value": 127}, "group": "control_change"}, {"time": 1175, "annotation": {"number": 64, "value": 0}, "group": "control_change"}, {"time": 1178, "annotation": {"number": 64, "value": 127}, "group": "control_change"}, {"time": 1197, "annotation": {"number": 64, "value": 0}, "group": "control_change"}, {"time": 1202, "annotation": {"number": 64, "value": 127}, "group": "control_change"}, {"time": 1223, "annotation": {"number": 64, "value": 0}, "group": "control_change"}, {"time": 1226, "annotation": {"number": 64, "value": 127}, "group": "control_change"}, {"time": 1247, "annotation": {"number": 64, "value": 0}, "group": "control_change"}, {"time": 1250, "annotation": {"number": 64, "value": 127}, "group": "control_change"}, {"time": 1272, "annotation": {"number": 64, "value": 0}, "group": "control_change"}, {"time": 1274, "annotation": {"number": 64, "value": 127}, "group": "control_change"}, {"time": 1296, "annotation": {"number": 64, "value": 0}, "group": "control_change"}, {"time": 1298, "annotation": {"number": 64, "value": 127}, "group": "control_change"}, {"time": 1319, "annotation": {"number": 64, "value": 0}, "group": "control_change"}, {"time": 1346, "annotation": {"number": 64, "value": 127}, "group": "control_change"}, {"time": 1367, "annotation": {"number": 64, "value": 0}, "group": "control_change"}, {"time": 1370, "annotation": {"number": 64, "value": 127}, "group": "control_change"}, {"time": 1393, "annotation": {"number": 64, "value": 0}, "group": "control_change"}, {"time": 1399, "annotation": {"number": 64, "value": 127}, "group": "control_change"}, {"time": 1414, "annotation": {"number": 64, "value": 0}, "group": "control_change"}, {"time": 1419, "annotation": {"number": 64, "value": 127}, "group": "control_change"}, {"time": 1438, "annotation": {"number": 64, "value": 0}, "group": "control_change"}, {"time": 1441, "annotation": {"number": 64, "value": 127}, "group": "control_change"}, {"time": 1464, "annotation": {"number": 64, "value": 0}, "group": "control_change"}, {"time": 1466, "annotation": {"number": 64, "value": 127}, "group": "control_change"}, {"time": 1486, "annotation": {"number": 64, "value": 0}, "group": "control_change"}, {"time": 1490, "annotation": {"number": 64, "value": 127}, "group": "control_change"}, {"time": 1501, "annotation": {"number": 64, "value": 0}, "group": "control_change"}, {"time": 1503, "annotation": {"number": 64, "value": 127}, "group": "control_change"}, {"time": 1512, "annotation": {"number": 64, "value": 0}, "group": "control_change"}, {"time": 1514, "annotation": {"number": 64, "value": 127}, "group": "control_change"}, {"time": 1536, "annotation": {"number": 64, "value": 0}, "group": "control_change"}, {"time": 1538, "annotation": {"number": 64, "value": 127}, "group": "control_change"}, {"time": 1547, "annotation": {"number": 64, "value": 0}, "group": "control_change"}, {"time": 1549, "annotation": {"number": 64, "value": 127}, "group": "control_change"}, {"time": 1552, "annotation": {"number": 64, "value": 0}, "group": "control_change"}, {"time": 1555, "annotation": {"number": 64, "value": 127}, "group": "control_change"}, {"time": 1559, "annotation": {"number": 64, "value": 0}, "group": "control_change"}, {"time": 1562, "annotation": {"number": 64, "value": 127}, "group": "control_change"}, {"time": 1579, "annotation": {"number": 64, "value": 0}, "group": "control_change"}, {"time": 1586, "annotation": {"number": 64, "value": 127}, "group": "control_change"}, {"time": 1596, "annotation": {"number": 64, "value": 0}, "group": "control_change"}, {"time": 1598, "annotation": {"number": 64, "value": 127}, "group": "control_change"}, {"time": 1603, "annotation": {"number": 64, "value": 0}, "group": "control_change"}, {"time": 1610, "annotation": {"number": 64, "value": 127}, "group": "control_change"}, {"time": 1620, "annotation": {"number": 64, "value": 0}, "group": "control_change"}, {"time": 1623, "annotation": {"number": 64, "value": 127}, "group": "control_change"}, {"time": 1625, "annotation": {"number": 64, "value": 0}, "group": "control_change"}, {"time": 1628, "annotation": {"number": 64, "value": 127}, "group": "control_change"}, {"time": 1631, "annotation": {"number": 64, "value": 0}, "group": "control_change"}, {"time": 1634, "annotation": {"number": 64, "value": 127}, "group": "control_change"}, {"time": 1649, "annotation": {"number": 64, "value": 0}, "group": "control_change"}, {"time": 1652, "annotation": {"number": 64, "value": 127}, "group": "control_change"}, {"time": 1656, "annotation": {"number": 64, "value": 0}, "group": "control_change"}, {"time": 1658, "annotation": {"number": 64, "value": 127}, "group": "control_change"}, {"time": 1659, "annotation": {"number": 64, "value": 0}, "group": "control_change"}, {"time": 1663, "annotation": {"number": 64, "value": 127}, "group": "control_change"}, {"time": 1678, "annotation": {"number": 64, "value": 0}, "group": "control_change"}, {"time": 1682, "annotation": {"number": 64, "value": 127}, "group": "control_change"}, {"time": 1698, "annotation": {"number": 64, "value": 0}, "group": "control_change"}, {"time": 1699, "annotation": {"number": 64, "value": 127}, "group": "control_change"}, {"time": 1704, "annotation": {"number": 64, "value": 0}, "group": "control_change"}, {"time": 1706, "annotation": {"number": 64, "value": 127}, "group": "control_change"}, {"time": 1710, "annotation": {"number": 64, "value": 0}, "group": "control_change"}, {"time": 1712, "annotation": {"number": 64, "value": 127}, "group": "control_change"}, {"time": 1727, "annotation": {"number": 64, "value": 0}, "group": "control_change"}, {"time": 1730, "annotation": {"number": 64, "value": 127}, "group": "control_change"}, {"time": 1741, "annotation": {"number": 64, "value": 0}, "group": "control_change"}, {"time": 1742, "annotation": {"number": 64, "value": 127}, "group": "control_change"}, {"time": 1752, "annotation": {"number": 64, "value": 0}, "group": "control_change"}, {"time": 1754, "annotation": {"number": 64, "value": 127}, "group": "control_change"}, {"time": 1774, "annotation": {"number": 64, "value": 0}, "group": "control_change"}, {"time": 1777, "annotation": {"number": 64, "value": 127}, "group": "control_change"}, {"time": 1799, "annotation": {"number": 64, "value": 0}, "group": "control_change"}, {"time": 1803, "annotation": {"number": 64, "value": 127}, "group": "control_change"}, {"time": 1822, "annotation": {"number": 64, "value": 0}, "group": "control_change"}, {"time": 1825, "annotation": {"number": 64, "value": 127}, "group": "control_change"}, {"time": 1848, "annotation": {"number": 64, "value": 0}, "group": "control_change"}, {"time": 1850, "annotation": {"number": 64, "value": 127}, "group": "control_change"}, {"time": 1870, "annotation": {"number": 64, "value": 0}, "group": "control_change"}, {"time": 1874, "annotation": {"number": 64, "value": 127}, "group": "control_change"}, {"time": 1885, "annotation": {"number": 64, "value": 0}, "group": "control_change"}, {"time": 1887, "annotation": {"number": 64, "value": 127}, "group": "control_change"}, {"time": 1896, "annotation": {"number": 64, "value": 0}, "group": "control_change"}, {"time": 1898, "annotation": {"number": 64, "value": 127}, "group": "control_change"}, {"time": 1920, "annotation": {"number": 64, "value": 0}, "group": "control_change"}, {"time": 1922, "annotation": {"number": 64, "value": 127}, "group": "control_change"}, {"time": 1931, "annotation": {"number": 64, "value": 0}, "group": "control_change"}, {"time": 1933, "annotation": {"number": 64, "value": 127}, "group": "control_change"}, {"time": 1936, "annotation": {"number": 64, "value": 0}, "group": "control_change"}, {"time": 1939, "annotation": {"number": 64, "value": 127}, "group": "control_change"}, {"time": 1943, "annotation": {"number": 64, "value": 0}, "group": "control_change"}, {"time": 1946, "annotation": {"number": 64, "value": 127}, "group": "control_change"}, {"time": 1963, "annotation": {"number": 64, "value": 0}, "group": "control_change"}, {"time": 1970, "annotation": {"number": 64, "value": 127}, "group": "control_change"}, {"time": 1980, "annotation": {"number": 64, "value": 0}, "group": "control_change"}, {"time": 1982, "annotation": {"number": 64, "value": 127}, "group": "control_change"}, {"time": 1987, "annotation": {"number": 64, "value": 0}, "group": "control_change"}, {"time": 1994, "annotation": {"number": 64, "value": 127}, "group": "control_change"}, {"time": 2004, "annotation": {"number": 64, "value": 0}, "group": "control_change"}, {"time": 2007, "annotation": {"number": 64, "value": 127}, "group": "control_change"}, {"time": 2009, "annotation": {"number": 64, "value": 0}, "group": "control_change"}, {"time": 2012, "annotation": {"number": 64, "value": 127}, "group": "control_change"}, {"time": 2015, "annotation": {"number": 64, "value": 0}, "group": "control_change"}, {"time": 2018, "annotation": {"number": 64, "value": 127}, "group": "control_change"}, {"time": 2033, "annotation": {"number": 64, "value": 0}, "group": "control_change"}, {"time": 2036, "annotation": {"number": 64, "value": 127}, "group": "control_change"}, {"time": 2040, "annotation": {"number": 64, "value": 0}, "group": "control_change"}, {"time": 2042, "annotation": {"number": 64, "value": 127}, "group": "control_change"}, {"time": 2043, "annotation": {"number": 64, "value": 0}, "group": "control_change"}, {"time": 2047, "annotation": {"number": 64, "value": 127}, "group": "control_change"}, {"time": 2062, "annotation": {"number": 64, "value": 0}, "group": "control_change"}, {"time": 2066, "annotation": {"number": 64, "value": 127}, "group": "control_change"}, {"time": 2082, "annotation": {"number": 64, "value": 0}, "group": "control_change"}, {"time": 2083, "annotation": {"number": 64, "value": 127}, "group": "control_change"}, {"time": 2088, "annotation": {"number": 64, "value": 0}, "group": "control_change"}, {"time": 2090, "annotation": {"number": 64, "value": 127}, "group": "control_change"}, {"time": 2094, "annotation": {"number": 64, "value": 0}, "group": "control_change"}, {"time": 2096, "annotation": {"number": 64, "value": 127}, "group": "control_change"}, {"time": 2111, "annotation": {"number": 64, "value": 0}, "group": "control_change"}, {"time": 2114, "annotation": {"number": 64, "value": 127}, "group": "control_change"}, {"time": 2125, "annotation": {"number": 64, "value": 0}, "group": "control_change"}, {"time": 2126, "annotation": {"number": 64, "value": 127}, "group": "control_change"}, {"time": 2136, "annotation": {"number": 64, "value": 0}, "group": "control_change"}, {"time": 2138, "annotation": {"number": 64, "value": 127}, "group": "control_change"}, {"time": 2158, "annotation": {"number": 64, "value": 0}, "group": "control_change"}, {"time": 2161, "annotation": {"number": 64, "value": 127}, "group": "control_change"}, {"time": 2183, "annotation": {"number": 64, "value": 0}, "group": "control_change"}, {"time": 2186, "annotation": {"number": 64, "value": 127}, "group": "control_change"}, {"time": 2207, "annotation": {"number": 64, "value": 0}, "group": "control_change"}, {"time": 2210, "annotation": {"number": 64, "value": 127}, "group": "control_change"}, {"time": 2220, "annotation": {"number": 64, "value": 0}, "group": "control_change"}, {"time": 2222, "annotation": {"number": 64, "value": 127}, "group": "control_change"}, {"time": 2232, "annotation": {"number": 64, "value": 0}, "group": "control_change"}, {"time": 2234, "annotation": {"number": 64, "value": 127}, "group": "control_change"}, {"time": 2256, "annotation": {"number": 64, "value": 0}, "group": "control_change"}, {"time": 2258, "annotation": {"number": 64, "value": 127}, "group": "control_change"}, {"time": 2259, "annotation": {"number": 64, "value": 0}, "group": "control_change"}, {"time": 2261, "annotation": {"number": 64, "value": 127}, "group": "control_change"}, {"time": 2279, "annotation": {"number": 64, "value": 0}, "group": "control_change"}, {"time": 2282, "annotation": {"number": 64, "value": 127}, "group": "control_change"}, {"time": 2304, "annotation": {"number": 64, "value": 0}, "group": "control_change"}, {"time": 2306, "annotation": {"number": 64, "value": 127}, "group": "control_change"}, {"time": 2328, "annotation": {"number": 64, "value": 0}, "group": "control_change"}, {"time": 2330, "annotation": {"number": 64, "value": 127}, "group": "control_change"}, {"time": 2351, "annotation": {"number": 64, "value": 0}, "group": "control_change"}, {"time": 2354, "annotation": {"number": 64, "value": 127}, "group": "control_change"}, {"time": 2375, "annotation": {"number": 64, "value": 0}, "group": "control_change"}, {"time": 2379, "annotation": {"number": 64, "value": 127}, "group": "control_change"}, {"time": 2426, "annotation": {"number": 64, "value": 0}, "group": "control_change"}, {"time": 2428, "annotation": {"number": 64, "value": 127}, "group": "control_change"}, {"time": 2432, "annotation": {"number": 64, "value": 0}, "group": "control_change"}, {"time": 2434, "annotation": {"number": 64, "value": 127}, "group": "control_change"}, {"time": 2436, "annotation": {"number": 64, "value": 0}, "group": "control_change"}]}]}