{"metadata": {"schema_version": "0.2", "title": "None", "source_filename": "359.mid", "source_format": "midi"}, "resolution": 12, "tempos": [{"time": 0, "qpm": 67.00010385016097}], "time_signatures": [{"time": 0, "numerator": 1, "denominator": 4}], "tracks": [{"program": 0, "is_drum": false, "name": "MELODY", "notes": [{"time": 202, "pitch": 72, "duration": 3, "velocity": 127}, {"time": 205, "pitch": 74, "duration": 2, "velocity": 96}, {"time": 208, "pitch": 74, "duration": 3, "velocity": 127}, {"time": 211, "pitch": 76, "duration": 2, "velocity": 95}, {"time": 214, "pitch": 76, "duration": 10, "velocity": 127}, {"time": 226, "pitch": 76, "duration": 2, "velocity": 127}, {"time": 229, "pitch": 76, "duration": 4, "velocity": 127}, {"time": 235, "pitch": 74, "duration": 4, "velocity": 127}, {"time": 241, "pitch": 74, "duration": 5, "velocity": 127}, {"time": 247, "pitch": 72, "duration": 12, "velocity": 127}, {"time": 274, "pitch": 72, "duration": 2, "velocity": 122}, {"time": 277, "pitch": 72, "duration": 6, "velocity": 112}, {"time": 283, "pitch": 71, "duration": 5, "velocity": 100}, {"time": 289, "pitch": 71, "duration": 7, "velocity": 100}, {"time": 295, "pitch": 69, "duration": 11, "velocity": 95}, {"time": 307, "pitch": 76, "duration": 5, "velocity": 100}, {"time": 313, "pitch": 67, "duration": 16, "velocity": 85}, {"time": 331, "pitch": 65, "duration": 3, "velocity": 97}, {"time": 334, "pitch": 64, "duration": 4, "velocity": 69}, {"time": 337, "pitch": 65, "duration": 8, "velocity": 112}, {"time": 343, "pitch": 76, "duration": 5, "velocity": 117}, {"time": 349, "pitch": 76, "duration": 4, "velocity": 112}, {"time": 355, "pitch": 77, "duration": 3, "velocity": 127}, {"time": 358, "pitch": 76, "duration": 2, "velocity": 112}, {"time": 361, "pitch": 76, "duration": 6, "velocity": 112}, {"time": 367, "pitch": 74, "duration": 12, "velocity": 122}, {"time": 394, "pitch": 72, "duration": 3, "velocity": 117}, {"time": 397, "pitch": 74, "duration": 2, "velocity": 112}, {"time": 400, "pitch": 74, "duration": 3, "velocity": 112}, {"time": 403, "pitch": 76, "duration": 2, "velocity": 99}, {"time": 406, "pitch": 76, "duration": 7, "velocity": 127}, {"time": 418, "pitch": 76, "duration": 2, "velocity": 122}, {"time": 421, "pitch": 76, "duration": 6, "velocity": 117}, {"time": 427, "pitch": 74, "duration": 4, "velocity": 102}, {"time": 433, "pitch": 74, "duration": 7, "velocity": 112}, {"time": 439, "pitch": 72, "duration": 12, "velocity": 107}, {"time": 466, "pitch": 72, "duration": 2, "velocity": 127}, {"time": 469, "pitch": 72, "duration": 6, "velocity": 127}, {"time": 475, "pitch": 71, "duration": 4, "velocity": 99}, {"time": 481, "pitch": 71, "duration": 5, "velocity": 112}, {"time": 487, "pitch": 69, "duration": 9, "velocity": 117}, {"time": 499, "pitch": 76, "duration": 5, "velocity": 112}, {"time": 505, "pitch": 67, "duration": 12, "velocity": 107}, {"time": 523, "pitch": 65, "duration": 3, "velocity": 127}, {"time": 526, "pitch": 64, "duration": 4, "velocity": 81}, {"time": 529, "pitch": 65, "duration": 5, "velocity": 100}, {"time": 535, "pitch": 69, "duration": 5, "velocity": 99}, {"time": 541, "pitch": 72, "duration": 5, "velocity": 112}, {"time": 547, "pitch": 69, "duration": 4, "velocity": 107}, {"time": 553, "pitch": 74, "duration": 5, "velocity": 127}, {"time": 559, "pitch": 74, "duration": 4, "velocity": 122}, {"time": 562, "pitch": 72, "duration": 4, "velocity": 107}, {"time": 565, "pitch": 74, "duration": 4, "velocity": 112}, {"time": 571, "pitch": 74, "duration": 3, "velocity": 127}, {"time": 574, "pitch": 72, "duration": 2, "velocity": 112}, {"time": 577, "pitch": 72, "duration": 16, "velocity": 122}, {"time": 628, "pitch": 79, "duration": 5, "velocity": 127}, {"time": 634, "pitch": 72, "duration": 3, "velocity": 127}, {"time": 637, "pitch": 71, "duration": 3, "velocity": 97}, {"time": 640, "pitch": 72, "duration": 6, "velocity": 127}, {"time": 646, "pitch": 79, "duration": 4, "velocity": 127}, {"time": 652, "pitch": 79, "duration": 5, "velocity": 127}, {"time": 658, "pitch": 71, "duration": 4, "velocity": 102}, {"time": 664, "pitch": 71, "duration": 9, "velocity": 112}, {"time": 676, "pitch": 79, "duration": 4, "velocity": 127}, {"time": 682, "pitch": 72, "duration": 4, "velocity": 127}, {"time": 685, "pitch": 71, "duration": 3, "velocity": 97}, {"time": 688, "pitch": 72, "duration": 5, "velocity": 117}, {"time": 694, "pitch": 79, "duration": 5, "velocity": 127}, {"time": 700, "pitch": 79, "duration": 5, "velocity": 127}, {"time": 706, "pitch": 71, "duration": 2, "velocity": 112}, {"time": 712, "pitch": 71, "duration": 7, "velocity": 127}, {"time": 718, "pitch": 72, "duration": 2, "velocity": 127}, {"time": 724, "pitch": 67, "duration": 4, "velocity": 112}, {"time": 730, "pitch": 72, "duration": 3, "velocity": 127}, {"time": 733, "pitch": 71, "duration": 2, "velocity": 100}, {"time": 736, "pitch": 72, "duration": 4, "velocity": 127}, {"time": 742, "pitch": 76, "duration": 6, "velocity": 122}, {"time": 751, "pitch": 67, "duration": 2, "velocity": 102}, {"time": 754, "pitch": 72, "duration": 3, "velocity": 102}, {"time": 757, "pitch": 71, "duration": 2, "velocity": 107}, {"time": 760, "pitch": 72, "duration": 2, "velocity": 127}, {"time": 763, "pitch": 74, "duration": 2, "velocity": 112}, {"time": 766, "pitch": 76, "duration": 5, "velocity": 117}, {"time": 772, "pitch": 76, "duration": 4, "velocity": 122}, {"time": 778, "pitch": 72, "duration": 4, "velocity": 107}, {"time": 784, "pitch": 76, "duration": 5, "velocity": 127}, {"time": 790, "pitch": 72, "duration": 4, "velocity": 117}, {"time": 799, "pitch": 72, "duration": 2, "velocity": 117}, {"time": 802, "pitch": 72, "duration": 3, "velocity": 122}, {"time": 805, "pitch": 71, "duration": 2, "velocity": 97}, {"time": 808, "pitch": 72, "duration": 3, "velocity": 122}, {"time": 811, "pitch": 74, "duration": 2, "velocity": 107}, {"time": 814, "pitch": 74, "duration": 4, "velocity": 127}, {"time": 820, "pitch": 79, "duration": 5, "velocity": 127}, {"time": 826, "pitch": 72, "duration": 3, "velocity": 127}, {"time": 829, "pitch": 71, "duration": 3, "velocity": 97}, {"time": 832, "pitch": 72, "duration": 6, "velocity": 127}, {"time": 838, "pitch": 79, "duration": 4, "velocity": 127}, {"time": 844, "pitch": 79, "duration": 5, "velocity": 127}, {"time": 850, "pitch": 71, "duration": 4, "velocity": 102}, {"time": 856, "pitch": 71, "duration": 9, "velocity": 112}, {"time": 868, "pitch": 79, "duration": 4, "velocity": 127}, {"time": 874, "pitch": 72, "duration": 4, "velocity": 127}, {"time": 877, "pitch": 71, "duration": 3, "velocity": 97}, {"time": 880, "pitch": 72, "duration": 5, "velocity": 117}, {"time": 886, "pitch": 79, "duration": 5, "velocity": 127}, {"time": 892, "pitch": 79, "duration": 5, "velocity": 127}, {"time": 898, "pitch": 77, "duration": 6, "velocity": 122}, {"time": 904, "pitch": 76, "duration": 6, "velocity": 112}, {"time": 910, "pitch": 72, "duration": 3, "velocity": 112}, {"time": 916, "pitch": 67, "duration": 4, "velocity": 112}, {"time": 922, "pitch": 72, "duration": 3, "velocity": 127}, {"time": 925, "pitch": 71, "duration": 2, "velocity": 100}, {"time": 928, "pitch": 72, "duration": 4, "velocity": 127}, {"time": 934, "pitch": 76, "duration": 6, "velocity": 122}, {"time": 943, "pitch": 67, "duration": 2, "velocity": 102}, {"time": 946, "pitch": 72, "duration": 3, "velocity": 102}, {"time": 949, "pitch": 71, "duration": 2, "velocity": 107}, {"time": 952, "pitch": 72, "duration": 2, "velocity": 127}, {"time": 955, "pitch": 74, "duration": 2, "velocity": 112}, {"time": 958, "pitch": 76, "duration": 5, "velocity": 117}, {"time": 964, "pitch": 77, "duration": 6, "velocity": 127}, {"time": 970, "pitch": 76, "duration": 4, "velocity": 107}, {"time": 976, "pitch": 74, "duration": 6, "velocity": 127}, {"time": 982, "pitch": 72, "duration": 5, "velocity": 122}, {"time": 994, "pitch": 76, "duration": 5, "velocity": 127}, {"time": 1000, "pitch": 74, "duration": 7, "velocity": 127}, {"time": 1009, "pitch": 72, "duration": 2, "velocity": 117}, {"time": 1012, "pitch": 72, "duration": 31, "velocity": 117}, {"time": 1114, "pitch": 72, "duration": 3, "velocity": 127}, {"time": 1117, "pitch": 74, "duration": 2, "velocity": 96}, {"time": 1120, "pitch": 74, "duration": 3, "velocity": 127}, {"time": 1123, "pitch": 76, "duration": 2, "velocity": 95}, {"time": 1126, "pitch": 76, "duration": 10, "velocity": 127}, {"time": 1138, "pitch": 76, "duration": 2, "velocity": 127}, {"time": 1141, "pitch": 76, "duration": 4, "velocity": 127}, {"time": 1147, "pitch": 74, "duration": 4, "velocity": 127}, {"time": 1153, "pitch": 74, "duration": 5, "velocity": 127}, {"time": 1159, "pitch": 72, "duration": 12, "velocity": 127}, {"time": 1186, "pitch": 72, "duration": 2, "velocity": 122}, {"time": 1189, "pitch": 72, "duration": 6, "velocity": 112}, {"time": 1195, "pitch": 71, "duration": 5, "velocity": 100}, {"time": 1201, "pitch": 71, "duration": 7, "velocity": 100}, {"time": 1207, "pitch": 69, "duration": 11, "velocity": 95}, {"time": 1219, "pitch": 76, "duration": 5, "velocity": 100}, {"time": 1225, "pitch": 67, "duration": 16, "velocity": 85}, {"time": 1243, "pitch": 65, "duration": 3, "velocity": 97}, {"time": 1246, "pitch": 64, "duration": 4, "velocity": 69}, {"time": 1249, "pitch": 65, "duration": 8, "velocity": 112}, {"time": 1255, "pitch": 76, "duration": 5, "velocity": 117}, {"time": 1261, "pitch": 76, "duration": 4, "velocity": 112}, {"time": 1267, "pitch": 77, "duration": 3, "velocity": 127}, {"time": 1270, "pitch": 76, "duration": 2, "velocity": 112}, {"time": 1273, "pitch": 76, "duration": 6, "velocity": 112}, {"time": 1279, "pitch": 74, "duration": 12, "velocity": 122}, {"time": 1306, "pitch": 72, "duration": 3, "velocity": 117}, {"time": 1309, "pitch": 74, "duration": 2, "velocity": 112}, {"time": 1312, "pitch": 74, "duration": 3, "velocity": 112}, {"time": 1315, "pitch": 76, "duration": 2, "velocity": 99}, {"time": 1318, "pitch": 76, "duration": 7, "velocity": 127}, {"time": 1330, "pitch": 76, "duration": 2, "velocity": 122}, {"time": 1333, "pitch": 76, "duration": 6, "velocity": 117}, {"time": 1339, "pitch": 74, "duration": 4, "velocity": 102}, {"time": 1345, "pitch": 74, "duration": 7, "velocity": 112}, {"time": 1351, "pitch": 72, "duration": 12, "velocity": 107}, {"time": 1378, "pitch": 72, "duration": 2, "velocity": 127}, {"time": 1381, "pitch": 72, "duration": 6, "velocity": 127}, {"time": 1387, "pitch": 71, "duration": 4, "velocity": 99}, {"time": 1393, "pitch": 71, "duration": 5, "velocity": 112}, {"time": 1399, "pitch": 69, "duration": 9, "velocity": 117}, {"time": 1411, "pitch": 76, "duration": 5, "velocity": 112}, {"time": 1417, "pitch": 67, "duration": 12, "velocity": 107}, {"time": 1435, "pitch": 65, "duration": 3, "velocity": 127}, {"time": 1438, "pitch": 64, "duration": 4, "velocity": 81}, {"time": 1441, "pitch": 65, "duration": 5, "velocity": 100}, {"time": 1447, "pitch": 69, "duration": 5, "velocity": 99}, {"time": 1453, "pitch": 72, "duration": 5, "velocity": 112}, {"time": 1459, "pitch": 69, "duration": 4, "velocity": 107}, {"time": 1465, "pitch": 74, "duration": 5, "velocity": 127}, {"time": 1471, "pitch": 74, "duration": 4, "velocity": 122}, {"time": 1474, "pitch": 72, "duration": 4, "velocity": 107}, {"time": 1477, "pitch": 74, "duration": 4, "velocity": 112}, {"time": 1483, "pitch": 74, "duration": 3, "velocity": 127}, {"time": 1486, "pitch": 72, "duration": 2, "velocity": 112}, {"time": 1489, "pitch": 72, "duration": 16, "velocity": 122}, {"time": 1540, "pitch": 79, "duration": 5, "velocity": 127}, {"time": 1546, "pitch": 72, "duration": 3, "velocity": 127}, {"time": 1549, "pitch": 71, "duration": 3, "velocity": 97}, {"time": 1552, "pitch": 72, "duration": 6, "velocity": 127}, {"time": 1558, "pitch": 79, "duration": 4, "velocity": 127}, {"time": 1564, "pitch": 79, "duration": 5, "velocity": 127}, {"time": 1570, "pitch": 71, "duration": 4, "velocity": 102}, {"time": 1576, "pitch": 71, "duration": 9, "velocity": 112}, {"time": 1588, "pitch": 79, "duration": 4, "velocity": 127}, {"time": 1594, "pitch": 72, "duration": 4, "velocity": 127}, {"time": 1597, "pitch": 71, "duration": 3, "velocity": 97}, {"time": 1600, "pitch": 72, "duration": 5, "velocity": 117}, {"time": 1606, "pitch": 79, "duration": 5, "velocity": 127}, {"time": 1612, "pitch": 79, "duration": 5, "velocity": 127}, {"time": 1618, "pitch": 71, "duration": 2, "velocity": 112}, {"time": 1624, "pitch": 71, "duration": 7, "velocity": 127}, {"time": 1630, "pitch": 72, "duration": 2, "velocity": 127}, {"time": 1636, "pitch": 67, "duration": 4, "velocity": 112}, {"time": 1642, "pitch": 72, "duration": 3, "velocity": 127}, {"time": 1645, "pitch": 71, "duration": 2, "velocity": 100}, {"time": 1648, "pitch": 72, "duration": 4, "velocity": 127}, {"time": 1654, "pitch": 76, "duration": 6, "velocity": 122}, {"time": 1663, "pitch": 67, "duration": 2, "velocity": 102}, {"time": 1666, "pitch": 72, "duration": 3, "velocity": 102}, {"time": 1669, "pitch": 71, "duration": 2, "velocity": 107}, {"time": 1672, "pitch": 72, "duration": 2, "velocity": 127}, {"time": 1675, "pitch": 74, "duration": 2, "velocity": 112}, {"time": 1678, "pitch": 76, "duration": 5, "velocity": 117}, {"time": 1684, "pitch": 76, "duration": 4, "velocity": 122}, {"time": 1690, "pitch": 72, "duration": 4, "velocity": 107}, {"time": 1696, "pitch": 76, "duration": 5, "velocity": 127}, {"time": 1702, "pitch": 72, "duration": 4, "velocity": 117}, {"time": 1711, "pitch": 72, "duration": 2, "velocity": 117}, {"time": 1714, "pitch": 72, "duration": 3, "velocity": 122}, {"time": 1717, "pitch": 71, "duration": 2, "velocity": 97}, {"time": 1720, "pitch": 72, "duration": 3, "velocity": 122}, {"time": 1723, "pitch": 74, "duration": 2, "velocity": 107}, {"time": 1726, "pitch": 74, "duration": 4, "velocity": 127}, {"time": 1732, "pitch": 79, "duration": 5, "velocity": 127}, {"time": 1738, "pitch": 72, "duration": 3, "velocity": 127}, {"time": 1741, "pitch": 71, "duration": 3, "velocity": 97}, {"time": 1744, "pitch": 72, "duration": 6, "velocity": 127}, {"time": 1750, "pitch": 79, "duration": 4, "velocity": 127}, {"time": 1756, "pitch": 79, "duration": 5, "velocity": 127}, {"time": 1762, "pitch": 71, "duration": 4, "velocity": 102}, {"time": 1768, "pitch": 71, "duration": 9, "velocity": 112}, {"time": 1780, "pitch": 79, "duration": 4, "velocity": 127}, {"time": 1786, "pitch": 72, "duration": 4, "velocity": 127}, {"time": 1789, "pitch": 71, "duration": 3, "velocity": 97}, {"time": 1792, "pitch": 72, "duration": 5, "velocity": 117}, {"time": 1798, "pitch": 79, "duration": 5, "velocity": 127}, {"time": 1804, "pitch": 79, "duration": 5, "velocity": 127}, {"time": 1810, "pitch": 77, "duration": 6, "velocity": 122}, {"time": 1816, "pitch": 76, "duration": 6, "velocity": 112}, {"time": 1822, "pitch": 72, "duration": 3, "velocity": 112}, {"time": 1828, "pitch": 67, "duration": 4, "velocity": 112}, {"time": 1834, "pitch": 72, "duration": 3, "velocity": 127}, {"time": 1837, "pitch": 71, "duration": 2, "velocity": 100}, {"time": 1840, "pitch": 72, "duration": 4, "velocity": 127}, {"time": 1846, "pitch": 76, "duration": 6, "velocity": 122}, {"time": 1855, "pitch": 67, "duration": 2, "velocity": 102}, {"time": 1858, "pitch": 72, "duration": 3, "velocity": 102}, {"time": 1861, "pitch": 71, "duration": 2, "velocity": 107}, {"time": 1864, "pitch": 72, "duration": 2, "velocity": 127}, {"time": 1867, "pitch": 74, "duration": 2, "velocity": 112}, {"time": 1870, "pitch": 76, "duration": 5, "velocity": 117}, {"time": 1876, "pitch": 77, "duration": 6, "velocity": 127}, {"time": 1882, "pitch": 76, "duration": 4, "velocity": 107}, {"time": 1888, "pitch": 74, "duration": 6, "velocity": 127}, {"time": 1894, "pitch": 72, "duration": 5, "velocity": 122}, {"time": 1906, "pitch": 76, "duration": 5, "velocity": 127}, {"time": 1912, "pitch": 74, "duration": 7, "velocity": 127}, {"time": 1921, "pitch": 72, "duration": 2, "velocity": 117}, {"time": 1924, "pitch": 72, "duration": 31, "velocity": 117}, {"time": 2005, "pitch": 76, "duration": 3, "velocity": 122}, {"time": 2008, "pitch": 74, "duration": 4, "velocity": 117}, {"time": 2011, "pitch": 72, "duration": 6, "velocity": 96}, {"time": 2017, "pitch": 69, "duration": 4, "velocity": 92}, {"time": 2020, "pitch": 72, "duration": 19, "velocity": 127}, {"time": 2122, "pitch": 74, "duration": 2, "velocity": 117}, {"time": 2125, "pitch": 74, "duration": 2, "velocity": 127}, {"time": 2128, "pitch": 74, "duration": 3, "velocity": 127}, {"time": 2131, "pitch": 74, "duration": 4, "velocity": 127}, {"time": 2134, "pitch": 76, "duration": 3, "velocity": 122}, {"time": 2137, "pitch": 77, "duration": 3, "velocity": 122}, {"time": 2140, "pitch": 77, "duration": 4, "velocity": 127}, {"time": 2146, "pitch": 76, "duration": 2, "velocity": 122}, {"time": 2149, "pitch": 74, "duration": 5, "velocity": 127}, {"time": 2155, "pitch": 72, "duration": 4, "velocity": 127}, {"time": 2170, "pitch": 72, "duration": 2, "velocity": 100}, {"time": 2173, "pitch": 72, "duration": 5, "velocity": 112}, {"time": 2179, "pitch": 79, "duration": 4, "velocity": 127}, {"time": 2185, "pitch": 79, "duration": 4, "velocity": 127}, {"time": 2191, "pitch": 77, "duration": 3, "velocity": 127}, {"time": 2194, "pitch": 77, "duration": 4, "velocity": 100}, {"time": 2200, "pitch": 77, "duration": 10, "velocity": 112}, {"time": 2212, "pitch": 77, "duration": 4, "velocity": 127}, {"time": 2218, "pitch": 74, "duration": 3, "velocity": 127}, {"time": 2221, "pitch": 72, "duration": 2, "velocity": 93}, {"time": 2224, "pitch": 74, "duration": 6, "velocity": 127}, {"time": 2230, "pitch": 77, "duration": 6, "velocity": 127}, {"time": 2236, "pitch": 77, "duration": 4, "velocity": 127}, {"time": 2242, "pitch": 74, "duration": 3, "velocity": 127}, {"time": 2245, "pitch": 72, "duration": 2, "velocity": 107}, {"time": 2248, "pitch": 74, "duration": 6, "velocity": 127}, {"time": 2254, "pitch": 77, "duration": 5, "velocity": 127}, {"time": 2266, "pitch": 76, "duration": 4, "velocity": 127}, {"time": 2272, "pitch": 76, "duration": 4, "velocity": 127}, {"time": 2278, "pitch": 77, "duration": 4, "velocity": 127}, {"time": 2284, "pitch": 76, "duration": 6, "velocity": 127}, {"time": 2290, "pitch": 76, "duration": 6, "velocity": 127}, {"time": 2296, "pitch": 78, "duration": 5, "velocity": 127}, {"time": 2302, "pitch": 79, "duration": 5, "velocity": 127}, {"time": 2308, "pitch": 81, "duration": 5, "velocity": 127}, {"time": 2314, "pitch": 74, "duration": 3, "velocity": 127}, {"time": 2317, "pitch": 73, "duration": 3, "velocity": 97}, {"time": 2320, "pitch": 74, "duration": 6, "velocity": 127}, {"time": 2326, "pitch": 81, "duration": 4, "velocity": 127}, {"time": 2332, "pitch": 81, "duration": 5, "velocity": 127}, {"time": 2338, "pitch": 73, "duration": 4, "velocity": 102}, {"time": 2344, "pitch": 73, "duration": 9, "velocity": 112}, {"time": 2356, "pitch": 81, "duration": 4, "velocity": 127}, {"time": 2362, "pitch": 74, "duration": 4, "velocity": 127}, {"time": 2365, "pitch": 73, "duration": 3, "velocity": 97}, {"time": 2368, "pitch": 74, "duration": 5, "velocity": 117}, {"time": 2374, "pitch": 81, "duration": 5, "velocity": 127}, {"time": 2380, "pitch": 81, "duration": 5, "velocity": 127}, {"time": 2386, "pitch": 73, "duration": 2, "velocity": 112}, {"time": 2392, "pitch": 73, "duration": 7, "velocity": 127}, {"time": 2398, "pitch": 74, "duration": 2, "velocity": 127}, {"time": 2404, "pitch": 69, "duration": 4, "velocity": 112}, {"time": 2410, "pitch": 74, "duration": 3, "velocity": 127}, {"time": 2413, "pitch": 73, "duration": 2, "velocity": 100}, {"time": 2416, "pitch": 74, "duration": 4, "velocity": 127}, {"time": 2422, "pitch": 78, "duration": 6, "velocity": 122}, {"time": 2431, "pitch": 69, "duration": 2, "velocity": 102}, {"time": 2434, "pitch": 74, "duration": 3, "velocity": 102}, {"time": 2437, "pitch": 73, "duration": 2, "velocity": 107}, {"time": 2440, "pitch": 74, "duration": 2, "velocity": 127}, {"time": 2443, "pitch": 76, "duration": 2, "velocity": 112}, {"time": 2446, "pitch": 78, "duration": 5, "velocity": 117}, {"time": 2452, "pitch": 78, "duration": 4, "velocity": 122}, {"time": 2458, "pitch": 74, "duration": 4, "velocity": 107}, {"time": 2464, "pitch": 78, "duration": 5, "velocity": 127}, {"time": 2470, "pitch": 74, "duration": 4, "velocity": 117}, {"time": 2479, "pitch": 74, "duration": 2, "velocity": 117}, {"time": 2482, "pitch": 74, "duration": 3, "velocity": 122}, {"time": 2485, "pitch": 73, "duration": 2, "velocity": 97}, {"time": 2488, "pitch": 74, "duration": 3, "velocity": 122}, {"time": 2491, "pitch": 76, "duration": 2, "velocity": 107}, {"time": 2494, "pitch": 76, "duration": 4, "velocity": 127}, {"time": 2500, "pitch": 81, "duration": 5, "velocity": 127}, {"time": 2506, "pitch": 74, "duration": 3, "velocity": 127}, {"time": 2509, "pitch": 73, "duration": 3, "velocity": 97}, {"time": 2512, "pitch": 74, "duration": 6, "velocity": 127}, {"time": 2518, "pitch": 81, "duration": 4, "velocity": 127}, {"time": 2524, "pitch": 81, "duration": 5, "velocity": 127}, {"time": 2530, "pitch": 73, "duration": 4, "velocity": 102}, {"time": 2536, "pitch": 73, "duration": 9, "velocity": 112}, {"time": 2548, "pitch": 81, "duration": 4, "velocity": 127}, {"time": 2554, "pitch": 74, "duration": 4, "velocity": 127}, {"time": 2557, "pitch": 73, "duration": 3, "velocity": 97}, {"time": 2560, "pitch": 74, "duration": 5, "velocity": 117}, {"time": 2566, "pitch": 81, "duration": 5, "velocity": 127}, {"time": 2572, "pitch": 81, "duration": 5, "velocity": 127}, {"time": 2578, "pitch": 79, "duration": 6, "velocity": 122}, {"time": 2584, "pitch": 78, "duration": 6, "velocity": 112}, {"time": 2590, "pitch": 74, "duration": 3, "velocity": 112}, {"time": 2596, "pitch": 69, "duration": 4, "velocity": 112}, {"time": 2602, "pitch": 74, "duration": 3, "velocity": 127}, {"time": 2605, "pitch": 73, "duration": 2, "velocity": 100}, {"time": 2608, "pitch": 74, "duration": 4, "velocity": 127}, {"time": 2614, "pitch": 78, "duration": 6, "velocity": 122}, {"time": 2623, "pitch": 69, "duration": 2, "velocity": 102}, {"time": 2626, "pitch": 74, "duration": 3, "velocity": 102}, {"time": 2629, "pitch": 73, "duration": 2, "velocity": 107}, {"time": 2632, "pitch": 74, "duration": 2, "velocity": 127}, {"time": 2635, "pitch": 76, "duration": 2, "velocity": 112}, {"time": 2638, "pitch": 78, "duration": 5, "velocity": 117}, {"time": 2644, "pitch": 79, "duration": 6, "velocity": 127}, {"time": 2650, "pitch": 78, "duration": 4, "velocity": 107}, {"time": 2656, "pitch": 76, "duration": 6, "velocity": 127}, {"time": 2662, "pitch": 74, "duration": 5, "velocity": 122}, {"time": 2674, "pitch": 78, "duration": 5, "velocity": 127}, {"time": 2680, "pitch": 76, "duration": 7, "velocity": 127}, {"time": 2689, "pitch": 74, "duration": 2, "velocity": 117}, {"time": 2692, "pitch": 74, "duration": 31, "velocity": 117}, {"time": 2788, "pitch": 69, "duration": 4, "velocity": 112}, {"time": 2794, "pitch": 74, "duration": 3, "velocity": 127}, {"time": 2797, "pitch": 73, "duration": 2, "velocity": 100}, {"time": 2800, "pitch": 74, "duration": 4, "velocity": 127}, {"time": 2806, "pitch": 78, "duration": 6, "velocity": 122}, {"time": 2815, "pitch": 69, "duration": 2, "velocity": 102}, {"time": 2818, "pitch": 74, "duration": 3, "velocity": 102}, {"time": 2821, "pitch": 73, "duration": 2, "velocity": 107}, {"time": 2824, "pitch": 74, "duration": 2, "velocity": 127}, {"time": 2827, "pitch": 76, "duration": 2, "velocity": 112}, {"time": 2830, "pitch": 78, "duration": 5, "velocity": 117}, {"time": 2836, "pitch": 78, "duration": 4, "velocity": 122}, {"time": 2842, "pitch": 74, "duration": 4, "velocity": 107}, {"time": 2848, "pitch": 78, "duration": 5, "velocity": 127}, {"time": 2854, "pitch": 74, "duration": 4, "velocity": 117}, {"time": 2863, "pitch": 74, "duration": 2, "velocity": 117}, {"time": 2866, "pitch": 74, "duration": 3, "velocity": 122}, {"time": 2869, "pitch": 73, "duration": 2, "velocity": 97}, {"time": 2872, "pitch": 74, "duration": 3, "velocity": 122}, {"time": 2875, "pitch": 76, "duration": 2, "velocity": 107}, {"time": 2878, "pitch": 76, "duration": 4, "velocity": 127}, {"time": 2884, "pitch": 81, "duration": 46, "velocity": 127}, {"time": 2932, "pitch": 81, "duration": 4, "velocity": 127}, {"time": 2938, "pitch": 74, "duration": 4, "velocity": 107}, {"time": 2941, "pitch": 73, "duration": 3, "velocity": 112}, {"time": 2944, "pitch": 74, "duration": 5, "velocity": 112}, {"time": 2950, "pitch": 83, "duration": 7, "velocity": 127}, {"time": 2956, "pitch": 81, "duration": 21, "velocity": 127}, {"time": 2980, "pitch": 69, "duration": 4, "velocity": 112}, {"time": 2986, "pitch": 74, "duration": 3, "velocity": 127}, {"time": 2989, "pitch": 73, "duration": 2, "velocity": 100}, {"time": 2992, "pitch": 74, "duration": 4, "velocity": 127}, {"time": 2998, "pitch": 78, "duration": 6, "velocity": 122}, {"time": 3007, "pitch": 69, "duration": 2, "velocity": 102}, {"time": 3010, "pitch": 74, "duration": 3, "velocity": 102}, {"time": 3013, "pitch": 73, "duration": 2, "velocity": 107}, {"time": 3016, "pitch": 74, "duration": 2, "velocity": 127}, {"time": 3019, "pitch": 76, "duration": 2, "velocity": 112}, {"time": 3022, "pitch": 78, "duration": 5, "velocity": 117}, {"time": 3028, "pitch": 79, "duration": 6, "velocity": 127}, {"time": 3034, "pitch": 78, "duration": 4, "velocity": 107}, {"time": 3040, "pitch": 76, "duration": 6, "velocity": 127}, {"time": 3046, "pitch": 74, "duration": 5, "velocity": 122}, {"time": 3058, "pitch": 78, "duration": 5, "velocity": 127}, {"time": 3064, "pitch": 76, "duration": 7, "velocity": 127}, {"time": 3073, "pitch": 74, "duration": 2, "velocity": 117}, {"time": 3076, "pitch": 74, "duration": 31, "velocity": 117}, {"time": 3211, "pitch": 78, "duration": 4, "velocity": 127}, {"time": 3214, "pitch": 76, "duration": 3, "velocity": 100}, {"time": 3217, "pitch": 74, "duration": 2, "velocity": 95}, {"time": 3220, "pitch": 74, "duration": 61, "velocity": 112}]}, {"program": 0, "is_drum": false, "name": "PIANO", "notes": [{"time": 4, "pitch": 48, "duration": 13, "velocity": 75}, {"time": 4, "pitch": 55, "duration": 12, "velocity": 56}, {"time": 4, "pitch": 64, "duration": 12, "velocity": 54}, {"time": 16, "pitch": 55, "duration": 13, "velocity": 69}, {"time": 16, "pitch": 64, "duration": 12, "velocity": 70}, {"time": 16, "pitch": 72, "duration": 13, "velocity": 55}, {"time": 28, "pitch": 50, "duration": 7, "velocity": 86}, {"time": 28, "pitch": 53, "duration": 25, "velocity": 89}, {"time": 28, "pitch": 60, "duration": 10, "velocity": 50}, {"time": 37, "pitch": 50, "duration": 14, "velocity": 87}, {"time": 40, "pitch": 60, "duration": 7, "velocity": 57}, {"time": 40, "pitch": 64, "duration": 5, "velocity": 60}, {"time": 43, "pitch": 65, "duration": 10, "velocity": 65}, {"time": 49, "pitch": 48, "duration": 4, "velocity": 67}, {"time": 52, "pitch": 40, "duration": 13, "velocity": 85}, {"time": 52, "pitch": 55, "duration": 13, "velocity": 59}, {"time": 64, "pitch": 60, "duration": 11, "velocity": 58}, {"time": 64, "pitch": 64, "duration": 14, "velocity": 52}, {"time": 76, "pitch": 41, "duration": 13, "velocity": 51}, {"time": 76, "pitch": 55, "duration": 6, "velocity": 56}, {"time": 76, "pitch": 57, "duration": 11, "velocity": 56}, {"time": 76, "pitch": 60, "duration": 9, "velocity": 56}, {"time": 82, "pitch": 55, "duration": 8, "velocity": 55}, {"time": 85, "pitch": 48, "duration": 15, "velocity": 64}, {"time": 88, "pitch": 53, "duration": 14, "velocity": 84}, {"time": 91, "pitch": 67, "duration": 10, "velocity": 31}, {"time": 97, "pitch": 41, "duration": 5, "velocity": 65}, {"time": 100, "pitch": 36, "duration": 25, "velocity": 52}, {"time": 100, "pitch": 48, "duration": 22, "velocity": 73}, {"time": 100, "pitch": 55, "duration": 12, "velocity": 64}, {"time": 100, "pitch": 64, "duration": 12, "velocity": 54}, {"time": 109, "pitch": 60, "duration": 15, "velocity": 36}, {"time": 112, "pitch": 55, "duration": 1, "velocity": 49}, {"time": 112, "pitch": 64, "duration": 10, "velocity": 43}, {"time": 121, "pitch": 45, "duration": 4, "velocity": 44}, {"time": 124, "pitch": 38, "duration": 10, "velocity": 65}, {"time": 124, "pitch": 50, "duration": 26, "velocity": 54}, {"time": 124, "pitch": 53, "duration": 11, "velocity": 66}, {"time": 124, "pitch": 57, "duration": 26, "velocity": 44}, {"time": 124, "pitch": 60, "duration": 10, "velocity": 50}, {"time": 124, "pitch": 64, "duration": 11, "velocity": 50}, {"time": 133, "pitch": 38, "duration": 1, "velocity": 41}, {"time": 133, "pitch": 62, "duration": 4, "velocity": 35}, {"time": 136, "pitch": 53, "duration": 3, "velocity": 103}, {"time": 136, "pitch": 60, "duration": 8, "velocity": 67}, {"time": 139, "pitch": 53, "duration": 29, "velocity": 87}, {"time": 145, "pitch": 48, "duration": 51, "velocity": 53}, {"time": 148, "pitch": 41, "duration": 44, "velocity": 56}, {"time": 148, "pitch": 64, "duration": 13, "velocity": 54}, {"time": 166, "pitch": 29, "duration": 30, "velocity": 48}, {"time": 166, "pitch": 53, "duration": 2, "velocity": 17}, {"time": 166, "pitch": 55, "duration": 7, "velocity": 27}, {"time": 166, "pitch": 60, "duration": 7, "velocity": 24}, {"time": 166, "pitch": 63, "duration": 30, "velocity": 20}, {"time": 169, "pitch": 57, "duration": 18, "velocity": 18}, {"time": 196, "pitch": 36, "duration": 20, "velocity": 95}, {"time": 202, "pitch": 43, "duration": 14, "velocity": 63}, {"time": 208, "pitch": 64, "duration": 13, "velocity": 95}, {"time": 214, "pitch": 60, "duration": 8, "velocity": 83}, {"time": 220, "pitch": 35, "duration": 17, "velocity": 86}, {"time": 226, "pitch": 55, "duration": 20, "velocity": 86}, {"time": 232, "pitch": 64, "duration": 13, "velocity": 99}, {"time": 238, "pitch": 59, "duration": 7, "velocity": 97}, {"time": 244, "pitch": 45, "duration": 36, "velocity": 97}, {"time": 250, "pitch": 52, "duration": 8, "velocity": 68}, {"time": 256, "pitch": 60, "duration": 24, "velocity": 112}, {"time": 262, "pitch": 52, "duration": 7, "velocity": 78}, {"time": 268, "pitch": 57, "duration": 15, "velocity": 102}, {"time": 274, "pitch": 52, "duration": 6, "velocity": 95}, {"time": 280, "pitch": 43, "duration": 12, "velocity": 95}, {"time": 286, "pitch": 55, "duration": 7, "velocity": 89}, {"time": 292, "pitch": 41, "duration": 18, "velocity": 85}, {"time": 298, "pitch": 48, "duration": 12, "velocity": 61}, {"time": 304, "pitch": 60, "duration": 13, "velocity": 100}, {"time": 310, "pitch": 57, "duration": 7, "velocity": 93}, {"time": 316, "pitch": 40, "duration": 17, "velocity": 85}, {"time": 322, "pitch": 47, "duration": 9, "velocity": 78}, {"time": 328, "pitch": 59, "duration": 13, "velocity": 102}, {"time": 334, "pitch": 55, "duration": 7, "velocity": 97}, {"time": 337, "pitch": 52, "duration": 4, "velocity": 73}, {"time": 340, "pitch": 38, "duration": 18, "velocity": 95}, {"time": 346, "pitch": 45, "duration": 13, "velocity": 67}, {"time": 352, "pitch": 57, "duration": 12, "velocity": 99}, {"time": 358, "pitch": 53, "duration": 6, "velocity": 93}, {"time": 364, "pitch": 43, "duration": 18, "velocity": 95}, {"time": 370, "pitch": 50, "duration": 11, "velocity": 58}, {"time": 376, "pitch": 59, "duration": 13, "velocity": 89}, {"time": 376, "pitch": 62, "duration": 13, "velocity": 93}, {"time": 388, "pitch": 36, "duration": 16, "velocity": 93}, {"time": 394, "pitch": 43, "duration": 11, "velocity": 82}, {"time": 400, "pitch": 64, "duration": 12, "velocity": 112}, {"time": 406, "pitch": 60, "duration": 7, "velocity": 107}, {"time": 412, "pitch": 35, "duration": 18, "velocity": 92}, {"time": 418, "pitch": 55, "duration": 8, "velocity": 96}, {"time": 424, "pitch": 59, "duration": 12, "velocity": 82}, {"time": 424, "pitch": 64, "duration": 12, "velocity": 117}, {"time": 430, "pitch": 55, "duration": 6, "velocity": 85}, {"time": 436, "pitch": 33, "duration": 30, "velocity": 100}, {"time": 442, "pitch": 40, "duration": 24, "velocity": 67}, {"time": 448, "pitch": 45, "duration": 10, "velocity": 72}, {"time": 448, "pitch": 57, "duration": 7, "velocity": 100}, {"time": 448, "pitch": 60, "duration": 17, "velocity": 100}, {"time": 454, "pitch": 52, "duration": 10, "velocity": 85}, {"time": 457, "pitch": 57, "duration": 3, "velocity": 41}, {"time": 460, "pitch": 45, "duration": 12, "velocity": 100}, {"time": 466, "pitch": 52, "duration": 5, "velocity": 89}, {"time": 469, "pitch": 57, "duration": 6, "velocity": 99}, {"time": 469, "pitch": 60, "duration": 5, "velocity": 107}, {"time": 472, "pitch": 43, "duration": 8, "velocity": 127}, {"time": 478, "pitch": 55, "duration": 7, "velocity": 93}, {"time": 478, "pitch": 59, "duration": 8, "velocity": 86}, {"time": 484, "pitch": 41, "duration": 17, "velocity": 85}, {"time": 490, "pitch": 48, "duration": 11, "velocity": 69}, {"time": 496, "pitch": 60, "duration": 12, "velocity": 117}, {"time": 502, "pitch": 57, "duration": 7, "velocity": 92}, {"time": 508, "pitch": 40, "duration": 17, "velocity": 82}, {"time": 514, "pitch": 47, "duration": 10, "velocity": 93}, {"time": 520, "pitch": 59, "duration": 13, "velocity": 107}, {"time": 526, "pitch": 55, "duration": 7, "velocity": 92}, {"time": 532, "pitch": 38, "duration": 18, "velocity": 92}, {"time": 538, "pitch": 45, "duration": 12, "velocity": 79}, {"time": 544, "pitch": 53, "duration": 11, "velocity": 122}, {"time": 550, "pitch": 50, "duration": 5, "velocity": 82}, {"time": 556, "pitch": 41, "duration": 14, "velocity": 81}, {"time": 556, "pitch": 60, "duration": 10, "velocity": 93}, {"time": 556, "pitch": 65, "duration": 11, "velocity": 96}, {"time": 556, "pitch": 68, "duration": 11, "velocity": 100}, {"time": 562, "pitch": 48, "duration": 8, "velocity": 62}, {"time": 568, "pitch": 65, "duration": 13, "velocity": 95}, {"time": 568, "pitch": 68, "duration": 13, "velocity": 117}, {"time": 574, "pitch": 60, "duration": 8, "velocity": 72}, {"time": 580, "pitch": 36, "duration": 39, "velocity": 97}, {"time": 586, "pitch": 43, "duration": 8, "velocity": 77}, {"time": 592, "pitch": 48, "duration": 8, "velocity": 90}, {"time": 592, "pitch": 55, "duration": 28, "velocity": 92}, {"time": 598, "pitch": 43, "duration": 20, "velocity": 56}, {"time": 604, "pitch": 48, "duration": 9, "velocity": 75}, {"time": 604, "pitch": 60, "duration": 16, "velocity": 82}, {"time": 604, "pitch": 64, "duration": 16, "velocity": 90}, {"time": 628, "pitch": 36, "duration": 18, "velocity": 95}, {"time": 631, "pitch": 43, "duration": 16, "velocity": 97}, {"time": 634, "pitch": 48, "duration": 8, "velocity": 102}, {"time": 637, "pitch": 55, "duration": 7, "velocity": 93}, {"time": 640, "pitch": 64, "duration": 13, "velocity": 127}, {"time": 643, "pitch": 48, "duration": 5, "velocity": 117}, {"time": 646, "pitch": 60, "duration": 6, "velocity": 127}, {"time": 649, "pitch": 55, "duration": 4, "velocity": 117}, {"time": 652, "pitch": 43, "duration": 19, "velocity": 85}, {"time": 655, "pitch": 50, "duration": 11, "velocity": 96}, {"time": 658, "pitch": 55, "duration": 5, "velocity": 112}, {"time": 661, "pitch": 59, "duration": 4, "velocity": 92}, {"time": 664, "pitch": 62, "duration": 7, "velocity": 88}, {"time": 664, "pitch": 67, "duration": 13, "velocity": 102}, {"time": 667, "pitch": 50, "duration": 5, "velocity": 86}, {"time": 670, "pitch": 59, "duration": 5, "velocity": 112}, {"time": 673, "pitch": 62, "duration": 4, "velocity": 127}, {"time": 676, "pitch": 45, "duration": 21, "velocity": 86}, {"time": 679, "pitch": 52, "duration": 11, "velocity": 96}, {"time": 682, "pitch": 57, "duration": 4, "velocity": 102}, {"time": 685, "pitch": 60, "duration": 4, "velocity": 99}, {"time": 688, "pitch": 64, "duration": 7, "velocity": 97}, {"time": 688, "pitch": 69, "duration": 13, "velocity": 122}, {"time": 691, "pitch": 52, "duration": 8, "velocity": 93}, {"time": 694, "pitch": 60, "duration": 6, "velocity": 122}, {"time": 697, "pitch": 64, "duration": 4, "velocity": 122}, {"time": 700, "pitch": 43, "duration": 20, "velocity": 100}, {"time": 703, "pitch": 50, "duration": 12, "velocity": 83}, {"time": 706, "pitch": 55, "duration": 6, "velocity": 107}, {"time": 709, "pitch": 59, "duration": 4, "velocity": 97}, {"time": 712, "pitch": 62, "duration": 7, "velocity": 86}, {"time": 712, "pitch": 67, "duration": 14, "velocity": 107}, {"time": 715, "pitch": 50, "duration": 4, "velocity": 99}, {"time": 718, "pitch": 59, "duration": 6, "velocity": 112}, {"time": 721, "pitch": 62, "duration": 5, "velocity": 127}, {"time": 724, "pitch": 41, "duration": 18, "velocity": 97}, {"time": 727, "pitch": 48, "duration": 11, "velocity": 88}, {"time": 730, "pitch": 53, "duration": 5, "velocity": 102}, {"time": 733, "pitch": 57, "duration": 4, "velocity": 95}, {"time": 736, "pitch": 60, "duration": 7, "velocity": 102}, {"time": 736, "pitch": 65, "duration": 12, "velocity": 127}, {"time": 739, "pitch": 48, "duration": 3, "velocity": 95}, {"time": 742, "pitch": 57, "duration": 6, "velocity": 112}, {"time": 745, "pitch": 60, "duration": 4, "velocity": 117}, {"time": 748, "pitch": 40, "duration": 19, "velocity": 96}, {"time": 751, "pitch": 47, "duration": 16, "velocity": 90}, {"time": 754, "pitch": 52, "duration": 8, "velocity": 99}, {"time": 757, "pitch": 55, "duration": 4, "velocity": 96}, {"time": 760, "pitch": 59, "duration": 7, "velocity": 102}, {"time": 760, "pitch": 64, "duration": 12, "velocity": 107}, {"time": 763, "pitch": 52, "duration": 2, "velocity": 107}, {"time": 766, "pitch": 55, "duration": 5, "velocity": 112}, {"time": 769, "pitch": 59, "duration": 3, "velocity": 127}, {"time": 772, "pitch": 38, "duration": 17, "velocity": 89}, {"time": 775, "pitch": 45, "duration": 15, "velocity": 89}, {"time": 778, "pitch": 50, "duration": 8, "velocity": 99}, {"time": 781, "pitch": 57, "duration": 4, "velocity": 99}, {"time": 784, "pitch": 62, "duration": 6, "velocity": 85}, {"time": 784, "pitch": 65, "duration": 13, "velocity": 102}, {"time": 787, "pitch": 50, "duration": 6, "velocity": 112}, {"time": 790, "pitch": 57, "duration": 7, "velocity": 112}, {"time": 793, "pitch": 62, "duration": 4, "velocity": 127}, {"time": 796, "pitch": 43, "duration": 18, "velocity": 88}, {"time": 799, "pitch": 50, "duration": 11, "velocity": 82}, {"time": 802, "pitch": 55, "duration": 5, "velocity": 93}, {"time": 805, "pitch": 59, "duration": 4, "velocity": 83}, {"time": 808, "pitch": 62, "duration": 6, "velocity": 97}, {"time": 808, "pitch": 67, "duration": 11, "velocity": 122}, {"time": 811, "pitch": 50, "duration": 3, "velocity": 107}, {"time": 814, "pitch": 59, "duration": 7, "velocity": 122}, {"time": 817, "pitch": 62, "duration": 3, "velocity": 127}, {"time": 820, "pitch": 36, "duration": 17, "velocity": 97}, {"time": 823, "pitch": 43, "duration": 14, "velocity": 107}, {"time": 826, "pitch": 48, "duration": 8, "velocity": 99}, {"time": 829, "pitch": 55, "duration": 5, "velocity": 92}, {"time": 832, "pitch": 64, "duration": 12, "velocity": 117}, {"time": 835, "pitch": 48, "duration": 4, "velocity": 99}, {"time": 838, "pitch": 60, "duration": 6, "velocity": 112}, {"time": 841, "pitch": 55, "duration": 3, "velocity": 107}, {"time": 844, "pitch": 43, "duration": 21, "velocity": 92}, {"time": 847, "pitch": 50, "duration": 11, "velocity": 99}, {"time": 850, "pitch": 55, "duration": 5, "velocity": 100}, {"time": 853, "pitch": 59, "duration": 4, "velocity": 93}, {"time": 856, "pitch": 62, "duration": 7, "velocity": 93}, {"time": 856, "pitch": 67, "duration": 14, "velocity": 102}, {"time": 859, "pitch": 50, "duration": 9, "velocity": 97}, {"time": 862, "pitch": 59, "duration": 7, "velocity": 112}, {"time": 865, "pitch": 62, "duration": 4, "velocity": 117}, {"time": 868, "pitch": 45, "duration": 22, "velocity": 76}, {"time": 871, "pitch": 52, "duration": 11, "velocity": 92}, {"time": 874, "pitch": 57, "duration": 5, "velocity": 117}, {"time": 877, "pitch": 60, "duration": 5, "velocity": 95}, {"time": 880, "pitch": 69, "duration": 12, "velocity": 122}, {"time": 883, "pitch": 52, "duration": 6, "velocity": 99}, {"time": 886, "pitch": 64, "duration": 6, "velocity": 122}, {"time": 889, "pitch": 60, "duration": 3, "velocity": 107}, {"time": 892, "pitch": 43, "duration": 10, "velocity": 97}, {"time": 895, "pitch": 50, "duration": 8, "velocity": 102}, {"time": 898, "pitch": 55, "duration": 7, "velocity": 97}, {"time": 898, "pitch": 57, "duration": 2, "velocity": 96}, {"time": 901, "pitch": 58, "duration": 3, "velocity": 117}, {"time": 901, "pitch": 62, "duration": 4, "velocity": 93}, {"time": 904, "pitch": 48, "duration": 7, "velocity": 127}, {"time": 907, "pitch": 55, "duration": 4, "velocity": 92}, {"time": 910, "pitch": 60, "duration": 7, "velocity": 112}, {"time": 910, "pitch": 64, "duration": 8, "velocity": 127}, {"time": 913, "pitch": 55, "duration": 4, "velocity": 99}, {"time": 916, "pitch": 41, "duration": 21, "velocity": 82}, {"time": 919, "pitch": 48, "duration": 11, "velocity": 95}, {"time": 922, "pitch": 53, "duration": 6, "velocity": 107}, {"time": 925, "pitch": 57, "duration": 4, "velocity": 90}, {"time": 928, "pitch": 60, "duration": 7, "velocity": 97}, {"time": 928, "pitch": 65, "duration": 12, "velocity": 97}, {"time": 931, "pitch": 48, "duration": 7, "velocity": 93}, {"time": 934, "pitch": 57, "duration": 6, "velocity": 107}, {"time": 937, "pitch": 60, "duration": 3, "velocity": 117}, {"time": 940, "pitch": 40, "duration": 19, "velocity": 93}, {"time": 943, "pitch": 47, "duration": 15, "velocity": 99}, {"time": 946, "pitch": 52, "duration": 7, "velocity": 99}, {"time": 949, "pitch": 55, "duration": 4, "velocity": 90}, {"time": 952, "pitch": 59, "duration": 7, "velocity": 99}, {"time": 952, "pitch": 64, "duration": 12, "velocity": 127}, {"time": 955, "pitch": 52, "duration": 2, "velocity": 99}, {"time": 958, "pitch": 55, "duration": 6, "velocity": 112}, {"time": 961, "pitch": 59, "duration": 3, "velocity": 127}, {"time": 964, "pitch": 38, "duration": 18, "velocity": 89}, {"time": 967, "pitch": 45, "duration": 15, "velocity": 88}, {"time": 970, "pitch": 50, "duration": 7, "velocity": 95}, {"time": 973, "pitch": 57, "duration": 5, "velocity": 92}, {"time": 976, "pitch": 65, "duration": 10, "velocity": 127}, {"time": 979, "pitch": 50, "duration": 5, "velocity": 97}, {"time": 982, "pitch": 62, "duration": 4, "velocity": 117}, {"time": 985, "pitch": 57, "duration": 4, "velocity": 95}, {"time": 988, "pitch": 43, "duration": 16, "velocity": 95}, {"time": 988, "pitch": 59, "duration": 24, "velocity": 99}, {"time": 988, "pitch": 62, "duration": 24, "velocity": 100}, {"time": 991, "pitch": 50, "duration": 12, "velocity": 85}, {"time": 1000, "pitch": 55, "duration": 12, "velocity": 107}, {"time": 1012, "pitch": 41, "duration": 6, "velocity": 85}, {"time": 1012, "pitch": 48, "duration": 24, "velocity": 88}, {"time": 1012, "pitch": 57, "duration": 2, "velocity": 104}, {"time": 1012, "pitch": 59, "duration": 3, "velocity": 117}, {"time": 1012, "pitch": 64, "duration": 13, "velocity": 75}, {"time": 1015, "pitch": 60, "duration": 5, "velocity": 116}, {"time": 1018, "pitch": 40, "duration": 6, "velocity": 52}, {"time": 1021, "pitch": 55, "duration": 5, "velocity": 70}, {"time": 1024, "pitch": 57, "duration": 15, "velocity": 88}, {"time": 1024, "pitch": 62, "duration": 14, "velocity": 93}, {"time": 1024, "pitch": 65, "duration": 14, "velocity": 76}, {"time": 1033, "pitch": 55, "duration": 6, "velocity": 52}, {"time": 1036, "pitch": 48, "duration": 22, "velocity": 56}, {"time": 1036, "pitch": 60, "duration": 2, "velocity": 105}, {"time": 1036, "pitch": 64, "duration": 10, "velocity": 63}, {"time": 1039, "pitch": 55, "duration": 10, "velocity": 73}, {"time": 1039, "pitch": 60, "duration": 5, "velocity": 83}, {"time": 1045, "pitch": 62, "duration": 8, "velocity": 70}, {"time": 1045, "pitch": 65, "duration": 8, "velocity": 73}, {"time": 1045, "pitch": 67, "duration": 4, "velocity": 55}, {"time": 1045, "pitch": 72, "duration": 3, "velocity": 35}, {"time": 1048, "pitch": 55, "duration": 1, "velocity": 45}, {"time": 1051, "pitch": 60, "duration": 11, "velocity": 74}, {"time": 1051, "pitch": 64, "duration": 11, "velocity": 68}, {"time": 1051, "pitch": 67, "duration": 9, "velocity": 60}, {"time": 1060, "pitch": 41, "duration": 21, "velocity": 88}, {"time": 1060, "pitch": 58, "duration": 20, "velocity": 55}, {"time": 1060, "pitch": 62, "duration": 16, "velocity": 77}, {"time": 1060, "pitch": 74, "duration": 20, "velocity": 60}, {"time": 1075, "pitch": 62, "duration": 1, "velocity": 75}, {"time": 1075, "pitch": 81, "duration": 5, "velocity": 55}, {"time": 1078, "pitch": 48, "duration": 20, "velocity": 77}, {"time": 1078, "pitch": 53, "duration": 20, "velocity": 97}, {"time": 1078, "pitch": 55, "duration": 11, "velocity": 64}, {"time": 1078, "pitch": 57, "duration": 12, "velocity": 66}, {"time": 1090, "pitch": 57, "duration": 8, "velocity": 51}, {"time": 1108, "pitch": 36, "duration": 20, "velocity": 95}, {"time": 1114, "pitch": 43, "duration": 14, "velocity": 63}, {"time": 1120, "pitch": 64, "duration": 13, "velocity": 95}, {"time": 1126, "pitch": 60, "duration": 8, "velocity": 83}, {"time": 1132, "pitch": 35, "duration": 17, "velocity": 86}, {"time": 1138, "pitch": 55, "duration": 20, "velocity": 86}, {"time": 1144, "pitch": 64, "duration": 13, "velocity": 99}, {"time": 1150, "pitch": 59, "duration": 7, "velocity": 97}, {"time": 1156, "pitch": 45, "duration": 36, "velocity": 97}, {"time": 1162, "pitch": 52, "duration": 8, "velocity": 68}, {"time": 1168, "pitch": 60, "duration": 24, "velocity": 112}, {"time": 1174, "pitch": 52, "duration": 7, "velocity": 78}, {"time": 1180, "pitch": 57, "duration": 15, "velocity": 102}, {"time": 1186, "pitch": 52, "duration": 6, "velocity": 95}, {"time": 1192, "pitch": 43, "duration": 12, "velocity": 95}, {"time": 1198, "pitch": 55, "duration": 7, "velocity": 89}, {"time": 1204, "pitch": 41, "duration": 18, "velocity": 85}, {"time": 1210, "pitch": 48, "duration": 12, "velocity": 61}, {"time": 1216, "pitch": 60, "duration": 13, "velocity": 100}, {"time": 1222, "pitch": 57, "duration": 7, "velocity": 93}, {"time": 1228, "pitch": 40, "duration": 17, "velocity": 85}, {"time": 1234, "pitch": 47, "duration": 9, "velocity": 78}, {"time": 1240, "pitch": 59, "duration": 13, "velocity": 102}, {"time": 1246, "pitch": 55, "duration": 7, "velocity": 97}, {"time": 1249, "pitch": 52, "duration": 4, "velocity": 73}, {"time": 1252, "pitch": 38, "duration": 18, "velocity": 95}, {"time": 1258, "pitch": 45, "duration": 13, "velocity": 67}, {"time": 1264, "pitch": 57, "duration": 12, "velocity": 99}, {"time": 1270, "pitch": 53, "duration": 6, "velocity": 93}, {"time": 1276, "pitch": 43, "duration": 18, "velocity": 95}, {"time": 1282, "pitch": 50, "duration": 11, "velocity": 58}, {"time": 1288, "pitch": 59, "duration": 13, "velocity": 89}, {"time": 1288, "pitch": 62, "duration": 13, "velocity": 93}, {"time": 1300, "pitch": 36, "duration": 16, "velocity": 93}, {"time": 1306, "pitch": 43, "duration": 11, "velocity": 82}, {"time": 1312, "pitch": 64, "duration": 12, "velocity": 112}, {"time": 1318, "pitch": 60, "duration": 7, "velocity": 107}, {"time": 1324, "pitch": 35, "duration": 18, "velocity": 92}, {"time": 1330, "pitch": 55, "duration": 8, "velocity": 96}, {"time": 1336, "pitch": 59, "duration": 12, "velocity": 82}, {"time": 1336, "pitch": 64, "duration": 12, "velocity": 117}, {"time": 1342, "pitch": 55, "duration": 6, "velocity": 85}, {"time": 1348, "pitch": 33, "duration": 30, "velocity": 100}, {"time": 1354, "pitch": 40, "duration": 24, "velocity": 67}, {"time": 1360, "pitch": 45, "duration": 10, "velocity": 72}, {"time": 1360, "pitch": 57, "duration": 7, "velocity": 100}, {"time": 1360, "pitch": 60, "duration": 17, "velocity": 100}, {"time": 1366, "pitch": 52, "duration": 10, "velocity": 85}, {"time": 1369, "pitch": 57, "duration": 3, "velocity": 41}, {"time": 1372, "pitch": 45, "duration": 12, "velocity": 100}, {"time": 1378, "pitch": 52, "duration": 5, "velocity": 89}, {"time": 1381, "pitch": 57, "duration": 6, "velocity": 99}, {"time": 1381, "pitch": 60, "duration": 5, "velocity": 107}, {"time": 1384, "pitch": 43, "duration": 8, "velocity": 127}, {"time": 1390, "pitch": 55, "duration": 7, "velocity": 93}, {"time": 1390, "pitch": 59, "duration": 8, "velocity": 86}, {"time": 1396, "pitch": 41, "duration": 17, "velocity": 85}, {"time": 1402, "pitch": 48, "duration": 11, "velocity": 69}, {"time": 1408, "pitch": 60, "duration": 12, "velocity": 117}, {"time": 1414, "pitch": 57, "duration": 7, "velocity": 92}, {"time": 1420, "pitch": 40, "duration": 17, "velocity": 82}, {"time": 1426, "pitch": 47, "duration": 10, "velocity": 93}, {"time": 1432, "pitch": 59, "duration": 13, "velocity": 107}, {"time": 1438, "pitch": 55, "duration": 7, "velocity": 92}, {"time": 1444, "pitch": 38, "duration": 18, "velocity": 92}, {"time": 1450, "pitch": 45, "duration": 12, "velocity": 79}, {"time": 1456, "pitch": 53, "duration": 11, "velocity": 122}, {"time": 1462, "pitch": 50, "duration": 5, "velocity": 82}, {"time": 1468, "pitch": 41, "duration": 14, "velocity": 81}, {"time": 1468, "pitch": 60, "duration": 10, "velocity": 93}, {"time": 1468, "pitch": 65, "duration": 11, "velocity": 96}, {"time": 1468, "pitch": 68, "duration": 11, "velocity": 100}, {"time": 1474, "pitch": 48, "duration": 8, "velocity": 62}, {"time": 1480, "pitch": 65, "duration": 13, "velocity": 95}, {"time": 1480, "pitch": 68, "duration": 13, "velocity": 117}, {"time": 1486, "pitch": 60, "duration": 8, "velocity": 72}, {"time": 1492, "pitch": 36, "duration": 39, "velocity": 97}, {"time": 1498, "pitch": 43, "duration": 8, "velocity": 77}, {"time": 1504, "pitch": 48, "duration": 8, "velocity": 90}, {"time": 1504, "pitch": 55, "duration": 28, "velocity": 92}, {"time": 1510, "pitch": 43, "duration": 20, "velocity": 56}, {"time": 1516, "pitch": 48, "duration": 9, "velocity": 75}, {"time": 1516, "pitch": 60, "duration": 16, "velocity": 82}, {"time": 1516, "pitch": 64, "duration": 16, "velocity": 90}, {"time": 1540, "pitch": 36, "duration": 18, "velocity": 95}, {"time": 1543, "pitch": 43, "duration": 16, "velocity": 97}, {"time": 1546, "pitch": 48, "duration": 8, "velocity": 102}, {"time": 1549, "pitch": 55, "duration": 7, "velocity": 93}, {"time": 1552, "pitch": 64, "duration": 13, "velocity": 127}, {"time": 1555, "pitch": 48, "duration": 5, "velocity": 117}, {"time": 1558, "pitch": 60, "duration": 6, "velocity": 127}, {"time": 1561, "pitch": 55, "duration": 4, "velocity": 117}, {"time": 1564, "pitch": 43, "duration": 19, "velocity": 85}, {"time": 1567, "pitch": 50, "duration": 11, "velocity": 96}, {"time": 1570, "pitch": 55, "duration": 5, "velocity": 112}, {"time": 1573, "pitch": 59, "duration": 4, "velocity": 92}, {"time": 1576, "pitch": 62, "duration": 7, "velocity": 88}, {"time": 1576, "pitch": 67, "duration": 13, "velocity": 102}, {"time": 1579, "pitch": 50, "duration": 5, "velocity": 86}, {"time": 1582, "pitch": 59, "duration": 5, "velocity": 112}, {"time": 1585, "pitch": 62, "duration": 4, "velocity": 127}, {"time": 1588, "pitch": 45, "duration": 21, "velocity": 86}, {"time": 1591, "pitch": 52, "duration": 11, "velocity": 96}, {"time": 1594, "pitch": 57, "duration": 4, "velocity": 102}, {"time": 1597, "pitch": 60, "duration": 4, "velocity": 99}, {"time": 1600, "pitch": 64, "duration": 7, "velocity": 97}, {"time": 1600, "pitch": 69, "duration": 13, "velocity": 122}, {"time": 1603, "pitch": 52, "duration": 8, "velocity": 93}, {"time": 1606, "pitch": 60, "duration": 6, "velocity": 122}, {"time": 1609, "pitch": 64, "duration": 4, "velocity": 122}, {"time": 1612, "pitch": 43, "duration": 20, "velocity": 100}, {"time": 1615, "pitch": 50, "duration": 12, "velocity": 83}, {"time": 1618, "pitch": 55, "duration": 6, "velocity": 107}, {"time": 1621, "pitch": 59, "duration": 4, "velocity": 97}, {"time": 1624, "pitch": 62, "duration": 7, "velocity": 86}, {"time": 1624, "pitch": 67, "duration": 14, "velocity": 107}, {"time": 1627, "pitch": 50, "duration": 4, "velocity": 99}, {"time": 1630, "pitch": 59, "duration": 6, "velocity": 112}, {"time": 1633, "pitch": 62, "duration": 5, "velocity": 127}, {"time": 1636, "pitch": 41, "duration": 18, "velocity": 97}, {"time": 1639, "pitch": 48, "duration": 11, "velocity": 88}, {"time": 1642, "pitch": 53, "duration": 5, "velocity": 102}, {"time": 1645, "pitch": 57, "duration": 4, "velocity": 95}, {"time": 1648, "pitch": 60, "duration": 7, "velocity": 102}, {"time": 1648, "pitch": 65, "duration": 12, "velocity": 127}, {"time": 1651, "pitch": 48, "duration": 3, "velocity": 95}, {"time": 1654, "pitch": 57, "duration": 6, "velocity": 112}, {"time": 1657, "pitch": 60, "duration": 4, "velocity": 117}, {"time": 1660, "pitch": 40, "duration": 19, "velocity": 96}, {"time": 1663, "pitch": 47, "duration": 16, "velocity": 90}, {"time": 1666, "pitch": 52, "duration": 8, "velocity": 99}, {"time": 1669, "pitch": 55, "duration": 4, "velocity": 96}, {"time": 1672, "pitch": 59, "duration": 7, "velocity": 102}, {"time": 1672, "pitch": 64, "duration": 12, "velocity": 107}, {"time": 1675, "pitch": 52, "duration": 2, "velocity": 107}, {"time": 1678, "pitch": 55, "duration": 5, "velocity": 112}, {"time": 1681, "pitch": 59, "duration": 3, "velocity": 127}, {"time": 1684, "pitch": 38, "duration": 17, "velocity": 89}, {"time": 1687, "pitch": 45, "duration": 15, "velocity": 89}, {"time": 1690, "pitch": 50, "duration": 8, "velocity": 99}, {"time": 1693, "pitch": 57, "duration": 4, "velocity": 99}, {"time": 1696, "pitch": 62, "duration": 6, "velocity": 85}, {"time": 1696, "pitch": 65, "duration": 13, "velocity": 102}, {"time": 1699, "pitch": 50, "duration": 6, "velocity": 112}, {"time": 1702, "pitch": 57, "duration": 7, "velocity": 112}, {"time": 1705, "pitch": 62, "duration": 4, "velocity": 127}, {"time": 1708, "pitch": 43, "duration": 18, "velocity": 88}, {"time": 1711, "pitch": 50, "duration": 11, "velocity": 82}, {"time": 1714, "pitch": 55, "duration": 5, "velocity": 93}, {"time": 1717, "pitch": 59, "duration": 4, "velocity": 83}, {"time": 1720, "pitch": 62, "duration": 6, "velocity": 97}, {"time": 1720, "pitch": 67, "duration": 11, "velocity": 122}, {"time": 1723, "pitch": 50, "duration": 3, "velocity": 107}, {"time": 1726, "pitch": 59, "duration": 7, "velocity": 122}, {"time": 1729, "pitch": 62, "duration": 3, "velocity": 127}, {"time": 1732, "pitch": 36, "duration": 17, "velocity": 97}, {"time": 1735, "pitch": 43, "duration": 14, "velocity": 107}, {"time": 1738, "pitch": 48, "duration": 8, "velocity": 99}, {"time": 1741, "pitch": 55, "duration": 5, "velocity": 92}, {"time": 1744, "pitch": 64, "duration": 12, "velocity": 117}, {"time": 1747, "pitch": 48, "duration": 4, "velocity": 99}, {"time": 1750, "pitch": 60, "duration": 6, "velocity": 112}, {"time": 1753, "pitch": 55, "duration": 3, "velocity": 107}, {"time": 1756, "pitch": 43, "duration": 21, "velocity": 92}, {"time": 1759, "pitch": 50, "duration": 11, "velocity": 99}, {"time": 1762, "pitch": 55, "duration": 5, "velocity": 100}, {"time": 1765, "pitch": 59, "duration": 4, "velocity": 93}, {"time": 1768, "pitch": 62, "duration": 7, "velocity": 93}, {"time": 1768, "pitch": 67, "duration": 14, "velocity": 102}, {"time": 1771, "pitch": 50, "duration": 9, "velocity": 97}, {"time": 1774, "pitch": 59, "duration": 7, "velocity": 112}, {"time": 1777, "pitch": 62, "duration": 4, "velocity": 117}, {"time": 1780, "pitch": 45, "duration": 22, "velocity": 76}, {"time": 1783, "pitch": 52, "duration": 11, "velocity": 92}, {"time": 1786, "pitch": 57, "duration": 5, "velocity": 117}, {"time": 1789, "pitch": 60, "duration": 5, "velocity": 95}, {"time": 1792, "pitch": 69, "duration": 12, "velocity": 122}, {"time": 1795, "pitch": 52, "duration": 6, "velocity": 99}, {"time": 1798, "pitch": 64, "duration": 6, "velocity": 122}, {"time": 1801, "pitch": 60, "duration": 3, "velocity": 107}, {"time": 1804, "pitch": 43, "duration": 10, "velocity": 97}, {"time": 1807, "pitch": 50, "duration": 8, "velocity": 102}, {"time": 1810, "pitch": 55, "duration": 7, "velocity": 97}, {"time": 1810, "pitch": 57, "duration": 2, "velocity": 96}, {"time": 1813, "pitch": 58, "duration": 3, "velocity": 117}, {"time": 1813, "pitch": 62, "duration": 4, "velocity": 93}, {"time": 1816, "pitch": 48, "duration": 7, "velocity": 127}, {"time": 1819, "pitch": 55, "duration": 4, "velocity": 92}, {"time": 1822, "pitch": 60, "duration": 7, "velocity": 112}, {"time": 1822, "pitch": 64, "duration": 8, "velocity": 127}, {"time": 1825, "pitch": 55, "duration": 4, "velocity": 99}, {"time": 1828, "pitch": 41, "duration": 21, "velocity": 82}, {"time": 1831, "pitch": 48, "duration": 11, "velocity": 95}, {"time": 1834, "pitch": 53, "duration": 6, "velocity": 107}, {"time": 1837, "pitch": 57, "duration": 4, "velocity": 90}, {"time": 1840, "pitch": 60, "duration": 7, "velocity": 97}, {"time": 1840, "pitch": 65, "duration": 12, "velocity": 97}, {"time": 1843, "pitch": 48, "duration": 7, "velocity": 93}, {"time": 1846, "pitch": 57, "duration": 6, "velocity": 107}, {"time": 1849, "pitch": 60, "duration": 3, "velocity": 117}, {"time": 1852, "pitch": 40, "duration": 19, "velocity": 93}, {"time": 1855, "pitch": 47, "duration": 15, "velocity": 99}, {"time": 1858, "pitch": 52, "duration": 7, "velocity": 99}, {"time": 1861, "pitch": 55, "duration": 4, "velocity": 90}, {"time": 1864, "pitch": 59, "duration": 7, "velocity": 99}, {"time": 1864, "pitch": 64, "duration": 12, "velocity": 127}, {"time": 1867, "pitch": 52, "duration": 2, "velocity": 99}, {"time": 1870, "pitch": 55, "duration": 6, "velocity": 112}, {"time": 1873, "pitch": 59, "duration": 3, "velocity": 127}, {"time": 1876, "pitch": 38, "duration": 18, "velocity": 89}, {"time": 1879, "pitch": 45, "duration": 15, "velocity": 88}, {"time": 1882, "pitch": 50, "duration": 7, "velocity": 95}, {"time": 1885, "pitch": 57, "duration": 5, "velocity": 92}, {"time": 1888, "pitch": 65, "duration": 10, "velocity": 127}, {"time": 1891, "pitch": 50, "duration": 5, "velocity": 97}, {"time": 1894, "pitch": 62, "duration": 4, "velocity": 117}, {"time": 1897, "pitch": 57, "duration": 4, "velocity": 95}, {"time": 1900, "pitch": 43, "duration": 16, "velocity": 95}, {"time": 1900, "pitch": 59, "duration": 24, "velocity": 99}, {"time": 1900, "pitch": 62, "duration": 24, "velocity": 100}, {"time": 1903, "pitch": 50, "duration": 12, "velocity": 85}, {"time": 1912, "pitch": 55, "duration": 12, "velocity": 107}, {"time": 1924, "pitch": 45, "duration": 23, "velocity": 89}, {"time": 1924, "pitch": 57, "duration": 7, "velocity": 112}, {"time": 1924, "pitch": 60, "duration": 7, "velocity": 107}, {"time": 1924, "pitch": 64, "duration": 6, "velocity": 99}, {"time": 1930, "pitch": 52, "duration": 9, "velocity": 54}, {"time": 1936, "pitch": 57, "duration": 7, "velocity": 117}, {"time": 1936, "pitch": 60, "duration": 9, "velocity": 122}, {"time": 1936, "pitch": 64, "duration": 9, "velocity": 117}, {"time": 1942, "pitch": 52, "duration": 5, "velocity": 96}, {"time": 1945, "pitch": 57, "duration": 4, "velocity": 97}, {"time": 1948, "pitch": 43, "duration": 23, "velocity": 89}, {"time": 1948, "pitch": 59, "duration": 8, "velocity": 107}, {"time": 1948, "pitch": 62, "duration": 8, "velocity": 112}, {"time": 1954, "pitch": 50, "duration": 8, "velocity": 63}, {"time": 1960, "pitch": 55, "duration": 4, "velocity": 95}, {"time": 1960, "pitch": 59, "duration": 8, "velocity": 107}, {"time": 1960, "pitch": 62, "duration": 10, "velocity": 112}, {"time": 1963, "pitch": 50, "duration": 8, "velocity": 64}, {"time": 1966, "pitch": 55, "duration": 4, "velocity": 93}, {"time": 1972, "pitch": 36, "duration": 40, "velocity": 81}, {"time": 1972, "pitch": 55, "duration": 11, "velocity": 100}, {"time": 1972, "pitch": 60, "duration": 11, "velocity": 96}, {"time": 1972, "pitch": 64, "duration": 10, "velocity": 93}, {"time": 1978, "pitch": 48, "duration": 8, "velocity": 56}, {"time": 1984, "pitch": 55, "duration": 6, "velocity": 100}, {"time": 1984, "pitch": 60, "duration": 11, "velocity": 122}, {"time": 1984, "pitch": 64, "duration": 11, "velocity": 100}, {"time": 1990, "pitch": 55, "duration": 5, "velocity": 54}, {"time": 1996, "pitch": 55, "duration": 7, "velocity": 96}, {"time": 1996, "pitch": 60, "duration": 8, "velocity": 96}, {"time": 1996, "pitch": 64, "duration": 8, "velocity": 86}, {"time": 2002, "pitch": 48, "duration": 9, "velocity": 77}, {"time": 2005, "pitch": 55, "duration": 3, "velocity": 79}, {"time": 2008, "pitch": 60, "duration": 7, "velocity": 112}, {"time": 2008, "pitch": 64, "duration": 7, "velocity": 122}, {"time": 2011, "pitch": 43, "duration": 2, "velocity": 68}, {"time": 2014, "pitch": 55, "duration": 3, "velocity": 112}, {"time": 2020, "pitch": 45, "duration": 20, "velocity": 75}, {"time": 2020, "pitch": 57, "duration": 8, "velocity": 107}, {"time": 2020, "pitch": 60, "duration": 7, "velocity": 102}, {"time": 2020, "pitch": 64, "duration": 8, "velocity": 102}, {"time": 2026, "pitch": 52, "duration": 7, "velocity": 56}, {"time": 2032, "pitch": 60, "duration": 7, "velocity": 127}, {"time": 2032, "pitch": 64, "duration": 10, "velocity": 127}, {"time": 2035, "pitch": 52, "duration": 4, "velocity": 93}, {"time": 2038, "pitch": 57, "duration": 6, "velocity": 102}, {"time": 2041, "pitch": 60, "duration": 2, "velocity": 67}, {"time": 2044, "pitch": 43, "duration": 22, "velocity": 83}, {"time": 2044, "pitch": 59, "duration": 10, "velocity": 122}, {"time": 2044, "pitch": 62, "duration": 10, "velocity": 112}, {"time": 2050, "pitch": 50, "duration": 8, "velocity": 61}, {"time": 2056, "pitch": 59, "duration": 6, "velocity": 112}, {"time": 2056, "pitch": 62, "duration": 7, "velocity": 112}, {"time": 2059, "pitch": 50, "duration": 6, "velocity": 86}, {"time": 2062, "pitch": 55, "duration": 6, "velocity": 112}, {"time": 2065, "pitch": 59, "duration": 3, "velocity": 95}, {"time": 2065, "pitch": 62, "duration": 3, "velocity": 102}, {"time": 2068, "pitch": 41, "duration": 10, "velocity": 116}, {"time": 2068, "pitch": 53, "duration": 8, "velocity": 122}, {"time": 2068, "pitch": 65, "duration": 8, "velocity": 100}, {"time": 2068, "pitch": 69, "duration": 8, "velocity": 122}, {"time": 2077, "pitch": 40, "duration": 10, "velocity": 110}, {"time": 2077, "pitch": 52, "duration": 8, "velocity": 99}, {"time": 2077, "pitch": 64, "duration": 8, "velocity": 96}, {"time": 2077, "pitch": 67, "duration": 4, "velocity": 97}, {"time": 2086, "pitch": 38, "duration": 7, "velocity": 111}, {"time": 2086, "pitch": 50, "duration": 7, "velocity": 97}, {"time": 2086, "pitch": 62, "duration": 6, "velocity": 97}, {"time": 2086, "pitch": 65, "duration": 6, "velocity": 122}, {"time": 2092, "pitch": 36, "duration": 5, "velocity": 95}, {"time": 2092, "pitch": 36, "duration": 5, "velocity": 98}, {"time": 2092, "pitch": 43, "duration": 4, "velocity": 78}, {"time": 2092, "pitch": 48, "duration": 9, "velocity": 90}, {"time": 2092, "pitch": 60, "duration": 5, "velocity": 97}, {"time": 2092, "pitch": 64, "duration": 6, "velocity": 102}, {"time": 2092, "pitch": 67, "duration": 5, "velocity": 89}, {"time": 2095, "pitch": 43, "duration": 1, "velocity": 99}, {"time": 2098, "pitch": 36, "duration": 6, "velocity": 104}, {"time": 2098, "pitch": 43, "duration": 5, "velocity": 87}, {"time": 2098, "pitch": 60, "duration": 5, "velocity": 90}, {"time": 2098, "pitch": 64, "duration": 5, "velocity": 90}, {"time": 2098, "pitch": 67, "duration": 5, "velocity": 88}, {"time": 2101, "pitch": 48, "duration": 4, "velocity": 112}, {"time": 2104, "pitch": 36, "duration": 4, "velocity": 110}, {"time": 2104, "pitch": 48, "duration": 1, "velocity": 105}, {"time": 2104, "pitch": 60, "duration": 5, "velocity": 127}, {"time": 2104, "pitch": 64, "duration": 5, "velocity": 127}, {"time": 2104, "pitch": 67, "duration": 4, "velocity": 127}, {"time": 2110, "pitch": 36, "duration": 3, "velocity": 116}, {"time": 2110, "pitch": 43, "duration": 5, "velocity": 119}, {"time": 2110, "pitch": 48, "duration": 2, "velocity": 94}, {"time": 2110, "pitch": 60, "duration": 2, "velocity": 127}, {"time": 2110, "pitch": 64, "duration": 2, "velocity": 127}, {"time": 2110, "pitch": 67, "duration": 2, "velocity": 127}, {"time": 2113, "pitch": 48, "duration": 4, "velocity": 117}, {"time": 2113, "pitch": 60, "duration": 3, "velocity": 112}, {"time": 2113, "pitch": 64, "duration": 3, "velocity": 100}, {"time": 2113, "pitch": 67, "duration": 3, "velocity": 102}, {"time": 2116, "pitch": 34, "duration": 16, "velocity": 102}, {"time": 2116, "pitch": 53, "duration": 8, "velocity": 102}, {"time": 2116, "pitch": 58, "duration": 8, "velocity": 127}, {"time": 2116, "pitch": 62, "duration": 8, "velocity": 107}, {"time": 2116, "pitch": 65, "duration": 7, "velocity": 92}, {"time": 2122, "pitch": 46, "duration": 7, "velocity": 99}, {"time": 2128, "pitch": 58, "duration": 7, "velocity": 127}, {"time": 2128, "pitch": 62, "duration": 8, "velocity": 122}, {"time": 2128, "pitch": 65, "duration": 8, "velocity": 107}, {"time": 2131, "pitch": 46, "duration": 2, "velocity": 117}, {"time": 2134, "pitch": 53, "duration": 2, "velocity": 100}, {"time": 2140, "pitch": 45, "duration": 20, "velocity": 93}, {"time": 2140, "pitch": 60, "duration": 5, "velocity": 127}, {"time": 2140, "pitch": 64, "duration": 5, "velocity": 127}, {"time": 2143, "pitch": 52, "duration": 9, "velocity": 112}, {"time": 2146, "pitch": 57, "duration": 6, "velocity": 107}, {"time": 2149, "pitch": 60, "duration": 3, "velocity": 117}, {"time": 2152, "pitch": 64, "duration": 9, "velocity": 127}, {"time": 2155, "pitch": 52, "duration": 4, "velocity": 117}, {"time": 2158, "pitch": 60, "duration": 4, "velocity": 127}, {"time": 2161, "pitch": 57, "duration": 5, "velocity": 117}, {"time": 2164, "pitch": 45, "duration": 18, "velocity": 99}, {"time": 2167, "pitch": 52, "duration": 11, "velocity": 112}, {"time": 2170, "pitch": 57, "duration": 7, "velocity": 107}, {"time": 2173, "pitch": 60, "duration": 10, "velocity": 117}, {"time": 2176, "pitch": 64, "duration": 8, "velocity": 117}, {"time": 2179, "pitch": 52, "duration": 2, "velocity": 122}, {"time": 2182, "pitch": 57, "duration": 14, "velocity": 99}, {"time": 2185, "pitch": 60, "duration": 3, "velocity": 117}, {"time": 2188, "pitch": 38, "duration": 17, "velocity": 89}, {"time": 2188, "pitch": 62, "duration": 8, "velocity": 107}, {"time": 2188, "pitch": 65, "duration": 8, "velocity": 117}, {"time": 2191, "pitch": 45, "duration": 11, "velocity": 100}, {"time": 2194, "pitch": 50, "duration": 4, "velocity": 117}, {"time": 2197, "pitch": 57, "duration": 4, "velocity": 112}, {"time": 2197, "pitch": 62, "duration": 1, "velocity": 50}, {"time": 2200, "pitch": 62, "duration": 7, "velocity": 122}, {"time": 2200, "pitch": 65, "duration": 6, "velocity": 127}, {"time": 2203, "pitch": 45, "duration": 2, "velocity": 112}, {"time": 2206, "pitch": 57, "duration": 3, "velocity": 117}, {"time": 2209, "pitch": 58, "duration": 1, "velocity": 78}, {"time": 2209, "pitch": 62, "duration": 1, "velocity": 22}, {"time": 2212, "pitch": 34, "duration": 16, "velocity": 117}, {"time": 2212, "pitch": 53, "duration": 1, "velocity": 72}, {"time": 2212, "pitch": 58, "duration": 8, "velocity": 127}, {"time": 2212, "pitch": 62, "duration": 8, "velocity": 102}, {"time": 2215, "pitch": 46, "duration": 5, "velocity": 100}, {"time": 2218, "pitch": 53, "duration": 6, "velocity": 100}, {"time": 2221, "pitch": 46, "duration": 4, "velocity": 112}, {"time": 2224, "pitch": 58, "duration": 7, "velocity": 127}, {"time": 2224, "pitch": 62, "duration": 11, "velocity": 127}, {"time": 2227, "pitch": 46, "duration": 2, "velocity": 122}, {"time": 2230, "pitch": 53, "duration": 4, "velocity": 102}, {"time": 2233, "pitch": 58, "duration": 2, "velocity": 117}, {"time": 2236, "pitch": 43, "duration": 19, "velocity": 99}, {"time": 2236, "pitch": 55, "duration": 3, "velocity": 122}, {"time": 2236, "pitch": 59, "duration": 7, "velocity": 127}, {"time": 2236, "pitch": 62, "duration": 6, "velocity": 112}, {"time": 2239, "pitch": 50, "duration": 11, "velocity": 95}, {"time": 2242, "pitch": 55, "duration": 3, "velocity": 99}, {"time": 2245, "pitch": 59, "duration": 2, "velocity": 92}, {"time": 2245, "pitch": 62, "duration": 2, "velocity": 95}, {"time": 2248, "pitch": 55, "duration": 4, "velocity": 122}, {"time": 2248, "pitch": 59, "duration": 6, "velocity": 127}, {"time": 2248, "pitch": 62, "duration": 7, "velocity": 127}, {"time": 2251, "pitch": 50, "duration": 4, "velocity": 127}, {"time": 2254, "pitch": 55, "duration": 4, "velocity": 127}, {"time": 2260, "pitch": 33, "duration": 27, "velocity": 83}, {"time": 2260, "pitch": 52, "duration": 5, "velocity": 117}, {"time": 2260, "pitch": 56, "duration": 1, "velocity": 88}, {"time": 2260, "pitch": 57, "duration": 5, "velocity": 122}, {"time": 2260, "pitch": 61, "duration": 5, "velocity": 127}, {"time": 2266, "pitch": 40, "duration": 8, "velocity": 73}, {"time": 2266, "pitch": 52, "duration": 4, "velocity": 99}, {"time": 2266, "pitch": 57, "duration": 4, "velocity": 117}, {"time": 2266, "pitch": 61, "duration": 4, "velocity": 117}, {"time": 2272, "pitch": 45, "duration": 9, "velocity": 100}, {"time": 2272, "pitch": 52, "duration": 5, "velocity": 102}, {"time": 2272, "pitch": 57, "duration": 5, "velocity": 122}, {"time": 2272, "pitch": 61, "duration": 5, "velocity": 127}, {"time": 2278, "pitch": 40, "duration": 9, "velocity": 83}, {"time": 2278, "pitch": 52, "duration": 5, "velocity": 107}, {"time": 2278, "pitch": 57, "duration": 5, "velocity": 127}, {"time": 2278, "pitch": 61, "duration": 5, "velocity": 127}, {"time": 2284, "pitch": 45, "duration": 3, "velocity": 127}, {"time": 2284, "pitch": 52, "duration": 4, "velocity": 127}, {"time": 2284, "pitch": 57, "duration": 3, "velocity": 127}, {"time": 2284, "pitch": 61, "duration": 4, "velocity": 127}, {"time": 2308, "pitch": 38, "duration": 18, "velocity": 95}, {"time": 2311, "pitch": 45, "duration": 16, "velocity": 97}, {"time": 2314, "pitch": 50, "duration": 8, "velocity": 102}, {"time": 2317, "pitch": 57, "duration": 7, "velocity": 93}, {"time": 2320, "pitch": 66, "duration": 13, "velocity": 127}, {"time": 2323, "pitch": 50, "duration": 5, "velocity": 117}, {"time": 2326, "pitch": 62, "duration": 6, "velocity": 127}, {"time": 2329, "pitch": 57, "duration": 4, "velocity": 117}, {"time": 2332, "pitch": 45, "duration": 19, "velocity": 85}, {"time": 2335, "pitch": 52, "duration": 11, "velocity": 96}, {"time": 2338, "pitch": 57, "duration": 5, "velocity": 112}, {"time": 2341, "pitch": 61, "duration": 4, "velocity": 92}, {"time": 2344, "pitch": 64, "duration": 7, "velocity": 88}, {"time": 2344, "pitch": 69, "duration": 13, "velocity": 102}, {"time": 2347, "pitch": 52, "duration": 5, "velocity": 86}, {"time": 2350, "pitch": 61, "duration": 5, "velocity": 112}, {"time": 2353, "pitch": 64, "duration": 4, "velocity": 127}, {"time": 2356, "pitch": 47, "duration": 21, "velocity": 86}, {"time": 2359, "pitch": 54, "duration": 11, "velocity": 96}, {"time": 2362, "pitch": 59, "duration": 4, "velocity": 102}, {"time": 2365, "pitch": 62, "duration": 4, "velocity": 99}, {"time": 2368, "pitch": 66, "duration": 7, "velocity": 97}, {"time": 2368, "pitch": 71, "duration": 13, "velocity": 122}, {"time": 2371, "pitch": 54, "duration": 8, "velocity": 93}, {"time": 2374, "pitch": 62, "duration": 6, "velocity": 122}, {"time": 2377, "pitch": 66, "duration": 4, "velocity": 122}, {"time": 2380, "pitch": 45, "duration": 20, "velocity": 100}, {"time": 2383, "pitch": 52, "duration": 12, "velocity": 83}, {"time": 2386, "pitch": 57, "duration": 6, "velocity": 107}, {"time": 2389, "pitch": 61, "duration": 4, "velocity": 97}, {"time": 2392, "pitch": 64, "duration": 7, "velocity": 86}, {"time": 2392, "pitch": 69, "duration": 14, "velocity": 107}, {"time": 2395, "pitch": 52, "duration": 4, "velocity": 99}, {"time": 2398, "pitch": 61, "duration": 6, "velocity": 112}, {"time": 2401, "pitch": 64, "duration": 5, "velocity": 127}, {"time": 2404, "pitch": 43, "duration": 18, "velocity": 97}, {"time": 2407, "pitch": 50, "duration": 11, "velocity": 88}, {"time": 2410, "pitch": 55, "duration": 5, "velocity": 102}, {"time": 2413, "pitch": 59, "duration": 4, "velocity": 95}, {"time": 2416, "pitch": 62, "duration": 7, "velocity": 102}, {"time": 2416, "pitch": 67, "duration": 12, "velocity": 127}, {"time": 2419, "pitch": 50, "duration": 3, "velocity": 95}, {"time": 2422, "pitch": 59, "duration": 6, "velocity": 112}, {"time": 2425, "pitch": 62, "duration": 4, "velocity": 117}, {"time": 2428, "pitch": 42, "duration": 19, "velocity": 96}, {"time": 2431, "pitch": 49, "duration": 16, "velocity": 90}, {"time": 2434, "pitch": 54, "duration": 8, "velocity": 99}, {"time": 2437, "pitch": 57, "duration": 4, "velocity": 96}, {"time": 2440, "pitch": 61, "duration": 7, "velocity": 102}, {"time": 2440, "pitch": 66, "duration": 12, "velocity": 107}, {"time": 2443, "pitch": 54, "duration": 2, "velocity": 107}, {"time": 2446, "pitch": 57, "duration": 5, "velocity": 112}, {"time": 2449, "pitch": 61, "duration": 3, "velocity": 127}, {"time": 2452, "pitch": 40, "duration": 17, "velocity": 89}, {"time": 2455, "pitch": 47, "duration": 15, "velocity": 89}, {"time": 2458, "pitch": 52, "duration": 8, "velocity": 99}, {"time": 2461, "pitch": 59, "duration": 4, "velocity": 99}, {"time": 2464, "pitch": 64, "duration": 6, "velocity": 85}, {"time": 2464, "pitch": 67, "duration": 13, "velocity": 102}, {"time": 2467, "pitch": 52, "duration": 6, "velocity": 112}, {"time": 2470, "pitch": 59, "duration": 7, "velocity": 112}, {"time": 2473, "pitch": 64, "duration": 4, "velocity": 127}, {"time": 2476, "pitch": 45, "duration": 18, "velocity": 88}, {"time": 2479, "pitch": 52, "duration": 11, "velocity": 82}, {"time": 2482, "pitch": 57, "duration": 5, "velocity": 93}, {"time": 2485, "pitch": 61, "duration": 4, "velocity": 83}, {"time": 2488, "pitch": 64, "duration": 6, "velocity": 97}, {"time": 2488, "pitch": 69, "duration": 11, "velocity": 122}, {"time": 2491, "pitch": 52, "duration": 3, "velocity": 107}, {"time": 2494, "pitch": 61, "duration": 7, "velocity": 122}, {"time": 2497, "pitch": 64, "duration": 3, "velocity": 127}, {"time": 2500, "pitch": 38, "duration": 17, "velocity": 97}, {"time": 2503, "pitch": 45, "duration": 14, "velocity": 107}, {"time": 2506, "pitch": 50, "duration": 8, "velocity": 99}, {"time": 2509, "pitch": 57, "duration": 5, "velocity": 92}, {"time": 2512, "pitch": 66, "duration": 12, "velocity": 117}, {"time": 2515, "pitch": 50, "duration": 4, "velocity": 99}, {"time": 2518, "pitch": 62, "duration": 6, "velocity": 112}, {"time": 2521, "pitch": 57, "duration": 3, "velocity": 107}, {"time": 2524, "pitch": 45, "duration": 21, "velocity": 92}, {"time": 2527, "pitch": 52, "duration": 11, "velocity": 99}, {"time": 2530, "pitch": 57, "duration": 5, "velocity": 100}, {"time": 2533, "pitch": 61, "duration": 4, "velocity": 93}, {"time": 2536, "pitch": 64, "duration": 7, "velocity": 93}, {"time": 2536, "pitch": 69, "duration": 14, "velocity": 102}, {"time": 2539, "pitch": 52, "duration": 9, "velocity": 97}, {"time": 2542, "pitch": 61, "duration": 7, "velocity": 112}, {"time": 2545, "pitch": 64, "duration": 4, "velocity": 117}, {"time": 2548, "pitch": 47, "duration": 22, "velocity": 76}, {"time": 2551, "pitch": 54, "duration": 11, "velocity": 92}, {"time": 2554, "pitch": 59, "duration": 5, "velocity": 117}, {"time": 2557, "pitch": 62, "duration": 5, "velocity": 95}, {"time": 2560, "pitch": 71, "duration": 12, "velocity": 122}, {"time": 2563, "pitch": 54, "duration": 6, "velocity": 99}, {"time": 2566, "pitch": 66, "duration": 6, "velocity": 122}, {"time": 2569, "pitch": 62, "duration": 3, "velocity": 107}, {"time": 2572, "pitch": 45, "duration": 10, "velocity": 97}, {"time": 2575, "pitch": 52, "duration": 8, "velocity": 102}, {"time": 2578, "pitch": 57, "duration": 7, "velocity": 97}, {"time": 2578, "pitch": 59, "duration": 2, "velocity": 96}, {"time": 2581, "pitch": 60, "duration": 3, "velocity": 117}, {"time": 2581, "pitch": 64, "duration": 4, "velocity": 93}, {"time": 2584, "pitch": 50, "duration": 7, "velocity": 127}, {"time": 2587, "pitch": 57, "duration": 4, "velocity": 92}, {"time": 2590, "pitch": 62, "duration": 7, "velocity": 112}, {"time": 2590, "pitch": 66, "duration": 8, "velocity": 127}, {"time": 2593, "pitch": 57, "duration": 4, "velocity": 99}, {"time": 2596, "pitch": 43, "duration": 21, "velocity": 82}, {"time": 2599, "pitch": 50, "duration": 11, "velocity": 95}, {"time": 2602, "pitch": 55, "duration": 6, "velocity": 107}, {"time": 2605, "pitch": 59, "duration": 4, "velocity": 90}, {"time": 2608, "pitch": 62, "duration": 7, "velocity": 97}, {"time": 2608, "pitch": 67, "duration": 12, "velocity": 97}, {"time": 2611, "pitch": 50, "duration": 7, "velocity": 93}, {"time": 2614, "pitch": 59, "duration": 6, "velocity": 107}, {"time": 2617, "pitch": 62, "duration": 3, "velocity": 117}, {"time": 2620, "pitch": 42, "duration": 19, "velocity": 93}, {"time": 2623, "pitch": 49, "duration": 15, "velocity": 99}, {"time": 2626, "pitch": 54, "duration": 7, "velocity": 99}, {"time": 2629, "pitch": 57, "duration": 4, "velocity": 90}, {"time": 2632, "pitch": 61, "duration": 7, "velocity": 99}, {"time": 2632, "pitch": 66, "duration": 12, "velocity": 127}, {"time": 2635, "pitch": 54, "duration": 2, "velocity": 99}, {"time": 2638, "pitch": 57, "duration": 6, "velocity": 112}, {"time": 2641, "pitch": 61, "duration": 3, "velocity": 127}, {"time": 2644, "pitch": 40, "duration": 18, "velocity": 89}, {"time": 2647, "pitch": 47, "duration": 15, "velocity": 88}, {"time": 2650, "pitch": 52, "duration": 7, "velocity": 95}, {"time": 2653, "pitch": 59, "duration": 5, "velocity": 92}, {"time": 2656, "pitch": 67, "duration": 10, "velocity": 127}, {"time": 2659, "pitch": 52, "duration": 5, "velocity": 97}, {"time": 2662, "pitch": 64, "duration": 4, "velocity": 117}, {"time": 2665, "pitch": 59, "duration": 4, "velocity": 95}, {"time": 2668, "pitch": 45, "duration": 16, "velocity": 95}, {"time": 2668, "pitch": 61, "duration": 24, "velocity": 99}, {"time": 2668, "pitch": 64, "duration": 24, "velocity": 100}, {"time": 2671, "pitch": 52, "duration": 12, "velocity": 85}, {"time": 2680, "pitch": 57, "duration": 12, "velocity": 107}, {"time": 2692, "pitch": 38, "duration": 18, "velocity": 95}, {"time": 2695, "pitch": 45, "duration": 16, "velocity": 97}, {"time": 2698, "pitch": 50, "duration": 8, "velocity": 102}, {"time": 2701, "pitch": 57, "duration": 7, "velocity": 93}, {"time": 2704, "pitch": 66, "duration": 13, "velocity": 127}, {"time": 2707, "pitch": 50, "duration": 5, "velocity": 117}, {"time": 2710, "pitch": 62, "duration": 6, "velocity": 127}, {"time": 2713, "pitch": 57, "duration": 4, "velocity": 117}, {"time": 2716, "pitch": 45, "duration": 19, "velocity": 85}, {"time": 2719, "pitch": 52, "duration": 11, "velocity": 96}, {"time": 2722, "pitch": 57, "duration": 5, "velocity": 112}, {"time": 2725, "pitch": 61, "duration": 4, "velocity": 92}, {"time": 2728, "pitch": 64, "duration": 7, "velocity": 88}, {"time": 2728, "pitch": 69, "duration": 13, "velocity": 102}, {"time": 2731, "pitch": 52, "duration": 5, "velocity": 86}, {"time": 2734, "pitch": 61, "duration": 5, "velocity": 112}, {"time": 2737, "pitch": 64, "duration": 4, "velocity": 127}, {"time": 2740, "pitch": 47, "duration": 21, "velocity": 86}, {"time": 2743, "pitch": 54, "duration": 11, "velocity": 96}, {"time": 2746, "pitch": 59, "duration": 4, "velocity": 102}, {"time": 2749, "pitch": 62, "duration": 4, "velocity": 99}, {"time": 2752, "pitch": 66, "duration": 7, "velocity": 97}, {"time": 2752, "pitch": 71, "duration": 13, "velocity": 122}, {"time": 2755, "pitch": 54, "duration": 8, "velocity": 93}, {"time": 2758, "pitch": 62, "duration": 6, "velocity": 122}, {"time": 2761, "pitch": 66, "duration": 4, "velocity": 122}, {"time": 2764, "pitch": 45, "duration": 20, "velocity": 100}, {"time": 2767, "pitch": 52, "duration": 12, "velocity": 83}, {"time": 2770, "pitch": 57, "duration": 6, "velocity": 107}, {"time": 2773, "pitch": 61, "duration": 4, "velocity": 97}, {"time": 2776, "pitch": 64, "duration": 7, "velocity": 86}, {"time": 2776, "pitch": 69, "duration": 14, "velocity": 107}, {"time": 2779, "pitch": 52, "duration": 4, "velocity": 99}, {"time": 2782, "pitch": 61, "duration": 6, "velocity": 112}, {"time": 2785, "pitch": 64, "duration": 5, "velocity": 127}, {"time": 2788, "pitch": 43, "duration": 18, "velocity": 97}, {"time": 2791, "pitch": 50, "duration": 11, "velocity": 88}, {"time": 2794, "pitch": 55, "duration": 5, "velocity": 102}, {"time": 2797, "pitch": 59, "duration": 4, "velocity": 95}, {"time": 2800, "pitch": 62, "duration": 7, "velocity": 102}, {"time": 2800, "pitch": 67, "duration": 12, "velocity": 127}, {"time": 2803, "pitch": 50, "duration": 3, "velocity": 95}, {"time": 2806, "pitch": 59, "duration": 6, "velocity": 112}, {"time": 2809, "pitch": 62, "duration": 4, "velocity": 117}, {"time": 2812, "pitch": 42, "duration": 19, "velocity": 96}, {"time": 2815, "pitch": 49, "duration": 16, "velocity": 90}, {"time": 2818, "pitch": 54, "duration": 8, "velocity": 99}, {"time": 2821, "pitch": 57, "duration": 4, "velocity": 96}, {"time": 2824, "pitch": 61, "duration": 7, "velocity": 102}, {"time": 2824, "pitch": 66, "duration": 12, "velocity": 107}, {"time": 2827, "pitch": 54, "duration": 2, "velocity": 107}, {"time": 2830, "pitch": 57, "duration": 5, "velocity": 112}, {"time": 2833, "pitch": 61, "duration": 3, "velocity": 127}, {"time": 2836, "pitch": 40, "duration": 17, "velocity": 89}, {"time": 2839, "pitch": 47, "duration": 15, "velocity": 89}, {"time": 2842, "pitch": 52, "duration": 8, "velocity": 99}, {"time": 2845, "pitch": 59, "duration": 4, "velocity": 99}, {"time": 2848, "pitch": 64, "duration": 6, "velocity": 85}, {"time": 2848, "pitch": 67, "duration": 13, "velocity": 102}, {"time": 2851, "pitch": 52, "duration": 6, "velocity": 112}, {"time": 2854, "pitch": 59, "duration": 7, "velocity": 112}, {"time": 2857, "pitch": 64, "duration": 4, "velocity": 127}, {"time": 2860, "pitch": 45, "duration": 18, "velocity": 88}, {"time": 2863, "pitch": 52, "duration": 11, "velocity": 82}, {"time": 2866, "pitch": 57, "duration": 5, "velocity": 93}, {"time": 2869, "pitch": 61, "duration": 4, "velocity": 83}, {"time": 2872, "pitch": 64, "duration": 6, "velocity": 97}, {"time": 2872, "pitch": 69, "duration": 11, "velocity": 122}, {"time": 2875, "pitch": 52, "duration": 3, "velocity": 107}, {"time": 2878, "pitch": 61, "duration": 7, "velocity": 122}, {"time": 2881, "pitch": 64, "duration": 3, "velocity": 127}, {"time": 2884, "pitch": 38, "duration": 17, "velocity": 97}, {"time": 2887, "pitch": 45, "duration": 14, "velocity": 107}, {"time": 2890, "pitch": 50, "duration": 8, "velocity": 99}, {"time": 2893, "pitch": 57, "duration": 5, "velocity": 92}, {"time": 2896, "pitch": 66, "duration": 12, "velocity": 117}, {"time": 2899, "pitch": 50, "duration": 4, "velocity": 99}, {"time": 2902, "pitch": 62, "duration": 6, "velocity": 112}, {"time": 2905, "pitch": 57, "duration": 3, "velocity": 107}, {"time": 2908, "pitch": 45, "duration": 21, "velocity": 92}, {"time": 2911, "pitch": 52, "duration": 11, "velocity": 99}, {"time": 2914, "pitch": 57, "duration": 5, "velocity": 100}, {"time": 2917, "pitch": 61, "duration": 4, "velocity": 93}, {"time": 2920, "pitch": 64, "duration": 7, "velocity": 93}, {"time": 2920, "pitch": 69, "duration": 14, "velocity": 102}, {"time": 2923, "pitch": 52, "duration": 9, "velocity": 97}, {"time": 2926, "pitch": 61, "duration": 7, "velocity": 112}, {"time": 2929, "pitch": 64, "duration": 4, "velocity": 117}, {"time": 2932, "pitch": 47, "duration": 22, "velocity": 76}, {"time": 2935, "pitch": 54, "duration": 11, "velocity": 92}, {"time": 2938, "pitch": 59, "duration": 5, "velocity": 117}, {"time": 2941, "pitch": 62, "duration": 5, "velocity": 95}, {"time": 2944, "pitch": 71, "duration": 12, "velocity": 122}, {"time": 2947, "pitch": 54, "duration": 6, "velocity": 99}, {"time": 2950, "pitch": 66, "duration": 6, "velocity": 122}, {"time": 2953, "pitch": 62, "duration": 3, "velocity": 107}, {"time": 2956, "pitch": 45, "duration": 10, "velocity": 97}, {"time": 2959, "pitch": 52, "duration": 8, "velocity": 102}, {"time": 2962, "pitch": 57, "duration": 7, "velocity": 97}, {"time": 2962, "pitch": 59, "duration": 2, "velocity": 96}, {"time": 2965, "pitch": 60, "duration": 3, "velocity": 117}, {"time": 2965, "pitch": 64, "duration": 4, "velocity": 93}, {"time": 2968, "pitch": 50, "duration": 7, "velocity": 127}, {"time": 2971, "pitch": 57, "duration": 4, "velocity": 92}, {"time": 2974, "pitch": 62, "duration": 7, "velocity": 112}, {"time": 2974, "pitch": 66, "duration": 8, "velocity": 127}, {"time": 2977, "pitch": 57, "duration": 4, "velocity": 99}, {"time": 2980, "pitch": 43, "duration": 21, "velocity": 82}, {"time": 2983, "pitch": 50, "duration": 11, "velocity": 95}, {"time": 2986, "pitch": 55, "duration": 6, "velocity": 107}, {"time": 2989, "pitch": 59, "duration": 4, "velocity": 90}, {"time": 2992, "pitch": 62, "duration": 7, "velocity": 97}, {"time": 2992, "pitch": 67, "duration": 12, "velocity": 97}, {"time": 2995, "pitch": 50, "duration": 7, "velocity": 93}, {"time": 2998, "pitch": 59, "duration": 6, "velocity": 107}, {"time": 3001, "pitch": 62, "duration": 3, "velocity": 117}, {"time": 3004, "pitch": 42, "duration": 19, "velocity": 93}, {"time": 3007, "pitch": 49, "duration": 15, "velocity": 99}, {"time": 3010, "pitch": 54, "duration": 7, "velocity": 99}, {"time": 3013, "pitch": 57, "duration": 4, "velocity": 90}, {"time": 3016, "pitch": 61, "duration": 7, "velocity": 99}, {"time": 3016, "pitch": 66, "duration": 12, "velocity": 127}, {"time": 3019, "pitch": 54, "duration": 2, "velocity": 99}, {"time": 3022, "pitch": 57, "duration": 6, "velocity": 112}, {"time": 3025, "pitch": 61, "duration": 3, "velocity": 127}, {"time": 3028, "pitch": 40, "duration": 18, "velocity": 89}, {"time": 3031, "pitch": 47, "duration": 15, "velocity": 88}, {"time": 3034, "pitch": 52, "duration": 7, "velocity": 95}, {"time": 3037, "pitch": 59, "duration": 5, "velocity": 92}, {"time": 3040, "pitch": 67, "duration": 10, "velocity": 127}, {"time": 3043, "pitch": 52, "duration": 5, "velocity": 97}, {"time": 3046, "pitch": 64, "duration": 4, "velocity": 117}, {"time": 3049, "pitch": 59, "duration": 3, "velocity": 95}, {"time": 3052, "pitch": 33, "duration": 21, "velocity": 67}, {"time": 3052, "pitch": 40, "duration": 21, "velocity": 89}, {"time": 3052, "pitch": 45, "duration": 21, "velocity": 102}, {"time": 3052, "pitch": 57, "duration": 22, "velocity": 97}, {"time": 3052, "pitch": 61, "duration": 21, "velocity": 117}, {"time": 3052, "pitch": 64, "duration": 21, "velocity": 95}, {"time": 3076, "pitch": 38, "duration": 17, "velocity": 90}, {"time": 3076, "pitch": 57, "duration": 10, "velocity": 95}, {"time": 3076, "pitch": 62, "duration": 7, "velocity": 102}, {"time": 3076, "pitch": 66, "duration": 7, "velocity": 102}, {"time": 3082, "pitch": 50, "duration": 8, "velocity": 82}, {"time": 3088, "pitch": 66, "duration": 11, "velocity": 122}, {"time": 3091, "pitch": 50, "duration": 2, "velocity": 85}, {"time": 3094, "pitch": 62, "duration": 5, "velocity": 97}, {"time": 3097, "pitch": 57, "duration": 4, "velocity": 100}, {"time": 3100, "pitch": 40, "duration": 19, "velocity": 95}, {"time": 3106, "pitch": 47, "duration": 13, "velocity": 50}, {"time": 3112, "pitch": 52, "duration": 4, "velocity": 67}, {"time": 3112, "pitch": 59, "duration": 12, "velocity": 89}, {"time": 3112, "pitch": 64, "duration": 12, "velocity": 90}, {"time": 3118, "pitch": 55, "duration": 6, "velocity": 97}, {"time": 3124, "pitch": 42, "duration": 17, "velocity": 89}, {"time": 3130, "pitch": 54, "duration": 8, "velocity": 58}, {"time": 3136, "pitch": 61, "duration": 7, "velocity": 112}, {"time": 3136, "pitch": 66, "duration": 6, "velocity": 112}, {"time": 3139, "pitch": 54, "duration": 2, "velocity": 88}, {"time": 3142, "pitch": 57, "duration": 5, "velocity": 97}, {"time": 3148, "pitch": 43, "duration": 16, "velocity": 89}, {"time": 3148, "pitch": 55, "duration": 12, "velocity": 97}, {"time": 3148, "pitch": 59, "duration": 11, "velocity": 86}, {"time": 3148, "pitch": 62, "duration": 11, "velocity": 86}, {"time": 3154, "pitch": 50, "duration": 8, "velocity": 52}, {"time": 3160, "pitch": 59, "duration": 6, "velocity": 112}, {"time": 3160, "pitch": 62, "duration": 7, "velocity": 127}, {"time": 3163, "pitch": 50, "duration": 2, "velocity": 122}, {"time": 3166, "pitch": 55, "duration": 2, "velocity": 100}, {"time": 3172, "pitch": 38, "duration": 18, "velocity": 81}, {"time": 3172, "pitch": 57, "duration": 16, "velocity": 107}, {"time": 3172, "pitch": 62, "duration": 11, "velocity": 107}, {"time": 3172, "pitch": 66, "duration": 10, "velocity": 112}, {"time": 3178, "pitch": 50, "duration": 8, "velocity": 58}, {"time": 3184, "pitch": 66, "duration": 7, "velocity": 127}, {"time": 3187, "pitch": 50, "duration": 2, "velocity": 88}, {"time": 3190, "pitch": 62, "duration": 2, "velocity": 102}, {"time": 3196, "pitch": 40, "duration": 17, "velocity": 77}, {"time": 3196, "pitch": 52, "duration": 12, "velocity": 88}, {"time": 3196, "pitch": 55, "duration": 11, "velocity": 85}, {"time": 3196, "pitch": 59, "duration": 11, "velocity": 83}, {"time": 3202, "pitch": 47, "duration": 8, "velocity": 72}, {"time": 3208, "pitch": 59, "duration": 7, "velocity": 107}, {"time": 3211, "pitch": 47, "duration": 2, "velocity": 77}, {"time": 3214, "pitch": 52, "duration": 1, "velocity": 79}, {"time": 3220, "pitch": 31, "duration": 17, "velocity": 96}, {"time": 3220, "pitch": 55, "duration": 7, "velocity": 112}, {"time": 3220, "pitch": 59, "duration": 7, "velocity": 107}, {"time": 3220, "pitch": 62, "duration": 7, "velocity": 107}, {"time": 3226, "pitch": 38, "duration": 11, "velocity": 74}, {"time": 3232, "pitch": 43, "duration": 5, "velocity": 99}, {"time": 3238, "pitch": 31, "duration": 30, "velocity": 72}, {"time": 3238, "pitch": 38, "duration": 31, "velocity": 96}, {"time": 3238, "pitch": 43, "duration": 31, "velocity": 107}, {"time": 3238, "pitch": 62, "duration": 31, "velocity": 112}, {"time": 3238, "pitch": 67, "duration": 30, "velocity": 112}, {"time": 3238, "pitch": 71, "duration": 31, "velocity": 107}], "annotations": [{"time": 7, "annotation": {"number": 64, "value": 127}, "group": "control_change"}, {"time": 8, "annotation": {"number": 64, "value": 0}, "group": "control_change"}, {"time": 10, "annotation": {"number": 64, "value": 127}, "group": "control_change"}, {"time": 27, "annotation": {"number": 64, "value": 0}, "group": "control_change"}, {"time": 28, "annotation": {"number": 64, "value": 127}, "group": "control_change"}, {"time": 75, "annotation": {"number": 64, "value": 0}, "group": "control_change"}, {"time": 76, "annotation": {"number": 64, "value": 127}, "group": "control_change"}, {"time": 98, "annotation": {"number": 64, "value": 0}, "group": "control_change"}, {"time": 100, "annotation": {"number": 64, "value": 127}, "group": "control_change"}, {"time": 135, "annotation": {"number": 64, "value": 0}, "group": "control_change"}, {"time": 136, "annotation": {"number": 64, "value": 127}, "group": "control_change"}, {"time": 146, "annotation": {"number": 64, "value": 0}, "group": "control_change"}, {"time": 147, "annotation": {"number": 64, "value": 127}, "group": "control_change"}, {"time": 196, "annotation": {"number": 64, "value": 0}, "group": "control_change"}, {"time": 212, "annotation": {"number": 64, "value": 127}, "group": "control_change"}, {"time": 220, "annotation": {"number": 64, "value": 0}, "group": "control_change"}, {"time": 222, "annotation": {"number": 64, "value": 127}, "group": "control_change"}, {"time": 243, "annotation": {"number": 64, "value": 0}, "group": "control_change"}, {"time": 245, "annotation": {"number": 64, "value": 127}, "group": "control_change"}, {"time": 281, "annotation": {"number": 64, "value": 0}, "group": "control_change"}, {"time": 292, "annotation": {"number": 64, "value": 127}, "group": "control_change"}, {"time": 314, "annotation": {"number": 64, "value": 0}, "group": "control_change"}, {"time": 317, "annotation": {"number": 64, "value": 127}, "group": "control_change"}, {"time": 338, "annotation": {"number": 64, "value": 0}, "group": "control_change"}, {"time": 341, "annotation": {"number": 64, "value": 127}, "group": "control_change"}, {"time": 362, "annotation": {"number": 64, "value": 0}, "group": "control_change"}, {"time": 365, "annotation": {"number": 64, "value": 127}, "group": "control_change"}, {"time": 383, "annotation": {"number": 64, "value": 0}, "group": "control_change"}, {"time": 389, "annotation": {"number": 64, "value": 127}, "group": "control_change"}, {"time": 410, "annotation": {"number": 64, "value": 0}, "group": "control_change"}, {"time": 413, "annotation": {"number": 64, "value": 127}, "group": "control_change"}, {"time": 434, "annotation": {"number": 64, "value": 0}, "group": "control_change"}, {"time": 437, "annotation": {"number": 64, "value": 127}, "group": "control_change"}, {"time": 470, "annotation": {"number": 64, "value": 0}, "group": "control_change"}, {"time": 484, "annotation": {"number": 64, "value": 127}, "group": "control_change"}, {"time": 506, "annotation": {"number": 64, "value": 0}, "group": "control_change"}, {"time": 509, "annotation": {"number": 64, "value": 127}, "group": "control_change"}, {"time": 518, "annotation": {"number": 64, "value": 0}, "group": "control_change"}, {"time": 520, "annotation": {"number": 64, "value": 127}, "group": "control_change"}, {"time": 530, "annotation": {"number": 64, "value": 0}, "group": "control_change"}, {"time": 533, "annotation": {"number": 64, "value": 127}, "group": "control_change"}, {"time": 554, "annotation": {"number": 64, "value": 0}, "group": "control_change"}, {"time": 557, "annotation": {"number": 64, "value": 127}, "group": "control_change"}, {"time": 578, "annotation": {"number": 64, "value": 0}, "group": "control_change"}, {"time": 581, "annotation": {"number": 64, "value": 127}, "group": "control_change"}, {"time": 604, "annotation": {"number": 64, "value": 0}, "group": "control_change"}, {"time": 628, "annotation": {"number": 64, "value": 127}, "group": "control_change"}, {"time": 650, "annotation": {"number": 64, "value": 0}, "group": "control_change"}, {"time": 653, "annotation": {"number": 64, "value": 127}, "group": "control_change"}, {"time": 672, "annotation": {"number": 64, "value": 0}, "group": "control_change"}, {"time": 677, "annotation": {"number": 64, "value": 127}, "group": "control_change"}, {"time": 697, "annotation": {"number": 64, "value": 0}, "group": "control_change"}, {"time": 701, "annotation": {"number": 64, "value": 127}, "group": "control_change"}, {"time": 702, "annotation": {"number": 64, "value": 0}, "group": "control_change"}, {"time": 704, "annotation": {"number": 64, "value": 127}, "group": "control_change"}, {"time": 721, "annotation": {"number": 64, "value": 0}, "group": "control_change"}, {"time": 725, "annotation": {"number": 64, "value": 127}, "group": "control_change"}, {"time": 745, "annotation": {"number": 64, "value": 0}, "group": "control_change"}, {"time": 748, "annotation": {"number": 64, "value": 127}, "group": "control_change"}, {"time": 758, "annotation": {"number": 64, "value": 0}, "group": "control_change"}, {"time": 760, "annotation": {"number": 64, "value": 127}, "group": "control_change"}, {"time": 769, "annotation": {"number": 64, "value": 0}, "group": "control_change"}, {"time": 772, "annotation": {"number": 64, "value": 127}, "group": "control_change"}, {"time": 781, "annotation": {"number": 64, "value": 0}, "group": "control_change"}, {"time": 783, "annotation": {"number": 64, "value": 127}, "group": "control_change"}, {"time": 792, "annotation": {"number": 64, "value": 0}, "group": "control_change"}, {"time": 796, "annotation": {"number": 64, "value": 127}, "group": "control_change"}, {"time": 805, "annotation": {"number": 64, "value": 0}, "group": "control_change"}, {"time": 808, "annotation": {"number": 64, "value": 127}, "group": "control_change"}, {"time": 817, "annotation": {"number": 64, "value": 0}, "group": "control_change"}, {"time": 820, "annotation": {"number": 64, "value": 127}, "group": "control_change"}, {"time": 841, "annotation": {"number": 64, "value": 0}, "group": "control_change"}, {"time": 844, "annotation": {"number": 64, "value": 127}, "group": "control_change"}, {"time": 865, "annotation": {"number": 64, "value": 0}, "group": "control_change"}, {"time": 869, "annotation": {"number": 64, "value": 127}, "group": "control_change"}, {"time": 889, "annotation": {"number": 64, "value": 0}, "group": "control_change"}, {"time": 906, "annotation": {"number": 64, "value": 127}, "group": "control_change"}, {"time": 913, "annotation": {"number": 64, "value": 0}, "group": "control_change"}, {"time": 917, "annotation": {"number": 64, "value": 127}, "group": "control_change"}, {"time": 937, "annotation": {"number": 64, "value": 0}, "group": "control_change"}, {"time": 941, "annotation": {"number": 64, "value": 127}, "group": "control_change"}, {"time": 961, "annotation": {"number": 64, "value": 0}, "group": "control_change"}, {"time": 964, "annotation": {"number": 64, "value": 127}, "group": "control_change"}, {"time": 985, "annotation": {"number": 64, "value": 0}, "group": "control_change"}, {"time": 989, "annotation": {"number": 64, "value": 127}, "group": "control_change"}, {"time": 1009, "annotation": {"number": 64, "value": 0}, "group": "control_change"}, {"time": 1124, "annotation": {"number": 64, "value": 127}, "group": "control_change"}, {"time": 1132, "annotation": {"number": 64, "value": 0}, "group": "control_change"}, {"time": 1134, "annotation": {"number": 64, "value": 127}, "group": "control_change"}, {"time": 1155, "annotation": {"number": 64, "value": 0}, "group": "control_change"}, {"time": 1157, "annotation": {"number": 64, "value": 127}, "group": "control_change"}, {"time": 1193, "annotation": {"number": 64, "value": 0}, "group": "control_change"}, {"time": 1204, "annotation": {"number": 64, "value": 127}, "group": "control_change"}, {"time": 1226, "annotation": {"number": 64, "value": 0}, "group": "control_change"}, {"time": 1229, "annotation": {"number": 64, "value": 127}, "group": "control_change"}, {"time": 1250, "annotation": {"number": 64, "value": 0}, "group": "control_change"}, {"time": 1253, "annotation": {"number": 64, "value": 127}, "group": "control_change"}, {"time": 1274, "annotation": {"number": 64, "value": 0}, "group": "control_change"}, {"time": 1277, "annotation": {"number": 64, "value": 127}, "group": "control_change"}, {"time": 1295, "annotation": {"number": 64, "value": 0}, "group": "control_change"}, {"time": 1301, "annotation": {"number": 64, "value": 127}, "group": "control_change"}, {"time": 1322, "annotation": {"number": 64, "value": 0}, "group": "control_change"}, {"time": 1325, "annotation": {"number": 64, "value": 127}, "group": "control_change"}, {"time": 1346, "annotation": {"number": 64, "value": 0}, "group": "control_change"}, {"time": 1349, "annotation": {"number": 64, "value": 127}, "group": "control_change"}, {"time": 1382, "annotation": {"number": 64, "value": 0}, "group": "control_change"}, {"time": 1396, "annotation": {"number": 64, "value": 127}, "group": "control_change"}, {"time": 1418, "annotation": {"number": 64, "value": 0}, "group": "control_change"}, {"time": 1421, "annotation": {"number": 64, "value": 127}, "group": "control_change"}, {"time": 1430, "annotation": {"number": 64, "value": 0}, "group": "control_change"}, {"time": 1432, "annotation": {"number": 64, "value": 127}, "group": "control_change"}, {"time": 1442, "annotation": {"number": 64, "value": 0}, "group": "control_change"}, {"time": 1445, "annotation": {"number": 64, "value": 127}, "group": "control_change"}, {"time": 1466, "annotation": {"number": 64, "value": 0}, "group": "control_change"}, {"time": 1469, "annotation": {"number": 64, "value": 127}, "group": "control_change"}, {"time": 1490, "annotation": {"number": 64, "value": 0}, "group": "control_change"}, {"time": 1493, "annotation": {"number": 64, "value": 127}, "group": "control_change"}, {"time": 1516, "annotation": {"number": 64, "value": 0}, "group": "control_change"}, {"time": 1540, "annotation": {"number": 64, "value": 127}, "group": "control_change"}, {"time": 1562, "annotation": {"number": 64, "value": 0}, "group": "control_change"}, {"time": 1565, "annotation": {"number": 64, "value": 127}, "group": "control_change"}, {"time": 1584, "annotation": {"number": 64, "value": 0}, "group": "control_change"}, {"time": 1589, "annotation": {"number": 64, "value": 127}, "group": "control_change"}, {"time": 1609, "annotation": {"number": 64, "value": 0}, "group": "control_change"}, {"time": 1613, "annotation": {"number": 64, "value": 127}, "group": "control_change"}, {"time": 1614, "annotation": {"number": 64, "value": 0}, "group": "control_change"}, {"time": 1616, "annotation": {"number": 64, "value": 127}, "group": "control_change"}, {"time": 1633, "annotation": {"number": 64, "value": 0}, "group": "control_change"}, {"time": 1637, "annotation": {"number": 64, "value": 127}, "group": "control_change"}, {"time": 1657, "annotation": {"number": 64, "value": 0}, "group": "control_change"}, {"time": 1660, "annotation": {"number": 64, "value": 127}, "group": "control_change"}, {"time": 1670, "annotation": {"number": 64, "value": 0}, "group": "control_change"}, {"time": 1672, "annotation": {"number": 64, "value": 127}, "group": "control_change"}, {"time": 1681, "annotation": {"number": 64, "value": 0}, "group": "control_change"}, {"time": 1684, "annotation": {"number": 64, "value": 127}, "group": "control_change"}, {"time": 1693, "annotation": {"number": 64, "value": 0}, "group": "control_change"}, {"time": 1695, "annotation": {"number": 64, "value": 127}, "group": "control_change"}, {"time": 1704, "annotation": {"number": 64, "value": 0}, "group": "control_change"}, {"time": 1708, "annotation": {"number": 64, "value": 127}, "group": "control_change"}, {"time": 1717, "annotation": {"number": 64, "value": 0}, "group": "control_change"}, {"time": 1720, "annotation": {"number": 64, "value": 127}, "group": "control_change"}, {"time": 1729, "annotation": {"number": 64, "value": 0}, "group": "control_change"}, {"time": 1732, "annotation": {"number": 64, "value": 127}, "group": "control_change"}, {"time": 1753, "annotation": {"number": 64, "value": 0}, "group": "control_change"}, {"time": 1756, "annotation": {"number": 64, "value": 127}, "group": "control_change"}, {"time": 1777, "annotation": {"number": 64, "value": 0}, "group": "control_change"}, {"time": 1781, "annotation": {"number": 64, "value": 127}, "group": "control_change"}, {"time": 1801, "annotation": {"number": 64, "value": 0}, "group": "control_change"}, {"time": 1818, "annotation": {"number": 64, "value": 127}, "group": "control_change"}, {"time": 1825, "annotation": {"number": 64, "value": 0}, "group": "control_change"}, {"time": 1829, "annotation": {"number": 64, "value": 127}, "group": "control_change"}, {"time": 1849, "annotation": {"number": 64, "value": 0}, "group": "control_change"}, {"time": 1853, "annotation": {"number": 64, "value": 127}, "group": "control_change"}, {"time": 1873, "annotation": {"number": 64, "value": 0}, "group": "control_change"}, {"time": 1876, "annotation": {"number": 64, "value": 127}, "group": "control_change"}, {"time": 1897, "annotation": {"number": 64, "value": 0}, "group": "control_change"}, {"time": 1901, "annotation": {"number": 64, "value": 127}, "group": "control_change"}, {"time": 1921, "annotation": {"number": 64, "value": 0}, "group": "control_change"}, {"time": 1924, "annotation": {"number": 64, "value": 127}, "group": "control_change"}, {"time": 1945, "annotation": {"number": 64, "value": 0}, "group": "control_change"}, {"time": 1949, "annotation": {"number": 64, "value": 127}, "group": "control_change"}, {"time": 1970, "annotation": {"number": 64, "value": 0}, "group": "control_change"}, {"time": 1973, "annotation": {"number": 64, "value": 127}, "group": "control_change"}, {"time": 2017, "annotation": {"number": 64, "value": 0}, "group": "control_change"}, {"time": 2021, "annotation": {"number": 64, "value": 127}, "group": "control_change"}, {"time": 2042, "annotation": {"number": 64, "value": 0}, "group": "control_change"}, {"time": 2045, "annotation": {"number": 64, "value": 127}, "group": "control_change"}, {"time": 2067, "annotation": {"number": 64, "value": 0}, "group": "control_change"}, {"time": 2121, "annotation": {"number": 64, "value": 127}, "group": "control_change"}, {"time": 2139, "annotation": {"number": 64, "value": 0}, "group": "control_change"}, {"time": 2141, "annotation": {"number": 64, "value": 127}, "group": "control_change"}, {"time": 2162, "annotation": {"number": 64, "value": 0}, "group": "control_change"}, {"time": 2165, "annotation": {"number": 64, "value": 127}, "group": "control_change"}, {"time": 2186, "annotation": {"number": 64, "value": 0}, "group": "control_change"}, {"time": 2189, "annotation": {"number": 64, "value": 127}, "group": "control_change"}, {"time": 2210, "annotation": {"number": 64, "value": 0}, "group": "control_change"}, {"time": 2213, "annotation": {"number": 64, "value": 127}, "group": "control_change"}, {"time": 2234, "annotation": {"number": 64, "value": 0}, "group": "control_change"}, {"time": 2237, "annotation": {"number": 64, "value": 127}, "group": "control_change"}, {"time": 2258, "annotation": {"number": 64, "value": 0}, "group": "control_change"}, {"time": 2261, "annotation": {"number": 64, "value": 127}, "group": "control_change"}, {"time": 2283, "annotation": {"number": 64, "value": 0}, "group": "control_change"}, {"time": 2330, "annotation": {"number": 64, "value": 0}, "group": "control_change"}, {"time": 2333, "annotation": {"number": 64, "value": 127}, "group": "control_change"}, {"time": 2352, "annotation": {"number": 64, "value": 0}, "group": "control_change"}, {"time": 2357, "annotation": {"number": 64, "value": 127}, "group": "control_change"}, {"time": 2377, "annotation": {"number": 64, "value": 0}, "group": "control_change"}, {"time": 2381, "annotation": {"number": 64, "value": 127}, "group": "control_change"}, {"time": 2382, "annotation": {"number": 64, "value": 0}, "group": "control_change"}, {"time": 2384, "annotation": {"number": 64, "value": 127}, "group": "control_change"}, {"time": 2401, "annotation": {"number": 64, "value": 0}, "group": "control_change"}, {"time": 2405, "annotation": {"number": 64, "value": 127}, "group": "control_change"}, {"time": 2425, "annotation": {"number": 64, "value": 0}, "group": "control_change"}, {"time": 2428, "annotation": {"number": 64, "value": 127}, "group": "control_change"}, {"time": 2438, "annotation": {"number": 64, "value": 0}, "group": "control_change"}, {"time": 2440, "annotation": {"number": 64, "value": 127}, "group": "control_change"}, {"time": 2449, "annotation": {"number": 64, "value": 0}, "group": "control_change"}, {"time": 2452, "annotation": {"number": 64, "value": 127}, "group": "control_change"}, {"time": 2461, "annotation": {"number": 64, "value": 0}, "group": "control_change"}, {"time": 2463, "annotation": {"number": 64, "value": 127}, "group": "control_change"}, {"time": 2472, "annotation": {"number": 64, "value": 0}, "group": "control_change"}, {"time": 2476, "annotation": {"number": 64, "value": 127}, "group": "control_change"}, {"time": 2485, "annotation": {"number": 64, "value": 0}, "group": "control_change"}, {"time": 2488, "annotation": {"number": 64, "value": 127}, "group": "control_change"}, {"time": 2497, "annotation": {"number": 64, "value": 0}, "group": "control_change"}, {"time": 2500, "annotation": {"number": 64, "value": 127}, "group": "control_change"}, {"time": 2521, "annotation": {"number": 64, "value": 0}, "group": "control_change"}, {"time": 2524, "annotation": {"number": 64, "value": 127}, "group": "control_change"}, {"time": 2545, "annotation": {"number": 64, "value": 0}, "group": "control_change"}, {"time": 2549, "annotation": {"number": 64, "value": 127}, "group": "control_change"}, {"time": 2569, "annotation": {"number": 64, "value": 0}, "group": "control_change"}, {"time": 2586, "annotation": {"number": 64, "value": 127}, "group": "control_change"}, {"time": 2593, "annotation": {"number": 64, "value": 0}, "group": "control_change"}, {"time": 2597, "annotation": {"number": 64, "value": 127}, "group": "control_change"}, {"time": 2617, "annotation": {"number": 64, "value": 0}, "group": "control_change"}, {"time": 2621, "annotation": {"number": 64, "value": 127}, "group": "control_change"}, {"time": 2641, "annotation": {"number": 64, "value": 0}, "group": "control_change"}, {"time": 2644, "annotation": {"number": 64, "value": 127}, "group": "control_change"}, {"time": 2665, "annotation": {"number": 64, "value": 0}, "group": "control_change"}, {"time": 2669, "annotation": {"number": 64, "value": 127}, "group": "control_change"}, {"time": 2689, "annotation": {"number": 64, "value": 0}, "group": "control_change"}, {"time": 2692, "annotation": {"number": 64, "value": 127}, "group": "control_change"}, {"time": 2714, "annotation": {"number": 64, "value": 0}, "group": "control_change"}, {"time": 2717, "annotation": {"number": 64, "value": 127}, "group": "control_change"}, {"time": 2736, "annotation": {"number": 64, "value": 0}, "group": "control_change"}, {"time": 2741, "annotation": {"number": 64, "value": 127}, "group": "control_change"}, {"time": 2761, "annotation": {"number": 64, "value": 0}, "group": "control_change"}, {"time": 2765, "annotation": {"number": 64, "value": 127}, "group": "control_change"}, {"time": 2766, "annotation": {"number": 64, "value": 0}, "group": "control_change"}, {"time": 2768, "annotation": {"number": 64, "value": 127}, "group": "control_change"}, {"time": 2785, "annotation": {"number": 64, "value": 0}, "group": "control_change"}, {"time": 2789, "annotation": {"number": 64, "value": 127}, "group": "control_change"}, {"time": 2809, "annotation": {"number": 64, "value": 0}, "group": "control_change"}, {"time": 2812, "annotation": {"number": 64, "value": 127}, "group": "control_change"}, {"time": 2822, "annotation": {"number": 64, "value": 0}, "group": "control_change"}, {"time": 2824, "annotation": {"number": 64, "value": 127}, "group": "control_change"}, {"time": 2833, "annotation": {"number": 64, "value": 0}, "group": "control_change"}, {"time": 2836, "annotation": {"number": 64, "value": 127}, "group": "control_change"}, {"time": 2845, "annotation": {"number": 64, "value": 0}, "group": "control_change"}, {"time": 2847, "annotation": {"number": 64, "value": 127}, "group": "control_change"}, {"time": 2856, "annotation": {"number": 64, "value": 0}, "group": "control_change"}, {"time": 2860, "annotation": {"number": 64, "value": 127}, "group": "control_change"}, {"time": 2869, "annotation": {"number": 64, "value": 0}, "group": "control_change"}, {"time": 2872, "annotation": {"number": 64, "value": 127}, "group": "control_change"}, {"time": 2881, "annotation": {"number": 64, "value": 0}, "group": "control_change"}, {"time": 2884, "annotation": {"number": 64, "value": 127}, "group": "control_change"}, {"time": 2905, "annotation": {"number": 64, "value": 0}, "group": "control_change"}, {"time": 2908, "annotation": {"number": 64, "value": 127}, "group": "control_change"}, {"time": 2929, "annotation": {"number": 64, "value": 0}, "group": "control_change"}, {"time": 2933, "annotation": {"number": 64, "value": 127}, "group": "control_change"}, {"time": 2953, "annotation": {"number": 64, "value": 0}, "group": "control_change"}, {"time": 2970, "annotation": {"number": 64, "value": 127}, "group": "control_change"}, {"time": 2977, "annotation": {"number": 64, "value": 0}, "group": "control_change"}, {"time": 2981, "annotation": {"number": 64, "value": 127}, "group": "control_change"}, {"time": 3001, "annotation": {"number": 64, "value": 0}, "group": "control_change"}, {"time": 3005, "annotation": {"number": 64, "value": 127}, "group": "control_change"}, {"time": 3025, "annotation": {"number": 64, "value": 0}, "group": "control_change"}, {"time": 3028, "annotation": {"number": 64, "value": 127}, "group": "control_change"}, {"time": 3049, "annotation": {"number": 64, "value": 0}, "group": "control_change"}, {"time": 3068, "annotation": {"number": 64, "value": 127}, "group": "control_change"}, {"time": 3076, "annotation": {"number": 64, "value": 0}, "group": "control_change"}, {"time": 3077, "annotation": {"number": 64, "value": 127}, "group": "control_change"}, {"time": 3098, "annotation": {"number": 64, "value": 0}, "group": "control_change"}, {"time": 3101, "annotation": {"number": 64, "value": 127}, "group": "control_change"}, {"time": 3122, "annotation": {"number": 64, "value": 0}, "group": "control_change"}, {"time": 3125, "annotation": {"number": 64, "value": 127}, "group": "control_change"}, {"time": 3147, "annotation": {"number": 64, "value": 0}, "group": "control_change"}, {"time": 3150, "annotation": {"number": 64, "value": 127}, "group": "control_change"}, {"time": 3171, "annotation": {"number": 64, "value": 0}, "group": "control_change"}, {"time": 3174, "annotation": {"number": 64, "value": 127}, "group": "control_change"}, {"time": 3195, "annotation": {"number": 64, "value": 0}, "group": "control_change"}, {"time": 3202, "annotation": {"number": 64, "value": 127}, "group": "control_change"}, {"time": 3219, "annotation": {"number": 64, "value": 0}, "group": "control_change"}, {"time": 3220, "annotation": {"number": 64, "value": 127}, "group": "control_change"}, {"time": 3237, "annotation": {"number": 64, "value": 0}, "group": "control_change"}, {"time": 3249, "annotation": {"number": 64, "value": 127}, "group": "control_change"}, {"time": 3304, "annotation": {"number": 64, "value": 0}, "group": "control_change"}]}]}