{"metadata": {"schema_version": "0.2", "title": "None", "source_filename": "360.mid", "source_format": "midi"}, "resolution": 12, "tempos": [{"time": 0, "qpm": 61.99999586666694}], "time_signatures": [{"time": 0, "numerator": 1, "denominator": 4}], "tracks": [{"program": 4, "is_drum": false, "name": "MELODY", "notes": [{"time": 455, "pitch": 69, "duration": 8, "velocity": 122}, {"time": 463, "pitch": 66, "duration": 4, "velocity": 122}, {"time": 467, "pitch": 64, "duration": 6, "velocity": 112}, {"time": 473, "pitch": 66, "duration": 30, "velocity": 112}, {"time": 503, "pitch": 62, "duration": 8, "velocity": 107}, {"time": 511, "pitch": 64, "duration": 4, "velocity": 117}, {"time": 515, "pitch": 69, "duration": 6, "velocity": 117}, {"time": 521, "pitch": 66, "duration": 38, "velocity": 107}, {"time": 559, "pitch": 62, "duration": 4, "velocity": 96}, {"time": 563, "pitch": 59, "duration": 36, "velocity": 97}, {"time": 599, "pitch": 69, "duration": 8, "velocity": 112}, {"time": 607, "pitch": 64, "duration": 40, "velocity": 107}, {"time": 647, "pitch": 69, "duration": 8, "velocity": 102}, {"time": 655, "pitch": 66, "duration": 4, "velocity": 99}, {"time": 659, "pitch": 64, "duration": 5, "velocity": 97}, {"time": 663, "pitch": 66, "duration": 32, "velocity": 100}, {"time": 695, "pitch": 62, "duration": 8, "velocity": 96}, {"time": 703, "pitch": 64, "duration": 4, "velocity": 96}, {"time": 707, "pitch": 69, "duration": 6, "velocity": 100}, {"time": 713, "pitch": 66, "duration": 30, "velocity": 93}, {"time": 743, "pitch": 62, "duration": 4, "velocity": 117}, {"time": 747, "pitch": 62, "duration": 4, "velocity": 92}, {"time": 751, "pitch": 62, "duration": 4, "velocity": 93}, {"time": 755, "pitch": 62, "duration": 4, "velocity": 99}, {"time": 759, "pitch": 59, "duration": 32, "velocity": 83}, {"time": 791, "pitch": 57, "duration": 5, "velocity": 89}, {"time": 795, "pitch": 59, "duration": 8, "velocity": 77}, {"time": 799, "pitch": 69, "duration": 10, "velocity": 96}, {"time": 809, "pitch": 64, "duration": 42, "velocity": 70}, {"time": 851, "pitch": 71, "duration": 8, "velocity": 127}, {"time": 859, "pitch": 71, "duration": 4, "velocity": 112}, {"time": 863, "pitch": 71, "duration": 8, "velocity": 122}, {"time": 871, "pitch": 74, "duration": 4, "velocity": 122}, {"time": 875, "pitch": 73, "duration": 8, "velocity": 112}, {"time": 883, "pitch": 74, "duration": 4, "velocity": 107}, {"time": 887, "pitch": 73, "duration": 8, "velocity": 127}, {"time": 895, "pitch": 69, "duration": 4, "velocity": 122}, {"time": 899, "pitch": 67, "duration": 8, "velocity": 117}, {"time": 907, "pitch": 67, "duration": 4, "velocity": 112}, {"time": 911, "pitch": 67, "duration": 8, "velocity": 122}, {"time": 919, "pitch": 71, "duration": 4, "velocity": 122}, {"time": 923, "pitch": 69, "duration": 20, "velocity": 127}, {"time": 943, "pitch": 57, "duration": 4, "velocity": 102}, {"time": 947, "pitch": 67, "duration": 8, "velocity": 112}, {"time": 955, "pitch": 67, "duration": 4, "velocity": 112}, {"time": 959, "pitch": 67, "duration": 8, "velocity": 117}, {"time": 967, "pitch": 66, "duration": 4, "velocity": 117}, {"time": 971, "pitch": 64, "duration": 12, "velocity": 122}, {"time": 983, "pitch": 64, "duration": 4, "velocity": 127}, {"time": 987, "pitch": 62, "duration": 4, "velocity": 107}, {"time": 991, "pitch": 64, "duration": 4, "velocity": 127}, {"time": 995, "pitch": 66, "duration": 4, "velocity": 127}, {"time": 999, "pitch": 69, "duration": 44, "velocity": 127}, {"time": 1043, "pitch": 71, "duration": 8, "velocity": 127}, {"time": 1051, "pitch": 71, "duration": 4, "velocity": 112}, {"time": 1055, "pitch": 71, "duration": 8, "velocity": 112}, {"time": 1063, "pitch": 74, "duration": 4, "velocity": 117}, {"time": 1067, "pitch": 73, "duration": 8, "velocity": 127}, {"time": 1075, "pitch": 74, "duration": 4, "velocity": 112}, {"time": 1079, "pitch": 73, "duration": 8, "velocity": 127}, {"time": 1087, "pitch": 69, "duration": 4, "velocity": 112}, {"time": 1091, "pitch": 67, "duration": 8, "velocity": 107}, {"time": 1099, "pitch": 67, "duration": 4, "velocity": 112}, {"time": 1103, "pitch": 67, "duration": 8, "velocity": 127}, {"time": 1111, "pitch": 71, "duration": 4, "velocity": 117}, {"time": 1115, "pitch": 69, "duration": 20, "velocity": 122}, {"time": 1135, "pitch": 59, "duration": 4, "velocity": 112}, {"time": 1139, "pitch": 67, "duration": 8, "velocity": 102}, {"time": 1147, "pitch": 67, "duration": 4, "velocity": 117}, {"time": 1151, "pitch": 67, "duration": 8, "velocity": 127}, {"time": 1159, "pitch": 66, "duration": 4, "velocity": 117}, {"time": 1163, "pitch": 64, "duration": 8, "velocity": 127}, {"time": 1171, "pitch": 64, "duration": 4, "velocity": 102}, {"time": 1175, "pitch": 64, "duration": 8, "velocity": 127}, {"time": 1183, "pitch": 64, "duration": 4, "velocity": 107}, {"time": 1187, "pitch": 62, "duration": 36, "velocity": 100}, {"time": 1223, "pitch": 69, "duration": 8, "velocity": 122}, {"time": 1231, "pitch": 66, "duration": 4, "velocity": 122}, {"time": 1235, "pitch": 64, "duration": 6, "velocity": 112}, {"time": 1241, "pitch": 66, "duration": 30, "velocity": 112}, {"time": 1271, "pitch": 62, "duration": 8, "velocity": 107}, {"time": 1279, "pitch": 64, "duration": 4, "velocity": 117}, {"time": 1283, "pitch": 69, "duration": 6, "velocity": 117}, {"time": 1289, "pitch": 66, "duration": 38, "velocity": 107}, {"time": 1327, "pitch": 62, "duration": 4, "velocity": 96}, {"time": 1331, "pitch": 59, "duration": 20, "velocity": 97}, {"time": 1351, "pitch": 71, "duration": 4, "velocity": 107}, {"time": 1355, "pitch": 69, "duration": 19, "velocity": 127}, {"time": 1374, "pitch": 64, "duration": 5, "velocity": 97}, {"time": 1379, "pitch": 69, "duration": 36, "velocity": 122}, {"time": 1415, "pitch": 69, "duration": 8, "velocity": 102}, {"time": 1423, "pitch": 66, "duration": 4, "velocity": 99}, {"time": 1427, "pitch": 64, "duration": 5, "velocity": 97}, {"time": 1431, "pitch": 66, "duration": 32, "velocity": 100}, {"time": 1463, "pitch": 62, "duration": 8, "velocity": 96}, {"time": 1471, "pitch": 64, "duration": 4, "velocity": 96}, {"time": 1475, "pitch": 69, "duration": 6, "velocity": 100}, {"time": 1481, "pitch": 66, "duration": 38, "velocity": 93}, {"time": 1519, "pitch": 62, "duration": 4, "velocity": 99}, {"time": 1523, "pitch": 59, "duration": 20, "velocity": 97}, {"time": 1543, "pitch": 71, "duration": 5, "velocity": 117}, {"time": 1547, "pitch": 69, "duration": 12, "velocity": 102}, {"time": 1559, "pitch": 64, "duration": 5, "velocity": 99}, {"time": 1563, "pitch": 62, "duration": 4, "velocity": 86}, {"time": 1567, "pitch": 59, "duration": 5, "velocity": 93}, {"time": 1571, "pitch": 62, "duration": 25, "velocity": 100}, {"time": 1991, "pitch": 69, "duration": 8, "velocity": 122}, {"time": 1999, "pitch": 66, "duration": 4, "velocity": 122}, {"time": 2003, "pitch": 64, "duration": 6, "velocity": 112}, {"time": 2009, "pitch": 66, "duration": 30, "velocity": 112}, {"time": 2039, "pitch": 62, "duration": 8, "velocity": 107}, {"time": 2047, "pitch": 64, "duration": 4, "velocity": 117}, {"time": 2051, "pitch": 69, "duration": 6, "velocity": 117}, {"time": 2057, "pitch": 66, "duration": 38, "velocity": 107}, {"time": 2095, "pitch": 62, "duration": 4, "velocity": 96}, {"time": 2099, "pitch": 59, "duration": 36, "velocity": 97}, {"time": 2135, "pitch": 69, "duration": 8, "velocity": 112}, {"time": 2143, "pitch": 64, "duration": 40, "velocity": 107}, {"time": 2183, "pitch": 69, "duration": 8, "velocity": 102}, {"time": 2191, "pitch": 66, "duration": 4, "velocity": 99}, {"time": 2195, "pitch": 64, "duration": 5, "velocity": 97}, {"time": 2199, "pitch": 66, "duration": 32, "velocity": 100}, {"time": 2231, "pitch": 62, "duration": 8, "velocity": 96}, {"time": 2239, "pitch": 64, "duration": 4, "velocity": 96}, {"time": 2243, "pitch": 69, "duration": 6, "velocity": 100}, {"time": 2249, "pitch": 66, "duration": 30, "velocity": 93}, {"time": 2279, "pitch": 62, "duration": 4, "velocity": 117}, {"time": 2283, "pitch": 62, "duration": 4, "velocity": 92}, {"time": 2287, "pitch": 62, "duration": 4, "velocity": 93}, {"time": 2291, "pitch": 62, "duration": 4, "velocity": 99}, {"time": 2295, "pitch": 59, "duration": 32, "velocity": 83}, {"time": 2327, "pitch": 57, "duration": 5, "velocity": 89}, {"time": 2331, "pitch": 59, "duration": 8, "velocity": 77}, {"time": 2335, "pitch": 69, "duration": 10, "velocity": 96}, {"time": 2345, "pitch": 64, "duration": 42, "velocity": 70}, {"time": 2387, "pitch": 71, "duration": 8, "velocity": 127}, {"time": 2395, "pitch": 71, "duration": 4, "velocity": 112}, {"time": 2399, "pitch": 71, "duration": 8, "velocity": 122}, {"time": 2407, "pitch": 74, "duration": 4, "velocity": 122}, {"time": 2411, "pitch": 73, "duration": 8, "velocity": 112}, {"time": 2419, "pitch": 74, "duration": 4, "velocity": 107}, {"time": 2423, "pitch": 73, "duration": 8, "velocity": 127}, {"time": 2431, "pitch": 69, "duration": 4, "velocity": 122}, {"time": 2435, "pitch": 67, "duration": 8, "velocity": 117}, {"time": 2443, "pitch": 67, "duration": 4, "velocity": 112}, {"time": 2447, "pitch": 67, "duration": 8, "velocity": 122}, {"time": 2455, "pitch": 71, "duration": 4, "velocity": 122}, {"time": 2459, "pitch": 69, "duration": 20, "velocity": 127}, {"time": 2479, "pitch": 57, "duration": 4, "velocity": 102}, {"time": 2483, "pitch": 67, "duration": 8, "velocity": 112}, {"time": 2491, "pitch": 67, "duration": 4, "velocity": 112}, {"time": 2495, "pitch": 67, "duration": 8, "velocity": 117}, {"time": 2503, "pitch": 66, "duration": 4, "velocity": 117}, {"time": 2507, "pitch": 64, "duration": 12, "velocity": 122}, {"time": 2519, "pitch": 64, "duration": 4, "velocity": 127}, {"time": 2523, "pitch": 62, "duration": 4, "velocity": 107}, {"time": 2527, "pitch": 64, "duration": 4, "velocity": 127}, {"time": 2531, "pitch": 66, "duration": 4, "velocity": 127}, {"time": 2535, "pitch": 69, "duration": 44, "velocity": 127}, {"time": 2579, "pitch": 71, "duration": 8, "velocity": 127}, {"time": 2587, "pitch": 71, "duration": 4, "velocity": 112}, {"time": 2591, "pitch": 71, "duration": 8, "velocity": 112}, {"time": 2599, "pitch": 74, "duration": 4, "velocity": 117}, {"time": 2603, "pitch": 73, "duration": 8, "velocity": 127}, {"time": 2611, "pitch": 74, "duration": 4, "velocity": 112}, {"time": 2615, "pitch": 73, "duration": 8, "velocity": 127}, {"time": 2623, "pitch": 69, "duration": 4, "velocity": 112}, {"time": 2627, "pitch": 67, "duration": 8, "velocity": 107}, {"time": 2635, "pitch": 67, "duration": 4, "velocity": 112}, {"time": 2639, "pitch": 67, "duration": 8, "velocity": 127}, {"time": 2647, "pitch": 71, "duration": 4, "velocity": 117}, {"time": 2651, "pitch": 69, "duration": 20, "velocity": 122}, {"time": 2671, "pitch": 59, "duration": 4, "velocity": 112}, {"time": 2675, "pitch": 67, "duration": 8, "velocity": 102}, {"time": 2683, "pitch": 67, "duration": 4, "velocity": 117}, {"time": 2687, "pitch": 67, "duration": 8, "velocity": 127}, {"time": 2695, "pitch": 66, "duration": 4, "velocity": 117}, {"time": 2699, "pitch": 64, "duration": 8, "velocity": 127}, {"time": 2707, "pitch": 64, "duration": 4, "velocity": 102}, {"time": 2711, "pitch": 64, "duration": 8, "velocity": 127}, {"time": 2719, "pitch": 64, "duration": 4, "velocity": 107}, {"time": 2723, "pitch": 62, "duration": 36, "velocity": 100}, {"time": 2759, "pitch": 69, "duration": 8, "velocity": 122}, {"time": 2767, "pitch": 66, "duration": 4, "velocity": 122}, {"time": 2771, "pitch": 64, "duration": 6, "velocity": 112}, {"time": 2777, "pitch": 66, "duration": 30, "velocity": 112}, {"time": 2807, "pitch": 62, "duration": 8, "velocity": 107}, {"time": 2815, "pitch": 64, "duration": 4, "velocity": 117}, {"time": 2819, "pitch": 69, "duration": 6, "velocity": 117}, {"time": 2825, "pitch": 66, "duration": 38, "velocity": 107}, {"time": 2863, "pitch": 62, "duration": 4, "velocity": 96}, {"time": 2867, "pitch": 59, "duration": 20, "velocity": 97}, {"time": 2887, "pitch": 71, "duration": 4, "velocity": 107}, {"time": 2891, "pitch": 69, "duration": 19, "velocity": 127}, {"time": 2910, "pitch": 64, "duration": 5, "velocity": 97}, {"time": 2915, "pitch": 69, "duration": 36, "velocity": 122}, {"time": 2951, "pitch": 69, "duration": 8, "velocity": 102}, {"time": 2959, "pitch": 66, "duration": 4, "velocity": 99}, {"time": 2963, "pitch": 64, "duration": 5, "velocity": 97}, {"time": 2967, "pitch": 66, "duration": 32, "velocity": 100}, {"time": 2999, "pitch": 62, "duration": 8, "velocity": 96}, {"time": 3007, "pitch": 64, "duration": 4, "velocity": 96}, {"time": 3011, "pitch": 69, "duration": 6, "velocity": 100}, {"time": 3017, "pitch": 66, "duration": 38, "velocity": 93}, {"time": 3055, "pitch": 62, "duration": 4, "velocity": 99}, {"time": 3059, "pitch": 59, "duration": 20, "velocity": 97}, {"time": 3079, "pitch": 71, "duration": 5, "velocity": 117}, {"time": 3083, "pitch": 69, "duration": 12, "velocity": 102}, {"time": 3095, "pitch": 64, "duration": 5, "velocity": 99}, {"time": 3099, "pitch": 62, "duration": 4, "velocity": 86}, {"time": 3103, "pitch": 59, "duration": 5, "velocity": 93}, {"time": 3107, "pitch": 62, "duration": 36, "velocity": 100}, {"time": 3143, "pitch": 69, "duration": 8, "velocity": 102}, {"time": 3151, "pitch": 66, "duration": 4, "velocity": 99}, {"time": 3155, "pitch": 64, "duration": 5, "velocity": 97}, {"time": 3159, "pitch": 66, "duration": 32, "velocity": 100}, {"time": 3191, "pitch": 62, "duration": 8, "velocity": 96}, {"time": 3199, "pitch": 64, "duration": 4, "velocity": 96}, {"time": 3203, "pitch": 69, "duration": 6, "velocity": 100}, {"time": 3209, "pitch": 66, "duration": 38, "velocity": 93}, {"time": 3247, "pitch": 62, "duration": 4, "velocity": 99}, {"time": 3251, "pitch": 59, "duration": 20, "velocity": 97}, {"time": 3271, "pitch": 71, "duration": 5, "velocity": 117}, {"time": 3275, "pitch": 69, "duration": 12, "velocity": 102}, {"time": 3287, "pitch": 64, "duration": 5, "velocity": 99}, {"time": 3291, "pitch": 62, "duration": 4, "velocity": 86}, {"time": 3295, "pitch": 59, "duration": 5, "velocity": 93}, {"time": 3299, "pitch": 62, "duration": 25, "velocity": 100}]}, {"program": 0, "is_drum": false, "name": "PIANO", "notes": [{"time": 83, "pitch": 38, "duration": 24, "velocity": 85}, {"time": 87, "pitch": 45, "duration": 22, "velocity": 59}, {"time": 91, "pitch": 50, "duration": 9, "velocity": 81}, {"time": 95, "pitch": 66, "duration": 21, "velocity": 100}, {"time": 99, "pitch": 62, "duration": 19, "velocity": 68}, {"time": 103, "pitch": 57, "duration": 18, "velocity": 78}, {"time": 107, "pitch": 38, "duration": 1, "velocity": 76}, {"time": 111, "pitch": 45, "duration": 13, "velocity": 64}, {"time": 115, "pitch": 50, "duration": 10, "velocity": 85}, {"time": 119, "pitch": 66, "duration": 13, "velocity": 112}, {"time": 123, "pitch": 62, "duration": 9, "velocity": 62}, {"time": 127, "pitch": 57, "duration": 7, "velocity": 77}, {"time": 131, "pitch": 42, "duration": 23, "velocity": 82}, {"time": 135, "pitch": 49, "duration": 19, "velocity": 69}, {"time": 139, "pitch": 54, "duration": 17, "velocity": 66}, {"time": 143, "pitch": 66, "duration": 22, "velocity": 95}, {"time": 147, "pitch": 61, "duration": 20, "velocity": 73}, {"time": 151, "pitch": 57, "duration": 12, "velocity": 73}, {"time": 155, "pitch": 42, "duration": 17, "velocity": 83}, {"time": 159, "pitch": 49, "duration": 12, "velocity": 72}, {"time": 163, "pitch": 54, "duration": 8, "velocity": 55}, {"time": 167, "pitch": 66, "duration": 12, "velocity": 99}, {"time": 171, "pitch": 61, "duration": 9, "velocity": 55}, {"time": 175, "pitch": 57, "duration": 6, "velocity": 72}, {"time": 179, "pitch": 43, "duration": 22, "velocity": 82}, {"time": 183, "pitch": 50, "duration": 21, "velocity": 71}, {"time": 187, "pitch": 55, "duration": 6, "velocity": 69}, {"time": 191, "pitch": 62, "duration": 14, "velocity": 102}, {"time": 195, "pitch": 59, "duration": 10, "velocity": 82}, {"time": 199, "pitch": 55, "duration": 6, "velocity": 70}, {"time": 203, "pitch": 43, "duration": 21, "velocity": 69}, {"time": 207, "pitch": 50, "duration": 20, "velocity": 82}, {"time": 211, "pitch": 55, "duration": 5, "velocity": 86}, {"time": 215, "pitch": 62, "duration": 5, "velocity": 96}, {"time": 219, "pitch": 59, "duration": 8, "velocity": 69}, {"time": 223, "pitch": 62, "duration": 4, "velocity": 75}, {"time": 227, "pitch": 45, "duration": 23, "velocity": 83}, {"time": 231, "pitch": 52, "duration": 21, "velocity": 37}, {"time": 235, "pitch": 57, "duration": 5, "velocity": 74}, {"time": 239, "pitch": 64, "duration": 21, "velocity": 93}, {"time": 243, "pitch": 61, "duration": 16, "velocity": 100}, {"time": 247, "pitch": 57, "duration": 10, "velocity": 79}, {"time": 251, "pitch": 45, "duration": 15, "velocity": 85}, {"time": 255, "pitch": 52, "duration": 10, "velocity": 75}, {"time": 259, "pitch": 57, "duration": 5, "velocity": 71}, {"time": 263, "pitch": 64, "duration": 12, "velocity": 99}, {"time": 267, "pitch": 61, "duration": 8, "velocity": 112}, {"time": 271, "pitch": 57, "duration": 6, "velocity": 97}, {"time": 275, "pitch": 38, "duration": 22, "velocity": 88}, {"time": 279, "pitch": 45, "duration": 21, "velocity": 74}, {"time": 283, "pitch": 50, "duration": 6, "velocity": 88}, {"time": 287, "pitch": 66, "duration": 21, "velocity": 112}, {"time": 291, "pitch": 62, "duration": 17, "velocity": 69}, {"time": 295, "pitch": 57, "duration": 12, "velocity": 86}, {"time": 299, "pitch": 38, "duration": 17, "velocity": 71}, {"time": 303, "pitch": 45, "duration": 13, "velocity": 83}, {"time": 307, "pitch": 50, "duration": 11, "velocity": 88}, {"time": 311, "pitch": 66, "duration": 13, "velocity": 107}, {"time": 315, "pitch": 62, "duration": 9, "velocity": 62}, {"time": 319, "pitch": 57, "duration": 6, "velocity": 88}, {"time": 323, "pitch": 42, "duration": 23, "velocity": 83}, {"time": 327, "pitch": 49, "duration": 21, "velocity": 64}, {"time": 331, "pitch": 54, "duration": 18, "velocity": 93}, {"time": 335, "pitch": 66, "duration": 22, "velocity": 97}, {"time": 339, "pitch": 61, "duration": 19, "velocity": 89}, {"time": 343, "pitch": 57, "duration": 12, "velocity": 79}, {"time": 347, "pitch": 42, "duration": 16, "velocity": 69}, {"time": 351, "pitch": 49, "duration": 12, "velocity": 49}, {"time": 355, "pitch": 54, "duration": 7, "velocity": 93}, {"time": 359, "pitch": 66, "duration": 12, "velocity": 112}, {"time": 363, "pitch": 61, "duration": 8, "velocity": 90}, {"time": 367, "pitch": 57, "duration": 5, "velocity": 90}, {"time": 371, "pitch": 43, "duration": 22, "velocity": 70}, {"time": 375, "pitch": 50, "duration": 20, "velocity": 88}, {"time": 379, "pitch": 55, "duration": 5, "velocity": 78}, {"time": 383, "pitch": 62, "duration": 12, "velocity": 107}, {"time": 387, "pitch": 55, "duration": 8, "velocity": 83}, {"time": 391, "pitch": 59, "duration": 4, "velocity": 99}, {"time": 395, "pitch": 45, "duration": 15, "velocity": 78}, {"time": 399, "pitch": 52, "duration": 10, "velocity": 67}, {"time": 403, "pitch": 57, "duration": 5, "velocity": 74}, {"time": 407, "pitch": 64, "duration": 13, "velocity": 97}, {"time": 411, "pitch": 61, "duration": 9, "velocity": 96}, {"time": 415, "pitch": 57, "duration": 5, "velocity": 81}, {"time": 419, "pitch": 38, "duration": 22, "velocity": 82}, {"time": 423, "pitch": 45, "duration": 21, "velocity": 71}, {"time": 427, "pitch": 50, "duration": 9, "velocity": 92}, {"time": 431, "pitch": 66, "duration": 35, "velocity": 107}, {"time": 435, "pitch": 62, "duration": 32, "velocity": 67}, {"time": 439, "pitch": 57, "duration": 28, "velocity": 78}, {"time": 443, "pitch": 38, "duration": 20, "velocity": 82}, {"time": 467, "pitch": 38, "duration": 23, "velocity": 88}, {"time": 475, "pitch": 45, "duration": 17, "velocity": 55}, {"time": 479, "pitch": 66, "duration": 21, "velocity": 99}, {"time": 487, "pitch": 62, "duration": 15, "velocity": 65}, {"time": 491, "pitch": 38, "duration": 15, "velocity": 75}, {"time": 499, "pitch": 45, "duration": 8, "velocity": 56}, {"time": 503, "pitch": 66, "duration": 12, "velocity": 127}, {"time": 511, "pitch": 62, "duration": 4, "velocity": 72}, {"time": 515, "pitch": 42, "duration": 23, "velocity": 75}, {"time": 519, "pitch": 49, "duration": 21, "velocity": 72}, {"time": 523, "pitch": 54, "duration": 18, "velocity": 69}, {"time": 527, "pitch": 66, "duration": 22, "velocity": 112}, {"time": 535, "pitch": 61, "duration": 13, "velocity": 52}, {"time": 539, "pitch": 42, "duration": 17, "velocity": 73}, {"time": 547, "pitch": 49, "duration": 10, "velocity": 60}, {"time": 551, "pitch": 66, "duration": 12, "velocity": 96}, {"time": 559, "pitch": 61, "duration": 5, "velocity": 54}, {"time": 563, "pitch": 43, "duration": 23, "velocity": 77}, {"time": 571, "pitch": 50, "duration": 17, "velocity": 66}, {"time": 575, "pitch": 59, "duration": 17, "velocity": 74}, {"time": 575, "pitch": 62, "duration": 16, "velocity": 82}, {"time": 583, "pitch": 55, "duration": 7, "velocity": 51}, {"time": 587, "pitch": 43, "duration": 22, "velocity": 76}, {"time": 595, "pitch": 50, "duration": 16, "velocity": 70}, {"time": 599, "pitch": 62, "duration": 13, "velocity": 102}, {"time": 607, "pitch": 59, "duration": 5, "velocity": 65}, {"time": 611, "pitch": 45, "duration": 23, "velocity": 90}, {"time": 619, "pitch": 52, "duration": 17, "velocity": 65}, {"time": 623, "pitch": 64, "duration": 23, "velocity": 92}, {"time": 631, "pitch": 61, "duration": 15, "velocity": 66}, {"time": 635, "pitch": 45, "duration": 16, "velocity": 73}, {"time": 647, "pitch": 64, "duration": 12, "velocity": 90}, {"time": 659, "pitch": 38, "duration": 22, "velocity": 93}, {"time": 667, "pitch": 45, "duration": 17, "velocity": 63}, {"time": 671, "pitch": 66, "duration": 21, "velocity": 99}, {"time": 679, "pitch": 62, "duration": 13, "velocity": 67}, {"time": 683, "pitch": 38, "duration": 19, "velocity": 85}, {"time": 691, "pitch": 45, "duration": 12, "velocity": 55}, {"time": 695, "pitch": 66, "duration": 13, "velocity": 99}, {"time": 703, "pitch": 62, "duration": 5, "velocity": 61}, {"time": 707, "pitch": 42, "duration": 22, "velocity": 69}, {"time": 715, "pitch": 49, "duration": 15, "velocity": 47}, {"time": 719, "pitch": 61, "duration": 20, "velocity": 112}, {"time": 727, "pitch": 57, "duration": 11, "velocity": 73}, {"time": 731, "pitch": 42, "duration": 16, "velocity": 75}, {"time": 739, "pitch": 54, "duration": 7, "velocity": 61}, {"time": 743, "pitch": 57, "duration": 5, "velocity": 107}, {"time": 751, "pitch": 57, "duration": 5, "velocity": 74}, {"time": 755, "pitch": 43, "duration": 22, "velocity": 70}, {"time": 763, "pitch": 50, "duration": 16, "velocity": 62}, {"time": 767, "pitch": 62, "duration": 17, "velocity": 100}, {"time": 775, "pitch": 59, "duration": 12, "velocity": 68}, {"time": 779, "pitch": 43, "duration": 22, "velocity": 83}, {"time": 787, "pitch": 50, "duration": 16, "velocity": 52}, {"time": 791, "pitch": 59, "duration": 12, "velocity": 85}, {"time": 791, "pitch": 62, "duration": 12, "velocity": 93}, {"time": 799, "pitch": 55, "duration": 4, "velocity": 62}, {"time": 803, "pitch": 45, "duration": 22, "velocity": 79}, {"time": 811, "pitch": 52, "duration": 16, "velocity": 61}, {"time": 815, "pitch": 64, "duration": 22, "velocity": 96}, {"time": 823, "pitch": 61, "duration": 15, "velocity": 73}, {"time": 827, "pitch": 45, "duration": 19, "velocity": 82}, {"time": 827, "pitch": 57, "duration": 11, "velocity": 63}, {"time": 839, "pitch": 61, "duration": 11, "velocity": 127}, {"time": 839, "pitch": 64, "duration": 11, "velocity": 97}, {"time": 843, "pitch": 52, "duration": 3, "velocity": 53}, {"time": 847, "pitch": 57, "duration": 4, "velocity": 73}, {"time": 851, "pitch": 35, "duration": 18, "velocity": 86}, {"time": 855, "pitch": 42, "duration": 15, "velocity": 69}, {"time": 859, "pitch": 47, "duration": 11, "velocity": 97}, {"time": 863, "pitch": 66, "duration": 11, "velocity": 127}, {"time": 867, "pitch": 62, "duration": 7, "velocity": 68}, {"time": 871, "pitch": 59, "duration": 5, "velocity": 107}, {"time": 875, "pitch": 42, "duration": 20, "velocity": 74}, {"time": 879, "pitch": 49, "duration": 15, "velocity": 35}, {"time": 883, "pitch": 54, "duration": 6, "velocity": 112}, {"time": 887, "pitch": 57, "duration": 1, "velocity": 37}, {"time": 887, "pitch": 66, "duration": 7, "velocity": 127}, {"time": 891, "pitch": 54, "duration": 3, "velocity": 102}, {"time": 895, "pitch": 61, "duration": 5, "velocity": 95}, {"time": 895, "pitch": 66, "duration": 5, "velocity": 77}, {"time": 899, "pitch": 43, "duration": 18, "velocity": 78}, {"time": 903, "pitch": 50, "duration": 11, "velocity": 74}, {"time": 907, "pitch": 55, "duration": 4, "velocity": 93}, {"time": 911, "pitch": 59, "duration": 12, "velocity": 92}, {"time": 911, "pitch": 62, "duration": 11, "velocity": 112}, {"time": 915, "pitch": 50, "duration": 2, "velocity": 78}, {"time": 919, "pitch": 55, "duration": 5, "velocity": 96}, {"time": 923, "pitch": 38, "duration": 20, "velocity": 92}, {"time": 927, "pitch": 45, "duration": 19, "velocity": 72}, {"time": 931, "pitch": 50, "duration": 6, "velocity": 96}, {"time": 935, "pitch": 62, "duration": 12, "velocity": 96}, {"time": 935, "pitch": 66, "duration": 13, "velocity": 117}, {"time": 939, "pitch": 50, "duration": 2, "velocity": 99}, {"time": 943, "pitch": 57, "duration": 5, "velocity": 97}, {"time": 947, "pitch": 40, "duration": 18, "velocity": 92}, {"time": 951, "pitch": 47, "duration": 14, "velocity": 76}, {"time": 955, "pitch": 52, "duration": 6, "velocity": 85}, {"time": 959, "pitch": 59, "duration": 12, "velocity": 85}, {"time": 959, "pitch": 64, "duration": 12, "velocity": 89}, {"time": 963, "pitch": 52, "duration": 3, "velocity": 82}, {"time": 967, "pitch": 55, "duration": 5, "velocity": 99}, {"time": 971, "pitch": 45, "duration": 17, "velocity": 96}, {"time": 975, "pitch": 52, "duration": 12, "velocity": 81}, {"time": 979, "pitch": 57, "duration": 5, "velocity": 88}, {"time": 983, "pitch": 61, "duration": 5, "velocity": 102}, {"time": 983, "pitch": 64, "duration": 12, "velocity": 97}, {"time": 987, "pitch": 57, "duration": 9, "velocity": 93}, {"time": 991, "pitch": 61, "duration": 4, "velocity": 100}, {"time": 995, "pitch": 36, "duration": 1, "velocity": 76}, {"time": 995, "pitch": 38, "duration": 22, "velocity": 75}, {"time": 999, "pitch": 45, "duration": 20, "velocity": 86}, {"time": 1003, "pitch": 50, "duration": 7, "velocity": 97}, {"time": 1007, "pitch": 66, "duration": 23, "velocity": 127}, {"time": 1011, "pitch": 50, "duration": 2, "velocity": 58}, {"time": 1011, "pitch": 62, "duration": 4, "velocity": 97}, {"time": 1015, "pitch": 57, "duration": 15, "velocity": 112}, {"time": 1019, "pitch": 38, "duration": 22, "velocity": 97}, {"time": 1019, "pitch": 60, "duration": 10, "velocity": 117}, {"time": 1019, "pitch": 62, "duration": 11, "velocity": 96}, {"time": 1023, "pitch": 45, "duration": 18, "velocity": 89}, {"time": 1027, "pitch": 50, "duration": 6, "velocity": 97}, {"time": 1031, "pitch": 60, "duration": 11, "velocity": 100}, {"time": 1031, "pitch": 62, "duration": 12, "velocity": 100}, {"time": 1031, "pitch": 66, "duration": 12, "velocity": 127}, {"time": 1035, "pitch": 50, "duration": 2, "velocity": 95}, {"time": 1039, "pitch": 57, "duration": 4, "velocity": 100}, {"time": 1043, "pitch": 35, "duration": 18, "velocity": 86}, {"time": 1047, "pitch": 42, "duration": 15, "velocity": 69}, {"time": 1051, "pitch": 47, "duration": 11, "velocity": 97}, {"time": 1055, "pitch": 66, "duration": 11, "velocity": 127}, {"time": 1059, "pitch": 62, "duration": 7, "velocity": 68}, {"time": 1063, "pitch": 59, "duration": 5, "velocity": 107}, {"time": 1067, "pitch": 42, "duration": 20, "velocity": 74}, {"time": 1071, "pitch": 49, "duration": 15, "velocity": 35}, {"time": 1075, "pitch": 54, "duration": 6, "velocity": 112}, {"time": 1079, "pitch": 57, "duration": 1, "velocity": 37}, {"time": 1079, "pitch": 66, "duration": 7, "velocity": 127}, {"time": 1083, "pitch": 54, "duration": 3, "velocity": 102}, {"time": 1087, "pitch": 61, "duration": 5, "velocity": 95}, {"time": 1087, "pitch": 66, "duration": 5, "velocity": 77}, {"time": 1091, "pitch": 43, "duration": 18, "velocity": 78}, {"time": 1095, "pitch": 50, "duration": 11, "velocity": 74}, {"time": 1099, "pitch": 55, "duration": 4, "velocity": 93}, {"time": 1103, "pitch": 59, "duration": 12, "velocity": 92}, {"time": 1103, "pitch": 62, "duration": 11, "velocity": 112}, {"time": 1107, "pitch": 50, "duration": 2, "velocity": 78}, {"time": 1111, "pitch": 55, "duration": 5, "velocity": 96}, {"time": 1115, "pitch": 38, "duration": 20, "velocity": 92}, {"time": 1119, "pitch": 45, "duration": 19, "velocity": 72}, {"time": 1123, "pitch": 50, "duration": 6, "velocity": 96}, {"time": 1127, "pitch": 62, "duration": 12, "velocity": 96}, {"time": 1127, "pitch": 66, "duration": 13, "velocity": 117}, {"time": 1131, "pitch": 50, "duration": 2, "velocity": 99}, {"time": 1135, "pitch": 57, "duration": 5, "velocity": 97}, {"time": 1139, "pitch": 40, "duration": 18, "velocity": 92}, {"time": 1143, "pitch": 47, "duration": 14, "velocity": 76}, {"time": 1147, "pitch": 52, "duration": 6, "velocity": 85}, {"time": 1151, "pitch": 59, "duration": 12, "velocity": 85}, {"time": 1151, "pitch": 64, "duration": 12, "velocity": 89}, {"time": 1155, "pitch": 52, "duration": 3, "velocity": 82}, {"time": 1159, "pitch": 55, "duration": 5, "velocity": 99}, {"time": 1163, "pitch": 45, "duration": 17, "velocity": 96}, {"time": 1167, "pitch": 52, "duration": 12, "velocity": 81}, {"time": 1171, "pitch": 57, "duration": 5, "velocity": 88}, {"time": 1175, "pitch": 61, "duration": 5, "velocity": 102}, {"time": 1175, "pitch": 64, "duration": 12, "velocity": 97}, {"time": 1179, "pitch": 57, "duration": 8, "velocity": 93}, {"time": 1183, "pitch": 61, "duration": 4, "velocity": 100}, {"time": 1187, "pitch": 38, "duration": 22, "velocity": 96}, {"time": 1191, "pitch": 45, "duration": 21, "velocity": 79}, {"time": 1194, "pitch": 50, "duration": 7, "velocity": 88}, {"time": 1199, "pitch": 66, "duration": 35, "velocity": 127}, {"time": 1203, "pitch": 50, "duration": 2, "velocity": 72}, {"time": 1207, "pitch": 62, "duration": 28, "velocity": 88}, {"time": 1211, "pitch": 57, "duration": 13, "velocity": 92}, {"time": 1211, "pitch": 38, "duration": 16, "velocity": 85}, {"time": 1235, "pitch": 38, "duration": 23, "velocity": 85}, {"time": 1239, "pitch": 45, "duration": 20, "velocity": 67}, {"time": 1243, "pitch": 50, "duration": 5, "velocity": 88}, {"time": 1247, "pitch": 62, "duration": 14, "velocity": 75}, {"time": 1247, "pitch": 66, "duration": 14, "velocity": 107}, {"time": 1255, "pitch": 57, "duration": 6, "velocity": 66}, {"time": 1259, "pitch": 38, "duration": 14, "velocity": 79}, {"time": 1263, "pitch": 45, "duration": 10, "velocity": 67}, {"time": 1267, "pitch": 50, "duration": 4, "velocity": 75}, {"time": 1271, "pitch": 66, "duration": 12, "velocity": 85}, {"time": 1271, "pitch": 62, "duration": 12, "velocity": 82}, {"time": 1283, "pitch": 42, "duration": 23, "velocity": 92}, {"time": 1287, "pitch": 49, "duration": 20, "velocity": 63}, {"time": 1290, "pitch": 54, "duration": 20, "velocity": 68}, {"time": 1295, "pitch": 61, "duration": 21, "velocity": 82}, {"time": 1295, "pitch": 66, "duration": 21, "velocity": 95}, {"time": 1303, "pitch": 57, "duration": 7, "velocity": 86}, {"time": 1307, "pitch": 42, "duration": 15, "velocity": 72}, {"time": 1311, "pitch": 49, "duration": 10, "velocity": 73}, {"time": 1315, "pitch": 54, "duration": 5, "velocity": 81}, {"time": 1319, "pitch": 61, "duration": 13, "velocity": 85}, {"time": 1319, "pitch": 66, "duration": 12, "velocity": 95}, {"time": 1327, "pitch": 57, "duration": 5, "velocity": 73}, {"time": 1331, "pitch": 43, "duration": 21, "velocity": 76}, {"time": 1335, "pitch": 50, "duration": 17, "velocity": 79}, {"time": 1339, "pitch": 55, "duration": 4, "velocity": 85}, {"time": 1343, "pitch": 59, "duration": 9, "velocity": 75}, {"time": 1343, "pitch": 62, "duration": 9, "velocity": 74}, {"time": 1351, "pitch": 55, "duration": 1, "velocity": 82}, {"time": 1355, "pitch": 45, "duration": 15, "velocity": 85}, {"time": 1359, "pitch": 52, "duration": 9, "velocity": 69}, {"time": 1363, "pitch": 57, "duration": 4, "velocity": 70}, {"time": 1366, "pitch": 61, "duration": 13, "velocity": 93}, {"time": 1367, "pitch": 64, "duration": 11, "velocity": 92}, {"time": 1375, "pitch": 57, "duration": 5, "velocity": 67}, {"time": 1379, "pitch": 38, "duration": 22, "velocity": 82}, {"time": 1382, "pitch": 45, "duration": 21, "velocity": 50}, {"time": 1386, "pitch": 50, "duration": 11, "velocity": 83}, {"time": 1391, "pitch": 66, "duration": 21, "velocity": 96}, {"time": 1391, "pitch": 62, "duration": 21, "velocity": 85}, {"time": 1399, "pitch": 57, "duration": 13, "velocity": 74}, {"time": 1403, "pitch": 38, "duration": 19, "velocity": 78}, {"time": 1407, "pitch": 45, "duration": 16, "velocity": 53}, {"time": 1411, "pitch": 50, "duration": 7, "velocity": 73}, {"time": 1415, "pitch": 66, "duration": 12, "velocity": 96}, {"time": 1415, "pitch": 62, "duration": 12, "velocity": 96}, {"time": 1423, "pitch": 57, "duration": 4, "velocity": 81}, {"time": 1427, "pitch": 47, "duration": 22, "velocity": 74}, {"time": 1431, "pitch": 54, "duration": 20, "velocity": 77}, {"time": 1435, "pitch": 59, "duration": 4, "velocity": 79}, {"time": 1439, "pitch": 66, "duration": 17, "velocity": 99}, {"time": 1439, "pitch": 62, "duration": 17, "velocity": 75}, {"time": 1446, "pitch": 59, "duration": 8, "velocity": 92}, {"time": 1450, "pitch": 47, "duration": 14, "velocity": 81}, {"time": 1454, "pitch": 54, "duration": 9, "velocity": 71}, {"time": 1458, "pitch": 59, "duration": 5, "velocity": 66}, {"time": 1463, "pitch": 62, "duration": 12, "velocity": 72}, {"time": 1463, "pitch": 66, "duration": 11, "velocity": 95}, {"time": 1471, "pitch": 59, "duration": 5, "velocity": 64}, {"time": 1475, "pitch": 42, "duration": 22, "velocity": 63}, {"time": 1479, "pitch": 49, "duration": 19, "velocity": 52}, {"time": 1483, "pitch": 54, "duration": 15, "velocity": 90}, {"time": 1487, "pitch": 61, "duration": 17, "velocity": 95}, {"time": 1487, "pitch": 66, "duration": 16, "velocity": 96}, {"time": 1495, "pitch": 57, "duration": 5, "velocity": 82}, {"time": 1499, "pitch": 42, "duration": 15, "velocity": 70}, {"time": 1502, "pitch": 49, "duration": 11, "velocity": 35}, {"time": 1506, "pitch": 54, "duration": 6, "velocity": 89}, {"time": 1511, "pitch": 61, "duration": 12, "velocity": 100}, {"time": 1511, "pitch": 66, "duration": 12, "velocity": 99}, {"time": 1523, "pitch": 43, "duration": 14, "velocity": 92}, {"time": 1527, "pitch": 50, "duration": 10, "velocity": 68}, {"time": 1531, "pitch": 55, "duration": 4, "velocity": 77}, {"time": 1535, "pitch": 62, "duration": 12, "velocity": 96}, {"time": 1535, "pitch": 59, "duration": 12, "velocity": 90}, {"time": 1543, "pitch": 55, "duration": 4, "velocity": 77}, {"time": 1547, "pitch": 45, "duration": 13, "velocity": 90}, {"time": 1551, "pitch": 52, "duration": 8, "velocity": 68}, {"time": 1555, "pitch": 57, "duration": 5, "velocity": 77}, {"time": 1559, "pitch": 61, "duration": 11, "velocity": 100}, {"time": 1559, "pitch": 64, "duration": 11, "velocity": 93}, {"time": 1567, "pitch": 57, "duration": 5, "velocity": 83}, {"time": 1571, "pitch": 38, "duration": 22, "velocity": 92}, {"time": 1575, "pitch": 45, "duration": 20, "velocity": 48}, {"time": 1579, "pitch": 50, "duration": 8, "velocity": 86}, {"time": 1583, "pitch": 66, "duration": 22, "velocity": 93}, {"time": 1584, "pitch": 62, "duration": 21, "velocity": 92}, {"time": 1591, "pitch": 57, "duration": 16, "velocity": 82}, {"time": 1595, "pitch": 38, "duration": 22, "velocity": 86}, {"time": 1607, "pitch": 66, "duration": 12, "velocity": 82}, {"time": 1607, "pitch": 62, "duration": 12, "velocity": 81}, {"time": 1620, "pitch": 38, "duration": 24, "velocity": 85}, {"time": 1624, "pitch": 45, "duration": 21, "velocity": 59}, {"time": 1628, "pitch": 50, "duration": 9, "velocity": 81}, {"time": 1632, "pitch": 66, "duration": 20, "velocity": 100}, {"time": 1636, "pitch": 62, "duration": 19, "velocity": 68}, {"time": 1640, "pitch": 57, "duration": 18, "velocity": 78}, {"time": 1644, "pitch": 38, "duration": 1, "velocity": 76}, {"time": 1648, "pitch": 45, "duration": 13, "velocity": 64}, {"time": 1652, "pitch": 50, "duration": 10, "velocity": 85}, {"time": 1656, "pitch": 66, "duration": 13, "velocity": 112}, {"time": 1660, "pitch": 62, "duration": 9, "velocity": 62}, {"time": 1664, "pitch": 57, "duration": 7, "velocity": 77}, {"time": 1668, "pitch": 42, "duration": 22, "velocity": 82}, {"time": 1672, "pitch": 49, "duration": 19, "velocity": 69}, {"time": 1676, "pitch": 54, "duration": 17, "velocity": 66}, {"time": 1680, "pitch": 66, "duration": 21, "velocity": 95}, {"time": 1684, "pitch": 61, "duration": 20, "velocity": 73}, {"time": 1688, "pitch": 57, "duration": 11, "velocity": 73}, {"time": 1692, "pitch": 42, "duration": 16, "velocity": 83}, {"time": 1696, "pitch": 49, "duration": 12, "velocity": 72}, {"time": 1700, "pitch": 54, "duration": 8, "velocity": 55}, {"time": 1704, "pitch": 66, "duration": 12, "velocity": 99}, {"time": 1708, "pitch": 61, "duration": 9, "velocity": 55}, {"time": 1712, "pitch": 57, "duration": 5, "velocity": 72}, {"time": 1716, "pitch": 43, "duration": 22, "velocity": 82}, {"time": 1720, "pitch": 50, "duration": 21, "velocity": 71}, {"time": 1724, "pitch": 55, "duration": 5, "velocity": 69}, {"time": 1728, "pitch": 62, "duration": 14, "velocity": 102}, {"time": 1732, "pitch": 59, "duration": 10, "velocity": 82}, {"time": 1736, "pitch": 55, "duration": 6, "velocity": 70}, {"time": 1740, "pitch": 43, "duration": 21, "velocity": 69}, {"time": 1744, "pitch": 50, "duration": 19, "velocity": 82}, {"time": 1748, "pitch": 55, "duration": 5, "velocity": 86}, {"time": 1752, "pitch": 62, "duration": 5, "velocity": 96}, {"time": 1756, "pitch": 59, "duration": 8, "velocity": 69}, {"time": 1760, "pitch": 62, "duration": 4, "velocity": 75}, {"time": 1764, "pitch": 45, "duration": 23, "velocity": 83}, {"time": 1768, "pitch": 52, "duration": 21, "velocity": 37}, {"time": 1772, "pitch": 57, "duration": 5, "velocity": 74}, {"time": 1776, "pitch": 64, "duration": 21, "velocity": 93}, {"time": 1780, "pitch": 61, "duration": 16, "velocity": 100}, {"time": 1784, "pitch": 57, "duration": 10, "velocity": 79}, {"time": 1788, "pitch": 45, "duration": 15, "velocity": 85}, {"time": 1792, "pitch": 52, "duration": 10, "velocity": 75}, {"time": 1796, "pitch": 57, "duration": 5, "velocity": 71}, {"time": 1800, "pitch": 64, "duration": 12, "velocity": 99}, {"time": 1804, "pitch": 61, "duration": 8, "velocity": 112}, {"time": 1808, "pitch": 57, "duration": 6, "velocity": 97}, {"time": 1812, "pitch": 38, "duration": 22, "velocity": 88}, {"time": 1816, "pitch": 45, "duration": 20, "velocity": 74}, {"time": 1820, "pitch": 50, "duration": 6, "velocity": 88}, {"time": 1824, "pitch": 66, "duration": 21, "velocity": 112}, {"time": 1828, "pitch": 62, "duration": 17, "velocity": 69}, {"time": 1832, "pitch": 57, "duration": 12, "velocity": 86}, {"time": 1836, "pitch": 38, "duration": 17, "velocity": 71}, {"time": 1840, "pitch": 45, "duration": 13, "velocity": 83}, {"time": 1844, "pitch": 50, "duration": 10, "velocity": 88}, {"time": 1848, "pitch": 66, "duration": 13, "velocity": 107}, {"time": 1852, "pitch": 62, "duration": 9, "velocity": 62}, {"time": 1856, "pitch": 57, "duration": 6, "velocity": 88}, {"time": 1860, "pitch": 42, "duration": 22, "velocity": 83}, {"time": 1864, "pitch": 49, "duration": 20, "velocity": 64}, {"time": 1868, "pitch": 54, "duration": 18, "velocity": 93}, {"time": 1872, "pitch": 66, "duration": 22, "velocity": 97}, {"time": 1876, "pitch": 61, "duration": 18, "velocity": 89}, {"time": 1880, "pitch": 57, "duration": 12, "velocity": 79}, {"time": 1884, "pitch": 42, "duration": 16, "velocity": 69}, {"time": 1888, "pitch": 49, "duration": 12, "velocity": 49}, {"time": 1892, "pitch": 54, "duration": 7, "velocity": 93}, {"time": 1896, "pitch": 66, "duration": 11, "velocity": 112}, {"time": 1900, "pitch": 61, "duration": 8, "velocity": 90}, {"time": 1904, "pitch": 57, "duration": 5, "velocity": 90}, {"time": 1908, "pitch": 43, "duration": 22, "velocity": 70}, {"time": 1912, "pitch": 50, "duration": 20, "velocity": 88}, {"time": 1916, "pitch": 55, "duration": 5, "velocity": 78}, {"time": 1920, "pitch": 62, "duration": 12, "velocity": 107}, {"time": 1924, "pitch": 55, "duration": 8, "velocity": 83}, {"time": 1928, "pitch": 59, "duration": 4, "velocity": 99}, {"time": 1932, "pitch": 45, "duration": 15, "velocity": 78}, {"time": 1936, "pitch": 52, "duration": 10, "velocity": 67}, {"time": 1940, "pitch": 57, "duration": 5, "velocity": 74}, {"time": 1944, "pitch": 64, "duration": 12, "velocity": 97}, {"time": 1948, "pitch": 61, "duration": 8, "velocity": 96}, {"time": 1952, "pitch": 57, "duration": 5, "velocity": 81}, {"time": 1956, "pitch": 38, "duration": 22, "velocity": 82}, {"time": 1960, "pitch": 45, "duration": 21, "velocity": 71}, {"time": 1964, "pitch": 50, "duration": 9, "velocity": 92}, {"time": 1968, "pitch": 66, "duration": 35, "velocity": 107}, {"time": 1972, "pitch": 62, "duration": 32, "velocity": 67}, {"time": 1976, "pitch": 57, "duration": 28, "velocity": 78}, {"time": 1980, "pitch": 38, "duration": 20, "velocity": 82}, {"time": 2004, "pitch": 38, "duration": 22, "velocity": 88}, {"time": 2012, "pitch": 45, "duration": 16, "velocity": 55}, {"time": 2016, "pitch": 66, "duration": 21, "velocity": 99}, {"time": 2024, "pitch": 62, "duration": 15, "velocity": 65}, {"time": 2028, "pitch": 38, "duration": 15, "velocity": 75}, {"time": 2036, "pitch": 45, "duration": 8, "velocity": 56}, {"time": 2040, "pitch": 66, "duration": 12, "velocity": 127}, {"time": 2048, "pitch": 62, "duration": 4, "velocity": 72}, {"time": 2052, "pitch": 42, "duration": 22, "velocity": 75}, {"time": 2056, "pitch": 49, "duration": 21, "velocity": 72}, {"time": 2060, "pitch": 54, "duration": 18, "velocity": 69}, {"time": 2064, "pitch": 66, "duration": 22, "velocity": 112}, {"time": 2072, "pitch": 61, "duration": 13, "velocity": 52}, {"time": 2076, "pitch": 42, "duration": 17, "velocity": 73}, {"time": 2084, "pitch": 49, "duration": 9, "velocity": 60}, {"time": 2088, "pitch": 66, "duration": 12, "velocity": 96}, {"time": 2096, "pitch": 61, "duration": 4, "velocity": 54}, {"time": 2100, "pitch": 43, "duration": 23, "velocity": 77}, {"time": 2108, "pitch": 50, "duration": 16, "velocity": 66}, {"time": 2112, "pitch": 59, "duration": 17, "velocity": 74}, {"time": 2112, "pitch": 62, "duration": 16, "velocity": 82}, {"time": 2120, "pitch": 55, "duration": 6, "velocity": 51}, {"time": 2124, "pitch": 43, "duration": 22, "velocity": 76}, {"time": 2132, "pitch": 50, "duration": 15, "velocity": 70}, {"time": 2136, "pitch": 62, "duration": 13, "velocity": 102}, {"time": 2144, "pitch": 59, "duration": 4, "velocity": 65}, {"time": 2148, "pitch": 45, "duration": 23, "velocity": 90}, {"time": 2156, "pitch": 52, "duration": 16, "velocity": 65}, {"time": 2160, "pitch": 64, "duration": 23, "velocity": 92}, {"time": 2168, "pitch": 61, "duration": 15, "velocity": 66}, {"time": 2172, "pitch": 45, "duration": 16, "velocity": 73}, {"time": 2184, "pitch": 64, "duration": 12, "velocity": 90}, {"time": 2196, "pitch": 38, "duration": 22, "velocity": 93}, {"time": 2204, "pitch": 45, "duration": 17, "velocity": 63}, {"time": 2208, "pitch": 66, "duration": 21, "velocity": 99}, {"time": 2216, "pitch": 62, "duration": 13, "velocity": 67}, {"time": 2220, "pitch": 38, "duration": 19, "velocity": 85}, {"time": 2228, "pitch": 45, "duration": 12, "velocity": 55}, {"time": 2232, "pitch": 66, "duration": 13, "velocity": 99}, {"time": 2240, "pitch": 62, "duration": 4, "velocity": 61}, {"time": 2244, "pitch": 42, "duration": 22, "velocity": 69}, {"time": 2252, "pitch": 49, "duration": 14, "velocity": 47}, {"time": 2256, "pitch": 61, "duration": 20, "velocity": 112}, {"time": 2264, "pitch": 57, "duration": 11, "velocity": 73}, {"time": 2268, "pitch": 42, "duration": 15, "velocity": 75}, {"time": 2276, "pitch": 54, "duration": 7, "velocity": 61}, {"time": 2280, "pitch": 61, "duration": 12, "velocity": 107}, {"time": 2288, "pitch": 57, "duration": 5, "velocity": 74}, {"time": 2292, "pitch": 43, "duration": 22, "velocity": 70}, {"time": 2300, "pitch": 50, "duration": 16, "velocity": 62}, {"time": 2304, "pitch": 62, "duration": 17, "velocity": 100}, {"time": 2312, "pitch": 59, "duration": 12, "velocity": 68}, {"time": 2316, "pitch": 43, "duration": 22, "velocity": 83}, {"time": 2324, "pitch": 50, "duration": 16, "velocity": 52}, {"time": 2328, "pitch": 59, "duration": 11, "velocity": 85}, {"time": 2328, "pitch": 62, "duration": 12, "velocity": 93}, {"time": 2336, "pitch": 55, "duration": 4, "velocity": 62}, {"time": 2340, "pitch": 45, "duration": 22, "velocity": 79}, {"time": 2348, "pitch": 52, "duration": 16, "velocity": 61}, {"time": 2352, "pitch": 64, "duration": 22, "velocity": 96}, {"time": 2360, "pitch": 61, "duration": 15, "velocity": 73}, {"time": 2364, "pitch": 45, "duration": 19, "velocity": 82}, {"time": 2364, "pitch": 57, "duration": 11, "velocity": 63}, {"time": 2376, "pitch": 61, "duration": 11, "velocity": 127}, {"time": 2376, "pitch": 64, "duration": 11, "velocity": 97}, {"time": 2380, "pitch": 52, "duration": 2, "velocity": 53}, {"time": 2384, "pitch": 57, "duration": 4, "velocity": 73}, {"time": 2388, "pitch": 35, "duration": 18, "velocity": 86}, {"time": 2392, "pitch": 42, "duration": 15, "velocity": 69}, {"time": 2396, "pitch": 47, "duration": 11, "velocity": 97}, {"time": 2400, "pitch": 66, "duration": 11, "velocity": 127}, {"time": 2404, "pitch": 62, "duration": 7, "velocity": 68}, {"time": 2408, "pitch": 59, "duration": 4, "velocity": 107}, {"time": 2412, "pitch": 42, "duration": 19, "velocity": 74}, {"time": 2416, "pitch": 49, "duration": 15, "velocity": 35}, {"time": 2420, "pitch": 54, "duration": 6, "velocity": 112}, {"time": 2424, "pitch": 57, "duration": 1, "velocity": 37}, {"time": 2424, "pitch": 66, "duration": 7, "velocity": 127}, {"time": 2428, "pitch": 54, "duration": 3, "velocity": 102}, {"time": 2432, "pitch": 61, "duration": 5, "velocity": 95}, {"time": 2432, "pitch": 66, "duration": 5, "velocity": 77}, {"time": 2436, "pitch": 43, "duration": 17, "velocity": 78}, {"time": 2440, "pitch": 50, "duration": 11, "velocity": 74}, {"time": 2444, "pitch": 55, "duration": 4, "velocity": 93}, {"time": 2448, "pitch": 59, "duration": 11, "velocity": 92}, {"time": 2448, "pitch": 62, "duration": 11, "velocity": 112}, {"time": 2452, "pitch": 50, "duration": 2, "velocity": 78}, {"time": 2456, "pitch": 55, "duration": 5, "velocity": 96}, {"time": 2460, "pitch": 38, "duration": 20, "velocity": 92}, {"time": 2464, "pitch": 45, "duration": 19, "velocity": 72}, {"time": 2468, "pitch": 50, "duration": 6, "velocity": 96}, {"time": 2472, "pitch": 62, "duration": 12, "velocity": 96}, {"time": 2472, "pitch": 66, "duration": 12, "velocity": 117}, {"time": 2476, "pitch": 50, "duration": 2, "velocity": 99}, {"time": 2480, "pitch": 57, "duration": 5, "velocity": 97}, {"time": 2484, "pitch": 40, "duration": 18, "velocity": 92}, {"time": 2488, "pitch": 47, "duration": 14, "velocity": 76}, {"time": 2492, "pitch": 52, "duration": 6, "velocity": 85}, {"time": 2496, "pitch": 59, "duration": 11, "velocity": 85}, {"time": 2496, "pitch": 64, "duration": 12, "velocity": 89}, {"time": 2500, "pitch": 52, "duration": 3, "velocity": 82}, {"time": 2504, "pitch": 55, "duration": 4, "velocity": 99}, {"time": 2508, "pitch": 45, "duration": 17, "velocity": 96}, {"time": 2512, "pitch": 52, "duration": 12, "velocity": 81}, {"time": 2516, "pitch": 57, "duration": 5, "velocity": 88}, {"time": 2520, "pitch": 61, "duration": 5, "velocity": 102}, {"time": 2520, "pitch": 64, "duration": 12, "velocity": 97}, {"time": 2524, "pitch": 57, "duration": 8, "velocity": 93}, {"time": 2528, "pitch": 61, "duration": 4, "velocity": 100}, {"time": 2532, "pitch": 36, "duration": 1, "velocity": 76}, {"time": 2532, "pitch": 38, "duration": 22, "velocity": 75}, {"time": 2536, "pitch": 45, "duration": 20, "velocity": 86}, {"time": 2540, "pitch": 50, "duration": 7, "velocity": 97}, {"time": 2544, "pitch": 66, "duration": 22, "velocity": 127}, {"time": 2548, "pitch": 50, "duration": 2, "velocity": 58}, {"time": 2548, "pitch": 62, "duration": 4, "velocity": 97}, {"time": 2552, "pitch": 57, "duration": 15, "velocity": 112}, {"time": 2556, "pitch": 38, "duration": 22, "velocity": 97}, {"time": 2556, "pitch": 60, "duration": 10, "velocity": 117}, {"time": 2556, "pitch": 62, "duration": 11, "velocity": 96}, {"time": 2560, "pitch": 45, "duration": 18, "velocity": 89}, {"time": 2564, "pitch": 50, "duration": 6, "velocity": 97}, {"time": 2568, "pitch": 60, "duration": 11, "velocity": 100}, {"time": 2568, "pitch": 62, "duration": 11, "velocity": 100}, {"time": 2568, "pitch": 66, "duration": 11, "velocity": 127}, {"time": 2572, "pitch": 50, "duration": 2, "velocity": 95}, {"time": 2576, "pitch": 57, "duration": 4, "velocity": 100}, {"time": 2580, "pitch": 35, "duration": 18, "velocity": 86}, {"time": 2584, "pitch": 42, "duration": 15, "velocity": 69}, {"time": 2588, "pitch": 47, "duration": 11, "velocity": 97}, {"time": 2592, "pitch": 66, "duration": 11, "velocity": 127}, {"time": 2596, "pitch": 62, "duration": 7, "velocity": 68}, {"time": 2600, "pitch": 59, "duration": 4, "velocity": 107}, {"time": 2604, "pitch": 42, "duration": 19, "velocity": 74}, {"time": 2608, "pitch": 49, "duration": 15, "velocity": 35}, {"time": 2612, "pitch": 54, "duration": 6, "velocity": 112}, {"time": 2616, "pitch": 57, "duration": 1, "velocity": 37}, {"time": 2616, "pitch": 66, "duration": 7, "velocity": 127}, {"time": 2620, "pitch": 54, "duration": 3, "velocity": 102}, {"time": 2624, "pitch": 61, "duration": 5, "velocity": 95}, {"time": 2624, "pitch": 66, "duration": 5, "velocity": 77}, {"time": 2628, "pitch": 43, "duration": 17, "velocity": 78}, {"time": 2632, "pitch": 50, "duration": 11, "velocity": 74}, {"time": 2636, "pitch": 55, "duration": 4, "velocity": 93}, {"time": 2640, "pitch": 59, "duration": 11, "velocity": 92}, {"time": 2640, "pitch": 62, "duration": 11, "velocity": 112}, {"time": 2644, "pitch": 50, "duration": 2, "velocity": 78}, {"time": 2648, "pitch": 55, "duration": 5, "velocity": 96}, {"time": 2652, "pitch": 38, "duration": 20, "velocity": 92}, {"time": 2656, "pitch": 45, "duration": 19, "velocity": 72}, {"time": 2660, "pitch": 50, "duration": 6, "velocity": 96}, {"time": 2664, "pitch": 62, "duration": 12, "velocity": 96}, {"time": 2664, "pitch": 66, "duration": 12, "velocity": 117}, {"time": 2668, "pitch": 50, "duration": 2, "velocity": 99}, {"time": 2672, "pitch": 57, "duration": 5, "velocity": 97}, {"time": 2676, "pitch": 40, "duration": 18, "velocity": 92}, {"time": 2680, "pitch": 47, "duration": 14, "velocity": 76}, {"time": 2684, "pitch": 52, "duration": 6, "velocity": 85}, {"time": 2688, "pitch": 59, "duration": 11, "velocity": 85}, {"time": 2688, "pitch": 64, "duration": 12, "velocity": 89}, {"time": 2692, "pitch": 52, "duration": 3, "velocity": 82}, {"time": 2696, "pitch": 55, "duration": 4, "velocity": 99}, {"time": 2700, "pitch": 45, "duration": 17, "velocity": 96}, {"time": 2704, "pitch": 52, "duration": 12, "velocity": 81}, {"time": 2708, "pitch": 57, "duration": 5, "velocity": 88}, {"time": 2712, "pitch": 61, "duration": 5, "velocity": 102}, {"time": 2712, "pitch": 64, "duration": 12, "velocity": 97}, {"time": 2716, "pitch": 57, "duration": 8, "velocity": 93}, {"time": 2720, "pitch": 61, "duration": 4, "velocity": 100}, {"time": 2724, "pitch": 38, "duration": 22, "velocity": 96}, {"time": 2728, "pitch": 45, "duration": 21, "velocity": 79}, {"time": 2731, "pitch": 50, "duration": 7, "velocity": 88}, {"time": 2736, "pitch": 66, "duration": 35, "velocity": 127}, {"time": 2740, "pitch": 50, "duration": 2, "velocity": 72}, {"time": 2744, "pitch": 62, "duration": 28, "velocity": 88}, {"time": 2748, "pitch": 57, "duration": 13, "velocity": 92}, {"time": 2748, "pitch": 38, "duration": 15, "velocity": 85}, {"time": 2772, "pitch": 38, "duration": 22, "velocity": 85}, {"time": 2776, "pitch": 45, "duration": 20, "velocity": 67}, {"time": 2780, "pitch": 50, "duration": 5, "velocity": 88}, {"time": 2784, "pitch": 62, "duration": 14, "velocity": 75}, {"time": 2784, "pitch": 66, "duration": 14, "velocity": 107}, {"time": 2792, "pitch": 57, "duration": 5, "velocity": 66}, {"time": 2796, "pitch": 38, "duration": 14, "velocity": 79}, {"time": 2799, "pitch": 45, "duration": 11, "velocity": 67}, {"time": 2804, "pitch": 50, "duration": 4, "velocity": 75}, {"time": 2808, "pitch": 66, "duration": 12, "velocity": 85}, {"time": 2808, "pitch": 62, "duration": 12, "velocity": 82}, {"time": 2820, "pitch": 42, "duration": 23, "velocity": 92}, {"time": 2824, "pitch": 49, "duration": 20, "velocity": 63}, {"time": 2827, "pitch": 54, "duration": 20, "velocity": 68}, {"time": 2832, "pitch": 61, "duration": 21, "velocity": 82}, {"time": 2832, "pitch": 66, "duration": 21, "velocity": 95}, {"time": 2840, "pitch": 57, "duration": 7, "velocity": 86}, {"time": 2844, "pitch": 42, "duration": 15, "velocity": 72}, {"time": 2848, "pitch": 49, "duration": 10, "velocity": 73}, {"time": 2852, "pitch": 54, "duration": 5, "velocity": 81}, {"time": 2856, "pitch": 61, "duration": 12, "velocity": 85}, {"time": 2856, "pitch": 66, "duration": 12, "velocity": 95}, {"time": 2864, "pitch": 57, "duration": 5, "velocity": 73}, {"time": 2868, "pitch": 43, "duration": 21, "velocity": 76}, {"time": 2871, "pitch": 50, "duration": 18, "velocity": 79}, {"time": 2876, "pitch": 55, "duration": 4, "velocity": 85}, {"time": 2880, "pitch": 59, "duration": 9, "velocity": 75}, {"time": 2880, "pitch": 62, "duration": 9, "velocity": 74}, {"time": 2888, "pitch": 55, "duration": 1, "velocity": 82}, {"time": 2891, "pitch": 45, "duration": 16, "velocity": 85}, {"time": 2896, "pitch": 52, "duration": 9, "velocity": 69}, {"time": 2900, "pitch": 57, "duration": 4, "velocity": 70}, {"time": 2903, "pitch": 61, "duration": 12, "velocity": 93}, {"time": 2903, "pitch": 64, "duration": 12, "velocity": 92}, {"time": 2912, "pitch": 57, "duration": 5, "velocity": 67}, {"time": 2916, "pitch": 38, "duration": 22, "velocity": 82}, {"time": 2919, "pitch": 45, "duration": 21, "velocity": 50}, {"time": 2923, "pitch": 50, "duration": 11, "velocity": 83}, {"time": 2928, "pitch": 66, "duration": 21, "velocity": 96}, {"time": 2928, "pitch": 62, "duration": 21, "velocity": 85}, {"time": 2935, "pitch": 57, "duration": 14, "velocity": 74}, {"time": 2940, "pitch": 38, "duration": 19, "velocity": 78}, {"time": 2943, "pitch": 45, "duration": 17, "velocity": 53}, {"time": 2948, "pitch": 50, "duration": 7, "velocity": 73}, {"time": 2952, "pitch": 66, "duration": 12, "velocity": 96}, {"time": 2952, "pitch": 62, "duration": 12, "velocity": 96}, {"time": 2959, "pitch": 57, "duration": 4, "velocity": 81}, {"time": 2964, "pitch": 47, "duration": 22, "velocity": 74}, {"time": 2967, "pitch": 54, "duration": 20, "velocity": 77}, {"time": 2971, "pitch": 59, "duration": 5, "velocity": 79}, {"time": 2976, "pitch": 66, "duration": 17, "velocity": 99}, {"time": 2976, "pitch": 62, "duration": 17, "velocity": 75}, {"time": 2983, "pitch": 59, "duration": 8, "velocity": 92}, {"time": 2987, "pitch": 47, "duration": 14, "velocity": 81}, {"time": 2991, "pitch": 54, "duration": 9, "velocity": 71}, {"time": 2995, "pitch": 59, "duration": 5, "velocity": 66}, {"time": 2999, "pitch": 62, "duration": 12, "velocity": 72}, {"time": 3000, "pitch": 66, "duration": 11, "velocity": 95}, {"time": 3008, "pitch": 59, "duration": 5, "velocity": 64}, {"time": 3011, "pitch": 42, "duration": 23, "velocity": 63}, {"time": 3016, "pitch": 49, "duration": 19, "velocity": 52}, {"time": 3019, "pitch": 54, "duration": 16, "velocity": 90}, {"time": 3024, "pitch": 61, "duration": 16, "velocity": 95}, {"time": 3024, "pitch": 66, "duration": 16, "velocity": 96}, {"time": 3031, "pitch": 57, "duration": 6, "velocity": 82}, {"time": 3035, "pitch": 42, "duration": 16, "velocity": 70}, {"time": 3039, "pitch": 49, "duration": 11, "velocity": 35}, {"time": 3043, "pitch": 54, "duration": 6, "velocity": 89}, {"time": 3048, "pitch": 61, "duration": 12, "velocity": 100}, {"time": 3048, "pitch": 66, "duration": 12, "velocity": 99}, {"time": 3060, "pitch": 43, "duration": 14, "velocity": 92}, {"time": 3064, "pitch": 50, "duration": 10, "velocity": 68}, {"time": 3068, "pitch": 55, "duration": 4, "velocity": 77}, {"time": 3072, "pitch": 62, "duration": 12, "velocity": 96}, {"time": 3072, "pitch": 59, "duration": 12, "velocity": 90}, {"time": 3080, "pitch": 55, "duration": 4, "velocity": 77}, {"time": 3084, "pitch": 45, "duration": 12, "velocity": 90}, {"time": 3088, "pitch": 52, "duration": 8, "velocity": 68}, {"time": 3091, "pitch": 57, "duration": 6, "velocity": 77}, {"time": 3096, "pitch": 61, "duration": 11, "velocity": 100}, {"time": 3096, "pitch": 64, "duration": 11, "velocity": 93}, {"time": 3104, "pitch": 57, "duration": 5, "velocity": 83}, {"time": 3108, "pitch": 38, "duration": 22, "velocity": 92}, {"time": 3112, "pitch": 45, "duration": 20, "velocity": 48}, {"time": 3116, "pitch": 50, "duration": 8, "velocity": 86}, {"time": 3120, "pitch": 66, "duration": 21, "velocity": 93}, {"time": 3120, "pitch": 62, "duration": 22, "velocity": 92}, {"time": 3128, "pitch": 57, "duration": 15, "velocity": 82}, {"time": 3132, "pitch": 38, "duration": 22, "velocity": 86}, {"time": 3144, "pitch": 66, "duration": 12, "velocity": 82}, {"time": 3144, "pitch": 62, "duration": 11, "velocity": 81}, {"time": 3155, "pitch": 47, "duration": 23, "velocity": 86}, {"time": 3158, "pitch": 54, "duration": 11, "velocity": 70}, {"time": 3163, "pitch": 59, "duration": 3, "velocity": 69}, {"time": 3167, "pitch": 66, "duration": 15, "velocity": 112}, {"time": 3167, "pitch": 62, "duration": 15, "velocity": 93}, {"time": 3171, "pitch": 54, "duration": 9, "velocity": 63}, {"time": 3175, "pitch": 59, "duration": 7, "velocity": 82}, {"time": 3179, "pitch": 47, "duration": 14, "velocity": 72}, {"time": 3183, "pitch": 54, "duration": 6, "velocity": 100}, {"time": 3187, "pitch": 59, "duration": 4, "velocity": 72}, {"time": 3191, "pitch": 62, "duration": 9, "velocity": 85}, {"time": 3191, "pitch": 66, "duration": 11, "velocity": 102}, {"time": 3199, "pitch": 59, "duration": 5, "velocity": 66}, {"time": 3203, "pitch": 42, "duration": 22, "velocity": 100}, {"time": 3206, "pitch": 54, "duration": 9, "velocity": 56}, {"time": 3210, "pitch": 57, "duration": 5, "velocity": 88}, {"time": 3214, "pitch": 61, "duration": 19, "velocity": 55}, {"time": 3215, "pitch": 66, "duration": 18, "velocity": 102}, {"time": 3218, "pitch": 54, "duration": 10, "velocity": 63}, {"time": 3223, "pitch": 57, "duration": 7, "velocity": 83}, {"time": 3227, "pitch": 42, "duration": 12, "velocity": 82}, {"time": 3231, "pitch": 54, "duration": 4, "velocity": 88}, {"time": 3235, "pitch": 57, "duration": 8, "velocity": 86}, {"time": 3239, "pitch": 66, "duration": 12, "velocity": 122}, {"time": 3243, "pitch": 61, "duration": 8, "velocity": 64}, {"time": 3247, "pitch": 57, "duration": 4, "velocity": 74}, {"time": 3251, "pitch": 43, "duration": 14, "velocity": 82}, {"time": 3255, "pitch": 50, "duration": 10, "velocity": 89}, {"time": 3259, "pitch": 55, "duration": 4, "velocity": 72}, {"time": 3263, "pitch": 59, "duration": 12, "velocity": 89}, {"time": 3263, "pitch": 62, "duration": 12, "velocity": 100}, {"time": 3271, "pitch": 55, "duration": 4, "velocity": 65}, {"time": 3274, "pitch": 45, "duration": 15, "velocity": 89}, {"time": 3278, "pitch": 52, "duration": 10, "velocity": 89}, {"time": 3283, "pitch": 57, "duration": 11, "velocity": 78}, {"time": 3287, "pitch": 61, "duration": 12, "velocity": 97}, {"time": 3287, "pitch": 64, "duration": 12, "velocity": 95}, {"time": 3295, "pitch": 57, "duration": 5, "velocity": 93}, {"time": 3299, "pitch": 38, "duration": 21, "velocity": 86}, {"time": 3303, "pitch": 45, "duration": 20, "velocity": 72}, {"time": 3307, "pitch": 50, "duration": 6, "velocity": 81}, {"time": 3311, "pitch": 66, "duration": 37, "velocity": 95}, {"time": 3311, "pitch": 62, "duration": 36, "velocity": 83}, {"time": 3315, "pitch": 50, "duration": 3, "velocity": 73}, {"time": 3318, "pitch": 57, "duration": 29, "velocity": 75}, {"time": 3323, "pitch": 38, "duration": 25, "velocity": 70}, {"time": 3347, "pitch": 38, "duration": 1, "velocity": 85}, {"time": 3351, "pitch": 45, "duration": 22, "velocity": 59}, {"time": 3355, "pitch": 50, "duration": 9, "velocity": 81}, {"time": 3359, "pitch": 66, "duration": 21, "velocity": 100}, {"time": 3363, "pitch": 62, "duration": 19, "velocity": 68}, {"time": 3367, "pitch": 57, "duration": 18, "velocity": 78}, {"time": 3371, "pitch": 38, "duration": 1, "velocity": 76}, {"time": 3375, "pitch": 45, "duration": 13, "velocity": 64}, {"time": 3379, "pitch": 50, "duration": 10, "velocity": 85}, {"time": 3383, "pitch": 66, "duration": 13, "velocity": 112}, {"time": 3387, "pitch": 62, "duration": 9, "velocity": 62}, {"time": 3391, "pitch": 57, "duration": 7, "velocity": 77}, {"time": 3395, "pitch": 42, "duration": 23, "velocity": 82}, {"time": 3399, "pitch": 49, "duration": 19, "velocity": 69}, {"time": 3403, "pitch": 54, "duration": 17, "velocity": 66}, {"time": 3407, "pitch": 66, "duration": 22, "velocity": 95}, {"time": 3411, "pitch": 61, "duration": 20, "velocity": 73}, {"time": 3415, "pitch": 57, "duration": 12, "velocity": 73}, {"time": 3419, "pitch": 42, "duration": 17, "velocity": 83}, {"time": 3423, "pitch": 49, "duration": 12, "velocity": 72}, {"time": 3427, "pitch": 54, "duration": 8, "velocity": 55}, {"time": 3431, "pitch": 66, "duration": 12, "velocity": 99}, {"time": 3435, "pitch": 61, "duration": 9, "velocity": 55}, {"time": 3439, "pitch": 57, "duration": 6, "velocity": 72}, {"time": 3443, "pitch": 43, "duration": 22, "velocity": 82}, {"time": 3447, "pitch": 50, "duration": 21, "velocity": 71}, {"time": 3451, "pitch": 55, "duration": 6, "velocity": 69}, {"time": 3455, "pitch": 62, "duration": 14, "velocity": 102}, {"time": 3459, "pitch": 59, "duration": 10, "velocity": 82}, {"time": 3463, "pitch": 55, "duration": 6, "velocity": 70}, {"time": 3467, "pitch": 43, "duration": 21, "velocity": 69}, {"time": 3471, "pitch": 50, "duration": 20, "velocity": 82}, {"time": 3475, "pitch": 55, "duration": 5, "velocity": 86}, {"time": 3479, "pitch": 62, "duration": 5, "velocity": 96}, {"time": 3483, "pitch": 59, "duration": 8, "velocity": 69}, {"time": 3487, "pitch": 62, "duration": 4, "velocity": 75}, {"time": 3491, "pitch": 45, "duration": 23, "velocity": 83}, {"time": 3495, "pitch": 52, "duration": 21, "velocity": 37}, {"time": 3499, "pitch": 57, "duration": 5, "velocity": 74}, {"time": 3503, "pitch": 64, "duration": 21, "velocity": 93}, {"time": 3507, "pitch": 61, "duration": 16, "velocity": 100}, {"time": 3511, "pitch": 57, "duration": 10, "velocity": 79}, {"time": 3515, "pitch": 45, "duration": 15, "velocity": 85}, {"time": 3519, "pitch": 52, "duration": 10, "velocity": 75}, {"time": 3523, "pitch": 57, "duration": 5, "velocity": 71}, {"time": 3527, "pitch": 64, "duration": 12, "velocity": 99}, {"time": 3531, "pitch": 61, "duration": 8, "velocity": 112}, {"time": 3535, "pitch": 57, "duration": 6, "velocity": 97}, {"time": 3539, "pitch": 38, "duration": 22, "velocity": 88}, {"time": 3543, "pitch": 45, "duration": 21, "velocity": 74}, {"time": 3547, "pitch": 50, "duration": 6, "velocity": 88}, {"time": 3551, "pitch": 66, "duration": 21, "velocity": 112}, {"time": 3555, "pitch": 62, "duration": 17, "velocity": 69}, {"time": 3559, "pitch": 57, "duration": 12, "velocity": 86}, {"time": 3563, "pitch": 38, "duration": 17, "velocity": 71}, {"time": 3567, "pitch": 45, "duration": 13, "velocity": 83}, {"time": 3571, "pitch": 50, "duration": 11, "velocity": 88}, {"time": 3575, "pitch": 66, "duration": 13, "velocity": 107}, {"time": 3579, "pitch": 62, "duration": 9, "velocity": 62}, {"time": 3583, "pitch": 57, "duration": 6, "velocity": 88}, {"time": 3587, "pitch": 42, "duration": 23, "velocity": 83}, {"time": 3591, "pitch": 49, "duration": 21, "velocity": 64}, {"time": 3595, "pitch": 54, "duration": 18, "velocity": 93}, {"time": 3599, "pitch": 66, "duration": 22, "velocity": 97}, {"time": 3603, "pitch": 61, "duration": 19, "velocity": 89}, {"time": 3607, "pitch": 57, "duration": 12, "velocity": 79}, {"time": 3611, "pitch": 42, "duration": 16, "velocity": 69}, {"time": 3615, "pitch": 49, "duration": 12, "velocity": 49}, {"time": 3619, "pitch": 54, "duration": 7, "velocity": 93}, {"time": 3623, "pitch": 66, "duration": 12, "velocity": 112}, {"time": 3627, "pitch": 61, "duration": 8, "velocity": 90}, {"time": 3631, "pitch": 57, "duration": 5, "velocity": 90}, {"time": 3635, "pitch": 43, "duration": 22, "velocity": 70}, {"time": 3639, "pitch": 50, "duration": 20, "velocity": 88}, {"time": 3643, "pitch": 55, "duration": 5, "velocity": 78}, {"time": 3647, "pitch": 62, "duration": 12, "velocity": 107}, {"time": 3651, "pitch": 55, "duration": 8, "velocity": 83}, {"time": 3655, "pitch": 59, "duration": 4, "velocity": 99}, {"time": 3659, "pitch": 45, "duration": 15, "velocity": 78}, {"time": 3663, "pitch": 52, "duration": 10, "velocity": 67}, {"time": 3667, "pitch": 57, "duration": 5, "velocity": 74}, {"time": 3671, "pitch": 64, "duration": 13, "velocity": 97}, {"time": 3675, "pitch": 61, "duration": 9, "velocity": 96}, {"time": 3679, "pitch": 57, "duration": 5, "velocity": 81}, {"time": 3683, "pitch": 38, "duration": 22, "velocity": 82}, {"time": 3687, "pitch": 45, "duration": 21, "velocity": 71}, {"time": 3691, "pitch": 50, "duration": 9, "velocity": 92}, {"time": 3695, "pitch": 66, "duration": 24, "velocity": 107}, {"time": 3699, "pitch": 62, "duration": 20, "velocity": 67}, {"time": 3703, "pitch": 57, "duration": 16, "velocity": 78}, {"time": 3707, "pitch": 38, "duration": 12, "velocity": 82}, {"time": 3731, "pitch": 57, "duration": 55, "velocity": 77}, {"time": 3731, "pitch": 38, "duration": 56, "velocity": 38}, {"time": 3731, "pitch": 62, "duration": 55, "velocity": 83}, {"time": 3732, "pitch": 50, "duration": 54, "velocity": 83}, {"time": 3732, "pitch": 66, "duration": 54, "velocity": 82}, {"time": 3732, "pitch": 45, "duration": 54, "velocity": 67}], "annotations": [{"time": 82, "annotation": {"number": 64, "value": 127}, "group": "control_change"}, {"time": 105, "annotation": {"number": 64, "value": 0}, "group": "control_change"}, {"time": 108, "annotation": {"number": 64, "value": 127}, "group": "control_change"}, {"time": 130, "annotation": {"number": 64, "value": 0}, "group": "control_change"}, {"time": 133, "annotation": {"number": 64, "value": 127}, "group": "control_change"}, {"time": 153, "annotation": {"number": 64, "value": 0}, "group": "control_change"}, {"time": 156, "annotation": {"number": 64, "value": 127}, "group": "control_change"}, {"time": 178, "annotation": {"number": 64, "value": 0}, "group": "control_change"}, {"time": 180, "annotation": {"number": 64, "value": 127}, "group": "control_change"}, {"time": 201, "annotation": {"number": 64, "value": 0}, "group": "control_change"}, {"time": 204, "annotation": {"number": 64, "value": 127}, "group": "control_change"}, {"time": 225, "annotation": {"number": 64, "value": 0}, "group": "control_change"}, {"time": 228, "annotation": {"number": 64, "value": 127}, "group": "control_change"}, {"time": 247, "annotation": {"number": 64, "value": 0}, "group": "control_change"}, {"time": 252, "annotation": {"number": 64, "value": 127}, "group": "control_change"}, {"time": 272, "annotation": {"number": 64, "value": 0}, "group": "control_change"}, {"time": 276, "annotation": {"number": 64, "value": 127}, "group": "control_change"}, {"time": 296, "annotation": {"number": 64, "value": 0}, "group": "control_change"}, {"time": 300, "annotation": {"number": 64, "value": 127}, "group": "control_change"}, {"time": 310, "annotation": {"number": 64, "value": 0}, "group": "control_change"}, {"time": 314, "annotation": {"number": 64, "value": 127}, "group": "control_change"}, {"time": 320, "annotation": {"number": 64, "value": 0}, "group": "control_change"}, {"time": 324, "annotation": {"number": 64, "value": 127}, "group": "control_change"}, {"time": 343, "annotation": {"number": 64, "value": 0}, "group": "control_change"}, {"time": 347, "annotation": {"number": 64, "value": 127}, "group": "control_change"}, {"time": 367, "annotation": {"number": 64, "value": 0}, "group": "control_change"}, {"time": 372, "annotation": {"number": 64, "value": 127}, "group": "control_change"}, {"time": 391, "annotation": {"number": 64, "value": 0}, "group": "control_change"}, {"time": 395, "annotation": {"number": 64, "value": 127}, "group": "control_change"}, {"time": 415, "annotation": {"number": 64, "value": 0}, "group": "control_change"}, {"time": 420, "annotation": {"number": 64, "value": 127}, "group": "control_change"}, {"time": 439, "annotation": {"number": 64, "value": 0}, "group": "control_change"}, {"time": 443, "annotation": {"number": 64, "value": 127}, "group": "control_change"}, {"time": 465, "annotation": {"number": 64, "value": 0}, "group": "control_change"}, {"time": 491, "annotation": {"number": 64, "value": 127}, "group": "control_change"}, {"time": 512, "annotation": {"number": 64, "value": 0}, "group": "control_change"}, {"time": 516, "annotation": {"number": 64, "value": 127}, "group": "control_change"}, {"time": 536, "annotation": {"number": 64, "value": 0}, "group": "control_change"}, {"time": 540, "annotation": {"number": 64, "value": 127}, "group": "control_change"}, {"time": 560, "annotation": {"number": 64, "value": 0}, "group": "control_change"}, {"time": 564, "annotation": {"number": 64, "value": 127}, "group": "control_change"}, {"time": 583, "annotation": {"number": 64, "value": 0}, "group": "control_change"}, {"time": 588, "annotation": {"number": 64, "value": 127}, "group": "control_change"}, {"time": 607, "annotation": {"number": 64, "value": 0}, "group": "control_change"}, {"time": 611, "annotation": {"number": 64, "value": 127}, "group": "control_change"}, {"time": 631, "annotation": {"number": 64, "value": 0}, "group": "control_change"}, {"time": 636, "annotation": {"number": 64, "value": 127}, "group": "control_change"}, {"time": 648, "annotation": {"number": 64, "value": 0}, "group": "control_change"}, {"time": 659, "annotation": {"number": 64, "value": 127}, "group": "control_change"}, {"time": 680, "annotation": {"number": 64, "value": 0}, "group": "control_change"}, {"time": 684, "annotation": {"number": 64, "value": 127}, "group": "control_change"}, {"time": 703, "annotation": {"number": 64, "value": 0}, "group": "control_change"}, {"time": 708, "annotation": {"number": 64, "value": 127}, "group": "control_change"}, {"time": 727, "annotation": {"number": 64, "value": 0}, "group": "control_change"}, {"time": 732, "annotation": {"number": 64, "value": 127}, "group": "control_change"}, {"time": 744, "annotation": {"number": 64, "value": 0}, "group": "control_change"}, {"time": 755, "annotation": {"number": 64, "value": 127}, "group": "control_change"}, {"time": 774, "annotation": {"number": 64, "value": 0}, "group": "control_change"}, {"time": 779, "annotation": {"number": 64, "value": 127}, "group": "control_change"}, {"time": 790, "annotation": {"number": 64, "value": 0}, "group": "control_change"}, {"time": 803, "annotation": {"number": 64, "value": 127}, "group": "control_change"}, {"time": 822, "annotation": {"number": 64, "value": 0}, "group": "control_change"}, {"time": 828, "annotation": {"number": 64, "value": 127}, "group": "control_change"}, {"time": 839, "annotation": {"number": 64, "value": 0}, "group": "control_change"}, {"time": 851, "annotation": {"number": 64, "value": 127}, "group": "control_change"}, {"time": 872, "annotation": {"number": 64, "value": 0}, "group": "control_change"}, {"time": 875, "annotation": {"number": 64, "value": 127}, "group": "control_change"}, {"time": 896, "annotation": {"number": 64, "value": 0}, "group": "control_change"}, {"time": 900, "annotation": {"number": 64, "value": 127}, "group": "control_change"}, {"time": 919, "annotation": {"number": 64, "value": 0}, "group": "control_change"}, {"time": 924, "annotation": {"number": 64, "value": 127}, "group": "control_change"}, {"time": 943, "annotation": {"number": 64, "value": 0}, "group": "control_change"}, {"time": 948, "annotation": {"number": 64, "value": 127}, "group": "control_change"}, {"time": 969, "annotation": {"number": 64, "value": 0}, "group": "control_change"}, {"time": 972, "annotation": {"number": 64, "value": 127}, "group": "control_change"}, {"time": 992, "annotation": {"number": 64, "value": 0}, "group": "control_change"}, {"time": 996, "annotation": {"number": 64, "value": 127}, "group": "control_change"}, {"time": 1015, "annotation": {"number": 64, "value": 0}, "group": "control_change"}, {"time": 1019, "annotation": {"number": 64, "value": 127}, "group": "control_change"}, {"time": 1029, "annotation": {"number": 64, "value": 0}, "group": "control_change"}, {"time": 1043, "annotation": {"number": 64, "value": 127}, "group": "control_change"}, {"time": 1064, "annotation": {"number": 64, "value": 0}, "group": "control_change"}, {"time": 1067, "annotation": {"number": 64, "value": 127}, "group": "control_change"}, {"time": 1088, "annotation": {"number": 64, "value": 0}, "group": "control_change"}, {"time": 1092, "annotation": {"number": 64, "value": 127}, "group": "control_change"}, {"time": 1111, "annotation": {"number": 64, "value": 0}, "group": "control_change"}, {"time": 1116, "annotation": {"number": 64, "value": 127}, "group": "control_change"}, {"time": 1135, "annotation": {"number": 64, "value": 0}, "group": "control_change"}, {"time": 1140, "annotation": {"number": 64, "value": 127}, "group": "control_change"}, {"time": 1161, "annotation": {"number": 64, "value": 0}, "group": "control_change"}, {"time": 1164, "annotation": {"number": 64, "value": 127}, "group": "control_change"}, {"time": 1184, "annotation": {"number": 64, "value": 0}, "group": "control_change"}, {"time": 1195, "annotation": {"number": 64, "value": 127}, "group": "control_change"}, {"time": 1196, "annotation": {"number": 64, "value": 0}, "group": "control_change"}, {"time": 1198, "annotation": {"number": 64, "value": 127}, "group": "control_change"}, {"time": 1209, "annotation": {"number": 64, "value": 0}, "group": "control_change"}, {"time": 1212, "annotation": {"number": 64, "value": 127}, "group": "control_change"}, {"time": 1233, "annotation": {"number": 64, "value": 0}, "group": "control_change"}, {"time": 1236, "annotation": {"number": 64, "value": 127}, "group": "control_change"}, {"time": 1255, "annotation": {"number": 64, "value": 0}, "group": "control_change"}, {"time": 1260, "annotation": {"number": 64, "value": 127}, "group": "control_change"}, {"time": 1282, "annotation": {"number": 64, "value": 0}, "group": "control_change"}, {"time": 1284, "annotation": {"number": 64, "value": 127}, "group": "control_change"}, {"time": 1304, "annotation": {"number": 64, "value": 0}, "group": "control_change"}, {"time": 1307, "annotation": {"number": 64, "value": 127}, "group": "control_change"}, {"time": 1318, "annotation": {"number": 64, "value": 0}, "group": "control_change"}, {"time": 1331, "annotation": {"number": 64, "value": 127}, "group": "control_change"}, {"time": 1342, "annotation": {"number": 64, "value": 0}, "group": "control_change"}, {"time": 1355, "annotation": {"number": 64, "value": 127}, "group": "control_change"}, {"time": 1376, "annotation": {"number": 64, "value": 0}, "group": "control_change"}, {"time": 1380, "annotation": {"number": 64, "value": 127}, "group": "control_change"}, {"time": 1399, "annotation": {"number": 64, "value": 0}, "group": "control_change"}, {"time": 1404, "annotation": {"number": 64, "value": 127}, "group": "control_change"}, {"time": 1414, "annotation": {"number": 64, "value": 0}, "group": "control_change"}, {"time": 1428, "annotation": {"number": 64, "value": 127}, "group": "control_change"}, {"time": 1447, "annotation": {"number": 64, "value": 0}, "group": "control_change"}, {"time": 1452, "annotation": {"number": 64, "value": 127}, "group": "control_change"}, {"time": 1472, "annotation": {"number": 64, "value": 0}, "group": "control_change"}, {"time": 1476, "annotation": {"number": 64, "value": 127}, "group": "control_change"}, {"time": 1487, "annotation": {"number": 64, "value": 0}, "group": "control_change"}, {"time": 1499, "annotation": {"number": 64, "value": 127}, "group": "control_change"}, {"time": 1518, "annotation": {"number": 64, "value": 0}, "group": "control_change"}, {"time": 1524, "annotation": {"number": 64, "value": 127}, "group": "control_change"}, {"time": 1543, "annotation": {"number": 64, "value": 0}, "group": "control_change"}, {"time": 1548, "annotation": {"number": 64, "value": 127}, "group": "control_change"}, {"time": 1566, "annotation": {"number": 64, "value": 0}, "group": "control_change"}, {"time": 1572, "annotation": {"number": 64, "value": 127}, "group": "control_change"}, {"time": 1592, "annotation": {"number": 64, "value": 0}, "group": "control_change"}, {"time": 1619, "annotation": {"number": 64, "value": 127}, "group": "control_change"}, {"time": 1642, "annotation": {"number": 64, "value": 0}, "group": "control_change"}, {"time": 1645, "annotation": {"number": 64, "value": 127}, "group": "control_change"}, {"time": 1667, "annotation": {"number": 64, "value": 0}, "group": "control_change"}, {"time": 1669, "annotation": {"number": 64, "value": 127}, "group": "control_change"}, {"time": 1690, "annotation": {"number": 64, "value": 0}, "group": "control_change"}, {"time": 1693, "annotation": {"number": 64, "value": 127}, "group": "control_change"}, {"time": 1714, "annotation": {"number": 64, "value": 0}, "group": "control_change"}, {"time": 1717, "annotation": {"number": 64, "value": 127}, "group": "control_change"}, {"time": 1738, "annotation": {"number": 64, "value": 0}, "group": "control_change"}, {"time": 1741, "annotation": {"number": 64, "value": 127}, "group": "control_change"}, {"time": 1762, "annotation": {"number": 64, "value": 0}, "group": "control_change"}, {"time": 1765, "annotation": {"number": 64, "value": 127}, "group": "control_change"}, {"time": 1784, "annotation": {"number": 64, "value": 0}, "group": "control_change"}, {"time": 1789, "annotation": {"number": 64, "value": 127}, "group": "control_change"}, {"time": 1809, "annotation": {"number": 64, "value": 0}, "group": "control_change"}, {"time": 1813, "annotation": {"number": 64, "value": 127}, "group": "control_change"}, {"time": 1833, "annotation": {"number": 64, "value": 0}, "group": "control_change"}, {"time": 1837, "annotation": {"number": 64, "value": 127}, "group": "control_change"}, {"time": 1847, "annotation": {"number": 64, "value": 0}, "group": "control_change"}, {"time": 1850, "annotation": {"number": 64, "value": 127}, "group": "control_change"}, {"time": 1857, "annotation": {"number": 64, "value": 0}, "group": "control_change"}, {"time": 1861, "annotation": {"number": 64, "value": 127}, "group": "control_change"}, {"time": 1880, "annotation": {"number": 64, "value": 0}, "group": "control_change"}, {"time": 1884, "annotation": {"number": 64, "value": 127}, "group": "control_change"}, {"time": 1904, "annotation": {"number": 64, "value": 0}, "group": "control_change"}, {"time": 1908, "annotation": {"number": 64, "value": 127}, "group": "control_change"}, {"time": 1928, "annotation": {"number": 64, "value": 0}, "group": "control_change"}, {"time": 1932, "annotation": {"number": 64, "value": 127}, "group": "control_change"}, {"time": 1952, "annotation": {"number": 64, "value": 0}, "group": "control_change"}, {"time": 1956, "annotation": {"number": 64, "value": 127}, "group": "control_change"}, {"time": 1976, "annotation": {"number": 64, "value": 0}, "group": "control_change"}, {"time": 1980, "annotation": {"number": 64, "value": 127}, "group": "control_change"}, {"time": 2001, "annotation": {"number": 64, "value": 0}, "group": "control_change"}, {"time": 2028, "annotation": {"number": 64, "value": 127}, "group": "control_change"}, {"time": 2048, "annotation": {"number": 64, "value": 0}, "group": "control_change"}, {"time": 2052, "annotation": {"number": 64, "value": 127}, "group": "control_change"}, {"time": 2072, "annotation": {"number": 64, "value": 0}, "group": "control_change"}, {"time": 2076, "annotation": {"number": 64, "value": 127}, "group": "control_change"}, {"time": 2097, "annotation": {"number": 64, "value": 0}, "group": "control_change"}, {"time": 2100, "annotation": {"number": 64, "value": 127}, "group": "control_change"}, {"time": 2120, "annotation": {"number": 64, "value": 0}, "group": "control_change"}, {"time": 2124, "annotation": {"number": 64, "value": 127}, "group": "control_change"}, {"time": 2144, "annotation": {"number": 64, "value": 0}, "group": "control_change"}, {"time": 2148, "annotation": {"number": 64, "value": 127}, "group": "control_change"}, {"time": 2168, "annotation": {"number": 64, "value": 0}, "group": "control_change"}, {"time": 2172, "annotation": {"number": 64, "value": 127}, "group": "control_change"}, {"time": 2184, "annotation": {"number": 64, "value": 0}, "group": "control_change"}, {"time": 2196, "annotation": {"number": 64, "value": 127}, "group": "control_change"}, {"time": 2217, "annotation": {"number": 64, "value": 0}, "group": "control_change"}, {"time": 2221, "annotation": {"number": 64, "value": 127}, "group": "control_change"}, {"time": 2240, "annotation": {"number": 64, "value": 0}, "group": "control_change"}, {"time": 2244, "annotation": {"number": 64, "value": 127}, "group": "control_change"}, {"time": 2264, "annotation": {"number": 64, "value": 0}, "group": "control_change"}, {"time": 2268, "annotation": {"number": 64, "value": 127}, "group": "control_change"}, {"time": 2281, "annotation": {"number": 64, "value": 0}, "group": "control_change"}, {"time": 2292, "annotation": {"number": 64, "value": 127}, "group": "control_change"}, {"time": 2311, "annotation": {"number": 64, "value": 0}, "group": "control_change"}, {"time": 2316, "annotation": {"number": 64, "value": 127}, "group": "control_change"}, {"time": 2327, "annotation": {"number": 64, "value": 0}, "group": "control_change"}, {"time": 2340, "annotation": {"number": 64, "value": 127}, "group": "control_change"}, {"time": 2359, "annotation": {"number": 64, "value": 0}, "group": "control_change"}, {"time": 2364, "annotation": {"number": 64, "value": 127}, "group": "control_change"}, {"time": 2376, "annotation": {"number": 64, "value": 0}, "group": "control_change"}, {"time": 2388, "annotation": {"number": 64, "value": 127}, "group": "control_change"}, {"time": 2409, "annotation": {"number": 64, "value": 0}, "group": "control_change"}, {"time": 2412, "annotation": {"number": 64, "value": 127}, "group": "control_change"}, {"time": 2432, "annotation": {"number": 64, "value": 0}, "group": "control_change"}, {"time": 2436, "annotation": {"number": 64, "value": 127}, "group": "control_change"}, {"time": 2456, "annotation": {"number": 64, "value": 0}, "group": "control_change"}, {"time": 2460, "annotation": {"number": 64, "value": 127}, "group": "control_change"}, {"time": 2480, "annotation": {"number": 64, "value": 0}, "group": "control_change"}, {"time": 2484, "annotation": {"number": 64, "value": 127}, "group": "control_change"}, {"time": 2505, "annotation": {"number": 64, "value": 0}, "group": "control_change"}, {"time": 2509, "annotation": {"number": 64, "value": 127}, "group": "control_change"}, {"time": 2528, "annotation": {"number": 64, "value": 0}, "group": "control_change"}, {"time": 2532, "annotation": {"number": 64, "value": 127}, "group": "control_change"}, {"time": 2552, "annotation": {"number": 64, "value": 0}, "group": "control_change"}, {"time": 2556, "annotation": {"number": 64, "value": 127}, "group": "control_change"}, {"time": 2565, "annotation": {"number": 64, "value": 0}, "group": "control_change"}, {"time": 2580, "annotation": {"number": 64, "value": 127}, "group": "control_change"}, {"time": 2601, "annotation": {"number": 64, "value": 0}, "group": "control_change"}, {"time": 2604, "annotation": {"number": 64, "value": 127}, "group": "control_change"}, {"time": 2624, "annotation": {"number": 64, "value": 0}, "group": "control_change"}, {"time": 2628, "annotation": {"number": 64, "value": 127}, "group": "control_change"}, {"time": 2648, "annotation": {"number": 64, "value": 0}, "group": "control_change"}, {"time": 2652, "annotation": {"number": 64, "value": 127}, "group": "control_change"}, {"time": 2672, "annotation": {"number": 64, "value": 0}, "group": "control_change"}, {"time": 2676, "annotation": {"number": 64, "value": 127}, "group": "control_change"}, {"time": 2697, "annotation": {"number": 64, "value": 0}, "group": "control_change"}, {"time": 2701, "annotation": {"number": 64, "value": 127}, "group": "control_change"}, {"time": 2720, "annotation": {"number": 64, "value": 0}, "group": "control_change"}, {"time": 2732, "annotation": {"number": 64, "value": 127}, "group": "control_change"}, {"time": 2733, "annotation": {"number": 64, "value": 0}, "group": "control_change"}, {"time": 2735, "annotation": {"number": 64, "value": 127}, "group": "control_change"}, {"time": 2746, "annotation": {"number": 64, "value": 0}, "group": "control_change"}, {"time": 2749, "annotation": {"number": 64, "value": 127}, "group": "control_change"}, {"time": 2769, "annotation": {"number": 64, "value": 0}, "group": "control_change"}, {"time": 2772, "annotation": {"number": 64, "value": 127}, "group": "control_change"}, {"time": 2792, "annotation": {"number": 64, "value": 0}, "group": "control_change"}, {"time": 2797, "annotation": {"number": 64, "value": 127}, "group": "control_change"}, {"time": 2819, "annotation": {"number": 64, "value": 0}, "group": "control_change"}, {"time": 2821, "annotation": {"number": 64, "value": 127}, "group": "control_change"}, {"time": 2841, "annotation": {"number": 64, "value": 0}, "group": "control_change"}, {"time": 2844, "annotation": {"number": 64, "value": 127}, "group": "control_change"}, {"time": 2855, "annotation": {"number": 64, "value": 0}, "group": "control_change"}, {"time": 2868, "annotation": {"number": 64, "value": 127}, "group": "control_change"}, {"time": 2879, "annotation": {"number": 64, "value": 0}, "group": "control_change"}, {"time": 2892, "annotation": {"number": 64, "value": 127}, "group": "control_change"}, {"time": 2913, "annotation": {"number": 64, "value": 0}, "group": "control_change"}, {"time": 2916, "annotation": {"number": 64, "value": 127}, "group": "control_change"}, {"time": 2936, "annotation": {"number": 64, "value": 0}, "group": "control_change"}, {"time": 2940, "annotation": {"number": 64, "value": 127}, "group": "control_change"}, {"time": 2951, "annotation": {"number": 64, "value": 0}, "group": "control_change"}, {"time": 2964, "annotation": {"number": 64, "value": 127}, "group": "control_change"}, {"time": 2984, "annotation": {"number": 64, "value": 0}, "group": "control_change"}, {"time": 2989, "annotation": {"number": 64, "value": 127}, "group": "control_change"}, {"time": 3008, "annotation": {"number": 64, "value": 0}, "group": "control_change"}, {"time": 3013, "annotation": {"number": 64, "value": 127}, "group": "control_change"}, {"time": 3024, "annotation": {"number": 64, "value": 0}, "group": "control_change"}, {"time": 3036, "annotation": {"number": 64, "value": 127}, "group": "control_change"}, {"time": 3055, "annotation": {"number": 64, "value": 0}, "group": "control_change"}, {"time": 3061, "annotation": {"number": 64, "value": 127}, "group": "control_change"}, {"time": 3080, "annotation": {"number": 64, "value": 0}, "group": "control_change"}, {"time": 3085, "annotation": {"number": 64, "value": 127}, "group": "control_change"}, {"time": 3103, "annotation": {"number": 64, "value": 0}, "group": "control_change"}, {"time": 3109, "annotation": {"number": 64, "value": 127}, "group": "control_change"}, {"time": 3129, "annotation": {"number": 64, "value": 0}, "group": "control_change"}, {"time": 3155, "annotation": {"number": 64, "value": 127}, "group": "control_change"}, {"time": 3176, "annotation": {"number": 64, "value": 0}, "group": "control_change"}, {"time": 3181, "annotation": {"number": 64, "value": 127}, "group": "control_change"}, {"time": 3200, "annotation": {"number": 64, "value": 0}, "group": "control_change"}, {"time": 3204, "annotation": {"number": 64, "value": 127}, "group": "control_change"}, {"time": 3224, "annotation": {"number": 64, "value": 0}, "group": "control_change"}, {"time": 3228, "annotation": {"number": 64, "value": 127}, "group": "control_change"}, {"time": 3246, "annotation": {"number": 64, "value": 0}, "group": "control_change"}, {"time": 3251, "annotation": {"number": 64, "value": 127}, "group": "control_change"}, {"time": 3271, "annotation": {"number": 64, "value": 0}, "group": "control_change"}, {"time": 3276, "annotation": {"number": 64, "value": 127}, "group": "control_change"}, {"time": 3295, "annotation": {"number": 64, "value": 0}, "group": "control_change"}, {"time": 3300, "annotation": {"number": 64, "value": 127}, "group": "control_change"}, {"time": 3318, "annotation": {"number": 64, "value": 0}, "group": "control_change"}, {"time": 3323, "annotation": {"number": 64, "value": 127}, "group": "control_change"}, {"time": 3342, "annotation": {"number": 64, "value": 0}, "group": "control_change"}, {"time": 3369, "annotation": {"number": 64, "value": 0}, "group": "control_change"}, {"time": 3372, "annotation": {"number": 64, "value": 127}, "group": "control_change"}, {"time": 3394, "annotation": {"number": 64, "value": 0}, "group": "control_change"}, {"time": 3397, "annotation": {"number": 64, "value": 127}, "group": "control_change"}, {"time": 3417, "annotation": {"number": 64, "value": 0}, "group": "control_change"}, {"time": 3420, "annotation": {"number": 64, "value": 127}, "group": "control_change"}, {"time": 3442, "annotation": {"number": 64, "value": 0}, "group": "control_change"}, {"time": 3444, "annotation": {"number": 64, "value": 127}, "group": "control_change"}, {"time": 3465, "annotation": {"number": 64, "value": 0}, "group": "control_change"}, {"time": 3468, "annotation": {"number": 64, "value": 127}, "group": "control_change"}, {"time": 3489, "annotation": {"number": 64, "value": 0}, "group": "control_change"}, {"time": 3492, "annotation": {"number": 64, "value": 127}, "group": "control_change"}, {"time": 3511, "annotation": {"number": 64, "value": 0}, "group": "control_change"}, {"time": 3516, "annotation": {"number": 64, "value": 127}, "group": "control_change"}, {"time": 3536, "annotation": {"number": 64, "value": 0}, "group": "control_change"}, {"time": 3540, "annotation": {"number": 64, "value": 127}, "group": "control_change"}, {"time": 3560, "annotation": {"number": 64, "value": 0}, "group": "control_change"}, {"time": 3564, "annotation": {"number": 64, "value": 127}, "group": "control_change"}, {"time": 3574, "annotation": {"number": 64, "value": 0}, "group": "control_change"}, {"time": 3578, "annotation": {"number": 64, "value": 127}, "group": "control_change"}, {"time": 3584, "annotation": {"number": 64, "value": 0}, "group": "control_change"}, {"time": 3588, "annotation": {"number": 64, "value": 127}, "group": "control_change"}, {"time": 3607, "annotation": {"number": 64, "value": 0}, "group": "control_change"}, {"time": 3611, "annotation": {"number": 64, "value": 127}, "group": "control_change"}, {"time": 3631, "annotation": {"number": 64, "value": 0}, "group": "control_change"}, {"time": 3636, "annotation": {"number": 64, "value": 127}, "group": "control_change"}, {"time": 3655, "annotation": {"number": 64, "value": 0}, "group": "control_change"}, {"time": 3659, "annotation": {"number": 64, "value": 127}, "group": "control_change"}, {"time": 3679, "annotation": {"number": 64, "value": 0}, "group": "control_change"}, {"time": 3684, "annotation": {"number": 64, "value": 127}, "group": "control_change"}, {"time": 3703, "annotation": {"number": 64, "value": 0}, "group": "control_change"}, {"time": 3707, "annotation": {"number": 64, "value": 127}, "group": "control_change"}, {"time": 3732, "annotation": {"number": 64, "value": 127}, "group": "control_change"}, {"time": 3764, "annotation": {"number": 64, "value": 0}, "group": "control_change"}, {"time": 3764, "annotation": {"number": 64, "value": 127}, "group": "control_change"}, {"time": 3779, "annotation": {"number": 64, "value": 0}, "group": "control_change"}, {"time": 3782, "annotation": {"number": 64, "value": 127}, "group": "control_change"}, {"time": 3800, "annotation": {"number": 64, "value": 0}, "group": "control_change"}, {"time": 3801, "annotation": {"number": 64, "value": 127}, "group": "control_change"}, {"time": 3802, "annotation": {"number": 64, "value": 0}, "group": "control_change"}, {"time": 3804, "annotation": {"number": 64, "value": 127}, "group": "control_change"}, {"time": 3805, "annotation": {"number": 64, "value": 0}, "group": "control_change"}]}]}