{"metadata": {"schema_version": "0.2", "title": "None", "source_filename": "361.mid", "source_format": "midi"}, "resolution": 12, "tempos": [{"time": 0, "qpm": 58.00004253336452}, {"time": 1008, "qpm": 58.15001540975408}, {"time": 1236, "qpm": 58.00004253336452}], "time_signatures": [{"time": 0, "numerator": 1, "denominator": 4}], "tracks": [{"program": 0, "is_drum": false, "name": "MELODY", "notes": [{"time": 220, "pitch": 59, "duration": 4, "velocity": 96}, {"time": 223, "pitch": 64, "duration": 2, "velocity": 86}, {"time": 226, "pitch": 64, "duration": 2, "velocity": 66}, {"time": 229, "pitch": 64, "duration": 2, "velocity": 82}, {"time": 232, "pitch": 66, "duration": 2, "velocity": 92}, {"time": 235, "pitch": 67, "duration": 5, "velocity": 102}, {"time": 238, "pitch": 67, "duration": 2, "velocity": 96}, {"time": 241, "pitch": 67, "duration": 3, "velocity": 83}, {"time": 244, "pitch": 69, "duration": 2, "velocity": 99}, {"time": 247, "pitch": 66, "duration": 3, "velocity": 127}, {"time": 250, "pitch": 64, "duration": 3, "velocity": 82}, {"time": 253, "pitch": 62, "duration": 4, "velocity": 82}, {"time": 256, "pitch": 64, "duration": 11, "velocity": 77}, {"time": 268, "pitch": 67, "duration": 3, "velocity": 89}, {"time": 271, "pitch": 69, "duration": 2, "velocity": 85}, {"time": 277, "pitch": 69, "duration": 2, "velocity": 96}, {"time": 280, "pitch": 69, "duration": 2, "velocity": 93}, {"time": 283, "pitch": 69, "duration": 3, "velocity": 100}, {"time": 286, "pitch": 69, "duration": 3, "velocity": 97}, {"time": 289, "pitch": 67, "duration": 3, "velocity": 92}, {"time": 292, "pitch": 64, "duration": 4, "velocity": 77}, {"time": 295, "pitch": 67, "duration": 4, "velocity": 88}, {"time": 298, "pitch": 67, "duration": 1, "velocity": 90}, {"time": 301, "pitch": 67, "duration": 2, "velocity": 88}, {"time": 304, "pitch": 69, "duration": 2, "velocity": 96}, {"time": 307, "pitch": 71, "duration": 11, "velocity": 95}, {"time": 319, "pitch": 69, "duration": 2, "velocity": 100}, {"time": 322, "pitch": 69, "duration": 2, "velocity": 85}, {"time": 325, "pitch": 69, "duration": 2, "velocity": 96}, {"time": 328, "pitch": 67, "duration": 1, "velocity": 90}, {"time": 331, "pitch": 69, "duration": 6, "velocity": 99}, {"time": 340, "pitch": 64, "duration": 1, "velocity": 78}, {"time": 343, "pitch": 69, "duration": 2, "velocity": 90}, {"time": 346, "pitch": 69, "duration": 2, "velocity": 79}, {"time": 349, "pitch": 69, "duration": 2, "velocity": 90}, {"time": 352, "pitch": 67, "duration": 2, "velocity": 89}, {"time": 355, "pitch": 69, "duration": 7, "velocity": 96}, {"time": 367, "pitch": 67, "duration": 2, "velocity": 99}, {"time": 370, "pitch": 67, "duration": 1, "velocity": 89}, {"time": 373, "pitch": 67, "duration": 2, "velocity": 89}, {"time": 376, "pitch": 67, "duration": 1, "velocity": 92}, {"time": 379, "pitch": 67, "duration": 1, "velocity": 93}, {"time": 382, "pitch": 69, "duration": 8, "velocity": 97}, {"time": 391, "pitch": 66, "duration": 20, "velocity": 102}, {"time": 412, "pitch": 59, "duration": 2, "velocity": 89}, {"time": 415, "pitch": 64, "duration": 2, "velocity": 89}, {"time": 418, "pitch": 64, "duration": 1, "velocity": 83}, {"time": 421, "pitch": 64, "duration": 1, "velocity": 90}, {"time": 424, "pitch": 66, "duration": 2, "velocity": 97}, {"time": 427, "pitch": 67, "duration": 3, "velocity": 99}, {"time": 430, "pitch": 67, "duration": 1, "velocity": 90}, {"time": 433, "pitch": 67, "duration": 2, "velocity": 95}, {"time": 436, "pitch": 69, "duration": 2, "velocity": 96}, {"time": 439, "pitch": 66, "duration": 3, "velocity": 117}, {"time": 442, "pitch": 64, "duration": 3, "velocity": 79}, {"time": 445, "pitch": 62, "duration": 3, "velocity": 82}, {"time": 448, "pitch": 64, "duration": 9, "velocity": 92}, {"time": 460, "pitch": 67, "duration": 1, "velocity": 86}, {"time": 463, "pitch": 69, "duration": 4, "velocity": 102}, {"time": 466, "pitch": 69, "duration": 1, "velocity": 82}, {"time": 472, "pitch": 69, "duration": 2, "velocity": 117}, {"time": 475, "pitch": 69, "duration": 2, "velocity": 127}, {"time": 478, "pitch": 69, "duration": 3, "velocity": 102}, {"time": 481, "pitch": 67, "duration": 2, "velocity": 88}, {"time": 484, "pitch": 64, "duration": 3, "velocity": 90}, {"time": 487, "pitch": 67, "duration": 3, "velocity": 117}, {"time": 490, "pitch": 67, "duration": 1, "velocity": 89}, {"time": 493, "pitch": 67, "duration": 2, "velocity": 102}, {"time": 496, "pitch": 69, "duration": 2, "velocity": 112}, {"time": 499, "pitch": 71, "duration": 7, "velocity": 127}, {"time": 511, "pitch": 69, "duration": 1, "velocity": 112}, {"time": 514, "pitch": 69, "duration": 1, "velocity": 96}, {"time": 517, "pitch": 69, "duration": 1, "velocity": 102}, {"time": 520, "pitch": 67, "duration": 1, "velocity": 102}, {"time": 523, "pitch": 69, "duration": 5, "velocity": 117}, {"time": 532, "pitch": 64, "duration": 2, "velocity": 93}, {"time": 535, "pitch": 69, "duration": 1, "velocity": 93}, {"time": 538, "pitch": 69, "duration": 1, "velocity": 93}, {"time": 541, "pitch": 69, "duration": 1, "velocity": 100}, {"time": 544, "pitch": 67, "duration": 1, "velocity": 90}, {"time": 547, "pitch": 69, "duration": 5, "velocity": 107}, {"time": 559, "pitch": 67, "duration": 1, "velocity": 107}, {"time": 562, "pitch": 67, "duration": 1, "velocity": 86}, {"time": 565, "pitch": 67, "duration": 1, "velocity": 88}, {"time": 568, "pitch": 67, "duration": 1, "velocity": 86}, {"time": 571, "pitch": 67, "duration": 2, "velocity": 93}, {"time": 574, "pitch": 69, "duration": 7, "velocity": 117}, {"time": 583, "pitch": 66, "duration": 3, "velocity": 112}, {"time": 586, "pitch": 64, "duration": 4, "velocity": 77}, {"time": 589, "pitch": 66, "duration": 17, "velocity": 117}, {"time": 601, "pitch": 64, "duration": 2, "velocity": 107}, {"time": 604, "pitch": 64, "duration": 2, "velocity": 93}, {"time": 607, "pitch": 71, "duration": 2, "velocity": 107}, {"time": 610, "pitch": 71, "duration": 4, "velocity": 117}, {"time": 616, "pitch": 71, "duration": 2, "velocity": 112}, {"time": 619, "pitch": 69, "duration": 3, "velocity": 102}, {"time": 622, "pitch": 71, "duration": 4, "velocity": 96}, {"time": 628, "pitch": 71, "duration": 1, "velocity": 117}, {"time": 631, "pitch": 71, "duration": 4, "velocity": 107}, {"time": 637, "pitch": 69, "duration": 3, "velocity": 122}, {"time": 640, "pitch": 67, "duration": 3, "velocity": 100}, {"time": 643, "pitch": 64, "duration": 7, "velocity": 100}, {"time": 655, "pitch": 76, "duration": 2, "velocity": 122}, {"time": 658, "pitch": 76, "duration": 5, "velocity": 117}, {"time": 664, "pitch": 76, "duration": 3, "velocity": 122}, {"time": 667, "pitch": 74, "duration": 4, "velocity": 117}, {"time": 673, "pitch": 71, "duration": 3, "velocity": 127}, {"time": 676, "pitch": 69, "duration": 4, "velocity": 89}, {"time": 679, "pitch": 71, "duration": 13, "velocity": 97}, {"time": 697, "pitch": 64, "duration": 2, "velocity": 97}, {"time": 700, "pitch": 64, "duration": 2, "velocity": 97}, {"time": 703, "pitch": 69, "duration": 2, "velocity": 127}, {"time": 706, "pitch": 69, "duration": 4, "velocity": 127}, {"time": 712, "pitch": 69, "duration": 2, "velocity": 127}, {"time": 715, "pitch": 67, "duration": 2, "velocity": 122}, {"time": 718, "pitch": 69, "duration": 4, "velocity": 127}, {"time": 724, "pitch": 69, "duration": 1, "velocity": 117}, {"time": 727, "pitch": 71, "duration": 3, "velocity": 122}, {"time": 730, "pitch": 69, "duration": 3, "velocity": 112}, {"time": 733, "pitch": 67, "duration": 3, "velocity": 112}, {"time": 736, "pitch": 66, "duration": 3, "velocity": 112}, {"time": 739, "pitch": 64, "duration": 6, "velocity": 100}, {"time": 751, "pitch": 69, "duration": 2, "velocity": 117}, {"time": 754, "pitch": 69, "duration": 4, "velocity": 122}, {"time": 760, "pitch": 67, "duration": 3, "velocity": 107}, {"time": 763, "pitch": 76, "duration": 5, "velocity": 127}, {"time": 769, "pitch": 74, "duration": 5, "velocity": 122}, {"time": 775, "pitch": 71, "duration": 17, "velocity": 117}, {"time": 793, "pitch": 64, "duration": 2, "velocity": 99}, {"time": 796, "pitch": 64, "duration": 3, "velocity": 92}, {"time": 799, "pitch": 71, "duration": 2, "velocity": 127}, {"time": 802, "pitch": 71, "duration": 5, "velocity": 112}, {"time": 808, "pitch": 71, "duration": 2, "velocity": 127}, {"time": 811, "pitch": 69, "duration": 3, "velocity": 112}, {"time": 814, "pitch": 71, "duration": 3, "velocity": 112}, {"time": 820, "pitch": 71, "duration": 3, "velocity": 127}, {"time": 823, "pitch": 69, "duration": 3, "velocity": 122}, {"time": 826, "pitch": 71, "duration": 3, "velocity": 99}, {"time": 829, "pitch": 67, "duration": 3, "velocity": 95}, {"time": 832, "pitch": 66, "duration": 3, "velocity": 100}, {"time": 835, "pitch": 64, "duration": 6, "velocity": 100}, {"time": 847, "pitch": 76, "duration": 2, "velocity": 117}, {"time": 850, "pitch": 76, "duration": 2, "velocity": 96}, {"time": 853, "pitch": 76, "duration": 2, "velocity": 95}, {"time": 856, "pitch": 76, "duration": 2, "velocity": 100}, {"time": 859, "pitch": 78, "duration": 5, "velocity": 127}, {"time": 865, "pitch": 74, "duration": 5, "velocity": 122}, {"time": 871, "pitch": 71, "duration": 12, "velocity": 112}, {"time": 889, "pitch": 64, "duration": 2, "velocity": 92}, {"time": 892, "pitch": 64, "duration": 3, "velocity": 93}, {"time": 895, "pitch": 69, "duration": 2, "velocity": 117}, {"time": 898, "pitch": 69, "duration": 4, "velocity": 117}, {"time": 904, "pitch": 69, "duration": 2, "velocity": 127}, {"time": 907, "pitch": 67, "duration": 3, "velocity": 112}, {"time": 910, "pitch": 69, "duration": 3, "velocity": 117}, {"time": 916, "pitch": 69, "duration": 1, "velocity": 117}, {"time": 919, "pitch": 71, "duration": 3, "velocity": 112}, {"time": 922, "pitch": 69, "duration": 3, "velocity": 112}, {"time": 925, "pitch": 67, "duration": 3, "velocity": 95}, {"time": 928, "pitch": 66, "duration": 3, "velocity": 102}, {"time": 931, "pitch": 64, "duration": 7, "velocity": 107}, {"time": 943, "pitch": 66, "duration": 2, "velocity": 127}, {"time": 946, "pitch": 66, "duration": 4, "velocity": 99}, {"time": 952, "pitch": 67, "duration": 3, "velocity": 96}, {"time": 955, "pitch": 66, "duration": 6, "velocity": 117}, {"time": 961, "pitch": 64, "duration": 3, "velocity": 96}, {"time": 964, "pitch": 66, "duration": 17, "velocity": 112}, {"time": 985, "pitch": 67, "duration": 3, "velocity": 112}, {"time": 988, "pitch": 66, "duration": 3, "velocity": 96}, {"time": 991, "pitch": 64, "duration": 17, "velocity": 112}, {"time": 1180, "pitch": 59, "duration": 4, "velocity": 96}, {"time": 1183, "pitch": 64, "duration": 2, "velocity": 86}, {"time": 1186, "pitch": 64, "duration": 2, "velocity": 66}, {"time": 1189, "pitch": 64, "duration": 2, "velocity": 82}, {"time": 1192, "pitch": 66, "duration": 2, "velocity": 92}, {"time": 1195, "pitch": 67, "duration": 5, "velocity": 102}, {"time": 1198, "pitch": 67, "duration": 2, "velocity": 96}, {"time": 1201, "pitch": 67, "duration": 3, "velocity": 83}, {"time": 1204, "pitch": 69, "duration": 2, "velocity": 99}, {"time": 1207, "pitch": 66, "duration": 3, "velocity": 127}, {"time": 1210, "pitch": 64, "duration": 3, "velocity": 82}, {"time": 1213, "pitch": 62, "duration": 4, "velocity": 82}, {"time": 1216, "pitch": 64, "duration": 11, "velocity": 77}, {"time": 1228, "pitch": 67, "duration": 3, "velocity": 89}, {"time": 1231, "pitch": 69, "duration": 2, "velocity": 85}, {"time": 1237, "pitch": 69, "duration": 2, "velocity": 96}, {"time": 1240, "pitch": 69, "duration": 2, "velocity": 93}, {"time": 1243, "pitch": 69, "duration": 3, "velocity": 100}, {"time": 1246, "pitch": 69, "duration": 3, "velocity": 97}, {"time": 1249, "pitch": 67, "duration": 3, "velocity": 92}, {"time": 1252, "pitch": 64, "duration": 4, "velocity": 77}, {"time": 1255, "pitch": 67, "duration": 4, "velocity": 88}, {"time": 1258, "pitch": 67, "duration": 1, "velocity": 90}, {"time": 1261, "pitch": 67, "duration": 2, "velocity": 88}, {"time": 1264, "pitch": 69, "duration": 2, "velocity": 96}, {"time": 1267, "pitch": 71, "duration": 11, "velocity": 95}, {"time": 1279, "pitch": 69, "duration": 2, "velocity": 100}, {"time": 1282, "pitch": 69, "duration": 2, "velocity": 85}, {"time": 1285, "pitch": 69, "duration": 2, "velocity": 96}, {"time": 1288, "pitch": 67, "duration": 1, "velocity": 90}, {"time": 1291, "pitch": 69, "duration": 6, "velocity": 99}, {"time": 1300, "pitch": 64, "duration": 1, "velocity": 78}, {"time": 1303, "pitch": 69, "duration": 2, "velocity": 90}, {"time": 1306, "pitch": 69, "duration": 2, "velocity": 79}, {"time": 1309, "pitch": 69, "duration": 2, "velocity": 90}, {"time": 1312, "pitch": 67, "duration": 2, "velocity": 89}, {"time": 1315, "pitch": 69, "duration": 7, "velocity": 96}, {"time": 1327, "pitch": 67, "duration": 2, "velocity": 99}, {"time": 1330, "pitch": 67, "duration": 1, "velocity": 89}, {"time": 1333, "pitch": 67, "duration": 2, "velocity": 89}, {"time": 1336, "pitch": 67, "duration": 1, "velocity": 92}, {"time": 1339, "pitch": 67, "duration": 1, "velocity": 93}, {"time": 1342, "pitch": 69, "duration": 8, "velocity": 97}, {"time": 1351, "pitch": 66, "duration": 20, "velocity": 102}, {"time": 1372, "pitch": 59, "duration": 2, "velocity": 89}, {"time": 1375, "pitch": 64, "duration": 2, "velocity": 89}, {"time": 1378, "pitch": 64, "duration": 1, "velocity": 83}, {"time": 1381, "pitch": 64, "duration": 1, "velocity": 90}, {"time": 1384, "pitch": 66, "duration": 2, "velocity": 97}, {"time": 1387, "pitch": 67, "duration": 3, "velocity": 99}, {"time": 1390, "pitch": 67, "duration": 1, "velocity": 90}, {"time": 1393, "pitch": 67, "duration": 2, "velocity": 95}, {"time": 1396, "pitch": 69, "duration": 2, "velocity": 96}, {"time": 1399, "pitch": 66, "duration": 3, "velocity": 117}, {"time": 1402, "pitch": 64, "duration": 3, "velocity": 79}, {"time": 1405, "pitch": 62, "duration": 3, "velocity": 82}, {"time": 1408, "pitch": 64, "duration": 9, "velocity": 92}, {"time": 1420, "pitch": 67, "duration": 1, "velocity": 86}, {"time": 1423, "pitch": 69, "duration": 4, "velocity": 102}, {"time": 1426, "pitch": 69, "duration": 1, "velocity": 82}, {"time": 1432, "pitch": 69, "duration": 2, "velocity": 117}, {"time": 1435, "pitch": 69, "duration": 2, "velocity": 127}, {"time": 1438, "pitch": 69, "duration": 3, "velocity": 102}, {"time": 1441, "pitch": 67, "duration": 2, "velocity": 88}, {"time": 1444, "pitch": 64, "duration": 3, "velocity": 90}, {"time": 1447, "pitch": 67, "duration": 3, "velocity": 117}, {"time": 1450, "pitch": 67, "duration": 1, "velocity": 89}, {"time": 1453, "pitch": 67, "duration": 2, "velocity": 102}, {"time": 1456, "pitch": 69, "duration": 2, "velocity": 112}, {"time": 1459, "pitch": 71, "duration": 7, "velocity": 127}, {"time": 1471, "pitch": 69, "duration": 1, "velocity": 112}, {"time": 1474, "pitch": 69, "duration": 1, "velocity": 96}, {"time": 1477, "pitch": 69, "duration": 1, "velocity": 102}, {"time": 1480, "pitch": 67, "duration": 1, "velocity": 102}, {"time": 1483, "pitch": 69, "duration": 5, "velocity": 117}, {"time": 1492, "pitch": 64, "duration": 2, "velocity": 93}, {"time": 1495, "pitch": 69, "duration": 1, "velocity": 93}, {"time": 1498, "pitch": 69, "duration": 1, "velocity": 93}, {"time": 1501, "pitch": 69, "duration": 1, "velocity": 100}, {"time": 1504, "pitch": 67, "duration": 1, "velocity": 90}, {"time": 1507, "pitch": 69, "duration": 5, "velocity": 107}, {"time": 1519, "pitch": 67, "duration": 1, "velocity": 107}, {"time": 1522, "pitch": 67, "duration": 1, "velocity": 86}, {"time": 1525, "pitch": 67, "duration": 1, "velocity": 88}, {"time": 1528, "pitch": 67, "duration": 1, "velocity": 86}, {"time": 1531, "pitch": 67, "duration": 2, "velocity": 93}, {"time": 1534, "pitch": 69, "duration": 7, "velocity": 117}, {"time": 1543, "pitch": 66, "duration": 3, "velocity": 112}, {"time": 1546, "pitch": 64, "duration": 4, "velocity": 77}, {"time": 1549, "pitch": 66, "duration": 17, "velocity": 117}, {"time": 1561, "pitch": 64, "duration": 2, "velocity": 107}, {"time": 1564, "pitch": 64, "duration": 2, "velocity": 93}, {"time": 1567, "pitch": 71, "duration": 2, "velocity": 107}, {"time": 1570, "pitch": 71, "duration": 4, "velocity": 117}, {"time": 1576, "pitch": 71, "duration": 2, "velocity": 112}, {"time": 1579, "pitch": 69, "duration": 3, "velocity": 102}, {"time": 1582, "pitch": 71, "duration": 4, "velocity": 96}, {"time": 1588, "pitch": 71, "duration": 1, "velocity": 117}, {"time": 1591, "pitch": 71, "duration": 4, "velocity": 107}, {"time": 1597, "pitch": 69, "duration": 3, "velocity": 122}, {"time": 1600, "pitch": 67, "duration": 3, "velocity": 100}, {"time": 1603, "pitch": 64, "duration": 7, "velocity": 100}, {"time": 1615, "pitch": 76, "duration": 2, "velocity": 122}, {"time": 1618, "pitch": 76, "duration": 5, "velocity": 117}, {"time": 1624, "pitch": 76, "duration": 3, "velocity": 122}, {"time": 1627, "pitch": 74, "duration": 4, "velocity": 117}, {"time": 1633, "pitch": 71, "duration": 3, "velocity": 127}, {"time": 1636, "pitch": 69, "duration": 4, "velocity": 89}, {"time": 1639, "pitch": 71, "duration": 13, "velocity": 97}, {"time": 1657, "pitch": 64, "duration": 2, "velocity": 97}, {"time": 1660, "pitch": 64, "duration": 2, "velocity": 97}, {"time": 1663, "pitch": 69, "duration": 2, "velocity": 127}, {"time": 1666, "pitch": 69, "duration": 4, "velocity": 127}, {"time": 1672, "pitch": 69, "duration": 2, "velocity": 127}, {"time": 1675, "pitch": 67, "duration": 2, "velocity": 122}, {"time": 1678, "pitch": 69, "duration": 4, "velocity": 127}, {"time": 1684, "pitch": 69, "duration": 1, "velocity": 117}, {"time": 1687, "pitch": 71, "duration": 3, "velocity": 122}, {"time": 1690, "pitch": 69, "duration": 3, "velocity": 112}, {"time": 1693, "pitch": 67, "duration": 3, "velocity": 112}, {"time": 1696, "pitch": 66, "duration": 3, "velocity": 112}, {"time": 1699, "pitch": 64, "duration": 6, "velocity": 100}, {"time": 1711, "pitch": 69, "duration": 2, "velocity": 117}, {"time": 1714, "pitch": 69, "duration": 4, "velocity": 122}, {"time": 1720, "pitch": 67, "duration": 3, "velocity": 107}, {"time": 1723, "pitch": 76, "duration": 5, "velocity": 127}, {"time": 1729, "pitch": 74, "duration": 5, "velocity": 122}, {"time": 1735, "pitch": 71, "duration": 17, "velocity": 117}, {"time": 1753, "pitch": 64, "duration": 2, "velocity": 99}, {"time": 1756, "pitch": 64, "duration": 3, "velocity": 92}, {"time": 1759, "pitch": 71, "duration": 2, "velocity": 127}, {"time": 1762, "pitch": 71, "duration": 5, "velocity": 112}, {"time": 1768, "pitch": 71, "duration": 2, "velocity": 127}, {"time": 1771, "pitch": 69, "duration": 3, "velocity": 112}, {"time": 1774, "pitch": 71, "duration": 3, "velocity": 112}, {"time": 1780, "pitch": 71, "duration": 3, "velocity": 127}, {"time": 1783, "pitch": 69, "duration": 3, "velocity": 122}, {"time": 1786, "pitch": 71, "duration": 3, "velocity": 99}, {"time": 1789, "pitch": 67, "duration": 3, "velocity": 95}, {"time": 1792, "pitch": 66, "duration": 3, "velocity": 100}, {"time": 1795, "pitch": 64, "duration": 6, "velocity": 100}, {"time": 1807, "pitch": 76, "duration": 2, "velocity": 117}, {"time": 1810, "pitch": 76, "duration": 2, "velocity": 96}, {"time": 1813, "pitch": 76, "duration": 2, "velocity": 95}, {"time": 1816, "pitch": 76, "duration": 2, "velocity": 100}, {"time": 1819, "pitch": 78, "duration": 5, "velocity": 127}, {"time": 1825, "pitch": 74, "duration": 5, "velocity": 122}, {"time": 1831, "pitch": 71, "duration": 12, "velocity": 112}, {"time": 1849, "pitch": 64, "duration": 2, "velocity": 92}, {"time": 1852, "pitch": 64, "duration": 3, "velocity": 93}, {"time": 1855, "pitch": 69, "duration": 2, "velocity": 117}, {"time": 1858, "pitch": 69, "duration": 4, "velocity": 117}, {"time": 1864, "pitch": 69, "duration": 2, "velocity": 127}, {"time": 1867, "pitch": 67, "duration": 3, "velocity": 112}, {"time": 1870, "pitch": 69, "duration": 3, "velocity": 117}, {"time": 1876, "pitch": 69, "duration": 1, "velocity": 117}, {"time": 1879, "pitch": 71, "duration": 3, "velocity": 112}, {"time": 1882, "pitch": 69, "duration": 3, "velocity": 112}, {"time": 1885, "pitch": 67, "duration": 3, "velocity": 95}, {"time": 1888, "pitch": 66, "duration": 3, "velocity": 102}, {"time": 1891, "pitch": 64, "duration": 7, "velocity": 107}, {"time": 1903, "pitch": 66, "duration": 2, "velocity": 127}, {"time": 1906, "pitch": 66, "duration": 4, "velocity": 99}, {"time": 1912, "pitch": 67, "duration": 3, "velocity": 96}, {"time": 1915, "pitch": 66, "duration": 6, "velocity": 117}, {"time": 1921, "pitch": 64, "duration": 3, "velocity": 96}, {"time": 1924, "pitch": 66, "duration": 17, "velocity": 112}, {"time": 1945, "pitch": 67, "duration": 3, "velocity": 112}, {"time": 1948, "pitch": 66, "duration": 3, "velocity": 96}, {"time": 1951, "pitch": 64, "duration": 17, "velocity": 112}, {"time": 2137, "pitch": 64, "duration": 2, "velocity": 102}, {"time": 2140, "pitch": 66, "duration": 1, "velocity": 122}, {"time": 2143, "pitch": 67, "duration": 8, "velocity": 127}, {"time": 2167, "pitch": 64, "duration": 19, "velocity": 112}, {"time": 2191, "pitch": 67, "duration": 9, "velocity": 127}, {"time": 2203, "pitch": 66, "duration": 9, "velocity": 127}, {"time": 2215, "pitch": 67, "duration": 18, "velocity": 127}, {"time": 2233, "pitch": 71, "duration": 3, "velocity": 112}, {"time": 2236, "pitch": 74, "duration": 1, "velocity": 95}, {"time": 2239, "pitch": 76, "duration": 10, "velocity": 127}, {"time": 2251, "pitch": 76, "duration": 7, "velocity": 127}, {"time": 2260, "pitch": 71, "duration": 1, "velocity": 112}, {"time": 2263, "pitch": 71, "duration": 7, "velocity": 127}, {"time": 2269, "pitch": 69, "duration": 14, "velocity": 107}, {"time": 2281, "pitch": 69, "duration": 2, "velocity": 107}, {"time": 2284, "pitch": 71, "duration": 2, "velocity": 112}, {"time": 2287, "pitch": 72, "duration": 15, "velocity": 127}, {"time": 2302, "pitch": 74, "duration": 3, "velocity": 67}, {"time": 2305, "pitch": 71, "duration": 3, "velocity": 100}, {"time": 2308, "pitch": 69, "duration": 4, "velocity": 81}, {"time": 2311, "pitch": 71, "duration": 12, "velocity": 107}, {"time": 2329, "pitch": 66, "duration": 2, "velocity": 107}, {"time": 2332, "pitch": 66, "duration": 2, "velocity": 93}, {"time": 2335, "pitch": 73, "duration": 2, "velocity": 107}, {"time": 2338, "pitch": 73, "duration": 4, "velocity": 117}, {"time": 2344, "pitch": 73, "duration": 2, "velocity": 112}, {"time": 2347, "pitch": 71, "duration": 3, "velocity": 102}, {"time": 2350, "pitch": 73, "duration": 4, "velocity": 96}, {"time": 2356, "pitch": 73, "duration": 1, "velocity": 117}, {"time": 2359, "pitch": 73, "duration": 4, "velocity": 107}, {"time": 2365, "pitch": 71, "duration": 3, "velocity": 122}, {"time": 2368, "pitch": 69, "duration": 3, "velocity": 100}, {"time": 2371, "pitch": 66, "duration": 7, "velocity": 100}, {"time": 2383, "pitch": 78, "duration": 2, "velocity": 122}, {"time": 2386, "pitch": 78, "duration": 5, "velocity": 117}, {"time": 2392, "pitch": 78, "duration": 3, "velocity": 122}, {"time": 2395, "pitch": 76, "duration": 4, "velocity": 117}, {"time": 2401, "pitch": 73, "duration": 3, "velocity": 127}, {"time": 2404, "pitch": 71, "duration": 4, "velocity": 89}, {"time": 2407, "pitch": 73, "duration": 13, "velocity": 97}, {"time": 2425, "pitch": 66, "duration": 2, "velocity": 97}, {"time": 2428, "pitch": 66, "duration": 2, "velocity": 97}, {"time": 2431, "pitch": 71, "duration": 2, "velocity": 127}, {"time": 2434, "pitch": 71, "duration": 4, "velocity": 127}, {"time": 2440, "pitch": 71, "duration": 2, "velocity": 127}, {"time": 2443, "pitch": 69, "duration": 2, "velocity": 122}, {"time": 2446, "pitch": 71, "duration": 4, "velocity": 127}, {"time": 2452, "pitch": 71, "duration": 1, "velocity": 117}, {"time": 2455, "pitch": 73, "duration": 3, "velocity": 122}, {"time": 2458, "pitch": 71, "duration": 3, "velocity": 112}, {"time": 2461, "pitch": 69, "duration": 3, "velocity": 112}, {"time": 2464, "pitch": 68, "duration": 3, "velocity": 112}, {"time": 2467, "pitch": 66, "duration": 6, "velocity": 100}, {"time": 2479, "pitch": 71, "duration": 2, "velocity": 117}, {"time": 2482, "pitch": 71, "duration": 4, "velocity": 122}, {"time": 2488, "pitch": 69, "duration": 3, "velocity": 107}, {"time": 2491, "pitch": 78, "duration": 5, "velocity": 127}, {"time": 2497, "pitch": 76, "duration": 5, "velocity": 122}, {"time": 2503, "pitch": 73, "duration": 17, "velocity": 117}, {"time": 2521, "pitch": 66, "duration": 2, "velocity": 99}, {"time": 2524, "pitch": 66, "duration": 3, "velocity": 92}, {"time": 2527, "pitch": 73, "duration": 2, "velocity": 127}, {"time": 2530, "pitch": 73, "duration": 5, "velocity": 112}, {"time": 2536, "pitch": 73, "duration": 2, "velocity": 127}, {"time": 2539, "pitch": 71, "duration": 3, "velocity": 112}, {"time": 2542, "pitch": 73, "duration": 3, "velocity": 112}, {"time": 2548, "pitch": 73, "duration": 3, "velocity": 127}, {"time": 2551, "pitch": 71, "duration": 3, "velocity": 122}, {"time": 2554, "pitch": 73, "duration": 3, "velocity": 99}, {"time": 2557, "pitch": 69, "duration": 3, "velocity": 95}, {"time": 2560, "pitch": 68, "duration": 3, "velocity": 100}, {"time": 2563, "pitch": 66, "duration": 6, "velocity": 100}, {"time": 2575, "pitch": 78, "duration": 2, "velocity": 117}, {"time": 2578, "pitch": 78, "duration": 2, "velocity": 96}, {"time": 2581, "pitch": 78, "duration": 2, "velocity": 95}, {"time": 2584, "pitch": 78, "duration": 2, "velocity": 100}, {"time": 2587, "pitch": 80, "duration": 5, "velocity": 127}, {"time": 2593, "pitch": 76, "duration": 5, "velocity": 122}, {"time": 2599, "pitch": 73, "duration": 12, "velocity": 112}, {"time": 2617, "pitch": 66, "duration": 2, "velocity": 92}, {"time": 2620, "pitch": 66, "duration": 3, "velocity": 93}, {"time": 2623, "pitch": 71, "duration": 2, "velocity": 117}, {"time": 2626, "pitch": 71, "duration": 4, "velocity": 117}, {"time": 2632, "pitch": 71, "duration": 2, "velocity": 127}, {"time": 2635, "pitch": 69, "duration": 3, "velocity": 112}, {"time": 2638, "pitch": 71, "duration": 3, "velocity": 117}, {"time": 2644, "pitch": 71, "duration": 1, "velocity": 117}, {"time": 2647, "pitch": 73, "duration": 3, "velocity": 112}, {"time": 2650, "pitch": 71, "duration": 3, "velocity": 112}, {"time": 2653, "pitch": 69, "duration": 3, "velocity": 95}, {"time": 2656, "pitch": 68, "duration": 3, "velocity": 102}, {"time": 2659, "pitch": 66, "duration": 7, "velocity": 107}, {"time": 2671, "pitch": 68, "duration": 2, "velocity": 127}, {"time": 2674, "pitch": 68, "duration": 4, "velocity": 99}, {"time": 2680, "pitch": 69, "duration": 3, "velocity": 96}, {"time": 2683, "pitch": 68, "duration": 6, "velocity": 117}, {"time": 2689, "pitch": 66, "duration": 3, "velocity": 96}, {"time": 2692, "pitch": 68, "duration": 17, "velocity": 112}, {"time": 2749, "pitch": 69, "duration": 7, "velocity": 99}, {"time": 2755, "pitch": 66, "duration": 24, "velocity": 96}]}, {"program": 0, "is_drum": false, "name": "PIANO", "notes": [{"time": 31, "pitch": 40, "duration": 15, "velocity": 66}, {"time": 37, "pitch": 47, "duration": 9, "velocity": 52}, {"time": 43, "pitch": 67, "duration": 14, "velocity": 63}, {"time": 49, "pitch": 64, "duration": 8, "velocity": 60}, {"time": 55, "pitch": 45, "duration": 16, "velocity": 66}, {"time": 61, "pitch": 52, "duration": 8, "velocity": 53}, {"time": 67, "pitch": 60, "duration": 14, "velocity": 63}, {"time": 67, "pitch": 64, "duration": 14, "velocity": 63}, {"time": 79, "pitch": 40, "duration": 18, "velocity": 74}, {"time": 85, "pitch": 47, "duration": 12, "velocity": 58}, {"time": 91, "pitch": 64, "duration": 13, "velocity": 64}, {"time": 91, "pitch": 67, "duration": 13, "velocity": 64}, {"time": 97, "pitch": 59, "duration": 7, "velocity": 43}, {"time": 103, "pitch": 43, "duration": 19, "velocity": 69}, {"time": 109, "pitch": 50, "duration": 13, "velocity": 66}, {"time": 115, "pitch": 55, "duration": 6, "velocity": 46}, {"time": 115, "pitch": 62, "duration": 13, "velocity": 57}, {"time": 115, "pitch": 67, "duration": 12, "velocity": 67}, {"time": 127, "pitch": 40, "duration": 20, "velocity": 72}, {"time": 133, "pitch": 47, "duration": 14, "velocity": 59}, {"time": 139, "pitch": 52, "duration": 9, "velocity": 35}, {"time": 139, "pitch": 64, "duration": 14, "velocity": 60}, {"time": 139, "pitch": 67, "duration": 14, "velocity": 61}, {"time": 145, "pitch": 59, "duration": 8, "velocity": 60}, {"time": 151, "pitch": 45, "duration": 18, "velocity": 70}, {"time": 157, "pitch": 52, "duration": 11, "velocity": 58}, {"time": 163, "pitch": 57, "duration": 11, "velocity": 47}, {"time": 163, "pitch": 60, "duration": 12, "velocity": 65}, {"time": 163, "pitch": 64, "duration": 12, "velocity": 69}, {"time": 175, "pitch": 36, "duration": 9, "velocity": 86}, {"time": 178, "pitch": 55, "duration": 9, "velocity": 72}, {"time": 181, "pitch": 64, "duration": 6, "velocity": 93}, {"time": 184, "pitch": 60, "duration": 3, "velocity": 74}, {"time": 187, "pitch": 38, "duration": 7, "velocity": 62}, {"time": 190, "pitch": 57, "duration": 10, "velocity": 73}, {"time": 193, "pitch": 66, "duration": 7, "velocity": 95}, {"time": 196, "pitch": 62, "duration": 4, "velocity": 65}, {"time": 199, "pitch": 40, "duration": 24, "velocity": 73}, {"time": 202, "pitch": 47, "duration": 21, "velocity": 59}, {"time": 205, "pitch": 52, "duration": 8, "velocity": 67}, {"time": 208, "pitch": 55, "duration": 16, "velocity": 66}, {"time": 211, "pitch": 59, "duration": 12, "velocity": 63}, {"time": 211, "pitch": 64, "duration": 13, "velocity": 61}, {"time": 223, "pitch": 40, "duration": 17, "velocity": 79}, {"time": 229, "pitch": 47, "duration": 10, "velocity": 56}, {"time": 235, "pitch": 59, "duration": 13, "velocity": 66}, {"time": 235, "pitch": 64, "duration": 13, "velocity": 59}, {"time": 241, "pitch": 55, "duration": 8, "velocity": 66}, {"time": 247, "pitch": 38, "duration": 19, "velocity": 72}, {"time": 253, "pitch": 45, "duration": 13, "velocity": 54}, {"time": 259, "pitch": 50, "duration": 7, "velocity": 43}, {"time": 259, "pitch": 62, "duration": 13, "velocity": 67}, {"time": 259, "pitch": 66, "duration": 13, "velocity": 59}, {"time": 271, "pitch": 45, "duration": 15, "velocity": 78}, {"time": 277, "pitch": 52, "duration": 8, "velocity": 56}, {"time": 283, "pitch": 60, "duration": 13, "velocity": 74}, {"time": 283, "pitch": 64, "duration": 13, "velocity": 77}, {"time": 289, "pitch": 57, "duration": 7, "velocity": 58}, {"time": 295, "pitch": 40, "duration": 21, "velocity": 78}, {"time": 301, "pitch": 47, "duration": 14, "velocity": 48}, {"time": 307, "pitch": 52, "duration": 7, "velocity": 41}, {"time": 307, "pitch": 64, "duration": 11, "velocity": 64}, {"time": 307, "pitch": 67, "duration": 11, "velocity": 61}, {"time": 319, "pitch": 38, "duration": 13, "velocity": 69}, {"time": 325, "pitch": 57, "duration": 7, "velocity": 62}, {"time": 331, "pitch": 62, "duration": 8, "velocity": 72}, {"time": 331, "pitch": 66, "duration": 9, "velocity": 92}, {"time": 337, "pitch": 57, "duration": 8, "velocity": 43}, {"time": 343, "pitch": 37, "duration": 14, "velocity": 70}, {"time": 349, "pitch": 49, "duration": 8, "velocity": 36}, {"time": 355, "pitch": 61, "duration": 13, "velocity": 86}, {"time": 355, "pitch": 64, "duration": 14, "velocity": 72}, {"time": 355, "pitch": 67, "duration": 12, "velocity": 72}, {"time": 367, "pitch": 48, "duration": 14, "velocity": 93}, {"time": 373, "pitch": 55, "duration": 7, "velocity": 77}, {"time": 379, "pitch": 60, "duration": 11, "velocity": 83}, {"time": 379, "pitch": 64, "duration": 9, "velocity": 86}, {"time": 385, "pitch": 55, "duration": 7, "velocity": 76}, {"time": 391, "pitch": 35, "duration": 18, "velocity": 74}, {"time": 397, "pitch": 42, "duration": 13, "velocity": 43}, {"time": 403, "pitch": 47, "duration": 8, "velocity": 54}, {"time": 403, "pitch": 63, "duration": 13, "velocity": 99}, {"time": 403, "pitch": 66, "duration": 13, "velocity": 100}, {"time": 409, "pitch": 59, "duration": 7, "velocity": 96}, {"time": 415, "pitch": 40, "duration": 20, "velocity": 112}, {"time": 421, "pitch": 47, "duration": 14, "velocity": 78}, {"time": 427, "pitch": 52, "duration": 5, "velocity": 67}, {"time": 427, "pitch": 67, "duration": 12, "velocity": 95}, {"time": 433, "pitch": 64, "duration": 6, "velocity": 102}, {"time": 439, "pitch": 38, "duration": 19, "velocity": 92}, {"time": 445, "pitch": 45, "duration": 13, "velocity": 60}, {"time": 451, "pitch": 50, "duration": 8, "velocity": 68}, {"time": 451, "pitch": 66, "duration": 14, "velocity": 112}, {"time": 457, "pitch": 62, "duration": 7, "velocity": 83}, {"time": 460, "pitch": 57, "duration": 5, "velocity": 64}, {"time": 463, "pitch": 45, "duration": 15, "velocity": 81}, {"time": 469, "pitch": 52, "duration": 8, "velocity": 61}, {"time": 475, "pitch": 60, "duration": 13, "velocity": 93}, {"time": 475, "pitch": 64, "duration": 13, "velocity": 97}, {"time": 481, "pitch": 57, "duration": 7, "velocity": 82}, {"time": 487, "pitch": 40, "duration": 19, "velocity": 73}, {"time": 493, "pitch": 47, "duration": 13, "velocity": 55}, {"time": 499, "pitch": 52, "duration": 5, "velocity": 63}, {"time": 499, "pitch": 64, "duration": 12, "velocity": 90}, {"time": 499, "pitch": 67, "duration": 12, "velocity": 86}, {"time": 505, "pitch": 59, "duration": 7, "velocity": 97}, {"time": 511, "pitch": 38, "duration": 16, "velocity": 90}, {"time": 517, "pitch": 45, "duration": 10, "velocity": 59}, {"time": 523, "pitch": 50, "duration": 3, "velocity": 67}, {"time": 523, "pitch": 62, "duration": 12, "velocity": 100}, {"time": 523, "pitch": 66, "duration": 12, "velocity": 107}, {"time": 529, "pitch": 57, "duration": 7, "velocity": 93}, {"time": 535, "pitch": 37, "duration": 19, "velocity": 86}, {"time": 541, "pitch": 61, "duration": 6, "velocity": 102}, {"time": 547, "pitch": 61, "duration": 1, "velocity": 72}, {"time": 547, "pitch": 64, "duration": 12, "velocity": 100}, {"time": 553, "pitch": 61, "duration": 5, "velocity": 112}, {"time": 559, "pitch": 36, "duration": 18, "velocity": 96}, {"time": 565, "pitch": 43, "duration": 12, "velocity": 55}, {"time": 571, "pitch": 48, "duration": 4, "velocity": 71}, {"time": 571, "pitch": 60, "duration": 13, "velocity": 89}, {"time": 571, "pitch": 64, "duration": 13, "velocity": 95}, {"time": 577, "pitch": 55, "duration": 7, "velocity": 96}, {"time": 583, "pitch": 35, "duration": 18, "velocity": 85}, {"time": 589, "pitch": 42, "duration": 12, "velocity": 62}, {"time": 595, "pitch": 63, "duration": 7, "velocity": 127}, {"time": 595, "pitch": 66, "duration": 7, "velocity": 127}, {"time": 598, "pitch": 47, "duration": 4, "velocity": 93}, {"time": 601, "pitch": 59, "duration": 6, "velocity": 127}, {"time": 607, "pitch": 40, "duration": 18, "velocity": 100}, {"time": 610, "pitch": 47, "duration": 15, "velocity": 97}, {"time": 613, "pitch": 52, "duration": 8, "velocity": 93}, {"time": 616, "pitch": 59, "duration": 6, "velocity": 100}, {"time": 619, "pitch": 67, "duration": 12, "velocity": 127}, {"time": 622, "pitch": 52, "duration": 4, "velocity": 112}, {"time": 625, "pitch": 64, "duration": 6, "velocity": 112}, {"time": 628, "pitch": 59, "duration": 4, "velocity": 100}, {"time": 631, "pitch": 45, "duration": 17, "velocity": 96}, {"time": 634, "pitch": 52, "duration": 10, "velocity": 82}, {"time": 637, "pitch": 57, "duration": 7, "velocity": 89}, {"time": 640, "pitch": 60, "duration": 3, "velocity": 99}, {"time": 643, "pitch": 64, "duration": 10, "velocity": 117}, {"time": 646, "pitch": 52, "duration": 1, "velocity": 93}, {"time": 649, "pitch": 60, "duration": 5, "velocity": 112}, {"time": 652, "pitch": 57, "duration": 4, "velocity": 112}, {"time": 655, "pitch": 36, "duration": 12, "velocity": 86}, {"time": 658, "pitch": 43, "duration": 9, "velocity": 90}, {"time": 661, "pitch": 48, "duration": 4, "velocity": 97}, {"time": 664, "pitch": 64, "duration": 3, "velocity": 117}, {"time": 667, "pitch": 38, "duration": 7, "velocity": 97}, {"time": 670, "pitch": 57, "duration": 4, "velocity": 95}, {"time": 673, "pitch": 62, "duration": 7, "velocity": 92}, {"time": 673, "pitch": 66, "duration": 7, "velocity": 127}, {"time": 676, "pitch": 57, "duration": 4, "velocity": 86}, {"time": 679, "pitch": 43, "duration": 17, "velocity": 78}, {"time": 682, "pitch": 50, "duration": 10, "velocity": 92}, {"time": 685, "pitch": 55, "duration": 3, "velocity": 107}, {"time": 688, "pitch": 59, "duration": 4, "velocity": 93}, {"time": 691, "pitch": 62, "duration": 7, "velocity": 97}, {"time": 691, "pitch": 67, "duration": 12, "velocity": 117}, {"time": 694, "pitch": 50, "duration": 2, "velocity": 85}, {"time": 697, "pitch": 59, "duration": 4, "velocity": 117}, {"time": 700, "pitch": 62, "duration": 4, "velocity": 127}, {"time": 703, "pitch": 45, "duration": 18, "velocity": 92}, {"time": 706, "pitch": 52, "duration": 11, "velocity": 100}, {"time": 709, "pitch": 57, "duration": 3, "velocity": 95}, {"time": 712, "pitch": 60, "duration": 4, "velocity": 107}, {"time": 715, "pitch": 64, "duration": 12, "velocity": 117}, {"time": 718, "pitch": 52, "duration": 2, "velocity": 102}, {"time": 721, "pitch": 60, "duration": 6, "velocity": 112}, {"time": 724, "pitch": 57, "duration": 3, "velocity": 112}, {"time": 727, "pitch": 40, "duration": 18, "velocity": 89}, {"time": 730, "pitch": 47, "duration": 11, "velocity": 92}, {"time": 733, "pitch": 52, "duration": 5, "velocity": 95}, {"time": 736, "pitch": 59, "duration": 3, "velocity": 97}, {"time": 739, "pitch": 64, "duration": 6, "velocity": 102}, {"time": 739, "pitch": 67, "duration": 11, "velocity": 117}, {"time": 742, "pitch": 47, "duration": 4, "velocity": 97}, {"time": 745, "pitch": 59, "duration": 6, "velocity": 122}, {"time": 748, "pitch": 64, "duration": 3, "velocity": 117}, {"time": 751, "pitch": 45, "duration": 11, "velocity": 122}, {"time": 754, "pitch": 57, "duration": 4, "velocity": 83}, {"time": 757, "pitch": 60, "duration": 5, "velocity": 99}, {"time": 757, "pitch": 64, "duration": 5, "velocity": 122}, {"time": 760, "pitch": 57, "duration": 4, "velocity": 90}, {"time": 763, "pitch": 50, "duration": 7, "velocity": 122}, {"time": 766, "pitch": 57, "duration": 4, "velocity": 89}, {"time": 769, "pitch": 62, "duration": 6, "velocity": 97}, {"time": 769, "pitch": 66, "duration": 6, "velocity": 127}, {"time": 772, "pitch": 57, "duration": 4, "velocity": 97}, {"time": 775, "pitch": 43, "duration": 17, "velocity": 95}, {"time": 778, "pitch": 50, "duration": 11, "velocity": 99}, {"time": 781, "pitch": 55, "duration": 3, "velocity": 92}, {"time": 784, "pitch": 59, "duration": 3, "velocity": 122}, {"time": 787, "pitch": 62, "duration": 12, "velocity": 122}, {"time": 790, "pitch": 50, "duration": 2, "velocity": 102}, {"time": 793, "pitch": 59, "duration": 6, "velocity": 127}, {"time": 796, "pitch": 55, "duration": 3, "velocity": 107}, {"time": 799, "pitch": 40, "duration": 18, "velocity": 90}, {"time": 802, "pitch": 47, "duration": 16, "velocity": 82}, {"time": 805, "pitch": 52, "duration": 7, "velocity": 102}, {"time": 808, "pitch": 59, "duration": 3, "velocity": 97}, {"time": 811, "pitch": 64, "duration": 7, "velocity": 97}, {"time": 811, "pitch": 67, "duration": 13, "velocity": 127}, {"time": 814, "pitch": 52, "duration": 4, "velocity": 112}, {"time": 817, "pitch": 59, "duration": 7, "velocity": 122}, {"time": 820, "pitch": 64, "duration": 4, "velocity": 127}, {"time": 823, "pitch": 45, "duration": 17, "velocity": 95}, {"time": 826, "pitch": 52, "duration": 11, "velocity": 93}, {"time": 829, "pitch": 57, "duration": 3, "velocity": 95}, {"time": 832, "pitch": 60, "duration": 3, "velocity": 100}, {"time": 835, "pitch": 64, "duration": 12, "velocity": 127}, {"time": 838, "pitch": 52, "duration": 2, "velocity": 96}, {"time": 841, "pitch": 60, "duration": 6, "velocity": 127}, {"time": 844, "pitch": 57, "duration": 3, "velocity": 117}, {"time": 847, "pitch": 36, "duration": 11, "velocity": 96}, {"time": 850, "pitch": 43, "duration": 10, "velocity": 89}, {"time": 853, "pitch": 48, "duration": 3, "velocity": 122}, {"time": 856, "pitch": 64, "duration": 3, "velocity": 127}, {"time": 859, "pitch": 38, "duration": 9, "velocity": 99}, {"time": 862, "pitch": 45, "duration": 7, "velocity": 112}, {"time": 865, "pitch": 50, "duration": 7, "velocity": 112}, {"time": 868, "pitch": 66, "duration": 4, "velocity": 127}, {"time": 871, "pitch": 43, "duration": 23, "velocity": 83}, {"time": 874, "pitch": 50, "duration": 11, "velocity": 79}, {"time": 877, "pitch": 55, "duration": 5, "velocity": 107}, {"time": 880, "pitch": 59, "duration": 4, "velocity": 96}, {"time": 883, "pitch": 67, "duration": 13, "velocity": 117}, {"time": 886, "pitch": 50, "duration": 9, "velocity": 93}, {"time": 889, "pitch": 62, "duration": 7, "velocity": 99}, {"time": 892, "pitch": 59, "duration": 4, "velocity": 90}, {"time": 895, "pitch": 45, "duration": 18, "velocity": 95}, {"time": 898, "pitch": 52, "duration": 10, "velocity": 73}, {"time": 901, "pitch": 57, "duration": 7, "velocity": 95}, {"time": 904, "pitch": 60, "duration": 10, "velocity": 95}, {"time": 907, "pitch": 64, "duration": 7, "velocity": 97}, {"time": 910, "pitch": 52, "duration": 2, "velocity": 78}, {"time": 913, "pitch": 57, "duration": 8, "velocity": 99}, {"time": 916, "pitch": 60, "duration": 4, "velocity": 96}, {"time": 916, "pitch": 64, "duration": 5, "velocity": 100}, {"time": 919, "pitch": 40, "duration": 23, "velocity": 75}, {"time": 922, "pitch": 47, "duration": 20, "velocity": 85}, {"time": 925, "pitch": 52, "duration": 7, "velocity": 93}, {"time": 928, "pitch": 59, "duration": 4, "velocity": 88}, {"time": 931, "pitch": 64, "duration": 7, "velocity": 99}, {"time": 931, "pitch": 67, "duration": 11, "velocity": 112}, {"time": 934, "pitch": 52, "duration": 7, "velocity": 90}, {"time": 937, "pitch": 59, "duration": 6, "velocity": 100}, {"time": 940, "pitch": 64, "duration": 3, "velocity": 112}, {"time": 943, "pitch": 47, "duration": 22, "velocity": 99}, {"time": 946, "pitch": 54, "duration": 10, "velocity": 93}, {"time": 949, "pitch": 59, "duration": 7, "velocity": 85}, {"time": 955, "pitch": 63, "duration": 7, "velocity": 112}, {"time": 955, "pitch": 66, "duration": 8, "velocity": 127}, {"time": 958, "pitch": 54, "duration": 8, "velocity": 100}, {"time": 961, "pitch": 59, "duration": 9, "velocity": 107}, {"time": 964, "pitch": 63, "duration": 9, "velocity": 96}, {"time": 964, "pitch": 66, "duration": 9, "velocity": 72}, {"time": 967, "pitch": 47, "duration": 19, "velocity": 89}, {"time": 970, "pitch": 54, "duration": 16, "velocity": 89}, {"time": 973, "pitch": 59, "duration": 18, "velocity": 96}, {"time": 976, "pitch": 63, "duration": 15, "velocity": 97}, {"time": 979, "pitch": 66, "duration": 12, "velocity": 107}, {"time": 979, "pitch": 69, "duration": 12, "velocity": 83}, {"time": 991, "pitch": 40, "duration": 16, "velocity": 89}, {"time": 994, "pitch": 47, "duration": 14, "velocity": 85}, {"time": 997, "pitch": 52, "duration": 7, "velocity": 89}, {"time": 1000, "pitch": 59, "duration": 4, "velocity": 61}, {"time": 1003, "pitch": 64, "duration": 13, "velocity": 79}, {"time": 1003, "pitch": 67, "duration": 13, "velocity": 90}, {"time": 1009, "pitch": 59, "duration": 7, "velocity": 74}, {"time": 1015, "pitch": 45, "duration": 13, "velocity": 83}, {"time": 1021, "pitch": 52, "duration": 7, "velocity": 66}, {"time": 1027, "pitch": 60, "duration": 13, "velocity": 79}, {"time": 1027, "pitch": 64, "duration": 13, "velocity": 75}, {"time": 1039, "pitch": 40, "duration": 18, "velocity": 83}, {"time": 1045, "pitch": 47, "duration": 12, "velocity": 62}, {"time": 1051, "pitch": 52, "duration": 4, "velocity": 56}, {"time": 1051, "pitch": 64, "duration": 12, "velocity": 85}, {"time": 1051, "pitch": 67, "duration": 12, "velocity": 83}, {"time": 1057, "pitch": 59, "duration": 7, "velocity": 58}, {"time": 1063, "pitch": 43, "duration": 14, "velocity": 86}, {"time": 1069, "pitch": 50, "duration": 7, "velocity": 72}, {"time": 1075, "pitch": 59, "duration": 13, "velocity": 96}, {"time": 1075, "pitch": 62, "duration": 13, "velocity": 99}, {"time": 1081, "pitch": 55, "duration": 6, "velocity": 81}, {"time": 1087, "pitch": 40, "duration": 18, "velocity": 97}, {"time": 1093, "pitch": 47, "duration": 13, "velocity": 56}, {"time": 1099, "pitch": 52, "duration": 4, "velocity": 59}, {"time": 1099, "pitch": 64, "duration": 14, "velocity": 93}, {"time": 1099, "pitch": 67, "duration": 14, "velocity": 92}, {"time": 1105, "pitch": 59, "duration": 8, "velocity": 89}, {"time": 1111, "pitch": 45, "duration": 14, "velocity": 88}, {"time": 1117, "pitch": 52, "duration": 7, "velocity": 64}, {"time": 1123, "pitch": 60, "duration": 12, "velocity": 100}, {"time": 1123, "pitch": 64, "duration": 12, "velocity": 99}, {"time": 1129, "pitch": 57, "duration": 6, "velocity": 85}, {"time": 1135, "pitch": 36, "duration": 8, "velocity": 89}, {"time": 1141, "pitch": 60, "duration": 8, "velocity": 78}, {"time": 1141, "pitch": 64, "duration": 6, "velocity": 72}, {"time": 1147, "pitch": 38, "duration": 8, "velocity": 69}, {"time": 1150, "pitch": 45, "duration": 7, "velocity": 82}, {"time": 1153, "pitch": 62, "duration": 7, "velocity": 95}, {"time": 1153, "pitch": 66, "duration": 7, "velocity": 107}, {"time": 1156, "pitch": 57, "duration": 4, "velocity": 73}, {"time": 1159, "pitch": 40, "duration": 24, "velocity": 73}, {"time": 1162, "pitch": 47, "duration": 21, "velocity": 59}, {"time": 1165, "pitch": 52, "duration": 9, "velocity": 77}, {"time": 1168, "pitch": 55, "duration": 15, "velocity": 73}, {"time": 1171, "pitch": 59, "duration": 12, "velocity": 78}, {"time": 1171, "pitch": 64, "duration": 12, "velocity": 88}, {"time": 1183, "pitch": 40, "duration": 20, "velocity": 112}, {"time": 1189, "pitch": 47, "duration": 14, "velocity": 78}, {"time": 1195, "pitch": 52, "duration": 5, "velocity": 67}, {"time": 1195, "pitch": 67, "duration": 12, "velocity": 95}, {"time": 1201, "pitch": 64, "duration": 6, "velocity": 102}, {"time": 1207, "pitch": 38, "duration": 19, "velocity": 92}, {"time": 1213, "pitch": 45, "duration": 13, "velocity": 60}, {"time": 1219, "pitch": 50, "duration": 8, "velocity": 68}, {"time": 1219, "pitch": 66, "duration": 14, "velocity": 112}, {"time": 1225, "pitch": 62, "duration": 7, "velocity": 83}, {"time": 1228, "pitch": 57, "duration": 5, "velocity": 64}, {"time": 1231, "pitch": 45, "duration": 15, "velocity": 81}, {"time": 1237, "pitch": 52, "duration": 8, "velocity": 61}, {"time": 1243, "pitch": 60, "duration": 13, "velocity": 93}, {"time": 1243, "pitch": 64, "duration": 13, "velocity": 97}, {"time": 1249, "pitch": 57, "duration": 7, "velocity": 82}, {"time": 1255, "pitch": 40, "duration": 19, "velocity": 73}, {"time": 1261, "pitch": 47, "duration": 13, "velocity": 55}, {"time": 1267, "pitch": 52, "duration": 5, "velocity": 63}, {"time": 1267, "pitch": 64, "duration": 12, "velocity": 90}, {"time": 1267, "pitch": 67, "duration": 12, "velocity": 86}, {"time": 1273, "pitch": 59, "duration": 7, "velocity": 97}, {"time": 1279, "pitch": 38, "duration": 16, "velocity": 90}, {"time": 1285, "pitch": 45, "duration": 10, "velocity": 59}, {"time": 1291, "pitch": 50, "duration": 3, "velocity": 67}, {"time": 1291, "pitch": 62, "duration": 12, "velocity": 100}, {"time": 1291, "pitch": 66, "duration": 12, "velocity": 107}, {"time": 1297, "pitch": 57, "duration": 7, "velocity": 93}, {"time": 1303, "pitch": 37, "duration": 19, "velocity": 86}, {"time": 1309, "pitch": 61, "duration": 6, "velocity": 102}, {"time": 1315, "pitch": 61, "duration": 1, "velocity": 72}, {"time": 1315, "pitch": 64, "duration": 12, "velocity": 100}, {"time": 1321, "pitch": 61, "duration": 5, "velocity": 112}, {"time": 1327, "pitch": 36, "duration": 18, "velocity": 96}, {"time": 1333, "pitch": 43, "duration": 12, "velocity": 55}, {"time": 1339, "pitch": 48, "duration": 4, "velocity": 71}, {"time": 1339, "pitch": 60, "duration": 13, "velocity": 89}, {"time": 1339, "pitch": 64, "duration": 13, "velocity": 95}, {"time": 1345, "pitch": 55, "duration": 7, "velocity": 96}, {"time": 1351, "pitch": 35, "duration": 18, "velocity": 85}, {"time": 1357, "pitch": 42, "duration": 12, "velocity": 62}, {"time": 1363, "pitch": 63, "duration": 7, "velocity": 127}, {"time": 1363, "pitch": 66, "duration": 7, "velocity": 127}, {"time": 1366, "pitch": 47, "duration": 4, "velocity": 93}, {"time": 1369, "pitch": 59, "duration": 6, "velocity": 127}, {"time": 1375, "pitch": 40, "duration": 18, "velocity": 100}, {"time": 1378, "pitch": 47, "duration": 15, "velocity": 97}, {"time": 1381, "pitch": 52, "duration": 8, "velocity": 93}, {"time": 1384, "pitch": 59, "duration": 6, "velocity": 100}, {"time": 1387, "pitch": 67, "duration": 12, "velocity": 127}, {"time": 1390, "pitch": 52, "duration": 4, "velocity": 112}, {"time": 1393, "pitch": 64, "duration": 6, "velocity": 112}, {"time": 1396, "pitch": 59, "duration": 4, "velocity": 100}, {"time": 1399, "pitch": 45, "duration": 17, "velocity": 96}, {"time": 1402, "pitch": 52, "duration": 10, "velocity": 82}, {"time": 1405, "pitch": 57, "duration": 7, "velocity": 89}, {"time": 1408, "pitch": 60, "duration": 3, "velocity": 99}, {"time": 1411, "pitch": 64, "duration": 10, "velocity": 117}, {"time": 1414, "pitch": 52, "duration": 1, "velocity": 93}, {"time": 1417, "pitch": 60, "duration": 5, "velocity": 112}, {"time": 1420, "pitch": 57, "duration": 4, "velocity": 112}, {"time": 1423, "pitch": 36, "duration": 12, "velocity": 86}, {"time": 1426, "pitch": 43, "duration": 9, "velocity": 90}, {"time": 1429, "pitch": 48, "duration": 4, "velocity": 97}, {"time": 1432, "pitch": 64, "duration": 3, "velocity": 117}, {"time": 1435, "pitch": 38, "duration": 7, "velocity": 97}, {"time": 1438, "pitch": 57, "duration": 4, "velocity": 95}, {"time": 1441, "pitch": 62, "duration": 7, "velocity": 92}, {"time": 1441, "pitch": 66, "duration": 7, "velocity": 127}, {"time": 1444, "pitch": 57, "duration": 4, "velocity": 86}, {"time": 1447, "pitch": 43, "duration": 17, "velocity": 78}, {"time": 1450, "pitch": 50, "duration": 10, "velocity": 92}, {"time": 1453, "pitch": 55, "duration": 3, "velocity": 107}, {"time": 1456, "pitch": 59, "duration": 4, "velocity": 93}, {"time": 1459, "pitch": 62, "duration": 7, "velocity": 97}, {"time": 1459, "pitch": 67, "duration": 12, "velocity": 117}, {"time": 1462, "pitch": 50, "duration": 2, "velocity": 85}, {"time": 1465, "pitch": 59, "duration": 4, "velocity": 117}, {"time": 1468, "pitch": 62, "duration": 4, "velocity": 127}, {"time": 1471, "pitch": 45, "duration": 18, "velocity": 92}, {"time": 1474, "pitch": 52, "duration": 11, "velocity": 100}, {"time": 1477, "pitch": 57, "duration": 3, "velocity": 95}, {"time": 1480, "pitch": 60, "duration": 4, "velocity": 107}, {"time": 1483, "pitch": 64, "duration": 12, "velocity": 117}, {"time": 1486, "pitch": 52, "duration": 2, "velocity": 102}, {"time": 1489, "pitch": 60, "duration": 6, "velocity": 112}, {"time": 1492, "pitch": 57, "duration": 3, "velocity": 112}, {"time": 1495, "pitch": 40, "duration": 18, "velocity": 89}, {"time": 1498, "pitch": 47, "duration": 11, "velocity": 92}, {"time": 1501, "pitch": 52, "duration": 5, "velocity": 95}, {"time": 1504, "pitch": 59, "duration": 3, "velocity": 97}, {"time": 1507, "pitch": 64, "duration": 6, "velocity": 102}, {"time": 1507, "pitch": 67, "duration": 11, "velocity": 117}, {"time": 1510, "pitch": 47, "duration": 4, "velocity": 97}, {"time": 1513, "pitch": 59, "duration": 6, "velocity": 122}, {"time": 1516, "pitch": 64, "duration": 3, "velocity": 117}, {"time": 1519, "pitch": 45, "duration": 11, "velocity": 122}, {"time": 1522, "pitch": 57, "duration": 4, "velocity": 83}, {"time": 1525, "pitch": 60, "duration": 5, "velocity": 99}, {"time": 1525, "pitch": 64, "duration": 5, "velocity": 122}, {"time": 1528, "pitch": 57, "duration": 4, "velocity": 90}, {"time": 1531, "pitch": 50, "duration": 7, "velocity": 122}, {"time": 1534, "pitch": 57, "duration": 4, "velocity": 89}, {"time": 1537, "pitch": 62, "duration": 6, "velocity": 97}, {"time": 1537, "pitch": 66, "duration": 6, "velocity": 127}, {"time": 1540, "pitch": 57, "duration": 4, "velocity": 97}, {"time": 1543, "pitch": 43, "duration": 17, "velocity": 95}, {"time": 1546, "pitch": 50, "duration": 11, "velocity": 99}, {"time": 1549, "pitch": 55, "duration": 3, "velocity": 92}, {"time": 1552, "pitch": 59, "duration": 3, "velocity": 122}, {"time": 1555, "pitch": 62, "duration": 12, "velocity": 122}, {"time": 1558, "pitch": 50, "duration": 2, "velocity": 102}, {"time": 1561, "pitch": 59, "duration": 6, "velocity": 127}, {"time": 1564, "pitch": 55, "duration": 3, "velocity": 107}, {"time": 1567, "pitch": 40, "duration": 18, "velocity": 90}, {"time": 1570, "pitch": 47, "duration": 16, "velocity": 82}, {"time": 1573, "pitch": 52, "duration": 7, "velocity": 102}, {"time": 1576, "pitch": 59, "duration": 3, "velocity": 97}, {"time": 1579, "pitch": 64, "duration": 7, "velocity": 97}, {"time": 1579, "pitch": 67, "duration": 13, "velocity": 127}, {"time": 1582, "pitch": 52, "duration": 4, "velocity": 112}, {"time": 1585, "pitch": 59, "duration": 7, "velocity": 122}, {"time": 1588, "pitch": 64, "duration": 4, "velocity": 127}, {"time": 1591, "pitch": 45, "duration": 17, "velocity": 95}, {"time": 1594, "pitch": 52, "duration": 11, "velocity": 93}, {"time": 1597, "pitch": 57, "duration": 3, "velocity": 95}, {"time": 1600, "pitch": 60, "duration": 3, "velocity": 100}, {"time": 1603, "pitch": 64, "duration": 12, "velocity": 127}, {"time": 1606, "pitch": 52, "duration": 2, "velocity": 96}, {"time": 1609, "pitch": 60, "duration": 6, "velocity": 127}, {"time": 1612, "pitch": 57, "duration": 3, "velocity": 117}, {"time": 1615, "pitch": 36, "duration": 11, "velocity": 96}, {"time": 1618, "pitch": 43, "duration": 10, "velocity": 89}, {"time": 1621, "pitch": 48, "duration": 3, "velocity": 122}, {"time": 1624, "pitch": 64, "duration": 3, "velocity": 127}, {"time": 1627, "pitch": 38, "duration": 9, "velocity": 99}, {"time": 1630, "pitch": 45, "duration": 7, "velocity": 112}, {"time": 1633, "pitch": 50, "duration": 7, "velocity": 112}, {"time": 1636, "pitch": 66, "duration": 4, "velocity": 127}, {"time": 1639, "pitch": 43, "duration": 23, "velocity": 83}, {"time": 1642, "pitch": 50, "duration": 11, "velocity": 79}, {"time": 1645, "pitch": 55, "duration": 5, "velocity": 107}, {"time": 1648, "pitch": 59, "duration": 4, "velocity": 96}, {"time": 1651, "pitch": 67, "duration": 13, "velocity": 117}, {"time": 1654, "pitch": 50, "duration": 9, "velocity": 93}, {"time": 1657, "pitch": 62, "duration": 7, "velocity": 99}, {"time": 1660, "pitch": 59, "duration": 4, "velocity": 90}, {"time": 1663, "pitch": 45, "duration": 18, "velocity": 95}, {"time": 1666, "pitch": 52, "duration": 10, "velocity": 73}, {"time": 1669, "pitch": 57, "duration": 7, "velocity": 95}, {"time": 1672, "pitch": 60, "duration": 10, "velocity": 95}, {"time": 1675, "pitch": 64, "duration": 7, "velocity": 97}, {"time": 1678, "pitch": 52, "duration": 2, "velocity": 78}, {"time": 1681, "pitch": 57, "duration": 8, "velocity": 99}, {"time": 1684, "pitch": 60, "duration": 4, "velocity": 96}, {"time": 1684, "pitch": 64, "duration": 5, "velocity": 100}, {"time": 1687, "pitch": 40, "duration": 23, "velocity": 75}, {"time": 1690, "pitch": 47, "duration": 20, "velocity": 85}, {"time": 1693, "pitch": 52, "duration": 7, "velocity": 93}, {"time": 1696, "pitch": 59, "duration": 4, "velocity": 88}, {"time": 1699, "pitch": 64, "duration": 7, "velocity": 99}, {"time": 1699, "pitch": 67, "duration": 11, "velocity": 112}, {"time": 1702, "pitch": 52, "duration": 7, "velocity": 90}, {"time": 1705, "pitch": 59, "duration": 6, "velocity": 100}, {"time": 1708, "pitch": 64, "duration": 3, "velocity": 112}, {"time": 1711, "pitch": 47, "duration": 22, "velocity": 99}, {"time": 1714, "pitch": 54, "duration": 10, "velocity": 93}, {"time": 1717, "pitch": 59, "duration": 7, "velocity": 85}, {"time": 1723, "pitch": 63, "duration": 7, "velocity": 112}, {"time": 1723, "pitch": 66, "duration": 8, "velocity": 127}, {"time": 1726, "pitch": 54, "duration": 8, "velocity": 100}, {"time": 1729, "pitch": 59, "duration": 9, "velocity": 107}, {"time": 1732, "pitch": 63, "duration": 9, "velocity": 96}, {"time": 1732, "pitch": 66, "duration": 9, "velocity": 72}, {"time": 1735, "pitch": 47, "duration": 19, "velocity": 89}, {"time": 1738, "pitch": 54, "duration": 16, "velocity": 89}, {"time": 1741, "pitch": 59, "duration": 18, "velocity": 96}, {"time": 1744, "pitch": 63, "duration": 15, "velocity": 97}, {"time": 1747, "pitch": 66, "duration": 12, "velocity": 107}, {"time": 1747, "pitch": 69, "duration": 12, "velocity": 83}, {"time": 1759, "pitch": 40, "duration": 16, "velocity": 89}, {"time": 1762, "pitch": 47, "duration": 14, "velocity": 85}, {"time": 1765, "pitch": 52, "duration": 7, "velocity": 89}, {"time": 1768, "pitch": 59, "duration": 4, "velocity": 61}, {"time": 1771, "pitch": 64, "duration": 13, "velocity": 79}, {"time": 1771, "pitch": 67, "duration": 13, "velocity": 90}, {"time": 1777, "pitch": 59, "duration": 7, "velocity": 74}, {"time": 1783, "pitch": 45, "duration": 13, "velocity": 83}, {"time": 1789, "pitch": 52, "duration": 7, "velocity": 66}, {"time": 1795, "pitch": 60, "duration": 13, "velocity": 79}, {"time": 1795, "pitch": 64, "duration": 13, "velocity": 75}, {"time": 1807, "pitch": 40, "duration": 18, "velocity": 83}, {"time": 1813, "pitch": 47, "duration": 12, "velocity": 62}, {"time": 1819, "pitch": 52, "duration": 4, "velocity": 56}, {"time": 1819, "pitch": 64, "duration": 12, "velocity": 85}, {"time": 1819, "pitch": 67, "duration": 12, "velocity": 83}, {"time": 1825, "pitch": 59, "duration": 7, "velocity": 58}, {"time": 1831, "pitch": 43, "duration": 14, "velocity": 86}, {"time": 1837, "pitch": 50, "duration": 7, "velocity": 72}, {"time": 1843, "pitch": 59, "duration": 13, "velocity": 96}, {"time": 1843, "pitch": 62, "duration": 13, "velocity": 99}, {"time": 1849, "pitch": 55, "duration": 6, "velocity": 81}, {"time": 1855, "pitch": 40, "duration": 18, "velocity": 97}, {"time": 1861, "pitch": 47, "duration": 13, "velocity": 56}, {"time": 1867, "pitch": 52, "duration": 4, "velocity": 59}, {"time": 1867, "pitch": 64, "duration": 14, "velocity": 93}, {"time": 1867, "pitch": 67, "duration": 14, "velocity": 92}, {"time": 1873, "pitch": 59, "duration": 8, "velocity": 89}, {"time": 1879, "pitch": 45, "duration": 14, "velocity": 88}, {"time": 1885, "pitch": 52, "duration": 7, "velocity": 64}, {"time": 1891, "pitch": 60, "duration": 12, "velocity": 100}, {"time": 1891, "pitch": 64, "duration": 12, "velocity": 99}, {"time": 1897, "pitch": 57, "duration": 6, "velocity": 85}, {"time": 1903, "pitch": 36, "duration": 8, "velocity": 89}, {"time": 1909, "pitch": 60, "duration": 8, "velocity": 78}, {"time": 1909, "pitch": 64, "duration": 6, "velocity": 72}, {"time": 1915, "pitch": 38, "duration": 8, "velocity": 69}, {"time": 1918, "pitch": 45, "duration": 7, "velocity": 82}, {"time": 1921, "pitch": 62, "duration": 7, "velocity": 95}, {"time": 1921, "pitch": 66, "duration": 7, "velocity": 107}, {"time": 1924, "pitch": 57, "duration": 4, "velocity": 73}, {"time": 1927, "pitch": 40, "duration": 24, "velocity": 73}, {"time": 1930, "pitch": 47, "duration": 21, "velocity": 59}, {"time": 1933, "pitch": 52, "duration": 9, "velocity": 77}, {"time": 1936, "pitch": 55, "duration": 15, "velocity": 73}, {"time": 1939, "pitch": 59, "duration": 12, "velocity": 78}, {"time": 1939, "pitch": 64, "duration": 12, "velocity": 88}, {"time": 1951, "pitch": 40, "duration": 18, "velocity": 97}, {"time": 1957, "pitch": 47, "duration": 12, "velocity": 86}, {"time": 1963, "pitch": 52, "duration": 5, "velocity": 77}, {"time": 1963, "pitch": 64, "duration": 8, "velocity": 100}, {"time": 1963, "pitch": 67, "duration": 8, "velocity": 107}, {"time": 1969, "pitch": 59, "duration": 7, "velocity": 112}, {"time": 1975, "pitch": 45, "duration": 17, "velocity": 95}, {"time": 1978, "pitch": 52, "duration": 11, "velocity": 100}, {"time": 1981, "pitch": 57, "duration": 8, "velocity": 93}, {"time": 1984, "pitch": 60, "duration": 4, "velocity": 100}, {"time": 1987, "pitch": 64, "duration": 11, "velocity": 117}, {"time": 1990, "pitch": 52, "duration": 1, "velocity": 79}, {"time": 1993, "pitch": 60, "duration": 6, "velocity": 117}, {"time": 1996, "pitch": 57, "duration": 3, "velocity": 100}, {"time": 1999, "pitch": 36, "duration": 11, "velocity": 93}, {"time": 2002, "pitch": 43, "duration": 10, "velocity": 66}, {"time": 2005, "pitch": 48, "duration": 3, "velocity": 90}, {"time": 2008, "pitch": 64, "duration": 3, "velocity": 107}, {"time": 2011, "pitch": 38, "duration": 9, "velocity": 92}, {"time": 2014, "pitch": 45, "duration": 6, "velocity": 88}, {"time": 2017, "pitch": 62, "duration": 6, "velocity": 81}, {"time": 2017, "pitch": 66, "duration": 6, "velocity": 127}, {"time": 2020, "pitch": 57, "duration": 3, "velocity": 50}, {"time": 2023, "pitch": 43, "duration": 17, "velocity": 92}, {"time": 2026, "pitch": 50, "duration": 11, "velocity": 79}, {"time": 2029, "pitch": 55, "duration": 4, "velocity": 93}, {"time": 2032, "pitch": 59, "duration": 4, "velocity": 88}, {"time": 2035, "pitch": 62, "duration": 7, "velocity": 96}, {"time": 2035, "pitch": 67, "duration": 13, "velocity": 107}, {"time": 2038, "pitch": 50, "duration": 2, "velocity": 92}, {"time": 2041, "pitch": 59, "duration": 7, "velocity": 112}, {"time": 2044, "pitch": 62, "duration": 4, "velocity": 122}, {"time": 2047, "pitch": 40, "duration": 18, "velocity": 82}, {"time": 2050, "pitch": 47, "duration": 11, "velocity": 92}, {"time": 2053, "pitch": 52, "duration": 4, "velocity": 86}, {"time": 2056, "pitch": 55, "duration": 4, "velocity": 83}, {"time": 2059, "pitch": 59, "duration": 7, "velocity": 95}, {"time": 2059, "pitch": 64, "duration": 13, "velocity": 102}, {"time": 2062, "pitch": 47, "duration": 3, "velocity": 93}, {"time": 2065, "pitch": 55, "duration": 4, "velocity": 107}, {"time": 2068, "pitch": 59, "duration": 4, "velocity": 127}, {"time": 2071, "pitch": 45, "duration": 17, "velocity": 89}, {"time": 2074, "pitch": 52, "duration": 11, "velocity": 90}, {"time": 2077, "pitch": 57, "duration": 4, "velocity": 100}, {"time": 2080, "pitch": 60, "duration": 4, "velocity": 92}, {"time": 2083, "pitch": 64, "duration": 7, "velocity": 90}, {"time": 2083, "pitch": 69, "duration": 12, "velocity": 102}, {"time": 2086, "pitch": 52, "duration": 2, "velocity": 85}, {"time": 2089, "pitch": 60, "duration": 7, "velocity": 102}, {"time": 2092, "pitch": 64, "duration": 3, "velocity": 117}, {"time": 2095, "pitch": 36, "duration": 18, "velocity": 92}, {"time": 2098, "pitch": 43, "duration": 14, "velocity": 89}, {"time": 2101, "pitch": 48, "duration": 7, "velocity": 97}, {"time": 2104, "pitch": 55, "duration": 3, "velocity": 92}, {"time": 2107, "pitch": 60, "duration": 7, "velocity": 107}, {"time": 2107, "pitch": 64, "duration": 12, "velocity": 100}, {"time": 2110, "pitch": 48, "duration": 2, "velocity": 97}, {"time": 2113, "pitch": 55, "duration": 7, "velocity": 102}, {"time": 2116, "pitch": 60, "duration": 3, "velocity": 122}, {"time": 2119, "pitch": 35, "duration": 21, "velocity": 79}, {"time": 2122, "pitch": 42, "duration": 18, "velocity": 102}, {"time": 2125, "pitch": 47, "duration": 7, "velocity": 97}, {"time": 2128, "pitch": 54, "duration": 4, "velocity": 81}, {"time": 2131, "pitch": 59, "duration": 5, "velocity": 70}, {"time": 2131, "pitch": 66, "duration": 5, "velocity": 102}, {"time": 2134, "pitch": 47, "duration": 7, "velocity": 122}, {"time": 2137, "pitch": 54, "duration": 6, "velocity": 112}, {"time": 2137, "pitch": 59, "duration": 1, "velocity": 69}, {"time": 2137, "pitch": 66, "duration": 1, "velocity": 66}, {"time": 2140, "pitch": 59, "duration": 3, "velocity": 82}, {"time": 2140, "pitch": 66, "duration": 3, "velocity": 127}, {"time": 2143, "pitch": 40, "duration": 17, "velocity": 97}, {"time": 2146, "pitch": 47, "duration": 11, "velocity": 97}, {"time": 2149, "pitch": 52, "duration": 4, "velocity": 95}, {"time": 2152, "pitch": 59, "duration": 3, "velocity": 95}, {"time": 2155, "pitch": 64, "duration": 6, "velocity": 99}, {"time": 2155, "pitch": 67, "duration": 13, "velocity": 122}, {"time": 2158, "pitch": 47, "duration": 2, "velocity": 102}, {"time": 2161, "pitch": 59, "duration": 7, "velocity": 117}, {"time": 2164, "pitch": 64, "duration": 4, "velocity": 117}, {"time": 2167, "pitch": 45, "duration": 17, "velocity": 95}, {"time": 2170, "pitch": 52, "duration": 11, "velocity": 92}, {"time": 2173, "pitch": 57, "duration": 3, "velocity": 107}, {"time": 2176, "pitch": 60, "duration": 4, "velocity": 88}, {"time": 2179, "pitch": 64, "duration": 6, "velocity": 107}, {"time": 2179, "pitch": 69, "duration": 13, "velocity": 122}, {"time": 2182, "pitch": 52, "duration": 2, "velocity": 102}, {"time": 2185, "pitch": 60, "duration": 7, "velocity": 122}, {"time": 2188, "pitch": 64, "duration": 4, "velocity": 127}, {"time": 2191, "pitch": 36, "duration": 11, "velocity": 95}, {"time": 2194, "pitch": 43, "duration": 10, "velocity": 82}, {"time": 2197, "pitch": 48, "duration": 3, "velocity": 100}, {"time": 2197, "pitch": 55, "duration": 1, "velocity": 25}, {"time": 2200, "pitch": 60, "duration": 4, "velocity": 107}, {"time": 2200, "pitch": 64, "duration": 4, "velocity": 127}, {"time": 2203, "pitch": 38, "duration": 9, "velocity": 90}, {"time": 2206, "pitch": 45, "duration": 7, "velocity": 99}, {"time": 2209, "pitch": 50, "duration": 5, "velocity": 107}, {"time": 2212, "pitch": 62, "duration": 4, "velocity": 107}, {"time": 2212, "pitch": 66, "duration": 4, "velocity": 127}, {"time": 2215, "pitch": 43, "duration": 17, "velocity": 82}, {"time": 2218, "pitch": 50, "duration": 11, "velocity": 77}, {"time": 2221, "pitch": 55, "duration": 4, "velocity": 99}, {"time": 2224, "pitch": 59, "duration": 4, "velocity": 90}, {"time": 2227, "pitch": 62, "duration": 7, "velocity": 99}, {"time": 2227, "pitch": 67, "duration": 12, "velocity": 117}, {"time": 2230, "pitch": 50, "duration": 2, "velocity": 100}, {"time": 2233, "pitch": 59, "duration": 7, "velocity": 117}, {"time": 2236, "pitch": 62, "duration": 3, "velocity": 127}, {"time": 2239, "pitch": 40, "duration": 18, "velocity": 93}, {"time": 2242, "pitch": 47, "duration": 16, "velocity": 88}, {"time": 2245, "pitch": 52, "duration": 7, "velocity": 100}, {"time": 2248, "pitch": 59, "duration": 4, "velocity": 93}, {"time": 2251, "pitch": 64, "duration": 6, "velocity": 112}, {"time": 2251, "pitch": 67, "duration": 13, "velocity": 102}, {"time": 2254, "pitch": 52, "duration": 4, "velocity": 89}, {"time": 2257, "pitch": 59, "duration": 8, "velocity": 112}, {"time": 2260, "pitch": 64, "duration": 4, "velocity": 112}, {"time": 2263, "pitch": 45, "duration": 18, "velocity": 86}, {"time": 2266, "pitch": 52, "duration": 11, "velocity": 95}, {"time": 2269, "pitch": 57, "duration": 3, "velocity": 92}, {"time": 2272, "pitch": 60, "duration": 4, "velocity": 88}, {"time": 2275, "pitch": 64, "duration": 6, "velocity": 100}, {"time": 2275, "pitch": 69, "duration": 10, "velocity": 122}, {"time": 2278, "pitch": 52, "duration": 2, "velocity": 95}, {"time": 2281, "pitch": 60, "duration": 7, "velocity": 122}, {"time": 2284, "pitch": 64, "duration": 3, "velocity": 122}, {"time": 2287, "pitch": 36, "duration": 18, "velocity": 92}, {"time": 2290, "pitch": 43, "duration": 15, "velocity": 88}, {"time": 2293, "pitch": 48, "duration": 7, "velocity": 97}, {"time": 2296, "pitch": 55, "duration": 4, "velocity": 96}, {"time": 2299, "pitch": 60, "duration": 7, "velocity": 112}, {"time": 2299, "pitch": 64, "duration": 9, "velocity": 122}, {"time": 2302, "pitch": 48, "duration": 4, "velocity": 107}, {"time": 2305, "pitch": 55, "duration": 4, "velocity": 122}, {"time": 2308, "pitch": 60, "duration": 2, "velocity": 97}, {"time": 2311, "pitch": 47, "duration": 10, "velocity": 63}, {"time": 2311, "pitch": 54, "duration": 5, "velocity": 96}, {"time": 2311, "pitch": 59, "duration": 6, "velocity": 112}, {"time": 2311, "pitch": 63, "duration": 1, "velocity": 65}, {"time": 2311, "pitch": 63, "duration": 1, "velocity": 117}, {"time": 2311, "pitch": 66, "duration": 8, "velocity": 112}, {"time": 2314, "pitch": 51, "duration": 8, "velocity": 75}, {"time": 2317, "pitch": 54, "duration": 4, "velocity": 95}, {"time": 2317, "pitch": 59, "duration": 1, "velocity": 83}, {"time": 2323, "pitch": 49, "duration": 12, "velocity": 127}, {"time": 2323, "pitch": 61, "duration": 13, "velocity": 117}, {"time": 2323, "pitch": 65, "duration": 12, "velocity": 127}, {"time": 2323, "pitch": 68, "duration": 13, "velocity": 127}, {"time": 2335, "pitch": 42, "duration": 18, "velocity": 96}, {"time": 2338, "pitch": 49, "duration": 15, "velocity": 92}, {"time": 2341, "pitch": 54, "duration": 7, "velocity": 107}, {"time": 2344, "pitch": 57, "duration": 4, "velocity": 97}, {"time": 2347, "pitch": 61, "duration": 6, "velocity": 117}, {"time": 2347, "pitch": 66, "duration": 11, "velocity": 127}, {"time": 2350, "pitch": 54, "duration": 3, "velocity": 100}, {"time": 2353, "pitch": 57, "duration": 5, "velocity": 127}, {"time": 2356, "pitch": 61, "duration": 3, "velocity": 127}, {"time": 2359, "pitch": 47, "duration": 18, "velocity": 92}, {"time": 2362, "pitch": 54, "duration": 11, "velocity": 99}, {"time": 2365, "pitch": 59, "duration": 4, "velocity": 97}, {"time": 2368, "pitch": 62, "duration": 3, "velocity": 96}, {"time": 2371, "pitch": 62, "duration": 7, "velocity": 122}, {"time": 2371, "pitch": 66, "duration": 12, "velocity": 127}, {"time": 2374, "pitch": 54, "duration": 2, "velocity": 107}, {"time": 2377, "pitch": 59, "duration": 6, "velocity": 127}, {"time": 2380, "pitch": 62, "duration": 4, "velocity": 127}, {"time": 2383, "pitch": 38, "duration": 11, "velocity": 95}, {"time": 2386, "pitch": 45, "duration": 10, "velocity": 100}, {"time": 2389, "pitch": 50, "duration": 3, "velocity": 107}, {"time": 2392, "pitch": 62, "duration": 5, "velocity": 107}, {"time": 2392, "pitch": 66, "duration": 3, "velocity": 122}, {"time": 2395, "pitch": 40, "duration": 9, "velocity": 97}, {"time": 2398, "pitch": 47, "duration": 7, "velocity": 92}, {"time": 2401, "pitch": 52, "duration": 6, "velocity": 107}, {"time": 2404, "pitch": 59, "duration": 4, "velocity": 85}, {"time": 2404, "pitch": 64, "duration": 4, "velocity": 99}, {"time": 2404, "pitch": 68, "duration": 4, "velocity": 102}, {"time": 2407, "pitch": 45, "duration": 23, "velocity": 90}, {"time": 2410, "pitch": 52, "duration": 11, "velocity": 65}, {"time": 2413, "pitch": 57, "duration": 3, "velocity": 93}, {"time": 2416, "pitch": 61, "duration": 7, "velocity": 122}, {"time": 2419, "pitch": 64, "duration": 11, "velocity": 102}, {"time": 2422, "pitch": 52, "duration": 7, "velocity": 97}, {"time": 2425, "pitch": 61, "duration": 5, "velocity": 127}, {"time": 2428, "pitch": 57, "duration": 3, "velocity": 117}, {"time": 2431, "pitch": 47, "duration": 18, "velocity": 89}, {"time": 2434, "pitch": 54, "duration": 11, "velocity": 93}, {"time": 2437, "pitch": 59, "duration": 6, "velocity": 96}, {"time": 2440, "pitch": 62, "duration": 11, "velocity": 78}, {"time": 2443, "pitch": 66, "duration": 13, "velocity": 127}, {"time": 2446, "pitch": 54, "duration": 3, "velocity": 100}, {"time": 2449, "pitch": 59, "duration": 6, "velocity": 102}, {"time": 2452, "pitch": 62, "duration": 3, "velocity": 127}, {"time": 2455, "pitch": 42, "duration": 19, "velocity": 95}, {"time": 2458, "pitch": 54, "duration": 5, "velocity": 99}, {"time": 2461, "pitch": 57, "duration": 7, "velocity": 100}, {"time": 2464, "pitch": 54, "duration": 5, "velocity": 90}, {"time": 2467, "pitch": 61, "duration": 7, "velocity": 127}, {"time": 2467, "pitch": 66, "duration": 11, "velocity": 127}, {"time": 2470, "pitch": 54, "duration": 3, "velocity": 102}, {"time": 2473, "pitch": 57, "duration": 6, "velocity": 127}, {"time": 2476, "pitch": 61, "duration": 3, "velocity": 127}, {"time": 2479, "pitch": 47, "duration": 11, "velocity": 90}, {"time": 2482, "pitch": 54, "duration": 5, "velocity": 99}, {"time": 2485, "pitch": 62, "duration": 4, "velocity": 117}, {"time": 2485, "pitch": 66, "duration": 3, "velocity": 127}, {"time": 2488, "pitch": 59, "duration": 3, "velocity": 96}, {"time": 2491, "pitch": 52, "duration": 12, "velocity": 117}, {"time": 2491, "pitch": 64, "duration": 6, "velocity": 117}, {"time": 2491, "pitch": 68, "duration": 12, "velocity": 127}, {"time": 2497, "pitch": 59, "duration": 7, "velocity": 117}, {"time": 2500, "pitch": 64, "duration": 4, "velocity": 112}, {"time": 2503, "pitch": 45, "duration": 20, "velocity": 88}, {"time": 2506, "pitch": 52, "duration": 11, "velocity": 83}, {"time": 2509, "pitch": 57, "duration": 3, "velocity": 100}, {"time": 2512, "pitch": 61, "duration": 5, "velocity": 127}, {"time": 2515, "pitch": 64, "duration": 9, "velocity": 107}, {"time": 2518, "pitch": 52, "duration": 4, "velocity": 100}, {"time": 2521, "pitch": 61, "duration": 4, "velocity": 127}, {"time": 2524, "pitch": 57, "duration": 4, "velocity": 117}, {"time": 2527, "pitch": 42, "duration": 18, "velocity": 127}, {"time": 2530, "pitch": 54, "duration": 5, "velocity": 102}, {"time": 2533, "pitch": 57, "duration": 6, "velocity": 90}, {"time": 2536, "pitch": 54, "duration": 5, "velocity": 88}, {"time": 2539, "pitch": 61, "duration": 7, "velocity": 127}, {"time": 2539, "pitch": 66, "duration": 12, "velocity": 127}, {"time": 2542, "pitch": 54, "duration": 5, "velocity": 100}, {"time": 2545, "pitch": 57, "duration": 6, "velocity": 127}, {"time": 2548, "pitch": 61, "duration": 3, "velocity": 127}, {"time": 2551, "pitch": 47, "duration": 22, "velocity": 86}, {"time": 2554, "pitch": 54, "duration": 11, "velocity": 99}, {"time": 2557, "pitch": 59, "duration": 7, "velocity": 99}, {"time": 2563, "pitch": 62, "duration": 6, "velocity": 102}, {"time": 2563, "pitch": 66, "duration": 11, "velocity": 122}, {"time": 2566, "pitch": 54, "duration": 4, "velocity": 97}, {"time": 2569, "pitch": 59, "duration": 5, "velocity": 122}, {"time": 2572, "pitch": 62, "duration": 3, "velocity": 122}, {"time": 2575, "pitch": 38, "duration": 11, "velocity": 99}, {"time": 2578, "pitch": 45, "duration": 10, "velocity": 97}, {"time": 2581, "pitch": 50, "duration": 4, "velocity": 117}, {"time": 2584, "pitch": 57, "duration": 4, "velocity": 127}, {"time": 2587, "pitch": 40, "duration": 9, "velocity": 96}, {"time": 2590, "pitch": 47, "duration": 8, "velocity": 100}, {"time": 2593, "pitch": 52, "duration": 6, "velocity": 112}, {"time": 2596, "pitch": 59, "duration": 4, "velocity": 69}, {"time": 2596, "pitch": 64, "duration": 4, "velocity": 102}, {"time": 2596, "pitch": 68, "duration": 4, "velocity": 127}, {"time": 2599, "pitch": 45, "duration": 23, "velocity": 93}, {"time": 2602, "pitch": 52, "duration": 11, "velocity": 93}, {"time": 2605, "pitch": 57, "duration": 3, "velocity": 100}, {"time": 2608, "pitch": 61, "duration": 7, "velocity": 127}, {"time": 2611, "pitch": 64, "duration": 11, "velocity": 107}, {"time": 2614, "pitch": 52, "duration": 9, "velocity": 95}, {"time": 2617, "pitch": 57, "duration": 6, "velocity": 107}, {"time": 2617, "pitch": 61, "duration": 1, "velocity": 20}, {"time": 2620, "pitch": 61, "duration": 3, "velocity": 127}, {"time": 2623, "pitch": 47, "duration": 17, "velocity": 93}, {"time": 2626, "pitch": 54, "duration": 11, "velocity": 97}, {"time": 2629, "pitch": 59, "duration": 7, "velocity": 99}, {"time": 2632, "pitch": 62, "duration": 2, "velocity": 83}, {"time": 2635, "pitch": 62, "duration": 7, "velocity": 89}, {"time": 2635, "pitch": 66, "duration": 12, "velocity": 127}, {"time": 2638, "pitch": 54, "duration": 2, "velocity": 78}, {"time": 2641, "pitch": 59, "duration": 7, "velocity": 112}, {"time": 2644, "pitch": 62, "duration": 4, "velocity": 107}, {"time": 2647, "pitch": 42, "duration": 18, "velocity": 93}, {"time": 2650, "pitch": 49, "duration": 15, "velocity": 65}, {"time": 2653, "pitch": 54, "duration": 7, "velocity": 82}, {"time": 2656, "pitch": 57, "duration": 5, "velocity": 82}, {"time": 2659, "pitch": 61, "duration": 7, "velocity": 127}, {"time": 2659, "pitch": 66, "duration": 12, "velocity": 127}, {"time": 2662, "pitch": 54, "duration": 2, "velocity": 93}, {"time": 2665, "pitch": 57, "duration": 6, "velocity": 122}, {"time": 2668, "pitch": 61, "duration": 3, "velocity": 122}, {"time": 2671, "pitch": 37, "duration": 23, "velocity": 88}, {"time": 2674, "pitch": 44, "duration": 21, "velocity": 38}, {"time": 2677, "pitch": 49, "duration": 8, "velocity": 100}, {"time": 2680, "pitch": 56, "duration": 3, "velocity": 76}, {"time": 2683, "pitch": 56, "duration": 2, "velocity": 63}, {"time": 2683, "pitch": 61, "duration": 7, "velocity": 117}, {"time": 2683, "pitch": 65, "duration": 23, "velocity": 96}, {"time": 2686, "pitch": 49, "duration": 22, "velocity": 93}, {"time": 2689, "pitch": 56, "duration": 18, "velocity": 100}, {"time": 2692, "pitch": 61, "duration": 14, "velocity": 107}, {"time": 2695, "pitch": 37, "duration": 22, "velocity": 96}, {"time": 2704, "pitch": 44, "duration": 14, "velocity": 37}, {"time": 2707, "pitch": 56, "duration": 5, "velocity": 74}, {"time": 2707, "pitch": 61, "duration": 12, "velocity": 102}, {"time": 2707, "pitch": 65, "duration": 9, "velocity": 99}, {"time": 2713, "pitch": 49, "duration": 6, "velocity": 74}, {"time": 2719, "pitch": 37, "duration": 24, "velocity": 58}, {"time": 2719, "pitch": 44, "duration": 23, "velocity": 72}, {"time": 2719, "pitch": 49, "duration": 23, "velocity": 74}, {"time": 2719, "pitch": 56, "duration": 23, "velocity": 69}, {"time": 2719, "pitch": 61, "duration": 23, "velocity": 70}, {"time": 2719, "pitch": 65, "duration": 23, "velocity": 70}, {"time": 2767, "pitch": 42, "duration": 20, "velocity": 75}, {"time": 2773, "pitch": 49, "duration": 14, "velocity": 56}, {"time": 2779, "pitch": 61, "duration": 12, "velocity": 77}, {"time": 2779, "pitch": 66, "duration": 13, "velocity": 90}, {"time": 2785, "pitch": 57, "duration": 6, "velocity": 69}, {"time": 2791, "pitch": 47, "duration": 21, "velocity": 68}, {"time": 2797, "pitch": 54, "duration": 15, "velocity": 52}, {"time": 2803, "pitch": 62, "duration": 15, "velocity": 78}, {"time": 2803, "pitch": 66, "duration": 15, "velocity": 83}, {"time": 2809, "pitch": 59, "duration": 8, "velocity": 69}, {"time": 2815, "pitch": 37, "duration": 49, "velocity": 93}, {"time": 2821, "pitch": 44, "duration": 44, "velocity": 54}, {"time": 2827, "pitch": 49, "duration": 36, "velocity": 86}, {"time": 2833, "pitch": 56, "duration": 30, "velocity": 93}, {"time": 2841, "pitch": 61, "duration": 23, "velocity": 72}, {"time": 2841, "pitch": 65, "duration": 23, "velocity": 69}, {"time": 2880, "pitch": 42, "duration": 55, "velocity": 71}, {"time": 2880, "pitch": 54, "duration": 55, "velocity": 75}, {"time": 2880, "pitch": 58, "duration": 55, "velocity": 73}, {"time": 2880, "pitch": 37, "duration": 55, "velocity": 72}, {"time": 2880, "pitch": 63, "duration": 55, "velocity": 66}, {"time": 2880, "pitch": 30, "duration": 56, "velocity": 75}, {"time": 2946, "pitch": 90, "duration": 37, "velocity": 32}, {"time": 2947, "pitch": 94, "duration": 35, "velocity": 53}, {"time": 2948, "pitch": 97, "duration": 34, "velocity": 62}, {"time": 2948, "pitch": 102, "duration": 34, "velocity": 70}], "annotations": [{"time": 31, "annotation": {"number": 64, "value": 127}, "group": "control_change"}, {"time": 54, "annotation": {"number": 64, "value": 0}, "group": "control_change"}, {"time": 56, "annotation": {"number": 64, "value": 127}, "group": "control_change"}, {"time": 78, "annotation": {"number": 64, "value": 0}, "group": "control_change"}, {"time": 79, "annotation": {"number": 64, "value": 127}, "group": "control_change"}, {"time": 101, "annotation": {"number": 64, "value": 0}, "group": "control_change"}, {"time": 103, "annotation": {"number": 64, "value": 127}, "group": "control_change"}, {"time": 125, "annotation": {"number": 64, "value": 0}, "group": "control_change"}, {"time": 127, "annotation": {"number": 64, "value": 127}, "group": "control_change"}, {"time": 139, "annotation": {"number": 64, "value": 0}, "group": "control_change"}, {"time": 145, "annotation": {"number": 64, "value": 127}, "group": "control_change"}, {"time": 150, "annotation": {"number": 64, "value": 0}, "group": "control_change"}, {"time": 152, "annotation": {"number": 64, "value": 127}, "group": "control_change"}, {"time": 173, "annotation": {"number": 64, "value": 0}, "group": "control_change"}, {"time": 174, "annotation": {"number": 64, "value": 127}, "group": "control_change"}, {"time": 185, "annotation": {"number": 64, "value": 0}, "group": "control_change"}, {"time": 188, "annotation": {"number": 64, "value": 127}, "group": "control_change"}, {"time": 197, "annotation": {"number": 64, "value": 0}, "group": "control_change"}, {"time": 200, "annotation": {"number": 64, "value": 127}, "group": "control_change"}, {"time": 222, "annotation": {"number": 64, "value": 0}, "group": "control_change"}, {"time": 223, "annotation": {"number": 64, "value": 127}, "group": "control_change"}, {"time": 245, "annotation": {"number": 64, "value": 0}, "group": "control_change"}, {"time": 247, "annotation": {"number": 64, "value": 127}, "group": "control_change"}, {"time": 268, "annotation": {"number": 64, "value": 0}, "group": "control_change"}, {"time": 271, "annotation": {"number": 64, "value": 127}, "group": "control_change"}, {"time": 293, "annotation": {"number": 64, "value": 0}, "group": "control_change"}, {"time": 296, "annotation": {"number": 64, "value": 127}, "group": "control_change"}, {"time": 317, "annotation": {"number": 64, "value": 0}, "group": "control_change"}, {"time": 320, "annotation": {"number": 64, "value": 127}, "group": "control_change"}, {"time": 341, "annotation": {"number": 64, "value": 0}, "group": "control_change"}, {"time": 343, "annotation": {"number": 64, "value": 127}, "group": "control_change"}, {"time": 365, "annotation": {"number": 64, "value": 0}, "group": "control_change"}, {"time": 368, "annotation": {"number": 64, "value": 127}, "group": "control_change"}, {"time": 389, "annotation": {"number": 64, "value": 0}, "group": "control_change"}, {"time": 391, "annotation": {"number": 64, "value": 127}, "group": "control_change"}, {"time": 403, "annotation": {"number": 64, "value": 0}, "group": "control_change"}, {"time": 415, "annotation": {"number": 64, "value": 127}, "group": "control_change"}, {"time": 436, "annotation": {"number": 64, "value": 0}, "group": "control_change"}, {"time": 439, "annotation": {"number": 64, "value": 127}, "group": "control_change"}, {"time": 460, "annotation": {"number": 64, "value": 0}, "group": "control_change"}, {"time": 463, "annotation": {"number": 64, "value": 127}, "group": "control_change"}, {"time": 484, "annotation": {"number": 64, "value": 0}, "group": "control_change"}, {"time": 487, "annotation": {"number": 64, "value": 127}, "group": "control_change"}, {"time": 507, "annotation": {"number": 64, "value": 0}, "group": "control_change"}, {"time": 511, "annotation": {"number": 64, "value": 127}, "group": "control_change"}, {"time": 521, "annotation": {"number": 64, "value": 0}, "group": "control_change"}, {"time": 523, "annotation": {"number": 64, "value": 127}, "group": "control_change"}, {"time": 533, "annotation": {"number": 64, "value": 0}, "group": "control_change"}, {"time": 535, "annotation": {"number": 64, "value": 127}, "group": "control_change"}, {"time": 545, "annotation": {"number": 64, "value": 0}, "group": "control_change"}, {"time": 548, "annotation": {"number": 64, "value": 127}, "group": "control_change"}, {"time": 556, "annotation": {"number": 64, "value": 0}, "group": "control_change"}, {"time": 559, "annotation": {"number": 64, "value": 127}, "group": "control_change"}, {"time": 581, "annotation": {"number": 64, "value": 0}, "group": "control_change"}, {"time": 583, "annotation": {"number": 64, "value": 127}, "group": "control_change"}, {"time": 604, "annotation": {"number": 64, "value": 0}, "group": "control_change"}, {"time": 607, "annotation": {"number": 64, "value": 127}, "group": "control_change"}, {"time": 629, "annotation": {"number": 64, "value": 0}, "group": "control_change"}, {"time": 631, "annotation": {"number": 64, "value": 127}, "group": "control_change"}, {"time": 652, "annotation": {"number": 64, "value": 0}, "group": "control_change"}, {"time": 655, "annotation": {"number": 64, "value": 127}, "group": "control_change"}, {"time": 665, "annotation": {"number": 64, "value": 0}, "group": "control_change"}, {"time": 667, "annotation": {"number": 64, "value": 127}, "group": "control_change"}, {"time": 676, "annotation": {"number": 64, "value": 0}, "group": "control_change"}, {"time": 679, "annotation": {"number": 64, "value": 127}, "group": "control_change"}, {"time": 699, "annotation": {"number": 64, "value": 0}, "group": "control_change"}, {"time": 703, "annotation": {"number": 64, "value": 127}, "group": "control_change"}, {"time": 723, "annotation": {"number": 64, "value": 0}, "group": "control_change"}, {"time": 727, "annotation": {"number": 64, "value": 127}, "group": "control_change"}, {"time": 748, "annotation": {"number": 64, "value": 0}, "group": "control_change"}, {"time": 751, "annotation": {"number": 64, "value": 127}, "group": "control_change"}, {"time": 761, "annotation": {"number": 64, "value": 0}, "group": "control_change"}, {"time": 764, "annotation": {"number": 64, "value": 127}, "group": "control_change"}, {"time": 770, "annotation": {"number": 64, "value": 0}, "group": "control_change"}, {"time": 775, "annotation": {"number": 64, "value": 127}, "group": "control_change"}, {"time": 795, "annotation": {"number": 64, "value": 0}, "group": "control_change"}, {"time": 799, "annotation": {"number": 64, "value": 127}, "group": "control_change"}, {"time": 819, "annotation": {"number": 64, "value": 0}, "group": "control_change"}, {"time": 822, "annotation": {"number": 64, "value": 127}, "group": "control_change"}, {"time": 844, "annotation": {"number": 64, "value": 0}, "group": "control_change"}, {"time": 847, "annotation": {"number": 64, "value": 127}, "group": "control_change"}, {"time": 856, "annotation": {"number": 64, "value": 0}, "group": "control_change"}, {"time": 858, "annotation": {"number": 64, "value": 127}, "group": "control_change"}, {"time": 868, "annotation": {"number": 64, "value": 0}, "group": "control_change"}, {"time": 870, "annotation": {"number": 64, "value": 127}, "group": "control_change"}, {"time": 892, "annotation": {"number": 64, "value": 0}, "group": "control_change"}, {"time": 895, "annotation": {"number": 64, "value": 127}, "group": "control_change"}, {"time": 905, "annotation": {"number": 64, "value": 0}, "group": "control_change"}, {"time": 907, "annotation": {"number": 64, "value": 127}, "group": "control_change"}, {"time": 915, "annotation": {"number": 64, "value": 0}, "group": "control_change"}, {"time": 919, "annotation": {"number": 64, "value": 127}, "group": "control_change"}, {"time": 940, "annotation": {"number": 64, "value": 0}, "group": "control_change"}, {"time": 944, "annotation": {"number": 64, "value": 127}, "group": "control_change"}, {"time": 964, "annotation": {"number": 64, "value": 0}, "group": "control_change"}, {"time": 967, "annotation": {"number": 64, "value": 127}, "group": "control_change"}, {"time": 987, "annotation": {"number": 64, "value": 0}, "group": "control_change"}, {"time": 991, "annotation": {"number": 64, "value": 127}, "group": "control_change"}, {"time": 992, "annotation": {"number": 64, "value": 127}, "group": "control_change"}, {"time": 1011, "annotation": {"number": 64, "value": 0}, "group": "control_change"}, {"time": 1015, "annotation": {"number": 64, "value": 127}, "group": "control_change"}, {"time": 1036, "annotation": {"number": 64, "value": 0}, "group": "control_change"}, {"time": 1039, "annotation": {"number": 64, "value": 127}, "group": "control_change"}, {"time": 1061, "annotation": {"number": 64, "value": 0}, "group": "control_change"}, {"time": 1065, "annotation": {"number": 64, "value": 127}, "group": "control_change"}, {"time": 1085, "annotation": {"number": 64, "value": 0}, "group": "control_change"}, {"time": 1088, "annotation": {"number": 64, "value": 127}, "group": "control_change"}, {"time": 1107, "annotation": {"number": 64, "value": 0}, "group": "control_change"}, {"time": 1111, "annotation": {"number": 64, "value": 127}, "group": "control_change"}, {"time": 1128, "annotation": {"number": 64, "value": 127}, "group": "control_change"}, {"time": 1132, "annotation": {"number": 64, "value": 0}, "group": "control_change"}, {"time": 1134, "annotation": {"number": 64, "value": 0}, "group": "control_change"}, {"time": 1135, "annotation": {"number": 64, "value": 127}, "group": "control_change"}, {"time": 1137, "annotation": {"number": 64, "value": 127}, "group": "control_change"}, {"time": 1145, "annotation": {"number": 64, "value": 0}, "group": "control_change"}, {"time": 1148, "annotation": {"number": 64, "value": 127}, "group": "control_change"}, {"time": 1154, "annotation": {"number": 64, "value": 0}, "group": "control_change"}, {"time": 1160, "annotation": {"number": 64, "value": 127}, "group": "control_change"}, {"time": 1182, "annotation": {"number": 64, "value": 0}, "group": "control_change"}, {"time": 1204, "annotation": {"number": 64, "value": 0}, "group": "control_change"}, {"time": 1207, "annotation": {"number": 64, "value": 127}, "group": "control_change"}, {"time": 1228, "annotation": {"number": 64, "value": 0}, "group": "control_change"}, {"time": 1231, "annotation": {"number": 64, "value": 127}, "group": "control_change"}, {"time": 1252, "annotation": {"number": 64, "value": 0}, "group": "control_change"}, {"time": 1255, "annotation": {"number": 64, "value": 127}, "group": "control_change"}, {"time": 1275, "annotation": {"number": 64, "value": 0}, "group": "control_change"}, {"time": 1279, "annotation": {"number": 64, "value": 127}, "group": "control_change"}, {"time": 1289, "annotation": {"number": 64, "value": 0}, "group": "control_change"}, {"time": 1291, "annotation": {"number": 64, "value": 127}, "group": "control_change"}, {"time": 1301, "annotation": {"number": 64, "value": 0}, "group": "control_change"}, {"time": 1303, "annotation": {"number": 64, "value": 127}, "group": "control_change"}, {"time": 1313, "annotation": {"number": 64, "value": 0}, "group": "control_change"}, {"time": 1316, "annotation": {"number": 64, "value": 127}, "group": "control_change"}, {"time": 1324, "annotation": {"number": 64, "value": 0}, "group": "control_change"}, {"time": 1327, "annotation": {"number": 64, "value": 127}, "group": "control_change"}, {"time": 1349, "annotation": {"number": 64, "value": 0}, "group": "control_change"}, {"time": 1351, "annotation": {"number": 64, "value": 127}, "group": "control_change"}, {"time": 1372, "annotation": {"number": 64, "value": 0}, "group": "control_change"}, {"time": 1375, "annotation": {"number": 64, "value": 127}, "group": "control_change"}, {"time": 1397, "annotation": {"number": 64, "value": 0}, "group": "control_change"}, {"time": 1399, "annotation": {"number": 64, "value": 127}, "group": "control_change"}, {"time": 1420, "annotation": {"number": 64, "value": 0}, "group": "control_change"}, {"time": 1423, "annotation": {"number": 64, "value": 127}, "group": "control_change"}, {"time": 1433, "annotation": {"number": 64, "value": 0}, "group": "control_change"}, {"time": 1435, "annotation": {"number": 64, "value": 127}, "group": "control_change"}, {"time": 1444, "annotation": {"number": 64, "value": 0}, "group": "control_change"}, {"time": 1447, "annotation": {"number": 64, "value": 127}, "group": "control_change"}, {"time": 1467, "annotation": {"number": 64, "value": 0}, "group": "control_change"}, {"time": 1471, "annotation": {"number": 64, "value": 127}, "group": "control_change"}, {"time": 1491, "annotation": {"number": 64, "value": 0}, "group": "control_change"}, {"time": 1495, "annotation": {"number": 64, "value": 127}, "group": "control_change"}, {"time": 1516, "annotation": {"number": 64, "value": 0}, "group": "control_change"}, {"time": 1519, "annotation": {"number": 64, "value": 127}, "group": "control_change"}, {"time": 1529, "annotation": {"number": 64, "value": 0}, "group": "control_change"}, {"time": 1532, "annotation": {"number": 64, "value": 127}, "group": "control_change"}, {"time": 1538, "annotation": {"number": 64, "value": 0}, "group": "control_change"}, {"time": 1543, "annotation": {"number": 64, "value": 127}, "group": "control_change"}, {"time": 1563, "annotation": {"number": 64, "value": 0}, "group": "control_change"}, {"time": 1567, "annotation": {"number": 64, "value": 127}, "group": "control_change"}, {"time": 1587, "annotation": {"number": 64, "value": 0}, "group": "control_change"}, {"time": 1590, "annotation": {"number": 64, "value": 127}, "group": "control_change"}, {"time": 1612, "annotation": {"number": 64, "value": 0}, "group": "control_change"}, {"time": 1615, "annotation": {"number": 64, "value": 127}, "group": "control_change"}, {"time": 1624, "annotation": {"number": 64, "value": 0}, "group": "control_change"}, {"time": 1626, "annotation": {"number": 64, "value": 127}, "group": "control_change"}, {"time": 1636, "annotation": {"number": 64, "value": 0}, "group": "control_change"}, {"time": 1638, "annotation": {"number": 64, "value": 127}, "group": "control_change"}, {"time": 1660, "annotation": {"number": 64, "value": 0}, "group": "control_change"}, {"time": 1663, "annotation": {"number": 64, "value": 127}, "group": "control_change"}, {"time": 1673, "annotation": {"number": 64, "value": 0}, "group": "control_change"}, {"time": 1675, "annotation": {"number": 64, "value": 127}, "group": "control_change"}, {"time": 1683, "annotation": {"number": 64, "value": 0}, "group": "control_change"}, {"time": 1687, "annotation": {"number": 64, "value": 127}, "group": "control_change"}, {"time": 1708, "annotation": {"number": 64, "value": 0}, "group": "control_change"}, {"time": 1712, "annotation": {"number": 64, "value": 127}, "group": "control_change"}, {"time": 1732, "annotation": {"number": 64, "value": 0}, "group": "control_change"}, {"time": 1735, "annotation": {"number": 64, "value": 127}, "group": "control_change"}, {"time": 1755, "annotation": {"number": 64, "value": 0}, "group": "control_change"}, {"time": 1759, "annotation": {"number": 64, "value": 127}, "group": "control_change"}, {"time": 1760, "annotation": {"number": 64, "value": 127}, "group": "control_change"}, {"time": 1779, "annotation": {"number": 64, "value": 0}, "group": "control_change"}, {"time": 1783, "annotation": {"number": 64, "value": 127}, "group": "control_change"}, {"time": 1804, "annotation": {"number": 64, "value": 0}, "group": "control_change"}, {"time": 1807, "annotation": {"number": 64, "value": 127}, "group": "control_change"}, {"time": 1829, "annotation": {"number": 64, "value": 0}, "group": "control_change"}, {"time": 1833, "annotation": {"number": 64, "value": 127}, "group": "control_change"}, {"time": 1853, "annotation": {"number": 64, "value": 0}, "group": "control_change"}, {"time": 1856, "annotation": {"number": 64, "value": 127}, "group": "control_change"}, {"time": 1875, "annotation": {"number": 64, "value": 0}, "group": "control_change"}, {"time": 1879, "annotation": {"number": 64, "value": 127}, "group": "control_change"}, {"time": 1896, "annotation": {"number": 64, "value": 127}, "group": "control_change"}, {"time": 1900, "annotation": {"number": 64, "value": 0}, "group": "control_change"}, {"time": 1902, "annotation": {"number": 64, "value": 0}, "group": "control_change"}, {"time": 1903, "annotation": {"number": 64, "value": 127}, "group": "control_change"}, {"time": 1905, "annotation": {"number": 64, "value": 127}, "group": "control_change"}, {"time": 1913, "annotation": {"number": 64, "value": 0}, "group": "control_change"}, {"time": 1916, "annotation": {"number": 64, "value": 127}, "group": "control_change"}, {"time": 1922, "annotation": {"number": 64, "value": 0}, "group": "control_change"}, {"time": 1928, "annotation": {"number": 64, "value": 127}, "group": "control_change"}, {"time": 1950, "annotation": {"number": 64, "value": 0}, "group": "control_change"}, {"time": 1951, "annotation": {"number": 64, "value": 127}, "group": "control_change"}, {"time": 1974, "annotation": {"number": 64, "value": 0}, "group": "control_change"}, {"time": 1976, "annotation": {"number": 64, "value": 127}, "group": "control_change"}, {"time": 1997, "annotation": {"number": 64, "value": 0}, "group": "control_change"}, {"time": 1999, "annotation": {"number": 64, "value": 127}, "group": "control_change"}, {"time": 2009, "annotation": {"number": 64, "value": 0}, "group": "control_change"}, {"time": 2011, "annotation": {"number": 64, "value": 127}, "group": "control_change"}, {"time": 2022, "annotation": {"number": 64, "value": 0}, "group": "control_change"}, {"time": 2024, "annotation": {"number": 64, "value": 127}, "group": "control_change"}, {"time": 2045, "annotation": {"number": 64, "value": 0}, "group": "control_change"}, {"time": 2048, "annotation": {"number": 64, "value": 127}, "group": "control_change"}, {"time": 2069, "annotation": {"number": 64, "value": 0}, "group": "control_change"}, {"time": 2072, "annotation": {"number": 64, "value": 127}, "group": "control_change"}, {"time": 2093, "annotation": {"number": 64, "value": 0}, "group": "control_change"}, {"time": 2096, "annotation": {"number": 64, "value": 127}, "group": "control_change"}, {"time": 2118, "annotation": {"number": 64, "value": 0}, "group": "control_change"}, {"time": 2120, "annotation": {"number": 64, "value": 127}, "group": "control_change"}, {"time": 2142, "annotation": {"number": 64, "value": 0}, "group": "control_change"}, {"time": 2144, "annotation": {"number": 64, "value": 127}, "group": "control_change"}, {"time": 2166, "annotation": {"number": 64, "value": 0}, "group": "control_change"}, {"time": 2168, "annotation": {"number": 64, "value": 127}, "group": "control_change"}, {"time": 2190, "annotation": {"number": 64, "value": 0}, "group": "control_change"}, {"time": 2192, "annotation": {"number": 64, "value": 127}, "group": "control_change"}, {"time": 2201, "annotation": {"number": 64, "value": 0}, "group": "control_change"}, {"time": 2204, "annotation": {"number": 64, "value": 127}, "group": "control_change"}, {"time": 2212, "annotation": {"number": 64, "value": 0}, "group": "control_change"}, {"time": 2215, "annotation": {"number": 64, "value": 127}, "group": "control_change"}, {"time": 2237, "annotation": {"number": 64, "value": 0}, "group": "control_change"}, {"time": 2240, "annotation": {"number": 64, "value": 127}, "group": "control_change"}, {"time": 2260, "annotation": {"number": 64, "value": 0}, "group": "control_change"}, {"time": 2263, "annotation": {"number": 64, "value": 127}, "group": "control_change"}, {"time": 2285, "annotation": {"number": 64, "value": 0}, "group": "control_change"}, {"time": 2288, "annotation": {"number": 64, "value": 127}, "group": "control_change"}, {"time": 2310, "annotation": {"number": 64, "value": 0}, "group": "control_change"}, {"time": 2312, "annotation": {"number": 64, "value": 127}, "group": "control_change"}, {"time": 2323, "annotation": {"number": 64, "value": 0}, "group": "control_change"}, {"time": 2335, "annotation": {"number": 64, "value": 127}, "group": "control_change"}, {"time": 2357, "annotation": {"number": 64, "value": 0}, "group": "control_change"}, {"time": 2360, "annotation": {"number": 64, "value": 127}, "group": "control_change"}, {"time": 2382, "annotation": {"number": 64, "value": 0}, "group": "control_change"}, {"time": 2384, "annotation": {"number": 64, "value": 127}, "group": "control_change"}, {"time": 2393, "annotation": {"number": 64, "value": 0}, "group": "control_change"}, {"time": 2395, "annotation": {"number": 64, "value": 127}, "group": "control_change"}, {"time": 2404, "annotation": {"number": 64, "value": 0}, "group": "control_change"}, {"time": 2407, "annotation": {"number": 64, "value": 127}, "group": "control_change"}, {"time": 2430, "annotation": {"number": 64, "value": 0}, "group": "control_change"}, {"time": 2433, "annotation": {"number": 64, "value": 127}, "group": "control_change"}, {"time": 2453, "annotation": {"number": 64, "value": 0}, "group": "control_change"}, {"time": 2456, "annotation": {"number": 64, "value": 127}, "group": "control_change"}, {"time": 2478, "annotation": {"number": 64, "value": 0}, "group": "control_change"}, {"time": 2479, "annotation": {"number": 64, "value": 127}, "group": "control_change"}, {"time": 2490, "annotation": {"number": 64, "value": 0}, "group": "control_change"}, {"time": 2493, "annotation": {"number": 64, "value": 127}, "group": "control_change"}, {"time": 2501, "annotation": {"number": 64, "value": 0}, "group": "control_change"}, {"time": 2504, "annotation": {"number": 64, "value": 127}, "group": "control_change"}, {"time": 2525, "annotation": {"number": 64, "value": 0}, "group": "control_change"}, {"time": 2528, "annotation": {"number": 64, "value": 127}, "group": "control_change"}, {"time": 2549, "annotation": {"number": 64, "value": 0}, "group": "control_change"}, {"time": 2552, "annotation": {"number": 64, "value": 127}, "group": "control_change"}, {"time": 2574, "annotation": {"number": 64, "value": 0}, "group": "control_change"}, {"time": 2578, "annotation": {"number": 64, "value": 127}, "group": "control_change"}, {"time": 2584, "annotation": {"number": 64, "value": 0}, "group": "control_change"}, {"time": 2588, "annotation": {"number": 64, "value": 127}, "group": "control_change"}, {"time": 2597, "annotation": {"number": 64, "value": 0}, "group": "control_change"}, {"time": 2600, "annotation": {"number": 64, "value": 127}, "group": "control_change"}, {"time": 2608, "annotation": {"number": 64, "value": 0}, "group": "control_change"}, {"time": 2611, "annotation": {"number": 64, "value": 127}, "group": "control_change"}, {"time": 2620, "annotation": {"number": 64, "value": 0}, "group": "control_change"}, {"time": 2623, "annotation": {"number": 64, "value": 127}, "group": "control_change"}, {"time": 2644, "annotation": {"number": 64, "value": 0}, "group": "control_change"}, {"time": 2647, "annotation": {"number": 64, "value": 127}, "group": "control_change"}, {"time": 2670, "annotation": {"number": 64, "value": 0}, "group": "control_change"}, {"time": 2672, "annotation": {"number": 64, "value": 127}, "group": "control_change"}, {"time": 2692, "annotation": {"number": 64, "value": 0}, "group": "control_change"}, {"time": 2696, "annotation": {"number": 64, "value": 127}, "group": "control_change"}, {"time": 2718, "annotation": {"number": 64, "value": 0}, "group": "control_change"}, {"time": 2732, "annotation": {"number": 64, "value": 127}, "group": "control_change"}, {"time": 2762, "annotation": {"number": 64, "value": 0}, "group": "control_change"}, {"time": 2768, "annotation": {"number": 64, "value": 127}, "group": "control_change"}, {"time": 2790, "annotation": {"number": 64, "value": 0}, "group": "control_change"}, {"time": 2792, "annotation": {"number": 64, "value": 127}, "group": "control_change"}, {"time": 2816, "annotation": {"number": 64, "value": 127}, "group": "control_change"}, {"time": 2918, "annotation": {"number": 64, "value": 127}, "group": "control_change"}, {"time": 2962, "annotation": {"number": 64, "value": 0}, "group": "control_change"}, {"time": 2962, "annotation": {"number": 64, "value": 127}, "group": "control_change"}, {"time": 2967, "annotation": {"number": 64, "value": 0}, "group": "control_change"}]}]}