{"metadata": {"schema_version": "0.2", "title": "None", "source_filename": "362.mid", "source_format": "midi"}, "resolution": 12, "tempos": [{"time": 0, "qpm": 58.500115537728185}], "time_signatures": [{"time": 0, "numerator": 1, "denominator": 4}], "tracks": [{"program": 0, "is_drum": false, "name": "MELODY", "notes": [{"time": 92, "pitch": 71, "duration": 5, "velocity": 85}, {"time": 98, "pitch": 73, "duration": 2, "velocity": 87}, {"time": 101, "pitch": 73, "duration": 2, "velocity": 74}, {"time": 104, "pitch": 73, "duration": 2, "velocity": 87}, {"time": 107, "pitch": 73, "duration": 2, "velocity": 95}, {"time": 110, "pitch": 71, "duration": 2, "velocity": 87}, {"time": 113, "pitch": 71, "duration": 2, "velocity": 93}, {"time": 116, "pitch": 69, "duration": 4, "velocity": 90}, {"time": 122, "pitch": 69, "duration": 9, "velocity": 87}, {"time": 137, "pitch": 66, "duration": 2, "velocity": 70}, {"time": 140, "pitch": 64, "duration": 2, "velocity": 87}, {"time": 143, "pitch": 66, "duration": 2, "velocity": 80}, {"time": 146, "pitch": 69, "duration": 2, "velocity": 74}, {"time": 149, "pitch": 69, "duration": 2, "velocity": 90}, {"time": 152, "pitch": 69, "duration": 2, "velocity": 90}, {"time": 155, "pitch": 69, "duration": 2, "velocity": 93}, {"time": 158, "pitch": 66, "duration": 2, "velocity": 74}, {"time": 161, "pitch": 66, "duration": 2, "velocity": 67}, {"time": 164, "pitch": 64, "duration": 15, "velocity": 87}, {"time": 191, "pitch": 73, "duration": 3, "velocity": 83}, {"time": 194, "pitch": 76, "duration": 2, "velocity": 87}, {"time": 197, "pitch": 76, "duration": 2, "velocity": 87}, {"time": 200, "pitch": 76, "duration": 4, "velocity": 93}, {"time": 206, "pitch": 76, "duration": 2, "velocity": 87}, {"time": 209, "pitch": 76, "duration": 2, "velocity": 87}, {"time": 212, "pitch": 78, "duration": 2, "velocity": 93}, {"time": 215, "pitch": 76, "duration": 2, "velocity": 87}, {"time": 218, "pitch": 73, "duration": 10, "velocity": 87}, {"time": 236, "pitch": 64, "duration": 2, "velocity": 90}, {"time": 239, "pitch": 66, "duration": 2, "velocity": 87}, {"time": 242, "pitch": 69, "duration": 2, "velocity": 93}, {"time": 245, "pitch": 69, "duration": 2, "velocity": 93}, {"time": 248, "pitch": 69, "duration": 4, "velocity": 93}, {"time": 254, "pitch": 66, "duration": 2, "velocity": 74}, {"time": 257, "pitch": 66, "duration": 2, "velocity": 80}, {"time": 260, "pitch": 71, "duration": 11, "velocity": 83}, {"time": 287, "pitch": 73, "duration": 2, "velocity": 74}, {"time": 290, "pitch": 73, "duration": 2, "velocity": 83}, {"time": 293, "pitch": 73, "duration": 2, "velocity": 87}, {"time": 296, "pitch": 73, "duration": 2, "velocity": 83}, {"time": 299, "pitch": 71, "duration": 2, "velocity": 87}, {"time": 302, "pitch": 69, "duration": 2, "velocity": 93}, {"time": 305, "pitch": 66, "duration": 2, "velocity": 70}, {"time": 308, "pitch": 69, "duration": 10, "velocity": 83}, {"time": 329, "pitch": 66, "duration": 2, "velocity": 80}, {"time": 332, "pitch": 64, "duration": 2, "velocity": 87}, {"time": 335, "pitch": 66, "duration": 2, "velocity": 87}, {"time": 338, "pitch": 69, "duration": 2, "velocity": 87}, {"time": 341, "pitch": 69, "duration": 2, "velocity": 87}, {"time": 344, "pitch": 69, "duration": 4, "velocity": 102}, {"time": 350, "pitch": 66, "duration": 2, "velocity": 87}, {"time": 353, "pitch": 66, "duration": 2, "velocity": 72}, {"time": 356, "pitch": 64, "duration": 14, "velocity": 93}, {"time": 383, "pitch": 73, "duration": 3, "velocity": 102}, {"time": 386, "pitch": 76, "duration": 2, "velocity": 83}, {"time": 389, "pitch": 76, "duration": 2, "velocity": 93}, {"time": 392, "pitch": 76, "duration": 3, "velocity": 93}, {"time": 398, "pitch": 76, "duration": 2, "velocity": 87}, {"time": 401, "pitch": 76, "duration": 2, "velocity": 95}, {"time": 404, "pitch": 78, "duration": 2, "velocity": 80}, {"time": 407, "pitch": 76, "duration": 2, "velocity": 80}, {"time": 410, "pitch": 73, "duration": 10, "velocity": 74}, {"time": 425, "pitch": 66, "duration": 2, "velocity": 68}, {"time": 428, "pitch": 64, "duration": 2, "velocity": 74}, {"time": 431, "pitch": 66, "duration": 2, "velocity": 80}, {"time": 434, "pitch": 69, "duration": 2, "velocity": 80}, {"time": 437, "pitch": 69, "duration": 2, "velocity": 93}, {"time": 440, "pitch": 69, "duration": 4, "velocity": 87}, {"time": 446, "pitch": 66, "duration": 2, "velocity": 68}, {"time": 449, "pitch": 66, "duration": 2, "velocity": 80}, {"time": 452, "pitch": 71, "duration": 16, "velocity": 83}, {"time": 509, "pitch": 78, "duration": 2, "velocity": 87}, {"time": 512, "pitch": 76, "duration": 2, "velocity": 93}, {"time": 515, "pitch": 78, "duration": 4, "velocity": 90}, {"time": 521, "pitch": 78, "duration": 2, "velocity": 87}, {"time": 524, "pitch": 76, "duration": 11, "velocity": 90}, {"time": 536, "pitch": 64, "duration": 2, "velocity": 93}, {"time": 539, "pitch": 76, "duration": 3, "velocity": 95}, {"time": 545, "pitch": 73, "duration": 2, "velocity": 87}, {"time": 548, "pitch": 71, "duration": 5, "velocity": 87}, {"time": 554, "pitch": 69, "duration": 18, "velocity": 87}, {"time": 605, "pitch": 78, "duration": 2, "velocity": 83}, {"time": 608, "pitch": 76, "duration": 2, "velocity": 74}, {"time": 611, "pitch": 78, "duration": 4, "velocity": 95}, {"time": 617, "pitch": 78, "duration": 2, "velocity": 83}, {"time": 620, "pitch": 76, "duration": 2, "velocity": 87}, {"time": 623, "pitch": 78, "duration": 10, "velocity": 93}, {"time": 638, "pitch": 76, "duration": 4, "velocity": 102}, {"time": 644, "pitch": 73, "duration": 2, "velocity": 69}, {"time": 647, "pitch": 76, "duration": 4, "velocity": 87}, {"time": 653, "pitch": 73, "duration": 23, "velocity": 87}, {"time": 698, "pitch": 64, "duration": 2, "velocity": 80}, {"time": 701, "pitch": 73, "duration": 1, "velocity": 95}, {"time": 704, "pitch": 73, "duration": 2, "velocity": 90}, {"time": 707, "pitch": 74, "duration": 2, "velocity": 74}, {"time": 710, "pitch": 74, "duration": 7, "velocity": 93}, {"time": 731, "pitch": 78, "duration": 4, "velocity": 93}, {"time": 737, "pitch": 76, "duration": 2, "velocity": 93}, {"time": 740, "pitch": 73, "duration": 2, "velocity": 80}, {"time": 743, "pitch": 76, "duration": 13, "velocity": 93}, {"time": 761, "pitch": 73, "duration": 17, "velocity": 80}, {"time": 785, "pitch": 66, "duration": 2, "velocity": 74}, {"time": 788, "pitch": 69, "duration": 2, "velocity": 87}, {"time": 791, "pitch": 73, "duration": 5, "velocity": 83}, {"time": 797, "pitch": 71, "duration": 16, "velocity": 80}, {"time": 827, "pitch": 66, "duration": 2, "velocity": 80}, {"time": 830, "pitch": 69, "duration": 7, "velocity": 87}, {"time": 839, "pitch": 69, "duration": 26, "velocity": 87}, {"time": 882, "pitch": 69, "duration": 1, "velocity": 80}, {"time": 884, "pitch": 71, "duration": 2, "velocity": 90}, {"time": 887, "pitch": 71, "duration": 2, "velocity": 80}, {"time": 890, "pitch": 73, "duration": 2, "velocity": 70}, {"time": 893, "pitch": 73, "duration": 2, "velocity": 74}, {"time": 896, "pitch": 73, "duration": 2, "velocity": 80}, {"time": 902, "pitch": 71, "duration": 3, "velocity": 95}, {"time": 905, "pitch": 71, "duration": 2, "velocity": 70}, {"time": 908, "pitch": 69, "duration": 12, "velocity": 93}, {"time": 932, "pitch": 64, "duration": 2, "velocity": 93}, {"time": 935, "pitch": 66, "duration": 2, "velocity": 85}, {"time": 938, "pitch": 69, "duration": 2, "velocity": 87}, {"time": 941, "pitch": 69, "duration": 2, "velocity": 95}, {"time": 944, "pitch": 69, "duration": 3, "velocity": 85}, {"time": 950, "pitch": 66, "duration": 2, "velocity": 85}, {"time": 953, "pitch": 66, "duration": 2, "velocity": 72}, {"time": 956, "pitch": 66, "duration": 5, "velocity": 90}, {"time": 962, "pitch": 64, "duration": 18, "velocity": 74}, {"time": 983, "pitch": 73, "duration": 3, "velocity": 85}, {"time": 986, "pitch": 76, "duration": 2, "velocity": 80}, {"time": 989, "pitch": 76, "duration": 2, "velocity": 102}, {"time": 992, "pitch": 76, "duration": 4, "velocity": 102}, {"time": 998, "pitch": 76, "duration": 2, "velocity": 72}, {"time": 1001, "pitch": 76, "duration": 2, "velocity": 102}, {"time": 1004, "pitch": 78, "duration": 2, "velocity": 102}, {"time": 1007, "pitch": 76, "duration": 5, "velocity": 93}, {"time": 1013, "pitch": 73, "duration": 8, "velocity": 93}, {"time": 1028, "pitch": 64, "duration": 2, "velocity": 87}, {"time": 1031, "pitch": 66, "duration": 2, "velocity": 74}, {"time": 1034, "pitch": 69, "duration": 2, "velocity": 87}, {"time": 1037, "pitch": 69, "duration": 2, "velocity": 87}, {"time": 1040, "pitch": 69, "duration": 4, "velocity": 102}, {"time": 1046, "pitch": 66, "duration": 2, "velocity": 83}, {"time": 1049, "pitch": 73, "duration": 2, "velocity": 93}, {"time": 1052, "pitch": 71, "duration": 17, "velocity": 87}, {"time": 1073, "pitch": 69, "duration": 2, "velocity": 85}, {"time": 1076, "pitch": 71, "duration": 2, "velocity": 87}, {"time": 1079, "pitch": 71, "duration": 2, "velocity": 74}, {"time": 1082, "pitch": 73, "duration": 2, "velocity": 80}, {"time": 1085, "pitch": 73, "duration": 2, "velocity": 80}, {"time": 1088, "pitch": 73, "duration": 4, "velocity": 93}, {"time": 1094, "pitch": 71, "duration": 2, "velocity": 74}, {"time": 1097, "pitch": 71, "duration": 2, "velocity": 95}, {"time": 1100, "pitch": 69, "duration": 15, "velocity": 87}, {"time": 1121, "pitch": 66, "duration": 2, "velocity": 69}, {"time": 1124, "pitch": 64, "duration": 2, "velocity": 102}, {"time": 1127, "pitch": 66, "duration": 2, "velocity": 87}, {"time": 1130, "pitch": 69, "duration": 2, "velocity": 87}, {"time": 1133, "pitch": 69, "duration": 2, "velocity": 80}, {"time": 1136, "pitch": 69, "duration": 4, "velocity": 93}, {"time": 1142, "pitch": 66, "duration": 2, "velocity": 87}, {"time": 1145, "pitch": 66, "duration": 3, "velocity": 74}, {"time": 1148, "pitch": 64, "duration": 14, "velocity": 93}, {"time": 1175, "pitch": 73, "duration": 2, "velocity": 83}, {"time": 1178, "pitch": 76, "duration": 2, "velocity": 87}, {"time": 1181, "pitch": 76, "duration": 2, "velocity": 93}, {"time": 1184, "pitch": 76, "duration": 2, "velocity": 93}, {"time": 1187, "pitch": 76, "duration": 2, "velocity": 93}, {"time": 1190, "pitch": 76, "duration": 1, "velocity": 85}, {"time": 1193, "pitch": 76, "duration": 2, "velocity": 87}, {"time": 1196, "pitch": 78, "duration": 2, "velocity": 93}, {"time": 1199, "pitch": 76, "duration": 2, "velocity": 87}, {"time": 1202, "pitch": 73, "duration": 10, "velocity": 85}, {"time": 1217, "pitch": 66, "duration": 2, "velocity": 87}, {"time": 1220, "pitch": 64, "duration": 2, "velocity": 80}, {"time": 1223, "pitch": 66, "duration": 2, "velocity": 80}, {"time": 1226, "pitch": 69, "duration": 2, "velocity": 87}, {"time": 1229, "pitch": 69, "duration": 2, "velocity": 87}, {"time": 1232, "pitch": 69, "duration": 4, "velocity": 95}, {"time": 1238, "pitch": 66, "duration": 2, "velocity": 74}, {"time": 1241, "pitch": 66, "duration": 2, "velocity": 69}, {"time": 1244, "pitch": 71, "duration": 51, "velocity": 90}, {"time": 1301, "pitch": 78, "duration": 2, "velocity": 87}, {"time": 1304, "pitch": 76, "duration": 2, "velocity": 93}, {"time": 1307, "pitch": 78, "duration": 4, "velocity": 90}, {"time": 1313, "pitch": 78, "duration": 2, "velocity": 87}, {"time": 1316, "pitch": 76, "duration": 11, "velocity": 90}, {"time": 1328, "pitch": 64, "duration": 2, "velocity": 93}, {"time": 1331, "pitch": 76, "duration": 3, "velocity": 95}, {"time": 1337, "pitch": 73, "duration": 2, "velocity": 87}, {"time": 1340, "pitch": 71, "duration": 5, "velocity": 87}, {"time": 1346, "pitch": 69, "duration": 18, "velocity": 87}, {"time": 1397, "pitch": 78, "duration": 2, "velocity": 83}, {"time": 1400, "pitch": 76, "duration": 2, "velocity": 74}, {"time": 1403, "pitch": 78, "duration": 4, "velocity": 95}, {"time": 1409, "pitch": 78, "duration": 2, "velocity": 83}, {"time": 1412, "pitch": 76, "duration": 2, "velocity": 87}, {"time": 1415, "pitch": 78, "duration": 10, "velocity": 93}, {"time": 1430, "pitch": 76, "duration": 4, "velocity": 102}, {"time": 1436, "pitch": 73, "duration": 2, "velocity": 69}, {"time": 1439, "pitch": 76, "duration": 4, "velocity": 87}, {"time": 1445, "pitch": 73, "duration": 23, "velocity": 87}, {"time": 1490, "pitch": 64, "duration": 2, "velocity": 80}, {"time": 1493, "pitch": 73, "duration": 1, "velocity": 95}, {"time": 1496, "pitch": 73, "duration": 2, "velocity": 90}, {"time": 1499, "pitch": 74, "duration": 2, "velocity": 74}, {"time": 1502, "pitch": 74, "duration": 7, "velocity": 93}, {"time": 1523, "pitch": 78, "duration": 4, "velocity": 93}, {"time": 1529, "pitch": 76, "duration": 2, "velocity": 93}, {"time": 1532, "pitch": 73, "duration": 2, "velocity": 80}, {"time": 1535, "pitch": 76, "duration": 13, "velocity": 93}, {"time": 1553, "pitch": 73, "duration": 17, "velocity": 80}, {"time": 1577, "pitch": 66, "duration": 2, "velocity": 74}, {"time": 1580, "pitch": 69, "duration": 2, "velocity": 87}, {"time": 1583, "pitch": 73, "duration": 5, "velocity": 83}, {"time": 1589, "pitch": 71, "duration": 16, "velocity": 80}, {"time": 1619, "pitch": 66, "duration": 2, "velocity": 80}, {"time": 1622, "pitch": 69, "duration": 7, "velocity": 87}, {"time": 1631, "pitch": 69, "duration": 26, "velocity": 87}, {"time": 2021, "pitch": 78, "duration": 2, "velocity": 87}, {"time": 2024, "pitch": 76, "duration": 2, "velocity": 93}, {"time": 2027, "pitch": 78, "duration": 4, "velocity": 90}, {"time": 2033, "pitch": 78, "duration": 2, "velocity": 87}, {"time": 2036, "pitch": 76, "duration": 11, "velocity": 90}, {"time": 2048, "pitch": 64, "duration": 2, "velocity": 93}, {"time": 2051, "pitch": 76, "duration": 3, "velocity": 95}, {"time": 2057, "pitch": 73, "duration": 2, "velocity": 87}, {"time": 2060, "pitch": 71, "duration": 5, "velocity": 87}, {"time": 2066, "pitch": 69, "duration": 18, "velocity": 87}, {"time": 2117, "pitch": 78, "duration": 2, "velocity": 83}, {"time": 2120, "pitch": 76, "duration": 2, "velocity": 74}, {"time": 2123, "pitch": 78, "duration": 4, "velocity": 95}, {"time": 2129, "pitch": 78, "duration": 2, "velocity": 83}, {"time": 2132, "pitch": 76, "duration": 2, "velocity": 87}, {"time": 2135, "pitch": 78, "duration": 10, "velocity": 93}, {"time": 2150, "pitch": 76, "duration": 4, "velocity": 102}, {"time": 2156, "pitch": 73, "duration": 2, "velocity": 69}, {"time": 2159, "pitch": 76, "duration": 4, "velocity": 87}, {"time": 2165, "pitch": 73, "duration": 23, "velocity": 87}, {"time": 2210, "pitch": 64, "duration": 2, "velocity": 80}, {"time": 2213, "pitch": 73, "duration": 1, "velocity": 95}, {"time": 2216, "pitch": 73, "duration": 2, "velocity": 90}, {"time": 2219, "pitch": 74, "duration": 2, "velocity": 74}, {"time": 2222, "pitch": 74, "duration": 7, "velocity": 93}, {"time": 2243, "pitch": 78, "duration": 4, "velocity": 93}, {"time": 2249, "pitch": 76, "duration": 2, "velocity": 93}, {"time": 2252, "pitch": 73, "duration": 2, "velocity": 80}, {"time": 2255, "pitch": 76, "duration": 13, "velocity": 93}, {"time": 2273, "pitch": 73, "duration": 17, "velocity": 80}, {"time": 2297, "pitch": 66, "duration": 2, "velocity": 74}, {"time": 2300, "pitch": 69, "duration": 2, "velocity": 87}, {"time": 2303, "pitch": 73, "duration": 5, "velocity": 83}, {"time": 2309, "pitch": 71, "duration": 16, "velocity": 80}, {"time": 2339, "pitch": 66, "duration": 2, "velocity": 80}, {"time": 2342, "pitch": 69, "duration": 7, "velocity": 87}, {"time": 2351, "pitch": 69, "duration": 26, "velocity": 87}, {"time": 2405, "pitch": 78, "duration": 2, "velocity": 87}, {"time": 2408, "pitch": 76, "duration": 2, "velocity": 93}, {"time": 2411, "pitch": 78, "duration": 4, "velocity": 90}, {"time": 2417, "pitch": 78, "duration": 2, "velocity": 87}, {"time": 2420, "pitch": 76, "duration": 11, "velocity": 90}, {"time": 2432, "pitch": 64, "duration": 2, "velocity": 93}, {"time": 2435, "pitch": 76, "duration": 3, "velocity": 95}, {"time": 2441, "pitch": 73, "duration": 2, "velocity": 87}, {"time": 2444, "pitch": 71, "duration": 5, "velocity": 87}, {"time": 2450, "pitch": 69, "duration": 18, "velocity": 87}, {"time": 2501, "pitch": 78, "duration": 2, "velocity": 83}, {"time": 2504, "pitch": 76, "duration": 2, "velocity": 74}, {"time": 2507, "pitch": 78, "duration": 4, "velocity": 95}, {"time": 2513, "pitch": 78, "duration": 2, "velocity": 83}, {"time": 2516, "pitch": 76, "duration": 2, "velocity": 87}, {"time": 2519, "pitch": 78, "duration": 10, "velocity": 93}, {"time": 2534, "pitch": 76, "duration": 4, "velocity": 102}, {"time": 2540, "pitch": 73, "duration": 2, "velocity": 69}, {"time": 2543, "pitch": 76, "duration": 4, "velocity": 87}, {"time": 2549, "pitch": 73, "duration": 23, "velocity": 87}, {"time": 2594, "pitch": 64, "duration": 2, "velocity": 80}, {"time": 2597, "pitch": 73, "duration": 1, "velocity": 95}, {"time": 2600, "pitch": 73, "duration": 2, "velocity": 90}, {"time": 2603, "pitch": 74, "duration": 2, "velocity": 74}, {"time": 2606, "pitch": 74, "duration": 7, "velocity": 93}, {"time": 2627, "pitch": 78, "duration": 4, "velocity": 93}, {"time": 2633, "pitch": 76, "duration": 2, "velocity": 93}, {"time": 2636, "pitch": 73, "duration": 2, "velocity": 80}, {"time": 2639, "pitch": 76, "duration": 13, "velocity": 93}, {"time": 2657, "pitch": 73, "duration": 17, "velocity": 80}, {"time": 2681, "pitch": 66, "duration": 2, "velocity": 74}, {"time": 2684, "pitch": 69, "duration": 2, "velocity": 87}, {"time": 2687, "pitch": 73, "duration": 5, "velocity": 83}, {"time": 2693, "pitch": 71, "duration": 16, "velocity": 80}, {"time": 2723, "pitch": 66, "duration": 2, "velocity": 80}, {"time": 2726, "pitch": 69, "duration": 7, "velocity": 87}, {"time": 2735, "pitch": 69, "duration": 26, "velocity": 87}, {"time": 2789, "pitch": 74, "duration": 3, "velocity": 83}, {"time": 2792, "pitch": 73, "duration": 2, "velocity": 80}, {"time": 2795, "pitch": 74, "duration": 2, "velocity": 80}, {"time": 2798, "pitch": 74, "duration": 18, "velocity": 87}, {"time": 2819, "pitch": 78, "duration": 5, "velocity": 95}, {"time": 2825, "pitch": 76, "duration": 2, "velocity": 87}, {"time": 2828, "pitch": 73, "duration": 2, "velocity": 80}, {"time": 2831, "pitch": 76, "duration": 12, "velocity": 93}, {"time": 2849, "pitch": 73, "duration": 19, "velocity": 87}, {"time": 2873, "pitch": 66, "duration": 2, "velocity": 69}, {"time": 2876, "pitch": 69, "duration": 2, "velocity": 102}, {"time": 2879, "pitch": 73, "duration": 5, "velocity": 93}, {"time": 2885, "pitch": 71, "duration": 32, "velocity": 87}, {"time": 2939, "pitch": 66, "duration": 3, "velocity": 83}, {"time": 2942, "pitch": 69, "duration": 7, "velocity": 80}, {"time": 2951, "pitch": 69, "duration": 38, "velocity": 83}]}, {"program": 0, "is_drum": false, "name": "BRIDGE", "notes": [{"time": 503, "pitch": 76, "duration": 47, "velocity": 58}, {"time": 551, "pitch": 73, "duration": 42, "velocity": 66}, {"time": 599, "pitch": 69, "duration": 22, "velocity": 58}, {"time": 599, "pitch": 74, "duration": 22, "velocity": 58}, {"time": 635, "pitch": 76, "duration": 6, "velocity": 74}, {"time": 641, "pitch": 74, "duration": 6, "velocity": 65}, {"time": 647, "pitch": 73, "duration": 34, "velocity": 68}, {"time": 839, "pitch": 69, "duration": 45, "velocity": 74}, {"time": 1079, "pitch": 69, "duration": 18, "velocity": 64}, {"time": 1097, "pitch": 71, "duration": 6, "velocity": 80}, {"time": 1103, "pitch": 69, "duration": 24, "velocity": 70}, {"time": 1145, "pitch": 74, "duration": 5, "velocity": 74}, {"time": 1151, "pitch": 76, "duration": 21, "velocity": 80}, {"time": 1175, "pitch": 73, "duration": 24, "velocity": 67}, {"time": 1199, "pitch": 76, "duration": 17, "velocity": 93}, {"time": 1217, "pitch": 73, "duration": 6, "velocity": 55}, {"time": 1223, "pitch": 71, "duration": 68, "velocity": 74}, {"time": 1295, "pitch": 76, "duration": 44, "velocity": 83}, {"time": 1343, "pitch": 73, "duration": 36, "velocity": 68}, {"time": 1379, "pitch": 71, "duration": 7, "velocity": 80}, {"time": 1385, "pitch": 69, "duration": 7, "velocity": 74}, {"time": 1391, "pitch": 74, "duration": 25, "velocity": 72}, {"time": 1439, "pitch": 73, "duration": 18, "velocity": 74}, {"time": 1457, "pitch": 73, "duration": 6, "velocity": 74}, {"time": 1463, "pitch": 74, "duration": 11, "velocity": 80}, {"time": 1475, "pitch": 76, "duration": 12, "velocity": 102}, {"time": 1487, "pitch": 78, "duration": 27, "velocity": 68}, {"time": 1523, "pitch": 78, "duration": 11, "velocity": 68}, {"time": 1535, "pitch": 76, "duration": 23, "velocity": 83}, {"time": 1559, "pitch": 73, "duration": 20, "velocity": 67}, {"time": 1638, "pitch": 69, "duration": 2, "velocity": 54}, {"time": 1640, "pitch": 73, "duration": 2, "velocity": 93}, {"time": 1643, "pitch": 69, "duration": 1, "velocity": 74}, {"time": 1643, "pitch": 73, "duration": 3, "velocity": 83}, {"time": 1647, "pitch": 68, "duration": 1, "velocity": 66}, {"time": 1648, "pitch": 71, "duration": 2, "velocity": 74}, {"time": 1651, "pitch": 68, "duration": 2, "velocity": 69}, {"time": 1652, "pitch": 71, "duration": 2, "velocity": 72}, {"time": 1655, "pitch": 68, "duration": 8, "velocity": 74}, {"time": 1656, "pitch": 71, "duration": 11, "velocity": 93}, {"time": 1677, "pitch": 64, "duration": 2, "velocity": 80}, {"time": 1679, "pitch": 68, "duration": 4, "velocity": 87}, {"time": 1683, "pitch": 69, "duration": 4, "velocity": 90}, {"time": 1687, "pitch": 71, "duration": 11, "velocity": 93}, {"time": 1703, "pitch": 66, "duration": 4, "velocity": 102}, {"time": 1707, "pitch": 64, "duration": 4, "velocity": 102}, {"time": 1712, "pitch": 61, "duration": 3, "velocity": 87}, {"time": 1715, "pitch": 59, "duration": 15, "velocity": 93}, {"time": 1741, "pitch": 64, "duration": 2, "velocity": 66}, {"time": 1743, "pitch": 69, "duration": 4, "velocity": 102}, {"time": 1747, "pitch": 64, "duration": 2, "velocity": 69}, {"time": 1749, "pitch": 69, "duration": 2, "velocity": 68}, {"time": 1751, "pitch": 64, "duration": 3, "velocity": 87}, {"time": 1755, "pitch": 64, "duration": 9, "velocity": 95}, {"time": 1772, "pitch": 76, "duration": 1, "velocity": 74}, {"time": 1773, "pitch": 74, "duration": 2, "velocity": 95}, {"time": 1775, "pitch": 73, "duration": 12, "velocity": 110}, {"time": 1796, "pitch": 64, "duration": 4, "velocity": 80}, {"time": 1799, "pitch": 69, "duration": 3, "velocity": 103}, {"time": 1802, "pitch": 71, "duration": 9, "velocity": 105}, {"time": 1811, "pitch": 64, "duration": 12, "velocity": 93}, {"time": 1829, "pitch": 76, "duration": 2, "velocity": 93}, {"time": 1831, "pitch": 78, "duration": 1, "velocity": 83}, {"time": 1832, "pitch": 76, "duration": 13, "velocity": 103}, {"time": 1846, "pitch": 69, "duration": 1, "velocity": 90}, {"time": 1848, "pitch": 71, "duration": 9, "velocity": 102}, {"time": 1866, "pitch": 64, "duration": 1, "velocity": 93}, {"time": 1868, "pitch": 66, "duration": 1, "velocity": 83}, {"time": 1869, "pitch": 64, "duration": 16, "velocity": 93}, {"time": 1886, "pitch": 71, "duration": 4, "velocity": 93}, {"time": 1892, "pitch": 64, "duration": 3, "velocity": 80}, {"time": 1895, "pitch": 62, "duration": 24, "velocity": 87}, {"time": 1928, "pitch": 71, "duration": 2, "velocity": 83}, {"time": 1930, "pitch": 73, "duration": 1, "velocity": 80}, {"time": 1931, "pitch": 71, "duration": 25, "velocity": 87}, {"time": 1967, "pitch": 64, "duration": 22, "velocity": 85}, {"time": 1967, "pitch": 68, "duration": 22, "velocity": 87}, {"time": 1991, "pitch": 64, "duration": 10, "velocity": 80}, {"time": 1991, "pitch": 69, "duration": 10, "velocity": 87}, {"time": 2003, "pitch": 68, "duration": 12, "velocity": 87}, {"time": 2003, "pitch": 71, "duration": 13, "velocity": 87}, {"time": 2015, "pitch": 69, "duration": 23, "velocity": 80}, {"time": 2015, "pitch": 73, "duration": 23, "velocity": 85}, {"time": 2039, "pitch": 81, "duration": 22, "velocity": 80}, {"time": 2039, "pitch": 76, "duration": 22, "velocity": 71}, {"time": 2081, "pitch": 76, "duration": 6, "velocity": 102}, {"time": 2087, "pitch": 81, "duration": 6, "velocity": 93}, {"time": 2092, "pitch": 80, "duration": 6, "velocity": 102}, {"time": 2098, "pitch": 76, "duration": 7, "velocity": 93}, {"time": 2105, "pitch": 73, "duration": 6, "velocity": 102}, {"time": 2111, "pitch": 78, "duration": 24, "velocity": 102}, {"time": 2183, "pitch": 69, "duration": 11, "velocity": 80}, {"time": 2183, "pitch": 74, "duration": 11, "velocity": 87}, {"time": 2195, "pitch": 73, "duration": 10, "velocity": 74}, {"time": 2195, "pitch": 76, "duration": 10, "velocity": 95}, {"time": 2207, "pitch": 74, "duration": 48, "velocity": 66}, {"time": 2207, "pitch": 78, "duration": 48, "velocity": 71}, {"time": 2279, "pitch": 75, "duration": 21, "velocity": 64}, {"time": 2279, "pitch": 78, "duration": 21, "velocity": 68}, {"time": 2303, "pitch": 71, "duration": 46, "velocity": 69}, {"time": 2303, "pitch": 76, "duration": 46, "velocity": 83}, {"time": 2363, "pitch": 69, "duration": 2, "velocity": 70}, {"time": 2363, "pitch": 73, "duration": 2, "velocity": 83}, {"time": 2366, "pitch": 69, "duration": 7, "velocity": 74}, {"time": 2366, "pitch": 73, "duration": 7, "velocity": 80}, {"time": 2375, "pitch": 71, "duration": 2, "velocity": 80}, {"time": 2375, "pitch": 74, "duration": 2, "velocity": 74}, {"time": 2378, "pitch": 71, "duration": 8, "velocity": 74}, {"time": 2378, "pitch": 74, "duration": 7, "velocity": 80}, {"time": 2387, "pitch": 73, "duration": 2, "velocity": 69}, {"time": 2387, "pitch": 76, "duration": 2, "velocity": 93}, {"time": 2390, "pitch": 73, "duration": 9, "velocity": 71}, {"time": 2390, "pitch": 76, "duration": 9, "velocity": 87}, {"time": 2399, "pitch": 69, "duration": 23, "velocity": 80}, {"time": 2399, "pitch": 73, "duration": 23, "velocity": 85}, {"time": 2423, "pitch": 81, "duration": 22, "velocity": 80}, {"time": 2423, "pitch": 76, "duration": 22, "velocity": 71}, {"time": 2465, "pitch": 76, "duration": 6, "velocity": 102}, {"time": 2471, "pitch": 81, "duration": 6, "velocity": 93}, {"time": 2476, "pitch": 80, "duration": 6, "velocity": 102}, {"time": 2482, "pitch": 76, "duration": 7, "velocity": 93}, {"time": 2489, "pitch": 73, "duration": 6, "velocity": 102}, {"time": 2495, "pitch": 78, "duration": 24, "velocity": 102}, {"time": 2567, "pitch": 69, "duration": 11, "velocity": 80}, {"time": 2567, "pitch": 74, "duration": 11, "velocity": 87}, {"time": 2579, "pitch": 73, "duration": 10, "velocity": 74}, {"time": 2579, "pitch": 76, "duration": 10, "velocity": 95}, {"time": 2591, "pitch": 74, "duration": 48, "velocity": 66}, {"time": 2591, "pitch": 78, "duration": 48, "velocity": 71}, {"time": 2663, "pitch": 75, "duration": 21, "velocity": 64}, {"time": 2663, "pitch": 78, "duration": 21, "velocity": 68}, {"time": 2687, "pitch": 71, "duration": 46, "velocity": 69}, {"time": 2687, "pitch": 76, "duration": 46, "velocity": 83}]}, {"program": 0, "is_drum": false, "name": "PIANO", "notes": [{"time": 47, "pitch": 45, "duration": 23, "velocity": 83}, {"time": 49, "pitch": 52, "duration": 20, "velocity": 63}, {"time": 51, "pitch": 57, "duration": 2, "velocity": 66}, {"time": 52, "pitch": 59, "duration": 13, "velocity": 69}, {"time": 54, "pitch": 64, "duration": 11, "velocity": 39}, {"time": 55, "pitch": 57, "duration": 10, "velocity": 27}, {"time": 95, "pitch": 45, "duration": 19, "velocity": 74}, {"time": 98, "pitch": 52, "duration": 16, "velocity": 55}, {"time": 101, "pitch": 59, "duration": 3, "velocity": 70}, {"time": 104, "pitch": 61, "duration": 7, "velocity": 87}, {"time": 110, "pitch": 64, "duration": 8, "velocity": 83}, {"time": 113, "pitch": 57, "duration": 6, "velocity": 63}, {"time": 119, "pitch": 49, "duration": 16, "velocity": 69}, {"time": 122, "pitch": 56, "duration": 13, "velocity": 58}, {"time": 125, "pitch": 61, "duration": 4, "velocity": 65}, {"time": 128, "pitch": 64, "duration": 8, "velocity": 72}, {"time": 143, "pitch": 38, "duration": 22, "velocity": 80}, {"time": 143, "pitch": 57, "duration": 4, "velocity": 66}, {"time": 143, "pitch": 62, "duration": 6, "velocity": 68}, {"time": 146, "pitch": 45, "duration": 19, "velocity": 56}, {"time": 149, "pitch": 57, "duration": 4, "velocity": 65}, {"time": 152, "pitch": 62, "duration": 12, "velocity": 74}, {"time": 167, "pitch": 40, "duration": 17, "velocity": 69}, {"time": 167, "pitch": 64, "duration": 6, "velocity": 80}, {"time": 170, "pitch": 47, "duration": 14, "velocity": 60}, {"time": 173, "pitch": 59, "duration": 4, "velocity": 64}, {"time": 176, "pitch": 64, "duration": 3, "velocity": 80}, {"time": 191, "pitch": 45, "duration": 16, "velocity": 83}, {"time": 191, "pitch": 64, "duration": 6, "velocity": 80}, {"time": 194, "pitch": 52, "duration": 13, "velocity": 66}, {"time": 197, "pitch": 57, "duration": 2, "velocity": 80}, {"time": 200, "pitch": 59, "duration": 6, "velocity": 87}, {"time": 206, "pitch": 61, "duration": 6, "velocity": 87}, {"time": 212, "pitch": 64, "duration": 9, "velocity": 93}, {"time": 215, "pitch": 37, "duration": 15, "velocity": 63}, {"time": 218, "pitch": 44, "duration": 12, "velocity": 67}, {"time": 221, "pitch": 61, "duration": 4, "velocity": 60}, {"time": 224, "pitch": 64, "duration": 4, "velocity": 87}, {"time": 239, "pitch": 38, "duration": 17, "velocity": 87}, {"time": 239, "pitch": 66, "duration": 7, "velocity": 64}, {"time": 242, "pitch": 45, "duration": 15, "velocity": 56}, {"time": 245, "pitch": 57, "duration": 4, "velocity": 71}, {"time": 248, "pitch": 62, "duration": 6, "velocity": 93}, {"time": 254, "pitch": 64, "duration": 3, "velocity": 93}, {"time": 257, "pitch": 62, "duration": 4, "velocity": 74}, {"time": 260, "pitch": 57, "duration": 2, "velocity": 70}, {"time": 263, "pitch": 40, "duration": 16, "velocity": 80}, {"time": 263, "pitch": 64, "duration": 6, "velocity": 83}, {"time": 266, "pitch": 47, "duration": 14, "velocity": 58}, {"time": 269, "pitch": 59, "duration": 4, "velocity": 63}, {"time": 272, "pitch": 64, "duration": 8, "velocity": 95}, {"time": 287, "pitch": 42, "duration": 21, "velocity": 58}, {"time": 287, "pitch": 61, "duration": 7, "velocity": 69}, {"time": 290, "pitch": 49, "duration": 19, "velocity": 45}, {"time": 293, "pitch": 57, "duration": 4, "velocity": 83}, {"time": 296, "pitch": 66, "duration": 10, "velocity": 69}, {"time": 308, "pitch": 61, "duration": 10, "velocity": 93}, {"time": 311, "pitch": 42, "duration": 16, "velocity": 69}, {"time": 314, "pitch": 49, "duration": 12, "velocity": 45}, {"time": 317, "pitch": 57, "duration": 2, "velocity": 74}, {"time": 320, "pitch": 57, "duration": 4, "velocity": 87}, {"time": 320, "pitch": 61, "duration": 4, "velocity": 70}, {"time": 326, "pitch": 57, "duration": 2, "velocity": 61}, {"time": 326, "pitch": 66, "duration": 5, "velocity": 56}, {"time": 335, "pitch": 38, "duration": 17, "velocity": 87}, {"time": 335, "pitch": 57, "duration": 3, "velocity": 64}, {"time": 335, "pitch": 62, "duration": 6, "velocity": 68}, {"time": 338, "pitch": 45, "duration": 15, "velocity": 50}, {"time": 341, "pitch": 57, "duration": 4, "velocity": 68}, {"time": 344, "pitch": 62, "duration": 5, "velocity": 87}, {"time": 350, "pitch": 64, "duration": 4, "velocity": 83}, {"time": 353, "pitch": 62, "duration": 4, "velocity": 83}, {"time": 359, "pitch": 40, "duration": 19, "velocity": 72}, {"time": 359, "pitch": 64, "duration": 6, "velocity": 80}, {"time": 362, "pitch": 47, "duration": 16, "velocity": 51}, {"time": 365, "pitch": 59, "duration": 4, "velocity": 71}, {"time": 368, "pitch": 64, "duration": 2, "velocity": 90}, {"time": 374, "pitch": 66, "duration": 3, "velocity": 72}, {"time": 377, "pitch": 64, "duration": 7, "velocity": 87}, {"time": 383, "pitch": 45, "duration": 20, "velocity": 70}, {"time": 383, "pitch": 64, "duration": 1, "velocity": 87}, {"time": 386, "pitch": 52, "duration": 19, "velocity": 64}, {"time": 389, "pitch": 57, "duration": 4, "velocity": 80}, {"time": 392, "pitch": 59, "duration": 7, "velocity": 102}, {"time": 398, "pitch": 64, "duration": 4, "velocity": 102}, {"time": 401, "pitch": 57, "duration": 4, "velocity": 74}, {"time": 404, "pitch": 64, "duration": 7, "velocity": 102}, {"time": 407, "pitch": 46, "duration": 18, "velocity": 71}, {"time": 410, "pitch": 58, "duration": 4, "velocity": 68}, {"time": 413, "pitch": 61, "duration": 3, "velocity": 80}, {"time": 416, "pitch": 64, "duration": 9, "velocity": 87}, {"time": 431, "pitch": 47, "duration": 16, "velocity": 80}, {"time": 431, "pitch": 59, "duration": 5, "velocity": 69}, {"time": 431, "pitch": 62, "duration": 7, "velocity": 74}, {"time": 434, "pitch": 54, "duration": 12, "velocity": 63}, {"time": 437, "pitch": 57, "duration": 4, "velocity": 87}, {"time": 440, "pitch": 62, "duration": 7, "velocity": 72}, {"time": 446, "pitch": 66, "duration": 4, "velocity": 80}, {"time": 449, "pitch": 59, "duration": 4, "velocity": 56}, {"time": 455, "pitch": 40, "duration": 18, "velocity": 85}, {"time": 455, "pitch": 59, "duration": 4, "velocity": 69}, {"time": 455, "pitch": 64, "duration": 6, "velocity": 74}, {"time": 458, "pitch": 47, "duration": 15, "velocity": 63}, {"time": 461, "pitch": 59, "duration": 2, "velocity": 63}, {"time": 464, "pitch": 64, "duration": 5, "velocity": 80}, {"time": 470, "pitch": 66, "duration": 4, "velocity": 60}, {"time": 473, "pitch": 59, "duration": 6, "velocity": 70}, {"time": 479, "pitch": 40, "duration": 18, "velocity": 80}, {"time": 479, "pitch": 52, "duration": 4, "velocity": 66}, {"time": 479, "pitch": 59, "duration": 7, "velocity": 68}, {"time": 482, "pitch": 47, "duration": 15, "velocity": 63}, {"time": 485, "pitch": 52, "duration": 14, "velocity": 69}, {"time": 488, "pitch": 59, "duration": 12, "velocity": 37}, {"time": 488, "pitch": 64, "duration": 15, "velocity": 80}, {"time": 503, "pitch": 45, "duration": 22, "velocity": 80}, {"time": 506, "pitch": 52, "duration": 20, "velocity": 65}, {"time": 509, "pitch": 57, "duration": 4, "velocity": 65}, {"time": 512, "pitch": 59, "duration": 5, "velocity": 95}, {"time": 518, "pitch": 57, "duration": 2, "velocity": 80}, {"time": 518, "pitch": 61, "duration": 4, "velocity": 80}, {"time": 521, "pitch": 57, "duration": 4, "velocity": 71}, {"time": 524, "pitch": 61, "duration": 10, "velocity": 70}, {"time": 527, "pitch": 45, "duration": 17, "velocity": 80}, {"time": 530, "pitch": 52, "duration": 14, "velocity": 61}, {"time": 533, "pitch": 57, "duration": 3, "velocity": 61}, {"time": 536, "pitch": 64, "duration": 11, "velocity": 95}, {"time": 551, "pitch": 42, "duration": 22, "velocity": 70}, {"time": 551, "pitch": 61, "duration": 6, "velocity": 67}, {"time": 554, "pitch": 49, "duration": 20, "velocity": 56}, {"time": 557, "pitch": 57, "duration": 2, "velocity": 69}, {"time": 560, "pitch": 59, "duration": 4, "velocity": 80}, {"time": 566, "pitch": 61, "duration": 8, "velocity": 70}, {"time": 572, "pitch": 57, "duration": 7, "velocity": 72}, {"time": 575, "pitch": 42, "duration": 8, "velocity": 83}, {"time": 578, "pitch": 49, "duration": 10, "velocity": 56}, {"time": 581, "pitch": 57, "duration": 4, "velocity": 87}, {"time": 584, "pitch": 61, "duration": 15, "velocity": 93}, {"time": 587, "pitch": 40, "duration": 10, "velocity": 80}, {"time": 590, "pitch": 49, "duration": 5, "velocity": 64}, {"time": 593, "pitch": 52, "duration": 6, "velocity": 67}, {"time": 599, "pitch": 50, "duration": 19, "velocity": 71}, {"time": 599, "pitch": 62, "duration": 4, "velocity": 80}, {"time": 602, "pitch": 57, "duration": 4, "velocity": 71}, {"time": 605, "pitch": 62, "duration": 2, "velocity": 74}, {"time": 608, "pitch": 64, "duration": 4, "velocity": 87}, {"time": 614, "pitch": 62, "duration": 4, "velocity": 93}, {"time": 617, "pitch": 57, "duration": 3, "velocity": 74}, {"time": 623, "pitch": 40, "duration": 17, "velocity": 80}, {"time": 623, "pitch": 59, "duration": 4, "velocity": 64}, {"time": 623, "pitch": 64, "duration": 6, "velocity": 72}, {"time": 626, "pitch": 47, "duration": 14, "velocity": 58}, {"time": 629, "pitch": 59, "duration": 3, "velocity": 65}, {"time": 632, "pitch": 64, "duration": 7, "velocity": 87}, {"time": 641, "pitch": 59, "duration": 3, "velocity": 70}, {"time": 644, "pitch": 64, "duration": 9, "velocity": 83}, {"time": 647, "pitch": 45, "duration": 23, "velocity": 80}, {"time": 650, "pitch": 52, "duration": 19, "velocity": 66}, {"time": 653, "pitch": 59, "duration": 2, "velocity": 65}, {"time": 656, "pitch": 61, "duration": 4, "velocity": 93}, {"time": 662, "pitch": 64, "duration": 2, "velocity": 102}, {"time": 671, "pitch": 47, "duration": 8, "velocity": 68}, {"time": 671, "pitch": 59, "duration": 4, "velocity": 68}, {"time": 671, "pitch": 62, "duration": 6, "velocity": 80}, {"time": 674, "pitch": 54, "duration": 4, "velocity": 61}, {"time": 677, "pitch": 59, "duration": 4, "velocity": 93}, {"time": 680, "pitch": 62, "duration": 2, "velocity": 87}, {"time": 683, "pitch": 37, "duration": 6, "velocity": 74}, {"time": 683, "pitch": 64, "duration": 6, "velocity": 87}, {"time": 686, "pitch": 44, "duration": 4, "velocity": 47}, {"time": 689, "pitch": 61, "duration": 4, "velocity": 80}, {"time": 692, "pitch": 64, "duration": 3, "velocity": 74}, {"time": 695, "pitch": 38, "duration": 23, "velocity": 87}, {"time": 695, "pitch": 62, "duration": 6, "velocity": 67}, {"time": 698, "pitch": 45, "duration": 19, "velocity": 59}, {"time": 701, "pitch": 57, "duration": 2, "velocity": 83}, {"time": 704, "pitch": 62, "duration": 3, "velocity": 93}, {"time": 710, "pitch": 57, "duration": 9, "velocity": 74}, {"time": 710, "pitch": 66, "duration": 16, "velocity": 59}, {"time": 719, "pitch": 38, "duration": 16, "velocity": 87}, {"time": 722, "pitch": 45, "duration": 13, "velocity": 61}, {"time": 725, "pitch": 57, "duration": 2, "velocity": 93}, {"time": 728, "pitch": 62, "duration": 2, "velocity": 93}, {"time": 734, "pitch": 57, "duration": 3, "velocity": 69}, {"time": 734, "pitch": 64, "duration": 3, "velocity": 69}, {"time": 743, "pitch": 45, "duration": 17, "velocity": 93}, {"time": 746, "pitch": 52, "duration": 14, "velocity": 68}, {"time": 749, "pitch": 57, "duration": 7, "velocity": 71}, {"time": 752, "pitch": 61, "duration": 4, "velocity": 69}, {"time": 758, "pitch": 57, "duration": 2, "velocity": 74}, {"time": 758, "pitch": 61, "duration": 2, "velocity": 70}, {"time": 758, "pitch": 64, "duration": 2, "velocity": 90}, {"time": 767, "pitch": 39, "duration": 16, "velocity": 60}, {"time": 767, "pitch": 63, "duration": 21, "velocity": 59}, {"time": 767, "pitch": 66, "duration": 21, "velocity": 66}, {"time": 767, "pitch": 69, "duration": 22, "velocity": 80}, {"time": 791, "pitch": 40, "duration": 22, "velocity": 69}, {"time": 794, "pitch": 47, "duration": 19, "velocity": 68}, {"time": 797, "pitch": 52, "duration": 4, "velocity": 68}, {"time": 800, "pitch": 57, "duration": 4, "velocity": 87}, {"time": 806, "pitch": 59, "duration": 3, "velocity": 80}, {"time": 809, "pitch": 52, "duration": 5, "velocity": 68}, {"time": 812, "pitch": 64, "duration": 20, "velocity": 102}, {"time": 815, "pitch": 40, "duration": 13, "velocity": 80}, {"time": 818, "pitch": 47, "duration": 11, "velocity": 58}, {"time": 821, "pitch": 52, "duration": 8, "velocity": 63}, {"time": 824, "pitch": 56, "duration": 6, "velocity": 52}, {"time": 839, "pitch": 45, "duration": 22, "velocity": 83}, {"time": 842, "pitch": 52, "duration": 19, "velocity": 63}, {"time": 845, "pitch": 57, "duration": 4, "velocity": 63}, {"time": 848, "pitch": 64, "duration": 8, "velocity": 93}, {"time": 857, "pitch": 59, "duration": 4, "velocity": 66}, {"time": 860, "pitch": 61, "duration": 10, "velocity": 61}, {"time": 863, "pitch": 45, "duration": 24, "velocity": 87}, {"time": 866, "pitch": 52, "duration": 21, "velocity": 68}, {"time": 869, "pitch": 57, "duration": 3, "velocity": 65}, {"time": 872, "pitch": 59, "duration": 7, "velocity": 74}, {"time": 881, "pitch": 57, "duration": 5, "velocity": 54}, {"time": 881, "pitch": 61, "duration": 5, "velocity": 37}, {"time": 887, "pitch": 45, "duration": 19, "velocity": 74}, {"time": 890, "pitch": 52, "duration": 16, "velocity": 55}, {"time": 893, "pitch": 59, "duration": 3, "velocity": 70}, {"time": 896, "pitch": 61, "duration": 7, "velocity": 87}, {"time": 902, "pitch": 64, "duration": 8, "velocity": 83}, {"time": 905, "pitch": 57, "duration": 6, "velocity": 63}, {"time": 911, "pitch": 49, "duration": 16, "velocity": 69}, {"time": 914, "pitch": 56, "duration": 13, "velocity": 58}, {"time": 917, "pitch": 61, "duration": 4, "velocity": 65}, {"time": 920, "pitch": 64, "duration": 8, "velocity": 72}, {"time": 935, "pitch": 38, "duration": 22, "velocity": 80}, {"time": 935, "pitch": 57, "duration": 4, "velocity": 66}, {"time": 935, "pitch": 62, "duration": 6, "velocity": 68}, {"time": 938, "pitch": 45, "duration": 19, "velocity": 56}, {"time": 941, "pitch": 57, "duration": 4, "velocity": 65}, {"time": 944, "pitch": 62, "duration": 12, "velocity": 74}, {"time": 959, "pitch": 40, "duration": 17, "velocity": 69}, {"time": 959, "pitch": 64, "duration": 6, "velocity": 80}, {"time": 962, "pitch": 47, "duration": 14, "velocity": 60}, {"time": 965, "pitch": 59, "duration": 4, "velocity": 64}, {"time": 968, "pitch": 64, "duration": 3, "velocity": 80}, {"time": 983, "pitch": 45, "duration": 16, "velocity": 83}, {"time": 983, "pitch": 64, "duration": 6, "velocity": 80}, {"time": 986, "pitch": 52, "duration": 13, "velocity": 66}, {"time": 989, "pitch": 57, "duration": 2, "velocity": 80}, {"time": 992, "pitch": 59, "duration": 6, "velocity": 87}, {"time": 998, "pitch": 61, "duration": 6, "velocity": 87}, {"time": 1004, "pitch": 64, "duration": 9, "velocity": 93}, {"time": 1007, "pitch": 37, "duration": 15, "velocity": 63}, {"time": 1010, "pitch": 44, "duration": 12, "velocity": 67}, {"time": 1013, "pitch": 61, "duration": 4, "velocity": 60}, {"time": 1016, "pitch": 64, "duration": 4, "velocity": 87}, {"time": 1031, "pitch": 38, "duration": 17, "velocity": 87}, {"time": 1031, "pitch": 66, "duration": 7, "velocity": 64}, {"time": 1034, "pitch": 45, "duration": 15, "velocity": 56}, {"time": 1037, "pitch": 57, "duration": 4, "velocity": 71}, {"time": 1040, "pitch": 62, "duration": 6, "velocity": 93}, {"time": 1046, "pitch": 64, "duration": 3, "velocity": 93}, {"time": 1049, "pitch": 62, "duration": 4, "velocity": 74}, {"time": 1052, "pitch": 57, "duration": 2, "velocity": 70}, {"time": 1055, "pitch": 40, "duration": 16, "velocity": 80}, {"time": 1055, "pitch": 64, "duration": 6, "velocity": 83}, {"time": 1058, "pitch": 47, "duration": 14, "velocity": 58}, {"time": 1061, "pitch": 59, "duration": 4, "velocity": 63}, {"time": 1064, "pitch": 64, "duration": 8, "velocity": 95}, {"time": 1079, "pitch": 42, "duration": 21, "velocity": 58}, {"time": 1079, "pitch": 61, "duration": 7, "velocity": 69}, {"time": 1082, "pitch": 49, "duration": 19, "velocity": 45}, {"time": 1085, "pitch": 57, "duration": 4, "velocity": 83}, {"time": 1088, "pitch": 66, "duration": 10, "velocity": 69}, {"time": 1100, "pitch": 61, "duration": 10, "velocity": 93}, {"time": 1103, "pitch": 42, "duration": 16, "velocity": 69}, {"time": 1106, "pitch": 49, "duration": 12, "velocity": 45}, {"time": 1109, "pitch": 57, "duration": 2, "velocity": 74}, {"time": 1112, "pitch": 57, "duration": 4, "velocity": 87}, {"time": 1112, "pitch": 61, "duration": 4, "velocity": 70}, {"time": 1118, "pitch": 57, "duration": 2, "velocity": 61}, {"time": 1118, "pitch": 66, "duration": 5, "velocity": 56}, {"time": 1127, "pitch": 38, "duration": 17, "velocity": 87}, {"time": 1127, "pitch": 57, "duration": 3, "velocity": 64}, {"time": 1127, "pitch": 62, "duration": 6, "velocity": 68}, {"time": 1130, "pitch": 45, "duration": 15, "velocity": 50}, {"time": 1133, "pitch": 57, "duration": 4, "velocity": 68}, {"time": 1136, "pitch": 62, "duration": 5, "velocity": 87}, {"time": 1142, "pitch": 64, "duration": 4, "velocity": 83}, {"time": 1145, "pitch": 62, "duration": 4, "velocity": 83}, {"time": 1151, "pitch": 40, "duration": 19, "velocity": 72}, {"time": 1151, "pitch": 64, "duration": 6, "velocity": 80}, {"time": 1154, "pitch": 47, "duration": 16, "velocity": 51}, {"time": 1157, "pitch": 59, "duration": 4, "velocity": 71}, {"time": 1160, "pitch": 64, "duration": 2, "velocity": 90}, {"time": 1166, "pitch": 66, "duration": 3, "velocity": 72}, {"time": 1169, "pitch": 64, "duration": 7, "velocity": 87}, {"time": 1175, "pitch": 45, "duration": 20, "velocity": 70}, {"time": 1175, "pitch": 64, "duration": 1, "velocity": 87}, {"time": 1178, "pitch": 52, "duration": 19, "velocity": 64}, {"time": 1181, "pitch": 57, "duration": 4, "velocity": 80}, {"time": 1184, "pitch": 59, "duration": 7, "velocity": 102}, {"time": 1190, "pitch": 64, "duration": 4, "velocity": 102}, {"time": 1193, "pitch": 57, "duration": 4, "velocity": 74}, {"time": 1196, "pitch": 64, "duration": 7, "velocity": 102}, {"time": 1199, "pitch": 46, "duration": 18, "velocity": 71}, {"time": 1202, "pitch": 58, "duration": 4, "velocity": 68}, {"time": 1205, "pitch": 61, "duration": 3, "velocity": 80}, {"time": 1208, "pitch": 64, "duration": 9, "velocity": 87}, {"time": 1223, "pitch": 47, "duration": 16, "velocity": 80}, {"time": 1223, "pitch": 59, "duration": 5, "velocity": 69}, {"time": 1223, "pitch": 62, "duration": 7, "velocity": 74}, {"time": 1226, "pitch": 54, "duration": 12, "velocity": 63}, {"time": 1229, "pitch": 57, "duration": 4, "velocity": 87}, {"time": 1232, "pitch": 62, "duration": 7, "velocity": 72}, {"time": 1238, "pitch": 66, "duration": 4, "velocity": 80}, {"time": 1241, "pitch": 59, "duration": 4, "velocity": 56}, {"time": 1247, "pitch": 40, "duration": 18, "velocity": 85}, {"time": 1247, "pitch": 59, "duration": 4, "velocity": 69}, {"time": 1247, "pitch": 64, "duration": 6, "velocity": 74}, {"time": 1250, "pitch": 47, "duration": 15, "velocity": 63}, {"time": 1253, "pitch": 59, "duration": 2, "velocity": 63}, {"time": 1256, "pitch": 64, "duration": 5, "velocity": 80}, {"time": 1262, "pitch": 66, "duration": 4, "velocity": 60}, {"time": 1265, "pitch": 59, "duration": 6, "velocity": 70}, {"time": 1271, "pitch": 40, "duration": 18, "velocity": 80}, {"time": 1271, "pitch": 52, "duration": 4, "velocity": 66}, {"time": 1271, "pitch": 59, "duration": 7, "velocity": 68}, {"time": 1274, "pitch": 47, "duration": 15, "velocity": 63}, {"time": 1277, "pitch": 52, "duration": 14, "velocity": 69}, {"time": 1280, "pitch": 59, "duration": 12, "velocity": 37}, {"time": 1280, "pitch": 64, "duration": 15, "velocity": 80}, {"time": 1295, "pitch": 45, "duration": 22, "velocity": 80}, {"time": 1298, "pitch": 52, "duration": 20, "velocity": 65}, {"time": 1301, "pitch": 57, "duration": 4, "velocity": 65}, {"time": 1304, "pitch": 59, "duration": 5, "velocity": 95}, {"time": 1310, "pitch": 57, "duration": 2, "velocity": 80}, {"time": 1310, "pitch": 61, "duration": 4, "velocity": 80}, {"time": 1313, "pitch": 57, "duration": 4, "velocity": 71}, {"time": 1316, "pitch": 61, "duration": 10, "velocity": 70}, {"time": 1319, "pitch": 45, "duration": 17, "velocity": 80}, {"time": 1322, "pitch": 52, "duration": 14, "velocity": 61}, {"time": 1325, "pitch": 57, "duration": 3, "velocity": 61}, {"time": 1328, "pitch": 64, "duration": 11, "velocity": 95}, {"time": 1343, "pitch": 42, "duration": 22, "velocity": 70}, {"time": 1343, "pitch": 61, "duration": 6, "velocity": 67}, {"time": 1346, "pitch": 49, "duration": 20, "velocity": 56}, {"time": 1349, "pitch": 57, "duration": 2, "velocity": 69}, {"time": 1352, "pitch": 59, "duration": 4, "velocity": 80}, {"time": 1358, "pitch": 61, "duration": 8, "velocity": 70}, {"time": 1364, "pitch": 57, "duration": 7, "velocity": 72}, {"time": 1367, "pitch": 42, "duration": 8, "velocity": 83}, {"time": 1370, "pitch": 49, "duration": 10, "velocity": 56}, {"time": 1373, "pitch": 57, "duration": 4, "velocity": 87}, {"time": 1376, "pitch": 61, "duration": 15, "velocity": 93}, {"time": 1379, "pitch": 40, "duration": 10, "velocity": 80}, {"time": 1382, "pitch": 49, "duration": 5, "velocity": 64}, {"time": 1385, "pitch": 52, "duration": 6, "velocity": 67}, {"time": 1391, "pitch": 50, "duration": 19, "velocity": 71}, {"time": 1391, "pitch": 62, "duration": 4, "velocity": 80}, {"time": 1394, "pitch": 57, "duration": 4, "velocity": 71}, {"time": 1397, "pitch": 62, "duration": 2, "velocity": 74}, {"time": 1400, "pitch": 64, "duration": 4, "velocity": 87}, {"time": 1406, "pitch": 62, "duration": 4, "velocity": 93}, {"time": 1409, "pitch": 57, "duration": 3, "velocity": 74}, {"time": 1415, "pitch": 40, "duration": 17, "velocity": 80}, {"time": 1415, "pitch": 59, "duration": 4, "velocity": 64}, {"time": 1415, "pitch": 64, "duration": 6, "velocity": 72}, {"time": 1418, "pitch": 47, "duration": 14, "velocity": 58}, {"time": 1421, "pitch": 59, "duration": 3, "velocity": 65}, {"time": 1424, "pitch": 64, "duration": 7, "velocity": 87}, {"time": 1433, "pitch": 59, "duration": 3, "velocity": 70}, {"time": 1436, "pitch": 64, "duration": 9, "velocity": 83}, {"time": 1439, "pitch": 45, "duration": 23, "velocity": 80}, {"time": 1442, "pitch": 52, "duration": 19, "velocity": 66}, {"time": 1445, "pitch": 59, "duration": 2, "velocity": 65}, {"time": 1448, "pitch": 61, "duration": 4, "velocity": 93}, {"time": 1454, "pitch": 64, "duration": 2, "velocity": 102}, {"time": 1463, "pitch": 47, "duration": 8, "velocity": 68}, {"time": 1463, "pitch": 59, "duration": 4, "velocity": 68}, {"time": 1463, "pitch": 62, "duration": 6, "velocity": 80}, {"time": 1466, "pitch": 54, "duration": 4, "velocity": 61}, {"time": 1469, "pitch": 59, "duration": 4, "velocity": 93}, {"time": 1472, "pitch": 62, "duration": 2, "velocity": 87}, {"time": 1475, "pitch": 37, "duration": 6, "velocity": 74}, {"time": 1475, "pitch": 64, "duration": 6, "velocity": 87}, {"time": 1478, "pitch": 44, "duration": 4, "velocity": 47}, {"time": 1481, "pitch": 61, "duration": 4, "velocity": 80}, {"time": 1484, "pitch": 64, "duration": 3, "velocity": 74}, {"time": 1487, "pitch": 38, "duration": 23, "velocity": 87}, {"time": 1487, "pitch": 62, "duration": 6, "velocity": 67}, {"time": 1490, "pitch": 45, "duration": 19, "velocity": 59}, {"time": 1493, "pitch": 57, "duration": 2, "velocity": 83}, {"time": 1496, "pitch": 62, "duration": 3, "velocity": 93}, {"time": 1502, "pitch": 57, "duration": 9, "velocity": 74}, {"time": 1502, "pitch": 66, "duration": 16, "velocity": 59}, {"time": 1511, "pitch": 38, "duration": 16, "velocity": 87}, {"time": 1514, "pitch": 45, "duration": 13, "velocity": 61}, {"time": 1517, "pitch": 57, "duration": 2, "velocity": 93}, {"time": 1520, "pitch": 62, "duration": 2, "velocity": 93}, {"time": 1526, "pitch": 57, "duration": 3, "velocity": 69}, {"time": 1526, "pitch": 64, "duration": 3, "velocity": 69}, {"time": 1535, "pitch": 45, "duration": 17, "velocity": 93}, {"time": 1538, "pitch": 52, "duration": 14, "velocity": 68}, {"time": 1541, "pitch": 57, "duration": 7, "velocity": 71}, {"time": 1544, "pitch": 61, "duration": 4, "velocity": 69}, {"time": 1550, "pitch": 57, "duration": 2, "velocity": 74}, {"time": 1550, "pitch": 61, "duration": 2, "velocity": 70}, {"time": 1550, "pitch": 64, "duration": 2, "velocity": 90}, {"time": 1559, "pitch": 39, "duration": 16, "velocity": 60}, {"time": 1559, "pitch": 63, "duration": 21, "velocity": 59}, {"time": 1559, "pitch": 66, "duration": 21, "velocity": 66}, {"time": 1559, "pitch": 69, "duration": 22, "velocity": 80}, {"time": 1583, "pitch": 40, "duration": 22, "velocity": 69}, {"time": 1586, "pitch": 47, "duration": 19, "velocity": 68}, {"time": 1589, "pitch": 52, "duration": 4, "velocity": 68}, {"time": 1592, "pitch": 57, "duration": 4, "velocity": 87}, {"time": 1598, "pitch": 59, "duration": 3, "velocity": 80}, {"time": 1601, "pitch": 52, "duration": 5, "velocity": 68}, {"time": 1604, "pitch": 64, "duration": 20, "velocity": 102}, {"time": 1607, "pitch": 40, "duration": 13, "velocity": 80}, {"time": 1610, "pitch": 47, "duration": 11, "velocity": 58}, {"time": 1613, "pitch": 52, "duration": 8, "velocity": 63}, {"time": 1616, "pitch": 56, "duration": 6, "velocity": 52}, {"time": 1631, "pitch": 45, "duration": 18, "velocity": 58}, {"time": 1634, "pitch": 52, "duration": 16, "velocity": 80}, {"time": 1637, "pitch": 57, "duration": 4, "velocity": 69}, {"time": 1640, "pitch": 64, "duration": 15, "velocity": 80}, {"time": 1655, "pitch": 47, "duration": 18, "velocity": 66}, {"time": 1658, "pitch": 54, "duration": 8, "velocity": 41}, {"time": 1661, "pitch": 59, "duration": 4, "velocity": 55}, {"time": 1664, "pitch": 66, "duration": 10, "velocity": 65}, {"time": 1670, "pitch": 54, "duration": 3, "velocity": 61}, {"time": 1673, "pitch": 62, "duration": 3, "velocity": 69}, {"time": 1676, "pitch": 59, "duration": 5, "velocity": 61}, {"time": 1679, "pitch": 37, "duration": 16, "velocity": 54}, {"time": 1682, "pitch": 44, "duration": 14, "velocity": 44}, {"time": 1685, "pitch": 61, "duration": 4, "velocity": 60}, {"time": 1688, "pitch": 64, "duration": 10, "velocity": 61}, {"time": 1697, "pitch": 61, "duration": 3, "velocity": 68}, {"time": 1700, "pitch": 57, "duration": 2, "velocity": 55}, {"time": 1703, "pitch": 38, "duration": 19, "velocity": 83}, {"time": 1703, "pitch": 57, "duration": 3, "velocity": 68}, {"time": 1703, "pitch": 62, "duration": 5, "velocity": 67}, {"time": 1706, "pitch": 45, "duration": 16, "velocity": 54}, {"time": 1709, "pitch": 57, "duration": 5, "velocity": 71}, {"time": 1712, "pitch": 62, "duration": 9, "velocity": 36}, {"time": 1721, "pitch": 64, "duration": 4, "velocity": 80}, {"time": 1724, "pitch": 62, "duration": 3, "velocity": 74}, {"time": 1727, "pitch": 45, "duration": 22, "velocity": 65}, {"time": 1727, "pitch": 61, "duration": 7, "velocity": 67}, {"time": 1730, "pitch": 52, "duration": 19, "velocity": 60}, {"time": 1733, "pitch": 57, "duration": 4, "velocity": 66}, {"time": 1736, "pitch": 59, "duration": 6, "velocity": 80}, {"time": 1742, "pitch": 61, "duration": 9, "velocity": 66}, {"time": 1751, "pitch": 47, "duration": 18, "velocity": 67}, {"time": 1757, "pitch": 54, "duration": 12, "velocity": 44}, {"time": 1760, "pitch": 59, "duration": 7, "velocity": 71}, {"time": 1766, "pitch": 62, "duration": 4, "velocity": 87}, {"time": 1775, "pitch": 49, "duration": 13, "velocity": 68}, {"time": 1775, "pitch": 64, "duration": 10, "velocity": 85}, {"time": 1781, "pitch": 56, "duration": 7, "velocity": 52}, {"time": 1784, "pitch": 61, "duration": 7, "velocity": 69}, {"time": 1790, "pitch": 64, "duration": 2, "velocity": 80}, {"time": 1799, "pitch": 38, "duration": 18, "velocity": 83}, {"time": 1799, "pitch": 57, "duration": 4, "velocity": 65}, {"time": 1799, "pitch": 62, "duration": 6, "velocity": 64}, {"time": 1802, "pitch": 45, "duration": 14, "velocity": 58}, {"time": 1805, "pitch": 57, "duration": 4, "velocity": 68}, {"time": 1808, "pitch": 62, "duration": 4, "velocity": 87}, {"time": 1814, "pitch": 57, "duration": 4, "velocity": 72}, {"time": 1814, "pitch": 64, "duration": 4, "velocity": 80}, {"time": 1823, "pitch": 45, "duration": 20, "velocity": 72}, {"time": 1823, "pitch": 61, "duration": 6, "velocity": 65}, {"time": 1826, "pitch": 52, "duration": 18, "velocity": 65}, {"time": 1829, "pitch": 57, "duration": 3, "velocity": 60}, {"time": 1832, "pitch": 59, "duration": 5, "velocity": 83}, {"time": 1838, "pitch": 61, "duration": 4, "velocity": 74}, {"time": 1847, "pitch": 47, "duration": 17, "velocity": 53}, {"time": 1847, "pitch": 59, "duration": 6, "velocity": 63}, {"time": 1847, "pitch": 62, "duration": 9, "velocity": 69}, {"time": 1853, "pitch": 54, "duration": 12, "velocity": 47}, {"time": 1856, "pitch": 59, "duration": 10, "velocity": 68}, {"time": 1871, "pitch": 49, "duration": 15, "velocity": 69}, {"time": 1871, "pitch": 64, "duration": 10, "velocity": 74}, {"time": 1877, "pitch": 56, "duration": 9, "velocity": 51}, {"time": 1880, "pitch": 61, "duration": 7, "velocity": 71}, {"time": 1886, "pitch": 64, "duration": 2, "velocity": 87}, {"time": 1895, "pitch": 50, "duration": 16, "velocity": 67}, {"time": 1895, "pitch": 57, "duration": 4, "velocity": 66}, {"time": 1895, "pitch": 62, "duration": 8, "velocity": 72}, {"time": 1901, "pitch": 57, "duration": 8, "velocity": 68}, {"time": 1904, "pitch": 62, "duration": 6, "velocity": 74}, {"time": 1910, "pitch": 64, "duration": 4, "velocity": 74}, {"time": 1913, "pitch": 62, "duration": 7, "velocity": 85}, {"time": 1916, "pitch": 57, "duration": 6, "velocity": 65}, {"time": 1919, "pitch": 43, "duration": 22, "velocity": 80}, {"time": 1922, "pitch": 50, "duration": 19, "velocity": 64}, {"time": 1925, "pitch": 55, "duration": 4, "velocity": 60}, {"time": 1928, "pitch": 62, "duration": 6, "velocity": 74}, {"time": 1934, "pitch": 64, "duration": 8, "velocity": 74}, {"time": 1937, "pitch": 55, "duration": 3, "velocity": 56}, {"time": 1943, "pitch": 40, "duration": 22, "velocity": 85}, {"time": 1949, "pitch": 47, "duration": 17, "velocity": 61}, {"time": 1952, "pitch": 52, "duration": 7, "velocity": 80}, {"time": 1958, "pitch": 59, "duration": 5, "velocity": 69}, {"time": 1961, "pitch": 52, "duration": 10, "velocity": 74}, {"time": 1964, "pitch": 64, "duration": 12, "velocity": 93}, {"time": 1967, "pitch": 40, "duration": 22, "velocity": 90}, {"time": 1970, "pitch": 47, "duration": 19, "velocity": 63}, {"time": 1973, "pitch": 52, "duration": 4, "velocity": 72}, {"time": 1976, "pitch": 59, "duration": 7, "velocity": 80}, {"time": 1982, "pitch": 64, "duration": 9, "velocity": 93}, {"time": 1985, "pitch": 52, "duration": 6, "velocity": 71}, {"time": 1988, "pitch": 59, "duration": 3, "velocity": 66}, {"time": 1991, "pitch": 42, "duration": 10, "velocity": 80}, {"time": 1997, "pitch": 54, "duration": 4, "velocity": 71}, {"time": 2003, "pitch": 44, "duration": 11, "velocity": 87}, {"time": 2003, "pitch": 52, "duration": 4, "velocity": 71}, {"time": 2003, "pitch": 56, "duration": 7, "velocity": 69}, {"time": 2009, "pitch": 52, "duration": 5, "velocity": 90}, {"time": 2015, "pitch": 45, "duration": 22, "velocity": 80}, {"time": 2018, "pitch": 52, "duration": 20, "velocity": 65}, {"time": 2021, "pitch": 57, "duration": 4, "velocity": 65}, {"time": 2024, "pitch": 59, "duration": 5, "velocity": 95}, {"time": 2030, "pitch": 57, "duration": 2, "velocity": 80}, {"time": 2030, "pitch": 61, "duration": 4, "velocity": 80}, {"time": 2033, "pitch": 57, "duration": 4, "velocity": 71}, {"time": 2036, "pitch": 61, "duration": 10, "velocity": 70}, {"time": 2039, "pitch": 45, "duration": 17, "velocity": 80}, {"time": 2042, "pitch": 52, "duration": 14, "velocity": 61}, {"time": 2045, "pitch": 57, "duration": 3, "velocity": 61}, {"time": 2048, "pitch": 64, "duration": 11, "velocity": 95}, {"time": 2063, "pitch": 42, "duration": 22, "velocity": 70}, {"time": 2063, "pitch": 61, "duration": 6, "velocity": 67}, {"time": 2066, "pitch": 49, "duration": 20, "velocity": 56}, {"time": 2069, "pitch": 57, "duration": 2, "velocity": 69}, {"time": 2072, "pitch": 59, "duration": 4, "velocity": 80}, {"time": 2078, "pitch": 61, "duration": 8, "velocity": 70}, {"time": 2084, "pitch": 57, "duration": 7, "velocity": 72}, {"time": 2087, "pitch": 42, "duration": 8, "velocity": 83}, {"time": 2090, "pitch": 49, "duration": 10, "velocity": 56}, {"time": 2093, "pitch": 57, "duration": 4, "velocity": 87}, {"time": 2096, "pitch": 61, "duration": 15, "velocity": 93}, {"time": 2099, "pitch": 40, "duration": 10, "velocity": 80}, {"time": 2102, "pitch": 49, "duration": 5, "velocity": 64}, {"time": 2105, "pitch": 52, "duration": 6, "velocity": 67}, {"time": 2111, "pitch": 50, "duration": 19, "velocity": 71}, {"time": 2111, "pitch": 62, "duration": 4, "velocity": 80}, {"time": 2114, "pitch": 57, "duration": 4, "velocity": 71}, {"time": 2117, "pitch": 62, "duration": 2, "velocity": 74}, {"time": 2120, "pitch": 64, "duration": 4, "velocity": 87}, {"time": 2126, "pitch": 62, "duration": 4, "velocity": 93}, {"time": 2129, "pitch": 57, "duration": 3, "velocity": 74}, {"time": 2135, "pitch": 40, "duration": 17, "velocity": 80}, {"time": 2135, "pitch": 59, "duration": 4, "velocity": 64}, {"time": 2135, "pitch": 64, "duration": 6, "velocity": 72}, {"time": 2138, "pitch": 47, "duration": 14, "velocity": 58}, {"time": 2141, "pitch": 59, "duration": 3, "velocity": 65}, {"time": 2144, "pitch": 64, "duration": 7, "velocity": 87}, {"time": 2153, "pitch": 59, "duration": 3, "velocity": 70}, {"time": 2156, "pitch": 64, "duration": 9, "velocity": 83}, {"time": 2159, "pitch": 45, "duration": 23, "velocity": 80}, {"time": 2162, "pitch": 52, "duration": 19, "velocity": 66}, {"time": 2165, "pitch": 59, "duration": 2, "velocity": 65}, {"time": 2168, "pitch": 61, "duration": 4, "velocity": 93}, {"time": 2174, "pitch": 64, "duration": 2, "velocity": 102}, {"time": 2183, "pitch": 47, "duration": 8, "velocity": 68}, {"time": 2183, "pitch": 59, "duration": 4, "velocity": 68}, {"time": 2183, "pitch": 62, "duration": 6, "velocity": 80}, {"time": 2186, "pitch": 54, "duration": 4, "velocity": 61}, {"time": 2189, "pitch": 59, "duration": 4, "velocity": 93}, {"time": 2192, "pitch": 62, "duration": 2, "velocity": 87}, {"time": 2195, "pitch": 37, "duration": 6, "velocity": 74}, {"time": 2195, "pitch": 64, "duration": 6, "velocity": 87}, {"time": 2198, "pitch": 44, "duration": 4, "velocity": 47}, {"time": 2201, "pitch": 61, "duration": 4, "velocity": 80}, {"time": 2204, "pitch": 64, "duration": 3, "velocity": 74}, {"time": 2207, "pitch": 38, "duration": 23, "velocity": 87}, {"time": 2207, "pitch": 62, "duration": 6, "velocity": 67}, {"time": 2210, "pitch": 45, "duration": 19, "velocity": 59}, {"time": 2213, "pitch": 57, "duration": 2, "velocity": 83}, {"time": 2216, "pitch": 62, "duration": 3, "velocity": 93}, {"time": 2222, "pitch": 57, "duration": 9, "velocity": 74}, {"time": 2222, "pitch": 66, "duration": 16, "velocity": 59}, {"time": 2231, "pitch": 38, "duration": 16, "velocity": 87}, {"time": 2234, "pitch": 45, "duration": 13, "velocity": 61}, {"time": 2237, "pitch": 57, "duration": 2, "velocity": 93}, {"time": 2240, "pitch": 62, "duration": 2, "velocity": 93}, {"time": 2246, "pitch": 57, "duration": 3, "velocity": 69}, {"time": 2246, "pitch": 64, "duration": 3, "velocity": 69}, {"time": 2255, "pitch": 45, "duration": 17, "velocity": 93}, {"time": 2258, "pitch": 52, "duration": 14, "velocity": 68}, {"time": 2261, "pitch": 57, "duration": 7, "velocity": 71}, {"time": 2264, "pitch": 61, "duration": 4, "velocity": 69}, {"time": 2270, "pitch": 57, "duration": 2, "velocity": 74}, {"time": 2270, "pitch": 61, "duration": 2, "velocity": 70}, {"time": 2270, "pitch": 64, "duration": 2, "velocity": 90}, {"time": 2279, "pitch": 39, "duration": 16, "velocity": 60}, {"time": 2279, "pitch": 63, "duration": 21, "velocity": 59}, {"time": 2279, "pitch": 66, "duration": 21, "velocity": 66}, {"time": 2279, "pitch": 69, "duration": 22, "velocity": 80}, {"time": 2303, "pitch": 40, "duration": 22, "velocity": 69}, {"time": 2306, "pitch": 47, "duration": 19, "velocity": 68}, {"time": 2309, "pitch": 52, "duration": 4, "velocity": 68}, {"time": 2312, "pitch": 57, "duration": 4, "velocity": 87}, {"time": 2318, "pitch": 59, "duration": 3, "velocity": 80}, {"time": 2321, "pitch": 52, "duration": 5, "velocity": 68}, {"time": 2324, "pitch": 64, "duration": 20, "velocity": 102}, {"time": 2327, "pitch": 40, "duration": 13, "velocity": 80}, {"time": 2330, "pitch": 47, "duration": 11, "velocity": 58}, {"time": 2333, "pitch": 52, "duration": 8, "velocity": 63}, {"time": 2336, "pitch": 56, "duration": 6, "velocity": 52}, {"time": 2351, "pitch": 45, "duration": 21, "velocity": 85}, {"time": 2351, "pitch": 57, "duration": 7, "velocity": 70}, {"time": 2351, "pitch": 61, "duration": 9, "velocity": 72}, {"time": 2357, "pitch": 52, "duration": 11, "velocity": 68}, {"time": 2360, "pitch": 57, "duration": 4, "velocity": 87}, {"time": 2366, "pitch": 57, "duration": 3, "velocity": 93}, {"time": 2366, "pitch": 61, "duration": 6, "velocity": 103}, {"time": 2369, "pitch": 52, "duration": 4, "velocity": 59}, {"time": 2372, "pitch": 57, "duration": 2, "velocity": 87}, {"time": 2375, "pitch": 47, "duration": 2, "velocity": 72}, {"time": 2375, "pitch": 59, "duration": 1, "velocity": 87}, {"time": 2375, "pitch": 62, "duration": 1, "velocity": 93}, {"time": 2378, "pitch": 47, "duration": 5, "velocity": 85}, {"time": 2378, "pitch": 59, "duration": 5, "velocity": 80}, {"time": 2378, "pitch": 62, "duration": 5, "velocity": 87}, {"time": 2387, "pitch": 49, "duration": 2, "velocity": 83}, {"time": 2387, "pitch": 61, "duration": 2, "velocity": 69}, {"time": 2387, "pitch": 64, "duration": 2, "velocity": 83}, {"time": 2390, "pitch": 49, "duration": 3, "velocity": 74}, {"time": 2390, "pitch": 61, "duration": 3, "velocity": 83}, {"time": 2390, "pitch": 64, "duration": 3, "velocity": 93}, {"time": 2399, "pitch": 45, "duration": 22, "velocity": 80}, {"time": 2402, "pitch": 52, "duration": 20, "velocity": 65}, {"time": 2405, "pitch": 57, "duration": 4, "velocity": 65}, {"time": 2408, "pitch": 59, "duration": 5, "velocity": 95}, {"time": 2414, "pitch": 57, "duration": 2, "velocity": 80}, {"time": 2414, "pitch": 61, "duration": 4, "velocity": 80}, {"time": 2417, "pitch": 57, "duration": 4, "velocity": 71}, {"time": 2420, "pitch": 61, "duration": 10, "velocity": 70}, {"time": 2423, "pitch": 45, "duration": 17, "velocity": 80}, {"time": 2426, "pitch": 52, "duration": 14, "velocity": 61}, {"time": 2429, "pitch": 57, "duration": 3, "velocity": 61}, {"time": 2432, "pitch": 64, "duration": 11, "velocity": 95}, {"time": 2447, "pitch": 42, "duration": 22, "velocity": 70}, {"time": 2447, "pitch": 61, "duration": 6, "velocity": 67}, {"time": 2450, "pitch": 49, "duration": 20, "velocity": 56}, {"time": 2453, "pitch": 57, "duration": 2, "velocity": 69}, {"time": 2456, "pitch": 59, "duration": 4, "velocity": 80}, {"time": 2462, "pitch": 61, "duration": 8, "velocity": 70}, {"time": 2468, "pitch": 57, "duration": 7, "velocity": 72}, {"time": 2471, "pitch": 42, "duration": 8, "velocity": 83}, {"time": 2474, "pitch": 49, "duration": 10, "velocity": 56}, {"time": 2477, "pitch": 57, "duration": 4, "velocity": 87}, {"time": 2480, "pitch": 61, "duration": 15, "velocity": 93}, {"time": 2483, "pitch": 40, "duration": 10, "velocity": 80}, {"time": 2486, "pitch": 49, "duration": 5, "velocity": 64}, {"time": 2489, "pitch": 52, "duration": 6, "velocity": 67}, {"time": 2495, "pitch": 50, "duration": 19, "velocity": 71}, {"time": 2495, "pitch": 62, "duration": 4, "velocity": 80}, {"time": 2498, "pitch": 57, "duration": 4, "velocity": 71}, {"time": 2501, "pitch": 62, "duration": 2, "velocity": 74}, {"time": 2504, "pitch": 64, "duration": 4, "velocity": 87}, {"time": 2510, "pitch": 62, "duration": 4, "velocity": 93}, {"time": 2513, "pitch": 57, "duration": 3, "velocity": 74}, {"time": 2519, "pitch": 40, "duration": 17, "velocity": 80}, {"time": 2519, "pitch": 59, "duration": 4, "velocity": 64}, {"time": 2519, "pitch": 64, "duration": 6, "velocity": 72}, {"time": 2522, "pitch": 47, "duration": 14, "velocity": 58}, {"time": 2525, "pitch": 59, "duration": 3, "velocity": 65}, {"time": 2528, "pitch": 64, "duration": 7, "velocity": 87}, {"time": 2537, "pitch": 59, "duration": 3, "velocity": 70}, {"time": 2540, "pitch": 64, "duration": 9, "velocity": 83}, {"time": 2543, "pitch": 45, "duration": 23, "velocity": 80}, {"time": 2546, "pitch": 52, "duration": 19, "velocity": 66}, {"time": 2549, "pitch": 59, "duration": 2, "velocity": 65}, {"time": 2552, "pitch": 61, "duration": 4, "velocity": 93}, {"time": 2558, "pitch": 64, "duration": 2, "velocity": 102}, {"time": 2567, "pitch": 47, "duration": 8, "velocity": 68}, {"time": 2567, "pitch": 59, "duration": 4, "velocity": 68}, {"time": 2567, "pitch": 62, "duration": 6, "velocity": 80}, {"time": 2570, "pitch": 54, "duration": 4, "velocity": 61}, {"time": 2573, "pitch": 59, "duration": 4, "velocity": 93}, {"time": 2576, "pitch": 62, "duration": 2, "velocity": 87}, {"time": 2579, "pitch": 37, "duration": 6, "velocity": 74}, {"time": 2579, "pitch": 64, "duration": 6, "velocity": 87}, {"time": 2582, "pitch": 44, "duration": 4, "velocity": 47}, {"time": 2585, "pitch": 61, "duration": 4, "velocity": 80}, {"time": 2588, "pitch": 64, "duration": 3, "velocity": 74}, {"time": 2591, "pitch": 38, "duration": 23, "velocity": 87}, {"time": 2591, "pitch": 62, "duration": 6, "velocity": 67}, {"time": 2594, "pitch": 45, "duration": 19, "velocity": 59}, {"time": 2597, "pitch": 57, "duration": 2, "velocity": 83}, {"time": 2600, "pitch": 62, "duration": 3, "velocity": 93}, {"time": 2606, "pitch": 57, "duration": 9, "velocity": 74}, {"time": 2606, "pitch": 66, "duration": 16, "velocity": 59}, {"time": 2615, "pitch": 38, "duration": 16, "velocity": 87}, {"time": 2618, "pitch": 45, "duration": 13, "velocity": 61}, {"time": 2621, "pitch": 57, "duration": 2, "velocity": 93}, {"time": 2624, "pitch": 62, "duration": 2, "velocity": 93}, {"time": 2630, "pitch": 57, "duration": 3, "velocity": 69}, {"time": 2630, "pitch": 64, "duration": 3, "velocity": 69}, {"time": 2639, "pitch": 45, "duration": 17, "velocity": 93}, {"time": 2642, "pitch": 52, "duration": 14, "velocity": 68}, {"time": 2645, "pitch": 57, "duration": 7, "velocity": 71}, {"time": 2648, "pitch": 61, "duration": 4, "velocity": 69}, {"time": 2654, "pitch": 57, "duration": 2, "velocity": 74}, {"time": 2654, "pitch": 61, "duration": 2, "velocity": 70}, {"time": 2654, "pitch": 64, "duration": 2, "velocity": 90}, {"time": 2663, "pitch": 39, "duration": 16, "velocity": 60}, {"time": 2663, "pitch": 63, "duration": 21, "velocity": 59}, {"time": 2663, "pitch": 66, "duration": 21, "velocity": 66}, {"time": 2663, "pitch": 69, "duration": 22, "velocity": 80}, {"time": 2687, "pitch": 40, "duration": 22, "velocity": 69}, {"time": 2690, "pitch": 47, "duration": 19, "velocity": 68}, {"time": 2693, "pitch": 52, "duration": 4, "velocity": 68}, {"time": 2696, "pitch": 57, "duration": 4, "velocity": 87}, {"time": 2702, "pitch": 59, "duration": 3, "velocity": 80}, {"time": 2705, "pitch": 52, "duration": 5, "velocity": 68}, {"time": 2708, "pitch": 64, "duration": 20, "velocity": 102}, {"time": 2711, "pitch": 40, "duration": 13, "velocity": 80}, {"time": 2714, "pitch": 47, "duration": 11, "velocity": 58}, {"time": 2717, "pitch": 52, "duration": 8, "velocity": 63}, {"time": 2720, "pitch": 56, "duration": 6, "velocity": 52}, {"time": 2735, "pitch": 45, "duration": 40, "velocity": 87}, {"time": 2741, "pitch": 52, "duration": 33, "velocity": 55}, {"time": 2744, "pitch": 59, "duration": 4, "velocity": 68}, {"time": 2747, "pitch": 61, "duration": 4, "velocity": 87}, {"time": 2750, "pitch": 64, "duration": 4, "velocity": 83}, {"time": 2753, "pitch": 57, "duration": 24, "velocity": 66}, {"time": 2759, "pitch": 61, "duration": 17, "velocity": 39}, {"time": 2759, "pitch": 64, "duration": 18, "velocity": 55}, {"time": 2759, "pitch": 69, "duration": 17, "velocity": 68}, {"time": 2783, "pitch": 50, "duration": 43, "velocity": 87}, {"time": 2786, "pitch": 57, "duration": 39, "velocity": 60}, {"time": 2789, "pitch": 62, "duration": 3, "velocity": 64}, {"time": 2792, "pitch": 64, "duration": 4, "velocity": 93}, {"time": 2798, "pitch": 66, "duration": 5, "velocity": 87}, {"time": 2807, "pitch": 62, "duration": 5, "velocity": 65}, {"time": 2807, "pitch": 69, "duration": 5, "velocity": 80}, {"time": 2822, "pitch": 62, "duration": 2, "velocity": 69}, {"time": 2822, "pitch": 66, "duration": 8, "velocity": 71}, {"time": 2825, "pitch": 62, "duration": 7, "velocity": 71}, {"time": 2831, "pitch": 45, "duration": 15, "velocity": 80}, {"time": 2834, "pitch": 52, "duration": 13, "velocity": 55}, {"time": 2837, "pitch": 57, "duration": 4, "velocity": 61}, {"time": 2840, "pitch": 59, "duration": 6, "velocity": 85}, {"time": 2846, "pitch": 61, "duration": 1, "velocity": 83}, {"time": 2855, "pitch": 51, "duration": 23, "velocity": 65}, {"time": 2855, "pitch": 63, "duration": 24, "velocity": 55}, {"time": 2855, "pitch": 66, "duration": 24, "velocity": 54}, {"time": 2879, "pitch": 52, "duration": 21, "velocity": 80}, {"time": 2885, "pitch": 59, "duration": 16, "velocity": 54}, {"time": 2888, "pitch": 64, "duration": 7, "velocity": 64}, {"time": 2894, "pitch": 69, "duration": 4, "velocity": 80}, {"time": 2897, "pitch": 71, "duration": 4, "velocity": 74}, {"time": 2903, "pitch": 52, "duration": 7, "velocity": 66}, {"time": 2903, "pitch": 64, "duration": 37, "velocity": 66}, {"time": 2903, "pitch": 76, "duration": 37, "velocity": 72}, {"time": 2951, "pitch": 45, "duration": 22, "velocity": 68}, {"time": 2954, "pitch": 52, "duration": 19, "velocity": 49}, {"time": 2957, "pitch": 57, "duration": 5, "velocity": 64}, {"time": 2961, "pitch": 62, "duration": 4, "velocity": 56}, {"time": 2966, "pitch": 64, "duration": 3, "velocity": 68}, {"time": 2975, "pitch": 45, "duration": 21, "velocity": 74}, {"time": 2978, "pitch": 52, "duration": 18, "velocity": 50}, {"time": 2981, "pitch": 57, "duration": 3, "velocity": 59}, {"time": 2984, "pitch": 59, "duration": 4, "velocity": 69}, {"time": 2990, "pitch": 57, "duration": 2, "velocity": 66}, {"time": 2990, "pitch": 61, "duration": 2, "velocity": 59}, {"time": 2998, "pitch": 57, "duration": 7, "velocity": 34}, {"time": 2998, "pitch": 61, "duration": 5, "velocity": 49}, {"time": 2999, "pitch": 45, "duration": 24, "velocity": 68}, {"time": 3000, "pitch": 64, "duration": 5, "velocity": 34}, {"time": 3005, "pitch": 52, "duration": 17, "velocity": 41}, {"time": 3011, "pitch": 57, "duration": 25, "velocity": 72}, {"time": 3018, "pitch": 64, "duration": 19, "velocity": 83}, {"time": 3038, "pitch": 50, "duration": 10, "velocity": 49}, {"time": 3040, "pitch": 57, "duration": 5, "velocity": 63}, {"time": 3041, "pitch": 62, "duration": 10, "velocity": 63}, {"time": 3043, "pitch": 66, "duration": 9, "velocity": 37}, {"time": 3065, "pitch": 45, "duration": 42, "velocity": 68}, {"time": 3067, "pitch": 52, "duration": 40, "velocity": 60}, {"time": 3070, "pitch": 69, "duration": 3, "velocity": 63}, {"time": 3072, "pitch": 71, "duration": 2, "velocity": 63}, {"time": 3075, "pitch": 73, "duration": 4, "velocity": 61}, {"time": 3079, "pitch": 76, "duration": 2, "velocity": 70}, {"time": 3083, "pitch": 81, "duration": 2, "velocity": 51}, {"time": 3088, "pitch": 85, "duration": 2, "velocity": 33}, {"time": 3096, "pitch": 81, "duration": 2, "velocity": 36}, {"time": 3097, "pitch": 85, "duration": 2, "velocity": 41}, {"time": 3098, "pitch": 93, "duration": 2, "velocity": 33}], "annotations": [{"time": 50, "annotation": {"number": 64, "value": 127}, "group": "control_change"}, {"time": 86, "annotation": {"number": 64, "value": 0}, "group": "control_change"}, {"time": 102, "annotation": {"number": 64, "value": 127}, "group": "control_change"}, {"time": 118, "annotation": {"number": 64, "value": 0}, "group": "control_change"}, {"time": 121, "annotation": {"number": 64, "value": 127}, "group": "control_change"}, {"time": 143, "annotation": {"number": 64, "value": 0}, "group": "control_change"}, {"time": 146, "annotation": {"number": 64, "value": 127}, "group": "control_change"}, {"time": 168, "annotation": {"number": 64, "value": 0}, "group": "control_change"}, {"time": 171, "annotation": {"number": 64, "value": 127}, "group": "control_change"}, {"time": 191, "annotation": {"number": 64, "value": 0}, "group": "control_change"}, {"time": 195, "annotation": {"number": 64, "value": 127}, "group": "control_change"}, {"time": 215, "annotation": {"number": 64, "value": 0}, "group": "control_change"}, {"time": 218, "annotation": {"number": 64, "value": 127}, "group": "control_change"}, {"time": 239, "annotation": {"number": 64, "value": 0}, "group": "control_change"}, {"time": 241, "annotation": {"number": 64, "value": 127}, "group": "control_change"}, {"time": 263, "annotation": {"number": 64, "value": 0}, "group": "control_change"}, {"time": 267, "annotation": {"number": 64, "value": 127}, "group": "control_change"}, {"time": 287, "annotation": {"number": 64, "value": 0}, "group": "control_change"}, {"time": 290, "annotation": {"number": 64, "value": 127}, "group": "control_change"}, {"time": 312, "annotation": {"number": 64, "value": 0}, "group": "control_change"}, {"time": 314, "annotation": {"number": 64, "value": 127}, "group": "control_change"}, {"time": 336, "annotation": {"number": 64, "value": 0}, "group": "control_change"}, {"time": 338, "annotation": {"number": 64, "value": 127}, "group": "control_change"}, {"time": 359, "annotation": {"number": 64, "value": 0}, "group": "control_change"}, {"time": 364, "annotation": {"number": 64, "value": 127}, "group": "control_change"}, {"time": 388, "annotation": {"number": 64, "value": 127}, "group": "control_change"}, {"time": 407, "annotation": {"number": 64, "value": 0}, "group": "control_change"}, {"time": 409, "annotation": {"number": 64, "value": 127}, "group": "control_change"}, {"time": 430, "annotation": {"number": 64, "value": 0}, "group": "control_change"}, {"time": 435, "annotation": {"number": 64, "value": 127}, "group": "control_change"}, {"time": 456, "annotation": {"number": 64, "value": 0}, "group": "control_change"}, {"time": 459, "annotation": {"number": 64, "value": 127}, "group": "control_change"}, {"time": 479, "annotation": {"number": 64, "value": 0}, "group": "control_change"}, {"time": 483, "annotation": {"number": 64, "value": 127}, "group": "control_change"}, {"time": 502, "annotation": {"number": 64, "value": 0}, "group": "control_change"}, {"time": 510, "annotation": {"number": 64, "value": 127}, "group": "control_change"}, {"time": 527, "annotation": {"number": 64, "value": 0}, "group": "control_change"}, {"time": 529, "annotation": {"number": 64, "value": 127}, "group": "control_change"}, {"time": 551, "annotation": {"number": 64, "value": 0}, "group": "control_change"}, {"time": 554, "annotation": {"number": 64, "value": 127}, "group": "control_change"}, {"time": 575, "annotation": {"number": 64, "value": 0}, "group": "control_change"}, {"time": 576, "annotation": {"number": 64, "value": 127}, "group": "control_change"}, {"time": 587, "annotation": {"number": 64, "value": 0}, "group": "control_change"}, {"time": 589, "annotation": {"number": 64, "value": 127}, "group": "control_change"}, {"time": 598, "annotation": {"number": 64, "value": 0}, "group": "control_change"}, {"time": 602, "annotation": {"number": 64, "value": 127}, "group": "control_change"}, {"time": 624, "annotation": {"number": 64, "value": 0}, "group": "control_change"}, {"time": 626, "annotation": {"number": 64, "value": 127}, "group": "control_change"}, {"time": 646, "annotation": {"number": 64, "value": 0}, "group": "control_change"}, {"time": 652, "annotation": {"number": 64, "value": 127}, "group": "control_change"}, {"time": 672, "annotation": {"number": 64, "value": 127}, "group": "control_change"}, {"time": 683, "annotation": {"number": 64, "value": 0}, "group": "control_change"}, {"time": 685, "annotation": {"number": 64, "value": 127}, "group": "control_change"}, {"time": 695, "annotation": {"number": 64, "value": 0}, "group": "control_change"}, {"time": 698, "annotation": {"number": 64, "value": 127}, "group": "control_change"}, {"time": 720, "annotation": {"number": 64, "value": 0}, "group": "control_change"}, {"time": 721, "annotation": {"number": 64, "value": 127}, "group": "control_change"}, {"time": 748, "annotation": {"number": 64, "value": 127}, "group": "control_change"}, {"time": 768, "annotation": {"number": 64, "value": 0}, "group": "control_change"}, {"time": 781, "annotation": {"number": 64, "value": 127}, "group": "control_change"}, {"time": 793, "annotation": {"number": 64, "value": 0}, "group": "control_change"}, {"time": 798, "annotation": {"number": 64, "value": 127}, "group": "control_change"}, {"time": 815, "annotation": {"number": 64, "value": 0}, "group": "control_change"}, {"time": 818, "annotation": {"number": 64, "value": 127}, "group": "control_change"}, {"time": 839, "annotation": {"number": 64, "value": 0}, "group": "control_change"}, {"time": 844, "annotation": {"number": 64, "value": 127}, "group": "control_change"}, {"time": 863, "annotation": {"number": 64, "value": 0}, "group": "control_change"}, {"time": 866, "annotation": {"number": 64, "value": 127}, "group": "control_change"}, {"time": 885, "annotation": {"number": 64, "value": 0}, "group": "control_change"}, {"time": 894, "annotation": {"number": 64, "value": 127}, "group": "control_change"}, {"time": 910, "annotation": {"number": 64, "value": 0}, "group": "control_change"}, {"time": 913, "annotation": {"number": 64, "value": 127}, "group": "control_change"}, {"time": 935, "annotation": {"number": 64, "value": 0}, "group": "control_change"}, {"time": 938, "annotation": {"number": 64, "value": 127}, "group": "control_change"}, {"time": 960, "annotation": {"number": 64, "value": 0}, "group": "control_change"}, {"time": 963, "annotation": {"number": 64, "value": 127}, "group": "control_change"}, {"time": 983, "annotation": {"number": 64, "value": 0}, "group": "control_change"}, {"time": 987, "annotation": {"number": 64, "value": 127}, "group": "control_change"}, {"time": 1007, "annotation": {"number": 64, "value": 0}, "group": "control_change"}, {"time": 1010, "annotation": {"number": 64, "value": 127}, "group": "control_change"}, {"time": 1031, "annotation": {"number": 64, "value": 0}, "group": "control_change"}, {"time": 1033, "annotation": {"number": 64, "value": 127}, "group": "control_change"}, {"time": 1055, "annotation": {"number": 64, "value": 0}, "group": "control_change"}, {"time": 1059, "annotation": {"number": 64, "value": 127}, "group": "control_change"}, {"time": 1079, "annotation": {"number": 64, "value": 0}, "group": "control_change"}, {"time": 1082, "annotation": {"number": 64, "value": 127}, "group": "control_change"}, {"time": 1104, "annotation": {"number": 64, "value": 0}, "group": "control_change"}, {"time": 1106, "annotation": {"number": 64, "value": 127}, "group": "control_change"}, {"time": 1128, "annotation": {"number": 64, "value": 0}, "group": "control_change"}, {"time": 1130, "annotation": {"number": 64, "value": 127}, "group": "control_change"}, {"time": 1151, "annotation": {"number": 64, "value": 0}, "group": "control_change"}, {"time": 1156, "annotation": {"number": 64, "value": 127}, "group": "control_change"}, {"time": 1180, "annotation": {"number": 64, "value": 127}, "group": "control_change"}, {"time": 1199, "annotation": {"number": 64, "value": 0}, "group": "control_change"}, {"time": 1201, "annotation": {"number": 64, "value": 127}, "group": "control_change"}, {"time": 1222, "annotation": {"number": 64, "value": 0}, "group": "control_change"}, {"time": 1227, "annotation": {"number": 64, "value": 127}, "group": "control_change"}, {"time": 1248, "annotation": {"number": 64, "value": 0}, "group": "control_change"}, {"time": 1251, "annotation": {"number": 64, "value": 127}, "group": "control_change"}, {"time": 1271, "annotation": {"number": 64, "value": 0}, "group": "control_change"}, {"time": 1275, "annotation": {"number": 64, "value": 127}, "group": "control_change"}, {"time": 1294, "annotation": {"number": 64, "value": 0}, "group": "control_change"}, {"time": 1302, "annotation": {"number": 64, "value": 127}, "group": "control_change"}, {"time": 1319, "annotation": {"number": 64, "value": 0}, "group": "control_change"}, {"time": 1321, "annotation": {"number": 64, "value": 127}, "group": "control_change"}, {"time": 1343, "annotation": {"number": 64, "value": 0}, "group": "control_change"}, {"time": 1346, "annotation": {"number": 64, "value": 127}, "group": "control_change"}, {"time": 1367, "annotation": {"number": 64, "value": 0}, "group": "control_change"}, {"time": 1368, "annotation": {"number": 64, "value": 127}, "group": "control_change"}, {"time": 1379, "annotation": {"number": 64, "value": 0}, "group": "control_change"}, {"time": 1381, "annotation": {"number": 64, "value": 127}, "group": "control_change"}, {"time": 1390, "annotation": {"number": 64, "value": 0}, "group": "control_change"}, {"time": 1394, "annotation": {"number": 64, "value": 127}, "group": "control_change"}, {"time": 1416, "annotation": {"number": 64, "value": 0}, "group": "control_change"}, {"time": 1418, "annotation": {"number": 64, "value": 127}, "group": "control_change"}, {"time": 1438, "annotation": {"number": 64, "value": 0}, "group": "control_change"}, {"time": 1444, "annotation": {"number": 64, "value": 127}, "group": "control_change"}, {"time": 1464, "annotation": {"number": 64, "value": 127}, "group": "control_change"}, {"time": 1475, "annotation": {"number": 64, "value": 0}, "group": "control_change"}, {"time": 1477, "annotation": {"number": 64, "value": 127}, "group": "control_change"}, {"time": 1487, "annotation": {"number": 64, "value": 0}, "group": "control_change"}, {"time": 1490, "annotation": {"number": 64, "value": 127}, "group": "control_change"}, {"time": 1512, "annotation": {"number": 64, "value": 0}, "group": "control_change"}, {"time": 1513, "annotation": {"number": 64, "value": 127}, "group": "control_change"}, {"time": 1540, "annotation": {"number": 64, "value": 127}, "group": "control_change"}, {"time": 1560, "annotation": {"number": 64, "value": 0}, "group": "control_change"}, {"time": 1573, "annotation": {"number": 64, "value": 127}, "group": "control_change"}, {"time": 1585, "annotation": {"number": 64, "value": 0}, "group": "control_change"}, {"time": 1590, "annotation": {"number": 64, "value": 127}, "group": "control_change"}, {"time": 1607, "annotation": {"number": 64, "value": 0}, "group": "control_change"}, {"time": 1610, "annotation": {"number": 64, "value": 127}, "group": "control_change"}, {"time": 1631, "annotation": {"number": 64, "value": 0}, "group": "control_change"}, {"time": 1639, "annotation": {"number": 64, "value": 127}, "group": "control_change"}, {"time": 1655, "annotation": {"number": 64, "value": 0}, "group": "control_change"}, {"time": 1657, "annotation": {"number": 64, "value": 127}, "group": "control_change"}, {"time": 1679, "annotation": {"number": 64, "value": 0}, "group": "control_change"}, {"time": 1680, "annotation": {"number": 64, "value": 127}, "group": "control_change"}, {"time": 1704, "annotation": {"number": 64, "value": 0}, "group": "control_change"}, {"time": 1705, "annotation": {"number": 64, "value": 127}, "group": "control_change"}, {"time": 1766, "annotation": {"number": 64, "value": 127}, "group": "control_change"}, {"time": 1776, "annotation": {"number": 64, "value": 0}, "group": "control_change"}, {"time": 1783, "annotation": {"number": 64, "value": 127}, "group": "control_change"}, {"time": 1799, "annotation": {"number": 64, "value": 0}, "group": "control_change"}, {"time": 1802, "annotation": {"number": 64, "value": 127}, "group": "control_change"}, {"time": 1823, "annotation": {"number": 64, "value": 0}, "group": "control_change"}, {"time": 1829, "annotation": {"number": 64, "value": 127}, "group": "control_change"}, {"time": 1848, "annotation": {"number": 64, "value": 0}, "group": "control_change"}, {"time": 1852, "annotation": {"number": 64, "value": 127}, "group": "control_change"}, {"time": 1871, "annotation": {"number": 64, "value": 0}, "group": "control_change"}, {"time": 1878, "annotation": {"number": 64, "value": 127}, "group": "control_change"}, {"time": 1895, "annotation": {"number": 64, "value": 0}, "group": "control_change"}, {"time": 1905, "annotation": {"number": 64, "value": 127}, "group": "control_change"}, {"time": 1919, "annotation": {"number": 64, "value": 0}, "group": "control_change"}, {"time": 1923, "annotation": {"number": 64, "value": 127}, "group": "control_change"}, {"time": 1949, "annotation": {"number": 64, "value": 127}, "group": "control_change"}, {"time": 1968, "annotation": {"number": 64, "value": 0}, "group": "control_change"}, {"time": 1969, "annotation": {"number": 64, "value": 127}, "group": "control_change"}, {"time": 1991, "annotation": {"number": 64, "value": 0}, "group": "control_change"}, {"time": 1993, "annotation": {"number": 64, "value": 127}, "group": "control_change"}, {"time": 2003, "annotation": {"number": 64, "value": 0}, "group": "control_change"}, {"time": 2004, "annotation": {"number": 64, "value": 127}, "group": "control_change"}, {"time": 2015, "annotation": {"number": 64, "value": 0}, "group": "control_change"}, {"time": 2022, "annotation": {"number": 64, "value": 127}, "group": "control_change"}, {"time": 2039, "annotation": {"number": 64, "value": 0}, "group": "control_change"}, {"time": 2041, "annotation": {"number": 64, "value": 127}, "group": "control_change"}, {"time": 2063, "annotation": {"number": 64, "value": 0}, "group": "control_change"}, {"time": 2066, "annotation": {"number": 64, "value": 127}, "group": "control_change"}, {"time": 2087, "annotation": {"number": 64, "value": 0}, "group": "control_change"}, {"time": 2088, "annotation": {"number": 64, "value": 127}, "group": "control_change"}, {"time": 2099, "annotation": {"number": 64, "value": 0}, "group": "control_change"}, {"time": 2101, "annotation": {"number": 64, "value": 127}, "group": "control_change"}, {"time": 2110, "annotation": {"number": 64, "value": 0}, "group": "control_change"}, {"time": 2114, "annotation": {"number": 64, "value": 127}, "group": "control_change"}, {"time": 2136, "annotation": {"number": 64, "value": 0}, "group": "control_change"}, {"time": 2138, "annotation": {"number": 64, "value": 127}, "group": "control_change"}, {"time": 2158, "annotation": {"number": 64, "value": 0}, "group": "control_change"}, {"time": 2164, "annotation": {"number": 64, "value": 127}, "group": "control_change"}, {"time": 2184, "annotation": {"number": 64, "value": 127}, "group": "control_change"}, {"time": 2195, "annotation": {"number": 64, "value": 0}, "group": "control_change"}, {"time": 2197, "annotation": {"number": 64, "value": 127}, "group": "control_change"}, {"time": 2207, "annotation": {"number": 64, "value": 0}, "group": "control_change"}, {"time": 2210, "annotation": {"number": 64, "value": 127}, "group": "control_change"}, {"time": 2232, "annotation": {"number": 64, "value": 0}, "group": "control_change"}, {"time": 2233, "annotation": {"number": 64, "value": 127}, "group": "control_change"}, {"time": 2260, "annotation": {"number": 64, "value": 127}, "group": "control_change"}, {"time": 2280, "annotation": {"number": 64, "value": 0}, "group": "control_change"}, {"time": 2293, "annotation": {"number": 64, "value": 127}, "group": "control_change"}, {"time": 2305, "annotation": {"number": 64, "value": 0}, "group": "control_change"}, {"time": 2310, "annotation": {"number": 64, "value": 127}, "group": "control_change"}, {"time": 2327, "annotation": {"number": 64, "value": 0}, "group": "control_change"}, {"time": 2330, "annotation": {"number": 64, "value": 127}, "group": "control_change"}, {"time": 2351, "annotation": {"number": 64, "value": 0}, "group": "control_change"}, {"time": 2357, "annotation": {"number": 64, "value": 127}, "group": "control_change"}, {"time": 2374, "annotation": {"number": 64, "value": 0}, "group": "control_change"}, {"time": 2375, "annotation": {"number": 64, "value": 127}, "group": "control_change"}, {"time": 2386, "annotation": {"number": 64, "value": 0}, "group": "control_change"}, {"time": 2388, "annotation": {"number": 64, "value": 127}, "group": "control_change"}, {"time": 2398, "annotation": {"number": 64, "value": 0}, "group": "control_change"}, {"time": 2406, "annotation": {"number": 64, "value": 127}, "group": "control_change"}, {"time": 2423, "annotation": {"number": 64, "value": 0}, "group": "control_change"}, {"time": 2425, "annotation": {"number": 64, "value": 127}, "group": "control_change"}, {"time": 2447, "annotation": {"number": 64, "value": 0}, "group": "control_change"}, {"time": 2450, "annotation": {"number": 64, "value": 127}, "group": "control_change"}, {"time": 2471, "annotation": {"number": 64, "value": 0}, "group": "control_change"}, {"time": 2472, "annotation": {"number": 64, "value": 127}, "group": "control_change"}, {"time": 2483, "annotation": {"number": 64, "value": 0}, "group": "control_change"}, {"time": 2485, "annotation": {"number": 64, "value": 127}, "group": "control_change"}, {"time": 2494, "annotation": {"number": 64, "value": 0}, "group": "control_change"}, {"time": 2498, "annotation": {"number": 64, "value": 127}, "group": "control_change"}, {"time": 2520, "annotation": {"number": 64, "value": 0}, "group": "control_change"}, {"time": 2522, "annotation": {"number": 64, "value": 127}, "group": "control_change"}, {"time": 2542, "annotation": {"number": 64, "value": 0}, "group": "control_change"}, {"time": 2548, "annotation": {"number": 64, "value": 127}, "group": "control_change"}, {"time": 2568, "annotation": {"number": 64, "value": 127}, "group": "control_change"}, {"time": 2579, "annotation": {"number": 64, "value": 0}, "group": "control_change"}, {"time": 2581, "annotation": {"number": 64, "value": 127}, "group": "control_change"}, {"time": 2591, "annotation": {"number": 64, "value": 0}, "group": "control_change"}, {"time": 2594, "annotation": {"number": 64, "value": 127}, "group": "control_change"}, {"time": 2616, "annotation": {"number": 64, "value": 0}, "group": "control_change"}, {"time": 2617, "annotation": {"number": 64, "value": 127}, "group": "control_change"}, {"time": 2644, "annotation": {"number": 64, "value": 127}, "group": "control_change"}, {"time": 2664, "annotation": {"number": 64, "value": 0}, "group": "control_change"}, {"time": 2677, "annotation": {"number": 64, "value": 127}, "group": "control_change"}, {"time": 2689, "annotation": {"number": 64, "value": 0}, "group": "control_change"}, {"time": 2694, "annotation": {"number": 64, "value": 127}, "group": "control_change"}, {"time": 2711, "annotation": {"number": 64, "value": 0}, "group": "control_change"}, {"time": 2714, "annotation": {"number": 64, "value": 127}, "group": "control_change"}, {"time": 2735, "annotation": {"number": 64, "value": 0}, "group": "control_change"}, {"time": 2736, "annotation": {"number": 64, "value": 127}, "group": "control_change"}, {"time": 2783, "annotation": {"number": 64, "value": 0}, "group": "control_change"}, {"time": 2786, "annotation": {"number": 64, "value": 127}, "group": "control_change"}, {"time": 2831, "annotation": {"number": 64, "value": 0}, "group": "control_change"}, {"time": 2834, "annotation": {"number": 64, "value": 127}, "group": "control_change"}, {"time": 2855, "annotation": {"number": 64, "value": 0}, "group": "control_change"}, {"time": 2883, "annotation": {"number": 64, "value": 127}, "group": "control_change"}, {"time": 2953, "annotation": {"number": 64, "value": 0}, "group": "control_change"}, {"time": 2957, "annotation": {"number": 64, "value": 127}, "group": "control_change"}, {"time": 3060, "annotation": {"number": 64, "value": 127}, "group": "control_change"}, {"time": 3127, "annotation": {"number": 64, "value": 0}, "group": "control_change"}]}]}