{"metadata": {"schema_version": "0.2", "title": "None", "source_filename": "363.mid", "source_format": "midi"}, "resolution": 12, "tempos": [{"time": 0, "qpm": 68.0000725334107}], "time_signatures": [{"time": 0, "numerator": 1, "denominator": 4}], "tracks": [{"program": 4, "is_drum": false, "name": "MELODY", "notes": [{"time": 251, "pitch": 60, "duration": 9, "velocity": 112}, {"time": 260, "pitch": 58, "duration": 3, "velocity": 93}, {"time": 263, "pitch": 56, "duration": 15, "velocity": 107}, {"time": 281, "pitch": 56, "duration": 5, "velocity": 107}, {"time": 287, "pitch": 56, "duration": 6, "velocity": 117}, {"time": 293, "pitch": 60, "duration": 5, "velocity": 100}, {"time": 299, "pitch": 63, "duration": 5, "velocity": 117}, {"time": 305, "pitch": 67, "duration": 6, "velocity": 96}, {"time": 311, "pitch": 63, "duration": 17, "velocity": 107}, {"time": 329, "pitch": 60, "duration": 5, "velocity": 93}, {"time": 335, "pitch": 63, "duration": 7, "velocity": 127}, {"time": 353, "pitch": 63, "duration": 1, "velocity": 102}, {"time": 356, "pitch": 63, "duration": 2, "velocity": 93}, {"time": 359, "pitch": 68, "duration": 3, "velocity": 93}, {"time": 362, "pitch": 65, "duration": 11, "velocity": 99}, {"time": 380, "pitch": 63, "duration": 1, "velocity": 102}, {"time": 383, "pitch": 63, "duration": 4, "velocity": 107}, {"time": 389, "pitch": 60, "duration": 4, "velocity": 96}, {"time": 395, "pitch": 58, "duration": 4, "velocity": 102}, {"time": 401, "pitch": 56, "duration": 4, "velocity": 95}, {"time": 407, "pitch": 58, "duration": 21, "velocity": 102}, {"time": 425, "pitch": 53, "duration": 4, "velocity": 96}, {"time": 431, "pitch": 58, "duration": 14, "velocity": 99}, {"time": 449, "pitch": 56, "duration": 2, "velocity": 100}, {"time": 452, "pitch": 65, "duration": 4, "velocity": 89}, {"time": 455, "pitch": 63, "duration": 4, "velocity": 117}, {"time": 461, "pitch": 60, "duration": 5, "velocity": 96}, {"time": 467, "pitch": 58, "duration": 4, "velocity": 96}, {"time": 473, "pitch": 56, "duration": 11, "velocity": 93}, {"time": 485, "pitch": 51, "duration": 2, "velocity": 97}, {"time": 488, "pitch": 53, "duration": 3, "velocity": 88}, {"time": 491, "pitch": 56, "duration": 3, "velocity": 99}, {"time": 497, "pitch": 65, "duration": 5, "velocity": 93}, {"time": 503, "pitch": 63, "duration": 10, "velocity": 102}, {"time": 515, "pitch": 58, "duration": 10, "velocity": 99}, {"time": 527, "pitch": 60, "duration": 14, "velocity": 95}, {"time": 545, "pitch": 58, "duration": 2, "velocity": 107}, {"time": 548, "pitch": 56, "duration": 2, "velocity": 77}, {"time": 551, "pitch": 58, "duration": 4, "velocity": 96}, {"time": 557, "pitch": 60, "duration": 7, "velocity": 96}, {"time": 569, "pitch": 58, "duration": 3, "velocity": 117}, {"time": 572, "pitch": 56, "duration": 2, "velocity": 88}, {"time": 575, "pitch": 53, "duration": 8, "velocity": 97}, {"time": 593, "pitch": 58, "duration": 2, "velocity": 100}, {"time": 596, "pitch": 56, "duration": 2, "velocity": 73}, {"time": 599, "pitch": 58, "duration": 3, "velocity": 93}, {"time": 605, "pitch": 60, "duration": 6, "velocity": 95}, {"time": 614, "pitch": 58, "duration": 4, "velocity": 107}, {"time": 620, "pitch": 56, "duration": 4, "velocity": 107}, {"time": 626, "pitch": 51, "duration": 17, "velocity": 92}, {"time": 653, "pitch": 63, "duration": 3, "velocity": 112}, {"time": 659, "pitch": 56, "duration": 4, "velocity": 100}, {"time": 665, "pitch": 56, "duration": 3, "velocity": 100}, {"time": 668, "pitch": 55, "duration": 2, "velocity": 66}, {"time": 671, "pitch": 56, "duration": 6, "velocity": 93}, {"time": 677, "pitch": 60, "duration": 6, "velocity": 97}, {"time": 683, "pitch": 63, "duration": 5, "velocity": 117}, {"time": 689, "pitch": 67, "duration": 5, "velocity": 102}, {"time": 695, "pitch": 63, "duration": 17, "velocity": 100}, {"time": 713, "pitch": 60, "duration": 5, "velocity": 93}, {"time": 719, "pitch": 63, "duration": 7, "velocity": 127}, {"time": 737, "pitch": 63, "duration": 1, "velocity": 102}, {"time": 740, "pitch": 63, "duration": 2, "velocity": 93}, {"time": 743, "pitch": 68, "duration": 3, "velocity": 93}, {"time": 746, "pitch": 65, "duration": 6, "velocity": 99}, {"time": 755, "pitch": 65, "duration": 3, "velocity": 100}, {"time": 761, "pitch": 63, "duration": 2, "velocity": 112}, {"time": 764, "pitch": 63, "duration": 1, "velocity": 102}, {"time": 767, "pitch": 63, "duration": 4, "velocity": 107}, {"time": 773, "pitch": 60, "duration": 4, "velocity": 96}, {"time": 785, "pitch": 58, "duration": 4, "velocity": 102}, {"time": 788, "pitch": 56, "duration": 4, "velocity": 95}, {"time": 794, "pitch": 58, "duration": 16, "velocity": 102}, {"time": 809, "pitch": 53, "duration": 4, "velocity": 96}, {"time": 815, "pitch": 58, "duration": 14, "velocity": 99}, {"time": 833, "pitch": 56, "duration": 2, "velocity": 100}, {"time": 836, "pitch": 65, "duration": 4, "velocity": 89}, {"time": 839, "pitch": 63, "duration": 4, "velocity": 117}, {"time": 845, "pitch": 60, "duration": 5, "velocity": 96}, {"time": 851, "pitch": 58, "duration": 4, "velocity": 96}, {"time": 857, "pitch": 56, "duration": 11, "velocity": 93}, {"time": 869, "pitch": 51, "duration": 2, "velocity": 97}, {"time": 872, "pitch": 53, "duration": 3, "velocity": 88}, {"time": 875, "pitch": 56, "duration": 3, "velocity": 99}, {"time": 881, "pitch": 65, "duration": 5, "velocity": 93}, {"time": 887, "pitch": 63, "duration": 10, "velocity": 102}, {"time": 899, "pitch": 67, "duration": 10, "velocity": 107}, {"time": 911, "pitch": 68, "duration": 10, "velocity": 127}, {"time": 926, "pitch": 63, "duration": 1, "velocity": 92}, {"time": 929, "pitch": 63, "duration": 1, "velocity": 79}, {"time": 932, "pitch": 63, "duration": 2, "velocity": 95}, {"time": 935, "pitch": 65, "duration": 5, "velocity": 95}, {"time": 941, "pitch": 63, "duration": 3, "velocity": 97}, {"time": 947, "pitch": 63, "duration": 4, "velocity": 117}, {"time": 953, "pitch": 61, "duration": 2, "velocity": 117}, {"time": 956, "pitch": 60, "duration": 3, "velocity": 88}, {"time": 959, "pitch": 58, "duration": 5, "velocity": 96}, {"time": 965, "pitch": 56, "duration": 3, "velocity": 100}, {"time": 974, "pitch": 53, "duration": 3, "velocity": 76}, {"time": 977, "pitch": 56, "duration": 4, "velocity": 97}, {"time": 983, "pitch": 56, "duration": 25, "velocity": 117}, {"time": 1019, "pitch": 68, "duration": 4, "velocity": 127}, {"time": 1025, "pitch": 67, "duration": 3, "velocity": 83}, {"time": 1028, "pitch": 65, "duration": 3, "velocity": 89}, {"time": 1031, "pitch": 60, "duration": 5, "velocity": 122}, {"time": 1037, "pitch": 58, "duration": 5, "velocity": 97}, {"time": 1043, "pitch": 60, "duration": 5, "velocity": 107}, {"time": 1049, "pitch": 63, "duration": 4, "velocity": 112}, {"time": 1055, "pitch": 63, "duration": 3, "velocity": 127}, {"time": 1064, "pitch": 56, "duration": 2, "velocity": 100}, {"time": 1067, "pitch": 56, "duration": 2, "velocity": 127}, {"time": 1070, "pitch": 68, "duration": 3, "velocity": 117}, {"time": 1076, "pitch": 68, "duration": 2, "velocity": 92}, {"time": 1079, "pitch": 65, "duration": 5, "velocity": 100}, {"time": 1085, "pitch": 65, "duration": 3, "velocity": 92}, {"time": 1088, "pitch": 63, "duration": 3, "velocity": 100}, {"time": 1094, "pitch": 65, "duration": 4, "velocity": 102}, {"time": 1100, "pitch": 63, "duration": 4, "velocity": 107}, {"time": 1103, "pitch": 60, "duration": 8, "velocity": 95}, {"time": 1118, "pitch": 60, "duration": 2, "velocity": 90}, {"time": 1121, "pitch": 65, "duration": 2, "velocity": 90}, {"time": 1124, "pitch": 65, "duration": 2, "velocity": 86}, {"time": 1127, "pitch": 65, "duration": 3, "velocity": 96}, {"time": 1133, "pitch": 63, "duration": 2, "velocity": 97}, {"time": 1136, "pitch": 65, "duration": 4, "velocity": 95}, {"time": 1145, "pitch": 65, "duration": 4, "velocity": 99}, {"time": 1148, "pitch": 63, "duration": 2, "velocity": 95}, {"time": 1151, "pitch": 65, "duration": 3, "velocity": 96}, {"time": 1157, "pitch": 63, "duration": 3, "velocity": 107}, {"time": 1160, "pitch": 60, "duration": 3, "velocity": 83}, {"time": 1163, "pitch": 65, "duration": 4, "velocity": 92}, {"time": 1169, "pitch": 65, "duration": 2, "velocity": 112}, {"time": 1172, "pitch": 63, "duration": 1, "velocity": 112}, {"time": 1175, "pitch": 65, "duration": 2, "velocity": 99}, {"time": 1178, "pitch": 63, "duration": 1, "velocity": 99}, {"time": 1181, "pitch": 63, "duration": 1, "velocity": 96}, {"time": 1184, "pitch": 63, "duration": 1, "velocity": 102}, {"time": 1187, "pitch": 63, "duration": 3, "velocity": 112}, {"time": 1193, "pitch": 60, "duration": 4, "velocity": 112}, {"time": 1199, "pitch": 58, "duration": 9, "velocity": 100}, {"time": 1211, "pitch": 68, "duration": 4, "velocity": 127}, {"time": 1217, "pitch": 67, "duration": 3, "velocity": 83}, {"time": 1220, "pitch": 65, "duration": 3, "velocity": 89}, {"time": 1223, "pitch": 60, "duration": 5, "velocity": 122}, {"time": 1229, "pitch": 58, "duration": 5, "velocity": 97}, {"time": 1235, "pitch": 60, "duration": 5, "velocity": 107}, {"time": 1241, "pitch": 63, "duration": 4, "velocity": 112}, {"time": 1247, "pitch": 63, "duration": 3, "velocity": 127}, {"time": 1256, "pitch": 56, "duration": 2, "velocity": 100}, {"time": 1259, "pitch": 56, "duration": 2, "velocity": 127}, {"time": 1262, "pitch": 68, "duration": 3, "velocity": 117}, {"time": 1268, "pitch": 68, "duration": 2, "velocity": 92}, {"time": 1271, "pitch": 65, "duration": 5, "velocity": 100}, {"time": 1277, "pitch": 65, "duration": 1, "velocity": 122}, {"time": 1280, "pitch": 65, "duration": 1, "velocity": 95}, {"time": 1283, "pitch": 65, "duration": 2, "velocity": 100}, {"time": 1286, "pitch": 63, "duration": 3, "velocity": 127}, {"time": 1292, "pitch": 60, "duration": 2, "velocity": 97}, {"time": 1295, "pitch": 65, "duration": 4, "velocity": 117}, {"time": 1313, "pitch": 60, "duration": 2, "velocity": 107}, {"time": 1316, "pitch": 58, "duration": 2, "velocity": 99}, {"time": 1319, "pitch": 60, "duration": 3, "velocity": 97}, {"time": 1325, "pitch": 65, "duration": 2, "velocity": 107}, {"time": 1328, "pitch": 65, "duration": 5, "velocity": 122}, {"time": 1337, "pitch": 63, "duration": 1, "velocity": 127}, {"time": 1340, "pitch": 63, "duration": 2, "velocity": 112}, {"time": 1343, "pitch": 65, "duration": 2, "velocity": 102}, {"time": 1346, "pitch": 63, "duration": 2, "velocity": 117}, {"time": 1349, "pitch": 63, "duration": 2, "velocity": 97}, {"time": 1352, "pitch": 63, "duration": 1, "velocity": 102}, {"time": 1355, "pitch": 63, "duration": 3, "velocity": 122}, {"time": 1358, "pitch": 60, "duration": 3, "velocity": 107}, {"time": 1364, "pitch": 58, "duration": 4, "velocity": 112}, {"time": 1370, "pitch": 56, "duration": 18, "velocity": 107}, {"time": 1595, "pitch": 60, "duration": 9, "velocity": 112}, {"time": 1604, "pitch": 58, "duration": 3, "velocity": 93}, {"time": 1607, "pitch": 56, "duration": 15, "velocity": 107}, {"time": 1625, "pitch": 56, "duration": 5, "velocity": 107}, {"time": 1631, "pitch": 56, "duration": 6, "velocity": 117}, {"time": 1637, "pitch": 60, "duration": 5, "velocity": 100}, {"time": 1643, "pitch": 63, "duration": 5, "velocity": 117}, {"time": 1649, "pitch": 67, "duration": 6, "velocity": 96}, {"time": 1655, "pitch": 63, "duration": 17, "velocity": 107}, {"time": 1673, "pitch": 60, "duration": 5, "velocity": 93}, {"time": 1679, "pitch": 63, "duration": 7, "velocity": 127}, {"time": 1697, "pitch": 63, "duration": 1, "velocity": 102}, {"time": 1700, "pitch": 63, "duration": 2, "velocity": 93}, {"time": 1703, "pitch": 68, "duration": 3, "velocity": 93}, {"time": 1706, "pitch": 65, "duration": 11, "velocity": 99}, {"time": 1724, "pitch": 63, "duration": 1, "velocity": 102}, {"time": 1727, "pitch": 63, "duration": 4, "velocity": 107}, {"time": 1733, "pitch": 60, "duration": 4, "velocity": 96}, {"time": 1739, "pitch": 58, "duration": 4, "velocity": 102}, {"time": 1745, "pitch": 56, "duration": 4, "velocity": 95}, {"time": 1751, "pitch": 58, "duration": 21, "velocity": 102}, {"time": 1769, "pitch": 53, "duration": 4, "velocity": 96}, {"time": 1775, "pitch": 58, "duration": 14, "velocity": 99}, {"time": 1793, "pitch": 56, "duration": 2, "velocity": 100}, {"time": 1796, "pitch": 65, "duration": 4, "velocity": 89}, {"time": 1799, "pitch": 63, "duration": 4, "velocity": 117}, {"time": 1805, "pitch": 60, "duration": 5, "velocity": 96}, {"time": 1811, "pitch": 58, "duration": 4, "velocity": 96}, {"time": 1817, "pitch": 56, "duration": 11, "velocity": 93}, {"time": 1829, "pitch": 51, "duration": 2, "velocity": 97}, {"time": 1832, "pitch": 53, "duration": 3, "velocity": 88}, {"time": 1835, "pitch": 56, "duration": 3, "velocity": 99}, {"time": 1841, "pitch": 65, "duration": 5, "velocity": 93}, {"time": 1847, "pitch": 63, "duration": 10, "velocity": 102}, {"time": 1859, "pitch": 58, "duration": 10, "velocity": 99}, {"time": 1871, "pitch": 60, "duration": 14, "velocity": 95}, {"time": 1889, "pitch": 58, "duration": 2, "velocity": 107}, {"time": 1892, "pitch": 56, "duration": 2, "velocity": 77}, {"time": 1895, "pitch": 58, "duration": 4, "velocity": 96}, {"time": 1901, "pitch": 60, "duration": 7, "velocity": 96}, {"time": 1913, "pitch": 58, "duration": 3, "velocity": 117}, {"time": 1916, "pitch": 56, "duration": 2, "velocity": 88}, {"time": 1919, "pitch": 53, "duration": 8, "velocity": 97}, {"time": 1937, "pitch": 58, "duration": 2, "velocity": 100}, {"time": 1940, "pitch": 56, "duration": 2, "velocity": 73}, {"time": 1943, "pitch": 58, "duration": 3, "velocity": 93}, {"time": 1949, "pitch": 60, "duration": 6, "velocity": 95}, {"time": 1958, "pitch": 58, "duration": 4, "velocity": 107}, {"time": 1964, "pitch": 56, "duration": 4, "velocity": 107}, {"time": 1970, "pitch": 51, "duration": 17, "velocity": 92}, {"time": 1997, "pitch": 63, "duration": 3, "velocity": 112}, {"time": 2003, "pitch": 56, "duration": 4, "velocity": 100}, {"time": 2009, "pitch": 56, "duration": 3, "velocity": 100}, {"time": 2012, "pitch": 55, "duration": 2, "velocity": 66}, {"time": 2015, "pitch": 56, "duration": 6, "velocity": 93}, {"time": 2021, "pitch": 60, "duration": 6, "velocity": 97}, {"time": 2027, "pitch": 63, "duration": 5, "velocity": 117}, {"time": 2033, "pitch": 67, "duration": 5, "velocity": 102}, {"time": 2039, "pitch": 63, "duration": 17, "velocity": 100}, {"time": 2057, "pitch": 60, "duration": 5, "velocity": 93}, {"time": 2063, "pitch": 63, "duration": 7, "velocity": 127}, {"time": 2081, "pitch": 63, "duration": 1, "velocity": 102}, {"time": 2084, "pitch": 63, "duration": 2, "velocity": 93}, {"time": 2087, "pitch": 68, "duration": 3, "velocity": 93}, {"time": 2090, "pitch": 65, "duration": 6, "velocity": 99}, {"time": 2099, "pitch": 65, "duration": 3, "velocity": 100}, {"time": 2105, "pitch": 63, "duration": 2, "velocity": 112}, {"time": 2108, "pitch": 63, "duration": 1, "velocity": 102}, {"time": 2111, "pitch": 63, "duration": 4, "velocity": 107}, {"time": 2117, "pitch": 60, "duration": 4, "velocity": 96}, {"time": 2129, "pitch": 58, "duration": 4, "velocity": 102}, {"time": 2132, "pitch": 56, "duration": 4, "velocity": 95}, {"time": 2138, "pitch": 58, "duration": 16, "velocity": 102}, {"time": 2153, "pitch": 53, "duration": 4, "velocity": 96}, {"time": 2159, "pitch": 58, "duration": 14, "velocity": 99}, {"time": 2177, "pitch": 56, "duration": 2, "velocity": 100}, {"time": 2180, "pitch": 65, "duration": 4, "velocity": 89}, {"time": 2183, "pitch": 63, "duration": 4, "velocity": 117}, {"time": 2189, "pitch": 60, "duration": 5, "velocity": 96}, {"time": 2195, "pitch": 58, "duration": 4, "velocity": 96}, {"time": 2201, "pitch": 56, "duration": 11, "velocity": 93}, {"time": 2213, "pitch": 51, "duration": 2, "velocity": 97}, {"time": 2216, "pitch": 53, "duration": 3, "velocity": 88}, {"time": 2219, "pitch": 56, "duration": 3, "velocity": 99}, {"time": 2225, "pitch": 65, "duration": 5, "velocity": 93}, {"time": 2231, "pitch": 63, "duration": 10, "velocity": 102}, {"time": 2243, "pitch": 67, "duration": 10, "velocity": 107}, {"time": 2255, "pitch": 68, "duration": 10, "velocity": 127}, {"time": 2270, "pitch": 63, "duration": 1, "velocity": 92}, {"time": 2273, "pitch": 63, "duration": 1, "velocity": 79}, {"time": 2276, "pitch": 63, "duration": 2, "velocity": 95}, {"time": 2279, "pitch": 65, "duration": 5, "velocity": 95}, {"time": 2285, "pitch": 63, "duration": 3, "velocity": 97}, {"time": 2291, "pitch": 63, "duration": 4, "velocity": 117}, {"time": 2297, "pitch": 61, "duration": 2, "velocity": 117}, {"time": 2300, "pitch": 60, "duration": 3, "velocity": 88}, {"time": 2303, "pitch": 58, "duration": 5, "velocity": 96}, {"time": 2309, "pitch": 56, "duration": 3, "velocity": 100}, {"time": 2318, "pitch": 53, "duration": 3, "velocity": 76}, {"time": 2321, "pitch": 56, "duration": 4, "velocity": 97}, {"time": 2327, "pitch": 56, "duration": 25, "velocity": 117}, {"time": 2363, "pitch": 68, "duration": 4, "velocity": 127}, {"time": 2369, "pitch": 67, "duration": 3, "velocity": 83}, {"time": 2372, "pitch": 65, "duration": 3, "velocity": 89}, {"time": 2375, "pitch": 60, "duration": 5, "velocity": 122}, {"time": 2381, "pitch": 58, "duration": 5, "velocity": 97}, {"time": 2387, "pitch": 60, "duration": 5, "velocity": 107}, {"time": 2393, "pitch": 63, "duration": 4, "velocity": 112}, {"time": 2399, "pitch": 63, "duration": 3, "velocity": 127}, {"time": 2408, "pitch": 56, "duration": 2, "velocity": 100}, {"time": 2411, "pitch": 56, "duration": 2, "velocity": 127}, {"time": 2414, "pitch": 68, "duration": 3, "velocity": 117}, {"time": 2420, "pitch": 68, "duration": 2, "velocity": 92}, {"time": 2423, "pitch": 65, "duration": 5, "velocity": 100}, {"time": 2429, "pitch": 65, "duration": 3, "velocity": 92}, {"time": 2432, "pitch": 63, "duration": 3, "velocity": 100}, {"time": 2438, "pitch": 65, "duration": 4, "velocity": 102}, {"time": 2444, "pitch": 63, "duration": 4, "velocity": 107}, {"time": 2447, "pitch": 60, "duration": 8, "velocity": 95}, {"time": 2462, "pitch": 60, "duration": 2, "velocity": 90}, {"time": 2465, "pitch": 65, "duration": 2, "velocity": 90}, {"time": 2468, "pitch": 65, "duration": 2, "velocity": 86}, {"time": 2471, "pitch": 65, "duration": 3, "velocity": 96}, {"time": 2477, "pitch": 63, "duration": 2, "velocity": 97}, {"time": 2480, "pitch": 65, "duration": 4, "velocity": 95}, {"time": 2489, "pitch": 65, "duration": 4, "velocity": 99}, {"time": 2492, "pitch": 63, "duration": 2, "velocity": 95}, {"time": 2495, "pitch": 65, "duration": 3, "velocity": 96}, {"time": 2501, "pitch": 63, "duration": 3, "velocity": 107}, {"time": 2504, "pitch": 60, "duration": 3, "velocity": 83}, {"time": 2507, "pitch": 65, "duration": 4, "velocity": 92}, {"time": 2513, "pitch": 65, "duration": 2, "velocity": 112}, {"time": 2516, "pitch": 63, "duration": 1, "velocity": 112}, {"time": 2519, "pitch": 65, "duration": 2, "velocity": 99}, {"time": 2522, "pitch": 63, "duration": 1, "velocity": 99}, {"time": 2525, "pitch": 63, "duration": 1, "velocity": 96}, {"time": 2528, "pitch": 63, "duration": 1, "velocity": 102}, {"time": 2531, "pitch": 63, "duration": 3, "velocity": 112}, {"time": 2537, "pitch": 60, "duration": 4, "velocity": 112}, {"time": 2543, "pitch": 58, "duration": 9, "velocity": 100}, {"time": 2555, "pitch": 68, "duration": 4, "velocity": 127}, {"time": 2561, "pitch": 67, "duration": 3, "velocity": 83}, {"time": 2564, "pitch": 65, "duration": 3, "velocity": 89}, {"time": 2567, "pitch": 60, "duration": 5, "velocity": 122}, {"time": 2573, "pitch": 58, "duration": 5, "velocity": 97}, {"time": 2579, "pitch": 60, "duration": 5, "velocity": 107}, {"time": 2585, "pitch": 63, "duration": 4, "velocity": 112}, {"time": 2591, "pitch": 63, "duration": 3, "velocity": 127}, {"time": 2600, "pitch": 56, "duration": 2, "velocity": 100}, {"time": 2603, "pitch": 56, "duration": 2, "velocity": 127}, {"time": 2606, "pitch": 68, "duration": 3, "velocity": 117}, {"time": 2612, "pitch": 68, "duration": 2, "velocity": 92}, {"time": 2615, "pitch": 65, "duration": 5, "velocity": 100}, {"time": 2621, "pitch": 65, "duration": 1, "velocity": 122}, {"time": 2624, "pitch": 65, "duration": 1, "velocity": 95}, {"time": 2627, "pitch": 65, "duration": 2, "velocity": 100}, {"time": 2630, "pitch": 63, "duration": 3, "velocity": 127}, {"time": 2636, "pitch": 60, "duration": 2, "velocity": 97}, {"time": 2639, "pitch": 65, "duration": 4, "velocity": 117}, {"time": 2657, "pitch": 60, "duration": 2, "velocity": 107}, {"time": 2660, "pitch": 58, "duration": 2, "velocity": 99}, {"time": 2663, "pitch": 60, "duration": 3, "velocity": 97}, {"time": 2669, "pitch": 65, "duration": 2, "velocity": 107}, {"time": 2672, "pitch": 65, "duration": 5, "velocity": 122}, {"time": 2681, "pitch": 63, "duration": 1, "velocity": 127}, {"time": 2684, "pitch": 63, "duration": 2, "velocity": 112}, {"time": 2687, "pitch": 65, "duration": 2, "velocity": 102}, {"time": 2690, "pitch": 63, "duration": 2, "velocity": 117}, {"time": 2693, "pitch": 63, "duration": 2, "velocity": 97}, {"time": 2696, "pitch": 63, "duration": 1, "velocity": 102}, {"time": 2699, "pitch": 63, "duration": 3, "velocity": 122}, {"time": 2702, "pitch": 60, "duration": 3, "velocity": 107}, {"time": 2708, "pitch": 58, "duration": 4, "velocity": 112}, {"time": 2714, "pitch": 56, "duration": 18, "velocity": 107}, {"time": 2747, "pitch": 68, "duration": 4, "velocity": 127}, {"time": 2753, "pitch": 67, "duration": 3, "velocity": 83}, {"time": 2756, "pitch": 65, "duration": 3, "velocity": 89}, {"time": 2759, "pitch": 60, "duration": 5, "velocity": 122}, {"time": 2765, "pitch": 58, "duration": 5, "velocity": 97}, {"time": 2771, "pitch": 60, "duration": 5, "velocity": 107}, {"time": 2777, "pitch": 63, "duration": 4, "velocity": 112}, {"time": 2783, "pitch": 63, "duration": 3, "velocity": 127}, {"time": 2792, "pitch": 56, "duration": 2, "velocity": 100}, {"time": 2795, "pitch": 56, "duration": 2, "velocity": 127}, {"time": 2798, "pitch": 68, "duration": 3, "velocity": 117}, {"time": 2804, "pitch": 68, "duration": 2, "velocity": 92}, {"time": 2807, "pitch": 65, "duration": 5, "velocity": 100}, {"time": 2813, "pitch": 65, "duration": 3, "velocity": 92}, {"time": 2816, "pitch": 63, "duration": 3, "velocity": 100}, {"time": 2822, "pitch": 65, "duration": 4, "velocity": 102}, {"time": 2828, "pitch": 63, "duration": 4, "velocity": 107}, {"time": 2831, "pitch": 60, "duration": 8, "velocity": 95}, {"time": 2846, "pitch": 60, "duration": 2, "velocity": 90}, {"time": 2849, "pitch": 65, "duration": 2, "velocity": 90}, {"time": 2852, "pitch": 65, "duration": 2, "velocity": 86}, {"time": 2855, "pitch": 65, "duration": 3, "velocity": 96}, {"time": 2861, "pitch": 63, "duration": 2, "velocity": 97}, {"time": 2864, "pitch": 65, "duration": 4, "velocity": 95}, {"time": 2873, "pitch": 65, "duration": 4, "velocity": 99}, {"time": 2876, "pitch": 63, "duration": 2, "velocity": 95}, {"time": 2879, "pitch": 65, "duration": 3, "velocity": 96}, {"time": 2885, "pitch": 63, "duration": 3, "velocity": 107}, {"time": 2888, "pitch": 60, "duration": 3, "velocity": 83}, {"time": 2891, "pitch": 65, "duration": 4, "velocity": 92}, {"time": 2897, "pitch": 65, "duration": 2, "velocity": 112}, {"time": 2900, "pitch": 63, "duration": 1, "velocity": 112}, {"time": 2903, "pitch": 65, "duration": 2, "velocity": 99}, {"time": 2906, "pitch": 63, "duration": 1, "velocity": 99}, {"time": 2909, "pitch": 63, "duration": 1, "velocity": 96}, {"time": 2912, "pitch": 63, "duration": 1, "velocity": 102}, {"time": 2915, "pitch": 63, "duration": 3, "velocity": 112}, {"time": 2921, "pitch": 60, "duration": 4, "velocity": 112}, {"time": 2927, "pitch": 58, "duration": 9, "velocity": 100}, {"time": 2939, "pitch": 68, "duration": 4, "velocity": 127}, {"time": 2945, "pitch": 67, "duration": 3, "velocity": 83}, {"time": 2948, "pitch": 65, "duration": 3, "velocity": 89}, {"time": 2951, "pitch": 60, "duration": 5, "velocity": 122}, {"time": 2957, "pitch": 58, "duration": 5, "velocity": 97}, {"time": 2963, "pitch": 60, "duration": 5, "velocity": 107}, {"time": 2969, "pitch": 63, "duration": 4, "velocity": 112}, {"time": 2975, "pitch": 63, "duration": 3, "velocity": 127}, {"time": 2984, "pitch": 56, "duration": 2, "velocity": 100}, {"time": 2987, "pitch": 56, "duration": 2, "velocity": 127}, {"time": 2990, "pitch": 68, "duration": 3, "velocity": 117}, {"time": 2996, "pitch": 68, "duration": 2, "velocity": 92}, {"time": 2999, "pitch": 65, "duration": 5, "velocity": 100}, {"time": 3005, "pitch": 65, "duration": 1, "velocity": 122}, {"time": 3008, "pitch": 65, "duration": 1, "velocity": 95}, {"time": 3011, "pitch": 65, "duration": 2, "velocity": 100}, {"time": 3014, "pitch": 63, "duration": 3, "velocity": 127}, {"time": 3020, "pitch": 60, "duration": 2, "velocity": 97}, {"time": 3023, "pitch": 65, "duration": 4, "velocity": 117}, {"time": 3041, "pitch": 60, "duration": 2, "velocity": 107}, {"time": 3044, "pitch": 58, "duration": 2, "velocity": 99}, {"time": 3047, "pitch": 60, "duration": 3, "velocity": 97}, {"time": 3053, "pitch": 65, "duration": 2, "velocity": 107}, {"time": 3056, "pitch": 65, "duration": 5, "velocity": 122}, {"time": 3065, "pitch": 63, "duration": 1, "velocity": 127}, {"time": 3068, "pitch": 63, "duration": 2, "velocity": 112}, {"time": 3071, "pitch": 65, "duration": 2, "velocity": 102}, {"time": 3074, "pitch": 63, "duration": 2, "velocity": 117}, {"time": 3077, "pitch": 63, "duration": 2, "velocity": 97}, {"time": 3080, "pitch": 63, "duration": 1, "velocity": 102}, {"time": 3083, "pitch": 63, "duration": 3, "velocity": 122}, {"time": 3086, "pitch": 60, "duration": 3, "velocity": 107}, {"time": 3092, "pitch": 58, "duration": 4, "velocity": 112}, {"time": 3098, "pitch": 56, "duration": 18, "velocity": 107}, {"time": 3137, "pitch": 60, "duration": 3, "velocity": 92}, {"time": 3140, "pitch": 58, "duration": 2, "velocity": 74}, {"time": 3143, "pitch": 60, "duration": 7, "velocity": 93}, {"time": 3152, "pitch": 65, "duration": 3, "velocity": 99}, {"time": 3155, "pitch": 65, "duration": 18, "velocity": 102}, {"time": 3173, "pitch": 63, "duration": 3, "velocity": 100}, {"time": 3179, "pitch": 63, "duration": 3, "velocity": 86}, {"time": 3182, "pitch": 65, "duration": 5, "velocity": 99}, {"time": 3188, "pitch": 63, "duration": 1, "velocity": 107}, {"time": 3191, "pitch": 63, "duration": 2, "velocity": 127}, {"time": 3197, "pitch": 63, "duration": 21, "velocity": 127}, {"time": 3225, "pitch": 63, "duration": 7, "velocity": 102}, {"time": 3235, "pitch": 60, "duration": 3, "velocity": 102}, {"time": 3240, "pitch": 58, "duration": 4, "velocity": 112}, {"time": 3247, "pitch": 56, "duration": 63, "velocity": 112}]}, {"program": 0, "is_drum": false, "name": "PIANO", "notes": [{"time": 47, "pitch": 44, "duration": 20, "velocity": 97}, {"time": 53, "pitch": 51, "duration": 13, "velocity": 55}, {"time": 59, "pitch": 56, "duration": 6, "velocity": 88}, {"time": 59, "pitch": 63, "duration": 13, "velocity": 102}, {"time": 59, "pitch": 68, "duration": 12, "velocity": 112}, {"time": 65, "pitch": 60, "duration": 8, "velocity": 96}, {"time": 71, "pitch": 43, "duration": 19, "velocity": 83}, {"time": 77, "pitch": 55, "duration": 6, "velocity": 93}, {"time": 83, "pitch": 60, "duration": 11, "velocity": 95}, {"time": 83, "pitch": 63, "duration": 12, "velocity": 100}, {"time": 89, "pitch": 55, "duration": 6, "velocity": 96}, {"time": 95, "pitch": 41, "duration": 20, "velocity": 88}, {"time": 101, "pitch": 48, "duration": 13, "velocity": 50}, {"time": 107, "pitch": 53, "duration": 8, "velocity": 68}, {"time": 107, "pitch": 65, "duration": 12, "velocity": 90}, {"time": 107, "pitch": 68, "duration": 13, "velocity": 102}, {"time": 113, "pitch": 60, "duration": 7, "velocity": 96}, {"time": 119, "pitch": 39, "duration": 17, "velocity": 100}, {"time": 125, "pitch": 51, "duration": 10, "velocity": 93}, {"time": 131, "pitch": 58, "duration": 12, "velocity": 122}, {"time": 131, "pitch": 63, "duration": 12, "velocity": 127}, {"time": 137, "pitch": 55, "duration": 6, "velocity": 93}, {"time": 143, "pitch": 37, "duration": 18, "velocity": 117}, {"time": 149, "pitch": 49, "duration": 15, "velocity": 78}, {"time": 155, "pitch": 56, "duration": 11, "velocity": 100}, {"time": 155, "pitch": 61, "duration": 12, "velocity": 102}, {"time": 161, "pitch": 53, "duration": 7, "velocity": 89}, {"time": 167, "pitch": 39, "duration": 24, "velocity": 100}, {"time": 179, "pitch": 51, "duration": 12, "velocity": 51}, {"time": 179, "pitch": 55, "duration": 12, "velocity": 73}, {"time": 179, "pitch": 58, "duration": 12, "velocity": 70}, {"time": 179, "pitch": 63, "duration": 12, "velocity": 66}, {"time": 191, "pitch": 44, "duration": 15, "velocity": 78}, {"time": 191, "pitch": 56, "duration": 12, "velocity": 69}, {"time": 191, "pitch": 60, "duration": 10, "velocity": 74}, {"time": 191, "pitch": 63, "duration": 9, "velocity": 73}, {"time": 203, "pitch": 63, "duration": 2, "velocity": 93}, {"time": 209, "pitch": 49, "duration": 4, "velocity": 43}, {"time": 209, "pitch": 61, "duration": 5, "velocity": 66}, {"time": 209, "pitch": 65, "duration": 5, "velocity": 68}, {"time": 215, "pitch": 49, "duration": 6, "velocity": 66}, {"time": 215, "pitch": 61, "duration": 5, "velocity": 70}, {"time": 215, "pitch": 65, "duration": 1, "velocity": 52}, {"time": 221, "pitch": 51, "duration": 9, "velocity": 73}, {"time": 221, "pitch": 63, "duration": 11, "velocity": 90}, {"time": 221, "pitch": 67, "duration": 11, "velocity": 86}, {"time": 263, "pitch": 44, "duration": 39, "velocity": 78}, {"time": 269, "pitch": 51, "duration": 22, "velocity": 89}, {"time": 275, "pitch": 56, "duration": 26, "velocity": 90}, {"time": 281, "pitch": 60, "duration": 14, "velocity": 66}, {"time": 287, "pitch": 63, "duration": 8, "velocity": 88}, {"time": 293, "pitch": 51, "duration": 8, "velocity": 50}, {"time": 299, "pitch": 63, "duration": 13, "velocity": 112}, {"time": 305, "pitch": 56, "duration": 6, "velocity": 73}, {"time": 311, "pitch": 36, "duration": 36, "velocity": 69}, {"time": 317, "pitch": 48, "duration": 9, "velocity": 93}, {"time": 323, "pitch": 55, "duration": 13, "velocity": 90}, {"time": 329, "pitch": 48, "duration": 9, "velocity": 53}, {"time": 335, "pitch": 60, "duration": 13, "velocity": 74}, {"time": 335, "pitch": 63, "duration": 25, "velocity": 99}, {"time": 347, "pitch": 55, "duration": 13, "velocity": 90}, {"time": 353, "pitch": 60, "duration": 6, "velocity": 68}, {"time": 359, "pitch": 37, "duration": 39, "velocity": 96}, {"time": 365, "pitch": 49, "duration": 9, "velocity": 85}, {"time": 371, "pitch": 56, "duration": 11, "velocity": 100}, {"time": 377, "pitch": 49, "duration": 9, "velocity": 61}, {"time": 383, "pitch": 53, "duration": 14, "velocity": 88}, {"time": 383, "pitch": 56, "duration": 12, "velocity": 90}, {"time": 383, "pitch": 61, "duration": 10, "velocity": 83}, {"time": 389, "pitch": 49, "duration": 11, "velocity": 70}, {"time": 395, "pitch": 61, "duration": 14, "velocity": 107}, {"time": 401, "pitch": 56, "duration": 7, "velocity": 68}, {"time": 407, "pitch": 39, "duration": 44, "velocity": 93}, {"time": 413, "pitch": 51, "duration": 23, "velocity": 100}, {"time": 419, "pitch": 55, "duration": 13, "velocity": 95}, {"time": 425, "pitch": 46, "duration": 24, "velocity": 45}, {"time": 431, "pitch": 58, "duration": 11, "velocity": 90}, {"time": 431, "pitch": 63, "duration": 23, "velocity": 96}, {"time": 443, "pitch": 55, "duration": 11, "velocity": 78}, {"time": 449, "pitch": 58, "duration": 5, "velocity": 99}, {"time": 455, "pitch": 37, "duration": 42, "velocity": 83}, {"time": 461, "pitch": 44, "duration": 35, "velocity": 57}, {"time": 467, "pitch": 49, "duration": 16, "velocity": 88}, {"time": 473, "pitch": 56, "duration": 19, "velocity": 86}, {"time": 479, "pitch": 61, "duration": 9, "velocity": 77}, {"time": 479, "pitch": 65, "duration": 23, "velocity": 73}, {"time": 485, "pitch": 49, "duration": 10, "velocity": 53}, {"time": 491, "pitch": 61, "duration": 11, "velocity": 102}, {"time": 497, "pitch": 56, "duration": 6, "velocity": 96}, {"time": 503, "pitch": 36, "duration": 15, "velocity": 83}, {"time": 509, "pitch": 43, "duration": 11, "velocity": 58}, {"time": 515, "pitch": 60, "duration": 13, "velocity": 86}, {"time": 515, "pitch": 63, "duration": 13, "velocity": 97}, {"time": 521, "pitch": 55, "duration": 9, "velocity": 81}, {"time": 527, "pitch": 41, "duration": 19, "velocity": 69}, {"time": 533, "pitch": 48, "duration": 13, "velocity": 59}, {"time": 539, "pitch": 56, "duration": 11, "velocity": 96}, {"time": 539, "pitch": 60, "duration": 12, "velocity": 86}, {"time": 545, "pitch": 53, "duration": 8, "velocity": 56}, {"time": 551, "pitch": 46, "duration": 18, "velocity": 107}, {"time": 557, "pitch": 53, "duration": 7, "velocity": 63}, {"time": 563, "pitch": 58, "duration": 20, "velocity": 76}, {"time": 563, "pitch": 61, "duration": 20, "velocity": 100}, {"time": 569, "pitch": 53, "duration": 10, "velocity": 72}, {"time": 575, "pitch": 46, "duration": 14, "velocity": 95}, {"time": 581, "pitch": 53, "duration": 7, "velocity": 58}, {"time": 587, "pitch": 58, "duration": 14, "velocity": 79}, {"time": 587, "pitch": 61, "duration": 14, "velocity": 95}, {"time": 593, "pitch": 53, "duration": 7, "velocity": 57}, {"time": 599, "pitch": 39, "duration": 49, "velocity": 76}, {"time": 605, "pitch": 46, "duration": 42, "velocity": 39}, {"time": 611, "pitch": 55, "duration": 13, "velocity": 95}, {"time": 617, "pitch": 51, "duration": 10, "velocity": 83}, {"time": 623, "pitch": 58, "duration": 11, "velocity": 78}, {"time": 623, "pitch": 63, "duration": 11, "velocity": 74}, {"time": 629, "pitch": 51, "duration": 11, "velocity": 59}, {"time": 635, "pitch": 63, "duration": 13, "velocity": 89}, {"time": 638, "pitch": 58, "duration": 10, "velocity": 39}, {"time": 641, "pitch": 55, "duration": 7, "velocity": 97}, {"time": 647, "pitch": 44, "duration": 39, "velocity": 78}, {"time": 653, "pitch": 51, "duration": 22, "velocity": 89}, {"time": 659, "pitch": 56, "duration": 26, "velocity": 90}, {"time": 665, "pitch": 60, "duration": 14, "velocity": 66}, {"time": 671, "pitch": 63, "duration": 8, "velocity": 88}, {"time": 677, "pitch": 51, "duration": 8, "velocity": 50}, {"time": 683, "pitch": 63, "duration": 13, "velocity": 112}, {"time": 689, "pitch": 56, "duration": 6, "velocity": 73}, {"time": 695, "pitch": 36, "duration": 36, "velocity": 69}, {"time": 701, "pitch": 48, "duration": 9, "velocity": 93}, {"time": 707, "pitch": 55, "duration": 13, "velocity": 90}, {"time": 713, "pitch": 48, "duration": 9, "velocity": 53}, {"time": 719, "pitch": 60, "duration": 13, "velocity": 74}, {"time": 719, "pitch": 63, "duration": 25, "velocity": 99}, {"time": 731, "pitch": 55, "duration": 13, "velocity": 90}, {"time": 737, "pitch": 60, "duration": 6, "velocity": 68}, {"time": 743, "pitch": 37, "duration": 39, "velocity": 96}, {"time": 749, "pitch": 49, "duration": 9, "velocity": 85}, {"time": 755, "pitch": 56, "duration": 11, "velocity": 100}, {"time": 761, "pitch": 49, "duration": 9, "velocity": 61}, {"time": 767, "pitch": 53, "duration": 14, "velocity": 88}, {"time": 767, "pitch": 56, "duration": 12, "velocity": 90}, {"time": 767, "pitch": 61, "duration": 10, "velocity": 83}, {"time": 773, "pitch": 49, "duration": 11, "velocity": 70}, {"time": 779, "pitch": 61, "duration": 14, "velocity": 107}, {"time": 785, "pitch": 56, "duration": 7, "velocity": 68}, {"time": 791, "pitch": 39, "duration": 44, "velocity": 93}, {"time": 797, "pitch": 51, "duration": 23, "velocity": 100}, {"time": 803, "pitch": 55, "duration": 13, "velocity": 95}, {"time": 809, "pitch": 46, "duration": 24, "velocity": 45}, {"time": 815, "pitch": 58, "duration": 11, "velocity": 90}, {"time": 815, "pitch": 63, "duration": 23, "velocity": 96}, {"time": 827, "pitch": 55, "duration": 11, "velocity": 78}, {"time": 833, "pitch": 58, "duration": 5, "velocity": 99}, {"time": 839, "pitch": 37, "duration": 42, "velocity": 83}, {"time": 845, "pitch": 44, "duration": 35, "velocity": 57}, {"time": 851, "pitch": 49, "duration": 16, "velocity": 88}, {"time": 857, "pitch": 56, "duration": 19, "velocity": 86}, {"time": 863, "pitch": 61, "duration": 9, "velocity": 77}, {"time": 863, "pitch": 65, "duration": 23, "velocity": 73}, {"time": 869, "pitch": 49, "duration": 10, "velocity": 53}, {"time": 875, "pitch": 61, "duration": 11, "velocity": 102}, {"time": 881, "pitch": 56, "duration": 6, "velocity": 96}, {"time": 887, "pitch": 36, "duration": 15, "velocity": 83}, {"time": 893, "pitch": 43, "duration": 11, "velocity": 58}, {"time": 899, "pitch": 60, "duration": 13, "velocity": 86}, {"time": 899, "pitch": 63, "duration": 13, "velocity": 97}, {"time": 905, "pitch": 55, "duration": 9, "velocity": 81}, {"time": 911, "pitch": 41, "duration": 19, "velocity": 69}, {"time": 917, "pitch": 48, "duration": 13, "velocity": 59}, {"time": 923, "pitch": 56, "duration": 11, "velocity": 96}, {"time": 923, "pitch": 60, "duration": 12, "velocity": 86}, {"time": 929, "pitch": 53, "duration": 6, "velocity": 56}, {"time": 935, "pitch": 37, "duration": 20, "velocity": 93}, {"time": 941, "pitch": 44, "duration": 17, "velocity": 54}, {"time": 947, "pitch": 53, "duration": 13, "velocity": 41}, {"time": 947, "pitch": 56, "duration": 12, "velocity": 112}, {"time": 953, "pitch": 49, "duration": 6, "velocity": 75}, {"time": 959, "pitch": 39, "duration": 19, "velocity": 85}, {"time": 965, "pitch": 51, "duration": 14, "velocity": 88}, {"time": 971, "pitch": 46, "duration": 7, "velocity": 29}, {"time": 971, "pitch": 58, "duration": 12, "velocity": 100}, {"time": 971, "pitch": 63, "duration": 12, "velocity": 107}, {"time": 977, "pitch": 55, "duration": 6, "velocity": 90}, {"time": 983, "pitch": 44, "duration": 15, "velocity": 102}, {"time": 989, "pitch": 56, "duration": 8, "velocity": 107}, {"time": 995, "pitch": 60, "duration": 2, "velocity": 85}, {"time": 995, "pitch": 63, "duration": 2, "velocity": 102}, {"time": 998, "pitch": 49, "duration": 8, "velocity": 112}, {"time": 998, "pitch": 56, "duration": 8, "velocity": 122}, {"time": 998, "pitch": 61, "duration": 7, "velocity": 127}, {"time": 998, "pitch": 65, "duration": 7, "velocity": 112}, {"time": 1010, "pitch": 48, "duration": 10, "velocity": 97}, {"time": 1010, "pitch": 55, "duration": 10, "velocity": 107}, {"time": 1010, "pitch": 60, "duration": 9, "velocity": 122}, {"time": 1010, "pitch": 63, "duration": 9, "velocity": 127}, {"time": 1031, "pitch": 44, "duration": 23, "velocity": 95}, {"time": 1034, "pitch": 51, "duration": 5, "velocity": 99}, {"time": 1037, "pitch": 56, "duration": 9, "velocity": 102}, {"time": 1040, "pitch": 51, "duration": 4, "velocity": 65}, {"time": 1043, "pitch": 63, "duration": 37, "velocity": 112}, {"time": 1046, "pitch": 51, "duration": 9, "velocity": 36}, {"time": 1049, "pitch": 60, "duration": 14, "velocity": 69}, {"time": 1052, "pitch": 56, "duration": 8, "velocity": 112}, {"time": 1055, "pitch": 44, "duration": 19, "velocity": 99}, {"time": 1058, "pitch": 51, "duration": 10, "velocity": 93}, {"time": 1061, "pitch": 56, "duration": 5, "velocity": 97}, {"time": 1064, "pitch": 60, "duration": 11, "velocity": 48}, {"time": 1064, "pitch": 68, "duration": 15, "velocity": 102}, {"time": 1067, "pitch": 56, "duration": 4, "velocity": 86}, {"time": 1070, "pitch": 51, "duration": 3, "velocity": 77}, {"time": 1073, "pitch": 56, "duration": 6, "velocity": 95}, {"time": 1076, "pitch": 60, "duration": 3, "velocity": 69}, {"time": 1079, "pitch": 41, "duration": 21, "velocity": 75}, {"time": 1082, "pitch": 48, "duration": 9, "velocity": 93}, {"time": 1082, "pitch": 61, "duration": 1, "velocity": 37}, {"time": 1085, "pitch": 53, "duration": 7, "velocity": 88}, {"time": 1088, "pitch": 56, "duration": 3, "velocity": 90}, {"time": 1091, "pitch": 60, "duration": 15, "velocity": 112}, {"time": 1094, "pitch": 48, "duration": 9, "velocity": 82}, {"time": 1097, "pitch": 56, "duration": 9, "velocity": 99}, {"time": 1100, "pitch": 53, "duration": 4, "velocity": 90}, {"time": 1103, "pitch": 41, "duration": 18, "velocity": 90}, {"time": 1106, "pitch": 48, "duration": 10, "velocity": 83}, {"time": 1109, "pitch": 53, "duration": 8, "velocity": 83}, {"time": 1112, "pitch": 56, "duration": 4, "velocity": 99}, {"time": 1115, "pitch": 60, "duration": 11, "velocity": 102}, {"time": 1118, "pitch": 48, "duration": 2, "velocity": 66}, {"time": 1121, "pitch": 56, "duration": 5, "velocity": 112}, {"time": 1124, "pitch": 53, "duration": 4, "velocity": 92}, {"time": 1127, "pitch": 37, "duration": 22, "velocity": 81}, {"time": 1130, "pitch": 49, "duration": 10, "velocity": 72}, {"time": 1133, "pitch": 53, "duration": 8, "velocity": 79}, {"time": 1136, "pitch": 56, "duration": 4, "velocity": 92}, {"time": 1139, "pitch": 44, "duration": 11, "velocity": 33}, {"time": 1139, "pitch": 61, "duration": 14, "velocity": 112}, {"time": 1142, "pitch": 49, "duration": 9, "velocity": 85}, {"time": 1145, "pitch": 56, "duration": 8, "velocity": 99}, {"time": 1148, "pitch": 53, "duration": 4, "velocity": 90}, {"time": 1151, "pitch": 37, "duration": 18, "velocity": 77}, {"time": 1154, "pitch": 44, "duration": 15, "velocity": 59}, {"time": 1157, "pitch": 49, "duration": 7, "velocity": 97}, {"time": 1160, "pitch": 53, "duration": 3, "velocity": 85}, {"time": 1163, "pitch": 56, "duration": 6, "velocity": 102}, {"time": 1163, "pitch": 61, "duration": 12, "velocity": 127}, {"time": 1166, "pitch": 49, "duration": 7, "velocity": 90}, {"time": 1169, "pitch": 53, "duration": 5, "velocity": 96}, {"time": 1172, "pitch": 56, "duration": 3, "velocity": 112}, {"time": 1175, "pitch": 39, "duration": 22, "velocity": 81}, {"time": 1178, "pitch": 46, "duration": 20, "velocity": 73}, {"time": 1181, "pitch": 51, "duration": 7, "velocity": 90}, {"time": 1184, "pitch": 55, "duration": 6, "velocity": 88}, {"time": 1187, "pitch": 63, "duration": 17, "velocity": 122}, {"time": 1190, "pitch": 51, "duration": 10, "velocity": 90}, {"time": 1193, "pitch": 58, "duration": 12, "velocity": 112}, {"time": 1196, "pitch": 55, "duration": 9, "velocity": 89}, {"time": 1199, "pitch": 39, "duration": 17, "velocity": 79}, {"time": 1202, "pitch": 46, "duration": 14, "velocity": 76}, {"time": 1205, "pitch": 51, "duration": 7, "velocity": 100}, {"time": 1208, "pitch": 55, "duration": 5, "velocity": 92}, {"time": 1211, "pitch": 63, "duration": 11, "velocity": 117}, {"time": 1214, "pitch": 51, "duration": 4, "velocity": 93}, {"time": 1217, "pitch": 58, "duration": 4, "velocity": 117}, {"time": 1220, "pitch": 55, "duration": 3, "velocity": 97}, {"time": 1223, "pitch": 44, "duration": 23, "velocity": 95}, {"time": 1226, "pitch": 51, "duration": 5, "velocity": 99}, {"time": 1229, "pitch": 56, "duration": 9, "velocity": 102}, {"time": 1232, "pitch": 51, "duration": 4, "velocity": 65}, {"time": 1235, "pitch": 63, "duration": 37, "velocity": 112}, {"time": 1238, "pitch": 51, "duration": 9, "velocity": 36}, {"time": 1241, "pitch": 60, "duration": 14, "velocity": 69}, {"time": 1244, "pitch": 56, "duration": 8, "velocity": 112}, {"time": 1247, "pitch": 44, "duration": 19, "velocity": 99}, {"time": 1250, "pitch": 51, "duration": 10, "velocity": 93}, {"time": 1253, "pitch": 56, "duration": 5, "velocity": 97}, {"time": 1256, "pitch": 60, "duration": 11, "velocity": 48}, {"time": 1256, "pitch": 68, "duration": 15, "velocity": 102}, {"time": 1259, "pitch": 56, "duration": 4, "velocity": 86}, {"time": 1262, "pitch": 51, "duration": 3, "velocity": 77}, {"time": 1265, "pitch": 56, "duration": 6, "velocity": 95}, {"time": 1268, "pitch": 60, "duration": 3, "velocity": 69}, {"time": 1271, "pitch": 41, "duration": 21, "velocity": 75}, {"time": 1274, "pitch": 48, "duration": 9, "velocity": 93}, {"time": 1274, "pitch": 61, "duration": 1, "velocity": 37}, {"time": 1277, "pitch": 53, "duration": 7, "velocity": 88}, {"time": 1280, "pitch": 56, "duration": 3, "velocity": 90}, {"time": 1283, "pitch": 60, "duration": 15, "velocity": 112}, {"time": 1286, "pitch": 48, "duration": 9, "velocity": 82}, {"time": 1289, "pitch": 56, "duration": 9, "velocity": 99}, {"time": 1292, "pitch": 53, "duration": 4, "velocity": 90}, {"time": 1295, "pitch": 41, "duration": 18, "velocity": 90}, {"time": 1298, "pitch": 48, "duration": 10, "velocity": 83}, {"time": 1301, "pitch": 53, "duration": 8, "velocity": 83}, {"time": 1304, "pitch": 56, "duration": 4, "velocity": 99}, {"time": 1307, "pitch": 60, "duration": 11, "velocity": 102}, {"time": 1310, "pitch": 48, "duration": 2, "velocity": 66}, {"time": 1313, "pitch": 56, "duration": 5, "velocity": 112}, {"time": 1316, "pitch": 53, "duration": 4, "velocity": 92}, {"time": 1319, "pitch": 37, "duration": 22, "velocity": 81}, {"time": 1322, "pitch": 49, "duration": 10, "velocity": 72}, {"time": 1325, "pitch": 53, "duration": 8, "velocity": 79}, {"time": 1328, "pitch": 56, "duration": 4, "velocity": 92}, {"time": 1331, "pitch": 44, "duration": 11, "velocity": 33}, {"time": 1331, "pitch": 61, "duration": 12, "velocity": 112}, {"time": 1334, "pitch": 49, "duration": 9, "velocity": 85}, {"time": 1337, "pitch": 56, "duration": 6, "velocity": 99}, {"time": 1340, "pitch": 53, "duration": 3, "velocity": 90}, {"time": 1343, "pitch": 39, "duration": 20, "velocity": 93}, {"time": 1346, "pitch": 46, "duration": 17, "velocity": 69}, {"time": 1349, "pitch": 51, "duration": 7, "velocity": 83}, {"time": 1352, "pitch": 55, "duration": 6, "velocity": 76}, {"time": 1355, "pitch": 63, "duration": 12, "velocity": 93}, {"time": 1358, "pitch": 51, "duration": 6, "velocity": 76}, {"time": 1361, "pitch": 58, "duration": 5, "velocity": 73}, {"time": 1364, "pitch": 55, "duration": 3, "velocity": 72}, {"time": 1367, "pitch": 44, "duration": 23, "velocity": 79}, {"time": 1370, "pitch": 56, "duration": 4, "velocity": 77}, {"time": 1373, "pitch": 60, "duration": 11, "velocity": 77}, {"time": 1376, "pitch": 51, "duration": 4, "velocity": 64}, {"time": 1376, "pitch": 56, "duration": 3, "velocity": 27}, {"time": 1379, "pitch": 63, "duration": 33, "velocity": 93}, {"time": 1382, "pitch": 51, "duration": 9, "velocity": 72}, {"time": 1385, "pitch": 56, "duration": 27, "velocity": 92}, {"time": 1388, "pitch": 60, "duration": 24, "velocity": 66}, {"time": 1391, "pitch": 44, "duration": 21, "velocity": 76}, {"time": 1415, "pitch": 37, "duration": 17, "velocity": 77}, {"time": 1415, "pitch": 56, "duration": 10, "velocity": 78}, {"time": 1415, "pitch": 61, "duration": 8, "velocity": 89}, {"time": 1415, "pitch": 65, "duration": 18, "velocity": 73}, {"time": 1421, "pitch": 44, "duration": 10, "velocity": 67}, {"time": 1427, "pitch": 49, "duration": 4, "velocity": 73}, {"time": 1427, "pitch": 61, "duration": 6, "velocity": 97}, {"time": 1433, "pitch": 56, "duration": 2, "velocity": 68}, {"time": 1439, "pitch": 36, "duration": 18, "velocity": 78}, {"time": 1439, "pitch": 60, "duration": 10, "velocity": 82}, {"time": 1439, "pitch": 63, "duration": 10, "velocity": 76}, {"time": 1445, "pitch": 43, "duration": 11, "velocity": 59}, {"time": 1451, "pitch": 48, "duration": 9, "velocity": 82}, {"time": 1451, "pitch": 60, "duration": 6, "velocity": 89}, {"time": 1451, "pitch": 63, "duration": 6, "velocity": 93}, {"time": 1457, "pitch": 55, "duration": 4, "velocity": 73}, {"time": 1463, "pitch": 46, "duration": 2, "velocity": 100}, {"time": 1463, "pitch": 58, "duration": 1, "velocity": 96}, {"time": 1463, "pitch": 61, "duration": 2, "velocity": 95}, {"time": 1463, "pitch": 65, "duration": 1, "velocity": 85}, {"time": 1469, "pitch": 46, "duration": 10, "velocity": 107}, {"time": 1469, "pitch": 58, "duration": 9, "velocity": 107}, {"time": 1469, "pitch": 61, "duration": 10, "velocity": 99}, {"time": 1469, "pitch": 65, "duration": 9, "velocity": 82}, {"time": 1481, "pitch": 46, "duration": 20, "velocity": 97}, {"time": 1481, "pitch": 58, "duration": 16, "velocity": 102}, {"time": 1481, "pitch": 61, "duration": 16, "velocity": 97}, {"time": 1481, "pitch": 65, "duration": 15, "velocity": 88}, {"time": 1499, "pitch": 58, "duration": 6, "velocity": 107}, {"time": 1499, "pitch": 61, "duration": 6, "velocity": 107}, {"time": 1511, "pitch": 37, "duration": 21, "velocity": 93}, {"time": 1511, "pitch": 56, "duration": 10, "velocity": 86}, {"time": 1517, "pitch": 49, "duration": 8, "velocity": 77}, {"time": 1523, "pitch": 56, "duration": 1, "velocity": 58}, {"time": 1523, "pitch": 61, "duration": 5, "velocity": 95}, {"time": 1523, "pitch": 65, "duration": 5, "velocity": 89}, {"time": 1529, "pitch": 49, "duration": 2, "velocity": 73}, {"time": 1535, "pitch": 36, "duration": 18, "velocity": 69}, {"time": 1535, "pitch": 55, "duration": 11, "velocity": 77}, {"time": 1535, "pitch": 60, "duration": 11, "velocity": 85}, {"time": 1535, "pitch": 63, "duration": 9, "velocity": 88}, {"time": 1541, "pitch": 43, "duration": 11, "velocity": 53}, {"time": 1547, "pitch": 48, "duration": 8, "velocity": 92}, {"time": 1547, "pitch": 60, "duration": 9, "velocity": 99}, {"time": 1553, "pitch": 55, "duration": 6, "velocity": 89}, {"time": 1559, "pitch": 46, "duration": 15, "velocity": 107}, {"time": 1565, "pitch": 53, "duration": 7, "velocity": 85}, {"time": 1571, "pitch": 58, "duration": 3, "velocity": 100}, {"time": 1571, "pitch": 61, "duration": 3, "velocity": 112}, {"time": 1577, "pitch": 46, "duration": 26, "velocity": 112}, {"time": 1577, "pitch": 53, "duration": 29, "velocity": 82}, {"time": 1577, "pitch": 58, "duration": 29, "velocity": 107}, {"time": 1577, "pitch": 61, "duration": 30, "velocity": 107}, {"time": 1607, "pitch": 44, "duration": 39, "velocity": 78}, {"time": 1613, "pitch": 51, "duration": 22, "velocity": 89}, {"time": 1619, "pitch": 56, "duration": 26, "velocity": 90}, {"time": 1625, "pitch": 60, "duration": 14, "velocity": 66}, {"time": 1631, "pitch": 63, "duration": 8, "velocity": 88}, {"time": 1637, "pitch": 51, "duration": 8, "velocity": 50}, {"time": 1643, "pitch": 63, "duration": 13, "velocity": 112}, {"time": 1649, "pitch": 56, "duration": 6, "velocity": 73}, {"time": 1655, "pitch": 36, "duration": 36, "velocity": 69}, {"time": 1661, "pitch": 48, "duration": 9, "velocity": 93}, {"time": 1667, "pitch": 55, "duration": 13, "velocity": 90}, {"time": 1673, "pitch": 48, "duration": 9, "velocity": 53}, {"time": 1679, "pitch": 60, "duration": 13, "velocity": 74}, {"time": 1679, "pitch": 63, "duration": 25, "velocity": 99}, {"time": 1691, "pitch": 55, "duration": 13, "velocity": 90}, {"time": 1697, "pitch": 60, "duration": 6, "velocity": 68}, {"time": 1703, "pitch": 37, "duration": 39, "velocity": 96}, {"time": 1709, "pitch": 49, "duration": 9, "velocity": 85}, {"time": 1715, "pitch": 56, "duration": 11, "velocity": 100}, {"time": 1721, "pitch": 49, "duration": 9, "velocity": 61}, {"time": 1727, "pitch": 53, "duration": 14, "velocity": 88}, {"time": 1727, "pitch": 56, "duration": 12, "velocity": 90}, {"time": 1727, "pitch": 61, "duration": 10, "velocity": 83}, {"time": 1733, "pitch": 49, "duration": 11, "velocity": 70}, {"time": 1739, "pitch": 61, "duration": 14, "velocity": 107}, {"time": 1745, "pitch": 56, "duration": 7, "velocity": 68}, {"time": 1751, "pitch": 39, "duration": 44, "velocity": 93}, {"time": 1757, "pitch": 51, "duration": 23, "velocity": 100}, {"time": 1763, "pitch": 55, "duration": 13, "velocity": 95}, {"time": 1769, "pitch": 46, "duration": 24, "velocity": 45}, {"time": 1775, "pitch": 58, "duration": 11, "velocity": 90}, {"time": 1775, "pitch": 63, "duration": 23, "velocity": 96}, {"time": 1787, "pitch": 55, "duration": 11, "velocity": 78}, {"time": 1793, "pitch": 58, "duration": 5, "velocity": 99}, {"time": 1799, "pitch": 37, "duration": 42, "velocity": 83}, {"time": 1805, "pitch": 44, "duration": 35, "velocity": 57}, {"time": 1811, "pitch": 49, "duration": 16, "velocity": 88}, {"time": 1817, "pitch": 56, "duration": 19, "velocity": 86}, {"time": 1823, "pitch": 61, "duration": 9, "velocity": 77}, {"time": 1823, "pitch": 65, "duration": 23, "velocity": 73}, {"time": 1829, "pitch": 49, "duration": 10, "velocity": 53}, {"time": 1835, "pitch": 61, "duration": 11, "velocity": 102}, {"time": 1841, "pitch": 56, "duration": 6, "velocity": 96}, {"time": 1847, "pitch": 36, "duration": 15, "velocity": 83}, {"time": 1853, "pitch": 43, "duration": 11, "velocity": 58}, {"time": 1859, "pitch": 60, "duration": 13, "velocity": 86}, {"time": 1859, "pitch": 63, "duration": 13, "velocity": 97}, {"time": 1865, "pitch": 55, "duration": 9, "velocity": 81}, {"time": 1871, "pitch": 41, "duration": 19, "velocity": 69}, {"time": 1877, "pitch": 48, "duration": 13, "velocity": 59}, {"time": 1883, "pitch": 56, "duration": 11, "velocity": 96}, {"time": 1883, "pitch": 60, "duration": 12, "velocity": 86}, {"time": 1889, "pitch": 53, "duration": 8, "velocity": 56}, {"time": 1895, "pitch": 46, "duration": 18, "velocity": 107}, {"time": 1901, "pitch": 53, "duration": 7, "velocity": 63}, {"time": 1907, "pitch": 58, "duration": 20, "velocity": 76}, {"time": 1907, "pitch": 61, "duration": 20, "velocity": 100}, {"time": 1913, "pitch": 53, "duration": 10, "velocity": 72}, {"time": 1919, "pitch": 46, "duration": 14, "velocity": 95}, {"time": 1925, "pitch": 53, "duration": 7, "velocity": 58}, {"time": 1931, "pitch": 58, "duration": 14, "velocity": 79}, {"time": 1931, "pitch": 61, "duration": 14, "velocity": 95}, {"time": 1937, "pitch": 53, "duration": 7, "velocity": 57}, {"time": 1943, "pitch": 39, "duration": 49, "velocity": 76}, {"time": 1949, "pitch": 46, "duration": 42, "velocity": 39}, {"time": 1955, "pitch": 55, "duration": 13, "velocity": 95}, {"time": 1961, "pitch": 51, "duration": 10, "velocity": 83}, {"time": 1967, "pitch": 58, "duration": 11, "velocity": 78}, {"time": 1967, "pitch": 63, "duration": 11, "velocity": 74}, {"time": 1973, "pitch": 51, "duration": 11, "velocity": 59}, {"time": 1979, "pitch": 63, "duration": 13, "velocity": 89}, {"time": 1982, "pitch": 58, "duration": 10, "velocity": 39}, {"time": 1985, "pitch": 55, "duration": 7, "velocity": 97}, {"time": 1991, "pitch": 44, "duration": 39, "velocity": 78}, {"time": 1997, "pitch": 51, "duration": 22, "velocity": 89}, {"time": 2003, "pitch": 56, "duration": 26, "velocity": 90}, {"time": 2009, "pitch": 60, "duration": 14, "velocity": 66}, {"time": 2015, "pitch": 63, "duration": 8, "velocity": 88}, {"time": 2021, "pitch": 51, "duration": 8, "velocity": 50}, {"time": 2027, "pitch": 63, "duration": 13, "velocity": 112}, {"time": 2033, "pitch": 56, "duration": 6, "velocity": 73}, {"time": 2039, "pitch": 36, "duration": 36, "velocity": 69}, {"time": 2045, "pitch": 48, "duration": 9, "velocity": 93}, {"time": 2051, "pitch": 55, "duration": 13, "velocity": 90}, {"time": 2057, "pitch": 48, "duration": 9, "velocity": 53}, {"time": 2063, "pitch": 60, "duration": 13, "velocity": 74}, {"time": 2063, "pitch": 63, "duration": 25, "velocity": 99}, {"time": 2075, "pitch": 55, "duration": 13, "velocity": 90}, {"time": 2081, "pitch": 60, "duration": 6, "velocity": 68}, {"time": 2087, "pitch": 37, "duration": 39, "velocity": 96}, {"time": 2093, "pitch": 49, "duration": 9, "velocity": 85}, {"time": 2099, "pitch": 56, "duration": 11, "velocity": 100}, {"time": 2105, "pitch": 49, "duration": 9, "velocity": 61}, {"time": 2111, "pitch": 53, "duration": 14, "velocity": 88}, {"time": 2111, "pitch": 56, "duration": 12, "velocity": 90}, {"time": 2111, "pitch": 61, "duration": 10, "velocity": 83}, {"time": 2117, "pitch": 49, "duration": 11, "velocity": 70}, {"time": 2123, "pitch": 61, "duration": 14, "velocity": 107}, {"time": 2129, "pitch": 56, "duration": 7, "velocity": 68}, {"time": 2135, "pitch": 39, "duration": 44, "velocity": 93}, {"time": 2141, "pitch": 51, "duration": 23, "velocity": 100}, {"time": 2147, "pitch": 55, "duration": 13, "velocity": 95}, {"time": 2153, "pitch": 46, "duration": 24, "velocity": 45}, {"time": 2159, "pitch": 58, "duration": 11, "velocity": 90}, {"time": 2159, "pitch": 63, "duration": 23, "velocity": 96}, {"time": 2171, "pitch": 55, "duration": 11, "velocity": 78}, {"time": 2177, "pitch": 58, "duration": 5, "velocity": 99}, {"time": 2183, "pitch": 37, "duration": 42, "velocity": 83}, {"time": 2189, "pitch": 44, "duration": 35, "velocity": 57}, {"time": 2195, "pitch": 49, "duration": 16, "velocity": 88}, {"time": 2201, "pitch": 56, "duration": 19, "velocity": 86}, {"time": 2207, "pitch": 61, "duration": 9, "velocity": 77}, {"time": 2207, "pitch": 65, "duration": 23, "velocity": 73}, {"time": 2213, "pitch": 49, "duration": 10, "velocity": 53}, {"time": 2219, "pitch": 61, "duration": 11, "velocity": 102}, {"time": 2225, "pitch": 56, "duration": 6, "velocity": 96}, {"time": 2231, "pitch": 36, "duration": 15, "velocity": 83}, {"time": 2237, "pitch": 43, "duration": 11, "velocity": 58}, {"time": 2243, "pitch": 60, "duration": 13, "velocity": 86}, {"time": 2243, "pitch": 63, "duration": 13, "velocity": 97}, {"time": 2249, "pitch": 55, "duration": 9, "velocity": 81}, {"time": 2255, "pitch": 41, "duration": 19, "velocity": 69}, {"time": 2261, "pitch": 48, "duration": 13, "velocity": 59}, {"time": 2267, "pitch": 56, "duration": 11, "velocity": 96}, {"time": 2267, "pitch": 60, "duration": 12, "velocity": 86}, {"time": 2273, "pitch": 53, "duration": 6, "velocity": 56}, {"time": 2279, "pitch": 37, "duration": 20, "velocity": 93}, {"time": 2285, "pitch": 44, "duration": 17, "velocity": 54}, {"time": 2291, "pitch": 53, "duration": 13, "velocity": 41}, {"time": 2291, "pitch": 56, "duration": 12, "velocity": 112}, {"time": 2297, "pitch": 49, "duration": 6, "velocity": 75}, {"time": 2303, "pitch": 39, "duration": 19, "velocity": 85}, {"time": 2309, "pitch": 51, "duration": 14, "velocity": 88}, {"time": 2315, "pitch": 46, "duration": 7, "velocity": 29}, {"time": 2315, "pitch": 58, "duration": 12, "velocity": 100}, {"time": 2315, "pitch": 63, "duration": 12, "velocity": 107}, {"time": 2321, "pitch": 55, "duration": 6, "velocity": 90}, {"time": 2327, "pitch": 44, "duration": 15, "velocity": 102}, {"time": 2333, "pitch": 56, "duration": 8, "velocity": 107}, {"time": 2339, "pitch": 60, "duration": 2, "velocity": 85}, {"time": 2339, "pitch": 63, "duration": 2, "velocity": 102}, {"time": 2342, "pitch": 49, "duration": 8, "velocity": 112}, {"time": 2342, "pitch": 56, "duration": 8, "velocity": 122}, {"time": 2342, "pitch": 61, "duration": 7, "velocity": 127}, {"time": 2342, "pitch": 65, "duration": 7, "velocity": 112}, {"time": 2354, "pitch": 48, "duration": 10, "velocity": 97}, {"time": 2354, "pitch": 55, "duration": 10, "velocity": 107}, {"time": 2354, "pitch": 60, "duration": 9, "velocity": 122}, {"time": 2354, "pitch": 63, "duration": 9, "velocity": 127}, {"time": 2375, "pitch": 44, "duration": 23, "velocity": 95}, {"time": 2378, "pitch": 51, "duration": 5, "velocity": 99}, {"time": 2381, "pitch": 56, "duration": 9, "velocity": 102}, {"time": 2384, "pitch": 51, "duration": 4, "velocity": 65}, {"time": 2387, "pitch": 63, "duration": 37, "velocity": 112}, {"time": 2390, "pitch": 51, "duration": 9, "velocity": 36}, {"time": 2393, "pitch": 60, "duration": 14, "velocity": 69}, {"time": 2396, "pitch": 56, "duration": 8, "velocity": 112}, {"time": 2399, "pitch": 44, "duration": 19, "velocity": 99}, {"time": 2402, "pitch": 51, "duration": 10, "velocity": 93}, {"time": 2405, "pitch": 56, "duration": 5, "velocity": 97}, {"time": 2408, "pitch": 60, "duration": 11, "velocity": 48}, {"time": 2408, "pitch": 68, "duration": 15, "velocity": 102}, {"time": 2411, "pitch": 56, "duration": 4, "velocity": 86}, {"time": 2414, "pitch": 51, "duration": 3, "velocity": 77}, {"time": 2417, "pitch": 56, "duration": 6, "velocity": 95}, {"time": 2420, "pitch": 60, "duration": 3, "velocity": 69}, {"time": 2423, "pitch": 41, "duration": 21, "velocity": 75}, {"time": 2426, "pitch": 48, "duration": 9, "velocity": 93}, {"time": 2426, "pitch": 61, "duration": 1, "velocity": 37}, {"time": 2429, "pitch": 53, "duration": 7, "velocity": 88}, {"time": 2432, "pitch": 56, "duration": 3, "velocity": 90}, {"time": 2435, "pitch": 60, "duration": 15, "velocity": 112}, {"time": 2438, "pitch": 48, "duration": 9, "velocity": 82}, {"time": 2441, "pitch": 56, "duration": 9, "velocity": 99}, {"time": 2444, "pitch": 53, "duration": 4, "velocity": 90}, {"time": 2447, "pitch": 41, "duration": 18, "velocity": 90}, {"time": 2450, "pitch": 48, "duration": 10, "velocity": 83}, {"time": 2453, "pitch": 53, "duration": 8, "velocity": 83}, {"time": 2456, "pitch": 56, "duration": 4, "velocity": 99}, {"time": 2459, "pitch": 60, "duration": 11, "velocity": 102}, {"time": 2462, "pitch": 48, "duration": 2, "velocity": 66}, {"time": 2465, "pitch": 56, "duration": 5, "velocity": 112}, {"time": 2468, "pitch": 53, "duration": 4, "velocity": 92}, {"time": 2471, "pitch": 37, "duration": 22, "velocity": 81}, {"time": 2474, "pitch": 49, "duration": 10, "velocity": 72}, {"time": 2477, "pitch": 53, "duration": 8, "velocity": 79}, {"time": 2480, "pitch": 56, "duration": 4, "velocity": 92}, {"time": 2483, "pitch": 44, "duration": 11, "velocity": 33}, {"time": 2483, "pitch": 61, "duration": 14, "velocity": 112}, {"time": 2486, "pitch": 49, "duration": 9, "velocity": 85}, {"time": 2489, "pitch": 56, "duration": 8, "velocity": 99}, {"time": 2492, "pitch": 53, "duration": 4, "velocity": 90}, {"time": 2495, "pitch": 37, "duration": 18, "velocity": 77}, {"time": 2498, "pitch": 44, "duration": 15, "velocity": 59}, {"time": 2501, "pitch": 49, "duration": 7, "velocity": 97}, {"time": 2504, "pitch": 53, "duration": 3, "velocity": 85}, {"time": 2507, "pitch": 56, "duration": 6, "velocity": 102}, {"time": 2507, "pitch": 61, "duration": 12, "velocity": 127}, {"time": 2510, "pitch": 49, "duration": 7, "velocity": 90}, {"time": 2513, "pitch": 53, "duration": 5, "velocity": 96}, {"time": 2516, "pitch": 56, "duration": 3, "velocity": 112}, {"time": 2519, "pitch": 39, "duration": 22, "velocity": 81}, {"time": 2522, "pitch": 46, "duration": 20, "velocity": 73}, {"time": 2525, "pitch": 51, "duration": 7, "velocity": 90}, {"time": 2528, "pitch": 55, "duration": 6, "velocity": 88}, {"time": 2531, "pitch": 63, "duration": 17, "velocity": 122}, {"time": 2534, "pitch": 51, "duration": 10, "velocity": 90}, {"time": 2537, "pitch": 58, "duration": 12, "velocity": 112}, {"time": 2540, "pitch": 55, "duration": 9, "velocity": 89}, {"time": 2543, "pitch": 39, "duration": 17, "velocity": 79}, {"time": 2546, "pitch": 46, "duration": 14, "velocity": 76}, {"time": 2549, "pitch": 51, "duration": 7, "velocity": 100}, {"time": 2552, "pitch": 55, "duration": 5, "velocity": 92}, {"time": 2555, "pitch": 63, "duration": 11, "velocity": 117}, {"time": 2558, "pitch": 51, "duration": 4, "velocity": 93}, {"time": 2561, "pitch": 58, "duration": 4, "velocity": 117}, {"time": 2564, "pitch": 55, "duration": 3, "velocity": 97}, {"time": 2567, "pitch": 44, "duration": 23, "velocity": 95}, {"time": 2570, "pitch": 51, "duration": 5, "velocity": 99}, {"time": 2573, "pitch": 56, "duration": 9, "velocity": 102}, {"time": 2576, "pitch": 51, "duration": 4, "velocity": 65}, {"time": 2579, "pitch": 63, "duration": 37, "velocity": 112}, {"time": 2582, "pitch": 51, "duration": 9, "velocity": 36}, {"time": 2585, "pitch": 60, "duration": 14, "velocity": 69}, {"time": 2588, "pitch": 56, "duration": 8, "velocity": 112}, {"time": 2591, "pitch": 44, "duration": 19, "velocity": 99}, {"time": 2594, "pitch": 51, "duration": 10, "velocity": 93}, {"time": 2597, "pitch": 56, "duration": 5, "velocity": 97}, {"time": 2600, "pitch": 60, "duration": 11, "velocity": 48}, {"time": 2600, "pitch": 68, "duration": 15, "velocity": 102}, {"time": 2603, "pitch": 56, "duration": 4, "velocity": 86}, {"time": 2606, "pitch": 51, "duration": 3, "velocity": 77}, {"time": 2609, "pitch": 56, "duration": 6, "velocity": 95}, {"time": 2612, "pitch": 60, "duration": 3, "velocity": 69}, {"time": 2615, "pitch": 41, "duration": 21, "velocity": 75}, {"time": 2618, "pitch": 48, "duration": 9, "velocity": 93}, {"time": 2618, "pitch": 61, "duration": 1, "velocity": 37}, {"time": 2621, "pitch": 53, "duration": 7, "velocity": 88}, {"time": 2624, "pitch": 56, "duration": 3, "velocity": 90}, {"time": 2627, "pitch": 60, "duration": 15, "velocity": 112}, {"time": 2630, "pitch": 48, "duration": 9, "velocity": 82}, {"time": 2633, "pitch": 56, "duration": 9, "velocity": 99}, {"time": 2636, "pitch": 53, "duration": 4, "velocity": 90}, {"time": 2639, "pitch": 41, "duration": 18, "velocity": 90}, {"time": 2642, "pitch": 48, "duration": 10, "velocity": 83}, {"time": 2645, "pitch": 53, "duration": 8, "velocity": 83}, {"time": 2648, "pitch": 56, "duration": 4, "velocity": 99}, {"time": 2651, "pitch": 60, "duration": 11, "velocity": 102}, {"time": 2654, "pitch": 48, "duration": 2, "velocity": 66}, {"time": 2657, "pitch": 56, "duration": 5, "velocity": 112}, {"time": 2660, "pitch": 53, "duration": 4, "velocity": 92}, {"time": 2663, "pitch": 37, "duration": 22, "velocity": 81}, {"time": 2666, "pitch": 49, "duration": 10, "velocity": 72}, {"time": 2669, "pitch": 53, "duration": 8, "velocity": 79}, {"time": 2672, "pitch": 56, "duration": 4, "velocity": 92}, {"time": 2675, "pitch": 44, "duration": 11, "velocity": 33}, {"time": 2675, "pitch": 61, "duration": 12, "velocity": 112}, {"time": 2678, "pitch": 49, "duration": 9, "velocity": 85}, {"time": 2681, "pitch": 56, "duration": 6, "velocity": 99}, {"time": 2684, "pitch": 53, "duration": 3, "velocity": 90}, {"time": 2687, "pitch": 39, "duration": 20, "velocity": 93}, {"time": 2690, "pitch": 46, "duration": 17, "velocity": 69}, {"time": 2693, "pitch": 51, "duration": 7, "velocity": 83}, {"time": 2696, "pitch": 55, "duration": 6, "velocity": 76}, {"time": 2699, "pitch": 63, "duration": 12, "velocity": 93}, {"time": 2702, "pitch": 51, "duration": 6, "velocity": 76}, {"time": 2705, "pitch": 58, "duration": 5, "velocity": 73}, {"time": 2708, "pitch": 55, "duration": 3, "velocity": 72}, {"time": 2711, "pitch": 44, "duration": 11, "velocity": 92}, {"time": 2711, "pitch": 56, "duration": 6, "velocity": 97}, {"time": 2711, "pitch": 60, "duration": 6, "velocity": 102}, {"time": 2711, "pitch": 63, "duration": 7, "velocity": 112}, {"time": 2723, "pitch": 48, "duration": 12, "velocity": 100}, {"time": 2723, "pitch": 60, "duration": 9, "velocity": 102}, {"time": 2723, "pitch": 63, "duration": 7, "velocity": 122}, {"time": 2723, "pitch": 67, "duration": 7, "velocity": 97}, {"time": 2735, "pitch": 41, "duration": 12, "velocity": 69}, {"time": 2735, "pitch": 53, "duration": 11, "velocity": 97}, {"time": 2735, "pitch": 56, "duration": 11, "velocity": 112}, {"time": 2735, "pitch": 60, "duration": 11, "velocity": 97}, {"time": 2747, "pitch": 39, "duration": 10, "velocity": 88}, {"time": 2747, "pitch": 51, "duration": 10, "velocity": 83}, {"time": 2747, "pitch": 55, "duration": 10, "velocity": 95}, {"time": 2747, "pitch": 58, "duration": 10, "velocity": 117}, {"time": 2747, "pitch": 63, "duration": 10, "velocity": 97}, {"time": 2759, "pitch": 44, "duration": 6, "velocity": 96}, {"time": 2759, "pitch": 63, "duration": 2, "velocity": 107}, {"time": 2762, "pitch": 56, "duration": 3, "velocity": 77}, {"time": 2765, "pitch": 44, "duration": 5, "velocity": 92}, {"time": 2765, "pitch": 60, "duration": 4, "velocity": 76}, {"time": 2768, "pitch": 56, "duration": 4, "velocity": 89}, {"time": 2771, "pitch": 44, "duration": 5, "velocity": 70}, {"time": 2771, "pitch": 63, "duration": 5, "velocity": 122}, {"time": 2774, "pitch": 56, "duration": 4, "velocity": 93}, {"time": 2777, "pitch": 44, "duration": 5, "velocity": 66}, {"time": 2777, "pitch": 60, "duration": 3, "velocity": 72}, {"time": 2780, "pitch": 56, "duration": 3, "velocity": 73}, {"time": 2783, "pitch": 43, "duration": 5, "velocity": 66}, {"time": 2783, "pitch": 63, "duration": 3, "velocity": 99}, {"time": 2786, "pitch": 55, "duration": 3, "velocity": 89}, {"time": 2789, "pitch": 43, "duration": 5, "velocity": 61}, {"time": 2789, "pitch": 60, "duration": 4, "velocity": 72}, {"time": 2792, "pitch": 55, "duration": 4, "velocity": 70}, {"time": 2795, "pitch": 43, "duration": 5, "velocity": 66}, {"time": 2795, "pitch": 63, "duration": 7, "velocity": 102}, {"time": 2798, "pitch": 55, "duration": 2, "velocity": 69}, {"time": 2801, "pitch": 43, "duration": 5, "velocity": 72}, {"time": 2801, "pitch": 60, "duration": 4, "velocity": 93}, {"time": 2804, "pitch": 55, "duration": 3, "velocity": 79}, {"time": 2807, "pitch": 41, "duration": 4, "velocity": 74}, {"time": 2807, "pitch": 60, "duration": 5, "velocity": 97}, {"time": 2810, "pitch": 53, "duration": 4, "velocity": 82}, {"time": 2813, "pitch": 41, "duration": 5, "velocity": 65}, {"time": 2813, "pitch": 56, "duration": 4, "velocity": 112}, {"time": 2816, "pitch": 53, "duration": 4, "velocity": 78}, {"time": 2819, "pitch": 41, "duration": 5, "velocity": 72}, {"time": 2819, "pitch": 60, "duration": 4, "velocity": 95}, {"time": 2822, "pitch": 53, "duration": 3, "velocity": 88}, {"time": 2825, "pitch": 41, "duration": 4, "velocity": 77}, {"time": 2825, "pitch": 56, "duration": 3, "velocity": 107}, {"time": 2828, "pitch": 53, "duration": 3, "velocity": 95}, {"time": 2831, "pitch": 39, "duration": 4, "velocity": 88}, {"time": 2831, "pitch": 63, "duration": 4, "velocity": 112}, {"time": 2834, "pitch": 55, "duration": 2, "velocity": 82}, {"time": 2837, "pitch": 39, "duration": 5, "velocity": 75}, {"time": 2837, "pitch": 58, "duration": 4, "velocity": 117}, {"time": 2840, "pitch": 55, "duration": 4, "velocity": 81}, {"time": 2843, "pitch": 39, "duration": 5, "velocity": 68}, {"time": 2843, "pitch": 63, "duration": 5, "velocity": 102}, {"time": 2846, "pitch": 55, "duration": 2, "velocity": 82}, {"time": 2849, "pitch": 39, "duration": 5, "velocity": 79}, {"time": 2849, "pitch": 58, "duration": 3, "velocity": 112}, {"time": 2852, "pitch": 55, "duration": 3, "velocity": 90}, {"time": 2855, "pitch": 37, "duration": 4, "velocity": 86}, {"time": 2855, "pitch": 61, "duration": 4, "velocity": 112}, {"time": 2858, "pitch": 53, "duration": 2, "velocity": 78}, {"time": 2861, "pitch": 37, "duration": 4, "velocity": 88}, {"time": 2861, "pitch": 56, "duration": 4, "velocity": 96}, {"time": 2864, "pitch": 53, "duration": 4, "velocity": 69}, {"time": 2867, "pitch": 37, "duration": 4, "velocity": 88}, {"time": 2867, "pitch": 61, "duration": 4, "velocity": 102}, {"time": 2870, "pitch": 53, "duration": 2, "velocity": 69}, {"time": 2873, "pitch": 37, "duration": 4, "velocity": 90}, {"time": 2873, "pitch": 56, "duration": 3, "velocity": 112}, {"time": 2876, "pitch": 53, "duration": 3, "velocity": 81}, {"time": 2879, "pitch": 46, "duration": 5, "velocity": 95}, {"time": 2879, "pitch": 58, "duration": 4, "velocity": 88}, {"time": 2882, "pitch": 53, "duration": 4, "velocity": 77}, {"time": 2885, "pitch": 46, "duration": 5, "velocity": 82}, {"time": 2885, "pitch": 58, "duration": 4, "velocity": 92}, {"time": 2888, "pitch": 53, "duration": 4, "velocity": 79}, {"time": 2891, "pitch": 46, "duration": 4, "velocity": 85}, {"time": 2891, "pitch": 61, "duration": 5, "velocity": 117}, {"time": 2894, "pitch": 53, "duration": 3, "velocity": 78}, {"time": 2897, "pitch": 46, "duration": 4, "velocity": 95}, {"time": 2897, "pitch": 58, "duration": 4, "velocity": 107}, {"time": 2900, "pitch": 53, "duration": 3, "velocity": 89}, {"time": 2903, "pitch": 39, "duration": 5, "velocity": 99}, {"time": 2903, "pitch": 63, "duration": 4, "velocity": 112}, {"time": 2906, "pitch": 55, "duration": 2, "velocity": 82}, {"time": 2909, "pitch": 39, "duration": 4, "velocity": 55}, {"time": 2909, "pitch": 51, "duration": 3, "velocity": 76}, {"time": 2909, "pitch": 58, "duration": 4, "velocity": 107}, {"time": 2912, "pitch": 55, "duration": 2, "velocity": 78}, {"time": 2915, "pitch": 39, "duration": 4, "velocity": 72}, {"time": 2915, "pitch": 51, "duration": 4, "velocity": 73}, {"time": 2915, "pitch": 63, "duration": 4, "velocity": 107}, {"time": 2918, "pitch": 55, "duration": 2, "velocity": 79}, {"time": 2921, "pitch": 39, "duration": 4, "velocity": 66}, {"time": 2921, "pitch": 51, "duration": 3, "velocity": 71}, {"time": 2921, "pitch": 58, "duration": 3, "velocity": 117}, {"time": 2924, "pitch": 55, "duration": 3, "velocity": 93}, {"time": 2927, "pitch": 39, "duration": 5, "velocity": 83}, {"time": 2927, "pitch": 58, "duration": 2, "velocity": 73}, {"time": 2930, "pitch": 51, "duration": 2, "velocity": 74}, {"time": 2930, "pitch": 55, "duration": 3, "velocity": 67}, {"time": 2933, "pitch": 39, "duration": 4, "velocity": 74}, {"time": 2933, "pitch": 51, "duration": 4, "velocity": 59}, {"time": 2933, "pitch": 58, "duration": 4, "velocity": 96}, {"time": 2936, "pitch": 55, "duration": 4, "velocity": 73}, {"time": 2939, "pitch": 39, "duration": 4, "velocity": 72}, {"time": 2939, "pitch": 51, "duration": 3, "velocity": 66}, {"time": 2939, "pitch": 63, "duration": 4, "velocity": 112}, {"time": 2942, "pitch": 55, "duration": 3, "velocity": 69}, {"time": 2945, "pitch": 39, "duration": 5, "velocity": 74}, {"time": 2945, "pitch": 51, "duration": 5, "velocity": 78}, {"time": 2945, "pitch": 58, "duration": 3, "velocity": 97}, {"time": 2948, "pitch": 55, "duration": 3, "velocity": 89}, {"time": 2951, "pitch": 44, "duration": 6, "velocity": 96}, {"time": 2951, "pitch": 63, "duration": 2, "velocity": 107}, {"time": 2954, "pitch": 56, "duration": 3, "velocity": 77}, {"time": 2957, "pitch": 44, "duration": 5, "velocity": 92}, {"time": 2957, "pitch": 60, "duration": 4, "velocity": 76}, {"time": 2960, "pitch": 56, "duration": 4, "velocity": 89}, {"time": 2963, "pitch": 44, "duration": 5, "velocity": 70}, {"time": 2963, "pitch": 63, "duration": 5, "velocity": 122}, {"time": 2966, "pitch": 56, "duration": 4, "velocity": 93}, {"time": 2969, "pitch": 44, "duration": 5, "velocity": 66}, {"time": 2969, "pitch": 60, "duration": 3, "velocity": 72}, {"time": 2972, "pitch": 56, "duration": 3, "velocity": 73}, {"time": 2975, "pitch": 43, "duration": 5, "velocity": 66}, {"time": 2975, "pitch": 63, "duration": 3, "velocity": 99}, {"time": 2978, "pitch": 55, "duration": 3, "velocity": 89}, {"time": 2981, "pitch": 43, "duration": 5, "velocity": 61}, {"time": 2981, "pitch": 60, "duration": 4, "velocity": 72}, {"time": 2984, "pitch": 55, "duration": 4, "velocity": 70}, {"time": 2987, "pitch": 43, "duration": 5, "velocity": 66}, {"time": 2987, "pitch": 63, "duration": 7, "velocity": 102}, {"time": 2990, "pitch": 55, "duration": 2, "velocity": 69}, {"time": 2993, "pitch": 43, "duration": 5, "velocity": 72}, {"time": 2993, "pitch": 60, "duration": 4, "velocity": 93}, {"time": 2996, "pitch": 55, "duration": 3, "velocity": 79}, {"time": 2999, "pitch": 41, "duration": 4, "velocity": 74}, {"time": 2999, "pitch": 60, "duration": 5, "velocity": 97}, {"time": 3002, "pitch": 53, "duration": 4, "velocity": 82}, {"time": 3005, "pitch": 41, "duration": 5, "velocity": 65}, {"time": 3005, "pitch": 56, "duration": 4, "velocity": 112}, {"time": 3008, "pitch": 53, "duration": 4, "velocity": 78}, {"time": 3011, "pitch": 41, "duration": 5, "velocity": 72}, {"time": 3011, "pitch": 60, "duration": 4, "velocity": 95}, {"time": 3014, "pitch": 53, "duration": 3, "velocity": 88}, {"time": 3017, "pitch": 41, "duration": 4, "velocity": 77}, {"time": 3017, "pitch": 56, "duration": 3, "velocity": 107}, {"time": 3020, "pitch": 53, "duration": 3, "velocity": 95}, {"time": 3023, "pitch": 39, "duration": 4, "velocity": 88}, {"time": 3023, "pitch": 63, "duration": 4, "velocity": 112}, {"time": 3026, "pitch": 55, "duration": 2, "velocity": 82}, {"time": 3029, "pitch": 39, "duration": 5, "velocity": 75}, {"time": 3029, "pitch": 58, "duration": 4, "velocity": 117}, {"time": 3032, "pitch": 55, "duration": 4, "velocity": 81}, {"time": 3035, "pitch": 39, "duration": 5, "velocity": 68}, {"time": 3035, "pitch": 63, "duration": 5, "velocity": 102}, {"time": 3038, "pitch": 55, "duration": 2, "velocity": 82}, {"time": 3041, "pitch": 39, "duration": 5, "velocity": 79}, {"time": 3041, "pitch": 58, "duration": 3, "velocity": 112}, {"time": 3044, "pitch": 55, "duration": 3, "velocity": 90}, {"time": 3047, "pitch": 49, "duration": 13, "velocity": 102}, {"time": 3047, "pitch": 56, "duration": 12, "velocity": 107}, {"time": 3047, "pitch": 61, "duration": 13, "velocity": 107}, {"time": 3047, "pitch": 65, "duration": 12, "velocity": 92}, {"time": 3071, "pitch": 39, "duration": 24, "velocity": 82}, {"time": 3071, "pitch": 51, "duration": 24, "velocity": 74}, {"time": 3071, "pitch": 58, "duration": 24, "velocity": 97}, {"time": 3071, "pitch": 63, "duration": 24, "velocity": 97}, {"time": 3071, "pitch": 67, "duration": 24, "velocity": 78}, {"time": 3095, "pitch": 44, "duration": 48, "velocity": 66}, {"time": 3095, "pitch": 56, "duration": 47, "velocity": 69}, {"time": 3095, "pitch": 60, "duration": 47, "velocity": 71}, {"time": 3095, "pitch": 63, "duration": 1, "velocity": 63}, {"time": 3144, "pitch": 56, "duration": 19, "velocity": 52}, {"time": 3144, "pitch": 61, "duration": 19, "velocity": 59}, {"time": 3144, "pitch": 49, "duration": 21, "velocity": 33}, {"time": 3144, "pitch": 37, "duration": 20, "velocity": 44}, {"time": 3144, "pitch": 65, "duration": 19, "velocity": 44}, {"time": 3176, "pitch": 51, "duration": 36, "velocity": 49}, {"time": 3176, "pitch": 58, "duration": 36, "velocity": 52}, {"time": 3176, "pitch": 39, "duration": 37, "velocity": 55}, {"time": 3176, "pitch": 63, "duration": 36, "velocity": 59}, {"time": 3176, "pitch": 67, "duration": 36, "velocity": 59}, {"time": 3234, "pitch": 32, "duration": 17, "velocity": 42}, {"time": 3235, "pitch": 39, "duration": 16, "velocity": 40}, {"time": 3235, "pitch": 56, "duration": 17, "velocity": 56}, {"time": 3235, "pitch": 44, "duration": 18, "velocity": 74}, {"time": 3236, "pitch": 60, "duration": 17, "velocity": 69}, {"time": 3237, "pitch": 63, "duration": 17, "velocity": 65}, {"time": 3238, "pitch": 68, "duration": 16, "velocity": 76}, {"time": 3254, "pitch": 68, "duration": 1, "velocity": 64}, {"time": 3258, "pitch": 72, "duration": 12, "velocity": 70}, {"time": 3263, "pitch": 75, "duration": 20, "velocity": 68}, {"time": 3268, "pitch": 80, "duration": 55, "velocity": 49}, {"time": 3273, "pitch": 84, "duration": 51, "velocity": 43}, {"time": 3279, "pitch": 87, "duration": 45, "velocity": 49}, {"time": 3285, "pitch": 92, "duration": 39, "velocity": 64}], "annotations": [{"time": 19, "annotation": {"number": 64, "value": 127}, "group": "control_change"}, {"time": 20, "annotation": {"number": 64, "value": 0}, "group": "control_change"}, {"time": 47, "annotation": {"number": 64, "value": 127}, "group": "control_change"}, {"time": 70, "annotation": {"number": 64, "value": 0}, "group": "control_change"}, {"time": 76, "annotation": {"number": 64, "value": 127}, "group": "control_change"}, {"time": 93, "annotation": {"number": 64, "value": 0}, "group": "control_change"}, {"time": 99, "annotation": {"number": 64, "value": 127}, "group": "control_change"}, {"time": 104, "annotation": {"number": 64, "value": 0}, "group": "control_change"}, {"time": 112, "annotation": {"number": 64, "value": 127}, "group": "control_change"}, {"time": 116, "annotation": {"number": 64, "value": 0}, "group": "control_change"}, {"time": 120, "annotation": {"number": 64, "value": 127}, "group": "control_change"}, {"time": 125, "annotation": {"number": 64, "value": 0}, "group": "control_change"}, {"time": 151, "annotation": {"number": 64, "value": 127}, "group": "control_change"}, {"time": 164, "annotation": {"number": 64, "value": 0}, "group": "control_change"}, {"time": 191, "annotation": {"number": 64, "value": 127}, "group": "control_change"}, {"time": 213, "annotation": {"number": 64, "value": 0}, "group": "control_change"}, {"time": 215, "annotation": {"number": 64, "value": 127}, "group": "control_change"}, {"time": 221, "annotation": {"number": 64, "value": 127}, "group": "control_change"}, {"time": 236, "annotation": {"number": 64, "value": 0}, "group": "control_change"}, {"time": 249, "annotation": {"number": 64, "value": 0}, "group": "control_change"}, {"time": 251, "annotation": {"number": 64, "value": 127}, "group": "control_change"}, {"time": 262, "annotation": {"number": 64, "value": 0}, "group": "control_change"}, {"time": 264, "annotation": {"number": 64, "value": 127}, "group": "control_change"}, {"time": 311, "annotation": {"number": 64, "value": 0}, "group": "control_change"}, {"time": 313, "annotation": {"number": 64, "value": 127}, "group": "control_change"}, {"time": 358, "annotation": {"number": 64, "value": 0}, "group": "control_change"}, {"time": 360, "annotation": {"number": 64, "value": 127}, "group": "control_change"}, {"time": 406, "annotation": {"number": 64, "value": 0}, "group": "control_change"}, {"time": 409, "annotation": {"number": 64, "value": 127}, "group": "control_change"}, {"time": 453, "annotation": {"number": 64, "value": 0}, "group": "control_change"}, {"time": 455, "annotation": {"number": 64, "value": 127}, "group": "control_change"}, {"time": 501, "annotation": {"number": 64, "value": 0}, "group": "control_change"}, {"time": 504, "annotation": {"number": 64, "value": 127}, "group": "control_change"}, {"time": 524, "annotation": {"number": 64, "value": 0}, "group": "control_change"}, {"time": 529, "annotation": {"number": 64, "value": 127}, "group": "control_change"}, {"time": 550, "annotation": {"number": 64, "value": 0}, "group": "control_change"}, {"time": 554, "annotation": {"number": 64, "value": 127}, "group": "control_change"}, {"time": 574, "annotation": {"number": 64, "value": 0}, "group": "control_change"}, {"time": 579, "annotation": {"number": 64, "value": 127}, "group": "control_change"}, {"time": 598, "annotation": {"number": 64, "value": 0}, "group": "control_change"}, {"time": 601, "annotation": {"number": 64, "value": 127}, "group": "control_change"}, {"time": 622, "annotation": {"number": 64, "value": 0}, "group": "control_change"}, {"time": 625, "annotation": {"number": 64, "value": 127}, "group": "control_change"}, {"time": 646, "annotation": {"number": 64, "value": 0}, "group": "control_change"}, {"time": 648, "annotation": {"number": 64, "value": 127}, "group": "control_change"}, {"time": 695, "annotation": {"number": 64, "value": 0}, "group": "control_change"}, {"time": 697, "annotation": {"number": 64, "value": 127}, "group": "control_change"}, {"time": 742, "annotation": {"number": 64, "value": 0}, "group": "control_change"}, {"time": 744, "annotation": {"number": 64, "value": 127}, "group": "control_change"}, {"time": 790, "annotation": {"number": 64, "value": 0}, "group": "control_change"}, {"time": 793, "annotation": {"number": 64, "value": 127}, "group": "control_change"}, {"time": 837, "annotation": {"number": 64, "value": 0}, "group": "control_change"}, {"time": 839, "annotation": {"number": 64, "value": 127}, "group": "control_change"}, {"time": 885, "annotation": {"number": 64, "value": 0}, "group": "control_change"}, {"time": 888, "annotation": {"number": 64, "value": 127}, "group": "control_change"}, {"time": 908, "annotation": {"number": 64, "value": 0}, "group": "control_change"}, {"time": 913, "annotation": {"number": 64, "value": 127}, "group": "control_change"}, {"time": 934, "annotation": {"number": 64, "value": 0}, "group": "control_change"}, {"time": 936, "annotation": {"number": 64, "value": 127}, "group": "control_change"}, {"time": 957, "annotation": {"number": 64, "value": 0}, "group": "control_change"}, {"time": 960, "annotation": {"number": 64, "value": 127}, "group": "control_change"}, {"time": 982, "annotation": {"number": 64, "value": 0}, "group": "control_change"}, {"time": 983, "annotation": {"number": 64, "value": 127}, "group": "control_change"}, {"time": 997, "annotation": {"number": 64, "value": 0}, "group": "control_change"}, {"time": 1032, "annotation": {"number": 64, "value": 127}, "group": "control_change"}, {"time": 1033, "annotation": {"number": 64, "value": 0}, "group": "control_change"}, {"time": 1034, "annotation": {"number": 64, "value": 127}, "group": "control_change"}, {"time": 1036, "annotation": {"number": 64, "value": 127}, "group": "control_change"}, {"time": 1078, "annotation": {"number": 64, "value": 0}, "group": "control_change"}, {"time": 1081, "annotation": {"number": 64, "value": 127}, "group": "control_change"}, {"time": 1100, "annotation": {"number": 64, "value": 0}, "group": "control_change"}, {"time": 1104, "annotation": {"number": 64, "value": 127}, "group": "control_change"}, {"time": 1126, "annotation": {"number": 64, "value": 0}, "group": "control_change"}, {"time": 1142, "annotation": {"number": 64, "value": 127}, "group": "control_change"}, {"time": 1148, "annotation": {"number": 64, "value": 0}, "group": "control_change"}, {"time": 1154, "annotation": {"number": 64, "value": 127}, "group": "control_change"}, {"time": 1172, "annotation": {"number": 64, "value": 0}, "group": "control_change"}, {"time": 1176, "annotation": {"number": 64, "value": 127}, "group": "control_change"}, {"time": 1197, "annotation": {"number": 64, "value": 0}, "group": "control_change"}, {"time": 1204, "annotation": {"number": 64, "value": 127}, "group": "control_change"}, {"time": 1222, "annotation": {"number": 64, "value": 0}, "group": "control_change"}, {"time": 1224, "annotation": {"number": 64, "value": 127}, "group": "control_change"}, {"time": 1225, "annotation": {"number": 64, "value": 0}, "group": "control_change"}, {"time": 1226, "annotation": {"number": 64, "value": 127}, "group": "control_change"}, {"time": 1228, "annotation": {"number": 64, "value": 127}, "group": "control_change"}, {"time": 1270, "annotation": {"number": 64, "value": 0}, "group": "control_change"}, {"time": 1273, "annotation": {"number": 64, "value": 127}, "group": "control_change"}, {"time": 1292, "annotation": {"number": 64, "value": 0}, "group": "control_change"}, {"time": 1296, "annotation": {"number": 64, "value": 127}, "group": "control_change"}, {"time": 1318, "annotation": {"number": 64, "value": 0}, "group": "control_change"}, {"time": 1334, "annotation": {"number": 64, "value": 127}, "group": "control_change"}, {"time": 1340, "annotation": {"number": 64, "value": 0}, "group": "control_change"}, {"time": 1343, "annotation": {"number": 64, "value": 127}, "group": "control_change"}, {"time": 1365, "annotation": {"number": 64, "value": 0}, "group": "control_change"}, {"time": 1368, "annotation": {"number": 64, "value": 127}, "group": "control_change"}, {"time": 1389, "annotation": {"number": 64, "value": 0}, "group": "control_change"}, {"time": 1415, "annotation": {"number": 64, "value": 127}, "group": "control_change"}, {"time": 1438, "annotation": {"number": 64, "value": 0}, "group": "control_change"}, {"time": 1441, "annotation": {"number": 64, "value": 127}, "group": "control_change"}, {"time": 1463, "annotation": {"number": 64, "value": 0}, "group": "control_change"}, {"time": 1475, "annotation": {"number": 64, "value": 127}, "group": "control_change"}, {"time": 1478, "annotation": {"number": 64, "value": 0}, "group": "control_change"}, {"time": 1487, "annotation": {"number": 64, "value": 127}, "group": "control_change"}, {"time": 1509, "annotation": {"number": 64, "value": 0}, "group": "control_change"}, {"time": 1512, "annotation": {"number": 64, "value": 127}, "group": "control_change"}, {"time": 1534, "annotation": {"number": 64, "value": 0}, "group": "control_change"}, {"time": 1537, "annotation": {"number": 64, "value": 127}, "group": "control_change"}, {"time": 1558, "annotation": {"number": 64, "value": 0}, "group": "control_change"}, {"time": 1561, "annotation": {"number": 64, "value": 127}, "group": "control_change"}, {"time": 1576, "annotation": {"number": 64, "value": 0}, "group": "control_change"}, {"time": 1584, "annotation": {"number": 64, "value": 127}, "group": "control_change"}, {"time": 1606, "annotation": {"number": 64, "value": 0}, "group": "control_change"}, {"time": 1608, "annotation": {"number": 64, "value": 127}, "group": "control_change"}, {"time": 1655, "annotation": {"number": 64, "value": 0}, "group": "control_change"}, {"time": 1657, "annotation": {"number": 64, "value": 127}, "group": "control_change"}, {"time": 1702, "annotation": {"number": 64, "value": 0}, "group": "control_change"}, {"time": 1704, "annotation": {"number": 64, "value": 127}, "group": "control_change"}, {"time": 1750, "annotation": {"number": 64, "value": 0}, "group": "control_change"}, {"time": 1753, "annotation": {"number": 64, "value": 127}, "group": "control_change"}, {"time": 1797, "annotation": {"number": 64, "value": 0}, "group": "control_change"}, {"time": 1799, "annotation": {"number": 64, "value": 127}, "group": "control_change"}, {"time": 1845, "annotation": {"number": 64, "value": 0}, "group": "control_change"}, {"time": 1848, "annotation": {"number": 64, "value": 127}, "group": "control_change"}, {"time": 1868, "annotation": {"number": 64, "value": 0}, "group": "control_change"}, {"time": 1873, "annotation": {"number": 64, "value": 127}, "group": "control_change"}, {"time": 1894, "annotation": {"number": 64, "value": 0}, "group": "control_change"}, {"time": 1898, "annotation": {"number": 64, "value": 127}, "group": "control_change"}, {"time": 1918, "annotation": {"number": 64, "value": 0}, "group": "control_change"}, {"time": 1923, "annotation": {"number": 64, "value": 127}, "group": "control_change"}, {"time": 1942, "annotation": {"number": 64, "value": 0}, "group": "control_change"}, {"time": 1945, "annotation": {"number": 64, "value": 127}, "group": "control_change"}, {"time": 1966, "annotation": {"number": 64, "value": 0}, "group": "control_change"}, {"time": 1969, "annotation": {"number": 64, "value": 127}, "group": "control_change"}, {"time": 1990, "annotation": {"number": 64, "value": 0}, "group": "control_change"}, {"time": 1992, "annotation": {"number": 64, "value": 127}, "group": "control_change"}, {"time": 2039, "annotation": {"number": 64, "value": 0}, "group": "control_change"}, {"time": 2041, "annotation": {"number": 64, "value": 127}, "group": "control_change"}, {"time": 2086, "annotation": {"number": 64, "value": 0}, "group": "control_change"}, {"time": 2088, "annotation": {"number": 64, "value": 127}, "group": "control_change"}, {"time": 2134, "annotation": {"number": 64, "value": 0}, "group": "control_change"}, {"time": 2137, "annotation": {"number": 64, "value": 127}, "group": "control_change"}, {"time": 2181, "annotation": {"number": 64, "value": 0}, "group": "control_change"}, {"time": 2183, "annotation": {"number": 64, "value": 127}, "group": "control_change"}, {"time": 2229, "annotation": {"number": 64, "value": 0}, "group": "control_change"}, {"time": 2232, "annotation": {"number": 64, "value": 127}, "group": "control_change"}, {"time": 2252, "annotation": {"number": 64, "value": 0}, "group": "control_change"}, {"time": 2257, "annotation": {"number": 64, "value": 127}, "group": "control_change"}, {"time": 2278, "annotation": {"number": 64, "value": 0}, "group": "control_change"}, {"time": 2280, "annotation": {"number": 64, "value": 127}, "group": "control_change"}, {"time": 2301, "annotation": {"number": 64, "value": 0}, "group": "control_change"}, {"time": 2304, "annotation": {"number": 64, "value": 127}, "group": "control_change"}, {"time": 2326, "annotation": {"number": 64, "value": 0}, "group": "control_change"}, {"time": 2327, "annotation": {"number": 64, "value": 127}, "group": "control_change"}, {"time": 2341, "annotation": {"number": 64, "value": 0}, "group": "control_change"}, {"time": 2376, "annotation": {"number": 64, "value": 127}, "group": "control_change"}, {"time": 2377, "annotation": {"number": 64, "value": 0}, "group": "control_change"}, {"time": 2378, "annotation": {"number": 64, "value": 127}, "group": "control_change"}, {"time": 2380, "annotation": {"number": 64, "value": 127}, "group": "control_change"}, {"time": 2422, "annotation": {"number": 64, "value": 0}, "group": "control_change"}, {"time": 2425, "annotation": {"number": 64, "value": 127}, "group": "control_change"}, {"time": 2444, "annotation": {"number": 64, "value": 0}, "group": "control_change"}, {"time": 2448, "annotation": {"number": 64, "value": 127}, "group": "control_change"}, {"time": 2470, "annotation": {"number": 64, "value": 0}, "group": "control_change"}, {"time": 2486, "annotation": {"number": 64, "value": 127}, "group": "control_change"}, {"time": 2492, "annotation": {"number": 64, "value": 0}, "group": "control_change"}, {"time": 2498, "annotation": {"number": 64, "value": 127}, "group": "control_change"}, {"time": 2516, "annotation": {"number": 64, "value": 0}, "group": "control_change"}, {"time": 2520, "annotation": {"number": 64, "value": 127}, "group": "control_change"}, {"time": 2541, "annotation": {"number": 64, "value": 0}, "group": "control_change"}, {"time": 2548, "annotation": {"number": 64, "value": 127}, "group": "control_change"}, {"time": 2566, "annotation": {"number": 64, "value": 0}, "group": "control_change"}, {"time": 2568, "annotation": {"number": 64, "value": 127}, "group": "control_change"}, {"time": 2569, "annotation": {"number": 64, "value": 0}, "group": "control_change"}, {"time": 2570, "annotation": {"number": 64, "value": 127}, "group": "control_change"}, {"time": 2572, "annotation": {"number": 64, "value": 127}, "group": "control_change"}, {"time": 2614, "annotation": {"number": 64, "value": 0}, "group": "control_change"}, {"time": 2617, "annotation": {"number": 64, "value": 127}, "group": "control_change"}, {"time": 2636, "annotation": {"number": 64, "value": 0}, "group": "control_change"}, {"time": 2640, "annotation": {"number": 64, "value": 127}, "group": "control_change"}, {"time": 2662, "annotation": {"number": 64, "value": 0}, "group": "control_change"}, {"time": 2678, "annotation": {"number": 64, "value": 127}, "group": "control_change"}, {"time": 2684, "annotation": {"number": 64, "value": 0}, "group": "control_change"}, {"time": 2687, "annotation": {"number": 64, "value": 127}, "group": "control_change"}, {"time": 2709, "annotation": {"number": 64, "value": 0}, "group": "control_change"}, {"time": 2715, "annotation": {"number": 64, "value": 127}, "group": "control_change"}, {"time": 2716, "annotation": {"number": 64, "value": 0}, "group": "control_change"}, {"time": 2718, "annotation": {"number": 64, "value": 127}, "group": "control_change"}, {"time": 2720, "annotation": {"number": 64, "value": 0}, "group": "control_change"}, {"time": 2735, "annotation": {"number": 64, "value": 0}, "group": "control_change"}, {"time": 2738, "annotation": {"number": 64, "value": 127}, "group": "control_change"}, {"time": 2777, "annotation": {"number": 64, "value": 127}, "group": "control_change"}, {"time": 2783, "annotation": {"number": 64, "value": 0}, "group": "control_change"}, {"time": 2795, "annotation": {"number": 64, "value": 127}, "group": "control_change"}, {"time": 2811, "annotation": {"number": 64, "value": 0}, "group": "control_change"}, {"time": 2814, "annotation": {"number": 64, "value": 127}, "group": "control_change"}, {"time": 2840, "annotation": {"number": 64, "value": 0}, "group": "control_change"}, {"time": 2843, "annotation": {"number": 64, "value": 127}, "group": "control_change"}, {"time": 2853, "annotation": {"number": 64, "value": 0}, "group": "control_change"}, {"time": 2855, "annotation": {"number": 64, "value": 127}, "group": "control_change"}, {"time": 2860, "annotation": {"number": 64, "value": 0}, "group": "control_change"}, {"time": 2868, "annotation": {"number": 64, "value": 127}, "group": "control_change"}, {"time": 2871, "annotation": {"number": 64, "value": 0}, "group": "control_change"}, {"time": 2878, "annotation": {"number": 64, "value": 127}, "group": "control_change"}, {"time": 2883, "annotation": {"number": 64, "value": 0}, "group": "control_change"}, {"time": 2885, "annotation": {"number": 64, "value": 127}, "group": "control_change"}, {"time": 2901, "annotation": {"number": 64, "value": 0}, "group": "control_change"}, {"time": 2902, "annotation": {"number": 64, "value": 127}, "group": "control_change"}, {"time": 2919, "annotation": {"number": 64, "value": 0}, "group": "control_change"}, {"time": 2936, "annotation": {"number": 64, "value": 127}, "group": "control_change"}, {"time": 2950, "annotation": {"number": 64, "value": 0}, "group": "control_change"}, {"time": 2969, "annotation": {"number": 64, "value": 127}, "group": "control_change"}, {"time": 2975, "annotation": {"number": 64, "value": 0}, "group": "control_change"}, {"time": 2987, "annotation": {"number": 64, "value": 127}, "group": "control_change"}, {"time": 3003, "annotation": {"number": 64, "value": 0}, "group": "control_change"}, {"time": 3006, "annotation": {"number": 64, "value": 127}, "group": "control_change"}, {"time": 3032, "annotation": {"number": 64, "value": 0}, "group": "control_change"}, {"time": 3035, "annotation": {"number": 64, "value": 127}, "group": "control_change"}, {"time": 3045, "annotation": {"number": 64, "value": 0}, "group": "control_change"}, {"time": 3047, "annotation": {"number": 64, "value": 127}, "group": "control_change"}, {"time": 3070, "annotation": {"number": 64, "value": 0}, "group": "control_change"}, {"time": 3107, "annotation": {"number": 64, "value": 127}, "group": "control_change"}, {"time": 3141, "annotation": {"number": 64, "value": 0}, "group": "control_change"}, {"time": 3160, "annotation": {"number": 64, "value": 127}, "group": "control_change"}, {"time": 3178, "annotation": {"number": 64, "value": 0}, "group": "control_change"}, {"time": 3194, "annotation": {"number": 64, "value": 127}, "group": "control_change"}, {"time": 3194, "annotation": {"number": 64, "value": 0}, "group": "control_change"}, {"time": 3238, "annotation": {"number": 64, "value": 127}, "group": "control_change"}, {"time": 3239, "annotation": {"number": 64, "value": 127}, "group": "control_change"}, {"time": 3241, "annotation": {"number": 64, "value": 0}, "group": "control_change"}, {"time": 3332, "annotation": {"number": 64, "value": 0}, "group": "control_change"}, {"time": 3333, "annotation": {"number": 64, "value": 127}, "group": "control_change"}, {"time": 3335, "annotation": {"number": 64, "value": 0}, "group": "control_change"}, {"time": 3336, "annotation": {"number": 64, "value": 127}, "group": "control_change"}, {"time": 3340, "annotation": {"number": 64, "value": 0}, "group": "control_change"}]}]}