{"metadata": {"schema_version": "0.2", "title": "None", "source_filename": "364.mid", "source_format": "midi"}, "resolution": 12, "tempos": [{"time": 0, "qpm": 61.49998462500384}], "time_signatures": [{"time": 0, "numerator": 1, "denominator": 4}], "tracks": [{"program": 4, "is_drum": false, "name": "MELODY", "notes": [{"time": 160, "pitch": 60, "duration": 5, "velocity": 100}, {"time": 166, "pitch": 60, "duration": 2, "velocity": 81}, {"time": 169, "pitch": 60, "duration": 1, "velocity": 85}, {"time": 172, "pitch": 60, "duration": 6, "velocity": 93}, {"time": 175, "pitch": 65, "duration": 8, "velocity": 77}, {"time": 184, "pitch": 60, "duration": 8, "velocity": 92}, {"time": 193, "pitch": 65, "duration": 4, "velocity": 93}, {"time": 199, "pitch": 67, "duration": 2, "velocity": 107}, {"time": 202, "pitch": 69, "duration": 3, "velocity": 90}, {"time": 205, "pitch": 67, "duration": 3, "velocity": 93}, {"time": 208, "pitch": 64, "duration": 10, "velocity": 95}, {"time": 217, "pitch": 62, "duration": 2, "velocity": 90}, {"time": 220, "pitch": 62, "duration": 4, "velocity": 96}, {"time": 223, "pitch": 60, "duration": 12, "velocity": 69}, {"time": 253, "pitch": 60, "duration": 3, "velocity": 95}, {"time": 256, "pitch": 67, "duration": 4, "velocity": 102}, {"time": 262, "pitch": 67, "duration": 2, "velocity": 100}, {"time": 265, "pitch": 67, "duration": 4, "velocity": 127}, {"time": 271, "pitch": 67, "duration": 5, "velocity": 92}, {"time": 274, "pitch": 66, "duration": 10, "velocity": 99}, {"time": 286, "pitch": 62, "duration": 3, "velocity": 112}, {"time": 292, "pitch": 62, "duration": 3, "velocity": 112}, {"time": 295, "pitch": 60, "duration": 3, "velocity": 92}, {"time": 298, "pitch": 57, "duration": 3, "velocity": 85}, {"time": 301, "pitch": 60, "duration": 8, "velocity": 93}, {"time": 310, "pitch": 58, "duration": 16, "velocity": 112}, {"time": 340, "pitch": 58, "duration": 4, "velocity": 117}, {"time": 346, "pitch": 60, "duration": 4, "velocity": 96}, {"time": 352, "pitch": 62, "duration": 7, "velocity": 117}, {"time": 361, "pitch": 62, "duration": 3, "velocity": 90}, {"time": 364, "pitch": 64, "duration": 6, "velocity": 89}, {"time": 370, "pitch": 65, "duration": 6, "velocity": 90}, {"time": 376, "pitch": 64, "duration": 8, "velocity": 97}, {"time": 394, "pitch": 62, "duration": 5, "velocity": 97}, {"time": 400, "pitch": 61, "duration": 7, "velocity": 99}, {"time": 406, "pitch": 61, "duration": 1, "velocity": 99}, {"time": 412, "pitch": 61, "duration": 5, "velocity": 107}, {"time": 418, "pitch": 67, "duration": 7, "velocity": 99}, {"time": 424, "pitch": 65, "duration": 13, "velocity": 102}, {"time": 439, "pitch": 62, "duration": 4, "velocity": 95}, {"time": 445, "pitch": 64, "duration": 3, "velocity": 93}, {"time": 448, "pitch": 65, "duration": 10, "velocity": 96}, {"time": 457, "pitch": 65, "duration": 1, "velocity": 78}, {"time": 460, "pitch": 65, "duration": 2, "velocity": 92}, {"time": 463, "pitch": 67, "duration": 3, "velocity": 86}, {"time": 466, "pitch": 69, "duration": 6, "velocity": 96}, {"time": 472, "pitch": 67, "duration": 9, "velocity": 112}, {"time": 481, "pitch": 67, "duration": 1, "velocity": 96}, {"time": 484, "pitch": 67, "duration": 2, "velocity": 96}, {"time": 487, "pitch": 65, "duration": 2, "velocity": 90}, {"time": 490, "pitch": 64, "duration": 6, "velocity": 93}, {"time": 496, "pitch": 65, "duration": 33, "velocity": 100}, {"time": 544, "pitch": 60, "duration": 4, "velocity": 99}, {"time": 550, "pitch": 60, "duration": 2, "velocity": 92}, {"time": 553, "pitch": 60, "duration": 2, "velocity": 82}, {"time": 556, "pitch": 60, "duration": 3, "velocity": 95}, {"time": 559, "pitch": 65, "duration": 8, "velocity": 95}, {"time": 568, "pitch": 60, "duration": 10, "velocity": 83}, {"time": 577, "pitch": 65, "duration": 4, "velocity": 96}, {"time": 583, "pitch": 67, "duration": 3, "velocity": 107}, {"time": 586, "pitch": 69, "duration": 3, "velocity": 85}, {"time": 589, "pitch": 67, "duration": 3, "velocity": 96}, {"time": 592, "pitch": 64, "duration": 6, "velocity": 100}, {"time": 601, "pitch": 62, "duration": 2, "velocity": 93}, {"time": 604, "pitch": 62, "duration": 2, "velocity": 112}, {"time": 607, "pitch": 64, "duration": 1, "velocity": 73}, {"time": 609, "pitch": 62, "duration": 1, "velocity": 88}, {"time": 610, "pitch": 60, "duration": 9, "velocity": 92}, {"time": 637, "pitch": 60, "duration": 3, "velocity": 89}, {"time": 640, "pitch": 67, "duration": 5, "velocity": 100}, {"time": 646, "pitch": 67, "duration": 1, "velocity": 112}, {"time": 649, "pitch": 67, "duration": 6, "velocity": 127}, {"time": 655, "pitch": 67, "duration": 5, "velocity": 107}, {"time": 661, "pitch": 66, "duration": 9, "velocity": 112}, {"time": 670, "pitch": 62, "duration": 4, "velocity": 122}, {"time": 676, "pitch": 62, "duration": 2, "velocity": 112}, {"time": 679, "pitch": 60, "duration": 3, "velocity": 93}, {"time": 682, "pitch": 57, "duration": 4, "velocity": 97}, {"time": 685, "pitch": 60, "duration": 7, "velocity": 117}, {"time": 691, "pitch": 62, "duration": 3, "velocity": 69}, {"time": 694, "pitch": 58, "duration": 17, "velocity": 97}, {"time": 724, "pitch": 58, "duration": 5, "velocity": 122}, {"time": 730, "pitch": 60, "duration": 5, "velocity": 99}, {"time": 736, "pitch": 62, "duration": 9, "velocity": 112}, {"time": 745, "pitch": 62, "duration": 2, "velocity": 97}, {"time": 748, "pitch": 62, "duration": 2, "velocity": 99}, {"time": 751, "pitch": 64, "duration": 3, "velocity": 96}, {"time": 754, "pitch": 65, "duration": 7, "velocity": 102}, {"time": 760, "pitch": 64, "duration": 10, "velocity": 102}, {"time": 778, "pitch": 62, "duration": 5, "velocity": 117}, {"time": 784, "pitch": 61, "duration": 5, "velocity": 127}, {"time": 790, "pitch": 61, "duration": 1, "velocity": 117}, {"time": 793, "pitch": 61, "duration": 1, "velocity": 107}, {"time": 796, "pitch": 61, "duration": 4, "velocity": 122}, {"time": 799, "pitch": 67, "duration": 9, "velocity": 100}, {"time": 808, "pitch": 65, "duration": 12, "velocity": 102}, {"time": 823, "pitch": 62, "duration": 4, "velocity": 100}, {"time": 829, "pitch": 64, "duration": 2, "velocity": 95}, {"time": 832, "pitch": 65, "duration": 7, "velocity": 100}, {"time": 841, "pitch": 65, "duration": 1, "velocity": 100}, {"time": 844, "pitch": 65, "duration": 2, "velocity": 102}, {"time": 847, "pitch": 67, "duration": 3, "velocity": 96}, {"time": 850, "pitch": 69, "duration": 6, "velocity": 112}, {"time": 856, "pitch": 67, "duration": 7, "velocity": 107}, {"time": 865, "pitch": 67, "duration": 1, "velocity": 102}, {"time": 868, "pitch": 67, "duration": 2, "velocity": 117}, {"time": 871, "pitch": 65, "duration": 3, "velocity": 112}, {"time": 877, "pitch": 64, "duration": 2, "velocity": 117}, {"time": 880, "pitch": 67, "duration": 9, "velocity": 127}, {"time": 889, "pitch": 65, "duration": 23, "velocity": 127}, {"time": 916, "pitch": 60, "duration": 4, "velocity": 117}, {"time": 919, "pitch": 62, "duration": 2, "velocity": 102}, {"time": 922, "pitch": 65, "duration": 3, "velocity": 127}, {"time": 925, "pitch": 67, "duration": 2, "velocity": 100}, {"time": 928, "pitch": 69, "duration": 6, "velocity": 112}, {"time": 937, "pitch": 69, "duration": 6, "velocity": 127}, {"time": 943, "pitch": 72, "duration": 3, "velocity": 102}, {"time": 946, "pitch": 69, "duration": 6, "velocity": 117}, {"time": 952, "pitch": 67, "duration": 8, "velocity": 112}, {"time": 961, "pitch": 67, "duration": 5, "velocity": 107}, {"time": 967, "pitch": 72, "duration": 3, "velocity": 102}, {"time": 970, "pitch": 67, "duration": 5, "velocity": 112}, {"time": 976, "pitch": 65, "duration": 5, "velocity": 102}, {"time": 985, "pitch": 65, "duration": 1, "velocity": 95}, {"time": 988, "pitch": 65, "duration": 2, "velocity": 97}, {"time": 991, "pitch": 67, "duration": 2, "velocity": 107}, {"time": 994, "pitch": 69, "duration": 3, "velocity": 102}, {"time": 997, "pitch": 65, "duration": 3, "velocity": 107}, {"time": 1000, "pitch": 62, "duration": 6, "velocity": 107}, {"time": 1006, "pitch": 67, "duration": 3, "velocity": 127}, {"time": 1009, "pitch": 64, "duration": 3, "velocity": 95}, {"time": 1015, "pitch": 64, "duration": 2, "velocity": 97}, {"time": 1018, "pitch": 65, "duration": 16, "velocity": 112}, {"time": 1036, "pitch": 60, "duration": 3, "velocity": 107}, {"time": 1039, "pitch": 62, "duration": 2, "velocity": 95}, {"time": 1042, "pitch": 65, "duration": 3, "velocity": 117}, {"time": 1045, "pitch": 67, "duration": 2, "velocity": 97}, {"time": 1048, "pitch": 69, "duration": 7, "velocity": 127}, {"time": 1057, "pitch": 69, "duration": 6, "velocity": 122}, {"time": 1063, "pitch": 72, "duration": 3, "velocity": 99}, {"time": 1066, "pitch": 69, "duration": 6, "velocity": 127}, {"time": 1072, "pitch": 67, "duration": 7, "velocity": 100}, {"time": 1081, "pitch": 67, "duration": 4, "velocity": 112}, {"time": 1087, "pitch": 72, "duration": 3, "velocity": 107}, {"time": 1090, "pitch": 67, "duration": 6, "velocity": 122}, {"time": 1096, "pitch": 65, "duration": 6, "velocity": 102}, {"time": 1117, "pitch": 62, "duration": 4, "velocity": 95}, {"time": 1120, "pitch": 64, "duration": 8, "velocity": 127}, {"time": 1129, "pitch": 65, "duration": 6, "velocity": 107}, {"time": 1138, "pitch": 65, "duration": 30, "velocity": 127}, {"time": 1312, "pitch": 60, "duration": 4, "velocity": 99}, {"time": 1318, "pitch": 60, "duration": 2, "velocity": 92}, {"time": 1321, "pitch": 60, "duration": 2, "velocity": 82}, {"time": 1324, "pitch": 60, "duration": 3, "velocity": 95}, {"time": 1327, "pitch": 65, "duration": 8, "velocity": 95}, {"time": 1336, "pitch": 60, "duration": 8, "velocity": 83}, {"time": 1345, "pitch": 65, "duration": 4, "velocity": 96}, {"time": 1351, "pitch": 67, "duration": 3, "velocity": 107}, {"time": 1354, "pitch": 69, "duration": 3, "velocity": 85}, {"time": 1357, "pitch": 67, "duration": 3, "velocity": 96}, {"time": 1360, "pitch": 64, "duration": 6, "velocity": 100}, {"time": 1369, "pitch": 62, "duration": 2, "velocity": 93}, {"time": 1372, "pitch": 62, "duration": 2, "velocity": 112}, {"time": 1375, "pitch": 64, "duration": 1, "velocity": 73}, {"time": 1377, "pitch": 62, "duration": 1, "velocity": 88}, {"time": 1378, "pitch": 60, "duration": 18, "velocity": 92}, {"time": 1405, "pitch": 60, "duration": 3, "velocity": 89}, {"time": 1408, "pitch": 67, "duration": 5, "velocity": 100}, {"time": 1414, "pitch": 67, "duration": 1, "velocity": 112}, {"time": 1417, "pitch": 67, "duration": 6, "velocity": 127}, {"time": 1423, "pitch": 67, "duration": 5, "velocity": 107}, {"time": 1429, "pitch": 66, "duration": 9, "velocity": 112}, {"time": 1438, "pitch": 62, "duration": 4, "velocity": 122}, {"time": 1444, "pitch": 62, "duration": 2, "velocity": 112}, {"time": 1447, "pitch": 60, "duration": 3, "velocity": 93}, {"time": 1450, "pitch": 57, "duration": 4, "velocity": 97}, {"time": 1453, "pitch": 60, "duration": 7, "velocity": 117}, {"time": 1459, "pitch": 62, "duration": 3, "velocity": 69}, {"time": 1462, "pitch": 58, "duration": 17, "velocity": 97}, {"time": 1492, "pitch": 58, "duration": 5, "velocity": 122}, {"time": 1498, "pitch": 60, "duration": 5, "velocity": 99}, {"time": 1504, "pitch": 62, "duration": 9, "velocity": 112}, {"time": 1513, "pitch": 62, "duration": 2, "velocity": 97}, {"time": 1516, "pitch": 62, "duration": 2, "velocity": 99}, {"time": 1519, "pitch": 64, "duration": 3, "velocity": 96}, {"time": 1522, "pitch": 65, "duration": 7, "velocity": 102}, {"time": 1528, "pitch": 64, "duration": 10, "velocity": 102}, {"time": 1546, "pitch": 62, "duration": 5, "velocity": 117}, {"time": 1552, "pitch": 61, "duration": 5, "velocity": 127}, {"time": 1558, "pitch": 61, "duration": 1, "velocity": 117}, {"time": 1561, "pitch": 61, "duration": 1, "velocity": 107}, {"time": 1564, "pitch": 61, "duration": 4, "velocity": 122}, {"time": 1567, "pitch": 67, "duration": 9, "velocity": 100}, {"time": 1576, "pitch": 65, "duration": 12, "velocity": 102}, {"time": 1591, "pitch": 62, "duration": 4, "velocity": 100}, {"time": 1597, "pitch": 64, "duration": 2, "velocity": 95}, {"time": 1600, "pitch": 65, "duration": 7, "velocity": 100}, {"time": 1609, "pitch": 65, "duration": 1, "velocity": 100}, {"time": 1612, "pitch": 65, "duration": 2, "velocity": 102}, {"time": 1615, "pitch": 67, "duration": 3, "velocity": 96}, {"time": 1618, "pitch": 69, "duration": 6, "velocity": 112}, {"time": 1624, "pitch": 67, "duration": 7, "velocity": 107}, {"time": 1633, "pitch": 67, "duration": 1, "velocity": 102}, {"time": 1636, "pitch": 67, "duration": 2, "velocity": 117}, {"time": 1639, "pitch": 65, "duration": 3, "velocity": 112}, {"time": 1645, "pitch": 64, "duration": 2, "velocity": 117}, {"time": 1648, "pitch": 67, "duration": 9, "velocity": 127}, {"time": 1657, "pitch": 65, "duration": 23, "velocity": 127}, {"time": 1684, "pitch": 60, "duration": 4, "velocity": 117}, {"time": 1687, "pitch": 62, "duration": 2, "velocity": 102}, {"time": 1690, "pitch": 65, "duration": 3, "velocity": 127}, {"time": 1693, "pitch": 67, "duration": 2, "velocity": 100}, {"time": 1696, "pitch": 69, "duration": 6, "velocity": 112}, {"time": 1705, "pitch": 69, "duration": 6, "velocity": 127}, {"time": 1711, "pitch": 72, "duration": 3, "velocity": 102}, {"time": 1714, "pitch": 69, "duration": 6, "velocity": 117}, {"time": 1720, "pitch": 67, "duration": 8, "velocity": 112}, {"time": 1729, "pitch": 67, "duration": 5, "velocity": 107}, {"time": 1735, "pitch": 72, "duration": 3, "velocity": 102}, {"time": 1738, "pitch": 67, "duration": 5, "velocity": 112}, {"time": 1744, "pitch": 65, "duration": 5, "velocity": 102}, {"time": 1753, "pitch": 65, "duration": 1, "velocity": 95}, {"time": 1756, "pitch": 65, "duration": 2, "velocity": 97}, {"time": 1759, "pitch": 67, "duration": 2, "velocity": 107}, {"time": 1762, "pitch": 69, "duration": 3, "velocity": 102}, {"time": 1765, "pitch": 65, "duration": 3, "velocity": 107}, {"time": 1768, "pitch": 62, "duration": 6, "velocity": 107}, {"time": 1774, "pitch": 67, "duration": 3, "velocity": 127}, {"time": 1777, "pitch": 64, "duration": 3, "velocity": 95}, {"time": 1783, "pitch": 64, "duration": 2, "velocity": 97}, {"time": 1786, "pitch": 65, "duration": 16, "velocity": 112}, {"time": 1804, "pitch": 60, "duration": 3, "velocity": 107}, {"time": 1807, "pitch": 62, "duration": 2, "velocity": 95}, {"time": 1810, "pitch": 65, "duration": 3, "velocity": 117}, {"time": 1813, "pitch": 67, "duration": 2, "velocity": 97}, {"time": 1816, "pitch": 69, "duration": 7, "velocity": 127}, {"time": 1825, "pitch": 69, "duration": 6, "velocity": 122}, {"time": 1831, "pitch": 72, "duration": 3, "velocity": 99}, {"time": 1834, "pitch": 69, "duration": 6, "velocity": 127}, {"time": 1840, "pitch": 67, "duration": 7, "velocity": 100}, {"time": 1849, "pitch": 67, "duration": 4, "velocity": 112}, {"time": 1855, "pitch": 72, "duration": 3, "velocity": 107}, {"time": 1858, "pitch": 67, "duration": 6, "velocity": 122}, {"time": 1864, "pitch": 65, "duration": 6, "velocity": 102}, {"time": 1885, "pitch": 62, "duration": 4, "velocity": 95}, {"time": 1888, "pitch": 64, "duration": 8, "velocity": 127}, {"time": 1897, "pitch": 65, "duration": 6, "velocity": 107}, {"time": 1906, "pitch": 65, "duration": 30, "velocity": 127}, {"time": 2128, "pitch": 69, "duration": 11, "velocity": 127}, {"time": 2140, "pitch": 67, "duration": 5, "velocity": 112}, {"time": 2146, "pitch": 72, "duration": 6, "velocity": 127}, {"time": 2152, "pitch": 69, "duration": 6, "velocity": 112}, {"time": 2170, "pitch": 67, "duration": 6, "velocity": 127}, {"time": 2176, "pitch": 65, "duration": 4, "velocity": 127}, {"time": 2182, "pitch": 62, "duration": 3, "velocity": 112}, {"time": 2185, "pitch": 64, "duration": 2, "velocity": 117}, {"time": 2188, "pitch": 65, "duration": 5, "velocity": 127}, {"time": 2194, "pitch": 67, "duration": 5, "velocity": 107}, {"time": 2200, "pitch": 60, "duration": 10, "velocity": 107}, {"time": 2224, "pitch": 69, "duration": 11, "velocity": 127}, {"time": 2236, "pitch": 67, "duration": 5, "velocity": 112}, {"time": 2242, "pitch": 72, "duration": 6, "velocity": 127}, {"time": 2248, "pitch": 69, "duration": 13, "velocity": 127}, {"time": 2266, "pitch": 62, "duration": 3, "velocity": 100}, {"time": 2269, "pitch": 64, "duration": 2, "velocity": 97}, {"time": 2272, "pitch": 65, "duration": 17, "velocity": 127}, {"time": 2308, "pitch": 60, "duration": 4, "velocity": 117}, {"time": 2311, "pitch": 62, "duration": 2, "velocity": 102}, {"time": 2314, "pitch": 65, "duration": 3, "velocity": 127}, {"time": 2317, "pitch": 67, "duration": 2, "velocity": 100}, {"time": 2320, "pitch": 69, "duration": 6, "velocity": 112}, {"time": 2329, "pitch": 69, "duration": 6, "velocity": 127}, {"time": 2335, "pitch": 72, "duration": 3, "velocity": 102}, {"time": 2338, "pitch": 69, "duration": 6, "velocity": 117}, {"time": 2344, "pitch": 67, "duration": 8, "velocity": 112}, {"time": 2353, "pitch": 67, "duration": 5, "velocity": 107}, {"time": 2359, "pitch": 72, "duration": 3, "velocity": 102}, {"time": 2362, "pitch": 67, "duration": 5, "velocity": 112}, {"time": 2368, "pitch": 65, "duration": 5, "velocity": 102}, {"time": 2377, "pitch": 65, "duration": 1, "velocity": 95}, {"time": 2380, "pitch": 65, "duration": 2, "velocity": 97}, {"time": 2383, "pitch": 67, "duration": 2, "velocity": 107}, {"time": 2386, "pitch": 69, "duration": 3, "velocity": 102}, {"time": 2389, "pitch": 65, "duration": 3, "velocity": 107}, {"time": 2392, "pitch": 62, "duration": 6, "velocity": 107}, {"time": 2398, "pitch": 67, "duration": 3, "velocity": 127}, {"time": 2401, "pitch": 64, "duration": 3, "velocity": 95}, {"time": 2407, "pitch": 64, "duration": 2, "velocity": 97}, {"time": 2410, "pitch": 65, "duration": 16, "velocity": 112}, {"time": 2428, "pitch": 60, "duration": 3, "velocity": 107}, {"time": 2431, "pitch": 62, "duration": 2, "velocity": 95}, {"time": 2434, "pitch": 65, "duration": 3, "velocity": 117}, {"time": 2437, "pitch": 67, "duration": 2, "velocity": 97}, {"time": 2440, "pitch": 69, "duration": 7, "velocity": 127}, {"time": 2449, "pitch": 69, "duration": 6, "velocity": 122}, {"time": 2455, "pitch": 72, "duration": 3, "velocity": 99}, {"time": 2458, "pitch": 69, "duration": 6, "velocity": 127}, {"time": 2464, "pitch": 67, "duration": 7, "velocity": 100}, {"time": 2473, "pitch": 67, "duration": 4, "velocity": 112}, {"time": 2479, "pitch": 72, "duration": 3, "velocity": 107}, {"time": 2482, "pitch": 67, "duration": 6, "velocity": 122}, {"time": 2488, "pitch": 65, "duration": 6, "velocity": 102}, {"time": 2506, "pitch": 62, "duration": 3, "velocity": 112}, {"time": 2509, "pitch": 64, "duration": 5, "velocity": 122}, {"time": 2517, "pitch": 65, "duration": 4, "velocity": 112}, {"time": 2524, "pitch": 65, "duration": 22, "velocity": 127}, {"time": 2569, "pitch": 67, "duration": 5, "velocity": 107}, {"time": 2575, "pitch": 72, "duration": 3, "velocity": 102}, {"time": 2578, "pitch": 67, "duration": 5, "velocity": 112}, {"time": 2584, "pitch": 65, "duration": 5, "velocity": 102}, {"time": 2593, "pitch": 65, "duration": 1, "velocity": 95}, {"time": 2596, "pitch": 65, "duration": 2, "velocity": 97}, {"time": 2599, "pitch": 67, "duration": 2, "velocity": 107}, {"time": 2602, "pitch": 69, "duration": 3, "velocity": 102}, {"time": 2605, "pitch": 65, "duration": 3, "velocity": 107}, {"time": 2608, "pitch": 62, "duration": 6, "velocity": 107}, {"time": 2614, "pitch": 67, "duration": 3, "velocity": 127}, {"time": 2617, "pitch": 64, "duration": 3, "velocity": 95}, {"time": 2623, "pitch": 64, "duration": 2, "velocity": 97}, {"time": 2626, "pitch": 65, "duration": 16, "velocity": 112}, {"time": 2644, "pitch": 60, "duration": 3, "velocity": 107}, {"time": 2647, "pitch": 62, "duration": 2, "velocity": 95}, {"time": 2650, "pitch": 65, "duration": 3, "velocity": 117}, {"time": 2653, "pitch": 67, "duration": 2, "velocity": 97}, {"time": 2656, "pitch": 69, "duration": 7, "velocity": 127}, {"time": 2665, "pitch": 69, "duration": 6, "velocity": 122}, {"time": 2671, "pitch": 72, "duration": 3, "velocity": 99}, {"time": 2674, "pitch": 69, "duration": 6, "velocity": 127}, {"time": 2680, "pitch": 67, "duration": 12, "velocity": 100}, {"time": 2698, "pitch": 62, "duration": 3, "velocity": 100}, {"time": 2701, "pitch": 64, "duration": 8, "velocity": 122}, {"time": 2710, "pitch": 65, "duration": 4, "velocity": 102}, {"time": 2716, "pitch": 65, "duration": 18, "velocity": 127}, {"time": 2761, "pitch": 67, "duration": 5, "velocity": 107}, {"time": 2767, "pitch": 72, "duration": 3, "velocity": 102}, {"time": 2770, "pitch": 67, "duration": 5, "velocity": 112}, {"time": 2776, "pitch": 65, "duration": 5, "velocity": 102}, {"time": 2785, "pitch": 65, "duration": 1, "velocity": 95}, {"time": 2788, "pitch": 65, "duration": 2, "velocity": 97}, {"time": 2791, "pitch": 67, "duration": 2, "velocity": 107}, {"time": 2794, "pitch": 69, "duration": 3, "velocity": 102}, {"time": 2797, "pitch": 65, "duration": 3, "velocity": 107}, {"time": 2800, "pitch": 62, "duration": 6, "velocity": 107}, {"time": 2806, "pitch": 67, "duration": 3, "velocity": 127}, {"time": 2809, "pitch": 64, "duration": 3, "velocity": 95}, {"time": 2815, "pitch": 64, "duration": 2, "velocity": 97}, {"time": 2818, "pitch": 65, "duration": 16, "velocity": 112}, {"time": 2836, "pitch": 60, "duration": 3, "velocity": 107}, {"time": 2839, "pitch": 62, "duration": 2, "velocity": 95}, {"time": 2842, "pitch": 65, "duration": 3, "velocity": 117}, {"time": 2845, "pitch": 67, "duration": 2, "velocity": 97}, {"time": 2848, "pitch": 69, "duration": 7, "velocity": 127}, {"time": 2857, "pitch": 69, "duration": 6, "velocity": 122}, {"time": 2863, "pitch": 72, "duration": 3, "velocity": 99}, {"time": 2866, "pitch": 69, "duration": 6, "velocity": 127}, {"time": 2872, "pitch": 67, "duration": 7, "velocity": 100}, {"time": 2881, "pitch": 67, "duration": 4, "velocity": 112}, {"time": 2887, "pitch": 72, "duration": 3, "velocity": 107}, {"time": 2890, "pitch": 67, "duration": 6, "velocity": 122}, {"time": 2896, "pitch": 65, "duration": 6, "velocity": 102}, {"time": 2914, "pitch": 62, "duration": 2, "velocity": 102}, {"time": 2917, "pitch": 64, "duration": 9, "velocity": 127}, {"time": 2926, "pitch": 65, "duration": 4, "velocity": 107}, {"time": 2932, "pitch": 65, "duration": 27, "velocity": 127}, {"time": 2977, "pitch": 67, "duration": 5, "velocity": 107}, {"time": 2983, "pitch": 72, "duration": 3, "velocity": 102}, {"time": 2986, "pitch": 67, "duration": 5, "velocity": 112}, {"time": 2992, "pitch": 65, "duration": 5, "velocity": 102}, {"time": 3001, "pitch": 65, "duration": 1, "velocity": 95}, {"time": 3004, "pitch": 65, "duration": 2, "velocity": 97}, {"time": 3007, "pitch": 67, "duration": 2, "velocity": 107}, {"time": 3010, "pitch": 69, "duration": 3, "velocity": 102}, {"time": 3013, "pitch": 65, "duration": 3, "velocity": 107}, {"time": 3016, "pitch": 64, "duration": 1, "velocity": 127}, {"time": 3019, "pitch": 64, "duration": 2, "velocity": 112}, {"time": 3022, "pitch": 65, "duration": 2, "velocity": 100}, {"time": 3025, "pitch": 60, "duration": 3, "velocity": 112}, {"time": 3031, "pitch": 62, "duration": 3, "velocity": 102}, {"time": 3034, "pitch": 65, "duration": 4, "velocity": 107}, {"time": 3037, "pitch": 67, "duration": 4, "velocity": 90}, {"time": 3040, "pitch": 69, "duration": 4, "velocity": 102}, {"time": 3049, "pitch": 69, "duration": 5, "velocity": 117}, {"time": 3055, "pitch": 72, "duration": 3, "velocity": 112}, {"time": 3058, "pitch": 69, "duration": 5, "velocity": 127}, {"time": 3064, "pitch": 67, "duration": 6, "velocity": 107}, {"time": 3073, "pitch": 67, "duration": 5, "velocity": 107}, {"time": 3079, "pitch": 72, "duration": 3, "velocity": 107}, {"time": 3082, "pitch": 67, "duration": 6, "velocity": 102}, {"time": 3091, "pitch": 65, "duration": 10, "velocity": 102}, {"time": 3106, "pitch": 62, "duration": 2, "velocity": 102}, {"time": 3109, "pitch": 64, "duration": 9, "velocity": 127}, {"time": 3118, "pitch": 65, "duration": 7, "velocity": 122}, {"time": 3130, "pitch": 65, "duration": 32, "velocity": 127}]}, {"program": 0, "is_drum": false, "name": "PIANO", "notes": [{"time": 16, "pitch": 46, "duration": 12, "velocity": 89}, {"time": 19, "pitch": 53, "duration": 8, "velocity": 66}, {"time": 22, "pitch": 58, "duration": 6, "velocity": 93}, {"time": 25, "pitch": 62, "duration": 3, "velocity": 83}, {"time": 28, "pitch": 48, "duration": 12, "velocity": 69}, {"time": 31, "pitch": 55, "duration": 8, "velocity": 55}, {"time": 34, "pitch": 64, "duration": 6, "velocity": 92}, {"time": 37, "pitch": 60, "duration": 3, "velocity": 56}, {"time": 40, "pitch": 50, "duration": 12, "velocity": 70}, {"time": 43, "pitch": 57, "duration": 10, "velocity": 68}, {"time": 46, "pitch": 62, "duration": 5, "velocity": 79}, {"time": 49, "pitch": 65, "duration": 3, "velocity": 73}, {"time": 52, "pitch": 48, "duration": 6, "velocity": 67}, {"time": 55, "pitch": 55, "duration": 10, "velocity": 70}, {"time": 58, "pitch": 64, "duration": 6, "velocity": 81}, {"time": 61, "pitch": 60, "duration": 3, "velocity": 61}, {"time": 64, "pitch": 46, "duration": 12, "velocity": 76}, {"time": 67, "pitch": 53, "duration": 7, "velocity": 63}, {"time": 70, "pitch": 58, "duration": 5, "velocity": 92}, {"time": 73, "pitch": 62, "duration": 3, "velocity": 70}, {"time": 76, "pitch": 45, "duration": 13, "velocity": 69}, {"time": 79, "pitch": 57, "duration": 6, "velocity": 66}, {"time": 82, "pitch": 64, "duration": 6, "velocity": 93}, {"time": 85, "pitch": 60, "duration": 3, "velocity": 64}, {"time": 88, "pitch": 43, "duration": 12, "velocity": 69}, {"time": 91, "pitch": 55, "duration": 9, "velocity": 47}, {"time": 94, "pitch": 58, "duration": 5, "velocity": 95}, {"time": 97, "pitch": 62, "duration": 3, "velocity": 77}, {"time": 100, "pitch": 48, "duration": 7, "velocity": 75}, {"time": 103, "pitch": 55, "duration": 8, "velocity": 51}, {"time": 106, "pitch": 60, "duration": 5, "velocity": 67}, {"time": 109, "pitch": 64, "duration": 3, "velocity": 66}, {"time": 112, "pitch": 38, "duration": 23, "velocity": 76}, {"time": 115, "pitch": 45, "duration": 27, "velocity": 59}, {"time": 118, "pitch": 50, "duration": 7, "velocity": 69}, {"time": 121, "pitch": 57, "duration": 10, "velocity": 68}, {"time": 124, "pitch": 65, "duration": 20, "velocity": 90}, {"time": 127, "pitch": 50, "duration": 14, "velocity": 62}, {"time": 130, "pitch": 62, "duration": 4, "velocity": 66}, {"time": 133, "pitch": 57, "duration": 13, "velocity": 55}, {"time": 136, "pitch": 38, "duration": 13, "velocity": 60}, {"time": 136, "pitch": 62, "duration": 8, "velocity": 82}, {"time": 148, "pitch": 36, "duration": 6, "velocity": 71}, {"time": 148, "pitch": 55, "duration": 12, "velocity": 93}, {"time": 148, "pitch": 60, "duration": 12, "velocity": 85}, {"time": 148, "pitch": 64, "duration": 13, "velocity": 78}, {"time": 160, "pitch": 41, "duration": 41, "velocity": 72}, {"time": 166, "pitch": 48, "duration": 34, "velocity": 56}, {"time": 172, "pitch": 53, "duration": 15, "velocity": 55}, {"time": 178, "pitch": 57, "duration": 8, "velocity": 58}, {"time": 184, "pitch": 60, "duration": 10, "velocity": 65}, {"time": 184, "pitch": 65, "duration": 25, "velocity": 64}, {"time": 196, "pitch": 60, "duration": 13, "velocity": 86}, {"time": 202, "pitch": 57, "duration": 7, "velocity": 63}, {"time": 208, "pitch": 36, "duration": 44, "velocity": 73}, {"time": 214, "pitch": 43, "duration": 42, "velocity": 60}, {"time": 220, "pitch": 48, "duration": 27, "velocity": 72}, {"time": 226, "pitch": 55, "duration": 8, "velocity": 58}, {"time": 232, "pitch": 60, "duration": 12, "velocity": 63}, {"time": 232, "pitch": 64, "duration": 10, "velocity": 59}, {"time": 244, "pitch": 64, "duration": 13, "velocity": 79}, {"time": 247, "pitch": 48, "duration": 2, "velocity": 55}, {"time": 250, "pitch": 60, "duration": 7, "velocity": 53}, {"time": 253, "pitch": 55, "duration": 4, "velocity": 62}, {"time": 256, "pitch": 38, "duration": 23, "velocity": 69}, {"time": 262, "pitch": 45, "duration": 18, "velocity": 49}, {"time": 268, "pitch": 50, "duration": 4, "velocity": 85}, {"time": 274, "pitch": 57, "duration": 8, "velocity": 79}, {"time": 280, "pitch": 42, "duration": 16, "velocity": 65}, {"time": 280, "pitch": 62, "duration": 11, "velocity": 64}, {"time": 280, "pitch": 66, "duration": 10, "velocity": 92}, {"time": 292, "pitch": 62, "duration": 13, "velocity": 85}, {"time": 292, "pitch": 66, "duration": 13, "velocity": 117}, {"time": 298, "pitch": 57, "duration": 9, "velocity": 77}, {"time": 304, "pitch": 43, "duration": 19, "velocity": 72}, {"time": 310, "pitch": 50, "duration": 12, "velocity": 56}, {"time": 316, "pitch": 62, "duration": 9, "velocity": 97}, {"time": 322, "pitch": 58, "duration": 4, "velocity": 89}, {"time": 328, "pitch": 42, "duration": 18, "velocity": 69}, {"time": 328, "pitch": 54, "duration": 6, "velocity": 69}, {"time": 328, "pitch": 57, "duration": 12, "velocity": 73}, {"time": 328, "pitch": 60, "duration": 23, "velocity": 81}, {"time": 340, "pitch": 54, "duration": 8, "velocity": 72}, {"time": 346, "pitch": 57, "duration": 6, "velocity": 66}, {"time": 352, "pitch": 46, "duration": 13, "velocity": 68}, {"time": 358, "pitch": 53, "duration": 19, "velocity": 72}, {"time": 364, "pitch": 62, "duration": 14, "velocity": 90}, {"time": 370, "pitch": 58, "duration": 7, "velocity": 72}, {"time": 376, "pitch": 36, "duration": 18, "velocity": 66}, {"time": 382, "pitch": 43, "duration": 12, "velocity": 58}, {"time": 388, "pitch": 48, "duration": 9, "velocity": 48}, {"time": 388, "pitch": 60, "duration": 12, "velocity": 83}, {"time": 394, "pitch": 55, "duration": 7, "velocity": 68}, {"time": 400, "pitch": 45, "duration": 15, "velocity": 75}, {"time": 406, "pitch": 52, "duration": 8, "velocity": 67}, {"time": 412, "pitch": 61, "duration": 12, "velocity": 117}, {"time": 418, "pitch": 57, "duration": 21, "velocity": 69}, {"time": 424, "pitch": 38, "duration": 18, "velocity": 66}, {"time": 430, "pitch": 45, "duration": 11, "velocity": 56}, {"time": 436, "pitch": 50, "duration": 12, "velocity": 43}, {"time": 436, "pitch": 65, "duration": 12, "velocity": 97}, {"time": 448, "pitch": 46, "duration": 19, "velocity": 60}, {"time": 454, "pitch": 53, "duration": 19, "velocity": 82}, {"time": 460, "pitch": 62, "duration": 12, "velocity": 93}, {"time": 466, "pitch": 58, "duration": 7, "velocity": 70}, {"time": 472, "pitch": 48, "duration": 23, "velocity": 59}, {"time": 478, "pitch": 55, "duration": 13, "velocity": 69}, {"time": 484, "pitch": 64, "duration": 14, "velocity": 95}, {"time": 490, "pitch": 60, "duration": 8, "velocity": 88}, {"time": 496, "pitch": 41, "duration": 24, "velocity": 77}, {"time": 502, "pitch": 48, "duration": 18, "velocity": 58}, {"time": 508, "pitch": 53, "duration": 22, "velocity": 86}, {"time": 514, "pitch": 57, "duration": 2, "velocity": 85}, {"time": 520, "pitch": 46, "duration": 11, "velocity": 90}, {"time": 520, "pitch": 58, "duration": 11, "velocity": 107}, {"time": 520, "pitch": 62, "duration": 7, "velocity": 86}, {"time": 532, "pitch": 48, "duration": 11, "velocity": 67}, {"time": 532, "pitch": 55, "duration": 12, "velocity": 82}, {"time": 532, "pitch": 60, "duration": 12, "velocity": 93}, {"time": 532, "pitch": 64, "duration": 12, "velocity": 93}, {"time": 544, "pitch": 41, "duration": 22, "velocity": 83}, {"time": 550, "pitch": 48, "duration": 18, "velocity": 50}, {"time": 556, "pitch": 60, "duration": 21, "velocity": 96}, {"time": 562, "pitch": 57, "duration": 17, "velocity": 52}, {"time": 568, "pitch": 41, "duration": 16, "velocity": 66}, {"time": 574, "pitch": 48, "duration": 8, "velocity": 59}, {"time": 580, "pitch": 60, "duration": 13, "velocity": 100}, {"time": 586, "pitch": 57, "duration": 7, "velocity": 71}, {"time": 592, "pitch": 36, "duration": 22, "velocity": 75}, {"time": 598, "pitch": 43, "duration": 19, "velocity": 56}, {"time": 604, "pitch": 48, "duration": 6, "velocity": 54}, {"time": 604, "pitch": 60, "duration": 23, "velocity": 95}, {"time": 610, "pitch": 55, "duration": 20, "velocity": 71}, {"time": 616, "pitch": 36, "duration": 22, "velocity": 85}, {"time": 622, "pitch": 43, "duration": 18, "velocity": 54}, {"time": 628, "pitch": 64, "duration": 13, "velocity": 107}, {"time": 631, "pitch": 55, "duration": 4, "velocity": 66}, {"time": 634, "pitch": 60, "duration": 7, "velocity": 89}, {"time": 637, "pitch": 55, "duration": 4, "velocity": 88}, {"time": 640, "pitch": 38, "duration": 22, "velocity": 79}, {"time": 646, "pitch": 45, "duration": 17, "velocity": 59}, {"time": 652, "pitch": 50, "duration": 10, "velocity": 72}, {"time": 652, "pitch": 62, "duration": 7, "velocity": 97}, {"time": 658, "pitch": 57, "duration": 3, "velocity": 85}, {"time": 661, "pitch": 55, "duration": 4, "velocity": 70}, {"time": 664, "pitch": 42, "duration": 16, "velocity": 95}, {"time": 670, "pitch": 50, "duration": 7, "velocity": 89}, {"time": 676, "pitch": 57, "duration": 13, "velocity": 93}, {"time": 682, "pitch": 54, "duration": 6, "velocity": 92}, {"time": 688, "pitch": 43, "duration": 20, "velocity": 90}, {"time": 694, "pitch": 50, "duration": 12, "velocity": 63}, {"time": 700, "pitch": 62, "duration": 12, "velocity": 100}, {"time": 706, "pitch": 58, "duration": 6, "velocity": 99}, {"time": 712, "pitch": 42, "duration": 21, "velocity": 95}, {"time": 718, "pitch": 57, "duration": 7, "velocity": 62}, {"time": 724, "pitch": 60, "duration": 12, "velocity": 92}, {"time": 730, "pitch": 57, "duration": 6, "velocity": 73}, {"time": 736, "pitch": 46, "duration": 18, "velocity": 90}, {"time": 742, "pitch": 53, "duration": 8, "velocity": 71}, {"time": 748, "pitch": 58, "duration": 12, "velocity": 97}, {"time": 748, "pitch": 62, "duration": 12, "velocity": 96}, {"time": 754, "pitch": 53, "duration": 6, "velocity": 59}, {"time": 760, "pitch": 36, "duration": 16, "velocity": 85}, {"time": 766, "pitch": 48, "duration": 12, "velocity": 38}, {"time": 766, "pitch": 55, "duration": 7, "velocity": 69}, {"time": 772, "pitch": 60, "duration": 12, "velocity": 95}, {"time": 772, "pitch": 64, "duration": 12, "velocity": 90}, {"time": 778, "pitch": 55, "duration": 6, "velocity": 74}, {"time": 784, "pitch": 45, "duration": 14, "velocity": 82}, {"time": 790, "pitch": 52, "duration": 7, "velocity": 74}, {"time": 796, "pitch": 61, "duration": 13, "velocity": 90}, {"time": 796, "pitch": 64, "duration": 13, "velocity": 95}, {"time": 802, "pitch": 57, "duration": 10, "velocity": 89}, {"time": 808, "pitch": 38, "duration": 16, "velocity": 72}, {"time": 814, "pitch": 45, "duration": 10, "velocity": 47}, {"time": 820, "pitch": 50, "duration": 8, "velocity": 76}, {"time": 820, "pitch": 65, "duration": 9, "velocity": 107}, {"time": 823, "pitch": 57, "duration": 11, "velocity": 67}, {"time": 826, "pitch": 64, "duration": 6, "velocity": 93}, {"time": 832, "pitch": 46, "duration": 15, "velocity": 92}, {"time": 838, "pitch": 53, "duration": 7, "velocity": 81}, {"time": 844, "pitch": 58, "duration": 13, "velocity": 79}, {"time": 844, "pitch": 62, "duration": 12, "velocity": 96}, {"time": 850, "pitch": 53, "duration": 6, "velocity": 72}, {"time": 856, "pitch": 48, "duration": 22, "velocity": 75}, {"time": 862, "pitch": 55, "duration": 9, "velocity": 78}, {"time": 868, "pitch": 64, "duration": 13, "velocity": 99}, {"time": 874, "pitch": 60, "duration": 7, "velocity": 88}, {"time": 880, "pitch": 41, "duration": 24, "velocity": 92}, {"time": 886, "pitch": 48, "duration": 18, "velocity": 65}, {"time": 892, "pitch": 60, "duration": 9, "velocity": 102}, {"time": 898, "pitch": 57, "duration": 3, "velocity": 75}, {"time": 904, "pitch": 46, "duration": 11, "velocity": 86}, {"time": 904, "pitch": 53, "duration": 10, "velocity": 89}, {"time": 904, "pitch": 58, "duration": 11, "velocity": 112}, {"time": 904, "pitch": 62, "duration": 7, "velocity": 97}, {"time": 916, "pitch": 48, "duration": 11, "velocity": 92}, {"time": 916, "pitch": 55, "duration": 12, "velocity": 95}, {"time": 916, "pitch": 60, "duration": 12, "velocity": 100}, {"time": 916, "pitch": 64, "duration": 12, "velocity": 96}, {"time": 928, "pitch": 41, "duration": 20, "velocity": 81}, {"time": 931, "pitch": 48, "duration": 11, "velocity": 88}, {"time": 934, "pitch": 53, "duration": 5, "velocity": 89}, {"time": 937, "pitch": 57, "duration": 8, "velocity": 81}, {"time": 940, "pitch": 65, "duration": 11, "velocity": 122}, {"time": 943, "pitch": 48, "duration": 5, "velocity": 72}, {"time": 946, "pitch": 60, "duration": 7, "velocity": 100}, {"time": 949, "pitch": 57, "duration": 4, "velocity": 92}, {"time": 952, "pitch": 36, "duration": 20, "velocity": 67}, {"time": 955, "pitch": 43, "duration": 17, "velocity": 78}, {"time": 958, "pitch": 48, "duration": 7, "velocity": 95}, {"time": 961, "pitch": 55, "duration": 5, "velocity": 92}, {"time": 964, "pitch": 64, "duration": 12, "velocity": 112}, {"time": 967, "pitch": 48, "duration": 3, "velocity": 97}, {"time": 970, "pitch": 60, "duration": 6, "velocity": 92}, {"time": 973, "pitch": 55, "duration": 4, "velocity": 100}, {"time": 976, "pitch": 38, "duration": 17, "velocity": 86}, {"time": 979, "pitch": 45, "duration": 14, "velocity": 69}, {"time": 982, "pitch": 50, "duration": 7, "velocity": 95}, {"time": 985, "pitch": 57, "duration": 5, "velocity": 90}, {"time": 988, "pitch": 65, "duration": 10, "velocity": 122}, {"time": 991, "pitch": 50, "duration": 5, "velocity": 96}, {"time": 994, "pitch": 62, "duration": 4, "velocity": 100}, {"time": 997, "pitch": 57, "duration": 3, "velocity": 97}, {"time": 1000, "pitch": 46, "duration": 8, "velocity": 112}, {"time": 1003, "pitch": 53, "duration": 5, "velocity": 77}, {"time": 1006, "pitch": 62, "duration": 3, "velocity": 102}, {"time": 1009, "pitch": 48, "duration": 10, "velocity": 93}, {"time": 1015, "pitch": 55, "duration": 3, "velocity": 93}, {"time": 1018, "pitch": 41, "duration": 17, "velocity": 79}, {"time": 1021, "pitch": 48, "duration": 14, "velocity": 52}, {"time": 1024, "pitch": 53, "duration": 8, "velocity": 72}, {"time": 1027, "pitch": 55, "duration": 4, "velocity": 81}, {"time": 1030, "pitch": 57, "duration": 3, "velocity": 59}, {"time": 1033, "pitch": 55, "duration": 2, "velocity": 82}, {"time": 1036, "pitch": 48, "duration": 12, "velocity": 97}, {"time": 1036, "pitch": 55, "duration": 12, "velocity": 77}, {"time": 1036, "pitch": 60, "duration": 12, "velocity": 122}, {"time": 1036, "pitch": 64, "duration": 12, "velocity": 102}, {"time": 1048, "pitch": 41, "duration": 18, "velocity": 72}, {"time": 1051, "pitch": 48, "duration": 10, "velocity": 81}, {"time": 1054, "pitch": 53, "duration": 4, "velocity": 93}, {"time": 1057, "pitch": 57, "duration": 6, "velocity": 83}, {"time": 1060, "pitch": 65, "duration": 10, "velocity": 97}, {"time": 1063, "pitch": 48, "duration": 3, "velocity": 78}, {"time": 1066, "pitch": 60, "duration": 6, "velocity": 90}, {"time": 1069, "pitch": 57, "duration": 4, "velocity": 86}, {"time": 1072, "pitch": 36, "duration": 21, "velocity": 69}, {"time": 1075, "pitch": 43, "duration": 18, "velocity": 58}, {"time": 1078, "pitch": 48, "duration": 7, "velocity": 88}, {"time": 1081, "pitch": 55, "duration": 5, "velocity": 82}, {"time": 1084, "pitch": 64, "duration": 11, "velocity": 112}, {"time": 1087, "pitch": 48, "duration": 7, "velocity": 79}, {"time": 1090, "pitch": 60, "duration": 6, "velocity": 95}, {"time": 1093, "pitch": 55, "duration": 3, "velocity": 75}, {"time": 1096, "pitch": 38, "duration": 17, "velocity": 81}, {"time": 1099, "pitch": 45, "duration": 13, "velocity": 58}, {"time": 1102, "pitch": 50, "duration": 7, "velocity": 82}, {"time": 1105, "pitch": 57, "duration": 7, "velocity": 88}, {"time": 1108, "pitch": 65, "duration": 10, "velocity": 99}, {"time": 1111, "pitch": 50, "duration": 5, "velocity": 83}, {"time": 1114, "pitch": 62, "duration": 4, "velocity": 89}, {"time": 1117, "pitch": 57, "duration": 3, "velocity": 68}, {"time": 1120, "pitch": 46, "duration": 8, "velocity": 107}, {"time": 1123, "pitch": 53, "duration": 5, "velocity": 40}, {"time": 1126, "pitch": 58, "duration": 3, "velocity": 89}, {"time": 1126, "pitch": 62, "duration": 2, "velocity": 34}, {"time": 1129, "pitch": 48, "duration": 39, "velocity": 92}, {"time": 1138, "pitch": 55, "duration": 29, "velocity": 64}, {"time": 1138, "pitch": 60, "duration": 30, "velocity": 85}, {"time": 1138, "pitch": 64, "duration": 30, "velocity": 83}, {"time": 1168, "pitch": 46, "duration": 12, "velocity": 93}, {"time": 1171, "pitch": 53, "duration": 9, "velocity": 63}, {"time": 1174, "pitch": 62, "duration": 6, "velocity": 90}, {"time": 1177, "pitch": 58, "duration": 3, "velocity": 88}, {"time": 1180, "pitch": 48, "duration": 10, "velocity": 63}, {"time": 1183, "pitch": 55, "duration": 8, "velocity": 53}, {"time": 1186, "pitch": 64, "duration": 7, "velocity": 97}, {"time": 1189, "pitch": 60, "duration": 4, "velocity": 79}, {"time": 1192, "pitch": 38, "duration": 10, "velocity": 67}, {"time": 1195, "pitch": 45, "duration": 8, "velocity": 70}, {"time": 1198, "pitch": 50, "duration": 4, "velocity": 74}, {"time": 1201, "pitch": 57, "duration": 3, "velocity": 82}, {"time": 1204, "pitch": 36, "duration": 8, "velocity": 71}, {"time": 1207, "pitch": 55, "duration": 10, "velocity": 72}, {"time": 1210, "pitch": 64, "duration": 6, "velocity": 89}, {"time": 1213, "pitch": 60, "duration": 3, "velocity": 70}, {"time": 1216, "pitch": 46, "duration": 11, "velocity": 88}, {"time": 1219, "pitch": 53, "duration": 8, "velocity": 67}, {"time": 1222, "pitch": 62, "duration": 6, "velocity": 89}, {"time": 1225, "pitch": 58, "duration": 3, "velocity": 90}, {"time": 1228, "pitch": 45, "duration": 9, "velocity": 72}, {"time": 1231, "pitch": 57, "duration": 9, "velocity": 53}, {"time": 1234, "pitch": 64, "duration": 5, "velocity": 86}, {"time": 1237, "pitch": 60, "duration": 3, "velocity": 77}, {"time": 1240, "pitch": 43, "duration": 11, "velocity": 63}, {"time": 1243, "pitch": 55, "duration": 9, "velocity": 59}, {"time": 1246, "pitch": 62, "duration": 6, "velocity": 95}, {"time": 1249, "pitch": 58, "duration": 2, "velocity": 88}, {"time": 1252, "pitch": 48, "duration": 6, "velocity": 85}, {"time": 1255, "pitch": 55, "duration": 9, "velocity": 58}, {"time": 1258, "pitch": 64, "duration": 6, "velocity": 89}, {"time": 1261, "pitch": 60, "duration": 3, "velocity": 68}, {"time": 1264, "pitch": 38, "duration": 33, "velocity": 74}, {"time": 1267, "pitch": 45, "duration": 29, "velocity": 45}, {"time": 1270, "pitch": 50, "duration": 8, "velocity": 71}, {"time": 1273, "pitch": 57, "duration": 5, "velocity": 50}, {"time": 1276, "pitch": 65, "duration": 19, "velocity": 97}, {"time": 1279, "pitch": 50, "duration": 7, "velocity": 63}, {"time": 1282, "pitch": 64, "duration": 14, "velocity": 85}, {"time": 1285, "pitch": 57, "duration": 12, "velocity": 32}, {"time": 1288, "pitch": 50, "duration": 12, "velocity": 68}, {"time": 1300, "pitch": 48, "duration": 8, "velocity": 71}, {"time": 1300, "pitch": 55, "duration": 11, "velocity": 97}, {"time": 1300, "pitch": 60, "duration": 11, "velocity": 96}, {"time": 1300, "pitch": 64, "duration": 11, "velocity": 93}, {"time": 1312, "pitch": 41, "duration": 22, "velocity": 83}, {"time": 1318, "pitch": 48, "duration": 18, "velocity": 50}, {"time": 1324, "pitch": 60, "duration": 21, "velocity": 96}, {"time": 1330, "pitch": 57, "duration": 17, "velocity": 52}, {"time": 1336, "pitch": 41, "duration": 16, "velocity": 66}, {"time": 1342, "pitch": 48, "duration": 8, "velocity": 59}, {"time": 1348, "pitch": 60, "duration": 13, "velocity": 100}, {"time": 1354, "pitch": 57, "duration": 7, "velocity": 71}, {"time": 1360, "pitch": 36, "duration": 22, "velocity": 75}, {"time": 1366, "pitch": 43, "duration": 19, "velocity": 56}, {"time": 1372, "pitch": 48, "duration": 6, "velocity": 54}, {"time": 1372, "pitch": 60, "duration": 23, "velocity": 95}, {"time": 1378, "pitch": 55, "duration": 20, "velocity": 71}, {"time": 1384, "pitch": 36, "duration": 22, "velocity": 85}, {"time": 1390, "pitch": 43, "duration": 18, "velocity": 54}, {"time": 1396, "pitch": 64, "duration": 13, "velocity": 107}, {"time": 1399, "pitch": 55, "duration": 4, "velocity": 66}, {"time": 1402, "pitch": 60, "duration": 7, "velocity": 89}, {"time": 1405, "pitch": 55, "duration": 4, "velocity": 88}, {"time": 1408, "pitch": 38, "duration": 22, "velocity": 79}, {"time": 1414, "pitch": 45, "duration": 17, "velocity": 59}, {"time": 1420, "pitch": 50, "duration": 10, "velocity": 72}, {"time": 1420, "pitch": 62, "duration": 7, "velocity": 97}, {"time": 1426, "pitch": 57, "duration": 3, "velocity": 85}, {"time": 1429, "pitch": 55, "duration": 4, "velocity": 70}, {"time": 1432, "pitch": 42, "duration": 16, "velocity": 95}, {"time": 1438, "pitch": 50, "duration": 7, "velocity": 89}, {"time": 1444, "pitch": 57, "duration": 13, "velocity": 93}, {"time": 1450, "pitch": 54, "duration": 6, "velocity": 92}, {"time": 1456, "pitch": 43, "duration": 20, "velocity": 90}, {"time": 1462, "pitch": 50, "duration": 12, "velocity": 63}, {"time": 1468, "pitch": 62, "duration": 12, "velocity": 100}, {"time": 1474, "pitch": 58, "duration": 6, "velocity": 99}, {"time": 1480, "pitch": 42, "duration": 21, "velocity": 95}, {"time": 1486, "pitch": 57, "duration": 7, "velocity": 62}, {"time": 1492, "pitch": 60, "duration": 12, "velocity": 92}, {"time": 1498, "pitch": 57, "duration": 6, "velocity": 73}, {"time": 1504, "pitch": 46, "duration": 18, "velocity": 90}, {"time": 1510, "pitch": 53, "duration": 8, "velocity": 71}, {"time": 1516, "pitch": 58, "duration": 12, "velocity": 97}, {"time": 1516, "pitch": 62, "duration": 12, "velocity": 96}, {"time": 1522, "pitch": 53, "duration": 6, "velocity": 59}, {"time": 1528, "pitch": 36, "duration": 16, "velocity": 85}, {"time": 1534, "pitch": 48, "duration": 12, "velocity": 38}, {"time": 1534, "pitch": 55, "duration": 7, "velocity": 69}, {"time": 1540, "pitch": 60, "duration": 12, "velocity": 95}, {"time": 1540, "pitch": 64, "duration": 12, "velocity": 90}, {"time": 1546, "pitch": 55, "duration": 6, "velocity": 74}, {"time": 1552, "pitch": 45, "duration": 14, "velocity": 82}, {"time": 1558, "pitch": 52, "duration": 7, "velocity": 74}, {"time": 1564, "pitch": 61, "duration": 13, "velocity": 90}, {"time": 1564, "pitch": 64, "duration": 13, "velocity": 95}, {"time": 1570, "pitch": 57, "duration": 10, "velocity": 89}, {"time": 1576, "pitch": 38, "duration": 16, "velocity": 72}, {"time": 1582, "pitch": 45, "duration": 10, "velocity": 47}, {"time": 1588, "pitch": 50, "duration": 8, "velocity": 76}, {"time": 1588, "pitch": 65, "duration": 9, "velocity": 107}, {"time": 1591, "pitch": 57, "duration": 11, "velocity": 67}, {"time": 1594, "pitch": 64, "duration": 6, "velocity": 93}, {"time": 1600, "pitch": 46, "duration": 15, "velocity": 92}, {"time": 1606, "pitch": 53, "duration": 7, "velocity": 81}, {"time": 1612, "pitch": 58, "duration": 13, "velocity": 79}, {"time": 1612, "pitch": 62, "duration": 12, "velocity": 96}, {"time": 1618, "pitch": 53, "duration": 6, "velocity": 72}, {"time": 1624, "pitch": 48, "duration": 22, "velocity": 75}, {"time": 1630, "pitch": 55, "duration": 9, "velocity": 78}, {"time": 1636, "pitch": 64, "duration": 13, "velocity": 99}, {"time": 1642, "pitch": 60, "duration": 7, "velocity": 88}, {"time": 1648, "pitch": 41, "duration": 24, "velocity": 92}, {"time": 1654, "pitch": 48, "duration": 18, "velocity": 65}, {"time": 1660, "pitch": 60, "duration": 9, "velocity": 102}, {"time": 1666, "pitch": 57, "duration": 3, "velocity": 75}, {"time": 1672, "pitch": 46, "duration": 11, "velocity": 86}, {"time": 1672, "pitch": 53, "duration": 10, "velocity": 89}, {"time": 1672, "pitch": 58, "duration": 11, "velocity": 112}, {"time": 1672, "pitch": 62, "duration": 7, "velocity": 97}, {"time": 1684, "pitch": 48, "duration": 11, "velocity": 92}, {"time": 1684, "pitch": 55, "duration": 12, "velocity": 95}, {"time": 1684, "pitch": 60, "duration": 12, "velocity": 100}, {"time": 1684, "pitch": 64, "duration": 12, "velocity": 96}, {"time": 1696, "pitch": 41, "duration": 20, "velocity": 81}, {"time": 1699, "pitch": 48, "duration": 11, "velocity": 88}, {"time": 1702, "pitch": 53, "duration": 5, "velocity": 89}, {"time": 1705, "pitch": 57, "duration": 8, "velocity": 81}, {"time": 1708, "pitch": 65, "duration": 11, "velocity": 122}, {"time": 1711, "pitch": 48, "duration": 5, "velocity": 72}, {"time": 1714, "pitch": 60, "duration": 7, "velocity": 100}, {"time": 1717, "pitch": 57, "duration": 4, "velocity": 92}, {"time": 1720, "pitch": 36, "duration": 20, "velocity": 67}, {"time": 1723, "pitch": 43, "duration": 17, "velocity": 78}, {"time": 1726, "pitch": 48, "duration": 7, "velocity": 95}, {"time": 1729, "pitch": 55, "duration": 5, "velocity": 92}, {"time": 1732, "pitch": 64, "duration": 12, "velocity": 112}, {"time": 1735, "pitch": 48, "duration": 3, "velocity": 97}, {"time": 1738, "pitch": 60, "duration": 6, "velocity": 92}, {"time": 1741, "pitch": 55, "duration": 4, "velocity": 100}, {"time": 1744, "pitch": 38, "duration": 17, "velocity": 86}, {"time": 1747, "pitch": 45, "duration": 14, "velocity": 69}, {"time": 1750, "pitch": 50, "duration": 7, "velocity": 95}, {"time": 1753, "pitch": 57, "duration": 5, "velocity": 90}, {"time": 1756, "pitch": 65, "duration": 10, "velocity": 122}, {"time": 1759, "pitch": 50, "duration": 5, "velocity": 96}, {"time": 1762, "pitch": 62, "duration": 4, "velocity": 100}, {"time": 1765, "pitch": 57, "duration": 3, "velocity": 97}, {"time": 1768, "pitch": 46, "duration": 8, "velocity": 112}, {"time": 1771, "pitch": 53, "duration": 5, "velocity": 77}, {"time": 1774, "pitch": 62, "duration": 3, "velocity": 102}, {"time": 1777, "pitch": 48, "duration": 10, "velocity": 93}, {"time": 1783, "pitch": 55, "duration": 3, "velocity": 93}, {"time": 1786, "pitch": 41, "duration": 17, "velocity": 79}, {"time": 1789, "pitch": 48, "duration": 14, "velocity": 52}, {"time": 1792, "pitch": 53, "duration": 8, "velocity": 72}, {"time": 1795, "pitch": 55, "duration": 4, "velocity": 81}, {"time": 1798, "pitch": 57, "duration": 3, "velocity": 59}, {"time": 1801, "pitch": 55, "duration": 2, "velocity": 82}, {"time": 1804, "pitch": 48, "duration": 12, "velocity": 97}, {"time": 1804, "pitch": 55, "duration": 12, "velocity": 77}, {"time": 1804, "pitch": 60, "duration": 12, "velocity": 122}, {"time": 1804, "pitch": 64, "duration": 12, "velocity": 102}, {"time": 1816, "pitch": 41, "duration": 18, "velocity": 72}, {"time": 1819, "pitch": 48, "duration": 10, "velocity": 81}, {"time": 1822, "pitch": 53, "duration": 4, "velocity": 93}, {"time": 1825, "pitch": 57, "duration": 6, "velocity": 83}, {"time": 1828, "pitch": 65, "duration": 10, "velocity": 97}, {"time": 1831, "pitch": 48, "duration": 3, "velocity": 78}, {"time": 1834, "pitch": 60, "duration": 6, "velocity": 90}, {"time": 1837, "pitch": 57, "duration": 4, "velocity": 86}, {"time": 1840, "pitch": 36, "duration": 21, "velocity": 69}, {"time": 1843, "pitch": 43, "duration": 18, "velocity": 58}, {"time": 1846, "pitch": 48, "duration": 7, "velocity": 88}, {"time": 1849, "pitch": 55, "duration": 5, "velocity": 82}, {"time": 1852, "pitch": 64, "duration": 11, "velocity": 112}, {"time": 1855, "pitch": 48, "duration": 7, "velocity": 79}, {"time": 1858, "pitch": 60, "duration": 6, "velocity": 95}, {"time": 1861, "pitch": 55, "duration": 3, "velocity": 75}, {"time": 1864, "pitch": 38, "duration": 17, "velocity": 81}, {"time": 1867, "pitch": 45, "duration": 13, "velocity": 58}, {"time": 1870, "pitch": 50, "duration": 7, "velocity": 82}, {"time": 1873, "pitch": 57, "duration": 7, "velocity": 88}, {"time": 1876, "pitch": 65, "duration": 10, "velocity": 99}, {"time": 1879, "pitch": 50, "duration": 5, "velocity": 83}, {"time": 1882, "pitch": 62, "duration": 4, "velocity": 89}, {"time": 1885, "pitch": 57, "duration": 3, "velocity": 68}, {"time": 1888, "pitch": 46, "duration": 8, "velocity": 107}, {"time": 1891, "pitch": 53, "duration": 5, "velocity": 40}, {"time": 1894, "pitch": 58, "duration": 3, "velocity": 89}, {"time": 1894, "pitch": 62, "duration": 2, "velocity": 34}, {"time": 1897, "pitch": 48, "duration": 39, "velocity": 92}, {"time": 1906, "pitch": 55, "duration": 29, "velocity": 64}, {"time": 1906, "pitch": 60, "duration": 30, "velocity": 85}, {"time": 1906, "pitch": 64, "duration": 30, "velocity": 83}, {"time": 1936, "pitch": 46, "duration": 12, "velocity": 97}, {"time": 1939, "pitch": 53, "duration": 7, "velocity": 89}, {"time": 1942, "pitch": 58, "duration": 6, "velocity": 117}, {"time": 1945, "pitch": 62, "duration": 3, "velocity": 93}, {"time": 1948, "pitch": 48, "duration": 12, "velocity": 86}, {"time": 1951, "pitch": 55, "duration": 7, "velocity": 73}, {"time": 1954, "pitch": 64, "duration": 6, "velocity": 99}, {"time": 1957, "pitch": 60, "duration": 3, "velocity": 83}, {"time": 1960, "pitch": 50, "duration": 7, "velocity": 79}, {"time": 1963, "pitch": 57, "duration": 9, "velocity": 77}, {"time": 1966, "pitch": 65, "duration": 6, "velocity": 107}, {"time": 1969, "pitch": 62, "duration": 3, "velocity": 90}, {"time": 1972, "pitch": 48, "duration": 7, "velocity": 93}, {"time": 1975, "pitch": 55, "duration": 9, "velocity": 70}, {"time": 1978, "pitch": 64, "duration": 5, "velocity": 102}, {"time": 1981, "pitch": 60, "duration": 2, "velocity": 93}, {"time": 1984, "pitch": 46, "duration": 12, "velocity": 92}, {"time": 1987, "pitch": 53, "duration": 5, "velocity": 69}, {"time": 1990, "pitch": 58, "duration": 4, "velocity": 112}, {"time": 1993, "pitch": 62, "duration": 2, "velocity": 93}, {"time": 1996, "pitch": 45, "duration": 11, "velocity": 90}, {"time": 1999, "pitch": 57, "duration": 6, "velocity": 83}, {"time": 2002, "pitch": 64, "duration": 5, "velocity": 107}, {"time": 2005, "pitch": 60, "duration": 2, "velocity": 75}, {"time": 2008, "pitch": 43, "duration": 12, "velocity": 82}, {"time": 2011, "pitch": 55, "duration": 9, "velocity": 70}, {"time": 2014, "pitch": 58, "duration": 4, "velocity": 107}, {"time": 2017, "pitch": 62, "duration": 2, "velocity": 93}, {"time": 2020, "pitch": 48, "duration": 7, "velocity": 100}, {"time": 2023, "pitch": 55, "duration": 7, "velocity": 86}, {"time": 2026, "pitch": 64, "duration": 6, "velocity": 107}, {"time": 2029, "pitch": 60, "duration": 3, "velocity": 97}, {"time": 2032, "pitch": 46, "duration": 12, "velocity": 102}, {"time": 2035, "pitch": 58, "duration": 5, "velocity": 89}, {"time": 2038, "pitch": 62, "duration": 4, "velocity": 107}, {"time": 2041, "pitch": 65, "duration": 2, "velocity": 100}, {"time": 2044, "pitch": 48, "duration": 12, "velocity": 69}, {"time": 2047, "pitch": 55, "duration": 5, "velocity": 86}, {"time": 2050, "pitch": 64, "duration": 5, "velocity": 107}, {"time": 2053, "pitch": 60, "duration": 4, "velocity": 100}, {"time": 2056, "pitch": 45, "duration": 13, "velocity": 83}, {"time": 2059, "pitch": 57, "duration": 8, "velocity": 81}, {"time": 2062, "pitch": 60, "duration": 4, "velocity": 112}, {"time": 2065, "pitch": 64, "duration": 2, "velocity": 90}, {"time": 2068, "pitch": 50, "duration": 9, "velocity": 82}, {"time": 2071, "pitch": 57, "duration": 9, "velocity": 82}, {"time": 2074, "pitch": 66, "duration": 6, "velocity": 127}, {"time": 2077, "pitch": 62, "duration": 3, "velocity": 67}, {"time": 2080, "pitch": 46, "duration": 23, "velocity": 92}, {"time": 2083, "pitch": 53, "duration": 5, "velocity": 67}, {"time": 2086, "pitch": 58, "duration": 5, "velocity": 107}, {"time": 2089, "pitch": 53, "duration": 4, "velocity": 86}, {"time": 2092, "pitch": 62, "duration": 12, "velocity": 97}, {"time": 2095, "pitch": 53, "duration": 4, "velocity": 76}, {"time": 2098, "pitch": 58, "duration": 6, "velocity": 85}, {"time": 2101, "pitch": 53, "duration": 4, "velocity": 68}, {"time": 2104, "pitch": 48, "duration": 14, "velocity": 78}, {"time": 2107, "pitch": 55, "duration": 5, "velocity": 77}, {"time": 2110, "pitch": 60, "duration": 5, "velocity": 86}, {"time": 2113, "pitch": 55, "duration": 3, "velocity": 95}, {"time": 2116, "pitch": 60, "duration": 7, "velocity": 102}, {"time": 2116, "pitch": 64, "duration": 7, "velocity": 117}, {"time": 2119, "pitch": 48, "duration": 4, "velocity": 112}, {"time": 2122, "pitch": 55, "duration": 7, "velocity": 90}, {"time": 2128, "pitch": 46, "duration": 13, "velocity": 107}, {"time": 2131, "pitch": 53, "duration": 5, "velocity": 83}, {"time": 2134, "pitch": 58, "duration": 7, "velocity": 127}, {"time": 2137, "pitch": 53, "duration": 3, "velocity": 85}, {"time": 2140, "pitch": 48, "duration": 12, "velocity": 100}, {"time": 2143, "pitch": 55, "duration": 9, "velocity": 86}, {"time": 2146, "pitch": 60, "duration": 6, "velocity": 95}, {"time": 2146, "pitch": 64, "duration": 1, "velocity": 59}, {"time": 2149, "pitch": 64, "duration": 3, "velocity": 86}, {"time": 2152, "pitch": 50, "duration": 12, "velocity": 96}, {"time": 2155, "pitch": 57, "duration": 9, "velocity": 72}, {"time": 2158, "pitch": 65, "duration": 5, "velocity": 99}, {"time": 2161, "pitch": 62, "duration": 3, "velocity": 92}, {"time": 2164, "pitch": 48, "duration": 10, "velocity": 97}, {"time": 2167, "pitch": 55, "duration": 9, "velocity": 79}, {"time": 2170, "pitch": 64, "duration": 6, "velocity": 102}, {"time": 2173, "pitch": 60, "duration": 2, "velocity": 92}, {"time": 2176, "pitch": 46, "duration": 12, "velocity": 100}, {"time": 2179, "pitch": 53, "duration": 8, "velocity": 82}, {"time": 2182, "pitch": 62, "duration": 6, "velocity": 97}, {"time": 2185, "pitch": 58, "duration": 2, "velocity": 117}, {"time": 2188, "pitch": 48, "duration": 12, "velocity": 78}, {"time": 2191, "pitch": 55, "duration": 8, "velocity": 70}, {"time": 2194, "pitch": 60, "duration": 7, "velocity": 107}, {"time": 2197, "pitch": 64, "duration": 3, "velocity": 90}, {"time": 2200, "pitch": 50, "duration": 12, "velocity": 92}, {"time": 2203, "pitch": 57, "duration": 9, "velocity": 74}, {"time": 2206, "pitch": 65, "duration": 5, "velocity": 100}, {"time": 2209, "pitch": 62, "duration": 3, "velocity": 102}, {"time": 2212, "pitch": 48, "duration": 12, "velocity": 95}, {"time": 2215, "pitch": 55, "duration": 10, "velocity": 81}, {"time": 2218, "pitch": 64, "duration": 5, "velocity": 102}, {"time": 2221, "pitch": 60, "duration": 3, "velocity": 99}, {"time": 2224, "pitch": 46, "duration": 12, "velocity": 100}, {"time": 2227, "pitch": 53, "duration": 9, "velocity": 70}, {"time": 2230, "pitch": 62, "duration": 7, "velocity": 88}, {"time": 2233, "pitch": 58, "duration": 4, "velocity": 117}, {"time": 2236, "pitch": 48, "duration": 12, "velocity": 65}, {"time": 2239, "pitch": 55, "duration": 6, "velocity": 73}, {"time": 2242, "pitch": 64, "duration": 6, "velocity": 97}, {"time": 2245, "pitch": 60, "duration": 5, "velocity": 99}, {"time": 2248, "pitch": 45, "duration": 12, "velocity": 81}, {"time": 2251, "pitch": 57, "duration": 10, "velocity": 79}, {"time": 2254, "pitch": 64, "duration": 5, "velocity": 97}, {"time": 2257, "pitch": 60, "duration": 4, "velocity": 97}, {"time": 2260, "pitch": 50, "duration": 11, "velocity": 117}, {"time": 2263, "pitch": 57, "duration": 9, "velocity": 85}, {"time": 2266, "pitch": 66, "duration": 5, "velocity": 122}, {"time": 2269, "pitch": 62, "duration": 3, "velocity": 92}, {"time": 2272, "pitch": 46, "duration": 14, "velocity": 97}, {"time": 2275, "pitch": 53, "duration": 5, "velocity": 60}, {"time": 2278, "pitch": 58, "duration": 5, "velocity": 100}, {"time": 2281, "pitch": 53, "duration": 4, "velocity": 72}, {"time": 2284, "pitch": 58, "duration": 7, "velocity": 76}, {"time": 2284, "pitch": 62, "duration": 10, "velocity": 97}, {"time": 2287, "pitch": 46, "duration": 8, "velocity": 86}, {"time": 2290, "pitch": 53, "duration": 4, "velocity": 86}, {"time": 2293, "pitch": 58, "duration": 2, "velocity": 102}, {"time": 2296, "pitch": 48, "duration": 8, "velocity": 107}, {"time": 2296, "pitch": 55, "duration": 4, "velocity": 90}, {"time": 2296, "pitch": 60, "duration": 8, "velocity": 112}, {"time": 2296, "pitch": 64, "duration": 10, "velocity": 107}, {"time": 2302, "pitch": 55, "duration": 6, "velocity": 99}, {"time": 2305, "pitch": 48, "duration": 4, "velocity": 89}, {"time": 2308, "pitch": 60, "duration": 7, "velocity": 117}, {"time": 2308, "pitch": 64, "duration": 11, "velocity": 102}, {"time": 2311, "pitch": 48, "duration": 8, "velocity": 127}, {"time": 2314, "pitch": 55, "duration": 4, "velocity": 96}, {"time": 2317, "pitch": 60, "duration": 2, "velocity": 107}, {"time": 2320, "pitch": 41, "duration": 19, "velocity": 92}, {"time": 2323, "pitch": 48, "duration": 10, "velocity": 102}, {"time": 2326, "pitch": 53, "duration": 4, "velocity": 107}, {"time": 2329, "pitch": 57, "duration": 6, "velocity": 100}, {"time": 2332, "pitch": 65, "duration": 9, "velocity": 127}, {"time": 2335, "pitch": 48, "duration": 3, "velocity": 96}, {"time": 2338, "pitch": 60, "duration": 7, "velocity": 122}, {"time": 2341, "pitch": 57, "duration": 3, "velocity": 99}, {"time": 2344, "pitch": 36, "duration": 23, "velocity": 89}, {"time": 2347, "pitch": 43, "duration": 21, "velocity": 86}, {"time": 2350, "pitch": 48, "duration": 7, "velocity": 97}, {"time": 2353, "pitch": 55, "duration": 5, "velocity": 96}, {"time": 2356, "pitch": 64, "duration": 12, "velocity": 127}, {"time": 2359, "pitch": 48, "duration": 3, "velocity": 112}, {"time": 2362, "pitch": 60, "duration": 15, "velocity": 97}, {"time": 2365, "pitch": 55, "duration": 3, "velocity": 100}, {"time": 2368, "pitch": 38, "duration": 19, "velocity": 95}, {"time": 2371, "pitch": 45, "duration": 15, "velocity": 95}, {"time": 2374, "pitch": 50, "duration": 7, "velocity": 100}, {"time": 2377, "pitch": 57, "duration": 5, "velocity": 78}, {"time": 2380, "pitch": 62, "duration": 7, "velocity": 102}, {"time": 2380, "pitch": 65, "duration": 6, "velocity": 117}, {"time": 2383, "pitch": 50, "duration": 8, "velocity": 107}, {"time": 2386, "pitch": 57, "duration": 3, "velocity": 102}, {"time": 2389, "pitch": 58, "duration": 1, "velocity": 74}, {"time": 2392, "pitch": 46, "duration": 8, "velocity": 117}, {"time": 2392, "pitch": 53, "duration": 2, "velocity": 96}, {"time": 2392, "pitch": 58, "duration": 8, "velocity": 127}, {"time": 2392, "pitch": 62, "duration": 7, "velocity": 97}, {"time": 2392, "pitch": 65, "duration": 6, "velocity": 90}, {"time": 2398, "pitch": 53, "duration": 2, "velocity": 93}, {"time": 2401, "pitch": 48, "duration": 9, "velocity": 107}, {"time": 2401, "pitch": 55, "duration": 4, "velocity": 95}, {"time": 2401, "pitch": 60, "duration": 7, "velocity": 112}, {"time": 2401, "pitch": 64, "duration": 6, "velocity": 112}, {"time": 2407, "pitch": 55, "duration": 2, "velocity": 100}, {"time": 2410, "pitch": 41, "duration": 17, "velocity": 93}, {"time": 2410, "pitch": 53, "duration": 12, "velocity": 107}, {"time": 2410, "pitch": 57, "duration": 14, "velocity": 99}, {"time": 2410, "pitch": 60, "duration": 14, "velocity": 102}, {"time": 2422, "pitch": 48, "duration": 5, "velocity": 59}, {"time": 2428, "pitch": 48, "duration": 7, "velocity": 100}, {"time": 2428, "pitch": 55, "duration": 5, "velocity": 112}, {"time": 2428, "pitch": 60, "duration": 5, "velocity": 122}, {"time": 2428, "pitch": 64, "duration": 5, "velocity": 122}, {"time": 2434, "pitch": 55, "duration": 5, "velocity": 96}, {"time": 2434, "pitch": 60, "duration": 4, "velocity": 117}, {"time": 2434, "pitch": 64, "duration": 2, "velocity": 117}, {"time": 2440, "pitch": 41, "duration": 19, "velocity": 83}, {"time": 2440, "pitch": 53, "duration": 2, "velocity": 100}, {"time": 2440, "pitch": 57, "duration": 4, "velocity": 89}, {"time": 2440, "pitch": 60, "duration": 4, "velocity": 95}, {"time": 2443, "pitch": 48, "duration": 10, "velocity": 97}, {"time": 2446, "pitch": 53, "duration": 4, "velocity": 100}, {"time": 2449, "pitch": 55, "duration": 6, "velocity": 96}, {"time": 2452, "pitch": 60, "duration": 9, "velocity": 122}, {"time": 2455, "pitch": 48, "duration": 3, "velocity": 93}, {"time": 2458, "pitch": 57, "duration": 4, "velocity": 112}, {"time": 2461, "pitch": 55, "duration": 4, "velocity": 76}, {"time": 2464, "pitch": 36, "duration": 22, "velocity": 86}, {"time": 2467, "pitch": 43, "duration": 21, "velocity": 78}, {"time": 2470, "pitch": 48, "duration": 7, "velocity": 100}, {"time": 2473, "pitch": 55, "duration": 5, "velocity": 93}, {"time": 2476, "pitch": 64, "duration": 11, "velocity": 127}, {"time": 2479, "pitch": 48, "duration": 3, "velocity": 97}, {"time": 2482, "pitch": 60, "duration": 6, "velocity": 102}, {"time": 2485, "pitch": 57, "duration": 5, "velocity": 95}, {"time": 2488, "pitch": 38, "duration": 18, "velocity": 85}, {"time": 2491, "pitch": 45, "duration": 14, "velocity": 93}, {"time": 2494, "pitch": 50, "duration": 8, "velocity": 97}, {"time": 2497, "pitch": 57, "duration": 5, "velocity": 92}, {"time": 2500, "pitch": 65, "duration": 10, "velocity": 122}, {"time": 2503, "pitch": 50, "duration": 7, "velocity": 92}, {"time": 2506, "pitch": 62, "duration": 4, "velocity": 117}, {"time": 2509, "pitch": 57, "duration": 2, "velocity": 102}, {"time": 2512, "pitch": 46, "duration": 9, "velocity": 127}, {"time": 2515, "pitch": 53, "duration": 5, "velocity": 86}, {"time": 2518, "pitch": 62, "duration": 2, "velocity": 107}, {"time": 2521, "pitch": 48, "duration": 15, "velocity": 107}, {"time": 2521, "pitch": 60, "duration": 2, "velocity": 86}, {"time": 2527, "pitch": 55, "duration": 7, "velocity": 65}, {"time": 2530, "pitch": 64, "duration": 5, "velocity": 117}, {"time": 2533, "pitch": 60, "duration": 3, "velocity": 102}, {"time": 2536, "pitch": 41, "duration": 19, "velocity": 99}, {"time": 2539, "pitch": 48, "duration": 11, "velocity": 86}, {"time": 2542, "pitch": 53, "duration": 4, "velocity": 95}, {"time": 2545, "pitch": 57, "duration": 4, "velocity": 102}, {"time": 2548, "pitch": 60, "duration": 10, "velocity": 122}, {"time": 2551, "pitch": 48, "duration": 3, "velocity": 97}, {"time": 2554, "pitch": 57, "duration": 4, "velocity": 107}, {"time": 2557, "pitch": 55, "duration": 3, "velocity": 88}, {"time": 2560, "pitch": 36, "duration": 22, "velocity": 88}, {"time": 2563, "pitch": 43, "duration": 21, "velocity": 85}, {"time": 2566, "pitch": 48, "duration": 8, "velocity": 97}, {"time": 2569, "pitch": 55, "duration": 6, "velocity": 86}, {"time": 2572, "pitch": 64, "duration": 11, "velocity": 117}, {"time": 2575, "pitch": 48, "duration": 5, "velocity": 95}, {"time": 2578, "pitch": 60, "duration": 5, "velocity": 95}, {"time": 2581, "pitch": 55, "duration": 3, "velocity": 97}, {"time": 2584, "pitch": 38, "duration": 19, "velocity": 93}, {"time": 2587, "pitch": 45, "duration": 14, "velocity": 70}, {"time": 2590, "pitch": 50, "duration": 6, "velocity": 99}, {"time": 2593, "pitch": 57, "duration": 5, "velocity": 79}, {"time": 2596, "pitch": 65, "duration": 9, "velocity": 127}, {"time": 2599, "pitch": 50, "duration": 7, "velocity": 99}, {"time": 2602, "pitch": 62, "duration": 4, "velocity": 112}, {"time": 2605, "pitch": 57, "duration": 2, "velocity": 100}, {"time": 2608, "pitch": 46, "duration": 8, "velocity": 127}, {"time": 2611, "pitch": 53, "duration": 5, "velocity": 95}, {"time": 2614, "pitch": 62, "duration": 2, "velocity": 122}, {"time": 2617, "pitch": 48, "duration": 15, "velocity": 97}, {"time": 2623, "pitch": 55, "duration": 6, "velocity": 83}, {"time": 2626, "pitch": 64, "duration": 6, "velocity": 112}, {"time": 2629, "pitch": 60, "duration": 3, "velocity": 112}, {"time": 2632, "pitch": 41, "duration": 17, "velocity": 82}, {"time": 2635, "pitch": 48, "duration": 11, "velocity": 83}, {"time": 2638, "pitch": 53, "duration": 4, "velocity": 102}, {"time": 2641, "pitch": 57, "duration": 4, "velocity": 112}, {"time": 2644, "pitch": 60, "duration": 12, "velocity": 122}, {"time": 2647, "pitch": 48, "duration": 2, "velocity": 86}, {"time": 2650, "pitch": 57, "duration": 6, "velocity": 112}, {"time": 2653, "pitch": 53, "duration": 3, "velocity": 95}, {"time": 2656, "pitch": 36, "duration": 22, "velocity": 86}, {"time": 2659, "pitch": 43, "duration": 11, "velocity": 78}, {"time": 2662, "pitch": 48, "duration": 8, "velocity": 95}, {"time": 2665, "pitch": 55, "duration": 6, "velocity": 96}, {"time": 2668, "pitch": 64, "duration": 10, "velocity": 122}, {"time": 2671, "pitch": 43, "duration": 9, "velocity": 93}, {"time": 2674, "pitch": 60, "duration": 6, "velocity": 127}, {"time": 2677, "pitch": 55, "duration": 4, "velocity": 96}, {"time": 2680, "pitch": 38, "duration": 17, "velocity": 82}, {"time": 2683, "pitch": 45, "duration": 14, "velocity": 96}, {"time": 2686, "pitch": 50, "duration": 7, "velocity": 95}, {"time": 2689, "pitch": 57, "duration": 5, "velocity": 90}, {"time": 2692, "pitch": 65, "duration": 10, "velocity": 127}, {"time": 2695, "pitch": 50, "duration": 7, "velocity": 95}, {"time": 2698, "pitch": 62, "duration": 4, "velocity": 127}, {"time": 2701, "pitch": 57, "duration": 3, "velocity": 92}, {"time": 2704, "pitch": 46, "duration": 8, "velocity": 112}, {"time": 2707, "pitch": 53, "duration": 5, "velocity": 96}, {"time": 2710, "pitch": 62, "duration": 2, "velocity": 100}, {"time": 2713, "pitch": 48, "duration": 16, "velocity": 122}, {"time": 2719, "pitch": 55, "duration": 6, "velocity": 93}, {"time": 2722, "pitch": 64, "duration": 5, "velocity": 117}, {"time": 2725, "pitch": 60, "duration": 4, "velocity": 127}, {"time": 2728, "pitch": 41, "duration": 19, "velocity": 76}, {"time": 2731, "pitch": 48, "duration": 11, "velocity": 90}, {"time": 2734, "pitch": 53, "duration": 5, "velocity": 95}, {"time": 2737, "pitch": 57, "duration": 4, "velocity": 92}, {"time": 2740, "pitch": 65, "duration": 11, "velocity": 112}, {"time": 2743, "pitch": 48, "duration": 4, "velocity": 74}, {"time": 2746, "pitch": 60, "duration": 7, "velocity": 117}, {"time": 2749, "pitch": 57, "duration": 3, "velocity": 97}, {"time": 2752, "pitch": 36, "duration": 22, "velocity": 86}, {"time": 2755, "pitch": 43, "duration": 21, "velocity": 92}, {"time": 2758, "pitch": 48, "duration": 7, "velocity": 92}, {"time": 2761, "pitch": 55, "duration": 5, "velocity": 92}, {"time": 2764, "pitch": 64, "duration": 10, "velocity": 112}, {"time": 2767, "pitch": 48, "duration": 3, "velocity": 100}, {"time": 2770, "pitch": 60, "duration": 5, "velocity": 112}, {"time": 2773, "pitch": 55, "duration": 4, "velocity": 99}, {"time": 2776, "pitch": 38, "duration": 18, "velocity": 89}, {"time": 2779, "pitch": 45, "duration": 14, "velocity": 82}, {"time": 2782, "pitch": 50, "duration": 7, "velocity": 96}, {"time": 2785, "pitch": 57, "duration": 5, "velocity": 88}, {"time": 2788, "pitch": 65, "duration": 10, "velocity": 127}, {"time": 2791, "pitch": 50, "duration": 5, "velocity": 99}, {"time": 2794, "pitch": 62, "duration": 4, "velocity": 117}, {"time": 2797, "pitch": 57, "duration": 3, "velocity": 117}, {"time": 2800, "pitch": 46, "duration": 8, "velocity": 112}, {"time": 2803, "pitch": 53, "duration": 4, "velocity": 93}, {"time": 2806, "pitch": 62, "duration": 2, "velocity": 112}, {"time": 2809, "pitch": 48, "duration": 9, "velocity": 112}, {"time": 2815, "pitch": 60, "duration": 3, "velocity": 107}, {"time": 2815, "pitch": 64, "duration": 3, "velocity": 100}, {"time": 2818, "pitch": 41, "duration": 29, "velocity": 97}, {"time": 2821, "pitch": 48, "duration": 11, "velocity": 86}, {"time": 2824, "pitch": 53, "duration": 8, "velocity": 97}, {"time": 2827, "pitch": 57, "duration": 5, "velocity": 89}, {"time": 2830, "pitch": 65, "duration": 9, "velocity": 122}, {"time": 2833, "pitch": 48, "duration": 14, "velocity": 100}, {"time": 2836, "pitch": 60, "duration": 3, "velocity": 122}, {"time": 2839, "pitch": 57, "duration": 4, "velocity": 65}, {"time": 2842, "pitch": 55, "duration": 4, "velocity": 100}, {"time": 2845, "pitch": 57, "duration": 3, "velocity": 96}, {"time": 2848, "pitch": 41, "duration": 18, "velocity": 92}, {"time": 2851, "pitch": 48, "duration": 11, "velocity": 83}, {"time": 2854, "pitch": 53, "duration": 4, "velocity": 97}, {"time": 2857, "pitch": 57, "duration": 5, "velocity": 89}, {"time": 2860, "pitch": 65, "duration": 9, "velocity": 112}, {"time": 2863, "pitch": 48, "duration": 2, "velocity": 79}, {"time": 2866, "pitch": 60, "duration": 6, "velocity": 96}, {"time": 2869, "pitch": 57, "duration": 3, "velocity": 96}, {"time": 2872, "pitch": 36, "duration": 22, "velocity": 88}, {"time": 2875, "pitch": 43, "duration": 21, "velocity": 73}, {"time": 2878, "pitch": 48, "duration": 7, "velocity": 92}, {"time": 2881, "pitch": 55, "duration": 5, "velocity": 86}, {"time": 2884, "pitch": 64, "duration": 11, "velocity": 112}, {"time": 2887, "pitch": 48, "duration": 3, "velocity": 100}, {"time": 2890, "pitch": 60, "duration": 4, "velocity": 107}, {"time": 2893, "pitch": 55, "duration": 4, "velocity": 95}, {"time": 2896, "pitch": 38, "duration": 18, "velocity": 92}, {"time": 2899, "pitch": 45, "duration": 14, "velocity": 81}, {"time": 2902, "pitch": 50, "duration": 7, "velocity": 95}, {"time": 2905, "pitch": 57, "duration": 4, "velocity": 90}, {"time": 2908, "pitch": 65, "duration": 10, "velocity": 127}, {"time": 2911, "pitch": 50, "duration": 6, "velocity": 97}, {"time": 2914, "pitch": 62, "duration": 4, "velocity": 112}, {"time": 2917, "pitch": 57, "duration": 3, "velocity": 90}, {"time": 2920, "pitch": 46, "duration": 8, "velocity": 122}, {"time": 2923, "pitch": 58, "duration": 4, "velocity": 112}, {"time": 2926, "pitch": 62, "duration": 2, "velocity": 97}, {"time": 2929, "pitch": 48, "duration": 15, "velocity": 117}, {"time": 2935, "pitch": 55, "duration": 5, "velocity": 56}, {"time": 2938, "pitch": 60, "duration": 6, "velocity": 122}, {"time": 2941, "pitch": 55, "duration": 3, "velocity": 93}, {"time": 2944, "pitch": 41, "duration": 19, "velocity": 86}, {"time": 2947, "pitch": 48, "duration": 10, "velocity": 75}, {"time": 2950, "pitch": 53, "duration": 5, "velocity": 89}, {"time": 2953, "pitch": 57, "duration": 5, "velocity": 88}, {"time": 2956, "pitch": 65, "duration": 10, "velocity": 122}, {"time": 2959, "pitch": 48, "duration": 3, "velocity": 95}, {"time": 2962, "pitch": 60, "duration": 6, "velocity": 107}, {"time": 2965, "pitch": 57, "duration": 3, "velocity": 99}, {"time": 2968, "pitch": 36, "duration": 22, "velocity": 90}, {"time": 2971, "pitch": 43, "duration": 19, "velocity": 55}, {"time": 2974, "pitch": 48, "duration": 8, "velocity": 89}, {"time": 2977, "pitch": 55, "duration": 5, "velocity": 85}, {"time": 2980, "pitch": 64, "duration": 11, "velocity": 127}, {"time": 2983, "pitch": 48, "duration": 8, "velocity": 92}, {"time": 2986, "pitch": 60, "duration": 5, "velocity": 112}, {"time": 2989, "pitch": 55, "duration": 3, "velocity": 99}, {"time": 2992, "pitch": 38, "duration": 18, "velocity": 72}, {"time": 2995, "pitch": 45, "duration": 13, "velocity": 89}, {"time": 2998, "pitch": 50, "duration": 7, "velocity": 93}, {"time": 3001, "pitch": 57, "duration": 5, "velocity": 92}, {"time": 3004, "pitch": 65, "duration": 10, "velocity": 127}, {"time": 3007, "pitch": 50, "duration": 5, "velocity": 112}, {"time": 3010, "pitch": 62, "duration": 3, "velocity": 127}, {"time": 3013, "pitch": 57, "duration": 2, "velocity": 90}, {"time": 3016, "pitch": 46, "duration": 9, "velocity": 117}, {"time": 3019, "pitch": 58, "duration": 4, "velocity": 107}, {"time": 3022, "pitch": 62, "duration": 2, "velocity": 96}, {"time": 3025, "pitch": 48, "duration": 15, "velocity": 117}, {"time": 3031, "pitch": 55, "duration": 5, "velocity": 90}, {"time": 3034, "pitch": 64, "duration": 5, "velocity": 117}, {"time": 3037, "pitch": 60, "duration": 4, "velocity": 122}, {"time": 3040, "pitch": 41, "duration": 19, "velocity": 82}, {"time": 3043, "pitch": 48, "duration": 11, "velocity": 89}, {"time": 3046, "pitch": 53, "duration": 7, "velocity": 96}, {"time": 3049, "pitch": 57, "duration": 4, "velocity": 82}, {"time": 3052, "pitch": 65, "duration": 11, "velocity": 112}, {"time": 3055, "pitch": 48, "duration": 3, "velocity": 83}, {"time": 3058, "pitch": 60, "duration": 5, "velocity": 100}, {"time": 3061, "pitch": 57, "duration": 3, "velocity": 90}, {"time": 3064, "pitch": 36, "duration": 22, "velocity": 61}, {"time": 3067, "pitch": 43, "duration": 21, "velocity": 59}, {"time": 3070, "pitch": 48, "duration": 8, "velocity": 100}, {"time": 3073, "pitch": 55, "duration": 5, "velocity": 89}, {"time": 3076, "pitch": 64, "duration": 10, "velocity": 122}, {"time": 3079, "pitch": 48, "duration": 3, "velocity": 95}, {"time": 3082, "pitch": 55, "duration": 4, "velocity": 89}, {"time": 3085, "pitch": 60, "duration": 3, "velocity": 107}, {"time": 3088, "pitch": 38, "duration": 18, "velocity": 88}, {"time": 3091, "pitch": 45, "duration": 14, "velocity": 69}, {"time": 3094, "pitch": 50, "duration": 8, "velocity": 93}, {"time": 3097, "pitch": 57, "duration": 5, "velocity": 75}, {"time": 3100, "pitch": 65, "duration": 9, "velocity": 107}, {"time": 3103, "pitch": 50, "duration": 6, "velocity": 93}, {"time": 3106, "pitch": 62, "duration": 3, "velocity": 107}, {"time": 3109, "pitch": 57, "duration": 2, "velocity": 92}, {"time": 3112, "pitch": 46, "duration": 8, "velocity": 100}, {"time": 3112, "pitch": 53, "duration": 4, "velocity": 93}, {"time": 3112, "pitch": 58, "duration": 8, "velocity": 112}, {"time": 3112, "pitch": 62, "duration": 7, "velocity": 92}, {"time": 3121, "pitch": 48, "duration": 22, "velocity": 90}, {"time": 3121, "pitch": 55, "duration": 22, "velocity": 81}, {"time": 3121, "pitch": 60, "duration": 23, "velocity": 99}, {"time": 3121, "pitch": 64, "duration": 23, "velocity": 96}, {"time": 3160, "pitch": 46, "duration": 12, "velocity": 89}, {"time": 3163, "pitch": 53, "duration": 8, "velocity": 66}, {"time": 3166, "pitch": 58, "duration": 6, "velocity": 93}, {"time": 3169, "pitch": 62, "duration": 3, "velocity": 83}, {"time": 3172, "pitch": 48, "duration": 12, "velocity": 69}, {"time": 3175, "pitch": 55, "duration": 8, "velocity": 55}, {"time": 3178, "pitch": 64, "duration": 6, "velocity": 92}, {"time": 3181, "pitch": 60, "duration": 3, "velocity": 56}, {"time": 3184, "pitch": 50, "duration": 12, "velocity": 70}, {"time": 3187, "pitch": 57, "duration": 10, "velocity": 68}, {"time": 3190, "pitch": 62, "duration": 5, "velocity": 79}, {"time": 3193, "pitch": 65, "duration": 3, "velocity": 73}, {"time": 3196, "pitch": 48, "duration": 6, "velocity": 67}, {"time": 3199, "pitch": 55, "duration": 10, "velocity": 70}, {"time": 3202, "pitch": 64, "duration": 6, "velocity": 81}, {"time": 3205, "pitch": 60, "duration": 3, "velocity": 61}, {"time": 3208, "pitch": 46, "duration": 12, "velocity": 76}, {"time": 3211, "pitch": 53, "duration": 7, "velocity": 63}, {"time": 3214, "pitch": 58, "duration": 5, "velocity": 92}, {"time": 3217, "pitch": 62, "duration": 3, "velocity": 70}, {"time": 3220, "pitch": 45, "duration": 13, "velocity": 69}, {"time": 3223, "pitch": 57, "duration": 6, "velocity": 66}, {"time": 3226, "pitch": 64, "duration": 6, "velocity": 93}, {"time": 3229, "pitch": 60, "duration": 3, "velocity": 64}, {"time": 3232, "pitch": 43, "duration": 55, "velocity": 77}, {"time": 3235, "pitch": 50, "duration": 50, "velocity": 77}, {"time": 3238, "pitch": 55, "duration": 46, "velocity": 77}, {"time": 3242, "pitch": 58, "duration": 42, "velocity": 63}, {"time": 3242, "pitch": 62, "duration": 42, "velocity": 72}, {"time": 3242, "pitch": 67, "duration": 42, "velocity": 59}, {"time": 3285, "pitch": 53, "duration": 11, "velocity": 59}, {"time": 3285, "pitch": 46, "duration": 5, "velocity": 38}, {"time": 3286, "pitch": 58, "duration": 12, "velocity": 83}, {"time": 3287, "pitch": 62, "duration": 11, "velocity": 73}, {"time": 3288, "pitch": 65, "duration": 11, "velocity": 79}, {"time": 3296, "pitch": 46, "duration": 35, "velocity": 39}, {"time": 3300, "pitch": 53, "duration": 31, "velocity": 57}, {"time": 3303, "pitch": 58, "duration": 6, "velocity": 75}, {"time": 3308, "pitch": 62, "duration": 4, "velocity": 69}, {"time": 3311, "pitch": 65, "duration": 2, "velocity": 67}, {"time": 3316, "pitch": 70, "duration": 12, "velocity": 72}, {"time": 3321, "pitch": 74, "duration": 17, "velocity": 95}, {"time": 3326, "pitch": 77, "duration": 12, "velocity": 88}, {"time": 3333, "pitch": 70, "duration": 3, "velocity": 73}, {"time": 3340, "pitch": 41, "duration": 63, "velocity": 82}, {"time": 3345, "pitch": 48, "duration": 58, "velocity": 61}, {"time": 3348, "pitch": 53, "duration": 55, "velocity": 69}, {"time": 3350, "pitch": 55, "duration": 5, "velocity": 55}, {"time": 3353, "pitch": 57, "duration": 3, "velocity": 58}, {"time": 3356, "pitch": 60, "duration": 1, "velocity": 78}, {"time": 3358, "pitch": 65, "duration": 4, "velocity": 81}, {"time": 3362, "pitch": 67, "duration": 4, "velocity": 63}, {"time": 3365, "pitch": 69, "duration": 1, "velocity": 68}, {"time": 3369, "pitch": 77, "duration": 4, "velocity": 51}, {"time": 3373, "pitch": 79, "duration": 5, "velocity": 53}, {"time": 3377, "pitch": 81, "duration": 2, "velocity": 62}, {"time": 3389, "pitch": 89, "duration": 14, "velocity": 33}, {"time": 3389, "pitch": 93, "duration": 13, "velocity": 37}, {"time": 3390, "pitch": 96, "duration": 12, "velocity": 36}], "annotations": [{"time": 16, "annotation": {"number": 64, "value": 127}, "group": "control_change"}, {"time": 26, "annotation": {"number": 64, "value": 0}, "group": "control_change"}, {"time": 30, "annotation": {"number": 64, "value": 127}, "group": "control_change"}, {"time": 39, "annotation": {"number": 64, "value": 0}, "group": "control_change"}, {"time": 40, "annotation": {"number": 64, "value": 127}, "group": "control_change"}, {"time": 51, "annotation": {"number": 64, "value": 0}, "group": "control_change"}, {"time": 53, "annotation": {"number": 64, "value": 127}, "group": "control_change"}, {"time": 63, "annotation": {"number": 64, "value": 0}, "group": "control_change"}, {"time": 66, "annotation": {"number": 64, "value": 127}, "group": "control_change"}, {"time": 75, "annotation": {"number": 64, "value": 0}, "group": "control_change"}, {"time": 78, "annotation": {"number": 64, "value": 127}, "group": "control_change"}, {"time": 86, "annotation": {"number": 64, "value": 0}, "group": "control_change"}, {"time": 90, "annotation": {"number": 64, "value": 127}, "group": "control_change"}, {"time": 99, "annotation": {"number": 64, "value": 0}, "group": "control_change"}, {"time": 102, "annotation": {"number": 64, "value": 127}, "group": "control_change"}, {"time": 110, "annotation": {"number": 64, "value": 0}, "group": "control_change"}, {"time": 113, "annotation": {"number": 64, "value": 127}, "group": "control_change"}, {"time": 148, "annotation": {"number": 64, "value": 0}, "group": "control_change"}, {"time": 160, "annotation": {"number": 64, "value": 127}, "group": "control_change"}, {"time": 207, "annotation": {"number": 64, "value": 0}, "group": "control_change"}, {"time": 210, "annotation": {"number": 64, "value": 127}, "group": "control_change"}, {"time": 230, "annotation": {"number": 64, "value": 0}, "group": "control_change"}, {"time": 233, "annotation": {"number": 64, "value": 127}, "group": "control_change"}, {"time": 254, "annotation": {"number": 64, "value": 0}, "group": "control_change"}, {"time": 257, "annotation": {"number": 64, "value": 127}, "group": "control_change"}, {"time": 279, "annotation": {"number": 64, "value": 0}, "group": "control_change"}, {"time": 281, "annotation": {"number": 64, "value": 127}, "group": "control_change"}, {"time": 302, "annotation": {"number": 64, "value": 0}, "group": "control_change"}, {"time": 305, "annotation": {"number": 64, "value": 127}, "group": "control_change"}, {"time": 327, "annotation": {"number": 64, "value": 0}, "group": "control_change"}, {"time": 329, "annotation": {"number": 64, "value": 127}, "group": "control_change"}, {"time": 351, "annotation": {"number": 64, "value": 0}, "group": "control_change"}, {"time": 353, "annotation": {"number": 64, "value": 127}, "group": "control_change"}, {"time": 374, "annotation": {"number": 64, "value": 0}, "group": "control_change"}, {"time": 377, "annotation": {"number": 64, "value": 127}, "group": "control_change"}, {"time": 399, "annotation": {"number": 64, "value": 0}, "group": "control_change"}, {"time": 402, "annotation": {"number": 64, "value": 127}, "group": "control_change"}, {"time": 423, "annotation": {"number": 64, "value": 0}, "group": "control_change"}, {"time": 425, "annotation": {"number": 64, "value": 127}, "group": "control_change"}, {"time": 447, "annotation": {"number": 64, "value": 0}, "group": "control_change"}, {"time": 449, "annotation": {"number": 64, "value": 127}, "group": "control_change"}, {"time": 471, "annotation": {"number": 64, "value": 0}, "group": "control_change"}, {"time": 473, "annotation": {"number": 64, "value": 127}, "group": "control_change"}, {"time": 494, "annotation": {"number": 64, "value": 0}, "group": "control_change"}, {"time": 497, "annotation": {"number": 64, "value": 127}, "group": "control_change"}, {"time": 519, "annotation": {"number": 64, "value": 0}, "group": "control_change"}, {"time": 522, "annotation": {"number": 64, "value": 127}, "group": "control_change"}, {"time": 531, "annotation": {"number": 64, "value": 0}, "group": "control_change"}, {"time": 544, "annotation": {"number": 64, "value": 127}, "group": "control_change"}, {"time": 567, "annotation": {"number": 64, "value": 0}, "group": "control_change"}, {"time": 574, "annotation": {"number": 64, "value": 127}, "group": "control_change"}, {"time": 590, "annotation": {"number": 64, "value": 0}, "group": "control_change"}, {"time": 593, "annotation": {"number": 64, "value": 127}, "group": "control_change"}, {"time": 614, "annotation": {"number": 64, "value": 0}, "group": "control_change"}, {"time": 618, "annotation": {"number": 64, "value": 127}, "group": "control_change"}, {"time": 636, "annotation": {"number": 64, "value": 0}, "group": "control_change"}, {"time": 641, "annotation": {"number": 64, "value": 127}, "group": "control_change"}, {"time": 658, "annotation": {"number": 64, "value": 0}, "group": "control_change"}, {"time": 669, "annotation": {"number": 64, "value": 127}, "group": "control_change"}, {"time": 686, "annotation": {"number": 64, "value": 0}, "group": "control_change"}, {"time": 690, "annotation": {"number": 64, "value": 127}, "group": "control_change"}, {"time": 711, "annotation": {"number": 64, "value": 0}, "group": "control_change"}, {"time": 711, "annotation": {"number": 64, "value": 127}, "group": "control_change"}, {"time": 735, "annotation": {"number": 64, "value": 0}, "group": "control_change"}, {"time": 739, "annotation": {"number": 64, "value": 127}, "group": "control_change"}, {"time": 761, "annotation": {"number": 64, "value": 127}, "group": "control_change"}, {"time": 783, "annotation": {"number": 64, "value": 0}, "group": "control_change"}, {"time": 785, "annotation": {"number": 64, "value": 127}, "group": "control_change"}, {"time": 807, "annotation": {"number": 64, "value": 0}, "group": "control_change"}, {"time": 809, "annotation": {"number": 64, "value": 127}, "group": "control_change"}, {"time": 831, "annotation": {"number": 64, "value": 0}, "group": "control_change"}, {"time": 833, "annotation": {"number": 64, "value": 127}, "group": "control_change"}, {"time": 855, "annotation": {"number": 64, "value": 0}, "group": "control_change"}, {"time": 859, "annotation": {"number": 64, "value": 127}, "group": "control_change"}, {"time": 877, "annotation": {"number": 64, "value": 0}, "group": "control_change"}, {"time": 882, "annotation": {"number": 64, "value": 127}, "group": "control_change"}, {"time": 903, "annotation": {"number": 64, "value": 0}, "group": "control_change"}, {"time": 905, "annotation": {"number": 64, "value": 127}, "group": "control_change"}, {"time": 916, "annotation": {"number": 64, "value": 0}, "group": "control_change"}, {"time": 929, "annotation": {"number": 64, "value": 127}, "group": "control_change"}, {"time": 950, "annotation": {"number": 64, "value": 0}, "group": "control_change"}, {"time": 954, "annotation": {"number": 64, "value": 127}, "group": "control_change"}, {"time": 975, "annotation": {"number": 64, "value": 0}, "group": "control_change"}, {"time": 977, "annotation": {"number": 64, "value": 127}, "group": "control_change"}, {"time": 999, "annotation": {"number": 64, "value": 0}, "group": "control_change"}, {"time": 1001, "annotation": {"number": 64, "value": 127}, "group": "control_change"}, {"time": 1006, "annotation": {"number": 64, "value": 0}, "group": "control_change"}, {"time": 1014, "annotation": {"number": 64, "value": 127}, "group": "control_change"}, {"time": 1016, "annotation": {"number": 64, "value": 0}, "group": "control_change"}, {"time": 1025, "annotation": {"number": 64, "value": 127}, "group": "control_change"}, {"time": 1034, "annotation": {"number": 64, "value": 0}, "group": "control_change"}, {"time": 1048, "annotation": {"number": 64, "value": 127}, "group": "control_change"}, {"time": 1071, "annotation": {"number": 64, "value": 0}, "group": "control_change"}, {"time": 1074, "annotation": {"number": 64, "value": 127}, "group": "control_change"}, {"time": 1093, "annotation": {"number": 64, "value": 0}, "group": "control_change"}, {"time": 1103, "annotation": {"number": 64, "value": 127}, "group": "control_change"}, {"time": 1119, "annotation": {"number": 64, "value": 0}, "group": "control_change"}, {"time": 1122, "annotation": {"number": 64, "value": 127}, "group": "control_change"}, {"time": 1126, "annotation": {"number": 64, "value": 0}, "group": "control_change"}, {"time": 1168, "annotation": {"number": 64, "value": 127}, "group": "control_change"}, {"time": 1180, "annotation": {"number": 64, "value": 0}, "group": "control_change"}, {"time": 1182, "annotation": {"number": 64, "value": 127}, "group": "control_change"}, {"time": 1191, "annotation": {"number": 64, "value": 0}, "group": "control_change"}, {"time": 1195, "annotation": {"number": 64, "value": 127}, "group": "control_change"}, {"time": 1203, "annotation": {"number": 64, "value": 0}, "group": "control_change"}, {"time": 1208, "annotation": {"number": 64, "value": 127}, "group": "control_change"}, {"time": 1215, "annotation": {"number": 64, "value": 0}, "group": "control_change"}, {"time": 1218, "annotation": {"number": 64, "value": 127}, "group": "control_change"}, {"time": 1227, "annotation": {"number": 64, "value": 0}, "group": "control_change"}, {"time": 1231, "annotation": {"number": 64, "value": 127}, "group": "control_change"}, {"time": 1239, "annotation": {"number": 64, "value": 0}, "group": "control_change"}, {"time": 1243, "annotation": {"number": 64, "value": 127}, "group": "control_change"}, {"time": 1250, "annotation": {"number": 64, "value": 0}, "group": "control_change"}, {"time": 1255, "annotation": {"number": 64, "value": 127}, "group": "control_change"}, {"time": 1262, "annotation": {"number": 64, "value": 0}, "group": "control_change"}, {"time": 1266, "annotation": {"number": 64, "value": 127}, "group": "control_change"}, {"time": 1302, "annotation": {"number": 64, "value": 0}, "group": "control_change"}, {"time": 1312, "annotation": {"number": 64, "value": 127}, "group": "control_change"}, {"time": 1335, "annotation": {"number": 64, "value": 0}, "group": "control_change"}, {"time": 1342, "annotation": {"number": 64, "value": 127}, "group": "control_change"}, {"time": 1358, "annotation": {"number": 64, "value": 0}, "group": "control_change"}, {"time": 1361, "annotation": {"number": 64, "value": 127}, "group": "control_change"}, {"time": 1382, "annotation": {"number": 64, "value": 0}, "group": "control_change"}, {"time": 1386, "annotation": {"number": 64, "value": 127}, "group": "control_change"}, {"time": 1404, "annotation": {"number": 64, "value": 0}, "group": "control_change"}, {"time": 1409, "annotation": {"number": 64, "value": 127}, "group": "control_change"}, {"time": 1426, "annotation": {"number": 64, "value": 0}, "group": "control_change"}, {"time": 1437, "annotation": {"number": 64, "value": 127}, "group": "control_change"}, {"time": 1454, "annotation": {"number": 64, "value": 0}, "group": "control_change"}, {"time": 1458, "annotation": {"number": 64, "value": 127}, "group": "control_change"}, {"time": 1479, "annotation": {"number": 64, "value": 0}, "group": "control_change"}, {"time": 1479, "annotation": {"number": 64, "value": 127}, "group": "control_change"}, {"time": 1503, "annotation": {"number": 64, "value": 0}, "group": "control_change"}, {"time": 1507, "annotation": {"number": 64, "value": 127}, "group": "control_change"}, {"time": 1529, "annotation": {"number": 64, "value": 127}, "group": "control_change"}, {"time": 1551, "annotation": {"number": 64, "value": 0}, "group": "control_change"}, {"time": 1553, "annotation": {"number": 64, "value": 127}, "group": "control_change"}, {"time": 1575, "annotation": {"number": 64, "value": 0}, "group": "control_change"}, {"time": 1577, "annotation": {"number": 64, "value": 127}, "group": "control_change"}, {"time": 1599, "annotation": {"number": 64, "value": 0}, "group": "control_change"}, {"time": 1601, "annotation": {"number": 64, "value": 127}, "group": "control_change"}, {"time": 1623, "annotation": {"number": 64, "value": 0}, "group": "control_change"}, {"time": 1627, "annotation": {"number": 64, "value": 127}, "group": "control_change"}, {"time": 1645, "annotation": {"number": 64, "value": 0}, "group": "control_change"}, {"time": 1650, "annotation": {"number": 64, "value": 127}, "group": "control_change"}, {"time": 1671, "annotation": {"number": 64, "value": 0}, "group": "control_change"}, {"time": 1673, "annotation": {"number": 64, "value": 127}, "group": "control_change"}, {"time": 1684, "annotation": {"number": 64, "value": 0}, "group": "control_change"}, {"time": 1697, "annotation": {"number": 64, "value": 127}, "group": "control_change"}, {"time": 1718, "annotation": {"number": 64, "value": 0}, "group": "control_change"}, {"time": 1722, "annotation": {"number": 64, "value": 127}, "group": "control_change"}, {"time": 1743, "annotation": {"number": 64, "value": 0}, "group": "control_change"}, {"time": 1745, "annotation": {"number": 64, "value": 127}, "group": "control_change"}, {"time": 1767, "annotation": {"number": 64, "value": 0}, "group": "control_change"}, {"time": 1769, "annotation": {"number": 64, "value": 127}, "group": "control_change"}, {"time": 1774, "annotation": {"number": 64, "value": 0}, "group": "control_change"}, {"time": 1782, "annotation": {"number": 64, "value": 127}, "group": "control_change"}, {"time": 1784, "annotation": {"number": 64, "value": 0}, "group": "control_change"}, {"time": 1793, "annotation": {"number": 64, "value": 127}, "group": "control_change"}, {"time": 1802, "annotation": {"number": 64, "value": 0}, "group": "control_change"}, {"time": 1816, "annotation": {"number": 64, "value": 127}, "group": "control_change"}, {"time": 1839, "annotation": {"number": 64, "value": 0}, "group": "control_change"}, {"time": 1842, "annotation": {"number": 64, "value": 127}, "group": "control_change"}, {"time": 1861, "annotation": {"number": 64, "value": 0}, "group": "control_change"}, {"time": 1871, "annotation": {"number": 64, "value": 127}, "group": "control_change"}, {"time": 1887, "annotation": {"number": 64, "value": 0}, "group": "control_change"}, {"time": 1890, "annotation": {"number": 64, "value": 127}, "group": "control_change"}, {"time": 1894, "annotation": {"number": 64, "value": 0}, "group": "control_change"}, {"time": 1936, "annotation": {"number": 64, "value": 127}, "group": "control_change"}, {"time": 1948, "annotation": {"number": 64, "value": 0}, "group": "control_change"}, {"time": 1949, "annotation": {"number": 64, "value": 127}, "group": "control_change"}, {"time": 1962, "annotation": {"number": 64, "value": 0}, "group": "control_change"}, {"time": 1966, "annotation": {"number": 64, "value": 127}, "group": "control_change"}, {"time": 1972, "annotation": {"number": 64, "value": 0}, "group": "control_change"}, {"time": 1975, "annotation": {"number": 64, "value": 127}, "group": "control_change"}, {"time": 1984, "annotation": {"number": 64, "value": 0}, "group": "control_change"}, {"time": 1987, "annotation": {"number": 64, "value": 127}, "group": "control_change"}, {"time": 1995, "annotation": {"number": 64, "value": 0}, "group": "control_change"}, {"time": 1998, "annotation": {"number": 64, "value": 127}, "group": "control_change"}, {"time": 2006, "annotation": {"number": 64, "value": 0}, "group": "control_change"}, {"time": 2010, "annotation": {"number": 64, "value": 127}, "group": "control_change"}, {"time": 2018, "annotation": {"number": 64, "value": 0}, "group": "control_change"}, {"time": 2022, "annotation": {"number": 64, "value": 127}, "group": "control_change"}, {"time": 2031, "annotation": {"number": 64, "value": 0}, "group": "control_change"}, {"time": 2039, "annotation": {"number": 64, "value": 127}, "group": "control_change"}, {"time": 2039, "annotation": {"number": 64, "value": 0}, "group": "control_change"}, {"time": 2041, "annotation": {"number": 64, "value": 0}, "group": "control_change"}, {"time": 2046, "annotation": {"number": 64, "value": 127}, "group": "control_change"}, {"time": 2054, "annotation": {"number": 64, "value": 0}, "group": "control_change"}, {"time": 2058, "annotation": {"number": 64, "value": 127}, "group": "control_change"}, {"time": 2067, "annotation": {"number": 64, "value": 0}, "group": "control_change"}, {"time": 2071, "annotation": {"number": 64, "value": 127}, "group": "control_change"}, {"time": 2079, "annotation": {"number": 64, "value": 0}, "group": "control_change"}, {"time": 2082, "annotation": {"number": 64, "value": 127}, "group": "control_change"}, {"time": 2103, "annotation": {"number": 64, "value": 0}, "group": "control_change"}, {"time": 2106, "annotation": {"number": 64, "value": 127}, "group": "control_change"}, {"time": 2127, "annotation": {"number": 64, "value": 0}, "group": "control_change"}, {"time": 2129, "annotation": {"number": 64, "value": 127}, "group": "control_change"}, {"time": 2140, "annotation": {"number": 64, "value": 0}, "group": "control_change"}, {"time": 2143, "annotation": {"number": 64, "value": 127}, "group": "control_change"}, {"time": 2151, "annotation": {"number": 64, "value": 0}, "group": "control_change"}, {"time": 2154, "annotation": {"number": 64, "value": 127}, "group": "control_change"}, {"time": 2164, "annotation": {"number": 64, "value": 0}, "group": "control_change"}, {"time": 2169, "annotation": {"number": 64, "value": 127}, "group": "control_change"}, {"time": 2177, "annotation": {"number": 64, "value": 0}, "group": "control_change"}, {"time": 2183, "annotation": {"number": 64, "value": 127}, "group": "control_change"}, {"time": 2188, "annotation": {"number": 64, "value": 0}, "group": "control_change"}, {"time": 2194, "annotation": {"number": 64, "value": 127}, "group": "control_change"}, {"time": 2199, "annotation": {"number": 64, "value": 0}, "group": "control_change"}, {"time": 2205, "annotation": {"number": 64, "value": 127}, "group": "control_change"}, {"time": 2212, "annotation": {"number": 64, "value": 0}, "group": "control_change"}, {"time": 2218, "annotation": {"number": 64, "value": 127}, "group": "control_change"}, {"time": 2223, "annotation": {"number": 64, "value": 0}, "group": "control_change"}, {"time": 2229, "annotation": {"number": 64, "value": 127}, "group": "control_change"}, {"time": 2237, "annotation": {"number": 64, "value": 0}, "group": "control_change"}, {"time": 2242, "annotation": {"number": 64, "value": 127}, "group": "control_change"}, {"time": 2247, "annotation": {"number": 64, "value": 0}, "group": "control_change"}, {"time": 2250, "annotation": {"number": 64, "value": 127}, "group": "control_change"}, {"time": 2258, "annotation": {"number": 64, "value": 0}, "group": "control_change"}, {"time": 2262, "annotation": {"number": 64, "value": 127}, "group": "control_change"}, {"time": 2271, "annotation": {"number": 64, "value": 0}, "group": "control_change"}, {"time": 2275, "annotation": {"number": 64, "value": 127}, "group": "control_change"}, {"time": 2294, "annotation": {"number": 64, "value": 0}, "group": "control_change"}, {"time": 2297, "annotation": {"number": 64, "value": 127}, "group": "control_change"}, {"time": 2313, "annotation": {"number": 64, "value": 0}, "group": "control_change"}, {"time": 2320, "annotation": {"number": 64, "value": 127}, "group": "control_change"}, {"time": 2331, "annotation": {"number": 64, "value": 0}, "group": "control_change"}, {"time": 2345, "annotation": {"number": 64, "value": 127}, "group": "control_change"}, {"time": 2350, "annotation": {"number": 64, "value": 0}, "group": "control_change"}, {"time": 2355, "annotation": {"number": 64, "value": 127}, "group": "control_change"}, {"time": 2366, "annotation": {"number": 64, "value": 0}, "group": "control_change"}, {"time": 2370, "annotation": {"number": 64, "value": 127}, "group": "control_change"}, {"time": 2390, "annotation": {"number": 64, "value": 0}, "group": "control_change"}, {"time": 2392, "annotation": {"number": 64, "value": 127}, "group": "control_change"}, {"time": 2398, "annotation": {"number": 64, "value": 0}, "group": "control_change"}, {"time": 2416, "annotation": {"number": 64, "value": 127}, "group": "control_change"}, {"time": 2425, "annotation": {"number": 64, "value": 0}, "group": "control_change"}, {"time": 2440, "annotation": {"number": 64, "value": 127}, "group": "control_change"}, {"time": 2461, "annotation": {"number": 64, "value": 0}, "group": "control_change"}, {"time": 2465, "annotation": {"number": 64, "value": 127}, "group": "control_change"}, {"time": 2482, "annotation": {"number": 64, "value": 0}, "group": "control_change"}, {"time": 2489, "annotation": {"number": 64, "value": 127}, "group": "control_change"}, {"time": 2495, "annotation": {"number": 64, "value": 0}, "group": "control_change"}, {"time": 2514, "annotation": {"number": 64, "value": 127}, "group": "control_change"}, {"time": 2519, "annotation": {"number": 64, "value": 0}, "group": "control_change"}, {"time": 2528, "annotation": {"number": 64, "value": 127}, "group": "control_change"}, {"time": 2532, "annotation": {"number": 64, "value": 0}, "group": "control_change"}, {"time": 2537, "annotation": {"number": 64, "value": 127}, "group": "control_change"}, {"time": 2542, "annotation": {"number": 64, "value": 0}, "group": "control_change"}, {"time": 2553, "annotation": {"number": 64, "value": 127}, "group": "control_change"}, {"time": 2558, "annotation": {"number": 64, "value": 0}, "group": "control_change"}, {"time": 2562, "annotation": {"number": 64, "value": 127}, "group": "control_change"}, {"time": 2568, "annotation": {"number": 64, "value": 0}, "group": "control_change"}, {"time": 2585, "annotation": {"number": 64, "value": 127}, "group": "control_change"}, {"time": 2607, "annotation": {"number": 64, "value": 0}, "group": "control_change"}, {"time": 2609, "annotation": {"number": 64, "value": 127}, "group": "control_change"}, {"time": 2609, "annotation": {"number": 64, "value": 0}, "group": "control_change"}, {"time": 2616, "annotation": {"number": 64, "value": 0}, "group": "control_change"}, {"time": 2624, "annotation": {"number": 64, "value": 127}, "group": "control_change"}, {"time": 2630, "annotation": {"number": 64, "value": 0}, "group": "control_change"}, {"time": 2633, "annotation": {"number": 64, "value": 127}, "group": "control_change"}, {"time": 2643, "annotation": {"number": 64, "value": 0}, "group": "control_change"}, {"time": 2646, "annotation": {"number": 64, "value": 127}, "group": "control_change"}, {"time": 2655, "annotation": {"number": 64, "value": 0}, "group": "control_change"}, {"time": 2657, "annotation": {"number": 64, "value": 127}, "group": "control_change"}, {"time": 2677, "annotation": {"number": 64, "value": 0}, "group": "control_change"}, {"time": 2681, "annotation": {"number": 64, "value": 127}, "group": "control_change"}, {"time": 2703, "annotation": {"number": 64, "value": 0}, "group": "control_change"}, {"time": 2706, "annotation": {"number": 64, "value": 127}, "group": "control_change"}, {"time": 2711, "annotation": {"number": 64, "value": 0}, "group": "control_change"}, {"time": 2720, "annotation": {"number": 64, "value": 127}, "group": "control_change"}, {"time": 2727, "annotation": {"number": 64, "value": 0}, "group": "control_change"}, {"time": 2730, "annotation": {"number": 64, "value": 127}, "group": "control_change"}, {"time": 2749, "annotation": {"number": 64, "value": 0}, "group": "control_change"}, {"time": 2753, "annotation": {"number": 64, "value": 127}, "group": "control_change"}, {"time": 2773, "annotation": {"number": 64, "value": 0}, "group": "control_change"}, {"time": 2777, "annotation": {"number": 64, "value": 127}, "group": "control_change"}, {"time": 2792, "annotation": {"number": 64, "value": 0}, "group": "control_change"}, {"time": 2801, "annotation": {"number": 64, "value": 127}, "group": "control_change"}, {"time": 2806, "annotation": {"number": 64, "value": 0}, "group": "control_change"}, {"time": 2849, "annotation": {"number": 64, "value": 127}, "group": "control_change"}, {"time": 2871, "annotation": {"number": 64, "value": 0}, "group": "control_change"}, {"time": 2874, "annotation": {"number": 64, "value": 127}, "group": "control_change"}, {"time": 2892, "annotation": {"number": 64, "value": 0}, "group": "control_change"}, {"time": 2896, "annotation": {"number": 64, "value": 127}, "group": "control_change"}, {"time": 2918, "annotation": {"number": 64, "value": 0}, "group": "control_change"}, {"time": 2921, "annotation": {"number": 64, "value": 127}, "group": "control_change"}, {"time": 2927, "annotation": {"number": 64, "value": 0}, "group": "control_change"}, {"time": 2937, "annotation": {"number": 64, "value": 127}, "group": "control_change"}, {"time": 2940, "annotation": {"number": 64, "value": 0}, "group": "control_change"}, {"time": 2945, "annotation": {"number": 64, "value": 127}, "group": "control_change"}, {"time": 2950, "annotation": {"number": 64, "value": 0}, "group": "control_change"}, {"time": 2969, "annotation": {"number": 64, "value": 127}, "group": "control_change"}, {"time": 2990, "annotation": {"number": 64, "value": 0}, "group": "control_change"}, {"time": 2994, "annotation": {"number": 64, "value": 127}, "group": "control_change"}, {"time": 3008, "annotation": {"number": 64, "value": 0}, "group": "control_change"}, {"time": 3017, "annotation": {"number": 64, "value": 127}, "group": "control_change"}, {"time": 3022, "annotation": {"number": 64, "value": 0}, "group": "control_change"}, {"time": 3033, "annotation": {"number": 64, "value": 127}, "group": "control_change"}, {"time": 3038, "annotation": {"number": 64, "value": 0}, "group": "control_change"}, {"time": 3041, "annotation": {"number": 64, "value": 127}, "group": "control_change"}, {"time": 3047, "annotation": {"number": 64, "value": 0}, "group": "control_change"}, {"time": 3065, "annotation": {"number": 64, "value": 127}, "group": "control_change"}, {"time": 3084, "annotation": {"number": 64, "value": 0}, "group": "control_change"}, {"time": 3088, "annotation": {"number": 64, "value": 127}, "group": "control_change"}, {"time": 3109, "annotation": {"number": 64, "value": 0}, "group": "control_change"}, {"time": 3111, "annotation": {"number": 64, "value": 127}, "group": "control_change"}, {"time": 3118, "annotation": {"number": 64, "value": 0}, "group": "control_change"}, {"time": 3132, "annotation": {"number": 64, "value": 127}, "group": "control_change"}, {"time": 3159, "annotation": {"number": 64, "value": 0}, "group": "control_change"}, {"time": 3170, "annotation": {"number": 64, "value": 0}, "group": "control_change"}, {"time": 3174, "annotation": {"number": 64, "value": 127}, "group": "control_change"}, {"time": 3183, "annotation": {"number": 64, "value": 0}, "group": "control_change"}, {"time": 3184, "annotation": {"number": 64, "value": 127}, "group": "control_change"}, {"time": 3195, "annotation": {"number": 64, "value": 0}, "group": "control_change"}, {"time": 3197, "annotation": {"number": 64, "value": 127}, "group": "control_change"}, {"time": 3207, "annotation": {"number": 64, "value": 0}, "group": "control_change"}, {"time": 3210, "annotation": {"number": 64, "value": 127}, "group": "control_change"}, {"time": 3219, "annotation": {"number": 64, "value": 0}, "group": "control_change"}, {"time": 3222, "annotation": {"number": 64, "value": 127}, "group": "control_change"}, {"time": 3230, "annotation": {"number": 64, "value": 0}, "group": "control_change"}, {"time": 3232, "annotation": {"number": 64, "value": 127}, "group": "control_change"}, {"time": 3269, "annotation": {"number": 64, "value": 0}, "group": "control_change"}, {"time": 3288, "annotation": {"number": 64, "value": 127}, "group": "control_change"}]}]}