{"metadata": {"schema_version": "0.2", "title": "None", "source_filename": "365.mid", "source_format": "midi"}, "resolution": 12, "tempos": [{"time": 0, "qpm": 55.99997760000896}], "time_signatures": [{"time": 0, "numerator": 1, "denominator": 4}], "tracks": [{"program": 0, "is_drum": false, "name": "MELODY", "notes": [{"time": 218, "pitch": 65, "duration": 3, "velocity": 97}, {"time": 221, "pitch": 72, "duration": 3, "velocity": 112}, {"time": 224, "pitch": 70, "duration": 2, "velocity": 100}, {"time": 227, "pitch": 70, "duration": 3, "velocity": 97}, {"time": 230, "pitch": 72, "duration": 3, "velocity": 97}, {"time": 233, "pitch": 70, "duration": 4, "velocity": 122}, {"time": 242, "pitch": 72, "duration": 1, "velocity": 95}, {"time": 245, "pitch": 72, "duration": 3, "velocity": 97}, {"time": 248, "pitch": 70, "duration": 3, "velocity": 102}, {"time": 251, "pitch": 68, "duration": 3, "velocity": 95}, {"time": 254, "pitch": 67, "duration": 3, "velocity": 89}, {"time": 257, "pitch": 65, "duration": 8, "velocity": 88}, {"time": 269, "pitch": 63, "duration": 1, "velocity": 117}, {"time": 272, "pitch": 63, "duration": 1, "velocity": 112}, {"time": 275, "pitch": 63, "duration": 2, "velocity": 127}, {"time": 278, "pitch": 65, "duration": 2, "velocity": 100}, {"time": 281, "pitch": 67, "duration": 3, "velocity": 102}, {"time": 284, "pitch": 67, "duration": 1, "velocity": 97}, {"time": 287, "pitch": 67, "duration": 2, "velocity": 99}, {"time": 290, "pitch": 68, "duration": 1, "velocity": 112}, {"time": 293, "pitch": 68, "duration": 2, "velocity": 112}, {"time": 296, "pitch": 65, "duration": 1, "velocity": 88}, {"time": 299, "pitch": 65, "duration": 2, "velocity": 79}, {"time": 302, "pitch": 63, "duration": 2, "velocity": 96}, {"time": 305, "pitch": 65, "duration": 9, "velocity": 95}, {"time": 314, "pitch": 65, "duration": 1, "velocity": 95}, {"time": 317, "pitch": 72, "duration": 2, "velocity": 117}, {"time": 320, "pitch": 70, "duration": 1, "velocity": 95}, {"time": 323, "pitch": 70, "duration": 1, "velocity": 117}, {"time": 326, "pitch": 72, "duration": 2, "velocity": 99}, {"time": 329, "pitch": 70, "duration": 4, "velocity": 117}, {"time": 335, "pitch": 77, "duration": 1, "velocity": 117}, {"time": 338, "pitch": 77, "duration": 1, "velocity": 96}, {"time": 341, "pitch": 77, "duration": 2, "velocity": 112}, {"time": 344, "pitch": 75, "duration": 1, "velocity": 117}, {"time": 347, "pitch": 75, "duration": 2, "velocity": 122}, {"time": 350, "pitch": 70, "duration": 2, "velocity": 102}, {"time": 353, "pitch": 72, "duration": 8, "velocity": 97}, {"time": 365, "pitch": 63, "duration": 1, "velocity": 102}, {"time": 368, "pitch": 63, "duration": 1, "velocity": 100}, {"time": 371, "pitch": 63, "duration": 1, "velocity": 117}, {"time": 374, "pitch": 65, "duration": 1, "velocity": 93}, {"time": 377, "pitch": 70, "duration": 4, "velocity": 112}, {"time": 380, "pitch": 70, "duration": 1, "velocity": 117}, {"time": 383, "pitch": 70, "duration": 2, "velocity": 127}, {"time": 386, "pitch": 72, "duration": 2, "velocity": 102}, {"time": 389, "pitch": 68, "duration": 2, "velocity": 127}, {"time": 392, "pitch": 67, "duration": 2, "velocity": 117}, {"time": 395, "pitch": 65, "duration": 3, "velocity": 96}, {"time": 398, "pitch": 63, "duration": 3, "velocity": 86}, {"time": 401, "pitch": 65, "duration": 8, "velocity": 93}, {"time": 407, "pitch": 65, "duration": 2, "velocity": 100}, {"time": 410, "pitch": 68, "duration": 2, "velocity": 122}, {"time": 413, "pitch": 70, "duration": 1, "velocity": 127}, {"time": 416, "pitch": 70, "duration": 1, "velocity": 112}, {"time": 419, "pitch": 70, "duration": 1, "velocity": 122}, {"time": 422, "pitch": 68, "duration": 1, "velocity": 112}, {"time": 425, "pitch": 70, "duration": 5, "velocity": 127}, {"time": 431, "pitch": 70, "duration": 2, "velocity": 127}, {"time": 434, "pitch": 72, "duration": 1, "velocity": 95}, {"time": 437, "pitch": 72, "duration": 2, "velocity": 117}, {"time": 440, "pitch": 70, "duration": 3, "velocity": 127}, {"time": 443, "pitch": 68, "duration": 3, "velocity": 102}, {"time": 446, "pitch": 67, "duration": 3, "velocity": 99}, {"time": 449, "pitch": 65, "duration": 5, "velocity": 102}, {"time": 455, "pitch": 65, "duration": 1, "velocity": 97}, {"time": 458, "pitch": 68, "duration": 2, "velocity": 127}, {"time": 461, "pitch": 70, "duration": 1, "velocity": 122}, {"time": 464, "pitch": 70, "duration": 1, "velocity": 127}, {"time": 467, "pitch": 70, "duration": 1, "velocity": 127}, {"time": 470, "pitch": 77, "duration": 2, "velocity": 122}, {"time": 473, "pitch": 75, "duration": 2, "velocity": 122}, {"time": 476, "pitch": 77, "duration": 2, "velocity": 107}, {"time": 479, "pitch": 75, "duration": 2, "velocity": 117}, {"time": 482, "pitch": 70, "duration": 2, "velocity": 99}, {"time": 485, "pitch": 72, "duration": 17, "velocity": 102}, {"time": 503, "pitch": 65, "duration": 1, "velocity": 102}, {"time": 506, "pitch": 68, "duration": 3, "velocity": 122}, {"time": 509, "pitch": 70, "duration": 1, "velocity": 117}, {"time": 512, "pitch": 70, "duration": 1, "velocity": 127}, {"time": 515, "pitch": 70, "duration": 1, "velocity": 117}, {"time": 518, "pitch": 68, "duration": 1, "velocity": 107}, {"time": 521, "pitch": 70, "duration": 3, "velocity": 127}, {"time": 527, "pitch": 70, "duration": 2, "velocity": 127}, {"time": 530, "pitch": 72, "duration": 1, "velocity": 93}, {"time": 533, "pitch": 72, "duration": 2, "velocity": 112}, {"time": 536, "pitch": 70, "duration": 3, "velocity": 112}, {"time": 539, "pitch": 68, "duration": 3, "velocity": 102}, {"time": 542, "pitch": 67, "duration": 2, "velocity": 95}, {"time": 545, "pitch": 65, "duration": 5, "velocity": 117}, {"time": 551, "pitch": 65, "duration": 3, "velocity": 100}, {"time": 554, "pitch": 68, "duration": 2, "velocity": 112}, {"time": 557, "pitch": 68, "duration": 3, "velocity": 127}, {"time": 563, "pitch": 68, "duration": 1, "velocity": 127}, {"time": 566, "pitch": 70, "duration": 1, "velocity": 93}, {"time": 569, "pitch": 67, "duration": 2, "velocity": 117}, {"time": 572, "pitch": 67, "duration": 3, "velocity": 117}, {"time": 578, "pitch": 68, "duration": 2, "velocity": 117}, {"time": 581, "pitch": 67, "duration": 5, "velocity": 122}, {"time": 587, "pitch": 65, "duration": 21, "velocity": 99}, {"time": 644, "pitch": 72, "duration": 2, "velocity": 122}, {"time": 647, "pitch": 75, "duration": 2, "velocity": 127}, {"time": 650, "pitch": 72, "duration": 2, "velocity": 102}, {"time": 653, "pitch": 77, "duration": 1, "velocity": 127}, {"time": 656, "pitch": 77, "duration": 1, "velocity": 127}, {"time": 659, "pitch": 77, "duration": 2, "velocity": 100}, {"time": 662, "pitch": 75, "duration": 2, "velocity": 117}, {"time": 665, "pitch": 77, "duration": 4, "velocity": 112}, {"time": 671, "pitch": 77, "duration": 2, "velocity": 127}, {"time": 674, "pitch": 80, "duration": 3, "velocity": 122}, {"time": 677, "pitch": 75, "duration": 1, "velocity": 127}, {"time": 680, "pitch": 75, "duration": 1, "velocity": 122}, {"time": 683, "pitch": 75, "duration": 2, "velocity": 127}, {"time": 686, "pitch": 72, "duration": 3, "velocity": 97}, {"time": 689, "pitch": 75, "duration": 4, "velocity": 127}, {"time": 701, "pitch": 70, "duration": 1, "velocity": 127}, {"time": 704, "pitch": 70, "duration": 1, "velocity": 112}, {"time": 707, "pitch": 70, "duration": 1, "velocity": 122}, {"time": 710, "pitch": 77, "duration": 1, "velocity": 127}, {"time": 713, "pitch": 75, "duration": 2, "velocity": 127}, {"time": 716, "pitch": 77, "duration": 2, "velocity": 112}, {"time": 719, "pitch": 75, "duration": 2, "velocity": 127}, {"time": 722, "pitch": 72, "duration": 1, "velocity": 99}, {"time": 725, "pitch": 70, "duration": 2, "velocity": 107}, {"time": 728, "pitch": 72, "duration": 8, "velocity": 112}, {"time": 734, "pitch": 72, "duration": 2, "velocity": 127}, {"time": 746, "pitch": 72, "duration": 1, "velocity": 122}, {"time": 749, "pitch": 72, "duration": 2, "velocity": 127}, {"time": 752, "pitch": 70, "duration": 1, "velocity": 117}, {"time": 755, "pitch": 70, "duration": 2, "velocity": 122}, {"time": 758, "pitch": 72, "duration": 1, "velocity": 122}, {"time": 761, "pitch": 70, "duration": 5, "velocity": 127}, {"time": 770, "pitch": 72, "duration": 1, "velocity": 127}, {"time": 773, "pitch": 72, "duration": 2, "velocity": 127}, {"time": 776, "pitch": 70, "duration": 1, "velocity": 112}, {"time": 779, "pitch": 70, "duration": 2, "velocity": 127}, {"time": 782, "pitch": 70, "duration": 1, "velocity": 54}, {"time": 782, "pitch": 72, "duration": 1, "velocity": 96}, {"time": 785, "pitch": 65, "duration": 5, "velocity": 112}, {"time": 797, "pitch": 65, "duration": 1, "velocity": 107}, {"time": 800, "pitch": 67, "duration": 1, "velocity": 112}, {"time": 803, "pitch": 68, "duration": 2, "velocity": 127}, {"time": 806, "pitch": 77, "duration": 1, "velocity": 122}, {"time": 809, "pitch": 75, "duration": 2, "velocity": 127}, {"time": 812, "pitch": 77, "duration": 2, "velocity": 112}, {"time": 815, "pitch": 75, "duration": 1, "velocity": 127}, {"time": 818, "pitch": 70, "duration": 3, "velocity": 112}, {"time": 821, "pitch": 72, "duration": 10, "velocity": 102}, {"time": 836, "pitch": 72, "duration": 2, "velocity": 122}, {"time": 839, "pitch": 75, "duration": 2, "velocity": 127}, {"time": 842, "pitch": 72, "duration": 2, "velocity": 102}, {"time": 845, "pitch": 77, "duration": 1, "velocity": 127}, {"time": 848, "pitch": 77, "duration": 1, "velocity": 127}, {"time": 851, "pitch": 77, "duration": 2, "velocity": 100}, {"time": 854, "pitch": 75, "duration": 2, "velocity": 117}, {"time": 857, "pitch": 77, "duration": 4, "velocity": 112}, {"time": 863, "pitch": 77, "duration": 2, "velocity": 127}, {"time": 866, "pitch": 80, "duration": 3, "velocity": 122}, {"time": 869, "pitch": 75, "duration": 1, "velocity": 127}, {"time": 872, "pitch": 75, "duration": 1, "velocity": 122}, {"time": 875, "pitch": 75, "duration": 2, "velocity": 127}, {"time": 878, "pitch": 72, "duration": 3, "velocity": 97}, {"time": 881, "pitch": 75, "duration": 4, "velocity": 127}, {"time": 893, "pitch": 70, "duration": 1, "velocity": 127}, {"time": 896, "pitch": 70, "duration": 1, "velocity": 112}, {"time": 899, "pitch": 70, "duration": 1, "velocity": 122}, {"time": 902, "pitch": 77, "duration": 1, "velocity": 127}, {"time": 905, "pitch": 75, "duration": 2, "velocity": 127}, {"time": 908, "pitch": 77, "duration": 2, "velocity": 112}, {"time": 911, "pitch": 75, "duration": 2, "velocity": 127}, {"time": 914, "pitch": 72, "duration": 1, "velocity": 99}, {"time": 917, "pitch": 70, "duration": 2, "velocity": 107}, {"time": 920, "pitch": 72, "duration": 8, "velocity": 112}, {"time": 926, "pitch": 72, "duration": 2, "velocity": 127}, {"time": 938, "pitch": 72, "duration": 1, "velocity": 122}, {"time": 941, "pitch": 72, "duration": 2, "velocity": 127}, {"time": 944, "pitch": 70, "duration": 1, "velocity": 117}, {"time": 947, "pitch": 70, "duration": 2, "velocity": 122}, {"time": 950, "pitch": 72, "duration": 1, "velocity": 122}, {"time": 953, "pitch": 70, "duration": 5, "velocity": 127}, {"time": 962, "pitch": 75, "duration": 1, "velocity": 122}, {"time": 965, "pitch": 75, "duration": 1, "velocity": 127}, {"time": 968, "pitch": 72, "duration": 1, "velocity": 112}, {"time": 971, "pitch": 70, "duration": 1, "velocity": 117}, {"time": 974, "pitch": 72, "duration": 1, "velocity": 107}, {"time": 977, "pitch": 65, "duration": 5, "velocity": 112}, {"time": 989, "pitch": 63, "duration": 1, "velocity": 127}, {"time": 992, "pitch": 63, "duration": 1, "velocity": 112}, {"time": 995, "pitch": 63, "duration": 2, "velocity": 122}, {"time": 998, "pitch": 65, "duration": 2, "velocity": 97}, {"time": 1001, "pitch": 70, "duration": 2, "velocity": 127}, {"time": 1004, "pitch": 70, "duration": 1, "velocity": 127}, {"time": 1007, "pitch": 70, "duration": 1, "velocity": 127}, {"time": 1010, "pitch": 72, "duration": 2, "velocity": 112}, {"time": 1013, "pitch": 68, "duration": 2, "velocity": 127}, {"time": 1016, "pitch": 67, "duration": 3, "velocity": 89}, {"time": 1019, "pitch": 65, "duration": 16, "velocity": 99}, {"time": 1226, "pitch": 65, "duration": 3, "velocity": 97}, {"time": 1229, "pitch": 72, "duration": 3, "velocity": 112}, {"time": 1232, "pitch": 70, "duration": 2, "velocity": 100}, {"time": 1235, "pitch": 70, "duration": 3, "velocity": 97}, {"time": 1238, "pitch": 72, "duration": 3, "velocity": 97}, {"time": 1241, "pitch": 70, "duration": 4, "velocity": 122}, {"time": 1250, "pitch": 72, "duration": 1, "velocity": 95}, {"time": 1253, "pitch": 72, "duration": 3, "velocity": 97}, {"time": 1256, "pitch": 70, "duration": 3, "velocity": 102}, {"time": 1259, "pitch": 68, "duration": 3, "velocity": 95}, {"time": 1262, "pitch": 67, "duration": 3, "velocity": 89}, {"time": 1265, "pitch": 65, "duration": 8, "velocity": 88}, {"time": 1277, "pitch": 63, "duration": 1, "velocity": 117}, {"time": 1280, "pitch": 63, "duration": 1, "velocity": 112}, {"time": 1283, "pitch": 63, "duration": 2, "velocity": 127}, {"time": 1286, "pitch": 65, "duration": 2, "velocity": 100}, {"time": 1289, "pitch": 67, "duration": 3, "velocity": 102}, {"time": 1292, "pitch": 67, "duration": 1, "velocity": 97}, {"time": 1295, "pitch": 67, "duration": 2, "velocity": 99}, {"time": 1298, "pitch": 68, "duration": 1, "velocity": 112}, {"time": 1301, "pitch": 68, "duration": 2, "velocity": 112}, {"time": 1304, "pitch": 65, "duration": 1, "velocity": 88}, {"time": 1307, "pitch": 65, "duration": 2, "velocity": 79}, {"time": 1310, "pitch": 63, "duration": 2, "velocity": 96}, {"time": 1313, "pitch": 65, "duration": 9, "velocity": 95}, {"time": 1322, "pitch": 65, "duration": 1, "velocity": 95}, {"time": 1325, "pitch": 72, "duration": 2, "velocity": 117}, {"time": 1328, "pitch": 70, "duration": 1, "velocity": 95}, {"time": 1331, "pitch": 70, "duration": 1, "velocity": 117}, {"time": 1334, "pitch": 72, "duration": 2, "velocity": 99}, {"time": 1337, "pitch": 70, "duration": 4, "velocity": 117}, {"time": 1343, "pitch": 77, "duration": 1, "velocity": 117}, {"time": 1346, "pitch": 77, "duration": 1, "velocity": 96}, {"time": 1349, "pitch": 77, "duration": 2, "velocity": 112}, {"time": 1352, "pitch": 75, "duration": 1, "velocity": 117}, {"time": 1355, "pitch": 75, "duration": 2, "velocity": 122}, {"time": 1358, "pitch": 70, "duration": 2, "velocity": 102}, {"time": 1361, "pitch": 72, "duration": 8, "velocity": 97}, {"time": 1373, "pitch": 63, "duration": 1, "velocity": 102}, {"time": 1376, "pitch": 63, "duration": 1, "velocity": 100}, {"time": 1379, "pitch": 63, "duration": 1, "velocity": 117}, {"time": 1382, "pitch": 65, "duration": 1, "velocity": 93}, {"time": 1385, "pitch": 70, "duration": 4, "velocity": 112}, {"time": 1388, "pitch": 70, "duration": 1, "velocity": 117}, {"time": 1391, "pitch": 70, "duration": 2, "velocity": 127}, {"time": 1394, "pitch": 72, "duration": 2, "velocity": 102}, {"time": 1397, "pitch": 68, "duration": 2, "velocity": 127}, {"time": 1400, "pitch": 67, "duration": 2, "velocity": 117}, {"time": 1403, "pitch": 65, "duration": 3, "velocity": 96}, {"time": 1406, "pitch": 63, "duration": 3, "velocity": 86}, {"time": 1409, "pitch": 65, "duration": 8, "velocity": 93}, {"time": 1415, "pitch": 65, "duration": 2, "velocity": 100}, {"time": 1418, "pitch": 68, "duration": 2, "velocity": 122}, {"time": 1421, "pitch": 70, "duration": 1, "velocity": 127}, {"time": 1424, "pitch": 70, "duration": 1, "velocity": 112}, {"time": 1427, "pitch": 70, "duration": 1, "velocity": 122}, {"time": 1430, "pitch": 68, "duration": 1, "velocity": 112}, {"time": 1433, "pitch": 70, "duration": 5, "velocity": 127}, {"time": 1439, "pitch": 70, "duration": 2, "velocity": 127}, {"time": 1442, "pitch": 72, "duration": 1, "velocity": 95}, {"time": 1445, "pitch": 72, "duration": 2, "velocity": 117}, {"time": 1448, "pitch": 70, "duration": 3, "velocity": 127}, {"time": 1451, "pitch": 68, "duration": 3, "velocity": 102}, {"time": 1454, "pitch": 67, "duration": 3, "velocity": 99}, {"time": 1457, "pitch": 65, "duration": 5, "velocity": 102}, {"time": 1463, "pitch": 65, "duration": 1, "velocity": 97}, {"time": 1466, "pitch": 68, "duration": 2, "velocity": 127}, {"time": 1469, "pitch": 70, "duration": 1, "velocity": 122}, {"time": 1472, "pitch": 70, "duration": 1, "velocity": 127}, {"time": 1475, "pitch": 70, "duration": 1, "velocity": 127}, {"time": 1478, "pitch": 77, "duration": 2, "velocity": 122}, {"time": 1481, "pitch": 75, "duration": 2, "velocity": 122}, {"time": 1484, "pitch": 77, "duration": 2, "velocity": 107}, {"time": 1487, "pitch": 75, "duration": 2, "velocity": 117}, {"time": 1490, "pitch": 70, "duration": 2, "velocity": 99}, {"time": 1493, "pitch": 72, "duration": 17, "velocity": 102}, {"time": 1511, "pitch": 65, "duration": 1, "velocity": 102}, {"time": 1514, "pitch": 68, "duration": 3, "velocity": 122}, {"time": 1517, "pitch": 70, "duration": 1, "velocity": 117}, {"time": 1520, "pitch": 70, "duration": 1, "velocity": 127}, {"time": 1523, "pitch": 70, "duration": 1, "velocity": 117}, {"time": 1526, "pitch": 68, "duration": 1, "velocity": 107}, {"time": 1529, "pitch": 70, "duration": 3, "velocity": 127}, {"time": 1535, "pitch": 70, "duration": 2, "velocity": 127}, {"time": 1538, "pitch": 72, "duration": 1, "velocity": 93}, {"time": 1541, "pitch": 72, "duration": 2, "velocity": 112}, {"time": 1544, "pitch": 70, "duration": 3, "velocity": 112}, {"time": 1547, "pitch": 68, "duration": 3, "velocity": 102}, {"time": 1550, "pitch": 67, "duration": 2, "velocity": 95}, {"time": 1553, "pitch": 65, "duration": 5, "velocity": 117}, {"time": 1559, "pitch": 65, "duration": 3, "velocity": 100}, {"time": 1562, "pitch": 68, "duration": 2, "velocity": 112}, {"time": 1565, "pitch": 68, "duration": 3, "velocity": 127}, {"time": 1571, "pitch": 68, "duration": 1, "velocity": 127}, {"time": 1574, "pitch": 70, "duration": 1, "velocity": 93}, {"time": 1577, "pitch": 67, "duration": 2, "velocity": 117}, {"time": 1580, "pitch": 67, "duration": 3, "velocity": 117}, {"time": 1586, "pitch": 75, "duration": 2, "velocity": 117}, {"time": 1589, "pitch": 75, "duration": 5, "velocity": 122}, {"time": 1595, "pitch": 77, "duration": 21, "velocity": 99}, {"time": 1628, "pitch": 72, "duration": 2, "velocity": 122}, {"time": 1631, "pitch": 75, "duration": 2, "velocity": 127}, {"time": 1634, "pitch": 72, "duration": 2, "velocity": 102}, {"time": 1637, "pitch": 77, "duration": 1, "velocity": 127}, {"time": 1640, "pitch": 77, "duration": 1, "velocity": 127}, {"time": 1643, "pitch": 77, "duration": 2, "velocity": 100}, {"time": 1646, "pitch": 75, "duration": 2, "velocity": 117}, {"time": 1649, "pitch": 77, "duration": 4, "velocity": 112}, {"time": 1655, "pitch": 77, "duration": 2, "velocity": 127}, {"time": 1658, "pitch": 80, "duration": 3, "velocity": 122}, {"time": 1661, "pitch": 75, "duration": 1, "velocity": 127}, {"time": 1664, "pitch": 75, "duration": 1, "velocity": 122}, {"time": 1667, "pitch": 75, "duration": 2, "velocity": 127}, {"time": 1670, "pitch": 72, "duration": 3, "velocity": 97}, {"time": 1673, "pitch": 75, "duration": 4, "velocity": 127}, {"time": 1685, "pitch": 70, "duration": 1, "velocity": 127}, {"time": 1688, "pitch": 70, "duration": 1, "velocity": 112}, {"time": 1691, "pitch": 70, "duration": 1, "velocity": 122}, {"time": 1694, "pitch": 77, "duration": 1, "velocity": 127}, {"time": 1697, "pitch": 75, "duration": 2, "velocity": 127}, {"time": 1700, "pitch": 77, "duration": 2, "velocity": 112}, {"time": 1703, "pitch": 75, "duration": 2, "velocity": 127}, {"time": 1706, "pitch": 72, "duration": 1, "velocity": 99}, {"time": 1709, "pitch": 70, "duration": 2, "velocity": 107}, {"time": 1712, "pitch": 72, "duration": 8, "velocity": 112}, {"time": 1718, "pitch": 72, "duration": 2, "velocity": 127}, {"time": 1730, "pitch": 72, "duration": 1, "velocity": 122}, {"time": 1733, "pitch": 72, "duration": 2, "velocity": 127}, {"time": 1736, "pitch": 70, "duration": 1, "velocity": 117}, {"time": 1739, "pitch": 70, "duration": 2, "velocity": 122}, {"time": 1742, "pitch": 72, "duration": 1, "velocity": 122}, {"time": 1745, "pitch": 70, "duration": 5, "velocity": 127}, {"time": 1754, "pitch": 72, "duration": 1, "velocity": 127}, {"time": 1757, "pitch": 72, "duration": 2, "velocity": 127}, {"time": 1760, "pitch": 70, "duration": 1, "velocity": 112}, {"time": 1763, "pitch": 70, "duration": 2, "velocity": 127}, {"time": 1766, "pitch": 70, "duration": 1, "velocity": 54}, {"time": 1766, "pitch": 72, "duration": 1, "velocity": 96}, {"time": 1769, "pitch": 65, "duration": 5, "velocity": 112}, {"time": 1781, "pitch": 65, "duration": 1, "velocity": 107}, {"time": 1784, "pitch": 67, "duration": 1, "velocity": 112}, {"time": 1787, "pitch": 68, "duration": 2, "velocity": 127}, {"time": 1790, "pitch": 77, "duration": 1, "velocity": 122}, {"time": 1793, "pitch": 75, "duration": 2, "velocity": 127}, {"time": 1796, "pitch": 77, "duration": 2, "velocity": 112}, {"time": 1799, "pitch": 75, "duration": 1, "velocity": 127}, {"time": 1802, "pitch": 70, "duration": 3, "velocity": 112}, {"time": 1805, "pitch": 72, "duration": 10, "velocity": 102}, {"time": 1820, "pitch": 72, "duration": 2, "velocity": 122}, {"time": 1823, "pitch": 75, "duration": 2, "velocity": 127}, {"time": 1826, "pitch": 72, "duration": 2, "velocity": 102}, {"time": 1829, "pitch": 77, "duration": 1, "velocity": 127}, {"time": 1832, "pitch": 77, "duration": 1, "velocity": 127}, {"time": 1835, "pitch": 77, "duration": 2, "velocity": 100}, {"time": 1838, "pitch": 75, "duration": 2, "velocity": 117}, {"time": 1841, "pitch": 77, "duration": 4, "velocity": 112}, {"time": 1847, "pitch": 77, "duration": 2, "velocity": 127}, {"time": 1850, "pitch": 80, "duration": 3, "velocity": 122}, {"time": 1853, "pitch": 75, "duration": 1, "velocity": 127}, {"time": 1856, "pitch": 75, "duration": 1, "velocity": 122}, {"time": 1859, "pitch": 75, "duration": 2, "velocity": 127}, {"time": 1862, "pitch": 72, "duration": 3, "velocity": 97}, {"time": 1865, "pitch": 75, "duration": 4, "velocity": 127}, {"time": 1877, "pitch": 70, "duration": 1, "velocity": 127}, {"time": 1880, "pitch": 70, "duration": 1, "velocity": 112}, {"time": 1883, "pitch": 70, "duration": 1, "velocity": 122}, {"time": 1886, "pitch": 77, "duration": 1, "velocity": 127}, {"time": 1889, "pitch": 75, "duration": 2, "velocity": 127}, {"time": 1892, "pitch": 77, "duration": 2, "velocity": 112}, {"time": 1895, "pitch": 75, "duration": 2, "velocity": 127}, {"time": 1898, "pitch": 72, "duration": 1, "velocity": 99}, {"time": 1901, "pitch": 70, "duration": 2, "velocity": 107}, {"time": 1904, "pitch": 72, "duration": 8, "velocity": 112}, {"time": 1910, "pitch": 72, "duration": 2, "velocity": 127}, {"time": 1922, "pitch": 72, "duration": 1, "velocity": 122}, {"time": 1925, "pitch": 72, "duration": 2, "velocity": 127}, {"time": 1928, "pitch": 70, "duration": 1, "velocity": 117}, {"time": 1931, "pitch": 70, "duration": 2, "velocity": 122}, {"time": 1934, "pitch": 72, "duration": 1, "velocity": 122}, {"time": 1937, "pitch": 70, "duration": 5, "velocity": 127}, {"time": 1946, "pitch": 75, "duration": 1, "velocity": 122}, {"time": 1949, "pitch": 75, "duration": 1, "velocity": 127}, {"time": 1952, "pitch": 72, "duration": 1, "velocity": 112}, {"time": 1955, "pitch": 70, "duration": 1, "velocity": 117}, {"time": 1958, "pitch": 72, "duration": 1, "velocity": 107}, {"time": 1961, "pitch": 65, "duration": 5, "velocity": 112}, {"time": 1973, "pitch": 63, "duration": 1, "velocity": 127}, {"time": 1976, "pitch": 63, "duration": 1, "velocity": 112}, {"time": 1979, "pitch": 63, "duration": 2, "velocity": 122}, {"time": 1982, "pitch": 65, "duration": 2, "velocity": 97}, {"time": 1985, "pitch": 70, "duration": 2, "velocity": 127}, {"time": 1988, "pitch": 70, "duration": 1, "velocity": 127}, {"time": 1991, "pitch": 70, "duration": 1, "velocity": 127}, {"time": 1994, "pitch": 72, "duration": 2, "velocity": 112}, {"time": 1997, "pitch": 68, "duration": 2, "velocity": 127}, {"time": 2000, "pitch": 67, "duration": 3, "velocity": 89}, {"time": 2003, "pitch": 65, "duration": 16, "velocity": 99}, {"time": 2036, "pitch": 72, "duration": 2, "velocity": 122}, {"time": 2039, "pitch": 75, "duration": 2, "velocity": 127}, {"time": 2042, "pitch": 72, "duration": 2, "velocity": 102}, {"time": 2045, "pitch": 77, "duration": 1, "velocity": 127}, {"time": 2048, "pitch": 77, "duration": 1, "velocity": 127}, {"time": 2051, "pitch": 77, "duration": 2, "velocity": 100}, {"time": 2054, "pitch": 75, "duration": 2, "velocity": 117}, {"time": 2057, "pitch": 77, "duration": 4, "velocity": 112}, {"time": 2063, "pitch": 77, "duration": 2, "velocity": 127}, {"time": 2066, "pitch": 80, "duration": 3, "velocity": 122}, {"time": 2069, "pitch": 75, "duration": 1, "velocity": 127}, {"time": 2072, "pitch": 75, "duration": 1, "velocity": 122}, {"time": 2075, "pitch": 75, "duration": 2, "velocity": 127}, {"time": 2078, "pitch": 72, "duration": 3, "velocity": 97}, {"time": 2081, "pitch": 75, "duration": 4, "velocity": 127}, {"time": 2093, "pitch": 70, "duration": 1, "velocity": 127}, {"time": 2096, "pitch": 70, "duration": 1, "velocity": 112}, {"time": 2099, "pitch": 70, "duration": 1, "velocity": 122}, {"time": 2102, "pitch": 77, "duration": 1, "velocity": 127}, {"time": 2105, "pitch": 75, "duration": 2, "velocity": 127}, {"time": 2108, "pitch": 77, "duration": 2, "velocity": 112}, {"time": 2111, "pitch": 75, "duration": 2, "velocity": 127}, {"time": 2114, "pitch": 72, "duration": 1, "velocity": 99}, {"time": 2117, "pitch": 70, "duration": 2, "velocity": 107}, {"time": 2120, "pitch": 72, "duration": 8, "velocity": 112}, {"time": 2126, "pitch": 72, "duration": 2, "velocity": 127}, {"time": 2138, "pitch": 72, "duration": 1, "velocity": 122}, {"time": 2141, "pitch": 72, "duration": 2, "velocity": 127}, {"time": 2144, "pitch": 70, "duration": 1, "velocity": 117}, {"time": 2147, "pitch": 70, "duration": 2, "velocity": 122}, {"time": 2150, "pitch": 72, "duration": 1, "velocity": 122}, {"time": 2153, "pitch": 70, "duration": 5, "velocity": 127}, {"time": 2162, "pitch": 72, "duration": 1, "velocity": 127}, {"time": 2165, "pitch": 72, "duration": 2, "velocity": 127}, {"time": 2168, "pitch": 70, "duration": 1, "velocity": 112}, {"time": 2171, "pitch": 70, "duration": 2, "velocity": 127}, {"time": 2174, "pitch": 70, "duration": 1, "velocity": 54}, {"time": 2174, "pitch": 72, "duration": 1, "velocity": 96}, {"time": 2177, "pitch": 65, "duration": 5, "velocity": 112}, {"time": 2189, "pitch": 65, "duration": 1, "velocity": 107}, {"time": 2192, "pitch": 67, "duration": 1, "velocity": 112}, {"time": 2195, "pitch": 68, "duration": 2, "velocity": 127}, {"time": 2198, "pitch": 77, "duration": 1, "velocity": 122}, {"time": 2201, "pitch": 75, "duration": 2, "velocity": 127}, {"time": 2204, "pitch": 77, "duration": 2, "velocity": 112}, {"time": 2207, "pitch": 75, "duration": 1, "velocity": 127}, {"time": 2210, "pitch": 70, "duration": 3, "velocity": 112}, {"time": 2213, "pitch": 72, "duration": 10, "velocity": 102}, {"time": 2228, "pitch": 72, "duration": 2, "velocity": 122}, {"time": 2231, "pitch": 75, "duration": 2, "velocity": 127}, {"time": 2234, "pitch": 72, "duration": 2, "velocity": 102}, {"time": 2237, "pitch": 77, "duration": 1, "velocity": 127}, {"time": 2240, "pitch": 77, "duration": 1, "velocity": 127}, {"time": 2243, "pitch": 77, "duration": 2, "velocity": 100}, {"time": 2246, "pitch": 75, "duration": 2, "velocity": 117}, {"time": 2249, "pitch": 77, "duration": 4, "velocity": 112}, {"time": 2255, "pitch": 77, "duration": 2, "velocity": 127}, {"time": 2258, "pitch": 80, "duration": 3, "velocity": 122}, {"time": 2261, "pitch": 75, "duration": 1, "velocity": 127}, {"time": 2264, "pitch": 75, "duration": 1, "velocity": 122}, {"time": 2267, "pitch": 75, "duration": 2, "velocity": 127}, {"time": 2270, "pitch": 72, "duration": 3, "velocity": 97}, {"time": 2273, "pitch": 75, "duration": 4, "velocity": 127}, {"time": 2285, "pitch": 70, "duration": 1, "velocity": 127}, {"time": 2288, "pitch": 70, "duration": 1, "velocity": 112}, {"time": 2291, "pitch": 70, "duration": 1, "velocity": 122}, {"time": 2294, "pitch": 77, "duration": 1, "velocity": 127}, {"time": 2297, "pitch": 75, "duration": 2, "velocity": 127}, {"time": 2300, "pitch": 77, "duration": 2, "velocity": 112}, {"time": 2303, "pitch": 75, "duration": 2, "velocity": 127}, {"time": 2306, "pitch": 72, "duration": 1, "velocity": 99}, {"time": 2309, "pitch": 70, "duration": 2, "velocity": 107}, {"time": 2312, "pitch": 72, "duration": 8, "velocity": 112}, {"time": 2318, "pitch": 72, "duration": 2, "velocity": 127}, {"time": 2330, "pitch": 72, "duration": 1, "velocity": 122}, {"time": 2333, "pitch": 72, "duration": 2, "velocity": 127}, {"time": 2336, "pitch": 70, "duration": 1, "velocity": 117}, {"time": 2339, "pitch": 70, "duration": 2, "velocity": 122}, {"time": 2342, "pitch": 72, "duration": 1, "velocity": 122}, {"time": 2345, "pitch": 70, "duration": 5, "velocity": 127}, {"time": 2354, "pitch": 75, "duration": 1, "velocity": 122}, {"time": 2357, "pitch": 75, "duration": 1, "velocity": 127}, {"time": 2360, "pitch": 72, "duration": 1, "velocity": 112}, {"time": 2363, "pitch": 70, "duration": 1, "velocity": 117}, {"time": 2366, "pitch": 72, "duration": 1, "velocity": 107}, {"time": 2369, "pitch": 65, "duration": 5, "velocity": 112}, {"time": 2381, "pitch": 63, "duration": 1, "velocity": 127}, {"time": 2384, "pitch": 63, "duration": 1, "velocity": 112}, {"time": 2387, "pitch": 63, "duration": 2, "velocity": 122}, {"time": 2390, "pitch": 65, "duration": 2, "velocity": 97}, {"time": 2393, "pitch": 70, "duration": 2, "velocity": 127}, {"time": 2396, "pitch": 70, "duration": 1, "velocity": 127}, {"time": 2399, "pitch": 70, "duration": 1, "velocity": 127}, {"time": 2402, "pitch": 72, "duration": 2, "velocity": 112}, {"time": 2405, "pitch": 68, "duration": 2, "velocity": 127}, {"time": 2408, "pitch": 67, "duration": 3, "velocity": 89}, {"time": 2411, "pitch": 65, "duration": 16, "velocity": 99}, {"time": 2426, "pitch": 72, "duration": 2, "velocity": 127}, {"time": 2429, "pitch": 72, "duration": 2, "velocity": 127}, {"time": 2432, "pitch": 70, "duration": 1, "velocity": 117}, {"time": 2435, "pitch": 70, "duration": 2, "velocity": 122}, {"time": 2438, "pitch": 72, "duration": 1, "velocity": 122}, {"time": 2441, "pitch": 70, "duration": 5, "velocity": 127}, {"time": 2450, "pitch": 75, "duration": 1, "velocity": 122}, {"time": 2453, "pitch": 75, "duration": 1, "velocity": 127}, {"time": 2456, "pitch": 72, "duration": 1, "velocity": 112}, {"time": 2459, "pitch": 70, "duration": 1, "velocity": 117}, {"time": 2462, "pitch": 72, "duration": 1, "velocity": 107}, {"time": 2465, "pitch": 65, "duration": 5, "velocity": 112}, {"time": 2477, "pitch": 63, "duration": 1, "velocity": 127}, {"time": 2480, "pitch": 63, "duration": 1, "velocity": 112}, {"time": 2483, "pitch": 63, "duration": 2, "velocity": 122}, {"time": 2486, "pitch": 65, "duration": 2, "velocity": 97}, {"time": 2489, "pitch": 70, "duration": 2, "velocity": 127}, {"time": 2492, "pitch": 70, "duration": 3, "velocity": 127}, {"time": 2496, "pitch": 70, "duration": 4, "velocity": 122}, {"time": 2502, "pitch": 72, "duration": 19, "velocity": 122}, {"time": 2524, "pitch": 68, "duration": 8, "velocity": 122}, {"time": 2531, "pitch": 67, "duration": 7, "velocity": 95}, {"time": 2538, "pitch": 65, "duration": 33, "velocity": 97}]}, {"program": 0, "is_drum": false, "name": "PIANO", "notes": [{"time": 29, "pitch": 41, "duration": 20, "velocity": 72}, {"time": 32, "pitch": 48, "duration": 19, "velocity": 56}, {"time": 35, "pitch": 53, "duration": 15, "velocity": 67}, {"time": 38, "pitch": 56, "duration": 10, "velocity": 63}, {"time": 41, "pitch": 60, "duration": 12, "velocity": 66}, {"time": 47, "pitch": 65, "duration": 6, "velocity": 52}, {"time": 50, "pitch": 56, "duration": 3, "velocity": 40}, {"time": 53, "pitch": 44, "duration": 18, "velocity": 72}, {"time": 56, "pitch": 51, "duration": 14, "velocity": 52}, {"time": 59, "pitch": 56, "duration": 7, "velocity": 82}, {"time": 62, "pitch": 60, "duration": 7, "velocity": 75}, {"time": 65, "pitch": 68, "duration": 11, "velocity": 117}, {"time": 68, "pitch": 56, "duration": 2, "velocity": 56}, {"time": 71, "pitch": 63, "duration": 6, "velocity": 97}, {"time": 74, "pitch": 60, "duration": 3, "velocity": 67}, {"time": 77, "pitch": 39, "duration": 16, "velocity": 95}, {"time": 80, "pitch": 51, "duration": 10, "velocity": 71}, {"time": 83, "pitch": 55, "duration": 7, "velocity": 72}, {"time": 86, "pitch": 58, "duration": 3, "velocity": 93}, {"time": 89, "pitch": 63, "duration": 11, "velocity": 112}, {"time": 92, "pitch": 51, "duration": 1, "velocity": 64}, {"time": 95, "pitch": 58, "duration": 5, "velocity": 83}, {"time": 98, "pitch": 55, "duration": 3, "velocity": 67}, {"time": 101, "pitch": 41, "duration": 18, "velocity": 69}, {"time": 104, "pitch": 48, "duration": 16, "velocity": 59}, {"time": 107, "pitch": 53, "duration": 8, "velocity": 72}, {"time": 110, "pitch": 56, "duration": 4, "velocity": 43}, {"time": 113, "pitch": 65, "duration": 11, "velocity": 69}, {"time": 116, "pitch": 53, "duration": 4, "velocity": 81}, {"time": 119, "pitch": 56, "duration": 5, "velocity": 69}, {"time": 122, "pitch": 60, "duration": 2, "velocity": 66}, {"time": 125, "pitch": 46, "duration": 17, "velocity": 90}, {"time": 128, "pitch": 58, "duration": 10, "velocity": 85}, {"time": 131, "pitch": 61, "duration": 7, "velocity": 86}, {"time": 134, "pitch": 65, "duration": 9, "velocity": 73}, {"time": 137, "pitch": 70, "duration": 12, "velocity": 102}, {"time": 140, "pitch": 58, "duration": 1, "velocity": 93}, {"time": 143, "pitch": 61, "duration": 7, "velocity": 82}, {"time": 146, "pitch": 65, "duration": 3, "velocity": 63}, {"time": 149, "pitch": 41, "duration": 17, "velocity": 69}, {"time": 152, "pitch": 48, "duration": 14, "velocity": 53}, {"time": 155, "pitch": 53, "duration": 7, "velocity": 88}, {"time": 158, "pitch": 56, "duration": 5, "velocity": 51}, {"time": 161, "pitch": 65, "duration": 11, "velocity": 69}, {"time": 164, "pitch": 53, "duration": 2, "velocity": 96}, {"time": 167, "pitch": 56, "duration": 5, "velocity": 77}, {"time": 170, "pitch": 60, "duration": 2, "velocity": 54}, {"time": 173, "pitch": 39, "duration": 17, "velocity": 97}, {"time": 176, "pitch": 51, "duration": 10, "velocity": 97}, {"time": 179, "pitch": 55, "duration": 5, "velocity": 85}, {"time": 182, "pitch": 58, "duration": 3, "velocity": 99}, {"time": 185, "pitch": 63, "duration": 12, "velocity": 127}, {"time": 188, "pitch": 51, "duration": 3, "velocity": 97}, {"time": 191, "pitch": 58, "duration": 5, "velocity": 100}, {"time": 194, "pitch": 55, "duration": 3, "velocity": 88}, {"time": 197, "pitch": 41, "duration": 17, "velocity": 85}, {"time": 200, "pitch": 48, "duration": 15, "velocity": 67}, {"time": 203, "pitch": 53, "duration": 9, "velocity": 89}, {"time": 206, "pitch": 60, "duration": 15, "velocity": 63}, {"time": 209, "pitch": 68, "duration": 11, "velocity": 100}, {"time": 221, "pitch": 46, "duration": 18, "velocity": 107}, {"time": 224, "pitch": 58, "duration": 10, "velocity": 88}, {"time": 227, "pitch": 61, "duration": 8, "velocity": 78}, {"time": 230, "pitch": 65, "duration": 8, "velocity": 68}, {"time": 233, "pitch": 70, "duration": 12, "velocity": 78}, {"time": 236, "pitch": 58, "duration": 2, "velocity": 81}, {"time": 239, "pitch": 61, "duration": 6, "velocity": 79}, {"time": 245, "pitch": 41, "duration": 17, "velocity": 70}, {"time": 248, "pitch": 48, "duration": 14, "velocity": 53}, {"time": 251, "pitch": 53, "duration": 10, "velocity": 79}, {"time": 254, "pitch": 56, "duration": 8, "velocity": 44}, {"time": 257, "pitch": 65, "duration": 12, "velocity": 69}, {"time": 269, "pitch": 39, "duration": 17, "velocity": 69}, {"time": 272, "pitch": 46, "duration": 13, "velocity": 53}, {"time": 275, "pitch": 51, "duration": 7, "velocity": 85}, {"time": 278, "pitch": 55, "duration": 5, "velocity": 67}, {"time": 281, "pitch": 63, "duration": 12, "velocity": 102}, {"time": 284, "pitch": 51, "duration": 2, "velocity": 81}, {"time": 287, "pitch": 58, "duration": 6, "velocity": 88}, {"time": 293, "pitch": 41, "duration": 18, "velocity": 70}, {"time": 296, "pitch": 48, "duration": 19, "velocity": 57}, {"time": 299, "pitch": 53, "duration": 9, "velocity": 78}, {"time": 302, "pitch": 56, "duration": 5, "velocity": 46}, {"time": 305, "pitch": 65, "duration": 10, "velocity": 69}, {"time": 317, "pitch": 46, "duration": 16, "velocity": 78}, {"time": 320, "pitch": 53, "duration": 4, "velocity": 69}, {"time": 323, "pitch": 58, "duration": 18, "velocity": 97}, {"time": 326, "pitch": 53, "duration": 4, "velocity": 64}, {"time": 329, "pitch": 61, "duration": 12, "velocity": 107}, {"time": 341, "pitch": 44, "duration": 17, "velocity": 88}, {"time": 344, "pitch": 51, "duration": 13, "velocity": 65}, {"time": 347, "pitch": 56, "duration": 7, "velocity": 93}, {"time": 350, "pitch": 60, "duration": 5, "velocity": 72}, {"time": 353, "pitch": 68, "duration": 12, "velocity": 107}, {"time": 356, "pitch": 56, "duration": 1, "velocity": 86}, {"time": 359, "pitch": 63, "duration": 6, "velocity": 79}, {"time": 365, "pitch": 39, "duration": 17, "velocity": 81}, {"time": 368, "pitch": 46, "duration": 13, "velocity": 61}, {"time": 371, "pitch": 51, "duration": 7, "velocity": 85}, {"time": 374, "pitch": 55, "duration": 4, "velocity": 66}, {"time": 377, "pitch": 63, "duration": 12, "velocity": 127}, {"time": 380, "pitch": 51, "duration": 2, "velocity": 93}, {"time": 383, "pitch": 58, "duration": 6, "velocity": 100}, {"time": 386, "pitch": 55, "duration": 3, "velocity": 82}, {"time": 389, "pitch": 41, "duration": 23, "velocity": 74}, {"time": 392, "pitch": 48, "duration": 19, "velocity": 77}, {"time": 395, "pitch": 53, "duration": 7, "velocity": 90}, {"time": 398, "pitch": 56, "duration": 4, "velocity": 95}, {"time": 401, "pitch": 65, "duration": 11, "velocity": 77}, {"time": 404, "pitch": 53, "duration": 2, "velocity": 82}, {"time": 407, "pitch": 60, "duration": 5, "velocity": 67}, {"time": 410, "pitch": 56, "duration": 3, "velocity": 76}, {"time": 413, "pitch": 46, "duration": 18, "velocity": 96}, {"time": 416, "pitch": 53, "duration": 11, "velocity": 69}, {"time": 419, "pitch": 58, "duration": 7, "velocity": 75}, {"time": 422, "pitch": 61, "duration": 9, "velocity": 58}, {"time": 425, "pitch": 65, "duration": 12, "velocity": 77}, {"time": 428, "pitch": 53, "duration": 3, "velocity": 59}, {"time": 431, "pitch": 58, "duration": 6, "velocity": 85}, {"time": 437, "pitch": 41, "duration": 19, "velocity": 69}, {"time": 440, "pitch": 48, "duration": 17, "velocity": 65}, {"time": 443, "pitch": 53, "duration": 8, "velocity": 88}, {"time": 446, "pitch": 56, "duration": 4, "velocity": 58}, {"time": 449, "pitch": 65, "duration": 11, "velocity": 72}, {"time": 452, "pitch": 53, "duration": 3, "velocity": 71}, {"time": 455, "pitch": 56, "duration": 5, "velocity": 96}, {"time": 461, "pitch": 46, "duration": 6, "velocity": 90}, {"time": 464, "pitch": 53, "duration": 1, "velocity": 61}, {"time": 467, "pitch": 58, "duration": 6, "velocity": 112}, {"time": 470, "pitch": 61, "duration": 3, "velocity": 99}, {"time": 473, "pitch": 39, "duration": 11, "velocity": 107}, {"time": 476, "pitch": 55, "duration": 4, "velocity": 77}, {"time": 479, "pitch": 58, "duration": 5, "velocity": 112}, {"time": 482, "pitch": 55, "duration": 2, "velocity": 72}, {"time": 485, "pitch": 44, "duration": 12, "velocity": 102}, {"time": 488, "pitch": 56, "duration": 4, "velocity": 85}, {"time": 491, "pitch": 63, "duration": 4, "velocity": 112}, {"time": 497, "pitch": 48, "duration": 10, "velocity": 74}, {"time": 497, "pitch": 55, "duration": 1, "velocity": 78}, {"time": 497, "pitch": 60, "duration": 6, "velocity": 77}, {"time": 497, "pitch": 64, "duration": 11, "velocity": 86}, {"time": 503, "pitch": 55, "duration": 6, "velocity": 92}, {"time": 506, "pitch": 60, "duration": 2, "velocity": 77}, {"time": 509, "pitch": 46, "duration": 19, "velocity": 90}, {"time": 512, "pitch": 53, "duration": 10, "velocity": 66}, {"time": 515, "pitch": 58, "duration": 9, "velocity": 122}, {"time": 518, "pitch": 61, "duration": 11, "velocity": 79}, {"time": 521, "pitch": 65, "duration": 11, "velocity": 67}, {"time": 524, "pitch": 53, "duration": 8, "velocity": 82}, {"time": 527, "pitch": 58, "duration": 5, "velocity": 97}, {"time": 533, "pitch": 41, "duration": 18, "velocity": 63}, {"time": 536, "pitch": 48, "duration": 15, "velocity": 62}, {"time": 539, "pitch": 53, "duration": 7, "velocity": 82}, {"time": 542, "pitch": 56, "duration": 4, "velocity": 67}, {"time": 545, "pitch": 65, "duration": 10, "velocity": 70}, {"time": 548, "pitch": 53, "duration": 2, "velocity": 83}, {"time": 551, "pitch": 56, "duration": 5, "velocity": 85}, {"time": 557, "pitch": 37, "duration": 8, "velocity": 102}, {"time": 560, "pitch": 49, "duration": 8, "velocity": 82}, {"time": 563, "pitch": 53, "duration": 6, "velocity": 86}, {"time": 566, "pitch": 39, "duration": 1, "velocity": 33}, {"time": 566, "pitch": 56, "duration": 2, "velocity": 41}, {"time": 569, "pitch": 39, "duration": 6, "velocity": 93}, {"time": 572, "pitch": 51, "duration": 4, "velocity": 76}, {"time": 575, "pitch": 58, "duration": 5, "velocity": 117}, {"time": 581, "pitch": 41, "duration": 20, "velocity": 82}, {"time": 584, "pitch": 48, "duration": 21, "velocity": 66}, {"time": 587, "pitch": 53, "duration": 7, "velocity": 71}, {"time": 590, "pitch": 56, "duration": 4, "velocity": 68}, {"time": 593, "pitch": 65, "duration": 30, "velocity": 68}, {"time": 596, "pitch": 53, "duration": 2, "velocity": 88}, {"time": 599, "pitch": 60, "duration": 24, "velocity": 62}, {"time": 602, "pitch": 56, "duration": 21, "velocity": 85}, {"time": 605, "pitch": 41, "duration": 19, "velocity": 71}, {"time": 629, "pitch": 29, "duration": 3, "velocity": 82}, {"time": 629, "pitch": 41, "duration": 3, "velocity": 92}, {"time": 629, "pitch": 53, "duration": 2, "velocity": 99}, {"time": 629, "pitch": 56, "duration": 2, "velocity": 117}, {"time": 629, "pitch": 60, "duration": 2, "velocity": 97}, {"time": 638, "pitch": 29, "duration": 3, "velocity": 93}, {"time": 638, "pitch": 41, "duration": 3, "velocity": 102}, {"time": 638, "pitch": 53, "duration": 3, "velocity": 100}, {"time": 638, "pitch": 56, "duration": 3, "velocity": 127}, {"time": 638, "pitch": 60, "duration": 3, "velocity": 112}, {"time": 653, "pitch": 41, "duration": 19, "velocity": 83}, {"time": 656, "pitch": 48, "duration": 17, "velocity": 107}, {"time": 659, "pitch": 53, "duration": 4, "velocity": 102}, {"time": 662, "pitch": 56, "duration": 4, "velocity": 112}, {"time": 665, "pitch": 65, "duration": 10, "velocity": 92}, {"time": 668, "pitch": 56, "duration": 3, "velocity": 117}, {"time": 671, "pitch": 60, "duration": 5, "velocity": 72}, {"time": 674, "pitch": 56, "duration": 2, "velocity": 127}, {"time": 677, "pitch": 44, "duration": 18, "velocity": 100}, {"time": 680, "pitch": 56, "duration": 4, "velocity": 90}, {"time": 683, "pitch": 60, "duration": 5, "velocity": 64}, {"time": 686, "pitch": 56, "duration": 3, "velocity": 99}, {"time": 689, "pitch": 60, "duration": 8, "velocity": 92}, {"time": 689, "pitch": 63, "duration": 6, "velocity": 127}, {"time": 692, "pitch": 51, "duration": 2, "velocity": 96}, {"time": 695, "pitch": 56, "duration": 5, "velocity": 112}, {"time": 698, "pitch": 60, "duration": 2, "velocity": 78}, {"time": 698, "pitch": 63, "duration": 2, "velocity": 127}, {"time": 701, "pitch": 39, "duration": 18, "velocity": 112}, {"time": 704, "pitch": 51, "duration": 14, "velocity": 95}, {"time": 707, "pitch": 55, "duration": 6, "velocity": 112}, {"time": 710, "pitch": 58, "duration": 4, "velocity": 127}, {"time": 713, "pitch": 63, "duration": 10, "velocity": 127}, {"time": 716, "pitch": 46, "duration": 4, "velocity": 77}, {"time": 719, "pitch": 58, "duration": 5, "velocity": 127}, {"time": 722, "pitch": 55, "duration": 3, "velocity": 100}, {"time": 725, "pitch": 41, "duration": 19, "velocity": 86}, {"time": 728, "pitch": 48, "duration": 10, "velocity": 78}, {"time": 731, "pitch": 53, "duration": 5, "velocity": 97}, {"time": 734, "pitch": 56, "duration": 4, "velocity": 86}, {"time": 737, "pitch": 65, "duration": 11, "velocity": 100}, {"time": 740, "pitch": 48, "duration": 4, "velocity": 122}, {"time": 743, "pitch": 56, "duration": 6, "velocity": 112}, {"time": 746, "pitch": 60, "duration": 2, "velocity": 66}, {"time": 749, "pitch": 34, "duration": 16, "velocity": 112}, {"time": 752, "pitch": 41, "duration": 13, "velocity": 36}, {"time": 755, "pitch": 46, "duration": 7, "velocity": 102}, {"time": 758, "pitch": 53, "duration": 3, "velocity": 89}, {"time": 761, "pitch": 58, "duration": 6, "velocity": 122}, {"time": 761, "pitch": 61, "duration": 11, "velocity": 127}, {"time": 764, "pitch": 46, "duration": 2, "velocity": 112}, {"time": 767, "pitch": 53, "duration": 6, "velocity": 100}, {"time": 770, "pitch": 58, "duration": 3, "velocity": 127}, {"time": 773, "pitch": 41, "duration": 17, "velocity": 83}, {"time": 776, "pitch": 48, "duration": 10, "velocity": 71}, {"time": 779, "pitch": 53, "duration": 4, "velocity": 95}, {"time": 782, "pitch": 56, "duration": 4, "velocity": 83}, {"time": 785, "pitch": 60, "duration": 6, "velocity": 72}, {"time": 785, "pitch": 65, "duration": 10, "velocity": 93}, {"time": 788, "pitch": 48, "duration": 1, "velocity": 96}, {"time": 791, "pitch": 56, "duration": 4, "velocity": 112}, {"time": 794, "pitch": 60, "duration": 1, "velocity": 66}, {"time": 797, "pitch": 37, "duration": 12, "velocity": 122}, {"time": 800, "pitch": 53, "duration": 3, "velocity": 79}, {"time": 803, "pitch": 61, "duration": 4, "velocity": 117}, {"time": 806, "pitch": 53, "duration": 2, "velocity": 97}, {"time": 809, "pitch": 39, "duration": 7, "velocity": 122}, {"time": 812, "pitch": 51, "duration": 4, "velocity": 89}, {"time": 815, "pitch": 58, "duration": 4, "velocity": 107}, {"time": 818, "pitch": 51, "duration": 1, "velocity": 122}, {"time": 821, "pitch": 44, "duration": 11, "velocity": 122}, {"time": 824, "pitch": 56, "duration": 4, "velocity": 112}, {"time": 827, "pitch": 63, "duration": 3, "velocity": 127}, {"time": 830, "pitch": 56, "duration": 1, "velocity": 56}, {"time": 833, "pitch": 48, "duration": 7, "velocity": 96}, {"time": 833, "pitch": 55, "duration": 1, "velocity": 102}, {"time": 833, "pitch": 60, "duration": 6, "velocity": 100}, {"time": 833, "pitch": 64, "duration": 12, "velocity": 100}, {"time": 839, "pitch": 55, "duration": 4, "velocity": 102}, {"time": 842, "pitch": 60, "duration": 2, "velocity": 112}, {"time": 845, "pitch": 41, "duration": 17, "velocity": 86}, {"time": 848, "pitch": 48, "duration": 10, "velocity": 93}, {"time": 851, "pitch": 53, "duration": 3, "velocity": 97}, {"time": 854, "pitch": 56, "duration": 2, "velocity": 112}, {"time": 857, "pitch": 60, "duration": 11, "velocity": 107}, {"time": 860, "pitch": 48, "duration": 2, "velocity": 96}, {"time": 863, "pitch": 56, "duration": 5, "velocity": 122}, {"time": 866, "pitch": 53, "duration": 2, "velocity": 100}, {"time": 869, "pitch": 44, "duration": 16, "velocity": 122}, {"time": 872, "pitch": 51, "duration": 5, "velocity": 61}, {"time": 875, "pitch": 56, "duration": 7, "velocity": 112}, {"time": 878, "pitch": 51, "duration": 4, "velocity": 89}, {"time": 881, "pitch": 63, "duration": 12, "velocity": 127}, {"time": 884, "pitch": 51, "duration": 1, "velocity": 89}, {"time": 887, "pitch": 56, "duration": 6, "velocity": 97}, {"time": 890, "pitch": 60, "duration": 3, "velocity": 79}, {"time": 893, "pitch": 39, "duration": 17, "velocity": 68}, {"time": 896, "pitch": 46, "duration": 14, "velocity": 69}, {"time": 899, "pitch": 51, "duration": 7, "velocity": 99}, {"time": 902, "pitch": 55, "duration": 4, "velocity": 93}, {"time": 905, "pitch": 63, "duration": 10, "velocity": 127}, {"time": 908, "pitch": 51, "duration": 2, "velocity": 100}, {"time": 911, "pitch": 58, "duration": 5, "velocity": 127}, {"time": 914, "pitch": 55, "duration": 3, "velocity": 112}, {"time": 917, "pitch": 41, "duration": 19, "velocity": 90}, {"time": 920, "pitch": 48, "duration": 10, "velocity": 99}, {"time": 923, "pitch": 53, "duration": 4, "velocity": 95}, {"time": 926, "pitch": 60, "duration": 13, "velocity": 127}, {"time": 929, "pitch": 56, "duration": 6, "velocity": 117}, {"time": 932, "pitch": 48, "duration": 6, "velocity": 102}, {"time": 935, "pitch": 53, "duration": 6, "velocity": 99}, {"time": 938, "pitch": 56, "duration": 4, "velocity": 117}, {"time": 941, "pitch": 46, "duration": 22, "velocity": 127}, {"time": 944, "pitch": 53, "duration": 4, "velocity": 88}, {"time": 947, "pitch": 61, "duration": 17, "velocity": 127}, {"time": 950, "pitch": 53, "duration": 3, "velocity": 89}, {"time": 953, "pitch": 58, "duration": 3, "velocity": 127}, {"time": 956, "pitch": 53, "duration": 4, "velocity": 58}, {"time": 959, "pitch": 58, "duration": 5, "velocity": 127}, {"time": 962, "pitch": 53, "duration": 2, "velocity": 95}, {"time": 965, "pitch": 36, "duration": 8, "velocity": 89}, {"time": 968, "pitch": 43, "duration": 6, "velocity": 96}, {"time": 971, "pitch": 48, "duration": 6, "velocity": 112}, {"time": 974, "pitch": 63, "duration": 3, "velocity": 127}, {"time": 977, "pitch": 41, "duration": 8, "velocity": 76}, {"time": 980, "pitch": 48, "duration": 5, "velocity": 99}, {"time": 983, "pitch": 60, "duration": 6, "velocity": 117}, {"time": 986, "pitch": 56, "duration": 3, "velocity": 127}, {"time": 989, "pitch": 37, "duration": 10, "velocity": 99}, {"time": 992, "pitch": 49, "duration": 4, "velocity": 100}, {"time": 995, "pitch": 53, "duration": 5, "velocity": 102}, {"time": 998, "pitch": 56, "duration": 1, "velocity": 127}, {"time": 1001, "pitch": 39, "duration": 6, "velocity": 112}, {"time": 1004, "pitch": 51, "duration": 4, "velocity": 95}, {"time": 1007, "pitch": 58, "duration": 5, "velocity": 127}, {"time": 1010, "pitch": 51, "duration": 2, "velocity": 117}, {"time": 1013, "pitch": 41, "duration": 24, "velocity": 88}, {"time": 1016, "pitch": 48, "duration": 10, "velocity": 90}, {"time": 1019, "pitch": 53, "duration": 4, "velocity": 97}, {"time": 1022, "pitch": 56, "duration": 3, "velocity": 122}, {"time": 1025, "pitch": 60, "duration": 12, "velocity": 107}, {"time": 1028, "pitch": 48, "duration": 7, "velocity": 97}, {"time": 1031, "pitch": 56, "duration": 6, "velocity": 112}, {"time": 1034, "pitch": 53, "duration": 3, "velocity": 75}, {"time": 1037, "pitch": 41, "duration": 20, "velocity": 72}, {"time": 1040, "pitch": 48, "duration": 19, "velocity": 56}, {"time": 1043, "pitch": 53, "duration": 15, "velocity": 67}, {"time": 1046, "pitch": 56, "duration": 10, "velocity": 63}, {"time": 1049, "pitch": 60, "duration": 12, "velocity": 66}, {"time": 1055, "pitch": 65, "duration": 6, "velocity": 52}, {"time": 1058, "pitch": 56, "duration": 3, "velocity": 40}, {"time": 1061, "pitch": 44, "duration": 18, "velocity": 72}, {"time": 1064, "pitch": 51, "duration": 14, "velocity": 52}, {"time": 1067, "pitch": 56, "duration": 7, "velocity": 82}, {"time": 1070, "pitch": 60, "duration": 7, "velocity": 75}, {"time": 1073, "pitch": 68, "duration": 11, "velocity": 117}, {"time": 1076, "pitch": 56, "duration": 2, "velocity": 56}, {"time": 1079, "pitch": 63, "duration": 6, "velocity": 97}, {"time": 1082, "pitch": 60, "duration": 3, "velocity": 67}, {"time": 1085, "pitch": 39, "duration": 16, "velocity": 95}, {"time": 1088, "pitch": 51, "duration": 10, "velocity": 71}, {"time": 1091, "pitch": 55, "duration": 7, "velocity": 72}, {"time": 1094, "pitch": 58, "duration": 3, "velocity": 93}, {"time": 1097, "pitch": 63, "duration": 11, "velocity": 112}, {"time": 1100, "pitch": 51, "duration": 1, "velocity": 64}, {"time": 1103, "pitch": 58, "duration": 6, "velocity": 83}, {"time": 1106, "pitch": 55, "duration": 3, "velocity": 67}, {"time": 1109, "pitch": 41, "duration": 18, "velocity": 69}, {"time": 1112, "pitch": 48, "duration": 16, "velocity": 59}, {"time": 1115, "pitch": 53, "duration": 8, "velocity": 72}, {"time": 1118, "pitch": 56, "duration": 4, "velocity": 43}, {"time": 1121, "pitch": 65, "duration": 12, "velocity": 69}, {"time": 1124, "pitch": 53, "duration": 4, "velocity": 81}, {"time": 1127, "pitch": 56, "duration": 5, "velocity": 69}, {"time": 1130, "pitch": 60, "duration": 2, "velocity": 66}, {"time": 1133, "pitch": 46, "duration": 17, "velocity": 90}, {"time": 1136, "pitch": 58, "duration": 10, "velocity": 85}, {"time": 1139, "pitch": 61, "duration": 7, "velocity": 86}, {"time": 1142, "pitch": 65, "duration": 9, "velocity": 73}, {"time": 1145, "pitch": 70, "duration": 12, "velocity": 102}, {"time": 1148, "pitch": 58, "duration": 1, "velocity": 93}, {"time": 1151, "pitch": 61, "duration": 7, "velocity": 82}, {"time": 1154, "pitch": 65, "duration": 3, "velocity": 63}, {"time": 1157, "pitch": 41, "duration": 17, "velocity": 69}, {"time": 1160, "pitch": 48, "duration": 14, "velocity": 53}, {"time": 1163, "pitch": 53, "duration": 7, "velocity": 88}, {"time": 1166, "pitch": 56, "duration": 5, "velocity": 51}, {"time": 1169, "pitch": 65, "duration": 11, "velocity": 69}, {"time": 1172, "pitch": 53, "duration": 2, "velocity": 96}, {"time": 1175, "pitch": 56, "duration": 6, "velocity": 77}, {"time": 1178, "pitch": 60, "duration": 2, "velocity": 54}, {"time": 1181, "pitch": 39, "duration": 17, "velocity": 97}, {"time": 1184, "pitch": 51, "duration": 10, "velocity": 97}, {"time": 1187, "pitch": 55, "duration": 6, "velocity": 85}, {"time": 1190, "pitch": 58, "duration": 3, "velocity": 99}, {"time": 1193, "pitch": 63, "duration": 12, "velocity": 127}, {"time": 1196, "pitch": 51, "duration": 3, "velocity": 97}, {"time": 1199, "pitch": 58, "duration": 5, "velocity": 100}, {"time": 1202, "pitch": 55, "duration": 3, "velocity": 88}, {"time": 1205, "pitch": 41, "duration": 17, "velocity": 85}, {"time": 1208, "pitch": 48, "duration": 15, "velocity": 67}, {"time": 1211, "pitch": 53, "duration": 9, "velocity": 89}, {"time": 1214, "pitch": 60, "duration": 15, "velocity": 63}, {"time": 1217, "pitch": 68, "duration": 11, "velocity": 100}, {"time": 1229, "pitch": 46, "duration": 18, "velocity": 107}, {"time": 1232, "pitch": 58, "duration": 10, "velocity": 88}, {"time": 1235, "pitch": 61, "duration": 8, "velocity": 78}, {"time": 1238, "pitch": 65, "duration": 9, "velocity": 68}, {"time": 1241, "pitch": 70, "duration": 12, "velocity": 78}, {"time": 1244, "pitch": 58, "duration": 2, "velocity": 81}, {"time": 1247, "pitch": 61, "duration": 6, "velocity": 79}, {"time": 1253, "pitch": 41, "duration": 17, "velocity": 70}, {"time": 1256, "pitch": 48, "duration": 14, "velocity": 53}, {"time": 1259, "pitch": 53, "duration": 11, "velocity": 79}, {"time": 1262, "pitch": 56, "duration": 8, "velocity": 44}, {"time": 1265, "pitch": 65, "duration": 12, "velocity": 69}, {"time": 1277, "pitch": 39, "duration": 17, "velocity": 69}, {"time": 1280, "pitch": 46, "duration": 13, "velocity": 53}, {"time": 1283, "pitch": 51, "duration": 7, "velocity": 85}, {"time": 1286, "pitch": 55, "duration": 5, "velocity": 67}, {"time": 1289, "pitch": 63, "duration": 13, "velocity": 102}, {"time": 1292, "pitch": 51, "duration": 2, "velocity": 81}, {"time": 1295, "pitch": 58, "duration": 6, "velocity": 88}, {"time": 1301, "pitch": 41, "duration": 18, "velocity": 70}, {"time": 1304, "pitch": 48, "duration": 19, "velocity": 57}, {"time": 1307, "pitch": 53, "duration": 9, "velocity": 78}, {"time": 1310, "pitch": 56, "duration": 5, "velocity": 46}, {"time": 1313, "pitch": 65, "duration": 10, "velocity": 69}, {"time": 1325, "pitch": 46, "duration": 16, "velocity": 78}, {"time": 1328, "pitch": 53, "duration": 4, "velocity": 69}, {"time": 1331, "pitch": 58, "duration": 18, "velocity": 97}, {"time": 1334, "pitch": 53, "duration": 4, "velocity": 64}, {"time": 1337, "pitch": 61, "duration": 12, "velocity": 107}, {"time": 1349, "pitch": 44, "duration": 17, "velocity": 88}, {"time": 1352, "pitch": 51, "duration": 13, "velocity": 65}, {"time": 1355, "pitch": 56, "duration": 7, "velocity": 93}, {"time": 1358, "pitch": 60, "duration": 5, "velocity": 72}, {"time": 1361, "pitch": 68, "duration": 12, "velocity": 107}, {"time": 1364, "pitch": 56, "duration": 1, "velocity": 86}, {"time": 1367, "pitch": 63, "duration": 6, "velocity": 79}, {"time": 1373, "pitch": 39, "duration": 17, "velocity": 81}, {"time": 1376, "pitch": 46, "duration": 14, "velocity": 61}, {"time": 1379, "pitch": 51, "duration": 7, "velocity": 85}, {"time": 1382, "pitch": 55, "duration": 4, "velocity": 66}, {"time": 1385, "pitch": 63, "duration": 12, "velocity": 127}, {"time": 1388, "pitch": 51, "duration": 2, "velocity": 93}, {"time": 1391, "pitch": 58, "duration": 6, "velocity": 100}, {"time": 1394, "pitch": 55, "duration": 3, "velocity": 82}, {"time": 1397, "pitch": 41, "duration": 23, "velocity": 74}, {"time": 1400, "pitch": 48, "duration": 19, "velocity": 77}, {"time": 1403, "pitch": 53, "duration": 7, "velocity": 90}, {"time": 1406, "pitch": 56, "duration": 4, "velocity": 95}, {"time": 1409, "pitch": 65, "duration": 11, "velocity": 77}, {"time": 1412, "pitch": 53, "duration": 2, "velocity": 82}, {"time": 1415, "pitch": 60, "duration": 6, "velocity": 67}, {"time": 1418, "pitch": 56, "duration": 3, "velocity": 76}, {"time": 1421, "pitch": 46, "duration": 18, "velocity": 96}, {"time": 1424, "pitch": 53, "duration": 11, "velocity": 69}, {"time": 1427, "pitch": 58, "duration": 7, "velocity": 75}, {"time": 1430, "pitch": 61, "duration": 10, "velocity": 58}, {"time": 1433, "pitch": 65, "duration": 12, "velocity": 77}, {"time": 1436, "pitch": 53, "duration": 3, "velocity": 59}, {"time": 1439, "pitch": 58, "duration": 6, "velocity": 85}, {"time": 1445, "pitch": 41, "duration": 19, "velocity": 69}, {"time": 1448, "pitch": 48, "duration": 17, "velocity": 65}, {"time": 1451, "pitch": 53, "duration": 8, "velocity": 88}, {"time": 1454, "pitch": 56, "duration": 5, "velocity": 58}, {"time": 1457, "pitch": 65, "duration": 11, "velocity": 72}, {"time": 1460, "pitch": 53, "duration": 3, "velocity": 71}, {"time": 1463, "pitch": 56, "duration": 5, "velocity": 96}, {"time": 1469, "pitch": 46, "duration": 7, "velocity": 90}, {"time": 1472, "pitch": 53, "duration": 1, "velocity": 61}, {"time": 1475, "pitch": 58, "duration": 6, "velocity": 112}, {"time": 1478, "pitch": 61, "duration": 3, "velocity": 99}, {"time": 1481, "pitch": 39, "duration": 11, "velocity": 107}, {"time": 1484, "pitch": 55, "duration": 4, "velocity": 77}, {"time": 1487, "pitch": 58, "duration": 5, "velocity": 112}, {"time": 1490, "pitch": 55, "duration": 2, "velocity": 72}, {"time": 1493, "pitch": 44, "duration": 12, "velocity": 102}, {"time": 1496, "pitch": 56, "duration": 4, "velocity": 85}, {"time": 1499, "pitch": 63, "duration": 4, "velocity": 112}, {"time": 1505, "pitch": 48, "duration": 10, "velocity": 74}, {"time": 1505, "pitch": 55, "duration": 2, "velocity": 78}, {"time": 1505, "pitch": 60, "duration": 6, "velocity": 77}, {"time": 1505, "pitch": 64, "duration": 11, "velocity": 86}, {"time": 1511, "pitch": 55, "duration": 6, "velocity": 92}, {"time": 1514, "pitch": 60, "duration": 2, "velocity": 77}, {"time": 1517, "pitch": 46, "duration": 19, "velocity": 90}, {"time": 1520, "pitch": 53, "duration": 10, "velocity": 66}, {"time": 1523, "pitch": 58, "duration": 9, "velocity": 122}, {"time": 1526, "pitch": 61, "duration": 11, "velocity": 79}, {"time": 1529, "pitch": 65, "duration": 11, "velocity": 67}, {"time": 1532, "pitch": 53, "duration": 9, "velocity": 82}, {"time": 1535, "pitch": 58, "duration": 5, "velocity": 97}, {"time": 1541, "pitch": 41, "duration": 18, "velocity": 63}, {"time": 1544, "pitch": 48, "duration": 15, "velocity": 62}, {"time": 1547, "pitch": 53, "duration": 7, "velocity": 82}, {"time": 1550, "pitch": 56, "duration": 4, "velocity": 67}, {"time": 1553, "pitch": 65, "duration": 11, "velocity": 70}, {"time": 1556, "pitch": 53, "duration": 2, "velocity": 83}, {"time": 1559, "pitch": 56, "duration": 5, "velocity": 85}, {"time": 1565, "pitch": 37, "duration": 8, "velocity": 102}, {"time": 1568, "pitch": 49, "duration": 8, "velocity": 82}, {"time": 1571, "pitch": 53, "duration": 6, "velocity": 86}, {"time": 1574, "pitch": 39, "duration": 1, "velocity": 33}, {"time": 1574, "pitch": 56, "duration": 2, "velocity": 41}, {"time": 1577, "pitch": 39, "duration": 6, "velocity": 93}, {"time": 1580, "pitch": 51, "duration": 4, "velocity": 76}, {"time": 1583, "pitch": 58, "duration": 5, "velocity": 117}, {"time": 1589, "pitch": 41, "duration": 20, "velocity": 85}, {"time": 1595, "pitch": 48, "duration": 7, "velocity": 97}, {"time": 1601, "pitch": 56, "duration": 4, "velocity": 107}, {"time": 1601, "pitch": 60, "duration": 9, "velocity": 99}, {"time": 1604, "pitch": 48, "duration": 3, "velocity": 93}, {"time": 1607, "pitch": 53, "duration": 3, "velocity": 100}, {"time": 1610, "pitch": 56, "duration": 1, "velocity": 100}, {"time": 1613, "pitch": 46, "duration": 2, "velocity": 127}, {"time": 1613, "pitch": 58, "duration": 3, "velocity": 127}, {"time": 1616, "pitch": 44, "duration": 1, "velocity": 100}, {"time": 1616, "pitch": 56, "duration": 1, "velocity": 127}, {"time": 1619, "pitch": 43, "duration": 3, "velocity": 97}, {"time": 1619, "pitch": 55, "duration": 3, "velocity": 117}, {"time": 1622, "pitch": 41, "duration": 3, "velocity": 92}, {"time": 1622, "pitch": 53, "duration": 3, "velocity": 107}, {"time": 1637, "pitch": 41, "duration": 19, "velocity": 83}, {"time": 1640, "pitch": 48, "duration": 17, "velocity": 107}, {"time": 1643, "pitch": 53, "duration": 5, "velocity": 102}, {"time": 1646, "pitch": 56, "duration": 4, "velocity": 112}, {"time": 1649, "pitch": 65, "duration": 11, "velocity": 92}, {"time": 1652, "pitch": 56, "duration": 4, "velocity": 117}, {"time": 1655, "pitch": 60, "duration": 5, "velocity": 72}, {"time": 1658, "pitch": 56, "duration": 3, "velocity": 127}, {"time": 1661, "pitch": 44, "duration": 18, "velocity": 100}, {"time": 1664, "pitch": 56, "duration": 4, "velocity": 90}, {"time": 1667, "pitch": 60, "duration": 5, "velocity": 64}, {"time": 1670, "pitch": 56, "duration": 3, "velocity": 99}, {"time": 1673, "pitch": 60, "duration": 8, "velocity": 92}, {"time": 1673, "pitch": 63, "duration": 6, "velocity": 127}, {"time": 1676, "pitch": 51, "duration": 2, "velocity": 96}, {"time": 1679, "pitch": 56, "duration": 5, "velocity": 112}, {"time": 1682, "pitch": 60, "duration": 2, "velocity": 78}, {"time": 1682, "pitch": 63, "duration": 2, "velocity": 127}, {"time": 1685, "pitch": 39, "duration": 18, "velocity": 112}, {"time": 1688, "pitch": 51, "duration": 14, "velocity": 95}, {"time": 1691, "pitch": 55, "duration": 6, "velocity": 112}, {"time": 1694, "pitch": 58, "duration": 4, "velocity": 127}, {"time": 1697, "pitch": 63, "duration": 10, "velocity": 127}, {"time": 1700, "pitch": 46, "duration": 4, "velocity": 77}, {"time": 1703, "pitch": 58, "duration": 5, "velocity": 127}, {"time": 1706, "pitch": 55, "duration": 3, "velocity": 100}, {"time": 1709, "pitch": 41, "duration": 19, "velocity": 86}, {"time": 1712, "pitch": 48, "duration": 10, "velocity": 78}, {"time": 1715, "pitch": 53, "duration": 5, "velocity": 97}, {"time": 1718, "pitch": 56, "duration": 4, "velocity": 86}, {"time": 1721, "pitch": 65, "duration": 11, "velocity": 100}, {"time": 1724, "pitch": 48, "duration": 4, "velocity": 122}, {"time": 1727, "pitch": 56, "duration": 6, "velocity": 112}, {"time": 1730, "pitch": 60, "duration": 2, "velocity": 66}, {"time": 1733, "pitch": 34, "duration": 16, "velocity": 112}, {"time": 1736, "pitch": 41, "duration": 13, "velocity": 36}, {"time": 1739, "pitch": 46, "duration": 7, "velocity": 102}, {"time": 1742, "pitch": 53, "duration": 3, "velocity": 89}, {"time": 1745, "pitch": 58, "duration": 6, "velocity": 122}, {"time": 1745, "pitch": 61, "duration": 11, "velocity": 127}, {"time": 1748, "pitch": 46, "duration": 2, "velocity": 112}, {"time": 1751, "pitch": 53, "duration": 6, "velocity": 100}, {"time": 1754, "pitch": 58, "duration": 3, "velocity": 127}, {"time": 1757, "pitch": 41, "duration": 17, "velocity": 83}, {"time": 1760, "pitch": 48, "duration": 11, "velocity": 71}, {"time": 1763, "pitch": 53, "duration": 4, "velocity": 95}, {"time": 1766, "pitch": 56, "duration": 4, "velocity": 83}, {"time": 1769, "pitch": 60, "duration": 6, "velocity": 72}, {"time": 1769, "pitch": 65, "duration": 10, "velocity": 93}, {"time": 1772, "pitch": 48, "duration": 1, "velocity": 96}, {"time": 1775, "pitch": 56, "duration": 4, "velocity": 112}, {"time": 1778, "pitch": 60, "duration": 1, "velocity": 66}, {"time": 1781, "pitch": 37, "duration": 12, "velocity": 122}, {"time": 1784, "pitch": 53, "duration": 3, "velocity": 79}, {"time": 1787, "pitch": 61, "duration": 4, "velocity": 117}, {"time": 1790, "pitch": 53, "duration": 2, "velocity": 97}, {"time": 1793, "pitch": 39, "duration": 8, "velocity": 122}, {"time": 1796, "pitch": 51, "duration": 4, "velocity": 89}, {"time": 1799, "pitch": 58, "duration": 4, "velocity": 107}, {"time": 1802, "pitch": 51, "duration": 1, "velocity": 122}, {"time": 1805, "pitch": 44, "duration": 11, "velocity": 122}, {"time": 1808, "pitch": 56, "duration": 4, "velocity": 112}, {"time": 1811, "pitch": 63, "duration": 4, "velocity": 127}, {"time": 1814, "pitch": 56, "duration": 1, "velocity": 56}, {"time": 1817, "pitch": 48, "duration": 8, "velocity": 96}, {"time": 1817, "pitch": 55, "duration": 2, "velocity": 102}, {"time": 1817, "pitch": 60, "duration": 6, "velocity": 100}, {"time": 1817, "pitch": 64, "duration": 12, "velocity": 100}, {"time": 1823, "pitch": 55, "duration": 5, "velocity": 102}, {"time": 1826, "pitch": 60, "duration": 3, "velocity": 112}, {"time": 1829, "pitch": 41, "duration": 17, "velocity": 86}, {"time": 1832, "pitch": 48, "duration": 10, "velocity": 93}, {"time": 1835, "pitch": 53, "duration": 3, "velocity": 97}, {"time": 1838, "pitch": 56, "duration": 2, "velocity": 112}, {"time": 1841, "pitch": 60, "duration": 11, "velocity": 107}, {"time": 1844, "pitch": 48, "duration": 3, "velocity": 96}, {"time": 1847, "pitch": 56, "duration": 5, "velocity": 122}, {"time": 1850, "pitch": 53, "duration": 2, "velocity": 100}, {"time": 1853, "pitch": 44, "duration": 16, "velocity": 122}, {"time": 1856, "pitch": 51, "duration": 5, "velocity": 61}, {"time": 1859, "pitch": 56, "duration": 7, "velocity": 112}, {"time": 1862, "pitch": 51, "duration": 4, "velocity": 89}, {"time": 1865, "pitch": 63, "duration": 12, "velocity": 127}, {"time": 1868, "pitch": 51, "duration": 1, "velocity": 89}, {"time": 1871, "pitch": 56, "duration": 6, "velocity": 97}, {"time": 1874, "pitch": 60, "duration": 3, "velocity": 79}, {"time": 1877, "pitch": 39, "duration": 17, "velocity": 68}, {"time": 1880, "pitch": 46, "duration": 14, "velocity": 69}, {"time": 1883, "pitch": 51, "duration": 7, "velocity": 99}, {"time": 1886, "pitch": 55, "duration": 4, "velocity": 93}, {"time": 1889, "pitch": 63, "duration": 10, "velocity": 127}, {"time": 1892, "pitch": 51, "duration": 2, "velocity": 100}, {"time": 1895, "pitch": 58, "duration": 5, "velocity": 127}, {"time": 1898, "pitch": 55, "duration": 3, "velocity": 112}, {"time": 1901, "pitch": 41, "duration": 20, "velocity": 90}, {"time": 1904, "pitch": 48, "duration": 10, "velocity": 99}, {"time": 1907, "pitch": 53, "duration": 4, "velocity": 95}, {"time": 1910, "pitch": 60, "duration": 13, "velocity": 127}, {"time": 1913, "pitch": 56, "duration": 6, "velocity": 117}, {"time": 1916, "pitch": 48, "duration": 6, "velocity": 102}, {"time": 1919, "pitch": 53, "duration": 7, "velocity": 99}, {"time": 1922, "pitch": 56, "duration": 4, "velocity": 117}, {"time": 1925, "pitch": 46, "duration": 22, "velocity": 127}, {"time": 1928, "pitch": 53, "duration": 4, "velocity": 88}, {"time": 1931, "pitch": 61, "duration": 17, "velocity": 127}, {"time": 1934, "pitch": 53, "duration": 3, "velocity": 89}, {"time": 1937, "pitch": 58, "duration": 3, "velocity": 127}, {"time": 1940, "pitch": 53, "duration": 4, "velocity": 58}, {"time": 1943, "pitch": 58, "duration": 5, "velocity": 127}, {"time": 1946, "pitch": 53, "duration": 2, "velocity": 95}, {"time": 1949, "pitch": 36, "duration": 9, "velocity": 89}, {"time": 1952, "pitch": 43, "duration": 6, "velocity": 96}, {"time": 1955, "pitch": 48, "duration": 6, "velocity": 112}, {"time": 1958, "pitch": 63, "duration": 3, "velocity": 127}, {"time": 1961, "pitch": 41, "duration": 9, "velocity": 76}, {"time": 1964, "pitch": 48, "duration": 5, "velocity": 99}, {"time": 1967, "pitch": 60, "duration": 6, "velocity": 117}, {"time": 1970, "pitch": 56, "duration": 3, "velocity": 127}, {"time": 1973, "pitch": 37, "duration": 11, "velocity": 99}, {"time": 1976, "pitch": 49, "duration": 4, "velocity": 100}, {"time": 1979, "pitch": 53, "duration": 5, "velocity": 102}, {"time": 1982, "pitch": 56, "duration": 1, "velocity": 127}, {"time": 1985, "pitch": 39, "duration": 6, "velocity": 112}, {"time": 1988, "pitch": 51, "duration": 4, "velocity": 95}, {"time": 1991, "pitch": 58, "duration": 5, "velocity": 127}, {"time": 1994, "pitch": 51, "duration": 2, "velocity": 117}, {"time": 1997, "pitch": 41, "duration": 24, "velocity": 88}, {"time": 2000, "pitch": 48, "duration": 10, "velocity": 90}, {"time": 2003, "pitch": 53, "duration": 4, "velocity": 97}, {"time": 2006, "pitch": 56, "duration": 3, "velocity": 122}, {"time": 2009, "pitch": 60, "duration": 12, "velocity": 107}, {"time": 2012, "pitch": 48, "duration": 7, "velocity": 97}, {"time": 2015, "pitch": 56, "duration": 6, "velocity": 112}, {"time": 2018, "pitch": 53, "duration": 4, "velocity": 75}, {"time": 2021, "pitch": 41, "duration": 1, "velocity": 57}, {"time": 2021, "pitch": 48, "duration": 10, "velocity": 70}, {"time": 2021, "pitch": 53, "duration": 1, "velocity": 92}, {"time": 2021, "pitch": 56, "duration": 1, "velocity": 107}, {"time": 2021, "pitch": 60, "duration": 1, "velocity": 92}, {"time": 2021, "pitch": 77, "duration": 21, "velocity": 73}, {"time": 2021, "pitch": 80, "duration": 21, "velocity": 76}, {"time": 2021, "pitch": 84, "duration": 20, "velocity": 79}, {"time": 2021, "pitch": 89, "duration": 20, "velocity": 79}, {"time": 2045, "pitch": 41, "duration": 19, "velocity": 83}, {"time": 2048, "pitch": 48, "duration": 17, "velocity": 107}, {"time": 2051, "pitch": 53, "duration": 5, "velocity": 102}, {"time": 2054, "pitch": 56, "duration": 4, "velocity": 112}, {"time": 2057, "pitch": 65, "duration": 11, "velocity": 92}, {"time": 2060, "pitch": 56, "duration": 4, "velocity": 117}, {"time": 2063, "pitch": 60, "duration": 5, "velocity": 72}, {"time": 2066, "pitch": 56, "duration": 3, "velocity": 127}, {"time": 2069, "pitch": 44, "duration": 18, "velocity": 100}, {"time": 2072, "pitch": 56, "duration": 4, "velocity": 90}, {"time": 2075, "pitch": 60, "duration": 5, "velocity": 64}, {"time": 2078, "pitch": 56, "duration": 3, "velocity": 99}, {"time": 2081, "pitch": 60, "duration": 8, "velocity": 92}, {"time": 2081, "pitch": 63, "duration": 6, "velocity": 127}, {"time": 2084, "pitch": 51, "duration": 2, "velocity": 96}, {"time": 2087, "pitch": 56, "duration": 5, "velocity": 112}, {"time": 2090, "pitch": 60, "duration": 2, "velocity": 78}, {"time": 2090, "pitch": 63, "duration": 2, "velocity": 127}, {"time": 2093, "pitch": 39, "duration": 18, "velocity": 112}, {"time": 2096, "pitch": 51, "duration": 14, "velocity": 95}, {"time": 2099, "pitch": 55, "duration": 6, "velocity": 112}, {"time": 2102, "pitch": 58, "duration": 4, "velocity": 127}, {"time": 2105, "pitch": 63, "duration": 10, "velocity": 127}, {"time": 2108, "pitch": 46, "duration": 4, "velocity": 77}, {"time": 2111, "pitch": 58, "duration": 5, "velocity": 127}, {"time": 2114, "pitch": 55, "duration": 3, "velocity": 100}, {"time": 2117, "pitch": 41, "duration": 19, "velocity": 86}, {"time": 2120, "pitch": 48, "duration": 10, "velocity": 78}, {"time": 2123, "pitch": 53, "duration": 5, "velocity": 97}, {"time": 2126, "pitch": 56, "duration": 4, "velocity": 86}, {"time": 2129, "pitch": 65, "duration": 11, "velocity": 100}, {"time": 2132, "pitch": 48, "duration": 4, "velocity": 122}, {"time": 2135, "pitch": 56, "duration": 6, "velocity": 112}, {"time": 2138, "pitch": 60, "duration": 2, "velocity": 66}, {"time": 2141, "pitch": 34, "duration": 16, "velocity": 112}, {"time": 2144, "pitch": 41, "duration": 13, "velocity": 36}, {"time": 2147, "pitch": 46, "duration": 7, "velocity": 102}, {"time": 2150, "pitch": 53, "duration": 3, "velocity": 89}, {"time": 2153, "pitch": 58, "duration": 6, "velocity": 122}, {"time": 2153, "pitch": 61, "duration": 11, "velocity": 127}, {"time": 2156, "pitch": 46, "duration": 2, "velocity": 112}, {"time": 2159, "pitch": 53, "duration": 6, "velocity": 100}, {"time": 2162, "pitch": 58, "duration": 3, "velocity": 127}, {"time": 2165, "pitch": 41, "duration": 17, "velocity": 83}, {"time": 2168, "pitch": 48, "duration": 11, "velocity": 71}, {"time": 2171, "pitch": 53, "duration": 4, "velocity": 95}, {"time": 2174, "pitch": 56, "duration": 4, "velocity": 83}, {"time": 2177, "pitch": 60, "duration": 6, "velocity": 72}, {"time": 2177, "pitch": 65, "duration": 10, "velocity": 93}, {"time": 2180, "pitch": 48, "duration": 1, "velocity": 96}, {"time": 2183, "pitch": 56, "duration": 4, "velocity": 112}, {"time": 2186, "pitch": 60, "duration": 1, "velocity": 66}, {"time": 2189, "pitch": 37, "duration": 12, "velocity": 122}, {"time": 2192, "pitch": 53, "duration": 3, "velocity": 79}, {"time": 2195, "pitch": 61, "duration": 4, "velocity": 117}, {"time": 2198, "pitch": 53, "duration": 2, "velocity": 97}, {"time": 2201, "pitch": 39, "duration": 8, "velocity": 122}, {"time": 2204, "pitch": 51, "duration": 4, "velocity": 89}, {"time": 2207, "pitch": 58, "duration": 4, "velocity": 107}, {"time": 2210, "pitch": 51, "duration": 1, "velocity": 122}, {"time": 2213, "pitch": 44, "duration": 11, "velocity": 122}, {"time": 2216, "pitch": 56, "duration": 4, "velocity": 112}, {"time": 2219, "pitch": 63, "duration": 4, "velocity": 127}, {"time": 2222, "pitch": 56, "duration": 1, "velocity": 56}, {"time": 2225, "pitch": 48, "duration": 8, "velocity": 96}, {"time": 2225, "pitch": 55, "duration": 2, "velocity": 102}, {"time": 2225, "pitch": 60, "duration": 6, "velocity": 100}, {"time": 2225, "pitch": 64, "duration": 12, "velocity": 100}, {"time": 2231, "pitch": 55, "duration": 5, "velocity": 102}, {"time": 2234, "pitch": 60, "duration": 3, "velocity": 112}, {"time": 2237, "pitch": 41, "duration": 17, "velocity": 86}, {"time": 2240, "pitch": 48, "duration": 10, "velocity": 93}, {"time": 2243, "pitch": 53, "duration": 3, "velocity": 97}, {"time": 2246, "pitch": 56, "duration": 2, "velocity": 112}, {"time": 2249, "pitch": 60, "duration": 11, "velocity": 107}, {"time": 2252, "pitch": 48, "duration": 3, "velocity": 96}, {"time": 2255, "pitch": 56, "duration": 5, "velocity": 122}, {"time": 2258, "pitch": 53, "duration": 2, "velocity": 100}, {"time": 2261, "pitch": 44, "duration": 16, "velocity": 122}, {"time": 2264, "pitch": 51, "duration": 5, "velocity": 61}, {"time": 2267, "pitch": 56, "duration": 7, "velocity": 112}, {"time": 2270, "pitch": 51, "duration": 4, "velocity": 89}, {"time": 2273, "pitch": 63, "duration": 12, "velocity": 127}, {"time": 2276, "pitch": 51, "duration": 1, "velocity": 89}, {"time": 2279, "pitch": 56, "duration": 6, "velocity": 97}, {"time": 2282, "pitch": 60, "duration": 3, "velocity": 79}, {"time": 2285, "pitch": 39, "duration": 17, "velocity": 68}, {"time": 2288, "pitch": 46, "duration": 14, "velocity": 69}, {"time": 2291, "pitch": 51, "duration": 7, "velocity": 99}, {"time": 2294, "pitch": 55, "duration": 4, "velocity": 93}, {"time": 2297, "pitch": 63, "duration": 10, "velocity": 127}, {"time": 2300, "pitch": 51, "duration": 2, "velocity": 100}, {"time": 2303, "pitch": 58, "duration": 5, "velocity": 127}, {"time": 2306, "pitch": 55, "duration": 3, "velocity": 112}, {"time": 2309, "pitch": 41, "duration": 20, "velocity": 90}, {"time": 2312, "pitch": 48, "duration": 10, "velocity": 99}, {"time": 2315, "pitch": 53, "duration": 4, "velocity": 95}, {"time": 2318, "pitch": 60, "duration": 13, "velocity": 127}, {"time": 2321, "pitch": 56, "duration": 6, "velocity": 117}, {"time": 2324, "pitch": 48, "duration": 6, "velocity": 102}, {"time": 2327, "pitch": 53, "duration": 7, "velocity": 99}, {"time": 2330, "pitch": 56, "duration": 4, "velocity": 117}, {"time": 2333, "pitch": 46, "duration": 22, "velocity": 127}, {"time": 2336, "pitch": 53, "duration": 4, "velocity": 88}, {"time": 2339, "pitch": 61, "duration": 17, "velocity": 127}, {"time": 2342, "pitch": 53, "duration": 3, "velocity": 89}, {"time": 2345, "pitch": 58, "duration": 3, "velocity": 127}, {"time": 2348, "pitch": 53, "duration": 4, "velocity": 58}, {"time": 2351, "pitch": 58, "duration": 5, "velocity": 127}, {"time": 2354, "pitch": 53, "duration": 2, "velocity": 95}, {"time": 2357, "pitch": 36, "duration": 9, "velocity": 89}, {"time": 2360, "pitch": 43, "duration": 6, "velocity": 96}, {"time": 2363, "pitch": 48, "duration": 6, "velocity": 112}, {"time": 2366, "pitch": 63, "duration": 3, "velocity": 127}, {"time": 2369, "pitch": 41, "duration": 9, "velocity": 76}, {"time": 2372, "pitch": 48, "duration": 5, "velocity": 99}, {"time": 2375, "pitch": 60, "duration": 6, "velocity": 117}, {"time": 2378, "pitch": 56, "duration": 3, "velocity": 127}, {"time": 2381, "pitch": 37, "duration": 11, "velocity": 99}, {"time": 2384, "pitch": 49, "duration": 4, "velocity": 100}, {"time": 2387, "pitch": 53, "duration": 5, "velocity": 102}, {"time": 2390, "pitch": 56, "duration": 1, "velocity": 127}, {"time": 2393, "pitch": 39, "duration": 6, "velocity": 112}, {"time": 2396, "pitch": 51, "duration": 4, "velocity": 95}, {"time": 2399, "pitch": 58, "duration": 5, "velocity": 127}, {"time": 2402, "pitch": 51, "duration": 2, "velocity": 117}, {"time": 2405, "pitch": 41, "duration": 24, "velocity": 88}, {"time": 2408, "pitch": 48, "duration": 10, "velocity": 90}, {"time": 2411, "pitch": 53, "duration": 4, "velocity": 97}, {"time": 2414, "pitch": 56, "duration": 3, "velocity": 122}, {"time": 2417, "pitch": 60, "duration": 12, "velocity": 107}, {"time": 2420, "pitch": 48, "duration": 7, "velocity": 97}, {"time": 2423, "pitch": 56, "duration": 6, "velocity": 112}, {"time": 2426, "pitch": 53, "duration": 4, "velocity": 75}, {"time": 2429, "pitch": 46, "duration": 17, "velocity": 100}, {"time": 2432, "pitch": 53, "duration": 10, "velocity": 56}, {"time": 2435, "pitch": 58, "duration": 7, "velocity": 90}, {"time": 2438, "pitch": 61, "duration": 7, "velocity": 97}, {"time": 2441, "pitch": 65, "duration": 11, "velocity": 82}, {"time": 2444, "pitch": 53, "duration": 2, "velocity": 83}, {"time": 2447, "pitch": 58, "duration": 5, "velocity": 99}, {"time": 2450, "pitch": 61, "duration": 2, "velocity": 95}, {"time": 2453, "pitch": 48, "duration": 12, "velocity": 112}, {"time": 2456, "pitch": 55, "duration": 9, "velocity": 72}, {"time": 2459, "pitch": 60, "duration": 6, "velocity": 102}, {"time": 2462, "pitch": 63, "duration": 3, "velocity": 127}, {"time": 2465, "pitch": 41, "duration": 7, "velocity": 82}, {"time": 2468, "pitch": 48, "duration": 3, "velocity": 107}, {"time": 2471, "pitch": 56, "duration": 6, "velocity": 117}, {"time": 2471, "pitch": 60, "duration": 5, "velocity": 99}, {"time": 2474, "pitch": 53, "duration": 3, "velocity": 74}, {"time": 2477, "pitch": 39, "duration": 21, "velocity": 83}, {"time": 2480, "pitch": 46, "duration": 19, "velocity": 86}, {"time": 2483, "pitch": 51, "duration": 16, "velocity": 96}, {"time": 2486, "pitch": 55, "duration": 4, "velocity": 69}, {"time": 2489, "pitch": 63, "duration": 8, "velocity": 127}, {"time": 2492, "pitch": 58, "duration": 6, "velocity": 112}, {"time": 2498, "pitch": 55, "duration": 36, "velocity": 93}, {"time": 2501, "pitch": 39, "duration": 31, "velocity": 79}, {"time": 2501, "pitch": 46, "duration": 30, "velocity": 61}, {"time": 2501, "pitch": 51, "duration": 27, "velocity": 66}, {"time": 2501, "pitch": 58, "duration": 32, "velocity": 92}, {"time": 2501, "pitch": 63, "duration": 33, "velocity": 112}, {"time": 2537, "pitch": 68, "duration": 6, "velocity": 69}, {"time": 2537, "pitch": 72, "duration": 6, "velocity": 71}, {"time": 2538, "pitch": 65, "duration": 6, "velocity": 49}, {"time": 2549, "pitch": 41, "duration": 14, "velocity": 82}, {"time": 2552, "pitch": 48, "duration": 11, "velocity": 44}, {"time": 2554, "pitch": 53, "duration": 8, "velocity": 66}, {"time": 2557, "pitch": 60, "duration": 5, "velocity": 53}, {"time": 2561, "pitch": 68, "duration": 11, "velocity": 117}, {"time": 2572, "pitch": 44, "duration": 16, "velocity": 92}, {"time": 2575, "pitch": 56, "duration": 10, "velocity": 55}, {"time": 2578, "pitch": 60, "duration": 7, "velocity": 58}, {"time": 2581, "pitch": 63, "duration": 3, "velocity": 56}, {"time": 2584, "pitch": 68, "duration": 13, "velocity": 112}, {"time": 2587, "pitch": 56, "duration": 1, "velocity": 50}, {"time": 2591, "pitch": 63, "duration": 6, "velocity": 43}, {"time": 2596, "pitch": 39, "duration": 18, "velocity": 76}, {"time": 2600, "pitch": 46, "duration": 14, "velocity": 50}, {"time": 2602, "pitch": 51, "duration": 8, "velocity": 72}, {"time": 2605, "pitch": 55, "duration": 5, "velocity": 70}, {"time": 2608, "pitch": 63, "duration": 12, "velocity": 127}, {"time": 2611, "pitch": 51, "duration": 2, "velocity": 76}, {"time": 2614, "pitch": 58, "duration": 7, "velocity": 64}, {"time": 2617, "pitch": 55, "duration": 4, "velocity": 51}, {"time": 2620, "pitch": 41, "duration": 18, "velocity": 66}, {"time": 2623, "pitch": 48, "duration": 10, "velocity": 49}, {"time": 2627, "pitch": 53, "duration": 5, "velocity": 55}, {"time": 2629, "pitch": 56, "duration": 4, "velocity": 58}, {"time": 2632, "pitch": 60, "duration": 12, "velocity": 88}, {"time": 2635, "pitch": 48, "duration": 3, "velocity": 67}, {"time": 2638, "pitch": 56, "duration": 6, "velocity": 63}, {"time": 2644, "pitch": 46, "duration": 18, "velocity": 96}, {"time": 2648, "pitch": 53, "duration": 4, "velocity": 66}, {"time": 2651, "pitch": 58, "duration": 4, "velocity": 90}, {"time": 2654, "pitch": 53, "duration": 3, "velocity": 53}, {"time": 2656, "pitch": 61, "duration": 14, "velocity": 122}, {"time": 2668, "pitch": 41, "duration": 16, "velocity": 81}, {"time": 2671, "pitch": 48, "duration": 11, "velocity": 48}, {"time": 2675, "pitch": 53, "duration": 6, "velocity": 78}, {"time": 2677, "pitch": 56, "duration": 4, "velocity": 68}, {"time": 2680, "pitch": 60, "duration": 11, "velocity": 95}, {"time": 2692, "pitch": 39, "duration": 27, "velocity": 97}, {"time": 2695, "pitch": 51, "duration": 45, "velocity": 71}, {"time": 2699, "pitch": 55, "duration": 8, "velocity": 72}, {"time": 2702, "pitch": 58, "duration": 42, "velocity": 82}, {"time": 2706, "pitch": 63, "duration": 38, "velocity": 102}, {"time": 2753, "pitch": 41, "duration": 75, "velocity": 74}, {"time": 2757, "pitch": 48, "duration": 68, "velocity": 74}, {"time": 2760, "pitch": 53, "duration": 66, "velocity": 93}, {"time": 2762, "pitch": 56, "duration": 3, "velocity": 89}, {"time": 2764, "pitch": 60, "duration": 1, "velocity": 86}, {"time": 2767, "pitch": 65, "duration": 4, "velocity": 69}, {"time": 2770, "pitch": 68, "duration": 3, "velocity": 64}, {"time": 2772, "pitch": 72, "duration": 2, "velocity": 79}, {"time": 2775, "pitch": 77, "duration": 4, "velocity": 88}, {"time": 2778, "pitch": 80, "duration": 4, "velocity": 102}, {"time": 2782, "pitch": 84, "duration": 1, "velocity": 93}, {"time": 2785, "pitch": 89, "duration": 40, "velocity": 86}, {"time": 2790, "pitch": 92, "duration": 36, "velocity": 89}, {"time": 2795, "pitch": 96, "duration": 31, "velocity": 81}, {"time": 2809, "pitch": 101, "duration": 31, "velocity": 34}], "annotations": [{"time": 29, "annotation": {"number": 64, "value": 127}, "group": "control_change"}, {"time": 52, "annotation": {"number": 64, "value": 0}, "group": "control_change"}, {"time": 52, "annotation": {"number": 64, "value": 127}, "group": "control_change"}, {"time": 75, "annotation": {"number": 64, "value": 0}, "group": "control_change"}, {"time": 77, "annotation": {"number": 64, "value": 127}, "group": "control_change"}, {"time": 99, "annotation": {"number": 64, "value": 0}, "group": "control_change"}, {"time": 102, "annotation": {"number": 64, "value": 127}, "group": "control_change"}, {"time": 123, "annotation": {"number": 64, "value": 0}, "group": "control_change"}, {"time": 125, "annotation": {"number": 64, "value": 127}, "group": "control_change"}, {"time": 146, "annotation": {"number": 64, "value": 0}, "group": "control_change"}, {"time": 149, "annotation": {"number": 64, "value": 127}, "group": "control_change"}, {"time": 171, "annotation": {"number": 64, "value": 0}, "group": "control_change"}, {"time": 173, "annotation": {"number": 64, "value": 127}, "group": "control_change"}, {"time": 194, "annotation": {"number": 64, "value": 0}, "group": "control_change"}, {"time": 197, "annotation": {"number": 64, "value": 127}, "group": "control_change"}, {"time": 219, "annotation": {"number": 64, "value": 0}, "group": "control_change"}, {"time": 221, "annotation": {"number": 64, "value": 127}, "group": "control_change"}, {"time": 243, "annotation": {"number": 64, "value": 0}, "group": "control_change"}, {"time": 245, "annotation": {"number": 64, "value": 127}, "group": "control_change"}, {"time": 267, "annotation": {"number": 64, "value": 0}, "group": "control_change"}, {"time": 268, "annotation": {"number": 64, "value": 127}, "group": "control_change"}, {"time": 291, "annotation": {"number": 64, "value": 0}, "group": "control_change"}, {"time": 293, "annotation": {"number": 64, "value": 127}, "group": "control_change"}, {"time": 315, "annotation": {"number": 64, "value": 0}, "group": "control_change"}, {"time": 317, "annotation": {"number": 64, "value": 127}, "group": "control_change"}, {"time": 339, "annotation": {"number": 64, "value": 0}, "group": "control_change"}, {"time": 340, "annotation": {"number": 64, "value": 127}, "group": "control_change"}, {"time": 363, "annotation": {"number": 64, "value": 0}, "group": "control_change"}, {"time": 365, "annotation": {"number": 64, "value": 127}, "group": "control_change"}, {"time": 387, "annotation": {"number": 64, "value": 0}, "group": "control_change"}, {"time": 389, "annotation": {"number": 64, "value": 127}, "group": "control_change"}, {"time": 412, "annotation": {"number": 64, "value": 0}, "group": "control_change"}, {"time": 413, "annotation": {"number": 64, "value": 127}, "group": "control_change"}, {"time": 435, "annotation": {"number": 64, "value": 0}, "group": "control_change"}, {"time": 437, "annotation": {"number": 64, "value": 127}, "group": "control_change"}, {"time": 459, "annotation": {"number": 64, "value": 0}, "group": "control_change"}, {"time": 461, "annotation": {"number": 64, "value": 127}, "group": "control_change"}, {"time": 472, "annotation": {"number": 64, "value": 0}, "group": "control_change"}, {"time": 474, "annotation": {"number": 64, "value": 127}, "group": "control_change"}, {"time": 483, "annotation": {"number": 64, "value": 0}, "group": "control_change"}, {"time": 486, "annotation": {"number": 64, "value": 127}, "group": "control_change"}, {"time": 496, "annotation": {"number": 64, "value": 0}, "group": "control_change"}, {"time": 500, "annotation": {"number": 64, "value": 127}, "group": "control_change"}, {"time": 508, "annotation": {"number": 64, "value": 0}, "group": "control_change"}, {"time": 509, "annotation": {"number": 64, "value": 127}, "group": "control_change"}, {"time": 531, "annotation": {"number": 64, "value": 0}, "group": "control_change"}, {"time": 533, "annotation": {"number": 64, "value": 127}, "group": "control_change"}, {"time": 554, "annotation": {"number": 64, "value": 0}, "group": "control_change"}, {"time": 556, "annotation": {"number": 64, "value": 127}, "group": "control_change"}, {"time": 568, "annotation": {"number": 64, "value": 0}, "group": "control_change"}, {"time": 570, "annotation": {"number": 64, "value": 127}, "group": "control_change"}, {"time": 579, "annotation": {"number": 64, "value": 0}, "group": "control_change"}, {"time": 581, "annotation": {"number": 64, "value": 127}, "group": "control_change"}, {"time": 604, "annotation": {"number": 64, "value": 0}, "group": "control_change"}, {"time": 629, "annotation": {"number": 64, "value": 127}, "group": "control_change"}, {"time": 634, "annotation": {"number": 64, "value": 0}, "group": "control_change"}, {"time": 653, "annotation": {"number": 64, "value": 127}, "group": "control_change"}, {"time": 675, "annotation": {"number": 64, "value": 0}, "group": "control_change"}, {"time": 676, "annotation": {"number": 64, "value": 127}, "group": "control_change"}, {"time": 699, "annotation": {"number": 64, "value": 0}, "group": "control_change"}, {"time": 700, "annotation": {"number": 64, "value": 127}, "group": "control_change"}, {"time": 723, "annotation": {"number": 64, "value": 0}, "group": "control_change"}, {"time": 725, "annotation": {"number": 64, "value": 127}, "group": "control_change"}, {"time": 735, "annotation": {"number": 64, "value": 0}, "group": "control_change"}, {"time": 737, "annotation": {"number": 64, "value": 127}, "group": "control_change"}, {"time": 747, "annotation": {"number": 64, "value": 0}, "group": "control_change"}, {"time": 749, "annotation": {"number": 64, "value": 127}, "group": "control_change"}, {"time": 771, "annotation": {"number": 64, "value": 0}, "group": "control_change"}, {"time": 773, "annotation": {"number": 64, "value": 127}, "group": "control_change"}, {"time": 808, "annotation": {"number": 64, "value": 0}, "group": "control_change"}, {"time": 810, "annotation": {"number": 64, "value": 127}, "group": "control_change"}, {"time": 821, "annotation": {"number": 64, "value": 0}, "group": "control_change"}, {"time": 823, "annotation": {"number": 64, "value": 127}, "group": "control_change"}, {"time": 832, "annotation": {"number": 64, "value": 0}, "group": "control_change"}, {"time": 835, "annotation": {"number": 64, "value": 127}, "group": "control_change"}, {"time": 843, "annotation": {"number": 64, "value": 0}, "group": "control_change"}, {"time": 845, "annotation": {"number": 64, "value": 127}, "group": "control_change"}, {"time": 867, "annotation": {"number": 64, "value": 0}, "group": "control_change"}, {"time": 869, "annotation": {"number": 64, "value": 127}, "group": "control_change"}, {"time": 891, "annotation": {"number": 64, "value": 0}, "group": "control_change"}, {"time": 893, "annotation": {"number": 64, "value": 127}, "group": "control_change"}, {"time": 915, "annotation": {"number": 64, "value": 0}, "group": "control_change"}, {"time": 917, "annotation": {"number": 64, "value": 127}, "group": "control_change"}, {"time": 939, "annotation": {"number": 64, "value": 0}, "group": "control_change"}, {"time": 941, "annotation": {"number": 64, "value": 127}, "group": "control_change"}, {"time": 963, "annotation": {"number": 64, "value": 0}, "group": "control_change"}, {"time": 964, "annotation": {"number": 64, "value": 127}, "group": "control_change"}, {"time": 975, "annotation": {"number": 64, "value": 0}, "group": "control_change"}, {"time": 978, "annotation": {"number": 64, "value": 127}, "group": "control_change"}, {"time": 987, "annotation": {"number": 64, "value": 0}, "group": "control_change"}, {"time": 989, "annotation": {"number": 64, "value": 127}, "group": "control_change"}, {"time": 999, "annotation": {"number": 64, "value": 0}, "group": "control_change"}, {"time": 1002, "annotation": {"number": 64, "value": 127}, "group": "control_change"}, {"time": 1011, "annotation": {"number": 64, "value": 0}, "group": "control_change"}, {"time": 1013, "annotation": {"number": 64, "value": 127}, "group": "control_change"}, {"time": 1034, "annotation": {"number": 64, "value": 0}, "group": "control_change"}, {"time": 1037, "annotation": {"number": 64, "value": 127}, "group": "control_change"}, {"time": 1060, "annotation": {"number": 64, "value": 0}, "group": "control_change"}, {"time": 1061, "annotation": {"number": 64, "value": 127}, "group": "control_change"}, {"time": 1083, "annotation": {"number": 64, "value": 0}, "group": "control_change"}, {"time": 1085, "annotation": {"number": 64, "value": 127}, "group": "control_change"}, {"time": 1108, "annotation": {"number": 64, "value": 0}, "group": "control_change"}, {"time": 1110, "annotation": {"number": 64, "value": 127}, "group": "control_change"}, {"time": 1131, "annotation": {"number": 64, "value": 0}, "group": "control_change"}, {"time": 1133, "annotation": {"number": 64, "value": 127}, "group": "control_change"}, {"time": 1154, "annotation": {"number": 64, "value": 0}, "group": "control_change"}, {"time": 1157, "annotation": {"number": 64, "value": 127}, "group": "control_change"}, {"time": 1179, "annotation": {"number": 64, "value": 0}, "group": "control_change"}, {"time": 1181, "annotation": {"number": 64, "value": 127}, "group": "control_change"}, {"time": 1202, "annotation": {"number": 64, "value": 0}, "group": "control_change"}, {"time": 1205, "annotation": {"number": 64, "value": 127}, "group": "control_change"}, {"time": 1228, "annotation": {"number": 64, "value": 0}, "group": "control_change"}, {"time": 1229, "annotation": {"number": 64, "value": 127}, "group": "control_change"}, {"time": 1251, "annotation": {"number": 64, "value": 0}, "group": "control_change"}, {"time": 1253, "annotation": {"number": 64, "value": 127}, "group": "control_change"}, {"time": 1275, "annotation": {"number": 64, "value": 0}, "group": "control_change"}, {"time": 1277, "annotation": {"number": 64, "value": 127}, "group": "control_change"}, {"time": 1299, "annotation": {"number": 64, "value": 0}, "group": "control_change"}, {"time": 1301, "annotation": {"number": 64, "value": 127}, "group": "control_change"}, {"time": 1323, "annotation": {"number": 64, "value": 0}, "group": "control_change"}, {"time": 1325, "annotation": {"number": 64, "value": 127}, "group": "control_change"}, {"time": 1347, "annotation": {"number": 64, "value": 0}, "group": "control_change"}, {"time": 1348, "annotation": {"number": 64, "value": 127}, "group": "control_change"}, {"time": 1371, "annotation": {"number": 64, "value": 0}, "group": "control_change"}, {"time": 1373, "annotation": {"number": 64, "value": 127}, "group": "control_change"}, {"time": 1395, "annotation": {"number": 64, "value": 0}, "group": "control_change"}, {"time": 1397, "annotation": {"number": 64, "value": 127}, "group": "control_change"}, {"time": 1420, "annotation": {"number": 64, "value": 0}, "group": "control_change"}, {"time": 1421, "annotation": {"number": 64, "value": 127}, "group": "control_change"}, {"time": 1443, "annotation": {"number": 64, "value": 0}, "group": "control_change"}, {"time": 1445, "annotation": {"number": 64, "value": 127}, "group": "control_change"}, {"time": 1467, "annotation": {"number": 64, "value": 0}, "group": "control_change"}, {"time": 1469, "annotation": {"number": 64, "value": 127}, "group": "control_change"}, {"time": 1480, "annotation": {"number": 64, "value": 0}, "group": "control_change"}, {"time": 1482, "annotation": {"number": 64, "value": 127}, "group": "control_change"}, {"time": 1491, "annotation": {"number": 64, "value": 0}, "group": "control_change"}, {"time": 1494, "annotation": {"number": 64, "value": 127}, "group": "control_change"}, {"time": 1504, "annotation": {"number": 64, "value": 0}, "group": "control_change"}, {"time": 1508, "annotation": {"number": 64, "value": 127}, "group": "control_change"}, {"time": 1516, "annotation": {"number": 64, "value": 0}, "group": "control_change"}, {"time": 1518, "annotation": {"number": 64, "value": 127}, "group": "control_change"}, {"time": 1539, "annotation": {"number": 64, "value": 0}, "group": "control_change"}, {"time": 1541, "annotation": {"number": 64, "value": 127}, "group": "control_change"}, {"time": 1563, "annotation": {"number": 64, "value": 0}, "group": "control_change"}, {"time": 1564, "annotation": {"number": 64, "value": 127}, "group": "control_change"}, {"time": 1576, "annotation": {"number": 64, "value": 0}, "group": "control_change"}, {"time": 1578, "annotation": {"number": 64, "value": 127}, "group": "control_change"}, {"time": 1587, "annotation": {"number": 64, "value": 0}, "group": "control_change"}, {"time": 1595, "annotation": {"number": 64, "value": 127}, "group": "control_change"}, {"time": 1612, "annotation": {"number": 64, "value": 0}, "group": "control_change"}, {"time": 1637, "annotation": {"number": 64, "value": 127}, "group": "control_change"}, {"time": 1659, "annotation": {"number": 64, "value": 0}, "group": "control_change"}, {"time": 1660, "annotation": {"number": 64, "value": 127}, "group": "control_change"}, {"time": 1683, "annotation": {"number": 64, "value": 0}, "group": "control_change"}, {"time": 1684, "annotation": {"number": 64, "value": 127}, "group": "control_change"}, {"time": 1707, "annotation": {"number": 64, "value": 0}, "group": "control_change"}, {"time": 1709, "annotation": {"number": 64, "value": 127}, "group": "control_change"}, {"time": 1720, "annotation": {"number": 64, "value": 0}, "group": "control_change"}, {"time": 1721, "annotation": {"number": 64, "value": 127}, "group": "control_change"}, {"time": 1731, "annotation": {"number": 64, "value": 0}, "group": "control_change"}, {"time": 1733, "annotation": {"number": 64, "value": 127}, "group": "control_change"}, {"time": 1734, "annotation": {"number": 64, "value": 127}, "group": "control_change"}, {"time": 1755, "annotation": {"number": 64, "value": 0}, "group": "control_change"}, {"time": 1757, "annotation": {"number": 64, "value": 127}, "group": "control_change"}, {"time": 1792, "annotation": {"number": 64, "value": 0}, "group": "control_change"}, {"time": 1794, "annotation": {"number": 64, "value": 127}, "group": "control_change"}, {"time": 1805, "annotation": {"number": 64, "value": 0}, "group": "control_change"}, {"time": 1807, "annotation": {"number": 64, "value": 127}, "group": "control_change"}, {"time": 1816, "annotation": {"number": 64, "value": 0}, "group": "control_change"}, {"time": 1819, "annotation": {"number": 64, "value": 127}, "group": "control_change"}, {"time": 1827, "annotation": {"number": 64, "value": 0}, "group": "control_change"}, {"time": 1829, "annotation": {"number": 64, "value": 127}, "group": "control_change"}, {"time": 1851, "annotation": {"number": 64, "value": 0}, "group": "control_change"}, {"time": 1853, "annotation": {"number": 64, "value": 127}, "group": "control_change"}, {"time": 1876, "annotation": {"number": 64, "value": 0}, "group": "control_change"}, {"time": 1877, "annotation": {"number": 64, "value": 127}, "group": "control_change"}, {"time": 1900, "annotation": {"number": 64, "value": 0}, "group": "control_change"}, {"time": 1901, "annotation": {"number": 64, "value": 127}, "group": "control_change"}, {"time": 1923, "annotation": {"number": 64, "value": 0}, "group": "control_change"}, {"time": 1925, "annotation": {"number": 64, "value": 127}, "group": "control_change"}, {"time": 1947, "annotation": {"number": 64, "value": 0}, "group": "control_change"}, {"time": 1948, "annotation": {"number": 64, "value": 127}, "group": "control_change"}, {"time": 1959, "annotation": {"number": 64, "value": 0}, "group": "control_change"}, {"time": 1962, "annotation": {"number": 64, "value": 127}, "group": "control_change"}, {"time": 1971, "annotation": {"number": 64, "value": 0}, "group": "control_change"}, {"time": 1973, "annotation": {"number": 64, "value": 127}, "group": "control_change"}, {"time": 1984, "annotation": {"number": 64, "value": 0}, "group": "control_change"}, {"time": 1986, "annotation": {"number": 64, "value": 127}, "group": "control_change"}, {"time": 1995, "annotation": {"number": 64, "value": 0}, "group": "control_change"}, {"time": 1997, "annotation": {"number": 64, "value": 127}, "group": "control_change"}, {"time": 2019, "annotation": {"number": 64, "value": 0}, "group": "control_change"}, {"time": 2023, "annotation": {"number": 64, "value": 127}, "group": "control_change"}, {"time": 2043, "annotation": {"number": 64, "value": 0}, "group": "control_change"}, {"time": 2045, "annotation": {"number": 64, "value": 127}, "group": "control_change"}, {"time": 2067, "annotation": {"number": 64, "value": 0}, "group": "control_change"}, {"time": 2068, "annotation": {"number": 64, "value": 127}, "group": "control_change"}, {"time": 2091, "annotation": {"number": 64, "value": 0}, "group": "control_change"}, {"time": 2092, "annotation": {"number": 64, "value": 127}, "group": "control_change"}, {"time": 2115, "annotation": {"number": 64, "value": 0}, "group": "control_change"}, {"time": 2117, "annotation": {"number": 64, "value": 127}, "group": "control_change"}, {"time": 2128, "annotation": {"number": 64, "value": 0}, "group": "control_change"}, {"time": 2129, "annotation": {"number": 64, "value": 127}, "group": "control_change"}, {"time": 2139, "annotation": {"number": 64, "value": 0}, "group": "control_change"}, {"time": 2141, "annotation": {"number": 64, "value": 127}, "group": "control_change"}, {"time": 2142, "annotation": {"number": 64, "value": 127}, "group": "control_change"}, {"time": 2163, "annotation": {"number": 64, "value": 0}, "group": "control_change"}, {"time": 2165, "annotation": {"number": 64, "value": 127}, "group": "control_change"}, {"time": 2200, "annotation": {"number": 64, "value": 0}, "group": "control_change"}, {"time": 2202, "annotation": {"number": 64, "value": 127}, "group": "control_change"}, {"time": 2213, "annotation": {"number": 64, "value": 0}, "group": "control_change"}, {"time": 2215, "annotation": {"number": 64, "value": 127}, "group": "control_change"}, {"time": 2224, "annotation": {"number": 64, "value": 0}, "group": "control_change"}, {"time": 2227, "annotation": {"number": 64, "value": 127}, "group": "control_change"}, {"time": 2235, "annotation": {"number": 64, "value": 0}, "group": "control_change"}, {"time": 2237, "annotation": {"number": 64, "value": 127}, "group": "control_change"}, {"time": 2259, "annotation": {"number": 64, "value": 0}, "group": "control_change"}, {"time": 2261, "annotation": {"number": 64, "value": 127}, "group": "control_change"}, {"time": 2284, "annotation": {"number": 64, "value": 0}, "group": "control_change"}, {"time": 2285, "annotation": {"number": 64, "value": 127}, "group": "control_change"}, {"time": 2308, "annotation": {"number": 64, "value": 0}, "group": "control_change"}, {"time": 2309, "annotation": {"number": 64, "value": 127}, "group": "control_change"}, {"time": 2331, "annotation": {"number": 64, "value": 0}, "group": "control_change"}, {"time": 2333, "annotation": {"number": 64, "value": 127}, "group": "control_change"}, {"time": 2355, "annotation": {"number": 64, "value": 0}, "group": "control_change"}, {"time": 2356, "annotation": {"number": 64, "value": 127}, "group": "control_change"}, {"time": 2367, "annotation": {"number": 64, "value": 0}, "group": "control_change"}, {"time": 2370, "annotation": {"number": 64, "value": 127}, "group": "control_change"}, {"time": 2379, "annotation": {"number": 64, "value": 0}, "group": "control_change"}, {"time": 2381, "annotation": {"number": 64, "value": 127}, "group": "control_change"}, {"time": 2392, "annotation": {"number": 64, "value": 0}, "group": "control_change"}, {"time": 2394, "annotation": {"number": 64, "value": 127}, "group": "control_change"}, {"time": 2403, "annotation": {"number": 64, "value": 0}, "group": "control_change"}, {"time": 2405, "annotation": {"number": 64, "value": 127}, "group": "control_change"}, {"time": 2427, "annotation": {"number": 64, "value": 0}, "group": "control_change"}, {"time": 2429, "annotation": {"number": 64, "value": 127}, "group": "control_change"}, {"time": 2451, "annotation": {"number": 64, "value": 0}, "group": "control_change"}, {"time": 2453, "annotation": {"number": 64, "value": 127}, "group": "control_change"}, {"time": 2463, "annotation": {"number": 64, "value": 0}, "group": "control_change"}, {"time": 2465, "annotation": {"number": 64, "value": 127}, "group": "control_change"}, {"time": 2475, "annotation": {"number": 64, "value": 0}, "group": "control_change"}, {"time": 2477, "annotation": {"number": 64, "value": 127}, "group": "control_change"}, {"time": 2500, "annotation": {"number": 64, "value": 0}, "group": "control_change"}, {"time": 2513, "annotation": {"number": 64, "value": 127}, "group": "control_change"}, {"time": 2537, "annotation": {"number": 64, "value": 127}, "group": "control_change"}, {"time": 2548, "annotation": {"number": 64, "value": 0}, "group": "control_change"}, {"time": 2549, "annotation": {"number": 64, "value": 127}, "group": "control_change"}, {"time": 2571, "annotation": {"number": 64, "value": 0}, "group": "control_change"}, {"time": 2573, "annotation": {"number": 64, "value": 127}, "group": "control_change"}, {"time": 2595, "annotation": {"number": 64, "value": 0}, "group": "control_change"}, {"time": 2597, "annotation": {"number": 64, "value": 127}, "group": "control_change"}, {"time": 2619, "annotation": {"number": 64, "value": 0}, "group": "control_change"}, {"time": 2621, "annotation": {"number": 64, "value": 127}, "group": "control_change"}, {"time": 2642, "annotation": {"number": 64, "value": 0}, "group": "control_change"}, {"time": 2647, "annotation": {"number": 64, "value": 127}, "group": "control_change"}, {"time": 2666, "annotation": {"number": 64, "value": 0}, "group": "control_change"}, {"time": 2669, "annotation": {"number": 64, "value": 127}, "group": "control_change"}, {"time": 2690, "annotation": {"number": 64, "value": 0}, "group": "control_change"}, {"time": 2693, "annotation": {"number": 64, "value": 127}, "group": "control_change"}, {"time": 2753, "annotation": {"number": 64, "value": 127}, "group": "control_change"}, {"time": 2754, "annotation": {"number": 64, "value": 0}, "group": "control_change"}]}]}