{"metadata": {"schema_version": "0.2", "title": "None", "source_filename": "366.mid", "source_format": "midi"}, "resolution": 12, "tempos": [{"time": 0, "qpm": 106.76992504751261}, {"time": 696, "qpm": 106.99993580003851}, {"time": 1560, "qpm": 106.79995300802068}, {"time": 1992, "qpm": 106.59995878134927}, {"time": 2232, "qpm": 106.30004960668981}, {"time": 2460, "qpm": 89.9999550000225}, {"time": 2472, "qpm": 106.99993580003851}, {"time": 2496, "qpm": 107.49991041674132}, {"time": 2808, "qpm": 106.99993580003851}, {"time": 3096, "qpm": 105.99995053335641}, {"time": 3384, "qpm": 106.50005325002662}, {"time": 3576, "qpm": 106.99993580003851}], "time_signatures": [{"time": 0, "numerator": 1, "denominator": 4}], "tracks": [{"program": 4, "is_drum": false, "name": "MELODY", "notes": [{"time": 687, "pitch": 60, "duration": 8, "velocity": 99}, {"time": 699, "pitch": 60, "duration": 7, "velocity": 100}, {"time": 711, "pitch": 60, "duration": 5, "velocity": 112}, {"time": 717, "pitch": 60, "duration": 5, "velocity": 112}, {"time": 723, "pitch": 63, "duration": 5, "velocity": 117}, {"time": 729, "pitch": 65, "duration": 5, "velocity": 96}, {"time": 735, "pitch": 67, "duration": 27, "velocity": 122}, {"time": 771, "pitch": 67, "duration": 10, "velocity": 112}, {"time": 783, "pitch": 65, "duration": 14, "velocity": 112}, {"time": 801, "pitch": 63, "duration": 4, "velocity": 122}, {"time": 807, "pitch": 65, "duration": 8, "velocity": 107}, {"time": 813, "pitch": 65, "duration": 2, "velocity": 107}, {"time": 825, "pitch": 70, "duration": 9, "velocity": 127}, {"time": 837, "pitch": 67, "duration": 25, "velocity": 112}, {"time": 879, "pitch": 60, "duration": 7, "velocity": 102}, {"time": 891, "pitch": 60, "duration": 5, "velocity": 112}, {"time": 897, "pitch": 60, "duration": 6, "velocity": 97}, {"time": 903, "pitch": 60, "duration": 1, "velocity": 127}, {"time": 921, "pitch": 63, "duration": 6, "velocity": 117}, {"time": 927, "pitch": 65, "duration": 25, "velocity": 97}, {"time": 963, "pitch": 58, "duration": 4, "velocity": 127}, {"time": 969, "pitch": 60, "duration": 4, "velocity": 96}, {"time": 975, "pitch": 62, "duration": 10, "velocity": 127}, {"time": 993, "pitch": 60, "duration": 3, "velocity": 99}, {"time": 999, "pitch": 58, "duration": 3, "velocity": 99}, {"time": 1005, "pitch": 58, "duration": 9, "velocity": 112}, {"time": 1017, "pitch": 62, "duration": 5, "velocity": 96}, {"time": 1023, "pitch": 60, "duration": 40, "velocity": 107}, {"time": 1071, "pitch": 60, "duration": 7, "velocity": 100}, {"time": 1083, "pitch": 60, "duration": 8, "velocity": 95}, {"time": 1095, "pitch": 60, "duration": 3, "velocity": 102}, {"time": 1101, "pitch": 60, "duration": 4, "velocity": 100}, {"time": 1107, "pitch": 63, "duration": 6, "velocity": 122}, {"time": 1113, "pitch": 65, "duration": 5, "velocity": 99}, {"time": 1119, "pitch": 67, "duration": 38, "velocity": 117}, {"time": 1155, "pitch": 67, "duration": 2, "velocity": 117}, {"time": 1161, "pitch": 67, "duration": 4, "velocity": 122}, {"time": 1167, "pitch": 65, "duration": 12, "velocity": 127}, {"time": 1185, "pitch": 63, "duration": 4, "velocity": 117}, {"time": 1191, "pitch": 65, "duration": 8, "velocity": 117}, {"time": 1209, "pitch": 70, "duration": 8, "velocity": 127}, {"time": 1221, "pitch": 67, "duration": 29, "velocity": 112}, {"time": 1263, "pitch": 60, "duration": 7, "velocity": 107}, {"time": 1275, "pitch": 60, "duration": 2, "velocity": 112}, {"time": 1281, "pitch": 60, "duration": 3, "velocity": 102}, {"time": 1287, "pitch": 60, "duration": 15, "velocity": 112}, {"time": 1305, "pitch": 63, "duration": 5, "velocity": 112}, {"time": 1311, "pitch": 65, "duration": 30, "velocity": 117}, {"time": 1347, "pitch": 58, "duration": 4, "velocity": 127}, {"time": 1353, "pitch": 60, "duration": 3, "velocity": 112}, {"time": 1359, "pitch": 62, "duration": 19, "velocity": 127}, {"time": 1377, "pitch": 60, "duration": 4, "velocity": 97}, {"time": 1383, "pitch": 58, "duration": 3, "velocity": 117}, {"time": 1389, "pitch": 58, "duration": 8, "velocity": 112}, {"time": 1401, "pitch": 62, "duration": 8, "velocity": 99}, {"time": 1413, "pitch": 60, "duration": 33, "velocity": 107}, {"time": 1455, "pitch": 67, "duration": 3, "velocity": 97}, {"time": 1458, "pitch": 65, "duration": 3, "velocity": 95}, {"time": 1461, "pitch": 67, "duration": 25, "velocity": 99}, {"time": 1491, "pitch": 65, "duration": 11, "velocity": 122}, {"time": 1503, "pitch": 67, "duration": 32, "velocity": 112}, {"time": 1539, "pitch": 65, "duration": 5, "velocity": 107}, {"time": 1545, "pitch": 67, "duration": 5, "velocity": 102}, {"time": 1551, "pitch": 70, "duration": 12, "velocity": 127}, {"time": 1569, "pitch": 70, "duration": 2, "velocity": 127}, {"time": 1575, "pitch": 70, "duration": 7, "velocity": 127}, {"time": 1587, "pitch": 65, "duration": 3, "velocity": 107}, {"time": 1593, "pitch": 68, "duration": 11, "velocity": 122}, {"time": 1608, "pitch": 67, "duration": 31, "velocity": 122}, {"time": 1647, "pitch": 65, "duration": 31, "velocity": 127}, {"time": 1683, "pitch": 63, "duration": 10, "velocity": 117}, {"time": 1695, "pitch": 65, "duration": 28, "velocity": 127}, {"time": 1731, "pitch": 58, "duration": 3, "velocity": 127}, {"time": 1737, "pitch": 60, "duration": 3, "velocity": 99}, {"time": 1743, "pitch": 62, "duration": 14, "velocity": 127}, {"time": 1761, "pitch": 60, "duration": 4, "velocity": 122}, {"time": 1767, "pitch": 58, "duration": 12, "velocity": 122}, {"time": 1779, "pitch": 58, "duration": 1, "velocity": 127}, {"time": 1791, "pitch": 62, "duration": 10, "velocity": 107}, {"time": 1800, "pitch": 60, "duration": 34, "velocity": 102}, {"time": 1839, "pitch": 60, "duration": 8, "velocity": 99}, {"time": 1851, "pitch": 60, "duration": 7, "velocity": 100}, {"time": 1863, "pitch": 60, "duration": 5, "velocity": 112}, {"time": 1869, "pitch": 60, "duration": 5, "velocity": 112}, {"time": 1875, "pitch": 63, "duration": 5, "velocity": 117}, {"time": 1881, "pitch": 65, "duration": 5, "velocity": 96}, {"time": 1887, "pitch": 67, "duration": 27, "velocity": 122}, {"time": 1923, "pitch": 67, "duration": 1, "velocity": 112}, {"time": 1929, "pitch": 67, "duration": 4, "velocity": 127}, {"time": 1935, "pitch": 65, "duration": 14, "velocity": 112}, {"time": 1953, "pitch": 63, "duration": 4, "velocity": 122}, {"time": 1959, "pitch": 65, "duration": 8, "velocity": 107}, {"time": 1965, "pitch": 65, "duration": 2, "velocity": 107}, {"time": 1977, "pitch": 70, "duration": 9, "velocity": 127}, {"time": 1989, "pitch": 67, "duration": 25, "velocity": 112}, {"time": 2031, "pitch": 60, "duration": 7, "velocity": 102}, {"time": 2043, "pitch": 60, "duration": 5, "velocity": 112}, {"time": 2049, "pitch": 60, "duration": 6, "velocity": 97}, {"time": 2055, "pitch": 60, "duration": 1, "velocity": 127}, {"time": 2061, "pitch": 60, "duration": 3, "velocity": 99}, {"time": 2067, "pitch": 60, "duration": 5, "velocity": 100}, {"time": 2073, "pitch": 63, "duration": 6, "velocity": 117}, {"time": 2079, "pitch": 65, "duration": 25, "velocity": 97}, {"time": 2115, "pitch": 62, "duration": 5, "velocity": 127}, {"time": 2121, "pitch": 60, "duration": 4, "velocity": 90}, {"time": 2127, "pitch": 58, "duration": 13, "velocity": 112}, {"time": 2145, "pitch": 58, "duration": 3, "velocity": 117}, {"time": 2151, "pitch": 58, "duration": 12, "velocity": 122}, {"time": 2163, "pitch": 58, "duration": 5, "velocity": 127}, {"time": 2169, "pitch": 62, "duration": 5, "velocity": 99}, {"time": 2175, "pitch": 60, "duration": 47, "velocity": 99}, {"time": 2607, "pitch": 60, "duration": 8, "velocity": 99}, {"time": 2619, "pitch": 60, "duration": 7, "velocity": 100}, {"time": 2631, "pitch": 60, "duration": 5, "velocity": 112}, {"time": 2637, "pitch": 60, "duration": 5, "velocity": 112}, {"time": 2643, "pitch": 63, "duration": 5, "velocity": 117}, {"time": 2649, "pitch": 65, "duration": 5, "velocity": 96}, {"time": 2655, "pitch": 67, "duration": 27, "velocity": 122}, {"time": 2691, "pitch": 67, "duration": 10, "velocity": 112}, {"time": 2703, "pitch": 65, "duration": 14, "velocity": 112}, {"time": 2721, "pitch": 63, "duration": 4, "velocity": 122}, {"time": 2727, "pitch": 65, "duration": 8, "velocity": 107}, {"time": 2733, "pitch": 65, "duration": 2, "velocity": 107}, {"time": 2745, "pitch": 70, "duration": 9, "velocity": 127}, {"time": 2757, "pitch": 67, "duration": 25, "velocity": 112}, {"time": 2799, "pitch": 60, "duration": 7, "velocity": 102}, {"time": 2811, "pitch": 60, "duration": 5, "velocity": 112}, {"time": 2817, "pitch": 60, "duration": 6, "velocity": 97}, {"time": 2823, "pitch": 60, "duration": 1, "velocity": 127}, {"time": 2841, "pitch": 63, "duration": 6, "velocity": 117}, {"time": 2847, "pitch": 65, "duration": 25, "velocity": 97}, {"time": 2883, "pitch": 58, "duration": 4, "velocity": 127}, {"time": 2889, "pitch": 60, "duration": 4, "velocity": 96}, {"time": 2895, "pitch": 62, "duration": 10, "velocity": 127}, {"time": 2913, "pitch": 60, "duration": 3, "velocity": 99}, {"time": 2919, "pitch": 58, "duration": 3, "velocity": 99}, {"time": 2925, "pitch": 58, "duration": 9, "velocity": 112}, {"time": 2937, "pitch": 62, "duration": 5, "velocity": 96}, {"time": 2943, "pitch": 60, "duration": 40, "velocity": 107}, {"time": 2991, "pitch": 60, "duration": 7, "velocity": 100}, {"time": 3003, "pitch": 60, "duration": 8, "velocity": 95}, {"time": 3015, "pitch": 60, "duration": 3, "velocity": 102}, {"time": 3021, "pitch": 60, "duration": 4, "velocity": 100}, {"time": 3027, "pitch": 63, "duration": 6, "velocity": 122}, {"time": 3033, "pitch": 65, "duration": 5, "velocity": 99}, {"time": 3039, "pitch": 67, "duration": 24, "velocity": 117}, {"time": 3075, "pitch": 67, "duration": 2, "velocity": 117}, {"time": 3081, "pitch": 67, "duration": 4, "velocity": 122}, {"time": 3087, "pitch": 65, "duration": 12, "velocity": 127}, {"time": 3105, "pitch": 63, "duration": 4, "velocity": 117}, {"time": 3111, "pitch": 65, "duration": 8, "velocity": 117}, {"time": 3129, "pitch": 70, "duration": 8, "velocity": 127}, {"time": 3141, "pitch": 67, "duration": 29, "velocity": 112}, {"time": 3183, "pitch": 60, "duration": 7, "velocity": 107}, {"time": 3195, "pitch": 60, "duration": 2, "velocity": 112}, {"time": 3201, "pitch": 60, "duration": 3, "velocity": 102}, {"time": 3207, "pitch": 60, "duration": 15, "velocity": 112}, {"time": 3225, "pitch": 63, "duration": 5, "velocity": 112}, {"time": 3231, "pitch": 65, "duration": 30, "velocity": 117}, {"time": 3267, "pitch": 58, "duration": 4, "velocity": 127}, {"time": 3273, "pitch": 60, "duration": 3, "velocity": 112}, {"time": 3279, "pitch": 62, "duration": 19, "velocity": 127}, {"time": 3297, "pitch": 60, "duration": 4, "velocity": 97}, {"time": 3303, "pitch": 58, "duration": 3, "velocity": 117}, {"time": 3309, "pitch": 58, "duration": 8, "velocity": 112}, {"time": 3321, "pitch": 62, "duration": 8, "velocity": 99}, {"time": 3333, "pitch": 60, "duration": 33, "velocity": 107}, {"time": 3375, "pitch": 67, "duration": 3, "velocity": 97}, {"time": 3378, "pitch": 65, "duration": 3, "velocity": 95}, {"time": 3381, "pitch": 67, "duration": 25, "velocity": 99}, {"time": 3411, "pitch": 65, "duration": 11, "velocity": 122}, {"time": 3423, "pitch": 67, "duration": 32, "velocity": 112}, {"time": 3459, "pitch": 65, "duration": 5, "velocity": 107}, {"time": 3465, "pitch": 67, "duration": 5, "velocity": 102}, {"time": 3471, "pitch": 70, "duration": 12, "velocity": 127}, {"time": 3489, "pitch": 70, "duration": 2, "velocity": 127}, {"time": 3495, "pitch": 70, "duration": 7, "velocity": 127}, {"time": 3507, "pitch": 65, "duration": 3, "velocity": 107}, {"time": 3513, "pitch": 68, "duration": 11, "velocity": 122}, {"time": 3528, "pitch": 67, "duration": 31, "velocity": 122}, {"time": 3567, "pitch": 65, "duration": 31, "velocity": 127}, {"time": 3603, "pitch": 63, "duration": 10, "velocity": 117}, {"time": 3615, "pitch": 65, "duration": 28, "velocity": 127}, {"time": 3651, "pitch": 58, "duration": 3, "velocity": 127}, {"time": 3657, "pitch": 60, "duration": 3, "velocity": 99}, {"time": 3663, "pitch": 62, "duration": 14, "velocity": 127}, {"time": 3681, "pitch": 60, "duration": 4, "velocity": 122}, {"time": 3687, "pitch": 58, "duration": 12, "velocity": 122}, {"time": 3699, "pitch": 58, "duration": 1, "velocity": 127}, {"time": 3711, "pitch": 62, "duration": 10, "velocity": 107}, {"time": 3720, "pitch": 60, "duration": 34, "velocity": 102}, {"time": 3759, "pitch": 60, "duration": 8, "velocity": 99}, {"time": 3771, "pitch": 60, "duration": 7, "velocity": 100}, {"time": 3783, "pitch": 60, "duration": 5, "velocity": 112}, {"time": 3789, "pitch": 60, "duration": 5, "velocity": 112}, {"time": 3795, "pitch": 63, "duration": 5, "velocity": 117}, {"time": 3801, "pitch": 65, "duration": 5, "velocity": 96}, {"time": 3807, "pitch": 67, "duration": 27, "velocity": 122}, {"time": 3843, "pitch": 67, "duration": 1, "velocity": 112}, {"time": 3849, "pitch": 67, "duration": 4, "velocity": 127}, {"time": 3855, "pitch": 65, "duration": 14, "velocity": 112}, {"time": 3873, "pitch": 63, "duration": 4, "velocity": 122}, {"time": 3879, "pitch": 65, "duration": 8, "velocity": 107}, {"time": 3885, "pitch": 65, "duration": 2, "velocity": 107}, {"time": 3897, "pitch": 70, "duration": 9, "velocity": 127}, {"time": 3909, "pitch": 67, "duration": 25, "velocity": 112}, {"time": 3951, "pitch": 60, "duration": 7, "velocity": 102}, {"time": 3963, "pitch": 60, "duration": 5, "velocity": 112}, {"time": 3969, "pitch": 60, "duration": 6, "velocity": 97}, {"time": 3975, "pitch": 60, "duration": 1, "velocity": 127}, {"time": 3981, "pitch": 60, "duration": 3, "velocity": 99}, {"time": 3987, "pitch": 60, "duration": 5, "velocity": 100}, {"time": 3993, "pitch": 63, "duration": 6, "velocity": 117}, {"time": 3999, "pitch": 65, "duration": 25, "velocity": 97}, {"time": 4035, "pitch": 62, "duration": 5, "velocity": 127}, {"time": 4041, "pitch": 60, "duration": 4, "velocity": 90}, {"time": 4047, "pitch": 58, "duration": 13, "velocity": 112}, {"time": 4065, "pitch": 58, "duration": 3, "velocity": 117}, {"time": 4071, "pitch": 58, "duration": 12, "velocity": 122}, {"time": 4083, "pitch": 58, "duration": 5, "velocity": 127}, {"time": 4089, "pitch": 62, "duration": 5, "velocity": 99}, {"time": 4095, "pitch": 60, "duration": 41, "velocity": 99}, {"time": 4143, "pitch": 60, "duration": 7, "velocity": 102}, {"time": 4155, "pitch": 60, "duration": 5, "velocity": 112}, {"time": 4161, "pitch": 60, "duration": 6, "velocity": 97}, {"time": 4167, "pitch": 60, "duration": 1, "velocity": 127}, {"time": 4173, "pitch": 60, "duration": 3, "velocity": 99}, {"time": 4179, "pitch": 60, "duration": 5, "velocity": 100}, {"time": 4185, "pitch": 63, "duration": 6, "velocity": 117}, {"time": 4191, "pitch": 65, "duration": 25, "velocity": 97}, {"time": 4227, "pitch": 62, "duration": 5, "velocity": 127}, {"time": 4233, "pitch": 60, "duration": 4, "velocity": 90}, {"time": 4239, "pitch": 58, "duration": 13, "velocity": 112}, {"time": 4257, "pitch": 58, "duration": 3, "velocity": 117}, {"time": 4263, "pitch": 58, "duration": 12, "velocity": 122}, {"time": 4275, "pitch": 58, "duration": 5, "velocity": 127}, {"time": 4281, "pitch": 62, "duration": 5, "velocity": 99}, {"time": 4287, "pitch": 60, "duration": 36, "velocity": 99}, {"time": 4335, "pitch": 60, "duration": 7, "velocity": 102}, {"time": 4347, "pitch": 60, "duration": 5, "velocity": 112}, {"time": 4353, "pitch": 60, "duration": 6, "velocity": 97}, {"time": 4359, "pitch": 60, "duration": 1, "velocity": 127}, {"time": 4365, "pitch": 60, "duration": 3, "velocity": 99}, {"time": 4371, "pitch": 60, "duration": 5, "velocity": 100}, {"time": 4377, "pitch": 63, "duration": 6, "velocity": 117}, {"time": 4383, "pitch": 65, "duration": 25, "velocity": 97}, {"time": 4419, "pitch": 62, "duration": 5, "velocity": 127}, {"time": 4425, "pitch": 60, "duration": 4, "velocity": 90}, {"time": 4431, "pitch": 58, "duration": 13, "velocity": 112}, {"time": 4449, "pitch": 58, "duration": 3, "velocity": 117}, {"time": 4455, "pitch": 58, "duration": 12, "velocity": 122}, {"time": 4467, "pitch": 58, "duration": 5, "velocity": 127}, {"time": 4473, "pitch": 62, "duration": 5, "velocity": 99}, {"time": 4479, "pitch": 60, "duration": 48, "velocity": 99}, {"time": 4527, "pitch": 60, "duration": 7, "velocity": 102}, {"time": 4539, "pitch": 60, "duration": 5, "velocity": 112}, {"time": 4545, "pitch": 60, "duration": 6, "velocity": 97}, {"time": 4551, "pitch": 60, "duration": 1, "velocity": 127}, {"time": 4557, "pitch": 60, "duration": 3, "velocity": 99}, {"time": 4563, "pitch": 60, "duration": 5, "velocity": 100}, {"time": 4569, "pitch": 63, "duration": 6, "velocity": 117}, {"time": 4575, "pitch": 65, "duration": 25, "velocity": 97}, {"time": 4611, "pitch": 62, "duration": 5, "velocity": 127}, {"time": 4617, "pitch": 60, "duration": 4, "velocity": 90}, {"time": 4623, "pitch": 58, "duration": 13, "velocity": 112}, {"time": 4641, "pitch": 58, "duration": 3, "velocity": 117}, {"time": 4647, "pitch": 58, "duration": 12, "velocity": 122}, {"time": 4659, "pitch": 58, "duration": 5, "velocity": 127}, {"time": 4665, "pitch": 62, "duration": 5, "velocity": 99}, {"time": 4671, "pitch": 60, "duration": 48, "velocity": 99}, {"time": 4719, "pitch": 60, "duration": 7, "velocity": 102}, {"time": 4731, "pitch": 60, "duration": 5, "velocity": 112}, {"time": 4737, "pitch": 60, "duration": 6, "velocity": 97}, {"time": 4743, "pitch": 60, "duration": 1, "velocity": 127}, {"time": 4749, "pitch": 60, "duration": 3, "velocity": 99}, {"time": 4755, "pitch": 60, "duration": 5, "velocity": 100}, {"time": 4761, "pitch": 63, "duration": 6, "velocity": 117}, {"time": 4767, "pitch": 65, "duration": 25, "velocity": 97}, {"time": 4803, "pitch": 62, "duration": 5, "velocity": 127}, {"time": 4809, "pitch": 60, "duration": 4, "velocity": 90}, {"time": 4815, "pitch": 58, "duration": 13, "velocity": 112}, {"time": 4833, "pitch": 58, "duration": 3, "velocity": 117}, {"time": 4839, "pitch": 58, "duration": 12, "velocity": 122}, {"time": 4851, "pitch": 58, "duration": 5, "velocity": 127}, {"time": 4857, "pitch": 62, "duration": 5, "velocity": 99}, {"time": 4863, "pitch": 60, "duration": 48, "velocity": 99}], "annotations": [{"time": 3, "annotation": {"number": 7, "value": 101}, "group": "control_change"}, {"time": 4676, "annotation": {"number": 7, "value": 101}, "group": "control_change"}, {"time": 4678, "annotation": {"number": 7, "value": 100}, "group": "control_change"}, {"time": 4681, "annotation": {"number": 7, "value": 99}, "group": "control_change"}, {"time": 4683, "annotation": {"number": 7, "value": 98}, "group": "control_change"}, {"time": 4686, "annotation": {"number": 7, "value": 96}, "group": "control_change"}, {"time": 4688, "annotation": {"number": 7, "value": 95}, "group": "control_change"}, {"time": 4691, "annotation": {"number": 7, "value": 94}, "group": "control_change"}, {"time": 4693, "annotation": {"number": 7, "value": 93}, "group": "control_change"}, {"time": 4696, "annotation": {"number": 7, "value": 92}, "group": "control_change"}, {"time": 4698, "annotation": {"number": 7, "value": 91}, "group": "control_change"}, {"time": 4701, "annotation": {"number": 7, "value": 90}, "group": "control_change"}, {"time": 4703, "annotation": {"number": 7, "value": 88}, "group": "control_change"}, {"time": 4706, "annotation": {"number": 7, "value": 87}, "group": "control_change"}, {"time": 4708, "annotation": {"number": 7, "value": 86}, "group": "control_change"}, {"time": 4711, "annotation": {"number": 7, "value": 85}, "group": "control_change"}, {"time": 4713, "annotation": {"number": 7, "value": 84}, "group": "control_change"}, {"time": 4716, "annotation": {"number": 7, "value": 83}, "group": "control_change"}, {"time": 4718, "annotation": {"number": 7, "value": 82}, "group": "control_change"}, {"time": 4721, "annotation": {"number": 7, "value": 81}, "group": "control_change"}, {"time": 4723, "annotation": {"number": 7, "value": 79}, "group": "control_change"}, {"time": 4726, "annotation": {"number": 7, "value": 78}, "group": "control_change"}, {"time": 4728, "annotation": {"number": 7, "value": 77}, "group": "control_change"}, {"time": 4731, "annotation": {"number": 7, "value": 76}, "group": "control_change"}, {"time": 4733, "annotation": {"number": 7, "value": 75}, "group": "control_change"}, {"time": 4736, "annotation": {"number": 7, "value": 74}, "group": "control_change"}, {"time": 4738, "annotation": {"number": 7, "value": 73}, "group": "control_change"}, {"time": 4741, "annotation": {"number": 7, "value": 71}, "group": "control_change"}, {"time": 4743, "annotation": {"number": 7, "value": 70}, "group": "control_change"}, {"time": 4746, "annotation": {"number": 7, "value": 69}, "group": "control_change"}, {"time": 4748, "annotation": {"number": 7, "value": 68}, "group": "control_change"}, {"time": 4751, "annotation": {"number": 7, "value": 67}, "group": "control_change"}, {"time": 4753, "annotation": {"number": 7, "value": 66}, "group": "control_change"}, {"time": 4756, "annotation": {"number": 7, "value": 65}, "group": "control_change"}, {"time": 4758, "annotation": {"number": 7, "value": 63}, "group": "control_change"}, {"time": 4761, "annotation": {"number": 7, "value": 62}, "group": "control_change"}, {"time": 4763, "annotation": {"number": 7, "value": 61}, "group": "control_change"}, {"time": 4766, "annotation": {"number": 7, "value": 60}, "group": "control_change"}, {"time": 4768, "annotation": {"number": 7, "value": 59}, "group": "control_change"}, {"time": 4771, "annotation": {"number": 7, "value": 58}, "group": "control_change"}, {"time": 4773, "annotation": {"number": 7, "value": 57}, "group": "control_change"}, {"time": 4776, "annotation": {"number": 7, "value": 55}, "group": "control_change"}, {"time": 4778, "annotation": {"number": 7, "value": 54}, "group": "control_change"}, {"time": 4781, "annotation": {"number": 7, "value": 53}, "group": "control_change"}, {"time": 4783, "annotation": {"number": 7, "value": 52}, "group": "control_change"}, {"time": 4786, "annotation": {"number": 7, "value": 51}, "group": "control_change"}, {"time": 4788, "annotation": {"number": 7, "value": 50}, "group": "control_change"}, {"time": 4791, "annotation": {"number": 7, "value": 49}, "group": "control_change"}, {"time": 4793, "annotation": {"number": 7, "value": 47}, "group": "control_change"}, {"time": 4796, "annotation": {"number": 7, "value": 46}, "group": "control_change"}, {"time": 4798, "annotation": {"number": 7, "value": 45}, "group": "control_change"}, {"time": 4801, "annotation": {"number": 7, "value": 44}, "group": "control_change"}, {"time": 4803, "annotation": {"number": 7, "value": 43}, "group": "control_change"}, {"time": 4806, "annotation": {"number": 7, "value": 42}, "group": "control_change"}, {"time": 4808, "annotation": {"number": 7, "value": 41}, "group": "control_change"}, {"time": 4811, "annotation": {"number": 7, "value": 40}, "group": "control_change"}, {"time": 4813, "annotation": {"number": 7, "value": 38}, "group": "control_change"}, {"time": 4816, "annotation": {"number": 7, "value": 37}, "group": "control_change"}, {"time": 4818, "annotation": {"number": 7, "value": 36}, "group": "control_change"}, {"time": 4821, "annotation": {"number": 7, "value": 35}, "group": "control_change"}, {"time": 4823, "annotation": {"number": 7, "value": 34}, "group": "control_change"}, {"time": 4826, "annotation": {"number": 7, "value": 33}, "group": "control_change"}, {"time": 4828, "annotation": {"number": 7, "value": 32}, "group": "control_change"}, {"time": 4831, "annotation": {"number": 7, "value": 30}, "group": "control_change"}, {"time": 4833, "annotation": {"number": 7, "value": 29}, "group": "control_change"}, {"time": 4836, "annotation": {"number": 7, "value": 28}, "group": "control_change"}, {"time": 4838, "annotation": {"number": 7, "value": 27}, "group": "control_change"}, {"time": 4841, "annotation": {"number": 7, "value": 26}, "group": "control_change"}, {"time": 4843, "annotation": {"number": 7, "value": 25}, "group": "control_change"}, {"time": 4846, "annotation": {"number": 7, "value": 24}, "group": "control_change"}, {"time": 4848, "annotation": {"number": 7, "value": 22}, "group": "control_change"}, {"time": 4851, "annotation": {"number": 7, "value": 21}, "group": "control_change"}, {"time": 4853, "annotation": {"number": 7, "value": 20}, "group": "control_change"}, {"time": 4856, "annotation": {"number": 7, "value": 19}, "group": "control_change"}, {"time": 4858, "annotation": {"number": 7, "value": 18}, "group": "control_change"}, {"time": 4861, "annotation": {"number": 7, "value": 17}, "group": "control_change"}, {"time": 4863, "annotation": {"number": 7, "value": 16}, "group": "control_change"}, {"time": 4866, "annotation": {"number": 7, "value": 14}, "group": "control_change"}, {"time": 4868, "annotation": {"number": 7, "value": 13}, "group": "control_change"}, {"time": 4871, "annotation": {"number": 7, "value": 12}, "group": "control_change"}, {"time": 4873, "annotation": {"number": 7, "value": 11}, "group": "control_change"}, {"time": 4876, "annotation": {"number": 7, "value": 10}, "group": "control_change"}, {"time": 4878, "annotation": {"number": 7, "value": 9}, "group": "control_change"}, {"time": 4881, "annotation": {"number": 7, "value": 8}, "group": "control_change"}, {"time": 4883, "annotation": {"number": 7, "value": 7}, "group": "control_change"}, {"time": 4886, "annotation": {"number": 7, "value": 5}, "group": "control_change"}, {"time": 4888, "annotation": {"number": 7, "value": 4}, "group": "control_change"}, {"time": 4891, "annotation": {"number": 7, "value": 3}, "group": "control_change"}, {"time": 4893, "annotation": {"number": 7, "value": 2}, "group": "control_change"}, {"time": 4896, "annotation": {"number": 7, "value": 1}, "group": "control_change"}, {"time": 4898, "annotation": {"number": 7, "value": 0}, "group": "control_change"}]}, {"program": 0, "is_drum": false, "name": "PIANO", "notes": [{"time": 15, "pitch": 48, "duration": 44, "velocity": 59}, {"time": 21, "pitch": 55, "duration": 9, "velocity": 45}, {"time": 27, "pitch": 62, "duration": 13, "velocity": 62}, {"time": 33, "pitch": 55, "duration": 28, "velocity": 30}, {"time": 39, "pitch": 63, "duration": 14, "velocity": 86}, {"time": 51, "pitch": 62, "duration": 17, "velocity": 58}, {"time": 63, "pitch": 48, "duration": 32, "velocity": 56}, {"time": 69, "pitch": 55, "duration": 11, "velocity": 43}, {"time": 75, "pitch": 62, "duration": 13, "velocity": 62}, {"time": 81, "pitch": 55, "duration": 11, "velocity": 66}, {"time": 87, "pitch": 63, "duration": 12, "velocity": 81}, {"time": 99, "pitch": 62, "duration": 12, "velocity": 70}, {"time": 111, "pitch": 41, "duration": 45, "velocity": 64}, {"time": 117, "pitch": 48, "duration": 8, "velocity": 55}, {"time": 123, "pitch": 55, "duration": 13, "velocity": 61}, {"time": 129, "pitch": 48, "duration": 9, "velocity": 40}, {"time": 135, "pitch": 56, "duration": 12, "velocity": 86}, {"time": 141, "pitch": 48, "duration": 19, "velocity": 40}, {"time": 147, "pitch": 55, "duration": 14, "velocity": 54}, {"time": 159, "pitch": 41, "duration": 33, "velocity": 60}, {"time": 165, "pitch": 48, "duration": 9, "velocity": 63}, {"time": 171, "pitch": 55, "duration": 13, "velocity": 65}, {"time": 177, "pitch": 48, "duration": 20, "velocity": 53}, {"time": 183, "pitch": 56, "duration": 13, "velocity": 81}, {"time": 195, "pitch": 55, "duration": 12, "velocity": 62}, {"time": 207, "pitch": 43, "duration": 45, "velocity": 72}, {"time": 213, "pitch": 50, "duration": 8, "velocity": 63}, {"time": 219, "pitch": 55, "duration": 13, "velocity": 72}, {"time": 225, "pitch": 50, "duration": 30, "velocity": 55}, {"time": 231, "pitch": 59, "duration": 67, "velocity": 69}, {"time": 243, "pitch": 62, "duration": 55, "velocity": 71}, {"time": 255, "pitch": 43, "duration": 33, "velocity": 55}, {"time": 303, "pitch": 48, "duration": 36, "velocity": 73}, {"time": 309, "pitch": 55, "duration": 7, "velocity": 42}, {"time": 315, "pitch": 60, "duration": 13, "velocity": 79}, {"time": 321, "pitch": 55, "duration": 7, "velocity": 47}, {"time": 327, "pitch": 63, "duration": 14, "velocity": 92}, {"time": 333, "pitch": 55, "duration": 8, "velocity": 43}, {"time": 339, "pitch": 62, "duration": 13, "velocity": 67}, {"time": 351, "pitch": 46, "duration": 38, "velocity": 83}, {"time": 357, "pitch": 58, "duration": 7, "velocity": 63}, {"time": 363, "pitch": 62, "duration": 36, "velocity": 72}, {"time": 369, "pitch": 58, "duration": 7, "velocity": 36}, {"time": 375, "pitch": 63, "duration": 8, "velocity": 76}, {"time": 387, "pitch": 58, "duration": 8, "velocity": 64}, {"time": 393, "pitch": 63, "duration": 15, "velocity": 76}, {"time": 399, "pitch": 44, "duration": 35, "velocity": 72}, {"time": 405, "pitch": 56, "duration": 8, "velocity": 68}, {"time": 405, "pitch": 60, "duration": 14, "velocity": 69}, {"time": 417, "pitch": 56, "duration": 11, "velocity": 59}, {"time": 423, "pitch": 63, "duration": 25, "velocity": 97}, {"time": 435, "pitch": 60, "duration": 14, "velocity": 68}, {"time": 447, "pitch": 43, "duration": 37, "velocity": 69}, {"time": 453, "pitch": 50, "duration": 9, "velocity": 69}, {"time": 459, "pitch": 55, "duration": 14, "velocity": 70}, {"time": 465, "pitch": 50, "duration": 17, "velocity": 51}, {"time": 471, "pitch": 62, "duration": 25, "velocity": 95}, {"time": 483, "pitch": 59, "duration": 13, "velocity": 92}, {"time": 495, "pitch": 41, "duration": 31, "velocity": 83}, {"time": 501, "pitch": 48, "duration": 9, "velocity": 78}, {"time": 507, "pitch": 53, "duration": 14, "velocity": 89}, {"time": 513, "pitch": 48, "duration": 13, "velocity": 72}, {"time": 519, "pitch": 60, "duration": 23, "velocity": 99}, {"time": 531, "pitch": 56, "duration": 12, "velocity": 97}, {"time": 543, "pitch": 39, "duration": 42, "velocity": 88}, {"time": 549, "pitch": 51, "duration": 37, "velocity": 72}, {"time": 555, "pitch": 55, "duration": 15, "velocity": 79}, {"time": 561, "pitch": 46, "duration": 22, "velocity": 31}, {"time": 567, "pitch": 63, "duration": 22, "velocity": 107}, {"time": 579, "pitch": 58, "duration": 10, "velocity": 90}, {"time": 591, "pitch": 37, "duration": 37, "velocity": 102}, {"time": 597, "pitch": 44, "duration": 31, "velocity": 34}, {"time": 603, "pitch": 53, "duration": 13, "velocity": 82}, {"time": 609, "pitch": 49, "duration": 10, "velocity": 63}, {"time": 615, "pitch": 56, "duration": 24, "velocity": 99}, {"time": 621, "pitch": 49, "duration": 8, "velocity": 56}, {"time": 627, "pitch": 53, "duration": 13, "velocity": 88}, {"time": 639, "pitch": 36, "duration": 46, "velocity": 76}, {"time": 645, "pitch": 48, "duration": 21, "velocity": 78}, {"time": 651, "pitch": 55, "duration": 14, "velocity": 78}, {"time": 657, "pitch": 43, "duration": 29, "velocity": 58}, {"time": 663, "pitch": 63, "duration": 14, "velocity": 117}, {"time": 669, "pitch": 48, "duration": 6, "velocity": 66}, {"time": 675, "pitch": 62, "duration": 11, "velocity": 99}, {"time": 687, "pitch": 36, "duration": 15, "velocity": 78}, {"time": 699, "pitch": 55, "duration": 16, "velocity": 92}, {"time": 705, "pitch": 36, "duration": 3, "velocity": 70}, {"time": 711, "pitch": 36, "duration": 13, "velocity": 56}, {"time": 717, "pitch": 48, "duration": 17, "velocity": 72}, {"time": 723, "pitch": 55, "duration": 12, "velocity": 89}, {"time": 729, "pitch": 51, "duration": 6, "velocity": 62}, {"time": 735, "pitch": 34, "duration": 15, "velocity": 82}, {"time": 741, "pitch": 46, "duration": 11, "velocity": 61}, {"time": 747, "pitch": 58, "duration": 20, "velocity": 100}, {"time": 753, "pitch": 34, "duration": 3, "velocity": 82}, {"time": 759, "pitch": 34, "duration": 17, "velocity": 83}, {"time": 765, "pitch": 50, "duration": 14, "velocity": 66}, {"time": 771, "pitch": 58, "duration": 11, "velocity": 102}, {"time": 777, "pitch": 53, "duration": 5, "velocity": 64}, {"time": 783, "pitch": 32, "duration": 21, "velocity": 72}, {"time": 789, "pitch": 44, "duration": 7, "velocity": 90}, {"time": 795, "pitch": 51, "duration": 8, "velocity": 79}, {"time": 801, "pitch": 48, "duration": 5, "velocity": 43}, {"time": 807, "pitch": 34, "duration": 17, "velocity": 86}, {"time": 813, "pitch": 46, "duration": 16, "velocity": 70}, {"time": 819, "pitch": 53, "duration": 11, "velocity": 88}, {"time": 825, "pitch": 50, "duration": 4, "velocity": 76}, {"time": 831, "pitch": 39, "duration": 22, "velocity": 93}, {"time": 837, "pitch": 51, "duration": 7, "velocity": 70}, {"time": 843, "pitch": 58, "duration": 10, "velocity": 107}, {"time": 849, "pitch": 51, "duration": 4, "velocity": 95}, {"time": 855, "pitch": 43, "duration": 16, "velocity": 58}, {"time": 861, "pitch": 50, "duration": 11, "velocity": 73}, {"time": 867, "pitch": 59, "duration": 11, "velocity": 95}, {"time": 873, "pitch": 55, "duration": 5, "velocity": 74}, {"time": 879, "pitch": 36, "duration": 15, "velocity": 71}, {"time": 885, "pitch": 43, "duration": 10, "velocity": 55}, {"time": 891, "pitch": 55, "duration": 16, "velocity": 99}, {"time": 897, "pitch": 36, "duration": 2, "velocity": 63}, {"time": 903, "pitch": 36, "duration": 15, "velocity": 82}, {"time": 909, "pitch": 48, "duration": 17, "velocity": 71}, {"time": 915, "pitch": 55, "duration": 12, "velocity": 95}, {"time": 921, "pitch": 51, "duration": 6, "velocity": 83}, {"time": 927, "pitch": 41, "duration": 15, "velocity": 74}, {"time": 933, "pitch": 53, "duration": 19, "velocity": 77}, {"time": 939, "pitch": 60, "duration": 15, "velocity": 88}, {"time": 945, "pitch": 41, "duration": 3, "velocity": 77}, {"time": 951, "pitch": 41, "duration": 23, "velocity": 60}, {"time": 957, "pitch": 53, "duration": 16, "velocity": 77}, {"time": 963, "pitch": 60, "duration": 11, "velocity": 92}, {"time": 969, "pitch": 56, "duration": 5, "velocity": 83}, {"time": 975, "pitch": 43, "duration": 16, "velocity": 70}, {"time": 981, "pitch": 55, "duration": 19, "velocity": 76}, {"time": 987, "pitch": 62, "duration": 14, "velocity": 93}, {"time": 993, "pitch": 43, "duration": 2, "velocity": 78}, {"time": 999, "pitch": 43, "duration": 11, "velocity": 83}, {"time": 1005, "pitch": 55, "duration": 18, "velocity": 77}, {"time": 1011, "pitch": 62, "duration": 12, "velocity": 95}, {"time": 1017, "pitch": 58, "duration": 6, "velocity": 85}, {"time": 1023, "pitch": 36, "duration": 15, "velocity": 77}, {"time": 1029, "pitch": 43, "duration": 10, "velocity": 66}, {"time": 1035, "pitch": 55, "duration": 19, "velocity": 72}, {"time": 1041, "pitch": 36, "duration": 2, "velocity": 78}, {"time": 1047, "pitch": 36, "duration": 22, "velocity": 71}, {"time": 1053, "pitch": 51, "duration": 11, "velocity": 55}, {"time": 1059, "pitch": 58, "duration": 13, "velocity": 76}, {"time": 1071, "pitch": 36, "duration": 14, "velocity": 81}, {"time": 1077, "pitch": 43, "duration": 11, "velocity": 71}, {"time": 1083, "pitch": 55, "duration": 35, "velocity": 81}, {"time": 1089, "pitch": 36, "duration": 23, "velocity": 82}, {"time": 1095, "pitch": 43, "duration": 17, "velocity": 77}, {"time": 1101, "pitch": 51, "duration": 8, "velocity": 69}, {"time": 1107, "pitch": 60, "duration": 10, "velocity": 69}, {"time": 1113, "pitch": 51, "duration": 5, "velocity": 66}, {"time": 1119, "pitch": 34, "duration": 15, "velocity": 89}, {"time": 1125, "pitch": 46, "duration": 10, "velocity": 65}, {"time": 1131, "pitch": 58, "duration": 19, "velocity": 99}, {"time": 1137, "pitch": 34, "duration": 2, "velocity": 85}, {"time": 1143, "pitch": 34, "duration": 21, "velocity": 58}, {"time": 1149, "pitch": 50, "duration": 13, "velocity": 69}, {"time": 1155, "pitch": 58, "duration": 10, "velocity": 122}, {"time": 1161, "pitch": 53, "duration": 4, "velocity": 76}, {"time": 1167, "pitch": 32, "duration": 18, "velocity": 81}, {"time": 1173, "pitch": 44, "duration": 16, "velocity": 63}, {"time": 1179, "pitch": 56, "duration": 11, "velocity": 112}, {"time": 1185, "pitch": 48, "duration": 6, "velocity": 82}, {"time": 1191, "pitch": 34, "duration": 14, "velocity": 83}, {"time": 1197, "pitch": 46, "duration": 12, "velocity": 65}, {"time": 1203, "pitch": 53, "duration": 10, "velocity": 100}, {"time": 1209, "pitch": 50, "duration": 7, "velocity": 74}, {"time": 1215, "pitch": 39, "duration": 15, "velocity": 83}, {"time": 1221, "pitch": 51, "duration": 7, "velocity": 81}, {"time": 1227, "pitch": 58, "duration": 11, "velocity": 92}, {"time": 1233, "pitch": 39, "duration": 5, "velocity": 89}, {"time": 1239, "pitch": 43, "duration": 21, "velocity": 64}, {"time": 1245, "pitch": 50, "duration": 13, "velocity": 78}, {"time": 1251, "pitch": 59, "duration": 11, "velocity": 97}, {"time": 1257, "pitch": 55, "duration": 5, "velocity": 90}, {"time": 1263, "pitch": 36, "duration": 15, "velocity": 74}, {"time": 1269, "pitch": 43, "duration": 11, "velocity": 48}, {"time": 1275, "pitch": 63, "duration": 35, "velocity": 112}, {"time": 1281, "pitch": 36, "duration": 2, "velocity": 76}, {"time": 1287, "pitch": 36, "duration": 12, "velocity": 68}, {"time": 1293, "pitch": 55, "duration": 8, "velocity": 78}, {"time": 1299, "pitch": 60, "duration": 10, "velocity": 99}, {"time": 1305, "pitch": 55, "duration": 7, "velocity": 74}, {"time": 1311, "pitch": 41, "duration": 15, "velocity": 66}, {"time": 1317, "pitch": 48, "duration": 10, "velocity": 62}, {"time": 1323, "pitch": 60, "duration": 17, "velocity": 99}, {"time": 1329, "pitch": 41, "duration": 3, "velocity": 69}, {"time": 1335, "pitch": 41, "duration": 21, "velocity": 64}, {"time": 1341, "pitch": 53, "duration": 13, "velocity": 85}, {"time": 1347, "pitch": 60, "duration": 13, "velocity": 100}, {"time": 1353, "pitch": 56, "duration": 6, "velocity": 86}, {"time": 1359, "pitch": 43, "duration": 15, "velocity": 76}, {"time": 1365, "pitch": 55, "duration": 20, "velocity": 70}, {"time": 1371, "pitch": 62, "duration": 15, "velocity": 99}, {"time": 1377, "pitch": 43, "duration": 2, "velocity": 69}, {"time": 1383, "pitch": 43, "duration": 13, "velocity": 78}, {"time": 1389, "pitch": 55, "duration": 18, "velocity": 72}, {"time": 1395, "pitch": 62, "duration": 12, "velocity": 100}, {"time": 1401, "pitch": 58, "duration": 5, "velocity": 79}, {"time": 1405, "pitch": 36, "duration": 47, "velocity": 82}, {"time": 1411, "pitch": 43, "duration": 41, "velocity": 82}, {"time": 1418, "pitch": 51, "duration": 12, "velocity": 95}, {"time": 1423, "pitch": 48, "duration": 10, "velocity": 67}, {"time": 1430, "pitch": 55, "duration": 26, "velocity": 56}, {"time": 1436, "pitch": 48, "duration": 6, "velocity": 61}, {"time": 1442, "pitch": 60, "duration": 14, "velocity": 75}, {"time": 1448, "pitch": 51, "duration": 8, "velocity": 86}, {"time": 1455, "pitch": 39, "duration": 14, "velocity": 92}, {"time": 1461, "pitch": 55, "duration": 20, "velocity": 88}, {"time": 1467, "pitch": 58, "duration": 15, "velocity": 107}, {"time": 1467, "pitch": 63, "duration": 15, "velocity": 117}, {"time": 1473, "pitch": 39, "duration": 2, "velocity": 81}, {"time": 1479, "pitch": 39, "duration": 22, "velocity": 93}, {"time": 1485, "pitch": 55, "duration": 20, "velocity": 78}, {"time": 1491, "pitch": 63, "duration": 15, "velocity": 127}, {"time": 1497, "pitch": 58, "duration": 9, "velocity": 112}, {"time": 1503, "pitch": 39, "duration": 15, "velocity": 97}, {"time": 1509, "pitch": 55, "duration": 19, "velocity": 90}, {"time": 1515, "pitch": 58, "duration": 14, "velocity": 97}, {"time": 1515, "pitch": 63, "duration": 17, "velocity": 122}, {"time": 1521, "pitch": 39, "duration": 2, "velocity": 63}, {"time": 1527, "pitch": 39, "duration": 23, "velocity": 96}, {"time": 1533, "pitch": 58, "duration": 17, "velocity": 102}, {"time": 1539, "pitch": 63, "duration": 10, "velocity": 127}, {"time": 1545, "pitch": 55, "duration": 6, "velocity": 90}, {"time": 1551, "pitch": 46, "duration": 14, "velocity": 99}, {"time": 1557, "pitch": 53, "duration": 8, "velocity": 85}, {"time": 1563, "pitch": 58, "duration": 19, "velocity": 107}, {"time": 1563, "pitch": 62, "duration": 15, "velocity": 102}, {"time": 1569, "pitch": 46, "duration": 2, "velocity": 107}, {"time": 1575, "pitch": 46, "duration": 14, "velocity": 112}, {"time": 1581, "pitch": 53, "duration": 7, "velocity": 89}, {"time": 1587, "pitch": 58, "duration": 16, "velocity": 93}, {"time": 1587, "pitch": 62, "duration": 8, "velocity": 102}, {"time": 1593, "pitch": 53, "duration": 4, "velocity": 85}, {"time": 1599, "pitch": 39, "duration": 16, "velocity": 99}, {"time": 1605, "pitch": 51, "duration": 7, "velocity": 89}, {"time": 1611, "pitch": 63, "duration": 9, "velocity": 122}, {"time": 1617, "pitch": 58, "duration": 4, "velocity": 99}, {"time": 1623, "pitch": 36, "duration": 13, "velocity": 93}, {"time": 1629, "pitch": 55, "duration": 6, "velocity": 79}, {"time": 1635, "pitch": 60, "duration": 11, "velocity": 102}, {"time": 1635, "pitch": 64, "duration": 11, "velocity": 99}, {"time": 1641, "pitch": 55, "duration": 6, "velocity": 86}, {"time": 1647, "pitch": 41, "duration": 15, "velocity": 95}, {"time": 1653, "pitch": 53, "duration": 7, "velocity": 77}, {"time": 1659, "pitch": 56, "duration": 17, "velocity": 93}, {"time": 1659, "pitch": 60, "duration": 17, "velocity": 95}, {"time": 1665, "pitch": 41, "duration": 2, "velocity": 74}, {"time": 1671, "pitch": 41, "duration": 21, "velocity": 69}, {"time": 1677, "pitch": 53, "duration": 7, "velocity": 85}, {"time": 1683, "pitch": 56, "duration": 14, "velocity": 97}, {"time": 1683, "pitch": 60, "duration": 15, "velocity": 95}, {"time": 1695, "pitch": 41, "duration": 14, "velocity": 90}, {"time": 1701, "pitch": 53, "duration": 13, "velocity": 90}, {"time": 1707, "pitch": 56, "duration": 13, "velocity": 95}, {"time": 1707, "pitch": 60, "duration": 13, "velocity": 92}, {"time": 1713, "pitch": 41, "duration": 2, "velocity": 74}, {"time": 1719, "pitch": 41, "duration": 16, "velocity": 81}, {"time": 1725, "pitch": 53, "duration": 8, "velocity": 85}, {"time": 1731, "pitch": 56, "duration": 11, "velocity": 99}, {"time": 1731, "pitch": 60, "duration": 11, "velocity": 93}, {"time": 1743, "pitch": 46, "duration": 14, "velocity": 97}, {"time": 1749, "pitch": 53, "duration": 8, "velocity": 85}, {"time": 1755, "pitch": 58, "duration": 16, "velocity": 95}, {"time": 1755, "pitch": 62, "duration": 14, "velocity": 93}, {"time": 1761, "pitch": 46, "duration": 2, "velocity": 88}, {"time": 1767, "pitch": 46, "duration": 21, "velocity": 102}, {"time": 1773, "pitch": 53, "duration": 17, "velocity": 73}, {"time": 1779, "pitch": 58, "duration": 15, "velocity": 96}, {"time": 1779, "pitch": 62, "duration": 9, "velocity": 90}, {"time": 1791, "pitch": 48, "duration": 15, "velocity": 92}, {"time": 1797, "pitch": 55, "duration": 22, "velocity": 86}, {"time": 1803, "pitch": 60, "duration": 16, "velocity": 96}, {"time": 1803, "pitch": 63, "duration": 17, "velocity": 117}, {"time": 1809, "pitch": 36, "duration": 2, "velocity": 69}, {"time": 1815, "pitch": 36, "duration": 17, "velocity": 88}, {"time": 1821, "pitch": 55, "duration": 19, "velocity": 50}, {"time": 1827, "pitch": 60, "duration": 13, "velocity": 93}, {"time": 1827, "pitch": 63, "duration": 14, "velocity": 107}, {"time": 1839, "pitch": 36, "duration": 14, "velocity": 92}, {"time": 1845, "pitch": 55, "duration": 20, "velocity": 66}, {"time": 1851, "pitch": 60, "duration": 15, "velocity": 92}, {"time": 1851, "pitch": 63, "duration": 16, "velocity": 107}, {"time": 1857, "pitch": 36, "duration": 2, "velocity": 76}, {"time": 1863, "pitch": 36, "duration": 13, "velocity": 78}, {"time": 1869, "pitch": 55, "duration": 7, "velocity": 58}, {"time": 1875, "pitch": 60, "duration": 13, "velocity": 73}, {"time": 1875, "pitch": 63, "duration": 9, "velocity": 85}, {"time": 1887, "pitch": 46, "duration": 14, "velocity": 102}, {"time": 1893, "pitch": 53, "duration": 21, "velocity": 70}, {"time": 1899, "pitch": 62, "duration": 17, "velocity": 93}, {"time": 1905, "pitch": 46, "duration": 2, "velocity": 93}, {"time": 1911, "pitch": 46, "duration": 24, "velocity": 96}, {"time": 1917, "pitch": 53, "duration": 18, "velocity": 52}, {"time": 1923, "pitch": 62, "duration": 12, "velocity": 97}, {"time": 1935, "pitch": 44, "duration": 21, "velocity": 100}, {"time": 1941, "pitch": 60, "duration": 6, "velocity": 92}, {"time": 1947, "pitch": 63, "duration": 7, "velocity": 127}, {"time": 1953, "pitch": 60, "duration": 4, "velocity": 49}, {"time": 1959, "pitch": 46, "duration": 12, "velocity": 102}, {"time": 1965, "pitch": 53, "duration": 12, "velocity": 72}, {"time": 1971, "pitch": 62, "duration": 8, "velocity": 107}, {"time": 1977, "pitch": 58, "duration": 9, "velocity": 90}, {"time": 1983, "pitch": 39, "duration": 13, "velocity": 97}, {"time": 1989, "pitch": 51, "duration": 7, "velocity": 85}, {"time": 1995, "pitch": 63, "duration": 10, "velocity": 127}, {"time": 2001, "pitch": 58, "duration": 5, "velocity": 99}, {"time": 2007, "pitch": 43, "duration": 17, "velocity": 81}, {"time": 2013, "pitch": 55, "duration": 6, "velocity": 88}, {"time": 2019, "pitch": 59, "duration": 14, "velocity": 89}, {"time": 2019, "pitch": 62, "duration": 11, "velocity": 99}, {"time": 2031, "pitch": 48, "duration": 21, "velocity": 96}, {"time": 2037, "pitch": 55, "duration": 13, "velocity": 76}, {"time": 2043, "pitch": 63, "duration": 16, "velocity": 122}, {"time": 2049, "pitch": 60, "duration": 11, "velocity": 97}, {"time": 2055, "pitch": 48, "duration": 14, "velocity": 93}, {"time": 2061, "pitch": 55, "duration": 18, "velocity": 67}, {"time": 2067, "pitch": 63, "duration": 8, "velocity": 127}, {"time": 2073, "pitch": 48, "duration": 5, "velocity": 107}, {"time": 2079, "pitch": 41, "duration": 14, "velocity": 71}, {"time": 2085, "pitch": 53, "duration": 13, "velocity": 63}, {"time": 2091, "pitch": 60, "duration": 15, "velocity": 100}, {"time": 2097, "pitch": 41, "duration": 2, "velocity": 88}, {"time": 2103, "pitch": 41, "duration": 23, "velocity": 90}, {"time": 2109, "pitch": 53, "duration": 15, "velocity": 76}, {"time": 2115, "pitch": 60, "duration": 13, "velocity": 112}, {"time": 2121, "pitch": 56, "duration": 6, "velocity": 93}, {"time": 2127, "pitch": 43, "duration": 14, "velocity": 107}, {"time": 2133, "pitch": 55, "duration": 31, "velocity": 70}, {"time": 2139, "pitch": 62, "duration": 18, "velocity": 100}, {"time": 2145, "pitch": 43, "duration": 3, "velocity": 89}, {"time": 2151, "pitch": 43, "duration": 19, "velocity": 89}, {"time": 2157, "pitch": 58, "duration": 8, "velocity": 100}, {"time": 2163, "pitch": 62, "duration": 9, "velocity": 97}, {"time": 2169, "pitch": 55, "duration": 8, "velocity": 76}, {"time": 2175, "pitch": 48, "duration": 15, "velocity": 92}, {"time": 2181, "pitch": 55, "duration": 21, "velocity": 82}, {"time": 2187, "pitch": 63, "duration": 16, "velocity": 107}, {"time": 2193, "pitch": 48, "duration": 2, "velocity": 86}, {"time": 2199, "pitch": 48, "duration": 22, "velocity": 90}, {"time": 2205, "pitch": 55, "duration": 17, "velocity": 78}, {"time": 2211, "pitch": 63, "duration": 11, "velocity": 122}, {"time": 2217, "pitch": 60, "duration": 6, "velocity": 96}, {"time": 2223, "pitch": 44, "duration": 15, "velocity": 102}, {"time": 2229, "pitch": 56, "duration": 19, "velocity": 90}, {"time": 2235, "pitch": 63, "duration": 15, "velocity": 117}, {"time": 2241, "pitch": 44, "duration": 2, "velocity": 102}, {"time": 2247, "pitch": 44, "duration": 22, "velocity": 117}, {"time": 2253, "pitch": 56, "duration": 9, "velocity": 63}, {"time": 2259, "pitch": 63, "duration": 9, "velocity": 122}, {"time": 2265, "pitch": 60, "duration": 12, "velocity": 42}, {"time": 2271, "pitch": 45, "duration": 14, "velocity": 93}, {"time": 2277, "pitch": 57, "duration": 19, "velocity": 67}, {"time": 2283, "pitch": 63, "duration": 16, "velocity": 127}, {"time": 2289, "pitch": 45, "duration": 2, "velocity": 90}, {"time": 2295, "pitch": 45, "duration": 22, "velocity": 100}, {"time": 2301, "pitch": 57, "duration": 7, "velocity": 70}, {"time": 2307, "pitch": 60, "duration": 9, "velocity": 107}, {"time": 2313, "pitch": 57, "duration": 5, "velocity": 86}, {"time": 2319, "pitch": 38, "duration": 15, "velocity": 86}, {"time": 2325, "pitch": 50, "duration": 20, "velocity": 86}, {"time": 2331, "pitch": 57, "duration": 27, "velocity": 102}, {"time": 2337, "pitch": 38, "duration": 2, "velocity": 83}, {"time": 2343, "pitch": 38, "duration": 18, "velocity": 90}, {"time": 2349, "pitch": 50, "duration": 8, "velocity": 77}, {"time": 2355, "pitch": 54, "duration": 11, "velocity": 122}, {"time": 2361, "pitch": 50, "duration": 5, "velocity": 85}, {"time": 2367, "pitch": 43, "duration": 15, "velocity": 102}, {"time": 2373, "pitch": 55, "duration": 7, "velocity": 86}, {"time": 2379, "pitch": 58, "duration": 17, "velocity": 78}, {"time": 2379, "pitch": 62, "duration": 17, "velocity": 112}, {"time": 2385, "pitch": 43, "duration": 2, "velocity": 92}, {"time": 2391, "pitch": 43, "duration": 21, "velocity": 90}, {"time": 2397, "pitch": 55, "duration": 8, "velocity": 75}, {"time": 2403, "pitch": 58, "duration": 14, "velocity": 102}, {"time": 2403, "pitch": 62, "duration": 15, "velocity": 97}, {"time": 2415, "pitch": 43, "duration": 15, "velocity": 97}, {"time": 2421, "pitch": 55, "duration": 5, "velocity": 88}, {"time": 2427, "pitch": 59, "duration": 18, "velocity": 99}, {"time": 2427, "pitch": 62, "duration": 17, "velocity": 107}, {"time": 2433, "pitch": 43, "duration": 3, "velocity": 100}, {"time": 2439, "pitch": 43, "duration": 15, "velocity": 100}, {"time": 2445, "pitch": 55, "duration": 7, "velocity": 71}, {"time": 2451, "pitch": 59, "duration": 7, "velocity": 102}, {"time": 2451, "pitch": 62, "duration": 8, "velocity": 112}, {"time": 2457, "pitch": 55, "duration": 5, "velocity": 95}, {"time": 2463, "pitch": 44, "duration": 23, "velocity": 107}, {"time": 2469, "pitch": 56, "duration": 8, "velocity": 73}, {"time": 2475, "pitch": 60, "duration": 14, "velocity": 79}, {"time": 2475, "pitch": 63, "duration": 13, "velocity": 117}, {"time": 2481, "pitch": 56, "duration": 5, "velocity": 77}, {"time": 2487, "pitch": 45, "duration": 20, "velocity": 88}, {"time": 2493, "pitch": 57, "duration": 6, "velocity": 73}, {"time": 2499, "pitch": 60, "duration": 9, "velocity": 89}, {"time": 2499, "pitch": 63, "duration": 9, "velocity": 122}, {"time": 2505, "pitch": 57, "duration": 5, "velocity": 86}, {"time": 2511, "pitch": 46, "duration": 20, "velocity": 99}, {"time": 2517, "pitch": 53, "duration": 13, "velocity": 92}, {"time": 2523, "pitch": 62, "duration": 14, "velocity": 112}, {"time": 2529, "pitch": 58, "duration": 8, "velocity": 96}, {"time": 2535, "pitch": 43, "duration": 23, "velocity": 76}, {"time": 2541, "pitch": 55, "duration": 7, "velocity": 74}, {"time": 2547, "pitch": 58, "duration": 13, "velocity": 112}, {"time": 2547, "pitch": 62, "duration": 11, "velocity": 102}, {"time": 2553, "pitch": 55, "duration": 3, "velocity": 39}, {"time": 2559, "pitch": 48, "duration": 20, "velocity": 102}, {"time": 2565, "pitch": 55, "duration": 8, "velocity": 75}, {"time": 2571, "pitch": 63, "duration": 8, "velocity": 122}, {"time": 2577, "pitch": 55, "duration": 8, "velocity": 96}, {"time": 2583, "pitch": 48, "duration": 25, "velocity": 93}, {"time": 2583, "pitch": 62, "duration": 7, "velocity": 99}, {"time": 2589, "pitch": 55, "duration": 11, "velocity": 72}, {"time": 2595, "pitch": 63, "duration": 6, "velocity": 117}, {"time": 2601, "pitch": 62, "duration": 10, "velocity": 79}, {"time": 2607, "pitch": 36, "duration": 15, "velocity": 78}, {"time": 2619, "pitch": 55, "duration": 16, "velocity": 92}, {"time": 2625, "pitch": 36, "duration": 3, "velocity": 70}, {"time": 2631, "pitch": 36, "duration": 13, "velocity": 56}, {"time": 2637, "pitch": 48, "duration": 17, "velocity": 72}, {"time": 2643, "pitch": 55, "duration": 12, "velocity": 89}, {"time": 2649, "pitch": 51, "duration": 6, "velocity": 62}, {"time": 2655, "pitch": 34, "duration": 15, "velocity": 82}, {"time": 2661, "pitch": 46, "duration": 11, "velocity": 61}, {"time": 2667, "pitch": 58, "duration": 20, "velocity": 100}, {"time": 2673, "pitch": 34, "duration": 3, "velocity": 82}, {"time": 2679, "pitch": 34, "duration": 17, "velocity": 83}, {"time": 2685, "pitch": 50, "duration": 14, "velocity": 66}, {"time": 2691, "pitch": 58, "duration": 11, "velocity": 102}, {"time": 2697, "pitch": 53, "duration": 5, "velocity": 64}, {"time": 2703, "pitch": 32, "duration": 21, "velocity": 72}, {"time": 2709, "pitch": 44, "duration": 7, "velocity": 90}, {"time": 2715, "pitch": 51, "duration": 8, "velocity": 79}, {"time": 2721, "pitch": 48, "duration": 5, "velocity": 43}, {"time": 2727, "pitch": 34, "duration": 17, "velocity": 86}, {"time": 2733, "pitch": 46, "duration": 16, "velocity": 70}, {"time": 2739, "pitch": 53, "duration": 11, "velocity": 88}, {"time": 2745, "pitch": 50, "duration": 4, "velocity": 76}, {"time": 2751, "pitch": 39, "duration": 22, "velocity": 93}, {"time": 2757, "pitch": 51, "duration": 7, "velocity": 70}, {"time": 2763, "pitch": 58, "duration": 10, "velocity": 107}, {"time": 2769, "pitch": 51, "duration": 4, "velocity": 95}, {"time": 2775, "pitch": 43, "duration": 16, "velocity": 58}, {"time": 2781, "pitch": 50, "duration": 11, "velocity": 73}, {"time": 2787, "pitch": 59, "duration": 11, "velocity": 95}, {"time": 2793, "pitch": 55, "duration": 5, "velocity": 74}, {"time": 2799, "pitch": 36, "duration": 15, "velocity": 71}, {"time": 2805, "pitch": 43, "duration": 10, "velocity": 55}, {"time": 2811, "pitch": 55, "duration": 16, "velocity": 99}, {"time": 2817, "pitch": 36, "duration": 2, "velocity": 63}, {"time": 2823, "pitch": 36, "duration": 15, "velocity": 82}, {"time": 2829, "pitch": 48, "duration": 17, "velocity": 71}, {"time": 2835, "pitch": 55, "duration": 12, "velocity": 95}, {"time": 2841, "pitch": 51, "duration": 6, "velocity": 83}, {"time": 2847, "pitch": 41, "duration": 15, "velocity": 74}, {"time": 2853, "pitch": 53, "duration": 19, "velocity": 77}, {"time": 2859, "pitch": 60, "duration": 15, "velocity": 88}, {"time": 2865, "pitch": 41, "duration": 3, "velocity": 77}, {"time": 2871, "pitch": 41, "duration": 23, "velocity": 60}, {"time": 2877, "pitch": 53, "duration": 16, "velocity": 77}, {"time": 2883, "pitch": 60, "duration": 11, "velocity": 92}, {"time": 2889, "pitch": 56, "duration": 5, "velocity": 83}, {"time": 2895, "pitch": 43, "duration": 16, "velocity": 70}, {"time": 2901, "pitch": 55, "duration": 19, "velocity": 76}, {"time": 2907, "pitch": 62, "duration": 14, "velocity": 93}, {"time": 2913, "pitch": 43, "duration": 2, "velocity": 78}, {"time": 2919, "pitch": 43, "duration": 11, "velocity": 83}, {"time": 2925, "pitch": 55, "duration": 18, "velocity": 77}, {"time": 2931, "pitch": 62, "duration": 12, "velocity": 95}, {"time": 2937, "pitch": 58, "duration": 6, "velocity": 85}, {"time": 2943, "pitch": 36, "duration": 15, "velocity": 77}, {"time": 2949, "pitch": 43, "duration": 10, "velocity": 66}, {"time": 2955, "pitch": 55, "duration": 19, "velocity": 72}, {"time": 2961, "pitch": 36, "duration": 2, "velocity": 78}, {"time": 2967, "pitch": 36, "duration": 22, "velocity": 71}, {"time": 2973, "pitch": 51, "duration": 11, "velocity": 55}, {"time": 2979, "pitch": 58, "duration": 13, "velocity": 76}, {"time": 2991, "pitch": 36, "duration": 14, "velocity": 81}, {"time": 2997, "pitch": 43, "duration": 11, "velocity": 71}, {"time": 3003, "pitch": 55, "duration": 35, "velocity": 81}, {"time": 3009, "pitch": 36, "duration": 23, "velocity": 82}, {"time": 3015, "pitch": 43, "duration": 17, "velocity": 77}, {"time": 3021, "pitch": 51, "duration": 8, "velocity": 69}, {"time": 3027, "pitch": 60, "duration": 10, "velocity": 69}, {"time": 3033, "pitch": 51, "duration": 5, "velocity": 66}, {"time": 3039, "pitch": 34, "duration": 15, "velocity": 89}, {"time": 3045, "pitch": 46, "duration": 10, "velocity": 65}, {"time": 3051, "pitch": 58, "duration": 19, "velocity": 99}, {"time": 3057, "pitch": 34, "duration": 2, "velocity": 85}, {"time": 3063, "pitch": 34, "duration": 21, "velocity": 58}, {"time": 3069, "pitch": 50, "duration": 13, "velocity": 69}, {"time": 3075, "pitch": 58, "duration": 10, "velocity": 122}, {"time": 3081, "pitch": 53, "duration": 4, "velocity": 76}, {"time": 3087, "pitch": 32, "duration": 18, "velocity": 81}, {"time": 3093, "pitch": 44, "duration": 16, "velocity": 63}, {"time": 3099, "pitch": 56, "duration": 11, "velocity": 112}, {"time": 3105, "pitch": 48, "duration": 6, "velocity": 82}, {"time": 3111, "pitch": 34, "duration": 14, "velocity": 83}, {"time": 3117, "pitch": 46, "duration": 12, "velocity": 65}, {"time": 3123, "pitch": 53, "duration": 10, "velocity": 100}, {"time": 3129, "pitch": 50, "duration": 7, "velocity": 74}, {"time": 3135, "pitch": 39, "duration": 15, "velocity": 83}, {"time": 3141, "pitch": 51, "duration": 7, "velocity": 81}, {"time": 3147, "pitch": 58, "duration": 11, "velocity": 92}, {"time": 3153, "pitch": 39, "duration": 5, "velocity": 89}, {"time": 3159, "pitch": 43, "duration": 21, "velocity": 64}, {"time": 3165, "pitch": 50, "duration": 13, "velocity": 78}, {"time": 3171, "pitch": 59, "duration": 11, "velocity": 97}, {"time": 3177, "pitch": 55, "duration": 5, "velocity": 90}, {"time": 3183, "pitch": 36, "duration": 15, "velocity": 74}, {"time": 3189, "pitch": 43, "duration": 11, "velocity": 48}, {"time": 3195, "pitch": 63, "duration": 35, "velocity": 112}, {"time": 3201, "pitch": 36, "duration": 2, "velocity": 76}, {"time": 3207, "pitch": 36, "duration": 12, "velocity": 68}, {"time": 3213, "pitch": 55, "duration": 8, "velocity": 78}, {"time": 3219, "pitch": 60, "duration": 10, "velocity": 99}, {"time": 3225, "pitch": 55, "duration": 7, "velocity": 74}, {"time": 3231, "pitch": 41, "duration": 15, "velocity": 66}, {"time": 3237, "pitch": 48, "duration": 10, "velocity": 62}, {"time": 3243, "pitch": 60, "duration": 17, "velocity": 99}, {"time": 3249, "pitch": 41, "duration": 3, "velocity": 69}, {"time": 3255, "pitch": 41, "duration": 21, "velocity": 64}, {"time": 3261, "pitch": 53, "duration": 13, "velocity": 85}, {"time": 3267, "pitch": 60, "duration": 13, "velocity": 100}, {"time": 3273, "pitch": 56, "duration": 6, "velocity": 86}, {"time": 3279, "pitch": 43, "duration": 15, "velocity": 76}, {"time": 3285, "pitch": 55, "duration": 20, "velocity": 70}, {"time": 3291, "pitch": 62, "duration": 15, "velocity": 99}, {"time": 3297, "pitch": 43, "duration": 2, "velocity": 69}, {"time": 3303, "pitch": 43, "duration": 13, "velocity": 78}, {"time": 3309, "pitch": 55, "duration": 18, "velocity": 72}, {"time": 3315, "pitch": 62, "duration": 12, "velocity": 100}, {"time": 3321, "pitch": 58, "duration": 5, "velocity": 79}, {"time": 3325, "pitch": 36, "duration": 47, "velocity": 82}, {"time": 3331, "pitch": 43, "duration": 41, "velocity": 82}, {"time": 3338, "pitch": 51, "duration": 12, "velocity": 95}, {"time": 3343, "pitch": 48, "duration": 10, "velocity": 67}, {"time": 3350, "pitch": 55, "duration": 26, "velocity": 56}, {"time": 3356, "pitch": 48, "duration": 6, "velocity": 61}, {"time": 3362, "pitch": 60, "duration": 14, "velocity": 75}, {"time": 3368, "pitch": 51, "duration": 8, "velocity": 86}, {"time": 3375, "pitch": 39, "duration": 14, "velocity": 92}, {"time": 3381, "pitch": 55, "duration": 20, "velocity": 88}, {"time": 3387, "pitch": 58, "duration": 15, "velocity": 107}, {"time": 3387, "pitch": 63, "duration": 15, "velocity": 117}, {"time": 3393, "pitch": 39, "duration": 2, "velocity": 81}, {"time": 3399, "pitch": 39, "duration": 22, "velocity": 93}, {"time": 3405, "pitch": 55, "duration": 20, "velocity": 78}, {"time": 3411, "pitch": 63, "duration": 15, "velocity": 127}, {"time": 3417, "pitch": 58, "duration": 9, "velocity": 112}, {"time": 3423, "pitch": 39, "duration": 15, "velocity": 97}, {"time": 3429, "pitch": 55, "duration": 19, "velocity": 90}, {"time": 3435, "pitch": 58, "duration": 14, "velocity": 97}, {"time": 3435, "pitch": 63, "duration": 17, "velocity": 122}, {"time": 3441, "pitch": 39, "duration": 2, "velocity": 63}, {"time": 3447, "pitch": 39, "duration": 23, "velocity": 96}, {"time": 3453, "pitch": 58, "duration": 17, "velocity": 102}, {"time": 3459, "pitch": 63, "duration": 10, "velocity": 127}, {"time": 3465, "pitch": 55, "duration": 6, "velocity": 90}, {"time": 3471, "pitch": 46, "duration": 14, "velocity": 99}, {"time": 3477, "pitch": 53, "duration": 8, "velocity": 85}, {"time": 3483, "pitch": 58, "duration": 19, "velocity": 107}, {"time": 3483, "pitch": 62, "duration": 15, "velocity": 102}, {"time": 3489, "pitch": 46, "duration": 2, "velocity": 107}, {"time": 3495, "pitch": 46, "duration": 14, "velocity": 112}, {"time": 3501, "pitch": 53, "duration": 7, "velocity": 89}, {"time": 3507, "pitch": 58, "duration": 16, "velocity": 93}, {"time": 3507, "pitch": 62, "duration": 8, "velocity": 102}, {"time": 3513, "pitch": 53, "duration": 4, "velocity": 85}, {"time": 3519, "pitch": 39, "duration": 16, "velocity": 99}, {"time": 3525, "pitch": 51, "duration": 7, "velocity": 89}, {"time": 3531, "pitch": 63, "duration": 9, "velocity": 122}, {"time": 3537, "pitch": 58, "duration": 4, "velocity": 99}, {"time": 3543, "pitch": 36, "duration": 13, "velocity": 93}, {"time": 3549, "pitch": 55, "duration": 6, "velocity": 79}, {"time": 3555, "pitch": 60, "duration": 11, "velocity": 102}, {"time": 3555, "pitch": 64, "duration": 11, "velocity": 99}, {"time": 3561, "pitch": 55, "duration": 6, "velocity": 86}, {"time": 3567, "pitch": 41, "duration": 15, "velocity": 95}, {"time": 3573, "pitch": 53, "duration": 7, "velocity": 77}, {"time": 3579, "pitch": 56, "duration": 17, "velocity": 93}, {"time": 3579, "pitch": 60, "duration": 17, "velocity": 95}, {"time": 3585, "pitch": 41, "duration": 2, "velocity": 74}, {"time": 3591, "pitch": 41, "duration": 21, "velocity": 69}, {"time": 3597, "pitch": 53, "duration": 7, "velocity": 85}, {"time": 3603, "pitch": 56, "duration": 14, "velocity": 97}, {"time": 3603, "pitch": 60, "duration": 15, "velocity": 95}, {"time": 3615, "pitch": 41, "duration": 14, "velocity": 90}, {"time": 3621, "pitch": 53, "duration": 13, "velocity": 90}, {"time": 3627, "pitch": 56, "duration": 13, "velocity": 95}, {"time": 3627, "pitch": 60, "duration": 13, "velocity": 92}, {"time": 3633, "pitch": 41, "duration": 2, "velocity": 74}, {"time": 3639, "pitch": 41, "duration": 16, "velocity": 81}, {"time": 3645, "pitch": 53, "duration": 8, "velocity": 85}, {"time": 3651, "pitch": 56, "duration": 11, "velocity": 99}, {"time": 3651, "pitch": 60, "duration": 11, "velocity": 93}, {"time": 3663, "pitch": 46, "duration": 14, "velocity": 97}, {"time": 3669, "pitch": 53, "duration": 8, "velocity": 85}, {"time": 3675, "pitch": 58, "duration": 16, "velocity": 95}, {"time": 3675, "pitch": 62, "duration": 14, "velocity": 93}, {"time": 3681, "pitch": 46, "duration": 2, "velocity": 88}, {"time": 3687, "pitch": 46, "duration": 21, "velocity": 102}, {"time": 3693, "pitch": 53, "duration": 17, "velocity": 73}, {"time": 3699, "pitch": 58, "duration": 15, "velocity": 96}, {"time": 3699, "pitch": 62, "duration": 9, "velocity": 90}, {"time": 3711, "pitch": 48, "duration": 15, "velocity": 92}, {"time": 3717, "pitch": 55, "duration": 22, "velocity": 86}, {"time": 3723, "pitch": 60, "duration": 16, "velocity": 96}, {"time": 3723, "pitch": 63, "duration": 17, "velocity": 117}, {"time": 3729, "pitch": 36, "duration": 2, "velocity": 69}, {"time": 3735, "pitch": 36, "duration": 17, "velocity": 88}, {"time": 3741, "pitch": 55, "duration": 19, "velocity": 50}, {"time": 3747, "pitch": 60, "duration": 13, "velocity": 93}, {"time": 3747, "pitch": 63, "duration": 14, "velocity": 107}, {"time": 3759, "pitch": 36, "duration": 14, "velocity": 92}, {"time": 3765, "pitch": 55, "duration": 20, "velocity": 66}, {"time": 3771, "pitch": 60, "duration": 15, "velocity": 92}, {"time": 3771, "pitch": 63, "duration": 16, "velocity": 107}, {"time": 3777, "pitch": 36, "duration": 2, "velocity": 76}, {"time": 3783, "pitch": 36, "duration": 13, "velocity": 78}, {"time": 3789, "pitch": 55, "duration": 7, "velocity": 58}, {"time": 3795, "pitch": 60, "duration": 13, "velocity": 73}, {"time": 3795, "pitch": 63, "duration": 9, "velocity": 85}, {"time": 3807, "pitch": 46, "duration": 14, "velocity": 102}, {"time": 3813, "pitch": 53, "duration": 21, "velocity": 70}, {"time": 3819, "pitch": 62, "duration": 17, "velocity": 93}, {"time": 3825, "pitch": 46, "duration": 2, "velocity": 93}, {"time": 3831, "pitch": 46, "duration": 24, "velocity": 96}, {"time": 3837, "pitch": 53, "duration": 18, "velocity": 52}, {"time": 3843, "pitch": 62, "duration": 12, "velocity": 97}, {"time": 3855, "pitch": 44, "duration": 21, "velocity": 100}, {"time": 3861, "pitch": 60, "duration": 6, "velocity": 92}, {"time": 3867, "pitch": 63, "duration": 7, "velocity": 127}, {"time": 3873, "pitch": 60, "duration": 4, "velocity": 49}, {"time": 3879, "pitch": 46, "duration": 12, "velocity": 102}, {"time": 3885, "pitch": 53, "duration": 12, "velocity": 72}, {"time": 3891, "pitch": 62, "duration": 8, "velocity": 107}, {"time": 3897, "pitch": 58, "duration": 9, "velocity": 90}, {"time": 3903, "pitch": 39, "duration": 13, "velocity": 97}, {"time": 3909, "pitch": 51, "duration": 7, "velocity": 85}, {"time": 3915, "pitch": 63, "duration": 10, "velocity": 127}, {"time": 3921, "pitch": 58, "duration": 5, "velocity": 99}, {"time": 3927, "pitch": 43, "duration": 17, "velocity": 81}, {"time": 3933, "pitch": 55, "duration": 6, "velocity": 88}, {"time": 3939, "pitch": 59, "duration": 14, "velocity": 89}, {"time": 3939, "pitch": 62, "duration": 11, "velocity": 99}, {"time": 3951, "pitch": 48, "duration": 21, "velocity": 96}, {"time": 3957, "pitch": 55, "duration": 13, "velocity": 76}, {"time": 3963, "pitch": 63, "duration": 16, "velocity": 122}, {"time": 3969, "pitch": 60, "duration": 11, "velocity": 97}, {"time": 3975, "pitch": 48, "duration": 14, "velocity": 93}, {"time": 3981, "pitch": 55, "duration": 18, "velocity": 67}, {"time": 3987, "pitch": 63, "duration": 8, "velocity": 127}, {"time": 3993, "pitch": 48, "duration": 5, "velocity": 107}, {"time": 3999, "pitch": 41, "duration": 14, "velocity": 71}, {"time": 4005, "pitch": 53, "duration": 13, "velocity": 63}, {"time": 4011, "pitch": 60, "duration": 15, "velocity": 100}, {"time": 4017, "pitch": 41, "duration": 2, "velocity": 88}, {"time": 4023, "pitch": 41, "duration": 23, "velocity": 90}, {"time": 4029, "pitch": 53, "duration": 15, "velocity": 76}, {"time": 4035, "pitch": 60, "duration": 13, "velocity": 112}, {"time": 4041, "pitch": 56, "duration": 6, "velocity": 93}, {"time": 4047, "pitch": 43, "duration": 14, "velocity": 107}, {"time": 4053, "pitch": 55, "duration": 31, "velocity": 70}, {"time": 4059, "pitch": 62, "duration": 18, "velocity": 100}, {"time": 4065, "pitch": 43, "duration": 3, "velocity": 89}, {"time": 4071, "pitch": 43, "duration": 19, "velocity": 89}, {"time": 4077, "pitch": 58, "duration": 8, "velocity": 100}, {"time": 4083, "pitch": 62, "duration": 9, "velocity": 97}, {"time": 4089, "pitch": 55, "duration": 8, "velocity": 76}, {"time": 4095, "pitch": 48, "duration": 15, "velocity": 92}, {"time": 4101, "pitch": 55, "duration": 21, "velocity": 82}, {"time": 4107, "pitch": 63, "duration": 16, "velocity": 107}, {"time": 4113, "pitch": 48, "duration": 2, "velocity": 86}, {"time": 4119, "pitch": 48, "duration": 22, "velocity": 90}, {"time": 4125, "pitch": 55, "duration": 17, "velocity": 78}, {"time": 4131, "pitch": 63, "duration": 11, "velocity": 122}, {"time": 4137, "pitch": 60, "duration": 6, "velocity": 96}, {"time": 4143, "pitch": 48, "duration": 21, "velocity": 96}, {"time": 4149, "pitch": 55, "duration": 13, "velocity": 76}, {"time": 4155, "pitch": 63, "duration": 16, "velocity": 122}, {"time": 4161, "pitch": 60, "duration": 11, "velocity": 97}, {"time": 4167, "pitch": 48, "duration": 14, "velocity": 93}, {"time": 4173, "pitch": 55, "duration": 18, "velocity": 67}, {"time": 4179, "pitch": 63, "duration": 8, "velocity": 127}, {"time": 4185, "pitch": 48, "duration": 5, "velocity": 107}, {"time": 4191, "pitch": 41, "duration": 14, "velocity": 71}, {"time": 4197, "pitch": 53, "duration": 13, "velocity": 63}, {"time": 4203, "pitch": 60, "duration": 15, "velocity": 100}, {"time": 4209, "pitch": 41, "duration": 2, "velocity": 88}, {"time": 4215, "pitch": 41, "duration": 23, "velocity": 90}, {"time": 4221, "pitch": 53, "duration": 15, "velocity": 76}, {"time": 4227, "pitch": 60, "duration": 13, "velocity": 112}, {"time": 4233, "pitch": 56, "duration": 6, "velocity": 93}, {"time": 4239, "pitch": 43, "duration": 14, "velocity": 107}, {"time": 4245, "pitch": 55, "duration": 31, "velocity": 70}, {"time": 4251, "pitch": 62, "duration": 18, "velocity": 100}, {"time": 4257, "pitch": 43, "duration": 3, "velocity": 89}, {"time": 4263, "pitch": 43, "duration": 19, "velocity": 89}, {"time": 4269, "pitch": 58, "duration": 8, "velocity": 100}, {"time": 4275, "pitch": 62, "duration": 9, "velocity": 97}, {"time": 4281, "pitch": 55, "duration": 8, "velocity": 76}, {"time": 4287, "pitch": 48, "duration": 15, "velocity": 92}, {"time": 4293, "pitch": 55, "duration": 21, "velocity": 82}, {"time": 4299, "pitch": 63, "duration": 16, "velocity": 107}, {"time": 4305, "pitch": 48, "duration": 2, "velocity": 86}, {"time": 4311, "pitch": 48, "duration": 22, "velocity": 90}, {"time": 4317, "pitch": 55, "duration": 17, "velocity": 78}, {"time": 4323, "pitch": 63, "duration": 11, "velocity": 122}, {"time": 4329, "pitch": 60, "duration": 6, "velocity": 96}, {"time": 4335, "pitch": 48, "duration": 21, "velocity": 96}, {"time": 4341, "pitch": 55, "duration": 13, "velocity": 76}, {"time": 4347, "pitch": 63, "duration": 16, "velocity": 122}, {"time": 4353, "pitch": 60, "duration": 11, "velocity": 97}, {"time": 4359, "pitch": 48, "duration": 14, "velocity": 93}, {"time": 4365, "pitch": 55, "duration": 18, "velocity": 67}, {"time": 4371, "pitch": 63, "duration": 8, "velocity": 127}, {"time": 4377, "pitch": 48, "duration": 5, "velocity": 107}, {"time": 4383, "pitch": 41, "duration": 14, "velocity": 71}, {"time": 4389, "pitch": 53, "duration": 13, "velocity": 63}, {"time": 4395, "pitch": 60, "duration": 15, "velocity": 100}, {"time": 4401, "pitch": 41, "duration": 2, "velocity": 88}, {"time": 4407, "pitch": 41, "duration": 23, "velocity": 90}, {"time": 4413, "pitch": 53, "duration": 15, "velocity": 76}, {"time": 4419, "pitch": 60, "duration": 13, "velocity": 112}, {"time": 4425, "pitch": 56, "duration": 6, "velocity": 93}, {"time": 4431, "pitch": 43, "duration": 14, "velocity": 107}, {"time": 4437, "pitch": 55, "duration": 31, "velocity": 70}, {"time": 4443, "pitch": 62, "duration": 18, "velocity": 100}, {"time": 4449, "pitch": 43, "duration": 3, "velocity": 89}, {"time": 4455, "pitch": 43, "duration": 19, "velocity": 89}, {"time": 4461, "pitch": 58, "duration": 8, "velocity": 100}, {"time": 4467, "pitch": 62, "duration": 9, "velocity": 97}, {"time": 4473, "pitch": 55, "duration": 8, "velocity": 76}, {"time": 4479, "pitch": 48, "duration": 15, "velocity": 92}, {"time": 4485, "pitch": 55, "duration": 21, "velocity": 82}, {"time": 4491, "pitch": 63, "duration": 16, "velocity": 107}, {"time": 4497, "pitch": 48, "duration": 2, "velocity": 86}, {"time": 4503, "pitch": 48, "duration": 22, "velocity": 90}, {"time": 4509, "pitch": 55, "duration": 17, "velocity": 78}, {"time": 4515, "pitch": 63, "duration": 11, "velocity": 122}, {"time": 4521, "pitch": 60, "duration": 6, "velocity": 96}, {"time": 4527, "pitch": 48, "duration": 21, "velocity": 96}, {"time": 4533, "pitch": 55, "duration": 13, "velocity": 76}, {"time": 4539, "pitch": 63, "duration": 16, "velocity": 122}, {"time": 4545, "pitch": 60, "duration": 11, "velocity": 97}, {"time": 4551, "pitch": 48, "duration": 14, "velocity": 93}, {"time": 4557, "pitch": 55, "duration": 18, "velocity": 67}, {"time": 4563, "pitch": 63, "duration": 8, "velocity": 127}, {"time": 4569, "pitch": 48, "duration": 5, "velocity": 107}, {"time": 4575, "pitch": 41, "duration": 14, "velocity": 71}, {"time": 4581, "pitch": 53, "duration": 13, "velocity": 63}, {"time": 4587, "pitch": 60, "duration": 15, "velocity": 100}, {"time": 4593, "pitch": 41, "duration": 2, "velocity": 88}, {"time": 4599, "pitch": 41, "duration": 23, "velocity": 90}, {"time": 4605, "pitch": 53, "duration": 15, "velocity": 76}, {"time": 4611, "pitch": 60, "duration": 13, "velocity": 112}, {"time": 4617, "pitch": 56, "duration": 6, "velocity": 93}, {"time": 4623, "pitch": 43, "duration": 14, "velocity": 107}, {"time": 4629, "pitch": 55, "duration": 31, "velocity": 70}, {"time": 4635, "pitch": 62, "duration": 18, "velocity": 100}, {"time": 4641, "pitch": 43, "duration": 3, "velocity": 89}, {"time": 4647, "pitch": 43, "duration": 19, "velocity": 89}, {"time": 4653, "pitch": 58, "duration": 8, "velocity": 100}, {"time": 4659, "pitch": 62, "duration": 9, "velocity": 97}, {"time": 4665, "pitch": 55, "duration": 8, "velocity": 76}, {"time": 4671, "pitch": 48, "duration": 15, "velocity": 92}, {"time": 4677, "pitch": 55, "duration": 21, "velocity": 82}, {"time": 4683, "pitch": 63, "duration": 16, "velocity": 107}, {"time": 4689, "pitch": 48, "duration": 2, "velocity": 86}, {"time": 4695, "pitch": 48, "duration": 22, "velocity": 90}, {"time": 4701, "pitch": 55, "duration": 17, "velocity": 78}, {"time": 4707, "pitch": 63, "duration": 11, "velocity": 122}, {"time": 4713, "pitch": 60, "duration": 6, "velocity": 96}, {"time": 4719, "pitch": 48, "duration": 21, "velocity": 96}, {"time": 4725, "pitch": 55, "duration": 13, "velocity": 76}, {"time": 4731, "pitch": 63, "duration": 16, "velocity": 122}, {"time": 4737, "pitch": 60, "duration": 11, "velocity": 97}, {"time": 4743, "pitch": 48, "duration": 14, "velocity": 93}, {"time": 4749, "pitch": 55, "duration": 18, "velocity": 67}, {"time": 4755, "pitch": 63, "duration": 8, "velocity": 127}, {"time": 4761, "pitch": 48, "duration": 5, "velocity": 107}, {"time": 4767, "pitch": 41, "duration": 14, "velocity": 71}, {"time": 4773, "pitch": 53, "duration": 13, "velocity": 63}, {"time": 4779, "pitch": 60, "duration": 15, "velocity": 100}, {"time": 4785, "pitch": 41, "duration": 2, "velocity": 88}, {"time": 4791, "pitch": 41, "duration": 23, "velocity": 90}, {"time": 4797, "pitch": 53, "duration": 15, "velocity": 76}, {"time": 4803, "pitch": 60, "duration": 13, "velocity": 112}, {"time": 4809, "pitch": 56, "duration": 6, "velocity": 93}, {"time": 4815, "pitch": 43, "duration": 14, "velocity": 107}, {"time": 4821, "pitch": 55, "duration": 31, "velocity": 70}, {"time": 4827, "pitch": 62, "duration": 18, "velocity": 100}, {"time": 4833, "pitch": 43, "duration": 3, "velocity": 89}, {"time": 4839, "pitch": 43, "duration": 19, "velocity": 89}, {"time": 4845, "pitch": 58, "duration": 8, "velocity": 100}, {"time": 4851, "pitch": 62, "duration": 9, "velocity": 97}, {"time": 4857, "pitch": 55, "duration": 8, "velocity": 76}, {"time": 4863, "pitch": 48, "duration": 15, "velocity": 92}, {"time": 4869, "pitch": 55, "duration": 21, "velocity": 82}, {"time": 4875, "pitch": 63, "duration": 16, "velocity": 107}, {"time": 4881, "pitch": 48, "duration": 2, "velocity": 86}, {"time": 4887, "pitch": 48, "duration": 22, "velocity": 90}, {"time": 4893, "pitch": 55, "duration": 17, "velocity": 78}, {"time": 4899, "pitch": 63, "duration": 11, "velocity": 122}], "annotations": [{"time": 3, "annotation": {"number": 7, "value": 101}, "group": "control_change"}, {"time": 14, "annotation": {"number": 64, "value": 127}, "group": "control_change"}, {"time": 58, "annotation": {"number": 64, "value": 0}, "group": "control_change"}, {"time": 62, "annotation": {"number": 64, "value": 127}, "group": "control_change"}, {"time": 107, "annotation": {"number": 64, "value": 0}, "group": "control_change"}, {"time": 111, "annotation": {"number": 64, "value": 127}, "group": "control_change"}, {"time": 152, "annotation": {"number": 64, "value": 0}, "group": "control_change"}, {"time": 158, "annotation": {"number": 64, "value": 127}, "group": "control_change"}, {"time": 201, "annotation": {"number": 64, "value": 0}, "group": "control_change"}, {"time": 207, "annotation": {"number": 64, "value": 127}, "group": "control_change"}, {"time": 249, "annotation": {"number": 64, "value": 0}, "group": "control_change"}, {"time": 254, "annotation": {"number": 64, "value": 127}, "group": "control_change"}, {"time": 300, "annotation": {"number": 64, "value": 0}, "group": "control_change"}, {"time": 305, "annotation": {"number": 64, "value": 127}, "group": "control_change"}, {"time": 347, "annotation": {"number": 64, "value": 0}, "group": "control_change"}, {"time": 351, "annotation": {"number": 64, "value": 127}, "group": "control_change"}, {"time": 394, "annotation": {"number": 64, "value": 0}, "group": "control_change"}, {"time": 398, "annotation": {"number": 64, "value": 127}, "group": "control_change"}, {"time": 442, "annotation": {"number": 64, "value": 0}, "group": "control_change"}, {"time": 447, "annotation": {"number": 64, "value": 127}, "group": "control_change"}, {"time": 490, "annotation": {"number": 64, "value": 0}, "group": "control_change"}, {"time": 495, "annotation": {"number": 64, "value": 127}, "group": "control_change"}, {"time": 538, "annotation": {"number": 64, "value": 0}, "group": "control_change"}, {"time": 542, "annotation": {"number": 64, "value": 127}, "group": "control_change"}, {"time": 587, "annotation": {"number": 64, "value": 0}, "group": "control_change"}, {"time": 592, "annotation": {"number": 64, "value": 127}, "group": "control_change"}, {"time": 634, "annotation": {"number": 64, "value": 0}, "group": "control_change"}, {"time": 638, "annotation": {"number": 64, "value": 127}, "group": "control_change"}, {"time": 682, "annotation": {"number": 64, "value": 0}, "group": "control_change"}, {"time": 687, "annotation": {"number": 64, "value": 127}, "group": "control_change"}, {"time": 782, "annotation": {"number": 64, "value": 0}, "group": "control_change"}, {"time": 786, "annotation": {"number": 64, "value": 127}, "group": "control_change"}, {"time": 804, "annotation": {"number": 64, "value": 0}, "group": "control_change"}, {"time": 808, "annotation": {"number": 64, "value": 127}, "group": "control_change"}, {"time": 828, "annotation": {"number": 64, "value": 0}, "group": "control_change"}, {"time": 832, "annotation": {"number": 64, "value": 127}, "group": "control_change"}, {"time": 853, "annotation": {"number": 64, "value": 0}, "group": "control_change"}, {"time": 859, "annotation": {"number": 64, "value": 127}, "group": "control_change"}, {"time": 874, "annotation": {"number": 64, "value": 0}, "group": "control_change"}, {"time": 879, "annotation": {"number": 64, "value": 127}, "group": "control_change"}, {"time": 899, "annotation": {"number": 64, "value": 0}, "group": "control_change"}, {"time": 903, "annotation": {"number": 64, "value": 127}, "group": "control_change"}, {"time": 923, "annotation": {"number": 64, "value": 0}, "group": "control_change"}, {"time": 928, "annotation": {"number": 64, "value": 127}, "group": "control_change"}, {"time": 940, "annotation": {"number": 64, "value": 0}, "group": "control_change"}, {"time": 944, "annotation": {"number": 64, "value": 127}, "group": "control_change"}, {"time": 970, "annotation": {"number": 64, "value": 0}, "group": "control_change"}, {"time": 975, "annotation": {"number": 64, "value": 127}, "group": "control_change"}, {"time": 990, "annotation": {"number": 64, "value": 0}, "group": "control_change"}, {"time": 998, "annotation": {"number": 64, "value": 127}, "group": "control_change"}, {"time": 1019, "annotation": {"number": 64, "value": 0}, "group": "control_change"}, {"time": 1024, "annotation": {"number": 64, "value": 127}, "group": "control_change"}, {"time": 1037, "annotation": {"number": 64, "value": 0}, "group": "control_change"}, {"time": 1040, "annotation": {"number": 64, "value": 127}, "group": "control_change"}, {"time": 1042, "annotation": {"number": 64, "value": 0}, "group": "control_change"}, {"time": 1048, "annotation": {"number": 64, "value": 127}, "group": "control_change"}, {"time": 1057, "annotation": {"number": 64, "value": 0}, "group": "control_change"}, {"time": 1071, "annotation": {"number": 64, "value": 127}, "group": "control_change"}, {"time": 1102, "annotation": {"number": 64, "value": 0}, "group": "control_change"}, {"time": 1107, "annotation": {"number": 64, "value": 127}, "group": "control_change"}, {"time": 1115, "annotation": {"number": 64, "value": 0}, "group": "control_change"}, {"time": 1119, "annotation": {"number": 64, "value": 127}, "group": "control_change"}, {"time": 1140, "annotation": {"number": 64, "value": 0}, "group": "control_change"}, {"time": 1144, "annotation": {"number": 64, "value": 127}, "group": "control_change"}, {"time": 1163, "annotation": {"number": 64, "value": 0}, "group": "control_change"}, {"time": 1168, "annotation": {"number": 64, "value": 127}, "group": "control_change"}, {"time": 1185, "annotation": {"number": 64, "value": 0}, "group": "control_change"}, {"time": 1191, "annotation": {"number": 64, "value": 127}, "group": "control_change"}, {"time": 1212, "annotation": {"number": 64, "value": 0}, "group": "control_change"}, {"time": 1217, "annotation": {"number": 64, "value": 127}, "group": "control_change"}, {"time": 1234, "annotation": {"number": 64, "value": 0}, "group": "control_change"}, {"time": 1250, "annotation": {"number": 64, "value": 127}, "group": "control_change"}, {"time": 1257, "annotation": {"number": 64, "value": 0}, "group": "control_change"}, {"time": 1264, "annotation": {"number": 64, "value": 127}, "group": "control_change"}, {"time": 1274, "annotation": {"number": 64, "value": 0}, "group": "control_change"}, {"time": 1279, "annotation": {"number": 64, "value": 127}, "group": "control_change"}, {"time": 1307, "annotation": {"number": 64, "value": 0}, "group": "control_change"}, {"time": 1313, "annotation": {"number": 64, "value": 127}, "group": "control_change"}, {"time": 1324, "annotation": {"number": 64, "value": 0}, "group": "control_change"}, {"time": 1329, "annotation": {"number": 64, "value": 127}, "group": "control_change"}, {"time": 1331, "annotation": {"number": 64, "value": 0}, "group": "control_change"}, {"time": 1336, "annotation": {"number": 64, "value": 127}, "group": "control_change"}, {"time": 1353, "annotation": {"number": 64, "value": 0}, "group": "control_change"}, {"time": 1359, "annotation": {"number": 64, "value": 127}, "group": "control_change"}, {"time": 1370, "annotation": {"number": 64, "value": 0}, "group": "control_change"}, {"time": 1375, "annotation": {"number": 64, "value": 127}, "group": "control_change"}, {"time": 1401, "annotation": {"number": 64, "value": 0}, "group": "control_change"}, {"time": 1406, "annotation": {"number": 64, "value": 127}, "group": "control_change"}, {"time": 1451, "annotation": {"number": 64, "value": 0}, "group": "control_change"}, {"time": 1454, "annotation": {"number": 64, "value": 127}, "group": "control_change"}, {"time": 1465, "annotation": {"number": 64, "value": 0}, "group": "control_change"}, {"time": 1469, "annotation": {"number": 64, "value": 127}, "group": "control_change"}, {"time": 1501, "annotation": {"number": 64, "value": 0}, "group": "control_change"}, {"time": 1505, "annotation": {"number": 64, "value": 127}, "group": "control_change"}, {"time": 1526, "annotation": {"number": 64, "value": 0}, "group": "control_change"}, {"time": 1531, "annotation": {"number": 64, "value": 127}, "group": "control_change"}, {"time": 1549, "annotation": {"number": 64, "value": 0}, "group": "control_change"}, {"time": 1554, "annotation": {"number": 64, "value": 127}, "group": "control_change"}, {"time": 1564, "annotation": {"number": 64, "value": 0}, "group": "control_change"}, {"time": 1567, "annotation": {"number": 64, "value": 127}, "group": "control_change"}, {"time": 1572, "annotation": {"number": 64, "value": 0}, "group": "control_change"}, {"time": 1577, "annotation": {"number": 64, "value": 127}, "group": "control_change"}, {"time": 1596, "annotation": {"number": 64, "value": 0}, "group": "control_change"}, {"time": 1600, "annotation": {"number": 64, "value": 127}, "group": "control_change"}, {"time": 1610, "annotation": {"number": 64, "value": 0}, "group": "control_change"}, {"time": 1615, "annotation": {"number": 64, "value": 127}, "group": "control_change"}, {"time": 1617, "annotation": {"number": 64, "value": 0}, "group": "control_change"}, {"time": 1625, "annotation": {"number": 64, "value": 127}, "group": "control_change"}, {"time": 1644, "annotation": {"number": 64, "value": 0}, "group": "control_change"}, {"time": 1649, "annotation": {"number": 64, "value": 127}, "group": "control_change"}, {"time": 1661, "annotation": {"number": 64, "value": 0}, "group": "control_change"}, {"time": 1666, "annotation": {"number": 64, "value": 127}, "group": "control_change"}, {"time": 1691, "annotation": {"number": 64, "value": 0}, "group": "control_change"}, {"time": 1696, "annotation": {"number": 64, "value": 127}, "group": "control_change"}, {"time": 1727, "annotation": {"number": 64, "value": 0}, "group": "control_change"}, {"time": 1744, "annotation": {"number": 64, "value": 127}, "group": "control_change"}, {"time": 1764, "annotation": {"number": 64, "value": 0}, "group": "control_change"}, {"time": 1769, "annotation": {"number": 64, "value": 127}, "group": "control_change"}, {"time": 1785, "annotation": {"number": 64, "value": 0}, "group": "control_change"}, {"time": 1791, "annotation": {"number": 64, "value": 127}, "group": "control_change"}, {"time": 1805, "annotation": {"number": 64, "value": 0}, "group": "control_change"}, {"time": 1809, "annotation": {"number": 64, "value": 127}, "group": "control_change"}, {"time": 1813, "annotation": {"number": 64, "value": 0}, "group": "control_change"}, {"time": 1818, "annotation": {"number": 64, "value": 127}, "group": "control_change"}, {"time": 1834, "annotation": {"number": 64, "value": 0}, "group": "control_change"}, {"time": 1840, "annotation": {"number": 64, "value": 127}, "group": "control_change"}, {"time": 1857, "annotation": {"number": 64, "value": 0}, "group": "control_change"}, {"time": 1866, "annotation": {"number": 64, "value": 127}, "group": "control_change"}, {"time": 1934, "annotation": {"number": 64, "value": 127}, "group": "control_change"}, {"time": 1957, "annotation": {"number": 64, "value": 0}, "group": "control_change"}, {"time": 1961, "annotation": {"number": 64, "value": 127}, "group": "control_change"}, {"time": 1980, "annotation": {"number": 64, "value": 0}, "group": "control_change"}, {"time": 1984, "annotation": {"number": 64, "value": 127}, "group": "control_change"}, {"time": 2004, "annotation": {"number": 64, "value": 0}, "group": "control_change"}, {"time": 2009, "annotation": {"number": 64, "value": 127}, "group": "control_change"}, {"time": 2029, "annotation": {"number": 64, "value": 0}, "group": "control_change"}, {"time": 2031, "annotation": {"number": 64, "value": 127}, "group": "control_change"}, {"time": 2051, "annotation": {"number": 64, "value": 0}, "group": "control_change"}, {"time": 2057, "annotation": {"number": 64, "value": 127}, "group": "control_change"}, {"time": 2067, "annotation": {"number": 64, "value": 0}, "group": "control_change"}, {"time": 2072, "annotation": {"number": 64, "value": 127}, "group": "control_change"}, {"time": 2072, "annotation": {"number": 64, "value": 0}, "group": "control_change"}, {"time": 2079, "annotation": {"number": 64, "value": 127}, "group": "control_change"}, {"time": 2092, "annotation": {"number": 64, "value": 0}, "group": "control_change"}, {"time": 2096, "annotation": {"number": 64, "value": 127}, "group": "control_change"}, {"time": 2123, "annotation": {"number": 64, "value": 0}, "group": "control_change"}, {"time": 2127, "annotation": {"number": 64, "value": 127}, "group": "control_change"}, {"time": 2139, "annotation": {"number": 64, "value": 0}, "group": "control_change"}, {"time": 2143, "annotation": {"number": 64, "value": 127}, "group": "control_change"}, {"time": 2168, "annotation": {"number": 64, "value": 0}, "group": "control_change"}, {"time": 2195, "annotation": {"number": 64, "value": 0}, "group": "control_change"}, {"time": 2200, "annotation": {"number": 64, "value": 127}, "group": "control_change"}, {"time": 2220, "annotation": {"number": 64, "value": 0}, "group": "control_change"}, {"time": 2222, "annotation": {"number": 64, "value": 127}, "group": "control_change"}, {"time": 2244, "annotation": {"number": 64, "value": 0}, "group": "control_change"}, {"time": 2249, "annotation": {"number": 64, "value": 127}, "group": "control_change"}, {"time": 2268, "annotation": {"number": 64, "value": 0}, "group": "control_change"}, {"time": 2272, "annotation": {"number": 64, "value": 127}, "group": "control_change"}, {"time": 2285, "annotation": {"number": 64, "value": 0}, "group": "control_change"}, {"time": 2288, "annotation": {"number": 64, "value": 127}, "group": "control_change"}, {"time": 2315, "annotation": {"number": 64, "value": 0}, "group": "control_change"}, {"time": 2319, "annotation": {"number": 64, "value": 127}, "group": "control_change"}, {"time": 2362, "annotation": {"number": 64, "value": 0}, "group": "control_change"}, {"time": 2366, "annotation": {"number": 64, "value": 127}, "group": "control_change"}, {"time": 2381, "annotation": {"number": 64, "value": 0}, "group": "control_change"}, {"time": 2384, "annotation": {"number": 64, "value": 127}, "group": "control_change"}, {"time": 2410, "annotation": {"number": 64, "value": 0}, "group": "control_change"}, {"time": 2416, "annotation": {"number": 64, "value": 127}, "group": "control_change"}, {"time": 2458, "annotation": {"number": 64, "value": 0}, "group": "control_change"}, {"time": 2463, "annotation": {"number": 64, "value": 127}, "group": "control_change"}, {"time": 2482, "annotation": {"number": 64, "value": 0}, "group": "control_change"}, {"time": 2491, "annotation": {"number": 64, "value": 127}, "group": "control_change"}, {"time": 2507, "annotation": {"number": 64, "value": 0}, "group": "control_change"}, {"time": 2559, "annotation": {"number": 64, "value": 127}, "group": "control_change"}, {"time": 2606, "annotation": {"number": 64, "value": 0}, "group": "control_change"}, {"time": 2607, "annotation": {"number": 64, "value": 127}, "group": "control_change"}, {"time": 2702, "annotation": {"number": 64, "value": 0}, "group": "control_change"}, {"time": 2706, "annotation": {"number": 64, "value": 127}, "group": "control_change"}, {"time": 2724, "annotation": {"number": 64, "value": 0}, "group": "control_change"}, {"time": 2728, "annotation": {"number": 64, "value": 127}, "group": "control_change"}, {"time": 2748, "annotation": {"number": 64, "value": 0}, "group": "control_change"}, {"time": 2752, "annotation": {"number": 64, "value": 127}, "group": "control_change"}, {"time": 2773, "annotation": {"number": 64, "value": 0}, "group": "control_change"}, {"time": 2779, "annotation": {"number": 64, "value": 127}, "group": "control_change"}, {"time": 2794, "annotation": {"number": 64, "value": 0}, "group": "control_change"}, {"time": 2799, "annotation": {"number": 64, "value": 127}, "group": "control_change"}, {"time": 2819, "annotation": {"number": 64, "value": 0}, "group": "control_change"}, {"time": 2823, "annotation": {"number": 64, "value": 127}, "group": "control_change"}, {"time": 2843, "annotation": {"number": 64, "value": 0}, "group": "control_change"}, {"time": 2848, "annotation": {"number": 64, "value": 127}, "group": "control_change"}, {"time": 2860, "annotation": {"number": 64, "value": 0}, "group": "control_change"}, {"time": 2864, "annotation": {"number": 64, "value": 127}, "group": "control_change"}, {"time": 2890, "annotation": {"number": 64, "value": 0}, "group": "control_change"}, {"time": 2895, "annotation": {"number": 64, "value": 127}, "group": "control_change"}, {"time": 2910, "annotation": {"number": 64, "value": 0}, "group": "control_change"}, {"time": 2918, "annotation": {"number": 64, "value": 127}, "group": "control_change"}, {"time": 2939, "annotation": {"number": 64, "value": 0}, "group": "control_change"}, {"time": 2944, "annotation": {"number": 64, "value": 127}, "group": "control_change"}, {"time": 2957, "annotation": {"number": 64, "value": 0}, "group": "control_change"}, {"time": 2960, "annotation": {"number": 64, "value": 127}, "group": "control_change"}, {"time": 2962, "annotation": {"number": 64, "value": 0}, "group": "control_change"}, {"time": 2968, "annotation": {"number": 64, "value": 127}, "group": "control_change"}, {"time": 2977, "annotation": {"number": 64, "value": 0}, "group": "control_change"}, {"time": 2991, "annotation": {"number": 64, "value": 127}, "group": "control_change"}, {"time": 3022, "annotation": {"number": 64, "value": 0}, "group": "control_change"}, {"time": 3027, "annotation": {"number": 64, "value": 127}, "group": "control_change"}, {"time": 3035, "annotation": {"number": 64, "value": 0}, "group": "control_change"}, {"time": 3039, "annotation": {"number": 64, "value": 127}, "group": "control_change"}, {"time": 3060, "annotation": {"number": 64, "value": 0}, "group": "control_change"}, {"time": 3064, "annotation": {"number": 64, "value": 127}, "group": "control_change"}, {"time": 3083, "annotation": {"number": 64, "value": 0}, "group": "control_change"}, {"time": 3088, "annotation": {"number": 64, "value": 127}, "group": "control_change"}, {"time": 3105, "annotation": {"number": 64, "value": 0}, "group": "control_change"}, {"time": 3111, "annotation": {"number": 64, "value": 127}, "group": "control_change"}, {"time": 3132, "annotation": {"number": 64, "value": 0}, "group": "control_change"}, {"time": 3137, "annotation": {"number": 64, "value": 127}, "group": "control_change"}, {"time": 3154, "annotation": {"number": 64, "value": 0}, "group": "control_change"}, {"time": 3170, "annotation": {"number": 64, "value": 127}, "group": "control_change"}, {"time": 3177, "annotation": {"number": 64, "value": 0}, "group": "control_change"}, {"time": 3184, "annotation": {"number": 64, "value": 127}, "group": "control_change"}, {"time": 3194, "annotation": {"number": 64, "value": 0}, "group": "control_change"}, {"time": 3199, "annotation": {"number": 64, "value": 127}, "group": "control_change"}, {"time": 3227, "annotation": {"number": 64, "value": 0}, "group": "control_change"}, {"time": 3233, "annotation": {"number": 64, "value": 127}, "group": "control_change"}, {"time": 3244, "annotation": {"number": 64, "value": 0}, "group": "control_change"}, {"time": 3249, "annotation": {"number": 64, "value": 127}, "group": "control_change"}, {"time": 3251, "annotation": {"number": 64, "value": 0}, "group": "control_change"}, {"time": 3256, "annotation": {"number": 64, "value": 127}, "group": "control_change"}, {"time": 3273, "annotation": {"number": 64, "value": 0}, "group": "control_change"}, {"time": 3279, "annotation": {"number": 64, "value": 127}, "group": "control_change"}, {"time": 3290, "annotation": {"number": 64, "value": 0}, "group": "control_change"}, {"time": 3295, "annotation": {"number": 64, "value": 127}, "group": "control_change"}, {"time": 3321, "annotation": {"number": 64, "value": 0}, "group": "control_change"}, {"time": 3326, "annotation": {"number": 64, "value": 127}, "group": "control_change"}, {"time": 3371, "annotation": {"number": 64, "value": 0}, "group": "control_change"}, {"time": 3374, "annotation": {"number": 64, "value": 127}, "group": "control_change"}, {"time": 3385, "annotation": {"number": 64, "value": 0}, "group": "control_change"}, {"time": 3389, "annotation": {"number": 64, "value": 127}, "group": "control_change"}, {"time": 3421, "annotation": {"number": 64, "value": 0}, "group": "control_change"}, {"time": 3425, "annotation": {"number": 64, "value": 127}, "group": "control_change"}, {"time": 3446, "annotation": {"number": 64, "value": 0}, "group": "control_change"}, {"time": 3451, "annotation": {"number": 64, "value": 127}, "group": "control_change"}, {"time": 3469, "annotation": {"number": 64, "value": 0}, "group": "control_change"}, {"time": 3474, "annotation": {"number": 64, "value": 127}, "group": "control_change"}, {"time": 3484, "annotation": {"number": 64, "value": 0}, "group": "control_change"}, {"time": 3487, "annotation": {"number": 64, "value": 127}, "group": "control_change"}, {"time": 3492, "annotation": {"number": 64, "value": 0}, "group": "control_change"}, {"time": 3497, "annotation": {"number": 64, "value": 127}, "group": "control_change"}, {"time": 3516, "annotation": {"number": 64, "value": 0}, "group": "control_change"}, {"time": 3520, "annotation": {"number": 64, "value": 127}, "group": "control_change"}, {"time": 3530, "annotation": {"number": 64, "value": 0}, "group": "control_change"}, {"time": 3535, "annotation": {"number": 64, "value": 127}, "group": "control_change"}, {"time": 3537, "annotation": {"number": 64, "value": 0}, "group": "control_change"}, {"time": 3545, "annotation": {"number": 64, "value": 127}, "group": "control_change"}, {"time": 3564, "annotation": {"number": 64, "value": 0}, "group": "control_change"}, {"time": 3569, "annotation": {"number": 64, "value": 127}, "group": "control_change"}, {"time": 3581, "annotation": {"number": 64, "value": 0}, "group": "control_change"}, {"time": 3586, "annotation": {"number": 64, "value": 127}, "group": "control_change"}, {"time": 3611, "annotation": {"number": 64, "value": 0}, "group": "control_change"}, {"time": 3616, "annotation": {"number": 64, "value": 127}, "group": "control_change"}, {"time": 3647, "annotation": {"number": 64, "value": 0}, "group": "control_change"}, {"time": 3664, "annotation": {"number": 64, "value": 127}, "group": "control_change"}, {"time": 3684, "annotation": {"number": 64, "value": 0}, "group": "control_change"}, {"time": 3689, "annotation": {"number": 64, "value": 127}, "group": "control_change"}, {"time": 3705, "annotation": {"number": 64, "value": 0}, "group": "control_change"}, {"time": 3711, "annotation": {"number": 64, "value": 127}, "group": "control_change"}, {"time": 3725, "annotation": {"number": 64, "value": 0}, "group": "control_change"}, {"time": 3729, "annotation": {"number": 64, "value": 127}, "group": "control_change"}, {"time": 3733, "annotation": {"number": 64, "value": 0}, "group": "control_change"}, {"time": 3738, "annotation": {"number": 64, "value": 127}, "group": "control_change"}, {"time": 3754, "annotation": {"number": 64, "value": 0}, "group": "control_change"}, {"time": 3760, "annotation": {"number": 64, "value": 127}, "group": "control_change"}, {"time": 3777, "annotation": {"number": 64, "value": 0}, "group": "control_change"}, {"time": 3786, "annotation": {"number": 64, "value": 127}, "group": "control_change"}, {"time": 3854, "annotation": {"number": 64, "value": 127}, "group": "control_change"}, {"time": 3877, "annotation": {"number": 64, "value": 0}, "group": "control_change"}, {"time": 3881, "annotation": {"number": 64, "value": 127}, "group": "control_change"}, {"time": 3900, "annotation": {"number": 64, "value": 0}, "group": "control_change"}, {"time": 3904, "annotation": {"number": 64, "value": 127}, "group": "control_change"}, {"time": 3924, "annotation": {"number": 64, "value": 0}, "group": "control_change"}, {"time": 3929, "annotation": {"number": 64, "value": 127}, "group": "control_change"}, {"time": 3949, "annotation": {"number": 64, "value": 0}, "group": "control_change"}, {"time": 3951, "annotation": {"number": 64, "value": 127}, "group": "control_change"}, {"time": 3971, "annotation": {"number": 64, "value": 0}, "group": "control_change"}, {"time": 3977, "annotation": {"number": 64, "value": 127}, "group": "control_change"}, {"time": 3987, "annotation": {"number": 64, "value": 0}, "group": "control_change"}, {"time": 3992, "annotation": {"number": 64, "value": 127}, "group": "control_change"}, {"time": 3992, "annotation": {"number": 64, "value": 0}, "group": "control_change"}, {"time": 3999, "annotation": {"number": 64, "value": 127}, "group": "control_change"}, {"time": 4012, "annotation": {"number": 64, "value": 0}, "group": "control_change"}, {"time": 4016, "annotation": {"number": 64, "value": 127}, "group": "control_change"}, {"time": 4043, "annotation": {"number": 64, "value": 0}, "group": "control_change"}, {"time": 4047, "annotation": {"number": 64, "value": 127}, "group": "control_change"}, {"time": 4059, "annotation": {"number": 64, "value": 0}, "group": "control_change"}, {"time": 4063, "annotation": {"number": 64, "value": 127}, "group": "control_change"}, {"time": 4088, "annotation": {"number": 64, "value": 0}, "group": "control_change"}, {"time": 4115, "annotation": {"number": 64, "value": 0}, "group": "control_change"}, {"time": 4120, "annotation": {"number": 64, "value": 127}, "group": "control_change"}, {"time": 4140, "annotation": {"number": 64, "value": 0}, "group": "control_change"}, {"time": 4142, "annotation": {"number": 64, "value": 127}, "group": "control_change"}, {"time": 4143, "annotation": {"number": 64, "value": 127}, "group": "control_change"}, {"time": 4163, "annotation": {"number": 64, "value": 0}, "group": "control_change"}, {"time": 4169, "annotation": {"number": 64, "value": 127}, "group": "control_change"}, {"time": 4179, "annotation": {"number": 64, "value": 0}, "group": "control_change"}, {"time": 4184, "annotation": {"number": 64, "value": 127}, "group": "control_change"}, {"time": 4184, "annotation": {"number": 64, "value": 0}, "group": "control_change"}, {"time": 4191, "annotation": {"number": 64, "value": 127}, "group": "control_change"}, {"time": 4204, "annotation": {"number": 64, "value": 0}, "group": "control_change"}, {"time": 4208, "annotation": {"number": 64, "value": 127}, "group": "control_change"}, {"time": 4235, "annotation": {"number": 64, "value": 0}, "group": "control_change"}, {"time": 4239, "annotation": {"number": 64, "value": 127}, "group": "control_change"}, {"time": 4251, "annotation": {"number": 64, "value": 0}, "group": "control_change"}, {"time": 4255, "annotation": {"number": 64, "value": 127}, "group": "control_change"}, {"time": 4280, "annotation": {"number": 64, "value": 0}, "group": "control_change"}, {"time": 4307, "annotation": {"number": 64, "value": 0}, "group": "control_change"}, {"time": 4312, "annotation": {"number": 64, "value": 127}, "group": "control_change"}, {"time": 4332, "annotation": {"number": 64, "value": 0}, "group": "control_change"}, {"time": 4334, "annotation": {"number": 64, "value": 127}, "group": "control_change"}, {"time": 4335, "annotation": {"number": 64, "value": 127}, "group": "control_change"}, {"time": 4355, "annotation": {"number": 64, "value": 0}, "group": "control_change"}, {"time": 4361, "annotation": {"number": 64, "value": 127}, "group": "control_change"}, {"time": 4371, "annotation": {"number": 64, "value": 0}, "group": "control_change"}, {"time": 4376, "annotation": {"number": 64, "value": 127}, "group": "control_change"}, {"time": 4376, "annotation": {"number": 64, "value": 0}, "group": "control_change"}, {"time": 4383, "annotation": {"number": 64, "value": 127}, "group": "control_change"}, {"time": 4396, "annotation": {"number": 64, "value": 0}, "group": "control_change"}, {"time": 4400, "annotation": {"number": 64, "value": 127}, "group": "control_change"}, {"time": 4427, "annotation": {"number": 64, "value": 0}, "group": "control_change"}, {"time": 4431, "annotation": {"number": 64, "value": 127}, "group": "control_change"}, {"time": 4443, "annotation": {"number": 64, "value": 0}, "group": "control_change"}, {"time": 4447, "annotation": {"number": 64, "value": 127}, "group": "control_change"}, {"time": 4472, "annotation": {"number": 64, "value": 0}, "group": "control_change"}, {"time": 4499, "annotation": {"number": 64, "value": 0}, "group": "control_change"}, {"time": 4504, "annotation": {"number": 64, "value": 127}, "group": "control_change"}, {"time": 4524, "annotation": {"number": 64, "value": 0}, "group": "control_change"}, {"time": 4526, "annotation": {"number": 64, "value": 127}, "group": "control_change"}, {"time": 4527, "annotation": {"number": 64, "value": 127}, "group": "control_change"}, {"time": 4547, "annotation": {"number": 64, "value": 0}, "group": "control_change"}, {"time": 4553, "annotation": {"number": 64, "value": 127}, "group": "control_change"}, {"time": 4563, "annotation": {"number": 64, "value": 0}, "group": "control_change"}, {"time": 4568, "annotation": {"number": 64, "value": 127}, "group": "control_change"}, {"time": 4568, "annotation": {"number": 64, "value": 0}, "group": "control_change"}, {"time": 4575, "annotation": {"number": 64, "value": 127}, "group": "control_change"}, {"time": 4588, "annotation": {"number": 64, "value": 0}, "group": "control_change"}, {"time": 4592, "annotation": {"number": 64, "value": 127}, "group": "control_change"}, {"time": 4619, "annotation": {"number": 64, "value": 0}, "group": "control_change"}, {"time": 4623, "annotation": {"number": 64, "value": 127}, "group": "control_change"}, {"time": 4635, "annotation": {"number": 64, "value": 0}, "group": "control_change"}, {"time": 4639, "annotation": {"number": 64, "value": 127}, "group": "control_change"}, {"time": 4664, "annotation": {"number": 7, "value": 101}, "group": "control_change"}, {"time": 4664, "annotation": {"number": 64, "value": 0}, "group": "control_change"}, {"time": 4667, "annotation": {"number": 7, "value": 100}, "group": "control_change"}, {"time": 4669, "annotation": {"number": 7, "value": 99}, "group": "control_change"}, {"time": 4672, "annotation": {"number": 7, "value": 98}, "group": "control_change"}, {"time": 4674, "annotation": {"number": 7, "value": 96}, "group": "control_change"}, {"time": 4677, "annotation": {"number": 7, "value": 95}, "group": "control_change"}, {"time": 4679, "annotation": {"number": 7, "value": 94}, "group": "control_change"}, {"time": 4682, "annotation": {"number": 7, "value": 93}, "group": "control_change"}, {"time": 4684, "annotation": {"number": 7, "value": 92}, "group": "control_change"}, {"time": 4687, "annotation": {"number": 7, "value": 91}, "group": "control_change"}, {"time": 4689, "annotation": {"number": 7, "value": 90}, "group": "control_change"}, {"time": 4691, "annotation": {"number": 64, "value": 0}, "group": "control_change"}, {"time": 4692, "annotation": {"number": 7, "value": 88}, "group": "control_change"}, {"time": 4694, "annotation": {"number": 7, "value": 87}, "group": "control_change"}, {"time": 4696, "annotation": {"number": 64, "value": 127}, "group": "control_change"}, {"time": 4697, "annotation": {"number": 7, "value": 86}, "group": "control_change"}, {"time": 4699, "annotation": {"number": 7, "value": 85}, "group": "control_change"}, {"time": 4702, "annotation": {"number": 7, "value": 84}, "group": "control_change"}, {"time": 4704, "annotation": {"number": 7, "value": 83}, "group": "control_change"}, {"time": 4707, "annotation": {"number": 7, "value": 82}, "group": "control_change"}, {"time": 4709, "annotation": {"number": 7, "value": 80}, "group": "control_change"}, {"time": 4712, "annotation": {"number": 7, "value": 79}, "group": "control_change"}, {"time": 4714, "annotation": {"number": 7, "value": 78}, "group": "control_change"}, {"time": 4716, "annotation": {"number": 64, "value": 0}, "group": "control_change"}, {"time": 4717, "annotation": {"number": 7, "value": 77}, "group": "control_change"}, {"time": 4718, "annotation": {"number": 64, "value": 127}, "group": "control_change"}, {"time": 4719, "annotation": {"number": 7, "value": 76}, "group": "control_change"}, {"time": 4719, "annotation": {"number": 64, "value": 127}, "group": "control_change"}, {"time": 4722, "annotation": {"number": 7, "value": 75}, "group": "control_change"}, {"time": 4724, "annotation": {"number": 7, "value": 74}, "group": "control_change"}, {"time": 4727, "annotation": {"number": 7, "value": 72}, "group": "control_change"}, {"time": 4729, "annotation": {"number": 7, "value": 71}, "group": "control_change"}, {"time": 4732, "annotation": {"number": 7, "value": 70}, "group": "control_change"}, {"time": 4734, "annotation": {"number": 7, "value": 69}, "group": "control_change"}, {"time": 4737, "annotation": {"number": 7, "value": 68}, "group": "control_change"}, {"time": 4739, "annotation": {"number": 7, "value": 67}, "group": "control_change"}, {"time": 4739, "annotation": {"number": 64, "value": 0}, "group": "control_change"}, {"time": 4742, "annotation": {"number": 7, "value": 66}, "group": "control_change"}, {"time": 4744, "annotation": {"number": 7, "value": 64}, "group": "control_change"}, {"time": 4745, "annotation": {"number": 64, "value": 127}, "group": "control_change"}, {"time": 4747, "annotation": {"number": 7, "value": 63}, "group": "control_change"}, {"time": 4749, "annotation": {"number": 7, "value": 62}, "group": "control_change"}, {"time": 4752, "annotation": {"number": 7, "value": 61}, "group": "control_change"}, {"time": 4754, "annotation": {"number": 7, "value": 60}, "group": "control_change"}, {"time": 4755, "annotation": {"number": 64, "value": 0}, "group": "control_change"}, {"time": 4757, "annotation": {"number": 7, "value": 59}, "group": "control_change"}, {"time": 4759, "annotation": {"number": 7, "value": 58}, "group": "control_change"}, {"time": 4760, "annotation": {"number": 64, "value": 127}, "group": "control_change"}, {"time": 4760, "annotation": {"number": 64, "value": 0}, "group": "control_change"}, {"time": 4762, "annotation": {"number": 7, "value": 57}, "group": "control_change"}, {"time": 4764, "annotation": {"number": 7, "value": 55}, "group": "control_change"}, {"time": 4767, "annotation": {"number": 7, "value": 54}, "group": "control_change"}, {"time": 4767, "annotation": {"number": 64, "value": 127}, "group": "control_change"}, {"time": 4769, "annotation": {"number": 7, "value": 53}, "group": "control_change"}, {"time": 4772, "annotation": {"number": 7, "value": 52}, "group": "control_change"}, {"time": 4774, "annotation": {"number": 7, "value": 51}, "group": "control_change"}, {"time": 4777, "annotation": {"number": 7, "value": 50}, "group": "control_change"}, {"time": 4779, "annotation": {"number": 7, "value": 49}, "group": "control_change"}, {"time": 4780, "annotation": {"number": 64, "value": 0}, "group": "control_change"}, {"time": 4782, "annotation": {"number": 7, "value": 47}, "group": "control_change"}, {"time": 4784, "annotation": {"number": 64, "value": 127}, "group": "control_change"}, {"time": 4784, "annotation": {"number": 7, "value": 46}, "group": "control_change"}, {"time": 4787, "annotation": {"number": 7, "value": 45}, "group": "control_change"}, {"time": 4789, "annotation": {"number": 7, "value": 44}, "group": "control_change"}, {"time": 4792, "annotation": {"number": 7, "value": 43}, "group": "control_change"}, {"time": 4794, "annotation": {"number": 7, "value": 42}, "group": "control_change"}, {"time": 4797, "annotation": {"number": 7, "value": 41}, "group": "control_change"}, {"time": 4799, "annotation": {"number": 7, "value": 39}, "group": "control_change"}, {"time": 4802, "annotation": {"number": 7, "value": 38}, "group": "control_change"}, {"time": 4804, "annotation": {"number": 7, "value": 37}, "group": "control_change"}, {"time": 4807, "annotation": {"number": 7, "value": 36}, "group": "control_change"}, {"time": 4809, "annotation": {"number": 7, "value": 35}, "group": "control_change"}, {"time": 4811, "annotation": {"number": 64, "value": 0}, "group": "control_change"}, {"time": 4812, "annotation": {"number": 7, "value": 34}, "group": "control_change"}, {"time": 4814, "annotation": {"number": 7, "value": 33}, "group": "control_change"}, {"time": 4815, "annotation": {"number": 64, "value": 127}, "group": "control_change"}, {"time": 4817, "annotation": {"number": 7, "value": 31}, "group": "control_change"}, {"time": 4819, "annotation": {"number": 7, "value": 30}, "group": "control_change"}, {"time": 4822, "annotation": {"number": 7, "value": 29}, "group": "control_change"}, {"time": 4824, "annotation": {"number": 7, "value": 28}, "group": "control_change"}, {"time": 4827, "annotation": {"number": 7, "value": 27}, "group": "control_change"}, {"time": 4827, "annotation": {"number": 64, "value": 0}, "group": "control_change"}, {"time": 4829, "annotation": {"number": 7, "value": 26}, "group": "control_change"}, {"time": 4831, "annotation": {"number": 64, "value": 127}, "group": "control_change"}, {"time": 4832, "annotation": {"number": 7, "value": 25}, "group": "control_change"}, {"time": 4834, "annotation": {"number": 7, "value": 23}, "group": "control_change"}, {"time": 4837, "annotation": {"number": 7, "value": 22}, "group": "control_change"}, {"time": 4839, "annotation": {"number": 7, "value": 21}, "group": "control_change"}, {"time": 4842, "annotation": {"number": 7, "value": 20}, "group": "control_change"}, {"time": 4844, "annotation": {"number": 7, "value": 19}, "group": "control_change"}, {"time": 4847, "annotation": {"number": 7, "value": 18}, "group": "control_change"}, {"time": 4849, "annotation": {"number": 7, "value": 17}, "group": "control_change"}, {"time": 4852, "annotation": {"number": 7, "value": 15}, "group": "control_change"}, {"time": 4854, "annotation": {"number": 7, "value": 14}, "group": "control_change"}, {"time": 4856, "annotation": {"number": 64, "value": 0}, "group": "control_change"}, {"time": 4857, "annotation": {"number": 7, "value": 13}, "group": "control_change"}, {"time": 4859, "annotation": {"number": 7, "value": 12}, "group": "control_change"}, {"time": 4862, "annotation": {"number": 7, "value": 11}, "group": "control_change"}, {"time": 4864, "annotation": {"number": 7, "value": 10}, "group": "control_change"}, {"time": 4867, "annotation": {"number": 7, "value": 9}, "group": "control_change"}, {"time": 4869, "annotation": {"number": 7, "value": 7}, "group": "control_change"}, {"time": 4872, "annotation": {"number": 7, "value": 6}, "group": "control_change"}, {"time": 4874, "annotation": {"number": 7, "value": 5}, "group": "control_change"}, {"time": 4877, "annotation": {"number": 7, "value": 4}, "group": "control_change"}, {"time": 4879, "annotation": {"number": 7, "value": 3}, "group": "control_change"}, {"time": 4882, "annotation": {"number": 7, "value": 2}, "group": "control_change"}, {"time": 4883, "annotation": {"number": 64, "value": 0}, "group": "control_change"}, {"time": 4884, "annotation": {"number": 7, "value": 1}, "group": "control_change"}, {"time": 4885, "annotation": {"number": 7, "value": 0}, "group": "control_change"}, {"time": 4888, "annotation": {"number": 64, "value": 127}, "group": "control_change"}]}]}