{"metadata": {"schema_version": "0.2", "title": "None", "source_filename": "367.mid", "source_format": "midi"}, "resolution": 12, "tempos": [{"time": 0, "qpm": 56.020107483912895}], "time_signatures": [{"time": 0, "numerator": 1, "denominator": 4}], "tracks": [{"program": 0, "is_drum": false, "name": "MELODY", "notes": [{"time": 231, "pitch": 65, "duration": 2, "velocity": 117}, {"time": 234, "pitch": 65, "duration": 2, "velocity": 93}, {"time": 237, "pitch": 65, "duration": 7, "velocity": 127}, {"time": 246, "pitch": 61, "duration": 4, "velocity": 102}, {"time": 249, "pitch": 63, "duration": 4, "velocity": 107}, {"time": 255, "pitch": 70, "duration": 3, "velocity": 117}, {"time": 258, "pitch": 68, "duration": 13, "velocity": 122}, {"time": 276, "pitch": 70, "duration": 2, "velocity": 122}, {"time": 279, "pitch": 70, "duration": 2, "velocity": 112}, {"time": 282, "pitch": 70, "duration": 2, "velocity": 102}, {"time": 285, "pitch": 70, "duration": 3, "velocity": 127}, {"time": 288, "pitch": 68, "duration": 3, "velocity": 117}, {"time": 291, "pitch": 66, "duration": 3, "velocity": 102}, {"time": 294, "pitch": 68, "duration": 20, "velocity": 107}, {"time": 315, "pitch": 68, "duration": 3, "velocity": 127}, {"time": 318, "pitch": 66, "duration": 3, "velocity": 99}, {"time": 321, "pitch": 65, "duration": 7, "velocity": 102}, {"time": 327, "pitch": 66, "duration": 2, "velocity": 107}, {"time": 330, "pitch": 66, "duration": 7, "velocity": 122}, {"time": 339, "pitch": 68, "duration": 3, "velocity": 122}, {"time": 342, "pitch": 66, "duration": 2, "velocity": 112}, {"time": 345, "pitch": 65, "duration": 6, "velocity": 102}, {"time": 351, "pitch": 66, "duration": 2, "velocity": 100}, {"time": 354, "pitch": 66, "duration": 8, "velocity": 122}, {"time": 363, "pitch": 61, "duration": 3, "velocity": 112}, {"time": 366, "pitch": 63, "duration": 2, "velocity": 102}, {"time": 369, "pitch": 65, "duration": 5, "velocity": 97}, {"time": 375, "pitch": 65, "duration": 5, "velocity": 112}, {"time": 381, "pitch": 65, "duration": 3, "velocity": 97}, {"time": 384, "pitch": 63, "duration": 4, "velocity": 112}, {"time": 387, "pitch": 61, "duration": 2, "velocity": 97}, {"time": 390, "pitch": 65, "duration": 6, "velocity": 95}, {"time": 396, "pitch": 63, "duration": 20, "velocity": 99}, {"time": 423, "pitch": 65, "duration": 2, "velocity": 117}, {"time": 426, "pitch": 65, "duration": 2, "velocity": 93}, {"time": 429, "pitch": 65, "duration": 7, "velocity": 127}, {"time": 438, "pitch": 61, "duration": 4, "velocity": 102}, {"time": 441, "pitch": 63, "duration": 4, "velocity": 107}, {"time": 447, "pitch": 70, "duration": 3, "velocity": 117}, {"time": 450, "pitch": 68, "duration": 13, "velocity": 122}, {"time": 468, "pitch": 70, "duration": 2, "velocity": 122}, {"time": 471, "pitch": 70, "duration": 2, "velocity": 112}, {"time": 474, "pitch": 70, "duration": 2, "velocity": 102}, {"time": 477, "pitch": 70, "duration": 3, "velocity": 127}, {"time": 480, "pitch": 68, "duration": 3, "velocity": 117}, {"time": 483, "pitch": 66, "duration": 3, "velocity": 102}, {"time": 486, "pitch": 68, "duration": 20, "velocity": 107}, {"time": 507, "pitch": 68, "duration": 3, "velocity": 127}, {"time": 510, "pitch": 66, "duration": 3, "velocity": 99}, {"time": 513, "pitch": 65, "duration": 7, "velocity": 102}, {"time": 519, "pitch": 66, "duration": 2, "velocity": 107}, {"time": 522, "pitch": 66, "duration": 7, "velocity": 122}, {"time": 531, "pitch": 68, "duration": 3, "velocity": 122}, {"time": 534, "pitch": 66, "duration": 2, "velocity": 112}, {"time": 537, "pitch": 65, "duration": 6, "velocity": 102}, {"time": 543, "pitch": 66, "duration": 2, "velocity": 100}, {"time": 546, "pitch": 66, "duration": 8, "velocity": 122}, {"time": 555, "pitch": 61, "duration": 3, "velocity": 112}, {"time": 558, "pitch": 63, "duration": 2, "velocity": 102}, {"time": 561, "pitch": 65, "duration": 5, "velocity": 97}, {"time": 567, "pitch": 65, "duration": 2, "velocity": 112}, {"time": 570, "pitch": 65, "duration": 4, "velocity": 122}, {"time": 576, "pitch": 66, "duration": 3, "velocity": 127}, {"time": 579, "pitch": 68, "duration": 3, "velocity": 122}, {"time": 582, "pitch": 65, "duration": 7, "velocity": 102}, {"time": 588, "pitch": 63, "duration": 14, "velocity": 112}, {"time": 600, "pitch": 61, "duration": 3, "velocity": 117}, {"time": 603, "pitch": 63, "duration": 9, "velocity": 122}, {"time": 612, "pitch": 61, "duration": 21, "velocity": 127}, {"time": 651, "pitch": 70, "duration": 2, "velocity": 127}, {"time": 654, "pitch": 72, "duration": 3, "velocity": 99}, {"time": 657, "pitch": 73, "duration": 5, "velocity": 127}, {"time": 663, "pitch": 73, "duration": 4, "velocity": 127}, {"time": 669, "pitch": 73, "duration": 2, "velocity": 127}, {"time": 672, "pitch": 72, "duration": 3, "velocity": 127}, {"time": 675, "pitch": 70, "duration": 1, "velocity": 107}, {"time": 678, "pitch": 70, "duration": 6, "velocity": 127}, {"time": 684, "pitch": 68, "duration": 11, "velocity": 107}, {"time": 699, "pitch": 65, "duration": 2, "velocity": 107}, {"time": 702, "pitch": 68, "duration": 3, "velocity": 127}, {"time": 705, "pitch": 70, "duration": 4, "velocity": 127}, {"time": 711, "pitch": 70, "duration": 5, "velocity": 127}, {"time": 717, "pitch": 73, "duration": 3, "velocity": 122}, {"time": 720, "pitch": 68, "duration": 3, "velocity": 102}, {"time": 723, "pitch": 61, "duration": 3, "velocity": 117}, {"time": 726, "pitch": 63, "duration": 5, "velocity": 112}, {"time": 732, "pitch": 65, "duration": 14, "velocity": 100}, {"time": 747, "pitch": 70, "duration": 2, "velocity": 127}, {"time": 750, "pitch": 72, "duration": 3, "velocity": 100}, {"time": 753, "pitch": 73, "duration": 4, "velocity": 127}, {"time": 759, "pitch": 73, "duration": 4, "velocity": 127}, {"time": 765, "pitch": 73, "duration": 2, "velocity": 127}, {"time": 768, "pitch": 73, "duration": 3, "velocity": 127}, {"time": 771, "pitch": 70, "duration": 2, "velocity": 127}, {"time": 774, "pitch": 70, "duration": 5, "velocity": 127}, {"time": 780, "pitch": 68, "duration": 10, "velocity": 112}, {"time": 795, "pitch": 65, "duration": 3, "velocity": 102}, {"time": 798, "pitch": 68, "duration": 3, "velocity": 112}, {"time": 801, "pitch": 70, "duration": 4, "velocity": 127}, {"time": 807, "pitch": 70, "duration": 2, "velocity": 117}, {"time": 810, "pitch": 70, "duration": 1, "velocity": 127}, {"time": 813, "pitch": 70, "duration": 2, "velocity": 127}, {"time": 816, "pitch": 73, "duration": 5, "velocity": 122}, {"time": 825, "pitch": 75, "duration": 17, "velocity": 127}, {"time": 843, "pitch": 70, "duration": 2, "velocity": 127}, {"time": 846, "pitch": 72, "duration": 3, "velocity": 99}, {"time": 849, "pitch": 73, "duration": 5, "velocity": 127}, {"time": 855, "pitch": 73, "duration": 4, "velocity": 127}, {"time": 861, "pitch": 75, "duration": 2, "velocity": 127}, {"time": 864, "pitch": 73, "duration": 3, "velocity": 127}, {"time": 867, "pitch": 65, "duration": 3, "velocity": 92}, {"time": 870, "pitch": 70, "duration": 5, "velocity": 127}, {"time": 876, "pitch": 68, "duration": 11, "velocity": 107}, {"time": 891, "pitch": 65, "duration": 2, "velocity": 107}, {"time": 894, "pitch": 68, "duration": 3, "velocity": 127}, {"time": 897, "pitch": 70, "duration": 4, "velocity": 127}, {"time": 903, "pitch": 70, "duration": 5, "velocity": 127}, {"time": 909, "pitch": 73, "duration": 3, "velocity": 122}, {"time": 912, "pitch": 68, "duration": 3, "velocity": 102}, {"time": 915, "pitch": 61, "duration": 3, "velocity": 117}, {"time": 918, "pitch": 63, "duration": 5, "velocity": 112}, {"time": 924, "pitch": 65, "duration": 14, "velocity": 100}, {"time": 939, "pitch": 70, "duration": 2, "velocity": 127}, {"time": 942, "pitch": 72, "duration": 3, "velocity": 100}, {"time": 945, "pitch": 73, "duration": 4, "velocity": 127}, {"time": 951, "pitch": 73, "duration": 4, "velocity": 127}, {"time": 957, "pitch": 73, "duration": 2, "velocity": 127}, {"time": 960, "pitch": 72, "duration": 2, "velocity": 122}, {"time": 963, "pitch": 73, "duration": 2, "velocity": 127}, {"time": 966, "pitch": 75, "duration": 4, "velocity": 122}, {"time": 972, "pitch": 77, "duration": 11, "velocity": 127}, {"time": 987, "pitch": 68, "duration": 1, "velocity": 127}, {"time": 990, "pitch": 68, "duration": 2, "velocity": 122}, {"time": 993, "pitch": 70, "duration": 3, "velocity": 127}, {"time": 996, "pitch": 73, "duration": 4, "velocity": 127}, {"time": 1002, "pitch": 73, "duration": 2, "velocity": 127}, {"time": 1005, "pitch": 73, "duration": 2, "velocity": 127}, {"time": 1008, "pitch": 75, "duration": 8, "velocity": 127}, {"time": 1017, "pitch": 73, "duration": 24, "velocity": 127}, {"time": 1239, "pitch": 65, "duration": 2, "velocity": 117}, {"time": 1242, "pitch": 65, "duration": 2, "velocity": 93}, {"time": 1245, "pitch": 65, "duration": 7, "velocity": 127}, {"time": 1254, "pitch": 61, "duration": 4, "velocity": 102}, {"time": 1257, "pitch": 63, "duration": 4, "velocity": 107}, {"time": 1263, "pitch": 70, "duration": 3, "velocity": 117}, {"time": 1266, "pitch": 68, "duration": 13, "velocity": 122}, {"time": 1284, "pitch": 70, "duration": 2, "velocity": 122}, {"time": 1287, "pitch": 70, "duration": 2, "velocity": 112}, {"time": 1290, "pitch": 70, "duration": 2, "velocity": 102}, {"time": 1293, "pitch": 70, "duration": 3, "velocity": 127}, {"time": 1296, "pitch": 68, "duration": 3, "velocity": 117}, {"time": 1299, "pitch": 66, "duration": 3, "velocity": 102}, {"time": 1302, "pitch": 68, "duration": 20, "velocity": 107}, {"time": 1323, "pitch": 68, "duration": 3, "velocity": 127}, {"time": 1326, "pitch": 66, "duration": 3, "velocity": 99}, {"time": 1329, "pitch": 65, "duration": 7, "velocity": 102}, {"time": 1335, "pitch": 66, "duration": 2, "velocity": 107}, {"time": 1338, "pitch": 66, "duration": 7, "velocity": 122}, {"time": 1347, "pitch": 68, "duration": 3, "velocity": 122}, {"time": 1350, "pitch": 66, "duration": 2, "velocity": 112}, {"time": 1353, "pitch": 65, "duration": 6, "velocity": 102}, {"time": 1359, "pitch": 66, "duration": 2, "velocity": 100}, {"time": 1362, "pitch": 66, "duration": 8, "velocity": 122}, {"time": 1371, "pitch": 61, "duration": 3, "velocity": 112}, {"time": 1374, "pitch": 63, "duration": 2, "velocity": 102}, {"time": 1377, "pitch": 65, "duration": 5, "velocity": 97}, {"time": 1383, "pitch": 65, "duration": 5, "velocity": 112}, {"time": 1389, "pitch": 65, "duration": 3, "velocity": 97}, {"time": 1392, "pitch": 63, "duration": 4, "velocity": 112}, {"time": 1395, "pitch": 61, "duration": 2, "velocity": 97}, {"time": 1398, "pitch": 65, "duration": 6, "velocity": 95}, {"time": 1404, "pitch": 63, "duration": 20, "velocity": 99}, {"time": 1431, "pitch": 65, "duration": 2, "velocity": 117}, {"time": 1434, "pitch": 65, "duration": 2, "velocity": 93}, {"time": 1437, "pitch": 65, "duration": 7, "velocity": 127}, {"time": 1446, "pitch": 61, "duration": 4, "velocity": 102}, {"time": 1449, "pitch": 63, "duration": 4, "velocity": 107}, {"time": 1455, "pitch": 70, "duration": 3, "velocity": 117}, {"time": 1458, "pitch": 68, "duration": 13, "velocity": 122}, {"time": 1476, "pitch": 70, "duration": 2, "velocity": 122}, {"time": 1479, "pitch": 70, "duration": 2, "velocity": 112}, {"time": 1482, "pitch": 70, "duration": 2, "velocity": 102}, {"time": 1485, "pitch": 70, "duration": 3, "velocity": 127}, {"time": 1488, "pitch": 68, "duration": 3, "velocity": 117}, {"time": 1491, "pitch": 66, "duration": 3, "velocity": 102}, {"time": 1494, "pitch": 68, "duration": 20, "velocity": 107}, {"time": 1515, "pitch": 68, "duration": 3, "velocity": 127}, {"time": 1518, "pitch": 66, "duration": 3, "velocity": 99}, {"time": 1521, "pitch": 65, "duration": 7, "velocity": 102}, {"time": 1527, "pitch": 66, "duration": 2, "velocity": 107}, {"time": 1530, "pitch": 66, "duration": 7, "velocity": 122}, {"time": 1539, "pitch": 68, "duration": 3, "velocity": 122}, {"time": 1542, "pitch": 66, "duration": 2, "velocity": 112}, {"time": 1545, "pitch": 65, "duration": 6, "velocity": 102}, {"time": 1551, "pitch": 66, "duration": 2, "velocity": 100}, {"time": 1554, "pitch": 66, "duration": 8, "velocity": 122}, {"time": 1563, "pitch": 61, "duration": 3, "velocity": 112}, {"time": 1566, "pitch": 63, "duration": 2, "velocity": 102}, {"time": 1569, "pitch": 65, "duration": 5, "velocity": 97}, {"time": 1575, "pitch": 65, "duration": 2, "velocity": 112}, {"time": 1578, "pitch": 65, "duration": 4, "velocity": 122}, {"time": 1584, "pitch": 66, "duration": 3, "velocity": 127}, {"time": 1587, "pitch": 68, "duration": 3, "velocity": 122}, {"time": 1590, "pitch": 65, "duration": 7, "velocity": 102}, {"time": 1596, "pitch": 63, "duration": 14, "velocity": 112}, {"time": 1608, "pitch": 61, "duration": 3, "velocity": 117}, {"time": 1611, "pitch": 63, "duration": 9, "velocity": 122}, {"time": 1620, "pitch": 61, "duration": 21, "velocity": 127}, {"time": 1659, "pitch": 70, "duration": 2, "velocity": 127}, {"time": 1662, "pitch": 72, "duration": 3, "velocity": 99}, {"time": 1665, "pitch": 73, "duration": 5, "velocity": 127}, {"time": 1671, "pitch": 73, "duration": 4, "velocity": 127}, {"time": 1677, "pitch": 73, "duration": 2, "velocity": 127}, {"time": 1680, "pitch": 72, "duration": 3, "velocity": 127}, {"time": 1683, "pitch": 70, "duration": 1, "velocity": 107}, {"time": 1686, "pitch": 70, "duration": 6, "velocity": 127}, {"time": 1692, "pitch": 68, "duration": 11, "velocity": 107}, {"time": 1707, "pitch": 65, "duration": 2, "velocity": 107}, {"time": 1710, "pitch": 68, "duration": 3, "velocity": 127}, {"time": 1713, "pitch": 70, "duration": 4, "velocity": 127}, {"time": 1719, "pitch": 70, "duration": 5, "velocity": 127}, {"time": 1725, "pitch": 73, "duration": 3, "velocity": 122}, {"time": 1728, "pitch": 68, "duration": 3, "velocity": 102}, {"time": 1731, "pitch": 61, "duration": 3, "velocity": 117}, {"time": 1734, "pitch": 63, "duration": 5, "velocity": 112}, {"time": 1740, "pitch": 65, "duration": 14, "velocity": 100}, {"time": 1755, "pitch": 70, "duration": 2, "velocity": 127}, {"time": 1758, "pitch": 72, "duration": 3, "velocity": 100}, {"time": 1761, "pitch": 73, "duration": 4, "velocity": 127}, {"time": 1767, "pitch": 73, "duration": 4, "velocity": 127}, {"time": 1773, "pitch": 73, "duration": 2, "velocity": 127}, {"time": 1776, "pitch": 73, "duration": 3, "velocity": 127}, {"time": 1779, "pitch": 70, "duration": 2, "velocity": 127}, {"time": 1782, "pitch": 70, "duration": 5, "velocity": 127}, {"time": 1788, "pitch": 68, "duration": 10, "velocity": 112}, {"time": 1803, "pitch": 65, "duration": 3, "velocity": 102}, {"time": 1806, "pitch": 68, "duration": 3, "velocity": 112}, {"time": 1809, "pitch": 70, "duration": 4, "velocity": 127}, {"time": 1815, "pitch": 70, "duration": 2, "velocity": 117}, {"time": 1818, "pitch": 70, "duration": 1, "velocity": 127}, {"time": 1821, "pitch": 70, "duration": 2, "velocity": 127}, {"time": 1824, "pitch": 73, "duration": 5, "velocity": 122}, {"time": 1833, "pitch": 75, "duration": 17, "velocity": 127}, {"time": 1851, "pitch": 70, "duration": 2, "velocity": 127}, {"time": 1854, "pitch": 72, "duration": 3, "velocity": 99}, {"time": 1857, "pitch": 73, "duration": 5, "velocity": 127}, {"time": 1863, "pitch": 73, "duration": 4, "velocity": 127}, {"time": 1869, "pitch": 75, "duration": 2, "velocity": 127}, {"time": 1872, "pitch": 73, "duration": 3, "velocity": 127}, {"time": 1875, "pitch": 65, "duration": 3, "velocity": 92}, {"time": 1878, "pitch": 70, "duration": 5, "velocity": 127}, {"time": 1884, "pitch": 68, "duration": 11, "velocity": 107}, {"time": 1899, "pitch": 65, "duration": 2, "velocity": 107}, {"time": 1902, "pitch": 68, "duration": 3, "velocity": 127}, {"time": 1905, "pitch": 70, "duration": 4, "velocity": 127}, {"time": 1911, "pitch": 70, "duration": 5, "velocity": 127}, {"time": 1917, "pitch": 73, "duration": 3, "velocity": 122}, {"time": 1920, "pitch": 68, "duration": 3, "velocity": 102}, {"time": 1923, "pitch": 61, "duration": 3, "velocity": 117}, {"time": 1926, "pitch": 63, "duration": 5, "velocity": 112}, {"time": 1932, "pitch": 65, "duration": 14, "velocity": 100}, {"time": 1947, "pitch": 70, "duration": 2, "velocity": 127}, {"time": 1950, "pitch": 72, "duration": 3, "velocity": 100}, {"time": 1953, "pitch": 73, "duration": 4, "velocity": 127}, {"time": 1959, "pitch": 73, "duration": 4, "velocity": 127}, {"time": 1965, "pitch": 73, "duration": 2, "velocity": 127}, {"time": 1968, "pitch": 72, "duration": 2, "velocity": 122}, {"time": 1971, "pitch": 73, "duration": 2, "velocity": 127}, {"time": 1974, "pitch": 75, "duration": 4, "velocity": 122}, {"time": 1980, "pitch": 77, "duration": 11, "velocity": 127}, {"time": 1995, "pitch": 68, "duration": 1, "velocity": 127}, {"time": 1998, "pitch": 68, "duration": 2, "velocity": 122}, {"time": 2001, "pitch": 70, "duration": 3, "velocity": 127}, {"time": 2004, "pitch": 73, "duration": 4, "velocity": 127}, {"time": 2010, "pitch": 73, "duration": 3, "velocity": 122}, {"time": 2013, "pitch": 75, "duration": 3, "velocity": 127}, {"time": 2016, "pitch": 73, "duration": 4, "velocity": 127}, {"time": 2022, "pitch": 73, "duration": 3, "velocity": 127}, {"time": 2025, "pitch": 73, "duration": 1, "velocity": 127}, {"time": 2043, "pitch": 70, "duration": 2, "velocity": 127}, {"time": 2046, "pitch": 72, "duration": 3, "velocity": 99}, {"time": 2049, "pitch": 73, "duration": 5, "velocity": 127}, {"time": 2055, "pitch": 73, "duration": 4, "velocity": 127}, {"time": 2061, "pitch": 75, "duration": 2, "velocity": 127}, {"time": 2064, "pitch": 73, "duration": 3, "velocity": 127}, {"time": 2067, "pitch": 73, "duration": 2, "velocity": 112}, {"time": 2070, "pitch": 75, "duration": 4, "velocity": 102}, {"time": 2076, "pitch": 77, "duration": 11, "velocity": 127}, {"time": 2091, "pitch": 77, "duration": 3, "velocity": 112}, {"time": 2094, "pitch": 75, "duration": 3, "velocity": 107}, {"time": 2097, "pitch": 73, "duration": 3, "velocity": 127}, {"time": 2103, "pitch": 73, "duration": 3, "velocity": 127}, {"time": 2109, "pitch": 73, "duration": 3, "velocity": 122}, {"time": 2112, "pitch": 72, "duration": 3, "velocity": 107}, {"time": 2115, "pitch": 70, "duration": 2, "velocity": 102}, {"time": 2118, "pitch": 70, "duration": 4, "velocity": 117}, {"time": 2124, "pitch": 68, "duration": 9, "velocity": 112}, {"time": 2139, "pitch": 70, "duration": 2, "velocity": 127}, {"time": 2142, "pitch": 72, "duration": 3, "velocity": 100}, {"time": 2145, "pitch": 73, "duration": 4, "velocity": 127}, {"time": 2151, "pitch": 73, "duration": 4, "velocity": 127}, {"time": 2157, "pitch": 73, "duration": 2, "velocity": 127}, {"time": 2160, "pitch": 72, "duration": 2, "velocity": 122}, {"time": 2163, "pitch": 73, "duration": 2, "velocity": 127}, {"time": 2166, "pitch": 75, "duration": 4, "velocity": 122}, {"time": 2172, "pitch": 77, "duration": 11, "velocity": 127}, {"time": 2187, "pitch": 68, "duration": 1, "velocity": 127}, {"time": 2190, "pitch": 68, "duration": 2, "velocity": 122}, {"time": 2193, "pitch": 70, "duration": 3, "velocity": 127}, {"time": 2196, "pitch": 73, "duration": 4, "velocity": 127}, {"time": 2202, "pitch": 73, "duration": 3, "velocity": 122}, {"time": 2205, "pitch": 73, "duration": 2, "velocity": 122}, {"time": 2208, "pitch": 75, "duration": 9, "velocity": 112}, {"time": 2217, "pitch": 73, "duration": 34, "velocity": 117}]}, {"program": 0, "is_drum": false, "name": "BRIDGE", "notes": [{"time": 12, "pitch": 61, "duration": 13, "velocity": 92}, {"time": 12, "pitch": 73, "duration": 6, "velocity": 127}, {"time": 24, "pitch": 66, "duration": 3, "velocity": 112}, {"time": 24, "pitch": 80, "duration": 4, "velocity": 127}, {"time": 27, "pitch": 65, "duration": 3, "velocity": 97}, {"time": 27, "pitch": 78, "duration": 3, "velocity": 117}, {"time": 30, "pitch": 61, "duration": 4, "velocity": 92}, {"time": 30, "pitch": 77, "duration": 4, "velocity": 92}, {"time": 33, "pitch": 60, "duration": 11, "velocity": 95}, {"time": 33, "pitch": 75, "duration": 5, "velocity": 117}, {"time": 63, "pitch": 65, "duration": 3, "velocity": 81}, {"time": 63, "pitch": 73, "duration": 3, "velocity": 127}, {"time": 66, "pitch": 66, "duration": 3, "velocity": 86}, {"time": 66, "pitch": 75, "duration": 3, "velocity": 117}, {"time": 69, "pitch": 68, "duration": 5, "velocity": 112}, {"time": 69, "pitch": 77, "duration": 4, "velocity": 99}, {"time": 75, "pitch": 70, "duration": 3, "velocity": 100}, {"time": 75, "pitch": 82, "duration": 4, "velocity": 127}, {"time": 78, "pitch": 68, "duration": 16, "velocity": 100}, {"time": 78, "pitch": 80, "duration": 10, "velocity": 112}, {"time": 111, "pitch": 73, "duration": 2, "velocity": 112}, {"time": 111, "pitch": 82, "duration": 2, "velocity": 127}, {"time": 114, "pitch": 75, "duration": 2, "velocity": 99}, {"time": 114, "pitch": 84, "duration": 2, "velocity": 96}, {"time": 117, "pitch": 77, "duration": 3, "velocity": 99}, {"time": 117, "pitch": 85, "duration": 3, "velocity": 127}, {"time": 120, "pitch": 75, "duration": 4, "velocity": 102}, {"time": 120, "pitch": 84, "duration": 2, "velocity": 127}, {"time": 126, "pitch": 73, "duration": 3, "velocity": 93}, {"time": 126, "pitch": 82, "duration": 3, "velocity": 102}, {"time": 129, "pitch": 75, "duration": 12, "velocity": 99}, {"time": 129, "pitch": 80, "duration": 5, "velocity": 117}, {"time": 141, "pitch": 80, "duration": 3, "velocity": 127}, {"time": 144, "pitch": 78, "duration": 4, "velocity": 127}, {"time": 150, "pitch": 77, "duration": 3, "velocity": 97}, {"time": 153, "pitch": 75, "duration": 7, "velocity": 122}, {"time": 159, "pitch": 89, "duration": 3, "velocity": 122}, {"time": 162, "pitch": 85, "duration": 7, "velocity": 117}, {"time": 177, "pitch": 56, "duration": 4, "velocity": 96}, {"time": 180, "pitch": 63, "duration": 3, "velocity": 97}, {"time": 183, "pitch": 68, "duration": 2, "velocity": 76}, {"time": 186, "pitch": 68, "duration": 7, "velocity": 99}, {"time": 192, "pitch": 92, "duration": 3, "velocity": 127}, {"time": 195, "pitch": 89, "duration": 3, "velocity": 88}, {"time": 198, "pitch": 90, "duration": 4, "velocity": 96}, {"time": 201, "pitch": 92, "duration": 25, "velocity": 122}, {"time": 396, "pitch": 66, "duration": 3, "velocity": 97}, {"time": 396, "pitch": 78, "duration": 3, "velocity": 86}, {"time": 399, "pitch": 89, "duration": 2, "velocity": 95}, {"time": 399, "pitch": 92, "duration": 2, "velocity": 96}, {"time": 402, "pitch": 90, "duration": 5, "velocity": 88}, {"time": 402, "pitch": 94, "duration": 4, "velocity": 93}, {"time": 492, "pitch": 68, "duration": 4, "velocity": 86}, {"time": 495, "pitch": 73, "duration": 3, "velocity": 96}, {"time": 498, "pitch": 75, "duration": 3, "velocity": 76}, {"time": 501, "pitch": 75, "duration": 1, "velocity": 44}, {"time": 501, "pitch": 77, "duration": 8, "velocity": 86}, {"time": 507, "pitch": 74, "duration": 14, "velocity": 97}, {"time": 591, "pitch": 80, "duration": 3, "velocity": 99}, {"time": 591, "pitch": 89, "duration": 3, "velocity": 107}, {"time": 594, "pitch": 82, "duration": 15, "velocity": 102}, {"time": 594, "pitch": 90, "duration": 10, "velocity": 107}, {"time": 618, "pitch": 77, "duration": 4, "velocity": 86}, {"time": 621, "pitch": 78, "duration": 12, "velocity": 117}, {"time": 633, "pitch": 77, "duration": 19, "velocity": 100}, {"time": 1041, "pitch": 68, "duration": 3, "velocity": 102}, {"time": 1044, "pitch": 61, "duration": 3, "velocity": 93}, {"time": 1047, "pitch": 63, "duration": 4, "velocity": 99}, {"time": 1050, "pitch": 68, "duration": 10, "velocity": 107}, {"time": 1056, "pitch": 73, "duration": 3, "velocity": 85}, {"time": 1059, "pitch": 75, "duration": 3, "velocity": 112}, {"time": 1062, "pitch": 82, "duration": 3, "velocity": 112}, {"time": 1065, "pitch": 80, "duration": 6, "velocity": 112}, {"time": 1068, "pitch": 72, "duration": 3, "velocity": 107}, {"time": 1071, "pitch": 75, "duration": 3, "velocity": 112}, {"time": 1074, "pitch": 68, "duration": 12, "velocity": 102}, {"time": 1089, "pitch": 63, "duration": 4, "velocity": 117}, {"time": 1092, "pitch": 61, "duration": 4, "velocity": 73}, {"time": 1095, "pitch": 63, "duration": 4, "velocity": 99}, {"time": 1098, "pitch": 68, "duration": 8, "velocity": 99}, {"time": 1098, "pitch": 80, "duration": 3, "velocity": 96}, {"time": 1101, "pitch": 77, "duration": 4, "velocity": 107}, {"time": 1101, "pitch": 85, "duration": 4, "velocity": 122}, {"time": 1105, "pitch": 75, "duration": 5, "velocity": 100}, {"time": 1105, "pitch": 84, "duration": 5, "velocity": 90}, {"time": 1109, "pitch": 73, "duration": 4, "velocity": 93}, {"time": 1109, "pitch": 82, "duration": 4, "velocity": 96}, {"time": 1113, "pitch": 75, "duration": 8, "velocity": 97}, {"time": 1113, "pitch": 80, "duration": 9, "velocity": 100}, {"time": 1119, "pitch": 63, "duration": 3, "velocity": 95}, {"time": 1122, "pitch": 68, "duration": 4, "velocity": 85}, {"time": 1125, "pitch": 70, "duration": 3, "velocity": 112}, {"time": 1128, "pitch": 72, "duration": 4, "velocity": 78}, {"time": 1131, "pitch": 73, "duration": 4, "velocity": 99}, {"time": 1134, "pitch": 75, "duration": 4, "velocity": 88}, {"time": 1137, "pitch": 77, "duration": 4, "velocity": 99}, {"time": 1140, "pitch": 78, "duration": 3, "velocity": 122}, {"time": 1143, "pitch": 77, "duration": 3, "velocity": 95}, {"time": 1146, "pitch": 78, "duration": 12, "velocity": 102}, {"time": 1152, "pitch": 66, "duration": 3, "velocity": 81}, {"time": 1155, "pitch": 68, "duration": 4, "velocity": 93}, {"time": 1158, "pitch": 73, "duration": 4, "velocity": 107}, {"time": 1161, "pitch": 65, "duration": 4, "velocity": 75}, {"time": 1161, "pitch": 79, "duration": 3, "velocity": 93}, {"time": 1164, "pitch": 66, "duration": 4, "velocity": 77}, {"time": 1164, "pitch": 80, "duration": 4, "velocity": 102}, {"time": 1167, "pitch": 65, "duration": 4, "velocity": 61}, {"time": 1167, "pitch": 79, "duration": 3, "velocity": 93}, {"time": 1170, "pitch": 66, "duration": 13, "velocity": 88}, {"time": 1170, "pitch": 80, "duration": 10, "velocity": 117}, {"time": 1176, "pitch": 68, "duration": 3, "velocity": 92}, {"time": 1179, "pitch": 70, "duration": 4, "velocity": 99}, {"time": 1182, "pitch": 75, "duration": 4, "velocity": 107}, {"time": 1185, "pitch": 75, "duration": 1, "velocity": 102}, {"time": 1185, "pitch": 84, "duration": 3, "velocity": 112}, {"time": 1188, "pitch": 77, "duration": 4, "velocity": 90}, {"time": 1188, "pitch": 85, "duration": 4, "velocity": 117}, {"time": 1191, "pitch": 75, "duration": 4, "velocity": 90}, {"time": 1191, "pitch": 84, "duration": 4, "velocity": 112}, {"time": 1194, "pitch": 77, "duration": 11, "velocity": 107}, {"time": 1194, "pitch": 85, "duration": 7, "velocity": 122}, {"time": 1200, "pitch": 65, "duration": 3, "velocity": 81}, {"time": 1203, "pitch": 56, "duration": 12, "velocity": 96}, {"time": 1209, "pitch": 73, "duration": 37, "velocity": 117}, {"time": 1404, "pitch": 66, "duration": 3, "velocity": 97}, {"time": 1404, "pitch": 78, "duration": 3, "velocity": 86}, {"time": 1407, "pitch": 89, "duration": 2, "velocity": 95}, {"time": 1407, "pitch": 92, "duration": 2, "velocity": 96}, {"time": 1410, "pitch": 90, "duration": 5, "velocity": 88}, {"time": 1410, "pitch": 94, "duration": 4, "velocity": 93}, {"time": 1500, "pitch": 68, "duration": 4, "velocity": 86}, {"time": 1503, "pitch": 73, "duration": 3, "velocity": 96}, {"time": 1506, "pitch": 75, "duration": 3, "velocity": 76}, {"time": 1509, "pitch": 75, "duration": 1, "velocity": 44}, {"time": 1509, "pitch": 77, "duration": 8, "velocity": 86}, {"time": 1515, "pitch": 74, "duration": 14, "velocity": 97}, {"time": 1599, "pitch": 80, "duration": 3, "velocity": 99}, {"time": 1599, "pitch": 89, "duration": 3, "velocity": 107}, {"time": 1602, "pitch": 82, "duration": 15, "velocity": 102}, {"time": 1602, "pitch": 90, "duration": 10, "velocity": 107}, {"time": 1626, "pitch": 77, "duration": 4, "velocity": 86}, {"time": 1629, "pitch": 78, "duration": 12, "velocity": 117}, {"time": 1641, "pitch": 77, "duration": 19, "velocity": 100}, {"time": 2025, "pitch": 73, "duration": 8, "velocity": 77}, {"time": 2034, "pitch": 73, "duration": 3, "velocity": 102}, {"time": 2037, "pitch": 72, "duration": 11, "velocity": 99}, {"time": 2043, "pitch": 72, "duration": 5, "velocity": 88}, {"time": 2049, "pitch": 70, "duration": 24, "velocity": 93}, {"time": 2232, "pitch": 65, "duration": 4, "velocity": 96}, {"time": 2232, "pitch": 68, "duration": 4, "velocity": 122}, {"time": 2235, "pitch": 63, "duration": 4, "velocity": 112}, {"time": 2235, "pitch": 66, "duration": 4, "velocity": 117}, {"time": 2238, "pitch": 61, "duration": 3, "velocity": 96}, {"time": 2238, "pitch": 65, "duration": 4, "velocity": 95}, {"time": 2241, "pitch": 60, "duration": 13, "velocity": 97}, {"time": 2241, "pitch": 63, "duration": 12, "velocity": 117}, {"time": 2271, "pitch": 70, "duration": 3, "velocity": 100}, {"time": 2271, "pitch": 73, "duration": 3, "velocity": 107}, {"time": 2274, "pitch": 72, "duration": 3, "velocity": 89}, {"time": 2274, "pitch": 75, "duration": 3, "velocity": 93}, {"time": 2277, "pitch": 73, "duration": 5, "velocity": 107}, {"time": 2277, "pitch": 77, "duration": 4, "velocity": 99}, {"time": 2283, "pitch": 70, "duration": 4, "velocity": 102}, {"time": 2283, "pitch": 78, "duration": 3, "velocity": 100}, {"time": 2286, "pitch": 68, "duration": 19, "velocity": 107}, {"time": 2286, "pitch": 77, "duration": 19, "velocity": 100}, {"time": 2319, "pitch": 73, "duration": 3, "velocity": 112}, {"time": 2319, "pitch": 82, "duration": 3, "velocity": 112}, {"time": 2322, "pitch": 75, "duration": 3, "velocity": 99}, {"time": 2322, "pitch": 84, "duration": 3, "velocity": 96}, {"time": 2325, "pitch": 77, "duration": 4, "velocity": 99}, {"time": 2325, "pitch": 85, "duration": 5, "velocity": 102}, {"time": 2329, "pitch": 75, "duration": 4, "velocity": 117}, {"time": 2329, "pitch": 84, "duration": 5, "velocity": 112}, {"time": 2333, "pitch": 73, "duration": 4, "velocity": 95}, {"time": 2333, "pitch": 82, "duration": 4, "velocity": 99}, {"time": 2337, "pitch": 75, "duration": 6, "velocity": 99}, {"time": 2337, "pitch": 80, "duration": 7, "velocity": 102}, {"time": 2349, "pitch": 80, "duration": 5, "velocity": 122}, {"time": 2352, "pitch": 78, "duration": 5, "velocity": 112}, {"time": 2358, "pitch": 77, "duration": 4, "velocity": 93}, {"time": 2361, "pitch": 75, "duration": 11, "velocity": 112}, {"time": 2367, "pitch": 89, "duration": 3, "velocity": 127}, {"time": 2370, "pitch": 85, "duration": 14, "velocity": 117}, {"time": 2388, "pitch": 63, "duration": 3, "velocity": 95}, {"time": 2391, "pitch": 68, "duration": 3, "velocity": 93}, {"time": 2394, "pitch": 80, "duration": 10, "velocity": 117}, {"time": 2400, "pitch": 92, "duration": 3, "velocity": 127}, {"time": 2403, "pitch": 89, "duration": 4, "velocity": 99}, {"time": 2406, "pitch": 90, "duration": 4, "velocity": 112}, {"time": 2409, "pitch": 92, "duration": 44, "velocity": 122}, {"time": 2457, "pitch": 89, "duration": 48, "velocity": 112}]}, {"program": 0, "is_drum": false, "name": "PIANO", "notes": [{"time": 9, "pitch": 37, "duration": 19, "velocity": 85}, {"time": 15, "pitch": 49, "duration": 14, "velocity": 56}, {"time": 21, "pitch": 68, "duration": 13, "velocity": 97}, {"time": 24, "pitch": 61, "duration": 5, "velocity": 58}, {"time": 27, "pitch": 65, "duration": 7, "velocity": 67}, {"time": 30, "pitch": 37, "duration": 3, "velocity": 81}, {"time": 30, "pitch": 61, "duration": 4, "velocity": 71}, {"time": 33, "pitch": 48, "duration": 14, "velocity": 78}, {"time": 39, "pitch": 60, "duration": 12, "velocity": 64}, {"time": 45, "pitch": 65, "duration": 6, "velocity": 81}, {"time": 45, "pitch": 68, "duration": 12, "velocity": 117}, {"time": 51, "pitch": 60, "duration": 1, "velocity": 76}, {"time": 54, "pitch": 48, "duration": 3, "velocity": 81}, {"time": 57, "pitch": 46, "duration": 18, "velocity": 86}, {"time": 63, "pitch": 58, "duration": 11, "velocity": 83}, {"time": 66, "pitch": 61, "duration": 10, "velocity": 60}, {"time": 69, "pitch": 61, "duration": 7, "velocity": 95}, {"time": 69, "pitch": 65, "duration": 10, "velocity": 81}, {"time": 75, "pitch": 58, "duration": 2, "velocity": 63}, {"time": 78, "pitch": 46, "duration": 3, "velocity": 83}, {"time": 78, "pitch": 65, "duration": 1, "velocity": 83}, {"time": 81, "pitch": 41, "duration": 20, "velocity": 69}, {"time": 84, "pitch": 48, "duration": 18, "velocity": 58}, {"time": 87, "pitch": 53, "duration": 7, "velocity": 78}, {"time": 93, "pitch": 56, "duration": 8, "velocity": 76}, {"time": 93, "pitch": 60, "duration": 12, "velocity": 85}, {"time": 96, "pitch": 53, "duration": 5, "velocity": 63}, {"time": 99, "pitch": 56, "duration": 2, "velocity": 99}, {"time": 102, "pitch": 41, "duration": 3, "velocity": 81}, {"time": 102, "pitch": 60, "duration": 3, "velocity": 67}, {"time": 105, "pitch": 42, "duration": 19, "velocity": 92}, {"time": 111, "pitch": 54, "duration": 9, "velocity": 76}, {"time": 114, "pitch": 58, "duration": 4, "velocity": 75}, {"time": 117, "pitch": 61, "duration": 10, "velocity": 92}, {"time": 117, "pitch": 66, "duration": 15, "velocity": 99}, {"time": 120, "pitch": 54, "duration": 3, "velocity": 69}, {"time": 123, "pitch": 58, "duration": 7, "velocity": 85}, {"time": 126, "pitch": 42, "duration": 3, "velocity": 81}, {"time": 126, "pitch": 61, "duration": 1, "velocity": 96}, {"time": 129, "pitch": 41, "duration": 19, "velocity": 72}, {"time": 132, "pitch": 48, "duration": 15, "velocity": 54}, {"time": 135, "pitch": 53, "duration": 8, "velocity": 81}, {"time": 141, "pitch": 56, "duration": 6, "velocity": 85}, {"time": 141, "pitch": 60, "duration": 10, "velocity": 82}, {"time": 147, "pitch": 53, "duration": 3, "velocity": 83}, {"time": 150, "pitch": 41, "duration": 3, "velocity": 81}, {"time": 150, "pitch": 60, "duration": 1, "velocity": 72}, {"time": 153, "pitch": 39, "duration": 18, "velocity": 86}, {"time": 159, "pitch": 46, "duration": 15, "velocity": 59}, {"time": 162, "pitch": 51, "duration": 7, "velocity": 68}, {"time": 165, "pitch": 54, "duration": 4, "velocity": 92}, {"time": 165, "pitch": 58, "duration": 7, "velocity": 77}, {"time": 165, "pitch": 63, "duration": 12, "velocity": 73}, {"time": 168, "pitch": 51, "duration": 1, "velocity": 89}, {"time": 171, "pitch": 54, "duration": 5, "velocity": 90}, {"time": 174, "pitch": 39, "duration": 3, "velocity": 81}, {"time": 177, "pitch": 44, "duration": 19, "velocity": 79}, {"time": 183, "pitch": 51, "duration": 17, "velocity": 64}, {"time": 186, "pitch": 56, "duration": 7, "velocity": 89}, {"time": 189, "pitch": 63, "duration": 7, "velocity": 99}, {"time": 189, "pitch": 68, "duration": 8, "velocity": 90}, {"time": 192, "pitch": 56, "duration": 1, "velocity": 85}, {"time": 195, "pitch": 60, "duration": 32, "velocity": 82}, {"time": 201, "pitch": 44, "duration": 17, "velocity": 53}, {"time": 201, "pitch": 51, "duration": 16, "velocity": 69}, {"time": 201, "pitch": 56, "duration": 15, "velocity": 63}, {"time": 201, "pitch": 63, "duration": 25, "velocity": 72}, {"time": 201, "pitch": 68, "duration": 26, "velocity": 77}, {"time": 225, "pitch": 37, "duration": 22, "velocity": 71}, {"time": 231, "pitch": 44, "duration": 17, "velocity": 27}, {"time": 237, "pitch": 56, "duration": 13, "velocity": 83}, {"time": 237, "pitch": 61, "duration": 13, "velocity": 79}, {"time": 243, "pitch": 53, "duration": 6, "velocity": 57}, {"time": 249, "pitch": 41, "duration": 16, "velocity": 69}, {"time": 255, "pitch": 53, "duration": 7, "velocity": 89}, {"time": 261, "pitch": 56, "duration": 12, "velocity": 83}, {"time": 261, "pitch": 60, "duration": 12, "velocity": 77}, {"time": 267, "pitch": 53, "duration": 6, "velocity": 56}, {"time": 273, "pitch": 42, "duration": 11, "velocity": 79}, {"time": 279, "pitch": 61, "duration": 6, "velocity": 93}, {"time": 285, "pitch": 44, "duration": 8, "velocity": 66}, {"time": 291, "pitch": 60, "duration": 7, "velocity": 66}, {"time": 291, "pitch": 63, "duration": 7, "velocity": 74}, {"time": 297, "pitch": 37, "duration": 9, "velocity": 72}, {"time": 303, "pitch": 49, "duration": 6, "velocity": 74}, {"time": 309, "pitch": 46, "duration": 5, "velocity": 71}, {"time": 309, "pitch": 58, "duration": 13, "velocity": 92}, {"time": 309, "pitch": 62, "duration": 11, "velocity": 69}, {"time": 309, "pitch": 65, "duration": 10, "velocity": 62}, {"time": 321, "pitch": 39, "duration": 22, "velocity": 93}, {"time": 327, "pitch": 51, "duration": 18, "velocity": 46}, {"time": 333, "pitch": 54, "duration": 12, "velocity": 77}, {"time": 333, "pitch": 58, "duration": 12, "velocity": 86}, {"time": 345, "pitch": 39, "duration": 17, "velocity": 97}, {"time": 345, "pitch": 54, "duration": 1, "velocity": 27}, {"time": 351, "pitch": 51, "duration": 12, "velocity": 63}, {"time": 357, "pitch": 54, "duration": 13, "velocity": 99}, {"time": 357, "pitch": 57, "duration": 13, "velocity": 85}, {"time": 369, "pitch": 44, "duration": 23, "velocity": 78}, {"time": 375, "pitch": 51, "duration": 19, "velocity": 83}, {"time": 381, "pitch": 60, "duration": 20, "velocity": 93}, {"time": 381, "pitch": 63, "duration": 21, "velocity": 97}, {"time": 387, "pitch": 56, "duration": 15, "velocity": 67}, {"time": 390, "pitch": 68, "duration": 11, "velocity": 53}, {"time": 393, "pitch": 44, "duration": 18, "velocity": 82}, {"time": 399, "pitch": 51, "duration": 8, "velocity": 65}, {"time": 405, "pitch": 56, "duration": 2, "velocity": 32}, {"time": 405, "pitch": 63, "duration": 13, "velocity": 63}, {"time": 405, "pitch": 68, "duration": 13, "velocity": 99}, {"time": 408, "pitch": 51, "duration": 2, "velocity": 88}, {"time": 411, "pitch": 56, "duration": 7, "velocity": 97}, {"time": 411, "pitch": 60, "duration": 1, "velocity": 31}, {"time": 414, "pitch": 60, "duration": 4, "velocity": 67}, {"time": 417, "pitch": 37, "duration": 20, "velocity": 90}, {"time": 423, "pitch": 44, "duration": 14, "velocity": 63}, {"time": 429, "pitch": 61, "duration": 12, "velocity": 107}, {"time": 435, "pitch": 56, "duration": 6, "velocity": 76}, {"time": 441, "pitch": 41, "duration": 17, "velocity": 73}, {"time": 447, "pitch": 48, "duration": 10, "velocity": 69}, {"time": 453, "pitch": 56, "duration": 12, "velocity": 95}, {"time": 453, "pitch": 60, "duration": 12, "velocity": 82}, {"time": 459, "pitch": 53, "duration": 6, "velocity": 75}, {"time": 465, "pitch": 42, "duration": 12, "velocity": 63}, {"time": 471, "pitch": 58, "duration": 7, "velocity": 82}, {"time": 471, "pitch": 61, "duration": 7, "velocity": 88}, {"time": 477, "pitch": 44, "duration": 8, "velocity": 99}, {"time": 483, "pitch": 63, "duration": 6, "velocity": 112}, {"time": 486, "pitch": 56, "duration": 3, "velocity": 83}, {"time": 489, "pitch": 37, "duration": 7, "velocity": 86}, {"time": 495, "pitch": 49, "duration": 6, "velocity": 68}, {"time": 501, "pitch": 46, "duration": 11, "velocity": 54}, {"time": 501, "pitch": 58, "duration": 12, "velocity": 93}, {"time": 501, "pitch": 62, "duration": 12, "velocity": 71}, {"time": 501, "pitch": 65, "duration": 12, "velocity": 61}, {"time": 513, "pitch": 39, "duration": 23, "velocity": 95}, {"time": 519, "pitch": 46, "duration": 13, "velocity": 34}, {"time": 525, "pitch": 51, "duration": 6, "velocity": 54}, {"time": 525, "pitch": 58, "duration": 12, "velocity": 93}, {"time": 525, "pitch": 63, "duration": 12, "velocity": 90}, {"time": 531, "pitch": 54, "duration": 7, "velocity": 89}, {"time": 537, "pitch": 39, "duration": 15, "velocity": 93}, {"time": 543, "pitch": 51, "duration": 7, "velocity": 76}, {"time": 549, "pitch": 54, "duration": 12, "velocity": 100}, {"time": 549, "pitch": 57, "duration": 12, "velocity": 86}, {"time": 555, "pitch": 51, "duration": 5, "velocity": 74}, {"time": 561, "pitch": 44, "duration": 23, "velocity": 96}, {"time": 567, "pitch": 51, "duration": 19, "velocity": 74}, {"time": 573, "pitch": 56, "duration": 3, "velocity": 79}, {"time": 573, "pitch": 60, "duration": 20, "velocity": 107}, {"time": 573, "pitch": 63, "duration": 20, "velocity": 107}, {"time": 579, "pitch": 56, "duration": 17, "velocity": 82}, {"time": 585, "pitch": 44, "duration": 18, "velocity": 97}, {"time": 591, "pitch": 51, "duration": 8, "velocity": 81}, {"time": 597, "pitch": 63, "duration": 13, "velocity": 127}, {"time": 600, "pitch": 51, "duration": 2, "velocity": 96}, {"time": 603, "pitch": 56, "duration": 8, "velocity": 97}, {"time": 609, "pitch": 37, "duration": 23, "velocity": 100}, {"time": 615, "pitch": 49, "duration": 9, "velocity": 86}, {"time": 621, "pitch": 61, "duration": 7, "velocity": 127}, {"time": 624, "pitch": 49, "duration": 10, "velocity": 97}, {"time": 627, "pitch": 56, "duration": 14, "velocity": 99}, {"time": 630, "pitch": 61, "duration": 11, "velocity": 64}, {"time": 630, "pitch": 65, "duration": 14, "velocity": 76}, {"time": 633, "pitch": 37, "duration": 11, "velocity": 100}, {"time": 639, "pitch": 49, "duration": 5, "velocity": 92}, {"time": 642, "pitch": 56, "duration": 2, "velocity": 56}, {"time": 645, "pitch": 48, "duration": 11, "velocity": 95}, {"time": 645, "pitch": 60, "duration": 11, "velocity": 107}, {"time": 657, "pitch": 46, "duration": 19, "velocity": 93}, {"time": 660, "pitch": 53, "duration": 15, "velocity": 76}, {"time": 663, "pitch": 58, "duration": 5, "velocity": 92}, {"time": 666, "pitch": 61, "duration": 7, "velocity": 107}, {"time": 669, "pitch": 65, "duration": 5, "velocity": 83}, {"time": 669, "pitch": 70, "duration": 12, "velocity": 107}, {"time": 672, "pitch": 58, "duration": 3, "velocity": 90}, {"time": 675, "pitch": 53, "duration": 1, "velocity": 100}, {"time": 678, "pitch": 46, "duration": 3, "velocity": 81}, {"time": 678, "pitch": 65, "duration": 4, "velocity": 72}, {"time": 681, "pitch": 41, "duration": 19, "velocity": 72}, {"time": 684, "pitch": 56, "duration": 7, "velocity": 92}, {"time": 690, "pitch": 60, "duration": 4, "velocity": 90}, {"time": 693, "pitch": 65, "duration": 3, "velocity": 103}, {"time": 696, "pitch": 60, "duration": 3, "velocity": 107}, {"time": 699, "pitch": 56, "duration": 3, "velocity": 104}, {"time": 702, "pitch": 41, "duration": 3, "velocity": 81}, {"time": 702, "pitch": 53, "duration": 3, "velocity": 88}, {"time": 702, "pitch": 60, "duration": 3, "velocity": 69}, {"time": 705, "pitch": 42, "duration": 12, "velocity": 112}, {"time": 708, "pitch": 54, "duration": 6, "velocity": 90}, {"time": 711, "pitch": 58, "duration": 4, "velocity": 112}, {"time": 714, "pitch": 61, "duration": 3, "velocity": 127}, {"time": 717, "pitch": 44, "duration": 6, "velocity": 112}, {"time": 720, "pitch": 56, "duration": 5, "velocity": 90}, {"time": 723, "pitch": 63, "duration": 7, "velocity": 127}, {"time": 726, "pitch": 56, "duration": 4, "velocity": 112}, {"time": 729, "pitch": 37, "duration": 17, "velocity": 72}, {"time": 732, "pitch": 44, "duration": 14, "velocity": 68}, {"time": 735, "pitch": 49, "duration": 6, "velocity": 97}, {"time": 738, "pitch": 53, "duration": 3, "velocity": 93}, {"time": 741, "pitch": 65, "duration": 6, "velocity": 81}, {"time": 741, "pitch": 56, "duration": 3, "velocity": 93}, {"time": 741, "pitch": 61, "duration": 12, "velocity": 109}, {"time": 744, "pitch": 53, "duration": 4, "velocity": 93}, {"time": 747, "pitch": 49, "duration": 4, "velocity": 96}, {"time": 750, "pitch": 44, "duration": 3, "velocity": 81}, {"time": 750, "pitch": 56, "duration": 3, "velocity": 97}, {"time": 753, "pitch": 46, "duration": 21, "velocity": 97}, {"time": 756, "pitch": 53, "duration": 17, "velocity": 63}, {"time": 759, "pitch": 58, "duration": 8, "velocity": 99}, {"time": 762, "pitch": 61, "duration": 8, "velocity": 102}, {"time": 765, "pitch": 70, "duration": 7, "velocity": 112}, {"time": 765, "pitch": 65, "duration": 12, "velocity": 101}, {"time": 768, "pitch": 58, "duration": 4, "velocity": 99}, {"time": 774, "pitch": 46, "duration": 3, "velocity": 81}, {"time": 777, "pitch": 41, "duration": 17, "velocity": 70}, {"time": 780, "pitch": 48, "duration": 11, "velocity": 83}, {"time": 783, "pitch": 53, "duration": 3, "velocity": 88}, {"time": 786, "pitch": 56, "duration": 9, "velocity": 96}, {"time": 789, "pitch": 65, "duration": 9, "velocity": 81}, {"time": 789, "pitch": 60, "duration": 12, "velocity": 99}, {"time": 792, "pitch": 53, "duration": 3, "velocity": 95}, {"time": 795, "pitch": 48, "duration": 6, "velocity": 96}, {"time": 798, "pitch": 41, "duration": 4, "velocity": 91}, {"time": 801, "pitch": 39, "duration": 17, "velocity": 71}, {"time": 804, "pitch": 46, "duration": 14, "velocity": 69}, {"time": 807, "pitch": 51, "duration": 8, "velocity": 92}, {"time": 810, "pitch": 54, "duration": 4, "velocity": 65}, {"time": 813, "pitch": 58, "duration": 6, "velocity": 92}, {"time": 813, "pitch": 63, "duration": 12, "velocity": 106}, {"time": 816, "pitch": 53, "duration": 4, "velocity": 97}, {"time": 819, "pitch": 51, "duration": 4, "velocity": 102}, {"time": 822, "pitch": 39, "duration": 3, "velocity": 105}, {"time": 825, "pitch": 44, "duration": 20, "velocity": 93}, {"time": 828, "pitch": 51, "duration": 15, "velocity": 64}, {"time": 831, "pitch": 56, "duration": 7, "velocity": 102}, {"time": 834, "pitch": 63, "duration": 3, "velocity": 110}, {"time": 834, "pitch": 68, "duration": 3, "velocity": 110}, {"time": 837, "pitch": 63, "duration": 7, "velocity": 109}, {"time": 837, "pitch": 68, "duration": 13, "velocity": 109}, {"time": 840, "pitch": 56, "duration": 3, "velocity": 108}, {"time": 843, "pitch": 51, "duration": 1, "velocity": 107}, {"time": 846, "pitch": 44, "duration": 4, "velocity": 105}, {"time": 849, "pitch": 46, "duration": 21, "velocity": 95}, {"time": 852, "pitch": 53, "duration": 17, "velocity": 78}, {"time": 855, "pitch": 58, "duration": 9, "velocity": 102}, {"time": 858, "pitch": 61, "duration": 3, "velocity": 102}, {"time": 861, "pitch": 70, "duration": 6, "velocity": 101}, {"time": 861, "pitch": 65, "duration": 8, "velocity": 99}, {"time": 864, "pitch": 58, "duration": 4, "velocity": 71}, {"time": 867, "pitch": 56, "duration": 3, "velocity": 81}, {"time": 870, "pitch": 46, "duration": 3, "velocity": 100}, {"time": 873, "pitch": 41, "duration": 18, "velocity": 88}, {"time": 876, "pitch": 48, "duration": 15, "velocity": 81}, {"time": 879, "pitch": 53, "duration": 7, "velocity": 92}, {"time": 882, "pitch": 56, "duration": 4, "velocity": 86}, {"time": 885, "pitch": 65, "duration": 12, "velocity": 95}, {"time": 888, "pitch": 56, "duration": 3, "velocity": 96}, {"time": 891, "pitch": 53, "duration": 7, "velocity": 100}, {"time": 894, "pitch": 41, "duration": 4, "velocity": 71}, {"time": 897, "pitch": 42, "duration": 9, "velocity": 93}, {"time": 900, "pitch": 49, "duration": 9, "velocity": 93}, {"time": 903, "pitch": 54, "duration": 4, "velocity": 117}, {"time": 906, "pitch": 42, "duration": 1, "velocity": 102}, {"time": 909, "pitch": 44, "duration": 8, "velocity": 95}, {"time": 912, "pitch": 51, "duration": 5, "velocity": 107}, {"time": 915, "pitch": 56, "duration": 6, "velocity": 104}, {"time": 918, "pitch": 44, "duration": 3, "velocity": 102}, {"time": 921, "pitch": 37, "duration": 22, "velocity": 98}, {"time": 924, "pitch": 44, "duration": 18, "velocity": 92}, {"time": 927, "pitch": 49, "duration": 8, "velocity": 93}, {"time": 930, "pitch": 56, "duration": 5, "velocity": 85}, {"time": 933, "pitch": 61, "duration": 5, "velocity": 108}, {"time": 933, "pitch": 65, "duration": 13, "velocity": 108}, {"time": 936, "pitch": 56, "duration": 6, "velocity": 92}, {"time": 939, "pitch": 49, "duration": 7, "velocity": 89}, {"time": 942, "pitch": 44, "duration": 4, "velocity": 85}, {"time": 945, "pitch": 46, "duration": 20, "velocity": 102}, {"time": 948, "pitch": 53, "duration": 15, "velocity": 54}, {"time": 951, "pitch": 58, "duration": 7, "velocity": 112}, {"time": 954, "pitch": 61, "duration": 4, "velocity": 93}, {"time": 957, "pitch": 70, "duration": 3, "velocity": 81}, {"time": 957, "pitch": 65, "duration": 5, "velocity": 71}, {"time": 960, "pitch": 58, "duration": 4, "velocity": 100}, {"time": 963, "pitch": 53, "duration": 1, "velocity": 74}, {"time": 966, "pitch": 46, "duration": 4, "velocity": 100}, {"time": 969, "pitch": 41, "duration": 19, "velocity": 75}, {"time": 972, "pitch": 48, "duration": 11, "velocity": 76}, {"time": 975, "pitch": 53, "duration": 3, "velocity": 83}, {"time": 978, "pitch": 56, "duration": 3, "velocity": 86}, {"time": 981, "pitch": 65, "duration": 6, "velocity": 81}, {"time": 981, "pitch": 60, "duration": 11, "velocity": 102}, {"time": 984, "pitch": 56, "duration": 4, "velocity": 95}, {"time": 987, "pitch": 53, "duration": 4, "velocity": 100}, {"time": 990, "pitch": 41, "duration": 2, "velocity": 99}, {"time": 993, "pitch": 42, "duration": 10, "velocity": 100}, {"time": 996, "pitch": 54, "duration": 4, "velocity": 95}, {"time": 999, "pitch": 58, "duration": 5, "velocity": 100}, {"time": 999, "pitch": 61, "duration": 5, "velocity": 107}, {"time": 1002, "pitch": 54, "duration": 3, "velocity": 97}, {"time": 1005, "pitch": 44, "duration": 6, "velocity": 99}, {"time": 1008, "pitch": 56, "duration": 4, "velocity": 85}, {"time": 1011, "pitch": 60, "duration": 6, "velocity": 73}, {"time": 1011, "pitch": 63, "duration": 6, "velocity": 112}, {"time": 1014, "pitch": 56, "duration": 3, "velocity": 93}, {"time": 1017, "pitch": 37, "duration": 8, "velocity": 117}, {"time": 1020, "pitch": 49, "duration": 7, "velocity": 96}, {"time": 1023, "pitch": 61, "duration": 3, "velocity": 99}, {"time": 1026, "pitch": 68, "duration": 3, "velocity": 127}, {"time": 1029, "pitch": 48, "duration": 5, "velocity": 112}, {"time": 1029, "pitch": 60, "duration": 5, "velocity": 117}, {"time": 1035, "pitch": 48, "duration": 3, "velocity": 86}, {"time": 1035, "pitch": 60, "duration": 6, "velocity": 117}, {"time": 1041, "pitch": 46, "duration": 19, "velocity": 90}, {"time": 1044, "pitch": 53, "duration": 15, "velocity": 65}, {"time": 1047, "pitch": 58, "duration": 7, "velocity": 100}, {"time": 1050, "pitch": 61, "duration": 4, "velocity": 89}, {"time": 1053, "pitch": 65, "duration": 5, "velocity": 102}, {"time": 1053, "pitch": 70, "duration": 7, "velocity": 102}, {"time": 1056, "pitch": 61, "duration": 3, "velocity": 102}, {"time": 1059, "pitch": 58, "duration": 7, "velocity": 102}, {"time": 1059, "pitch": 65, "duration": 2, "velocity": 38}, {"time": 1062, "pitch": 46, "duration": 3, "velocity": 102}, {"time": 1062, "pitch": 65, "duration": 3, "velocity": 100}, {"time": 1062, "pitch": 70, "duration": 4, "velocity": 100}, {"time": 1065, "pitch": 41, "duration": 18, "velocity": 73}, {"time": 1068, "pitch": 48, "duration": 11, "velocity": 89}, {"time": 1071, "pitch": 53, "duration": 4, "velocity": 90}, {"time": 1074, "pitch": 56, "duration": 4, "velocity": 82}, {"time": 1077, "pitch": 60, "duration": 7, "velocity": 72}, {"time": 1077, "pitch": 65, "duration": 12, "velocity": 78}, {"time": 1080, "pitch": 56, "duration": 3, "velocity": 90}, {"time": 1083, "pitch": 53, "duration": 6, "velocity": 97}, {"time": 1086, "pitch": 41, "duration": 3, "velocity": 81}, {"time": 1086, "pitch": 60, "duration": 3, "velocity": 66}, {"time": 1089, "pitch": 42, "duration": 9, "velocity": 97}, {"time": 1092, "pitch": 49, "duration": 9, "velocity": 88}, {"time": 1095, "pitch": 54, "duration": 4, "velocity": 102}, {"time": 1098, "pitch": 42, "duration": 4, "velocity": 117}, {"time": 1101, "pitch": 56, "duration": 5, "velocity": 96}, {"time": 1101, "pitch": 63, "duration": 7, "velocity": 117}, {"time": 1101, "pitch": 44, "duration": 6, "velocity": 97}, {"time": 1107, "pitch": 51, "duration": 3, "velocity": 81}, {"time": 1110, "pitch": 44, "duration": 3, "velocity": 81}, {"time": 1113, "pitch": 37, "duration": 19, "velocity": 88}, {"time": 1119, "pitch": 44, "duration": 16, "velocity": 83}, {"time": 1122, "pitch": 49, "duration": 7, "velocity": 107}, {"time": 1125, "pitch": 56, "duration": 4, "velocity": 101}, {"time": 1125, "pitch": 61, "duration": 6, "velocity": 127}, {"time": 1128, "pitch": 49, "duration": 1, "velocity": 102}, {"time": 1131, "pitch": 44, "duration": 4, "velocity": 112}, {"time": 1134, "pitch": 37, "duration": 3, "velocity": 112}, {"time": 1137, "pitch": 46, "duration": 20, "velocity": 93}, {"time": 1140, "pitch": 53, "duration": 13, "velocity": 66}, {"time": 1143, "pitch": 58, "duration": 5, "velocity": 107}, {"time": 1146, "pitch": 61, "duration": 7, "velocity": 102}, {"time": 1149, "pitch": 65, "duration": 6, "velocity": 90}, {"time": 1152, "pitch": 61, "duration": 1, "velocity": 102}, {"time": 1155, "pitch": 58, "duration": 3, "velocity": 107}, {"time": 1155, "pitch": 70, "duration": 6, "velocity": 127}, {"time": 1158, "pitch": 46, "duration": 3, "velocity": 81}, {"time": 1161, "pitch": 41, "duration": 17, "velocity": 77}, {"time": 1164, "pitch": 48, "duration": 10, "velocity": 97}, {"time": 1167, "pitch": 53, "duration": 4, "velocity": 96}, {"time": 1170, "pitch": 56, "duration": 4, "velocity": 107}, {"time": 1173, "pitch": 60, "duration": 11, "velocity": 122}, {"time": 1176, "pitch": 56, "duration": 2, "velocity": 96}, {"time": 1179, "pitch": 53, "duration": 5, "velocity": 117}, {"time": 1182, "pitch": 41, "duration": 3, "velocity": 81}, {"time": 1182, "pitch": 48, "duration": 4, "velocity": 93}, {"time": 1185, "pitch": 42, "duration": 12, "velocity": 93}, {"time": 1191, "pitch": 54, "duration": 5, "velocity": 99}, {"time": 1191, "pitch": 61, "duration": 5, "velocity": 99}, {"time": 1194, "pitch": 58, "duration": 2, "velocity": 97}, {"time": 1197, "pitch": 56, "duration": 5, "velocity": 89}, {"time": 1197, "pitch": 63, "duration": 6, "velocity": 127}, {"time": 1197, "pitch": 44, "duration": 6, "velocity": 122}, {"time": 1203, "pitch": 51, "duration": 3, "velocity": 107}, {"time": 1206, "pitch": 44, "duration": 3, "velocity": 81}, {"time": 1209, "pitch": 49, "duration": 24, "velocity": 89}, {"time": 1209, "pitch": 61, "duration": 8, "velocity": 100}, {"time": 1212, "pitch": 56, "duration": 20, "velocity": 61}, {"time": 1215, "pitch": 61, "duration": 2, "velocity": 96}, {"time": 1218, "pitch": 65, "duration": 6, "velocity": 86}, {"time": 1221, "pitch": 73, "duration": 12, "velocity": 94}, {"time": 1233, "pitch": 37, "duration": 22, "velocity": 71}, {"time": 1239, "pitch": 44, "duration": 17, "velocity": 27}, {"time": 1245, "pitch": 56, "duration": 13, "velocity": 83}, {"time": 1245, "pitch": 61, "duration": 13, "velocity": 79}, {"time": 1251, "pitch": 53, "duration": 6, "velocity": 57}, {"time": 1257, "pitch": 41, "duration": 16, "velocity": 69}, {"time": 1263, "pitch": 53, "duration": 7, "velocity": 89}, {"time": 1269, "pitch": 56, "duration": 12, "velocity": 83}, {"time": 1269, "pitch": 60, "duration": 12, "velocity": 77}, {"time": 1275, "pitch": 53, "duration": 6, "velocity": 56}, {"time": 1281, "pitch": 42, "duration": 11, "velocity": 79}, {"time": 1287, "pitch": 61, "duration": 6, "velocity": 93}, {"time": 1293, "pitch": 44, "duration": 8, "velocity": 66}, {"time": 1299, "pitch": 60, "duration": 7, "velocity": 66}, {"time": 1299, "pitch": 63, "duration": 7, "velocity": 74}, {"time": 1305, "pitch": 37, "duration": 9, "velocity": 72}, {"time": 1311, "pitch": 49, "duration": 6, "velocity": 74}, {"time": 1317, "pitch": 46, "duration": 5, "velocity": 71}, {"time": 1317, "pitch": 58, "duration": 13, "velocity": 92}, {"time": 1317, "pitch": 62, "duration": 11, "velocity": 69}, {"time": 1317, "pitch": 65, "duration": 10, "velocity": 62}, {"time": 1329, "pitch": 39, "duration": 22, "velocity": 93}, {"time": 1335, "pitch": 51, "duration": 18, "velocity": 46}, {"time": 1341, "pitch": 54, "duration": 12, "velocity": 77}, {"time": 1341, "pitch": 58, "duration": 12, "velocity": 86}, {"time": 1353, "pitch": 39, "duration": 17, "velocity": 97}, {"time": 1353, "pitch": 54, "duration": 1, "velocity": 27}, {"time": 1359, "pitch": 51, "duration": 12, "velocity": 63}, {"time": 1365, "pitch": 54, "duration": 13, "velocity": 99}, {"time": 1365, "pitch": 57, "duration": 13, "velocity": 85}, {"time": 1377, "pitch": 44, "duration": 23, "velocity": 78}, {"time": 1383, "pitch": 51, "duration": 19, "velocity": 83}, {"time": 1389, "pitch": 60, "duration": 20, "velocity": 93}, {"time": 1389, "pitch": 63, "duration": 21, "velocity": 97}, {"time": 1395, "pitch": 56, "duration": 15, "velocity": 67}, {"time": 1398, "pitch": 68, "duration": 11, "velocity": 53}, {"time": 1401, "pitch": 44, "duration": 18, "velocity": 82}, {"time": 1407, "pitch": 51, "duration": 8, "velocity": 65}, {"time": 1413, "pitch": 56, "duration": 2, "velocity": 32}, {"time": 1413, "pitch": 63, "duration": 13, "velocity": 63}, {"time": 1413, "pitch": 68, "duration": 13, "velocity": 99}, {"time": 1416, "pitch": 51, "duration": 2, "velocity": 88}, {"time": 1419, "pitch": 56, "duration": 7, "velocity": 97}, {"time": 1419, "pitch": 60, "duration": 1, "velocity": 31}, {"time": 1422, "pitch": 60, "duration": 4, "velocity": 67}, {"time": 1425, "pitch": 37, "duration": 20, "velocity": 90}, {"time": 1431, "pitch": 44, "duration": 14, "velocity": 63}, {"time": 1437, "pitch": 61, "duration": 12, "velocity": 107}, {"time": 1443, "pitch": 56, "duration": 6, "velocity": 76}, {"time": 1449, "pitch": 41, "duration": 17, "velocity": 73}, {"time": 1455, "pitch": 48, "duration": 10, "velocity": 69}, {"time": 1461, "pitch": 56, "duration": 12, "velocity": 95}, {"time": 1461, "pitch": 60, "duration": 12, "velocity": 82}, {"time": 1467, "pitch": 53, "duration": 6, "velocity": 75}, {"time": 1473, "pitch": 42, "duration": 12, "velocity": 63}, {"time": 1479, "pitch": 58, "duration": 7, "velocity": 82}, {"time": 1479, "pitch": 61, "duration": 7, "velocity": 88}, {"time": 1485, "pitch": 44, "duration": 8, "velocity": 99}, {"time": 1491, "pitch": 63, "duration": 6, "velocity": 112}, {"time": 1494, "pitch": 56, "duration": 3, "velocity": 83}, {"time": 1497, "pitch": 37, "duration": 7, "velocity": 86}, {"time": 1503, "pitch": 49, "duration": 6, "velocity": 68}, {"time": 1509, "pitch": 46, "duration": 11, "velocity": 54}, {"time": 1509, "pitch": 58, "duration": 12, "velocity": 93}, {"time": 1509, "pitch": 62, "duration": 12, "velocity": 71}, {"time": 1509, "pitch": 65, "duration": 12, "velocity": 61}, {"time": 1521, "pitch": 39, "duration": 23, "velocity": 95}, {"time": 1527, "pitch": 46, "duration": 13, "velocity": 34}, {"time": 1533, "pitch": 51, "duration": 6, "velocity": 54}, {"time": 1533, "pitch": 58, "duration": 12, "velocity": 93}, {"time": 1533, "pitch": 63, "duration": 12, "velocity": 90}, {"time": 1539, "pitch": 54, "duration": 7, "velocity": 89}, {"time": 1545, "pitch": 39, "duration": 15, "velocity": 93}, {"time": 1551, "pitch": 51, "duration": 7, "velocity": 76}, {"time": 1557, "pitch": 54, "duration": 12, "velocity": 100}, {"time": 1557, "pitch": 57, "duration": 12, "velocity": 86}, {"time": 1563, "pitch": 51, "duration": 5, "velocity": 74}, {"time": 1569, "pitch": 44, "duration": 23, "velocity": 96}, {"time": 1575, "pitch": 51, "duration": 19, "velocity": 74}, {"time": 1581, "pitch": 56, "duration": 3, "velocity": 79}, {"time": 1581, "pitch": 60, "duration": 20, "velocity": 107}, {"time": 1581, "pitch": 63, "duration": 20, "velocity": 107}, {"time": 1587, "pitch": 56, "duration": 17, "velocity": 82}, {"time": 1593, "pitch": 44, "duration": 18, "velocity": 97}, {"time": 1599, "pitch": 51, "duration": 8, "velocity": 81}, {"time": 1605, "pitch": 63, "duration": 13, "velocity": 127}, {"time": 1608, "pitch": 51, "duration": 2, "velocity": 96}, {"time": 1611, "pitch": 56, "duration": 8, "velocity": 97}, {"time": 1617, "pitch": 37, "duration": 23, "velocity": 100}, {"time": 1623, "pitch": 49, "duration": 9, "velocity": 86}, {"time": 1629, "pitch": 61, "duration": 7, "velocity": 127}, {"time": 1632, "pitch": 49, "duration": 10, "velocity": 97}, {"time": 1635, "pitch": 56, "duration": 14, "velocity": 99}, {"time": 1638, "pitch": 61, "duration": 11, "velocity": 64}, {"time": 1638, "pitch": 65, "duration": 14, "velocity": 76}, {"time": 1641, "pitch": 37, "duration": 11, "velocity": 100}, {"time": 1647, "pitch": 49, "duration": 5, "velocity": 92}, {"time": 1650, "pitch": 56, "duration": 2, "velocity": 56}, {"time": 1653, "pitch": 48, "duration": 11, "velocity": 95}, {"time": 1653, "pitch": 60, "duration": 11, "velocity": 107}, {"time": 1665, "pitch": 46, "duration": 19, "velocity": 93}, {"time": 1668, "pitch": 53, "duration": 15, "velocity": 76}, {"time": 1671, "pitch": 58, "duration": 5, "velocity": 92}, {"time": 1674, "pitch": 61, "duration": 7, "velocity": 107}, {"time": 1677, "pitch": 65, "duration": 5, "velocity": 83}, {"time": 1677, "pitch": 70, "duration": 12, "velocity": 107}, {"time": 1680, "pitch": 58, "duration": 3, "velocity": 90}, {"time": 1683, "pitch": 53, "duration": 1, "velocity": 100}, {"time": 1686, "pitch": 46, "duration": 3, "velocity": 81}, {"time": 1686, "pitch": 65, "duration": 4, "velocity": 72}, {"time": 1689, "pitch": 41, "duration": 19, "velocity": 72}, {"time": 1692, "pitch": 56, "duration": 7, "velocity": 92}, {"time": 1698, "pitch": 60, "duration": 4, "velocity": 90}, {"time": 1701, "pitch": 65, "duration": 3, "velocity": 103}, {"time": 1704, "pitch": 60, "duration": 3, "velocity": 107}, {"time": 1707, "pitch": 56, "duration": 3, "velocity": 104}, {"time": 1710, "pitch": 41, "duration": 3, "velocity": 81}, {"time": 1710, "pitch": 53, "duration": 3, "velocity": 88}, {"time": 1710, "pitch": 60, "duration": 3, "velocity": 69}, {"time": 1713, "pitch": 42, "duration": 12, "velocity": 112}, {"time": 1716, "pitch": 54, "duration": 6, "velocity": 90}, {"time": 1719, "pitch": 58, "duration": 4, "velocity": 112}, {"time": 1722, "pitch": 61, "duration": 3, "velocity": 127}, {"time": 1725, "pitch": 44, "duration": 6, "velocity": 112}, {"time": 1728, "pitch": 56, "duration": 5, "velocity": 90}, {"time": 1731, "pitch": 63, "duration": 7, "velocity": 127}, {"time": 1734, "pitch": 56, "duration": 4, "velocity": 112}, {"time": 1737, "pitch": 37, "duration": 17, "velocity": 72}, {"time": 1740, "pitch": 44, "duration": 14, "velocity": 68}, {"time": 1743, "pitch": 49, "duration": 6, "velocity": 97}, {"time": 1746, "pitch": 53, "duration": 3, "velocity": 93}, {"time": 1749, "pitch": 65, "duration": 6, "velocity": 81}, {"time": 1749, "pitch": 56, "duration": 3, "velocity": 93}, {"time": 1749, "pitch": 61, "duration": 12, "velocity": 109}, {"time": 1752, "pitch": 53, "duration": 4, "velocity": 93}, {"time": 1755, "pitch": 49, "duration": 4, "velocity": 96}, {"time": 1758, "pitch": 44, "duration": 3, "velocity": 81}, {"time": 1758, "pitch": 56, "duration": 3, "velocity": 97}, {"time": 1761, "pitch": 46, "duration": 21, "velocity": 97}, {"time": 1764, "pitch": 53, "duration": 17, "velocity": 63}, {"time": 1767, "pitch": 58, "duration": 8, "velocity": 99}, {"time": 1770, "pitch": 61, "duration": 8, "velocity": 102}, {"time": 1773, "pitch": 70, "duration": 7, "velocity": 112}, {"time": 1773, "pitch": 65, "duration": 12, "velocity": 101}, {"time": 1776, "pitch": 58, "duration": 4, "velocity": 99}, {"time": 1782, "pitch": 46, "duration": 3, "velocity": 81}, {"time": 1785, "pitch": 41, "duration": 17, "velocity": 70}, {"time": 1788, "pitch": 48, "duration": 11, "velocity": 83}, {"time": 1791, "pitch": 53, "duration": 3, "velocity": 88}, {"time": 1794, "pitch": 56, "duration": 9, "velocity": 96}, {"time": 1797, "pitch": 65, "duration": 9, "velocity": 81}, {"time": 1797, "pitch": 60, "duration": 12, "velocity": 99}, {"time": 1800, "pitch": 53, "duration": 3, "velocity": 95}, {"time": 1803, "pitch": 48, "duration": 6, "velocity": 96}, {"time": 1806, "pitch": 41, "duration": 4, "velocity": 91}, {"time": 1809, "pitch": 39, "duration": 17, "velocity": 71}, {"time": 1812, "pitch": 46, "duration": 14, "velocity": 69}, {"time": 1815, "pitch": 51, "duration": 8, "velocity": 92}, {"time": 1818, "pitch": 54, "duration": 4, "velocity": 65}, {"time": 1821, "pitch": 58, "duration": 6, "velocity": 92}, {"time": 1821, "pitch": 63, "duration": 12, "velocity": 106}, {"time": 1824, "pitch": 53, "duration": 4, "velocity": 97}, {"time": 1827, "pitch": 51, "duration": 4, "velocity": 102}, {"time": 1830, "pitch": 39, "duration": 3, "velocity": 105}, {"time": 1833, "pitch": 44, "duration": 20, "velocity": 93}, {"time": 1836, "pitch": 51, "duration": 15, "velocity": 64}, {"time": 1839, "pitch": 56, "duration": 7, "velocity": 102}, {"time": 1842, "pitch": 63, "duration": 3, "velocity": 110}, {"time": 1842, "pitch": 68, "duration": 3, "velocity": 110}, {"time": 1845, "pitch": 63, "duration": 7, "velocity": 109}, {"time": 1845, "pitch": 68, "duration": 13, "velocity": 109}, {"time": 1848, "pitch": 56, "duration": 3, "velocity": 108}, {"time": 1851, "pitch": 51, "duration": 1, "velocity": 107}, {"time": 1854, "pitch": 44, "duration": 4, "velocity": 105}, {"time": 1857, "pitch": 46, "duration": 21, "velocity": 95}, {"time": 1860, "pitch": 53, "duration": 17, "velocity": 78}, {"time": 1863, "pitch": 58, "duration": 9, "velocity": 102}, {"time": 1866, "pitch": 61, "duration": 3, "velocity": 102}, {"time": 1869, "pitch": 70, "duration": 6, "velocity": 101}, {"time": 1869, "pitch": 65, "duration": 8, "velocity": 99}, {"time": 1872, "pitch": 58, "duration": 4, "velocity": 71}, {"time": 1875, "pitch": 56, "duration": 3, "velocity": 81}, {"time": 1878, "pitch": 46, "duration": 3, "velocity": 100}, {"time": 1881, "pitch": 41, "duration": 18, "velocity": 88}, {"time": 1884, "pitch": 48, "duration": 15, "velocity": 81}, {"time": 1887, "pitch": 53, "duration": 7, "velocity": 92}, {"time": 1890, "pitch": 56, "duration": 4, "velocity": 86}, {"time": 1893, "pitch": 65, "duration": 12, "velocity": 95}, {"time": 1896, "pitch": 56, "duration": 3, "velocity": 96}, {"time": 1899, "pitch": 53, "duration": 7, "velocity": 100}, {"time": 1902, "pitch": 41, "duration": 4, "velocity": 71}, {"time": 1905, "pitch": 42, "duration": 9, "velocity": 93}, {"time": 1908, "pitch": 49, "duration": 9, "velocity": 93}, {"time": 1911, "pitch": 54, "duration": 4, "velocity": 117}, {"time": 1914, "pitch": 42, "duration": 1, "velocity": 102}, {"time": 1917, "pitch": 44, "duration": 8, "velocity": 95}, {"time": 1920, "pitch": 51, "duration": 5, "velocity": 107}, {"time": 1923, "pitch": 56, "duration": 6, "velocity": 104}, {"time": 1926, "pitch": 44, "duration": 3, "velocity": 102}, {"time": 1929, "pitch": 37, "duration": 22, "velocity": 98}, {"time": 1932, "pitch": 44, "duration": 18, "velocity": 92}, {"time": 1935, "pitch": 49, "duration": 8, "velocity": 93}, {"time": 1938, "pitch": 56, "duration": 5, "velocity": 85}, {"time": 1941, "pitch": 61, "duration": 5, "velocity": 108}, {"time": 1941, "pitch": 65, "duration": 13, "velocity": 108}, {"time": 1944, "pitch": 56, "duration": 6, "velocity": 92}, {"time": 1947, "pitch": 49, "duration": 7, "velocity": 89}, {"time": 1950, "pitch": 44, "duration": 4, "velocity": 85}, {"time": 1953, "pitch": 46, "duration": 20, "velocity": 102}, {"time": 1956, "pitch": 53, "duration": 15, "velocity": 54}, {"time": 1959, "pitch": 58, "duration": 7, "velocity": 112}, {"time": 1962, "pitch": 61, "duration": 4, "velocity": 93}, {"time": 1965, "pitch": 70, "duration": 3, "velocity": 81}, {"time": 1965, "pitch": 65, "duration": 5, "velocity": 71}, {"time": 1968, "pitch": 58, "duration": 4, "velocity": 100}, {"time": 1971, "pitch": 53, "duration": 1, "velocity": 74}, {"time": 1974, "pitch": 46, "duration": 4, "velocity": 100}, {"time": 1977, "pitch": 41, "duration": 19, "velocity": 75}, {"time": 1980, "pitch": 48, "duration": 11, "velocity": 76}, {"time": 1983, "pitch": 53, "duration": 3, "velocity": 83}, {"time": 1986, "pitch": 56, "duration": 3, "velocity": 86}, {"time": 1989, "pitch": 65, "duration": 6, "velocity": 81}, {"time": 1989, "pitch": 60, "duration": 11, "velocity": 102}, {"time": 1992, "pitch": 56, "duration": 4, "velocity": 95}, {"time": 1995, "pitch": 53, "duration": 4, "velocity": 100}, {"time": 1998, "pitch": 41, "duration": 2, "velocity": 99}, {"time": 2001, "pitch": 42, "duration": 10, "velocity": 100}, {"time": 2004, "pitch": 54, "duration": 4, "velocity": 95}, {"time": 2007, "pitch": 58, "duration": 5, "velocity": 100}, {"time": 2007, "pitch": 61, "duration": 5, "velocity": 107}, {"time": 2010, "pitch": 54, "duration": 3, "velocity": 97}, {"time": 2013, "pitch": 44, "duration": 6, "velocity": 99}, {"time": 2016, "pitch": 56, "duration": 4, "velocity": 85}, {"time": 2019, "pitch": 60, "duration": 6, "velocity": 73}, {"time": 2019, "pitch": 63, "duration": 6, "velocity": 112}, {"time": 2022, "pitch": 56, "duration": 3, "velocity": 93}, {"time": 2025, "pitch": 37, "duration": 8, "velocity": 117}, {"time": 2028, "pitch": 49, "duration": 7, "velocity": 96}, {"time": 2031, "pitch": 61, "duration": 3, "velocity": 99}, {"time": 2034, "pitch": 68, "duration": 3, "velocity": 127}, {"time": 2037, "pitch": 48, "duration": 5, "velocity": 112}, {"time": 2037, "pitch": 60, "duration": 5, "velocity": 117}, {"time": 2043, "pitch": 48, "duration": 3, "velocity": 86}, {"time": 2043, "pitch": 60, "duration": 6, "velocity": 117}, {"time": 2049, "pitch": 46, "duration": 19, "velocity": 93}, {"time": 2052, "pitch": 53, "duration": 15, "velocity": 76}, {"time": 2055, "pitch": 58, "duration": 5, "velocity": 92}, {"time": 2058, "pitch": 61, "duration": 7, "velocity": 107}, {"time": 2061, "pitch": 65, "duration": 5, "velocity": 83}, {"time": 2061, "pitch": 70, "duration": 12, "velocity": 107}, {"time": 2064, "pitch": 58, "duration": 3, "velocity": 90}, {"time": 2067, "pitch": 53, "duration": 1, "velocity": 100}, {"time": 2070, "pitch": 46, "duration": 3, "velocity": 81}, {"time": 2070, "pitch": 65, "duration": 4, "velocity": 72}, {"time": 2073, "pitch": 41, "duration": 19, "velocity": 72}, {"time": 2076, "pitch": 56, "duration": 7, "velocity": 92}, {"time": 2082, "pitch": 60, "duration": 4, "velocity": 90}, {"time": 2085, "pitch": 65, "duration": 3, "velocity": 103}, {"time": 2088, "pitch": 60, "duration": 3, "velocity": 107}, {"time": 2091, "pitch": 56, "duration": 3, "velocity": 104}, {"time": 2094, "pitch": 41, "duration": 3, "velocity": 81}, {"time": 2094, "pitch": 53, "duration": 3, "velocity": 88}, {"time": 2094, "pitch": 60, "duration": 3, "velocity": 69}, {"time": 2097, "pitch": 42, "duration": 12, "velocity": 112}, {"time": 2100, "pitch": 54, "duration": 6, "velocity": 90}, {"time": 2103, "pitch": 58, "duration": 4, "velocity": 112}, {"time": 2106, "pitch": 61, "duration": 3, "velocity": 127}, {"time": 2109, "pitch": 44, "duration": 6, "velocity": 112}, {"time": 2112, "pitch": 56, "duration": 5, "velocity": 90}, {"time": 2115, "pitch": 63, "duration": 7, "velocity": 127}, {"time": 2118, "pitch": 56, "duration": 4, "velocity": 112}, {"time": 2121, "pitch": 37, "duration": 17, "velocity": 72}, {"time": 2124, "pitch": 44, "duration": 14, "velocity": 68}, {"time": 2127, "pitch": 49, "duration": 6, "velocity": 97}, {"time": 2130, "pitch": 53, "duration": 3, "velocity": 93}, {"time": 2133, "pitch": 65, "duration": 6, "velocity": 81}, {"time": 2133, "pitch": 56, "duration": 3, "velocity": 93}, {"time": 2133, "pitch": 61, "duration": 12, "velocity": 109}, {"time": 2136, "pitch": 53, "duration": 4, "velocity": 93}, {"time": 2139, "pitch": 49, "duration": 4, "velocity": 96}, {"time": 2142, "pitch": 44, "duration": 3, "velocity": 81}, {"time": 2142, "pitch": 56, "duration": 3, "velocity": 97}, {"time": 2145, "pitch": 46, "duration": 21, "velocity": 97}, {"time": 2148, "pitch": 53, "duration": 17, "velocity": 63}, {"time": 2151, "pitch": 58, "duration": 8, "velocity": 99}, {"time": 2154, "pitch": 61, "duration": 8, "velocity": 102}, {"time": 2157, "pitch": 70, "duration": 7, "velocity": 112}, {"time": 2157, "pitch": 65, "duration": 12, "velocity": 101}, {"time": 2160, "pitch": 58, "duration": 4, "velocity": 99}, {"time": 2166, "pitch": 46, "duration": 3, "velocity": 81}, {"time": 2169, "pitch": 41, "duration": 17, "velocity": 70}, {"time": 2172, "pitch": 48, "duration": 11, "velocity": 83}, {"time": 2175, "pitch": 53, "duration": 3, "velocity": 88}, {"time": 2178, "pitch": 56, "duration": 9, "velocity": 96}, {"time": 2181, "pitch": 65, "duration": 9, "velocity": 81}, {"time": 2181, "pitch": 60, "duration": 12, "velocity": 99}, {"time": 2184, "pitch": 53, "duration": 3, "velocity": 95}, {"time": 2187, "pitch": 48, "duration": 6, "velocity": 96}, {"time": 2190, "pitch": 41, "duration": 4, "velocity": 91}, {"time": 2193, "pitch": 39, "duration": 17, "velocity": 71}, {"time": 2196, "pitch": 46, "duration": 14, "velocity": 69}, {"time": 2199, "pitch": 51, "duration": 8, "velocity": 92}, {"time": 2202, "pitch": 54, "duration": 4, "velocity": 65}, {"time": 2205, "pitch": 58, "duration": 6, "velocity": 92}, {"time": 2205, "pitch": 63, "duration": 12, "velocity": 106}, {"time": 2208, "pitch": 53, "duration": 4, "velocity": 97}, {"time": 2211, "pitch": 51, "duration": 4, "velocity": 102}, {"time": 2214, "pitch": 39, "duration": 3, "velocity": 105}, {"time": 2217, "pitch": 37, "duration": 24, "velocity": 89}, {"time": 2220, "pitch": 44, "duration": 20, "velocity": 61}, {"time": 2223, "pitch": 49, "duration": 8, "velocity": 100}, {"time": 2226, "pitch": 53, "duration": 6, "velocity": 86}, {"time": 2229, "pitch": 61, "duration": 12, "velocity": 127}, {"time": 2232, "pitch": 49, "duration": 7, "velocity": 96}, {"time": 2235, "pitch": 56, "duration": 6, "velocity": 102}, {"time": 2238, "pitch": 53, "duration": 3, "velocity": 92}, {"time": 2241, "pitch": 36, "duration": 16, "velocity": 81}, {"time": 2241, "pitch": 60, "duration": 8, "velocity": 88}, {"time": 2241, "pitch": 65, "duration": 8, "velocity": 93}, {"time": 2241, "pitch": 68, "duration": 8, "velocity": 95}, {"time": 2247, "pitch": 48, "duration": 7, "velocity": 49}, {"time": 2250, "pitch": 65, "duration": 11, "velocity": 96}, {"time": 2250, "pitch": 68, "duration": 17, "velocity": 107}, {"time": 2256, "pitch": 48, "duration": 3, "velocity": 47}, {"time": 2259, "pitch": 60, "duration": 7, "velocity": 96}, {"time": 2262, "pitch": 65, "duration": 4, "velocity": 72}, {"time": 2265, "pitch": 46, "duration": 19, "velocity": 85}, {"time": 2268, "pitch": 53, "duration": 15, "velocity": 59}, {"time": 2271, "pitch": 58, "duration": 8, "velocity": 102}, {"time": 2274, "pitch": 61, "duration": 4, "velocity": 75}, {"time": 2277, "pitch": 65, "duration": 12, "velocity": 86}, {"time": 2280, "pitch": 58, "duration": 3, "velocity": 95}, {"time": 2283, "pitch": 61, "duration": 7, "velocity": 100}, {"time": 2289, "pitch": 41, "duration": 19, "velocity": 73}, {"time": 2292, "pitch": 48, "duration": 11, "velocity": 82}, {"time": 2295, "pitch": 53, "duration": 4, "velocity": 99}, {"time": 2298, "pitch": 60, "duration": 15, "velocity": 97}, {"time": 2304, "pitch": 48, "duration": 3, "velocity": 65}, {"time": 2307, "pitch": 56, "duration": 6, "velocity": 117}, {"time": 2313, "pitch": 42, "duration": 19, "velocity": 79}, {"time": 2316, "pitch": 49, "duration": 15, "velocity": 58}, {"time": 2319, "pitch": 54, "duration": 7, "velocity": 90}, {"time": 2322, "pitch": 66, "duration": 16, "velocity": 99}, {"time": 2328, "pitch": 54, "duration": 2, "velocity": 88}, {"time": 2331, "pitch": 61, "duration": 7, "velocity": 97}, {"time": 2334, "pitch": 58, "duration": 4, "velocity": 96}, {"time": 2337, "pitch": 41, "duration": 19, "velocity": 78}, {"time": 2340, "pitch": 48, "duration": 16, "velocity": 56}, {"time": 2343, "pitch": 53, "duration": 8, "velocity": 77}, {"time": 2346, "pitch": 56, "duration": 9, "velocity": 112}, {"time": 2352, "pitch": 53, "duration": 3, "velocity": 86}, {"time": 2355, "pitch": 60, "duration": 5, "velocity": 88}, {"time": 2358, "pitch": 56, "duration": 3, "velocity": 78}, {"time": 2361, "pitch": 39, "duration": 18, "velocity": 83}, {"time": 2364, "pitch": 46, "duration": 15, "velocity": 52}, {"time": 2367, "pitch": 51, "duration": 7, "velocity": 76}, {"time": 2370, "pitch": 63, "duration": 10, "velocity": 112}, {"time": 2376, "pitch": 51, "duration": 5, "velocity": 97}, {"time": 2379, "pitch": 66, "duration": 7, "velocity": 102}, {"time": 2385, "pitch": 44, "duration": 23, "velocity": 90}, {"time": 2388, "pitch": 51, "duration": 20, "velocity": 67}, {"time": 2391, "pitch": 56, "duration": 17, "velocity": 102}, {"time": 2394, "pitch": 60, "duration": 10, "velocity": 78}, {"time": 2397, "pitch": 68, "duration": 11, "velocity": 122}, {"time": 2403, "pitch": 63, "duration": 6, "velocity": 99}, {"time": 2409, "pitch": 44, "duration": 31, "velocity": 64}, {"time": 2409, "pitch": 51, "duration": 31, "velocity": 66}, {"time": 2409, "pitch": 56, "duration": 29, "velocity": 72}, {"time": 2409, "pitch": 60, "duration": 35, "velocity": 85}, {"time": 2409, "pitch": 63, "duration": 34, "velocity": 97}, {"time": 2409, "pitch": 68, "duration": 35, "velocity": 74}, {"time": 2457, "pitch": 37, "duration": 53, "velocity": 71}, {"time": 2457, "pitch": 44, "duration": 52, "velocity": 77}, {"time": 2457, "pitch": 49, "duration": 52, "velocity": 83}, {"time": 2457, "pitch": 61, "duration": 53, "velocity": 68}, {"time": 2457, "pitch": 65, "duration": 53, "velocity": 69}, {"time": 2457, "pitch": 68, "duration": 53, "velocity": 66}]}]}