{"metadata": {"schema_version": "0.2", "title": "None", "source_filename": "368.mid", "source_format": "midi"}, "resolution": 12, "tempos": [{"time": 0, "qpm": 83.00017983372297}], "time_signatures": [{"time": 0, "numerator": 1, "denominator": 4}], "tracks": [{"program": 0, "is_drum": false, "name": "MELODY", "notes": [{"time": 421, "pitch": 64, "duration": 4, "velocity": 50}, {"time": 424, "pitch": 65, "duration": 3, "velocity": 82}, {"time": 427, "pitch": 69, "duration": 7, "velocity": 78}, {"time": 433, "pitch": 67, "duration": 12, "velocity": 83}, {"time": 445, "pitch": 64, "duration": 6, "velocity": 75}, {"time": 451, "pitch": 67, "duration": 63, "velocity": 72}, {"time": 514, "pitch": 64, "duration": 3, "velocity": 78}, {"time": 517, "pitch": 65, "duration": 3, "velocity": 71}, {"time": 520, "pitch": 67, "duration": 6, "velocity": 81}, {"time": 526, "pitch": 64, "duration": 12, "velocity": 81}, {"time": 538, "pitch": 64, "duration": 9, "velocity": 86}, {"time": 547, "pitch": 71, "duration": 81, "velocity": 93}, {"time": 628, "pitch": 69, "duration": 6, "velocity": 90}, {"time": 634, "pitch": 71, "duration": 6, "velocity": 68}, {"time": 640, "pitch": 72, "duration": 10, "velocity": 89}, {"time": 646, "pitch": 60, "duration": 6, "velocity": 72}, {"time": 652, "pitch": 60, "duration": 5, "velocity": 83}, {"time": 657, "pitch": 62, "duration": 55, "velocity": 85}, {"time": 712, "pitch": 69, "duration": 12, "velocity": 99}, {"time": 724, "pitch": 67, "duration": 6, "velocity": 97}, {"time": 730, "pitch": 69, "duration": 12, "velocity": 93}, {"time": 742, "pitch": 67, "duration": 6, "velocity": 92}, {"time": 748, "pitch": 64, "duration": 54, "velocity": 82}, {"time": 802, "pitch": 67, "duration": 3, "velocity": 88}, {"time": 805, "pitch": 67, "duration": 3, "velocity": 66}, {"time": 808, "pitch": 67, "duration": 6, "velocity": 88}, {"time": 814, "pitch": 65, "duration": 12, "velocity": 90}, {"time": 826, "pitch": 64, "duration": 6, "velocity": 92}, {"time": 832, "pitch": 67, "duration": 66, "velocity": 97}, {"time": 898, "pitch": 67, "duration": 3, "velocity": 89}, {"time": 901, "pitch": 67, "duration": 3, "velocity": 79}, {"time": 904, "pitch": 67, "duration": 6, "velocity": 83}, {"time": 910, "pitch": 65, "duration": 12, "velocity": 79}, {"time": 922, "pitch": 64, "duration": 6, "velocity": 93}, {"time": 928, "pitch": 71, "duration": 84, "velocity": 95}, {"time": 1012, "pitch": 69, "duration": 6, "velocity": 93}, {"time": 1018, "pitch": 71, "duration": 6, "velocity": 92}, {"time": 1024, "pitch": 72, "duration": 7, "velocity": 107}, {"time": 1030, "pitch": 60, "duration": 6, "velocity": 72}, {"time": 1036, "pitch": 60, "duration": 6, "velocity": 78}, {"time": 1042, "pitch": 62, "duration": 54, "velocity": 88}, {"time": 1096, "pitch": 64, "duration": 12, "velocity": 92}, {"time": 1108, "pitch": 62, "duration": 6, "velocity": 89}, {"time": 1114, "pitch": 64, "duration": 12, "velocity": 97}, {"time": 1126, "pitch": 60, "duration": 72, "velocity": 93}, {"time": 1198, "pitch": 64, "duration": 6, "velocity": 92}, {"time": 1204, "pitch": 69, "duration": 6, "velocity": 107}, {"time": 1210, "pitch": 71, "duration": 6, "velocity": 127}, {"time": 1216, "pitch": 72, "duration": 12, "velocity": 127}, {"time": 1228, "pitch": 64, "duration": 6, "velocity": 95}, {"time": 1234, "pitch": 72, "duration": 12, "velocity": 112}, {"time": 1246, "pitch": 72, "duration": 12, "velocity": 122}, {"time": 1258, "pitch": 72, "duration": 6, "velocity": 102}, {"time": 1264, "pitch": 71, "duration": 9, "velocity": 100}, {"time": 1273, "pitch": 69, "duration": 9, "velocity": 97}, {"time": 1282, "pitch": 67, "duration": 24, "velocity": 97}, {"time": 1306, "pitch": 67, "duration": 6, "velocity": 97}, {"time": 1312, "pitch": 69, "duration": 6, "velocity": 107}, {"time": 1318, "pitch": 67, "duration": 6, "velocity": 93}, {"time": 1324, "pitch": 69, "duration": 6, "velocity": 107}, {"time": 1330, "pitch": 72, "duration": 12, "velocity": 127}, {"time": 1342, "pitch": 60, "duration": 12, "velocity": 92}, {"time": 1354, "pitch": 67, "duration": 6, "velocity": 97}, {"time": 1360, "pitch": 67, "duration": 9, "velocity": 107}, {"time": 1369, "pitch": 64, "duration": 21, "velocity": 89}, {"time": 1390, "pitch": 64, "duration": 6, "velocity": 97}, {"time": 1396, "pitch": 69, "duration": 6, "velocity": 102}, {"time": 1402, "pitch": 71, "duration": 6, "velocity": 99}, {"time": 1408, "pitch": 72, "duration": 12, "velocity": 100}, {"time": 1420, "pitch": 64, "duration": 6, "velocity": 107}, {"time": 1426, "pitch": 72, "duration": 12, "velocity": 127}, {"time": 1438, "pitch": 64, "duration": 10, "velocity": 99}, {"time": 1448, "pitch": 72, "duration": 8, "velocity": 127}, {"time": 1456, "pitch": 71, "duration": 7, "velocity": 117}, {"time": 1462, "pitch": 69, "duration": 12, "velocity": 96}, {"time": 1474, "pitch": 67, "duration": 24, "velocity": 100}, {"time": 1498, "pitch": 67, "duration": 3, "velocity": 93}, {"time": 1501, "pitch": 67, "duration": 3, "velocity": 95}, {"time": 1504, "pitch": 69, "duration": 6, "velocity": 107}, {"time": 1510, "pitch": 72, "duration": 6, "velocity": 107}, {"time": 1516, "pitch": 72, "duration": 6, "velocity": 102}, {"time": 1522, "pitch": 72, "duration": 12, "velocity": 122}, {"time": 1534, "pitch": 72, "duration": 6, "velocity": 122}, {"time": 1540, "pitch": 72, "duration": 6, "velocity": 112}, {"time": 1546, "pitch": 69, "duration": 9, "velocity": 107}, {"time": 1555, "pitch": 74, "duration": 15, "velocity": 127}, {"time": 1570, "pitch": 67, "duration": 3, "velocity": 102}, {"time": 1573, "pitch": 67, "duration": 3, "velocity": 90}, {"time": 1576, "pitch": 72, "duration": 9, "velocity": 122}, {"time": 1585, "pitch": 74, "duration": 7, "velocity": 127}, {"time": 1591, "pitch": 72, "duration": 9, "velocity": 107}, {"time": 1600, "pitch": 77, "duration": 18, "velocity": 127}, {"time": 1618, "pitch": 76, "duration": 12, "velocity": 127}, {"time": 1630, "pitch": 67, "duration": 36, "velocity": 99}, {"time": 1666, "pitch": 67, "duration": 3, "velocity": 102}, {"time": 1669, "pitch": 67, "duration": 3, "velocity": 90}, {"time": 1672, "pitch": 71, "duration": 9, "velocity": 122}, {"time": 1681, "pitch": 74, "duration": 9, "velocity": 122}, {"time": 1690, "pitch": 74, "duration": 6, "velocity": 127}, {"time": 1696, "pitch": 72, "duration": 14, "velocity": 127}, {"time": 1708, "pitch": 67, "duration": 6, "velocity": 117}, {"time": 1714, "pitch": 64, "duration": 48, "velocity": 93}, {"time": 1762, "pitch": 60, "duration": 6, "velocity": 107}, {"time": 1768, "pitch": 71, "duration": 6, "velocity": 122}, {"time": 1774, "pitch": 72, "duration": 6, "velocity": 117}, {"time": 1780, "pitch": 71, "duration": 6, "velocity": 122}, {"time": 1786, "pitch": 67, "duration": 6, "velocity": 102}, {"time": 1792, "pitch": 69, "duration": 12, "velocity": 122}, {"time": 1804, "pitch": 76, "duration": 6, "velocity": 127}, {"time": 1810, "pitch": 74, "duration": 24, "velocity": 127}, {"time": 1834, "pitch": 72, "duration": 6, "velocity": 102}, {"time": 1840, "pitch": 67, "duration": 12, "velocity": 102}, {"time": 1852, "pitch": 76, "duration": 6, "velocity": 127}, {"time": 1858, "pitch": 74, "duration": 24, "velocity": 127}, {"time": 1882, "pitch": 72, "duration": 6, "velocity": 100}, {"time": 1888, "pitch": 69, "duration": 18, "velocity": 112}, {"time": 1906, "pitch": 76, "duration": 6, "velocity": 127}, {"time": 1912, "pitch": 74, "duration": 12, "velocity": 127}, {"time": 1924, "pitch": 72, "duration": 6, "velocity": 127}, {"time": 1930, "pitch": 74, "duration": 24, "velocity": 127}, {"time": 1954, "pitch": 67, "duration": 3, "velocity": 117}, {"time": 1957, "pitch": 67, "duration": 3, "velocity": 85}, {"time": 1960, "pitch": 72, "duration": 9, "velocity": 100}, {"time": 1969, "pitch": 74, "duration": 6, "velocity": 127}, {"time": 1975, "pitch": 72, "duration": 6, "velocity": 127}, {"time": 1981, "pitch": 77, "duration": 18, "velocity": 122}, {"time": 1999, "pitch": 76, "duration": 12, "velocity": 127}, {"time": 2011, "pitch": 67, "duration": 39, "velocity": 86}, {"time": 2050, "pitch": 67, "duration": 3, "velocity": 96}, {"time": 2053, "pitch": 67, "duration": 3, "velocity": 88}, {"time": 2056, "pitch": 71, "duration": 9, "velocity": 117}, {"time": 2065, "pitch": 74, "duration": 9, "velocity": 102}, {"time": 2074, "pitch": 74, "duration": 6, "velocity": 117}, {"time": 2080, "pitch": 72, "duration": 12, "velocity": 127}, {"time": 2092, "pitch": 67, "duration": 6, "velocity": 97}, {"time": 2098, "pitch": 64, "duration": 48, "velocity": 86}, {"time": 2146, "pitch": 60, "duration": 6, "velocity": 93}, {"time": 2152, "pitch": 71, "duration": 6, "velocity": 102}, {"time": 2158, "pitch": 72, "duration": 6, "velocity": 100}, {"time": 2164, "pitch": 71, "duration": 6, "velocity": 109}, {"time": 2170, "pitch": 67, "duration": 6, "velocity": 93}, {"time": 2176, "pitch": 69, "duration": 10, "velocity": 107}, {"time": 2186, "pitch": 76, "duration": 7, "velocity": 97}, {"time": 2193, "pitch": 74, "duration": 25, "velocity": 97}, {"time": 2218, "pitch": 72, "duration": 6, "velocity": 102}, {"time": 2224, "pitch": 67, "duration": 9, "velocity": 100}, {"time": 2233, "pitch": 76, "duration": 9, "velocity": 117}, {"time": 2242, "pitch": 74, "duration": 24, "velocity": 122}, {"time": 2266, "pitch": 72, "duration": 6, "velocity": 112}, {"time": 2272, "pitch": 69, "duration": 18, "velocity": 107}, {"time": 2290, "pitch": 76, "duration": 6, "velocity": 99}, {"time": 2296, "pitch": 74, "duration": 12, "velocity": 100}, {"time": 2308, "pitch": 72, "duration": 6, "velocity": 117}, {"time": 2314, "pitch": 74, "duration": 29, "velocity": 127}, {"time": 2338, "pitch": 67, "duration": 6, "velocity": 95}, {"time": 2344, "pitch": 76, "duration": 6, "velocity": 112}, {"time": 2350, "pitch": 74, "duration": 12, "velocity": 107}, {"time": 2362, "pitch": 74, "duration": 9, "velocity": 107}, {"time": 2371, "pitch": 72, "duration": 53, "velocity": 97}, {"time": 2866, "pitch": 67, "duration": 3, "velocity": 88}, {"time": 2869, "pitch": 67, "duration": 3, "velocity": 66}, {"time": 2872, "pitch": 67, "duration": 6, "velocity": 88}, {"time": 2878, "pitch": 65, "duration": 12, "velocity": 90}, {"time": 2890, "pitch": 64, "duration": 6, "velocity": 92}, {"time": 2896, "pitch": 67, "duration": 66, "velocity": 97}, {"time": 2962, "pitch": 67, "duration": 3, "velocity": 89}, {"time": 2965, "pitch": 67, "duration": 3, "velocity": 79}, {"time": 2968, "pitch": 67, "duration": 6, "velocity": 83}, {"time": 2974, "pitch": 65, "duration": 12, "velocity": 79}, {"time": 2986, "pitch": 64, "duration": 6, "velocity": 93}, {"time": 2992, "pitch": 71, "duration": 84, "velocity": 95}, {"time": 3076, "pitch": 69, "duration": 6, "velocity": 93}, {"time": 3082, "pitch": 71, "duration": 6, "velocity": 92}, {"time": 3088, "pitch": 72, "duration": 7, "velocity": 107}, {"time": 3094, "pitch": 60, "duration": 6, "velocity": 72}, {"time": 3100, "pitch": 60, "duration": 6, "velocity": 78}, {"time": 3106, "pitch": 60, "duration": 54, "velocity": 88}, {"time": 3160, "pitch": 64, "duration": 12, "velocity": 92}, {"time": 3172, "pitch": 62, "duration": 6, "velocity": 89}, {"time": 3178, "pitch": 64, "duration": 12, "velocity": 97}, {"time": 3190, "pitch": 60, "duration": 72, "velocity": 93}, {"time": 3262, "pitch": 64, "duration": 6, "velocity": 92}, {"time": 3268, "pitch": 69, "duration": 6, "velocity": 107}, {"time": 3274, "pitch": 71, "duration": 6, "velocity": 127}, {"time": 3280, "pitch": 72, "duration": 12, "velocity": 127}, {"time": 3292, "pitch": 64, "duration": 6, "velocity": 95}, {"time": 3298, "pitch": 72, "duration": 12, "velocity": 112}, {"time": 3310, "pitch": 72, "duration": 12, "velocity": 122}, {"time": 3322, "pitch": 72, "duration": 6, "velocity": 102}, {"time": 3328, "pitch": 71, "duration": 9, "velocity": 100}, {"time": 3337, "pitch": 69, "duration": 9, "velocity": 97}, {"time": 3346, "pitch": 67, "duration": 24, "velocity": 97}, {"time": 3370, "pitch": 67, "duration": 6, "velocity": 97}, {"time": 3376, "pitch": 69, "duration": 6, "velocity": 107}, {"time": 3382, "pitch": 67, "duration": 6, "velocity": 93}, {"time": 3388, "pitch": 69, "duration": 6, "velocity": 107}, {"time": 3394, "pitch": 72, "duration": 12, "velocity": 127}, {"time": 3406, "pitch": 60, "duration": 12, "velocity": 92}, {"time": 3418, "pitch": 67, "duration": 6, "velocity": 97}, {"time": 3424, "pitch": 67, "duration": 9, "velocity": 107}, {"time": 3433, "pitch": 64, "duration": 21, "velocity": 89}, {"time": 3454, "pitch": 64, "duration": 6, "velocity": 97}, {"time": 3460, "pitch": 69, "duration": 6, "velocity": 102}, {"time": 3466, "pitch": 71, "duration": 6, "velocity": 99}, {"time": 3472, "pitch": 72, "duration": 12, "velocity": 100}, {"time": 3484, "pitch": 64, "duration": 6, "velocity": 107}, {"time": 3490, "pitch": 72, "duration": 12, "velocity": 127}, {"time": 3502, "pitch": 64, "duration": 10, "velocity": 99}, {"time": 3512, "pitch": 72, "duration": 8, "velocity": 127}, {"time": 3520, "pitch": 71, "duration": 7, "velocity": 117}, {"time": 3526, "pitch": 69, "duration": 12, "velocity": 96}, {"time": 3538, "pitch": 67, "duration": 24, "velocity": 100}, {"time": 3562, "pitch": 67, "duration": 3, "velocity": 93}, {"time": 3565, "pitch": 67, "duration": 3, "velocity": 95}, {"time": 3568, "pitch": 69, "duration": 6, "velocity": 107}, {"time": 3574, "pitch": 72, "duration": 6, "velocity": 107}, {"time": 3580, "pitch": 72, "duration": 6, "velocity": 102}, {"time": 3586, "pitch": 72, "duration": 12, "velocity": 122}, {"time": 3598, "pitch": 72, "duration": 6, "velocity": 122}, {"time": 3604, "pitch": 72, "duration": 6, "velocity": 112}, {"time": 3610, "pitch": 69, "duration": 9, "velocity": 107}, {"time": 3619, "pitch": 74, "duration": 15, "velocity": 127}, {"time": 3634, "pitch": 67, "duration": 3, "velocity": 102}, {"time": 3637, "pitch": 67, "duration": 3, "velocity": 90}, {"time": 3640, "pitch": 72, "duration": 9, "velocity": 122}, {"time": 3649, "pitch": 74, "duration": 7, "velocity": 127}, {"time": 3655, "pitch": 72, "duration": 9, "velocity": 107}, {"time": 3664, "pitch": 77, "duration": 18, "velocity": 127}, {"time": 3682, "pitch": 76, "duration": 12, "velocity": 127}, {"time": 3694, "pitch": 67, "duration": 36, "velocity": 99}, {"time": 3730, "pitch": 67, "duration": 3, "velocity": 102}, {"time": 3733, "pitch": 67, "duration": 3, "velocity": 90}, {"time": 3736, "pitch": 71, "duration": 9, "velocity": 122}, {"time": 3745, "pitch": 74, "duration": 9, "velocity": 122}, {"time": 3754, "pitch": 74, "duration": 6, "velocity": 127}, {"time": 3760, "pitch": 72, "duration": 14, "velocity": 127}, {"time": 3772, "pitch": 67, "duration": 6, "velocity": 117}, {"time": 3778, "pitch": 64, "duration": 48, "velocity": 93}, {"time": 3826, "pitch": 60, "duration": 6, "velocity": 107}, {"time": 3832, "pitch": 71, "duration": 6, "velocity": 122}, {"time": 3838, "pitch": 72, "duration": 6, "velocity": 117}, {"time": 3844, "pitch": 71, "duration": 6, "velocity": 122}, {"time": 3850, "pitch": 67, "duration": 6, "velocity": 102}, {"time": 3856, "pitch": 69, "duration": 12, "velocity": 122}, {"time": 3868, "pitch": 76, "duration": 6, "velocity": 127}, {"time": 3874, "pitch": 74, "duration": 24, "velocity": 127}, {"time": 3898, "pitch": 72, "duration": 6, "velocity": 102}, {"time": 3904, "pitch": 67, "duration": 12, "velocity": 102}, {"time": 3916, "pitch": 76, "duration": 6, "velocity": 127}, {"time": 3922, "pitch": 74, "duration": 24, "velocity": 127}, {"time": 3946, "pitch": 72, "duration": 6, "velocity": 100}, {"time": 3952, "pitch": 69, "duration": 18, "velocity": 112}, {"time": 3970, "pitch": 76, "duration": 6, "velocity": 127}, {"time": 3976, "pitch": 74, "duration": 12, "velocity": 127}, {"time": 3988, "pitch": 72, "duration": 6, "velocity": 127}, {"time": 3994, "pitch": 74, "duration": 24, "velocity": 127}, {"time": 4018, "pitch": 67, "duration": 3, "velocity": 117}, {"time": 4021, "pitch": 67, "duration": 3, "velocity": 85}, {"time": 4024, "pitch": 72, "duration": 9, "velocity": 100}, {"time": 4033, "pitch": 74, "duration": 6, "velocity": 127}, {"time": 4039, "pitch": 72, "duration": 6, "velocity": 127}, {"time": 4045, "pitch": 77, "duration": 18, "velocity": 122}, {"time": 4063, "pitch": 76, "duration": 12, "velocity": 127}, {"time": 4075, "pitch": 67, "duration": 39, "velocity": 86}, {"time": 4114, "pitch": 67, "duration": 3, "velocity": 96}, {"time": 4117, "pitch": 67, "duration": 3, "velocity": 88}, {"time": 4120, "pitch": 71, "duration": 9, "velocity": 117}, {"time": 4129, "pitch": 74, "duration": 9, "velocity": 102}, {"time": 4138, "pitch": 74, "duration": 6, "velocity": 117}, {"time": 4144, "pitch": 72, "duration": 12, "velocity": 127}, {"time": 4156, "pitch": 67, "duration": 6, "velocity": 97}, {"time": 4162, "pitch": 64, "duration": 48, "velocity": 86}, {"time": 4210, "pitch": 60, "duration": 6, "velocity": 93}, {"time": 4216, "pitch": 71, "duration": 6, "velocity": 102}, {"time": 4222, "pitch": 72, "duration": 6, "velocity": 100}, {"time": 4228, "pitch": 71, "duration": 6, "velocity": 122}, {"time": 4234, "pitch": 67, "duration": 6, "velocity": 93}, {"time": 4240, "pitch": 69, "duration": 12, "velocity": 127}, {"time": 4251, "pitch": 76, "duration": 7, "velocity": 112}, {"time": 4258, "pitch": 74, "duration": 24, "velocity": 103}, {"time": 4282, "pitch": 72, "duration": 6, "velocity": 102}, {"time": 4288, "pitch": 69, "duration": 9, "velocity": 100}, {"time": 4297, "pitch": 76, "duration": 9, "velocity": 117}, {"time": 4306, "pitch": 74, "duration": 24, "velocity": 122}, {"time": 4330, "pitch": 72, "duration": 6, "velocity": 112}, {"time": 4336, "pitch": 69, "duration": 18, "velocity": 107}, {"time": 4354, "pitch": 76, "duration": 6, "velocity": 99}, {"time": 4360, "pitch": 74, "duration": 12, "velocity": 100}, {"time": 4372, "pitch": 72, "duration": 6, "velocity": 117}, {"time": 4378, "pitch": 74, "duration": 24, "velocity": 127}, {"time": 4402, "pitch": 67, "duration": 6, "velocity": 95}, {"time": 4408, "pitch": 76, "duration": 11, "velocity": 112}, {"time": 4419, "pitch": 74, "duration": 14, "velocity": 112}, {"time": 4433, "pitch": 74, "duration": 9, "velocity": 127}, {"time": 4441, "pitch": 72, "duration": 11, "velocity": 92}, {"time": 4452, "pitch": 72, "duration": 60, "velocity": 127}]}, {"program": 0, "is_drum": false, "name": "PIANO", "notes": [{"time": 16, "pitch": 36, "duration": 43, "velocity": 62}, {"time": 16, "pitch": 65, "duration": 11, "velocity": 95}, {"time": 22, "pitch": 43, "duration": 42, "velocity": 42}, {"time": 28, "pitch": 48, "duration": 15, "velocity": 58}, {"time": 28, "pitch": 64, "duration": 6, "velocity": 71}, {"time": 34, "pitch": 52, "duration": 7, "velocity": 60}, {"time": 34, "pitch": 55, "duration": 13, "velocity": 82}, {"time": 40, "pitch": 55, "duration": 7, "velocity": 58}, {"time": 43, "pitch": 48, "duration": 1, "velocity": 48}, {"time": 46, "pitch": 65, "duration": 6, "velocity": 90}, {"time": 52, "pitch": 52, "duration": 7, "velocity": 57}, {"time": 52, "pitch": 64, "duration": 6, "velocity": 69}, {"time": 58, "pitch": 55, "duration": 6, "velocity": 38}, {"time": 58, "pitch": 55, "duration": 6, "velocity": 72}, {"time": 64, "pitch": 36, "duration": 21, "velocity": 72}, {"time": 64, "pitch": 65, "duration": 13, "velocity": 88}, {"time": 70, "pitch": 52, "duration": 7, "velocity": 65}, {"time": 76, "pitch": 55, "duration": 12, "velocity": 93}, {"time": 76, "pitch": 64, "duration": 7, "velocity": 73}, {"time": 82, "pitch": 52, "duration": 5, "velocity": 73}, {"time": 82, "pitch": 55, "duration": 6, "velocity": 72}, {"time": 88, "pitch": 47, "duration": 14, "velocity": 93}, {"time": 94, "pitch": 52, "duration": 7, "velocity": 52}, {"time": 100, "pitch": 55, "duration": 12, "velocity": 86}, {"time": 112, "pitch": 45, "duration": 40, "velocity": 70}, {"time": 118, "pitch": 52, "duration": 22, "velocity": 72}, {"time": 124, "pitch": 57, "duration": 13, "velocity": 76}, {"time": 130, "pitch": 60, "duration": 6, "velocity": 59}, {"time": 136, "pitch": 64, "duration": 24, "velocity": 73}, {"time": 142, "pitch": 52, "duration": 9, "velocity": 57}, {"time": 148, "pitch": 60, "duration": 12, "velocity": 88}, {"time": 154, "pitch": 57, "duration": 6, "velocity": 59}, {"time": 160, "pitch": 45, "duration": 34, "velocity": 66}, {"time": 163, "pitch": 52, "duration": 10, "velocity": 38}, {"time": 172, "pitch": 57, "duration": 14, "velocity": 75}, {"time": 178, "pitch": 52, "duration": 8, "velocity": 63}, {"time": 184, "pitch": 64, "duration": 14, "velocity": 100}, {"time": 190, "pitch": 52, "duration": 3, "velocity": 95}, {"time": 196, "pitch": 60, "duration": 7, "velocity": 112}, {"time": 202, "pitch": 55, "duration": 7, "velocity": 95}, {"time": 208, "pitch": 41, "duration": 44, "velocity": 75}, {"time": 214, "pitch": 48, "duration": 21, "velocity": 72}, {"time": 220, "pitch": 53, "duration": 8, "velocity": 97}, {"time": 226, "pitch": 57, "duration": 8, "velocity": 92}, {"time": 232, "pitch": 65, "duration": 13, "velocity": 107}, {"time": 238, "pitch": 48, "duration": 18, "velocity": 82}, {"time": 244, "pitch": 60, "duration": 10, "velocity": 112}, {"time": 250, "pitch": 57, "duration": 5, "velocity": 89}, {"time": 256, "pitch": 41, "duration": 34, "velocity": 92}, {"time": 262, "pitch": 48, "duration": 27, "velocity": 71}, {"time": 268, "pitch": 53, "duration": 14, "velocity": 89}, {"time": 274, "pitch": 56, "duration": 9, "velocity": 95}, {"time": 280, "pitch": 65, "duration": 24, "velocity": 75}, {"time": 286, "pitch": 56, "duration": 18, "velocity": 63}, {"time": 292, "pitch": 60, "duration": 12, "velocity": 36}, {"time": 304, "pitch": 38, "duration": 37, "velocity": 73}, {"time": 310, "pitch": 45, "duration": 31, "velocity": 76}, {"time": 316, "pitch": 50, "duration": 15, "velocity": 99}, {"time": 322, "pitch": 62, "duration": 14, "velocity": 92}, {"time": 328, "pitch": 69, "duration": 24, "velocity": 102}, {"time": 334, "pitch": 50, "duration": 10, "velocity": 78}, {"time": 340, "pitch": 65, "duration": 11, "velocity": 99}, {"time": 346, "pitch": 62, "duration": 6, "velocity": 76}, {"time": 352, "pitch": 43, "duration": 43, "velocity": 82}, {"time": 358, "pitch": 50, "duration": 44, "velocity": 65}, {"time": 364, "pitch": 55, "duration": 15, "velocity": 97}, {"time": 370, "pitch": 59, "duration": 8, "velocity": 86}, {"time": 376, "pitch": 62, "duration": 11, "velocity": 99}, {"time": 382, "pitch": 55, "duration": 5, "velocity": 83}, {"time": 385, "pitch": 59, "duration": 4, "velocity": 1}, {"time": 388, "pitch": 67, "duration": 54, "velocity": 78}, {"time": 394, "pitch": 62, "duration": 48, "velocity": 66}, {"time": 400, "pitch": 43, "duration": 38, "velocity": 77}, {"time": 400, "pitch": 59, "duration": 44, "velocity": 93}, {"time": 448, "pitch": 48, "duration": 44, "velocity": 75}, {"time": 454, "pitch": 55, "duration": 21, "velocity": 59}, {"time": 460, "pitch": 60, "duration": 7, "velocity": 55}, {"time": 466, "pitch": 64, "duration": 7, "velocity": 57}, {"time": 472, "pitch": 65, "duration": 28, "velocity": 81}, {"time": 478, "pitch": 55, "duration": 18, "velocity": 54}, {"time": 484, "pitch": 64, "duration": 24, "velocity": 79}, {"time": 490, "pitch": 60, "duration": 10, "velocity": 61}, {"time": 496, "pitch": 48, "duration": 27, "velocity": 81}, {"time": 502, "pitch": 55, "duration": 20, "velocity": 59}, {"time": 508, "pitch": 60, "duration": 11, "velocity": 68}, {"time": 514, "pitch": 64, "duration": 7, "velocity": 43}, {"time": 520, "pitch": 65, "duration": 9, "velocity": 97}, {"time": 526, "pitch": 64, "duration": 18, "velocity": 59}, {"time": 532, "pitch": 60, "duration": 13, "velocity": 62}, {"time": 544, "pitch": 40, "duration": 43, "velocity": 68}, {"time": 550, "pitch": 47, "duration": 42, "velocity": 54}, {"time": 556, "pitch": 52, "duration": 13, "velocity": 52}, {"time": 562, "pitch": 55, "duration": 7, "velocity": 49}, {"time": 568, "pitch": 64, "duration": 25, "velocity": 92}, {"time": 574, "pitch": 52, "duration": 3, "velocity": 48}, {"time": 580, "pitch": 59, "duration": 13, "velocity": 65}, {"time": 586, "pitch": 55, "duration": 7, "velocity": 53}, {"time": 592, "pitch": 40, "duration": 32, "velocity": 63}, {"time": 598, "pitch": 47, "duration": 24, "velocity": 44}, {"time": 604, "pitch": 52, "duration": 12, "velocity": 64}, {"time": 610, "pitch": 64, "duration": 8, "velocity": 57}, {"time": 616, "pitch": 71, "duration": 24, "velocity": 107}, {"time": 622, "pitch": 67, "duration": 6, "velocity": 68}, {"time": 628, "pitch": 64, "duration": 12, "velocity": 68}, {"time": 634, "pitch": 67, "duration": 6, "velocity": 61}, {"time": 640, "pitch": 38, "duration": 39, "velocity": 70}, {"time": 646, "pitch": 45, "duration": 34, "velocity": 48}, {"time": 652, "pitch": 50, "duration": 15, "velocity": 59}, {"time": 658, "pitch": 65, "duration": 19, "velocity": 63}, {"time": 664, "pitch": 74, "duration": 25, "velocity": 93}, {"time": 670, "pitch": 50, "duration": 15, "velocity": 55}, {"time": 676, "pitch": 69, "duration": 13, "velocity": 61}, {"time": 682, "pitch": 65, "duration": 8, "velocity": 57}, {"time": 688, "pitch": 43, "duration": 37, "velocity": 72}, {"time": 694, "pitch": 50, "duration": 31, "velocity": 61}, {"time": 700, "pitch": 55, "duration": 14, "velocity": 82}, {"time": 706, "pitch": 62, "duration": 14, "velocity": 62}, {"time": 712, "pitch": 71, "duration": 28, "velocity": 83}, {"time": 715, "pitch": 55, "duration": 4, "velocity": 53}, {"time": 724, "pitch": 67, "duration": 15, "velocity": 75}, {"time": 730, "pitch": 62, "duration": 9, "velocity": 42}, {"time": 736, "pitch": 36, "duration": 45, "velocity": 69}, {"time": 742, "pitch": 43, "duration": 43, "velocity": 58}, {"time": 748, "pitch": 48, "duration": 14, "velocity": 65}, {"time": 754, "pitch": 60, "duration": 7, "velocity": 71}, {"time": 760, "pitch": 67, "duration": 25, "velocity": 93}, {"time": 766, "pitch": 48, "duration": 8, "velocity": 64}, {"time": 772, "pitch": 65, "duration": 13, "velocity": 62}, {"time": 778, "pitch": 64, "duration": 11, "velocity": 59}, {"time": 784, "pitch": 36, "duration": 32, "velocity": 69}, {"time": 832, "pitch": 36, "duration": 44, "velocity": 78}, {"time": 838, "pitch": 43, "duration": 42, "velocity": 54}, {"time": 844, "pitch": 48, "duration": 15, "velocity": 82}, {"time": 850, "pitch": 60, "duration": 8, "velocity": 63}, {"time": 856, "pitch": 67, "duration": 20, "velocity": 99}, {"time": 862, "pitch": 48, "duration": 6, "velocity": 56}, {"time": 868, "pitch": 65, "duration": 29, "velocity": 70}, {"time": 874, "pitch": 64, "duration": 22, "velocity": 55}, {"time": 880, "pitch": 36, "duration": 35, "velocity": 67}, {"time": 886, "pitch": 43, "duration": 30, "velocity": 53}, {"time": 892, "pitch": 48, "duration": 14, "velocity": 72}, {"time": 898, "pitch": 60, "duration": 18, "velocity": 75}, {"time": 904, "pitch": 65, "duration": 25, "velocity": 93}, {"time": 910, "pitch": 48, "duration": 11, "velocity": 56}, {"time": 916, "pitch": 64, "duration": 14, "velocity": 77}, {"time": 922, "pitch": 60, "duration": 8, "velocity": 45}, {"time": 928, "pitch": 40, "duration": 44, "velocity": 72}, {"time": 934, "pitch": 47, "duration": 44, "velocity": 42}, {"time": 940, "pitch": 52, "duration": 22, "velocity": 71}, {"time": 946, "pitch": 55, "duration": 38, "velocity": 47}, {"time": 952, "pitch": 64, "duration": 35, "velocity": 90}, {"time": 970, "pitch": 59, "duration": 15, "velocity": 58}, {"time": 976, "pitch": 40, "duration": 35, "velocity": 71}, {"time": 982, "pitch": 47, "duration": 29, "velocity": 52}, {"time": 988, "pitch": 52, "duration": 18, "velocity": 52}, {"time": 991, "pitch": 55, "duration": 3, "velocity": 27}, {"time": 994, "pitch": 64, "duration": 30, "velocity": 88}, {"time": 1012, "pitch": 59, "duration": 11, "velocity": 72}, {"time": 1024, "pitch": 38, "duration": 36, "velocity": 75}, {"time": 1030, "pitch": 45, "duration": 31, "velocity": 61}, {"time": 1036, "pitch": 50, "duration": 16, "velocity": 66}, {"time": 1042, "pitch": 57, "duration": 32, "velocity": 71}, {"time": 1054, "pitch": 50, "duration": 10, "velocity": 38}, {"time": 1060, "pitch": 65, "duration": 14, "velocity": 97}, {"time": 1072, "pitch": 43, "duration": 33, "velocity": 67}, {"time": 1078, "pitch": 50, "duration": 26, "velocity": 60}, {"time": 1084, "pitch": 55, "duration": 16, "velocity": 57}, {"time": 1090, "pitch": 59, "duration": 30, "velocity": 72}, {"time": 1096, "pitch": 67, "duration": 24, "velocity": 96}, {"time": 1108, "pitch": 62, "duration": 12, "velocity": 73}, {"time": 1120, "pitch": 36, "duration": 45, "velocity": 92}, {"time": 1126, "pitch": 43, "duration": 42, "velocity": 62}, {"time": 1132, "pitch": 48, "duration": 14, "velocity": 92}, {"time": 1138, "pitch": 55, "duration": 38, "velocity": 74}, {"time": 1144, "pitch": 64, "duration": 33, "velocity": 100}, {"time": 1150, "pitch": 48, "duration": 5, "velocity": 64}, {"time": 1156, "pitch": 60, "duration": 17, "velocity": 93}, {"time": 1162, "pitch": 59, "duration": 8, "velocity": 23}, {"time": 1168, "pitch": 36, "duration": 18, "velocity": 75}, {"time": 1174, "pitch": 43, "duration": 11, "velocity": 65}, {"time": 1180, "pitch": 48, "duration": 11, "velocity": 100}, {"time": 1186, "pitch": 55, "duration": 7, "velocity": 69}, {"time": 1186, "pitch": 64, "duration": 17, "velocity": 93}, {"time": 1192, "pitch": 47, "duration": 13, "velocity": 122}, {"time": 1204, "pitch": 60, "duration": 11, "velocity": 96}, {"time": 1210, "pitch": 59, "duration": 5, "velocity": 85}, {"time": 1216, "pitch": 45, "duration": 45, "velocity": 112}, {"time": 1222, "pitch": 52, "duration": 21, "velocity": 85}, {"time": 1228, "pitch": 57, "duration": 6, "velocity": 107}, {"time": 1234, "pitch": 60, "duration": 7, "velocity": 92}, {"time": 1240, "pitch": 64, "duration": 13, "velocity": 76}, {"time": 1240, "pitch": 69, "duration": 25, "velocity": 99}, {"time": 1246, "pitch": 52, "duration": 12, "velocity": 95}, {"time": 1252, "pitch": 60, "duration": 13, "velocity": 96}, {"time": 1258, "pitch": 64, "duration": 8, "velocity": 97}, {"time": 1264, "pitch": 43, "duration": 43, "velocity": 92}, {"time": 1270, "pitch": 50, "duration": 20, "velocity": 82}, {"time": 1276, "pitch": 55, "duration": 6, "velocity": 97}, {"time": 1282, "pitch": 59, "duration": 6, "velocity": 102}, {"time": 1288, "pitch": 59, "duration": 15, "velocity": 70}, {"time": 1288, "pitch": 61, "duration": 1, "velocity": 93}, {"time": 1288, "pitch": 62, "duration": 23, "velocity": 127}, {"time": 1294, "pitch": 50, "duration": 7, "velocity": 85}, {"time": 1300, "pitch": 55, "duration": 11, "velocity": 81}, {"time": 1306, "pitch": 59, "duration": 5, "velocity": 64}, {"time": 1312, "pitch": 41, "duration": 36, "velocity": 97}, {"time": 1318, "pitch": 48, "duration": 21, "velocity": 56}, {"time": 1324, "pitch": 53, "duration": 6, "velocity": 92}, {"time": 1330, "pitch": 57, "duration": 16, "velocity": 75}, {"time": 1336, "pitch": 65, "duration": 23, "velocity": 127}, {"time": 1342, "pitch": 48, "duration": 5, "velocity": 53}, {"time": 1348, "pitch": 60, "duration": 11, "velocity": 122}, {"time": 1354, "pitch": 57, "duration": 5, "velocity": 83}, {"time": 1360, "pitch": 40, "duration": 39, "velocity": 93}, {"time": 1366, "pitch": 47, "duration": 32, "velocity": 68}, {"time": 1372, "pitch": 52, "duration": 14, "velocity": 95}, {"time": 1378, "pitch": 59, "duration": 14, "velocity": 75}, {"time": 1384, "pitch": 67, "duration": 24, "velocity": 117}, {"time": 1390, "pitch": 52, "duration": 4, "velocity": 78}, {"time": 1396, "pitch": 64, "duration": 12, "velocity": 99}, {"time": 1402, "pitch": 59, "duration": 6, "velocity": 78}, {"time": 1408, "pitch": 45, "duration": 34, "velocity": 93}, {"time": 1414, "pitch": 52, "duration": 20, "velocity": 96}, {"time": 1420, "pitch": 57, "duration": 6, "velocity": 100}, {"time": 1426, "pitch": 60, "duration": 7, "velocity": 85}, {"time": 1432, "pitch": 64, "duration": 12, "velocity": 93}, {"time": 1432, "pitch": 69, "duration": 25, "velocity": 100}, {"time": 1438, "pitch": 52, "duration": 3, "velocity": 79}, {"time": 1444, "pitch": 60, "duration": 11, "velocity": 96}, {"time": 1450, "pitch": 64, "duration": 7, "velocity": 93}, {"time": 1456, "pitch": 43, "duration": 34, "velocity": 95}, {"time": 1462, "pitch": 50, "duration": 20, "velocity": 56}, {"time": 1468, "pitch": 55, "duration": 6, "velocity": 93}, {"time": 1474, "pitch": 59, "duration": 7, "velocity": 83}, {"time": 1480, "pitch": 62, "duration": 12, "velocity": 99}, {"time": 1480, "pitch": 67, "duration": 18, "velocity": 102}, {"time": 1486, "pitch": 50, "duration": 3, "velocity": 86}, {"time": 1492, "pitch": 59, "duration": 10, "velocity": 93}, {"time": 1504, "pitch": 41, "duration": 44, "velocity": 85}, {"time": 1510, "pitch": 48, "duration": 21, "velocity": 65}, {"time": 1513, "pitch": 53, "duration": 6, "velocity": 93}, {"time": 1522, "pitch": 57, "duration": 9, "velocity": 86}, {"time": 1528, "pitch": 65, "duration": 24, "velocity": 102}, {"time": 1534, "pitch": 48, "duration": 17, "velocity": 73}, {"time": 1540, "pitch": 60, "duration": 12, "velocity": 107}, {"time": 1546, "pitch": 57, "duration": 6, "velocity": 96}, {"time": 1552, "pitch": 43, "duration": 38, "velocity": 93}, {"time": 1558, "pitch": 50, "duration": 21, "velocity": 61}, {"time": 1561, "pitch": 55, "duration": 5, "velocity": 100}, {"time": 1570, "pitch": 59, "duration": 9, "velocity": 97}, {"time": 1576, "pitch": 67, "duration": 12, "velocity": 127}, {"time": 1582, "pitch": 50, "duration": 5, "velocity": 107}, {"time": 1588, "pitch": 62, "duration": 3, "velocity": 127}, {"time": 1591, "pitch": 59, "duration": 5, "velocity": 93}, {"time": 1594, "pitch": 62, "duration": 6, "velocity": 107}, {"time": 1600, "pitch": 36, "duration": 37, "velocity": 93}, {"time": 1606, "pitch": 43, "duration": 31, "velocity": 66}, {"time": 1609, "pitch": 48, "duration": 5, "velocity": 85}, {"time": 1612, "pitch": 55, "duration": 14, "velocity": 85}, {"time": 1618, "pitch": 60, "duration": 5, "velocity": 85}, {"time": 1624, "pitch": 64, "duration": 20, "velocity": 112}, {"time": 1630, "pitch": 48, "duration": 3, "velocity": 73}, {"time": 1636, "pitch": 60, "duration": 8, "velocity": 117}, {"time": 1642, "pitch": 55, "duration": 2, "velocity": 90}, {"time": 1648, "pitch": 40, "duration": 39, "velocity": 95}, {"time": 1651, "pitch": 47, "duration": 36, "velocity": 72}, {"time": 1654, "pitch": 52, "duration": 9, "velocity": 82}, {"time": 1657, "pitch": 59, "duration": 4, "velocity": 77}, {"time": 1660, "pitch": 64, "duration": 13, "velocity": 85}, {"time": 1666, "pitch": 52, "duration": 11, "velocity": 63}, {"time": 1672, "pitch": 59, "duration": 2, "velocity": 14}, {"time": 1672, "pitch": 67, "duration": 25, "velocity": 93}, {"time": 1678, "pitch": 52, "duration": 5, "velocity": 61}, {"time": 1684, "pitch": 64, "duration": 13, "velocity": 97}, {"time": 1690, "pitch": 59, "duration": 6, "velocity": 82}, {"time": 1696, "pitch": 45, "duration": 39, "velocity": 75}, {"time": 1699, "pitch": 52, "duration": 11, "velocity": 71}, {"time": 1702, "pitch": 57, "duration": 5, "velocity": 83}, {"time": 1705, "pitch": 60, "duration": 4, "velocity": 89}, {"time": 1708, "pitch": 64, "duration": 11, "velocity": 117}, {"time": 1714, "pitch": 52, "duration": 8, "velocity": 88}, {"time": 1720, "pitch": 69, "duration": 23, "velocity": 117}, {"time": 1726, "pitch": 52, "duration": 6, "velocity": 86}, {"time": 1732, "pitch": 64, "duration": 12, "velocity": 107}, {"time": 1735, "pitch": 52, "duration": 1, "velocity": 50}, {"time": 1738, "pitch": 60, "duration": 5, "velocity": 85}, {"time": 1744, "pitch": 43, "duration": 38, "velocity": 67}, {"time": 1747, "pitch": 50, "duration": 24, "velocity": 77}, {"time": 1750, "pitch": 55, "duration": 8, "velocity": 83}, {"time": 1753, "pitch": 59, "duration": 4, "velocity": 83}, {"time": 1756, "pitch": 62, "duration": 11, "velocity": 102}, {"time": 1762, "pitch": 55, "duration": 4, "velocity": 89}, {"time": 1768, "pitch": 67, "duration": 24, "velocity": 122}, {"time": 1774, "pitch": 50, "duration": 5, "velocity": 48}, {"time": 1780, "pitch": 62, "duration": 6, "velocity": 100}, {"time": 1783, "pitch": 50, "duration": 1, "velocity": 38}, {"time": 1786, "pitch": 59, "duration": 4, "velocity": 97}, {"time": 1789, "pitch": 62, "duration": 3, "velocity": 102}, {"time": 1792, "pitch": 41, "duration": 40, "velocity": 75}, {"time": 1795, "pitch": 48, "duration": 25, "velocity": 81}, {"time": 1798, "pitch": 53, "duration": 9, "velocity": 93}, {"time": 1801, "pitch": 60, "duration": 11, "velocity": 92}, {"time": 1810, "pitch": 53, "duration": 6, "velocity": 79}, {"time": 1816, "pitch": 65, "duration": 10, "velocity": 122}, {"time": 1816, "pitch": 69, "duration": 10, "velocity": 127}, {"time": 1822, "pitch": 48, "duration": 7, "velocity": 90}, {"time": 1828, "pitch": 65, "duration": 11, "velocity": 122}, {"time": 1828, "pitch": 69, "duration": 11, "velocity": 122}, {"time": 1840, "pitch": 40, "duration": 40, "velocity": 82}, {"time": 1843, "pitch": 47, "duration": 33, "velocity": 95}, {"time": 1846, "pitch": 52, "duration": 9, "velocity": 93}, {"time": 1849, "pitch": 55, "duration": 15, "velocity": 82}, {"time": 1852, "pitch": 59, "duration": 10, "velocity": 102}, {"time": 1858, "pitch": 52, "duration": 9, "velocity": 75}, {"time": 1864, "pitch": 55, "duration": 1, "velocity": 72}, {"time": 1864, "pitch": 59, "duration": 9, "velocity": 88}, {"time": 1864, "pitch": 64, "duration": 9, "velocity": 95}, {"time": 1870, "pitch": 52, "duration": 2, "velocity": 82}, {"time": 1876, "pitch": 64, "duration": 12, "velocity": 122}, {"time": 1879, "pitch": 47, "duration": 1, "velocity": 79}, {"time": 1882, "pitch": 59, "duration": 4, "velocity": 100}, {"time": 1885, "pitch": 55, "duration": 3, "velocity": 93}, {"time": 1888, "pitch": 38, "duration": 42, "velocity": 89}, {"time": 1888, "pitch": 45, "duration": 40, "velocity": 76}, {"time": 1894, "pitch": 50, "duration": 8, "velocity": 81}, {"time": 1897, "pitch": 57, "duration": 5, "velocity": 88}, {"time": 1900, "pitch": 65, "duration": 22, "velocity": 112}, {"time": 1903, "pitch": 50, "duration": 3, "velocity": 38}, {"time": 1906, "pitch": 62, "duration": 15, "velocity": 97}, {"time": 1912, "pitch": 57, "duration": 10, "velocity": 102}, {"time": 1918, "pitch": 50, "duration": 6, "velocity": 51}, {"time": 1924, "pitch": 62, "duration": 12, "velocity": 102}, {"time": 1924, "pitch": 65, "duration": 13, "velocity": 102}, {"time": 1927, "pitch": 50, "duration": 6, "velocity": 78}, {"time": 1930, "pitch": 57, "duration": 5, "velocity": 99}, {"time": 1936, "pitch": 43, "duration": 38, "velocity": 90}, {"time": 1942, "pitch": 50, "duration": 22, "velocity": 69}, {"time": 1945, "pitch": 55, "duration": 5, "velocity": 83}, {"time": 1948, "pitch": 59, "duration": 10, "velocity": 112}, {"time": 1954, "pitch": 55, "duration": 3, "velocity": 89}, {"time": 1960, "pitch": 62, "duration": 8, "velocity": 122}, {"time": 1960, "pitch": 67, "duration": 9, "velocity": 117}, {"time": 1972, "pitch": 62, "duration": 10, "velocity": 127}, {"time": 1972, "pitch": 67, "duration": 10, "velocity": 127}, {"time": 1981, "pitch": 36, "duration": 45, "velocity": 86}, {"time": 1987, "pitch": 43, "duration": 42, "velocity": 79}, {"time": 1987, "pitch": 48, "duration": 9, "velocity": 79}, {"time": 1990, "pitch": 55, "duration": 5, "velocity": 78}, {"time": 1993, "pitch": 60, "duration": 11, "velocity": 93}, {"time": 2002, "pitch": 48, "duration": 9, "velocity": 78}, {"time": 2008, "pitch": 64, "duration": 22, "velocity": 107}, {"time": 2014, "pitch": 48, "duration": 7, "velocity": 62}, {"time": 2020, "pitch": 60, "duration": 10, "velocity": 95}, {"time": 2026, "pitch": 55, "duration": 3, "velocity": 76}, {"time": 2032, "pitch": 40, "duration": 41, "velocity": 92}, {"time": 2035, "pitch": 47, "duration": 38, "velocity": 93}, {"time": 2038, "pitch": 52, "duration": 10, "velocity": 85}, {"time": 2044, "pitch": 59, "duration": 24, "velocity": 107}, {"time": 2050, "pitch": 52, "duration": 10, "velocity": 66}, {"time": 2056, "pitch": 64, "duration": 9, "velocity": 77}, {"time": 2056, "pitch": 67, "duration": 9, "velocity": 82}, {"time": 2062, "pitch": 52, "duration": 6, "velocity": 46}, {"time": 2068, "pitch": 64, "duration": 11, "velocity": 112}, {"time": 2071, "pitch": 52, "duration": 4, "velocity": 82}, {"time": 2074, "pitch": 59, "duration": 5, "velocity": 93}, {"time": 2080, "pitch": 45, "duration": 42, "velocity": 73}, {"time": 2080, "pitch": 52, "duration": 25, "velocity": 67}, {"time": 2083, "pitch": 57, "duration": 10, "velocity": 77}, {"time": 2092, "pitch": 60, "duration": 14, "velocity": 82}, {"time": 2098, "pitch": 57, "duration": 6, "velocity": 82}, {"time": 2104, "pitch": 69, "duration": 23, "velocity": 100}, {"time": 2110, "pitch": 52, "duration": 6, "velocity": 72}, {"time": 2116, "pitch": 64, "duration": 6, "velocity": 112}, {"time": 2119, "pitch": 52, "duration": 2, "velocity": 82}, {"time": 2122, "pitch": 60, "duration": 5, "velocity": 97}, {"time": 2125, "pitch": 64, "duration": 4, "velocity": 107}, {"time": 2128, "pitch": 43, "duration": 36, "velocity": 82}, {"time": 2134, "pitch": 50, "duration": 30, "velocity": 81}, {"time": 2140, "pitch": 55, "duration": 14, "velocity": 92}, {"time": 2146, "pitch": 59, "duration": 11, "velocity": 86}, {"time": 2152, "pitch": 67, "duration": 25, "velocity": 107}, {"time": 2158, "pitch": 55, "duration": 4, "velocity": 78}, {"time": 2164, "pitch": 62, "duration": 6, "velocity": 127}, {"time": 2167, "pitch": 43, "duration": 4, "velocity": 66}, {"time": 2170, "pitch": 59, "duration": 5, "velocity": 95}, {"time": 2176, "pitch": 41, "duration": 38, "velocity": 63}, {"time": 2182, "pitch": 48, "duration": 32, "velocity": 41}, {"time": 2185, "pitch": 53, "duration": 6, "velocity": 72}, {"time": 2188, "pitch": 57, "duration": 13, "velocity": 92}, {"time": 2194, "pitch": 53, "duration": 10, "velocity": 65}, {"time": 2200, "pitch": 60, "duration": 10, "velocity": 93}, {"time": 2200, "pitch": 65, "duration": 24, "velocity": 97}, {"time": 2206, "pitch": 53, "duration": 4, "velocity": 52}, {"time": 2212, "pitch": 57, "duration": 8, "velocity": 107}, {"time": 2218, "pitch": 60, "duration": 7, "velocity": 102}, {"time": 2224, "pitch": 40, "duration": 37, "velocity": 90}, {"time": 2230, "pitch": 47, "duration": 30, "velocity": 73}, {"time": 2233, "pitch": 52, "duration": 6, "velocity": 72}, {"time": 2236, "pitch": 55, "duration": 11, "velocity": 97}, {"time": 2242, "pitch": 52, "duration": 8, "velocity": 63}, {"time": 2248, "pitch": 59, "duration": 12, "velocity": 102}, {"time": 2248, "pitch": 64, "duration": 13, "velocity": 107}, {"time": 2254, "pitch": 52, "duration": 3, "velocity": 76}, {"time": 2260, "pitch": 55, "duration": 2, "velocity": 97}, {"time": 2272, "pitch": 38, "duration": 33, "velocity": 62}, {"time": 2272, "pitch": 57, "duration": 16, "velocity": 92}, {"time": 2272, "pitch": 62, "duration": 16, "velocity": 97}, {"time": 2272, "pitch": 65, "duration": 16, "velocity": 93}, {"time": 2275, "pitch": 45, "duration": 26, "velocity": 52}, {"time": 2281, "pitch": 50, "duration": 15, "velocity": 53}, {"time": 2290, "pitch": 57, "duration": 14, "velocity": 72}, {"time": 2290, "pitch": 62, "duration": 14, "velocity": 90}, {"time": 2290, "pitch": 65, "duration": 14, "velocity": 83}, {"time": 2320, "pitch": 43, "duration": 38, "velocity": 73}, {"time": 2326, "pitch": 50, "duration": 30, "velocity": 53}, {"time": 2332, "pitch": 55, "duration": 8, "velocity": 96}, {"time": 2338, "pitch": 59, "duration": 3, "velocity": 57}, {"time": 2338, "pitch": 62, "duration": 3, "velocity": 59}, {"time": 2344, "pitch": 59, "duration": 15, "velocity": 100}, {"time": 2344, "pitch": 62, "duration": 14, "velocity": 102}, {"time": 2368, "pitch": 34, "duration": 28, "velocity": 92}, {"time": 2368, "pitch": 58, "duration": 11, "velocity": 81}, {"time": 2368, "pitch": 62, "duration": 10, "velocity": 63}, {"time": 2374, "pitch": 46, "duration": 19, "velocity": 53}, {"time": 2380, "pitch": 53, "duration": 16, "velocity": 48}, {"time": 2386, "pitch": 58, "duration": 15, "velocity": 72}, {"time": 2386, "pitch": 62, "duration": 10, "velocity": 70}, {"time": 2386, "pitch": 65, "duration": 11, "velocity": 69}, {"time": 2404, "pitch": 33, "duration": 9, "velocity": 55}, {"time": 2404, "pitch": 57, "duration": 11, "velocity": 67}, {"time": 2404, "pitch": 61, "duration": 11, "velocity": 57}, {"time": 2404, "pitch": 64, "duration": 10, "velocity": 69}, {"time": 2416, "pitch": 33, "duration": 46, "velocity": 70}, {"time": 2416, "pitch": 57, "duration": 8, "velocity": 77}, {"time": 2416, "pitch": 61, "duration": 13, "velocity": 72}, {"time": 2416, "pitch": 64, "duration": 14, "velocity": 76}, {"time": 2422, "pitch": 45, "duration": 43, "velocity": 59}, {"time": 2428, "pitch": 57, "duration": 26, "velocity": 56}, {"time": 2434, "pitch": 61, "duration": 15, "velocity": 107}, {"time": 2434, "pitch": 64, "duration": 15, "velocity": 89}, {"time": 2452, "pitch": 64, "duration": 26, "velocity": 90}, {"time": 2458, "pitch": 57, "duration": 14, "velocity": 58}, {"time": 2464, "pitch": 33, "duration": 38, "velocity": 66}, {"time": 2470, "pitch": 45, "duration": 34, "velocity": 64}, {"time": 2476, "pitch": 57, "duration": 3, "velocity": 53}, {"time": 2482, "pitch": 57, "duration": 16, "velocity": 81}, {"time": 2482, "pitch": 64, "duration": 16, "velocity": 74}, {"time": 2500, "pitch": 57, "duration": 9, "velocity": 82}, {"time": 2500, "pitch": 64, "duration": 6, "velocity": 81}, {"time": 2512, "pitch": 47, "duration": 40, "velocity": 60}, {"time": 2512, "pitch": 59, "duration": 14, "velocity": 74}, {"time": 2512, "pitch": 62, "duration": 14, "velocity": 81}, {"time": 2512, "pitch": 66, "duration": 14, "velocity": 82}, {"time": 2524, "pitch": 54, "duration": 5, "velocity": 41}, {"time": 2530, "pitch": 59, "duration": 14, "velocity": 66}, {"time": 2530, "pitch": 62, "duration": 14, "velocity": 71}, {"time": 2530, "pitch": 66, "duration": 14, "velocity": 60}, {"time": 2548, "pitch": 66, "duration": 8, "velocity": 127}, {"time": 2551, "pitch": 54, "duration": 1, "velocity": 75}, {"time": 2554, "pitch": 62, "duration": 6, "velocity": 65}, {"time": 2560, "pitch": 36, "duration": 36, "velocity": 72}, {"time": 2560, "pitch": 60, "duration": 8, "velocity": 66}, {"time": 2560, "pitch": 64, "duration": 5, "velocity": 69}, {"time": 2566, "pitch": 43, "duration": 29, "velocity": 35}, {"time": 2572, "pitch": 48, "duration": 14, "velocity": 82}, {"time": 2578, "pitch": 55, "duration": 16, "velocity": 72}, {"time": 2578, "pitch": 60, "duration": 15, "velocity": 86}, {"time": 2578, "pitch": 64, "duration": 15, "velocity": 79}, {"time": 2590, "pitch": 48, "duration": 3, "velocity": 52}, {"time": 2596, "pitch": 55, "duration": 1, "velocity": 35}, {"time": 2596, "pitch": 60, "duration": 2, "velocity": 92}, {"time": 2596, "pitch": 64, "duration": 2, "velocity": 92}, {"time": 2608, "pitch": 37, "duration": 41, "velocity": 69}, {"time": 2608, "pitch": 61, "duration": 14, "velocity": 88}, {"time": 2608, "pitch": 64, "duration": 13, "velocity": 78}, {"time": 2608, "pitch": 68, "duration": 13, "velocity": 83}, {"time": 2614, "pitch": 44, "duration": 35, "velocity": 26}, {"time": 2620, "pitch": 49, "duration": 9, "velocity": 82}, {"time": 2626, "pitch": 61, "duration": 13, "velocity": 95}, {"time": 2626, "pitch": 64, "duration": 14, "velocity": 96}, {"time": 2626, "pitch": 68, "duration": 14, "velocity": 102}, {"time": 2638, "pitch": 49, "duration": 7, "velocity": 46}, {"time": 2644, "pitch": 68, "duration": 12, "velocity": 127}, {"time": 2650, "pitch": 64, "duration": 6, "velocity": 79}, {"time": 2656, "pitch": 38, "duration": 35, "velocity": 69}, {"time": 2656, "pitch": 62, "duration": 15, "velocity": 89}, {"time": 2662, "pitch": 45, "duration": 29, "velocity": 56}, {"time": 2668, "pitch": 50, "duration": 13, "velocity": 86}, {"time": 2674, "pitch": 57, "duration": 13, "velocity": 79}, {"time": 2674, "pitch": 62, "duration": 15, "velocity": 92}, {"time": 2674, "pitch": 65, "duration": 14, "velocity": 83}, {"time": 2683, "pitch": 50, "duration": 4, "velocity": 55}, {"time": 2692, "pitch": 62, "duration": 1, "velocity": 102}, {"time": 2692, "pitch": 65, "duration": 2, "velocity": 100}, {"time": 2701, "pitch": 41, "duration": 39, "velocity": 79}, {"time": 2704, "pitch": 53, "duration": 4, "velocity": 89}, {"time": 2704, "pitch": 56, "duration": 4, "velocity": 107}, {"time": 2704, "pitch": 60, "duration": 4, "velocity": 93}, {"time": 2707, "pitch": 48, "duration": 42, "velocity": 58}, {"time": 2713, "pitch": 53, "duration": 14, "velocity": 71}, {"time": 2722, "pitch": 60, "duration": 15, "velocity": 90}, {"time": 2722, "pitch": 65, "duration": 14, "velocity": 96}, {"time": 2722, "pitch": 68, "duration": 14, "velocity": 102}, {"time": 2734, "pitch": 53, "duration": 3, "velocity": 55}, {"time": 2740, "pitch": 68, "duration": 9, "velocity": 122}, {"time": 2746, "pitch": 65, "duration": 7, "velocity": 92}, {"time": 2752, "pitch": 43, "duration": 44, "velocity": 86}, {"time": 2758, "pitch": 50, "duration": 42, "velocity": 72}, {"time": 2764, "pitch": 55, "duration": 14, "velocity": 95}, {"time": 2770, "pitch": 59, "duration": 9, "velocity": 86}, {"time": 2776, "pitch": 62, "duration": 13, "velocity": 89}, {"time": 2776, "pitch": 67, "duration": 18, "velocity": 85}, {"time": 2782, "pitch": 55, "duration": 4, "velocity": 82}, {"time": 2788, "pitch": 59, "duration": 10, "velocity": 92}, {"time": 2794, "pitch": 62, "duration": 4, "velocity": 83}, {"time": 2800, "pitch": 43, "duration": 83, "velocity": 71}, {"time": 2800, "pitch": 59, "duration": 13, "velocity": 95}, {"time": 2800, "pitch": 62, "duration": 18, "velocity": 89}, {"time": 2800, "pitch": 67, "duration": 18, "velocity": 83}, {"time": 2806, "pitch": 50, "duration": 76, "velocity": 54}, {"time": 2812, "pitch": 55, "duration": 63, "velocity": 67}, {"time": 2818, "pitch": 59, "duration": 67, "velocity": 59}, {"time": 2824, "pitch": 62, "duration": 61, "velocity": 81}, {"time": 2824, "pitch": 67, "duration": 61, "velocity": 86}, {"time": 2896, "pitch": 36, "duration": 44, "velocity": 78}, {"time": 2902, "pitch": 43, "duration": 42, "velocity": 54}, {"time": 2908, "pitch": 48, "duration": 15, "velocity": 82}, {"time": 2914, "pitch": 60, "duration": 8, "velocity": 63}, {"time": 2920, "pitch": 67, "duration": 20, "velocity": 99}, {"time": 2926, "pitch": 48, "duration": 6, "velocity": 56}, {"time": 2932, "pitch": 65, "duration": 29, "velocity": 70}, {"time": 2938, "pitch": 64, "duration": 22, "velocity": 55}, {"time": 2944, "pitch": 36, "duration": 35, "velocity": 67}, {"time": 2950, "pitch": 43, "duration": 30, "velocity": 53}, {"time": 2956, "pitch": 48, "duration": 14, "velocity": 72}, {"time": 2962, "pitch": 60, "duration": 18, "velocity": 75}, {"time": 2968, "pitch": 65, "duration": 25, "velocity": 93}, {"time": 2974, "pitch": 48, "duration": 11, "velocity": 56}, {"time": 2980, "pitch": 64, "duration": 14, "velocity": 77}, {"time": 2986, "pitch": 60, "duration": 8, "velocity": 45}, {"time": 2992, "pitch": 40, "duration": 44, "velocity": 72}, {"time": 2998, "pitch": 47, "duration": 44, "velocity": 42}, {"time": 3004, "pitch": 52, "duration": 22, "velocity": 71}, {"time": 3010, "pitch": 55, "duration": 38, "velocity": 47}, {"time": 3016, "pitch": 64, "duration": 35, "velocity": 90}, {"time": 3034, "pitch": 59, "duration": 15, "velocity": 58}, {"time": 3040, "pitch": 40, "duration": 35, "velocity": 71}, {"time": 3046, "pitch": 47, "duration": 29, "velocity": 52}, {"time": 3052, "pitch": 52, "duration": 18, "velocity": 52}, {"time": 3055, "pitch": 55, "duration": 3, "velocity": 27}, {"time": 3058, "pitch": 64, "duration": 30, "velocity": 88}, {"time": 3076, "pitch": 59, "duration": 11, "velocity": 72}, {"time": 3088, "pitch": 38, "duration": 36, "velocity": 75}, {"time": 3094, "pitch": 45, "duration": 31, "velocity": 61}, {"time": 3100, "pitch": 50, "duration": 16, "velocity": 66}, {"time": 3106, "pitch": 57, "duration": 32, "velocity": 71}, {"time": 3118, "pitch": 50, "duration": 10, "velocity": 38}, {"time": 3124, "pitch": 65, "duration": 14, "velocity": 97}, {"time": 3136, "pitch": 43, "duration": 33, "velocity": 67}, {"time": 3142, "pitch": 50, "duration": 26, "velocity": 60}, {"time": 3148, "pitch": 55, "duration": 16, "velocity": 57}, {"time": 3154, "pitch": 59, "duration": 30, "velocity": 72}, {"time": 3160, "pitch": 67, "duration": 24, "velocity": 96}, {"time": 3172, "pitch": 62, "duration": 12, "velocity": 73}, {"time": 3184, "pitch": 36, "duration": 45, "velocity": 92}, {"time": 3190, "pitch": 43, "duration": 42, "velocity": 62}, {"time": 3196, "pitch": 48, "duration": 14, "velocity": 92}, {"time": 3202, "pitch": 55, "duration": 38, "velocity": 74}, {"time": 3208, "pitch": 64, "duration": 33, "velocity": 100}, {"time": 3214, "pitch": 48, "duration": 5, "velocity": 64}, {"time": 3220, "pitch": 60, "duration": 17, "velocity": 93}, {"time": 3226, "pitch": 59, "duration": 8, "velocity": 23}, {"time": 3232, "pitch": 36, "duration": 18, "velocity": 75}, {"time": 3238, "pitch": 43, "duration": 11, "velocity": 65}, {"time": 3244, "pitch": 48, "duration": 11, "velocity": 100}, {"time": 3250, "pitch": 55, "duration": 7, "velocity": 69}, {"time": 3250, "pitch": 64, "duration": 17, "velocity": 93}, {"time": 3256, "pitch": 47, "duration": 13, "velocity": 122}, {"time": 3268, "pitch": 60, "duration": 11, "velocity": 96}, {"time": 3274, "pitch": 59, "duration": 5, "velocity": 85}, {"time": 3280, "pitch": 45, "duration": 45, "velocity": 112}, {"time": 3286, "pitch": 52, "duration": 21, "velocity": 85}, {"time": 3292, "pitch": 57, "duration": 6, "velocity": 107}, {"time": 3298, "pitch": 60, "duration": 7, "velocity": 92}, {"time": 3304, "pitch": 64, "duration": 13, "velocity": 76}, {"time": 3304, "pitch": 69, "duration": 25, "velocity": 99}, {"time": 3310, "pitch": 52, "duration": 12, "velocity": 95}, {"time": 3316, "pitch": 60, "duration": 13, "velocity": 96}, {"time": 3322, "pitch": 64, "duration": 8, "velocity": 97}, {"time": 3328, "pitch": 43, "duration": 43, "velocity": 92}, {"time": 3334, "pitch": 50, "duration": 20, "velocity": 82}, {"time": 3340, "pitch": 55, "duration": 6, "velocity": 97}, {"time": 3346, "pitch": 59, "duration": 6, "velocity": 102}, {"time": 3352, "pitch": 59, "duration": 15, "velocity": 70}, {"time": 3352, "pitch": 61, "duration": 1, "velocity": 93}, {"time": 3352, "pitch": 62, "duration": 23, "velocity": 127}, {"time": 3358, "pitch": 50, "duration": 7, "velocity": 85}, {"time": 3364, "pitch": 55, "duration": 11, "velocity": 81}, {"time": 3370, "pitch": 59, "duration": 5, "velocity": 64}, {"time": 3376, "pitch": 41, "duration": 36, "velocity": 97}, {"time": 3382, "pitch": 48, "duration": 21, "velocity": 56}, {"time": 3388, "pitch": 53, "duration": 6, "velocity": 92}, {"time": 3394, "pitch": 57, "duration": 16, "velocity": 75}, {"time": 3400, "pitch": 65, "duration": 23, "velocity": 127}, {"time": 3406, "pitch": 48, "duration": 5, "velocity": 53}, {"time": 3412, "pitch": 60, "duration": 11, "velocity": 122}, {"time": 3418, "pitch": 57, "duration": 5, "velocity": 83}, {"time": 3424, "pitch": 40, "duration": 39, "velocity": 93}, {"time": 3430, "pitch": 47, "duration": 32, "velocity": 68}, {"time": 3436, "pitch": 52, "duration": 14, "velocity": 95}, {"time": 3442, "pitch": 59, "duration": 14, "velocity": 75}, {"time": 3448, "pitch": 67, "duration": 24, "velocity": 117}, {"time": 3454, "pitch": 52, "duration": 4, "velocity": 78}, {"time": 3460, "pitch": 64, "duration": 12, "velocity": 99}, {"time": 3466, "pitch": 59, "duration": 6, "velocity": 78}, {"time": 3472, "pitch": 45, "duration": 34, "velocity": 93}, {"time": 3478, "pitch": 52, "duration": 20, "velocity": 96}, {"time": 3484, "pitch": 57, "duration": 6, "velocity": 100}, {"time": 3490, "pitch": 60, "duration": 7, "velocity": 85}, {"time": 3496, "pitch": 64, "duration": 12, "velocity": 93}, {"time": 3496, "pitch": 69, "duration": 25, "velocity": 100}, {"time": 3502, "pitch": 52, "duration": 3, "velocity": 79}, {"time": 3508, "pitch": 60, "duration": 11, "velocity": 96}, {"time": 3514, "pitch": 64, "duration": 7, "velocity": 93}, {"time": 3520, "pitch": 43, "duration": 34, "velocity": 95}, {"time": 3526, "pitch": 50, "duration": 20, "velocity": 56}, {"time": 3532, "pitch": 55, "duration": 6, "velocity": 93}, {"time": 3538, "pitch": 59, "duration": 7, "velocity": 83}, {"time": 3544, "pitch": 62, "duration": 12, "velocity": 99}, {"time": 3544, "pitch": 67, "duration": 18, "velocity": 102}, {"time": 3550, "pitch": 50, "duration": 3, "velocity": 86}, {"time": 3556, "pitch": 59, "duration": 10, "velocity": 93}, {"time": 3568, "pitch": 41, "duration": 44, "velocity": 85}, {"time": 3574, "pitch": 48, "duration": 21, "velocity": 65}, {"time": 3577, "pitch": 53, "duration": 6, "velocity": 93}, {"time": 3586, "pitch": 57, "duration": 9, "velocity": 86}, {"time": 3592, "pitch": 65, "duration": 24, "velocity": 102}, {"time": 3598, "pitch": 48, "duration": 17, "velocity": 73}, {"time": 3604, "pitch": 60, "duration": 12, "velocity": 107}, {"time": 3610, "pitch": 57, "duration": 6, "velocity": 96}, {"time": 3616, "pitch": 43, "duration": 38, "velocity": 93}, {"time": 3622, "pitch": 50, "duration": 21, "velocity": 61}, {"time": 3625, "pitch": 55, "duration": 5, "velocity": 100}, {"time": 3634, "pitch": 59, "duration": 9, "velocity": 97}, {"time": 3640, "pitch": 67, "duration": 12, "velocity": 127}, {"time": 3646, "pitch": 50, "duration": 5, "velocity": 107}, {"time": 3652, "pitch": 62, "duration": 3, "velocity": 127}, {"time": 3655, "pitch": 59, "duration": 5, "velocity": 93}, {"time": 3658, "pitch": 62, "duration": 6, "velocity": 107}, {"time": 3664, "pitch": 36, "duration": 37, "velocity": 93}, {"time": 3670, "pitch": 43, "duration": 31, "velocity": 66}, {"time": 3673, "pitch": 48, "duration": 5, "velocity": 85}, {"time": 3676, "pitch": 55, "duration": 14, "velocity": 85}, {"time": 3682, "pitch": 60, "duration": 5, "velocity": 85}, {"time": 3688, "pitch": 64, "duration": 20, "velocity": 112}, {"time": 3694, "pitch": 48, "duration": 3, "velocity": 73}, {"time": 3700, "pitch": 60, "duration": 8, "velocity": 117}, {"time": 3706, "pitch": 55, "duration": 2, "velocity": 90}, {"time": 3712, "pitch": 40, "duration": 39, "velocity": 95}, {"time": 3715, "pitch": 47, "duration": 36, "velocity": 72}, {"time": 3718, "pitch": 52, "duration": 9, "velocity": 82}, {"time": 3721, "pitch": 59, "duration": 4, "velocity": 77}, {"time": 3724, "pitch": 64, "duration": 13, "velocity": 85}, {"time": 3730, "pitch": 52, "duration": 11, "velocity": 63}, {"time": 3736, "pitch": 59, "duration": 2, "velocity": 14}, {"time": 3736, "pitch": 67, "duration": 25, "velocity": 93}, {"time": 3742, "pitch": 52, "duration": 5, "velocity": 61}, {"time": 3748, "pitch": 64, "duration": 13, "velocity": 97}, {"time": 3754, "pitch": 59, "duration": 6, "velocity": 82}, {"time": 3760, "pitch": 45, "duration": 39, "velocity": 75}, {"time": 3763, "pitch": 52, "duration": 11, "velocity": 71}, {"time": 3766, "pitch": 57, "duration": 5, "velocity": 83}, {"time": 3769, "pitch": 60, "duration": 4, "velocity": 89}, {"time": 3772, "pitch": 64, "duration": 11, "velocity": 117}, {"time": 3778, "pitch": 52, "duration": 8, "velocity": 88}, {"time": 3784, "pitch": 69, "duration": 23, "velocity": 117}, {"time": 3790, "pitch": 52, "duration": 6, "velocity": 86}, {"time": 3796, "pitch": 64, "duration": 12, "velocity": 107}, {"time": 3799, "pitch": 52, "duration": 1, "velocity": 50}, {"time": 3802, "pitch": 60, "duration": 5, "velocity": 85}, {"time": 3808, "pitch": 43, "duration": 38, "velocity": 67}, {"time": 3811, "pitch": 50, "duration": 24, "velocity": 77}, {"time": 3814, "pitch": 55, "duration": 8, "velocity": 83}, {"time": 3817, "pitch": 59, "duration": 4, "velocity": 83}, {"time": 3820, "pitch": 62, "duration": 11, "velocity": 102}, {"time": 3826, "pitch": 55, "duration": 4, "velocity": 89}, {"time": 3832, "pitch": 67, "duration": 24, "velocity": 122}, {"time": 3838, "pitch": 50, "duration": 5, "velocity": 48}, {"time": 3844, "pitch": 62, "duration": 6, "velocity": 100}, {"time": 3847, "pitch": 50, "duration": 1, "velocity": 38}, {"time": 3850, "pitch": 59, "duration": 4, "velocity": 97}, {"time": 3853, "pitch": 62, "duration": 3, "velocity": 102}, {"time": 3856, "pitch": 41, "duration": 40, "velocity": 75}, {"time": 3859, "pitch": 48, "duration": 25, "velocity": 81}, {"time": 3862, "pitch": 53, "duration": 9, "velocity": 93}, {"time": 3865, "pitch": 60, "duration": 11, "velocity": 92}, {"time": 3874, "pitch": 53, "duration": 6, "velocity": 79}, {"time": 3880, "pitch": 65, "duration": 10, "velocity": 122}, {"time": 3880, "pitch": 69, "duration": 10, "velocity": 127}, {"time": 3886, "pitch": 48, "duration": 7, "velocity": 90}, {"time": 3892, "pitch": 65, "duration": 11, "velocity": 122}, {"time": 3892, "pitch": 69, "duration": 11, "velocity": 122}, {"time": 3904, "pitch": 40, "duration": 40, "velocity": 82}, {"time": 3907, "pitch": 47, "duration": 33, "velocity": 95}, {"time": 3910, "pitch": 52, "duration": 9, "velocity": 93}, {"time": 3913, "pitch": 55, "duration": 15, "velocity": 82}, {"time": 3916, "pitch": 59, "duration": 10, "velocity": 102}, {"time": 3922, "pitch": 52, "duration": 9, "velocity": 75}, {"time": 3928, "pitch": 55, "duration": 1, "velocity": 72}, {"time": 3928, "pitch": 59, "duration": 9, "velocity": 88}, {"time": 3928, "pitch": 64, "duration": 9, "velocity": 95}, {"time": 3934, "pitch": 52, "duration": 2, "velocity": 82}, {"time": 3940, "pitch": 64, "duration": 12, "velocity": 122}, {"time": 3943, "pitch": 47, "duration": 1, "velocity": 79}, {"time": 3946, "pitch": 59, "duration": 4, "velocity": 100}, {"time": 3949, "pitch": 55, "duration": 3, "velocity": 93}, {"time": 3952, "pitch": 38, "duration": 42, "velocity": 89}, {"time": 3952, "pitch": 45, "duration": 40, "velocity": 76}, {"time": 3958, "pitch": 50, "duration": 8, "velocity": 81}, {"time": 3961, "pitch": 57, "duration": 5, "velocity": 88}, {"time": 3964, "pitch": 65, "duration": 22, "velocity": 112}, {"time": 3967, "pitch": 50, "duration": 3, "velocity": 38}, {"time": 3970, "pitch": 62, "duration": 15, "velocity": 97}, {"time": 3976, "pitch": 57, "duration": 10, "velocity": 102}, {"time": 3982, "pitch": 50, "duration": 6, "velocity": 51}, {"time": 3988, "pitch": 62, "duration": 12, "velocity": 102}, {"time": 3988, "pitch": 65, "duration": 13, "velocity": 102}, {"time": 3991, "pitch": 50, "duration": 6, "velocity": 78}, {"time": 3994, "pitch": 57, "duration": 5, "velocity": 99}, {"time": 4000, "pitch": 43, "duration": 38, "velocity": 90}, {"time": 4006, "pitch": 50, "duration": 22, "velocity": 69}, {"time": 4009, "pitch": 55, "duration": 5, "velocity": 83}, {"time": 4012, "pitch": 59, "duration": 10, "velocity": 112}, {"time": 4018, "pitch": 55, "duration": 3, "velocity": 89}, {"time": 4024, "pitch": 62, "duration": 8, "velocity": 122}, {"time": 4024, "pitch": 67, "duration": 9, "velocity": 117}, {"time": 4036, "pitch": 62, "duration": 10, "velocity": 127}, {"time": 4036, "pitch": 67, "duration": 10, "velocity": 127}, {"time": 4045, "pitch": 36, "duration": 45, "velocity": 86}, {"time": 4051, "pitch": 43, "duration": 42, "velocity": 79}, {"time": 4051, "pitch": 48, "duration": 9, "velocity": 79}, {"time": 4054, "pitch": 55, "duration": 5, "velocity": 78}, {"time": 4057, "pitch": 60, "duration": 11, "velocity": 93}, {"time": 4066, "pitch": 48, "duration": 9, "velocity": 78}, {"time": 4072, "pitch": 64, "duration": 22, "velocity": 107}, {"time": 4078, "pitch": 48, "duration": 7, "velocity": 62}, {"time": 4084, "pitch": 60, "duration": 10, "velocity": 95}, {"time": 4090, "pitch": 55, "duration": 3, "velocity": 76}, {"time": 4096, "pitch": 40, "duration": 41, "velocity": 92}, {"time": 4099, "pitch": 47, "duration": 38, "velocity": 93}, {"time": 4102, "pitch": 52, "duration": 10, "velocity": 85}, {"time": 4108, "pitch": 59, "duration": 24, "velocity": 107}, {"time": 4114, "pitch": 52, "duration": 10, "velocity": 66}, {"time": 4120, "pitch": 64, "duration": 9, "velocity": 77}, {"time": 4120, "pitch": 67, "duration": 9, "velocity": 82}, {"time": 4126, "pitch": 52, "duration": 6, "velocity": 46}, {"time": 4132, "pitch": 64, "duration": 11, "velocity": 112}, {"time": 4135, "pitch": 52, "duration": 4, "velocity": 82}, {"time": 4138, "pitch": 59, "duration": 5, "velocity": 93}, {"time": 4144, "pitch": 45, "duration": 42, "velocity": 73}, {"time": 4144, "pitch": 52, "duration": 25, "velocity": 67}, {"time": 4147, "pitch": 57, "duration": 10, "velocity": 77}, {"time": 4156, "pitch": 60, "duration": 14, "velocity": 82}, {"time": 4162, "pitch": 57, "duration": 6, "velocity": 82}, {"time": 4168, "pitch": 69, "duration": 23, "velocity": 100}, {"time": 4174, "pitch": 52, "duration": 6, "velocity": 72}, {"time": 4180, "pitch": 64, "duration": 6, "velocity": 112}, {"time": 4183, "pitch": 52, "duration": 2, "velocity": 82}, {"time": 4186, "pitch": 60, "duration": 5, "velocity": 97}, {"time": 4189, "pitch": 64, "duration": 4, "velocity": 107}, {"time": 4192, "pitch": 43, "duration": 36, "velocity": 82}, {"time": 4198, "pitch": 50, "duration": 30, "velocity": 81}, {"time": 4204, "pitch": 55, "duration": 14, "velocity": 92}, {"time": 4210, "pitch": 59, "duration": 11, "velocity": 86}, {"time": 4216, "pitch": 67, "duration": 25, "velocity": 107}, {"time": 4222, "pitch": 55, "duration": 4, "velocity": 78}, {"time": 4228, "pitch": 62, "duration": 6, "velocity": 127}, {"time": 4231, "pitch": 43, "duration": 4, "velocity": 66}, {"time": 4234, "pitch": 59, "duration": 5, "velocity": 95}, {"time": 4240, "pitch": 41, "duration": 38, "velocity": 63}, {"time": 4246, "pitch": 48, "duration": 32, "velocity": 41}, {"time": 4249, "pitch": 53, "duration": 6, "velocity": 72}, {"time": 4252, "pitch": 57, "duration": 13, "velocity": 92}, {"time": 4258, "pitch": 53, "duration": 10, "velocity": 65}, {"time": 4264, "pitch": 60, "duration": 10, "velocity": 93}, {"time": 4264, "pitch": 65, "duration": 24, "velocity": 97}, {"time": 4270, "pitch": 53, "duration": 4, "velocity": 52}, {"time": 4276, "pitch": 57, "duration": 8, "velocity": 107}, {"time": 4282, "pitch": 60, "duration": 7, "velocity": 102}, {"time": 4288, "pitch": 40, "duration": 37, "velocity": 90}, {"time": 4294, "pitch": 47, "duration": 30, "velocity": 73}, {"time": 4297, "pitch": 52, "duration": 6, "velocity": 72}, {"time": 4300, "pitch": 55, "duration": 11, "velocity": 97}, {"time": 4306, "pitch": 52, "duration": 8, "velocity": 63}, {"time": 4312, "pitch": 59, "duration": 12, "velocity": 102}, {"time": 4312, "pitch": 64, "duration": 13, "velocity": 107}, {"time": 4318, "pitch": 52, "duration": 3, "velocity": 76}, {"time": 4324, "pitch": 55, "duration": 2, "velocity": 97}, {"time": 4336, "pitch": 38, "duration": 33, "velocity": 62}, {"time": 4336, "pitch": 57, "duration": 16, "velocity": 92}, {"time": 4336, "pitch": 62, "duration": 16, "velocity": 97}, {"time": 4336, "pitch": 65, "duration": 16, "velocity": 93}, {"time": 4339, "pitch": 45, "duration": 26, "velocity": 52}, {"time": 4345, "pitch": 50, "duration": 15, "velocity": 53}, {"time": 4354, "pitch": 57, "duration": 14, "velocity": 72}, {"time": 4354, "pitch": 62, "duration": 14, "velocity": 90}, {"time": 4354, "pitch": 65, "duration": 14, "velocity": 83}, {"time": 4384, "pitch": 43, "duration": 94, "velocity": 56}, {"time": 4384, "pitch": 50, "duration": 93, "velocity": 67}, {"time": 4384, "pitch": 55, "duration": 90, "velocity": 63}, {"time": 4384, "pitch": 62, "duration": 95, "velocity": 60}, {"time": 4384, "pitch": 67, "duration": 95, "velocity": 68}, {"time": 4384, "pitch": 71, "duration": 95, "velocity": 63}, {"time": 4384, "pitch": 74, "duration": 96, "velocity": 71}, {"time": 4480, "pitch": 36, "duration": 45, "velocity": 75}, {"time": 4486, "pitch": 43, "duration": 41, "velocity": 64}, {"time": 4492, "pitch": 48, "duration": 14, "velocity": 83}, {"time": 4498, "pitch": 55, "duration": 37, "velocity": 79}, {"time": 4504, "pitch": 64, "duration": 37, "velocity": 97}, {"time": 4510, "pitch": 48, "duration": 16, "velocity": 63}, {"time": 4516, "pitch": 60, "duration": 20, "velocity": 95}, {"time": 4528, "pitch": 36, "duration": 18, "velocity": 90}, {"time": 4534, "pitch": 48, "duration": 17, "velocity": 92}, {"time": 4540, "pitch": 55, "duration": 15, "velocity": 86}, {"time": 4546, "pitch": 64, "duration": 29, "velocity": 97}, {"time": 4552, "pitch": 47, "duration": 14, "velocity": 100}, {"time": 4564, "pitch": 60, "duration": 12, "velocity": 92}, {"time": 4576, "pitch": 45, "duration": 46, "velocity": 92}, {"time": 4582, "pitch": 52, "duration": 45, "velocity": 72}, {"time": 4588, "pitch": 57, "duration": 16, "velocity": 97}, {"time": 4594, "pitch": 60, "duration": 9, "velocity": 62}, {"time": 4600, "pitch": 69, "duration": 48, "velocity": 97}, {"time": 4606, "pitch": 57, "duration": 18, "velocity": 93}, {"time": 4612, "pitch": 64, "duration": 30, "velocity": 92}, {"time": 4618, "pitch": 60, "duration": 20, "velocity": 79}, {"time": 4624, "pitch": 45, "duration": 38, "velocity": 93}, {"time": 4630, "pitch": 52, "duration": 32, "velocity": 47}, {"time": 4636, "pitch": 57, "duration": 15, "velocity": 107}, {"time": 4642, "pitch": 60, "duration": 7, "velocity": 96}, {"time": 4648, "pitch": 64, "duration": 12, "velocity": 122}, {"time": 4654, "pitch": 57, "duration": 4, "velocity": 107}, {"time": 4660, "pitch": 69, "duration": 13, "velocity": 112}, {"time": 4666, "pitch": 64, "duration": 8, "velocity": 88}, {"time": 4672, "pitch": 41, "duration": 45, "velocity": 83}, {"time": 4678, "pitch": 48, "duration": 42, "velocity": 83}, {"time": 4684, "pitch": 53, "duration": 16, "velocity": 102}, {"time": 4690, "pitch": 57, "duration": 8, "velocity": 88}, {"time": 4696, "pitch": 65, "duration": 19, "velocity": 107}, {"time": 4702, "pitch": 53, "duration": 6, "velocity": 86}, {"time": 4708, "pitch": 60, "duration": 6, "velocity": 112}, {"time": 4714, "pitch": 57, "duration": 5, "velocity": 69}, {"time": 4720, "pitch": 41, "duration": 55, "velocity": 67}, {"time": 4726, "pitch": 48, "duration": 47, "velocity": 62}, {"time": 4732, "pitch": 53, "duration": 20, "velocity": 83}, {"time": 4735, "pitch": 56, "duration": 38, "velocity": 88}, {"time": 4744, "pitch": 60, "duration": 31, "velocity": 83}, {"time": 4750, "pitch": 65, "duration": 21, "velocity": 72}, {"time": 4759, "pitch": 68, "duration": 18, "velocity": 66}, {"time": 4795, "pitch": 36, "duration": 53, "velocity": 89}, {"time": 4795, "pitch": 60, "duration": 53, "velocity": 74}, {"time": 4795, "pitch": 64, "duration": 53, "velocity": 74}, {"time": 4795, "pitch": 67, "duration": 23, "velocity": 75}, {"time": 4804, "pitch": 43, "duration": 44, "velocity": 63}, {"time": 4810, "pitch": 48, "duration": 35, "velocity": 59}, {"time": 4822, "pitch": 67, "duration": 28, "velocity": 59}, {"time": 4831, "pitch": 72, "duration": 18, "velocity": 45}], "annotations": [{"time": 18, "annotation": {"number": 64, "value": 127}, "group": "control_change"}, {"time": 81, "annotation": {"number": 64, "value": 0}, "group": "control_change"}, {"time": 112, "annotation": {"number": 64, "value": 127}, "group": "control_change"}, {"time": 158, "annotation": {"number": 64, "value": 0}, "group": "control_change"}, {"time": 171, "annotation": {"number": 64, "value": 127}, "group": "control_change"}, {"time": 205, "annotation": {"number": 64, "value": 0}, "group": "control_change"}, {"time": 208, "annotation": {"number": 64, "value": 127}, "group": "control_change"}, {"time": 253, "annotation": {"number": 64, "value": 0}, "group": "control_change"}, {"time": 255, "annotation": {"number": 64, "value": 127}, "group": "control_change"}, {"time": 302, "annotation": {"number": 64, "value": 0}, "group": "control_change"}, {"time": 304, "annotation": {"number": 64, "value": 127}, "group": "control_change"}, {"time": 349, "annotation": {"number": 64, "value": 0}, "group": "control_change"}, {"time": 351, "annotation": {"number": 64, "value": 127}, "group": "control_change"}, {"time": 399, "annotation": {"number": 64, "value": 0}, "group": "control_change"}, {"time": 455, "annotation": {"number": 64, "value": 127}, "group": "control_change"}, {"time": 493, "annotation": {"number": 64, "value": 0}, "group": "control_change"}, {"time": 495, "annotation": {"number": 64, "value": 127}, "group": "control_change"}, {"time": 541, "annotation": {"number": 64, "value": 0}, "group": "control_change"}, {"time": 544, "annotation": {"number": 64, "value": 127}, "group": "control_change"}, {"time": 588, "annotation": {"number": 64, "value": 0}, "group": "control_change"}, {"time": 591, "annotation": {"number": 64, "value": 127}, "group": "control_change"}, {"time": 637, "annotation": {"number": 64, "value": 0}, "group": "control_change"}, {"time": 640, "annotation": {"number": 64, "value": 127}, "group": "control_change"}, {"time": 685, "annotation": {"number": 64, "value": 0}, "group": "control_change"}, {"time": 688, "annotation": {"number": 64, "value": 127}, "group": "control_change"}, {"time": 734, "annotation": {"number": 64, "value": 0}, "group": "control_change"}, {"time": 736, "annotation": {"number": 64, "value": 127}, "group": "control_change"}, {"time": 781, "annotation": {"number": 64, "value": 0}, "group": "control_change"}, {"time": 784, "annotation": {"number": 64, "value": 127}, "group": "control_change"}, {"time": 829, "annotation": {"number": 64, "value": 0}, "group": "control_change"}, {"time": 832, "annotation": {"number": 64, "value": 127}, "group": "control_change"}, {"time": 877, "annotation": {"number": 64, "value": 0}, "group": "control_change"}, {"time": 879, "annotation": {"number": 64, "value": 127}, "group": "control_change"}, {"time": 926, "annotation": {"number": 64, "value": 0}, "group": "control_change"}, {"time": 928, "annotation": {"number": 64, "value": 127}, "group": "control_change"}, {"time": 973, "annotation": {"number": 64, "value": 0}, "group": "control_change"}, {"time": 976, "annotation": {"number": 64, "value": 127}, "group": "control_change"}, {"time": 1021, "annotation": {"number": 64, "value": 0}, "group": "control_change"}, {"time": 1024, "annotation": {"number": 64, "value": 127}, "group": "control_change"}, {"time": 1069, "annotation": {"number": 64, "value": 0}, "group": "control_change"}, {"time": 1072, "annotation": {"number": 64, "value": 127}, "group": "control_change"}, {"time": 1117, "annotation": {"number": 64, "value": 0}, "group": "control_change"}, {"time": 1119, "annotation": {"number": 64, "value": 127}, "group": "control_change"}, {"time": 1213, "annotation": {"number": 64, "value": 0}, "group": "control_change"}, {"time": 1216, "annotation": {"number": 64, "value": 127}, "group": "control_change"}, {"time": 1261, "annotation": {"number": 64, "value": 0}, "group": "control_change"}, {"time": 1264, "annotation": {"number": 64, "value": 127}, "group": "control_change"}, {"time": 1309, "annotation": {"number": 64, "value": 0}, "group": "control_change"}, {"time": 1316, "annotation": {"number": 64, "value": 127}, "group": "control_change"}, {"time": 1357, "annotation": {"number": 64, "value": 0}, "group": "control_change"}, {"time": 1359, "annotation": {"number": 64, "value": 127}, "group": "control_change"}, {"time": 1404, "annotation": {"number": 64, "value": 0}, "group": "control_change"}, {"time": 1407, "annotation": {"number": 64, "value": 127}, "group": "control_change"}, {"time": 1450, "annotation": {"number": 64, "value": 0}, "group": "control_change"}, {"time": 1456, "annotation": {"number": 64, "value": 127}, "group": "control_change"}, {"time": 1499, "annotation": {"number": 64, "value": 0}, "group": "control_change"}, {"time": 1505, "annotation": {"number": 64, "value": 127}, "group": "control_change"}, {"time": 1548, "annotation": {"number": 64, "value": 0}, "group": "control_change"}, {"time": 1551, "annotation": {"number": 64, "value": 127}, "group": "control_change"}, {"time": 1596, "annotation": {"number": 64, "value": 0}, "group": "control_change"}, {"time": 1600, "annotation": {"number": 64, "value": 127}, "group": "control_change"}, {"time": 1647, "annotation": {"number": 64, "value": 127}, "group": "control_change"}, {"time": 1669, "annotation": {"number": 64, "value": 0}, "group": "control_change"}, {"time": 1671, "annotation": {"number": 64, "value": 127}, "group": "control_change"}, {"time": 1693, "annotation": {"number": 64, "value": 0}, "group": "control_change"}, {"time": 1696, "annotation": {"number": 64, "value": 127}, "group": "control_change"}, {"time": 1741, "annotation": {"number": 64, "value": 0}, "group": "control_change"}, {"time": 1743, "annotation": {"number": 64, "value": 127}, "group": "control_change"}, {"time": 1788, "annotation": {"number": 64, "value": 0}, "group": "control_change"}, {"time": 1791, "annotation": {"number": 64, "value": 127}, "group": "control_change"}, {"time": 1837, "annotation": {"number": 64, "value": 0}, "group": "control_change"}, {"time": 1840, "annotation": {"number": 64, "value": 127}, "group": "control_change"}, {"time": 1884, "annotation": {"number": 64, "value": 0}, "group": "control_change"}, {"time": 1887, "annotation": {"number": 64, "value": 127}, "group": "control_change"}, {"time": 1933, "annotation": {"number": 64, "value": 0}, "group": "control_change"}, {"time": 1936, "annotation": {"number": 64, "value": 127}, "group": "control_change"}, {"time": 1981, "annotation": {"number": 64, "value": 0}, "group": "control_change"}, {"time": 1983, "annotation": {"number": 64, "value": 127}, "group": "control_change"}, {"time": 2029, "annotation": {"number": 64, "value": 0}, "group": "control_change"}, {"time": 2033, "annotation": {"number": 64, "value": 127}, "group": "control_change"}, {"time": 2043, "annotation": {"number": 64, "value": 0}, "group": "control_change"}, {"time": 2044, "annotation": {"number": 64, "value": 127}, "group": "control_change"}, {"time": 2077, "annotation": {"number": 64, "value": 0}, "group": "control_change"}, {"time": 2079, "annotation": {"number": 64, "value": 127}, "group": "control_change"}, {"time": 2091, "annotation": {"number": 64, "value": 0}, "group": "control_change"}, {"time": 2091, "annotation": {"number": 64, "value": 127}, "group": "control_change"}, {"time": 2124, "annotation": {"number": 64, "value": 0}, "group": "control_change"}, {"time": 2127, "annotation": {"number": 64, "value": 127}, "group": "control_change"}, {"time": 2150, "annotation": {"number": 64, "value": 0}, "group": "control_change"}, {"time": 2151, "annotation": {"number": 64, "value": 127}, "group": "control_change"}, {"time": 2173, "annotation": {"number": 64, "value": 0}, "group": "control_change"}, {"time": 2175, "annotation": {"number": 64, "value": 127}, "group": "control_change"}, {"time": 2221, "annotation": {"number": 64, "value": 0}, "group": "control_change"}, {"time": 2223, "annotation": {"number": 64, "value": 127}, "group": "control_change"}, {"time": 2234, "annotation": {"number": 64, "value": 0}, "group": "control_change"}, {"time": 2235, "annotation": {"number": 64, "value": 127}, "group": "control_change"}, {"time": 2268, "annotation": {"number": 64, "value": 0}, "group": "control_change"}, {"time": 2271, "annotation": {"number": 64, "value": 127}, "group": "control_change"}, {"time": 2317, "annotation": {"number": 64, "value": 0}, "group": "control_change"}, {"time": 2319, "annotation": {"number": 64, "value": 127}, "group": "control_change"}, {"time": 2355, "annotation": {"number": 64, "value": 0}, "group": "control_change"}, {"time": 2355, "annotation": {"number": 64, "value": 127}, "group": "control_change"}, {"time": 2365, "annotation": {"number": 64, "value": 0}, "group": "control_change"}, {"time": 2367, "annotation": {"number": 64, "value": 127}, "group": "control_change"}, {"time": 2369, "annotation": {"number": 64, "value": 127}, "group": "control_change"}, {"time": 2401, "annotation": {"number": 64, "value": 0}, "group": "control_change"}, {"time": 2416, "annotation": {"number": 64, "value": 127}, "group": "control_change"}, {"time": 2510, "annotation": {"number": 64, "value": 0}, "group": "control_change"}, {"time": 2513, "annotation": {"number": 64, "value": 127}, "group": "control_change"}, {"time": 2558, "annotation": {"number": 64, "value": 0}, "group": "control_change"}, {"time": 2560, "annotation": {"number": 64, "value": 127}, "group": "control_change"}, {"time": 2605, "annotation": {"number": 64, "value": 0}, "group": "control_change"}, {"time": 2607, "annotation": {"number": 64, "value": 127}, "group": "control_change"}, {"time": 2654, "annotation": {"number": 64, "value": 0}, "group": "control_change"}, {"time": 2656, "annotation": {"number": 64, "value": 127}, "group": "control_change"}, {"time": 2701, "annotation": {"number": 64, "value": 0}, "group": "control_change"}, {"time": 2702, "annotation": {"number": 64, "value": 127}, "group": "control_change"}, {"time": 2749, "annotation": {"number": 64, "value": 0}, "group": "control_change"}, {"time": 2751, "annotation": {"number": 64, "value": 127}, "group": "control_change"}, {"time": 2797, "annotation": {"number": 64, "value": 0}, "group": "control_change"}, {"time": 2799, "annotation": {"number": 64, "value": 127}, "group": "control_change"}, {"time": 2852, "annotation": {"number": 64, "value": 0}, "group": "control_change"}, {"time": 2896, "annotation": {"number": 64, "value": 127}, "group": "control_change"}, {"time": 2941, "annotation": {"number": 64, "value": 0}, "group": "control_change"}, {"time": 2943, "annotation": {"number": 64, "value": 127}, "group": "control_change"}, {"time": 2990, "annotation": {"number": 64, "value": 0}, "group": "control_change"}, {"time": 2992, "annotation": {"number": 64, "value": 127}, "group": "control_change"}, {"time": 3037, "annotation": {"number": 64, "value": 0}, "group": "control_change"}, {"time": 3040, "annotation": {"number": 64, "value": 127}, "group": "control_change"}, {"time": 3085, "annotation": {"number": 64, "value": 0}, "group": "control_change"}, {"time": 3088, "annotation": {"number": 64, "value": 127}, "group": "control_change"}, {"time": 3133, "annotation": {"number": 64, "value": 0}, "group": "control_change"}, {"time": 3136, "annotation": {"number": 64, "value": 127}, "group": "control_change"}, {"time": 3181, "annotation": {"number": 64, "value": 0}, "group": "control_change"}, {"time": 3183, "annotation": {"number": 64, "value": 127}, "group": "control_change"}, {"time": 3277, "annotation": {"number": 64, "value": 0}, "group": "control_change"}, {"time": 3280, "annotation": {"number": 64, "value": 127}, "group": "control_change"}, {"time": 3325, "annotation": {"number": 64, "value": 0}, "group": "control_change"}, {"time": 3328, "annotation": {"number": 64, "value": 127}, "group": "control_change"}, {"time": 3373, "annotation": {"number": 64, "value": 0}, "group": "control_change"}, {"time": 3380, "annotation": {"number": 64, "value": 127}, "group": "control_change"}, {"time": 3421, "annotation": {"number": 64, "value": 0}, "group": "control_change"}, {"time": 3423, "annotation": {"number": 64, "value": 127}, "group": "control_change"}, {"time": 3468, "annotation": {"number": 64, "value": 0}, "group": "control_change"}, {"time": 3471, "annotation": {"number": 64, "value": 127}, "group": "control_change"}, {"time": 3514, "annotation": {"number": 64, "value": 0}, "group": "control_change"}, {"time": 3520, "annotation": {"number": 64, "value": 127}, "group": "control_change"}, {"time": 3563, "annotation": {"number": 64, "value": 0}, "group": "control_change"}, {"time": 3569, "annotation": {"number": 64, "value": 127}, "group": "control_change"}, {"time": 3612, "annotation": {"number": 64, "value": 0}, "group": "control_change"}, {"time": 3615, "annotation": {"number": 64, "value": 127}, "group": "control_change"}, {"time": 3660, "annotation": {"number": 64, "value": 0}, "group": "control_change"}, {"time": 3664, "annotation": {"number": 64, "value": 127}, "group": "control_change"}, {"time": 3711, "annotation": {"number": 64, "value": 127}, "group": "control_change"}, {"time": 3733, "annotation": {"number": 64, "value": 0}, "group": "control_change"}, {"time": 3735, "annotation": {"number": 64, "value": 127}, "group": "control_change"}, {"time": 3757, "annotation": {"number": 64, "value": 0}, "group": "control_change"}, {"time": 3760, "annotation": {"number": 64, "value": 127}, "group": "control_change"}, {"time": 3805, "annotation": {"number": 64, "value": 0}, "group": "control_change"}, {"time": 3807, "annotation": {"number": 64, "value": 127}, "group": "control_change"}, {"time": 3852, "annotation": {"number": 64, "value": 0}, "group": "control_change"}, {"time": 3855, "annotation": {"number": 64, "value": 127}, "group": "control_change"}, {"time": 3901, "annotation": {"number": 64, "value": 0}, "group": "control_change"}, {"time": 3904, "annotation": {"number": 64, "value": 127}, "group": "control_change"}, {"time": 3948, "annotation": {"number": 64, "value": 0}, "group": "control_change"}, {"time": 3951, "annotation": {"number": 64, "value": 127}, "group": "control_change"}, {"time": 3997, "annotation": {"number": 64, "value": 0}, "group": "control_change"}, {"time": 4000, "annotation": {"number": 64, "value": 127}, "group": "control_change"}, {"time": 4045, "annotation": {"number": 64, "value": 0}, "group": "control_change"}, {"time": 4047, "annotation": {"number": 64, "value": 127}, "group": "control_change"}, {"time": 4093, "annotation": {"number": 64, "value": 0}, "group": "control_change"}, {"time": 4097, "annotation": {"number": 64, "value": 127}, "group": "control_change"}, {"time": 4107, "annotation": {"number": 64, "value": 0}, "group": "control_change"}, {"time": 4108, "annotation": {"number": 64, "value": 127}, "group": "control_change"}, {"time": 4141, "annotation": {"number": 64, "value": 0}, "group": "control_change"}, {"time": 4143, "annotation": {"number": 64, "value": 127}, "group": "control_change"}, {"time": 4155, "annotation": {"number": 64, "value": 0}, "group": "control_change"}, {"time": 4155, "annotation": {"number": 64, "value": 127}, "group": "control_change"}, {"time": 4188, "annotation": {"number": 64, "value": 0}, "group": "control_change"}, {"time": 4191, "annotation": {"number": 64, "value": 127}, "group": "control_change"}, {"time": 4214, "annotation": {"number": 64, "value": 0}, "group": "control_change"}, {"time": 4215, "annotation": {"number": 64, "value": 127}, "group": "control_change"}, {"time": 4237, "annotation": {"number": 64, "value": 0}, "group": "control_change"}, {"time": 4239, "annotation": {"number": 64, "value": 127}, "group": "control_change"}, {"time": 4285, "annotation": {"number": 64, "value": 0}, "group": "control_change"}, {"time": 4287, "annotation": {"number": 64, "value": 127}, "group": "control_change"}, {"time": 4298, "annotation": {"number": 64, "value": 0}, "group": "control_change"}, {"time": 4299, "annotation": {"number": 64, "value": 127}, "group": "control_change"}, {"time": 4332, "annotation": {"number": 64, "value": 0}, "group": "control_change"}, {"time": 4335, "annotation": {"number": 64, "value": 127}, "group": "control_change"}, {"time": 4381, "annotation": {"number": 64, "value": 0}, "group": "control_change"}, {"time": 4383, "annotation": {"number": 64, "value": 127}, "group": "control_change"}, {"time": 4396, "annotation": {"number": 64, "value": 127}, "group": "control_change"}, {"time": 4457, "annotation": {"number": 64, "value": 0}, "group": "control_change"}, {"time": 4482, "annotation": {"number": 64, "value": 127}, "group": "control_change"}, {"time": 4673, "annotation": {"number": 64, "value": 0}, "group": "control_change"}, {"time": 4674, "annotation": {"number": 64, "value": 127}, "group": "control_change"}, {"time": 4720, "annotation": {"number": 64, "value": 127}, "group": "control_change"}, {"time": 4768, "annotation": {"number": 64, "value": 0}, "group": "control_change"}, {"time": 4771, "annotation": {"number": 64, "value": 127}, "group": "control_change"}, {"time": 4785, "annotation": {"number": 64, "value": 0}, "group": "control_change"}, {"time": 4904, "annotation": {"number": 64, "value": 0}, "group": "control_change"}, {"time": 4905, "annotation": {"number": 64, "value": 127}, "group": "control_change"}, {"time": 4907, "annotation": {"number": 64, "value": 0}, "group": "control_change"}, {"time": 4908, "annotation": {"number": 64, "value": 127}, "group": "control_change"}, {"time": 4911, "annotation": {"number": 64, "value": 0}, "group": "control_change"}]}]}