{"metadata": {"schema_version": "0.2", "title": "None", "source_filename": "369.mid", "source_format": "midi"}, "resolution": 12, "tempos": [{"time": 0, "qpm": 110.9999056500802}, {"time": 192, "qpm": 116.00008506672904}, {"time": 852, "qpm": 116.99988885010559}, {"time": 1632, "qpm": 118.99992463338107}, {"time": 1824, "qpm": 116.99988885010559}, {"time": 2076, "qpm": 117.50006854170665}, {"time": 2616, "qpm": 118.99992463338107}, {"time": 2928, "qpm": 120.99994353335968}, {"time": 3048, "qpm": 116.99988885010559}, {"time": 3168, "qpm": 120.99994353335968}, {"time": 3312, "qpm": 116.00008506672904}], "key_signatures": [{"time": 0, "root": 0, "mode": "major"}], "time_signatures": [{"time": 0, "numerator": 4, "denominator": 4}], "tracks": [{"program": 0, "is_drum": false, "name": "MELODY", "notes": [{"time": 207, "pitch": 62, "duration": 9, "velocity": 100}, {"time": 216, "pitch": 64, "duration": 9, "velocity": 100}, {"time": 223, "pitch": 66, "duration": 11, "velocity": 100}, {"time": 235, "pitch": 66, "duration": 6, "velocity": 100}, {"time": 241, "pitch": 64, "duration": 6, "velocity": 100}, {"time": 247, "pitch": 62, "duration": 12, "velocity": 100}, {"time": 260, "pitch": 66, "duration": 24, "velocity": 100}, {"time": 284, "pitch": 66, "duration": 9, "velocity": 100}, {"time": 290, "pitch": 59, "duration": 6, "velocity": 100}, {"time": 298, "pitch": 62, "duration": 13, "velocity": 100}, {"time": 311, "pitch": 62, "duration": 12, "velocity": 100}, {"time": 324, "pitch": 62, "duration": 6, "velocity": 100}, {"time": 330, "pitch": 61, "duration": 6, "velocity": 100}, {"time": 336, "pitch": 59, "duration": 24, "velocity": 100}, {"time": 360, "pitch": 59, "duration": 6, "velocity": 100}, {"time": 366, "pitch": 62, "duration": 6, "velocity": 100}, {"time": 372, "pitch": 61, "duration": 12, "velocity": 100}, {"time": 384, "pitch": 61, "duration": 6, "velocity": 100}, {"time": 390, "pitch": 59, "duration": 6, "velocity": 100}, {"time": 396, "pitch": 57, "duration": 12, "velocity": 100}, {"time": 408, "pitch": 61, "duration": 24, "velocity": 100}, {"time": 432, "pitch": 61, "duration": 6, "velocity": 100}, {"time": 438, "pitch": 57, "duration": 7, "velocity": 100}, {"time": 444, "pitch": 59, "duration": 12, "velocity": 100}, {"time": 456, "pitch": 59, "duration": 6, "velocity": 100}, {"time": 462, "pitch": 62, "duration": 6, "velocity": 100}, {"time": 468, "pitch": 61, "duration": 13, "velocity": 100}, {"time": 480, "pitch": 59, "duration": 24, "velocity": 100}, {"time": 504, "pitch": 62, "duration": 6, "velocity": 100}, {"time": 510, "pitch": 64, "duration": 6, "velocity": 100}, {"time": 516, "pitch": 66, "duration": 12, "velocity": 100}, {"time": 528, "pitch": 66, "duration": 6, "velocity": 100}, {"time": 534, "pitch": 69, "duration": 6, "velocity": 100}, {"time": 540, "pitch": 69, "duration": 6, "velocity": 100}, {"time": 546, "pitch": 64, "duration": 6, "velocity": 100}, {"time": 552, "pitch": 66, "duration": 16, "velocity": 100}, {"time": 564, "pitch": 64, "duration": 12, "velocity": 100}, {"time": 576, "pitch": 61, "duration": 6, "velocity": 100}, {"time": 582, "pitch": 62, "duration": 6, "velocity": 100}, {"time": 588, "pitch": 64, "duration": 12, "velocity": 100}, {"time": 600, "pitch": 64, "duration": 6, "velocity": 100}, {"time": 606, "pitch": 66, "duration": 8, "velocity": 100}, {"time": 612, "pitch": 64, "duration": 6, "velocity": 100}, {"time": 618, "pitch": 62, "duration": 6, "velocity": 100}, {"time": 624, "pitch": 61, "duration": 7, "velocity": 100}, {"time": 630, "pitch": 62, "duration": 7, "velocity": 100}, {"time": 636, "pitch": 59, "duration": 12, "velocity": 100}, {"time": 648, "pitch": 59, "duration": 6, "velocity": 100}, {"time": 654, "pitch": 61, "duration": 6, "velocity": 100}, {"time": 660, "pitch": 62, "duration": 12, "velocity": 100}, {"time": 672, "pitch": 62, "duration": 6, "velocity": 100}, {"time": 678, "pitch": 61, "duration": 7, "velocity": 100}, {"time": 684, "pitch": 59, "duration": 12, "velocity": 100}, {"time": 696, "pitch": 61, "duration": 24, "velocity": 100}, {"time": 720, "pitch": 61, "duration": 5, "velocity": 100}, {"time": 726, "pitch": 57, "duration": 3, "velocity": 100}, {"time": 732, "pitch": 59, "duration": 13, "velocity": 100}, {"time": 744, "pitch": 59, "duration": 1, "velocity": 100}, {"time": 750, "pitch": 62, "duration": 7, "velocity": 100}, {"time": 756, "pitch": 61, "duration": 7, "velocity": 100}, {"time": 762, "pitch": 62, "duration": 6, "velocity": 100}, {"time": 768, "pitch": 59, "duration": 24, "velocity": 100}, {"time": 792, "pitch": 62, "duration": 6, "velocity": 100}, {"time": 798, "pitch": 64, "duration": 6, "velocity": 100}, {"time": 804, "pitch": 66, "duration": 24, "velocity": 100}, {"time": 828, "pitch": 67, "duration": 6, "velocity": 100}, {"time": 834, "pitch": 66, "duration": 6, "velocity": 100}, {"time": 840, "pitch": 64, "duration": 24, "velocity": 100}, {"time": 864, "pitch": 61, "duration": 6, "velocity": 100}, {"time": 870, "pitch": 62, "duration": 6, "velocity": 100}, {"time": 876, "pitch": 64, "duration": 24, "velocity": 100}, {"time": 900, "pitch": 64, "duration": 6, "velocity": 100}, {"time": 906, "pitch": 66, "duration": 6, "velocity": 100}, {"time": 912, "pitch": 62, "duration": 24, "velocity": 100}, {"time": 936, "pitch": 59, "duration": 6, "velocity": 100}, {"time": 942, "pitch": 61, "duration": 6, "velocity": 100}, {"time": 948, "pitch": 62, "duration": 12, "velocity": 100}, {"time": 960, "pitch": 62, "duration": 6, "velocity": 100}, {"time": 966, "pitch": 61, "duration": 6, "velocity": 100}, {"time": 972, "pitch": 59, "duration": 6, "velocity": 100}, {"time": 978, "pitch": 62, "duration": 6, "velocity": 100}, {"time": 984, "pitch": 61, "duration": 17, "velocity": 100}, {"time": 996, "pitch": 61, "duration": 5, "velocity": 100}, {"time": 1008, "pitch": 57, "duration": 12, "velocity": 100}, {"time": 1020, "pitch": 66, "duration": 60, "velocity": 100}, {"time": 1080, "pitch": 62, "duration": 6, "velocity": 100}, {"time": 1086, "pitch": 64, "duration": 6, "velocity": 100}, {"time": 1092, "pitch": 66, "duration": 24, "velocity": 100}, {"time": 1116, "pitch": 66, "duration": 6, "velocity": 100}, {"time": 1122, "pitch": 69, "duration": 6, "velocity": 100}, {"time": 1128, "pitch": 64, "duration": 24, "velocity": 100}, {"time": 1152, "pitch": 61, "duration": 6, "velocity": 100}, {"time": 1158, "pitch": 62, "duration": 6, "velocity": 100}, {"time": 1164, "pitch": 64, "duration": 24, "velocity": 100}, {"time": 1188, "pitch": 64, "duration": 6, "velocity": 100}, {"time": 1194, "pitch": 66, "duration": 6, "velocity": 100}, {"time": 1200, "pitch": 62, "duration": 24, "velocity": 100}, {"time": 1224, "pitch": 59, "duration": 6, "velocity": 100}, {"time": 1230, "pitch": 61, "duration": 6, "velocity": 100}, {"time": 1236, "pitch": 62, "duration": 12, "velocity": 100}, {"time": 1248, "pitch": 62, "duration": 5, "velocity": 100}, {"time": 1254, "pitch": 61, "duration": 6, "velocity": 100}, {"time": 1260, "pitch": 59, "duration": 6, "velocity": 100}, {"time": 1266, "pitch": 62, "duration": 7, "velocity": 100}, {"time": 1272, "pitch": 61, "duration": 18, "velocity": 100}, {"time": 1284, "pitch": 61, "duration": 6, "velocity": 100}, {"time": 1296, "pitch": 57, "duration": 12, "velocity": 100}, {"time": 1308, "pitch": 59, "duration": 60, "velocity": 100}, {"time": 1368, "pitch": 62, "duration": 6, "velocity": 100}, {"time": 1374, "pitch": 64, "duration": 6, "velocity": 100}, {"time": 1380, "pitch": 66, "duration": 12, "velocity": 100}, {"time": 1392, "pitch": 66, "duration": 6, "velocity": 100}, {"time": 1398, "pitch": 64, "duration": 6, "velocity": 100}, {"time": 1404, "pitch": 62, "duration": 12, "velocity": 100}, {"time": 1416, "pitch": 66, "duration": 24, "velocity": 100}, {"time": 1440, "pitch": 64, "duration": 6, "velocity": 100}, {"time": 1446, "pitch": 59, "duration": 6, "velocity": 100}, {"time": 1452, "pitch": 62, "duration": 12, "velocity": 100}, {"time": 1464, "pitch": 62, "duration": 6, "velocity": 100}, {"time": 1470, "pitch": 64, "duration": 6, "velocity": 100}, {"time": 1476, "pitch": 61, "duration": 12, "velocity": 100}, {"time": 1488, "pitch": 59, "duration": 24, "velocity": 100}, {"time": 1512, "pitch": 59, "duration": 6, "velocity": 100}, {"time": 1518, "pitch": 62, "duration": 6, "velocity": 100}, {"time": 1524, "pitch": 61, "duration": 12, "velocity": 100}, {"time": 1536, "pitch": 61, "duration": 6, "velocity": 100}, {"time": 1542, "pitch": 59, "duration": 6, "velocity": 100}, {"time": 1548, "pitch": 57, "duration": 12, "velocity": 100}, {"time": 1560, "pitch": 61, "duration": 24, "velocity": 100}, {"time": 1584, "pitch": 61, "duration": 6, "velocity": 100}, {"time": 1590, "pitch": 57, "duration": 6, "velocity": 100}, {"time": 1596, "pitch": 59, "duration": 12, "velocity": 100}, {"time": 1608, "pitch": 59, "duration": 6, "velocity": 100}, {"time": 1614, "pitch": 62, "duration": 6, "velocity": 100}, {"time": 1620, "pitch": 61, "duration": 7, "velocity": 100}, {"time": 1626, "pitch": 62, "duration": 7, "velocity": 100}, {"time": 1632, "pitch": 59, "duration": 24, "velocity": 100}, {"time": 1656, "pitch": 62, "duration": 6, "velocity": 100}, {"time": 1662, "pitch": 64, "duration": 6, "velocity": 100}, {"time": 1668, "pitch": 66, "duration": 12, "velocity": 100}, {"time": 1680, "pitch": 66, "duration": 6, "velocity": 100}, {"time": 1686, "pitch": 69, "duration": 6, "velocity": 100}, {"time": 1692, "pitch": 69, "duration": 6, "velocity": 100}, {"time": 1698, "pitch": 64, "duration": 6, "velocity": 100}, {"time": 1704, "pitch": 66, "duration": 12, "velocity": 100}, {"time": 1716, "pitch": 64, "duration": 12, "velocity": 100}, {"time": 1728, "pitch": 61, "duration": 6, "velocity": 100}, {"time": 1734, "pitch": 62, "duration": 6, "velocity": 100}, {"time": 1740, "pitch": 64, "duration": 12, "velocity": 100}, {"time": 1752, "pitch": 64, "duration": 6, "velocity": 100}, {"time": 1758, "pitch": 66, "duration": 6, "velocity": 100}, {"time": 1764, "pitch": 64, "duration": 6, "velocity": 100}, {"time": 1770, "pitch": 62, "duration": 6, "velocity": 100}, {"time": 1776, "pitch": 61, "duration": 6, "velocity": 100}, {"time": 1782, "pitch": 62, "duration": 6, "velocity": 100}, {"time": 1788, "pitch": 59, "duration": 12, "velocity": 100}, {"time": 1800, "pitch": 59, "duration": 1, "velocity": 100}, {"time": 1806, "pitch": 61, "duration": 6, "velocity": 100}, {"time": 1812, "pitch": 62, "duration": 12, "velocity": 100}, {"time": 1824, "pitch": 62, "duration": 6, "velocity": 100}, {"time": 1830, "pitch": 61, "duration": 6, "velocity": 100}, {"time": 1836, "pitch": 59, "duration": 12, "velocity": 100}, {"time": 1848, "pitch": 61, "duration": 24, "velocity": 100}, {"time": 1872, "pitch": 61, "duration": 6, "velocity": 100}, {"time": 1878, "pitch": 57, "duration": 6, "velocity": 100}, {"time": 1884, "pitch": 59, "duration": 12, "velocity": 100}, {"time": 1896, "pitch": 59, "duration": 6, "velocity": 100}, {"time": 1902, "pitch": 62, "duration": 7, "velocity": 100}, {"time": 1908, "pitch": 61, "duration": 6, "velocity": 100}, {"time": 1914, "pitch": 62, "duration": 6, "velocity": 100}, {"time": 1920, "pitch": 59, "duration": 24, "velocity": 100}, {"time": 1944, "pitch": 62, "duration": 6, "velocity": 100}, {"time": 1950, "pitch": 64, "duration": 6, "velocity": 100}, {"time": 1956, "pitch": 66, "duration": 24, "velocity": 100}, {"time": 1980, "pitch": 67, "duration": 6, "velocity": 100}, {"time": 1986, "pitch": 66, "duration": 6, "velocity": 100}, {"time": 1992, "pitch": 64, "duration": 24, "velocity": 100}, {"time": 2016, "pitch": 61, "duration": 6, "velocity": 100}, {"time": 2022, "pitch": 62, "duration": 6, "velocity": 100}, {"time": 2028, "pitch": 64, "duration": 24, "velocity": 100}, {"time": 2052, "pitch": 64, "duration": 6, "velocity": 100}, {"time": 2058, "pitch": 66, "duration": 6, "velocity": 100}, {"time": 2064, "pitch": 62, "duration": 17, "velocity": 100}, {"time": 2082, "pitch": 59, "duration": 6, "velocity": 100}, {"time": 2088, "pitch": 61, "duration": 6, "velocity": 100}, {"time": 2094, "pitch": 62, "duration": 18, "velocity": 100}, {"time": 2112, "pitch": 62, "duration": 6, "velocity": 100}, {"time": 2118, "pitch": 61, "duration": 7, "velocity": 100}, {"time": 2124, "pitch": 59, "duration": 6, "velocity": 100}, {"time": 2130, "pitch": 62, "duration": 6, "velocity": 100}, {"time": 2136, "pitch": 61, "duration": 17, "velocity": 100}, {"time": 2148, "pitch": 61, "duration": 5, "velocity": 100}, {"time": 2160, "pitch": 57, "duration": 12, "velocity": 100}, {"time": 2172, "pitch": 66, "duration": 60, "velocity": 100}, {"time": 2232, "pitch": 62, "duration": 6, "velocity": 100}, {"time": 2238, "pitch": 64, "duration": 6, "velocity": 100}, {"time": 2244, "pitch": 66, "duration": 24, "velocity": 100}, {"time": 2268, "pitch": 66, "duration": 6, "velocity": 100}, {"time": 2274, "pitch": 69, "duration": 6, "velocity": 100}, {"time": 2280, "pitch": 64, "duration": 24, "velocity": 100}, {"time": 2304, "pitch": 61, "duration": 6, "velocity": 100}, {"time": 2310, "pitch": 62, "duration": 6, "velocity": 100}, {"time": 2316, "pitch": 64, "duration": 24, "velocity": 100}, {"time": 2340, "pitch": 64, "duration": 6, "velocity": 100}, {"time": 2346, "pitch": 66, "duration": 6, "velocity": 100}, {"time": 2352, "pitch": 62, "duration": 24, "velocity": 100}, {"time": 2376, "pitch": 59, "duration": 6, "velocity": 100}, {"time": 2382, "pitch": 61, "duration": 6, "velocity": 100}, {"time": 2388, "pitch": 62, "duration": 12, "velocity": 100}, {"time": 2400, "pitch": 62, "duration": 5, "velocity": 100}, {"time": 2406, "pitch": 61, "duration": 9, "velocity": 100}, {"time": 2412, "pitch": 59, "duration": 6, "velocity": 100}, {"time": 2418, "pitch": 62, "duration": 9, "velocity": 100}, {"time": 2424, "pitch": 61, "duration": 18, "velocity": 100}, {"time": 2436, "pitch": 61, "duration": 6, "velocity": 100}, {"time": 2448, "pitch": 57, "duration": 12, "velocity": 100}, {"time": 2460, "pitch": 59, "duration": 72, "velocity": 100}, {"time": 2532, "pitch": 59, "duration": 6, "velocity": 100}, {"time": 2538, "pitch": 61, "duration": 6, "velocity": 100}, {"time": 2544, "pitch": 62, "duration": 6, "velocity": 100}, {"time": 2550, "pitch": 59, "duration": 6, "velocity": 100}, {"time": 2556, "pitch": 59, "duration": 6, "velocity": 100}, {"time": 2562, "pitch": 62, "duration": 6, "velocity": 100}, {"time": 2568, "pitch": 66, "duration": 15, "velocity": 100}, {"time": 2580, "pitch": 66, "duration": 3, "velocity": 100}, {"time": 2592, "pitch": 67, "duration": 12, "velocity": 100}, {"time": 2604, "pitch": 64, "duration": 14, "velocity": 100}, {"time": 2616, "pitch": 64, "duration": 2, "velocity": 100}, {"time": 2634, "pitch": 66, "duration": 6, "velocity": 100}, {"time": 2640, "pitch": 62, "duration": 9, "velocity": 100}, {"time": 2649, "pitch": 62, "duration": 9, "velocity": 100}, {"time": 2658, "pitch": 61, "duration": 6, "velocity": 100}, {"time": 2664, "pitch": 59, "duration": 12, "velocity": 100}, {"time": 2676, "pitch": 59, "duration": 6, "velocity": 100}, {"time": 2682, "pitch": 61, "duration": 6, "velocity": 100}, {"time": 2688, "pitch": 62, "duration": 6, "velocity": 100}, {"time": 2694, "pitch": 59, "duration": 6, "velocity": 100}, {"time": 2700, "pitch": 59, "duration": 6, "velocity": 100}, {"time": 2706, "pitch": 62, "duration": 6, "velocity": 100}, {"time": 2712, "pitch": 59, "duration": 12, "velocity": 100}, {"time": 2724, "pitch": 66, "duration": 6, "velocity": 100}, {"time": 2730, "pitch": 64, "duration": 6, "velocity": 100}, {"time": 2736, "pitch": 64, "duration": 12, "velocity": 100}, {"time": 2748, "pitch": 66, "duration": 60, "velocity": 100}, {"time": 2808, "pitch": 62, "duration": 6, "velocity": 100}, {"time": 2814, "pitch": 64, "duration": 6, "velocity": 100}, {"time": 2820, "pitch": 66, "duration": 24, "velocity": 100}, {"time": 2844, "pitch": 66, "duration": 12, "velocity": 100}, {"time": 2856, "pitch": 67, "duration": 12, "velocity": 100}, {"time": 2868, "pitch": 64, "duration": 12, "velocity": 100}, {"time": 2880, "pitch": 57, "duration": 12, "velocity": 100}, {"time": 2892, "pitch": 64, "duration": 24, "velocity": 100}, {"time": 2916, "pitch": 64, "duration": 1, "velocity": 100}, {"time": 2922, "pitch": 59, "duration": 6, "velocity": 100}, {"time": 2928, "pitch": 59, "duration": 1, "velocity": 100}, {"time": 2940, "pitch": 59, "duration": 6, "velocity": 100}, {"time": 2946, "pitch": 62, "duration": 6, "velocity": 100}, {"time": 2952, "pitch": 59, "duration": 6, "velocity": 100}, {"time": 2958, "pitch": 61, "duration": 6, "velocity": 100}, {"time": 2964, "pitch": 62, "duration": 12, "velocity": 100}, {"time": 2976, "pitch": 62, "duration": 6, "velocity": 100}, {"time": 2982, "pitch": 64, "duration": 6, "velocity": 100}, {"time": 2988, "pitch": 64, "duration": 6, "velocity": 100}, {"time": 2994, "pitch": 62, "duration": 6, "velocity": 100}, {"time": 3000, "pitch": 61, "duration": 12, "velocity": 100}, {"time": 3012, "pitch": 61, "duration": 6, "velocity": 100}, {"time": 3018, "pitch": 62, "duration": 6, "velocity": 100}, {"time": 3024, "pitch": 64, "duration": 6, "velocity": 100}, {"time": 3030, "pitch": 57, "duration": 6, "velocity": 100}, {"time": 3036, "pitch": 62, "duration": 24, "velocity": 100}, {"time": 3060, "pitch": 62, "duration": 6, "velocity": 100}, {"time": 3066, "pitch": 64, "duration": 6, "velocity": 100}, {"time": 3072, "pitch": 66, "duration": 24, "velocity": 100}, {"time": 3096, "pitch": 62, "duration": 6, "velocity": 100}, {"time": 3102, "pitch": 64, "duration": 6, "velocity": 100}, {"time": 3108, "pitch": 66, "duration": 24, "velocity": 100}, {"time": 3132, "pitch": 66, "duration": 12, "velocity": 100}, {"time": 3144, "pitch": 67, "duration": 12, "velocity": 100}, {"time": 3156, "pitch": 64, "duration": 12, "velocity": 100}, {"time": 3168, "pitch": 57, "duration": 12, "velocity": 100}, {"time": 3180, "pitch": 64, "duration": 24, "velocity": 100}, {"time": 3204, "pitch": 64, "duration": 6, "velocity": 100}, {"time": 3210, "pitch": 59, "duration": 6, "velocity": 100}, {"time": 3216, "pitch": 59, "duration": 12, "velocity": 100}, {"time": 3228, "pitch": 59, "duration": 5, "velocity": 100}, {"time": 3234, "pitch": 61, "duration": 6, "velocity": 100}, {"time": 3240, "pitch": 59, "duration": 5, "velocity": 100}, {"time": 3246, "pitch": 61, "duration": 5, "velocity": 100}, {"time": 3252, "pitch": 62, "duration": 12, "velocity": 100}, {"time": 3264, "pitch": 62, "duration": 1, "velocity": 100}, {"time": 3270, "pitch": 64, "duration": 6, "velocity": 100}, {"time": 3276, "pitch": 64, "duration": 6, "velocity": 100}, {"time": 3282, "pitch": 62, "duration": 6, "velocity": 100}, {"time": 3288, "pitch": 61, "duration": 15, "velocity": 100}, {"time": 3300, "pitch": 61, "duration": 3, "velocity": 100}, {"time": 3306, "pitch": 62, "duration": 6, "velocity": 100}, {"time": 3312, "pitch": 64, "duration": 6, "velocity": 100}, {"time": 3318, "pitch": 57, "duration": 6, "velocity": 100}, {"time": 3324, "pitch": 62, "duration": 24, "velocity": 100}, {"time": 3348, "pitch": 61, "duration": 6, "velocity": 100}, {"time": 3354, "pitch": 62, "duration": 6, "velocity": 100}, {"time": 3360, "pitch": 59, "duration": 24, "velocity": 100}, {"time": 3384, "pitch": 59, "duration": 6, "velocity": 100}, {"time": 3390, "pitch": 61, "duration": 6, "velocity": 100}, {"time": 3396, "pitch": 62, "duration": 16, "velocity": 100}, {"time": 3408, "pitch": 62, "duration": 4, "velocity": 100}, {"time": 3414, "pitch": 64, "duration": 6, "velocity": 100}, {"time": 3420, "pitch": 64, "duration": 6, "velocity": 100}, {"time": 3426, "pitch": 62, "duration": 6, "velocity": 100}, {"time": 3432, "pitch": 61, "duration": 15, "velocity": 100}, {"time": 3444, "pitch": 61, "duration": 3, "velocity": 100}, {"time": 3450, "pitch": 62, "duration": 6, "velocity": 100}, {"time": 3456, "pitch": 64, "duration": 6, "velocity": 100}, {"time": 3462, "pitch": 57, "duration": 7, "velocity": 100}, {"time": 3468, "pitch": 62, "duration": 60, "velocity": 100}, {"time": 3528, "pitch": 61, "duration": 7, "velocity": 100}, {"time": 3534, "pitch": 62, "duration": 6, "velocity": 100}, {"time": 3540, "pitch": 59, "duration": 96, "velocity": 100}]}, {"program": 0, "is_drum": false, "name": "PIANO", "notes": [{"time": 24, "pitch": 50, "duration": 34, "velocity": 99}, {"time": 60, "pitch": 52, "duration": 32, "velocity": 88}, {"time": 94, "pitch": 42, "duration": 29, "velocity": 99}, {"time": 102, "pitch": 54, "duration": 22, "velocity": 72}, {"time": 130, "pitch": 47, "duration": 36, "velocity": 72}, {"time": 136, "pitch": 54, "duration": 32, "velocity": 89}, {"time": 166, "pitch": 47, "duration": 42, "velocity": 83}, {"time": 166, "pitch": 54, "duration": 2, "velocity": 65}, {"time": 222, "pitch": 50, "duration": 34, "velocity": 100}, {"time": 260, "pitch": 50, "duration": 35, "velocity": 93}, {"time": 298, "pitch": 47, "duration": 36, "velocity": 71}, {"time": 304, "pitch": 54, "duration": 33, "velocity": 96}, {"time": 336, "pitch": 47, "duration": 27, "velocity": 61}, {"time": 342, "pitch": 54, "duration": 20, "velocity": 85}, {"time": 372, "pitch": 42, "duration": 33, "velocity": 81}, {"time": 378, "pitch": 54, "duration": 32, "velocity": 86}, {"time": 408, "pitch": 42, "duration": 26, "velocity": 63}, {"time": 414, "pitch": 54, "duration": 20, "velocity": 90}, {"time": 444, "pitch": 47, "duration": 34, "velocity": 77}, {"time": 450, "pitch": 54, "duration": 31, "velocity": 92}, {"time": 480, "pitch": 47, "duration": 32, "velocity": 86}, {"time": 486, "pitch": 54, "duration": 26, "velocity": 93}, {"time": 516, "pitch": 50, "duration": 28, "velocity": 92}, {"time": 552, "pitch": 50, "duration": 33, "velocity": 90}, {"time": 588, "pitch": 50, "duration": 26, "velocity": 96}, {"time": 624, "pitch": 47, "duration": 24, "velocity": 77}, {"time": 630, "pitch": 54, "duration": 18, "velocity": 96}, {"time": 660, "pitch": 42, "duration": 34, "velocity": 90}, {"time": 666, "pitch": 49, "duration": 30, "velocity": 47}, {"time": 678, "pitch": 54, "duration": 20, "velocity": 63}, {"time": 696, "pitch": 42, "duration": 24, "velocity": 86}, {"time": 702, "pitch": 49, "duration": 18, "velocity": 58}, {"time": 708, "pitch": 54, "duration": 14, "velocity": 97}, {"time": 732, "pitch": 47, "duration": 34, "velocity": 79}, {"time": 738, "pitch": 54, "duration": 31, "velocity": 83}, {"time": 768, "pitch": 47, "duration": 35, "velocity": 92}, {"time": 774, "pitch": 54, "duration": 29, "velocity": 95}, {"time": 804, "pitch": 50, "duration": 37, "velocity": 97}, {"time": 840, "pitch": 45, "duration": 31, "velocity": 75}, {"time": 846, "pitch": 52, "duration": 18, "velocity": 93}, {"time": 876, "pitch": 45, "duration": 26, "velocity": 90}, {"time": 882, "pitch": 52, "duration": 22, "velocity": 90}, {"time": 912, "pitch": 47, "duration": 33, "velocity": 90}, {"time": 918, "pitch": 54, "duration": 31, "velocity": 93}, {"time": 948, "pitch": 47, "duration": 27, "velocity": 77}, {"time": 954, "pitch": 54, "duration": 20, "velocity": 100}, {"time": 984, "pitch": 45, "duration": 35, "velocity": 92}, {"time": 990, "pitch": 52, "duration": 23, "velocity": 96}, {"time": 1020, "pitch": 50, "duration": 33, "velocity": 97}, {"time": 1056, "pitch": 50, "duration": 32, "velocity": 95}, {"time": 1092, "pitch": 50, "duration": 36, "velocity": 107}, {"time": 1128, "pitch": 45, "duration": 34, "velocity": 82}, {"time": 1134, "pitch": 52, "duration": 9, "velocity": 89}, {"time": 1146, "pitch": 52, "duration": 18, "velocity": 82}, {"time": 1164, "pitch": 45, "duration": 28, "velocity": 88}, {"time": 1170, "pitch": 52, "duration": 9, "velocity": 90}, {"time": 1182, "pitch": 52, "duration": 17, "velocity": 86}, {"time": 1200, "pitch": 47, "duration": 34, "velocity": 66}, {"time": 1206, "pitch": 54, "duration": 10, "velocity": 97}, {"time": 1218, "pitch": 54, "duration": 18, "velocity": 89}, {"time": 1236, "pitch": 47, "duration": 32, "velocity": 76}, {"time": 1242, "pitch": 54, "duration": 9, "velocity": 89}, {"time": 1254, "pitch": 54, "duration": 15, "velocity": 86}, {"time": 1272, "pitch": 49, "duration": 34, "velocity": 99}, {"time": 1308, "pitch": 47, "duration": 34, "velocity": 69}, {"time": 1314, "pitch": 54, "duration": 10, "velocity": 93}, {"time": 1326, "pitch": 54, "duration": 18, "velocity": 92}, {"time": 1344, "pitch": 54, "duration": 35, "velocity": 92}, {"time": 1344, "pitch": 47, "duration": 34, "velocity": 69}, {"time": 1380, "pitch": 50, "duration": 34, "velocity": 100}, {"time": 1416, "pitch": 50, "duration": 35, "velocity": 93}, {"time": 1452, "pitch": 47, "duration": 34, "velocity": 71}, {"time": 1458, "pitch": 54, "duration": 31, "velocity": 96}, {"time": 1488, "pitch": 47, "duration": 27, "velocity": 61}, {"time": 1494, "pitch": 54, "duration": 20, "velocity": 85}, {"time": 1524, "pitch": 42, "duration": 33, "velocity": 81}, {"time": 1530, "pitch": 54, "duration": 32, "velocity": 86}, {"time": 1560, "pitch": 42, "duration": 26, "velocity": 63}, {"time": 1566, "pitch": 54, "duration": 20, "velocity": 90}, {"time": 1596, "pitch": 47, "duration": 34, "velocity": 77}, {"time": 1602, "pitch": 54, "duration": 31, "velocity": 92}, {"time": 1632, "pitch": 47, "duration": 32, "velocity": 86}, {"time": 1638, "pitch": 54, "duration": 26, "velocity": 93}, {"time": 1668, "pitch": 50, "duration": 28, "velocity": 92}, {"time": 1704, "pitch": 50, "duration": 33, "velocity": 90}, {"time": 1740, "pitch": 50, "duration": 26, "velocity": 96}, {"time": 1776, "pitch": 47, "duration": 24, "velocity": 77}, {"time": 1782, "pitch": 54, "duration": 18, "velocity": 96}, {"time": 1812, "pitch": 42, "duration": 34, "velocity": 90}, {"time": 1818, "pitch": 49, "duration": 30, "velocity": 47}, {"time": 1830, "pitch": 54, "duration": 20, "velocity": 63}, {"time": 1848, "pitch": 42, "duration": 24, "velocity": 86}, {"time": 1854, "pitch": 49, "duration": 18, "velocity": 58}, {"time": 1860, "pitch": 54, "duration": 14, "velocity": 97}, {"time": 1884, "pitch": 47, "duration": 34, "velocity": 79}, {"time": 1890, "pitch": 54, "duration": 31, "velocity": 83}, {"time": 1920, "pitch": 47, "duration": 35, "velocity": 92}, {"time": 1926, "pitch": 54, "duration": 29, "velocity": 95}, {"time": 1956, "pitch": 50, "duration": 37, "velocity": 97}, {"time": 1992, "pitch": 45, "duration": 31, "velocity": 75}, {"time": 1998, "pitch": 52, "duration": 18, "velocity": 93}, {"time": 2028, "pitch": 45, "duration": 26, "velocity": 90}, {"time": 2034, "pitch": 52, "duration": 22, "velocity": 90}, {"time": 2064, "pitch": 47, "duration": 33, "velocity": 90}, {"time": 2094, "pitch": 47, "duration": 3, "velocity": 77}, {"time": 2101, "pitch": 54, "duration": 25, "velocity": 100}, {"time": 2136, "pitch": 45, "duration": 35, "velocity": 92}, {"time": 2142, "pitch": 52, "duration": 23, "velocity": 96}, {"time": 2172, "pitch": 50, "duration": 33, "velocity": 97}, {"time": 2208, "pitch": 50, "duration": 32, "velocity": 95}, {"time": 2244, "pitch": 50, "duration": 36, "velocity": 107}, {"time": 2280, "pitch": 45, "duration": 34, "velocity": 82}, {"time": 2286, "pitch": 52, "duration": 9, "velocity": 89}, {"time": 2298, "pitch": 52, "duration": 18, "velocity": 82}, {"time": 2316, "pitch": 45, "duration": 28, "velocity": 88}, {"time": 2322, "pitch": 52, "duration": 9, "velocity": 90}, {"time": 2334, "pitch": 52, "duration": 16, "velocity": 86}, {"time": 2352, "pitch": 47, "duration": 34, "velocity": 66}, {"time": 2358, "pitch": 54, "duration": 10, "velocity": 97}, {"time": 2370, "pitch": 54, "duration": 18, "velocity": 89}, {"time": 2388, "pitch": 47, "duration": 32, "velocity": 76}, {"time": 2394, "pitch": 54, "duration": 9, "velocity": 89}, {"time": 2406, "pitch": 54, "duration": 15, "velocity": 86}, {"time": 2424, "pitch": 49, "duration": 34, "velocity": 99}, {"time": 2460, "pitch": 47, "duration": 34, "velocity": 69}, {"time": 2466, "pitch": 54, "duration": 10, "velocity": 93}, {"time": 2478, "pitch": 54, "duration": 18, "velocity": 92}, {"time": 2496, "pitch": 47, "duration": 34, "velocity": 69}, {"time": 2496, "pitch": 54, "duration": 35, "velocity": 92}, {"time": 2532, "pitch": 47, "duration": 34, "velocity": 92}, {"time": 2538, "pitch": 54, "duration": 10, "velocity": 83}, {"time": 2550, "pitch": 54, "duration": 14, "velocity": 88}, {"time": 2568, "pitch": 50, "duration": 21, "velocity": 69}, {"time": 2604, "pitch": 40, "duration": 31, "velocity": 82}, {"time": 2610, "pitch": 47, "duration": 25, "velocity": 65}, {"time": 2622, "pitch": 52, "duration": 14, "velocity": 69}, {"time": 2640, "pitch": 47, "duration": 34, "velocity": 73}, {"time": 2646, "pitch": 54, "duration": 10, "velocity": 78}, {"time": 2658, "pitch": 54, "duration": 18, "velocity": 75}, {"time": 2676, "pitch": 47, "duration": 33, "velocity": 79}, {"time": 2682, "pitch": 54, "duration": 10, "velocity": 88}, {"time": 2694, "pitch": 54, "duration": 18, "velocity": 89}, {"time": 2712, "pitch": 47, "duration": 32, "velocity": 72}, {"time": 2718, "pitch": 54, "duration": 9, "velocity": 96}, {"time": 2730, "pitch": 54, "duration": 4, "velocity": 88}, {"time": 2748, "pitch": 50, "duration": 33, "velocity": 99}, {"time": 2784, "pitch": 50, "duration": 32, "velocity": 90}, {"time": 2820, "pitch": 50, "duration": 33, "velocity": 107}, {"time": 2856, "pitch": 50, "duration": 15, "velocity": 90}, {"time": 2892, "pitch": 40, "duration": 26, "velocity": 96}, {"time": 2898, "pitch": 47, "duration": 20, "velocity": 86}, {"time": 2910, "pitch": 52, "duration": 14, "velocity": 69}, {"time": 2928, "pitch": 47, "duration": 28, "velocity": 64}, {"time": 2934, "pitch": 54, "duration": 10, "velocity": 88}, {"time": 2946, "pitch": 54, "duration": 9, "velocity": 89}, {"time": 2961, "pitch": 47, "duration": 30, "velocity": 83}, {"time": 2970, "pitch": 54, "duration": 10, "velocity": 96}, {"time": 2982, "pitch": 54, "duration": 7, "velocity": 95}, {"time": 2997, "pitch": 42, "duration": 26, "velocity": 83}, {"time": 3006, "pitch": 54, "duration": 9, "velocity": 55}, {"time": 3018, "pitch": 54, "duration": 6, "velocity": 88}, {"time": 3036, "pitch": 50, "duration": 33, "velocity": 88}, {"time": 3072, "pitch": 50, "duration": 21, "velocity": 88}, {"time": 3108, "pitch": 50, "duration": 34, "velocity": 97}, {"time": 3144, "pitch": 50, "duration": 21, "velocity": 88}, {"time": 3180, "pitch": 47, "duration": 33, "velocity": 89}, {"time": 3216, "pitch": 47, "duration": 33, "velocity": 90}, {"time": 3252, "pitch": 47, "duration": 32, "velocity": 95}, {"time": 3288, "pitch": 49, "duration": 27, "velocity": 107}, {"time": 3321, "pitch": 47, "duration": 34, "velocity": 85}, {"time": 3330, "pitch": 54, "duration": 10, "velocity": 82}, {"time": 3342, "pitch": 54, "duration": 16, "velocity": 88}, {"time": 3360, "pitch": 47, "duration": 33, "velocity": 89}, {"time": 3366, "pitch": 54, "duration": 30, "velocity": 90}, {"time": 3396, "pitch": 47, "duration": 22, "velocity": 86}, {"time": 3402, "pitch": 54, "duration": 15, "velocity": 95}, {"time": 3429, "pitch": 42, "duration": 27, "velocity": 82}, {"time": 3468, "pitch": 47, "duration": 34, "velocity": 78}, {"time": 3474, "pitch": 54, "duration": 11, "velocity": 86}, {"time": 3486, "pitch": 54, "duration": 18, "velocity": 77}, {"time": 3504, "pitch": 47, "duration": 34, "velocity": 85}, {"time": 3510, "pitch": 54, "duration": 31, "velocity": 96}, {"time": 3540, "pitch": 47, "duration": 33, "velocity": 95}, {"time": 3546, "pitch": 54, "duration": 30, "velocity": 92}, {"time": 3579, "pitch": 47, "duration": 39, "velocity": 63}, {"time": 3579, "pitch": 54, "duration": 39, "velocity": 88}], "annotations": [{"time": 30, "annotation": {"number": 64, "value": 127}, "group": "control_change"}, {"time": 57, "annotation": {"number": 64, "value": 0}, "group": "control_change"}, {"time": 59, "annotation": {"number": 64, "value": 127}, "group": "control_change"}, {"time": 94, "annotation": {"number": 64, "value": 0}, "group": "control_change"}, {"time": 97, "annotation": {"number": 64, "value": 127}, "group": "control_change"}, {"time": 128, "annotation": {"number": 64, "value": 0}, "group": "control_change"}, {"time": 134, "annotation": {"number": 64, "value": 127}, "group": "control_change"}, {"time": 165, "annotation": {"number": 64, "value": 0}, "group": "control_change"}, {"time": 167, "annotation": {"number": 64, "value": 127}, "group": "control_change"}, {"time": 223, "annotation": {"number": 64, "value": 0}, "group": "control_change"}, {"time": 228, "annotation": {"number": 64, "value": 127}, "group": "control_change"}, {"time": 260, "annotation": {"number": 64, "value": 0}, "group": "control_change"}, {"time": 266, "annotation": {"number": 64, "value": 127}, "group": "control_change"}, {"time": 294, "annotation": {"number": 64, "value": 0}, "group": "control_change"}, {"time": 301, "annotation": {"number": 64, "value": 127}, "group": "control_change"}, {"time": 331, "annotation": {"number": 64, "value": 0}, "group": "control_change"}, {"time": 338, "annotation": {"number": 64, "value": 127}, "group": "control_change"}, {"time": 370, "annotation": {"number": 64, "value": 0}, "group": "control_change"}, {"time": 375, "annotation": {"number": 64, "value": 127}, "group": "control_change"}, {"time": 404, "annotation": {"number": 64, "value": 0}, "group": "control_change"}, {"time": 411, "annotation": {"number": 64, "value": 127}, "group": "control_change"}, {"time": 440, "annotation": {"number": 64, "value": 0}, "group": "control_change"}, {"time": 446, "annotation": {"number": 64, "value": 127}, "group": "control_change"}, {"time": 477, "annotation": {"number": 64, "value": 0}, "group": "control_change"}, {"time": 484, "annotation": {"number": 64, "value": 127}, "group": "control_change"}, {"time": 513, "annotation": {"number": 64, "value": 0}, "group": "control_change"}, {"time": 522, "annotation": {"number": 64, "value": 127}, "group": "control_change"}, {"time": 549, "annotation": {"number": 64, "value": 0}, "group": "control_change"}, {"time": 556, "annotation": {"number": 64, "value": 127}, "group": "control_change"}, {"time": 585, "annotation": {"number": 64, "value": 0}, "group": "control_change"}, {"time": 589, "annotation": {"number": 64, "value": 127}, "group": "control_change"}, {"time": 620, "annotation": {"number": 64, "value": 0}, "group": "control_change"}, {"time": 624, "annotation": {"number": 64, "value": 127}, "group": "control_change"}, {"time": 658, "annotation": {"number": 64, "value": 0}, "group": "control_change"}, {"time": 661, "annotation": {"number": 64, "value": 127}, "group": "control_change"}, {"time": 694, "annotation": {"number": 64, "value": 0}, "group": "control_change"}, {"time": 697, "annotation": {"number": 64, "value": 127}, "group": "control_change"}, {"time": 729, "annotation": {"number": 64, "value": 0}, "group": "control_change"}, {"time": 732, "annotation": {"number": 64, "value": 127}, "group": "control_change"}, {"time": 769, "annotation": {"number": 64, "value": 127}, "group": "control_change"}, {"time": 771, "annotation": {"number": 64, "value": 0}, "group": "control_change"}, {"time": 775, "annotation": {"number": 64, "value": 127}, "group": "control_change"}, {"time": 802, "annotation": {"number": 64, "value": 0}, "group": "control_change"}, {"time": 804, "annotation": {"number": 64, "value": 127}, "group": "control_change"}, {"time": 838, "annotation": {"number": 64, "value": 0}, "group": "control_change"}, {"time": 841, "annotation": {"number": 64, "value": 127}, "group": "control_change"}, {"time": 873, "annotation": {"number": 64, "value": 0}, "group": "control_change"}, {"time": 876, "annotation": {"number": 64, "value": 127}, "group": "control_change"}, {"time": 909, "annotation": {"number": 64, "value": 0}, "group": "control_change"}, {"time": 912, "annotation": {"number": 64, "value": 127}, "group": "control_change"}, {"time": 945, "annotation": {"number": 64, "value": 0}, "group": "control_change"}, {"time": 949, "annotation": {"number": 64, "value": 127}, "group": "control_change"}, {"time": 981, "annotation": {"number": 64, "value": 0}, "group": "control_change"}, {"time": 984, "annotation": {"number": 64, "value": 127}, "group": "control_change"}, {"time": 1017, "annotation": {"number": 64, "value": 0}, "group": "control_change"}, {"time": 1021, "annotation": {"number": 64, "value": 127}, "group": "control_change"}, {"time": 1053, "annotation": {"number": 64, "value": 0}, "group": "control_change"}, {"time": 1056, "annotation": {"number": 64, "value": 127}, "group": "control_change"}, {"time": 1088, "annotation": {"number": 64, "value": 0}, "group": "control_change"}, {"time": 1093, "annotation": {"number": 64, "value": 127}, "group": "control_change"}, {"time": 1096, "annotation": {"number": 64, "value": 0}, "group": "control_change"}, {"time": 1098, "annotation": {"number": 64, "value": 127}, "group": "control_change"}, {"time": 1124, "annotation": {"number": 64, "value": 0}, "group": "control_change"}, {"time": 1127, "annotation": {"number": 64, "value": 127}, "group": "control_change"}, {"time": 1129, "annotation": {"number": 64, "value": 127}, "group": "control_change"}, {"time": 1159, "annotation": {"number": 64, "value": 0}, "group": "control_change"}, {"time": 1166, "annotation": {"number": 64, "value": 127}, "group": "control_change"}, {"time": 1196, "annotation": {"number": 64, "value": 0}, "group": "control_change"}, {"time": 1200, "annotation": {"number": 64, "value": 127}, "group": "control_change"}, {"time": 1232, "annotation": {"number": 64, "value": 0}, "group": "control_change"}, {"time": 1235, "annotation": {"number": 64, "value": 127}, "group": "control_change"}, {"time": 1267, "annotation": {"number": 64, "value": 0}, "group": "control_change"}, {"time": 1271, "annotation": {"number": 64, "value": 127}, "group": "control_change"}, {"time": 1304, "annotation": {"number": 64, "value": 0}, "group": "control_change"}, {"time": 1307, "annotation": {"number": 64, "value": 127}, "group": "control_change"}, {"time": 1340, "annotation": {"number": 64, "value": 0}, "group": "control_change"}, {"time": 1344, "annotation": {"number": 64, "value": 127}, "group": "control_change"}, {"time": 1347, "annotation": {"number": 64, "value": 127}, "group": "control_change"}, {"time": 1376, "annotation": {"number": 64, "value": 0}, "group": "control_change"}, {"time": 1412, "annotation": {"number": 64, "value": 0}, "group": "control_change"}, {"time": 1418, "annotation": {"number": 64, "value": 127}, "group": "control_change"}, {"time": 1446, "annotation": {"number": 64, "value": 0}, "group": "control_change"}, {"time": 1453, "annotation": {"number": 64, "value": 127}, "group": "control_change"}, {"time": 1483, "annotation": {"number": 64, "value": 0}, "group": "control_change"}, {"time": 1490, "annotation": {"number": 64, "value": 127}, "group": "control_change"}, {"time": 1522, "annotation": {"number": 64, "value": 0}, "group": "control_change"}, {"time": 1527, "annotation": {"number": 64, "value": 127}, "group": "control_change"}, {"time": 1556, "annotation": {"number": 64, "value": 0}, "group": "control_change"}, {"time": 1563, "annotation": {"number": 64, "value": 127}, "group": "control_change"}, {"time": 1592, "annotation": {"number": 64, "value": 0}, "group": "control_change"}, {"time": 1598, "annotation": {"number": 64, "value": 127}, "group": "control_change"}, {"time": 1629, "annotation": {"number": 64, "value": 0}, "group": "control_change"}, {"time": 1636, "annotation": {"number": 64, "value": 127}, "group": "control_change"}, {"time": 1665, "annotation": {"number": 64, "value": 0}, "group": "control_change"}, {"time": 1674, "annotation": {"number": 64, "value": 127}, "group": "control_change"}, {"time": 1701, "annotation": {"number": 64, "value": 0}, "group": "control_change"}, {"time": 1708, "annotation": {"number": 64, "value": 127}, "group": "control_change"}, {"time": 1737, "annotation": {"number": 64, "value": 0}, "group": "control_change"}, {"time": 1741, "annotation": {"number": 64, "value": 127}, "group": "control_change"}, {"time": 1772, "annotation": {"number": 64, "value": 0}, "group": "control_change"}, {"time": 1776, "annotation": {"number": 64, "value": 127}, "group": "control_change"}, {"time": 1810, "annotation": {"number": 64, "value": 0}, "group": "control_change"}, {"time": 1813, "annotation": {"number": 64, "value": 127}, "group": "control_change"}, {"time": 1846, "annotation": {"number": 64, "value": 0}, "group": "control_change"}, {"time": 1849, "annotation": {"number": 64, "value": 127}, "group": "control_change"}, {"time": 1881, "annotation": {"number": 64, "value": 0}, "group": "control_change"}, {"time": 1884, "annotation": {"number": 64, "value": 127}, "group": "control_change"}, {"time": 1921, "annotation": {"number": 64, "value": 127}, "group": "control_change"}, {"time": 1923, "annotation": {"number": 64, "value": 0}, "group": "control_change"}, {"time": 1927, "annotation": {"number": 64, "value": 127}, "group": "control_change"}, {"time": 1954, "annotation": {"number": 64, "value": 0}, "group": "control_change"}, {"time": 1956, "annotation": {"number": 64, "value": 127}, "group": "control_change"}, {"time": 1990, "annotation": {"number": 64, "value": 0}, "group": "control_change"}, {"time": 1993, "annotation": {"number": 64, "value": 127}, "group": "control_change"}, {"time": 2025, "annotation": {"number": 64, "value": 0}, "group": "control_change"}, {"time": 2028, "annotation": {"number": 64, "value": 127}, "group": "control_change"}, {"time": 2061, "annotation": {"number": 64, "value": 0}, "group": "control_change"}, {"time": 2064, "annotation": {"number": 64, "value": 127}, "group": "control_change"}, {"time": 2097, "annotation": {"number": 64, "value": 0}, "group": "control_change"}, {"time": 2101, "annotation": {"number": 64, "value": 127}, "group": "control_change"}, {"time": 2133, "annotation": {"number": 64, "value": 0}, "group": "control_change"}, {"time": 2136, "annotation": {"number": 64, "value": 127}, "group": "control_change"}, {"time": 2169, "annotation": {"number": 64, "value": 0}, "group": "control_change"}, {"time": 2173, "annotation": {"number": 64, "value": 127}, "group": "control_change"}, {"time": 2205, "annotation": {"number": 64, "value": 0}, "group": "control_change"}, {"time": 2208, "annotation": {"number": 64, "value": 127}, "group": "control_change"}, {"time": 2240, "annotation": {"number": 64, "value": 0}, "group": "control_change"}, {"time": 2245, "annotation": {"number": 64, "value": 127}, "group": "control_change"}, {"time": 2248, "annotation": {"number": 64, "value": 0}, "group": "control_change"}, {"time": 2250, "annotation": {"number": 64, "value": 127}, "group": "control_change"}, {"time": 2276, "annotation": {"number": 64, "value": 0}, "group": "control_change"}, {"time": 2279, "annotation": {"number": 64, "value": 127}, "group": "control_change"}, {"time": 2281, "annotation": {"number": 64, "value": 127}, "group": "control_change"}, {"time": 2311, "annotation": {"number": 64, "value": 0}, "group": "control_change"}, {"time": 2318, "annotation": {"number": 64, "value": 127}, "group": "control_change"}, {"time": 2348, "annotation": {"number": 64, "value": 0}, "group": "control_change"}, {"time": 2352, "annotation": {"number": 64, "value": 127}, "group": "control_change"}, {"time": 2384, "annotation": {"number": 64, "value": 0}, "group": "control_change"}, {"time": 2387, "annotation": {"number": 64, "value": 127}, "group": "control_change"}, {"time": 2419, "annotation": {"number": 64, "value": 0}, "group": "control_change"}, {"time": 2423, "annotation": {"number": 64, "value": 127}, "group": "control_change"}, {"time": 2456, "annotation": {"number": 64, "value": 0}, "group": "control_change"}, {"time": 2459, "annotation": {"number": 64, "value": 127}, "group": "control_change"}, {"time": 2492, "annotation": {"number": 64, "value": 0}, "group": "control_change"}, {"time": 2496, "annotation": {"number": 64, "value": 127}, "group": "control_change"}, {"time": 2499, "annotation": {"number": 64, "value": 127}, "group": "control_change"}, {"time": 2528, "annotation": {"number": 64, "value": 0}, "group": "control_change"}, {"time": 2534, "annotation": {"number": 64, "value": 127}, "group": "control_change"}, {"time": 2563, "annotation": {"number": 64, "value": 0}, "group": "control_change"}, {"time": 2568, "annotation": {"number": 64, "value": 127}, "group": "control_change"}, {"time": 2599, "annotation": {"number": 64, "value": 0}, "group": "control_change"}, {"time": 2605, "annotation": {"number": 64, "value": 127}, "group": "control_change"}, {"time": 2636, "annotation": {"number": 64, "value": 0}, "group": "control_change"}, {"time": 2641, "annotation": {"number": 64, "value": 127}, "group": "control_change"}, {"time": 2669, "annotation": {"number": 64, "value": 0}, "group": "control_change"}, {"time": 2678, "annotation": {"number": 64, "value": 127}, "group": "control_change"}, {"time": 2705, "annotation": {"number": 64, "value": 0}, "group": "control_change"}, {"time": 2713, "annotation": {"number": 64, "value": 127}, "group": "control_change"}, {"time": 2744, "annotation": {"number": 64, "value": 0}, "group": "control_change"}, {"time": 2750, "annotation": {"number": 64, "value": 127}, "group": "control_change"}, {"time": 2777, "annotation": {"number": 64, "value": 0}, "group": "control_change"}, {"time": 2785, "annotation": {"number": 64, "value": 127}, "group": "control_change"}, {"time": 2813, "annotation": {"number": 64, "value": 0}, "group": "control_change"}, {"time": 2822, "annotation": {"number": 64, "value": 127}, "group": "control_change"}, {"time": 2849, "annotation": {"number": 64, "value": 0}, "group": "control_change"}, {"time": 2858, "annotation": {"number": 64, "value": 127}, "group": "control_change"}, {"time": 2886, "annotation": {"number": 64, "value": 0}, "group": "control_change"}, {"time": 2894, "annotation": {"number": 64, "value": 127}, "group": "control_change"}, {"time": 2924, "annotation": {"number": 64, "value": 0}, "group": "control_change"}, {"time": 2929, "annotation": {"number": 64, "value": 127}, "group": "control_change"}, {"time": 2960, "annotation": {"number": 64, "value": 0}, "group": "control_change"}, {"time": 2964, "annotation": {"number": 64, "value": 127}, "group": "control_change"}, {"time": 2996, "annotation": {"number": 64, "value": 0}, "group": "control_change"}, {"time": 3002, "annotation": {"number": 64, "value": 127}, "group": "control_change"}, {"time": 3032, "annotation": {"number": 64, "value": 0}, "group": "control_change"}, {"time": 3038, "annotation": {"number": 64, "value": 127}, "group": "control_change"}, {"time": 3067, "annotation": {"number": 64, "value": 0}, "group": "control_change"}, {"time": 3074, "annotation": {"number": 64, "value": 127}, "group": "control_change"}, {"time": 3102, "annotation": {"number": 64, "value": 0}, "group": "control_change"}, {"time": 3110, "annotation": {"number": 64, "value": 127}, "group": "control_change"}, {"time": 3137, "annotation": {"number": 64, "value": 0}, "group": "control_change"}, {"time": 3156, "annotation": {"number": 64, "value": 127}, "group": "control_change"}, {"time": 3174, "annotation": {"number": 64, "value": 0}, "group": "control_change"}, {"time": 3181, "annotation": {"number": 64, "value": 127}, "group": "control_change"}, {"time": 3210, "annotation": {"number": 64, "value": 0}, "group": "control_change"}, {"time": 3217, "annotation": {"number": 64, "value": 127}, "group": "control_change"}, {"time": 3244, "annotation": {"number": 64, "value": 0}, "group": "control_change"}, {"time": 3253, "annotation": {"number": 64, "value": 127}, "group": "control_change"}, {"time": 3282, "annotation": {"number": 64, "value": 0}, "group": "control_change"}, {"time": 3290, "annotation": {"number": 64, "value": 127}, "group": "control_change"}, {"time": 3318, "annotation": {"number": 64, "value": 0}, "group": "control_change"}, {"time": 3324, "annotation": {"number": 64, "value": 127}, "group": "control_change"}, {"time": 3357, "annotation": {"number": 64, "value": 0}, "group": "control_change"}, {"time": 3364, "annotation": {"number": 64, "value": 127}, "group": "control_change"}, {"time": 3390, "annotation": {"number": 64, "value": 0}, "group": "control_change"}, {"time": 3398, "annotation": {"number": 64, "value": 127}, "group": "control_change"}, {"time": 3427, "annotation": {"number": 64, "value": 0}, "group": "control_change"}, {"time": 3433, "annotation": {"number": 64, "value": 127}, "group": "control_change"}, {"time": 3462, "annotation": {"number": 64, "value": 0}, "group": "control_change"}, {"time": 3469, "annotation": {"number": 64, "value": 127}, "group": "control_change"}, {"time": 3500, "annotation": {"number": 64, "value": 0}, "group": "control_change"}, {"time": 3505, "annotation": {"number": 64, "value": 127}, "group": "control_change"}, {"time": 3535, "annotation": {"number": 64, "value": 0}, "group": "control_change"}, {"time": 3541, "annotation": {"number": 64, "value": 127}, "group": "control_change"}, {"time": 3571, "annotation": {"number": 64, "value": 0}, "group": "control_change"}, {"time": 3581, "annotation": {"number": 64, "value": 127}, "group": "control_change"}]}]}