{"metadata": {"schema_version": "0.2", "title": "None", "source_filename": "370.mid", "source_format": "midi"}, "resolution": 12, "tempos": [{"time": 0, "qpm": 58.00004253336452}], "time_signatures": [{"time": 0, "numerator": 1, "denominator": 4}], "tracks": [{"program": 0, "is_drum": false, "name": "MELODY", "notes": [{"time": 59, "pitch": 71, "duration": 2, "velocity": 112}, {"time": 62, "pitch": 73, "duration": 2, "velocity": 127}, {"time": 65, "pitch": 75, "duration": 2, "velocity": 127}, {"time": 68, "pitch": 75, "duration": 2, "velocity": 122}, {"time": 71, "pitch": 75, "duration": 2, "velocity": 127}, {"time": 74, "pitch": 75, "duration": 1, "velocity": 127}, {"time": 77, "pitch": 75, "duration": 3, "velocity": 127}, {"time": 83, "pitch": 68, "duration": 3, "velocity": 117}, {"time": 86, "pitch": 78, "duration": 5, "velocity": 117}, {"time": 92, "pitch": 78, "duration": 2, "velocity": 127}, {"time": 95, "pitch": 78, "duration": 3, "velocity": 122}, {"time": 98, "pitch": 80, "duration": 3, "velocity": 112}, {"time": 101, "pitch": 76, "duration": 4, "velocity": 117}, {"time": 107, "pitch": 76, "duration": 3, "velocity": 117}, {"time": 110, "pitch": 78, "duration": 3, "velocity": 99}, {"time": 113, "pitch": 73, "duration": 2, "velocity": 127}, {"time": 116, "pitch": 73, "duration": 1, "velocity": 112}, {"time": 119, "pitch": 73, "duration": 1, "velocity": 102}, {"time": 122, "pitch": 73, "duration": 2, "velocity": 112}, {"time": 125, "pitch": 73, "duration": 3, "velocity": 127}, {"time": 131, "pitch": 66, "duration": 2, "velocity": 117}, {"time": 134, "pitch": 76, "duration": 5, "velocity": 122}, {"time": 140, "pitch": 76, "duration": 2, "velocity": 112}, {"time": 143, "pitch": 76, "duration": 2, "velocity": 107}, {"time": 146, "pitch": 78, "duration": 3, "velocity": 117}, {"time": 149, "pitch": 75, "duration": 6, "velocity": 127}, {"time": 155, "pitch": 73, "duration": 3, "velocity": 127}, {"time": 158, "pitch": 71, "duration": 2, "velocity": 99}, {"time": 359, "pitch": 63, "duration": 5, "velocity": 112}, {"time": 365, "pitch": 71, "duration": 6, "velocity": 107}, {"time": 371, "pitch": 71, "duration": 4, "velocity": 117}, {"time": 374, "pitch": 73, "duration": 3, "velocity": 112}, {"time": 380, "pitch": 70, "duration": 3, "velocity": 127}, {"time": 383, "pitch": 68, "duration": 3, "velocity": 78}, {"time": 386, "pitch": 66, "duration": 10, "velocity": 95}, {"time": 398, "pitch": 59, "duration": 3, "velocity": 96}, {"time": 401, "pitch": 68, "duration": 2, "velocity": 102}, {"time": 404, "pitch": 68, "duration": 2, "velocity": 107}, {"time": 407, "pitch": 68, "duration": 2, "velocity": 107}, {"time": 410, "pitch": 68, "duration": 2, "velocity": 127}, {"time": 413, "pitch": 68, "duration": 2, "velocity": 127}, {"time": 416, "pitch": 68, "duration": 3, "velocity": 117}, {"time": 419, "pitch": 66, "duration": 3, "velocity": 112}, {"time": 422, "pitch": 68, "duration": 3, "velocity": 100}, {"time": 425, "pitch": 66, "duration": 5, "velocity": 97}, {"time": 431, "pitch": 63, "duration": 11, "velocity": 107}, {"time": 455, "pitch": 61, "duration": 2, "velocity": 100}, {"time": 458, "pitch": 61, "duration": 2, "velocity": 97}, {"time": 461, "pitch": 61, "duration": 4, "velocity": 102}, {"time": 467, "pitch": 63, "duration": 4, "velocity": 107}, {"time": 473, "pitch": 66, "duration": 1, "velocity": 112}, {"time": 476, "pitch": 66, "duration": 3, "velocity": 102}, {"time": 479, "pitch": 68, "duration": 3, "velocity": 117}, {"time": 482, "pitch": 66, "duration": 8, "velocity": 112}, {"time": 491, "pitch": 66, "duration": 1, "velocity": 117}, {"time": 494, "pitch": 66, "duration": 1, "velocity": 107}, {"time": 497, "pitch": 68, "duration": 3, "velocity": 127}, {"time": 500, "pitch": 66, "duration": 3, "velocity": 117}, {"time": 503, "pitch": 68, "duration": 2, "velocity": 112}, {"time": 506, "pitch": 68, "duration": 2, "velocity": 127}, {"time": 509, "pitch": 68, "duration": 2, "velocity": 122}, {"time": 512, "pitch": 68, "duration": 2, "velocity": 112}, {"time": 515, "pitch": 71, "duration": 3, "velocity": 96}, {"time": 518, "pitch": 68, "duration": 2, "velocity": 107}, {"time": 521, "pitch": 69, "duration": 18, "velocity": 112}, {"time": 551, "pitch": 63, "duration": 1, "velocity": 97}, {"time": 554, "pitch": 63, "duration": 2, "velocity": 99}, {"time": 557, "pitch": 71, "duration": 4, "velocity": 95}, {"time": 563, "pitch": 71, "duration": 3, "velocity": 100}, {"time": 566, "pitch": 73, "duration": 3, "velocity": 112}, {"time": 569, "pitch": 70, "duration": 2, "velocity": 122}, {"time": 572, "pitch": 70, "duration": 3, "velocity": 117}, {"time": 575, "pitch": 68, "duration": 2, "velocity": 112}, {"time": 578, "pitch": 66, "duration": 8, "velocity": 99}, {"time": 590, "pitch": 59, "duration": 2, "velocity": 95}, {"time": 593, "pitch": 68, "duration": 2, "velocity": 107}, {"time": 596, "pitch": 68, "duration": 2, "velocity": 122}, {"time": 599, "pitch": 68, "duration": 1, "velocity": 117}, {"time": 602, "pitch": 68, "duration": 1, "velocity": 102}, {"time": 605, "pitch": 68, "duration": 1, "velocity": 112}, {"time": 608, "pitch": 68, "duration": 1, "velocity": 122}, {"time": 611, "pitch": 66, "duration": 1, "velocity": 117}, {"time": 614, "pitch": 68, "duration": 1, "velocity": 127}, {"time": 617, "pitch": 66, "duration": 5, "velocity": 122}, {"time": 623, "pitch": 63, "duration": 5, "velocity": 100}, {"time": 647, "pitch": 61, "duration": 1, "velocity": 112}, {"time": 650, "pitch": 61, "duration": 2, "velocity": 100}, {"time": 653, "pitch": 61, "duration": 5, "velocity": 122}, {"time": 659, "pitch": 63, "duration": 3, "velocity": 117}, {"time": 665, "pitch": 66, "duration": 2, "velocity": 127}, {"time": 668, "pitch": 66, "duration": 2, "velocity": 122}, {"time": 671, "pitch": 68, "duration": 2, "velocity": 112}, {"time": 674, "pitch": 66, "duration": 5, "velocity": 127}, {"time": 689, "pitch": 71, "duration": 5, "velocity": 127}, {"time": 695, "pitch": 70, "duration": 4, "velocity": 122}, {"time": 701, "pitch": 68, "duration": 5, "velocity": 127}, {"time": 707, "pitch": 66, "duration": 4, "velocity": 117}, {"time": 710, "pitch": 68, "duration": 18, "velocity": 112}, {"time": 728, "pitch": 68, "duration": 2, "velocity": 117}, {"time": 731, "pitch": 71, "duration": 3, "velocity": 102}, {"time": 734, "pitch": 68, "duration": 2, "velocity": 127}, {"time": 737, "pitch": 73, "duration": 5, "velocity": 122}, {"time": 743, "pitch": 73, "duration": 4, "velocity": 127}, {"time": 749, "pitch": 73, "duration": 4, "velocity": 127}, {"time": 752, "pitch": 75, "duration": 3, "velocity": 122}, {"time": 758, "pitch": 73, "duration": 17, "velocity": 127}, {"time": 776, "pitch": 71, "duration": 3, "velocity": 100}, {"time": 779, "pitch": 75, "duration": 4, "velocity": 127}, {"time": 785, "pitch": 75, "duration": 5, "velocity": 127}, {"time": 791, "pitch": 73, "duration": 5, "velocity": 127}, {"time": 797, "pitch": 71, "duration": 5, "velocity": 112}, {"time": 800, "pitch": 70, "duration": 4, "velocity": 112}, {"time": 803, "pitch": 71, "duration": 3, "velocity": 86}, {"time": 806, "pitch": 70, "duration": 4, "velocity": 100}, {"time": 809, "pitch": 68, "duration": 12, "velocity": 112}, {"time": 824, "pitch": 68, "duration": 3, "velocity": 96}, {"time": 827, "pitch": 71, "duration": 3, "velocity": 100}, {"time": 830, "pitch": 68, "duration": 3, "velocity": 122}, {"time": 833, "pitch": 73, "duration": 4, "velocity": 117}, {"time": 839, "pitch": 73, "duration": 5, "velocity": 127}, {"time": 845, "pitch": 73, "duration": 3, "velocity": 127}, {"time": 848, "pitch": 75, "duration": 4, "velocity": 127}, {"time": 854, "pitch": 73, "duration": 16, "velocity": 127}, {"time": 866, "pitch": 76, "duration": 2, "velocity": 102}, {"time": 869, "pitch": 76, "duration": 3, "velocity": 90}, {"time": 872, "pitch": 78, "duration": 4, "velocity": 127}, {"time": 878, "pitch": 73, "duration": 4, "velocity": 117}, {"time": 884, "pitch": 75, "duration": 24, "velocity": 127}, {"time": 917, "pitch": 71, "duration": 6, "velocity": 122}, {"time": 923, "pitch": 73, "duration": 6, "velocity": 122}, {"time": 929, "pitch": 75, "duration": 2, "velocity": 127}, {"time": 932, "pitch": 75, "duration": 2, "velocity": 102}, {"time": 935, "pitch": 75, "duration": 2, "velocity": 127}, {"time": 938, "pitch": 75, "duration": 2, "velocity": 127}, {"time": 941, "pitch": 75, "duration": 3, "velocity": 127}, {"time": 944, "pitch": 68, "duration": 2, "velocity": 112}, {"time": 947, "pitch": 68, "duration": 2, "velocity": 122}, {"time": 950, "pitch": 78, "duration": 6, "velocity": 127}, {"time": 956, "pitch": 78, "duration": 2, "velocity": 127}, {"time": 959, "pitch": 78, "duration": 3, "velocity": 127}, {"time": 962, "pitch": 80, "duration": 3, "velocity": 112}, {"time": 965, "pitch": 76, "duration": 5, "velocity": 112}, {"time": 971, "pitch": 76, "duration": 3, "velocity": 127}, {"time": 974, "pitch": 78, "duration": 3, "velocity": 107}, {"time": 977, "pitch": 73, "duration": 2, "velocity": 122}, {"time": 980, "pitch": 73, "duration": 2, "velocity": 127}, {"time": 983, "pitch": 73, "duration": 2, "velocity": 122}, {"time": 986, "pitch": 73, "duration": 2, "velocity": 117}, {"time": 989, "pitch": 73, "duration": 2, "velocity": 127}, {"time": 995, "pitch": 66, "duration": 2, "velocity": 112}, {"time": 998, "pitch": 76, "duration": 5, "velocity": 112}, {"time": 1004, "pitch": 76, "duration": 2, "velocity": 97}, {"time": 1007, "pitch": 76, "duration": 3, "velocity": 102}, {"time": 1010, "pitch": 78, "duration": 3, "velocity": 112}, {"time": 1013, "pitch": 75, "duration": 5, "velocity": 122}, {"time": 1025, "pitch": 71, "duration": 2, "velocity": 100}, {"time": 1028, "pitch": 71, "duration": 2, "velocity": 95}, {"time": 1031, "pitch": 71, "duration": 2, "velocity": 97}, {"time": 1034, "pitch": 71, "duration": 2, "velocity": 100}, {"time": 1037, "pitch": 71, "duration": 5, "velocity": 112}, {"time": 1043, "pitch": 75, "duration": 5, "velocity": 127}, {"time": 1049, "pitch": 75, "duration": 3, "velocity": 127}, {"time": 1052, "pitch": 73, "duration": 2, "velocity": 122}, {"time": 1055, "pitch": 73, "duration": 2, "velocity": 122}, {"time": 1058, "pitch": 73, "duration": 7, "velocity": 127}, {"time": 1073, "pitch": 70, "duration": 4, "velocity": 127}, {"time": 1079, "pitch": 71, "duration": 2, "velocity": 99}, {"time": 1082, "pitch": 73, "duration": 4, "velocity": 117}, {"time": 1088, "pitch": 76, "duration": 8, "velocity": 127}, {"time": 1097, "pitch": 75, "duration": 15, "velocity": 127}, {"time": 1115, "pitch": 71, "duration": 2, "velocity": 112}, {"time": 1118, "pitch": 73, "duration": 2, "velocity": 127}, {"time": 1121, "pitch": 75, "duration": 2, "velocity": 127}, {"time": 1124, "pitch": 75, "duration": 2, "velocity": 122}, {"time": 1127, "pitch": 75, "duration": 2, "velocity": 127}, {"time": 1130, "pitch": 75, "duration": 1, "velocity": 127}, {"time": 1133, "pitch": 75, "duration": 3, "velocity": 127}, {"time": 1139, "pitch": 68, "duration": 3, "velocity": 117}, {"time": 1142, "pitch": 78, "duration": 5, "velocity": 117}, {"time": 1148, "pitch": 78, "duration": 2, "velocity": 127}, {"time": 1151, "pitch": 78, "duration": 3, "velocity": 122}, {"time": 1154, "pitch": 80, "duration": 3, "velocity": 112}, {"time": 1157, "pitch": 76, "duration": 4, "velocity": 117}, {"time": 1163, "pitch": 76, "duration": 3, "velocity": 117}, {"time": 1166, "pitch": 78, "duration": 3, "velocity": 99}, {"time": 1169, "pitch": 73, "duration": 2, "velocity": 127}, {"time": 1172, "pitch": 73, "duration": 1, "velocity": 112}, {"time": 1175, "pitch": 73, "duration": 1, "velocity": 102}, {"time": 1178, "pitch": 73, "duration": 2, "velocity": 112}, {"time": 1181, "pitch": 73, "duration": 3, "velocity": 127}, {"time": 1187, "pitch": 66, "duration": 2, "velocity": 117}, {"time": 1190, "pitch": 76, "duration": 5, "velocity": 122}, {"time": 1196, "pitch": 76, "duration": 2, "velocity": 112}, {"time": 1199, "pitch": 76, "duration": 2, "velocity": 107}, {"time": 1202, "pitch": 78, "duration": 3, "velocity": 117}, {"time": 1205, "pitch": 75, "duration": 6, "velocity": 127}, {"time": 1211, "pitch": 73, "duration": 3, "velocity": 127}, {"time": 1214, "pitch": 71, "duration": 2, "velocity": 99}, {"time": 1217, "pitch": 73, "duration": 3, "velocity": 127}, {"time": 1220, "pitch": 71, "duration": 2, "velocity": 96}, {"time": 1223, "pitch": 71, "duration": 2, "velocity": 99}, {"time": 1226, "pitch": 71, "duration": 5, "velocity": 112}, {"time": 1232, "pitch": 75, "duration": 5, "velocity": 117}, {"time": 1238, "pitch": 75, "duration": 4, "velocity": 127}, {"time": 1241, "pitch": 76, "duration": 3, "velocity": 83}, {"time": 1244, "pitch": 75, "duration": 4, "velocity": 102}, {"time": 1247, "pitch": 73, "duration": 9, "velocity": 117}, {"time": 1256, "pitch": 70, "duration": 2, "velocity": 122}, {"time": 1259, "pitch": 70, "duration": 2, "velocity": 122}, {"time": 1262, "pitch": 71, "duration": 3, "velocity": 100}, {"time": 1265, "pitch": 73, "duration": 4, "velocity": 127}, {"time": 1271, "pitch": 75, "duration": 2, "velocity": 117}, {"time": 1274, "pitch": 70, "duration": 4, "velocity": 127}, {"time": 1280, "pitch": 71, "duration": 4, "velocity": 100}, {"time": 1286, "pitch": 70, "duration": 5, "velocity": 122}, {"time": 1293, "pitch": 71, "duration": 1, "velocity": 112}, {"time": 1295, "pitch": 70, "duration": 1, "velocity": 112}, {"time": 1296, "pitch": 68, "duration": 17, "velocity": 127}, {"time": 1511, "pitch": 63, "duration": 1, "velocity": 97}, {"time": 1514, "pitch": 63, "duration": 2, "velocity": 99}, {"time": 1517, "pitch": 71, "duration": 4, "velocity": 95}, {"time": 1523, "pitch": 71, "duration": 3, "velocity": 100}, {"time": 1526, "pitch": 73, "duration": 3, "velocity": 112}, {"time": 1529, "pitch": 70, "duration": 2, "velocity": 122}, {"time": 1532, "pitch": 70, "duration": 3, "velocity": 117}, {"time": 1535, "pitch": 68, "duration": 2, "velocity": 112}, {"time": 1538, "pitch": 66, "duration": 8, "velocity": 99}, {"time": 1550, "pitch": 59, "duration": 2, "velocity": 95}, {"time": 1553, "pitch": 68, "duration": 2, "velocity": 107}, {"time": 1556, "pitch": 68, "duration": 2, "velocity": 122}, {"time": 1559, "pitch": 68, "duration": 1, "velocity": 117}, {"time": 1562, "pitch": 68, "duration": 1, "velocity": 102}, {"time": 1565, "pitch": 68, "duration": 1, "velocity": 112}, {"time": 1568, "pitch": 68, "duration": 1, "velocity": 122}, {"time": 1571, "pitch": 66, "duration": 1, "velocity": 117}, {"time": 1574, "pitch": 68, "duration": 1, "velocity": 127}, {"time": 1577, "pitch": 66, "duration": 5, "velocity": 122}, {"time": 1583, "pitch": 63, "duration": 5, "velocity": 100}, {"time": 1607, "pitch": 61, "duration": 1, "velocity": 112}, {"time": 1610, "pitch": 61, "duration": 2, "velocity": 100}, {"time": 1613, "pitch": 61, "duration": 5, "velocity": 122}, {"time": 1619, "pitch": 63, "duration": 3, "velocity": 117}, {"time": 1625, "pitch": 66, "duration": 2, "velocity": 127}, {"time": 1628, "pitch": 66, "duration": 2, "velocity": 122}, {"time": 1631, "pitch": 68, "duration": 2, "velocity": 112}, {"time": 1634, "pitch": 66, "duration": 5, "velocity": 127}, {"time": 1649, "pitch": 71, "duration": 5, "velocity": 127}, {"time": 1655, "pitch": 70, "duration": 4, "velocity": 122}, {"time": 1661, "pitch": 68, "duration": 5, "velocity": 127}, {"time": 1667, "pitch": 66, "duration": 4, "velocity": 117}, {"time": 1670, "pitch": 68, "duration": 18, "velocity": 112}, {"time": 1688, "pitch": 68, "duration": 2, "velocity": 117}, {"time": 1691, "pitch": 71, "duration": 3, "velocity": 102}, {"time": 1694, "pitch": 68, "duration": 2, "velocity": 127}, {"time": 1697, "pitch": 73, "duration": 5, "velocity": 122}, {"time": 1703, "pitch": 73, "duration": 4, "velocity": 127}, {"time": 1709, "pitch": 73, "duration": 4, "velocity": 127}, {"time": 1712, "pitch": 75, "duration": 3, "velocity": 122}, {"time": 1718, "pitch": 73, "duration": 17, "velocity": 127}, {"time": 1736, "pitch": 71, "duration": 3, "velocity": 100}, {"time": 1739, "pitch": 75, "duration": 4, "velocity": 127}, {"time": 1745, "pitch": 75, "duration": 5, "velocity": 127}, {"time": 1751, "pitch": 73, "duration": 5, "velocity": 127}, {"time": 1757, "pitch": 71, "duration": 5, "velocity": 112}, {"time": 1760, "pitch": 70, "duration": 4, "velocity": 112}, {"time": 1763, "pitch": 71, "duration": 3, "velocity": 86}, {"time": 1766, "pitch": 70, "duration": 4, "velocity": 100}, {"time": 1769, "pitch": 68, "duration": 12, "velocity": 112}, {"time": 1784, "pitch": 68, "duration": 3, "velocity": 96}, {"time": 1787, "pitch": 71, "duration": 3, "velocity": 100}, {"time": 1790, "pitch": 68, "duration": 3, "velocity": 122}, {"time": 1793, "pitch": 73, "duration": 4, "velocity": 117}, {"time": 1799, "pitch": 73, "duration": 5, "velocity": 127}, {"time": 1805, "pitch": 73, "duration": 3, "velocity": 127}, {"time": 1808, "pitch": 75, "duration": 4, "velocity": 127}, {"time": 1814, "pitch": 73, "duration": 16, "velocity": 127}, {"time": 1826, "pitch": 76, "duration": 2, "velocity": 102}, {"time": 1829, "pitch": 76, "duration": 3, "velocity": 90}, {"time": 1832, "pitch": 78, "duration": 4, "velocity": 127}, {"time": 1838, "pitch": 73, "duration": 4, "velocity": 117}, {"time": 1844, "pitch": 75, "duration": 24, "velocity": 127}, {"time": 1877, "pitch": 71, "duration": 6, "velocity": 122}, {"time": 1883, "pitch": 73, "duration": 6, "velocity": 122}, {"time": 1889, "pitch": 75, "duration": 2, "velocity": 127}, {"time": 1892, "pitch": 75, "duration": 2, "velocity": 102}, {"time": 1895, "pitch": 75, "duration": 2, "velocity": 127}, {"time": 1898, "pitch": 75, "duration": 2, "velocity": 127}, {"time": 1901, "pitch": 75, "duration": 3, "velocity": 127}, {"time": 1904, "pitch": 68, "duration": 2, "velocity": 112}, {"time": 1907, "pitch": 68, "duration": 2, "velocity": 122}, {"time": 1910, "pitch": 78, "duration": 6, "velocity": 127}, {"time": 1916, "pitch": 78, "duration": 2, "velocity": 127}, {"time": 1919, "pitch": 78, "duration": 3, "velocity": 127}, {"time": 1922, "pitch": 80, "duration": 3, "velocity": 112}, {"time": 1925, "pitch": 76, "duration": 5, "velocity": 112}, {"time": 1931, "pitch": 76, "duration": 3, "velocity": 127}, {"time": 1934, "pitch": 78, "duration": 3, "velocity": 107}, {"time": 1937, "pitch": 73, "duration": 2, "velocity": 122}, {"time": 1940, "pitch": 73, "duration": 2, "velocity": 127}, {"time": 1943, "pitch": 73, "duration": 2, "velocity": 122}, {"time": 1946, "pitch": 73, "duration": 2, "velocity": 117}, {"time": 1949, "pitch": 73, "duration": 2, "velocity": 127}, {"time": 1955, "pitch": 66, "duration": 2, "velocity": 112}, {"time": 1958, "pitch": 76, "duration": 5, "velocity": 112}, {"time": 1964, "pitch": 76, "duration": 2, "velocity": 97}, {"time": 1967, "pitch": 76, "duration": 3, "velocity": 102}, {"time": 1970, "pitch": 78, "duration": 3, "velocity": 112}, {"time": 1973, "pitch": 75, "duration": 5, "velocity": 122}, {"time": 1985, "pitch": 71, "duration": 2, "velocity": 100}, {"time": 1988, "pitch": 71, "duration": 2, "velocity": 95}, {"time": 1991, "pitch": 71, "duration": 2, "velocity": 97}, {"time": 1994, "pitch": 71, "duration": 2, "velocity": 100}, {"time": 1997, "pitch": 71, "duration": 5, "velocity": 112}, {"time": 2003, "pitch": 75, "duration": 5, "velocity": 127}, {"time": 2009, "pitch": 75, "duration": 3, "velocity": 127}, {"time": 2012, "pitch": 73, "duration": 2, "velocity": 122}, {"time": 2015, "pitch": 73, "duration": 2, "velocity": 122}, {"time": 2018, "pitch": 73, "duration": 7, "velocity": 127}, {"time": 2033, "pitch": 70, "duration": 4, "velocity": 127}, {"time": 2039, "pitch": 71, "duration": 2, "velocity": 99}, {"time": 2042, "pitch": 73, "duration": 4, "velocity": 117}, {"time": 2048, "pitch": 76, "duration": 8, "velocity": 127}, {"time": 2057, "pitch": 75, "duration": 15, "velocity": 127}, {"time": 2075, "pitch": 71, "duration": 2, "velocity": 112}, {"time": 2078, "pitch": 73, "duration": 2, "velocity": 127}, {"time": 2081, "pitch": 75, "duration": 2, "velocity": 127}, {"time": 2084, "pitch": 75, "duration": 2, "velocity": 122}, {"time": 2087, "pitch": 75, "duration": 2, "velocity": 127}, {"time": 2090, "pitch": 75, "duration": 1, "velocity": 127}, {"time": 2093, "pitch": 75, "duration": 3, "velocity": 127}, {"time": 2099, "pitch": 68, "duration": 3, "velocity": 117}, {"time": 2102, "pitch": 78, "duration": 5, "velocity": 117}, {"time": 2108, "pitch": 78, "duration": 2, "velocity": 127}, {"time": 2111, "pitch": 78, "duration": 3, "velocity": 122}, {"time": 2114, "pitch": 80, "duration": 3, "velocity": 112}, {"time": 2117, "pitch": 76, "duration": 4, "velocity": 117}, {"time": 2123, "pitch": 76, "duration": 3, "velocity": 117}, {"time": 2126, "pitch": 78, "duration": 3, "velocity": 99}, {"time": 2129, "pitch": 73, "duration": 2, "velocity": 127}, {"time": 2132, "pitch": 73, "duration": 1, "velocity": 112}, {"time": 2135, "pitch": 73, "duration": 1, "velocity": 102}, {"time": 2138, "pitch": 73, "duration": 2, "velocity": 112}, {"time": 2141, "pitch": 73, "duration": 3, "velocity": 127}, {"time": 2147, "pitch": 66, "duration": 2, "velocity": 117}, {"time": 2150, "pitch": 76, "duration": 5, "velocity": 122}, {"time": 2156, "pitch": 76, "duration": 2, "velocity": 112}, {"time": 2159, "pitch": 76, "duration": 2, "velocity": 107}, {"time": 2162, "pitch": 78, "duration": 3, "velocity": 117}, {"time": 2165, "pitch": 75, "duration": 6, "velocity": 127}, {"time": 2171, "pitch": 73, "duration": 3, "velocity": 127}, {"time": 2174, "pitch": 71, "duration": 2, "velocity": 99}, {"time": 2177, "pitch": 73, "duration": 3, "velocity": 127}, {"time": 2180, "pitch": 71, "duration": 2, "velocity": 96}, {"time": 2183, "pitch": 71, "duration": 2, "velocity": 99}, {"time": 2186, "pitch": 71, "duration": 5, "velocity": 112}, {"time": 2192, "pitch": 75, "duration": 5, "velocity": 117}, {"time": 2198, "pitch": 75, "duration": 4, "velocity": 127}, {"time": 2201, "pitch": 76, "duration": 3, "velocity": 83}, {"time": 2204, "pitch": 75, "duration": 4, "velocity": 102}, {"time": 2207, "pitch": 73, "duration": 9, "velocity": 117}, {"time": 2216, "pitch": 70, "duration": 2, "velocity": 122}, {"time": 2219, "pitch": 70, "duration": 2, "velocity": 122}, {"time": 2222, "pitch": 71, "duration": 3, "velocity": 100}, {"time": 2225, "pitch": 73, "duration": 4, "velocity": 127}, {"time": 2231, "pitch": 75, "duration": 2, "velocity": 117}, {"time": 2234, "pitch": 70, "duration": 4, "velocity": 127}, {"time": 2240, "pitch": 71, "duration": 4, "velocity": 100}, {"time": 2246, "pitch": 70, "duration": 5, "velocity": 122}, {"time": 2253, "pitch": 71, "duration": 1, "velocity": 112}, {"time": 2255, "pitch": 70, "duration": 1, "velocity": 112}, {"time": 2256, "pitch": 68, "duration": 17, "velocity": 127}, {"time": 2273, "pitch": 75, "duration": 2, "velocity": 127}, {"time": 2276, "pitch": 75, "duration": 2, "velocity": 102}, {"time": 2279, "pitch": 75, "duration": 2, "velocity": 127}, {"time": 2282, "pitch": 75, "duration": 2, "velocity": 127}, {"time": 2285, "pitch": 75, "duration": 3, "velocity": 127}, {"time": 2288, "pitch": 68, "duration": 2, "velocity": 112}, {"time": 2291, "pitch": 68, "duration": 2, "velocity": 122}, {"time": 2294, "pitch": 78, "duration": 6, "velocity": 127}, {"time": 2300, "pitch": 78, "duration": 2, "velocity": 127}, {"time": 2303, "pitch": 78, "duration": 3, "velocity": 127}, {"time": 2306, "pitch": 80, "duration": 3, "velocity": 112}, {"time": 2309, "pitch": 76, "duration": 5, "velocity": 112}, {"time": 2315, "pitch": 76, "duration": 3, "velocity": 127}, {"time": 2318, "pitch": 78, "duration": 3, "velocity": 107}, {"time": 2321, "pitch": 73, "duration": 2, "velocity": 122}, {"time": 2324, "pitch": 73, "duration": 2, "velocity": 127}, {"time": 2327, "pitch": 73, "duration": 2, "velocity": 122}, {"time": 2330, "pitch": 73, "duration": 2, "velocity": 117}, {"time": 2333, "pitch": 73, "duration": 2, "velocity": 127}, {"time": 2339, "pitch": 66, "duration": 2, "velocity": 112}, {"time": 2342, "pitch": 76, "duration": 5, "velocity": 112}, {"time": 2348, "pitch": 76, "duration": 2, "velocity": 97}, {"time": 2351, "pitch": 76, "duration": 3, "velocity": 102}, {"time": 2354, "pitch": 78, "duration": 3, "velocity": 112}, {"time": 2357, "pitch": 75, "duration": 5, "velocity": 122}, {"time": 2369, "pitch": 71, "duration": 2, "velocity": 100}, {"time": 2372, "pitch": 71, "duration": 2, "velocity": 95}, {"time": 2375, "pitch": 71, "duration": 2, "velocity": 97}, {"time": 2378, "pitch": 71, "duration": 2, "velocity": 100}, {"time": 2381, "pitch": 71, "duration": 5, "velocity": 112}, {"time": 2387, "pitch": 75, "duration": 5, "velocity": 127}, {"time": 2393, "pitch": 75, "duration": 3, "velocity": 127}, {"time": 2396, "pitch": 73, "duration": 2, "velocity": 122}, {"time": 2399, "pitch": 73, "duration": 2, "velocity": 122}, {"time": 2402, "pitch": 73, "duration": 7, "velocity": 127}, {"time": 2417, "pitch": 70, "duration": 4, "velocity": 127}, {"time": 2423, "pitch": 71, "duration": 2, "velocity": 99}, {"time": 2426, "pitch": 73, "duration": 4, "velocity": 117}, {"time": 2432, "pitch": 76, "duration": 8, "velocity": 127}, {"time": 2441, "pitch": 75, "duration": 15, "velocity": 127}, {"time": 2459, "pitch": 71, "duration": 2, "velocity": 112}, {"time": 2462, "pitch": 73, "duration": 2, "velocity": 127}, {"time": 2465, "pitch": 75, "duration": 2, "velocity": 127}, {"time": 2468, "pitch": 75, "duration": 2, "velocity": 122}, {"time": 2471, "pitch": 75, "duration": 2, "velocity": 127}, {"time": 2474, "pitch": 75, "duration": 1, "velocity": 127}, {"time": 2477, "pitch": 75, "duration": 3, "velocity": 127}, {"time": 2483, "pitch": 68, "duration": 3, "velocity": 117}, {"time": 2486, "pitch": 78, "duration": 5, "velocity": 117}, {"time": 2492, "pitch": 78, "duration": 2, "velocity": 127}, {"time": 2495, "pitch": 78, "duration": 3, "velocity": 122}, {"time": 2498, "pitch": 80, "duration": 3, "velocity": 112}, {"time": 2501, "pitch": 76, "duration": 4, "velocity": 117}, {"time": 2507, "pitch": 76, "duration": 3, "velocity": 117}, {"time": 2510, "pitch": 78, "duration": 3, "velocity": 99}, {"time": 2513, "pitch": 73, "duration": 2, "velocity": 127}, {"time": 2516, "pitch": 73, "duration": 1, "velocity": 112}, {"time": 2519, "pitch": 73, "duration": 1, "velocity": 102}, {"time": 2522, "pitch": 73, "duration": 2, "velocity": 112}, {"time": 2525, "pitch": 73, "duration": 3, "velocity": 127}, {"time": 2531, "pitch": 66, "duration": 2, "velocity": 117}, {"time": 2534, "pitch": 76, "duration": 5, "velocity": 122}, {"time": 2540, "pitch": 76, "duration": 2, "velocity": 112}, {"time": 2543, "pitch": 76, "duration": 2, "velocity": 107}, {"time": 2546, "pitch": 78, "duration": 3, "velocity": 117}, {"time": 2549, "pitch": 75, "duration": 6, "velocity": 127}, {"time": 2555, "pitch": 73, "duration": 3, "velocity": 127}, {"time": 2558, "pitch": 71, "duration": 2, "velocity": 99}, {"time": 2561, "pitch": 73, "duration": 3, "velocity": 127}, {"time": 2564, "pitch": 71, "duration": 2, "velocity": 96}, {"time": 2567, "pitch": 71, "duration": 2, "velocity": 99}, {"time": 2570, "pitch": 71, "duration": 5, "velocity": 112}, {"time": 2576, "pitch": 75, "duration": 5, "velocity": 117}, {"time": 2582, "pitch": 75, "duration": 4, "velocity": 127}, {"time": 2585, "pitch": 76, "duration": 3, "velocity": 83}, {"time": 2588, "pitch": 75, "duration": 4, "velocity": 102}, {"time": 2591, "pitch": 73, "duration": 6, "velocity": 117}, {"time": 2594, "pitch": 73, "duration": 3, "velocity": 127}, {"time": 2609, "pitch": 70, "duration": 5, "velocity": 127}, {"time": 2615, "pitch": 71, "duration": 3, "velocity": 107}, {"time": 2618, "pitch": 73, "duration": 4, "velocity": 127}, {"time": 2624, "pitch": 76, "duration": 8, "velocity": 127}, {"time": 2633, "pitch": 75, "duration": 17, "velocity": 127}, {"time": 2651, "pitch": 71, "duration": 2, "velocity": 112}, {"time": 2654, "pitch": 73, "duration": 2, "velocity": 127}, {"time": 2657, "pitch": 75, "duration": 2, "velocity": 127}, {"time": 2660, "pitch": 75, "duration": 2, "velocity": 122}, {"time": 2663, "pitch": 75, "duration": 2, "velocity": 127}, {"time": 2666, "pitch": 75, "duration": 1, "velocity": 127}, {"time": 2669, "pitch": 75, "duration": 3, "velocity": 127}, {"time": 2675, "pitch": 68, "duration": 3, "velocity": 117}, {"time": 2678, "pitch": 78, "duration": 5, "velocity": 117}, {"time": 2684, "pitch": 78, "duration": 2, "velocity": 127}, {"time": 2687, "pitch": 78, "duration": 3, "velocity": 122}, {"time": 2690, "pitch": 80, "duration": 3, "velocity": 112}, {"time": 2693, "pitch": 76, "duration": 4, "velocity": 117}, {"time": 2699, "pitch": 76, "duration": 3, "velocity": 117}, {"time": 2702, "pitch": 78, "duration": 3, "velocity": 99}, {"time": 2705, "pitch": 73, "duration": 2, "velocity": 127}, {"time": 2708, "pitch": 73, "duration": 1, "velocity": 112}, {"time": 2711, "pitch": 73, "duration": 1, "velocity": 102}, {"time": 2714, "pitch": 73, "duration": 2, "velocity": 112}, {"time": 2717, "pitch": 73, "duration": 3, "velocity": 127}, {"time": 2723, "pitch": 66, "duration": 2, "velocity": 117}, {"time": 2726, "pitch": 76, "duration": 5, "velocity": 122}, {"time": 2732, "pitch": 76, "duration": 2, "velocity": 112}, {"time": 2735, "pitch": 76, "duration": 2, "velocity": 107}, {"time": 2738, "pitch": 78, "duration": 3, "velocity": 117}, {"time": 2741, "pitch": 75, "duration": 6, "velocity": 127}, {"time": 2747, "pitch": 73, "duration": 3, "velocity": 127}, {"time": 2750, "pitch": 71, "duration": 2, "velocity": 99}, {"time": 2753, "pitch": 73, "duration": 3, "velocity": 127}, {"time": 2756, "pitch": 71, "duration": 2, "velocity": 96}, {"time": 2759, "pitch": 71, "duration": 2, "velocity": 99}, {"time": 2762, "pitch": 71, "duration": 5, "velocity": 112}, {"time": 2768, "pitch": 75, "duration": 5, "velocity": 117}, {"time": 2774, "pitch": 75, "duration": 4, "velocity": 127}, {"time": 2777, "pitch": 76, "duration": 3, "velocity": 83}, {"time": 2780, "pitch": 75, "duration": 4, "velocity": 102}, {"time": 2783, "pitch": 73, "duration": 24, "velocity": 127}, {"time": 2816, "pitch": 70, "duration": 2, "velocity": 112}, {"time": 2819, "pitch": 70, "duration": 2, "velocity": 122}, {"time": 2822, "pitch": 71, "duration": 2, "velocity": 95}, {"time": 2825, "pitch": 73, "duration": 6, "velocity": 127}, {"time": 2831, "pitch": 75, "duration": 2, "velocity": 127}, {"time": 2834, "pitch": 70, "duration": 7, "velocity": 122}, {"time": 2843, "pitch": 71, "duration": 7, "velocity": 99}, {"time": 2849, "pitch": 70, "duration": 4, "velocity": 117}, {"time": 2852, "pitch": 71, "duration": 4, "velocity": 79}, {"time": 2855, "pitch": 70, "duration": 3, "velocity": 117}, {"time": 2858, "pitch": 71, "duration": 2, "velocity": 82}, {"time": 2860, "pitch": 70, "duration": 2, "velocity": 107}, {"time": 2862, "pitch": 68, "duration": 33, "velocity": 112}]}, {"program": 0, "is_drum": false, "name": "BRIDGE", "notes": [{"time": 158, "pitch": 71, "duration": 2, "velocity": 93}, {"time": 160, "pitch": 73, "duration": 2, "velocity": 102}, {"time": 161, "pitch": 75, "duration": 2, "velocity": 127}, {"time": 164, "pitch": 75, "duration": 2, "velocity": 88}, {"time": 167, "pitch": 75, "duration": 2, "velocity": 99}, {"time": 170, "pitch": 75, "duration": 2, "velocity": 107}, {"time": 173, "pitch": 75, "duration": 5, "velocity": 122}, {"time": 179, "pitch": 68, "duration": 3, "velocity": 83}, {"time": 182, "pitch": 78, "duration": 5, "velocity": 122}, {"time": 188, "pitch": 78, "duration": 2, "velocity": 117}, {"time": 191, "pitch": 78, "duration": 3, "velocity": 117}, {"time": 194, "pitch": 80, "duration": 4, "velocity": 112}, {"time": 197, "pitch": 76, "duration": 8, "velocity": 93}, {"time": 206, "pitch": 76, "duration": 2, "velocity": 100}, {"time": 208, "pitch": 78, "duration": 2, "velocity": 90}, {"time": 209, "pitch": 73, "duration": 2, "velocity": 96}, {"time": 212, "pitch": 73, "duration": 2, "velocity": 86}, {"time": 215, "pitch": 73, "duration": 3, "velocity": 89}, {"time": 218, "pitch": 73, "duration": 2, "velocity": 96}, {"time": 221, "pitch": 73, "duration": 7, "velocity": 97}, {"time": 227, "pitch": 66, "duration": 3, "velocity": 102}, {"time": 230, "pitch": 76, "duration": 8, "velocity": 117}, {"time": 236, "pitch": 76, "duration": 2, "velocity": 99}, {"time": 239, "pitch": 76, "duration": 3, "velocity": 100}, {"time": 242, "pitch": 78, "duration": 3, "velocity": 99}, {"time": 245, "pitch": 75, "duration": 10, "velocity": 122}, {"time": 254, "pitch": 75, "duration": 1, "velocity": 127}, {"time": 256, "pitch": 73, "duration": 1, "velocity": 112}, {"time": 258, "pitch": 71, "duration": 5, "velocity": 92}, {"time": 263, "pitch": 70, "duration": 3, "velocity": 99}, {"time": 266, "pitch": 71, "duration": 9, "velocity": 102}, {"time": 278, "pitch": 68, "duration": 4, "velocity": 99}, {"time": 281, "pitch": 75, "duration": 6, "velocity": 100}, {"time": 287, "pitch": 73, "duration": 2, "velocity": 107}, {"time": 290, "pitch": 73, "duration": 10, "velocity": 127}, {"time": 302, "pitch": 68, "duration": 3, "velocity": 95}, {"time": 305, "pitch": 70, "duration": 12, "velocity": 107}, {"time": 317, "pitch": 68, "duration": 21, "velocity": 122}, {"time": 327, "pitch": 71, "duration": 32, "velocity": 62}, {"time": 328, "pitch": 75, "duration": 31, "velocity": 96}, {"time": 329, "pitch": 80, "duration": 30, "velocity": 107}, {"time": 530, "pitch": 70, "duration": 6, "velocity": 127}, {"time": 536, "pitch": 68, "duration": 3, "velocity": 102}, {"time": 539, "pitch": 70, "duration": 5, "velocity": 127}, {"time": 545, "pitch": 71, "duration": 20, "velocity": 93}, {"time": 905, "pitch": 75, "duration": 2, "velocity": 117}, {"time": 905, "pitch": 87, "duration": 2, "velocity": 93}, {"time": 908, "pitch": 75, "duration": 3, "velocity": 112}, {"time": 908, "pitch": 87, "duration": 4, "velocity": 99}, {"time": 1310, "pitch": 71, "duration": 2, "velocity": 88}, {"time": 1312, "pitch": 73, "duration": 1, "velocity": 107}, {"time": 1313, "pitch": 75, "duration": 10, "velocity": 112}, {"time": 1328, "pitch": 68, "duration": 4, "velocity": 122}, {"time": 1331, "pitch": 70, "duration": 3, "velocity": 102}, {"time": 1334, "pitch": 71, "duration": 4, "velocity": 96}, {"time": 1337, "pitch": 73, "duration": 15, "velocity": 127}, {"time": 1361, "pitch": 73, "duration": 5, "velocity": 127}, {"time": 1367, "pitch": 70, "duration": 6, "velocity": 127}, {"time": 1373, "pitch": 66, "duration": 4, "velocity": 122}, {"time": 1379, "pitch": 78, "duration": 6, "velocity": 127}, {"time": 1385, "pitch": 75, "duration": 18, "velocity": 127}, {"time": 1409, "pitch": 71, "duration": 16, "velocity": 127}, {"time": 1427, "pitch": 68, "duration": 4, "velocity": 117}, {"time": 1430, "pitch": 71, "duration": 4, "velocity": 96}, {"time": 1433, "pitch": 73, "duration": 18, "velocity": 122}, {"time": 1457, "pitch": 75, "duration": 9, "velocity": 127}, {"time": 1466, "pitch": 73, "duration": 10, "velocity": 117}, {"time": 1475, "pitch": 70, "duration": 7, "velocity": 122}, {"time": 1481, "pitch": 68, "duration": 25, "velocity": 127}, {"time": 1865, "pitch": 75, "duration": 2, "velocity": 117}, {"time": 1865, "pitch": 87, "duration": 2, "velocity": 93}, {"time": 1868, "pitch": 75, "duration": 3, "velocity": 112}, {"time": 1868, "pitch": 87, "duration": 4, "velocity": 99}, {"time": 2267, "pitch": 71, "duration": 4, "velocity": 117}, {"time": 2270, "pitch": 73, "duration": 3, "velocity": 127}, {"time": 2273, "pitch": 75, "duration": 2, "velocity": 127}, {"time": 2276, "pitch": 75, "duration": 2, "velocity": 122}, {"time": 2279, "pitch": 75, "duration": 2, "velocity": 127}, {"time": 2282, "pitch": 75, "duration": 2, "velocity": 127}, {"time": 2285, "pitch": 75, "duration": 5, "velocity": 127}, {"time": 2291, "pitch": 70, "duration": 4, "velocity": 112}, {"time": 2294, "pitch": 68, "duration": 5, "velocity": 127}, {"time": 2300, "pitch": 76, "duration": 2, "velocity": 117}, {"time": 2303, "pitch": 76, "duration": 3, "velocity": 102}, {"time": 2306, "pitch": 75, "duration": 4, "velocity": 112}, {"time": 2309, "pitch": 73, "duration": 11, "velocity": 127}, {"time": 2318, "pitch": 66, "duration": 3, "velocity": 99}, {"time": 2320, "pitch": 68, "duration": 2, "velocity": 96}, {"time": 2321, "pitch": 70, "duration": 2, "velocity": 117}, {"time": 2324, "pitch": 70, "duration": 2, "velocity": 127}, {"time": 2327, "pitch": 70, "duration": 2, "velocity": 122}, {"time": 2330, "pitch": 68, "duration": 3, "velocity": 122}, {"time": 2333, "pitch": 66, "duration": 7, "velocity": 107}, {"time": 2336, "pitch": 68, "duration": 3, "velocity": 107}, {"time": 2339, "pitch": 66, "duration": 1, "velocity": 107}, {"time": 2342, "pitch": 78, "duration": 7, "velocity": 127}, {"time": 2348, "pitch": 73, "duration": 3, "velocity": 122}, {"time": 2351, "pitch": 75, "duration": 4, "velocity": 112}, {"time": 2354, "pitch": 73, "duration": 3, "velocity": 127}, {"time": 2357, "pitch": 71, "duration": 10, "velocity": 102}, {"time": 2366, "pitch": 66, "duration": 3, "velocity": 112}, {"time": 2369, "pitch": 68, "duration": 4, "velocity": 122}, {"time": 2372, "pitch": 71, "duration": 2, "velocity": 95}, {"time": 2375, "pitch": 71, "duration": 3, "velocity": 97}, {"time": 2378, "pitch": 68, "duration": 3, "velocity": 112}, {"time": 2381, "pitch": 64, "duration": 8, "velocity": 97}, {"time": 2390, "pitch": 76, "duration": 6, "velocity": 127}, {"time": 2396, "pitch": 75, "duration": 2, "velocity": 107}, {"time": 2399, "pitch": 75, "duration": 4, "velocity": 122}, {"time": 2402, "pitch": 76, "duration": 3, "velocity": 93}, {"time": 2405, "pitch": 73, "duration": 11, "velocity": 117}, {"time": 2414, "pitch": 71, "duration": 3, "velocity": 107}, {"time": 2417, "pitch": 70, "duration": 7, "velocity": 127}, {"time": 2426, "pitch": 71, "duration": 3, "velocity": 97}, {"time": 2429, "pitch": 73, "duration": 4, "velocity": 127}, {"time": 2432, "pitch": 76, "duration": 6, "velocity": 127}, {"time": 2438, "pitch": 75, "duration": 28, "velocity": 127}, {"time": 2846, "pitch": 71, "duration": 2, "velocity": 88}, {"time": 2848, "pitch": 73, "duration": 2, "velocity": 89}, {"time": 2849, "pitch": 75, "duration": 2, "velocity": 127}, {"time": 2852, "pitch": 75, "duration": 2, "velocity": 85}, {"time": 2855, "pitch": 75, "duration": 2, "velocity": 99}, {"time": 2858, "pitch": 75, "duration": 8, "velocity": 107}, {"time": 2867, "pitch": 68, "duration": 3, "velocity": 112}, {"time": 2870, "pitch": 78, "duration": 5, "velocity": 117}, {"time": 2876, "pitch": 78, "duration": 2, "velocity": 99}, {"time": 2879, "pitch": 78, "duration": 3, "velocity": 107}, {"time": 2882, "pitch": 80, "duration": 3, "velocity": 117}, {"time": 2885, "pitch": 76, "duration": 11, "velocity": 96}, {"time": 2894, "pitch": 76, "duration": 2, "velocity": 117}, {"time": 2896, "pitch": 78, "duration": 2, "velocity": 97}, {"time": 2897, "pitch": 73, "duration": 3, "velocity": 102}, {"time": 2900, "pitch": 73, "duration": 2, "velocity": 89}, {"time": 2903, "pitch": 73, "duration": 2, "velocity": 83}, {"time": 2906, "pitch": 73, "duration": 2, "velocity": 122}, {"time": 2909, "pitch": 73, "duration": 4, "velocity": 107}, {"time": 2915, "pitch": 66, "duration": 4, "velocity": 95}, {"time": 2918, "pitch": 76, "duration": 5, "velocity": 107}, {"time": 2924, "pitch": 76, "duration": 2, "velocity": 95}, {"time": 2927, "pitch": 76, "duration": 3, "velocity": 97}, {"time": 2930, "pitch": 78, "duration": 3, "velocity": 97}, {"time": 2933, "pitch": 75, "duration": 11, "velocity": 107}, {"time": 2942, "pitch": 75, "duration": 2, "velocity": 117}, {"time": 2944, "pitch": 73, "duration": 1, "velocity": 102}, {"time": 2945, "pitch": 71, "duration": 6, "velocity": 93}, {"time": 2951, "pitch": 70, "duration": 3, "velocity": 107}, {"time": 2954, "pitch": 71, "duration": 8, "velocity": 97}, {"time": 2966, "pitch": 68, "duration": 3, "velocity": 107}, {"time": 2968, "pitch": 71, "duration": 2, "velocity": 89}, {"time": 2969, "pitch": 75, "duration": 8, "velocity": 102}, {"time": 2975, "pitch": 73, "duration": 2, "velocity": 72}, {"time": 2978, "pitch": 73, "duration": 12, "velocity": 107}, {"time": 2990, "pitch": 63, "duration": 3, "velocity": 96}, {"time": 2993, "pitch": 70, "duration": 6, "velocity": 112}, {"time": 2999, "pitch": 71, "duration": 4, "velocity": 83}, {"time": 3002, "pitch": 68, "duration": 30, "velocity": 117}, {"time": 3012, "pitch": 68, "duration": 20, "velocity": 81}, {"time": 3014, "pitch": 71, "duration": 51, "velocity": 63}, {"time": 3016, "pitch": 75, "duration": 49, "velocity": 67}, {"time": 3019, "pitch": 78, "duration": 46, "velocity": 89}, {"time": 3021, "pitch": 80, "duration": 44, "velocity": 85}]}, {"program": 0, "is_drum": false, "name": "PIANO", "notes": [{"time": 29, "pitch": 32, "duration": 22, "velocity": 62}, {"time": 29, "pitch": 44, "duration": 21, "velocity": 61}, {"time": 29, "pitch": 56, "duration": 21, "velocity": 63}, {"time": 29, "pitch": 68, "duration": 21, "velocity": 74}, {"time": 53, "pitch": 44, "duration": 17, "velocity": 44}, {"time": 53, "pitch": 56, "duration": 15, "velocity": 34}, {"time": 53, "pitch": 59, "duration": 16, "velocity": 38}, {"time": 53, "pitch": 63, "duration": 15, "velocity": 44}, {"time": 53, "pitch": 68, "duration": 15, "velocity": 39}, {"time": 77, "pitch": 49, "duration": 14, "velocity": 47}, {"time": 77, "pitch": 56, "duration": 15, "velocity": 40}, {"time": 77, "pitch": 61, "duration": 14, "velocity": 56}, {"time": 77, "pitch": 64, "duration": 14, "velocity": 44}, {"time": 101, "pitch": 42, "duration": 15, "velocity": 56}, {"time": 101, "pitch": 54, "duration": 14, "velocity": 41}, {"time": 101, "pitch": 58, "duration": 14, "velocity": 58}, {"time": 101, "pitch": 61, "duration": 14, "velocity": 50}, {"time": 125, "pitch": 47, "duration": 34, "velocity": 35}, {"time": 125, "pitch": 59, "duration": 35, "velocity": 42}, {"time": 125, "pitch": 63, "duration": 35, "velocity": 45}, {"time": 125, "pitch": 66, "duration": 35, "velocity": 50}, {"time": 161, "pitch": 44, "duration": 17, "velocity": 75}, {"time": 164, "pitch": 51, "duration": 13, "velocity": 62}, {"time": 167, "pitch": 56, "duration": 8, "velocity": 71}, {"time": 170, "pitch": 59, "duration": 9, "velocity": 66}, {"time": 173, "pitch": 68, "duration": 12, "velocity": 100}, {"time": 176, "pitch": 56, "duration": 2, "velocity": 41}, {"time": 185, "pitch": 37, "duration": 17, "velocity": 86}, {"time": 188, "pitch": 44, "duration": 14, "velocity": 53}, {"time": 191, "pitch": 49, "duration": 13, "velocity": 58}, {"time": 194, "pitch": 61, "duration": 6, "velocity": 53}, {"time": 197, "pitch": 68, "duration": 12, "velocity": 99}, {"time": 203, "pitch": 64, "duration": 5, "velocity": 53}, {"time": 209, "pitch": 42, "duration": 17, "velocity": 61}, {"time": 212, "pitch": 49, "duration": 13, "velocity": 61}, {"time": 215, "pitch": 54, "duration": 8, "velocity": 56}, {"time": 218, "pitch": 58, "duration": 14, "velocity": 71}, {"time": 221, "pitch": 66, "duration": 13, "velocity": 78}, {"time": 230, "pitch": 61, "duration": 4, "velocity": 66}, {"time": 233, "pitch": 47, "duration": 16, "velocity": 65}, {"time": 236, "pitch": 54, "duration": 11, "velocity": 96}, {"time": 239, "pitch": 59, "duration": 5, "velocity": 86}, {"time": 242, "pitch": 66, "duration": 11, "velocity": 117}, {"time": 245, "pitch": 63, "duration": 7, "velocity": 127}, {"time": 248, "pitch": 54, "duration": 1, "velocity": 102}, {"time": 251, "pitch": 59, "duration": 9, "velocity": 100}, {"time": 257, "pitch": 40, "duration": 17, "velocity": 97}, {"time": 260, "pitch": 47, "duration": 14, "velocity": 89}, {"time": 263, "pitch": 52, "duration": 8, "velocity": 92}, {"time": 266, "pitch": 59, "duration": 3, "velocity": 93}, {"time": 269, "pitch": 64, "duration": 11, "velocity": 97}, {"time": 269, "pitch": 68, "duration": 11, "velocity": 117}, {"time": 272, "pitch": 52, "duration": 1, "velocity": 85}, {"time": 275, "pitch": 59, "duration": 7, "velocity": 96}, {"time": 281, "pitch": 37, "duration": 22, "velocity": 82}, {"time": 284, "pitch": 44, "duration": 20, "velocity": 76}, {"time": 287, "pitch": 49, "duration": 8, "velocity": 99}, {"time": 290, "pitch": 56, "duration": 3, "velocity": 88}, {"time": 293, "pitch": 56, "duration": 1, "velocity": 35}, {"time": 293, "pitch": 61, "duration": 11, "velocity": 97}, {"time": 293, "pitch": 64, "duration": 12, "velocity": 99}, {"time": 296, "pitch": 49, "duration": 7, "velocity": 96}, {"time": 299, "pitch": 56, "duration": 6, "velocity": 96}, {"time": 305, "pitch": 44, "duration": 20, "velocity": 82}, {"time": 308, "pitch": 51, "duration": 17, "velocity": 60}, {"time": 311, "pitch": 56, "duration": 8, "velocity": 93}, {"time": 314, "pitch": 59, "duration": 8, "velocity": 75}, {"time": 317, "pitch": 68, "duration": 10, "velocity": 112}, {"time": 320, "pitch": 56, "duration": 5, "velocity": 82}, {"time": 323, "pitch": 63, "duration": 4, "velocity": 102}, {"time": 326, "pitch": 59, "duration": 27, "velocity": 77}, {"time": 329, "pitch": 44, "duration": 22, "velocity": 60}, {"time": 329, "pitch": 51, "duration": 23, "velocity": 63}, {"time": 329, "pitch": 56, "duration": 23, "velocity": 66}, {"time": 329, "pitch": 63, "duration": 24, "velocity": 76}, {"time": 329, "pitch": 68, "duration": 23, "velocity": 79}, {"time": 353, "pitch": 44, "duration": 17, "velocity": 92}, {"time": 356, "pitch": 51, "duration": 13, "velocity": 58}, {"time": 359, "pitch": 56, "duration": 8, "velocity": 67}, {"time": 362, "pitch": 59, "duration": 15, "velocity": 58}, {"time": 365, "pitch": 68, "duration": 12, "velocity": 96}, {"time": 377, "pitch": 42, "duration": 17, "velocity": 81}, {"time": 380, "pitch": 49, "duration": 13, "velocity": 35}, {"time": 383, "pitch": 54, "duration": 9, "velocity": 59}, {"time": 386, "pitch": 61, "duration": 15, "velocity": 83}, {"time": 398, "pitch": 58, "duration": 4, "velocity": 61}, {"time": 401, "pitch": 40, "duration": 18, "velocity": 65}, {"time": 407, "pitch": 47, "duration": 13, "velocity": 63}, {"time": 413, "pitch": 59, "duration": 12, "velocity": 92}, {"time": 419, "pitch": 56, "duration": 6, "velocity": 99}, {"time": 425, "pitch": 47, "duration": 16, "velocity": 82}, {"time": 431, "pitch": 54, "duration": 8, "velocity": 72}, {"time": 437, "pitch": 66, "duration": 12, "velocity": 122}, {"time": 440, "pitch": 54, "duration": 2, "velocity": 79}, {"time": 443, "pitch": 63, "duration": 6, "velocity": 59}, {"time": 449, "pitch": 37, "duration": 19, "velocity": 63}, {"time": 455, "pitch": 44, "duration": 13, "velocity": 34}, {"time": 461, "pitch": 49, "duration": 8, "velocity": 42}, {"time": 461, "pitch": 56, "duration": 13, "velocity": 99}, {"time": 467, "pitch": 52, "duration": 7, "velocity": 67}, {"time": 473, "pitch": 39, "duration": 18, "velocity": 73}, {"time": 479, "pitch": 51, "duration": 8, "velocity": 89}, {"time": 485, "pitch": 54, "duration": 12, "velocity": 78}, {"time": 491, "pitch": 51, "duration": 5, "velocity": 70}, {"time": 497, "pitch": 40, "duration": 17, "velocity": 78}, {"time": 503, "pitch": 47, "duration": 12, "velocity": 58}, {"time": 509, "pitch": 52, "duration": 5, "velocity": 57}, {"time": 509, "pitch": 64, "duration": 13, "velocity": 70}, {"time": 515, "pitch": 56, "duration": 7, "velocity": 64}, {"time": 521, "pitch": 39, "duration": 17, "velocity": 88}, {"time": 527, "pitch": 51, "duration": 8, "velocity": 89}, {"time": 533, "pitch": 58, "duration": 13, "velocity": 102}, {"time": 533, "pitch": 63, "duration": 13, "velocity": 117}, {"time": 536, "pitch": 51, "duration": 3, "velocity": 102}, {"time": 539, "pitch": 55, "duration": 7, "velocity": 92}, {"time": 545, "pitch": 44, "duration": 19, "velocity": 96}, {"time": 551, "pitch": 56, "duration": 9, "velocity": 89}, {"time": 557, "pitch": 63, "duration": 13, "velocity": 90}, {"time": 557, "pitch": 68, "duration": 13, "velocity": 102}, {"time": 560, "pitch": 56, "duration": 2, "velocity": 70}, {"time": 563, "pitch": 59, "duration": 7, "velocity": 90}, {"time": 569, "pitch": 42, "duration": 17, "velocity": 92}, {"time": 575, "pitch": 49, "duration": 10, "velocity": 48}, {"time": 581, "pitch": 54, "duration": 4, "velocity": 56}, {"time": 581, "pitch": 61, "duration": 13, "velocity": 90}, {"time": 581, "pitch": 66, "duration": 13, "velocity": 90}, {"time": 587, "pitch": 58, "duration": 7, "velocity": 86}, {"time": 593, "pitch": 40, "duration": 17, "velocity": 86}, {"time": 599, "pitch": 47, "duration": 12, "velocity": 62}, {"time": 605, "pitch": 52, "duration": 8, "velocity": 75}, {"time": 605, "pitch": 64, "duration": 13, "velocity": 82}, {"time": 605, "pitch": 68, "duration": 13, "velocity": 88}, {"time": 611, "pitch": 59, "duration": 8, "velocity": 76}, {"time": 617, "pitch": 47, "duration": 17, "velocity": 89}, {"time": 623, "pitch": 54, "duration": 8, "velocity": 92}, {"time": 629, "pitch": 66, "duration": 13, "velocity": 117}, {"time": 632, "pitch": 54, "duration": 2, "velocity": 97}, {"time": 635, "pitch": 63, "duration": 7, "velocity": 99}, {"time": 638, "pitch": 59, "duration": 4, "velocity": 89}, {"time": 641, "pitch": 37, "duration": 19, "velocity": 71}, {"time": 647, "pitch": 44, "duration": 14, "velocity": 37}, {"time": 653, "pitch": 49, "duration": 9, "velocity": 65}, {"time": 653, "pitch": 61, "duration": 12, "velocity": 63}, {"time": 653, "pitch": 64, "duration": 12, "velocity": 73}, {"time": 659, "pitch": 56, "duration": 6, "velocity": 75}, {"time": 665, "pitch": 39, "duration": 17, "velocity": 77}, {"time": 671, "pitch": 46, "duration": 12, "velocity": 53}, {"time": 677, "pitch": 51, "duration": 5, "velocity": 66}, {"time": 677, "pitch": 58, "duration": 2, "velocity": 72}, {"time": 677, "pitch": 63, "duration": 10, "velocity": 88}, {"time": 683, "pitch": 58, "duration": 3, "velocity": 46}, {"time": 689, "pitch": 40, "duration": 5, "velocity": 85}, {"time": 689, "pitch": 59, "duration": 6, "velocity": 89}, {"time": 689, "pitch": 64, "duration": 5, "velocity": 95}, {"time": 689, "pitch": 68, "duration": 5, "velocity": 96}, {"time": 701, "pitch": 42, "duration": 7, "velocity": 96}, {"time": 701, "pitch": 54, "duration": 7, "velocity": 93}, {"time": 701, "pitch": 58, "duration": 7, "velocity": 95}, {"time": 701, "pitch": 61, "duration": 7, "velocity": 82}, {"time": 713, "pitch": 44, "duration": 20, "velocity": 93}, {"time": 719, "pitch": 51, "duration": 13, "velocity": 52}, {"time": 725, "pitch": 68, "duration": 12, "velocity": 112}, {"time": 728, "pitch": 56, "duration": 4, "velocity": 96}, {"time": 731, "pitch": 63, "duration": 6, "velocity": 127}, {"time": 734, "pitch": 59, "duration": 3, "velocity": 100}, {"time": 737, "pitch": 37, "duration": 17, "velocity": 92}, {"time": 743, "pitch": 49, "duration": 8, "velocity": 88}, {"time": 749, "pitch": 56, "duration": 3, "velocity": 100}, {"time": 749, "pitch": 61, "duration": 19, "velocity": 107}, {"time": 749, "pitch": 64, "duration": 19, "velocity": 102}, {"time": 752, "pitch": 49, "duration": 4, "velocity": 78}, {"time": 755, "pitch": 56, "duration": 13, "velocity": 112}, {"time": 761, "pitch": 37, "duration": 16, "velocity": 112}, {"time": 767, "pitch": 49, "duration": 7, "velocity": 49}, {"time": 770, "pitch": 56, "duration": 1, "velocity": 27}, {"time": 773, "pitch": 61, "duration": 12, "velocity": 122}, {"time": 773, "pitch": 64, "duration": 13, "velocity": 99}, {"time": 776, "pitch": 49, "duration": 3, "velocity": 95}, {"time": 779, "pitch": 56, "duration": 6, "velocity": 99}, {"time": 785, "pitch": 39, "duration": 18, "velocity": 99}, {"time": 791, "pitch": 46, "duration": 11, "velocity": 34}, {"time": 797, "pitch": 58, "duration": 12, "velocity": 92}, {"time": 797, "pitch": 63, "duration": 13, "velocity": 99}, {"time": 803, "pitch": 54, "duration": 6, "velocity": 88}, {"time": 809, "pitch": 44, "duration": 19, "velocity": 97}, {"time": 815, "pitch": 51, "duration": 7, "velocity": 88}, {"time": 821, "pitch": 63, "duration": 14, "velocity": 112}, {"time": 824, "pitch": 51, "duration": 3, "velocity": 86}, {"time": 827, "pitch": 59, "duration": 4, "velocity": 81}, {"time": 830, "pitch": 56, "duration": 4, "velocity": 107}, {"time": 833, "pitch": 37, "duration": 23, "velocity": 92}, {"time": 839, "pitch": 44, "duration": 18, "velocity": 60}, {"time": 845, "pitch": 49, "duration": 13, "velocity": 55}, {"time": 845, "pitch": 61, "duration": 14, "velocity": 90}, {"time": 851, "pitch": 56, "duration": 8, "velocity": 88}, {"time": 854, "pitch": 52, "duration": 3, "velocity": 69}, {"time": 857, "pitch": 37, "duration": 17, "velocity": 92}, {"time": 863, "pitch": 49, "duration": 8, "velocity": 93}, {"time": 869, "pitch": 61, "duration": 6, "velocity": 127}, {"time": 872, "pitch": 49, "duration": 3, "velocity": 83}, {"time": 875, "pitch": 56, "duration": 1, "velocity": 107}, {"time": 881, "pitch": 39, "duration": 20, "velocity": 99}, {"time": 881, "pitch": 55, "duration": 9, "velocity": 92}, {"time": 881, "pitch": 58, "duration": 8, "velocity": 102}, {"time": 887, "pitch": 46, "duration": 14, "velocity": 39}, {"time": 893, "pitch": 58, "duration": 7, "velocity": 127}, {"time": 893, "pitch": 63, "duration": 8, "velocity": 127}, {"time": 896, "pitch": 51, "duration": 6, "velocity": 107}, {"time": 899, "pitch": 55, "duration": 5, "velocity": 117}, {"time": 902, "pitch": 58, "duration": 3, "velocity": 112}, {"time": 905, "pitch": 39, "duration": 2, "velocity": 66}, {"time": 905, "pitch": 46, "duration": 2, "velocity": 90}, {"time": 905, "pitch": 51, "duration": 2, "velocity": 89}, {"time": 905, "pitch": 58, "duration": 2, "velocity": 107}, {"time": 905, "pitch": 63, "duration": 2, "velocity": 96}, {"time": 905, "pitch": 67, "duration": 2, "velocity": 83}, {"time": 908, "pitch": 39, "duration": 3, "velocity": 72}, {"time": 908, "pitch": 46, "duration": 3, "velocity": 97}, {"time": 908, "pitch": 51, "duration": 3, "velocity": 102}, {"time": 908, "pitch": 58, "duration": 3, "velocity": 112}, {"time": 908, "pitch": 63, "duration": 3, "velocity": 107}, {"time": 908, "pitch": 67, "duration": 3, "velocity": 95}, {"time": 929, "pitch": 44, "duration": 23, "velocity": 96}, {"time": 932, "pitch": 51, "duration": 18, "velocity": 88}, {"time": 935, "pitch": 56, "duration": 8, "velocity": 107}, {"time": 938, "pitch": 59, "duration": 7, "velocity": 92}, {"time": 941, "pitch": 68, "duration": 12, "velocity": 127}, {"time": 944, "pitch": 56, "duration": 5, "velocity": 102}, {"time": 947, "pitch": 63, "duration": 6, "velocity": 127}, {"time": 950, "pitch": 59, "duration": 3, "velocity": 107}, {"time": 953, "pitch": 37, "duration": 17, "velocity": 93}, {"time": 956, "pitch": 44, "duration": 13, "velocity": 33}, {"time": 959, "pitch": 49, "duration": 8, "velocity": 100}, {"time": 962, "pitch": 52, "duration": 7, "velocity": 96}, {"time": 965, "pitch": 61, "duration": 12, "velocity": 122}, {"time": 968, "pitch": 49, "duration": 3, "velocity": 107}, {"time": 971, "pitch": 56, "duration": 7, "velocity": 99}, {"time": 974, "pitch": 52, "duration": 3, "velocity": 97}, {"time": 977, "pitch": 42, "duration": 17, "velocity": 86}, {"time": 980, "pitch": 49, "duration": 14, "velocity": 72}, {"time": 983, "pitch": 54, "duration": 8, "velocity": 96}, {"time": 986, "pitch": 58, "duration": 5, "velocity": 88}, {"time": 989, "pitch": 66, "duration": 11, "velocity": 127}, {"time": 992, "pitch": 54, "duration": 3, "velocity": 97}, {"time": 995, "pitch": 61, "duration": 6, "velocity": 117}, {"time": 998, "pitch": 58, "duration": 3, "velocity": 99}, {"time": 1001, "pitch": 47, "duration": 17, "velocity": 78}, {"time": 1004, "pitch": 54, "duration": 11, "velocity": 107}, {"time": 1007, "pitch": 59, "duration": 7, "velocity": 95}, {"time": 1010, "pitch": 63, "duration": 4, "velocity": 117}, {"time": 1013, "pitch": 66, "duration": 12, "velocity": 122}, {"time": 1016, "pitch": 54, "duration": 2, "velocity": 83}, {"time": 1019, "pitch": 63, "duration": 6, "velocity": 117}, {"time": 1022, "pitch": 59, "duration": 10, "velocity": 97}, {"time": 1025, "pitch": 40, "duration": 17, "velocity": 97}, {"time": 1028, "pitch": 47, "duration": 14, "velocity": 99}, {"time": 1031, "pitch": 52, "duration": 8, "velocity": 97}, {"time": 1034, "pitch": 59, "duration": 6, "velocity": 90}, {"time": 1037, "pitch": 68, "duration": 13, "velocity": 127}, {"time": 1040, "pitch": 52, "duration": 2, "velocity": 93}, {"time": 1043, "pitch": 64, "duration": 6, "velocity": 96}, {"time": 1046, "pitch": 59, "duration": 3, "velocity": 100}, {"time": 1049, "pitch": 37, "duration": 16, "velocity": 83}, {"time": 1052, "pitch": 44, "duration": 13, "velocity": 86}, {"time": 1055, "pitch": 49, "duration": 7, "velocity": 88}, {"time": 1058, "pitch": 52, "duration": 8, "velocity": 85}, {"time": 1061, "pitch": 61, "duration": 11, "velocity": 107}, {"time": 1064, "pitch": 49, "duration": 2, "velocity": 90}, {"time": 1067, "pitch": 56, "duration": 5, "velocity": 107}, {"time": 1070, "pitch": 52, "duration": 2, "velocity": 96}, {"time": 1073, "pitch": 40, "duration": 16, "velocity": 95}, {"time": 1076, "pitch": 47, "duration": 13, "velocity": 78}, {"time": 1079, "pitch": 52, "duration": 8, "velocity": 122}, {"time": 1082, "pitch": 59, "duration": 5, "velocity": 89}, {"time": 1085, "pitch": 68, "duration": 12, "velocity": 127}, {"time": 1088, "pitch": 52, "duration": 2, "velocity": 112}, {"time": 1091, "pitch": 64, "duration": 6, "velocity": 112}, {"time": 1094, "pitch": 59, "duration": 3, "velocity": 112}, {"time": 1097, "pitch": 39, "duration": 16, "velocity": 97}, {"time": 1100, "pitch": 46, "duration": 13, "velocity": 55}, {"time": 1103, "pitch": 51, "duration": 8, "velocity": 112}, {"time": 1106, "pitch": 55, "duration": 7, "velocity": 99}, {"time": 1109, "pitch": 63, "duration": 12, "velocity": 127}, {"time": 1112, "pitch": 51, "duration": 3, "velocity": 112}, {"time": 1115, "pitch": 58, "duration": 5, "velocity": 122}, {"time": 1118, "pitch": 55, "duration": 3, "velocity": 107}, {"time": 1121, "pitch": 44, "duration": 17, "velocity": 88}, {"time": 1124, "pitch": 51, "duration": 14, "velocity": 73}, {"time": 1127, "pitch": 56, "duration": 7, "velocity": 99}, {"time": 1130, "pitch": 59, "duration": 7, "velocity": 97}, {"time": 1133, "pitch": 68, "duration": 11, "velocity": 127}, {"time": 1136, "pitch": 56, "duration": 1, "velocity": 99}, {"time": 1139, "pitch": 63, "duration": 6, "velocity": 122}, {"time": 1142, "pitch": 59, "duration": 4, "velocity": 112}, {"time": 1145, "pitch": 37, "duration": 17, "velocity": 81}, {"time": 1148, "pitch": 44, "duration": 14, "velocity": 61}, {"time": 1151, "pitch": 49, "duration": 7, "velocity": 93}, {"time": 1154, "pitch": 52, "duration": 7, "velocity": 95}, {"time": 1157, "pitch": 61, "duration": 12, "velocity": 127}, {"time": 1160, "pitch": 49, "duration": 5, "velocity": 97}, {"time": 1163, "pitch": 56, "duration": 6, "velocity": 117}, {"time": 1166, "pitch": 52, "duration": 3, "velocity": 100}, {"time": 1169, "pitch": 42, "duration": 17, "velocity": 97}, {"time": 1172, "pitch": 49, "duration": 14, "velocity": 78}, {"time": 1175, "pitch": 54, "duration": 8, "velocity": 102}, {"time": 1178, "pitch": 58, "duration": 4, "velocity": 100}, {"time": 1181, "pitch": 61, "duration": 5, "velocity": 127}, {"time": 1184, "pitch": 54, "duration": 4, "velocity": 102}, {"time": 1187, "pitch": 66, "duration": 7, "velocity": 117}, {"time": 1190, "pitch": 58, "duration": 3, "velocity": 97}, {"time": 1193, "pitch": 47, "duration": 17, "velocity": 83}, {"time": 1196, "pitch": 54, "duration": 11, "velocity": 102}, {"time": 1199, "pitch": 59, "duration": 6, "velocity": 85}, {"time": 1202, "pitch": 63, "duration": 4, "velocity": 117}, {"time": 1205, "pitch": 66, "duration": 10, "velocity": 122}, {"time": 1208, "pitch": 54, "duration": 2, "velocity": 95}, {"time": 1211, "pitch": 63, "duration": 4, "velocity": 122}, {"time": 1214, "pitch": 59, "duration": 9, "velocity": 97}, {"time": 1217, "pitch": 40, "duration": 17, "velocity": 89}, {"time": 1220, "pitch": 47, "duration": 14, "velocity": 69}, {"time": 1223, "pitch": 52, "duration": 8, "velocity": 102}, {"time": 1226, "pitch": 59, "duration": 5, "velocity": 89}, {"time": 1229, "pitch": 68, "duration": 12, "velocity": 127}, {"time": 1232, "pitch": 52, "duration": 2, "velocity": 96}, {"time": 1235, "pitch": 64, "duration": 6, "velocity": 90}, {"time": 1238, "pitch": 59, "duration": 4, "velocity": 102}, {"time": 1241, "pitch": 37, "duration": 17, "velocity": 89}, {"time": 1244, "pitch": 44, "duration": 14, "velocity": 47}, {"time": 1247, "pitch": 49, "duration": 8, "velocity": 93}, {"time": 1250, "pitch": 56, "duration": 4, "velocity": 88}, {"time": 1253, "pitch": 61, "duration": 7, "velocity": 82}, {"time": 1253, "pitch": 64, "duration": 12, "velocity": 100}, {"time": 1256, "pitch": 49, "duration": 3, "velocity": 99}, {"time": 1259, "pitch": 56, "duration": 5, "velocity": 107}, {"time": 1262, "pitch": 61, "duration": 3, "velocity": 100}, {"time": 1265, "pitch": 39, "duration": 16, "velocity": 99}, {"time": 1268, "pitch": 46, "duration": 12, "velocity": 64}, {"time": 1271, "pitch": 51, "duration": 8, "velocity": 102}, {"time": 1274, "pitch": 55, "duration": 7, "velocity": 89}, {"time": 1277, "pitch": 63, "duration": 12, "velocity": 127}, {"time": 1280, "pitch": 51, "duration": 3, "velocity": 97}, {"time": 1283, "pitch": 58, "duration": 6, "velocity": 117}, {"time": 1286, "pitch": 55, "duration": 3, "velocity": 89}, {"time": 1289, "pitch": 44, "duration": 19, "velocity": 82}, {"time": 1292, "pitch": 51, "duration": 14, "velocity": 65}, {"time": 1295, "pitch": 56, "duration": 8, "velocity": 81}, {"time": 1298, "pitch": 59, "duration": 16, "velocity": 74}, {"time": 1301, "pitch": 68, "duration": 13, "velocity": 117}, {"time": 1304, "pitch": 56, "duration": 3, "velocity": 50}, {"time": 1307, "pitch": 63, "duration": 7, "velocity": 83}, {"time": 1313, "pitch": 44, "duration": 17, "velocity": 96}, {"time": 1316, "pitch": 51, "duration": 13, "velocity": 27}, {"time": 1319, "pitch": 56, "duration": 7, "velocity": 95}, {"time": 1322, "pitch": 68, "duration": 15, "velocity": 127}, {"time": 1325, "pitch": 63, "duration": 7, "velocity": 127}, {"time": 1328, "pitch": 56, "duration": 1, "velocity": 92}, {"time": 1331, "pitch": 59, "duration": 7, "velocity": 82}, {"time": 1334, "pitch": 63, "duration": 3, "velocity": 112}, {"time": 1337, "pitch": 37, "duration": 18, "velocity": 74}, {"time": 1340, "pitch": 44, "duration": 16, "velocity": 97}, {"time": 1343, "pitch": 49, "duration": 8, "velocity": 77}, {"time": 1346, "pitch": 61, "duration": 16, "velocity": 112}, {"time": 1352, "pitch": 49, "duration": 5, "velocity": 89}, {"time": 1355, "pitch": 56, "duration": 6, "velocity": 112}, {"time": 1358, "pitch": 52, "duration": 3, "velocity": 90}, {"time": 1361, "pitch": 42, "duration": 17, "velocity": 82}, {"time": 1364, "pitch": 49, "duration": 14, "velocity": 58}, {"time": 1367, "pitch": 54, "duration": 8, "velocity": 90}, {"time": 1370, "pitch": 58, "duration": 4, "velocity": 68}, {"time": 1373, "pitch": 61, "duration": 7, "velocity": 107}, {"time": 1373, "pitch": 66, "duration": 13, "velocity": 100}, {"time": 1376, "pitch": 54, "duration": 3, "velocity": 92}, {"time": 1379, "pitch": 58, "duration": 5, "velocity": 82}, {"time": 1382, "pitch": 61, "duration": 4, "velocity": 93}, {"time": 1385, "pitch": 47, "duration": 17, "velocity": 72}, {"time": 1388, "pitch": 54, "duration": 5, "velocity": 95}, {"time": 1391, "pitch": 59, "duration": 7, "velocity": 68}, {"time": 1394, "pitch": 54, "duration": 5, "velocity": 72}, {"time": 1397, "pitch": 63, "duration": 13, "velocity": 82}, {"time": 1397, "pitch": 66, "duration": 13, "velocity": 76}, {"time": 1400, "pitch": 54, "duration": 2, "velocity": 93}, {"time": 1403, "pitch": 59, "duration": 10, "velocity": 89}, {"time": 1409, "pitch": 40, "duration": 17, "velocity": 85}, {"time": 1412, "pitch": 47, "duration": 14, "velocity": 77}, {"time": 1415, "pitch": 52, "duration": 8, "velocity": 85}, {"time": 1418, "pitch": 59, "duration": 4, "velocity": 83}, {"time": 1421, "pitch": 64, "duration": 7, "velocity": 85}, {"time": 1421, "pitch": 68, "duration": 13, "velocity": 96}, {"time": 1424, "pitch": 52, "duration": 1, "velocity": 83}, {"time": 1427, "pitch": 59, "duration": 7, "velocity": 92}, {"time": 1430, "pitch": 64, "duration": 4, "velocity": 96}, {"time": 1433, "pitch": 37, "duration": 19, "velocity": 81}, {"time": 1436, "pitch": 44, "duration": 14, "velocity": 63}, {"time": 1439, "pitch": 49, "duration": 8, "velocity": 95}, {"time": 1442, "pitch": 52, "duration": 4, "velocity": 69}, {"time": 1445, "pitch": 56, "duration": 7, "velocity": 90}, {"time": 1445, "pitch": 61, "duration": 12, "velocity": 100}, {"time": 1448, "pitch": 49, "duration": 5, "velocity": 89}, {"time": 1451, "pitch": 52, "duration": 5, "velocity": 90}, {"time": 1454, "pitch": 56, "duration": 3, "velocity": 102}, {"time": 1457, "pitch": 39, "duration": 16, "velocity": 90}, {"time": 1460, "pitch": 46, "duration": 13, "velocity": 32}, {"time": 1463, "pitch": 51, "duration": 8, "velocity": 97}, {"time": 1466, "pitch": 55, "duration": 4, "velocity": 72}, {"time": 1469, "pitch": 58, "duration": 12, "velocity": 97}, {"time": 1469, "pitch": 63, "duration": 13, "velocity": 97}, {"time": 1472, "pitch": 51, "duration": 3, "velocity": 92}, {"time": 1475, "pitch": 55, "duration": 6, "velocity": 86}, {"time": 1481, "pitch": 44, "duration": 26, "velocity": 72}, {"time": 1484, "pitch": 51, "duration": 22, "velocity": 39}, {"time": 1487, "pitch": 56, "duration": 19, "velocity": 88}, {"time": 1490, "pitch": 59, "duration": 17, "velocity": 67}, {"time": 1493, "pitch": 68, "duration": 14, "velocity": 100}, {"time": 1499, "pitch": 63, "duration": 8, "velocity": 83}, {"time": 1505, "pitch": 44, "duration": 2, "velocity": 96}, {"time": 1511, "pitch": 56, "duration": 9, "velocity": 89}, {"time": 1517, "pitch": 63, "duration": 13, "velocity": 90}, {"time": 1517, "pitch": 68, "duration": 13, "velocity": 102}, {"time": 1520, "pitch": 56, "duration": 2, "velocity": 70}, {"time": 1523, "pitch": 59, "duration": 7, "velocity": 90}, {"time": 1529, "pitch": 42, "duration": 17, "velocity": 92}, {"time": 1535, "pitch": 49, "duration": 10, "velocity": 48}, {"time": 1541, "pitch": 54, "duration": 4, "velocity": 56}, {"time": 1541, "pitch": 61, "duration": 13, "velocity": 90}, {"time": 1541, "pitch": 66, "duration": 13, "velocity": 90}, {"time": 1547, "pitch": 58, "duration": 7, "velocity": 86}, {"time": 1553, "pitch": 40, "duration": 17, "velocity": 86}, {"time": 1559, "pitch": 47, "duration": 12, "velocity": 62}, {"time": 1565, "pitch": 52, "duration": 8, "velocity": 75}, {"time": 1565, "pitch": 64, "duration": 13, "velocity": 82}, {"time": 1565, "pitch": 68, "duration": 13, "velocity": 88}, {"time": 1571, "pitch": 59, "duration": 8, "velocity": 76}, {"time": 1577, "pitch": 47, "duration": 17, "velocity": 89}, {"time": 1583, "pitch": 54, "duration": 8, "velocity": 92}, {"time": 1589, "pitch": 66, "duration": 13, "velocity": 117}, {"time": 1592, "pitch": 54, "duration": 2, "velocity": 97}, {"time": 1595, "pitch": 63, "duration": 7, "velocity": 99}, {"time": 1598, "pitch": 59, "duration": 4, "velocity": 89}, {"time": 1601, "pitch": 37, "duration": 19, "velocity": 71}, {"time": 1607, "pitch": 44, "duration": 14, "velocity": 37}, {"time": 1613, "pitch": 49, "duration": 9, "velocity": 65}, {"time": 1613, "pitch": 61, "duration": 12, "velocity": 63}, {"time": 1613, "pitch": 64, "duration": 12, "velocity": 73}, {"time": 1619, "pitch": 56, "duration": 6, "velocity": 75}, {"time": 1625, "pitch": 39, "duration": 17, "velocity": 77}, {"time": 1631, "pitch": 46, "duration": 12, "velocity": 53}, {"time": 1637, "pitch": 51, "duration": 5, "velocity": 66}, {"time": 1637, "pitch": 58, "duration": 2, "velocity": 72}, {"time": 1637, "pitch": 63, "duration": 10, "velocity": 88}, {"time": 1643, "pitch": 58, "duration": 3, "velocity": 46}, {"time": 1649, "pitch": 40, "duration": 5, "velocity": 85}, {"time": 1649, "pitch": 59, "duration": 6, "velocity": 89}, {"time": 1649, "pitch": 64, "duration": 5, "velocity": 95}, {"time": 1649, "pitch": 68, "duration": 5, "velocity": 96}, {"time": 1661, "pitch": 42, "duration": 7, "velocity": 96}, {"time": 1661, "pitch": 54, "duration": 7, "velocity": 93}, {"time": 1661, "pitch": 58, "duration": 7, "velocity": 95}, {"time": 1661, "pitch": 61, "duration": 7, "velocity": 82}, {"time": 1673, "pitch": 44, "duration": 20, "velocity": 93}, {"time": 1679, "pitch": 51, "duration": 13, "velocity": 52}, {"time": 1685, "pitch": 68, "duration": 12, "velocity": 112}, {"time": 1688, "pitch": 56, "duration": 4, "velocity": 96}, {"time": 1691, "pitch": 63, "duration": 6, "velocity": 127}, {"time": 1694, "pitch": 59, "duration": 3, "velocity": 100}, {"time": 1697, "pitch": 37, "duration": 17, "velocity": 92}, {"time": 1703, "pitch": 49, "duration": 8, "velocity": 88}, {"time": 1709, "pitch": 56, "duration": 3, "velocity": 100}, {"time": 1709, "pitch": 61, "duration": 19, "velocity": 107}, {"time": 1709, "pitch": 64, "duration": 19, "velocity": 102}, {"time": 1712, "pitch": 49, "duration": 4, "velocity": 78}, {"time": 1715, "pitch": 56, "duration": 13, "velocity": 112}, {"time": 1721, "pitch": 37, "duration": 16, "velocity": 112}, {"time": 1727, "pitch": 49, "duration": 7, "velocity": 49}, {"time": 1730, "pitch": 56, "duration": 1, "velocity": 27}, {"time": 1733, "pitch": 61, "duration": 12, "velocity": 122}, {"time": 1733, "pitch": 64, "duration": 13, "velocity": 99}, {"time": 1736, "pitch": 49, "duration": 3, "velocity": 95}, {"time": 1739, "pitch": 56, "duration": 6, "velocity": 99}, {"time": 1745, "pitch": 39, "duration": 18, "velocity": 99}, {"time": 1751, "pitch": 46, "duration": 11, "velocity": 34}, {"time": 1757, "pitch": 58, "duration": 12, "velocity": 92}, {"time": 1757, "pitch": 63, "duration": 13, "velocity": 99}, {"time": 1763, "pitch": 54, "duration": 6, "velocity": 88}, {"time": 1769, "pitch": 44, "duration": 19, "velocity": 97}, {"time": 1775, "pitch": 51, "duration": 7, "velocity": 88}, {"time": 1781, "pitch": 63, "duration": 14, "velocity": 112}, {"time": 1784, "pitch": 51, "duration": 3, "velocity": 86}, {"time": 1787, "pitch": 59, "duration": 4, "velocity": 81}, {"time": 1790, "pitch": 56, "duration": 4, "velocity": 107}, {"time": 1793, "pitch": 37, "duration": 23, "velocity": 92}, {"time": 1799, "pitch": 44, "duration": 18, "velocity": 60}, {"time": 1805, "pitch": 49, "duration": 13, "velocity": 55}, {"time": 1805, "pitch": 61, "duration": 14, "velocity": 90}, {"time": 1811, "pitch": 56, "duration": 8, "velocity": 88}, {"time": 1814, "pitch": 52, "duration": 3, "velocity": 69}, {"time": 1817, "pitch": 37, "duration": 17, "velocity": 92}, {"time": 1823, "pitch": 49, "duration": 8, "velocity": 93}, {"time": 1829, "pitch": 61, "duration": 6, "velocity": 127}, {"time": 1832, "pitch": 49, "duration": 3, "velocity": 83}, {"time": 1835, "pitch": 56, "duration": 1, "velocity": 107}, {"time": 1841, "pitch": 39, "duration": 20, "velocity": 99}, {"time": 1841, "pitch": 55, "duration": 9, "velocity": 92}, {"time": 1841, "pitch": 58, "duration": 8, "velocity": 102}, {"time": 1847, "pitch": 46, "duration": 14, "velocity": 39}, {"time": 1853, "pitch": 58, "duration": 7, "velocity": 127}, {"time": 1853, "pitch": 63, "duration": 8, "velocity": 127}, {"time": 1856, "pitch": 51, "duration": 6, "velocity": 107}, {"time": 1859, "pitch": 55, "duration": 5, "velocity": 117}, {"time": 1862, "pitch": 58, "duration": 3, "velocity": 112}, {"time": 1865, "pitch": 39, "duration": 2, "velocity": 66}, {"time": 1865, "pitch": 46, "duration": 2, "velocity": 90}, {"time": 1865, "pitch": 51, "duration": 2, "velocity": 89}, {"time": 1865, "pitch": 58, "duration": 2, "velocity": 107}, {"time": 1865, "pitch": 63, "duration": 2, "velocity": 96}, {"time": 1865, "pitch": 67, "duration": 2, "velocity": 83}, {"time": 1868, "pitch": 39, "duration": 3, "velocity": 72}, {"time": 1868, "pitch": 46, "duration": 3, "velocity": 97}, {"time": 1868, "pitch": 51, "duration": 3, "velocity": 102}, {"time": 1868, "pitch": 58, "duration": 3, "velocity": 112}, {"time": 1868, "pitch": 63, "duration": 3, "velocity": 107}, {"time": 1868, "pitch": 67, "duration": 3, "velocity": 95}, {"time": 1889, "pitch": 44, "duration": 23, "velocity": 96}, {"time": 1892, "pitch": 51, "duration": 18, "velocity": 88}, {"time": 1895, "pitch": 56, "duration": 8, "velocity": 107}, {"time": 1898, "pitch": 59, "duration": 7, "velocity": 92}, {"time": 1901, "pitch": 68, "duration": 12, "velocity": 127}, {"time": 1904, "pitch": 56, "duration": 5, "velocity": 102}, {"time": 1907, "pitch": 63, "duration": 6, "velocity": 127}, {"time": 1910, "pitch": 59, "duration": 3, "velocity": 107}, {"time": 1913, "pitch": 37, "duration": 17, "velocity": 93}, {"time": 1916, "pitch": 44, "duration": 13, "velocity": 33}, {"time": 1919, "pitch": 49, "duration": 8, "velocity": 100}, {"time": 1922, "pitch": 52, "duration": 7, "velocity": 96}, {"time": 1925, "pitch": 61, "duration": 12, "velocity": 122}, {"time": 1928, "pitch": 49, "duration": 3, "velocity": 107}, {"time": 1931, "pitch": 56, "duration": 7, "velocity": 99}, {"time": 1934, "pitch": 52, "duration": 3, "velocity": 97}, {"time": 1937, "pitch": 42, "duration": 17, "velocity": 86}, {"time": 1940, "pitch": 49, "duration": 14, "velocity": 72}, {"time": 1943, "pitch": 54, "duration": 8, "velocity": 96}, {"time": 1946, "pitch": 58, "duration": 5, "velocity": 88}, {"time": 1949, "pitch": 66, "duration": 11, "velocity": 127}, {"time": 1952, "pitch": 54, "duration": 3, "velocity": 97}, {"time": 1955, "pitch": 61, "duration": 6, "velocity": 117}, {"time": 1958, "pitch": 58, "duration": 3, "velocity": 99}, {"time": 1961, "pitch": 47, "duration": 17, "velocity": 78}, {"time": 1964, "pitch": 54, "duration": 11, "velocity": 107}, {"time": 1967, "pitch": 59, "duration": 7, "velocity": 95}, {"time": 1970, "pitch": 63, "duration": 4, "velocity": 117}, {"time": 1973, "pitch": 66, "duration": 12, "velocity": 122}, {"time": 1976, "pitch": 54, "duration": 2, "velocity": 83}, {"time": 1979, "pitch": 63, "duration": 6, "velocity": 117}, {"time": 1982, "pitch": 59, "duration": 10, "velocity": 97}, {"time": 1985, "pitch": 40, "duration": 17, "velocity": 97}, {"time": 1988, "pitch": 47, "duration": 14, "velocity": 99}, {"time": 1991, "pitch": 52, "duration": 8, "velocity": 97}, {"time": 1994, "pitch": 59, "duration": 6, "velocity": 90}, {"time": 1997, "pitch": 68, "duration": 13, "velocity": 127}, {"time": 2000, "pitch": 52, "duration": 2, "velocity": 93}, {"time": 2003, "pitch": 64, "duration": 6, "velocity": 96}, {"time": 2006, "pitch": 59, "duration": 3, "velocity": 100}, {"time": 2009, "pitch": 37, "duration": 16, "velocity": 83}, {"time": 2012, "pitch": 44, "duration": 13, "velocity": 86}, {"time": 2015, "pitch": 49, "duration": 7, "velocity": 88}, {"time": 2018, "pitch": 52, "duration": 8, "velocity": 85}, {"time": 2021, "pitch": 61, "duration": 11, "velocity": 107}, {"time": 2024, "pitch": 49, "duration": 2, "velocity": 90}, {"time": 2027, "pitch": 56, "duration": 5, "velocity": 107}, {"time": 2030, "pitch": 52, "duration": 2, "velocity": 96}, {"time": 2033, "pitch": 40, "duration": 16, "velocity": 95}, {"time": 2036, "pitch": 47, "duration": 13, "velocity": 78}, {"time": 2039, "pitch": 52, "duration": 8, "velocity": 122}, {"time": 2042, "pitch": 59, "duration": 5, "velocity": 89}, {"time": 2045, "pitch": 68, "duration": 12, "velocity": 127}, {"time": 2048, "pitch": 52, "duration": 2, "velocity": 112}, {"time": 2051, "pitch": 64, "duration": 6, "velocity": 112}, {"time": 2054, "pitch": 59, "duration": 3, "velocity": 112}, {"time": 2057, "pitch": 39, "duration": 16, "velocity": 97}, {"time": 2060, "pitch": 46, "duration": 13, "velocity": 55}, {"time": 2063, "pitch": 51, "duration": 8, "velocity": 112}, {"time": 2066, "pitch": 55, "duration": 7, "velocity": 99}, {"time": 2069, "pitch": 63, "duration": 12, "velocity": 127}, {"time": 2072, "pitch": 51, "duration": 3, "velocity": 112}, {"time": 2075, "pitch": 58, "duration": 5, "velocity": 122}, {"time": 2078, "pitch": 55, "duration": 3, "velocity": 107}, {"time": 2081, "pitch": 44, "duration": 17, "velocity": 88}, {"time": 2084, "pitch": 51, "duration": 14, "velocity": 73}, {"time": 2087, "pitch": 56, "duration": 7, "velocity": 99}, {"time": 2090, "pitch": 59, "duration": 7, "velocity": 97}, {"time": 2093, "pitch": 68, "duration": 11, "velocity": 127}, {"time": 2096, "pitch": 56, "duration": 1, "velocity": 99}, {"time": 2099, "pitch": 63, "duration": 6, "velocity": 122}, {"time": 2102, "pitch": 59, "duration": 4, "velocity": 112}, {"time": 2105, "pitch": 37, "duration": 17, "velocity": 81}, {"time": 2108, "pitch": 44, "duration": 14, "velocity": 61}, {"time": 2111, "pitch": 49, "duration": 7, "velocity": 93}, {"time": 2114, "pitch": 52, "duration": 7, "velocity": 95}, {"time": 2117, "pitch": 61, "duration": 12, "velocity": 127}, {"time": 2120, "pitch": 49, "duration": 5, "velocity": 97}, {"time": 2123, "pitch": 56, "duration": 6, "velocity": 117}, {"time": 2126, "pitch": 52, "duration": 3, "velocity": 100}, {"time": 2129, "pitch": 42, "duration": 17, "velocity": 97}, {"time": 2132, "pitch": 49, "duration": 14, "velocity": 78}, {"time": 2135, "pitch": 54, "duration": 8, "velocity": 102}, {"time": 2138, "pitch": 58, "duration": 4, "velocity": 100}, {"time": 2141, "pitch": 61, "duration": 5, "velocity": 127}, {"time": 2144, "pitch": 54, "duration": 4, "velocity": 102}, {"time": 2147, "pitch": 66, "duration": 7, "velocity": 117}, {"time": 2150, "pitch": 58, "duration": 3, "velocity": 97}, {"time": 2153, "pitch": 47, "duration": 17, "velocity": 83}, {"time": 2156, "pitch": 54, "duration": 11, "velocity": 102}, {"time": 2159, "pitch": 59, "duration": 6, "velocity": 85}, {"time": 2162, "pitch": 63, "duration": 4, "velocity": 117}, {"time": 2165, "pitch": 66, "duration": 10, "velocity": 122}, {"time": 2168, "pitch": 54, "duration": 2, "velocity": 95}, {"time": 2171, "pitch": 63, "duration": 4, "velocity": 122}, {"time": 2174, "pitch": 59, "duration": 9, "velocity": 97}, {"time": 2177, "pitch": 40, "duration": 17, "velocity": 89}, {"time": 2180, "pitch": 47, "duration": 14, "velocity": 69}, {"time": 2183, "pitch": 52, "duration": 8, "velocity": 102}, {"time": 2186, "pitch": 59, "duration": 5, "velocity": 89}, {"time": 2189, "pitch": 68, "duration": 12, "velocity": 127}, {"time": 2192, "pitch": 52, "duration": 2, "velocity": 96}, {"time": 2195, "pitch": 64, "duration": 6, "velocity": 90}, {"time": 2198, "pitch": 59, "duration": 4, "velocity": 102}, {"time": 2201, "pitch": 37, "duration": 17, "velocity": 89}, {"time": 2204, "pitch": 44, "duration": 14, "velocity": 47}, {"time": 2207, "pitch": 49, "duration": 8, "velocity": 93}, {"time": 2210, "pitch": 56, "duration": 4, "velocity": 88}, {"time": 2213, "pitch": 61, "duration": 7, "velocity": 82}, {"time": 2213, "pitch": 64, "duration": 12, "velocity": 100}, {"time": 2216, "pitch": 49, "duration": 3, "velocity": 99}, {"time": 2219, "pitch": 56, "duration": 5, "velocity": 107}, {"time": 2222, "pitch": 61, "duration": 3, "velocity": 100}, {"time": 2225, "pitch": 39, "duration": 16, "velocity": 99}, {"time": 2228, "pitch": 46, "duration": 12, "velocity": 64}, {"time": 2231, "pitch": 51, "duration": 8, "velocity": 102}, {"time": 2234, "pitch": 55, "duration": 7, "velocity": 89}, {"time": 2237, "pitch": 63, "duration": 12, "velocity": 127}, {"time": 2240, "pitch": 51, "duration": 3, "velocity": 97}, {"time": 2243, "pitch": 58, "duration": 6, "velocity": 117}, {"time": 2246, "pitch": 55, "duration": 3, "velocity": 89}, {"time": 2249, "pitch": 44, "duration": 19, "velocity": 82}, {"time": 2252, "pitch": 51, "duration": 14, "velocity": 65}, {"time": 2255, "pitch": 56, "duration": 8, "velocity": 81}, {"time": 2258, "pitch": 59, "duration": 15, "velocity": 74}, {"time": 2261, "pitch": 68, "duration": 12, "velocity": 117}, {"time": 2264, "pitch": 56, "duration": 3, "velocity": 50}, {"time": 2267, "pitch": 63, "duration": 6, "velocity": 83}, {"time": 2273, "pitch": 44, "duration": 23, "velocity": 96}, {"time": 2276, "pitch": 51, "duration": 18, "velocity": 88}, {"time": 2279, "pitch": 56, "duration": 8, "velocity": 107}, {"time": 2282, "pitch": 59, "duration": 7, "velocity": 92}, {"time": 2285, "pitch": 68, "duration": 12, "velocity": 127}, {"time": 2288, "pitch": 56, "duration": 5, "velocity": 102}, {"time": 2291, "pitch": 63, "duration": 6, "velocity": 127}, {"time": 2294, "pitch": 59, "duration": 3, "velocity": 107}, {"time": 2297, "pitch": 37, "duration": 17, "velocity": 93}, {"time": 2300, "pitch": 44, "duration": 13, "velocity": 33}, {"time": 2303, "pitch": 49, "duration": 8, "velocity": 100}, {"time": 2306, "pitch": 52, "duration": 7, "velocity": 96}, {"time": 2309, "pitch": 61, "duration": 12, "velocity": 122}, {"time": 2312, "pitch": 49, "duration": 3, "velocity": 107}, {"time": 2315, "pitch": 56, "duration": 7, "velocity": 99}, {"time": 2318, "pitch": 52, "duration": 3, "velocity": 97}, {"time": 2321, "pitch": 42, "duration": 17, "velocity": 86}, {"time": 2324, "pitch": 49, "duration": 14, "velocity": 72}, {"time": 2327, "pitch": 54, "duration": 8, "velocity": 96}, {"time": 2330, "pitch": 58, "duration": 5, "velocity": 88}, {"time": 2333, "pitch": 66, "duration": 11, "velocity": 127}, {"time": 2336, "pitch": 54, "duration": 3, "velocity": 97}, {"time": 2339, "pitch": 61, "duration": 6, "velocity": 117}, {"time": 2342, "pitch": 58, "duration": 3, "velocity": 99}, {"time": 2345, "pitch": 47, "duration": 17, "velocity": 78}, {"time": 2348, "pitch": 54, "duration": 11, "velocity": 107}, {"time": 2351, "pitch": 59, "duration": 7, "velocity": 95}, {"time": 2354, "pitch": 63, "duration": 4, "velocity": 117}, {"time": 2357, "pitch": 66, "duration": 12, "velocity": 122}, {"time": 2360, "pitch": 54, "duration": 2, "velocity": 83}, {"time": 2363, "pitch": 63, "duration": 6, "velocity": 117}, {"time": 2366, "pitch": 59, "duration": 10, "velocity": 97}, {"time": 2369, "pitch": 40, "duration": 17, "velocity": 97}, {"time": 2372, "pitch": 47, "duration": 14, "velocity": 99}, {"time": 2375, "pitch": 52, "duration": 8, "velocity": 97}, {"time": 2378, "pitch": 59, "duration": 6, "velocity": 90}, {"time": 2381, "pitch": 68, "duration": 13, "velocity": 127}, {"time": 2384, "pitch": 52, "duration": 2, "velocity": 93}, {"time": 2387, "pitch": 64, "duration": 6, "velocity": 96}, {"time": 2390, "pitch": 59, "duration": 3, "velocity": 100}, {"time": 2393, "pitch": 37, "duration": 16, "velocity": 83}, {"time": 2396, "pitch": 44, "duration": 13, "velocity": 86}, {"time": 2399, "pitch": 49, "duration": 7, "velocity": 88}, {"time": 2402, "pitch": 52, "duration": 8, "velocity": 85}, {"time": 2405, "pitch": 61, "duration": 11, "velocity": 107}, {"time": 2408, "pitch": 49, "duration": 2, "velocity": 90}, {"time": 2411, "pitch": 56, "duration": 5, "velocity": 107}, {"time": 2414, "pitch": 52, "duration": 2, "velocity": 96}, {"time": 2417, "pitch": 40, "duration": 16, "velocity": 95}, {"time": 2420, "pitch": 47, "duration": 13, "velocity": 78}, {"time": 2423, "pitch": 52, "duration": 8, "velocity": 122}, {"time": 2426, "pitch": 59, "duration": 5, "velocity": 89}, {"time": 2429, "pitch": 68, "duration": 12, "velocity": 127}, {"time": 2432, "pitch": 52, "duration": 2, "velocity": 112}, {"time": 2435, "pitch": 64, "duration": 6, "velocity": 112}, {"time": 2438, "pitch": 59, "duration": 3, "velocity": 112}, {"time": 2441, "pitch": 39, "duration": 16, "velocity": 97}, {"time": 2444, "pitch": 46, "duration": 13, "velocity": 55}, {"time": 2447, "pitch": 51, "duration": 8, "velocity": 112}, {"time": 2450, "pitch": 55, "duration": 7, "velocity": 99}, {"time": 2453, "pitch": 63, "duration": 12, "velocity": 127}, {"time": 2456, "pitch": 51, "duration": 3, "velocity": 112}, {"time": 2459, "pitch": 58, "duration": 5, "velocity": 122}, {"time": 2462, "pitch": 55, "duration": 3, "velocity": 107}, {"time": 2465, "pitch": 44, "duration": 17, "velocity": 88}, {"time": 2468, "pitch": 51, "duration": 14, "velocity": 73}, {"time": 2471, "pitch": 56, "duration": 7, "velocity": 99}, {"time": 2474, "pitch": 59, "duration": 7, "velocity": 97}, {"time": 2477, "pitch": 68, "duration": 11, "velocity": 127}, {"time": 2480, "pitch": 56, "duration": 1, "velocity": 99}, {"time": 2483, "pitch": 63, "duration": 6, "velocity": 122}, {"time": 2486, "pitch": 59, "duration": 4, "velocity": 112}, {"time": 2489, "pitch": 37, "duration": 17, "velocity": 81}, {"time": 2492, "pitch": 44, "duration": 14, "velocity": 61}, {"time": 2495, "pitch": 49, "duration": 7, "velocity": 93}, {"time": 2498, "pitch": 52, "duration": 7, "velocity": 95}, {"time": 2501, "pitch": 61, "duration": 12, "velocity": 127}, {"time": 2504, "pitch": 49, "duration": 5, "velocity": 97}, {"time": 2507, "pitch": 56, "duration": 6, "velocity": 117}, {"time": 2510, "pitch": 52, "duration": 3, "velocity": 100}, {"time": 2513, "pitch": 42, "duration": 17, "velocity": 97}, {"time": 2516, "pitch": 49, "duration": 14, "velocity": 78}, {"time": 2519, "pitch": 54, "duration": 8, "velocity": 102}, {"time": 2522, "pitch": 58, "duration": 4, "velocity": 100}, {"time": 2525, "pitch": 61, "duration": 5, "velocity": 127}, {"time": 2528, "pitch": 54, "duration": 4, "velocity": 102}, {"time": 2531, "pitch": 66, "duration": 7, "velocity": 117}, {"time": 2534, "pitch": 58, "duration": 3, "velocity": 97}, {"time": 2537, "pitch": 47, "duration": 17, "velocity": 83}, {"time": 2540, "pitch": 54, "duration": 11, "velocity": 102}, {"time": 2543, "pitch": 59, "duration": 6, "velocity": 85}, {"time": 2546, "pitch": 63, "duration": 4, "velocity": 117}, {"time": 2549, "pitch": 66, "duration": 10, "velocity": 122}, {"time": 2552, "pitch": 54, "duration": 2, "velocity": 95}, {"time": 2555, "pitch": 63, "duration": 4, "velocity": 122}, {"time": 2558, "pitch": 59, "duration": 9, "velocity": 97}, {"time": 2561, "pitch": 40, "duration": 17, "velocity": 89}, {"time": 2564, "pitch": 47, "duration": 14, "velocity": 69}, {"time": 2567, "pitch": 52, "duration": 8, "velocity": 102}, {"time": 2570, "pitch": 59, "duration": 5, "velocity": 89}, {"time": 2573, "pitch": 68, "duration": 12, "velocity": 127}, {"time": 2576, "pitch": 52, "duration": 2, "velocity": 96}, {"time": 2579, "pitch": 64, "duration": 6, "velocity": 90}, {"time": 2582, "pitch": 59, "duration": 4, "velocity": 102}, {"time": 2585, "pitch": 37, "duration": 17, "velocity": 89}, {"time": 2588, "pitch": 44, "duration": 14, "velocity": 47}, {"time": 2591, "pitch": 49, "duration": 8, "velocity": 93}, {"time": 2594, "pitch": 56, "duration": 4, "velocity": 88}, {"time": 2597, "pitch": 61, "duration": 7, "velocity": 82}, {"time": 2597, "pitch": 64, "duration": 12, "velocity": 100}, {"time": 2600, "pitch": 49, "duration": 3, "velocity": 99}, {"time": 2603, "pitch": 56, "duration": 5, "velocity": 107}, {"time": 2606, "pitch": 61, "duration": 3, "velocity": 100}, {"time": 2609, "pitch": 39, "duration": 16, "velocity": 99}, {"time": 2612, "pitch": 46, "duration": 12, "velocity": 64}, {"time": 2615, "pitch": 51, "duration": 8, "velocity": 102}, {"time": 2618, "pitch": 55, "duration": 7, "velocity": 89}, {"time": 2621, "pitch": 63, "duration": 12, "velocity": 127}, {"time": 2624, "pitch": 51, "duration": 3, "velocity": 97}, {"time": 2627, "pitch": 58, "duration": 6, "velocity": 117}, {"time": 2630, "pitch": 55, "duration": 3, "velocity": 89}, {"time": 2633, "pitch": 39, "duration": 3, "velocity": 65}, {"time": 2633, "pitch": 51, "duration": 3, "velocity": 79}, {"time": 2633, "pitch": 63, "duration": 4, "velocity": 92}, {"time": 2633, "pitch": 67, "duration": 3, "velocity": 85}, {"time": 2633, "pitch": 70, "duration": 3, "velocity": 88}, {"time": 2636, "pitch": 39, "duration": 2, "velocity": 65}, {"time": 2636, "pitch": 51, "duration": 1, "velocity": 88}, {"time": 2639, "pitch": 63, "duration": 2, "velocity": 96}, {"time": 2639, "pitch": 67, "duration": 1, "velocity": 97}, {"time": 2639, "pitch": 70, "duration": 2, "velocity": 88}, {"time": 2642, "pitch": 39, "duration": 1, "velocity": 88}, {"time": 2642, "pitch": 51, "duration": 1, "velocity": 82}, {"time": 2642, "pitch": 63, "duration": 1, "velocity": 97}, {"time": 2642, "pitch": 67, "duration": 1, "velocity": 112}, {"time": 2642, "pitch": 70, "duration": 1, "velocity": 95}, {"time": 2645, "pitch": 39, "duration": 8, "velocity": 99}, {"time": 2645, "pitch": 51, "duration": 8, "velocity": 107}, {"time": 2645, "pitch": 63, "duration": 8, "velocity": 112}, {"time": 2645, "pitch": 67, "duration": 8, "velocity": 117}, {"time": 2645, "pitch": 70, "duration": 8, "velocity": 112}, {"time": 2657, "pitch": 44, "duration": 17, "velocity": 88}, {"time": 2660, "pitch": 51, "duration": 14, "velocity": 73}, {"time": 2663, "pitch": 56, "duration": 7, "velocity": 99}, {"time": 2666, "pitch": 59, "duration": 7, "velocity": 97}, {"time": 2669, "pitch": 68, "duration": 11, "velocity": 127}, {"time": 2672, "pitch": 56, "duration": 1, "velocity": 99}, {"time": 2675, "pitch": 63, "duration": 6, "velocity": 122}, {"time": 2678, "pitch": 59, "duration": 4, "velocity": 112}, {"time": 2681, "pitch": 37, "duration": 17, "velocity": 81}, {"time": 2684, "pitch": 44, "duration": 14, "velocity": 61}, {"time": 2687, "pitch": 49, "duration": 7, "velocity": 93}, {"time": 2690, "pitch": 52, "duration": 7, "velocity": 95}, {"time": 2693, "pitch": 61, "duration": 12, "velocity": 127}, {"time": 2696, "pitch": 49, "duration": 5, "velocity": 97}, {"time": 2699, "pitch": 56, "duration": 6, "velocity": 117}, {"time": 2702, "pitch": 52, "duration": 3, "velocity": 100}, {"time": 2705, "pitch": 42, "duration": 17, "velocity": 97}, {"time": 2708, "pitch": 49, "duration": 14, "velocity": 78}, {"time": 2711, "pitch": 54, "duration": 8, "velocity": 102}, {"time": 2714, "pitch": 58, "duration": 4, "velocity": 100}, {"time": 2717, "pitch": 61, "duration": 5, "velocity": 127}, {"time": 2720, "pitch": 54, "duration": 4, "velocity": 102}, {"time": 2723, "pitch": 66, "duration": 7, "velocity": 117}, {"time": 2726, "pitch": 58, "duration": 3, "velocity": 97}, {"time": 2729, "pitch": 47, "duration": 17, "velocity": 83}, {"time": 2732, "pitch": 54, "duration": 11, "velocity": 102}, {"time": 2735, "pitch": 59, "duration": 6, "velocity": 85}, {"time": 2738, "pitch": 63, "duration": 4, "velocity": 117}, {"time": 2741, "pitch": 66, "duration": 10, "velocity": 122}, {"time": 2744, "pitch": 54, "duration": 2, "velocity": 95}, {"time": 2747, "pitch": 63, "duration": 4, "velocity": 122}, {"time": 2750, "pitch": 59, "duration": 9, "velocity": 97}, {"time": 2753, "pitch": 40, "duration": 17, "velocity": 89}, {"time": 2756, "pitch": 47, "duration": 14, "velocity": 69}, {"time": 2759, "pitch": 52, "duration": 8, "velocity": 102}, {"time": 2762, "pitch": 59, "duration": 5, "velocity": 89}, {"time": 2765, "pitch": 68, "duration": 12, "velocity": 127}, {"time": 2768, "pitch": 52, "duration": 2, "velocity": 96}, {"time": 2771, "pitch": 64, "duration": 6, "velocity": 90}, {"time": 2774, "pitch": 59, "duration": 4, "velocity": 102}, {"time": 2777, "pitch": 37, "duration": 17, "velocity": 89}, {"time": 2780, "pitch": 44, "duration": 14, "velocity": 47}, {"time": 2783, "pitch": 49, "duration": 8, "velocity": 93}, {"time": 2786, "pitch": 56, "duration": 4, "velocity": 88}, {"time": 2789, "pitch": 61, "duration": 7, "velocity": 82}, {"time": 2789, "pitch": 64, "duration": 12, "velocity": 100}, {"time": 2792, "pitch": 49, "duration": 3, "velocity": 99}, {"time": 2795, "pitch": 56, "duration": 5, "velocity": 107}, {"time": 2798, "pitch": 61, "duration": 3, "velocity": 100}, {"time": 2801, "pitch": 37, "duration": 12, "velocity": 66}, {"time": 2801, "pitch": 49, "duration": 12, "velocity": 63}, {"time": 2801, "pitch": 61, "duration": 12, "velocity": 66}, {"time": 2801, "pitch": 64, "duration": 12, "velocity": 69}, {"time": 2801, "pitch": 68, "duration": 12, "velocity": 68}, {"time": 2825, "pitch": 39, "duration": 13, "velocity": 48}, {"time": 2825, "pitch": 46, "duration": 12, "velocity": 36}, {"time": 2825, "pitch": 51, "duration": 14, "velocity": 38}, {"time": 2825, "pitch": 63, "duration": 14, "velocity": 44}, {"time": 2825, "pitch": 67, "duration": 14, "velocity": 60}, {"time": 2825, "pitch": 70, "duration": 15, "velocity": 56}, {"time": 2849, "pitch": 44, "duration": 18, "velocity": 97}, {"time": 2852, "pitch": 56, "duration": 10, "velocity": 62}, {"time": 2855, "pitch": 59, "duration": 9, "velocity": 72}, {"time": 2858, "pitch": 63, "duration": 4, "velocity": 107}, {"time": 2861, "pitch": 68, "duration": 13, "velocity": 122}, {"time": 2864, "pitch": 56, "duration": 2, "velocity": 68}, {"time": 2870, "pitch": 63, "duration": 4, "velocity": 112}, {"time": 2873, "pitch": 37, "duration": 17, "velocity": 86}, {"time": 2876, "pitch": 49, "duration": 17, "velocity": 67}, {"time": 2879, "pitch": 52, "duration": 13, "velocity": 63}, {"time": 2882, "pitch": 61, "duration": 15, "velocity": 100}, {"time": 2891, "pitch": 56, "duration": 7, "velocity": 85}, {"time": 2894, "pitch": 52, "duration": 3, "velocity": 68}, {"time": 2897, "pitch": 42, "duration": 16, "velocity": 73}, {"time": 2900, "pitch": 49, "duration": 13, "velocity": 53}, {"time": 2903, "pitch": 54, "duration": 8, "velocity": 78}, {"time": 2906, "pitch": 58, "duration": 9, "velocity": 62}, {"time": 2909, "pitch": 66, "duration": 12, "velocity": 95}, {"time": 2912, "pitch": 54, "duration": 3, "velocity": 78}, {"time": 2915, "pitch": 61, "duration": 5, "velocity": 34}, {"time": 2918, "pitch": 58, "duration": 3, "velocity": 56}, {"time": 2921, "pitch": 47, "duration": 17, "velocity": 66}, {"time": 2924, "pitch": 54, "duration": 11, "velocity": 88}, {"time": 2927, "pitch": 59, "duration": 7, "velocity": 72}, {"time": 2930, "pitch": 66, "duration": 14, "velocity": 122}, {"time": 2933, "pitch": 63, "duration": 8, "velocity": 52}, {"time": 2936, "pitch": 54, "duration": 2, "velocity": 42}, {"time": 2939, "pitch": 59, "duration": 12, "velocity": 86}, {"time": 2945, "pitch": 40, "duration": 17, "velocity": 75}, {"time": 2948, "pitch": 47, "duration": 14, "velocity": 61}, {"time": 2951, "pitch": 52, "duration": 8, "velocity": 73}, {"time": 2954, "pitch": 59, "duration": 8, "velocity": 72}, {"time": 2957, "pitch": 68, "duration": 11, "velocity": 112}, {"time": 2960, "pitch": 52, "duration": 2, "velocity": 59}, {"time": 2963, "pitch": 64, "duration": 5, "velocity": 52}, {"time": 2969, "pitch": 37, "duration": 19, "velocity": 90}, {"time": 2972, "pitch": 49, "duration": 18, "velocity": 63}, {"time": 2975, "pitch": 52, "duration": 10, "velocity": 69}, {"time": 2978, "pitch": 61, "duration": 15, "velocity": 96}, {"time": 2984, "pitch": 56, "duration": 9, "velocity": 75}, {"time": 2987, "pitch": 52, "duration": 5, "velocity": 66}, {"time": 2993, "pitch": 44, "duration": 20, "velocity": 81}, {"time": 2997, "pitch": 51, "duration": 15, "velocity": 28}, {"time": 2999, "pitch": 56, "duration": 7, "velocity": 79}, {"time": 3002, "pitch": 59, "duration": 11, "velocity": 76}, {"time": 3008, "pitch": 56, "duration": 5, "velocity": 66}, {"time": 3011, "pitch": 63, "duration": 5, "velocity": 95}, {"time": 3014, "pitch": 59, "duration": 31, "velocity": 60}, {"time": 3017, "pitch": 63, "duration": 28, "velocity": 66}, {"time": 3017, "pitch": 44, "duration": 29, "velocity": 63}, {"time": 3017, "pitch": 56, "duration": 28, "velocity": 60}, {"time": 3017, "pitch": 68, "duration": 28, "velocity": 76}, {"time": 3018, "pitch": 51, "duration": 27, "velocity": 53}], "annotations": [{"time": 17, "annotation": {"number": 64, "value": 0}, "group": "control_change"}, {"time": 41, "annotation": {"number": 64, "value": 127}, "group": "control_change"}, {"time": 59, "annotation": {"number": 64, "value": 127}, "group": "control_change"}, {"time": 71, "annotation": {"number": 64, "value": 0}, "group": "control_change"}, {"time": 79, "annotation": {"number": 64, "value": 0}, "group": "control_change"}, {"time": 85, "annotation": {"number": 64, "value": 127}, "group": "control_change"}, {"time": 104, "annotation": {"number": 64, "value": 0}, "group": "control_change"}, {"time": 114, "annotation": {"number": 64, "value": 127}, "group": "control_change"}, {"time": 128, "annotation": {"number": 64, "value": 0}, "group": "control_change"}, {"time": 141, "annotation": {"number": 64, "value": 127}, "group": "control_change"}, {"time": 164, "annotation": {"number": 64, "value": 127}, "group": "control_change"}, {"time": 184, "annotation": {"number": 64, "value": 0}, "group": "control_change"}, {"time": 186, "annotation": {"number": 64, "value": 127}, "group": "control_change"}, {"time": 208, "annotation": {"number": 64, "value": 0}, "group": "control_change"}, {"time": 210, "annotation": {"number": 64, "value": 127}, "group": "control_change"}, {"time": 231, "annotation": {"number": 64, "value": 0}, "group": "control_change"}, {"time": 235, "annotation": {"number": 64, "value": 127}, "group": "control_change"}, {"time": 252, "annotation": {"number": 64, "value": 0}, "group": "control_change"}, {"time": 258, "annotation": {"number": 64, "value": 127}, "group": "control_change"}, {"time": 279, "annotation": {"number": 64, "value": 0}, "group": "control_change"}, {"time": 282, "annotation": {"number": 64, "value": 127}, "group": "control_change"}, {"time": 303, "annotation": {"number": 64, "value": 0}, "group": "control_change"}, {"time": 306, "annotation": {"number": 64, "value": 127}, "group": "control_change"}, {"time": 328, "annotation": {"number": 64, "value": 0}, "group": "control_change"}, {"time": 341, "annotation": {"number": 64, "value": 127}, "group": "control_change"}, {"time": 349, "annotation": {"number": 64, "value": 0}, "group": "control_change"}, {"time": 354, "annotation": {"number": 64, "value": 127}, "group": "control_change"}, {"time": 374, "annotation": {"number": 64, "value": 0}, "group": "control_change"}, {"time": 378, "annotation": {"number": 64, "value": 127}, "group": "control_change"}, {"time": 398, "annotation": {"number": 64, "value": 0}, "group": "control_change"}, {"time": 402, "annotation": {"number": 64, "value": 127}, "group": "control_change"}, {"time": 424, "annotation": {"number": 64, "value": 0}, "group": "control_change"}, {"time": 427, "annotation": {"number": 64, "value": 127}, "group": "control_change"}, {"time": 447, "annotation": {"number": 64, "value": 0}, "group": "control_change"}, {"time": 450, "annotation": {"number": 64, "value": 127}, "group": "control_change"}, {"time": 471, "annotation": {"number": 64, "value": 0}, "group": "control_change"}, {"time": 474, "annotation": {"number": 64, "value": 127}, "group": "control_change"}, {"time": 496, "annotation": {"number": 64, "value": 0}, "group": "control_change"}, {"time": 498, "annotation": {"number": 64, "value": 127}, "group": "control_change"}, {"time": 520, "annotation": {"number": 64, "value": 0}, "group": "control_change"}, {"time": 522, "annotation": {"number": 64, "value": 127}, "group": "control_change"}, {"time": 543, "annotation": {"number": 64, "value": 0}, "group": "control_change"}, {"time": 546, "annotation": {"number": 64, "value": 127}, "group": "control_change"}, {"time": 567, "annotation": {"number": 64, "value": 0}, "group": "control_change"}, {"time": 570, "annotation": {"number": 64, "value": 127}, "group": "control_change"}, {"time": 592, "annotation": {"number": 64, "value": 0}, "group": "control_change"}, {"time": 594, "annotation": {"number": 64, "value": 127}, "group": "control_change"}, {"time": 615, "annotation": {"number": 64, "value": 0}, "group": "control_change"}, {"time": 618, "annotation": {"number": 64, "value": 127}, "group": "control_change"}, {"time": 640, "annotation": {"number": 64, "value": 0}, "group": "control_change"}, {"time": 642, "annotation": {"number": 64, "value": 127}, "group": "control_change"}, {"time": 664, "annotation": {"number": 64, "value": 0}, "group": "control_change"}, {"time": 666, "annotation": {"number": 64, "value": 127}, "group": "control_change"}, {"time": 688, "annotation": {"number": 64, "value": 0}, "group": "control_change"}, {"time": 690, "annotation": {"number": 64, "value": 127}, "group": "control_change"}, {"time": 701, "annotation": {"number": 64, "value": 0}, "group": "control_change"}, {"time": 707, "annotation": {"number": 64, "value": 127}, "group": "control_change"}, {"time": 712, "annotation": {"number": 64, "value": 0}, "group": "control_change"}, {"time": 714, "annotation": {"number": 64, "value": 127}, "group": "control_change"}, {"time": 733, "annotation": {"number": 64, "value": 0}, "group": "control_change"}, {"time": 738, "annotation": {"number": 64, "value": 127}, "group": "control_change"}, {"time": 759, "annotation": {"number": 64, "value": 0}, "group": "control_change"}, {"time": 762, "annotation": {"number": 64, "value": 127}, "group": "control_change"}, {"time": 784, "annotation": {"number": 64, "value": 0}, "group": "control_change"}, {"time": 786, "annotation": {"number": 64, "value": 127}, "group": "control_change"}, {"time": 807, "annotation": {"number": 64, "value": 0}, "group": "control_change"}, {"time": 810, "annotation": {"number": 64, "value": 127}, "group": "control_change"}, {"time": 831, "annotation": {"number": 64, "value": 0}, "group": "control_change"}, {"time": 834, "annotation": {"number": 64, "value": 127}, "group": "control_change"}, {"time": 855, "annotation": {"number": 64, "value": 0}, "group": "control_change"}, {"time": 858, "annotation": {"number": 64, "value": 127}, "group": "control_change"}, {"time": 880, "annotation": {"number": 64, "value": 0}, "group": "control_change"}, {"time": 882, "annotation": {"number": 64, "value": 127}, "group": "control_change"}, {"time": 904, "annotation": {"number": 64, "value": 0}, "group": "control_change"}, {"time": 917, "annotation": {"number": 64, "value": 127}, "group": "control_change"}, {"time": 927, "annotation": {"number": 64, "value": 0}, "group": "control_change"}, {"time": 930, "annotation": {"number": 64, "value": 127}, "group": "control_change"}, {"time": 951, "annotation": {"number": 64, "value": 0}, "group": "control_change"}, {"time": 954, "annotation": {"number": 64, "value": 127}, "group": "control_change"}, {"time": 976, "annotation": {"number": 64, "value": 0}, "group": "control_change"}, {"time": 978, "annotation": {"number": 64, "value": 127}, "group": "control_change"}, {"time": 1000, "annotation": {"number": 64, "value": 0}, "group": "control_change"}, {"time": 1002, "annotation": {"number": 64, "value": 127}, "group": "control_change"}, {"time": 1024, "annotation": {"number": 64, "value": 0}, "group": "control_change"}, {"time": 1026, "annotation": {"number": 64, "value": 127}, "group": "control_change"}, {"time": 1048, "annotation": {"number": 64, "value": 0}, "group": "control_change"}, {"time": 1050, "annotation": {"number": 64, "value": 127}, "group": "control_change"}, {"time": 1071, "annotation": {"number": 64, "value": 0}, "group": "control_change"}, {"time": 1074, "annotation": {"number": 64, "value": 127}, "group": "control_change"}, {"time": 1096, "annotation": {"number": 64, "value": 0}, "group": "control_change"}, {"time": 1098, "annotation": {"number": 64, "value": 127}, "group": "control_change"}, {"time": 1119, "annotation": {"number": 64, "value": 0}, "group": "control_change"}, {"time": 1122, "annotation": {"number": 64, "value": 127}, "group": "control_change"}, {"time": 1143, "annotation": {"number": 64, "value": 0}, "group": "control_change"}, {"time": 1146, "annotation": {"number": 64, "value": 127}, "group": "control_change"}, {"time": 1167, "annotation": {"number": 64, "value": 0}, "group": "control_change"}, {"time": 1170, "annotation": {"number": 64, "value": 127}, "group": "control_change"}, {"time": 1191, "annotation": {"number": 64, "value": 0}, "group": "control_change"}, {"time": 1194, "annotation": {"number": 64, "value": 127}, "group": "control_change"}, {"time": 1215, "annotation": {"number": 64, "value": 0}, "group": "control_change"}, {"time": 1218, "annotation": {"number": 64, "value": 127}, "group": "control_change"}, {"time": 1239, "annotation": {"number": 64, "value": 0}, "group": "control_change"}, {"time": 1242, "annotation": {"number": 64, "value": 127}, "group": "control_change"}, {"time": 1263, "annotation": {"number": 64, "value": 0}, "group": "control_change"}, {"time": 1266, "annotation": {"number": 64, "value": 127}, "group": "control_change"}, {"time": 1287, "annotation": {"number": 64, "value": 0}, "group": "control_change"}, {"time": 1290, "annotation": {"number": 64, "value": 127}, "group": "control_change"}, {"time": 1310, "annotation": {"number": 64, "value": 0}, "group": "control_change"}, {"time": 1314, "annotation": {"number": 64, "value": 127}, "group": "control_change"}, {"time": 1335, "annotation": {"number": 64, "value": 0}, "group": "control_change"}, {"time": 1337, "annotation": {"number": 64, "value": 127}, "group": "control_change"}, {"time": 1359, "annotation": {"number": 64, "value": 0}, "group": "control_change"}, {"time": 1362, "annotation": {"number": 64, "value": 127}, "group": "control_change"}, {"time": 1383, "annotation": {"number": 64, "value": 0}, "group": "control_change"}, {"time": 1386, "annotation": {"number": 64, "value": 127}, "group": "control_change"}, {"time": 1407, "annotation": {"number": 64, "value": 0}, "group": "control_change"}, {"time": 1410, "annotation": {"number": 64, "value": 127}, "group": "control_change"}, {"time": 1431, "annotation": {"number": 64, "value": 0}, "group": "control_change"}, {"time": 1434, "annotation": {"number": 64, "value": 127}, "group": "control_change"}, {"time": 1455, "annotation": {"number": 64, "value": 0}, "group": "control_change"}, {"time": 1458, "annotation": {"number": 64, "value": 127}, "group": "control_change"}, {"time": 1479, "annotation": {"number": 64, "value": 0}, "group": "control_change"}, {"time": 1482, "annotation": {"number": 64, "value": 127}, "group": "control_change"}, {"time": 1505, "annotation": {"number": 64, "value": 0}, "group": "control_change"}, {"time": 1506, "annotation": {"number": 64, "value": 127}, "group": "control_change"}, {"time": 1527, "annotation": {"number": 64, "value": 0}, "group": "control_change"}, {"time": 1530, "annotation": {"number": 64, "value": 127}, "group": "control_change"}, {"time": 1552, "annotation": {"number": 64, "value": 0}, "group": "control_change"}, {"time": 1554, "annotation": {"number": 64, "value": 127}, "group": "control_change"}, {"time": 1575, "annotation": {"number": 64, "value": 0}, "group": "control_change"}, {"time": 1578, "annotation": {"number": 64, "value": 127}, "group": "control_change"}, {"time": 1600, "annotation": {"number": 64, "value": 0}, "group": "control_change"}, {"time": 1602, "annotation": {"number": 64, "value": 127}, "group": "control_change"}, {"time": 1624, "annotation": {"number": 64, "value": 0}, "group": "control_change"}, {"time": 1626, "annotation": {"number": 64, "value": 127}, "group": "control_change"}, {"time": 1648, "annotation": {"number": 64, "value": 0}, "group": "control_change"}, {"time": 1650, "annotation": {"number": 64, "value": 127}, "group": "control_change"}, {"time": 1661, "annotation": {"number": 64, "value": 0}, "group": "control_change"}, {"time": 1667, "annotation": {"number": 64, "value": 127}, "group": "control_change"}, {"time": 1672, "annotation": {"number": 64, "value": 0}, "group": "control_change"}, {"time": 1674, "annotation": {"number": 64, "value": 127}, "group": "control_change"}, {"time": 1693, "annotation": {"number": 64, "value": 0}, "group": "control_change"}, {"time": 1698, "annotation": {"number": 64, "value": 127}, "group": "control_change"}, {"time": 1719, "annotation": {"number": 64, "value": 0}, "group": "control_change"}, {"time": 1722, "annotation": {"number": 64, "value": 127}, "group": "control_change"}, {"time": 1744, "annotation": {"number": 64, "value": 0}, "group": "control_change"}, {"time": 1746, "annotation": {"number": 64, "value": 127}, "group": "control_change"}, {"time": 1767, "annotation": {"number": 64, "value": 0}, "group": "control_change"}, {"time": 1770, "annotation": {"number": 64, "value": 127}, "group": "control_change"}, {"time": 1791, "annotation": {"number": 64, "value": 0}, "group": "control_change"}, {"time": 1794, "annotation": {"number": 64, "value": 127}, "group": "control_change"}, {"time": 1815, "annotation": {"number": 64, "value": 0}, "group": "control_change"}, {"time": 1818, "annotation": {"number": 64, "value": 127}, "group": "control_change"}, {"time": 1840, "annotation": {"number": 64, "value": 0}, "group": "control_change"}, {"time": 1842, "annotation": {"number": 64, "value": 127}, "group": "control_change"}, {"time": 1864, "annotation": {"number": 64, "value": 0}, "group": "control_change"}, {"time": 1877, "annotation": {"number": 64, "value": 127}, "group": "control_change"}, {"time": 1887, "annotation": {"number": 64, "value": 0}, "group": "control_change"}, {"time": 1890, "annotation": {"number": 64, "value": 127}, "group": "control_change"}, {"time": 1911, "annotation": {"number": 64, "value": 0}, "group": "control_change"}, {"time": 1914, "annotation": {"number": 64, "value": 127}, "group": "control_change"}, {"time": 1936, "annotation": {"number": 64, "value": 0}, "group": "control_change"}, {"time": 1938, "annotation": {"number": 64, "value": 127}, "group": "control_change"}, {"time": 1960, "annotation": {"number": 64, "value": 0}, "group": "control_change"}, {"time": 1962, "annotation": {"number": 64, "value": 127}, "group": "control_change"}, {"time": 1984, "annotation": {"number": 64, "value": 0}, "group": "control_change"}, {"time": 1986, "annotation": {"number": 64, "value": 127}, "group": "control_change"}, {"time": 2008, "annotation": {"number": 64, "value": 0}, "group": "control_change"}, {"time": 2010, "annotation": {"number": 64, "value": 127}, "group": "control_change"}, {"time": 2031, "annotation": {"number": 64, "value": 0}, "group": "control_change"}, {"time": 2034, "annotation": {"number": 64, "value": 127}, "group": "control_change"}, {"time": 2056, "annotation": {"number": 64, "value": 0}, "group": "control_change"}, {"time": 2058, "annotation": {"number": 64, "value": 127}, "group": "control_change"}, {"time": 2079, "annotation": {"number": 64, "value": 0}, "group": "control_change"}, {"time": 2082, "annotation": {"number": 64, "value": 127}, "group": "control_change"}, {"time": 2103, "annotation": {"number": 64, "value": 0}, "group": "control_change"}, {"time": 2106, "annotation": {"number": 64, "value": 127}, "group": "control_change"}, {"time": 2127, "annotation": {"number": 64, "value": 0}, "group": "control_change"}, {"time": 2130, "annotation": {"number": 64, "value": 127}, "group": "control_change"}, {"time": 2151, "annotation": {"number": 64, "value": 0}, "group": "control_change"}, {"time": 2154, "annotation": {"number": 64, "value": 127}, "group": "control_change"}, {"time": 2175, "annotation": {"number": 64, "value": 0}, "group": "control_change"}, {"time": 2178, "annotation": {"number": 64, "value": 127}, "group": "control_change"}, {"time": 2199, "annotation": {"number": 64, "value": 0}, "group": "control_change"}, {"time": 2202, "annotation": {"number": 64, "value": 127}, "group": "control_change"}, {"time": 2223, "annotation": {"number": 64, "value": 0}, "group": "control_change"}, {"time": 2226, "annotation": {"number": 64, "value": 127}, "group": "control_change"}, {"time": 2247, "annotation": {"number": 64, "value": 0}, "group": "control_change"}, {"time": 2250, "annotation": {"number": 64, "value": 127}, "group": "control_change"}, {"time": 2270, "annotation": {"number": 64, "value": 0}, "group": "control_change"}, {"time": 2274, "annotation": {"number": 64, "value": 127}, "group": "control_change"}, {"time": 2295, "annotation": {"number": 64, "value": 0}, "group": "control_change"}, {"time": 2298, "annotation": {"number": 64, "value": 127}, "group": "control_change"}, {"time": 2320, "annotation": {"number": 64, "value": 0}, "group": "control_change"}, {"time": 2322, "annotation": {"number": 64, "value": 127}, "group": "control_change"}, {"time": 2344, "annotation": {"number": 64, "value": 0}, "group": "control_change"}, {"time": 2346, "annotation": {"number": 64, "value": 127}, "group": "control_change"}, {"time": 2368, "annotation": {"number": 64, "value": 0}, "group": "control_change"}, {"time": 2370, "annotation": {"number": 64, "value": 127}, "group": "control_change"}, {"time": 2392, "annotation": {"number": 64, "value": 0}, "group": "control_change"}, {"time": 2394, "annotation": {"number": 64, "value": 127}, "group": "control_change"}, {"time": 2415, "annotation": {"number": 64, "value": 0}, "group": "control_change"}, {"time": 2418, "annotation": {"number": 64, "value": 127}, "group": "control_change"}, {"time": 2440, "annotation": {"number": 64, "value": 0}, "group": "control_change"}, {"time": 2442, "annotation": {"number": 64, "value": 127}, "group": "control_change"}, {"time": 2463, "annotation": {"number": 64, "value": 0}, "group": "control_change"}, {"time": 2466, "annotation": {"number": 64, "value": 127}, "group": "control_change"}, {"time": 2487, "annotation": {"number": 64, "value": 0}, "group": "control_change"}, {"time": 2490, "annotation": {"number": 64, "value": 127}, "group": "control_change"}, {"time": 2511, "annotation": {"number": 64, "value": 0}, "group": "control_change"}, {"time": 2514, "annotation": {"number": 64, "value": 127}, "group": "control_change"}, {"time": 2535, "annotation": {"number": 64, "value": 0}, "group": "control_change"}, {"time": 2538, "annotation": {"number": 64, "value": 127}, "group": "control_change"}, {"time": 2559, "annotation": {"number": 64, "value": 0}, "group": "control_change"}, {"time": 2562, "annotation": {"number": 64, "value": 127}, "group": "control_change"}, {"time": 2583, "annotation": {"number": 64, "value": 0}, "group": "control_change"}, {"time": 2586, "annotation": {"number": 64, "value": 127}, "group": "control_change"}, {"time": 2607, "annotation": {"number": 64, "value": 0}, "group": "control_change"}, {"time": 2610, "annotation": {"number": 64, "value": 127}, "group": "control_change"}, {"time": 2631, "annotation": {"number": 64, "value": 0}, "group": "control_change"}, {"time": 2649, "annotation": {"number": 64, "value": 127}, "group": "control_change"}, {"time": 2657, "annotation": {"number": 64, "value": 0}, "group": "control_change"}, {"time": 2658, "annotation": {"number": 64, "value": 127}, "group": "control_change"}, {"time": 2679, "annotation": {"number": 64, "value": 0}, "group": "control_change"}, {"time": 2682, "annotation": {"number": 64, "value": 127}, "group": "control_change"}, {"time": 2703, "annotation": {"number": 64, "value": 0}, "group": "control_change"}, {"time": 2706, "annotation": {"number": 64, "value": 127}, "group": "control_change"}, {"time": 2727, "annotation": {"number": 64, "value": 0}, "group": "control_change"}, {"time": 2730, "annotation": {"number": 64, "value": 127}, "group": "control_change"}, {"time": 2751, "annotation": {"number": 64, "value": 0}, "group": "control_change"}, {"time": 2754, "annotation": {"number": 64, "value": 127}, "group": "control_change"}, {"time": 2775, "annotation": {"number": 64, "value": 0}, "group": "control_change"}, {"time": 2778, "annotation": {"number": 64, "value": 127}, "group": "control_change"}, {"time": 2799, "annotation": {"number": 64, "value": 0}, "group": "control_change"}, {"time": 2805, "annotation": {"number": 64, "value": 127}, "group": "control_change"}, {"time": 2820, "annotation": {"number": 64, "value": 127}, "group": "control_change"}, {"time": 2823, "annotation": {"number": 64, "value": 0}, "group": "control_change"}, {"time": 2824, "annotation": {"number": 64, "value": 0}, "group": "control_change"}, {"time": 2832, "annotation": {"number": 64, "value": 127}, "group": "control_change"}, {"time": 2848, "annotation": {"number": 64, "value": 0}, "group": "control_change"}, {"time": 2850, "annotation": {"number": 64, "value": 127}, "group": "control_change"}, {"time": 2872, "annotation": {"number": 64, "value": 0}, "group": "control_change"}, {"time": 2874, "annotation": {"number": 64, "value": 127}, "group": "control_change"}, {"time": 2896, "annotation": {"number": 64, "value": 0}, "group": "control_change"}, {"time": 2898, "annotation": {"number": 64, "value": 127}, "group": "control_change"}, {"time": 2919, "annotation": {"number": 64, "value": 0}, "group": "control_change"}, {"time": 2922, "annotation": {"number": 64, "value": 127}, "group": "control_change"}, {"time": 2943, "annotation": {"number": 64, "value": 0}, "group": "control_change"}, {"time": 2946, "annotation": {"number": 64, "value": 127}, "group": "control_change"}, {"time": 2967, "annotation": {"number": 64, "value": 0}, "group": "control_change"}, {"time": 2982, "annotation": {"number": 64, "value": 127}, "group": "control_change"}, {"time": 2990, "annotation": {"number": 64, "value": 0}, "group": "control_change"}, {"time": 2994, "annotation": {"number": 64, "value": 127}, "group": "control_change"}, {"time": 3017, "annotation": {"number": 64, "value": 0}, "group": "control_change"}, {"time": 3033, "annotation": {"number": 64, "value": 127}, "group": "control_change"}, {"time": 3072, "annotation": {"number": 64, "value": 0}, "group": "control_change"}, {"time": 3073, "annotation": {"number": 64, "value": 127}, "group": "control_change"}, {"time": 3074, "annotation": {"number": 64, "value": 0}, "group": "control_change"}, {"time": 3075, "annotation": {"number": 64, "value": 127}, "group": "control_change"}, {"time": 3077, "annotation": {"number": 64, "value": 0}, "group": "control_change"}]}]}