{"metadata": {"schema_version": "0.2", "title": "None", "source_filename": "371.mid", "source_format": "midi"}, "resolution": 12, "tempos": [{"time": 0, "qpm": 84.32994935986541}, {"time": 2484, "qpm": 87.00002175000543}, {"time": 2508, "qpm": 84.32994935986541}], "time_signatures": [{"time": 0, "numerator": 1, "denominator": 4}], "tracks": [{"program": 0, "is_drum": false, "name": "MELODY", "notes": [{"time": 438, "pitch": 70, "duration": 8, "velocity": 127}, {"time": 450, "pitch": 70, "duration": 3, "velocity": 127}, {"time": 456, "pitch": 67, "duration": 2, "velocity": 122}, {"time": 459, "pitch": 70, "duration": 2, "velocity": 102}, {"time": 462, "pitch": 67, "duration": 4, "velocity": 107}, {"time": 468, "pitch": 67, "duration": 3, "velocity": 122}, {"time": 471, "pitch": 65, "duration": 2, "velocity": 90}, {"time": 474, "pitch": 63, "duration": 7, "velocity": 112}, {"time": 486, "pitch": 60, "duration": 7, "velocity": 117}, {"time": 495, "pitch": 63, "duration": 3, "velocity": 95}, {"time": 498, "pitch": 60, "duration": 3, "velocity": 100}, {"time": 504, "pitch": 58, "duration": 2, "velocity": 127}, {"time": 507, "pitch": 55, "duration": 3, "velocity": 90}, {"time": 510, "pitch": 58, "duration": 20, "velocity": 127}, {"time": 534, "pitch": 60, "duration": 8, "velocity": 107}, {"time": 543, "pitch": 67, "duration": 1, "velocity": 96}, {"time": 546, "pitch": 67, "duration": 4, "velocity": 96}, {"time": 552, "pitch": 60, "duration": 4, "velocity": 99}, {"time": 558, "pitch": 63, "duration": 4, "velocity": 127}, {"time": 564, "pitch": 65, "duration": 3, "velocity": 93}, {"time": 567, "pitch": 63, "duration": 2, "velocity": 112}, {"time": 570, "pitch": 60, "duration": 9, "velocity": 107}, {"time": 582, "pitch": 63, "duration": 1, "velocity": 127}, {"time": 585, "pitch": 63, "duration": 3, "velocity": 107}, {"time": 591, "pitch": 67, "duration": 3, "velocity": 102}, {"time": 594, "pitch": 65, "duration": 4, "velocity": 100}, {"time": 600, "pitch": 63, "duration": 4, "velocity": 112}, {"time": 606, "pitch": 65, "duration": 18, "velocity": 117}, {"time": 630, "pitch": 67, "duration": 8, "velocity": 112}, {"time": 642, "pitch": 67, "duration": 6, "velocity": 112}, {"time": 651, "pitch": 70, "duration": 2, "velocity": 127}, {"time": 654, "pitch": 67, "duration": 5, "velocity": 100}, {"time": 660, "pitch": 65, "duration": 5, "velocity": 97}, {"time": 666, "pitch": 63, "duration": 7, "velocity": 112}, {"time": 678, "pitch": 60, "duration": 4, "velocity": 97}, {"time": 684, "pitch": 60, "duration": 4, "velocity": 96}, {"time": 687, "pitch": 63, "duration": 3, "velocity": 112}, {"time": 690, "pitch": 65, "duration": 3, "velocity": 93}, {"time": 693, "pitch": 67, "duration": 4, "velocity": 95}, {"time": 696, "pitch": 65, "duration": 2, "velocity": 117}, {"time": 699, "pitch": 63, "duration": 2, "velocity": 117}, {"time": 702, "pitch": 60, "duration": 19, "velocity": 107}, {"time": 726, "pitch": 58, "duration": 4, "velocity": 127}, {"time": 732, "pitch": 58, "duration": 2, "velocity": 122}, {"time": 735, "pitch": 55, "duration": 2, "velocity": 96}, {"time": 738, "pitch": 58, "duration": 5, "velocity": 122}, {"time": 747, "pitch": 60, "duration": 2, "velocity": 95}, {"time": 750, "pitch": 63, "duration": 3, "velocity": 112}, {"time": 756, "pitch": 65, "duration": 2, "velocity": 102}, {"time": 759, "pitch": 63, "duration": 2, "velocity": 112}, {"time": 762, "pitch": 60, "duration": 10, "velocity": 117}, {"time": 774, "pitch": 70, "duration": 3, "velocity": 127}, {"time": 780, "pitch": 70, "duration": 3, "velocity": 117}, {"time": 783, "pitch": 67, "duration": 2, "velocity": 99}, {"time": 786, "pitch": 65, "duration": 3, "velocity": 102}, {"time": 789, "pitch": 67, "duration": 3, "velocity": 102}, {"time": 792, "pitch": 65, "duration": 2, "velocity": 89}, {"time": 795, "pitch": 63, "duration": 1, "velocity": 112}, {"time": 798, "pitch": 63, "duration": 21, "velocity": 112}, {"time": 822, "pitch": 70, "duration": 4, "velocity": 127}, {"time": 834, "pitch": 70, "duration": 4, "velocity": 127}, {"time": 846, "pitch": 70, "duration": 6, "velocity": 127}, {"time": 855, "pitch": 67, "duration": 3, "velocity": 127}, {"time": 858, "pitch": 70, "duration": 6, "velocity": 127}, {"time": 870, "pitch": 63, "duration": 6, "velocity": 127}, {"time": 882, "pitch": 63, "duration": 7, "velocity": 127}, {"time": 894, "pitch": 63, "duration": 6, "velocity": 127}, {"time": 903, "pitch": 60, "duration": 2, "velocity": 107}, {"time": 906, "pitch": 63, "duration": 8, "velocity": 127}, {"time": 918, "pitch": 67, "duration": 3, "velocity": 117}, {"time": 924, "pitch": 67, "duration": 2, "velocity": 99}, {"time": 927, "pitch": 70, "duration": 3, "velocity": 95}, {"time": 930, "pitch": 67, "duration": 4, "velocity": 102}, {"time": 936, "pitch": 65, "duration": 3, "velocity": 112}, {"time": 942, "pitch": 63, "duration": 3, "velocity": 127}, {"time": 945, "pitch": 60, "duration": 3, "velocity": 92}, {"time": 948, "pitch": 63, "duration": 2, "velocity": 127}, {"time": 951, "pitch": 65, "duration": 2, "velocity": 112}, {"time": 954, "pitch": 67, "duration": 5, "velocity": 127}, {"time": 966, "pitch": 65, "duration": 1, "velocity": 112}, {"time": 969, "pitch": 65, "duration": 3, "velocity": 100}, {"time": 975, "pitch": 67, "duration": 2, "velocity": 127}, {"time": 978, "pitch": 70, "duration": 4, "velocity": 122}, {"time": 984, "pitch": 70, "duration": 2, "velocity": 127}, {"time": 987, "pitch": 67, "duration": 2, "velocity": 97}, {"time": 990, "pitch": 65, "duration": 2, "velocity": 102}, {"time": 993, "pitch": 67, "duration": 2, "velocity": 102}, {"time": 996, "pitch": 65, "duration": 3, "velocity": 112}, {"time": 999, "pitch": 63, "duration": 3, "velocity": 127}, {"time": 1002, "pitch": 65, "duration": 7, "velocity": 99}, {"time": 1014, "pitch": 63, "duration": 5, "velocity": 127}, {"time": 1020, "pitch": 60, "duration": 3, "velocity": 102}, {"time": 1023, "pitch": 58, "duration": 2, "velocity": 122}, {"time": 1026, "pitch": 58, "duration": 11, "velocity": 122}, {"time": 1062, "pitch": 67, "duration": 2, "velocity": 112}, {"time": 1065, "pitch": 70, "duration": 3, "velocity": 117}, {"time": 1068, "pitch": 67, "duration": 2, "velocity": 96}, {"time": 1071, "pitch": 65, "duration": 4, "velocity": 97}, {"time": 1074, "pitch": 67, "duration": 15, "velocity": 100}, {"time": 1110, "pitch": 63, "duration": 1, "velocity": 127}, {"time": 1113, "pitch": 63, "duration": 3, "velocity": 112}, {"time": 1119, "pitch": 63, "duration": 1, "velocity": 117}, {"time": 1122, "pitch": 60, "duration": 5, "velocity": 107}, {"time": 1128, "pitch": 58, "duration": 3, "velocity": 100}, {"time": 1134, "pitch": 67, "duration": 1, "velocity": 122}, {"time": 1137, "pitch": 67, "duration": 3, "velocity": 102}, {"time": 1143, "pitch": 70, "duration": 2, "velocity": 127}, {"time": 1146, "pitch": 72, "duration": 3, "velocity": 107}, {"time": 1149, "pitch": 70, "duration": 2, "velocity": 102}, {"time": 1152, "pitch": 72, "duration": 6, "velocity": 112}, {"time": 1158, "pitch": 70, "duration": 12, "velocity": 122}, {"time": 1176, "pitch": 65, "duration": 4, "velocity": 97}, {"time": 1179, "pitch": 67, "duration": 3, "velocity": 99}, {"time": 1182, "pitch": 70, "duration": 3, "velocity": 107}, {"time": 1185, "pitch": 72, "duration": 4, "velocity": 88}, {"time": 1188, "pitch": 70, "duration": 10, "velocity": 127}, {"time": 1200, "pitch": 67, "duration": 2, "velocity": 107}, {"time": 1203, "pitch": 70, "duration": 2, "velocity": 117}, {"time": 1206, "pitch": 72, "duration": 5, "velocity": 107}, {"time": 1215, "pitch": 72, "duration": 3, "velocity": 117}, {"time": 1218, "pitch": 70, "duration": 4, "velocity": 127}, {"time": 1224, "pitch": 67, "duration": 4, "velocity": 127}, {"time": 1230, "pitch": 65, "duration": 2, "velocity": 127}, {"time": 1233, "pitch": 67, "duration": 2, "velocity": 93}, {"time": 1236, "pitch": 63, "duration": 3, "velocity": 112}, {"time": 1239, "pitch": 65, "duration": 3, "velocity": 96}, {"time": 1242, "pitch": 67, "duration": 9, "velocity": 112}, {"time": 1278, "pitch": 67, "duration": 6, "velocity": 107}, {"time": 1284, "pitch": 75, "duration": 6, "velocity": 112}, {"time": 1290, "pitch": 72, "duration": 5, "velocity": 117}, {"time": 1296, "pitch": 70, "duration": 5, "velocity": 117}, {"time": 1302, "pitch": 72, "duration": 6, "velocity": 117}, {"time": 1308, "pitch": 75, "duration": 6, "velocity": 102}, {"time": 1314, "pitch": 72, "duration": 24, "velocity": 122}, {"time": 1590, "pitch": 70, "duration": 8, "velocity": 127}, {"time": 1602, "pitch": 70, "duration": 3, "velocity": 127}, {"time": 1608, "pitch": 67, "duration": 2, "velocity": 122}, {"time": 1611, "pitch": 70, "duration": 2, "velocity": 102}, {"time": 1614, "pitch": 67, "duration": 4, "velocity": 107}, {"time": 1620, "pitch": 67, "duration": 3, "velocity": 122}, {"time": 1623, "pitch": 65, "duration": 2, "velocity": 90}, {"time": 1626, "pitch": 63, "duration": 7, "velocity": 112}, {"time": 1638, "pitch": 60, "duration": 7, "velocity": 117}, {"time": 1647, "pitch": 63, "duration": 3, "velocity": 95}, {"time": 1650, "pitch": 60, "duration": 3, "velocity": 100}, {"time": 1656, "pitch": 58, "duration": 2, "velocity": 127}, {"time": 1659, "pitch": 55, "duration": 3, "velocity": 90}, {"time": 1662, "pitch": 58, "duration": 20, "velocity": 127}, {"time": 1686, "pitch": 60, "duration": 8, "velocity": 107}, {"time": 1695, "pitch": 67, "duration": 1, "velocity": 96}, {"time": 1698, "pitch": 67, "duration": 4, "velocity": 96}, {"time": 1704, "pitch": 60, "duration": 4, "velocity": 99}, {"time": 1710, "pitch": 63, "duration": 4, "velocity": 127}, {"time": 1716, "pitch": 65, "duration": 3, "velocity": 93}, {"time": 1719, "pitch": 63, "duration": 2, "velocity": 112}, {"time": 1722, "pitch": 60, "duration": 9, "velocity": 107}, {"time": 1734, "pitch": 63, "duration": 1, "velocity": 127}, {"time": 1737, "pitch": 63, "duration": 3, "velocity": 107}, {"time": 1743, "pitch": 67, "duration": 3, "velocity": 102}, {"time": 1746, "pitch": 65, "duration": 4, "velocity": 100}, {"time": 1752, "pitch": 63, "duration": 4, "velocity": 112}, {"time": 1758, "pitch": 65, "duration": 18, "velocity": 117}, {"time": 1782, "pitch": 67, "duration": 8, "velocity": 112}, {"time": 1794, "pitch": 67, "duration": 6, "velocity": 112}, {"time": 1803, "pitch": 70, "duration": 2, "velocity": 127}, {"time": 1806, "pitch": 67, "duration": 5, "velocity": 100}, {"time": 1812, "pitch": 65, "duration": 5, "velocity": 97}, {"time": 1818, "pitch": 63, "duration": 7, "velocity": 112}, {"time": 1830, "pitch": 60, "duration": 4, "velocity": 97}, {"time": 1836, "pitch": 60, "duration": 4, "velocity": 96}, {"time": 1839, "pitch": 63, "duration": 3, "velocity": 112}, {"time": 1842, "pitch": 65, "duration": 3, "velocity": 93}, {"time": 1845, "pitch": 67, "duration": 4, "velocity": 95}, {"time": 1848, "pitch": 65, "duration": 2, "velocity": 117}, {"time": 1851, "pitch": 63, "duration": 2, "velocity": 117}, {"time": 1854, "pitch": 60, "duration": 19, "velocity": 107}, {"time": 1878, "pitch": 58, "duration": 4, "velocity": 127}, {"time": 1884, "pitch": 58, "duration": 2, "velocity": 122}, {"time": 1887, "pitch": 55, "duration": 2, "velocity": 96}, {"time": 1890, "pitch": 58, "duration": 5, "velocity": 122}, {"time": 1899, "pitch": 60, "duration": 2, "velocity": 95}, {"time": 1902, "pitch": 63, "duration": 3, "velocity": 112}, {"time": 1908, "pitch": 65, "duration": 2, "velocity": 102}, {"time": 1911, "pitch": 63, "duration": 2, "velocity": 112}, {"time": 1914, "pitch": 60, "duration": 10, "velocity": 117}, {"time": 1926, "pitch": 70, "duration": 3, "velocity": 127}, {"time": 1932, "pitch": 70, "duration": 3, "velocity": 117}, {"time": 1935, "pitch": 67, "duration": 2, "velocity": 99}, {"time": 1938, "pitch": 65, "duration": 3, "velocity": 102}, {"time": 1941, "pitch": 67, "duration": 3, "velocity": 102}, {"time": 1944, "pitch": 65, "duration": 2, "velocity": 89}, {"time": 1947, "pitch": 63, "duration": 1, "velocity": 112}, {"time": 1950, "pitch": 63, "duration": 21, "velocity": 112}, {"time": 1974, "pitch": 70, "duration": 4, "velocity": 127}, {"time": 1986, "pitch": 70, "duration": 4, "velocity": 127}, {"time": 1998, "pitch": 70, "duration": 6, "velocity": 127}, {"time": 2007, "pitch": 67, "duration": 3, "velocity": 127}, {"time": 2010, "pitch": 70, "duration": 6, "velocity": 127}, {"time": 2022, "pitch": 63, "duration": 6, "velocity": 127}, {"time": 2034, "pitch": 63, "duration": 7, "velocity": 127}, {"time": 2046, "pitch": 63, "duration": 6, "velocity": 127}, {"time": 2055, "pitch": 60, "duration": 2, "velocity": 107}, {"time": 2058, "pitch": 63, "duration": 8, "velocity": 127}, {"time": 2070, "pitch": 67, "duration": 3, "velocity": 117}, {"time": 2076, "pitch": 67, "duration": 2, "velocity": 99}, {"time": 2079, "pitch": 70, "duration": 3, "velocity": 95}, {"time": 2082, "pitch": 67, "duration": 4, "velocity": 102}, {"time": 2088, "pitch": 65, "duration": 3, "velocity": 112}, {"time": 2094, "pitch": 63, "duration": 3, "velocity": 127}, {"time": 2097, "pitch": 60, "duration": 3, "velocity": 92}, {"time": 2100, "pitch": 63, "duration": 2, "velocity": 127}, {"time": 2103, "pitch": 65, "duration": 2, "velocity": 112}, {"time": 2106, "pitch": 67, "duration": 5, "velocity": 127}, {"time": 2118, "pitch": 65, "duration": 1, "velocity": 112}, {"time": 2121, "pitch": 65, "duration": 3, "velocity": 100}, {"time": 2127, "pitch": 67, "duration": 2, "velocity": 127}, {"time": 2130, "pitch": 70, "duration": 4, "velocity": 122}, {"time": 2136, "pitch": 70, "duration": 2, "velocity": 127}, {"time": 2139, "pitch": 67, "duration": 2, "velocity": 97}, {"time": 2142, "pitch": 65, "duration": 2, "velocity": 102}, {"time": 2145, "pitch": 67, "duration": 2, "velocity": 102}, {"time": 2148, "pitch": 65, "duration": 3, "velocity": 112}, {"time": 2151, "pitch": 63, "duration": 3, "velocity": 127}, {"time": 2154, "pitch": 65, "duration": 7, "velocity": 99}, {"time": 2166, "pitch": 63, "duration": 5, "velocity": 127}, {"time": 2172, "pitch": 60, "duration": 3, "velocity": 102}, {"time": 2175, "pitch": 58, "duration": 2, "velocity": 122}, {"time": 2178, "pitch": 58, "duration": 11, "velocity": 122}, {"time": 2214, "pitch": 67, "duration": 2, "velocity": 112}, {"time": 2217, "pitch": 70, "duration": 3, "velocity": 117}, {"time": 2220, "pitch": 67, "duration": 2, "velocity": 96}, {"time": 2223, "pitch": 65, "duration": 4, "velocity": 97}, {"time": 2226, "pitch": 67, "duration": 15, "velocity": 100}, {"time": 2262, "pitch": 63, "duration": 1, "velocity": 127}, {"time": 2265, "pitch": 63, "duration": 3, "velocity": 112}, {"time": 2271, "pitch": 63, "duration": 1, "velocity": 117}, {"time": 2274, "pitch": 60, "duration": 5, "velocity": 107}, {"time": 2280, "pitch": 58, "duration": 3, "velocity": 100}, {"time": 2286, "pitch": 67, "duration": 1, "velocity": 122}, {"time": 2289, "pitch": 67, "duration": 3, "velocity": 102}, {"time": 2295, "pitch": 70, "duration": 2, "velocity": 127}, {"time": 2298, "pitch": 72, "duration": 3, "velocity": 107}, {"time": 2301, "pitch": 70, "duration": 2, "velocity": 102}, {"time": 2304, "pitch": 72, "duration": 6, "velocity": 112}, {"time": 2310, "pitch": 70, "duration": 12, "velocity": 122}, {"time": 2328, "pitch": 65, "duration": 4, "velocity": 97}, {"time": 2331, "pitch": 67, "duration": 3, "velocity": 99}, {"time": 2334, "pitch": 70, "duration": 3, "velocity": 107}, {"time": 2337, "pitch": 72, "duration": 4, "velocity": 88}, {"time": 2340, "pitch": 70, "duration": 10, "velocity": 127}, {"time": 2352, "pitch": 67, "duration": 2, "velocity": 107}, {"time": 2355, "pitch": 70, "duration": 2, "velocity": 117}, {"time": 2358, "pitch": 72, "duration": 5, "velocity": 107}, {"time": 2367, "pitch": 72, "duration": 3, "velocity": 117}, {"time": 2370, "pitch": 70, "duration": 4, "velocity": 127}, {"time": 2376, "pitch": 67, "duration": 4, "velocity": 127}, {"time": 2382, "pitch": 65, "duration": 2, "velocity": 127}, {"time": 2385, "pitch": 67, "duration": 2, "velocity": 93}, {"time": 2388, "pitch": 63, "duration": 3, "velocity": 112}, {"time": 2391, "pitch": 65, "duration": 3, "velocity": 96}, {"time": 2394, "pitch": 67, "duration": 9, "velocity": 112}, {"time": 2430, "pitch": 67, "duration": 6, "velocity": 107}, {"time": 2436, "pitch": 75, "duration": 6, "velocity": 112}, {"time": 2442, "pitch": 72, "duration": 5, "velocity": 117}, {"time": 2448, "pitch": 70, "duration": 5, "velocity": 117}, {"time": 2454, "pitch": 72, "duration": 6, "velocity": 117}, {"time": 2460, "pitch": 75, "duration": 6, "velocity": 102}, {"time": 2466, "pitch": 72, "duration": 24, "velocity": 122}, {"time": 2934, "pitch": 70, "duration": 4, "velocity": 127}, {"time": 2946, "pitch": 70, "duration": 4, "velocity": 127}, {"time": 2958, "pitch": 70, "duration": 6, "velocity": 127}, {"time": 2967, "pitch": 67, "duration": 3, "velocity": 127}, {"time": 2970, "pitch": 70, "duration": 6, "velocity": 127}, {"time": 2982, "pitch": 63, "duration": 6, "velocity": 127}, {"time": 2994, "pitch": 63, "duration": 7, "velocity": 127}, {"time": 3006, "pitch": 63, "duration": 6, "velocity": 127}, {"time": 3015, "pitch": 60, "duration": 2, "velocity": 107}, {"time": 3018, "pitch": 63, "duration": 8, "velocity": 127}, {"time": 3030, "pitch": 67, "duration": 3, "velocity": 117}, {"time": 3036, "pitch": 67, "duration": 2, "velocity": 99}, {"time": 3039, "pitch": 70, "duration": 3, "velocity": 95}, {"time": 3042, "pitch": 67, "duration": 4, "velocity": 102}, {"time": 3048, "pitch": 65, "duration": 3, "velocity": 112}, {"time": 3054, "pitch": 63, "duration": 3, "velocity": 127}, {"time": 3057, "pitch": 60, "duration": 3, "velocity": 92}, {"time": 3060, "pitch": 63, "duration": 2, "velocity": 127}, {"time": 3063, "pitch": 65, "duration": 2, "velocity": 112}, {"time": 3066, "pitch": 67, "duration": 5, "velocity": 127}, {"time": 3078, "pitch": 65, "duration": 1, "velocity": 112}, {"time": 3081, "pitch": 65, "duration": 3, "velocity": 100}, {"time": 3087, "pitch": 67, "duration": 2, "velocity": 127}, {"time": 3090, "pitch": 70, "duration": 4, "velocity": 122}, {"time": 3096, "pitch": 70, "duration": 2, "velocity": 127}, {"time": 3099, "pitch": 67, "duration": 2, "velocity": 97}, {"time": 3102, "pitch": 65, "duration": 2, "velocity": 102}, {"time": 3105, "pitch": 67, "duration": 2, "velocity": 102}, {"time": 3108, "pitch": 65, "duration": 3, "velocity": 112}, {"time": 3111, "pitch": 63, "duration": 3, "velocity": 127}, {"time": 3114, "pitch": 65, "duration": 7, "velocity": 99}, {"time": 3126, "pitch": 63, "duration": 5, "velocity": 127}, {"time": 3132, "pitch": 60, "duration": 3, "velocity": 102}, {"time": 3135, "pitch": 58, "duration": 2, "velocity": 122}, {"time": 3138, "pitch": 58, "duration": 11, "velocity": 122}, {"time": 3174, "pitch": 67, "duration": 2, "velocity": 112}, {"time": 3177, "pitch": 70, "duration": 3, "velocity": 117}, {"time": 3180, "pitch": 67, "duration": 2, "velocity": 96}, {"time": 3183, "pitch": 65, "duration": 4, "velocity": 97}, {"time": 3186, "pitch": 67, "duration": 15, "velocity": 100}, {"time": 3222, "pitch": 63, "duration": 1, "velocity": 127}, {"time": 3225, "pitch": 63, "duration": 3, "velocity": 112}, {"time": 3231, "pitch": 63, "duration": 1, "velocity": 117}, {"time": 3234, "pitch": 60, "duration": 5, "velocity": 107}, {"time": 3240, "pitch": 58, "duration": 3, "velocity": 100}, {"time": 3246, "pitch": 67, "duration": 1, "velocity": 122}, {"time": 3249, "pitch": 67, "duration": 3, "velocity": 102}, {"time": 3255, "pitch": 70, "duration": 2, "velocity": 127}, {"time": 3258, "pitch": 72, "duration": 3, "velocity": 107}, {"time": 3261, "pitch": 70, "duration": 2, "velocity": 102}, {"time": 3264, "pitch": 72, "duration": 6, "velocity": 112}, {"time": 3270, "pitch": 70, "duration": 12, "velocity": 122}, {"time": 3288, "pitch": 65, "duration": 4, "velocity": 97}, {"time": 3291, "pitch": 67, "duration": 3, "velocity": 99}, {"time": 3294, "pitch": 70, "duration": 3, "velocity": 107}, {"time": 3297, "pitch": 72, "duration": 4, "velocity": 88}, {"time": 3300, "pitch": 70, "duration": 10, "velocity": 127}, {"time": 3312, "pitch": 67, "duration": 2, "velocity": 107}, {"time": 3315, "pitch": 70, "duration": 2, "velocity": 117}, {"time": 3318, "pitch": 72, "duration": 5, "velocity": 107}, {"time": 3327, "pitch": 72, "duration": 3, "velocity": 117}, {"time": 3330, "pitch": 70, "duration": 4, "velocity": 127}, {"time": 3336, "pitch": 67, "duration": 4, "velocity": 127}, {"time": 3342, "pitch": 65, "duration": 2, "velocity": 127}, {"time": 3345, "pitch": 67, "duration": 2, "velocity": 93}, {"time": 3348, "pitch": 63, "duration": 3, "velocity": 112}, {"time": 3351, "pitch": 65, "duration": 3, "velocity": 96}, {"time": 3354, "pitch": 67, "duration": 9, "velocity": 112}, {"time": 3390, "pitch": 67, "duration": 6, "velocity": 107}, {"time": 3396, "pitch": 75, "duration": 6, "velocity": 112}, {"time": 3402, "pitch": 72, "duration": 5, "velocity": 117}, {"time": 3408, "pitch": 70, "duration": 5, "velocity": 117}, {"time": 3414, "pitch": 72, "duration": 6, "velocity": 117}, {"time": 3420, "pitch": 75, "duration": 6, "velocity": 102}, {"time": 3426, "pitch": 72, "duration": 24, "velocity": 122}]}, {"program": 0, "is_drum": false, "name": "BRIDGE", "notes": [{"time": 66, "pitch": 75, "duration": 6, "velocity": 99}, {"time": 72, "pitch": 84, "duration": 6, "velocity": 95}, {"time": 78, "pitch": 82, "duration": 20, "velocity": 117}, {"time": 90, "pitch": 58, "duration": 5, "velocity": 96}, {"time": 93, "pitch": 60, "duration": 5, "velocity": 78}, {"time": 99, "pitch": 63, "duration": 7, "velocity": 93}, {"time": 105, "pitch": 72, "duration": 5, "velocity": 83}, {"time": 111, "pitch": 70, "duration": 28, "velocity": 96}, {"time": 138, "pitch": 70, "duration": 1, "velocity": 100}, {"time": 144, "pitch": 72, "duration": 6, "velocity": 89}, {"time": 150, "pitch": 75, "duration": 17, "velocity": 112}, {"time": 168, "pitch": 82, "duration": 6, "velocity": 122}, {"time": 174, "pitch": 79, "duration": 25, "velocity": 112}, {"time": 186, "pitch": 58, "duration": 5, "velocity": 99}, {"time": 192, "pitch": 60, "duration": 6, "velocity": 89}, {"time": 198, "pitch": 63, "duration": 3, "velocity": 90}, {"time": 201, "pitch": 70, "duration": 3, "velocity": 95}, {"time": 204, "pitch": 67, "duration": 40, "velocity": 89}, {"time": 240, "pitch": 58, "duration": 2, "velocity": 127}, {"time": 243, "pitch": 60, "duration": 3, "velocity": 96}, {"time": 246, "pitch": 63, "duration": 2, "velocity": 117}, {"time": 249, "pitch": 63, "duration": 3, "velocity": 107}, {"time": 255, "pitch": 63, "duration": 1, "velocity": 122}, {"time": 258, "pitch": 63, "duration": 2, "velocity": 127}, {"time": 264, "pitch": 65, "duration": 3, "velocity": 117}, {"time": 267, "pitch": 63, "duration": 2, "velocity": 102}, {"time": 270, "pitch": 60, "duration": 2, "velocity": 100}, {"time": 273, "pitch": 63, "duration": 2, "velocity": 127}, {"time": 276, "pitch": 60, "duration": 2, "velocity": 107}, {"time": 279, "pitch": 58, "duration": 1, "velocity": 112}, {"time": 282, "pitch": 58, "duration": 6, "velocity": 127}, {"time": 288, "pitch": 60, "duration": 2, "velocity": 107}, {"time": 291, "pitch": 58, "duration": 2, "velocity": 117}, {"time": 294, "pitch": 63, "duration": 1, "velocity": 100}, {"time": 297, "pitch": 63, "duration": 1, "velocity": 112}, {"time": 300, "pitch": 63, "duration": 1, "velocity": 112}, {"time": 303, "pitch": 63, "duration": 1, "velocity": 127}, {"time": 306, "pitch": 65, "duration": 3, "velocity": 117}, {"time": 309, "pitch": 63, "duration": 3, "velocity": 112}, {"time": 312, "pitch": 65, "duration": 2, "velocity": 99}, {"time": 315, "pitch": 70, "duration": 3, "velocity": 117}, {"time": 318, "pitch": 67, "duration": 9, "velocity": 117}, {"time": 336, "pitch": 67, "duration": 2, "velocity": 99}, {"time": 339, "pitch": 70, "duration": 2, "velocity": 107}, {"time": 342, "pitch": 72, "duration": 2, "velocity": 97}, {"time": 345, "pitch": 70, "duration": 2, "velocity": 122}, {"time": 348, "pitch": 72, "duration": 3, "velocity": 102}, {"time": 354, "pitch": 70, "duration": 3, "velocity": 127}, {"time": 360, "pitch": 67, "duration": 2, "velocity": 102}, {"time": 363, "pitch": 70, "duration": 2, "velocity": 112}, {"time": 366, "pitch": 72, "duration": 3, "velocity": 102}, {"time": 369, "pitch": 70, "duration": 2, "velocity": 127}, {"time": 372, "pitch": 72, "duration": 2, "velocity": 107}, {"time": 378, "pitch": 70, "duration": 2, "velocity": 127}, {"time": 384, "pitch": 67, "duration": 2, "velocity": 117}, {"time": 387, "pitch": 70, "duration": 2, "velocity": 112}, {"time": 390, "pitch": 58, "duration": 1, "velocity": 122}, {"time": 393, "pitch": 58, "duration": 2, "velocity": 112}, {"time": 399, "pitch": 70, "duration": 3, "velocity": 127}, {"time": 402, "pitch": 67, "duration": 2, "velocity": 99}, {"time": 405, "pitch": 65, "duration": 2, "velocity": 107}, {"time": 408, "pitch": 63, "duration": 2, "velocity": 127}, {"time": 411, "pitch": 65, "duration": 3, "velocity": 96}, {"time": 414, "pitch": 63, "duration": 5, "velocity": 127}, {"time": 420, "pitch": 58, "duration": 2, "velocity": 122}, {"time": 426, "pitch": 63, "duration": 5, "velocity": 122}, {"time": 510, "pitch": 58, "duration": 5, "velocity": 127}, {"time": 516, "pitch": 58, "duration": 2, "velocity": 127}, {"time": 519, "pitch": 60, "duration": 3, "velocity": 99}, {"time": 522, "pitch": 70, "duration": 3, "velocity": 127}, {"time": 528, "pitch": 67, "duration": 3, "velocity": 127}, {"time": 531, "pitch": 65, "duration": 2, "velocity": 92}, {"time": 534, "pitch": 63, "duration": 21, "velocity": 107}, {"time": 606, "pitch": 65, "duration": 2, "velocity": 122}, {"time": 609, "pitch": 67, "duration": 3, "velocity": 100}, {"time": 612, "pitch": 65, "duration": 2, "velocity": 93}, {"time": 615, "pitch": 63, "duration": 3, "velocity": 102}, {"time": 618, "pitch": 65, "duration": 3, "velocity": 100}, {"time": 624, "pitch": 65, "duration": 4, "velocity": 112}, {"time": 705, "pitch": 67, "duration": 2, "velocity": 96}, {"time": 708, "pitch": 65, "duration": 2, "velocity": 97}, {"time": 711, "pitch": 63, "duration": 3, "velocity": 112}, {"time": 714, "pitch": 60, "duration": 3, "velocity": 102}, {"time": 720, "pitch": 60, "duration": 3, "velocity": 107}, {"time": 804, "pitch": 58, "duration": 2, "velocity": 122}, {"time": 807, "pitch": 60, "duration": 3, "velocity": 95}, {"time": 810, "pitch": 58, "duration": 2, "velocity": 127}, {"time": 813, "pitch": 60, "duration": 2, "velocity": 100}, {"time": 816, "pitch": 65, "duration": 2, "velocity": 99}, {"time": 819, "pitch": 67, "duration": 3, "velocity": 99}, {"time": 822, "pitch": 70, "duration": 8, "velocity": 117}, {"time": 1038, "pitch": 63, "duration": 5, "velocity": 127}, {"time": 1044, "pitch": 60, "duration": 2, "velocity": 100}, {"time": 1047, "pitch": 58, "duration": 1, "velocity": 122}, {"time": 1050, "pitch": 58, "duration": 10, "velocity": 112}, {"time": 1086, "pitch": 67, "duration": 2, "velocity": 127}, {"time": 1089, "pitch": 70, "duration": 2, "velocity": 112}, {"time": 1092, "pitch": 67, "duration": 2, "velocity": 99}, {"time": 1095, "pitch": 65, "duration": 2, "velocity": 89}, {"time": 1098, "pitch": 67, "duration": 7, "velocity": 117}, {"time": 1110, "pitch": 63, "duration": 1, "velocity": 127}, {"time": 1113, "pitch": 63, "duration": 2, "velocity": 112}, {"time": 1119, "pitch": 63, "duration": 2, "velocity": 127}, {"time": 1122, "pitch": 63, "duration": 2, "velocity": 107}, {"time": 1125, "pitch": 60, "duration": 2, "velocity": 99}, {"time": 1128, "pitch": 58, "duration": 3, "velocity": 112}, {"time": 1182, "pitch": 65, "duration": 2, "velocity": 102}, {"time": 1185, "pitch": 67, "duration": 2, "velocity": 95}, {"time": 1188, "pitch": 65, "duration": 2, "velocity": 93}, {"time": 1191, "pitch": 67, "duration": 2, "velocity": 95}, {"time": 1194, "pitch": 65, "duration": 3, "velocity": 112}, {"time": 1242, "pitch": 67, "duration": 1, "velocity": 127}, {"time": 1248, "pitch": 65, "duration": 2, "velocity": 127}, {"time": 1251, "pitch": 67, "duration": 3, "velocity": 72}, {"time": 1254, "pitch": 63, "duration": 1, "velocity": 97}, {"time": 1257, "pitch": 63, "duration": 2, "velocity": 107}, {"time": 1260, "pitch": 65, "duration": 5, "velocity": 107}, {"time": 1266, "pitch": 67, "duration": 3, "velocity": 122}, {"time": 1320, "pitch": 75, "duration": 1, "velocity": 127}, {"time": 1323, "pitch": 75, "duration": 2, "velocity": 112}, {"time": 1326, "pitch": 72, "duration": 2, "velocity": 122}, {"time": 1332, "pitch": 70, "duration": 3, "velocity": 122}, {"time": 1338, "pitch": 67, "duration": 3, "velocity": 112}, {"time": 1344, "pitch": 70, "duration": 1, "velocity": 127}, {"time": 1347, "pitch": 70, "duration": 1, "velocity": 122}, {"time": 1350, "pitch": 72, "duration": 1, "velocity": 127}, {"time": 1353, "pitch": 72, "duration": 2, "velocity": 100}, {"time": 1356, "pitch": 70, "duration": 1, "velocity": 127}, {"time": 1359, "pitch": 70, "duration": 1, "velocity": 102}, {"time": 1362, "pitch": 67, "duration": 1, "velocity": 112}, {"time": 1365, "pitch": 67, "duration": 1, "velocity": 107}, {"time": 1368, "pitch": 70, "duration": 1, "velocity": 127}, {"time": 1371, "pitch": 67, "duration": 1, "velocity": 112}, {"time": 1371, "pitch": 70, "duration": 1, "velocity": 122}, {"time": 1374, "pitch": 67, "duration": 2, "velocity": 99}, {"time": 1377, "pitch": 67, "duration": 2, "velocity": 102}, {"time": 1380, "pitch": 63, "duration": 1, "velocity": 122}, {"time": 1383, "pitch": 63, "duration": 1, "velocity": 96}, {"time": 1386, "pitch": 60, "duration": 2, "velocity": 102}, {"time": 1389, "pitch": 60, "duration": 2, "velocity": 107}, {"time": 1392, "pitch": 58, "duration": 2, "velocity": 117}, {"time": 1395, "pitch": 60, "duration": 1, "velocity": 97}, {"time": 1398, "pitch": 63, "duration": 2, "velocity": 127}, {"time": 1401, "pitch": 63, "duration": 2, "velocity": 127}, {"time": 1407, "pitch": 63, "duration": 1, "velocity": 122}, {"time": 1410, "pitch": 63, "duration": 2, "velocity": 117}, {"time": 1416, "pitch": 65, "duration": 3, "velocity": 107}, {"time": 1419, "pitch": 63, "duration": 3, "velocity": 102}, {"time": 1422, "pitch": 60, "duration": 2, "velocity": 93}, {"time": 1425, "pitch": 63, "duration": 2, "velocity": 127}, {"time": 1428, "pitch": 60, "duration": 2, "velocity": 97}, {"time": 1431, "pitch": 58, "duration": 1, "velocity": 122}, {"time": 1434, "pitch": 58, "duration": 3, "velocity": 122}, {"time": 1440, "pitch": 60, "duration": 2, "velocity": 102}, {"time": 1443, "pitch": 58, "duration": 2, "velocity": 102}, {"time": 1446, "pitch": 63, "duration": 3, "velocity": 112}, {"time": 1449, "pitch": 63, "duration": 2, "velocity": 122}, {"time": 1455, "pitch": 63, "duration": 1, "velocity": 122}, {"time": 1458, "pitch": 65, "duration": 2, "velocity": 107}, {"time": 1461, "pitch": 63, "duration": 2, "velocity": 102}, {"time": 1464, "pitch": 65, "duration": 2, "velocity": 96}, {"time": 1467, "pitch": 70, "duration": 2, "velocity": 100}, {"time": 1470, "pitch": 67, "duration": 4, "velocity": 107}, {"time": 1488, "pitch": 67, "duration": 2, "velocity": 112}, {"time": 1491, "pitch": 70, "duration": 2, "velocity": 112}, {"time": 1494, "pitch": 72, "duration": 2, "velocity": 99}, {"time": 1497, "pitch": 70, "duration": 2, "velocity": 117}, {"time": 1500, "pitch": 72, "duration": 2, "velocity": 117}, {"time": 1506, "pitch": 70, "duration": 3, "velocity": 127}, {"time": 1512, "pitch": 67, "duration": 2, "velocity": 107}, {"time": 1515, "pitch": 70, "duration": 2, "velocity": 122}, {"time": 1518, "pitch": 72, "duration": 2, "velocity": 112}, {"time": 1521, "pitch": 70, "duration": 2, "velocity": 117}, {"time": 1524, "pitch": 72, "duration": 2, "velocity": 117}, {"time": 1530, "pitch": 70, "duration": 2, "velocity": 127}, {"time": 1536, "pitch": 67, "duration": 2, "velocity": 127}, {"time": 1539, "pitch": 70, "duration": 2, "velocity": 122}, {"time": 1542, "pitch": 58, "duration": 1, "velocity": 122}, {"time": 1545, "pitch": 58, "duration": 2, "velocity": 102}, {"time": 1551, "pitch": 70, "duration": 3, "velocity": 117}, {"time": 1554, "pitch": 67, "duration": 2, "velocity": 99}, {"time": 1557, "pitch": 65, "duration": 2, "velocity": 107}, {"time": 1560, "pitch": 63, "duration": 2, "velocity": 100}, {"time": 1563, "pitch": 65, "duration": 3, "velocity": 93}, {"time": 1566, "pitch": 63, "duration": 4, "velocity": 112}, {"time": 1572, "pitch": 58, "duration": 3, "velocity": 127}, {"time": 1578, "pitch": 63, "duration": 6, "velocity": 122}, {"time": 2472, "pitch": 75, "duration": 3, "velocity": 127}, {"time": 2478, "pitch": 72, "duration": 3, "velocity": 122}, {"time": 2484, "pitch": 70, "duration": 3, "velocity": 122}, {"time": 2490, "pitch": 67, "duration": 1, "velocity": 92}, {"time": 2493, "pitch": 67, "duration": 2, "velocity": 83}, {"time": 2496, "pitch": 70, "duration": 1, "velocity": 127}, {"time": 2499, "pitch": 70, "duration": 2, "velocity": 102}, {"time": 2502, "pitch": 72, "duration": 2, "velocity": 107}, {"time": 2508, "pitch": 70, "duration": 1, "velocity": 127}, {"time": 2511, "pitch": 70, "duration": 1, "velocity": 107}, {"time": 2514, "pitch": 67, "duration": 1, "velocity": 85}, {"time": 2517, "pitch": 67, "duration": 1, "velocity": 90}, {"time": 2520, "pitch": 70, "duration": 1, "velocity": 127}, {"time": 2523, "pitch": 70, "duration": 2, "velocity": 100}, {"time": 2526, "pitch": 67, "duration": 1, "velocity": 112}, {"time": 2529, "pitch": 67, "duration": 1, "velocity": 99}, {"time": 2532, "pitch": 63, "duration": 1, "velocity": 127}, {"time": 2535, "pitch": 63, "duration": 2, "velocity": 102}, {"time": 2538, "pitch": 60, "duration": 1, "velocity": 107}, {"time": 2541, "pitch": 60, "duration": 2, "velocity": 92}, {"time": 2544, "pitch": 58, "duration": 2, "velocity": 112}, {"time": 2547, "pitch": 60, "duration": 2, "velocity": 100}, {"time": 2550, "pitch": 63, "duration": 2, "velocity": 127}, {"time": 2556, "pitch": 63, "duration": 4, "velocity": 107}, {"time": 2562, "pitch": 70, "duration": 2, "velocity": 127}, {"time": 2565, "pitch": 67, "duration": 2, "velocity": 85}, {"time": 2568, "pitch": 70, "duration": 5, "velocity": 127}, {"time": 2574, "pitch": 67, "duration": 4, "velocity": 102}, {"time": 2580, "pitch": 67, "duration": 3, "velocity": 117}, {"time": 2583, "pitch": 65, "duration": 2, "velocity": 90}, {"time": 2586, "pitch": 63, "duration": 5, "velocity": 107}, {"time": 2598, "pitch": 60, "duration": 5, "velocity": 97}, {"time": 2607, "pitch": 63, "duration": 3, "velocity": 102}, {"time": 2610, "pitch": 60, "duration": 4, "velocity": 95}, {"time": 2616, "pitch": 58, "duration": 3, "velocity": 107}, {"time": 2619, "pitch": 55, "duration": 3, "velocity": 86}, {"time": 2622, "pitch": 58, "duration": 11, "velocity": 112}, {"time": 2631, "pitch": 58, "duration": 2, "velocity": 100}, {"time": 2634, "pitch": 70, "duration": 3, "velocity": 112}, {"time": 2640, "pitch": 67, "duration": 2, "velocity": 97}, {"time": 2643, "pitch": 65, "duration": 2, "velocity": 86}, {"time": 2646, "pitch": 60, "duration": 7, "velocity": 112}, {"time": 2646, "pitch": 63, "duration": 10, "velocity": 112}, {"time": 2655, "pitch": 67, "duration": 1, "velocity": 95}, {"time": 2658, "pitch": 67, "duration": 3, "velocity": 97}, {"time": 2664, "pitch": 60, "duration": 3, "velocity": 112}, {"time": 2670, "pitch": 63, "duration": 4, "velocity": 127}, {"time": 2676, "pitch": 65, "duration": 2, "velocity": 100}, {"time": 2679, "pitch": 63, "duration": 2, "velocity": 100}, {"time": 2682, "pitch": 60, "duration": 6, "velocity": 107}, {"time": 2694, "pitch": 63, "duration": 1, "velocity": 117}, {"time": 2697, "pitch": 63, "duration": 2, "velocity": 117}, {"time": 2703, "pitch": 67, "duration": 2, "velocity": 100}, {"time": 2706, "pitch": 65, "duration": 2, "velocity": 100}, {"time": 2712, "pitch": 63, "duration": 2, "velocity": 117}, {"time": 2718, "pitch": 65, "duration": 2, "velocity": 117}, {"time": 2718, "pitch": 65, "duration": 2, "velocity": 127}, {"time": 2721, "pitch": 67, "duration": 1, "velocity": 78}, {"time": 2724, "pitch": 63, "duration": 1, "velocity": 117}, {"time": 2727, "pitch": 63, "duration": 2, "velocity": 100}, {"time": 2730, "pitch": 67, "duration": 2, "velocity": 127}, {"time": 2742, "pitch": 67, "duration": 9, "velocity": 127}, {"time": 2754, "pitch": 67, "duration": 6, "velocity": 122}, {"time": 2763, "pitch": 70, "duration": 3, "velocity": 117}, {"time": 2766, "pitch": 67, "duration": 3, "velocity": 112}, {"time": 2772, "pitch": 67, "duration": 2, "velocity": 122}, {"time": 2775, "pitch": 65, "duration": 2, "velocity": 89}, {"time": 2778, "pitch": 63, "duration": 6, "velocity": 107}, {"time": 2778, "pitch": 67, "duration": 2, "velocity": 127}, {"time": 2781, "pitch": 65, "duration": 2, "velocity": 85}, {"time": 2784, "pitch": 63, "duration": 1, "velocity": 127}, {"time": 2787, "pitch": 62, "duration": 3, "velocity": 93}, {"time": 2790, "pitch": 60, "duration": 6, "velocity": 102}, {"time": 2790, "pitch": 60, "duration": 6, "velocity": 122}, {"time": 2799, "pitch": 63, "duration": 3, "velocity": 127}, {"time": 2802, "pitch": 65, "duration": 3, "velocity": 96}, {"time": 2805, "pitch": 67, "duration": 4, "velocity": 99}, {"time": 2808, "pitch": 65, "duration": 2, "velocity": 112}, {"time": 2811, "pitch": 63, "duration": 2, "velocity": 117}, {"time": 2814, "pitch": 60, "duration": 2, "velocity": 102}, {"time": 2817, "pitch": 63, "duration": 2, "velocity": 127}, {"time": 2820, "pitch": 60, "duration": 2, "velocity": 100}, {"time": 2823, "pitch": 58, "duration": 3, "velocity": 100}, {"time": 2826, "pitch": 60, "duration": 4, "velocity": 95}, {"time": 2832, "pitch": 60, "duration": 2, "velocity": 102}, {"time": 2838, "pitch": 58, "duration": 3, "velocity": 112}, {"time": 2844, "pitch": 58, "duration": 2, "velocity": 99}, {"time": 2847, "pitch": 55, "duration": 2, "velocity": 77}, {"time": 2850, "pitch": 58, "duration": 2, "velocity": 117}, {"time": 2856, "pitch": 58, "duration": 3, "velocity": 102}, {"time": 2859, "pitch": 60, "duration": 4, "velocity": 88}, {"time": 2862, "pitch": 63, "duration": 4, "velocity": 112}, {"time": 2868, "pitch": 65, "duration": 2, "velocity": 100}, {"time": 2871, "pitch": 63, "duration": 3, "velocity": 99}, {"time": 2874, "pitch": 60, "duration": 5, "velocity": 107}, {"time": 2880, "pitch": 67, "duration": 2, "velocity": 117}, {"time": 2886, "pitch": 70, "duration": 2, "velocity": 127}, {"time": 2892, "pitch": 70, "duration": 3, "velocity": 122}, {"time": 2895, "pitch": 67, "duration": 3, "velocity": 97}, {"time": 2898, "pitch": 65, "duration": 2, "velocity": 112}, {"time": 2901, "pitch": 67, "duration": 3, "velocity": 112}, {"time": 2904, "pitch": 65, "duration": 2, "velocity": 92}, {"time": 2907, "pitch": 63, "duration": 2, "velocity": 107}, {"time": 2910, "pitch": 63, "duration": 20, "velocity": 112}, {"time": 2913, "pitch": 60, "duration": 2, "velocity": 100}, {"time": 2916, "pitch": 58, "duration": 2, "velocity": 102}, {"time": 2919, "pitch": 60, "duration": 2, "velocity": 97}, {"time": 2922, "pitch": 58, "duration": 2, "velocity": 117}, {"time": 2925, "pitch": 60, "duration": 2, "velocity": 107}, {"time": 2928, "pitch": 63, "duration": 2, "velocity": 122}, {"time": 2931, "pitch": 67, "duration": 2, "velocity": 117}, {"time": 2934, "pitch": 70, "duration": 12, "velocity": 127}, {"time": 3432, "pitch": 75, "duration": 1, "velocity": 127}, {"time": 3435, "pitch": 75, "duration": 2, "velocity": 100}, {"time": 3438, "pitch": 72, "duration": 2, "velocity": 100}, {"time": 3444, "pitch": 70, "duration": 1, "velocity": 107}, {"time": 3447, "pitch": 70, "duration": 2, "velocity": 100}, {"time": 3450, "pitch": 67, "duration": 1, "velocity": 89}, {"time": 3453, "pitch": 67, "duration": 1, "velocity": 90}, {"time": 3456, "pitch": 70, "duration": 1, "velocity": 112}, {"time": 3459, "pitch": 70, "duration": 1, "velocity": 100}, {"time": 3462, "pitch": 72, "duration": 2, "velocity": 117}, {"time": 3468, "pitch": 70, "duration": 1, "velocity": 117}, {"time": 3471, "pitch": 70, "duration": 2, "velocity": 100}, {"time": 3474, "pitch": 67, "duration": 1, "velocity": 96}, {"time": 3477, "pitch": 67, "duration": 1, "velocity": 86}, {"time": 3480, "pitch": 70, "duration": 1, "velocity": 112}, {"time": 3483, "pitch": 70, "duration": 1, "velocity": 100}, {"time": 3486, "pitch": 67, "duration": 1, "velocity": 97}, {"time": 3489, "pitch": 67, "duration": 1, "velocity": 97}, {"time": 3492, "pitch": 63, "duration": 1, "velocity": 122}, {"time": 3495, "pitch": 63, "duration": 2, "velocity": 97}, {"time": 3498, "pitch": 60, "duration": 1, "velocity": 100}, {"time": 3501, "pitch": 60, "duration": 2, "velocity": 97}, {"time": 3504, "pitch": 58, "duration": 1, "velocity": 100}, {"time": 3507, "pitch": 60, "duration": 2, "velocity": 99}, {"time": 3510, "pitch": 63, "duration": 2, "velocity": 122}, {"time": 3510, "pitch": 63, "duration": 2, "velocity": 127}, {"time": 3513, "pitch": 63, "duration": 2, "velocity": 127}, {"time": 3519, "pitch": 63, "duration": 1, "velocity": 122}, {"time": 3522, "pitch": 63, "duration": 2, "velocity": 117}, {"time": 3528, "pitch": 65, "duration": 3, "velocity": 107}, {"time": 3531, "pitch": 63, "duration": 3, "velocity": 102}, {"time": 3534, "pitch": 60, "duration": 2, "velocity": 93}, {"time": 3537, "pitch": 63, "duration": 2, "velocity": 127}, {"time": 3540, "pitch": 60, "duration": 2, "velocity": 97}, {"time": 3543, "pitch": 58, "duration": 1, "velocity": 122}, {"time": 3546, "pitch": 58, "duration": 3, "velocity": 122}, {"time": 3552, "pitch": 60, "duration": 2, "velocity": 102}, {"time": 3555, "pitch": 58, "duration": 2, "velocity": 102}, {"time": 3558, "pitch": 63, "duration": 3, "velocity": 112}, {"time": 3561, "pitch": 63, "duration": 2, "velocity": 122}, {"time": 3567, "pitch": 63, "duration": 1, "velocity": 122}, {"time": 3570, "pitch": 65, "duration": 2, "velocity": 107}, {"time": 3573, "pitch": 63, "duration": 2, "velocity": 102}, {"time": 3576, "pitch": 65, "duration": 2, "velocity": 96}, {"time": 3579, "pitch": 70, "duration": 2, "velocity": 100}, {"time": 3582, "pitch": 67, "duration": 4, "velocity": 107}, {"time": 3600, "pitch": 67, "duration": 2, "velocity": 112}, {"time": 3603, "pitch": 70, "duration": 2, "velocity": 112}, {"time": 3606, "pitch": 72, "duration": 2, "velocity": 99}, {"time": 3609, "pitch": 70, "duration": 2, "velocity": 117}, {"time": 3612, "pitch": 72, "duration": 2, "velocity": 117}, {"time": 3618, "pitch": 70, "duration": 3, "velocity": 127}, {"time": 3624, "pitch": 67, "duration": 2, "velocity": 107}, {"time": 3627, "pitch": 70, "duration": 2, "velocity": 122}, {"time": 3630, "pitch": 72, "duration": 2, "velocity": 112}, {"time": 3633, "pitch": 70, "duration": 2, "velocity": 117}, {"time": 3636, "pitch": 72, "duration": 2, "velocity": 117}, {"time": 3642, "pitch": 70, "duration": 2, "velocity": 127}, {"time": 3648, "pitch": 67, "duration": 2, "velocity": 127}, {"time": 3651, "pitch": 70, "duration": 2, "velocity": 122}, {"time": 3654, "pitch": 58, "duration": 1, "velocity": 122}, {"time": 3657, "pitch": 58, "duration": 2, "velocity": 102}, {"time": 3663, "pitch": 70, "duration": 3, "velocity": 117}, {"time": 3666, "pitch": 67, "duration": 2, "velocity": 99}, {"time": 3669, "pitch": 65, "duration": 2, "velocity": 107}, {"time": 3672, "pitch": 63, "duration": 2, "velocity": 100}, {"time": 3675, "pitch": 65, "duration": 3, "velocity": 93}, {"time": 3678, "pitch": 63, "duration": 4, "velocity": 112}, {"time": 3684, "pitch": 58, "duration": 3, "velocity": 127}, {"time": 3690, "pitch": 63, "duration": 6, "velocity": 122}], "annotations": [{"time": 106, "annotation": {"number": 64, "value": 127}, "group": "control_change"}]}, {"program": 0, "is_drum": false, "name": "PIANO", "notes": [{"time": 66, "pitch": 39, "duration": 26, "velocity": 58}, {"time": 66, "pitch": 51, "duration": 27, "velocity": 59}, {"time": 66, "pitch": 58, "duration": 28, "velocity": 58}, {"time": 66, "pitch": 63, "duration": 27, "velocity": 59}, {"time": 66, "pitch": 67, "duration": 26, "velocity": 56}, {"time": 150, "pitch": 39, "duration": 43, "velocity": 58}, {"time": 150, "pitch": 51, "duration": 43, "velocity": 45}, {"time": 150, "pitch": 58, "duration": 44, "velocity": 45}, {"time": 150, "pitch": 63, "duration": 44, "velocity": 62}, {"time": 150, "pitch": 67, "duration": 42, "velocity": 53}, {"time": 198, "pitch": 39, "duration": 43, "velocity": 53}, {"time": 198, "pitch": 51, "duration": 43, "velocity": 54}, {"time": 198, "pitch": 58, "duration": 43, "velocity": 56}, {"time": 198, "pitch": 63, "duration": 43, "velocity": 65}, {"time": 198, "pitch": 67, "duration": 42, "velocity": 58}, {"time": 246, "pitch": 39, "duration": 8, "velocity": 75}, {"time": 252, "pitch": 58, "duration": 2, "velocity": 96}, {"time": 252, "pitch": 63, "duration": 2, "velocity": 85}, {"time": 252, "pitch": 67, "duration": 2, "velocity": 70}, {"time": 258, "pitch": 51, "duration": 8, "velocity": 66}, {"time": 264, "pitch": 58, "duration": 2, "velocity": 97}, {"time": 264, "pitch": 63, "duration": 2, "velocity": 93}, {"time": 264, "pitch": 67, "duration": 2, "velocity": 66}, {"time": 270, "pitch": 46, "duration": 7, "velocity": 72}, {"time": 270, "pitch": 63, "duration": 2, "velocity": 40}, {"time": 276, "pitch": 53, "duration": 2, "velocity": 89}, {"time": 276, "pitch": 58, "duration": 2, "velocity": 97}, {"time": 276, "pitch": 62, "duration": 2, "velocity": 95}, {"time": 282, "pitch": 46, "duration": 6, "velocity": 71}, {"time": 288, "pitch": 53, "duration": 1, "velocity": 93}, {"time": 288, "pitch": 58, "duration": 1, "velocity": 112}, {"time": 288, "pitch": 62, "duration": 2, "velocity": 97}, {"time": 294, "pitch": 39, "duration": 11, "velocity": 40}, {"time": 300, "pitch": 58, "duration": 2, "velocity": 100}, {"time": 300, "pitch": 63, "duration": 2, "velocity": 81}, {"time": 300, "pitch": 67, "duration": 2, "velocity": 72}, {"time": 306, "pitch": 51, "duration": 7, "velocity": 86}, {"time": 312, "pitch": 58, "duration": 2, "velocity": 107}, {"time": 312, "pitch": 63, "duration": 2, "velocity": 107}, {"time": 312, "pitch": 67, "duration": 2, "velocity": 90}, {"time": 318, "pitch": 43, "duration": 11, "velocity": 78}, {"time": 324, "pitch": 55, "duration": 2, "velocity": 93}, {"time": 324, "pitch": 58, "duration": 2, "velocity": 102}, {"time": 324, "pitch": 62, "duration": 2, "velocity": 93}, {"time": 330, "pitch": 50, "duration": 8, "velocity": 78}, {"time": 336, "pitch": 55, "duration": 2, "velocity": 88}, {"time": 336, "pitch": 58, "duration": 2, "velocity": 107}, {"time": 336, "pitch": 62, "duration": 3, "velocity": 89}, {"time": 342, "pitch": 44, "duration": 4, "velocity": 100}, {"time": 342, "pitch": 56, "duration": 4, "velocity": 102}, {"time": 342, "pitch": 60, "duration": 4, "velocity": 99}, {"time": 342, "pitch": 63, "duration": 4, "velocity": 107}, {"time": 360, "pitch": 39, "duration": 4, "velocity": 100}, {"time": 360, "pitch": 51, "duration": 4, "velocity": 107}, {"time": 366, "pitch": 44, "duration": 2, "velocity": 117}, {"time": 366, "pitch": 56, "duration": 4, "velocity": 107}, {"time": 366, "pitch": 60, "duration": 3, "velocity": 99}, {"time": 366, "pitch": 63, "duration": 4, "velocity": 96}, {"time": 384, "pitch": 39, "duration": 4, "velocity": 99}, {"time": 384, "pitch": 51, "duration": 4, "velocity": 112}, {"time": 390, "pitch": 46, "duration": 4, "velocity": 89}, {"time": 390, "pitch": 53, "duration": 4, "velocity": 96}, {"time": 390, "pitch": 58, "duration": 4, "velocity": 100}, {"time": 390, "pitch": 62, "duration": 4, "velocity": 86}, {"time": 390, "pitch": 65, "duration": 4, "velocity": 72}, {"time": 408, "pitch": 46, "duration": 3, "velocity": 102}, {"time": 408, "pitch": 53, "duration": 2, "velocity": 86}, {"time": 408, "pitch": 58, "duration": 2, "velocity": 96}, {"time": 408, "pitch": 62, "duration": 2, "velocity": 88}, {"time": 414, "pitch": 39, "duration": 3, "velocity": 99}, {"time": 414, "pitch": 51, "duration": 3, "velocity": 107}, {"time": 414, "pitch": 63, "duration": 2, "velocity": 122}, {"time": 420, "pitch": 34, "duration": 3, "velocity": 96}, {"time": 420, "pitch": 46, "duration": 3, "velocity": 97}, {"time": 420, "pitch": 58, "duration": 3, "velocity": 90}, {"time": 426, "pitch": 39, "duration": 4, "velocity": 73}, {"time": 426, "pitch": 51, "duration": 4, "velocity": 72}, {"time": 426, "pitch": 55, "duration": 4, "velocity": 89}, {"time": 426, "pitch": 58, "duration": 4, "velocity": 100}, {"time": 426, "pitch": 63, "duration": 4, "velocity": 92}, {"time": 438, "pitch": 51, "duration": 9, "velocity": 92}, {"time": 444, "pitch": 58, "duration": 2, "velocity": 95}, {"time": 444, "pitch": 63, "duration": 1, "velocity": 75}, {"time": 444, "pitch": 67, "duration": 2, "velocity": 93}, {"time": 450, "pitch": 46, "duration": 7, "velocity": 69}, {"time": 456, "pitch": 58, "duration": 2, "velocity": 97}, {"time": 456, "pitch": 63, "duration": 1, "velocity": 86}, {"time": 456, "pitch": 67, "duration": 2, "velocity": 69}, {"time": 462, "pitch": 51, "duration": 9, "velocity": 92}, {"time": 468, "pitch": 58, "duration": 2, "velocity": 97}, {"time": 468, "pitch": 63, "duration": 1, "velocity": 86}, {"time": 468, "pitch": 67, "duration": 2, "velocity": 69}, {"time": 474, "pitch": 46, "duration": 10, "velocity": 97}, {"time": 480, "pitch": 58, "duration": 2, "velocity": 107}, {"time": 480, "pitch": 63, "duration": 2, "velocity": 107}, {"time": 480, "pitch": 67, "duration": 2, "velocity": 83}, {"time": 486, "pitch": 48, "duration": 8, "velocity": 92}, {"time": 492, "pitch": 60, "duration": 2, "velocity": 92}, {"time": 492, "pitch": 63, "duration": 2, "velocity": 102}, {"time": 492, "pitch": 67, "duration": 2, "velocity": 82}, {"time": 498, "pitch": 43, "duration": 9, "velocity": 57}, {"time": 504, "pitch": 60, "duration": 2, "velocity": 90}, {"time": 504, "pitch": 63, "duration": 2, "velocity": 117}, {"time": 504, "pitch": 67, "duration": 2, "velocity": 89}, {"time": 510, "pitch": 46, "duration": 10, "velocity": 92}, {"time": 516, "pitch": 53, "duration": 2, "velocity": 88}, {"time": 516, "pitch": 58, "duration": 2, "velocity": 95}, {"time": 516, "pitch": 62, "duration": 2, "velocity": 90}, {"time": 522, "pitch": 41, "duration": 9, "velocity": 68}, {"time": 528, "pitch": 53, "duration": 2, "velocity": 95}, {"time": 528, "pitch": 58, "duration": 2, "velocity": 107}, {"time": 528, "pitch": 62, "duration": 2, "velocity": 93}, {"time": 534, "pitch": 48, "duration": 9, "velocity": 82}, {"time": 540, "pitch": 55, "duration": 2, "velocity": 89}, {"time": 540, "pitch": 60, "duration": 2, "velocity": 100}, {"time": 540, "pitch": 63, "duration": 2, "velocity": 97}, {"time": 546, "pitch": 43, "duration": 10, "velocity": 71}, {"time": 552, "pitch": 55, "duration": 2, "velocity": 90}, {"time": 552, "pitch": 60, "duration": 2, "velocity": 100}, {"time": 552, "pitch": 63, "duration": 2, "velocity": 99}, {"time": 558, "pitch": 48, "duration": 9, "velocity": 81}, {"time": 564, "pitch": 55, "duration": 1, "velocity": 89}, {"time": 564, "pitch": 60, "duration": 2, "velocity": 97}, {"time": 564, "pitch": 63, "duration": 2, "velocity": 100}, {"time": 570, "pitch": 43, "duration": 7, "velocity": 76}, {"time": 576, "pitch": 55, "duration": 2, "velocity": 86}, {"time": 576, "pitch": 60, "duration": 2, "velocity": 92}, {"time": 576, "pitch": 63, "duration": 2, "velocity": 99}, {"time": 582, "pitch": 51, "duration": 9, "velocity": 102}, {"time": 588, "pitch": 58, "duration": 2, "velocity": 112}, {"time": 588, "pitch": 63, "duration": 1, "velocity": 102}, {"time": 588, "pitch": 67, "duration": 1, "velocity": 95}, {"time": 594, "pitch": 46, "duration": 8, "velocity": 100}, {"time": 600, "pitch": 58, "duration": 2, "velocity": 112}, {"time": 600, "pitch": 63, "duration": 1, "velocity": 127}, {"time": 600, "pitch": 67, "duration": 1, "velocity": 85}, {"time": 606, "pitch": 46, "duration": 10, "velocity": 96}, {"time": 612, "pitch": 53, "duration": 2, "velocity": 93}, {"time": 612, "pitch": 58, "duration": 2, "velocity": 102}, {"time": 612, "pitch": 62, "duration": 2, "velocity": 93}, {"time": 618, "pitch": 41, "duration": 7, "velocity": 71}, {"time": 624, "pitch": 53, "duration": 2, "velocity": 95}, {"time": 624, "pitch": 58, "duration": 2, "velocity": 107}, {"time": 624, "pitch": 62, "duration": 2, "velocity": 96}, {"time": 630, "pitch": 51, "duration": 8, "velocity": 99}, {"time": 636, "pitch": 58, "duration": 2, "velocity": 112}, {"time": 636, "pitch": 63, "duration": 2, "velocity": 96}, {"time": 636, "pitch": 67, "duration": 2, "velocity": 72}, {"time": 642, "pitch": 46, "duration": 7, "velocity": 99}, {"time": 648, "pitch": 58, "duration": 2, "velocity": 112}, {"time": 648, "pitch": 63, "duration": 1, "velocity": 112}, {"time": 648, "pitch": 67, "duration": 2, "velocity": 82}, {"time": 654, "pitch": 51, "duration": 10, "velocity": 83}, {"time": 660, "pitch": 58, "duration": 2, "velocity": 102}, {"time": 660, "pitch": 63, "duration": 2, "velocity": 112}, {"time": 660, "pitch": 67, "duration": 2, "velocity": 79}, {"time": 666, "pitch": 46, "duration": 9, "velocity": 89}, {"time": 672, "pitch": 58, "duration": 2, "velocity": 112}, {"time": 672, "pitch": 63, "duration": 1, "velocity": 112}, {"time": 672, "pitch": 67, "duration": 1, "velocity": 85}, {"time": 678, "pitch": 48, "duration": 10, "velocity": 71}, {"time": 684, "pitch": 55, "duration": 2, "velocity": 95}, {"time": 684, "pitch": 60, "duration": 2, "velocity": 107}, {"time": 684, "pitch": 63, "duration": 2, "velocity": 102}, {"time": 690, "pitch": 43, "duration": 9, "velocity": 69}, {"time": 696, "pitch": 55, "duration": 2, "velocity": 95}, {"time": 696, "pitch": 60, "duration": 2, "velocity": 107}, {"time": 696, "pitch": 63, "duration": 2, "velocity": 117}, {"time": 702, "pitch": 48, "duration": 10, "velocity": 77}, {"time": 708, "pitch": 55, "duration": 2, "velocity": 93}, {"time": 708, "pitch": 60, "duration": 2, "velocity": 100}, {"time": 708, "pitch": 63, "duration": 2, "velocity": 117}, {"time": 714, "pitch": 43, "duration": 8, "velocity": 75}, {"time": 720, "pitch": 55, "duration": 2, "velocity": 93}, {"time": 720, "pitch": 60, "duration": 2, "velocity": 107}, {"time": 720, "pitch": 63, "duration": 1, "velocity": 85}, {"time": 726, "pitch": 46, "duration": 9, "velocity": 81}, {"time": 732, "pitch": 58, "duration": 2, "velocity": 112}, {"time": 732, "pitch": 62, "duration": 2, "velocity": 96}, {"time": 732, "pitch": 65, "duration": 2, "velocity": 90}, {"time": 738, "pitch": 41, "duration": 7, "velocity": 85}, {"time": 744, "pitch": 58, "duration": 2, "velocity": 127}, {"time": 744, "pitch": 62, "duration": 2, "velocity": 96}, {"time": 744, "pitch": 65, "duration": 2, "velocity": 90}, {"time": 750, "pitch": 48, "duration": 8, "velocity": 89}, {"time": 756, "pitch": 55, "duration": 2, "velocity": 92}, {"time": 756, "pitch": 60, "duration": 2, "velocity": 100}, {"time": 756, "pitch": 63, "duration": 2, "velocity": 107}, {"time": 762, "pitch": 43, "duration": 9, "velocity": 93}, {"time": 768, "pitch": 55, "duration": 1, "velocity": 90}, {"time": 768, "pitch": 60, "duration": 2, "velocity": 99}, {"time": 768, "pitch": 63, "duration": 1, "velocity": 99}, {"time": 774, "pitch": 51, "duration": 11, "velocity": 107}, {"time": 780, "pitch": 58, "duration": 1, "velocity": 89}, {"time": 780, "pitch": 63, "duration": 1, "velocity": 61}, {"time": 780, "pitch": 67, "duration": 1, "velocity": 59}, {"time": 783, "pitch": 58, "duration": 2, "velocity": 93}, {"time": 783, "pitch": 63, "duration": 2, "velocity": 88}, {"time": 783, "pitch": 67, "duration": 2, "velocity": 71}, {"time": 786, "pitch": 46, "duration": 11, "velocity": 88}, {"time": 792, "pitch": 58, "duration": 2, "velocity": 96}, {"time": 792, "pitch": 63, "duration": 1, "velocity": 90}, {"time": 792, "pitch": 67, "duration": 1, "velocity": 63}, {"time": 795, "pitch": 58, "duration": 2, "velocity": 82}, {"time": 795, "pitch": 63, "duration": 2, "velocity": 85}, {"time": 795, "pitch": 67, "duration": 2, "velocity": 77}, {"time": 798, "pitch": 51, "duration": 11, "velocity": 89}, {"time": 804, "pitch": 58, "duration": 1, "velocity": 86}, {"time": 804, "pitch": 63, "duration": 1, "velocity": 86}, {"time": 804, "pitch": 67, "duration": 1, "velocity": 53}, {"time": 807, "pitch": 58, "duration": 2, "velocity": 93}, {"time": 807, "pitch": 63, "duration": 2, "velocity": 93}, {"time": 807, "pitch": 67, "duration": 1, "velocity": 81}, {"time": 810, "pitch": 46, "duration": 10, "velocity": 99}, {"time": 813, "pitch": 58, "duration": 2, "velocity": 86}, {"time": 813, "pitch": 63, "duration": 1, "velocity": 53}, {"time": 813, "pitch": 67, "duration": 1, "velocity": 55}, {"time": 816, "pitch": 58, "duration": 1, "velocity": 97}, {"time": 816, "pitch": 63, "duration": 1, "velocity": 99}, {"time": 816, "pitch": 67, "duration": 1, "velocity": 69}, {"time": 819, "pitch": 58, "duration": 2, "velocity": 97}, {"time": 819, "pitch": 63, "duration": 1, "velocity": 97}, {"time": 819, "pitch": 67, "duration": 1, "velocity": 85}, {"time": 822, "pitch": 51, "duration": 12, "velocity": 97}, {"time": 828, "pitch": 58, "duration": 1, "velocity": 97}, {"time": 828, "pitch": 63, "duration": 1, "velocity": 107}, {"time": 828, "pitch": 67, "duration": 1, "velocity": 81}, {"time": 831, "pitch": 58, "duration": 2, "velocity": 99}, {"time": 831, "pitch": 63, "duration": 1, "velocity": 107}, {"time": 831, "pitch": 67, "duration": 1, "velocity": 89}, {"time": 834, "pitch": 46, "duration": 10, "velocity": 96}, {"time": 837, "pitch": 58, "duration": 1, "velocity": 96}, {"time": 837, "pitch": 63, "duration": 1, "velocity": 67}, {"time": 837, "pitch": 67, "duration": 1, "velocity": 68}, {"time": 840, "pitch": 58, "duration": 7, "velocity": 97}, {"time": 840, "pitch": 63, "duration": 6, "velocity": 96}, {"time": 840, "pitch": 67, "duration": 6, "velocity": 79}, {"time": 846, "pitch": 51, "duration": 11, "velocity": 76}, {"time": 852, "pitch": 58, "duration": 1, "velocity": 99}, {"time": 852, "pitch": 63, "duration": 1, "velocity": 100}, {"time": 852, "pitch": 67, "duration": 1, "velocity": 67}, {"time": 855, "pitch": 58, "duration": 2, "velocity": 99}, {"time": 855, "pitch": 63, "duration": 2, "velocity": 96}, {"time": 855, "pitch": 67, "duration": 2, "velocity": 81}, {"time": 858, "pitch": 46, "duration": 11, "velocity": 81}, {"time": 861, "pitch": 58, "duration": 1, "velocity": 82}, {"time": 861, "pitch": 63, "duration": 1, "velocity": 38}, {"time": 861, "pitch": 67, "duration": 1, "velocity": 52}, {"time": 864, "pitch": 58, "duration": 5, "velocity": 100}, {"time": 864, "pitch": 63, "duration": 2, "velocity": 102}, {"time": 864, "pitch": 67, "duration": 5, "velocity": 71}, {"time": 867, "pitch": 63, "duration": 1, "velocity": 34}, {"time": 870, "pitch": 51, "duration": 12, "velocity": 95}, {"time": 876, "pitch": 58, "duration": 1, "velocity": 99}, {"time": 876, "pitch": 63, "duration": 1, "velocity": 107}, {"time": 876, "pitch": 67, "duration": 1, "velocity": 88}, {"time": 879, "pitch": 58, "duration": 2, "velocity": 88}, {"time": 879, "pitch": 63, "duration": 2, "velocity": 92}, {"time": 879, "pitch": 67, "duration": 2, "velocity": 72}, {"time": 882, "pitch": 46, "duration": 9, "velocity": 83}, {"time": 888, "pitch": 58, "duration": 1, "velocity": 97}, {"time": 888, "pitch": 63, "duration": 1, "velocity": 99}, {"time": 888, "pitch": 67, "duration": 1, "velocity": 77}, {"time": 891, "pitch": 58, "duration": 2, "velocity": 92}, {"time": 891, "pitch": 63, "duration": 2, "velocity": 81}, {"time": 891, "pitch": 67, "duration": 1, "velocity": 72}, {"time": 894, "pitch": 51, "duration": 12, "velocity": 90}, {"time": 900, "pitch": 58, "duration": 1, "velocity": 99}, {"time": 900, "pitch": 63, "duration": 1, "velocity": 112}, {"time": 900, "pitch": 67, "duration": 1, "velocity": 83}, {"time": 903, "pitch": 58, "duration": 2, "velocity": 93}, {"time": 903, "pitch": 63, "duration": 1, "velocity": 93}, {"time": 903, "pitch": 67, "duration": 1, "velocity": 85}, {"time": 906, "pitch": 46, "duration": 11, "velocity": 88}, {"time": 909, "pitch": 58, "duration": 1, "velocity": 97}, {"time": 909, "pitch": 63, "duration": 1, "velocity": 95}, {"time": 909, "pitch": 67, "duration": 1, "velocity": 44}, {"time": 912, "pitch": 58, "duration": 1, "velocity": 92}, {"time": 912, "pitch": 63, "duration": 1, "velocity": 90}, {"time": 912, "pitch": 67, "duration": 1, "velocity": 64}, {"time": 915, "pitch": 58, "duration": 2, "velocity": 100}, {"time": 915, "pitch": 63, "duration": 1, "velocity": 96}, {"time": 915, "pitch": 67, "duration": 1, "velocity": 77}, {"time": 918, "pitch": 43, "duration": 9, "velocity": 66}, {"time": 918, "pitch": 63, "duration": 1, "velocity": 45}, {"time": 924, "pitch": 55, "duration": 1, "velocity": 92}, {"time": 924, "pitch": 58, "duration": 1, "velocity": 112}, {"time": 924, "pitch": 62, "duration": 1, "velocity": 88}, {"time": 927, "pitch": 55, "duration": 3, "velocity": 85}, {"time": 927, "pitch": 58, "duration": 2, "velocity": 112}, {"time": 927, "pitch": 62, "duration": 3, "velocity": 83}, {"time": 930, "pitch": 43, "duration": 9, "velocity": 89}, {"time": 936, "pitch": 55, "duration": 6, "velocity": 93}, {"time": 936, "pitch": 58, "duration": 6, "velocity": 122}, {"time": 936, "pitch": 62, "duration": 5, "velocity": 95}, {"time": 942, "pitch": 48, "duration": 3, "velocity": 95}, {"time": 942, "pitch": 60, "duration": 2, "velocity": 95}, {"time": 942, "pitch": 63, "duration": 2, "velocity": 117}, {"time": 942, "pitch": 67, "duration": 3, "velocity": 90}, {"time": 948, "pitch": 48, "duration": 2, "velocity": 107}, {"time": 948, "pitch": 60, "duration": 3, "velocity": 95}, {"time": 948, "pitch": 63, "duration": 2, "velocity": 117}, {"time": 948, "pitch": 67, "duration": 3, "velocity": 95}, {"time": 954, "pitch": 48, "duration": 3, "velocity": 112}, {"time": 954, "pitch": 60, "duration": 3, "velocity": 97}, {"time": 954, "pitch": 63, "duration": 3, "velocity": 127}, {"time": 954, "pitch": 67, "duration": 3, "velocity": 97}, {"time": 966, "pitch": 46, "duration": 9, "velocity": 97}, {"time": 972, "pitch": 53, "duration": 1, "velocity": 86}, {"time": 972, "pitch": 58, "duration": 1, "velocity": 107}, {"time": 972, "pitch": 62, "duration": 1, "velocity": 92}, {"time": 975, "pitch": 53, "duration": 1, "velocity": 59}, {"time": 975, "pitch": 58, "duration": 1, "velocity": 95}, {"time": 975, "pitch": 62, "duration": 1, "velocity": 85}, {"time": 978, "pitch": 41, "duration": 9, "velocity": 79}, {"time": 984, "pitch": 53, "duration": 1, "velocity": 93}, {"time": 984, "pitch": 58, "duration": 1, "velocity": 102}, {"time": 984, "pitch": 62, "duration": 1, "velocity": 95}, {"time": 990, "pitch": 46, "duration": 2, "velocity": 112}, {"time": 990, "pitch": 53, "duration": 1, "velocity": 83}, {"time": 990, "pitch": 58, "duration": 2, "velocity": 99}, {"time": 990, "pitch": 62, "duration": 2, "velocity": 89}, {"time": 996, "pitch": 46, "duration": 2, "velocity": 122}, {"time": 996, "pitch": 53, "duration": 2, "velocity": 90}, {"time": 996, "pitch": 58, "duration": 2, "velocity": 102}, {"time": 996, "pitch": 62, "duration": 2, "velocity": 92}, {"time": 1002, "pitch": 46, "duration": 3, "velocity": 127}, {"time": 1002, "pitch": 53, "duration": 3, "velocity": 96}, {"time": 1002, "pitch": 58, "duration": 3, "velocity": 117}, {"time": 1002, "pitch": 62, "duration": 3, "velocity": 100}, {"time": 1014, "pitch": 51, "duration": 10, "velocity": 99}, {"time": 1020, "pitch": 55, "duration": 1, "velocity": 82}, {"time": 1020, "pitch": 58, "duration": 1, "velocity": 107}, {"time": 1020, "pitch": 63, "duration": 1, "velocity": 90}, {"time": 1023, "pitch": 55, "duration": 2, "velocity": 78}, {"time": 1023, "pitch": 58, "duration": 2, "velocity": 112}, {"time": 1023, "pitch": 63, "duration": 2, "velocity": 100}, {"time": 1026, "pitch": 46, "duration": 9, "velocity": 93}, {"time": 1032, "pitch": 55, "duration": 1, "velocity": 83}, {"time": 1032, "pitch": 58, "duration": 1, "velocity": 117}, {"time": 1032, "pitch": 63, "duration": 1, "velocity": 102}, {"time": 1035, "pitch": 55, "duration": 1, "velocity": 76}, {"time": 1035, "pitch": 58, "duration": 2, "velocity": 100}, {"time": 1035, "pitch": 63, "duration": 2, "velocity": 90}, {"time": 1038, "pitch": 51, "duration": 11, "velocity": 95}, {"time": 1044, "pitch": 55, "duration": 2, "velocity": 76}, {"time": 1044, "pitch": 58, "duration": 1, "velocity": 100}, {"time": 1044, "pitch": 63, "duration": 1, "velocity": 96}, {"time": 1047, "pitch": 55, "duration": 2, "velocity": 69}, {"time": 1047, "pitch": 58, "duration": 2, "velocity": 92}, {"time": 1047, "pitch": 63, "duration": 2, "velocity": 93}, {"time": 1050, "pitch": 46, "duration": 10, "velocity": 86}, {"time": 1053, "pitch": 55, "duration": 1, "velocity": 64}, {"time": 1053, "pitch": 58, "duration": 1, "velocity": 93}, {"time": 1053, "pitch": 63, "duration": 1, "velocity": 90}, {"time": 1056, "pitch": 55, "duration": 5, "velocity": 81}, {"time": 1056, "pitch": 58, "duration": 5, "velocity": 112}, {"time": 1056, "pitch": 63, "duration": 4, "velocity": 122}, {"time": 1062, "pitch": 43, "duration": 12, "velocity": 67}, {"time": 1068, "pitch": 55, "duration": 1, "velocity": 90}, {"time": 1068, "pitch": 58, "duration": 1, "velocity": 122}, {"time": 1068, "pitch": 62, "duration": 1, "velocity": 95}, {"time": 1071, "pitch": 55, "duration": 2, "velocity": 68}, {"time": 1071, "pitch": 58, "duration": 2, "velocity": 96}, {"time": 1071, "pitch": 62, "duration": 2, "velocity": 86}, {"time": 1074, "pitch": 50, "duration": 10, "velocity": 58}, {"time": 1080, "pitch": 55, "duration": 1, "velocity": 81}, {"time": 1080, "pitch": 58, "duration": 1, "velocity": 100}, {"time": 1080, "pitch": 62, "duration": 1, "velocity": 89}, {"time": 1083, "pitch": 55, "duration": 1, "velocity": 83}, {"time": 1083, "pitch": 58, "duration": 2, "velocity": 100}, {"time": 1083, "pitch": 62, "duration": 2, "velocity": 95}, {"time": 1086, "pitch": 43, "duration": 10, "velocity": 69}, {"time": 1092, "pitch": 55, "duration": 1, "velocity": 86}, {"time": 1092, "pitch": 58, "duration": 1, "velocity": 112}, {"time": 1092, "pitch": 62, "duration": 1, "velocity": 89}, {"time": 1095, "pitch": 55, "duration": 2, "velocity": 75}, {"time": 1095, "pitch": 58, "duration": 2, "velocity": 100}, {"time": 1095, "pitch": 62, "duration": 2, "velocity": 92}, {"time": 1098, "pitch": 50, "duration": 9, "velocity": 89}, {"time": 1104, "pitch": 55, "duration": 1, "velocity": 86}, {"time": 1104, "pitch": 58, "duration": 1, "velocity": 107}, {"time": 1104, "pitch": 62, "duration": 1, "velocity": 93}, {"time": 1107, "pitch": 55, "duration": 1, "velocity": 85}, {"time": 1107, "pitch": 58, "duration": 1, "velocity": 122}, {"time": 1107, "pitch": 62, "duration": 1, "velocity": 86}, {"time": 1110, "pitch": 51, "duration": 11, "velocity": 72}, {"time": 1116, "pitch": 58, "duration": 1, "velocity": 96}, {"time": 1116, "pitch": 63, "duration": 1, "velocity": 90}, {"time": 1116, "pitch": 67, "duration": 1, "velocity": 66}, {"time": 1119, "pitch": 58, "duration": 2, "velocity": 78}, {"time": 1119, "pitch": 63, "duration": 2, "velocity": 74}, {"time": 1119, "pitch": 67, "duration": 2, "velocity": 68}, {"time": 1122, "pitch": 46, "duration": 11, "velocity": 72}, {"time": 1125, "pitch": 58, "duration": 1, "velocity": 78}, {"time": 1125, "pitch": 63, "duration": 1, "velocity": 59}, {"time": 1125, "pitch": 67, "duration": 1, "velocity": 63}, {"time": 1128, "pitch": 58, "duration": 4, "velocity": 102}, {"time": 1128, "pitch": 63, "duration": 4, "velocity": 102}, {"time": 1128, "pitch": 67, "duration": 4, "velocity": 88}, {"time": 1134, "pitch": 43, "duration": 8, "velocity": 69}, {"time": 1140, "pitch": 55, "duration": 1, "velocity": 88}, {"time": 1140, "pitch": 58, "duration": 1, "velocity": 100}, {"time": 1140, "pitch": 62, "duration": 1, "velocity": 92}, {"time": 1143, "pitch": 55, "duration": 2, "velocity": 79}, {"time": 1143, "pitch": 58, "duration": 2, "velocity": 99}, {"time": 1143, "pitch": 62, "duration": 2, "velocity": 88}, {"time": 1146, "pitch": 44, "duration": 9, "velocity": 66}, {"time": 1152, "pitch": 56, "duration": 1, "velocity": 95}, {"time": 1152, "pitch": 60, "duration": 1, "velocity": 100}, {"time": 1152, "pitch": 63, "duration": 1, "velocity": 112}, {"time": 1155, "pitch": 56, "duration": 2, "velocity": 97}, {"time": 1155, "pitch": 60, "duration": 1, "velocity": 89}, {"time": 1155, "pitch": 63, "duration": 1, "velocity": 93}, {"time": 1158, "pitch": 46, "duration": 9, "velocity": 66}, {"time": 1164, "pitch": 53, "duration": 1, "velocity": 88}, {"time": 1164, "pitch": 58, "duration": 1, "velocity": 107}, {"time": 1164, "pitch": 62, "duration": 2, "velocity": 93}, {"time": 1167, "pitch": 53, "duration": 2, "velocity": 76}, {"time": 1167, "pitch": 58, "duration": 2, "velocity": 95}, {"time": 1167, "pitch": 62, "duration": 2, "velocity": 81}, {"time": 1170, "pitch": 46, "duration": 9, "velocity": 92}, {"time": 1176, "pitch": 53, "duration": 1, "velocity": 82}, {"time": 1176, "pitch": 58, "duration": 1, "velocity": 99}, {"time": 1176, "pitch": 62, "duration": 1, "velocity": 90}, {"time": 1179, "pitch": 53, "duration": 1, "velocity": 76}, {"time": 1179, "pitch": 58, "duration": 1, "velocity": 107}, {"time": 1179, "pitch": 62, "duration": 1, "velocity": 93}, {"time": 1182, "pitch": 46, "duration": 11, "velocity": 92}, {"time": 1188, "pitch": 53, "duration": 1, "velocity": 93}, {"time": 1188, "pitch": 58, "duration": 1, "velocity": 127}, {"time": 1188, "pitch": 62, "duration": 1, "velocity": 95}, {"time": 1191, "pitch": 53, "duration": 1, "velocity": 85}, {"time": 1191, "pitch": 58, "duration": 1, "velocity": 122}, {"time": 1191, "pitch": 62, "duration": 1, "velocity": 96}, {"time": 1194, "pitch": 41, "duration": 8, "velocity": 85}, {"time": 1200, "pitch": 53, "duration": 3, "velocity": 97}, {"time": 1200, "pitch": 58, "duration": 3, "velocity": 127}, {"time": 1200, "pitch": 62, "duration": 3, "velocity": 100}, {"time": 1206, "pitch": 48, "duration": 5, "velocity": 89}, {"time": 1206, "pitch": 55, "duration": 4, "velocity": 96}, {"time": 1206, "pitch": 60, "duration": 5, "velocity": 99}, {"time": 1206, "pitch": 63, "duration": 5, "velocity": 112}, {"time": 1230, "pitch": 43, "duration": 2, "velocity": 88}, {"time": 1230, "pitch": 55, "duration": 2, "velocity": 96}, {"time": 1230, "pitch": 58, "duration": 2, "velocity": 117}, {"time": 1230, "pitch": 62, "duration": 2, "velocity": 96}, {"time": 1236, "pitch": 43, "duration": 3, "velocity": 89}, {"time": 1236, "pitch": 55, "duration": 3, "velocity": 92}, {"time": 1236, "pitch": 58, "duration": 3, "velocity": 102}, {"time": 1236, "pitch": 62, "duration": 3, "velocity": 95}, {"time": 1242, "pitch": 43, "duration": 5, "velocity": 89}, {"time": 1242, "pitch": 55, "duration": 5, "velocity": 89}, {"time": 1242, "pitch": 58, "duration": 5, "velocity": 102}, {"time": 1242, "pitch": 62, "duration": 5, "velocity": 89}, {"time": 1254, "pitch": 48, "duration": 3, "velocity": 72}, {"time": 1254, "pitch": 55, "duration": 3, "velocity": 79}, {"time": 1254, "pitch": 60, "duration": 2, "velocity": 88}, {"time": 1254, "pitch": 63, "duration": 2, "velocity": 77}, {"time": 1266, "pitch": 48, "duration": 3, "velocity": 99}, {"time": 1266, "pitch": 55, "duration": 3, "velocity": 88}, {"time": 1266, "pitch": 60, "duration": 3, "velocity": 88}, {"time": 1266, "pitch": 63, "duration": 3, "velocity": 90}, {"time": 1278, "pitch": 43, "duration": 20, "velocity": 74}, {"time": 1278, "pitch": 55, "duration": 20, "velocity": 92}, {"time": 1278, "pitch": 58, "duration": 20, "velocity": 100}, {"time": 1278, "pitch": 62, "duration": 18, "velocity": 89}, {"time": 1302, "pitch": 48, "duration": 10, "velocity": 88}, {"time": 1302, "pitch": 63, "duration": 2, "velocity": 32}, {"time": 1308, "pitch": 55, "duration": 1, "velocity": 88}, {"time": 1308, "pitch": 60, "duration": 1, "velocity": 99}, {"time": 1308, "pitch": 63, "duration": 1, "velocity": 100}, {"time": 1311, "pitch": 55, "duration": 1, "velocity": 72}, {"time": 1311, "pitch": 60, "duration": 1, "velocity": 97}, {"time": 1311, "pitch": 63, "duration": 2, "velocity": 95}, {"time": 1314, "pitch": 43, "duration": 8, "velocity": 75}, {"time": 1320, "pitch": 55, "duration": 2, "velocity": 89}, {"time": 1320, "pitch": 60, "duration": 1, "velocity": 93}, {"time": 1320, "pitch": 63, "duration": 2, "velocity": 93}, {"time": 1326, "pitch": 48, "duration": 11, "velocity": 85}, {"time": 1332, "pitch": 55, "duration": 1, "velocity": 81}, {"time": 1332, "pitch": 60, "duration": 1, "velocity": 97}, {"time": 1332, "pitch": 63, "duration": 1, "velocity": 99}, {"time": 1335, "pitch": 55, "duration": 1, "velocity": 77}, {"time": 1335, "pitch": 60, "duration": 1, "velocity": 96}, {"time": 1335, "pitch": 63, "duration": 1, "velocity": 96}, {"time": 1338, "pitch": 43, "duration": 9, "velocity": 83}, {"time": 1344, "pitch": 55, "duration": 1, "velocity": 93}, {"time": 1344, "pitch": 60, "duration": 1, "velocity": 112}, {"time": 1344, "pitch": 63, "duration": 1, "velocity": 100}, {"time": 1350, "pitch": 48, "duration": 12, "velocity": 85}, {"time": 1356, "pitch": 55, "duration": 1, "velocity": 83}, {"time": 1356, "pitch": 60, "duration": 1, "velocity": 112}, {"time": 1356, "pitch": 63, "duration": 1, "velocity": 100}, {"time": 1359, "pitch": 55, "duration": 1, "velocity": 78}, {"time": 1359, "pitch": 60, "duration": 1, "velocity": 99}, {"time": 1359, "pitch": 63, "duration": 2, "velocity": 107}, {"time": 1362, "pitch": 43, "duration": 10, "velocity": 73}, {"time": 1368, "pitch": 55, "duration": 1, "velocity": 85}, {"time": 1368, "pitch": 60, "duration": 1, "velocity": 107}, {"time": 1368, "pitch": 63, "duration": 1, "velocity": 100}, {"time": 1374, "pitch": 48, "duration": 11, "velocity": 69}, {"time": 1380, "pitch": 55, "duration": 1, "velocity": 79}, {"time": 1380, "pitch": 60, "duration": 1, "velocity": 99}, {"time": 1380, "pitch": 63, "duration": 1, "velocity": 97}, {"time": 1383, "pitch": 55, "duration": 1, "velocity": 78}, {"time": 1383, "pitch": 60, "duration": 1, "velocity": 107}, {"time": 1383, "pitch": 63, "duration": 1, "velocity": 100}, {"time": 1386, "pitch": 43, "duration": 8, "velocity": 81}, {"time": 1392, "pitch": 55, "duration": 2, "velocity": 89}, {"time": 1392, "pitch": 60, "duration": 1, "velocity": 102}, {"time": 1392, "pitch": 63, "duration": 2, "velocity": 102}, {"time": 1398, "pitch": 39, "duration": 8, "velocity": 75}, {"time": 1404, "pitch": 58, "duration": 2, "velocity": 96}, {"time": 1404, "pitch": 63, "duration": 2, "velocity": 85}, {"time": 1404, "pitch": 67, "duration": 2, "velocity": 70}, {"time": 1410, "pitch": 51, "duration": 8, "velocity": 66}, {"time": 1416, "pitch": 58, "duration": 2, "velocity": 97}, {"time": 1416, "pitch": 63, "duration": 2, "velocity": 93}, {"time": 1416, "pitch": 67, "duration": 2, "velocity": 66}, {"time": 1422, "pitch": 46, "duration": 7, "velocity": 72}, {"time": 1422, "pitch": 63, "duration": 2, "velocity": 40}, {"time": 1428, "pitch": 53, "duration": 2, "velocity": 89}, {"time": 1428, "pitch": 58, "duration": 2, "velocity": 97}, {"time": 1428, "pitch": 62, "duration": 2, "velocity": 95}, {"time": 1434, "pitch": 46, "duration": 6, "velocity": 71}, {"time": 1440, "pitch": 53, "duration": 1, "velocity": 93}, {"time": 1440, "pitch": 58, "duration": 1, "velocity": 112}, {"time": 1440, "pitch": 62, "duration": 2, "velocity": 97}, {"time": 1446, "pitch": 39, "duration": 11, "velocity": 40}, {"time": 1452, "pitch": 58, "duration": 2, "velocity": 100}, {"time": 1452, "pitch": 63, "duration": 2, "velocity": 81}, {"time": 1452, "pitch": 67, "duration": 2, "velocity": 72}, {"time": 1458, "pitch": 51, "duration": 7, "velocity": 86}, {"time": 1464, "pitch": 58, "duration": 2, "velocity": 107}, {"time": 1464, "pitch": 63, "duration": 2, "velocity": 107}, {"time": 1464, "pitch": 67, "duration": 2, "velocity": 90}, {"time": 1470, "pitch": 43, "duration": 11, "velocity": 78}, {"time": 1476, "pitch": 55, "duration": 2, "velocity": 93}, {"time": 1476, "pitch": 58, "duration": 2, "velocity": 102}, {"time": 1476, "pitch": 62, "duration": 2, "velocity": 93}, {"time": 1482, "pitch": 50, "duration": 8, "velocity": 78}, {"time": 1488, "pitch": 55, "duration": 2, "velocity": 88}, {"time": 1488, "pitch": 58, "duration": 2, "velocity": 107}, {"time": 1488, "pitch": 62, "duration": 3, "velocity": 89}, {"time": 1494, "pitch": 44, "duration": 4, "velocity": 100}, {"time": 1494, "pitch": 56, "duration": 4, "velocity": 102}, {"time": 1494, "pitch": 60, "duration": 4, "velocity": 99}, {"time": 1494, "pitch": 63, "duration": 4, "velocity": 107}, {"time": 1512, "pitch": 39, "duration": 4, "velocity": 100}, {"time": 1512, "pitch": 51, "duration": 4, "velocity": 107}, {"time": 1518, "pitch": 44, "duration": 2, "velocity": 117}, {"time": 1518, "pitch": 56, "duration": 4, "velocity": 107}, {"time": 1518, "pitch": 60, "duration": 3, "velocity": 99}, {"time": 1518, "pitch": 63, "duration": 4, "velocity": 96}, {"time": 1536, "pitch": 39, "duration": 4, "velocity": 99}, {"time": 1536, "pitch": 51, "duration": 4, "velocity": 112}, {"time": 1542, "pitch": 46, "duration": 4, "velocity": 89}, {"time": 1542, "pitch": 53, "duration": 4, "velocity": 96}, {"time": 1542, "pitch": 58, "duration": 4, "velocity": 100}, {"time": 1542, "pitch": 62, "duration": 4, "velocity": 86}, {"time": 1542, "pitch": 65, "duration": 4, "velocity": 72}, {"time": 1560, "pitch": 46, "duration": 3, "velocity": 102}, {"time": 1560, "pitch": 53, "duration": 2, "velocity": 86}, {"time": 1560, "pitch": 58, "duration": 2, "velocity": 96}, {"time": 1560, "pitch": 62, "duration": 2, "velocity": 88}, {"time": 1566, "pitch": 39, "duration": 3, "velocity": 99}, {"time": 1566, "pitch": 51, "duration": 3, "velocity": 107}, {"time": 1566, "pitch": 63, "duration": 2, "velocity": 122}, {"time": 1572, "pitch": 34, "duration": 3, "velocity": 96}, {"time": 1572, "pitch": 46, "duration": 3, "velocity": 97}, {"time": 1572, "pitch": 58, "duration": 3, "velocity": 90}, {"time": 1578, "pitch": 39, "duration": 4, "velocity": 73}, {"time": 1578, "pitch": 51, "duration": 4, "velocity": 72}, {"time": 1578, "pitch": 55, "duration": 4, "velocity": 89}, {"time": 1578, "pitch": 58, "duration": 4, "velocity": 100}, {"time": 1578, "pitch": 63, "duration": 4, "velocity": 92}, {"time": 1590, "pitch": 51, "duration": 9, "velocity": 92}, {"time": 1596, "pitch": 58, "duration": 2, "velocity": 95}, {"time": 1596, "pitch": 63, "duration": 1, "velocity": 75}, {"time": 1596, "pitch": 67, "duration": 2, "velocity": 93}, {"time": 1602, "pitch": 46, "duration": 7, "velocity": 69}, {"time": 1608, "pitch": 58, "duration": 2, "velocity": 97}, {"time": 1608, "pitch": 63, "duration": 1, "velocity": 86}, {"time": 1608, "pitch": 67, "duration": 2, "velocity": 69}, {"time": 1614, "pitch": 51, "duration": 9, "velocity": 92}, {"time": 1620, "pitch": 58, "duration": 2, "velocity": 97}, {"time": 1620, "pitch": 63, "duration": 1, "velocity": 86}, {"time": 1620, "pitch": 67, "duration": 2, "velocity": 69}, {"time": 1626, "pitch": 46, "duration": 10, "velocity": 97}, {"time": 1632, "pitch": 58, "duration": 2, "velocity": 107}, {"time": 1632, "pitch": 63, "duration": 2, "velocity": 107}, {"time": 1632, "pitch": 67, "duration": 2, "velocity": 83}, {"time": 1638, "pitch": 48, "duration": 8, "velocity": 92}, {"time": 1644, "pitch": 60, "duration": 2, "velocity": 92}, {"time": 1644, "pitch": 63, "duration": 2, "velocity": 102}, {"time": 1644, "pitch": 67, "duration": 2, "velocity": 82}, {"time": 1650, "pitch": 43, "duration": 9, "velocity": 57}, {"time": 1656, "pitch": 60, "duration": 2, "velocity": 90}, {"time": 1656, "pitch": 63, "duration": 2, "velocity": 117}, {"time": 1656, "pitch": 67, "duration": 2, "velocity": 89}, {"time": 1662, "pitch": 46, "duration": 10, "velocity": 92}, {"time": 1668, "pitch": 53, "duration": 2, "velocity": 88}, {"time": 1668, "pitch": 58, "duration": 2, "velocity": 95}, {"time": 1668, "pitch": 62, "duration": 2, "velocity": 90}, {"time": 1674, "pitch": 41, "duration": 9, "velocity": 68}, {"time": 1680, "pitch": 53, "duration": 2, "velocity": 95}, {"time": 1680, "pitch": 58, "duration": 2, "velocity": 107}, {"time": 1680, "pitch": 62, "duration": 2, "velocity": 93}, {"time": 1686, "pitch": 48, "duration": 9, "velocity": 82}, {"time": 1692, "pitch": 55, "duration": 2, "velocity": 89}, {"time": 1692, "pitch": 60, "duration": 2, "velocity": 100}, {"time": 1692, "pitch": 63, "duration": 2, "velocity": 97}, {"time": 1698, "pitch": 43, "duration": 10, "velocity": 71}, {"time": 1704, "pitch": 55, "duration": 2, "velocity": 90}, {"time": 1704, "pitch": 60, "duration": 2, "velocity": 100}, {"time": 1704, "pitch": 63, "duration": 2, "velocity": 99}, {"time": 1710, "pitch": 48, "duration": 9, "velocity": 81}, {"time": 1716, "pitch": 55, "duration": 1, "velocity": 89}, {"time": 1716, "pitch": 60, "duration": 2, "velocity": 97}, {"time": 1716, "pitch": 63, "duration": 2, "velocity": 100}, {"time": 1722, "pitch": 43, "duration": 7, "velocity": 76}, {"time": 1728, "pitch": 55, "duration": 2, "velocity": 86}, {"time": 1728, "pitch": 60, "duration": 2, "velocity": 92}, {"time": 1728, "pitch": 63, "duration": 2, "velocity": 99}, {"time": 1734, "pitch": 51, "duration": 9, "velocity": 102}, {"time": 1740, "pitch": 58, "duration": 2, "velocity": 112}, {"time": 1740, "pitch": 63, "duration": 1, "velocity": 102}, {"time": 1740, "pitch": 67, "duration": 1, "velocity": 95}, {"time": 1746, "pitch": 46, "duration": 8, "velocity": 100}, {"time": 1752, "pitch": 58, "duration": 2, "velocity": 112}, {"time": 1752, "pitch": 63, "duration": 1, "velocity": 127}, {"time": 1752, "pitch": 67, "duration": 1, "velocity": 85}, {"time": 1758, "pitch": 46, "duration": 10, "velocity": 96}, {"time": 1764, "pitch": 53, "duration": 2, "velocity": 93}, {"time": 1764, "pitch": 58, "duration": 2, "velocity": 102}, {"time": 1764, "pitch": 62, "duration": 2, "velocity": 93}, {"time": 1770, "pitch": 41, "duration": 7, "velocity": 71}, {"time": 1776, "pitch": 53, "duration": 2, "velocity": 95}, {"time": 1776, "pitch": 58, "duration": 2, "velocity": 107}, {"time": 1776, "pitch": 62, "duration": 2, "velocity": 96}, {"time": 1782, "pitch": 51, "duration": 8, "velocity": 99}, {"time": 1788, "pitch": 58, "duration": 2, "velocity": 112}, {"time": 1788, "pitch": 63, "duration": 2, "velocity": 96}, {"time": 1788, "pitch": 67, "duration": 2, "velocity": 72}, {"time": 1794, "pitch": 46, "duration": 7, "velocity": 99}, {"time": 1800, "pitch": 58, "duration": 2, "velocity": 112}, {"time": 1800, "pitch": 63, "duration": 1, "velocity": 112}, {"time": 1800, "pitch": 67, "duration": 2, "velocity": 82}, {"time": 1806, "pitch": 51, "duration": 10, "velocity": 83}, {"time": 1812, "pitch": 58, "duration": 2, "velocity": 102}, {"time": 1812, "pitch": 63, "duration": 2, "velocity": 112}, {"time": 1812, "pitch": 67, "duration": 2, "velocity": 79}, {"time": 1818, "pitch": 46, "duration": 9, "velocity": 89}, {"time": 1824, "pitch": 58, "duration": 2, "velocity": 112}, {"time": 1824, "pitch": 63, "duration": 1, "velocity": 112}, {"time": 1824, "pitch": 67, "duration": 1, "velocity": 85}, {"time": 1830, "pitch": 48, "duration": 10, "velocity": 71}, {"time": 1836, "pitch": 55, "duration": 2, "velocity": 95}, {"time": 1836, "pitch": 60, "duration": 2, "velocity": 107}, {"time": 1836, "pitch": 63, "duration": 2, "velocity": 102}, {"time": 1842, "pitch": 43, "duration": 9, "velocity": 69}, {"time": 1848, "pitch": 55, "duration": 2, "velocity": 95}, {"time": 1848, "pitch": 60, "duration": 2, "velocity": 107}, {"time": 1848, "pitch": 63, "duration": 2, "velocity": 117}, {"time": 1854, "pitch": 48, "duration": 10, "velocity": 77}, {"time": 1860, "pitch": 55, "duration": 2, "velocity": 93}, {"time": 1860, "pitch": 60, "duration": 2, "velocity": 100}, {"time": 1860, "pitch": 63, "duration": 2, "velocity": 117}, {"time": 1866, "pitch": 43, "duration": 8, "velocity": 75}, {"time": 1872, "pitch": 55, "duration": 2, "velocity": 93}, {"time": 1872, "pitch": 60, "duration": 2, "velocity": 107}, {"time": 1872, "pitch": 63, "duration": 1, "velocity": 85}, {"time": 1878, "pitch": 46, "duration": 9, "velocity": 81}, {"time": 1884, "pitch": 58, "duration": 2, "velocity": 112}, {"time": 1884, "pitch": 62, "duration": 2, "velocity": 96}, {"time": 1884, "pitch": 65, "duration": 2, "velocity": 90}, {"time": 1890, "pitch": 41, "duration": 7, "velocity": 85}, {"time": 1896, "pitch": 58, "duration": 2, "velocity": 127}, {"time": 1896, "pitch": 62, "duration": 2, "velocity": 96}, {"time": 1896, "pitch": 65, "duration": 2, "velocity": 90}, {"time": 1902, "pitch": 48, "duration": 8, "velocity": 89}, {"time": 1908, "pitch": 55, "duration": 2, "velocity": 92}, {"time": 1908, "pitch": 60, "duration": 2, "velocity": 100}, {"time": 1908, "pitch": 63, "duration": 2, "velocity": 107}, {"time": 1914, "pitch": 43, "duration": 9, "velocity": 93}, {"time": 1920, "pitch": 55, "duration": 1, "velocity": 90}, {"time": 1920, "pitch": 60, "duration": 2, "velocity": 99}, {"time": 1920, "pitch": 63, "duration": 1, "velocity": 99}, {"time": 1926, "pitch": 51, "duration": 11, "velocity": 107}, {"time": 1932, "pitch": 58, "duration": 1, "velocity": 89}, {"time": 1932, "pitch": 63, "duration": 1, "velocity": 61}, {"time": 1932, "pitch": 67, "duration": 1, "velocity": 59}, {"time": 1935, "pitch": 58, "duration": 2, "velocity": 93}, {"time": 1935, "pitch": 63, "duration": 2, "velocity": 88}, {"time": 1935, "pitch": 67, "duration": 2, "velocity": 71}, {"time": 1938, "pitch": 46, "duration": 11, "velocity": 88}, {"time": 1944, "pitch": 58, "duration": 2, "velocity": 96}, {"time": 1944, "pitch": 63, "duration": 1, "velocity": 90}, {"time": 1944, "pitch": 67, "duration": 1, "velocity": 63}, {"time": 1947, "pitch": 58, "duration": 2, "velocity": 82}, {"time": 1947, "pitch": 63, "duration": 2, "velocity": 85}, {"time": 1947, "pitch": 67, "duration": 2, "velocity": 77}, {"time": 1950, "pitch": 51, "duration": 11, "velocity": 89}, {"time": 1956, "pitch": 58, "duration": 1, "velocity": 86}, {"time": 1956, "pitch": 63, "duration": 1, "velocity": 86}, {"time": 1956, "pitch": 67, "duration": 1, "velocity": 53}, {"time": 1959, "pitch": 58, "duration": 2, "velocity": 93}, {"time": 1959, "pitch": 63, "duration": 2, "velocity": 93}, {"time": 1959, "pitch": 67, "duration": 1, "velocity": 81}, {"time": 1962, "pitch": 46, "duration": 10, "velocity": 99}, {"time": 1965, "pitch": 58, "duration": 2, "velocity": 86}, {"time": 1965, "pitch": 63, "duration": 1, "velocity": 53}, {"time": 1965, "pitch": 67, "duration": 1, "velocity": 55}, {"time": 1968, "pitch": 58, "duration": 1, "velocity": 97}, {"time": 1968, "pitch": 63, "duration": 1, "velocity": 99}, {"time": 1968, "pitch": 67, "duration": 1, "velocity": 69}, {"time": 1971, "pitch": 58, "duration": 2, "velocity": 97}, {"time": 1971, "pitch": 63, "duration": 1, "velocity": 97}, {"time": 1971, "pitch": 67, "duration": 1, "velocity": 85}, {"time": 1974, "pitch": 51, "duration": 12, "velocity": 97}, {"time": 1980, "pitch": 58, "duration": 1, "velocity": 97}, {"time": 1980, "pitch": 63, "duration": 1, "velocity": 107}, {"time": 1980, "pitch": 67, "duration": 1, "velocity": 81}, {"time": 1983, "pitch": 58, "duration": 2, "velocity": 99}, {"time": 1983, "pitch": 63, "duration": 1, "velocity": 107}, {"time": 1983, "pitch": 67, "duration": 1, "velocity": 89}, {"time": 1986, "pitch": 46, "duration": 10, "velocity": 96}, {"time": 1989, "pitch": 58, "duration": 1, "velocity": 96}, {"time": 1989, "pitch": 63, "duration": 1, "velocity": 67}, {"time": 1989, "pitch": 67, "duration": 1, "velocity": 68}, {"time": 1992, "pitch": 58, "duration": 7, "velocity": 97}, {"time": 1992, "pitch": 63, "duration": 6, "velocity": 96}, {"time": 1992, "pitch": 67, "duration": 6, "velocity": 79}, {"time": 1998, "pitch": 51, "duration": 11, "velocity": 76}, {"time": 2004, "pitch": 58, "duration": 1, "velocity": 99}, {"time": 2004, "pitch": 63, "duration": 1, "velocity": 100}, {"time": 2004, "pitch": 67, "duration": 1, "velocity": 67}, {"time": 2007, "pitch": 58, "duration": 2, "velocity": 99}, {"time": 2007, "pitch": 63, "duration": 2, "velocity": 96}, {"time": 2007, "pitch": 67, "duration": 2, "velocity": 81}, {"time": 2010, "pitch": 46, "duration": 11, "velocity": 81}, {"time": 2013, "pitch": 58, "duration": 1, "velocity": 82}, {"time": 2013, "pitch": 63, "duration": 1, "velocity": 38}, {"time": 2013, "pitch": 67, "duration": 1, "velocity": 52}, {"time": 2016, "pitch": 58, "duration": 5, "velocity": 100}, {"time": 2016, "pitch": 63, "duration": 2, "velocity": 102}, {"time": 2016, "pitch": 67, "duration": 5, "velocity": 71}, {"time": 2019, "pitch": 63, "duration": 1, "velocity": 34}, {"time": 2022, "pitch": 51, "duration": 12, "velocity": 95}, {"time": 2028, "pitch": 58, "duration": 1, "velocity": 99}, {"time": 2028, "pitch": 63, "duration": 1, "velocity": 107}, {"time": 2028, "pitch": 67, "duration": 1, "velocity": 88}, {"time": 2031, "pitch": 58, "duration": 2, "velocity": 88}, {"time": 2031, "pitch": 63, "duration": 2, "velocity": 92}, {"time": 2031, "pitch": 67, "duration": 2, "velocity": 72}, {"time": 2034, "pitch": 46, "duration": 9, "velocity": 83}, {"time": 2040, "pitch": 58, "duration": 1, "velocity": 97}, {"time": 2040, "pitch": 63, "duration": 1, "velocity": 99}, {"time": 2040, "pitch": 67, "duration": 1, "velocity": 77}, {"time": 2043, "pitch": 58, "duration": 2, "velocity": 92}, {"time": 2043, "pitch": 63, "duration": 2, "velocity": 81}, {"time": 2043, "pitch": 67, "duration": 1, "velocity": 72}, {"time": 2046, "pitch": 51, "duration": 12, "velocity": 90}, {"time": 2052, "pitch": 58, "duration": 1, "velocity": 99}, {"time": 2052, "pitch": 63, "duration": 1, "velocity": 112}, {"time": 2052, "pitch": 67, "duration": 1, "velocity": 83}, {"time": 2055, "pitch": 58, "duration": 2, "velocity": 93}, {"time": 2055, "pitch": 63, "duration": 1, "velocity": 93}, {"time": 2055, "pitch": 67, "duration": 1, "velocity": 85}, {"time": 2058, "pitch": 46, "duration": 11, "velocity": 88}, {"time": 2061, "pitch": 58, "duration": 1, "velocity": 97}, {"time": 2061, "pitch": 63, "duration": 1, "velocity": 95}, {"time": 2061, "pitch": 67, "duration": 1, "velocity": 44}, {"time": 2064, "pitch": 58, "duration": 1, "velocity": 92}, {"time": 2064, "pitch": 63, "duration": 1, "velocity": 90}, {"time": 2064, "pitch": 67, "duration": 1, "velocity": 64}, {"time": 2067, "pitch": 58, "duration": 2, "velocity": 100}, {"time": 2067, "pitch": 63, "duration": 1, "velocity": 96}, {"time": 2067, "pitch": 67, "duration": 1, "velocity": 77}, {"time": 2070, "pitch": 43, "duration": 9, "velocity": 66}, {"time": 2070, "pitch": 63, "duration": 1, "velocity": 45}, {"time": 2076, "pitch": 55, "duration": 1, "velocity": 92}, {"time": 2076, "pitch": 58, "duration": 1, "velocity": 112}, {"time": 2076, "pitch": 62, "duration": 1, "velocity": 88}, {"time": 2079, "pitch": 55, "duration": 3, "velocity": 85}, {"time": 2079, "pitch": 58, "duration": 2, "velocity": 112}, {"time": 2079, "pitch": 62, "duration": 3, "velocity": 83}, {"time": 2082, "pitch": 43, "duration": 9, "velocity": 89}, {"time": 2088, "pitch": 55, "duration": 6, "velocity": 93}, {"time": 2088, "pitch": 58, "duration": 6, "velocity": 122}, {"time": 2088, "pitch": 62, "duration": 5, "velocity": 95}, {"time": 2094, "pitch": 48, "duration": 3, "velocity": 95}, {"time": 2094, "pitch": 60, "duration": 2, "velocity": 95}, {"time": 2094, "pitch": 63, "duration": 2, "velocity": 117}, {"time": 2094, "pitch": 67, "duration": 3, "velocity": 90}, {"time": 2100, "pitch": 48, "duration": 2, "velocity": 107}, {"time": 2100, "pitch": 60, "duration": 3, "velocity": 95}, {"time": 2100, "pitch": 63, "duration": 2, "velocity": 117}, {"time": 2100, "pitch": 67, "duration": 3, "velocity": 95}, {"time": 2106, "pitch": 48, "duration": 3, "velocity": 112}, {"time": 2106, "pitch": 60, "duration": 3, "velocity": 97}, {"time": 2106, "pitch": 63, "duration": 3, "velocity": 127}, {"time": 2106, "pitch": 67, "duration": 3, "velocity": 97}, {"time": 2118, "pitch": 46, "duration": 9, "velocity": 97}, {"time": 2124, "pitch": 53, "duration": 1, "velocity": 86}, {"time": 2124, "pitch": 58, "duration": 1, "velocity": 107}, {"time": 2124, "pitch": 62, "duration": 1, "velocity": 92}, {"time": 2127, "pitch": 53, "duration": 1, "velocity": 59}, {"time": 2127, "pitch": 58, "duration": 1, "velocity": 95}, {"time": 2127, "pitch": 62, "duration": 1, "velocity": 85}, {"time": 2130, "pitch": 41, "duration": 9, "velocity": 79}, {"time": 2136, "pitch": 53, "duration": 1, "velocity": 93}, {"time": 2136, "pitch": 58, "duration": 1, "velocity": 102}, {"time": 2136, "pitch": 62, "duration": 1, "velocity": 95}, {"time": 2142, "pitch": 46, "duration": 2, "velocity": 112}, {"time": 2142, "pitch": 53, "duration": 1, "velocity": 83}, {"time": 2142, "pitch": 58, "duration": 2, "velocity": 99}, {"time": 2142, "pitch": 62, "duration": 2, "velocity": 89}, {"time": 2148, "pitch": 46, "duration": 2, "velocity": 122}, {"time": 2148, "pitch": 53, "duration": 2, "velocity": 90}, {"time": 2148, "pitch": 58, "duration": 2, "velocity": 102}, {"time": 2148, "pitch": 62, "duration": 2, "velocity": 92}, {"time": 2154, "pitch": 46, "duration": 3, "velocity": 127}, {"time": 2154, "pitch": 53, "duration": 3, "velocity": 96}, {"time": 2154, "pitch": 58, "duration": 3, "velocity": 117}, {"time": 2154, "pitch": 62, "duration": 3, "velocity": 100}, {"time": 2166, "pitch": 51, "duration": 10, "velocity": 99}, {"time": 2172, "pitch": 55, "duration": 1, "velocity": 82}, {"time": 2172, "pitch": 58, "duration": 1, "velocity": 107}, {"time": 2172, "pitch": 63, "duration": 1, "velocity": 90}, {"time": 2175, "pitch": 55, "duration": 2, "velocity": 78}, {"time": 2175, "pitch": 58, "duration": 2, "velocity": 112}, {"time": 2175, "pitch": 63, "duration": 2, "velocity": 100}, {"time": 2178, "pitch": 46, "duration": 9, "velocity": 93}, {"time": 2184, "pitch": 55, "duration": 1, "velocity": 83}, {"time": 2184, "pitch": 58, "duration": 1, "velocity": 117}, {"time": 2184, "pitch": 63, "duration": 1, "velocity": 102}, {"time": 2187, "pitch": 55, "duration": 1, "velocity": 76}, {"time": 2187, "pitch": 58, "duration": 2, "velocity": 100}, {"time": 2187, "pitch": 63, "duration": 2, "velocity": 90}, {"time": 2190, "pitch": 51, "duration": 11, "velocity": 95}, {"time": 2196, "pitch": 55, "duration": 2, "velocity": 76}, {"time": 2196, "pitch": 58, "duration": 1, "velocity": 100}, {"time": 2196, "pitch": 63, "duration": 1, "velocity": 96}, {"time": 2199, "pitch": 55, "duration": 2, "velocity": 69}, {"time": 2199, "pitch": 58, "duration": 2, "velocity": 92}, {"time": 2199, "pitch": 63, "duration": 2, "velocity": 93}, {"time": 2202, "pitch": 46, "duration": 10, "velocity": 86}, {"time": 2205, "pitch": 55, "duration": 1, "velocity": 64}, {"time": 2205, "pitch": 58, "duration": 1, "velocity": 93}, {"time": 2205, "pitch": 63, "duration": 1, "velocity": 90}, {"time": 2208, "pitch": 55, "duration": 5, "velocity": 81}, {"time": 2208, "pitch": 58, "duration": 5, "velocity": 112}, {"time": 2208, "pitch": 63, "duration": 4, "velocity": 122}, {"time": 2214, "pitch": 43, "duration": 12, "velocity": 67}, {"time": 2220, "pitch": 55, "duration": 1, "velocity": 90}, {"time": 2220, "pitch": 58, "duration": 1, "velocity": 122}, {"time": 2220, "pitch": 62, "duration": 1, "velocity": 95}, {"time": 2223, "pitch": 55, "duration": 2, "velocity": 68}, {"time": 2223, "pitch": 58, "duration": 2, "velocity": 96}, {"time": 2223, "pitch": 62, "duration": 2, "velocity": 86}, {"time": 2226, "pitch": 50, "duration": 10, "velocity": 58}, {"time": 2232, "pitch": 55, "duration": 1, "velocity": 81}, {"time": 2232, "pitch": 58, "duration": 1, "velocity": 100}, {"time": 2232, "pitch": 62, "duration": 1, "velocity": 89}, {"time": 2235, "pitch": 55, "duration": 1, "velocity": 83}, {"time": 2235, "pitch": 58, "duration": 2, "velocity": 100}, {"time": 2235, "pitch": 62, "duration": 2, "velocity": 95}, {"time": 2238, "pitch": 43, "duration": 10, "velocity": 69}, {"time": 2244, "pitch": 55, "duration": 1, "velocity": 86}, {"time": 2244, "pitch": 58, "duration": 1, "velocity": 112}, {"time": 2244, "pitch": 62, "duration": 1, "velocity": 89}, {"time": 2247, "pitch": 55, "duration": 2, "velocity": 75}, {"time": 2247, "pitch": 58, "duration": 2, "velocity": 100}, {"time": 2247, "pitch": 62, "duration": 2, "velocity": 92}, {"time": 2250, "pitch": 50, "duration": 9, "velocity": 89}, {"time": 2256, "pitch": 55, "duration": 1, "velocity": 86}, {"time": 2256, "pitch": 58, "duration": 1, "velocity": 107}, {"time": 2256, "pitch": 62, "duration": 1, "velocity": 93}, {"time": 2259, "pitch": 55, "duration": 1, "velocity": 85}, {"time": 2259, "pitch": 58, "duration": 1, "velocity": 122}, {"time": 2259, "pitch": 62, "duration": 1, "velocity": 86}, {"time": 2262, "pitch": 51, "duration": 11, "velocity": 72}, {"time": 2268, "pitch": 58, "duration": 1, "velocity": 96}, {"time": 2268, "pitch": 63, "duration": 1, "velocity": 90}, {"time": 2268, "pitch": 67, "duration": 1, "velocity": 66}, {"time": 2271, "pitch": 58, "duration": 2, "velocity": 78}, {"time": 2271, "pitch": 63, "duration": 2, "velocity": 74}, {"time": 2271, "pitch": 67, "duration": 2, "velocity": 68}, {"time": 2274, "pitch": 46, "duration": 11, "velocity": 72}, {"time": 2277, "pitch": 58, "duration": 1, "velocity": 78}, {"time": 2277, "pitch": 63, "duration": 1, "velocity": 59}, {"time": 2277, "pitch": 67, "duration": 1, "velocity": 63}, {"time": 2280, "pitch": 58, "duration": 4, "velocity": 102}, {"time": 2280, "pitch": 63, "duration": 4, "velocity": 102}, {"time": 2280, "pitch": 67, "duration": 4, "velocity": 88}, {"time": 2286, "pitch": 43, "duration": 8, "velocity": 69}, {"time": 2292, "pitch": 55, "duration": 1, "velocity": 88}, {"time": 2292, "pitch": 58, "duration": 1, "velocity": 100}, {"time": 2292, "pitch": 62, "duration": 1, "velocity": 92}, {"time": 2295, "pitch": 55, "duration": 2, "velocity": 79}, {"time": 2295, "pitch": 58, "duration": 2, "velocity": 99}, {"time": 2295, "pitch": 62, "duration": 2, "velocity": 88}, {"time": 2298, "pitch": 44, "duration": 9, "velocity": 66}, {"time": 2304, "pitch": 56, "duration": 1, "velocity": 95}, {"time": 2304, "pitch": 60, "duration": 1, "velocity": 100}, {"time": 2304, "pitch": 63, "duration": 1, "velocity": 112}, {"time": 2307, "pitch": 56, "duration": 2, "velocity": 97}, {"time": 2307, "pitch": 60, "duration": 1, "velocity": 89}, {"time": 2307, "pitch": 63, "duration": 1, "velocity": 93}, {"time": 2310, "pitch": 46, "duration": 9, "velocity": 66}, {"time": 2316, "pitch": 53, "duration": 1, "velocity": 88}, {"time": 2316, "pitch": 58, "duration": 1, "velocity": 107}, {"time": 2316, "pitch": 62, "duration": 2, "velocity": 93}, {"time": 2319, "pitch": 53, "duration": 2, "velocity": 76}, {"time": 2319, "pitch": 58, "duration": 2, "velocity": 95}, {"time": 2319, "pitch": 62, "duration": 2, "velocity": 81}, {"time": 2322, "pitch": 46, "duration": 9, "velocity": 92}, {"time": 2328, "pitch": 53, "duration": 1, "velocity": 82}, {"time": 2328, "pitch": 58, "duration": 1, "velocity": 99}, {"time": 2328, "pitch": 62, "duration": 1, "velocity": 90}, {"time": 2331, "pitch": 53, "duration": 1, "velocity": 76}, {"time": 2331, "pitch": 58, "duration": 1, "velocity": 107}, {"time": 2331, "pitch": 62, "duration": 1, "velocity": 93}, {"time": 2334, "pitch": 46, "duration": 11, "velocity": 92}, {"time": 2340, "pitch": 53, "duration": 1, "velocity": 93}, {"time": 2340, "pitch": 58, "duration": 1, "velocity": 127}, {"time": 2340, "pitch": 62, "duration": 1, "velocity": 95}, {"time": 2343, "pitch": 53, "duration": 1, "velocity": 85}, {"time": 2343, "pitch": 58, "duration": 1, "velocity": 122}, {"time": 2343, "pitch": 62, "duration": 1, "velocity": 96}, {"time": 2346, "pitch": 41, "duration": 8, "velocity": 85}, {"time": 2352, "pitch": 53, "duration": 3, "velocity": 97}, {"time": 2352, "pitch": 58, "duration": 3, "velocity": 127}, {"time": 2352, "pitch": 62, "duration": 3, "velocity": 100}, {"time": 2358, "pitch": 48, "duration": 5, "velocity": 89}, {"time": 2358, "pitch": 55, "duration": 4, "velocity": 96}, {"time": 2358, "pitch": 60, "duration": 5, "velocity": 99}, {"time": 2358, "pitch": 63, "duration": 5, "velocity": 112}, {"time": 2382, "pitch": 43, "duration": 2, "velocity": 88}, {"time": 2382, "pitch": 55, "duration": 2, "velocity": 96}, {"time": 2382, "pitch": 58, "duration": 2, "velocity": 117}, {"time": 2382, "pitch": 62, "duration": 2, "velocity": 96}, {"time": 2388, "pitch": 43, "duration": 3, "velocity": 89}, {"time": 2388, "pitch": 55, "duration": 3, "velocity": 92}, {"time": 2388, "pitch": 58, "duration": 3, "velocity": 102}, {"time": 2388, "pitch": 62, "duration": 3, "velocity": 95}, {"time": 2394, "pitch": 43, "duration": 5, "velocity": 89}, {"time": 2394, "pitch": 55, "duration": 5, "velocity": 89}, {"time": 2394, "pitch": 58, "duration": 5, "velocity": 102}, {"time": 2394, "pitch": 62, "duration": 5, "velocity": 89}, {"time": 2406, "pitch": 48, "duration": 3, "velocity": 72}, {"time": 2406, "pitch": 55, "duration": 3, "velocity": 79}, {"time": 2406, "pitch": 60, "duration": 2, "velocity": 88}, {"time": 2406, "pitch": 63, "duration": 2, "velocity": 77}, {"time": 2418, "pitch": 48, "duration": 3, "velocity": 99}, {"time": 2418, "pitch": 55, "duration": 3, "velocity": 88}, {"time": 2418, "pitch": 60, "duration": 3, "velocity": 88}, {"time": 2418, "pitch": 63, "duration": 3, "velocity": 90}, {"time": 2430, "pitch": 43, "duration": 20, "velocity": 74}, {"time": 2430, "pitch": 55, "duration": 20, "velocity": 92}, {"time": 2430, "pitch": 58, "duration": 20, "velocity": 100}, {"time": 2430, "pitch": 62, "duration": 18, "velocity": 89}, {"time": 2454, "pitch": 48, "duration": 10, "velocity": 88}, {"time": 2454, "pitch": 63, "duration": 2, "velocity": 32}, {"time": 2460, "pitch": 55, "duration": 1, "velocity": 88}, {"time": 2460, "pitch": 60, "duration": 1, "velocity": 99}, {"time": 2460, "pitch": 63, "duration": 1, "velocity": 100}, {"time": 2463, "pitch": 55, "duration": 1, "velocity": 72}, {"time": 2463, "pitch": 60, "duration": 1, "velocity": 97}, {"time": 2463, "pitch": 63, "duration": 2, "velocity": 95}, {"time": 2466, "pitch": 43, "duration": 8, "velocity": 75}, {"time": 2472, "pitch": 55, "duration": 2, "velocity": 89}, {"time": 2472, "pitch": 60, "duration": 1, "velocity": 93}, {"time": 2472, "pitch": 63, "duration": 2, "velocity": 93}, {"time": 2478, "pitch": 48, "duration": 11, "velocity": 85}, {"time": 2484, "pitch": 55, "duration": 1, "velocity": 81}, {"time": 2484, "pitch": 60, "duration": 1, "velocity": 97}, {"time": 2484, "pitch": 63, "duration": 1, "velocity": 99}, {"time": 2487, "pitch": 55, "duration": 1, "velocity": 77}, {"time": 2487, "pitch": 60, "duration": 1, "velocity": 96}, {"time": 2487, "pitch": 63, "duration": 1, "velocity": 96}, {"time": 2490, "pitch": 43, "duration": 9, "velocity": 83}, {"time": 2496, "pitch": 55, "duration": 1, "velocity": 93}, {"time": 2496, "pitch": 60, "duration": 1, "velocity": 112}, {"time": 2496, "pitch": 63, "duration": 1, "velocity": 100}, {"time": 2502, "pitch": 48, "duration": 12, "velocity": 85}, {"time": 2508, "pitch": 55, "duration": 1, "velocity": 83}, {"time": 2508, "pitch": 60, "duration": 1, "velocity": 112}, {"time": 2508, "pitch": 63, "duration": 1, "velocity": 100}, {"time": 2511, "pitch": 55, "duration": 1, "velocity": 78}, {"time": 2511, "pitch": 60, "duration": 1, "velocity": 99}, {"time": 2511, "pitch": 63, "duration": 2, "velocity": 107}, {"time": 2514, "pitch": 43, "duration": 10, "velocity": 73}, {"time": 2520, "pitch": 55, "duration": 1, "velocity": 85}, {"time": 2520, "pitch": 60, "duration": 1, "velocity": 107}, {"time": 2520, "pitch": 63, "duration": 1, "velocity": 100}, {"time": 2526, "pitch": 48, "duration": 11, "velocity": 69}, {"time": 2532, "pitch": 55, "duration": 1, "velocity": 79}, {"time": 2532, "pitch": 60, "duration": 1, "velocity": 99}, {"time": 2532, "pitch": 63, "duration": 1, "velocity": 97}, {"time": 2535, "pitch": 55, "duration": 1, "velocity": 78}, {"time": 2535, "pitch": 60, "duration": 1, "velocity": 107}, {"time": 2535, "pitch": 63, "duration": 1, "velocity": 100}, {"time": 2538, "pitch": 43, "duration": 8, "velocity": 81}, {"time": 2544, "pitch": 55, "duration": 2, "velocity": 89}, {"time": 2544, "pitch": 60, "duration": 1, "velocity": 102}, {"time": 2544, "pitch": 63, "duration": 2, "velocity": 102}, {"time": 2550, "pitch": 51, "duration": 10, "velocity": 97}, {"time": 2556, "pitch": 58, "duration": 1, "velocity": 93}, {"time": 2556, "pitch": 63, "duration": 1, "velocity": 93}, {"time": 2556, "pitch": 67, "duration": 1, "velocity": 69}, {"time": 2559, "pitch": 58, "duration": 2, "velocity": 71}, {"time": 2559, "pitch": 63, "duration": 2, "velocity": 72}, {"time": 2559, "pitch": 67, "duration": 2, "velocity": 66}, {"time": 2562, "pitch": 46, "duration": 8, "velocity": 89}, {"time": 2568, "pitch": 58, "duration": 2, "velocity": 102}, {"time": 2568, "pitch": 63, "duration": 1, "velocity": 99}, {"time": 2568, "pitch": 67, "duration": 2, "velocity": 81}, {"time": 2574, "pitch": 51, "duration": 11, "velocity": 72}, {"time": 2580, "pitch": 58, "duration": 2, "velocity": 92}, {"time": 2580, "pitch": 63, "duration": 1, "velocity": 97}, {"time": 2580, "pitch": 67, "duration": 1, "velocity": 82}, {"time": 2583, "pitch": 58, "duration": 2, "velocity": 82}, {"time": 2583, "pitch": 63, "duration": 1, "velocity": 73}, {"time": 2583, "pitch": 67, "duration": 1, "velocity": 75}, {"time": 2586, "pitch": 46, "duration": 10, "velocity": 81}, {"time": 2592, "pitch": 58, "duration": 2, "velocity": 117}, {"time": 2592, "pitch": 63, "duration": 1, "velocity": 112}, {"time": 2592, "pitch": 67, "duration": 1, "velocity": 78}, {"time": 2598, "pitch": 48, "duration": 12, "velocity": 79}, {"time": 2598, "pitch": 61, "duration": 1, "velocity": 35}, {"time": 2604, "pitch": 55, "duration": 1, "velocity": 76}, {"time": 2604, "pitch": 60, "duration": 1, "velocity": 90}, {"time": 2604, "pitch": 63, "duration": 1, "velocity": 90}, {"time": 2607, "pitch": 55, "duration": 2, "velocity": 69}, {"time": 2607, "pitch": 60, "duration": 2, "velocity": 88}, {"time": 2607, "pitch": 63, "duration": 2, "velocity": 89}, {"time": 2610, "pitch": 43, "duration": 9, "velocity": 75}, {"time": 2616, "pitch": 55, "duration": 2, "velocity": 82}, {"time": 2616, "pitch": 60, "duration": 1, "velocity": 99}, {"time": 2616, "pitch": 63, "duration": 2, "velocity": 102}, {"time": 2622, "pitch": 46, "duration": 10, "velocity": 86}, {"time": 2628, "pitch": 53, "duration": 1, "velocity": 73}, {"time": 2628, "pitch": 58, "duration": 1, "velocity": 85}, {"time": 2628, "pitch": 62, "duration": 1, "velocity": 75}, {"time": 2631, "pitch": 53, "duration": 2, "velocity": 73}, {"time": 2631, "pitch": 58, "duration": 2, "velocity": 93}, {"time": 2631, "pitch": 62, "duration": 2, "velocity": 89}, {"time": 2634, "pitch": 41, "duration": 8, "velocity": 45}, {"time": 2640, "pitch": 53, "duration": 2, "velocity": 90}, {"time": 2640, "pitch": 58, "duration": 2, "velocity": 96}, {"time": 2640, "pitch": 62, "duration": 2, "velocity": 90}, {"time": 2646, "pitch": 48, "duration": 11, "velocity": 93}, {"time": 2652, "pitch": 55, "duration": 1, "velocity": 72}, {"time": 2652, "pitch": 60, "duration": 1, "velocity": 96}, {"time": 2652, "pitch": 63, "duration": 1, "velocity": 96}, {"time": 2655, "pitch": 55, "duration": 1, "velocity": 69}, {"time": 2655, "pitch": 60, "duration": 1, "velocity": 96}, {"time": 2655, "pitch": 63, "duration": 1, "velocity": 102}, {"time": 2658, "pitch": 43, "duration": 10, "velocity": 71}, {"time": 2664, "pitch": 55, "duration": 1, "velocity": 83}, {"time": 2664, "pitch": 60, "duration": 1, "velocity": 100}, {"time": 2664, "pitch": 63, "duration": 2, "velocity": 112}, {"time": 2670, "pitch": 48, "duration": 11, "velocity": 78}, {"time": 2676, "pitch": 55, "duration": 1, "velocity": 73}, {"time": 2676, "pitch": 60, "duration": 1, "velocity": 95}, {"time": 2676, "pitch": 63, "duration": 1, "velocity": 96}, {"time": 2679, "pitch": 55, "duration": 1, "velocity": 73}, {"time": 2679, "pitch": 60, "duration": 2, "velocity": 95}, {"time": 2679, "pitch": 63, "duration": 2, "velocity": 102}, {"time": 2682, "pitch": 43, "duration": 9, "velocity": 75}, {"time": 2688, "pitch": 55, "duration": 1, "velocity": 79}, {"time": 2688, "pitch": 60, "duration": 1, "velocity": 93}, {"time": 2688, "pitch": 63, "duration": 2, "velocity": 99}, {"time": 2694, "pitch": 51, "duration": 12, "velocity": 96}, {"time": 2700, "pitch": 58, "duration": 1, "velocity": 89}, {"time": 2700, "pitch": 63, "duration": 1, "velocity": 82}, {"time": 2700, "pitch": 67, "duration": 1, "velocity": 50}, {"time": 2703, "pitch": 58, "duration": 2, "velocity": 88}, {"time": 2703, "pitch": 63, "duration": 2, "velocity": 96}, {"time": 2703, "pitch": 67, "duration": 2, "velocity": 88}, {"time": 2706, "pitch": 46, "duration": 6, "velocity": 93}, {"time": 2712, "pitch": 58, "duration": 2, "velocity": 102}, {"time": 2712, "pitch": 63, "duration": 2, "velocity": 102}, {"time": 2712, "pitch": 67, "duration": 1, "velocity": 83}, {"time": 2712, "pitch": 68, "duration": 1, "velocity": 57}, {"time": 2718, "pitch": 46, "duration": 11, "velocity": 97}, {"time": 2724, "pitch": 53, "duration": 1, "velocity": 83}, {"time": 2724, "pitch": 58, "duration": 1, "velocity": 96}, {"time": 2724, "pitch": 62, "duration": 1, "velocity": 88}, {"time": 2727, "pitch": 53, "duration": 2, "velocity": 74}, {"time": 2727, "pitch": 58, "duration": 2, "velocity": 93}, {"time": 2727, "pitch": 62, "duration": 2, "velocity": 89}, {"time": 2730, "pitch": 41, "duration": 6, "velocity": 72}, {"time": 2736, "pitch": 53, "duration": 1, "velocity": 92}, {"time": 2736, "pitch": 58, "duration": 1, "velocity": 122}, {"time": 2736, "pitch": 62, "duration": 2, "velocity": 93}, {"time": 2742, "pitch": 51, "duration": 11, "velocity": 79}, {"time": 2748, "pitch": 58, "duration": 1, "velocity": 95}, {"time": 2748, "pitch": 63, "duration": 1, "velocity": 76}, {"time": 2748, "pitch": 67, "duration": 1, "velocity": 59}, {"time": 2751, "pitch": 58, "duration": 2, "velocity": 100}, {"time": 2751, "pitch": 63, "duration": 2, "velocity": 95}, {"time": 2751, "pitch": 67, "duration": 2, "velocity": 88}, {"time": 2754, "pitch": 46, "duration": 9, "velocity": 75}, {"time": 2760, "pitch": 58, "duration": 2, "velocity": 107}, {"time": 2760, "pitch": 63, "duration": 1, "velocity": 112}, {"time": 2760, "pitch": 67, "duration": 2, "velocity": 85}, {"time": 2766, "pitch": 51, "duration": 12, "velocity": 83}, {"time": 2772, "pitch": 58, "duration": 1, "velocity": 97}, {"time": 2772, "pitch": 63, "duration": 1, "velocity": 117}, {"time": 2772, "pitch": 67, "duration": 1, "velocity": 88}, {"time": 2775, "pitch": 58, "duration": 2, "velocity": 89}, {"time": 2775, "pitch": 63, "duration": 2, "velocity": 97}, {"time": 2775, "pitch": 67, "duration": 2, "velocity": 85}, {"time": 2778, "pitch": 46, "duration": 10, "velocity": 72}, {"time": 2784, "pitch": 58, "duration": 2, "velocity": 96}, {"time": 2784, "pitch": 63, "duration": 1, "velocity": 102}, {"time": 2784, "pitch": 67, "duration": 1, "velocity": 74}, {"time": 2790, "pitch": 48, "duration": 12, "velocity": 73}, {"time": 2796, "pitch": 55, "duration": 1, "velocity": 79}, {"time": 2796, "pitch": 60, "duration": 1, "velocity": 92}, {"time": 2796, "pitch": 63, "duration": 1, "velocity": 97}, {"time": 2799, "pitch": 55, "duration": 2, "velocity": 70}, {"time": 2799, "pitch": 60, "duration": 2, "velocity": 90}, {"time": 2799, "pitch": 63, "duration": 2, "velocity": 99}, {"time": 2802, "pitch": 43, "duration": 9, "velocity": 70}, {"time": 2808, "pitch": 55, "duration": 1, "velocity": 88}, {"time": 2808, "pitch": 60, "duration": 2, "velocity": 102}, {"time": 2808, "pitch": 63, "duration": 2, "velocity": 112}, {"time": 2814, "pitch": 48, "duration": 12, "velocity": 69}, {"time": 2820, "pitch": 55, "duration": 1, "velocity": 77}, {"time": 2820, "pitch": 60, "duration": 1, "velocity": 100}, {"time": 2820, "pitch": 63, "duration": 1, "velocity": 99}, {"time": 2823, "pitch": 55, "duration": 1, "velocity": 52}, {"time": 2823, "pitch": 60, "duration": 1, "velocity": 90}, {"time": 2823, "pitch": 63, "duration": 2, "velocity": 96}, {"time": 2826, "pitch": 43, "duration": 8, "velocity": 74}, {"time": 2832, "pitch": 55, "duration": 2, "velocity": 89}, {"time": 2832, "pitch": 60, "duration": 2, "velocity": 96}, {"time": 2832, "pitch": 63, "duration": 1, "velocity": 89}, {"time": 2838, "pitch": 46, "duration": 11, "velocity": 88}, {"time": 2844, "pitch": 53, "duration": 1, "velocity": 82}, {"time": 2844, "pitch": 58, "duration": 1, "velocity": 96}, {"time": 2844, "pitch": 62, "duration": 1, "velocity": 85}, {"time": 2847, "pitch": 53, "duration": 2, "velocity": 69}, {"time": 2847, "pitch": 58, "duration": 2, "velocity": 92}, {"time": 2847, "pitch": 62, "duration": 2, "velocity": 83}, {"time": 2850, "pitch": 41, "duration": 9, "velocity": 70}, {"time": 2856, "pitch": 53, "duration": 1, "velocity": 86}, {"time": 2856, "pitch": 58, "duration": 2, "velocity": 102}, {"time": 2856, "pitch": 62, "duration": 2, "velocity": 89}, {"time": 2862, "pitch": 48, "duration": 9, "velocity": 63}, {"time": 2868, "pitch": 55, "duration": 1, "velocity": 83}, {"time": 2868, "pitch": 60, "duration": 1, "velocity": 100}, {"time": 2868, "pitch": 63, "duration": 1, "velocity": 102}, {"time": 2871, "pitch": 55, "duration": 2, "velocity": 74}, {"time": 2871, "pitch": 60, "duration": 2, "velocity": 97}, {"time": 2871, "pitch": 63, "duration": 2, "velocity": 102}, {"time": 2874, "pitch": 43, "duration": 9, "velocity": 67}, {"time": 2880, "pitch": 55, "duration": 1, "velocity": 83}, {"time": 2880, "pitch": 60, "duration": 1, "velocity": 99}, {"time": 2880, "pitch": 63, "duration": 2, "velocity": 107}, {"time": 2886, "pitch": 46, "duration": 9, "velocity": 81}, {"time": 2892, "pitch": 53, "duration": 1, "velocity": 90}, {"time": 2892, "pitch": 58, "duration": 1, "velocity": 102}, {"time": 2892, "pitch": 62, "duration": 1, "velocity": 85}, {"time": 2895, "pitch": 53, "duration": 2, "velocity": 69}, {"time": 2895, "pitch": 58, "duration": 2, "velocity": 93}, {"time": 2895, "pitch": 62, "duration": 2, "velocity": 79}, {"time": 2898, "pitch": 46, "duration": 7, "velocity": 75}, {"time": 2904, "pitch": 53, "duration": 1, "velocity": 92}, {"time": 2904, "pitch": 58, "duration": 2, "velocity": 107}, {"time": 2904, "pitch": 62, "duration": 2, "velocity": 93}, {"time": 2910, "pitch": 51, "duration": 9, "velocity": 88}, {"time": 2916, "pitch": 55, "duration": 1, "velocity": 90}, {"time": 2916, "pitch": 58, "duration": 1, "velocity": 122}, {"time": 2916, "pitch": 63, "duration": 1, "velocity": 107}, {"time": 2919, "pitch": 55, "duration": 2, "velocity": 74}, {"time": 2919, "pitch": 58, "duration": 2, "velocity": 99}, {"time": 2919, "pitch": 63, "duration": 4, "velocity": 96}, {"time": 2922, "pitch": 46, "duration": 8, "velocity": 73}, {"time": 2928, "pitch": 55, "duration": 1, "velocity": 79}, {"time": 2928, "pitch": 58, "duration": 1, "velocity": 117}, {"time": 2928, "pitch": 63, "duration": 1, "velocity": 102}, {"time": 2931, "pitch": 55, "duration": 1, "velocity": 79}, {"time": 2931, "pitch": 58, "duration": 1, "velocity": 100}, {"time": 2931, "pitch": 63, "duration": 1, "velocity": 100}, {"time": 2934, "pitch": 51, "duration": 12, "velocity": 97}, {"time": 2940, "pitch": 58, "duration": 1, "velocity": 97}, {"time": 2940, "pitch": 63, "duration": 1, "velocity": 107}, {"time": 2940, "pitch": 67, "duration": 1, "velocity": 81}, {"time": 2943, "pitch": 58, "duration": 2, "velocity": 99}, {"time": 2943, "pitch": 63, "duration": 1, "velocity": 107}, {"time": 2943, "pitch": 67, "duration": 1, "velocity": 89}, {"time": 2946, "pitch": 46, "duration": 10, "velocity": 96}, {"time": 2949, "pitch": 58, "duration": 1, "velocity": 96}, {"time": 2949, "pitch": 63, "duration": 1, "velocity": 67}, {"time": 2949, "pitch": 67, "duration": 1, "velocity": 68}, {"time": 2952, "pitch": 58, "duration": 7, "velocity": 97}, {"time": 2952, "pitch": 63, "duration": 6, "velocity": 96}, {"time": 2952, "pitch": 67, "duration": 6, "velocity": 79}, {"time": 2958, "pitch": 51, "duration": 11, "velocity": 76}, {"time": 2964, "pitch": 58, "duration": 1, "velocity": 99}, {"time": 2964, "pitch": 63, "duration": 1, "velocity": 100}, {"time": 2964, "pitch": 67, "duration": 1, "velocity": 67}, {"time": 2967, "pitch": 58, "duration": 2, "velocity": 99}, {"time": 2967, "pitch": 63, "duration": 2, "velocity": 96}, {"time": 2967, "pitch": 67, "duration": 2, "velocity": 81}, {"time": 2970, "pitch": 46, "duration": 11, "velocity": 81}, {"time": 2973, "pitch": 58, "duration": 1, "velocity": 82}, {"time": 2973, "pitch": 63, "duration": 1, "velocity": 38}, {"time": 2973, "pitch": 67, "duration": 1, "velocity": 52}, {"time": 2976, "pitch": 58, "duration": 5, "velocity": 100}, {"time": 2976, "pitch": 63, "duration": 2, "velocity": 102}, {"time": 2976, "pitch": 67, "duration": 5, "velocity": 71}, {"time": 2979, "pitch": 63, "duration": 1, "velocity": 34}, {"time": 2982, "pitch": 51, "duration": 12, "velocity": 95}, {"time": 2988, "pitch": 58, "duration": 1, "velocity": 99}, {"time": 2988, "pitch": 63, "duration": 1, "velocity": 107}, {"time": 2988, "pitch": 67, "duration": 1, "velocity": 88}, {"time": 2991, "pitch": 58, "duration": 2, "velocity": 88}, {"time": 2991, "pitch": 63, "duration": 2, "velocity": 92}, {"time": 2991, "pitch": 67, "duration": 2, "velocity": 72}, {"time": 2994, "pitch": 46, "duration": 9, "velocity": 83}, {"time": 3000, "pitch": 58, "duration": 1, "velocity": 97}, {"time": 3000, "pitch": 63, "duration": 1, "velocity": 99}, {"time": 3000, "pitch": 67, "duration": 1, "velocity": 77}, {"time": 3003, "pitch": 58, "duration": 2, "velocity": 92}, {"time": 3003, "pitch": 63, "duration": 2, "velocity": 81}, {"time": 3003, "pitch": 67, "duration": 1, "velocity": 72}, {"time": 3006, "pitch": 51, "duration": 12, "velocity": 90}, {"time": 3012, "pitch": 58, "duration": 1, "velocity": 99}, {"time": 3012, "pitch": 63, "duration": 1, "velocity": 112}, {"time": 3012, "pitch": 67, "duration": 1, "velocity": 83}, {"time": 3015, "pitch": 58, "duration": 2, "velocity": 93}, {"time": 3015, "pitch": 63, "duration": 1, "velocity": 93}, {"time": 3015, "pitch": 67, "duration": 1, "velocity": 85}, {"time": 3018, "pitch": 46, "duration": 11, "velocity": 88}, {"time": 3021, "pitch": 58, "duration": 1, "velocity": 97}, {"time": 3021, "pitch": 63, "duration": 1, "velocity": 95}, {"time": 3021, "pitch": 67, "duration": 1, "velocity": 44}, {"time": 3024, "pitch": 58, "duration": 1, "velocity": 92}, {"time": 3024, "pitch": 63, "duration": 1, "velocity": 90}, {"time": 3024, "pitch": 67, "duration": 1, "velocity": 64}, {"time": 3027, "pitch": 58, "duration": 2, "velocity": 100}, {"time": 3027, "pitch": 63, "duration": 1, "velocity": 96}, {"time": 3027, "pitch": 67, "duration": 1, "velocity": 77}, {"time": 3030, "pitch": 43, "duration": 9, "velocity": 66}, {"time": 3030, "pitch": 63, "duration": 1, "velocity": 45}, {"time": 3036, "pitch": 55, "duration": 1, "velocity": 92}, {"time": 3036, "pitch": 58, "duration": 1, "velocity": 112}, {"time": 3036, "pitch": 62, "duration": 1, "velocity": 88}, {"time": 3039, "pitch": 55, "duration": 3, "velocity": 85}, {"time": 3039, "pitch": 58, "duration": 2, "velocity": 112}, {"time": 3039, "pitch": 62, "duration": 3, "velocity": 83}, {"time": 3042, "pitch": 43, "duration": 9, "velocity": 89}, {"time": 3048, "pitch": 55, "duration": 6, "velocity": 93}, {"time": 3048, "pitch": 58, "duration": 6, "velocity": 122}, {"time": 3048, "pitch": 62, "duration": 5, "velocity": 95}, {"time": 3054, "pitch": 48, "duration": 3, "velocity": 95}, {"time": 3054, "pitch": 60, "duration": 2, "velocity": 95}, {"time": 3054, "pitch": 63, "duration": 2, "velocity": 117}, {"time": 3054, "pitch": 67, "duration": 3, "velocity": 90}, {"time": 3060, "pitch": 48, "duration": 2, "velocity": 107}, {"time": 3060, "pitch": 60, "duration": 3, "velocity": 95}, {"time": 3060, "pitch": 63, "duration": 2, "velocity": 117}, {"time": 3060, "pitch": 67, "duration": 3, "velocity": 95}, {"time": 3066, "pitch": 48, "duration": 3, "velocity": 112}, {"time": 3066, "pitch": 60, "duration": 3, "velocity": 97}, {"time": 3066, "pitch": 63, "duration": 3, "velocity": 127}, {"time": 3066, "pitch": 67, "duration": 3, "velocity": 97}, {"time": 3078, "pitch": 46, "duration": 9, "velocity": 97}, {"time": 3084, "pitch": 53, "duration": 1, "velocity": 86}, {"time": 3084, "pitch": 58, "duration": 1, "velocity": 107}, {"time": 3084, "pitch": 62, "duration": 1, "velocity": 92}, {"time": 3087, "pitch": 53, "duration": 1, "velocity": 59}, {"time": 3087, "pitch": 58, "duration": 1, "velocity": 95}, {"time": 3087, "pitch": 62, "duration": 1, "velocity": 85}, {"time": 3090, "pitch": 41, "duration": 9, "velocity": 79}, {"time": 3096, "pitch": 53, "duration": 1, "velocity": 93}, {"time": 3096, "pitch": 58, "duration": 1, "velocity": 102}, {"time": 3096, "pitch": 62, "duration": 1, "velocity": 95}, {"time": 3102, "pitch": 46, "duration": 2, "velocity": 112}, {"time": 3102, "pitch": 53, "duration": 1, "velocity": 83}, {"time": 3102, "pitch": 58, "duration": 2, "velocity": 99}, {"time": 3102, "pitch": 62, "duration": 2, "velocity": 89}, {"time": 3108, "pitch": 46, "duration": 2, "velocity": 122}, {"time": 3108, "pitch": 53, "duration": 2, "velocity": 90}, {"time": 3108, "pitch": 58, "duration": 2, "velocity": 102}, {"time": 3108, "pitch": 62, "duration": 2, "velocity": 92}, {"time": 3114, "pitch": 46, "duration": 3, "velocity": 127}, {"time": 3114, "pitch": 53, "duration": 3, "velocity": 96}, {"time": 3114, "pitch": 58, "duration": 3, "velocity": 117}, {"time": 3114, "pitch": 62, "duration": 3, "velocity": 100}, {"time": 3126, "pitch": 51, "duration": 10, "velocity": 99}, {"time": 3132, "pitch": 55, "duration": 1, "velocity": 82}, {"time": 3132, "pitch": 58, "duration": 1, "velocity": 107}, {"time": 3132, "pitch": 63, "duration": 1, "velocity": 90}, {"time": 3135, "pitch": 55, "duration": 2, "velocity": 78}, {"time": 3135, "pitch": 58, "duration": 2, "velocity": 112}, {"time": 3135, "pitch": 63, "duration": 2, "velocity": 100}, {"time": 3138, "pitch": 46, "duration": 9, "velocity": 93}, {"time": 3144, "pitch": 55, "duration": 1, "velocity": 83}, {"time": 3144, "pitch": 58, "duration": 1, "velocity": 117}, {"time": 3144, "pitch": 63, "duration": 1, "velocity": 102}, {"time": 3147, "pitch": 55, "duration": 1, "velocity": 76}, {"time": 3147, "pitch": 58, "duration": 2, "velocity": 100}, {"time": 3147, "pitch": 63, "duration": 2, "velocity": 90}, {"time": 3150, "pitch": 51, "duration": 11, "velocity": 95}, {"time": 3156, "pitch": 55, "duration": 2, "velocity": 76}, {"time": 3156, "pitch": 58, "duration": 1, "velocity": 100}, {"time": 3156, "pitch": 63, "duration": 1, "velocity": 96}, {"time": 3159, "pitch": 55, "duration": 2, "velocity": 69}, {"time": 3159, "pitch": 58, "duration": 2, "velocity": 92}, {"time": 3159, "pitch": 63, "duration": 2, "velocity": 93}, {"time": 3162, "pitch": 46, "duration": 10, "velocity": 86}, {"time": 3165, "pitch": 55, "duration": 1, "velocity": 64}, {"time": 3165, "pitch": 58, "duration": 1, "velocity": 93}, {"time": 3165, "pitch": 63, "duration": 1, "velocity": 90}, {"time": 3168, "pitch": 55, "duration": 5, "velocity": 81}, {"time": 3168, "pitch": 58, "duration": 5, "velocity": 112}, {"time": 3168, "pitch": 63, "duration": 4, "velocity": 122}, {"time": 3174, "pitch": 43, "duration": 12, "velocity": 67}, {"time": 3180, "pitch": 55, "duration": 1, "velocity": 90}, {"time": 3180, "pitch": 58, "duration": 1, "velocity": 122}, {"time": 3180, "pitch": 62, "duration": 1, "velocity": 95}, {"time": 3183, "pitch": 55, "duration": 2, "velocity": 68}, {"time": 3183, "pitch": 58, "duration": 2, "velocity": 96}, {"time": 3183, "pitch": 62, "duration": 2, "velocity": 86}, {"time": 3186, "pitch": 50, "duration": 10, "velocity": 58}, {"time": 3192, "pitch": 55, "duration": 1, "velocity": 81}, {"time": 3192, "pitch": 58, "duration": 1, "velocity": 100}, {"time": 3192, "pitch": 62, "duration": 1, "velocity": 89}, {"time": 3195, "pitch": 55, "duration": 1, "velocity": 83}, {"time": 3195, "pitch": 58, "duration": 2, "velocity": 100}, {"time": 3195, "pitch": 62, "duration": 2, "velocity": 95}, {"time": 3198, "pitch": 43, "duration": 10, "velocity": 69}, {"time": 3204, "pitch": 55, "duration": 1, "velocity": 86}, {"time": 3204, "pitch": 58, "duration": 1, "velocity": 112}, {"time": 3204, "pitch": 62, "duration": 1, "velocity": 89}, {"time": 3207, "pitch": 55, "duration": 2, "velocity": 75}, {"time": 3207, "pitch": 58, "duration": 2, "velocity": 100}, {"time": 3207, "pitch": 62, "duration": 2, "velocity": 92}, {"time": 3210, "pitch": 50, "duration": 9, "velocity": 89}, {"time": 3216, "pitch": 55, "duration": 1, "velocity": 86}, {"time": 3216, "pitch": 58, "duration": 1, "velocity": 107}, {"time": 3216, "pitch": 62, "duration": 1, "velocity": 93}, {"time": 3219, "pitch": 55, "duration": 1, "velocity": 85}, {"time": 3219, "pitch": 58, "duration": 1, "velocity": 122}, {"time": 3219, "pitch": 62, "duration": 1, "velocity": 86}, {"time": 3222, "pitch": 51, "duration": 11, "velocity": 72}, {"time": 3228, "pitch": 58, "duration": 1, "velocity": 96}, {"time": 3228, "pitch": 63, "duration": 1, "velocity": 90}, {"time": 3228, "pitch": 67, "duration": 1, "velocity": 66}, {"time": 3231, "pitch": 58, "duration": 2, "velocity": 78}, {"time": 3231, "pitch": 63, "duration": 2, "velocity": 74}, {"time": 3231, "pitch": 67, "duration": 2, "velocity": 68}, {"time": 3234, "pitch": 46, "duration": 11, "velocity": 72}, {"time": 3237, "pitch": 58, "duration": 1, "velocity": 78}, {"time": 3237, "pitch": 63, "duration": 1, "velocity": 59}, {"time": 3237, "pitch": 67, "duration": 1, "velocity": 63}, {"time": 3240, "pitch": 58, "duration": 4, "velocity": 102}, {"time": 3240, "pitch": 63, "duration": 4, "velocity": 102}, {"time": 3240, "pitch": 67, "duration": 4, "velocity": 88}, {"time": 3246, "pitch": 43, "duration": 8, "velocity": 69}, {"time": 3252, "pitch": 55, "duration": 1, "velocity": 88}, {"time": 3252, "pitch": 58, "duration": 1, "velocity": 100}, {"time": 3252, "pitch": 62, "duration": 1, "velocity": 92}, {"time": 3255, "pitch": 55, "duration": 2, "velocity": 79}, {"time": 3255, "pitch": 58, "duration": 2, "velocity": 99}, {"time": 3255, "pitch": 62, "duration": 2, "velocity": 88}, {"time": 3258, "pitch": 44, "duration": 9, "velocity": 66}, {"time": 3264, "pitch": 56, "duration": 1, "velocity": 95}, {"time": 3264, "pitch": 60, "duration": 1, "velocity": 100}, {"time": 3264, "pitch": 63, "duration": 1, "velocity": 112}, {"time": 3267, "pitch": 56, "duration": 2, "velocity": 97}, {"time": 3267, "pitch": 60, "duration": 1, "velocity": 89}, {"time": 3267, "pitch": 63, "duration": 1, "velocity": 93}, {"time": 3270, "pitch": 46, "duration": 9, "velocity": 66}, {"time": 3276, "pitch": 53, "duration": 1, "velocity": 88}, {"time": 3276, "pitch": 58, "duration": 1, "velocity": 107}, {"time": 3276, "pitch": 62, "duration": 2, "velocity": 93}, {"time": 3279, "pitch": 53, "duration": 2, "velocity": 76}, {"time": 3279, "pitch": 58, "duration": 2, "velocity": 95}, {"time": 3279, "pitch": 62, "duration": 2, "velocity": 81}, {"time": 3282, "pitch": 46, "duration": 9, "velocity": 92}, {"time": 3288, "pitch": 53, "duration": 1, "velocity": 82}, {"time": 3288, "pitch": 58, "duration": 1, "velocity": 99}, {"time": 3288, "pitch": 62, "duration": 1, "velocity": 90}, {"time": 3291, "pitch": 53, "duration": 1, "velocity": 76}, {"time": 3291, "pitch": 58, "duration": 1, "velocity": 107}, {"time": 3291, "pitch": 62, "duration": 1, "velocity": 93}, {"time": 3294, "pitch": 46, "duration": 11, "velocity": 92}, {"time": 3300, "pitch": 53, "duration": 1, "velocity": 93}, {"time": 3300, "pitch": 58, "duration": 1, "velocity": 127}, {"time": 3300, "pitch": 62, "duration": 1, "velocity": 95}, {"time": 3303, "pitch": 53, "duration": 1, "velocity": 85}, {"time": 3303, "pitch": 58, "duration": 1, "velocity": 122}, {"time": 3303, "pitch": 62, "duration": 1, "velocity": 96}, {"time": 3306, "pitch": 41, "duration": 8, "velocity": 85}, {"time": 3312, "pitch": 53, "duration": 3, "velocity": 97}, {"time": 3312, "pitch": 58, "duration": 3, "velocity": 127}, {"time": 3312, "pitch": 62, "duration": 3, "velocity": 100}, {"time": 3318, "pitch": 48, "duration": 5, "velocity": 89}, {"time": 3318, "pitch": 55, "duration": 4, "velocity": 96}, {"time": 3318, "pitch": 60, "duration": 5, "velocity": 99}, {"time": 3318, "pitch": 63, "duration": 5, "velocity": 112}, {"time": 3342, "pitch": 43, "duration": 2, "velocity": 88}, {"time": 3342, "pitch": 55, "duration": 2, "velocity": 96}, {"time": 3342, "pitch": 58, "duration": 2, "velocity": 117}, {"time": 3342, "pitch": 62, "duration": 2, "velocity": 96}, {"time": 3348, "pitch": 43, "duration": 3, "velocity": 89}, {"time": 3348, "pitch": 55, "duration": 3, "velocity": 92}, {"time": 3348, "pitch": 58, "duration": 3, "velocity": 102}, {"time": 3348, "pitch": 62, "duration": 3, "velocity": 95}, {"time": 3354, "pitch": 43, "duration": 5, "velocity": 89}, {"time": 3354, "pitch": 55, "duration": 5, "velocity": 89}, {"time": 3354, "pitch": 58, "duration": 5, "velocity": 102}, {"time": 3354, "pitch": 62, "duration": 5, "velocity": 89}, {"time": 3366, "pitch": 48, "duration": 3, "velocity": 72}, {"time": 3366, "pitch": 55, "duration": 3, "velocity": 79}, {"time": 3366, "pitch": 60, "duration": 2, "velocity": 88}, {"time": 3366, "pitch": 63, "duration": 2, "velocity": 77}, {"time": 3378, "pitch": 48, "duration": 3, "velocity": 99}, {"time": 3378, "pitch": 55, "duration": 3, "velocity": 88}, {"time": 3378, "pitch": 60, "duration": 3, "velocity": 88}, {"time": 3378, "pitch": 63, "duration": 3, "velocity": 90}, {"time": 3390, "pitch": 43, "duration": 20, "velocity": 74}, {"time": 3390, "pitch": 55, "duration": 20, "velocity": 92}, {"time": 3390, "pitch": 58, "duration": 20, "velocity": 100}, {"time": 3390, "pitch": 62, "duration": 18, "velocity": 89}, {"time": 3414, "pitch": 48, "duration": 10, "velocity": 88}, {"time": 3414, "pitch": 63, "duration": 2, "velocity": 32}, {"time": 3420, "pitch": 55, "duration": 1, "velocity": 88}, {"time": 3420, "pitch": 60, "duration": 1, "velocity": 99}, {"time": 3420, "pitch": 63, "duration": 1, "velocity": 100}, {"time": 3423, "pitch": 55, "duration": 1, "velocity": 72}, {"time": 3423, "pitch": 60, "duration": 1, "velocity": 97}, {"time": 3423, "pitch": 63, "duration": 2, "velocity": 95}, {"time": 3426, "pitch": 43, "duration": 8, "velocity": 75}, {"time": 3432, "pitch": 55, "duration": 2, "velocity": 89}, {"time": 3432, "pitch": 60, "duration": 1, "velocity": 93}, {"time": 3432, "pitch": 63, "duration": 2, "velocity": 93}, {"time": 3438, "pitch": 48, "duration": 11, "velocity": 85}, {"time": 3444, "pitch": 55, "duration": 1, "velocity": 81}, {"time": 3444, "pitch": 60, "duration": 1, "velocity": 97}, {"time": 3444, "pitch": 63, "duration": 1, "velocity": 99}, {"time": 3447, "pitch": 55, "duration": 1, "velocity": 77}, {"time": 3447, "pitch": 60, "duration": 1, "velocity": 96}, {"time": 3447, "pitch": 63, "duration": 1, "velocity": 96}, {"time": 3450, "pitch": 43, "duration": 9, "velocity": 83}, {"time": 3456, "pitch": 55, "duration": 1, "velocity": 93}, {"time": 3456, "pitch": 60, "duration": 1, "velocity": 112}, {"time": 3456, "pitch": 63, "duration": 1, "velocity": 100}, {"time": 3462, "pitch": 48, "duration": 12, "velocity": 85}, {"time": 3468, "pitch": 55, "duration": 1, "velocity": 83}, {"time": 3468, "pitch": 60, "duration": 1, "velocity": 112}, {"time": 3468, "pitch": 63, "duration": 1, "velocity": 100}, {"time": 3471, "pitch": 55, "duration": 1, "velocity": 78}, {"time": 3471, "pitch": 60, "duration": 1, "velocity": 99}, {"time": 3471, "pitch": 63, "duration": 2, "velocity": 107}, {"time": 3474, "pitch": 43, "duration": 10, "velocity": 73}, {"time": 3480, "pitch": 55, "duration": 1, "velocity": 85}, {"time": 3480, "pitch": 60, "duration": 1, "velocity": 107}, {"time": 3480, "pitch": 63, "duration": 1, "velocity": 100}, {"time": 3486, "pitch": 48, "duration": 11, "velocity": 69}, {"time": 3492, "pitch": 55, "duration": 1, "velocity": 79}, {"time": 3492, "pitch": 60, "duration": 1, "velocity": 99}, {"time": 3492, "pitch": 63, "duration": 1, "velocity": 97}, {"time": 3495, "pitch": 55, "duration": 1, "velocity": 78}, {"time": 3495, "pitch": 60, "duration": 1, "velocity": 107}, {"time": 3495, "pitch": 63, "duration": 1, "velocity": 100}, {"time": 3498, "pitch": 43, "duration": 8, "velocity": 81}, {"time": 3504, "pitch": 55, "duration": 2, "velocity": 89}, {"time": 3504, "pitch": 60, "duration": 1, "velocity": 102}, {"time": 3504, "pitch": 63, "duration": 2, "velocity": 102}, {"time": 3510, "pitch": 51, "duration": 10, "velocity": 100}, {"time": 3516, "pitch": 58, "duration": 2, "velocity": 112}, {"time": 3516, "pitch": 63, "duration": 1, "velocity": 107}, {"time": 3516, "pitch": 67, "duration": 2, "velocity": 86}, {"time": 3522, "pitch": 46, "duration": 7, "velocity": 97}, {"time": 3528, "pitch": 58, "duration": 2, "velocity": 107}, {"time": 3528, "pitch": 63, "duration": 2, "velocity": 107}, {"time": 3528, "pitch": 67, "duration": 2, "velocity": 83}, {"time": 3534, "pitch": 46, "duration": 10, "velocity": 93}, {"time": 3540, "pitch": 53, "duration": 2, "velocity": 89}, {"time": 3540, "pitch": 58, "duration": 2, "velocity": 95}, {"time": 3540, "pitch": 62, "duration": 2, "velocity": 88}, {"time": 3546, "pitch": 41, "duration": 7, "velocity": 71}, {"time": 3552, "pitch": 53, "duration": 2, "velocity": 92}, {"time": 3552, "pitch": 58, "duration": 2, "velocity": 97}, {"time": 3552, "pitch": 62, "duration": 2, "velocity": 90}, {"time": 3558, "pitch": 51, "duration": 10, "velocity": 99}, {"time": 3564, "pitch": 58, "duration": 2, "velocity": 95}, {"time": 3564, "pitch": 63, "duration": 2, "velocity": 68}, {"time": 3564, "pitch": 67, "duration": 2, "velocity": 72}, {"time": 3570, "pitch": 46, "duration": 9, "velocity": 66}, {"time": 3576, "pitch": 58, "duration": 3, "velocity": 102}, {"time": 3576, "pitch": 63, "duration": 2, "velocity": 102}, {"time": 3576, "pitch": 67, "duration": 2, "velocity": 88}, {"time": 3582, "pitch": 43, "duration": 6, "velocity": 77}, {"time": 3588, "pitch": 55, "duration": 1, "velocity": 88}, {"time": 3588, "pitch": 58, "duration": 1, "velocity": 100}, {"time": 3588, "pitch": 62, "duration": 1, "velocity": 88}, {"time": 3591, "pitch": 55, "duration": 1, "velocity": 58}, {"time": 3591, "pitch": 58, "duration": 2, "velocity": 90}, {"time": 3591, "pitch": 62, "duration": 2, "velocity": 81}, {"time": 3591, "pitch": 63, "duration": 1, "velocity": 69}, {"time": 3594, "pitch": 38, "duration": 8, "velocity": 71}, {"time": 3600, "pitch": 55, "duration": 2, "velocity": 93}, {"time": 3600, "pitch": 58, "duration": 2, "velocity": 107}, {"time": 3600, "pitch": 62, "duration": 2, "velocity": 93}, {"time": 3606, "pitch": 44, "duration": 4, "velocity": 69}, {"time": 3606, "pitch": 51, "duration": 5, "velocity": 68}, {"time": 3606, "pitch": 56, "duration": 4, "velocity": 97}, {"time": 3606, "pitch": 60, "duration": 4, "velocity": 95}, {"time": 3606, "pitch": 63, "duration": 4, "velocity": 107}, {"time": 3624, "pitch": 39, "duration": 5, "velocity": 92}, {"time": 3624, "pitch": 51, "duration": 5, "velocity": 102}, {"time": 3630, "pitch": 44, "duration": 4, "velocity": 54}, {"time": 3630, "pitch": 51, "duration": 4, "velocity": 96}, {"time": 3630, "pitch": 56, "duration": 4, "velocity": 102}, {"time": 3630, "pitch": 60, "duration": 3, "velocity": 97}, {"time": 3630, "pitch": 63, "duration": 4, "velocity": 102}, {"time": 3648, "pitch": 39, "duration": 5, "velocity": 86}, {"time": 3648, "pitch": 51, "duration": 4, "velocity": 99}, {"time": 3654, "pitch": 46, "duration": 4, "velocity": 122}, {"time": 3654, "pitch": 53, "duration": 4, "velocity": 99}, {"time": 3654, "pitch": 58, "duration": 4, "velocity": 117}, {"time": 3654, "pitch": 62, "duration": 4, "velocity": 100}, {"time": 3672, "pitch": 46, "duration": 2, "velocity": 107}, {"time": 3672, "pitch": 58, "duration": 1, "velocity": 127}, {"time": 3678, "pitch": 51, "duration": 4, "velocity": 112}, {"time": 3678, "pitch": 58, "duration": 3, "velocity": 100}, {"time": 3678, "pitch": 63, "duration": 3, "velocity": 69}, {"time": 3678, "pitch": 67, "duration": 3, "velocity": 76}, {"time": 3684, "pitch": 46, "duration": 2, "velocity": 112}, {"time": 3684, "pitch": 58, "duration": 3, "velocity": 112}, {"time": 3690, "pitch": 51, "duration": 5, "velocity": 117}, {"time": 3690, "pitch": 58, "duration": 5, "velocity": 117}, {"time": 3690, "pitch": 63, "duration": 5, "velocity": 107}, {"time": 3690, "pitch": 67, "duration": 5, "velocity": 88}], "annotations": [{"time": 68, "annotation": {"number": 64, "value": 127}, "group": "control_change"}, {"time": 69, "annotation": {"number": 64, "value": 0}, "group": "control_change"}, {"time": 72, "annotation": {"number": 64, "value": 127}, "group": "control_change"}, {"time": 151, "annotation": {"number": 64, "value": 0}, "group": "control_change"}, {"time": 190, "annotation": {"number": 64, "value": 127}, "group": "control_change"}, {"time": 198, "annotation": {"number": 64, "value": 0}, "group": "control_change"}, {"time": 209, "annotation": {"number": 64, "value": 127}, "group": "control_change"}, {"time": 231, "annotation": {"number": 64, "value": 0}, "group": "control_change"}, {"time": 660, "annotation": {"number": 64, "value": 127}, "group": "control_change"}, {"time": 663, "annotation": {"number": 64, "value": 0}, "group": "control_change"}, {"time": 812, "annotation": {"number": 64, "value": 127}, "group": "control_change"}, {"time": 816, "annotation": {"number": 64, "value": 0}, "group": "control_change"}, {"time": 822, "annotation": {"number": 64, "value": 127}, "group": "control_change"}, {"time": 828, "annotation": {"number": 64, "value": 0}, "group": "control_change"}, {"time": 834, "annotation": {"number": 64, "value": 127}, "group": "control_change"}, {"time": 838, "annotation": {"number": 64, "value": 0}, "group": "control_change"}, {"time": 846, "annotation": {"number": 64, "value": 127}, "group": "control_change"}, {"time": 854, "annotation": {"number": 64, "value": 0}, "group": "control_change"}, {"time": 858, "annotation": {"number": 64, "value": 127}, "group": "control_change"}, {"time": 867, "annotation": {"number": 64, "value": 0}, "group": "control_change"}, {"time": 871, "annotation": {"number": 64, "value": 127}, "group": "control_change"}, {"time": 876, "annotation": {"number": 64, "value": 0}, "group": "control_change"}, {"time": 894, "annotation": {"number": 64, "value": 127}, "group": "control_change"}, {"time": 904, "annotation": {"number": 64, "value": 0}, "group": "control_change"}, {"time": 908, "annotation": {"number": 64, "value": 127}, "group": "control_change"}, {"time": 913, "annotation": {"number": 64, "value": 0}, "group": "control_change"}, {"time": 918, "annotation": {"number": 64, "value": 127}, "group": "control_change"}, {"time": 926, "annotation": {"number": 64, "value": 0}, "group": "control_change"}, {"time": 930, "annotation": {"number": 64, "value": 127}, "group": "control_change"}, {"time": 938, "annotation": {"number": 64, "value": 0}, "group": "control_change"}, {"time": 942, "annotation": {"number": 64, "value": 127}, "group": "control_change"}, {"time": 950, "annotation": {"number": 64, "value": 0}, "group": "control_change"}, {"time": 952, "annotation": {"number": 64, "value": 127}, "group": "control_change"}, {"time": 955, "annotation": {"number": 64, "value": 0}, "group": "control_change"}, {"time": 1025, "annotation": {"number": 64, "value": 127}, "group": "control_change"}, {"time": 1029, "annotation": {"number": 64, "value": 0}, "group": "control_change"}, {"time": 1303, "annotation": {"number": 64, "value": 127}, "group": "control_change"}, {"time": 1306, "annotation": {"number": 64, "value": 0}, "group": "control_change"}, {"time": 1812, "annotation": {"number": 64, "value": 127}, "group": "control_change"}, {"time": 1815, "annotation": {"number": 64, "value": 0}, "group": "control_change"}, {"time": 1964, "annotation": {"number": 64, "value": 127}, "group": "control_change"}, {"time": 1968, "annotation": {"number": 64, "value": 0}, "group": "control_change"}, {"time": 1974, "annotation": {"number": 64, "value": 127}, "group": "control_change"}, {"time": 1980, "annotation": {"number": 64, "value": 0}, "group": "control_change"}, {"time": 1986, "annotation": {"number": 64, "value": 127}, "group": "control_change"}, {"time": 1990, "annotation": {"number": 64, "value": 0}, "group": "control_change"}, {"time": 1998, "annotation": {"number": 64, "value": 127}, "group": "control_change"}, {"time": 2006, "annotation": {"number": 64, "value": 0}, "group": "control_change"}, {"time": 2010, "annotation": {"number": 64, "value": 127}, "group": "control_change"}, {"time": 2019, "annotation": {"number": 64, "value": 0}, "group": "control_change"}, {"time": 2023, "annotation": {"number": 64, "value": 127}, "group": "control_change"}, {"time": 2028, "annotation": {"number": 64, "value": 0}, "group": "control_change"}, {"time": 2046, "annotation": {"number": 64, "value": 127}, "group": "control_change"}, {"time": 2056, "annotation": {"number": 64, "value": 0}, "group": "control_change"}, {"time": 2060, "annotation": {"number": 64, "value": 127}, "group": "control_change"}, {"time": 2065, "annotation": {"number": 64, "value": 0}, "group": "control_change"}, {"time": 2070, "annotation": {"number": 64, "value": 127}, "group": "control_change"}, {"time": 2078, "annotation": {"number": 64, "value": 0}, "group": "control_change"}, {"time": 2082, "annotation": {"number": 64, "value": 127}, "group": "control_change"}, {"time": 2090, "annotation": {"number": 64, "value": 0}, "group": "control_change"}, {"time": 2094, "annotation": {"number": 64, "value": 127}, "group": "control_change"}, {"time": 2102, "annotation": {"number": 64, "value": 0}, "group": "control_change"}, {"time": 2104, "annotation": {"number": 64, "value": 127}, "group": "control_change"}, {"time": 2107, "annotation": {"number": 64, "value": 0}, "group": "control_change"}, {"time": 2177, "annotation": {"number": 64, "value": 127}, "group": "control_change"}, {"time": 2181, "annotation": {"number": 64, "value": 0}, "group": "control_change"}, {"time": 2455, "annotation": {"number": 64, "value": 127}, "group": "control_change"}, {"time": 2458, "annotation": {"number": 64, "value": 0}, "group": "control_change"}, {"time": 2561, "annotation": {"number": 64, "value": 127}, "group": "control_change"}, {"time": 2566, "annotation": {"number": 64, "value": 0}, "group": "control_change"}, {"time": 2574, "annotation": {"number": 64, "value": 127}, "group": "control_change"}, {"time": 2580, "annotation": {"number": 64, "value": 0}, "group": "control_change"}, {"time": 2586, "annotation": {"number": 64, "value": 127}, "group": "control_change"}, {"time": 2594, "annotation": {"number": 64, "value": 0}, "group": "control_change"}, {"time": 2599, "annotation": {"number": 64, "value": 127}, "group": "control_change"}, {"time": 2605, "annotation": {"number": 64, "value": 0}, "group": "control_change"}, {"time": 2610, "annotation": {"number": 64, "value": 127}, "group": "control_change"}, {"time": 2618, "annotation": {"number": 64, "value": 0}, "group": "control_change"}, {"time": 2663, "annotation": {"number": 64, "value": 127}, "group": "control_change"}, {"time": 2666, "annotation": {"number": 64, "value": 0}, "group": "control_change"}, {"time": 2694, "annotation": {"number": 64, "value": 127}, "group": "control_change"}, {"time": 2702, "annotation": {"number": 64, "value": 0}, "group": "control_change"}, {"time": 2707, "annotation": {"number": 64, "value": 127}, "group": "control_change"}, {"time": 2712, "annotation": {"number": 64, "value": 0}, "group": "control_change"}, {"time": 2718, "annotation": {"number": 64, "value": 127}, "group": "control_change"}, {"time": 2723, "annotation": {"number": 64, "value": 0}, "group": "control_change"}, {"time": 2730, "annotation": {"number": 64, "value": 127}, "group": "control_change"}, {"time": 2737, "annotation": {"number": 64, "value": 0}, "group": "control_change"}, {"time": 2742, "annotation": {"number": 64, "value": 127}, "group": "control_change"}, {"time": 2750, "annotation": {"number": 64, "value": 0}, "group": "control_change"}, {"time": 2754, "annotation": {"number": 64, "value": 127}, "group": "control_change"}, {"time": 2761, "annotation": {"number": 64, "value": 0}, "group": "control_change"}, {"time": 2766, "annotation": {"number": 64, "value": 127}, "group": "control_change"}, {"time": 2774, "annotation": {"number": 64, "value": 0}, "group": "control_change"}, {"time": 2778, "annotation": {"number": 64, "value": 127}, "group": "control_change"}, {"time": 2784, "annotation": {"number": 64, "value": 0}, "group": "control_change"}, {"time": 2790, "annotation": {"number": 64, "value": 127}, "group": "control_change"}, {"time": 2798, "annotation": {"number": 64, "value": 0}, "group": "control_change"}, {"time": 2802, "annotation": {"number": 64, "value": 127}, "group": "control_change"}, {"time": 2805, "annotation": {"number": 64, "value": 0}, "group": "control_change"}, {"time": 2814, "annotation": {"number": 64, "value": 127}, "group": "control_change"}, {"time": 2821, "annotation": {"number": 64, "value": 0}, "group": "control_change"}, {"time": 2826, "annotation": {"number": 64, "value": 127}, "group": "control_change"}, {"time": 2833, "annotation": {"number": 64, "value": 0}, "group": "control_change"}, {"time": 2838, "annotation": {"number": 64, "value": 127}, "group": "control_change"}, {"time": 2846, "annotation": {"number": 64, "value": 0}, "group": "control_change"}, {"time": 2850, "annotation": {"number": 64, "value": 127}, "group": "control_change"}, {"time": 2857, "annotation": {"number": 64, "value": 0}, "group": "control_change"}, {"time": 2862, "annotation": {"number": 64, "value": 127}, "group": "control_change"}, {"time": 2869, "annotation": {"number": 64, "value": 0}, "group": "control_change"}, {"time": 2874, "annotation": {"number": 64, "value": 127}, "group": "control_change"}, {"time": 2880, "annotation": {"number": 64, "value": 0}, "group": "control_change"}, {"time": 2887, "annotation": {"number": 64, "value": 127}, "group": "control_change"}, {"time": 2894, "annotation": {"number": 64, "value": 0}, "group": "control_change"}, {"time": 2898, "annotation": {"number": 64, "value": 127}, "group": "control_change"}, {"time": 2906, "annotation": {"number": 64, "value": 0}, "group": "control_change"}, {"time": 2910, "annotation": {"number": 64, "value": 127}, "group": "control_change"}, {"time": 2918, "annotation": {"number": 64, "value": 0}, "group": "control_change"}, {"time": 2922, "annotation": {"number": 64, "value": 127}, "group": "control_change"}, {"time": 2929, "annotation": {"number": 64, "value": 0}, "group": "control_change"}, {"time": 2934, "annotation": {"number": 64, "value": 127}, "group": "control_change"}, {"time": 2940, "annotation": {"number": 64, "value": 0}, "group": "control_change"}, {"time": 2946, "annotation": {"number": 64, "value": 127}, "group": "control_change"}, {"time": 2950, "annotation": {"number": 64, "value": 0}, "group": "control_change"}, {"time": 2958, "annotation": {"number": 64, "value": 127}, "group": "control_change"}, {"time": 2966, "annotation": {"number": 64, "value": 0}, "group": "control_change"}, {"time": 2970, "annotation": {"number": 64, "value": 127}, "group": "control_change"}, {"time": 2979, "annotation": {"number": 64, "value": 0}, "group": "control_change"}, {"time": 2983, "annotation": {"number": 64, "value": 127}, "group": "control_change"}, {"time": 2988, "annotation": {"number": 64, "value": 0}, "group": "control_change"}, {"time": 3006, "annotation": {"number": 64, "value": 127}, "group": "control_change"}, {"time": 3016, "annotation": {"number": 64, "value": 0}, "group": "control_change"}, {"time": 3020, "annotation": {"number": 64, "value": 127}, "group": "control_change"}, {"time": 3025, "annotation": {"number": 64, "value": 0}, "group": "control_change"}, {"time": 3030, "annotation": {"number": 64, "value": 127}, "group": "control_change"}, {"time": 3038, "annotation": {"number": 64, "value": 0}, "group": "control_change"}, {"time": 3042, "annotation": {"number": 64, "value": 127}, "group": "control_change"}, {"time": 3050, "annotation": {"number": 64, "value": 0}, "group": "control_change"}, {"time": 3054, "annotation": {"number": 64, "value": 127}, "group": "control_change"}, {"time": 3062, "annotation": {"number": 64, "value": 0}, "group": "control_change"}, {"time": 3064, "annotation": {"number": 64, "value": 127}, "group": "control_change"}, {"time": 3067, "annotation": {"number": 64, "value": 0}, "group": "control_change"}, {"time": 3137, "annotation": {"number": 64, "value": 127}, "group": "control_change"}, {"time": 3141, "annotation": {"number": 64, "value": 0}, "group": "control_change"}, {"time": 3415, "annotation": {"number": 64, "value": 127}, "group": "control_change"}, {"time": 3418, "annotation": {"number": 64, "value": 0}, "group": "control_change"}, {"time": 3520, "annotation": {"number": 64, "value": 127}, "group": "control_change"}, {"time": 3528, "annotation": {"number": 64, "value": 0}, "group": "control_change"}, {"time": 3534, "annotation": {"number": 64, "value": 127}, "group": "control_change"}, {"time": 3542, "annotation": {"number": 64, "value": 0}, "group": "control_change"}, {"time": 3558, "annotation": {"number": 64, "value": 127}, "group": "control_change"}, {"time": 3566, "annotation": {"number": 64, "value": 0}, "group": "control_change"}, {"time": 3571, "annotation": {"number": 64, "value": 127}, "group": "control_change"}, {"time": 3579, "annotation": {"number": 64, "value": 0}, "group": "control_change"}, {"time": 3583, "annotation": {"number": 64, "value": 127}, "group": "control_change"}, {"time": 3591, "annotation": {"number": 64, "value": 0}, "group": "control_change"}, {"time": 3595, "annotation": {"number": 64, "value": 127}, "group": "control_change"}, {"time": 3604, "annotation": {"number": 64, "value": 0}, "group": "control_change"}]}]}