{"metadata": {"schema_version": "0.2", "title": "None", "source_filename": "372.mid", "source_format": "midi"}, "resolution": 12, "tempos": [{"time": 0, "qpm": 63.020046676847905}, {"time": 1392, "qpm": 65.50003820835562}, {"time": 1764, "qpm": 126.000126000126}, {"time": 1776, "qpm": 64.99999458333379}, {"time": 1800, "qpm": 62.99999685000016}], "time_signatures": [{"time": 0, "numerator": 1, "denominator": 4}], "tracks": [{"program": 0, "is_drum": false, "name": "MELODY", "notes": [{"time": 415, "pitch": 63, "duration": 2, "velocity": 112}, {"time": 418, "pitch": 63, "duration": 5, "velocity": 107}, {"time": 424, "pitch": 63, "duration": 2, "velocity": 97}, {"time": 427, "pitch": 63, "duration": 2, "velocity": 89}, {"time": 430, "pitch": 71, "duration": 4, "velocity": 93}, {"time": 433, "pitch": 70, "duration": 3, "velocity": 100}, {"time": 436, "pitch": 71, "duration": 17, "velocity": 96}, {"time": 454, "pitch": 73, "duration": 2, "velocity": 117}, {"time": 457, "pitch": 71, "duration": 3, "velocity": 89}, {"time": 460, "pitch": 70, "duration": 7, "velocity": 107}, {"time": 472, "pitch": 66, "duration": 2, "velocity": 92}, {"time": 475, "pitch": 66, "duration": 4, "velocity": 107}, {"time": 481, "pitch": 63, "duration": 3, "velocity": 99}, {"time": 484, "pitch": 68, "duration": 19, "velocity": 93}, {"time": 511, "pitch": 63, "duration": 2, "velocity": 112}, {"time": 514, "pitch": 63, "duration": 5, "velocity": 99}, {"time": 520, "pitch": 63, "duration": 2, "velocity": 93}, {"time": 523, "pitch": 63, "duration": 2, "velocity": 97}, {"time": 526, "pitch": 71, "duration": 3, "velocity": 96}, {"time": 529, "pitch": 70, "duration": 3, "velocity": 96}, {"time": 532, "pitch": 71, "duration": 15, "velocity": 112}, {"time": 550, "pitch": 73, "duration": 3, "velocity": 112}, {"time": 553, "pitch": 71, "duration": 3, "velocity": 90}, {"time": 556, "pitch": 70, "duration": 8, "velocity": 112}, {"time": 568, "pitch": 70, "duration": 4, "velocity": 107}, {"time": 574, "pitch": 71, "duration": 3, "velocity": 99}, {"time": 577, "pitch": 73, "duration": 3, "velocity": 97}, {"time": 580, "pitch": 68, "duration": 22, "velocity": 92}, {"time": 607, "pitch": 63, "duration": 2, "velocity": 112}, {"time": 610, "pitch": 63, "duration": 5, "velocity": 107}, {"time": 616, "pitch": 63, "duration": 2, "velocity": 97}, {"time": 619, "pitch": 63, "duration": 2, "velocity": 89}, {"time": 622, "pitch": 71, "duration": 4, "velocity": 93}, {"time": 625, "pitch": 70, "duration": 3, "velocity": 100}, {"time": 628, "pitch": 71, "duration": 17, "velocity": 96}, {"time": 646, "pitch": 73, "duration": 2, "velocity": 117}, {"time": 649, "pitch": 71, "duration": 3, "velocity": 89}, {"time": 652, "pitch": 70, "duration": 7, "velocity": 107}, {"time": 664, "pitch": 66, "duration": 2, "velocity": 92}, {"time": 667, "pitch": 66, "duration": 4, "velocity": 107}, {"time": 673, "pitch": 63, "duration": 3, "velocity": 99}, {"time": 676, "pitch": 68, "duration": 19, "velocity": 93}, {"time": 703, "pitch": 63, "duration": 2, "velocity": 112}, {"time": 706, "pitch": 63, "duration": 5, "velocity": 99}, {"time": 712, "pitch": 63, "duration": 2, "velocity": 93}, {"time": 715, "pitch": 63, "duration": 2, "velocity": 97}, {"time": 718, "pitch": 71, "duration": 3, "velocity": 96}, {"time": 721, "pitch": 73, "duration": 3, "velocity": 96}, {"time": 724, "pitch": 71, "duration": 15, "velocity": 112}, {"time": 742, "pitch": 68, "duration": 3, "velocity": 112}, {"time": 745, "pitch": 70, "duration": 2, "velocity": 102}, {"time": 748, "pitch": 71, "duration": 3, "velocity": 96}, {"time": 751, "pitch": 73, "duration": 1, "velocity": 122}, {"time": 754, "pitch": 73, "duration": 1, "velocity": 122}, {"time": 757, "pitch": 73, "duration": 2, "velocity": 122}, {"time": 760, "pitch": 73, "duration": 2, "velocity": 127}, {"time": 763, "pitch": 71, "duration": 2, "velocity": 122}, {"time": 766, "pitch": 70, "duration": 3, "velocity": 122}, {"time": 772, "pitch": 68, "duration": 20, "velocity": 112}, {"time": 790, "pitch": 68, "duration": 2, "velocity": 112}, {"time": 793, "pitch": 70, "duration": 2, "velocity": 117}, {"time": 796, "pitch": 71, "duration": 15, "velocity": 97}, {"time": 817, "pitch": 75, "duration": 5, "velocity": 127}, {"time": 823, "pitch": 75, "duration": 4, "velocity": 127}, {"time": 829, "pitch": 76, "duration": 5, "velocity": 127}, {"time": 835, "pitch": 73, "duration": 4, "velocity": 97}, {"time": 841, "pitch": 71, "duration": 3, "velocity": 112}, {"time": 844, "pitch": 73, "duration": 6, "velocity": 127}, {"time": 853, "pitch": 70, "duration": 5, "velocity": 127}, {"time": 859, "pitch": 71, "duration": 6, "velocity": 112}, {"time": 865, "pitch": 73, "duration": 3, "velocity": 122}, {"time": 868, "pitch": 75, "duration": 11, "velocity": 127}, {"time": 889, "pitch": 68, "duration": 3, "velocity": 127}, {"time": 892, "pitch": 70, "duration": 3, "velocity": 102}, {"time": 895, "pitch": 71, "duration": 5, "velocity": 107}, {"time": 901, "pitch": 73, "duration": 3, "velocity": 117}, {"time": 904, "pitch": 71, "duration": 9, "velocity": 122}, {"time": 919, "pitch": 70, "duration": 6, "velocity": 127}, {"time": 925, "pitch": 71, "duration": 4, "velocity": 90}, {"time": 928, "pitch": 70, "duration": 5, "velocity": 107}, {"time": 937, "pitch": 63, "duration": 5, "velocity": 112}, {"time": 943, "pitch": 68, "duration": 16, "velocity": 122}, {"time": 991, "pitch": 75, "duration": 1, "velocity": 127}, {"time": 994, "pitch": 75, "duration": 1, "velocity": 117}, {"time": 997, "pitch": 75, "duration": 1, "velocity": 127}, {"time": 1000, "pitch": 75, "duration": 1, "velocity": 107}, {"time": 1003, "pitch": 75, "duration": 1, "velocity": 127}, {"time": 1006, "pitch": 75, "duration": 3, "velocity": 127}, {"time": 1012, "pitch": 73, "duration": 4, "velocity": 127}, {"time": 1018, "pitch": 73, "duration": 1, "velocity": 127}, {"time": 1021, "pitch": 73, "duration": 1, "velocity": 117}, {"time": 1024, "pitch": 73, "duration": 1, "velocity": 127}, {"time": 1027, "pitch": 80, "duration": 3, "velocity": 127}, {"time": 1030, "pitch": 78, "duration": 4, "velocity": 127}, {"time": 1036, "pitch": 73, "duration": 4, "velocity": 127}, {"time": 1042, "pitch": 73, "duration": 1, "velocity": 102}, {"time": 1045, "pitch": 73, "duration": 1, "velocity": 117}, {"time": 1048, "pitch": 73, "duration": 1, "velocity": 107}, {"time": 1051, "pitch": 73, "duration": 4, "velocity": 127}, {"time": 1057, "pitch": 73, "duration": 3, "velocity": 127}, {"time": 1060, "pitch": 71, "duration": 3, "velocity": 93}, {"time": 1063, "pitch": 73, "duration": 2, "velocity": 127}, {"time": 1066, "pitch": 75, "duration": 5, "velocity": 127}, {"time": 1072, "pitch": 75, "duration": 7, "velocity": 122}, {"time": 1087, "pitch": 68, "duration": 9, "velocity": 127}, {"time": 1099, "pitch": 68, "duration": 2, "velocity": 116}, {"time": 1102, "pitch": 68, "duration": 2, "velocity": 116}, {"time": 1105, "pitch": 71, "duration": 2, "velocity": 116}, {"time": 1108, "pitch": 73, "duration": 6, "velocity": 117}, {"time": 1126, "pitch": 73, "duration": 2, "velocity": 127}, {"time": 1129, "pitch": 71, "duration": 2, "velocity": 95}, {"time": 1129, "pitch": 73, "duration": 3, "velocity": 117}, {"time": 1135, "pitch": 75, "duration": 2, "velocity": 122}, {"time": 1138, "pitch": 75, "duration": 2, "velocity": 97}, {"time": 1141, "pitch": 75, "duration": 1, "velocity": 117}, {"time": 1144, "pitch": 75, "duration": 1, "velocity": 122}, {"time": 1147, "pitch": 75, "duration": 1, "velocity": 122}, {"time": 1150, "pitch": 75, "duration": 2, "velocity": 127}, {"time": 1153, "pitch": 78, "duration": 2, "velocity": 127}, {"time": 1156, "pitch": 75, "duration": 15, "velocity": 127}, {"time": 1183, "pitch": 75, "duration": 1, "velocity": 127}, {"time": 1186, "pitch": 75, "duration": 1, "velocity": 102}, {"time": 1189, "pitch": 75, "duration": 1, "velocity": 127}, {"time": 1192, "pitch": 75, "duration": 1, "velocity": 127}, {"time": 1195, "pitch": 75, "duration": 1, "velocity": 127}, {"time": 1198, "pitch": 75, "duration": 4, "velocity": 127}, {"time": 1204, "pitch": 73, "duration": 4, "velocity": 127}, {"time": 1210, "pitch": 73, "duration": 1, "velocity": 107}, {"time": 1213, "pitch": 73, "duration": 1, "velocity": 102}, {"time": 1216, "pitch": 73, "duration": 1, "velocity": 122}, {"time": 1219, "pitch": 80, "duration": 2, "velocity": 127}, {"time": 1222, "pitch": 78, "duration": 4, "velocity": 117}, {"time": 1228, "pitch": 80, "duration": 4, "velocity": 127}, {"time": 1234, "pitch": 78, "duration": 1, "velocity": 127}, {"time": 1237, "pitch": 78, "duration": 1, "velocity": 117}, {"time": 1240, "pitch": 78, "duration": 1, "velocity": 127}, {"time": 1243, "pitch": 78, "duration": 4, "velocity": 127}, {"time": 1249, "pitch": 75, "duration": 1, "velocity": 127}, {"time": 1252, "pitch": 75, "duration": 2, "velocity": 127}, {"time": 1255, "pitch": 73, "duration": 3, "velocity": 127}, {"time": 1258, "pitch": 75, "duration": 3, "velocity": 112}, {"time": 1264, "pitch": 75, "duration": 7, "velocity": 127}, {"time": 1279, "pitch": 68, "duration": 8, "velocity": 127}, {"time": 1288, "pitch": 68, "duration": 1, "velocity": 23}, {"time": 1291, "pitch": 68, "duration": 1, "velocity": 127}, {"time": 1294, "pitch": 68, "duration": 1, "velocity": 127}, {"time": 1297, "pitch": 80, "duration": 3, "velocity": 127}, {"time": 1300, "pitch": 78, "duration": 7, "velocity": 127}, {"time": 1315, "pitch": 70, "duration": 2, "velocity": 127}, {"time": 1318, "pitch": 70, "duration": 3, "velocity": 127}, {"time": 1324, "pitch": 66, "duration": 3, "velocity": 107}, {"time": 1330, "pitch": 68, "duration": 9, "velocity": 127}, {"time": 1807, "pitch": 63, "duration": 2, "velocity": 112}, {"time": 1810, "pitch": 63, "duration": 5, "velocity": 107}, {"time": 1816, "pitch": 63, "duration": 2, "velocity": 97}, {"time": 1819, "pitch": 63, "duration": 2, "velocity": 89}, {"time": 1822, "pitch": 71, "duration": 4, "velocity": 93}, {"time": 1825, "pitch": 70, "duration": 3, "velocity": 100}, {"time": 1828, "pitch": 71, "duration": 17, "velocity": 96}, {"time": 1846, "pitch": 73, "duration": 2, "velocity": 117}, {"time": 1849, "pitch": 71, "duration": 3, "velocity": 89}, {"time": 1852, "pitch": 70, "duration": 7, "velocity": 107}, {"time": 1864, "pitch": 66, "duration": 2, "velocity": 92}, {"time": 1867, "pitch": 66, "duration": 4, "velocity": 107}, {"time": 1873, "pitch": 63, "duration": 3, "velocity": 99}, {"time": 1876, "pitch": 68, "duration": 19, "velocity": 93}, {"time": 1903, "pitch": 63, "duration": 2, "velocity": 112}, {"time": 1906, "pitch": 63, "duration": 5, "velocity": 99}, {"time": 1912, "pitch": 63, "duration": 2, "velocity": 93}, {"time": 1915, "pitch": 63, "duration": 2, "velocity": 97}, {"time": 1918, "pitch": 71, "duration": 3, "velocity": 96}, {"time": 1921, "pitch": 70, "duration": 3, "velocity": 96}, {"time": 1924, "pitch": 71, "duration": 15, "velocity": 112}, {"time": 1942, "pitch": 73, "duration": 3, "velocity": 112}, {"time": 1945, "pitch": 71, "duration": 3, "velocity": 90}, {"time": 1948, "pitch": 70, "duration": 8, "velocity": 112}, {"time": 1960, "pitch": 70, "duration": 4, "velocity": 107}, {"time": 1966, "pitch": 71, "duration": 3, "velocity": 99}, {"time": 1969, "pitch": 73, "duration": 3, "velocity": 97}, {"time": 1972, "pitch": 68, "duration": 22, "velocity": 92}, {"time": 1999, "pitch": 63, "duration": 2, "velocity": 112}, {"time": 2002, "pitch": 63, "duration": 5, "velocity": 107}, {"time": 2008, "pitch": 63, "duration": 2, "velocity": 97}, {"time": 2011, "pitch": 63, "duration": 2, "velocity": 89}, {"time": 2014, "pitch": 71, "duration": 4, "velocity": 93}, {"time": 2017, "pitch": 70, "duration": 3, "velocity": 100}, {"time": 2020, "pitch": 71, "duration": 17, "velocity": 96}, {"time": 2038, "pitch": 73, "duration": 2, "velocity": 117}, {"time": 2041, "pitch": 71, "duration": 3, "velocity": 89}, {"time": 2044, "pitch": 70, "duration": 7, "velocity": 107}, {"time": 2056, "pitch": 66, "duration": 2, "velocity": 92}, {"time": 2059, "pitch": 66, "duration": 4, "velocity": 107}, {"time": 2065, "pitch": 63, "duration": 3, "velocity": 99}, {"time": 2068, "pitch": 68, "duration": 19, "velocity": 93}, {"time": 2095, "pitch": 63, "duration": 2, "velocity": 112}, {"time": 2098, "pitch": 63, "duration": 5, "velocity": 99}, {"time": 2104, "pitch": 63, "duration": 2, "velocity": 93}, {"time": 2107, "pitch": 63, "duration": 2, "velocity": 97}, {"time": 2110, "pitch": 71, "duration": 3, "velocity": 96}, {"time": 2113, "pitch": 73, "duration": 3, "velocity": 96}, {"time": 2116, "pitch": 71, "duration": 15, "velocity": 112}, {"time": 2134, "pitch": 68, "duration": 3, "velocity": 112}, {"time": 2137, "pitch": 70, "duration": 2, "velocity": 102}, {"time": 2140, "pitch": 71, "duration": 3, "velocity": 96}, {"time": 2143, "pitch": 73, "duration": 1, "velocity": 122}, {"time": 2146, "pitch": 73, "duration": 1, "velocity": 122}, {"time": 2149, "pitch": 73, "duration": 2, "velocity": 122}, {"time": 2152, "pitch": 73, "duration": 2, "velocity": 127}, {"time": 2155, "pitch": 71, "duration": 2, "velocity": 122}, {"time": 2158, "pitch": 70, "duration": 3, "velocity": 122}, {"time": 2164, "pitch": 68, "duration": 20, "velocity": 112}, {"time": 2182, "pitch": 68, "duration": 2, "velocity": 112}, {"time": 2185, "pitch": 70, "duration": 2, "velocity": 117}, {"time": 2188, "pitch": 71, "duration": 15, "velocity": 97}, {"time": 2209, "pitch": 75, "duration": 5, "velocity": 127}, {"time": 2215, "pitch": 75, "duration": 4, "velocity": 127}, {"time": 2221, "pitch": 76, "duration": 5, "velocity": 127}, {"time": 2227, "pitch": 73, "duration": 4, "velocity": 97}, {"time": 2233, "pitch": 71, "duration": 3, "velocity": 112}, {"time": 2236, "pitch": 73, "duration": 6, "velocity": 127}, {"time": 2245, "pitch": 70, "duration": 5, "velocity": 127}, {"time": 2251, "pitch": 71, "duration": 6, "velocity": 112}, {"time": 2257, "pitch": 73, "duration": 3, "velocity": 122}, {"time": 2260, "pitch": 75, "duration": 11, "velocity": 127}, {"time": 2281, "pitch": 68, "duration": 3, "velocity": 127}, {"time": 2284, "pitch": 70, "duration": 3, "velocity": 102}, {"time": 2287, "pitch": 71, "duration": 5, "velocity": 107}, {"time": 2293, "pitch": 73, "duration": 3, "velocity": 117}, {"time": 2296, "pitch": 71, "duration": 9, "velocity": 122}, {"time": 2311, "pitch": 70, "duration": 6, "velocity": 127}, {"time": 2317, "pitch": 71, "duration": 4, "velocity": 90}, {"time": 2320, "pitch": 70, "duration": 5, "velocity": 107}, {"time": 2329, "pitch": 63, "duration": 5, "velocity": 112}, {"time": 2335, "pitch": 68, "duration": 16, "velocity": 122}, {"time": 2383, "pitch": 75, "duration": 1, "velocity": 127}, {"time": 2386, "pitch": 75, "duration": 1, "velocity": 117}, {"time": 2389, "pitch": 75, "duration": 1, "velocity": 127}, {"time": 2392, "pitch": 75, "duration": 1, "velocity": 107}, {"time": 2395, "pitch": 75, "duration": 1, "velocity": 127}, {"time": 2398, "pitch": 75, "duration": 3, "velocity": 127}, {"time": 2404, "pitch": 73, "duration": 4, "velocity": 127}, {"time": 2410, "pitch": 73, "duration": 1, "velocity": 127}, {"time": 2413, "pitch": 73, "duration": 1, "velocity": 117}, {"time": 2416, "pitch": 73, "duration": 1, "velocity": 127}, {"time": 2419, "pitch": 80, "duration": 3, "velocity": 127}, {"time": 2422, "pitch": 78, "duration": 4, "velocity": 127}, {"time": 2428, "pitch": 73, "duration": 4, "velocity": 127}, {"time": 2434, "pitch": 73, "duration": 1, "velocity": 102}, {"time": 2437, "pitch": 73, "duration": 1, "velocity": 117}, {"time": 2440, "pitch": 73, "duration": 1, "velocity": 107}, {"time": 2443, "pitch": 73, "duration": 4, "velocity": 127}, {"time": 2449, "pitch": 73, "duration": 3, "velocity": 127}, {"time": 2452, "pitch": 71, "duration": 3, "velocity": 93}, {"time": 2455, "pitch": 73, "duration": 2, "velocity": 127}, {"time": 2458, "pitch": 75, "duration": 5, "velocity": 127}, {"time": 2464, "pitch": 75, "duration": 7, "velocity": 122}, {"time": 2479, "pitch": 68, "duration": 9, "velocity": 127}, {"time": 2491, "pitch": 68, "duration": 2, "velocity": 116}, {"time": 2494, "pitch": 68, "duration": 2, "velocity": 116}, {"time": 2497, "pitch": 71, "duration": 2, "velocity": 116}, {"time": 2500, "pitch": 73, "duration": 6, "velocity": 117}, {"time": 2518, "pitch": 73, "duration": 2, "velocity": 127}, {"time": 2521, "pitch": 71, "duration": 2, "velocity": 95}, {"time": 2521, "pitch": 73, "duration": 3, "velocity": 117}, {"time": 2527, "pitch": 75, "duration": 2, "velocity": 122}, {"time": 2530, "pitch": 75, "duration": 2, "velocity": 97}, {"time": 2533, "pitch": 75, "duration": 1, "velocity": 117}, {"time": 2536, "pitch": 75, "duration": 1, "velocity": 122}, {"time": 2539, "pitch": 75, "duration": 1, "velocity": 122}, {"time": 2542, "pitch": 75, "duration": 2, "velocity": 127}, {"time": 2545, "pitch": 78, "duration": 2, "velocity": 127}, {"time": 2548, "pitch": 75, "duration": 15, "velocity": 127}, {"time": 2575, "pitch": 75, "duration": 1, "velocity": 127}, {"time": 2578, "pitch": 75, "duration": 1, "velocity": 102}, {"time": 2581, "pitch": 75, "duration": 1, "velocity": 127}, {"time": 2584, "pitch": 75, "duration": 1, "velocity": 127}, {"time": 2587, "pitch": 75, "duration": 1, "velocity": 127}, {"time": 2590, "pitch": 75, "duration": 4, "velocity": 127}, {"time": 2596, "pitch": 73, "duration": 4, "velocity": 127}, {"time": 2602, "pitch": 73, "duration": 1, "velocity": 107}, {"time": 2605, "pitch": 73, "duration": 1, "velocity": 102}, {"time": 2608, "pitch": 73, "duration": 1, "velocity": 122}, {"time": 2611, "pitch": 80, "duration": 2, "velocity": 127}, {"time": 2614, "pitch": 78, "duration": 4, "velocity": 117}, {"time": 2620, "pitch": 80, "duration": 4, "velocity": 127}, {"time": 2626, "pitch": 78, "duration": 1, "velocity": 127}, {"time": 2629, "pitch": 78, "duration": 1, "velocity": 117}, {"time": 2632, "pitch": 78, "duration": 1, "velocity": 127}, {"time": 2635, "pitch": 78, "duration": 4, "velocity": 127}, {"time": 2641, "pitch": 75, "duration": 1, "velocity": 127}, {"time": 2644, "pitch": 75, "duration": 2, "velocity": 127}, {"time": 2647, "pitch": 73, "duration": 3, "velocity": 127}, {"time": 2650, "pitch": 75, "duration": 3, "velocity": 112}, {"time": 2656, "pitch": 75, "duration": 7, "velocity": 127}, {"time": 2671, "pitch": 68, "duration": 8, "velocity": 127}, {"time": 2680, "pitch": 68, "duration": 1, "velocity": 23}, {"time": 2683, "pitch": 68, "duration": 1, "velocity": 127}, {"time": 2686, "pitch": 68, "duration": 1, "velocity": 127}, {"time": 2689, "pitch": 80, "duration": 3, "velocity": 127}, {"time": 2692, "pitch": 78, "duration": 7, "velocity": 127}, {"time": 2707, "pitch": 70, "duration": 2, "velocity": 127}, {"time": 2710, "pitch": 70, "duration": 3, "velocity": 127}, {"time": 2716, "pitch": 66, "duration": 3, "velocity": 107}, {"time": 2722, "pitch": 68, "duration": 9, "velocity": 127}, {"time": 2767, "pitch": 75, "duration": 1, "velocity": 127}, {"time": 2770, "pitch": 75, "duration": 1, "velocity": 117}, {"time": 2773, "pitch": 75, "duration": 1, "velocity": 127}, {"time": 2776, "pitch": 75, "duration": 1, "velocity": 107}, {"time": 2779, "pitch": 75, "duration": 1, "velocity": 127}, {"time": 2782, "pitch": 75, "duration": 3, "velocity": 127}, {"time": 2788, "pitch": 73, "duration": 4, "velocity": 127}, {"time": 2794, "pitch": 73, "duration": 1, "velocity": 127}, {"time": 2797, "pitch": 73, "duration": 1, "velocity": 117}, {"time": 2800, "pitch": 73, "duration": 1, "velocity": 127}, {"time": 2803, "pitch": 80, "duration": 3, "velocity": 127}, {"time": 2806, "pitch": 78, "duration": 4, "velocity": 127}, {"time": 2812, "pitch": 73, "duration": 4, "velocity": 127}, {"time": 2818, "pitch": 73, "duration": 1, "velocity": 102}, {"time": 2821, "pitch": 73, "duration": 1, "velocity": 117}, {"time": 2824, "pitch": 73, "duration": 1, "velocity": 107}, {"time": 2827, "pitch": 73, "duration": 4, "velocity": 127}, {"time": 2833, "pitch": 73, "duration": 3, "velocity": 127}, {"time": 2836, "pitch": 71, "duration": 3, "velocity": 93}, {"time": 2839, "pitch": 73, "duration": 2, "velocity": 127}, {"time": 2842, "pitch": 75, "duration": 5, "velocity": 127}, {"time": 2848, "pitch": 75, "duration": 7, "velocity": 122}, {"time": 2863, "pitch": 68, "duration": 9, "velocity": 127}, {"time": 2875, "pitch": 68, "duration": 2, "velocity": 116}, {"time": 2878, "pitch": 68, "duration": 2, "velocity": 116}, {"time": 2881, "pitch": 71, "duration": 2, "velocity": 116}, {"time": 2884, "pitch": 73, "duration": 6, "velocity": 117}, {"time": 2902, "pitch": 73, "duration": 2, "velocity": 127}, {"time": 2905, "pitch": 71, "duration": 2, "velocity": 95}, {"time": 2905, "pitch": 73, "duration": 3, "velocity": 117}, {"time": 2911, "pitch": 75, "duration": 2, "velocity": 122}, {"time": 2914, "pitch": 75, "duration": 2, "velocity": 97}, {"time": 2917, "pitch": 75, "duration": 1, "velocity": 117}, {"time": 2920, "pitch": 75, "duration": 1, "velocity": 122}, {"time": 2923, "pitch": 75, "duration": 1, "velocity": 122}, {"time": 2926, "pitch": 75, "duration": 2, "velocity": 127}, {"time": 2929, "pitch": 78, "duration": 2, "velocity": 127}, {"time": 2932, "pitch": 75, "duration": 15, "velocity": 127}, {"time": 2959, "pitch": 75, "duration": 1, "velocity": 127}, {"time": 2962, "pitch": 75, "duration": 1, "velocity": 102}, {"time": 2965, "pitch": 75, "duration": 1, "velocity": 127}, {"time": 2968, "pitch": 75, "duration": 1, "velocity": 127}, {"time": 2971, "pitch": 75, "duration": 1, "velocity": 127}, {"time": 2974, "pitch": 75, "duration": 4, "velocity": 127}, {"time": 2980, "pitch": 73, "duration": 4, "velocity": 127}, {"time": 2986, "pitch": 73, "duration": 1, "velocity": 107}, {"time": 2989, "pitch": 73, "duration": 1, "velocity": 102}, {"time": 2992, "pitch": 73, "duration": 1, "velocity": 122}, {"time": 2995, "pitch": 80, "duration": 2, "velocity": 127}, {"time": 2998, "pitch": 78, "duration": 4, "velocity": 117}, {"time": 3004, "pitch": 80, "duration": 4, "velocity": 127}, {"time": 3010, "pitch": 78, "duration": 1, "velocity": 127}, {"time": 3013, "pitch": 78, "duration": 1, "velocity": 117}, {"time": 3016, "pitch": 78, "duration": 1, "velocity": 127}, {"time": 3019, "pitch": 78, "duration": 4, "velocity": 127}, {"time": 3025, "pitch": 75, "duration": 1, "velocity": 127}, {"time": 3028, "pitch": 75, "duration": 2, "velocity": 127}, {"time": 3031, "pitch": 73, "duration": 3, "velocity": 127}, {"time": 3034, "pitch": 75, "duration": 3, "velocity": 112}, {"time": 3040, "pitch": 75, "duration": 7, "velocity": 127}, {"time": 3055, "pitch": 68, "duration": 8, "velocity": 127}, {"time": 3064, "pitch": 68, "duration": 1, "velocity": 23}, {"time": 3067, "pitch": 68, "duration": 1, "velocity": 127}, {"time": 3070, "pitch": 68, "duration": 1, "velocity": 127}, {"time": 3073, "pitch": 80, "duration": 3, "velocity": 127}, {"time": 3076, "pitch": 78, "duration": 7, "velocity": 127}, {"time": 3091, "pitch": 70, "duration": 2, "velocity": 127}, {"time": 3094, "pitch": 70, "duration": 3, "velocity": 127}, {"time": 3100, "pitch": 66, "duration": 3, "velocity": 107}, {"time": 3106, "pitch": 68, "duration": 9, "velocity": 127}]}, {"program": 0, "is_drum": false, "name": "PIANO", "notes": [{"time": 31, "pitch": 44, "duration": 31, "velocity": 73}, {"time": 37, "pitch": 51, "duration": 24, "velocity": 29}, {"time": 43, "pitch": 56, "duration": 17, "velocity": 42}, {"time": 43, "pitch": 59, "duration": 37, "velocity": 43}, {"time": 43, "pitch": 63, "duration": 36, "velocity": 45}, {"time": 79, "pitch": 40, "duration": 30, "velocity": 75}, {"time": 85, "pitch": 47, "duration": 24, "velocity": 51}, {"time": 91, "pitch": 52, "duration": 13, "velocity": 49}, {"time": 91, "pitch": 59, "duration": 33, "velocity": 56}, {"time": 91, "pitch": 64, "duration": 30, "velocity": 58}, {"time": 127, "pitch": 37, "duration": 40, "velocity": 73}, {"time": 133, "pitch": 44, "duration": 34, "velocity": 38}, {"time": 139, "pitch": 49, "duration": 25, "velocity": 45}, {"time": 139, "pitch": 56, "duration": 26, "velocity": 52}, {"time": 139, "pitch": 61, "duration": 36, "velocity": 69}, {"time": 139, "pitch": 64, "duration": 21, "velocity": 66}, {"time": 163, "pitch": 64, "duration": 12, "velocity": 66}, {"time": 166, "pitch": 49, "duration": 3, "velocity": 57}, {"time": 169, "pitch": 56, "duration": 6, "velocity": 60}, {"time": 175, "pitch": 39, "duration": 40, "velocity": 89}, {"time": 181, "pitch": 46, "duration": 34, "velocity": 38}, {"time": 187, "pitch": 55, "duration": 26, "velocity": 71}, {"time": 193, "pitch": 51, "duration": 19, "velocity": 38}, {"time": 199, "pitch": 58, "duration": 11, "velocity": 67}, {"time": 199, "pitch": 63, "duration": 10, "velocity": 77}, {"time": 211, "pitch": 63, "duration": 12, "velocity": 117}, {"time": 214, "pitch": 51, "duration": 3, "velocity": 93}, {"time": 217, "pitch": 55, "duration": 6, "velocity": 71}, {"time": 223, "pitch": 44, "duration": 22, "velocity": 95}, {"time": 226, "pitch": 51, "duration": 22, "velocity": 71}, {"time": 229, "pitch": 56, "duration": 7, "velocity": 89}, {"time": 232, "pitch": 59, "duration": 3, "velocity": 82}, {"time": 232, "pitch": 63, "duration": 11, "velocity": 83}, {"time": 238, "pitch": 56, "duration": 10, "velocity": 67}, {"time": 241, "pitch": 59, "duration": 11, "velocity": 71}, {"time": 244, "pitch": 63, "duration": 10, "velocity": 65}, {"time": 247, "pitch": 44, "duration": 17, "velocity": 50}, {"time": 250, "pitch": 51, "duration": 13, "velocity": 57}, {"time": 253, "pitch": 56, "duration": 6, "velocity": 83}, {"time": 256, "pitch": 63, "duration": 15, "velocity": 117}, {"time": 265, "pitch": 59, "duration": 6, "velocity": 53}, {"time": 271, "pitch": 40, "duration": 22, "velocity": 69}, {"time": 274, "pitch": 47, "duration": 22, "velocity": 46}, {"time": 277, "pitch": 52, "duration": 6, "velocity": 58}, {"time": 280, "pitch": 59, "duration": 22, "velocity": 88}, {"time": 289, "pitch": 56, "duration": 13, "velocity": 58}, {"time": 292, "pitch": 52, "duration": 4, "velocity": 41}, {"time": 295, "pitch": 40, "duration": 14, "velocity": 65}, {"time": 301, "pitch": 47, "duration": 8, "velocity": 45}, {"time": 307, "pitch": 59, "duration": 12, "velocity": 102}, {"time": 313, "pitch": 56, "duration": 6, "velocity": 74}, {"time": 319, "pitch": 37, "duration": 37, "velocity": 81}, {"time": 325, "pitch": 44, "duration": 30, "velocity": 60}, {"time": 331, "pitch": 56, "duration": 7, "velocity": 112}, {"time": 334, "pitch": 49, "duration": 12, "velocity": 39}, {"time": 337, "pitch": 52, "duration": 18, "velocity": 64}, {"time": 343, "pitch": 61, "duration": 25, "velocity": 93}, {"time": 349, "pitch": 49, "duration": 6, "velocity": 37}, {"time": 355, "pitch": 56, "duration": 13, "velocity": 95}, {"time": 361, "pitch": 52, "duration": 6, "velocity": 45}, {"time": 367, "pitch": 39, "duration": 49, "velocity": 66}, {"time": 373, "pitch": 46, "duration": 43, "velocity": 57}, {"time": 379, "pitch": 51, "duration": 38, "velocity": 90}, {"time": 382, "pitch": 55, "duration": 5, "velocity": 67}, {"time": 385, "pitch": 58, "duration": 31, "velocity": 65}, {"time": 388, "pitch": 55, "duration": 29, "velocity": 46}, {"time": 391, "pitch": 63, "duration": 26, "velocity": 93}, {"time": 415, "pitch": 44, "duration": 41, "velocity": 69}, {"time": 421, "pitch": 51, "duration": 10, "velocity": 41}, {"time": 427, "pitch": 56, "duration": 16, "velocity": 66}, {"time": 427, "pitch": 63, "duration": 6, "velocity": 75}, {"time": 433, "pitch": 51, "duration": 21, "velocity": 37}, {"time": 439, "pitch": 59, "duration": 14, "velocity": 66}, {"time": 439, "pitch": 63, "duration": 10, "velocity": 70}, {"time": 439, "pitch": 68, "duration": 7, "velocity": 68}, {"time": 445, "pitch": 56, "duration": 6, "velocity": 52}, {"time": 451, "pitch": 68, "duration": 12, "velocity": 102}, {"time": 457, "pitch": 63, "duration": 7, "velocity": 56}, {"time": 463, "pitch": 42, "duration": 13, "velocity": 76}, {"time": 469, "pitch": 49, "duration": 8, "velocity": 65}, {"time": 475, "pitch": 58, "duration": 12, "velocity": 71}, {"time": 475, "pitch": 63, "duration": 12, "velocity": 78}, {"time": 481, "pitch": 54, "duration": 5, "velocity": 53}, {"time": 487, "pitch": 44, "duration": 20, "velocity": 82}, {"time": 493, "pitch": 51, "duration": 19, "velocity": 58}, {"time": 499, "pitch": 63, "duration": 12, "velocity": 117}, {"time": 502, "pitch": 56, "duration": 3, "velocity": 69}, {"time": 505, "pitch": 61, "duration": 7, "velocity": 76}, {"time": 508, "pitch": 59, "duration": 4, "velocity": 44}, {"time": 511, "pitch": 44, "duration": 40, "velocity": 76}, {"time": 517, "pitch": 51, "duration": 34, "velocity": 65}, {"time": 523, "pitch": 56, "duration": 16, "velocity": 93}, {"time": 529, "pitch": 59, "duration": 21, "velocity": 68}, {"time": 535, "pitch": 63, "duration": 10, "velocity": 85}, {"time": 535, "pitch": 68, "duration": 7, "velocity": 92}, {"time": 541, "pitch": 56, "duration": 9, "velocity": 77}, {"time": 547, "pitch": 68, "duration": 11, "velocity": 100}, {"time": 553, "pitch": 63, "duration": 5, "velocity": 97}, {"time": 556, "pitch": 59, "duration": 3, "velocity": 66}, {"time": 559, "pitch": 42, "duration": 15, "velocity": 82}, {"time": 565, "pitch": 54, "duration": 6, "velocity": 72}, {"time": 571, "pitch": 58, "duration": 12, "velocity": 86}, {"time": 571, "pitch": 61, "duration": 12, "velocity": 90}, {"time": 577, "pitch": 54, "duration": 5, "velocity": 63}, {"time": 583, "pitch": 44, "duration": 22, "velocity": 92}, {"time": 589, "pitch": 51, "duration": 19, "velocity": 58}, {"time": 595, "pitch": 56, "duration": 6, "velocity": 56}, {"time": 595, "pitch": 63, "duration": 7, "velocity": 107}, {"time": 601, "pitch": 59, "duration": 7, "velocity": 78}, {"time": 604, "pitch": 63, "duration": 4, "velocity": 77}, {"time": 607, "pitch": 44, "duration": 23, "velocity": 90}, {"time": 613, "pitch": 51, "duration": 7, "velocity": 46}, {"time": 619, "pitch": 56, "duration": 23, "velocity": 74}, {"time": 619, "pitch": 59, "duration": 19, "velocity": 82}, {"time": 619, "pitch": 63, "duration": 17, "velocity": 99}, {"time": 625, "pitch": 51, "duration": 6, "velocity": 31}, {"time": 631, "pitch": 44, "duration": 14, "velocity": 81}, {"time": 637, "pitch": 51, "duration": 7, "velocity": 60}, {"time": 643, "pitch": 63, "duration": 12, "velocity": 102}, {"time": 643, "pitch": 68, "duration": 12, "velocity": 102}, {"time": 649, "pitch": 59, "duration": 6, "velocity": 75}, {"time": 655, "pitch": 42, "duration": 13, "velocity": 90}, {"time": 661, "pitch": 54, "duration": 6, "velocity": 82}, {"time": 667, "pitch": 58, "duration": 11, "velocity": 50}, {"time": 667, "pitch": 61, "duration": 12, "velocity": 86}, {"time": 673, "pitch": 54, "duration": 5, "velocity": 88}, {"time": 679, "pitch": 44, "duration": 21, "velocity": 96}, {"time": 685, "pitch": 51, "duration": 19, "velocity": 52}, {"time": 691, "pitch": 63, "duration": 7, "velocity": 69}, {"time": 691, "pitch": 68, "duration": 14, "velocity": 107}, {"time": 694, "pitch": 56, "duration": 4, "velocity": 81}, {"time": 697, "pitch": 59, "duration": 8, "velocity": 79}, {"time": 700, "pitch": 63, "duration": 4, "velocity": 77}, {"time": 703, "pitch": 44, "duration": 22, "velocity": 92}, {"time": 709, "pitch": 51, "duration": 10, "velocity": 64}, {"time": 715, "pitch": 56, "duration": 25, "velocity": 78}, {"time": 715, "pitch": 68, "duration": 20, "velocity": 99}, {"time": 721, "pitch": 51, "duration": 6, "velocity": 63}, {"time": 727, "pitch": 44, "duration": 17, "velocity": 90}, {"time": 733, "pitch": 51, "duration": 10, "velocity": 69}, {"time": 739, "pitch": 63, "duration": 11, "velocity": 100}, {"time": 739, "pitch": 68, "duration": 10, "velocity": 99}, {"time": 742, "pitch": 56, "duration": 2, "velocity": 68}, {"time": 745, "pitch": 59, "duration": 6, "velocity": 77}, {"time": 751, "pitch": 42, "duration": 13, "velocity": 95}, {"time": 757, "pitch": 54, "duration": 7, "velocity": 92}, {"time": 763, "pitch": 58, "duration": 11, "velocity": 107}, {"time": 763, "pitch": 61, "duration": 11, "velocity": 96}, {"time": 769, "pitch": 54, "duration": 5, "velocity": 81}, {"time": 775, "pitch": 44, "duration": 19, "velocity": 93}, {"time": 778, "pitch": 51, "duration": 15, "velocity": 75}, {"time": 781, "pitch": 56, "duration": 7, "velocity": 127}, {"time": 784, "pitch": 59, "duration": 8, "velocity": 102}, {"time": 787, "pitch": 68, "duration": 12, "velocity": 127}, {"time": 790, "pitch": 56, "duration": 3, "velocity": 58}, {"time": 793, "pitch": 63, "duration": 6, "velocity": 95}, {"time": 796, "pitch": 59, "duration": 3, "velocity": 85}, {"time": 799, "pitch": 47, "duration": 16, "velocity": 85}, {"time": 805, "pitch": 54, "duration": 9, "velocity": 92}, {"time": 811, "pitch": 66, "duration": 12, "velocity": 122}, {"time": 817, "pitch": 63, "duration": 5, "velocity": 96}, {"time": 820, "pitch": 59, "duration": 1, "velocity": 75}, {"time": 823, "pitch": 37, "duration": 17, "velocity": 93}, {"time": 829, "pitch": 44, "duration": 7, "velocity": 35}, {"time": 835, "pitch": 49, "duration": 6, "velocity": 75}, {"time": 835, "pitch": 56, "duration": 8, "velocity": 90}, {"time": 835, "pitch": 61, "duration": 12, "velocity": 100}, {"time": 841, "pitch": 52, "duration": 5, "velocity": 76}, {"time": 844, "pitch": 56, "duration": 3, "velocity": 63}, {"time": 847, "pitch": 42, "duration": 17, "velocity": 102}, {"time": 853, "pitch": 49, "duration": 7, "velocity": 35}, {"time": 859, "pitch": 58, "duration": 12, "velocity": 99}, {"time": 859, "pitch": 61, "duration": 12, "velocity": 88}, {"time": 862, "pitch": 49, "duration": 2, "velocity": 69}, {"time": 865, "pitch": 54, "duration": 6, "velocity": 95}, {"time": 871, "pitch": 44, "duration": 17, "velocity": 92}, {"time": 877, "pitch": 51, "duration": 10, "velocity": 69}, {"time": 883, "pitch": 63, "duration": 7, "velocity": 127}, {"time": 886, "pitch": 56, "duration": 1, "velocity": 88}, {"time": 889, "pitch": 59, "duration": 6, "velocity": 95}, {"time": 892, "pitch": 63, "duration": 3, "velocity": 102}, {"time": 895, "pitch": 40, "duration": 18, "velocity": 89}, {"time": 898, "pitch": 47, "duration": 16, "velocity": 93}, {"time": 901, "pitch": 52, "duration": 8, "velocity": 93}, {"time": 904, "pitch": 59, "duration": 4, "velocity": 92}, {"time": 907, "pitch": 64, "duration": 7, "velocity": 112}, {"time": 910, "pitch": 52, "duration": 3, "velocity": 92}, {"time": 913, "pitch": 59, "duration": 6, "velocity": 96}, {"time": 916, "pitch": 64, "duration": 3, "velocity": 90}, {"time": 919, "pitch": 39, "duration": 19, "velocity": 88}, {"time": 922, "pitch": 46, "duration": 16, "velocity": 63}, {"time": 925, "pitch": 51, "duration": 7, "velocity": 90}, {"time": 928, "pitch": 54, "duration": 4, "velocity": 88}, {"time": 931, "pitch": 58, "duration": 5, "velocity": 122}, {"time": 934, "pitch": 51, "duration": 4, "velocity": 99}, {"time": 937, "pitch": 58, "duration": 5, "velocity": 39}, {"time": 937, "pitch": 63, "duration": 6, "velocity": 122}, {"time": 940, "pitch": 54, "duration": 3, "velocity": 100}, {"time": 943, "pitch": 44, "duration": 21, "velocity": 86}, {"time": 946, "pitch": 51, "duration": 20, "velocity": 35}, {"time": 949, "pitch": 56, "duration": 6, "velocity": 107}, {"time": 952, "pitch": 59, "duration": 4, "velocity": 90}, {"time": 955, "pitch": 63, "duration": 6, "velocity": 122}, {"time": 958, "pitch": 56, "duration": 4, "velocity": 102}, {"time": 961, "pitch": 59, "duration": 5, "velocity": 95}, {"time": 964, "pitch": 68, "duration": 2, "velocity": 102}, {"time": 967, "pitch": 44, "duration": 4, "velocity": 127}, {"time": 967, "pitch": 56, "duration": 4, "velocity": 112}, {"time": 967, "pitch": 59, "duration": 4, "velocity": 102}, {"time": 967, "pitch": 63, "duration": 4, "velocity": 99}, {"time": 991, "pitch": 44, "duration": 16, "velocity": 107}, {"time": 994, "pitch": 51, "duration": 13, "velocity": 67}, {"time": 997, "pitch": 56, "duration": 8, "velocity": 100}, {"time": 1000, "pitch": 59, "duration": 6, "velocity": 96}, {"time": 1003, "pitch": 68, "duration": 11, "velocity": 127}, {"time": 1006, "pitch": 56, "duration": 1, "velocity": 112}, {"time": 1009, "pitch": 63, "duration": 7, "velocity": 127}, {"time": 1012, "pitch": 59, "duration": 3, "velocity": 102}, {"time": 1015, "pitch": 42, "duration": 19, "velocity": 86}, {"time": 1018, "pitch": 49, "duration": 16, "velocity": 99}, {"time": 1021, "pitch": 54, "duration": 7, "velocity": 96}, {"time": 1024, "pitch": 58, "duration": 5, "velocity": 99}, {"time": 1027, "pitch": 68, "duration": 12, "velocity": 122}, {"time": 1030, "pitch": 54, "duration": 3, "velocity": 90}, {"time": 1033, "pitch": 61, "duration": 2, "velocity": 112}, {"time": 1036, "pitch": 58, "duration": 4, "velocity": 107}, {"time": 1039, "pitch": 37, "duration": 16, "velocity": 97}, {"time": 1042, "pitch": 44, "duration": 14, "velocity": 97}, {"time": 1045, "pitch": 49, "duration": 7, "velocity": 95}, {"time": 1048, "pitch": 52, "duration": 9, "velocity": 78}, {"time": 1051, "pitch": 61, "duration": 12, "velocity": 127}, {"time": 1054, "pitch": 49, "duration": 4, "velocity": 100}, {"time": 1057, "pitch": 56, "duration": 6, "velocity": 107}, {"time": 1060, "pitch": 52, "duration": 3, "velocity": 102}, {"time": 1063, "pitch": 44, "duration": 17, "velocity": 82}, {"time": 1066, "pitch": 51, "duration": 14, "velocity": 99}, {"time": 1069, "pitch": 56, "duration": 7, "velocity": 97}, {"time": 1072, "pitch": 59, "duration": 3, "velocity": 95}, {"time": 1075, "pitch": 63, "duration": 7, "velocity": 112}, {"time": 1075, "pitch": 68, "duration": 12, "velocity": 127}, {"time": 1078, "pitch": 56, "duration": 1, "velocity": 107}, {"time": 1081, "pitch": 59, "duration": 7, "velocity": 99}, {"time": 1084, "pitch": 63, "duration": 3, "velocity": 127}, {"time": 1087, "pitch": 40, "duration": 18, "velocity": 81}, {"time": 1090, "pitch": 47, "duration": 15, "velocity": 96}, {"time": 1093, "pitch": 52, "duration": 7, "velocity": 95}, {"time": 1096, "pitch": 59, "duration": 4, "velocity": 81}, {"time": 1099, "pitch": 64, "duration": 6, "velocity": 88}, {"time": 1099, "pitch": 68, "duration": 13, "velocity": 99}, {"time": 1102, "pitch": 52, "duration": 2, "velocity": 96}, {"time": 1105, "pitch": 59, "duration": 6, "velocity": 97}, {"time": 1108, "pitch": 64, "duration": 4, "velocity": 92}, {"time": 1111, "pitch": 42, "duration": 16, "velocity": 81}, {"time": 1114, "pitch": 49, "duration": 13, "velocity": 77}, {"time": 1117, "pitch": 54, "duration": 7, "velocity": 95}, {"time": 1120, "pitch": 58, "duration": 3, "velocity": 90}, {"time": 1123, "pitch": 61, "duration": 6, "velocity": 117}, {"time": 1123, "pitch": 66, "duration": 12, "velocity": 112}, {"time": 1126, "pitch": 54, "duration": 3, "velocity": 95}, {"time": 1129, "pitch": 58, "duration": 4, "velocity": 107}, {"time": 1132, "pitch": 61, "duration": 3, "velocity": 127}, {"time": 1135, "pitch": 47, "duration": 16, "velocity": 90}, {"time": 1138, "pitch": 54, "duration": 10, "velocity": 95}, {"time": 1141, "pitch": 59, "duration": 3, "velocity": 97}, {"time": 1144, "pitch": 63, "duration": 4, "velocity": 127}, {"time": 1147, "pitch": 66, "duration": 12, "velocity": 117}, {"time": 1150, "pitch": 54, "duration": 1, "velocity": 99}, {"time": 1153, "pitch": 63, "duration": 5, "velocity": 127}, {"time": 1156, "pitch": 59, "duration": 3, "velocity": 100}, {"time": 1159, "pitch": 39, "duration": 18, "velocity": 90}, {"time": 1162, "pitch": 46, "duration": 15, "velocity": 99}, {"time": 1165, "pitch": 51, "duration": 7, "velocity": 102}, {"time": 1168, "pitch": 55, "duration": 2, "velocity": 81}, {"time": 1171, "pitch": 58, "duration": 6, "velocity": 127}, {"time": 1171, "pitch": 63, "duration": 12, "velocity": 127}, {"time": 1174, "pitch": 51, "duration": 4, "velocity": 127}, {"time": 1177, "pitch": 55, "duration": 4, "velocity": 117}, {"time": 1180, "pitch": 58, "duration": 3, "velocity": 127}, {"time": 1183, "pitch": 44, "duration": 19, "velocity": 100}, {"time": 1186, "pitch": 51, "duration": 15, "velocity": 97}, {"time": 1189, "pitch": 56, "duration": 7, "velocity": 107}, {"time": 1192, "pitch": 59, "duration": 3, "velocity": 96}, {"time": 1195, "pitch": 63, "duration": 6, "velocity": 107}, {"time": 1195, "pitch": 68, "duration": 12, "velocity": 127}, {"time": 1198, "pitch": 56, "duration": 2, "velocity": 117}, {"time": 1201, "pitch": 59, "duration": 4, "velocity": 112}, {"time": 1204, "pitch": 63, "duration": 3, "velocity": 127}, {"time": 1207, "pitch": 42, "duration": 18, "velocity": 92}, {"time": 1210, "pitch": 49, "duration": 15, "velocity": 85}, {"time": 1213, "pitch": 54, "duration": 7, "velocity": 99}, {"time": 1216, "pitch": 58, "duration": 3, "velocity": 100}, {"time": 1219, "pitch": 61, "duration": 5, "velocity": 100}, {"time": 1219, "pitch": 66, "duration": 12, "velocity": 117}, {"time": 1222, "pitch": 54, "duration": 2, "velocity": 99}, {"time": 1225, "pitch": 58, "duration": 4, "velocity": 117}, {"time": 1228, "pitch": 61, "duration": 3, "velocity": 102}, {"time": 1231, "pitch": 39, "duration": 18, "velocity": 86}, {"time": 1234, "pitch": 46, "duration": 15, "velocity": 47}, {"time": 1237, "pitch": 51, "duration": 8, "velocity": 90}, {"time": 1240, "pitch": 58, "duration": 4, "velocity": 92}, {"time": 1243, "pitch": 63, "duration": 6, "velocity": 95}, {"time": 1243, "pitch": 66, "duration": 12, "velocity": 102}, {"time": 1246, "pitch": 51, "duration": 4, "velocity": 102}, {"time": 1249, "pitch": 58, "duration": 3, "velocity": 102}, {"time": 1252, "pitch": 63, "duration": 4, "velocity": 122}, {"time": 1255, "pitch": 44, "duration": 17, "velocity": 85}, {"time": 1258, "pitch": 51, "duration": 13, "velocity": 93}, {"time": 1261, "pitch": 56, "duration": 7, "velocity": 90}, {"time": 1264, "pitch": 59, "duration": 3, "velocity": 96}, {"time": 1267, "pitch": 63, "duration": 7, "velocity": 72}, {"time": 1267, "pitch": 68, "duration": 13, "velocity": 117}, {"time": 1270, "pitch": 56, "duration": 1, "velocity": 100}, {"time": 1273, "pitch": 59, "duration": 6, "velocity": 102}, {"time": 1276, "pitch": 63, "duration": 4, "velocity": 127}, {"time": 1279, "pitch": 40, "duration": 17, "velocity": 89}, {"time": 1282, "pitch": 47, "duration": 15, "velocity": 102}, {"time": 1285, "pitch": 52, "duration": 7, "velocity": 99}, {"time": 1288, "pitch": 59, "duration": 4, "velocity": 88}, {"time": 1291, "pitch": 64, "duration": 6, "velocity": 95}, {"time": 1291, "pitch": 68, "duration": 12, "velocity": 127}, {"time": 1294, "pitch": 52, "duration": 2, "velocity": 100}, {"time": 1297, "pitch": 59, "duration": 6, "velocity": 96}, {"time": 1300, "pitch": 64, "duration": 3, "velocity": 95}, {"time": 1303, "pitch": 42, "duration": 16, "velocity": 95}, {"time": 1306, "pitch": 49, "duration": 13, "velocity": 89}, {"time": 1309, "pitch": 54, "duration": 7, "velocity": 102}, {"time": 1312, "pitch": 58, "duration": 4, "velocity": 90}, {"time": 1315, "pitch": 66, "duration": 11, "velocity": 127}, {"time": 1318, "pitch": 54, "duration": 2, "velocity": 102}, {"time": 1321, "pitch": 58, "duration": 4, "velocity": 112}, {"time": 1324, "pitch": 61, "duration": 3, "velocity": 107}, {"time": 1327, "pitch": 44, "duration": 19, "velocity": 99}, {"time": 1330, "pitch": 51, "duration": 20, "velocity": 65}, {"time": 1333, "pitch": 56, "duration": 7, "velocity": 112}, {"time": 1336, "pitch": 59, "duration": 8, "velocity": 99}, {"time": 1339, "pitch": 68, "duration": 9, "velocity": 127}, {"time": 1342, "pitch": 56, "duration": 7, "velocity": 99}, {"time": 1345, "pitch": 63, "duration": 4, "velocity": 100}, {"time": 1348, "pitch": 59, "duration": 27, "velocity": 85}, {"time": 1351, "pitch": 44, "duration": 24, "velocity": 65}, {"time": 1351, "pitch": 51, "duration": 24, "velocity": 72}, {"time": 1351, "pitch": 56, "duration": 24, "velocity": 85}, {"time": 1351, "pitch": 63, "duration": 23, "velocity": 92}, {"time": 1351, "pitch": 68, "duration": 24, "velocity": 90}, {"time": 1375, "pitch": 44, "duration": 1, "velocity": 122}, {"time": 1378, "pitch": 71, "duration": 1, "velocity": 96}, {"time": 1378, "pitch": 75, "duration": 1, "velocity": 96}, {"time": 1379, "pitch": 71, "duration": 1, "velocity": 96}, {"time": 1379, "pitch": 75, "duration": 1, "velocity": 96}, {"time": 1381, "pitch": 71, "duration": 1, "velocity": 96}, {"time": 1381, "pitch": 75, "duration": 1, "velocity": 96}, {"time": 1384, "pitch": 42, "duration": 8, "velocity": 122}, {"time": 1387, "pitch": 70, "duration": 1, "velocity": 96}, {"time": 1387, "pitch": 75, "duration": 1, "velocity": 96}, {"time": 1390, "pitch": 70, "duration": 1, "velocity": 96}, {"time": 1390, "pitch": 75, "duration": 1, "velocity": 96}, {"time": 1393, "pitch": 44, "duration": 9, "velocity": 127}, {"time": 1396, "pitch": 71, "duration": 1, "velocity": 96}, {"time": 1396, "pitch": 75, "duration": 1, "velocity": 96}, {"time": 1399, "pitch": 71, "duration": 1, "velocity": 96}, {"time": 1399, "pitch": 75, "duration": 1, "velocity": 96}, {"time": 1402, "pitch": 44, "duration": 8, "velocity": 127}, {"time": 1405, "pitch": 71, "duration": 1, "velocity": 96}, {"time": 1405, "pitch": 75, "duration": 1, "velocity": 96}, {"time": 1408, "pitch": 71, "duration": 1, "velocity": 96}, {"time": 1408, "pitch": 75, "duration": 1, "velocity": 96}, {"time": 1411, "pitch": 40, "duration": 6, "velocity": 100}, {"time": 1414, "pitch": 71, "duration": 1, "velocity": 96}, {"time": 1414, "pitch": 75, "duration": 1, "velocity": 96}, {"time": 1417, "pitch": 42, "duration": 3, "velocity": 127}, {"time": 1420, "pitch": 71, "duration": 1, "velocity": 96}, {"time": 1420, "pitch": 75, "duration": 1, "velocity": 96}, {"time": 1423, "pitch": 44, "duration": 5, "velocity": 127}, {"time": 1426, "pitch": 71, "duration": 1, "velocity": 96}, {"time": 1426, "pitch": 75, "duration": 1, "velocity": 96}, {"time": 1427, "pitch": 71, "duration": 1, "velocity": 96}, {"time": 1427, "pitch": 75, "duration": 1, "velocity": 96}, {"time": 1429, "pitch": 71, "duration": 1, "velocity": 96}, {"time": 1429, "pitch": 75, "duration": 1, "velocity": 96}, {"time": 1432, "pitch": 42, "duration": 6, "velocity": 127}, {"time": 1435, "pitch": 70, "duration": 1, "velocity": 96}, {"time": 1435, "pitch": 75, "duration": 1, "velocity": 96}, {"time": 1438, "pitch": 70, "duration": 1, "velocity": 96}, {"time": 1438, "pitch": 75, "duration": 1, "velocity": 96}, {"time": 1441, "pitch": 44, "duration": 9, "velocity": 127}, {"time": 1444, "pitch": 71, "duration": 1, "velocity": 96}, {"time": 1444, "pitch": 75, "duration": 1, "velocity": 96}, {"time": 1447, "pitch": 71, "duration": 1, "velocity": 96}, {"time": 1447, "pitch": 75, "duration": 1, "velocity": 96}, {"time": 1450, "pitch": 44, "duration": 6, "velocity": 127}, {"time": 1453, "pitch": 71, "duration": 1, "velocity": 96}, {"time": 1453, "pitch": 75, "duration": 1, "velocity": 96}, {"time": 1456, "pitch": 71, "duration": 1, "velocity": 96}, {"time": 1456, "pitch": 75, "duration": 1, "velocity": 96}, {"time": 1459, "pitch": 40, "duration": 5, "velocity": 122}, {"time": 1462, "pitch": 71, "duration": 1, "velocity": 96}, {"time": 1462, "pitch": 75, "duration": 1, "velocity": 96}, {"time": 1465, "pitch": 42, "duration": 4, "velocity": 127}, {"time": 1468, "pitch": 71, "duration": 1, "velocity": 96}, {"time": 1468, "pitch": 75, "duration": 1, "velocity": 96}, {"time": 1471, "pitch": 44, "duration": 6, "velocity": 127}, {"time": 1474, "pitch": 71, "duration": 1, "velocity": 96}, {"time": 1474, "pitch": 75, "duration": 1, "velocity": 96}, {"time": 1475, "pitch": 71, "duration": 1, "velocity": 96}, {"time": 1475, "pitch": 75, "duration": 1, "velocity": 96}, {"time": 1477, "pitch": 71, "duration": 1, "velocity": 96}, {"time": 1477, "pitch": 75, "duration": 1, "velocity": 96}, {"time": 1480, "pitch": 42, "duration": 6, "velocity": 127}, {"time": 1483, "pitch": 70, "duration": 1, "velocity": 96}, {"time": 1483, "pitch": 75, "duration": 1, "velocity": 96}, {"time": 1486, "pitch": 70, "duration": 1, "velocity": 96}, {"time": 1486, "pitch": 75, "duration": 1, "velocity": 96}, {"time": 1489, "pitch": 44, "duration": 7, "velocity": 127}, {"time": 1492, "pitch": 71, "duration": 1, "velocity": 96}, {"time": 1492, "pitch": 75, "duration": 1, "velocity": 96}, {"time": 1495, "pitch": 71, "duration": 1, "velocity": 96}, {"time": 1495, "pitch": 75, "duration": 1, "velocity": 96}, {"time": 1498, "pitch": 44, "duration": 6, "velocity": 127}, {"time": 1501, "pitch": 71, "duration": 1, "velocity": 97}, {"time": 1501, "pitch": 75, "duration": 1, "velocity": 97}, {"time": 1504, "pitch": 71, "duration": 1, "velocity": 97}, {"time": 1504, "pitch": 75, "duration": 1, "velocity": 97}, {"time": 1507, "pitch": 40, "duration": 4, "velocity": 112}, {"time": 1510, "pitch": 71, "duration": 1, "velocity": 97}, {"time": 1510, "pitch": 75, "duration": 1, "velocity": 97}, {"time": 1513, "pitch": 42, "duration": 5, "velocity": 127}, {"time": 1516, "pitch": 71, "duration": 1, "velocity": 97}, {"time": 1516, "pitch": 75, "duration": 1, "velocity": 97}, {"time": 1519, "pitch": 44, "duration": 7, "velocity": 127}, {"time": 1522, "pitch": 71, "duration": 1, "velocity": 97}, {"time": 1522, "pitch": 75, "duration": 1, "velocity": 97}, {"time": 1523, "pitch": 71, "duration": 1, "velocity": 97}, {"time": 1523, "pitch": 75, "duration": 1, "velocity": 97}, {"time": 1525, "pitch": 71, "duration": 1, "velocity": 97}, {"time": 1525, "pitch": 75, "duration": 1, "velocity": 97}, {"time": 1528, "pitch": 42, "duration": 5, "velocity": 127}, {"time": 1531, "pitch": 70, "duration": 1, "velocity": 97}, {"time": 1531, "pitch": 75, "duration": 1, "velocity": 97}, {"time": 1534, "pitch": 70, "duration": 1, "velocity": 97}, {"time": 1534, "pitch": 75, "duration": 1, "velocity": 97}, {"time": 1537, "pitch": 44, "duration": 7, "velocity": 127}, {"time": 1540, "pitch": 71, "duration": 1, "velocity": 97}, {"time": 1540, "pitch": 75, "duration": 1, "velocity": 97}, {"time": 1543, "pitch": 71, "duration": 1, "velocity": 97}, {"time": 1543, "pitch": 75, "duration": 1, "velocity": 97}, {"time": 1546, "pitch": 44, "duration": 6, "velocity": 127}, {"time": 1549, "pitch": 71, "duration": 1, "velocity": 97}, {"time": 1549, "pitch": 75, "duration": 1, "velocity": 97}, {"time": 1552, "pitch": 71, "duration": 1, "velocity": 97}, {"time": 1552, "pitch": 75, "duration": 1, "velocity": 97}, {"time": 1555, "pitch": 40, "duration": 4, "velocity": 112}, {"time": 1558, "pitch": 71, "duration": 1, "velocity": 97}, {"time": 1558, "pitch": 75, "duration": 1, "velocity": 97}, {"time": 1561, "pitch": 42, "duration": 4, "velocity": 127}, {"time": 1564, "pitch": 71, "duration": 1, "velocity": 98}, {"time": 1564, "pitch": 75, "duration": 1, "velocity": 98}, {"time": 1567, "pitch": 44, "duration": 6, "velocity": 127}, {"time": 1570, "pitch": 71, "duration": 1, "velocity": 98}, {"time": 1570, "pitch": 75, "duration": 1, "velocity": 98}, {"time": 1571, "pitch": 71, "duration": 1, "velocity": 98}, {"time": 1571, "pitch": 75, "duration": 1, "velocity": 98}, {"time": 1573, "pitch": 71, "duration": 1, "velocity": 98}, {"time": 1573, "pitch": 75, "duration": 1, "velocity": 98}, {"time": 1576, "pitch": 42, "duration": 5, "velocity": 127}, {"time": 1579, "pitch": 70, "duration": 1, "velocity": 98}, {"time": 1579, "pitch": 75, "duration": 1, "velocity": 98}, {"time": 1582, "pitch": 42, "duration": 2, "velocity": 107}, {"time": 1582, "pitch": 70, "duration": 1, "velocity": 98}, {"time": 1582, "pitch": 75, "duration": 1, "velocity": 98}, {"time": 1585, "pitch": 42, "duration": 2, "velocity": 122}, {"time": 1588, "pitch": 40, "duration": 5, "velocity": 122}, {"time": 1588, "pitch": 71, "duration": 1, "velocity": 98}, {"time": 1588, "pitch": 75, "duration": 1, "velocity": 98}, {"time": 1591, "pitch": 71, "duration": 1, "velocity": 98}, {"time": 1591, "pitch": 75, "duration": 1, "velocity": 98}, {"time": 1594, "pitch": 40, "duration": 1, "velocity": 93}, {"time": 1597, "pitch": 40, "duration": 2, "velocity": 97}, {"time": 1597, "pitch": 71, "duration": 1, "velocity": 98}, {"time": 1597, "pitch": 75, "duration": 1, "velocity": 98}, {"time": 1600, "pitch": 39, "duration": 2, "velocity": 127}, {"time": 1600, "pitch": 71, "duration": 1, "velocity": 98}, {"time": 1600, "pitch": 75, "duration": 1, "velocity": 98}, {"time": 1603, "pitch": 39, "duration": 2, "velocity": 107}, {"time": 1606, "pitch": 39, "duration": 2, "velocity": 100}, {"time": 1606, "pitch": 71, "duration": 1, "velocity": 98}, {"time": 1606, "pitch": 75, "duration": 1, "velocity": 98}, {"time": 1609, "pitch": 37, "duration": 3, "velocity": 127}, {"time": 1612, "pitch": 71, "duration": 1, "velocity": 98}, {"time": 1612, "pitch": 75, "duration": 1, "velocity": 98}, {"time": 1615, "pitch": 39, "duration": 4, "velocity": 122}, {"time": 1618, "pitch": 71, "duration": 1, "velocity": 98}, {"time": 1618, "pitch": 75, "duration": 1, "velocity": 98}, {"time": 1619, "pitch": 71, "duration": 1, "velocity": 98}, {"time": 1619, "pitch": 75, "duration": 1, "velocity": 98}, {"time": 1621, "pitch": 44, "duration": 1, "velocity": 127}, {"time": 1621, "pitch": 71, "duration": 1, "velocity": 98}, {"time": 1621, "pitch": 75, "duration": 1, "velocity": 98}, {"time": 1624, "pitch": 44, "duration": 1, "velocity": 117}, {"time": 1627, "pitch": 44, "duration": 1, "velocity": 127}, {"time": 1627, "pitch": 70, "duration": 1, "velocity": 98}, {"time": 1627, "pitch": 75, "duration": 1, "velocity": 98}, {"time": 1630, "pitch": 42, "duration": 2, "velocity": 127}, {"time": 1630, "pitch": 70, "duration": 1, "velocity": 98}, {"time": 1630, "pitch": 75, "duration": 1, "velocity": 98}, {"time": 1633, "pitch": 42, "duration": 1, "velocity": 127}, {"time": 1636, "pitch": 42, "duration": 1, "velocity": 127}, {"time": 1636, "pitch": 71, "duration": 1, "velocity": 98}, {"time": 1636, "pitch": 75, "duration": 1, "velocity": 98}, {"time": 1639, "pitch": 42, "duration": 1, "velocity": 127}, {"time": 1639, "pitch": 71, "duration": 1, "velocity": 98}, {"time": 1639, "pitch": 75, "duration": 1, "velocity": 98}, {"time": 1642, "pitch": 40, "duration": 2, "velocity": 99}, {"time": 1645, "pitch": 40, "duration": 1, "velocity": 95}, {"time": 1645, "pitch": 71, "duration": 1, "velocity": 98}, {"time": 1645, "pitch": 75, "duration": 1, "velocity": 98}, {"time": 1648, "pitch": 40, "duration": 1, "velocity": 127}, {"time": 1648, "pitch": 71, "duration": 1, "velocity": 98}, {"time": 1648, "pitch": 75, "duration": 1, "velocity": 98}, {"time": 1651, "pitch": 40, "duration": 1, "velocity": 117}, {"time": 1654, "pitch": 39, "duration": 3, "velocity": 127}, {"time": 1654, "pitch": 71, "duration": 1, "velocity": 98}, {"time": 1654, "pitch": 75, "duration": 1, "velocity": 98}, {"time": 1660, "pitch": 71, "duration": 1, "velocity": 98}, {"time": 1660, "pitch": 75, "duration": 1, "velocity": 98}, {"time": 1663, "pitch": 37, "duration": 3, "velocity": 127}, {"time": 1666, "pitch": 71, "duration": 1, "velocity": 98}, {"time": 1666, "pitch": 75, "duration": 1, "velocity": 98}, {"time": 1667, "pitch": 71, "duration": 1, "velocity": 98}, {"time": 1667, "pitch": 75, "duration": 1, "velocity": 98}, {"time": 1669, "pitch": 39, "duration": 4, "velocity": 127}, {"time": 1669, "pitch": 71, "duration": 1, "velocity": 98}, {"time": 1669, "pitch": 75, "duration": 1, "velocity": 98}, {"time": 1675, "pitch": 32, "duration": 4, "velocity": 127}, {"time": 1675, "pitch": 44, "duration": 4, "velocity": 127}, {"time": 1675, "pitch": 70, "duration": 1, "velocity": 98}, {"time": 1675, "pitch": 75, "duration": 1, "velocity": 98}, {"time": 1678, "pitch": 70, "duration": 1, "velocity": 98}, {"time": 1678, "pitch": 75, "duration": 1, "velocity": 98}, {"time": 1684, "pitch": 36, "duration": 5, "velocity": 127}, {"time": 1684, "pitch": 48, "duration": 5, "velocity": 127}, {"time": 1684, "pitch": 71, "duration": 1, "velocity": 98}, {"time": 1684, "pitch": 75, "duration": 1, "velocity": 98}, {"time": 1687, "pitch": 71, "duration": 1, "velocity": 98}, {"time": 1687, "pitch": 75, "duration": 1, "velocity": 98}, {"time": 1693, "pitch": 36, "duration": 6, "velocity": 122}, {"time": 1693, "pitch": 48, "duration": 6, "velocity": 122}, {"time": 1693, "pitch": 71, "duration": 1, "velocity": 98}, {"time": 1693, "pitch": 75, "duration": 1, "velocity": 98}, {"time": 1696, "pitch": 71, "duration": 1, "velocity": 98}, {"time": 1696, "pitch": 75, "duration": 1, "velocity": 98}, {"time": 1702, "pitch": 42, "duration": 5, "velocity": 127}, {"time": 1702, "pitch": 54, "duration": 5, "velocity": 127}, {"time": 1702, "pitch": 71, "duration": 1, "velocity": 98}, {"time": 1702, "pitch": 75, "duration": 1, "velocity": 98}, {"time": 1708, "pitch": 71, "duration": 1, "velocity": 98}, {"time": 1708, "pitch": 75, "duration": 1, "velocity": 98}, {"time": 1711, "pitch": 45, "duration": 8, "velocity": 127}, {"time": 1711, "pitch": 57, "duration": 8, "velocity": 127}, {"time": 1714, "pitch": 71, "duration": 1, "velocity": 98}, {"time": 1714, "pitch": 75, "duration": 1, "velocity": 98}, {"time": 1715, "pitch": 71, "duration": 1, "velocity": 98}, {"time": 1715, "pitch": 75, "duration": 1, "velocity": 98}, {"time": 1717, "pitch": 71, "duration": 1, "velocity": 98}, {"time": 1717, "pitch": 75, "duration": 1, "velocity": 98}, {"time": 1720, "pitch": 48, "duration": 7, "velocity": 127}, {"time": 1720, "pitch": 60, "duration": 7, "velocity": 127}, {"time": 1723, "pitch": 70, "duration": 1, "velocity": 98}, {"time": 1723, "pitch": 75, "duration": 1, "velocity": 98}, {"time": 1726, "pitch": 70, "duration": 1, "velocity": 98}, {"time": 1726, "pitch": 75, "duration": 1, "velocity": 98}, {"time": 1729, "pitch": 51, "duration": 7, "velocity": 127}, {"time": 1729, "pitch": 63, "duration": 7, "velocity": 127}, {"time": 1732, "pitch": 71, "duration": 1, "velocity": 98}, {"time": 1732, "pitch": 75, "duration": 1, "velocity": 98}, {"time": 1735, "pitch": 54, "duration": 6, "velocity": 127}, {"time": 1735, "pitch": 66, "duration": 6, "velocity": 127}, {"time": 1735, "pitch": 71, "duration": 1, "velocity": 99}, {"time": 1735, "pitch": 75, "duration": 1, "velocity": 99}, {"time": 1741, "pitch": 56, "duration": 9, "velocity": 127}, {"time": 1741, "pitch": 68, "duration": 9, "velocity": 127}, {"time": 1759, "pitch": 32, "duration": 19, "velocity": 102}, {"time": 1759, "pitch": 44, "duration": 19, "velocity": 102}, {"time": 1759, "pitch": 56, "duration": 20, "velocity": 92}, {"time": 1807, "pitch": 44, "duration": 41, "velocity": 69}, {"time": 1813, "pitch": 51, "duration": 10, "velocity": 41}, {"time": 1819, "pitch": 56, "duration": 16, "velocity": 66}, {"time": 1819, "pitch": 63, "duration": 6, "velocity": 75}, {"time": 1825, "pitch": 51, "duration": 21, "velocity": 37}, {"time": 1831, "pitch": 59, "duration": 14, "velocity": 66}, {"time": 1831, "pitch": 63, "duration": 10, "velocity": 70}, {"time": 1831, "pitch": 68, "duration": 7, "velocity": 68}, {"time": 1837, "pitch": 56, "duration": 6, "velocity": 52}, {"time": 1843, "pitch": 68, "duration": 12, "velocity": 102}, {"time": 1849, "pitch": 63, "duration": 7, "velocity": 56}, {"time": 1855, "pitch": 42, "duration": 13, "velocity": 76}, {"time": 1861, "pitch": 49, "duration": 8, "velocity": 65}, {"time": 1867, "pitch": 58, "duration": 12, "velocity": 71}, {"time": 1867, "pitch": 63, "duration": 12, "velocity": 78}, {"time": 1873, "pitch": 54, "duration": 5, "velocity": 53}, {"time": 1879, "pitch": 44, "duration": 20, "velocity": 82}, {"time": 1885, "pitch": 51, "duration": 19, "velocity": 58}, {"time": 1891, "pitch": 63, "duration": 12, "velocity": 117}, {"time": 1894, "pitch": 56, "duration": 3, "velocity": 69}, {"time": 1897, "pitch": 61, "duration": 7, "velocity": 76}, {"time": 1900, "pitch": 59, "duration": 4, "velocity": 44}, {"time": 1903, "pitch": 44, "duration": 40, "velocity": 76}, {"time": 1909, "pitch": 51, "duration": 34, "velocity": 65}, {"time": 1915, "pitch": 56, "duration": 16, "velocity": 93}, {"time": 1921, "pitch": 59, "duration": 21, "velocity": 68}, {"time": 1927, "pitch": 63, "duration": 10, "velocity": 85}, {"time": 1927, "pitch": 68, "duration": 7, "velocity": 92}, {"time": 1933, "pitch": 56, "duration": 9, "velocity": 77}, {"time": 1939, "pitch": 68, "duration": 11, "velocity": 100}, {"time": 1945, "pitch": 63, "duration": 5, "velocity": 97}, {"time": 1948, "pitch": 59, "duration": 3, "velocity": 66}, {"time": 1951, "pitch": 42, "duration": 15, "velocity": 82}, {"time": 1957, "pitch": 54, "duration": 6, "velocity": 72}, {"time": 1963, "pitch": 58, "duration": 12, "velocity": 86}, {"time": 1963, "pitch": 61, "duration": 12, "velocity": 90}, {"time": 1969, "pitch": 54, "duration": 5, "velocity": 63}, {"time": 1975, "pitch": 44, "duration": 22, "velocity": 92}, {"time": 1981, "pitch": 51, "duration": 19, "velocity": 58}, {"time": 1987, "pitch": 56, "duration": 6, "velocity": 56}, {"time": 1987, "pitch": 63, "duration": 7, "velocity": 107}, {"time": 1993, "pitch": 59, "duration": 7, "velocity": 78}, {"time": 1996, "pitch": 63, "duration": 4, "velocity": 77}, {"time": 1999, "pitch": 44, "duration": 23, "velocity": 90}, {"time": 2005, "pitch": 51, "duration": 7, "velocity": 46}, {"time": 2011, "pitch": 56, "duration": 23, "velocity": 74}, {"time": 2011, "pitch": 59, "duration": 19, "velocity": 82}, {"time": 2011, "pitch": 63, "duration": 17, "velocity": 99}, {"time": 2017, "pitch": 51, "duration": 6, "velocity": 31}, {"time": 2023, "pitch": 44, "duration": 14, "velocity": 81}, {"time": 2029, "pitch": 51, "duration": 7, "velocity": 60}, {"time": 2035, "pitch": 63, "duration": 12, "velocity": 102}, {"time": 2035, "pitch": 68, "duration": 12, "velocity": 102}, {"time": 2041, "pitch": 59, "duration": 6, "velocity": 75}, {"time": 2047, "pitch": 42, "duration": 13, "velocity": 90}, {"time": 2053, "pitch": 54, "duration": 6, "velocity": 82}, {"time": 2059, "pitch": 58, "duration": 11, "velocity": 50}, {"time": 2059, "pitch": 61, "duration": 12, "velocity": 86}, {"time": 2065, "pitch": 54, "duration": 5, "velocity": 88}, {"time": 2071, "pitch": 44, "duration": 21, "velocity": 96}, {"time": 2077, "pitch": 51, "duration": 19, "velocity": 52}, {"time": 2083, "pitch": 63, "duration": 7, "velocity": 69}, {"time": 2083, "pitch": 68, "duration": 14, "velocity": 107}, {"time": 2086, "pitch": 56, "duration": 4, "velocity": 81}, {"time": 2089, "pitch": 59, "duration": 8, "velocity": 79}, {"time": 2092, "pitch": 63, "duration": 4, "velocity": 77}, {"time": 2095, "pitch": 44, "duration": 22, "velocity": 92}, {"time": 2101, "pitch": 51, "duration": 10, "velocity": 64}, {"time": 2107, "pitch": 56, "duration": 25, "velocity": 78}, {"time": 2107, "pitch": 68, "duration": 20, "velocity": 99}, {"time": 2113, "pitch": 51, "duration": 6, "velocity": 63}, {"time": 2119, "pitch": 44, "duration": 17, "velocity": 90}, {"time": 2125, "pitch": 51, "duration": 10, "velocity": 69}, {"time": 2131, "pitch": 63, "duration": 11, "velocity": 100}, {"time": 2131, "pitch": 68, "duration": 10, "velocity": 99}, {"time": 2134, "pitch": 56, "duration": 2, "velocity": 68}, {"time": 2137, "pitch": 59, "duration": 6, "velocity": 77}, {"time": 2143, "pitch": 42, "duration": 13, "velocity": 95}, {"time": 2149, "pitch": 54, "duration": 7, "velocity": 92}, {"time": 2155, "pitch": 58, "duration": 11, "velocity": 107}, {"time": 2155, "pitch": 61, "duration": 11, "velocity": 96}, {"time": 2161, "pitch": 54, "duration": 5, "velocity": 81}, {"time": 2167, "pitch": 44, "duration": 19, "velocity": 93}, {"time": 2170, "pitch": 51, "duration": 15, "velocity": 75}, {"time": 2173, "pitch": 56, "duration": 7, "velocity": 127}, {"time": 2176, "pitch": 59, "duration": 8, "velocity": 102}, {"time": 2179, "pitch": 68, "duration": 12, "velocity": 127}, {"time": 2182, "pitch": 56, "duration": 3, "velocity": 58}, {"time": 2185, "pitch": 63, "duration": 6, "velocity": 95}, {"time": 2188, "pitch": 59, "duration": 3, "velocity": 85}, {"time": 2191, "pitch": 47, "duration": 16, "velocity": 85}, {"time": 2197, "pitch": 54, "duration": 9, "velocity": 92}, {"time": 2203, "pitch": 66, "duration": 12, "velocity": 122}, {"time": 2209, "pitch": 63, "duration": 5, "velocity": 96}, {"time": 2212, "pitch": 59, "duration": 1, "velocity": 75}, {"time": 2215, "pitch": 37, "duration": 17, "velocity": 93}, {"time": 2221, "pitch": 44, "duration": 7, "velocity": 35}, {"time": 2227, "pitch": 49, "duration": 6, "velocity": 75}, {"time": 2227, "pitch": 56, "duration": 8, "velocity": 90}, {"time": 2227, "pitch": 61, "duration": 12, "velocity": 100}, {"time": 2233, "pitch": 52, "duration": 5, "velocity": 76}, {"time": 2236, "pitch": 56, "duration": 3, "velocity": 63}, {"time": 2239, "pitch": 42, "duration": 17, "velocity": 102}, {"time": 2245, "pitch": 49, "duration": 7, "velocity": 35}, {"time": 2251, "pitch": 58, "duration": 12, "velocity": 99}, {"time": 2251, "pitch": 61, "duration": 12, "velocity": 88}, {"time": 2254, "pitch": 49, "duration": 2, "velocity": 69}, {"time": 2257, "pitch": 54, "duration": 6, "velocity": 95}, {"time": 2263, "pitch": 44, "duration": 17, "velocity": 92}, {"time": 2269, "pitch": 51, "duration": 10, "velocity": 69}, {"time": 2275, "pitch": 63, "duration": 7, "velocity": 127}, {"time": 2278, "pitch": 56, "duration": 1, "velocity": 88}, {"time": 2281, "pitch": 59, "duration": 6, "velocity": 95}, {"time": 2284, "pitch": 63, "duration": 3, "velocity": 102}, {"time": 2287, "pitch": 40, "duration": 18, "velocity": 89}, {"time": 2290, "pitch": 47, "duration": 16, "velocity": 93}, {"time": 2293, "pitch": 52, "duration": 8, "velocity": 93}, {"time": 2296, "pitch": 59, "duration": 4, "velocity": 92}, {"time": 2299, "pitch": 64, "duration": 7, "velocity": 112}, {"time": 2302, "pitch": 52, "duration": 3, "velocity": 92}, {"time": 2305, "pitch": 59, "duration": 6, "velocity": 96}, {"time": 2308, "pitch": 64, "duration": 3, "velocity": 90}, {"time": 2311, "pitch": 39, "duration": 19, "velocity": 88}, {"time": 2314, "pitch": 46, "duration": 16, "velocity": 63}, {"time": 2317, "pitch": 51, "duration": 7, "velocity": 90}, {"time": 2320, "pitch": 54, "duration": 4, "velocity": 88}, {"time": 2323, "pitch": 58, "duration": 5, "velocity": 122}, {"time": 2326, "pitch": 51, "duration": 4, "velocity": 99}, {"time": 2329, "pitch": 58, "duration": 5, "velocity": 39}, {"time": 2329, "pitch": 63, "duration": 6, "velocity": 122}, {"time": 2332, "pitch": 54, "duration": 3, "velocity": 100}, {"time": 2335, "pitch": 44, "duration": 21, "velocity": 86}, {"time": 2338, "pitch": 51, "duration": 20, "velocity": 35}, {"time": 2341, "pitch": 56, "duration": 6, "velocity": 107}, {"time": 2344, "pitch": 59, "duration": 4, "velocity": 90}, {"time": 2347, "pitch": 63, "duration": 6, "velocity": 122}, {"time": 2350, "pitch": 56, "duration": 4, "velocity": 102}, {"time": 2353, "pitch": 59, "duration": 5, "velocity": 95}, {"time": 2356, "pitch": 68, "duration": 2, "velocity": 102}, {"time": 2359, "pitch": 44, "duration": 4, "velocity": 127}, {"time": 2359, "pitch": 56, "duration": 4, "velocity": 112}, {"time": 2359, "pitch": 59, "duration": 4, "velocity": 102}, {"time": 2359, "pitch": 63, "duration": 4, "velocity": 99}, {"time": 2383, "pitch": 44, "duration": 16, "velocity": 107}, {"time": 2386, "pitch": 51, "duration": 13, "velocity": 67}, {"time": 2389, "pitch": 56, "duration": 8, "velocity": 100}, {"time": 2392, "pitch": 59, "duration": 6, "velocity": 96}, {"time": 2395, "pitch": 68, "duration": 11, "velocity": 127}, {"time": 2398, "pitch": 56, "duration": 1, "velocity": 112}, {"time": 2401, "pitch": 63, "duration": 7, "velocity": 127}, {"time": 2404, "pitch": 59, "duration": 3, "velocity": 102}, {"time": 2407, "pitch": 42, "duration": 19, "velocity": 86}, {"time": 2410, "pitch": 49, "duration": 16, "velocity": 99}, {"time": 2413, "pitch": 54, "duration": 7, "velocity": 96}, {"time": 2416, "pitch": 58, "duration": 5, "velocity": 99}, {"time": 2419, "pitch": 68, "duration": 12, "velocity": 122}, {"time": 2422, "pitch": 54, "duration": 3, "velocity": 90}, {"time": 2425, "pitch": 61, "duration": 2, "velocity": 112}, {"time": 2428, "pitch": 58, "duration": 4, "velocity": 107}, {"time": 2431, "pitch": 37, "duration": 16, "velocity": 97}, {"time": 2434, "pitch": 44, "duration": 14, "velocity": 97}, {"time": 2437, "pitch": 49, "duration": 7, "velocity": 95}, {"time": 2440, "pitch": 52, "duration": 9, "velocity": 78}, {"time": 2443, "pitch": 61, "duration": 12, "velocity": 127}, {"time": 2446, "pitch": 49, "duration": 4, "velocity": 100}, {"time": 2449, "pitch": 56, "duration": 6, "velocity": 107}, {"time": 2452, "pitch": 52, "duration": 3, "velocity": 102}, {"time": 2455, "pitch": 44, "duration": 17, "velocity": 82}, {"time": 2458, "pitch": 51, "duration": 14, "velocity": 99}, {"time": 2461, "pitch": 56, "duration": 7, "velocity": 97}, {"time": 2464, "pitch": 59, "duration": 3, "velocity": 95}, {"time": 2467, "pitch": 63, "duration": 7, "velocity": 112}, {"time": 2467, "pitch": 68, "duration": 12, "velocity": 127}, {"time": 2470, "pitch": 56, "duration": 1, "velocity": 107}, {"time": 2473, "pitch": 59, "duration": 7, "velocity": 99}, {"time": 2476, "pitch": 63, "duration": 3, "velocity": 127}, {"time": 2479, "pitch": 40, "duration": 18, "velocity": 81}, {"time": 2482, "pitch": 47, "duration": 15, "velocity": 96}, {"time": 2485, "pitch": 52, "duration": 7, "velocity": 95}, {"time": 2488, "pitch": 59, "duration": 4, "velocity": 81}, {"time": 2491, "pitch": 64, "duration": 6, "velocity": 88}, {"time": 2491, "pitch": 68, "duration": 13, "velocity": 99}, {"time": 2494, "pitch": 52, "duration": 2, "velocity": 96}, {"time": 2497, "pitch": 59, "duration": 6, "velocity": 97}, {"time": 2500, "pitch": 64, "duration": 4, "velocity": 92}, {"time": 2503, "pitch": 42, "duration": 16, "velocity": 81}, {"time": 2506, "pitch": 49, "duration": 13, "velocity": 77}, {"time": 2509, "pitch": 54, "duration": 7, "velocity": 95}, {"time": 2512, "pitch": 58, "duration": 3, "velocity": 90}, {"time": 2515, "pitch": 61, "duration": 6, "velocity": 117}, {"time": 2515, "pitch": 66, "duration": 12, "velocity": 112}, {"time": 2518, "pitch": 54, "duration": 3, "velocity": 95}, {"time": 2521, "pitch": 58, "duration": 4, "velocity": 107}, {"time": 2524, "pitch": 61, "duration": 3, "velocity": 127}, {"time": 2527, "pitch": 47, "duration": 16, "velocity": 90}, {"time": 2530, "pitch": 54, "duration": 10, "velocity": 95}, {"time": 2533, "pitch": 59, "duration": 3, "velocity": 97}, {"time": 2536, "pitch": 63, "duration": 4, "velocity": 127}, {"time": 2539, "pitch": 66, "duration": 12, "velocity": 117}, {"time": 2542, "pitch": 54, "duration": 1, "velocity": 99}, {"time": 2545, "pitch": 63, "duration": 5, "velocity": 127}, {"time": 2548, "pitch": 59, "duration": 3, "velocity": 100}, {"time": 2551, "pitch": 39, "duration": 18, "velocity": 90}, {"time": 2554, "pitch": 46, "duration": 15, "velocity": 99}, {"time": 2557, "pitch": 51, "duration": 7, "velocity": 102}, {"time": 2560, "pitch": 55, "duration": 2, "velocity": 81}, {"time": 2563, "pitch": 58, "duration": 6, "velocity": 127}, {"time": 2563, "pitch": 63, "duration": 12, "velocity": 127}, {"time": 2566, "pitch": 51, "duration": 4, "velocity": 127}, {"time": 2569, "pitch": 55, "duration": 4, "velocity": 117}, {"time": 2572, "pitch": 58, "duration": 3, "velocity": 127}, {"time": 2575, "pitch": 44, "duration": 19, "velocity": 100}, {"time": 2578, "pitch": 51, "duration": 15, "velocity": 97}, {"time": 2581, "pitch": 56, "duration": 7, "velocity": 107}, {"time": 2584, "pitch": 59, "duration": 3, "velocity": 96}, {"time": 2587, "pitch": 63, "duration": 6, "velocity": 107}, {"time": 2587, "pitch": 68, "duration": 12, "velocity": 127}, {"time": 2590, "pitch": 56, "duration": 2, "velocity": 117}, {"time": 2593, "pitch": 59, "duration": 4, "velocity": 112}, {"time": 2596, "pitch": 63, "duration": 3, "velocity": 127}, {"time": 2599, "pitch": 42, "duration": 18, "velocity": 92}, {"time": 2602, "pitch": 49, "duration": 15, "velocity": 85}, {"time": 2605, "pitch": 54, "duration": 7, "velocity": 99}, {"time": 2608, "pitch": 58, "duration": 3, "velocity": 100}, {"time": 2611, "pitch": 61, "duration": 5, "velocity": 100}, {"time": 2611, "pitch": 66, "duration": 12, "velocity": 117}, {"time": 2614, "pitch": 54, "duration": 2, "velocity": 99}, {"time": 2617, "pitch": 58, "duration": 4, "velocity": 117}, {"time": 2620, "pitch": 61, "duration": 3, "velocity": 102}, {"time": 2623, "pitch": 39, "duration": 18, "velocity": 86}, {"time": 2626, "pitch": 46, "duration": 15, "velocity": 47}, {"time": 2629, "pitch": 51, "duration": 8, "velocity": 90}, {"time": 2632, "pitch": 58, "duration": 4, "velocity": 92}, {"time": 2635, "pitch": 63, "duration": 6, "velocity": 95}, {"time": 2635, "pitch": 66, "duration": 12, "velocity": 102}, {"time": 2638, "pitch": 51, "duration": 4, "velocity": 102}, {"time": 2641, "pitch": 58, "duration": 3, "velocity": 102}, {"time": 2644, "pitch": 63, "duration": 4, "velocity": 122}, {"time": 2647, "pitch": 44, "duration": 17, "velocity": 85}, {"time": 2650, "pitch": 51, "duration": 13, "velocity": 93}, {"time": 2653, "pitch": 56, "duration": 7, "velocity": 90}, {"time": 2656, "pitch": 59, "duration": 3, "velocity": 96}, {"time": 2659, "pitch": 63, "duration": 7, "velocity": 72}, {"time": 2659, "pitch": 68, "duration": 13, "velocity": 117}, {"time": 2662, "pitch": 56, "duration": 1, "velocity": 100}, {"time": 2665, "pitch": 59, "duration": 6, "velocity": 102}, {"time": 2668, "pitch": 63, "duration": 4, "velocity": 127}, {"time": 2671, "pitch": 40, "duration": 17, "velocity": 89}, {"time": 2674, "pitch": 47, "duration": 15, "velocity": 102}, {"time": 2677, "pitch": 52, "duration": 7, "velocity": 99}, {"time": 2680, "pitch": 59, "duration": 4, "velocity": 88}, {"time": 2683, "pitch": 64, "duration": 6, "velocity": 95}, {"time": 2683, "pitch": 68, "duration": 12, "velocity": 127}, {"time": 2686, "pitch": 52, "duration": 2, "velocity": 100}, {"time": 2689, "pitch": 59, "duration": 6, "velocity": 96}, {"time": 2692, "pitch": 64, "duration": 3, "velocity": 95}, {"time": 2695, "pitch": 42, "duration": 16, "velocity": 95}, {"time": 2698, "pitch": 49, "duration": 13, "velocity": 89}, {"time": 2701, "pitch": 54, "duration": 7, "velocity": 102}, {"time": 2704, "pitch": 58, "duration": 4, "velocity": 90}, {"time": 2707, "pitch": 66, "duration": 11, "velocity": 127}, {"time": 2710, "pitch": 54, "duration": 2, "velocity": 102}, {"time": 2713, "pitch": 58, "duration": 4, "velocity": 112}, {"time": 2716, "pitch": 61, "duration": 3, "velocity": 107}, {"time": 2719, "pitch": 44, "duration": 17, "velocity": 95}, {"time": 2719, "pitch": 59, "duration": 13, "velocity": 100}, {"time": 2719, "pitch": 63, "duration": 10, "velocity": 127}, {"time": 2725, "pitch": 51, "duration": 11, "velocity": 75}, {"time": 2728, "pitch": 56, "duration": 4, "velocity": 93}, {"time": 2731, "pitch": 66, "duration": 5, "velocity": 127}, {"time": 2734, "pitch": 56, "duration": 2, "velocity": 122}, {"time": 2740, "pitch": 39, "duration": 13, "velocity": 127}, {"time": 2740, "pitch": 51, "duration": 9, "velocity": 122}, {"time": 2740, "pitch": 54, "duration": 13, "velocity": 127}, {"time": 2740, "pitch": 58, "duration": 10, "velocity": 112}, {"time": 2755, "pitch": 40, "duration": 6, "velocity": 117}, {"time": 2755, "pitch": 52, "duration": 6, "velocity": 117}, {"time": 2755, "pitch": 56, "duration": 4, "velocity": 127}, {"time": 2755, "pitch": 59, "duration": 3, "velocity": 112}, {"time": 2761, "pitch": 42, "duration": 6, "velocity": 117}, {"time": 2761, "pitch": 54, "duration": 6, "velocity": 122}, {"time": 2761, "pitch": 58, "duration": 6, "velocity": 127}, {"time": 2767, "pitch": 44, "duration": 16, "velocity": 107}, {"time": 2770, "pitch": 51, "duration": 13, "velocity": 67}, {"time": 2773, "pitch": 56, "duration": 8, "velocity": 100}, {"time": 2776, "pitch": 59, "duration": 6, "velocity": 96}, {"time": 2779, "pitch": 68, "duration": 11, "velocity": 127}, {"time": 2782, "pitch": 56, "duration": 1, "velocity": 112}, {"time": 2785, "pitch": 63, "duration": 7, "velocity": 127}, {"time": 2788, "pitch": 59, "duration": 3, "velocity": 102}, {"time": 2791, "pitch": 42, "duration": 19, "velocity": 86}, {"time": 2794, "pitch": 49, "duration": 16, "velocity": 99}, {"time": 2797, "pitch": 54, "duration": 7, "velocity": 96}, {"time": 2800, "pitch": 58, "duration": 5, "velocity": 99}, {"time": 2803, "pitch": 68, "duration": 12, "velocity": 122}, {"time": 2806, "pitch": 54, "duration": 3, "velocity": 90}, {"time": 2809, "pitch": 61, "duration": 2, "velocity": 112}, {"time": 2812, "pitch": 58, "duration": 4, "velocity": 107}, {"time": 2815, "pitch": 37, "duration": 16, "velocity": 97}, {"time": 2818, "pitch": 44, "duration": 14, "velocity": 97}, {"time": 2821, "pitch": 49, "duration": 7, "velocity": 95}, {"time": 2824, "pitch": 52, "duration": 9, "velocity": 78}, {"time": 2827, "pitch": 61, "duration": 12, "velocity": 127}, {"time": 2830, "pitch": 49, "duration": 4, "velocity": 100}, {"time": 2833, "pitch": 56, "duration": 6, "velocity": 107}, {"time": 2836, "pitch": 52, "duration": 3, "velocity": 102}, {"time": 2839, "pitch": 44, "duration": 17, "velocity": 82}, {"time": 2842, "pitch": 51, "duration": 14, "velocity": 99}, {"time": 2845, "pitch": 56, "duration": 7, "velocity": 97}, {"time": 2848, "pitch": 59, "duration": 3, "velocity": 95}, {"time": 2851, "pitch": 63, "duration": 7, "velocity": 112}, {"time": 2851, "pitch": 68, "duration": 12, "velocity": 127}, {"time": 2854, "pitch": 56, "duration": 1, "velocity": 107}, {"time": 2857, "pitch": 59, "duration": 7, "velocity": 99}, {"time": 2860, "pitch": 63, "duration": 3, "velocity": 127}, {"time": 2863, "pitch": 40, "duration": 18, "velocity": 81}, {"time": 2866, "pitch": 47, "duration": 15, "velocity": 96}, {"time": 2869, "pitch": 52, "duration": 7, "velocity": 95}, {"time": 2872, "pitch": 59, "duration": 4, "velocity": 81}, {"time": 2875, "pitch": 64, "duration": 6, "velocity": 88}, {"time": 2875, "pitch": 68, "duration": 13, "velocity": 99}, {"time": 2878, "pitch": 52, "duration": 2, "velocity": 96}, {"time": 2881, "pitch": 59, "duration": 6, "velocity": 97}, {"time": 2884, "pitch": 64, "duration": 4, "velocity": 92}, {"time": 2887, "pitch": 42, "duration": 16, "velocity": 81}, {"time": 2890, "pitch": 49, "duration": 13, "velocity": 77}, {"time": 2893, "pitch": 54, "duration": 7, "velocity": 95}, {"time": 2896, "pitch": 58, "duration": 3, "velocity": 90}, {"time": 2899, "pitch": 61, "duration": 6, "velocity": 117}, {"time": 2899, "pitch": 66, "duration": 12, "velocity": 112}, {"time": 2902, "pitch": 54, "duration": 3, "velocity": 95}, {"time": 2905, "pitch": 58, "duration": 4, "velocity": 107}, {"time": 2908, "pitch": 61, "duration": 3, "velocity": 127}, {"time": 2911, "pitch": 47, "duration": 16, "velocity": 90}, {"time": 2914, "pitch": 54, "duration": 10, "velocity": 95}, {"time": 2917, "pitch": 59, "duration": 3, "velocity": 97}, {"time": 2920, "pitch": 63, "duration": 4, "velocity": 127}, {"time": 2923, "pitch": 66, "duration": 12, "velocity": 117}, {"time": 2926, "pitch": 54, "duration": 1, "velocity": 99}, {"time": 2929, "pitch": 63, "duration": 5, "velocity": 127}, {"time": 2932, "pitch": 59, "duration": 3, "velocity": 100}, {"time": 2935, "pitch": 39, "duration": 18, "velocity": 90}, {"time": 2938, "pitch": 46, "duration": 15, "velocity": 99}, {"time": 2941, "pitch": 51, "duration": 7, "velocity": 102}, {"time": 2944, "pitch": 55, "duration": 2, "velocity": 81}, {"time": 2947, "pitch": 58, "duration": 6, "velocity": 127}, {"time": 2947, "pitch": 63, "duration": 12, "velocity": 127}, {"time": 2950, "pitch": 51, "duration": 4, "velocity": 127}, {"time": 2953, "pitch": 55, "duration": 4, "velocity": 117}, {"time": 2956, "pitch": 58, "duration": 3, "velocity": 127}, {"time": 2959, "pitch": 44, "duration": 19, "velocity": 100}, {"time": 2962, "pitch": 51, "duration": 15, "velocity": 97}, {"time": 2965, "pitch": 56, "duration": 7, "velocity": 107}, {"time": 2968, "pitch": 59, "duration": 3, "velocity": 96}, {"time": 2971, "pitch": 63, "duration": 6, "velocity": 107}, {"time": 2971, "pitch": 68, "duration": 12, "velocity": 127}, {"time": 2974, "pitch": 56, "duration": 2, "velocity": 117}, {"time": 2977, "pitch": 59, "duration": 4, "velocity": 112}, {"time": 2980, "pitch": 63, "duration": 3, "velocity": 127}, {"time": 2983, "pitch": 42, "duration": 18, "velocity": 92}, {"time": 2986, "pitch": 49, "duration": 15, "velocity": 85}, {"time": 2989, "pitch": 54, "duration": 7, "velocity": 99}, {"time": 2992, "pitch": 58, "duration": 3, "velocity": 100}, {"time": 2995, "pitch": 61, "duration": 5, "velocity": 100}, {"time": 2995, "pitch": 66, "duration": 12, "velocity": 117}, {"time": 2998, "pitch": 54, "duration": 2, "velocity": 99}, {"time": 3001, "pitch": 58, "duration": 4, "velocity": 117}, {"time": 3004, "pitch": 61, "duration": 3, "velocity": 102}, {"time": 3007, "pitch": 39, "duration": 18, "velocity": 86}, {"time": 3010, "pitch": 46, "duration": 15, "velocity": 47}, {"time": 3013, "pitch": 51, "duration": 8, "velocity": 90}, {"time": 3016, "pitch": 58, "duration": 4, "velocity": 92}, {"time": 3019, "pitch": 63, "duration": 6, "velocity": 95}, {"time": 3019, "pitch": 66, "duration": 12, "velocity": 102}, {"time": 3022, "pitch": 51, "duration": 4, "velocity": 102}, {"time": 3025, "pitch": 58, "duration": 3, "velocity": 102}, {"time": 3028, "pitch": 63, "duration": 4, "velocity": 122}, {"time": 3031, "pitch": 44, "duration": 17, "velocity": 85}, {"time": 3034, "pitch": 51, "duration": 13, "velocity": 93}, {"time": 3037, "pitch": 56, "duration": 7, "velocity": 90}, {"time": 3040, "pitch": 59, "duration": 3, "velocity": 96}, {"time": 3043, "pitch": 63, "duration": 7, "velocity": 72}, {"time": 3043, "pitch": 68, "duration": 13, "velocity": 117}, {"time": 3046, "pitch": 56, "duration": 1, "velocity": 100}, {"time": 3049, "pitch": 59, "duration": 6, "velocity": 102}, {"time": 3052, "pitch": 63, "duration": 4, "velocity": 127}, {"time": 3055, "pitch": 40, "duration": 17, "velocity": 89}, {"time": 3058, "pitch": 47, "duration": 15, "velocity": 102}, {"time": 3061, "pitch": 52, "duration": 7, "velocity": 99}, {"time": 3064, "pitch": 59, "duration": 4, "velocity": 88}, {"time": 3067, "pitch": 64, "duration": 6, "velocity": 95}, {"time": 3067, "pitch": 68, "duration": 12, "velocity": 127}, {"time": 3070, "pitch": 52, "duration": 2, "velocity": 100}, {"time": 3073, "pitch": 59, "duration": 6, "velocity": 96}, {"time": 3076, "pitch": 64, "duration": 3, "velocity": 95}, {"time": 3079, "pitch": 42, "duration": 16, "velocity": 95}, {"time": 3082, "pitch": 49, "duration": 13, "velocity": 89}, {"time": 3085, "pitch": 54, "duration": 7, "velocity": 102}, {"time": 3088, "pitch": 58, "duration": 4, "velocity": 90}, {"time": 3091, "pitch": 66, "duration": 11, "velocity": 127}, {"time": 3094, "pitch": 54, "duration": 2, "velocity": 102}, {"time": 3097, "pitch": 58, "duration": 4, "velocity": 112}, {"time": 3100, "pitch": 61, "duration": 3, "velocity": 107}, {"time": 3102, "pitch": 44, "duration": 18, "velocity": 107}, {"time": 3109, "pitch": 51, "duration": 12, "velocity": 63}, {"time": 3115, "pitch": 56, "duration": 5, "velocity": 61}, {"time": 3115, "pitch": 68, "duration": 12, "velocity": 99}, {"time": 3121, "pitch": 63, "duration": 7, "velocity": 96}, {"time": 3127, "pitch": 42, "duration": 14, "velocity": 93}, {"time": 3133, "pitch": 49, "duration": 8, "velocity": 63}, {"time": 3139, "pitch": 61, "duration": 12, "velocity": 122}, {"time": 3145, "pitch": 54, "duration": 4, "velocity": 75}, {"time": 3148, "pitch": 58, "duration": 2, "velocity": 47}, {"time": 3151, "pitch": 40, "duration": 17, "velocity": 96}, {"time": 3154, "pitch": 47, "duration": 14, "velocity": 55}, {"time": 3157, "pitch": 52, "duration": 8, "velocity": 83}, {"time": 3160, "pitch": 68, "duration": 17, "velocity": 99}, {"time": 3169, "pitch": 64, "duration": 6, "velocity": 59}, {"time": 3175, "pitch": 39, "duration": 23, "velocity": 72}, {"time": 3178, "pitch": 46, "duration": 22, "velocity": 38}, {"time": 3181, "pitch": 51, "duration": 7, "velocity": 68}, {"time": 3184, "pitch": 55, "duration": 12, "velocity": 82}, {"time": 3190, "pitch": 51, "duration": 29, "velocity": 63}, {"time": 3193, "pitch": 63, "duration": 33, "velocity": 90}, {"time": 3196, "pitch": 58, "duration": 30, "velocity": 63}, {"time": 3199, "pitch": 39, "duration": 17, "velocity": 76}, {"time": 3199, "pitch": 55, "duration": 26, "velocity": 73}, {"time": 3225, "pitch": 44, "duration": 73, "velocity": 93}, {"time": 3232, "pitch": 51, "duration": 64, "velocity": 69}, {"time": 3236, "pitch": 56, "duration": 60, "velocity": 95}, {"time": 3239, "pitch": 59, "duration": 5, "velocity": 68}, {"time": 3242, "pitch": 63, "duration": 5, "velocity": 67}, {"time": 3245, "pitch": 68, "duration": 3, "velocity": 69}, {"time": 3250, "pitch": 71, "duration": 7, "velocity": 81}, {"time": 3254, "pitch": 75, "duration": 6, "velocity": 90}, {"time": 3259, "pitch": 80, "duration": 6, "velocity": 68}, {"time": 3265, "pitch": 83, "duration": 13, "velocity": 72}, {"time": 3270, "pitch": 87, "duration": 9, "velocity": 55}, {"time": 3276, "pitch": 92, "duration": 6, "velocity": 58}, {"time": 3288, "pitch": 99, "duration": 7, "velocity": 61}], "annotations": [{"time": 32, "annotation": {"number": 64, "value": 127}, "group": "control_change"}, {"time": 78, "annotation": {"number": 64, "value": 0}, "group": "control_change"}, {"time": 79, "annotation": {"number": 64, "value": 127}, "group": "control_change"}, {"time": 125, "annotation": {"number": 64, "value": 0}, "group": "control_change"}, {"time": 127, "annotation": {"number": 64, "value": 127}, "group": "control_change"}, {"time": 174, "annotation": {"number": 64, "value": 0}, "group": "control_change"}, {"time": 175, "annotation": {"number": 64, "value": 127}, "group": "control_change"}, {"time": 221, "annotation": {"number": 64, "value": 0}, "group": "control_change"}, {"time": 223, "annotation": {"number": 64, "value": 127}, "group": "control_change"}, {"time": 245, "annotation": {"number": 64, "value": 0}, "group": "control_change"}, {"time": 246, "annotation": {"number": 64, "value": 127}, "group": "control_change"}, {"time": 269, "annotation": {"number": 64, "value": 0}, "group": "control_change"}, {"time": 271, "annotation": {"number": 64, "value": 127}, "group": "control_change"}, {"time": 317, "annotation": {"number": 64, "value": 0}, "group": "control_change"}, {"time": 319, "annotation": {"number": 64, "value": 127}, "group": "control_change"}, {"time": 365, "annotation": {"number": 64, "value": 0}, "group": "control_change"}, {"time": 367, "annotation": {"number": 64, "value": 127}, "group": "control_change"}, {"time": 380, "annotation": {"number": 64, "value": 127}, "group": "control_change"}, {"time": 382, "annotation": {"number": 64, "value": 0}, "group": "control_change"}, {"time": 412, "annotation": {"number": 64, "value": 0}, "group": "control_change"}, {"time": 415, "annotation": {"number": 64, "value": 127}, "group": "control_change"}, {"time": 462, "annotation": {"number": 64, "value": 0}, "group": "control_change"}, {"time": 463, "annotation": {"number": 64, "value": 127}, "group": "control_change"}, {"time": 486, "annotation": {"number": 64, "value": 0}, "group": "control_change"}, {"time": 487, "annotation": {"number": 64, "value": 127}, "group": "control_change"}, {"time": 510, "annotation": {"number": 64, "value": 0}, "group": "control_change"}, {"time": 511, "annotation": {"number": 64, "value": 127}, "group": "control_change"}, {"time": 533, "annotation": {"number": 64, "value": 0}, "group": "control_change"}, {"time": 535, "annotation": {"number": 64, "value": 127}, "group": "control_change"}, {"time": 557, "annotation": {"number": 64, "value": 0}, "group": "control_change"}, {"time": 559, "annotation": {"number": 64, "value": 127}, "group": "control_change"}, {"time": 582, "annotation": {"number": 64, "value": 0}, "group": "control_change"}, {"time": 583, "annotation": {"number": 64, "value": 127}, "group": "control_change"}, {"time": 606, "annotation": {"number": 64, "value": 0}, "group": "control_change"}, {"time": 607, "annotation": {"number": 64, "value": 127}, "group": "control_change"}, {"time": 630, "annotation": {"number": 64, "value": 0}, "group": "control_change"}, {"time": 631, "annotation": {"number": 64, "value": 127}, "group": "control_change"}, {"time": 653, "annotation": {"number": 64, "value": 0}, "group": "control_change"}, {"time": 655, "annotation": {"number": 64, "value": 127}, "group": "control_change"}, {"time": 677, "annotation": {"number": 64, "value": 0}, "group": "control_change"}, {"time": 679, "annotation": {"number": 64, "value": 127}, "group": "control_change"}, {"time": 701, "annotation": {"number": 64, "value": 0}, "group": "control_change"}, {"time": 703, "annotation": {"number": 64, "value": 127}, "group": "control_change"}, {"time": 725, "annotation": {"number": 64, "value": 0}, "group": "control_change"}, {"time": 727, "annotation": {"number": 64, "value": 127}, "group": "control_change"}, {"time": 749, "annotation": {"number": 64, "value": 0}, "group": "control_change"}, {"time": 751, "annotation": {"number": 64, "value": 127}, "group": "control_change"}, {"time": 773, "annotation": {"number": 64, "value": 0}, "group": "control_change"}, {"time": 775, "annotation": {"number": 64, "value": 127}, "group": "control_change"}, {"time": 797, "annotation": {"number": 64, "value": 0}, "group": "control_change"}, {"time": 799, "annotation": {"number": 64, "value": 127}, "group": "control_change"}, {"time": 822, "annotation": {"number": 64, "value": 0}, "group": "control_change"}, {"time": 823, "annotation": {"number": 64, "value": 127}, "group": "control_change"}, {"time": 846, "annotation": {"number": 64, "value": 0}, "group": "control_change"}, {"time": 847, "annotation": {"number": 64, "value": 127}, "group": "control_change"}, {"time": 869, "annotation": {"number": 64, "value": 0}, "group": "control_change"}, {"time": 871, "annotation": {"number": 64, "value": 127}, "group": "control_change"}, {"time": 893, "annotation": {"number": 64, "value": 0}, "group": "control_change"}, {"time": 895, "annotation": {"number": 64, "value": 127}, "group": "control_change"}, {"time": 917, "annotation": {"number": 64, "value": 0}, "group": "control_change"}, {"time": 919, "annotation": {"number": 64, "value": 127}, "group": "control_change"}, {"time": 941, "annotation": {"number": 64, "value": 0}, "group": "control_change"}, {"time": 943, "annotation": {"number": 64, "value": 127}, "group": "control_change"}, {"time": 965, "annotation": {"number": 64, "value": 0}, "group": "control_change"}, {"time": 991, "annotation": {"number": 64, "value": 127}, "group": "control_change"}, {"time": 1013, "annotation": {"number": 64, "value": 0}, "group": "control_change"}, {"time": 1015, "annotation": {"number": 64, "value": 127}, "group": "control_change"}, {"time": 1037, "annotation": {"number": 64, "value": 0}, "group": "control_change"}, {"time": 1039, "annotation": {"number": 64, "value": 127}, "group": "control_change"}, {"time": 1061, "annotation": {"number": 64, "value": 0}, "group": "control_change"}, {"time": 1063, "annotation": {"number": 64, "value": 127}, "group": "control_change"}, {"time": 1085, "annotation": {"number": 64, "value": 0}, "group": "control_change"}, {"time": 1087, "annotation": {"number": 64, "value": 127}, "group": "control_change"}, {"time": 1109, "annotation": {"number": 64, "value": 0}, "group": "control_change"}, {"time": 1111, "annotation": {"number": 64, "value": 127}, "group": "control_change"}, {"time": 1133, "annotation": {"number": 64, "value": 0}, "group": "control_change"}, {"time": 1135, "annotation": {"number": 64, "value": 127}, "group": "control_change"}, {"time": 1157, "annotation": {"number": 64, "value": 0}, "group": "control_change"}, {"time": 1159, "annotation": {"number": 64, "value": 127}, "group": "control_change"}, {"time": 1181, "annotation": {"number": 64, "value": 0}, "group": "control_change"}, {"time": 1183, "annotation": {"number": 64, "value": 127}, "group": "control_change"}, {"time": 1205, "annotation": {"number": 64, "value": 0}, "group": "control_change"}, {"time": 1207, "annotation": {"number": 64, "value": 127}, "group": "control_change"}, {"time": 1229, "annotation": {"number": 64, "value": 0}, "group": "control_change"}, {"time": 1231, "annotation": {"number": 64, "value": 127}, "group": "control_change"}, {"time": 1253, "annotation": {"number": 64, "value": 0}, "group": "control_change"}, {"time": 1255, "annotation": {"number": 64, "value": 127}, "group": "control_change"}, {"time": 1277, "annotation": {"number": 64, "value": 0}, "group": "control_change"}, {"time": 1279, "annotation": {"number": 64, "value": 127}, "group": "control_change"}, {"time": 1301, "annotation": {"number": 64, "value": 0}, "group": "control_change"}, {"time": 1303, "annotation": {"number": 64, "value": 127}, "group": "control_change"}, {"time": 1325, "annotation": {"number": 64, "value": 0}, "group": "control_change"}, {"time": 1327, "annotation": {"number": 64, "value": 127}, "group": "control_change"}, {"time": 1351, "annotation": {"number": 64, "value": 0}, "group": "control_change"}, {"time": 1363, "annotation": {"number": 64, "value": 127}, "group": "control_change"}, {"time": 1369, "annotation": {"number": 64, "value": 0}, "group": "control_change"}, {"time": 1854, "annotation": {"number": 64, "value": 0}, "group": "control_change"}, {"time": 1855, "annotation": {"number": 64, "value": 127}, "group": "control_change"}, {"time": 1878, "annotation": {"number": 64, "value": 0}, "group": "control_change"}, {"time": 1879, "annotation": {"number": 64, "value": 127}, "group": "control_change"}, {"time": 1902, "annotation": {"number": 64, "value": 0}, "group": "control_change"}, {"time": 1903, "annotation": {"number": 64, "value": 127}, "group": "control_change"}, {"time": 1925, "annotation": {"number": 64, "value": 0}, "group": "control_change"}, {"time": 1927, "annotation": {"number": 64, "value": 127}, "group": "control_change"}, {"time": 1949, "annotation": {"number": 64, "value": 0}, "group": "control_change"}, {"time": 1951, "annotation": {"number": 64, "value": 127}, "group": "control_change"}, {"time": 1974, "annotation": {"number": 64, "value": 0}, "group": "control_change"}, {"time": 1975, "annotation": {"number": 64, "value": 127}, "group": "control_change"}, {"time": 1998, "annotation": {"number": 64, "value": 0}, "group": "control_change"}, {"time": 1999, "annotation": {"number": 64, "value": 127}, "group": "control_change"}, {"time": 2022, "annotation": {"number": 64, "value": 0}, "group": "control_change"}, {"time": 2023, "annotation": {"number": 64, "value": 127}, "group": "control_change"}, {"time": 2045, "annotation": {"number": 64, "value": 0}, "group": "control_change"}, {"time": 2047, "annotation": {"number": 64, "value": 127}, "group": "control_change"}, {"time": 2069, "annotation": {"number": 64, "value": 0}, "group": "control_change"}, {"time": 2071, "annotation": {"number": 64, "value": 127}, "group": "control_change"}, {"time": 2093, "annotation": {"number": 64, "value": 0}, "group": "control_change"}, {"time": 2095, "annotation": {"number": 64, "value": 127}, "group": "control_change"}, {"time": 2117, "annotation": {"number": 64, "value": 0}, "group": "control_change"}, {"time": 2119, "annotation": {"number": 64, "value": 127}, "group": "control_change"}, {"time": 2141, "annotation": {"number": 64, "value": 0}, "group": "control_change"}, {"time": 2143, "annotation": {"number": 64, "value": 127}, "group": "control_change"}, {"time": 2165, "annotation": {"number": 64, "value": 0}, "group": "control_change"}, {"time": 2167, "annotation": {"number": 64, "value": 127}, "group": "control_change"}, {"time": 2189, "annotation": {"number": 64, "value": 0}, "group": "control_change"}, {"time": 2191, "annotation": {"number": 64, "value": 127}, "group": "control_change"}, {"time": 2214, "annotation": {"number": 64, "value": 0}, "group": "control_change"}, {"time": 2215, "annotation": {"number": 64, "value": 127}, "group": "control_change"}, {"time": 2238, "annotation": {"number": 64, "value": 0}, "group": "control_change"}, {"time": 2239, "annotation": {"number": 64, "value": 127}, "group": "control_change"}, {"time": 2261, "annotation": {"number": 64, "value": 0}, "group": "control_change"}, {"time": 2263, "annotation": {"number": 64, "value": 127}, "group": "control_change"}, {"time": 2285, "annotation": {"number": 64, "value": 0}, "group": "control_change"}, {"time": 2287, "annotation": {"number": 64, "value": 127}, "group": "control_change"}, {"time": 2309, "annotation": {"number": 64, "value": 0}, "group": "control_change"}, {"time": 2311, "annotation": {"number": 64, "value": 127}, "group": "control_change"}, {"time": 2333, "annotation": {"number": 64, "value": 0}, "group": "control_change"}, {"time": 2335, "annotation": {"number": 64, "value": 127}, "group": "control_change"}, {"time": 2357, "annotation": {"number": 64, "value": 0}, "group": "control_change"}, {"time": 2383, "annotation": {"number": 64, "value": 127}, "group": "control_change"}, {"time": 2405, "annotation": {"number": 64, "value": 0}, "group": "control_change"}, {"time": 2407, "annotation": {"number": 64, "value": 127}, "group": "control_change"}, {"time": 2429, "annotation": {"number": 64, "value": 0}, "group": "control_change"}, {"time": 2431, "annotation": {"number": 64, "value": 127}, "group": "control_change"}, {"time": 2453, "annotation": {"number": 64, "value": 0}, "group": "control_change"}, {"time": 2455, "annotation": {"number": 64, "value": 127}, "group": "control_change"}, {"time": 2477, "annotation": {"number": 64, "value": 0}, "group": "control_change"}, {"time": 2479, "annotation": {"number": 64, "value": 127}, "group": "control_change"}, {"time": 2501, "annotation": {"number": 64, "value": 0}, "group": "control_change"}, {"time": 2503, "annotation": {"number": 64, "value": 127}, "group": "control_change"}, {"time": 2525, "annotation": {"number": 64, "value": 0}, "group": "control_change"}, {"time": 2527, "annotation": {"number": 64, "value": 127}, "group": "control_change"}, {"time": 2549, "annotation": {"number": 64, "value": 0}, "group": "control_change"}, {"time": 2551, "annotation": {"number": 64, "value": 127}, "group": "control_change"}, {"time": 2573, "annotation": {"number": 64, "value": 0}, "group": "control_change"}, {"time": 2575, "annotation": {"number": 64, "value": 127}, "group": "control_change"}, {"time": 2597, "annotation": {"number": 64, "value": 0}, "group": "control_change"}, {"time": 2599, "annotation": {"number": 64, "value": 127}, "group": "control_change"}, {"time": 2621, "annotation": {"number": 64, "value": 0}, "group": "control_change"}, {"time": 2623, "annotation": {"number": 64, "value": 127}, "group": "control_change"}, {"time": 2645, "annotation": {"number": 64, "value": 0}, "group": "control_change"}, {"time": 2647, "annotation": {"number": 64, "value": 127}, "group": "control_change"}, {"time": 2669, "annotation": {"number": 64, "value": 0}, "group": "control_change"}, {"time": 2671, "annotation": {"number": 64, "value": 127}, "group": "control_change"}, {"time": 2693, "annotation": {"number": 64, "value": 0}, "group": "control_change"}, {"time": 2695, "annotation": {"number": 64, "value": 127}, "group": "control_change"}, {"time": 2717, "annotation": {"number": 64, "value": 0}, "group": "control_change"}, {"time": 2719, "annotation": {"number": 64, "value": 127}, "group": "control_change"}, {"time": 2728, "annotation": {"number": 64, "value": 127}, "group": "control_change"}, {"time": 2739, "annotation": {"number": 64, "value": 0}, "group": "control_change"}, {"time": 2741, "annotation": {"number": 64, "value": 127}, "group": "control_change"}, {"time": 2752, "annotation": {"number": 64, "value": 0}, "group": "control_change"}, {"time": 2754, "annotation": {"number": 64, "value": 127}, "group": "control_change"}, {"time": 2760, "annotation": {"number": 64, "value": 0}, "group": "control_change"}, {"time": 2765, "annotation": {"number": 64, "value": 127}, "group": "control_change"}, {"time": 2767, "annotation": {"number": 64, "value": 127}, "group": "control_change"}, {"time": 2767, "annotation": {"number": 64, "value": 0}, "group": "control_change"}, {"time": 2789, "annotation": {"number": 64, "value": 0}, "group": "control_change"}, {"time": 2791, "annotation": {"number": 64, "value": 127}, "group": "control_change"}, {"time": 2813, "annotation": {"number": 64, "value": 0}, "group": "control_change"}, {"time": 2815, "annotation": {"number": 64, "value": 127}, "group": "control_change"}, {"time": 2837, "annotation": {"number": 64, "value": 0}, "group": "control_change"}, {"time": 2839, "annotation": {"number": 64, "value": 127}, "group": "control_change"}, {"time": 2861, "annotation": {"number": 64, "value": 0}, "group": "control_change"}, {"time": 2863, "annotation": {"number": 64, "value": 127}, "group": "control_change"}, {"time": 2885, "annotation": {"number": 64, "value": 0}, "group": "control_change"}, {"time": 2887, "annotation": {"number": 64, "value": 127}, "group": "control_change"}, {"time": 2909, "annotation": {"number": 64, "value": 0}, "group": "control_change"}, {"time": 2911, "annotation": {"number": 64, "value": 127}, "group": "control_change"}, {"time": 2933, "annotation": {"number": 64, "value": 0}, "group": "control_change"}, {"time": 2935, "annotation": {"number": 64, "value": 127}, "group": "control_change"}, {"time": 2957, "annotation": {"number": 64, "value": 0}, "group": "control_change"}, {"time": 2959, "annotation": {"number": 64, "value": 127}, "group": "control_change"}, {"time": 2981, "annotation": {"number": 64, "value": 0}, "group": "control_change"}, {"time": 2983, "annotation": {"number": 64, "value": 127}, "group": "control_change"}, {"time": 3005, "annotation": {"number": 64, "value": 0}, "group": "control_change"}, {"time": 3007, "annotation": {"number": 64, "value": 127}, "group": "control_change"}, {"time": 3029, "annotation": {"number": 64, "value": 0}, "group": "control_change"}, {"time": 3031, "annotation": {"number": 64, "value": 127}, "group": "control_change"}, {"time": 3053, "annotation": {"number": 64, "value": 0}, "group": "control_change"}, {"time": 3055, "annotation": {"number": 64, "value": 127}, "group": "control_change"}, {"time": 3077, "annotation": {"number": 64, "value": 0}, "group": "control_change"}, {"time": 3079, "annotation": {"number": 64, "value": 127}, "group": "control_change"}, {"time": 3101, "annotation": {"number": 64, "value": 0}, "group": "control_change"}, {"time": 3103, "annotation": {"number": 64, "value": 127}, "group": "control_change"}, {"time": 3125, "annotation": {"number": 64, "value": 0}, "group": "control_change"}, {"time": 3127, "annotation": {"number": 64, "value": 127}, "group": "control_change"}, {"time": 3149, "annotation": {"number": 64, "value": 0}, "group": "control_change"}, {"time": 3151, "annotation": {"number": 64, "value": 127}, "group": "control_change"}, {"time": 3174, "annotation": {"number": 64, "value": 0}, "group": "control_change"}, {"time": 3175, "annotation": {"number": 64, "value": 127}, "group": "control_change"}, {"time": 3197, "annotation": {"number": 64, "value": 0}, "group": "control_change"}, {"time": 3200, "annotation": {"number": 64, "value": 127}, "group": "control_change"}, {"time": 3224, "annotation": {"number": 64, "value": 0}, "group": "control_change"}, {"time": 3226, "annotation": {"number": 64, "value": 127}, "group": "control_change"}, {"time": 3324, "annotation": {"number": 64, "value": 0}, "group": "control_change"}, {"time": 3325, "annotation": {"number": 64, "value": 127}, "group": "control_change"}, {"time": 3326, "annotation": {"number": 64, "value": 0}, "group": "control_change"}, {"time": 3327, "annotation": {"number": 64, "value": 127}, "group": "control_change"}, {"time": 3330, "annotation": {"number": 64, "value": 0}, "group": "control_change"}]}]}