{"metadata": {"schema_version": "0.2", "title": "None", "source_filename": "373.mid", "source_format": "midi"}, "resolution": 12, "tempos": [{"time": 0, "qpm": 86.00005160003096}, {"time": 3648, "qpm": 78.000078000078}, {"time": 3672, "qpm": 73.99998273333736}, {"time": 3780, "qpm": 72.00011520018433}, {"time": 3804, "qpm": 45.99999386666749}, {"time": 3816, "qpm": 86.00005160003096}], "time_signatures": [{"time": 0, "numerator": 1, "denominator": 4}], "tracks": [{"program": 0, "is_drum": false, "name": "MELODY", "notes": [{"time": 424, "pitch": 70, "duration": 7, "velocity": 85}, {"time": 430, "pitch": 68, "duration": 7, "velocity": 85}, {"time": 436, "pitch": 70, "duration": 8, "velocity": 85}, {"time": 442, "pitch": 71, "duration": 10, "velocity": 85}, {"time": 454, "pitch": 70, "duration": 6, "velocity": 85}, {"time": 466, "pitch": 68, "duration": 13, "velocity": 85}, {"time": 490, "pitch": 66, "duration": 4, "velocity": 85}, {"time": 496, "pitch": 66, "duration": 13, "velocity": 85}, {"time": 508, "pitch": 65, "duration": 7, "velocity": 85}, {"time": 514, "pitch": 66, "duration": 13, "velocity": 85}, {"time": 526, "pitch": 68, "duration": 8, "velocity": 85}, {"time": 532, "pitch": 70, "duration": 6, "velocity": 85}, {"time": 538, "pitch": 68, "duration": 8, "velocity": 85}, {"time": 544, "pitch": 70, "duration": 28, "velocity": 85}, {"time": 616, "pitch": 70, "duration": 4, "velocity": 85}, {"time": 622, "pitch": 68, "duration": 4, "velocity": 85}, {"time": 628, "pitch": 70, "duration": 7, "velocity": 85}, {"time": 634, "pitch": 71, "duration": 7, "velocity": 85}, {"time": 646, "pitch": 70, "duration": 6, "velocity": 85}, {"time": 659, "pitch": 68, "duration": 20, "velocity": 85}, {"time": 682, "pitch": 66, "duration": 5, "velocity": 85}, {"time": 688, "pitch": 66, "duration": 13, "velocity": 85}, {"time": 700, "pitch": 65, "duration": 6, "velocity": 85}, {"time": 706, "pitch": 70, "duration": 7, "velocity": 85}, {"time": 718, "pitch": 68, "duration": 7, "velocity": 85}, {"time": 724, "pitch": 66, "duration": 48, "velocity": 85}, {"time": 808, "pitch": 73, "duration": 18, "velocity": 85}, {"time": 832, "pitch": 63, "duration": 7, "velocity": 85}, {"time": 844, "pitch": 68, "duration": 4, "velocity": 85}, {"time": 850, "pitch": 68, "duration": 19, "velocity": 85}, {"time": 874, "pitch": 66, "duration": 3, "velocity": 85}, {"time": 880, "pitch": 66, "duration": 10, "velocity": 85}, {"time": 892, "pitch": 63, "duration": 5, "velocity": 85}, {"time": 898, "pitch": 63, "duration": 9, "velocity": 85}, {"time": 910, "pitch": 66, "duration": 6, "velocity": 85}, {"time": 916, "pitch": 70, "duration": 4, "velocity": 85}, {"time": 922, "pitch": 70, "duration": 12, "velocity": 85}, {"time": 1000, "pitch": 73, "duration": 21, "velocity": 85}, {"time": 1024, "pitch": 63, "duration": 12, "velocity": 85}, {"time": 1036, "pitch": 68, "duration": 4, "velocity": 85}, {"time": 1042, "pitch": 68, "duration": 24, "velocity": 85}, {"time": 1072, "pitch": 63, "duration": 9, "velocity": 85}, {"time": 1084, "pitch": 66, "duration": 5, "velocity": 85}, {"time": 1090, "pitch": 70, "duration": 18, "velocity": 85}, {"time": 1108, "pitch": 68, "duration": 6, "velocity": 85}, {"time": 1114, "pitch": 66, "duration": 31, "velocity": 85}, {"time": 1144, "pitch": 70, "duration": 5, "velocity": 85}, {"time": 1150, "pitch": 71, "duration": 3, "velocity": 85}, {"time": 1156, "pitch": 73, "duration": 3, "velocity": 85}, {"time": 1162, "pitch": 73, "duration": 25, "velocity": 85}, {"time": 1192, "pitch": 70, "duration": 6, "velocity": 85}, {"time": 1198, "pitch": 71, "duration": 7, "velocity": 85}, {"time": 1204, "pitch": 73, "duration": 2, "velocity": 85}, {"time": 1210, "pitch": 73, "duration": 9, "velocity": 85}, {"time": 1222, "pitch": 75, "duration": 6, "velocity": 85}, {"time": 1228, "pitch": 77, "duration": 7, "velocity": 85}, {"time": 1234, "pitch": 73, "duration": 21, "velocity": 85}, {"time": 1258, "pitch": 73, "duration": 5, "velocity": 85}, {"time": 1264, "pitch": 73, "duration": 12, "velocity": 85}, {"time": 1276, "pitch": 71, "duration": 4, "velocity": 85}, {"time": 1282, "pitch": 71, "duration": 14, "velocity": 85}, {"time": 1294, "pitch": 70, "duration": 6, "velocity": 85}, {"time": 1300, "pitch": 68, "duration": 5, "velocity": 85}, {"time": 1306, "pitch": 71, "duration": 22, "velocity": 85}, {"time": 1336, "pitch": 70, "duration": 5, "velocity": 85}, {"time": 1342, "pitch": 71, "duration": 7, "velocity": 85}, {"time": 1348, "pitch": 73, "duration": 3, "velocity": 85}, {"time": 1354, "pitch": 73, "duration": 27, "velocity": 85}, {"time": 1384, "pitch": 70, "duration": 6, "velocity": 85}, {"time": 1390, "pitch": 71, "duration": 7, "velocity": 85}, {"time": 1396, "pitch": 73, "duration": 4, "velocity": 85}, {"time": 1402, "pitch": 73, "duration": 9, "velocity": 85}, {"time": 1414, "pitch": 77, "duration": 7, "velocity": 85}, {"time": 1426, "pitch": 73, "duration": 22, "velocity": 85}, {"time": 1450, "pitch": 73, "duration": 6, "velocity": 85}, {"time": 1456, "pitch": 77, "duration": 11, "velocity": 85}, {"time": 1468, "pitch": 78, "duration": 5, "velocity": 85}, {"time": 1474, "pitch": 73, "duration": 16, "velocity": 85}, {"time": 1486, "pitch": 71, "duration": 5, "velocity": 85}, {"time": 1492, "pitch": 70, "duration": 2, "velocity": 85}, {"time": 1498, "pitch": 70, "duration": 9, "velocity": 85}, {"time": 1504, "pitch": 68, "duration": 30, "velocity": 85}, {"time": 1552, "pitch": 70, "duration": 11, "velocity": 85}, {"time": 1564, "pitch": 73, "duration": 3, "velocity": 85}, {"time": 1570, "pitch": 68, "duration": 21, "velocity": 85}, {"time": 1588, "pitch": 70, "duration": 6, "velocity": 85}, {"time": 1594, "pitch": 66, "duration": 28, "velocity": 85}, {"time": 1648, "pitch": 63, "duration": 9, "velocity": 85}, {"time": 1660, "pitch": 70, "duration": 7, "velocity": 85}, {"time": 1669, "pitch": 68, "duration": 22, "velocity": 85}, {"time": 1696, "pitch": 66, "duration": 4, "velocity": 85}, {"time": 1705, "pitch": 66, "duration": 40, "velocity": 85}, {"time": 2152, "pitch": 70, "duration": 7, "velocity": 75}, {"time": 2158, "pitch": 68, "duration": 7, "velocity": 75}, {"time": 2164, "pitch": 70, "duration": 8, "velocity": 75}, {"time": 2170, "pitch": 71, "duration": 10, "velocity": 75}, {"time": 2182, "pitch": 70, "duration": 6, "velocity": 75}, {"time": 2194, "pitch": 68, "duration": 13, "velocity": 75}, {"time": 2218, "pitch": 66, "duration": 4, "velocity": 75}, {"time": 2224, "pitch": 66, "duration": 13, "velocity": 75}, {"time": 2236, "pitch": 65, "duration": 7, "velocity": 75}, {"time": 2242, "pitch": 66, "duration": 13, "velocity": 75}, {"time": 2254, "pitch": 68, "duration": 8, "velocity": 75}, {"time": 2260, "pitch": 70, "duration": 6, "velocity": 75}, {"time": 2266, "pitch": 68, "duration": 8, "velocity": 75}, {"time": 2272, "pitch": 70, "duration": 28, "velocity": 75}, {"time": 2344, "pitch": 70, "duration": 4, "velocity": 75}, {"time": 2350, "pitch": 68, "duration": 4, "velocity": 75}, {"time": 2356, "pitch": 70, "duration": 7, "velocity": 75}, {"time": 2362, "pitch": 71, "duration": 7, "velocity": 75}, {"time": 2374, "pitch": 70, "duration": 6, "velocity": 75}, {"time": 2385, "pitch": 68, "duration": 20, "velocity": 75}, {"time": 2410, "pitch": 66, "duration": 5, "velocity": 75}, {"time": 2416, "pitch": 66, "duration": 13, "velocity": 75}, {"time": 2428, "pitch": 65, "duration": 6, "velocity": 75}, {"time": 2434, "pitch": 70, "duration": 7, "velocity": 75}, {"time": 2446, "pitch": 68, "duration": 7, "velocity": 75}, {"time": 2458, "pitch": 66, "duration": 48, "velocity": 75}, {"time": 2537, "pitch": 73, "duration": 19, "velocity": 75}, {"time": 2560, "pitch": 63, "duration": 7, "velocity": 75}, {"time": 2572, "pitch": 68, "duration": 4, "velocity": 75}, {"time": 2578, "pitch": 68, "duration": 19, "velocity": 75}, {"time": 2602, "pitch": 66, "duration": 3, "velocity": 75}, {"time": 2608, "pitch": 66, "duration": 10, "velocity": 75}, {"time": 2620, "pitch": 63, "duration": 5, "velocity": 75}, {"time": 2626, "pitch": 63, "duration": 9, "velocity": 75}, {"time": 2638, "pitch": 66, "duration": 6, "velocity": 75}, {"time": 2644, "pitch": 70, "duration": 4, "velocity": 75}, {"time": 2650, "pitch": 70, "duration": 12, "velocity": 75}, {"time": 2728, "pitch": 73, "duration": 14, "velocity": 75}, {"time": 2752, "pitch": 63, "duration": 12, "velocity": 75}, {"time": 2764, "pitch": 68, "duration": 4, "velocity": 75}, {"time": 2770, "pitch": 68, "duration": 24, "velocity": 75}, {"time": 2800, "pitch": 63, "duration": 9, "velocity": 75}, {"time": 2812, "pitch": 66, "duration": 5, "velocity": 75}, {"time": 2818, "pitch": 70, "duration": 18, "velocity": 75}, {"time": 2836, "pitch": 68, "duration": 6, "velocity": 75}, {"time": 2842, "pitch": 66, "duration": 31, "velocity": 75}, {"time": 2872, "pitch": 70, "duration": 5, "velocity": 75}, {"time": 2878, "pitch": 71, "duration": 3, "velocity": 75}, {"time": 2884, "pitch": 73, "duration": 3, "velocity": 75}, {"time": 2890, "pitch": 73, "duration": 25, "velocity": 75}, {"time": 2920, "pitch": 70, "duration": 6, "velocity": 75}, {"time": 2926, "pitch": 71, "duration": 7, "velocity": 75}, {"time": 2932, "pitch": 73, "duration": 2, "velocity": 75}, {"time": 2938, "pitch": 73, "duration": 9, "velocity": 75}, {"time": 2950, "pitch": 75, "duration": 6, "velocity": 75}, {"time": 2956, "pitch": 77, "duration": 7, "velocity": 75}, {"time": 2962, "pitch": 73, "duration": 21, "velocity": 75}, {"time": 2986, "pitch": 73, "duration": 5, "velocity": 75}, {"time": 2992, "pitch": 73, "duration": 12, "velocity": 75}, {"time": 3004, "pitch": 71, "duration": 4, "velocity": 75}, {"time": 3010, "pitch": 71, "duration": 14, "velocity": 75}, {"time": 3022, "pitch": 70, "duration": 6, "velocity": 75}, {"time": 3028, "pitch": 68, "duration": 5, "velocity": 75}, {"time": 3034, "pitch": 71, "duration": 22, "velocity": 75}, {"time": 3064, "pitch": 70, "duration": 5, "velocity": 75}, {"time": 3070, "pitch": 71, "duration": 7, "velocity": 75}, {"time": 3076, "pitch": 73, "duration": 3, "velocity": 75}, {"time": 3082, "pitch": 73, "duration": 27, "velocity": 75}, {"time": 3112, "pitch": 70, "duration": 6, "velocity": 75}, {"time": 3118, "pitch": 71, "duration": 7, "velocity": 75}, {"time": 3124, "pitch": 73, "duration": 4, "velocity": 75}, {"time": 3130, "pitch": 73, "duration": 9, "velocity": 75}, {"time": 3142, "pitch": 77, "duration": 7, "velocity": 75}, {"time": 3154, "pitch": 73, "duration": 22, "velocity": 75}, {"time": 3178, "pitch": 73, "duration": 6, "velocity": 75}, {"time": 3184, "pitch": 77, "duration": 11, "velocity": 75}, {"time": 3196, "pitch": 78, "duration": 5, "velocity": 75}, {"time": 3202, "pitch": 73, "duration": 16, "velocity": 75}, {"time": 3214, "pitch": 71, "duration": 5, "velocity": 75}, {"time": 3220, "pitch": 70, "duration": 2, "velocity": 75}, {"time": 3226, "pitch": 70, "duration": 9, "velocity": 75}, {"time": 3232, "pitch": 68, "duration": 30, "velocity": 75}, {"time": 3257, "pitch": 75, "duration": 4, "velocity": 112}, {"time": 3262, "pitch": 75, "duration": 4, "velocity": 99}, {"time": 3268, "pitch": 73, "duration": 3, "velocity": 100}, {"time": 3271, "pitch": 71, "duration": 3, "velocity": 66}, {"time": 3274, "pitch": 73, "duration": 10, "velocity": 96}, {"time": 3304, "pitch": 70, "duration": 4, "velocity": 112}, {"time": 3310, "pitch": 71, "duration": 6, "velocity": 89}, {"time": 3316, "pitch": 73, "duration": 2, "velocity": 85}, {"time": 3322, "pitch": 73, "duration": 12, "velocity": 112}, {"time": 3334, "pitch": 77, "duration": 7, "velocity": 112}, {"time": 3346, "pitch": 73, "duration": 24, "velocity": 100}, {"time": 3370, "pitch": 73, "duration": 3, "velocity": 100}, {"time": 3376, "pitch": 73, "duration": 10, "velocity": 117}, {"time": 3388, "pitch": 71, "duration": 5, "velocity": 77}, {"time": 3394, "pitch": 71, "duration": 9, "velocity": 85}, {"time": 3406, "pitch": 70, "duration": 5, "velocity": 85}, {"time": 3412, "pitch": 68, "duration": 4, "velocity": 75}, {"time": 3418, "pitch": 71, "duration": 24, "velocity": 96}, {"time": 3448, "pitch": 70, "duration": 5, "velocity": 75}, {"time": 3454, "pitch": 71, "duration": 3, "velocity": 75}, {"time": 3460, "pitch": 73, "duration": 3, "velocity": 75}, {"time": 3466, "pitch": 73, "duration": 25, "velocity": 75}, {"time": 3496, "pitch": 70, "duration": 6, "velocity": 75}, {"time": 3502, "pitch": 71, "duration": 7, "velocity": 75}, {"time": 3508, "pitch": 73, "duration": 2, "velocity": 75}, {"time": 3514, "pitch": 73, "duration": 9, "velocity": 75}, {"time": 3526, "pitch": 75, "duration": 6, "velocity": 75}, {"time": 3532, "pitch": 77, "duration": 7, "velocity": 75}, {"time": 3538, "pitch": 73, "duration": 21, "velocity": 75}, {"time": 3562, "pitch": 73, "duration": 5, "velocity": 75}, {"time": 3568, "pitch": 77, "duration": 11, "velocity": 75}, {"time": 3580, "pitch": 78, "duration": 5, "velocity": 75}, {"time": 3586, "pitch": 73, "duration": 16, "velocity": 75}, {"time": 3598, "pitch": 71, "duration": 5, "velocity": 75}, {"time": 3604, "pitch": 70, "duration": 2, "velocity": 75}, {"time": 3610, "pitch": 70, "duration": 9, "velocity": 75}, {"time": 3616, "pitch": 68, "duration": 30, "velocity": 75}, {"time": 3665, "pitch": 70, "duration": 10, "velocity": 89}, {"time": 3675, "pitch": 73, "duration": 6, "velocity": 92}, {"time": 3680, "pitch": 68, "duration": 19, "velocity": 70}, {"time": 3698, "pitch": 70, "duration": 5, "velocity": 63}, {"time": 3703, "pitch": 66, "duration": 32, "velocity": 69}, {"time": 3746, "pitch": 63, "duration": 14, "velocity": 78}, {"time": 3759, "pitch": 70, "duration": 9, "velocity": 83}, {"time": 3768, "pitch": 68, "duration": 25, "velocity": 70}, {"time": 3796, "pitch": 66, "duration": 8, "velocity": 66}, {"time": 3807, "pitch": 66, "duration": 34, "velocity": 76}]}, {"program": 0, "is_drum": false, "name": "BRIDGE", "notes": [{"time": 1744, "pitch": 78, "duration": 3, "velocity": 107}, {"time": 1747, "pitch": 77, "duration": 3, "velocity": 62}, {"time": 1750, "pitch": 71, "duration": 3, "velocity": 83}, {"time": 1753, "pitch": 73, "duration": 4, "velocity": 65}, {"time": 1756, "pitch": 78, "duration": 3, "velocity": 97}, {"time": 1759, "pitch": 77, "duration": 3, "velocity": 78}, {"time": 1762, "pitch": 70, "duration": 4, "velocity": 66}, {"time": 1765, "pitch": 75, "duration": 5, "velocity": 69}, {"time": 1768, "pitch": 78, "duration": 3, "velocity": 97}, {"time": 1771, "pitch": 77, "duration": 4, "velocity": 77}, {"time": 1774, "pitch": 70, "duration": 3, "velocity": 81}, {"time": 1777, "pitch": 75, "duration": 3, "velocity": 81}, {"time": 1780, "pitch": 78, "duration": 3, "velocity": 107}, {"time": 1783, "pitch": 77, "duration": 4, "velocity": 60}, {"time": 1786, "pitch": 71, "duration": 3, "velocity": 90}, {"time": 1789, "pitch": 73, "duration": 5, "velocity": 75}, {"time": 1792, "pitch": 78, "duration": 3, "velocity": 112}, {"time": 1795, "pitch": 77, "duration": 5, "velocity": 61}, {"time": 1798, "pitch": 68, "duration": 4, "velocity": 85}, {"time": 1801, "pitch": 75, "duration": 5, "velocity": 78}, {"time": 1804, "pitch": 78, "duration": 3, "velocity": 99}, {"time": 1807, "pitch": 77, "duration": 5, "velocity": 78}, {"time": 1810, "pitch": 68, "duration": 5, "velocity": 67}, {"time": 1813, "pitch": 75, "duration": 4, "velocity": 60}, {"time": 1816, "pitch": 78, "duration": 3, "velocity": 107}, {"time": 1819, "pitch": 77, "duration": 3, "velocity": 68}, {"time": 1822, "pitch": 68, "duration": 3, "velocity": 93}, {"time": 1825, "pitch": 73, "duration": 4, "velocity": 72}, {"time": 1828, "pitch": 78, "duration": 3, "velocity": 102}, {"time": 1831, "pitch": 77, "duration": 4, "velocity": 70}, {"time": 1834, "pitch": 68, "duration": 3, "velocity": 89}, {"time": 1837, "pitch": 73, "duration": 4, "velocity": 53}, {"time": 1840, "pitch": 78, "duration": 3, "velocity": 100}, {"time": 1843, "pitch": 77, "duration": 3, "velocity": 66}, {"time": 1846, "pitch": 70, "duration": 4, "velocity": 79}, {"time": 1849, "pitch": 75, "duration": 2, "velocity": 70}, {"time": 1852, "pitch": 78, "duration": 3, "velocity": 100}, {"time": 1855, "pitch": 77, "duration": 3, "velocity": 68}, {"time": 1858, "pitch": 70, "duration": 3, "velocity": 86}, {"time": 1861, "pitch": 75, "duration": 3, "velocity": 65}, {"time": 1864, "pitch": 46, "duration": 12, "velocity": 105}, {"time": 1864, "pitch": 78, "duration": 3, "velocity": 112}, {"time": 1867, "pitch": 77, "duration": 3, "velocity": 72}, {"time": 1870, "pitch": 70, "duration": 3, "velocity": 86}, {"time": 1873, "pitch": 75, "duration": 3, "velocity": 64}, {"time": 1876, "pitch": 51, "duration": 7, "velocity": 105}, {"time": 1876, "pitch": 78, "duration": 4, "velocity": 112}, {"time": 1879, "pitch": 77, "duration": 3, "velocity": 76}, {"time": 1882, "pitch": 53, "duration": 7, "velocity": 101}, {"time": 1882, "pitch": 70, "duration": 3, "velocity": 107}, {"time": 1885, "pitch": 75, "duration": 3, "velocity": 75}, {"time": 1888, "pitch": 54, "duration": 24, "velocity": 100}, {"time": 1888, "pitch": 78, "duration": 3, "velocity": 107}, {"time": 1891, "pitch": 77, "duration": 3, "velocity": 66}, {"time": 1894, "pitch": 73, "duration": 3, "velocity": 107}, {"time": 1897, "pitch": 70, "duration": 3, "velocity": 66}, {"time": 1900, "pitch": 68, "duration": 6, "velocity": 74}, {"time": 1903, "pitch": 66, "duration": 3, "velocity": 81}, {"time": 1906, "pitch": 68, "duration": 3, "velocity": 86}, {"time": 1909, "pitch": 68, "duration": 3, "velocity": 79}, {"time": 1912, "pitch": 56, "duration": 16, "velocity": 95}, {"time": 1912, "pitch": 73, "duration": 3, "velocity": 78}, {"time": 1915, "pitch": 75, "duration": 3, "velocity": 93}, {"time": 1918, "pitch": 78, "duration": 4, "velocity": 70}, {"time": 1921, "pitch": 80, "duration": 4, "velocity": 72}, {"time": 1924, "pitch": 58, "duration": 13, "velocity": 92}, {"time": 1924, "pitch": 82, "duration": 2, "velocity": 102}, {"time": 1927, "pitch": 85, "duration": 3, "velocity": 89}, {"time": 1930, "pitch": 87, "duration": 3, "velocity": 97}, {"time": 1933, "pitch": 85, "duration": 4, "velocity": 102}, {"time": 1936, "pitch": 61, "duration": 17, "velocity": 90}, {"time": 1936, "pitch": 75, "duration": 3, "velocity": 89}, {"time": 1939, "pitch": 77, "duration": 4, "velocity": 77}, {"time": 1942, "pitch": 78, "duration": 3, "velocity": 99}, {"time": 1945, "pitch": 77, "duration": 3, "velocity": 78}, {"time": 1948, "pitch": 78, "duration": 3, "velocity": 97}, {"time": 1951, "pitch": 75, "duration": 3, "velocity": 93}, {"time": 1954, "pitch": 59, "duration": 31, "velocity": 86}, {"time": 1954, "pitch": 71, "duration": 3, "velocity": 83}, {"time": 1957, "pitch": 73, "duration": 3, "velocity": 92}, {"time": 1960, "pitch": 78, "duration": 3, "velocity": 93}, {"time": 1963, "pitch": 75, "duration": 4, "velocity": 77}, {"time": 1966, "pitch": 71, "duration": 4, "velocity": 66}, {"time": 1969, "pitch": 75, "duration": 3, "velocity": 86}, {"time": 1972, "pitch": 78, "duration": 4, "velocity": 100}, {"time": 1975, "pitch": 75, "duration": 4, "velocity": 83}, {"time": 1978, "pitch": 71, "duration": 4, "velocity": 69}, {"time": 1981, "pitch": 75, "duration": 3, "velocity": 76}, {"time": 1984, "pitch": 58, "duration": 18, "velocity": 90}, {"time": 1984, "pitch": 78, "duration": 4, "velocity": 86}, {"time": 1987, "pitch": 75, "duration": 4, "velocity": 72}, {"time": 1990, "pitch": 71, "duration": 4, "velocity": 63}, {"time": 1993, "pitch": 75, "duration": 2, "velocity": 95}, {"time": 1996, "pitch": 78, "duration": 4, "velocity": 112}, {"time": 1999, "pitch": 75, "duration": 3, "velocity": 82}, {"time": 2002, "pitch": 56, "duration": 20, "velocity": 90}, {"time": 2002, "pitch": 71, "duration": 4, "velocity": 77}, {"time": 2005, "pitch": 75, "duration": 3, "velocity": 82}, {"time": 2008, "pitch": 73, "duration": 6, "velocity": 76}, {"time": 2008, "pitch": 78, "duration": 7, "velocity": 97}, {"time": 2014, "pitch": 71, "duration": 6, "velocity": 69}, {"time": 2014, "pitch": 75, "duration": 5, "velocity": 79}, {"time": 2020, "pitch": 54, "duration": 13, "velocity": 98}, {"time": 2020, "pitch": 73, "duration": 6, "velocity": 93}, {"time": 2020, "pitch": 78, "duration": 6, "velocity": 93}, {"time": 2026, "pitch": 68, "duration": 21, "velocity": 76}, {"time": 2026, "pitch": 73, "duration": 8, "velocity": 73}, {"time": 2032, "pitch": 56, "duration": 46, "velocity": 108}, {"time": 2056, "pitch": 73, "duration": 9, "velocity": 81}, {"time": 2056, "pitch": 77, "duration": 9, "velocity": 67}, {"time": 2068, "pitch": 82, "duration": 7, "velocity": 81}, {"time": 2074, "pitch": 80, "duration": 6, "velocity": 95}, {"time": 2076, "pitch": 85, "duration": 4, "velocity": 55}, {"time": 2078, "pitch": 90, "duration": 4, "velocity": 54}, {"time": 2080, "pitch": 92, "duration": 26, "velocity": 97}, {"time": 2128, "pitch": 51, "duration": 48, "velocity": 85}, {"time": 2176, "pitch": 44, "duration": 46, "velocity": 81}, {"time": 2224, "pitch": 49, "duration": 49, "velocity": 90}, {"time": 2272, "pitch": 53, "duration": 12, "velocity": 92}, {"time": 2284, "pitch": 52, "duration": 10, "velocity": 82}, {"time": 2296, "pitch": 61, "duration": 13, "velocity": 112}, {"time": 2308, "pitch": 59, "duration": 11, "velocity": 88}, {"time": 2320, "pitch": 58, "duration": 96, "velocity": 86}, {"time": 2416, "pitch": 49, "duration": 44, "velocity": 85}, {"time": 2464, "pitch": 54, "duration": 56, "velocity": 93}, {"time": 2548, "pitch": 63, "duration": 30, "velocity": 102}, {"time": 2608, "pitch": 61, "duration": 49, "velocity": 92}, {"time": 2656, "pitch": 54, "duration": 25, "velocity": 96}, {"time": 2680, "pitch": 53, "duration": 12, "velocity": 82}, {"time": 2692, "pitch": 52, "duration": 14, "velocity": 76}, {"time": 2704, "pitch": 51, "duration": 44, "velocity": 82}, {"time": 2752, "pitch": 63, "duration": 12, "velocity": 86}, {"time": 2764, "pitch": 71, "duration": 10, "velocity": 92}, {"time": 2776, "pitch": 71, "duration": 20, "velocity": 117}, {"time": 2788, "pitch": 70, "duration": 5, "velocity": 107}, {"time": 2794, "pitch": 73, "duration": 6, "velocity": 99}, {"time": 2800, "pitch": 71, "duration": 24, "velocity": 96}, {"time": 2824, "pitch": 70, "duration": 24, "velocity": 102}, {"time": 2860, "pitch": 68, "duration": 13, "velocity": 99}, {"time": 2872, "pitch": 70, "duration": 13, "velocity": 102}, {"time": 2884, "pitch": 73, "duration": 12, "velocity": 112}, {"time": 2896, "pitch": 68, "duration": 38, "velocity": 96}, {"time": 2920, "pitch": 70, "duration": 6, "velocity": 102}, {"time": 2926, "pitch": 71, "duration": 6, "velocity": 92}, {"time": 2932, "pitch": 73, "duration": 6, "velocity": 102}, {"time": 2938, "pitch": 73, "duration": 12, "velocity": 127}, {"time": 2950, "pitch": 77, "duration": 10, "velocity": 86}, {"time": 2962, "pitch": 73, "duration": 6, "velocity": 95}, {"time": 2968, "pitch": 73, "duration": 10, "velocity": 127}, {"time": 2980, "pitch": 71, "duration": 6, "velocity": 117}, {"time": 2986, "pitch": 70, "duration": 6, "velocity": 92}, {"time": 2992, "pitch": 71, "duration": 11, "velocity": 93}, {"time": 3037, "pitch": 71, "duration": 5, "velocity": 82}, {"time": 3043, "pitch": 73, "duration": 8, "velocity": 82}, {"time": 3053, "pitch": 70, "duration": 9, "velocity": 82}, {"time": 3065, "pitch": 70, "duration": 6, "velocity": 82}, {"time": 3070, "pitch": 71, "duration": 7, "velocity": 82}, {"time": 3076, "pitch": 73, "duration": 2, "velocity": 82}, {"time": 3082, "pitch": 73, "duration": 12, "velocity": 82}, {"time": 3094, "pitch": 70, "duration": 10, "velocity": 82}, {"time": 3105, "pitch": 75, "duration": 4, "velocity": 82}, {"time": 3108, "pitch": 78, "duration": 4, "velocity": 87}, {"time": 3111, "pitch": 85, "duration": 37, "velocity": 87}, {"time": 3112, "pitch": 73, "duration": 17, "velocity": 87}, {"time": 3160, "pitch": 87, "duration": 7, "velocity": 87}, {"time": 3166, "pitch": 85, "duration": 6, "velocity": 87}, {"time": 3172, "pitch": 82, "duration": 5, "velocity": 87}, {"time": 3178, "pitch": 75, "duration": 6, "velocity": 87}, {"time": 3184, "pitch": 78, "duration": 17, "velocity": 87}, {"time": 3233, "pitch": 73, "duration": 11, "velocity": 89}, {"time": 3245, "pitch": 71, "duration": 11, "velocity": 87}, {"time": 3257, "pitch": 70, "duration": 9, "velocity": 87}, {"time": 3269, "pitch": 63, "duration": 6, "velocity": 87}, {"time": 3274, "pitch": 61, "duration": 7, "velocity": 87}, {"time": 3280, "pitch": 65, "duration": 27, "velocity": 87}, {"time": 3339, "pitch": 58, "duration": 12, "velocity": 74}, {"time": 3352, "pitch": 59, "duration": 12, "velocity": 74}, {"time": 3363, "pitch": 61, "duration": 9, "velocity": 74}, {"time": 3376, "pitch": 63, "duration": 23, "velocity": 75}, {"time": 3406, "pitch": 61, "duration": 2, "velocity": 78}, {"time": 3412, "pitch": 59, "duration": 2, "velocity": 77}, {"time": 3418, "pitch": 63, "duration": 14, "velocity": 74}, {"time": 3430, "pitch": 73, "duration": 3, "velocity": 74}, {"time": 3436, "pitch": 71, "duration": 3, "velocity": 74}, {"time": 3442, "pitch": 78, "duration": 14, "velocity": 74}, {"time": 3466, "pitch": 80, "duration": 12, "velocity": 74}, {"time": 3478, "pitch": 82, "duration": 18, "velocity": 74}, {"time": 3497, "pitch": 82, "duration": 6, "velocity": 74}, {"time": 3503, "pitch": 83, "duration": 6, "velocity": 74}, {"time": 3508, "pitch": 85, "duration": 2, "velocity": 74}, {"time": 3515, "pitch": 85, "duration": 10, "velocity": 74}, {"time": 3527, "pitch": 89, "duration": 10, "velocity": 74}, {"time": 3539, "pitch": 85, "duration": 11, "velocity": 74}, {"time": 3556, "pitch": 83, "duration": 6, "velocity": 74}, {"time": 3562, "pitch": 82, "duration": 6, "velocity": 74}, {"time": 3568, "pitch": 75, "duration": 24, "velocity": 74}, {"time": 3616, "pitch": 73, "duration": 28, "velocity": 74}, {"time": 3728, "pitch": 66, "duration": 5, "velocity": 72}, {"time": 3732, "pitch": 68, "duration": 5, "velocity": 63}, {"time": 3736, "pitch": 70, "duration": 6, "velocity": 83}, {"time": 3741, "pitch": 68, "duration": 11, "velocity": 90}, {"time": 3746, "pitch": 78, "duration": 37, "velocity": 76}, {"time": 3770, "pitch": 66, "duration": 33, "velocity": 90}, {"time": 4179, "pitch": 87, "duration": 3, "velocity": 48}, {"time": 4181, "pitch": 90, "duration": 2, "velocity": 35}, {"time": 4183, "pitch": 92, "duration": 10, "velocity": 62}, {"time": 4191, "pitch": 99, "duration": 28, "velocity": 81}]}, {"program": 0, "is_drum": false, "name": "PIANO", "notes": [{"time": 16, "pitch": 59, "duration": 36, "velocity": 71}, {"time": 28, "pitch": 78, "duration": 13, "velocity": 99}, {"time": 40, "pitch": 77, "duration": 9, "velocity": 99}, {"time": 52, "pitch": 73, "duration": 13, "velocity": 84}, {"time": 64, "pitch": 59, "duration": 48, "velocity": 54}, {"time": 64, "pitch": 66, "duration": 25, "velocity": 99}, {"time": 76, "pitch": 78, "duration": 13, "velocity": 79}, {"time": 88, "pitch": 77, "duration": 25, "velocity": 99}, {"time": 106, "pitch": 73, "duration": 7, "velocity": 86}, {"time": 112, "pitch": 51, "duration": 14, "velocity": 99}, {"time": 124, "pitch": 58, "duration": 37, "velocity": 71}, {"time": 124, "pitch": 78, "duration": 13, "velocity": 99}, {"time": 136, "pitch": 77, "duration": 13, "velocity": 99}, {"time": 148, "pitch": 73, "duration": 13, "velocity": 99}, {"time": 160, "pitch": 51, "duration": 13, "velocity": 99}, {"time": 166, "pitch": 54, "duration": 45, "velocity": 99}, {"time": 172, "pitch": 58, "duration": 13, "velocity": 99}, {"time": 172, "pitch": 78, "duration": 13, "velocity": 99}, {"time": 184, "pitch": 77, "duration": 15, "velocity": 99}, {"time": 190, "pitch": 58, "duration": 19, "velocity": 99}, {"time": 196, "pitch": 73, "duration": 15, "velocity": 99}, {"time": 208, "pitch": 44, "duration": 7, "velocity": 99}, {"time": 214, "pitch": 51, "duration": 12, "velocity": 99}, {"time": 220, "pitch": 66, "duration": 14, "velocity": 99}, {"time": 226, "pitch": 51, "duration": 31, "velocity": 99}, {"time": 232, "pitch": 63, "duration": 21, "velocity": 99}, {"time": 244, "pitch": 58, "duration": 13, "velocity": 94}, {"time": 256, "pitch": 44, "duration": 25, "velocity": 99}, {"time": 262, "pitch": 51, "duration": 11, "velocity": 99}, {"time": 268, "pitch": 63, "duration": 13, "velocity": 99}, {"time": 274, "pitch": 51, "duration": 46, "velocity": 99}, {"time": 280, "pitch": 61, "duration": 31, "velocity": 99}, {"time": 292, "pitch": 58, "duration": 20, "velocity": 75}, {"time": 304, "pitch": 49, "duration": 24, "velocity": 84}, {"time": 310, "pitch": 56, "duration": 7, "velocity": 92}, {"time": 316, "pitch": 44, "duration": 33, "velocity": 42}, {"time": 316, "pitch": 59, "duration": 13, "velocity": 99}, {"time": 316, "pitch": 66, "duration": 19, "velocity": 77}, {"time": 328, "pitch": 56, "duration": 39, "velocity": 67}, {"time": 334, "pitch": 49, "duration": 66, "velocity": 44}, {"time": 334, "pitch": 59, "duration": 64, "velocity": 81}, {"time": 346, "pitch": 78, "duration": 13, "velocity": 86}, {"time": 364, "pitch": 83, "duration": 7, "velocity": 99}, {"time": 367, "pitch": 85, "duration": 7, "velocity": 61}, {"time": 370, "pitch": 86, "duration": 4, "velocity": 63}, {"time": 400, "pitch": 51, "duration": 44, "velocity": 99}, {"time": 406, "pitch": 58, "duration": 8, "velocity": 99}, {"time": 412, "pitch": 61, "duration": 14, "velocity": 99}, {"time": 418, "pitch": 67, "duration": 18, "velocity": 99}, {"time": 442, "pitch": 70, "duration": 5, "velocity": 99}, {"time": 454, "pitch": 63, "duration": 19, "velocity": 99}, {"time": 472, "pitch": 66, "duration": 21, "velocity": 99}, {"time": 472, "pitch": 70, "duration": 11, "velocity": 67}, {"time": 496, "pitch": 49, "duration": 36, "velocity": 99}, {"time": 496, "pitch": 66, "duration": 12, "velocity": 99}, {"time": 520, "pitch": 68, "duration": 7, "velocity": 90}, {"time": 544, "pitch": 49, "duration": 25, "velocity": 99}, {"time": 544, "pitch": 53, "duration": 25, "velocity": 99}, {"time": 568, "pitch": 52, "duration": 20, "velocity": 99}, {"time": 580, "pitch": 61, "duration": 37, "velocity": 99}, {"time": 586, "pitch": 51, "duration": 42, "velocity": 98}, {"time": 592, "pitch": 58, "duration": 25, "velocity": 99}, {"time": 592, "pitch": 67, "duration": 21, "velocity": 99}, {"time": 616, "pitch": 67, "duration": 7, "velocity": 99}, {"time": 640, "pitch": 56, "duration": 9, "velocity": 99}, {"time": 646, "pitch": 63, "duration": 9, "velocity": 99}, {"time": 652, "pitch": 66, "duration": 31, "velocity": 99}, {"time": 652, "pitch": 71, "duration": 9, "velocity": 99}, {"time": 658, "pitch": 63, "duration": 25, "velocity": 99}, {"time": 664, "pitch": 70, "duration": 10, "velocity": 99}, {"time": 676, "pitch": 70, "duration": 9, "velocity": 65}, {"time": 688, "pitch": 49, "duration": 19, "velocity": 99}, {"time": 688, "pitch": 59, "duration": 15, "velocity": 99}, {"time": 700, "pitch": 63, "duration": 15, "velocity": 99}, {"time": 706, "pitch": 49, "duration": 1, "velocity": 99}, {"time": 712, "pitch": 61, "duration": 10, "velocity": 99}, {"time": 736, "pitch": 61, "duration": 25, "velocity": 69}, {"time": 736, "pitch": 70, "duration": 10, "velocity": 69}, {"time": 760, "pitch": 64, "duration": 26, "velocity": 99}, {"time": 760, "pitch": 70, "duration": 10, "velocity": 99}, {"time": 769, "pitch": 70, "duration": 1, "velocity": 52}, {"time": 784, "pitch": 51, "duration": 26, "velocity": 99}, {"time": 784, "pitch": 58, "duration": 25, "velocity": 99}, {"time": 784, "pitch": 61, "duration": 19, "velocity": 99}, {"time": 784, "pitch": 67, "duration": 17, "velocity": 99}, {"time": 808, "pitch": 58, "duration": 1, "velocity": 99}, {"time": 808, "pitch": 61, "duration": 36, "velocity": 99}, {"time": 808, "pitch": 68, "duration": 13, "velocity": 99}, {"time": 820, "pitch": 67, "duration": 14, "velocity": 99}, {"time": 832, "pitch": 51, "duration": 13, "velocity": 99}, {"time": 832, "pitch": 66, "duration": 15, "velocity": 99}, {"time": 844, "pitch": 63, "duration": 32, "velocity": 99}, {"time": 844, "pitch": 70, "duration": 9, "velocity": 99}, {"time": 856, "pitch": 66, "duration": 19, "velocity": 99}, {"time": 880, "pitch": 49, "duration": 14, "velocity": 99}, {"time": 880, "pitch": 59, "duration": 12, "velocity": 98}, {"time": 892, "pitch": 51, "duration": 19, "velocity": 99}, {"time": 904, "pitch": 66, "duration": 9, "velocity": 99}, {"time": 922, "pitch": 73, "duration": 5, "velocity": 99}, {"time": 925, "pitch": 75, "duration": 4, "velocity": 99}, {"time": 928, "pitch": 54, "duration": 20, "velocity": 99}, {"time": 928, "pitch": 78, "duration": 12, "velocity": 99}, {"time": 937, "pitch": 61, "duration": 9, "velocity": 99}, {"time": 940, "pitch": 70, "duration": 10, "velocity": 99}, {"time": 946, "pitch": 61, "duration": 13, "velocity": 99}, {"time": 952, "pitch": 64, "duration": 14, "velocity": 99}, {"time": 958, "pitch": 61, "duration": 1, "velocity": 99}, {"time": 964, "pitch": 68, "duration": 20, "velocity": 99}, {"time": 976, "pitch": 51, "duration": 14, "velocity": 99}, {"time": 982, "pitch": 58, "duration": 8, "velocity": 99}, {"time": 988, "pitch": 61, "duration": 17, "velocity": 99}, {"time": 988, "pitch": 67, "duration": 13, "velocity": 99}, {"time": 1000, "pitch": 67, "duration": 1, "velocity": 99}, {"time": 1009, "pitch": 68, "duration": 11, "velocity": 99}, {"time": 1018, "pitch": 52, "duration": 4, "velocity": 99}, {"time": 1018, "pitch": 58, "duration": 5, "velocity": 96}, {"time": 1018, "pitch": 61, "duration": 5, "velocity": 99}, {"time": 1018, "pitch": 67, "duration": 7, "velocity": 99}, {"time": 1018, "pitch": 70, "duration": 7, "velocity": 99}, {"time": 1024, "pitch": 51, "duration": 17, "velocity": 96}, {"time": 1036, "pitch": 70, "duration": 10, "velocity": 99}, {"time": 1042, "pitch": 63, "duration": 31, "velocity": 99}, {"time": 1072, "pitch": 59, "duration": 14, "velocity": 99}, {"time": 1072, "pitch": 66, "duration": 13, "velocity": 99}, {"time": 1078, "pitch": 49, "duration": 51, "velocity": 99}, {"time": 1084, "pitch": 63, "duration": 15, "velocity": 99}, {"time": 1093, "pitch": 58, "duration": 12, "velocity": 99}, {"time": 1096, "pitch": 70, "duration": 9, "velocity": 99}, {"time": 1105, "pitch": 70, "duration": 1, "velocity": 98}, {"time": 1120, "pitch": 61, "duration": 25, "velocity": 99}, {"time": 1120, "pitch": 70, "duration": 8, "velocity": 73}, {"time": 1129, "pitch": 66, "duration": 9, "velocity": 44}, {"time": 1144, "pitch": 44, "duration": 13, "velocity": 99}, {"time": 1144, "pitch": 51, "duration": 13, "velocity": 99}, {"time": 1144, "pitch": 54, "duration": 13, "velocity": 99}, {"time": 1144, "pitch": 59, "duration": 8, "velocity": 99}, {"time": 1156, "pitch": 49, "duration": 57, "velocity": 99}, {"time": 1156, "pitch": 56, "duration": 14, "velocity": 99}, {"time": 1156, "pitch": 66, "duration": 14, "velocity": 99}, {"time": 1165, "pitch": 54, "duration": 26, "velocity": 99}, {"time": 1165, "pitch": 58, "duration": 17, "velocity": 99}, {"time": 1165, "pitch": 65, "duration": 19, "velocity": 99}, {"time": 1192, "pitch": 65, "duration": 14, "velocity": 99}, {"time": 1198, "pitch": 54, "duration": 19, "velocity": 99}, {"time": 1216, "pitch": 51, "duration": 14, "velocity": 99}, {"time": 1222, "pitch": 58, "duration": 8, "velocity": 99}, {"time": 1234, "pitch": 58, "duration": 26, "velocity": 99}, {"time": 1234, "pitch": 61, "duration": 17, "velocity": 99}, {"time": 1252, "pitch": 70, "duration": 9, "velocity": 99}, {"time": 1264, "pitch": 44, "duration": 15, "velocity": 99}, {"time": 1270, "pitch": 51, "duration": 12, "velocity": 99}, {"time": 1282, "pitch": 51, "duration": 32, "velocity": 99}, {"time": 1285, "pitch": 71, "duration": 8, "velocity": 99}, {"time": 1306, "pitch": 54, "duration": 19, "velocity": 99}, {"time": 1312, "pitch": 49, "duration": 13, "velocity": 99}, {"time": 1324, "pitch": 54, "duration": 1, "velocity": 90}, {"time": 1324, "pitch": 56, "duration": 9, "velocity": 99}, {"time": 1324, "pitch": 66, "duration": 14, "velocity": 99}, {"time": 1336, "pitch": 63, "duration": 23, "velocity": 99}, {"time": 1360, "pitch": 54, "duration": 26, "velocity": 99}, {"time": 1360, "pitch": 68, "duration": 14, "velocity": 99}, {"time": 1372, "pitch": 70, "duration": 8, "velocity": 99}, {"time": 1378, "pitch": 61, "duration": 8, "velocity": 99}, {"time": 1384, "pitch": 46, "duration": 3, "velocity": 99}, {"time": 1384, "pitch": 65, "duration": 13, "velocity": 99}, {"time": 1390, "pitch": 54, "duration": 19, "velocity": 99}, {"time": 1396, "pitch": 70, "duration": 7, "velocity": 99}, {"time": 1402, "pitch": 71, "duration": 8, "velocity": 99}, {"time": 1402, "pitch": 73, "duration": 13, "velocity": 99}, {"time": 1408, "pitch": 51, "duration": 14, "velocity": 99}, {"time": 1414, "pitch": 58, "duration": 8, "velocity": 99}, {"time": 1420, "pitch": 67, "duration": 19, "velocity": 99}, {"time": 1426, "pitch": 58, "duration": 21, "velocity": 99}, {"time": 1438, "pitch": 68, "duration": 20, "velocity": 99}, {"time": 1450, "pitch": 61, "duration": 7, "velocity": 99}, {"time": 1456, "pitch": 56, "duration": 20, "velocity": 99}, {"time": 1459, "pitch": 63, "duration": 9, "velocity": 99}, {"time": 1471, "pitch": 63, "duration": 8, "velocity": 99}, {"time": 1480, "pitch": 66, "duration": 7, "velocity": 99}, {"time": 1480, "pitch": 75, "duration": 20, "velocity": 99}, {"time": 1483, "pitch": 63, "duration": 21, "velocity": 99}, {"time": 1504, "pitch": 49, "duration": 49, "velocity": 99}, {"time": 1516, "pitch": 66, "duration": 25, "velocity": 65}, {"time": 1552, "pitch": 54, "duration": 23, "velocity": 99}, {"time": 1552, "pitch": 61, "duration": 12, "velocity": 99}, {"time": 1552, "pitch": 70, "duration": 9, "velocity": 99}, {"time": 1576, "pitch": 53, "duration": 22, "velocity": 99}, {"time": 1576, "pitch": 61, "duration": 13, "velocity": 99}, {"time": 1600, "pitch": 51, "duration": 41, "velocity": 99}, {"time": 1600, "pitch": 58, "duration": 49, "velocity": 88}, {"time": 1600, "pitch": 61, "duration": 39, "velocity": 61}, {"time": 1600, "pitch": 66, "duration": 12, "velocity": 42}, {"time": 1648, "pitch": 44, "duration": 25, "velocity": 99}, {"time": 1648, "pitch": 51, "duration": 13, "velocity": 99}, {"time": 1648, "pitch": 59, "duration": 17, "velocity": 99}, {"time": 1672, "pitch": 49, "duration": 21, "velocity": 99}, {"time": 1672, "pitch": 59, "duration": 25, "velocity": 99}, {"time": 1696, "pitch": 61, "duration": 49, "velocity": 86}, {"time": 1705, "pitch": 49, "duration": 34, "velocity": 44}, {"time": 1744, "pitch": 59, "duration": 36, "velocity": 92}, {"time": 1744, "pitch": 66, "duration": 11, "velocity": 99}, {"time": 1762, "pitch": 66, "duration": 13, "velocity": 99}, {"time": 1774, "pitch": 66, "duration": 1, "velocity": 99}, {"time": 1792, "pitch": 59, "duration": 19, "velocity": 99}, {"time": 1798, "pitch": 66, "duration": 10, "velocity": 99}, {"time": 1810, "pitch": 59, "duration": 1, "velocity": 99}, {"time": 1810, "pitch": 66, "duration": 21, "velocity": 99}, {"time": 1834, "pitch": 66, "duration": 7, "velocity": 99}, {"time": 1840, "pitch": 51, "duration": 19, "velocity": 99}, {"time": 1846, "pitch": 58, "duration": 13, "velocity": 99}, {"time": 1858, "pitch": 58, "duration": 1, "velocity": 99}, {"time": 1888, "pitch": 51, "duration": 20, "velocity": 99}, {"time": 1894, "pitch": 58, "duration": 8, "velocity": 96}, {"time": 1900, "pitch": 54, "duration": 13, "velocity": 99}, {"time": 1906, "pitch": 58, "duration": 8, "velocity": 99}, {"time": 1909, "pitch": 70, "duration": 7, "velocity": 65}, {"time": 1918, "pitch": 51, "duration": 20, "velocity": 99}, {"time": 1918, "pitch": 58, "duration": 13, "velocity": 99}, {"time": 1918, "pitch": 61, "duration": 8, "velocity": 98}, {"time": 1924, "pitch": 66, "duration": 13, "velocity": 99}, {"time": 1930, "pitch": 70, "duration": 9, "velocity": 54}, {"time": 1936, "pitch": 56, "duration": 11, "velocity": 99}, {"time": 1942, "pitch": 63, "duration": 43, "velocity": 99}, {"time": 1954, "pitch": 56, "duration": 13, "velocity": 99}, {"time": 1984, "pitch": 56, "duration": 13, "velocity": 99}, {"time": 1990, "pitch": 44, "duration": 3, "velocity": 50}, {"time": 1990, "pitch": 63, "duration": 13, "velocity": 99}, {"time": 2032, "pitch": 49, "duration": 51, "velocity": 99}, {"time": 2056, "pitch": 61, "duration": 26, "velocity": 79}, {"time": 2074, "pitch": 68, "duration": 30, "velocity": 99}, {"time": 2128, "pitch": 51, "duration": 44, "velocity": 99}, {"time": 2134, "pitch": 58, "duration": 8, "velocity": 99}, {"time": 2140, "pitch": 61, "duration": 14, "velocity": 99}, {"time": 2146, "pitch": 67, "duration": 18, "velocity": 99}, {"time": 2170, "pitch": 70, "duration": 5, "velocity": 99}, {"time": 2182, "pitch": 63, "duration": 19, "velocity": 99}, {"time": 2200, "pitch": 66, "duration": 21, "velocity": 99}, {"time": 2200, "pitch": 70, "duration": 11, "velocity": 67}, {"time": 2224, "pitch": 49, "duration": 36, "velocity": 99}, {"time": 2224, "pitch": 66, "duration": 12, "velocity": 99}, {"time": 2248, "pitch": 68, "duration": 7, "velocity": 90}, {"time": 2272, "pitch": 49, "duration": 25, "velocity": 99}, {"time": 2272, "pitch": 53, "duration": 25, "velocity": 99}, {"time": 2296, "pitch": 52, "duration": 20, "velocity": 99}, {"time": 2308, "pitch": 61, "duration": 37, "velocity": 99}, {"time": 2314, "pitch": 51, "duration": 42, "velocity": 98}, {"time": 2320, "pitch": 58, "duration": 25, "velocity": 99}, {"time": 2320, "pitch": 67, "duration": 21, "velocity": 99}, {"time": 2344, "pitch": 67, "duration": 7, "velocity": 99}, {"time": 2368, "pitch": 56, "duration": 9, "velocity": 99}, {"time": 2374, "pitch": 63, "duration": 9, "velocity": 99}, {"time": 2380, "pitch": 66, "duration": 31, "velocity": 99}, {"time": 2380, "pitch": 71, "duration": 9, "velocity": 99}, {"time": 2386, "pitch": 63, "duration": 25, "velocity": 99}, {"time": 2392, "pitch": 70, "duration": 10, "velocity": 99}, {"time": 2404, "pitch": 70, "duration": 9, "velocity": 65}, {"time": 2416, "pitch": 49, "duration": 19, "velocity": 99}, {"time": 2416, "pitch": 59, "duration": 15, "velocity": 99}, {"time": 2428, "pitch": 63, "duration": 15, "velocity": 99}, {"time": 2434, "pitch": 49, "duration": 1, "velocity": 99}, {"time": 2440, "pitch": 61, "duration": 10, "velocity": 99}, {"time": 2464, "pitch": 61, "duration": 25, "velocity": 69}, {"time": 2464, "pitch": 70, "duration": 10, "velocity": 69}, {"time": 2488, "pitch": 64, "duration": 26, "velocity": 99}, {"time": 2488, "pitch": 70, "duration": 10, "velocity": 99}, {"time": 2497, "pitch": 70, "duration": 1, "velocity": 52}, {"time": 2512, "pitch": 51, "duration": 26, "velocity": 99}, {"time": 2512, "pitch": 58, "duration": 25, "velocity": 99}, {"time": 2512, "pitch": 61, "duration": 19, "velocity": 99}, {"time": 2512, "pitch": 67, "duration": 17, "velocity": 99}, {"time": 2536, "pitch": 58, "duration": 1, "velocity": 99}, {"time": 2536, "pitch": 61, "duration": 36, "velocity": 99}, {"time": 2536, "pitch": 68, "duration": 13, "velocity": 99}, {"time": 2548, "pitch": 67, "duration": 14, "velocity": 99}, {"time": 2560, "pitch": 51, "duration": 13, "velocity": 99}, {"time": 2560, "pitch": 66, "duration": 15, "velocity": 99}, {"time": 2572, "pitch": 63, "duration": 32, "velocity": 99}, {"time": 2572, "pitch": 70, "duration": 9, "velocity": 99}, {"time": 2584, "pitch": 66, "duration": 19, "velocity": 99}, {"time": 2608, "pitch": 49, "duration": 14, "velocity": 99}, {"time": 2608, "pitch": 59, "duration": 12, "velocity": 98}, {"time": 2620, "pitch": 51, "duration": 19, "velocity": 99}, {"time": 2632, "pitch": 66, "duration": 9, "velocity": 99}, {"time": 2650, "pitch": 73, "duration": 5, "velocity": 99}, {"time": 2653, "pitch": 75, "duration": 4, "velocity": 99}, {"time": 2656, "pitch": 54, "duration": 20, "velocity": 99}, {"time": 2656, "pitch": 78, "duration": 12, "velocity": 99}, {"time": 2665, "pitch": 61, "duration": 9, "velocity": 99}, {"time": 2668, "pitch": 70, "duration": 10, "velocity": 99}, {"time": 2674, "pitch": 61, "duration": 13, "velocity": 99}, {"time": 2680, "pitch": 64, "duration": 14, "velocity": 99}, {"time": 2686, "pitch": 61, "duration": 1, "velocity": 99}, {"time": 2692, "pitch": 68, "duration": 20, "velocity": 99}, {"time": 2704, "pitch": 51, "duration": 14, "velocity": 99}, {"time": 2710, "pitch": 58, "duration": 8, "velocity": 99}, {"time": 2716, "pitch": 61, "duration": 17, "velocity": 99}, {"time": 2716, "pitch": 67, "duration": 13, "velocity": 99}, {"time": 2728, "pitch": 67, "duration": 1, "velocity": 99}, {"time": 2737, "pitch": 68, "duration": 11, "velocity": 99}, {"time": 2746, "pitch": 52, "duration": 4, "velocity": 99}, {"time": 2746, "pitch": 58, "duration": 5, "velocity": 96}, {"time": 2746, "pitch": 61, "duration": 5, "velocity": 99}, {"time": 2746, "pitch": 67, "duration": 7, "velocity": 99}, {"time": 2746, "pitch": 70, "duration": 7, "velocity": 99}, {"time": 2752, "pitch": 51, "duration": 17, "velocity": 96}, {"time": 2764, "pitch": 70, "duration": 10, "velocity": 99}, {"time": 2770, "pitch": 63, "duration": 31, "velocity": 99}, {"time": 2800, "pitch": 59, "duration": 14, "velocity": 99}, {"time": 2800, "pitch": 66, "duration": 13, "velocity": 99}, {"time": 2806, "pitch": 49, "duration": 51, "velocity": 99}, {"time": 2812, "pitch": 63, "duration": 15, "velocity": 99}, {"time": 2824, "pitch": 70, "duration": 9, "velocity": 99}, {"time": 2833, "pitch": 70, "duration": 1, "velocity": 98}, {"time": 2848, "pitch": 61, "duration": 25, "velocity": 99}, {"time": 2848, "pitch": 70, "duration": 8, "velocity": 73}, {"time": 2857, "pitch": 66, "duration": 9, "velocity": 44}, {"time": 2872, "pitch": 44, "duration": 13, "velocity": 99}, {"time": 2872, "pitch": 51, "duration": 13, "velocity": 99}, {"time": 2872, "pitch": 54, "duration": 13, "velocity": 99}, {"time": 2872, "pitch": 59, "duration": 8, "velocity": 99}, {"time": 2884, "pitch": 49, "duration": 57, "velocity": 99}, {"time": 2884, "pitch": 56, "duration": 14, "velocity": 99}, {"time": 2884, "pitch": 66, "duration": 14, "velocity": 99}, {"time": 2896, "pitch": 54, "duration": 26, "velocity": 99}, {"time": 2896, "pitch": 58, "duration": 17, "velocity": 99}, {"time": 2896, "pitch": 65, "duration": 18, "velocity": 99}, {"time": 2920, "pitch": 65, "duration": 14, "velocity": 99}, {"time": 2926, "pitch": 54, "duration": 19, "velocity": 99}, {"time": 2944, "pitch": 51, "duration": 14, "velocity": 99}, {"time": 2950, "pitch": 58, "duration": 8, "velocity": 99}, {"time": 2962, "pitch": 58, "duration": 26, "velocity": 99}, {"time": 2962, "pitch": 61, "duration": 17, "velocity": 99}, {"time": 2992, "pitch": 44, "duration": 15, "velocity": 99}, {"time": 2998, "pitch": 51, "duration": 12, "velocity": 99}, {"time": 3010, "pitch": 51, "duration": 32, "velocity": 99}, {"time": 3013, "pitch": 71, "duration": 8, "velocity": 99}, {"time": 3034, "pitch": 54, "duration": 19, "velocity": 99}, {"time": 3040, "pitch": 49, "duration": 13, "velocity": 99}, {"time": 3052, "pitch": 54, "duration": 1, "velocity": 90}, {"time": 3052, "pitch": 56, "duration": 9, "velocity": 99}, {"time": 3052, "pitch": 66, "duration": 14, "velocity": 99}, {"time": 3064, "pitch": 63, "duration": 23, "velocity": 99}, {"time": 3088, "pitch": 54, "duration": 26, "velocity": 99}, {"time": 3088, "pitch": 68, "duration": 14, "velocity": 99}, {"time": 3100, "pitch": 70, "duration": 8, "velocity": 99}, {"time": 3106, "pitch": 61, "duration": 8, "velocity": 99}, {"time": 3112, "pitch": 46, "duration": 60, "velocity": 99}, {"time": 3112, "pitch": 65, "duration": 13, "velocity": 99}, {"time": 3118, "pitch": 54, "duration": 19, "velocity": 99}, {"time": 3124, "pitch": 70, "duration": 7, "velocity": 99}, {"time": 3130, "pitch": 71, "duration": 8, "velocity": 99}, {"time": 3130, "pitch": 73, "duration": 13, "velocity": 99}, {"time": 3136, "pitch": 51, "duration": 14, "velocity": 99}, {"time": 3142, "pitch": 58, "duration": 8, "velocity": 99}, {"time": 3148, "pitch": 67, "duration": 19, "velocity": 99}, {"time": 3154, "pitch": 58, "duration": 21, "velocity": 99}, {"time": 3166, "pitch": 68, "duration": 20, "velocity": 99}, {"time": 3178, "pitch": 61, "duration": 7, "velocity": 99}, {"time": 3184, "pitch": 56, "duration": 20, "velocity": 99}, {"time": 3190, "pitch": 63, "duration": 6, "velocity": 99}, {"time": 3202, "pitch": 63, "duration": 5, "velocity": 99}, {"time": 3208, "pitch": 66, "duration": 7, "velocity": 99}, {"time": 3208, "pitch": 75, "duration": 20, "velocity": 99}, {"time": 3215, "pitch": 63, "duration": 17, "velocity": 99}, {"time": 3232, "pitch": 49, "duration": 49, "velocity": 99}, {"time": 3244, "pitch": 66, "duration": 25, "velocity": 65}, {"time": 3280, "pitch": 54, "duration": 23, "velocity": 99}, {"time": 3280, "pitch": 61, "duration": 12, "velocity": 99}, {"time": 3280, "pitch": 70, "duration": 9, "velocity": 99}, {"time": 3304, "pitch": 53, "duration": 22, "velocity": 99}, {"time": 3304, "pitch": 61, "duration": 13, "velocity": 99}, {"time": 3328, "pitch": 51, "duration": 41, "velocity": 99}, {"time": 3328, "pitch": 58, "duration": 49, "velocity": 88}, {"time": 3328, "pitch": 61, "duration": 39, "velocity": 61}, {"time": 3328, "pitch": 66, "duration": 12, "velocity": 42}, {"time": 3376, "pitch": 44, "duration": 25, "velocity": 99}, {"time": 3376, "pitch": 51, "duration": 13, "velocity": 99}, {"time": 3376, "pitch": 59, "duration": 17, "velocity": 99}, {"time": 3400, "pitch": 49, "duration": 21, "velocity": 99}, {"time": 3400, "pitch": 59, "duration": 24, "velocity": 99}, {"time": 3424, "pitch": 49, "duration": 28, "velocity": 99}, {"time": 3429, "pitch": 61, "duration": 30, "velocity": 99}, {"time": 3436, "pitch": 68, "duration": 3, "velocity": 99}, {"time": 3436, "pitch": 66, "duration": 5, "velocity": 77}, {"time": 3442, "pitch": 65, "duration": 14, "velocity": 99}, {"time": 3442, "pitch": 68, "duration": 13, "velocity": 96}, {"time": 3453, "pitch": 49, "duration": 10, "velocity": 92}, {"time": 3460, "pitch": 65, "duration": 12, "velocity": 99}, {"time": 3460, "pitch": 68, "duration": 12, "velocity": 99}, {"time": 3466, "pitch": 61, "duration": 7, "velocity": 99}, {"time": 3472, "pitch": 42, "duration": 34, "velocity": 99}, {"time": 3478, "pitch": 54, "duration": 19, "velocity": 96}, {"time": 3483, "pitch": 58, "duration": 18, "velocity": 99}, {"time": 3490, "pitch": 61, "duration": 18, "velocity": 99}, {"time": 3496, "pitch": 66, "duration": 13, "velocity": 99}, {"time": 3501, "pitch": 54, "duration": 3, "velocity": 84}, {"time": 3507, "pitch": 58, "duration": 3, "velocity": 99}, {"time": 3520, "pitch": 39, "duration": 34, "velocity": 99}, {"time": 3520, "pitch": 58, "duration": 36, "velocity": 99}, {"time": 3520, "pitch": 55, "duration": 8, "velocity": 99}, {"time": 3526, "pitch": 51, "duration": 19, "velocity": 99}, {"time": 3531, "pitch": 55, "duration": 20, "velocity": 99}, {"time": 3538, "pitch": 61, "duration": 19, "velocity": 99}, {"time": 3549, "pitch": 51, "duration": 8, "velocity": 92}, {"time": 3555, "pitch": 55, "duration": 2, "velocity": 99}, {"time": 3568, "pitch": 44, "duration": 35, "velocity": 99}, {"time": 3568, "pitch": 63, "duration": 13, "velocity": 99}, {"time": 3568, "pitch": 59, "duration": 14, "velocity": 99}, {"time": 3579, "pitch": 56, "duration": 8, "velocity": 99}, {"time": 3586, "pitch": 63, "duration": 20, "velocity": 99}, {"time": 3587, "pitch": 59, "duration": 1, "velocity": 81}, {"time": 3598, "pitch": 56, "duration": 6, "velocity": 88}, {"time": 3604, "pitch": 59, "duration": 1, "velocity": 99}, {"time": 3616, "pitch": 37, "duration": 35, "velocity": 99}, {"time": 3616, "pitch": 61, "duration": 15, "velocity": 99}, {"time": 3623, "pitch": 44, "duration": 28, "velocity": 73}, {"time": 3628, "pitch": 49, "duration": 25, "velocity": 99}, {"time": 3634, "pitch": 61, "duration": 17, "velocity": 84}, {"time": 3634, "pitch": 56, "duration": 17, "velocity": 79}, {"time": 3634, "pitch": 65, "duration": 17, "velocity": 99}, {"time": 3664, "pitch": 42, "duration": 10, "velocity": 99}, {"time": 3665, "pitch": 73, "duration": 10, "velocity": 86}, {"time": 3665, "pitch": 70, "duration": 10, "velocity": 88}, {"time": 3674, "pitch": 66, "duration": 3, "velocity": 99}, {"time": 3680, "pitch": 65, "duration": 13, "velocity": 96}, {"time": 3680, "pitch": 73, "duration": 11, "velocity": 79}, {"time": 3681, "pitch": 41, "duration": 9, "velocity": 77}, {"time": 3706, "pitch": 66, "duration": 13, "velocity": 84}, {"time": 3706, "pitch": 70, "duration": 12, "velocity": 52}, {"time": 3707, "pitch": 39, "duration": 37, "velocity": 99}, {"time": 3707, "pitch": 63, "duration": 11, "velocity": 94}, {"time": 3713, "pitch": 46, "duration": 30, "velocity": 54}, {"time": 3717, "pitch": 51, "duration": 27, "velocity": 81}, {"time": 3722, "pitch": 63, "duration": 18, "velocity": 99}, {"time": 3738, "pitch": 70, "duration": 10, "velocity": 99}, {"time": 3743, "pitch": 63, "duration": 5, "velocity": 77}, {"time": 3769, "pitch": 61, "duration": 39, "velocity": 81}, {"time": 3769, "pitch": 68, "duration": 39, "velocity": 77}, {"time": 3769, "pitch": 37, "duration": 40, "velocity": 88}, {"time": 3769, "pitch": 49, "duration": 39, "velocity": 84}, {"time": 3769, "pitch": 65, "duration": 39, "velocity": 92}, {"time": 3809, "pitch": 54, "duration": 18, "velocity": 99}, {"time": 3809, "pitch": 59, "duration": 15, "velocity": 77}, {"time": 3821, "pitch": 78, "duration": 8, "velocity": 99}, {"time": 3833, "pitch": 77, "duration": 9, "velocity": 99}, {"time": 3844, "pitch": 49, "duration": 15, "velocity": 40}, {"time": 3844, "pitch": 73, "duration": 12, "velocity": 59}, {"time": 3857, "pitch": 59, "duration": 13, "velocity": 99}, {"time": 3863, "pitch": 66, "duration": 12, "velocity": 99}, {"time": 3868, "pitch": 78, "duration": 7, "velocity": 99}, {"time": 3875, "pitch": 66, "duration": 1, "velocity": 99}, {"time": 3880, "pitch": 77, "duration": 9, "velocity": 99}, {"time": 3892, "pitch": 73, "duration": 19, "velocity": 73}, {"time": 3904, "pitch": 51, "duration": 14, "velocity": 99}, {"time": 3910, "pitch": 58, "duration": 9, "velocity": 99}, {"time": 3916, "pitch": 78, "duration": 13, "velocity": 99}, {"time": 3922, "pitch": 58, "duration": 12, "velocity": 99}, {"time": 3928, "pitch": 77, "duration": 8, "velocity": 99}, {"time": 3934, "pitch": 58, "duration": 1, "velocity": 99}, {"time": 3940, "pitch": 73, "duration": 13, "velocity": 99}, {"time": 3952, "pitch": 51, "duration": 13, "velocity": 99}, {"time": 3958, "pitch": 58, "duration": 8, "velocity": 99}, {"time": 3964, "pitch": 70, "duration": 5, "velocity": 61}, {"time": 3964, "pitch": 78, "duration": 10, "velocity": 99}, {"time": 3970, "pitch": 58, "duration": 13, "velocity": 99}, {"time": 3976, "pitch": 80, "duration": 7, "velocity": 99}, {"time": 3981, "pitch": 61, "duration": 18, "velocity": 99}, {"time": 3981, "pitch": 82, "duration": 7, "velocity": 99}, {"time": 3987, "pitch": 73, "duration": 9, "velocity": 94}, {"time": 3999, "pitch": 44, "duration": 13, "velocity": 99}, {"time": 4005, "pitch": 51, "duration": 14, "velocity": 99}, {"time": 4011, "pitch": 66, "duration": 13, "velocity": 99}, {"time": 4017, "pitch": 44, "duration": 29, "velocity": 99}, {"time": 4023, "pitch": 63, "duration": 17, "velocity": 99}, {"time": 4029, "pitch": 51, "duration": 13, "velocity": 99}, {"time": 4035, "pitch": 58, "duration": 7, "velocity": 99}, {"time": 4041, "pitch": 61, "duration": 14, "velocity": 99}, {"time": 4044, "pitch": 47, "duration": 4, "velocity": 99}, {"time": 4047, "pitch": 44, "duration": 7, "velocity": 99}, {"time": 4053, "pitch": 51, "duration": 43, "velocity": 99}, {"time": 4059, "pitch": 66, "duration": 13, "velocity": 99}, {"time": 4065, "pitch": 44, "duration": 31, "velocity": 99}, {"time": 4070, "pitch": 63, "duration": 25, "velocity": 99}, {"time": 4076, "pitch": 61, "duration": 36, "velocity": 99}, {"time": 4082, "pitch": 58, "duration": 21, "velocity": 99}, {"time": 4088, "pitch": 56, "duration": 7, "velocity": 99}, {"time": 4094, "pitch": 49, "duration": 15, "velocity": 99}, {"time": 4103, "pitch": 56, "duration": 9, "velocity": 99}, {"time": 4104, "pitch": 44, "duration": 100, "velocity": 42}, {"time": 4111, "pitch": 59, "duration": 9, "velocity": 92}, {"time": 4111, "pitch": 65, "duration": 17, "velocity": 99}, {"time": 4118, "pitch": 56, "duration": 69, "velocity": 99}, {"time": 4126, "pitch": 63, "duration": 33, "velocity": 81}, {"time": 4126, "pitch": 68, "duration": 16, "velocity": 92}, {"time": 4140, "pitch": 78, "duration": 19, "velocity": 84}, {"time": 4141, "pitch": 70, "duration": 9, "velocity": 61}, {"time": 4157, "pitch": 80, "duration": 14, "velocity": 81}, {"time": 4158, "pitch": 71, "duration": 29, "velocity": 61}, {"time": 4160, "pitch": 49, "duration": 17, "velocity": 40}, {"time": 4186, "pitch": 59, "duration": 9, "velocity": 38}], "annotations": [{"time": 292, "annotation": {"number": 64, "value": 74}, "group": "control_change"}, {"time": 880, "annotation": {"number": 64, "value": 66}, "group": "control_change"}, {"time": 1456, "annotation": {"number": 64, "value": 67}, "group": "control_change"}, {"time": 2056, "annotation": {"number": 64, "value": 68}, "group": "control_change"}, {"time": 2608, "annotation": {"number": 64, "value": 66}, "group": "control_change"}, {"time": 2608, "annotation": {"number": 64, "value": 69}, "group": "control_change"}, {"time": 3184, "annotation": {"number": 64, "value": 67}, "group": "control_change"}, {"time": 3423, "annotation": {"number": 64, "value": 127}, "group": "control_change"}, {"time": 3446, "annotation": {"number": 64, "value": 0}, "group": "control_change"}, {"time": 3447, "annotation": {"number": 64, "value": 127}, "group": "control_change"}, {"time": 3469, "annotation": {"number": 64, "value": 0}, "group": "control_change"}, {"time": 3473, "annotation": {"number": 64, "value": 127}, "group": "control_change"}, {"time": 3566, "annotation": {"number": 64, "value": 0}, "group": "control_change"}, {"time": 3570, "annotation": {"number": 64, "value": 127}, "group": "control_change"}, {"time": 3615, "annotation": {"number": 64, "value": 0}, "group": "control_change"}, {"time": 3618, "annotation": {"number": 64, "value": 127}, "group": "control_change"}, {"time": 3653, "annotation": {"number": 64, "value": 127}, "group": "control_change"}, {"time": 3656, "annotation": {"number": 64, "value": 0}, "group": "control_change"}, {"time": 3665, "annotation": {"number": 64, "value": 0}, "group": "control_change"}, {"time": 3665, "annotation": {"number": 64, "value": 127}, "group": "control_change"}, {"time": 3680, "annotation": {"number": 64, "value": 0}, "group": "control_change"}, {"time": 3686, "annotation": {"number": 64, "value": 127}, "group": "control_change"}, {"time": 3707, "annotation": {"number": 64, "value": 0}, "group": "control_change"}, {"time": 3709, "annotation": {"number": 64, "value": 127}, "group": "control_change"}, {"time": 3746, "annotation": {"number": 64, "value": 0}, "group": "control_change"}, {"time": 3770, "annotation": {"number": 64, "value": 127}, "group": "control_change"}, {"time": 3804, "annotation": {"number": 64, "value": 0}, "group": "control_change"}]}]}