{"metadata": {"schema_version": "0.2", "title": "None", "source_filename": "374.mid", "source_format": "midi"}, "resolution": 12, "tempos": [{"time": 0, "qpm": 79.5002086880478}], "time_signatures": [{"time": 0, "numerator": 1, "denominator": 4}], "tracks": [{"program": 0, "is_drum": false, "name": "MELODY", "notes": [{"time": 212, "pitch": 53, "duration": 3, "velocity": 74}, {"time": 218, "pitch": 53, "duration": 5, "velocity": 71}, {"time": 224, "pitch": 58, "duration": 9, "velocity": 96}, {"time": 236, "pitch": 60, "duration": 9, "velocity": 90}, {"time": 248, "pitch": 62, "duration": 43, "velocity": 102}, {"time": 308, "pitch": 62, "duration": 3, "velocity": 92}, {"time": 314, "pitch": 62, "duration": 3, "velocity": 79}, {"time": 320, "pitch": 65, "duration": 9, "velocity": 99}, {"time": 332, "pitch": 63, "duration": 5, "velocity": 100}, {"time": 338, "pitch": 62, "duration": 4, "velocity": 75}, {"time": 344, "pitch": 62, "duration": 3, "velocity": 90}, {"time": 347, "pitch": 62, "duration": 1, "velocity": 69}, {"time": 350, "pitch": 58, "duration": 41, "velocity": 85}, {"time": 404, "pitch": 58, "duration": 4, "velocity": 82}, {"time": 410, "pitch": 58, "duration": 4, "velocity": 70}, {"time": 416, "pitch": 60, "duration": 14, "velocity": 88}, {"time": 434, "pitch": 58, "duration": 3, "velocity": 100}, {"time": 440, "pitch": 65, "duration": 10, "velocity": 112}, {"time": 458, "pitch": 58, "duration": 4, "velocity": 92}, {"time": 464, "pitch": 58, "duration": 23, "velocity": 86}, {"time": 500, "pitch": 63, "duration": 5, "velocity": 100}, {"time": 506, "pitch": 62, "duration": 2, "velocity": 82}, {"time": 512, "pitch": 62, "duration": 6, "velocity": 70}, {"time": 518, "pitch": 60, "duration": 10, "velocity": 72}, {"time": 530, "pitch": 60, "duration": 3, "velocity": 76}, {"time": 533, "pitch": 58, "duration": 3, "velocity": 67}, {"time": 536, "pitch": 60, "duration": 45, "velocity": 82}, {"time": 596, "pitch": 53, "duration": 4, "velocity": 88}, {"time": 602, "pitch": 53, "duration": 5, "velocity": 85}, {"time": 608, "pitch": 58, "duration": 5, "velocity": 112}, {"time": 614, "pitch": 60, "duration": 9, "velocity": 85}, {"time": 626, "pitch": 62, "duration": 49, "velocity": 93}, {"time": 692, "pitch": 62, "duration": 4, "velocity": 97}, {"time": 698, "pitch": 62, "duration": 3, "velocity": 93}, {"time": 704, "pitch": 67, "duration": 6, "velocity": 99}, {"time": 710, "pitch": 65, "duration": 7, "velocity": 92}, {"time": 722, "pitch": 62, "duration": 3, "velocity": 79}, {"time": 728, "pitch": 60, "duration": 5, "velocity": 85}, {"time": 734, "pitch": 58, "duration": 52, "velocity": 82}, {"time": 788, "pitch": 58, "duration": 3, "velocity": 102}, {"time": 794, "pitch": 58, "duration": 3, "velocity": 107}, {"time": 800, "pitch": 60, "duration": 5, "velocity": 100}, {"time": 818, "pitch": 58, "duration": 4, "velocity": 127}, {"time": 824, "pitch": 65, "duration": 16, "velocity": 122}, {"time": 849, "pitch": 70, "duration": 21, "velocity": 102}, {"time": 884, "pitch": 63, "duration": 5, "velocity": 122}, {"time": 890, "pitch": 62, "duration": 3, "velocity": 64}, {"time": 896, "pitch": 62, "duration": 5, "velocity": 102}, {"time": 902, "pitch": 60, "duration": 9, "velocity": 99}, {"time": 914, "pitch": 60, "duration": 7, "velocity": 97}, {"time": 926, "pitch": 58, "duration": 26, "velocity": 100}, {"time": 1028, "pitch": 67, "duration": 5, "velocity": 112}, {"time": 1034, "pitch": 63, "duration": 6, "velocity": 102}, {"time": 1040, "pitch": 60, "duration": 9, "velocity": 100}, {"time": 1052, "pitch": 60, "duration": 6, "velocity": 107}, {"time": 1058, "pitch": 67, "duration": 5, "velocity": 100}, {"time": 1064, "pitch": 65, "duration": 24, "velocity": 122}, {"time": 1088, "pitch": 67, "duration": 12, "velocity": 122}, {"time": 1124, "pitch": 63, "duration": 4, "velocity": 107}, {"time": 1130, "pitch": 58, "duration": 6, "velocity": 99}, {"time": 1136, "pitch": 57, "duration": 10, "velocity": 92}, {"time": 1154, "pitch": 57, "duration": 6, "velocity": 97}, {"time": 1160, "pitch": 63, "duration": 6, "velocity": 100}, {"time": 1166, "pitch": 62, "duration": 23, "velocity": 89}, {"time": 1220, "pitch": 67, "duration": 5, "velocity": 99}, {"time": 1226, "pitch": 63, "duration": 6, "velocity": 112}, {"time": 1232, "pitch": 60, "duration": 16, "velocity": 99}, {"time": 1250, "pitch": 67, "duration": 10, "velocity": 107}, {"time": 1262, "pitch": 65, "duration": 8, "velocity": 100}, {"time": 1274, "pitch": 62, "duration": 4, "velocity": 78}, {"time": 1280, "pitch": 60, "duration": 5, "velocity": 99}, {"time": 1286, "pitch": 58, "duration": 18, "velocity": 102}, {"time": 1310, "pitch": 55, "duration": 5, "velocity": 93}, {"time": 1316, "pitch": 63, "duration": 6, "velocity": 122}, {"time": 1322, "pitch": 62, "duration": 6, "velocity": 96}, {"time": 1328, "pitch": 62, "duration": 8, "velocity": 100}, {"time": 1334, "pitch": 60, "duration": 4, "velocity": 100}, {"time": 1340, "pitch": 60, "duration": 5, "velocity": 99}, {"time": 1346, "pitch": 58, "duration": 4, "velocity": 107}, {"time": 1352, "pitch": 60, "duration": 46, "velocity": 117}, {"time": 1460, "pitch": 53, "duration": 3, "velocity": 74}, {"time": 1466, "pitch": 53, "duration": 5, "velocity": 71}, {"time": 1472, "pitch": 58, "duration": 6, "velocity": 96}, {"time": 1478, "pitch": 60, "duration": 5, "velocity": 95}, {"time": 1484, "pitch": 58, "duration": 6, "velocity": 89}, {"time": 1490, "pitch": 62, "duration": 43, "velocity": 102}, {"time": 1556, "pitch": 62, "duration": 3, "velocity": 92}, {"time": 1562, "pitch": 62, "duration": 3, "velocity": 79}, {"time": 1568, "pitch": 67, "duration": 9, "velocity": 99}, {"time": 1577, "pitch": 65, "duration": 7, "velocity": 99}, {"time": 1586, "pitch": 62, "duration": 4, "velocity": 99}, {"time": 1592, "pitch": 60, "duration": 5, "velocity": 97}, {"time": 1598, "pitch": 58, "duration": 26, "velocity": 102}, {"time": 1652, "pitch": 58, "duration": 4, "velocity": 82}, {"time": 1658, "pitch": 58, "duration": 4, "velocity": 70}, {"time": 1664, "pitch": 60, "duration": 14, "velocity": 88}, {"time": 1682, "pitch": 58, "duration": 3, "velocity": 100}, {"time": 1688, "pitch": 65, "duration": 10, "velocity": 112}, {"time": 1709, "pitch": 70, "duration": 28, "velocity": 112}, {"time": 1748, "pitch": 63, "duration": 5, "velocity": 122}, {"time": 1754, "pitch": 65, "duration": 6, "velocity": 89}, {"time": 1760, "pitch": 62, "duration": 14, "velocity": 102}, {"time": 1778, "pitch": 60, "duration": 4, "velocity": 97}, {"time": 1784, "pitch": 58, "duration": 35, "velocity": 102}, {"time": 2180, "pitch": 53, "duration": 3, "velocity": 74}, {"time": 2186, "pitch": 53, "duration": 5, "velocity": 71}, {"time": 2192, "pitch": 58, "duration": 9, "velocity": 96}, {"time": 2204, "pitch": 60, "duration": 9, "velocity": 90}, {"time": 2216, "pitch": 62, "duration": 43, "velocity": 102}, {"time": 2276, "pitch": 62, "duration": 3, "velocity": 92}, {"time": 2282, "pitch": 62, "duration": 3, "velocity": 79}, {"time": 2288, "pitch": 65, "duration": 9, "velocity": 99}, {"time": 2300, "pitch": 63, "duration": 5, "velocity": 100}, {"time": 2306, "pitch": 62, "duration": 4, "velocity": 75}, {"time": 2312, "pitch": 62, "duration": 3, "velocity": 90}, {"time": 2315, "pitch": 62, "duration": 1, "velocity": 69}, {"time": 2318, "pitch": 58, "duration": 41, "velocity": 85}, {"time": 2372, "pitch": 58, "duration": 4, "velocity": 82}, {"time": 2378, "pitch": 58, "duration": 4, "velocity": 70}, {"time": 2384, "pitch": 60, "duration": 14, "velocity": 88}, {"time": 2402, "pitch": 58, "duration": 3, "velocity": 100}, {"time": 2408, "pitch": 65, "duration": 10, "velocity": 112}, {"time": 2426, "pitch": 58, "duration": 4, "velocity": 92}, {"time": 2432, "pitch": 58, "duration": 23, "velocity": 86}, {"time": 2468, "pitch": 63, "duration": 5, "velocity": 100}, {"time": 2474, "pitch": 62, "duration": 2, "velocity": 82}, {"time": 2480, "pitch": 62, "duration": 6, "velocity": 70}, {"time": 2486, "pitch": 60, "duration": 10, "velocity": 72}, {"time": 2498, "pitch": 60, "duration": 3, "velocity": 76}, {"time": 2501, "pitch": 58, "duration": 3, "velocity": 67}, {"time": 2504, "pitch": 60, "duration": 45, "velocity": 82}, {"time": 2564, "pitch": 53, "duration": 4, "velocity": 88}, {"time": 2570, "pitch": 53, "duration": 5, "velocity": 85}, {"time": 2576, "pitch": 58, "duration": 5, "velocity": 112}, {"time": 2582, "pitch": 60, "duration": 9, "velocity": 85}, {"time": 2594, "pitch": 62, "duration": 49, "velocity": 93}, {"time": 2660, "pitch": 62, "duration": 4, "velocity": 97}, {"time": 2666, "pitch": 62, "duration": 3, "velocity": 93}, {"time": 2672, "pitch": 67, "duration": 6, "velocity": 99}, {"time": 2678, "pitch": 65, "duration": 7, "velocity": 92}, {"time": 2690, "pitch": 62, "duration": 3, "velocity": 79}, {"time": 2696, "pitch": 60, "duration": 5, "velocity": 85}, {"time": 2702, "pitch": 58, "duration": 52, "velocity": 82}, {"time": 2756, "pitch": 58, "duration": 3, "velocity": 102}, {"time": 2762, "pitch": 58, "duration": 3, "velocity": 107}, {"time": 2768, "pitch": 60, "duration": 5, "velocity": 100}, {"time": 2786, "pitch": 58, "duration": 4, "velocity": 127}, {"time": 2792, "pitch": 65, "duration": 16, "velocity": 122}, {"time": 2817, "pitch": 70, "duration": 21, "velocity": 102}, {"time": 2852, "pitch": 63, "duration": 5, "velocity": 122}, {"time": 2858, "pitch": 62, "duration": 3, "velocity": 64}, {"time": 2864, "pitch": 62, "duration": 5, "velocity": 102}, {"time": 2870, "pitch": 60, "duration": 9, "velocity": 99}, {"time": 2882, "pitch": 60, "duration": 7, "velocity": 97}, {"time": 2894, "pitch": 58, "duration": 26, "velocity": 100}, {"time": 2996, "pitch": 67, "duration": 5, "velocity": 112}, {"time": 3002, "pitch": 63, "duration": 6, "velocity": 102}, {"time": 3008, "pitch": 60, "duration": 9, "velocity": 100}, {"time": 3020, "pitch": 60, "duration": 6, "velocity": 107}, {"time": 3026, "pitch": 67, "duration": 5, "velocity": 100}, {"time": 3032, "pitch": 65, "duration": 24, "velocity": 122}, {"time": 3056, "pitch": 67, "duration": 12, "velocity": 122}, {"time": 3092, "pitch": 63, "duration": 4, "velocity": 107}, {"time": 3098, "pitch": 58, "duration": 6, "velocity": 99}, {"time": 3104, "pitch": 57, "duration": 10, "velocity": 92}, {"time": 3122, "pitch": 57, "duration": 6, "velocity": 97}, {"time": 3128, "pitch": 63, "duration": 6, "velocity": 100}, {"time": 3134, "pitch": 62, "duration": 23, "velocity": 89}, {"time": 3188, "pitch": 67, "duration": 5, "velocity": 99}, {"time": 3194, "pitch": 63, "duration": 6, "velocity": 112}, {"time": 3200, "pitch": 60, "duration": 16, "velocity": 99}, {"time": 3218, "pitch": 67, "duration": 10, "velocity": 107}, {"time": 3230, "pitch": 65, "duration": 8, "velocity": 100}, {"time": 3242, "pitch": 62, "duration": 4, "velocity": 78}, {"time": 3248, "pitch": 60, "duration": 5, "velocity": 99}, {"time": 3254, "pitch": 58, "duration": 18, "velocity": 102}, {"time": 3278, "pitch": 55, "duration": 5, "velocity": 93}, {"time": 3284, "pitch": 63, "duration": 6, "velocity": 122}, {"time": 3290, "pitch": 62, "duration": 6, "velocity": 96}, {"time": 3296, "pitch": 62, "duration": 8, "velocity": 100}, {"time": 3302, "pitch": 60, "duration": 4, "velocity": 100}, {"time": 3308, "pitch": 60, "duration": 5, "velocity": 99}, {"time": 3314, "pitch": 58, "duration": 4, "velocity": 107}, {"time": 3320, "pitch": 60, "duration": 46, "velocity": 117}, {"time": 3428, "pitch": 53, "duration": 3, "velocity": 74}, {"time": 3434, "pitch": 53, "duration": 5, "velocity": 71}, {"time": 3440, "pitch": 58, "duration": 6, "velocity": 96}, {"time": 3446, "pitch": 60, "duration": 5, "velocity": 95}, {"time": 3452, "pitch": 58, "duration": 6, "velocity": 89}, {"time": 3458, "pitch": 62, "duration": 43, "velocity": 102}, {"time": 3524, "pitch": 62, "duration": 3, "velocity": 92}, {"time": 3530, "pitch": 62, "duration": 3, "velocity": 79}, {"time": 3536, "pitch": 67, "duration": 9, "velocity": 99}, {"time": 3545, "pitch": 65, "duration": 7, "velocity": 99}, {"time": 3554, "pitch": 62, "duration": 4, "velocity": 99}, {"time": 3560, "pitch": 60, "duration": 5, "velocity": 97}, {"time": 3566, "pitch": 58, "duration": 26, "velocity": 102}, {"time": 3620, "pitch": 58, "duration": 4, "velocity": 82}, {"time": 3626, "pitch": 58, "duration": 4, "velocity": 70}, {"time": 3632, "pitch": 60, "duration": 14, "velocity": 88}, {"time": 3650, "pitch": 58, "duration": 3, "velocity": 100}, {"time": 3656, "pitch": 65, "duration": 10, "velocity": 112}, {"time": 3677, "pitch": 70, "duration": 28, "velocity": 112}, {"time": 3716, "pitch": 63, "duration": 5, "velocity": 122}, {"time": 3722, "pitch": 65, "duration": 6, "velocity": 89}, {"time": 3728, "pitch": 62, "duration": 14, "velocity": 102}, {"time": 3746, "pitch": 60, "duration": 4, "velocity": 97}, {"time": 3752, "pitch": 58, "duration": 35, "velocity": 102}, {"time": 3812, "pitch": 58, "duration": 4, "velocity": 82}, {"time": 3818, "pitch": 58, "duration": 4, "velocity": 70}, {"time": 3824, "pitch": 60, "duration": 14, "velocity": 88}, {"time": 3842, "pitch": 58, "duration": 3, "velocity": 100}, {"time": 3848, "pitch": 65, "duration": 10, "velocity": 112}, {"time": 3869, "pitch": 70, "duration": 28, "velocity": 112}, {"time": 3920, "pitch": 63, "duration": 6, "velocity": 93}, {"time": 3926, "pitch": 65, "duration": 7, "velocity": 79}, {"time": 3933, "pitch": 62, "duration": 21, "velocity": 95}, {"time": 3951, "pitch": 60, "duration": 8, "velocity": 74}, {"time": 3958, "pitch": 58, "duration": 74, "velocity": 88}]}, {"program": 0, "is_drum": false, "name": "PIANO", "notes": [{"time": 8, "pitch": 46, "duration": 45, "velocity": 73}, {"time": 8, "pitch": 70, "duration": 6, "velocity": 85}, {"time": 14, "pitch": 53, "duration": 7, "velocity": 33}, {"time": 14, "pitch": 65, "duration": 8, "velocity": 56}, {"time": 20, "pitch": 58, "duration": 7, "velocity": 86}, {"time": 20, "pitch": 72, "duration": 6, "velocity": 73}, {"time": 26, "pitch": 53, "duration": 6, "velocity": 45}, {"time": 26, "pitch": 65, "duration": 8, "velocity": 57}, {"time": 32, "pitch": 58, "duration": 9, "velocity": 85}, {"time": 32, "pitch": 74, "duration": 13, "velocity": 89}, {"time": 38, "pitch": 53, "duration": 17, "velocity": 58}, {"time": 38, "pitch": 65, "duration": 8, "velocity": 56}, {"time": 44, "pitch": 58, "duration": 19, "velocity": 78}, {"time": 44, "pitch": 72, "duration": 8, "velocity": 81}, {"time": 50, "pitch": 65, "duration": 8, "velocity": 60}, {"time": 56, "pitch": 46, "duration": 47, "velocity": 79}, {"time": 56, "pitch": 70, "duration": 10, "velocity": 96}, {"time": 62, "pitch": 53, "duration": 6, "velocity": 44}, {"time": 65, "pitch": 58, "duration": 10, "velocity": 76}, {"time": 68, "pitch": 65, "duration": 1, "velocity": 54}, {"time": 68, "pitch": 70, "duration": 11, "velocity": 93}, {"time": 68, "pitch": 72, "duration": 7, "velocity": 93}, {"time": 71, "pitch": 65, "duration": 8, "velocity": 55}, {"time": 74, "pitch": 53, "duration": 6, "velocity": 38}, {"time": 80, "pitch": 58, "duration": 8, "velocity": 66}, {"time": 80, "pitch": 70, "duration": 6, "velocity": 60}, {"time": 80, "pitch": 74, "duration": 9, "velocity": 92}, {"time": 86, "pitch": 53, "duration": 6, "velocity": 51}, {"time": 86, "pitch": 65, "duration": 8, "velocity": 59}, {"time": 92, "pitch": 58, "duration": 19, "velocity": 74}, {"time": 92, "pitch": 70, "duration": 8, "velocity": 83}, {"time": 98, "pitch": 53, "duration": 7, "velocity": 39}, {"time": 98, "pitch": 65, "duration": 8, "velocity": 55}, {"time": 104, "pitch": 46, "duration": 22, "velocity": 75}, {"time": 104, "pitch": 70, "duration": 11, "velocity": 86}, {"time": 110, "pitch": 53, "duration": 6, "velocity": 40}, {"time": 116, "pitch": 58, "duration": 21, "velocity": 75}, {"time": 116, "pitch": 70, "duration": 23, "velocity": 66}, {"time": 122, "pitch": 53, "duration": 7, "velocity": 31}, {"time": 128, "pitch": 46, "duration": 22, "velocity": 77}, {"time": 128, "pitch": 65, "duration": 1, "velocity": 34}, {"time": 128, "pitch": 74, "duration": 11, "velocity": 90}, {"time": 134, "pitch": 53, "duration": 18, "velocity": 40}, {"time": 140, "pitch": 65, "duration": 9, "velocity": 72}, {"time": 140, "pitch": 70, "duration": 10, "velocity": 73}, {"time": 140, "pitch": 74, "duration": 10, "velocity": 88}, {"time": 146, "pitch": 58, "duration": 13, "velocity": 69}, {"time": 152, "pitch": 46, "duration": 45, "velocity": 79}, {"time": 152, "pitch": 65, "duration": 10, "velocity": 77}, {"time": 152, "pitch": 70, "duration": 10, "velocity": 76}, {"time": 152, "pitch": 72, "duration": 10, "velocity": 83}, {"time": 158, "pitch": 53, "duration": 7, "velocity": 36}, {"time": 164, "pitch": 58, "duration": 8, "velocity": 79}, {"time": 164, "pitch": 65, "duration": 3, "velocity": 82}, {"time": 164, "pitch": 70, "duration": 8, "velocity": 96}, {"time": 164, "pitch": 72, "duration": 9, "velocity": 89}, {"time": 170, "pitch": 53, "duration": 8, "velocity": 32}, {"time": 170, "pitch": 65, "duration": 20, "velocity": 65}, {"time": 176, "pitch": 58, "duration": 10, "velocity": 72}, {"time": 176, "pitch": 70, "duration": 10, "velocity": 64}, {"time": 176, "pitch": 74, "duration": 11, "velocity": 78}, {"time": 182, "pitch": 53, "duration": 7, "velocity": 35}, {"time": 188, "pitch": 58, "duration": 11, "velocity": 72}, {"time": 188, "pitch": 70, "duration": 1, "velocity": 53}, {"time": 188, "pitch": 72, "duration": 11, "velocity": 70}, {"time": 194, "pitch": 53, "duration": 6, "velocity": 56}, {"time": 200, "pitch": 46, "duration": 41, "velocity": 77}, {"time": 206, "pitch": 53, "duration": 35, "velocity": 52}, {"time": 212, "pitch": 58, "duration": 23, "velocity": 54}, {"time": 212, "pitch": 62, "duration": 20, "velocity": 69}, {"time": 212, "pitch": 65, "duration": 20, "velocity": 51}, {"time": 236, "pitch": 62, "duration": 14, "velocity": 61}, {"time": 236, "pitch": 65, "duration": 13, "velocity": 64}, {"time": 242, "pitch": 58, "duration": 8, "velocity": 61}, {"time": 248, "pitch": 45, "duration": 38, "velocity": 72}, {"time": 254, "pitch": 57, "duration": 8, "velocity": 59}, {"time": 260, "pitch": 62, "duration": 13, "velocity": 79}, {"time": 266, "pitch": 57, "duration": 9, "velocity": 55}, {"time": 272, "pitch": 65, "duration": 23, "velocity": 86}, {"time": 284, "pitch": 62, "duration": 12, "velocity": 86}, {"time": 290, "pitch": 57, "duration": 6, "velocity": 90}, {"time": 296, "pitch": 44, "duration": 46, "velocity": 99}, {"time": 302, "pitch": 56, "duration": 10, "velocity": 92}, {"time": 308, "pitch": 62, "duration": 13, "velocity": 100}, {"time": 314, "pitch": 56, "duration": 6, "velocity": 61}, {"time": 320, "pitch": 65, "duration": 13, "velocity": 95}, {"time": 323, "pitch": 56, "duration": 10, "velocity": 9}, {"time": 332, "pitch": 62, "duration": 11, "velocity": 89}, {"time": 338, "pitch": 65, "duration": 6, "velocity": 72}, {"time": 344, "pitch": 43, "duration": 36, "velocity": 75}, {"time": 350, "pitch": 55, "duration": 8, "velocity": 78}, {"time": 356, "pitch": 58, "duration": 12, "velocity": 112}, {"time": 359, "pitch": 51, "duration": 11, "velocity": 74}, {"time": 368, "pitch": 63, "duration": 24, "velocity": 112}, {"time": 374, "pitch": 51, "duration": 7, "velocity": 68}, {"time": 380, "pitch": 58, "duration": 12, "velocity": 100}, {"time": 386, "pitch": 55, "duration": 6, "velocity": 81}, {"time": 392, "pitch": 39, "duration": 39, "velocity": 82}, {"time": 398, "pitch": 46, "duration": 32, "velocity": 44}, {"time": 404, "pitch": 51, "duration": 15, "velocity": 56}, {"time": 410, "pitch": 54, "duration": 8, "velocity": 77}, {"time": 416, "pitch": 63, "duration": 23, "velocity": 93}, {"time": 419, "pitch": 51, "duration": 9, "velocity": 69}, {"time": 428, "pitch": 58, "duration": 11, "velocity": 56}, {"time": 434, "pitch": 54, "duration": 6, "velocity": 66}, {"time": 437, "pitch": 46, "duration": 37, "velocity": 63}, {"time": 446, "pitch": 53, "duration": 29, "velocity": 48}, {"time": 449, "pitch": 58, "duration": 15, "velocity": 76}, {"time": 458, "pitch": 62, "duration": 7, "velocity": 59}, {"time": 464, "pitch": 65, "duration": 13, "velocity": 102}, {"time": 467, "pitch": 58, "duration": 4, "velocity": 58}, {"time": 476, "pitch": 62, "duration": 12, "velocity": 75}, {"time": 482, "pitch": 65, "duration": 6, "velocity": 64}, {"time": 488, "pitch": 39, "duration": 34, "velocity": 79}, {"time": 494, "pitch": 46, "duration": 29, "velocity": 54}, {"time": 500, "pitch": 51, "duration": 15, "velocity": 71}, {"time": 506, "pitch": 55, "duration": 12, "velocity": 62}, {"time": 512, "pitch": 63, "duration": 24, "velocity": 99}, {"time": 518, "pitch": 51, "duration": 5, "velocity": 50}, {"time": 524, "pitch": 58, "duration": 12, "velocity": 72}, {"time": 533, "pitch": 41, "duration": 47, "velocity": 73}, {"time": 539, "pitch": 48, "duration": 41, "velocity": 63}, {"time": 545, "pitch": 53, "duration": 15, "velocity": 75}, {"time": 554, "pitch": 57, "duration": 8, "velocity": 58}, {"time": 557, "pitch": 60, "duration": 13, "velocity": 73}, {"time": 566, "pitch": 53, "duration": 6, "velocity": 67}, {"time": 572, "pitch": 65, "duration": 8, "velocity": 93}, {"time": 578, "pitch": 60, "duration": 2, "velocity": 63}, {"time": 584, "pitch": 46, "duration": 36, "velocity": 90}, {"time": 590, "pitch": 53, "duration": 29, "velocity": 63}, {"time": 596, "pitch": 58, "duration": 15, "velocity": 99}, {"time": 602, "pitch": 62, "duration": 7, "velocity": 65}, {"time": 608, "pitch": 65, "duration": 27, "velocity": 102}, {"time": 614, "pitch": 58, "duration": 4, "velocity": 58}, {"time": 620, "pitch": 62, "duration": 14, "velocity": 117}, {"time": 632, "pitch": 45, "duration": 37, "velocity": 83}, {"time": 638, "pitch": 57, "duration": 8, "velocity": 59}, {"time": 644, "pitch": 62, "duration": 11, "velocity": 68}, {"time": 650, "pitch": 57, "duration": 8, "velocity": 43}, {"time": 656, "pitch": 65, "duration": 22, "velocity": 127}, {"time": 668, "pitch": 62, "duration": 15, "velocity": 99}, {"time": 674, "pitch": 57, "duration": 5, "velocity": 92}, {"time": 680, "pitch": 44, "duration": 38, "velocity": 97}, {"time": 686, "pitch": 56, "duration": 9, "velocity": 100}, {"time": 692, "pitch": 62, "duration": 14, "velocity": 74}, {"time": 698, "pitch": 56, "duration": 8, "velocity": 63}, {"time": 704, "pitch": 65, "duration": 23, "velocity": 74}, {"time": 716, "pitch": 56, "duration": 13, "velocity": 97}, {"time": 722, "pitch": 62, "duration": 5, "velocity": 65}, {"time": 728, "pitch": 43, "duration": 39, "velocity": 79}, {"time": 734, "pitch": 51, "duration": 7, "velocity": 71}, {"time": 740, "pitch": 55, "duration": 6, "velocity": 66}, {"time": 746, "pitch": 51, "duration": 8, "velocity": 95}, {"time": 752, "pitch": 63, "duration": 24, "velocity": 117}, {"time": 764, "pitch": 55, "duration": 12, "velocity": 68}, {"time": 770, "pitch": 51, "duration": 6, "velocity": 95}, {"time": 776, "pitch": 39, "duration": 35, "velocity": 92}, {"time": 782, "pitch": 46, "duration": 29, "velocity": 54}, {"time": 788, "pitch": 51, "duration": 16, "velocity": 90}, {"time": 794, "pitch": 54, "duration": 8, "velocity": 96}, {"time": 800, "pitch": 63, "duration": 23, "velocity": 122}, {"time": 806, "pitch": 51, "duration": 6, "velocity": 66}, {"time": 812, "pitch": 58, "duration": 11, "velocity": 95}, {"time": 824, "pitch": 46, "duration": 15, "velocity": 97}, {"time": 830, "pitch": 58, "duration": 7, "velocity": 86}, {"time": 836, "pitch": 65, "duration": 12, "velocity": 75}, {"time": 842, "pitch": 58, "duration": 7, "velocity": 97}, {"time": 848, "pitch": 43, "duration": 14, "velocity": 82}, {"time": 854, "pitch": 55, "duration": 8, "velocity": 90}, {"time": 860, "pitch": 62, "duration": 12, "velocity": 99}, {"time": 866, "pitch": 58, "duration": 6, "velocity": 81}, {"time": 872, "pitch": 39, "duration": 15, "velocity": 102}, {"time": 878, "pitch": 51, "duration": 11, "velocity": 82}, {"time": 884, "pitch": 55, "duration": 11, "velocity": 88}, {"time": 890, "pitch": 63, "duration": 7, "velocity": 122}, {"time": 896, "pitch": 41, "duration": 13, "velocity": 75}, {"time": 902, "pitch": 48, "duration": 9, "velocity": 69}, {"time": 908, "pitch": 57, "duration": 11, "velocity": 122}, {"time": 914, "pitch": 60, "duration": 6, "velocity": 93}, {"time": 920, "pitch": 46, "duration": 46, "velocity": 78}, {"time": 926, "pitch": 53, "duration": 42, "velocity": 40}, {"time": 932, "pitch": 58, "duration": 15, "velocity": 63}, {"time": 938, "pitch": 62, "duration": 7, "velocity": 92}, {"time": 944, "pitch": 65, "duration": 23, "velocity": 127}, {"time": 950, "pitch": 58, "duration": 8, "velocity": 112}, {"time": 956, "pitch": 62, "duration": 9, "velocity": 102}, {"time": 962, "pitch": 58, "duration": 7, "velocity": 96}, {"time": 968, "pitch": 46, "duration": 43, "velocity": 102}, {"time": 968, "pitch": 62, "duration": 16, "velocity": 99}, {"time": 968, "pitch": 68, "duration": 16, "velocity": 122}, {"time": 974, "pitch": 53, "duration": 36, "velocity": 59}, {"time": 974, "pitch": 58, "duration": 2, "velocity": 31}, {"time": 980, "pitch": 58, "duration": 11, "velocity": 112}, {"time": 986, "pitch": 62, "duration": 10, "velocity": 96}, {"time": 986, "pitch": 68, "duration": 11, "velocity": 127}, {"time": 992, "pitch": 58, "duration": 14, "velocity": 117}, {"time": 998, "pitch": 62, "duration": 5, "velocity": 75}, {"time": 998, "pitch": 68, "duration": 5, "velocity": 81}, {"time": 998, "pitch": 70, "duration": 5, "velocity": 67}, {"time": 1004, "pitch": 68, "duration": 12, "velocity": 127}, {"time": 1004, "pitch": 70, "duration": 12, "velocity": 127}, {"time": 1007, "pitch": 58, "duration": 1, "velocity": 93}, {"time": 1010, "pitch": 62, "duration": 5, "velocity": 100}, {"time": 1016, "pitch": 36, "duration": 18, "velocity": 100}, {"time": 1022, "pitch": 43, "duration": 13, "velocity": 72}, {"time": 1028, "pitch": 55, "duration": 12, "velocity": 81}, {"time": 1028, "pitch": 60, "duration": 12, "velocity": 102}, {"time": 1028, "pitch": 63, "duration": 12, "velocity": 102}, {"time": 1034, "pitch": 48, "duration": 5, "velocity": 97}, {"time": 1040, "pitch": 41, "duration": 13, "velocity": 100}, {"time": 1046, "pitch": 48, "duration": 9, "velocity": 90}, {"time": 1052, "pitch": 57, "duration": 11, "velocity": 93}, {"time": 1052, "pitch": 60, "duration": 11, "velocity": 95}, {"time": 1058, "pitch": 53, "duration": 5, "velocity": 82}, {"time": 1064, "pitch": 46, "duration": 18, "velocity": 86}, {"time": 1070, "pitch": 53, "duration": 12, "velocity": 58}, {"time": 1076, "pitch": 62, "duration": 12, "velocity": 127}, {"time": 1082, "pitch": 58, "duration": 1, "velocity": 96}, {"time": 1088, "pitch": 43, "duration": 16, "velocity": 92}, {"time": 1094, "pitch": 50, "duration": 10, "velocity": 86}, {"time": 1100, "pitch": 62, "duration": 12, "velocity": 127}, {"time": 1106, "pitch": 58, "duration": 7, "velocity": 122}, {"time": 1109, "pitch": 55, "duration": 5, "velocity": 95}, {"time": 1112, "pitch": 36, "duration": 16, "velocity": 90}, {"time": 1118, "pitch": 48, "duration": 12, "velocity": 86}, {"time": 1124, "pitch": 63, "duration": 13, "velocity": 127}, {"time": 1130, "pitch": 60, "duration": 6, "velocity": 81}, {"time": 1133, "pitch": 55, "duration": 3, "velocity": 93}, {"time": 1136, "pitch": 41, "duration": 17, "velocity": 88}, {"time": 1142, "pitch": 48, "duration": 11, "velocity": 53}, {"time": 1148, "pitch": 69, "duration": 12, "velocity": 122}, {"time": 1151, "pitch": 53, "duration": 3, "velocity": 88}, {"time": 1154, "pitch": 65, "duration": 5, "velocity": 92}, {"time": 1157, "pitch": 60, "duration": 4, "velocity": 85}, {"time": 1160, "pitch": 46, "duration": 20, "velocity": 73}, {"time": 1166, "pitch": 53, "duration": 14, "velocity": 61}, {"time": 1172, "pitch": 62, "duration": 12, "velocity": 112}, {"time": 1178, "pitch": 58, "duration": 3, "velocity": 100}, {"time": 1184, "pitch": 43, "duration": 15, "velocity": 88}, {"time": 1190, "pitch": 50, "duration": 9, "velocity": 71}, {"time": 1196, "pitch": 58, "duration": 11, "velocity": 122}, {"time": 1196, "pitch": 62, "duration": 11, "velocity": 100}, {"time": 1202, "pitch": 55, "duration": 6, "velocity": 76}, {"time": 1208, "pitch": 36, "duration": 14, "velocity": 90}, {"time": 1214, "pitch": 48, "duration": 14, "velocity": 92}, {"time": 1220, "pitch": 63, "duration": 13, "velocity": 102}, {"time": 1226, "pitch": 60, "duration": 6, "velocity": 100}, {"time": 1229, "pitch": 55, "duration": 3, "velocity": 81}, {"time": 1232, "pitch": 41, "duration": 19, "velocity": 100}, {"time": 1238, "pitch": 48, "duration": 14, "velocity": 74}, {"time": 1244, "pitch": 65, "duration": 12, "velocity": 102}, {"time": 1247, "pitch": 53, "duration": 3, "velocity": 72}, {"time": 1250, "pitch": 60, "duration": 5, "velocity": 96}, {"time": 1253, "pitch": 57, "duration": 3, "velocity": 97}, {"time": 1256, "pitch": 46, "duration": 18, "velocity": 90}, {"time": 1262, "pitch": 58, "duration": 8, "velocity": 96}, {"time": 1268, "pitch": 62, "duration": 13, "velocity": 96}, {"time": 1271, "pitch": 58, "duration": 2, "velocity": 76}, {"time": 1280, "pitch": 43, "duration": 23, "velocity": 97}, {"time": 1286, "pitch": 50, "duration": 17, "velocity": 71}, {"time": 1292, "pitch": 62, "duration": 11, "velocity": 127}, {"time": 1298, "pitch": 58, "duration": 4, "velocity": 127}, {"time": 1301, "pitch": 55, "duration": 4, "velocity": 95}, {"time": 1304, "pitch": 48, "duration": 11, "velocity": 102}, {"time": 1310, "pitch": 55, "duration": 7, "velocity": 99}, {"time": 1316, "pitch": 60, "duration": 7, "velocity": 112}, {"time": 1316, "pitch": 63, "duration": 6, "velocity": 127}, {"time": 1322, "pitch": 55, "duration": 5, "velocity": 88}, {"time": 1328, "pitch": 36, "duration": 17, "velocity": 77}, {"time": 1328, "pitch": 60, "duration": 10, "velocity": 117}, {"time": 1328, "pitch": 64, "duration": 11, "velocity": 112}, {"time": 1334, "pitch": 48, "duration": 16, "velocity": 83}, {"time": 1340, "pitch": 60, "duration": 11, "velocity": 122}, {"time": 1346, "pitch": 55, "duration": 6, "velocity": 99}, {"time": 1352, "pitch": 41, "duration": 8, "velocity": 66}, {"time": 1352, "pitch": 53, "duration": 8, "velocity": 92}, {"time": 1352, "pitch": 63, "duration": 8, "velocity": 102}, {"time": 1352, "pitch": 67, "duration": 7, "velocity": 95}, {"time": 1352, "pitch": 70, "duration": 8, "velocity": 99}, {"time": 1361, "pitch": 41, "duration": 7, "velocity": 69}, {"time": 1361, "pitch": 53, "duration": 7, "velocity": 72}, {"time": 1361, "pitch": 63, "duration": 7, "velocity": 99}, {"time": 1361, "pitch": 67, "duration": 6, "velocity": 99}, {"time": 1361, "pitch": 70, "duration": 6, "velocity": 99}, {"time": 1370, "pitch": 41, "duration": 5, "velocity": 71}, {"time": 1370, "pitch": 53, "duration": 5, "velocity": 83}, {"time": 1370, "pitch": 63, "duration": 3, "velocity": 76}, {"time": 1370, "pitch": 67, "duration": 6, "velocity": 117}, {"time": 1370, "pitch": 70, "duration": 3, "velocity": 96}, {"time": 1376, "pitch": 41, "duration": 28, "velocity": 77}, {"time": 1376, "pitch": 53, "duration": 27, "velocity": 89}, {"time": 1376, "pitch": 65, "duration": 27, "velocity": 99}, {"time": 1376, "pitch": 69, "duration": 28, "velocity": 97}, {"time": 1376, "pitch": 72, "duration": 28, "velocity": 99}, {"time": 1400, "pitch": 41, "duration": 4, "velocity": 63}, {"time": 1400, "pitch": 53, "duration": 3, "velocity": 99}, {"time": 1400, "pitch": 63, "duration": 7, "velocity": 107}, {"time": 1400, "pitch": 67, "duration": 1, "velocity": 96}, {"time": 1400, "pitch": 70, "duration": 7, "velocity": 99}, {"time": 1403, "pitch": 67, "duration": 2, "velocity": 23}, {"time": 1409, "pitch": 63, "duration": 7, "velocity": 95}, {"time": 1409, "pitch": 67, "duration": 7, "velocity": 96}, {"time": 1409, "pitch": 70, "duration": 7, "velocity": 95}, {"time": 1418, "pitch": 63, "duration": 4, "velocity": 96}, {"time": 1418, "pitch": 67, "duration": 6, "velocity": 100}, {"time": 1418, "pitch": 70, "duration": 3, "velocity": 99}, {"time": 1424, "pitch": 41, "duration": 23, "velocity": 60}, {"time": 1424, "pitch": 53, "duration": 21, "velocity": 89}, {"time": 1424, "pitch": 65, "duration": 23, "velocity": 89}, {"time": 1424, "pitch": 69, "duration": 24, "velocity": 100}, {"time": 1424, "pitch": 72, "duration": 24, "velocity": 99}, {"time": 1448, "pitch": 46, "duration": 37, "velocity": 97}, {"time": 1454, "pitch": 58, "duration": 21, "velocity": 81}, {"time": 1460, "pitch": 62, "duration": 13, "velocity": 122}, {"time": 1466, "pitch": 53, "duration": 23, "velocity": 60}, {"time": 1472, "pitch": 65, "duration": 14, "velocity": 102}, {"time": 1478, "pitch": 58, "duration": 4, "velocity": 67}, {"time": 1484, "pitch": 62, "duration": 17, "velocity": 117}, {"time": 1490, "pitch": 65, "duration": 7, "velocity": 93}, {"time": 1496, "pitch": 45, "duration": 46, "velocity": 78}, {"time": 1502, "pitch": 57, "duration": 9, "velocity": 86}, {"time": 1508, "pitch": 62, "duration": 10, "velocity": 88}, {"time": 1514, "pitch": 57, "duration": 8, "velocity": 66}, {"time": 1520, "pitch": 65, "duration": 23, "velocity": 107}, {"time": 1526, "pitch": 57, "duration": 6, "velocity": 50}, {"time": 1532, "pitch": 62, "duration": 11, "velocity": 99}, {"time": 1538, "pitch": 57, "duration": 6, "velocity": 88}, {"time": 1544, "pitch": 44, "duration": 46, "velocity": 86}, {"time": 1550, "pitch": 56, "duration": 9, "velocity": 95}, {"time": 1556, "pitch": 62, "duration": 19, "velocity": 75}, {"time": 1562, "pitch": 56, "duration": 9, "velocity": 83}, {"time": 1568, "pitch": 65, "duration": 22, "velocity": 72}, {"time": 1574, "pitch": 56, "duration": 7, "velocity": 44}, {"time": 1580, "pitch": 62, "duration": 11, "velocity": 68}, {"time": 1586, "pitch": 56, "duration": 7, "velocity": 92}, {"time": 1592, "pitch": 43, "duration": 35, "velocity": 72}, {"time": 1598, "pitch": 51, "duration": 7, "velocity": 83}, {"time": 1604, "pitch": 55, "duration": 15, "velocity": 78}, {"time": 1610, "pitch": 58, "duration": 7, "velocity": 65}, {"time": 1616, "pitch": 63, "duration": 25, "velocity": 82}, {"time": 1622, "pitch": 58, "duration": 7, "velocity": 38}, {"time": 1628, "pitch": 55, "duration": 12, "velocity": 83}, {"time": 1634, "pitch": 58, "duration": 6, "velocity": 82}, {"time": 1640, "pitch": 39, "duration": 32, "velocity": 82}, {"time": 1646, "pitch": 51, "duration": 11, "velocity": 74}, {"time": 1652, "pitch": 54, "duration": 14, "velocity": 76}, {"time": 1658, "pitch": 51, "duration": 9, "velocity": 59}, {"time": 1664, "pitch": 63, "duration": 23, "velocity": 122}, {"time": 1670, "pitch": 51, "duration": 5, "velocity": 82}, {"time": 1676, "pitch": 54, "duration": 6, "velocity": 102}, {"time": 1682, "pitch": 58, "duration": 5, "velocity": 69}, {"time": 1688, "pitch": 46, "duration": 18, "velocity": 100}, {"time": 1694, "pitch": 58, "duration": 5, "velocity": 72}, {"time": 1700, "pitch": 58, "duration": 1, "velocity": 35}, {"time": 1700, "pitch": 62, "duration": 11, "velocity": 74}, {"time": 1700, "pitch": 65, "duration": 11, "velocity": 68}, {"time": 1706, "pitch": 58, "duration": 7, "velocity": 93}, {"time": 1712, "pitch": 43, "duration": 10, "velocity": 90}, {"time": 1718, "pitch": 55, "duration": 19, "velocity": 55}, {"time": 1724, "pitch": 62, "duration": 8, "velocity": 127}, {"time": 1730, "pitch": 58, "duration": 8, "velocity": 99}, {"time": 1736, "pitch": 39, "duration": 15, "velocity": 78}, {"time": 1742, "pitch": 51, "duration": 9, "velocity": 99}, {"time": 1748, "pitch": 63, "duration": 11, "velocity": 122}, {"time": 1754, "pitch": 58, "duration": 5, "velocity": 100}, {"time": 1760, "pitch": 41, "duration": 14, "velocity": 90}, {"time": 1766, "pitch": 48, "duration": 9, "velocity": 68}, {"time": 1772, "pitch": 60, "duration": 12, "velocity": 89}, {"time": 1772, "pitch": 65, "duration": 12, "velocity": 93}, {"time": 1784, "pitch": 46, "duration": 42, "velocity": 82}, {"time": 1790, "pitch": 53, "duration": 42, "velocity": 53}, {"time": 1796, "pitch": 62, "duration": 15, "velocity": 83}, {"time": 1796, "pitch": 65, "duration": 11, "velocity": 81}, {"time": 1802, "pitch": 58, "duration": 9, "velocity": 99}, {"time": 1808, "pitch": 70, "duration": 24, "velocity": 127}, {"time": 1814, "pitch": 58, "duration": 18, "velocity": 93}, {"time": 1820, "pitch": 65, "duration": 12, "velocity": 96}, {"time": 1826, "pitch": 62, "duration": 6, "velocity": 92}, {"time": 1832, "pitch": 44, "duration": 23, "velocity": 107}, {"time": 1838, "pitch": 56, "duration": 8, "velocity": 97}, {"time": 1844, "pitch": 62, "duration": 19, "velocity": 66}, {"time": 1844, "pitch": 65, "duration": 19, "velocity": 70}, {"time": 1850, "pitch": 56, "duration": 10, "velocity": 96}, {"time": 1856, "pitch": 44, "duration": 18, "velocity": 73}, {"time": 1862, "pitch": 56, "duration": 8, "velocity": 58}, {"time": 1868, "pitch": 62, "duration": 12, "velocity": 76}, {"time": 1868, "pitch": 65, "duration": 12, "velocity": 66}, {"time": 1874, "pitch": 56, "duration": 6, "velocity": 77}, {"time": 1880, "pitch": 43, "duration": 39, "velocity": 79}, {"time": 1886, "pitch": 50, "duration": 12, "velocity": 88}, {"time": 1892, "pitch": 55, "duration": 9, "velocity": 93}, {"time": 1892, "pitch": 58, "duration": 14, "velocity": 107}, {"time": 1898, "pitch": 50, "duration": 10, "velocity": 59}, {"time": 1904, "pitch": 65, "duration": 24, "velocity": 81}, {"time": 1910, "pitch": 50, "duration": 8, "velocity": 89}, {"time": 1916, "pitch": 62, "duration": 12, "velocity": 92}, {"time": 1922, "pitch": 58, "duration": 6, "velocity": 86}, {"time": 1928, "pitch": 41, "duration": 22, "velocity": 83}, {"time": 1934, "pitch": 48, "duration": 20, "velocity": 69}, {"time": 1940, "pitch": 60, "duration": 13, "velocity": 100}, {"time": 1946, "pitch": 53, "duration": 6, "velocity": 86}, {"time": 1952, "pitch": 41, "duration": 18, "velocity": 89}, {"time": 1958, "pitch": 48, "duration": 10, "velocity": 77}, {"time": 1964, "pitch": 60, "duration": 1, "velocity": 28}, {"time": 1964, "pitch": 69, "duration": 13, "velocity": 127}, {"time": 1970, "pitch": 65, "duration": 7, "velocity": 93}, {"time": 1976, "pitch": 36, "duration": 22, "velocity": 93}, {"time": 1982, "pitch": 43, "duration": 19, "velocity": 62}, {"time": 1988, "pitch": 63, "duration": 12, "velocity": 127}, {"time": 1994, "pitch": 55, "duration": 7, "velocity": 96}, {"time": 2000, "pitch": 38, "duration": 18, "velocity": 90}, {"time": 2003, "pitch": 63, "duration": 1, "velocity": 36}, {"time": 2006, "pitch": 45, "duration": 14, "velocity": 66}, {"time": 2012, "pitch": 65, "duration": 11, "velocity": 122}, {"time": 2018, "pitch": 62, "duration": 5, "velocity": 112}, {"time": 2024, "pitch": 39, "duration": 22, "velocity": 92}, {"time": 2030, "pitch": 51, "duration": 13, "velocity": 85}, {"time": 2036, "pitch": 67, "duration": 19, "velocity": 92}, {"time": 2036, "pitch": 70, "duration": 19, "velocity": 107}, {"time": 2042, "pitch": 63, "duration": 12, "velocity": 85}, {"time": 2054, "pitch": 39, "duration": 8, "velocity": 96}, {"time": 2060, "pitch": 67, "duration": 10, "velocity": 96}, {"time": 2060, "pitch": 70, "duration": 10, "velocity": 127}, {"time": 2066, "pitch": 63, "duration": 6, "velocity": 96}, {"time": 2072, "pitch": 36, "duration": 16, "velocity": 90}, {"time": 2078, "pitch": 60, "duration": 7, "velocity": 88}, {"time": 2084, "pitch": 63, "duration": 9, "velocity": 112}, {"time": 2084, "pitch": 67, "duration": 10, "velocity": 117}, {"time": 2090, "pitch": 60, "duration": 6, "velocity": 90}, {"time": 2096, "pitch": 38, "duration": 14, "velocity": 77}, {"time": 2102, "pitch": 57, "duration": 8, "velocity": 73}, {"time": 2108, "pitch": 62, "duration": 12, "velocity": 93}, {"time": 2114, "pitch": 57, "duration": 8, "velocity": 79}, {"time": 2120, "pitch": 39, "duration": 43, "velocity": 85}, {"time": 2126, "pitch": 51, "duration": 10, "velocity": 86}, {"time": 2132, "pitch": 55, "duration": 31, "velocity": 102}, {"time": 2138, "pitch": 51, "duration": 25, "velocity": 62}, {"time": 2144, "pitch": 58, "duration": 19, "velocity": 66}, {"time": 2144, "pitch": 63, "duration": 19, "velocity": 72}, {"time": 2168, "pitch": 46, "duration": 41, "velocity": 77}, {"time": 2174, "pitch": 53, "duration": 35, "velocity": 52}, {"time": 2180, "pitch": 58, "duration": 23, "velocity": 54}, {"time": 2180, "pitch": 62, "duration": 20, "velocity": 69}, {"time": 2180, "pitch": 65, "duration": 20, "velocity": 51}, {"time": 2204, "pitch": 62, "duration": 14, "velocity": 61}, {"time": 2204, "pitch": 65, "duration": 13, "velocity": 64}, {"time": 2210, "pitch": 58, "duration": 8, "velocity": 61}, {"time": 2216, "pitch": 45, "duration": 38, "velocity": 72}, {"time": 2222, "pitch": 57, "duration": 8, "velocity": 59}, {"time": 2228, "pitch": 62, "duration": 13, "velocity": 79}, {"time": 2234, "pitch": 57, "duration": 9, "velocity": 55}, {"time": 2240, "pitch": 65, "duration": 23, "velocity": 86}, {"time": 2252, "pitch": 62, "duration": 12, "velocity": 86}, {"time": 2258, "pitch": 57, "duration": 6, "velocity": 90}, {"time": 2264, "pitch": 44, "duration": 46, "velocity": 99}, {"time": 2270, "pitch": 56, "duration": 10, "velocity": 92}, {"time": 2276, "pitch": 62, "duration": 13, "velocity": 100}, {"time": 2282, "pitch": 56, "duration": 6, "velocity": 61}, {"time": 2288, "pitch": 65, "duration": 13, "velocity": 95}, {"time": 2291, "pitch": 56, "duration": 10, "velocity": 9}, {"time": 2300, "pitch": 62, "duration": 11, "velocity": 89}, {"time": 2306, "pitch": 65, "duration": 6, "velocity": 72}, {"time": 2312, "pitch": 43, "duration": 36, "velocity": 75}, {"time": 2318, "pitch": 55, "duration": 8, "velocity": 78}, {"time": 2324, "pitch": 58, "duration": 12, "velocity": 112}, {"time": 2327, "pitch": 51, "duration": 11, "velocity": 74}, {"time": 2336, "pitch": 63, "duration": 24, "velocity": 112}, {"time": 2342, "pitch": 51, "duration": 7, "velocity": 68}, {"time": 2348, "pitch": 58, "duration": 12, "velocity": 100}, {"time": 2354, "pitch": 55, "duration": 6, "velocity": 81}, {"time": 2360, "pitch": 39, "duration": 39, "velocity": 82}, {"time": 2366, "pitch": 46, "duration": 32, "velocity": 44}, {"time": 2372, "pitch": 51, "duration": 15, "velocity": 56}, {"time": 2378, "pitch": 54, "duration": 8, "velocity": 77}, {"time": 2384, "pitch": 63, "duration": 23, "velocity": 93}, {"time": 2387, "pitch": 51, "duration": 9, "velocity": 69}, {"time": 2396, "pitch": 58, "duration": 11, "velocity": 56}, {"time": 2402, "pitch": 54, "duration": 6, "velocity": 66}, {"time": 2405, "pitch": 46, "duration": 37, "velocity": 63}, {"time": 2414, "pitch": 53, "duration": 29, "velocity": 48}, {"time": 2417, "pitch": 58, "duration": 15, "velocity": 76}, {"time": 2426, "pitch": 62, "duration": 7, "velocity": 59}, {"time": 2432, "pitch": 65, "duration": 13, "velocity": 102}, {"time": 2435, "pitch": 58, "duration": 4, "velocity": 58}, {"time": 2444, "pitch": 62, "duration": 12, "velocity": 75}, {"time": 2450, "pitch": 65, "duration": 6, "velocity": 64}, {"time": 2456, "pitch": 39, "duration": 34, "velocity": 79}, {"time": 2462, "pitch": 46, "duration": 29, "velocity": 54}, {"time": 2468, "pitch": 51, "duration": 15, "velocity": 71}, {"time": 2474, "pitch": 55, "duration": 12, "velocity": 62}, {"time": 2480, "pitch": 63, "duration": 24, "velocity": 99}, {"time": 2486, "pitch": 51, "duration": 5, "velocity": 50}, {"time": 2492, "pitch": 58, "duration": 12, "velocity": 72}, {"time": 2501, "pitch": 41, "duration": 47, "velocity": 73}, {"time": 2507, "pitch": 48, "duration": 41, "velocity": 63}, {"time": 2513, "pitch": 53, "duration": 15, "velocity": 75}, {"time": 2522, "pitch": 57, "duration": 8, "velocity": 58}, {"time": 2525, "pitch": 60, "duration": 13, "velocity": 73}, {"time": 2534, "pitch": 53, "duration": 6, "velocity": 67}, {"time": 2540, "pitch": 65, "duration": 8, "velocity": 93}, {"time": 2546, "pitch": 60, "duration": 2, "velocity": 63}, {"time": 2552, "pitch": 46, "duration": 36, "velocity": 90}, {"time": 2558, "pitch": 53, "duration": 29, "velocity": 63}, {"time": 2564, "pitch": 58, "duration": 15, "velocity": 99}, {"time": 2570, "pitch": 62, "duration": 7, "velocity": 65}, {"time": 2576, "pitch": 65, "duration": 27, "velocity": 102}, {"time": 2582, "pitch": 58, "duration": 4, "velocity": 58}, {"time": 2588, "pitch": 62, "duration": 14, "velocity": 117}, {"time": 2600, "pitch": 45, "duration": 37, "velocity": 83}, {"time": 2606, "pitch": 57, "duration": 8, "velocity": 59}, {"time": 2612, "pitch": 62, "duration": 11, "velocity": 68}, {"time": 2618, "pitch": 57, "duration": 8, "velocity": 43}, {"time": 2624, "pitch": 65, "duration": 22, "velocity": 127}, {"time": 2636, "pitch": 62, "duration": 15, "velocity": 99}, {"time": 2642, "pitch": 57, "duration": 5, "velocity": 92}, {"time": 2648, "pitch": 44, "duration": 38, "velocity": 97}, {"time": 2654, "pitch": 56, "duration": 9, "velocity": 100}, {"time": 2660, "pitch": 62, "duration": 14, "velocity": 74}, {"time": 2666, "pitch": 56, "duration": 8, "velocity": 63}, {"time": 2672, "pitch": 65, "duration": 23, "velocity": 74}, {"time": 2684, "pitch": 56, "duration": 13, "velocity": 97}, {"time": 2690, "pitch": 62, "duration": 5, "velocity": 65}, {"time": 2696, "pitch": 43, "duration": 39, "velocity": 79}, {"time": 2702, "pitch": 51, "duration": 7, "velocity": 71}, {"time": 2708, "pitch": 55, "duration": 6, "velocity": 66}, {"time": 2714, "pitch": 51, "duration": 8, "velocity": 95}, {"time": 2720, "pitch": 63, "duration": 24, "velocity": 117}, {"time": 2732, "pitch": 55, "duration": 12, "velocity": 68}, {"time": 2738, "pitch": 51, "duration": 6, "velocity": 95}, {"time": 2744, "pitch": 39, "duration": 35, "velocity": 92}, {"time": 2750, "pitch": 46, "duration": 29, "velocity": 54}, {"time": 2756, "pitch": 51, "duration": 16, "velocity": 90}, {"time": 2762, "pitch": 54, "duration": 8, "velocity": 96}, {"time": 2768, "pitch": 63, "duration": 23, "velocity": 122}, {"time": 2774, "pitch": 51, "duration": 6, "velocity": 66}, {"time": 2780, "pitch": 58, "duration": 11, "velocity": 95}, {"time": 2792, "pitch": 46, "duration": 15, "velocity": 97}, {"time": 2798, "pitch": 58, "duration": 7, "velocity": 86}, {"time": 2804, "pitch": 65, "duration": 12, "velocity": 75}, {"time": 2810, "pitch": 58, "duration": 7, "velocity": 97}, {"time": 2816, "pitch": 43, "duration": 14, "velocity": 82}, {"time": 2822, "pitch": 55, "duration": 8, "velocity": 90}, {"time": 2828, "pitch": 62, "duration": 12, "velocity": 99}, {"time": 2834, "pitch": 58, "duration": 6, "velocity": 81}, {"time": 2840, "pitch": 39, "duration": 15, "velocity": 102}, {"time": 2846, "pitch": 51, "duration": 11, "velocity": 82}, {"time": 2852, "pitch": 55, "duration": 11, "velocity": 88}, {"time": 2858, "pitch": 63, "duration": 7, "velocity": 122}, {"time": 2864, "pitch": 41, "duration": 13, "velocity": 75}, {"time": 2870, "pitch": 48, "duration": 9, "velocity": 69}, {"time": 2876, "pitch": 57, "duration": 11, "velocity": 122}, {"time": 2882, "pitch": 60, "duration": 6, "velocity": 93}, {"time": 2888, "pitch": 46, "duration": 46, "velocity": 78}, {"time": 2894, "pitch": 53, "duration": 42, "velocity": 40}, {"time": 2900, "pitch": 58, "duration": 15, "velocity": 63}, {"time": 2906, "pitch": 62, "duration": 7, "velocity": 92}, {"time": 2912, "pitch": 65, "duration": 23, "velocity": 127}, {"time": 2918, "pitch": 58, "duration": 8, "velocity": 112}, {"time": 2924, "pitch": 62, "duration": 9, "velocity": 102}, {"time": 2930, "pitch": 58, "duration": 7, "velocity": 96}, {"time": 2936, "pitch": 46, "duration": 43, "velocity": 102}, {"time": 2936, "pitch": 62, "duration": 16, "velocity": 99}, {"time": 2936, "pitch": 68, "duration": 16, "velocity": 122}, {"time": 2942, "pitch": 53, "duration": 36, "velocity": 59}, {"time": 2942, "pitch": 58, "duration": 2, "velocity": 31}, {"time": 2948, "pitch": 58, "duration": 11, "velocity": 112}, {"time": 2954, "pitch": 62, "duration": 10, "velocity": 96}, {"time": 2954, "pitch": 68, "duration": 11, "velocity": 127}, {"time": 2960, "pitch": 58, "duration": 14, "velocity": 117}, {"time": 2966, "pitch": 62, "duration": 5, "velocity": 75}, {"time": 2966, "pitch": 68, "duration": 5, "velocity": 81}, {"time": 2966, "pitch": 70, "duration": 5, "velocity": 67}, {"time": 2972, "pitch": 68, "duration": 12, "velocity": 127}, {"time": 2972, "pitch": 70, "duration": 12, "velocity": 127}, {"time": 2975, "pitch": 58, "duration": 1, "velocity": 93}, {"time": 2978, "pitch": 62, "duration": 5, "velocity": 100}, {"time": 2984, "pitch": 36, "duration": 18, "velocity": 100}, {"time": 2990, "pitch": 43, "duration": 13, "velocity": 72}, {"time": 2996, "pitch": 55, "duration": 12, "velocity": 81}, {"time": 2996, "pitch": 60, "duration": 12, "velocity": 102}, {"time": 2996, "pitch": 63, "duration": 12, "velocity": 102}, {"time": 3002, "pitch": 48, "duration": 5, "velocity": 97}, {"time": 3008, "pitch": 41, "duration": 13, "velocity": 100}, {"time": 3014, "pitch": 48, "duration": 9, "velocity": 90}, {"time": 3020, "pitch": 57, "duration": 11, "velocity": 93}, {"time": 3020, "pitch": 60, "duration": 11, "velocity": 95}, {"time": 3026, "pitch": 53, "duration": 5, "velocity": 82}, {"time": 3032, "pitch": 46, "duration": 18, "velocity": 86}, {"time": 3038, "pitch": 53, "duration": 12, "velocity": 58}, {"time": 3044, "pitch": 62, "duration": 12, "velocity": 127}, {"time": 3050, "pitch": 58, "duration": 1, "velocity": 96}, {"time": 3056, "pitch": 43, "duration": 16, "velocity": 92}, {"time": 3062, "pitch": 50, "duration": 10, "velocity": 86}, {"time": 3068, "pitch": 62, "duration": 12, "velocity": 127}, {"time": 3074, "pitch": 58, "duration": 7, "velocity": 122}, {"time": 3077, "pitch": 55, "duration": 5, "velocity": 95}, {"time": 3080, "pitch": 36, "duration": 16, "velocity": 90}, {"time": 3086, "pitch": 48, "duration": 12, "velocity": 86}, {"time": 3092, "pitch": 63, "duration": 13, "velocity": 127}, {"time": 3098, "pitch": 60, "duration": 6, "velocity": 81}, {"time": 3101, "pitch": 55, "duration": 3, "velocity": 93}, {"time": 3104, "pitch": 41, "duration": 17, "velocity": 88}, {"time": 3110, "pitch": 48, "duration": 11, "velocity": 53}, {"time": 3116, "pitch": 69, "duration": 12, "velocity": 122}, {"time": 3119, "pitch": 53, "duration": 3, "velocity": 88}, {"time": 3122, "pitch": 65, "duration": 5, "velocity": 92}, {"time": 3125, "pitch": 60, "duration": 4, "velocity": 85}, {"time": 3128, "pitch": 46, "duration": 20, "velocity": 73}, {"time": 3134, "pitch": 53, "duration": 14, "velocity": 61}, {"time": 3140, "pitch": 62, "duration": 12, "velocity": 112}, {"time": 3146, "pitch": 58, "duration": 3, "velocity": 100}, {"time": 3152, "pitch": 43, "duration": 15, "velocity": 88}, {"time": 3158, "pitch": 50, "duration": 9, "velocity": 71}, {"time": 3164, "pitch": 58, "duration": 11, "velocity": 122}, {"time": 3164, "pitch": 62, "duration": 11, "velocity": 100}, {"time": 3170, "pitch": 55, "duration": 6, "velocity": 76}, {"time": 3176, "pitch": 36, "duration": 14, "velocity": 90}, {"time": 3182, "pitch": 48, "duration": 14, "velocity": 92}, {"time": 3188, "pitch": 63, "duration": 13, "velocity": 102}, {"time": 3194, "pitch": 60, "duration": 6, "velocity": 100}, {"time": 3197, "pitch": 55, "duration": 3, "velocity": 81}, {"time": 3200, "pitch": 41, "duration": 19, "velocity": 100}, {"time": 3206, "pitch": 48, "duration": 14, "velocity": 74}, {"time": 3212, "pitch": 65, "duration": 12, "velocity": 102}, {"time": 3215, "pitch": 53, "duration": 3, "velocity": 72}, {"time": 3218, "pitch": 60, "duration": 5, "velocity": 96}, {"time": 3221, "pitch": 57, "duration": 3, "velocity": 97}, {"time": 3224, "pitch": 46, "duration": 18, "velocity": 90}, {"time": 3230, "pitch": 58, "duration": 8, "velocity": 96}, {"time": 3236, "pitch": 62, "duration": 13, "velocity": 96}, {"time": 3239, "pitch": 58, "duration": 2, "velocity": 76}, {"time": 3248, "pitch": 43, "duration": 23, "velocity": 97}, {"time": 3254, "pitch": 50, "duration": 17, "velocity": 71}, {"time": 3260, "pitch": 62, "duration": 11, "velocity": 127}, {"time": 3266, "pitch": 58, "duration": 4, "velocity": 127}, {"time": 3269, "pitch": 55, "duration": 4, "velocity": 95}, {"time": 3272, "pitch": 48, "duration": 11, "velocity": 102}, {"time": 3278, "pitch": 55, "duration": 7, "velocity": 99}, {"time": 3284, "pitch": 60, "duration": 7, "velocity": 112}, {"time": 3284, "pitch": 63, "duration": 6, "velocity": 127}, {"time": 3290, "pitch": 55, "duration": 5, "velocity": 88}, {"time": 3296, "pitch": 36, "duration": 17, "velocity": 77}, {"time": 3296, "pitch": 60, "duration": 10, "velocity": 117}, {"time": 3296, "pitch": 64, "duration": 11, "velocity": 112}, {"time": 3302, "pitch": 48, "duration": 16, "velocity": 83}, {"time": 3308, "pitch": 60, "duration": 11, "velocity": 122}, {"time": 3314, "pitch": 55, "duration": 6, "velocity": 99}, {"time": 3320, "pitch": 41, "duration": 8, "velocity": 66}, {"time": 3320, "pitch": 53, "duration": 8, "velocity": 92}, {"time": 3320, "pitch": 63, "duration": 8, "velocity": 102}, {"time": 3320, "pitch": 67, "duration": 7, "velocity": 95}, {"time": 3320, "pitch": 70, "duration": 8, "velocity": 99}, {"time": 3329, "pitch": 41, "duration": 7, "velocity": 69}, {"time": 3329, "pitch": 53, "duration": 7, "velocity": 72}, {"time": 3329, "pitch": 63, "duration": 7, "velocity": 99}, {"time": 3329, "pitch": 67, "duration": 6, "velocity": 99}, {"time": 3329, "pitch": 70, "duration": 6, "velocity": 99}, {"time": 3338, "pitch": 41, "duration": 5, "velocity": 71}, {"time": 3338, "pitch": 53, "duration": 5, "velocity": 83}, {"time": 3338, "pitch": 63, "duration": 3, "velocity": 76}, {"time": 3338, "pitch": 67, "duration": 6, "velocity": 117}, {"time": 3338, "pitch": 70, "duration": 3, "velocity": 96}, {"time": 3344, "pitch": 41, "duration": 28, "velocity": 77}, {"time": 3344, "pitch": 53, "duration": 27, "velocity": 89}, {"time": 3344, "pitch": 65, "duration": 27, "velocity": 99}, {"time": 3344, "pitch": 69, "duration": 28, "velocity": 97}, {"time": 3344, "pitch": 72, "duration": 28, "velocity": 99}, {"time": 3368, "pitch": 41, "duration": 4, "velocity": 63}, {"time": 3368, "pitch": 53, "duration": 3, "velocity": 99}, {"time": 3368, "pitch": 63, "duration": 7, "velocity": 107}, {"time": 3368, "pitch": 67, "duration": 1, "velocity": 96}, {"time": 3368, "pitch": 70, "duration": 7, "velocity": 99}, {"time": 3371, "pitch": 67, "duration": 2, "velocity": 23}, {"time": 3377, "pitch": 63, "duration": 7, "velocity": 95}, {"time": 3377, "pitch": 67, "duration": 7, "velocity": 96}, {"time": 3377, "pitch": 70, "duration": 7, "velocity": 95}, {"time": 3386, "pitch": 63, "duration": 4, "velocity": 96}, {"time": 3386, "pitch": 67, "duration": 6, "velocity": 100}, {"time": 3386, "pitch": 70, "duration": 3, "velocity": 99}, {"time": 3392, "pitch": 41, "duration": 23, "velocity": 60}, {"time": 3392, "pitch": 53, "duration": 21, "velocity": 89}, {"time": 3392, "pitch": 65, "duration": 23, "velocity": 89}, {"time": 3392, "pitch": 69, "duration": 24, "velocity": 100}, {"time": 3392, "pitch": 72, "duration": 24, "velocity": 99}, {"time": 3416, "pitch": 46, "duration": 37, "velocity": 97}, {"time": 3422, "pitch": 58, "duration": 21, "velocity": 81}, {"time": 3428, "pitch": 62, "duration": 13, "velocity": 122}, {"time": 3434, "pitch": 53, "duration": 23, "velocity": 60}, {"time": 3440, "pitch": 65, "duration": 14, "velocity": 102}, {"time": 3446, "pitch": 58, "duration": 4, "velocity": 67}, {"time": 3452, "pitch": 62, "duration": 17, "velocity": 117}, {"time": 3458, "pitch": 65, "duration": 7, "velocity": 93}, {"time": 3464, "pitch": 45, "duration": 46, "velocity": 78}, {"time": 3470, "pitch": 57, "duration": 9, "velocity": 86}, {"time": 3476, "pitch": 62, "duration": 10, "velocity": 88}, {"time": 3482, "pitch": 57, "duration": 8, "velocity": 66}, {"time": 3488, "pitch": 65, "duration": 23, "velocity": 107}, {"time": 3494, "pitch": 57, "duration": 6, "velocity": 50}, {"time": 3500, "pitch": 62, "duration": 11, "velocity": 99}, {"time": 3506, "pitch": 57, "duration": 6, "velocity": 88}, {"time": 3512, "pitch": 44, "duration": 46, "velocity": 86}, {"time": 3518, "pitch": 56, "duration": 9, "velocity": 95}, {"time": 3524, "pitch": 62, "duration": 19, "velocity": 75}, {"time": 3530, "pitch": 56, "duration": 9, "velocity": 83}, {"time": 3536, "pitch": 65, "duration": 22, "velocity": 72}, {"time": 3542, "pitch": 56, "duration": 7, "velocity": 44}, {"time": 3548, "pitch": 62, "duration": 11, "velocity": 68}, {"time": 3554, "pitch": 56, "duration": 7, "velocity": 92}, {"time": 3560, "pitch": 43, "duration": 35, "velocity": 72}, {"time": 3566, "pitch": 51, "duration": 7, "velocity": 83}, {"time": 3572, "pitch": 55, "duration": 15, "velocity": 78}, {"time": 3578, "pitch": 58, "duration": 7, "velocity": 65}, {"time": 3584, "pitch": 63, "duration": 25, "velocity": 82}, {"time": 3590, "pitch": 58, "duration": 7, "velocity": 38}, {"time": 3596, "pitch": 55, "duration": 12, "velocity": 83}, {"time": 3602, "pitch": 58, "duration": 6, "velocity": 82}, {"time": 3608, "pitch": 39, "duration": 32, "velocity": 82}, {"time": 3614, "pitch": 51, "duration": 11, "velocity": 74}, {"time": 3620, "pitch": 54, "duration": 14, "velocity": 76}, {"time": 3626, "pitch": 51, "duration": 9, "velocity": 59}, {"time": 3632, "pitch": 63, "duration": 23, "velocity": 122}, {"time": 3638, "pitch": 51, "duration": 5, "velocity": 82}, {"time": 3644, "pitch": 54, "duration": 6, "velocity": 102}, {"time": 3650, "pitch": 58, "duration": 5, "velocity": 69}, {"time": 3656, "pitch": 46, "duration": 18, "velocity": 100}, {"time": 3662, "pitch": 58, "duration": 5, "velocity": 72}, {"time": 3668, "pitch": 58, "duration": 1, "velocity": 35}, {"time": 3668, "pitch": 62, "duration": 11, "velocity": 74}, {"time": 3668, "pitch": 65, "duration": 11, "velocity": 68}, {"time": 3674, "pitch": 58, "duration": 7, "velocity": 93}, {"time": 3680, "pitch": 43, "duration": 10, "velocity": 90}, {"time": 3686, "pitch": 55, "duration": 19, "velocity": 55}, {"time": 3692, "pitch": 62, "duration": 8, "velocity": 127}, {"time": 3698, "pitch": 58, "duration": 8, "velocity": 99}, {"time": 3704, "pitch": 39, "duration": 15, "velocity": 78}, {"time": 3710, "pitch": 51, "duration": 9, "velocity": 99}, {"time": 3716, "pitch": 63, "duration": 11, "velocity": 122}, {"time": 3722, "pitch": 58, "duration": 5, "velocity": 100}, {"time": 3728, "pitch": 41, "duration": 14, "velocity": 90}, {"time": 3734, "pitch": 48, "duration": 9, "velocity": 68}, {"time": 3740, "pitch": 60, "duration": 12, "velocity": 89}, {"time": 3740, "pitch": 65, "duration": 12, "velocity": 93}, {"time": 3752, "pitch": 46, "duration": 42, "velocity": 82}, {"time": 3758, "pitch": 53, "duration": 42, "velocity": 53}, {"time": 3764, "pitch": 62, "duration": 15, "velocity": 83}, {"time": 3764, "pitch": 65, "duration": 11, "velocity": 81}, {"time": 3770, "pitch": 58, "duration": 9, "velocity": 99}, {"time": 3776, "pitch": 70, "duration": 24, "velocity": 127}, {"time": 3782, "pitch": 58, "duration": 18, "velocity": 93}, {"time": 3788, "pitch": 65, "duration": 12, "velocity": 96}, {"time": 3794, "pitch": 62, "duration": 6, "velocity": 92}, {"time": 3800, "pitch": 58, "duration": 12, "velocity": 83}, {"time": 3800, "pitch": 46, "duration": 13, "velocity": 66}, {"time": 3800, "pitch": 65, "duration": 13, "velocity": 60}, {"time": 3801, "pitch": 62, "duration": 12, "velocity": 67}, {"time": 3825, "pitch": 72, "duration": 22, "velocity": 78}, {"time": 3825, "pitch": 66, "duration": 22, "velocity": 81}, {"time": 3825, "pitch": 69, "duration": 22, "velocity": 76}, {"time": 3825, "pitch": 62, "duration": 23, "velocity": 79}, {"time": 3825, "pitch": 54, "duration": 22, "velocity": 72}, {"time": 3848, "pitch": 46, "duration": 18, "velocity": 99}, {"time": 3854, "pitch": 58, "duration": 11, "velocity": 66}, {"time": 3861, "pitch": 62, "duration": 12, "velocity": 95}, {"time": 3867, "pitch": 65, "duration": 6, "velocity": 92}, {"time": 3874, "pitch": 43, "duration": 19, "velocity": 92}, {"time": 3881, "pitch": 55, "duration": 12, "velocity": 78}, {"time": 3887, "pitch": 62, "duration": 14, "velocity": 102}, {"time": 3893, "pitch": 58, "duration": 8, "velocity": 72}, {"time": 3901, "pitch": 36, "duration": 23, "velocity": 82}, {"time": 3909, "pitch": 48, "duration": 19, "velocity": 69}, {"time": 3916, "pitch": 63, "duration": 12, "velocity": 99}, {"time": 3925, "pitch": 60, "duration": 9, "velocity": 58}, {"time": 3935, "pitch": 41, "duration": 25, "velocity": 81}, {"time": 3936, "pitch": 60, "duration": 19, "velocity": 53}, {"time": 3936, "pitch": 57, "duration": 35, "velocity": 41}, {"time": 3943, "pitch": 48, "duration": 17, "velocity": 52}, {"time": 3951, "pitch": 53, "duration": 12, "velocity": 85}, {"time": 3958, "pitch": 60, "duration": 8, "velocity": 68}, {"time": 3970, "pitch": 46, "duration": 73, "velocity": 73}, {"time": 3970, "pitch": 62, "duration": 74, "velocity": 68}, {"time": 3970, "pitch": 65, "duration": 74, "velocity": 62}, {"time": 3971, "pitch": 58, "duration": 72, "velocity": 50}], "annotations": [{"time": 9, "annotation": {"number": 64, "value": 127}, "group": "control_change"}, {"time": 54, "annotation": {"number": 64, "value": 0}, "group": "control_change"}, {"time": 56, "annotation": {"number": 64, "value": 127}, "group": "control_change"}, {"time": 198, "annotation": {"number": 64, "value": 0}, "group": "control_change"}, {"time": 200, "annotation": {"number": 64, "value": 127}, "group": "control_change"}, {"time": 246, "annotation": {"number": 64, "value": 0}, "group": "control_change"}, {"time": 249, "annotation": {"number": 64, "value": 127}, "group": "control_change"}, {"time": 293, "annotation": {"number": 64, "value": 0}, "group": "control_change"}, {"time": 297, "annotation": {"number": 64, "value": 127}, "group": "control_change"}, {"time": 390, "annotation": {"number": 64, "value": 0}, "group": "control_change"}, {"time": 399, "annotation": {"number": 64, "value": 127}, "group": "control_change"}, {"time": 437, "annotation": {"number": 64, "value": 0}, "group": "control_change"}, {"time": 440, "annotation": {"number": 64, "value": 127}, "group": "control_change"}, {"time": 486, "annotation": {"number": 64, "value": 0}, "group": "control_change"}, {"time": 488, "annotation": {"number": 64, "value": 127}, "group": "control_change"}, {"time": 533, "annotation": {"number": 64, "value": 0}, "group": "control_change"}, {"time": 534, "annotation": {"number": 64, "value": 127}, "group": "control_change"}, {"time": 586, "annotation": {"number": 64, "value": 127}, "group": "control_change"}, {"time": 630, "annotation": {"number": 64, "value": 0}, "group": "control_change"}, {"time": 634, "annotation": {"number": 64, "value": 127}, "group": "control_change"}, {"time": 725, "annotation": {"number": 64, "value": 0}, "group": "control_change"}, {"time": 729, "annotation": {"number": 64, "value": 127}, "group": "control_change"}, {"time": 775, "annotation": {"number": 64, "value": 0}, "group": "control_change"}, {"time": 778, "annotation": {"number": 64, "value": 127}, "group": "control_change"}, {"time": 822, "annotation": {"number": 64, "value": 0}, "group": "control_change"}, {"time": 824, "annotation": {"number": 64, "value": 127}, "group": "control_change"}, {"time": 844, "annotation": {"number": 64, "value": 0}, "group": "control_change"}, {"time": 849, "annotation": {"number": 64, "value": 127}, "group": "control_change"}, {"time": 870, "annotation": {"number": 64, "value": 0}, "group": "control_change"}, {"time": 880, "annotation": {"number": 64, "value": 127}, "group": "control_change"}, {"time": 893, "annotation": {"number": 64, "value": 0}, "group": "control_change"}, {"time": 897, "annotation": {"number": 64, "value": 127}, "group": "control_change"}, {"time": 916, "annotation": {"number": 64, "value": 0}, "group": "control_change"}, {"time": 920, "annotation": {"number": 64, "value": 127}, "group": "control_change"}, {"time": 932, "annotation": {"number": 64, "value": 0}, "group": "control_change"}, {"time": 935, "annotation": {"number": 64, "value": 127}, "group": "control_change"}, {"time": 966, "annotation": {"number": 64, "value": 0}, "group": "control_change"}, {"time": 969, "annotation": {"number": 64, "value": 127}, "group": "control_change"}, {"time": 988, "annotation": {"number": 64, "value": 0}, "group": "control_change"}, {"time": 992, "annotation": {"number": 64, "value": 127}, "group": "control_change"}, {"time": 1015, "annotation": {"number": 64, "value": 0}, "group": "control_change"}, {"time": 1017, "annotation": {"number": 64, "value": 127}, "group": "control_change"}, {"time": 1038, "annotation": {"number": 64, "value": 0}, "group": "control_change"}, {"time": 1040, "annotation": {"number": 64, "value": 127}, "group": "control_change"}, {"time": 1061, "annotation": {"number": 64, "value": 0}, "group": "control_change"}, {"time": 1064, "annotation": {"number": 64, "value": 127}, "group": "control_change"}, {"time": 1086, "annotation": {"number": 64, "value": 0}, "group": "control_change"}, {"time": 1088, "annotation": {"number": 64, "value": 127}, "group": "control_change"}, {"time": 1110, "annotation": {"number": 64, "value": 0}, "group": "control_change"}, {"time": 1112, "annotation": {"number": 64, "value": 127}, "group": "control_change"}, {"time": 1133, "annotation": {"number": 64, "value": 0}, "group": "control_change"}, {"time": 1136, "annotation": {"number": 64, "value": 127}, "group": "control_change"}, {"time": 1157, "annotation": {"number": 64, "value": 0}, "group": "control_change"}, {"time": 1160, "annotation": {"number": 64, "value": 127}, "group": "control_change"}, {"time": 1182, "annotation": {"number": 64, "value": 0}, "group": "control_change"}, {"time": 1185, "annotation": {"number": 64, "value": 127}, "group": "control_change"}, {"time": 1205, "annotation": {"number": 64, "value": 0}, "group": "control_change"}, {"time": 1208, "annotation": {"number": 64, "value": 127}, "group": "control_change"}, {"time": 1230, "annotation": {"number": 64, "value": 0}, "group": "control_change"}, {"time": 1233, "annotation": {"number": 64, "value": 127}, "group": "control_change"}, {"time": 1253, "annotation": {"number": 64, "value": 0}, "group": "control_change"}, {"time": 1256, "annotation": {"number": 64, "value": 127}, "group": "control_change"}, {"time": 1279, "annotation": {"number": 64, "value": 0}, "group": "control_change"}, {"time": 1282, "annotation": {"number": 64, "value": 127}, "group": "control_change"}, {"time": 1302, "annotation": {"number": 64, "value": 0}, "group": "control_change"}, {"time": 1305, "annotation": {"number": 64, "value": 127}, "group": "control_change"}, {"time": 1325, "annotation": {"number": 64, "value": 0}, "group": "control_change"}, {"time": 1328, "annotation": {"number": 64, "value": 127}, "group": "control_change"}, {"time": 1349, "annotation": {"number": 64, "value": 0}, "group": "control_change"}, {"time": 1355, "annotation": {"number": 64, "value": 127}, "group": "control_change"}, {"time": 1377, "annotation": {"number": 64, "value": 0}, "group": "control_change"}, {"time": 1399, "annotation": {"number": 64, "value": 127}, "group": "control_change"}, {"time": 1423, "annotation": {"number": 64, "value": 0}, "group": "control_change"}, {"time": 1432, "annotation": {"number": 64, "value": 127}, "group": "control_change"}, {"time": 1449, "annotation": {"number": 64, "value": 0}, "group": "control_change"}, {"time": 1449, "annotation": {"number": 64, "value": 127}, "group": "control_change"}, {"time": 1494, "annotation": {"number": 64, "value": 0}, "group": "control_change"}, {"time": 1497, "annotation": {"number": 64, "value": 127}, "group": "control_change"}, {"time": 1541, "annotation": {"number": 64, "value": 0}, "group": "control_change"}, {"time": 1545, "annotation": {"number": 64, "value": 127}, "group": "control_change"}, {"time": 1589, "annotation": {"number": 64, "value": 0}, "group": "control_change"}, {"time": 1593, "annotation": {"number": 64, "value": 127}, "group": "control_change"}, {"time": 1639, "annotation": {"number": 64, "value": 0}, "group": "control_change"}, {"time": 1641, "annotation": {"number": 64, "value": 127}, "group": "control_change"}, {"time": 1685, "annotation": {"number": 64, "value": 0}, "group": "control_change"}, {"time": 1689, "annotation": {"number": 64, "value": 127}, "group": "control_change"}, {"time": 1710, "annotation": {"number": 64, "value": 0}, "group": "control_change"}, {"time": 1713, "annotation": {"number": 64, "value": 127}, "group": "control_change"}, {"time": 1733, "annotation": {"number": 64, "value": 0}, "group": "control_change"}, {"time": 1736, "annotation": {"number": 64, "value": 127}, "group": "control_change"}, {"time": 1757, "annotation": {"number": 64, "value": 0}, "group": "control_change"}, {"time": 1761, "annotation": {"number": 64, "value": 127}, "group": "control_change"}, {"time": 1781, "annotation": {"number": 64, "value": 0}, "group": "control_change"}, {"time": 1785, "annotation": {"number": 64, "value": 127}, "group": "control_change"}, {"time": 1829, "annotation": {"number": 64, "value": 0}, "group": "control_change"}, {"time": 1833, "annotation": {"number": 64, "value": 127}, "group": "control_change"}, {"time": 1856, "annotation": {"number": 64, "value": 0}, "group": "control_change"}, {"time": 1861, "annotation": {"number": 64, "value": 127}, "group": "control_change"}, {"time": 1876, "annotation": {"number": 64, "value": 0}, "group": "control_change"}, {"time": 1881, "annotation": {"number": 64, "value": 127}, "group": "control_change"}, {"time": 1924, "annotation": {"number": 64, "value": 0}, "group": "control_change"}, {"time": 1928, "annotation": {"number": 64, "value": 127}, "group": "control_change"}, {"time": 1975, "annotation": {"number": 64, "value": 0}, "group": "control_change"}, {"time": 1978, "annotation": {"number": 64, "value": 127}, "group": "control_change"}, {"time": 1999, "annotation": {"number": 64, "value": 0}, "group": "control_change"}, {"time": 2002, "annotation": {"number": 64, "value": 127}, "group": "control_change"}, {"time": 2021, "annotation": {"number": 64, "value": 0}, "group": "control_change"}, {"time": 2025, "annotation": {"number": 64, "value": 127}, "group": "control_change"}, {"time": 2050, "annotation": {"number": 64, "value": 0}, "group": "control_change"}, {"time": 2050, "annotation": {"number": 64, "value": 127}, "group": "control_change"}, {"time": 2051, "annotation": {"number": 64, "value": 127}, "group": "control_change"}, {"time": 2051, "annotation": {"number": 64, "value": 0}, "group": "control_change"}, {"time": 2068, "annotation": {"number": 64, "value": 0}, "group": "control_change"}, {"time": 2072, "annotation": {"number": 64, "value": 127}, "group": "control_change"}, {"time": 2093, "annotation": {"number": 64, "value": 0}, "group": "control_change"}, {"time": 2097, "annotation": {"number": 64, "value": 127}, "group": "control_change"}, {"time": 2117, "annotation": {"number": 64, "value": 0}, "group": "control_change"}, {"time": 2120, "annotation": {"number": 64, "value": 127}, "group": "control_change"}, {"time": 2214, "annotation": {"number": 64, "value": 0}, "group": "control_change"}, {"time": 2217, "annotation": {"number": 64, "value": 127}, "group": "control_change"}, {"time": 2261, "annotation": {"number": 64, "value": 0}, "group": "control_change"}, {"time": 2265, "annotation": {"number": 64, "value": 127}, "group": "control_change"}, {"time": 2358, "annotation": {"number": 64, "value": 0}, "group": "control_change"}, {"time": 2367, "annotation": {"number": 64, "value": 127}, "group": "control_change"}, {"time": 2405, "annotation": {"number": 64, "value": 0}, "group": "control_change"}, {"time": 2408, "annotation": {"number": 64, "value": 127}, "group": "control_change"}, {"time": 2454, "annotation": {"number": 64, "value": 0}, "group": "control_change"}, {"time": 2456, "annotation": {"number": 64, "value": 127}, "group": "control_change"}, {"time": 2501, "annotation": {"number": 64, "value": 0}, "group": "control_change"}, {"time": 2502, "annotation": {"number": 64, "value": 127}, "group": "control_change"}, {"time": 2554, "annotation": {"number": 64, "value": 127}, "group": "control_change"}, {"time": 2598, "annotation": {"number": 64, "value": 0}, "group": "control_change"}, {"time": 2602, "annotation": {"number": 64, "value": 127}, "group": "control_change"}, {"time": 2693, "annotation": {"number": 64, "value": 0}, "group": "control_change"}, {"time": 2697, "annotation": {"number": 64, "value": 127}, "group": "control_change"}, {"time": 2743, "annotation": {"number": 64, "value": 0}, "group": "control_change"}, {"time": 2746, "annotation": {"number": 64, "value": 127}, "group": "control_change"}, {"time": 2790, "annotation": {"number": 64, "value": 0}, "group": "control_change"}, {"time": 2792, "annotation": {"number": 64, "value": 127}, "group": "control_change"}, {"time": 2812, "annotation": {"number": 64, "value": 0}, "group": "control_change"}, {"time": 2817, "annotation": {"number": 64, "value": 127}, "group": "control_change"}, {"time": 2838, "annotation": {"number": 64, "value": 0}, "group": "control_change"}, {"time": 2848, "annotation": {"number": 64, "value": 127}, "group": "control_change"}, {"time": 2861, "annotation": {"number": 64, "value": 0}, "group": "control_change"}, {"time": 2865, "annotation": {"number": 64, "value": 127}, "group": "control_change"}, {"time": 2884, "annotation": {"number": 64, "value": 0}, "group": "control_change"}, {"time": 2888, "annotation": {"number": 64, "value": 127}, "group": "control_change"}, {"time": 2900, "annotation": {"number": 64, "value": 0}, "group": "control_change"}, {"time": 2903, "annotation": {"number": 64, "value": 127}, "group": "control_change"}, {"time": 2934, "annotation": {"number": 64, "value": 0}, "group": "control_change"}, {"time": 2937, "annotation": {"number": 64, "value": 127}, "group": "control_change"}, {"time": 2956, "annotation": {"number": 64, "value": 0}, "group": "control_change"}, {"time": 2960, "annotation": {"number": 64, "value": 127}, "group": "control_change"}, {"time": 2983, "annotation": {"number": 64, "value": 0}, "group": "control_change"}, {"time": 2985, "annotation": {"number": 64, "value": 127}, "group": "control_change"}, {"time": 3006, "annotation": {"number": 64, "value": 0}, "group": "control_change"}, {"time": 3008, "annotation": {"number": 64, "value": 127}, "group": "control_change"}, {"time": 3029, "annotation": {"number": 64, "value": 0}, "group": "control_change"}, {"time": 3032, "annotation": {"number": 64, "value": 127}, "group": "control_change"}, {"time": 3054, "annotation": {"number": 64, "value": 0}, "group": "control_change"}, {"time": 3056, "annotation": {"number": 64, "value": 127}, "group": "control_change"}, {"time": 3078, "annotation": {"number": 64, "value": 0}, "group": "control_change"}, {"time": 3080, "annotation": {"number": 64, "value": 127}, "group": "control_change"}, {"time": 3101, "annotation": {"number": 64, "value": 0}, "group": "control_change"}, {"time": 3104, "annotation": {"number": 64, "value": 127}, "group": "control_change"}, {"time": 3125, "annotation": {"number": 64, "value": 0}, "group": "control_change"}, {"time": 3128, "annotation": {"number": 64, "value": 127}, "group": "control_change"}, {"time": 3150, "annotation": {"number": 64, "value": 0}, "group": "control_change"}, {"time": 3153, "annotation": {"number": 64, "value": 127}, "group": "control_change"}, {"time": 3173, "annotation": {"number": 64, "value": 0}, "group": "control_change"}, {"time": 3176, "annotation": {"number": 64, "value": 127}, "group": "control_change"}, {"time": 3198, "annotation": {"number": 64, "value": 0}, "group": "control_change"}, {"time": 3201, "annotation": {"number": 64, "value": 127}, "group": "control_change"}, {"time": 3221, "annotation": {"number": 64, "value": 0}, "group": "control_change"}, {"time": 3224, "annotation": {"number": 64, "value": 127}, "group": "control_change"}, {"time": 3247, "annotation": {"number": 64, "value": 0}, "group": "control_change"}, {"time": 3250, "annotation": {"number": 64, "value": 127}, "group": "control_change"}, {"time": 3270, "annotation": {"number": 64, "value": 0}, "group": "control_change"}, {"time": 3273, "annotation": {"number": 64, "value": 127}, "group": "control_change"}, {"time": 3293, "annotation": {"number": 64, "value": 0}, "group": "control_change"}, {"time": 3296, "annotation": {"number": 64, "value": 127}, "group": "control_change"}, {"time": 3317, "annotation": {"number": 64, "value": 0}, "group": "control_change"}, {"time": 3323, "annotation": {"number": 64, "value": 127}, "group": "control_change"}, {"time": 3345, "annotation": {"number": 64, "value": 0}, "group": "control_change"}, {"time": 3367, "annotation": {"number": 64, "value": 127}, "group": "control_change"}, {"time": 3391, "annotation": {"number": 64, "value": 0}, "group": "control_change"}, {"time": 3400, "annotation": {"number": 64, "value": 127}, "group": "control_change"}, {"time": 3417, "annotation": {"number": 64, "value": 0}, "group": "control_change"}, {"time": 3417, "annotation": {"number": 64, "value": 127}, "group": "control_change"}, {"time": 3462, "annotation": {"number": 64, "value": 0}, "group": "control_change"}, {"time": 3465, "annotation": {"number": 64, "value": 127}, "group": "control_change"}, {"time": 3509, "annotation": {"number": 64, "value": 0}, "group": "control_change"}, {"time": 3513, "annotation": {"number": 64, "value": 127}, "group": "control_change"}, {"time": 3557, "annotation": {"number": 64, "value": 0}, "group": "control_change"}, {"time": 3561, "annotation": {"number": 64, "value": 127}, "group": "control_change"}, {"time": 3607, "annotation": {"number": 64, "value": 0}, "group": "control_change"}, {"time": 3609, "annotation": {"number": 64, "value": 127}, "group": "control_change"}, {"time": 3653, "annotation": {"number": 64, "value": 0}, "group": "control_change"}, {"time": 3657, "annotation": {"number": 64, "value": 127}, "group": "control_change"}, {"time": 3678, "annotation": {"number": 64, "value": 0}, "group": "control_change"}, {"time": 3681, "annotation": {"number": 64, "value": 127}, "group": "control_change"}, {"time": 3701, "annotation": {"number": 64, "value": 0}, "group": "control_change"}, {"time": 3704, "annotation": {"number": 64, "value": 127}, "group": "control_change"}, {"time": 3725, "annotation": {"number": 64, "value": 0}, "group": "control_change"}, {"time": 3729, "annotation": {"number": 64, "value": 127}, "group": "control_change"}, {"time": 3749, "annotation": {"number": 64, "value": 0}, "group": "control_change"}, {"time": 3753, "annotation": {"number": 64, "value": 127}, "group": "control_change"}, {"time": 3797, "annotation": {"number": 64, "value": 0}, "group": "control_change"}, {"time": 3802, "annotation": {"number": 64, "value": 127}, "group": "control_change"}, {"time": 3827, "annotation": {"number": 64, "value": 0}, "group": "control_change"}, {"time": 3836, "annotation": {"number": 64, "value": 127}, "group": "control_change"}, {"time": 3844, "annotation": {"number": 64, "value": 0}, "group": "control_change"}, {"time": 3850, "annotation": {"number": 64, "value": 127}, "group": "control_change"}, {"time": 3872, "annotation": {"number": 64, "value": 0}, "group": "control_change"}, {"time": 3880, "annotation": {"number": 64, "value": 127}, "group": "control_change"}, {"time": 3898, "annotation": {"number": 64, "value": 0}, "group": "control_change"}, {"time": 3906, "annotation": {"number": 64, "value": 127}, "group": "control_change"}, {"time": 4050, "annotation": {"number": 64, "value": 0}, "group": "control_change"}, {"time": 4051, "annotation": {"number": 64, "value": 127}, "group": "control_change"}, {"time": 4056, "annotation": {"number": 64, "value": 0}, "group": "control_change"}]}]}