{"metadata": {"schema_version": "0.2", "title": "None", "source_filename": "375.mid", "source_format": "midi"}, "resolution": 12, "tempos": [{"time": 0, "qpm": 68.01996159139502}, {"time": 1314, "qpm": 66.3220865812733}, {"time": 1317, "qpm": 64.15698787219073}, {"time": 1318, "qpm": 61.81533082019671}, {"time": 1319, "qpm": 60.388357527257796}, {"time": 1319, "qpm": 68.01996159139502}, {"time": 1700, "qpm": 60.92848924764486}, {"time": 1704, "qpm": 56.788873166784185}, {"time": 1704, "qpm": 65.4779508457023}, {"time": 1704, "qpm": 68.01996159139502}, {"time": 2725, "qpm": 67.30939661613226}, {"time": 2728, "qpm": 65.89800307084694}, {"time": 2731, "qpm": 64.0900336793127}, {"time": 2736, "qpm": 68.01996159139502}, {"time": 3204, "qpm": 80.0}, {"time": 3240, "qpm": 64.0}, {"time": 3312, "qpm": 61.99999586666694}, {"time": 3348, "qpm": 54.00000540000054}], "time_signatures": [{"time": 0, "numerator": 1, "denominator": 4}], "tracks": [{"program": 0, "is_drum": false, "name": "MELODY", "notes": [{"time": 359, "pitch": 60, "duration": 2, "velocity": 95}, {"time": 362, "pitch": 60, "duration": 2, "velocity": 76}, {"time": 365, "pitch": 60, "duration": 2, "velocity": 71}, {"time": 368, "pitch": 60, "duration": 2, "velocity": 72}, {"time": 371, "pitch": 60, "duration": 5, "velocity": 95}, {"time": 377, "pitch": 62, "duration": 5, "velocity": 100}, {"time": 383, "pitch": 60, "duration": 12, "velocity": 97}, {"time": 407, "pitch": 65, "duration": 2, "velocity": 97}, {"time": 410, "pitch": 65, "duration": 1, "velocity": 85}, {"time": 413, "pitch": 65, "duration": 1, "velocity": 81}, {"time": 416, "pitch": 65, "duration": 1, "velocity": 88}, {"time": 419, "pitch": 65, "duration": 5, "velocity": 112}, {"time": 425, "pitch": 67, "duration": 5, "velocity": 112}, {"time": 431, "pitch": 69, "duration": 18, "velocity": 127}, {"time": 452, "pitch": 67, "duration": 3, "velocity": 102}, {"time": 455, "pitch": 65, "duration": 6, "velocity": 112}, {"time": 461, "pitch": 69, "duration": 5, "velocity": 93}, {"time": 467, "pitch": 69, "duration": 6, "velocity": 117}, {"time": 473, "pitch": 74, "duration": 4, "velocity": 127}, {"time": 476, "pitch": 72, "duration": 8, "velocity": 102}, {"time": 482, "pitch": 69, "duration": 12, "velocity": 117}, {"time": 503, "pitch": 67, "duration": 2, "velocity": 112}, {"time": 506, "pitch": 67, "duration": 2, "velocity": 92}, {"time": 509, "pitch": 67, "duration": 2, "velocity": 99}, {"time": 512, "pitch": 69, "duration": 3, "velocity": 96}, {"time": 515, "pitch": 67, "duration": 5, "velocity": 117}, {"time": 521, "pitch": 65, "duration": 5, "velocity": 112}, {"time": 527, "pitch": 67, "duration": 16, "velocity": 127}, {"time": 551, "pitch": 60, "duration": 2, "velocity": 97}, {"time": 554, "pitch": 60, "duration": 2, "velocity": 76}, {"time": 557, "pitch": 60, "duration": 2, "velocity": 89}, {"time": 560, "pitch": 60, "duration": 2, "velocity": 90}, {"time": 563, "pitch": 60, "duration": 4, "velocity": 96}, {"time": 569, "pitch": 62, "duration": 4, "velocity": 112}, {"time": 575, "pitch": 60, "duration": 22, "velocity": 102}, {"time": 599, "pitch": 65, "duration": 2, "velocity": 100}, {"time": 602, "pitch": 65, "duration": 2, "velocity": 83}, {"time": 605, "pitch": 65, "duration": 2, "velocity": 95}, {"time": 608, "pitch": 65, "duration": 2, "velocity": 93}, {"time": 611, "pitch": 65, "duration": 5, "velocity": 117}, {"time": 617, "pitch": 67, "duration": 7, "velocity": 122}, {"time": 623, "pitch": 69, "duration": 20, "velocity": 127}, {"time": 644, "pitch": 67, "duration": 3, "velocity": 96}, {"time": 647, "pitch": 65, "duration": 7, "velocity": 107}, {"time": 653, "pitch": 69, "duration": 5, "velocity": 127}, {"time": 659, "pitch": 69, "duration": 6, "velocity": 112}, {"time": 665, "pitch": 74, "duration": 6, "velocity": 117}, {"time": 671, "pitch": 72, "duration": 6, "velocity": 127}, {"time": 677, "pitch": 69, "duration": 12, "velocity": 107}, {"time": 695, "pitch": 67, "duration": 2, "velocity": 117}, {"time": 698, "pitch": 67, "duration": 2, "velocity": 95}, {"time": 701, "pitch": 67, "duration": 3, "velocity": 97}, {"time": 704, "pitch": 65, "duration": 3, "velocity": 95}, {"time": 707, "pitch": 62, "duration": 6, "velocity": 97}, {"time": 713, "pitch": 60, "duration": 6, "velocity": 102}, {"time": 719, "pitch": 65, "duration": 19, "velocity": 102}, {"time": 743, "pitch": 67, "duration": 2, "velocity": 127}, {"time": 746, "pitch": 67, "duration": 2, "velocity": 99}, {"time": 749, "pitch": 67, "duration": 2, "velocity": 102}, {"time": 752, "pitch": 67, "duration": 2, "velocity": 112}, {"time": 755, "pitch": 67, "duration": 4, "velocity": 127}, {"time": 761, "pitch": 65, "duration": 4, "velocity": 127}, {"time": 767, "pitch": 67, "duration": 15, "velocity": 127}, {"time": 785, "pitch": 65, "duration": 3, "velocity": 127}, {"time": 788, "pitch": 67, "duration": 3, "velocity": 92}, {"time": 791, "pitch": 62, "duration": 2, "velocity": 100}, {"time": 794, "pitch": 62, "duration": 2, "velocity": 96}, {"time": 797, "pitch": 62, "duration": 2, "velocity": 93}, {"time": 800, "pitch": 62, "duration": 2, "velocity": 96}, {"time": 803, "pitch": 62, "duration": 4, "velocity": 112}, {"time": 809, "pitch": 60, "duration": 5, "velocity": 112}, {"time": 815, "pitch": 62, "duration": 15, "velocity": 127}, {"time": 839, "pitch": 67, "duration": 2, "velocity": 127}, {"time": 842, "pitch": 67, "duration": 2, "velocity": 93}, {"time": 845, "pitch": 67, "duration": 2, "velocity": 100}, {"time": 848, "pitch": 67, "duration": 2, "velocity": 117}, {"time": 851, "pitch": 67, "duration": 3, "velocity": 127}, {"time": 854, "pitch": 65, "duration": 3, "velocity": 127}, {"time": 860, "pitch": 67, "duration": 4, "velocity": 127}, {"time": 866, "pitch": 67, "duration": 2, "velocity": 117}, {"time": 869, "pitch": 67, "duration": 2, "velocity": 117}, {"time": 872, "pitch": 69, "duration": 3, "velocity": 112}, {"time": 875, "pitch": 67, "duration": 2, "velocity": 112}, {"time": 878, "pitch": 65, "duration": 3, "velocity": 127}, {"time": 884, "pitch": 65, "duration": 3, "velocity": 117}, {"time": 887, "pitch": 74, "duration": 3, "velocity": 122}, {"time": 890, "pitch": 72, "duration": 2, "velocity": 112}, {"time": 893, "pitch": 72, "duration": 2, "velocity": 102}, {"time": 896, "pitch": 72, "duration": 2, "velocity": 127}, {"time": 899, "pitch": 72, "duration": 4, "velocity": 127}, {"time": 905, "pitch": 69, "duration": 2, "velocity": 122}, {"time": 908, "pitch": 72, "duration": 15, "velocity": 127}, {"time": 923, "pitch": 65, "duration": 5, "velocity": 127}, {"time": 929, "pitch": 67, "duration": 3, "velocity": 127}, {"time": 935, "pitch": 69, "duration": 3, "velocity": 127}, {"time": 938, "pitch": 72, "duration": 2, "velocity": 112}, {"time": 941, "pitch": 72, "duration": 2, "velocity": 117}, {"time": 944, "pitch": 72, "duration": 2, "velocity": 112}, {"time": 947, "pitch": 72, "duration": 3, "velocity": 127}, {"time": 953, "pitch": 69, "duration": 4, "velocity": 117}, {"time": 959, "pitch": 72, "duration": 10, "velocity": 127}, {"time": 983, "pitch": 77, "duration": 2, "velocity": 127}, {"time": 986, "pitch": 77, "duration": 2, "velocity": 95}, {"time": 989, "pitch": 77, "duration": 2, "velocity": 95}, {"time": 992, "pitch": 77, "duration": 2, "velocity": 117}, {"time": 995, "pitch": 74, "duration": 5, "velocity": 127}, {"time": 1001, "pitch": 69, "duration": 4, "velocity": 102}, {"time": 1007, "pitch": 72, "duration": 11, "velocity": 127}, {"time": 1031, "pitch": 65, "duration": 2, "velocity": 122}, {"time": 1034, "pitch": 65, "duration": 2, "velocity": 93}, {"time": 1037, "pitch": 65, "duration": 2, "velocity": 88}, {"time": 1040, "pitch": 65, "duration": 2, "velocity": 102}, {"time": 1043, "pitch": 65, "duration": 7, "velocity": 112}, {"time": 1052, "pitch": 69, "duration": 5, "velocity": 122}, {"time": 1058, "pitch": 72, "duration": 2, "velocity": 122}, {"time": 1061, "pitch": 72, "duration": 2, "velocity": 112}, {"time": 1064, "pitch": 72, "duration": 2, "velocity": 117}, {"time": 1067, "pitch": 74, "duration": 2, "velocity": 102}, {"time": 1070, "pitch": 69, "duration": 8, "velocity": 112}, {"time": 1079, "pitch": 67, "duration": 1, "velocity": 122}, {"time": 1082, "pitch": 67, "duration": 1, "velocity": 107}, {"time": 1085, "pitch": 67, "duration": 2, "velocity": 112}, {"time": 1088, "pitch": 69, "duration": 3, "velocity": 88}, {"time": 1091, "pitch": 67, "duration": 4, "velocity": 127}, {"time": 1097, "pitch": 65, "duration": 5, "velocity": 117}, {"time": 1103, "pitch": 67, "duration": 10, "velocity": 127}, {"time": 1127, "pitch": 69, "duration": 3, "velocity": 127}, {"time": 1130, "pitch": 72, "duration": 2, "velocity": 112}, {"time": 1133, "pitch": 72, "duration": 2, "velocity": 117}, {"time": 1136, "pitch": 72, "duration": 2, "velocity": 112}, {"time": 1139, "pitch": 72, "duration": 3, "velocity": 127}, {"time": 1145, "pitch": 69, "duration": 4, "velocity": 117}, {"time": 1151, "pitch": 72, "duration": 10, "velocity": 127}, {"time": 1175, "pitch": 77, "duration": 2, "velocity": 127}, {"time": 1178, "pitch": 77, "duration": 2, "velocity": 95}, {"time": 1181, "pitch": 77, "duration": 2, "velocity": 95}, {"time": 1184, "pitch": 77, "duration": 2, "velocity": 117}, {"time": 1187, "pitch": 74, "duration": 5, "velocity": 127}, {"time": 1193, "pitch": 69, "duration": 4, "velocity": 102}, {"time": 1199, "pitch": 72, "duration": 11, "velocity": 127}, {"time": 1223, "pitch": 65, "duration": 2, "velocity": 122}, {"time": 1226, "pitch": 65, "duration": 2, "velocity": 93}, {"time": 1229, "pitch": 65, "duration": 2, "velocity": 88}, {"time": 1232, "pitch": 65, "duration": 2, "velocity": 102}, {"time": 1235, "pitch": 65, "duration": 5, "velocity": 112}, {"time": 1238, "pitch": 67, "duration": 5, "velocity": 112}, {"time": 1244, "pitch": 69, "duration": 5, "velocity": 122}, {"time": 1250, "pitch": 72, "duration": 2, "velocity": 122}, {"time": 1253, "pitch": 72, "duration": 2, "velocity": 112}, {"time": 1256, "pitch": 72, "duration": 2, "velocity": 117}, {"time": 1259, "pitch": 74, "duration": 2, "velocity": 102}, {"time": 1262, "pitch": 69, "duration": 8, "velocity": 112}, {"time": 1271, "pitch": 67, "duration": 1, "velocity": 122}, {"time": 1274, "pitch": 67, "duration": 1, "velocity": 107}, {"time": 1277, "pitch": 67, "duration": 2, "velocity": 112}, {"time": 1283, "pitch": 62, "duration": 6, "velocity": 117}, {"time": 1289, "pitch": 60, "duration": 7, "velocity": 102}, {"time": 1295, "pitch": 65, "duration": 20, "velocity": 117}, {"time": 1703, "pitch": 60, "duration": 2, "velocity": 95}, {"time": 1706, "pitch": 60, "duration": 2, "velocity": 76}, {"time": 1709, "pitch": 60, "duration": 2, "velocity": 71}, {"time": 1712, "pitch": 60, "duration": 2, "velocity": 72}, {"time": 1715, "pitch": 60, "duration": 5, "velocity": 95}, {"time": 1721, "pitch": 62, "duration": 5, "velocity": 100}, {"time": 1727, "pitch": 60, "duration": 12, "velocity": 97}, {"time": 1751, "pitch": 65, "duration": 2, "velocity": 97}, {"time": 1754, "pitch": 65, "duration": 1, "velocity": 85}, {"time": 1757, "pitch": 65, "duration": 1, "velocity": 81}, {"time": 1760, "pitch": 65, "duration": 1, "velocity": 88}, {"time": 1763, "pitch": 65, "duration": 5, "velocity": 112}, {"time": 1769, "pitch": 67, "duration": 5, "velocity": 112}, {"time": 1775, "pitch": 69, "duration": 18, "velocity": 127}, {"time": 1796, "pitch": 67, "duration": 3, "velocity": 102}, {"time": 1799, "pitch": 65, "duration": 6, "velocity": 112}, {"time": 1805, "pitch": 69, "duration": 5, "velocity": 93}, {"time": 1811, "pitch": 69, "duration": 6, "velocity": 117}, {"time": 1817, "pitch": 74, "duration": 4, "velocity": 127}, {"time": 1820, "pitch": 72, "duration": 8, "velocity": 102}, {"time": 1826, "pitch": 69, "duration": 12, "velocity": 117}, {"time": 1847, "pitch": 67, "duration": 2, "velocity": 112}, {"time": 1850, "pitch": 67, "duration": 2, "velocity": 92}, {"time": 1853, "pitch": 67, "duration": 2, "velocity": 99}, {"time": 1856, "pitch": 69, "duration": 3, "velocity": 96}, {"time": 1859, "pitch": 67, "duration": 5, "velocity": 117}, {"time": 1865, "pitch": 65, "duration": 5, "velocity": 112}, {"time": 1871, "pitch": 67, "duration": 16, "velocity": 127}, {"time": 1895, "pitch": 60, "duration": 2, "velocity": 97}, {"time": 1898, "pitch": 60, "duration": 2, "velocity": 76}, {"time": 1901, "pitch": 60, "duration": 2, "velocity": 89}, {"time": 1904, "pitch": 60, "duration": 2, "velocity": 90}, {"time": 1907, "pitch": 60, "duration": 4, "velocity": 96}, {"time": 1913, "pitch": 62, "duration": 4, "velocity": 112}, {"time": 1919, "pitch": 60, "duration": 22, "velocity": 102}, {"time": 1943, "pitch": 65, "duration": 2, "velocity": 100}, {"time": 1946, "pitch": 65, "duration": 2, "velocity": 83}, {"time": 1949, "pitch": 65, "duration": 2, "velocity": 95}, {"time": 1952, "pitch": 65, "duration": 2, "velocity": 93}, {"time": 1955, "pitch": 65, "duration": 5, "velocity": 117}, {"time": 1961, "pitch": 67, "duration": 7, "velocity": 122}, {"time": 1967, "pitch": 69, "duration": 20, "velocity": 127}, {"time": 1988, "pitch": 67, "duration": 3, "velocity": 96}, {"time": 1991, "pitch": 65, "duration": 7, "velocity": 107}, {"time": 1997, "pitch": 69, "duration": 5, "velocity": 127}, {"time": 2003, "pitch": 69, "duration": 6, "velocity": 112}, {"time": 2009, "pitch": 74, "duration": 6, "velocity": 117}, {"time": 2015, "pitch": 72, "duration": 6, "velocity": 127}, {"time": 2021, "pitch": 69, "duration": 12, "velocity": 107}, {"time": 2039, "pitch": 67, "duration": 2, "velocity": 117}, {"time": 2042, "pitch": 67, "duration": 2, "velocity": 95}, {"time": 2045, "pitch": 67, "duration": 3, "velocity": 97}, {"time": 2048, "pitch": 65, "duration": 3, "velocity": 95}, {"time": 2051, "pitch": 62, "duration": 6, "velocity": 97}, {"time": 2057, "pitch": 60, "duration": 6, "velocity": 102}, {"time": 2063, "pitch": 65, "duration": 19, "velocity": 102}, {"time": 2087, "pitch": 67, "duration": 2, "velocity": 127}, {"time": 2090, "pitch": 67, "duration": 2, "velocity": 99}, {"time": 2093, "pitch": 67, "duration": 2, "velocity": 102}, {"time": 2096, "pitch": 67, "duration": 2, "velocity": 112}, {"time": 2099, "pitch": 67, "duration": 4, "velocity": 127}, {"time": 2105, "pitch": 65, "duration": 4, "velocity": 127}, {"time": 2111, "pitch": 67, "duration": 15, "velocity": 127}, {"time": 2129, "pitch": 65, "duration": 3, "velocity": 127}, {"time": 2132, "pitch": 67, "duration": 3, "velocity": 92}, {"time": 2135, "pitch": 62, "duration": 2, "velocity": 100}, {"time": 2138, "pitch": 62, "duration": 2, "velocity": 96}, {"time": 2141, "pitch": 62, "duration": 2, "velocity": 93}, {"time": 2144, "pitch": 62, "duration": 2, "velocity": 96}, {"time": 2147, "pitch": 62, "duration": 4, "velocity": 112}, {"time": 2153, "pitch": 60, "duration": 5, "velocity": 112}, {"time": 2159, "pitch": 62, "duration": 15, "velocity": 127}, {"time": 2183, "pitch": 67, "duration": 2, "velocity": 127}, {"time": 2186, "pitch": 67, "duration": 2, "velocity": 93}, {"time": 2189, "pitch": 67, "duration": 2, "velocity": 100}, {"time": 2192, "pitch": 67, "duration": 2, "velocity": 117}, {"time": 2195, "pitch": 67, "duration": 3, "velocity": 127}, {"time": 2198, "pitch": 65, "duration": 3, "velocity": 127}, {"time": 2204, "pitch": 67, "duration": 4, "velocity": 127}, {"time": 2210, "pitch": 67, "duration": 2, "velocity": 117}, {"time": 2213, "pitch": 67, "duration": 2, "velocity": 117}, {"time": 2216, "pitch": 69, "duration": 3, "velocity": 112}, {"time": 2219, "pitch": 67, "duration": 2, "velocity": 112}, {"time": 2222, "pitch": 65, "duration": 3, "velocity": 127}, {"time": 2228, "pitch": 65, "duration": 3, "velocity": 117}, {"time": 2231, "pitch": 74, "duration": 3, "velocity": 122}, {"time": 2234, "pitch": 72, "duration": 2, "velocity": 112}, {"time": 2237, "pitch": 72, "duration": 2, "velocity": 102}, {"time": 2240, "pitch": 72, "duration": 2, "velocity": 127}, {"time": 2243, "pitch": 72, "duration": 4, "velocity": 127}, {"time": 2249, "pitch": 69, "duration": 2, "velocity": 122}, {"time": 2252, "pitch": 72, "duration": 15, "velocity": 127}, {"time": 2267, "pitch": 65, "duration": 5, "velocity": 127}, {"time": 2273, "pitch": 67, "duration": 3, "velocity": 127}, {"time": 2279, "pitch": 69, "duration": 3, "velocity": 127}, {"time": 2282, "pitch": 72, "duration": 2, "velocity": 112}, {"time": 2285, "pitch": 72, "duration": 2, "velocity": 117}, {"time": 2288, "pitch": 72, "duration": 2, "velocity": 112}, {"time": 2291, "pitch": 72, "duration": 3, "velocity": 127}, {"time": 2297, "pitch": 69, "duration": 4, "velocity": 117}, {"time": 2303, "pitch": 72, "duration": 10, "velocity": 127}, {"time": 2327, "pitch": 77, "duration": 2, "velocity": 127}, {"time": 2330, "pitch": 77, "duration": 2, "velocity": 95}, {"time": 2333, "pitch": 77, "duration": 2, "velocity": 95}, {"time": 2336, "pitch": 77, "duration": 2, "velocity": 117}, {"time": 2339, "pitch": 74, "duration": 5, "velocity": 127}, {"time": 2345, "pitch": 69, "duration": 4, "velocity": 102}, {"time": 2351, "pitch": 72, "duration": 11, "velocity": 127}, {"time": 2375, "pitch": 65, "duration": 2, "velocity": 122}, {"time": 2378, "pitch": 65, "duration": 2, "velocity": 93}, {"time": 2381, "pitch": 65, "duration": 2, "velocity": 88}, {"time": 2384, "pitch": 65, "duration": 2, "velocity": 102}, {"time": 2387, "pitch": 65, "duration": 7, "velocity": 112}, {"time": 2396, "pitch": 69, "duration": 5, "velocity": 122}, {"time": 2402, "pitch": 72, "duration": 2, "velocity": 122}, {"time": 2405, "pitch": 72, "duration": 2, "velocity": 112}, {"time": 2408, "pitch": 72, "duration": 2, "velocity": 117}, {"time": 2411, "pitch": 74, "duration": 2, "velocity": 102}, {"time": 2414, "pitch": 69, "duration": 8, "velocity": 112}, {"time": 2423, "pitch": 67, "duration": 1, "velocity": 122}, {"time": 2426, "pitch": 67, "duration": 1, "velocity": 107}, {"time": 2429, "pitch": 67, "duration": 2, "velocity": 112}, {"time": 2432, "pitch": 69, "duration": 3, "velocity": 88}, {"time": 2435, "pitch": 67, "duration": 4, "velocity": 127}, {"time": 2441, "pitch": 65, "duration": 5, "velocity": 117}, {"time": 2447, "pitch": 67, "duration": 10, "velocity": 127}, {"time": 2471, "pitch": 69, "duration": 3, "velocity": 127}, {"time": 2474, "pitch": 72, "duration": 2, "velocity": 112}, {"time": 2477, "pitch": 72, "duration": 2, "velocity": 117}, {"time": 2480, "pitch": 72, "duration": 2, "velocity": 112}, {"time": 2483, "pitch": 72, "duration": 3, "velocity": 127}, {"time": 2489, "pitch": 69, "duration": 4, "velocity": 117}, {"time": 2495, "pitch": 72, "duration": 10, "velocity": 127}, {"time": 2519, "pitch": 77, "duration": 2, "velocity": 127}, {"time": 2522, "pitch": 77, "duration": 2, "velocity": 95}, {"time": 2525, "pitch": 77, "duration": 2, "velocity": 95}, {"time": 2528, "pitch": 77, "duration": 2, "velocity": 117}, {"time": 2531, "pitch": 74, "duration": 5, "velocity": 127}, {"time": 2537, "pitch": 69, "duration": 4, "velocity": 102}, {"time": 2543, "pitch": 72, "duration": 11, "velocity": 127}, {"time": 2567, "pitch": 65, "duration": 2, "velocity": 122}, {"time": 2570, "pitch": 65, "duration": 2, "velocity": 93}, {"time": 2573, "pitch": 65, "duration": 2, "velocity": 88}, {"time": 2576, "pitch": 65, "duration": 2, "velocity": 102}, {"time": 2579, "pitch": 65, "duration": 5, "velocity": 112}, {"time": 2582, "pitch": 67, "duration": 5, "velocity": 112}, {"time": 2588, "pitch": 69, "duration": 5, "velocity": 122}, {"time": 2594, "pitch": 72, "duration": 2, "velocity": 122}, {"time": 2597, "pitch": 72, "duration": 2, "velocity": 112}, {"time": 2600, "pitch": 72, "duration": 2, "velocity": 117}, {"time": 2603, "pitch": 74, "duration": 2, "velocity": 102}, {"time": 2606, "pitch": 69, "duration": 8, "velocity": 112}, {"time": 2615, "pitch": 67, "duration": 1, "velocity": 122}, {"time": 2618, "pitch": 67, "duration": 1, "velocity": 107}, {"time": 2621, "pitch": 67, "duration": 2, "velocity": 112}, {"time": 2627, "pitch": 62, "duration": 6, "velocity": 117}, {"time": 2633, "pitch": 60, "duration": 7, "velocity": 102}, {"time": 2639, "pitch": 65, "duration": 20, "velocity": 117}, {"time": 2735, "pitch": 69, "duration": 3, "velocity": 127}, {"time": 2738, "pitch": 72, "duration": 2, "velocity": 112}, {"time": 2741, "pitch": 72, "duration": 2, "velocity": 117}, {"time": 2744, "pitch": 72, "duration": 2, "velocity": 112}, {"time": 2747, "pitch": 72, "duration": 3, "velocity": 127}, {"time": 2753, "pitch": 69, "duration": 4, "velocity": 117}, {"time": 2759, "pitch": 72, "duration": 10, "velocity": 127}, {"time": 2783, "pitch": 77, "duration": 2, "velocity": 127}, {"time": 2786, "pitch": 77, "duration": 2, "velocity": 95}, {"time": 2789, "pitch": 77, "duration": 2, "velocity": 95}, {"time": 2792, "pitch": 77, "duration": 2, "velocity": 117}, {"time": 2795, "pitch": 74, "duration": 5, "velocity": 127}, {"time": 2801, "pitch": 69, "duration": 4, "velocity": 102}, {"time": 2807, "pitch": 72, "duration": 11, "velocity": 127}, {"time": 2831, "pitch": 65, "duration": 2, "velocity": 122}, {"time": 2834, "pitch": 65, "duration": 2, "velocity": 93}, {"time": 2837, "pitch": 65, "duration": 2, "velocity": 88}, {"time": 2840, "pitch": 65, "duration": 2, "velocity": 102}, {"time": 2843, "pitch": 65, "duration": 7, "velocity": 112}, {"time": 2852, "pitch": 69, "duration": 5, "velocity": 122}, {"time": 2858, "pitch": 72, "duration": 2, "velocity": 122}, {"time": 2861, "pitch": 72, "duration": 2, "velocity": 112}, {"time": 2864, "pitch": 72, "duration": 2, "velocity": 117}, {"time": 2867, "pitch": 74, "duration": 2, "velocity": 102}, {"time": 2870, "pitch": 69, "duration": 8, "velocity": 112}, {"time": 2879, "pitch": 67, "duration": 1, "velocity": 122}, {"time": 2882, "pitch": 67, "duration": 1, "velocity": 107}, {"time": 2885, "pitch": 67, "duration": 2, "velocity": 112}, {"time": 2888, "pitch": 69, "duration": 3, "velocity": 88}, {"time": 2891, "pitch": 67, "duration": 4, "velocity": 127}, {"time": 2897, "pitch": 65, "duration": 5, "velocity": 117}, {"time": 2903, "pitch": 67, "duration": 10, "velocity": 127}, {"time": 2927, "pitch": 69, "duration": 3, "velocity": 127}, {"time": 2930, "pitch": 72, "duration": 2, "velocity": 112}, {"time": 2933, "pitch": 72, "duration": 2, "velocity": 117}, {"time": 2936, "pitch": 72, "duration": 2, "velocity": 112}, {"time": 2939, "pitch": 72, "duration": 3, "velocity": 127}, {"time": 2945, "pitch": 69, "duration": 4, "velocity": 117}, {"time": 2951, "pitch": 72, "duration": 10, "velocity": 127}, {"time": 2975, "pitch": 77, "duration": 2, "velocity": 127}, {"time": 2978, "pitch": 77, "duration": 2, "velocity": 95}, {"time": 2981, "pitch": 77, "duration": 2, "velocity": 95}, {"time": 2984, "pitch": 77, "duration": 2, "velocity": 117}, {"time": 2987, "pitch": 74, "duration": 5, "velocity": 127}, {"time": 2993, "pitch": 69, "duration": 4, "velocity": 102}, {"time": 2999, "pitch": 72, "duration": 11, "velocity": 127}, {"time": 3023, "pitch": 65, "duration": 2, "velocity": 122}, {"time": 3026, "pitch": 65, "duration": 2, "velocity": 93}, {"time": 3029, "pitch": 65, "duration": 2, "velocity": 88}, {"time": 3032, "pitch": 65, "duration": 2, "velocity": 102}, {"time": 3035, "pitch": 65, "duration": 5, "velocity": 112}, {"time": 3038, "pitch": 67, "duration": 5, "velocity": 112}, {"time": 3044, "pitch": 69, "duration": 5, "velocity": 122}, {"time": 3050, "pitch": 72, "duration": 2, "velocity": 122}, {"time": 3053, "pitch": 72, "duration": 2, "velocity": 112}, {"time": 3056, "pitch": 72, "duration": 2, "velocity": 117}, {"time": 3059, "pitch": 74, "duration": 2, "velocity": 102}, {"time": 3062, "pitch": 69, "duration": 8, "velocity": 112}, {"time": 3071, "pitch": 67, "duration": 1, "velocity": 122}, {"time": 3074, "pitch": 67, "duration": 1, "velocity": 107}, {"time": 3077, "pitch": 67, "duration": 2, "velocity": 112}, {"time": 3083, "pitch": 62, "duration": 6, "velocity": 117}, {"time": 3089, "pitch": 60, "duration": 7, "velocity": 102}, {"time": 3095, "pitch": 65, "duration": 20, "velocity": 117}, {"time": 3121, "pitch": 65, "duration": 2, "velocity": 127}, {"time": 3124, "pitch": 65, "duration": 2, "velocity": 127}, {"time": 3128, "pitch": 65, "duration": 1, "velocity": 127}, {"time": 3131, "pitch": 65, "duration": 1, "velocity": 127}, {"time": 3135, "pitch": 65, "duration": 4, "velocity": 127}, {"time": 3139, "pitch": 67, "duration": 5, "velocity": 127}, {"time": 3145, "pitch": 69, "duration": 5, "velocity": 127}, {"time": 3153, "pitch": 72, "duration": 1, "velocity": 127}, {"time": 3156, "pitch": 72, "duration": 2, "velocity": 127}, {"time": 3160, "pitch": 72, "duration": 2, "velocity": 127}, {"time": 3163, "pitch": 74, "duration": 4, "velocity": 127}, {"time": 3167, "pitch": 69, "duration": 6, "velocity": 127}, {"time": 3180, "pitch": 67, "duration": 2, "velocity": 125}, {"time": 3184, "pitch": 67, "duration": 2, "velocity": 110}, {"time": 3189, "pitch": 67, "duration": 4, "velocity": 127}, {"time": 3194, "pitch": 65, "duration": 5, "velocity": 127}, {"time": 3201, "pitch": 62, "duration": 7, "velocity": 127}, {"time": 3212, "pitch": 60, "duration": 20, "velocity": 127}, {"time": 3240, "pitch": 65, "duration": 17, "velocity": 127}]}, {"program": 0, "is_drum": false, "name": "BRIDGE", "notes": [{"time": 23, "pitch": 86, "duration": 4, "velocity": 99}, {"time": 26, "pitch": 84, "duration": 3, "velocity": 86}, {"time": 29, "pitch": 86, "duration": 3, "velocity": 88}, {"time": 32, "pitch": 84, "duration": 4, "velocity": 100}, {"time": 35, "pitch": 81, "duration": 4, "velocity": 79}, {"time": 38, "pitch": 79, "duration": 3, "velocity": 76}, {"time": 41, "pitch": 81, "duration": 4, "velocity": 62}, {"time": 44, "pitch": 79, "duration": 4, "velocity": 73}, {"time": 47, "pitch": 77, "duration": 3, "velocity": 81}, {"time": 50, "pitch": 74, "duration": 4, "velocity": 75}, {"time": 53, "pitch": 77, "duration": 3, "velocity": 77}, {"time": 56, "pitch": 74, "duration": 4, "velocity": 85}, {"time": 59, "pitch": 72, "duration": 6, "velocity": 72}, {"time": 62, "pitch": 69, "duration": 3, "velocity": 93}, {"time": 65, "pitch": 72, "duration": 9, "velocity": 75}, {"time": 71, "pitch": 86, "duration": 3, "velocity": 117}, {"time": 74, "pitch": 84, "duration": 3, "velocity": 90}, {"time": 77, "pitch": 86, "duration": 3, "velocity": 93}, {"time": 80, "pitch": 84, "duration": 3, "velocity": 96}, {"time": 83, "pitch": 81, "duration": 4, "velocity": 79}, {"time": 86, "pitch": 79, "duration": 3, "velocity": 76}, {"time": 89, "pitch": 81, "duration": 4, "velocity": 62}, {"time": 92, "pitch": 79, "duration": 4, "velocity": 73}, {"time": 95, "pitch": 77, "duration": 3, "velocity": 81}, {"time": 98, "pitch": 74, "duration": 4, "velocity": 75}, {"time": 101, "pitch": 77, "duration": 3, "velocity": 77}, {"time": 104, "pitch": 74, "duration": 4, "velocity": 85}, {"time": 107, "pitch": 72, "duration": 4, "velocity": 79}, {"time": 110, "pitch": 69, "duration": 4, "velocity": 71}, {"time": 113, "pitch": 72, "duration": 7, "velocity": 79}, {"time": 119, "pitch": 86, "duration": 3, "velocity": 117}, {"time": 122, "pitch": 84, "duration": 3, "velocity": 90}, {"time": 125, "pitch": 86, "duration": 3, "velocity": 93}, {"time": 128, "pitch": 84, "duration": 3, "velocity": 96}, {"time": 131, "pitch": 81, "duration": 4, "velocity": 79}, {"time": 134, "pitch": 79, "duration": 3, "velocity": 76}, {"time": 137, "pitch": 81, "duration": 4, "velocity": 62}, {"time": 140, "pitch": 79, "duration": 4, "velocity": 73}, {"time": 143, "pitch": 77, "duration": 3, "velocity": 81}, {"time": 146, "pitch": 74, "duration": 4, "velocity": 75}, {"time": 149, "pitch": 77, "duration": 3, "velocity": 77}, {"time": 152, "pitch": 74, "duration": 4, "velocity": 85}, {"time": 155, "pitch": 72, "duration": 4, "velocity": 79}, {"time": 158, "pitch": 69, "duration": 4, "velocity": 71}, {"time": 158, "pitch": 69, "duration": 4, "velocity": 95}, {"time": 161, "pitch": 72, "duration": 7, "velocity": 79}, {"time": 164, "pitch": 72, "duration": 4, "velocity": 99}, {"time": 167, "pitch": 74, "duration": 10, "velocity": 102}, {"time": 173, "pitch": 81, "duration": 13, "velocity": 127}, {"time": 185, "pitch": 79, "duration": 6, "velocity": 102}, {"time": 191, "pitch": 79, "duration": 15, "velocity": 107}, {"time": 203, "pitch": 77, "duration": 6, "velocity": 122}, {"time": 209, "pitch": 79, "duration": 7, "velocity": 102}, {"time": 215, "pitch": 69, "duration": 15, "velocity": 92}, {"time": 227, "pitch": 72, "duration": 30, "velocity": 97}, {"time": 251, "pitch": 69, "duration": 7, "velocity": 102}, {"time": 257, "pitch": 72, "duration": 5, "velocity": 97}, {"time": 263, "pitch": 74, "duration": 7, "velocity": 102}, {"time": 269, "pitch": 81, "duration": 11, "velocity": 122}, {"time": 281, "pitch": 79, "duration": 7, "velocity": 102}, {"time": 287, "pitch": 77, "duration": 18, "velocity": 107}, {"time": 305, "pitch": 74, "duration": 6, "velocity": 100}, {"time": 311, "pitch": 77, "duration": 27, "velocity": 127}, {"time": 311, "pitch": 86, "duration": 3, "velocity": 117}, {"time": 314, "pitch": 84, "duration": 3, "velocity": 90}, {"time": 317, "pitch": 86, "duration": 3, "velocity": 93}, {"time": 320, "pitch": 84, "duration": 3, "velocity": 96}, {"time": 323, "pitch": 81, "duration": 4, "velocity": 79}, {"time": 326, "pitch": 79, "duration": 3, "velocity": 76}, {"time": 329, "pitch": 81, "duration": 4, "velocity": 62}, {"time": 332, "pitch": 79, "duration": 4, "velocity": 73}, {"time": 335, "pitch": 77, "duration": 3, "velocity": 81}, {"time": 338, "pitch": 74, "duration": 4, "velocity": 75}, {"time": 341, "pitch": 77, "duration": 3, "velocity": 77}, {"time": 344, "pitch": 74, "duration": 4, "velocity": 85}, {"time": 347, "pitch": 72, "duration": 4, "velocity": 79}, {"time": 350, "pitch": 69, "duration": 4, "velocity": 71}, {"time": 353, "pitch": 72, "duration": 7, "velocity": 79}, {"time": 392, "pitch": 57, "duration": 4, "velocity": 77}, {"time": 395, "pitch": 60, "duration": 6, "velocity": 71}, {"time": 398, "pitch": 60, "duration": 3, "velocity": 42}, {"time": 401, "pitch": 65, "duration": 4, "velocity": 63}, {"time": 404, "pitch": 67, "duration": 12, "velocity": 89}, {"time": 443, "pitch": 72, "duration": 3, "velocity": 100}, {"time": 446, "pitch": 67, "duration": 4, "velocity": 86}, {"time": 449, "pitch": 64, "duration": 3, "velocity": 92}, {"time": 452, "pitch": 60, "duration": 6, "velocity": 81}, {"time": 455, "pitch": 65, "duration": 15, "velocity": 83}, {"time": 485, "pitch": 60, "duration": 4, "velocity": 69}, {"time": 488, "pitch": 65, "duration": 9, "velocity": 85}, {"time": 497, "pitch": 60, "duration": 7, "velocity": 90}, {"time": 503, "pitch": 58, "duration": 19, "velocity": 79}, {"time": 536, "pitch": 77, "duration": 3, "velocity": 96}, {"time": 539, "pitch": 76, "duration": 4, "velocity": 83}, {"time": 542, "pitch": 74, "duration": 3, "velocity": 99}, {"time": 545, "pitch": 72, "duration": 4, "velocity": 77}, {"time": 548, "pitch": 70, "duration": 3, "velocity": 92}, {"time": 551, "pitch": 69, "duration": 11, "velocity": 89}, {"time": 734, "pitch": 62, "duration": 3, "velocity": 99}, {"time": 737, "pitch": 60, "duration": 4, "velocity": 93}, {"time": 740, "pitch": 53, "duration": 4, "velocity": 83}, {"time": 743, "pitch": 55, "duration": 22, "velocity": 95}, {"time": 824, "pitch": 67, "duration": 3, "velocity": 93}, {"time": 824, "pitch": 70, "duration": 3, "velocity": 96}, {"time": 833, "pitch": 65, "duration": 6, "velocity": 76}, {"time": 833, "pitch": 69, "duration": 6, "velocity": 82}, {"time": 1319, "pitch": 86, "duration": 4, "velocity": 99}, {"time": 1322, "pitch": 84, "duration": 10, "velocity": 86}, {"time": 1325, "pitch": 86, "duration": 3, "velocity": 88}, {"time": 1328, "pitch": 84, "duration": 4, "velocity": 100}, {"time": 1331, "pitch": 81, "duration": 4, "velocity": 79}, {"time": 1334, "pitch": 79, "duration": 3, "velocity": 76}, {"time": 1337, "pitch": 81, "duration": 4, "velocity": 62}, {"time": 1340, "pitch": 79, "duration": 4, "velocity": 73}, {"time": 1343, "pitch": 77, "duration": 3, "velocity": 81}, {"time": 1346, "pitch": 74, "duration": 4, "velocity": 75}, {"time": 1349, "pitch": 77, "duration": 3, "velocity": 77}, {"time": 1352, "pitch": 74, "duration": 4, "velocity": 85}, {"time": 1355, "pitch": 72, "duration": 6, "velocity": 72}, {"time": 1358, "pitch": 69, "duration": 3, "velocity": 93}, {"time": 1361, "pitch": 72, "duration": 6, "velocity": 75}, {"time": 1367, "pitch": 86, "duration": 4, "velocity": 99}, {"time": 1370, "pitch": 84, "duration": 3, "velocity": 86}, {"time": 1373, "pitch": 86, "duration": 3, "velocity": 88}, {"time": 1376, "pitch": 84, "duration": 4, "velocity": 100}, {"time": 1379, "pitch": 81, "duration": 4, "velocity": 79}, {"time": 1382, "pitch": 79, "duration": 3, "velocity": 76}, {"time": 1385, "pitch": 81, "duration": 4, "velocity": 62}, {"time": 1388, "pitch": 79, "duration": 4, "velocity": 73}, {"time": 1391, "pitch": 77, "duration": 3, "velocity": 81}, {"time": 1394, "pitch": 74, "duration": 4, "velocity": 75}, {"time": 1397, "pitch": 77, "duration": 3, "velocity": 77}, {"time": 1400, "pitch": 74, "duration": 4, "velocity": 85}, {"time": 1403, "pitch": 72, "duration": 6, "velocity": 72}, {"time": 1406, "pitch": 69, "duration": 3, "velocity": 93}, {"time": 1409, "pitch": 72, "duration": 6, "velocity": 75}, {"time": 1415, "pitch": 86, "duration": 4, "velocity": 99}, {"time": 1418, "pitch": 84, "duration": 3, "velocity": 86}, {"time": 1421, "pitch": 86, "duration": 3, "velocity": 88}, {"time": 1424, "pitch": 84, "duration": 4, "velocity": 100}, {"time": 1427, "pitch": 81, "duration": 4, "velocity": 79}, {"time": 1430, "pitch": 79, "duration": 3, "velocity": 76}, {"time": 1433, "pitch": 81, "duration": 4, "velocity": 62}, {"time": 1436, "pitch": 79, "duration": 4, "velocity": 73}, {"time": 1439, "pitch": 77, "duration": 3, "velocity": 81}, {"time": 1442, "pitch": 74, "duration": 4, "velocity": 75}, {"time": 1445, "pitch": 77, "duration": 3, "velocity": 77}, {"time": 1448, "pitch": 74, "duration": 4, "velocity": 85}, {"time": 1451, "pitch": 57, "duration": 7, "velocity": 127}, {"time": 1451, "pitch": 72, "duration": 6, "velocity": 72}, {"time": 1454, "pitch": 69, "duration": 3, "velocity": 93}, {"time": 1457, "pitch": 60, "duration": 6, "velocity": 127}, {"time": 1457, "pitch": 72, "duration": 6, "velocity": 75}, {"time": 1463, "pitch": 62, "duration": 13, "velocity": 127}, {"time": 1475, "pitch": 69, "duration": 17, "velocity": 127}, {"time": 1496, "pitch": 67, "duration": 2, "velocity": 83}, {"time": 1498, "pitch": 69, "duration": 2, "velocity": 67}, {"time": 1499, "pitch": 67, "duration": 5, "velocity": 112}, {"time": 1505, "pitch": 65, "duration": 5, "velocity": 102}, {"time": 1511, "pitch": 60, "duration": 11, "velocity": 102}, {"time": 1523, "pitch": 67, "duration": 20, "velocity": 127}, {"time": 1544, "pitch": 69, "duration": 2, "velocity": 127}, {"time": 1546, "pitch": 67, "duration": 2, "velocity": 102}, {"time": 1547, "pitch": 65, "duration": 6, "velocity": 122}, {"time": 1553, "pitch": 64, "duration": 6, "velocity": 102}, {"time": 1559, "pitch": 58, "duration": 13, "velocity": 99}, {"time": 1571, "pitch": 65, "duration": 9, "velocity": 117}, {"time": 1580, "pitch": 64, "duration": 2, "velocity": 107}, {"time": 1582, "pitch": 65, "duration": 2, "velocity": 100}, {"time": 1583, "pitch": 67, "duration": 8, "velocity": 107}, {"time": 1604, "pitch": 65, "duration": 3, "velocity": 97}, {"time": 1606, "pitch": 67, "duration": 2, "velocity": 93}, {"time": 1607, "pitch": 69, "duration": 13, "velocity": 122}, {"time": 1619, "pitch": 74, "duration": 9, "velocity": 127}, {"time": 1628, "pitch": 69, "duration": 3, "velocity": 117}, {"time": 1631, "pitch": 72, "duration": 24, "velocity": 127}, {"time": 1655, "pitch": 86, "duration": 4, "velocity": 99}, {"time": 1658, "pitch": 84, "duration": 3, "velocity": 86}, {"time": 1661, "pitch": 86, "duration": 3, "velocity": 88}, {"time": 1664, "pitch": 84, "duration": 4, "velocity": 100}, {"time": 1667, "pitch": 81, "duration": 4, "velocity": 79}, {"time": 1670, "pitch": 79, "duration": 3, "velocity": 76}, {"time": 1673, "pitch": 81, "duration": 4, "velocity": 62}, {"time": 1676, "pitch": 79, "duration": 4, "velocity": 73}, {"time": 1679, "pitch": 77, "duration": 3, "velocity": 81}, {"time": 1682, "pitch": 74, "duration": 4, "velocity": 75}, {"time": 1685, "pitch": 77, "duration": 3, "velocity": 77}, {"time": 1688, "pitch": 74, "duration": 4, "velocity": 85}, {"time": 1691, "pitch": 72, "duration": 6, "velocity": 72}, {"time": 1694, "pitch": 69, "duration": 3, "velocity": 93}, {"time": 1697, "pitch": 72, "duration": 6, "velocity": 75}, {"time": 1736, "pitch": 57, "duration": 4, "velocity": 77}, {"time": 1739, "pitch": 60, "duration": 6, "velocity": 71}, {"time": 1742, "pitch": 60, "duration": 3, "velocity": 42}, {"time": 1745, "pitch": 65, "duration": 4, "velocity": 63}, {"time": 1748, "pitch": 67, "duration": 12, "velocity": 89}, {"time": 1787, "pitch": 72, "duration": 3, "velocity": 100}, {"time": 1790, "pitch": 67, "duration": 4, "velocity": 86}, {"time": 1793, "pitch": 64, "duration": 3, "velocity": 92}, {"time": 1796, "pitch": 60, "duration": 6, "velocity": 81}, {"time": 1799, "pitch": 65, "duration": 15, "velocity": 83}, {"time": 1829, "pitch": 60, "duration": 4, "velocity": 69}, {"time": 1832, "pitch": 65, "duration": 9, "velocity": 85}, {"time": 1841, "pitch": 60, "duration": 7, "velocity": 90}, {"time": 1847, "pitch": 58, "duration": 19, "velocity": 79}, {"time": 1880, "pitch": 77, "duration": 3, "velocity": 96}, {"time": 1883, "pitch": 76, "duration": 4, "velocity": 83}, {"time": 1886, "pitch": 74, "duration": 3, "velocity": 99}, {"time": 1889, "pitch": 72, "duration": 4, "velocity": 77}, {"time": 1892, "pitch": 70, "duration": 3, "velocity": 92}, {"time": 1895, "pitch": 69, "duration": 11, "velocity": 89}, {"time": 2078, "pitch": 62, "duration": 3, "velocity": 99}, {"time": 2081, "pitch": 60, "duration": 4, "velocity": 93}, {"time": 2084, "pitch": 53, "duration": 4, "velocity": 83}, {"time": 2087, "pitch": 55, "duration": 22, "velocity": 95}, {"time": 2168, "pitch": 67, "duration": 3, "velocity": 93}, {"time": 2168, "pitch": 70, "duration": 3, "velocity": 96}, {"time": 2177, "pitch": 65, "duration": 6, "velocity": 76}, {"time": 2177, "pitch": 69, "duration": 6, "velocity": 82}, {"time": 2651, "pitch": 65, "duration": 6, "velocity": 117}, {"time": 2657, "pitch": 67, "duration": 6, "velocity": 122}, {"time": 2663, "pitch": 69, "duration": 10, "velocity": 127}, {"time": 2675, "pitch": 74, "duration": 10, "velocity": 127}, {"time": 2687, "pitch": 72, "duration": 23, "velocity": 127}, {"time": 3108, "pitch": 76, "duration": 5, "velocity": 127}, {"time": 3112, "pitch": 77, "duration": 4, "velocity": 127}, {"time": 3115, "pitch": 79, "duration": 4, "velocity": 127}, {"time": 3118, "pitch": 81, "duration": 4, "velocity": 116}, {"time": 3121, "pitch": 77, "duration": 13, "velocity": 127}, {"time": 3150, "pitch": 84, "duration": 8, "velocity": 127}, {"time": 3158, "pitch": 79, "duration": 4, "velocity": 127}, {"time": 3161, "pitch": 81, "duration": 4, "velocity": 127}, {"time": 3165, "pitch": 77, "duration": 11, "velocity": 127}, {"time": 3180, "pitch": 79, "duration": 13, "velocity": 127}, {"time": 3239, "pitch": 86, "duration": 4, "velocity": 99}, {"time": 3241, "pitch": 84, "duration": 4, "velocity": 125}, {"time": 3242, "pitch": 84, "duration": 3, "velocity": 86}, {"time": 3245, "pitch": 86, "duration": 3, "velocity": 88}, {"time": 3248, "pitch": 84, "duration": 4, "velocity": 100}, {"time": 3251, "pitch": 81, "duration": 4, "velocity": 79}, {"time": 3252, "pitch": 65, "duration": 4, "velocity": 99}, {"time": 3254, "pitch": 79, "duration": 3, "velocity": 76}, {"time": 3257, "pitch": 81, "duration": 4, "velocity": 62}, {"time": 3260, "pitch": 79, "duration": 4, "velocity": 73}, {"time": 3263, "pitch": 77, "duration": 3, "velocity": 81}, {"time": 3266, "pitch": 74, "duration": 4, "velocity": 75}, {"time": 3269, "pitch": 77, "duration": 3, "velocity": 77}, {"time": 3272, "pitch": 74, "duration": 4, "velocity": 85}, {"time": 3275, "pitch": 72, "duration": 6, "velocity": 72}, {"time": 3278, "pitch": 69, "duration": 3, "velocity": 93}, {"time": 3281, "pitch": 72, "duration": 6, "velocity": 75}, {"time": 3287, "pitch": 86, "duration": 4, "velocity": 99}, {"time": 3290, "pitch": 84, "duration": 3, "velocity": 86}, {"time": 3293, "pitch": 86, "duration": 3, "velocity": 88}, {"time": 3296, "pitch": 84, "duration": 4, "velocity": 100}, {"time": 3299, "pitch": 81, "duration": 4, "velocity": 79}, {"time": 3302, "pitch": 79, "duration": 3, "velocity": 76}, {"time": 3305, "pitch": 81, "duration": 4, "velocity": 62}, {"time": 3308, "pitch": 79, "duration": 4, "velocity": 73}, {"time": 3311, "pitch": 77, "duration": 3, "velocity": 81}, {"time": 3314, "pitch": 74, "duration": 4, "velocity": 75}, {"time": 3317, "pitch": 77, "duration": 3, "velocity": 77}, {"time": 3320, "pitch": 74, "duration": 4, "velocity": 85}, {"time": 3323, "pitch": 72, "duration": 6, "velocity": 72}, {"time": 3326, "pitch": 69, "duration": 3, "velocity": 93}, {"time": 3329, "pitch": 72, "duration": 6, "velocity": 75}, {"time": 3335, "pitch": 86, "duration": 4, "velocity": 99}, {"time": 3337, "pitch": 89, "duration": 47, "velocity": 127}, {"time": 3338, "pitch": 84, "duration": 3, "velocity": 86}, {"time": 3341, "pitch": 86, "duration": 3, "velocity": 88}, {"time": 3344, "pitch": 84, "duration": 4, "velocity": 100}, {"time": 3347, "pitch": 81, "duration": 4, "velocity": 79}, {"time": 3350, "pitch": 79, "duration": 3, "velocity": 76}, {"time": 3353, "pitch": 81, "duration": 4, "velocity": 62}, {"time": 3356, "pitch": 79, "duration": 4, "velocity": 73}, {"time": 3359, "pitch": 77, "duration": 3, "velocity": 81}, {"time": 3362, "pitch": 74, "duration": 4, "velocity": 75}, {"time": 3365, "pitch": 77, "duration": 3, "velocity": 77}, {"time": 3368, "pitch": 74, "duration": 3, "velocity": 85}, {"time": 3372, "pitch": 72, "duration": 4, "velocity": 96}, {"time": 3377, "pitch": 69, "duration": 5, "velocity": 83}, {"time": 3383, "pitch": 72, "duration": 7, "velocity": 95}, {"time": 3384, "pitch": 91, "duration": 16, "velocity": 127}, {"time": 3389, "pitch": 74, "duration": 12, "velocity": 93}, {"time": 3397, "pitch": 72, "duration": 43, "velocity": 78}, {"time": 3397, "pitch": 74, "duration": 4, "velocity": 74}, {"time": 3398, "pitch": 77, "duration": 43, "velocity": 86}, {"time": 3400, "pitch": 93, "duration": 17, "velocity": 127}]}, {"program": 0, "is_drum": false, "name": "PIANO", "notes": [{"time": 23, "pitch": 41, "duration": 43, "velocity": 82}, {"time": 29, "pitch": 48, "duration": 43, "velocity": 61}, {"time": 35, "pitch": 53, "duration": 17, "velocity": 76}, {"time": 41, "pitch": 57, "duration": 46, "velocity": 72}, {"time": 47, "pitch": 60, "duration": 12, "velocity": 72}, {"time": 53, "pitch": 53, "duration": 6, "velocity": 50}, {"time": 59, "pitch": 65, "duration": 23, "velocity": 86}, {"time": 65, "pitch": 60, "duration": 16, "velocity": 56}, {"time": 71, "pitch": 41, "duration": 43, "velocity": 90}, {"time": 77, "pitch": 48, "duration": 36, "velocity": 64}, {"time": 83, "pitch": 53, "duration": 15, "velocity": 78}, {"time": 89, "pitch": 57, "duration": 37, "velocity": 81}, {"time": 95, "pitch": 60, "duration": 12, "velocity": 93}, {"time": 101, "pitch": 53, "duration": 9, "velocity": 50}, {"time": 107, "pitch": 65, "duration": 14, "velocity": 93}, {"time": 113, "pitch": 60, "duration": 6, "velocity": 70}, {"time": 119, "pitch": 38, "duration": 43, "velocity": 95}, {"time": 125, "pitch": 45, "duration": 38, "velocity": 54}, {"time": 131, "pitch": 62, "duration": 16, "velocity": 89}, {"time": 137, "pitch": 50, "duration": 9, "velocity": 59}, {"time": 143, "pitch": 64, "duration": 11, "velocity": 82}, {"time": 149, "pitch": 50, "duration": 14, "velocity": 58}, {"time": 155, "pitch": 57, "duration": 1, "velocity": 27}, {"time": 155, "pitch": 65, "duration": 14, "velocity": 100}, {"time": 161, "pitch": 57, "duration": 6, "velocity": 71}, {"time": 167, "pitch": 46, "duration": 36, "velocity": 95}, {"time": 173, "pitch": 58, "duration": 22, "velocity": 68}, {"time": 179, "pitch": 62, "duration": 8, "velocity": 96}, {"time": 185, "pitch": 65, "duration": 7, "velocity": 83}, {"time": 191, "pitch": 70, "duration": 24, "velocity": 100}, {"time": 197, "pitch": 58, "duration": 5, "velocity": 81}, {"time": 203, "pitch": 65, "duration": 13, "velocity": 88}, {"time": 209, "pitch": 62, "duration": 7, "velocity": 63}, {"time": 215, "pitch": 45, "duration": 42, "velocity": 79}, {"time": 221, "pitch": 52, "duration": 32, "velocity": 43}, {"time": 227, "pitch": 69, "duration": 21, "velocity": 93}, {"time": 233, "pitch": 60, "duration": 19, "velocity": 64}, {"time": 239, "pitch": 64, "duration": 11, "velocity": 95}, {"time": 245, "pitch": 57, "duration": 7, "velocity": 64}, {"time": 251, "pitch": 69, "duration": 14, "velocity": 107}, {"time": 254, "pitch": 52, "duration": 2, "velocity": 70}, {"time": 257, "pitch": 64, "duration": 9, "velocity": 70}, {"time": 260, "pitch": 60, "duration": 5, "velocity": 59}, {"time": 263, "pitch": 43, "duration": 17, "velocity": 93}, {"time": 269, "pitch": 50, "duration": 11, "velocity": 60}, {"time": 275, "pitch": 55, "duration": 7, "velocity": 64}, {"time": 275, "pitch": 62, "duration": 12, "velocity": 76}, {"time": 281, "pitch": 58, "duration": 4, "velocity": 71}, {"time": 287, "pitch": 48, "duration": 15, "velocity": 92}, {"time": 293, "pitch": 55, "duration": 8, "velocity": 82}, {"time": 299, "pitch": 64, "duration": 13, "velocity": 51}, {"time": 299, "pitch": 67, "duration": 13, "velocity": 99}, {"time": 305, "pitch": 60, "duration": 11, "velocity": 73}, {"time": 311, "pitch": 41, "duration": 47, "velocity": 77}, {"time": 317, "pitch": 48, "duration": 43, "velocity": 74}, {"time": 323, "pitch": 53, "duration": 16, "velocity": 96}, {"time": 329, "pitch": 60, "duration": 8, "velocity": 82}, {"time": 335, "pitch": 65, "duration": 25, "velocity": 99}, {"time": 341, "pitch": 53, "duration": 13, "velocity": 77}, {"time": 359, "pitch": 41, "duration": 39, "velocity": 88}, {"time": 365, "pitch": 48, "duration": 33, "velocity": 58}, {"time": 371, "pitch": 53, "duration": 16, "velocity": 95}, {"time": 377, "pitch": 60, "duration": 25, "velocity": 59}, {"time": 383, "pitch": 65, "duration": 12, "velocity": 100}, {"time": 389, "pitch": 53, "duration": 4, "velocity": 66}, {"time": 395, "pitch": 69, "duration": 12, "velocity": 99}, {"time": 401, "pitch": 65, "duration": 6, "velocity": 78}, {"time": 407, "pitch": 38, "duration": 19, "velocity": 78}, {"time": 413, "pitch": 45, "duration": 13, "velocity": 62}, {"time": 419, "pitch": 62, "duration": 13, "velocity": 96}, {"time": 425, "pitch": 50, "duration": 6, "velocity": 57}, {"time": 431, "pitch": 45, "duration": 15, "velocity": 79}, {"time": 437, "pitch": 52, "duration": 9, "velocity": 59}, {"time": 443, "pitch": 64, "duration": 12, "velocity": 100}, {"time": 449, "pitch": 57, "duration": 5, "velocity": 88}, {"time": 452, "pitch": 60, "duration": 4, "velocity": 85}, {"time": 455, "pitch": 46, "duration": 18, "velocity": 107}, {"time": 461, "pitch": 58, "duration": 8, "velocity": 88}, {"time": 473, "pitch": 65, "duration": 7, "velocity": 89}, {"time": 476, "pitch": 62, "duration": 4, "velocity": 58}, {"time": 479, "pitch": 45, "duration": 18, "velocity": 85}, {"time": 485, "pitch": 52, "duration": 8, "velocity": 47}, {"time": 491, "pitch": 64, "duration": 13, "velocity": 102}, {"time": 494, "pitch": 52, "duration": 2, "velocity": 68}, {"time": 497, "pitch": 60, "duration": 6, "velocity": 74}, {"time": 500, "pitch": 57, "duration": 3, "velocity": 65}, {"time": 503, "pitch": 43, "duration": 17, "velocity": 75}, {"time": 509, "pitch": 50, "duration": 10, "velocity": 58}, {"time": 515, "pitch": 55, "duration": 3, "velocity": 72}, {"time": 515, "pitch": 67, "duration": 12, "velocity": 96}, {"time": 521, "pitch": 62, "duration": 7, "velocity": 79}, {"time": 527, "pitch": 36, "duration": 18, "velocity": 88}, {"time": 530, "pitch": 48, "duration": 11, "velocity": 85}, {"time": 533, "pitch": 55, "duration": 18, "velocity": 77}, {"time": 536, "pitch": 60, "duration": 4, "velocity": 69}, {"time": 539, "pitch": 64, "duration": 10, "velocity": 97}, {"time": 542, "pitch": 48, "duration": 6, "velocity": 89}, {"time": 545, "pitch": 62, "duration": 7, "velocity": 89}, {"time": 548, "pitch": 60, "duration": 4, "velocity": 92}, {"time": 551, "pitch": 41, "duration": 23, "velocity": 89}, {"time": 557, "pitch": 48, "duration": 19, "velocity": 53}, {"time": 563, "pitch": 53, "duration": 6, "velocity": 72}, {"time": 563, "pitch": 65, "duration": 23, "velocity": 83}, {"time": 569, "pitch": 60, "duration": 20, "velocity": 64}, {"time": 575, "pitch": 41, "duration": 19, "velocity": 82}, {"time": 581, "pitch": 48, "duration": 12, "velocity": 38}, {"time": 587, "pitch": 69, "duration": 12, "velocity": 122}, {"time": 590, "pitch": 53, "duration": 2, "velocity": 82}, {"time": 593, "pitch": 65, "duration": 7, "velocity": 90}, {"time": 596, "pitch": 60, "duration": 5, "velocity": 69}, {"time": 599, "pitch": 38, "duration": 14, "velocity": 75}, {"time": 605, "pitch": 45, "duration": 8, "velocity": 53}, {"time": 611, "pitch": 65, "duration": 13, "velocity": 107}, {"time": 617, "pitch": 62, "duration": 7, "velocity": 81}, {"time": 623, "pitch": 45, "duration": 17, "velocity": 73}, {"time": 626, "pitch": 52, "duration": 12, "velocity": 63}, {"time": 629, "pitch": 57, "duration": 5, "velocity": 92}, {"time": 632, "pitch": 60, "duration": 4, "velocity": 79}, {"time": 635, "pitch": 64, "duration": 13, "velocity": 107}, {"time": 638, "pitch": 52, "duration": 2, "velocity": 69}, {"time": 641, "pitch": 60, "duration": 6, "velocity": 76}, {"time": 644, "pitch": 57, "duration": 3, "velocity": 41}, {"time": 647, "pitch": 46, "duration": 19, "velocity": 93}, {"time": 653, "pitch": 58, "duration": 8, "velocity": 62}, {"time": 659, "pitch": 70, "duration": 12, "velocity": 107}, {"time": 662, "pitch": 58, "duration": 3, "velocity": 61}, {"time": 665, "pitch": 65, "duration": 6, "velocity": 74}, {"time": 668, "pitch": 62, "duration": 4, "velocity": 70}, {"time": 671, "pitch": 45, "duration": 18, "velocity": 75}, {"time": 677, "pitch": 52, "duration": 8, "velocity": 62}, {"time": 683, "pitch": 64, "duration": 10, "velocity": 100}, {"time": 686, "pitch": 52, "duration": 2, "velocity": 55}, {"time": 689, "pitch": 60, "duration": 5, "velocity": 73}, {"time": 692, "pitch": 57, "duration": 3, "velocity": 65}, {"time": 695, "pitch": 43, "duration": 12, "velocity": 88}, {"time": 698, "pitch": 55, "duration": 5, "velocity": 79}, {"time": 701, "pitch": 62, "duration": 4, "velocity": 102}, {"time": 704, "pitch": 55, "duration": 4, "velocity": 79}, {"time": 707, "pitch": 48, "duration": 12, "velocity": 92}, {"time": 710, "pitch": 55, "duration": 8, "velocity": 73}, {"time": 713, "pitch": 64, "duration": 6, "velocity": 95}, {"time": 716, "pitch": 60, "duration": 3, "velocity": 66}, {"time": 719, "pitch": 41, "duration": 23, "velocity": 79}, {"time": 722, "pitch": 48, "duration": 20, "velocity": 66}, {"time": 725, "pitch": 53, "duration": 8, "velocity": 93}, {"time": 728, "pitch": 60, "duration": 5, "velocity": 82}, {"time": 731, "pitch": 69, "duration": 11, "velocity": 117}, {"time": 734, "pitch": 67, "duration": 9, "velocity": 88}, {"time": 737, "pitch": 65, "duration": 6, "velocity": 88}, {"time": 740, "pitch": 60, "duration": 3, "velocity": 83}, {"time": 743, "pitch": 43, "duration": 23, "velocity": 95}, {"time": 746, "pitch": 50, "duration": 22, "velocity": 48}, {"time": 749, "pitch": 55, "duration": 6, "velocity": 83}, {"time": 752, "pitch": 58, "duration": 4, "velocity": 72}, {"time": 755, "pitch": 62, "duration": 19, "velocity": 100}, {"time": 761, "pitch": 58, "duration": 17, "velocity": 82}, {"time": 767, "pitch": 43, "duration": 16, "velocity": 81}, {"time": 773, "pitch": 50, "duration": 8, "velocity": 58}, {"time": 779, "pitch": 62, "duration": 13, "velocity": 122}, {"time": 785, "pitch": 55, "duration": 7, "velocity": 66}, {"time": 785, "pitch": 58, "duration": 7, "velocity": 127}, {"time": 791, "pitch": 38, "duration": 23, "velocity": 74}, {"time": 794, "pitch": 45, "duration": 22, "velocity": 73}, {"time": 797, "pitch": 50, "duration": 10, "velocity": 93}, {"time": 800, "pitch": 57, "duration": 27, "velocity": 75}, {"time": 803, "pitch": 65, "duration": 18, "velocity": 100}, {"time": 809, "pitch": 62, "duration": 11, "velocity": 85}, {"time": 815, "pitch": 38, "duration": 17, "velocity": 71}, {"time": 821, "pitch": 45, "duration": 11, "velocity": 48}, {"time": 827, "pitch": 57, "duration": 1, "velocity": 37}, {"time": 827, "pitch": 62, "duration": 12, "velocity": 99}, {"time": 827, "pitch": 65, "duration": 12, "velocity": 122}, {"time": 830, "pitch": 50, "duration": 7, "velocity": 76}, {"time": 833, "pitch": 57, "duration": 7, "velocity": 90}, {"time": 839, "pitch": 43, "duration": 22, "velocity": 89}, {"time": 845, "pitch": 50, "duration": 19, "velocity": 58}, {"time": 851, "pitch": 58, "duration": 6, "velocity": 112}, {"time": 851, "pitch": 62, "duration": 13, "velocity": 90}, {"time": 857, "pitch": 55, "duration": 7, "velocity": 83}, {"time": 863, "pitch": 43, "duration": 18, "velocity": 86}, {"time": 869, "pitch": 50, "duration": 11, "velocity": 72}, {"time": 875, "pitch": 55, "duration": 4, "velocity": 96}, {"time": 875, "pitch": 67, "duration": 7, "velocity": 97}, {"time": 875, "pitch": 70, "duration": 7, "velocity": 117}, {"time": 881, "pitch": 62, "duration": 4, "velocity": 102}, {"time": 887, "pitch": 36, "duration": 21, "velocity": 96}, {"time": 887, "pitch": 60, "duration": 10, "velocity": 112}, {"time": 887, "pitch": 64, "duration": 11, "velocity": 99}, {"time": 887, "pitch": 67, "duration": 11, "velocity": 102}, {"time": 893, "pitch": 43, "duration": 18, "velocity": 48}, {"time": 899, "pitch": 64, "duration": 7, "velocity": 122}, {"time": 899, "pitch": 67, "duration": 10, "velocity": 107}, {"time": 902, "pitch": 48, "duration": 2, "velocity": 42}, {"time": 905, "pitch": 60, "duration": 5, "velocity": 89}, {"time": 908, "pitch": 64, "duration": 2, "velocity": 42}, {"time": 911, "pitch": 36, "duration": 16, "velocity": 92}, {"time": 911, "pitch": 60, "duration": 7, "velocity": 100}, {"time": 911, "pitch": 64, "duration": 7, "velocity": 95}, {"time": 911, "pitch": 67, "duration": 8, "velocity": 99}, {"time": 917, "pitch": 43, "duration": 7, "velocity": 85}, {"time": 926, "pitch": 43, "duration": 1, "velocity": 92}, {"time": 929, "pitch": 60, "duration": 6, "velocity": 102}, {"time": 932, "pitch": 64, "duration": 3, "velocity": 88}, {"time": 935, "pitch": 41, "duration": 20, "velocity": 100}, {"time": 938, "pitch": 48, "duration": 17, "velocity": 97}, {"time": 941, "pitch": 53, "duration": 8, "velocity": 112}, {"time": 944, "pitch": 60, "duration": 5, "velocity": 100}, {"time": 947, "pitch": 69, "duration": 12, "velocity": 127}, {"time": 950, "pitch": 53, "duration": 4, "velocity": 102}, {"time": 953, "pitch": 60, "duration": 4, "velocity": 99}, {"time": 956, "pitch": 65, "duration": 4, "velocity": 112}, {"time": 959, "pitch": 45, "duration": 20, "velocity": 85}, {"time": 962, "pitch": 52, "duration": 11, "velocity": 93}, {"time": 965, "pitch": 57, "duration": 5, "velocity": 102}, {"time": 968, "pitch": 60, "duration": 5, "velocity": 97}, {"time": 971, "pitch": 69, "duration": 12, "velocity": 112}, {"time": 974, "pitch": 52, "duration": 4, "velocity": 77}, {"time": 977, "pitch": 64, "duration": 6, "velocity": 99}, {"time": 980, "pitch": 60, "duration": 4, "velocity": 102}, {"time": 983, "pitch": 38, "duration": 16, "velocity": 92}, {"time": 986, "pitch": 45, "duration": 14, "velocity": 70}, {"time": 989, "pitch": 50, "duration": 7, "velocity": 93}, {"time": 992, "pitch": 57, "duration": 8, "velocity": 90}, {"time": 995, "pitch": 65, "duration": 12, "velocity": 122}, {"time": 998, "pitch": 50, "duration": 3, "velocity": 92}, {"time": 1001, "pitch": 62, "duration": 6, "velocity": 102}, {"time": 1004, "pitch": 57, "duration": 3, "velocity": 97}, {"time": 1007, "pitch": 45, "duration": 19, "velocity": 86}, {"time": 1010, "pitch": 52, "duration": 16, "velocity": 61}, {"time": 1013, "pitch": 57, "duration": 8, "velocity": 97}, {"time": 1016, "pitch": 60, "duration": 5, "velocity": 95}, {"time": 1019, "pitch": 69, "duration": 11, "velocity": 102}, {"time": 1022, "pitch": 57, "duration": 2, "velocity": 95}, {"time": 1025, "pitch": 64, "duration": 5, "velocity": 97}, {"time": 1028, "pitch": 60, "duration": 4, "velocity": 97}, {"time": 1031, "pitch": 46, "duration": 19, "velocity": 97}, {"time": 1034, "pitch": 58, "duration": 9, "velocity": 92}, {"time": 1037, "pitch": 62, "duration": 5, "velocity": 93}, {"time": 1040, "pitch": 70, "duration": 15, "velocity": 127}, {"time": 1043, "pitch": 65, "duration": 7, "velocity": 72}, {"time": 1046, "pitch": 58, "duration": 3, "velocity": 99}, {"time": 1049, "pitch": 62, "duration": 5, "velocity": 88}, {"time": 1052, "pitch": 65, "duration": 3, "velocity": 100}, {"time": 1055, "pitch": 45, "duration": 8, "velocity": 82}, {"time": 1058, "pitch": 52, "duration": 4, "velocity": 97}, {"time": 1061, "pitch": 57, "duration": 7, "velocity": 92}, {"time": 1064, "pitch": 64, "duration": 3, "velocity": 122}, {"time": 1067, "pitch": 38, "duration": 8, "velocity": 93}, {"time": 1070, "pitch": 57, "duration": 5, "velocity": 90}, {"time": 1073, "pitch": 65, "duration": 6, "velocity": 117}, {"time": 1076, "pitch": 62, "duration": 4, "velocity": 107}, {"time": 1079, "pitch": 43, "duration": 17, "velocity": 85}, {"time": 1082, "pitch": 50, "duration": 10, "velocity": 85}, {"time": 1085, "pitch": 58, "duration": 3, "velocity": 112}, {"time": 1088, "pitch": 62, "duration": 15, "velocity": 99}, {"time": 1091, "pitch": 58, "duration": 7, "velocity": 122}, {"time": 1094, "pitch": 50, "duration": 2, "velocity": 83}, {"time": 1097, "pitch": 55, "duration": 6, "velocity": 100}, {"time": 1100, "pitch": 58, "duration": 4, "velocity": 127}, {"time": 1103, "pitch": 36, "duration": 19, "velocity": 90}, {"time": 1106, "pitch": 43, "duration": 15, "velocity": 107}, {"time": 1109, "pitch": 48, "duration": 17, "velocity": 100}, {"time": 1112, "pitch": 60, "duration": 5, "velocity": 122}, {"time": 1115, "pitch": 67, "duration": 10, "velocity": 127}, {"time": 1118, "pitch": 64, "duration": 4, "velocity": 122}, {"time": 1121, "pitch": 60, "duration": 9, "velocity": 112}, {"time": 1124, "pitch": 64, "duration": 3, "velocity": 97}, {"time": 1127, "pitch": 41, "duration": 17, "velocity": 88}, {"time": 1130, "pitch": 48, "duration": 15, "velocity": 79}, {"time": 1133, "pitch": 53, "duration": 7, "velocity": 96}, {"time": 1136, "pitch": 60, "duration": 6, "velocity": 88}, {"time": 1139, "pitch": 69, "duration": 12, "velocity": 117}, {"time": 1142, "pitch": 53, "duration": 8, "velocity": 92}, {"time": 1145, "pitch": 65, "duration": 6, "velocity": 93}, {"time": 1148, "pitch": 60, "duration": 4, "velocity": 88}, {"time": 1151, "pitch": 45, "duration": 19, "velocity": 81}, {"time": 1154, "pitch": 52, "duration": 15, "velocity": 72}, {"time": 1157, "pitch": 57, "duration": 8, "velocity": 93}, {"time": 1160, "pitch": 60, "duration": 5, "velocity": 93}, {"time": 1163, "pitch": 69, "duration": 11, "velocity": 122}, {"time": 1166, "pitch": 57, "duration": 2, "velocity": 74}, {"time": 1169, "pitch": 64, "duration": 6, "velocity": 96}, {"time": 1172, "pitch": 60, "duration": 4, "velocity": 102}, {"time": 1175, "pitch": 38, "duration": 17, "velocity": 92}, {"time": 1178, "pitch": 45, "duration": 13, "velocity": 72}, {"time": 1181, "pitch": 50, "duration": 7, "velocity": 88}, {"time": 1184, "pitch": 57, "duration": 6, "velocity": 95}, {"time": 1187, "pitch": 65, "duration": 12, "velocity": 127}, {"time": 1190, "pitch": 50, "duration": 3, "velocity": 85}, {"time": 1193, "pitch": 62, "duration": 6, "velocity": 90}, {"time": 1196, "pitch": 57, "duration": 3, "velocity": 96}, {"time": 1199, "pitch": 45, "duration": 18, "velocity": 71}, {"time": 1202, "pitch": 52, "duration": 16, "velocity": 58}, {"time": 1205, "pitch": 57, "duration": 8, "velocity": 102}, {"time": 1208, "pitch": 64, "duration": 6, "velocity": 93}, {"time": 1211, "pitch": 72, "duration": 11, "velocity": 127}, {"time": 1214, "pitch": 57, "duration": 3, "velocity": 112}, {"time": 1217, "pitch": 69, "duration": 5, "velocity": 96}, {"time": 1220, "pitch": 64, "duration": 4, "velocity": 107}, {"time": 1223, "pitch": 46, "duration": 17, "velocity": 100}, {"time": 1226, "pitch": 58, "duration": 10, "velocity": 93}, {"time": 1229, "pitch": 62, "duration": 8, "velocity": 92}, {"time": 1232, "pitch": 65, "duration": 3, "velocity": 97}, {"time": 1235, "pitch": 70, "duration": 12, "velocity": 127}, {"time": 1238, "pitch": 58, "duration": 2, "velocity": 88}, {"time": 1241, "pitch": 65, "duration": 6, "velocity": 95}, {"time": 1244, "pitch": 62, "duration": 3, "velocity": 96}, {"time": 1247, "pitch": 45, "duration": 11, "velocity": 100}, {"time": 1250, "pitch": 57, "duration": 7, "velocity": 99}, {"time": 1253, "pitch": 60, "duration": 4, "velocity": 89}, {"time": 1256, "pitch": 64, "duration": 2, "velocity": 107}, {"time": 1259, "pitch": 50, "duration": 12, "velocity": 117}, {"time": 1262, "pitch": 57, "duration": 6, "velocity": 88}, {"time": 1265, "pitch": 65, "duration": 5, "velocity": 122}, {"time": 1268, "pitch": 62, "duration": 2, "velocity": 117}, {"time": 1271, "pitch": 43, "duration": 8, "velocity": 89}, {"time": 1274, "pitch": 55, "duration": 9, "velocity": 66}, {"time": 1277, "pitch": 62, "duration": 5, "velocity": 102}, {"time": 1280, "pitch": 58, "duration": 2, "velocity": 107}, {"time": 1283, "pitch": 48, "duration": 11, "velocity": 86}, {"time": 1286, "pitch": 55, "duration": 5, "velocity": 77}, {"time": 1289, "pitch": 64, "duration": 6, "velocity": 96}, {"time": 1292, "pitch": 60, "duration": 3, "velocity": 79}, {"time": 1295, "pitch": 41, "duration": 23, "velocity": 69}, {"time": 1298, "pitch": 48, "duration": 21, "velocity": 77}, {"time": 1301, "pitch": 53, "duration": 8, "velocity": 89}, {"time": 1304, "pitch": 60, "duration": 15, "velocity": 72}, {"time": 1307, "pitch": 69, "duration": 10, "velocity": 112}, {"time": 1310, "pitch": 53, "duration": 9, "velocity": 76}, {"time": 1313, "pitch": 67, "duration": 6, "velocity": 76}, {"time": 1316, "pitch": 65, "duration": 3, "velocity": 38}, {"time": 1319, "pitch": 41, "duration": 46, "velocity": 76}, {"time": 1325, "pitch": 48, "duration": 43, "velocity": 58}, {"time": 1331, "pitch": 60, "duration": 24, "velocity": 92}, {"time": 1337, "pitch": 53, "duration": 9, "velocity": 60}, {"time": 1343, "pitch": 65, "duration": 7, "velocity": 72}, {"time": 1343, "pitch": 69, "duration": 30, "velocity": 76}, {"time": 1349, "pitch": 53, "duration": 10, "velocity": 77}, {"time": 1355, "pitch": 65, "duration": 18, "velocity": 89}, {"time": 1361, "pitch": 60, "duration": 14, "velocity": 88}, {"time": 1367, "pitch": 41, "duration": 38, "velocity": 90}, {"time": 1373, "pitch": 48, "duration": 32, "velocity": 72}, {"time": 1379, "pitch": 60, "duration": 11, "velocity": 81}, {"time": 1385, "pitch": 53, "duration": 10, "velocity": 70}, {"time": 1391, "pitch": 57, "duration": 11, "velocity": 76}, {"time": 1391, "pitch": 60, "duration": 9, "velocity": 75}, {"time": 1391, "pitch": 65, "duration": 9, "velocity": 76}, {"time": 1397, "pitch": 53, "duration": 3, "velocity": 72}, {"time": 1403, "pitch": 65, "duration": 12, "velocity": 107}, {"time": 1409, "pitch": 60, "duration": 6, "velocity": 72}, {"time": 1412, "pitch": 57, "duration": 2, "velocity": 42}, {"time": 1415, "pitch": 38, "duration": 39, "velocity": 92}, {"time": 1421, "pitch": 45, "duration": 33, "velocity": 47}, {"time": 1427, "pitch": 62, "duration": 12, "velocity": 99}, {"time": 1433, "pitch": 50, "duration": 9, "velocity": 69}, {"time": 1439, "pitch": 65, "duration": 19, "velocity": 99}, {"time": 1445, "pitch": 50, "duration": 12, "velocity": 83}, {"time": 1451, "pitch": 62, "duration": 7, "velocity": 100}, {"time": 1457, "pitch": 57, "duration": 3, "velocity": 102}, {"time": 1463, "pitch": 46, "duration": 20, "velocity": 122}, {"time": 1466, "pitch": 50, "duration": 16, "velocity": 61}, {"time": 1469, "pitch": 53, "duration": 7, "velocity": 85}, {"time": 1472, "pitch": 58, "duration": 4, "velocity": 100}, {"time": 1475, "pitch": 62, "duration": 5, "velocity": 95}, {"time": 1475, "pitch": 65, "duration": 8, "velocity": 100}, {"time": 1478, "pitch": 53, "duration": 5, "velocity": 89}, {"time": 1481, "pitch": 58, "duration": 3, "velocity": 112}, {"time": 1484, "pitch": 46, "duration": 21, "velocity": 117}, {"time": 1484, "pitch": 53, "duration": 11, "velocity": 102}, {"time": 1484, "pitch": 58, "duration": 5, "velocity": 83}, {"time": 1484, "pitch": 61, "duration": 10, "velocity": 117}, {"time": 1484, "pitch": 65, "duration": 11, "velocity": 100}, {"time": 1493, "pitch": 58, "duration": 5, "velocity": 97}, {"time": 1496, "pitch": 53, "duration": 4, "velocity": 99}, {"time": 1499, "pitch": 58, "duration": 2, "velocity": 43}, {"time": 1499, "pitch": 61, "duration": 6, "velocity": 117}, {"time": 1499, "pitch": 65, "duration": 7, "velocity": 99}, {"time": 1502, "pitch": 53, "duration": 3, "velocity": 96}, {"time": 1505, "pitch": 58, "duration": 2, "velocity": 117}, {"time": 1511, "pitch": 45, "duration": 12, "velocity": 92}, {"time": 1511, "pitch": 57, "duration": 11, "velocity": 122}, {"time": 1511, "pitch": 60, "duration": 11, "velocity": 112}, {"time": 1511, "pitch": 64, "duration": 11, "velocity": 102}, {"time": 1517, "pitch": 52, "duration": 6, "velocity": 55}, {"time": 1523, "pitch": 57, "duration": 2, "velocity": 75}, {"time": 1523, "pitch": 60, "duration": 6, "velocity": 97}, {"time": 1523, "pitch": 64, "duration": 7, "velocity": 96}, {"time": 1526, "pitch": 57, "duration": 4, "velocity": 35}, {"time": 1529, "pitch": 62, "duration": 1, "velocity": 69}, {"time": 1532, "pitch": 38, "duration": 20, "velocity": 86}, {"time": 1532, "pitch": 57, "duration": 11, "velocity": 112}, {"time": 1532, "pitch": 62, "duration": 11, "velocity": 102}, {"time": 1532, "pitch": 66, "duration": 11, "velocity": 127}, {"time": 1541, "pitch": 50, "duration": 8, "velocity": 75}, {"time": 1544, "pitch": 57, "duration": 2, "velocity": 99}, {"time": 1544, "pitch": 62, "duration": 2, "velocity": 97}, {"time": 1544, "pitch": 66, "duration": 2, "velocity": 97}, {"time": 1547, "pitch": 62, "duration": 7, "velocity": 127}, {"time": 1550, "pitch": 50, "duration": 4, "velocity": 95}, {"time": 1553, "pitch": 57, "duration": 4, "velocity": 122}, {"time": 1556, "pitch": 62, "duration": 3, "velocity": 102}, {"time": 1559, "pitch": 43, "duration": 20, "velocity": 92}, {"time": 1559, "pitch": 58, "duration": 9, "velocity": 127}, {"time": 1559, "pitch": 62, "duration": 10, "velocity": 102}, {"time": 1568, "pitch": 55, "duration": 6, "velocity": 82}, {"time": 1571, "pitch": 58, "duration": 7, "velocity": 127}, {"time": 1571, "pitch": 62, "duration": 6, "velocity": 112}, {"time": 1577, "pitch": 55, "duration": 1, "velocity": 95}, {"time": 1580, "pitch": 45, "duration": 17, "velocity": 99}, {"time": 1580, "pitch": 57, "duration": 4, "velocity": 100}, {"time": 1580, "pitch": 60, "duration": 7, "velocity": 117}, {"time": 1580, "pitch": 64, "duration": 7, "velocity": 100}, {"time": 1586, "pitch": 57, "duration": 5, "velocity": 83}, {"time": 1589, "pitch": 60, "duration": 5, "velocity": 102}, {"time": 1589, "pitch": 64, "duration": 5, "velocity": 99}, {"time": 1595, "pitch": 60, "duration": 7, "velocity": 117}, {"time": 1595, "pitch": 64, "duration": 7, "velocity": 122}, {"time": 1598, "pitch": 45, "duration": 8, "velocity": 102}, {"time": 1601, "pitch": 57, "duration": 4, "velocity": 107}, {"time": 1607, "pitch": 47, "duration": 14, "velocity": 97}, {"time": 1607, "pitch": 59, "duration": 5, "velocity": 107}, {"time": 1607, "pitch": 62, "duration": 10, "velocity": 127}, {"time": 1607, "pitch": 65, "duration": 10, "velocity": 127}, {"time": 1616, "pitch": 59, "duration": 2, "velocity": 36}, {"time": 1619, "pitch": 62, "duration": 7, "velocity": 127}, {"time": 1619, "pitch": 65, "duration": 7, "velocity": 127}, {"time": 1625, "pitch": 59, "duration": 2, "velocity": 96}, {"time": 1631, "pitch": 36, "duration": 21, "velocity": 76}, {"time": 1631, "pitch": 48, "duration": 14, "velocity": 99}, {"time": 1631, "pitch": 60, "duration": 14, "velocity": 107}, {"time": 1631, "pitch": 64, "duration": 11, "velocity": 127}, {"time": 1631, "pitch": 67, "duration": 11, "velocity": 112}, {"time": 1643, "pitch": 64, "duration": 7, "velocity": 88}, {"time": 1643, "pitch": 67, "duration": 7, "velocity": 88}, {"time": 1646, "pitch": 48, "duration": 8, "velocity": 83}, {"time": 1649, "pitch": 60, "duration": 4, "velocity": 90}, {"time": 1655, "pitch": 36, "duration": 48, "velocity": 86}, {"time": 1667, "pitch": 48, "duration": 17, "velocity": 47}, {"time": 1673, "pitch": 43, "duration": 30, "velocity": 58}, {"time": 1679, "pitch": 60, "duration": 13, "velocity": 95}, {"time": 1685, "pitch": 48, "duration": 8, "velocity": 42}, {"time": 1691, "pitch": 64, "duration": 13, "velocity": 64}, {"time": 1691, "pitch": 67, "duration": 13, "velocity": 58}, {"time": 1697, "pitch": 60, "duration": 6, "velocity": 77}, {"time": 1703, "pitch": 41, "duration": 39, "velocity": 88}, {"time": 1709, "pitch": 48, "duration": 33, "velocity": 58}, {"time": 1715, "pitch": 53, "duration": 16, "velocity": 95}, {"time": 1721, "pitch": 60, "duration": 25, "velocity": 59}, {"time": 1727, "pitch": 65, "duration": 12, "velocity": 100}, {"time": 1733, "pitch": 53, "duration": 4, "velocity": 66}, {"time": 1739, "pitch": 69, "duration": 12, "velocity": 99}, {"time": 1745, "pitch": 65, "duration": 6, "velocity": 78}, {"time": 1751, "pitch": 38, "duration": 19, "velocity": 78}, {"time": 1757, "pitch": 45, "duration": 13, "velocity": 62}, {"time": 1763, "pitch": 62, "duration": 13, "velocity": 96}, {"time": 1769, "pitch": 50, "duration": 6, "velocity": 57}, {"time": 1775, "pitch": 45, "duration": 15, "velocity": 79}, {"time": 1781, "pitch": 52, "duration": 9, "velocity": 59}, {"time": 1787, "pitch": 64, "duration": 12, "velocity": 100}, {"time": 1793, "pitch": 57, "duration": 5, "velocity": 88}, {"time": 1796, "pitch": 60, "duration": 4, "velocity": 85}, {"time": 1799, "pitch": 46, "duration": 18, "velocity": 107}, {"time": 1805, "pitch": 58, "duration": 8, "velocity": 88}, {"time": 1811, "pitch": 70, "duration": 13, "velocity": 112}, {"time": 1817, "pitch": 65, "duration": 7, "velocity": 89}, {"time": 1820, "pitch": 62, "duration": 4, "velocity": 58}, {"time": 1823, "pitch": 45, "duration": 18, "velocity": 85}, {"time": 1829, "pitch": 52, "duration": 8, "velocity": 47}, {"time": 1835, "pitch": 64, "duration": 13, "velocity": 102}, {"time": 1838, "pitch": 52, "duration": 2, "velocity": 68}, {"time": 1841, "pitch": 60, "duration": 6, "velocity": 74}, {"time": 1844, "pitch": 57, "duration": 3, "velocity": 65}, {"time": 1847, "pitch": 43, "duration": 17, "velocity": 75}, {"time": 1853, "pitch": 50, "duration": 10, "velocity": 58}, {"time": 1859, "pitch": 55, "duration": 3, "velocity": 72}, {"time": 1859, "pitch": 67, "duration": 12, "velocity": 96}, {"time": 1865, "pitch": 62, "duration": 7, "velocity": 79}, {"time": 1871, "pitch": 36, "duration": 18, "velocity": 88}, {"time": 1874, "pitch": 48, "duration": 11, "velocity": 85}, {"time": 1877, "pitch": 55, "duration": 18, "velocity": 77}, {"time": 1880, "pitch": 60, "duration": 4, "velocity": 69}, {"time": 1883, "pitch": 64, "duration": 10, "velocity": 97}, {"time": 1886, "pitch": 48, "duration": 6, "velocity": 89}, {"time": 1889, "pitch": 62, "duration": 7, "velocity": 89}, {"time": 1892, "pitch": 60, "duration": 4, "velocity": 92}, {"time": 1895, "pitch": 41, "duration": 23, "velocity": 89}, {"time": 1901, "pitch": 48, "duration": 19, "velocity": 53}, {"time": 1907, "pitch": 53, "duration": 6, "velocity": 72}, {"time": 1907, "pitch": 65, "duration": 23, "velocity": 83}, {"time": 1913, "pitch": 60, "duration": 20, "velocity": 64}, {"time": 1919, "pitch": 41, "duration": 19, "velocity": 82}, {"time": 1925, "pitch": 48, "duration": 12, "velocity": 38}, {"time": 1931, "pitch": 69, "duration": 12, "velocity": 122}, {"time": 1934, "pitch": 53, "duration": 2, "velocity": 82}, {"time": 1937, "pitch": 65, "duration": 7, "velocity": 90}, {"time": 1940, "pitch": 60, "duration": 5, "velocity": 69}, {"time": 1943, "pitch": 38, "duration": 14, "velocity": 75}, {"time": 1949, "pitch": 45, "duration": 8, "velocity": 53}, {"time": 1955, "pitch": 65, "duration": 13, "velocity": 107}, {"time": 1961, "pitch": 62, "duration": 7, "velocity": 81}, {"time": 1967, "pitch": 45, "duration": 17, "velocity": 73}, {"time": 1970, "pitch": 52, "duration": 12, "velocity": 63}, {"time": 1973, "pitch": 57, "duration": 5, "velocity": 92}, {"time": 1976, "pitch": 60, "duration": 4, "velocity": 79}, {"time": 1979, "pitch": 64, "duration": 13, "velocity": 107}, {"time": 1982, "pitch": 52, "duration": 2, "velocity": 69}, {"time": 1985, "pitch": 60, "duration": 6, "velocity": 76}, {"time": 1988, "pitch": 57, "duration": 3, "velocity": 41}, {"time": 1991, "pitch": 46, "duration": 19, "velocity": 93}, {"time": 1997, "pitch": 58, "duration": 8, "velocity": 62}, {"time": 2006, "pitch": 58, "duration": 3, "velocity": 61}, {"time": 2009, "pitch": 65, "duration": 6, "velocity": 74}, {"time": 2012, "pitch": 62, "duration": 4, "velocity": 70}, {"time": 2015, "pitch": 45, "duration": 18, "velocity": 75}, {"time": 2021, "pitch": 52, "duration": 8, "velocity": 62}, {"time": 2027, "pitch": 64, "duration": 10, "velocity": 100}, {"time": 2030, "pitch": 52, "duration": 2, "velocity": 55}, {"time": 2033, "pitch": 60, "duration": 5, "velocity": 73}, {"time": 2036, "pitch": 57, "duration": 3, "velocity": 65}, {"time": 2039, "pitch": 43, "duration": 12, "velocity": 88}, {"time": 2042, "pitch": 55, "duration": 5, "velocity": 79}, {"time": 2045, "pitch": 62, "duration": 4, "velocity": 102}, {"time": 2048, "pitch": 55, "duration": 4, "velocity": 79}, {"time": 2051, "pitch": 48, "duration": 12, "velocity": 92}, {"time": 2054, "pitch": 55, "duration": 8, "velocity": 73}, {"time": 2057, "pitch": 64, "duration": 6, "velocity": 95}, {"time": 2060, "pitch": 60, "duration": 3, "velocity": 66}, {"time": 2063, "pitch": 41, "duration": 23, "velocity": 79}, {"time": 2066, "pitch": 48, "duration": 20, "velocity": 66}, {"time": 2069, "pitch": 53, "duration": 8, "velocity": 93}, {"time": 2072, "pitch": 60, "duration": 5, "velocity": 82}, {"time": 2075, "pitch": 69, "duration": 11, "velocity": 117}, {"time": 2078, "pitch": 67, "duration": 9, "velocity": 88}, {"time": 2081, "pitch": 65, "duration": 6, "velocity": 88}, {"time": 2084, "pitch": 60, "duration": 3, "velocity": 83}, {"time": 2087, "pitch": 43, "duration": 23, "velocity": 95}, {"time": 2090, "pitch": 50, "duration": 22, "velocity": 48}, {"time": 2093, "pitch": 55, "duration": 6, "velocity": 83}, {"time": 2096, "pitch": 58, "duration": 4, "velocity": 72}, {"time": 2099, "pitch": 62, "duration": 19, "velocity": 100}, {"time": 2105, "pitch": 58, "duration": 17, "velocity": 82}, {"time": 2111, "pitch": 43, "duration": 16, "velocity": 81}, {"time": 2117, "pitch": 50, "duration": 8, "velocity": 58}, {"time": 2123, "pitch": 62, "duration": 13, "velocity": 122}, {"time": 2129, "pitch": 55, "duration": 7, "velocity": 66}, {"time": 2129, "pitch": 58, "duration": 7, "velocity": 127}, {"time": 2135, "pitch": 38, "duration": 23, "velocity": 74}, {"time": 2138, "pitch": 45, "duration": 22, "velocity": 73}, {"time": 2141, "pitch": 50, "duration": 10, "velocity": 93}, {"time": 2144, "pitch": 57, "duration": 27, "velocity": 75}, {"time": 2147, "pitch": 65, "duration": 18, "velocity": 100}, {"time": 2153, "pitch": 62, "duration": 11, "velocity": 85}, {"time": 2159, "pitch": 38, "duration": 17, "velocity": 71}, {"time": 2165, "pitch": 45, "duration": 11, "velocity": 48}, {"time": 2171, "pitch": 57, "duration": 1, "velocity": 37}, {"time": 2171, "pitch": 62, "duration": 12, "velocity": 99}, {"time": 2171, "pitch": 65, "duration": 12, "velocity": 122}, {"time": 2174, "pitch": 50, "duration": 7, "velocity": 76}, {"time": 2177, "pitch": 57, "duration": 7, "velocity": 90}, {"time": 2183, "pitch": 43, "duration": 22, "velocity": 89}, {"time": 2189, "pitch": 50, "duration": 19, "velocity": 58}, {"time": 2195, "pitch": 58, "duration": 6, "velocity": 112}, {"time": 2195, "pitch": 62, "duration": 13, "velocity": 90}, {"time": 2201, "pitch": 55, "duration": 7, "velocity": 83}, {"time": 2207, "pitch": 43, "duration": 18, "velocity": 86}, {"time": 2213, "pitch": 50, "duration": 11, "velocity": 72}, {"time": 2219, "pitch": 55, "duration": 4, "velocity": 96}, {"time": 2219, "pitch": 67, "duration": 7, "velocity": 97}, {"time": 2225, "pitch": 62, "duration": 4, "velocity": 102}, {"time": 2231, "pitch": 36, "duration": 21, "velocity": 96}, {"time": 2231, "pitch": 60, "duration": 10, "velocity": 112}, {"time": 2231, "pitch": 64, "duration": 11, "velocity": 99}, {"time": 2231, "pitch": 67, "duration": 11, "velocity": 102}, {"time": 2237, "pitch": 43, "duration": 18, "velocity": 48}, {"time": 2243, "pitch": 64, "duration": 7, "velocity": 122}, {"time": 2243, "pitch": 67, "duration": 10, "velocity": 107}, {"time": 2246, "pitch": 48, "duration": 2, "velocity": 42}, {"time": 2249, "pitch": 60, "duration": 5, "velocity": 89}, {"time": 2252, "pitch": 64, "duration": 2, "velocity": 42}, {"time": 2255, "pitch": 36, "duration": 16, "velocity": 92}, {"time": 2255, "pitch": 60, "duration": 7, "velocity": 100}, {"time": 2255, "pitch": 64, "duration": 7, "velocity": 95}, {"time": 2255, "pitch": 67, "duration": 8, "velocity": 99}, {"time": 2261, "pitch": 43, "duration": 7, "velocity": 85}, {"time": 2270, "pitch": 43, "duration": 1, "velocity": 92}, {"time": 2273, "pitch": 60, "duration": 6, "velocity": 102}, {"time": 2276, "pitch": 64, "duration": 3, "velocity": 88}, {"time": 2279, "pitch": 41, "duration": 20, "velocity": 100}, {"time": 2282, "pitch": 48, "duration": 17, "velocity": 97}, {"time": 2285, "pitch": 53, "duration": 8, "velocity": 112}, {"time": 2288, "pitch": 60, "duration": 5, "velocity": 100}, {"time": 2291, "pitch": 69, "duration": 12, "velocity": 127}, {"time": 2294, "pitch": 53, "duration": 4, "velocity": 102}, {"time": 2297, "pitch": 60, "duration": 4, "velocity": 99}, {"time": 2300, "pitch": 65, "duration": 4, "velocity": 112}, {"time": 2303, "pitch": 45, "duration": 20, "velocity": 85}, {"time": 2306, "pitch": 52, "duration": 11, "velocity": 93}, {"time": 2309, "pitch": 57, "duration": 5, "velocity": 102}, {"time": 2312, "pitch": 60, "duration": 5, "velocity": 97}, {"time": 2315, "pitch": 69, "duration": 12, "velocity": 112}, {"time": 2318, "pitch": 52, "duration": 4, "velocity": 77}, {"time": 2321, "pitch": 64, "duration": 6, "velocity": 99}, {"time": 2324, "pitch": 60, "duration": 4, "velocity": 102}, {"time": 2327, "pitch": 38, "duration": 16, "velocity": 92}, {"time": 2330, "pitch": 45, "duration": 14, "velocity": 70}, {"time": 2333, "pitch": 50, "duration": 7, "velocity": 93}, {"time": 2336, "pitch": 57, "duration": 8, "velocity": 90}, {"time": 2339, "pitch": 65, "duration": 12, "velocity": 122}, {"time": 2342, "pitch": 50, "duration": 3, "velocity": 92}, {"time": 2345, "pitch": 62, "duration": 6, "velocity": 102}, {"time": 2348, "pitch": 57, "duration": 3, "velocity": 97}, {"time": 2351, "pitch": 45, "duration": 19, "velocity": 86}, {"time": 2354, "pitch": 52, "duration": 16, "velocity": 61}, {"time": 2357, "pitch": 57, "duration": 8, "velocity": 97}, {"time": 2360, "pitch": 60, "duration": 5, "velocity": 95}, {"time": 2363, "pitch": 69, "duration": 11, "velocity": 102}, {"time": 2366, "pitch": 57, "duration": 2, "velocity": 95}, {"time": 2369, "pitch": 64, "duration": 5, "velocity": 97}, {"time": 2372, "pitch": 60, "duration": 4, "velocity": 97}, {"time": 2375, "pitch": 46, "duration": 19, "velocity": 97}, {"time": 2378, "pitch": 58, "duration": 9, "velocity": 92}, {"time": 2381, "pitch": 62, "duration": 5, "velocity": 93}, {"time": 2384, "pitch": 70, "duration": 15, "velocity": 127}, {"time": 2387, "pitch": 65, "duration": 7, "velocity": 72}, {"time": 2390, "pitch": 58, "duration": 3, "velocity": 99}, {"time": 2393, "pitch": 62, "duration": 5, "velocity": 88}, {"time": 2396, "pitch": 65, "duration": 3, "velocity": 100}, {"time": 2399, "pitch": 45, "duration": 8, "velocity": 82}, {"time": 2402, "pitch": 52, "duration": 4, "velocity": 97}, {"time": 2405, "pitch": 57, "duration": 7, "velocity": 92}, {"time": 2408, "pitch": 64, "duration": 3, "velocity": 122}, {"time": 2411, "pitch": 38, "duration": 8, "velocity": 93}, {"time": 2414, "pitch": 57, "duration": 5, "velocity": 90}, {"time": 2417, "pitch": 65, "duration": 6, "velocity": 117}, {"time": 2420, "pitch": 62, "duration": 4, "velocity": 107}, {"time": 2423, "pitch": 43, "duration": 17, "velocity": 85}, {"time": 2426, "pitch": 50, "duration": 10, "velocity": 85}, {"time": 2429, "pitch": 58, "duration": 3, "velocity": 112}, {"time": 2432, "pitch": 62, "duration": 15, "velocity": 99}, {"time": 2435, "pitch": 58, "duration": 7, "velocity": 122}, {"time": 2438, "pitch": 50, "duration": 2, "velocity": 83}, {"time": 2441, "pitch": 55, "duration": 6, "velocity": 100}, {"time": 2444, "pitch": 58, "duration": 4, "velocity": 127}, {"time": 2447, "pitch": 36, "duration": 19, "velocity": 90}, {"time": 2450, "pitch": 43, "duration": 15, "velocity": 107}, {"time": 2453, "pitch": 48, "duration": 17, "velocity": 100}, {"time": 2456, "pitch": 60, "duration": 5, "velocity": 122}, {"time": 2459, "pitch": 67, "duration": 10, "velocity": 127}, {"time": 2462, "pitch": 64, "duration": 4, "velocity": 122}, {"time": 2465, "pitch": 60, "duration": 9, "velocity": 112}, {"time": 2468, "pitch": 64, "duration": 3, "velocity": 97}, {"time": 2471, "pitch": 41, "duration": 17, "velocity": 88}, {"time": 2474, "pitch": 48, "duration": 15, "velocity": 79}, {"time": 2477, "pitch": 53, "duration": 7, "velocity": 96}, {"time": 2480, "pitch": 60, "duration": 6, "velocity": 88}, {"time": 2483, "pitch": 69, "duration": 12, "velocity": 117}, {"time": 2486, "pitch": 53, "duration": 8, "velocity": 92}, {"time": 2489, "pitch": 65, "duration": 6, "velocity": 93}, {"time": 2492, "pitch": 60, "duration": 4, "velocity": 88}, {"time": 2495, "pitch": 45, "duration": 19, "velocity": 81}, {"time": 2498, "pitch": 52, "duration": 15, "velocity": 72}, {"time": 2501, "pitch": 57, "duration": 8, "velocity": 93}, {"time": 2504, "pitch": 60, "duration": 5, "velocity": 93}, {"time": 2507, "pitch": 69, "duration": 11, "velocity": 122}, {"time": 2510, "pitch": 57, "duration": 2, "velocity": 74}, {"time": 2513, "pitch": 64, "duration": 6, "velocity": 96}, {"time": 2516, "pitch": 60, "duration": 4, "velocity": 102}, {"time": 2519, "pitch": 38, "duration": 17, "velocity": 92}, {"time": 2522, "pitch": 45, "duration": 13, "velocity": 72}, {"time": 2525, "pitch": 50, "duration": 7, "velocity": 88}, {"time": 2528, "pitch": 57, "duration": 6, "velocity": 95}, {"time": 2531, "pitch": 65, "duration": 12, "velocity": 127}, {"time": 2534, "pitch": 50, "duration": 3, "velocity": 85}, {"time": 2537, "pitch": 62, "duration": 6, "velocity": 90}, {"time": 2540, "pitch": 57, "duration": 3, "velocity": 96}, {"time": 2543, "pitch": 45, "duration": 18, "velocity": 71}, {"time": 2546, "pitch": 52, "duration": 16, "velocity": 58}, {"time": 2549, "pitch": 57, "duration": 8, "velocity": 102}, {"time": 2552, "pitch": 64, "duration": 6, "velocity": 93}, {"time": 2555, "pitch": 72, "duration": 11, "velocity": 127}, {"time": 2558, "pitch": 57, "duration": 3, "velocity": 112}, {"time": 2561, "pitch": 69, "duration": 5, "velocity": 96}, {"time": 2564, "pitch": 64, "duration": 4, "velocity": 107}, {"time": 2567, "pitch": 46, "duration": 17, "velocity": 100}, {"time": 2570, "pitch": 58, "duration": 10, "velocity": 93}, {"time": 2573, "pitch": 62, "duration": 8, "velocity": 92}, {"time": 2576, "pitch": 65, "duration": 3, "velocity": 97}, {"time": 2579, "pitch": 70, "duration": 12, "velocity": 127}, {"time": 2582, "pitch": 58, "duration": 2, "velocity": 88}, {"time": 2585, "pitch": 65, "duration": 6, "velocity": 95}, {"time": 2588, "pitch": 62, "duration": 3, "velocity": 96}, {"time": 2591, "pitch": 45, "duration": 11, "velocity": 100}, {"time": 2594, "pitch": 57, "duration": 7, "velocity": 99}, {"time": 2597, "pitch": 60, "duration": 4, "velocity": 89}, {"time": 2600, "pitch": 64, "duration": 2, "velocity": 107}, {"time": 2603, "pitch": 50, "duration": 12, "velocity": 117}, {"time": 2606, "pitch": 57, "duration": 6, "velocity": 88}, {"time": 2609, "pitch": 65, "duration": 5, "velocity": 122}, {"time": 2612, "pitch": 62, "duration": 2, "velocity": 117}, {"time": 2615, "pitch": 43, "duration": 8, "velocity": 89}, {"time": 2618, "pitch": 55, "duration": 9, "velocity": 66}, {"time": 2621, "pitch": 62, "duration": 5, "velocity": 102}, {"time": 2624, "pitch": 58, "duration": 2, "velocity": 107}, {"time": 2627, "pitch": 48, "duration": 11, "velocity": 86}, {"time": 2630, "pitch": 55, "duration": 5, "velocity": 77}, {"time": 2633, "pitch": 64, "duration": 6, "velocity": 96}, {"time": 2636, "pitch": 60, "duration": 3, "velocity": 79}, {"time": 2639, "pitch": 46, "duration": 23, "velocity": 112}, {"time": 2639, "pitch": 58, "duration": 11, "velocity": 127}, {"time": 2639, "pitch": 62, "duration": 11, "velocity": 97}, {"time": 2639, "pitch": 65, "duration": 10, "velocity": 96}, {"time": 2645, "pitch": 50, "duration": 17, "velocity": 41}, {"time": 2651, "pitch": 58, "duration": 5, "velocity": 107}, {"time": 2651, "pitch": 62, "duration": 10, "velocity": 96}, {"time": 2651, "pitch": 65, "duration": 10, "velocity": 83}, {"time": 2654, "pitch": 53, "duration": 8, "velocity": 82}, {"time": 2657, "pitch": 58, "duration": 5, "velocity": 99}, {"time": 2663, "pitch": 45, "duration": 12, "velocity": 78}, {"time": 2663, "pitch": 57, "duration": 10, "velocity": 102}, {"time": 2663, "pitch": 60, "duration": 6, "velocity": 127}, {"time": 2663, "pitch": 64, "duration": 7, "velocity": 107}, {"time": 2675, "pitch": 47, "duration": 12, "velocity": 99}, {"time": 2675, "pitch": 59, "duration": 9, "velocity": 112}, {"time": 2675, "pitch": 62, "duration": 8, "velocity": 127}, {"time": 2675, "pitch": 65, "duration": 7, "velocity": 122}, {"time": 2687, "pitch": 43, "duration": 18, "velocity": 107}, {"time": 2687, "pitch": 55, "duration": 4, "velocity": 96}, {"time": 2687, "pitch": 58, "duration": 4, "velocity": 127}, {"time": 2687, "pitch": 62, "duration": 4, "velocity": 97}, {"time": 2693, "pitch": 50, "duration": 12, "velocity": 60}, {"time": 2699, "pitch": 62, "duration": 5, "velocity": 107}, {"time": 2699, "pitch": 67, "duration": 7, "velocity": 112}, {"time": 2699, "pitch": 70, "duration": 7, "velocity": 127}, {"time": 2702, "pitch": 55, "duration": 5, "velocity": 88}, {"time": 2705, "pitch": 62, "duration": 4, "velocity": 112}, {"time": 2708, "pitch": 64, "duration": 1, "velocity": 32}, {"time": 2708, "pitch": 67, "duration": 2, "velocity": 38}, {"time": 2711, "pitch": 48, "duration": 12, "velocity": 99}, {"time": 2711, "pitch": 60, "duration": 11, "velocity": 112}, {"time": 2711, "pitch": 64, "duration": 11, "velocity": 117}, {"time": 2711, "pitch": 67, "duration": 10, "velocity": 102}, {"time": 2717, "pitch": 55, "duration": 6, "velocity": 82}, {"time": 2723, "pitch": 48, "duration": 2, "velocity": 97}, {"time": 2723, "pitch": 55, "duration": 1, "velocity": 70}, {"time": 2723, "pitch": 60, "duration": 2, "velocity": 127}, {"time": 2723, "pitch": 64, "duration": 2, "velocity": 127}, {"time": 2723, "pitch": 67, "duration": 2, "velocity": 127}, {"time": 2726, "pitch": 48, "duration": 9, "velocity": 107}, {"time": 2726, "pitch": 60, "duration": 9, "velocity": 117}, {"time": 2726, "pitch": 64, "duration": 9, "velocity": 117}, {"time": 2726, "pitch": 67, "duration": 9, "velocity": 102}, {"time": 2735, "pitch": 41, "duration": 20, "velocity": 100}, {"time": 2738, "pitch": 48, "duration": 17, "velocity": 97}, {"time": 2741, "pitch": 53, "duration": 8, "velocity": 112}, {"time": 2744, "pitch": 60, "duration": 5, "velocity": 100}, {"time": 2747, "pitch": 69, "duration": 12, "velocity": 127}, {"time": 2750, "pitch": 53, "duration": 4, "velocity": 102}, {"time": 2753, "pitch": 60, "duration": 4, "velocity": 99}, {"time": 2756, "pitch": 65, "duration": 4, "velocity": 112}, {"time": 2759, "pitch": 45, "duration": 20, "velocity": 85}, {"time": 2762, "pitch": 52, "duration": 11, "velocity": 93}, {"time": 2765, "pitch": 57, "duration": 5, "velocity": 102}, {"time": 2768, "pitch": 60, "duration": 5, "velocity": 97}, {"time": 2771, "pitch": 69, "duration": 12, "velocity": 112}, {"time": 2774, "pitch": 52, "duration": 4, "velocity": 77}, {"time": 2777, "pitch": 64, "duration": 6, "velocity": 99}, {"time": 2780, "pitch": 60, "duration": 4, "velocity": 102}, {"time": 2783, "pitch": 38, "duration": 16, "velocity": 92}, {"time": 2786, "pitch": 45, "duration": 14, "velocity": 70}, {"time": 2789, "pitch": 50, "duration": 7, "velocity": 93}, {"time": 2792, "pitch": 57, "duration": 8, "velocity": 90}, {"time": 2795, "pitch": 65, "duration": 12, "velocity": 122}, {"time": 2798, "pitch": 50, "duration": 3, "velocity": 92}, {"time": 2801, "pitch": 62, "duration": 6, "velocity": 102}, {"time": 2804, "pitch": 57, "duration": 3, "velocity": 97}, {"time": 2807, "pitch": 45, "duration": 19, "velocity": 86}, {"time": 2810, "pitch": 52, "duration": 16, "velocity": 61}, {"time": 2813, "pitch": 57, "duration": 8, "velocity": 97}, {"time": 2816, "pitch": 60, "duration": 5, "velocity": 95}, {"time": 2819, "pitch": 69, "duration": 11, "velocity": 102}, {"time": 2822, "pitch": 57, "duration": 2, "velocity": 95}, {"time": 2825, "pitch": 64, "duration": 5, "velocity": 97}, {"time": 2828, "pitch": 60, "duration": 4, "velocity": 97}, {"time": 2831, "pitch": 46, "duration": 19, "velocity": 97}, {"time": 2834, "pitch": 58, "duration": 9, "velocity": 92}, {"time": 2837, "pitch": 62, "duration": 5, "velocity": 93}, {"time": 2840, "pitch": 70, "duration": 15, "velocity": 127}, {"time": 2843, "pitch": 65, "duration": 7, "velocity": 72}, {"time": 2846, "pitch": 58, "duration": 3, "velocity": 99}, {"time": 2849, "pitch": 62, "duration": 5, "velocity": 88}, {"time": 2852, "pitch": 65, "duration": 3, "velocity": 100}, {"time": 2855, "pitch": 45, "duration": 8, "velocity": 82}, {"time": 2858, "pitch": 52, "duration": 4, "velocity": 97}, {"time": 2861, "pitch": 57, "duration": 7, "velocity": 92}, {"time": 2864, "pitch": 64, "duration": 3, "velocity": 122}, {"time": 2867, "pitch": 38, "duration": 8, "velocity": 93}, {"time": 2870, "pitch": 57, "duration": 5, "velocity": 90}, {"time": 2873, "pitch": 65, "duration": 6, "velocity": 117}, {"time": 2876, "pitch": 62, "duration": 4, "velocity": 107}, {"time": 2879, "pitch": 43, "duration": 17, "velocity": 85}, {"time": 2882, "pitch": 50, "duration": 10, "velocity": 85}, {"time": 2885, "pitch": 58, "duration": 3, "velocity": 112}, {"time": 2888, "pitch": 62, "duration": 15, "velocity": 99}, {"time": 2891, "pitch": 58, "duration": 7, "velocity": 122}, {"time": 2894, "pitch": 50, "duration": 2, "velocity": 83}, {"time": 2897, "pitch": 55, "duration": 6, "velocity": 100}, {"time": 2900, "pitch": 58, "duration": 4, "velocity": 127}, {"time": 2903, "pitch": 36, "duration": 19, "velocity": 90}, {"time": 2906, "pitch": 43, "duration": 15, "velocity": 107}, {"time": 2909, "pitch": 48, "duration": 17, "velocity": 100}, {"time": 2912, "pitch": 60, "duration": 5, "velocity": 122}, {"time": 2915, "pitch": 67, "duration": 10, "velocity": 127}, {"time": 2918, "pitch": 64, "duration": 4, "velocity": 122}, {"time": 2921, "pitch": 60, "duration": 9, "velocity": 112}, {"time": 2924, "pitch": 64, "duration": 3, "velocity": 97}, {"time": 2927, "pitch": 41, "duration": 17, "velocity": 88}, {"time": 2930, "pitch": 48, "duration": 15, "velocity": 79}, {"time": 2933, "pitch": 53, "duration": 7, "velocity": 96}, {"time": 2936, "pitch": 60, "duration": 6, "velocity": 88}, {"time": 2939, "pitch": 69, "duration": 12, "velocity": 117}, {"time": 2942, "pitch": 53, "duration": 8, "velocity": 92}, {"time": 2945, "pitch": 65, "duration": 6, "velocity": 93}, {"time": 2948, "pitch": 60, "duration": 4, "velocity": 88}, {"time": 2951, "pitch": 45, "duration": 19, "velocity": 81}, {"time": 2954, "pitch": 52, "duration": 15, "velocity": 72}, {"time": 2957, "pitch": 57, "duration": 8, "velocity": 93}, {"time": 2960, "pitch": 60, "duration": 5, "velocity": 93}, {"time": 2963, "pitch": 69, "duration": 11, "velocity": 122}, {"time": 2966, "pitch": 57, "duration": 2, "velocity": 74}, {"time": 2969, "pitch": 64, "duration": 6, "velocity": 96}, {"time": 2972, "pitch": 60, "duration": 4, "velocity": 102}, {"time": 2975, "pitch": 38, "duration": 17, "velocity": 92}, {"time": 2978, "pitch": 45, "duration": 13, "velocity": 72}, {"time": 2981, "pitch": 50, "duration": 7, "velocity": 88}, {"time": 2984, "pitch": 57, "duration": 6, "velocity": 95}, {"time": 2987, "pitch": 65, "duration": 12, "velocity": 127}, {"time": 2990, "pitch": 50, "duration": 3, "velocity": 85}, {"time": 2993, "pitch": 62, "duration": 6, "velocity": 90}, {"time": 2996, "pitch": 57, "duration": 3, "velocity": 96}, {"time": 2999, "pitch": 45, "duration": 18, "velocity": 71}, {"time": 3002, "pitch": 52, "duration": 16, "velocity": 58}, {"time": 3005, "pitch": 57, "duration": 8, "velocity": 102}, {"time": 3008, "pitch": 64, "duration": 6, "velocity": 93}, {"time": 3011, "pitch": 72, "duration": 11, "velocity": 127}, {"time": 3014, "pitch": 57, "duration": 3, "velocity": 112}, {"time": 3017, "pitch": 69, "duration": 5, "velocity": 96}, {"time": 3020, "pitch": 64, "duration": 4, "velocity": 107}, {"time": 3023, "pitch": 46, "duration": 17, "velocity": 100}, {"time": 3026, "pitch": 58, "duration": 10, "velocity": 93}, {"time": 3029, "pitch": 62, "duration": 8, "velocity": 92}, {"time": 3032, "pitch": 65, "duration": 3, "velocity": 97}, {"time": 3035, "pitch": 70, "duration": 12, "velocity": 127}, {"time": 3038, "pitch": 58, "duration": 2, "velocity": 88}, {"time": 3041, "pitch": 65, "duration": 6, "velocity": 95}, {"time": 3044, "pitch": 62, "duration": 3, "velocity": 96}, {"time": 3047, "pitch": 45, "duration": 11, "velocity": 100}, {"time": 3050, "pitch": 57, "duration": 7, "velocity": 99}, {"time": 3053, "pitch": 60, "duration": 4, "velocity": 89}, {"time": 3056, "pitch": 64, "duration": 2, "velocity": 107}, {"time": 3059, "pitch": 50, "duration": 12, "velocity": 117}, {"time": 3062, "pitch": 57, "duration": 6, "velocity": 88}, {"time": 3065, "pitch": 65, "duration": 5, "velocity": 122}, {"time": 3068, "pitch": 62, "duration": 2, "velocity": 117}, {"time": 3071, "pitch": 43, "duration": 2, "velocity": 79}, {"time": 3071, "pitch": 55, "duration": 5, "velocity": 82}, {"time": 3071, "pitch": 58, "duration": 5, "velocity": 100}, {"time": 3071, "pitch": 62, "duration": 5, "velocity": 89}, {"time": 3083, "pitch": 48, "duration": 4, "velocity": 68}, {"time": 3083, "pitch": 60, "duration": 7, "velocity": 89}, {"time": 3083, "pitch": 64, "duration": 6, "velocity": 95}, {"time": 3083, "pitch": 67, "duration": 6, "velocity": 90}, {"time": 3085, "pitch": 79, "duration": 9, "velocity": 127}, {"time": 3096, "pitch": 77, "duration": 10, "velocity": 127}, {"time": 3096, "pitch": 50, "duration": 12, "velocity": 112}, {"time": 3102, "pitch": 57, "duration": 7, "velocity": 85}, {"time": 3108, "pitch": 48, "duration": 14, "velocity": 90}, {"time": 3108, "pitch": 64, "duration": 5, "velocity": 93}, {"time": 3108, "pitch": 60, "duration": 13, "velocity": 95}, {"time": 3121, "pitch": 59, "duration": 24, "velocity": 72}, {"time": 3121, "pitch": 62, "duration": 24, "velocity": 66}, {"time": 3121, "pitch": 65, "duration": 24, "velocity": 82}, {"time": 3121, "pitch": 47, "duration": 24, "velocity": 107}, {"time": 3135, "pitch": 46, "duration": 10, "velocity": 66}, {"time": 3135, "pitch": 58, "duration": 12, "velocity": 90}, {"time": 3135, "pitch": 65, "duration": 10, "velocity": 71}, {"time": 3135, "pitch": 62, "duration": 10, "velocity": 71}, {"time": 3150, "pitch": 45, "duration": 20, "velocity": 55}, {"time": 3151, "pitch": 60, "duration": 19, "velocity": 74}, {"time": 3151, "pitch": 64, "duration": 19, "velocity": 74}, {"time": 3151, "pitch": 57, "duration": 18, "velocity": 72}, {"time": 3165, "pitch": 65, "duration": 8, "velocity": 79}, {"time": 3165, "pitch": 62, "duration": 7, "velocity": 83}, {"time": 3165, "pitch": 38, "duration": 8, "velocity": 74}, {"time": 3180, "pitch": 58, "duration": 11, "velocity": 79}, {"time": 3180, "pitch": 62, "duration": 11, "velocity": 77}, {"time": 3180, "pitch": 43, "duration": 11, "velocity": 73}, {"time": 3180, "pitch": 55, "duration": 11, "velocity": 79}, {"time": 3189, "pitch": 50, "duration": 1, "velocity": 40}, {"time": 3201, "pitch": 36, "duration": 16, "velocity": 68}, {"time": 3201, "pitch": 55, "duration": 15, "velocity": 70}, {"time": 3201, "pitch": 60, "duration": 15, "velocity": 90}, {"time": 3201, "pitch": 64, "duration": 16, "velocity": 78}, {"time": 3240, "pitch": 41, "duration": 39, "velocity": 88}, {"time": 3244, "pitch": 48, "duration": 34, "velocity": 55}, {"time": 3251, "pitch": 55, "duration": 13, "velocity": 90}, {"time": 3257, "pitch": 53, "duration": 17, "velocity": 63}, {"time": 3264, "pitch": 57, "duration": 6, "velocity": 93}, {"time": 3269, "pitch": 60, "duration": 19, "velocity": 93}, {"time": 3275, "pitch": 65, "duration": 14, "velocity": 100}, {"time": 3281, "pitch": 67, "duration": 8, "velocity": 72}, {"time": 3287, "pitch": 38, "duration": 42, "velocity": 75}, {"time": 3293, "pitch": 45, "duration": 36, "velocity": 86}, {"time": 3299, "pitch": 50, "duration": 32, "velocity": 88}, {"time": 3305, "pitch": 57, "duration": 29, "velocity": 88}, {"time": 3311, "pitch": 62, "duration": 22, "velocity": 95}, {"time": 3317, "pitch": 64, "duration": 7, "velocity": 55}, {"time": 3323, "pitch": 65, "duration": 11, "velocity": 76}, {"time": 3329, "pitch": 64, "duration": 6, "velocity": 54}, {"time": 3335, "pitch": 46, "duration": 17, "velocity": 74}, {"time": 3341, "pitch": 53, "duration": 10, "velocity": 65}, {"time": 3346, "pitch": 58, "duration": 12, "velocity": 100}, {"time": 3352, "pitch": 62, "duration": 4, "velocity": 89}, {"time": 3358, "pitch": 36, "duration": 25, "velocity": 79}, {"time": 3358, "pitch": 60, "duration": 13, "velocity": 78}, {"time": 3358, "pitch": 64, "duration": 14, "velocity": 83}, {"time": 3358, "pitch": 55, "duration": 15, "velocity": 69}, {"time": 3365, "pitch": 43, "duration": 17, "velocity": 43}, {"time": 3372, "pitch": 48, "duration": 4, "velocity": 48}, {"time": 3372, "pitch": 64, "duration": 29, "velocity": 58}, {"time": 3372, "pitch": 60, "duration": 28, "velocity": 83}, {"time": 3379, "pitch": 55, "duration": 20, "velocity": 66}, {"time": 3398, "pitch": 41, "duration": 73, "velocity": 81}, {"time": 3404, "pitch": 48, "duration": 66, "velocity": 54}, {"time": 3408, "pitch": 53, "duration": 62, "velocity": 78}, {"time": 3412, "pitch": 55, "duration": 4, "velocity": 72}, {"time": 3415, "pitch": 57, "duration": 4, "velocity": 72}, {"time": 3418, "pitch": 60, "duration": 2, "velocity": 78}, {"time": 3421, "pitch": 64, "duration": 2, "velocity": 90}, {"time": 3423, "pitch": 65, "duration": 3, "velocity": 83}, {"time": 3426, "pitch": 69, "duration": 1, "velocity": 70}, {"time": 3428, "pitch": 72, "duration": 3, "velocity": 75}, {"time": 3431, "pitch": 76, "duration": 3, "velocity": 60}, {"time": 3434, "pitch": 77, "duration": 1, "velocity": 72}, {"time": 3437, "pitch": 81, "duration": 3, "velocity": 71}, {"time": 3440, "pitch": 84, "duration": 2, "velocity": 66}, {"time": 3443, "pitch": 88, "duration": 1, "velocity": 69}, {"time": 3447, "pitch": 89, "duration": 2, "velocity": 70}, {"time": 3451, "pitch": 93, "duration": 1, "velocity": 66}, {"time": 3455, "pitch": 96, "duration": 1, "velocity": 66}], "annotations": [{"time": 24, "annotation": {"number": 64, "value": 127}, "group": "control_change"}, {"time": 70, "annotation": {"number": 64, "value": 0}, "group": "control_change"}, {"time": 71, "annotation": {"number": 64, "value": 127}, "group": "control_change"}, {"time": 117, "annotation": {"number": 64, "value": 0}, "group": "control_change"}, {"time": 120, "annotation": {"number": 64, "value": 127}, "group": "control_change"}, {"time": 165, "annotation": {"number": 64, "value": 0}, "group": "control_change"}, {"time": 168, "annotation": {"number": 64, "value": 127}, "group": "control_change"}, {"time": 213, "annotation": {"number": 64, "value": 0}, "group": "control_change"}, {"time": 215, "annotation": {"number": 64, "value": 127}, "group": "control_change"}, {"time": 261, "annotation": {"number": 64, "value": 0}, "group": "control_change"}, {"time": 263, "annotation": {"number": 64, "value": 127}, "group": "control_change"}, {"time": 286, "annotation": {"number": 64, "value": 0}, "group": "control_change"}, {"time": 288, "annotation": {"number": 64, "value": 127}, "group": "control_change"}, {"time": 309, "annotation": {"number": 64, "value": 0}, "group": "control_change"}, {"time": 311, "annotation": {"number": 64, "value": 127}, "group": "control_change"}, {"time": 357, "annotation": {"number": 64, "value": 0}, "group": "control_change"}, {"time": 361, "annotation": {"number": 64, "value": 127}, "group": "control_change"}, {"time": 405, "annotation": {"number": 64, "value": 0}, "group": "control_change"}, {"time": 407, "annotation": {"number": 64, "value": 127}, "group": "control_change"}, {"time": 430, "annotation": {"number": 64, "value": 0}, "group": "control_change"}, {"time": 432, "annotation": {"number": 64, "value": 127}, "group": "control_change"}, {"time": 453, "annotation": {"number": 64, "value": 0}, "group": "control_change"}, {"time": 455, "annotation": {"number": 64, "value": 127}, "group": "control_change"}, {"time": 477, "annotation": {"number": 64, "value": 0}, "group": "control_change"}, {"time": 479, "annotation": {"number": 64, "value": 127}, "group": "control_change"}, {"time": 501, "annotation": {"number": 64, "value": 0}, "group": "control_change"}, {"time": 503, "annotation": {"number": 64, "value": 127}, "group": "control_change"}, {"time": 526, "annotation": {"number": 64, "value": 0}, "group": "control_change"}, {"time": 528, "annotation": {"number": 64, "value": 127}, "group": "control_change"}, {"time": 549, "annotation": {"number": 64, "value": 0}, "group": "control_change"}, {"time": 551, "annotation": {"number": 64, "value": 127}, "group": "control_change"}, {"time": 573, "annotation": {"number": 64, "value": 0}, "group": "control_change"}, {"time": 575, "annotation": {"number": 64, "value": 127}, "group": "control_change"}, {"time": 597, "annotation": {"number": 64, "value": 0}, "group": "control_change"}, {"time": 599, "annotation": {"number": 64, "value": 127}, "group": "control_change"}, {"time": 622, "annotation": {"number": 64, "value": 0}, "group": "control_change"}, {"time": 623, "annotation": {"number": 64, "value": 127}, "group": "control_change"}, {"time": 645, "annotation": {"number": 64, "value": 0}, "group": "control_change"}, {"time": 647, "annotation": {"number": 64, "value": 127}, "group": "control_change"}, {"time": 669, "annotation": {"number": 64, "value": 0}, "group": "control_change"}, {"time": 671, "annotation": {"number": 64, "value": 127}, "group": "control_change"}, {"time": 693, "annotation": {"number": 64, "value": 0}, "group": "control_change"}, {"time": 694, "annotation": {"number": 64, "value": 127}, "group": "control_change"}, {"time": 705, "annotation": {"number": 64, "value": 0}, "group": "control_change"}, {"time": 708, "annotation": {"number": 64, "value": 127}, "group": "control_change"}, {"time": 717, "annotation": {"number": 64, "value": 0}, "group": "control_change"}, {"time": 719, "annotation": {"number": 64, "value": 127}, "group": "control_change"}, {"time": 742, "annotation": {"number": 64, "value": 0}, "group": "control_change"}, {"time": 744, "annotation": {"number": 64, "value": 127}, "group": "control_change"}, {"time": 765, "annotation": {"number": 64, "value": 0}, "group": "control_change"}, {"time": 767, "annotation": {"number": 64, "value": 127}, "group": "control_change"}, {"time": 789, "annotation": {"number": 64, "value": 0}, "group": "control_change"}, {"time": 791, "annotation": {"number": 64, "value": 127}, "group": "control_change"}, {"time": 812, "annotation": {"number": 64, "value": 0}, "group": "control_change"}, {"time": 815, "annotation": {"number": 64, "value": 127}, "group": "control_change"}, {"time": 836, "annotation": {"number": 64, "value": 0}, "group": "control_change"}, {"time": 839, "annotation": {"number": 64, "value": 127}, "group": "control_change"}, {"time": 860, "annotation": {"number": 64, "value": 0}, "group": "control_change"}, {"time": 863, "annotation": {"number": 64, "value": 127}, "group": "control_change"}, {"time": 885, "annotation": {"number": 64, "value": 0}, "group": "control_change"}, {"time": 888, "annotation": {"number": 64, "value": 127}, "group": "control_change"}, {"time": 909, "annotation": {"number": 64, "value": 0}, "group": "control_change"}, {"time": 912, "annotation": {"number": 64, "value": 127}, "group": "control_change"}, {"time": 932, "annotation": {"number": 64, "value": 0}, "group": "control_change"}, {"time": 935, "annotation": {"number": 64, "value": 127}, "group": "control_change"}, {"time": 956, "annotation": {"number": 64, "value": 0}, "group": "control_change"}, {"time": 960, "annotation": {"number": 64, "value": 127}, "group": "control_change"}, {"time": 981, "annotation": {"number": 64, "value": 0}, "group": "control_change"}, {"time": 984, "annotation": {"number": 64, "value": 127}, "group": "control_change"}, {"time": 1005, "annotation": {"number": 64, "value": 0}, "group": "control_change"}, {"time": 1007, "annotation": {"number": 64, "value": 127}, "group": "control_change"}, {"time": 1028, "annotation": {"number": 64, "value": 0}, "group": "control_change"}, {"time": 1031, "annotation": {"number": 64, "value": 127}, "group": "control_change"}, {"time": 1053, "annotation": {"number": 64, "value": 0}, "group": "control_change"}, {"time": 1056, "annotation": {"number": 64, "value": 127}, "group": "control_change"}, {"time": 1065, "annotation": {"number": 64, "value": 0}, "group": "control_change"}, {"time": 1067, "annotation": {"number": 64, "value": 127}, "group": "control_change"}, {"time": 1078, "annotation": {"number": 64, "value": 0}, "group": "control_change"}, {"time": 1080, "annotation": {"number": 64, "value": 127}, "group": "control_change"}, {"time": 1101, "annotation": {"number": 64, "value": 0}, "group": "control_change"}, {"time": 1103, "annotation": {"number": 64, "value": 127}, "group": "control_change"}, {"time": 1125, "annotation": {"number": 64, "value": 0}, "group": "control_change"}, {"time": 1127, "annotation": {"number": 64, "value": 127}, "group": "control_change"}, {"time": 1148, "annotation": {"number": 64, "value": 0}, "group": "control_change"}, {"time": 1151, "annotation": {"number": 64, "value": 127}, "group": "control_change"}, {"time": 1173, "annotation": {"number": 64, "value": 0}, "group": "control_change"}, {"time": 1175, "annotation": {"number": 64, "value": 127}, "group": "control_change"}, {"time": 1197, "annotation": {"number": 64, "value": 0}, "group": "control_change"}, {"time": 1199, "annotation": {"number": 64, "value": 127}, "group": "control_change"}, {"time": 1221, "annotation": {"number": 64, "value": 0}, "group": "control_change"}, {"time": 1223, "annotation": {"number": 64, "value": 127}, "group": "control_change"}, {"time": 1245, "annotation": {"number": 64, "value": 0}, "group": "control_change"}, {"time": 1247, "annotation": {"number": 64, "value": 127}, "group": "control_change"}, {"time": 1248, "annotation": {"number": 64, "value": 127}, "group": "control_change"}, {"time": 1258, "annotation": {"number": 64, "value": 0}, "group": "control_change"}, {"time": 1260, "annotation": {"number": 64, "value": 127}, "group": "control_change"}, {"time": 1269, "annotation": {"number": 64, "value": 0}, "group": "control_change"}, {"time": 1271, "annotation": {"number": 64, "value": 127}, "group": "control_change"}, {"time": 1282, "annotation": {"number": 64, "value": 0}, "group": "control_change"}, {"time": 1285, "annotation": {"number": 64, "value": 127}, "group": "control_change"}, {"time": 1294, "annotation": {"number": 64, "value": 0}, "group": "control_change"}, {"time": 1296, "annotation": {"number": 64, "value": 127}, "group": "control_change"}, {"time": 1321, "annotation": {"number": 64, "value": 127}, "group": "control_change"}, {"time": 1365, "annotation": {"number": 64, "value": 0}, "group": "control_change"}, {"time": 1368, "annotation": {"number": 64, "value": 127}, "group": "control_change"}, {"time": 1414, "annotation": {"number": 64, "value": 0}, "group": "control_change"}, {"time": 1416, "annotation": {"number": 64, "value": 127}, "group": "control_change"}, {"time": 1438, "annotation": {"number": 64, "value": 0}, "group": "control_change"}, {"time": 1440, "annotation": {"number": 64, "value": 127}, "group": "control_change"}, {"time": 1461, "annotation": {"number": 64, "value": 0}, "group": "control_change"}, {"time": 1464, "annotation": {"number": 64, "value": 127}, "group": "control_change"}, {"time": 1483, "annotation": {"number": 64, "value": 0}, "group": "control_change"}, {"time": 1483, "annotation": {"number": 64, "value": 127}, "group": "control_change"}, {"time": 1489, "annotation": {"number": 64, "value": 127}, "group": "control_change"}, {"time": 1510, "annotation": {"number": 64, "value": 0}, "group": "control_change"}, {"time": 1513, "annotation": {"number": 64, "value": 127}, "group": "control_change"}, {"time": 1523, "annotation": {"number": 64, "value": 0}, "group": "control_change"}, {"time": 1524, "annotation": {"number": 64, "value": 127}, "group": "control_change"}, {"time": 1531, "annotation": {"number": 64, "value": 0}, "group": "control_change"}, {"time": 1535, "annotation": {"number": 64, "value": 127}, "group": "control_change"}, {"time": 1557, "annotation": {"number": 64, "value": 0}, "group": "control_change"}, {"time": 1560, "annotation": {"number": 64, "value": 127}, "group": "control_change"}, {"time": 1579, "annotation": {"number": 64, "value": 0}, "group": "control_change"}, {"time": 1583, "annotation": {"number": 64, "value": 127}, "group": "control_change"}, {"time": 1605, "annotation": {"number": 64, "value": 0}, "group": "control_change"}, {"time": 1608, "annotation": {"number": 64, "value": 127}, "group": "control_change"}, {"time": 1628, "annotation": {"number": 64, "value": 0}, "group": "control_change"}, {"time": 1632, "annotation": {"number": 64, "value": 127}, "group": "control_change"}, {"time": 1654, "annotation": {"number": 64, "value": 0}, "group": "control_change"}, {"time": 1668, "annotation": {"number": 64, "value": 127}, "group": "control_change"}, {"time": 1703, "annotation": {"number": 64, "value": 0}, "group": "control_change"}, {"time": 1705, "annotation": {"number": 64, "value": 127}, "group": "control_change"}, {"time": 1749, "annotation": {"number": 64, "value": 0}, "group": "control_change"}, {"time": 1751, "annotation": {"number": 64, "value": 127}, "group": "control_change"}, {"time": 1774, "annotation": {"number": 64, "value": 0}, "group": "control_change"}, {"time": 1776, "annotation": {"number": 64, "value": 127}, "group": "control_change"}, {"time": 1797, "annotation": {"number": 64, "value": 0}, "group": "control_change"}, {"time": 1799, "annotation": {"number": 64, "value": 127}, "group": "control_change"}, {"time": 1821, "annotation": {"number": 64, "value": 0}, "group": "control_change"}, {"time": 1823, "annotation": {"number": 64, "value": 127}, "group": "control_change"}, {"time": 1845, "annotation": {"number": 64, "value": 0}, "group": "control_change"}, {"time": 1847, "annotation": {"number": 64, "value": 127}, "group": "control_change"}, {"time": 1870, "annotation": {"number": 64, "value": 0}, "group": "control_change"}, {"time": 1872, "annotation": {"number": 64, "value": 127}, "group": "control_change"}, {"time": 1893, "annotation": {"number": 64, "value": 0}, "group": "control_change"}, {"time": 1895, "annotation": {"number": 64, "value": 127}, "group": "control_change"}, {"time": 1917, "annotation": {"number": 64, "value": 0}, "group": "control_change"}, {"time": 1919, "annotation": {"number": 64, "value": 127}, "group": "control_change"}, {"time": 1941, "annotation": {"number": 64, "value": 0}, "group": "control_change"}, {"time": 1943, "annotation": {"number": 64, "value": 127}, "group": "control_change"}, {"time": 1966, "annotation": {"number": 64, "value": 0}, "group": "control_change"}, {"time": 1967, "annotation": {"number": 64, "value": 127}, "group": "control_change"}, {"time": 1989, "annotation": {"number": 64, "value": 0}, "group": "control_change"}, {"time": 1991, "annotation": {"number": 64, "value": 127}, "group": "control_change"}, {"time": 2013, "annotation": {"number": 64, "value": 0}, "group": "control_change"}, {"time": 2015, "annotation": {"number": 64, "value": 127}, "group": "control_change"}, {"time": 2037, "annotation": {"number": 64, "value": 0}, "group": "control_change"}, {"time": 2038, "annotation": {"number": 64, "value": 127}, "group": "control_change"}, {"time": 2049, "annotation": {"number": 64, "value": 0}, "group": "control_change"}, {"time": 2052, "annotation": {"number": 64, "value": 127}, "group": "control_change"}, {"time": 2061, "annotation": {"number": 64, "value": 0}, "group": "control_change"}, {"time": 2063, "annotation": {"number": 64, "value": 127}, "group": "control_change"}, {"time": 2086, "annotation": {"number": 64, "value": 0}, "group": "control_change"}, {"time": 2088, "annotation": {"number": 64, "value": 127}, "group": "control_change"}, {"time": 2109, "annotation": {"number": 64, "value": 0}, "group": "control_change"}, {"time": 2111, "annotation": {"number": 64, "value": 127}, "group": "control_change"}, {"time": 2133, "annotation": {"number": 64, "value": 0}, "group": "control_change"}, {"time": 2135, "annotation": {"number": 64, "value": 127}, "group": "control_change"}, {"time": 2156, "annotation": {"number": 64, "value": 0}, "group": "control_change"}, {"time": 2159, "annotation": {"number": 64, "value": 127}, "group": "control_change"}, {"time": 2180, "annotation": {"number": 64, "value": 0}, "group": "control_change"}, {"time": 2183, "annotation": {"number": 64, "value": 127}, "group": "control_change"}, {"time": 2204, "annotation": {"number": 64, "value": 0}, "group": "control_change"}, {"time": 2207, "annotation": {"number": 64, "value": 127}, "group": "control_change"}, {"time": 2229, "annotation": {"number": 64, "value": 0}, "group": "control_change"}, {"time": 2232, "annotation": {"number": 64, "value": 127}, "group": "control_change"}, {"time": 2253, "annotation": {"number": 64, "value": 0}, "group": "control_change"}, {"time": 2256, "annotation": {"number": 64, "value": 127}, "group": "control_change"}, {"time": 2276, "annotation": {"number": 64, "value": 0}, "group": "control_change"}, {"time": 2279, "annotation": {"number": 64, "value": 127}, "group": "control_change"}, {"time": 2300, "annotation": {"number": 64, "value": 0}, "group": "control_change"}, {"time": 2304, "annotation": {"number": 64, "value": 127}, "group": "control_change"}, {"time": 2325, "annotation": {"number": 64, "value": 0}, "group": "control_change"}, {"time": 2328, "annotation": {"number": 64, "value": 127}, "group": "control_change"}, {"time": 2349, "annotation": {"number": 64, "value": 0}, "group": "control_change"}, {"time": 2351, "annotation": {"number": 64, "value": 127}, "group": "control_change"}, {"time": 2372, "annotation": {"number": 64, "value": 0}, "group": "control_change"}, {"time": 2375, "annotation": {"number": 64, "value": 127}, "group": "control_change"}, {"time": 2397, "annotation": {"number": 64, "value": 0}, "group": "control_change"}, {"time": 2400, "annotation": {"number": 64, "value": 127}, "group": "control_change"}, {"time": 2409, "annotation": {"number": 64, "value": 0}, "group": "control_change"}, {"time": 2411, "annotation": {"number": 64, "value": 127}, "group": "control_change"}, {"time": 2422, "annotation": {"number": 64, "value": 0}, "group": "control_change"}, {"time": 2424, "annotation": {"number": 64, "value": 127}, "group": "control_change"}, {"time": 2445, "annotation": {"number": 64, "value": 0}, "group": "control_change"}, {"time": 2447, "annotation": {"number": 64, "value": 127}, "group": "control_change"}, {"time": 2469, "annotation": {"number": 64, "value": 0}, "group": "control_change"}, {"time": 2471, "annotation": {"number": 64, "value": 127}, "group": "control_change"}, {"time": 2492, "annotation": {"number": 64, "value": 0}, "group": "control_change"}, {"time": 2495, "annotation": {"number": 64, "value": 127}, "group": "control_change"}, {"time": 2517, "annotation": {"number": 64, "value": 0}, "group": "control_change"}, {"time": 2519, "annotation": {"number": 64, "value": 127}, "group": "control_change"}, {"time": 2541, "annotation": {"number": 64, "value": 0}, "group": "control_change"}, {"time": 2543, "annotation": {"number": 64, "value": 127}, "group": "control_change"}, {"time": 2565, "annotation": {"number": 64, "value": 0}, "group": "control_change"}, {"time": 2567, "annotation": {"number": 64, "value": 127}, "group": "control_change"}, {"time": 2589, "annotation": {"number": 64, "value": 0}, "group": "control_change"}, {"time": 2591, "annotation": {"number": 64, "value": 127}, "group": "control_change"}, {"time": 2592, "annotation": {"number": 64, "value": 127}, "group": "control_change"}, {"time": 2602, "annotation": {"number": 64, "value": 0}, "group": "control_change"}, {"time": 2604, "annotation": {"number": 64, "value": 127}, "group": "control_change"}, {"time": 2613, "annotation": {"number": 64, "value": 0}, "group": "control_change"}, {"time": 2615, "annotation": {"number": 64, "value": 127}, "group": "control_change"}, {"time": 2626, "annotation": {"number": 64, "value": 0}, "group": "control_change"}, {"time": 2629, "annotation": {"number": 64, "value": 127}, "group": "control_change"}, {"time": 2638, "annotation": {"number": 64, "value": 0}, "group": "control_change"}, {"time": 2640, "annotation": {"number": 64, "value": 127}, "group": "control_change"}, {"time": 2662, "annotation": {"number": 64, "value": 0}, "group": "control_change"}, {"time": 2664, "annotation": {"number": 64, "value": 127}, "group": "control_change"}, {"time": 2673, "annotation": {"number": 64, "value": 0}, "group": "control_change"}, {"time": 2676, "annotation": {"number": 64, "value": 127}, "group": "control_change"}, {"time": 2686, "annotation": {"number": 64, "value": 0}, "group": "control_change"}, {"time": 2688, "annotation": {"number": 64, "value": 127}, "group": "control_change"}, {"time": 2710, "annotation": {"number": 64, "value": 0}, "group": "control_change"}, {"time": 2713, "annotation": {"number": 64, "value": 127}, "group": "control_change"}, {"time": 2723, "annotation": {"number": 64, "value": 0}, "group": "control_change"}, {"time": 2756, "annotation": {"number": 64, "value": 0}, "group": "control_change"}, {"time": 2760, "annotation": {"number": 64, "value": 127}, "group": "control_change"}, {"time": 2781, "annotation": {"number": 64, "value": 0}, "group": "control_change"}, {"time": 2784, "annotation": {"number": 64, "value": 127}, "group": "control_change"}, {"time": 2805, "annotation": {"number": 64, "value": 0}, "group": "control_change"}, {"time": 2807, "annotation": {"number": 64, "value": 127}, "group": "control_change"}, {"time": 2828, "annotation": {"number": 64, "value": 0}, "group": "control_change"}, {"time": 2831, "annotation": {"number": 64, "value": 127}, "group": "control_change"}, {"time": 2853, "annotation": {"number": 64, "value": 0}, "group": "control_change"}, {"time": 2856, "annotation": {"number": 64, "value": 127}, "group": "control_change"}, {"time": 2865, "annotation": {"number": 64, "value": 0}, "group": "control_change"}, {"time": 2867, "annotation": {"number": 64, "value": 127}, "group": "control_change"}, {"time": 2878, "annotation": {"number": 64, "value": 0}, "group": "control_change"}, {"time": 2880, "annotation": {"number": 64, "value": 127}, "group": "control_change"}, {"time": 2901, "annotation": {"number": 64, "value": 0}, "group": "control_change"}, {"time": 2903, "annotation": {"number": 64, "value": 127}, "group": "control_change"}, {"time": 2925, "annotation": {"number": 64, "value": 0}, "group": "control_change"}, {"time": 2927, "annotation": {"number": 64, "value": 127}, "group": "control_change"}, {"time": 2948, "annotation": {"number": 64, "value": 0}, "group": "control_change"}, {"time": 2951, "annotation": {"number": 64, "value": 127}, "group": "control_change"}, {"time": 2973, "annotation": {"number": 64, "value": 0}, "group": "control_change"}, {"time": 2975, "annotation": {"number": 64, "value": 127}, "group": "control_change"}, {"time": 2997, "annotation": {"number": 64, "value": 0}, "group": "control_change"}, {"time": 2999, "annotation": {"number": 64, "value": 127}, "group": "control_change"}, {"time": 3021, "annotation": {"number": 64, "value": 0}, "group": "control_change"}, {"time": 3023, "annotation": {"number": 64, "value": 127}, "group": "control_change"}, {"time": 3045, "annotation": {"number": 64, "value": 0}, "group": "control_change"}, {"time": 3047, "annotation": {"number": 64, "value": 127}, "group": "control_change"}, {"time": 3048, "annotation": {"number": 64, "value": 127}, "group": "control_change"}, {"time": 3058, "annotation": {"number": 64, "value": 0}, "group": "control_change"}, {"time": 3060, "annotation": {"number": 64, "value": 127}, "group": "control_change"}, {"time": 3069, "annotation": {"number": 64, "value": 0}, "group": "control_change"}, {"time": 3071, "annotation": {"number": 64, "value": 127}, "group": "control_change"}, {"time": 3083, "annotation": {"number": 64, "value": 0}, "group": "control_change"}, {"time": 3086, "annotation": {"number": 64, "value": 127}, "group": "control_change"}, {"time": 3094, "annotation": {"number": 64, "value": 0}, "group": "control_change"}, {"time": 3097, "annotation": {"number": 64, "value": 127}, "group": "control_change"}, {"time": 3107, "annotation": {"number": 64, "value": 0}, "group": "control_change"}, {"time": 3109, "annotation": {"number": 64, "value": 127}, "group": "control_change"}, {"time": 3117, "annotation": {"number": 64, "value": 0}, "group": "control_change"}, {"time": 3141, "annotation": {"number": 64, "value": 127}, "group": "control_change"}, {"time": 3151, "annotation": {"number": 64, "value": 0}, "group": "control_change"}, {"time": 3167, "annotation": {"number": 64, "value": 127}, "group": "control_change"}, {"time": 3178, "annotation": {"number": 64, "value": 0}, "group": "control_change"}, {"time": 3188, "annotation": {"number": 64, "value": 127}, "group": "control_change"}, {"time": 3201, "annotation": {"number": 64, "value": 0}, "group": "control_change"}, {"time": 3214, "annotation": {"number": 64, "value": 127}, "group": "control_change"}, {"time": 3234, "annotation": {"number": 64, "value": 0}, "group": "control_change"}, {"time": 3241, "annotation": {"number": 64, "value": 127}, "group": "control_change"}, {"time": 3286, "annotation": {"number": 64, "value": 0}, "group": "control_change"}, {"time": 3288, "annotation": {"number": 64, "value": 127}, "group": "control_change"}, {"time": 3334, "annotation": {"number": 64, "value": 0}, "group": "control_change"}, {"time": 3335, "annotation": {"number": 64, "value": 127}, "group": "control_change"}, {"time": 3336, "annotation": {"number": 64, "value": 127}, "group": "control_change"}, {"time": 3357, "annotation": {"number": 64, "value": 0}, "group": "control_change"}, {"time": 3365, "annotation": {"number": 64, "value": 0}, "group": "control_change"}, {"time": 3366, "annotation": {"number": 64, "value": 127}, "group": "control_change"}, {"time": 3398, "annotation": {"number": 64, "value": 0}, "group": "control_change"}, {"time": 3402, "annotation": {"number": 64, "value": 127}, "group": "control_change"}, {"time": 3478, "annotation": {"number": 64, "value": 0}, "group": "control_change"}, {"time": 3479, "annotation": {"number": 64, "value": 127}, "group": "control_change"}, {"time": 3480, "annotation": {"number": 64, "value": 0}, "group": "control_change"}, {"time": 3480, "annotation": {"number": 64, "value": 127}, "group": "control_change"}, {"time": 3483, "annotation": {"number": 64, "value": 0}, "group": "control_change"}]}]}