{"metadata": {"schema_version": "0.2", "title": "None", "source_filename": "376.mid", "source_format": "midi"}, "resolution": 12, "tempos": [{"time": 0, "qpm": 64.99999458333379}], "time_signatures": [{"time": 0, "numerator": 1, "denominator": 4}], "tracks": [{"program": 0, "is_drum": false, "name": "MELODY", "notes": [{"time": 444, "pitch": 61, "duration": 2, "velocity": 107}, {"time": 447, "pitch": 70, "duration": 2, "velocity": 97}, {"time": 450, "pitch": 68, "duration": 2, "velocity": 127}, {"time": 456, "pitch": 61, "duration": 3, "velocity": 79}, {"time": 459, "pitch": 70, "duration": 2, "velocity": 102}, {"time": 462, "pitch": 68, "duration": 6, "velocity": 112}, {"time": 477, "pitch": 73, "duration": 9, "velocity": 127}, {"time": 489, "pitch": 66, "duration": 8, "velocity": 112}, {"time": 498, "pitch": 63, "duration": 34, "velocity": 117}, {"time": 540, "pitch": 61, "duration": 2, "velocity": 95}, {"time": 543, "pitch": 70, "duration": 2, "velocity": 85}, {"time": 546, "pitch": 68, "duration": 4, "velocity": 117}, {"time": 552, "pitch": 61, "duration": 2, "velocity": 88}, {"time": 555, "pitch": 70, "duration": 2, "velocity": 95}, {"time": 558, "pitch": 68, "duration": 10, "velocity": 112}, {"time": 573, "pitch": 65, "duration": 3, "velocity": 99}, {"time": 576, "pitch": 66, "duration": 7, "velocity": 102}, {"time": 585, "pitch": 73, "duration": 40, "velocity": 127}, {"time": 630, "pitch": 66, "duration": 2, "velocity": 102}, {"time": 633, "pitch": 73, "duration": 14, "velocity": 99}, {"time": 648, "pitch": 75, "duration": 8, "velocity": 127}, {"time": 657, "pitch": 68, "duration": 18, "velocity": 107}, {"time": 681, "pitch": 68, "duration": 4, "velocity": 107}, {"time": 687, "pitch": 66, "duration": 1, "velocity": 107}, {"time": 690, "pitch": 68, "duration": 4, "velocity": 112}, {"time": 696, "pitch": 70, "duration": 7, "velocity": 117}, {"time": 705, "pitch": 66, "duration": 11, "velocity": 107}, {"time": 729, "pitch": 71, "duration": 3, "velocity": 102}, {"time": 735, "pitch": 70, "duration": 2, "velocity": 102}, {"time": 738, "pitch": 71, "duration": 3, "velocity": 99}, {"time": 744, "pitch": 78, "duration": 5, "velocity": 112}, {"time": 753, "pitch": 71, "duration": 7, "velocity": 107}, {"time": 762, "pitch": 70, "duration": 5, "velocity": 127}, {"time": 771, "pitch": 66, "duration": 2, "velocity": 97}, {"time": 774, "pitch": 68, "duration": 12, "velocity": 117}, {"time": 828, "pitch": 61, "duration": 2, "velocity": 107}, {"time": 831, "pitch": 70, "duration": 2, "velocity": 97}, {"time": 834, "pitch": 68, "duration": 2, "velocity": 127}, {"time": 840, "pitch": 61, "duration": 3, "velocity": 79}, {"time": 843, "pitch": 70, "duration": 2, "velocity": 102}, {"time": 846, "pitch": 68, "duration": 6, "velocity": 112}, {"time": 861, "pitch": 73, "duration": 9, "velocity": 127}, {"time": 873, "pitch": 66, "duration": 8, "velocity": 112}, {"time": 882, "pitch": 63, "duration": 34, "velocity": 117}, {"time": 924, "pitch": 61, "duration": 2, "velocity": 95}, {"time": 927, "pitch": 70, "duration": 2, "velocity": 85}, {"time": 930, "pitch": 68, "duration": 4, "velocity": 117}, {"time": 936, "pitch": 61, "duration": 2, "velocity": 88}, {"time": 939, "pitch": 70, "duration": 2, "velocity": 95}, {"time": 942, "pitch": 68, "duration": 10, "velocity": 112}, {"time": 954, "pitch": 61, "duration": 2, "velocity": 102}, {"time": 957, "pitch": 73, "duration": 3, "velocity": 100}, {"time": 960, "pitch": 71, "duration": 2, "velocity": 95}, {"time": 966, "pitch": 70, "duration": 2, "velocity": 100}, {"time": 968, "pitch": 71, "duration": 2, "velocity": 77}, {"time": 970, "pitch": 70, "duration": 18, "velocity": 122}, {"time": 1014, "pitch": 66, "duration": 2, "velocity": 102}, {"time": 1017, "pitch": 73, "duration": 14, "velocity": 99}, {"time": 1032, "pitch": 75, "duration": 8, "velocity": 127}, {"time": 1041, "pitch": 68, "duration": 18, "velocity": 107}, {"time": 1065, "pitch": 68, "duration": 4, "velocity": 107}, {"time": 1071, "pitch": 66, "duration": 1, "velocity": 107}, {"time": 1074, "pitch": 68, "duration": 4, "velocity": 112}, {"time": 1080, "pitch": 70, "duration": 7, "velocity": 117}, {"time": 1089, "pitch": 66, "duration": 11, "velocity": 107}, {"time": 1107, "pitch": 68, "duration": 1, "velocity": 122}, {"time": 1110, "pitch": 70, "duration": 1, "velocity": 112}, {"time": 1113, "pitch": 71, "duration": 4, "velocity": 112}, {"time": 1119, "pitch": 71, "duration": 5, "velocity": 117}, {"time": 1125, "pitch": 68, "duration": 5, "velocity": 122}, {"time": 1131, "pitch": 66, "duration": 3, "velocity": 112}, {"time": 1137, "pitch": 63, "duration": 4, "velocity": 122}, {"time": 1143, "pitch": 66, "duration": 2, "velocity": 112}, {"time": 1149, "pitch": 66, "duration": 4, "velocity": 117}, {"time": 1155, "pitch": 68, "duration": 1, "velocity": 99}, {"time": 1158, "pitch": 68, "duration": 6, "velocity": 127}, {"time": 1164, "pitch": 66, "duration": 24, "velocity": 107}, {"time": 1197, "pitch": 78, "duration": 1, "velocity": 127}, {"time": 1200, "pitch": 77, "duration": 1, "velocity": 112}, {"time": 1203, "pitch": 78, "duration": 2, "velocity": 127}, {"time": 1206, "pitch": 77, "duration": 1, "velocity": 100}, {"time": 1209, "pitch": 73, "duration": 3, "velocity": 122}, {"time": 1215, "pitch": 70, "duration": 1, "velocity": 127}, {"time": 1218, "pitch": 70, "duration": 1, "velocity": 102}, {"time": 1221, "pitch": 70, "duration": 1, "velocity": 122}, {"time": 1224, "pitch": 68, "duration": 2, "velocity": 112}, {"time": 1230, "pitch": 70, "duration": 11, "velocity": 127}, {"time": 1245, "pitch": 78, "duration": 2, "velocity": 127}, {"time": 1248, "pitch": 77, "duration": 3, "velocity": 83}, {"time": 1251, "pitch": 78, "duration": 3, "velocity": 127}, {"time": 1254, "pitch": 77, "duration": 2, "velocity": 92}, {"time": 1257, "pitch": 73, "duration": 3, "velocity": 122}, {"time": 1263, "pitch": 70, "duration": 1, "velocity": 127}, {"time": 1266, "pitch": 70, "duration": 1, "velocity": 107}, {"time": 1269, "pitch": 70, "duration": 1, "velocity": 117}, {"time": 1272, "pitch": 68, "duration": 2, "velocity": 117}, {"time": 1278, "pitch": 70, "duration": 11, "velocity": 127}, {"time": 1299, "pitch": 73, "duration": 1, "velocity": 127}, {"time": 1302, "pitch": 73, "duration": 1, "velocity": 107}, {"time": 1305, "pitch": 75, "duration": 4, "velocity": 127}, {"time": 1311, "pitch": 73, "duration": 1, "velocity": 112}, {"time": 1314, "pitch": 73, "duration": 6, "velocity": 122}, {"time": 1326, "pitch": 73, "duration": 1, "velocity": 112}, {"time": 1329, "pitch": 75, "duration": 4, "velocity": 112}, {"time": 1335, "pitch": 73, "duration": 4, "velocity": 127}, {"time": 1341, "pitch": 66, "duration": 1, "velocity": 107}, {"time": 1344, "pitch": 73, "duration": 4, "velocity": 107}, {"time": 1350, "pitch": 70, "duration": 3, "velocity": 107}, {"time": 1353, "pitch": 68, "duration": 26, "velocity": 122}, {"time": 1389, "pitch": 78, "duration": 1, "velocity": 127}, {"time": 1392, "pitch": 77, "duration": 1, "velocity": 97}, {"time": 1395, "pitch": 78, "duration": 2, "velocity": 117}, {"time": 1398, "pitch": 77, "duration": 1, "velocity": 95}, {"time": 1401, "pitch": 73, "duration": 6, "velocity": 127}, {"time": 1407, "pitch": 70, "duration": 1, "velocity": 127}, {"time": 1410, "pitch": 70, "duration": 1, "velocity": 112}, {"time": 1413, "pitch": 70, "duration": 1, "velocity": 122}, {"time": 1416, "pitch": 68, "duration": 3, "velocity": 122}, {"time": 1422, "pitch": 70, "duration": 7, "velocity": 127}, {"time": 1437, "pitch": 78, "duration": 2, "velocity": 127}, {"time": 1440, "pitch": 77, "duration": 2, "velocity": 99}, {"time": 1443, "pitch": 78, "duration": 2, "velocity": 122}, {"time": 1446, "pitch": 77, "duration": 1, "velocity": 96}, {"time": 1449, "pitch": 73, "duration": 4, "velocity": 127}, {"time": 1455, "pitch": 70, "duration": 3, "velocity": 127}, {"time": 1461, "pitch": 70, "duration": 1, "velocity": 127}, {"time": 1464, "pitch": 68, "duration": 3, "velocity": 127}, {"time": 1470, "pitch": 70, "duration": 10, "velocity": 127}, {"time": 1494, "pitch": 73, "duration": 1, "velocity": 117}, {"time": 1497, "pitch": 75, "duration": 5, "velocity": 127}, {"time": 1503, "pitch": 73, "duration": 1, "velocity": 112}, {"time": 1506, "pitch": 73, "duration": 8, "velocity": 122}, {"time": 1518, "pitch": 73, "duration": 1, "velocity": 122}, {"time": 1521, "pitch": 75, "duration": 5, "velocity": 122}, {"time": 1527, "pitch": 73, "duration": 3, "velocity": 127}, {"time": 1533, "pitch": 70, "duration": 2, "velocity": 127}, {"time": 1539, "pitch": 73, "duration": 1, "velocity": 112}, {"time": 1542, "pitch": 68, "duration": 6, "velocity": 117}, {"time": 1551, "pitch": 66, "duration": 19, "velocity": 117}, {"time": 1596, "pitch": 61, "duration": 2, "velocity": 107}, {"time": 1599, "pitch": 70, "duration": 2, "velocity": 97}, {"time": 1602, "pitch": 68, "duration": 2, "velocity": 127}, {"time": 1608, "pitch": 61, "duration": 3, "velocity": 79}, {"time": 1611, "pitch": 70, "duration": 2, "velocity": 102}, {"time": 1614, "pitch": 68, "duration": 6, "velocity": 112}, {"time": 1629, "pitch": 73, "duration": 9, "velocity": 127}, {"time": 1641, "pitch": 66, "duration": 8, "velocity": 112}, {"time": 1650, "pitch": 63, "duration": 34, "velocity": 117}, {"time": 1692, "pitch": 61, "duration": 2, "velocity": 95}, {"time": 1695, "pitch": 70, "duration": 2, "velocity": 85}, {"time": 1698, "pitch": 68, "duration": 4, "velocity": 117}, {"time": 1704, "pitch": 61, "duration": 2, "velocity": 88}, {"time": 1707, "pitch": 70, "duration": 2, "velocity": 95}, {"time": 1710, "pitch": 68, "duration": 10, "velocity": 112}, {"time": 1722, "pitch": 61, "duration": 2, "velocity": 107}, {"time": 1725, "pitch": 73, "duration": 1, "velocity": 107}, {"time": 1728, "pitch": 71, "duration": 2, "velocity": 90}, {"time": 1731, "pitch": 70, "duration": 2, "velocity": 127}, {"time": 1734, "pitch": 71, "duration": 3, "velocity": 95}, {"time": 1737, "pitch": 70, "duration": 22, "velocity": 122}, {"time": 1782, "pitch": 66, "duration": 2, "velocity": 102}, {"time": 1785, "pitch": 73, "duration": 14, "velocity": 99}, {"time": 1800, "pitch": 75, "duration": 8, "velocity": 127}, {"time": 1809, "pitch": 68, "duration": 18, "velocity": 107}, {"time": 1833, "pitch": 68, "duration": 7, "velocity": 127}, {"time": 1845, "pitch": 73, "duration": 2, "velocity": 117}, {"time": 1851, "pitch": 65, "duration": 1, "velocity": 93}, {"time": 1854, "pitch": 68, "duration": 6, "velocity": 117}, {"time": 1860, "pitch": 66, "duration": 15, "velocity": 97}, {"time": 1875, "pitch": 68, "duration": 1, "velocity": 117}, {"time": 1878, "pitch": 70, "duration": 1, "velocity": 112}, {"time": 1881, "pitch": 71, "duration": 3, "velocity": 112}, {"time": 1887, "pitch": 70, "duration": 3, "velocity": 127}, {"time": 1893, "pitch": 68, "duration": 3, "velocity": 127}, {"time": 1899, "pitch": 66, "duration": 3, "velocity": 97}, {"time": 1905, "pitch": 63, "duration": 4, "velocity": 127}, {"time": 1911, "pitch": 66, "duration": 3, "velocity": 122}, {"time": 1917, "pitch": 66, "duration": 3, "velocity": 127}, {"time": 1923, "pitch": 68, "duration": 1, "velocity": 112}, {"time": 1926, "pitch": 68, "duration": 3, "velocity": 127}, {"time": 1932, "pitch": 66, "duration": 23, "velocity": 127}, {"time": 2349, "pitch": 78, "duration": 1, "velocity": 127}, {"time": 2352, "pitch": 77, "duration": 1, "velocity": 112}, {"time": 2355, "pitch": 78, "duration": 2, "velocity": 127}, {"time": 2358, "pitch": 77, "duration": 1, "velocity": 100}, {"time": 2361, "pitch": 73, "duration": 3, "velocity": 122}, {"time": 2367, "pitch": 70, "duration": 1, "velocity": 127}, {"time": 2370, "pitch": 70, "duration": 1, "velocity": 102}, {"time": 2373, "pitch": 70, "duration": 1, "velocity": 122}, {"time": 2376, "pitch": 68, "duration": 2, "velocity": 112}, {"time": 2382, "pitch": 70, "duration": 11, "velocity": 127}, {"time": 2397, "pitch": 78, "duration": 2, "velocity": 127}, {"time": 2400, "pitch": 77, "duration": 3, "velocity": 83}, {"time": 2403, "pitch": 78, "duration": 3, "velocity": 127}, {"time": 2406, "pitch": 77, "duration": 2, "velocity": 92}, {"time": 2409, "pitch": 73, "duration": 3, "velocity": 122}, {"time": 2415, "pitch": 70, "duration": 1, "velocity": 127}, {"time": 2418, "pitch": 70, "duration": 1, "velocity": 107}, {"time": 2421, "pitch": 70, "duration": 1, "velocity": 117}, {"time": 2424, "pitch": 68, "duration": 2, "velocity": 117}, {"time": 2430, "pitch": 70, "duration": 11, "velocity": 127}, {"time": 2451, "pitch": 73, "duration": 1, "velocity": 127}, {"time": 2454, "pitch": 73, "duration": 1, "velocity": 107}, {"time": 2457, "pitch": 75, "duration": 4, "velocity": 127}, {"time": 2463, "pitch": 73, "duration": 1, "velocity": 112}, {"time": 2466, "pitch": 73, "duration": 6, "velocity": 122}, {"time": 2478, "pitch": 73, "duration": 1, "velocity": 112}, {"time": 2481, "pitch": 75, "duration": 4, "velocity": 112}, {"time": 2487, "pitch": 73, "duration": 4, "velocity": 127}, {"time": 2493, "pitch": 66, "duration": 1, "velocity": 107}, {"time": 2496, "pitch": 73, "duration": 4, "velocity": 107}, {"time": 2502, "pitch": 70, "duration": 3, "velocity": 107}, {"time": 2505, "pitch": 68, "duration": 26, "velocity": 122}, {"time": 2541, "pitch": 78, "duration": 1, "velocity": 127}, {"time": 2544, "pitch": 77, "duration": 1, "velocity": 97}, {"time": 2547, "pitch": 78, "duration": 2, "velocity": 117}, {"time": 2550, "pitch": 77, "duration": 1, "velocity": 95}, {"time": 2553, "pitch": 73, "duration": 6, "velocity": 127}, {"time": 2559, "pitch": 70, "duration": 1, "velocity": 127}, {"time": 2562, "pitch": 70, "duration": 1, "velocity": 112}, {"time": 2565, "pitch": 70, "duration": 1, "velocity": 122}, {"time": 2568, "pitch": 68, "duration": 3, "velocity": 122}, {"time": 2574, "pitch": 70, "duration": 7, "velocity": 127}, {"time": 2589, "pitch": 78, "duration": 2, "velocity": 127}, {"time": 2592, "pitch": 77, "duration": 2, "velocity": 99}, {"time": 2595, "pitch": 78, "duration": 2, "velocity": 122}, {"time": 2598, "pitch": 77, "duration": 1, "velocity": 96}, {"time": 2601, "pitch": 73, "duration": 4, "velocity": 127}, {"time": 2607, "pitch": 70, "duration": 3, "velocity": 127}, {"time": 2613, "pitch": 70, "duration": 1, "velocity": 127}, {"time": 2616, "pitch": 68, "duration": 3, "velocity": 127}, {"time": 2622, "pitch": 70, "duration": 10, "velocity": 127}, {"time": 2646, "pitch": 73, "duration": 1, "velocity": 117}, {"time": 2649, "pitch": 75, "duration": 5, "velocity": 127}, {"time": 2655, "pitch": 73, "duration": 1, "velocity": 112}, {"time": 2658, "pitch": 73, "duration": 8, "velocity": 122}, {"time": 2670, "pitch": 73, "duration": 1, "velocity": 122}, {"time": 2673, "pitch": 75, "duration": 5, "velocity": 122}, {"time": 2679, "pitch": 73, "duration": 3, "velocity": 127}, {"time": 2685, "pitch": 70, "duration": 2, "velocity": 127}, {"time": 2691, "pitch": 73, "duration": 1, "velocity": 112}, {"time": 2694, "pitch": 68, "duration": 6, "velocity": 117}, {"time": 2703, "pitch": 66, "duration": 19, "velocity": 117}, {"time": 2733, "pitch": 78, "duration": 1, "velocity": 127}, {"time": 2736, "pitch": 77, "duration": 1, "velocity": 112}, {"time": 2739, "pitch": 78, "duration": 2, "velocity": 127}, {"time": 2742, "pitch": 77, "duration": 1, "velocity": 100}, {"time": 2745, "pitch": 73, "duration": 3, "velocity": 122}, {"time": 2751, "pitch": 70, "duration": 1, "velocity": 127}, {"time": 2754, "pitch": 70, "duration": 1, "velocity": 102}, {"time": 2757, "pitch": 70, "duration": 1, "velocity": 122}, {"time": 2760, "pitch": 68, "duration": 2, "velocity": 112}, {"time": 2766, "pitch": 70, "duration": 11, "velocity": 127}, {"time": 2781, "pitch": 78, "duration": 2, "velocity": 127}, {"time": 2784, "pitch": 77, "duration": 3, "velocity": 83}, {"time": 2787, "pitch": 78, "duration": 3, "velocity": 127}, {"time": 2790, "pitch": 77, "duration": 2, "velocity": 92}, {"time": 2793, "pitch": 73, "duration": 3, "velocity": 122}, {"time": 2799, "pitch": 70, "duration": 1, "velocity": 127}, {"time": 2802, "pitch": 70, "duration": 1, "velocity": 107}, {"time": 2805, "pitch": 70, "duration": 1, "velocity": 117}, {"time": 2808, "pitch": 68, "duration": 2, "velocity": 117}, {"time": 2814, "pitch": 70, "duration": 11, "velocity": 127}, {"time": 2835, "pitch": 73, "duration": 1, "velocity": 127}, {"time": 2838, "pitch": 73, "duration": 1, "velocity": 107}, {"time": 2841, "pitch": 75, "duration": 4, "velocity": 127}, {"time": 2847, "pitch": 73, "duration": 1, "velocity": 112}, {"time": 2850, "pitch": 73, "duration": 6, "velocity": 122}, {"time": 2862, "pitch": 73, "duration": 1, "velocity": 112}, {"time": 2865, "pitch": 75, "duration": 4, "velocity": 112}, {"time": 2871, "pitch": 73, "duration": 4, "velocity": 127}, {"time": 2886, "pitch": 70, "duration": 4, "velocity": 89}, {"time": 2892, "pitch": 73, "duration": 19, "velocity": 99}, {"time": 2922, "pitch": 68, "duration": 4, "velocity": 96}, {"time": 2931, "pitch": 66, "duration": 37, "velocity": 97}]}, {"program": 0, "is_drum": false, "name": "BRIDGE", "notes": [{"time": 57, "pitch": 73, "duration": 5, "velocity": 88}, {"time": 63, "pitch": 66, "duration": 4, "velocity": 69}, {"time": 66, "pitch": 73, "duration": 2, "velocity": 51}, {"time": 69, "pitch": 73, "duration": 6, "velocity": 65}, {"time": 75, "pitch": 66, "duration": 4, "velocity": 40}, {"time": 78, "pitch": 73, "duration": 2, "velocity": 53}, {"time": 81, "pitch": 73, "duration": 6, "velocity": 68}, {"time": 87, "pitch": 66, "duration": 4, "velocity": 46}, {"time": 90, "pitch": 73, "duration": 2, "velocity": 47}, {"time": 93, "pitch": 73, "duration": 6, "velocity": 61}, {"time": 99, "pitch": 66, "duration": 4, "velocity": 53}, {"time": 105, "pitch": 73, "duration": 4, "velocity": 72}, {"time": 111, "pitch": 66, "duration": 3, "velocity": 72}, {"time": 114, "pitch": 73, "duration": 1, "velocity": 61}, {"time": 117, "pitch": 73, "duration": 2, "velocity": 65}, {"time": 123, "pitch": 66, "duration": 3, "velocity": 59}, {"time": 126, "pitch": 73, "duration": 1, "velocity": 56}, {"time": 129, "pitch": 73, "duration": 6, "velocity": 62}, {"time": 135, "pitch": 66, "duration": 3, "velocity": 36}, {"time": 138, "pitch": 73, "duration": 2, "velocity": 40}, {"time": 141, "pitch": 73, "duration": 7, "velocity": 68}, {"time": 147, "pitch": 66, "duration": 3, "velocity": 43}, {"time": 150, "pitch": 73, "duration": 1, "velocity": 55}, {"time": 153, "pitch": 73, "duration": 6, "velocity": 67}, {"time": 159, "pitch": 66, "duration": 3, "velocity": 37}, {"time": 162, "pitch": 73, "duration": 2, "velocity": 48}, {"time": 165, "pitch": 73, "duration": 6, "velocity": 63}, {"time": 171, "pitch": 66, "duration": 3, "velocity": 41}, {"time": 174, "pitch": 73, "duration": 1, "velocity": 50}, {"time": 177, "pitch": 73, "duration": 6, "velocity": 65}, {"time": 183, "pitch": 66, "duration": 3, "velocity": 37}, {"time": 186, "pitch": 73, "duration": 2, "velocity": 56}, {"time": 189, "pitch": 73, "duration": 6, "velocity": 67}, {"time": 195, "pitch": 66, "duration": 3, "velocity": 38}, {"time": 198, "pitch": 73, "duration": 2, "velocity": 56}, {"time": 201, "pitch": 73, "duration": 6, "velocity": 59}, {"time": 207, "pitch": 66, "duration": 3, "velocity": 38}, {"time": 210, "pitch": 73, "duration": 1, "velocity": 50}, {"time": 213, "pitch": 73, "duration": 6, "velocity": 66}, {"time": 219, "pitch": 66, "duration": 4, "velocity": 40}, {"time": 222, "pitch": 73, "duration": 2, "velocity": 50}, {"time": 225, "pitch": 73, "duration": 6, "velocity": 61}, {"time": 231, "pitch": 66, "duration": 3, "velocity": 42}, {"time": 234, "pitch": 73, "duration": 2, "velocity": 59}, {"time": 237, "pitch": 73, "duration": 6, "velocity": 53}, {"time": 243, "pitch": 66, "duration": 3, "velocity": 53}, {"time": 246, "pitch": 73, "duration": 3, "velocity": 55}, {"time": 249, "pitch": 70, "duration": 6, "velocity": 127}, {"time": 255, "pitch": 68, "duration": 1, "velocity": 86}, {"time": 258, "pitch": 68, "duration": 1, "velocity": 86}, {"time": 261, "pitch": 68, "duration": 5, "velocity": 117}, {"time": 267, "pitch": 70, "duration": 11, "velocity": 127}, {"time": 279, "pitch": 68, "duration": 5, "velocity": 117}, {"time": 285, "pitch": 63, "duration": 12, "velocity": 112}, {"time": 297, "pitch": 68, "duration": 11, "velocity": 117}, {"time": 303, "pitch": 66, "duration": 6, "velocity": 107}, {"time": 309, "pitch": 61, "duration": 5, "velocity": 107}, {"time": 315, "pitch": 68, "duration": 13, "velocity": 127}, {"time": 327, "pitch": 70, "duration": 12, "velocity": 117}, {"time": 342, "pitch": 58, "duration": 3, "velocity": 93}, {"time": 345, "pitch": 63, "duration": 7, "velocity": 100}, {"time": 345, "pitch": 70, "duration": 5, "velocity": 117}, {"time": 351, "pitch": 68, "duration": 4, "velocity": 100}, {"time": 357, "pitch": 68, "duration": 5, "velocity": 112}, {"time": 363, "pitch": 70, "duration": 7, "velocity": 112}, {"time": 375, "pitch": 68, "duration": 4, "velocity": 117}, {"time": 381, "pitch": 68, "duration": 4, "velocity": 127}, {"time": 387, "pitch": 61, "duration": 4, "velocity": 97}, {"time": 393, "pitch": 68, "duration": 8, "velocity": 100}, {"time": 399, "pitch": 66, "duration": 9, "velocity": 117}, {"time": 411, "pitch": 61, "duration": 12, "velocity": 102}, {"time": 510, "pitch": 59, "duration": 2, "velocity": 88}, {"time": 513, "pitch": 61, "duration": 2, "velocity": 69}, {"time": 513, "pitch": 63, "duration": 7, "velocity": 88}, {"time": 522, "pitch": 53, "duration": 4, "velocity": 88}, {"time": 522, "pitch": 65, "duration": 3, "velocity": 83}, {"time": 528, "pitch": 65, "duration": 3, "velocity": 83}, {"time": 531, "pitch": 66, "duration": 3, "velocity": 96}, {"time": 534, "pitch": 68, "duration": 3, "velocity": 96}, {"time": 537, "pitch": 70, "duration": 10, "velocity": 112}, {"time": 618, "pitch": 89, "duration": 2, "velocity": 93}, {"time": 619, "pitch": 90, "duration": 3, "velocity": 102}, {"time": 621, "pitch": 89, "duration": 3, "velocity": 72}, {"time": 624, "pitch": 87, "duration": 3, "velocity": 88}, {"time": 627, "pitch": 85, "duration": 6, "velocity": 89}, {"time": 708, "pitch": 66, "duration": 3, "velocity": 88}, {"time": 711, "pitch": 77, "duration": 3, "velocity": 89}, {"time": 714, "pitch": 73, "duration": 5, "velocity": 81}, {"time": 783, "pitch": 49, "duration": 3, "velocity": 75}, {"time": 786, "pitch": 61, "duration": 3, "velocity": 92}, {"time": 789, "pitch": 66, "duration": 5, "velocity": 90}, {"time": 795, "pitch": 61, "duration": 3, "velocity": 95}, {"time": 798, "pitch": 66, "duration": 3, "velocity": 95}, {"time": 801, "pitch": 65, "duration": 16, "velocity": 99}, {"time": 893, "pitch": 59, "duration": 2, "velocity": 88}, {"time": 895, "pitch": 61, "duration": 2, "velocity": 56}, {"time": 896, "pitch": 63, "duration": 9, "velocity": 99}, {"time": 906, "pitch": 65, "duration": 9, "velocity": 97}, {"time": 912, "pitch": 65, "duration": 3, "velocity": 89}, {"time": 915, "pitch": 66, "duration": 3, "velocity": 90}, {"time": 918, "pitch": 68, "duration": 2, "velocity": 92}, {"time": 921, "pitch": 70, "duration": 18, "velocity": 102}, {"time": 1977, "pitch": 74, "duration": 25, "velocity": 127}, {"time": 2025, "pitch": 73, "duration": 44, "velocity": 122}, {"time": 2073, "pitch": 70, "duration": 26, "velocity": 127}, {"time": 2097, "pitch": 73, "duration": 11, "velocity": 122}, {"time": 2103, "pitch": 71, "duration": 3, "velocity": 117}, {"time": 2106, "pitch": 70, "duration": 3, "velocity": 100}, {"time": 2109, "pitch": 66, "duration": 5, "velocity": 68}, {"time": 2115, "pitch": 68, "duration": 3, "velocity": 112}, {"time": 2121, "pitch": 68, "duration": 15, "velocity": 127}, {"time": 2157, "pitch": 66, "duration": 3, "velocity": 98}, {"time": 2159, "pitch": 68, "duration": 2, "velocity": 95}, {"time": 2161, "pitch": 70, "duration": 1, "velocity": 90}, {"time": 2163, "pitch": 71, "duration": 3, "velocity": 90}, {"time": 2165, "pitch": 73, "duration": 2, "velocity": 99}, {"time": 2167, "pitch": 75, "duration": 3, "velocity": 109}, {"time": 2169, "pitch": 78, "duration": 12, "velocity": 119}, {"time": 2193, "pitch": 77, "duration": 5, "velocity": 107}, {"time": 2199, "pitch": 78, "duration": 6, "velocity": 122}, {"time": 2205, "pitch": 80, "duration": 5, "velocity": 127}, {"time": 2211, "pitch": 89, "duration": 6, "velocity": 127}, {"time": 2217, "pitch": 85, "duration": 24, "velocity": 127}, {"time": 2241, "pitch": 87, "duration": 3, "velocity": 127}, {"time": 2244, "pitch": 88, "duration": 2, "velocity": 97}, {"time": 2247, "pitch": 87, "duration": 2, "velocity": 127}, {"time": 2250, "pitch": 85, "duration": 2, "velocity": 117}, {"time": 2253, "pitch": 83, "duration": 3, "velocity": 107}, {"time": 2256, "pitch": 82, "duration": 1, "velocity": 127}, {"time": 2259, "pitch": 82, "duration": 5, "velocity": 127}, {"time": 2265, "pitch": 83, "duration": 22, "velocity": 112}, {"time": 2283, "pitch": 75, "duration": 4, "velocity": 127}, {"time": 2289, "pitch": 75, "duration": 3, "velocity": 127}, {"time": 2292, "pitch": 77, "duration": 2, "velocity": 117}, {"time": 2295, "pitch": 78, "duration": 3, "velocity": 112}, {"time": 2298, "pitch": 80, "duration": 2, "velocity": 112}, {"time": 2301, "pitch": 82, "duration": 3, "velocity": 127}, {"time": 2304, "pitch": 83, "duration": 3, "velocity": 93}, {"time": 2307, "pitch": 85, "duration": 2, "velocity": 122}, {"time": 2310, "pitch": 87, "duration": 3, "velocity": 112}, {"time": 2313, "pitch": 85, "duration": 13, "velocity": 127}, {"time": 2325, "pitch": 83, "duration": 10, "velocity": 117}, {"time": 2337, "pitch": 82, "duration": 12, "velocity": 127}, {"time": 2349, "pitch": 80, "duration": 12, "velocity": 122}, {"time": 2361, "pitch": 78, "duration": 24, "velocity": 127}, {"time": 2391, "pitch": 71, "duration": 5, "velocity": 107}, {"time": 2397, "pitch": 73, "duration": 9, "velocity": 112}, {"time": 2961, "pitch": 73, "duration": 5, "velocity": 88}, {"time": 2967, "pitch": 66, "duration": 4, "velocity": 69}, {"time": 2970, "pitch": 73, "duration": 2, "velocity": 51}, {"time": 2973, "pitch": 73, "duration": 6, "velocity": 65}, {"time": 2979, "pitch": 66, "duration": 4, "velocity": 40}, {"time": 2982, "pitch": 73, "duration": 2, "velocity": 53}, {"time": 2985, "pitch": 73, "duration": 6, "velocity": 68}, {"time": 2991, "pitch": 66, "duration": 4, "velocity": 46}, {"time": 2994, "pitch": 73, "duration": 2, "velocity": 47}, {"time": 2997, "pitch": 73, "duration": 6, "velocity": 61}, {"time": 3003, "pitch": 66, "duration": 4, "velocity": 53}, {"time": 3009, "pitch": 73, "duration": 4, "velocity": 72}, {"time": 3015, "pitch": 66, "duration": 3, "velocity": 72}, {"time": 3018, "pitch": 73, "duration": 1, "velocity": 61}, {"time": 3021, "pitch": 73, "duration": 2, "velocity": 65}, {"time": 3027, "pitch": 66, "duration": 3, "velocity": 59}, {"time": 3030, "pitch": 73, "duration": 1, "velocity": 56}, {"time": 3033, "pitch": 73, "duration": 6, "velocity": 62}, {"time": 3039, "pitch": 66, "duration": 3, "velocity": 36}, {"time": 3042, "pitch": 73, "duration": 2, "velocity": 40}, {"time": 3045, "pitch": 73, "duration": 7, "velocity": 68}, {"time": 3051, "pitch": 66, "duration": 3, "velocity": 43}, {"time": 3054, "pitch": 73, "duration": 1, "velocity": 55}, {"time": 3057, "pitch": 73, "duration": 6, "velocity": 67}, {"time": 3063, "pitch": 66, "duration": 3, "velocity": 37}, {"time": 3066, "pitch": 73, "duration": 2, "velocity": 48}, {"time": 3069, "pitch": 73, "duration": 6, "velocity": 63}, {"time": 3075, "pitch": 66, "duration": 3, "velocity": 41}, {"time": 3078, "pitch": 73, "duration": 1, "velocity": 50}, {"time": 3081, "pitch": 73, "duration": 6, "velocity": 65}, {"time": 3087, "pitch": 66, "duration": 3, "velocity": 37}, {"time": 3090, "pitch": 73, "duration": 2, "velocity": 56}, {"time": 3093, "pitch": 73, "duration": 6, "velocity": 67}, {"time": 3099, "pitch": 66, "duration": 3, "velocity": 38}, {"time": 3102, "pitch": 73, "duration": 2, "velocity": 56}, {"time": 3105, "pitch": 73, "duration": 6, "velocity": 59}, {"time": 3111, "pitch": 66, "duration": 3, "velocity": 38}, {"time": 3114, "pitch": 73, "duration": 1, "velocity": 50}, {"time": 3117, "pitch": 73, "duration": 6, "velocity": 66}, {"time": 3123, "pitch": 66, "duration": 4, "velocity": 40}, {"time": 3126, "pitch": 73, "duration": 2, "velocity": 50}, {"time": 3129, "pitch": 73, "duration": 6, "velocity": 61}, {"time": 3135, "pitch": 66, "duration": 3, "velocity": 42}, {"time": 3138, "pitch": 73, "duration": 2, "velocity": 59}, {"time": 3141, "pitch": 73, "duration": 6, "velocity": 53}, {"time": 3147, "pitch": 66, "duration": 3, "velocity": 53}, {"time": 3150, "pitch": 73, "duration": 3, "velocity": 55}]}, {"program": 0, "is_drum": false, "name": "PIANO", "notes": [{"time": 21, "pitch": 37, "duration": 36, "velocity": 56}, {"time": 21, "pitch": 49, "duration": 35, "velocity": 48}, {"time": 21, "pitch": 61, "duration": 36, "velocity": 52}, {"time": 21, "pitch": 65, "duration": 35, "velocity": 52}, {"time": 21, "pitch": 68, "duration": 35, "velocity": 40}, {"time": 57, "pitch": 42, "duration": 34, "velocity": 81}, {"time": 57, "pitch": 54, "duration": 33, "velocity": 73}, {"time": 57, "pitch": 66, "duration": 41, "velocity": 62}, {"time": 57, "pitch": 70, "duration": 45, "velocity": 61}, {"time": 57, "pitch": 73, "duration": 46, "velocity": 66}, {"time": 105, "pitch": 41, "duration": 29, "velocity": 37}, {"time": 105, "pitch": 53, "duration": 27, "velocity": 41}, {"time": 105, "pitch": 65, "duration": 29, "velocity": 72}, {"time": 105, "pitch": 70, "duration": 29, "velocity": 66}, {"time": 105, "pitch": 73, "duration": 30, "velocity": 63}, {"time": 153, "pitch": 47, "duration": 23, "velocity": 60}, {"time": 153, "pitch": 54, "duration": 23, "velocity": 88}, {"time": 153, "pitch": 59, "duration": 43, "velocity": 78}, {"time": 153, "pitch": 63, "duration": 42, "velocity": 82}, {"time": 153, "pitch": 66, "duration": 41, "velocity": 82}, {"time": 201, "pitch": 44, "duration": 39, "velocity": 95}, {"time": 201, "pitch": 56, "duration": 38, "velocity": 86}, {"time": 201, "pitch": 59, "duration": 38, "velocity": 83}, {"time": 201, "pitch": 63, "duration": 38, "velocity": 74}, {"time": 249, "pitch": 51, "duration": 15, "velocity": 73}, {"time": 249, "pitch": 63, "duration": 11, "velocity": 81}, {"time": 249, "pitch": 66, "duration": 11, "velocity": 92}, {"time": 249, "pitch": 70, "duration": 9, "velocity": 79}, {"time": 261, "pitch": 66, "duration": 6, "velocity": 96}, {"time": 261, "pitch": 70, "duration": 6, "velocity": 112}, {"time": 267, "pitch": 63, "duration": 5, "velocity": 64}, {"time": 273, "pitch": 47, "duration": 16, "velocity": 73}, {"time": 279, "pitch": 54, "duration": 8, "velocity": 48}, {"time": 285, "pitch": 66, "duration": 11, "velocity": 102}, {"time": 291, "pitch": 63, "duration": 6, "velocity": 76}, {"time": 297, "pitch": 49, "duration": 22, "velocity": 100}, {"time": 303, "pitch": 56, "duration": 8, "velocity": 75}, {"time": 309, "pitch": 65, "duration": 18, "velocity": 69}, {"time": 315, "pitch": 56, "duration": 11, "velocity": 73}, {"time": 318, "pitch": 61, "duration": 8, "velocity": 66}, {"time": 321, "pitch": 49, "duration": 18, "velocity": 69}, {"time": 327, "pitch": 56, "duration": 5, "velocity": 55}, {"time": 333, "pitch": 56, "duration": 2, "velocity": 36}, {"time": 333, "pitch": 61, "duration": 5, "velocity": 92}, {"time": 333, "pitch": 65, "duration": 4, "velocity": 72}, {"time": 345, "pitch": 39, "duration": 16, "velocity": 93}, {"time": 351, "pitch": 46, "duration": 10, "velocity": 36}, {"time": 357, "pitch": 51, "duration": 5, "velocity": 51}, {"time": 357, "pitch": 63, "duration": 13, "velocity": 95}, {"time": 357, "pitch": 66, "duration": 13, "velocity": 83}, {"time": 363, "pitch": 58, "duration": 6, "velocity": 88}, {"time": 369, "pitch": 47, "duration": 16, "velocity": 79}, {"time": 375, "pitch": 54, "duration": 9, "velocity": 77}, {"time": 381, "pitch": 63, "duration": 10, "velocity": 112}, {"time": 381, "pitch": 66, "duration": 9, "velocity": 99}, {"time": 387, "pitch": 59, "duration": 6, "velocity": 73}, {"time": 393, "pitch": 49, "duration": 22, "velocity": 102}, {"time": 399, "pitch": 56, "duration": 7, "velocity": 89}, {"time": 405, "pitch": 61, "duration": 20, "velocity": 75}, {"time": 405, "pitch": 65, "duration": 18, "velocity": 70}, {"time": 411, "pitch": 56, "duration": 17, "velocity": 88}, {"time": 417, "pitch": 49, "duration": 16, "velocity": 72}, {"time": 429, "pitch": 56, "duration": 1, "velocity": 34}, {"time": 429, "pitch": 61, "duration": 11, "velocity": 73}, {"time": 429, "pitch": 65, "duration": 8, "velocity": 69}, {"time": 441, "pitch": 42, "duration": 20, "velocity": 86}, {"time": 447, "pitch": 49, "duration": 11, "velocity": 41}, {"time": 453, "pitch": 66, "duration": 12, "velocity": 100}, {"time": 459, "pitch": 58, "duration": 6, "velocity": 83}, {"time": 465, "pitch": 41, "duration": 16, "velocity": 89}, {"time": 471, "pitch": 53, "duration": 6, "velocity": 74}, {"time": 477, "pitch": 58, "duration": 12, "velocity": 86}, {"time": 477, "pitch": 61, "duration": 12, "velocity": 92}, {"time": 483, "pitch": 53, "duration": 5, "velocity": 63}, {"time": 489, "pitch": 47, "duration": 18, "velocity": 90}, {"time": 495, "pitch": 59, "duration": 6, "velocity": 71}, {"time": 501, "pitch": 63, "duration": 10, "velocity": 93}, {"time": 501, "pitch": 66, "duration": 10, "velocity": 97}, {"time": 507, "pitch": 59, "duration": 5, "velocity": 72}, {"time": 513, "pitch": 49, "duration": 17, "velocity": 82}, {"time": 519, "pitch": 56, "duration": 7, "velocity": 71}, {"time": 525, "pitch": 61, "duration": 12, "velocity": 73}, {"time": 525, "pitch": 65, "duration": 11, "velocity": 68}, {"time": 531, "pitch": 56, "duration": 6, "velocity": 78}, {"time": 537, "pitch": 42, "duration": 19, "velocity": 79}, {"time": 543, "pitch": 49, "duration": 11, "velocity": 41}, {"time": 549, "pitch": 54, "duration": 4, "velocity": 58}, {"time": 549, "pitch": 61, "duration": 12, "velocity": 100}, {"time": 549, "pitch": 66, "duration": 12, "velocity": 93}, {"time": 555, "pitch": 58, "duration": 6, "velocity": 89}, {"time": 561, "pitch": 41, "duration": 19, "velocity": 76}, {"time": 567, "pitch": 58, "duration": 8, "velocity": 76}, {"time": 573, "pitch": 61, "duration": 12, "velocity": 83}, {"time": 579, "pitch": 58, "duration": 6, "velocity": 64}, {"time": 582, "pitch": 39, "duration": 1, "velocity": 50}, {"time": 585, "pitch": 39, "duration": 22, "velocity": 97}, {"time": 591, "pitch": 51, "duration": 19, "velocity": 65}, {"time": 597, "pitch": 58, "duration": 18, "velocity": 97}, {"time": 597, "pitch": 63, "duration": 19, "velocity": 96}, {"time": 603, "pitch": 54, "duration": 19, "velocity": 78}, {"time": 609, "pitch": 39, "duration": 15, "velocity": 77}, {"time": 615, "pitch": 51, "duration": 10, "velocity": 67}, {"time": 621, "pitch": 63, "duration": 7, "velocity": 99}, {"time": 624, "pitch": 54, "duration": 3, "velocity": 77}, {"time": 627, "pitch": 58, "duration": 5, "velocity": 92}, {"time": 630, "pitch": 63, "duration": 3, "velocity": 25}, {"time": 633, "pitch": 47, "duration": 18, "velocity": 85}, {"time": 639, "pitch": 54, "duration": 9, "velocity": 95}, {"time": 645, "pitch": 63, "duration": 11, "velocity": 122}, {"time": 645, "pitch": 66, "duration": 9, "velocity": 112}, {"time": 651, "pitch": 59, "duration": 5, "velocity": 79}, {"time": 657, "pitch": 49, "duration": 19, "velocity": 112}, {"time": 663, "pitch": 56, "duration": 12, "velocity": 112}, {"time": 669, "pitch": 65, "duration": 10, "velocity": 76}, {"time": 675, "pitch": 61, "duration": 6, "velocity": 42}, {"time": 681, "pitch": 46, "duration": 16, "velocity": 102}, {"time": 687, "pitch": 58, "duration": 6, "velocity": 89}, {"time": 693, "pitch": 65, "duration": 13, "velocity": 107}, {"time": 699, "pitch": 61, "duration": 7, "velocity": 93}, {"time": 705, "pitch": 39, "duration": 18, "velocity": 82}, {"time": 711, "pitch": 46, "duration": 12, "velocity": 60}, {"time": 717, "pitch": 51, "duration": 7, "velocity": 56}, {"time": 717, "pitch": 58, "duration": 11, "velocity": 67}, {"time": 717, "pitch": 63, "duration": 12, "velocity": 83}, {"time": 723, "pitch": 54, "duration": 5, "velocity": 78}, {"time": 729, "pitch": 44, "duration": 22, "velocity": 97}, {"time": 735, "pitch": 56, "duration": 9, "velocity": 95}, {"time": 741, "pitch": 63, "duration": 12, "velocity": 117}, {"time": 747, "pitch": 59, "duration": 4, "velocity": 93}, {"time": 753, "pitch": 48, "duration": 15, "velocity": 81}, {"time": 759, "pitch": 56, "duration": 7, "velocity": 77}, {"time": 765, "pitch": 63, "duration": 12, "velocity": 100}, {"time": 771, "pitch": 60, "duration": 6, "velocity": 78}, {"time": 777, "pitch": 49, "duration": 40, "velocity": 90}, {"time": 783, "pitch": 56, "duration": 9, "velocity": 102}, {"time": 789, "pitch": 66, "duration": 7, "velocity": 122}, {"time": 795, "pitch": 56, "duration": 19, "velocity": 76}, {"time": 801, "pitch": 61, "duration": 11, "velocity": 75}, {"time": 801, "pitch": 65, "duration": 10, "velocity": 85}, {"time": 801, "pitch": 68, "duration": 10, "velocity": 97}, {"time": 813, "pitch": 65, "duration": 12, "velocity": 102}, {"time": 813, "pitch": 68, "duration": 12, "velocity": 99}, {"time": 816, "pitch": 56, "duration": 1, "velocity": 89}, {"time": 819, "pitch": 61, "duration": 6, "velocity": 93}, {"time": 825, "pitch": 42, "duration": 20, "velocity": 86}, {"time": 831, "pitch": 49, "duration": 11, "velocity": 41}, {"time": 837, "pitch": 66, "duration": 12, "velocity": 100}, {"time": 843, "pitch": 58, "duration": 6, "velocity": 83}, {"time": 849, "pitch": 41, "duration": 16, "velocity": 89}, {"time": 855, "pitch": 53, "duration": 6, "velocity": 74}, {"time": 861, "pitch": 58, "duration": 12, "velocity": 86}, {"time": 861, "pitch": 61, "duration": 12, "velocity": 92}, {"time": 867, "pitch": 53, "duration": 5, "velocity": 63}, {"time": 873, "pitch": 47, "duration": 18, "velocity": 90}, {"time": 879, "pitch": 59, "duration": 6, "velocity": 71}, {"time": 885, "pitch": 63, "duration": 10, "velocity": 93}, {"time": 885, "pitch": 66, "duration": 10, "velocity": 97}, {"time": 891, "pitch": 59, "duration": 5, "velocity": 72}, {"time": 897, "pitch": 49, "duration": 17, "velocity": 82}, {"time": 903, "pitch": 56, "duration": 7, "velocity": 71}, {"time": 909, "pitch": 61, "duration": 12, "velocity": 73}, {"time": 909, "pitch": 65, "duration": 11, "velocity": 68}, {"time": 915, "pitch": 56, "duration": 6, "velocity": 78}, {"time": 921, "pitch": 42, "duration": 19, "velocity": 79}, {"time": 927, "pitch": 49, "duration": 11, "velocity": 41}, {"time": 933, "pitch": 54, "duration": 4, "velocity": 58}, {"time": 933, "pitch": 61, "duration": 12, "velocity": 100}, {"time": 933, "pitch": 66, "duration": 12, "velocity": 93}, {"time": 939, "pitch": 58, "duration": 6, "velocity": 89}, {"time": 945, "pitch": 41, "duration": 19, "velocity": 76}, {"time": 951, "pitch": 58, "duration": 8, "velocity": 76}, {"time": 957, "pitch": 61, "duration": 12, "velocity": 83}, {"time": 963, "pitch": 58, "duration": 6, "velocity": 64}, {"time": 966, "pitch": 39, "duration": 1, "velocity": 50}, {"time": 969, "pitch": 39, "duration": 22, "velocity": 97}, {"time": 975, "pitch": 51, "duration": 19, "velocity": 65}, {"time": 981, "pitch": 58, "duration": 18, "velocity": 97}, {"time": 981, "pitch": 63, "duration": 19, "velocity": 96}, {"time": 987, "pitch": 54, "duration": 19, "velocity": 78}, {"time": 993, "pitch": 39, "duration": 15, "velocity": 77}, {"time": 999, "pitch": 51, "duration": 10, "velocity": 67}, {"time": 1005, "pitch": 63, "duration": 7, "velocity": 99}, {"time": 1008, "pitch": 54, "duration": 3, "velocity": 77}, {"time": 1011, "pitch": 58, "duration": 5, "velocity": 92}, {"time": 1014, "pitch": 63, "duration": 3, "velocity": 25}, {"time": 1017, "pitch": 47, "duration": 18, "velocity": 85}, {"time": 1023, "pitch": 54, "duration": 9, "velocity": 95}, {"time": 1029, "pitch": 63, "duration": 11, "velocity": 122}, {"time": 1029, "pitch": 66, "duration": 9, "velocity": 112}, {"time": 1035, "pitch": 59, "duration": 5, "velocity": 79}, {"time": 1041, "pitch": 49, "duration": 19, "velocity": 112}, {"time": 1047, "pitch": 56, "duration": 12, "velocity": 112}, {"time": 1053, "pitch": 65, "duration": 10, "velocity": 76}, {"time": 1059, "pitch": 61, "duration": 6, "velocity": 42}, {"time": 1065, "pitch": 46, "duration": 16, "velocity": 102}, {"time": 1071, "pitch": 58, "duration": 6, "velocity": 89}, {"time": 1077, "pitch": 65, "duration": 13, "velocity": 107}, {"time": 1083, "pitch": 61, "duration": 7, "velocity": 93}, {"time": 1089, "pitch": 39, "duration": 18, "velocity": 82}, {"time": 1095, "pitch": 46, "duration": 12, "velocity": 60}, {"time": 1101, "pitch": 51, "duration": 7, "velocity": 56}, {"time": 1101, "pitch": 58, "duration": 11, "velocity": 67}, {"time": 1101, "pitch": 63, "duration": 12, "velocity": 83}, {"time": 1107, "pitch": 54, "duration": 5, "velocity": 78}, {"time": 1113, "pitch": 44, "duration": 3, "velocity": 64}, {"time": 1113, "pitch": 56, "duration": 5, "velocity": 73}, {"time": 1113, "pitch": 59, "duration": 4, "velocity": 67}, {"time": 1113, "pitch": 63, "duration": 5, "velocity": 76}, {"time": 1125, "pitch": 46, "duration": 5, "velocity": 73}, {"time": 1125, "pitch": 58, "duration": 5, "velocity": 99}, {"time": 1125, "pitch": 61, "duration": 5, "velocity": 93}, {"time": 1125, "pitch": 65, "duration": 5, "velocity": 75}, {"time": 1137, "pitch": 47, "duration": 6, "velocity": 72}, {"time": 1137, "pitch": 59, "duration": 6, "velocity": 92}, {"time": 1137, "pitch": 63, "duration": 6, "velocity": 112}, {"time": 1137, "pitch": 66, "duration": 6, "velocity": 100}, {"time": 1149, "pitch": 49, "duration": 6, "velocity": 88}, {"time": 1149, "pitch": 61, "duration": 10, "velocity": 102}, {"time": 1149, "pitch": 65, "duration": 7, "velocity": 107}, {"time": 1149, "pitch": 68, "duration": 7, "velocity": 107}, {"time": 1161, "pitch": 42, "duration": 43, "velocity": 99}, {"time": 1161, "pitch": 61, "duration": 8, "velocity": 102}, {"time": 1161, "pitch": 66, "duration": 6, "velocity": 100}, {"time": 1161, "pitch": 70, "duration": 7, "velocity": 83}, {"time": 1167, "pitch": 49, "duration": 41, "velocity": 62}, {"time": 1173, "pitch": 61, "duration": 7, "velocity": 122}, {"time": 1179, "pitch": 54, "duration": 19, "velocity": 83}, {"time": 1185, "pitch": 58, "duration": 15, "velocity": 112}, {"time": 1185, "pitch": 61, "duration": 19, "velocity": 117}, {"time": 1185, "pitch": 66, "duration": 11, "velocity": 100}, {"time": 1197, "pitch": 66, "duration": 12, "velocity": 75}, {"time": 1200, "pitch": 54, "duration": 4, "velocity": 93}, {"time": 1203, "pitch": 58, "duration": 5, "velocity": 92}, {"time": 1206, "pitch": 61, "duration": 3, "velocity": 122}, {"time": 1209, "pitch": 42, "duration": 22, "velocity": 96}, {"time": 1212, "pitch": 49, "duration": 20, "velocity": 70}, {"time": 1215, "pitch": 54, "duration": 6, "velocity": 117}, {"time": 1218, "pitch": 58, "duration": 4, "velocity": 107}, {"time": 1221, "pitch": 66, "duration": 9, "velocity": 127}, {"time": 1224, "pitch": 54, "duration": 7, "velocity": 102}, {"time": 1227, "pitch": 58, "duration": 5, "velocity": 117}, {"time": 1230, "pitch": 61, "duration": 8, "velocity": 127}, {"time": 1233, "pitch": 42, "duration": 16, "velocity": 92}, {"time": 1236, "pitch": 49, "duration": 13, "velocity": 81}, {"time": 1239, "pitch": 54, "duration": 6, "velocity": 107}, {"time": 1242, "pitch": 58, "duration": 4, "velocity": 96}, {"time": 1245, "pitch": 66, "duration": 7, "velocity": 127}, {"time": 1248, "pitch": 54, "duration": 1, "velocity": 102}, {"time": 1251, "pitch": 61, "duration": 2, "velocity": 117}, {"time": 1254, "pitch": 58, "duration": 3, "velocity": 117}, {"time": 1257, "pitch": 39, "duration": 22, "velocity": 100}, {"time": 1260, "pitch": 46, "duration": 20, "velocity": 71}, {"time": 1263, "pitch": 51, "duration": 7, "velocity": 95}, {"time": 1266, "pitch": 54, "duration": 3, "velocity": 99}, {"time": 1269, "pitch": 63, "duration": 12, "velocity": 127}, {"time": 1272, "pitch": 51, "duration": 7, "velocity": 117}, {"time": 1275, "pitch": 58, "duration": 4, "velocity": 99}, {"time": 1278, "pitch": 54, "duration": 2, "velocity": 102}, {"time": 1281, "pitch": 37, "duration": 6, "velocity": 55}, {"time": 1281, "pitch": 49, "duration": 10, "velocity": 93}, {"time": 1281, "pitch": 61, "duration": 5, "velocity": 107}, {"time": 1281, "pitch": 64, "duration": 5, "velocity": 97}, {"time": 1281, "pitch": 68, "duration": 5, "velocity": 112}, {"time": 1293, "pitch": 42, "duration": 11, "velocity": 107}, {"time": 1293, "pitch": 54, "duration": 11, "velocity": 107}, {"time": 1293, "pitch": 58, "duration": 11, "velocity": 107}, {"time": 1293, "pitch": 61, "duration": 11, "velocity": 102}, {"time": 1305, "pitch": 47, "duration": 16, "velocity": 75}, {"time": 1308, "pitch": 54, "duration": 10, "velocity": 112}, {"time": 1311, "pitch": 59, "duration": 7, "velocity": 88}, {"time": 1314, "pitch": 63, "duration": 3, "velocity": 127}, {"time": 1317, "pitch": 66, "duration": 10, "velocity": 127}, {"time": 1320, "pitch": 54, "duration": 1, "velocity": 100}, {"time": 1323, "pitch": 63, "duration": 6, "velocity": 122}, {"time": 1326, "pitch": 59, "duration": 2, "velocity": 107}, {"time": 1329, "pitch": 44, "duration": 21, "velocity": 96}, {"time": 1335, "pitch": 56, "duration": 7, "velocity": 117}, {"time": 1338, "pitch": 59, "duration": 3, "velocity": 71}, {"time": 1341, "pitch": 63, "duration": 7, "velocity": 127}, {"time": 1344, "pitch": 56, "duration": 4, "velocity": 112}, {"time": 1347, "pitch": 59, "duration": 4, "velocity": 100}, {"time": 1350, "pitch": 63, "duration": 2, "velocity": 127}, {"time": 1353, "pitch": 49, "duration": 13, "velocity": 117}, {"time": 1356, "pitch": 56, "duration": 4, "velocity": 92}, {"time": 1359, "pitch": 61, "duration": 6, "velocity": 77}, {"time": 1362, "pitch": 56, "duration": 4, "velocity": 86}, {"time": 1365, "pitch": 65, "duration": 9, "velocity": 74}, {"time": 1368, "pitch": 49, "duration": 8, "velocity": 79}, {"time": 1371, "pitch": 63, "duration": 5, "velocity": 122}, {"time": 1374, "pitch": 61, "duration": 5, "velocity": 107}, {"time": 1377, "pitch": 49, "duration": 13, "velocity": 107}, {"time": 1380, "pitch": 56, "duration": 3, "velocity": 73}, {"time": 1383, "pitch": 61, "duration": 5, "velocity": 97}, {"time": 1386, "pitch": 56, "duration": 4, "velocity": 78}, {"time": 1389, "pitch": 65, "duration": 7, "velocity": 81}, {"time": 1392, "pitch": 56, "duration": 3, "velocity": 92}, {"time": 1395, "pitch": 63, "duration": 3, "velocity": 117}, {"time": 1398, "pitch": 61, "duration": 2, "velocity": 117}, {"time": 1401, "pitch": 42, "duration": 22, "velocity": 85}, {"time": 1404, "pitch": 49, "duration": 20, "velocity": 86}, {"time": 1407, "pitch": 54, "duration": 6, "velocity": 122}, {"time": 1410, "pitch": 58, "duration": 4, "velocity": 102}, {"time": 1413, "pitch": 66, "duration": 17, "velocity": 127}, {"time": 1416, "pitch": 54, "duration": 12, "velocity": 99}, {"time": 1419, "pitch": 61, "duration": 12, "velocity": 117}, {"time": 1422, "pitch": 58, "duration": 9, "velocity": 112}, {"time": 1425, "pitch": 42, "duration": 18, "velocity": 97}, {"time": 1428, "pitch": 49, "duration": 14, "velocity": 92}, {"time": 1431, "pitch": 54, "duration": 6, "velocity": 95}, {"time": 1434, "pitch": 58, "duration": 4, "velocity": 97}, {"time": 1437, "pitch": 66, "duration": 11, "velocity": 122}, {"time": 1440, "pitch": 54, "duration": 2, "velocity": 107}, {"time": 1443, "pitch": 61, "duration": 5, "velocity": 127}, {"time": 1446, "pitch": 58, "duration": 2, "velocity": 117}, {"time": 1449, "pitch": 39, "duration": 22, "velocity": 102}, {"time": 1452, "pitch": 51, "duration": 5, "velocity": 95}, {"time": 1455, "pitch": 54, "duration": 4, "velocity": 88}, {"time": 1458, "pitch": 58, "duration": 2, "velocity": 38}, {"time": 1461, "pitch": 63, "duration": 12, "velocity": 122}, {"time": 1464, "pitch": 51, "duration": 9, "velocity": 90}, {"time": 1467, "pitch": 58, "duration": 6, "velocity": 112}, {"time": 1470, "pitch": 54, "duration": 3, "velocity": 117}, {"time": 1473, "pitch": 37, "duration": 11, "velocity": 85}, {"time": 1473, "pitch": 49, "duration": 11, "velocity": 85}, {"time": 1473, "pitch": 61, "duration": 4, "velocity": 99}, {"time": 1473, "pitch": 64, "duration": 13, "velocity": 89}, {"time": 1473, "pitch": 68, "duration": 13, "velocity": 110}, {"time": 1476, "pitch": 52, "duration": 6, "velocity": 85}, {"time": 1479, "pitch": 56, "duration": 6, "velocity": 85}, {"time": 1482, "pitch": 61, "duration": 3, "velocity": 85}, {"time": 1485, "pitch": 40, "duration": 14, "velocity": 96}, {"time": 1485, "pitch": 52, "duration": 14, "velocity": 96}, {"time": 1485, "pitch": 61, "duration": 8, "velocity": 96}, {"time": 1485, "pitch": 66, "duration": 14, "velocity": 96}, {"time": 1485, "pitch": 70, "duration": 14, "velocity": 121}, {"time": 1488, "pitch": 54, "duration": 5, "velocity": 96}, {"time": 1491, "pitch": 58, "duration": 5, "velocity": 96}, {"time": 1494, "pitch": 61, "duration": 6, "velocity": 96}, {"time": 1497, "pitch": 47, "duration": 16, "velocity": 95}, {"time": 1500, "pitch": 54, "duration": 10, "velocity": 117}, {"time": 1503, "pitch": 59, "duration": 6, "velocity": 93}, {"time": 1506, "pitch": 63, "duration": 3, "velocity": 127}, {"time": 1509, "pitch": 66, "duration": 9, "velocity": 127}, {"time": 1512, "pitch": 54, "duration": 1, "velocity": 97}, {"time": 1515, "pitch": 63, "duration": 9, "velocity": 122}, {"time": 1518, "pitch": 59, "duration": 5, "velocity": 100}, {"time": 1521, "pitch": 44, "duration": 11, "velocity": 93}, {"time": 1524, "pitch": 51, "duration": 8, "velocity": 37}, {"time": 1527, "pitch": 56, "duration": 4, "velocity": 96}, {"time": 1530, "pitch": 59, "duration": 2, "velocity": 90}, {"time": 1533, "pitch": 49, "duration": 5, "velocity": 117}, {"time": 1536, "pitch": 56, "duration": 3, "velocity": 81}, {"time": 1539, "pitch": 61, "duration": 6, "velocity": 122}, {"time": 1542, "pitch": 65, "duration": 3, "velocity": 73}, {"time": 1545, "pitch": 42, "duration": 22, "velocity": 74}, {"time": 1548, "pitch": 49, "duration": 21, "velocity": 70}, {"time": 1551, "pitch": 54, "duration": 6, "velocity": 90}, {"time": 1554, "pitch": 58, "duration": 3, "velocity": 100}, {"time": 1557, "pitch": 66, "duration": 33, "velocity": 102}, {"time": 1560, "pitch": 54, "duration": 30, "velocity": 92}, {"time": 1563, "pitch": 61, "duration": 15, "velocity": 100}, {"time": 1566, "pitch": 58, "duration": 22, "velocity": 97}, {"time": 1569, "pitch": 42, "duration": 21, "velocity": 95}, {"time": 1581, "pitch": 61, "duration": 4, "velocity": 12}, {"time": 1593, "pitch": 42, "duration": 19, "velocity": 83}, {"time": 1596, "pitch": 49, "duration": 16, "velocity": 29}, {"time": 1599, "pitch": 54, "duration": 8, "velocity": 83}, {"time": 1602, "pitch": 58, "duration": 4, "velocity": 72}, {"time": 1605, "pitch": 66, "duration": 12, "velocity": 96}, {"time": 1611, "pitch": 61, "duration": 6, "velocity": 93}, {"time": 1617, "pitch": 41, "duration": 20, "velocity": 79}, {"time": 1623, "pitch": 58, "duration": 3, "velocity": 41}, {"time": 1626, "pitch": 61, "duration": 14, "velocity": 107}, {"time": 1635, "pitch": 65, "duration": 6, "velocity": 59}, {"time": 1641, "pitch": 47, "duration": 18, "velocity": 79}, {"time": 1647, "pitch": 59, "duration": 7, "velocity": 72}, {"time": 1650, "pitch": 66, "duration": 13, "velocity": 102}, {"time": 1656, "pitch": 54, "duration": 2, "velocity": 51}, {"time": 1659, "pitch": 63, "duration": 4, "velocity": 83}, {"time": 1662, "pitch": 59, "duration": 3, "velocity": 61}, {"time": 1665, "pitch": 49, "duration": 15, "velocity": 72}, {"time": 1668, "pitch": 56, "duration": 4, "velocity": 70}, {"time": 1671, "pitch": 61, "duration": 3, "velocity": 88}, {"time": 1674, "pitch": 65, "duration": 2, "velocity": 70}, {"time": 1680, "pitch": 61, "duration": 1, "velocity": 107}, {"time": 1683, "pitch": 58, "duration": 3, "velocity": 102}, {"time": 1686, "pitch": 56, "duration": 2, "velocity": 93}, {"time": 1689, "pitch": 42, "duration": 19, "velocity": 93}, {"time": 1695, "pitch": 49, "duration": 11, "velocity": 41}, {"time": 1701, "pitch": 54, "duration": 4, "velocity": 68}, {"time": 1701, "pitch": 61, "duration": 12, "velocity": 93}, {"time": 1707, "pitch": 58, "duration": 6, "velocity": 89}, {"time": 1713, "pitch": 41, "duration": 14, "velocity": 78}, {"time": 1719, "pitch": 53, "duration": 6, "velocity": 68}, {"time": 1725, "pitch": 58, "duration": 11, "velocity": 90}, {"time": 1725, "pitch": 61, "duration": 11, "velocity": 97}, {"time": 1737, "pitch": 39, "duration": 22, "velocity": 100}, {"time": 1743, "pitch": 46, "duration": 18, "velocity": 65}, {"time": 1749, "pitch": 63, "duration": 19, "velocity": 117}, {"time": 1752, "pitch": 51, "duration": 10, "velocity": 68}, {"time": 1755, "pitch": 58, "duration": 12, "velocity": 89}, {"time": 1758, "pitch": 54, "duration": 14, "velocity": 96}, {"time": 1761, "pitch": 39, "duration": 16, "velocity": 100}, {"time": 1764, "pitch": 51, "duration": 10, "velocity": 27}, {"time": 1773, "pitch": 63, "duration": 6, "velocity": 107}, {"time": 1779, "pitch": 58, "duration": 1, "velocity": 100}, {"time": 1785, "pitch": 47, "duration": 22, "velocity": 78}, {"time": 1785, "pitch": 63, "duration": 11, "velocity": 72}, {"time": 1791, "pitch": 54, "duration": 17, "velocity": 88}, {"time": 1797, "pitch": 66, "duration": 10, "velocity": 127}, {"time": 1803, "pitch": 59, "duration": 5, "velocity": 89}, {"time": 1809, "pitch": 49, "duration": 19, "velocity": 92}, {"time": 1815, "pitch": 56, "duration": 5, "velocity": 72}, {"time": 1821, "pitch": 56, "duration": 1, "velocity": 36}, {"time": 1821, "pitch": 61, "duration": 11, "velocity": 69}, {"time": 1821, "pitch": 65, "duration": 10, "velocity": 74}, {"time": 1827, "pitch": 56, "duration": 5, "velocity": 89}, {"time": 1833, "pitch": 46, "duration": 16, "velocity": 100}, {"time": 1839, "pitch": 58, "duration": 6, "velocity": 102}, {"time": 1845, "pitch": 61, "duration": 12, "velocity": 74}, {"time": 1845, "pitch": 65, "duration": 12, "velocity": 78}, {"time": 1851, "pitch": 58, "duration": 6, "velocity": 82}, {"time": 1857, "pitch": 39, "duration": 17, "velocity": 89}, {"time": 1863, "pitch": 46, "duration": 10, "velocity": 57}, {"time": 1869, "pitch": 58, "duration": 9, "velocity": 92}, {"time": 1869, "pitch": 63, "duration": 9, "velocity": 90}, {"time": 1872, "pitch": 51, "duration": 2, "velocity": 88}, {"time": 1875, "pitch": 54, "duration": 3, "velocity": 92}, {"time": 1881, "pitch": 44, "duration": 16, "velocity": 127}, {"time": 1887, "pitch": 56, "duration": 7, "velocity": 70}, {"time": 1893, "pitch": 63, "duration": 5, "velocity": 127}, {"time": 1899, "pitch": 61, "duration": 5, "velocity": 86}, {"time": 1905, "pitch": 47, "duration": 7, "velocity": 70}, {"time": 1905, "pitch": 59, "duration": 8, "velocity": 88}, {"time": 1905, "pitch": 63, "duration": 6, "velocity": 107}, {"time": 1905, "pitch": 66, "duration": 6, "velocity": 96}, {"time": 1917, "pitch": 49, "duration": 5, "velocity": 86}, {"time": 1917, "pitch": 56, "duration": 7, "velocity": 92}, {"time": 1917, "pitch": 61, "duration": 11, "velocity": 79}, {"time": 1917, "pitch": 65, "duration": 7, "velocity": 65}, {"time": 1929, "pitch": 42, "duration": 22, "velocity": 89}, {"time": 1935, "pitch": 49, "duration": 17, "velocity": 36}, {"time": 1941, "pitch": 61, "duration": 35, "velocity": 127}, {"time": 1947, "pitch": 54, "duration": 21, "velocity": 44}, {"time": 1953, "pitch": 42, "duration": 24, "velocity": 81}, {"time": 1965, "pitch": 66, "duration": 12, "velocity": 66}, {"time": 1977, "pitch": 47, "duration": 23, "velocity": 74}, {"time": 1980, "pitch": 54, "duration": 8, "velocity": 82}, {"time": 1983, "pitch": 59, "duration": 6, "velocity": 70}, {"time": 1986, "pitch": 66, "duration": 20, "velocity": 102}, {"time": 1992, "pitch": 54, "duration": 9, "velocity": 71}, {"time": 1998, "pitch": 62, "duration": 8, "velocity": 60}, {"time": 2001, "pitch": 47, "duration": 15, "velocity": 67}, {"time": 2004, "pitch": 54, "duration": 10, "velocity": 93}, {"time": 2007, "pitch": 59, "duration": 5, "velocity": 93}, {"time": 2010, "pitch": 66, "duration": 13, "velocity": 127}, {"time": 2019, "pitch": 62, "duration": 5, "velocity": 85}, {"time": 2025, "pitch": 46, "duration": 23, "velocity": 85}, {"time": 2028, "pitch": 54, "duration": 10, "velocity": 90}, {"time": 2031, "pitch": 58, "duration": 5, "velocity": 71}, {"time": 2034, "pitch": 65, "duration": 20, "velocity": 72}, {"time": 2040, "pitch": 54, "duration": 9, "velocity": 59}, {"time": 2043, "pitch": 58, "duration": 7, "velocity": 65}, {"time": 2046, "pitch": 61, "duration": 7, "velocity": 90}, {"time": 2049, "pitch": 46, "duration": 12, "velocity": 72}, {"time": 2052, "pitch": 54, "duration": 7, "velocity": 86}, {"time": 2055, "pitch": 58, "duration": 4, "velocity": 62}, {"time": 2058, "pitch": 65, "duration": 13, "velocity": 73}, {"time": 2067, "pitch": 61, "duration": 6, "velocity": 96}, {"time": 2073, "pitch": 44, "duration": 22, "velocity": 92}, {"time": 2076, "pitch": 51, "duration": 10, "velocity": 83}, {"time": 2079, "pitch": 56, "duration": 8, "velocity": 90}, {"time": 2082, "pitch": 63, "duration": 23, "velocity": 117}, {"time": 2088, "pitch": 51, "duration": 11, "velocity": 53}, {"time": 2091, "pitch": 56, "duration": 13, "velocity": 78}, {"time": 2094, "pitch": 68, "duration": 11, "velocity": 95}, {"time": 2100, "pitch": 44, "duration": 14, "velocity": 86}, {"time": 2103, "pitch": 51, "duration": 8, "velocity": 83}, {"time": 2106, "pitch": 56, "duration": 4, "velocity": 89}, {"time": 2109, "pitch": 63, "duration": 11, "velocity": 112}, {"time": 2112, "pitch": 51, "duration": 4, "velocity": 60}, {"time": 2115, "pitch": 56, "duration": 3, "velocity": 96}, {"time": 2118, "pitch": 59, "duration": 2, "velocity": 79}, {"time": 2121, "pitch": 46, "duration": 40, "velocity": 93}, {"time": 2127, "pitch": 58, "duration": 2, "velocity": 117}, {"time": 2130, "pitch": 61, "duration": 9, "velocity": 127}, {"time": 2136, "pitch": 51, "duration": 5, "velocity": 77}, {"time": 2139, "pitch": 58, "duration": 3, "velocity": 95}, {"time": 2142, "pitch": 65, "duration": 9, "velocity": 99}, {"time": 2148, "pitch": 53, "duration": 6, "velocity": 63}, {"time": 2151, "pitch": 58, "duration": 4, "velocity": 112}, {"time": 2154, "pitch": 61, "duration": 9, "velocity": 117}, {"time": 2163, "pitch": 58, "duration": 4, "velocity": 127}, {"time": 2166, "pitch": 61, "duration": 2, "velocity": 117}, {"time": 2169, "pitch": 47, "duration": 41, "velocity": 112}, {"time": 2172, "pitch": 54, "duration": 11, "velocity": 117}, {"time": 2175, "pitch": 59, "duration": 5, "velocity": 107}, {"time": 2178, "pitch": 66, "duration": 9, "velocity": 127}, {"time": 2181, "pitch": 63, "duration": 6, "velocity": 122}, {"time": 2184, "pitch": 54, "duration": 16, "velocity": 93}, {"time": 2187, "pitch": 59, "duration": 8, "velocity": 90}, {"time": 2190, "pitch": 63, "duration": 5, "velocity": 112}, {"time": 2190, "pitch": 66, "duration": 5, "velocity": 117}, {"time": 2196, "pitch": 63, "duration": 6, "velocity": 112}, {"time": 2196, "pitch": 66, "duration": 6, "velocity": 107}, {"time": 2202, "pitch": 54, "duration": 4, "velocity": 97}, {"time": 2205, "pitch": 63, "duration": 6, "velocity": 127}, {"time": 2205, "pitch": 66, "duration": 6, "velocity": 127}, {"time": 2208, "pitch": 54, "duration": 2, "velocity": 99}, {"time": 2211, "pitch": 59, "duration": 6, "velocity": 127}, {"time": 2217, "pitch": 46, "duration": 22, "velocity": 100}, {"time": 2223, "pitch": 58, "duration": 4, "velocity": 79}, {"time": 2229, "pitch": 58, "duration": 7, "velocity": 102}, {"time": 2229, "pitch": 61, "duration": 7, "velocity": 127}, {"time": 2229, "pitch": 65, "duration": 8, "velocity": 97}, {"time": 2229, "pitch": 66, "duration": 1, "velocity": 75}, {"time": 2235, "pitch": 53, "duration": 4, "velocity": 61}, {"time": 2238, "pitch": 58, "duration": 2, "velocity": 107}, {"time": 2238, "pitch": 61, "duration": 2, "velocity": 70}, {"time": 2238, "pitch": 65, "duration": 1, "velocity": 50}, {"time": 2241, "pitch": 51, "duration": 15, "velocity": 127}, {"time": 2247, "pitch": 63, "duration": 5, "velocity": 96}, {"time": 2253, "pitch": 55, "duration": 2, "velocity": 48}, {"time": 2253, "pitch": 58, "duration": 3, "velocity": 65}, {"time": 2253, "pitch": 67, "duration": 10, "velocity": 100}, {"time": 2253, "pitch": 70, "duration": 11, "velocity": 122}, {"time": 2259, "pitch": 63, "duration": 5, "velocity": 102}, {"time": 2265, "pitch": 44, "duration": 22, "velocity": 96}, {"time": 2268, "pitch": 56, "duration": 9, "velocity": 85}, {"time": 2271, "pitch": 59, "duration": 10, "velocity": 89}, {"time": 2274, "pitch": 63, "duration": 15, "velocity": 122}, {"time": 2280, "pitch": 56, "duration": 4, "velocity": 99}, {"time": 2283, "pitch": 68, "duration": 6, "velocity": 117}, {"time": 2286, "pitch": 59, "duration": 3, "velocity": 95}, {"time": 2289, "pitch": 47, "duration": 18, "velocity": 73}, {"time": 2289, "pitch": 59, "duration": 6, "velocity": 99}, {"time": 2289, "pitch": 63, "duration": 7, "velocity": 122}, {"time": 2289, "pitch": 66, "duration": 6, "velocity": 102}, {"time": 2289, "pitch": 69, "duration": 7, "velocity": 92}, {"time": 2295, "pitch": 54, "duration": 8, "velocity": 44}, {"time": 2301, "pitch": 59, "duration": 5, "velocity": 99}, {"time": 2301, "pitch": 63, "duration": 5, "velocity": 127}, {"time": 2301, "pitch": 66, "duration": 5, "velocity": 107}, {"time": 2301, "pitch": 69, "duration": 5, "velocity": 92}, {"time": 2307, "pitch": 54, "duration": 4, "velocity": 95}, {"time": 2313, "pitch": 49, "duration": 22, "velocity": 86}, {"time": 2313, "pitch": 61, "duration": 6, "velocity": 102}, {"time": 2313, "pitch": 68, "duration": 6, "velocity": 127}, {"time": 2319, "pitch": 56, "duration": 7, "velocity": 97}, {"time": 2325, "pitch": 65, "duration": 6, "velocity": 127}, {"time": 2325, "pitch": 68, "duration": 6, "velocity": 127}, {"time": 2328, "pitch": 56, "duration": 4, "velocity": 107}, {"time": 2331, "pitch": 61, "duration": 3, "velocity": 97}, {"time": 2334, "pitch": 65, "duration": 1, "velocity": 30}, {"time": 2337, "pitch": 49, "duration": 13, "velocity": 99}, {"time": 2337, "pitch": 61, "duration": 10, "velocity": 100}, {"time": 2337, "pitch": 65, "duration": 10, "velocity": 117}, {"time": 2337, "pitch": 68, "duration": 9, "velocity": 122}, {"time": 2349, "pitch": 68, "duration": 8, "velocity": 127}, {"time": 2352, "pitch": 49, "duration": 7, "velocity": 112}, {"time": 2355, "pitch": 61, "duration": 5, "velocity": 117}, {"time": 2358, "pitch": 65, "duration": 3, "velocity": 70}, {"time": 2358, "pitch": 68, "duration": 3, "velocity": 75}, {"time": 2361, "pitch": 42, "duration": 22, "velocity": 96}, {"time": 2364, "pitch": 49, "duration": 20, "velocity": 70}, {"time": 2367, "pitch": 54, "duration": 6, "velocity": 117}, {"time": 2370, "pitch": 58, "duration": 4, "velocity": 107}, {"time": 2373, "pitch": 66, "duration": 9, "velocity": 127}, {"time": 2376, "pitch": 54, "duration": 7, "velocity": 102}, {"time": 2379, "pitch": 58, "duration": 5, "velocity": 117}, {"time": 2382, "pitch": 61, "duration": 8, "velocity": 127}, {"time": 2385, "pitch": 42, "duration": 16, "velocity": 92}, {"time": 2388, "pitch": 49, "duration": 13, "velocity": 81}, {"time": 2391, "pitch": 54, "duration": 6, "velocity": 107}, {"time": 2394, "pitch": 58, "duration": 4, "velocity": 96}, {"time": 2397, "pitch": 66, "duration": 7, "velocity": 127}, {"time": 2400, "pitch": 54, "duration": 1, "velocity": 102}, {"time": 2403, "pitch": 61, "duration": 2, "velocity": 117}, {"time": 2406, "pitch": 58, "duration": 3, "velocity": 117}, {"time": 2409, "pitch": 39, "duration": 22, "velocity": 100}, {"time": 2412, "pitch": 46, "duration": 20, "velocity": 71}, {"time": 2415, "pitch": 51, "duration": 7, "velocity": 95}, {"time": 2418, "pitch": 54, "duration": 3, "velocity": 99}, {"time": 2421, "pitch": 63, "duration": 12, "velocity": 127}, {"time": 2424, "pitch": 51, "duration": 7, "velocity": 117}, {"time": 2427, "pitch": 58, "duration": 4, "velocity": 99}, {"time": 2430, "pitch": 54, "duration": 2, "velocity": 102}, {"time": 2433, "pitch": 40, "duration": 10, "velocity": 96}, {"time": 2436, "pitch": 54, "duration": 10, "velocity": 96}, {"time": 2439, "pitch": 58, "duration": 7, "velocity": 117}, {"time": 2442, "pitch": 61, "duration": 2, "velocity": 86}, {"time": 2445, "pitch": 42, "duration": 10, "velocity": 112}, {"time": 2448, "pitch": 54, "duration": 6, "velocity": 97}, {"time": 2451, "pitch": 58, "duration": 5, "velocity": 95}, {"time": 2454, "pitch": 61, "duration": 3, "velocity": 112}, {"time": 2457, "pitch": 47, "duration": 16, "velocity": 75}, {"time": 2460, "pitch": 54, "duration": 10, "velocity": 112}, {"time": 2463, "pitch": 59, "duration": 7, "velocity": 88}, {"time": 2466, "pitch": 63, "duration": 3, "velocity": 127}, {"time": 2469, "pitch": 66, "duration": 10, "velocity": 127}, {"time": 2472, "pitch": 54, "duration": 1, "velocity": 100}, {"time": 2475, "pitch": 63, "duration": 6, "velocity": 122}, {"time": 2478, "pitch": 59, "duration": 2, "velocity": 107}, {"time": 2481, "pitch": 44, "duration": 21, "velocity": 96}, {"time": 2487, "pitch": 56, "duration": 7, "velocity": 117}, {"time": 2490, "pitch": 59, "duration": 3, "velocity": 71}, {"time": 2493, "pitch": 63, "duration": 7, "velocity": 127}, {"time": 2496, "pitch": 56, "duration": 4, "velocity": 112}, {"time": 2499, "pitch": 59, "duration": 4, "velocity": 100}, {"time": 2502, "pitch": 63, "duration": 2, "velocity": 127}, {"time": 2505, "pitch": 49, "duration": 13, "velocity": 117}, {"time": 2508, "pitch": 56, "duration": 4, "velocity": 92}, {"time": 2511, "pitch": 61, "duration": 6, "velocity": 77}, {"time": 2514, "pitch": 56, "duration": 4, "velocity": 86}, {"time": 2517, "pitch": 65, "duration": 9, "velocity": 74}, {"time": 2520, "pitch": 49, "duration": 8, "velocity": 79}, {"time": 2523, "pitch": 63, "duration": 5, "velocity": 122}, {"time": 2526, "pitch": 61, "duration": 5, "velocity": 107}, {"time": 2529, "pitch": 49, "duration": 13, "velocity": 107}, {"time": 2532, "pitch": 56, "duration": 3, "velocity": 73}, {"time": 2535, "pitch": 61, "duration": 5, "velocity": 97}, {"time": 2538, "pitch": 56, "duration": 4, "velocity": 78}, {"time": 2541, "pitch": 65, "duration": 7, "velocity": 81}, {"time": 2544, "pitch": 56, "duration": 3, "velocity": 92}, {"time": 2547, "pitch": 63, "duration": 3, "velocity": 117}, {"time": 2550, "pitch": 61, "duration": 2, "velocity": 117}, {"time": 2553, "pitch": 42, "duration": 22, "velocity": 85}, {"time": 2556, "pitch": 49, "duration": 20, "velocity": 86}, {"time": 2559, "pitch": 54, "duration": 6, "velocity": 122}, {"time": 2562, "pitch": 58, "duration": 4, "velocity": 102}, {"time": 2565, "pitch": 66, "duration": 17, "velocity": 127}, {"time": 2568, "pitch": 54, "duration": 12, "velocity": 99}, {"time": 2571, "pitch": 61, "duration": 12, "velocity": 117}, {"time": 2574, "pitch": 58, "duration": 9, "velocity": 112}, {"time": 2577, "pitch": 42, "duration": 18, "velocity": 97}, {"time": 2580, "pitch": 49, "duration": 14, "velocity": 92}, {"time": 2583, "pitch": 54, "duration": 6, "velocity": 95}, {"time": 2586, "pitch": 58, "duration": 4, "velocity": 97}, {"time": 2589, "pitch": 66, "duration": 11, "velocity": 122}, {"time": 2592, "pitch": 54, "duration": 2, "velocity": 107}, {"time": 2595, "pitch": 61, "duration": 5, "velocity": 127}, {"time": 2598, "pitch": 58, "duration": 2, "velocity": 117}, {"time": 2601, "pitch": 39, "duration": 22, "velocity": 102}, {"time": 2604, "pitch": 51, "duration": 5, "velocity": 95}, {"time": 2607, "pitch": 54, "duration": 4, "velocity": 88}, {"time": 2610, "pitch": 58, "duration": 2, "velocity": 38}, {"time": 2613, "pitch": 63, "duration": 12, "velocity": 122}, {"time": 2616, "pitch": 51, "duration": 9, "velocity": 90}, {"time": 2619, "pitch": 58, "duration": 6, "velocity": 112}, {"time": 2622, "pitch": 54, "duration": 3, "velocity": 117}, {"time": 2625, "pitch": 49, "duration": 8, "velocity": 95}, {"time": 2625, "pitch": 56, "duration": 3, "velocity": 95}, {"time": 2625, "pitch": 61, "duration": 3, "velocity": 95}, {"time": 2628, "pitch": 52, "duration": 9, "velocity": 93}, {"time": 2631, "pitch": 56, "duration": 3, "velocity": 93}, {"time": 2634, "pitch": 61, "duration": 5, "velocity": 102}, {"time": 2637, "pitch": 40, "duration": 9, "velocity": 102}, {"time": 2640, "pitch": 54, "duration": 5, "velocity": 100}, {"time": 2643, "pitch": 58, "duration": 3, "velocity": 127}, {"time": 2646, "pitch": 61, "duration": 4, "velocity": 112}, {"time": 2649, "pitch": 47, "duration": 16, "velocity": 95}, {"time": 2652, "pitch": 54, "duration": 10, "velocity": 117}, {"time": 2655, "pitch": 59, "duration": 6, "velocity": 93}, {"time": 2658, "pitch": 63, "duration": 3, "velocity": 127}, {"time": 2661, "pitch": 66, "duration": 9, "velocity": 127}, {"time": 2664, "pitch": 54, "duration": 1, "velocity": 97}, {"time": 2667, "pitch": 63, "duration": 9, "velocity": 122}, {"time": 2670, "pitch": 59, "duration": 5, "velocity": 100}, {"time": 2673, "pitch": 44, "duration": 11, "velocity": 93}, {"time": 2676, "pitch": 51, "duration": 8, "velocity": 37}, {"time": 2679, "pitch": 56, "duration": 4, "velocity": 96}, {"time": 2682, "pitch": 59, "duration": 2, "velocity": 90}, {"time": 2685, "pitch": 49, "duration": 5, "velocity": 117}, {"time": 2688, "pitch": 56, "duration": 3, "velocity": 81}, {"time": 2691, "pitch": 61, "duration": 6, "velocity": 122}, {"time": 2694, "pitch": 65, "duration": 3, "velocity": 73}, {"time": 2697, "pitch": 42, "duration": 22, "velocity": 74}, {"time": 2700, "pitch": 49, "duration": 21, "velocity": 70}, {"time": 2703, "pitch": 54, "duration": 6, "velocity": 90}, {"time": 2706, "pitch": 58, "duration": 3, "velocity": 100}, {"time": 2709, "pitch": 66, "duration": 33, "velocity": 102}, {"time": 2712, "pitch": 54, "duration": 30, "velocity": 92}, {"time": 2715, "pitch": 61, "duration": 15, "velocity": 100}, {"time": 2718, "pitch": 58, "duration": 22, "velocity": 97}, {"time": 2721, "pitch": 42, "duration": 21, "velocity": 95}, {"time": 2733, "pitch": 61, "duration": 4, "velocity": 12}, {"time": 2745, "pitch": 42, "duration": 39, "velocity": 82}, {"time": 2751, "pitch": 54, "duration": 8, "velocity": 78}, {"time": 2757, "pitch": 66, "duration": 18, "velocity": 100}, {"time": 2763, "pitch": 61, "duration": 13, "velocity": 45}, {"time": 2766, "pitch": 58, "duration": 7, "velocity": 54}, {"time": 2769, "pitch": 54, "duration": 11, "velocity": 66}, {"time": 2778, "pitch": 58, "duration": 4, "velocity": 68}, {"time": 2781, "pitch": 66, "duration": 10, "velocity": 127}, {"time": 2784, "pitch": 61, "duration": 2, "velocity": 74}, {"time": 2787, "pitch": 58, "duration": 4, "velocity": 95}, {"time": 2790, "pitch": 61, "duration": 3, "velocity": 90}, {"time": 2793, "pitch": 39, "duration": 23, "velocity": 88}, {"time": 2796, "pitch": 46, "duration": 21, "velocity": 63}, {"time": 2799, "pitch": 51, "duration": 31, "velocity": 83}, {"time": 2802, "pitch": 63, "duration": 21, "velocity": 93}, {"time": 2811, "pitch": 58, "duration": 13, "velocity": 96}, {"time": 2817, "pitch": 39, "duration": 16, "velocity": 63}, {"time": 2817, "pitch": 54, "duration": 10, "velocity": 90}, {"time": 2829, "pitch": 58, "duration": 4, "velocity": 112}, {"time": 2829, "pitch": 63, "duration": 4, "velocity": 100}, {"time": 2841, "pitch": 44, "duration": 18, "velocity": 112}, {"time": 2847, "pitch": 51, "duration": 11, "velocity": 56}, {"time": 2853, "pitch": 56, "duration": 4, "velocity": 81}, {"time": 2853, "pitch": 63, "duration": 13, "velocity": 85}, {"time": 2853, "pitch": 68, "duration": 13, "velocity": 93}, {"time": 2859, "pitch": 59, "duration": 7, "velocity": 85}, {"time": 2865, "pitch": 37, "duration": 60, "velocity": 112}, {"time": 2871, "pitch": 49, "duration": 54, "velocity": 90}, {"time": 2877, "pitch": 53, "duration": 48, "velocity": 89}, {"time": 2883, "pitch": 56, "duration": 42, "velocity": 82}, {"time": 2889, "pitch": 61, "duration": 36, "velocity": 89}, {"time": 2925, "pitch": 42, "duration": 29, "velocity": 99}, {"time": 2925, "pitch": 54, "duration": 30, "velocity": 85}, {"time": 2925, "pitch": 58, "duration": 29, "velocity": 82}, {"time": 2925, "pitch": 61, "duration": 1, "velocity": 83}, {"time": 2961, "pitch": 42, "duration": 34, "velocity": 81}, {"time": 2961, "pitch": 54, "duration": 33, "velocity": 73}, {"time": 2961, "pitch": 66, "duration": 41, "velocity": 62}, {"time": 2961, "pitch": 70, "duration": 45, "velocity": 61}, {"time": 2961, "pitch": 73, "duration": 46, "velocity": 66}, {"time": 3009, "pitch": 41, "duration": 29, "velocity": 37}, {"time": 3009, "pitch": 53, "duration": 27, "velocity": 41}, {"time": 3009, "pitch": 65, "duration": 29, "velocity": 72}, {"time": 3009, "pitch": 70, "duration": 29, "velocity": 66}, {"time": 3009, "pitch": 73, "duration": 30, "velocity": 63}, {"time": 3057, "pitch": 47, "duration": 23, "velocity": 60}, {"time": 3057, "pitch": 54, "duration": 23, "velocity": 88}, {"time": 3057, "pitch": 59, "duration": 43, "velocity": 78}, {"time": 3057, "pitch": 63, "duration": 42, "velocity": 82}, {"time": 3057, "pitch": 66, "duration": 41, "velocity": 82}, {"time": 3105, "pitch": 44, "duration": 39, "velocity": 95}, {"time": 3105, "pitch": 56, "duration": 38, "velocity": 86}, {"time": 3105, "pitch": 59, "duration": 38, "velocity": 83}, {"time": 3105, "pitch": 63, "duration": 38, "velocity": 74}, {"time": 3153, "pitch": 37, "duration": 49, "velocity": 59}, {"time": 3153, "pitch": 49, "duration": 47, "velocity": 61}, {"time": 3153, "pitch": 56, "duration": 37, "velocity": 68}, {"time": 3153, "pitch": 61, "duration": 35, "velocity": 66}, {"time": 3153, "pitch": 65, "duration": 20, "velocity": 41}, {"time": 3177, "pitch": 65, "duration": 8, "velocity": 35}, {"time": 3189, "pitch": 61, "duration": 11, "velocity": 52}, {"time": 3189, "pitch": 65, "duration": 11, "velocity": 56}, {"time": 3195, "pitch": 56, "duration": 6, "velocity": 52}, {"time": 3201, "pitch": 37, "duration": 1, "velocity": 60}, {"time": 3201, "pitch": 49, "duration": 43, "velocity": 58}, {"time": 3201, "pitch": 61, "duration": 44, "velocity": 41}, {"time": 3201, "pitch": 65, "duration": 44, "velocity": 55}, {"time": 3201, "pitch": 68, "duration": 45, "velocity": 51}], "annotations": [{"time": 72, "annotation": {"number": 64, "value": 127}, "group": "control_change"}, {"time": 103, "annotation": {"number": 64, "value": 0}, "group": "control_change"}, {"time": 114, "annotation": {"number": 64, "value": 127}, "group": "control_change"}, {"time": 151, "annotation": {"number": 64, "value": 0}, "group": "control_change"}, {"time": 165, "annotation": {"number": 64, "value": 127}, "group": "control_change"}, {"time": 196, "annotation": {"number": 64, "value": 0}, "group": "control_change"}, {"time": 203, "annotation": {"number": 64, "value": 127}, "group": "control_change"}, {"time": 245, "annotation": {"number": 64, "value": 0}, "group": "control_change"}, {"time": 252, "annotation": {"number": 64, "value": 127}, "group": "control_change"}, {"time": 272, "annotation": {"number": 64, "value": 0}, "group": "control_change"}, {"time": 277, "annotation": {"number": 64, "value": 127}, "group": "control_change"}, {"time": 294, "annotation": {"number": 64, "value": 0}, "group": "control_change"}, {"time": 298, "annotation": {"number": 64, "value": 127}, "group": "control_change"}, {"time": 343, "annotation": {"number": 64, "value": 0}, "group": "control_change"}, {"time": 346, "annotation": {"number": 64, "value": 127}, "group": "control_change"}, {"time": 367, "annotation": {"number": 64, "value": 0}, "group": "control_change"}, {"time": 369, "annotation": {"number": 64, "value": 127}, "group": "control_change"}, {"time": 391, "annotation": {"number": 64, "value": 0}, "group": "control_change"}, {"time": 392, "annotation": {"number": 64, "value": 127}, "group": "control_change"}, {"time": 439, "annotation": {"number": 64, "value": 0}, "group": "control_change"}, {"time": 441, "annotation": {"number": 64, "value": 127}, "group": "control_change"}, {"time": 464, "annotation": {"number": 64, "value": 0}, "group": "control_change"}, {"time": 464, "annotation": {"number": 64, "value": 127}, "group": "control_change"}, {"time": 487, "annotation": {"number": 64, "value": 0}, "group": "control_change"}, {"time": 489, "annotation": {"number": 64, "value": 127}, "group": "control_change"}, {"time": 534, "annotation": {"number": 64, "value": 0}, "group": "control_change"}, {"time": 537, "annotation": {"number": 64, "value": 127}, "group": "control_change"}, {"time": 559, "annotation": {"number": 64, "value": 0}, "group": "control_change"}, {"time": 562, "annotation": {"number": 64, "value": 127}, "group": "control_change"}, {"time": 583, "annotation": {"number": 64, "value": 0}, "group": "control_change"}, {"time": 585, "annotation": {"number": 64, "value": 127}, "group": "control_change"}, {"time": 631, "annotation": {"number": 64, "value": 0}, "group": "control_change"}, {"time": 633, "annotation": {"number": 64, "value": 127}, "group": "control_change"}, {"time": 679, "annotation": {"number": 64, "value": 0}, "group": "control_change"}, {"time": 683, "annotation": {"number": 64, "value": 127}, "group": "control_change"}, {"time": 703, "annotation": {"number": 64, "value": 0}, "group": "control_change"}, {"time": 705, "annotation": {"number": 64, "value": 127}, "group": "control_change"}, {"time": 727, "annotation": {"number": 64, "value": 0}, "group": "control_change"}, {"time": 730, "annotation": {"number": 64, "value": 127}, "group": "control_change"}, {"time": 750, "annotation": {"number": 64, "value": 0}, "group": "control_change"}, {"time": 753, "annotation": {"number": 64, "value": 127}, "group": "control_change"}, {"time": 775, "annotation": {"number": 64, "value": 0}, "group": "control_change"}, {"time": 777, "annotation": {"number": 64, "value": 127}, "group": "control_change"}, {"time": 800, "annotation": {"number": 64, "value": 0}, "group": "control_change"}, {"time": 802, "annotation": {"number": 64, "value": 127}, "group": "control_change"}, {"time": 820, "annotation": {"number": 64, "value": 0}, "group": "control_change"}, {"time": 825, "annotation": {"number": 64, "value": 127}, "group": "control_change"}, {"time": 848, "annotation": {"number": 64, "value": 0}, "group": "control_change"}, {"time": 848, "annotation": {"number": 64, "value": 127}, "group": "control_change"}, {"time": 871, "annotation": {"number": 64, "value": 0}, "group": "control_change"}, {"time": 873, "annotation": {"number": 64, "value": 127}, "group": "control_change"}, {"time": 918, "annotation": {"number": 64, "value": 0}, "group": "control_change"}, {"time": 921, "annotation": {"number": 64, "value": 127}, "group": "control_change"}, {"time": 943, "annotation": {"number": 64, "value": 0}, "group": "control_change"}, {"time": 946, "annotation": {"number": 64, "value": 127}, "group": "control_change"}, {"time": 967, "annotation": {"number": 64, "value": 0}, "group": "control_change"}, {"time": 969, "annotation": {"number": 64, "value": 127}, "group": "control_change"}, {"time": 1015, "annotation": {"number": 64, "value": 0}, "group": "control_change"}, {"time": 1017, "annotation": {"number": 64, "value": 127}, "group": "control_change"}, {"time": 1063, "annotation": {"number": 64, "value": 0}, "group": "control_change"}, {"time": 1067, "annotation": {"number": 64, "value": 127}, "group": "control_change"}, {"time": 1087, "annotation": {"number": 64, "value": 0}, "group": "control_change"}, {"time": 1089, "annotation": {"number": 64, "value": 127}, "group": "control_change"}, {"time": 1111, "annotation": {"number": 64, "value": 0}, "group": "control_change"}, {"time": 1112, "annotation": {"number": 64, "value": 127}, "group": "control_change"}, {"time": 1124, "annotation": {"number": 64, "value": 0}, "group": "control_change"}, {"time": 1127, "annotation": {"number": 64, "value": 127}, "group": "control_change"}, {"time": 1135, "annotation": {"number": 64, "value": 0}, "group": "control_change"}, {"time": 1140, "annotation": {"number": 64, "value": 127}, "group": "control_change"}, {"time": 1148, "annotation": {"number": 64, "value": 0}, "group": "control_change"}, {"time": 1161, "annotation": {"number": 64, "value": 127}, "group": "control_change"}, {"time": 1181, "annotation": {"number": 64, "value": 0}, "group": "control_change"}, {"time": 1209, "annotation": {"number": 64, "value": 127}, "group": "control_change"}, {"time": 1229, "annotation": {"number": 64, "value": 0}, "group": "control_change"}, {"time": 1247, "annotation": {"number": 64, "value": 127}, "group": "control_change"}, {"time": 1252, "annotation": {"number": 64, "value": 0}, "group": "control_change"}, {"time": 1258, "annotation": {"number": 64, "value": 127}, "group": "control_change"}, {"time": 1278, "annotation": {"number": 64, "value": 0}, "group": "control_change"}, {"time": 1305, "annotation": {"number": 64, "value": 127}, "group": "control_change"}, {"time": 1325, "annotation": {"number": 64, "value": 0}, "group": "control_change"}, {"time": 1330, "annotation": {"number": 64, "value": 127}, "group": "control_change"}, {"time": 1333, "annotation": {"number": 64, "value": 0}, "group": "control_change"}, {"time": 1353, "annotation": {"number": 64, "value": 127}, "group": "control_change"}, {"time": 1372, "annotation": {"number": 64, "value": 0}, "group": "control_change"}, {"time": 1377, "annotation": {"number": 64, "value": 127}, "group": "control_change"}, {"time": 1396, "annotation": {"number": 64, "value": 0}, "group": "control_change"}, {"time": 1401, "annotation": {"number": 64, "value": 127}, "group": "control_change"}, {"time": 1423, "annotation": {"number": 64, "value": 0}, "group": "control_change"}, {"time": 1425, "annotation": {"number": 64, "value": 127}, "group": "control_change"}, {"time": 1445, "annotation": {"number": 64, "value": 0}, "group": "control_change"}, {"time": 1453, "annotation": {"number": 64, "value": 127}, "group": "control_change"}, {"time": 1468, "annotation": {"number": 64, "value": 0}, "group": "control_change"}, {"time": 1473, "annotation": {"number": 64, "value": 127}, "group": "control_change"}, {"time": 1483, "annotation": {"number": 64, "value": 0}, "group": "control_change"}, {"time": 1489, "annotation": {"number": 64, "value": 127}, "group": "control_change"}, {"time": 1493, "annotation": {"number": 64, "value": 0}, "group": "control_change"}, {"time": 1497, "annotation": {"number": 64, "value": 127}, "group": "control_change"}, {"time": 1516, "annotation": {"number": 64, "value": 0}, "group": "control_change"}, {"time": 1522, "annotation": {"number": 64, "value": 127}, "group": "control_change"}, {"time": 1529, "annotation": {"number": 64, "value": 0}, "group": "control_change"}, {"time": 1533, "annotation": {"number": 64, "value": 127}, "group": "control_change"}, {"time": 1543, "annotation": {"number": 64, "value": 0}, "group": "control_change"}, {"time": 1546, "annotation": {"number": 64, "value": 127}, "group": "control_change"}, {"time": 1565, "annotation": {"number": 64, "value": 0}, "group": "control_change"}, {"time": 1594, "annotation": {"number": 64, "value": 127}, "group": "control_change"}, {"time": 1615, "annotation": {"number": 64, "value": 0}, "group": "control_change"}, {"time": 1617, "annotation": {"number": 64, "value": 127}, "group": "control_change"}, {"time": 1639, "annotation": {"number": 64, "value": 0}, "group": "control_change"}, {"time": 1648, "annotation": {"number": 64, "value": 127}, "group": "control_change"}, {"time": 1661, "annotation": {"number": 64, "value": 0}, "group": "control_change"}, {"time": 1667, "annotation": {"number": 64, "value": 127}, "group": "control_change"}, {"time": 1685, "annotation": {"number": 64, "value": 0}, "group": "control_change"}, {"time": 1689, "annotation": {"number": 64, "value": 127}, "group": "control_change"}, {"time": 1710, "annotation": {"number": 64, "value": 0}, "group": "control_change"}, {"time": 1714, "annotation": {"number": 64, "value": 127}, "group": "control_change"}, {"time": 1733, "annotation": {"number": 64, "value": 0}, "group": "control_change"}, {"time": 1737, "annotation": {"number": 64, "value": 127}, "group": "control_change"}, {"time": 1782, "annotation": {"number": 64, "value": 0}, "group": "control_change"}, {"time": 1789, "annotation": {"number": 64, "value": 127}, "group": "control_change"}, {"time": 1805, "annotation": {"number": 64, "value": 0}, "group": "control_change"}, {"time": 1810, "annotation": {"number": 64, "value": 127}, "group": "control_change"}, {"time": 1830, "annotation": {"number": 64, "value": 0}, "group": "control_change"}, {"time": 1833, "annotation": {"number": 64, "value": 127}, "group": "control_change"}, {"time": 1855, "annotation": {"number": 64, "value": 0}, "group": "control_change"}, {"time": 1858, "annotation": {"number": 64, "value": 127}, "group": "control_change"}, {"time": 1878, "annotation": {"number": 64, "value": 0}, "group": "control_change"}, {"time": 1882, "annotation": {"number": 64, "value": 127}, "group": "control_change"}, {"time": 1903, "annotation": {"number": 64, "value": 0}, "group": "control_change"}, {"time": 1907, "annotation": {"number": 64, "value": 127}, "group": "control_change"}, {"time": 1915, "annotation": {"number": 64, "value": 0}, "group": "control_change"}, {"time": 1920, "annotation": {"number": 64, "value": 127}, "group": "control_change"}, {"time": 1925, "annotation": {"number": 64, "value": 0}, "group": "control_change"}, {"time": 1930, "annotation": {"number": 64, "value": 127}, "group": "control_change"}, {"time": 1949, "annotation": {"number": 64, "value": 0}, "group": "control_change"}, {"time": 1977, "annotation": {"number": 64, "value": 127}, "group": "control_change"}, {"time": 1999, "annotation": {"number": 64, "value": 0}, "group": "control_change"}, {"time": 2001, "annotation": {"number": 64, "value": 127}, "group": "control_change"}, {"time": 2023, "annotation": {"number": 64, "value": 0}, "group": "control_change"}, {"time": 2025, "annotation": {"number": 64, "value": 127}, "group": "control_change"}, {"time": 2046, "annotation": {"number": 64, "value": 0}, "group": "control_change"}, {"time": 2048, "annotation": {"number": 64, "value": 127}, "group": "control_change"}, {"time": 2071, "annotation": {"number": 64, "value": 0}, "group": "control_change"}, {"time": 2073, "annotation": {"number": 64, "value": 127}, "group": "control_change"}, {"time": 2118, "annotation": {"number": 64, "value": 0}, "group": "control_change"}, {"time": 2121, "annotation": {"number": 64, "value": 127}, "group": "control_change"}, {"time": 2167, "annotation": {"number": 64, "value": 0}, "group": "control_change"}, {"time": 2169, "annotation": {"number": 64, "value": 127}, "group": "control_change"}, {"time": 2190, "annotation": {"number": 64, "value": 0}, "group": "control_change"}, {"time": 2193, "annotation": {"number": 64, "value": 127}, "group": "control_change"}, {"time": 2215, "annotation": {"number": 64, "value": 0}, "group": "control_change"}, {"time": 2217, "annotation": {"number": 64, "value": 127}, "group": "control_change"}, {"time": 2239, "annotation": {"number": 64, "value": 0}, "group": "control_change"}, {"time": 2247, "annotation": {"number": 64, "value": 127}, "group": "control_change"}, {"time": 2263, "annotation": {"number": 64, "value": 0}, "group": "control_change"}, {"time": 2265, "annotation": {"number": 64, "value": 127}, "group": "control_change"}, {"time": 2287, "annotation": {"number": 64, "value": 0}, "group": "control_change"}, {"time": 2290, "annotation": {"number": 64, "value": 127}, "group": "control_change"}, {"time": 2310, "annotation": {"number": 64, "value": 0}, "group": "control_change"}, {"time": 2314, "annotation": {"number": 64, "value": 127}, "group": "control_change"}, {"time": 2334, "annotation": {"number": 64, "value": 0}, "group": "control_change"}, {"time": 2343, "annotation": {"number": 64, "value": 127}, "group": "control_change"}, {"time": 2350, "annotation": {"number": 64, "value": 0}, "group": "control_change"}, {"time": 2361, "annotation": {"number": 64, "value": 127}, "group": "control_change"}, {"time": 2381, "annotation": {"number": 64, "value": 0}, "group": "control_change"}, {"time": 2399, "annotation": {"number": 64, "value": 127}, "group": "control_change"}, {"time": 2404, "annotation": {"number": 64, "value": 0}, "group": "control_change"}, {"time": 2410, "annotation": {"number": 64, "value": 127}, "group": "control_change"}, {"time": 2430, "annotation": {"number": 64, "value": 0}, "group": "control_change"}, {"time": 2433, "annotation": {"number": 64, "value": 127}, "group": "control_change"}, {"time": 2444, "annotation": {"number": 64, "value": 0}, "group": "control_change"}, {"time": 2457, "annotation": {"number": 64, "value": 127}, "group": "control_change"}, {"time": 2477, "annotation": {"number": 64, "value": 0}, "group": "control_change"}, {"time": 2482, "annotation": {"number": 64, "value": 127}, "group": "control_change"}, {"time": 2485, "annotation": {"number": 64, "value": 0}, "group": "control_change"}, {"time": 2505, "annotation": {"number": 64, "value": 127}, "group": "control_change"}, {"time": 2524, "annotation": {"number": 64, "value": 0}, "group": "control_change"}, {"time": 2529, "annotation": {"number": 64, "value": 127}, "group": "control_change"}, {"time": 2548, "annotation": {"number": 64, "value": 0}, "group": "control_change"}, {"time": 2553, "annotation": {"number": 64, "value": 127}, "group": "control_change"}, {"time": 2575, "annotation": {"number": 64, "value": 0}, "group": "control_change"}, {"time": 2577, "annotation": {"number": 64, "value": 127}, "group": "control_change"}, {"time": 2597, "annotation": {"number": 64, "value": 0}, "group": "control_change"}, {"time": 2605, "annotation": {"number": 64, "value": 127}, "group": "control_change"}, {"time": 2620, "annotation": {"number": 64, "value": 0}, "group": "control_change"}, {"time": 2625, "annotation": {"number": 64, "value": 127}, "group": "control_change"}, {"time": 2635, "annotation": {"number": 64, "value": 0}, "group": "control_change"}, {"time": 2641, "annotation": {"number": 64, "value": 127}, "group": "control_change"}, {"time": 2645, "annotation": {"number": 64, "value": 0}, "group": "control_change"}, {"time": 2649, "annotation": {"number": 64, "value": 127}, "group": "control_change"}, {"time": 2668, "annotation": {"number": 64, "value": 0}, "group": "control_change"}, {"time": 2674, "annotation": {"number": 64, "value": 127}, "group": "control_change"}, {"time": 2681, "annotation": {"number": 64, "value": 0}, "group": "control_change"}, {"time": 2685, "annotation": {"number": 64, "value": 127}, "group": "control_change"}, {"time": 2695, "annotation": {"number": 64, "value": 0}, "group": "control_change"}, {"time": 2698, "annotation": {"number": 64, "value": 127}, "group": "control_change"}, {"time": 2717, "annotation": {"number": 64, "value": 0}, "group": "control_change"}, {"time": 2745, "annotation": {"number": 64, "value": 127}, "group": "control_change"}, {"time": 2792, "annotation": {"number": 64, "value": 0}, "group": "control_change"}, {"time": 2793, "annotation": {"number": 64, "value": 127}, "group": "control_change"}, {"time": 2841, "annotation": {"number": 64, "value": 127}, "group": "control_change"}, {"time": 2863, "annotation": {"number": 64, "value": 0}, "group": "control_change"}, {"time": 2866, "annotation": {"number": 64, "value": 127}, "group": "control_change"}, {"time": 2926, "annotation": {"number": 64, "value": 0}, "group": "control_change"}, {"time": 2926, "annotation": {"number": 64, "value": 127}, "group": "control_change"}, {"time": 2976, "annotation": {"number": 64, "value": 127}, "group": "control_change"}, {"time": 3007, "annotation": {"number": 64, "value": 0}, "group": "control_change"}, {"time": 3018, "annotation": {"number": 64, "value": 127}, "group": "control_change"}, {"time": 3055, "annotation": {"number": 64, "value": 0}, "group": "control_change"}, {"time": 3069, "annotation": {"number": 64, "value": 127}, "group": "control_change"}, {"time": 3100, "annotation": {"number": 64, "value": 0}, "group": "control_change"}, {"time": 3107, "annotation": {"number": 64, "value": 127}, "group": "control_change"}, {"time": 3149, "annotation": {"number": 64, "value": 0}, "group": "control_change"}, {"time": 3154, "annotation": {"number": 64, "value": 127}, "group": "control_change"}, {"time": 3196, "annotation": {"number": 64, "value": 0}, "group": "control_change"}, {"time": 3214, "annotation": {"number": 64, "value": 127}, "group": "control_change"}, {"time": 3223, "annotation": {"number": 64, "value": 0}, "group": "control_change"}]}]}