{"metadata": {"schema_version": "0.2", "title": "None", "source_filename": "377.mid", "source_format": "midi"}, "resolution": 12, "tempos": [{"time": 0, "qpm": 69.02001925658537}], "time_signatures": [{"time": 0, "numerator": 1, "denominator": 4}], "tracks": [{"program": 0, "is_drum": false, "name": "MELODY", "notes": [{"time": 222, "pitch": 66, "duration": 3, "velocity": 102}, {"time": 225, "pitch": 67, "duration": 5, "velocity": 93}, {"time": 231, "pitch": 66, "duration": 2, "velocity": 86}, {"time": 234, "pitch": 64, "duration": 9, "velocity": 122}, {"time": 270, "pitch": 66, "duration": 3, "velocity": 122}, {"time": 273, "pitch": 66, "duration": 1, "velocity": 58}, {"time": 273, "pitch": 67, "duration": 3, "velocity": 97}, {"time": 279, "pitch": 66, "duration": 2, "velocity": 127}, {"time": 282, "pitch": 64, "duration": 7, "velocity": 99}, {"time": 318, "pitch": 66, "duration": 3, "velocity": 117}, {"time": 321, "pitch": 67, "duration": 4, "velocity": 102}, {"time": 327, "pitch": 66, "duration": 3, "velocity": 122}, {"time": 330, "pitch": 62, "duration": 4, "velocity": 102}, {"time": 336, "pitch": 62, "duration": 2, "velocity": 93}, {"time": 339, "pitch": 57, "duration": 3, "velocity": 90}, {"time": 345, "pitch": 55, "duration": 3, "velocity": 90}, {"time": 351, "pitch": 54, "duration": 2, "velocity": 96}, {"time": 354, "pitch": 55, "duration": 6, "velocity": 95}, {"time": 360, "pitch": 62, "duration": 2, "velocity": 97}, {"time": 363, "pitch": 62, "duration": 13, "velocity": 79}, {"time": 411, "pitch": 57, "duration": 2, "velocity": 92}, {"time": 414, "pitch": 66, "duration": 3, "velocity": 100}, {"time": 420, "pitch": 67, "duration": 3, "velocity": 107}, {"time": 423, "pitch": 66, "duration": 3, "velocity": 99}, {"time": 426, "pitch": 64, "duration": 18, "velocity": 102}, {"time": 459, "pitch": 57, "duration": 1, "velocity": 96}, {"time": 462, "pitch": 66, "duration": 2, "velocity": 107}, {"time": 465, "pitch": 67, "duration": 3, "velocity": 96}, {"time": 471, "pitch": 66, "duration": 2, "velocity": 112}, {"time": 474, "pitch": 64, "duration": 20, "velocity": 89}, {"time": 504, "pitch": 57, "duration": 1, "velocity": 96}, {"time": 507, "pitch": 57, "duration": 2, "velocity": 90}, {"time": 510, "pitch": 66, "duration": 2, "velocity": 122}, {"time": 513, "pitch": 67, "duration": 3, "velocity": 99}, {"time": 519, "pitch": 66, "duration": 2, "velocity": 107}, {"time": 522, "pitch": 62, "duration": 4, "velocity": 112}, {"time": 528, "pitch": 62, "duration": 2, "velocity": 97}, {"time": 531, "pitch": 57, "duration": 4, "velocity": 96}, {"time": 537, "pitch": 55, "duration": 4, "velocity": 88}, {"time": 543, "pitch": 54, "duration": 2, "velocity": 81}, {"time": 546, "pitch": 55, "duration": 5, "velocity": 90}, {"time": 552, "pitch": 62, "duration": 2, "velocity": 112}, {"time": 555, "pitch": 62, "duration": 16, "velocity": 112}, {"time": 582, "pitch": 57, "duration": 5, "velocity": 102}, {"time": 588, "pitch": 66, "duration": 6, "velocity": 117}, {"time": 594, "pitch": 62, "duration": 26, "velocity": 127}, {"time": 630, "pitch": 66, "duration": 6, "velocity": 127}, {"time": 636, "pitch": 67, "duration": 5, "velocity": 102}, {"time": 642, "pitch": 69, "duration": 8, "velocity": 127}, {"time": 654, "pitch": 66, "duration": 4, "velocity": 127}, {"time": 660, "pitch": 67, "duration": 2, "velocity": 107}, {"time": 663, "pitch": 69, "duration": 7, "velocity": 107}, {"time": 669, "pitch": 67, "duration": 4, "velocity": 112}, {"time": 678, "pitch": 66, "duration": 4, "velocity": 122}, {"time": 684, "pitch": 64, "duration": 2, "velocity": 100}, {"time": 687, "pitch": 66, "duration": 8, "velocity": 122}, {"time": 702, "pitch": 62, "duration": 3, "velocity": 102}, {"time": 708, "pitch": 64, "duration": 2, "velocity": 95}, {"time": 711, "pitch": 66, "duration": 4, "velocity": 107}, {"time": 717, "pitch": 64, "duration": 6, "velocity": 107}, {"time": 726, "pitch": 62, "duration": 4, "velocity": 127}, {"time": 732, "pitch": 61, "duration": 2, "velocity": 107}, {"time": 735, "pitch": 62, "duration": 13, "velocity": 97}, {"time": 750, "pitch": 62, "duration": 4, "velocity": 97}, {"time": 756, "pitch": 62, "duration": 2, "velocity": 97}, {"time": 759, "pitch": 69, "duration": 10, "velocity": 107}, {"time": 774, "pitch": 62, "duration": 4, "velocity": 102}, {"time": 780, "pitch": 62, "duration": 2, "velocity": 100}, {"time": 783, "pitch": 67, "duration": 4, "velocity": 112}, {"time": 789, "pitch": 66, "duration": 2, "velocity": 102}, {"time": 792, "pitch": 67, "duration": 3, "velocity": 93}, {"time": 795, "pitch": 66, "duration": 2, "velocity": 107}, {"time": 798, "pitch": 67, "duration": 2, "velocity": 102}, {"time": 801, "pitch": 69, "duration": 3, "velocity": 99}, {"time": 807, "pitch": 66, "duration": 3, "velocity": 117}, {"time": 810, "pitch": 64, "duration": 10, "velocity": 95}, {"time": 822, "pitch": 66, "duration": 3, "velocity": 117}, {"time": 828, "pitch": 67, "duration": 2, "velocity": 102}, {"time": 831, "pitch": 69, "duration": 10, "velocity": 112}, {"time": 846, "pitch": 66, "duration": 4, "velocity": 127}, {"time": 852, "pitch": 67, "duration": 2, "velocity": 122}, {"time": 855, "pitch": 69, "duration": 3, "velocity": 127}, {"time": 861, "pitch": 67, "duration": 8, "velocity": 112}, {"time": 870, "pitch": 66, "duration": 4, "velocity": 117}, {"time": 876, "pitch": 64, "duration": 1, "velocity": 97}, {"time": 879, "pitch": 66, "duration": 11, "velocity": 122}, {"time": 894, "pitch": 62, "duration": 4, "velocity": 99}, {"time": 900, "pitch": 64, "duration": 2, "velocity": 100}, {"time": 903, "pitch": 66, "duration": 3, "velocity": 112}, {"time": 909, "pitch": 64, "duration": 6, "velocity": 100}, {"time": 918, "pitch": 62, "duration": 3, "velocity": 99}, {"time": 924, "pitch": 61, "duration": 2, "velocity": 112}, {"time": 927, "pitch": 62, "duration": 12, "velocity": 117}, {"time": 942, "pitch": 62, "duration": 4, "velocity": 102}, {"time": 948, "pitch": 62, "duration": 2, "velocity": 97}, {"time": 951, "pitch": 69, "duration": 9, "velocity": 117}, {"time": 966, "pitch": 62, "duration": 4, "velocity": 100}, {"time": 972, "pitch": 62, "duration": 2, "velocity": 97}, {"time": 975, "pitch": 67, "duration": 6, "velocity": 117}, {"time": 981, "pitch": 67, "duration": 1, "velocity": 117}, {"time": 984, "pitch": 67, "duration": 2, "velocity": 107}, {"time": 987, "pitch": 59, "duration": 3, "velocity": 97}, {"time": 990, "pitch": 66, "duration": 5, "velocity": 107}, {"time": 996, "pitch": 64, "duration": 4, "velocity": 97}, {"time": 1002, "pitch": 62, "duration": 4, "velocity": 100}, {"time": 1005, "pitch": 62, "duration": 1, "velocity": 117}, {"time": 1203, "pitch": 57, "duration": 2, "velocity": 92}, {"time": 1206, "pitch": 66, "duration": 3, "velocity": 100}, {"time": 1212, "pitch": 67, "duration": 3, "velocity": 107}, {"time": 1215, "pitch": 66, "duration": 3, "velocity": 99}, {"time": 1218, "pitch": 64, "duration": 18, "velocity": 102}, {"time": 1251, "pitch": 57, "duration": 1, "velocity": 96}, {"time": 1254, "pitch": 66, "duration": 2, "velocity": 107}, {"time": 1257, "pitch": 67, "duration": 3, "velocity": 96}, {"time": 1263, "pitch": 66, "duration": 2, "velocity": 112}, {"time": 1266, "pitch": 64, "duration": 20, "velocity": 89}, {"time": 1302, "pitch": 66, "duration": 2, "velocity": 122}, {"time": 1305, "pitch": 67, "duration": 3, "velocity": 99}, {"time": 1311, "pitch": 66, "duration": 2, "velocity": 107}, {"time": 1314, "pitch": 62, "duration": 4, "velocity": 112}, {"time": 1320, "pitch": 62, "duration": 2, "velocity": 97}, {"time": 1323, "pitch": 57, "duration": 4, "velocity": 96}, {"time": 1329, "pitch": 55, "duration": 4, "velocity": 88}, {"time": 1335, "pitch": 54, "duration": 2, "velocity": 81}, {"time": 1338, "pitch": 55, "duration": 5, "velocity": 90}, {"time": 1344, "pitch": 62, "duration": 2, "velocity": 112}, {"time": 1347, "pitch": 62, "duration": 16, "velocity": 112}, {"time": 1374, "pitch": 57, "duration": 5, "velocity": 102}, {"time": 1380, "pitch": 66, "duration": 6, "velocity": 117}, {"time": 1386, "pitch": 62, "duration": 26, "velocity": 127}, {"time": 1422, "pitch": 66, "duration": 6, "velocity": 127}, {"time": 1428, "pitch": 67, "duration": 5, "velocity": 102}, {"time": 1434, "pitch": 69, "duration": 8, "velocity": 127}, {"time": 1446, "pitch": 66, "duration": 4, "velocity": 127}, {"time": 1452, "pitch": 67, "duration": 2, "velocity": 107}, {"time": 1455, "pitch": 69, "duration": 7, "velocity": 107}, {"time": 1461, "pitch": 67, "duration": 4, "velocity": 112}, {"time": 1470, "pitch": 66, "duration": 4, "velocity": 122}, {"time": 1476, "pitch": 64, "duration": 2, "velocity": 100}, {"time": 1479, "pitch": 66, "duration": 8, "velocity": 122}, {"time": 1494, "pitch": 62, "duration": 3, "velocity": 102}, {"time": 1500, "pitch": 64, "duration": 2, "velocity": 95}, {"time": 1503, "pitch": 66, "duration": 4, "velocity": 107}, {"time": 1509, "pitch": 64, "duration": 6, "velocity": 107}, {"time": 1518, "pitch": 62, "duration": 4, "velocity": 127}, {"time": 1524, "pitch": 61, "duration": 2, "velocity": 107}, {"time": 1527, "pitch": 62, "duration": 13, "velocity": 97}, {"time": 1542, "pitch": 62, "duration": 4, "velocity": 97}, {"time": 1548, "pitch": 62, "duration": 2, "velocity": 97}, {"time": 1551, "pitch": 69, "duration": 10, "velocity": 107}, {"time": 1566, "pitch": 62, "duration": 4, "velocity": 102}, {"time": 1572, "pitch": 62, "duration": 2, "velocity": 100}, {"time": 1575, "pitch": 67, "duration": 4, "velocity": 112}, {"time": 1581, "pitch": 66, "duration": 2, "velocity": 102}, {"time": 1584, "pitch": 67, "duration": 3, "velocity": 93}, {"time": 1587, "pitch": 66, "duration": 2, "velocity": 107}, {"time": 1590, "pitch": 67, "duration": 2, "velocity": 102}, {"time": 1593, "pitch": 69, "duration": 3, "velocity": 99}, {"time": 1599, "pitch": 66, "duration": 3, "velocity": 117}, {"time": 1602, "pitch": 64, "duration": 10, "velocity": 95}, {"time": 1614, "pitch": 66, "duration": 3, "velocity": 117}, {"time": 1620, "pitch": 67, "duration": 2, "velocity": 102}, {"time": 1623, "pitch": 69, "duration": 10, "velocity": 112}, {"time": 1638, "pitch": 66, "duration": 4, "velocity": 127}, {"time": 1644, "pitch": 67, "duration": 2, "velocity": 122}, {"time": 1647, "pitch": 69, "duration": 3, "velocity": 127}, {"time": 1653, "pitch": 67, "duration": 8, "velocity": 112}, {"time": 1662, "pitch": 66, "duration": 4, "velocity": 117}, {"time": 1668, "pitch": 64, "duration": 1, "velocity": 97}, {"time": 1671, "pitch": 66, "duration": 11, "velocity": 122}, {"time": 1686, "pitch": 62, "duration": 4, "velocity": 99}, {"time": 1692, "pitch": 64, "duration": 2, "velocity": 100}, {"time": 1695, "pitch": 66, "duration": 3, "velocity": 112}, {"time": 1701, "pitch": 64, "duration": 6, "velocity": 100}, {"time": 1710, "pitch": 62, "duration": 3, "velocity": 99}, {"time": 1716, "pitch": 61, "duration": 2, "velocity": 112}, {"time": 1719, "pitch": 62, "duration": 12, "velocity": 117}, {"time": 1734, "pitch": 62, "duration": 4, "velocity": 102}, {"time": 1740, "pitch": 62, "duration": 2, "velocity": 97}, {"time": 1743, "pitch": 69, "duration": 9, "velocity": 117}, {"time": 1758, "pitch": 62, "duration": 4, "velocity": 100}, {"time": 1764, "pitch": 62, "duration": 2, "velocity": 97}, {"time": 1767, "pitch": 67, "duration": 6, "velocity": 117}, {"time": 1773, "pitch": 67, "duration": 1, "velocity": 117}, {"time": 1776, "pitch": 67, "duration": 2, "velocity": 107}, {"time": 1779, "pitch": 59, "duration": 3, "velocity": 97}, {"time": 1782, "pitch": 66, "duration": 5, "velocity": 107}, {"time": 1788, "pitch": 64, "duration": 4, "velocity": 97}, {"time": 1794, "pitch": 62, "duration": 2, "velocity": 100}, {"time": 1797, "pitch": 62, "duration": 29, "velocity": 117}, {"time": 2166, "pitch": 66, "duration": 6, "velocity": 127}, {"time": 2172, "pitch": 67, "duration": 5, "velocity": 102}, {"time": 2175, "pitch": 69, "duration": 8, "velocity": 127}, {"time": 2190, "pitch": 66, "duration": 4, "velocity": 127}, {"time": 2196, "pitch": 67, "duration": 2, "velocity": 107}, {"time": 2199, "pitch": 69, "duration": 7, "velocity": 107}, {"time": 2205, "pitch": 67, "duration": 4, "velocity": 112}, {"time": 2214, "pitch": 66, "duration": 4, "velocity": 122}, {"time": 2220, "pitch": 64, "duration": 2, "velocity": 100}, {"time": 2223, "pitch": 66, "duration": 8, "velocity": 122}, {"time": 2238, "pitch": 62, "duration": 3, "velocity": 102}, {"time": 2244, "pitch": 64, "duration": 2, "velocity": 95}, {"time": 2247, "pitch": 66, "duration": 4, "velocity": 107}, {"time": 2253, "pitch": 64, "duration": 6, "velocity": 107}, {"time": 2262, "pitch": 62, "duration": 4, "velocity": 127}, {"time": 2268, "pitch": 61, "duration": 2, "velocity": 107}, {"time": 2271, "pitch": 62, "duration": 13, "velocity": 97}, {"time": 2286, "pitch": 62, "duration": 4, "velocity": 97}, {"time": 2292, "pitch": 62, "duration": 2, "velocity": 97}, {"time": 2295, "pitch": 69, "duration": 10, "velocity": 107}, {"time": 2310, "pitch": 62, "duration": 4, "velocity": 102}, {"time": 2316, "pitch": 62, "duration": 2, "velocity": 100}, {"time": 2319, "pitch": 67, "duration": 4, "velocity": 112}, {"time": 2325, "pitch": 66, "duration": 2, "velocity": 102}, {"time": 2328, "pitch": 67, "duration": 3, "velocity": 93}, {"time": 2331, "pitch": 66, "duration": 2, "velocity": 107}, {"time": 2334, "pitch": 67, "duration": 2, "velocity": 102}, {"time": 2337, "pitch": 69, "duration": 3, "velocity": 99}, {"time": 2343, "pitch": 66, "duration": 3, "velocity": 117}, {"time": 2346, "pitch": 64, "duration": 10, "velocity": 95}, {"time": 2358, "pitch": 66, "duration": 3, "velocity": 117}, {"time": 2364, "pitch": 67, "duration": 2, "velocity": 102}, {"time": 2367, "pitch": 69, "duration": 10, "velocity": 112}, {"time": 2382, "pitch": 66, "duration": 4, "velocity": 127}, {"time": 2388, "pitch": 67, "duration": 2, "velocity": 122}, {"time": 2391, "pitch": 69, "duration": 3, "velocity": 127}, {"time": 2397, "pitch": 67, "duration": 8, "velocity": 112}, {"time": 2406, "pitch": 66, "duration": 4, "velocity": 117}, {"time": 2412, "pitch": 64, "duration": 1, "velocity": 97}, {"time": 2415, "pitch": 66, "duration": 11, "velocity": 122}, {"time": 2430, "pitch": 62, "duration": 4, "velocity": 99}, {"time": 2436, "pitch": 64, "duration": 2, "velocity": 100}, {"time": 2439, "pitch": 66, "duration": 3, "velocity": 112}, {"time": 2445, "pitch": 64, "duration": 6, "velocity": 100}, {"time": 2454, "pitch": 62, "duration": 3, "velocity": 99}, {"time": 2460, "pitch": 61, "duration": 2, "velocity": 112}, {"time": 2463, "pitch": 62, "duration": 12, "velocity": 117}, {"time": 2478, "pitch": 62, "duration": 4, "velocity": 102}, {"time": 2484, "pitch": 62, "duration": 2, "velocity": 97}, {"time": 2487, "pitch": 69, "duration": 9, "velocity": 117}, {"time": 2502, "pitch": 62, "duration": 4, "velocity": 100}, {"time": 2508, "pitch": 62, "duration": 2, "velocity": 97}, {"time": 2511, "pitch": 67, "duration": 6, "velocity": 117}, {"time": 2517, "pitch": 67, "duration": 1, "velocity": 117}, {"time": 2520, "pitch": 67, "duration": 2, "velocity": 107}, {"time": 2523, "pitch": 59, "duration": 3, "velocity": 97}, {"time": 2526, "pitch": 66, "duration": 5, "velocity": 107}, {"time": 2532, "pitch": 64, "duration": 4, "velocity": 97}, {"time": 2538, "pitch": 62, "duration": 4, "velocity": 100}, {"time": 2544, "pitch": 62, "duration": 29, "velocity": 117}]}, {"program": 0, "is_drum": false, "name": "PIANO", "notes": [{"time": 18, "pitch": 50, "duration": 18, "velocity": 81}, {"time": 24, "pitch": 57, "duration": 8, "velocity": 76}, {"time": 30, "pitch": 69, "duration": 13, "velocity": 96}, {"time": 36, "pitch": 66, "duration": 7, "velocity": 85}, {"time": 42, "pitch": 49, "duration": 14, "velocity": 96}, {"time": 48, "pitch": 61, "duration": 8, "velocity": 82}, {"time": 54, "pitch": 69, "duration": 12, "velocity": 72}, {"time": 60, "pitch": 66, "duration": 6, "velocity": 66}, {"time": 66, "pitch": 47, "duration": 15, "velocity": 76}, {"time": 72, "pitch": 54, "duration": 7, "velocity": 82}, {"time": 78, "pitch": 66, "duration": 13, "velocity": 100}, {"time": 84, "pitch": 59, "duration": 7, "velocity": 75}, {"time": 90, "pitch": 45, "duration": 16, "velocity": 85}, {"time": 96, "pitch": 52, "duration": 7, "velocity": 64}, {"time": 102, "pitch": 64, "duration": 12, "velocity": 99}, {"time": 108, "pitch": 61, "duration": 6, "velocity": 86}, {"time": 111, "pitch": 57, "duration": 4, "velocity": 73}, {"time": 114, "pitch": 43, "duration": 18, "velocity": 76}, {"time": 120, "pitch": 50, "duration": 11, "velocity": 66}, {"time": 126, "pitch": 62, "duration": 13, "velocity": 83}, {"time": 132, "pitch": 59, "duration": 7, "velocity": 83}, {"time": 138, "pitch": 50, "duration": 13, "velocity": 81}, {"time": 144, "pitch": 57, "duration": 19, "velocity": 71}, {"time": 150, "pitch": 66, "duration": 13, "velocity": 117}, {"time": 156, "pitch": 62, "duration": 7, "velocity": 69}, {"time": 162, "pitch": 40, "duration": 17, "velocity": 82}, {"time": 168, "pitch": 47, "duration": 11, "velocity": 70}, {"time": 174, "pitch": 59, "duration": 12, "velocity": 93}, {"time": 180, "pitch": 52, "duration": 5, "velocity": 82}, {"time": 186, "pitch": 45, "duration": 21, "velocity": 88}, {"time": 192, "pitch": 52, "duration": 17, "velocity": 58}, {"time": 198, "pitch": 64, "duration": 11, "velocity": 93}, {"time": 204, "pitch": 61, "duration": 6, "velocity": 83}, {"time": 210, "pitch": 50, "duration": 11, "velocity": 95}, {"time": 216, "pitch": 57, "duration": 12, "velocity": 71}, {"time": 222, "pitch": 66, "duration": 11, "velocity": 107}, {"time": 228, "pitch": 62, "duration": 5, "velocity": 76}, {"time": 234, "pitch": 49, "duration": 16, "velocity": 82}, {"time": 240, "pitch": 61, "duration": 10, "velocity": 68}, {"time": 246, "pitch": 69, "duration": 13, "velocity": 73}, {"time": 252, "pitch": 66, "duration": 6, "velocity": 52}, {"time": 258, "pitch": 47, "duration": 16, "velocity": 77}, {"time": 264, "pitch": 54, "duration": 7, "velocity": 52}, {"time": 270, "pitch": 66, "duration": 14, "velocity": 107}, {"time": 276, "pitch": 59, "duration": 7, "velocity": 82}, {"time": 282, "pitch": 45, "duration": 18, "velocity": 89}, {"time": 288, "pitch": 52, "duration": 10, "velocity": 63}, {"time": 294, "pitch": 64, "duration": 13, "velocity": 117}, {"time": 300, "pitch": 61, "duration": 7, "velocity": 93}, {"time": 306, "pitch": 43, "duration": 15, "velocity": 93}, {"time": 312, "pitch": 50, "duration": 8, "velocity": 66}, {"time": 318, "pitch": 62, "duration": 12, "velocity": 99}, {"time": 324, "pitch": 59, "duration": 6, "velocity": 81}, {"time": 330, "pitch": 50, "duration": 13, "velocity": 86}, {"time": 336, "pitch": 57, "duration": 13, "velocity": 75}, {"time": 342, "pitch": 66, "duration": 11, "velocity": 117}, {"time": 348, "pitch": 62, "duration": 5, "velocity": 73}, {"time": 354, "pitch": 40, "duration": 12, "velocity": 88}, {"time": 360, "pitch": 52, "duration": 7, "velocity": 52}, {"time": 366, "pitch": 59, "duration": 12, "velocity": 95}, {"time": 372, "pitch": 55, "duration": 6, "velocity": 65}, {"time": 378, "pitch": 45, "duration": 18, "velocity": 86}, {"time": 384, "pitch": 52, "duration": 7, "velocity": 64}, {"time": 390, "pitch": 64, "duration": 12, "velocity": 117}, {"time": 393, "pitch": 52, "duration": 2, "velocity": 83}, {"time": 396, "pitch": 61, "duration": 6, "velocity": 86}, {"time": 399, "pitch": 57, "duration": 3, "velocity": 81}, {"time": 402, "pitch": 50, "duration": 15, "velocity": 93}, {"time": 408, "pitch": 62, "duration": 8, "velocity": 88}, {"time": 414, "pitch": 69, "duration": 11, "velocity": 112}, {"time": 420, "pitch": 66, "duration": 6, "velocity": 107}, {"time": 426, "pitch": 49, "duration": 11, "velocity": 100}, {"time": 432, "pitch": 61, "duration": 7, "velocity": 76}, {"time": 438, "pitch": 69, "duration": 13, "velocity": 75}, {"time": 444, "pitch": 66, "duration": 6, "velocity": 58}, {"time": 450, "pitch": 47, "duration": 18, "velocity": 73}, {"time": 456, "pitch": 54, "duration": 8, "velocity": 68}, {"time": 462, "pitch": 66, "duration": 13, "velocity": 117}, {"time": 468, "pitch": 62, "duration": 7, "velocity": 76}, {"time": 471, "pitch": 59, "duration": 4, "velocity": 56}, {"time": 474, "pitch": 45, "duration": 19, "velocity": 76}, {"time": 480, "pitch": 52, "duration": 8, "velocity": 58}, {"time": 486, "pitch": 64, "duration": 13, "velocity": 97}, {"time": 489, "pitch": 52, "duration": 3, "velocity": 74}, {"time": 492, "pitch": 61, "duration": 7, "velocity": 68}, {"time": 495, "pitch": 57, "duration": 4, "velocity": 71}, {"time": 498, "pitch": 43, "duration": 20, "velocity": 73}, {"time": 504, "pitch": 50, "duration": 13, "velocity": 48}, {"time": 510, "pitch": 62, "duration": 12, "velocity": 102}, {"time": 516, "pitch": 59, "duration": 6, "velocity": 75}, {"time": 522, "pitch": 50, "duration": 12, "velocity": 90}, {"time": 528, "pitch": 57, "duration": 19, "velocity": 66}, {"time": 534, "pitch": 66, "duration": 12, "velocity": 107}, {"time": 540, "pitch": 62, "duration": 6, "velocity": 68}, {"time": 546, "pitch": 40, "duration": 13, "velocity": 86}, {"time": 552, "pitch": 52, "duration": 7, "velocity": 50}, {"time": 558, "pitch": 59, "duration": 12, "velocity": 96}, {"time": 564, "pitch": 55, "duration": 5, "velocity": 63}, {"time": 570, "pitch": 45, "duration": 18, "velocity": 85}, {"time": 576, "pitch": 52, "duration": 11, "velocity": 56}, {"time": 582, "pitch": 64, "duration": 12, "velocity": 99}, {"time": 588, "pitch": 61, "duration": 6, "velocity": 56}, {"time": 594, "pitch": 50, "duration": 22, "velocity": 86}, {"time": 600, "pitch": 57, "duration": 8, "velocity": 61}, {"time": 606, "pitch": 66, "duration": 33, "velocity": 99}, {"time": 612, "pitch": 64, "duration": 8, "velocity": 58}, {"time": 618, "pitch": 50, "duration": 17, "velocity": 50}, {"time": 618, "pitch": 57, "duration": 21, "velocity": 28}, {"time": 618, "pitch": 62, "duration": 20, "velocity": 44}, {"time": 642, "pitch": 50, "duration": 5, "velocity": 90}, {"time": 642, "pitch": 38, "duration": 17, "velocity": 89}, {"time": 648, "pitch": 45, "duration": 7, "velocity": 93}, {"time": 654, "pitch": 57, "duration": 6, "velocity": 83}, {"time": 654, "pitch": 66, "duration": 12, "velocity": 127}, {"time": 660, "pitch": 62, "duration": 5, "velocity": 88}, {"time": 666, "pitch": 49, "duration": 12, "velocity": 76}, {"time": 666, "pitch": 37, "duration": 17, "velocity": 82}, {"time": 672, "pitch": 57, "duration": 8, "velocity": 79}, {"time": 678, "pitch": 61, "duration": 4, "velocity": 107}, {"time": 678, "pitch": 66, "duration": 13, "velocity": 117}, {"time": 684, "pitch": 57, "duration": 6, "velocity": 117}, {"time": 690, "pitch": 59, "duration": 6, "velocity": 83}, {"time": 690, "pitch": 47, "duration": 19, "velocity": 83}, {"time": 696, "pitch": 54, "duration": 8, "velocity": 96}, {"time": 702, "pitch": 62, "duration": 3, "velocity": 86}, {"time": 702, "pitch": 66, "duration": 12, "velocity": 127}, {"time": 708, "pitch": 59, "duration": 6, "velocity": 97}, {"time": 714, "pitch": 57, "duration": 7, "velocity": 90}, {"time": 714, "pitch": 45, "duration": 17, "velocity": 88}, {"time": 720, "pitch": 52, "duration": 10, "velocity": 90}, {"time": 726, "pitch": 61, "duration": 3, "velocity": 112}, {"time": 726, "pitch": 64, "duration": 12, "velocity": 100}, {"time": 732, "pitch": 57, "duration": 4, "velocity": 97}, {"time": 738, "pitch": 55, "duration": 7, "velocity": 96}, {"time": 738, "pitch": 43, "duration": 20, "velocity": 81}, {"time": 744, "pitch": 52, "duration": 9, "velocity": 49}, {"time": 750, "pitch": 59, "duration": 4, "velocity": 86}, {"time": 750, "pitch": 62, "duration": 11, "velocity": 97}, {"time": 756, "pitch": 55, "duration": 4, "velocity": 93}, {"time": 762, "pitch": 38, "duration": 17, "velocity": 79}, {"time": 768, "pitch": 45, "duration": 10, "velocity": 59}, {"time": 774, "pitch": 62, "duration": 4, "velocity": 69}, {"time": 774, "pitch": 66, "duration": 12, "velocity": 117}, {"time": 777, "pitch": 45, "duration": 1, "velocity": 66}, {"time": 780, "pitch": 57, "duration": 4, "velocity": 86}, {"time": 786, "pitch": 52, "duration": 12, "velocity": 71}, {"time": 786, "pitch": 40, "duration": 18, "velocity": 72}, {"time": 792, "pitch": 47, "duration": 10, "velocity": 54}, {"time": 798, "pitch": 55, "duration": 3, "velocity": 89}, {"time": 798, "pitch": 59, "duration": 11, "velocity": 95}, {"time": 804, "pitch": 52, "duration": 4, "velocity": 79}, {"time": 810, "pitch": 57, "duration": 7, "velocity": 60}, {"time": 810, "pitch": 45, "duration": 17, "velocity": 88}, {"time": 816, "pitch": 52, "duration": 10, "velocity": 72}, {"time": 822, "pitch": 61, "duration": 3, "velocity": 88}, {"time": 822, "pitch": 64, "duration": 11, "velocity": 100}, {"time": 828, "pitch": 57, "duration": 5, "velocity": 89}, {"time": 834, "pitch": 50, "duration": 7, "velocity": 90}, {"time": 834, "pitch": 38, "duration": 17, "velocity": 89}, {"time": 840, "pitch": 45, "duration": 14, "velocity": 88}, {"time": 846, "pitch": 57, "duration": 5, "velocity": 89}, {"time": 846, "pitch": 66, "duration": 14, "velocity": 127}, {"time": 852, "pitch": 57, "duration": 8, "velocity": 93}, {"time": 858, "pitch": 37, "duration": 18, "velocity": 81}, {"time": 864, "pitch": 57, "duration": 5, "velocity": 75}, {"time": 870, "pitch": 61, "duration": 4, "velocity": 112}, {"time": 870, "pitch": 66, "duration": 13, "velocity": 122}, {"time": 876, "pitch": 49, "duration": 8, "velocity": 89}, {"time": 882, "pitch": 59, "duration": 7, "velocity": 78}, {"time": 882, "pitch": 47, "duration": 17, "velocity": 74}, {"time": 888, "pitch": 54, "duration": 10, "velocity": 76}, {"time": 894, "pitch": 62, "duration": 3, "velocity": 78}, {"time": 894, "pitch": 66, "duration": 11, "velocity": 122}, {"time": 900, "pitch": 59, "duration": 4, "velocity": 95}, {"time": 906, "pitch": 57, "duration": 6, "velocity": 83}, {"time": 906, "pitch": 45, "duration": 17, "velocity": 77}, {"time": 912, "pitch": 52, "duration": 10, "velocity": 92}, {"time": 918, "pitch": 61, "duration": 3, "velocity": 102}, {"time": 918, "pitch": 64, "duration": 13, "velocity": 99}, {"time": 924, "pitch": 57, "duration": 4, "velocity": 85}, {"time": 930, "pitch": 55, "duration": 7, "velocity": 74}, {"time": 930, "pitch": 43, "duration": 20, "velocity": 77}, {"time": 936, "pitch": 50, "duration": 11, "velocity": 56}, {"time": 942, "pitch": 59, "duration": 4, "velocity": 97}, {"time": 942, "pitch": 62, "duration": 11, "velocity": 102}, {"time": 948, "pitch": 55, "duration": 5, "velocity": 88}, {"time": 954, "pitch": 50, "duration": 8, "velocity": 85}, {"time": 954, "pitch": 38, "duration": 24, "velocity": 83}, {"time": 960, "pitch": 45, "duration": 21, "velocity": 66}, {"time": 966, "pitch": 57, "duration": 5, "velocity": 79}, {"time": 966, "pitch": 66, "duration": 12, "velocity": 122}, {"time": 972, "pitch": 50, "duration": 4, "velocity": 85}, {"time": 978, "pitch": 40, "duration": 4, "velocity": 52}, {"time": 978, "pitch": 52, "duration": 5, "velocity": 55}, {"time": 978, "pitch": 55, "duration": 5, "velocity": 63}, {"time": 978, "pitch": 59, "duration": 5, "velocity": 62}, {"time": 990, "pitch": 45, "duration": 7, "velocity": 60}, {"time": 990, "pitch": 57, "duration": 11, "velocity": 68}, {"time": 990, "pitch": 61, "duration": 11, "velocity": 68}, {"time": 990, "pitch": 64, "duration": 9, "velocity": 66}, {"time": 1002, "pitch": 38, "duration": 23, "velocity": 71}, {"time": 1005, "pitch": 45, "duration": 21, "velocity": 40}, {"time": 1008, "pitch": 50, "duration": 7, "velocity": 74}, {"time": 1011, "pitch": 57, "duration": 11, "velocity": 63}, {"time": 1014, "pitch": 66, "duration": 12, "velocity": 97}, {"time": 1017, "pitch": 50, "duration": 2, "velocity": 38}, {"time": 1020, "pitch": 64, "duration": 6, "velocity": 52}, {"time": 1023, "pitch": 57, "duration": 3, "velocity": 42}, {"time": 1026, "pitch": 49, "duration": 24, "velocity": 85}, {"time": 1032, "pitch": 61, "duration": 7, "velocity": 58}, {"time": 1038, "pitch": 66, "duration": 14, "velocity": 34}, {"time": 1038, "pitch": 69, "duration": 12, "velocity": 48}, {"time": 1050, "pitch": 47, "duration": 17, "velocity": 67}, {"time": 1056, "pitch": 59, "duration": 20, "velocity": 50}, {"time": 1062, "pitch": 66, "duration": 13, "velocity": 79}, {"time": 1074, "pitch": 45, "duration": 16, "velocity": 61}, {"time": 1080, "pitch": 52, "duration": 8, "velocity": 40}, {"time": 1086, "pitch": 64, "duration": 13, "velocity": 76}, {"time": 1092, "pitch": 61, "duration": 6, "velocity": 51}, {"time": 1098, "pitch": 43, "duration": 18, "velocity": 67}, {"time": 1104, "pitch": 50, "duration": 11, "velocity": 51}, {"time": 1110, "pitch": 59, "duration": 12, "velocity": 56}, {"time": 1110, "pitch": 62, "duration": 12, "velocity": 55}, {"time": 1122, "pitch": 50, "duration": 14, "velocity": 72}, {"time": 1128, "pitch": 57, "duration": 19, "velocity": 39}, {"time": 1134, "pitch": 66, "duration": 12, "velocity": 66}, {"time": 1146, "pitch": 40, "duration": 14, "velocity": 58}, {"time": 1152, "pitch": 52, "duration": 9, "velocity": 39}, {"time": 1158, "pitch": 59, "duration": 5, "velocity": 57}, {"time": 1170, "pitch": 45, "duration": 24, "velocity": 55}, {"time": 1182, "pitch": 57, "duration": 12, "velocity": 40}, {"time": 1182, "pitch": 61, "duration": 12, "velocity": 53}, {"time": 1182, "pitch": 64, "duration": 12, "velocity": 50}, {"time": 1194, "pitch": 38, "duration": 16, "velocity": 83}, {"time": 1200, "pitch": 45, "duration": 10, "velocity": 82}, {"time": 1206, "pitch": 66, "duration": 12, "velocity": 127}, {"time": 1212, "pitch": 38, "duration": 5, "velocity": 93}, {"time": 1218, "pitch": 37, "duration": 15, "velocity": 95}, {"time": 1224, "pitch": 61, "duration": 6, "velocity": 45}, {"time": 1230, "pitch": 66, "duration": 13, "velocity": 100}, {"time": 1236, "pitch": 61, "duration": 6, "velocity": 72}, {"time": 1242, "pitch": 35, "duration": 15, "velocity": 85}, {"time": 1248, "pitch": 42, "duration": 9, "velocity": 66}, {"time": 1254, "pitch": 47, "duration": 5, "velocity": 66}, {"time": 1254, "pitch": 66, "duration": 12, "velocity": 112}, {"time": 1260, "pitch": 59, "duration": 8, "velocity": 95}, {"time": 1266, "pitch": 45, "duration": 16, "velocity": 88}, {"time": 1272, "pitch": 52, "duration": 9, "velocity": 77}, {"time": 1278, "pitch": 64, "duration": 13, "velocity": 107}, {"time": 1284, "pitch": 61, "duration": 7, "velocity": 97}, {"time": 1290, "pitch": 43, "duration": 20, "velocity": 77}, {"time": 1296, "pitch": 50, "duration": 11, "velocity": 86}, {"time": 1302, "pitch": 62, "duration": 12, "velocity": 122}, {"time": 1308, "pitch": 59, "duration": 6, "velocity": 97}, {"time": 1314, "pitch": 38, "duration": 20, "velocity": 83}, {"time": 1320, "pitch": 45, "duration": 18, "velocity": 57}, {"time": 1326, "pitch": 50, "duration": 8, "velocity": 75}, {"time": 1326, "pitch": 66, "duration": 12, "velocity": 117}, {"time": 1332, "pitch": 62, "duration": 7, "velocity": 75}, {"time": 1338, "pitch": 40, "duration": 15, "velocity": 86}, {"time": 1344, "pitch": 47, "duration": 9, "velocity": 67}, {"time": 1350, "pitch": 59, "duration": 11, "velocity": 107}, {"time": 1356, "pitch": 55, "duration": 5, "velocity": 95}, {"time": 1362, "pitch": 45, "duration": 18, "velocity": 83}, {"time": 1368, "pitch": 52, "duration": 8, "velocity": 95}, {"time": 1371, "pitch": 57, "duration": 3, "velocity": 93}, {"time": 1374, "pitch": 64, "duration": 12, "velocity": 127}, {"time": 1377, "pitch": 52, "duration": 2, "velocity": 89}, {"time": 1380, "pitch": 61, "duration": 5, "velocity": 112}, {"time": 1383, "pitch": 57, "duration": 3, "velocity": 89}, {"time": 1386, "pitch": 38, "duration": 14, "velocity": 99}, {"time": 1392, "pitch": 45, "duration": 8, "velocity": 99}, {"time": 1398, "pitch": 66, "duration": 12, "velocity": 127}, {"time": 1401, "pitch": 38, "duration": 8, "velocity": 67}, {"time": 1404, "pitch": 57, "duration": 8, "velocity": 82}, {"time": 1407, "pitch": 62, "duration": 5, "velocity": 78}, {"time": 1410, "pitch": 38, "duration": 22, "velocity": 102}, {"time": 1434, "pitch": 38, "duration": 19, "velocity": 127}, {"time": 1437, "pitch": 57, "duration": 5, "velocity": 79}, {"time": 1440, "pitch": 66, "duration": 4, "velocity": 127}, {"time": 1443, "pitch": 57, "duration": 4, "velocity": 83}, {"time": 1446, "pitch": 66, "duration": 4, "velocity": 127}, {"time": 1449, "pitch": 57, "duration": 9, "velocity": 85}, {"time": 1452, "pitch": 66, "duration": 7, "velocity": 127}, {"time": 1455, "pitch": 38, "duration": 4, "velocity": 97}, {"time": 1458, "pitch": 37, "duration": 16, "velocity": 107}, {"time": 1461, "pitch": 57, "duration": 4, "velocity": 74}, {"time": 1464, "pitch": 61, "duration": 4, "velocity": 90}, {"time": 1467, "pitch": 57, "duration": 4, "velocity": 71}, {"time": 1470, "pitch": 66, "duration": 12, "velocity": 117}, {"time": 1473, "pitch": 57, "duration": 7, "velocity": 88}, {"time": 1476, "pitch": 61, "duration": 4, "velocity": 122}, {"time": 1479, "pitch": 62, "duration": 3, "velocity": 89}, {"time": 1482, "pitch": 35, "duration": 23, "velocity": 72}, {"time": 1485, "pitch": 42, "duration": 19, "velocity": 88}, {"time": 1488, "pitch": 47, "duration": 8, "velocity": 92}, {"time": 1491, "pitch": 59, "duration": 5, "velocity": 90}, {"time": 1494, "pitch": 66, "duration": 10, "velocity": 127}, {"time": 1497, "pitch": 47, "duration": 7, "velocity": 96}, {"time": 1500, "pitch": 62, "duration": 5, "velocity": 83}, {"time": 1503, "pitch": 59, "duration": 3, "velocity": 97}, {"time": 1506, "pitch": 33, "duration": 19, "velocity": 86}, {"time": 1509, "pitch": 40, "duration": 16, "velocity": 96}, {"time": 1512, "pitch": 45, "duration": 15, "velocity": 95}, {"time": 1515, "pitch": 52, "duration": 8, "velocity": 83}, {"time": 1518, "pitch": 57, "duration": 4, "velocity": 95}, {"time": 1521, "pitch": 61, "duration": 9, "velocity": 107}, {"time": 1524, "pitch": 52, "duration": 4, "velocity": 83}, {"time": 1527, "pitch": 57, "duration": 3, "velocity": 96}, {"time": 1530, "pitch": 43, "duration": 19, "velocity": 72}, {"time": 1533, "pitch": 50, "duration": 11, "velocity": 90}, {"time": 1536, "pitch": 55, "duration": 4, "velocity": 107}, {"time": 1539, "pitch": 59, "duration": 3, "velocity": 107}, {"time": 1542, "pitch": 62, "duration": 11, "velocity": 112}, {"time": 1545, "pitch": 50, "duration": 3, "velocity": 95}, {"time": 1548, "pitch": 59, "duration": 5, "velocity": 102}, {"time": 1551, "pitch": 55, "duration": 3, "velocity": 90}, {"time": 1554, "pitch": 38, "duration": 22, "velocity": 85}, {"time": 1557, "pitch": 45, "duration": 20, "velocity": 88}, {"time": 1560, "pitch": 50, "duration": 7, "velocity": 95}, {"time": 1563, "pitch": 57, "duration": 6, "velocity": 89}, {"time": 1566, "pitch": 66, "duration": 10, "velocity": 127}, {"time": 1569, "pitch": 50, "duration": 3, "velocity": 102}, {"time": 1572, "pitch": 62, "duration": 4, "velocity": 112}, {"time": 1575, "pitch": 57, "duration": 3, "velocity": 100}, {"time": 1578, "pitch": 40, "duration": 16, "velocity": 79}, {"time": 1581, "pitch": 47, "duration": 11, "velocity": 89}, {"time": 1584, "pitch": 52, "duration": 4, "velocity": 96}, {"time": 1587, "pitch": 55, "duration": 4, "velocity": 88}, {"time": 1590, "pitch": 64, "duration": 13, "velocity": 107}, {"time": 1593, "pitch": 47, "duration": 2, "velocity": 92}, {"time": 1596, "pitch": 55, "duration": 4, "velocity": 93}, {"time": 1599, "pitch": 59, "duration": 3, "velocity": 102}, {"time": 1602, "pitch": 45, "duration": 17, "velocity": 77}, {"time": 1605, "pitch": 52, "duration": 11, "velocity": 96}, {"time": 1608, "pitch": 57, "duration": 3, "velocity": 107}, {"time": 1611, "pitch": 61, "duration": 4, "velocity": 127}, {"time": 1614, "pitch": 64, "duration": 10, "velocity": 102}, {"time": 1617, "pitch": 52, "duration": 2, "velocity": 99}, {"time": 1620, "pitch": 61, "duration": 4, "velocity": 112}, {"time": 1623, "pitch": 57, "duration": 5, "velocity": 99}, {"time": 1626, "pitch": 38, "duration": 22, "velocity": 85}, {"time": 1629, "pitch": 45, "duration": 19, "velocity": 78}, {"time": 1632, "pitch": 50, "duration": 8, "velocity": 85}, {"time": 1635, "pitch": 57, "duration": 5, "velocity": 90}, {"time": 1638, "pitch": 66, "duration": 12, "velocity": 127}, {"time": 1641, "pitch": 50, "duration": 6, "velocity": 95}, {"time": 1644, "pitch": 62, "duration": 6, "velocity": 89}, {"time": 1647, "pitch": 57, "duration": 3, "velocity": 102}, {"time": 1650, "pitch": 37, "duration": 16, "velocity": 93}, {"time": 1653, "pitch": 57, "duration": 5, "velocity": 89}, {"time": 1656, "pitch": 61, "duration": 4, "velocity": 122}, {"time": 1659, "pitch": 49, "duration": 9, "velocity": 83}, {"time": 1659, "pitch": 57, "duration": 3, "velocity": 50}, {"time": 1662, "pitch": 66, "duration": 13, "velocity": 127}, {"time": 1665, "pitch": 57, "duration": 7, "velocity": 83}, {"time": 1668, "pitch": 61, "duration": 4, "velocity": 117}, {"time": 1671, "pitch": 62, "duration": 4, "velocity": 85}, {"time": 1674, "pitch": 47, "duration": 19, "velocity": 73}, {"time": 1677, "pitch": 54, "duration": 11, "velocity": 100}, {"time": 1680, "pitch": 59, "duration": 6, "velocity": 75}, {"time": 1683, "pitch": 61, "duration": 3, "velocity": 122}, {"time": 1686, "pitch": 66, "duration": 10, "velocity": 127}, {"time": 1689, "pitch": 54, "duration": 3, "velocity": 96}, {"time": 1692, "pitch": 61, "duration": 6, "velocity": 127}, {"time": 1695, "pitch": 59, "duration": 4, "velocity": 90}, {"time": 1698, "pitch": 45, "duration": 18, "velocity": 77}, {"time": 1701, "pitch": 52, "duration": 10, "velocity": 100}, {"time": 1704, "pitch": 57, "duration": 6, "velocity": 79}, {"time": 1707, "pitch": 61, "duration": 3, "velocity": 112}, {"time": 1710, "pitch": 64, "duration": 11, "velocity": 102}, {"time": 1713, "pitch": 52, "duration": 2, "velocity": 85}, {"time": 1716, "pitch": 61, "duration": 5, "velocity": 112}, {"time": 1719, "pitch": 57, "duration": 3, "velocity": 99}, {"time": 1722, "pitch": 43, "duration": 18, "velocity": 88}, {"time": 1725, "pitch": 50, "duration": 10, "velocity": 93}, {"time": 1728, "pitch": 55, "duration": 4, "velocity": 93}, {"time": 1731, "pitch": 59, "duration": 3, "velocity": 99}, {"time": 1734, "pitch": 62, "duration": 12, "velocity": 102}, {"time": 1737, "pitch": 50, "duration": 2, "velocity": 88}, {"time": 1740, "pitch": 59, "duration": 6, "velocity": 99}, {"time": 1743, "pitch": 55, "duration": 4, "velocity": 97}, {"time": 1746, "pitch": 38, "duration": 22, "velocity": 75}, {"time": 1749, "pitch": 45, "duration": 21, "velocity": 77}, {"time": 1752, "pitch": 50, "duration": 7, "velocity": 88}, {"time": 1755, "pitch": 57, "duration": 5, "velocity": 86}, {"time": 1758, "pitch": 66, "duration": 10, "velocity": 127}, {"time": 1761, "pitch": 50, "duration": 2, "velocity": 92}, {"time": 1764, "pitch": 62, "duration": 5, "velocity": 89}, {"time": 1767, "pitch": 57, "duration": 3, "velocity": 99}, {"time": 1770, "pitch": 40, "duration": 9, "velocity": 90}, {"time": 1773, "pitch": 47, "duration": 8, "velocity": 75}, {"time": 1776, "pitch": 52, "duration": 4, "velocity": 97}, {"time": 1779, "pitch": 59, "duration": 2, "velocity": 97}, {"time": 1782, "pitch": 45, "duration": 7, "velocity": 100}, {"time": 1785, "pitch": 57, "duration": 9, "velocity": 93}, {"time": 1788, "pitch": 64, "duration": 6, "velocity": 100}, {"time": 1791, "pitch": 61, "duration": 3, "velocity": 102}, {"time": 1794, "pitch": 43, "duration": 23, "velocity": 85}, {"time": 1797, "pitch": 50, "duration": 11, "velocity": 76}, {"time": 1800, "pitch": 55, "duration": 6, "velocity": 79}, {"time": 1803, "pitch": 59, "duration": 4, "velocity": 65}, {"time": 1806, "pitch": 62, "duration": 3, "velocity": 73}, {"time": 1806, "pitch": 66, "duration": 19, "velocity": 100}, {"time": 1809, "pitch": 50, "duration": 10, "velocity": 64}, {"time": 1812, "pitch": 59, "duration": 10, "velocity": 72}, {"time": 1815, "pitch": 62, "duration": 9, "velocity": 93}, {"time": 1818, "pitch": 43, "duration": 16, "velocity": 73}, {"time": 1821, "pitch": 50, "duration": 10, "velocity": 72}, {"time": 1824, "pitch": 55, "duration": 3, "velocity": 100}, {"time": 1827, "pitch": 62, "duration": 15, "velocity": 92}, {"time": 1827, "pitch": 66, "duration": 15, "velocity": 127}, {"time": 1833, "pitch": 50, "duration": 2, "velocity": 74}, {"time": 1836, "pitch": 59, "duration": 8, "velocity": 96}, {"time": 1842, "pitch": 42, "duration": 23, "velocity": 82}, {"time": 1845, "pitch": 49, "duration": 22, "velocity": 33}, {"time": 1848, "pitch": 54, "duration": 9, "velocity": 85}, {"time": 1854, "pitch": 57, "duration": 18, "velocity": 96}, {"time": 1854, "pitch": 61, "duration": 19, "velocity": 102}, {"time": 1860, "pitch": 54, "duration": 9, "velocity": 53}, {"time": 1866, "pitch": 42, "duration": 17, "velocity": 86}, {"time": 1869, "pitch": 49, "duration": 15, "velocity": 46}, {"time": 1872, "pitch": 54, "duration": 6, "velocity": 88}, {"time": 1875, "pitch": 66, "duration": 16, "velocity": 127}, {"time": 1878, "pitch": 61, "duration": 8, "velocity": 90}, {"time": 1881, "pitch": 54, "duration": 3, "velocity": 82}, {"time": 1884, "pitch": 57, "duration": 6, "velocity": 86}, {"time": 1887, "pitch": 61, "duration": 3, "velocity": 60}, {"time": 1890, "pitch": 43, "duration": 22, "velocity": 77}, {"time": 1893, "pitch": 50, "duration": 10, "velocity": 75}, {"time": 1896, "pitch": 55, "duration": 6, "velocity": 92}, {"time": 1899, "pitch": 62, "duration": 17, "velocity": 96}, {"time": 1905, "pitch": 50, "duration": 10, "velocity": 69}, {"time": 1908, "pitch": 59, "duration": 7, "velocity": 72}, {"time": 1911, "pitch": 55, "duration": 4, "velocity": 73}, {"time": 1914, "pitch": 43, "duration": 17, "velocity": 74}, {"time": 1917, "pitch": 50, "duration": 10, "velocity": 76}, {"time": 1920, "pitch": 55, "duration": 3, "velocity": 76}, {"time": 1923, "pitch": 59, "duration": 10, "velocity": 95}, {"time": 1923, "pitch": 62, "duration": 14, "velocity": 100}, {"time": 1929, "pitch": 50, "duration": 2, "velocity": 79}, {"time": 1932, "pitch": 55, "duration": 5, "velocity": 93}, {"time": 1935, "pitch": 59, "duration": 3, "velocity": 90}, {"time": 1938, "pitch": 42, "duration": 23, "velocity": 78}, {"time": 1941, "pitch": 49, "duration": 21, "velocity": 38}, {"time": 1944, "pitch": 54, "duration": 6, "velocity": 95}, {"time": 1947, "pitch": 57, "duration": 6, "velocity": 76}, {"time": 1947, "pitch": 61, "duration": 10, "velocity": 93}, {"time": 1947, "pitch": 66, "duration": 22, "velocity": 76}, {"time": 1953, "pitch": 54, "duration": 11, "velocity": 59}, {"time": 1956, "pitch": 57, "duration": 13, "velocity": 75}, {"time": 1959, "pitch": 61, "duration": 10, "velocity": 95}, {"time": 1962, "pitch": 42, "duration": 18, "velocity": 65}, {"time": 1965, "pitch": 49, "duration": 14, "velocity": 52}, {"time": 1968, "pitch": 54, "duration": 6, "velocity": 99}, {"time": 1971, "pitch": 61, "duration": 10, "velocity": 122}, {"time": 1971, "pitch": 66, "duration": 15, "velocity": 107}, {"time": 1977, "pitch": 54, "duration": 3, "velocity": 96}, {"time": 1980, "pitch": 57, "duration": 5, "velocity": 97}, {"time": 1983, "pitch": 61, "duration": 3, "velocity": 102}, {"time": 1986, "pitch": 43, "duration": 22, "velocity": 77}, {"time": 1989, "pitch": 50, "duration": 23, "velocity": 66}, {"time": 1992, "pitch": 55, "duration": 6, "velocity": 92}, {"time": 1995, "pitch": 62, "duration": 7, "velocity": 81}, {"time": 1995, "pitch": 67, "duration": 10, "velocity": 85}, {"time": 1995, "pitch": 71, "duration": 11, "velocity": 78}, {"time": 2001, "pitch": 55, "duration": 3, "velocity": 75}, {"time": 2004, "pitch": 62, "duration": 14, "velocity": 89}, {"time": 2007, "pitch": 67, "duration": 11, "velocity": 86}, {"time": 2007, "pitch": 71, "duration": 11, "velocity": 96}, {"time": 2010, "pitch": 43, "duration": 17, "velocity": 83}, {"time": 2013, "pitch": 50, "duration": 10, "velocity": 85}, {"time": 2016, "pitch": 55, "duration": 4, "velocity": 90}, {"time": 2019, "pitch": 62, "duration": 7, "velocity": 100}, {"time": 2019, "pitch": 67, "duration": 8, "velocity": 99}, {"time": 2019, "pitch": 71, "duration": 8, "velocity": 95}, {"time": 2025, "pitch": 50, "duration": 2, "velocity": 83}, {"time": 2028, "pitch": 67, "duration": 5, "velocity": 102}, {"time": 2028, "pitch": 71, "duration": 6, "velocity": 99}, {"time": 2031, "pitch": 62, "duration": 3, "velocity": 82}, {"time": 2034, "pitch": 42, "duration": 23, "velocity": 69}, {"time": 2037, "pitch": 49, "duration": 22, "velocity": 44}, {"time": 2040, "pitch": 54, "duration": 5, "velocity": 89}, {"time": 2043, "pitch": 57, "duration": 6, "velocity": 89}, {"time": 2043, "pitch": 61, "duration": 10, "velocity": 107}, {"time": 2043, "pitch": 66, "duration": 10, "velocity": 93}, {"time": 2049, "pitch": 54, "duration": 12, "velocity": 90}, {"time": 2052, "pitch": 57, "duration": 14, "velocity": 77}, {"time": 2055, "pitch": 61, "duration": 12, "velocity": 107}, {"time": 2055, "pitch": 66, "duration": 13, "velocity": 107}, {"time": 2058, "pitch": 42, "duration": 17, "velocity": 67}, {"time": 2061, "pitch": 49, "duration": 14, "velocity": 34}, {"time": 2064, "pitch": 54, "duration": 7, "velocity": 93}, {"time": 2070, "pitch": 61, "duration": 6, "velocity": 127}, {"time": 2073, "pitch": 54, "duration": 1, "velocity": 117}, {"time": 2076, "pitch": 57, "duration": 6, "velocity": 112}, {"time": 2082, "pitch": 40, "duration": 22, "velocity": 90}, {"time": 2085, "pitch": 47, "duration": 23, "velocity": 75}, {"time": 2088, "pitch": 52, "duration": 7, "velocity": 90}, {"time": 2091, "pitch": 64, "duration": 11, "velocity": 92}, {"time": 2091, "pitch": 67, "duration": 14, "velocity": 88}, {"time": 2097, "pitch": 52, "duration": 3, "velocity": 79}, {"time": 2100, "pitch": 59, "duration": 13, "velocity": 86}, {"time": 2103, "pitch": 64, "duration": 12, "velocity": 95}, {"time": 2106, "pitch": 40, "duration": 17, "velocity": 77}, {"time": 2109, "pitch": 47, "duration": 15, "velocity": 71}, {"time": 2112, "pitch": 52, "duration": 8, "velocity": 96}, {"time": 2118, "pitch": 67, "duration": 11, "velocity": 117}, {"time": 2121, "pitch": 52, "duration": 5, "velocity": 96}, {"time": 2124, "pitch": 64, "duration": 5, "velocity": 93}, {"time": 2127, "pitch": 59, "duration": 3, "velocity": 95}, {"time": 2130, "pitch": 45, "duration": 22, "velocity": 86}, {"time": 2133, "pitch": 52, "duration": 11, "velocity": 79}, {"time": 2136, "pitch": 57, "duration": 5, "velocity": 100}, {"time": 2139, "pitch": 61, "duration": 3, "velocity": 117}, {"time": 2142, "pitch": 64, "duration": 11, "velocity": 96}, {"time": 2145, "pitch": 52, "duration": 9, "velocity": 99}, {"time": 2148, "pitch": 61, "duration": 4, "velocity": 127}, {"time": 2151, "pitch": 59, "duration": 2, "velocity": 74}, {"time": 2154, "pitch": 45, "duration": 24, "velocity": 93}, {"time": 2154, "pitch": 57, "duration": 10, "velocity": 99}, {"time": 2154, "pitch": 61, "duration": 8, "velocity": 76}, {"time": 2154, "pitch": 64, "duration": 8, "velocity": 71}, {"time": 2160, "pitch": 52, "duration": 7, "velocity": 100}, {"time": 2166, "pitch": 61, "duration": 7, "velocity": 127}, {"time": 2166, "pitch": 64, "duration": 13, "velocity": 122}, {"time": 2169, "pitch": 52, "duration": 7, "velocity": 107}, {"time": 2172, "pitch": 57, "duration": 6, "velocity": 107}, {"time": 2175, "pitch": 61, "duration": 3, "velocity": 127}, {"time": 2178, "pitch": 38, "duration": 16, "velocity": 86}, {"time": 2181, "pitch": 45, "duration": 10, "velocity": 96}, {"time": 2184, "pitch": 50, "duration": 5, "velocity": 86}, {"time": 2187, "pitch": 57, "duration": 5, "velocity": 93}, {"time": 2190, "pitch": 66, "duration": 12, "velocity": 127}, {"time": 2193, "pitch": 45, "duration": 1, "velocity": 89}, {"time": 2196, "pitch": 62, "duration": 5, "velocity": 76}, {"time": 2199, "pitch": 57, "duration": 5, "velocity": 83}, {"time": 2202, "pitch": 37, "duration": 5, "velocity": 99}, {"time": 2205, "pitch": 49, "duration": 2, "velocity": 92}, {"time": 2208, "pitch": 57, "duration": 6, "velocity": 90}, {"time": 2211, "pitch": 61, "duration": 3, "velocity": 112}, {"time": 2214, "pitch": 66, "duration": 13, "velocity": 122}, {"time": 2217, "pitch": 57, "duration": 4, "velocity": 76}, {"time": 2220, "pitch": 61, "duration": 6, "velocity": 100}, {"time": 2223, "pitch": 57, "duration": 4, "velocity": 86}, {"time": 2226, "pitch": 47, "duration": 19, "velocity": 78}, {"time": 2229, "pitch": 54, "duration": 11, "velocity": 102}, {"time": 2232, "pitch": 62, "duration": 2, "velocity": 89}, {"time": 2235, "pitch": 61, "duration": 2, "velocity": 100}, {"time": 2238, "pitch": 66, "duration": 12, "velocity": 127}, {"time": 2241, "pitch": 54, "duration": 3, "velocity": 93}, {"time": 2244, "pitch": 61, "duration": 4, "velocity": 97}, {"time": 2247, "pitch": 62, "duration": 3, "velocity": 88}, {"time": 2250, "pitch": 45, "duration": 19, "velocity": 92}, {"time": 2253, "pitch": 52, "duration": 11, "velocity": 93}, {"time": 2256, "pitch": 57, "duration": 3, "velocity": 99}, {"time": 2259, "pitch": 64, "duration": 16, "velocity": 127}, {"time": 2262, "pitch": 61, "duration": 7, "velocity": 122}, {"time": 2265, "pitch": 52, "duration": 3, "velocity": 88}, {"time": 2268, "pitch": 57, "duration": 5, "velocity": 99}, {"time": 2271, "pitch": 61, "duration": 3, "velocity": 122}, {"time": 2274, "pitch": 43, "duration": 17, "velocity": 83}, {"time": 2277, "pitch": 50, "duration": 10, "velocity": 90}, {"time": 2280, "pitch": 55, "duration": 3, "velocity": 100}, {"time": 2283, "pitch": 59, "duration": 3, "velocity": 107}, {"time": 2286, "pitch": 62, "duration": 11, "velocity": 122}, {"time": 2289, "pitch": 50, "duration": 1, "velocity": 78}, {"time": 2292, "pitch": 59, "duration": 4, "velocity": 102}, {"time": 2295, "pitch": 55, "duration": 4, "velocity": 92}, {"time": 2298, "pitch": 38, "duration": 22, "velocity": 77}, {"time": 2301, "pitch": 45, "duration": 20, "velocity": 89}, {"time": 2304, "pitch": 50, "duration": 7, "velocity": 90}, {"time": 2307, "pitch": 57, "duration": 3, "velocity": 97}, {"time": 2310, "pitch": 57, "duration": 1, "velocity": 41}, {"time": 2310, "pitch": 66, "duration": 10, "velocity": 127}, {"time": 2313, "pitch": 50, "duration": 2, "velocity": 93}, {"time": 2316, "pitch": 62, "duration": 4, "velocity": 100}, {"time": 2319, "pitch": 57, "duration": 3, "velocity": 102}, {"time": 2322, "pitch": 40, "duration": 16, "velocity": 89}, {"time": 2325, "pitch": 47, "duration": 10, "velocity": 93}, {"time": 2328, "pitch": 52, "duration": 4, "velocity": 95}, {"time": 2331, "pitch": 55, "duration": 3, "velocity": 122}, {"time": 2334, "pitch": 59, "duration": 6, "velocity": 127}, {"time": 2337, "pitch": 47, "duration": 2, "velocity": 100}, {"time": 2340, "pitch": 55, "duration": 4, "velocity": 102}, {"time": 2343, "pitch": 59, "duration": 3, "velocity": 122}, {"time": 2346, "pitch": 45, "duration": 18, "velocity": 93}, {"time": 2349, "pitch": 52, "duration": 11, "velocity": 97}, {"time": 2352, "pitch": 57, "duration": 3, "velocity": 112}, {"time": 2355, "pitch": 61, "duration": 6, "velocity": 127}, {"time": 2355, "pitch": 64, "duration": 14, "velocity": 100}, {"time": 2358, "pitch": 57, "duration": 7, "velocity": 89}, {"time": 2361, "pitch": 52, "duration": 2, "velocity": 90}, {"time": 2364, "pitch": 61, "duration": 6, "velocity": 127}, {"time": 2367, "pitch": 57, "duration": 4, "velocity": 96}, {"time": 2370, "pitch": 38, "duration": 17, "velocity": 76}, {"time": 2373, "pitch": 45, "duration": 14, "velocity": 76}, {"time": 2376, "pitch": 50, "duration": 7, "velocity": 96}, {"time": 2379, "pitch": 57, "duration": 4, "velocity": 99}, {"time": 2382, "pitch": 66, "duration": 10, "velocity": 127}, {"time": 2385, "pitch": 50, "duration": 2, "velocity": 99}, {"time": 2388, "pitch": 62, "duration": 6, "velocity": 99}, {"time": 2391, "pitch": 57, "duration": 3, "velocity": 102}, {"time": 2394, "pitch": 37, "duration": 16, "velocity": 92}, {"time": 2397, "pitch": 49, "duration": 10, "velocity": 92}, {"time": 2400, "pitch": 57, "duration": 8, "velocity": 86}, {"time": 2403, "pitch": 61, "duration": 4, "velocity": 122}, {"time": 2406, "pitch": 66, "duration": 13, "velocity": 127}, {"time": 2409, "pitch": 49, "duration": 3, "velocity": 96}, {"time": 2412, "pitch": 57, "duration": 6, "velocity": 95}, {"time": 2415, "pitch": 61, "duration": 3, "velocity": 127}, {"time": 2418, "pitch": 47, "duration": 20, "velocity": 83}, {"time": 2421, "pitch": 54, "duration": 11, "velocity": 100}, {"time": 2424, "pitch": 59, "duration": 7, "velocity": 82}, {"time": 2427, "pitch": 61, "duration": 3, "velocity": 100}, {"time": 2430, "pitch": 66, "duration": 10, "velocity": 107}, {"time": 2433, "pitch": 54, "duration": 4, "velocity": 90}, {"time": 2436, "pitch": 62, "duration": 4, "velocity": 100}, {"time": 2439, "pitch": 61, "duration": 4, "velocity": 107}, {"time": 2442, "pitch": 45, "duration": 19, "velocity": 92}, {"time": 2445, "pitch": 52, "duration": 11, "velocity": 71}, {"time": 2448, "pitch": 57, "duration": 5, "velocity": 99}, {"time": 2451, "pitch": 64, "duration": 16, "velocity": 117}, {"time": 2457, "pitch": 52, "duration": 4, "velocity": 86}, {"time": 2460, "pitch": 61, "duration": 6, "velocity": 96}, {"time": 2463, "pitch": 57, "duration": 4, "velocity": 81}, {"time": 2466, "pitch": 43, "duration": 17, "velocity": 72}, {"time": 2469, "pitch": 50, "duration": 11, "velocity": 73}, {"time": 2472, "pitch": 55, "duration": 4, "velocity": 99}, {"time": 2475, "pitch": 62, "duration": 15, "velocity": 122}, {"time": 2478, "pitch": 59, "duration": 7, "velocity": 75}, {"time": 2481, "pitch": 50, "duration": 2, "velocity": 72}, {"time": 2484, "pitch": 55, "duration": 6, "velocity": 88}, {"time": 2487, "pitch": 59, "duration": 3, "velocity": 100}, {"time": 2490, "pitch": 38, "duration": 22, "velocity": 79}, {"time": 2493, "pitch": 45, "duration": 21, "velocity": 73}, {"time": 2496, "pitch": 50, "duration": 7, "velocity": 83}, {"time": 2499, "pitch": 57, "duration": 5, "velocity": 82}, {"time": 2502, "pitch": 66, "duration": 10, "velocity": 127}, {"time": 2505, "pitch": 50, "duration": 4, "velocity": 99}, {"time": 2508, "pitch": 62, "duration": 5, "velocity": 92}, {"time": 2511, "pitch": 57, "duration": 3, "velocity": 96}, {"time": 2514, "pitch": 40, "duration": 8, "velocity": 88}, {"time": 2517, "pitch": 47, "duration": 7, "velocity": 82}, {"time": 2520, "pitch": 52, "duration": 6, "velocity": 107}, {"time": 2523, "pitch": 57, "duration": 3, "velocity": 41}, {"time": 2526, "pitch": 45, "duration": 10, "velocity": 89}, {"time": 2529, "pitch": 52, "duration": 7, "velocity": 72}, {"time": 2532, "pitch": 57, "duration": 6, "velocity": 93}, {"time": 2535, "pitch": 64, "duration": 3, "velocity": 96}, {"time": 2538, "pitch": 38, "duration": 18, "velocity": 83}, {"time": 2541, "pitch": 45, "duration": 16, "velocity": 63}, {"time": 2544, "pitch": 50, "duration": 10, "velocity": 86}, {"time": 2547, "pitch": 57, "duration": 6, "velocity": 69}, {"time": 2550, "pitch": 66, "duration": 13, "velocity": 117}, {"time": 2556, "pitch": 57, "duration": 6, "velocity": 72}, {"time": 2562, "pitch": 37, "duration": 14, "velocity": 74}, {"time": 2568, "pitch": 49, "duration": 10, "velocity": 40}, {"time": 2574, "pitch": 66, "duration": 12, "velocity": 95}, {"time": 2580, "pitch": 61, "duration": 6, "velocity": 72}, {"time": 2586, "pitch": 47, "duration": 18, "velocity": 68}, {"time": 2592, "pitch": 54, "duration": 9, "velocity": 58}, {"time": 2598, "pitch": 66, "duration": 12, "velocity": 99}, {"time": 2604, "pitch": 59, "duration": 6, "velocity": 69}, {"time": 2610, "pitch": 49, "duration": 22, "velocity": 81}, {"time": 2616, "pitch": 61, "duration": 7, "velocity": 86}, {"time": 2622, "pitch": 69, "duration": 11, "velocity": 76}, {"time": 2628, "pitch": 61, "duration": 5, "velocity": 79}, {"time": 2631, "pitch": 66, "duration": 3, "velocity": 63}, {"time": 2633, "pitch": 55, "duration": 40, "velocity": 70}, {"time": 2634, "pitch": 50, "duration": 39, "velocity": 56}, {"time": 2634, "pitch": 43, "duration": 39, "velocity": 25}, {"time": 2634, "pitch": 59, "duration": 39, "velocity": 58}, {"time": 2635, "pitch": 62, "duration": 38, "velocity": 69}], "annotations": [{"time": 18, "annotation": {"number": 64, "value": 127}, "group": "control_change"}, {"time": 41, "annotation": {"number": 64, "value": 0}, "group": "control_change"}, {"time": 43, "annotation": {"number": 64, "value": 127}, "group": "control_change"}, {"time": 64, "annotation": {"number": 64, "value": 0}, "group": "control_change"}, {"time": 65, "annotation": {"number": 64, "value": 127}, "group": "control_change"}, {"time": 88, "annotation": {"number": 64, "value": 0}, "group": "control_change"}, {"time": 89, "annotation": {"number": 64, "value": 127}, "group": "control_change"}, {"time": 110, "annotation": {"number": 64, "value": 0}, "group": "control_change"}, {"time": 114, "annotation": {"number": 64, "value": 127}, "group": "control_change"}, {"time": 135, "annotation": {"number": 64, "value": 0}, "group": "control_change"}, {"time": 138, "annotation": {"number": 64, "value": 127}, "group": "control_change"}, {"time": 159, "annotation": {"number": 64, "value": 0}, "group": "control_change"}, {"time": 162, "annotation": {"number": 64, "value": 127}, "group": "control_change"}, {"time": 184, "annotation": {"number": 64, "value": 0}, "group": "control_change"}, {"time": 186, "annotation": {"number": 64, "value": 127}, "group": "control_change"}, {"time": 206, "annotation": {"number": 64, "value": 0}, "group": "control_change"}, {"time": 211, "annotation": {"number": 64, "value": 127}, "group": "control_change"}, {"time": 256, "annotation": {"number": 64, "value": 0}, "group": "control_change"}, {"time": 258, "annotation": {"number": 64, "value": 127}, "group": "control_change"}, {"time": 279, "annotation": {"number": 64, "value": 0}, "group": "control_change"}, {"time": 282, "annotation": {"number": 64, "value": 127}, "group": "control_change"}, {"time": 303, "annotation": {"number": 64, "value": 0}, "group": "control_change"}, {"time": 306, "annotation": {"number": 64, "value": 127}, "group": "control_change"}, {"time": 328, "annotation": {"number": 64, "value": 0}, "group": "control_change"}, {"time": 330, "annotation": {"number": 64, "value": 127}, "group": "control_change"}, {"time": 351, "annotation": {"number": 64, "value": 0}, "group": "control_change"}, {"time": 354, "annotation": {"number": 64, "value": 127}, "group": "control_change"}, {"time": 376, "annotation": {"number": 64, "value": 0}, "group": "control_change"}, {"time": 378, "annotation": {"number": 64, "value": 127}, "group": "control_change"}, {"time": 400, "annotation": {"number": 64, "value": 0}, "group": "control_change"}, {"time": 402, "annotation": {"number": 64, "value": 127}, "group": "control_change"}, {"time": 427, "annotation": {"number": 64, "value": 0}, "group": "control_change"}, {"time": 430, "annotation": {"number": 64, "value": 127}, "group": "control_change"}, {"time": 448, "annotation": {"number": 64, "value": 0}, "group": "control_change"}, {"time": 450, "annotation": {"number": 64, "value": 127}, "group": "control_change"}, {"time": 471, "annotation": {"number": 64, "value": 0}, "group": "control_change"}, {"time": 474, "annotation": {"number": 64, "value": 127}, "group": "control_change"}, {"time": 496, "annotation": {"number": 64, "value": 0}, "group": "control_change"}, {"time": 498, "annotation": {"number": 64, "value": 127}, "group": "control_change"}, {"time": 519, "annotation": {"number": 64, "value": 0}, "group": "control_change"}, {"time": 523, "annotation": {"number": 64, "value": 127}, "group": "control_change"}, {"time": 541, "annotation": {"number": 64, "value": 0}, "group": "control_change"}, {"time": 546, "annotation": {"number": 64, "value": 127}, "group": "control_change"}, {"time": 565, "annotation": {"number": 64, "value": 0}, "group": "control_change"}, {"time": 571, "annotation": {"number": 64, "value": 127}, "group": "control_change"}, {"time": 589, "annotation": {"number": 64, "value": 0}, "group": "control_change"}, {"time": 595, "annotation": {"number": 64, "value": 127}, "group": "control_change"}, {"time": 614, "annotation": {"number": 64, "value": 0}, "group": "control_change"}, {"time": 642, "annotation": {"number": 64, "value": 127}, "group": "control_change"}, {"time": 643, "annotation": {"number": 64, "value": 127}, "group": "control_change"}, {"time": 664, "annotation": {"number": 64, "value": 0}, "group": "control_change"}, {"time": 666, "annotation": {"number": 64, "value": 127}, "group": "control_change"}, {"time": 688, "annotation": {"number": 64, "value": 0}, "group": "control_change"}, {"time": 690, "annotation": {"number": 64, "value": 127}, "group": "control_change"}, {"time": 712, "annotation": {"number": 64, "value": 0}, "group": "control_change"}, {"time": 714, "annotation": {"number": 64, "value": 127}, "group": "control_change"}, {"time": 736, "annotation": {"number": 64, "value": 0}, "group": "control_change"}, {"time": 738, "annotation": {"number": 64, "value": 127}, "group": "control_change"}, {"time": 760, "annotation": {"number": 64, "value": 0}, "group": "control_change"}, {"time": 762, "annotation": {"number": 64, "value": 127}, "group": "control_change"}, {"time": 784, "annotation": {"number": 64, "value": 0}, "group": "control_change"}, {"time": 786, "annotation": {"number": 64, "value": 127}, "group": "control_change"}, {"time": 807, "annotation": {"number": 64, "value": 0}, "group": "control_change"}, {"time": 810, "annotation": {"number": 64, "value": 127}, "group": "control_change"}, {"time": 832, "annotation": {"number": 64, "value": 0}, "group": "control_change"}, {"time": 834, "annotation": {"number": 64, "value": 127}, "group": "control_change"}, {"time": 856, "annotation": {"number": 64, "value": 0}, "group": "control_change"}, {"time": 858, "annotation": {"number": 64, "value": 127}, "group": "control_change"}, {"time": 880, "annotation": {"number": 64, "value": 0}, "group": "control_change"}, {"time": 882, "annotation": {"number": 64, "value": 127}, "group": "control_change"}, {"time": 904, "annotation": {"number": 64, "value": 0}, "group": "control_change"}, {"time": 906, "annotation": {"number": 64, "value": 127}, "group": "control_change"}, {"time": 927, "annotation": {"number": 64, "value": 0}, "group": "control_change"}, {"time": 930, "annotation": {"number": 64, "value": 127}, "group": "control_change"}, {"time": 952, "annotation": {"number": 64, "value": 0}, "group": "control_change"}, {"time": 955, "annotation": {"number": 64, "value": 127}, "group": "control_change"}, {"time": 970, "annotation": {"number": 64, "value": 0}, "group": "control_change"}, {"time": 978, "annotation": {"number": 64, "value": 127}, "group": "control_change"}, {"time": 989, "annotation": {"number": 64, "value": 0}, "group": "control_change"}, {"time": 1003, "annotation": {"number": 64, "value": 127}, "group": "control_change"}, {"time": 1020, "annotation": {"number": 64, "value": 0}, "group": "control_change"}, {"time": 1029, "annotation": {"number": 64, "value": 127}, "group": "control_change"}, {"time": 1047, "annotation": {"number": 64, "value": 0}, "group": "control_change"}, {"time": 1052, "annotation": {"number": 64, "value": 127}, "group": "control_change"}, {"time": 1069, "annotation": {"number": 64, "value": 0}, "group": "control_change"}, {"time": 1075, "annotation": {"number": 64, "value": 127}, "group": "control_change"}, {"time": 1086, "annotation": {"number": 64, "value": 0}, "group": "control_change"}, {"time": 1099, "annotation": {"number": 64, "value": 127}, "group": "control_change"}, {"time": 1117, "annotation": {"number": 64, "value": 0}, "group": "control_change"}, {"time": 1128, "annotation": {"number": 64, "value": 127}, "group": "control_change"}, {"time": 1142, "annotation": {"number": 64, "value": 0}, "group": "control_change"}, {"time": 1147, "annotation": {"number": 64, "value": 127}, "group": "control_change"}, {"time": 1167, "annotation": {"number": 64, "value": 0}, "group": "control_change"}, {"time": 1171, "annotation": {"number": 64, "value": 127}, "group": "control_change"}, {"time": 1182, "annotation": {"number": 64, "value": 0}, "group": "control_change"}, {"time": 1195, "annotation": {"number": 64, "value": 127}, "group": "control_change"}, {"time": 1205, "annotation": {"number": 64, "value": 0}, "group": "control_change"}, {"time": 1218, "annotation": {"number": 64, "value": 127}, "group": "control_change"}, {"time": 1239, "annotation": {"number": 64, "value": 0}, "group": "control_change"}, {"time": 1243, "annotation": {"number": 64, "value": 127}, "group": "control_change"}, {"time": 1262, "annotation": {"number": 64, "value": 0}, "group": "control_change"}, {"time": 1266, "annotation": {"number": 64, "value": 127}, "group": "control_change"}, {"time": 1287, "annotation": {"number": 64, "value": 0}, "group": "control_change"}, {"time": 1291, "annotation": {"number": 64, "value": 127}, "group": "control_change"}, {"time": 1310, "annotation": {"number": 64, "value": 0}, "group": "control_change"}, {"time": 1315, "annotation": {"number": 64, "value": 127}, "group": "control_change"}, {"time": 1334, "annotation": {"number": 64, "value": 0}, "group": "control_change"}, {"time": 1339, "annotation": {"number": 64, "value": 127}, "group": "control_change"}, {"time": 1356, "annotation": {"number": 64, "value": 0}, "group": "control_change"}, {"time": 1363, "annotation": {"number": 64, "value": 127}, "group": "control_change"}, {"time": 1381, "annotation": {"number": 64, "value": 0}, "group": "control_change"}, {"time": 1387, "annotation": {"number": 64, "value": 127}, "group": "control_change"}, {"time": 1405, "annotation": {"number": 64, "value": 0}, "group": "control_change"}, {"time": 1435, "annotation": {"number": 64, "value": 127}, "group": "control_change"}, {"time": 1452, "annotation": {"number": 64, "value": 0}, "group": "control_change"}, {"time": 1458, "annotation": {"number": 64, "value": 127}, "group": "control_change"}, {"time": 1479, "annotation": {"number": 64, "value": 0}, "group": "control_change"}, {"time": 1482, "annotation": {"number": 64, "value": 127}, "group": "control_change"}, {"time": 1503, "annotation": {"number": 64, "value": 0}, "group": "control_change"}, {"time": 1506, "annotation": {"number": 64, "value": 127}, "group": "control_change"}, {"time": 1527, "annotation": {"number": 64, "value": 0}, "group": "control_change"}, {"time": 1531, "annotation": {"number": 64, "value": 127}, "group": "control_change"}, {"time": 1550, "annotation": {"number": 64, "value": 0}, "group": "control_change"}, {"time": 1555, "annotation": {"number": 64, "value": 127}, "group": "control_change"}, {"time": 1572, "annotation": {"number": 64, "value": 0}, "group": "control_change"}, {"time": 1578, "annotation": {"number": 64, "value": 127}, "group": "control_change"}, {"time": 1598, "annotation": {"number": 64, "value": 0}, "group": "control_change"}, {"time": 1602, "annotation": {"number": 64, "value": 127}, "group": "control_change"}, {"time": 1624, "annotation": {"number": 64, "value": 0}, "group": "control_change"}, {"time": 1627, "annotation": {"number": 64, "value": 127}, "group": "control_change"}, {"time": 1646, "annotation": {"number": 64, "value": 0}, "group": "control_change"}, {"time": 1651, "annotation": {"number": 64, "value": 127}, "group": "control_change"}, {"time": 1672, "annotation": {"number": 64, "value": 0}, "group": "control_change"}, {"time": 1675, "annotation": {"number": 64, "value": 127}, "group": "control_change"}, {"time": 1693, "annotation": {"number": 64, "value": 0}, "group": "control_change"}, {"time": 1698, "annotation": {"number": 64, "value": 127}, "group": "control_change"}, {"time": 1718, "annotation": {"number": 64, "value": 0}, "group": "control_change"}, {"time": 1723, "annotation": {"number": 64, "value": 127}, "group": "control_change"}, {"time": 1738, "annotation": {"number": 64, "value": 0}, "group": "control_change"}, {"time": 1747, "annotation": {"number": 64, "value": 127}, "group": "control_change"}, {"time": 1764, "annotation": {"number": 64, "value": 0}, "group": "control_change"}, {"time": 1771, "annotation": {"number": 64, "value": 127}, "group": "control_change"}, {"time": 1776, "annotation": {"number": 64, "value": 0}, "group": "control_change"}, {"time": 1795, "annotation": {"number": 64, "value": 127}, "group": "control_change"}, {"time": 1814, "annotation": {"number": 64, "value": 0}, "group": "control_change"}, {"time": 1819, "annotation": {"number": 64, "value": 127}, "group": "control_change"}, {"time": 1837, "annotation": {"number": 64, "value": 0}, "group": "control_change"}, {"time": 1842, "annotation": {"number": 64, "value": 127}, "group": "control_change"}, {"time": 1864, "annotation": {"number": 64, "value": 0}, "group": "control_change"}, {"time": 1867, "annotation": {"number": 64, "value": 127}, "group": "control_change"}, {"time": 1885, "annotation": {"number": 64, "value": 0}, "group": "control_change"}, {"time": 1890, "annotation": {"number": 64, "value": 127}, "group": "control_change"}, {"time": 1910, "annotation": {"number": 64, "value": 0}, "group": "control_change"}, {"time": 1914, "annotation": {"number": 64, "value": 127}, "group": "control_change"}, {"time": 1936, "annotation": {"number": 64, "value": 0}, "group": "control_change"}, {"time": 1938, "annotation": {"number": 64, "value": 127}, "group": "control_change"}, {"time": 1958, "annotation": {"number": 64, "value": 0}, "group": "control_change"}, {"time": 1962, "annotation": {"number": 64, "value": 127}, "group": "control_change"}, {"time": 1981, "annotation": {"number": 64, "value": 0}, "group": "control_change"}, {"time": 1986, "annotation": {"number": 64, "value": 127}, "group": "control_change"}, {"time": 2005, "annotation": {"number": 64, "value": 0}, "group": "control_change"}, {"time": 2010, "annotation": {"number": 64, "value": 127}, "group": "control_change"}, {"time": 2029, "annotation": {"number": 64, "value": 0}, "group": "control_change"}, {"time": 2034, "annotation": {"number": 64, "value": 127}, "group": "control_change"}, {"time": 2052, "annotation": {"number": 64, "value": 0}, "group": "control_change"}, {"time": 2058, "annotation": {"number": 64, "value": 127}, "group": "control_change"}, {"time": 2077, "annotation": {"number": 64, "value": 0}, "group": "control_change"}, {"time": 2083, "annotation": {"number": 64, "value": 127}, "group": "control_change"}, {"time": 2100, "annotation": {"number": 64, "value": 0}, "group": "control_change"}, {"time": 2106, "annotation": {"number": 64, "value": 127}, "group": "control_change"}, {"time": 2125, "annotation": {"number": 64, "value": 0}, "group": "control_change"}, {"time": 2130, "annotation": {"number": 64, "value": 127}, "group": "control_change"}, {"time": 2150, "annotation": {"number": 64, "value": 0}, "group": "control_change"}, {"time": 2154, "annotation": {"number": 64, "value": 127}, "group": "control_change"}, {"time": 2164, "annotation": {"number": 64, "value": 0}, "group": "control_change"}, {"time": 2181, "annotation": {"number": 64, "value": 127}, "group": "control_change"}, {"time": 2199, "annotation": {"number": 64, "value": 0}, "group": "control_change"}, {"time": 2203, "annotation": {"number": 64, "value": 127}, "group": "control_change"}, {"time": 2222, "annotation": {"number": 64, "value": 0}, "group": "control_change"}, {"time": 2227, "annotation": {"number": 64, "value": 127}, "group": "control_change"}, {"time": 2248, "annotation": {"number": 64, "value": 0}, "group": "control_change"}, {"time": 2251, "annotation": {"number": 64, "value": 127}, "group": "control_change"}, {"time": 2270, "annotation": {"number": 64, "value": 0}, "group": "control_change"}, {"time": 2275, "annotation": {"number": 64, "value": 127}, "group": "control_change"}, {"time": 2294, "annotation": {"number": 64, "value": 0}, "group": "control_change"}, {"time": 2299, "annotation": {"number": 64, "value": 127}, "group": "control_change"}, {"time": 2316, "annotation": {"number": 64, "value": 0}, "group": "control_change"}, {"time": 2323, "annotation": {"number": 64, "value": 127}, "group": "control_change"}, {"time": 2344, "annotation": {"number": 64, "value": 0}, "group": "control_change"}, {"time": 2347, "annotation": {"number": 64, "value": 127}, "group": "control_change"}, {"time": 2366, "annotation": {"number": 64, "value": 0}, "group": "control_change"}, {"time": 2370, "annotation": {"number": 64, "value": 127}, "group": "control_change"}, {"time": 2392, "annotation": {"number": 64, "value": 0}, "group": "control_change"}, {"time": 2395, "annotation": {"number": 64, "value": 127}, "group": "control_change"}, {"time": 2416, "annotation": {"number": 64, "value": 0}, "group": "control_change"}, {"time": 2419, "annotation": {"number": 64, "value": 127}, "group": "control_change"}, {"time": 2439, "annotation": {"number": 64, "value": 0}, "group": "control_change"}, {"time": 2443, "annotation": {"number": 64, "value": 127}, "group": "control_change"}, {"time": 2450, "annotation": {"number": 64, "value": 0}, "group": "control_change"}, {"time": 2455, "annotation": {"number": 64, "value": 127}, "group": "control_change"}, {"time": 2461, "annotation": {"number": 64, "value": 0}, "group": "control_change"}, {"time": 2467, "annotation": {"number": 64, "value": 127}, "group": "control_change"}, {"time": 2486, "annotation": {"number": 64, "value": 0}, "group": "control_change"}, {"time": 2491, "annotation": {"number": 64, "value": 127}, "group": "control_change"}, {"time": 2509, "annotation": {"number": 64, "value": 0}, "group": "control_change"}, {"time": 2515, "annotation": {"number": 64, "value": 127}, "group": "control_change"}, {"time": 2520, "annotation": {"number": 64, "value": 0}, "group": "control_change"}, {"time": 2527, "annotation": {"number": 64, "value": 127}, "group": "control_change"}, {"time": 2529, "annotation": {"number": 64, "value": 0}, "group": "control_change"}, {"time": 2539, "annotation": {"number": 64, "value": 127}, "group": "control_change"}, {"time": 2557, "annotation": {"number": 64, "value": 0}, "group": "control_change"}, {"time": 2563, "annotation": {"number": 64, "value": 127}, "group": "control_change"}, {"time": 2580, "annotation": {"number": 64, "value": 0}, "group": "control_change"}, {"time": 2587, "annotation": {"number": 64, "value": 127}, "group": "control_change"}, {"time": 2604, "annotation": {"number": 64, "value": 0}, "group": "control_change"}, {"time": 2611, "annotation": {"number": 64, "value": 127}, "group": "control_change"}, {"time": 2630, "annotation": {"number": 64, "value": 0}, "group": "control_change"}, {"time": 2669, "annotation": {"number": 64, "value": 127}, "group": "control_change"}, {"time": 2697, "annotation": {"number": 64, "value": 0}, "group": "control_change"}, {"time": 2704, "annotation": {"number": 64, "value": 127}, "group": "control_change"}, {"time": 2718, "annotation": {"number": 64, "value": 0}, "group": "control_change"}]}]}