{"metadata": {"schema_version": "0.2", "title": "None", "source_filename": "378.mid", "source_format": "midi"}, "resolution": 12, "tempos": [{"time": 0, "qpm": 59.50008032510844}], "time_signatures": [{"time": 0, "numerator": 1, "denominator": 4}], "tracks": [{"program": 0, "is_drum": false, "name": "MELODY", "notes": [{"time": 17, "pitch": 65, "duration": 1, "velocity": 88}, {"time": 20, "pitch": 65, "duration": 2, "velocity": 82}, {"time": 23, "pitch": 67, "duration": 2, "velocity": 98}, {"time": 26, "pitch": 69, "duration": 4, "velocity": 113}, {"time": 32, "pitch": 62, "duration": 4, "velocity": 113}, {"time": 38, "pitch": 62, "duration": 1, "velocity": 108}, {"time": 41, "pitch": 69, "duration": 7, "velocity": 113}, {"time": 50, "pitch": 67, "duration": 12, "velocity": 113}, {"time": 65, "pitch": 67, "duration": 1, "velocity": 85}, {"time": 68, "pitch": 67, "duration": 2, "velocity": 103}, {"time": 71, "pitch": 69, "duration": 2, "velocity": 113}, {"time": 74, "pitch": 72, "duration": 5, "velocity": 113}, {"time": 80, "pitch": 69, "duration": 3, "velocity": 108}, {"time": 86, "pitch": 60, "duration": 2, "velocity": 103}, {"time": 89, "pitch": 67, "duration": 7, "velocity": 113}, {"time": 98, "pitch": 65, "duration": 12, "velocity": 113}, {"time": 113, "pitch": 62, "duration": 1, "velocity": 88}, {"time": 116, "pitch": 62, "duration": 1, "velocity": 88}, {"time": 119, "pitch": 64, "duration": 2, "velocity": 98}, {"time": 122, "pitch": 65, "duration": 3, "velocity": 108}, {"time": 128, "pitch": 58, "duration": 1, "velocity": 113}, {"time": 131, "pitch": 58, "duration": 5, "velocity": 113}, {"time": 143, "pitch": 65, "duration": 2, "velocity": 103}, {"time": 146, "pitch": 67, "duration": 5, "velocity": 113}, {"time": 152, "pitch": 60, "duration": 2, "velocity": 108}, {"time": 155, "pitch": 60, "duration": 9, "velocity": 113}, {"time": 167, "pitch": 60, "duration": 1, "velocity": 82}, {"time": 170, "pitch": 60, "duration": 4, "velocity": 103}, {"time": 176, "pitch": 60, "duration": 6, "velocity": 93}, {"time": 182, "pitch": 57, "duration": 3, "velocity": 85}, {"time": 185, "pitch": 65, "duration": 7, "velocity": 78}, {"time": 194, "pitch": 62, "duration": 29, "velocity": 93}, {"time": 428, "pitch": 65, "duration": 2, "velocity": 85}, {"time": 431, "pitch": 65, "duration": 1, "velocity": 61}, {"time": 434, "pitch": 65, "duration": 3, "velocity": 86}, {"time": 440, "pitch": 57, "duration": 1, "velocity": 81}, {"time": 443, "pitch": 57, "duration": 7, "velocity": 79}, {"time": 452, "pitch": 62, "duration": 2, "velocity": 83}, {"time": 455, "pitch": 65, "duration": 2, "velocity": 72}, {"time": 458, "pitch": 64, "duration": 4, "velocity": 98}, {"time": 464, "pitch": 62, "duration": 2, "velocity": 83}, {"time": 467, "pitch": 60, "duration": 9, "velocity": 72}, {"time": 482, "pitch": 62, "duration": 2, "velocity": 108}, {"time": 485, "pitch": 62, "duration": 2, "velocity": 76}, {"time": 488, "pitch": 62, "duration": 2, "velocity": 76}, {"time": 491, "pitch": 62, "duration": 2, "velocity": 79}, {"time": 494, "pitch": 60, "duration": 3, "velocity": 98}, {"time": 500, "pitch": 62, "duration": 1, "velocity": 93}, {"time": 503, "pitch": 60, "duration": 2, "velocity": 85}, {"time": 509, "pitch": 57, "duration": 14, "velocity": 81}, {"time": 524, "pitch": 55, "duration": 2, "velocity": 79}, {"time": 527, "pitch": 57, "duration": 2, "velocity": 79}, {"time": 530, "pitch": 58, "duration": 4, "velocity": 88}, {"time": 536, "pitch": 57, "duration": 2, "velocity": 68}, {"time": 539, "pitch": 58, "duration": 9, "velocity": 88}, {"time": 548, "pitch": 62, "duration": 2, "velocity": 103}, {"time": 551, "pitch": 65, "duration": 1, "velocity": 88}, {"time": 554, "pitch": 64, "duration": 4, "velocity": 108}, {"time": 560, "pitch": 62, "duration": 2, "velocity": 85}, {"time": 563, "pitch": 60, "duration": 10, "velocity": 79}, {"time": 578, "pitch": 62, "duration": 1, "velocity": 113}, {"time": 581, "pitch": 62, "duration": 1, "velocity": 83}, {"time": 584, "pitch": 62, "duration": 2, "velocity": 81}, {"time": 587, "pitch": 65, "duration": 2, "velocity": 85}, {"time": 590, "pitch": 64, "duration": 3, "velocity": 98}, {"time": 596, "pitch": 60, "duration": 2, "velocity": 71}, {"time": 599, "pitch": 64, "duration": 2, "velocity": 81}, {"time": 605, "pitch": 62, "duration": 17, "velocity": 93}, {"time": 644, "pitch": 65, "duration": 2, "velocity": 81}, {"time": 647, "pitch": 65, "duration": 2, "velocity": 78}, {"time": 650, "pitch": 65, "duration": 3, "velocity": 98}, {"time": 656, "pitch": 57, "duration": 1, "velocity": 82}, {"time": 659, "pitch": 57, "duration": 4, "velocity": 85}, {"time": 668, "pitch": 62, "duration": 2, "velocity": 98}, {"time": 671, "pitch": 65, "duration": 2, "velocity": 88}, {"time": 674, "pitch": 64, "duration": 5, "velocity": 108}, {"time": 680, "pitch": 62, "duration": 2, "velocity": 103}, {"time": 683, "pitch": 60, "duration": 9, "velocity": 93}, {"time": 698, "pitch": 62, "duration": 1, "velocity": 98}, {"time": 701, "pitch": 62, "duration": 1, "velocity": 81}, {"time": 704, "pitch": 62, "duration": 1, "velocity": 76}, {"time": 707, "pitch": 62, "duration": 2, "velocity": 85}, {"time": 710, "pitch": 60, "duration": 3, "velocity": 93}, {"time": 716, "pitch": 62, "duration": 1, "velocity": 108}, {"time": 719, "pitch": 60, "duration": 2, "velocity": 113}, {"time": 725, "pitch": 57, "duration": 14, "velocity": 85}, {"time": 740, "pitch": 55, "duration": 2, "velocity": 85}, {"time": 743, "pitch": 57, "duration": 1, "velocity": 81}, {"time": 746, "pitch": 58, "duration": 4, "velocity": 98}, {"time": 752, "pitch": 57, "duration": 10, "velocity": 93}, {"time": 764, "pitch": 62, "duration": 2, "velocity": 113}, {"time": 767, "pitch": 65, "duration": 2, "velocity": 86}, {"time": 770, "pitch": 64, "duration": 4, "velocity": 108}, {"time": 776, "pitch": 62, "duration": 2, "velocity": 88}, {"time": 779, "pitch": 60, "duration": 9, "velocity": 93}, {"time": 794, "pitch": 62, "duration": 1, "velocity": 86}, {"time": 797, "pitch": 62, "duration": 1, "velocity": 82}, {"time": 800, "pitch": 62, "duration": 2, "velocity": 98}, {"time": 803, "pitch": 65, "duration": 2, "velocity": 88}, {"time": 806, "pitch": 67, "duration": 3, "velocity": 98}, {"time": 812, "pitch": 64, "duration": 2, "velocity": 98}, {"time": 815, "pitch": 60, "duration": 1, "velocity": 86}, {"time": 818, "pitch": 64, "duration": 3, "velocity": 108}, {"time": 824, "pitch": 62, "duration": 18, "velocity": 108}, {"time": 857, "pitch": 65, "duration": 1, "velocity": 108}, {"time": 860, "pitch": 65, "duration": 1, "velocity": 108}, {"time": 863, "pitch": 67, "duration": 1, "velocity": 108}, {"time": 866, "pitch": 69, "duration": 4, "velocity": 113}, {"time": 872, "pitch": 62, "duration": 1, "velocity": 85}, {"time": 878, "pitch": 62, "duration": 2, "velocity": 113}, {"time": 881, "pitch": 69, "duration": 5, "velocity": 98}, {"time": 890, "pitch": 67, "duration": 12, "velocity": 113}, {"time": 905, "pitch": 67, "duration": 1, "velocity": 93}, {"time": 908, "pitch": 67, "duration": 2, "velocity": 88}, {"time": 911, "pitch": 69, "duration": 3, "velocity": 113}, {"time": 914, "pitch": 72, "duration": 4, "velocity": 113}, {"time": 920, "pitch": 69, "duration": 3, "velocity": 93}, {"time": 926, "pitch": 60, "duration": 2, "velocity": 98}, {"time": 929, "pitch": 67, "duration": 7, "velocity": 113}, {"time": 938, "pitch": 65, "duration": 9, "velocity": 108}, {"time": 953, "pitch": 62, "duration": 1, "velocity": 103}, {"time": 956, "pitch": 62, "duration": 1, "velocity": 103}, {"time": 959, "pitch": 64, "duration": 1, "velocity": 98}, {"time": 962, "pitch": 65, "duration": 3, "velocity": 108}, {"time": 968, "pitch": 58, "duration": 1, "velocity": 113}, {"time": 971, "pitch": 58, "duration": 8, "velocity": 113}, {"time": 983, "pitch": 65, "duration": 2, "velocity": 108}, {"time": 986, "pitch": 67, "duration": 3, "velocity": 113}, {"time": 992, "pitch": 60, "duration": 1, "velocity": 93}, {"time": 995, "pitch": 60, "duration": 7, "velocity": 98}, {"time": 1007, "pitch": 60, "duration": 2, "velocity": 98}, {"time": 1010, "pitch": 70, "duration": 5, "velocity": 113}, {"time": 1016, "pitch": 69, "duration": 4, "velocity": 113}, {"time": 1022, "pitch": 69, "duration": 2, "velocity": 113}, {"time": 1025, "pitch": 67, "duration": 5, "velocity": 113}, {"time": 1031, "pitch": 69, "duration": 17, "velocity": 113}, {"time": 1049, "pitch": 65, "duration": 1, "velocity": 88}, {"time": 1052, "pitch": 65, "duration": 2, "velocity": 82}, {"time": 1055, "pitch": 67, "duration": 2, "velocity": 98}, {"time": 1058, "pitch": 69, "duration": 4, "velocity": 113}, {"time": 1064, "pitch": 62, "duration": 4, "velocity": 113}, {"time": 1070, "pitch": 62, "duration": 1, "velocity": 108}, {"time": 1073, "pitch": 69, "duration": 7, "velocity": 113}, {"time": 1082, "pitch": 67, "duration": 12, "velocity": 113}, {"time": 1097, "pitch": 67, "duration": 1, "velocity": 85}, {"time": 1100, "pitch": 67, "duration": 2, "velocity": 103}, {"time": 1103, "pitch": 69, "duration": 2, "velocity": 113}, {"time": 1106, "pitch": 72, "duration": 5, "velocity": 113}, {"time": 1112, "pitch": 69, "duration": 3, "velocity": 108}, {"time": 1118, "pitch": 60, "duration": 2, "velocity": 103}, {"time": 1121, "pitch": 67, "duration": 7, "velocity": 113}, {"time": 1130, "pitch": 65, "duration": 12, "velocity": 113}, {"time": 1145, "pitch": 62, "duration": 1, "velocity": 88}, {"time": 1148, "pitch": 62, "duration": 1, "velocity": 88}, {"time": 1151, "pitch": 64, "duration": 2, "velocity": 98}, {"time": 1154, "pitch": 65, "duration": 3, "velocity": 108}, {"time": 1160, "pitch": 58, "duration": 1, "velocity": 113}, {"time": 1163, "pitch": 58, "duration": 5, "velocity": 113}, {"time": 1175, "pitch": 65, "duration": 2, "velocity": 103}, {"time": 1178, "pitch": 67, "duration": 5, "velocity": 113}, {"time": 1184, "pitch": 60, "duration": 2, "velocity": 108}, {"time": 1187, "pitch": 60, "duration": 9, "velocity": 113}, {"time": 1202, "pitch": 60, "duration": 1, "velocity": 103}, {"time": 1205, "pitch": 60, "duration": 1, "velocity": 88}, {"time": 1208, "pitch": 60, "duration": 7, "velocity": 113}, {"time": 1217, "pitch": 57, "duration": 2, "velocity": 108}, {"time": 1220, "pitch": 65, "duration": 7, "velocity": 113}, {"time": 1229, "pitch": 62, "duration": 25, "velocity": 113}, {"time": 1436, "pitch": 65, "duration": 2, "velocity": 81}, {"time": 1439, "pitch": 65, "duration": 2, "velocity": 78}, {"time": 1442, "pitch": 65, "duration": 3, "velocity": 98}, {"time": 1448, "pitch": 57, "duration": 1, "velocity": 82}, {"time": 1451, "pitch": 57, "duration": 4, "velocity": 85}, {"time": 1460, "pitch": 62, "duration": 2, "velocity": 98}, {"time": 1463, "pitch": 65, "duration": 2, "velocity": 88}, {"time": 1466, "pitch": 64, "duration": 5, "velocity": 108}, {"time": 1472, "pitch": 62, "duration": 2, "velocity": 103}, {"time": 1475, "pitch": 60, "duration": 9, "velocity": 93}, {"time": 1490, "pitch": 62, "duration": 1, "velocity": 98}, {"time": 1493, "pitch": 62, "duration": 1, "velocity": 81}, {"time": 1496, "pitch": 62, "duration": 1, "velocity": 76}, {"time": 1499, "pitch": 62, "duration": 2, "velocity": 85}, {"time": 1502, "pitch": 60, "duration": 3, "velocity": 93}, {"time": 1508, "pitch": 62, "duration": 1, "velocity": 108}, {"time": 1511, "pitch": 60, "duration": 2, "velocity": 113}, {"time": 1517, "pitch": 57, "duration": 14, "velocity": 85}, {"time": 1532, "pitch": 55, "duration": 2, "velocity": 85}, {"time": 1535, "pitch": 57, "duration": 1, "velocity": 81}, {"time": 1538, "pitch": 58, "duration": 4, "velocity": 98}, {"time": 1544, "pitch": 57, "duration": 10, "velocity": 93}, {"time": 1556, "pitch": 62, "duration": 2, "velocity": 113}, {"time": 1559, "pitch": 65, "duration": 2, "velocity": 86}, {"time": 1562, "pitch": 64, "duration": 4, "velocity": 108}, {"time": 1568, "pitch": 62, "duration": 2, "velocity": 88}, {"time": 1571, "pitch": 60, "duration": 9, "velocity": 93}, {"time": 1586, "pitch": 62, "duration": 1, "velocity": 86}, {"time": 1589, "pitch": 62, "duration": 1, "velocity": 82}, {"time": 1592, "pitch": 62, "duration": 2, "velocity": 98}, {"time": 1595, "pitch": 65, "duration": 2, "velocity": 88}, {"time": 1598, "pitch": 67, "duration": 3, "velocity": 98}, {"time": 1604, "pitch": 64, "duration": 2, "velocity": 98}, {"time": 1607, "pitch": 60, "duration": 1, "velocity": 86}, {"time": 1610, "pitch": 64, "duration": 3, "velocity": 108}, {"time": 1616, "pitch": 62, "duration": 18, "velocity": 108}, {"time": 1649, "pitch": 65, "duration": 1, "velocity": 108}, {"time": 1652, "pitch": 65, "duration": 1, "velocity": 108}, {"time": 1655, "pitch": 67, "duration": 1, "velocity": 108}, {"time": 1658, "pitch": 69, "duration": 4, "velocity": 113}, {"time": 1664, "pitch": 62, "duration": 1, "velocity": 85}, {"time": 1670, "pitch": 62, "duration": 2, "velocity": 113}, {"time": 1673, "pitch": 69, "duration": 5, "velocity": 98}, {"time": 1682, "pitch": 67, "duration": 12, "velocity": 113}, {"time": 1697, "pitch": 67, "duration": 1, "velocity": 93}, {"time": 1700, "pitch": 67, "duration": 2, "velocity": 88}, {"time": 1703, "pitch": 69, "duration": 3, "velocity": 113}, {"time": 1706, "pitch": 72, "duration": 4, "velocity": 113}, {"time": 1712, "pitch": 69, "duration": 3, "velocity": 93}, {"time": 1718, "pitch": 60, "duration": 2, "velocity": 98}, {"time": 1721, "pitch": 67, "duration": 7, "velocity": 113}, {"time": 1730, "pitch": 65, "duration": 9, "velocity": 108}, {"time": 1745, "pitch": 62, "duration": 1, "velocity": 103}, {"time": 1748, "pitch": 62, "duration": 1, "velocity": 103}, {"time": 1751, "pitch": 64, "duration": 1, "velocity": 98}, {"time": 1754, "pitch": 65, "duration": 3, "velocity": 108}, {"time": 1760, "pitch": 58, "duration": 1, "velocity": 113}, {"time": 1763, "pitch": 58, "duration": 8, "velocity": 113}, {"time": 1775, "pitch": 65, "duration": 2, "velocity": 108}, {"time": 1778, "pitch": 67, "duration": 3, "velocity": 113}, {"time": 1784, "pitch": 60, "duration": 1, "velocity": 93}, {"time": 1787, "pitch": 60, "duration": 7, "velocity": 98}, {"time": 1799, "pitch": 60, "duration": 2, "velocity": 98}, {"time": 1802, "pitch": 70, "duration": 5, "velocity": 113}, {"time": 1808, "pitch": 69, "duration": 4, "velocity": 113}, {"time": 1814, "pitch": 69, "duration": 2, "velocity": 113}, {"time": 1817, "pitch": 67, "duration": 5, "velocity": 113}, {"time": 1823, "pitch": 69, "duration": 17, "velocity": 113}, {"time": 1841, "pitch": 65, "duration": 1, "velocity": 88}, {"time": 1844, "pitch": 65, "duration": 2, "velocity": 82}, {"time": 1847, "pitch": 67, "duration": 2, "velocity": 98}, {"time": 1850, "pitch": 69, "duration": 4, "velocity": 113}, {"time": 1856, "pitch": 62, "duration": 4, "velocity": 113}, {"time": 1862, "pitch": 62, "duration": 1, "velocity": 108}, {"time": 1865, "pitch": 69, "duration": 7, "velocity": 113}, {"time": 1874, "pitch": 67, "duration": 12, "velocity": 113}, {"time": 1889, "pitch": 67, "duration": 1, "velocity": 85}, {"time": 1892, "pitch": 67, "duration": 2, "velocity": 103}, {"time": 1895, "pitch": 69, "duration": 2, "velocity": 113}, {"time": 1898, "pitch": 72, "duration": 5, "velocity": 113}, {"time": 1904, "pitch": 69, "duration": 3, "velocity": 108}, {"time": 1910, "pitch": 60, "duration": 2, "velocity": 103}, {"time": 1913, "pitch": 67, "duration": 7, "velocity": 113}, {"time": 1922, "pitch": 65, "duration": 12, "velocity": 113}, {"time": 1937, "pitch": 62, "duration": 1, "velocity": 88}, {"time": 1940, "pitch": 62, "duration": 1, "velocity": 88}, {"time": 1943, "pitch": 64, "duration": 2, "velocity": 98}, {"time": 1946, "pitch": 65, "duration": 3, "velocity": 108}, {"time": 1952, "pitch": 58, "duration": 1, "velocity": 113}, {"time": 1955, "pitch": 58, "duration": 5, "velocity": 113}, {"time": 1967, "pitch": 65, "duration": 2, "velocity": 103}, {"time": 1970, "pitch": 67, "duration": 5, "velocity": 113}, {"time": 1976, "pitch": 60, "duration": 2, "velocity": 108}, {"time": 1979, "pitch": 60, "duration": 9, "velocity": 113}, {"time": 1994, "pitch": 60, "duration": 1, "velocity": 103}, {"time": 1997, "pitch": 60, "duration": 1, "velocity": 88}, {"time": 2000, "pitch": 60, "duration": 7, "velocity": 113}, {"time": 2009, "pitch": 57, "duration": 2, "velocity": 108}, {"time": 2012, "pitch": 65, "duration": 7, "velocity": 113}, {"time": 2018, "pitch": 62, "duration": 15, "velocity": 113}, {"time": 2036, "pitch": 62, "duration": 2, "velocity": 98}, {"time": 2039, "pitch": 64, "duration": 2, "velocity": 103}, {"time": 2042, "pitch": 65, "duration": 4, "velocity": 108}, {"time": 2048, "pitch": 65, "duration": 1, "velocity": 113}, {"time": 2051, "pitch": 65, "duration": 3, "velocity": 113}, {"time": 2057, "pitch": 69, "duration": 7, "velocity": 113}, {"time": 2066, "pitch": 67, "duration": 9, "velocity": 113}, {"time": 2084, "pitch": 64, "duration": 3, "velocity": 113}, {"time": 2087, "pitch": 62, "duration": 2, "velocity": 83}, {"time": 2090, "pitch": 60, "duration": 4, "velocity": 113}, {"time": 2096, "pitch": 57, "duration": 2, "velocity": 108}, {"time": 2099, "pitch": 60, "duration": 3, "velocity": 103}, {"time": 2105, "pitch": 67, "duration": 8, "velocity": 113}, {"time": 2114, "pitch": 65, "duration": 14, "velocity": 113}, {"time": 2132, "pitch": 62, "duration": 2, "velocity": 98}, {"time": 2135, "pitch": 64, "duration": 2, "velocity": 113}, {"time": 2138, "pitch": 65, "duration": 4, "velocity": 113}, {"time": 2144, "pitch": 65, "duration": 2, "velocity": 113}, {"time": 2147, "pitch": 65, "duration": 5, "velocity": 113}, {"time": 2153, "pitch": 69, "duration": 7, "velocity": 98}, {"time": 2162, "pitch": 67, "duration": 12, "velocity": 108}, {"time": 2180, "pitch": 67, "duration": 3, "velocity": 113}, {"time": 2183, "pitch": 65, "duration": 2, "velocity": 79}, {"time": 2186, "pitch": 70, "duration": 4, "velocity": 113}, {"time": 2192, "pitch": 70, "duration": 3, "velocity": 113}, {"time": 2198, "pitch": 69, "duration": 1, "velocity": 113}, {"time": 2201, "pitch": 67, "duration": 7, "velocity": 113}, {"time": 2207, "pitch": 69, "duration": 27, "velocity": 108}, {"time": 2249, "pitch": 65, "duration": 1, "velocity": 108}, {"time": 2252, "pitch": 65, "duration": 1, "velocity": 108}, {"time": 2255, "pitch": 67, "duration": 1, "velocity": 108}, {"time": 2258, "pitch": 69, "duration": 4, "velocity": 113}, {"time": 2264, "pitch": 62, "duration": 1, "velocity": 85}, {"time": 2270, "pitch": 62, "duration": 2, "velocity": 113}, {"time": 2273, "pitch": 69, "duration": 5, "velocity": 98}, {"time": 2282, "pitch": 67, "duration": 12, "velocity": 113}, {"time": 2297, "pitch": 67, "duration": 1, "velocity": 93}, {"time": 2300, "pitch": 67, "duration": 2, "velocity": 88}, {"time": 2303, "pitch": 69, "duration": 3, "velocity": 113}, {"time": 2306, "pitch": 72, "duration": 4, "velocity": 113}, {"time": 2312, "pitch": 69, "duration": 3, "velocity": 93}, {"time": 2318, "pitch": 60, "duration": 2, "velocity": 98}, {"time": 2321, "pitch": 67, "duration": 7, "velocity": 113}, {"time": 2330, "pitch": 65, "duration": 9, "velocity": 108}, {"time": 2345, "pitch": 62, "duration": 1, "velocity": 103}, {"time": 2348, "pitch": 62, "duration": 1, "velocity": 103}, {"time": 2351, "pitch": 64, "duration": 1, "velocity": 98}, {"time": 2354, "pitch": 65, "duration": 3, "velocity": 108}, {"time": 2360, "pitch": 58, "duration": 1, "velocity": 113}, {"time": 2363, "pitch": 58, "duration": 8, "velocity": 113}, {"time": 2375, "pitch": 65, "duration": 2, "velocity": 108}, {"time": 2378, "pitch": 67, "duration": 3, "velocity": 113}, {"time": 2384, "pitch": 60, "duration": 1, "velocity": 93}, {"time": 2387, "pitch": 60, "duration": 7, "velocity": 98}, {"time": 2399, "pitch": 60, "duration": 2, "velocity": 98}, {"time": 2402, "pitch": 70, "duration": 5, "velocity": 113}, {"time": 2408, "pitch": 69, "duration": 4, "velocity": 113}, {"time": 2414, "pitch": 69, "duration": 2, "velocity": 113}, {"time": 2417, "pitch": 67, "duration": 5, "velocity": 113}, {"time": 2423, "pitch": 69, "duration": 17, "velocity": 113}, {"time": 2441, "pitch": 65, "duration": 1, "velocity": 88}, {"time": 2444, "pitch": 65, "duration": 2, "velocity": 82}, {"time": 2447, "pitch": 67, "duration": 2, "velocity": 98}, {"time": 2450, "pitch": 69, "duration": 4, "velocity": 113}, {"time": 2456, "pitch": 62, "duration": 4, "velocity": 113}, {"time": 2462, "pitch": 62, "duration": 1, "velocity": 108}, {"time": 2465, "pitch": 69, "duration": 7, "velocity": 113}, {"time": 2474, "pitch": 67, "duration": 12, "velocity": 113}, {"time": 2489, "pitch": 67, "duration": 1, "velocity": 85}, {"time": 2492, "pitch": 67, "duration": 2, "velocity": 103}, {"time": 2495, "pitch": 69, "duration": 2, "velocity": 113}, {"time": 2498, "pitch": 72, "duration": 5, "velocity": 113}, {"time": 2504, "pitch": 69, "duration": 3, "velocity": 108}, {"time": 2510, "pitch": 60, "duration": 2, "velocity": 103}, {"time": 2513, "pitch": 67, "duration": 7, "velocity": 113}, {"time": 2522, "pitch": 65, "duration": 12, "velocity": 113}, {"time": 2537, "pitch": 62, "duration": 1, "velocity": 88}, {"time": 2540, "pitch": 62, "duration": 1, "velocity": 88}, {"time": 2543, "pitch": 64, "duration": 2, "velocity": 98}, {"time": 2546, "pitch": 65, "duration": 3, "velocity": 108}, {"time": 2552, "pitch": 58, "duration": 1, "velocity": 113}, {"time": 2555, "pitch": 58, "duration": 5, "velocity": 113}, {"time": 2567, "pitch": 65, "duration": 2, "velocity": 103}, {"time": 2570, "pitch": 67, "duration": 5, "velocity": 113}, {"time": 2576, "pitch": 60, "duration": 2, "velocity": 108}, {"time": 2579, "pitch": 60, "duration": 9, "velocity": 113}, {"time": 2594, "pitch": 60, "duration": 1, "velocity": 103}, {"time": 2597, "pitch": 60, "duration": 1, "velocity": 88}, {"time": 2600, "pitch": 60, "duration": 7, "velocity": 113}, {"time": 2609, "pitch": 57, "duration": 2, "velocity": 108}, {"time": 2612, "pitch": 65, "duration": 7, "velocity": 113}, {"time": 2618, "pitch": 62, "duration": 15, "velocity": 113}]}, {"program": 0, "is_drum": false, "name": "BRIDGE", "notes": [{"time": 205, "pitch": 62, "duration": 2, "velocity": 77}, {"time": 206, "pitch": 64, "duration": 2, "velocity": 45}, {"time": 207, "pitch": 65, "duration": 2, "velocity": 55}, {"time": 208, "pitch": 67, "duration": 1, "velocity": 64}, {"time": 209, "pitch": 69, "duration": 1, "velocity": 77}, {"time": 210, "pitch": 70, "duration": 1, "velocity": 75}, {"time": 211, "pitch": 72, "duration": 1, "velocity": 73}, {"time": 212, "pitch": 74, "duration": 1, "velocity": 58}, {"time": 213, "pitch": 76, "duration": 1, "velocity": 54}, {"time": 214, "pitch": 77, "duration": 1, "velocity": 63}, {"time": 215, "pitch": 79, "duration": 1, "velocity": 73}, {"time": 216, "pitch": 81, "duration": 1, "velocity": 79}, {"time": 216, "pitch": 82, "duration": 1, "velocity": 82}, {"time": 217, "pitch": 84, "duration": 1, "velocity": 88}, {"time": 218, "pitch": 86, "duration": 12, "velocity": 79}, {"time": 233, "pitch": 77, "duration": 1, "velocity": 75}, {"time": 236, "pitch": 77, "duration": 3, "velocity": 90}, {"time": 239, "pitch": 79, "duration": 4, "velocity": 90}, {"time": 242, "pitch": 81, "duration": 5, "velocity": 112}, {"time": 248, "pitch": 74, "duration": 4, "velocity": 97}, {"time": 254, "pitch": 74, "duration": 3, "velocity": 102}, {"time": 257, "pitch": 81, "duration": 6, "velocity": 88}, {"time": 263, "pitch": 79, "duration": 15, "velocity": 95}, {"time": 281, "pitch": 76, "duration": 4, "velocity": 72}, {"time": 284, "pitch": 77, "duration": 3, "velocity": 99}, {"time": 287, "pitch": 79, "duration": 4, "velocity": 93}, {"time": 290, "pitch": 84, "duration": 10, "velocity": 93}, {"time": 296, "pitch": 81, "duration": 5, "velocity": 127}, {"time": 302, "pitch": 72, "duration": 4, "velocity": 102}, {"time": 305, "pitch": 79, "duration": 6, "velocity": 102}, {"time": 311, "pitch": 77, "duration": 7, "velocity": 89}, {"time": 329, "pitch": 72, "duration": 3, "velocity": 75}, {"time": 332, "pitch": 74, "duration": 2, "velocity": 75}, {"time": 335, "pitch": 74, "duration": 2, "velocity": 99}, {"time": 338, "pitch": 74, "duration": 7, "velocity": 102}, {"time": 344, "pitch": 72, "duration": 4, "velocity": 95}, {"time": 350, "pitch": 81, "duration": 4, "velocity": 112}, {"time": 353, "pitch": 82, "duration": 3, "velocity": 100}, {"time": 356, "pitch": 81, "duration": 3, "velocity": 99}, {"time": 359, "pitch": 79, "duration": 16, "velocity": 107}, {"time": 374, "pitch": 72, "duration": 1, "velocity": 92}, {"time": 377, "pitch": 72, "duration": 9, "velocity": 89}, {"time": 386, "pitch": 74, "duration": 33, "velocity": 73}, {"time": 611, "pitch": 64, "duration": 3, "velocity": 85}, {"time": 617, "pitch": 65, "duration": 4, "velocity": 83}, {"time": 620, "pitch": 69, "duration": 5, "velocity": 90}, {"time": 626, "pitch": 74, "duration": 3, "velocity": 75}, {"time": 629, "pitch": 76, "duration": 4, "velocity": 88}, {"time": 632, "pitch": 77, "duration": 2, "velocity": 96}, {"time": 635, "pitch": 81, "duration": 4, "velocity": 82}, {"time": 638, "pitch": 86, "duration": 11, "velocity": 93}, {"time": 842, "pitch": 81, "duration": 3, "velocity": 122}, {"time": 845, "pitch": 79, "duration": 4, "velocity": 74}, {"time": 848, "pitch": 81, "duration": 3, "velocity": 99}, {"time": 851, "pitch": 84, "duration": 3, "velocity": 122}, {"time": 854, "pitch": 86, "duration": 8, "velocity": 127}, {"time": 1238, "pitch": 86, "duration": 4, "velocity": 100}, {"time": 1241, "pitch": 88, "duration": 4, "velocity": 100}, {"time": 1244, "pitch": 89, "duration": 3, "velocity": 93}, {"time": 1247, "pitch": 91, "duration": 4, "velocity": 74}, {"time": 1250, "pitch": 93, "duration": 4, "velocity": 122}, {"time": 1256, "pitch": 86, "duration": 4, "velocity": 100}, {"time": 1262, "pitch": 86, "duration": 3, "velocity": 97}, {"time": 1265, "pitch": 93, "duration": 6, "velocity": 99}, {"time": 1271, "pitch": 91, "duration": 16, "velocity": 81}, {"time": 1289, "pitch": 89, "duration": 3, "velocity": 100}, {"time": 1292, "pitch": 88, "duration": 3, "velocity": 93}, {"time": 1295, "pitch": 86, "duration": 3, "velocity": 88}, {"time": 1298, "pitch": 84, "duration": 9, "velocity": 96}, {"time": 1316, "pitch": 88, "duration": 3, "velocity": 96}, {"time": 1319, "pitch": 89, "duration": 15, "velocity": 92}, {"time": 1331, "pitch": 77, "duration": 4, "velocity": 100}, {"time": 1337, "pitch": 72, "duration": 3, "velocity": 97}, {"time": 1340, "pitch": 70, "duration": 3, "velocity": 89}, {"time": 1343, "pitch": 69, "duration": 3, "velocity": 89}, {"time": 1346, "pitch": 70, "duration": 9, "velocity": 112}, {"time": 1346, "pitch": 77, "duration": 5, "velocity": 112}, {"time": 1352, "pitch": 70, "duration": 3, "velocity": 95}, {"time": 1355, "pitch": 69, "duration": 3, "velocity": 89}, {"time": 1358, "pitch": 70, "duration": 8, "velocity": 122}, {"time": 1364, "pitch": 77, "duration": 6, "velocity": 122}, {"time": 1370, "pitch": 79, "duration": 12, "velocity": 96}, {"time": 1382, "pitch": 76, "duration": 6, "velocity": 127}, {"time": 1388, "pitch": 72, "duration": 6, "velocity": 97}, {"time": 1394, "pitch": 74, "duration": 17, "velocity": 102}, {"time": 1409, "pitch": 91, "duration": 3, "velocity": 100}, {"time": 1412, "pitch": 89, "duration": 3, "velocity": 88}, {"time": 1415, "pitch": 88, "duration": 3, "velocity": 77}, {"time": 1418, "pitch": 86, "duration": 22, "velocity": 90}, {"time": 1520, "pitch": 65, "duration": 3, "velocity": 92}, {"time": 1523, "pitch": 67, "duration": 6, "velocity": 90}, {"time": 1529, "pitch": 69, "duration": 10, "velocity": 92}, {"time": 1634, "pitch": 81, "duration": 3, "velocity": 122}, {"time": 1637, "pitch": 79, "duration": 4, "velocity": 74}, {"time": 1640, "pitch": 81, "duration": 3, "velocity": 99}, {"time": 1643, "pitch": 84, "duration": 3, "velocity": 122}, {"time": 1646, "pitch": 86, "duration": 8, "velocity": 127}, {"time": 2630, "pitch": 77, "duration": 3, "velocity": 112}, {"time": 2633, "pitch": 79, "duration": 3, "velocity": 88}, {"time": 2636, "pitch": 77, "duration": 3, "velocity": 97}, {"time": 2639, "pitch": 76, "duration": 3, "velocity": 93}, {"time": 2642, "pitch": 77, "duration": 8, "velocity": 97}, {"time": 2648, "pitch": 81, "duration": 3, "velocity": 102}, {"time": 2651, "pitch": 79, "duration": 7, "velocity": 95}, {"time": 2663, "pitch": 72, "duration": 2, "velocity": 88}, {"time": 2664, "pitch": 74, "duration": 2, "velocity": 75}, {"time": 2666, "pitch": 76, "duration": 6, "velocity": 96}, {"time": 2672, "pitch": 79, "duration": 3, "velocity": 102}, {"time": 2675, "pitch": 77, "duration": 16, "velocity": 99}, {"time": 2687, "pitch": 69, "duration": 3, "velocity": 83}, {"time": 2690, "pitch": 70, "duration": 12, "velocity": 93}, {"time": 2702, "pitch": 69, "duration": 6, "velocity": 97}, {"time": 2708, "pitch": 67, "duration": 6, "velocity": 92}, {"time": 2714, "pitch": 69, "duration": 11, "velocity": 96}, {"time": 2720, "pitch": 61, "duration": 6, "velocity": 100}, {"time": 2726, "pitch": 62, "duration": 6, "velocity": 93}, {"time": 2732, "pitch": 64, "duration": 6, "velocity": 88}, {"time": 2738, "pitch": 77, "duration": 6, "velocity": 107}, {"time": 2744, "pitch": 81, "duration": 3, "velocity": 96}, {"time": 2747, "pitch": 79, "duration": 14, "velocity": 97}, {"time": 2759, "pitch": 72, "duration": 2, "velocity": 92}, {"time": 2761, "pitch": 74, "duration": 1, "velocity": 72}, {"time": 2762, "pitch": 76, "duration": 4, "velocity": 93}, {"time": 2768, "pitch": 79, "duration": 3, "velocity": 90}, {"time": 2771, "pitch": 77, "duration": 13, "velocity": 95}, {"time": 2783, "pitch": 69, "duration": 3, "velocity": 85}, {"time": 2786, "pitch": 70, "duration": 14, "velocity": 100}, {"time": 2800, "pitch": 69, "duration": 7, "velocity": 89}, {"time": 2806, "pitch": 67, "duration": 5, "velocity": 93}, {"time": 2811, "pitch": 65, "duration": 8, "velocity": 82}, {"time": 2819, "pitch": 64, "duration": 12, "velocity": 66}, {"time": 2831, "pitch": 62, "duration": 34, "velocity": 82}]}, {"program": 0, "is_drum": false, "name": "PIANO", "notes": [{"time": 26, "pitch": 46, "duration": 18, "velocity": 58}, {"time": 29, "pitch": 58, "duration": 10, "velocity": 43}, {"time": 32, "pitch": 62, "duration": 3, "velocity": 57}, {"time": 35, "pitch": 65, "duration": 10, "velocity": 75}, {"time": 41, "pitch": 58, "duration": 3, "velocity": 57}, {"time": 44, "pitch": 62, "duration": 7, "velocity": 64}, {"time": 50, "pitch": 48, "duration": 17, "velocity": 69}, {"time": 53, "pitch": 55, "duration": 13, "velocity": 63}, {"time": 56, "pitch": 60, "duration": 13, "velocity": 66}, {"time": 59, "pitch": 67, "duration": 16, "velocity": 86}, {"time": 68, "pitch": 64, "duration": 7, "velocity": 65}, {"time": 74, "pitch": 45, "duration": 17, "velocity": 66}, {"time": 77, "pitch": 52, "duration": 14, "velocity": 54}, {"time": 80, "pitch": 57, "duration": 8, "velocity": 86}, {"time": 83, "pitch": 76, "duration": 14, "velocity": 102}, {"time": 89, "pitch": 72, "duration": 8, "velocity": 83}, {"time": 95, "pitch": 69, "duration": 5, "velocity": 68}, {"time": 98, "pitch": 50, "duration": 21, "velocity": 68}, {"time": 101, "pitch": 57, "duration": 18, "velocity": 52}, {"time": 104, "pitch": 62, "duration": 4, "velocity": 96}, {"time": 107, "pitch": 77, "duration": 4, "velocity": 112}, {"time": 110, "pitch": 76, "duration": 10, "velocity": 56}, {"time": 113, "pitch": 74, "duration": 5, "velocity": 64}, {"time": 116, "pitch": 69, "duration": 6, "velocity": 68}, {"time": 119, "pitch": 74, "duration": 4, "velocity": 65}, {"time": 122, "pitch": 43, "duration": 20, "velocity": 73}, {"time": 128, "pitch": 50, "duration": 18, "velocity": 49}, {"time": 131, "pitch": 55, "duration": 10, "velocity": 95}, {"time": 134, "pitch": 74, "duration": 12, "velocity": 107}, {"time": 137, "pitch": 70, "duration": 4, "velocity": 78}, {"time": 140, "pitch": 67, "duration": 6, "velocity": 66}, {"time": 143, "pitch": 70, "duration": 3, "velocity": 75}, {"time": 146, "pitch": 45, "duration": 20, "velocity": 71}, {"time": 149, "pitch": 52, "duration": 19, "velocity": 68}, {"time": 152, "pitch": 57, "duration": 12, "velocity": 76}, {"time": 155, "pitch": 69, "duration": 15, "velocity": 82}, {"time": 170, "pitch": 48, "duration": 10, "velocity": 92}, {"time": 173, "pitch": 67, "duration": 6, "velocity": 59}, {"time": 176, "pitch": 76, "duration": 5, "velocity": 96}, {"time": 179, "pitch": 72, "duration": 3, "velocity": 72}, {"time": 182, "pitch": 41, "duration": 7, "velocity": 62}, {"time": 182, "pitch": 65, "duration": 12, "velocity": 85}, {"time": 182, "pitch": 69, "duration": 10, "velocity": 81}, {"time": 194, "pitch": 38, "duration": 22, "velocity": 81}, {"time": 197, "pitch": 45, "duration": 21, "velocity": 63}, {"time": 200, "pitch": 50, "duration": 7, "velocity": 58}, {"time": 203, "pitch": 62, "duration": 10, "velocity": 52}, {"time": 206, "pitch": 69, "duration": 35, "velocity": 89}, {"time": 209, "pitch": 50, "duration": 31, "velocity": 61}, {"time": 212, "pitch": 65, "duration": 29, "velocity": 72}, {"time": 215, "pitch": 64, "duration": 5, "velocity": 56}, {"time": 218, "pitch": 38, "duration": 23, "velocity": 65}, {"time": 218, "pitch": 62, "duration": 23, "velocity": 66}, {"time": 242, "pitch": 46, "duration": 18, "velocity": 107}, {"time": 245, "pitch": 58, "duration": 9, "velocity": 69}, {"time": 248, "pitch": 62, "duration": 3, "velocity": 85}, {"time": 251, "pitch": 65, "duration": 10, "velocity": 92}, {"time": 257, "pitch": 58, "duration": 3, "velocity": 66}, {"time": 260, "pitch": 62, "duration": 6, "velocity": 100}, {"time": 266, "pitch": 48, "duration": 11, "velocity": 82}, {"time": 269, "pitch": 55, "duration": 8, "velocity": 69}, {"time": 272, "pitch": 60, "duration": 13, "velocity": 70}, {"time": 275, "pitch": 67, "duration": 14, "velocity": 97}, {"time": 284, "pitch": 64, "duration": 6, "velocity": 67}, {"time": 287, "pitch": 60, "duration": 4, "velocity": 67}, {"time": 290, "pitch": 45, "duration": 17, "velocity": 79}, {"time": 293, "pitch": 52, "duration": 11, "velocity": 86}, {"time": 296, "pitch": 57, "duration": 12, "velocity": 81}, {"time": 299, "pitch": 64, "duration": 14, "velocity": 102}, {"time": 305, "pitch": 52, "duration": 2, "velocity": 62}, {"time": 308, "pitch": 60, "duration": 5, "velocity": 99}, {"time": 311, "pitch": 57, "duration": 3, "velocity": 85}, {"time": 314, "pitch": 38, "duration": 18, "velocity": 72}, {"time": 317, "pitch": 45, "duration": 15, "velocity": 58}, {"time": 320, "pitch": 50, "duration": 8, "velocity": 75}, {"time": 323, "pitch": 57, "duration": 5, "velocity": 92}, {"time": 326, "pitch": 65, "duration": 7, "velocity": 117}, {"time": 329, "pitch": 50, "duration": 4, "velocity": 117}, {"time": 332, "pitch": 64, "duration": 3, "velocity": 127}, {"time": 335, "pitch": 62, "duration": 4, "velocity": 79}, {"time": 338, "pitch": 46, "duration": 18, "velocity": 97}, {"time": 341, "pitch": 58, "duration": 9, "velocity": 86}, {"time": 344, "pitch": 62, "duration": 7, "velocity": 95}, {"time": 347, "pitch": 70, "duration": 15, "velocity": 127}, {"time": 353, "pitch": 58, "duration": 2, "velocity": 83}, {"time": 356, "pitch": 65, "duration": 6, "velocity": 97}, {"time": 359, "pitch": 62, "duration": 4, "velocity": 78}, {"time": 362, "pitch": 36, "duration": 19, "velocity": 74}, {"time": 365, "pitch": 43, "duration": 20, "velocity": 55}, {"time": 368, "pitch": 48, "duration": 8, "velocity": 89}, {"time": 371, "pitch": 64, "duration": 15, "velocity": 100}, {"time": 377, "pitch": 48, "duration": 3, "velocity": 72}, {"time": 380, "pitch": 60, "duration": 6, "velocity": 92}, {"time": 386, "pitch": 38, "duration": 21, "velocity": 77}, {"time": 389, "pitch": 45, "duration": 22, "velocity": 73}, {"time": 392, "pitch": 50, "duration": 8, "velocity": 88}, {"time": 395, "pitch": 57, "duration": 11, "velocity": 72}, {"time": 398, "pitch": 65, "duration": 7, "velocity": 100}, {"time": 401, "pitch": 50, "duration": 3, "velocity": 76}, {"time": 404, "pitch": 64, "duration": 7, "velocity": 67}, {"time": 407, "pitch": 65, "duration": 25, "velocity": 52}, {"time": 410, "pitch": 38, "duration": 20, "velocity": 69}, {"time": 410, "pitch": 57, "duration": 21, "velocity": 69}, {"time": 410, "pitch": 62, "duration": 23, "velocity": 63}, {"time": 434, "pitch": 38, "duration": 17, "velocity": 83}, {"time": 440, "pitch": 45, "duration": 13, "velocity": 55}, {"time": 446, "pitch": 50, "duration": 11, "velocity": 93}, {"time": 452, "pitch": 65, "duration": 7, "velocity": 92}, {"time": 458, "pitch": 45, "duration": 17, "velocity": 70}, {"time": 464, "pitch": 52, "duration": 10, "velocity": 67}, {"time": 470, "pitch": 64, "duration": 11, "velocity": 96}, {"time": 476, "pitch": 60, "duration": 6, "velocity": 68}, {"time": 482, "pitch": 46, "duration": 11, "velocity": 90}, {"time": 488, "pitch": 62, "duration": 5, "velocity": 88}, {"time": 491, "pitch": 58, "duration": 3, "velocity": 81}, {"time": 494, "pitch": 48, "duration": 7, "velocity": 72}, {"time": 500, "pitch": 60, "duration": 6, "velocity": 93}, {"time": 503, "pitch": 64, "duration": 4, "velocity": 75}, {"time": 506, "pitch": 41, "duration": 19, "velocity": 69}, {"time": 509, "pitch": 48, "duration": 16, "velocity": 48}, {"time": 512, "pitch": 53, "duration": 8, "velocity": 83}, {"time": 515, "pitch": 57, "duration": 6, "velocity": 73}, {"time": 518, "pitch": 65, "duration": 12, "velocity": 102}, {"time": 521, "pitch": 53, "duration": 2, "velocity": 73}, {"time": 524, "pitch": 60, "duration": 7, "velocity": 81}, {"time": 530, "pitch": 43, "duration": 19, "velocity": 72}, {"time": 536, "pitch": 50, "duration": 18, "velocity": 66}, {"time": 542, "pitch": 62, "duration": 12, "velocity": 99}, {"time": 548, "pitch": 58, "duration": 7, "velocity": 82}, {"time": 551, "pitch": 55, "duration": 4, "velocity": 64}, {"time": 554, "pitch": 45, "duration": 19, "velocity": 77}, {"time": 560, "pitch": 52, "duration": 13, "velocity": 51}, {"time": 566, "pitch": 64, "duration": 10, "velocity": 112}, {"time": 572, "pitch": 60, "duration": 4, "velocity": 88}, {"time": 575, "pitch": 57, "duration": 2, "velocity": 67}, {"time": 578, "pitch": 46, "duration": 11, "velocity": 99}, {"time": 581, "pitch": 53, "duration": 7, "velocity": 62}, {"time": 584, "pitch": 62, "duration": 5, "velocity": 97}, {"time": 587, "pitch": 58, "duration": 2, "velocity": 100}, {"time": 590, "pitch": 48, "duration": 7, "velocity": 92}, {"time": 593, "pitch": 55, "duration": 4, "velocity": 72}, {"time": 596, "pitch": 64, "duration": 6, "velocity": 93}, {"time": 599, "pitch": 60, "duration": 3, "velocity": 72}, {"time": 602, "pitch": 38, "duration": 22, "velocity": 74}, {"time": 605, "pitch": 45, "duration": 22, "velocity": 50}, {"time": 608, "pitch": 50, "duration": 8, "velocity": 67}, {"time": 611, "pitch": 62, "duration": 3, "velocity": 50}, {"time": 614, "pitch": 65, "duration": 6, "velocity": 89}, {"time": 617, "pitch": 50, "duration": 2, "velocity": 60}, {"time": 620, "pitch": 64, "duration": 7, "velocity": 81}, {"time": 626, "pitch": 38, "duration": 19, "velocity": 88}, {"time": 635, "pitch": 45, "duration": 16, "velocity": 47}, {"time": 638, "pitch": 65, "duration": 6, "velocity": 102}, {"time": 641, "pitch": 50, "duration": 3, "velocity": 46}, {"time": 644, "pitch": 64, "duration": 7, "velocity": 83}, {"time": 650, "pitch": 38, "duration": 17, "velocity": 72}, {"time": 656, "pitch": 45, "duration": 12, "velocity": 65}, {"time": 662, "pitch": 65, "duration": 12, "velocity": 112}, {"time": 668, "pitch": 62, "duration": 7, "velocity": 66}, {"time": 674, "pitch": 45, "duration": 18, "velocity": 95}, {"time": 680, "pitch": 52, "duration": 8, "velocity": 55}, {"time": 683, "pitch": 64, "duration": 14, "velocity": 102}, {"time": 689, "pitch": 52, "duration": 3, "velocity": 42}, {"time": 692, "pitch": 60, "duration": 5, "velocity": 85}, {"time": 698, "pitch": 46, "duration": 11, "velocity": 69}, {"time": 704, "pitch": 58, "duration": 4, "velocity": 99}, {"time": 707, "pitch": 62, "duration": 3, "velocity": 81}, {"time": 710, "pitch": 48, "duration": 7, "velocity": 74}, {"time": 716, "pitch": 60, "duration": 4, "velocity": 96}, {"time": 719, "pitch": 64, "duration": 3, "velocity": 83}, {"time": 722, "pitch": 41, "duration": 20, "velocity": 66}, {"time": 725, "pitch": 48, "duration": 21, "velocity": 58}, {"time": 728, "pitch": 53, "duration": 9, "velocity": 90}, {"time": 731, "pitch": 57, "duration": 5, "velocity": 72}, {"time": 734, "pitch": 65, "duration": 13, "velocity": 92}, {"time": 740, "pitch": 57, "duration": 7, "velocity": 82}, {"time": 746, "pitch": 43, "duration": 16, "velocity": 78}, {"time": 752, "pitch": 50, "duration": 11, "velocity": 63}, {"time": 758, "pitch": 62, "duration": 12, "velocity": 107}, {"time": 764, "pitch": 58, "duration": 6, "velocity": 92}, {"time": 770, "pitch": 45, "duration": 21, "velocity": 77}, {"time": 776, "pitch": 52, "duration": 12, "velocity": 59}, {"time": 782, "pitch": 64, "duration": 11, "velocity": 99}, {"time": 788, "pitch": 60, "duration": 5, "velocity": 93}, {"time": 791, "pitch": 57, "duration": 3, "velocity": 66}, {"time": 794, "pitch": 46, "duration": 11, "velocity": 102}, {"time": 797, "pitch": 53, "duration": 5, "velocity": 60}, {"time": 800, "pitch": 62, "duration": 5, "velocity": 93}, {"time": 803, "pitch": 58, "duration": 2, "velocity": 96}, {"time": 806, "pitch": 48, "duration": 8, "velocity": 70}, {"time": 809, "pitch": 55, "duration": 4, "velocity": 66}, {"time": 812, "pitch": 64, "duration": 5, "velocity": 97}, {"time": 815, "pitch": 60, "duration": 3, "velocity": 71}, {"time": 818, "pitch": 38, "duration": 23, "velocity": 81}, {"time": 821, "pitch": 45, "duration": 22, "velocity": 52}, {"time": 824, "pitch": 50, "duration": 7, "velocity": 85}, {"time": 827, "pitch": 57, "duration": 12, "velocity": 74}, {"time": 830, "pitch": 65, "duration": 7, "velocity": 99}, {"time": 833, "pitch": 50, "duration": 3, "velocity": 96}, {"time": 836, "pitch": 64, "duration": 6, "velocity": 93}, {"time": 842, "pitch": 38, "duration": 19, "velocity": 86}, {"time": 842, "pitch": 57, "duration": 10, "velocity": 74}, {"time": 842, "pitch": 62, "duration": 10, "velocity": 73}, {"time": 842, "pitch": 65, "duration": 10, "velocity": 74}, {"time": 851, "pitch": 45, "duration": 10, "velocity": 92}, {"time": 854, "pitch": 62, "duration": 7, "velocity": 122}, {"time": 854, "pitch": 65, "duration": 7, "velocity": 122}, {"time": 857, "pitch": 50, "duration": 6, "velocity": 100}, {"time": 860, "pitch": 57, "duration": 4, "velocity": 112}, {"time": 863, "pitch": 62, "duration": 3, "velocity": 122}, {"time": 866, "pitch": 46, "duration": 19, "velocity": 100}, {"time": 869, "pitch": 53, "duration": 16, "velocity": 71}, {"time": 872, "pitch": 58, "duration": 7, "velocity": 112}, {"time": 875, "pitch": 62, "duration": 5, "velocity": 102}, {"time": 878, "pitch": 70, "duration": 12, "velocity": 127}, {"time": 881, "pitch": 58, "duration": 4, "velocity": 122}, {"time": 884, "pitch": 65, "duration": 6, "velocity": 102}, {"time": 887, "pitch": 62, "duration": 3, "velocity": 112}, {"time": 890, "pitch": 48, "duration": 16, "velocity": 82}, {"time": 893, "pitch": 55, "duration": 11, "velocity": 89}, {"time": 896, "pitch": 60, "duration": 5, "velocity": 107}, {"time": 899, "pitch": 64, "duration": 3, "velocity": 122}, {"time": 902, "pitch": 66, "duration": 1, "velocity": 69}, {"time": 902, "pitch": 67, "duration": 12, "velocity": 117}, {"time": 905, "pitch": 55, "duration": 1, "velocity": 93}, {"time": 908, "pitch": 64, "duration": 7, "velocity": 102}, {"time": 911, "pitch": 60, "duration": 3, "velocity": 100}, {"time": 914, "pitch": 45, "duration": 18, "velocity": 86}, {"time": 917, "pitch": 52, "duration": 11, "velocity": 89}, {"time": 920, "pitch": 57, "duration": 3, "velocity": 99}, {"time": 923, "pitch": 60, "duration": 3, "velocity": 112}, {"time": 926, "pitch": 64, "duration": 10, "velocity": 112}, {"time": 929, "pitch": 52, "duration": 2, "velocity": 96}, {"time": 932, "pitch": 60, "duration": 4, "velocity": 112}, {"time": 935, "pitch": 57, "duration": 4, "velocity": 99}, {"time": 938, "pitch": 38, "duration": 19, "velocity": 81}, {"time": 941, "pitch": 45, "duration": 16, "velocity": 92}, {"time": 944, "pitch": 50, "duration": 8, "velocity": 100}, {"time": 947, "pitch": 57, "duration": 4, "velocity": 99}, {"time": 950, "pitch": 65, "duration": 12, "velocity": 117}, {"time": 953, "pitch": 50, "duration": 6, "velocity": 96}, {"time": 956, "pitch": 62, "duration": 6, "velocity": 89}, {"time": 959, "pitch": 57, "duration": 4, "velocity": 107}, {"time": 962, "pitch": 43, "duration": 23, "velocity": 96}, {"time": 965, "pitch": 50, "duration": 10, "velocity": 93}, {"time": 968, "pitch": 55, "duration": 6, "velocity": 96}, {"time": 971, "pitch": 58, "duration": 3, "velocity": 127}, {"time": 974, "pitch": 62, "duration": 10, "velocity": 102}, {"time": 977, "pitch": 50, "duration": 8, "velocity": 75}, {"time": 980, "pitch": 58, "duration": 5, "velocity": 127}, {"time": 983, "pitch": 55, "duration": 3, "velocity": 100}, {"time": 986, "pitch": 45, "duration": 18, "velocity": 78}, {"time": 989, "pitch": 52, "duration": 10, "velocity": 70}, {"time": 992, "pitch": 57, "duration": 4, "velocity": 95}, {"time": 995, "pitch": 64, "duration": 7, "velocity": 96}, {"time": 998, "pitch": 60, "duration": 7, "velocity": 96}, {"time": 1001, "pitch": 52, "duration": 3, "velocity": 86}, {"time": 1004, "pitch": 57, "duration": 4, "velocity": 85}, {"time": 1007, "pitch": 64, "duration": 3, "velocity": 97}, {"time": 1010, "pitch": 46, "duration": 18, "velocity": 93}, {"time": 1013, "pitch": 53, "duration": 14, "velocity": 63}, {"time": 1016, "pitch": 58, "duration": 7, "velocity": 102}, {"time": 1019, "pitch": 62, "duration": 4, "velocity": 92}, {"time": 1022, "pitch": 70, "duration": 11, "velocity": 127}, {"time": 1025, "pitch": 58, "duration": 2, "velocity": 122}, {"time": 1028, "pitch": 65, "duration": 6, "velocity": 102}, {"time": 1031, "pitch": 62, "duration": 3, "velocity": 112}, {"time": 1034, "pitch": 45, "duration": 19, "velocity": 89}, {"time": 1037, "pitch": 52, "duration": 11, "velocity": 83}, {"time": 1040, "pitch": 57, "duration": 9, "velocity": 112}, {"time": 1043, "pitch": 61, "duration": 4, "velocity": 127}, {"time": 1046, "pitch": 64, "duration": 11, "velocity": 100}, {"time": 1049, "pitch": 52, "duration": 3, "velocity": 100}, {"time": 1052, "pitch": 61, "duration": 4, "velocity": 127}, {"time": 1055, "pitch": 57, "duration": 3, "velocity": 112}, {"time": 1058, "pitch": 46, "duration": 19, "velocity": 127}, {"time": 1061, "pitch": 58, "duration": 9, "velocity": 72}, {"time": 1064, "pitch": 62, "duration": 3, "velocity": 117}, {"time": 1067, "pitch": 65, "duration": 4, "velocity": 112}, {"time": 1070, "pitch": 62, "duration": 6, "velocity": 100}, {"time": 1073, "pitch": 58, "duration": 2, "velocity": 96}, {"time": 1076, "pitch": 65, "duration": 4, "velocity": 102}, {"time": 1079, "pitch": 62, "duration": 3, "velocity": 127}, {"time": 1082, "pitch": 36, "duration": 17, "velocity": 86}, {"time": 1085, "pitch": 43, "duration": 14, "velocity": 86}, {"time": 1088, "pitch": 48, "duration": 8, "velocity": 92}, {"time": 1091, "pitch": 55, "duration": 3, "velocity": 97}, {"time": 1094, "pitch": 64, "duration": 7, "velocity": 117}, {"time": 1097, "pitch": 48, "duration": 4, "velocity": 117}, {"time": 1100, "pitch": 60, "duration": 4, "velocity": 100}, {"time": 1103, "pitch": 64, "duration": 3, "velocity": 117}, {"time": 1106, "pitch": 45, "duration": 18, "velocity": 93}, {"time": 1109, "pitch": 52, "duration": 11, "velocity": 95}, {"time": 1112, "pitch": 57, "duration": 3, "velocity": 102}, {"time": 1115, "pitch": 60, "duration": 3, "velocity": 112}, {"time": 1118, "pitch": 64, "duration": 10, "velocity": 102}, {"time": 1121, "pitch": 52, "duration": 2, "velocity": 93}, {"time": 1124, "pitch": 60, "duration": 5, "velocity": 117}, {"time": 1127, "pitch": 57, "duration": 3, "velocity": 97}, {"time": 1130, "pitch": 38, "duration": 18, "velocity": 88}, {"time": 1133, "pitch": 45, "duration": 15, "velocity": 86}, {"time": 1136, "pitch": 50, "duration": 8, "velocity": 100}, {"time": 1139, "pitch": 57, "duration": 3, "velocity": 90}, {"time": 1142, "pitch": 65, "duration": 7, "velocity": 127}, {"time": 1145, "pitch": 50, "duration": 5, "velocity": 112}, {"time": 1148, "pitch": 64, "duration": 4, "velocity": 127}, {"time": 1151, "pitch": 62, "duration": 3, "velocity": 122}, {"time": 1154, "pitch": 43, "duration": 22, "velocity": 90}, {"time": 1157, "pitch": 50, "duration": 21, "velocity": 78}, {"time": 1160, "pitch": 55, "duration": 7, "velocity": 96}, {"time": 1163, "pitch": 58, "duration": 3, "velocity": 117}, {"time": 1166, "pitch": 62, "duration": 7, "velocity": 112}, {"time": 1169, "pitch": 55, "duration": 2, "velocity": 96}, {"time": 1172, "pitch": 58, "duration": 3, "velocity": 117}, {"time": 1175, "pitch": 62, "duration": 3, "velocity": 99}, {"time": 1178, "pitch": 45, "duration": 18, "velocity": 86}, {"time": 1181, "pitch": 52, "duration": 10, "velocity": 72}, {"time": 1184, "pitch": 57, "duration": 3, "velocity": 79}, {"time": 1187, "pitch": 64, "duration": 9, "velocity": 102}, {"time": 1190, "pitch": 60, "duration": 7, "velocity": 93}, {"time": 1193, "pitch": 52, "duration": 2, "velocity": 77}, {"time": 1196, "pitch": 57, "duration": 7, "velocity": 83}, {"time": 1199, "pitch": 64, "duration": 3, "velocity": 97}, {"time": 1202, "pitch": 46, "duration": 12, "velocity": 107}, {"time": 1205, "pitch": 53, "duration": 3, "velocity": 44}, {"time": 1205, "pitch": 55, "duration": 2, "velocity": 41}, {"time": 1208, "pitch": 62, "duration": 5, "velocity": 99}, {"time": 1211, "pitch": 58, "duration": 2, "velocity": 102}, {"time": 1214, "pitch": 48, "duration": 6, "velocity": 89}, {"time": 1217, "pitch": 60, "duration": 3, "velocity": 79}, {"time": 1220, "pitch": 64, "duration": 5, "velocity": 99}, {"time": 1223, "pitch": 60, "duration": 3, "velocity": 96}, {"time": 1226, "pitch": 38, "duration": 22, "velocity": 86}, {"time": 1229, "pitch": 45, "duration": 21, "velocity": 66}, {"time": 1232, "pitch": 50, "duration": 8, "velocity": 85}, {"time": 1235, "pitch": 62, "duration": 3, "velocity": 95}, {"time": 1238, "pitch": 65, "duration": 6, "velocity": 112}, {"time": 1241, "pitch": 50, "duration": 3, "velocity": 92}, {"time": 1244, "pitch": 64, "duration": 4, "velocity": 97}, {"time": 1247, "pitch": 65, "duration": 3, "velocity": 78}, {"time": 1250, "pitch": 46, "duration": 17, "velocity": 95}, {"time": 1253, "pitch": 53, "duration": 14, "velocity": 56}, {"time": 1256, "pitch": 58, "duration": 9, "velocity": 92}, {"time": 1259, "pitch": 62, "duration": 4, "velocity": 77}, {"time": 1262, "pitch": 65, "duration": 10, "velocity": 89}, {"time": 1271, "pitch": 62, "duration": 3, "velocity": 59}, {"time": 1274, "pitch": 48, "duration": 17, "velocity": 82}, {"time": 1277, "pitch": 55, "duration": 4, "velocity": 53}, {"time": 1280, "pitch": 60, "duration": 4, "velocity": 66}, {"time": 1283, "pitch": 64, "duration": 16, "velocity": 81}, {"time": 1298, "pitch": 45, "duration": 16, "velocity": 75}, {"time": 1301, "pitch": 52, "duration": 12, "velocity": 55}, {"time": 1304, "pitch": 57, "duration": 5, "velocity": 63}, {"time": 1307, "pitch": 60, "duration": 15, "velocity": 72}, {"time": 1307, "pitch": 64, "duration": 16, "velocity": 74}, {"time": 1316, "pitch": 57, "duration": 9, "velocity": 68}, {"time": 1322, "pitch": 38, "duration": 18, "velocity": 66}, {"time": 1325, "pitch": 45, "duration": 16, "velocity": 57}, {"time": 1328, "pitch": 50, "duration": 8, "velocity": 82}, {"time": 1331, "pitch": 57, "duration": 4, "velocity": 69}, {"time": 1334, "pitch": 65, "duration": 5, "velocity": 122}, {"time": 1337, "pitch": 64, "duration": 4, "velocity": 102}, {"time": 1340, "pitch": 62, "duration": 4, "velocity": 100}, {"time": 1343, "pitch": 60, "duration": 4, "velocity": 100}, {"time": 1346, "pitch": 43, "duration": 22, "velocity": 81}, {"time": 1349, "pitch": 50, "duration": 11, "velocity": 54}, {"time": 1352, "pitch": 55, "duration": 4, "velocity": 96}, {"time": 1355, "pitch": 62, "duration": 15, "velocity": 122}, {"time": 1358, "pitch": 58, "duration": 7, "velocity": 127}, {"time": 1361, "pitch": 50, "duration": 8, "velocity": 61}, {"time": 1364, "pitch": 55, "duration": 5, "velocity": 99}, {"time": 1367, "pitch": 58, "duration": 3, "velocity": 107}, {"time": 1370, "pitch": 45, "duration": 19, "velocity": 83}, {"time": 1373, "pitch": 52, "duration": 10, "velocity": 68}, {"time": 1376, "pitch": 57, "duration": 4, "velocity": 90}, {"time": 1379, "pitch": 64, "duration": 13, "velocity": 127}, {"time": 1385, "pitch": 52, "duration": 3, "velocity": 56}, {"time": 1388, "pitch": 60, "duration": 4, "velocity": 112}, {"time": 1391, "pitch": 57, "duration": 3, "velocity": 73}, {"time": 1394, "pitch": 46, "duration": 12, "velocity": 99}, {"time": 1397, "pitch": 58, "duration": 3, "velocity": 86}, {"time": 1400, "pitch": 62, "duration": 5, "velocity": 96}, {"time": 1403, "pitch": 58, "duration": 2, "velocity": 102}, {"time": 1406, "pitch": 48, "duration": 8, "velocity": 88}, {"time": 1409, "pitch": 60, "duration": 3, "velocity": 77}, {"time": 1412, "pitch": 64, "duration": 5, "velocity": 95}, {"time": 1415, "pitch": 60, "duration": 3, "velocity": 75}, {"time": 1418, "pitch": 38, "duration": 23, "velocity": 64}, {"time": 1421, "pitch": 45, "duration": 20, "velocity": 52}, {"time": 1424, "pitch": 50, "duration": 17, "velocity": 77}, {"time": 1427, "pitch": 57, "duration": 15, "velocity": 85}, {"time": 1430, "pitch": 65, "duration": 11, "velocity": 79}, {"time": 1442, "pitch": 38, "duration": 17, "velocity": 72}, {"time": 1448, "pitch": 45, "duration": 12, "velocity": 65}, {"time": 1454, "pitch": 65, "duration": 12, "velocity": 112}, {"time": 1460, "pitch": 62, "duration": 7, "velocity": 66}, {"time": 1466, "pitch": 45, "duration": 18, "velocity": 95}, {"time": 1472, "pitch": 52, "duration": 8, "velocity": 55}, {"time": 1475, "pitch": 64, "duration": 14, "velocity": 102}, {"time": 1481, "pitch": 52, "duration": 3, "velocity": 42}, {"time": 1484, "pitch": 60, "duration": 5, "velocity": 85}, {"time": 1490, "pitch": 46, "duration": 11, "velocity": 69}, {"time": 1496, "pitch": 58, "duration": 4, "velocity": 99}, {"time": 1499, "pitch": 62, "duration": 3, "velocity": 81}, {"time": 1502, "pitch": 48, "duration": 7, "velocity": 74}, {"time": 1508, "pitch": 60, "duration": 4, "velocity": 96}, {"time": 1511, "pitch": 64, "duration": 3, "velocity": 83}, {"time": 1514, "pitch": 41, "duration": 20, "velocity": 66}, {"time": 1517, "pitch": 48, "duration": 21, "velocity": 58}, {"time": 1520, "pitch": 53, "duration": 9, "velocity": 90}, {"time": 1523, "pitch": 57, "duration": 5, "velocity": 72}, {"time": 1526, "pitch": 65, "duration": 13, "velocity": 92}, {"time": 1532, "pitch": 57, "duration": 7, "velocity": 82}, {"time": 1538, "pitch": 43, "duration": 16, "velocity": 78}, {"time": 1544, "pitch": 50, "duration": 11, "velocity": 63}, {"time": 1550, "pitch": 62, "duration": 12, "velocity": 107}, {"time": 1556, "pitch": 58, "duration": 6, "velocity": 92}, {"time": 1562, "pitch": 45, "duration": 21, "velocity": 77}, {"time": 1568, "pitch": 52, "duration": 12, "velocity": 59}, {"time": 1574, "pitch": 64, "duration": 11, "velocity": 99}, {"time": 1580, "pitch": 60, "duration": 5, "velocity": 93}, {"time": 1583, "pitch": 57, "duration": 3, "velocity": 66}, {"time": 1586, "pitch": 46, "duration": 11, "velocity": 102}, {"time": 1589, "pitch": 53, "duration": 5, "velocity": 60}, {"time": 1592, "pitch": 62, "duration": 5, "velocity": 93}, {"time": 1595, "pitch": 58, "duration": 2, "velocity": 96}, {"time": 1598, "pitch": 48, "duration": 8, "velocity": 70}, {"time": 1601, "pitch": 55, "duration": 4, "velocity": 66}, {"time": 1604, "pitch": 64, "duration": 5, "velocity": 97}, {"time": 1607, "pitch": 60, "duration": 3, "velocity": 71}, {"time": 1610, "pitch": 38, "duration": 23, "velocity": 81}, {"time": 1613, "pitch": 45, "duration": 22, "velocity": 52}, {"time": 1616, "pitch": 50, "duration": 7, "velocity": 85}, {"time": 1619, "pitch": 57, "duration": 12, "velocity": 74}, {"time": 1622, "pitch": 65, "duration": 7, "velocity": 99}, {"time": 1625, "pitch": 50, "duration": 3, "velocity": 96}, {"time": 1628, "pitch": 64, "duration": 6, "velocity": 93}, {"time": 1634, "pitch": 38, "duration": 19, "velocity": 86}, {"time": 1634, "pitch": 57, "duration": 10, "velocity": 74}, {"time": 1634, "pitch": 62, "duration": 10, "velocity": 73}, {"time": 1634, "pitch": 65, "duration": 10, "velocity": 74}, {"time": 1643, "pitch": 45, "duration": 10, "velocity": 92}, {"time": 1646, "pitch": 62, "duration": 7, "velocity": 122}, {"time": 1646, "pitch": 65, "duration": 7, "velocity": 122}, {"time": 1649, "pitch": 50, "duration": 6, "velocity": 100}, {"time": 1652, "pitch": 57, "duration": 4, "velocity": 112}, {"time": 1655, "pitch": 62, "duration": 3, "velocity": 122}, {"time": 1658, "pitch": 46, "duration": 19, "velocity": 100}, {"time": 1661, "pitch": 53, "duration": 16, "velocity": 71}, {"time": 1664, "pitch": 58, "duration": 7, "velocity": 112}, {"time": 1667, "pitch": 62, "duration": 5, "velocity": 102}, {"time": 1670, "pitch": 70, "duration": 12, "velocity": 127}, {"time": 1673, "pitch": 58, "duration": 4, "velocity": 122}, {"time": 1676, "pitch": 65, "duration": 6, "velocity": 102}, {"time": 1679, "pitch": 62, "duration": 3, "velocity": 112}, {"time": 1682, "pitch": 48, "duration": 16, "velocity": 82}, {"time": 1685, "pitch": 55, "duration": 11, "velocity": 89}, {"time": 1688, "pitch": 60, "duration": 5, "velocity": 107}, {"time": 1691, "pitch": 64, "duration": 3, "velocity": 122}, {"time": 1694, "pitch": 66, "duration": 1, "velocity": 69}, {"time": 1694, "pitch": 67, "duration": 12, "velocity": 117}, {"time": 1697, "pitch": 55, "duration": 1, "velocity": 93}, {"time": 1700, "pitch": 64, "duration": 7, "velocity": 102}, {"time": 1703, "pitch": 60, "duration": 3, "velocity": 100}, {"time": 1706, "pitch": 45, "duration": 18, "velocity": 86}, {"time": 1709, "pitch": 52, "duration": 11, "velocity": 89}, {"time": 1712, "pitch": 57, "duration": 3, "velocity": 99}, {"time": 1715, "pitch": 60, "duration": 3, "velocity": 112}, {"time": 1718, "pitch": 64, "duration": 10, "velocity": 112}, {"time": 1721, "pitch": 52, "duration": 2, "velocity": 96}, {"time": 1724, "pitch": 60, "duration": 4, "velocity": 112}, {"time": 1727, "pitch": 57, "duration": 4, "velocity": 99}, {"time": 1730, "pitch": 38, "duration": 19, "velocity": 81}, {"time": 1733, "pitch": 45, "duration": 16, "velocity": 92}, {"time": 1736, "pitch": 50, "duration": 8, "velocity": 100}, {"time": 1739, "pitch": 57, "duration": 4, "velocity": 99}, {"time": 1742, "pitch": 65, "duration": 12, "velocity": 117}, {"time": 1745, "pitch": 50, "duration": 6, "velocity": 96}, {"time": 1748, "pitch": 62, "duration": 6, "velocity": 89}, {"time": 1751, "pitch": 57, "duration": 4, "velocity": 107}, {"time": 1754, "pitch": 43, "duration": 23, "velocity": 96}, {"time": 1757, "pitch": 50, "duration": 10, "velocity": 93}, {"time": 1760, "pitch": 55, "duration": 6, "velocity": 96}, {"time": 1763, "pitch": 58, "duration": 3, "velocity": 127}, {"time": 1766, "pitch": 62, "duration": 10, "velocity": 102}, {"time": 1769, "pitch": 50, "duration": 8, "velocity": 75}, {"time": 1772, "pitch": 58, "duration": 5, "velocity": 127}, {"time": 1775, "pitch": 55, "duration": 3, "velocity": 100}, {"time": 1778, "pitch": 45, "duration": 18, "velocity": 78}, {"time": 1781, "pitch": 52, "duration": 10, "velocity": 70}, {"time": 1784, "pitch": 57, "duration": 4, "velocity": 95}, {"time": 1787, "pitch": 64, "duration": 7, "velocity": 96}, {"time": 1790, "pitch": 60, "duration": 7, "velocity": 96}, {"time": 1793, "pitch": 52, "duration": 3, "velocity": 86}, {"time": 1796, "pitch": 57, "duration": 4, "velocity": 85}, {"time": 1799, "pitch": 64, "duration": 3, "velocity": 97}, {"time": 1802, "pitch": 46, "duration": 18, "velocity": 93}, {"time": 1805, "pitch": 53, "duration": 14, "velocity": 63}, {"time": 1808, "pitch": 58, "duration": 7, "velocity": 102}, {"time": 1811, "pitch": 62, "duration": 4, "velocity": 92}, {"time": 1814, "pitch": 70, "duration": 11, "velocity": 127}, {"time": 1817, "pitch": 58, "duration": 2, "velocity": 122}, {"time": 1820, "pitch": 65, "duration": 6, "velocity": 102}, {"time": 1823, "pitch": 62, "duration": 3, "velocity": 112}, {"time": 1826, "pitch": 45, "duration": 19, "velocity": 89}, {"time": 1829, "pitch": 52, "duration": 11, "velocity": 83}, {"time": 1832, "pitch": 57, "duration": 9, "velocity": 112}, {"time": 1835, "pitch": 61, "duration": 4, "velocity": 127}, {"time": 1838, "pitch": 64, "duration": 11, "velocity": 100}, {"time": 1841, "pitch": 52, "duration": 3, "velocity": 100}, {"time": 1844, "pitch": 61, "duration": 4, "velocity": 127}, {"time": 1847, "pitch": 57, "duration": 3, "velocity": 112}, {"time": 1850, "pitch": 46, "duration": 19, "velocity": 127}, {"time": 1853, "pitch": 58, "duration": 9, "velocity": 72}, {"time": 1856, "pitch": 62, "duration": 3, "velocity": 117}, {"time": 1859, "pitch": 65, "duration": 4, "velocity": 112}, {"time": 1862, "pitch": 62, "duration": 6, "velocity": 100}, {"time": 1865, "pitch": 58, "duration": 2, "velocity": 96}, {"time": 1868, "pitch": 65, "duration": 4, "velocity": 102}, {"time": 1871, "pitch": 62, "duration": 3, "velocity": 127}, {"time": 1874, "pitch": 36, "duration": 17, "velocity": 86}, {"time": 1877, "pitch": 43, "duration": 14, "velocity": 86}, {"time": 1880, "pitch": 48, "duration": 8, "velocity": 92}, {"time": 1883, "pitch": 55, "duration": 3, "velocity": 97}, {"time": 1886, "pitch": 64, "duration": 7, "velocity": 117}, {"time": 1889, "pitch": 48, "duration": 4, "velocity": 117}, {"time": 1892, "pitch": 60, "duration": 4, "velocity": 100}, {"time": 1895, "pitch": 64, "duration": 3, "velocity": 117}, {"time": 1898, "pitch": 45, "duration": 18, "velocity": 93}, {"time": 1901, "pitch": 52, "duration": 11, "velocity": 95}, {"time": 1904, "pitch": 57, "duration": 3, "velocity": 102}, {"time": 1907, "pitch": 60, "duration": 3, "velocity": 112}, {"time": 1910, "pitch": 64, "duration": 10, "velocity": 102}, {"time": 1913, "pitch": 52, "duration": 2, "velocity": 93}, {"time": 1916, "pitch": 60, "duration": 5, "velocity": 117}, {"time": 1919, "pitch": 57, "duration": 3, "velocity": 97}, {"time": 1922, "pitch": 38, "duration": 18, "velocity": 88}, {"time": 1925, "pitch": 45, "duration": 15, "velocity": 86}, {"time": 1928, "pitch": 50, "duration": 8, "velocity": 100}, {"time": 1931, "pitch": 57, "duration": 3, "velocity": 90}, {"time": 1934, "pitch": 65, "duration": 7, "velocity": 127}, {"time": 1937, "pitch": 50, "duration": 5, "velocity": 112}, {"time": 1940, "pitch": 64, "duration": 4, "velocity": 127}, {"time": 1943, "pitch": 62, "duration": 3, "velocity": 122}, {"time": 1946, "pitch": 43, "duration": 22, "velocity": 90}, {"time": 1949, "pitch": 50, "duration": 21, "velocity": 78}, {"time": 1952, "pitch": 55, "duration": 7, "velocity": 96}, {"time": 1955, "pitch": 58, "duration": 3, "velocity": 117}, {"time": 1958, "pitch": 62, "duration": 7, "velocity": 112}, {"time": 1961, "pitch": 55, "duration": 2, "velocity": 96}, {"time": 1964, "pitch": 58, "duration": 3, "velocity": 117}, {"time": 1967, "pitch": 62, "duration": 3, "velocity": 99}, {"time": 1970, "pitch": 45, "duration": 18, "velocity": 86}, {"time": 1973, "pitch": 52, "duration": 10, "velocity": 72}, {"time": 1976, "pitch": 57, "duration": 3, "velocity": 79}, {"time": 1979, "pitch": 64, "duration": 9, "velocity": 102}, {"time": 1982, "pitch": 60, "duration": 7, "velocity": 93}, {"time": 1985, "pitch": 52, "duration": 2, "velocity": 77}, {"time": 1988, "pitch": 57, "duration": 7, "velocity": 83}, {"time": 1991, "pitch": 64, "duration": 3, "velocity": 97}, {"time": 1994, "pitch": 46, "duration": 12, "velocity": 107}, {"time": 1997, "pitch": 53, "duration": 3, "velocity": 44}, {"time": 1997, "pitch": 55, "duration": 2, "velocity": 41}, {"time": 2000, "pitch": 62, "duration": 5, "velocity": 99}, {"time": 2003, "pitch": 58, "duration": 2, "velocity": 102}, {"time": 2006, "pitch": 48, "duration": 6, "velocity": 89}, {"time": 2009, "pitch": 60, "duration": 3, "velocity": 79}, {"time": 2012, "pitch": 64, "duration": 5, "velocity": 99}, {"time": 2015, "pitch": 60, "duration": 3, "velocity": 96}, {"time": 2018, "pitch": 38, "duration": 22, "velocity": 86}, {"time": 2021, "pitch": 45, "duration": 21, "velocity": 66}, {"time": 2024, "pitch": 50, "duration": 8, "velocity": 85}, {"time": 2027, "pitch": 62, "duration": 3, "velocity": 95}, {"time": 2030, "pitch": 65, "duration": 6, "velocity": 112}, {"time": 2033, "pitch": 50, "duration": 3, "velocity": 92}, {"time": 2036, "pitch": 64, "duration": 4, "velocity": 97}, {"time": 2039, "pitch": 65, "duration": 3, "velocity": 78}, {"time": 2042, "pitch": 46, "duration": 18, "velocity": 93}, {"time": 2045, "pitch": 53, "duration": 15, "velocity": 59}, {"time": 2048, "pitch": 58, "duration": 7, "velocity": 127}, {"time": 2051, "pitch": 62, "duration": 6, "velocity": 96}, {"time": 2054, "pitch": 70, "duration": 6, "velocity": 127}, {"time": 2057, "pitch": 58, "duration": 3, "velocity": 122}, {"time": 2060, "pitch": 65, "duration": 4, "velocity": 117}, {"time": 2063, "pitch": 62, "duration": 3, "velocity": 99}, {"time": 2066, "pitch": 48, "duration": 16, "velocity": 95}, {"time": 2069, "pitch": 55, "duration": 9, "velocity": 107}, {"time": 2072, "pitch": 60, "duration": 2, "velocity": 88}, {"time": 2075, "pitch": 64, "duration": 9, "velocity": 117}, {"time": 2075, "pitch": 67, "duration": 9, "velocity": 112}, {"time": 2081, "pitch": 55, "duration": 1, "velocity": 99}, {"time": 2084, "pitch": 60, "duration": 2, "velocity": 127}, {"time": 2090, "pitch": 45, "duration": 17, "velocity": 97}, {"time": 2090, "pitch": 57, "duration": 8, "velocity": 112}, {"time": 2090, "pitch": 60, "duration": 8, "velocity": 97}, {"time": 2090, "pitch": 64, "duration": 8, "velocity": 95}, {"time": 2096, "pitch": 52, "duration": 6, "velocity": 86}, {"time": 2099, "pitch": 60, "duration": 9, "velocity": 100}, {"time": 2099, "pitch": 64, "duration": 8, "velocity": 97}, {"time": 2105, "pitch": 52, "duration": 2, "velocity": 93}, {"time": 2108, "pitch": 57, "duration": 6, "velocity": 112}, {"time": 2111, "pitch": 60, "duration": 3, "velocity": 117}, {"time": 2114, "pitch": 38, "duration": 18, "velocity": 88}, {"time": 2114, "pitch": 62, "duration": 5, "velocity": 112}, {"time": 2117, "pitch": 45, "duration": 15, "velocity": 90}, {"time": 2120, "pitch": 50, "duration": 8, "velocity": 100}, {"time": 2123, "pitch": 57, "duration": 4, "velocity": 96}, {"time": 2126, "pitch": 65, "duration": 5, "velocity": 127}, {"time": 2129, "pitch": 50, "duration": 5, "velocity": 81}, {"time": 2129, "pitch": 64, "duration": 5, "velocity": 117}, {"time": 2132, "pitch": 62, "duration": 5, "velocity": 99}, {"time": 2135, "pitch": 57, "duration": 3, "velocity": 100}, {"time": 2138, "pitch": 43, "duration": 22, "velocity": 83}, {"time": 2141, "pitch": 50, "duration": 11, "velocity": 79}, {"time": 2144, "pitch": 55, "duration": 5, "velocity": 96}, {"time": 2147, "pitch": 58, "duration": 9, "velocity": 127}, {"time": 2153, "pitch": 50, "duration": 10, "velocity": 90}, {"time": 2156, "pitch": 62, "duration": 6, "velocity": 102}, {"time": 2159, "pitch": 58, "duration": 3, "velocity": 122}, {"time": 2162, "pitch": 45, "duration": 17, "velocity": 93}, {"time": 2165, "pitch": 52, "duration": 9, "velocity": 66}, {"time": 2168, "pitch": 57, "duration": 4, "velocity": 95}, {"time": 2171, "pitch": 60, "duration": 9, "velocity": 100}, {"time": 2171, "pitch": 64, "duration": 9, "velocity": 100}, {"time": 2177, "pitch": 52, "duration": 2, "velocity": 89}, {"time": 2180, "pitch": 57, "duration": 5, "velocity": 112}, {"time": 2186, "pitch": 46, "duration": 13, "velocity": 112}, {"time": 2189, "pitch": 53, "duration": 7, "velocity": 71}, {"time": 2189, "pitch": 55, "duration": 1, "velocity": 58}, {"time": 2192, "pitch": 58, "duration": 3, "velocity": 112}, {"time": 2195, "pitch": 62, "duration": 10, "velocity": 117}, {"time": 2201, "pitch": 46, "duration": 2, "velocity": 117}, {"time": 2204, "pitch": 58, "duration": 1, "velocity": 127}, {"time": 2210, "pitch": 45, "duration": 22, "velocity": 88}, {"time": 2210, "pitch": 57, "duration": 8, "velocity": 112}, {"time": 2210, "pitch": 61, "duration": 8, "velocity": 127}, {"time": 2210, "pitch": 64, "duration": 8, "velocity": 100}, {"time": 2216, "pitch": 52, "duration": 6, "velocity": 93}, {"time": 2219, "pitch": 61, "duration": 9, "velocity": 127}, {"time": 2219, "pitch": 64, "duration": 11, "velocity": 107}, {"time": 2225, "pitch": 52, "duration": 8, "velocity": 97}, {"time": 2228, "pitch": 57, "duration": 5, "velocity": 107}, {"time": 2231, "pitch": 61, "duration": 2, "velocity": 112}, {"time": 2234, "pitch": 45, "duration": 16, "velocity": 75}, {"time": 2234, "pitch": 52, "duration": 15, "velocity": 99}, {"time": 2234, "pitch": 57, "duration": 23, "velocity": 107}, {"time": 2234, "pitch": 61, "duration": 21, "velocity": 127}, {"time": 2234, "pitch": 64, "duration": 23, "velocity": 96}, {"time": 2258, "pitch": 46, "duration": 20, "velocity": 95}, {"time": 2261, "pitch": 53, "duration": 17, "velocity": 56}, {"time": 2264, "pitch": 58, "duration": 8, "velocity": 99}, {"time": 2267, "pitch": 62, "duration": 3, "velocity": 61}, {"time": 2270, "pitch": 65, "duration": 12, "velocity": 96}, {"time": 2282, "pitch": 48, "duration": 18, "velocity": 90}, {"time": 2285, "pitch": 55, "duration": 20, "velocity": 34}, {"time": 2288, "pitch": 60, "duration": 4, "velocity": 82}, {"time": 2291, "pitch": 64, "duration": 18, "velocity": 97}, {"time": 2306, "pitch": 45, "duration": 14, "velocity": 78}, {"time": 2309, "pitch": 52, "duration": 10, "velocity": 60}, {"time": 2312, "pitch": 57, "duration": 21, "velocity": 66}, {"time": 2315, "pitch": 64, "duration": 16, "velocity": 99}, {"time": 2324, "pitch": 60, "duration": 7, "velocity": 75}, {"time": 2330, "pitch": 38, "duration": 16, "velocity": 74}, {"time": 2333, "pitch": 45, "duration": 13, "velocity": 56}, {"time": 2336, "pitch": 50, "duration": 10, "velocity": 71}, {"time": 2339, "pitch": 57, "duration": 4, "velocity": 73}, {"time": 2342, "pitch": 65, "duration": 4, "velocity": 107}, {"time": 2345, "pitch": 64, "duration": 4, "velocity": 102}, {"time": 2348, "pitch": 62, "duration": 6, "velocity": 83}, {"time": 2351, "pitch": 57, "duration": 3, "velocity": 81}, {"time": 2354, "pitch": 43, "duration": 18, "velocity": 78}, {"time": 2360, "pitch": 50, "duration": 12, "velocity": 55}, {"time": 2366, "pitch": 62, "duration": 12, "velocity": 107}, {"time": 2372, "pitch": 58, "duration": 6, "velocity": 100}, {"time": 2375, "pitch": 55, "duration": 3, "velocity": 81}, {"time": 2378, "pitch": 45, "duration": 19, "velocity": 88}, {"time": 2384, "pitch": 52, "duration": 13, "velocity": 72}, {"time": 2390, "pitch": 64, "duration": 11, "velocity": 122}, {"time": 2396, "pitch": 60, "duration": 4, "velocity": 100}, {"time": 2399, "pitch": 57, "duration": 3, "velocity": 81}, {"time": 2402, "pitch": 46, "duration": 18, "velocity": 112}, {"time": 2408, "pitch": 53, "duration": 6, "velocity": 79}, {"time": 2414, "pitch": 62, "duration": 6, "velocity": 117}, {"time": 2420, "pitch": 58, "duration": 1, "velocity": 127}, {"time": 2426, "pitch": 45, "duration": 16, "velocity": 100}, {"time": 2426, "pitch": 57, "duration": 7, "velocity": 122}, {"time": 2426, "pitch": 61, "duration": 7, "velocity": 127}, {"time": 2426, "pitch": 64, "duration": 7, "velocity": 102}, {"time": 2432, "pitch": 52, "duration": 6, "velocity": 107}, {"time": 2435, "pitch": 57, "duration": 5, "velocity": 112}, {"time": 2435, "pitch": 61, "duration": 5, "velocity": 127}, {"time": 2435, "pitch": 64, "duration": 5, "velocity": 99}, {"time": 2441, "pitch": 61, "duration": 5, "velocity": 127}, {"time": 2441, "pitch": 64, "duration": 7, "velocity": 100}, {"time": 2447, "pitch": 57, "duration": 3, "velocity": 122}, {"time": 2450, "pitch": 46, "duration": 17, "velocity": 93}, {"time": 2453, "pitch": 53, "duration": 14, "velocity": 40}, {"time": 2456, "pitch": 58, "duration": 8, "velocity": 112}, {"time": 2459, "pitch": 62, "duration": 5, "velocity": 99}, {"time": 2462, "pitch": 70, "duration": 9, "velocity": 127}, {"time": 2465, "pitch": 58, "duration": 2, "velocity": 112}, {"time": 2468, "pitch": 65, "duration": 7, "velocity": 117}, {"time": 2471, "pitch": 62, "duration": 3, "velocity": 112}, {"time": 2474, "pitch": 48, "duration": 17, "velocity": 86}, {"time": 2477, "pitch": 55, "duration": 11, "velocity": 102}, {"time": 2480, "pitch": 60, "duration": 6, "velocity": 95}, {"time": 2483, "pitch": 64, "duration": 3, "velocity": 117}, {"time": 2486, "pitch": 67, "duration": 12, "velocity": 127}, {"time": 2489, "pitch": 55, "duration": 2, "velocity": 88}, {"time": 2492, "pitch": 64, "duration": 6, "velocity": 127}, {"time": 2495, "pitch": 60, "duration": 3, "velocity": 117}, {"time": 2498, "pitch": 45, "duration": 17, "velocity": 93}, {"time": 2501, "pitch": 52, "duration": 11, "velocity": 97}, {"time": 2504, "pitch": 57, "duration": 3, "velocity": 107}, {"time": 2507, "pitch": 60, "duration": 3, "velocity": 107}, {"time": 2510, "pitch": 64, "duration": 9, "velocity": 127}, {"time": 2513, "pitch": 52, "duration": 1, "velocity": 82}, {"time": 2516, "pitch": 60, "duration": 3, "velocity": 127}, {"time": 2519, "pitch": 57, "duration": 3, "velocity": 102}, {"time": 2522, "pitch": 38, "duration": 18, "velocity": 88}, {"time": 2525, "pitch": 45, "duration": 16, "velocity": 93}, {"time": 2528, "pitch": 50, "duration": 6, "velocity": 96}, {"time": 2531, "pitch": 62, "duration": 5, "velocity": 107}, {"time": 2531, "pitch": 65, "duration": 13, "velocity": 99}, {"time": 2534, "pitch": 57, "duration": 4, "velocity": 73}, {"time": 2537, "pitch": 50, "duration": 5, "velocity": 99}, {"time": 2540, "pitch": 62, "duration": 5, "velocity": 117}, {"time": 2543, "pitch": 57, "duration": 3, "velocity": 102}, {"time": 2546, "pitch": 43, "duration": 23, "velocity": 102}, {"time": 2549, "pitch": 50, "duration": 10, "velocity": 95}, {"time": 2552, "pitch": 55, "duration": 3, "velocity": 96}, {"time": 2555, "pitch": 58, "duration": 10, "velocity": 127}, {"time": 2555, "pitch": 62, "duration": 15, "velocity": 100}, {"time": 2561, "pitch": 50, "duration": 9, "velocity": 95}, {"time": 2564, "pitch": 55, "duration": 5, "velocity": 107}, {"time": 2567, "pitch": 58, "duration": 3, "velocity": 127}, {"time": 2570, "pitch": 45, "duration": 21, "velocity": 95}, {"time": 2573, "pitch": 52, "duration": 10, "velocity": 92}, {"time": 2576, "pitch": 57, "duration": 10, "velocity": 89}, {"time": 2579, "pitch": 60, "duration": 8, "velocity": 102}, {"time": 2579, "pitch": 64, "duration": 8, "velocity": 100}, {"time": 2585, "pitch": 52, "duration": 7, "velocity": 99}, {"time": 2588, "pitch": 60, "duration": 4, "velocity": 112}, {"time": 2588, "pitch": 64, "duration": 5, "velocity": 99}, {"time": 2591, "pitch": 57, "duration": 3, "velocity": 92}, {"time": 2594, "pitch": 46, "duration": 11, "velocity": 122}, {"time": 2597, "pitch": 53, "duration": 4, "velocity": 81}, {"time": 2600, "pitch": 58, "duration": 5, "velocity": 97}, {"time": 2600, "pitch": 62, "duration": 5, "velocity": 96}, {"time": 2603, "pitch": 53, "duration": 2, "velocity": 82}, {"time": 2606, "pitch": 48, "duration": 7, "velocity": 97}, {"time": 2609, "pitch": 55, "duration": 7, "velocity": 88}, {"time": 2612, "pitch": 64, "duration": 6, "velocity": 117}, {"time": 2615, "pitch": 60, "duration": 3, "velocity": 102}, {"time": 2618, "pitch": 38, "duration": 20, "velocity": 92}, {"time": 2621, "pitch": 45, "duration": 17, "velocity": 71}, {"time": 2624, "pitch": 50, "duration": 7, "velocity": 92}, {"time": 2627, "pitch": 57, "duration": 4, "velocity": 99}, {"time": 2630, "pitch": 65, "duration": 8, "velocity": 112}, {"time": 2633, "pitch": 50, "duration": 7, "velocity": 73}, {"time": 2636, "pitch": 64, "duration": 5, "velocity": 107}, {"time": 2639, "pitch": 62, "duration": 2, "velocity": 92}, {"time": 2642, "pitch": 46, "duration": 10, "velocity": 92}, {"time": 2645, "pitch": 58, "duration": 3, "velocity": 100}, {"time": 2648, "pitch": 62, "duration": 6, "velocity": 76}, {"time": 2651, "pitch": 65, "duration": 3, "velocity": 81}, {"time": 2654, "pitch": 48, "duration": 11, "velocity": 86}, {"time": 2657, "pitch": 60, "duration": 4, "velocity": 70}, {"time": 2660, "pitch": 64, "duration": 5, "velocity": 96}, {"time": 2663, "pitch": 60, "duration": 3, "velocity": 62}, {"time": 2666, "pitch": 45, "duration": 12, "velocity": 77}, {"time": 2669, "pitch": 57, "duration": 10, "velocity": 75}, {"time": 2672, "pitch": 60, "duration": 5, "velocity": 78}, {"time": 2675, "pitch": 64, "duration": 3, "velocity": 75}, {"time": 2678, "pitch": 50, "duration": 12, "velocity": 76}, {"time": 2681, "pitch": 57, "duration": 5, "velocity": 61}, {"time": 2684, "pitch": 65, "duration": 7, "velocity": 90}, {"time": 2687, "pitch": 62, "duration": 4, "velocity": 78}, {"time": 2690, "pitch": 45, "duration": 22, "velocity": 72}, {"time": 2693, "pitch": 52, "duration": 35, "velocity": 63}, {"time": 2696, "pitch": 57, "duration": 7, "velocity": 60}, {"time": 2699, "pitch": 61, "duration": 14, "velocity": 57}, {"time": 2702, "pitch": 64, "duration": 11, "velocity": 75}, {"time": 2708, "pitch": 57, "duration": 6, "velocity": 59}, {"time": 2714, "pitch": 45, "duration": 18, "velocity": 59}, {"time": 2714, "pitch": 57, "duration": 14, "velocity": 66}, {"time": 2714, "pitch": 61, "duration": 10, "velocity": 64}, {"time": 2714, "pitch": 64, "duration": 10, "velocity": 63}, {"time": 2726, "pitch": 64, "duration": 10, "velocity": 102}, {"time": 2729, "pitch": 52, "duration": 3, "velocity": 86}, {"time": 2732, "pitch": 61, "duration": 4, "velocity": 127}, {"time": 2735, "pitch": 57, "duration": 5, "velocity": 92}, {"time": 2738, "pitch": 38, "duration": 11, "velocity": 86}, {"time": 2741, "pitch": 57, "duration": 5, "velocity": 83}, {"time": 2744, "pitch": 65, "duration": 5, "velocity": 99}, {"time": 2747, "pitch": 62, "duration": 2, "velocity": 96}, {"time": 2750, "pitch": 36, "duration": 12, "velocity": 76}, {"time": 2753, "pitch": 55, "duration": 7, "velocity": 60}, {"time": 2756, "pitch": 64, "duration": 7, "velocity": 99}, {"time": 2759, "pitch": 60, "duration": 4, "velocity": 88}, {"time": 2762, "pitch": 45, "duration": 12, "velocity": 92}, {"time": 2765, "pitch": 57, "duration": 10, "velocity": 79}, {"time": 2768, "pitch": 60, "duration": 5, "velocity": 100}, {"time": 2771, "pitch": 64, "duration": 3, "velocity": 82}, {"time": 2774, "pitch": 38, "duration": 6, "velocity": 85}, {"time": 2777, "pitch": 57, "duration": 9, "velocity": 65}, {"time": 2780, "pitch": 65, "duration": 6, "velocity": 96}, {"time": 2783, "pitch": 62, "duration": 2, "velocity": 72}, {"time": 2786, "pitch": 43, "duration": 13, "velocity": 78}, {"time": 2789, "pitch": 50, "duration": 11, "velocity": 61}, {"time": 2792, "pitch": 55, "duration": 5, "velocity": 63}, {"time": 2796, "pitch": 62, "duration": 3, "velocity": 71}, {"time": 2800, "pitch": 57, "duration": 9, "velocity": 63}, {"time": 2800, "pitch": 45, "duration": 16, "velocity": 56}, {"time": 2808, "pitch": 64, "duration": 16, "velocity": 66}, {"time": 2808, "pitch": 61, "duration": 15, "velocity": 62}, {"time": 2816, "pitch": 57, "duration": 22, "velocity": 65}, {"time": 2831, "pitch": 65, "duration": 7, "velocity": 51}, {"time": 2832, "pitch": 64, "duration": 6, "velocity": 53}, {"time": 2832, "pitch": 62, "duration": 6, "velocity": 54}, {"time": 2833, "pitch": 38, "duration": 55, "velocity": 72}, {"time": 2838, "pitch": 45, "duration": 50, "velocity": 63}, {"time": 2841, "pitch": 50, "duration": 47, "velocity": 76}, {"time": 2843, "pitch": 52, "duration": 5, "velocity": 58}, {"time": 2846, "pitch": 53, "duration": 3, "velocity": 54}, {"time": 2849, "pitch": 57, "duration": 1, "velocity": 72}, {"time": 2852, "pitch": 62, "duration": 4, "velocity": 72}, {"time": 2855, "pitch": 64, "duration": 5, "velocity": 65}, {"time": 2859, "pitch": 65, "duration": 1, "velocity": 56}, {"time": 2862, "pitch": 74, "duration": 5, "velocity": 60}, {"time": 2866, "pitch": 76, "duration": 4, "velocity": 51}, {"time": 2870, "pitch": 77, "duration": 1, "velocity": 54}, {"time": 2876, "pitch": 86, "duration": 12, "velocity": 37}, {"time": 2877, "pitch": 89, "duration": 11, "velocity": 56}, {"time": 2878, "pitch": 93, "duration": 10, "velocity": 53}, {"time": 2879, "pitch": 98, "duration": 9, "velocity": 66}], "annotations": [{"time": 26, "annotation": {"number": 64, "value": 127}, "group": "control_change"}, {"time": 46, "annotation": {"number": 64, "value": 0}, "group": "control_change"}, {"time": 52, "annotation": {"number": 64, "value": 127}, "group": "control_change"}, {"time": 69, "annotation": {"number": 64, "value": 0}, "group": "control_change"}, {"time": 75, "annotation": {"number": 64, "value": 127}, "group": "control_change"}, {"time": 95, "annotation": {"number": 64, "value": 0}, "group": "control_change"}, {"time": 109, "annotation": {"number": 64, "value": 127}, "group": "control_change"}, {"time": 120, "annotation": {"number": 64, "value": 0}, "group": "control_change"}, {"time": 133, "annotation": {"number": 64, "value": 127}, "group": "control_change"}, {"time": 143, "annotation": {"number": 64, "value": 0}, "group": "control_change"}, {"time": 147, "annotation": {"number": 64, "value": 127}, "group": "control_change"}, {"time": 168, "annotation": {"number": 64, "value": 0}, "group": "control_change"}, {"time": 194, "annotation": {"number": 64, "value": 127}, "group": "control_change"}, {"time": 216, "annotation": {"number": 64, "value": 0}, "group": "control_change"}, {"time": 243, "annotation": {"number": 64, "value": 127}, "group": "control_change"}, {"time": 263, "annotation": {"number": 64, "value": 0}, "group": "control_change"}, {"time": 268, "annotation": {"number": 64, "value": 127}, "group": "control_change"}, {"time": 285, "annotation": {"number": 64, "value": 0}, "group": "control_change"}, {"time": 291, "annotation": {"number": 64, "value": 127}, "group": "control_change"}, {"time": 310, "annotation": {"number": 64, "value": 0}, "group": "control_change"}, {"time": 315, "annotation": {"number": 64, "value": 127}, "group": "control_change"}, {"time": 335, "annotation": {"number": 64, "value": 0}, "group": "control_change"}, {"time": 339, "annotation": {"number": 64, "value": 127}, "group": "control_change"}, {"time": 360, "annotation": {"number": 64, "value": 0}, "group": "control_change"}, {"time": 363, "annotation": {"number": 64, "value": 127}, "group": "control_change"}, {"time": 382, "annotation": {"number": 64, "value": 0}, "group": "control_change"}, {"time": 387, "annotation": {"number": 64, "value": 127}, "group": "control_change"}, {"time": 407, "annotation": {"number": 64, "value": 0}, "group": "control_change"}, {"time": 435, "annotation": {"number": 64, "value": 127}, "group": "control_change"}, {"time": 454, "annotation": {"number": 64, "value": 0}, "group": "control_change"}, {"time": 459, "annotation": {"number": 64, "value": 127}, "group": "control_change"}, {"time": 480, "annotation": {"number": 64, "value": 0}, "group": "control_change"}, {"time": 483, "annotation": {"number": 64, "value": 127}, "group": "control_change"}, {"time": 491, "annotation": {"number": 64, "value": 0}, "group": "control_change"}, {"time": 495, "annotation": {"number": 64, "value": 127}, "group": "control_change"}, {"time": 503, "annotation": {"number": 64, "value": 0}, "group": "control_change"}, {"time": 506, "annotation": {"number": 64, "value": 127}, "group": "control_change"}, {"time": 526, "annotation": {"number": 64, "value": 0}, "group": "control_change"}, {"time": 531, "annotation": {"number": 64, "value": 127}, "group": "control_change"}, {"time": 550, "annotation": {"number": 64, "value": 0}, "group": "control_change"}, {"time": 555, "annotation": {"number": 64, "value": 127}, "group": "control_change"}, {"time": 575, "annotation": {"number": 64, "value": 0}, "group": "control_change"}, {"time": 579, "annotation": {"number": 64, "value": 127}, "group": "control_change"}, {"time": 587, "annotation": {"number": 64, "value": 0}, "group": "control_change"}, {"time": 591, "annotation": {"number": 64, "value": 127}, "group": "control_change"}, {"time": 599, "annotation": {"number": 64, "value": 0}, "group": "control_change"}, {"time": 603, "annotation": {"number": 64, "value": 127}, "group": "control_change"}, {"time": 620, "annotation": {"number": 64, "value": 0}, "group": "control_change"}, {"time": 626, "annotation": {"number": 64, "value": 127}, "group": "control_change"}, {"time": 644, "annotation": {"number": 64, "value": 0}, "group": "control_change"}, {"time": 650, "annotation": {"number": 64, "value": 127}, "group": "control_change"}, {"time": 671, "annotation": {"number": 64, "value": 0}, "group": "control_change"}, {"time": 674, "annotation": {"number": 64, "value": 127}, "group": "control_change"}, {"time": 695, "annotation": {"number": 64, "value": 0}, "group": "control_change"}, {"time": 698, "annotation": {"number": 64, "value": 127}, "group": "control_change"}, {"time": 707, "annotation": {"number": 64, "value": 0}, "group": "control_change"}, {"time": 711, "annotation": {"number": 64, "value": 127}, "group": "control_change"}, {"time": 719, "annotation": {"number": 64, "value": 0}, "group": "control_change"}, {"time": 722, "annotation": {"number": 64, "value": 127}, "group": "control_change"}, {"time": 742, "annotation": {"number": 64, "value": 0}, "group": "control_change"}, {"time": 746, "annotation": {"number": 64, "value": 127}, "group": "control_change"}, {"time": 767, "annotation": {"number": 64, "value": 0}, "group": "control_change"}, {"time": 770, "annotation": {"number": 64, "value": 127}, "group": "control_change"}, {"time": 791, "annotation": {"number": 64, "value": 0}, "group": "control_change"}, {"time": 794, "annotation": {"number": 64, "value": 127}, "group": "control_change"}, {"time": 803, "annotation": {"number": 64, "value": 0}, "group": "control_change"}, {"time": 807, "annotation": {"number": 64, "value": 127}, "group": "control_change"}, {"time": 815, "annotation": {"number": 64, "value": 0}, "group": "control_change"}, {"time": 819, "annotation": {"number": 64, "value": 127}, "group": "control_change"}, {"time": 837, "annotation": {"number": 64, "value": 0}, "group": "control_change"}, {"time": 866, "annotation": {"number": 64, "value": 127}, "group": "control_change"}, {"time": 888, "annotation": {"number": 64, "value": 0}, "group": "control_change"}, {"time": 890, "annotation": {"number": 64, "value": 127}, "group": "control_change"}, {"time": 912, "annotation": {"number": 64, "value": 0}, "group": "control_change"}, {"time": 914, "annotation": {"number": 64, "value": 127}, "group": "control_change"}, {"time": 916, "annotation": {"number": 64, "value": 0}, "group": "control_change"}, {"time": 916, "annotation": {"number": 64, "value": 127}, "group": "control_change"}, {"time": 936, "annotation": {"number": 64, "value": 0}, "group": "control_change"}, {"time": 938, "annotation": {"number": 64, "value": 127}, "group": "control_change"}, {"time": 961, "annotation": {"number": 64, "value": 0}, "group": "control_change"}, {"time": 962, "annotation": {"number": 64, "value": 127}, "group": "control_change"}, {"time": 983, "annotation": {"number": 64, "value": 0}, "group": "control_change"}, {"time": 986, "annotation": {"number": 64, "value": 127}, "group": "control_change"}, {"time": 1007, "annotation": {"number": 64, "value": 0}, "group": "control_change"}, {"time": 1010, "annotation": {"number": 64, "value": 127}, "group": "control_change"}, {"time": 1032, "annotation": {"number": 64, "value": 0}, "group": "control_change"}, {"time": 1035, "annotation": {"number": 64, "value": 127}, "group": "control_change"}, {"time": 1055, "annotation": {"number": 64, "value": 0}, "group": "control_change"}, {"time": 1058, "annotation": {"number": 64, "value": 127}, "group": "control_change"}, {"time": 1080, "annotation": {"number": 64, "value": 0}, "group": "control_change"}, {"time": 1083, "annotation": {"number": 64, "value": 127}, "group": "control_change"}, {"time": 1105, "annotation": {"number": 64, "value": 0}, "group": "control_change"}, {"time": 1106, "annotation": {"number": 64, "value": 127}, "group": "control_change"}, {"time": 1128, "annotation": {"number": 64, "value": 0}, "group": "control_change"}, {"time": 1130, "annotation": {"number": 64, "value": 127}, "group": "control_change"}, {"time": 1132, "annotation": {"number": 64, "value": 0}, "group": "control_change"}, {"time": 1133, "annotation": {"number": 64, "value": 127}, "group": "control_change"}, {"time": 1153, "annotation": {"number": 64, "value": 0}, "group": "control_change"}, {"time": 1154, "annotation": {"number": 64, "value": 127}, "group": "control_change"}, {"time": 1156, "annotation": {"number": 64, "value": 0}, "group": "control_change"}, {"time": 1157, "annotation": {"number": 64, "value": 127}, "group": "control_change"}, {"time": 1175, "annotation": {"number": 64, "value": 0}, "group": "control_change"}, {"time": 1178, "annotation": {"number": 64, "value": 127}, "group": "control_change"}, {"time": 1199, "annotation": {"number": 64, "value": 0}, "group": "control_change"}, {"time": 1202, "annotation": {"number": 64, "value": 127}, "group": "control_change"}, {"time": 1211, "annotation": {"number": 64, "value": 0}, "group": "control_change"}, {"time": 1213, "annotation": {"number": 64, "value": 127}, "group": "control_change"}, {"time": 1223, "annotation": {"number": 64, "value": 0}, "group": "control_change"}, {"time": 1226, "annotation": {"number": 64, "value": 127}, "group": "control_change"}, {"time": 1247, "annotation": {"number": 64, "value": 0}, "group": "control_change"}, {"time": 1250, "annotation": {"number": 64, "value": 127}, "group": "control_change"}, {"time": 1272, "annotation": {"number": 64, "value": 0}, "group": "control_change"}, {"time": 1275, "annotation": {"number": 64, "value": 127}, "group": "control_change"}, {"time": 1295, "annotation": {"number": 64, "value": 0}, "group": "control_change"}, {"time": 1299, "annotation": {"number": 64, "value": 127}, "group": "control_change"}, {"time": 1318, "annotation": {"number": 64, "value": 0}, "group": "control_change"}, {"time": 1323, "annotation": {"number": 64, "value": 127}, "group": "control_change"}, {"time": 1343, "annotation": {"number": 64, "value": 0}, "group": "control_change"}, {"time": 1347, "annotation": {"number": 64, "value": 127}, "group": "control_change"}, {"time": 1365, "annotation": {"number": 64, "value": 0}, "group": "control_change"}, {"time": 1371, "annotation": {"number": 64, "value": 127}, "group": "control_change"}, {"time": 1376, "annotation": {"number": 64, "value": 0}, "group": "control_change"}, {"time": 1379, "annotation": {"number": 64, "value": 127}, "group": "control_change"}, {"time": 1391, "annotation": {"number": 64, "value": 0}, "group": "control_change"}, {"time": 1395, "annotation": {"number": 64, "value": 127}, "group": "control_change"}, {"time": 1403, "annotation": {"number": 64, "value": 0}, "group": "control_change"}, {"time": 1407, "annotation": {"number": 64, "value": 127}, "group": "control_change"}, {"time": 1415, "annotation": {"number": 64, "value": 0}, "group": "control_change"}, {"time": 1419, "annotation": {"number": 64, "value": 127}, "group": "control_change"}, {"time": 1438, "annotation": {"number": 64, "value": 0}, "group": "control_change"}, {"time": 1442, "annotation": {"number": 64, "value": 127}, "group": "control_change"}, {"time": 1463, "annotation": {"number": 64, "value": 0}, "group": "control_change"}, {"time": 1466, "annotation": {"number": 64, "value": 127}, "group": "control_change"}, {"time": 1487, "annotation": {"number": 64, "value": 0}, "group": "control_change"}, {"time": 1490, "annotation": {"number": 64, "value": 127}, "group": "control_change"}, {"time": 1499, "annotation": {"number": 64, "value": 0}, "group": "control_change"}, {"time": 1503, "annotation": {"number": 64, "value": 127}, "group": "control_change"}, {"time": 1511, "annotation": {"number": 64, "value": 0}, "group": "control_change"}, {"time": 1514, "annotation": {"number": 64, "value": 127}, "group": "control_change"}, {"time": 1534, "annotation": {"number": 64, "value": 0}, "group": "control_change"}, {"time": 1538, "annotation": {"number": 64, "value": 127}, "group": "control_change"}, {"time": 1559, "annotation": {"number": 64, "value": 0}, "group": "control_change"}, {"time": 1562, "annotation": {"number": 64, "value": 127}, "group": "control_change"}, {"time": 1583, "annotation": {"number": 64, "value": 0}, "group": "control_change"}, {"time": 1586, "annotation": {"number": 64, "value": 127}, "group": "control_change"}, {"time": 1595, "annotation": {"number": 64, "value": 0}, "group": "control_change"}, {"time": 1599, "annotation": {"number": 64, "value": 127}, "group": "control_change"}, {"time": 1607, "annotation": {"number": 64, "value": 0}, "group": "control_change"}, {"time": 1611, "annotation": {"number": 64, "value": 127}, "group": "control_change"}, {"time": 1629, "annotation": {"number": 64, "value": 0}, "group": "control_change"}, {"time": 1658, "annotation": {"number": 64, "value": 127}, "group": "control_change"}, {"time": 1680, "annotation": {"number": 64, "value": 0}, "group": "control_change"}, {"time": 1682, "annotation": {"number": 64, "value": 127}, "group": "control_change"}, {"time": 1704, "annotation": {"number": 64, "value": 0}, "group": "control_change"}, {"time": 1706, "annotation": {"number": 64, "value": 127}, "group": "control_change"}, {"time": 1708, "annotation": {"number": 64, "value": 0}, "group": "control_change"}, {"time": 1708, "annotation": {"number": 64, "value": 127}, "group": "control_change"}, {"time": 1728, "annotation": {"number": 64, "value": 0}, "group": "control_change"}, {"time": 1730, "annotation": {"number": 64, "value": 127}, "group": "control_change"}, {"time": 1753, "annotation": {"number": 64, "value": 0}, "group": "control_change"}, {"time": 1754, "annotation": {"number": 64, "value": 127}, "group": "control_change"}, {"time": 1775, "annotation": {"number": 64, "value": 0}, "group": "control_change"}, {"time": 1778, "annotation": {"number": 64, "value": 127}, "group": "control_change"}, {"time": 1799, "annotation": {"number": 64, "value": 0}, "group": "control_change"}, {"time": 1802, "annotation": {"number": 64, "value": 127}, "group": "control_change"}, {"time": 1824, "annotation": {"number": 64, "value": 0}, "group": "control_change"}, {"time": 1827, "annotation": {"number": 64, "value": 127}, "group": "control_change"}, {"time": 1847, "annotation": {"number": 64, "value": 0}, "group": "control_change"}, {"time": 1850, "annotation": {"number": 64, "value": 127}, "group": "control_change"}, {"time": 1872, "annotation": {"number": 64, "value": 0}, "group": "control_change"}, {"time": 1875, "annotation": {"number": 64, "value": 127}, "group": "control_change"}, {"time": 1897, "annotation": {"number": 64, "value": 0}, "group": "control_change"}, {"time": 1898, "annotation": {"number": 64, "value": 127}, "group": "control_change"}, {"time": 1920, "annotation": {"number": 64, "value": 0}, "group": "control_change"}, {"time": 1922, "annotation": {"number": 64, "value": 127}, "group": "control_change"}, {"time": 1924, "annotation": {"number": 64, "value": 0}, "group": "control_change"}, {"time": 1925, "annotation": {"number": 64, "value": 127}, "group": "control_change"}, {"time": 1945, "annotation": {"number": 64, "value": 0}, "group": "control_change"}, {"time": 1946, "annotation": {"number": 64, "value": 127}, "group": "control_change"}, {"time": 1948, "annotation": {"number": 64, "value": 0}, "group": "control_change"}, {"time": 1949, "annotation": {"number": 64, "value": 127}, "group": "control_change"}, {"time": 1967, "annotation": {"number": 64, "value": 0}, "group": "control_change"}, {"time": 1970, "annotation": {"number": 64, "value": 127}, "group": "control_change"}, {"time": 1991, "annotation": {"number": 64, "value": 0}, "group": "control_change"}, {"time": 1994, "annotation": {"number": 64, "value": 127}, "group": "control_change"}, {"time": 2003, "annotation": {"number": 64, "value": 0}, "group": "control_change"}, {"time": 2005, "annotation": {"number": 64, "value": 127}, "group": "control_change"}, {"time": 2015, "annotation": {"number": 64, "value": 0}, "group": "control_change"}, {"time": 2018, "annotation": {"number": 64, "value": 127}, "group": "control_change"}, {"time": 2039, "annotation": {"number": 64, "value": 0}, "group": "control_change"}, {"time": 2043, "annotation": {"number": 64, "value": 127}, "group": "control_change"}, {"time": 2064, "annotation": {"number": 64, "value": 0}, "group": "control_change"}, {"time": 2066, "annotation": {"number": 64, "value": 127}, "group": "control_change"}, {"time": 2089, "annotation": {"number": 64, "value": 0}, "group": "control_change"}, {"time": 2090, "annotation": {"number": 64, "value": 127}, "group": "control_change"}, {"time": 2112, "annotation": {"number": 64, "value": 0}, "group": "control_change"}, {"time": 2114, "annotation": {"number": 64, "value": 127}, "group": "control_change"}, {"time": 2137, "annotation": {"number": 64, "value": 0}, "group": "control_change"}, {"time": 2138, "annotation": {"number": 64, "value": 127}, "group": "control_change"}, {"time": 2140, "annotation": {"number": 64, "value": 0}, "group": "control_change"}, {"time": 2141, "annotation": {"number": 64, "value": 127}, "group": "control_change"}, {"time": 2160, "annotation": {"number": 64, "value": 0}, "group": "control_change"}, {"time": 2163, "annotation": {"number": 64, "value": 127}, "group": "control_change"}, {"time": 2183, "annotation": {"number": 64, "value": 0}, "group": "control_change"}, {"time": 2186, "annotation": {"number": 64, "value": 127}, "group": "control_change"}, {"time": 2208, "annotation": {"number": 64, "value": 0}, "group": "control_change"}, {"time": 2210, "annotation": {"number": 64, "value": 127}, "group": "control_change"}, {"time": 2231, "annotation": {"number": 64, "value": 0}, "group": "control_change"}, {"time": 2246, "annotation": {"number": 64, "value": 127}, "group": "control_change"}, {"time": 2254, "annotation": {"number": 64, "value": 0}, "group": "control_change"}, {"time": 2259, "annotation": {"number": 64, "value": 127}, "group": "control_change"}, {"time": 2280, "annotation": {"number": 64, "value": 0}, "group": "control_change"}, {"time": 2283, "annotation": {"number": 64, "value": 127}, "group": "control_change"}, {"time": 2305, "annotation": {"number": 64, "value": 0}, "group": "control_change"}, {"time": 2306, "annotation": {"number": 64, "value": 127}, "group": "control_change"}, {"time": 2328, "annotation": {"number": 64, "value": 0}, "group": "control_change"}, {"time": 2331, "annotation": {"number": 64, "value": 127}, "group": "control_change"}, {"time": 2352, "annotation": {"number": 64, "value": 0}, "group": "control_change"}, {"time": 2355, "annotation": {"number": 64, "value": 127}, "group": "control_change"}, {"time": 2375, "annotation": {"number": 64, "value": 0}, "group": "control_change"}, {"time": 2378, "annotation": {"number": 64, "value": 127}, "group": "control_change"}, {"time": 2399, "annotation": {"number": 64, "value": 0}, "group": "control_change"}, {"time": 2403, "annotation": {"number": 64, "value": 127}, "group": "control_change"}, {"time": 2424, "annotation": {"number": 64, "value": 0}, "group": "control_change"}, {"time": 2426, "annotation": {"number": 64, "value": 127}, "group": "control_change"}, {"time": 2434, "annotation": {"number": 64, "value": 0}, "group": "control_change"}, {"time": 2438, "annotation": {"number": 64, "value": 127}, "group": "control_change"}, {"time": 2448, "annotation": {"number": 64, "value": 0}, "group": "control_change"}, {"time": 2450, "annotation": {"number": 64, "value": 127}, "group": "control_change"}, {"time": 2472, "annotation": {"number": 64, "value": 0}, "group": "control_change"}, {"time": 2475, "annotation": {"number": 64, "value": 127}, "group": "control_change"}, {"time": 2496, "annotation": {"number": 64, "value": 0}, "group": "control_change"}, {"time": 2498, "annotation": {"number": 64, "value": 127}, "group": "control_change"}, {"time": 2520, "annotation": {"number": 64, "value": 0}, "group": "control_change"}, {"time": 2522, "annotation": {"number": 64, "value": 127}, "group": "control_change"}, {"time": 2543, "annotation": {"number": 64, "value": 0}, "group": "control_change"}, {"time": 2546, "annotation": {"number": 64, "value": 127}, "group": "control_change"}, {"time": 2567, "annotation": {"number": 64, "value": 0}, "group": "control_change"}, {"time": 2570, "annotation": {"number": 64, "value": 127}, "group": "control_change"}, {"time": 2591, "annotation": {"number": 64, "value": 0}, "group": "control_change"}, {"time": 2595, "annotation": {"number": 64, "value": 127}, "group": "control_change"}, {"time": 2604, "annotation": {"number": 64, "value": 0}, "group": "control_change"}, {"time": 2611, "annotation": {"number": 64, "value": 127}, "group": "control_change"}, {"time": 2616, "annotation": {"number": 64, "value": 0}, "group": "control_change"}, {"time": 2618, "annotation": {"number": 64, "value": 127}, "group": "control_change"}, {"time": 2641, "annotation": {"number": 64, "value": 0}, "group": "control_change"}, {"time": 2642, "annotation": {"number": 64, "value": 127}, "group": "control_change"}, {"time": 2653, "annotation": {"number": 64, "value": 0}, "group": "control_change"}, {"time": 2656, "annotation": {"number": 64, "value": 127}, "group": "control_change"}, {"time": 2664, "annotation": {"number": 64, "value": 0}, "group": "control_change"}, {"time": 2667, "annotation": {"number": 64, "value": 127}, "group": "control_change"}, {"time": 2676, "annotation": {"number": 64, "value": 0}, "group": "control_change"}, {"time": 2679, "annotation": {"number": 64, "value": 127}, "group": "control_change"}, {"time": 2688, "annotation": {"number": 64, "value": 0}, "group": "control_change"}, {"time": 2691, "annotation": {"number": 64, "value": 127}, "group": "control_change"}, {"time": 2712, "annotation": {"number": 64, "value": 0}, "group": "control_change"}, {"time": 2715, "annotation": {"number": 64, "value": 127}, "group": "control_change"}, {"time": 2735, "annotation": {"number": 64, "value": 0}, "group": "control_change"}, {"time": 2738, "annotation": {"number": 64, "value": 127}, "group": "control_change"}, {"time": 2748, "annotation": {"number": 64, "value": 0}, "group": "control_change"}, {"time": 2751, "annotation": {"number": 64, "value": 127}, "group": "control_change"}, {"time": 2760, "annotation": {"number": 64, "value": 0}, "group": "control_change"}, {"time": 2763, "annotation": {"number": 64, "value": 127}, "group": "control_change"}, {"time": 2772, "annotation": {"number": 64, "value": 0}, "group": "control_change"}, {"time": 2774, "annotation": {"number": 64, "value": 127}, "group": "control_change"}, {"time": 2783, "annotation": {"number": 64, "value": 0}, "group": "control_change"}, {"time": 2787, "annotation": {"number": 64, "value": 127}, "group": "control_change"}, {"time": 2800, "annotation": {"number": 64, "value": 0}, "group": "control_change"}, {"time": 2808, "annotation": {"number": 64, "value": 127}, "group": "control_change"}, {"time": 2832, "annotation": {"number": 64, "value": 0}, "group": "control_change"}, {"time": 2834, "annotation": {"number": 64, "value": 127}, "group": "control_change"}, {"time": 2906, "annotation": {"number": 64, "value": 0}, "group": "control_change"}, {"time": 2907, "annotation": {"number": 64, "value": 127}, "group": "control_change"}]}]}