{"metadata": {"schema_version": "0.2", "title": "None", "source_filename": "379.mid", "source_format": "midi"}, "resolution": 12, "tempos": [{"time": 0, "qpm": 60.0}], "time_signatures": [{"time": 0, "numerator": 1, "denominator": 4}], "tracks": [{"program": 4, "is_drum": false, "name": "MELODY", "notes": [{"time": 458, "pitch": 74, "duration": 3, "velocity": 112}, {"time": 462, "pitch": 74, "duration": 3, "velocity": 96}, {"time": 466, "pitch": 74, "duration": 3, "velocity": 102}, {"time": 470, "pitch": 74, "duration": 4, "velocity": 122}, {"time": 474, "pitch": 69, "duration": 4, "velocity": 79}, {"time": 478, "pitch": 73, "duration": 5, "velocity": 107}, {"time": 482, "pitch": 71, "duration": 20, "velocity": 122}, {"time": 502, "pitch": 64, "duration": 5, "velocity": 102}, {"time": 506, "pitch": 76, "duration": 7, "velocity": 117}, {"time": 514, "pitch": 73, "duration": 3, "velocity": 117}, {"time": 518, "pitch": 73, "duration": 4, "velocity": 122}, {"time": 522, "pitch": 69, "duration": 2, "velocity": 86}, {"time": 526, "pitch": 68, "duration": 4, "velocity": 112}, {"time": 530, "pitch": 66, "duration": 19, "velocity": 95}, {"time": 554, "pitch": 74, "duration": 3, "velocity": 127}, {"time": 558, "pitch": 74, "duration": 3, "velocity": 112}, {"time": 562, "pitch": 74, "duration": 2, "velocity": 117}, {"time": 566, "pitch": 74, "duration": 4, "velocity": 122}, {"time": 570, "pitch": 69, "duration": 1, "velocity": 107}, {"time": 574, "pitch": 66, "duration": 4, "velocity": 96}, {"time": 578, "pitch": 71, "duration": 17, "velocity": 99}, {"time": 598, "pitch": 64, "duration": 4, "velocity": 93}, {"time": 602, "pitch": 76, "duration": 7, "velocity": 122}, {"time": 606, "pitch": 73, "duration": 2, "velocity": 117}, {"time": 610, "pitch": 73, "duration": 2, "velocity": 112}, {"time": 614, "pitch": 73, "duration": 4, "velocity": 127}, {"time": 618, "pitch": 71, "duration": 5, "velocity": 93}, {"time": 622, "pitch": 73, "duration": 2, "velocity": 117}, {"time": 626, "pitch": 73, "duration": 22, "velocity": 127}, {"time": 650, "pitch": 74, "duration": 4, "velocity": 127}, {"time": 654, "pitch": 74, "duration": 3, "velocity": 95}, {"time": 658, "pitch": 74, "duration": 3, "velocity": 107}, {"time": 662, "pitch": 74, "duration": 4, "velocity": 102}, {"time": 666, "pitch": 69, "duration": 4, "velocity": 96}, {"time": 670, "pitch": 66, "duration": 4, "velocity": 112}, {"time": 674, "pitch": 71, "duration": 10, "velocity": 112}, {"time": 694, "pitch": 64, "duration": 3, "velocity": 86}, {"time": 698, "pitch": 76, "duration": 5, "velocity": 112}, {"time": 702, "pitch": 78, "duration": 4, "velocity": 127}, {"time": 706, "pitch": 76, "duration": 2, "velocity": 127}, {"time": 710, "pitch": 76, "duration": 3, "velocity": 127}, {"time": 714, "pitch": 73, "duration": 4, "velocity": 127}, {"time": 718, "pitch": 71, "duration": 5, "velocity": 117}, {"time": 722, "pitch": 73, "duration": 13, "velocity": 127}, {"time": 742, "pitch": 66, "duration": 4, "velocity": 112}, {"time": 746, "pitch": 74, "duration": 3, "velocity": 112}, {"time": 750, "pitch": 74, "duration": 3, "velocity": 93}, {"time": 754, "pitch": 74, "duration": 3, "velocity": 90}, {"time": 758, "pitch": 74, "duration": 3, "velocity": 122}, {"time": 762, "pitch": 69, "duration": 4, "velocity": 99}, {"time": 766, "pitch": 73, "duration": 4, "velocity": 107}, {"time": 770, "pitch": 71, "duration": 12, "velocity": 112}, {"time": 790, "pitch": 64, "duration": 4, "velocity": 96}, {"time": 794, "pitch": 74, "duration": 3, "velocity": 127}, {"time": 798, "pitch": 74, "duration": 6, "velocity": 127}, {"time": 806, "pitch": 78, "duration": 4, "velocity": 127}, {"time": 810, "pitch": 76, "duration": 4, "velocity": 122}, {"time": 814, "pitch": 73, "duration": 4, "velocity": 100}, {"time": 818, "pitch": 76, "duration": 20, "velocity": 122}, {"time": 838, "pitch": 78, "duration": 5, "velocity": 127}, {"time": 842, "pitch": 80, "duration": 13, "velocity": 122}, {"time": 854, "pitch": 66, "duration": 4, "velocity": 127}, {"time": 858, "pitch": 69, "duration": 5, "velocity": 96}, {"time": 862, "pitch": 73, "duration": 4, "velocity": 127}, {"time": 866, "pitch": 78, "duration": 4, "velocity": 127}, {"time": 870, "pitch": 78, "duration": 4, "velocity": 127}, {"time": 874, "pitch": 76, "duration": 4, "velocity": 100}, {"time": 878, "pitch": 78, "duration": 5, "velocity": 127}, {"time": 886, "pitch": 80, "duration": 4, "velocity": 122}, {"time": 890, "pitch": 73, "duration": 3, "velocity": 127}, {"time": 902, "pitch": 73, "duration": 3, "velocity": 127}, {"time": 906, "pitch": 76, "duration": 4, "velocity": 122}, {"time": 910, "pitch": 73, "duration": 3, "velocity": 122}, {"time": 914, "pitch": 78, "duration": 6, "velocity": 127}, {"time": 922, "pitch": 76, "duration": 3, "velocity": 112}, {"time": 926, "pitch": 71, "duration": 4, "velocity": 117}, {"time": 930, "pitch": 73, "duration": 4, "velocity": 127}, {"time": 934, "pitch": 76, "duration": 4, "velocity": 107}, {"time": 938, "pitch": 73, "duration": 10, "velocity": 127}, {"time": 950, "pitch": 73, "duration": 3, "velocity": 127}, {"time": 954, "pitch": 71, "duration": 4, "velocity": 127}, {"time": 958, "pitch": 69, "duration": 5, "velocity": 112}, {"time": 962, "pitch": 73, "duration": 4, "velocity": 127}, {"time": 966, "pitch": 71, "duration": 2, "velocity": 99}, {"time": 970, "pitch": 71, "duration": 2, "velocity": 112}, {"time": 974, "pitch": 71, "duration": 3, "velocity": 122}, {"time": 978, "pitch": 69, "duration": 2, "velocity": 122}, {"time": 978, "pitch": 71, "duration": 3, "velocity": 117}, {"time": 982, "pitch": 66, "duration": 3, "velocity": 127}, {"time": 986, "pitch": 71, "duration": 8, "velocity": 127}, {"time": 998, "pitch": 78, "duration": 3, "velocity": 127}, {"time": 1002, "pitch": 76, "duration": 3, "velocity": 117}, {"time": 1006, "pitch": 73, "duration": 4, "velocity": 127}, {"time": 1010, "pitch": 78, "duration": 3, "velocity": 127}, {"time": 1014, "pitch": 76, "duration": 3, "velocity": 112}, {"time": 1018, "pitch": 73, "duration": 3, "velocity": 127}, {"time": 1022, "pitch": 78, "duration": 3, "velocity": 127}, {"time": 1026, "pitch": 76, "duration": 4, "velocity": 102}, {"time": 1030, "pitch": 73, "duration": 4, "velocity": 122}, {"time": 1034, "pitch": 76, "duration": 11, "velocity": 127}, {"time": 1046, "pitch": 81, "duration": 4, "velocity": 127}, {"time": 1050, "pitch": 80, "duration": 4, "velocity": 122}, {"time": 1054, "pitch": 81, "duration": 4, "velocity": 97}, {"time": 1058, "pitch": 78, "duration": 3, "velocity": 127}, {"time": 1062, "pitch": 78, "duration": 4, "velocity": 127}, {"time": 1066, "pitch": 76, "duration": 4, "velocity": 96}, {"time": 1070, "pitch": 78, "duration": 5, "velocity": 127}, {"time": 1078, "pitch": 80, "duration": 4, "velocity": 122}, {"time": 1082, "pitch": 73, "duration": 8, "velocity": 127}, {"time": 1094, "pitch": 73, "duration": 3, "velocity": 127}, {"time": 1098, "pitch": 76, "duration": 3, "velocity": 117}, {"time": 1102, "pitch": 73, "duration": 4, "velocity": 127}, {"time": 1106, "pitch": 78, "duration": 4, "velocity": 127}, {"time": 1110, "pitch": 76, "duration": 3, "velocity": 112}, {"time": 1114, "pitch": 76, "duration": 4, "velocity": 112}, {"time": 1118, "pitch": 71, "duration": 4, "velocity": 112}, {"time": 1122, "pitch": 73, "duration": 4, "velocity": 100}, {"time": 1126, "pitch": 76, "duration": 4, "velocity": 99}, {"time": 1130, "pitch": 73, "duration": 12, "velocity": 127}, {"time": 1142, "pitch": 73, "duration": 3, "velocity": 127}, {"time": 1146, "pitch": 71, "duration": 4, "velocity": 122}, {"time": 1150, "pitch": 69, "duration": 4, "velocity": 97}, {"time": 1154, "pitch": 73, "duration": 4, "velocity": 127}, {"time": 1158, "pitch": 71, "duration": 3, "velocity": 117}, {"time": 1162, "pitch": 69, "duration": 4, "velocity": 102}, {"time": 1166, "pitch": 71, "duration": 3, "velocity": 127}, {"time": 1170, "pitch": 71, "duration": 3, "velocity": 117}, {"time": 1174, "pitch": 73, "duration": 3, "velocity": 127}, {"time": 1178, "pitch": 71, "duration": 9, "velocity": 127}, {"time": 1190, "pitch": 71, "duration": 4, "velocity": 127}, {"time": 1194, "pitch": 69, "duration": 4, "velocity": 122}, {"time": 1198, "pitch": 66, "duration": 3, "velocity": 127}, {"time": 1202, "pitch": 76, "duration": 3, "velocity": 127}, {"time": 1206, "pitch": 76, "duration": 2, "velocity": 127}, {"time": 1210, "pitch": 76, "duration": 3, "velocity": 122}, {"time": 1214, "pitch": 76, "duration": 3, "velocity": 122}, {"time": 1222, "pitch": 78, "duration": 4, "velocity": 127}, {"time": 1226, "pitch": 80, "duration": 5, "velocity": 127}, {"time": 1238, "pitch": 68, "duration": 7, "velocity": 127}, {"time": 1246, "pitch": 69, "duration": 4, "velocity": 100}, {"time": 1250, "pitch": 66, "duration": 22, "velocity": 122}, {"time": 1682, "pitch": 74, "duration": 3, "velocity": 112}, {"time": 1686, "pitch": 74, "duration": 3, "velocity": 96}, {"time": 1690, "pitch": 74, "duration": 3, "velocity": 102}, {"time": 1694, "pitch": 74, "duration": 4, "velocity": 122}, {"time": 1698, "pitch": 69, "duration": 4, "velocity": 79}, {"time": 1702, "pitch": 73, "duration": 5, "velocity": 107}, {"time": 1706, "pitch": 71, "duration": 20, "velocity": 122}, {"time": 1726, "pitch": 64, "duration": 5, "velocity": 102}, {"time": 1730, "pitch": 76, "duration": 7, "velocity": 117}, {"time": 1738, "pitch": 73, "duration": 3, "velocity": 117}, {"time": 1742, "pitch": 73, "duration": 4, "velocity": 122}, {"time": 1746, "pitch": 69, "duration": 2, "velocity": 86}, {"time": 1750, "pitch": 68, "duration": 4, "velocity": 112}, {"time": 1754, "pitch": 66, "duration": 19, "velocity": 95}, {"time": 1778, "pitch": 74, "duration": 3, "velocity": 127}, {"time": 1782, "pitch": 74, "duration": 3, "velocity": 112}, {"time": 1786, "pitch": 74, "duration": 2, "velocity": 117}, {"time": 1790, "pitch": 74, "duration": 4, "velocity": 122}, {"time": 1794, "pitch": 69, "duration": 1, "velocity": 107}, {"time": 1798, "pitch": 66, "duration": 4, "velocity": 96}, {"time": 1802, "pitch": 71, "duration": 17, "velocity": 99}, {"time": 1822, "pitch": 64, "duration": 4, "velocity": 93}, {"time": 1826, "pitch": 76, "duration": 7, "velocity": 122}, {"time": 1830, "pitch": 73, "duration": 2, "velocity": 117}, {"time": 1834, "pitch": 73, "duration": 2, "velocity": 112}, {"time": 1838, "pitch": 73, "duration": 4, "velocity": 127}, {"time": 1842, "pitch": 71, "duration": 5, "velocity": 93}, {"time": 1846, "pitch": 73, "duration": 2, "velocity": 117}, {"time": 1850, "pitch": 73, "duration": 22, "velocity": 127}, {"time": 1874, "pitch": 74, "duration": 4, "velocity": 127}, {"time": 1878, "pitch": 74, "duration": 3, "velocity": 95}, {"time": 1882, "pitch": 74, "duration": 3, "velocity": 107}, {"time": 1886, "pitch": 74, "duration": 4, "velocity": 102}, {"time": 1890, "pitch": 69, "duration": 4, "velocity": 96}, {"time": 1894, "pitch": 66, "duration": 4, "velocity": 112}, {"time": 1898, "pitch": 71, "duration": 10, "velocity": 112}, {"time": 1918, "pitch": 64, "duration": 3, "velocity": 86}, {"time": 1922, "pitch": 76, "duration": 5, "velocity": 112}, {"time": 1926, "pitch": 78, "duration": 4, "velocity": 127}, {"time": 1930, "pitch": 76, "duration": 2, "velocity": 127}, {"time": 1934, "pitch": 76, "duration": 3, "velocity": 127}, {"time": 1938, "pitch": 73, "duration": 4, "velocity": 127}, {"time": 1942, "pitch": 71, "duration": 5, "velocity": 117}, {"time": 1946, "pitch": 73, "duration": 13, "velocity": 127}, {"time": 1966, "pitch": 66, "duration": 4, "velocity": 112}, {"time": 1970, "pitch": 74, "duration": 3, "velocity": 112}, {"time": 1974, "pitch": 74, "duration": 3, "velocity": 93}, {"time": 1978, "pitch": 74, "duration": 3, "velocity": 90}, {"time": 1982, "pitch": 74, "duration": 3, "velocity": 122}, {"time": 1986, "pitch": 69, "duration": 4, "velocity": 99}, {"time": 1990, "pitch": 73, "duration": 4, "velocity": 107}, {"time": 1994, "pitch": 71, "duration": 12, "velocity": 112}, {"time": 2014, "pitch": 64, "duration": 4, "velocity": 96}, {"time": 2018, "pitch": 74, "duration": 3, "velocity": 127}, {"time": 2022, "pitch": 74, "duration": 6, "velocity": 127}, {"time": 2030, "pitch": 78, "duration": 4, "velocity": 127}, {"time": 2034, "pitch": 76, "duration": 4, "velocity": 122}, {"time": 2038, "pitch": 73, "duration": 4, "velocity": 100}, {"time": 2042, "pitch": 76, "duration": 20, "velocity": 122}, {"time": 2062, "pitch": 78, "duration": 5, "velocity": 127}, {"time": 2066, "pitch": 80, "duration": 13, "velocity": 122}, {"time": 2078, "pitch": 66, "duration": 4, "velocity": 127}, {"time": 2082, "pitch": 69, "duration": 5, "velocity": 96}, {"time": 2086, "pitch": 73, "duration": 4, "velocity": 127}, {"time": 2090, "pitch": 78, "duration": 4, "velocity": 127}, {"time": 2094, "pitch": 78, "duration": 4, "velocity": 127}, {"time": 2098, "pitch": 76, "duration": 4, "velocity": 100}, {"time": 2102, "pitch": 78, "duration": 5, "velocity": 127}, {"time": 2110, "pitch": 80, "duration": 4, "velocity": 122}, {"time": 2114, "pitch": 73, "duration": 3, "velocity": 127}, {"time": 2126, "pitch": 73, "duration": 3, "velocity": 127}, {"time": 2130, "pitch": 76, "duration": 4, "velocity": 122}, {"time": 2134, "pitch": 73, "duration": 3, "velocity": 122}, {"time": 2138, "pitch": 78, "duration": 6, "velocity": 127}, {"time": 2146, "pitch": 76, "duration": 3, "velocity": 112}, {"time": 2150, "pitch": 71, "duration": 4, "velocity": 117}, {"time": 2154, "pitch": 73, "duration": 4, "velocity": 127}, {"time": 2158, "pitch": 76, "duration": 4, "velocity": 107}, {"time": 2162, "pitch": 73, "duration": 10, "velocity": 127}, {"time": 2174, "pitch": 73, "duration": 3, "velocity": 127}, {"time": 2178, "pitch": 71, "duration": 4, "velocity": 127}, {"time": 2182, "pitch": 69, "duration": 5, "velocity": 112}, {"time": 2186, "pitch": 73, "duration": 4, "velocity": 127}, {"time": 2190, "pitch": 71, "duration": 2, "velocity": 99}, {"time": 2194, "pitch": 71, "duration": 2, "velocity": 112}, {"time": 2198, "pitch": 71, "duration": 3, "velocity": 122}, {"time": 2202, "pitch": 69, "duration": 2, "velocity": 122}, {"time": 2202, "pitch": 71, "duration": 3, "velocity": 117}, {"time": 2206, "pitch": 66, "duration": 3, "velocity": 127}, {"time": 2210, "pitch": 71, "duration": 8, "velocity": 127}, {"time": 2222, "pitch": 78, "duration": 3, "velocity": 127}, {"time": 2226, "pitch": 76, "duration": 3, "velocity": 117}, {"time": 2230, "pitch": 73, "duration": 4, "velocity": 127}, {"time": 2234, "pitch": 78, "duration": 3, "velocity": 127}, {"time": 2238, "pitch": 76, "duration": 3, "velocity": 112}, {"time": 2242, "pitch": 73, "duration": 3, "velocity": 127}, {"time": 2246, "pitch": 78, "duration": 3, "velocity": 127}, {"time": 2250, "pitch": 76, "duration": 4, "velocity": 102}, {"time": 2254, "pitch": 73, "duration": 4, "velocity": 122}, {"time": 2258, "pitch": 76, "duration": 11, "velocity": 127}, {"time": 2270, "pitch": 81, "duration": 4, "velocity": 127}, {"time": 2274, "pitch": 80, "duration": 4, "velocity": 122}, {"time": 2278, "pitch": 81, "duration": 4, "velocity": 97}, {"time": 2282, "pitch": 78, "duration": 3, "velocity": 127}, {"time": 2286, "pitch": 78, "duration": 4, "velocity": 127}, {"time": 2290, "pitch": 76, "duration": 4, "velocity": 96}, {"time": 2294, "pitch": 78, "duration": 5, "velocity": 127}, {"time": 2302, "pitch": 80, "duration": 4, "velocity": 122}, {"time": 2306, "pitch": 73, "duration": 8, "velocity": 127}, {"time": 2318, "pitch": 73, "duration": 3, "velocity": 127}, {"time": 2322, "pitch": 76, "duration": 3, "velocity": 117}, {"time": 2326, "pitch": 73, "duration": 4, "velocity": 127}, {"time": 2330, "pitch": 78, "duration": 4, "velocity": 127}, {"time": 2334, "pitch": 76, "duration": 3, "velocity": 112}, {"time": 2338, "pitch": 76, "duration": 4, "velocity": 112}, {"time": 2342, "pitch": 71, "duration": 4, "velocity": 112}, {"time": 2346, "pitch": 73, "duration": 4, "velocity": 100}, {"time": 2350, "pitch": 76, "duration": 4, "velocity": 99}, {"time": 2354, "pitch": 73, "duration": 12, "velocity": 127}, {"time": 2366, "pitch": 73, "duration": 3, "velocity": 127}, {"time": 2370, "pitch": 71, "duration": 4, "velocity": 122}, {"time": 2374, "pitch": 69, "duration": 4, "velocity": 97}, {"time": 2378, "pitch": 73, "duration": 4, "velocity": 127}, {"time": 2382, "pitch": 71, "duration": 3, "velocity": 117}, {"time": 2386, "pitch": 69, "duration": 4, "velocity": 102}, {"time": 2390, "pitch": 71, "duration": 3, "velocity": 127}, {"time": 2394, "pitch": 71, "duration": 3, "velocity": 117}, {"time": 2398, "pitch": 73, "duration": 3, "velocity": 127}, {"time": 2402, "pitch": 71, "duration": 9, "velocity": 127}, {"time": 2414, "pitch": 71, "duration": 4, "velocity": 127}, {"time": 2418, "pitch": 69, "duration": 4, "velocity": 122}, {"time": 2422, "pitch": 66, "duration": 3, "velocity": 127}, {"time": 2426, "pitch": 76, "duration": 3, "velocity": 127}, {"time": 2430, "pitch": 76, "duration": 2, "velocity": 127}, {"time": 2434, "pitch": 76, "duration": 3, "velocity": 122}, {"time": 2438, "pitch": 76, "duration": 3, "velocity": 122}, {"time": 2446, "pitch": 78, "duration": 4, "velocity": 127}, {"time": 2450, "pitch": 80, "duration": 5, "velocity": 127}, {"time": 2462, "pitch": 68, "duration": 7, "velocity": 127}, {"time": 2470, "pitch": 69, "duration": 4, "velocity": 100}, {"time": 2474, "pitch": 66, "duration": 22, "velocity": 122}, {"time": 2510, "pitch": 66, "duration": 4, "velocity": 127}, {"time": 2514, "pitch": 69, "duration": 5, "velocity": 96}, {"time": 2518, "pitch": 73, "duration": 4, "velocity": 127}, {"time": 2522, "pitch": 78, "duration": 4, "velocity": 127}, {"time": 2526, "pitch": 78, "duration": 4, "velocity": 127}, {"time": 2530, "pitch": 76, "duration": 4, "velocity": 100}, {"time": 2534, "pitch": 78, "duration": 5, "velocity": 127}, {"time": 2542, "pitch": 80, "duration": 4, "velocity": 122}, {"time": 2546, "pitch": 73, "duration": 3, "velocity": 127}, {"time": 2558, "pitch": 73, "duration": 3, "velocity": 127}, {"time": 2562, "pitch": 76, "duration": 4, "velocity": 122}, {"time": 2566, "pitch": 73, "duration": 3, "velocity": 122}, {"time": 2570, "pitch": 78, "duration": 6, "velocity": 127}, {"time": 2578, "pitch": 76, "duration": 3, "velocity": 112}, {"time": 2582, "pitch": 71, "duration": 4, "velocity": 117}, {"time": 2586, "pitch": 73, "duration": 4, "velocity": 127}, {"time": 2590, "pitch": 76, "duration": 4, "velocity": 107}, {"time": 2594, "pitch": 73, "duration": 10, "velocity": 127}, {"time": 2606, "pitch": 73, "duration": 3, "velocity": 127}, {"time": 2610, "pitch": 71, "duration": 4, "velocity": 127}, {"time": 2614, "pitch": 69, "duration": 5, "velocity": 112}, {"time": 2618, "pitch": 73, "duration": 4, "velocity": 127}, {"time": 2622, "pitch": 71, "duration": 2, "velocity": 99}, {"time": 2626, "pitch": 71, "duration": 2, "velocity": 112}, {"time": 2630, "pitch": 71, "duration": 3, "velocity": 122}, {"time": 2634, "pitch": 69, "duration": 2, "velocity": 122}, {"time": 2634, "pitch": 71, "duration": 3, "velocity": 117}, {"time": 2638, "pitch": 66, "duration": 3, "velocity": 127}, {"time": 2642, "pitch": 71, "duration": 8, "velocity": 127}, {"time": 2654, "pitch": 78, "duration": 3, "velocity": 127}, {"time": 2658, "pitch": 76, "duration": 3, "velocity": 117}, {"time": 2662, "pitch": 73, "duration": 4, "velocity": 127}, {"time": 2666, "pitch": 78, "duration": 3, "velocity": 127}, {"time": 2670, "pitch": 76, "duration": 3, "velocity": 112}, {"time": 2674, "pitch": 73, "duration": 3, "velocity": 127}, {"time": 2678, "pitch": 78, "duration": 3, "velocity": 127}, {"time": 2682, "pitch": 76, "duration": 4, "velocity": 102}, {"time": 2686, "pitch": 73, "duration": 4, "velocity": 122}, {"time": 2690, "pitch": 76, "duration": 11, "velocity": 127}, {"time": 2702, "pitch": 81, "duration": 4, "velocity": 127}, {"time": 2706, "pitch": 80, "duration": 4, "velocity": 122}, {"time": 2710, "pitch": 81, "duration": 4, "velocity": 97}, {"time": 2714, "pitch": 78, "duration": 3, "velocity": 127}, {"time": 2718, "pitch": 78, "duration": 4, "velocity": 127}, {"time": 2722, "pitch": 76, "duration": 4, "velocity": 96}, {"time": 2726, "pitch": 78, "duration": 5, "velocity": 127}, {"time": 2734, "pitch": 80, "duration": 4, "velocity": 122}, {"time": 2738, "pitch": 73, "duration": 8, "velocity": 127}, {"time": 2750, "pitch": 73, "duration": 3, "velocity": 127}, {"time": 2754, "pitch": 76, "duration": 3, "velocity": 117}, {"time": 2758, "pitch": 73, "duration": 4, "velocity": 127}, {"time": 2762, "pitch": 78, "duration": 4, "velocity": 127}, {"time": 2766, "pitch": 76, "duration": 3, "velocity": 112}, {"time": 2770, "pitch": 76, "duration": 4, "velocity": 112}, {"time": 2774, "pitch": 71, "duration": 4, "velocity": 112}, {"time": 2778, "pitch": 73, "duration": 4, "velocity": 100}, {"time": 2782, "pitch": 76, "duration": 4, "velocity": 99}, {"time": 2786, "pitch": 73, "duration": 12, "velocity": 127}, {"time": 2798, "pitch": 73, "duration": 3, "velocity": 127}, {"time": 2802, "pitch": 71, "duration": 4, "velocity": 122}, {"time": 2806, "pitch": 69, "duration": 4, "velocity": 97}, {"time": 2810, "pitch": 73, "duration": 4, "velocity": 127}, {"time": 2814, "pitch": 71, "duration": 3, "velocity": 117}, {"time": 2818, "pitch": 69, "duration": 4, "velocity": 102}, {"time": 2822, "pitch": 71, "duration": 3, "velocity": 127}, {"time": 2826, "pitch": 71, "duration": 3, "velocity": 117}, {"time": 2830, "pitch": 73, "duration": 3, "velocity": 127}, {"time": 2834, "pitch": 71, "duration": 9, "velocity": 127}, {"time": 2846, "pitch": 71, "duration": 4, "velocity": 127}, {"time": 2850, "pitch": 69, "duration": 4, "velocity": 122}, {"time": 2854, "pitch": 66, "duration": 3, "velocity": 127}, {"time": 2858, "pitch": 76, "duration": 3, "velocity": 127}, {"time": 2862, "pitch": 76, "duration": 2, "velocity": 127}, {"time": 2866, "pitch": 76, "duration": 3, "velocity": 122}, {"time": 2870, "pitch": 76, "duration": 3, "velocity": 122}, {"time": 2878, "pitch": 78, "duration": 4, "velocity": 127}, {"time": 2882, "pitch": 80, "duration": 5, "velocity": 127}, {"time": 2894, "pitch": 68, "duration": 7, "velocity": 127}, {"time": 2902, "pitch": 69, "duration": 4, "velocity": 100}, {"time": 2906, "pitch": 66, "duration": 22, "velocity": 122}]}, {"program": 0, "is_drum": false, "name": "PIANO", "notes": [{"time": 25, "pitch": 42, "duration": 79, "velocity": 55}, {"time": 43, "pitch": 52, "duration": 2, "velocity": 76}, {"time": 45, "pitch": 54, "duration": 2, "velocity": 86}, {"time": 47, "pitch": 56, "duration": 5, "velocity": 49}, {"time": 53, "pitch": 57, "duration": 6, "velocity": 64}, {"time": 58, "pitch": 56, "duration": 5, "velocity": 84}, {"time": 63, "pitch": 61, "duration": 43, "velocity": 24}, {"time": 107, "pitch": 47, "duration": 81, "velocity": 68}, {"time": 123, "pitch": 59, "duration": 6, "velocity": 61}, {"time": 128, "pitch": 61, "duration": 4, "velocity": 100}, {"time": 131, "pitch": 62, "duration": 4, "velocity": 67}, {"time": 135, "pitch": 66, "duration": 3, "velocity": 72}, {"time": 138, "pitch": 68, "duration": 3, "velocity": 89}, {"time": 141, "pitch": 69, "duration": 4, "velocity": 91}, {"time": 145, "pitch": 71, "duration": 3, "velocity": 74}, {"time": 148, "pitch": 71, "duration": 3, "velocity": 63}, {"time": 154, "pitch": 73, "duration": 13, "velocity": 56}, {"time": 179, "pitch": 69, "duration": 5, "velocity": 92}, {"time": 182, "pitch": 71, "duration": 3, "velocity": 38}, {"time": 184, "pitch": 68, "duration": 4, "velocity": 33}, {"time": 187, "pitch": 69, "duration": 2, "velocity": 22}, {"time": 189, "pitch": 66, "duration": 4, "velocity": 19}, {"time": 192, "pitch": 68, "duration": 6, "velocity": 25}, {"time": 197, "pitch": 69, "duration": 14, "velocity": 20}, {"time": 204, "pitch": 57, "duration": 8, "velocity": 16}, {"time": 210, "pitch": 42, "duration": 16, "velocity": 63}, {"time": 219, "pitch": 73, "duration": 12, "velocity": 88}, {"time": 225, "pitch": 57, "duration": 7, "velocity": 55}, {"time": 228, "pitch": 42, "duration": 4, "velocity": 62}, {"time": 231, "pitch": 71, "duration": 3, "velocity": 88}, {"time": 234, "pitch": 57, "duration": 5, "velocity": 70}, {"time": 234, "pitch": 71, "duration": 3, "velocity": 61}, {"time": 236, "pitch": 42, "duration": 6, "velocity": 60}, {"time": 239, "pitch": 69, "duration": 5, "velocity": 67}, {"time": 241, "pitch": 57, "duration": 5, "velocity": 65}, {"time": 243, "pitch": 42, "duration": 6, "velocity": 62}, {"time": 246, "pitch": 68, "duration": 5, "velocity": 75}, {"time": 249, "pitch": 57, "duration": 10, "velocity": 75}, {"time": 251, "pitch": 42, "duration": 38, "velocity": 63}, {"time": 259, "pitch": 57, "duration": 5, "velocity": 34}, {"time": 263, "pitch": 61, "duration": 23, "velocity": 24}, {"time": 288, "pitch": 44, "duration": 71, "velocity": 19}, {"time": 288, "pitch": 49, "duration": 60, "velocity": 33}, {"time": 293, "pitch": 56, "duration": 13, "velocity": 64}, {"time": 297, "pitch": 59, "duration": 61, "velocity": 35}, {"time": 302, "pitch": 65, "duration": 60, "velocity": 36}, {"time": 313, "pitch": 56, "duration": 47, "velocity": 31}, {"time": 320, "pitch": 68, "duration": 46, "velocity": 16}, {"time": 362, "pitch": 42, "duration": 24, "velocity": 73}, {"time": 366, "pitch": 49, "duration": 22, "velocity": 63}, {"time": 370, "pitch": 54, "duration": 6, "velocity": 69}, {"time": 374, "pitch": 61, "duration": 21, "velocity": 88}, {"time": 374, "pitch": 66, "duration": 21, "velocity": 93}, {"time": 378, "pitch": 54, "duration": 10, "velocity": 57}, {"time": 382, "pitch": 57, "duration": 16, "velocity": 76}, {"time": 386, "pitch": 42, "duration": 22, "velocity": 64}, {"time": 390, "pitch": 49, "duration": 21, "velocity": 66}, {"time": 394, "pitch": 54, "duration": 17, "velocity": 64}, {"time": 398, "pitch": 61, "duration": 23, "velocity": 100}, {"time": 402, "pitch": 57, "duration": 25, "velocity": 77}, {"time": 406, "pitch": 66, "duration": 14, "velocity": 58}, {"time": 410, "pitch": 42, "duration": 20, "velocity": 75}, {"time": 414, "pitch": 49, "duration": 16, "velocity": 52}, {"time": 418, "pitch": 54, "duration": 12, "velocity": 66}, {"time": 422, "pitch": 66, "duration": 8, "velocity": 90}, {"time": 426, "pitch": 61, "duration": 5, "velocity": 82}, {"time": 430, "pitch": 57, "duration": 18, "velocity": 68}, {"time": 434, "pitch": 42, "duration": 13, "velocity": 44}, {"time": 434, "pitch": 49, "duration": 13, "velocity": 43}, {"time": 434, "pitch": 54, "duration": 13, "velocity": 38}, {"time": 434, "pitch": 61, "duration": 13, "velocity": 56}, {"time": 434, "pitch": 66, "duration": 13, "velocity": 60}, {"time": 458, "pitch": 47, "duration": 18, "velocity": 69}, {"time": 462, "pitch": 54, "duration": 12, "velocity": 99}, {"time": 466, "pitch": 59, "duration": 14, "velocity": 83}, {"time": 470, "pitch": 66, "duration": 10, "velocity": 112}, {"time": 474, "pitch": 54, "duration": 2, "velocity": 61}, {"time": 478, "pitch": 62, "duration": 5, "velocity": 93}, {"time": 482, "pitch": 40, "duration": 15, "velocity": 81}, {"time": 486, "pitch": 47, "duration": 12, "velocity": 55}, {"time": 490, "pitch": 52, "duration": 6, "velocity": 66}, {"time": 494, "pitch": 68, "duration": 11, "velocity": 102}, {"time": 498, "pitch": 64, "duration": 7, "velocity": 66}, {"time": 502, "pitch": 59, "duration": 4, "velocity": 71}, {"time": 506, "pitch": 49, "duration": 14, "velocity": 73}, {"time": 510, "pitch": 56, "duration": 10, "velocity": 72}, {"time": 514, "pitch": 61, "duration": 5, "velocity": 54}, {"time": 518, "pitch": 64, "duration": 12, "velocity": 81}, {"time": 522, "pitch": 56, "duration": 8, "velocity": 67}, {"time": 526, "pitch": 61, "duration": 5, "velocity": 66}, {"time": 530, "pitch": 42, "duration": 18, "velocity": 76}, {"time": 534, "pitch": 49, "duration": 14, "velocity": 52}, {"time": 538, "pitch": 54, "duration": 8, "velocity": 89}, {"time": 542, "pitch": 66, "duration": 13, "velocity": 100}, {"time": 546, "pitch": 61, "duration": 8, "velocity": 102}, {"time": 550, "pitch": 57, "duration": 5, "velocity": 86}, {"time": 554, "pitch": 47, "duration": 13, "velocity": 78}, {"time": 558, "pitch": 54, "duration": 8, "velocity": 77}, {"time": 562, "pitch": 59, "duration": 8, "velocity": 88}, {"time": 566, "pitch": 66, "duration": 8, "velocity": 117}, {"time": 570, "pitch": 62, "duration": 9, "velocity": 77}, {"time": 574, "pitch": 59, "duration": 6, "velocity": 88}, {"time": 578, "pitch": 40, "duration": 20, "velocity": 86}, {"time": 582, "pitch": 47, "duration": 17, "velocity": 63}, {"time": 586, "pitch": 52, "duration": 12, "velocity": 74}, {"time": 590, "pitch": 64, "duration": 12, "velocity": 75}, {"time": 594, "pitch": 56, "duration": 8, "velocity": 92}, {"time": 598, "pitch": 59, "duration": 4, "velocity": 68}, {"time": 602, "pitch": 45, "duration": 13, "velocity": 96}, {"time": 606, "pitch": 57, "duration": 9, "velocity": 81}, {"time": 610, "pitch": 61, "duration": 5, "velocity": 122}, {"time": 614, "pitch": 64, "duration": 12, "velocity": 102}, {"time": 618, "pitch": 61, "duration": 8, "velocity": 112}, {"time": 622, "pitch": 57, "duration": 5, "velocity": 99}, {"time": 626, "pitch": 37, "duration": 18, "velocity": 97}, {"time": 630, "pitch": 44, "duration": 14, "velocity": 36}, {"time": 634, "pitch": 49, "duration": 7, "velocity": 90}, {"time": 638, "pitch": 61, "duration": 12, "velocity": 117}, {"time": 642, "pitch": 49, "duration": 3, "velocity": 89}, {"time": 646, "pitch": 56, "duration": 4, "velocity": 107}, {"time": 650, "pitch": 38, "duration": 20, "velocity": 75}, {"time": 654, "pitch": 45, "duration": 20, "velocity": 72}, {"time": 658, "pitch": 50, "duration": 7, "velocity": 93}, {"time": 662, "pitch": 66, "duration": 13, "velocity": 117}, {"time": 666, "pitch": 50, "duration": 3, "velocity": 78}, {"time": 670, "pitch": 62, "duration": 5, "velocity": 78}, {"time": 674, "pitch": 40, "duration": 20, "velocity": 65}, {"time": 678, "pitch": 47, "duration": 11, "velocity": 68}, {"time": 682, "pitch": 56, "duration": 4, "velocity": 93}, {"time": 686, "pitch": 59, "duration": 11, "velocity": 99}, {"time": 690, "pitch": 47, "duration": 4, "velocity": 96}, {"time": 694, "pitch": 56, "duration": 3, "velocity": 117}, {"time": 698, "pitch": 45, "duration": 12, "velocity": 117}, {"time": 702, "pitch": 57, "duration": 7, "velocity": 102}, {"time": 706, "pitch": 64, "duration": 6, "velocity": 112}, {"time": 710, "pitch": 44, "duration": 1, "velocity": 26}, {"time": 710, "pitch": 44, "duration": 1, "velocity": 112}, {"time": 714, "pitch": 56, "duration": 8, "velocity": 88}, {"time": 718, "pitch": 64, "duration": 4, "velocity": 99}, {"time": 722, "pitch": 42, "duration": 14, "velocity": 100}, {"time": 726, "pitch": 54, "duration": 9, "velocity": 60}, {"time": 730, "pitch": 57, "duration": 8, "velocity": 83}, {"time": 734, "pitch": 66, "duration": 13, "velocity": 117}, {"time": 738, "pitch": 61, "duration": 9, "velocity": 97}, {"time": 742, "pitch": 57, "duration": 5, "velocity": 81}, {"time": 746, "pitch": 47, "duration": 16, "velocity": 83}, {"time": 750, "pitch": 54, "duration": 11, "velocity": 86}, {"time": 754, "pitch": 59, "duration": 4, "velocity": 70}, {"time": 758, "pitch": 62, "duration": 5, "velocity": 99}, {"time": 762, "pitch": 59, "duration": 9, "velocity": 97}, {"time": 766, "pitch": 62, "duration": 4, "velocity": 99}, {"time": 770, "pitch": 40, "duration": 18, "velocity": 76}, {"time": 774, "pitch": 47, "duration": 14, "velocity": 77}, {"time": 778, "pitch": 56, "duration": 6, "velocity": 93}, {"time": 782, "pitch": 64, "duration": 12, "velocity": 79}, {"time": 786, "pitch": 56, "duration": 7, "velocity": 100}, {"time": 790, "pitch": 59, "duration": 4, "velocity": 70}, {"time": 794, "pitch": 38, "duration": 16, "velocity": 89}, {"time": 798, "pitch": 45, "duration": 12, "velocity": 76}, {"time": 802, "pitch": 50, "duration": 6, "velocity": 93}, {"time": 806, "pitch": 66, "duration": 12, "velocity": 127}, {"time": 810, "pitch": 62, "duration": 8, "velocity": 83}, {"time": 814, "pitch": 57, "duration": 4, "velocity": 95}, {"time": 818, "pitch": 37, "duration": 23, "velocity": 96}, {"time": 822, "pitch": 44, "duration": 20, "velocity": 58}, {"time": 826, "pitch": 49, "duration": 6, "velocity": 95}, {"time": 830, "pitch": 56, "duration": 9, "velocity": 127}, {"time": 834, "pitch": 49, "duration": 7, "velocity": 93}, {"time": 838, "pitch": 53, "duration": 4, "velocity": 90}, {"time": 842, "pitch": 37, "duration": 14, "velocity": 66}, {"time": 842, "pitch": 44, "duration": 13, "velocity": 69}, {"time": 842, "pitch": 49, "duration": 13, "velocity": 68}, {"time": 842, "pitch": 56, "duration": 14, "velocity": 76}, {"time": 842, "pitch": 61, "duration": 13, "velocity": 72}, {"time": 842, "pitch": 65, "duration": 13, "velocity": 75}, {"time": 866, "pitch": 42, "duration": 17, "velocity": 96}, {"time": 868, "pitch": 49, "duration": 14, "velocity": 70}, {"time": 870, "pitch": 54, "duration": 11, "velocity": 100}, {"time": 872, "pitch": 57, "duration": 4, "velocity": 89}, {"time": 874, "pitch": 61, "duration": 3, "velocity": 112}, {"time": 876, "pitch": 66, "duration": 3, "velocity": 117}, {"time": 878, "pitch": 61, "duration": 2, "velocity": 127}, {"time": 880, "pitch": 57, "duration": 4, "velocity": 97}, {"time": 882, "pitch": 61, "duration": 2, "velocity": 122}, {"time": 884, "pitch": 66, "duration": 4, "velocity": 122}, {"time": 886, "pitch": 61, "duration": 2, "velocity": 127}, {"time": 888, "pitch": 57, "duration": 3, "velocity": 99}, {"time": 890, "pitch": 37, "duration": 18, "velocity": 89}, {"time": 892, "pitch": 44, "duration": 15, "velocity": 88}, {"time": 894, "pitch": 49, "duration": 12, "velocity": 102}, {"time": 896, "pitch": 52, "duration": 5, "velocity": 90}, {"time": 898, "pitch": 56, "duration": 3, "velocity": 122}, {"time": 900, "pitch": 61, "duration": 3, "velocity": 107}, {"time": 902, "pitch": 56, "duration": 2, "velocity": 127}, {"time": 904, "pitch": 52, "duration": 3, "velocity": 95}, {"time": 906, "pitch": 56, "duration": 2, "velocity": 102}, {"time": 908, "pitch": 61, "duration": 6, "velocity": 112}, {"time": 910, "pitch": 56, "duration": 3, "velocity": 99}, {"time": 912, "pitch": 52, "duration": 2, "velocity": 99}, {"time": 914, "pitch": 38, "duration": 11, "velocity": 78}, {"time": 916, "pitch": 45, "duration": 10, "velocity": 99}, {"time": 918, "pitch": 50, "duration": 4, "velocity": 100}, {"time": 920, "pitch": 57, "duration": 3, "velocity": 89}, {"time": 922, "pitch": 62, "duration": 2, "velocity": 92}, {"time": 924, "pitch": 66, "duration": 2, "velocity": 112}, {"time": 926, "pitch": 40, "duration": 7, "velocity": 90}, {"time": 928, "pitch": 47, "duration": 6, "velocity": 99}, {"time": 930, "pitch": 52, "duration": 5, "velocity": 102}, {"time": 932, "pitch": 59, "duration": 3, "velocity": 95}, {"time": 934, "pitch": 68, "duration": 3, "velocity": 112}, {"time": 936, "pitch": 64, "duration": 2, "velocity": 97}, {"time": 938, "pitch": 45, "duration": 18, "velocity": 76}, {"time": 940, "pitch": 52, "duration": 10, "velocity": 95}, {"time": 942, "pitch": 57, "duration": 3, "velocity": 86}, {"time": 944, "pitch": 61, "duration": 2, "velocity": 122}, {"time": 946, "pitch": 64, "duration": 4, "velocity": 97}, {"time": 948, "pitch": 61, "duration": 2, "velocity": 127}, {"time": 950, "pitch": 57, "duration": 4, "velocity": 117}, {"time": 952, "pitch": 52, "duration": 5, "velocity": 107}, {"time": 954, "pitch": 64, "duration": 3, "velocity": 100}, {"time": 956, "pitch": 61, "duration": 2, "velocity": 112}, {"time": 958, "pitch": 57, "duration": 4, "velocity": 100}, {"time": 960, "pitch": 61, "duration": 2, "velocity": 127}, {"time": 962, "pitch": 47, "duration": 23, "velocity": 77}, {"time": 964, "pitch": 54, "duration": 23, "velocity": 102}, {"time": 966, "pitch": 59, "duration": 3, "velocity": 97}, {"time": 968, "pitch": 62, "duration": 3, "velocity": 95}, {"time": 970, "pitch": 59, "duration": 3, "velocity": 95}, {"time": 972, "pitch": 62, "duration": 2, "velocity": 93}, {"time": 974, "pitch": 66, "duration": 3, "velocity": 127}, {"time": 976, "pitch": 62, "duration": 2, "velocity": 97}, {"time": 978, "pitch": 59, "duration": 4, "velocity": 92}, {"time": 980, "pitch": 61, "duration": 3, "velocity": 100}, {"time": 982, "pitch": 62, "duration": 3, "velocity": 86}, {"time": 982, "pitch": 66, "duration": 1, "velocity": 35}, {"time": 984, "pitch": 59, "duration": 2, "velocity": 93}, {"time": 986, "pitch": 47, "duration": 17, "velocity": 89}, {"time": 988, "pitch": 54, "duration": 13, "velocity": 107}, {"time": 990, "pitch": 59, "duration": 2, "velocity": 93}, {"time": 992, "pitch": 62, "duration": 2, "velocity": 96}, {"time": 994, "pitch": 59, "duration": 3, "velocity": 95}, {"time": 996, "pitch": 62, "duration": 2, "velocity": 96}, {"time": 998, "pitch": 66, "duration": 3, "velocity": 127}, {"time": 1000, "pitch": 62, "duration": 2, "velocity": 86}, {"time": 1002, "pitch": 59, "duration": 3, "velocity": 99}, {"time": 1004, "pitch": 62, "duration": 2, "velocity": 99}, {"time": 1006, "pitch": 59, "duration": 3, "velocity": 97}, {"time": 1008, "pitch": 66, "duration": 3, "velocity": 112}, {"time": 1010, "pitch": 38, "duration": 23, "velocity": 93}, {"time": 1012, "pitch": 45, "duration": 22, "velocity": 95}, {"time": 1014, "pitch": 50, "duration": 10, "velocity": 92}, {"time": 1016, "pitch": 57, "duration": 2, "velocity": 96}, {"time": 1018, "pitch": 62, "duration": 2, "velocity": 99}, {"time": 1020, "pitch": 57, "duration": 2, "velocity": 100}, {"time": 1022, "pitch": 66, "duration": 2, "velocity": 127}, {"time": 1024, "pitch": 57, "duration": 2, "velocity": 64}, {"time": 1026, "pitch": 62, "duration": 2, "velocity": 95}, {"time": 1028, "pitch": 57, "duration": 3, "velocity": 96}, {"time": 1030, "pitch": 66, "duration": 3, "velocity": 122}, {"time": 1032, "pitch": 57, "duration": 2, "velocity": 112}, {"time": 1034, "pitch": 40, "duration": 24, "velocity": 88}, {"time": 1036, "pitch": 47, "duration": 21, "velocity": 99}, {"time": 1038, "pitch": 52, "duration": 17, "velocity": 95}, {"time": 1040, "pitch": 59, "duration": 3, "velocity": 97}, {"time": 1042, "pitch": 64, "duration": 2, "velocity": 90}, {"time": 1044, "pitch": 59, "duration": 2, "velocity": 112}, {"time": 1046, "pitch": 64, "duration": 2, "velocity": 95}, {"time": 1046, "pitch": 68, "duration": 2, "velocity": 122}, {"time": 1048, "pitch": 59, "duration": 3, "velocity": 96}, {"time": 1050, "pitch": 64, "duration": 3, "velocity": 85}, {"time": 1050, "pitch": 68, "duration": 3, "velocity": 100}, {"time": 1052, "pitch": 59, "duration": 3, "velocity": 90}, {"time": 1054, "pitch": 64, "duration": 3, "velocity": 88}, {"time": 1054, "pitch": 68, "duration": 4, "velocity": 97}, {"time": 1056, "pitch": 59, "duration": 2, "velocity": 102}, {"time": 1058, "pitch": 42, "duration": 17, "velocity": 96}, {"time": 1060, "pitch": 49, "duration": 14, "velocity": 70}, {"time": 1062, "pitch": 54, "duration": 11, "velocity": 100}, {"time": 1064, "pitch": 57, "duration": 4, "velocity": 89}, {"time": 1066, "pitch": 61, "duration": 3, "velocity": 112}, {"time": 1068, "pitch": 66, "duration": 3, "velocity": 117}, {"time": 1070, "pitch": 61, "duration": 2, "velocity": 127}, {"time": 1072, "pitch": 57, "duration": 4, "velocity": 97}, {"time": 1074, "pitch": 61, "duration": 2, "velocity": 122}, {"time": 1076, "pitch": 66, "duration": 4, "velocity": 122}, {"time": 1078, "pitch": 61, "duration": 2, "velocity": 127}, {"time": 1080, "pitch": 57, "duration": 3, "velocity": 99}, {"time": 1082, "pitch": 37, "duration": 18, "velocity": 89}, {"time": 1084, "pitch": 44, "duration": 15, "velocity": 88}, {"time": 1086, "pitch": 49, "duration": 12, "velocity": 102}, {"time": 1088, "pitch": 52, "duration": 5, "velocity": 90}, {"time": 1090, "pitch": 56, "duration": 3, "velocity": 122}, {"time": 1092, "pitch": 61, "duration": 3, "velocity": 107}, {"time": 1094, "pitch": 56, "duration": 2, "velocity": 127}, {"time": 1096, "pitch": 52, "duration": 3, "velocity": 95}, {"time": 1098, "pitch": 56, "duration": 2, "velocity": 102}, {"time": 1100, "pitch": 61, "duration": 6, "velocity": 112}, {"time": 1102, "pitch": 56, "duration": 3, "velocity": 99}, {"time": 1104, "pitch": 52, "duration": 2, "velocity": 99}, {"time": 1106, "pitch": 38, "duration": 11, "velocity": 78}, {"time": 1108, "pitch": 45, "duration": 10, "velocity": 99}, {"time": 1110, "pitch": 50, "duration": 4, "velocity": 100}, {"time": 1112, "pitch": 57, "duration": 3, "velocity": 89}, {"time": 1114, "pitch": 62, "duration": 2, "velocity": 92}, {"time": 1116, "pitch": 66, "duration": 2, "velocity": 112}, {"time": 1118, "pitch": 40, "duration": 7, "velocity": 90}, {"time": 1120, "pitch": 47, "duration": 6, "velocity": 99}, {"time": 1122, "pitch": 52, "duration": 5, "velocity": 102}, {"time": 1124, "pitch": 59, "duration": 3, "velocity": 95}, {"time": 1126, "pitch": 68, "duration": 3, "velocity": 112}, {"time": 1128, "pitch": 64, "duration": 2, "velocity": 97}, {"time": 1130, "pitch": 45, "duration": 18, "velocity": 76}, {"time": 1132, "pitch": 52, "duration": 10, "velocity": 95}, {"time": 1134, "pitch": 57, "duration": 3, "velocity": 86}, {"time": 1136, "pitch": 61, "duration": 2, "velocity": 122}, {"time": 1138, "pitch": 64, "duration": 4, "velocity": 97}, {"time": 1140, "pitch": 61, "duration": 2, "velocity": 127}, {"time": 1142, "pitch": 57, "duration": 4, "velocity": 117}, {"time": 1144, "pitch": 52, "duration": 5, "velocity": 107}, {"time": 1146, "pitch": 64, "duration": 3, "velocity": 100}, {"time": 1148, "pitch": 61, "duration": 2, "velocity": 112}, {"time": 1150, "pitch": 57, "duration": 4, "velocity": 100}, {"time": 1152, "pitch": 61, "duration": 2, "velocity": 127}, {"time": 1154, "pitch": 47, "duration": 23, "velocity": 77}, {"time": 1156, "pitch": 54, "duration": 23, "velocity": 102}, {"time": 1158, "pitch": 59, "duration": 3, "velocity": 97}, {"time": 1160, "pitch": 62, "duration": 3, "velocity": 95}, {"time": 1162, "pitch": 59, "duration": 3, "velocity": 95}, {"time": 1164, "pitch": 62, "duration": 2, "velocity": 93}, {"time": 1166, "pitch": 66, "duration": 3, "velocity": 127}, {"time": 1168, "pitch": 62, "duration": 2, "velocity": 97}, {"time": 1170, "pitch": 59, "duration": 4, "velocity": 92}, {"time": 1172, "pitch": 61, "duration": 3, "velocity": 100}, {"time": 1174, "pitch": 62, "duration": 3, "velocity": 86}, {"time": 1174, "pitch": 66, "duration": 1, "velocity": 35}, {"time": 1176, "pitch": 59, "duration": 2, "velocity": 93}, {"time": 1178, "pitch": 47, "duration": 17, "velocity": 89}, {"time": 1180, "pitch": 54, "duration": 13, "velocity": 107}, {"time": 1182, "pitch": 59, "duration": 2, "velocity": 93}, {"time": 1184, "pitch": 62, "duration": 2, "velocity": 96}, {"time": 1186, "pitch": 59, "duration": 3, "velocity": 95}, {"time": 1188, "pitch": 62, "duration": 2, "velocity": 96}, {"time": 1190, "pitch": 66, "duration": 3, "velocity": 127}, {"time": 1192, "pitch": 62, "duration": 2, "velocity": 86}, {"time": 1194, "pitch": 59, "duration": 3, "velocity": 99}, {"time": 1196, "pitch": 62, "duration": 2, "velocity": 99}, {"time": 1198, "pitch": 59, "duration": 3, "velocity": 97}, {"time": 1200, "pitch": 66, "duration": 2, "velocity": 112}, {"time": 1202, "pitch": 37, "duration": 23, "velocity": 96}, {"time": 1204, "pitch": 44, "duration": 22, "velocity": 73}, {"time": 1206, "pitch": 49, "duration": 19, "velocity": 96}, {"time": 1208, "pitch": 53, "duration": 3, "velocity": 81}, {"time": 1210, "pitch": 56, "duration": 2, "velocity": 102}, {"time": 1212, "pitch": 53, "duration": 2, "velocity": 86}, {"time": 1214, "pitch": 61, "duration": 3, "velocity": 127}, {"time": 1216, "pitch": 56, "duration": 2, "velocity": 90}, {"time": 1218, "pitch": 53, "duration": 3, "velocity": 78}, {"time": 1220, "pitch": 56, "duration": 2, "velocity": 122}, {"time": 1222, "pitch": 61, "duration": 3, "velocity": 117}, {"time": 1224, "pitch": 56, "duration": 2, "velocity": 127}, {"time": 1226, "pitch": 37, "duration": 5, "velocity": 90}, {"time": 1226, "pitch": 44, "duration": 5, "velocity": 89}, {"time": 1226, "pitch": 49, "duration": 4, "velocity": 100}, {"time": 1226, "pitch": 53, "duration": 5, "velocity": 97}, {"time": 1226, "pitch": 56, "duration": 5, "velocity": 117}, {"time": 1226, "pitch": 61, "duration": 5, "velocity": 102}, {"time": 1250, "pitch": 42, "duration": 23, "velocity": 95}, {"time": 1254, "pitch": 54, "duration": 10, "velocity": 86}, {"time": 1258, "pitch": 57, "duration": 6, "velocity": 71}, {"time": 1262, "pitch": 66, "duration": 20, "velocity": 127}, {"time": 1266, "pitch": 54, "duration": 10, "velocity": 83}, {"time": 1270, "pitch": 61, "duration": 13, "velocity": 99}, {"time": 1274, "pitch": 42, "duration": 23, "velocity": 75}, {"time": 1278, "pitch": 54, "duration": 20, "velocity": 97}, {"time": 1282, "pitch": 57, "duration": 6, "velocity": 65}, {"time": 1286, "pitch": 66, "duration": 12, "velocity": 117}, {"time": 1290, "pitch": 61, "duration": 8, "velocity": 88}, {"time": 1294, "pitch": 57, "duration": 4, "velocity": 75}, {"time": 1298, "pitch": 38, "duration": 22, "velocity": 68}, {"time": 1298, "pitch": 57, "duration": 2, "velocity": 66}, {"time": 1298, "pitch": 61, "duration": 10, "velocity": 95}, {"time": 1298, "pitch": 62, "duration": 10, "velocity": 82}, {"time": 1298, "pitch": 66, "duration": 14, "velocity": 85}, {"time": 1302, "pitch": 45, "duration": 21, "velocity": 54}, {"time": 1306, "pitch": 50, "duration": 8, "velocity": 73}, {"time": 1310, "pitch": 62, "duration": 12, "velocity": 85}, {"time": 1314, "pitch": 61, "duration": 8, "velocity": 53}, {"time": 1316, "pitch": 66, "duration": 6, "velocity": 7}, {"time": 1318, "pitch": 57, "duration": 5, "velocity": 58}, {"time": 1322, "pitch": 40, "duration": 14, "velocity": 76}, {"time": 1326, "pitch": 47, "duration": 10, "velocity": 53}, {"time": 1330, "pitch": 52, "duration": 4, "velocity": 75}, {"time": 1334, "pitch": 68, "duration": 12, "velocity": 99}, {"time": 1338, "pitch": 64, "duration": 8, "velocity": 66}, {"time": 1342, "pitch": 59, "duration": 5, "velocity": 83}, {"time": 1346, "pitch": 37, "duration": 18, "velocity": 83}, {"time": 1350, "pitch": 44, "duration": 14, "velocity": 37}, {"time": 1354, "pitch": 49, "duration": 11, "velocity": 78}, {"time": 1358, "pitch": 61, "duration": 13, "velocity": 107}, {"time": 1362, "pitch": 56, "duration": 8, "velocity": 90}, {"time": 1366, "pitch": 52, "duration": 4, "velocity": 85}, {"time": 1370, "pitch": 42, "duration": 15, "velocity": 95}, {"time": 1374, "pitch": 49, "duration": 11, "velocity": 72}, {"time": 1378, "pitch": 54, "duration": 7, "velocity": 73}, {"time": 1382, "pitch": 66, "duration": 12, "velocity": 127}, {"time": 1386, "pitch": 61, "duration": 8, "velocity": 97}, {"time": 1390, "pitch": 57, "duration": 5, "velocity": 75}, {"time": 1394, "pitch": 47, "duration": 13, "velocity": 69}, {"time": 1398, "pitch": 54, "duration": 8, "velocity": 72}, {"time": 1402, "pitch": 59, "duration": 7, "velocity": 78}, {"time": 1406, "pitch": 66, "duration": 10, "velocity": 122}, {"time": 1410, "pitch": 62, "duration": 9, "velocity": 76}, {"time": 1414, "pitch": 59, "duration": 18, "velocity": 83}, {"time": 1418, "pitch": 40, "duration": 16, "velocity": 81}, {"time": 1422, "pitch": 47, "duration": 12, "velocity": 55}, {"time": 1426, "pitch": 52, "duration": 5, "velocity": 75}, {"time": 1430, "pitch": 68, "duration": 12, "velocity": 127}, {"time": 1434, "pitch": 64, "duration": 8, "velocity": 92}, {"time": 1438, "pitch": 59, "duration": 5, "velocity": 90}, {"time": 1442, "pitch": 38, "duration": 16, "velocity": 81}, {"time": 1446, "pitch": 45, "duration": 13, "velocity": 67}, {"time": 1450, "pitch": 50, "duration": 8, "velocity": 86}, {"time": 1454, "pitch": 62, "duration": 7, "velocity": 112}, {"time": 1458, "pitch": 57, "duration": 9, "velocity": 92}, {"time": 1462, "pitch": 66, "duration": 5, "velocity": 127}, {"time": 1466, "pitch": 37, "duration": 18, "velocity": 93}, {"time": 1470, "pitch": 44, "duration": 14, "velocity": 37}, {"time": 1474, "pitch": 49, "duration": 6, "velocity": 92}, {"time": 1478, "pitch": 56, "duration": 9, "velocity": 127}, {"time": 1478, "pitch": 61, "duration": 11, "velocity": 122}, {"time": 1482, "pitch": 49, "duration": 4, "velocity": 127}, {"time": 1486, "pitch": 53, "duration": 4, "velocity": 117}, {"time": 1490, "pitch": 42, "duration": 19, "velocity": 102}, {"time": 1494, "pitch": 49, "duration": 15, "velocity": 37}, {"time": 1496, "pitch": 54, "duration": 8, "velocity": 112}, {"time": 1498, "pitch": 57, "duration": 4, "velocity": 95}, {"time": 1500, "pitch": 61, "duration": 2, "velocity": 117}, {"time": 1502, "pitch": 57, "duration": 2, "velocity": 35}, {"time": 1502, "pitch": 66, "duration": 11, "velocity": 122}, {"time": 1504, "pitch": 54, "duration": 3, "velocity": 27}, {"time": 1506, "pitch": 61, "duration": 5, "velocity": 127}, {"time": 1510, "pitch": 57, "duration": 4, "velocity": 96}, {"time": 1512, "pitch": 61, "duration": 3, "velocity": 127}, {"time": 1514, "pitch": 45, "duration": 24, "velocity": 86}, {"time": 1518, "pitch": 52, "duration": 21, "velocity": 74}, {"time": 1520, "pitch": 57, "duration": 3, "velocity": 88}, {"time": 1522, "pitch": 61, "duration": 3, "velocity": 100}, {"time": 1524, "pitch": 57, "duration": 3, "velocity": 89}, {"time": 1526, "pitch": 64, "duration": 3, "velocity": 107}, {"time": 1528, "pitch": 61, "duration": 2, "velocity": 97}, {"time": 1530, "pitch": 57, "duration": 4, "velocity": 72}, {"time": 1532, "pitch": 61, "duration": 2, "velocity": 100}, {"time": 1534, "pitch": 64, "duration": 5, "velocity": 93}, {"time": 1536, "pitch": 57, "duration": 2, "velocity": 89}, {"time": 1536, "pitch": 61, "duration": 2, "velocity": 107}, {"time": 1538, "pitch": 47, "duration": 20, "velocity": 93}, {"time": 1542, "pitch": 54, "duration": 15, "velocity": 88}, {"time": 1544, "pitch": 59, "duration": 3, "velocity": 85}, {"time": 1546, "pitch": 63, "duration": 2, "velocity": 117}, {"time": 1548, "pitch": 59, "duration": 2, "velocity": 92}, {"time": 1550, "pitch": 66, "duration": 3, "velocity": 127}, {"time": 1552, "pitch": 59, "duration": 4, "velocity": 85}, {"time": 1554, "pitch": 63, "duration": 2, "velocity": 127}, {"time": 1556, "pitch": 66, "duration": 4, "velocity": 122}, {"time": 1558, "pitch": 63, "duration": 2, "velocity": 122}, {"time": 1560, "pitch": 59, "duration": 2, "velocity": 102}, {"time": 1562, "pitch": 38, "duration": 6, "velocity": 86}, {"time": 1562, "pitch": 57, "duration": 3, "velocity": 89}, {"time": 1562, "pitch": 62, "duration": 3, "velocity": 93}, {"time": 1562, "pitch": 66, "duration": 3, "velocity": 92}, {"time": 1566, "pitch": 50, "duration": 2, "velocity": 71}, {"time": 1566, "pitch": 57, "duration": 3, "velocity": 74}, {"time": 1566, "pitch": 62, "duration": 3, "velocity": 88}, {"time": 1566, "pitch": 66, "duration": 3, "velocity": 86}, {"time": 1570, "pitch": 38, "duration": 2, "velocity": 58}, {"time": 1570, "pitch": 50, "duration": 2, "velocity": 74}, {"time": 1570, "pitch": 57, "duration": 3, "velocity": 76}, {"time": 1570, "pitch": 62, "duration": 2, "velocity": 78}, {"time": 1570, "pitch": 66, "duration": 3, "velocity": 77}, {"time": 1574, "pitch": 38, "duration": 2, "velocity": 71}, {"time": 1574, "pitch": 50, "duration": 3, "velocity": 86}, {"time": 1574, "pitch": 57, "duration": 3, "velocity": 92}, {"time": 1574, "pitch": 62, "duration": 3, "velocity": 100}, {"time": 1574, "pitch": 66, "duration": 3, "velocity": 99}, {"time": 1578, "pitch": 38, "duration": 3, "velocity": 71}, {"time": 1578, "pitch": 50, "duration": 2, "velocity": 92}, {"time": 1578, "pitch": 57, "duration": 3, "velocity": 89}, {"time": 1578, "pitch": 62, "duration": 2, "velocity": 96}, {"time": 1578, "pitch": 66, "duration": 3, "velocity": 100}, {"time": 1582, "pitch": 38, "duration": 2, "velocity": 71}, {"time": 1582, "pitch": 50, "duration": 2, "velocity": 99}, {"time": 1582, "pitch": 57, "duration": 2, "velocity": 93}, {"time": 1582, "pitch": 62, "duration": 2, "velocity": 100}, {"time": 1582, "pitch": 66, "duration": 3, "velocity": 96}, {"time": 1586, "pitch": 42, "duration": 16, "velocity": 100}, {"time": 1588, "pitch": 49, "duration": 13, "velocity": 65}, {"time": 1590, "pitch": 54, "duration": 11, "velocity": 79}, {"time": 1592, "pitch": 57, "duration": 2, "velocity": 86}, {"time": 1594, "pitch": 61, "duration": 2, "velocity": 97}, {"time": 1596, "pitch": 57, "duration": 3, "velocity": 86}, {"time": 1598, "pitch": 66, "duration": 3, "velocity": 127}, {"time": 1600, "pitch": 61, "duration": 2, "velocity": 102}, {"time": 1602, "pitch": 57, "duration": 4, "velocity": 102}, {"time": 1604, "pitch": 61, "duration": 2, "velocity": 117}, {"time": 1606, "pitch": 66, "duration": 3, "velocity": 102}, {"time": 1608, "pitch": 61, "duration": 2, "velocity": 127}, {"time": 1610, "pitch": 45, "duration": 17, "velocity": 88}, {"time": 1612, "pitch": 52, "duration": 17, "velocity": 97}, {"time": 1614, "pitch": 57, "duration": 3, "velocity": 100}, {"time": 1616, "pitch": 61, "duration": 2, "velocity": 102}, {"time": 1618, "pitch": 57, "duration": 4, "velocity": 102}, {"time": 1620, "pitch": 61, "duration": 2, "velocity": 127}, {"time": 1622, "pitch": 64, "duration": 3, "velocity": 117}, {"time": 1624, "pitch": 61, "duration": 2, "velocity": 100}, {"time": 1626, "pitch": 57, "duration": 3, "velocity": 97}, {"time": 1628, "pitch": 61, "duration": 3, "velocity": 122}, {"time": 1630, "pitch": 64, "duration": 4, "velocity": 96}, {"time": 1632, "pitch": 61, "duration": 2, "velocity": 117}, {"time": 1634, "pitch": 47, "duration": 21, "velocity": 86}, {"time": 1636, "pitch": 54, "duration": 15, "velocity": 100}, {"time": 1638, "pitch": 59, "duration": 3, "velocity": 95}, {"time": 1640, "pitch": 63, "duration": 2, "velocity": 112}, {"time": 1642, "pitch": 59, "duration": 3, "velocity": 99}, {"time": 1644, "pitch": 63, "duration": 2, "velocity": 122}, {"time": 1646, "pitch": 66, "duration": 3, "velocity": 122}, {"time": 1648, "pitch": 63, "duration": 2, "velocity": 107}, {"time": 1650, "pitch": 59, "duration": 3, "velocity": 100}, {"time": 1652, "pitch": 63, "duration": 2, "velocity": 127}, {"time": 1654, "pitch": 66, "duration": 3, "velocity": 117}, {"time": 1656, "pitch": 59, "duration": 2, "velocity": 69}, {"time": 1656, "pitch": 63, "duration": 2, "velocity": 117}, {"time": 1658, "pitch": 37, "duration": 3, "velocity": 83}, {"time": 1658, "pitch": 49, "duration": 2, "velocity": 96}, {"time": 1658, "pitch": 56, "duration": 3, "velocity": 96}, {"time": 1658, "pitch": 61, "duration": 3, "velocity": 62}, {"time": 1658, "pitch": 65, "duration": 3, "velocity": 70}, {"time": 1662, "pitch": 37, "duration": 3, "velocity": 81}, {"time": 1662, "pitch": 49, "duration": 3, "velocity": 95}, {"time": 1662, "pitch": 56, "duration": 3, "velocity": 96}, {"time": 1662, "pitch": 61, "duration": 3, "velocity": 86}, {"time": 1662, "pitch": 65, "duration": 3, "velocity": 66}, {"time": 1666, "pitch": 37, "duration": 3, "velocity": 77}, {"time": 1666, "pitch": 49, "duration": 3, "velocity": 83}, {"time": 1666, "pitch": 56, "duration": 3, "velocity": 97}, {"time": 1666, "pitch": 61, "duration": 3, "velocity": 83}, {"time": 1666, "pitch": 65, "duration": 2, "velocity": 79}, {"time": 1670, "pitch": 37, "duration": 4, "velocity": 78}, {"time": 1670, "pitch": 49, "duration": 3, "velocity": 90}, {"time": 1670, "pitch": 56, "duration": 3, "velocity": 100}, {"time": 1670, "pitch": 61, "duration": 3, "velocity": 96}, {"time": 1670, "pitch": 65, "duration": 3, "velocity": 77}, {"time": 1682, "pitch": 47, "duration": 18, "velocity": 69}, {"time": 1686, "pitch": 54, "duration": 12, "velocity": 99}, {"time": 1690, "pitch": 59, "duration": 14, "velocity": 83}, {"time": 1694, "pitch": 66, "duration": 10, "velocity": 112}, {"time": 1698, "pitch": 54, "duration": 2, "velocity": 61}, {"time": 1702, "pitch": 62, "duration": 5, "velocity": 93}, {"time": 1706, "pitch": 40, "duration": 15, "velocity": 81}, {"time": 1710, "pitch": 47, "duration": 12, "velocity": 55}, {"time": 1714, "pitch": 52, "duration": 6, "velocity": 66}, {"time": 1718, "pitch": 68, "duration": 11, "velocity": 102}, {"time": 1722, "pitch": 64, "duration": 7, "velocity": 66}, {"time": 1726, "pitch": 59, "duration": 4, "velocity": 71}, {"time": 1730, "pitch": 49, "duration": 14, "velocity": 73}, {"time": 1734, "pitch": 56, "duration": 10, "velocity": 72}, {"time": 1738, "pitch": 61, "duration": 5, "velocity": 54}, {"time": 1742, "pitch": 64, "duration": 12, "velocity": 81}, {"time": 1746, "pitch": 56, "duration": 8, "velocity": 67}, {"time": 1750, "pitch": 61, "duration": 5, "velocity": 66}, {"time": 1754, "pitch": 42, "duration": 18, "velocity": 76}, {"time": 1758, "pitch": 49, "duration": 14, "velocity": 52}, {"time": 1762, "pitch": 54, "duration": 8, "velocity": 89}, {"time": 1766, "pitch": 66, "duration": 13, "velocity": 100}, {"time": 1770, "pitch": 61, "duration": 8, "velocity": 102}, {"time": 1774, "pitch": 57, "duration": 5, "velocity": 86}, {"time": 1778, "pitch": 47, "duration": 13, "velocity": 78}, {"time": 1782, "pitch": 54, "duration": 8, "velocity": 77}, {"time": 1786, "pitch": 59, "duration": 8, "velocity": 88}, {"time": 1790, "pitch": 66, "duration": 8, "velocity": 117}, {"time": 1794, "pitch": 62, "duration": 9, "velocity": 77}, {"time": 1798, "pitch": 59, "duration": 6, "velocity": 88}, {"time": 1802, "pitch": 40, "duration": 20, "velocity": 86}, {"time": 1806, "pitch": 47, "duration": 17, "velocity": 63}, {"time": 1810, "pitch": 52, "duration": 12, "velocity": 74}, {"time": 1814, "pitch": 64, "duration": 12, "velocity": 75}, {"time": 1818, "pitch": 56, "duration": 8, "velocity": 92}, {"time": 1822, "pitch": 59, "duration": 4, "velocity": 68}, {"time": 1826, "pitch": 45, "duration": 13, "velocity": 96}, {"time": 1830, "pitch": 57, "duration": 9, "velocity": 81}, {"time": 1834, "pitch": 61, "duration": 5, "velocity": 122}, {"time": 1838, "pitch": 64, "duration": 12, "velocity": 102}, {"time": 1842, "pitch": 61, "duration": 8, "velocity": 112}, {"time": 1846, "pitch": 57, "duration": 5, "velocity": 99}, {"time": 1850, "pitch": 37, "duration": 18, "velocity": 97}, {"time": 1854, "pitch": 44, "duration": 14, "velocity": 36}, {"time": 1858, "pitch": 49, "duration": 7, "velocity": 90}, {"time": 1862, "pitch": 61, "duration": 12, "velocity": 117}, {"time": 1866, "pitch": 49, "duration": 3, "velocity": 89}, {"time": 1870, "pitch": 56, "duration": 4, "velocity": 107}, {"time": 1874, "pitch": 38, "duration": 20, "velocity": 75}, {"time": 1878, "pitch": 45, "duration": 20, "velocity": 72}, {"time": 1882, "pitch": 50, "duration": 7, "velocity": 93}, {"time": 1886, "pitch": 66, "duration": 13, "velocity": 117}, {"time": 1890, "pitch": 50, "duration": 3, "velocity": 78}, {"time": 1894, "pitch": 62, "duration": 5, "velocity": 78}, {"time": 1898, "pitch": 40, "duration": 20, "velocity": 65}, {"time": 1902, "pitch": 47, "duration": 11, "velocity": 68}, {"time": 1906, "pitch": 56, "duration": 4, "velocity": 93}, {"time": 1910, "pitch": 59, "duration": 11, "velocity": 99}, {"time": 1914, "pitch": 47, "duration": 4, "velocity": 96}, {"time": 1918, "pitch": 56, "duration": 3, "velocity": 117}, {"time": 1922, "pitch": 45, "duration": 12, "velocity": 117}, {"time": 1926, "pitch": 57, "duration": 7, "velocity": 102}, {"time": 1930, "pitch": 64, "duration": 6, "velocity": 112}, {"time": 1934, "pitch": 44, "duration": 1, "velocity": 26}, {"time": 1934, "pitch": 44, "duration": 1, "velocity": 112}, {"time": 1938, "pitch": 56, "duration": 8, "velocity": 88}, {"time": 1942, "pitch": 64, "duration": 4, "velocity": 99}, {"time": 1946, "pitch": 42, "duration": 14, "velocity": 100}, {"time": 1950, "pitch": 54, "duration": 9, "velocity": 60}, {"time": 1954, "pitch": 57, "duration": 8, "velocity": 83}, {"time": 1958, "pitch": 66, "duration": 13, "velocity": 117}, {"time": 1962, "pitch": 61, "duration": 9, "velocity": 97}, {"time": 1966, "pitch": 57, "duration": 5, "velocity": 81}, {"time": 1970, "pitch": 47, "duration": 16, "velocity": 83}, {"time": 1974, "pitch": 54, "duration": 11, "velocity": 86}, {"time": 1978, "pitch": 59, "duration": 4, "velocity": 70}, {"time": 1982, "pitch": 62, "duration": 5, "velocity": 99}, {"time": 1986, "pitch": 59, "duration": 9, "velocity": 97}, {"time": 1990, "pitch": 62, "duration": 4, "velocity": 99}, {"time": 1994, "pitch": 40, "duration": 18, "velocity": 76}, {"time": 1998, "pitch": 47, "duration": 14, "velocity": 77}, {"time": 2002, "pitch": 56, "duration": 6, "velocity": 93}, {"time": 2006, "pitch": 64, "duration": 12, "velocity": 79}, {"time": 2010, "pitch": 56, "duration": 7, "velocity": 100}, {"time": 2014, "pitch": 59, "duration": 4, "velocity": 70}, {"time": 2018, "pitch": 38, "duration": 16, "velocity": 89}, {"time": 2022, "pitch": 45, "duration": 12, "velocity": 76}, {"time": 2026, "pitch": 50, "duration": 6, "velocity": 93}, {"time": 2030, "pitch": 66, "duration": 12, "velocity": 127}, {"time": 2034, "pitch": 62, "duration": 8, "velocity": 83}, {"time": 2038, "pitch": 57, "duration": 4, "velocity": 95}, {"time": 2042, "pitch": 37, "duration": 23, "velocity": 96}, {"time": 2046, "pitch": 44, "duration": 20, "velocity": 58}, {"time": 2050, "pitch": 49, "duration": 6, "velocity": 95}, {"time": 2054, "pitch": 56, "duration": 9, "velocity": 127}, {"time": 2058, "pitch": 49, "duration": 7, "velocity": 93}, {"time": 2062, "pitch": 53, "duration": 4, "velocity": 90}, {"time": 2066, "pitch": 37, "duration": 14, "velocity": 66}, {"time": 2066, "pitch": 44, "duration": 13, "velocity": 69}, {"time": 2066, "pitch": 49, "duration": 13, "velocity": 68}, {"time": 2066, "pitch": 56, "duration": 14, "velocity": 76}, {"time": 2066, "pitch": 61, "duration": 13, "velocity": 72}, {"time": 2066, "pitch": 65, "duration": 13, "velocity": 75}, {"time": 2090, "pitch": 42, "duration": 17, "velocity": 96}, {"time": 2092, "pitch": 49, "duration": 14, "velocity": 70}, {"time": 2094, "pitch": 54, "duration": 11, "velocity": 100}, {"time": 2096, "pitch": 57, "duration": 4, "velocity": 89}, {"time": 2098, "pitch": 61, "duration": 3, "velocity": 112}, {"time": 2100, "pitch": 66, "duration": 3, "velocity": 117}, {"time": 2102, "pitch": 61, "duration": 2, "velocity": 127}, {"time": 2104, "pitch": 57, "duration": 4, "velocity": 97}, {"time": 2106, "pitch": 61, "duration": 2, "velocity": 122}, {"time": 2108, "pitch": 66, "duration": 4, "velocity": 122}, {"time": 2110, "pitch": 61, "duration": 2, "velocity": 127}, {"time": 2112, "pitch": 57, "duration": 3, "velocity": 99}, {"time": 2114, "pitch": 37, "duration": 18, "velocity": 89}, {"time": 2116, "pitch": 44, "duration": 15, "velocity": 88}, {"time": 2118, "pitch": 49, "duration": 12, "velocity": 102}, {"time": 2120, "pitch": 52, "duration": 5, "velocity": 90}, {"time": 2122, "pitch": 56, "duration": 3, "velocity": 122}, {"time": 2124, "pitch": 61, "duration": 3, "velocity": 107}, {"time": 2126, "pitch": 56, "duration": 2, "velocity": 127}, {"time": 2128, "pitch": 52, "duration": 3, "velocity": 95}, {"time": 2130, "pitch": 56, "duration": 2, "velocity": 102}, {"time": 2132, "pitch": 61, "duration": 6, "velocity": 112}, {"time": 2134, "pitch": 56, "duration": 3, "velocity": 99}, {"time": 2136, "pitch": 52, "duration": 2, "velocity": 99}, {"time": 2138, "pitch": 38, "duration": 11, "velocity": 78}, {"time": 2140, "pitch": 45, "duration": 10, "velocity": 99}, {"time": 2142, "pitch": 50, "duration": 4, "velocity": 100}, {"time": 2144, "pitch": 57, "duration": 3, "velocity": 89}, {"time": 2146, "pitch": 62, "duration": 2, "velocity": 92}, {"time": 2148, "pitch": 66, "duration": 2, "velocity": 112}, {"time": 2150, "pitch": 40, "duration": 7, "velocity": 90}, {"time": 2152, "pitch": 47, "duration": 6, "velocity": 99}, {"time": 2154, "pitch": 52, "duration": 5, "velocity": 102}, {"time": 2156, "pitch": 59, "duration": 3, "velocity": 95}, {"time": 2158, "pitch": 68, "duration": 3, "velocity": 112}, {"time": 2160, "pitch": 64, "duration": 2, "velocity": 97}, {"time": 2162, "pitch": 45, "duration": 18, "velocity": 76}, {"time": 2164, "pitch": 52, "duration": 10, "velocity": 95}, {"time": 2166, "pitch": 57, "duration": 3, "velocity": 86}, {"time": 2168, "pitch": 61, "duration": 2, "velocity": 122}, {"time": 2170, "pitch": 64, "duration": 4, "velocity": 97}, {"time": 2172, "pitch": 61, "duration": 2, "velocity": 127}, {"time": 2174, "pitch": 57, "duration": 4, "velocity": 117}, {"time": 2176, "pitch": 52, "duration": 5, "velocity": 107}, {"time": 2178, "pitch": 64, "duration": 3, "velocity": 100}, {"time": 2180, "pitch": 61, "duration": 2, "velocity": 112}, {"time": 2182, "pitch": 57, "duration": 4, "velocity": 100}, {"time": 2184, "pitch": 61, "duration": 2, "velocity": 127}, {"time": 2186, "pitch": 47, "duration": 23, "velocity": 77}, {"time": 2188, "pitch": 54, "duration": 23, "velocity": 102}, {"time": 2190, "pitch": 59, "duration": 3, "velocity": 97}, {"time": 2192, "pitch": 62, "duration": 3, "velocity": 95}, {"time": 2194, "pitch": 59, "duration": 3, "velocity": 95}, {"time": 2196, "pitch": 62, "duration": 2, "velocity": 93}, {"time": 2198, "pitch": 66, "duration": 3, "velocity": 127}, {"time": 2200, "pitch": 62, "duration": 2, "velocity": 97}, {"time": 2202, "pitch": 59, "duration": 4, "velocity": 92}, {"time": 2204, "pitch": 61, "duration": 3, "velocity": 100}, {"time": 2206, "pitch": 62, "duration": 3, "velocity": 86}, {"time": 2206, "pitch": 66, "duration": 1, "velocity": 35}, {"time": 2208, "pitch": 59, "duration": 2, "velocity": 93}, {"time": 2210, "pitch": 47, "duration": 17, "velocity": 89}, {"time": 2212, "pitch": 54, "duration": 13, "velocity": 107}, {"time": 2214, "pitch": 59, "duration": 2, "velocity": 93}, {"time": 2216, "pitch": 62, "duration": 2, "velocity": 96}, {"time": 2218, "pitch": 59, "duration": 3, "velocity": 95}, {"time": 2220, "pitch": 62, "duration": 2, "velocity": 96}, {"time": 2222, "pitch": 66, "duration": 3, "velocity": 127}, {"time": 2224, "pitch": 62, "duration": 2, "velocity": 86}, {"time": 2226, "pitch": 59, "duration": 3, "velocity": 99}, {"time": 2228, "pitch": 62, "duration": 2, "velocity": 99}, {"time": 2230, "pitch": 59, "duration": 3, "velocity": 97}, {"time": 2232, "pitch": 66, "duration": 3, "velocity": 112}, {"time": 2234, "pitch": 38, "duration": 23, "velocity": 93}, {"time": 2236, "pitch": 45, "duration": 22, "velocity": 95}, {"time": 2238, "pitch": 50, "duration": 10, "velocity": 92}, {"time": 2240, "pitch": 57, "duration": 2, "velocity": 96}, {"time": 2242, "pitch": 62, "duration": 2, "velocity": 99}, {"time": 2244, "pitch": 57, "duration": 2, "velocity": 100}, {"time": 2246, "pitch": 66, "duration": 2, "velocity": 127}, {"time": 2248, "pitch": 57, "duration": 2, "velocity": 64}, {"time": 2250, "pitch": 62, "duration": 2, "velocity": 95}, {"time": 2252, "pitch": 57, "duration": 3, "velocity": 96}, {"time": 2254, "pitch": 66, "duration": 3, "velocity": 122}, {"time": 2256, "pitch": 57, "duration": 2, "velocity": 112}, {"time": 2258, "pitch": 40, "duration": 24, "velocity": 88}, {"time": 2260, "pitch": 47, "duration": 21, "velocity": 99}, {"time": 2262, "pitch": 52, "duration": 17, "velocity": 95}, {"time": 2264, "pitch": 59, "duration": 3, "velocity": 97}, {"time": 2266, "pitch": 64, "duration": 2, "velocity": 90}, {"time": 2268, "pitch": 59, "duration": 2, "velocity": 112}, {"time": 2270, "pitch": 64, "duration": 2, "velocity": 95}, {"time": 2270, "pitch": 68, "duration": 2, "velocity": 122}, {"time": 2272, "pitch": 59, "duration": 3, "velocity": 96}, {"time": 2274, "pitch": 64, "duration": 3, "velocity": 85}, {"time": 2274, "pitch": 68, "duration": 3, "velocity": 100}, {"time": 2276, "pitch": 59, "duration": 3, "velocity": 90}, {"time": 2278, "pitch": 64, "duration": 3, "velocity": 88}, {"time": 2278, "pitch": 68, "duration": 4, "velocity": 97}, {"time": 2280, "pitch": 59, "duration": 2, "velocity": 102}, {"time": 2282, "pitch": 42, "duration": 17, "velocity": 96}, {"time": 2284, "pitch": 49, "duration": 14, "velocity": 70}, {"time": 2286, "pitch": 54, "duration": 11, "velocity": 100}, {"time": 2288, "pitch": 57, "duration": 4, "velocity": 89}, {"time": 2290, "pitch": 61, "duration": 3, "velocity": 112}, {"time": 2292, "pitch": 66, "duration": 3, "velocity": 117}, {"time": 2294, "pitch": 61, "duration": 2, "velocity": 127}, {"time": 2296, "pitch": 57, "duration": 4, "velocity": 97}, {"time": 2298, "pitch": 61, "duration": 2, "velocity": 122}, {"time": 2300, "pitch": 66, "duration": 4, "velocity": 122}, {"time": 2302, "pitch": 61, "duration": 2, "velocity": 127}, {"time": 2304, "pitch": 57, "duration": 3, "velocity": 99}, {"time": 2306, "pitch": 37, "duration": 18, "velocity": 89}, {"time": 2308, "pitch": 44, "duration": 15, "velocity": 88}, {"time": 2310, "pitch": 49, "duration": 12, "velocity": 102}, {"time": 2312, "pitch": 52, "duration": 5, "velocity": 90}, {"time": 2314, "pitch": 56, "duration": 3, "velocity": 122}, {"time": 2316, "pitch": 61, "duration": 3, "velocity": 107}, {"time": 2318, "pitch": 56, "duration": 2, "velocity": 127}, {"time": 2320, "pitch": 52, "duration": 3, "velocity": 95}, {"time": 2322, "pitch": 56, "duration": 2, "velocity": 102}, {"time": 2324, "pitch": 61, "duration": 6, "velocity": 112}, {"time": 2326, "pitch": 56, "duration": 3, "velocity": 99}, {"time": 2328, "pitch": 52, "duration": 2, "velocity": 99}, {"time": 2330, "pitch": 38, "duration": 11, "velocity": 78}, {"time": 2332, "pitch": 45, "duration": 10, "velocity": 99}, {"time": 2334, "pitch": 50, "duration": 4, "velocity": 100}, {"time": 2336, "pitch": 57, "duration": 3, "velocity": 89}, {"time": 2338, "pitch": 62, "duration": 2, "velocity": 92}, {"time": 2340, "pitch": 66, "duration": 2, "velocity": 112}, {"time": 2342, "pitch": 40, "duration": 7, "velocity": 90}, {"time": 2344, "pitch": 47, "duration": 6, "velocity": 99}, {"time": 2346, "pitch": 52, "duration": 5, "velocity": 102}, {"time": 2348, "pitch": 59, "duration": 3, "velocity": 95}, {"time": 2350, "pitch": 68, "duration": 3, "velocity": 112}, {"time": 2352, "pitch": 64, "duration": 2, "velocity": 97}, {"time": 2354, "pitch": 45, "duration": 18, "velocity": 76}, {"time": 2356, "pitch": 52, "duration": 10, "velocity": 95}, {"time": 2358, "pitch": 57, "duration": 3, "velocity": 86}, {"time": 2360, "pitch": 61, "duration": 2, "velocity": 122}, {"time": 2362, "pitch": 64, "duration": 4, "velocity": 97}, {"time": 2364, "pitch": 61, "duration": 2, "velocity": 127}, {"time": 2366, "pitch": 57, "duration": 4, "velocity": 117}, {"time": 2368, "pitch": 52, "duration": 5, "velocity": 107}, {"time": 2370, "pitch": 64, "duration": 3, "velocity": 100}, {"time": 2372, "pitch": 61, "duration": 2, "velocity": 112}, {"time": 2374, "pitch": 57, "duration": 4, "velocity": 100}, {"time": 2376, "pitch": 61, "duration": 2, "velocity": 127}, {"time": 2378, "pitch": 47, "duration": 23, "velocity": 77}, {"time": 2380, "pitch": 54, "duration": 23, "velocity": 102}, {"time": 2382, "pitch": 59, "duration": 3, "velocity": 97}, {"time": 2384, "pitch": 62, "duration": 3, "velocity": 95}, {"time": 2386, "pitch": 59, "duration": 3, "velocity": 95}, {"time": 2388, "pitch": 62, "duration": 2, "velocity": 93}, {"time": 2390, "pitch": 66, "duration": 3, "velocity": 127}, {"time": 2392, "pitch": 62, "duration": 2, "velocity": 97}, {"time": 2394, "pitch": 59, "duration": 4, "velocity": 92}, {"time": 2396, "pitch": 61, "duration": 3, "velocity": 100}, {"time": 2398, "pitch": 62, "duration": 3, "velocity": 86}, {"time": 2398, "pitch": 66, "duration": 1, "velocity": 35}, {"time": 2400, "pitch": 59, "duration": 2, "velocity": 93}, {"time": 2402, "pitch": 47, "duration": 17, "velocity": 89}, {"time": 2404, "pitch": 54, "duration": 13, "velocity": 107}, {"time": 2406, "pitch": 59, "duration": 2, "velocity": 93}, {"time": 2408, "pitch": 62, "duration": 2, "velocity": 96}, {"time": 2410, "pitch": 59, "duration": 3, "velocity": 95}, {"time": 2412, "pitch": 62, "duration": 2, "velocity": 96}, {"time": 2414, "pitch": 66, "duration": 3, "velocity": 127}, {"time": 2416, "pitch": 62, "duration": 2, "velocity": 86}, {"time": 2418, "pitch": 59, "duration": 3, "velocity": 99}, {"time": 2420, "pitch": 62, "duration": 2, "velocity": 99}, {"time": 2422, "pitch": 59, "duration": 3, "velocity": 97}, {"time": 2424, "pitch": 66, "duration": 2, "velocity": 112}, {"time": 2427, "pitch": 37, "duration": 23, "velocity": 96}, {"time": 2429, "pitch": 44, "duration": 21, "velocity": 73}, {"time": 2431, "pitch": 49, "duration": 19, "velocity": 96}, {"time": 2433, "pitch": 53, "duration": 2, "velocity": 81}, {"time": 2435, "pitch": 56, "duration": 2, "velocity": 102}, {"time": 2437, "pitch": 53, "duration": 2, "velocity": 86}, {"time": 2439, "pitch": 61, "duration": 3, "velocity": 127}, {"time": 2441, "pitch": 56, "duration": 2, "velocity": 90}, {"time": 2443, "pitch": 53, "duration": 3, "velocity": 78}, {"time": 2445, "pitch": 56, "duration": 2, "velocity": 122}, {"time": 2447, "pitch": 61, "duration": 3, "velocity": 117}, {"time": 2449, "pitch": 56, "duration": 1, "velocity": 127}, {"time": 2450, "pitch": 37, "duration": 5, "velocity": 90}, {"time": 2450, "pitch": 44, "duration": 5, "velocity": 89}, {"time": 2450, "pitch": 49, "duration": 4, "velocity": 100}, {"time": 2450, "pitch": 53, "duration": 5, "velocity": 97}, {"time": 2450, "pitch": 56, "duration": 5, "velocity": 117}, {"time": 2450, "pitch": 61, "duration": 5, "velocity": 102}, {"time": 2474, "pitch": 42, "duration": 21, "velocity": 89}, {"time": 2474, "pitch": 57, "duration": 11, "velocity": 83}, {"time": 2474, "pitch": 61, "duration": 11, "velocity": 100}, {"time": 2474, "pitch": 66, "duration": 11, "velocity": 83}, {"time": 2478, "pitch": 49, "duration": 7, "velocity": 28}, {"time": 2482, "pitch": 54, "duration": 3, "velocity": 60}, {"time": 2486, "pitch": 49, "duration": 8, "velocity": 45}, {"time": 2486, "pitch": 54, "duration": 8, "velocity": 66}, {"time": 2486, "pitch": 57, "duration": 3, "velocity": 78}, {"time": 2486, "pitch": 61, "duration": 3, "velocity": 92}, {"time": 2486, "pitch": 66, "duration": 3, "velocity": 89}, {"time": 2490, "pitch": 57, "duration": 3, "velocity": 97}, {"time": 2490, "pitch": 61, "duration": 3, "velocity": 122}, {"time": 2490, "pitch": 66, "duration": 3, "velocity": 112}, {"time": 2494, "pitch": 57, "duration": 3, "velocity": 112}, {"time": 2494, "pitch": 61, "duration": 4, "velocity": 127}, {"time": 2494, "pitch": 66, "duration": 3, "velocity": 112}, {"time": 2498, "pitch": 47, "duration": 3, "velocity": 65}, {"time": 2498, "pitch": 59, "duration": 3, "velocity": 86}, {"time": 2498, "pitch": 62, "duration": 4, "velocity": 86}, {"time": 2498, "pitch": 66, "duration": 3, "velocity": 83}, {"time": 2502, "pitch": 47, "duration": 3, "velocity": 79}, {"time": 2502, "pitch": 59, "duration": 3, "velocity": 93}, {"time": 2502, "pitch": 62, "duration": 3, "velocity": 99}, {"time": 2502, "pitch": 66, "duration": 3, "velocity": 95}, {"time": 2506, "pitch": 47, "duration": 4, "velocity": 97}, {"time": 2506, "pitch": 59, "duration": 3, "velocity": 99}, {"time": 2506, "pitch": 62, "duration": 3, "velocity": 127}, {"time": 2506, "pitch": 66, "duration": 3, "velocity": 122}, {"time": 2510, "pitch": 47, "duration": 4, "velocity": 127}, {"time": 2510, "pitch": 59, "duration": 4, "velocity": 127}, {"time": 2514, "pitch": 45, "duration": 3, "velocity": 99}, {"time": 2514, "pitch": 57, "duration": 4, "velocity": 107}, {"time": 2518, "pitch": 44, "duration": 5, "velocity": 93}, {"time": 2518, "pitch": 56, "duration": 5, "velocity": 117}, {"time": 2522, "pitch": 42, "duration": 20, "velocity": 96}, {"time": 2522, "pitch": 54, "duration": 11, "velocity": 97}, {"time": 2522, "pitch": 57, "duration": 2, "velocity": 81}, {"time": 2522, "pitch": 61, "duration": 2, "velocity": 88}, {"time": 2522, "pitch": 66, "duration": 2, "velocity": 69}, {"time": 2526, "pitch": 57, "duration": 2, "velocity": 71}, {"time": 2526, "pitch": 61, "duration": 1, "velocity": 86}, {"time": 2526, "pitch": 66, "duration": 1, "velocity": 66}, {"time": 2528, "pitch": 57, "duration": 2, "velocity": 52}, {"time": 2528, "pitch": 61, "duration": 1, "velocity": 56}, {"time": 2528, "pitch": 66, "duration": 1, "velocity": 56}, {"time": 2530, "pitch": 57, "duration": 2, "velocity": 58}, {"time": 2530, "pitch": 61, "duration": 1, "velocity": 78}, {"time": 2530, "pitch": 66, "duration": 1, "velocity": 75}, {"time": 2532, "pitch": 57, "duration": 1, "velocity": 45}, {"time": 2532, "pitch": 61, "duration": 1, "velocity": 82}, {"time": 2532, "pitch": 66, "duration": 1, "velocity": 75}, {"time": 2534, "pitch": 54, "duration": 6, "velocity": 86}, {"time": 2534, "pitch": 57, "duration": 1, "velocity": 86}, {"time": 2534, "pitch": 61, "duration": 1, "velocity": 122}, {"time": 2534, "pitch": 66, "duration": 1, "velocity": 99}, {"time": 2538, "pitch": 61, "duration": 2, "velocity": 96}, {"time": 2538, "pitch": 66, "duration": 2, "velocity": 90}, {"time": 2542, "pitch": 61, "duration": 2, "velocity": 99}, {"time": 2542, "pitch": 66, "duration": 1, "velocity": 70}, {"time": 2546, "pitch": 49, "duration": 11, "velocity": 76}, {"time": 2546, "pitch": 56, "duration": 2, "velocity": 99}, {"time": 2546, "pitch": 61, "duration": 2, "velocity": 78}, {"time": 2546, "pitch": 64, "duration": 2, "velocity": 82}, {"time": 2550, "pitch": 56, "duration": 2, "velocity": 56}, {"time": 2550, "pitch": 61, "duration": 1, "velocity": 36}, {"time": 2550, "pitch": 64, "duration": 2, "velocity": 62}, {"time": 2552, "pitch": 56, "duration": 1, "velocity": 41}, {"time": 2552, "pitch": 61, "duration": 1, "velocity": 34}, {"time": 2552, "pitch": 64, "duration": 1, "velocity": 40}, {"time": 2554, "pitch": 56, "duration": 1, "velocity": 59}, {"time": 2554, "pitch": 61, "duration": 1, "velocity": 42}, {"time": 2554, "pitch": 64, "duration": 1, "velocity": 66}, {"time": 2556, "pitch": 56, "duration": 1, "velocity": 40}, {"time": 2556, "pitch": 61, "duration": 1, "velocity": 78}, {"time": 2556, "pitch": 64, "duration": 1, "velocity": 77}, {"time": 2558, "pitch": 49, "duration": 1, "velocity": 76}, {"time": 2558, "pitch": 56, "duration": 1, "velocity": 93}, {"time": 2558, "pitch": 61, "duration": 1, "velocity": 97}, {"time": 2558, "pitch": 64, "duration": 1, "velocity": 97}, {"time": 2562, "pitch": 56, "duration": 2, "velocity": 83}, {"time": 2562, "pitch": 61, "duration": 1, "velocity": 78}, {"time": 2562, "pitch": 64, "duration": 1, "velocity": 78}, {"time": 2566, "pitch": 61, "duration": 1, "velocity": 86}, {"time": 2570, "pitch": 50, "duration": 12, "velocity": 74}, {"time": 2570, "pitch": 57, "duration": 2, "velocity": 85}, {"time": 2570, "pitch": 62, "duration": 2, "velocity": 96}, {"time": 2570, "pitch": 66, "duration": 2, "velocity": 97}, {"time": 2574, "pitch": 57, "duration": 1, "velocity": 66}, {"time": 2574, "pitch": 62, "duration": 1, "velocity": 79}, {"time": 2574, "pitch": 66, "duration": 2, "velocity": 82}, {"time": 2576, "pitch": 62, "duration": 1, "velocity": 37}, {"time": 2578, "pitch": 57, "duration": 1, "velocity": 74}, {"time": 2578, "pitch": 62, "duration": 1, "velocity": 90}, {"time": 2578, "pitch": 66, "duration": 1, "velocity": 86}, {"time": 2582, "pitch": 52, "duration": 4, "velocity": 90}, {"time": 2582, "pitch": 59, "duration": 2, "velocity": 92}, {"time": 2582, "pitch": 64, "duration": 3, "velocity": 92}, {"time": 2582, "pitch": 68, "duration": 3, "velocity": 92}, {"time": 2586, "pitch": 64, "duration": 2, "velocity": 88}, {"time": 2586, "pitch": 68, "duration": 2, "velocity": 92}, {"time": 2590, "pitch": 59, "duration": 2, "velocity": 86}, {"time": 2594, "pitch": 45, "duration": 10, "velocity": 85}, {"time": 2594, "pitch": 57, "duration": 2, "velocity": 92}, {"time": 2594, "pitch": 61, "duration": 2, "velocity": 96}, {"time": 2594, "pitch": 64, "duration": 2, "velocity": 81}, {"time": 2598, "pitch": 57, "duration": 1, "velocity": 78}, {"time": 2598, "pitch": 61, "duration": 1, "velocity": 88}, {"time": 2598, "pitch": 64, "duration": 1, "velocity": 67}, {"time": 2600, "pitch": 57, "duration": 1, "velocity": 48}, {"time": 2600, "pitch": 61, "duration": 1, "velocity": 67}, {"time": 2600, "pitch": 64, "duration": 1, "velocity": 57}, {"time": 2602, "pitch": 57, "duration": 1, "velocity": 49}, {"time": 2602, "pitch": 61, "duration": 1, "velocity": 66}, {"time": 2602, "pitch": 64, "duration": 1, "velocity": 60}, {"time": 2604, "pitch": 61, "duration": 1, "velocity": 69}, {"time": 2604, "pitch": 64, "duration": 1, "velocity": 58}, {"time": 2606, "pitch": 45, "duration": 1, "velocity": 83}, {"time": 2606, "pitch": 57, "duration": 1, "velocity": 86}, {"time": 2606, "pitch": 61, "duration": 1, "velocity": 107}, {"time": 2606, "pitch": 64, "duration": 1, "velocity": 92}, {"time": 2610, "pitch": 57, "duration": 1, "velocity": 57}, {"time": 2610, "pitch": 61, "duration": 2, "velocity": 117}, {"time": 2610, "pitch": 64, "duration": 2, "velocity": 85}, {"time": 2612, "pitch": 57, "duration": 2, "velocity": 81}, {"time": 2612, "pitch": 61, "duration": 1, "velocity": 90}, {"time": 2614, "pitch": 64, "duration": 1, "velocity": 66}, {"time": 2616, "pitch": 47, "duration": 14, "velocity": 72}, {"time": 2618, "pitch": 59, "duration": 2, "velocity": 76}, {"time": 2618, "pitch": 62, "duration": 2, "velocity": 90}, {"time": 2618, "pitch": 66, "duration": 2, "velocity": 86}, {"time": 2622, "pitch": 59, "duration": 1, "velocity": 67}, {"time": 2622, "pitch": 62, "duration": 1, "velocity": 85}, {"time": 2622, "pitch": 66, "duration": 1, "velocity": 74}, {"time": 2624, "pitch": 62, "duration": 1, "velocity": 41}, {"time": 2624, "pitch": 66, "duration": 1, "velocity": 46}, {"time": 2626, "pitch": 59, "duration": 1, "velocity": 68}, {"time": 2626, "pitch": 62, "duration": 1, "velocity": 78}, {"time": 2626, "pitch": 66, "duration": 1, "velocity": 63}, {"time": 2628, "pitch": 62, "duration": 1, "velocity": 48}, {"time": 2628, "pitch": 66, "duration": 1, "velocity": 56}, {"time": 2630, "pitch": 54, "duration": 1, "velocity": 99}, {"time": 2630, "pitch": 59, "duration": 1, "velocity": 73}, {"time": 2630, "pitch": 62, "duration": 1, "velocity": 102}, {"time": 2630, "pitch": 66, "duration": 1, "velocity": 96}, {"time": 2634, "pitch": 62, "duration": 1, "velocity": 95}, {"time": 2634, "pitch": 66, "duration": 1, "velocity": 92}, {"time": 2638, "pitch": 62, "duration": 2, "velocity": 67}, {"time": 2638, "pitch": 66, "duration": 2, "velocity": 43}, {"time": 2642, "pitch": 47, "duration": 13, "velocity": 67}, {"time": 2642, "pitch": 59, "duration": 2, "velocity": 74}, {"time": 2642, "pitch": 62, "duration": 2, "velocity": 86}, {"time": 2642, "pitch": 66, "duration": 2, "velocity": 69}, {"time": 2646, "pitch": 59, "duration": 1, "velocity": 67}, {"time": 2646, "pitch": 62, "duration": 1, "velocity": 90}, {"time": 2646, "pitch": 66, "duration": 1, "velocity": 82}, {"time": 2648, "pitch": 59, "duration": 1, "velocity": 33}, {"time": 2648, "pitch": 62, "duration": 1, "velocity": 51}, {"time": 2648, "pitch": 66, "duration": 1, "velocity": 42}, {"time": 2650, "pitch": 59, "duration": 1, "velocity": 78}, {"time": 2650, "pitch": 62, "duration": 1, "velocity": 97}, {"time": 2650, "pitch": 66, "duration": 1, "velocity": 78}, {"time": 2652, "pitch": 62, "duration": 1, "velocity": 40}, {"time": 2652, "pitch": 66, "duration": 1, "velocity": 50}, {"time": 2654, "pitch": 54, "duration": 1, "velocity": 77}, {"time": 2654, "pitch": 59, "duration": 1, "velocity": 95}, {"time": 2654, "pitch": 62, "duration": 1, "velocity": 122}, {"time": 2654, "pitch": 66, "duration": 1, "velocity": 97}, {"time": 2658, "pitch": 62, "duration": 1, "velocity": 89}, {"time": 2658, "pitch": 66, "duration": 1, "velocity": 71}, {"time": 2662, "pitch": 62, "duration": 2, "velocity": 74}, {"time": 2662, "pitch": 66, "duration": 1, "velocity": 50}, {"time": 2666, "pitch": 50, "duration": 3, "velocity": 102}, {"time": 2666, "pitch": 57, "duration": 3, "velocity": 96}, {"time": 2666, "pitch": 62, "duration": 3, "velocity": 102}, {"time": 2666, "pitch": 66, "duration": 3, "velocity": 100}, {"time": 2670, "pitch": 50, "duration": 3, "velocity": 102}, {"time": 2670, "pitch": 57, "duration": 3, "velocity": 97}, {"time": 2670, "pitch": 62, "duration": 3, "velocity": 117}, {"time": 2670, "pitch": 66, "duration": 3, "velocity": 122}, {"time": 2678, "pitch": 50, "duration": 2, "velocity": 127}, {"time": 2678, "pitch": 57, "duration": 3, "velocity": 107}, {"time": 2678, "pitch": 62, "duration": 3, "velocity": 102}, {"time": 2678, "pitch": 66, "duration": 3, "velocity": 112}, {"time": 2682, "pitch": 50, "duration": 2, "velocity": 117}, {"time": 2682, "pitch": 57, "duration": 2, "velocity": 100}, {"time": 2682, "pitch": 62, "duration": 2, "velocity": 112}, {"time": 2682, "pitch": 66, "duration": 2, "velocity": 117}, {"time": 2690, "pitch": 52, "duration": 2, "velocity": 127}, {"time": 2690, "pitch": 59, "duration": 2, "velocity": 102}, {"time": 2690, "pitch": 64, "duration": 2, "velocity": 127}, {"time": 2690, "pitch": 68, "duration": 2, "velocity": 127}, {"time": 2696, "pitch": 52, "duration": 3, "velocity": 112}, {"time": 2696, "pitch": 59, "duration": 2, "velocity": 99}, {"time": 2696, "pitch": 64, "duration": 2, "velocity": 99}, {"time": 2696, "pitch": 68, "duration": 2, "velocity": 99}, {"time": 2702, "pitch": 52, "duration": 2, "velocity": 112}, {"time": 2702, "pitch": 59, "duration": 3, "velocity": 93}, {"time": 2702, "pitch": 64, "duration": 3, "velocity": 99}, {"time": 2702, "pitch": 68, "duration": 3, "velocity": 97}, {"time": 2706, "pitch": 52, "duration": 2, "velocity": 117}, {"time": 2706, "pitch": 59, "duration": 2, "velocity": 90}, {"time": 2706, "pitch": 64, "duration": 3, "velocity": 92}, {"time": 2706, "pitch": 68, "duration": 3, "velocity": 97}, {"time": 2710, "pitch": 52, "duration": 3, "velocity": 122}, {"time": 2710, "pitch": 59, "duration": 3, "velocity": 99}, {"time": 2710, "pitch": 64, "duration": 3, "velocity": 97}, {"time": 2710, "pitch": 68, "duration": 3, "velocity": 99}, {"time": 2714, "pitch": 42, "duration": 16, "velocity": 99}, {"time": 2716, "pitch": 49, "duration": 13, "velocity": 52}, {"time": 2718, "pitch": 54, "duration": 11, "velocity": 102}, {"time": 2720, "pitch": 57, "duration": 3, "velocity": 97}, {"time": 2722, "pitch": 61, "duration": 2, "velocity": 112}, {"time": 2724, "pitch": 57, "duration": 2, "velocity": 99}, {"time": 2726, "pitch": 66, "duration": 3, "velocity": 127}, {"time": 2728, "pitch": 57, "duration": 3, "velocity": 93}, {"time": 2730, "pitch": 61, "duration": 2, "velocity": 117}, {"time": 2732, "pitch": 57, "duration": 3, "velocity": 96}, {"time": 2734, "pitch": 66, "duration": 3, "velocity": 117}, {"time": 2736, "pitch": 61, "duration": 3, "velocity": 127}, {"time": 2738, "pitch": 37, "duration": 16, "velocity": 96}, {"time": 2740, "pitch": 44, "duration": 12, "velocity": 90}, {"time": 2742, "pitch": 49, "duration": 10, "velocity": 95}, {"time": 2744, "pitch": 52, "duration": 3, "velocity": 97}, {"time": 2746, "pitch": 56, "duration": 2, "velocity": 112}, {"time": 2748, "pitch": 52, "duration": 2, "velocity": 92}, {"time": 2750, "pitch": 61, "duration": 2, "velocity": 127}, {"time": 2752, "pitch": 52, "duration": 3, "velocity": 75}, {"time": 2754, "pitch": 56, "duration": 2, "velocity": 122}, {"time": 2756, "pitch": 52, "duration": 4, "velocity": 88}, {"time": 2758, "pitch": 61, "duration": 3, "velocity": 122}, {"time": 2760, "pitch": 56, "duration": 2, "velocity": 127}, {"time": 2762, "pitch": 38, "duration": 10, "velocity": 83}, {"time": 2764, "pitch": 45, "duration": 10, "velocity": 107}, {"time": 2766, "pitch": 50, "duration": 5, "velocity": 97}, {"time": 2768, "pitch": 57, "duration": 2, "velocity": 107}, {"time": 2770, "pitch": 62, "duration": 2, "velocity": 95}, {"time": 2772, "pitch": 57, "duration": 2, "velocity": 117}, {"time": 2774, "pitch": 40, "duration": 7, "velocity": 97}, {"time": 2776, "pitch": 47, "duration": 5, "velocity": 112}, {"time": 2778, "pitch": 56, "duration": 2, "velocity": 112}, {"time": 2780, "pitch": 59, "duration": 2, "velocity": 97}, {"time": 2782, "pitch": 56, "duration": 3, "velocity": 122}, {"time": 2784, "pitch": 59, "duration": 2, "velocity": 95}, {"time": 2786, "pitch": 45, "duration": 20, "velocity": 88}, {"time": 2788, "pitch": 52, "duration": 22, "velocity": 82}, {"time": 2790, "pitch": 57, "duration": 3, "velocity": 92}, {"time": 2792, "pitch": 61, "duration": 3, "velocity": 102}, {"time": 2794, "pitch": 64, "duration": 3, "velocity": 99}, {"time": 2796, "pitch": 61, "duration": 2, "velocity": 122}, {"time": 2798, "pitch": 57, "duration": 4, "velocity": 127}, {"time": 2800, "pitch": 61, "duration": 2, "velocity": 112}, {"time": 2802, "pitch": 64, "duration": 5, "velocity": 92}, {"time": 2804, "pitch": 57, "duration": 4, "velocity": 92}, {"time": 2806, "pitch": 61, "duration": 3, "velocity": 122}, {"time": 2808, "pitch": 64, "duration": 2, "velocity": 86}, {"time": 2810, "pitch": 47, "duration": 21, "velocity": 77}, {"time": 2812, "pitch": 54, "duration": 12, "velocity": 99}, {"time": 2814, "pitch": 59, "duration": 3, "velocity": 96}, {"time": 2816, "pitch": 62, "duration": 2, "velocity": 74}, {"time": 2818, "pitch": 59, "duration": 3, "velocity": 92}, {"time": 2820, "pitch": 62, "duration": 2, "velocity": 88}, {"time": 2822, "pitch": 66, "duration": 3, "velocity": 122}, {"time": 2824, "pitch": 59, "duration": 3, "velocity": 86}, {"time": 2826, "pitch": 62, "duration": 2, "velocity": 89}, {"time": 2828, "pitch": 59, "duration": 3, "velocity": 93}, {"time": 2830, "pitch": 66, "duration": 3, "velocity": 99}, {"time": 2832, "pitch": 62, "duration": 2, "velocity": 97}, {"time": 2834, "pitch": 47, "duration": 15, "velocity": 78}, {"time": 2836, "pitch": 54, "duration": 11, "velocity": 99}, {"time": 2838, "pitch": 59, "duration": 3, "velocity": 92}, {"time": 2840, "pitch": 62, "duration": 2, "velocity": 95}, {"time": 2842, "pitch": 59, "duration": 3, "velocity": 99}, {"time": 2844, "pitch": 62, "duration": 2, "velocity": 83}, {"time": 2846, "pitch": 66, "duration": 4, "velocity": 127}, {"time": 2848, "pitch": 62, "duration": 3, "velocity": 74}, {"time": 2850, "pitch": 59, "duration": 3, "velocity": 92}, {"time": 2852, "pitch": 62, "duration": 2, "velocity": 88}, {"time": 2854, "pitch": 66, "duration": 3, "velocity": 112}, {"time": 2856, "pitch": 62, "duration": 2, "velocity": 96}, {"time": 2858, "pitch": 37, "duration": 3, "velocity": 54}, {"time": 2858, "pitch": 44, "duration": 3, "velocity": 100}, {"time": 2858, "pitch": 49, "duration": 3, "velocity": 96}, {"time": 2858, "pitch": 56, "duration": 3, "velocity": 102}, {"time": 2858, "pitch": 61, "duration": 4, "velocity": 107}, {"time": 2858, "pitch": 65, "duration": 3, "velocity": 81}, {"time": 2862, "pitch": 37, "duration": 3, "velocity": 59}, {"time": 2862, "pitch": 44, "duration": 3, "velocity": 69}, {"time": 2862, "pitch": 49, "duration": 3, "velocity": 72}, {"time": 2862, "pitch": 56, "duration": 3, "velocity": 90}, {"time": 2862, "pitch": 61, "duration": 3, "velocity": 75}, {"time": 2862, "pitch": 65, "duration": 3, "velocity": 60}, {"time": 2866, "pitch": 37, "duration": 3, "velocity": 63}, {"time": 2866, "pitch": 44, "duration": 3, "velocity": 67}, {"time": 2866, "pitch": 49, "duration": 3, "velocity": 81}, {"time": 2866, "pitch": 56, "duration": 3, "velocity": 93}, {"time": 2866, "pitch": 61, "duration": 2, "velocity": 82}, {"time": 2866, "pitch": 65, "duration": 2, "velocity": 72}, {"time": 2870, "pitch": 37, "duration": 6, "velocity": 76}, {"time": 2870, "pitch": 44, "duration": 7, "velocity": 73}, {"time": 2870, "pitch": 49, "duration": 6, "velocity": 100}, {"time": 2870, "pitch": 56, "duration": 7, "velocity": 112}, {"time": 2870, "pitch": 61, "duration": 7, "velocity": 122}, {"time": 2870, "pitch": 65, "duration": 6, "velocity": 96}, {"time": 2878, "pitch": 37, "duration": 3, "velocity": 67}, {"time": 2878, "pitch": 44, "duration": 4, "velocity": 64}, {"time": 2878, "pitch": 49, "duration": 3, "velocity": 90}, {"time": 2878, "pitch": 56, "duration": 4, "velocity": 100}, {"time": 2878, "pitch": 61, "duration": 4, "velocity": 100}, {"time": 2878, "pitch": 65, "duration": 3, "velocity": 79}, {"time": 2882, "pitch": 37, "duration": 4, "velocity": 78}, {"time": 2882, "pitch": 44, "duration": 4, "velocity": 72}, {"time": 2882, "pitch": 49, "duration": 4, "velocity": 97}, {"time": 2882, "pitch": 56, "duration": 4, "velocity": 117}, {"time": 2882, "pitch": 61, "duration": 4, "velocity": 122}, {"time": 2882, "pitch": 65, "duration": 4, "velocity": 102}, {"time": 2906, "pitch": 42, "duration": 16, "velocity": 95}, {"time": 2908, "pitch": 49, "duration": 13, "velocity": 44}, {"time": 2910, "pitch": 54, "duration": 12, "velocity": 100}, {"time": 2912, "pitch": 57, "duration": 3, "velocity": 86}, {"time": 2914, "pitch": 61, "duration": 2, "velocity": 112}, {"time": 2916, "pitch": 57, "duration": 2, "velocity": 89}, {"time": 2918, "pitch": 66, "duration": 2, "velocity": 127}, {"time": 2920, "pitch": 57, "duration": 3, "velocity": 82}, {"time": 2922, "pitch": 61, "duration": 2, "velocity": 122}, {"time": 2924, "pitch": 57, "duration": 3, "velocity": 97}, {"time": 2926, "pitch": 66, "duration": 3, "velocity": 122}, {"time": 2928, "pitch": 61, "duration": 2, "velocity": 127}, {"time": 2930, "pitch": 45, "duration": 21, "velocity": 86}, {"time": 2932, "pitch": 52, "duration": 21, "velocity": 96}, {"time": 2934, "pitch": 57, "duration": 3, "velocity": 86}, {"time": 2936, "pitch": 61, "duration": 2, "velocity": 122}, {"time": 2938, "pitch": 57, "duration": 3, "velocity": 107}, {"time": 2940, "pitch": 61, "duration": 2, "velocity": 112}, {"time": 2942, "pitch": 64, "duration": 3, "velocity": 107}, {"time": 2944, "pitch": 57, "duration": 3, "velocity": 93}, {"time": 2946, "pitch": 61, "duration": 2, "velocity": 117}, {"time": 2948, "pitch": 64, "duration": 2, "velocity": 100}, {"time": 2950, "pitch": 57, "duration": 3, "velocity": 97}, {"time": 2952, "pitch": 61, "duration": 2, "velocity": 127}, {"time": 2954, "pitch": 47, "duration": 17, "velocity": 70}, {"time": 2956, "pitch": 54, "duration": 11, "velocity": 93}, {"time": 2958, "pitch": 59, "duration": 2, "velocity": 95}, {"time": 2960, "pitch": 63, "duration": 2, "velocity": 97}, {"time": 2962, "pitch": 59, "duration": 2, "velocity": 97}, {"time": 2964, "pitch": 66, "duration": 2, "velocity": 127}, {"time": 2966, "pitch": 59, "duration": 3, "velocity": 112}, {"time": 2968, "pitch": 63, "duration": 2, "velocity": 127}, {"time": 2970, "pitch": 59, "duration": 2, "velocity": 90}, {"time": 2972, "pitch": 66, "duration": 3, "velocity": 117}, {"time": 2974, "pitch": 63, "duration": 3, "velocity": 127}, {"time": 2976, "pitch": 59, "duration": 2, "velocity": 102}, {"time": 2978, "pitch": 38, "duration": 14, "velocity": 77}, {"time": 2980, "pitch": 45, "duration": 13, "velocity": 99}, {"time": 2982, "pitch": 50, "duration": 10, "velocity": 95}, {"time": 2984, "pitch": 57, "duration": 2, "velocity": 99}, {"time": 2986, "pitch": 62, "duration": 2, "velocity": 96}, {"time": 2988, "pitch": 57, "duration": 2, "velocity": 112}, {"time": 2990, "pitch": 66, "duration": 3, "velocity": 127}, {"time": 2992, "pitch": 57, "duration": 3, "velocity": 89}, {"time": 2994, "pitch": 62, "duration": 2, "velocity": 112}, {"time": 2996, "pitch": 57, "duration": 3, "velocity": 99}, {"time": 2998, "pitch": 66, "duration": 3, "velocity": 127}, {"time": 3000, "pitch": 62, "duration": 2, "velocity": 102}, {"time": 3002, "pitch": 42, "duration": 18, "velocity": 83}, {"time": 3004, "pitch": 49, "duration": 16, "velocity": 66}, {"time": 3006, "pitch": 54, "duration": 14, "velocity": 72}, {"time": 3008, "pitch": 57, "duration": 3, "velocity": 97}, {"time": 3010, "pitch": 61, "duration": 2, "velocity": 122}, {"time": 3012, "pitch": 57, "duration": 2, "velocity": 107}, {"time": 3014, "pitch": 66, "duration": 3, "velocity": 127}, {"time": 3016, "pitch": 57, "duration": 2, "velocity": 93}, {"time": 3018, "pitch": 61, "duration": 2, "velocity": 127}, {"time": 3020, "pitch": 57, "duration": 2, "velocity": 97}, {"time": 3022, "pitch": 66, "duration": 3, "velocity": 127}, {"time": 3024, "pitch": 61, "duration": 2, "velocity": 122}, {"time": 3026, "pitch": 45, "duration": 21, "velocity": 82}, {"time": 3028, "pitch": 52, "duration": 21, "velocity": 93}, {"time": 3030, "pitch": 57, "duration": 2, "velocity": 89}, {"time": 3032, "pitch": 61, "duration": 2, "velocity": 107}, {"time": 3034, "pitch": 57, "duration": 4, "velocity": 102}, {"time": 3036, "pitch": 61, "duration": 2, "velocity": 122}, {"time": 3038, "pitch": 64, "duration": 3, "velocity": 100}, {"time": 3040, "pitch": 57, "duration": 3, "velocity": 100}, {"time": 3042, "pitch": 61, "duration": 3, "velocity": 127}, {"time": 3044, "pitch": 64, "duration": 3, "velocity": 96}, {"time": 3046, "pitch": 57, "duration": 3, "velocity": 93}, {"time": 3048, "pitch": 61, "duration": 2, "velocity": 127}, {"time": 3050, "pitch": 47, "duration": 17, "velocity": 83}, {"time": 3052, "pitch": 54, "duration": 14, "velocity": 102}, {"time": 3054, "pitch": 59, "duration": 2, "velocity": 97}, {"time": 3056, "pitch": 63, "duration": 2, "velocity": 112}, {"time": 3058, "pitch": 59, "duration": 3, "velocity": 102}, {"time": 3060, "pitch": 63, "duration": 2, "velocity": 117}, {"time": 3062, "pitch": 66, "duration": 3, "velocity": 127}, {"time": 3064, "pitch": 59, "duration": 3, "velocity": 112}, {"time": 3066, "pitch": 63, "duration": 2, "velocity": 127}, {"time": 3068, "pitch": 66, "duration": 3, "velocity": 112}, {"time": 3070, "pitch": 63, "duration": 3, "velocity": 127}, {"time": 3072, "pitch": 59, "duration": 2, "velocity": 100}, {"time": 3074, "pitch": 37, "duration": 1, "velocity": 63}, {"time": 3074, "pitch": 44, "duration": 1, "velocity": 96}, {"time": 3074, "pitch": 49, "duration": 1, "velocity": 97}, {"time": 3074, "pitch": 56, "duration": 1, "velocity": 112}, {"time": 3074, "pitch": 61, "duration": 1, "velocity": 117}, {"time": 3074, "pitch": 65, "duration": 1, "velocity": 71}, {"time": 3076, "pitch": 37, "duration": 2, "velocity": 72}, {"time": 3076, "pitch": 44, "duration": 1, "velocity": 89}, {"time": 3076, "pitch": 49, "duration": 2, "velocity": 97}, {"time": 3076, "pitch": 56, "duration": 2, "velocity": 71}, {"time": 3076, "pitch": 61, "duration": 1, "velocity": 71}, {"time": 3076, "pitch": 65, "duration": 1, "velocity": 53}, {"time": 3080, "pitch": 37, "duration": 2, "velocity": 55}, {"time": 3080, "pitch": 44, "duration": 1, "velocity": 86}, {"time": 3080, "pitch": 49, "duration": 2, "velocity": 95}, {"time": 3080, "pitch": 56, "duration": 1, "velocity": 117}, {"time": 3080, "pitch": 61, "duration": 2, "velocity": 127}, {"time": 3080, "pitch": 65, "duration": 1, "velocity": 72}, {"time": 3084, "pitch": 37, "duration": 3, "velocity": 79}, {"time": 3084, "pitch": 44, "duration": 3, "velocity": 78}, {"time": 3084, "pitch": 49, "duration": 3, "velocity": 100}, {"time": 3084, "pitch": 56, "duration": 3, "velocity": 127}, {"time": 3084, "pitch": 61, "duration": 3, "velocity": 112}, {"time": 3084, "pitch": 65, "duration": 3, "velocity": 96}, {"time": 3120, "pitch": 66, "duration": 29, "velocity": 58}, {"time": 3121, "pitch": 64, "duration": 27, "velocity": 66}, {"time": 3121, "pitch": 61, "duration": 27, "velocity": 55}, {"time": 3122, "pitch": 42, "duration": 27, "velocity": 53}, {"time": 3122, "pitch": 54, "duration": 26, "velocity": 59}, {"time": 3122, "pitch": 57, "duration": 26, "velocity": 69}, {"time": 3123, "pitch": 49, "duration": 25, "velocity": 49}], "annotations": [{"time": 362, "annotation": {"number": 64, "value": 127}, "group": "control_change"}, {"time": 385, "annotation": {"number": 64, "value": 0}, "group": "control_change"}, {"time": 387, "annotation": {"number": 64, "value": 127}, "group": "control_change"}, {"time": 409, "annotation": {"number": 64, "value": 0}, "group": "control_change"}, {"time": 411, "annotation": {"number": 64, "value": 127}, "group": "control_change"}, {"time": 433, "annotation": {"number": 64, "value": 0}, "group": "control_change"}, {"time": 434, "annotation": {"number": 64, "value": 127}, "group": "control_change"}, {"time": 456, "annotation": {"number": 64, "value": 0}, "group": "control_change"}, {"time": 458, "annotation": {"number": 64, "value": 127}, "group": "control_change"}, {"time": 481, "annotation": {"number": 64, "value": 0}, "group": "control_change"}, {"time": 483, "annotation": {"number": 64, "value": 127}, "group": "control_change"}, {"time": 505, "annotation": {"number": 64, "value": 0}, "group": "control_change"}, {"time": 506, "annotation": {"number": 64, "value": 127}, "group": "control_change"}, {"time": 529, "annotation": {"number": 64, "value": 0}, "group": "control_change"}, {"time": 531, "annotation": {"number": 64, "value": 127}, "group": "control_change"}, {"time": 553, "annotation": {"number": 64, "value": 0}, "group": "control_change"}, {"time": 555, "annotation": {"number": 64, "value": 127}, "group": "control_change"}, {"time": 577, "annotation": {"number": 64, "value": 0}, "group": "control_change"}, {"time": 578, "annotation": {"number": 64, "value": 127}, "group": "control_change"}, {"time": 601, "annotation": {"number": 64, "value": 0}, "group": "control_change"}, {"time": 603, "annotation": {"number": 64, "value": 127}, "group": "control_change"}, {"time": 625, "annotation": {"number": 64, "value": 0}, "group": "control_change"}, {"time": 626, "annotation": {"number": 64, "value": 127}, "group": "control_change"}, {"time": 649, "annotation": {"number": 64, "value": 0}, "group": "control_change"}, {"time": 651, "annotation": {"number": 64, "value": 127}, "group": "control_change"}, {"time": 673, "annotation": {"number": 64, "value": 0}, "group": "control_change"}, {"time": 674, "annotation": {"number": 64, "value": 127}, "group": "control_change"}, {"time": 697, "annotation": {"number": 64, "value": 0}, "group": "control_change"}, {"time": 698, "annotation": {"number": 64, "value": 127}, "group": "control_change"}, {"time": 709, "annotation": {"number": 64, "value": 0}, "group": "control_change"}, {"time": 711, "annotation": {"number": 64, "value": 127}, "group": "control_change"}, {"time": 721, "annotation": {"number": 64, "value": 0}, "group": "control_change"}, {"time": 722, "annotation": {"number": 64, "value": 127}, "group": "control_change"}, {"time": 744, "annotation": {"number": 64, "value": 0}, "group": "control_change"}, {"time": 746, "annotation": {"number": 64, "value": 127}, "group": "control_change"}, {"time": 769, "annotation": {"number": 64, "value": 0}, "group": "control_change"}, {"time": 770, "annotation": {"number": 64, "value": 127}, "group": "control_change"}, {"time": 793, "annotation": {"number": 64, "value": 0}, "group": "control_change"}, {"time": 794, "annotation": {"number": 64, "value": 127}, "group": "control_change"}, {"time": 817, "annotation": {"number": 64, "value": 0}, "group": "control_change"}, {"time": 819, "annotation": {"number": 64, "value": 127}, "group": "control_change"}, {"time": 842, "annotation": {"number": 64, "value": 0}, "group": "control_change"}, {"time": 845, "annotation": {"number": 64, "value": 127}, "group": "control_change"}, {"time": 864, "annotation": {"number": 64, "value": 0}, "group": "control_change"}, {"time": 867, "annotation": {"number": 64, "value": 127}, "group": "control_change"}, {"time": 889, "annotation": {"number": 64, "value": 0}, "group": "control_change"}, {"time": 891, "annotation": {"number": 64, "value": 127}, "group": "control_change"}, {"time": 913, "annotation": {"number": 64, "value": 0}, "group": "control_change"}, {"time": 915, "annotation": {"number": 64, "value": 127}, "group": "control_change"}, {"time": 926, "annotation": {"number": 64, "value": 0}, "group": "control_change"}, {"time": 928, "annotation": {"number": 64, "value": 127}, "group": "control_change"}, {"time": 937, "annotation": {"number": 64, "value": 0}, "group": "control_change"}, {"time": 939, "annotation": {"number": 64, "value": 127}, "group": "control_change"}, {"time": 961, "annotation": {"number": 64, "value": 0}, "group": "control_change"}, {"time": 963, "annotation": {"number": 64, "value": 127}, "group": "control_change"}, {"time": 985, "annotation": {"number": 64, "value": 0}, "group": "control_change"}, {"time": 987, "annotation": {"number": 64, "value": 127}, "group": "control_change"}, {"time": 1009, "annotation": {"number": 64, "value": 0}, "group": "control_change"}, {"time": 1011, "annotation": {"number": 64, "value": 127}, "group": "control_change"}, {"time": 1033, "annotation": {"number": 64, "value": 0}, "group": "control_change"}, {"time": 1035, "annotation": {"number": 64, "value": 127}, "group": "control_change"}, {"time": 1056, "annotation": {"number": 64, "value": 0}, "group": "control_change"}, {"time": 1059, "annotation": {"number": 64, "value": 127}, "group": "control_change"}, {"time": 1081, "annotation": {"number": 64, "value": 0}, "group": "control_change"}, {"time": 1083, "annotation": {"number": 64, "value": 127}, "group": "control_change"}, {"time": 1105, "annotation": {"number": 64, "value": 0}, "group": "control_change"}, {"time": 1107, "annotation": {"number": 64, "value": 127}, "group": "control_change"}, {"time": 1118, "annotation": {"number": 64, "value": 0}, "group": "control_change"}, {"time": 1120, "annotation": {"number": 64, "value": 127}, "group": "control_change"}, {"time": 1129, "annotation": {"number": 64, "value": 0}, "group": "control_change"}, {"time": 1131, "annotation": {"number": 64, "value": 127}, "group": "control_change"}, {"time": 1153, "annotation": {"number": 64, "value": 0}, "group": "control_change"}, {"time": 1155, "annotation": {"number": 64, "value": 127}, "group": "control_change"}, {"time": 1177, "annotation": {"number": 64, "value": 0}, "group": "control_change"}, {"time": 1179, "annotation": {"number": 64, "value": 127}, "group": "control_change"}, {"time": 1201, "annotation": {"number": 64, "value": 0}, "group": "control_change"}, {"time": 1203, "annotation": {"number": 64, "value": 127}, "group": "control_change"}, {"time": 1226, "annotation": {"number": 64, "value": 0}, "group": "control_change"}, {"time": 1251, "annotation": {"number": 64, "value": 127}, "group": "control_change"}, {"time": 1272, "annotation": {"number": 64, "value": 0}, "group": "control_change"}, {"time": 1275, "annotation": {"number": 64, "value": 127}, "group": "control_change"}, {"time": 1296, "annotation": {"number": 64, "value": 0}, "group": "control_change"}, {"time": 1299, "annotation": {"number": 64, "value": 127}, "group": "control_change"}, {"time": 1321, "annotation": {"number": 64, "value": 0}, "group": "control_change"}, {"time": 1323, "annotation": {"number": 64, "value": 127}, "group": "control_change"}, {"time": 1345, "annotation": {"number": 64, "value": 0}, "group": "control_change"}, {"time": 1346, "annotation": {"number": 64, "value": 127}, "group": "control_change"}, {"time": 1369, "annotation": {"number": 64, "value": 0}, "group": "control_change"}, {"time": 1371, "annotation": {"number": 64, "value": 127}, "group": "control_change"}, {"time": 1392, "annotation": {"number": 64, "value": 0}, "group": "control_change"}, {"time": 1394, "annotation": {"number": 64, "value": 127}, "group": "control_change"}, {"time": 1417, "annotation": {"number": 64, "value": 0}, "group": "control_change"}, {"time": 1419, "annotation": {"number": 64, "value": 127}, "group": "control_change"}, {"time": 1441, "annotation": {"number": 64, "value": 0}, "group": "control_change"}, {"time": 1443, "annotation": {"number": 64, "value": 127}, "group": "control_change"}, {"time": 1465, "annotation": {"number": 64, "value": 0}, "group": "control_change"}, {"time": 1467, "annotation": {"number": 64, "value": 127}, "group": "control_change"}, {"time": 1488, "annotation": {"number": 64, "value": 0}, "group": "control_change"}, {"time": 1491, "annotation": {"number": 64, "value": 127}, "group": "control_change"}, {"time": 1501, "annotation": {"number": 64, "value": 0}, "group": "control_change"}, {"time": 1503, "annotation": {"number": 64, "value": 127}, "group": "control_change"}, {"time": 1512, "annotation": {"number": 64, "value": 0}, "group": "control_change"}, {"time": 1514, "annotation": {"number": 64, "value": 127}, "group": "control_change"}, {"time": 1538, "annotation": {"number": 64, "value": 0}, "group": "control_change"}, {"time": 1539, "annotation": {"number": 64, "value": 127}, "group": "control_change"}, {"time": 1561, "annotation": {"number": 64, "value": 0}, "group": "control_change"}, {"time": 1567, "annotation": {"number": 64, "value": 127}, "group": "control_change"}, {"time": 1568, "annotation": {"number": 64, "value": 0}, "group": "control_change"}, {"time": 1570, "annotation": {"number": 64, "value": 127}, "group": "control_change"}, {"time": 1572, "annotation": {"number": 64, "value": 0}, "group": "control_change"}, {"time": 1587, "annotation": {"number": 64, "value": 127}, "group": "control_change"}, {"time": 1609, "annotation": {"number": 64, "value": 0}, "group": "control_change"}, {"time": 1611, "annotation": {"number": 64, "value": 127}, "group": "control_change"}, {"time": 1633, "annotation": {"number": 64, "value": 0}, "group": "control_change"}, {"time": 1635, "annotation": {"number": 64, "value": 127}, "group": "control_change"}, {"time": 1657, "annotation": {"number": 64, "value": 0}, "group": "control_change"}, {"time": 1659, "annotation": {"number": 64, "value": 127}, "group": "control_change"}, {"time": 1663, "annotation": {"number": 64, "value": 0}, "group": "control_change"}, {"time": 1670, "annotation": {"number": 64, "value": 127}, "group": "control_change"}, {"time": 1672, "annotation": {"number": 64, "value": 0}, "group": "control_change"}, {"time": 1682, "annotation": {"number": 64, "value": 127}, "group": "control_change"}, {"time": 1705, "annotation": {"number": 64, "value": 0}, "group": "control_change"}, {"time": 1707, "annotation": {"number": 64, "value": 127}, "group": "control_change"}, {"time": 1729, "annotation": {"number": 64, "value": 0}, "group": "control_change"}, {"time": 1730, "annotation": {"number": 64, "value": 127}, "group": "control_change"}, {"time": 1753, "annotation": {"number": 64, "value": 0}, "group": "control_change"}, {"time": 1755, "annotation": {"number": 64, "value": 127}, "group": "control_change"}, {"time": 1777, "annotation": {"number": 64, "value": 0}, "group": "control_change"}, {"time": 1779, "annotation": {"number": 64, "value": 127}, "group": "control_change"}, {"time": 1801, "annotation": {"number": 64, "value": 0}, "group": "control_change"}, {"time": 1802, "annotation": {"number": 64, "value": 127}, "group": "control_change"}, {"time": 1825, "annotation": {"number": 64, "value": 0}, "group": "control_change"}, {"time": 1827, "annotation": {"number": 64, "value": 127}, "group": "control_change"}, {"time": 1849, "annotation": {"number": 64, "value": 0}, "group": "control_change"}, {"time": 1850, "annotation": {"number": 64, "value": 127}, "group": "control_change"}, {"time": 1873, "annotation": {"number": 64, "value": 0}, "group": "control_change"}, {"time": 1875, "annotation": {"number": 64, "value": 127}, "group": "control_change"}, {"time": 1897, "annotation": {"number": 64, "value": 0}, "group": "control_change"}, {"time": 1898, "annotation": {"number": 64, "value": 127}, "group": "control_change"}, {"time": 1921, "annotation": {"number": 64, "value": 0}, "group": "control_change"}, {"time": 1922, "annotation": {"number": 64, "value": 127}, "group": "control_change"}, {"time": 1933, "annotation": {"number": 64, "value": 0}, "group": "control_change"}, {"time": 1935, "annotation": {"number": 64, "value": 127}, "group": "control_change"}, {"time": 1945, "annotation": {"number": 64, "value": 0}, "group": "control_change"}, {"time": 1946, "annotation": {"number": 64, "value": 127}, "group": "control_change"}, {"time": 1968, "annotation": {"number": 64, "value": 0}, "group": "control_change"}, {"time": 1970, "annotation": {"number": 64, "value": 127}, "group": "control_change"}, {"time": 1993, "annotation": {"number": 64, "value": 0}, "group": "control_change"}, {"time": 1994, "annotation": {"number": 64, "value": 127}, "group": "control_change"}, {"time": 2017, "annotation": {"number": 64, "value": 0}, "group": "control_change"}, {"time": 2018, "annotation": {"number": 64, "value": 127}, "group": "control_change"}, {"time": 2041, "annotation": {"number": 64, "value": 0}, "group": "control_change"}, {"time": 2043, "annotation": {"number": 64, "value": 127}, "group": "control_change"}, {"time": 2066, "annotation": {"number": 64, "value": 0}, "group": "control_change"}, {"time": 2069, "annotation": {"number": 64, "value": 127}, "group": "control_change"}, {"time": 2088, "annotation": {"number": 64, "value": 0}, "group": "control_change"}, {"time": 2091, "annotation": {"number": 64, "value": 127}, "group": "control_change"}, {"time": 2113, "annotation": {"number": 64, "value": 0}, "group": "control_change"}, {"time": 2115, "annotation": {"number": 64, "value": 127}, "group": "control_change"}, {"time": 2137, "annotation": {"number": 64, "value": 0}, "group": "control_change"}, {"time": 2139, "annotation": {"number": 64, "value": 127}, "group": "control_change"}, {"time": 2150, "annotation": {"number": 64, "value": 0}, "group": "control_change"}, {"time": 2152, "annotation": {"number": 64, "value": 127}, "group": "control_change"}, {"time": 2161, "annotation": {"number": 64, "value": 0}, "group": "control_change"}, {"time": 2163, "annotation": {"number": 64, "value": 127}, "group": "control_change"}, {"time": 2185, "annotation": {"number": 64, "value": 0}, "group": "control_change"}, {"time": 2187, "annotation": {"number": 64, "value": 127}, "group": "control_change"}, {"time": 2209, "annotation": {"number": 64, "value": 0}, "group": "control_change"}, {"time": 2211, "annotation": {"number": 64, "value": 127}, "group": "control_change"}, {"time": 2233, "annotation": {"number": 64, "value": 0}, "group": "control_change"}, {"time": 2235, "annotation": {"number": 64, "value": 127}, "group": "control_change"}, {"time": 2257, "annotation": {"number": 64, "value": 0}, "group": "control_change"}, {"time": 2259, "annotation": {"number": 64, "value": 127}, "group": "control_change"}, {"time": 2280, "annotation": {"number": 64, "value": 0}, "group": "control_change"}, {"time": 2283, "annotation": {"number": 64, "value": 127}, "group": "control_change"}, {"time": 2305, "annotation": {"number": 64, "value": 0}, "group": "control_change"}, {"time": 2307, "annotation": {"number": 64, "value": 127}, "group": "control_change"}, {"time": 2329, "annotation": {"number": 64, "value": 0}, "group": "control_change"}, {"time": 2331, "annotation": {"number": 64, "value": 127}, "group": "control_change"}, {"time": 2342, "annotation": {"number": 64, "value": 0}, "group": "control_change"}, {"time": 2344, "annotation": {"number": 64, "value": 127}, "group": "control_change"}, {"time": 2353, "annotation": {"number": 64, "value": 0}, "group": "control_change"}, {"time": 2355, "annotation": {"number": 64, "value": 127}, "group": "control_change"}, {"time": 2377, "annotation": {"number": 64, "value": 0}, "group": "control_change"}, {"time": 2379, "annotation": {"number": 64, "value": 127}, "group": "control_change"}, {"time": 2401, "annotation": {"number": 64, "value": 0}, "group": "control_change"}, {"time": 2403, "annotation": {"number": 64, "value": 127}, "group": "control_change"}, {"time": 2425, "annotation": {"number": 64, "value": 0}, "group": "control_change"}, {"time": 2427, "annotation": {"number": 64, "value": 127}, "group": "control_change"}, {"time": 2450, "annotation": {"number": 64, "value": 0}, "group": "control_change"}, {"time": 2475, "annotation": {"number": 64, "value": 127}, "group": "control_change"}, {"time": 2487, "annotation": {"number": 64, "value": 0}, "group": "control_change"}, {"time": 2498, "annotation": {"number": 64, "value": 127}, "group": "control_change"}, {"time": 2499, "annotation": {"number": 64, "value": 0}, "group": "control_change"}, {"time": 2510, "annotation": {"number": 64, "value": 127}, "group": "control_change"}, {"time": 2511, "annotation": {"number": 64, "value": 0}, "group": "control_change"}, {"time": 2530, "annotation": {"number": 64, "value": 127}, "group": "control_change"}, {"time": 2544, "annotation": {"number": 64, "value": 0}, "group": "control_change"}, {"time": 2546, "annotation": {"number": 64, "value": 127}, "group": "control_change"}, {"time": 2569, "annotation": {"number": 64, "value": 0}, "group": "control_change"}, {"time": 2570, "annotation": {"number": 64, "value": 127}, "group": "control_change"}, {"time": 2581, "annotation": {"number": 64, "value": 0}, "group": "control_change"}, {"time": 2582, "annotation": {"number": 64, "value": 127}, "group": "control_change"}, {"time": 2593, "annotation": {"number": 64, "value": 0}, "group": "control_change"}, {"time": 2594, "annotation": {"number": 64, "value": 127}, "group": "control_change"}, {"time": 2616, "annotation": {"number": 64, "value": 0}, "group": "control_change"}, {"time": 2617, "annotation": {"number": 64, "value": 127}, "group": "control_change"}, {"time": 2641, "annotation": {"number": 64, "value": 0}, "group": "control_change"}, {"time": 2642, "annotation": {"number": 64, "value": 127}, "group": "control_change"}, {"time": 2664, "annotation": {"number": 64, "value": 0}, "group": "control_change"}, {"time": 2666, "annotation": {"number": 64, "value": 127}, "group": "control_change"}, {"time": 2669, "annotation": {"number": 64, "value": 0}, "group": "control_change"}, {"time": 2678, "annotation": {"number": 64, "value": 127}, "group": "control_change"}, {"time": 2680, "annotation": {"number": 64, "value": 0}, "group": "control_change"}, {"time": 2715, "annotation": {"number": 64, "value": 127}, "group": "control_change"}, {"time": 2737, "annotation": {"number": 64, "value": 0}, "group": "control_change"}, {"time": 2739, "annotation": {"number": 64, "value": 127}, "group": "control_change"}, {"time": 2761, "annotation": {"number": 64, "value": 0}, "group": "control_change"}, {"time": 2763, "annotation": {"number": 64, "value": 127}, "group": "control_change"}, {"time": 2773, "annotation": {"number": 64, "value": 0}, "group": "control_change"}, {"time": 2775, "annotation": {"number": 64, "value": 127}, "group": "control_change"}, {"time": 2785, "annotation": {"number": 64, "value": 0}, "group": "control_change"}, {"time": 2787, "annotation": {"number": 64, "value": 127}, "group": "control_change"}, {"time": 2808, "annotation": {"number": 64, "value": 0}, "group": "control_change"}, {"time": 2811, "annotation": {"number": 64, "value": 127}, "group": "control_change"}, {"time": 2833, "annotation": {"number": 64, "value": 0}, "group": "control_change"}, {"time": 2835, "annotation": {"number": 64, "value": 127}, "group": "control_change"}, {"time": 2857, "annotation": {"number": 64, "value": 0}, "group": "control_change"}, {"time": 2860, "annotation": {"number": 64, "value": 127}, "group": "control_change"}, {"time": 2862, "annotation": {"number": 64, "value": 0}, "group": "control_change"}, {"time": 2862, "annotation": {"number": 64, "value": 127}, "group": "control_change"}, {"time": 2863, "annotation": {"number": 64, "value": 0}, "group": "control_change"}, {"time": 2866, "annotation": {"number": 64, "value": 127}, "group": "control_change"}, {"time": 2868, "annotation": {"number": 64, "value": 0}, "group": "control_change"}, {"time": 2871, "annotation": {"number": 64, "value": 127}, "group": "control_change"}, {"time": 2876, "annotation": {"number": 64, "value": 0}, "group": "control_change"}, {"time": 2882, "annotation": {"number": 64, "value": 127}, "group": "control_change"}, {"time": 2884, "annotation": {"number": 64, "value": 0}, "group": "control_change"}, {"time": 2906, "annotation": {"number": 64, "value": 127}, "group": "control_change"}, {"time": 2929, "annotation": {"number": 64, "value": 0}, "group": "control_change"}, {"time": 2931, "annotation": {"number": 64, "value": 127}, "group": "control_change"}, {"time": 2952, "annotation": {"number": 64, "value": 0}, "group": "control_change"}, {"time": 2954, "annotation": {"number": 64, "value": 127}, "group": "control_change"}, {"time": 2977, "annotation": {"number": 64, "value": 0}, "group": "control_change"}, {"time": 2979, "annotation": {"number": 64, "value": 127}, "group": "control_change"}, {"time": 3000, "annotation": {"number": 64, "value": 0}, "group": "control_change"}, {"time": 3002, "annotation": {"number": 64, "value": 127}, "group": "control_change"}, {"time": 3025, "annotation": {"number": 64, "value": 0}, "group": "control_change"}, {"time": 3027, "annotation": {"number": 64, "value": 127}, "group": "control_change"}, {"time": 3049, "annotation": {"number": 64, "value": 0}, "group": "control_change"}, {"time": 3051, "annotation": {"number": 64, "value": 127}, "group": "control_change"}, {"time": 3072, "annotation": {"number": 64, "value": 0}, "group": "control_change"}, {"time": 3074, "annotation": {"number": 64, "value": 127}, "group": "control_change"}, {"time": 3075, "annotation": {"number": 64, "value": 0}, "group": "control_change"}, {"time": 3100, "annotation": {"number": 64, "value": 0}, "group": "control_change"}, {"time": 3132, "annotation": {"number": 64, "value": 127}, "group": "control_change"}, {"time": 3161, "annotation": {"number": 64, "value": 0}, "group": "control_change"}, {"time": 3162, "annotation": {"number": 64, "value": 127}, "group": "control_change"}]}]}