{"metadata": {"schema_version": "0.2", "title": "None", "source_filename": "380.mid", "source_format": "midi"}, "resolution": 12, "tempos": [{"time": 0, "qpm": 64.99999458333379}], "time_signatures": [{"time": 0, "numerator": 1, "denominator": 4}], "tracks": [{"program": 0, "is_drum": false, "name": "MELODY", "notes": [{"time": 419, "pitch": 62, "duration": 13, "velocity": 100}, {"time": 437, "pitch": 62, "duration": 3, "velocity": 90}, {"time": 443, "pitch": 62, "duration": 7, "velocity": 93}, {"time": 449, "pitch": 60, "duration": 11, "velocity": 56}, {"time": 467, "pitch": 62, "duration": 15, "velocity": 76}, {"time": 485, "pitch": 62, "duration": 1, "velocity": 66}, {"time": 488, "pitch": 62, "duration": 6, "velocity": 71}, {"time": 497, "pitch": 59, "duration": 14, "velocity": 67}, {"time": 515, "pitch": 62, "duration": 5, "velocity": 78}, {"time": 521, "pitch": 55, "duration": 1, "velocity": 46}, {"time": 524, "pitch": 55, "duration": 8, "velocity": 67}, {"time": 533, "pitch": 62, "duration": 7, "velocity": 65}, {"time": 539, "pitch": 60, "duration": 6, "velocity": 72}, {"time": 545, "pitch": 59, "duration": 8, "velocity": 69}, {"time": 560, "pitch": 55, "duration": 3, "velocity": 42}, {"time": 563, "pitch": 57, "duration": 5, "velocity": 73}, {"time": 569, "pitch": 59, "duration": 35, "velocity": 71}, {"time": 611, "pitch": 62, "duration": 14, "velocity": 97}, {"time": 629, "pitch": 62, "duration": 1, "velocity": 75}, {"time": 632, "pitch": 62, "duration": 6, "velocity": 85}, {"time": 638, "pitch": 60, "duration": 18, "velocity": 85}, {"time": 659, "pitch": 69, "duration": 13, "velocity": 93}, {"time": 677, "pitch": 69, "duration": 1, "velocity": 92}, {"time": 680, "pitch": 69, "duration": 5, "velocity": 93}, {"time": 686, "pitch": 67, "duration": 15, "velocity": 88}, {"time": 707, "pitch": 62, "duration": 5, "velocity": 82}, {"time": 713, "pitch": 55, "duration": 2, "velocity": 66}, {"time": 716, "pitch": 55, "duration": 7, "velocity": 74}, {"time": 725, "pitch": 62, "duration": 4, "velocity": 88}, {"time": 731, "pitch": 60, "duration": 6, "velocity": 74}, {"time": 737, "pitch": 59, "duration": 5, "velocity": 68}, {"time": 743, "pitch": 57, "duration": 5, "velocity": 53}, {"time": 749, "pitch": 55, "duration": 6, "velocity": 77}, {"time": 755, "pitch": 55, "duration": 1, "velocity": 79}, {"time": 803, "pitch": 67, "duration": 21, "velocity": 90}, {"time": 827, "pitch": 66, "duration": 3, "velocity": 99}, {"time": 830, "pitch": 67, "duration": 3, "velocity": 69}, {"time": 833, "pitch": 66, "duration": 3, "velocity": 96}, {"time": 836, "pitch": 62, "duration": 14, "velocity": 89}, {"time": 851, "pitch": 64, "duration": 3, "velocity": 89}, {"time": 854, "pitch": 62, "duration": 2, "velocity": 73}, {"time": 857, "pitch": 59, "duration": 3, "velocity": 67}, {"time": 860, "pitch": 64, "duration": 3, "velocity": 73}, {"time": 863, "pitch": 62, "duration": 4, "velocity": 73}, {"time": 869, "pitch": 57, "duration": 2, "velocity": 74}, {"time": 872, "pitch": 59, "duration": 21, "velocity": 82}, {"time": 899, "pitch": 60, "duration": 6, "velocity": 95}, {"time": 905, "pitch": 59, "duration": 2, "velocity": 78}, {"time": 908, "pitch": 60, "duration": 5, "velocity": 97}, {"time": 914, "pitch": 67, "duration": 7, "velocity": 95}, {"time": 923, "pitch": 66, "duration": 4, "velocity": 122}, {"time": 929, "pitch": 67, "duration": 2, "velocity": 92}, {"time": 932, "pitch": 66, "duration": 6, "velocity": 100}, {"time": 941, "pitch": 62, "duration": 4, "velocity": 95}, {"time": 947, "pitch": 59, "duration": 23, "velocity": 95}, {"time": 995, "pitch": 67, "duration": 19, "velocity": 83}, {"time": 1019, "pitch": 66, "duration": 3, "velocity": 112}, {"time": 1022, "pitch": 67, "duration": 3, "velocity": 81}, {"time": 1025, "pitch": 66, "duration": 2, "velocity": 102}, {"time": 1028, "pitch": 62, "duration": 7, "velocity": 95}, {"time": 1040, "pitch": 62, "duration": 2, "velocity": 92}, {"time": 1043, "pitch": 71, "duration": 5, "velocity": 97}, {"time": 1049, "pitch": 69, "duration": 1, "velocity": 89}, {"time": 1052, "pitch": 69, "duration": 6, "velocity": 93}, {"time": 1058, "pitch": 67, "duration": 5, "velocity": 96}, {"time": 1064, "pitch": 64, "duration": 11, "velocity": 96}, {"time": 1085, "pitch": 64, "duration": 2, "velocity": 82}, {"time": 1088, "pitch": 66, "duration": 2, "velocity": 89}, {"time": 1091, "pitch": 67, "duration": 8, "velocity": 83}, {"time": 1100, "pitch": 64, "duration": 9, "velocity": 90}, {"time": 1109, "pitch": 64, "duration": 1, "velocity": 81}, {"time": 1112, "pitch": 66, "duration": 1, "velocity": 73}, {"time": 1115, "pitch": 67, "duration": 7, "velocity": 89}, {"time": 1124, "pitch": 62, "duration": 9, "velocity": 97}, {"time": 1133, "pitch": 62, "duration": 1, "velocity": 95}, {"time": 1136, "pitch": 69, "duration": 32, "velocity": 95}, {"time": 1169, "pitch": 59, "duration": 5, "velocity": 89}, {"time": 1175, "pitch": 60, "duration": 5, "velocity": 96}, {"time": 1181, "pitch": 62, "duration": 6, "velocity": 96}, {"time": 1187, "pitch": 64, "duration": 12, "velocity": 86}, {"time": 1199, "pitch": 71, "duration": 9, "velocity": 102}, {"time": 1211, "pitch": 69, "duration": 4, "velocity": 100}, {"time": 1217, "pitch": 67, "duration": 2, "velocity": 92}, {"time": 1220, "pitch": 66, "duration": 8, "velocity": 100}, {"time": 1229, "pitch": 64, "duration": 2, "velocity": 100}, {"time": 1232, "pitch": 62, "duration": 3, "velocity": 92}, {"time": 1235, "pitch": 69, "duration": 3, "velocity": 117}, {"time": 1241, "pitch": 69, "duration": 1, "velocity": 100}, {"time": 1244, "pitch": 69, "duration": 6, "velocity": 122}, {"time": 1250, "pitch": 62, "duration": 5, "velocity": 95}, {"time": 1256, "pitch": 67, "duration": 11, "velocity": 99}, {"time": 1271, "pitch": 59, "duration": 3, "velocity": 95}, {"time": 1274, "pitch": 60, "duration": 4, "velocity": 90}, {"time": 1280, "pitch": 62, "duration": 3, "velocity": 79}, {"time": 1283, "pitch": 60, "duration": 10, "velocity": 112}, {"time": 1295, "pitch": 67, "duration": 9, "velocity": 96}, {"time": 1307, "pitch": 66, "duration": 6, "velocity": 107}, {"time": 1313, "pitch": 67, "duration": 3, "velocity": 75}, {"time": 1316, "pitch": 66, "duration": 6, "velocity": 102}, {"time": 1325, "pitch": 59, "duration": 4, "velocity": 100}, {"time": 1331, "pitch": 69, "duration": 5, "velocity": 122}, {"time": 1337, "pitch": 67, "duration": 2, "velocity": 112}, {"time": 1340, "pitch": 67, "duration": 20, "velocity": 102}, {"time": 1367, "pitch": 59, "duration": 3, "velocity": 102}, {"time": 1370, "pitch": 60, "duration": 3, "velocity": 96}, {"time": 1376, "pitch": 62, "duration": 4, "velocity": 97}, {"time": 1379, "pitch": 64, "duration": 12, "velocity": 100}, {"time": 1391, "pitch": 71, "duration": 6, "velocity": 112}, {"time": 1403, "pitch": 69, "duration": 3, "velocity": 102}, {"time": 1409, "pitch": 67, "duration": 1, "velocity": 95}, {"time": 1412, "pitch": 66, "duration": 4, "velocity": 99}, {"time": 1418, "pitch": 64, "duration": 6, "velocity": 107}, {"time": 1424, "pitch": 62, "duration": 3, "velocity": 92}, {"time": 1427, "pitch": 69, "duration": 4, "velocity": 100}, {"time": 1433, "pitch": 69, "duration": 1, "velocity": 112}, {"time": 1436, "pitch": 69, "duration": 4, "velocity": 85}, {"time": 1442, "pitch": 62, "duration": 5, "velocity": 100}, {"time": 1448, "pitch": 67, "duration": 6, "velocity": 79}, {"time": 1463, "pitch": 59, "duration": 3, "velocity": 90}, {"time": 1467, "pitch": 60, "duration": 2, "velocity": 99}, {"time": 1471, "pitch": 62, "duration": 2, "velocity": 83}, {"time": 1475, "pitch": 60, "duration": 12, "velocity": 112}, {"time": 1487, "pitch": 67, "duration": 9, "velocity": 112}, {"time": 1499, "pitch": 66, "duration": 3, "velocity": 112}, {"time": 1505, "pitch": 67, "duration": 2, "velocity": 88}, {"time": 1508, "pitch": 66, "duration": 7, "velocity": 112}, {"time": 1517, "pitch": 62, "duration": 3, "velocity": 96}, {"time": 1520, "pitch": 64, "duration": 36, "velocity": 97}, {"time": 1763, "pitch": 62, "duration": 13, "velocity": 104}, {"time": 1781, "pitch": 62, "duration": 3, "velocity": 110}, {"time": 1784, "pitch": 62, "duration": 7, "velocity": 109}, {"time": 1789, "pitch": 60, "duration": 12, "velocity": 107}, {"time": 1811, "pitch": 62, "duration": 15, "velocity": 104}, {"time": 1829, "pitch": 62, "duration": 1, "velocity": 97}, {"time": 1832, "pitch": 62, "duration": 6, "velocity": 96}, {"time": 1838, "pitch": 59, "duration": 14, "velocity": 93}, {"time": 1859, "pitch": 62, "duration": 5, "velocity": 97}, {"time": 1865, "pitch": 55, "duration": 1, "velocity": 100}, {"time": 1868, "pitch": 55, "duration": 8, "velocity": 100}, {"time": 1874, "pitch": 62, "duration": 7, "velocity": 102}, {"time": 1883, "pitch": 60, "duration": 6, "velocity": 101}, {"time": 1889, "pitch": 59, "duration": 8, "velocity": 99}, {"time": 1904, "pitch": 55, "duration": 3, "velocity": 94}, {"time": 1907, "pitch": 57, "duration": 5, "velocity": 93}, {"time": 1913, "pitch": 59, "duration": 18, "velocity": 92}, {"time": 1931, "pitch": 60, "duration": 5, "velocity": 111}, {"time": 1937, "pitch": 59, "duration": 6, "velocity": 96}, {"time": 1943, "pitch": 57, "duration": 7, "velocity": 93}, {"time": 1949, "pitch": 55, "duration": 5, "velocity": 90}, {"time": 1955, "pitch": 62, "duration": 14, "velocity": 101}, {"time": 1973, "pitch": 62, "duration": 1, "velocity": 79}, {"time": 1976, "pitch": 62, "duration": 6, "velocity": 89}, {"time": 1982, "pitch": 60, "duration": 18, "velocity": 89}, {"time": 2003, "pitch": 69, "duration": 13, "velocity": 93}, {"time": 2021, "pitch": 69, "duration": 1, "velocity": 92}, {"time": 2024, "pitch": 69, "duration": 5, "velocity": 93}, {"time": 2030, "pitch": 67, "duration": 15, "velocity": 86}, {"time": 2051, "pitch": 62, "duration": 5, "velocity": 96}, {"time": 2057, "pitch": 55, "duration": 2, "velocity": 98}, {"time": 2060, "pitch": 55, "duration": 7, "velocity": 98}, {"time": 2069, "pitch": 62, "duration": 4, "velocity": 100}, {"time": 2075, "pitch": 60, "duration": 6, "velocity": 100}, {"time": 2081, "pitch": 59, "duration": 5, "velocity": 100}, {"time": 2087, "pitch": 57, "duration": 5, "velocity": 100}, {"time": 2093, "pitch": 59, "duration": 6, "velocity": 100}, {"time": 2099, "pitch": 57, "duration": 6, "velocity": 100}, {"time": 2105, "pitch": 55, "duration": 30, "velocity": 79}, {"time": 2147, "pitch": 67, "duration": 21, "velocity": 90}, {"time": 2171, "pitch": 66, "duration": 3, "velocity": 99}, {"time": 2174, "pitch": 67, "duration": 3, "velocity": 69}, {"time": 2177, "pitch": 66, "duration": 3, "velocity": 96}, {"time": 2180, "pitch": 62, "duration": 14, "velocity": 89}, {"time": 2195, "pitch": 64, "duration": 3, "velocity": 89}, {"time": 2198, "pitch": 62, "duration": 2, "velocity": 73}, {"time": 2201, "pitch": 59, "duration": 3, "velocity": 67}, {"time": 2204, "pitch": 64, "duration": 3, "velocity": 73}, {"time": 2207, "pitch": 62, "duration": 4, "velocity": 73}, {"time": 2213, "pitch": 57, "duration": 2, "velocity": 74}, {"time": 2216, "pitch": 59, "duration": 27, "velocity": 82}, {"time": 2243, "pitch": 60, "duration": 6, "velocity": 95}, {"time": 2249, "pitch": 59, "duration": 2, "velocity": 78}, {"time": 2252, "pitch": 60, "duration": 5, "velocity": 97}, {"time": 2258, "pitch": 67, "duration": 7, "velocity": 95}, {"time": 2267, "pitch": 66, "duration": 4, "velocity": 122}, {"time": 2273, "pitch": 67, "duration": 2, "velocity": 92}, {"time": 2276, "pitch": 66, "duration": 6, "velocity": 100}, {"time": 2285, "pitch": 62, "duration": 4, "velocity": 95}, {"time": 2291, "pitch": 59, "duration": 15, "velocity": 95}, {"time": 2306, "pitch": 64, "duration": 5, "velocity": 92}, {"time": 2312, "pitch": 64, "duration": 3, "velocity": 96}, {"time": 2315, "pitch": 62, "duration": 15, "velocity": 97}, {"time": 2339, "pitch": 67, "duration": 19, "velocity": 83}, {"time": 2363, "pitch": 66, "duration": 3, "velocity": 112}, {"time": 2366, "pitch": 67, "duration": 3, "velocity": 81}, {"time": 2369, "pitch": 66, "duration": 2, "velocity": 102}, {"time": 2372, "pitch": 62, "duration": 7, "velocity": 95}, {"time": 2384, "pitch": 62, "duration": 2, "velocity": 92}, {"time": 2387, "pitch": 71, "duration": 5, "velocity": 97}, {"time": 2393, "pitch": 69, "duration": 1, "velocity": 89}, {"time": 2396, "pitch": 69, "duration": 6, "velocity": 93}, {"time": 2402, "pitch": 67, "duration": 5, "velocity": 96}, {"time": 2408, "pitch": 64, "duration": 11, "velocity": 96}, {"time": 2429, "pitch": 64, "duration": 2, "velocity": 82}, {"time": 2432, "pitch": 66, "duration": 2, "velocity": 89}, {"time": 2435, "pitch": 67, "duration": 8, "velocity": 83}, {"time": 2444, "pitch": 64, "duration": 9, "velocity": 90}, {"time": 2453, "pitch": 64, "duration": 1, "velocity": 81}, {"time": 2456, "pitch": 66, "duration": 1, "velocity": 73}, {"time": 2459, "pitch": 67, "duration": 7, "velocity": 89}, {"time": 2468, "pitch": 62, "duration": 9, "velocity": 97}, {"time": 2477, "pitch": 62, "duration": 1, "velocity": 95}, {"time": 2480, "pitch": 69, "duration": 32, "velocity": 95}, {"time": 2513, "pitch": 59, "duration": 5, "velocity": 89}, {"time": 2519, "pitch": 60, "duration": 5, "velocity": 96}, {"time": 2525, "pitch": 62, "duration": 6, "velocity": 96}, {"time": 2531, "pitch": 64, "duration": 12, "velocity": 86}, {"time": 2543, "pitch": 71, "duration": 9, "velocity": 102}, {"time": 2555, "pitch": 69, "duration": 4, "velocity": 100}, {"time": 2561, "pitch": 67, "duration": 2, "velocity": 92}, {"time": 2564, "pitch": 66, "duration": 8, "velocity": 100}, {"time": 2573, "pitch": 64, "duration": 2, "velocity": 100}, {"time": 2576, "pitch": 62, "duration": 3, "velocity": 92}, {"time": 2579, "pitch": 69, "duration": 3, "velocity": 117}, {"time": 2585, "pitch": 69, "duration": 1, "velocity": 100}, {"time": 2588, "pitch": 69, "duration": 6, "velocity": 122}, {"time": 2594, "pitch": 62, "duration": 5, "velocity": 95}, {"time": 2600, "pitch": 67, "duration": 11, "velocity": 99}, {"time": 2615, "pitch": 59, "duration": 3, "velocity": 95}, {"time": 2618, "pitch": 60, "duration": 4, "velocity": 90}, {"time": 2624, "pitch": 62, "duration": 3, "velocity": 79}, {"time": 2627, "pitch": 60, "duration": 10, "velocity": 112}, {"time": 2639, "pitch": 67, "duration": 9, "velocity": 96}, {"time": 2651, "pitch": 66, "duration": 6, "velocity": 107}, {"time": 2657, "pitch": 67, "duration": 3, "velocity": 75}, {"time": 2660, "pitch": 66, "duration": 6, "velocity": 102}, {"time": 2669, "pitch": 59, "duration": 4, "velocity": 100}, {"time": 2675, "pitch": 69, "duration": 5, "velocity": 122}, {"time": 2681, "pitch": 67, "duration": 2, "velocity": 112}, {"time": 2684, "pitch": 67, "duration": 20, "velocity": 102}, {"time": 2711, "pitch": 59, "duration": 3, "velocity": 102}, {"time": 2714, "pitch": 60, "duration": 3, "velocity": 96}, {"time": 2720, "pitch": 62, "duration": 4, "velocity": 97}, {"time": 2723, "pitch": 64, "duration": 12, "velocity": 100}, {"time": 2735, "pitch": 71, "duration": 6, "velocity": 112}, {"time": 2747, "pitch": 69, "duration": 3, "velocity": 102}, {"time": 2753, "pitch": 67, "duration": 1, "velocity": 95}, {"time": 2756, "pitch": 66, "duration": 4, "velocity": 99}, {"time": 2762, "pitch": 64, "duration": 6, "velocity": 107}, {"time": 2768, "pitch": 62, "duration": 3, "velocity": 92}, {"time": 2771, "pitch": 69, "duration": 4, "velocity": 100}, {"time": 2777, "pitch": 69, "duration": 1, "velocity": 112}, {"time": 2780, "pitch": 69, "duration": 4, "velocity": 85}, {"time": 2786, "pitch": 62, "duration": 5, "velocity": 100}, {"time": 2792, "pitch": 67, "duration": 6, "velocity": 79}, {"time": 2807, "pitch": 59, "duration": 3, "velocity": 90}, {"time": 2811, "pitch": 60, "duration": 2, "velocity": 99}, {"time": 2815, "pitch": 62, "duration": 2, "velocity": 83}, {"time": 2819, "pitch": 60, "duration": 12, "velocity": 112}, {"time": 2831, "pitch": 67, "duration": 9, "velocity": 112}, {"time": 2843, "pitch": 66, "duration": 3, "velocity": 112}, {"time": 2849, "pitch": 67, "duration": 2, "velocity": 88}, {"time": 2852, "pitch": 66, "duration": 7, "velocity": 112}, {"time": 2861, "pitch": 62, "duration": 3, "velocity": 96}, {"time": 2864, "pitch": 64, "duration": 36, "velocity": 97}, {"time": 3161, "pitch": 59, "duration": 5, "velocity": 89}, {"time": 3167, "pitch": 60, "duration": 5, "velocity": 96}, {"time": 3173, "pitch": 62, "duration": 6, "velocity": 96}, {"time": 3179, "pitch": 64, "duration": 12, "velocity": 86}, {"time": 3191, "pitch": 71, "duration": 9, "velocity": 102}, {"time": 3203, "pitch": 69, "duration": 4, "velocity": 100}, {"time": 3209, "pitch": 67, "duration": 2, "velocity": 92}, {"time": 3212, "pitch": 66, "duration": 8, "velocity": 100}, {"time": 3221, "pitch": 64, "duration": 2, "velocity": 100}, {"time": 3224, "pitch": 62, "duration": 3, "velocity": 92}, {"time": 3227, "pitch": 69, "duration": 3, "velocity": 117}, {"time": 3233, "pitch": 69, "duration": 1, "velocity": 100}, {"time": 3236, "pitch": 69, "duration": 6, "velocity": 122}, {"time": 3242, "pitch": 62, "duration": 5, "velocity": 95}, {"time": 3248, "pitch": 67, "duration": 11, "velocity": 99}, {"time": 3263, "pitch": 59, "duration": 3, "velocity": 95}, {"time": 3266, "pitch": 60, "duration": 4, "velocity": 90}, {"time": 3272, "pitch": 62, "duration": 3, "velocity": 79}, {"time": 3275, "pitch": 60, "duration": 10, "velocity": 112}, {"time": 3287, "pitch": 67, "duration": 9, "velocity": 96}, {"time": 3299, "pitch": 66, "duration": 6, "velocity": 107}, {"time": 3305, "pitch": 67, "duration": 3, "velocity": 75}, {"time": 3308, "pitch": 66, "duration": 6, "velocity": 102}, {"time": 3317, "pitch": 59, "duration": 4, "velocity": 100}, {"time": 3323, "pitch": 69, "duration": 5, "velocity": 122}, {"time": 3329, "pitch": 67, "duration": 2, "velocity": 112}, {"time": 3332, "pitch": 67, "duration": 20, "velocity": 102}, {"time": 3359, "pitch": 76, "duration": 3, "velocity": 127}, {"time": 3362, "pitch": 74, "duration": 3, "velocity": 117}, {"time": 3368, "pitch": 69, "duration": 3, "velocity": 112}, {"time": 3371, "pitch": 67, "duration": 10, "velocity": 100}, {"time": 3383, "pitch": 71, "duration": 6, "velocity": 112}, {"time": 3389, "pitch": 69, "duration": 4, "velocity": 112}, {"time": 3395, "pitch": 74, "duration": 5, "velocity": 107}, {"time": 3401, "pitch": 71, "duration": 2, "velocity": 107}, {"time": 3404, "pitch": 69, "duration": 4, "velocity": 97}, {"time": 3410, "pitch": 67, "duration": 4, "velocity": 112}, {"time": 3419, "pitch": 69, "duration": 4, "velocity": 100}, {"time": 3425, "pitch": 69, "duration": 1, "velocity": 112}, {"time": 3428, "pitch": 69, "duration": 4, "velocity": 85}, {"time": 3434, "pitch": 71, "duration": 4, "velocity": 122}, {"time": 3440, "pitch": 67, "duration": 12, "velocity": 79}, {"time": 3455, "pitch": 59, "duration": 3, "velocity": 90}, {"time": 3459, "pitch": 60, "duration": 2, "velocity": 99}, {"time": 3463, "pitch": 62, "duration": 2, "velocity": 83}, {"time": 3467, "pitch": 60, "duration": 12, "velocity": 112}, {"time": 3479, "pitch": 67, "duration": 9, "velocity": 112}, {"time": 3491, "pitch": 66, "duration": 3, "velocity": 112}, {"time": 3497, "pitch": 67, "duration": 2, "velocity": 88}, {"time": 3500, "pitch": 66, "duration": 7, "velocity": 112}, {"time": 3509, "pitch": 62, "duration": 3, "velocity": 96}, {"time": 3512, "pitch": 64, "duration": 36, "velocity": 97}]}, {"program": 0, "is_drum": false, "name": "BRIDGE", "notes": [{"time": 35, "pitch": 81, "duration": 3, "velocity": 96}, {"time": 38, "pitch": 83, "duration": 2, "velocity": 66}, {"time": 41, "pitch": 81, "duration": 3, "velocity": 52}, {"time": 44, "pitch": 83, "duration": 3, "velocity": 60}, {"time": 47, "pitch": 81, "duration": 3, "velocity": 72}, {"time": 50, "pitch": 83, "duration": 3, "velocity": 78}, {"time": 53, "pitch": 81, "duration": 3, "velocity": 89}, {"time": 56, "pitch": 83, "duration": 3, "velocity": 99}, {"time": 59, "pitch": 81, "duration": 3, "velocity": 96}, {"time": 62, "pitch": 83, "duration": 3, "velocity": 83}, {"time": 65, "pitch": 81, "duration": 3, "velocity": 85}, {"time": 68, "pitch": 83, "duration": 3, "velocity": 86}, {"time": 71, "pitch": 81, "duration": 3, "velocity": 96}, {"time": 74, "pitch": 83, "duration": 3, "velocity": 90}, {"time": 77, "pitch": 81, "duration": 3, "velocity": 100}, {"time": 80, "pitch": 83, "duration": 3, "velocity": 100}, {"time": 83, "pitch": 74, "duration": 2, "velocity": 83}, {"time": 83, "pitch": 78, "duration": 2, "velocity": 95}, {"time": 86, "pitch": 76, "duration": 2, "velocity": 56}, {"time": 86, "pitch": 79, "duration": 3, "velocity": 66}, {"time": 89, "pitch": 74, "duration": 3, "velocity": 66}, {"time": 89, "pitch": 78, "duration": 3, "velocity": 89}, {"time": 92, "pitch": 76, "duration": 3, "velocity": 81}, {"time": 92, "pitch": 79, "duration": 3, "velocity": 85}, {"time": 95, "pitch": 74, "duration": 3, "velocity": 89}, {"time": 95, "pitch": 78, "duration": 3, "velocity": 96}, {"time": 98, "pitch": 76, "duration": 3, "velocity": 97}, {"time": 98, "pitch": 79, "duration": 3, "velocity": 77}, {"time": 101, "pitch": 74, "duration": 3, "velocity": 83}, {"time": 101, "pitch": 78, "duration": 3, "velocity": 69}, {"time": 104, "pitch": 76, "duration": 3, "velocity": 89}, {"time": 104, "pitch": 79, "duration": 3, "velocity": 72}, {"time": 107, "pitch": 74, "duration": 3, "velocity": 59}, {"time": 107, "pitch": 78, "duration": 3, "velocity": 74}, {"time": 110, "pitch": 76, "duration": 3, "velocity": 62}, {"time": 110, "pitch": 79, "duration": 3, "velocity": 66}, {"time": 113, "pitch": 74, "duration": 3, "velocity": 56}, {"time": 113, "pitch": 78, "duration": 3, "velocity": 48}, {"time": 116, "pitch": 76, "duration": 3, "velocity": 71}, {"time": 116, "pitch": 79, "duration": 3, "velocity": 44}, {"time": 119, "pitch": 74, "duration": 3, "velocity": 71}, {"time": 119, "pitch": 78, "duration": 3, "velocity": 57}, {"time": 122, "pitch": 76, "duration": 3, "velocity": 82}, {"time": 122, "pitch": 79, "duration": 3, "velocity": 55}, {"time": 125, "pitch": 74, "duration": 3, "velocity": 86}, {"time": 125, "pitch": 78, "duration": 3, "velocity": 86}, {"time": 128, "pitch": 76, "duration": 2, "velocity": 96}, {"time": 128, "pitch": 79, "duration": 3, "velocity": 81}, {"time": 131, "pitch": 72, "duration": 3, "velocity": 81}, {"time": 131, "pitch": 76, "duration": 2, "velocity": 93}, {"time": 134, "pitch": 74, "duration": 2, "velocity": 55}, {"time": 134, "pitch": 78, "duration": 3, "velocity": 74}, {"time": 137, "pitch": 72, "duration": 3, "velocity": 69}, {"time": 137, "pitch": 76, "duration": 3, "velocity": 64}, {"time": 140, "pitch": 74, "duration": 3, "velocity": 72}, {"time": 140, "pitch": 78, "duration": 3, "velocity": 62}, {"time": 143, "pitch": 72, "duration": 3, "velocity": 82}, {"time": 143, "pitch": 76, "duration": 3, "velocity": 66}, {"time": 146, "pitch": 74, "duration": 3, "velocity": 79}, {"time": 146, "pitch": 78, "duration": 3, "velocity": 72}, {"time": 149, "pitch": 72, "duration": 3, "velocity": 90}, {"time": 149, "pitch": 76, "duration": 3, "velocity": 78}, {"time": 152, "pitch": 74, "duration": 3, "velocity": 85}, {"time": 152, "pitch": 78, "duration": 3, "velocity": 89}, {"time": 155, "pitch": 72, "duration": 3, "velocity": 70}, {"time": 155, "pitch": 76, "duration": 3, "velocity": 79}, {"time": 158, "pitch": 74, "duration": 3, "velocity": 53}, {"time": 158, "pitch": 78, "duration": 3, "velocity": 90}, {"time": 161, "pitch": 72, "duration": 3, "velocity": 60}, {"time": 161, "pitch": 76, "duration": 3, "velocity": 70}, {"time": 164, "pitch": 74, "duration": 3, "velocity": 67}, {"time": 164, "pitch": 78, "duration": 3, "velocity": 72}, {"time": 167, "pitch": 72, "duration": 3, "velocity": 88}, {"time": 167, "pitch": 76, "duration": 3, "velocity": 69}, {"time": 170, "pitch": 74, "duration": 3, "velocity": 88}, {"time": 170, "pitch": 78, "duration": 3, "velocity": 86}, {"time": 173, "pitch": 72, "duration": 3, "velocity": 82}, {"time": 173, "pitch": 76, "duration": 3, "velocity": 85}, {"time": 176, "pitch": 74, "duration": 2, "velocity": 88}, {"time": 176, "pitch": 78, "duration": 2, "velocity": 96}, {"time": 179, "pitch": 71, "duration": 2, "velocity": 88}, {"time": 182, "pitch": 72, "duration": 2, "velocity": 60}, {"time": 185, "pitch": 71, "duration": 37, "velocity": 81}, {"time": 227, "pitch": 81, "duration": 3, "velocity": 96}, {"time": 230, "pitch": 83, "duration": 2, "velocity": 66}, {"time": 233, "pitch": 81, "duration": 3, "velocity": 52}, {"time": 236, "pitch": 83, "duration": 3, "velocity": 60}, {"time": 239, "pitch": 81, "duration": 3, "velocity": 72}, {"time": 242, "pitch": 83, "duration": 3, "velocity": 78}, {"time": 245, "pitch": 81, "duration": 3, "velocity": 89}, {"time": 248, "pitch": 83, "duration": 3, "velocity": 99}, {"time": 251, "pitch": 81, "duration": 3, "velocity": 96}, {"time": 254, "pitch": 83, "duration": 3, "velocity": 83}, {"time": 257, "pitch": 81, "duration": 3, "velocity": 85}, {"time": 260, "pitch": 83, "duration": 3, "velocity": 86}, {"time": 263, "pitch": 81, "duration": 3, "velocity": 96}, {"time": 266, "pitch": 83, "duration": 3, "velocity": 90}, {"time": 269, "pitch": 81, "duration": 3, "velocity": 100}, {"time": 272, "pitch": 83, "duration": 3, "velocity": 100}, {"time": 275, "pitch": 74, "duration": 2, "velocity": 83}, {"time": 275, "pitch": 78, "duration": 2, "velocity": 95}, {"time": 278, "pitch": 76, "duration": 2, "velocity": 56}, {"time": 278, "pitch": 79, "duration": 3, "velocity": 66}, {"time": 281, "pitch": 74, "duration": 3, "velocity": 66}, {"time": 281, "pitch": 78, "duration": 3, "velocity": 89}, {"time": 284, "pitch": 76, "duration": 3, "velocity": 81}, {"time": 284, "pitch": 79, "duration": 3, "velocity": 85}, {"time": 287, "pitch": 74, "duration": 3, "velocity": 89}, {"time": 287, "pitch": 78, "duration": 3, "velocity": 96}, {"time": 290, "pitch": 76, "duration": 3, "velocity": 97}, {"time": 290, "pitch": 79, "duration": 3, "velocity": 77}, {"time": 293, "pitch": 74, "duration": 3, "velocity": 83}, {"time": 293, "pitch": 78, "duration": 3, "velocity": 69}, {"time": 296, "pitch": 76, "duration": 3, "velocity": 89}, {"time": 296, "pitch": 79, "duration": 3, "velocity": 72}, {"time": 299, "pitch": 74, "duration": 3, "velocity": 59}, {"time": 299, "pitch": 78, "duration": 3, "velocity": 74}, {"time": 302, "pitch": 76, "duration": 3, "velocity": 62}, {"time": 302, "pitch": 79, "duration": 3, "velocity": 66}, {"time": 305, "pitch": 74, "duration": 3, "velocity": 56}, {"time": 305, "pitch": 78, "duration": 3, "velocity": 48}, {"time": 308, "pitch": 76, "duration": 3, "velocity": 71}, {"time": 308, "pitch": 79, "duration": 3, "velocity": 44}, {"time": 311, "pitch": 74, "duration": 3, "velocity": 71}, {"time": 311, "pitch": 78, "duration": 3, "velocity": 57}, {"time": 314, "pitch": 76, "duration": 3, "velocity": 82}, {"time": 314, "pitch": 79, "duration": 3, "velocity": 55}, {"time": 317, "pitch": 74, "duration": 3, "velocity": 86}, {"time": 317, "pitch": 78, "duration": 3, "velocity": 86}, {"time": 320, "pitch": 76, "duration": 2, "velocity": 96}, {"time": 320, "pitch": 79, "duration": 3, "velocity": 81}, {"time": 323, "pitch": 72, "duration": 3, "velocity": 81}, {"time": 323, "pitch": 76, "duration": 2, "velocity": 93}, {"time": 326, "pitch": 74, "duration": 2, "velocity": 55}, {"time": 326, "pitch": 78, "duration": 3, "velocity": 74}, {"time": 329, "pitch": 72, "duration": 3, "velocity": 69}, {"time": 329, "pitch": 76, "duration": 3, "velocity": 64}, {"time": 332, "pitch": 74, "duration": 3, "velocity": 72}, {"time": 332, "pitch": 78, "duration": 3, "velocity": 62}, {"time": 335, "pitch": 72, "duration": 3, "velocity": 82}, {"time": 335, "pitch": 76, "duration": 3, "velocity": 66}, {"time": 338, "pitch": 74, "duration": 3, "velocity": 79}, {"time": 338, "pitch": 78, "duration": 3, "velocity": 72}, {"time": 341, "pitch": 72, "duration": 3, "velocity": 90}, {"time": 341, "pitch": 76, "duration": 3, "velocity": 78}, {"time": 344, "pitch": 74, "duration": 3, "velocity": 85}, {"time": 344, "pitch": 78, "duration": 3, "velocity": 89}, {"time": 347, "pitch": 72, "duration": 3, "velocity": 70}, {"time": 347, "pitch": 76, "duration": 3, "velocity": 79}, {"time": 350, "pitch": 74, "duration": 3, "velocity": 53}, {"time": 350, "pitch": 78, "duration": 3, "velocity": 90}, {"time": 353, "pitch": 72, "duration": 3, "velocity": 60}, {"time": 353, "pitch": 76, "duration": 3, "velocity": 70}, {"time": 356, "pitch": 74, "duration": 3, "velocity": 67}, {"time": 356, "pitch": 78, "duration": 3, "velocity": 72}, {"time": 359, "pitch": 72, "duration": 3, "velocity": 88}, {"time": 359, "pitch": 76, "duration": 3, "velocity": 69}, {"time": 362, "pitch": 74, "duration": 3, "velocity": 88}, {"time": 362, "pitch": 78, "duration": 3, "velocity": 86}, {"time": 365, "pitch": 72, "duration": 3, "velocity": 82}, {"time": 365, "pitch": 76, "duration": 3, "velocity": 85}, {"time": 368, "pitch": 74, "duration": 2, "velocity": 88}, {"time": 368, "pitch": 78, "duration": 2, "velocity": 96}, {"time": 371, "pitch": 71, "duration": 2, "velocity": 88}, {"time": 374, "pitch": 72, "duration": 2, "velocity": 60}, {"time": 377, "pitch": 71, "duration": 37, "velocity": 81}, {"time": 587, "pitch": 90, "duration": 9, "velocity": 127}, {"time": 596, "pitch": 86, "duration": 8, "velocity": 127}, {"time": 605, "pitch": 79, "duration": 26, "velocity": 96}, {"time": 779, "pitch": 83, "duration": 11, "velocity": 122}, {"time": 791, "pitch": 86, "duration": 21, "velocity": 122}, {"time": 947, "pitch": 74, "duration": 14, "velocity": 97}, {"time": 947, "pitch": 86, "duration": 12, "velocity": 93}, {"time": 959, "pitch": 69, "duration": 12, "velocity": 85}, {"time": 959, "pitch": 72, "duration": 8, "velocity": 96}, {"time": 971, "pitch": 71, "duration": 11, "velocity": 95}, {"time": 971, "pitch": 74, "duration": 7, "velocity": 99}, {"time": 983, "pitch": 74, "duration": 11, "velocity": 69}, {"time": 983, "pitch": 77, "duration": 12, "velocity": 75}, {"time": 983, "pitch": 79, "duration": 11, "velocity": 75}, {"time": 983, "pitch": 83, "duration": 11, "velocity": 72}, {"time": 1571, "pitch": 81, "duration": 3, "velocity": 96}, {"time": 1574, "pitch": 83, "duration": 2, "velocity": 66}, {"time": 1577, "pitch": 81, "duration": 3, "velocity": 52}, {"time": 1580, "pitch": 83, "duration": 3, "velocity": 60}, {"time": 1583, "pitch": 81, "duration": 3, "velocity": 72}, {"time": 1586, "pitch": 83, "duration": 3, "velocity": 78}, {"time": 1589, "pitch": 81, "duration": 3, "velocity": 89}, {"time": 1592, "pitch": 83, "duration": 3, "velocity": 99}, {"time": 1595, "pitch": 81, "duration": 3, "velocity": 96}, {"time": 1598, "pitch": 83, "duration": 3, "velocity": 83}, {"time": 1601, "pitch": 81, "duration": 3, "velocity": 85}, {"time": 1604, "pitch": 83, "duration": 3, "velocity": 86}, {"time": 1607, "pitch": 81, "duration": 3, "velocity": 96}, {"time": 1610, "pitch": 83, "duration": 3, "velocity": 90}, {"time": 1613, "pitch": 81, "duration": 3, "velocity": 100}, {"time": 1616, "pitch": 83, "duration": 3, "velocity": 100}, {"time": 1619, "pitch": 74, "duration": 2, "velocity": 83}, {"time": 1619, "pitch": 78, "duration": 2, "velocity": 95}, {"time": 1622, "pitch": 76, "duration": 2, "velocity": 56}, {"time": 1622, "pitch": 79, "duration": 3, "velocity": 66}, {"time": 1625, "pitch": 74, "duration": 3, "velocity": 66}, {"time": 1625, "pitch": 78, "duration": 3, "velocity": 89}, {"time": 1628, "pitch": 76, "duration": 3, "velocity": 81}, {"time": 1628, "pitch": 79, "duration": 3, "velocity": 85}, {"time": 1631, "pitch": 74, "duration": 3, "velocity": 89}, {"time": 1631, "pitch": 78, "duration": 3, "velocity": 96}, {"time": 1634, "pitch": 76, "duration": 3, "velocity": 97}, {"time": 1634, "pitch": 79, "duration": 3, "velocity": 77}, {"time": 1637, "pitch": 74, "duration": 3, "velocity": 83}, {"time": 1637, "pitch": 78, "duration": 3, "velocity": 69}, {"time": 1640, "pitch": 76, "duration": 3, "velocity": 89}, {"time": 1640, "pitch": 79, "duration": 3, "velocity": 72}, {"time": 1643, "pitch": 74, "duration": 3, "velocity": 59}, {"time": 1643, "pitch": 78, "duration": 3, "velocity": 74}, {"time": 1646, "pitch": 76, "duration": 3, "velocity": 62}, {"time": 1646, "pitch": 79, "duration": 3, "velocity": 66}, {"time": 1649, "pitch": 74, "duration": 3, "velocity": 56}, {"time": 1649, "pitch": 78, "duration": 3, "velocity": 48}, {"time": 1652, "pitch": 76, "duration": 3, "velocity": 71}, {"time": 1652, "pitch": 79, "duration": 3, "velocity": 44}, {"time": 1655, "pitch": 74, "duration": 3, "velocity": 71}, {"time": 1655, "pitch": 78, "duration": 3, "velocity": 57}, {"time": 1658, "pitch": 76, "duration": 3, "velocity": 82}, {"time": 1658, "pitch": 79, "duration": 3, "velocity": 55}, {"time": 1661, "pitch": 74, "duration": 3, "velocity": 86}, {"time": 1661, "pitch": 78, "duration": 3, "velocity": 86}, {"time": 1664, "pitch": 76, "duration": 2, "velocity": 96}, {"time": 1664, "pitch": 79, "duration": 3, "velocity": 81}, {"time": 1667, "pitch": 72, "duration": 3, "velocity": 81}, {"time": 1667, "pitch": 76, "duration": 2, "velocity": 93}, {"time": 1670, "pitch": 74, "duration": 2, "velocity": 55}, {"time": 1670, "pitch": 78, "duration": 3, "velocity": 74}, {"time": 1673, "pitch": 72, "duration": 3, "velocity": 69}, {"time": 1673, "pitch": 76, "duration": 3, "velocity": 64}, {"time": 1676, "pitch": 74, "duration": 3, "velocity": 72}, {"time": 1676, "pitch": 78, "duration": 3, "velocity": 62}, {"time": 1679, "pitch": 72, "duration": 3, "velocity": 82}, {"time": 1679, "pitch": 76, "duration": 3, "velocity": 66}, {"time": 1682, "pitch": 74, "duration": 3, "velocity": 79}, {"time": 1682, "pitch": 78, "duration": 3, "velocity": 72}, {"time": 1685, "pitch": 72, "duration": 3, "velocity": 90}, {"time": 1685, "pitch": 76, "duration": 3, "velocity": 78}, {"time": 1688, "pitch": 74, "duration": 3, "velocity": 85}, {"time": 1688, "pitch": 78, "duration": 3, "velocity": 89}, {"time": 1691, "pitch": 72, "duration": 3, "velocity": 70}, {"time": 1691, "pitch": 76, "duration": 3, "velocity": 79}, {"time": 1694, "pitch": 74, "duration": 3, "velocity": 53}, {"time": 1694, "pitch": 78, "duration": 3, "velocity": 90}, {"time": 1697, "pitch": 72, "duration": 3, "velocity": 60}, {"time": 1697, "pitch": 76, "duration": 3, "velocity": 70}, {"time": 1700, "pitch": 74, "duration": 3, "velocity": 67}, {"time": 1700, "pitch": 78, "duration": 3, "velocity": 72}, {"time": 1703, "pitch": 72, "duration": 3, "velocity": 88}, {"time": 1703, "pitch": 76, "duration": 3, "velocity": 69}, {"time": 1706, "pitch": 74, "duration": 3, "velocity": 88}, {"time": 1706, "pitch": 78, "duration": 3, "velocity": 86}, {"time": 1709, "pitch": 72, "duration": 3, "velocity": 82}, {"time": 1709, "pitch": 76, "duration": 3, "velocity": 85}, {"time": 1712, "pitch": 74, "duration": 2, "velocity": 88}, {"time": 1712, "pitch": 78, "duration": 2, "velocity": 96}, {"time": 1715, "pitch": 71, "duration": 2, "velocity": 88}, {"time": 1718, "pitch": 72, "duration": 2, "velocity": 60}, {"time": 1721, "pitch": 71, "duration": 37, "velocity": 81}, {"time": 2500, "pitch": 74, "duration": 2, "velocity": 107}, {"time": 2502, "pitch": 76, "duration": 2, "velocity": 83}, {"time": 2503, "pitch": 78, "duration": 3, "velocity": 100}, {"time": 2505, "pitch": 79, "duration": 3, "velocity": 95}, {"time": 2507, "pitch": 81, "duration": 3, "velocity": 100}, {"time": 2915, "pitch": 83, "duration": 35, "velocity": 112}, {"time": 2951, "pitch": 88, "duration": 11, "velocity": 127}, {"time": 2963, "pitch": 81, "duration": 41, "velocity": 107}, {"time": 2999, "pitch": 88, "duration": 11, "velocity": 122}, {"time": 3011, "pitch": 79, "duration": 41, "velocity": 107}, {"time": 3047, "pitch": 81, "duration": 12, "velocity": 127}, {"time": 3059, "pitch": 83, "duration": 24, "velocity": 107}, {"time": 3079, "pitch": 78, "duration": 2, "velocity": 79}, {"time": 3080, "pitch": 76, "duration": 2, "velocity": 69}, {"time": 3081, "pitch": 74, "duration": 2, "velocity": 89}, {"time": 3083, "pitch": 71, "duration": 19, "velocity": 92}, {"time": 3095, "pitch": 76, "duration": 12, "velocity": 117}, {"time": 3107, "pitch": 78, "duration": 45, "velocity": 100}, {"time": 3563, "pitch": 76, "duration": 13, "velocity": 102}, {"time": 3576, "pitch": 83, "duration": 13, "velocity": 117}, {"time": 3589, "pitch": 81, "duration": 6, "velocity": 122}, {"time": 3595, "pitch": 79, "duration": 6, "velocity": 97}, {"time": 3601, "pitch": 78, "duration": 11, "velocity": 107}, {"time": 3614, "pitch": 81, "duration": 19, "velocity": 100}, {"time": 3635, "pitch": 74, "duration": 4, "velocity": 99}, {"time": 3639, "pitch": 78, "duration": 3, "velocity": 76}, {"time": 3642, "pitch": 79, "duration": 16, "velocity": 95}, {"time": 3657, "pitch": 59, "duration": 3, "velocity": 112}, {"time": 3660, "pitch": 60, "duration": 4, "velocity": 97}, {"time": 3664, "pitch": 62, "duration": 6, "velocity": 96}, {"time": 3669, "pitch": 60, "duration": 45, "velocity": 107}, {"time": 3714, "pitch": 66, "duration": 47, "velocity": 96}]}, {"program": 0, "is_drum": false, "name": "PIANO", "notes": [{"time": 35, "pitch": 60, "duration": 47, "velocity": 83}, {"time": 71, "pitch": 74, "duration": 15, "velocity": 82}, {"time": 83, "pitch": 59, "duration": 48, "velocity": 86}, {"time": 131, "pitch": 57, "duration": 47, "velocity": 90}, {"time": 179, "pitch": 55, "duration": 36, "velocity": 70}, {"time": 185, "pitch": 71, "duration": 5, "velocity": 74}, {"time": 191, "pitch": 62, "duration": 12, "velocity": 77}, {"time": 203, "pitch": 67, "duration": 12, "velocity": 63}, {"time": 215, "pitch": 71, "duration": 13, "velocity": 63}, {"time": 227, "pitch": 48, "duration": 41, "velocity": 75}, {"time": 233, "pitch": 55, "duration": 33, "velocity": 41}, {"time": 239, "pitch": 67, "duration": 36, "velocity": 86}, {"time": 263, "pitch": 60, "duration": 12, "velocity": 53}, {"time": 263, "pitch": 64, "duration": 12, "velocity": 64}, {"time": 275, "pitch": 47, "duration": 23, "velocity": 76}, {"time": 281, "pitch": 54, "duration": 8, "velocity": 52}, {"time": 287, "pitch": 62, "duration": 16, "velocity": 64}, {"time": 287, "pitch": 66, "duration": 9, "velocity": 66}, {"time": 299, "pitch": 52, "duration": 15, "velocity": 72}, {"time": 305, "pitch": 59, "duration": 21, "velocity": 47}, {"time": 311, "pitch": 64, "duration": 13, "velocity": 67}, {"time": 311, "pitch": 67, "duration": 13, "velocity": 63}, {"time": 323, "pitch": 45, "duration": 18, "velocity": 75}, {"time": 329, "pitch": 52, "duration": 11, "velocity": 60}, {"time": 335, "pitch": 60, "duration": 12, "velocity": 66}, {"time": 335, "pitch": 64, "duration": 9, "velocity": 61}, {"time": 341, "pitch": 57, "duration": 6, "velocity": 57}, {"time": 347, "pitch": 50, "duration": 14, "velocity": 76}, {"time": 359, "pitch": 57, "duration": 13, "velocity": 49}, {"time": 359, "pitch": 62, "duration": 13, "velocity": 55}, {"time": 359, "pitch": 66, "duration": 13, "velocity": 53}, {"time": 371, "pitch": 43, "duration": 48, "velocity": 77}, {"time": 377, "pitch": 50, "duration": 41, "velocity": 67}, {"time": 383, "pitch": 55, "duration": 35, "velocity": 67}, {"time": 419, "pitch": 48, "duration": 35, "velocity": 42}, {"time": 419, "pitch": 55, "duration": 34, "velocity": 54}, {"time": 419, "pitch": 60, "duration": 36, "velocity": 58}, {"time": 419, "pitch": 64, "duration": 36, "velocity": 60}, {"time": 419, "pitch": 67, "duration": 36, "velocity": 59}, {"time": 467, "pitch": 47, "duration": 38, "velocity": 45}, {"time": 467, "pitch": 54, "duration": 37, "velocity": 50}, {"time": 467, "pitch": 59, "duration": 38, "velocity": 37}, {"time": 467, "pitch": 62, "duration": 41, "velocity": 48}, {"time": 467, "pitch": 66, "duration": 33, "velocity": 43}, {"time": 503, "pitch": 66, "duration": 5, "velocity": 76}, {"time": 515, "pitch": 45, "duration": 16, "velocity": 50}, {"time": 515, "pitch": 52, "duration": 16, "velocity": 59}, {"time": 515, "pitch": 57, "duration": 23, "velocity": 49}, {"time": 515, "pitch": 60, "duration": 21, "velocity": 61}, {"time": 515, "pitch": 64, "duration": 18, "velocity": 53}, {"time": 539, "pitch": 50, "duration": 12, "velocity": 65}, {"time": 545, "pitch": 57, "duration": 20, "velocity": 54}, {"time": 551, "pitch": 62, "duration": 13, "velocity": 52}, {"time": 551, "pitch": 66, "duration": 12, "velocity": 42}, {"time": 563, "pitch": 43, "duration": 39, "velocity": 69}, {"time": 569, "pitch": 50, "duration": 32, "velocity": 36}, {"time": 575, "pitch": 55, "duration": 24, "velocity": 40}, {"time": 587, "pitch": 59, "duration": 15, "velocity": 38}, {"time": 587, "pitch": 62, "duration": 16, "velocity": 36}, {"time": 611, "pitch": 48, "duration": 37, "velocity": 59}, {"time": 611, "pitch": 60, "duration": 14, "velocity": 48}, {"time": 611, "pitch": 64, "duration": 39, "velocity": 53}, {"time": 611, "pitch": 67, "duration": 39, "velocity": 46}, {"time": 611, "pitch": 71, "duration": 1, "velocity": 58}, {"time": 617, "pitch": 55, "duration": 32, "velocity": 38}, {"time": 617, "pitch": 71, "duration": 1, "velocity": 25}, {"time": 623, "pitch": 71, "duration": 27, "velocity": 44}, {"time": 629, "pitch": 60, "duration": 23, "velocity": 41}, {"time": 659, "pitch": 47, "duration": 13, "velocity": 61}, {"time": 659, "pitch": 59, "duration": 10, "velocity": 51}, {"time": 659, "pitch": 62, "duration": 21, "velocity": 59}, {"time": 659, "pitch": 66, "duration": 18, "velocity": 53}, {"time": 659, "pitch": 69, "duration": 19, "velocity": 52}, {"time": 677, "pitch": 59, "duration": 2, "velocity": 23}, {"time": 683, "pitch": 40, "duration": 14, "velocity": 52}, {"time": 683, "pitch": 52, "duration": 18, "velocity": 57}, {"time": 683, "pitch": 59, "duration": 15, "velocity": 60}, {"time": 683, "pitch": 64, "duration": 10, "velocity": 58}, {"time": 683, "pitch": 67, "duration": 10, "velocity": 63}, {"time": 695, "pitch": 67, "duration": 5, "velocity": 90}, {"time": 698, "pitch": 66, "duration": 3, "velocity": 95}, {"time": 701, "pitch": 59, "duration": 7, "velocity": 67}, {"time": 707, "pitch": 45, "duration": 13, "velocity": 69}, {"time": 707, "pitch": 60, "duration": 22, "velocity": 69}, {"time": 707, "pitch": 64, "duration": 17, "velocity": 65}, {"time": 713, "pitch": 52, "duration": 7, "velocity": 47}, {"time": 719, "pitch": 57, "duration": 13, "velocity": 37}, {"time": 731, "pitch": 50, "duration": 15, "velocity": 59}, {"time": 731, "pitch": 62, "duration": 9, "velocity": 67}, {"time": 731, "pitch": 66, "duration": 25, "velocity": 65}, {"time": 743, "pitch": 62, "duration": 12, "velocity": 77}, {"time": 749, "pitch": 57, "duration": 6, "velocity": 53}, {"time": 755, "pitch": 43, "duration": 40, "velocity": 68}, {"time": 761, "pitch": 50, "duration": 32, "velocity": 63}, {"time": 767, "pitch": 55, "duration": 22, "velocity": 58}, {"time": 773, "pitch": 59, "duration": 19, "velocity": 57}, {"time": 779, "pitch": 62, "duration": 10, "velocity": 55}, {"time": 779, "pitch": 67, "duration": 10, "velocity": 58}, {"time": 791, "pitch": 67, "duration": 7, "velocity": 99}, {"time": 797, "pitch": 62, "duration": 5, "velocity": 58}, {"time": 803, "pitch": 36, "duration": 2, "velocity": 72}, {"time": 803, "pitch": 60, "duration": 14, "velocity": 75}, {"time": 803, "pitch": 64, "duration": 6, "velocity": 74}, {"time": 803, "pitch": 67, "duration": 11, "velocity": 73}, {"time": 809, "pitch": 48, "duration": 24, "velocity": 55}, {"time": 815, "pitch": 55, "duration": 18, "velocity": 96}, {"time": 821, "pitch": 60, "duration": 17, "velocity": 62}, {"time": 827, "pitch": 64, "duration": 11, "velocity": 63}, {"time": 827, "pitch": 67, "duration": 11, "velocity": 64}, {"time": 839, "pitch": 60, "duration": 3, "velocity": 42}, {"time": 839, "pitch": 64, "duration": 6, "velocity": 89}, {"time": 839, "pitch": 67, "duration": 6, "velocity": 89}, {"time": 845, "pitch": 60, "duration": 1, "velocity": 33}, {"time": 851, "pitch": 47, "duration": 16, "velocity": 65}, {"time": 851, "pitch": 59, "duration": 21, "velocity": 74}, {"time": 851, "pitch": 62, "duration": 9, "velocity": 74}, {"time": 851, "pitch": 66, "duration": 9, "velocity": 74}, {"time": 857, "pitch": 54, "duration": 9, "velocity": 61}, {"time": 863, "pitch": 66, "duration": 21, "velocity": 97}, {"time": 869, "pitch": 62, "duration": 16, "velocity": 60}, {"time": 875, "pitch": 59, "duration": 13, "velocity": 37}, {"time": 887, "pitch": 66, "duration": 6, "velocity": 112}, {"time": 893, "pitch": 59, "duration": 7, "velocity": 69}, {"time": 899, "pitch": 45, "duration": 14, "velocity": 82}, {"time": 905, "pitch": 52, "duration": 7, "velocity": 66}, {"time": 911, "pitch": 64, "duration": 12, "velocity": 92}, {"time": 917, "pitch": 60, "duration": 8, "velocity": 62}, {"time": 923, "pitch": 38, "duration": 14, "velocity": 75}, {"time": 929, "pitch": 45, "duration": 9, "velocity": 60}, {"time": 935, "pitch": 50, "duration": 6, "velocity": 63}, {"time": 935, "pitch": 66, "duration": 12, "velocity": 92}, {"time": 941, "pitch": 62, "duration": 6, "velocity": 60}, {"time": 947, "pitch": 43, "duration": 12, "velocity": 92}, {"time": 947, "pitch": 55, "duration": 12, "velocity": 93}, {"time": 959, "pitch": 45, "duration": 12, "velocity": 96}, {"time": 959, "pitch": 57, "duration": 11, "velocity": 117}, {"time": 971, "pitch": 47, "duration": 12, "velocity": 76}, {"time": 971, "pitch": 59, "duration": 11, "velocity": 97}, {"time": 983, "pitch": 41, "duration": 12, "velocity": 82}, {"time": 983, "pitch": 55, "duration": 12, "velocity": 78}, {"time": 983, "pitch": 59, "duration": 12, "velocity": 93}, {"time": 983, "pitch": 62, "duration": 12, "velocity": 83}, {"time": 983, "pitch": 65, "duration": 12, "velocity": 82}, {"time": 995, "pitch": 36, "duration": 38, "velocity": 90}, {"time": 1001, "pitch": 43, "duration": 32, "velocity": 58}, {"time": 1007, "pitch": 52, "duration": 24, "velocity": 77}, {"time": 1007, "pitch": 55, "duration": 27, "velocity": 69}, {"time": 1013, "pitch": 48, "duration": 19, "velocity": 40}, {"time": 1019, "pitch": 60, "duration": 10, "velocity": 64}, {"time": 1031, "pitch": 60, "duration": 4, "velocity": 90}, {"time": 1043, "pitch": 47, "duration": 13, "velocity": 52}, {"time": 1043, "pitch": 51, "duration": 13, "velocity": 65}, {"time": 1043, "pitch": 54, "duration": 12, "velocity": 52}, {"time": 1043, "pitch": 59, "duration": 13, "velocity": 89}, {"time": 1043, "pitch": 63, "duration": 22, "velocity": 93}, {"time": 1043, "pitch": 66, "duration": 19, "velocity": 81}, {"time": 1043, "pitch": 69, "duration": 9, "velocity": 60}, {"time": 1055, "pitch": 69, "duration": 8, "velocity": 75}, {"time": 1061, "pitch": 59, "duration": 12, "velocity": 52}, {"time": 1067, "pitch": 40, "duration": 17, "velocity": 74}, {"time": 1067, "pitch": 64, "duration": 5, "velocity": 69}, {"time": 1067, "pitch": 67, "duration": 5, "velocity": 69}, {"time": 1073, "pitch": 47, "duration": 11, "velocity": 43}, {"time": 1079, "pitch": 52, "duration": 5, "velocity": 70}, {"time": 1079, "pitch": 55, "duration": 8, "velocity": 73}, {"time": 1091, "pitch": 45, "duration": 16, "velocity": 82}, {"time": 1097, "pitch": 52, "duration": 8, "velocity": 63}, {"time": 1103, "pitch": 64, "duration": 7, "velocity": 90}, {"time": 1109, "pitch": 57, "duration": 3, "velocity": 53}, {"time": 1115, "pitch": 36, "duration": 15, "velocity": 72}, {"time": 1115, "pitch": 55, "duration": 18, "velocity": 69}, {"time": 1115, "pitch": 60, "duration": 21, "velocity": 72}, {"time": 1115, "pitch": 63, "duration": 18, "velocity": 76}, {"time": 1139, "pitch": 38, "duration": 38, "velocity": 73}, {"time": 1139, "pitch": 57, "duration": 8, "velocity": 66}, {"time": 1139, "pitch": 62, "duration": 6, "velocity": 65}, {"time": 1139, "pitch": 66, "duration": 7, "velocity": 72}, {"time": 1145, "pitch": 45, "duration": 18, "velocity": 85}, {"time": 1151, "pitch": 50, "duration": 6, "velocity": 86}, {"time": 1157, "pitch": 54, "duration": 5, "velocity": 74}, {"time": 1163, "pitch": 50, "duration": 13, "velocity": 92}, {"time": 1163, "pitch": 54, "duration": 11, "velocity": 93}, {"time": 1163, "pitch": 57, "duration": 11, "velocity": 90}, {"time": 1175, "pitch": 54, "duration": 1, "velocity": 96}, {"time": 1175, "pitch": 57, "duration": 2, "velocity": 86}, {"time": 1187, "pitch": 36, "duration": 13, "velocity": 85}, {"time": 1187, "pitch": 55, "duration": 17, "velocity": 95}, {"time": 1187, "pitch": 60, "duration": 6, "velocity": 97}, {"time": 1187, "pitch": 64, "duration": 9, "velocity": 90}, {"time": 1193, "pitch": 43, "duration": 7, "velocity": 61}, {"time": 1199, "pitch": 60, "duration": 4, "velocity": 112}, {"time": 1199, "pitch": 64, "duration": 5, "velocity": 97}, {"time": 1211, "pitch": 38, "duration": 12, "velocity": 36}, {"time": 1211, "pitch": 57, "duration": 11, "velocity": 93}, {"time": 1211, "pitch": 62, "duration": 10, "velocity": 100}, {"time": 1211, "pitch": 66, "duration": 11, "velocity": 107}, {"time": 1223, "pitch": 66, "duration": 7, "velocity": 89}, {"time": 1229, "pitch": 57, "duration": 2, "velocity": 32}, {"time": 1235, "pitch": 47, "duration": 14, "velocity": 78}, {"time": 1241, "pitch": 54, "duration": 7, "velocity": 107}, {"time": 1247, "pitch": 66, "duration": 6, "velocity": 127}, {"time": 1253, "pitch": 62, "duration": 5, "velocity": 93}, {"time": 1256, "pitch": 59, "duration": 3, "velocity": 60}, {"time": 1259, "pitch": 40, "duration": 18, "velocity": 79}, {"time": 1262, "pitch": 47, "duration": 16, "velocity": 75}, {"time": 1265, "pitch": 52, "duration": 8, "velocity": 96}, {"time": 1268, "pitch": 55, "duration": 10, "velocity": 81}, {"time": 1271, "pitch": 64, "duration": 13, "velocity": 92}, {"time": 1277, "pitch": 59, "duration": 6, "velocity": 62}, {"time": 1283, "pitch": 45, "duration": 14, "velocity": 78}, {"time": 1289, "pitch": 52, "duration": 7, "velocity": 66}, {"time": 1295, "pitch": 64, "duration": 12, "velocity": 102}, {"time": 1301, "pitch": 57, "duration": 6, "velocity": 86}, {"time": 1307, "pitch": 35, "duration": 16, "velocity": 74}, {"time": 1313, "pitch": 47, "duration": 13, "velocity": 61}, {"time": 1319, "pitch": 62, "duration": 12, "velocity": 88}, {"time": 1319, "pitch": 66, "duration": 10, "velocity": 107}, {"time": 1325, "pitch": 59, "duration": 6, "velocity": 73}, {"time": 1331, "pitch": 40, "duration": 23, "velocity": 73}, {"time": 1334, "pitch": 47, "duration": 22, "velocity": 65}, {"time": 1337, "pitch": 52, "duration": 7, "velocity": 82}, {"time": 1340, "pitch": 55, "duration": 4, "velocity": 69}, {"time": 1343, "pitch": 64, "duration": 21, "velocity": 99}, {"time": 1346, "pitch": 52, "duration": 4, "velocity": 85}, {"time": 1349, "pitch": 55, "duration": 12, "velocity": 75}, {"time": 1352, "pitch": 59, "duration": 12, "velocity": 82}, {"time": 1355, "pitch": 40, "duration": 15, "velocity": 66}, {"time": 1358, "pitch": 47, "duration": 10, "velocity": 70}, {"time": 1361, "pitch": 52, "duration": 4, "velocity": 81}, {"time": 1364, "pitch": 55, "duration": 4, "velocity": 75}, {"time": 1367, "pitch": 64, "duration": 9, "velocity": 107}, {"time": 1370, "pitch": 47, "duration": 1, "velocity": 99}, {"time": 1373, "pitch": 59, "duration": 3, "velocity": 99}, {"time": 1376, "pitch": 55, "duration": 20, "velocity": 73}, {"time": 1379, "pitch": 36, "duration": 19, "velocity": 93}, {"time": 1379, "pitch": 60, "duration": 15, "velocity": 97}, {"time": 1379, "pitch": 64, "duration": 18, "velocity": 89}, {"time": 1385, "pitch": 43, "duration": 18, "velocity": 45}, {"time": 1391, "pitch": 48, "duration": 3, "velocity": 92}, {"time": 1397, "pitch": 60, "duration": 1, "velocity": 96}, {"time": 1403, "pitch": 38, "duration": 17, "velocity": 88}, {"time": 1403, "pitch": 57, "duration": 12, "velocity": 90}, {"time": 1403, "pitch": 62, "duration": 10, "velocity": 100}, {"time": 1403, "pitch": 66, "duration": 10, "velocity": 112}, {"time": 1409, "pitch": 45, "duration": 12, "velocity": 72}, {"time": 1415, "pitch": 50, "duration": 7, "velocity": 77}, {"time": 1415, "pitch": 62, "duration": 9, "velocity": 97}, {"time": 1421, "pitch": 57, "duration": 6, "velocity": 89}, {"time": 1427, "pitch": 47, "duration": 13, "velocity": 96}, {"time": 1433, "pitch": 54, "duration": 7, "velocity": 54}, {"time": 1439, "pitch": 62, "duration": 11, "velocity": 66}, {"time": 1439, "pitch": 66, "duration": 6, "velocity": 107}, {"time": 1445, "pitch": 59, "duration": 16, "velocity": 63}, {"time": 1451, "pitch": 40, "duration": 16, "velocity": 81}, {"time": 1457, "pitch": 47, "duration": 11, "velocity": 62}, {"time": 1463, "pitch": 52, "duration": 7, "velocity": 79}, {"time": 1463, "pitch": 64, "duration": 13, "velocity": 83}, {"time": 1463, "pitch": 67, "duration": 13, "velocity": 90}, {"time": 1469, "pitch": 59, "duration": 7, "velocity": 72}, {"time": 1475, "pitch": 45, "duration": 16, "velocity": 92}, {"time": 1481, "pitch": 52, "duration": 10, "velocity": 69}, {"time": 1487, "pitch": 60, "duration": 9, "velocity": 83}, {"time": 1487, "pitch": 64, "duration": 6, "velocity": 78}, {"time": 1493, "pitch": 57, "duration": 3, "velocity": 74}, {"time": 1499, "pitch": 47, "duration": 14, "velocity": 74}, {"time": 1499, "pitch": 59, "duration": 15, "velocity": 82}, {"time": 1499, "pitch": 63, "duration": 17, "velocity": 70}, {"time": 1499, "pitch": 66, "duration": 17, "velocity": 74}, {"time": 1523, "pitch": 40, "duration": 45, "velocity": 86}, {"time": 1529, "pitch": 47, "duration": 8, "velocity": 40}, {"time": 1535, "pitch": 52, "duration": 6, "velocity": 61}, {"time": 1535, "pitch": 57, "duration": 9, "velocity": 95}, {"time": 1535, "pitch": 59, "duration": 10, "velocity": 92}, {"time": 1541, "pitch": 47, "duration": 26, "velocity": 40}, {"time": 1547, "pitch": 52, "duration": 21, "velocity": 81}, {"time": 1547, "pitch": 56, "duration": 21, "velocity": 85}, {"time": 1547, "pitch": 59, "duration": 22, "velocity": 76}, {"time": 1571, "pitch": 60, "duration": 47, "velocity": 83}, {"time": 1607, "pitch": 74, "duration": 15, "velocity": 82}, {"time": 1619, "pitch": 59, "duration": 48, "velocity": 86}, {"time": 1667, "pitch": 57, "duration": 47, "velocity": 90}, {"time": 1715, "pitch": 55, "duration": 36, "velocity": 70}, {"time": 1721, "pitch": 71, "duration": 5, "velocity": 74}, {"time": 1727, "pitch": 62, "duration": 12, "velocity": 77}, {"time": 1739, "pitch": 67, "duration": 12, "velocity": 63}, {"time": 1751, "pitch": 71, "duration": 12, "velocity": 63}, {"time": 1763, "pitch": 36, "duration": 37, "velocity": 97}, {"time": 1769, "pitch": 43, "duration": 31, "velocity": 57}, {"time": 1775, "pitch": 48, "duration": 14, "velocity": 96}, {"time": 1781, "pitch": 55, "duration": 23, "velocity": 89}, {"time": 1787, "pitch": 60, "duration": 12, "velocity": 81}, {"time": 1787, "pitch": 63, "duration": 10, "velocity": 83}, {"time": 1793, "pitch": 48, "duration": 3, "velocity": 52}, {"time": 1799, "pitch": 63, "duration": 12, "velocity": 93}, {"time": 1805, "pitch": 60, "duration": 6, "velocity": 78}, {"time": 1811, "pitch": 47, "duration": 15, "velocity": 99}, {"time": 1817, "pitch": 54, "duration": 8, "velocity": 92}, {"time": 1823, "pitch": 66, "duration": 7, "velocity": 122}, {"time": 1829, "pitch": 59, "duration": 6, "velocity": 93}, {"time": 1835, "pitch": 40, "duration": 13, "velocity": 95}, {"time": 1841, "pitch": 47, "duration": 7, "velocity": 61}, {"time": 1847, "pitch": 67, "duration": 12, "velocity": 96}, {"time": 1853, "pitch": 64, "duration": 6, "velocity": 83}, {"time": 1859, "pitch": 45, "duration": 14, "velocity": 78}, {"time": 1865, "pitch": 52, "duration": 7, "velocity": 66}, {"time": 1871, "pitch": 64, "duration": 11, "velocity": 100}, {"time": 1877, "pitch": 60, "duration": 6, "velocity": 78}, {"time": 1883, "pitch": 38, "duration": 14, "velocity": 90}, {"time": 1889, "pitch": 45, "duration": 8, "velocity": 55}, {"time": 1895, "pitch": 57, "duration": 1, "velocity": 27}, {"time": 1895, "pitch": 66, "duration": 13, "velocity": 122}, {"time": 1901, "pitch": 62, "duration": 6, "velocity": 63}, {"time": 1907, "pitch": 43, "duration": 43, "velocity": 93}, {"time": 1913, "pitch": 50, "duration": 18, "velocity": 48}, {"time": 1919, "pitch": 62, "duration": 22, "velocity": 112}, {"time": 1925, "pitch": 59, "duration": 13, "velocity": 85}, {"time": 1931, "pitch": 55, "duration": 10, "velocity": 93}, {"time": 1937, "pitch": 50, "duration": 9, "velocity": 77}, {"time": 1943, "pitch": 55, "duration": 6, "velocity": 82}, {"time": 1943, "pitch": 59, "duration": 7, "velocity": 89}, {"time": 1943, "pitch": 62, "duration": 7, "velocity": 82}, {"time": 1943, "pitch": 65, "duration": 7, "velocity": 86}, {"time": 1949, "pitch": 50, "duration": 1, "velocity": 81}, {"time": 1955, "pitch": 36, "duration": 37, "velocity": 93}, {"time": 1961, "pitch": 48, "duration": 9, "velocity": 71}, {"time": 1967, "pitch": 60, "duration": 11, "velocity": 95}, {"time": 1967, "pitch": 64, "duration": 7, "velocity": 90}, {"time": 1973, "pitch": 48, "duration": 6, "velocity": 77}, {"time": 1979, "pitch": 60, "duration": 12, "velocity": 71}, {"time": 1979, "pitch": 63, "duration": 10, "velocity": 100}, {"time": 1985, "pitch": 48, "duration": 8, "velocity": 57}, {"time": 1991, "pitch": 63, "duration": 7, "velocity": 99}, {"time": 1997, "pitch": 60, "duration": 6, "velocity": 72}, {"time": 2003, "pitch": 47, "duration": 14, "velocity": 90}, {"time": 2009, "pitch": 54, "duration": 7, "velocity": 89}, {"time": 2015, "pitch": 62, "duration": 11, "velocity": 81}, {"time": 2015, "pitch": 66, "duration": 5, "velocity": 100}, {"time": 2021, "pitch": 59, "duration": 10, "velocity": 69}, {"time": 2027, "pitch": 40, "duration": 14, "velocity": 92}, {"time": 2033, "pitch": 47, "duration": 8, "velocity": 61}, {"time": 2039, "pitch": 67, "duration": 12, "velocity": 100}, {"time": 2042, "pitch": 64, "duration": 9, "velocity": 88}, {"time": 2045, "pitch": 59, "duration": 8, "velocity": 77}, {"time": 2051, "pitch": 45, "duration": 14, "velocity": 73}, {"time": 2057, "pitch": 52, "duration": 7, "velocity": 54}, {"time": 2063, "pitch": 64, "duration": 10, "velocity": 97}, {"time": 2069, "pitch": 60, "duration": 4, "velocity": 77}, {"time": 2072, "pitch": 57, "duration": 3, "velocity": 72}, {"time": 2075, "pitch": 38, "duration": 12, "velocity": 79}, {"time": 2081, "pitch": 45, "duration": 6, "velocity": 48}, {"time": 2087, "pitch": 66, "duration": 13, "velocity": 112}, {"time": 2093, "pitch": 62, "duration": 7, "velocity": 64}, {"time": 2099, "pitch": 43, "duration": 22, "velocity": 77}, {"time": 2105, "pitch": 50, "duration": 7, "velocity": 65}, {"time": 2111, "pitch": 62, "duration": 22, "velocity": 107}, {"time": 2114, "pitch": 50, "duration": 8, "velocity": 72}, {"time": 2117, "pitch": 59, "duration": 16, "velocity": 92}, {"time": 2123, "pitch": 43, "duration": 16, "velocity": 89}, {"time": 2129, "pitch": 50, "duration": 8, "velocity": 77}, {"time": 2135, "pitch": 55, "duration": 4, "velocity": 96}, {"time": 2135, "pitch": 59, "duration": 6, "velocity": 93}, {"time": 2135, "pitch": 62, "duration": 8, "velocity": 88}, {"time": 2138, "pitch": 50, "duration": 1, "velocity": 68}, {"time": 2141, "pitch": 55, "duration": 6, "velocity": 96}, {"time": 2144, "pitch": 59, "duration": 1, "velocity": 76}, {"time": 2147, "pitch": 48, "duration": 39, "velocity": 102}, {"time": 2153, "pitch": 55, "duration": 8, "velocity": 72}, {"time": 2159, "pitch": 64, "duration": 10, "velocity": 112}, {"time": 2165, "pitch": 60, "duration": 5, "velocity": 89}, {"time": 2171, "pitch": 55, "duration": 11, "velocity": 76}, {"time": 2171, "pitch": 60, "duration": 11, "velocity": 74}, {"time": 2171, "pitch": 64, "duration": 23, "velocity": 71}, {"time": 2171, "pitch": 67, "duration": 10, "velocity": 72}, {"time": 2183, "pitch": 67, "duration": 10, "velocity": 99}, {"time": 2189, "pitch": 60, "duration": 5, "velocity": 79}, {"time": 2195, "pitch": 47, "duration": 22, "velocity": 93}, {"time": 2201, "pitch": 54, "duration": 18, "velocity": 81}, {"time": 2207, "pitch": 66, "duration": 20, "velocity": 117}, {"time": 2213, "pitch": 62, "duration": 15, "velocity": 45}, {"time": 2216, "pitch": 59, "duration": 8, "velocity": 41}, {"time": 2219, "pitch": 47, "duration": 14, "velocity": 78}, {"time": 2225, "pitch": 54, "duration": 7, "velocity": 70}, {"time": 2231, "pitch": 66, "duration": 13, "velocity": 122}, {"time": 2234, "pitch": 62, "duration": 9, "velocity": 90}, {"time": 2237, "pitch": 59, "duration": 7, "velocity": 75}, {"time": 2243, "pitch": 45, "duration": 13, "velocity": 81}, {"time": 2249, "pitch": 52, "duration": 6, "velocity": 47}, {"time": 2255, "pitch": 64, "duration": 11, "velocity": 112}, {"time": 2261, "pitch": 60, "duration": 5, "velocity": 99}, {"time": 2267, "pitch": 50, "duration": 17, "velocity": 99}, {"time": 2273, "pitch": 57, "duration": 10, "velocity": 73}, {"time": 2279, "pitch": 66, "duration": 11, "velocity": 112}, {"time": 2285, "pitch": 62, "duration": 6, "velocity": 81}, {"time": 2291, "pitch": 43, "duration": 22, "velocity": 88}, {"time": 2294, "pitch": 50, "duration": 11, "velocity": 74}, {"time": 2297, "pitch": 55, "duration": 6, "velocity": 83}, {"time": 2300, "pitch": 59, "duration": 14, "velocity": 117}, {"time": 2306, "pitch": 50, "duration": 9, "velocity": 63}, {"time": 2309, "pitch": 62, "duration": 5, "velocity": 90}, {"time": 2315, "pitch": 43, "duration": 18, "velocity": 88}, {"time": 2315, "pitch": 55, "duration": 9, "velocity": 82}, {"time": 2315, "pitch": 59, "duration": 10, "velocity": 64}, {"time": 2315, "pitch": 62, "duration": 10, "velocity": 79}, {"time": 2315, "pitch": 65, "duration": 8, "velocity": 90}, {"time": 2321, "pitch": 50, "duration": 6, "velocity": 89}, {"time": 2327, "pitch": 62, "duration": 8, "velocity": 100}, {"time": 2330, "pitch": 50, "duration": 2, "velocity": 83}, {"time": 2333, "pitch": 59, "duration": 4, "velocity": 95}, {"time": 2336, "pitch": 55, "duration": 13, "velocity": 78}, {"time": 2339, "pitch": 36, "duration": 39, "velocity": 93}, {"time": 2339, "pitch": 60, "duration": 6, "velocity": 99}, {"time": 2339, "pitch": 64, "duration": 7, "velocity": 93}, {"time": 2345, "pitch": 43, "duration": 8, "velocity": 42}, {"time": 2351, "pitch": 60, "duration": 16, "velocity": 96}, {"time": 2351, "pitch": 64, "duration": 11, "velocity": 90}, {"time": 2357, "pitch": 43, "duration": 21, "velocity": 47}, {"time": 2363, "pitch": 48, "duration": 13, "velocity": 79}, {"time": 2369, "pitch": 55, "duration": 5, "velocity": 69}, {"time": 2375, "pitch": 64, "duration": 7, "velocity": 122}, {"time": 2378, "pitch": 48, "duration": 2, "velocity": 83}, {"time": 2381, "pitch": 60, "duration": 6, "velocity": 82}, {"time": 2387, "pitch": 47, "duration": 15, "velocity": 93}, {"time": 2393, "pitch": 54, "duration": 8, "velocity": 79}, {"time": 2399, "pitch": 66, "duration": 10, "velocity": 112}, {"time": 2405, "pitch": 63, "duration": 4, "velocity": 102}, {"time": 2408, "pitch": 59, "duration": 9, "velocity": 79}, {"time": 2411, "pitch": 40, "duration": 17, "velocity": 89}, {"time": 2417, "pitch": 47, "duration": 11, "velocity": 59}, {"time": 2423, "pitch": 52, "duration": 5, "velocity": 88}, {"time": 2423, "pitch": 67, "duration": 13, "velocity": 100}, {"time": 2426, "pitch": 64, "duration": 9, "velocity": 90}, {"time": 2429, "pitch": 59, "duration": 7, "velocity": 82}, {"time": 2435, "pitch": 45, "duration": 23, "velocity": 95}, {"time": 2441, "pitch": 52, "duration": 14, "velocity": 86}, {"time": 2447, "pitch": 64, "duration": 10, "velocity": 112}, {"time": 2453, "pitch": 60, "duration": 4, "velocity": 93}, {"time": 2459, "pitch": 48, "duration": 14, "velocity": 96}, {"time": 2465, "pitch": 55, "duration": 6, "velocity": 68}, {"time": 2471, "pitch": 60, "duration": 12, "velocity": 99}, {"time": 2471, "pitch": 63, "duration": 12, "velocity": 100}, {"time": 2477, "pitch": 55, "duration": 6, "velocity": 61}, {"time": 2483, "pitch": 38, "duration": 22, "velocity": 97}, {"time": 2489, "pitch": 45, "duration": 8, "velocity": 69}, {"time": 2489, "pitch": 57, "duration": 3, "velocity": 79}, {"time": 2489, "pitch": 62, "duration": 3, "velocity": 81}, {"time": 2489, "pitch": 66, "duration": 3, "velocity": 76}, {"time": 2495, "pitch": 50, "duration": 3, "velocity": 78}, {"time": 2495, "pitch": 57, "duration": 2, "velocity": 88}, {"time": 2495, "pitch": 62, "duration": 2, "velocity": 97}, {"time": 2495, "pitch": 66, "duration": 3, "velocity": 96}, {"time": 2501, "pitch": 45, "duration": 1, "velocity": 71}, {"time": 2501, "pitch": 50, "duration": 1, "velocity": 76}, {"time": 2501, "pitch": 57, "duration": 1, "velocity": 97}, {"time": 2501, "pitch": 62, "duration": 1, "velocity": 117}, {"time": 2501, "pitch": 66, "duration": 3, "velocity": 117}, {"time": 2507, "pitch": 38, "duration": 3, "velocity": 74}, {"time": 2507, "pitch": 45, "duration": 3, "velocity": 92}, {"time": 2507, "pitch": 50, "duration": 3, "velocity": 100}, {"time": 2507, "pitch": 57, "duration": 3, "velocity": 93}, {"time": 2507, "pitch": 62, "duration": 3, "velocity": 99}, {"time": 2507, "pitch": 66, "duration": 3, "velocity": 112}, {"time": 2531, "pitch": 48, "duration": 15, "velocity": 90}, {"time": 2534, "pitch": 55, "duration": 10, "velocity": 92}, {"time": 2537, "pitch": 60, "duration": 3, "velocity": 100}, {"time": 2540, "pitch": 64, "duration": 3, "velocity": 112}, {"time": 2543, "pitch": 67, "duration": 10, "velocity": 100}, {"time": 2546, "pitch": 55, "duration": 1, "velocity": 97}, {"time": 2549, "pitch": 64, "duration": 4, "velocity": 100}, {"time": 2552, "pitch": 60, "duration": 3, "velocity": 93}, {"time": 2555, "pitch": 50, "duration": 15, "velocity": 102}, {"time": 2558, "pitch": 57, "duration": 4, "velocity": 89}, {"time": 2561, "pitch": 62, "duration": 4, "velocity": 70}, {"time": 2564, "pitch": 57, "duration": 4, "velocity": 68}, {"time": 2567, "pitch": 66, "duration": 11, "velocity": 112}, {"time": 2570, "pitch": 57, "duration": 3, "velocity": 76}, {"time": 2573, "pitch": 62, "duration": 4, "velocity": 78}, {"time": 2576, "pitch": 54, "duration": 1, "velocity": 31}, {"time": 2576, "pitch": 57, "duration": 3, "velocity": 97}, {"time": 2579, "pitch": 47, "duration": 17, "velocity": 90}, {"time": 2582, "pitch": 54, "duration": 10, "velocity": 100}, {"time": 2585, "pitch": 59, "duration": 5, "velocity": 83}, {"time": 2588, "pitch": 62, "duration": 3, "velocity": 96}, {"time": 2591, "pitch": 66, "duration": 6, "velocity": 117}, {"time": 2594, "pitch": 59, "duration": 9, "velocity": 66}, {"time": 2597, "pitch": 62, "duration": 5, "velocity": 74}, {"time": 2600, "pitch": 66, "duration": 3, "velocity": 100}, {"time": 2603, "pitch": 40, "duration": 17, "velocity": 74}, {"time": 2606, "pitch": 47, "duration": 14, "velocity": 71}, {"time": 2609, "pitch": 52, "duration": 11, "velocity": 89}, {"time": 2612, "pitch": 59, "duration": 4, "velocity": 81}, {"time": 2615, "pitch": 67, "duration": 12, "velocity": 107}, {"time": 2618, "pitch": 59, "duration": 3, "velocity": 88}, {"time": 2621, "pitch": 64, "duration": 6, "velocity": 99}, {"time": 2624, "pitch": 59, "duration": 3, "velocity": 92}, {"time": 2627, "pitch": 45, "duration": 20, "velocity": 77}, {"time": 2630, "pitch": 52, "duration": 10, "velocity": 69}, {"time": 2633, "pitch": 57, "duration": 7, "velocity": 85}, {"time": 2636, "pitch": 60, "duration": 2, "velocity": 100}, {"time": 2639, "pitch": 64, "duration": 11, "velocity": 100}, {"time": 2642, "pitch": 52, "duration": 7, "velocity": 65}, {"time": 2645, "pitch": 57, "duration": 4, "velocity": 95}, {"time": 2648, "pitch": 60, "duration": 2, "velocity": 102}, {"time": 2651, "pitch": 47, "duration": 17, "velocity": 99}, {"time": 2654, "pitch": 54, "duration": 10, "velocity": 95}, {"time": 2657, "pitch": 59, "duration": 8, "velocity": 81}, {"time": 2660, "pitch": 63, "duration": 3, "velocity": 112}, {"time": 2663, "pitch": 66, "duration": 10, "velocity": 112}, {"time": 2666, "pitch": 54, "duration": 1, "velocity": 100}, {"time": 2669, "pitch": 63, "duration": 4, "velocity": 117}, {"time": 2672, "pitch": 59, "duration": 3, "velocity": 96}, {"time": 2675, "pitch": 40, "duration": 11, "velocity": 112}, {"time": 2675, "pitch": 64, "duration": 10, "velocity": 90}, {"time": 2675, "pitch": 67, "duration": 10, "velocity": 95}, {"time": 2687, "pitch": 42, "duration": 10, "velocity": 122}, {"time": 2687, "pitch": 66, "duration": 10, "velocity": 122}, {"time": 2687, "pitch": 69, "duration": 10, "velocity": 89}, {"time": 2699, "pitch": 43, "duration": 11, "velocity": 86}, {"time": 2699, "pitch": 62, "duration": 11, "velocity": 96}, {"time": 2699, "pitch": 67, "duration": 10, "velocity": 96}, {"time": 2699, "pitch": 71, "duration": 12, "velocity": 96}, {"time": 2711, "pitch": 53, "duration": 11, "velocity": 86}, {"time": 2711, "pitch": 62, "duration": 11, "velocity": 99}, {"time": 2711, "pitch": 65, "duration": 11, "velocity": 100}, {"time": 2711, "pitch": 67, "duration": 11, "velocity": 102}, {"time": 2711, "pitch": 71, "duration": 11, "velocity": 107}, {"time": 2723, "pitch": 48, "duration": 17, "velocity": 78}, {"time": 2726, "pitch": 55, "duration": 10, "velocity": 82}, {"time": 2729, "pitch": 60, "duration": 3, "velocity": 95}, {"time": 2732, "pitch": 64, "duration": 3, "velocity": 90}, {"time": 2735, "pitch": 67, "duration": 9, "velocity": 122}, {"time": 2738, "pitch": 55, "duration": 1, "velocity": 90}, {"time": 2741, "pitch": 64, "duration": 3, "velocity": 100}, {"time": 2744, "pitch": 60, "duration": 3, "velocity": 99}, {"time": 2747, "pitch": 50, "duration": 16, "velocity": 97}, {"time": 2750, "pitch": 57, "duration": 4, "velocity": 76}, {"time": 2753, "pitch": 62, "duration": 4, "velocity": 79}, {"time": 2756, "pitch": 57, "duration": 4, "velocity": 82}, {"time": 2759, "pitch": 66, "duration": 12, "velocity": 117}, {"time": 2762, "pitch": 57, "duration": 3, "velocity": 68}, {"time": 2765, "pitch": 62, "duration": 5, "velocity": 90}, {"time": 2768, "pitch": 57, "duration": 2, "velocity": 93}, {"time": 2771, "pitch": 47, "duration": 17, "velocity": 74}, {"time": 2774, "pitch": 54, "duration": 10, "velocity": 83}, {"time": 2777, "pitch": 59, "duration": 5, "velocity": 86}, {"time": 2780, "pitch": 62, "duration": 3, "velocity": 88}, {"time": 2783, "pitch": 66, "duration": 8, "velocity": 127}, {"time": 2786, "pitch": 54, "duration": 1, "velocity": 86}, {"time": 2789, "pitch": 62, "duration": 3, "velocity": 107}, {"time": 2792, "pitch": 59, "duration": 4, "velocity": 100}, {"time": 2795, "pitch": 40, "duration": 18, "velocity": 70}, {"time": 2798, "pitch": 47, "duration": 15, "velocity": 72}, {"time": 2801, "pitch": 52, "duration": 6, "velocity": 95}, {"time": 2804, "pitch": 59, "duration": 4, "velocity": 90}, {"time": 2807, "pitch": 67, "duration": 12, "velocity": 112}, {"time": 2810, "pitch": 52, "duration": 3, "velocity": 97}, {"time": 2813, "pitch": 64, "duration": 6, "velocity": 96}, {"time": 2816, "pitch": 59, "duration": 3, "velocity": 99}, {"time": 2819, "pitch": 45, "duration": 22, "velocity": 89}, {"time": 2822, "pitch": 52, "duration": 9, "velocity": 97}, {"time": 2825, "pitch": 57, "duration": 3, "velocity": 78}, {"time": 2828, "pitch": 64, "duration": 9, "velocity": 112}, {"time": 2831, "pitch": 57, "duration": 9, "velocity": 77}, {"time": 2834, "pitch": 52, "duration": 9, "velocity": 66}, {"time": 2837, "pitch": 60, "duration": 5, "velocity": 102}, {"time": 2840, "pitch": 64, "duration": 3, "velocity": 78}, {"time": 2843, "pitch": 47, "duration": 20, "velocity": 82}, {"time": 2849, "pitch": 59, "duration": 10, "velocity": 90}, {"time": 2855, "pitch": 66, "duration": 11, "velocity": 112}, {"time": 2861, "pitch": 63, "duration": 5, "velocity": 92}, {"time": 2867, "pitch": 40, "duration": 22, "velocity": 81}, {"time": 2870, "pitch": 47, "duration": 10, "velocity": 89}, {"time": 2873, "pitch": 52, "duration": 5, "velocity": 88}, {"time": 2876, "pitch": 57, "duration": 3, "velocity": 93}, {"time": 2879, "pitch": 59, "duration": 6, "velocity": 127}, {"time": 2882, "pitch": 47, "duration": 9, "velocity": 92}, {"time": 2885, "pitch": 57, "duration": 4, "velocity": 92}, {"time": 2891, "pitch": 40, "duration": 20, "velocity": 76}, {"time": 2891, "pitch": 52, "duration": 11, "velocity": 76}, {"time": 2891, "pitch": 56, "duration": 11, "velocity": 73}, {"time": 2891, "pitch": 59, "duration": 10, "velocity": 74}, {"time": 2903, "pitch": 56, "duration": 11, "velocity": 97}, {"time": 2903, "pitch": 59, "duration": 12, "velocity": 93}, {"time": 2906, "pitch": 47, "duration": 4, "velocity": 86}, {"time": 2909, "pitch": 52, "duration": 5, "velocity": 73}, {"time": 2914, "pitch": 52, "duration": 14, "velocity": 97}, {"time": 2915, "pitch": 40, "duration": 22, "velocity": 79}, {"time": 2915, "pitch": 71, "duration": 3, "velocity": 78}, {"time": 2918, "pitch": 73, "duration": 3, "velocity": 66}, {"time": 2921, "pitch": 71, "duration": 3, "velocity": 59}, {"time": 2921, "pitch": 47, "duration": 17, "velocity": 63}, {"time": 2924, "pitch": 73, "duration": 3, "velocity": 48}, {"time": 2927, "pitch": 71, "duration": 3, "velocity": 55}, {"time": 2927, "pitch": 59, "duration": 11, "velocity": 100}, {"time": 2930, "pitch": 73, "duration": 4, "velocity": 57}, {"time": 2933, "pitch": 52, "duration": 6, "velocity": 79}, {"time": 2933, "pitch": 71, "duration": 3, "velocity": 59}, {"time": 2936, "pitch": 73, "duration": 3, "velocity": 57}, {"time": 2938, "pitch": 54, "duration": 13, "velocity": 112}, {"time": 2938, "pitch": 42, "duration": 25, "velocity": 77}, {"time": 2939, "pitch": 71, "duration": 3, "velocity": 82}, {"time": 2942, "pitch": 76, "duration": 3, "velocity": 56}, {"time": 2945, "pitch": 71, "duration": 3, "velocity": 66}, {"time": 2948, "pitch": 76, "duration": 3, "velocity": 65}, {"time": 2950, "pitch": 52, "duration": 8, "velocity": 74}, {"time": 2951, "pitch": 71, "duration": 3, "velocity": 64}, {"time": 2954, "pitch": 76, "duration": 3, "velocity": 58}, {"time": 2957, "pitch": 71, "duration": 3, "velocity": 63}, {"time": 2957, "pitch": 59, "duration": 7, "velocity": 86}, {"time": 2960, "pitch": 76, "duration": 3, "velocity": 81}, {"time": 2962, "pitch": 44, "duration": 23, "velocity": 102}, {"time": 2963, "pitch": 71, "duration": 3, "velocity": 73}, {"time": 2966, "pitch": 76, "duration": 3, "velocity": 59}, {"time": 2969, "pitch": 71, "duration": 3, "velocity": 70}, {"time": 2969, "pitch": 56, "duration": 6, "velocity": 58}, {"time": 2972, "pitch": 76, "duration": 3, "velocity": 69}, {"time": 2975, "pitch": 71, "duration": 3, "velocity": 86}, {"time": 2975, "pitch": 59, "duration": 11, "velocity": 92}, {"time": 2978, "pitch": 76, "duration": 4, "velocity": 93}, {"time": 2980, "pitch": 56, "duration": 6, "velocity": 85}, {"time": 2981, "pitch": 71, "duration": 3, "velocity": 70}, {"time": 2984, "pitch": 76, "duration": 3, "velocity": 63}, {"time": 2986, "pitch": 45, "duration": 23, "velocity": 100}, {"time": 2987, "pitch": 71, "duration": 3, "velocity": 56}, {"time": 2987, "pitch": 83, "duration": 2, "velocity": 89}, {"time": 2990, "pitch": 76, "duration": 4, "velocity": 59}, {"time": 2990, "pitch": 85, "duration": 3, "velocity": 71}, {"time": 2992, "pitch": 52, "duration": 5, "velocity": 50}, {"time": 2993, "pitch": 71, "duration": 3, "velocity": 49}, {"time": 2993, "pitch": 83, "duration": 2, "velocity": 77}, {"time": 2996, "pitch": 76, "duration": 4, "velocity": 63}, {"time": 2996, "pitch": 85, "duration": 3, "velocity": 97}, {"time": 2998, "pitch": 57, "duration": 13, "velocity": 95}, {"time": 2999, "pitch": 71, "duration": 4, "velocity": 69}, {"time": 2999, "pitch": 83, "duration": 3, "velocity": 97}, {"time": 3002, "pitch": 76, "duration": 3, "velocity": 90}, {"time": 3002, "pitch": 85, "duration": 3, "velocity": 122}, {"time": 3004, "pitch": 52, "duration": 8, "velocity": 64}, {"time": 3005, "pitch": 71, "duration": 2, "velocity": 73}, {"time": 3005, "pitch": 83, "duration": 3, "velocity": 92}, {"time": 3008, "pitch": 85, "duration": 2, "velocity": 127}, {"time": 3010, "pitch": 40, "duration": 24, "velocity": 92}, {"time": 3011, "pitch": 71, "duration": 2, "velocity": 78}, {"time": 3014, "pitch": 72, "duration": 3, "velocity": 60}, {"time": 3017, "pitch": 71, "duration": 3, "velocity": 57}, {"time": 3017, "pitch": 52, "duration": 5, "velocity": 43}, {"time": 3020, "pitch": 72, "duration": 3, "velocity": 61}, {"time": 3023, "pitch": 71, "duration": 3, "velocity": 66}, {"time": 3023, "pitch": 52, "duration": 13, "velocity": 93}, {"time": 3026, "pitch": 72, "duration": 3, "velocity": 93}, {"time": 3029, "pitch": 71, "duration": 3, "velocity": 75}, {"time": 3032, "pitch": 72, "duration": 3, "velocity": 63}, {"time": 3035, "pitch": 39, "duration": 22, "velocity": 99}, {"time": 3035, "pitch": 71, "duration": 3, "velocity": 48}, {"time": 3038, "pitch": 72, "duration": 3, "velocity": 44}, {"time": 3038, "pitch": 76, "duration": 3, "velocity": 76}, {"time": 3041, "pitch": 71, "duration": 3, "velocity": 55}, {"time": 3044, "pitch": 72, "duration": 3, "velocity": 47}, {"time": 3044, "pitch": 76, "duration": 4, "velocity": 85}, {"time": 3047, "pitch": 71, "duration": 3, "velocity": 46}, {"time": 3047, "pitch": 59, "duration": 12, "velocity": 79}, {"time": 3050, "pitch": 72, "duration": 3, "velocity": 50}, {"time": 3050, "pitch": 76, "duration": 4, "velocity": 79}, {"time": 3052, "pitch": 51, "duration": 6, "velocity": 89}, {"time": 3053, "pitch": 71, "duration": 3, "velocity": 63}, {"time": 3056, "pitch": 72, "duration": 2, "velocity": 82}, {"time": 3056, "pitch": 76, "duration": 4, "velocity": 67}, {"time": 3058, "pitch": 38, "duration": 22, "velocity": 96}, {"time": 3059, "pitch": 74, "duration": 3, "velocity": 79}, {"time": 3059, "pitch": 79, "duration": 3, "velocity": 79}, {"time": 3062, "pitch": 76, "duration": 3, "velocity": 53}, {"time": 3062, "pitch": 81, "duration": 3, "velocity": 59}, {"time": 3065, "pitch": 74, "duration": 3, "velocity": 62}, {"time": 3065, "pitch": 79, "duration": 3, "velocity": 69}, {"time": 3065, "pitch": 50, "duration": 7, "velocity": 59}, {"time": 3068, "pitch": 76, "duration": 3, "velocity": 69}, {"time": 3068, "pitch": 81, "duration": 3, "velocity": 75}, {"time": 3071, "pitch": 74, "duration": 3, "velocity": 77}, {"time": 3071, "pitch": 79, "duration": 3, "velocity": 79}, {"time": 3071, "pitch": 57, "duration": 11, "velocity": 92}, {"time": 3074, "pitch": 76, "duration": 3, "velocity": 89}, {"time": 3074, "pitch": 81, "duration": 3, "velocity": 92}, {"time": 3077, "pitch": 50, "duration": 5, "velocity": 83}, {"time": 3077, "pitch": 74, "duration": 3, "velocity": 81}, {"time": 3077, "pitch": 79, "duration": 3, "velocity": 89}, {"time": 3080, "pitch": 76, "duration": 3, "velocity": 83}, {"time": 3080, "pitch": 81, "duration": 2, "velocity": 96}, {"time": 3082, "pitch": 36, "duration": 24, "velocity": 97}, {"time": 3083, "pitch": 74, "duration": 3, "velocity": 49}, {"time": 3083, "pitch": 83, "duration": 3, "velocity": 85}, {"time": 3086, "pitch": 76, "duration": 3, "velocity": 45}, {"time": 3086, "pitch": 84, "duration": 3, "velocity": 69}, {"time": 3089, "pitch": 74, "duration": 3, "velocity": 55}, {"time": 3089, "pitch": 83, "duration": 3, "velocity": 68}, {"time": 3089, "pitch": 43, "duration": 16, "velocity": 52}, {"time": 3092, "pitch": 76, "duration": 3, "velocity": 45}, {"time": 3092, "pitch": 84, "duration": 3, "velocity": 93}, {"time": 3094, "pitch": 52, "duration": 12, "velocity": 78}, {"time": 3095, "pitch": 74, "duration": 3, "velocity": 58}, {"time": 3095, "pitch": 83, "duration": 3, "velocity": 86}, {"time": 3095, "pitch": 55, "duration": 11, "velocity": 93}, {"time": 3098, "pitch": 76, "duration": 3, "velocity": 64}, {"time": 3098, "pitch": 84, "duration": 3, "velocity": 112}, {"time": 3100, "pitch": 48, "duration": 6, "velocity": 90}, {"time": 3101, "pitch": 74, "duration": 3, "velocity": 83}, {"time": 3101, "pitch": 83, "duration": 3, "velocity": 99}, {"time": 3104, "pitch": 76, "duration": 1, "velocity": 88}, {"time": 3104, "pitch": 84, "duration": 2, "velocity": 127}, {"time": 3107, "pitch": 35, "duration": 47, "velocity": 82}, {"time": 3107, "pitch": 47, "duration": 47, "velocity": 88}, {"time": 3107, "pitch": 83, "duration": 3, "velocity": 79}, {"time": 3107, "pitch": 54, "duration": 47, "velocity": 96}, {"time": 3110, "pitch": 85, "duration": 3, "velocity": 70}, {"time": 3113, "pitch": 83, "duration": 3, "velocity": 39}, {"time": 3116, "pitch": 85, "duration": 3, "velocity": 42}, {"time": 3119, "pitch": 83, "duration": 3, "velocity": 55}, {"time": 3122, "pitch": 85, "duration": 3, "velocity": 72}, {"time": 3125, "pitch": 83, "duration": 3, "velocity": 74}, {"time": 3128, "pitch": 85, "duration": 3, "velocity": 90}, {"time": 3131, "pitch": 83, "duration": 3, "velocity": 70}, {"time": 3134, "pitch": 85, "duration": 3, "velocity": 83}, {"time": 3137, "pitch": 83, "duration": 3, "velocity": 66}, {"time": 3140, "pitch": 85, "duration": 18, "velocity": 73}, {"time": 3179, "pitch": 48, "duration": 14, "velocity": 75}, {"time": 3179, "pitch": 64, "duration": 10, "velocity": 70}, {"time": 3179, "pitch": 67, "duration": 7, "velocity": 75}, {"time": 3185, "pitch": 55, "duration": 7, "velocity": 61}, {"time": 3191, "pitch": 67, "duration": 7, "velocity": 78}, {"time": 3203, "pitch": 50, "duration": 11, "velocity": 71}, {"time": 3206, "pitch": 57, "duration": 8, "velocity": 60}, {"time": 3209, "pitch": 62, "duration": 5, "velocity": 43}, {"time": 3212, "pitch": 66, "duration": 3, "velocity": 85}, {"time": 3215, "pitch": 69, "duration": 12, "velocity": 99}, {"time": 3218, "pitch": 66, "duration": 9, "velocity": 35}, {"time": 3227, "pitch": 47, "duration": 17, "velocity": 76}, {"time": 3230, "pitch": 54, "duration": 11, "velocity": 82}, {"time": 3233, "pitch": 59, "duration": 7, "velocity": 72}, {"time": 3236, "pitch": 62, "duration": 3, "velocity": 66}, {"time": 3239, "pitch": 66, "duration": 12, "velocity": 112}, {"time": 3242, "pitch": 54, "duration": 1, "velocity": 61}, {"time": 3245, "pitch": 62, "duration": 6, "velocity": 67}, {"time": 3251, "pitch": 40, "duration": 16, "velocity": 74}, {"time": 3254, "pitch": 47, "duration": 13, "velocity": 59}, {"time": 3257, "pitch": 52, "duration": 6, "velocity": 86}, {"time": 3260, "pitch": 59, "duration": 2, "velocity": 92}, {"time": 3263, "pitch": 67, "duration": 6, "velocity": 127}, {"time": 3266, "pitch": 52, "duration": 2, "velocity": 89}, {"time": 3269, "pitch": 64, "duration": 4, "velocity": 112}, {"time": 3272, "pitch": 45, "duration": 1, "velocity": 34}, {"time": 3272, "pitch": 67, "duration": 2, "velocity": 97}, {"time": 3275, "pitch": 45, "duration": 22, "velocity": 82}, {"time": 3278, "pitch": 52, "duration": 21, "velocity": 67}, {"time": 3281, "pitch": 57, "duration": 5, "velocity": 79}, {"time": 3284, "pitch": 76, "duration": 14, "velocity": 127}, {"time": 3287, "pitch": 72, "duration": 6, "velocity": 79}, {"time": 3290, "pitch": 57, "duration": 2, "velocity": 70}, {"time": 3293, "pitch": 69, "duration": 4, "velocity": 95}, {"time": 3296, "pitch": 72, "duration": 2, "velocity": 82}, {"time": 3299, "pitch": 47, "duration": 17, "velocity": 85}, {"time": 3302, "pitch": 54, "duration": 14, "velocity": 74}, {"time": 3305, "pitch": 59, "duration": 6, "velocity": 76}, {"time": 3308, "pitch": 71, "duration": 4, "velocity": 89}, {"time": 3311, "pitch": 78, "duration": 11, "velocity": 127}, {"time": 3314, "pitch": 59, "duration": 8, "velocity": 89}, {"time": 3317, "pitch": 74, "duration": 6, "velocity": 97}, {"time": 3320, "pitch": 71, "duration": 3, "velocity": 77}, {"time": 3323, "pitch": 52, "duration": 23, "velocity": 72}, {"time": 3326, "pitch": 59, "duration": 10, "velocity": 72}, {"time": 3329, "pitch": 64, "duration": 4, "velocity": 96}, {"time": 3332, "pitch": 76, "duration": 4, "velocity": 82}, {"time": 3335, "pitch": 79, "duration": 6, "velocity": 97}, {"time": 3335, "pitch": 83, "duration": 6, "velocity": 100}, {"time": 3338, "pitch": 59, "duration": 9, "velocity": 97}, {"time": 3341, "pitch": 76, "duration": 6, "velocity": 88}, {"time": 3344, "pitch": 79, "duration": 3, "velocity": 112}, {"time": 3344, "pitch": 83, "duration": 3, "velocity": 107}, {"time": 3347, "pitch": 62, "duration": 7, "velocity": 93}, {"time": 3347, "pitch": 38, "duration": 8, "velocity": 93}, {"time": 3347, "pitch": 66, "duration": 4, "velocity": 112}, {"time": 3347, "pitch": 69, "duration": 5, "velocity": 89}, {"time": 3347, "pitch": 72, "duration": 4, "velocity": 78}, {"time": 3355, "pitch": 65, "duration": 11, "velocity": 102}, {"time": 3355, "pitch": 71, "duration": 11, "velocity": 99}, {"time": 3356, "pitch": 67, "duration": 11, "velocity": 117}, {"time": 3356, "pitch": 43, "duration": 10, "velocity": 86}, {"time": 3356, "pitch": 62, "duration": 12, "velocity": 102}, {"time": 3370, "pitch": 48, "duration": 19, "velocity": 86}, {"time": 3374, "pitch": 55, "duration": 10, "velocity": 82}, {"time": 3377, "pitch": 60, "duration": 4, "velocity": 79}, {"time": 3380, "pitch": 64, "duration": 3, "velocity": 77}, {"time": 3383, "pitch": 67, "duration": 11, "velocity": 117}, {"time": 3385, "pitch": 55, "duration": 4, "velocity": 97}, {"time": 3388, "pitch": 64, "duration": 6, "velocity": 112}, {"time": 3391, "pitch": 60, "duration": 3, "velocity": 100}, {"time": 3394, "pitch": 50, "duration": 14, "velocity": 75}, {"time": 3401, "pitch": 62, "duration": 7, "velocity": 83}, {"time": 3404, "pitch": 66, "duration": 3, "velocity": 90}, {"time": 3406, "pitch": 69, "duration": 13, "velocity": 117}, {"time": 3412, "pitch": 66, "duration": 7, "velocity": 127}, {"time": 3416, "pitch": 62, "duration": 4, "velocity": 102}, {"time": 3418, "pitch": 47, "duration": 17, "velocity": 92}, {"time": 3421, "pitch": 54, "duration": 11, "velocity": 93}, {"time": 3424, "pitch": 59, "duration": 9, "velocity": 86}, {"time": 3427, "pitch": 62, "duration": 4, "velocity": 97}, {"time": 3430, "pitch": 66, "duration": 9, "velocity": 127}, {"time": 3433, "pitch": 54, "duration": 2, "velocity": 95}, {"time": 3436, "pitch": 62, "duration": 4, "velocity": 117}, {"time": 3439, "pitch": 59, "duration": 5, "velocity": 102}, {"time": 3442, "pitch": 40, "duration": 17, "velocity": 88}, {"time": 3445, "pitch": 47, "duration": 14, "velocity": 90}, {"time": 3448, "pitch": 52, "duration": 8, "velocity": 92}, {"time": 3451, "pitch": 59, "duration": 5, "velocity": 96}, {"time": 3455, "pitch": 67, "duration": 12, "velocity": 117}, {"time": 3458, "pitch": 52, "duration": 3, "velocity": 74}, {"time": 3461, "pitch": 64, "duration": 6, "velocity": 88}, {"time": 3464, "pitch": 59, "duration": 3, "velocity": 102}, {"time": 3466, "pitch": 45, "duration": 20, "velocity": 93}, {"time": 3470, "pitch": 52, "duration": 19, "velocity": 95}, {"time": 3473, "pitch": 57, "duration": 6, "velocity": 95}, {"time": 3476, "pitch": 60, "duration": 4, "velocity": 92}, {"time": 3479, "pitch": 69, "duration": 10, "velocity": 112}, {"time": 3482, "pitch": 57, "duration": 2, "velocity": 100}, {"time": 3485, "pitch": 60, "duration": 6, "velocity": 100}, {"time": 3488, "pitch": 64, "duration": 2, "velocity": 97}, {"time": 3490, "pitch": 47, "duration": 13, "velocity": 83}, {"time": 3494, "pitch": 51, "duration": 8, "velocity": 77}, {"time": 3496, "pitch": 59, "duration": 8, "velocity": 92}, {"time": 3499, "pitch": 63, "duration": 4, "velocity": 112}, {"time": 3502, "pitch": 66, "duration": 12, "velocity": 127}, {"time": 3506, "pitch": 63, "duration": 8, "velocity": 112}, {"time": 3509, "pitch": 59, "duration": 6, "velocity": 85}, {"time": 3514, "pitch": 40, "duration": 22, "velocity": 82}, {"time": 3517, "pitch": 47, "duration": 11, "velocity": 74}, {"time": 3520, "pitch": 52, "duration": 5, "velocity": 93}, {"time": 3524, "pitch": 57, "duration": 4, "velocity": 122}, {"time": 3527, "pitch": 59, "duration": 6, "velocity": 107}, {"time": 3530, "pitch": 47, "duration": 9, "velocity": 72}, {"time": 3533, "pitch": 57, "duration": 4, "velocity": 96}, {"time": 3538, "pitch": 52, "duration": 14, "velocity": 93}, {"time": 3538, "pitch": 59, "duration": 10, "velocity": 77}, {"time": 3538, "pitch": 56, "duration": 11, "velocity": 90}, {"time": 3538, "pitch": 40, "duration": 22, "velocity": 79}, {"time": 3544, "pitch": 47, "duration": 7, "velocity": 53}, {"time": 3550, "pitch": 59, "duration": 13, "velocity": 96}, {"time": 3553, "pitch": 47, "duration": 7, "velocity": 88}, {"time": 3556, "pitch": 56, "duration": 6, "velocity": 59}, {"time": 3559, "pitch": 52, "duration": 4, "velocity": 58}, {"time": 3561, "pitch": 60, "duration": 11, "velocity": 69}, {"time": 3562, "pitch": 55, "duration": 8, "velocity": 47}, {"time": 3562, "pitch": 48, "duration": 8, "velocity": 32}, {"time": 3562, "pitch": 64, "duration": 10, "velocity": 58}, {"time": 3563, "pitch": 67, "duration": 9, "velocity": 69}, {"time": 3564, "pitch": 71, "duration": 10, "velocity": 70}, {"time": 3586, "pitch": 69, "duration": 24, "velocity": 41}, {"time": 3587, "pitch": 74, "duration": 22, "velocity": 62}, {"time": 3588, "pitch": 50, "duration": 18, "velocity": 31}, {"time": 3588, "pitch": 62, "duration": 10, "velocity": 31}, {"time": 3588, "pitch": 57, "duration": 18, "velocity": 37}, {"time": 3588, "pitch": 78, "duration": 21, "velocity": 68}, {"time": 3610, "pitch": 59, "duration": 18, "velocity": 57}, {"time": 3611, "pitch": 71, "duration": 18, "velocity": 39}, {"time": 3612, "pitch": 66, "duration": 13, "velocity": 63}, {"time": 3612, "pitch": 74, "duration": 16, "velocity": 47}, {"time": 3613, "pitch": 78, "duration": 15, "velocity": 58}, {"time": 3614, "pitch": 81, "duration": 14, "velocity": 47}, {"time": 3638, "pitch": 64, "duration": 25, "velocity": 39}, {"time": 3639, "pitch": 59, "duration": 21, "velocity": 38}, {"time": 3639, "pitch": 52, "duration": 24, "velocity": 30}, {"time": 3640, "pitch": 67, "duration": 24, "velocity": 49}, {"time": 3641, "pitch": 71, "duration": 23, "velocity": 38}, {"time": 3641, "pitch": 74, "duration": 23, "velocity": 75}, {"time": 3667, "pitch": 45, "duration": 23, "velocity": 33}, {"time": 3667, "pitch": 52, "duration": 23, "velocity": 49}, {"time": 3668, "pitch": 57, "duration": 12, "velocity": 58}, {"time": 3669, "pitch": 60, "duration": 17, "velocity": 52}, {"time": 3670, "pitch": 64, "duration": 20, "velocity": 59}, {"time": 3670, "pitch": 67, "duration": 22, "velocity": 71}, {"time": 3684, "pitch": 57, "duration": 13, "velocity": 68}, {"time": 3688, "pitch": 60, "duration": 10, "velocity": 71}, {"time": 3694, "pitch": 64, "duration": 6, "velocity": 76}, {"time": 3710, "pitch": 47, "duration": 19, "velocity": 33}, {"time": 3711, "pitch": 54, "duration": 15, "velocity": 56}, {"time": 3712, "pitch": 59, "duration": 35, "velocity": 42}, {"time": 3713, "pitch": 63, "duration": 34, "velocity": 64}, {"time": 3715, "pitch": 66, "duration": 31, "velocity": 76}, {"time": 3716, "pitch": 69, "duration": 31, "velocity": 52}, {"time": 3758, "pitch": 28, "duration": 83, "velocity": 95}, {"time": 3766, "pitch": 52, "duration": 5, "velocity": 40}, {"time": 3770, "pitch": 57, "duration": 6, "velocity": 68}, {"time": 3775, "pitch": 56, "duration": 7, "velocity": 65}, {"time": 3780, "pitch": 59, "duration": 5, "velocity": 97}, {"time": 3785, "pitch": 64, "duration": 13, "velocity": 97}, {"time": 3795, "pitch": 69, "duration": 8, "velocity": 79}, {"time": 3803, "pitch": 68, "duration": 14, "velocity": 76}, {"time": 3811, "pitch": 76, "duration": 39, "velocity": 66}], "annotations": [{"time": 429, "annotation": {"number": 64, "value": 127}, "group": "control_change"}, {"time": 465, "annotation": {"number": 64, "value": 0}, "group": "control_change"}, {"time": 467, "annotation": {"number": 64, "value": 127}, "group": "control_change"}, {"time": 515, "annotation": {"number": 64, "value": 0}, "group": "control_change"}, {"time": 526, "annotation": {"number": 64, "value": 127}, "group": "control_change"}, {"time": 539, "annotation": {"number": 64, "value": 0}, "group": "control_change"}, {"time": 541, "annotation": {"number": 64, "value": 127}, "group": "control_change"}, {"time": 561, "annotation": {"number": 64, "value": 0}, "group": "control_change"}, {"time": 563, "annotation": {"number": 64, "value": 127}, "group": "control_change"}, {"time": 609, "annotation": {"number": 64, "value": 0}, "group": "control_change"}, {"time": 611, "annotation": {"number": 64, "value": 127}, "group": "control_change"}, {"time": 657, "annotation": {"number": 64, "value": 0}, "group": "control_change"}, {"time": 659, "annotation": {"number": 64, "value": 127}, "group": "control_change"}, {"time": 681, "annotation": {"number": 64, "value": 0}, "group": "control_change"}, {"time": 683, "annotation": {"number": 64, "value": 127}, "group": "control_change"}, {"time": 706, "annotation": {"number": 64, "value": 0}, "group": "control_change"}, {"time": 708, "annotation": {"number": 64, "value": 127}, "group": "control_change"}, {"time": 728, "annotation": {"number": 64, "value": 0}, "group": "control_change"}, {"time": 731, "annotation": {"number": 64, "value": 127}, "group": "control_change"}, {"time": 753, "annotation": {"number": 64, "value": 0}, "group": "control_change"}, {"time": 756, "annotation": {"number": 64, "value": 127}, "group": "control_change"}, {"time": 801, "annotation": {"number": 64, "value": 0}, "group": "control_change"}, {"time": 803, "annotation": {"number": 64, "value": 127}, "group": "control_change"}, {"time": 850, "annotation": {"number": 64, "value": 0}, "group": "control_change"}, {"time": 852, "annotation": {"number": 64, "value": 127}, "group": "control_change"}, {"time": 897, "annotation": {"number": 64, "value": 0}, "group": "control_change"}, {"time": 899, "annotation": {"number": 64, "value": 127}, "group": "control_change"}, {"time": 922, "annotation": {"number": 64, "value": 0}, "group": "control_change"}, {"time": 924, "annotation": {"number": 64, "value": 127}, "group": "control_change"}, {"time": 945, "annotation": {"number": 64, "value": 0}, "group": "control_change"}, {"time": 954, "annotation": {"number": 64, "value": 127}, "group": "control_change"}, {"time": 958, "annotation": {"number": 64, "value": 0}, "group": "control_change"}, {"time": 964, "annotation": {"number": 64, "value": 127}, "group": "control_change"}, {"time": 981, "annotation": {"number": 64, "value": 0}, "group": "control_change"}, {"time": 997, "annotation": {"number": 64, "value": 127}, "group": "control_change"}, {"time": 1042, "annotation": {"number": 64, "value": 0}, "group": "control_change"}, {"time": 1045, "annotation": {"number": 64, "value": 127}, "group": "control_change"}, {"time": 1064, "annotation": {"number": 64, "value": 0}, "group": "control_change"}, {"time": 1067, "annotation": {"number": 64, "value": 127}, "group": "control_change"}, {"time": 1090, "annotation": {"number": 64, "value": 0}, "group": "control_change"}, {"time": 1092, "annotation": {"number": 64, "value": 127}, "group": "control_change"}, {"time": 1114, "annotation": {"number": 64, "value": 0}, "group": "control_change"}, {"time": 1116, "annotation": {"number": 64, "value": 127}, "group": "control_change"}, {"time": 1137, "annotation": {"number": 64, "value": 0}, "group": "control_change"}, {"time": 1139, "annotation": {"number": 64, "value": 127}, "group": "control_change"}, {"time": 1185, "annotation": {"number": 64, "value": 0}, "group": "control_change"}, {"time": 1188, "annotation": {"number": 64, "value": 127}, "group": "control_change"}, {"time": 1234, "annotation": {"number": 64, "value": 0}, "group": "control_change"}, {"time": 1235, "annotation": {"number": 64, "value": 127}, "group": "control_change"}, {"time": 1257, "annotation": {"number": 64, "value": 0}, "group": "control_change"}, {"time": 1259, "annotation": {"number": 64, "value": 127}, "group": "control_change"}, {"time": 1280, "annotation": {"number": 64, "value": 0}, "group": "control_change"}, {"time": 1283, "annotation": {"number": 64, "value": 127}, "group": "control_change"}, {"time": 1305, "annotation": {"number": 64, "value": 0}, "group": "control_change"}, {"time": 1308, "annotation": {"number": 64, "value": 127}, "group": "control_change"}, {"time": 1328, "annotation": {"number": 64, "value": 0}, "group": "control_change"}, {"time": 1331, "annotation": {"number": 64, "value": 127}, "group": "control_change"}, {"time": 1354, "annotation": {"number": 64, "value": 0}, "group": "control_change"}, {"time": 1356, "annotation": {"number": 64, "value": 127}, "group": "control_change"}, {"time": 1376, "annotation": {"number": 64, "value": 0}, "group": "control_change"}, {"time": 1379, "annotation": {"number": 64, "value": 127}, "group": "control_change"}, {"time": 1400, "annotation": {"number": 64, "value": 0}, "group": "control_change"}, {"time": 1403, "annotation": {"number": 64, "value": 127}, "group": "control_change"}, {"time": 1424, "annotation": {"number": 64, "value": 0}, "group": "control_change"}, {"time": 1426, "annotation": {"number": 64, "value": 127}, "group": "control_change"}, {"time": 1449, "annotation": {"number": 64, "value": 0}, "group": "control_change"}, {"time": 1451, "annotation": {"number": 64, "value": 127}, "group": "control_change"}, {"time": 1474, "annotation": {"number": 64, "value": 0}, "group": "control_change"}, {"time": 1476, "annotation": {"number": 64, "value": 127}, "group": "control_change"}, {"time": 1496, "annotation": {"number": 64, "value": 0}, "group": "control_change"}, {"time": 1499, "annotation": {"number": 64, "value": 127}, "group": "control_change"}, {"time": 1521, "annotation": {"number": 64, "value": 0}, "group": "control_change"}, {"time": 1523, "annotation": {"number": 64, "value": 127}, "group": "control_change"}, {"time": 1546, "annotation": {"number": 64, "value": 0}, "group": "control_change"}, {"time": 1763, "annotation": {"number": 64, "value": 127}, "group": "control_change"}, {"time": 1784, "annotation": {"number": 64, "value": 0}, "group": "control_change"}, {"time": 1788, "annotation": {"number": 64, "value": 127}, "group": "control_change"}, {"time": 1807, "annotation": {"number": 64, "value": 0}, "group": "control_change"}, {"time": 1811, "annotation": {"number": 64, "value": 127}, "group": "control_change"}, {"time": 1832, "annotation": {"number": 64, "value": 0}, "group": "control_change"}, {"time": 1835, "annotation": {"number": 64, "value": 127}, "group": "control_change"}, {"time": 1856, "annotation": {"number": 64, "value": 0}, "group": "control_change"}, {"time": 1859, "annotation": {"number": 64, "value": 127}, "group": "control_change"}, {"time": 1880, "annotation": {"number": 64, "value": 0}, "group": "control_change"}, {"time": 1882, "annotation": {"number": 64, "value": 127}, "group": "control_change"}, {"time": 1906, "annotation": {"number": 64, "value": 0}, "group": "control_change"}, {"time": 1907, "annotation": {"number": 64, "value": 127}, "group": "control_change"}, {"time": 1929, "annotation": {"number": 64, "value": 0}, "group": "control_change"}, {"time": 1931, "annotation": {"number": 64, "value": 127}, "group": "control_change"}, {"time": 1956, "annotation": {"number": 64, "value": 127}, "group": "control_change"}, {"time": 1977, "annotation": {"number": 64, "value": 0}, "group": "control_change"}, {"time": 1978, "annotation": {"number": 64, "value": 127}, "group": "control_change"}, {"time": 2001, "annotation": {"number": 64, "value": 0}, "group": "control_change"}, {"time": 2003, "annotation": {"number": 64, "value": 127}, "group": "control_change"}, {"time": 2024, "annotation": {"number": 64, "value": 0}, "group": "control_change"}, {"time": 2027, "annotation": {"number": 64, "value": 127}, "group": "control_change"}, {"time": 2049, "annotation": {"number": 64, "value": 0}, "group": "control_change"}, {"time": 2051, "annotation": {"number": 64, "value": 127}, "group": "control_change"}, {"time": 2073, "annotation": {"number": 64, "value": 0}, "group": "control_change"}, {"time": 2075, "annotation": {"number": 64, "value": 127}, "group": "control_change"}, {"time": 2098, "annotation": {"number": 64, "value": 0}, "group": "control_change"}, {"time": 2099, "annotation": {"number": 64, "value": 127}, "group": "control_change"}, {"time": 2122, "annotation": {"number": 64, "value": 0}, "group": "control_change"}, {"time": 2124, "annotation": {"number": 64, "value": 127}, "group": "control_change"}, {"time": 2145, "annotation": {"number": 64, "value": 0}, "group": "control_change"}, {"time": 2147, "annotation": {"number": 64, "value": 127}, "group": "control_change"}, {"time": 2193, "annotation": {"number": 64, "value": 0}, "group": "control_change"}, {"time": 2195, "annotation": {"number": 64, "value": 127}, "group": "control_change"}, {"time": 2241, "annotation": {"number": 64, "value": 0}, "group": "control_change"}, {"time": 2243, "annotation": {"number": 64, "value": 127}, "group": "control_change"}, {"time": 2265, "annotation": {"number": 64, "value": 0}, "group": "control_change"}, {"time": 2267, "annotation": {"number": 64, "value": 127}, "group": "control_change"}, {"time": 2288, "annotation": {"number": 64, "value": 0}, "group": "control_change"}, {"time": 2291, "annotation": {"number": 64, "value": 127}, "group": "control_change"}, {"time": 2313, "annotation": {"number": 64, "value": 0}, "group": "control_change"}, {"time": 2315, "annotation": {"number": 64, "value": 127}, "group": "control_change"}, {"time": 2337, "annotation": {"number": 64, "value": 0}, "group": "control_change"}, {"time": 2339, "annotation": {"number": 64, "value": 127}, "group": "control_change"}, {"time": 2385, "annotation": {"number": 64, "value": 0}, "group": "control_change"}, {"time": 2386, "annotation": {"number": 64, "value": 127}, "group": "control_change"}, {"time": 2409, "annotation": {"number": 64, "value": 0}, "group": "control_change"}, {"time": 2411, "annotation": {"number": 64, "value": 127}, "group": "control_change"}, {"time": 2433, "annotation": {"number": 64, "value": 0}, "group": "control_change"}, {"time": 2435, "annotation": {"number": 64, "value": 127}, "group": "control_change"}, {"time": 2457, "annotation": {"number": 64, "value": 0}, "group": "control_change"}, {"time": 2459, "annotation": {"number": 64, "value": 127}, "group": "control_change"}, {"time": 2481, "annotation": {"number": 64, "value": 0}, "group": "control_change"}, {"time": 2483, "annotation": {"number": 64, "value": 127}, "group": "control_change"}, {"time": 2506, "annotation": {"number": 64, "value": 0}, "group": "control_change"}, {"time": 2531, "annotation": {"number": 64, "value": 127}, "group": "control_change"}, {"time": 2552, "annotation": {"number": 64, "value": 0}, "group": "control_change"}, {"time": 2554, "annotation": {"number": 64, "value": 127}, "group": "control_change"}, {"time": 2577, "annotation": {"number": 64, "value": 0}, "group": "control_change"}, {"time": 2578, "annotation": {"number": 64, "value": 127}, "group": "control_change"}, {"time": 2600, "annotation": {"number": 64, "value": 0}, "group": "control_change"}, {"time": 2603, "annotation": {"number": 64, "value": 127}, "group": "control_change"}, {"time": 2624, "annotation": {"number": 64, "value": 0}, "group": "control_change"}, {"time": 2626, "annotation": {"number": 64, "value": 127}, "group": "control_change"}, {"time": 2648, "annotation": {"number": 64, "value": 0}, "group": "control_change"}, {"time": 2650, "annotation": {"number": 64, "value": 127}, "group": "control_change"}, {"time": 2651, "annotation": {"number": 64, "value": 127}, "group": "control_change"}, {"time": 2672, "annotation": {"number": 64, "value": 0}, "group": "control_change"}, {"time": 2724, "annotation": {"number": 64, "value": 127}, "group": "control_change"}, {"time": 2744, "annotation": {"number": 64, "value": 0}, "group": "control_change"}, {"time": 2746, "annotation": {"number": 64, "value": 127}, "group": "control_change"}, {"time": 2768, "annotation": {"number": 64, "value": 0}, "group": "control_change"}, {"time": 2770, "annotation": {"number": 64, "value": 127}, "group": "control_change"}, {"time": 2792, "annotation": {"number": 64, "value": 0}, "group": "control_change"}, {"time": 2794, "annotation": {"number": 64, "value": 127}, "group": "control_change"}, {"time": 2816, "annotation": {"number": 64, "value": 0}, "group": "control_change"}, {"time": 2819, "annotation": {"number": 64, "value": 127}, "group": "control_change"}, {"time": 2841, "annotation": {"number": 64, "value": 0}, "group": "control_change"}, {"time": 2843, "annotation": {"number": 64, "value": 127}, "group": "control_change"}, {"time": 2865, "annotation": {"number": 64, "value": 0}, "group": "control_change"}, {"time": 2867, "annotation": {"number": 64, "value": 127}, "group": "control_change"}, {"time": 2889, "annotation": {"number": 64, "value": 0}, "group": "control_change"}, {"time": 2891, "annotation": {"number": 64, "value": 127}, "group": "control_change"}, {"time": 2911, "annotation": {"number": 64, "value": 0}, "group": "control_change"}, {"time": 3180, "annotation": {"number": 64, "value": 127}, "group": "control_change"}, {"time": 3201, "annotation": {"number": 64, "value": 0}, "group": "control_change"}, {"time": 3203, "annotation": {"number": 64, "value": 127}, "group": "control_change"}, {"time": 3225, "annotation": {"number": 64, "value": 0}, "group": "control_change"}, {"time": 3227, "annotation": {"number": 64, "value": 127}, "group": "control_change"}, {"time": 3248, "annotation": {"number": 64, "value": 0}, "group": "control_change"}, {"time": 3251, "annotation": {"number": 64, "value": 127}, "group": "control_change"}, {"time": 3272, "annotation": {"number": 64, "value": 0}, "group": "control_change"}, {"time": 3275, "annotation": {"number": 64, "value": 127}, "group": "control_change"}, {"time": 3297, "annotation": {"number": 64, "value": 0}, "group": "control_change"}, {"time": 3299, "annotation": {"number": 64, "value": 127}, "group": "control_change"}, {"time": 3320, "annotation": {"number": 64, "value": 0}, "group": "control_change"}, {"time": 3323, "annotation": {"number": 64, "value": 127}, "group": "control_change"}, {"time": 3345, "annotation": {"number": 64, "value": 0}, "group": "control_change"}, {"time": 3347, "annotation": {"number": 64, "value": 127}, "group": "control_change"}, {"time": 3354, "annotation": {"number": 64, "value": 0}, "group": "control_change"}, {"time": 3371, "annotation": {"number": 64, "value": 127}, "group": "control_change"}, {"time": 3392, "annotation": {"number": 64, "value": 0}, "group": "control_change"}, {"time": 3395, "annotation": {"number": 64, "value": 127}, "group": "control_change"}, {"time": 3416, "annotation": {"number": 64, "value": 0}, "group": "control_change"}, {"time": 3418, "annotation": {"number": 64, "value": 127}, "group": "control_change"}, {"time": 3440, "annotation": {"number": 64, "value": 0}, "group": "control_change"}, {"time": 3442, "annotation": {"number": 64, "value": 127}, "group": "control_change"}, {"time": 3464, "annotation": {"number": 64, "value": 0}, "group": "control_change"}, {"time": 3467, "annotation": {"number": 64, "value": 127}, "group": "control_change"}, {"time": 3488, "annotation": {"number": 64, "value": 0}, "group": "control_change"}, {"time": 3491, "annotation": {"number": 64, "value": 127}, "group": "control_change"}, {"time": 3512, "annotation": {"number": 64, "value": 0}, "group": "control_change"}, {"time": 3515, "annotation": {"number": 64, "value": 127}, "group": "control_change"}, {"time": 3537, "annotation": {"number": 64, "value": 0}, "group": "control_change"}, {"time": 3539, "annotation": {"number": 64, "value": 127}, "group": "control_change"}, {"time": 3559, "annotation": {"number": 64, "value": 0}, "group": "control_change"}, {"time": 3565, "annotation": {"number": 64, "value": 127}, "group": "control_change"}, {"time": 3587, "annotation": {"number": 64, "value": 0}, "group": "control_change"}, {"time": 3591, "annotation": {"number": 64, "value": 127}, "group": "control_change"}, {"time": 3602, "annotation": {"number": 64, "value": 127}, "group": "control_change"}, {"time": 3609, "annotation": {"number": 64, "value": 0}, "group": "control_change"}, {"time": 3612, "annotation": {"number": 64, "value": 0}, "group": "control_change"}, {"time": 3615, "annotation": {"number": 64, "value": 127}, "group": "control_change"}, {"time": 3638, "annotation": {"number": 64, "value": 0}, "group": "control_change"}, {"time": 3643, "annotation": {"number": 64, "value": 127}, "group": "control_change"}, {"time": 3667, "annotation": {"number": 64, "value": 0}, "group": "control_change"}, {"time": 3670, "annotation": {"number": 64, "value": 127}, "group": "control_change"}, {"time": 3700, "annotation": {"number": 64, "value": 127}, "group": "control_change"}, {"time": 3711, "annotation": {"number": 64, "value": 0}, "group": "control_change"}, {"time": 3716, "annotation": {"number": 64, "value": 127}, "group": "control_change"}, {"time": 3760, "annotation": {"number": 64, "value": 0}, "group": "control_change"}, {"time": 3761, "annotation": {"number": 64, "value": 127}, "group": "control_change"}, {"time": 3768, "annotation": {"number": 64, "value": 127}, "group": "control_change"}, {"time": 3785, "annotation": {"number": 64, "value": 0}, "group": "control_change"}, {"time": 3838, "annotation": {"number": 64, "value": 127}, "group": "control_change"}, {"time": 3843, "annotation": {"number": 64, "value": 127}, "group": "control_change"}, {"time": 3848, "annotation": {"number": 64, "value": 0}, "group": "control_change"}, {"time": 3849, "annotation": {"number": 64, "value": 127}, "group": "control_change"}, {"time": 3851, "annotation": {"number": 64, "value": 0}, "group": "control_change"}, {"time": 3851, "annotation": {"number": 64, "value": 127}, "group": "control_change"}, {"time": 3852, "annotation": {"number": 64, "value": 0}, "group": "control_change"}, {"time": 3853, "annotation": {"number": 64, "value": 127}, "group": "control_change"}, {"time": 3859, "annotation": {"number": 64, "value": 0}, "group": "control_change"}, {"time": 3867, "annotation": {"number": 64, "value": 0}, "group": "control_change"}, {"time": 3869, "annotation": {"number": 64, "value": 127}, "group": "control_change"}, {"time": 3873, "annotation": {"number": 64, "value": 0}, "group": "control_change"}]}]}