{"metadata": {"schema_version": "0.2", "title": "None", "source_filename": "381.mid", "source_format": "midi"}, "resolution": 12, "tempos": [{"time": 0, "qpm": 66.000066000066}], "time_signatures": [{"time": 0, "numerator": 1, "denominator": 4}], "tracks": [{"program": 0, "is_drum": false, "name": "MELODY", "notes": [{"time": 407, "pitch": 59, "duration": 1, "velocity": 102}, {"time": 410, "pitch": 59, "duration": 1, "velocity": 66}, {"time": 413, "pitch": 59, "duration": 1, "velocity": 92}, {"time": 416, "pitch": 59, "duration": 1, "velocity": 74}, {"time": 419, "pitch": 59, "duration": 3, "velocity": 100}, {"time": 425, "pitch": 66, "duration": 3, "velocity": 117}, {"time": 428, "pitch": 64, "duration": 3, "velocity": 81}, {"time": 431, "pitch": 62, "duration": 20, "velocity": 100}, {"time": 455, "pitch": 61, "duration": 1, "velocity": 117}, {"time": 458, "pitch": 61, "duration": 1, "velocity": 97}, {"time": 461, "pitch": 61, "duration": 1, "velocity": 93}, {"time": 464, "pitch": 61, "duration": 1, "velocity": 92}, {"time": 467, "pitch": 61, "duration": 2, "velocity": 107}, {"time": 470, "pitch": 59, "duration": 2, "velocity": 85}, {"time": 473, "pitch": 57, "duration": 6, "velocity": 96}, {"time": 479, "pitch": 59, "duration": 15, "velocity": 96}, {"time": 503, "pitch": 59, "duration": 1, "velocity": 93}, {"time": 506, "pitch": 59, "duration": 1, "velocity": 86}, {"time": 509, "pitch": 59, "duration": 1, "velocity": 88}, {"time": 512, "pitch": 59, "duration": 1, "velocity": 100}, {"time": 515, "pitch": 59, "duration": 2, "velocity": 100}, {"time": 521, "pitch": 66, "duration": 3, "velocity": 117}, {"time": 524, "pitch": 64, "duration": 3, "velocity": 88}, {"time": 527, "pitch": 62, "duration": 18, "velocity": 100}, {"time": 551, "pitch": 64, "duration": 1, "velocity": 93}, {"time": 554, "pitch": 64, "duration": 1, "velocity": 89}, {"time": 557, "pitch": 64, "duration": 1, "velocity": 92}, {"time": 560, "pitch": 64, "duration": 1, "velocity": 92}, {"time": 563, "pitch": 64, "duration": 3, "velocity": 99}, {"time": 569, "pitch": 69, "duration": 3, "velocity": 117}, {"time": 572, "pitch": 67, "duration": 3, "velocity": 89}, {"time": 575, "pitch": 66, "duration": 18, "velocity": 95}, {"time": 599, "pitch": 66, "duration": 4, "velocity": 127}, {"time": 605, "pitch": 71, "duration": 3, "velocity": 102}, {"time": 611, "pitch": 71, "duration": 1, "velocity": 107}, {"time": 614, "pitch": 66, "duration": 8, "velocity": 96}, {"time": 623, "pitch": 64, "duration": 17, "velocity": 96}, {"time": 647, "pitch": 69, "duration": 5, "velocity": 102}, {"time": 653, "pitch": 66, "duration": 5, "velocity": 99}, {"time": 659, "pitch": 64, "duration": 2, "velocity": 95}, {"time": 662, "pitch": 66, "duration": 8, "velocity": 102}, {"time": 671, "pitch": 59, "duration": 14, "velocity": 96}, {"time": 695, "pitch": 59, "duration": 3, "velocity": 117}, {"time": 698, "pitch": 64, "duration": 3, "velocity": 90}, {"time": 704, "pitch": 64, "duration": 1, "velocity": 93}, {"time": 707, "pitch": 64, "duration": 4, "velocity": 107}, {"time": 713, "pitch": 62, "duration": 2, "velocity": 99}, {"time": 716, "pitch": 64, "duration": 1, "velocity": 89}, {"time": 719, "pitch": 66, "duration": 4, "velocity": 112}, {"time": 725, "pitch": 64, "duration": 5, "velocity": 100}, {"time": 731, "pitch": 62, "duration": 4, "velocity": 96}, {"time": 734, "pitch": 66, "duration": 8, "velocity": 112}, {"time": 743, "pitch": 59, "duration": 30, "velocity": 97}, {"time": 791, "pitch": 59, "duration": 1, "velocity": 102}, {"time": 794, "pitch": 59, "duration": 1, "velocity": 66}, {"time": 797, "pitch": 59, "duration": 1, "velocity": 92}, {"time": 800, "pitch": 59, "duration": 1, "velocity": 74}, {"time": 803, "pitch": 59, "duration": 3, "velocity": 100}, {"time": 809, "pitch": 66, "duration": 3, "velocity": 117}, {"time": 812, "pitch": 64, "duration": 3, "velocity": 81}, {"time": 815, "pitch": 62, "duration": 20, "velocity": 100}, {"time": 839, "pitch": 61, "duration": 1, "velocity": 117}, {"time": 842, "pitch": 61, "duration": 1, "velocity": 97}, {"time": 845, "pitch": 61, "duration": 1, "velocity": 93}, {"time": 848, "pitch": 61, "duration": 1, "velocity": 92}, {"time": 851, "pitch": 61, "duration": 2, "velocity": 107}, {"time": 854, "pitch": 59, "duration": 2, "velocity": 85}, {"time": 857, "pitch": 57, "duration": 6, "velocity": 96}, {"time": 863, "pitch": 59, "duration": 15, "velocity": 96}, {"time": 887, "pitch": 59, "duration": 1, "velocity": 93}, {"time": 890, "pitch": 59, "duration": 1, "velocity": 86}, {"time": 893, "pitch": 59, "duration": 1, "velocity": 88}, {"time": 896, "pitch": 59, "duration": 1, "velocity": 100}, {"time": 899, "pitch": 59, "duration": 2, "velocity": 100}, {"time": 905, "pitch": 66, "duration": 3, "velocity": 117}, {"time": 908, "pitch": 64, "duration": 3, "velocity": 88}, {"time": 911, "pitch": 62, "duration": 18, "velocity": 100}, {"time": 935, "pitch": 64, "duration": 1, "velocity": 93}, {"time": 938, "pitch": 64, "duration": 1, "velocity": 89}, {"time": 941, "pitch": 64, "duration": 1, "velocity": 92}, {"time": 944, "pitch": 64, "duration": 1, "velocity": 92}, {"time": 947, "pitch": 64, "duration": 3, "velocity": 99}, {"time": 953, "pitch": 69, "duration": 3, "velocity": 117}, {"time": 956, "pitch": 67, "duration": 3, "velocity": 89}, {"time": 959, "pitch": 66, "duration": 18, "velocity": 95}, {"time": 983, "pitch": 66, "duration": 4, "velocity": 127}, {"time": 989, "pitch": 71, "duration": 3, "velocity": 102}, {"time": 995, "pitch": 71, "duration": 1, "velocity": 107}, {"time": 1001, "pitch": 66, "duration": 6, "velocity": 96}, {"time": 1007, "pitch": 64, "duration": 17, "velocity": 96}, {"time": 1031, "pitch": 69, "duration": 5, "velocity": 102}, {"time": 1037, "pitch": 66, "duration": 5, "velocity": 99}, {"time": 1043, "pitch": 64, "duration": 2, "velocity": 95}, {"time": 1046, "pitch": 66, "duration": 8, "velocity": 102}, {"time": 1055, "pitch": 59, "duration": 14, "velocity": 96}, {"time": 1079, "pitch": 59, "duration": 3, "velocity": 117}, {"time": 1082, "pitch": 64, "duration": 3, "velocity": 90}, {"time": 1088, "pitch": 64, "duration": 1, "velocity": 93}, {"time": 1091, "pitch": 64, "duration": 4, "velocity": 107}, {"time": 1097, "pitch": 62, "duration": 2, "velocity": 99}, {"time": 1100, "pitch": 64, "duration": 1, "velocity": 89}, {"time": 1103, "pitch": 66, "duration": 4, "velocity": 112}, {"time": 1109, "pitch": 64, "duration": 5, "velocity": 100}, {"time": 1115, "pitch": 62, "duration": 4, "velocity": 96}, {"time": 1118, "pitch": 66, "duration": 7, "velocity": 112}, {"time": 1127, "pitch": 59, "duration": 25, "velocity": 100}, {"time": 1163, "pitch": 74, "duration": 5, "velocity": 122}, {"time": 1169, "pitch": 76, "duration": 5, "velocity": 117}, {"time": 1175, "pitch": 78, "duration": 11, "velocity": 127}, {"time": 1193, "pitch": 78, "duration": 1, "velocity": 127}, {"time": 1196, "pitch": 78, "duration": 1, "velocity": 112}, {"time": 1199, "pitch": 78, "duration": 5, "velocity": 127}, {"time": 1205, "pitch": 76, "duration": 6, "velocity": 127}, {"time": 1211, "pitch": 74, "duration": 5, "velocity": 112}, {"time": 1217, "pitch": 74, "duration": 3, "velocity": 117}, {"time": 1220, "pitch": 73, "duration": 3, "velocity": 122}, {"time": 1223, "pitch": 71, "duration": 18, "velocity": 117}, {"time": 1259, "pitch": 71, "duration": 6, "velocity": 112}, {"time": 1265, "pitch": 78, "duration": 6, "velocity": 127}, {"time": 1271, "pitch": 76, "duration": 13, "velocity": 112}, {"time": 1289, "pitch": 78, "duration": 2, "velocity": 112}, {"time": 1292, "pitch": 76, "duration": 1, "velocity": 83}, {"time": 1295, "pitch": 76, "duration": 4, "velocity": 99}, {"time": 1301, "pitch": 74, "duration": 3, "velocity": 112}, {"time": 1307, "pitch": 74, "duration": 2, "velocity": 117}, {"time": 1310, "pitch": 71, "duration": 8, "velocity": 100}, {"time": 1319, "pitch": 69, "duration": 25, "velocity": 95}, {"time": 1355, "pitch": 74, "duration": 5, "velocity": 117}, {"time": 1361, "pitch": 76, "duration": 4, "velocity": 112}, {"time": 1367, "pitch": 78, "duration": 13, "velocity": 127}, {"time": 1385, "pitch": 78, "duration": 1, "velocity": 117}, {"time": 1388, "pitch": 78, "duration": 1, "velocity": 107}, {"time": 1391, "pitch": 78, "duration": 4, "velocity": 117}, {"time": 1397, "pitch": 76, "duration": 5, "velocity": 122}, {"time": 1403, "pitch": 74, "duration": 5, "velocity": 97}, {"time": 1409, "pitch": 74, "duration": 3, "velocity": 100}, {"time": 1412, "pitch": 73, "duration": 3, "velocity": 97}, {"time": 1415, "pitch": 71, "duration": 25, "velocity": 100}, {"time": 1451, "pitch": 71, "duration": 5, "velocity": 107}, {"time": 1457, "pitch": 78, "duration": 3, "velocity": 127}, {"time": 1460, "pitch": 76, "duration": 1, "velocity": 100}, {"time": 1463, "pitch": 76, "duration": 11, "velocity": 127}, {"time": 1481, "pitch": 74, "duration": 4, "velocity": 117}, {"time": 1487, "pitch": 76, "duration": 4, "velocity": 117}, {"time": 1493, "pitch": 74, "duration": 4, "velocity": 127}, {"time": 1499, "pitch": 71, "duration": 4, "velocity": 107}, {"time": 1502, "pitch": 76, "duration": 4, "velocity": 127}, {"time": 1508, "pitch": 74, "duration": 1, "velocity": 90}, {"time": 1511, "pitch": 74, "duration": 29, "velocity": 107}, {"time": 1943, "pitch": 59, "duration": 1, "velocity": 102}, {"time": 1946, "pitch": 59, "duration": 1, "velocity": 66}, {"time": 1949, "pitch": 59, "duration": 1, "velocity": 92}, {"time": 1952, "pitch": 59, "duration": 1, "velocity": 74}, {"time": 1955, "pitch": 59, "duration": 3, "velocity": 100}, {"time": 1961, "pitch": 66, "duration": 3, "velocity": 117}, {"time": 1964, "pitch": 64, "duration": 3, "velocity": 81}, {"time": 1967, "pitch": 62, "duration": 20, "velocity": 100}, {"time": 1991, "pitch": 61, "duration": 1, "velocity": 117}, {"time": 1994, "pitch": 61, "duration": 1, "velocity": 97}, {"time": 1997, "pitch": 61, "duration": 1, "velocity": 93}, {"time": 2000, "pitch": 61, "duration": 1, "velocity": 92}, {"time": 2003, "pitch": 61, "duration": 2, "velocity": 107}, {"time": 2006, "pitch": 59, "duration": 2, "velocity": 85}, {"time": 2009, "pitch": 57, "duration": 6, "velocity": 96}, {"time": 2015, "pitch": 59, "duration": 15, "velocity": 96}, {"time": 2039, "pitch": 59, "duration": 1, "velocity": 93}, {"time": 2042, "pitch": 59, "duration": 1, "velocity": 86}, {"time": 2045, "pitch": 59, "duration": 1, "velocity": 88}, {"time": 2048, "pitch": 59, "duration": 1, "velocity": 100}, {"time": 2051, "pitch": 59, "duration": 2, "velocity": 100}, {"time": 2057, "pitch": 66, "duration": 3, "velocity": 117}, {"time": 2060, "pitch": 64, "duration": 3, "velocity": 88}, {"time": 2063, "pitch": 62, "duration": 18, "velocity": 100}, {"time": 2087, "pitch": 64, "duration": 1, "velocity": 93}, {"time": 2090, "pitch": 64, "duration": 1, "velocity": 89}, {"time": 2093, "pitch": 64, "duration": 1, "velocity": 92}, {"time": 2096, "pitch": 64, "duration": 1, "velocity": 92}, {"time": 2099, "pitch": 64, "duration": 3, "velocity": 99}, {"time": 2105, "pitch": 69, "duration": 3, "velocity": 117}, {"time": 2108, "pitch": 67, "duration": 3, "velocity": 89}, {"time": 2111, "pitch": 66, "duration": 18, "velocity": 95}, {"time": 2135, "pitch": 66, "duration": 4, "velocity": 127}, {"time": 2141, "pitch": 71, "duration": 3, "velocity": 102}, {"time": 2147, "pitch": 71, "duration": 1, "velocity": 107}, {"time": 2153, "pitch": 66, "duration": 6, "velocity": 96}, {"time": 2159, "pitch": 64, "duration": 17, "velocity": 96}, {"time": 2183, "pitch": 69, "duration": 5, "velocity": 102}, {"time": 2189, "pitch": 66, "duration": 5, "velocity": 99}, {"time": 2195, "pitch": 64, "duration": 2, "velocity": 95}, {"time": 2198, "pitch": 66, "duration": 8, "velocity": 102}, {"time": 2207, "pitch": 59, "duration": 14, "velocity": 96}, {"time": 2231, "pitch": 59, "duration": 3, "velocity": 117}, {"time": 2234, "pitch": 64, "duration": 3, "velocity": 90}, {"time": 2240, "pitch": 64, "duration": 1, "velocity": 93}, {"time": 2243, "pitch": 64, "duration": 4, "velocity": 107}, {"time": 2249, "pitch": 62, "duration": 2, "velocity": 99}, {"time": 2252, "pitch": 64, "duration": 1, "velocity": 89}, {"time": 2255, "pitch": 66, "duration": 4, "velocity": 112}, {"time": 2261, "pitch": 64, "duration": 5, "velocity": 100}, {"time": 2267, "pitch": 62, "duration": 4, "velocity": 96}, {"time": 2270, "pitch": 66, "duration": 7, "velocity": 112}, {"time": 2279, "pitch": 59, "duration": 25, "velocity": 100}, {"time": 2315, "pitch": 74, "duration": 5, "velocity": 122}, {"time": 2321, "pitch": 76, "duration": 5, "velocity": 117}, {"time": 2327, "pitch": 78, "duration": 11, "velocity": 127}, {"time": 2345, "pitch": 78, "duration": 1, "velocity": 127}, {"time": 2348, "pitch": 78, "duration": 1, "velocity": 112}, {"time": 2351, "pitch": 78, "duration": 5, "velocity": 127}, {"time": 2357, "pitch": 76, "duration": 6, "velocity": 127}, {"time": 2363, "pitch": 74, "duration": 5, "velocity": 112}, {"time": 2369, "pitch": 74, "duration": 3, "velocity": 117}, {"time": 2372, "pitch": 73, "duration": 3, "velocity": 122}, {"time": 2375, "pitch": 71, "duration": 18, "velocity": 117}, {"time": 2411, "pitch": 71, "duration": 6, "velocity": 112}, {"time": 2417, "pitch": 78, "duration": 6, "velocity": 127}, {"time": 2423, "pitch": 76, "duration": 13, "velocity": 112}, {"time": 2441, "pitch": 78, "duration": 2, "velocity": 112}, {"time": 2444, "pitch": 76, "duration": 1, "velocity": 83}, {"time": 2447, "pitch": 76, "duration": 4, "velocity": 99}, {"time": 2453, "pitch": 74, "duration": 3, "velocity": 112}, {"time": 2459, "pitch": 74, "duration": 2, "velocity": 117}, {"time": 2462, "pitch": 71, "duration": 8, "velocity": 100}, {"time": 2471, "pitch": 69, "duration": 25, "velocity": 95}, {"time": 2507, "pitch": 74, "duration": 5, "velocity": 117}, {"time": 2513, "pitch": 76, "duration": 4, "velocity": 112}, {"time": 2519, "pitch": 78, "duration": 13, "velocity": 127}, {"time": 2537, "pitch": 78, "duration": 1, "velocity": 117}, {"time": 2540, "pitch": 78, "duration": 1, "velocity": 107}, {"time": 2543, "pitch": 78, "duration": 4, "velocity": 117}, {"time": 2549, "pitch": 76, "duration": 5, "velocity": 122}, {"time": 2555, "pitch": 74, "duration": 5, "velocity": 97}, {"time": 2561, "pitch": 74, "duration": 3, "velocity": 100}, {"time": 2564, "pitch": 73, "duration": 3, "velocity": 97}, {"time": 2567, "pitch": 71, "duration": 25, "velocity": 100}, {"time": 2603, "pitch": 71, "duration": 5, "velocity": 107}, {"time": 2609, "pitch": 78, "duration": 3, "velocity": 127}, {"time": 2612, "pitch": 76, "duration": 1, "velocity": 100}, {"time": 2615, "pitch": 76, "duration": 11, "velocity": 127}, {"time": 2633, "pitch": 74, "duration": 4, "velocity": 117}, {"time": 2639, "pitch": 76, "duration": 4, "velocity": 117}, {"time": 2645, "pitch": 74, "duration": 4, "velocity": 127}, {"time": 2651, "pitch": 71, "duration": 4, "velocity": 107}, {"time": 2654, "pitch": 76, "duration": 4, "velocity": 127}, {"time": 2660, "pitch": 74, "duration": 1, "velocity": 90}, {"time": 2663, "pitch": 74, "duration": 29, "velocity": 107}, {"time": 2699, "pitch": 74, "duration": 5, "velocity": 122}, {"time": 2705, "pitch": 76, "duration": 5, "velocity": 117}, {"time": 2711, "pitch": 78, "duration": 11, "velocity": 127}, {"time": 2729, "pitch": 78, "duration": 1, "velocity": 127}, {"time": 2732, "pitch": 78, "duration": 1, "velocity": 112}, {"time": 2735, "pitch": 78, "duration": 5, "velocity": 127}, {"time": 2741, "pitch": 76, "duration": 6, "velocity": 127}, {"time": 2747, "pitch": 74, "duration": 5, "velocity": 112}, {"time": 2753, "pitch": 74, "duration": 3, "velocity": 117}, {"time": 2756, "pitch": 73, "duration": 3, "velocity": 122}, {"time": 2759, "pitch": 71, "duration": 18, "velocity": 117}, {"time": 2795, "pitch": 71, "duration": 6, "velocity": 112}, {"time": 2801, "pitch": 78, "duration": 6, "velocity": 127}, {"time": 2807, "pitch": 76, "duration": 13, "velocity": 112}, {"time": 2825, "pitch": 78, "duration": 2, "velocity": 112}, {"time": 2828, "pitch": 76, "duration": 1, "velocity": 83}, {"time": 2831, "pitch": 76, "duration": 4, "velocity": 99}, {"time": 2837, "pitch": 74, "duration": 3, "velocity": 112}, {"time": 2843, "pitch": 74, "duration": 2, "velocity": 117}, {"time": 2846, "pitch": 71, "duration": 8, "velocity": 100}, {"time": 2855, "pitch": 69, "duration": 25, "velocity": 95}, {"time": 2891, "pitch": 74, "duration": 5, "velocity": 117}, {"time": 2897, "pitch": 76, "duration": 4, "velocity": 112}, {"time": 2903, "pitch": 78, "duration": 13, "velocity": 127}, {"time": 2921, "pitch": 78, "duration": 1, "velocity": 117}, {"time": 2924, "pitch": 78, "duration": 1, "velocity": 107}, {"time": 2927, "pitch": 78, "duration": 4, "velocity": 117}, {"time": 2933, "pitch": 76, "duration": 5, "velocity": 122}, {"time": 2939, "pitch": 74, "duration": 5, "velocity": 97}, {"time": 2945, "pitch": 74, "duration": 3, "velocity": 100}, {"time": 2948, "pitch": 73, "duration": 3, "velocity": 97}, {"time": 2951, "pitch": 71, "duration": 25, "velocity": 100}, {"time": 2987, "pitch": 71, "duration": 5, "velocity": 107}, {"time": 2993, "pitch": 78, "duration": 3, "velocity": 127}, {"time": 2996, "pitch": 76, "duration": 1, "velocity": 100}, {"time": 2999, "pitch": 76, "duration": 11, "velocity": 127}, {"time": 3017, "pitch": 74, "duration": 4, "velocity": 117}, {"time": 3023, "pitch": 76, "duration": 4, "velocity": 117}, {"time": 3029, "pitch": 74, "duration": 4, "velocity": 127}, {"time": 3035, "pitch": 71, "duration": 4, "velocity": 107}, {"time": 3038, "pitch": 76, "duration": 4, "velocity": 127}, {"time": 3044, "pitch": 74, "duration": 1, "velocity": 90}, {"time": 3047, "pitch": 74, "duration": 29, "velocity": 107}, {"time": 3083, "pitch": 71, "duration": 5, "velocity": 107}, {"time": 3089, "pitch": 78, "duration": 3, "velocity": 127}, {"time": 3092, "pitch": 76, "duration": 1, "velocity": 100}, {"time": 3095, "pitch": 76, "duration": 11, "velocity": 127}, {"time": 3113, "pitch": 74, "duration": 4, "velocity": 117}, {"time": 3119, "pitch": 76, "duration": 4, "velocity": 117}, {"time": 3125, "pitch": 74, "duration": 4, "velocity": 127}, {"time": 3131, "pitch": 71, "duration": 4, "velocity": 107}, {"time": 3134, "pitch": 76, "duration": 4, "velocity": 127}, {"time": 3140, "pitch": 74, "duration": 1, "velocity": 90}, {"time": 3143, "pitch": 74, "duration": 29, "velocity": 107}]}, {"program": 0, "is_drum": false, "name": "BRIDGE", "notes": [{"time": 11, "pitch": 66, "duration": 5, "velocity": 102}, {"time": 17, "pitch": 69, "duration": 5, "velocity": 95}, {"time": 23, "pitch": 71, "duration": 16, "velocity": 117}, {"time": 41, "pitch": 69, "duration": 6, "velocity": 112}, {"time": 47, "pitch": 71, "duration": 11, "velocity": 102}, {"time": 65, "pitch": 74, "duration": 5, "velocity": 107}, {"time": 71, "pitch": 69, "duration": 14, "velocity": 100}, {"time": 89, "pitch": 71, "duration": 2, "velocity": 122}, {"time": 92, "pitch": 69, "duration": 2, "velocity": 93}, {"time": 95, "pitch": 66, "duration": 12, "velocity": 102}, {"time": 113, "pitch": 64, "duration": 2, "velocity": 93}, {"time": 116, "pitch": 66, "duration": 2, "velocity": 76}, {"time": 119, "pitch": 69, "duration": 15, "velocity": 95}, {"time": 137, "pitch": 66, "duration": 2, "velocity": 96}, {"time": 140, "pitch": 69, "duration": 3, "velocity": 95}, {"time": 143, "pitch": 71, "duration": 10, "velocity": 112}, {"time": 149, "pitch": 74, "duration": 7, "velocity": 99}, {"time": 161, "pitch": 71, "duration": 3, "velocity": 127}, {"time": 164, "pitch": 69, "duration": 4, "velocity": 100}, {"time": 167, "pitch": 66, "duration": 27, "velocity": 93}, {"time": 203, "pitch": 66, "duration": 6, "velocity": 107}, {"time": 209, "pitch": 69, "duration": 5, "velocity": 97}, {"time": 215, "pitch": 71, "duration": 18, "velocity": 112}, {"time": 233, "pitch": 78, "duration": 6, "velocity": 112}, {"time": 239, "pitch": 76, "duration": 15, "velocity": 112}, {"time": 257, "pitch": 74, "duration": 3, "velocity": 100}, {"time": 260, "pitch": 73, "duration": 3, "velocity": 93}, {"time": 263, "pitch": 74, "duration": 17, "velocity": 95}, {"time": 278, "pitch": 74, "duration": 2, "velocity": 96}, {"time": 281, "pitch": 76, "duration": 2, "velocity": 90}, {"time": 284, "pitch": 78, "duration": 3, "velocity": 102}, {"time": 287, "pitch": 71, "duration": 18, "velocity": 93}, {"time": 305, "pitch": 71, "duration": 1, "velocity": 95}, {"time": 308, "pitch": 78, "duration": 2, "velocity": 107}, {"time": 311, "pitch": 76, "duration": 15, "velocity": 92}, {"time": 329, "pitch": 74, "duration": 2, "velocity": 95}, {"time": 332, "pitch": 76, "duration": 2, "velocity": 85}, {"time": 335, "pitch": 78, "duration": 8, "velocity": 100}, {"time": 353, "pitch": 74, "duration": 5, "velocity": 112}, {"time": 359, "pitch": 71, "duration": 36, "velocity": 100}, {"time": 485, "pitch": 54, "duration": 5, "velocity": 83}, {"time": 491, "pitch": 66, "duration": 5, "velocity": 92}, {"time": 496, "pitch": 62, "duration": 4, "velocity": 83}, {"time": 499, "pitch": 61, "duration": 3, "velocity": 78}, {"time": 502, "pitch": 59, "duration": 18, "velocity": 69}, {"time": 587, "pitch": 61, "duration": 6, "velocity": 85}, {"time": 593, "pitch": 57, "duration": 6, "velocity": 70}, {"time": 599, "pitch": 59, "duration": 16, "velocity": 63}, {"time": 623, "pitch": 79, "duration": 9, "velocity": 95}, {"time": 635, "pitch": 79, "duration": 12, "velocity": 75}, {"time": 742, "pitch": 71, "duration": 11, "velocity": 81}, {"time": 754, "pitch": 71, "duration": 7, "velocity": 78}, {"time": 760, "pitch": 73, "duration": 6, "velocity": 82}, {"time": 766, "pitch": 74, "duration": 12, "velocity": 85}, {"time": 778, "pitch": 78, "duration": 13, "velocity": 95}, {"time": 820, "pitch": 74, "duration": 7, "velocity": 92}, {"time": 826, "pitch": 76, "duration": 7, "velocity": 97}, {"time": 832, "pitch": 74, "duration": 7, "velocity": 78}, {"time": 838, "pitch": 73, "duration": 18, "velocity": 77}, {"time": 922, "pitch": 64, "duration": 3, "velocity": 107}, {"time": 925, "pitch": 66, "duration": 3, "velocity": 78}, {"time": 928, "pitch": 64, "duration": 6, "velocity": 76}, {"time": 935, "pitch": 64, "duration": 17, "velocity": 100}, {"time": 1018, "pitch": 64, "duration": 3, "velocity": 97}, {"time": 1021, "pitch": 66, "duration": 3, "velocity": 90}, {"time": 1024, "pitch": 64, "duration": 8, "velocity": 78}, {"time": 1126, "pitch": 71, "duration": 7, "velocity": 76}, {"time": 1132, "pitch": 66, "duration": 6, "velocity": 89}, {"time": 1138, "pitch": 78, "duration": 6, "velocity": 100}, {"time": 1144, "pitch": 74, "duration": 4, "velocity": 96}, {"time": 1147, "pitch": 73, "duration": 3, "velocity": 92}, {"time": 1150, "pitch": 71, "duration": 10, "velocity": 99}, {"time": 1162, "pitch": 71, "duration": 3, "velocity": 89}, {"time": 1165, "pitch": 73, "duration": 3, "velocity": 117}, {"time": 1168, "pitch": 74, "duration": 4, "velocity": 93}, {"time": 1171, "pitch": 76, "duration": 4, "velocity": 95}, {"time": 1174, "pitch": 78, "duration": 22, "velocity": 127}, {"time": 1240, "pitch": 62, "duration": 4, "velocity": 112}, {"time": 1243, "pitch": 64, "duration": 3, "velocity": 96}, {"time": 1246, "pitch": 66, "duration": 18, "velocity": 117}, {"time": 1336, "pitch": 66, "duration": 3, "velocity": 97}, {"time": 1339, "pitch": 69, "duration": 3, "velocity": 96}, {"time": 1343, "pitch": 71, "duration": 11, "velocity": 127}, {"time": 1354, "pitch": 69, "duration": 12, "velocity": 117}, {"time": 1426, "pitch": 59, "duration": 8, "velocity": 99}, {"time": 1435, "pitch": 62, "duration": 3, "velocity": 100}, {"time": 1439, "pitch": 64, "duration": 12, "velocity": 99}, {"time": 1450, "pitch": 62, "duration": 10, "velocity": 97}, {"time": 1541, "pitch": 69, "duration": 3, "velocity": 107}, {"time": 1544, "pitch": 71, "duration": 2, "velocity": 117}, {"time": 1547, "pitch": 69, "duration": 3, "velocity": 112}, {"time": 1550, "pitch": 78, "duration": 2, "velocity": 127}, {"time": 1551, "pitch": 49, "duration": 19, "velocity": 1}, {"time": 1553, "pitch": 76, "duration": 2, "velocity": 99}, {"time": 1556, "pitch": 74, "duration": 1, "velocity": 95}, {"time": 1557, "pitch": 76, "duration": 1, "velocity": 97}, {"time": 1559, "pitch": 78, "duration": 12, "velocity": 127}, {"time": 1577, "pitch": 78, "duration": 1, "velocity": 122}, {"time": 1580, "pitch": 78, "duration": 1, "velocity": 100}, {"time": 1583, "pitch": 78, "duration": 5, "velocity": 117}, {"time": 1589, "pitch": 76, "duration": 5, "velocity": 112}, {"time": 1595, "pitch": 74, "duration": 7, "velocity": 99}, {"time": 1604, "pitch": 73, "duration": 3, "velocity": 88}, {"time": 1607, "pitch": 71, "duration": 19, "velocity": 95}, {"time": 1643, "pitch": 71, "duration": 1, "velocity": 107}, {"time": 1646, "pitch": 71, "duration": 2, "velocity": 97}, {"time": 1649, "pitch": 76, "duration": 2, "velocity": 100}, {"time": 1652, "pitch": 78, "duration": 3, "velocity": 100}, {"time": 1655, "pitch": 76, "duration": 13, "velocity": 127}, {"time": 1673, "pitch": 76, "duration": 1, "velocity": 117}, {"time": 1676, "pitch": 76, "duration": 1, "velocity": 88}, {"time": 1679, "pitch": 76, "duration": 5, "velocity": 100}, {"time": 1685, "pitch": 74, "duration": 4, "velocity": 112}, {"time": 1691, "pitch": 71, "duration": 8, "velocity": 122}, {"time": 1700, "pitch": 69, "duration": 1, "velocity": 107}, {"time": 1703, "pitch": 69, "duration": 18, "velocity": 112}, {"time": 1724, "pitch": 69, "duration": 1, "velocity": 93}, {"time": 1725, "pitch": 71, "duration": 2, "velocity": 86}, {"time": 1727, "pitch": 74, "duration": 3, "velocity": 99}, {"time": 1730, "pitch": 71, "duration": 3, "velocity": 107}, {"time": 1733, "pitch": 69, "duration": 3, "velocity": 95}, {"time": 1736, "pitch": 71, "duration": 2, "velocity": 100}, {"time": 1739, "pitch": 78, "duration": 3, "velocity": 127}, {"time": 1742, "pitch": 76, "duration": 2, "velocity": 102}, {"time": 1745, "pitch": 74, "duration": 2, "velocity": 102}, {"time": 1747, "pitch": 69, "duration": 2, "velocity": 97}, {"time": 1749, "pitch": 74, "duration": 1, "velocity": 100}, {"time": 1751, "pitch": 78, "duration": 11, "velocity": 117}, {"time": 1769, "pitch": 78, "duration": 1, "velocity": 127}, {"time": 1772, "pitch": 78, "duration": 1, "velocity": 112}, {"time": 1775, "pitch": 78, "duration": 5, "velocity": 127}, {"time": 1781, "pitch": 76, "duration": 5, "velocity": 122}, {"time": 1787, "pitch": 74, "duration": 7, "velocity": 96}, {"time": 1796, "pitch": 73, "duration": 2, "velocity": 102}, {"time": 1799, "pitch": 71, "duration": 23, "velocity": 107}, {"time": 1835, "pitch": 71, "duration": 5, "velocity": 100}, {"time": 1841, "pitch": 76, "duration": 2, "velocity": 107}, {"time": 1844, "pitch": 78, "duration": 3, "velocity": 97}, {"time": 1847, "pitch": 76, "duration": 12, "velocity": 127}, {"time": 1865, "pitch": 76, "duration": 1, "velocity": 127}, {"time": 1868, "pitch": 76, "duration": 1, "velocity": 79}, {"time": 1871, "pitch": 76, "duration": 5, "velocity": 112}, {"time": 1877, "pitch": 74, "duration": 6, "velocity": 96}, {"time": 1883, "pitch": 71, "duration": 6, "velocity": 93}, {"time": 1889, "pitch": 76, "duration": 3, "velocity": 82}, {"time": 1892, "pitch": 74, "duration": 1, "velocity": 100}, {"time": 1895, "pitch": 74, "duration": 43, "velocity": 112}, {"time": 2021, "pitch": 54, "duration": 5, "velocity": 83}, {"time": 2027, "pitch": 66, "duration": 5, "velocity": 92}, {"time": 2032, "pitch": 62, "duration": 4, "velocity": 83}, {"time": 2035, "pitch": 61, "duration": 3, "velocity": 78}, {"time": 2038, "pitch": 59, "duration": 18, "velocity": 69}, {"time": 2123, "pitch": 61, "duration": 6, "velocity": 85}, {"time": 2129, "pitch": 57, "duration": 6, "velocity": 70}, {"time": 2135, "pitch": 59, "duration": 16, "velocity": 63}, {"time": 2159, "pitch": 79, "duration": 9, "velocity": 95}, {"time": 2171, "pitch": 79, "duration": 12, "velocity": 75}, {"time": 2278, "pitch": 71, "duration": 11, "velocity": 81}, {"time": 2290, "pitch": 71, "duration": 7, "velocity": 78}, {"time": 2296, "pitch": 73, "duration": 6, "velocity": 82}, {"time": 2302, "pitch": 74, "duration": 12, "velocity": 85}, {"time": 2314, "pitch": 78, "duration": 13, "velocity": 95}, {"time": 2356, "pitch": 74, "duration": 7, "velocity": 92}, {"time": 2362, "pitch": 76, "duration": 7, "velocity": 97}, {"time": 2368, "pitch": 74, "duration": 7, "velocity": 78}, {"time": 2374, "pitch": 73, "duration": 18, "velocity": 77}, {"time": 2458, "pitch": 64, "duration": 3, "velocity": 107}, {"time": 2461, "pitch": 66, "duration": 3, "velocity": 78}, {"time": 2464, "pitch": 64, "duration": 6, "velocity": 76}, {"time": 2471, "pitch": 64, "duration": 17, "velocity": 100}, {"time": 2554, "pitch": 64, "duration": 3, "velocity": 97}, {"time": 2557, "pitch": 66, "duration": 3, "velocity": 90}, {"time": 2560, "pitch": 64, "duration": 8, "velocity": 78}, {"time": 2662, "pitch": 71, "duration": 7, "velocity": 76}, {"time": 2668, "pitch": 66, "duration": 6, "velocity": 89}, {"time": 2674, "pitch": 78, "duration": 6, "velocity": 100}, {"time": 2680, "pitch": 74, "duration": 4, "velocity": 96}, {"time": 2683, "pitch": 73, "duration": 3, "velocity": 92}, {"time": 2686, "pitch": 71, "duration": 10, "velocity": 99}, {"time": 2698, "pitch": 71, "duration": 3, "velocity": 89}, {"time": 2701, "pitch": 73, "duration": 3, "velocity": 117}, {"time": 2704, "pitch": 74, "duration": 4, "velocity": 93}, {"time": 2707, "pitch": 76, "duration": 4, "velocity": 95}, {"time": 2710, "pitch": 78, "duration": 22, "velocity": 127}, {"time": 2776, "pitch": 62, "duration": 4, "velocity": 112}, {"time": 2779, "pitch": 64, "duration": 3, "velocity": 96}, {"time": 2782, "pitch": 66, "duration": 18, "velocity": 117}, {"time": 2872, "pitch": 66, "duration": 3, "velocity": 97}, {"time": 2875, "pitch": 69, "duration": 3, "velocity": 96}, {"time": 2879, "pitch": 71, "duration": 11, "velocity": 127}, {"time": 2890, "pitch": 69, "duration": 12, "velocity": 117}, {"time": 2962, "pitch": 59, "duration": 8, "velocity": 99}, {"time": 2971, "pitch": 62, "duration": 3, "velocity": 100}, {"time": 2975, "pitch": 64, "duration": 12, "velocity": 99}, {"time": 2986, "pitch": 62, "duration": 10, "velocity": 97}, {"time": 3179, "pitch": 66, "duration": 5, "velocity": 102}, {"time": 3185, "pitch": 69, "duration": 5, "velocity": 95}, {"time": 3191, "pitch": 71, "duration": 16, "velocity": 117}, {"time": 3209, "pitch": 69, "duration": 6, "velocity": 112}, {"time": 3215, "pitch": 71, "duration": 11, "velocity": 102}, {"time": 3233, "pitch": 74, "duration": 5, "velocity": 107}, {"time": 3239, "pitch": 69, "duration": 14, "velocity": 100}, {"time": 3257, "pitch": 71, "duration": 2, "velocity": 122}, {"time": 3260, "pitch": 69, "duration": 2, "velocity": 93}, {"time": 3263, "pitch": 66, "duration": 12, "velocity": 102}, {"time": 3281, "pitch": 64, "duration": 2, "velocity": 93}, {"time": 3284, "pitch": 66, "duration": 2, "velocity": 76}, {"time": 3287, "pitch": 69, "duration": 15, "velocity": 95}, {"time": 3305, "pitch": 66, "duration": 2, "velocity": 96}, {"time": 3308, "pitch": 69, "duration": 3, "velocity": 95}, {"time": 3311, "pitch": 71, "duration": 10, "velocity": 112}, {"time": 3317, "pitch": 74, "duration": 7, "velocity": 99}, {"time": 3329, "pitch": 71, "duration": 3, "velocity": 127}, {"time": 3332, "pitch": 69, "duration": 4, "velocity": 100}, {"time": 3335, "pitch": 66, "duration": 27, "velocity": 93}, {"time": 3371, "pitch": 66, "duration": 6, "velocity": 107}, {"time": 3377, "pitch": 69, "duration": 5, "velocity": 97}, {"time": 3383, "pitch": 71, "duration": 18, "velocity": 112}, {"time": 3401, "pitch": 78, "duration": 6, "velocity": 112}, {"time": 3407, "pitch": 76, "duration": 15, "velocity": 112}, {"time": 3425, "pitch": 74, "duration": 3, "velocity": 100}, {"time": 3428, "pitch": 73, "duration": 3, "velocity": 93}, {"time": 3431, "pitch": 74, "duration": 17, "velocity": 95}, {"time": 3446, "pitch": 74, "duration": 2, "velocity": 96}, {"time": 3449, "pitch": 76, "duration": 2, "velocity": 90}, {"time": 3452, "pitch": 78, "duration": 3, "velocity": 102}, {"time": 3455, "pitch": 71, "duration": 18, "velocity": 93}, {"time": 3473, "pitch": 71, "duration": 1, "velocity": 95}, {"time": 3476, "pitch": 78, "duration": 2, "velocity": 107}, {"time": 3479, "pitch": 76, "duration": 15, "velocity": 92}, {"time": 3497, "pitch": 74, "duration": 2, "velocity": 95}, {"time": 3500, "pitch": 76, "duration": 2, "velocity": 85}, {"time": 3503, "pitch": 78, "duration": 24, "velocity": 100}, {"time": 3523, "pitch": 76, "duration": 5, "velocity": 122}, {"time": 3528, "pitch": 74, "duration": 59, "velocity": 92}]}, {"program": 0, "is_drum": false, "name": "PIANO", "notes": [{"time": 23, "pitch": 47, "duration": 22, "velocity": 90}, {"time": 29, "pitch": 54, "duration": 18, "velocity": 64}, {"time": 35, "pitch": 62, "duration": 19, "velocity": 81}, {"time": 35, "pitch": 66, "duration": 19, "velocity": 85}, {"time": 41, "pitch": 61, "duration": 7, "velocity": 57}, {"time": 47, "pitch": 47, "duration": 13, "velocity": 66}, {"time": 53, "pitch": 54, "duration": 7, "velocity": 71}, {"time": 59, "pitch": 62, "duration": 13, "velocity": 99}, {"time": 59, "pitch": 66, "duration": 14, "velocity": 100}, {"time": 65, "pitch": 59, "duration": 7, "velocity": 66}, {"time": 71, "pitch": 42, "duration": 22, "velocity": 81}, {"time": 77, "pitch": 49, "duration": 17, "velocity": 61}, {"time": 83, "pitch": 54, "duration": 24, "velocity": 47}, {"time": 83, "pitch": 61, "duration": 20, "velocity": 90}, {"time": 83, "pitch": 66, "duration": 20, "velocity": 90}, {"time": 89, "pitch": 57, "duration": 13, "velocity": 61}, {"time": 95, "pitch": 42, "duration": 14, "velocity": 67}, {"time": 101, "pitch": 49, "duration": 7, "velocity": 69}, {"time": 107, "pitch": 61, "duration": 13, "velocity": 99}, {"time": 107, "pitch": 66, "duration": 13, "velocity": 99}, {"time": 113, "pitch": 57, "duration": 7, "velocity": 65}, {"time": 119, "pitch": 38, "duration": 15, "velocity": 78}, {"time": 125, "pitch": 45, "duration": 9, "velocity": 66}, {"time": 131, "pitch": 54, "duration": 11, "velocity": 86}, {"time": 131, "pitch": 57, "duration": 11, "velocity": 73}, {"time": 137, "pitch": 50, "duration": 5, "velocity": 61}, {"time": 143, "pitch": 47, "duration": 14, "velocity": 75}, {"time": 149, "pitch": 54, "duration": 7, "velocity": 68}, {"time": 155, "pitch": 62, "duration": 13, "velocity": 83}, {"time": 155, "pitch": 66, "duration": 14, "velocity": 93}, {"time": 161, "pitch": 59, "duration": 7, "velocity": 67}, {"time": 167, "pitch": 42, "duration": 31, "velocity": 68}, {"time": 173, "pitch": 49, "duration": 25, "velocity": 66}, {"time": 179, "pitch": 57, "duration": 13, "velocity": 86}, {"time": 179, "pitch": 61, "duration": 11, "velocity": 96}, {"time": 185, "pitch": 54, "duration": 8, "velocity": 73}, {"time": 191, "pitch": 61, "duration": 13, "velocity": 69}, {"time": 191, "pitch": 66, "duration": 25, "velocity": 96}, {"time": 197, "pitch": 54, "duration": 1, "velocity": 78}, {"time": 203, "pitch": 57, "duration": 7, "velocity": 107}, {"time": 209, "pitch": 61, "duration": 6, "velocity": 96}, {"time": 215, "pitch": 47, "duration": 18, "velocity": 83}, {"time": 221, "pitch": 54, "duration": 9, "velocity": 72}, {"time": 227, "pitch": 66, "duration": 11, "velocity": 122}, {"time": 233, "pitch": 62, "duration": 8, "velocity": 86}, {"time": 239, "pitch": 40, "duration": 15, "velocity": 85}, {"time": 245, "pitch": 47, "duration": 8, "velocity": 62}, {"time": 251, "pitch": 67, "duration": 12, "velocity": 96}, {"time": 257, "pitch": 64, "duration": 6, "velocity": 79}, {"time": 263, "pitch": 38, "duration": 17, "velocity": 93}, {"time": 269, "pitch": 45, "duration": 11, "velocity": 56}, {"time": 275, "pitch": 50, "duration": 9, "velocity": 56}, {"time": 275, "pitch": 66, "duration": 14, "velocity": 89}, {"time": 281, "pitch": 62, "duration": 8, "velocity": 69}, {"time": 287, "pitch": 47, "duration": 17, "velocity": 72}, {"time": 293, "pitch": 54, "duration": 10, "velocity": 53}, {"time": 299, "pitch": 66, "duration": 12, "velocity": 112}, {"time": 305, "pitch": 62, "duration": 6, "velocity": 63}, {"time": 311, "pitch": 40, "duration": 13, "velocity": 89}, {"time": 317, "pitch": 47, "duration": 7, "velocity": 71}, {"time": 323, "pitch": 55, "duration": 11, "velocity": 72}, {"time": 323, "pitch": 59, "duration": 11, "velocity": 99}, {"time": 329, "pitch": 52, "duration": 5, "velocity": 65}, {"time": 335, "pitch": 42, "duration": 16, "velocity": 78}, {"time": 341, "pitch": 49, "duration": 10, "velocity": 58}, {"time": 347, "pitch": 54, "duration": 5, "velocity": 45}, {"time": 347, "pitch": 61, "duration": 12, "velocity": 85}, {"time": 347, "pitch": 66, "duration": 13, "velocity": 82}, {"time": 353, "pitch": 57, "duration": 6, "velocity": 81}, {"time": 359, "pitch": 47, "duration": 22, "velocity": 78}, {"time": 365, "pitch": 54, "duration": 9, "velocity": 86}, {"time": 371, "pitch": 62, "duration": 6, "velocity": 89}, {"time": 374, "pitch": 54, "duration": 1, "velocity": 56}, {"time": 377, "pitch": 61, "duration": 6, "velocity": 67}, {"time": 383, "pitch": 47, "duration": 21, "velocity": 61}, {"time": 383, "pitch": 59, "duration": 21, "velocity": 55}, {"time": 383, "pitch": 62, "duration": 21, "velocity": 55}, {"time": 383, "pitch": 66, "duration": 22, "velocity": 55}, {"time": 407, "pitch": 47, "duration": 17, "velocity": 90}, {"time": 413, "pitch": 54, "duration": 7, "velocity": 65}, {"time": 419, "pitch": 66, "duration": 10, "velocity": 112}, {"time": 425, "pitch": 62, "duration": 7, "velocity": 81}, {"time": 431, "pitch": 38, "duration": 18, "velocity": 77}, {"time": 437, "pitch": 45, "duration": 13, "velocity": 51}, {"time": 443, "pitch": 50, "duration": 6, "velocity": 59}, {"time": 443, "pitch": 62, "duration": 11, "velocity": 72}, {"time": 449, "pitch": 57, "duration": 10, "velocity": 60}, {"time": 455, "pitch": 42, "duration": 15, "velocity": 93}, {"time": 461, "pitch": 54, "duration": 8, "velocity": 52}, {"time": 467, "pitch": 61, "duration": 8, "velocity": 96}, {"time": 473, "pitch": 57, "duration": 7, "velocity": 72}, {"time": 479, "pitch": 47, "duration": 22, "velocity": 68}, {"time": 485, "pitch": 54, "duration": 18, "velocity": 70}, {"time": 491, "pitch": 66, "duration": 12, "velocity": 89}, {"time": 497, "pitch": 62, "duration": 6, "velocity": 55}, {"time": 500, "pitch": 61, "duration": 3, "velocity": 48}, {"time": 503, "pitch": 47, "duration": 22, "velocity": 66}, {"time": 509, "pitch": 54, "duration": 18, "velocity": 58}, {"time": 515, "pitch": 66, "duration": 18, "velocity": 107}, {"time": 518, "pitch": 62, "duration": 20, "velocity": 24}, {"time": 527, "pitch": 47, "duration": 16, "velocity": 70}, {"time": 533, "pitch": 54, "duration": 7, "velocity": 59}, {"time": 539, "pitch": 66, "duration": 8, "velocity": 92}, {"time": 545, "pitch": 62, "duration": 12, "velocity": 68}, {"time": 551, "pitch": 40, "duration": 13, "velocity": 79}, {"time": 557, "pitch": 47, "duration": 7, "velocity": 65}, {"time": 563, "pitch": 64, "duration": 8, "velocity": 92}, {"time": 569, "pitch": 59, "duration": 7, "velocity": 73}, {"time": 575, "pitch": 42, "duration": 17, "velocity": 85}, {"time": 581, "pitch": 49, "duration": 10, "velocity": 28}, {"time": 587, "pitch": 54, "duration": 5, "velocity": 56}, {"time": 587, "pitch": 61, "duration": 12, "velocity": 71}, {"time": 587, "pitch": 66, "duration": 13, "velocity": 63}, {"time": 593, "pitch": 57, "duration": 6, "velocity": 78}, {"time": 599, "pitch": 47, "duration": 14, "velocity": 77}, {"time": 605, "pitch": 54, "duration": 7, "velocity": 67}, {"time": 611, "pitch": 66, "duration": 8, "velocity": 117}, {"time": 617, "pitch": 62, "duration": 5, "velocity": 90}, {"time": 620, "pitch": 59, "duration": 10, "velocity": 78}, {"time": 623, "pitch": 40, "duration": 16, "velocity": 79}, {"time": 629, "pitch": 47, "duration": 9, "velocity": 66}, {"time": 632, "pitch": 59, "duration": 2, "velocity": 17}, {"time": 635, "pitch": 67, "duration": 11, "velocity": 97}, {"time": 641, "pitch": 64, "duration": 5, "velocity": 66}, {"time": 647, "pitch": 42, "duration": 17, "velocity": 66}, {"time": 653, "pitch": 49, "duration": 10, "velocity": 42}, {"time": 659, "pitch": 54, "duration": 5, "velocity": 45}, {"time": 659, "pitch": 61, "duration": 13, "velocity": 88}, {"time": 665, "pitch": 57, "duration": 6, "velocity": 68}, {"time": 671, "pitch": 47, "duration": 16, "velocity": 72}, {"time": 677, "pitch": 54, "duration": 8, "velocity": 63}, {"time": 683, "pitch": 66, "duration": 12, "velocity": 86}, {"time": 689, "pitch": 62, "duration": 8, "velocity": 65}, {"time": 695, "pitch": 40, "duration": 22, "velocity": 76}, {"time": 701, "pitch": 47, "duration": 18, "velocity": 62}, {"time": 707, "pitch": 64, "duration": 12, "velocity": 78}, {"time": 707, "pitch": 67, "duration": 12, "velocity": 69}, {"time": 713, "pitch": 59, "duration": 6, "velocity": 59}, {"time": 719, "pitch": 40, "duration": 16, "velocity": 57}, {"time": 719, "pitch": 55, "duration": 10, "velocity": 74}, {"time": 719, "pitch": 59, "duration": 11, "velocity": 76}, {"time": 719, "pitch": 62, "duration": 11, "velocity": 73}, {"time": 731, "pitch": 59, "duration": 12, "velocity": 74}, {"time": 731, "pitch": 62, "duration": 12, "velocity": 76}, {"time": 737, "pitch": 55, "duration": 5, "velocity": 56}, {"time": 743, "pitch": 47, "duration": 43, "velocity": 75}, {"time": 749, "pitch": 54, "duration": 10, "velocity": 60}, {"time": 755, "pitch": 62, "duration": 20, "velocity": 83}, {"time": 755, "pitch": 66, "duration": 23, "velocity": 65}, {"time": 761, "pitch": 54, "duration": 8, "velocity": 55}, {"time": 767, "pitch": 61, "duration": 7, "velocity": 57}, {"time": 773, "pitch": 54, "duration": 16, "velocity": 56}, {"time": 779, "pitch": 62, "duration": 12, "velocity": 89}, {"time": 779, "pitch": 66, "duration": 12, "velocity": 35}, {"time": 785, "pitch": 61, "duration": 6, "velocity": 35}, {"time": 791, "pitch": 35, "duration": 22, "velocity": 88}, {"time": 797, "pitch": 47, "duration": 18, "velocity": 56}, {"time": 803, "pitch": 62, "duration": 20, "velocity": 89}, {"time": 803, "pitch": 66, "duration": 20, "velocity": 99}, {"time": 809, "pitch": 59, "duration": 14, "velocity": 63}, {"time": 815, "pitch": 35, "duration": 13, "velocity": 72}, {"time": 821, "pitch": 47, "duration": 9, "velocity": 72}, {"time": 827, "pitch": 62, "duration": 11, "velocity": 93}, {"time": 827, "pitch": 66, "duration": 11, "velocity": 102}, {"time": 833, "pitch": 59, "duration": 7, "velocity": 63}, {"time": 839, "pitch": 42, "duration": 14, "velocity": 100}, {"time": 845, "pitch": 54, "duration": 10, "velocity": 81}, {"time": 851, "pitch": 61, "duration": 14, "velocity": 127}, {"time": 857, "pitch": 57, "duration": 7, "velocity": 93}, {"time": 863, "pitch": 47, "duration": 23, "velocity": 82}, {"time": 869, "pitch": 54, "duration": 19, "velocity": 76}, {"time": 875, "pitch": 62, "duration": 6, "velocity": 112}, {"time": 881, "pitch": 61, "duration": 16, "velocity": 92}, {"time": 887, "pitch": 47, "duration": 22, "velocity": 76}, {"time": 893, "pitch": 54, "duration": 19, "velocity": 83}, {"time": 899, "pitch": 66, "duration": 20, "velocity": 112}, {"time": 905, "pitch": 62, "duration": 13, "velocity": 68}, {"time": 911, "pitch": 47, "duration": 17, "velocity": 74}, {"time": 917, "pitch": 54, "duration": 8, "velocity": 79}, {"time": 923, "pitch": 62, "duration": 12, "velocity": 95}, {"time": 923, "pitch": 66, "duration": 12, "velocity": 102}, {"time": 929, "pitch": 59, "duration": 13, "velocity": 67}, {"time": 935, "pitch": 40, "duration": 13, "velocity": 75}, {"time": 941, "pitch": 47, "duration": 8, "velocity": 82}, {"time": 947, "pitch": 64, "duration": 12, "velocity": 90}, {"time": 947, "pitch": 67, "duration": 12, "velocity": 89}, {"time": 953, "pitch": 59, "duration": 7, "velocity": 72}, {"time": 959, "pitch": 42, "duration": 17, "velocity": 86}, {"time": 965, "pitch": 49, "duration": 11, "velocity": 66}, {"time": 971, "pitch": 54, "duration": 5, "velocity": 45}, {"time": 971, "pitch": 61, "duration": 12, "velocity": 90}, {"time": 971, "pitch": 66, "duration": 13, "velocity": 93}, {"time": 977, "pitch": 57, "duration": 6, "velocity": 89}, {"time": 983, "pitch": 47, "duration": 15, "velocity": 82}, {"time": 989, "pitch": 54, "duration": 7, "velocity": 77}, {"time": 995, "pitch": 66, "duration": 13, "velocity": 117}, {"time": 1001, "pitch": 59, "duration": 7, "velocity": 58}, {"time": 1007, "pitch": 40, "duration": 20, "velocity": 82}, {"time": 1013, "pitch": 47, "duration": 14, "velocity": 52}, {"time": 1019, "pitch": 52, "duration": 6, "velocity": 58}, {"time": 1019, "pitch": 59, "duration": 10, "velocity": 71}, {"time": 1019, "pitch": 64, "duration": 11, "velocity": 70}, {"time": 1025, "pitch": 55, "duration": 5, "velocity": 76}, {"time": 1031, "pitch": 38, "duration": 12, "velocity": 86}, {"time": 1037, "pitch": 62, "duration": 4, "velocity": 90}, {"time": 1037, "pitch": 66, "duration": 4, "velocity": 95}, {"time": 1040, "pitch": 57, "duration": 3, "velocity": 77}, {"time": 1043, "pitch": 40, "duration": 10, "velocity": 90}, {"time": 1049, "pitch": 54, "duration": 6, "velocity": 81}, {"time": 1049, "pitch": 61, "duration": 5, "velocity": 35}, {"time": 1055, "pitch": 47, "duration": 15, "velocity": 85}, {"time": 1061, "pitch": 54, "duration": 8, "velocity": 72}, {"time": 1067, "pitch": 66, "duration": 12, "velocity": 122}, {"time": 1070, "pitch": 59, "duration": 9, "velocity": 74}, {"time": 1073, "pitch": 61, "duration": 5, "velocity": 78}, {"time": 1076, "pitch": 62, "duration": 3, "velocity": 70}, {"time": 1079, "pitch": 40, "duration": 14, "velocity": 92}, {"time": 1085, "pitch": 47, "duration": 9, "velocity": 58}, {"time": 1091, "pitch": 59, "duration": 12, "velocity": 92}, {"time": 1091, "pitch": 64, "duration": 12, "velocity": 88}, {"time": 1097, "pitch": 55, "duration": 6, "velocity": 66}, {"time": 1103, "pitch": 47, "duration": 22, "velocity": 92}, {"time": 1109, "pitch": 54, "duration": 18, "velocity": 55}, {"time": 1115, "pitch": 62, "duration": 13, "velocity": 86}, {"time": 1115, "pitch": 66, "duration": 14, "velocity": 99}, {"time": 1121, "pitch": 59, "duration": 7, "velocity": 54}, {"time": 1127, "pitch": 47, "duration": 22, "velocity": 85}, {"time": 1133, "pitch": 54, "duration": 7, "velocity": 93}, {"time": 1139, "pitch": 66, "duration": 17, "velocity": 127}, {"time": 1142, "pitch": 54, "duration": 9, "velocity": 78}, {"time": 1145, "pitch": 62, "duration": 12, "velocity": 75}, {"time": 1148, "pitch": 59, "duration": 7, "velocity": 93}, {"time": 1151, "pitch": 47, "duration": 15, "velocity": 93}, {"time": 1154, "pitch": 54, "duration": 10, "velocity": 97}, {"time": 1157, "pitch": 59, "duration": 7, "velocity": 93}, {"time": 1160, "pitch": 62, "duration": 3, "velocity": 95}, {"time": 1163, "pitch": 66, "duration": 8, "velocity": 122}, {"time": 1166, "pitch": 64, "duration": 5, "velocity": 88}, {"time": 1169, "pitch": 62, "duration": 3, "velocity": 102}, {"time": 1172, "pitch": 59, "duration": 3, "velocity": 117}, {"time": 1175, "pitch": 38, "duration": 21, "velocity": 99}, {"time": 1178, "pitch": 45, "duration": 21, "velocity": 62}, {"time": 1181, "pitch": 50, "duration": 7, "velocity": 93}, {"time": 1184, "pitch": 57, "duration": 4, "velocity": 102}, {"time": 1187, "pitch": 66, "duration": 10, "velocity": 127}, {"time": 1190, "pitch": 50, "duration": 2, "velocity": 95}, {"time": 1193, "pitch": 62, "duration": 5, "velocity": 90}, {"time": 1196, "pitch": 57, "duration": 4, "velocity": 99}, {"time": 1199, "pitch": 38, "duration": 16, "velocity": 82}, {"time": 1202, "pitch": 45, "duration": 13, "velocity": 72}, {"time": 1205, "pitch": 50, "duration": 6, "velocity": 92}, {"time": 1208, "pitch": 57, "duration": 6, "velocity": 90}, {"time": 1211, "pitch": 66, "duration": 11, "velocity": 127}, {"time": 1214, "pitch": 50, "duration": 4, "velocity": 75}, {"time": 1217, "pitch": 62, "duration": 5, "velocity": 96}, {"time": 1220, "pitch": 57, "duration": 3, "velocity": 97}, {"time": 1223, "pitch": 47, "duration": 22, "velocity": 82}, {"time": 1226, "pitch": 54, "duration": 10, "velocity": 89}, {"time": 1229, "pitch": 59, "duration": 7, "velocity": 96}, {"time": 1232, "pitch": 62, "duration": 3, "velocity": 90}, {"time": 1235, "pitch": 66, "duration": 15, "velocity": 127}, {"time": 1238, "pitch": 54, "duration": 9, "velocity": 97}, {"time": 1241, "pitch": 62, "duration": 8, "velocity": 95}, {"time": 1244, "pitch": 59, "duration": 5, "velocity": 96}, {"time": 1247, "pitch": 47, "duration": 19, "velocity": 82}, {"time": 1250, "pitch": 54, "duration": 9, "velocity": 112}, {"time": 1253, "pitch": 59, "duration": 7, "velocity": 81}, {"time": 1256, "pitch": 62, "duration": 2, "velocity": 93}, {"time": 1259, "pitch": 66, "duration": 9, "velocity": 127}, {"time": 1262, "pitch": 54, "duration": 2, "velocity": 102}, {"time": 1265, "pitch": 62, "duration": 5, "velocity": 99}, {"time": 1268, "pitch": 59, "duration": 7, "velocity": 97}, {"time": 1271, "pitch": 40, "duration": 19, "velocity": 78}, {"time": 1274, "pitch": 47, "duration": 16, "velocity": 75}, {"time": 1277, "pitch": 52, "duration": 7, "velocity": 90}, {"time": 1280, "pitch": 59, "duration": 4, "velocity": 88}, {"time": 1283, "pitch": 67, "duration": 12, "velocity": 112}, {"time": 1286, "pitch": 52, "duration": 2, "velocity": 92}, {"time": 1289, "pitch": 64, "duration": 5, "velocity": 88}, {"time": 1292, "pitch": 59, "duration": 3, "velocity": 96}, {"time": 1295, "pitch": 43, "duration": 22, "velocity": 88}, {"time": 1298, "pitch": 50, "duration": 10, "velocity": 75}, {"time": 1301, "pitch": 55, "duration": 3, "velocity": 97}, {"time": 1304, "pitch": 59, "duration": 3, "velocity": 97}, {"time": 1307, "pitch": 62, "duration": 11, "velocity": 107}, {"time": 1310, "pitch": 50, "duration": 9, "velocity": 95}, {"time": 1313, "pitch": 59, "duration": 5, "velocity": 99}, {"time": 1316, "pitch": 55, "duration": 2, "velocity": 97}, {"time": 1319, "pitch": 45, "duration": 22, "velocity": 86}, {"time": 1322, "pitch": 52, "duration": 10, "velocity": 85}, {"time": 1325, "pitch": 57, "duration": 3, "velocity": 99}, {"time": 1328, "pitch": 61, "duration": 3, "velocity": 117}, {"time": 1331, "pitch": 64, "duration": 12, "velocity": 100}, {"time": 1334, "pitch": 52, "duration": 9, "velocity": 96}, {"time": 1337, "pitch": 61, "duration": 5, "velocity": 102}, {"time": 1340, "pitch": 59, "duration": 3, "velocity": 72}, {"time": 1343, "pitch": 45, "duration": 17, "velocity": 89}, {"time": 1346, "pitch": 52, "duration": 10, "velocity": 86}, {"time": 1349, "pitch": 57, "duration": 3, "velocity": 85}, {"time": 1352, "pitch": 61, "duration": 3, "velocity": 112}, {"time": 1355, "pitch": 64, "duration": 10, "velocity": 92}, {"time": 1358, "pitch": 52, "duration": 2, "velocity": 90}, {"time": 1361, "pitch": 61, "duration": 3, "velocity": 117}, {"time": 1364, "pitch": 57, "duration": 3, "velocity": 97}, {"time": 1367, "pitch": 38, "duration": 21, "velocity": 89}, {"time": 1370, "pitch": 45, "duration": 21, "velocity": 86}, {"time": 1373, "pitch": 50, "duration": 12, "velocity": 82}, {"time": 1376, "pitch": 54, "duration": 4, "velocity": 79}, {"time": 1379, "pitch": 62, "duration": 6, "velocity": 72}, {"time": 1382, "pitch": 54, "duration": 8, "velocity": 86}, {"time": 1385, "pitch": 57, "duration": 6, "velocity": 72}, {"time": 1388, "pitch": 62, "duration": 4, "velocity": 63}, {"time": 1391, "pitch": 38, "duration": 18, "velocity": 78}, {"time": 1394, "pitch": 45, "duration": 15, "velocity": 67}, {"time": 1397, "pitch": 50, "duration": 7, "velocity": 83}, {"time": 1400, "pitch": 54, "duration": 3, "velocity": 78}, {"time": 1403, "pitch": 57, "duration": 6, "velocity": 36}, {"time": 1403, "pitch": 62, "duration": 12, "velocity": 55}, {"time": 1403, "pitch": 66, "duration": 13, "velocity": 97}, {"time": 1406, "pitch": 50, "duration": 5, "velocity": 83}, {"time": 1409, "pitch": 54, "duration": 6, "velocity": 79}, {"time": 1412, "pitch": 57, "duration": 3, "velocity": 67}, {"time": 1415, "pitch": 47, "duration": 22, "velocity": 88}, {"time": 1418, "pitch": 54, "duration": 10, "velocity": 85}, {"time": 1421, "pitch": 59, "duration": 8, "velocity": 76}, {"time": 1424, "pitch": 62, "duration": 4, "velocity": 56}, {"time": 1427, "pitch": 66, "duration": 20, "velocity": 102}, {"time": 1430, "pitch": 54, "duration": 9, "velocity": 82}, {"time": 1433, "pitch": 59, "duration": 10, "velocity": 82}, {"time": 1436, "pitch": 62, "duration": 9, "velocity": 92}, {"time": 1439, "pitch": 47, "duration": 19, "velocity": 88}, {"time": 1442, "pitch": 54, "duration": 10, "velocity": 97}, {"time": 1445, "pitch": 59, "duration": 6, "velocity": 90}, {"time": 1448, "pitch": 62, "duration": 9, "velocity": 88}, {"time": 1451, "pitch": 66, "duration": 10, "velocity": 122}, {"time": 1454, "pitch": 54, "duration": 2, "velocity": 97}, {"time": 1457, "pitch": 59, "duration": 7, "velocity": 102}, {"time": 1460, "pitch": 62, "duration": 2, "velocity": 97}, {"time": 1463, "pitch": 40, "duration": 22, "velocity": 88}, {"time": 1466, "pitch": 47, "duration": 22, "velocity": 77}, {"time": 1469, "pitch": 52, "duration": 6, "velocity": 89}, {"time": 1472, "pitch": 59, "duration": 4, "velocity": 68}, {"time": 1475, "pitch": 67, "duration": 16, "velocity": 92}, {"time": 1478, "pitch": 52, "duration": 2, "velocity": 93}, {"time": 1481, "pitch": 64, "duration": 9, "velocity": 88}, {"time": 1484, "pitch": 59, "duration": 6, "velocity": 97}, {"time": 1487, "pitch": 40, "duration": 18, "velocity": 78}, {"time": 1490, "pitch": 47, "duration": 10, "velocity": 75}, {"time": 1493, "pitch": 52, "duration": 4, "velocity": 93}, {"time": 1496, "pitch": 59, "duration": 4, "velocity": 79}, {"time": 1499, "pitch": 67, "duration": 11, "velocity": 122}, {"time": 1502, "pitch": 47, "duration": 2, "velocity": 97}, {"time": 1505, "pitch": 64, "duration": 4, "velocity": 100}, {"time": 1508, "pitch": 59, "duration": 3, "velocity": 107}, {"time": 1511, "pitch": 38, "duration": 22, "velocity": 93}, {"time": 1514, "pitch": 45, "duration": 21, "velocity": 75}, {"time": 1517, "pitch": 50, "duration": 6, "velocity": 92}, {"time": 1520, "pitch": 57, "duration": 5, "velocity": 85}, {"time": 1523, "pitch": 66, "duration": 12, "velocity": 127}, {"time": 1526, "pitch": 50, "duration": 2, "velocity": 92}, {"time": 1529, "pitch": 62, "duration": 6, "velocity": 97}, {"time": 1532, "pitch": 57, "duration": 2, "velocity": 102}, {"time": 1535, "pitch": 38, "duration": 21, "velocity": 90}, {"time": 1538, "pitch": 45, "duration": 19, "velocity": 99}, {"time": 1541, "pitch": 50, "duration": 6, "velocity": 95}, {"time": 1544, "pitch": 74, "duration": 1, "velocity": 99}, {"time": 1544, "pitch": 78, "duration": 1, "velocity": 117}, {"time": 1547, "pitch": 74, "duration": 1, "velocity": 99}, {"time": 1547, "pitch": 78, "duration": 1, "velocity": 122}, {"time": 1550, "pitch": 50, "duration": 3, "velocity": 93}, {"time": 1553, "pitch": 62, "duration": 1, "velocity": 102}, {"time": 1553, "pitch": 66, "duration": 1, "velocity": 127}, {"time": 1556, "pitch": 62, "duration": 2, "velocity": 97}, {"time": 1556, "pitch": 66, "duration": 2, "velocity": 122}, {"time": 1559, "pitch": 38, "duration": 20, "velocity": 97}, {"time": 1562, "pitch": 45, "duration": 21, "velocity": 82}, {"time": 1565, "pitch": 50, "duration": 7, "velocity": 88}, {"time": 1568, "pitch": 57, "duration": 6, "velocity": 66}, {"time": 1571, "pitch": 66, "duration": 14, "velocity": 127}, {"time": 1574, "pitch": 50, "duration": 1, "velocity": 85}, {"time": 1577, "pitch": 62, "duration": 7, "velocity": 90}, {"time": 1580, "pitch": 57, "duration": 5, "velocity": 96}, {"time": 1583, "pitch": 38, "duration": 17, "velocity": 66}, {"time": 1586, "pitch": 45, "duration": 14, "velocity": 86}, {"time": 1589, "pitch": 50, "duration": 7, "velocity": 89}, {"time": 1592, "pitch": 57, "duration": 8, "velocity": 79}, {"time": 1595, "pitch": 66, "duration": 13, "velocity": 127}, {"time": 1598, "pitch": 50, "duration": 5, "velocity": 96}, {"time": 1601, "pitch": 61, "duration": 3, "velocity": 107}, {"time": 1604, "pitch": 62, "duration": 3, "velocity": 90}, {"time": 1607, "pitch": 47, "duration": 23, "velocity": 76}, {"time": 1610, "pitch": 54, "duration": 10, "velocity": 95}, {"time": 1613, "pitch": 59, "duration": 8, "velocity": 83}, {"time": 1616, "pitch": 61, "duration": 3, "velocity": 117}, {"time": 1619, "pitch": 66, "duration": 14, "velocity": 117}, {"time": 1622, "pitch": 54, "duration": 9, "velocity": 86}, {"time": 1625, "pitch": 61, "duration": 3, "velocity": 102}, {"time": 1628, "pitch": 59, "duration": 1, "velocity": 21}, {"time": 1628, "pitch": 62, "duration": 3, "velocity": 70}, {"time": 1631, "pitch": 47, "duration": 17, "velocity": 73}, {"time": 1634, "pitch": 54, "duration": 10, "velocity": 100}, {"time": 1637, "pitch": 59, "duration": 7, "velocity": 75}, {"time": 1640, "pitch": 62, "duration": 3, "velocity": 90}, {"time": 1643, "pitch": 66, "duration": 9, "velocity": 112}, {"time": 1646, "pitch": 54, "duration": 2, "velocity": 82}, {"time": 1649, "pitch": 62, "duration": 3, "velocity": 93}, {"time": 1652, "pitch": 59, "duration": 6, "velocity": 86}, {"time": 1655, "pitch": 40, "duration": 16, "velocity": 88}, {"time": 1658, "pitch": 47, "duration": 14, "velocity": 76}, {"time": 1661, "pitch": 52, "duration": 6, "velocity": 96}, {"time": 1664, "pitch": 59, "duration": 4, "velocity": 88}, {"time": 1667, "pitch": 67, "duration": 11, "velocity": 112}, {"time": 1670, "pitch": 52, "duration": 4, "velocity": 97}, {"time": 1673, "pitch": 64, "duration": 5, "velocity": 99}, {"time": 1676, "pitch": 59, "duration": 2, "velocity": 100}, {"time": 1679, "pitch": 43, "duration": 22, "velocity": 82}, {"time": 1682, "pitch": 50, "duration": 10, "velocity": 89}, {"time": 1685, "pitch": 55, "duration": 3, "velocity": 97}, {"time": 1688, "pitch": 59, "duration": 3, "velocity": 112}, {"time": 1691, "pitch": 62, "duration": 10, "velocity": 99}, {"time": 1694, "pitch": 50, "duration": 9, "velocity": 117}, {"time": 1697, "pitch": 59, "duration": 4, "velocity": 97}, {"time": 1700, "pitch": 55, "duration": 2, "velocity": 100}, {"time": 1703, "pitch": 45, "duration": 22, "velocity": 89}, {"time": 1706, "pitch": 52, "duration": 10, "velocity": 72}, {"time": 1709, "pitch": 57, "duration": 3, "velocity": 102}, {"time": 1712, "pitch": 61, "duration": 2, "velocity": 69}, {"time": 1712, "pitch": 64, "duration": 2, "velocity": 68}, {"time": 1715, "pitch": 61, "duration": 8, "velocity": 127}, {"time": 1715, "pitch": 64, "duration": 8, "velocity": 96}, {"time": 1718, "pitch": 52, "duration": 8, "velocity": 99}, {"time": 1721, "pitch": 57, "duration": 5, "velocity": 93}, {"time": 1724, "pitch": 61, "duration": 2, "velocity": 127}, {"time": 1724, "pitch": 63, "duration": 1, "velocity": 81}, {"time": 1724, "pitch": 64, "duration": 2, "velocity": 99}, {"time": 1727, "pitch": 45, "duration": 17, "velocity": 93}, {"time": 1730, "pitch": 52, "duration": 10, "velocity": 96}, {"time": 1733, "pitch": 57, "duration": 3, "velocity": 112}, {"time": 1736, "pitch": 64, "duration": 1, "velocity": 85}, {"time": 1736, "pitch": 69, "duration": 2, "velocity": 88}, {"time": 1736, "pitch": 73, "duration": 1, "velocity": 97}, {"time": 1739, "pitch": 69, "duration": 7, "velocity": 117}, {"time": 1739, "pitch": 73, "duration": 11, "velocity": 127}, {"time": 1742, "pitch": 52, "duration": 2, "velocity": 97}, {"time": 1745, "pitch": 64, "duration": 6, "velocity": 99}, {"time": 1748, "pitch": 69, "duration": 2, "velocity": 102}, {"time": 1751, "pitch": 38, "duration": 21, "velocity": 86}, {"time": 1754, "pitch": 45, "duration": 21, "velocity": 83}, {"time": 1757, "pitch": 50, "duration": 6, "velocity": 89}, {"time": 1760, "pitch": 57, "duration": 4, "velocity": 81}, {"time": 1763, "pitch": 62, "duration": 7, "velocity": 97}, {"time": 1763, "pitch": 66, "duration": 8, "velocity": 117}, {"time": 1766, "pitch": 50, "duration": 2, "velocity": 93}, {"time": 1769, "pitch": 57, "duration": 12, "velocity": 88}, {"time": 1772, "pitch": 62, "duration": 11, "velocity": 93}, {"time": 1775, "pitch": 38, "duration": 16, "velocity": 77}, {"time": 1778, "pitch": 45, "duration": 13, "velocity": 71}, {"time": 1781, "pitch": 50, "duration": 6, "velocity": 93}, {"time": 1784, "pitch": 57, "duration": 8, "velocity": 89}, {"time": 1787, "pitch": 66, "duration": 11, "velocity": 122}, {"time": 1790, "pitch": 50, "duration": 2, "velocity": 82}, {"time": 1793, "pitch": 62, "duration": 6, "velocity": 100}, {"time": 1796, "pitch": 57, "duration": 3, "velocity": 95}, {"time": 1799, "pitch": 47, "duration": 22, "velocity": 76}, {"time": 1802, "pitch": 54, "duration": 10, "velocity": 93}, {"time": 1805, "pitch": 59, "duration": 3, "velocity": 92}, {"time": 1808, "pitch": 66, "duration": 11, "velocity": 122}, {"time": 1811, "pitch": 62, "duration": 5, "velocity": 107}, {"time": 1814, "pitch": 54, "duration": 9, "velocity": 96}, {"time": 1817, "pitch": 59, "duration": 8, "velocity": 81}, {"time": 1820, "pitch": 62, "duration": 8, "velocity": 102}, {"time": 1823, "pitch": 47, "duration": 17, "velocity": 81}, {"time": 1826, "pitch": 54, "duration": 10, "velocity": 102}, {"time": 1829, "pitch": 59, "duration": 8, "velocity": 82}, {"time": 1832, "pitch": 62, "duration": 4, "velocity": 82}, {"time": 1835, "pitch": 66, "duration": 10, "velocity": 107}, {"time": 1838, "pitch": 54, "duration": 2, "velocity": 102}, {"time": 1841, "pitch": 62, "duration": 4, "velocity": 102}, {"time": 1844, "pitch": 59, "duration": 9, "velocity": 93}, {"time": 1847, "pitch": 40, "duration": 22, "velocity": 86}, {"time": 1850, "pitch": 47, "duration": 21, "velocity": 85}, {"time": 1853, "pitch": 52, "duration": 7, "velocity": 95}, {"time": 1856, "pitch": 59, "duration": 4, "velocity": 74}, {"time": 1859, "pitch": 67, "duration": 20, "velocity": 112}, {"time": 1862, "pitch": 52, "duration": 3, "velocity": 93}, {"time": 1865, "pitch": 64, "duration": 14, "velocity": 95}, {"time": 1868, "pitch": 59, "duration": 11, "velocity": 89}, {"time": 1871, "pitch": 40, "duration": 18, "velocity": 71}, {"time": 1874, "pitch": 47, "duration": 15, "velocity": 67}, {"time": 1877, "pitch": 52, "duration": 6, "velocity": 92}, {"time": 1880, "pitch": 59, "duration": 4, "velocity": 76}, {"time": 1883, "pitch": 67, "duration": 10, "velocity": 112}, {"time": 1886, "pitch": 52, "duration": 2, "velocity": 99}, {"time": 1889, "pitch": 64, "duration": 4, "velocity": 96}, {"time": 1892, "pitch": 59, "duration": 3, "velocity": 97}, {"time": 1895, "pitch": 38, "duration": 21, "velocity": 86}, {"time": 1898, "pitch": 45, "duration": 21, "velocity": 77}, {"time": 1901, "pitch": 50, "duration": 6, "velocity": 88}, {"time": 1904, "pitch": 57, "duration": 7, "velocity": 86}, {"time": 1907, "pitch": 66, "duration": 13, "velocity": 112}, {"time": 1910, "pitch": 50, "duration": 2, "velocity": 77}, {"time": 1913, "pitch": 64, "duration": 7, "velocity": 90}, {"time": 1919, "pitch": 38, "duration": 15, "velocity": 72}, {"time": 1922, "pitch": 45, "duration": 13, "velocity": 63}, {"time": 1925, "pitch": 50, "duration": 5, "velocity": 76}, {"time": 1928, "pitch": 57, "duration": 6, "velocity": 67}, {"time": 1931, "pitch": 66, "duration": 12, "velocity": 102}, {"time": 1937, "pitch": 64, "duration": 5, "velocity": 74}, {"time": 1943, "pitch": 35, "duration": 22, "velocity": 88}, {"time": 1949, "pitch": 47, "duration": 18, "velocity": 56}, {"time": 1955, "pitch": 62, "duration": 20, "velocity": 89}, {"time": 1955, "pitch": 66, "duration": 20, "velocity": 99}, {"time": 1961, "pitch": 59, "duration": 14, "velocity": 63}, {"time": 1967, "pitch": 35, "duration": 13, "velocity": 72}, {"time": 1973, "pitch": 47, "duration": 9, "velocity": 72}, {"time": 1979, "pitch": 62, "duration": 11, "velocity": 93}, {"time": 1979, "pitch": 66, "duration": 11, "velocity": 102}, {"time": 1985, "pitch": 59, "duration": 7, "velocity": 63}, {"time": 1991, "pitch": 42, "duration": 14, "velocity": 100}, {"time": 1997, "pitch": 54, "duration": 10, "velocity": 81}, {"time": 2003, "pitch": 61, "duration": 14, "velocity": 127}, {"time": 2009, "pitch": 57, "duration": 7, "velocity": 93}, {"time": 2015, "pitch": 47, "duration": 23, "velocity": 82}, {"time": 2021, "pitch": 54, "duration": 19, "velocity": 76}, {"time": 2027, "pitch": 62, "duration": 6, "velocity": 112}, {"time": 2033, "pitch": 61, "duration": 16, "velocity": 92}, {"time": 2039, "pitch": 47, "duration": 22, "velocity": 76}, {"time": 2045, "pitch": 54, "duration": 19, "velocity": 83}, {"time": 2051, "pitch": 66, "duration": 20, "velocity": 112}, {"time": 2057, "pitch": 62, "duration": 13, "velocity": 68}, {"time": 2063, "pitch": 47, "duration": 17, "velocity": 74}, {"time": 2069, "pitch": 54, "duration": 8, "velocity": 79}, {"time": 2075, "pitch": 62, "duration": 12, "velocity": 95}, {"time": 2075, "pitch": 66, "duration": 12, "velocity": 102}, {"time": 2081, "pitch": 59, "duration": 13, "velocity": 67}, {"time": 2087, "pitch": 40, "duration": 13, "velocity": 75}, {"time": 2093, "pitch": 47, "duration": 8, "velocity": 82}, {"time": 2099, "pitch": 64, "duration": 12, "velocity": 90}, {"time": 2099, "pitch": 67, "duration": 12, "velocity": 89}, {"time": 2105, "pitch": 59, "duration": 7, "velocity": 72}, {"time": 2111, "pitch": 42, "duration": 17, "velocity": 86}, {"time": 2117, "pitch": 49, "duration": 11, "velocity": 66}, {"time": 2123, "pitch": 54, "duration": 5, "velocity": 45}, {"time": 2123, "pitch": 61, "duration": 12, "velocity": 90}, {"time": 2123, "pitch": 66, "duration": 13, "velocity": 93}, {"time": 2129, "pitch": 57, "duration": 6, "velocity": 89}, {"time": 2135, "pitch": 47, "duration": 15, "velocity": 82}, {"time": 2141, "pitch": 54, "duration": 7, "velocity": 77}, {"time": 2147, "pitch": 66, "duration": 13, "velocity": 117}, {"time": 2153, "pitch": 59, "duration": 7, "velocity": 58}, {"time": 2159, "pitch": 40, "duration": 20, "velocity": 82}, {"time": 2165, "pitch": 47, "duration": 14, "velocity": 52}, {"time": 2171, "pitch": 52, "duration": 6, "velocity": 58}, {"time": 2171, "pitch": 59, "duration": 10, "velocity": 71}, {"time": 2171, "pitch": 64, "duration": 11, "velocity": 70}, {"time": 2177, "pitch": 55, "duration": 5, "velocity": 76}, {"time": 2183, "pitch": 38, "duration": 12, "velocity": 86}, {"time": 2189, "pitch": 62, "duration": 4, "velocity": 90}, {"time": 2189, "pitch": 66, "duration": 4, "velocity": 95}, {"time": 2192, "pitch": 57, "duration": 3, "velocity": 77}, {"time": 2195, "pitch": 42, "duration": 7, "velocity": 90}, {"time": 2201, "pitch": 54, "duration": 6, "velocity": 81}, {"time": 2201, "pitch": 61, "duration": 5, "velocity": 35}, {"time": 2207, "pitch": 47, "duration": 15, "velocity": 85}, {"time": 2213, "pitch": 54, "duration": 8, "velocity": 72}, {"time": 2219, "pitch": 66, "duration": 12, "velocity": 122}, {"time": 2222, "pitch": 59, "duration": 9, "velocity": 74}, {"time": 2225, "pitch": 61, "duration": 5, "velocity": 78}, {"time": 2228, "pitch": 62, "duration": 3, "velocity": 70}, {"time": 2231, "pitch": 40, "duration": 14, "velocity": 92}, {"time": 2237, "pitch": 47, "duration": 9, "velocity": 58}, {"time": 2243, "pitch": 59, "duration": 12, "velocity": 92}, {"time": 2243, "pitch": 64, "duration": 12, "velocity": 88}, {"time": 2249, "pitch": 55, "duration": 6, "velocity": 66}, {"time": 2255, "pitch": 47, "duration": 22, "velocity": 92}, {"time": 2261, "pitch": 54, "duration": 18, "velocity": 55}, {"time": 2267, "pitch": 62, "duration": 13, "velocity": 86}, {"time": 2267, "pitch": 66, "duration": 14, "velocity": 99}, {"time": 2273, "pitch": 59, "duration": 7, "velocity": 54}, {"time": 2279, "pitch": 47, "duration": 22, "velocity": 85}, {"time": 2285, "pitch": 54, "duration": 7, "velocity": 93}, {"time": 2291, "pitch": 66, "duration": 17, "velocity": 127}, {"time": 2294, "pitch": 54, "duration": 9, "velocity": 78}, {"time": 2297, "pitch": 62, "duration": 12, "velocity": 75}, {"time": 2300, "pitch": 59, "duration": 7, "velocity": 93}, {"time": 2303, "pitch": 47, "duration": 15, "velocity": 93}, {"time": 2306, "pitch": 54, "duration": 10, "velocity": 97}, {"time": 2309, "pitch": 59, "duration": 7, "velocity": 93}, {"time": 2312, "pitch": 62, "duration": 3, "velocity": 95}, {"time": 2315, "pitch": 66, "duration": 8, "velocity": 122}, {"time": 2318, "pitch": 64, "duration": 5, "velocity": 88}, {"time": 2321, "pitch": 62, "duration": 3, "velocity": 102}, {"time": 2324, "pitch": 59, "duration": 3, "velocity": 117}, {"time": 2327, "pitch": 38, "duration": 21, "velocity": 99}, {"time": 2330, "pitch": 45, "duration": 21, "velocity": 62}, {"time": 2333, "pitch": 50, "duration": 7, "velocity": 93}, {"time": 2336, "pitch": 57, "duration": 4, "velocity": 102}, {"time": 2339, "pitch": 66, "duration": 10, "velocity": 127}, {"time": 2342, "pitch": 50, "duration": 2, "velocity": 95}, {"time": 2345, "pitch": 62, "duration": 5, "velocity": 90}, {"time": 2348, "pitch": 57, "duration": 4, "velocity": 99}, {"time": 2351, "pitch": 38, "duration": 16, "velocity": 82}, {"time": 2354, "pitch": 45, "duration": 13, "velocity": 72}, {"time": 2357, "pitch": 50, "duration": 6, "velocity": 92}, {"time": 2360, "pitch": 57, "duration": 6, "velocity": 90}, {"time": 2363, "pitch": 66, "duration": 11, "velocity": 127}, {"time": 2366, "pitch": 50, "duration": 4, "velocity": 75}, {"time": 2369, "pitch": 62, "duration": 5, "velocity": 96}, {"time": 2372, "pitch": 57, "duration": 3, "velocity": 97}, {"time": 2375, "pitch": 47, "duration": 22, "velocity": 82}, {"time": 2378, "pitch": 54, "duration": 10, "velocity": 89}, {"time": 2381, "pitch": 59, "duration": 7, "velocity": 96}, {"time": 2384, "pitch": 62, "duration": 3, "velocity": 90}, {"time": 2387, "pitch": 66, "duration": 15, "velocity": 127}, {"time": 2390, "pitch": 54, "duration": 9, "velocity": 97}, {"time": 2393, "pitch": 62, "duration": 8, "velocity": 95}, {"time": 2396, "pitch": 59, "duration": 5, "velocity": 96}, {"time": 2399, "pitch": 47, "duration": 19, "velocity": 82}, {"time": 2402, "pitch": 54, "duration": 9, "velocity": 112}, {"time": 2405, "pitch": 59, "duration": 7, "velocity": 81}, {"time": 2408, "pitch": 62, "duration": 2, "velocity": 93}, {"time": 2411, "pitch": 66, "duration": 9, "velocity": 127}, {"time": 2414, "pitch": 54, "duration": 2, "velocity": 102}, {"time": 2417, "pitch": 62, "duration": 5, "velocity": 99}, {"time": 2420, "pitch": 59, "duration": 7, "velocity": 97}, {"time": 2423, "pitch": 40, "duration": 19, "velocity": 78}, {"time": 2426, "pitch": 47, "duration": 16, "velocity": 75}, {"time": 2429, "pitch": 52, "duration": 7, "velocity": 90}, {"time": 2432, "pitch": 59, "duration": 4, "velocity": 88}, {"time": 2435, "pitch": 67, "duration": 12, "velocity": 112}, {"time": 2438, "pitch": 52, "duration": 2, "velocity": 92}, {"time": 2441, "pitch": 64, "duration": 5, "velocity": 88}, {"time": 2444, "pitch": 59, "duration": 3, "velocity": 96}, {"time": 2447, "pitch": 43, "duration": 22, "velocity": 88}, {"time": 2450, "pitch": 50, "duration": 10, "velocity": 75}, {"time": 2453, "pitch": 55, "duration": 3, "velocity": 97}, {"time": 2456, "pitch": 59, "duration": 3, "velocity": 97}, {"time": 2459, "pitch": 62, "duration": 11, "velocity": 107}, {"time": 2462, "pitch": 50, "duration": 9, "velocity": 95}, {"time": 2465, "pitch": 59, "duration": 5, "velocity": 99}, {"time": 2468, "pitch": 55, "duration": 2, "velocity": 97}, {"time": 2471, "pitch": 45, "duration": 22, "velocity": 86}, {"time": 2474, "pitch": 52, "duration": 10, "velocity": 85}, {"time": 2477, "pitch": 57, "duration": 3, "velocity": 99}, {"time": 2480, "pitch": 61, "duration": 3, "velocity": 117}, {"time": 2483, "pitch": 64, "duration": 12, "velocity": 100}, {"time": 2486, "pitch": 52, "duration": 9, "velocity": 96}, {"time": 2489, "pitch": 61, "duration": 5, "velocity": 102}, {"time": 2492, "pitch": 59, "duration": 3, "velocity": 72}, {"time": 2495, "pitch": 45, "duration": 17, "velocity": 89}, {"time": 2498, "pitch": 52, "duration": 10, "velocity": 86}, {"time": 2501, "pitch": 57, "duration": 3, "velocity": 85}, {"time": 2504, "pitch": 61, "duration": 3, "velocity": 112}, {"time": 2507, "pitch": 64, "duration": 10, "velocity": 92}, {"time": 2510, "pitch": 52, "duration": 2, "velocity": 90}, {"time": 2513, "pitch": 61, "duration": 3, "velocity": 117}, {"time": 2516, "pitch": 57, "duration": 3, "velocity": 97}, {"time": 2519, "pitch": 38, "duration": 21, "velocity": 89}, {"time": 2522, "pitch": 45, "duration": 21, "velocity": 86}, {"time": 2525, "pitch": 50, "duration": 12, "velocity": 82}, {"time": 2528, "pitch": 54, "duration": 4, "velocity": 79}, {"time": 2531, "pitch": 62, "duration": 6, "velocity": 72}, {"time": 2534, "pitch": 54, "duration": 8, "velocity": 86}, {"time": 2537, "pitch": 57, "duration": 6, "velocity": 72}, {"time": 2540, "pitch": 62, "duration": 4, "velocity": 63}, {"time": 2543, "pitch": 38, "duration": 18, "velocity": 78}, {"time": 2546, "pitch": 45, "duration": 15, "velocity": 67}, {"time": 2549, "pitch": 50, "duration": 7, "velocity": 83}, {"time": 2552, "pitch": 54, "duration": 3, "velocity": 78}, {"time": 2555, "pitch": 57, "duration": 6, "velocity": 36}, {"time": 2555, "pitch": 62, "duration": 12, "velocity": 55}, {"time": 2555, "pitch": 66, "duration": 13, "velocity": 97}, {"time": 2558, "pitch": 50, "duration": 5, "velocity": 83}, {"time": 2561, "pitch": 54, "duration": 6, "velocity": 79}, {"time": 2564, "pitch": 57, "duration": 3, "velocity": 67}, {"time": 2567, "pitch": 47, "duration": 22, "velocity": 88}, {"time": 2570, "pitch": 54, "duration": 10, "velocity": 85}, {"time": 2573, "pitch": 59, "duration": 8, "velocity": 76}, {"time": 2576, "pitch": 62, "duration": 4, "velocity": 56}, {"time": 2579, "pitch": 66, "duration": 20, "velocity": 102}, {"time": 2582, "pitch": 54, "duration": 9, "velocity": 82}, {"time": 2585, "pitch": 59, "duration": 10, "velocity": 82}, {"time": 2588, "pitch": 62, "duration": 9, "velocity": 92}, {"time": 2591, "pitch": 47, "duration": 19, "velocity": 88}, {"time": 2594, "pitch": 54, "duration": 10, "velocity": 97}, {"time": 2597, "pitch": 59, "duration": 6, "velocity": 90}, {"time": 2600, "pitch": 62, "duration": 9, "velocity": 88}, {"time": 2603, "pitch": 66, "duration": 10, "velocity": 122}, {"time": 2606, "pitch": 54, "duration": 2, "velocity": 97}, {"time": 2609, "pitch": 59, "duration": 7, "velocity": 102}, {"time": 2612, "pitch": 62, "duration": 2, "velocity": 97}, {"time": 2615, "pitch": 40, "duration": 22, "velocity": 88}, {"time": 2618, "pitch": 47, "duration": 22, "velocity": 77}, {"time": 2621, "pitch": 52, "duration": 6, "velocity": 89}, {"time": 2624, "pitch": 59, "duration": 4, "velocity": 68}, {"time": 2627, "pitch": 67, "duration": 16, "velocity": 92}, {"time": 2630, "pitch": 52, "duration": 2, "velocity": 93}, {"time": 2633, "pitch": 64, "duration": 9, "velocity": 88}, {"time": 2636, "pitch": 59, "duration": 6, "velocity": 97}, {"time": 2639, "pitch": 40, "duration": 18, "velocity": 78}, {"time": 2642, "pitch": 47, "duration": 10, "velocity": 75}, {"time": 2645, "pitch": 52, "duration": 4, "velocity": 93}, {"time": 2648, "pitch": 59, "duration": 4, "velocity": 79}, {"time": 2651, "pitch": 67, "duration": 11, "velocity": 122}, {"time": 2654, "pitch": 47, "duration": 2, "velocity": 97}, {"time": 2657, "pitch": 64, "duration": 4, "velocity": 100}, {"time": 2660, "pitch": 59, "duration": 3, "velocity": 107}, {"time": 2663, "pitch": 38, "duration": 22, "velocity": 93}, {"time": 2666, "pitch": 45, "duration": 21, "velocity": 75}, {"time": 2669, "pitch": 50, "duration": 6, "velocity": 92}, {"time": 2672, "pitch": 57, "duration": 5, "velocity": 85}, {"time": 2675, "pitch": 66, "duration": 12, "velocity": 127}, {"time": 2678, "pitch": 50, "duration": 2, "velocity": 92}, {"time": 2681, "pitch": 62, "duration": 6, "velocity": 97}, {"time": 2684, "pitch": 57, "duration": 2, "velocity": 102}, {"time": 2687, "pitch": 38, "duration": 21, "velocity": 90}, {"time": 2690, "pitch": 45, "duration": 19, "velocity": 99}, {"time": 2693, "pitch": 50, "duration": 6, "velocity": 95}, {"time": 2696, "pitch": 74, "duration": 1, "velocity": 99}, {"time": 2696, "pitch": 78, "duration": 1, "velocity": 117}, {"time": 2699, "pitch": 74, "duration": 1, "velocity": 99}, {"time": 2699, "pitch": 78, "duration": 1, "velocity": 122}, {"time": 2702, "pitch": 50, "duration": 3, "velocity": 93}, {"time": 2705, "pitch": 62, "duration": 1, "velocity": 102}, {"time": 2705, "pitch": 66, "duration": 1, "velocity": 127}, {"time": 2708, "pitch": 62, "duration": 2, "velocity": 97}, {"time": 2708, "pitch": 66, "duration": 2, "velocity": 122}, {"time": 2711, "pitch": 38, "duration": 21, "velocity": 99}, {"time": 2714, "pitch": 45, "duration": 21, "velocity": 62}, {"time": 2717, "pitch": 50, "duration": 7, "velocity": 93}, {"time": 2720, "pitch": 57, "duration": 4, "velocity": 102}, {"time": 2723, "pitch": 66, "duration": 10, "velocity": 127}, {"time": 2726, "pitch": 50, "duration": 2, "velocity": 95}, {"time": 2729, "pitch": 62, "duration": 5, "velocity": 90}, {"time": 2732, "pitch": 57, "duration": 4, "velocity": 99}, {"time": 2735, "pitch": 38, "duration": 16, "velocity": 82}, {"time": 2738, "pitch": 45, "duration": 13, "velocity": 72}, {"time": 2741, "pitch": 50, "duration": 6, "velocity": 92}, {"time": 2744, "pitch": 57, "duration": 6, "velocity": 90}, {"time": 2747, "pitch": 66, "duration": 11, "velocity": 127}, {"time": 2750, "pitch": 50, "duration": 4, "velocity": 75}, {"time": 2753, "pitch": 62, "duration": 5, "velocity": 96}, {"time": 2756, "pitch": 57, "duration": 3, "velocity": 97}, {"time": 2759, "pitch": 47, "duration": 22, "velocity": 82}, {"time": 2762, "pitch": 54, "duration": 10, "velocity": 89}, {"time": 2765, "pitch": 59, "duration": 7, "velocity": 96}, {"time": 2768, "pitch": 62, "duration": 3, "velocity": 90}, {"time": 2771, "pitch": 66, "duration": 15, "velocity": 127}, {"time": 2774, "pitch": 54, "duration": 9, "velocity": 97}, {"time": 2777, "pitch": 62, "duration": 8, "velocity": 95}, {"time": 2780, "pitch": 59, "duration": 5, "velocity": 96}, {"time": 2783, "pitch": 47, "duration": 19, "velocity": 82}, {"time": 2786, "pitch": 54, "duration": 9, "velocity": 112}, {"time": 2789, "pitch": 59, "duration": 7, "velocity": 81}, {"time": 2792, "pitch": 62, "duration": 2, "velocity": 93}, {"time": 2795, "pitch": 66, "duration": 9, "velocity": 127}, {"time": 2798, "pitch": 54, "duration": 2, "velocity": 102}, {"time": 2801, "pitch": 62, "duration": 5, "velocity": 99}, {"time": 2804, "pitch": 59, "duration": 7, "velocity": 97}, {"time": 2807, "pitch": 40, "duration": 19, "velocity": 78}, {"time": 2810, "pitch": 47, "duration": 16, "velocity": 75}, {"time": 2813, "pitch": 52, "duration": 7, "velocity": 90}, {"time": 2816, "pitch": 59, "duration": 4, "velocity": 88}, {"time": 2819, "pitch": 67, "duration": 12, "velocity": 112}, {"time": 2822, "pitch": 52, "duration": 2, "velocity": 92}, {"time": 2825, "pitch": 64, "duration": 5, "velocity": 88}, {"time": 2828, "pitch": 59, "duration": 3, "velocity": 96}, {"time": 2831, "pitch": 43, "duration": 22, "velocity": 88}, {"time": 2834, "pitch": 50, "duration": 10, "velocity": 75}, {"time": 2837, "pitch": 55, "duration": 3, "velocity": 97}, {"time": 2840, "pitch": 59, "duration": 3, "velocity": 97}, {"time": 2843, "pitch": 62, "duration": 11, "velocity": 107}, {"time": 2846, "pitch": 50, "duration": 9, "velocity": 95}, {"time": 2849, "pitch": 59, "duration": 5, "velocity": 99}, {"time": 2852, "pitch": 55, "duration": 2, "velocity": 97}, {"time": 2855, "pitch": 45, "duration": 22, "velocity": 86}, {"time": 2858, "pitch": 52, "duration": 10, "velocity": 85}, {"time": 2861, "pitch": 57, "duration": 3, "velocity": 99}, {"time": 2864, "pitch": 61, "duration": 3, "velocity": 117}, {"time": 2867, "pitch": 64, "duration": 12, "velocity": 100}, {"time": 2870, "pitch": 52, "duration": 9, "velocity": 96}, {"time": 2873, "pitch": 61, "duration": 5, "velocity": 102}, {"time": 2876, "pitch": 59, "duration": 3, "velocity": 72}, {"time": 2879, "pitch": 45, "duration": 17, "velocity": 89}, {"time": 2882, "pitch": 52, "duration": 10, "velocity": 86}, {"time": 2885, "pitch": 57, "duration": 3, "velocity": 85}, {"time": 2888, "pitch": 61, "duration": 3, "velocity": 112}, {"time": 2891, "pitch": 64, "duration": 10, "velocity": 92}, {"time": 2894, "pitch": 52, "duration": 2, "velocity": 90}, {"time": 2897, "pitch": 61, "duration": 3, "velocity": 117}, {"time": 2900, "pitch": 57, "duration": 3, "velocity": 97}, {"time": 2903, "pitch": 38, "duration": 21, "velocity": 89}, {"time": 2906, "pitch": 45, "duration": 21, "velocity": 86}, {"time": 2909, "pitch": 50, "duration": 12, "velocity": 82}, {"time": 2912, "pitch": 54, "duration": 4, "velocity": 79}, {"time": 2915, "pitch": 62, "duration": 6, "velocity": 72}, {"time": 2918, "pitch": 54, "duration": 8, "velocity": 86}, {"time": 2921, "pitch": 57, "duration": 6, "velocity": 72}, {"time": 2924, "pitch": 62, "duration": 4, "velocity": 63}, {"time": 2927, "pitch": 38, "duration": 18, "velocity": 78}, {"time": 2930, "pitch": 45, "duration": 15, "velocity": 67}, {"time": 2933, "pitch": 50, "duration": 7, "velocity": 83}, {"time": 2936, "pitch": 54, "duration": 3, "velocity": 78}, {"time": 2939, "pitch": 57, "duration": 6, "velocity": 36}, {"time": 2939, "pitch": 62, "duration": 12, "velocity": 55}, {"time": 2939, "pitch": 66, "duration": 13, "velocity": 97}, {"time": 2942, "pitch": 50, "duration": 5, "velocity": 83}, {"time": 2945, "pitch": 54, "duration": 6, "velocity": 79}, {"time": 2948, "pitch": 57, "duration": 3, "velocity": 67}, {"time": 2951, "pitch": 47, "duration": 22, "velocity": 88}, {"time": 2954, "pitch": 54, "duration": 10, "velocity": 85}, {"time": 2957, "pitch": 59, "duration": 8, "velocity": 76}, {"time": 2960, "pitch": 62, "duration": 4, "velocity": 56}, {"time": 2963, "pitch": 66, "duration": 20, "velocity": 102}, {"time": 2966, "pitch": 54, "duration": 9, "velocity": 82}, {"time": 2969, "pitch": 59, "duration": 10, "velocity": 82}, {"time": 2972, "pitch": 62, "duration": 9, "velocity": 92}, {"time": 2975, "pitch": 47, "duration": 19, "velocity": 88}, {"time": 2978, "pitch": 54, "duration": 10, "velocity": 97}, {"time": 2981, "pitch": 59, "duration": 6, "velocity": 90}, {"time": 2984, "pitch": 62, "duration": 9, "velocity": 88}, {"time": 2987, "pitch": 66, "duration": 10, "velocity": 122}, {"time": 2990, "pitch": 54, "duration": 2, "velocity": 97}, {"time": 2993, "pitch": 59, "duration": 7, "velocity": 102}, {"time": 2996, "pitch": 62, "duration": 2, "velocity": 97}, {"time": 2999, "pitch": 40, "duration": 22, "velocity": 88}, {"time": 3002, "pitch": 47, "duration": 22, "velocity": 77}, {"time": 3005, "pitch": 52, "duration": 6, "velocity": 89}, {"time": 3008, "pitch": 59, "duration": 4, "velocity": 68}, {"time": 3011, "pitch": 67, "duration": 16, "velocity": 92}, {"time": 3014, "pitch": 52, "duration": 2, "velocity": 93}, {"time": 3017, "pitch": 64, "duration": 9, "velocity": 88}, {"time": 3020, "pitch": 59, "duration": 6, "velocity": 97}, {"time": 3023, "pitch": 40, "duration": 18, "velocity": 78}, {"time": 3026, "pitch": 47, "duration": 10, "velocity": 75}, {"time": 3029, "pitch": 52, "duration": 4, "velocity": 93}, {"time": 3032, "pitch": 59, "duration": 4, "velocity": 79}, {"time": 3035, "pitch": 67, "duration": 11, "velocity": 122}, {"time": 3038, "pitch": 47, "duration": 2, "velocity": 97}, {"time": 3041, "pitch": 64, "duration": 4, "velocity": 100}, {"time": 3044, "pitch": 59, "duration": 3, "velocity": 107}, {"time": 3047, "pitch": 38, "duration": 22, "velocity": 93}, {"time": 3050, "pitch": 45, "duration": 21, "velocity": 75}, {"time": 3053, "pitch": 50, "duration": 6, "velocity": 92}, {"time": 3056, "pitch": 57, "duration": 5, "velocity": 85}, {"time": 3059, "pitch": 66, "duration": 12, "velocity": 127}, {"time": 3062, "pitch": 50, "duration": 2, "velocity": 92}, {"time": 3065, "pitch": 62, "duration": 6, "velocity": 97}, {"time": 3068, "pitch": 57, "duration": 2, "velocity": 102}, {"time": 3071, "pitch": 38, "duration": 21, "velocity": 90}, {"time": 3074, "pitch": 45, "duration": 19, "velocity": 99}, {"time": 3077, "pitch": 50, "duration": 6, "velocity": 95}, {"time": 3080, "pitch": 74, "duration": 1, "velocity": 99}, {"time": 3080, "pitch": 78, "duration": 1, "velocity": 117}, {"time": 3083, "pitch": 74, "duration": 1, "velocity": 99}, {"time": 3083, "pitch": 78, "duration": 1, "velocity": 122}, {"time": 3086, "pitch": 50, "duration": 3, "velocity": 93}, {"time": 3089, "pitch": 62, "duration": 1, "velocity": 102}, {"time": 3089, "pitch": 66, "duration": 1, "velocity": 127}, {"time": 3092, "pitch": 62, "duration": 2, "velocity": 97}, {"time": 3092, "pitch": 66, "duration": 2, "velocity": 122}, {"time": 3095, "pitch": 40, "duration": 22, "velocity": 93}, {"time": 3098, "pitch": 47, "duration": 21, "velocity": 89}, {"time": 3101, "pitch": 52, "duration": 7, "velocity": 93}, {"time": 3104, "pitch": 55, "duration": 4, "velocity": 88}, {"time": 3107, "pitch": 59, "duration": 12, "velocity": 99}, {"time": 3110, "pitch": 52, "duration": 2, "velocity": 79}, {"time": 3113, "pitch": 55, "duration": 6, "velocity": 69}, {"time": 3116, "pitch": 64, "duration": 3, "velocity": 92}, {"time": 3119, "pitch": 40, "duration": 17, "velocity": 90}, {"time": 3122, "pitch": 47, "duration": 10, "velocity": 76}, {"time": 3125, "pitch": 52, "duration": 6, "velocity": 89}, {"time": 3128, "pitch": 55, "duration": 4, "velocity": 79}, {"time": 3131, "pitch": 64, "duration": 10, "velocity": 122}, {"time": 3134, "pitch": 47, "duration": 2, "velocity": 74}, {"time": 3137, "pitch": 59, "duration": 4, "velocity": 93}, {"time": 3140, "pitch": 55, "duration": 3, "velocity": 74}, {"time": 3143, "pitch": 38, "duration": 21, "velocity": 77}, {"time": 3146, "pitch": 45, "duration": 21, "velocity": 74}, {"time": 3149, "pitch": 50, "duration": 6, "velocity": 92}, {"time": 3152, "pitch": 57, "duration": 4, "velocity": 78}, {"time": 3155, "pitch": 66, "duration": 18, "velocity": 122}, {"time": 3158, "pitch": 50, "duration": 2, "velocity": 72}, {"time": 3161, "pitch": 64, "duration": 3, "velocity": 86}, {"time": 3164, "pitch": 62, "duration": 9, "velocity": 96}, {"time": 3167, "pitch": 38, "duration": 14, "velocity": 89}, {"time": 3173, "pitch": 45, "duration": 7, "velocity": 54}, {"time": 3179, "pitch": 62, "duration": 13, "velocity": 82}, {"time": 3179, "pitch": 66, "duration": 13, "velocity": 95}, {"time": 3191, "pitch": 47, "duration": 22, "velocity": 78}, {"time": 3197, "pitch": 54, "duration": 18, "velocity": 99}, {"time": 3203, "pitch": 66, "duration": 22, "velocity": 127}, {"time": 3209, "pitch": 62, "duration": 13, "velocity": 57}, {"time": 3215, "pitch": 47, "duration": 13, "velocity": 70}, {"time": 3221, "pitch": 54, "duration": 7, "velocity": 59}, {"time": 3227, "pitch": 66, "duration": 12, "velocity": 96}, {"time": 3233, "pitch": 62, "duration": 6, "velocity": 72}, {"time": 3239, "pitch": 42, "duration": 41, "velocity": 66}, {"time": 3245, "pitch": 49, "duration": 34, "velocity": 38}, {"time": 3251, "pitch": 61, "duration": 24, "velocity": 71}, {"time": 3257, "pitch": 54, "duration": 8, "velocity": 62}, {"time": 3263, "pitch": 57, "duration": 13, "velocity": 69}, {"time": 3269, "pitch": 54, "duration": 8, "velocity": 71}, {"time": 3275, "pitch": 64, "duration": 12, "velocity": 89}, {"time": 3281, "pitch": 61, "duration": 6, "velocity": 74}, {"time": 3284, "pitch": 57, "duration": 9, "velocity": 58}, {"time": 3287, "pitch": 38, "duration": 14, "velocity": 72}, {"time": 3293, "pitch": 45, "duration": 8, "velocity": 58}, {"time": 3299, "pitch": 66, "duration": 12, "velocity": 122}, {"time": 3305, "pitch": 62, "duration": 6, "velocity": 72}, {"time": 3311, "pitch": 47, "duration": 13, "velocity": 73}, {"time": 3317, "pitch": 54, "duration": 7, "velocity": 73}, {"time": 3323, "pitch": 66, "duration": 13, "velocity": 117}, {"time": 3329, "pitch": 62, "duration": 7, "velocity": 69}, {"time": 3332, "pitch": 59, "duration": 4, "velocity": 55}, {"time": 3335, "pitch": 42, "duration": 40, "velocity": 78}, {"time": 3341, "pitch": 49, "duration": 34, "velocity": 51}, {"time": 3347, "pitch": 54, "duration": 13, "velocity": 92}, {"time": 3353, "pitch": 57, "duration": 6, "velocity": 82}, {"time": 3359, "pitch": 61, "duration": 10, "velocity": 92}, {"time": 3359, "pitch": 66, "duration": 24, "velocity": 112}, {"time": 3365, "pitch": 54, "duration": 7, "velocity": 93}, {"time": 3371, "pitch": 62, "duration": 6, "velocity": 90}, {"time": 3374, "pitch": 54, "duration": 2, "velocity": 83}, {"time": 3377, "pitch": 61, "duration": 4, "velocity": 102}, {"time": 3380, "pitch": 62, "duration": 3, "velocity": 74}, {"time": 3383, "pitch": 47, "duration": 16, "velocity": 79}, {"time": 3389, "pitch": 54, "duration": 9, "velocity": 66}, {"time": 3395, "pitch": 62, "duration": 5, "velocity": 88}, {"time": 3401, "pitch": 61, "duration": 6, "velocity": 81}, {"time": 3407, "pitch": 40, "duration": 16, "velocity": 76}, {"time": 3413, "pitch": 47, "duration": 9, "velocity": 56}, {"time": 3419, "pitch": 64, "duration": 11, "velocity": 77}, {"time": 3419, "pitch": 67, "duration": 12, "velocity": 72}, {"time": 3425, "pitch": 59, "duration": 7, "velocity": 68}, {"time": 3431, "pitch": 38, "duration": 15, "velocity": 77}, {"time": 3437, "pitch": 45, "duration": 10, "velocity": 45}, {"time": 3443, "pitch": 50, "duration": 5, "velocity": 59}, {"time": 3443, "pitch": 62, "duration": 12, "velocity": 88}, {"time": 3443, "pitch": 66, "duration": 13, "velocity": 92}, {"time": 3449, "pitch": 57, "duration": 6, "velocity": 65}, {"time": 3455, "pitch": 47, "duration": 17, "velocity": 86}, {"time": 3461, "pitch": 54, "duration": 9, "velocity": 76}, {"time": 3467, "pitch": 62, "duration": 16, "velocity": 90}, {"time": 3467, "pitch": 66, "duration": 7, "velocity": 117}, {"time": 3473, "pitch": 59, "duration": 13, "velocity": 69}, {"time": 3479, "pitch": 40, "duration": 15, "velocity": 78}, {"time": 3485, "pitch": 47, "duration": 10, "velocity": 68}, {"time": 3491, "pitch": 64, "duration": 12, "velocity": 92}, {"time": 3497, "pitch": 59, "duration": 7, "velocity": 78}, {"time": 3503, "pitch": 42, "duration": 25, "velocity": 76}, {"time": 3509, "pitch": 49, "duration": 19, "velocity": 50}, {"time": 3515, "pitch": 54, "duration": 12, "velocity": 75}, {"time": 3515, "pitch": 61, "duration": 16, "velocity": 93}, {"time": 3524, "pitch": 57, "duration": 8, "velocity": 74}, {"time": 3530, "pitch": 45, "duration": 26, "velocity": 67}, {"time": 3530, "pitch": 57, "duration": 2, "velocity": 79}, {"time": 3530, "pitch": 38, "duration": 25, "velocity": 60}, {"time": 3530, "pitch": 50, "duration": 7, "velocity": 69}, {"time": 3530, "pitch": 66, "duration": 12, "velocity": 73}, {"time": 3530, "pitch": 62, "duration": 14, "velocity": 77}, {"time": 3538, "pitch": 50, "duration": 10, "velocity": 58}, {"time": 3546, "pitch": 66, "duration": 10, "velocity": 112}, {"time": 3550, "pitch": 50, "duration": 3, "velocity": 56}, {"time": 3554, "pitch": 62, "duration": 6, "velocity": 100}, {"time": 3560, "pitch": 38, "duration": 52, "velocity": 47}, {"time": 3563, "pitch": 45, "duration": 49, "velocity": 71}, {"time": 3563, "pitch": 57, "duration": 49, "velocity": 75}, {"time": 3563, "pitch": 62, "duration": 49, "velocity": 92}, {"time": 3563, "pitch": 50, "duration": 49, "velocity": 86}, {"time": 3563, "pitch": 66, "duration": 49, "velocity": 93}], "annotations": [{"time": 22, "annotation": {"number": 64, "value": 127}, "group": "control_change"}, {"time": 45, "annotation": {"number": 64, "value": 0}, "group": "control_change"}, {"time": 47, "annotation": {"number": 64, "value": 127}, "group": "control_change"}, {"time": 69, "annotation": {"number": 64, "value": 0}, "group": "control_change"}, {"time": 71, "annotation": {"number": 64, "value": 127}, "group": "control_change"}, {"time": 92, "annotation": {"number": 64, "value": 0}, "group": "control_change"}, {"time": 95, "annotation": {"number": 64, "value": 127}, "group": "control_change"}, {"time": 117, "annotation": {"number": 64, "value": 0}, "group": "control_change"}, {"time": 119, "annotation": {"number": 64, "value": 127}, "group": "control_change"}, {"time": 141, "annotation": {"number": 64, "value": 0}, "group": "control_change"}, {"time": 143, "annotation": {"number": 64, "value": 127}, "group": "control_change"}, {"time": 145, "annotation": {"number": 64, "value": 0}, "group": "control_change"}, {"time": 148, "annotation": {"number": 64, "value": 127}, "group": "control_change"}, {"time": 165, "annotation": {"number": 64, "value": 0}, "group": "control_change"}, {"time": 167, "annotation": {"number": 64, "value": 127}, "group": "control_change"}, {"time": 189, "annotation": {"number": 64, "value": 0}, "group": "control_change"}, {"time": 191, "annotation": {"number": 64, "value": 127}, "group": "control_change"}, {"time": 212, "annotation": {"number": 64, "value": 0}, "group": "control_change"}, {"time": 215, "annotation": {"number": 64, "value": 127}, "group": "control_change"}, {"time": 237, "annotation": {"number": 64, "value": 0}, "group": "control_change"}, {"time": 239, "annotation": {"number": 64, "value": 127}, "group": "control_change"}, {"time": 261, "annotation": {"number": 64, "value": 0}, "group": "control_change"}, {"time": 263, "annotation": {"number": 64, "value": 127}, "group": "control_change"}, {"time": 284, "annotation": {"number": 64, "value": 0}, "group": "control_change"}, {"time": 287, "annotation": {"number": 64, "value": 127}, "group": "control_change"}, {"time": 308, "annotation": {"number": 64, "value": 0}, "group": "control_change"}, {"time": 310, "annotation": {"number": 64, "value": 127}, "group": "control_change"}, {"time": 332, "annotation": {"number": 64, "value": 0}, "group": "control_change"}, {"time": 334, "annotation": {"number": 64, "value": 127}, "group": "control_change"}, {"time": 356, "annotation": {"number": 64, "value": 0}, "group": "control_change"}, {"time": 359, "annotation": {"number": 64, "value": 127}, "group": "control_change"}, {"time": 380, "annotation": {"number": 64, "value": 0}, "group": "control_change"}, {"time": 382, "annotation": {"number": 64, "value": 127}, "group": "control_change"}, {"time": 401, "annotation": {"number": 64, "value": 0}, "group": "control_change"}, {"time": 407, "annotation": {"number": 64, "value": 127}, "group": "control_change"}, {"time": 428, "annotation": {"number": 64, "value": 0}, "group": "control_change"}, {"time": 431, "annotation": {"number": 64, "value": 127}, "group": "control_change"}, {"time": 452, "annotation": {"number": 64, "value": 0}, "group": "control_change"}, {"time": 455, "annotation": {"number": 64, "value": 127}, "group": "control_change"}, {"time": 476, "annotation": {"number": 64, "value": 0}, "group": "control_change"}, {"time": 479, "annotation": {"number": 64, "value": 127}, "group": "control_change"}, {"time": 501, "annotation": {"number": 64, "value": 0}, "group": "control_change"}, {"time": 503, "annotation": {"number": 64, "value": 127}, "group": "control_change"}, {"time": 524, "annotation": {"number": 64, "value": 0}, "group": "control_change"}, {"time": 527, "annotation": {"number": 64, "value": 127}, "group": "control_change"}, {"time": 549, "annotation": {"number": 64, "value": 0}, "group": "control_change"}, {"time": 551, "annotation": {"number": 64, "value": 127}, "group": "control_change"}, {"time": 572, "annotation": {"number": 64, "value": 0}, "group": "control_change"}, {"time": 574, "annotation": {"number": 64, "value": 127}, "group": "control_change"}, {"time": 596, "annotation": {"number": 64, "value": 0}, "group": "control_change"}, {"time": 598, "annotation": {"number": 64, "value": 127}, "group": "control_change"}, {"time": 620, "annotation": {"number": 64, "value": 0}, "group": "control_change"}, {"time": 622, "annotation": {"number": 64, "value": 127}, "group": "control_change"}, {"time": 644, "annotation": {"number": 64, "value": 0}, "group": "control_change"}, {"time": 646, "annotation": {"number": 64, "value": 127}, "group": "control_change"}, {"time": 647, "annotation": {"number": 64, "value": 127}, "group": "control_change"}, {"time": 668, "annotation": {"number": 64, "value": 0}, "group": "control_change"}, {"time": 671, "annotation": {"number": 64, "value": 127}, "group": "control_change"}, {"time": 692, "annotation": {"number": 64, "value": 0}, "group": "control_change"}, {"time": 695, "annotation": {"number": 64, "value": 127}, "group": "control_change"}, {"time": 716, "annotation": {"number": 64, "value": 0}, "group": "control_change"}, {"time": 720, "annotation": {"number": 64, "value": 127}, "group": "control_change"}, {"time": 740, "annotation": {"number": 64, "value": 0}, "group": "control_change"}, {"time": 743, "annotation": {"number": 64, "value": 127}, "group": "control_change"}, {"time": 787, "annotation": {"number": 64, "value": 0}, "group": "control_change"}, {"time": 790, "annotation": {"number": 64, "value": 127}, "group": "control_change"}, {"time": 812, "annotation": {"number": 64, "value": 0}, "group": "control_change"}, {"time": 815, "annotation": {"number": 64, "value": 127}, "group": "control_change"}, {"time": 835, "annotation": {"number": 64, "value": 0}, "group": "control_change"}, {"time": 838, "annotation": {"number": 64, "value": 127}, "group": "control_change"}, {"time": 859, "annotation": {"number": 64, "value": 0}, "group": "control_change"}, {"time": 863, "annotation": {"number": 64, "value": 127}, "group": "control_change"}, {"time": 871, "annotation": {"number": 64, "value": 0}, "group": "control_change"}, {"time": 874, "annotation": {"number": 64, "value": 127}, "group": "control_change"}, {"time": 884, "annotation": {"number": 64, "value": 0}, "group": "control_change"}, {"time": 886, "annotation": {"number": 64, "value": 127}, "group": "control_change"}, {"time": 907, "annotation": {"number": 64, "value": 0}, "group": "control_change"}, {"time": 911, "annotation": {"number": 64, "value": 127}, "group": "control_change"}, {"time": 933, "annotation": {"number": 64, "value": 0}, "group": "control_change"}, {"time": 934, "annotation": {"number": 64, "value": 127}, "group": "control_change"}, {"time": 956, "annotation": {"number": 64, "value": 0}, "group": "control_change"}, {"time": 958, "annotation": {"number": 64, "value": 127}, "group": "control_change"}, {"time": 968, "annotation": {"number": 64, "value": 0}, "group": "control_change"}, {"time": 970, "annotation": {"number": 64, "value": 127}, "group": "control_change"}, {"time": 980, "annotation": {"number": 64, "value": 0}, "group": "control_change"}, {"time": 983, "annotation": {"number": 64, "value": 127}, "group": "control_change"}, {"time": 1004, "annotation": {"number": 64, "value": 0}, "group": "control_change"}, {"time": 1007, "annotation": {"number": 64, "value": 127}, "group": "control_change"}, {"time": 1027, "annotation": {"number": 64, "value": 0}, "group": "control_change"}, {"time": 1030, "annotation": {"number": 64, "value": 127}, "group": "control_change"}, {"time": 1040, "annotation": {"number": 64, "value": 0}, "group": "control_change"}, {"time": 1043, "annotation": {"number": 64, "value": 127}, "group": "control_change"}, {"time": 1053, "annotation": {"number": 64, "value": 0}, "group": "control_change"}, {"time": 1055, "annotation": {"number": 64, "value": 127}, "group": "control_change"}, {"time": 1077, "annotation": {"number": 64, "value": 0}, "group": "control_change"}, {"time": 1079, "annotation": {"number": 64, "value": 127}, "group": "control_change"}, {"time": 1099, "annotation": {"number": 64, "value": 0}, "group": "control_change"}, {"time": 1103, "annotation": {"number": 64, "value": 127}, "group": "control_change"}, {"time": 1125, "annotation": {"number": 64, "value": 0}, "group": "control_change"}, {"time": 1127, "annotation": {"number": 64, "value": 127}, "group": "control_change"}, {"time": 1148, "annotation": {"number": 64, "value": 0}, "group": "control_change"}, {"time": 1151, "annotation": {"number": 64, "value": 127}, "group": "control_change"}, {"time": 1158, "annotation": {"number": 64, "value": 0}, "group": "control_change"}, {"time": 1164, "annotation": {"number": 64, "value": 127}, "group": "control_change"}, {"time": 1172, "annotation": {"number": 64, "value": 0}, "group": "control_change"}, {"time": 1175, "annotation": {"number": 64, "value": 127}, "group": "control_change"}, {"time": 1196, "annotation": {"number": 64, "value": 0}, "group": "control_change"}, {"time": 1198, "annotation": {"number": 64, "value": 127}, "group": "control_change"}, {"time": 1220, "annotation": {"number": 64, "value": 0}, "group": "control_change"}, {"time": 1223, "annotation": {"number": 64, "value": 127}, "group": "control_change"}, {"time": 1244, "annotation": {"number": 64, "value": 0}, "group": "control_change"}, {"time": 1246, "annotation": {"number": 64, "value": 127}, "group": "control_change"}, {"time": 1261, "annotation": {"number": 64, "value": 0}, "group": "control_change"}, {"time": 1263, "annotation": {"number": 64, "value": 127}, "group": "control_change"}, {"time": 1268, "annotation": {"number": 64, "value": 0}, "group": "control_change"}, {"time": 1270, "annotation": {"number": 64, "value": 127}, "group": "control_change"}, {"time": 1292, "annotation": {"number": 64, "value": 0}, "group": "control_change"}, {"time": 1294, "annotation": {"number": 64, "value": 127}, "group": "control_change"}, {"time": 1316, "annotation": {"number": 64, "value": 0}, "group": "control_change"}, {"time": 1318, "annotation": {"number": 64, "value": 127}, "group": "control_change"}, {"time": 1340, "annotation": {"number": 64, "value": 0}, "group": "control_change"}, {"time": 1342, "annotation": {"number": 64, "value": 127}, "group": "control_change"}, {"time": 1364, "annotation": {"number": 64, "value": 0}, "group": "control_change"}, {"time": 1367, "annotation": {"number": 64, "value": 127}, "group": "control_change"}, {"time": 1388, "annotation": {"number": 64, "value": 0}, "group": "control_change"}, {"time": 1390, "annotation": {"number": 64, "value": 127}, "group": "control_change"}, {"time": 1412, "annotation": {"number": 64, "value": 0}, "group": "control_change"}, {"time": 1414, "annotation": {"number": 64, "value": 127}, "group": "control_change"}, {"time": 1436, "annotation": {"number": 64, "value": 0}, "group": "control_change"}, {"time": 1438, "annotation": {"number": 64, "value": 127}, "group": "control_change"}, {"time": 1460, "annotation": {"number": 64, "value": 0}, "group": "control_change"}, {"time": 1462, "annotation": {"number": 64, "value": 127}, "group": "control_change"}, {"time": 1484, "annotation": {"number": 64, "value": 0}, "group": "control_change"}, {"time": 1486, "annotation": {"number": 64, "value": 127}, "group": "control_change"}, {"time": 1508, "annotation": {"number": 64, "value": 0}, "group": "control_change"}, {"time": 1511, "annotation": {"number": 64, "value": 127}, "group": "control_change"}, {"time": 1532, "annotation": {"number": 64, "value": 0}, "group": "control_change"}, {"time": 1534, "annotation": {"number": 64, "value": 127}, "group": "control_change"}, {"time": 1556, "annotation": {"number": 64, "value": 0}, "group": "control_change"}, {"time": 1559, "annotation": {"number": 64, "value": 127}, "group": "control_change"}, {"time": 1580, "annotation": {"number": 64, "value": 0}, "group": "control_change"}, {"time": 1582, "annotation": {"number": 64, "value": 127}, "group": "control_change"}, {"time": 1604, "annotation": {"number": 64, "value": 0}, "group": "control_change"}, {"time": 1607, "annotation": {"number": 64, "value": 127}, "group": "control_change"}, {"time": 1629, "annotation": {"number": 64, "value": 0}, "group": "control_change"}, {"time": 1630, "annotation": {"number": 64, "value": 127}, "group": "control_change"}, {"time": 1653, "annotation": {"number": 64, "value": 0}, "group": "control_change"}, {"time": 1654, "annotation": {"number": 64, "value": 127}, "group": "control_change"}, {"time": 1676, "annotation": {"number": 64, "value": 0}, "group": "control_change"}, {"time": 1678, "annotation": {"number": 64, "value": 127}, "group": "control_change"}, {"time": 1700, "annotation": {"number": 64, "value": 0}, "group": "control_change"}, {"time": 1702, "annotation": {"number": 64, "value": 127}, "group": "control_change"}, {"time": 1736, "annotation": {"number": 64, "value": 0}, "group": "control_change"}, {"time": 1738, "annotation": {"number": 64, "value": 127}, "group": "control_change"}, {"time": 1748, "annotation": {"number": 64, "value": 0}, "group": "control_change"}, {"time": 1750, "annotation": {"number": 64, "value": 127}, "group": "control_change"}, {"time": 1772, "annotation": {"number": 64, "value": 0}, "group": "control_change"}, {"time": 1774, "annotation": {"number": 64, "value": 127}, "group": "control_change"}, {"time": 1795, "annotation": {"number": 64, "value": 0}, "group": "control_change"}, {"time": 1798, "annotation": {"number": 64, "value": 127}, "group": "control_change"}, {"time": 1820, "annotation": {"number": 64, "value": 0}, "group": "control_change"}, {"time": 1822, "annotation": {"number": 64, "value": 127}, "group": "control_change"}, {"time": 1844, "annotation": {"number": 64, "value": 0}, "group": "control_change"}, {"time": 1846, "annotation": {"number": 64, "value": 127}, "group": "control_change"}, {"time": 1868, "annotation": {"number": 64, "value": 0}, "group": "control_change"}, {"time": 1870, "annotation": {"number": 64, "value": 127}, "group": "control_change"}, {"time": 1892, "annotation": {"number": 64, "value": 0}, "group": "control_change"}, {"time": 1894, "annotation": {"number": 64, "value": 127}, "group": "control_change"}, {"time": 1916, "annotation": {"number": 64, "value": 0}, "group": "control_change"}, {"time": 1919, "annotation": {"number": 64, "value": 127}, "group": "control_change"}, {"time": 1937, "annotation": {"number": 64, "value": 0}, "group": "control_change"}, {"time": 1964, "annotation": {"number": 64, "value": 0}, "group": "control_change"}, {"time": 1967, "annotation": {"number": 64, "value": 127}, "group": "control_change"}, {"time": 1987, "annotation": {"number": 64, "value": 0}, "group": "control_change"}, {"time": 1990, "annotation": {"number": 64, "value": 127}, "group": "control_change"}, {"time": 2011, "annotation": {"number": 64, "value": 0}, "group": "control_change"}, {"time": 2015, "annotation": {"number": 64, "value": 127}, "group": "control_change"}, {"time": 2023, "annotation": {"number": 64, "value": 0}, "group": "control_change"}, {"time": 2026, "annotation": {"number": 64, "value": 127}, "group": "control_change"}, {"time": 2036, "annotation": {"number": 64, "value": 0}, "group": "control_change"}, {"time": 2038, "annotation": {"number": 64, "value": 127}, "group": "control_change"}, {"time": 2059, "annotation": {"number": 64, "value": 0}, "group": "control_change"}, {"time": 2063, "annotation": {"number": 64, "value": 127}, "group": "control_change"}, {"time": 2085, "annotation": {"number": 64, "value": 0}, "group": "control_change"}, {"time": 2086, "annotation": {"number": 64, "value": 127}, "group": "control_change"}, {"time": 2108, "annotation": {"number": 64, "value": 0}, "group": "control_change"}, {"time": 2110, "annotation": {"number": 64, "value": 127}, "group": "control_change"}, {"time": 2120, "annotation": {"number": 64, "value": 0}, "group": "control_change"}, {"time": 2122, "annotation": {"number": 64, "value": 127}, "group": "control_change"}, {"time": 2132, "annotation": {"number": 64, "value": 0}, "group": "control_change"}, {"time": 2135, "annotation": {"number": 64, "value": 127}, "group": "control_change"}, {"time": 2156, "annotation": {"number": 64, "value": 0}, "group": "control_change"}, {"time": 2159, "annotation": {"number": 64, "value": 127}, "group": "control_change"}, {"time": 2179, "annotation": {"number": 64, "value": 0}, "group": "control_change"}, {"time": 2182, "annotation": {"number": 64, "value": 127}, "group": "control_change"}, {"time": 2192, "annotation": {"number": 64, "value": 0}, "group": "control_change"}, {"time": 2195, "annotation": {"number": 64, "value": 127}, "group": "control_change"}, {"time": 2205, "annotation": {"number": 64, "value": 0}, "group": "control_change"}, {"time": 2207, "annotation": {"number": 64, "value": 127}, "group": "control_change"}, {"time": 2229, "annotation": {"number": 64, "value": 0}, "group": "control_change"}, {"time": 2231, "annotation": {"number": 64, "value": 127}, "group": "control_change"}, {"time": 2251, "annotation": {"number": 64, "value": 0}, "group": "control_change"}, {"time": 2255, "annotation": {"number": 64, "value": 127}, "group": "control_change"}, {"time": 2277, "annotation": {"number": 64, "value": 0}, "group": "control_change"}, {"time": 2279, "annotation": {"number": 64, "value": 127}, "group": "control_change"}, {"time": 2300, "annotation": {"number": 64, "value": 0}, "group": "control_change"}, {"time": 2303, "annotation": {"number": 64, "value": 127}, "group": "control_change"}, {"time": 2310, "annotation": {"number": 64, "value": 0}, "group": "control_change"}, {"time": 2316, "annotation": {"number": 64, "value": 127}, "group": "control_change"}, {"time": 2324, "annotation": {"number": 64, "value": 0}, "group": "control_change"}, {"time": 2327, "annotation": {"number": 64, "value": 127}, "group": "control_change"}, {"time": 2348, "annotation": {"number": 64, "value": 0}, "group": "control_change"}, {"time": 2350, "annotation": {"number": 64, "value": 127}, "group": "control_change"}, {"time": 2372, "annotation": {"number": 64, "value": 0}, "group": "control_change"}, {"time": 2375, "annotation": {"number": 64, "value": 127}, "group": "control_change"}, {"time": 2396, "annotation": {"number": 64, "value": 0}, "group": "control_change"}, {"time": 2398, "annotation": {"number": 64, "value": 127}, "group": "control_change"}, {"time": 2413, "annotation": {"number": 64, "value": 0}, "group": "control_change"}, {"time": 2415, "annotation": {"number": 64, "value": 127}, "group": "control_change"}, {"time": 2420, "annotation": {"number": 64, "value": 0}, "group": "control_change"}, {"time": 2422, "annotation": {"number": 64, "value": 127}, "group": "control_change"}, {"time": 2444, "annotation": {"number": 64, "value": 0}, "group": "control_change"}, {"time": 2446, "annotation": {"number": 64, "value": 127}, "group": "control_change"}, {"time": 2468, "annotation": {"number": 64, "value": 0}, "group": "control_change"}, {"time": 2470, "annotation": {"number": 64, "value": 127}, "group": "control_change"}, {"time": 2492, "annotation": {"number": 64, "value": 0}, "group": "control_change"}, {"time": 2494, "annotation": {"number": 64, "value": 127}, "group": "control_change"}, {"time": 2516, "annotation": {"number": 64, "value": 0}, "group": "control_change"}, {"time": 2519, "annotation": {"number": 64, "value": 127}, "group": "control_change"}, {"time": 2540, "annotation": {"number": 64, "value": 0}, "group": "control_change"}, {"time": 2542, "annotation": {"number": 64, "value": 127}, "group": "control_change"}, {"time": 2564, "annotation": {"number": 64, "value": 0}, "group": "control_change"}, {"time": 2566, "annotation": {"number": 64, "value": 127}, "group": "control_change"}, {"time": 2588, "annotation": {"number": 64, "value": 0}, "group": "control_change"}, {"time": 2590, "annotation": {"number": 64, "value": 127}, "group": "control_change"}, {"time": 2612, "annotation": {"number": 64, "value": 0}, "group": "control_change"}, {"time": 2614, "annotation": {"number": 64, "value": 127}, "group": "control_change"}, {"time": 2636, "annotation": {"number": 64, "value": 0}, "group": "control_change"}, {"time": 2638, "annotation": {"number": 64, "value": 127}, "group": "control_change"}, {"time": 2660, "annotation": {"number": 64, "value": 0}, "group": "control_change"}, {"time": 2663, "annotation": {"number": 64, "value": 127}, "group": "control_change"}, {"time": 2684, "annotation": {"number": 64, "value": 0}, "group": "control_change"}, {"time": 2686, "annotation": {"number": 64, "value": 127}, "group": "control_change"}, {"time": 2708, "annotation": {"number": 64, "value": 0}, "group": "control_change"}, {"time": 2711, "annotation": {"number": 64, "value": 127}, "group": "control_change"}, {"time": 2732, "annotation": {"number": 64, "value": 0}, "group": "control_change"}, {"time": 2734, "annotation": {"number": 64, "value": 127}, "group": "control_change"}, {"time": 2756, "annotation": {"number": 64, "value": 0}, "group": "control_change"}, {"time": 2759, "annotation": {"number": 64, "value": 127}, "group": "control_change"}, {"time": 2780, "annotation": {"number": 64, "value": 0}, "group": "control_change"}, {"time": 2782, "annotation": {"number": 64, "value": 127}, "group": "control_change"}, {"time": 2797, "annotation": {"number": 64, "value": 0}, "group": "control_change"}, {"time": 2799, "annotation": {"number": 64, "value": 127}, "group": "control_change"}, {"time": 2804, "annotation": {"number": 64, "value": 0}, "group": "control_change"}, {"time": 2806, "annotation": {"number": 64, "value": 127}, "group": "control_change"}, {"time": 2828, "annotation": {"number": 64, "value": 0}, "group": "control_change"}, {"time": 2830, "annotation": {"number": 64, "value": 127}, "group": "control_change"}, {"time": 2852, "annotation": {"number": 64, "value": 0}, "group": "control_change"}, {"time": 2854, "annotation": {"number": 64, "value": 127}, "group": "control_change"}, {"time": 2876, "annotation": {"number": 64, "value": 0}, "group": "control_change"}, {"time": 2878, "annotation": {"number": 64, "value": 127}, "group": "control_change"}, {"time": 2900, "annotation": {"number": 64, "value": 0}, "group": "control_change"}, {"time": 2903, "annotation": {"number": 64, "value": 127}, "group": "control_change"}, {"time": 2924, "annotation": {"number": 64, "value": 0}, "group": "control_change"}, {"time": 2926, "annotation": {"number": 64, "value": 127}, "group": "control_change"}, {"time": 2948, "annotation": {"number": 64, "value": 0}, "group": "control_change"}, {"time": 2950, "annotation": {"number": 64, "value": 127}, "group": "control_change"}, {"time": 2972, "annotation": {"number": 64, "value": 0}, "group": "control_change"}, {"time": 2974, "annotation": {"number": 64, "value": 127}, "group": "control_change"}, {"time": 2996, "annotation": {"number": 64, "value": 0}, "group": "control_change"}, {"time": 2998, "annotation": {"number": 64, "value": 127}, "group": "control_change"}, {"time": 3020, "annotation": {"number": 64, "value": 0}, "group": "control_change"}, {"time": 3022, "annotation": {"number": 64, "value": 127}, "group": "control_change"}, {"time": 3044, "annotation": {"number": 64, "value": 0}, "group": "control_change"}, {"time": 3047, "annotation": {"number": 64, "value": 127}, "group": "control_change"}, {"time": 3068, "annotation": {"number": 64, "value": 0}, "group": "control_change"}, {"time": 3070, "annotation": {"number": 64, "value": 127}, "group": "control_change"}, {"time": 3092, "annotation": {"number": 64, "value": 0}, "group": "control_change"}, {"time": 3095, "annotation": {"number": 64, "value": 127}, "group": "control_change"}, {"time": 3116, "annotation": {"number": 64, "value": 0}, "group": "control_change"}, {"time": 3118, "annotation": {"number": 64, "value": 127}, "group": "control_change"}, {"time": 3140, "annotation": {"number": 64, "value": 0}, "group": "control_change"}, {"time": 3143, "annotation": {"number": 64, "value": 127}, "group": "control_change"}, {"time": 3164, "annotation": {"number": 64, "value": 0}, "group": "control_change"}, {"time": 3166, "annotation": {"number": 64, "value": 127}, "group": "control_change"}, {"time": 3187, "annotation": {"number": 64, "value": 0}, "group": "control_change"}, {"time": 3191, "annotation": {"number": 64, "value": 127}, "group": "control_change"}, {"time": 3212, "annotation": {"number": 64, "value": 0}, "group": "control_change"}, {"time": 3214, "annotation": {"number": 64, "value": 127}, "group": "control_change"}, {"time": 3237, "annotation": {"number": 64, "value": 0}, "group": "control_change"}, {"time": 3239, "annotation": {"number": 64, "value": 127}, "group": "control_change"}, {"time": 3283, "annotation": {"number": 64, "value": 0}, "group": "control_change"}, {"time": 3286, "annotation": {"number": 64, "value": 127}, "group": "control_change"}, {"time": 3308, "annotation": {"number": 64, "value": 0}, "group": "control_change"}, {"time": 3310, "annotation": {"number": 64, "value": 127}, "group": "control_change"}, {"time": 3333, "annotation": {"number": 64, "value": 0}, "group": "control_change"}, {"time": 3335, "annotation": {"number": 64, "value": 127}, "group": "control_change"}, {"time": 3381, "annotation": {"number": 64, "value": 0}, "group": "control_change"}, {"time": 3383, "annotation": {"number": 64, "value": 127}, "group": "control_change"}, {"time": 3405, "annotation": {"number": 64, "value": 0}, "group": "control_change"}, {"time": 3406, "annotation": {"number": 64, "value": 127}, "group": "control_change"}, {"time": 3428, "annotation": {"number": 64, "value": 0}, "group": "control_change"}, {"time": 3430, "annotation": {"number": 64, "value": 127}, "group": "control_change"}, {"time": 3452, "annotation": {"number": 64, "value": 0}, "group": "control_change"}, {"time": 3455, "annotation": {"number": 64, "value": 127}, "group": "control_change"}, {"time": 3476, "annotation": {"number": 64, "value": 0}, "group": "control_change"}, {"time": 3479, "annotation": {"number": 64, "value": 127}, "group": "control_change"}, {"time": 3500, "annotation": {"number": 64, "value": 0}, "group": "control_change"}, {"time": 3502, "annotation": {"number": 64, "value": 127}, "group": "control_change"}, {"time": 3531, "annotation": {"number": 64, "value": 0}, "group": "control_change"}, {"time": 3538, "annotation": {"number": 64, "value": 127}, "group": "control_change"}, {"time": 3558, "annotation": {"number": 64, "value": 0}, "group": "control_change"}, {"time": 3565, "annotation": {"number": 64, "value": 127}, "group": "control_change"}, {"time": 3587, "annotation": {"number": 64, "value": 0}, "group": "control_change"}, {"time": 3589, "annotation": {"number": 64, "value": 127}, "group": "control_change"}, {"time": 3592, "annotation": {"number": 64, "value": 0}, "group": "control_change"}, {"time": 3594, "annotation": {"number": 64, "value": 127}, "group": "control_change"}, {"time": 3597, "annotation": {"number": 64, "value": 0}, "group": "control_change"}, {"time": 3611, "annotation": {"number": 64, "value": 127}, "group": "control_change"}]}]}