{"metadata": {"schema_version": "0.2", "title": "None", "source_filename": "382.mid", "source_format": "midi"}, "resolution": 12, "tempos": [{"time": 0, "qpm": 60.0}, {"time": 984, "qpm": 60.49997176667984}, {"time": 1080, "qpm": 60.0}, {"time": 1512, "qpm": 59.800028704013776}, {"time": 1644, "qpm": 60.0}], "time_signatures": [{"time": 0, "numerator": 1, "denominator": 4}], "tracks": [{"program": 0, "is_drum": false, "name": "MELODY", "notes": [{"time": 435, "pitch": 61, "duration": 6, "velocity": 122}, {"time": 441, "pitch": 68, "duration": 2, "velocity": 122}, {"time": 444, "pitch": 68, "duration": 2, "velocity": 112}, {"time": 447, "pitch": 68, "duration": 6, "velocity": 127}, {"time": 453, "pitch": 66, "duration": 7, "velocity": 112}, {"time": 459, "pitch": 68, "duration": 4, "velocity": 112}, {"time": 462, "pitch": 66, "duration": 3, "velocity": 96}, {"time": 465, "pitch": 64, "duration": 14, "velocity": 90}, {"time": 483, "pitch": 63, "duration": 8, "velocity": 112}, {"time": 492, "pitch": 61, "duration": 3, "velocity": 99}, {"time": 495, "pitch": 59, "duration": 3, "velocity": 77}, {"time": 498, "pitch": 61, "duration": 3, "velocity": 99}, {"time": 501, "pitch": 56, "duration": 2, "velocity": 99}, {"time": 504, "pitch": 59, "duration": 4, "velocity": 88}, {"time": 507, "pitch": 61, "duration": 17, "velocity": 112}, {"time": 531, "pitch": 61, "duration": 5, "velocity": 89}, {"time": 537, "pitch": 64, "duration": 13, "velocity": 97}, {"time": 549, "pitch": 61, "duration": 2, "velocity": 117}, {"time": 552, "pitch": 61, "duration": 2, "velocity": 112}, {"time": 555, "pitch": 66, "duration": 6, "velocity": 117}, {"time": 561, "pitch": 64, "duration": 6, "velocity": 99}, {"time": 564, "pitch": 66, "duration": 3, "velocity": 107}, {"time": 567, "pitch": 68, "duration": 13, "velocity": 112}, {"time": 579, "pitch": 63, "duration": 4, "velocity": 117}, {"time": 585, "pitch": 63, "duration": 3, "velocity": 112}, {"time": 588, "pitch": 61, "duration": 2, "velocity": 107}, {"time": 594, "pitch": 59, "duration": 3, "velocity": 96}, {"time": 597, "pitch": 56, "duration": 3, "velocity": 93}, {"time": 600, "pitch": 59, "duration": 4, "velocity": 72}, {"time": 603, "pitch": 61, "duration": 22, "velocity": 112}, {"time": 627, "pitch": 61, "duration": 6, "velocity": 122}, {"time": 633, "pitch": 68, "duration": 2, "velocity": 122}, {"time": 636, "pitch": 68, "duration": 2, "velocity": 112}, {"time": 639, "pitch": 68, "duration": 6, "velocity": 127}, {"time": 645, "pitch": 66, "duration": 7, "velocity": 112}, {"time": 651, "pitch": 68, "duration": 4, "velocity": 112}, {"time": 654, "pitch": 66, "duration": 3, "velocity": 96}, {"time": 657, "pitch": 64, "duration": 14, "velocity": 90}, {"time": 675, "pitch": 63, "duration": 8, "velocity": 112}, {"time": 684, "pitch": 61, "duration": 3, "velocity": 99}, {"time": 687, "pitch": 59, "duration": 3, "velocity": 77}, {"time": 690, "pitch": 61, "duration": 3, "velocity": 99}, {"time": 693, "pitch": 56, "duration": 2, "velocity": 99}, {"time": 696, "pitch": 59, "duration": 4, "velocity": 88}, {"time": 699, "pitch": 61, "duration": 17, "velocity": 112}, {"time": 723, "pitch": 61, "duration": 5, "velocity": 89}, {"time": 729, "pitch": 64, "duration": 13, "velocity": 97}, {"time": 741, "pitch": 61, "duration": 5, "velocity": 117}, {"time": 747, "pitch": 66, "duration": 3, "velocity": 117}, {"time": 750, "pitch": 66, "duration": 2, "velocity": 112}, {"time": 753, "pitch": 64, "duration": 6, "velocity": 99}, {"time": 756, "pitch": 66, "duration": 3, "velocity": 107}, {"time": 759, "pitch": 68, "duration": 13, "velocity": 112}, {"time": 771, "pitch": 71, "duration": 1, "velocity": 93}, {"time": 774, "pitch": 71, "duration": 4, "velocity": 97}, {"time": 780, "pitch": 71, "duration": 1, "velocity": 85}, {"time": 783, "pitch": 71, "duration": 2, "velocity": 97}, {"time": 786, "pitch": 68, "duration": 2, "velocity": 102}, {"time": 789, "pitch": 76, "duration": 3, "velocity": 102}, {"time": 792, "pitch": 75, "duration": 3, "velocity": 117}, {"time": 795, "pitch": 73, "duration": 17, "velocity": 122}, {"time": 843, "pitch": 68, "duration": 6, "velocity": 127}, {"time": 849, "pitch": 73, "duration": 11, "velocity": 112}, {"time": 861, "pitch": 71, "duration": 5, "velocity": 112}, {"time": 867, "pitch": 73, "duration": 4, "velocity": 127}, {"time": 876, "pitch": 76, "duration": 3, "velocity": 100}, {"time": 879, "pitch": 73, "duration": 6, "velocity": 112}, {"time": 885, "pitch": 71, "duration": 5, "velocity": 96}, {"time": 891, "pitch": 73, "duration": 4, "velocity": 112}, {"time": 897, "pitch": 73, "duration": 4, "velocity": 122}, {"time": 903, "pitch": 73, "duration": 7, "velocity": 127}, {"time": 909, "pitch": 64, "duration": 3, "velocity": 93}, {"time": 912, "pitch": 66, "duration": 3, "velocity": 107}, {"time": 915, "pitch": 68, "duration": 19, "velocity": 122}, {"time": 939, "pitch": 66, "duration": 4, "velocity": 117}, {"time": 945, "pitch": 66, "duration": 1, "velocity": 100}, {"time": 948, "pitch": 66, "duration": 1, "velocity": 95}, {"time": 951, "pitch": 66, "duration": 5, "velocity": 112}, {"time": 957, "pitch": 68, "duration": 5, "velocity": 107}, {"time": 963, "pitch": 71, "duration": 6, "velocity": 112}, {"time": 969, "pitch": 73, "duration": 3, "velocity": 127}, {"time": 975, "pitch": 73, "duration": 4, "velocity": 127}, {"time": 981, "pitch": 71, "duration": 3, "velocity": 107}, {"time": 984, "pitch": 73, "duration": 3, "velocity": 95}, {"time": 987, "pitch": 71, "duration": 3, "velocity": 99}, {"time": 990, "pitch": 68, "duration": 32, "velocity": 112}, {"time": 1035, "pitch": 68, "duration": 5, "velocity": 112}, {"time": 1041, "pitch": 73, "duration": 9, "velocity": 127}, {"time": 1053, "pitch": 71, "duration": 4, "velocity": 99}, {"time": 1059, "pitch": 73, "duration": 8, "velocity": 127}, {"time": 1068, "pitch": 76, "duration": 3, "velocity": 112}, {"time": 1071, "pitch": 73, "duration": 5, "velocity": 127}, {"time": 1077, "pitch": 71, "duration": 5, "velocity": 97}, {"time": 1083, "pitch": 73, "duration": 3, "velocity": 127}, {"time": 1089, "pitch": 73, "duration": 4, "velocity": 127}, {"time": 1095, "pitch": 73, "duration": 4, "velocity": 127}, {"time": 1101, "pitch": 64, "duration": 3, "velocity": 96}, {"time": 1104, "pitch": 66, "duration": 3, "velocity": 107}, {"time": 1107, "pitch": 68, "duration": 10, "velocity": 122}, {"time": 1125, "pitch": 68, "duration": 1, "velocity": 117}, {"time": 1128, "pitch": 68, "duration": 2, "velocity": 127}, {"time": 1131, "pitch": 66, "duration": 10, "velocity": 122}, {"time": 1155, "pitch": 71, "duration": 5, "velocity": 112}, {"time": 1164, "pitch": 68, "duration": 4, "velocity": 117}, {"time": 1167, "pitch": 78, "duration": 4, "velocity": 127}, {"time": 1173, "pitch": 76, "duration": 3, "velocity": 117}, {"time": 1176, "pitch": 78, "duration": 2, "velocity": 112}, {"time": 1179, "pitch": 73, "duration": 35, "velocity": 117}, {"time": 1227, "pitch": 68, "duration": 5, "velocity": 112}, {"time": 1233, "pitch": 73, "duration": 9, "velocity": 127}, {"time": 1245, "pitch": 71, "duration": 4, "velocity": 99}, {"time": 1251, "pitch": 73, "duration": 8, "velocity": 127}, {"time": 1260, "pitch": 76, "duration": 3, "velocity": 112}, {"time": 1263, "pitch": 73, "duration": 5, "velocity": 127}, {"time": 1269, "pitch": 71, "duration": 5, "velocity": 97}, {"time": 1275, "pitch": 73, "duration": 3, "velocity": 127}, {"time": 1281, "pitch": 73, "duration": 4, "velocity": 127}, {"time": 1287, "pitch": 73, "duration": 4, "velocity": 127}, {"time": 1293, "pitch": 64, "duration": 3, "velocity": 96}, {"time": 1296, "pitch": 66, "duration": 3, "velocity": 107}, {"time": 1299, "pitch": 68, "duration": 10, "velocity": 122}, {"time": 1323, "pitch": 66, "duration": 3, "velocity": 127}, {"time": 1329, "pitch": 66, "duration": 1, "velocity": 112}, {"time": 1332, "pitch": 66, "duration": 1, "velocity": 107}, {"time": 1335, "pitch": 66, "duration": 4, "velocity": 117}, {"time": 1341, "pitch": 68, "duration": 5, "velocity": 127}, {"time": 1347, "pitch": 71, "duration": 5, "velocity": 112}, {"time": 1353, "pitch": 71, "duration": 4, "velocity": 102}, {"time": 1359, "pitch": 73, "duration": 5, "velocity": 127}, {"time": 1365, "pitch": 71, "duration": 3, "velocity": 107}, {"time": 1368, "pitch": 73, "duration": 4, "velocity": 100}, {"time": 1371, "pitch": 71, "duration": 5, "velocity": 107}, {"time": 1377, "pitch": 68, "duration": 30, "velocity": 99}, {"time": 1419, "pitch": 68, "duration": 5, "velocity": 112}, {"time": 1425, "pitch": 73, "duration": 9, "velocity": 127}, {"time": 1437, "pitch": 73, "duration": 3, "velocity": 122}, {"time": 1440, "pitch": 71, "duration": 3, "velocity": 93}, {"time": 1443, "pitch": 73, "duration": 8, "velocity": 127}, {"time": 1452, "pitch": 76, "duration": 3, "velocity": 112}, {"time": 1455, "pitch": 73, "duration": 5, "velocity": 127}, {"time": 1461, "pitch": 71, "duration": 5, "velocity": 97}, {"time": 1467, "pitch": 73, "duration": 3, "velocity": 127}, {"time": 1473, "pitch": 73, "duration": 4, "velocity": 127}, {"time": 1479, "pitch": 73, "duration": 4, "velocity": 127}, {"time": 1485, "pitch": 64, "duration": 3, "velocity": 96}, {"time": 1488, "pitch": 66, "duration": 3, "velocity": 107}, {"time": 1491, "pitch": 68, "duration": 10, "velocity": 122}, {"time": 1509, "pitch": 68, "duration": 1, "velocity": 117}, {"time": 1512, "pitch": 68, "duration": 2, "velocity": 127}, {"time": 1515, "pitch": 66, "duration": 10, "velocity": 122}, {"time": 1533, "pitch": 68, "duration": 4, "velocity": 117}, {"time": 1539, "pitch": 71, "duration": 7, "velocity": 112}, {"time": 1548, "pitch": 68, "duration": 3, "velocity": 127}, {"time": 1551, "pitch": 78, "duration": 4, "velocity": 122}, {"time": 1557, "pitch": 76, "duration": 2, "velocity": 102}, {"time": 1560, "pitch": 78, "duration": 3, "velocity": 96}, {"time": 1563, "pitch": 75, "duration": 3, "velocity": 122}, {"time": 1566, "pitch": 73, "duration": 35, "velocity": 102}, {"time": 1995, "pitch": 61, "duration": 6, "velocity": 122}, {"time": 2001, "pitch": 68, "duration": 2, "velocity": 122}, {"time": 2004, "pitch": 68, "duration": 2, "velocity": 112}, {"time": 2007, "pitch": 68, "duration": 6, "velocity": 127}, {"time": 2013, "pitch": 66, "duration": 7, "velocity": 112}, {"time": 2019, "pitch": 68, "duration": 4, "velocity": 112}, {"time": 2022, "pitch": 66, "duration": 3, "velocity": 96}, {"time": 2025, "pitch": 64, "duration": 14, "velocity": 90}, {"time": 2043, "pitch": 63, "duration": 8, "velocity": 112}, {"time": 2052, "pitch": 61, "duration": 3, "velocity": 99}, {"time": 2055, "pitch": 59, "duration": 3, "velocity": 77}, {"time": 2058, "pitch": 61, "duration": 3, "velocity": 99}, {"time": 2061, "pitch": 56, "duration": 2, "velocity": 99}, {"time": 2064, "pitch": 59, "duration": 4, "velocity": 88}, {"time": 2067, "pitch": 61, "duration": 17, "velocity": 112}, {"time": 2091, "pitch": 61, "duration": 5, "velocity": 89}, {"time": 2097, "pitch": 64, "duration": 13, "velocity": 97}, {"time": 2109, "pitch": 61, "duration": 2, "velocity": 117}, {"time": 2112, "pitch": 61, "duration": 2, "velocity": 112}, {"time": 2115, "pitch": 66, "duration": 6, "velocity": 117}, {"time": 2121, "pitch": 64, "duration": 6, "velocity": 99}, {"time": 2124, "pitch": 66, "duration": 3, "velocity": 107}, {"time": 2127, "pitch": 68, "duration": 13, "velocity": 112}, {"time": 2139, "pitch": 63, "duration": 4, "velocity": 117}, {"time": 2145, "pitch": 63, "duration": 3, "velocity": 112}, {"time": 2148, "pitch": 61, "duration": 2, "velocity": 107}, {"time": 2154, "pitch": 59, "duration": 3, "velocity": 96}, {"time": 2157, "pitch": 56, "duration": 3, "velocity": 93}, {"time": 2160, "pitch": 59, "duration": 4, "velocity": 72}, {"time": 2163, "pitch": 61, "duration": 22, "velocity": 112}, {"time": 2187, "pitch": 61, "duration": 6, "velocity": 122}, {"time": 2193, "pitch": 68, "duration": 2, "velocity": 122}, {"time": 2196, "pitch": 68, "duration": 2, "velocity": 112}, {"time": 2199, "pitch": 68, "duration": 6, "velocity": 127}, {"time": 2205, "pitch": 66, "duration": 7, "velocity": 112}, {"time": 2211, "pitch": 68, "duration": 4, "velocity": 112}, {"time": 2214, "pitch": 66, "duration": 3, "velocity": 96}, {"time": 2217, "pitch": 64, "duration": 14, "velocity": 90}, {"time": 2235, "pitch": 63, "duration": 8, "velocity": 112}, {"time": 2244, "pitch": 61, "duration": 3, "velocity": 99}, {"time": 2247, "pitch": 59, "duration": 3, "velocity": 77}, {"time": 2250, "pitch": 61, "duration": 3, "velocity": 99}, {"time": 2253, "pitch": 56, "duration": 2, "velocity": 99}, {"time": 2256, "pitch": 59, "duration": 4, "velocity": 88}, {"time": 2259, "pitch": 61, "duration": 17, "velocity": 112}, {"time": 2283, "pitch": 61, "duration": 5, "velocity": 89}, {"time": 2289, "pitch": 64, "duration": 13, "velocity": 97}, {"time": 2301, "pitch": 61, "duration": 5, "velocity": 117}, {"time": 2307, "pitch": 66, "duration": 3, "velocity": 117}, {"time": 2310, "pitch": 66, "duration": 2, "velocity": 112}, {"time": 2313, "pitch": 64, "duration": 6, "velocity": 99}, {"time": 2316, "pitch": 66, "duration": 3, "velocity": 107}, {"time": 2319, "pitch": 68, "duration": 13, "velocity": 112}, {"time": 2331, "pitch": 71, "duration": 1, "velocity": 93}, {"time": 2334, "pitch": 71, "duration": 4, "velocity": 97}, {"time": 2340, "pitch": 71, "duration": 1, "velocity": 85}, {"time": 2343, "pitch": 71, "duration": 2, "velocity": 97}, {"time": 2346, "pitch": 68, "duration": 2, "velocity": 102}, {"time": 2349, "pitch": 76, "duration": 3, "velocity": 102}, {"time": 2352, "pitch": 75, "duration": 3, "velocity": 117}, {"time": 2355, "pitch": 73, "duration": 17, "velocity": 122}, {"time": 2403, "pitch": 68, "duration": 6, "velocity": 127}, {"time": 2409, "pitch": 73, "duration": 11, "velocity": 112}, {"time": 2421, "pitch": 71, "duration": 5, "velocity": 112}, {"time": 2427, "pitch": 73, "duration": 4, "velocity": 127}, {"time": 2436, "pitch": 76, "duration": 3, "velocity": 100}, {"time": 2439, "pitch": 73, "duration": 6, "velocity": 112}, {"time": 2445, "pitch": 71, "duration": 5, "velocity": 96}, {"time": 2451, "pitch": 73, "duration": 4, "velocity": 112}, {"time": 2457, "pitch": 73, "duration": 4, "velocity": 122}, {"time": 2463, "pitch": 73, "duration": 7, "velocity": 127}, {"time": 2469, "pitch": 64, "duration": 3, "velocity": 93}, {"time": 2472, "pitch": 66, "duration": 3, "velocity": 107}, {"time": 2475, "pitch": 68, "duration": 19, "velocity": 122}, {"time": 2499, "pitch": 66, "duration": 4, "velocity": 117}, {"time": 2505, "pitch": 66, "duration": 1, "velocity": 100}, {"time": 2508, "pitch": 66, "duration": 1, "velocity": 95}, {"time": 2511, "pitch": 66, "duration": 5, "velocity": 112}, {"time": 2517, "pitch": 68, "duration": 5, "velocity": 107}, {"time": 2523, "pitch": 71, "duration": 6, "velocity": 112}, {"time": 2529, "pitch": 73, "duration": 3, "velocity": 127}, {"time": 2535, "pitch": 73, "duration": 4, "velocity": 127}, {"time": 2541, "pitch": 71, "duration": 3, "velocity": 107}, {"time": 2544, "pitch": 73, "duration": 3, "velocity": 95}, {"time": 2547, "pitch": 71, "duration": 3, "velocity": 99}, {"time": 2550, "pitch": 68, "duration": 32, "velocity": 112}, {"time": 2595, "pitch": 68, "duration": 5, "velocity": 112}, {"time": 2601, "pitch": 73, "duration": 9, "velocity": 127}, {"time": 2613, "pitch": 71, "duration": 4, "velocity": 99}, {"time": 2619, "pitch": 73, "duration": 8, "velocity": 127}, {"time": 2628, "pitch": 76, "duration": 3, "velocity": 112}, {"time": 2631, "pitch": 73, "duration": 5, "velocity": 127}, {"time": 2637, "pitch": 71, "duration": 5, "velocity": 97}, {"time": 2643, "pitch": 73, "duration": 3, "velocity": 127}, {"time": 2649, "pitch": 73, "duration": 4, "velocity": 127}, {"time": 2655, "pitch": 73, "duration": 4, "velocity": 127}, {"time": 2661, "pitch": 64, "duration": 3, "velocity": 96}, {"time": 2664, "pitch": 66, "duration": 3, "velocity": 107}, {"time": 2667, "pitch": 68, "duration": 10, "velocity": 122}, {"time": 2685, "pitch": 68, "duration": 1, "velocity": 117}, {"time": 2688, "pitch": 68, "duration": 2, "velocity": 127}, {"time": 2691, "pitch": 66, "duration": 10, "velocity": 122}, {"time": 2715, "pitch": 71, "duration": 5, "velocity": 112}, {"time": 2724, "pitch": 68, "duration": 4, "velocity": 117}, {"time": 2727, "pitch": 78, "duration": 4, "velocity": 127}, {"time": 2733, "pitch": 76, "duration": 3, "velocity": 117}, {"time": 2736, "pitch": 78, "duration": 2, "velocity": 112}, {"time": 2739, "pitch": 73, "duration": 35, "velocity": 117}, {"time": 2787, "pitch": 68, "duration": 5, "velocity": 112}, {"time": 2793, "pitch": 73, "duration": 9, "velocity": 127}, {"time": 2805, "pitch": 71, "duration": 4, "velocity": 99}, {"time": 2811, "pitch": 73, "duration": 8, "velocity": 127}, {"time": 2820, "pitch": 76, "duration": 3, "velocity": 112}, {"time": 2823, "pitch": 73, "duration": 5, "velocity": 127}, {"time": 2829, "pitch": 71, "duration": 5, "velocity": 97}, {"time": 2835, "pitch": 73, "duration": 3, "velocity": 127}, {"time": 2841, "pitch": 73, "duration": 4, "velocity": 127}, {"time": 2847, "pitch": 73, "duration": 4, "velocity": 127}, {"time": 2853, "pitch": 64, "duration": 3, "velocity": 96}, {"time": 2856, "pitch": 66, "duration": 3, "velocity": 107}, {"time": 2859, "pitch": 68, "duration": 10, "velocity": 122}, {"time": 2883, "pitch": 66, "duration": 3, "velocity": 127}, {"time": 2889, "pitch": 66, "duration": 1, "velocity": 112}, {"time": 2892, "pitch": 66, "duration": 1, "velocity": 107}, {"time": 2895, "pitch": 66, "duration": 4, "velocity": 117}, {"time": 2901, "pitch": 68, "duration": 5, "velocity": 127}, {"time": 2907, "pitch": 71, "duration": 5, "velocity": 112}, {"time": 2913, "pitch": 71, "duration": 4, "velocity": 102}, {"time": 2919, "pitch": 73, "duration": 5, "velocity": 127}, {"time": 2925, "pitch": 71, "duration": 3, "velocity": 107}, {"time": 2928, "pitch": 73, "duration": 4, "velocity": 100}, {"time": 2931, "pitch": 71, "duration": 5, "velocity": 107}, {"time": 2937, "pitch": 68, "duration": 30, "velocity": 99}, {"time": 2979, "pitch": 68, "duration": 5, "velocity": 112}, {"time": 2985, "pitch": 73, "duration": 9, "velocity": 127}, {"time": 2997, "pitch": 73, "duration": 3, "velocity": 122}, {"time": 3000, "pitch": 71, "duration": 3, "velocity": 93}, {"time": 3003, "pitch": 73, "duration": 8, "velocity": 127}, {"time": 3012, "pitch": 76, "duration": 3, "velocity": 112}, {"time": 3015, "pitch": 73, "duration": 5, "velocity": 127}, {"time": 3021, "pitch": 71, "duration": 5, "velocity": 97}, {"time": 3027, "pitch": 73, "duration": 3, "velocity": 127}, {"time": 3033, "pitch": 73, "duration": 4, "velocity": 127}, {"time": 3039, "pitch": 73, "duration": 4, "velocity": 127}, {"time": 3045, "pitch": 64, "duration": 3, "velocity": 96}, {"time": 3048, "pitch": 66, "duration": 3, "velocity": 107}, {"time": 3051, "pitch": 68, "duration": 10, "velocity": 122}, {"time": 3069, "pitch": 68, "duration": 1, "velocity": 117}, {"time": 3072, "pitch": 68, "duration": 2, "velocity": 127}, {"time": 3075, "pitch": 66, "duration": 10, "velocity": 122}, {"time": 3093, "pitch": 68, "duration": 4, "velocity": 117}, {"time": 3099, "pitch": 71, "duration": 7, "velocity": 112}, {"time": 3108, "pitch": 68, "duration": 3, "velocity": 127}, {"time": 3111, "pitch": 78, "duration": 4, "velocity": 122}, {"time": 3117, "pitch": 76, "duration": 2, "velocity": 102}, {"time": 3120, "pitch": 78, "duration": 3, "velocity": 96}, {"time": 3123, "pitch": 75, "duration": 3, "velocity": 122}, {"time": 3126, "pitch": 73, "duration": 35, "velocity": 102}, {"time": 3171, "pitch": 68, "duration": 5, "velocity": 112}, {"time": 3177, "pitch": 73, "duration": 9, "velocity": 127}, {"time": 3189, "pitch": 71, "duration": 4, "velocity": 99}, {"time": 3195, "pitch": 73, "duration": 8, "velocity": 127}, {"time": 3204, "pitch": 76, "duration": 3, "velocity": 112}, {"time": 3207, "pitch": 73, "duration": 5, "velocity": 127}, {"time": 3213, "pitch": 71, "duration": 5, "velocity": 97}, {"time": 3219, "pitch": 73, "duration": 3, "velocity": 127}, {"time": 3225, "pitch": 73, "duration": 4, "velocity": 127}, {"time": 3231, "pitch": 73, "duration": 4, "velocity": 127}, {"time": 3237, "pitch": 64, "duration": 3, "velocity": 96}, {"time": 3240, "pitch": 66, "duration": 3, "velocity": 107}, {"time": 3243, "pitch": 68, "duration": 10, "velocity": 122}, {"time": 3267, "pitch": 66, "duration": 3, "velocity": 127}, {"time": 3273, "pitch": 66, "duration": 1, "velocity": 112}, {"time": 3276, "pitch": 66, "duration": 1, "velocity": 107}, {"time": 3279, "pitch": 66, "duration": 4, "velocity": 117}, {"time": 3285, "pitch": 68, "duration": 5, "velocity": 127}, {"time": 3291, "pitch": 71, "duration": 5, "velocity": 112}, {"time": 3297, "pitch": 71, "duration": 4, "velocity": 102}, {"time": 3303, "pitch": 73, "duration": 5, "velocity": 127}, {"time": 3309, "pitch": 71, "duration": 3, "velocity": 107}, {"time": 3312, "pitch": 73, "duration": 4, "velocity": 100}, {"time": 3315, "pitch": 71, "duration": 5, "velocity": 107}, {"time": 3321, "pitch": 68, "duration": 30, "velocity": 99}, {"time": 3363, "pitch": 68, "duration": 5, "velocity": 112}, {"time": 3369, "pitch": 73, "duration": 9, "velocity": 127}, {"time": 3381, "pitch": 73, "duration": 3, "velocity": 122}, {"time": 3384, "pitch": 71, "duration": 3, "velocity": 93}, {"time": 3387, "pitch": 73, "duration": 8, "velocity": 127}, {"time": 3396, "pitch": 76, "duration": 3, "velocity": 112}, {"time": 3399, "pitch": 73, "duration": 5, "velocity": 127}, {"time": 3405, "pitch": 71, "duration": 5, "velocity": 97}, {"time": 3411, "pitch": 73, "duration": 3, "velocity": 127}, {"time": 3417, "pitch": 73, "duration": 4, "velocity": 127}, {"time": 3423, "pitch": 73, "duration": 4, "velocity": 127}, {"time": 3429, "pitch": 64, "duration": 3, "velocity": 96}, {"time": 3432, "pitch": 66, "duration": 3, "velocity": 107}, {"time": 3435, "pitch": 68, "duration": 10, "velocity": 122}, {"time": 3453, "pitch": 68, "duration": 1, "velocity": 117}, {"time": 3456, "pitch": 68, "duration": 2, "velocity": 127}, {"time": 3459, "pitch": 66, "duration": 10, "velocity": 122}, {"time": 3477, "pitch": 68, "duration": 4, "velocity": 117}, {"time": 3483, "pitch": 71, "duration": 7, "velocity": 112}, {"time": 3492, "pitch": 68, "duration": 15, "velocity": 127}, {"time": 3519, "pitch": 78, "duration": 6, "velocity": 127}, {"time": 3525, "pitch": 76, "duration": 3, "velocity": 100}, {"time": 3528, "pitch": 75, "duration": 3, "velocity": 112}, {"time": 3531, "pitch": 73, "duration": 61, "velocity": 96}]}, {"program": 0, "is_drum": false, "name": "PIANO", "notes": [{"time": 51, "pitch": 37, "duration": 38, "velocity": 64}, {"time": 51, "pitch": 49, "duration": 15, "velocity": 52}, {"time": 51, "pitch": 61, "duration": 11, "velocity": 81}, {"time": 51, "pitch": 64, "duration": 7, "velocity": 68}, {"time": 51, "pitch": 68, "duration": 8, "velocity": 69}, {"time": 63, "pitch": 68, "duration": 9, "velocity": 66}, {"time": 69, "pitch": 49, "duration": 10, "velocity": 52}, {"time": 75, "pitch": 68, "duration": 13, "velocity": 95}, {"time": 81, "pitch": 49, "duration": 7, "velocity": 41}, {"time": 87, "pitch": 64, "duration": 13, "velocity": 79}, {"time": 93, "pitch": 63, "duration": 6, "velocity": 38}, {"time": 99, "pitch": 37, "duration": 13, "velocity": 82}, {"time": 105, "pitch": 49, "duration": 9, "velocity": 78}, {"time": 111, "pitch": 68, "duration": 11, "velocity": 107}, {"time": 117, "pitch": 61, "duration": 6, "velocity": 85}, {"time": 123, "pitch": 44, "duration": 18, "velocity": 93}, {"time": 129, "pitch": 56, "duration": 9, "velocity": 85}, {"time": 135, "pitch": 59, "duration": 5, "velocity": 85}, {"time": 135, "pitch": 63, "duration": 13, "velocity": 93}, {"time": 141, "pitch": 59, "duration": 8, "velocity": 62}, {"time": 144, "pitch": 68, "duration": 4, "velocity": 78}, {"time": 147, "pitch": 42, "duration": 17, "velocity": 93}, {"time": 153, "pitch": 54, "duration": 11, "velocity": 69}, {"time": 159, "pitch": 61, "duration": 12, "velocity": 78}, {"time": 159, "pitch": 66, "duration": 12, "velocity": 89}, {"time": 165, "pitch": 57, "duration": 7, "velocity": 82}, {"time": 171, "pitch": 47, "duration": 15, "velocity": 86}, {"time": 177, "pitch": 54, "duration": 9, "velocity": 85}, {"time": 183, "pitch": 63, "duration": 12, "velocity": 112}, {"time": 183, "pitch": 66, "duration": 12, "velocity": 107}, {"time": 189, "pitch": 59, "duration": 6, "velocity": 95}, {"time": 195, "pitch": 44, "duration": 23, "velocity": 100}, {"time": 201, "pitch": 56, "duration": 9, "velocity": 97}, {"time": 207, "pitch": 60, "duration": 14, "velocity": 90}, {"time": 207, "pitch": 63, "duration": 17, "velocity": 117}, {"time": 207, "pitch": 68, "duration": 13, "velocity": 97}, {"time": 213, "pitch": 56, "duration": 8, "velocity": 76}, {"time": 219, "pitch": 44, "duration": 17, "velocity": 96}, {"time": 225, "pitch": 56, "duration": 8, "velocity": 92}, {"time": 231, "pitch": 68, "duration": 11, "velocity": 122}, {"time": 234, "pitch": 63, "duration": 5, "velocity": 107}, {"time": 237, "pitch": 60, "duration": 6, "velocity": 83}, {"time": 240, "pitch": 63, "duration": 3, "velocity": 82}, {"time": 243, "pitch": 37, "duration": 22, "velocity": 99}, {"time": 246, "pitch": 49, "duration": 22, "velocity": 81}, {"time": 249, "pitch": 56, "duration": 4, "velocity": 55}, {"time": 255, "pitch": 61, "duration": 2, "velocity": 92}, {"time": 255, "pitch": 64, "duration": 19, "velocity": 85}, {"time": 261, "pitch": 56, "duration": 12, "velocity": 92}, {"time": 264, "pitch": 61, "duration": 13, "velocity": 42}, {"time": 267, "pitch": 37, "duration": 13, "velocity": 93}, {"time": 273, "pitch": 49, "duration": 9, "velocity": 99}, {"time": 279, "pitch": 64, "duration": 7, "velocity": 102}, {"time": 285, "pitch": 61, "duration": 7, "velocity": 127}, {"time": 291, "pitch": 45, "duration": 13, "velocity": 100}, {"time": 297, "pitch": 52, "duration": 8, "velocity": 76}, {"time": 303, "pitch": 64, "duration": 11, "velocity": 112}, {"time": 309, "pitch": 61, "duration": 6, "velocity": 102}, {"time": 315, "pitch": 44, "duration": 17, "velocity": 100}, {"time": 321, "pitch": 56, "duration": 9, "velocity": 90}, {"time": 327, "pitch": 68, "duration": 12, "velocity": 102}, {"time": 333, "pitch": 63, "duration": 6, "velocity": 99}, {"time": 336, "pitch": 59, "duration": 4, "velocity": 78}, {"time": 339, "pitch": 42, "duration": 15, "velocity": 112}, {"time": 345, "pitch": 54, "duration": 5, "velocity": 74}, {"time": 351, "pitch": 61, "duration": 7, "velocity": 122}, {"time": 357, "pitch": 57, "duration": 5, "velocity": 99}, {"time": 363, "pitch": 40, "duration": 16, "velocity": 82}, {"time": 369, "pitch": 47, "duration": 10, "velocity": 90}, {"time": 375, "pitch": 59, "duration": 12, "velocity": 96}, {"time": 381, "pitch": 52, "duration": 6, "velocity": 86}, {"time": 387, "pitch": 37, "duration": 42, "velocity": 95}, {"time": 393, "pitch": 49, "duration": 16, "velocity": 90}, {"time": 399, "pitch": 61, "duration": 23, "velocity": 107}, {"time": 405, "pitch": 56, "duration": 18, "velocity": 86}, {"time": 411, "pitch": 49, "duration": 13, "velocity": 50}, {"time": 411, "pitch": 52, "duration": 20, "velocity": 78}, {"time": 423, "pitch": 61, "duration": 13, "velocity": 107}, {"time": 426, "pitch": 49, "duration": 7, "velocity": 71}, {"time": 429, "pitch": 56, "duration": 6, "velocity": 76}, {"time": 435, "pitch": 37, "duration": 36, "velocity": 97}, {"time": 441, "pitch": 49, "duration": 22, "velocity": 72}, {"time": 447, "pitch": 64, "duration": 20, "velocity": 79}, {"time": 453, "pitch": 56, "duration": 14, "velocity": 79}, {"time": 459, "pitch": 61, "duration": 11, "velocity": 52}, {"time": 465, "pitch": 49, "duration": 9, "velocity": 55}, {"time": 471, "pitch": 64, "duration": 8, "velocity": 90}, {"time": 477, "pitch": 61, "duration": 6, "velocity": 78}, {"time": 483, "pitch": 44, "duration": 16, "velocity": 97}, {"time": 489, "pitch": 56, "duration": 7, "velocity": 79}, {"time": 495, "pitch": 63, "duration": 7, "velocity": 102}, {"time": 501, "pitch": 59, "duration": 7, "velocity": 90}, {"time": 507, "pitch": 37, "duration": 15, "velocity": 92}, {"time": 513, "pitch": 49, "duration": 11, "velocity": 68}, {"time": 519, "pitch": 64, "duration": 10, "velocity": 93}, {"time": 525, "pitch": 61, "duration": 7, "velocity": 97}, {"time": 531, "pitch": 45, "duration": 14, "velocity": 95}, {"time": 537, "pitch": 52, "duration": 8, "velocity": 89}, {"time": 543, "pitch": 64, "duration": 10, "velocity": 97}, {"time": 549, "pitch": 61, "duration": 8, "velocity": 78}, {"time": 555, "pitch": 42, "duration": 13, "velocity": 100}, {"time": 561, "pitch": 54, "duration": 11, "velocity": 82}, {"time": 567, "pitch": 66, "duration": 11, "velocity": 112}, {"time": 573, "pitch": 61, "duration": 7, "velocity": 85}, {"time": 579, "pitch": 47, "duration": 19, "velocity": 77}, {"time": 585, "pitch": 54, "duration": 13, "velocity": 99}, {"time": 591, "pitch": 59, "duration": 4, "velocity": 93}, {"time": 591, "pitch": 63, "duration": 12, "velocity": 117}, {"time": 591, "pitch": 66, "duration": 12, "velocity": 117}, {"time": 597, "pitch": 59, "duration": 6, "velocity": 70}, {"time": 603, "pitch": 49, "duration": 23, "velocity": 102}, {"time": 609, "pitch": 56, "duration": 19, "velocity": 97}, {"time": 615, "pitch": 64, "duration": 11, "velocity": 96}, {"time": 621, "pitch": 63, "duration": 6, "velocity": 96}, {"time": 627, "pitch": 49, "duration": 23, "velocity": 107}, {"time": 633, "pitch": 56, "duration": 3, "velocity": 86}, {"time": 639, "pitch": 64, "duration": 12, "velocity": 99}, {"time": 645, "pitch": 61, "duration": 7, "velocity": 93}, {"time": 651, "pitch": 49, "duration": 16, "velocity": 95}, {"time": 651, "pitch": 63, "duration": 1, "velocity": 36}, {"time": 657, "pitch": 56, "duration": 3, "velocity": 58}, {"time": 663, "pitch": 64, "duration": 7, "velocity": 99}, {"time": 669, "pitch": 61, "duration": 9, "velocity": 88}, {"time": 675, "pitch": 44, "duration": 23, "velocity": 97}, {"time": 681, "pitch": 56, "duration": 9, "velocity": 93}, {"time": 687, "pitch": 63, "duration": 7, "velocity": 112}, {"time": 693, "pitch": 59, "duration": 6, "velocity": 89}, {"time": 699, "pitch": 49, "duration": 22, "velocity": 97}, {"time": 705, "pitch": 56, "duration": 3, "velocity": 90}, {"time": 711, "pitch": 61, "duration": 6, "velocity": 102}, {"time": 717, "pitch": 64, "duration": 7, "velocity": 90}, {"time": 723, "pitch": 45, "duration": 18, "velocity": 93}, {"time": 729, "pitch": 52, "duration": 11, "velocity": 69}, {"time": 735, "pitch": 61, "duration": 12, "velocity": 99}, {"time": 735, "pitch": 64, "duration": 12, "velocity": 82}, {"time": 741, "pitch": 57, "duration": 6, "velocity": 86}, {"time": 747, "pitch": 42, "duration": 14, "velocity": 112}, {"time": 753, "pitch": 54, "duration": 11, "velocity": 73}, {"time": 759, "pitch": 61, "duration": 8, "velocity": 122}, {"time": 765, "pitch": 57, "duration": 7, "velocity": 92}, {"time": 771, "pitch": 47, "duration": 22, "velocity": 81}, {"time": 777, "pitch": 54, "duration": 10, "velocity": 83}, {"time": 783, "pitch": 66, "duration": 10, "velocity": 107}, {"time": 789, "pitch": 63, "duration": 6, "velocity": 107}, {"time": 795, "pitch": 49, "duration": 14, "velocity": 117}, {"time": 801, "pitch": 56, "duration": 8, "velocity": 79}, {"time": 807, "pitch": 64, "duration": 7, "velocity": 90}, {"time": 810, "pitch": 49, "duration": 7, "velocity": 88}, {"time": 813, "pitch": 63, "duration": 3, "velocity": 61}, {"time": 816, "pitch": 61, "duration": 4, "velocity": 66}, {"time": 819, "pitch": 49, "duration": 14, "velocity": 117}, {"time": 825, "pitch": 56, "duration": 4, "velocity": 45}, {"time": 831, "pitch": 61, "duration": 5, "velocity": 127}, {"time": 834, "pitch": 49, "duration": 1, "velocity": 117}, {"time": 837, "pitch": 63, "duration": 4, "velocity": 127}, {"time": 840, "pitch": 64, "duration": 3, "velocity": 88}, {"time": 843, "pitch": 37, "duration": 22, "velocity": 117}, {"time": 846, "pitch": 49, "duration": 10, "velocity": 88}, {"time": 849, "pitch": 56, "duration": 6, "velocity": 95}, {"time": 852, "pitch": 61, "duration": 3, "velocity": 107}, {"time": 855, "pitch": 63, "duration": 1, "velocity": 66}, {"time": 855, "pitch": 64, "duration": 17, "velocity": 93}, {"time": 858, "pitch": 49, "duration": 9, "velocity": 85}, {"time": 861, "pitch": 56, "duration": 11, "velocity": 93}, {"time": 864, "pitch": 61, "duration": 6, "velocity": 117}, {"time": 867, "pitch": 37, "duration": 17, "velocity": 96}, {"time": 870, "pitch": 44, "duration": 13, "velocity": 69}, {"time": 873, "pitch": 49, "duration": 7, "velocity": 99}, {"time": 876, "pitch": 56, "duration": 3, "velocity": 95}, {"time": 879, "pitch": 63, "duration": 3, "velocity": 69}, {"time": 879, "pitch": 64, "duration": 7, "velocity": 96}, {"time": 882, "pitch": 49, "duration": 3, "velocity": 96}, {"time": 885, "pitch": 61, "duration": 3, "velocity": 127}, {"time": 888, "pitch": 64, "duration": 4, "velocity": 99}, {"time": 891, "pitch": 45, "duration": 17, "velocity": 90}, {"time": 894, "pitch": 52, "duration": 10, "velocity": 81}, {"time": 897, "pitch": 57, "duration": 7, "velocity": 79}, {"time": 900, "pitch": 61, "duration": 2, "velocity": 89}, {"time": 903, "pitch": 64, "duration": 11, "velocity": 100}, {"time": 906, "pitch": 52, "duration": 2, "velocity": 102}, {"time": 909, "pitch": 61, "duration": 6, "velocity": 100}, {"time": 912, "pitch": 57, "duration": 4, "velocity": 92}, {"time": 915, "pitch": 44, "duration": 18, "velocity": 97}, {"time": 918, "pitch": 56, "duration": 10, "velocity": 89}, {"time": 921, "pitch": 59, "duration": 8, "velocity": 82}, {"time": 924, "pitch": 63, "duration": 3, "velocity": 95}, {"time": 927, "pitch": 68, "duration": 12, "velocity": 122}, {"time": 930, "pitch": 56, "duration": 3, "velocity": 81}, {"time": 933, "pitch": 63, "duration": 6, "velocity": 99}, {"time": 936, "pitch": 59, "duration": 3, "velocity": 95}, {"time": 939, "pitch": 42, "duration": 17, "velocity": 122}, {"time": 942, "pitch": 54, "duration": 9, "velocity": 100}, {"time": 945, "pitch": 57, "duration": 7, "velocity": 76}, {"time": 948, "pitch": 61, "duration": 4, "velocity": 112}, {"time": 951, "pitch": 66, "duration": 11, "velocity": 122}, {"time": 954, "pitch": 54, "duration": 4, "velocity": 89}, {"time": 957, "pitch": 61, "duration": 5, "velocity": 117}, {"time": 960, "pitch": 57, "duration": 3, "velocity": 100}, {"time": 963, "pitch": 45, "duration": 18, "velocity": 92}, {"time": 966, "pitch": 52, "duration": 10, "velocity": 96}, {"time": 969, "pitch": 57, "duration": 6, "velocity": 95}, {"time": 972, "pitch": 61, "duration": 2, "velocity": 127}, {"time": 975, "pitch": 64, "duration": 12, "velocity": 102}, {"time": 978, "pitch": 52, "duration": 3, "velocity": 95}, {"time": 981, "pitch": 61, "duration": 5, "velocity": 122}, {"time": 984, "pitch": 57, "duration": 3, "velocity": 100}, {"time": 987, "pitch": 44, "duration": 23, "velocity": 107}, {"time": 990, "pitch": 56, "duration": 11, "velocity": 99}, {"time": 993, "pitch": 60, "duration": 8, "velocity": 92}, {"time": 996, "pitch": 63, "duration": 4, "velocity": 107}, {"time": 999, "pitch": 68, "duration": 18, "velocity": 127}, {"time": 1002, "pitch": 56, "duration": 11, "velocity": 97}, {"time": 1005, "pitch": 63, "duration": 11, "velocity": 100}, {"time": 1008, "pitch": 60, "duration": 5, "velocity": 88}, {"time": 1011, "pitch": 44, "duration": 16, "velocity": 93}, {"time": 1014, "pitch": 56, "duration": 9, "velocity": 93}, {"time": 1017, "pitch": 60, "duration": 8, "velocity": 85}, {"time": 1020, "pitch": 63, "duration": 4, "velocity": 117}, {"time": 1023, "pitch": 68, "duration": 12, "velocity": 127}, {"time": 1026, "pitch": 56, "duration": 1, "velocity": 102}, {"time": 1029, "pitch": 63, "duration": 6, "velocity": 117}, {"time": 1032, "pitch": 60, "duration": 4, "velocity": 102}, {"time": 1035, "pitch": 37, "duration": 22, "velocity": 77}, {"time": 1038, "pitch": 44, "duration": 21, "velocity": 62}, {"time": 1041, "pitch": 49, "duration": 7, "velocity": 82}, {"time": 1044, "pitch": 56, "duration": 4, "velocity": 89}, {"time": 1047, "pitch": 64, "duration": 20, "velocity": 95}, {"time": 1050, "pitch": 49, "duration": 10, "velocity": 92}, {"time": 1053, "pitch": 61, "duration": 9, "velocity": 92}, {"time": 1056, "pitch": 56, "duration": 6, "velocity": 100}, {"time": 1059, "pitch": 37, "duration": 18, "velocity": 83}, {"time": 1062, "pitch": 44, "duration": 15, "velocity": 40}, {"time": 1065, "pitch": 49, "duration": 8, "velocity": 90}, {"time": 1068, "pitch": 56, "duration": 2, "velocity": 90}, {"time": 1071, "pitch": 64, "duration": 7, "velocity": 90}, {"time": 1074, "pitch": 49, "duration": 4, "velocity": 95}, {"time": 1077, "pitch": 61, "duration": 3, "velocity": 100}, {"time": 1080, "pitch": 64, "duration": 4, "velocity": 92}, {"time": 1083, "pitch": 45, "duration": 18, "velocity": 85}, {"time": 1086, "pitch": 52, "duration": 10, "velocity": 85}, {"time": 1089, "pitch": 57, "duration": 4, "velocity": 95}, {"time": 1092, "pitch": 64, "duration": 14, "velocity": 102}, {"time": 1095, "pitch": 61, "duration": 7, "velocity": 112}, {"time": 1098, "pitch": 52, "duration": 3, "velocity": 70}, {"time": 1101, "pitch": 57, "duration": 4, "velocity": 95}, {"time": 1104, "pitch": 61, "duration": 3, "velocity": 100}, {"time": 1107, "pitch": 44, "duration": 17, "velocity": 102}, {"time": 1110, "pitch": 56, "duration": 10, "velocity": 95}, {"time": 1113, "pitch": 59, "duration": 8, "velocity": 83}, {"time": 1116, "pitch": 63, "duration": 3, "velocity": 107}, {"time": 1119, "pitch": 68, "duration": 12, "velocity": 107}, {"time": 1122, "pitch": 56, "duration": 2, "velocity": 96}, {"time": 1125, "pitch": 63, "duration": 5, "velocity": 97}, {"time": 1128, "pitch": 59, "duration": 4, "velocity": 81}, {"time": 1131, "pitch": 42, "duration": 18, "velocity": 92}, {"time": 1134, "pitch": 54, "duration": 10, "velocity": 85}, {"time": 1137, "pitch": 57, "duration": 8, "velocity": 73}, {"time": 1140, "pitch": 61, "duration": 4, "velocity": 88}, {"time": 1143, "pitch": 66, "duration": 11, "velocity": 97}, {"time": 1146, "pitch": 54, "duration": 2, "velocity": 85}, {"time": 1149, "pitch": 61, "duration": 5, "velocity": 89}, {"time": 1152, "pitch": 57, "duration": 4, "velocity": 93}, {"time": 1155, "pitch": 40, "duration": 19, "velocity": 79}, {"time": 1158, "pitch": 47, "duration": 16, "velocity": 76}, {"time": 1161, "pitch": 52, "duration": 8, "velocity": 90}, {"time": 1164, "pitch": 56, "duration": 4, "velocity": 81}, {"time": 1167, "pitch": 64, "duration": 13, "velocity": 85}, {"time": 1170, "pitch": 52, "duration": 3, "velocity": 88}, {"time": 1173, "pitch": 56, "duration": 6, "velocity": 96}, {"time": 1176, "pitch": 59, "duration": 3, "velocity": 66}, {"time": 1179, "pitch": 37, "duration": 23, "velocity": 102}, {"time": 1182, "pitch": 49, "duration": 23, "velocity": 81}, {"time": 1185, "pitch": 52, "duration": 5, "velocity": 71}, {"time": 1188, "pitch": 56, "duration": 4, "velocity": 112}, {"time": 1191, "pitch": 61, "duration": 1, "velocity": 102}, {"time": 1194, "pitch": 64, "duration": 3, "velocity": 62}, {"time": 1197, "pitch": 68, "duration": 11, "velocity": 88}, {"time": 1200, "pitch": 61, "duration": 7, "velocity": 93}, {"time": 1203, "pitch": 37, "duration": 12, "velocity": 95}, {"time": 1206, "pitch": 49, "duration": 7, "velocity": 68}, {"time": 1209, "pitch": 61, "duration": 4, "velocity": 66}, {"time": 1212, "pitch": 64, "duration": 2, "velocity": 51}, {"time": 1215, "pitch": 68, "duration": 13, "velocity": 122}, {"time": 1218, "pitch": 64, "duration": 4, "velocity": 72}, {"time": 1221, "pitch": 61, "duration": 6, "velocity": 122}, {"time": 1224, "pitch": 64, "duration": 3, "velocity": 58}, {"time": 1227, "pitch": 37, "duration": 22, "velocity": 117}, {"time": 1230, "pitch": 49, "duration": 10, "velocity": 88}, {"time": 1233, "pitch": 56, "duration": 6, "velocity": 95}, {"time": 1236, "pitch": 61, "duration": 3, "velocity": 107}, {"time": 1239, "pitch": 63, "duration": 1, "velocity": 66}, {"time": 1239, "pitch": 64, "duration": 17, "velocity": 93}, {"time": 1242, "pitch": 49, "duration": 9, "velocity": 85}, {"time": 1245, "pitch": 56, "duration": 11, "velocity": 93}, {"time": 1248, "pitch": 61, "duration": 6, "velocity": 117}, {"time": 1251, "pitch": 37, "duration": 17, "velocity": 96}, {"time": 1254, "pitch": 44, "duration": 13, "velocity": 69}, {"time": 1257, "pitch": 49, "duration": 7, "velocity": 99}, {"time": 1260, "pitch": 56, "duration": 3, "velocity": 95}, {"time": 1263, "pitch": 63, "duration": 3, "velocity": 69}, {"time": 1263, "pitch": 64, "duration": 7, "velocity": 96}, {"time": 1266, "pitch": 49, "duration": 3, "velocity": 96}, {"time": 1269, "pitch": 61, "duration": 3, "velocity": 127}, {"time": 1272, "pitch": 64, "duration": 4, "velocity": 99}, {"time": 1275, "pitch": 45, "duration": 17, "velocity": 90}, {"time": 1278, "pitch": 52, "duration": 10, "velocity": 81}, {"time": 1281, "pitch": 57, "duration": 7, "velocity": 79}, {"time": 1284, "pitch": 61, "duration": 2, "velocity": 89}, {"time": 1287, "pitch": 64, "duration": 11, "velocity": 100}, {"time": 1290, "pitch": 52, "duration": 2, "velocity": 102}, {"time": 1293, "pitch": 61, "duration": 6, "velocity": 100}, {"time": 1296, "pitch": 57, "duration": 4, "velocity": 92}, {"time": 1299, "pitch": 44, "duration": 18, "velocity": 97}, {"time": 1302, "pitch": 56, "duration": 10, "velocity": 89}, {"time": 1305, "pitch": 59, "duration": 8, "velocity": 82}, {"time": 1308, "pitch": 63, "duration": 3, "velocity": 95}, {"time": 1311, "pitch": 68, "duration": 12, "velocity": 122}, {"time": 1314, "pitch": 56, "duration": 3, "velocity": 81}, {"time": 1317, "pitch": 63, "duration": 6, "velocity": 99}, {"time": 1320, "pitch": 59, "duration": 3, "velocity": 95}, {"time": 1323, "pitch": 42, "duration": 17, "velocity": 122}, {"time": 1326, "pitch": 54, "duration": 9, "velocity": 100}, {"time": 1329, "pitch": 57, "duration": 7, "velocity": 76}, {"time": 1332, "pitch": 61, "duration": 4, "velocity": 112}, {"time": 1335, "pitch": 66, "duration": 11, "velocity": 122}, {"time": 1338, "pitch": 54, "duration": 4, "velocity": 89}, {"time": 1341, "pitch": 61, "duration": 5, "velocity": 117}, {"time": 1344, "pitch": 57, "duration": 3, "velocity": 100}, {"time": 1347, "pitch": 45, "duration": 18, "velocity": 92}, {"time": 1350, "pitch": 52, "duration": 10, "velocity": 96}, {"time": 1353, "pitch": 57, "duration": 6, "velocity": 95}, {"time": 1356, "pitch": 61, "duration": 2, "velocity": 127}, {"time": 1359, "pitch": 64, "duration": 12, "velocity": 102}, {"time": 1362, "pitch": 52, "duration": 3, "velocity": 95}, {"time": 1365, "pitch": 61, "duration": 5, "velocity": 122}, {"time": 1368, "pitch": 57, "duration": 3, "velocity": 100}, {"time": 1371, "pitch": 44, "duration": 23, "velocity": 107}, {"time": 1374, "pitch": 56, "duration": 11, "velocity": 99}, {"time": 1377, "pitch": 60, "duration": 8, "velocity": 92}, {"time": 1380, "pitch": 63, "duration": 4, "velocity": 107}, {"time": 1383, "pitch": 68, "duration": 18, "velocity": 127}, {"time": 1386, "pitch": 56, "duration": 11, "velocity": 97}, {"time": 1389, "pitch": 63, "duration": 11, "velocity": 100}, {"time": 1392, "pitch": 60, "duration": 5, "velocity": 88}, {"time": 1395, "pitch": 44, "duration": 16, "velocity": 93}, {"time": 1398, "pitch": 56, "duration": 9, "velocity": 93}, {"time": 1401, "pitch": 60, "duration": 8, "velocity": 85}, {"time": 1404, "pitch": 63, "duration": 4, "velocity": 117}, {"time": 1407, "pitch": 68, "duration": 12, "velocity": 127}, {"time": 1410, "pitch": 56, "duration": 1, "velocity": 102}, {"time": 1413, "pitch": 63, "duration": 6, "velocity": 117}, {"time": 1416, "pitch": 60, "duration": 4, "velocity": 102}, {"time": 1419, "pitch": 37, "duration": 22, "velocity": 77}, {"time": 1422, "pitch": 44, "duration": 21, "velocity": 62}, {"time": 1425, "pitch": 49, "duration": 7, "velocity": 82}, {"time": 1428, "pitch": 56, "duration": 4, "velocity": 89}, {"time": 1431, "pitch": 64, "duration": 20, "velocity": 95}, {"time": 1434, "pitch": 49, "duration": 10, "velocity": 92}, {"time": 1437, "pitch": 61, "duration": 9, "velocity": 92}, {"time": 1440, "pitch": 56, "duration": 6, "velocity": 100}, {"time": 1443, "pitch": 37, "duration": 18, "velocity": 83}, {"time": 1446, "pitch": 44, "duration": 15, "velocity": 40}, {"time": 1449, "pitch": 49, "duration": 8, "velocity": 90}, {"time": 1452, "pitch": 56, "duration": 2, "velocity": 90}, {"time": 1455, "pitch": 64, "duration": 7, "velocity": 90}, {"time": 1458, "pitch": 49, "duration": 4, "velocity": 95}, {"time": 1461, "pitch": 61, "duration": 3, "velocity": 100}, {"time": 1464, "pitch": 64, "duration": 4, "velocity": 92}, {"time": 1467, "pitch": 45, "duration": 18, "velocity": 85}, {"time": 1470, "pitch": 52, "duration": 10, "velocity": 85}, {"time": 1473, "pitch": 57, "duration": 4, "velocity": 95}, {"time": 1476, "pitch": 64, "duration": 14, "velocity": 102}, {"time": 1479, "pitch": 61, "duration": 7, "velocity": 112}, {"time": 1482, "pitch": 52, "duration": 3, "velocity": 70}, {"time": 1485, "pitch": 57, "duration": 4, "velocity": 95}, {"time": 1488, "pitch": 61, "duration": 3, "velocity": 100}, {"time": 1491, "pitch": 44, "duration": 17, "velocity": 102}, {"time": 1494, "pitch": 56, "duration": 10, "velocity": 95}, {"time": 1497, "pitch": 59, "duration": 8, "velocity": 83}, {"time": 1500, "pitch": 63, "duration": 3, "velocity": 107}, {"time": 1503, "pitch": 68, "duration": 12, "velocity": 107}, {"time": 1506, "pitch": 56, "duration": 2, "velocity": 96}, {"time": 1509, "pitch": 63, "duration": 5, "velocity": 97}, {"time": 1512, "pitch": 59, "duration": 4, "velocity": 81}, {"time": 1515, "pitch": 42, "duration": 18, "velocity": 92}, {"time": 1518, "pitch": 54, "duration": 10, "velocity": 85}, {"time": 1521, "pitch": 57, "duration": 8, "velocity": 73}, {"time": 1524, "pitch": 61, "duration": 4, "velocity": 88}, {"time": 1527, "pitch": 66, "duration": 11, "velocity": 97}, {"time": 1530, "pitch": 54, "duration": 2, "velocity": 85}, {"time": 1533, "pitch": 61, "duration": 5, "velocity": 89}, {"time": 1536, "pitch": 57, "duration": 4, "velocity": 93}, {"time": 1539, "pitch": 40, "duration": 19, "velocity": 79}, {"time": 1542, "pitch": 47, "duration": 16, "velocity": 76}, {"time": 1545, "pitch": 52, "duration": 8, "velocity": 90}, {"time": 1548, "pitch": 56, "duration": 4, "velocity": 81}, {"time": 1551, "pitch": 64, "duration": 13, "velocity": 85}, {"time": 1554, "pitch": 52, "duration": 3, "velocity": 88}, {"time": 1557, "pitch": 56, "duration": 6, "velocity": 96}, {"time": 1560, "pitch": 59, "duration": 3, "velocity": 66}, {"time": 1563, "pitch": 37, "duration": 23, "velocity": 102}, {"time": 1566, "pitch": 49, "duration": 23, "velocity": 81}, {"time": 1569, "pitch": 52, "duration": 5, "velocity": 71}, {"time": 1572, "pitch": 56, "duration": 4, "velocity": 112}, {"time": 1575, "pitch": 61, "duration": 1, "velocity": 102}, {"time": 1578, "pitch": 64, "duration": 3, "velocity": 62}, {"time": 1581, "pitch": 68, "duration": 11, "velocity": 88}, {"time": 1584, "pitch": 61, "duration": 7, "velocity": 93}, {"time": 1587, "pitch": 37, "duration": 12, "velocity": 95}, {"time": 1590, "pitch": 49, "duration": 7, "velocity": 68}, {"time": 1593, "pitch": 61, "duration": 4, "velocity": 66}, {"time": 1596, "pitch": 64, "duration": 2, "velocity": 51}, {"time": 1599, "pitch": 68, "duration": 13, "velocity": 122}, {"time": 1602, "pitch": 64, "duration": 4, "velocity": 72}, {"time": 1605, "pitch": 61, "duration": 6, "velocity": 122}, {"time": 1608, "pitch": 64, "duration": 3, "velocity": 58}, {"time": 1611, "pitch": 37, "duration": 37, "velocity": 97}, {"time": 1617, "pitch": 44, "duration": 31, "velocity": 52}, {"time": 1623, "pitch": 64, "duration": 19, "velocity": 86}, {"time": 1629, "pitch": 49, "duration": 8, "velocity": 59}, {"time": 1635, "pitch": 61, "duration": 11, "velocity": 102}, {"time": 1641, "pitch": 49, "duration": 6, "velocity": 78}, {"time": 1647, "pitch": 64, "duration": 13, "velocity": 100}, {"time": 1653, "pitch": 61, "duration": 6, "velocity": 99}, {"time": 1659, "pitch": 45, "duration": 14, "velocity": 89}, {"time": 1665, "pitch": 52, "duration": 8, "velocity": 81}, {"time": 1671, "pitch": 64, "duration": 12, "velocity": 97}, {"time": 1677, "pitch": 61, "duration": 9, "velocity": 93}, {"time": 1683, "pitch": 44, "duration": 18, "velocity": 96}, {"time": 1689, "pitch": 56, "duration": 8, "velocity": 85}, {"time": 1695, "pitch": 63, "duration": 13, "velocity": 102}, {"time": 1701, "pitch": 59, "duration": 7, "velocity": 86}, {"time": 1707, "pitch": 42, "duration": 15, "velocity": 102}, {"time": 1713, "pitch": 54, "duration": 9, "velocity": 89}, {"time": 1719, "pitch": 61, "duration": 11, "velocity": 127}, {"time": 1725, "pitch": 57, "duration": 6, "velocity": 68}, {"time": 1731, "pitch": 47, "duration": 17, "velocity": 95}, {"time": 1737, "pitch": 54, "duration": 11, "velocity": 73}, {"time": 1737, "pitch": 59, "duration": 11, "velocity": 112}, {"time": 1737, "pitch": 63, "duration": 11, "velocity": 127}, {"time": 1737, "pitch": 66, "duration": 11, "velocity": 117}, {"time": 1743, "pitch": 66, "duration": 5, "velocity": 112}, {"time": 1749, "pitch": 63, "duration": 6, "velocity": 92}, {"time": 1755, "pitch": 44, "duration": 24, "velocity": 96}, {"time": 1761, "pitch": 56, "duration": 8, "velocity": 97}, {"time": 1767, "pitch": 68, "duration": 13, "velocity": 112}, {"time": 1770, "pitch": 56, "duration": 10, "velocity": 83}, {"time": 1779, "pitch": 44, "duration": 24, "velocity": 97}, {"time": 1782, "pitch": 56, "duration": 9, "velocity": 86}, {"time": 1785, "pitch": 60, "duration": 8, "velocity": 82}, {"time": 1788, "pitch": 63, "duration": 4, "velocity": 112}, {"time": 1791, "pitch": 68, "duration": 13, "velocity": 117}, {"time": 1794, "pitch": 56, "duration": 8, "velocity": 96}, {"time": 1797, "pitch": 63, "duration": 7, "velocity": 95}, {"time": 1800, "pitch": 60, "duration": 4, "velocity": 75}, {"time": 1803, "pitch": 37, "duration": 22, "velocity": 99}, {"time": 1806, "pitch": 49, "duration": 22, "velocity": 81}, {"time": 1809, "pitch": 56, "duration": 4, "velocity": 55}, {"time": 1815, "pitch": 61, "duration": 2, "velocity": 92}, {"time": 1815, "pitch": 64, "duration": 19, "velocity": 85}, {"time": 1821, "pitch": 56, "duration": 12, "velocity": 92}, {"time": 1824, "pitch": 61, "duration": 13, "velocity": 42}, {"time": 1827, "pitch": 37, "duration": 13, "velocity": 93}, {"time": 1833, "pitch": 49, "duration": 9, "velocity": 99}, {"time": 1839, "pitch": 64, "duration": 7, "velocity": 102}, {"time": 1845, "pitch": 61, "duration": 7, "velocity": 127}, {"time": 1851, "pitch": 45, "duration": 13, "velocity": 100}, {"time": 1857, "pitch": 52, "duration": 8, "velocity": 76}, {"time": 1863, "pitch": 64, "duration": 11, "velocity": 112}, {"time": 1869, "pitch": 61, "duration": 6, "velocity": 102}, {"time": 1875, "pitch": 44, "duration": 17, "velocity": 100}, {"time": 1881, "pitch": 56, "duration": 9, "velocity": 90}, {"time": 1887, "pitch": 68, "duration": 12, "velocity": 102}, {"time": 1893, "pitch": 63, "duration": 6, "velocity": 99}, {"time": 1896, "pitch": 59, "duration": 4, "velocity": 78}, {"time": 1899, "pitch": 42, "duration": 15, "velocity": 112}, {"time": 1905, "pitch": 54, "duration": 5, "velocity": 74}, {"time": 1911, "pitch": 61, "duration": 7, "velocity": 122}, {"time": 1917, "pitch": 57, "duration": 5, "velocity": 99}, {"time": 1923, "pitch": 40, "duration": 16, "velocity": 82}, {"time": 1929, "pitch": 47, "duration": 10, "velocity": 90}, {"time": 1935, "pitch": 59, "duration": 12, "velocity": 96}, {"time": 1941, "pitch": 52, "duration": 6, "velocity": 86}, {"time": 1947, "pitch": 37, "duration": 42, "velocity": 95}, {"time": 1953, "pitch": 49, "duration": 16, "velocity": 90}, {"time": 1959, "pitch": 61, "duration": 23, "velocity": 107}, {"time": 1965, "pitch": 56, "duration": 18, "velocity": 86}, {"time": 1971, "pitch": 49, "duration": 13, "velocity": 50}, {"time": 1971, "pitch": 52, "duration": 20, "velocity": 78}, {"time": 1983, "pitch": 61, "duration": 12, "velocity": 107}, {"time": 1986, "pitch": 49, "duration": 7, "velocity": 71}, {"time": 1989, "pitch": 56, "duration": 6, "velocity": 76}, {"time": 1995, "pitch": 37, "duration": 36, "velocity": 97}, {"time": 2001, "pitch": 49, "duration": 22, "velocity": 72}, {"time": 2007, "pitch": 64, "duration": 20, "velocity": 79}, {"time": 2013, "pitch": 56, "duration": 14, "velocity": 79}, {"time": 2019, "pitch": 61, "duration": 11, "velocity": 52}, {"time": 2025, "pitch": 49, "duration": 9, "velocity": 55}, {"time": 2031, "pitch": 64, "duration": 8, "velocity": 90}, {"time": 2037, "pitch": 61, "duration": 6, "velocity": 78}, {"time": 2043, "pitch": 44, "duration": 16, "velocity": 97}, {"time": 2049, "pitch": 56, "duration": 7, "velocity": 79}, {"time": 2055, "pitch": 63, "duration": 7, "velocity": 102}, {"time": 2061, "pitch": 59, "duration": 7, "velocity": 90}, {"time": 2067, "pitch": 37, "duration": 15, "velocity": 92}, {"time": 2073, "pitch": 49, "duration": 11, "velocity": 68}, {"time": 2079, "pitch": 64, "duration": 10, "velocity": 93}, {"time": 2085, "pitch": 61, "duration": 7, "velocity": 97}, {"time": 2091, "pitch": 45, "duration": 14, "velocity": 95}, {"time": 2097, "pitch": 52, "duration": 8, "velocity": 89}, {"time": 2103, "pitch": 64, "duration": 10, "velocity": 97}, {"time": 2109, "pitch": 61, "duration": 8, "velocity": 78}, {"time": 2115, "pitch": 42, "duration": 13, "velocity": 100}, {"time": 2121, "pitch": 54, "duration": 11, "velocity": 82}, {"time": 2127, "pitch": 66, "duration": 11, "velocity": 112}, {"time": 2133, "pitch": 61, "duration": 7, "velocity": 85}, {"time": 2139, "pitch": 47, "duration": 19, "velocity": 77}, {"time": 2145, "pitch": 54, "duration": 13, "velocity": 99}, {"time": 2151, "pitch": 59, "duration": 4, "velocity": 93}, {"time": 2151, "pitch": 63, "duration": 12, "velocity": 117}, {"time": 2151, "pitch": 66, "duration": 12, "velocity": 117}, {"time": 2157, "pitch": 59, "duration": 6, "velocity": 70}, {"time": 2163, "pitch": 49, "duration": 23, "velocity": 102}, {"time": 2169, "pitch": 56, "duration": 19, "velocity": 97}, {"time": 2175, "pitch": 64, "duration": 11, "velocity": 96}, {"time": 2181, "pitch": 63, "duration": 6, "velocity": 96}, {"time": 2187, "pitch": 49, "duration": 23, "velocity": 107}, {"time": 2193, "pitch": 56, "duration": 3, "velocity": 86}, {"time": 2199, "pitch": 64, "duration": 12, "velocity": 99}, {"time": 2205, "pitch": 61, "duration": 7, "velocity": 93}, {"time": 2211, "pitch": 49, "duration": 16, "velocity": 95}, {"time": 2211, "pitch": 63, "duration": 1, "velocity": 36}, {"time": 2217, "pitch": 56, "duration": 3, "velocity": 58}, {"time": 2223, "pitch": 64, "duration": 7, "velocity": 99}, {"time": 2229, "pitch": 61, "duration": 9, "velocity": 88}, {"time": 2235, "pitch": 44, "duration": 23, "velocity": 97}, {"time": 2241, "pitch": 56, "duration": 9, "velocity": 93}, {"time": 2247, "pitch": 63, "duration": 7, "velocity": 112}, {"time": 2253, "pitch": 59, "duration": 6, "velocity": 89}, {"time": 2259, "pitch": 49, "duration": 22, "velocity": 97}, {"time": 2265, "pitch": 56, "duration": 3, "velocity": 90}, {"time": 2271, "pitch": 61, "duration": 6, "velocity": 102}, {"time": 2283, "pitch": 45, "duration": 18, "velocity": 93}, {"time": 2289, "pitch": 52, "duration": 11, "velocity": 69}, {"time": 2295, "pitch": 61, "duration": 12, "velocity": 99}, {"time": 2295, "pitch": 64, "duration": 12, "velocity": 82}, {"time": 2301, "pitch": 57, "duration": 6, "velocity": 86}, {"time": 2307, "pitch": 42, "duration": 14, "velocity": 112}, {"time": 2313, "pitch": 54, "duration": 11, "velocity": 73}, {"time": 2319, "pitch": 61, "duration": 8, "velocity": 122}, {"time": 2325, "pitch": 57, "duration": 7, "velocity": 92}, {"time": 2331, "pitch": 47, "duration": 22, "velocity": 81}, {"time": 2337, "pitch": 54, "duration": 10, "velocity": 83}, {"time": 2343, "pitch": 66, "duration": 10, "velocity": 107}, {"time": 2349, "pitch": 63, "duration": 6, "velocity": 107}, {"time": 2355, "pitch": 49, "duration": 14, "velocity": 117}, {"time": 2361, "pitch": 56, "duration": 8, "velocity": 79}, {"time": 2367, "pitch": 64, "duration": 7, "velocity": 90}, {"time": 2370, "pitch": 49, "duration": 7, "velocity": 88}, {"time": 2373, "pitch": 63, "duration": 3, "velocity": 61}, {"time": 2376, "pitch": 61, "duration": 4, "velocity": 66}, {"time": 2379, "pitch": 49, "duration": 14, "velocity": 117}, {"time": 2385, "pitch": 56, "duration": 4, "velocity": 45}, {"time": 2391, "pitch": 61, "duration": 5, "velocity": 127}, {"time": 2394, "pitch": 49, "duration": 1, "velocity": 117}, {"time": 2397, "pitch": 63, "duration": 4, "velocity": 127}, {"time": 2400, "pitch": 64, "duration": 3, "velocity": 88}, {"time": 2403, "pitch": 37, "duration": 22, "velocity": 117}, {"time": 2406, "pitch": 49, "duration": 10, "velocity": 88}, {"time": 2409, "pitch": 56, "duration": 6, "velocity": 95}, {"time": 2412, "pitch": 61, "duration": 3, "velocity": 107}, {"time": 2415, "pitch": 63, "duration": 1, "velocity": 66}, {"time": 2415, "pitch": 64, "duration": 17, "velocity": 93}, {"time": 2418, "pitch": 49, "duration": 9, "velocity": 85}, {"time": 2421, "pitch": 56, "duration": 11, "velocity": 93}, {"time": 2424, "pitch": 61, "duration": 6, "velocity": 117}, {"time": 2427, "pitch": 37, "duration": 17, "velocity": 96}, {"time": 2430, "pitch": 44, "duration": 13, "velocity": 69}, {"time": 2433, "pitch": 49, "duration": 7, "velocity": 99}, {"time": 2436, "pitch": 56, "duration": 3, "velocity": 95}, {"time": 2439, "pitch": 63, "duration": 3, "velocity": 69}, {"time": 2439, "pitch": 64, "duration": 7, "velocity": 96}, {"time": 2442, "pitch": 49, "duration": 3, "velocity": 96}, {"time": 2445, "pitch": 61, "duration": 3, "velocity": 127}, {"time": 2448, "pitch": 64, "duration": 4, "velocity": 99}, {"time": 2451, "pitch": 45, "duration": 17, "velocity": 90}, {"time": 2454, "pitch": 52, "duration": 10, "velocity": 81}, {"time": 2457, "pitch": 57, "duration": 7, "velocity": 79}, {"time": 2460, "pitch": 61, "duration": 2, "velocity": 89}, {"time": 2463, "pitch": 64, "duration": 11, "velocity": 100}, {"time": 2466, "pitch": 52, "duration": 2, "velocity": 102}, {"time": 2469, "pitch": 61, "duration": 6, "velocity": 100}, {"time": 2472, "pitch": 57, "duration": 4, "velocity": 92}, {"time": 2475, "pitch": 44, "duration": 18, "velocity": 97}, {"time": 2478, "pitch": 56, "duration": 10, "velocity": 89}, {"time": 2481, "pitch": 59, "duration": 8, "velocity": 82}, {"time": 2484, "pitch": 63, "duration": 3, "velocity": 95}, {"time": 2487, "pitch": 68, "duration": 12, "velocity": 122}, {"time": 2490, "pitch": 56, "duration": 3, "velocity": 81}, {"time": 2493, "pitch": 63, "duration": 6, "velocity": 99}, {"time": 2496, "pitch": 59, "duration": 3, "velocity": 95}, {"time": 2499, "pitch": 42, "duration": 17, "velocity": 122}, {"time": 2502, "pitch": 54, "duration": 9, "velocity": 100}, {"time": 2505, "pitch": 57, "duration": 7, "velocity": 76}, {"time": 2508, "pitch": 61, "duration": 4, "velocity": 112}, {"time": 2511, "pitch": 66, "duration": 11, "velocity": 122}, {"time": 2514, "pitch": 54, "duration": 4, "velocity": 89}, {"time": 2517, "pitch": 61, "duration": 5, "velocity": 117}, {"time": 2520, "pitch": 57, "duration": 3, "velocity": 100}, {"time": 2523, "pitch": 45, "duration": 18, "velocity": 92}, {"time": 2526, "pitch": 52, "duration": 10, "velocity": 96}, {"time": 2529, "pitch": 57, "duration": 6, "velocity": 95}, {"time": 2532, "pitch": 61, "duration": 2, "velocity": 127}, {"time": 2535, "pitch": 64, "duration": 12, "velocity": 102}, {"time": 2538, "pitch": 52, "duration": 3, "velocity": 95}, {"time": 2541, "pitch": 61, "duration": 5, "velocity": 122}, {"time": 2544, "pitch": 57, "duration": 3, "velocity": 100}, {"time": 2547, "pitch": 44, "duration": 23, "velocity": 107}, {"time": 2550, "pitch": 56, "duration": 11, "velocity": 99}, {"time": 2553, "pitch": 60, "duration": 8, "velocity": 92}, {"time": 2556, "pitch": 63, "duration": 4, "velocity": 107}, {"time": 2559, "pitch": 68, "duration": 18, "velocity": 127}, {"time": 2562, "pitch": 56, "duration": 11, "velocity": 97}, {"time": 2565, "pitch": 63, "duration": 11, "velocity": 100}, {"time": 2568, "pitch": 60, "duration": 5, "velocity": 88}, {"time": 2571, "pitch": 44, "duration": 16, "velocity": 93}, {"time": 2574, "pitch": 56, "duration": 9, "velocity": 93}, {"time": 2577, "pitch": 60, "duration": 8, "velocity": 85}, {"time": 2580, "pitch": 63, "duration": 4, "velocity": 117}, {"time": 2583, "pitch": 68, "duration": 12, "velocity": 127}, {"time": 2586, "pitch": 56, "duration": 1, "velocity": 102}, {"time": 2589, "pitch": 63, "duration": 6, "velocity": 117}, {"time": 2592, "pitch": 60, "duration": 4, "velocity": 102}, {"time": 2595, "pitch": 37, "duration": 22, "velocity": 77}, {"time": 2598, "pitch": 44, "duration": 21, "velocity": 62}, {"time": 2601, "pitch": 49, "duration": 7, "velocity": 82}, {"time": 2604, "pitch": 56, "duration": 4, "velocity": 89}, {"time": 2607, "pitch": 64, "duration": 20, "velocity": 95}, {"time": 2610, "pitch": 49, "duration": 10, "velocity": 92}, {"time": 2613, "pitch": 61, "duration": 9, "velocity": 92}, {"time": 2616, "pitch": 56, "duration": 6, "velocity": 100}, {"time": 2619, "pitch": 37, "duration": 18, "velocity": 83}, {"time": 2622, "pitch": 44, "duration": 15, "velocity": 40}, {"time": 2625, "pitch": 49, "duration": 8, "velocity": 90}, {"time": 2628, "pitch": 56, "duration": 2, "velocity": 90}, {"time": 2631, "pitch": 64, "duration": 7, "velocity": 90}, {"time": 2634, "pitch": 49, "duration": 4, "velocity": 95}, {"time": 2637, "pitch": 61, "duration": 3, "velocity": 100}, {"time": 2640, "pitch": 64, "duration": 4, "velocity": 92}, {"time": 2643, "pitch": 45, "duration": 18, "velocity": 85}, {"time": 2646, "pitch": 52, "duration": 10, "velocity": 85}, {"time": 2649, "pitch": 57, "duration": 4, "velocity": 95}, {"time": 2652, "pitch": 64, "duration": 14, "velocity": 102}, {"time": 2655, "pitch": 61, "duration": 7, "velocity": 112}, {"time": 2658, "pitch": 52, "duration": 3, "velocity": 70}, {"time": 2661, "pitch": 57, "duration": 4, "velocity": 95}, {"time": 2664, "pitch": 61, "duration": 3, "velocity": 100}, {"time": 2667, "pitch": 44, "duration": 17, "velocity": 102}, {"time": 2670, "pitch": 56, "duration": 10, "velocity": 95}, {"time": 2673, "pitch": 59, "duration": 8, "velocity": 83}, {"time": 2676, "pitch": 63, "duration": 3, "velocity": 107}, {"time": 2679, "pitch": 68, "duration": 12, "velocity": 107}, {"time": 2682, "pitch": 56, "duration": 2, "velocity": 96}, {"time": 2685, "pitch": 63, "duration": 5, "velocity": 97}, {"time": 2688, "pitch": 59, "duration": 4, "velocity": 81}, {"time": 2691, "pitch": 42, "duration": 18, "velocity": 92}, {"time": 2694, "pitch": 54, "duration": 10, "velocity": 85}, {"time": 2697, "pitch": 57, "duration": 8, "velocity": 73}, {"time": 2700, "pitch": 61, "duration": 4, "velocity": 88}, {"time": 2703, "pitch": 66, "duration": 11, "velocity": 97}, {"time": 2706, "pitch": 54, "duration": 2, "velocity": 85}, {"time": 2709, "pitch": 61, "duration": 5, "velocity": 89}, {"time": 2712, "pitch": 57, "duration": 4, "velocity": 93}, {"time": 2715, "pitch": 40, "duration": 19, "velocity": 79}, {"time": 2718, "pitch": 47, "duration": 16, "velocity": 76}, {"time": 2721, "pitch": 52, "duration": 8, "velocity": 90}, {"time": 2724, "pitch": 56, "duration": 4, "velocity": 81}, {"time": 2727, "pitch": 64, "duration": 13, "velocity": 85}, {"time": 2730, "pitch": 52, "duration": 3, "velocity": 88}, {"time": 2733, "pitch": 56, "duration": 6, "velocity": 96}, {"time": 2736, "pitch": 59, "duration": 3, "velocity": 66}, {"time": 2739, "pitch": 37, "duration": 23, "velocity": 102}, {"time": 2742, "pitch": 49, "duration": 23, "velocity": 81}, {"time": 2745, "pitch": 52, "duration": 5, "velocity": 71}, {"time": 2748, "pitch": 56, "duration": 4, "velocity": 112}, {"time": 2751, "pitch": 61, "duration": 1, "velocity": 102}, {"time": 2754, "pitch": 64, "duration": 3, "velocity": 62}, {"time": 2757, "pitch": 68, "duration": 11, "velocity": 88}, {"time": 2760, "pitch": 61, "duration": 7, "velocity": 93}, {"time": 2763, "pitch": 37, "duration": 12, "velocity": 95}, {"time": 2766, "pitch": 49, "duration": 7, "velocity": 68}, {"time": 2769, "pitch": 61, "duration": 4, "velocity": 66}, {"time": 2772, "pitch": 64, "duration": 2, "velocity": 51}, {"time": 2775, "pitch": 68, "duration": 13, "velocity": 122}, {"time": 2778, "pitch": 64, "duration": 4, "velocity": 72}, {"time": 2781, "pitch": 61, "duration": 6, "velocity": 122}, {"time": 2784, "pitch": 64, "duration": 3, "velocity": 58}, {"time": 2787, "pitch": 37, "duration": 22, "velocity": 117}, {"time": 2790, "pitch": 49, "duration": 10, "velocity": 88}, {"time": 2793, "pitch": 56, "duration": 6, "velocity": 95}, {"time": 2796, "pitch": 61, "duration": 3, "velocity": 107}, {"time": 2799, "pitch": 64, "duration": 17, "velocity": 93}, {"time": 2802, "pitch": 49, "duration": 9, "velocity": 85}, {"time": 2805, "pitch": 56, "duration": 11, "velocity": 93}, {"time": 2808, "pitch": 61, "duration": 6, "velocity": 117}, {"time": 2811, "pitch": 37, "duration": 17, "velocity": 96}, {"time": 2814, "pitch": 44, "duration": 13, "velocity": 69}, {"time": 2817, "pitch": 49, "duration": 7, "velocity": 99}, {"time": 2820, "pitch": 56, "duration": 3, "velocity": 95}, {"time": 2823, "pitch": 64, "duration": 7, "velocity": 96}, {"time": 2826, "pitch": 49, "duration": 3, "velocity": 96}, {"time": 2829, "pitch": 61, "duration": 3, "velocity": 127}, {"time": 2832, "pitch": 64, "duration": 4, "velocity": 99}, {"time": 2835, "pitch": 45, "duration": 17, "velocity": 90}, {"time": 2838, "pitch": 52, "duration": 10, "velocity": 81}, {"time": 2841, "pitch": 57, "duration": 7, "velocity": 79}, {"time": 2844, "pitch": 61, "duration": 2, "velocity": 89}, {"time": 2847, "pitch": 64, "duration": 11, "velocity": 100}, {"time": 2850, "pitch": 52, "duration": 2, "velocity": 102}, {"time": 2853, "pitch": 61, "duration": 6, "velocity": 100}, {"time": 2856, "pitch": 57, "duration": 4, "velocity": 92}, {"time": 2859, "pitch": 44, "duration": 18, "velocity": 97}, {"time": 2862, "pitch": 56, "duration": 10, "velocity": 89}, {"time": 2865, "pitch": 59, "duration": 8, "velocity": 82}, {"time": 2868, "pitch": 63, "duration": 3, "velocity": 95}, {"time": 2871, "pitch": 68, "duration": 12, "velocity": 122}, {"time": 2874, "pitch": 56, "duration": 3, "velocity": 81}, {"time": 2877, "pitch": 63, "duration": 6, "velocity": 99}, {"time": 2880, "pitch": 59, "duration": 3, "velocity": 95}, {"time": 2883, "pitch": 42, "duration": 17, "velocity": 122}, {"time": 2886, "pitch": 54, "duration": 9, "velocity": 100}, {"time": 2889, "pitch": 57, "duration": 7, "velocity": 76}, {"time": 2892, "pitch": 61, "duration": 4, "velocity": 112}, {"time": 2895, "pitch": 66, "duration": 11, "velocity": 122}, {"time": 2898, "pitch": 54, "duration": 4, "velocity": 89}, {"time": 2901, "pitch": 61, "duration": 5, "velocity": 117}, {"time": 2904, "pitch": 57, "duration": 3, "velocity": 100}, {"time": 2907, "pitch": 45, "duration": 18, "velocity": 92}, {"time": 2910, "pitch": 52, "duration": 10, "velocity": 96}, {"time": 2913, "pitch": 57, "duration": 6, "velocity": 95}, {"time": 2916, "pitch": 61, "duration": 2, "velocity": 127}, {"time": 2919, "pitch": 64, "duration": 12, "velocity": 102}, {"time": 2922, "pitch": 52, "duration": 3, "velocity": 95}, {"time": 2925, "pitch": 61, "duration": 5, "velocity": 122}, {"time": 2928, "pitch": 57, "duration": 3, "velocity": 100}, {"time": 2931, "pitch": 44, "duration": 23, "velocity": 107}, {"time": 2934, "pitch": 56, "duration": 11, "velocity": 99}, {"time": 2937, "pitch": 60, "duration": 8, "velocity": 92}, {"time": 2940, "pitch": 63, "duration": 4, "velocity": 107}, {"time": 2943, "pitch": 68, "duration": 18, "velocity": 127}, {"time": 2946, "pitch": 56, "duration": 11, "velocity": 97}, {"time": 2949, "pitch": 63, "duration": 11, "velocity": 100}, {"time": 2952, "pitch": 60, "duration": 5, "velocity": 88}, {"time": 2955, "pitch": 44, "duration": 16, "velocity": 93}, {"time": 2958, "pitch": 56, "duration": 9, "velocity": 93}, {"time": 2961, "pitch": 60, "duration": 8, "velocity": 85}, {"time": 2964, "pitch": 63, "duration": 4, "velocity": 117}, {"time": 2967, "pitch": 68, "duration": 12, "velocity": 127}, {"time": 2970, "pitch": 56, "duration": 1, "velocity": 102}, {"time": 2973, "pitch": 63, "duration": 6, "velocity": 117}, {"time": 2976, "pitch": 60, "duration": 4, "velocity": 102}, {"time": 2979, "pitch": 37, "duration": 22, "velocity": 77}, {"time": 2982, "pitch": 44, "duration": 21, "velocity": 62}, {"time": 2985, "pitch": 49, "duration": 7, "velocity": 82}, {"time": 2988, "pitch": 56, "duration": 4, "velocity": 89}, {"time": 2991, "pitch": 64, "duration": 20, "velocity": 95}, {"time": 2994, "pitch": 49, "duration": 10, "velocity": 92}, {"time": 2997, "pitch": 61, "duration": 9, "velocity": 92}, {"time": 3000, "pitch": 56, "duration": 6, "velocity": 100}, {"time": 3003, "pitch": 37, "duration": 18, "velocity": 83}, {"time": 3006, "pitch": 44, "duration": 15, "velocity": 40}, {"time": 3009, "pitch": 49, "duration": 8, "velocity": 90}, {"time": 3012, "pitch": 56, "duration": 2, "velocity": 90}, {"time": 3015, "pitch": 64, "duration": 7, "velocity": 90}, {"time": 3018, "pitch": 49, "duration": 4, "velocity": 95}, {"time": 3021, "pitch": 61, "duration": 3, "velocity": 100}, {"time": 3024, "pitch": 64, "duration": 4, "velocity": 92}, {"time": 3027, "pitch": 45, "duration": 18, "velocity": 85}, {"time": 3030, "pitch": 52, "duration": 10, "velocity": 85}, {"time": 3033, "pitch": 57, "duration": 4, "velocity": 95}, {"time": 3036, "pitch": 64, "duration": 14, "velocity": 102}, {"time": 3039, "pitch": 61, "duration": 7, "velocity": 112}, {"time": 3042, "pitch": 52, "duration": 3, "velocity": 70}, {"time": 3045, "pitch": 57, "duration": 4, "velocity": 95}, {"time": 3048, "pitch": 61, "duration": 3, "velocity": 100}, {"time": 3051, "pitch": 44, "duration": 17, "velocity": 102}, {"time": 3054, "pitch": 56, "duration": 10, "velocity": 95}, {"time": 3057, "pitch": 59, "duration": 8, "velocity": 83}, {"time": 3060, "pitch": 63, "duration": 3, "velocity": 107}, {"time": 3063, "pitch": 68, "duration": 12, "velocity": 107}, {"time": 3066, "pitch": 56, "duration": 2, "velocity": 96}, {"time": 3069, "pitch": 63, "duration": 5, "velocity": 97}, {"time": 3072, "pitch": 59, "duration": 4, "velocity": 81}, {"time": 3075, "pitch": 42, "duration": 18, "velocity": 92}, {"time": 3078, "pitch": 54, "duration": 10, "velocity": 85}, {"time": 3081, "pitch": 57, "duration": 8, "velocity": 73}, {"time": 3084, "pitch": 61, "duration": 4, "velocity": 88}, {"time": 3087, "pitch": 66, "duration": 11, "velocity": 97}, {"time": 3090, "pitch": 54, "duration": 2, "velocity": 85}, {"time": 3093, "pitch": 61, "duration": 5, "velocity": 89}, {"time": 3096, "pitch": 57, "duration": 4, "velocity": 93}, {"time": 3099, "pitch": 40, "duration": 19, "velocity": 79}, {"time": 3102, "pitch": 47, "duration": 16, "velocity": 76}, {"time": 3105, "pitch": 52, "duration": 8, "velocity": 90}, {"time": 3108, "pitch": 56, "duration": 4, "velocity": 81}, {"time": 3111, "pitch": 64, "duration": 13, "velocity": 85}, {"time": 3114, "pitch": 52, "duration": 3, "velocity": 88}, {"time": 3117, "pitch": 56, "duration": 6, "velocity": 96}, {"time": 3120, "pitch": 59, "duration": 3, "velocity": 66}, {"time": 3123, "pitch": 37, "duration": 23, "velocity": 102}, {"time": 3126, "pitch": 49, "duration": 23, "velocity": 81}, {"time": 3129, "pitch": 52, "duration": 5, "velocity": 71}, {"time": 3132, "pitch": 56, "duration": 4, "velocity": 112}, {"time": 3135, "pitch": 61, "duration": 1, "velocity": 102}, {"time": 3138, "pitch": 64, "duration": 3, "velocity": 62}, {"time": 3141, "pitch": 68, "duration": 11, "velocity": 88}, {"time": 3144, "pitch": 61, "duration": 7, "velocity": 93}, {"time": 3147, "pitch": 37, "duration": 12, "velocity": 95}, {"time": 3150, "pitch": 49, "duration": 7, "velocity": 68}, {"time": 3153, "pitch": 61, "duration": 4, "velocity": 66}, {"time": 3156, "pitch": 64, "duration": 2, "velocity": 51}, {"time": 3162, "pitch": 64, "duration": 4, "velocity": 72}, {"time": 3165, "pitch": 61, "duration": 6, "velocity": 122}, {"time": 3168, "pitch": 64, "duration": 3, "velocity": 58}, {"time": 3171, "pitch": 37, "duration": 22, "velocity": 117}, {"time": 3174, "pitch": 49, "duration": 10, "velocity": 88}, {"time": 3177, "pitch": 56, "duration": 6, "velocity": 95}, {"time": 3180, "pitch": 61, "duration": 3, "velocity": 107}, {"time": 3183, "pitch": 64, "duration": 17, "velocity": 93}, {"time": 3186, "pitch": 49, "duration": 9, "velocity": 85}, {"time": 3189, "pitch": 56, "duration": 11, "velocity": 93}, {"time": 3192, "pitch": 61, "duration": 6, "velocity": 117}, {"time": 3195, "pitch": 37, "duration": 17, "velocity": 96}, {"time": 3198, "pitch": 44, "duration": 13, "velocity": 69}, {"time": 3201, "pitch": 49, "duration": 7, "velocity": 99}, {"time": 3204, "pitch": 56, "duration": 3, "velocity": 95}, {"time": 3207, "pitch": 64, "duration": 7, "velocity": 96}, {"time": 3210, "pitch": 49, "duration": 3, "velocity": 96}, {"time": 3213, "pitch": 61, "duration": 3, "velocity": 127}, {"time": 3216, "pitch": 64, "duration": 4, "velocity": 99}, {"time": 3219, "pitch": 45, "duration": 17, "velocity": 90}, {"time": 3222, "pitch": 52, "duration": 10, "velocity": 81}, {"time": 3225, "pitch": 57, "duration": 7, "velocity": 79}, {"time": 3228, "pitch": 61, "duration": 2, "velocity": 89}, {"time": 3231, "pitch": 64, "duration": 11, "velocity": 100}, {"time": 3234, "pitch": 52, "duration": 2, "velocity": 102}, {"time": 3237, "pitch": 61, "duration": 6, "velocity": 100}, {"time": 3240, "pitch": 57, "duration": 4, "velocity": 92}, {"time": 3243, "pitch": 44, "duration": 18, "velocity": 97}, {"time": 3246, "pitch": 56, "duration": 10, "velocity": 89}, {"time": 3249, "pitch": 59, "duration": 8, "velocity": 82}, {"time": 3252, "pitch": 63, "duration": 3, "velocity": 95}, {"time": 3255, "pitch": 68, "duration": 12, "velocity": 122}, {"time": 3258, "pitch": 56, "duration": 3, "velocity": 81}, {"time": 3261, "pitch": 63, "duration": 6, "velocity": 99}, {"time": 3264, "pitch": 59, "duration": 3, "velocity": 95}, {"time": 3267, "pitch": 42, "duration": 17, "velocity": 122}, {"time": 3270, "pitch": 54, "duration": 9, "velocity": 100}, {"time": 3273, "pitch": 57, "duration": 7, "velocity": 76}, {"time": 3276, "pitch": 61, "duration": 4, "velocity": 112}, {"time": 3279, "pitch": 66, "duration": 11, "velocity": 122}, {"time": 3282, "pitch": 54, "duration": 4, "velocity": 89}, {"time": 3285, "pitch": 61, "duration": 5, "velocity": 117}, {"time": 3288, "pitch": 57, "duration": 3, "velocity": 100}, {"time": 3291, "pitch": 45, "duration": 18, "velocity": 92}, {"time": 3294, "pitch": 52, "duration": 10, "velocity": 96}, {"time": 3297, "pitch": 57, "duration": 6, "velocity": 95}, {"time": 3300, "pitch": 61, "duration": 2, "velocity": 127}, {"time": 3303, "pitch": 64, "duration": 12, "velocity": 102}, {"time": 3306, "pitch": 52, "duration": 3, "velocity": 95}, {"time": 3309, "pitch": 61, "duration": 5, "velocity": 122}, {"time": 3312, "pitch": 57, "duration": 3, "velocity": 100}, {"time": 3315, "pitch": 44, "duration": 23, "velocity": 107}, {"time": 3318, "pitch": 56, "duration": 11, "velocity": 99}, {"time": 3321, "pitch": 60, "duration": 8, "velocity": 92}, {"time": 3324, "pitch": 63, "duration": 4, "velocity": 107}, {"time": 3327, "pitch": 68, "duration": 18, "velocity": 127}, {"time": 3330, "pitch": 56, "duration": 11, "velocity": 97}, {"time": 3333, "pitch": 63, "duration": 11, "velocity": 100}, {"time": 3336, "pitch": 60, "duration": 5, "velocity": 88}, {"time": 3339, "pitch": 44, "duration": 16, "velocity": 93}, {"time": 3342, "pitch": 56, "duration": 9, "velocity": 93}, {"time": 3345, "pitch": 60, "duration": 8, "velocity": 85}, {"time": 3348, "pitch": 63, "duration": 4, "velocity": 117}, {"time": 3351, "pitch": 68, "duration": 12, "velocity": 127}, {"time": 3354, "pitch": 56, "duration": 1, "velocity": 102}, {"time": 3357, "pitch": 63, "duration": 6, "velocity": 117}, {"time": 3360, "pitch": 60, "duration": 4, "velocity": 102}, {"time": 3363, "pitch": 37, "duration": 22, "velocity": 77}, {"time": 3366, "pitch": 44, "duration": 21, "velocity": 62}, {"time": 3369, "pitch": 49, "duration": 7, "velocity": 82}, {"time": 3372, "pitch": 56, "duration": 4, "velocity": 89}, {"time": 3375, "pitch": 64, "duration": 20, "velocity": 95}, {"time": 3378, "pitch": 49, "duration": 10, "velocity": 92}, {"time": 3381, "pitch": 61, "duration": 9, "velocity": 92}, {"time": 3384, "pitch": 56, "duration": 6, "velocity": 100}, {"time": 3387, "pitch": 37, "duration": 18, "velocity": 83}, {"time": 3390, "pitch": 44, "duration": 15, "velocity": 40}, {"time": 3393, "pitch": 49, "duration": 8, "velocity": 90}, {"time": 3396, "pitch": 56, "duration": 2, "velocity": 90}, {"time": 3399, "pitch": 64, "duration": 7, "velocity": 90}, {"time": 3402, "pitch": 49, "duration": 4, "velocity": 95}, {"time": 3405, "pitch": 61, "duration": 3, "velocity": 100}, {"time": 3408, "pitch": 64, "duration": 4, "velocity": 92}, {"time": 3411, "pitch": 45, "duration": 18, "velocity": 85}, {"time": 3414, "pitch": 52, "duration": 10, "velocity": 85}, {"time": 3417, "pitch": 57, "duration": 4, "velocity": 95}, {"time": 3420, "pitch": 64, "duration": 14, "velocity": 102}, {"time": 3423, "pitch": 61, "duration": 7, "velocity": 112}, {"time": 3426, "pitch": 52, "duration": 3, "velocity": 70}, {"time": 3429, "pitch": 57, "duration": 4, "velocity": 95}, {"time": 3432, "pitch": 61, "duration": 3, "velocity": 100}, {"time": 3435, "pitch": 44, "duration": 17, "velocity": 102}, {"time": 3438, "pitch": 56, "duration": 10, "velocity": 95}, {"time": 3441, "pitch": 59, "duration": 8, "velocity": 83}, {"time": 3444, "pitch": 63, "duration": 3, "velocity": 107}, {"time": 3447, "pitch": 68, "duration": 12, "velocity": 107}, {"time": 3450, "pitch": 56, "duration": 2, "velocity": 96}, {"time": 3453, "pitch": 63, "duration": 5, "velocity": 97}, {"time": 3456, "pitch": 59, "duration": 4, "velocity": 81}, {"time": 3459, "pitch": 42, "duration": 18, "velocity": 92}, {"time": 3462, "pitch": 54, "duration": 10, "velocity": 85}, {"time": 3465, "pitch": 57, "duration": 8, "velocity": 73}, {"time": 3468, "pitch": 61, "duration": 4, "velocity": 88}, {"time": 3471, "pitch": 66, "duration": 11, "velocity": 97}, {"time": 3474, "pitch": 54, "duration": 2, "velocity": 85}, {"time": 3477, "pitch": 61, "duration": 5, "velocity": 89}, {"time": 3480, "pitch": 57, "duration": 3, "velocity": 93}, {"time": 3483, "pitch": 44, "duration": 45, "velocity": 99}, {"time": 3483, "pitch": 59, "duration": 46, "velocity": 97}, {"time": 3483, "pitch": 63, "duration": 46, "velocity": 117}, {"time": 3489, "pitch": 51, "duration": 38, "velocity": 39}, {"time": 3496, "pitch": 56, "duration": 31, "velocity": 90}, {"time": 3531, "pitch": 37, "duration": 43, "velocity": 97}, {"time": 3537, "pitch": 44, "duration": 38, "velocity": 57}, {"time": 3543, "pitch": 49, "duration": 33, "velocity": 117}, {"time": 3550, "pitch": 52, "duration": 11, "velocity": 90}, {"time": 3556, "pitch": 56, "duration": 7, "velocity": 85}, {"time": 3556, "pitch": 61, "duration": 10, "velocity": 102}, {"time": 3562, "pitch": 52, "duration": 7, "velocity": 76}, {"time": 3567, "pitch": 61, "duration": 11, "velocity": 95}, {"time": 3573, "pitch": 56, "duration": 5, "velocity": 72}, {"time": 3578, "pitch": 37, "duration": 36, "velocity": 54}, {"time": 3579, "pitch": 44, "duration": 33, "velocity": 66}, {"time": 3579, "pitch": 49, "duration": 33, "velocity": 60}, {"time": 3579, "pitch": 52, "duration": 33, "velocity": 48}, {"time": 3580, "pitch": 56, "duration": 32, "velocity": 74}, {"time": 3581, "pitch": 61, "duration": 31, "velocity": 95}], "annotations": [{"time": 52, "annotation": {"number": 64, "value": 127}, "group": "control_change"}, {"time": 97, "annotation": {"number": 64, "value": 0}, "group": "control_change"}, {"time": 99, "annotation": {"number": 64, "value": 127}, "group": "control_change"}, {"time": 121, "annotation": {"number": 64, "value": 0}, "group": "control_change"}, {"time": 122, "annotation": {"number": 64, "value": 127}, "group": "control_change"}, {"time": 146, "annotation": {"number": 64, "value": 0}, "group": "control_change"}, {"time": 148, "annotation": {"number": 64, "value": 127}, "group": "control_change"}, {"time": 169, "annotation": {"number": 64, "value": 0}, "group": "control_change"}, {"time": 171, "annotation": {"number": 64, "value": 127}, "group": "control_change"}, {"time": 193, "annotation": {"number": 64, "value": 0}, "group": "control_change"}, {"time": 195, "annotation": {"number": 64, "value": 127}, "group": "control_change"}, {"time": 216, "annotation": {"number": 64, "value": 0}, "group": "control_change"}, {"time": 219, "annotation": {"number": 64, "value": 127}, "group": "control_change"}, {"time": 241, "annotation": {"number": 64, "value": 0}, "group": "control_change"}, {"time": 243, "annotation": {"number": 64, "value": 127}, "group": "control_change"}, {"time": 264, "annotation": {"number": 64, "value": 0}, "group": "control_change"}, {"time": 266, "annotation": {"number": 64, "value": 127}, "group": "control_change"}, {"time": 288, "annotation": {"number": 64, "value": 0}, "group": "control_change"}, {"time": 291, "annotation": {"number": 64, "value": 127}, "group": "control_change"}, {"time": 312, "annotation": {"number": 64, "value": 0}, "group": "control_change"}, {"time": 314, "annotation": {"number": 64, "value": 127}, "group": "control_change"}, {"time": 336, "annotation": {"number": 64, "value": 0}, "group": "control_change"}, {"time": 339, "annotation": {"number": 64, "value": 127}, "group": "control_change"}, {"time": 360, "annotation": {"number": 64, "value": 0}, "group": "control_change"}, {"time": 362, "annotation": {"number": 64, "value": 127}, "group": "control_change"}, {"time": 384, "annotation": {"number": 64, "value": 0}, "group": "control_change"}, {"time": 386, "annotation": {"number": 64, "value": 127}, "group": "control_change"}, {"time": 387, "annotation": {"number": 64, "value": 127}, "group": "control_change"}, {"time": 433, "annotation": {"number": 64, "value": 0}, "group": "control_change"}, {"time": 435, "annotation": {"number": 64, "value": 127}, "group": "control_change"}, {"time": 480, "annotation": {"number": 64, "value": 0}, "group": "control_change"}, {"time": 483, "annotation": {"number": 64, "value": 127}, "group": "control_change"}, {"time": 505, "annotation": {"number": 64, "value": 0}, "group": "control_change"}, {"time": 507, "annotation": {"number": 64, "value": 127}, "group": "control_change"}, {"time": 528, "annotation": {"number": 64, "value": 0}, "group": "control_change"}, {"time": 531, "annotation": {"number": 64, "value": 127}, "group": "control_change"}, {"time": 553, "annotation": {"number": 64, "value": 0}, "group": "control_change"}, {"time": 555, "annotation": {"number": 64, "value": 127}, "group": "control_change"}, {"time": 576, "annotation": {"number": 64, "value": 0}, "group": "control_change"}, {"time": 579, "annotation": {"number": 64, "value": 127}, "group": "control_change"}, {"time": 600, "annotation": {"number": 64, "value": 0}, "group": "control_change"}, {"time": 603, "annotation": {"number": 64, "value": 127}, "group": "control_change"}, {"time": 624, "annotation": {"number": 64, "value": 0}, "group": "control_change"}, {"time": 627, "annotation": {"number": 64, "value": 127}, "group": "control_change"}, {"time": 648, "annotation": {"number": 64, "value": 0}, "group": "control_change"}, {"time": 651, "annotation": {"number": 64, "value": 127}, "group": "control_change"}, {"time": 673, "annotation": {"number": 64, "value": 0}, "group": "control_change"}, {"time": 675, "annotation": {"number": 64, "value": 127}, "group": "control_change"}, {"time": 696, "annotation": {"number": 64, "value": 0}, "group": "control_change"}, {"time": 699, "annotation": {"number": 64, "value": 127}, "group": "control_change"}, {"time": 720, "annotation": {"number": 64, "value": 0}, "group": "control_change"}, {"time": 722, "annotation": {"number": 64, "value": 127}, "group": "control_change"}, {"time": 743, "annotation": {"number": 64, "value": 0}, "group": "control_change"}, {"time": 746, "annotation": {"number": 64, "value": 127}, "group": "control_change"}, {"time": 768, "annotation": {"number": 64, "value": 0}, "group": "control_change"}, {"time": 771, "annotation": {"number": 64, "value": 127}, "group": "control_change"}, {"time": 792, "annotation": {"number": 64, "value": 0}, "group": "control_change"}, {"time": 794, "annotation": {"number": 64, "value": 127}, "group": "control_change"}, {"time": 815, "annotation": {"number": 64, "value": 0}, "group": "control_change"}, {"time": 818, "annotation": {"number": 64, "value": 127}, "group": "control_change"}, {"time": 840, "annotation": {"number": 64, "value": 0}, "group": "control_change"}, {"time": 842, "annotation": {"number": 64, "value": 127}, "group": "control_change"}, {"time": 864, "annotation": {"number": 64, "value": 0}, "group": "control_change"}, {"time": 866, "annotation": {"number": 64, "value": 127}, "group": "control_change"}, {"time": 888, "annotation": {"number": 64, "value": 0}, "group": "control_change"}, {"time": 891, "annotation": {"number": 64, "value": 127}, "group": "control_change"}, {"time": 912, "annotation": {"number": 64, "value": 0}, "group": "control_change"}, {"time": 914, "annotation": {"number": 64, "value": 127}, "group": "control_change"}, {"time": 935, "annotation": {"number": 64, "value": 0}, "group": "control_change"}, {"time": 939, "annotation": {"number": 64, "value": 127}, "group": "control_change"}, {"time": 940, "annotation": {"number": 64, "value": 0}, "group": "control_change"}, {"time": 944, "annotation": {"number": 64, "value": 127}, "group": "control_change"}, {"time": 959, "annotation": {"number": 64, "value": 0}, "group": "control_change"}, {"time": 962, "annotation": {"number": 64, "value": 127}, "group": "control_change"}, {"time": 984, "annotation": {"number": 64, "value": 0}, "group": "control_change"}, {"time": 987, "annotation": {"number": 64, "value": 127}, "group": "control_change"}, {"time": 1008, "annotation": {"number": 64, "value": 0}, "group": "control_change"}, {"time": 1011, "annotation": {"number": 64, "value": 127}, "group": "control_change"}, {"time": 1033, "annotation": {"number": 64, "value": 0}, "group": "control_change"}, {"time": 1035, "annotation": {"number": 64, "value": 127}, "group": "control_change"}, {"time": 1045, "annotation": {"number": 64, "value": 0}, "group": "control_change"}, {"time": 1047, "annotation": {"number": 64, "value": 127}, "group": "control_change"}, {"time": 1056, "annotation": {"number": 64, "value": 0}, "group": "control_change"}, {"time": 1059, "annotation": {"number": 64, "value": 127}, "group": "control_change"}, {"time": 1081, "annotation": {"number": 64, "value": 0}, "group": "control_change"}, {"time": 1084, "annotation": {"number": 64, "value": 127}, "group": "control_change"}, {"time": 1104, "annotation": {"number": 64, "value": 0}, "group": "control_change"}, {"time": 1107, "annotation": {"number": 64, "value": 127}, "group": "control_change"}, {"time": 1129, "annotation": {"number": 64, "value": 0}, "group": "control_change"}, {"time": 1131, "annotation": {"number": 64, "value": 127}, "group": "control_change"}, {"time": 1153, "annotation": {"number": 64, "value": 0}, "group": "control_change"}, {"time": 1155, "annotation": {"number": 64, "value": 127}, "group": "control_change"}, {"time": 1177, "annotation": {"number": 64, "value": 0}, "group": "control_change"}, {"time": 1179, "annotation": {"number": 64, "value": 127}, "group": "control_change"}, {"time": 1227, "annotation": {"number": 64, "value": 0}, "group": "control_change"}, {"time": 1248, "annotation": {"number": 64, "value": 0}, "group": "control_change"}, {"time": 1250, "annotation": {"number": 64, "value": 127}, "group": "control_change"}, {"time": 1272, "annotation": {"number": 64, "value": 0}, "group": "control_change"}, {"time": 1275, "annotation": {"number": 64, "value": 127}, "group": "control_change"}, {"time": 1296, "annotation": {"number": 64, "value": 0}, "group": "control_change"}, {"time": 1298, "annotation": {"number": 64, "value": 127}, "group": "control_change"}, {"time": 1319, "annotation": {"number": 64, "value": 0}, "group": "control_change"}, {"time": 1323, "annotation": {"number": 64, "value": 127}, "group": "control_change"}, {"time": 1324, "annotation": {"number": 64, "value": 0}, "group": "control_change"}, {"time": 1328, "annotation": {"number": 64, "value": 127}, "group": "control_change"}, {"time": 1343, "annotation": {"number": 64, "value": 0}, "group": "control_change"}, {"time": 1346, "annotation": {"number": 64, "value": 127}, "group": "control_change"}, {"time": 1368, "annotation": {"number": 64, "value": 0}, "group": "control_change"}, {"time": 1371, "annotation": {"number": 64, "value": 127}, "group": "control_change"}, {"time": 1392, "annotation": {"number": 64, "value": 0}, "group": "control_change"}, {"time": 1395, "annotation": {"number": 64, "value": 127}, "group": "control_change"}, {"time": 1417, "annotation": {"number": 64, "value": 0}, "group": "control_change"}, {"time": 1419, "annotation": {"number": 64, "value": 127}, "group": "control_change"}, {"time": 1429, "annotation": {"number": 64, "value": 0}, "group": "control_change"}, {"time": 1431, "annotation": {"number": 64, "value": 127}, "group": "control_change"}, {"time": 1440, "annotation": {"number": 64, "value": 0}, "group": "control_change"}, {"time": 1443, "annotation": {"number": 64, "value": 127}, "group": "control_change"}, {"time": 1465, "annotation": {"number": 64, "value": 0}, "group": "control_change"}, {"time": 1468, "annotation": {"number": 64, "value": 127}, "group": "control_change"}, {"time": 1488, "annotation": {"number": 64, "value": 0}, "group": "control_change"}, {"time": 1491, "annotation": {"number": 64, "value": 127}, "group": "control_change"}, {"time": 1513, "annotation": {"number": 64, "value": 0}, "group": "control_change"}, {"time": 1515, "annotation": {"number": 64, "value": 127}, "group": "control_change"}, {"time": 1537, "annotation": {"number": 64, "value": 0}, "group": "control_change"}, {"time": 1539, "annotation": {"number": 64, "value": 127}, "group": "control_change"}, {"time": 1561, "annotation": {"number": 64, "value": 0}, "group": "control_change"}, {"time": 1563, "annotation": {"number": 64, "value": 127}, "group": "control_change"}, {"time": 1611, "annotation": {"number": 64, "value": 0}, "group": "control_change"}, {"time": 1611, "annotation": {"number": 64, "value": 127}, "group": "control_change"}, {"time": 1656, "annotation": {"number": 64, "value": 0}, "group": "control_change"}, {"time": 1659, "annotation": {"number": 64, "value": 127}, "group": "control_change"}, {"time": 1680, "annotation": {"number": 64, "value": 0}, "group": "control_change"}, {"time": 1683, "annotation": {"number": 64, "value": 127}, "group": "control_change"}, {"time": 1703, "annotation": {"number": 64, "value": 0}, "group": "control_change"}, {"time": 1707, "annotation": {"number": 64, "value": 127}, "group": "control_change"}, {"time": 1728, "annotation": {"number": 64, "value": 0}, "group": "control_change"}, {"time": 1731, "annotation": {"number": 64, "value": 127}, "group": "control_change"}, {"time": 1752, "annotation": {"number": 64, "value": 0}, "group": "control_change"}, {"time": 1755, "annotation": {"number": 64, "value": 127}, "group": "control_change"}, {"time": 1802, "annotation": {"number": 64, "value": 0}, "group": "control_change"}, {"time": 1824, "annotation": {"number": 64, "value": 0}, "group": "control_change"}, {"time": 1826, "annotation": {"number": 64, "value": 127}, "group": "control_change"}, {"time": 1848, "annotation": {"number": 64, "value": 0}, "group": "control_change"}, {"time": 1851, "annotation": {"number": 64, "value": 127}, "group": "control_change"}, {"time": 1872, "annotation": {"number": 64, "value": 0}, "group": "control_change"}, {"time": 1874, "annotation": {"number": 64, "value": 127}, "group": "control_change"}, {"time": 1896, "annotation": {"number": 64, "value": 0}, "group": "control_change"}, {"time": 1899, "annotation": {"number": 64, "value": 127}, "group": "control_change"}, {"time": 1920, "annotation": {"number": 64, "value": 0}, "group": "control_change"}, {"time": 1922, "annotation": {"number": 64, "value": 127}, "group": "control_change"}, {"time": 1944, "annotation": {"number": 64, "value": 0}, "group": "control_change"}, {"time": 1946, "annotation": {"number": 64, "value": 127}, "group": "control_change"}, {"time": 1947, "annotation": {"number": 64, "value": 127}, "group": "control_change"}, {"time": 1993, "annotation": {"number": 64, "value": 0}, "group": "control_change"}, {"time": 1995, "annotation": {"number": 64, "value": 127}, "group": "control_change"}, {"time": 2040, "annotation": {"number": 64, "value": 0}, "group": "control_change"}, {"time": 2043, "annotation": {"number": 64, "value": 127}, "group": "control_change"}, {"time": 2065, "annotation": {"number": 64, "value": 0}, "group": "control_change"}, {"time": 2067, "annotation": {"number": 64, "value": 127}, "group": "control_change"}, {"time": 2088, "annotation": {"number": 64, "value": 0}, "group": "control_change"}, {"time": 2091, "annotation": {"number": 64, "value": 127}, "group": "control_change"}, {"time": 2113, "annotation": {"number": 64, "value": 0}, "group": "control_change"}, {"time": 2115, "annotation": {"number": 64, "value": 127}, "group": "control_change"}, {"time": 2136, "annotation": {"number": 64, "value": 0}, "group": "control_change"}, {"time": 2139, "annotation": {"number": 64, "value": 127}, "group": "control_change"}, {"time": 2160, "annotation": {"number": 64, "value": 0}, "group": "control_change"}, {"time": 2163, "annotation": {"number": 64, "value": 127}, "group": "control_change"}, {"time": 2184, "annotation": {"number": 64, "value": 0}, "group": "control_change"}, {"time": 2187, "annotation": {"number": 64, "value": 127}, "group": "control_change"}, {"time": 2208, "annotation": {"number": 64, "value": 0}, "group": "control_change"}, {"time": 2211, "annotation": {"number": 64, "value": 127}, "group": "control_change"}, {"time": 2233, "annotation": {"number": 64, "value": 0}, "group": "control_change"}, {"time": 2235, "annotation": {"number": 64, "value": 127}, "group": "control_change"}, {"time": 2256, "annotation": {"number": 64, "value": 0}, "group": "control_change"}, {"time": 2259, "annotation": {"number": 64, "value": 127}, "group": "control_change"}, {"time": 2280, "annotation": {"number": 64, "value": 0}, "group": "control_change"}, {"time": 2282, "annotation": {"number": 64, "value": 127}, "group": "control_change"}, {"time": 2303, "annotation": {"number": 64, "value": 0}, "group": "control_change"}, {"time": 2306, "annotation": {"number": 64, "value": 127}, "group": "control_change"}, {"time": 2328, "annotation": {"number": 64, "value": 0}, "group": "control_change"}, {"time": 2331, "annotation": {"number": 64, "value": 127}, "group": "control_change"}, {"time": 2352, "annotation": {"number": 64, "value": 0}, "group": "control_change"}, {"time": 2354, "annotation": {"number": 64, "value": 127}, "group": "control_change"}, {"time": 2375, "annotation": {"number": 64, "value": 0}, "group": "control_change"}, {"time": 2378, "annotation": {"number": 64, "value": 127}, "group": "control_change"}, {"time": 2400, "annotation": {"number": 64, "value": 0}, "group": "control_change"}, {"time": 2402, "annotation": {"number": 64, "value": 127}, "group": "control_change"}, {"time": 2424, "annotation": {"number": 64, "value": 0}, "group": "control_change"}, {"time": 2426, "annotation": {"number": 64, "value": 127}, "group": "control_change"}, {"time": 2448, "annotation": {"number": 64, "value": 0}, "group": "control_change"}, {"time": 2451, "annotation": {"number": 64, "value": 127}, "group": "control_change"}, {"time": 2472, "annotation": {"number": 64, "value": 0}, "group": "control_change"}, {"time": 2474, "annotation": {"number": 64, "value": 127}, "group": "control_change"}, {"time": 2495, "annotation": {"number": 64, "value": 0}, "group": "control_change"}, {"time": 2499, "annotation": {"number": 64, "value": 127}, "group": "control_change"}, {"time": 2500, "annotation": {"number": 64, "value": 0}, "group": "control_change"}, {"time": 2504, "annotation": {"number": 64, "value": 127}, "group": "control_change"}, {"time": 2519, "annotation": {"number": 64, "value": 0}, "group": "control_change"}, {"time": 2522, "annotation": {"number": 64, "value": 127}, "group": "control_change"}, {"time": 2544, "annotation": {"number": 64, "value": 0}, "group": "control_change"}, {"time": 2547, "annotation": {"number": 64, "value": 127}, "group": "control_change"}, {"time": 2568, "annotation": {"number": 64, "value": 0}, "group": "control_change"}, {"time": 2571, "annotation": {"number": 64, "value": 127}, "group": "control_change"}, {"time": 2593, "annotation": {"number": 64, "value": 0}, "group": "control_change"}, {"time": 2595, "annotation": {"number": 64, "value": 127}, "group": "control_change"}, {"time": 2605, "annotation": {"number": 64, "value": 0}, "group": "control_change"}, {"time": 2607, "annotation": {"number": 64, "value": 127}, "group": "control_change"}, {"time": 2616, "annotation": {"number": 64, "value": 0}, "group": "control_change"}, {"time": 2619, "annotation": {"number": 64, "value": 127}, "group": "control_change"}, {"time": 2641, "annotation": {"number": 64, "value": 0}, "group": "control_change"}, {"time": 2644, "annotation": {"number": 64, "value": 127}, "group": "control_change"}, {"time": 2664, "annotation": {"number": 64, "value": 0}, "group": "control_change"}, {"time": 2667, "annotation": {"number": 64, "value": 127}, "group": "control_change"}, {"time": 2689, "annotation": {"number": 64, "value": 0}, "group": "control_change"}, {"time": 2691, "annotation": {"number": 64, "value": 127}, "group": "control_change"}, {"time": 2713, "annotation": {"number": 64, "value": 0}, "group": "control_change"}, {"time": 2715, "annotation": {"number": 64, "value": 127}, "group": "control_change"}, {"time": 2737, "annotation": {"number": 64, "value": 0}, "group": "control_change"}, {"time": 2739, "annotation": {"number": 64, "value": 127}, "group": "control_change"}, {"time": 2787, "annotation": {"number": 64, "value": 0}, "group": "control_change"}, {"time": 2808, "annotation": {"number": 64, "value": 0}, "group": "control_change"}, {"time": 2810, "annotation": {"number": 64, "value": 127}, "group": "control_change"}, {"time": 2832, "annotation": {"number": 64, "value": 0}, "group": "control_change"}, {"time": 2835, "annotation": {"number": 64, "value": 127}, "group": "control_change"}, {"time": 2856, "annotation": {"number": 64, "value": 0}, "group": "control_change"}, {"time": 2858, "annotation": {"number": 64, "value": 127}, "group": "control_change"}, {"time": 2879, "annotation": {"number": 64, "value": 0}, "group": "control_change"}, {"time": 2883, "annotation": {"number": 64, "value": 127}, "group": "control_change"}, {"time": 2884, "annotation": {"number": 64, "value": 0}, "group": "control_change"}, {"time": 2888, "annotation": {"number": 64, "value": 127}, "group": "control_change"}, {"time": 2903, "annotation": {"number": 64, "value": 0}, "group": "control_change"}, {"time": 2906, "annotation": {"number": 64, "value": 127}, "group": "control_change"}, {"time": 2928, "annotation": {"number": 64, "value": 0}, "group": "control_change"}, {"time": 2931, "annotation": {"number": 64, "value": 127}, "group": "control_change"}, {"time": 2952, "annotation": {"number": 64, "value": 0}, "group": "control_change"}, {"time": 2955, "annotation": {"number": 64, "value": 127}, "group": "control_change"}, {"time": 2977, "annotation": {"number": 64, "value": 0}, "group": "control_change"}, {"time": 2979, "annotation": {"number": 64, "value": 127}, "group": "control_change"}, {"time": 2989, "annotation": {"number": 64, "value": 0}, "group": "control_change"}, {"time": 2991, "annotation": {"number": 64, "value": 127}, "group": "control_change"}, {"time": 3000, "annotation": {"number": 64, "value": 0}, "group": "control_change"}, {"time": 3003, "annotation": {"number": 64, "value": 127}, "group": "control_change"}, {"time": 3025, "annotation": {"number": 64, "value": 0}, "group": "control_change"}, {"time": 3028, "annotation": {"number": 64, "value": 127}, "group": "control_change"}, {"time": 3048, "annotation": {"number": 64, "value": 0}, "group": "control_change"}, {"time": 3051, "annotation": {"number": 64, "value": 127}, "group": "control_change"}, {"time": 3073, "annotation": {"number": 64, "value": 0}, "group": "control_change"}, {"time": 3075, "annotation": {"number": 64, "value": 127}, "group": "control_change"}, {"time": 3097, "annotation": {"number": 64, "value": 0}, "group": "control_change"}, {"time": 3099, "annotation": {"number": 64, "value": 127}, "group": "control_change"}, {"time": 3121, "annotation": {"number": 64, "value": 0}, "group": "control_change"}, {"time": 3123, "annotation": {"number": 64, "value": 127}, "group": "control_change"}, {"time": 3171, "annotation": {"number": 64, "value": 0}, "group": "control_change"}, {"time": 3171, "annotation": {"number": 64, "value": 127}, "group": "control_change"}, {"time": 3192, "annotation": {"number": 64, "value": 0}, "group": "control_change"}, {"time": 3194, "annotation": {"number": 64, "value": 127}, "group": "control_change"}, {"time": 3216, "annotation": {"number": 64, "value": 0}, "group": "control_change"}, {"time": 3219, "annotation": {"number": 64, "value": 127}, "group": "control_change"}, {"time": 3240, "annotation": {"number": 64, "value": 0}, "group": "control_change"}, {"time": 3242, "annotation": {"number": 64, "value": 127}, "group": "control_change"}, {"time": 3263, "annotation": {"number": 64, "value": 0}, "group": "control_change"}, {"time": 3267, "annotation": {"number": 64, "value": 127}, "group": "control_change"}, {"time": 3268, "annotation": {"number": 64, "value": 0}, "group": "control_change"}, {"time": 3272, "annotation": {"number": 64, "value": 127}, "group": "control_change"}, {"time": 3287, "annotation": {"number": 64, "value": 0}, "group": "control_change"}, {"time": 3290, "annotation": {"number": 64, "value": 127}, "group": "control_change"}, {"time": 3312, "annotation": {"number": 64, "value": 0}, "group": "control_change"}, {"time": 3315, "annotation": {"number": 64, "value": 127}, "group": "control_change"}, {"time": 3336, "annotation": {"number": 64, "value": 0}, "group": "control_change"}, {"time": 3339, "annotation": {"number": 64, "value": 127}, "group": "control_change"}, {"time": 3361, "annotation": {"number": 64, "value": 0}, "group": "control_change"}, {"time": 3363, "annotation": {"number": 64, "value": 127}, "group": "control_change"}, {"time": 3373, "annotation": {"number": 64, "value": 0}, "group": "control_change"}, {"time": 3375, "annotation": {"number": 64, "value": 127}, "group": "control_change"}, {"time": 3384, "annotation": {"number": 64, "value": 0}, "group": "control_change"}, {"time": 3387, "annotation": {"number": 64, "value": 127}, "group": "control_change"}, {"time": 3409, "annotation": {"number": 64, "value": 0}, "group": "control_change"}, {"time": 3412, "annotation": {"number": 64, "value": 127}, "group": "control_change"}, {"time": 3432, "annotation": {"number": 64, "value": 0}, "group": "control_change"}, {"time": 3435, "annotation": {"number": 64, "value": 127}, "group": "control_change"}, {"time": 3457, "annotation": {"number": 64, "value": 0}, "group": "control_change"}, {"time": 3459, "annotation": {"number": 64, "value": 127}, "group": "control_change"}, {"time": 3481, "annotation": {"number": 64, "value": 0}, "group": "control_change"}, {"time": 3486, "annotation": {"number": 64, "value": 127}, "group": "control_change"}, {"time": 3529, "annotation": {"number": 64, "value": 0}, "group": "control_change"}, {"time": 3532, "annotation": {"number": 64, "value": 127}, "group": "control_change"}, {"time": 3579, "annotation": {"number": 64, "value": 0}, "group": "control_change"}, {"time": 3582, "annotation": {"number": 64, "value": 127}, "group": "control_change"}, {"time": 3643, "annotation": {"number": 64, "value": 0}, "group": "control_change"}, {"time": 3644, "annotation": {"number": 64, "value": 127}, "group": "control_change"}, {"time": 3646, "annotation": {"number": 64, "value": 0}, "group": "control_change"}, {"time": 3647, "annotation": {"number": 64, "value": 127}, "group": "control_change"}, {"time": 3648, "annotation": {"number": 64, "value": 0}, "group": "control_change"}, {"time": 3648, "annotation": {"number": 64, "value": 127}, "group": "control_change"}, {"time": 3651, "annotation": {"number": 64, "value": 0}, "group": "control_change"}]}]}